tick,type,numerator,denominator,clocks_per_click,notated_32nd_notes_per_beat,time,meta,track,data,tempo,control,value,channel,program,key,note,velocity
0,time_signature,2,4,96,8,0,1,0,,,,,,,,,
0,control_change,,,,,0,0,2,,,10,42,1,,,,
0,program_change,,,,,0,0,2,,,,,1,40,,,
0,key_signature,,,,,0,1,2,,,,,,,C,,
0,note_on,,,,,0,0,2,,,,,1,,,55,93
0,key_signature,,,,,0,1,6,,,,,,,C,,
0,track_name,,,,,0,1,3,,,,,,,,,
0,control_change,,,,,0,0,3,,,0,0,2,,,,
0,control_change,,,,,0,0,3,,,10,72,2,,,,
0,program_change,,,,,0,0,3,,,,,2,41,,,
0,key_signature,,,,,0,1,3,,,,,,,C,,
0,note_on,,,,,0,0,3,,,,,2,,,58,90
0,track_name,,,,,0,1,4,,,,,,,,,
0,control_change,,,,,0,0,4,,,0,0,3,,,,
0,control_change,,,,,0,0,4,,,10,94,3,,,,
0,program_change,,,,,0,0,4,,,,,3,42,,,
0,key_signature,,,,,0,1,4,,,,,,,C,,
0,note_on,,,,,0,0,4,,,,,3,,,51,90
0,track_name,,,,,0,1,5,,,,,,,,,
0,control_change,,,,,0,0,5,,,0,0,4,,,,
0,control_change,,,,,0,0,5,,,10,80,4,,,,
0,control_change,,,,,0,0,5,,,7,127,4,,,,
0,program_change,,,,,0,0,5,,,,,4,45,,,
0,key_signature,,,,,0,1,5,,,,,,,C,,
0,control_change,,,,,0,0,2,,,0,0,1,,,,
0,track_name,,,,,0,1,2,,,,,,,,,
0,end_of_track,,,,,0,1,6,,,,,,,,,
0,sequencer_specific,,,,,0,1,0,"(0, 0, 65)",,,,,,,,
0,note_on,,,,,0,0,1,,,,,0,,,63,109
0,note_on,,,,,0,0,1,,,,,0,,,55,109
0,key_signature,,,,,0,1,1,,,,,,,C,,
0,program_change,,,,,0,0,1,,,,,0,40,,,
0,set_tempo,,,,,0,1,0,,384615,,,,,,,
0,control_change,,,,,0,0,1,,,10,39,0,,,,
0,control_change,,,,,0,0,1,,,0,0,0,,,,
0,track_name,,,,,0,1,1,,,,,,,,,
0,end_of_track,,,,,0,1,0,,,,,,,,,
96,note_off,,,,,96,0,3,,,,,2,,,58,0
96,note_on,,,,,0,0,3,,,,,2,,,58,90
96,note_off,,,,,96,0,2,,,,,1,,,55,0
96,note_on,,,,,0,0,2,,,,,1,,,55,93
192,note_off,,,,,96,0,3,,,,,2,,,58,0
192,note_on,,,,,0,0,3,,,,,2,,,55,90
192,note_on,,,,,0,0,2,,,,,1,,,58,93
192,note_off,,,,,96,0,2,,,,,1,,,55,0
288,note_on,,,,,0,0,2,,,,,1,,,58,93
288,note_on,,,,,0,0,3,,,,,2,,,55,90
288,note_off,,,,,96,0,3,,,,,2,,,55,0
288,note_off,,,,,96,0,2,,,,,1,,,58,0
384,note_on,,,,,0,0,2,,,,,1,,,55,93
384,note_off,,,,,96,0,3,,,,,2,,,55,0
384,note_on,,,,,0,0,3,,,,,2,,,58,90
384,note_off,,,,,96,0,2,,,,,1,,,58,0
480,note_off,,,,,96,0,3,,,,,2,,,58,0
480,note_off,,,,,96,0,2,,,,,1,,,55,0
480,note_on,,,,,0,0,2,,,,,1,,,55,93
480,note_on,,,,,0,0,3,,,,,2,,,58,90
576,note_on,,,,,0,0,3,,,,,2,,,55,90
576,note_on,,,,,0,0,2,,,,,1,,,58,93
576,note_off,,,,,96,0,2,,,,,1,,,55,0
576,note_off,,,,,96,0,3,,,,,2,,,58,0
672,note_on,,,,,0,0,3,,,,,2,,,55,90
672,note_off,,,,,96,0,3,,,,,2,,,55,0
672,note_on,,,,,0,0,2,,,,,1,,,58,93
672,note_off,,,,,96,0,2,,,,,1,,,58,0
768,note_on,,,,,0,0,3,,,,,2,,,58,90
768,note_off,,,,,96,0,3,,,,,2,,,55,0
768,note_on,,,,,0,0,2,,,,,1,,,55,93
768,note_off,,,,,96,0,2,,,,,1,,,58,0
864,note_on,,,,,0,0,2,,,,,1,,,55,93
864,note_off,,,,,96,0,2,,,,,1,,,55,0
864,note_on,,,,,0,0,3,,,,,2,,,58,90
864,note_off,,,,,96,0,3,,,,,2,,,58,0
960,note_off,,,,,96,0,3,,,,,2,,,58,0
960,note_on,,,,,0,0,3,,,,,2,,,55,90
960,note_off,,,,,96,0,2,,,,,1,,,55,0
960,note_on,,,,,0,0,2,,,,,1,,,58,93
1056,note_on,,,,,0,0,2,,,,,1,,,58,93
1056,note_off,,,,,96,0,2,,,,,1,,,58,0
1056,note_off,,,,,96,0,3,,,,,2,,,55,0
1056,note_on,,,,,0,0,3,,,,,2,,,55,90
1152,note_on,,,,,0,0,2,,,,,1,,,55,93
1152,note_off,,,,,96,0,2,,,,,1,,,58,0
1152,note_off,,,,,0,0,1,,,,,0,,,63,0
1152,note_off,,,,,1152,0,1,,,,,0,,,55,0
1152,note_off,,,,,1152,0,4,,,,,3,,,51,0
1152,note_on,,,,,0,0,1,,,,,0,,,64,109
1152,note_on,,,,,0,0,3,,,,,2,,,58,90
1152,note_off,,,,,96,0,3,,,,,2,,,55,0
1248,note_off,,,,,96,0,3,,,,,2,,,58,0
1248,note_on,,,,,0,0,2,,,,,1,,,55,93
1248,note_off,,,,,96,0,2,,,,,1,,,55,0
1248,note_on,,,,,0,0,3,,,,,2,,,58,90
1344,note_on,,,,,0,0,2,,,,,1,,,58,93
1344,note_off,,,,,96,0,2,,,,,1,,,55,0
1344,note_off,,,,,96,0,3,,,,,2,,,58,0
1344,note_on,,,,,0,0,3,,,,,2,,,55,90
1440,note_on,,,,,0,0,2,,,,,1,,,58,93
1440,note_off,,,,,96,0,2,,,,,1,,,58,0
1440,note_on,,,,,0,0,3,,,,,2,,,55,90
1440,note_off,,,,,96,0,3,,,,,2,,,55,0
1536,note_on,,,,,384,0,4,,,,,3,,,51,90
1536,note_on,,,,,0,0,1,,,,,0,,,65,109
1536,note_off,,,,,96,0,3,,,,,2,,,55,0
1536,note_on,,,,,0,0,3,,,,,2,,,60,90
1536,note_off,,,,,96,0,2,,,,,1,,,58,0
1536,note_on,,,,,0,0,2,,,,,1,,,56,93
1536,note_off,,,,,384,0,1,,,,,0,,,64,0
1632,note_off,,,,,96,0,3,,,,,2,,,60,0
1632,note_on,,,,,0,0,3,,,,,2,,,60,90
1632,note_off,,,,,96,0,1,,,,,0,,,65,0
1632,note_off,,,,,96,0,2,,,,,1,,,56,0
1632,note_on,,,,,0,0,2,,,,,1,,,56,93
1728,note_on,,,,,96,0,1,,,,,0,,,67,109
1728,note_on,,,,,0,0,3,,,,,2,,,56,90
1728,note_on,,,,,0,0,2,,,,,1,,,60,93
1728,note_off,,,,,96,0,2,,,,,1,,,56,0
1728,note_off,,,,,96,0,3,,,,,2,,,60,0
1824,note_on,,,,,0,0,2,,,,,1,,,60,93
1824,note_off,,,,,96,0,1,,,,,0,,,67,0
1824,note_on,,,,,0,0,3,,,,,2,,,56,90
1824,note_off,,,,,96,0,2,,,,,1,,,60,0
1824,note_off,,,,,96,0,3,,,,,2,,,56,0
1920,note_on,,,,,0,0,3,,,,,2,,,60,90
1920,note_off,,,,,96,0,3,,,,,2,,,56,0
1920,note_on,,,,,96,0,1,,,,,0,,,68,109
1920,note_off,,,,,384,0,4,,,,,3,,,51,0
1920,note_off,,,,,96,0,2,,,,,1,,,60,0
1920,note_on,,,,,0,0,2,,,,,1,,,56,93
2016,note_on,,,,,0,0,2,,,,,1,,,56,93
2016,note_on,,,,,0,0,3,,,,,2,,,60,90
2016,note_off,,,,,96,0,3,,,,,2,,,60,0
2016,note_off,,,,,96,0,1,,,,,0,,,68,0
2016,note_off,,,,,96,0,2,,,,,1,,,56,0
2112,note_off,,,,,96,0,3,,,,,2,,,60,0
2112,note_off,,,,,96,0,2,,,,,1,,,56,0
2112,note_on,,,,,0,0,2,,,,,1,,,60,93
2112,note_on,,,,,0,0,3,,,,,2,,,56,90
2112,note_on,,,,,96,0,1,,,,,0,,,70,109
2208,note_on,,,,,0,0,3,,,,,2,,,56,90
2208,note_off,,,,,96,0,2,,,,,1,,,60,0
2208,note_on,,,,,0,0,2,,,,,1,,,60,93
2208,note_off,,,,,96,0,1,,,,,0,,,70,0
2208,note_off,,,,,96,0,3,,,,,2,,,56,0
2304,note_on,,,,,0,0,2,,,,,1,,,56,93
2304,note_off,,,,,96,0,3,,,,,2,,,56,0
2304,note_on,,,,,0,0,3,,,,,2,,,60,90
2304,note_off,,,,,96,0,2,,,,,1,,,60,0
2304,note_on,,,,,96,0,1,,,,,0,,,72,109
2400,note_off,,,,,96,0,3,,,,,2,,,60,0
2400,note_on,,,,,0,0,3,,,,,2,,,60,90
2400,note_off,,,,,96,0,2,,,,,1,,,56,0
2400,note_on,,,,,0,0,2,,,,,1,,,56,93
2496,note_off,,,,,96,0,3,,,,,2,,,60,0
2496,note_off,,,,,96,0,2,,,,,1,,,56,0
2496,note_on,,,,,0,0,2,,,,,1,,,60,93
2496,note_on,,,,,0,0,3,,,,,2,,,56,90
2592,note_off,,,,,96,0,3,,,,,2,,,56,0
2592,note_on,,,,,0,0,3,,,,,2,,,56,90
2592,note_off,,,,,96,0,2,,,,,1,,,60,0
2592,note_on,,,,,0,0,2,,,,,1,,,60,93
2688,note_off,,,,,96,0,3,,,,,2,,,56,0
2688,note_on,,,,,0,0,3,,,,,2,,,60,90
2688,note_off,,,,,384,0,1,,,,,0,,,72,0
2688,note_off,,,,,96,0,2,,,,,1,,,60,0
2688,note_on,,,,,0,0,2,,,,,1,,,56,93
2784,note_off,,,,,96,0,2,,,,,1,,,56,0
2784,note_on,,,,,0,0,2,,,,,1,,,56,93
2784,note_off,,,,,96,0,3,,,,,2,,,60,0
2784,note_on,,,,,0,0,3,,,,,2,,,60,90
2880,note_on,,,,,0,0,2,,,,,1,,,60,93
2880,note_off,,,,,96,0,3,,,,,2,,,60,0
2880,note_on,,,,,0,0,3,,,,,2,,,56,90
2880,note_off,,,,,96,0,2,,,,,1,,,56,0
2976,note_on,,,,,0,0,2,,,,,1,,,60,93
2976,note_off,,,,,96,0,2,,,,,1,,,60,0
2976,note_off,,,,,96,0,3,,,,,2,,,56,0
2976,note_on,,,,,0,0,3,,,,,2,,,56,90
3072,note_off,,,,,96,0,2,,,,,1,,,60,0
3072,note_on,,,,,384,0,1,,,,,0,,,70,109
3072,note_on,,,,,0,0,3,,,,,2,,,53,90
3072,note_on,,,,,1152,0,4,,,,,3,,,51,90
3072,note_off,,,,,96,0,3,,,,,2,,,56,0
3072,note_on,,,,,0,0,2,,,,,1,,,56,93
3072,note_on,,,,,0,0,1,,,,,0,,,62,109
3168,note_off,,,,,96,0,3,,,,,2,,,53,0
3168,note_off,,,,,96,0,2,,,,,1,,,56,0
3168,note_on,,,,,0,0,2,,,,,1,,,56,93
3168,note_on,,,,,0,0,3,,,,,2,,,53,90
3264,note_off,,,,,96,0,3,,,,,2,,,53,0
3264,note_on,,,,,0,0,3,,,,,2,,,56,90
3264,note_off,,,,,96,0,2,,,,,1,,,56,0
3264,note_on,,,,,0,0,2,,,,,1,,,58,93
3360,note_off,,,,,96,0,3,,,,,2,,,56,0
3360,note_on,,,,,0,0,3,,,,,2,,,56,90
3360,note_off,,,,,96,0,2,,,,,1,,,58,0
3360,note_on,,,,,0,0,2,,,,,1,,,58,93
3456,note_off,,,,,96,0,3,,,,,2,,,56,0
3456,note_on,,,,,0,0,3,,,,,2,,,53,90
3456,note_off,,,,,96,0,2,,,,,1,,,58,0
3456,note_on,,,,,0,0,2,,,,,1,,,56,93
3552,note_on,,,,,0,0,2,,,,,1,,,56,93
3552,note_on,,,,,0,0,3,,,,,2,,,53,90
3552,note_off,,,,,96,0,3,,,,,2,,,53,0
3552,note_off,,,,,96,0,2,,,,,1,,,56,0
3648,note_on,,,,,0,0,2,,,,,1,,,58,93
3648,note_off,,,,,96,0,3,,,,,2,,,53,0
3648,note_on,,,,,0,0,3,,,,,2,,,56,90
3648,note_off,,,,,96,0,2,,,,,1,,,56,0
3744,note_off,,,,,96,0,2,,,,,1,,,58,0
3744,note_on,,,,,0,0,2,,,,,1,,,58,93
3744,note_on,,,,,0,0,3,,,,,2,,,56,90
3744,note_off,,,,,96,0,3,,,,,2,,,56,0
3840,note_on,,,,,0,0,2,,,,,1,,,56,93
3840,note_off,,,,,96,0,2,,,,,1,,,58,0
3840,note_on,,,,,0,0,3,,,,,2,,,53,90
3840,note_off,,,,,96,0,3,,,,,2,,,56,0
3936,note_off,,,,,96,0,3,,,,,2,,,53,0
3936,note_on,,,,,0,0,3,,,,,2,,,53,90
3936,note_on,,,,,0,0,2,,,,,1,,,56,93
3936,note_off,,,,,96,0,2,,,,,1,,,56,0
4032,note_off,,,,,96,0,3,,,,,2,,,53,0
4032,note_on,,,,,0,0,2,,,,,1,,,58,93
4032,note_off,,,,,96,0,2,,,,,1,,,56,0
4032,note_on,,,,,0,0,3,,,,,2,,,56,90
4128,note_off,,,,,96,0,3,,,,,2,,,56,0
4128,note_on,,,,,0,0,3,,,,,2,,,56,90
4128,note_off,,,,,96,0,2,,,,,1,,,58,0
4128,note_on,,,,,0,0,2,,,,,1,,,58,93
4224,note_off,,,,,96,0,2,,,,,1,,,58,0
4224,note_off,,,,,96,0,3,,,,,2,,,56,0
4224,note_off,,,,,1152,0,4,,,,,3,,,51,0
4224,note_on,,,,,0,0,1,,,,,0,,,72,109
4224,note_off,,,,,0,0,1,,,,,0,,,70,0
4224,note_on,,,,,0,0,2,,,,,1,,,56,93
4224,note_on,,,,,0,0,3,,,,,2,,,53,90
4224,note_off,,,,,1152,0,1,,,,,0,,,62,0
4320,note_off,,,,,96,0,3,,,,,2,,,53,0
4320,note_on,,,,,0,0,2,,,,,1,,,56,93
4320,note_off,,,,,96,0,2,,,,,1,,,56,0
4320,note_on,,,,,0,0,3,,,,,2,,,53,90
4320,note_off,,,,,96,0,1,,,,,0,,,72,0
4416,note_off,,,,,96,0,3,,,,,2,,,53,0
4416,note_on,,,,,0,0,3,,,,,2,,,56,90
4416,note_on,,,,,0,0,2,,,,,1,,,58,93
4416,note_off,,,,,96,0,2,,,,,1,,,56,0
4416,note_on,,,,,96,0,1,,,,,0,,,74,109
4512,note_off,,,,,96,0,3,,,,,2,,,56,0
4512,note_off,,,,,96,0,1,,,,,0,,,74,0
4512,note_off,,,,,96,0,2,,,,,1,,,58,0
4512,note_on,,,,,0,0,2,,,,,1,,,58,93
4512,note_on,,,,,0,0,3,,,,,2,,,56,90
4608,note_off,,,,,96,0,2,,,,,1,,,58,0
4608,note_on,,,,,384,0,4,,,,,3,,,51,90
4608,note_on,,,,,96,0,1,,,,,0,,,75,109
4608,note_on,,,,,0,0,3,,,,,2,,,51,90
4608,note_off,,,,,96,0,3,,,,,2,,,56,0
4608,note_on,,,,,0,0,2,,,,,1,,,55,93
4704,note_off,,,,,96,0,2,,,,,1,,,55,0
4704,note_off,,,,,96,0,1,,,,,0,,,75,0
4704,note_on,,,,,0,0,2,,,,,1,,,55,93
4704,note_off,,,,,96,0,3,,,,,2,,,51,0
4704,note_on,,,,,0,0,3,,,,,2,,,51,90
4800,note_off,,,,,96,0,2,,,,,1,,,55,0
4800,note_on,,,,,0,0,2,,,,,1,,,56,93
4800,note_off,,,,,96,0,3,,,,,2,,,51,0
4800,note_on,,,,,0,0,3,,,,,2,,,53,90
4800,note_on,,,,,96,0,1,,,,,0,,,77,109
4896,note_off,,,,,96,0,3,,,,,2,,,53,0
4896,note_on,,,,,0,0,2,,,,,1,,,56,93
4896,note_off,,,,,96,0,2,,,,,1,,,56,0
4896,note_off,,,,,96,0,1,,,,,0,,,77,0
4896,note_on,,,,,0,0,3,,,,,2,,,53,90
4992,note_off,,,,,384,0,4,,,,,3,,,51,0
4992,note_off,,,,,96,0,3,,,,,2,,,53,0
4992,note_on,,,,,0,0,3,,,,,2,,,51,90
4992,note_on,,,,,0,0,2,,,,,1,,,55,93
4992,note_off,,,,,96,0,2,,,,,1,,,56,0
4992,note_on,,,,,96,0,1,,,,,0,,,79,109
5088,note_off,,,,,96,0,1,,,,,0,,,79,0
5088,note_on,,,,,0,0,3,,,,,2,,,51,90
5088,note_off,,,,,96,0,3,,,,,2,,,51,0
5088,note_on,,,,,0,0,2,,,,,1,,,55,93
5088,note_off,,,,,96,0,2,,,,,1,,,55,0
5184,note_off,,,,,96,0,3,,,,,2,,,51,0
5184,note_on,,,,,0,0,3,,,,,2,,,53,90
5184,note_on,,,,,96,0,1,,,,,0,,,80,109
5184,note_off,,,,,96,0,2,,,,,1,,,55,0
5184,note_on,,,,,0,0,2,,,,,1,,,56,93
5280,note_off,,,,,96,0,2,,,,,1,,,56,0
5280,note_off,,,,,96,0,3,,,,,2,,,53,0
5280,note_on,,,,,0,0,3,,,,,2,,,53,90
5280,note_on,,,,,0,0,2,,,,,1,,,56,93
5280,note_off,,,,,96,0,1,,,,,0,,,80,0
5376,note_on,,,,,0,0,3,,,,,2,,,55,90
5376,note_on,,,,,0,0,2,,,,,1,,,58,93
5376,note_on,,,,,96,0,1,,,,,0,,,82,109
5376,note_off,,,,,96,0,2,,,,,1,,,56,0
5376,note_off,,,,,96,0,3,,,,,2,,,53,0
5472,note_on,,,,,0,0,3,,,,,2,,,55,90
5472,note_off,,,,,96,0,2,,,,,1,,,58,0
5472,note_on,,,,,0,0,2,,,,,1,,,58,93
5472,note_off,,,,,96,0,3,,,,,2,,,55,0
5568,note_off,,,,,96,0,2,,,,,1,,,58,0
5568,note_on,,,,,0,0,2,,,,,1,,,57,93
5568,note_on,,,,,0,0,3,,,,,2,,,54,90
5568,note_off,,,,,96,0,3,,,,,2,,,55,0
5664,note_off,,,,,96,0,2,,,,,1,,,57,0
5664,note_off,,,,,96,0,3,,,,,2,,,54,0
5664,note_on,,,,,0,0,3,,,,,2,,,54,90
5664,note_on,,,,,0,0,2,,,,,1,,,57,93
5760,note_off,,,,,384,0,1,,,,,0,,,82,0
5760,note_on,,,,,0,0,3,,,,,2,,,55,90
5760,note_off,,,,,96,0,3,,,,,2,,,54,0
5760,note_on,,,,,0,0,2,,,,,1,,,58,93
5760,note_off,,,,,96,0,2,,,,,1,,,57,0
5856,note_on,,,,,0,0,3,,,,,2,,,55,90
5856,note_off,,,,,96,0,2,,,,,1,,,58,0
5856,note_off,,,,,96,0,3,,,,,2,,,55,0
5856,note_on,,,,,0,0,2,,,,,1,,,58,93
5952,note_off,,,,,96,0,3,,,,,2,,,55,0
5952,note_on,,,,,0,0,3,,,,,2,,,51,90
5952,note_on,,,,,0,0,2,,,,,1,,,55,93
5952,note_off,,,,,96,0,2,,,,,1,,,58,0
6048,note_on,,,,,0,0,3,,,,,2,,,51,90
6048,note_off,,,,,96,0,3,,,,,2,,,51,0
6048,note_on,,,,,0,0,2,,,,,1,,,55,93
6048,note_off,,,,,96,0,2,,,,,1,,,55,0
6144,note_on,,,,,384,0,1,,,,,0,,,80,109
6144,note_on,,,,,1152,0,4,,,,,3,,,46,90
6144,note_off,,,,,96,0,3,,,,,2,,,51,0
6144,note_off,,,,,96,0,2,,,,,1,,,55,0
6144,note_on,,,,,0,0,2,,,,,1,,,62,93
6144,note_on,,,,,0,0,3,,,,,2,,,53,90
6240,note_on,,,,,0,0,2,,,,,1,,,62,93
6240,note_on,,,,,0,0,3,,,,,2,,,53,90
6240,note_off,,,,,96,0,3,,,,,2,,,53,0
6240,note_off,,,,,96,0,2,,,,,1,,,62,0
6272,note_off,,,,,128,0,1,,,,,0,,,80,0
6272,note_on,,,,,0,0,1,,,,,0,,,79,109
6336,note_on,,,,,0,0,2,,,,,1,,,58,93
6336,note_on,,,,,0,0,3,,,,,2,,,58,90
6336,note_off,,,,,96,0,2,,,,,1,,,62,0
6336,note_off,,,,,96,0,3,,,,,2,,,53,0
6400,note_on,,,,,0,0,1,,,,,0,,,77,109
6400,note_off,,,,,128,0,1,,,,,0,,,79,0
6432,note_off,,,,,96,0,2,,,,,1,,,58,0
6432,note_on,,,,,0,0,2,,,,,1,,,58,93
6432,note_on,,,,,0,0,3,,,,,2,,,58,90
6432,note_off,,,,,96,0,3,,,,,2,,,58,0
6528,note_on,,,,,0,0,2,,,,,1,,,62,93
6528,note_on,,,,,0,0,3,,,,,2,,,56,90
6528,note_off,,,,,96,0,3,,,,,2,,,58,0
6528,note_off,,,,,384,0,4,,,,,3,,,46,0
6528,note_off,,,,,128,0,1,,,,,0,,,77,0
6528,note_on,,,,,0,0,1,,,,,0,,,77,109
6528,note_off,,,,,96,0,2,,,,,1,,,58,0
6624,note_on,,,,,0,0,2,,,,,1,,,62,93
6624,note_off,,,,,96,0,2,,,,,1,,,62,0
6624,note_off,,,,,96,0,3,,,,,2,,,56,0
6624,note_on,,,,,0,0,3,,,,,2,,,56,90
6656,note_off,,,,,128,0,1,,,,,0,,,77,0
6656,note_on,,,,,0,0,1,,,,,0,,,75,109
6720,note_on,,,,,0,0,3,,,,,2,,,58,90
6720,note_on,,,,,0,0,2,,,,,1,,,58,93
6720,note_off,,,,,96,0,2,,,,,1,,,62,0
6720,note_off,,,,,96,0,3,,,,,2,,,56,0
6784,note_off,,,,,128,0,1,,,,,0,,,75,0
6784,note_on,,,,,0,0,1,,,,,0,,,74,109
6816,note_on,,,,,0,0,2,,,,,1,,,58,93
6816,note_off,,,,,96,0,2,,,,,1,,,58,0
6816,note_off,,,,,96,0,3,,,,,2,,,58,0
6816,note_on,,,,,0,0,3,,,,,2,,,58,90
6912,note_off,,,,,128,0,1,,,,,0,,,74,0
6912,note_on,,,,,0,0,1,,,,,0,,,75,109
6912,note_on,,,,,0,0,2,,,,,1,,,63,93
6912,note_off,,,,,96,0,3,,,,,2,,,58,0
6912,note_off,,,,,96,0,2,,,,,1,,,58,0
6912,note_on,,,,,0,0,3,,,,,2,,,55,90
7008,note_off,,,,,96,0,3,,,,,2,,,55,0
7008,note_on,,,,,0,0,3,,,,,2,,,55,90
7008,note_on,,,,,0,0,2,,,,,1,,,63,93
7008,note_off,,,,,96,0,2,,,,,1,,,63,0
7104,note_off,,,,,96,0,3,,,,,2,,,55,0
7104,note_on,,,,,0,0,2,,,,,1,,,58,93
7104,note_on,,,,,0,0,3,,,,,2,,,58,90
7104,note_off,,,,,96,0,2,,,,,1,,,63,0
7200,note_off,,,,,96,0,2,,,,,1,,,58,0
7200,note_on,,,,,0,0,2,,,,,1,,,58,93
7200,note_on,,,,,0,0,3,,,,,2,,,58,90
7200,note_off,,,,,96,0,3,,,,,2,,,58,0
7296,note_off,,,,,384,0,1,,,,,0,,,75,0
7296,note_off,,,,,96,0,2,,,,,1,,,58,0
7296,note_on,,,,,0,0,1,,,,,0,,,70,109
7296,note_on,,,,,0,0,2,,,,,1,,,63,93
7296,note_off,,,,,96,0,3,,,,,2,,,58,0
7296,note_on,,,,,0,0,3,,,,,2,,,55,90
7392,note_off,,,,,96,0,2,,,,,1,,,63,0
7392,note_off,,,,,96,0,3,,,,,2,,,55,0
7392,note_on,,,,,0,0,2,,,,,1,,,63,93
7392,note_on,,,,,0,0,3,,,,,2,,,55,90
7488,note_off,,,,,96,0,2,,,,,1,,,63,0
7488,note_on,,,,,0,0,2,,,,,1,,,58,93
7488,note_off,,,,,192,0,1,,,,,0,,,70,0
7488,note_on,,,,,0,0,3,,,,,2,,,58,90
7488,note_off,,,,,96,0,3,,,,,2,,,55,0
7584,note_on,,,,,0,0,2,,,,,1,,,58,93
7584,note_off,,,,,96,0,2,,,,,1,,,58,0
7584,note_off,,,,,96,0,3,,,,,2,,,58,0
7584,note_on,,,,,0,0,3,,,,,2,,,58,90
7680,note_on,,,,,192,0,1,,,,,0,,,80,109
7680,note_on,,,,,0,0,2,,,,,1,,,62,93
7680,note_on,,,,,0,0,3,,,,,2,,,53,90
7680,note_off,,,,,96,0,3,,,,,2,,,58,0
7680,note_on,,,,,1152,0,4,,,,,3,,,46,90
7680,note_off,,,,,96,0,2,,,,,1,,,58,0
7776,note_on,,,,,0,0,2,,,,,1,,,62,93
7776,note_on,,,,,0,0,3,,,,,2,,,53,90
7776,note_off,,,,,96,0,2,,,,,1,,,62,0
7776,note_off,,,,,96,0,3,,,,,2,,,53,0
7808,note_off,,,,,128,0,1,,,,,0,,,80,0
7808,note_on,,,,,0,0,1,,,,,0,,,79,109
7872,note_on,,,,,0,0,2,,,,,1,,,58,93
7872,note_off,,,,,96,0,2,,,,,1,,,62,0
7872,note_on,,,,,0,0,3,,,,,2,,,58,90
7872,note_off,,,,,96,0,3,,,,,2,,,53,0
7936,note_on,,,,,0,0,1,,,,,0,,,77,109
7936,note_off,,,,,128,0,1,,,,,0,,,79,0
7968,note_on,,,,,0,0,2,,,,,1,,,58,93
7968,note_off,,,,,96,0,2,,,,,1,,,58,0
7968,note_off,,,,,96,0,3,,,,,2,,,58,0
7968,note_on,,,,,0,0,3,,,,,2,,,58,90
8064,note_off,,,,,96,0,2,,,,,1,,,58,0
8064,note_off,,,,,384,0,4,,,,,3,,,46,0
8064,note_on,,,,,0,0,2,,,,,1,,,62,93
8064,note_on,,,,,0,0,1,,,,,0,,,77,109
8064,note_off,,,,,128,0,1,,,,,0,,,77,0
8064,note_on,,,,,0,0,3,,,,,2,,,56,90
8064,note_off,,,,,96,0,3,,,,,2,,,58,0
8160,note_off,,,,,96,0,3,,,,,2,,,56,0
8160,note_on,,,,,0,0,3,,,,,2,,,56,90
8160,note_off,,,,,96,0,2,,,,,1,,,62,0
8160,note_on,,,,,0,0,2,,,,,1,,,62,93
8192,note_on,,,,,0,0,1,,,,,0,,,75,109
8192,note_off,,,,,128,0,1,,,,,0,,,77,0
8256,note_off,,,,,96,0,3,,,,,2,,,56,0
8256,note_on,,,,,0,0,3,,,,,2,,,58,90
8256,note_on,,,,,0,0,2,,,,,1,,,58,93
8256,note_off,,,,,96,0,2,,,,,1,,,62,0
8320,note_on,,,,,0,0,1,,,,,0,,,74,109
8320,note_off,,,,,128,0,1,,,,,0,,,75,0
8352,note_on,,,,,0,0,3,,,,,2,,,58,90
8352,note_on,,,,,0,0,2,,,,,1,,,58,93
8352,note_off,,,,,96,0,2,,,,,1,,,58,0
8352,note_off,,,,,96,0,3,,,,,2,,,58,0
8448,note_off,,,,,96,0,2,,,,,1,,,58,0
8448,note_on,,,,,0,0,2,,,,,1,,,63,93
8448,note_on,,,,,0,0,1,,,,,0,,,75,109
8448,note_off,,,,,128,0,1,,,,,0,,,74,0
8448,note_off,,,,,96,0,3,,,,,2,,,58,0
8448,note_on,,,,,0,0,3,,,,,2,,,55,90
8544,note_on,,,,,0,0,3,,,,,2,,,55,90
8544,note_off,,,,,96,0,3,,,,,2,,,55,0
8544,note_off,,,,,96,0,2,,,,,1,,,63,0
8544,note_on,,,,,0,0,2,,,,,1,,,63,93
8640,note_on,,,,,0,0,3,,,,,2,,,58,90
8640,note_off,,,,,96,0,3,,,,,2,,,55,0
8640,note_on,,,,,0,0,2,,,,,1,,,58,93
8640,note_off,,,,,96,0,2,,,,,1,,,63,0
8736,note_on,,,,,0,0,3,,,,,2,,,58,90
8736,note_off,,,,,96,0,3,,,,,2,,,58,0
8736,note_on,,,,,0,0,2,,,,,1,,,58,93
8736,note_off,,,,,96,0,2,,,,,1,,,58,0
8832,note_on,,,,,0,0,3,,,,,2,,,55,90
8832,note_off,,,,,96,0,3,,,,,2,,,58,0
8832,note_on,,,,,0,0,1,,,,,0,,,82,109
8832,note_on,,,,,0,0,2,,,,,1,,,63,93
8832,note_off,,,,,96,0,2,,,,,1,,,58,0
8832,note_off,,,,,384,0,1,,,,,0,,,75,0
8928,note_off,,,,,96,0,3,,,,,2,,,55,0
8928,note_off,,,,,96,0,2,,,,,1,,,63,0
8928,note_on,,,,,0,0,2,,,,,1,,,63,93
8928,note_on,,,,,0,0,3,,,,,2,,,55,90
9024,note_off,,,,,96,0,2,,,,,1,,,63,0
9024,note_on,,,,,0,0,2,,,,,1,,,58,93
9024,note_off,,,,,192,0,1,,,,,0,,,82,0
9024,note_off,,,,,96,0,3,,,,,2,,,55,0
9024,note_on,,,,,0,0,3,,,,,2,,,58,90
9120,note_off,,,,,96,0,2,,,,,1,,,58,0
9120,note_on,,,,,0,0,2,,,,,1,,,58,93
9120,note_on,,,,,0,0,3,,,,,2,,,58,90
9120,note_off,,,,,96,0,3,,,,,2,,,58,0
9216,note_on,,,,,0,0,3,,,,,2,,,53,90
9216,note_off,,,,,96,0,3,,,,,2,,,58,0
9216,note_on,,,,,192,0,1,,,,,0,,,80,109
9216,note_on,,,,,1152,0,4,,,,,3,,,46,90
9216,note_off,,,,,96,0,2,,,,,1,,,58,0
9216,note_on,,,,,0,0,2,,,,,1,,,62,93
9312,note_off,,,,,96,0,3,,,,,2,,,53,0
9312,note_on,,,,,0,0,3,,,,,2,,,53,90
9312,note_off,,,,,96,0,2,,,,,1,,,62,0
9312,note_on,,,,,0,0,2,,,,,1,,,62,93
9344,note_off,,,,,128,0,1,,,,,0,,,80,0
9344,note_on,,,,,0,0,1,,,,,0,,,79,109
9408,note_off,,,,,96,0,2,,,,,1,,,62,0
9408,note_on,,,,,0,0,2,,,,,1,,,58,93
9408,note_off,,,,,96,0,3,,,,,2,,,53,0
9408,note_on,,,,,0,0,3,,,,,2,,,58,90
9472,note_off,,,,,128,0,1,,,,,0,,,79,0
9472,note_on,,,,,0,0,1,,,,,0,,,77,109
9504,note_off,,,,,96,0,3,,,,,2,,,58,0
9504,note_off,,,,,96,0,2,,,,,1,,,58,0
9504,note_on,,,,,0,0,3,,,,,2,,,58,90
9504,note_on,,,,,0,0,2,,,,,1,,,58,93
9600,note_on,,,,,0,0,3,,,,,2,,,56,90
9600,note_off,,,,,96,0,3,,,,,2,,,58,0
9600,note_off,,,,,384,0,4,,,,,3,,,46,0
9600,note_on,,,,,0,0,2,,,,,1,,,62,93
9600,note_off,,,,,128,0,1,,,,,0,,,77,0
9600,note_off,,,,,96,0,2,,,,,1,,,58,0
9600,note_on,,,,,0,0,1,,,,,0,,,77,109
9696,note_off,,,,,96,0,3,,,,,2,,,56,0
9696,note_on,,,,,0,0,3,,,,,2,,,56,90
9696,note_off,,,,,96,0,2,,,,,1,,,62,0
9696,note_on,,,,,0,0,2,,,,,1,,,62,93
9728,note_on,,,,,0,0,1,,,,,0,,,75,109
9728,note_off,,,,,128,0,1,,,,,0,,,77,0
9792,note_on,,,,,0,0,3,,,,,2,,,58,90
9792,note_off,,,,,96,0,2,,,,,1,,,62,0
9792,note_on,,,,,0,0,2,,,,,1,,,58,93
9792,note_off,,,,,96,0,3,,,,,2,,,56,0
9856,note_on,,,,,0,0,1,,,,,0,,,74,109
9856,note_off,,,,,128,0,1,,,,,0,,,75,0
9888,note_on,,,,,0,0,3,,,,,2,,,58,90
9888,note_off,,,,,96,0,3,,,,,2,,,58,0
9888,note_off,,,,,96,0,2,,,,,1,,,58,0
9888,note_on,,,,,0,0,2,,,,,1,,,58,93
9984,note_off,,,,,96,0,3,,,,,2,,,58,0
9984,note_off,,,,,128,0,1,,,,,0,,,74,0
9984,note_on,,,,,0,0,3,,,,,2,,,55,90
9984,note_on,,,,,0,0,1,,,,,0,,,75,109
9984,note_off,,,,,96,0,2,,,,,1,,,58,0
9984,note_on,,,,,0,0,2,,,,,1,,,63,93
10080,note_on,,,,,0,0,3,,,,,2,,,55,90
10080,note_off,,,,,96,0,2,,,,,1,,,63,0
10080,note_on,,,,,0,0,2,,,,,1,,,63,93
10080,note_off,,,,,96,0,3,,,,,2,,,55,0
10176,note_on,,,,,0,0,3,,,,,2,,,58,90
10176,note_off,,,,,96,0,2,,,,,1,,,63,0
10176,note_on,,,,,0,0,2,,,,,1,,,58,93
10176,note_off,,,,,96,0,3,,,,,2,,,55,0
10272,note_off,,,,,96,0,3,,,,,2,,,58,0
10272,note_on,,,,,0,0,3,,,,,2,,,58,90
10272,note_off,,,,,96,0,2,,,,,1,,,58,0
10272,note_on,,,,,0,0,2,,,,,1,,,58,93
10368,note_off,,,,,96,0,2,,,,,1,,,58,0
10368,note_on,,,,,0,0,2,,,,,1,,,63,93
10368,note_on,,,,,0,0,1,,,,,0,,,70,109
10368,note_off,,,,,384,0,1,,,,,0,,,75,0
10368,note_off,,,,,96,0,3,,,,,2,,,58,0
10368,note_on,,,,,0,0,3,,,,,2,,,55,90
10464,note_on,,,,,0,0,2,,,,,1,,,63,93
10464,note_off,,,,,96,0,2,,,,,1,,,63,0
10464,note_off,,,,,96,0,3,,,,,2,,,55,0
10464,note_on,,,,,0,0,3,,,,,2,,,55,90
10560,note_on,,,,,0,0,3,,,,,2,,,58,90
10560,note_on,,,,,0,0,2,,,,,1,,,58,93
10560,note_off,,,,,96,0,2,,,,,1,,,63,0
10560,note_off,,,,,192,0,1,,,,,0,,,70,0
10560,note_off,,,,,96,0,3,,,,,2,,,55,0
10656,note_on,,,,,0,0,3,,,,,2,,,58,90
10656,note_off,,,,,96,0,3,,,,,2,,,58,0
10656,note_on,,,,,0,0,2,,,,,1,,,58,93
10656,note_off,,,,,96,0,2,,,,,1,,,58,0
10752,note_on,,,,,192,0,1,,,,,0,,,80,109
10752,note_on,,,,,1152,0,4,,,,,3,,,46,90
10752,note_on,,,,,0,0,3,,,,,2,,,53,90
10752,note_on,,,,,0,0,2,,,,,1,,,62,93
10752,note_off,,,,,96,0,2,,,,,1,,,58,0
10752,note_off,,,,,96,0,3,,,,,2,,,58,0
10848,note_off,,,,,96,0,3,,,,,2,,,53,0
10848,note_on,,,,,0,0,3,,,,,2,,,53,90
10848,note_off,,,,,96,0,2,,,,,1,,,62,0
10848,note_on,,,,,0,0,2,,,,,1,,,62,93
10880,note_off,,,,,128,0,1,,,,,0,,,80,0
10880,note_on,,,,,0,0,1,,,,,0,,,82,109
10944,note_off,,,,,96,0,2,,,,,1,,,62,0
10944,note_off,,,,,96,0,3,,,,,2,,,53,0
10944,note_on,,,,,0,0,3,,,,,2,,,58,90
10944,note_on,,,,,0,0,2,,,,,1,,,58,93
11008,note_off,,,,,128,0,1,,,,,0,,,82,0
11008,note_on,,,,,0,0,1,,,,,0,,,84,109
11040,note_off,,,,,96,0,3,,,,,2,,,58,0
11040,note_on,,,,,0,0,2,,,,,1,,,58,93
11040,note_on,,,,,0,0,3,,,,,2,,,58,90
11040,note_off,,,,,96,0,2,,,,,1,,,58,0
11136,note_on,,,,,0,0,1,,,,,0,,,77,109
11136,note_off,,,,,128,0,1,,,,,0,,,84,0
11136,note_on,,,,,0,0,2,,,,,1,,,62,93
11136,note_off,,,,,384,0,4,,,,,3,,,46,0
11136,note_on,,,,,0,0,3,,,,,2,,,56,90
11136,note_off,,,,,96,0,2,,,,,1,,,58,0
11136,note_off,,,,,96,0,3,,,,,2,,,58,0
11232,note_off,,,,,96,0,2,,,,,1,,,62,0
11232,note_on,,,,,0,0,2,,,,,1,,,62,93
11232,note_on,,,,,0,0,3,,,,,2,,,56,90
11232,note_off,,,,,96,0,3,,,,,2,,,56,0
11264,note_on,,,,,0,0,1,,,,,0,,,79,109
11264,note_off,,,,,128,0,1,,,,,0,,,77,0
11328,note_on,,,,,0,0,3,,,,,2,,,58,90
11328,note_off,,,,,96,0,3,,,,,2,,,56,0
11328,note_off,,,,,96,0,2,,,,,1,,,62,0
11328,note_on,,,,,0,0,2,,,,,1,,,58,93
11392,note_on,,,,,0,0,1,,,,,0,,,80,109
11392,note_off,,,,,128,0,1,,,,,0,,,79,0
11424,note_off,,,,,96,0,3,,,,,2,,,58,0
11424,note_on,,,,,0,0,3,,,,,2,,,58,90
11424,note_off,,,,,96,0,2,,,,,1,,,58,0
11424,note_on,,,,,0,0,2,,,,,1,,,58,93
11520,note_off,,,,,96,0,2,,,,,1,,,58,0
11520,note_on,,,,,384,0,4,,,,,3,,,39,90
11520,note_on,,,,,0,0,3,,,,,2,,,51,90
11520,note_off,,,,,96,0,3,,,,,2,,,58,0
11520,note_on,,,,,0,0,1,,,,,0,,,79,109
11520,note_off,,,,,128,0,1,,,,,0,,,80,0
11520,note_on,,,,,0,0,2,,,,,1,,,63,93
11616,note_on,,,,,0,0,2,,,,,1,,,63,93
11616,note_off,,,,,96,0,2,,,,,1,,,63,0
11616,note_on,,,,,0,0,3,,,,,2,,,51,90
11616,note_off,,,,,96,0,3,,,,,2,,,51,0
11712,note_off,,,,,96,0,2,,,,,1,,,63,0
11712,note_off,,,,,96,0,3,,,,,2,,,51,0
11712,note_on,,,,,0,0,2,,,,,1,,,58,93
11712,note_on,,,,,0,0,3,,,,,2,,,58,90
11808,note_on,,,,,0,0,2,,,,,1,,,58,93
11808,note_off,,,,,96,0,2,,,,,1,,,58,0
11808,note_on,,,,,0,0,3,,,,,2,,,58,90
11808,note_off,,,,,96,0,3,,,,,2,,,58,0
11904,note_on,,,,,0,0,1,,,,,0,,,82,109
11904,note_off,,,,,384,0,1,,,,,0,,,79,0
11904,note_on,,,,,0,0,3,,,,,2,,,55,90
11904,note_off,,,,,96,0,3,,,,,2,,,58,0
11904,note_off,,,,,96,0,2,,,,,1,,,58,0
11904,note_on,,,,,0,0,2,,,,,1,,,63,93
11904,note_off,,,,,384,0,4,,,,,3,,,39,0
12000,note_off,,,,,96,0,2,,,,,1,,,63,0
12000,note_on,,,,,0,0,2,,,,,1,,,63,93
12000,note_on,,,,,0,0,3,,,,,2,,,55,90
12000,note_off,,,,,96,0,3,,,,,2,,,55,0
12096,note_on,,,,,0,0,3,,,,,2,,,58,90
12096,note_off,,,,,192,0,1,,,,,0,,,82,0
12096,note_off,,,,,96,0,3,,,,,2,,,55,0
12096,note_off,,,,,96,0,2,,,,,1,,,63,0
12096,note_on,,,,,0,0,2,,,,,1,,,58,93
12192,note_off,,,,,96,0,2,,,,,1,,,58,0
12192,note_on,,,,,0,0,3,,,,,2,,,58,90
12192,note_off,,,,,96,0,3,,,,,2,,,58,0
12192,note_on,,,,,0,0,2,,,,,1,,,58,93
12288,note_on,,,,,0,0,2,,,,,1,,,55,93
12288,note_on,,,,,0,0,1,,,,,0,,,63,109
12288,note_on,,,,,0,0,3,,,,,2,,,58,90
12288,note_on,,,,,192,0,1,,,,,0,,,55,109
12288,note_off,,,,,96,0,3,,,,,2,,,58,0
12288,note_off,,,,,96,0,2,,,,,1,,,58,0
12288,note_on,,,,,384,0,4,,,,,3,,,51,90
12384,note_on,,,,,0,0,3,,,,,2,,,58,90
12384,note_off,,,,,96,0,2,,,,,1,,,55,0
12384,note_on,,,,,0,0,2,,,,,1,,,55,93
12384,note_off,,,,,96,0,3,,,,,2,,,58,0
12480,note_on,,,,,0,0,3,,,,,2,,,55,90
12480,note_off,,,,,96,0,3,,,,,2,,,58,0
12480,note_on,,,,,0,0,2,,,,,1,,,58,93
12480,note_off,,,,,96,0,2,,,,,1,,,55,0
12576,note_off,,,,,96,0,2,,,,,1,,,58,0
12576,note_on,,,,,0,0,2,,,,,1,,,58,93
12576,note_off,,,,,96,0,3,,,,,2,,,55,0
12576,note_on,,,,,0,0,3,,,,,2,,,55,90
12672,note_off,,,,,96,0,2,,,,,1,,,58,0
12672,note_off,,,,,96,0,3,,,,,2,,,55,0
12672,note_on,,,,,0,0,3,,,,,2,,,58,90
12672,note_on,,,,,0,0,2,,,,,1,,,55,93
12768,note_off,,,,,96,0,3,,,,,2,,,58,0
12768,note_on,,,,,0,0,3,,,,,2,,,58,90
12768,note_off,,,,,96,0,2,,,,,1,,,55,0
12768,note_on,,,,,0,0,2,,,,,1,,,55,93
12864,note_on,,,,,0,0,3,,,,,2,,,55,90
12864,note_off,,,,,96,0,2,,,,,1,,,55,0
12864,note_on,,,,,0,0,2,,,,,1,,,58,93
12864,note_off,,,,,96,0,3,,,,,2,,,58,0
12960,note_off,,,,,96,0,3,,,,,2,,,55,0
12960,note_on,,,,,0,0,3,,,,,2,,,55,90
12960,note_off,,,,,96,0,2,,,,,1,,,58,0
12960,note_on,,,,,0,0,2,,,,,1,,,58,93
13056,note_off,,,,,96,0,3,,,,,2,,,55,0
13056,note_on,,,,,0,0,3,,,,,2,,,58,90
13056,note_on,,,,,0,0,2,,,,,1,,,55,93
13056,note_off,,,,,96,0,2,,,,,1,,,58,0
13152,note_off,,,,,96,0,2,,,,,1,,,55,0
13152,note_on,,,,,0,0,2,,,,,1,,,55,93
13152,note_on,,,,,0,0,3,,,,,2,,,58,90
13152,note_off,,,,,96,0,3,,,,,2,,,58,0
13248,note_off,,,,,96,0,2,,,,,1,,,55,0
13248,note_off,,,,,96,0,3,,,,,2,,,58,0
13248,note_on,,,,,0,0,3,,,,,2,,,55,90
13248,note_on,,,,,0,0,2,,,,,1,,,58,93
13344,note_off,,,,,96,0,2,,,,,1,,,58,0
13344,note_on,,,,,0,0,2,,,,,1,,,58,93
13344,note_off,,,,,96,0,3,,,,,2,,,55,0
13344,note_on,,,,,0,0,3,,,,,2,,,55,90
13440,note_off,,,,,96,0,2,,,,,1,,,58,0
13440,note_off,,,,,1152,0,1,,,,,0,,,55,0
13440,note_off,,,,,96,0,3,,,,,2,,,55,0
13440,note_on,,,,,0,0,2,,,,,1,,,55,93
13440,note_off,,,,,1152,0,4,,,,,3,,,51,0
13440,note_off,,,,,0,0,1,,,,,0,,,63,0
13440,note_on,,,,,0,0,1,,,,,0,,,64,109
13440,note_on,,,,,0,0,3,,,,,2,,,58,90
13536,note_on,,,,,0,0,3,,,,,2,,,58,90
13536,note_off,,,,,96,0,3,,,,,2,,,58,0
13536,note_off,,,,,96,0,2,,,,,1,,,55,0
13536,note_on,,,,,0,0,2,,,,,1,,,55,93
13632,note_off,,,,,96,0,3,,,,,2,,,58,0
13632,note_on,,,,,0,0,2,,,,,1,,,58,93
13632,note_on,,,,,0,0,3,,,,,2,,,55,90
13632,note_off,,,,,96,0,2,,,,,1,,,55,0
13728,note_on,,,,,0,0,2,,,,,1,,,58,93
13728,note_off,,,,,96,0,2,,,,,1,,,58,0
13728,note_on,,,,,0,0,3,,,,,2,,,55,90
13728,note_off,,,,,96,0,3,,,,,2,,,55,0
13824,note_off,,,,,384,0,1,,,,,0,,,64,0
13824,note_on,,,,,0,0,1,,,,,0,,,65,109
13824,note_on,,,,,0,0,3,,,,,2,,,60,90
13824,note_off,,,,,96,0,2,,,,,1,,,58,0
13824,note_on,,,,,0,0,2,,,,,1,,,56,93
13824,note_off,,,,,96,0,3,,,,,2,,,55,0
13824,note_on,,,,,384,0,4,,,,,3,,,51,90
13920,note_on,,,,,0,0,3,,,,,2,,,60,90
13920,note_off,,,,,96,0,1,,,,,0,,,65,0
13920,note_off,,,,,96,0,3,,,,,2,,,60,0
13920,note_on,,,,,0,0,2,,,,,1,,,56,93
13920,note_off,,,,,96,0,2,,,,,1,,,56,0
14016,note_on,,,,,96,0,1,,,,,0,,,67,109
14016,note_on,,,,,0,0,3,,,,,2,,,56,90
14016,note_off,,,,,96,0,3,,,,,2,,,60,0
14016,note_off,,,,,96,0,2,,,,,1,,,56,0
14016,note_on,,,,,0,0,2,,,,,1,,,60,93
14112,note_off,,,,,96,0,2,,,,,1,,,60,0
14112,note_on,,,,,0,0,2,,,,,1,,,60,93
14112,note_off,,,,,96,0,1,,,,,0,,,67,0
14112,note_off,,,,,96,0,3,,,,,2,,,56,0
14112,note_on,,,,,0,0,3,,,,,2,,,56,90
14208,note_off,,,,,384,0,4,,,,,3,,,51,0
14208,note_on,,,,,0,0,2,,,,,1,,,56,93
14208,note_on,,,,,0,0,3,,,,,2,,,60,90
14208,note_off,,,,,96,0,3,,,,,2,,,56,0
14208,note_off,,,,,96,0,2,,,,,1,,,60,0
14208,note_on,,,,,96,0,1,,,,,0,,,68,109
14304,note_on,,,,,0,0,3,,,,,2,,,60,90
14304,note_on,,,,,0,0,2,,,,,1,,,56,93
14304,note_off,,,,,96,0,2,,,,,1,,,56,0
14304,note_off,,,,,96,0,3,,,,,2,,,60,0
14304,note_off,,,,,96,0,1,,,,,0,,,68,0
14400,note_on,,,,,0,0,2,,,,,1,,,60,93
14400,note_off,,,,,96,0,2,,,,,1,,,56,0
14400,note_on,,,,,96,0,1,,,,,0,,,70,109
14400,note_on,,,,,0,0,3,,,,,2,,,56,90
14400,note_off,,,,,96,0,3,,,,,2,,,60,0
14496,note_off,,,,,96,0,3,,,,,2,,,56,0
14496,note_on,,,,,0,0,3,,,,,2,,,56,90
14496,note_on,,,,,0,0,2,,,,,1,,,60,93
14496,note_off,,,,,96,0,1,,,,,0,,,70,0
14496,note_off,,,,,96,0,2,,,,,1,,,60,0
14592,note_on,,,,,0,0,3,,,,,2,,,60,90
14592,note_off,,,,,96,0,3,,,,,2,,,56,0
14592,note_on,,,,,0,0,2,,,,,1,,,56,93
14592,note_off,,,,,96,0,2,,,,,1,,,60,0
14592,note_on,,,,,96,0,1,,,,,0,,,72,109
14688,note_on,,,,,0,0,2,,,,,1,,,56,93
14688,note_off,,,,,96,0,2,,,,,1,,,56,0
14688,note_off,,,,,96,0,3,,,,,2,,,60,0
14688,note_on,,,,,0,0,3,,,,,2,,,60,90
14784,note_off,,,,,96,0,2,,,,,1,,,56,0
14784,note_on,,,,,0,0,3,,,,,2,,,56,90
14784,note_off,,,,,96,0,3,,,,,2,,,60,0
14784,note_on,,,,,0,0,2,,,,,1,,,60,93
14880,note_on,,,,,0,0,3,,,,,2,,,56,90
14880,note_off,,,,,96,0,3,,,,,2,,,56,0
14880,note_off,,,,,96,0,2,,,,,1,,,60,0
14880,note_on,,,,,0,0,2,,,,,1,,,60,93
14976,note_off,,,,,96,0,3,,,,,2,,,56,0
14976,note_off,,,,,384,0,1,,,,,0,,,72,0
14976,note_on,,,,,0,0,3,,,,,2,,,60,90
14976,note_off,,,,,96,0,2,,,,,1,,,60,0
14976,note_on,,,,,0,0,2,,,,,1,,,56,93
15072,note_on,,,,,0,0,2,,,,,1,,,56,93
15072,note_on,,,,,0,0,3,,,,,2,,,60,90
15072,note_off,,,,,96,0,3,,,,,2,,,60,0
15072,note_off,,,,,96,0,2,,,,,1,,,56,0
15168,note_off,,,,,96,0,3,,,,,2,,,60,0
15168,note_on,,,,,0,0,3,,,,,2,,,56,90
15168,note_off,,,,,96,0,2,,,,,1,,,56,0
15168,note_on,,,,,0,0,2,,,,,1,,,60,93
15264,note_off,,,,,96,0,3,,,,,2,,,56,0
15264,note_on,,,,,0,0,3,,,,,2,,,56,90
15264,note_on,,,,,0,0,2,,,,,1,,,60,93
15264,note_off,,,,,96,0,2,,,,,1,,,60,0
15360,note_on,,,,,1152,0,4,,,,,3,,,51,90
15360,note_on,,,,,0,0,1,,,,,0,,,70,109
15360,note_on,,,,,384,0,1,,,,,0,,,62,109
15360,note_on,,,,,0,0,3,,,,,2,,,53,90
15360,note_on,,,,,0,0,2,,,,,1,,,56,93
15360,note_off,,,,,96,0,3,,,,,2,,,56,0
15360,note_off,,,,,96,0,2,,,,,1,,,60,0
15456,note_on,,,,,0,0,3,,,,,2,,,53,90
15456,note_off,,,,,96,0,3,,,,,2,,,53,0
15456,note_on,,,,,0,0,2,,,,,1,,,56,93
15456,note_off,,,,,96,0,2,,,,,1,,,56,0
15552,note_on,,,,,0,0,2,,,,,1,,,58,93
15552,note_off,,,,,96,0,2,,,,,1,,,56,0
15552,note_off,,,,,96,0,3,,,,,2,,,53,0
15552,note_on,,,,,0,0,3,,,,,2,,,56,90
15648,note_off,,,,,96,0,2,,,,,1,,,58,0
15648,note_on,,,,,0,0,2,,,,,1,,,58,93
15648,note_off,,,,,96,0,3,,,,,2,,,56,0
15648,note_on,,,,,0,0,3,,,,,2,,,56,90
15744,note_on,,,,,0,0,3,,,,,2,,,53,90
15744,note_off,,,,,96,0,3,,,,,2,,,56,0
15744,note_on,,,,,0,0,2,,,,,1,,,56,93
15744,note_off,,,,,96,0,2,,,,,1,,,58,0
15840,note_on,,,,,0,0,3,,,,,2,,,53,90
15840,note_off,,,,,96,0,2,,,,,1,,,56,0
15840,note_off,,,,,96,0,3,,,,,2,,,53,0
15840,note_on,,,,,0,0,2,,,,,1,,,56,93
15936,note_off,,,,,96,0,3,,,,,2,,,53,0
15936,note_on,,,,,0,0,3,,,,,2,,,56,90
15936,note_on,,,,,0,0,2,,,,,1,,,58,93
15936,note_off,,,,,96,0,2,,,,,1,,,56,0
16032,note_on,,,,,0,0,2,,,,,1,,,58,93
16032,note_on,,,,,0,0,3,,,,,2,,,56,90
16032,note_off,,,,,96,0,2,,,,,1,,,58,0
16032,note_off,,,,,96,0,3,,,,,2,,,56,0
16128,note_off,,,,,96,0,3,,,,,2,,,56,0
16128,note_off,,,,,96,0,2,,,,,1,,,58,0
16128,note_on,,,,,0,0,2,,,,,1,,,56,93
16128,note_on,,,,,0,0,3,,,,,2,,,53,90
16224,note_on,,,,,0,0,3,,,,,2,,,53,90
16224,note_off,,,,,96,0,3,,,,,2,,,53,0
16224,note_off,,,,,96,0,2,,,,,1,,,56,0
16224,note_on,,,,,0,0,2,,,,,1,,,56,93
16320,note_on,,,,,0,0,3,,,,,2,,,56,90
16320,note_off,,,,,96,0,3,,,,,2,,,53,0
16320,note_on,,,,,0,0,2,,,,,1,,,58,93
16320,note_off,,,,,96,0,2,,,,,1,,,56,0
16416,note_off,,,,,96,0,3,,,,,2,,,56,0
16416,note_on,,,,,0,0,3,,,,,2,,,56,90
16416,note_on,,,,,0,0,2,,,,,1,,,58,93
16416,note_off,,,,,96,0,2,,,,,1,,,58,0
16512,note_off,,,,,1152,0,4,,,,,3,,,51,0
16512,note_off,,,,,96,0,2,,,,,1,,,58,0
16512,note_on,,,,,0,0,2,,,,,1,,,56,93
16512,note_on,,,,,0,0,3,,,,,2,,,53,90
16512,note_off,,,,,96,0,3,,,,,2,,,56,0
16512,note_off,,,,,1152,0,1,,,,,0,,,62,0
16512,note_off,,,,,0,0,1,,,,,0,,,70,0
16512,note_on,,,,,0,0,1,,,,,0,,,72,109
16608,note_off,,,,,96,0,1,,,,,0,,,72,0
16608,note_on,,,,,0,0,3,,,,,2,,,53,90
16608,note_on,,,,,0,0,2,,,,,1,,,56,93
16608,note_off,,,,,96,0,2,,,,,1,,,56,0
16608,note_off,,,,,96,0,3,,,,,2,,,53,0
16704,note_off,,,,,96,0,2,,,,,1,,,56,0
16704,note_on,,,,,96,0,1,,,,,0,,,74,109
16704,note_on,,,,,0,0,3,,,,,2,,,56,90
16704,note_on,,,,,0,0,2,,,,,1,,,58,93
16704,note_off,,,,,96,0,3,,,,,2,,,53,0
16800,note_off,,,,,96,0,3,,,,,2,,,56,0
16800,note_on,,,,,0,0,2,,,,,1,,,58,93
16800,note_on,,,,,0,0,3,,,,,2,,,56,90
16800,note_off,,,,,96,0,2,,,,,1,,,58,0
16800,note_off,,,,,96,0,1,,,,,0,,,74,0
16896,note_on,,,,,0,0,2,,,,,1,,,55,93
16896,note_off,,,,,96,0,3,,,,,2,,,56,0
16896,note_on,,,,,0,0,3,,,,,2,,,51,90
16896,note_on,,,,,384,0,4,,,,,3,,,51,90
16896,note_on,,,,,96,0,1,,,,,0,,,75,109
16896,note_off,,,,,96,0,2,,,,,1,,,58,0
16992,note_on,,,,,0,0,3,,,,,2,,,51,90
16992,note_off,,,,,96,0,3,,,,,2,,,51,0
16992,note_off,,,,,96,0,1,,,,,0,,,75,0
16992,note_on,,,,,0,0,2,,,,,1,,,55,93
16992,note_off,,,,,96,0,2,,,,,1,,,55,0
17088,note_on,,,,,0,0,3,,,,,2,,,53,90
17088,note_off,,,,,96,0,3,,,,,2,,,51,0
17088,note_on,,,,,96,0,1,,,,,0,,,77,109
17088,note_on,,,,,0,0,2,,,,,1,,,56,93
17088,note_off,,,,,96,0,2,,,,,1,,,55,0
17184,note_on,,,,,0,0,2,,,,,1,,,56,93
17184,note_off,,,,,96,0,2,,,,,1,,,56,0
17184,note_on,,,,,0,0,3,,,,,2,,,53,90
17184,note_off,,,,,96,0,1,,,,,0,,,77,0
17184,note_off,,,,,96,0,3,,,,,2,,,53,0
17280,note_off,,,,,384,0,4,,,,,3,,,51,0
17280,note_on,,,,,0,0,3,,,,,2,,,51,90
17280,note_on,,,,,96,0,1,,,,,0,,,79,109
17280,note_off,,,,,96,0,2,,,,,1,,,56,0
17280,note_on,,,,,0,0,2,,,,,1,,,55,93
17280,note_off,,,,,96,0,3,,,,,2,,,53,0
17376,note_off,,,,,96,0,3,,,,,2,,,51,0
17376,note_off,,,,,96,0,2,,,,,1,,,55,0
17376,note_on,,,,,0,0,2,,,,,1,,,55,93
17376,note_off,,,,,96,0,1,,,,,0,,,79,0
17376,note_on,,,,,0,0,3,,,,,2,,,51,90
17472,note_off,,,,,96,0,3,,,,,2,,,51,0
17472,note_on,,,,,0,0,3,,,,,2,,,53,90
17472,note_off,,,,,96,0,2,,,,,1,,,55,0
17472,note_on,,,,,0,0,2,,,,,1,,,56,93
17472,note_on,,,,,96,0,1,,,,,0,,,80,109
17568,note_on,,,,,0,0,3,,,,,2,,,53,90
17568,note_off,,,,,96,0,3,,,,,2,,,53,0
17568,note_on,,,,,0,0,2,,,,,1,,,56,93
17568,note_off,,,,,96,0,1,,,,,0,,,80,0
17568,note_off,,,,,96,0,2,,,,,1,,,56,0
17664,note_on,,,,,0,0,3,,,,,2,,,55,90
17664,note_on,,,,,96,0,1,,,,,0,,,82,109
17664,note_off,,,,,96,0,3,,,,,2,,,53,0
17664,note_on,,,,,0,0,2,,,,,1,,,58,93
17664,note_off,,,,,96,0,2,,,,,1,,,56,0
17760,note_off,,,,,96,0,2,,,,,1,,,58,0
17760,note_on,,,,,0,0,3,,,,,2,,,55,90
17760,note_on,,,,,0,0,2,,,,,1,,,58,93
17760,note_off,,,,,96,0,3,,,,,2,,,55,0
17856,note_off,,,,,96,0,3,,,,,2,,,55,0
17856,note_on,,,,,0,0,3,,,,,2,,,54,90
17856,note_on,,,,,0,0,2,,,,,1,,,57,93
17856,note_off,,,,,96,0,2,,,,,1,,,58,0
17952,note_off,,,,,96,0,3,,,,,2,,,54,0
17952,note_on,,,,,0,0,3,,,,,2,,,54,90
17952,note_on,,,,,0,0,2,,,,,1,,,57,93
17952,note_off,,,,,96,0,2,,,,,1,,,57,0
18048,note_on,,,,,0,0,2,,,,,1,,,58,93
18048,note_off,,,,,96,0,2,,,,,1,,,57,0
18048,note_off,,,,,96,0,3,,,,,2,,,54,0
18048,note_on,,,,,0,0,3,,,,,2,,,55,90
18048,note_off,,,,,384,0,1,,,,,0,,,82,0
18144,note_on,,,,,0,0,2,,,,,1,,,58,93
18144,note_off,,,,,96,0,2,,,,,1,,,58,0
18144,note_off,,,,,96,0,3,,,,,2,,,55,0
18144,note_on,,,,,0,0,3,,,,,2,,,55,90
18240,note_on,,,,,0,0,2,,,,,1,,,55,93
18240,note_off,,,,,96,0,3,,,,,2,,,55,0
18240,note_on,,,,,0,0,3,,,,,2,,,51,90
18240,note_off,,,,,96,0,2,,,,,1,,,58,0
18336,note_on,,,,,0,0,3,,,,,2,,,51,90
18336,note_on,,,,,0,0,2,,,,,1,,,55,93
18336,note_off,,,,,96,0,2,,,,,1,,,55,0
18336,note_off,,,,,96,0,3,,,,,2,,,51,0
18432,note_on,,,,,384,0,1,,,,,0,,,80,109
18432,note_on,,,,,0,0,2,,,,,1,,,62,93
18432,note_off,,,,,96,0,3,,,,,2,,,51,0
18432,note_on,,,,,0,0,3,,,,,2,,,53,90
18432,note_on,,,,,1152,0,4,,,,,3,,,46,90
18432,note_off,,,,,96,0,2,,,,,1,,,55,0
18528,note_off,,,,,96,0,2,,,,,1,,,62,0
18528,note_on,,,,,0,0,2,,,,,1,,,62,93
18528,note_on,,,,,0,0,3,,,,,2,,,53,90
18528,note_off,,,,,96,0,3,,,,,2,,,53,0
18560,note_on,,,,,0,0,1,,,,,0,,,79,109
18560,note_off,,,,,128,0,1,,,,,0,,,80,0
18624,note_off,,,,,96,0,3,,,,,2,,,53,0
18624,note_on,,,,,0,0,3,,,,,2,,,58,90
18624,note_on,,,,,0,0,2,,,,,1,,,58,93
18624,note_off,,,,,96,0,2,,,,,1,,,62,0
18688,note_off,,,,,128,0,1,,,,,0,,,79,0
18688,note_on,,,,,0,0,1,,,,,0,,,77,109
18720,note_on,,,,,0,0,2,,,,,1,,,58,93
18720,note_off,,,,,96,0,2,,,,,1,,,58,0
18720,note_off,,,,,96,0,3,,,,,2,,,58,0
18720,note_on,,,,,0,0,3,,,,,2,,,58,90
18816,note_on,,,,,0,0,1,,,,,0,,,77,109
18816,note_off,,,,,128,0,1,,,,,0,,,77,0
18816,note_off,,,,,96,0,3,,,,,2,,,58,0
18816,note_on,,,,,0,0,3,,,,,2,,,56,90
18816,note_on,,,,,0,0,2,,,,,1,,,62,93
18816,note_off,,,,,96,0,2,,,,,1,,,58,0
18816,note_off,,,,,384,0,4,,,,,3,,,46,0
18912,note_on,,,,,0,0,2,,,,,1,,,62,93
18912,note_off,,,,,96,0,2,,,,,1,,,62,0
18912,note_off,,,,,96,0,3,,,,,2,,,56,0
18912,note_on,,,,,0,0,3,,,,,2,,,56,90
18944,note_on,,,,,0,0,1,,,,,0,,,75,109
18944,note_off,,,,,128,0,1,,,,,0,,,77,0
19008,note_on,,,,,0,0,2,,,,,1,,,58,93
19008,note_off,,,,,96,0,2,,,,,1,,,62,0
19008,note_off,,,,,96,0,3,,,,,2,,,56,0
19008,note_on,,,,,0,0,3,,,,,2,,,58,90
19072,note_off,,,,,128,0,1,,,,,0,,,75,0
19072,note_on,,,,,0,0,1,,,,,0,,,74,109
19104,note_off,,,,,96,0,3,,,,,2,,,58,0
19104,note_off,,,,,96,0,2,,,,,1,,,58,0
19104,note_on,,,,,0,0,2,,,,,1,,,58,93
19104,note_on,,,,,0,0,3,,,,,2,,,58,90
19200,note_on,,,,,0,0,2,,,,,1,,,63,93
19200,note_on,,,,,0,0,3,,,,,2,,,55,90
19200,note_off,,,,,96,0,2,,,,,1,,,58,0
19200,note_off,,,,,96,0,3,,,,,2,,,58,0
19200,note_on,,,,,0,0,1,,,,,0,,,75,109
19200,note_off,,,,,128,0,1,,,,,0,,,74,0
19296,note_off,,,,,96,0,3,,,,,2,,,55,0
19296,note_on,,,,,0,0,3,,,,,2,,,55,90
19296,note_on,,,,,0,0,2,,,,,1,,,63,93
19296,note_off,,,,,96,0,2,,,,,1,,,63,0
19392,note_on,,,,,0,0,3,,,,,2,,,58,90
19392,note_off,,,,,96,0,3,,,,,2,,,55,0
19392,note_off,,,,,96,0,2,,,,,1,,,63,0
19392,note_on,,,,,0,0,2,,,,,1,,,58,93
19488,note_on,,,,,0,0,3,,,,,2,,,58,90
19488,note_off,,,,,96,0,3,,,,,2,,,58,0
19488,note_on,,,,,0,0,2,,,,,1,,,58,93
19488,note_off,,,,,96,0,2,,,,,1,,,58,0
19584,note_off,,,,,96,0,2,,,,,1,,,58,0
19584,note_on,,,,,0,0,3,,,,,2,,,55,90
19584,note_off,,,,,96,0,3,,,,,2,,,58,0
19584,note_on,,,,,0,0,2,,,,,1,,,63,93
19584,note_off,,,,,384,0,1,,,,,0,,,75,0
19584,note_on,,,,,0,0,1,,,,,0,,,70,109
19680,note_on,,,,,0,0,3,,,,,2,,,55,90
19680,note_off,,,,,96,0,3,,,,,2,,,55,0
19680,note_off,,,,,96,0,2,,,,,1,,,63,0
19680,note_on,,,,,0,0,2,,,,,1,,,63,93
19776,note_on,,,,,0,0,3,,,,,2,,,58,90
19776,note_off,,,,,96,0,3,,,,,2,,,55,0
19776,note_off,,,,,192,0,1,,,,,0,,,70,0
19776,note_off,,,,,96,0,2,,,,,1,,,63,0
19776,note_on,,,,,0,0,2,,,,,1,,,58,93
19872,note_on,,,,,0,0,3,,,,,2,,,58,90
19872,note_off,,,,,96,0,3,,,,,2,,,58,0
19872,note_off,,,,,96,0,2,,,,,1,,,58,0
19872,note_on,,,,,0,0,2,,,,,1,,,58,93
19968,note_off,,,,,96,0,2,,,,,1,,,58,0
19968,note_on,,,,,0,0,2,,,,,1,,,62,93
19968,note_on,,,,,1152,0,4,,,,,3,,,46,90
19968,note_on,,,,,192,0,1,,,,,0,,,80,109
19968,note_off,,,,,96,0,3,,,,,2,,,58,0
19968,note_on,,,,,0,0,3,,,,,2,,,53,90
20064,note_off,,,,,96,0,2,,,,,1,,,62,0
20064,note_on,,,,,0,0,2,,,,,1,,,62,93
20064,note_off,,,,,96,0,3,,,,,2,,,53,0
20064,note_on,,,,,0,0,3,,,,,2,,,53,90
20096,note_on,,,,,0,0,1,,,,,0,,,79,109
20096,note_off,,,,,128,0,1,,,,,0,,,80,0
20160,note_off,,,,,96,0,2,,,,,1,,,62,0
20160,note_off,,,,,96,0,3,,,,,2,,,53,0
20160,note_on,,,,,0,0,3,,,,,2,,,58,90
20160,note_on,,,,,0,0,2,,,,,1,,,58,93
20224,note_off,,,,,128,0,1,,,,,0,,,79,0
20224,note_on,,,,,0,0,1,,,,,0,,,77,109
20256,note_on,,,,,0,0,2,,,,,1,,,58,93
20256,note_off,,,,,96,0,2,,,,,1,,,58,0
20256,note_on,,,,,0,0,3,,,,,2,,,58,90
20256,note_off,,,,,96,0,3,,,,,2,,,58,0
20352,note_off,,,,,128,0,1,,,,,0,,,77,0
20352,note_on,,,,,0,0,1,,,,,0,,,77,109
20352,note_on,,,,,0,0,2,,,,,1,,,62,93
20352,note_on,,,,,0,0,3,,,,,2,,,56,90
20352,note_off,,,,,384,0,4,,,,,3,,,46,0
20352,note_off,,,,,96,0,3,,,,,2,,,58,0
20352,note_off,,,,,96,0,2,,,,,1,,,58,0
20448,note_on,,,,,0,0,2,,,,,1,,,62,93
20448,note_on,,,,,0,0,3,,,,,2,,,56,90
20448,note_off,,,,,96,0,3,,,,,2,,,56,0
20448,note_off,,,,,96,0,2,,,,,1,,,62,0
20480,note_off,,,,,128,0,1,,,,,0,,,77,0
20480,note_on,,,,,0,0,1,,,,,0,,,75,109
20544,note_off,,,,,96,0,3,,,,,2,,,56,0
20544,note_on,,,,,0,0,3,,,,,2,,,58,90
20544,note_off,,,,,96,0,2,,,,,1,,,62,0
20544,note_on,,,,,0,0,2,,,,,1,,,58,93
20608,note_on,,,,,0,0,1,,,,,0,,,74,109
20608,note_off,,,,,128,0,1,,,,,0,,,75,0
20640,note_off,,,,,96,0,2,,,,,1,,,58,0
20640,note_on,,,,,0,0,2,,,,,1,,,58,93
20640,note_on,,,,,0,0,3,,,,,2,,,58,90
20640,note_off,,,,,96,0,3,,,,,2,,,58,0
20736,note_on,,,,,0,0,3,,,,,2,,,55,90
20736,note_off,,,,,96,0,2,,,,,1,,,58,0
20736,note_on,,,,,0,0,2,,,,,1,,,63,93
20736,note_off,,,,,96,0,3,,,,,2,,,58,0
20736,note_on,,,,,384,0,4,,,,,3,,,39,90
20736,note_off,,,,,128,0,1,,,,,0,,,74,0
20736,note_on,,,,,0,0,1,,,,,0,,,75,109
20832,note_on,,,,,0,0,2,,,,,1,,,63,93
20832,note_off,,,,,96,0,3,,,,,2,,,55,0
20832,note_on,,,,,0,0,3,,,,,2,,,55,90
20832,note_off,,,,,96,0,2,,,,,1,,,63,0
20928,note_off,,,,,96,0,2,,,,,1,,,63,0
20928,note_on,,,,,0,0,2,,,,,1,,,58,93
20928,note_off,,,,,96,0,3,,,,,2,,,55,0
20928,note_on,,,,,0,0,3,,,,,2,,,58,90
21024,note_off,,,,,96,0,3,,,,,2,,,58,0
21024,note_off,,,,,96,0,2,,,,,1,,,58,0
21024,note_on,,,,,0,0,2,,,,,1,,,58,93
21024,note_on,,,,,0,0,3,,,,,2,,,58,90
21120,note_off,,,,,96,0,3,,,,,2,,,58,0
21120,note_on,,,,,0,0,3,,,,,2,,,55,90
21120,note_on,,,,,0,0,2,,,,,1,,,63,93
21120,note_off,,,,,384,0,1,,,,,0,,,75,0
21120,note_off,,,,,384,0,4,,,,,3,,,39,0
21120,note_off,,,,,96,0,2,,,,,1,,,58,0
21120,note_on,,,,,0,0,1,,,,,0,,,82,109
21216,note_off,,,,,96,0,2,,,,,1,,,63,0
21216,note_on,,,,,0,0,3,,,,,2,,,55,90
21216,note_off,,,,,96,0,3,,,,,2,,,55,0
21216,note_on,,,,,0,0,2,,,,,1,,,63,93
21312,note_on,,,,,0,0,3,,,,,2,,,58,90
21312,note_off,,,,,96,0,3,,,,,2,,,55,0
21312,note_off,,,,,96,0,2,,,,,1,,,63,0
21312,note_off,,,,,192,0,1,,,,,0,,,82,0
21312,note_on,,,,,0,0,2,,,,,1,,,58,93
21408,note_on,,,,,0,0,3,,,,,2,,,58,90
21408,note_off,,,,,96,0,3,,,,,2,,,58,0
21408,note_off,,,,,96,0,2,,,,,1,,,58,0
21408,note_on,,,,,0,0,2,,,,,1,,,58,93
21504,note_on,,,,,192,0,1,,,,,0,,,84,109
21504,note_off,,,,,96,0,3,,,,,2,,,58,0
21504,note_on,,,,,0,0,3,,,,,2,,,56,90
21504,note_on,,,,,384,0,4,,,,,3,,,51,90
21504,note_on,,,,,0,0,2,,,,,1,,,60,93
21504,note_off,,,,,96,0,2,,,,,1,,,58,0
21600,note_off,,,,,96,0,2,,,,,1,,,60,0
21600,note_off,,,,,96,0,3,,,,,2,,,56,0
21600,note_on,,,,,0,0,3,,,,,2,,,56,90
21600,note_on,,,,,0,0,2,,,,,1,,,60,93
21632,note_off,,,,,128,0,1,,,,,0,,,84,0
21632,note_on,,,,,0,0,1,,,,,0,,,86,109
21696,note_off,,,,,96,0,2,,,,,1,,,60,0
21696,note_on,,,,,0,0,2,,,,,1,,,63,93
21696,note_off,,,,,96,0,3,,,,,2,,,56,0
21696,note_on,,,,,0,0,3,,,,,2,,,60,90
21760,note_on,,,,,0,0,1,,,,,0,,,87,109
21760,note_off,,,,,128,0,1,,,,,0,,,86,0
21792,note_on,,,,,0,0,3,,,,,2,,,60,90
21792,note_off,,,,,96,0,2,,,,,1,,,63,0
21792,note_on,,,,,0,0,2,,,,,1,,,63,93
21792,note_off,,,,,96,0,3,,,,,2,,,60,0
21888,note_off,,,,,128,0,1,,,,,0,,,87,0
21888,note_off,,,,,96,0,2,,,,,1,,,63,0
21888,note_on,,,,,0,0,2,,,,,1,,,60,93
21888,note_on,,,,,0,0,1,,,,,0,,,87,109
21888,note_off,,,,,384,0,4,,,,,3,,,51,0
21888,note_on,,,,,0,0,4,,,,,3,,,51,90
21888,note_on,,,,,0,0,3,,,,,2,,,56,90
21888,note_off,,,,,96,0,3,,,,,2,,,60,0
21984,note_on,,,,,0,0,2,,,,,1,,,60,93
21984,note_off,,,,,96,0,2,,,,,1,,,60,0
21984,note_on,,,,,0,0,3,,,,,2,,,56,90
21984,note_off,,,,,96,0,3,,,,,2,,,56,0
22016,note_on,,,,,0,0,1,,,,,0,,,86,109
22016,note_off,,,,,128,0,1,,,,,0,,,87,0
22080,note_off,,,,,96,0,3,,,,,2,,,56,0
22080,note_on,,,,,0,0,3,,,,,2,,,60,90
22080,note_on,,,,,0,0,2,,,,,1,,,63,93
22080,note_off,,,,,96,0,2,,,,,1,,,60,0
22144,note_on,,,,,0,0,1,,,,,0,,,84,109
22144,note_off,,,,,128,0,1,,,,,0,,,86,0
22176,note_on,,,,,0,0,2,,,,,1,,,63,93
22176,note_off,,,,,96,0,2,,,,,1,,,63,0
22176,note_off,,,,,96,0,3,,,,,2,,,60,0
22176,note_on,,,,,0,0,3,,,,,2,,,60,90
22272,note_off,,,,,96,0,2,,,,,1,,,63,0
22272,note_off,,,,,96,0,3,,,,,2,,,60,0
22272,note_on,,,,,0,0,4,,,,,3,,,51,90
22272,note_on,,,,,0,0,3,,,,,2,,,55,90
22272,note_on,,,,,0,0,1,,,,,0,,,82,109
22272,note_off,,,,,128,0,1,,,,,0,,,84,0
22272,note_off,,,,,384,0,4,,,,,3,,,51,0
22272,note_on,,,,,0,0,2,,,,,1,,,58,93
22368,note_on,,,,,0,0,3,,,,,2,,,55,90
22368,note_off,,,,,96,0,3,,,,,2,,,55,0
22368,note_on,,,,,0,0,2,,,,,1,,,58,93
22368,note_off,,,,,96,0,2,,,,,1,,,58,0
22464,note_off,,,,,96,0,2,,,,,1,,,58,0
22464,note_on,,,,,0,0,3,,,,,2,,,58,90
22464,note_off,,,,,96,0,3,,,,,2,,,55,0
22464,note_on,,,,,0,0,2,,,,,1,,,63,93
22560,note_on,,,,,0,0,2,,,,,1,,,63,93
22560,note_on,,,,,0,0,3,,,,,2,,,58,90
22560,note_off,,,,,96,0,3,,,,,2,,,58,0
22560,note_off,,,,,96,0,2,,,,,1,,,63,0
22656,note_off,,,,,384,0,4,,,,,3,,,51,0
22656,note_on,,,,,0,0,2,,,,,1,,,58,93
22656,note_off,,,,,96,0,2,,,,,1,,,63,0
22656,note_off,,,,,384,0,1,,,,,0,,,82,0
22656,note_on,,,,,0,0,4,,,,,3,,,51,90
22656,note_off,,,,,96,0,3,,,,,2,,,58,0
22656,note_on,,,,,0,0,3,,,,,2,,,55,90
22656,note_on,,,,,0,0,1,,,,,0,,,75,109
22752,note_off,,,,,96,0,3,,,,,2,,,55,0
22752,note_off,,,,,96,0,2,,,,,1,,,58,0
22752,note_on,,,,,0,0,2,,,,,1,,,58,93
22752,note_on,,,,,0,0,3,,,,,2,,,55,90
22848,note_off,,,,,192,0,1,,,,,0,,,75,0
22848,note_on,,,,,0,0,3,,,,,2,,,58,90
22848,note_off,,,,,96,0,2,,,,,1,,,58,0
22848,note_on,,,,,0,0,2,,,,,1,,,63,93
22848,note_off,,,,,96,0,3,,,,,2,,,55,0
22944,note_on,,,,,0,0,2,,,,,1,,,63,93
22944,note_off,,,,,96,0,2,,,,,1,,,63,0
22944,note_on,,,,,0,0,3,,,,,2,,,58,90
22944,note_off,,,,,96,0,3,,,,,2,,,58,0
23040,note_on,,,,,0,0,2,,,,,1,,,60,93
23040,note_on,,,,,192,0,1,,,,,0,,,84,109
23040,note_off,,,,,384,0,4,,,,,3,,,51,0
23040,note_on,,,,,0,0,4,,,,,3,,,51,90
23040,note_off,,,,,96,0,3,,,,,2,,,58,0
23040,note_on,,,,,0,0,3,,,,,2,,,56,90
23040,note_off,,,,,96,0,2,,,,,1,,,63,0
23136,note_off,,,,,96,0,2,,,,,1,,,60,0
23136,note_on,,,,,0,0,2,,,,,1,,,60,93
23136,note_on,,,,,0,0,3,,,,,2,,,56,90
23136,note_off,,,,,96,0,3,,,,,2,,,56,0
23168,note_on,,,,,0,0,1,,,,,0,,,86,109
23168,note_off,,,,,128,0,1,,,,,0,,,84,0
23232,note_off,,,,,192,0,4,,,,,3,,,51,0
23232,note_on,,,,,0,0,4,,,,,3,,,51,90
23232,note_off,,,,,96,0,2,,,,,1,,,60,0
23232,note_on,,,,,0,0,2,,,,,1,,,63,93
23232,note_on,,,,,0,0,3,,,,,2,,,60,90
23232,note_off,,,,,96,0,3,,,,,2,,,56,0
23296,note_on,,,,,0,0,1,,,,,0,,,87,109
23296,note_off,,,,,128,0,1,,,,,0,,,86,0
23328,note_off,,,,,96,0,2,,,,,1,,,63,0
23328,note_on,,,,,0,0,2,,,,,1,,,63,93
23328,note_off,,,,,96,0,3,,,,,2,,,60,0
23328,note_on,,,,,0,0,3,,,,,2,,,60,90
23424,note_off,,,,,128,0,1,,,,,0,,,87,0
23424,note_on,,,,,0,0,1,,,,,0,,,87,109
23424,note_off,,,,,96,0,3,,,,,2,,,60,0
23424,note_on,,,,,0,0,4,,,,,3,,,51,90
23424,note_on,,,,,0,0,2,,,,,1,,,60,93
23424,note_off,,,,,96,0,2,,,,,1,,,63,0
23424,note_off,,,,,192,0,4,,,,,3,,,51,0
23424,note_on,,,,,0,0,3,,,,,2,,,56,90
23520,note_on,,,,,0,0,2,,,,,1,,,60,93
23520,note_off,,,,,96,0,2,,,,,1,,,60,0
23520,note_off,,,,,96,0,3,,,,,2,,,56,0
23520,note_on,,,,,0,0,3,,,,,2,,,56,90
23552,note_on,,,,,0,0,1,,,,,0,,,86,109
23552,note_off,,,,,128,0,1,,,,,0,,,87,0
23616,note_on,,,,,0,0,4,,,,,3,,,51,90
23616,note_on,,,,,0,0,3,,,,,2,,,60,90
23616,note_on,,,,,0,0,2,,,,,1,,,63,93
23616,note_off,,,,,96,0,2,,,,,1,,,60,0
23616,note_off,,,,,96,0,3,,,,,2,,,56,0
23616,note_off,,,,,192,0,4,,,,,3,,,51,0
23680,note_off,,,,,128,0,1,,,,,0,,,86,0
23680,note_on,,,,,0,0,1,,,,,0,,,84,109
23712,note_off,,,,,96,0,3,,,,,2,,,60,0
23712,note_on,,,,,0,0,2,,,,,1,,,63,93
23712,note_off,,,,,96,0,2,,,,,1,,,63,0
23712,note_on,,,,,0,0,3,,,,,2,,,60,90
23808,note_on,,,,,0,0,2,,,,,1,,,58,93
23808,note_off,,,,,96,0,2,,,,,1,,,63,0
23808,note_off,,,,,128,0,1,,,,,0,,,84,0
23808,note_off,,,,,96,0,3,,,,,2,,,60,0
23808,note_on,,,,,0,0,3,,,,,2,,,55,90
23808,note_on,,,,,0,0,1,,,,,0,,,82,109
23808,note_on,,,,,0,0,4,,,,,3,,,51,90
23808,note_off,,,,,192,0,4,,,,,3,,,51,0
23904,note_off,,,,,96,0,2,,,,,1,,,58,0
23904,note_off,,,,,96,0,3,,,,,2,,,55,0
23904,note_on,,,,,0,0,3,,,,,2,,,55,90
23904,note_on,,,,,0,0,2,,,,,1,,,58,93
24000,note_on,,,,,0,0,4,,,,,3,,,51,90
24000,note_off,,,,,96,0,3,,,,,2,,,55,0
24000,note_off,,,,,192,0,4,,,,,3,,,51,0
24000,note_on,,,,,0,0,2,,,,,1,,,63,93
24000,note_off,,,,,96,0,2,,,,,1,,,58,0
24000,note_on,,,,,0,0,3,,,,,2,,,58,90
24096,note_off,,,,,96,0,2,,,,,1,,,63,0
24096,note_on,,,,,0,0,3,,,,,2,,,58,90
24096,note_off,,,,,96,0,3,,,,,2,,,58,0
24096,note_on,,,,,0,0,2,,,,,1,,,63,93
24192,note_off,,,,,96,0,2,,,,,1,,,63,0
24192,note_on,,,,,0,0,2,,,,,1,,,58,93
24192,note_off,,,,,192,0,4,,,,,3,,,51,0
24192,note_on,,,,,0,0,4,,,,,3,,,51,90
24192,note_off,,,,,384,0,1,,,,,0,,,82,0
24192,note_on,,,,,0,0,1,,,,,0,,,75,109
24192,note_off,,,,,96,0,3,,,,,2,,,58,0
24192,note_on,,,,,0,0,3,,,,,2,,,55,90
24288,note_off,,,,,96,0,3,,,,,2,,,55,0
24288,note_on,,,,,0,0,3,,,,,2,,,55,90
24288,note_off,,,,,96,0,2,,,,,1,,,58,0
24288,note_on,,,,,0,0,2,,,,,1,,,58,93
24384,note_off,,,,,96,0,2,,,,,1,,,58,0
24384,note_on,,,,,0,0,2,,,,,1,,,63,93
24384,note_off,,,,,96,0,3,,,,,2,,,55,0
24384,note_on,,,,,0,0,3,,,,,2,,,58,90
24384,note_off,,,,,192,0,4,,,,,3,,,51,0
24384,note_on,,,,,0,0,4,,,,,3,,,51,90
24384,note_off,,,,,192,0,1,,,,,0,,,75,0
24480,note_on,,,,,0,0,3,,,,,2,,,58,90
24480,note_off,,,,,96,0,2,,,,,1,,,63,0
24480,note_on,,,,,0,0,2,,,,,1,,,63,93
24480,note_off,,,,,96,0,3,,,,,2,,,58,0
24576,note_on,,,,,192,0,1,,,,,0,,,77,109
24576,note_on,,,,,0,0,2,,,,,1,,,65,93
24576,note_on,,,,,0,0,2,,,,,1,,,60,93
24576,note_off,,,,,192,0,4,,,,,3,,,51,0
24576,note_off,,,,,96,0,2,,,,,1,,,63,0
24576,note_off,,,,,96,0,3,,,,,2,,,58,0
24576,note_on,,,,,0,0,3,,,,,2,,,65,90
24576,note_on,,,,,0,0,3,,,,,2,,,60,90
24576,note_on,,,,,0,0,4,,,,,3,,,44,90
24640,note_off,,,,,64,0,1,,,,,0,,,77,0
24704,note_on,,,,,64,0,1,,,,,0,,,84,109
24768,note_off,,,,,64,0,1,,,,,0,,,84,0
24832,note_on,,,,,64,0,1,,,,,0,,,82,109
24896,note_off,,,,,64,0,1,,,,,0,,,82,0
24960,note_on,,,,,64,0,1,,,,,0,,,80,109
24960,note_off,,,,,384,0,4,,,,,3,,,44,0
24960,note_off,,,,,0,0,3,,,,,2,,,60,0
24960,note_off,,,,,384,0,3,,,,,2,,,65,0
24960,note_off,,,,,0,0,2,,,,,1,,,65,0
24960,note_off,,,,,384,0,2,,,,,1,,,60,0
25024,note_off,,,,,64,0,1,,,,,0,,,80,0
25088,note_on,,,,,64,0,1,,,,,0,,,79,109
25152,note_off,,,,,64,0,1,,,,,0,,,79,0
25216,note_on,,,,,64,0,1,,,,,0,,,77,109
25280,note_off,,,,,64,0,1,,,,,0,,,77,0
25344,note_on,,,,,384,0,3,,,,,2,,,58,90
25344,note_on,,,,,0,0,3,,,,,2,,,65,90
25344,note_on,,,,,384,0,2,,,,,1,,,68,93
25344,note_on,,,,,0,0,2,,,,,1,,,58,93
25344,note_on,,,,,64,0,1,,,,,0,,,75,109
25344,note_on,,,,,384,0,4,,,,,3,,,46,90
25408,note_off,,,,,64,0,1,,,,,0,,,75,0
25472,note_on,,,,,64,0,1,,,,,0,,,74,109
25536,note_off,,,,,64,0,1,,,,,0,,,74,0
25600,note_on,,,,,64,0,1,,,,,0,,,72,109
25664,note_off,,,,,64,0,1,,,,,0,,,72,0
25728,note_off,,,,,384,0,3,,,,,2,,,58,0
25728,note_off,,,,,0,0,3,,,,,2,,,65,0
25728,note_off,,,,,0,0,2,,,,,1,,,58,0
25728,note_off,,,,,384,0,2,,,,,1,,,68,0
25728,note_on,,,,,64,0,1,,,,,0,,,70,109
25728,note_off,,,,,384,0,4,,,,,3,,,46,0
25792,note_off,,,,,64,0,1,,,,,0,,,70,0
25856,note_on,,,,,64,0,1,,,,,0,,,72,109
25920,note_off,,,,,64,0,1,,,,,0,,,72,0
25984,note_on,,,,,64,0,1,,,,,0,,,74,109
26048,note_off,,,,,64,0,1,,,,,0,,,74,0
26112,note_on,,,,,384,0,2,,,,,1,,,67,93
26112,note_on,,,,,0,0,3,,,,,2,,,63,90
26112,note_on,,,,,384,0,3,,,,,2,,,55,90
26112,note_on,,,,,64,0,1,,,,,0,,,75,109
26112,note_on,,,,,384,0,4,,,,,3,,,51,90
26240,note_off,,,,,128,0,2,,,,,1,,,67,0
26240,note_on,,,,,0,0,2,,,,,1,,,70,93
26240,note_on,,,,,0,0,2,,,,,1,,,67,93
26368,note_off,,,,,128,0,2,,,,,1,,,70,0
26368,note_off,,,,,0,0,2,,,,,1,,,67,0
26368,note_on,,,,,0,0,2,,,,,1,,,67,93
26368,note_on,,,,,0,0,2,,,,,1,,,70,93
26496,note_off,,,,,384,0,3,,,,,2,,,55,0
26496,note_on,,,,,0,0,2,,,,,1,,,70,93
26496,note_off,,,,,128,0,2,,,,,1,,,67,0
26496,note_off,,,,,0,0,2,,,,,1,,,70,0
26496,note_on,,,,,0,0,2,,,,,1,,,67,93
26496,note_off,,,,,384,0,1,,,,,0,,,75,0
26496,note_off,,,,,384,0,4,,,,,3,,,51,0
26496,note_off,,,,,0,0,3,,,,,2,,,63,0
26624,note_on,,,,,0,0,2,,,,,1,,,67,93
26624,note_on,,,,,0,0,2,,,,,1,,,70,93
26624,note_off,,,,,0,0,2,,,,,1,,,67,0
26624,note_off,,,,,128,0,2,,,,,1,,,70,0
26752,note_off,,,,,128,0,2,,,,,1,,,70,0
26752,note_on,,,,,0,0,2,,,,,1,,,70,93
26752,note_on,,,,,0,0,2,,,,,1,,,67,93
26752,note_off,,,,,0,0,2,,,,,1,,,67,0
26880,note_off,,,,,0,0,2,,,,,1,,,67,0
26880,note_on,,,,,0,0,2,,,,,1,,,70,93
26880,note_off,,,,,128,0,2,,,,,1,,,70,0
26880,note_on,,,,,0,0,2,,,,,1,,,67,93
27008,note_off,,,,,128,0,2,,,,,1,,,70,0
27008,note_off,,,,,0,0,2,,,,,1,,,67,0
27008,note_on,,,,,0,0,2,,,,,1,,,70,93
27008,note_on,,,,,0,0,2,,,,,1,,,67,93
27136,note_off,,,,,128,0,2,,,,,1,,,70,0
27136,note_off,,,,,0,0,2,,,,,1,,,67,0
27136,note_on,,,,,0,0,2,,,,,1,,,70,93
27136,note_on,,,,,0,0,2,,,,,1,,,67,93
27168,note_on,,,,,672,0,3,,,,,2,,,65,90
27264,note_off,,,,,96,0,3,,,,,2,,,65,0
27264,note_off,,,,,128,0,2,,,,,1,,,70,0
27264,note_on,,,,,0,0,2,,,,,1,,,67,93
27264,note_on,,,,,0,0,2,,,,,1,,,70,93
27264,note_off,,,,,0,0,2,,,,,1,,,67,0
27264,note_on,,,,,0,0,3,,,,,2,,,64,90
27392,note_off,,,,,128,0,3,,,,,2,,,64,0
27392,note_off,,,,,128,0,2,,,,,1,,,70,0
27392,note_off,,,,,0,0,2,,,,,1,,,67,0
27392,note_on,,,,,0,0,3,,,,,2,,,62,90
27392,note_on,,,,,0,0,2,,,,,1,,,70,93
27392,note_on,,,,,0,0,2,,,,,1,,,67,93
27520,note_off,,,,,0,0,2,,,,,1,,,67,0
27520,note_on,,,,,0,0,3,,,,,2,,,64,90
27520,note_off,,,,,128,0,3,,,,,2,,,62,0
27520,note_off,,,,,128,0,2,,,,,1,,,70,0
27520,note_on,,,,,0,0,2,,,,,1,,,67,93
27520,note_on,,,,,0,0,2,,,,,1,,,70,93
27648,note_on,,,,,0,0,2,,,,,1,,,70,93
27648,note_on,,,,,0,0,2,,,,,1,,,68,93
27648,note_off,,,,,0,0,2,,,,,1,,,70,0
27648,note_off,,,,,128,0,2,,,,,1,,,67,0
27648,note_off,,,,,128,0,3,,,,,2,,,64,0
27648,note_on,,,,,0,0,3,,,,,2,,,65,90
27776,note_off,,,,,128,0,2,,,,,1,,,68,0
27776,note_off,,,,,0,0,2,,,,,1,,,70,0
27776,note_on,,,,,0,0,2,,,,,1,,,68,93
27776,note_on,,,,,0,0,2,,,,,1,,,70,93
27840,note_off,,,,,192,0,3,,,,,2,,,65,0
27904,note_off,,,,,128,0,2,,,,,1,,,68,0
27904,note_off,,,,,0,0,2,,,,,1,,,70,0
27904,note_on,,,,,0,0,2,,,,,1,,,68,93
27904,note_on,,,,,0,0,2,,,,,1,,,70,93
28032,note_off,,,,,0,0,2,,,,,1,,,70,0
28032,note_off,,,,,128,0,2,,,,,1,,,68,0
28032,note_on,,,,,0,0,2,,,,,1,,,70,93
28032,note_on,,,,,192,0,3,,,,,2,,,62,90
28032,note_on,,,,,0,0,2,,,,,1,,,68,93
28160,note_off,,,,,128,0,2,,,,,1,,,68,0
28160,note_off,,,,,0,0,2,,,,,1,,,70,0
28160,note_on,,,,,0,0,2,,,,,1,,,68,93
28160,note_on,,,,,0,0,2,,,,,1,,,70,93
28224,note_off,,,,,192,0,3,,,,,2,,,62,0
28288,note_off,,,,,128,0,2,,,,,1,,,68,0
28288,note_off,,,,,0,0,2,,,,,1,,,70,0
28288,note_on,,,,,0,0,2,,,,,1,,,68,93
28288,note_on,,,,,0,0,2,,,,,1,,,70,93
28416,note_on,,,,,0,0,2,,,,,1,,,68,93
28416,note_on,,,,,192,0,3,,,,,2,,,58,90
28416,note_off,,,,,0,0,2,,,,,1,,,70,0
28416,note_off,,,,,128,0,2,,,,,1,,,68,0
28416,note_on,,,,,0,0,2,,,,,1,,,70,93
28544,note_off,,,,,128,0,2,,,,,1,,,68,0
28544,note_off,,,,,0,0,2,,,,,1,,,70,0
28544,note_on,,,,,0,0,2,,,,,1,,,68,93
28544,note_on,,,,,0,0,2,,,,,1,,,70,93
28608,note_off,,,,,192,0,3,,,,,2,,,58,0
28672,note_off,,,,,128,0,2,,,,,1,,,68,0
28672,note_on,,,,,0,0,2,,,,,1,,,70,93
28672,note_on,,,,,0,0,2,,,,,1,,,68,93
28672,note_off,,,,,0,0,2,,,,,1,,,70,0
28704,note_on,,,,,2208,0,4,,,,,3,,,60,90
28704,note_on,,,,,2208,0,1,,,,,0,,,75,109
28800,note_off,,,,,128,0,2,,,,,1,,,68,0
28800,note_off,,,,,96,0,4,,,,,3,,,60,0
28800,note_on,,,,,0,0,4,,,,,3,,,58,90
28800,note_on,,,,,0,0,2,,,,,1,,,68,93
28800,note_on,,,,,0,0,1,,,,,0,,,74,109
28800,note_off,,,,,96,0,1,,,,,0,,,75,0
28800,note_on,,,,,0,0,2,,,,,1,,,70,93
28800,note_off,,,,,0,0,2,,,,,1,,,70,0
28928,note_off,,,,,128,0,1,,,,,0,,,74,0
28928,note_off,,,,,128,0,2,,,,,1,,,68,0
28928,note_off,,,,,0,0,2,,,,,1,,,70,0
28928,note_on,,,,,0,0,2,,,,,1,,,70,93
28928,note_on,,,,,0,0,2,,,,,1,,,68,93
28928,note_on,,,,,0,0,4,,,,,3,,,57,90
28928,note_on,,,,,0,0,1,,,,,0,,,72,109
28928,note_off,,,,,128,0,4,,,,,3,,,58,0
29056,note_off,,,,,128,0,1,,,,,0,,,72,0
29056,note_on,,,,,0,0,1,,,,,0,,,74,109
29056,note_off,,,,,128,0,4,,,,,3,,,57,0
29056,note_on,,,,,0,0,2,,,,,1,,,70,93
29056,note_off,,,,,0,0,2,,,,,1,,,68,0
29056,note_off,,,,,128,0,2,,,,,1,,,70,0
29056,note_on,,,,,0,0,4,,,,,3,,,58,90
29056,note_on,,,,,0,0,2,,,,,1,,,68,93
29184,note_on,,,,,0,0,1,,,,,0,,,75,109
29184,note_off,,,,,128,0,1,,,,,0,,,74,0
29184,note_on,,,,,0,0,4,,,,,3,,,51,90
29184,note_off,,,,,128,0,4,,,,,3,,,58,0
29184,note_on,,,,,0,0,2,,,,,1,,,67,93
29184,note_on,,,,,0,0,2,,,,,1,,,70,93
29184,note_off,,,,,0,0,2,,,,,1,,,70,0
29184,note_off,,,,,128,0,2,,,,,1,,,68,0
29312,note_on,,,,,0,0,2,,,,,1,,,67,93
29312,note_on,,,,,0,0,2,,,,,1,,,70,93
29312,note_off,,,,,0,0,2,,,,,1,,,67,0
29312,note_off,,,,,128,0,2,,,,,1,,,70,0
29376,note_off,,,,,192,0,4,,,,,3,,,51,0
29440,note_off,,,,,0,0,2,,,,,1,,,67,0
29440,note_on,,,,,0,0,2,,,,,1,,,67,93
29440,note_on,,,,,0,0,2,,,,,1,,,70,93
29440,note_off,,,,,128,0,2,,,,,1,,,70,0
29568,note_on,,,,,192,0,4,,,,,3,,,39,90
29568,note_off,,,,,128,0,2,,,,,1,,,67,0
29568,note_off,,,,,0,0,2,,,,,1,,,70,0
29568,note_on,,,,,0,0,2,,,,,1,,,70,93
29568,note_on,,,,,0,0,2,,,,,1,,,67,93
29568,note_off,,,,,384,0,1,,,,,0,,,75,0
29696,note_on,,,,,128,0,1,,,,,0,,,77,109
29696,note_off,,,,,128,0,2,,,,,1,,,70,0
29696,note_off,,,,,0,0,2,,,,,1,,,67,0
29696,note_on,,,,,0,0,2,,,,,1,,,70,93
29696,note_on,,,,,0,0,2,,,,,1,,,67,93
29760,note_off,,,,,192,0,4,,,,,3,,,39,0
29824,note_on,,,,,0,0,2,,,,,1,,,70,93
29824,note_off,,,,,0,0,2,,,,,1,,,67,0
29824,note_off,,,,,128,0,1,,,,,0,,,77,0
29824,note_on,,,,,0,0,1,,,,,0,,,79,109
29824,note_off,,,,,128,0,2,,,,,1,,,70,0
29824,note_on,,,,,0,0,2,,,,,1,,,67,93
29952,note_off,,,,,128,0,1,,,,,0,,,79,0
29952,note_on,,,,,0,0,1,,,,,0,,,70,109
29952,note_off,,,,,128,0,2,,,,,1,,,67,0
29952,note_off,,,,,0,0,2,,,,,1,,,70,0
29952,note_on,,,,,0,0,2,,,,,1,,,67,93
29952,note_on,,,,,0,0,2,,,,,1,,,70,93
30080,note_off,,,,,128,0,2,,,,,1,,,67,0
30080,note_off,,,,,0,0,2,,,,,1,,,70,0
30080,note_on,,,,,0,0,2,,,,,1,,,67,93
30080,note_on,,,,,0,0,2,,,,,1,,,70,93
30208,note_on,,,,,0,0,2,,,,,1,,,67,93
30208,note_off,,,,,0,0,2,,,,,1,,,70,0
30208,note_off,,,,,128,0,2,,,,,1,,,67,0
30208,note_on,,,,,0,0,2,,,,,1,,,70,93
30240,note_on,,,,,1632,0,3,,,,,2,,,65,90
30336,note_off,,,,,128,0,2,,,,,1,,,67,0
30336,note_off,,,,,96,0,3,,,,,2,,,65,0
30336,note_off,,,,,384,0,1,,,,,0,,,70,0
30336,note_on,,,,,0,0,3,,,,,2,,,64,90
30336,note_on,,,,,0,0,2,,,,,1,,,67,93
30336,note_on,,,,,0,0,2,,,,,1,,,70,93
30336,note_off,,,,,0,0,2,,,,,1,,,70,0
30464,note_off,,,,,0,0,2,,,,,1,,,67,0
30464,note_off,,,,,128,0,3,,,,,2,,,64,0
30464,note_on,,,,,0,0,2,,,,,1,,,67,93
30464,note_on,,,,,0,0,3,,,,,2,,,62,90
30464,note_on,,,,,0,0,2,,,,,1,,,70,93
30464,note_off,,,,,128,0,2,,,,,1,,,70,0
30592,note_on,,,,,0,0,3,,,,,2,,,64,90
30592,note_off,,,,,0,0,2,,,,,1,,,67,0
30592,note_on,,,,,0,0,2,,,,,1,,,67,93
30592,note_off,,,,,128,0,2,,,,,1,,,70,0
30592,note_on,,,,,0,0,2,,,,,1,,,70,93
30592,note_off,,,,,128,0,3,,,,,2,,,62,0
30720,note_on,,,,,0,0,2,,,,,1,,,68,93
30720,note_on,,,,,0,0,2,,,,,1,,,70,93
30720,note_off,,,,,128,0,3,,,,,2,,,64,0
30720,note_on,,,,,0,0,3,,,,,2,,,65,90
30720,note_off,,,,,0,0,2,,,,,1,,,70,0
30720,note_off,,,,,128,0,2,,,,,1,,,67,0
30848,note_on,,,,,0,0,2,,,,,1,,,68,93
30848,note_off,,,,,128,0,2,,,,,1,,,70,0
30848,note_on,,,,,0,0,2,,,,,1,,,70,93
30848,note_off,,,,,0,0,2,,,,,1,,,68,0
30912,note_off,,,,,192,0,3,,,,,2,,,65,0
30976,note_off,,,,,0,0,2,,,,,1,,,70,0
30976,note_off,,,,,128,0,2,,,,,1,,,68,0
30976,note_on,,,,,0,0,2,,,,,1,,,70,93
30976,note_on,,,,,0,0,2,,,,,1,,,68,93
31104,note_on,,,,,0,0,2,,,,,1,,,70,93
31104,note_on,,,,,0,0,2,,,,,1,,,68,93
31104,note_off,,,,,0,0,2,,,,,1,,,70,0
31104,note_off,,,,,128,0,2,,,,,1,,,68,0
31104,note_on,,,,,192,0,3,,,,,2,,,62,90
31232,note_on,,,,,0,0,2,,,,,1,,,70,93
31232,note_on,,,,,0,0,2,,,,,1,,,68,93
31232,note_off,,,,,128,0,2,,,,,1,,,68,0
31232,note_off,,,,,0,0,2,,,,,1,,,70,0
31296,note_off,,,,,192,0,3,,,,,2,,,62,0
31360,note_off,,,,,128,0,2,,,,,1,,,68,0
31360,note_off,,,,,0,0,2,,,,,1,,,70,0
31360,note_on,,,,,0,0,2,,,,,1,,,68,93
31360,note_on,,,,,0,0,2,,,,,1,,,70,93
31488,note_on,,,,,192,0,3,,,,,2,,,58,90
31488,note_on,,,,,0,0,2,,,,,1,,,70,93
31488,note_on,,,,,0,0,2,,,,,1,,,68,93
31488,note_off,,,,,0,0,2,,,,,1,,,70,0
31488,note_off,,,,,128,0,2,,,,,1,,,68,0
31616,note_off,,,,,128,0,2,,,,,1,,,68,0
31616,note_off,,,,,0,0,2,,,,,1,,,70,0
31616,note_on,,,,,0,0,2,,,,,1,,,68,93
31616,note_on,,,,,0,0,2,,,,,1,,,70,93
31680,note_off,,,,,192,0,3,,,,,2,,,58,0
31744,note_off,,,,,128,0,2,,,,,1,,,70,0
31744,note_off,,,,,0,0,2,,,,,1,,,68,0
31744,note_on,,,,,0,0,2,,,,,1,,,70,93
31744,note_on,,,,,0,0,2,,,,,1,,,68,93
31776,note_on,,,,,1440,0,1,,,,,0,,,75,109
31776,note_on,,,,,2016,0,4,,,,,3,,,60,90
31872,note_on,,,,,0,0,1,,,,,0,,,74,109
31872,note_off,,,,,96,0,1,,,,,0,,,75,0
31872,note_on,,,,,0,0,2,,,,,1,,,68,93
31872,note_off,,,,,96,0,4,,,,,3,,,60,0
31872,note_on,,,,,0,0,4,,,,,3,,,58,90
31872,note_off,,,,,128,0,2,,,,,1,,,70,0
31872,note_off,,,,,0,0,2,,,,,1,,,68,0
31872,note_on,,,,,0,0,2,,,,,1,,,70,93
32000,note_off,,,,,0,0,2,,,,,1,,,68,0
32000,note_off,,,,,128,0,4,,,,,3,,,58,0
32000,note_off,,,,,128,0,1,,,,,0,,,74,0
32000,note_on,,,,,0,0,1,,,,,0,,,72,109
32000,note_on,,,,,0,0,4,,,,,3,,,57,90
32000,note_off,,,,,128,0,2,,,,,1,,,70,0
32000,note_on,,,,,0,0,2,,,,,1,,,68,93
32000,note_on,,,,,0,0,2,,,,,1,,,70,93
32128,note_off,,,,,128,0,1,,,,,0,,,72,0
32128,note_on,,,,,0,0,1,,,,,0,,,74,109
32128,note_off,,,,,128,0,4,,,,,3,,,57,0
32128,note_off,,,,,128,0,2,,,,,1,,,70,0
32128,note_on,,,,,0,0,4,,,,,3,,,58,90
32128,note_off,,,,,0,0,2,,,,,1,,,68,0
32128,note_on,,,,,0,0,2,,,,,1,,,70,93
32128,note_on,,,,,0,0,2,,,,,1,,,68,93
32256,note_off,,,,,128,0,2,,,,,1,,,70,0
32256,note_off,,,,,0,0,2,,,,,1,,,68,0
32256,note_on,,,,,0,0,2,,,,,1,,,67,93
32256,note_on,,,,,0,0,2,,,,,1,,,70,93
32256,note_off,,,,,128,0,1,,,,,0,,,74,0
32256,note_on,,,,,0,0,1,,,,,0,,,75,109
32256,note_on,,,,,0,0,4,,,,,3,,,51,90
32256,note_off,,,,,128,0,4,,,,,3,,,58,0
32384,note_off,,,,,128,0,2,,,,,1,,,67,0
32384,note_off,,,,,0,0,2,,,,,1,,,70,0
32384,note_on,,,,,0,0,2,,,,,1,,,67,93
32384,note_on,,,,,0,0,2,,,,,1,,,70,93
32448,note_off,,,,,192,0,4,,,,,3,,,51,0
32512,note_off,,,,,128,0,2,,,,,1,,,67,0
32512,note_off,,,,,0,0,2,,,,,1,,,70,0
32512,note_on,,,,,0,0,2,,,,,1,,,70,93
32512,note_on,,,,,0,0,2,,,,,1,,,67,93
32640,note_off,,,,,384,0,1,,,,,0,,,75,0
32640,note_on,,,,,192,0,4,,,,,3,,,39,90
32640,note_on,,,,,0,0,2,,,,,1,,,67,93
32640,note_on,,,,,0,0,2,,,,,1,,,70,93
32640,note_off,,,,,128,0,2,,,,,1,,,70,0
32640,note_off,,,,,0,0,2,,,,,1,,,67,0
32768,note_on,,,,,0,0,2,,,,,1,,,70,93
32768,note_on,,,,,128,0,1,,,,,0,,,77,109
32768,note_off,,,,,128,0,2,,,,,1,,,70,0
32768,note_off,,,,,0,0,2,,,,,1,,,67,0
32768,note_on,,,,,0,0,2,,,,,1,,,67,93
32832,note_off,,,,,192,0,4,,,,,3,,,39,0
32896,note_off,,,,,128,0,2,,,,,1,,,67,0
32896,note_off,,,,,128,0,1,,,,,0,,,77,0
32896,note_on,,,,,0,0,1,,,,,0,,,79,109
32896,note_off,,,,,0,0,2,,,,,1,,,70,0
32896,note_on,,,,,0,0,2,,,,,1,,,70,93
32896,note_on,,,,,0,0,2,,,,,1,,,67,93
33024,note_off,,,,,128,0,2,,,,,1,,,70,0
33024,note_on,,,,,0,0,2,,,,,1,,,70,93
33024,note_on,,,,,0,0,2,,,,,1,,,67,93
33024,note_off,,,,,0,0,2,,,,,1,,,67,0
33024,note_on,,,,,0,0,1,,,,,0,,,70,109
33024,note_off,,,,,128,0,1,,,,,0,,,79,0
33408,note_on,,,,,0,0,1,,,,,0,,,74,109
33408,note_on,,,,,576,0,4,,,,,3,,,55,90
33408,note_off,,,,,384,0,1,,,,,0,,,70,0
33408,note_on,,,,,1728,0,3,,,,,2,,,65,90
33408,note_off,,,,,384,0,2,,,,,1,,,70,0
33408,note_on,,,,,0,0,2,,,,,1,,,71,93
33408,note_off,,,,,0,0,2,,,,,1,,,67,0
33536,note_off,,,,,128,0,1,,,,,0,,,74,0
33536,note_on,,,,,0,0,1,,,,,0,,,75,109
33664,note_on,,,,,0,0,1,,,,,0,,,74,109
33664,note_off,,,,,128,0,1,,,,,0,,,75,0
33792,note_off,,,,,128,0,1,,,,,0,,,74,0
33792,note_off,,,,,384,0,2,,,,,1,,,71,0
33792,note_on,,,,,0,0,4,,,,,3,,,60,90
33792,note_off,,,,,384,0,4,,,,,3,,,55,0
33792,note_on,,,,,0,0,1,,,,,0,,,72,109
33792,note_on,,,,,0,0,3,,,,,2,,,63,90
33792,note_on,,,,,0,0,2,,,,,1,,,72,93
33792,note_off,,,,,384,0,3,,,,,2,,,65,0
33984,note_off,,,,,192,0,2,,,,,1,,,72,0
33984,note_off,,,,,192,0,4,,,,,3,,,60,0
33984,note_off,,,,,192,0,3,,,,,2,,,63,0
33984,note_off,,,,,192,0,1,,,,,0,,,72,0
34176,note_on,,,,,192,0,2,,,,,1,,,71,93
34176,note_on,,,,,192,0,1,,,,,0,,,74,109
34176,note_on,,,,,192,0,3,,,,,2,,,65,90
34176,note_on,,,,,192,0,4,,,,,3,,,55,90
34304,note_off,,,,,128,0,1,,,,,0,,,74,0
34304,note_on,,,,,0,0,1,,,,,0,,,75,109
34432,note_on,,,,,0,0,1,,,,,0,,,74,109
34432,note_off,,,,,128,0,1,,,,,0,,,75,0
34560,note_on,,,,,0,0,4,,,,,3,,,60,90
34560,note_on,,,,,0,0,1,,,,,0,,,72,109
34560,note_off,,,,,384,0,2,,,,,1,,,71,0
34560,note_on,,,,,0,0,2,,,,,1,,,72,93
34560,note_off,,,,,384,0,3,,,,,2,,,65,0
34560,note_off,,,,,128,0,1,,,,,0,,,74,0
34560,note_off,,,,,384,0,4,,,,,3,,,55,0
34560,note_on,,,,,0,0,3,,,,,2,,,63,90
34752,note_off,,,,,192,0,1,,,,,0,,,72,0
34752,note_off,,,,,192,0,4,,,,,3,,,60,0
34752,note_off,,,,,192,0,3,,,,,2,,,63,0
34752,note_off,,,,,192,0,2,,,,,1,,,72,0
34944,note_on,,,,,192,0,3,,,,,2,,,65,90
34944,note_on,,,,,192,0,1,,,,,0,,,74,109
34944,note_on,,,,,192,0,2,,,,,1,,,71,93
34944,note_on,,,,,192,0,4,,,,,3,,,55,90
35072,note_off,,,,,128,0,1,,,,,0,,,74,0
35072,note_on,,,,,0,0,3,,,,,2,,,67,90
35072,note_off,,,,,128,0,3,,,,,2,,,65,0
35072,note_on,,,,,0,0,1,,,,,0,,,75,109
35200,note_off,,,,,128,0,1,,,,,0,,,75,0
35200,note_on,,,,,0,0,1,,,,,0,,,74,109
35200,note_on,,,,,0,0,3,,,,,2,,,65,90
35200,note_off,,,,,128,0,3,,,,,2,,,67,0
35328,note_off,,,,,384,0,2,,,,,1,,,71,0
35328,note_on,,,,,0,0,3,,,,,2,,,63,90
35328,note_on,,,,,0,0,1,,,,,0,,,72,109
35328,note_off,,,,,128,0,1,,,,,0,,,74,0
35328,note_off,,,,,128,0,3,,,,,2,,,65,0
35328,note_on,,,,,0,0,4,,,,,3,,,56,90
35328,note_off,,,,,384,0,4,,,,,3,,,55,0
35328,note_on,,,,,0,0,2,,,,,1,,,72,93
35712,note_on,,,,,0,0,1,,,,,0,,,84,109
35712,note_off,,,,,384,0,1,,,,,0,,,72,0
36096,note_on,,,,,0,0,3,,,,,2,,,64,90
36096,note_off,,,,,768,0,3,,,,,2,,,63,0
36480,note_off,,,,,768,0,1,,,,,0,,,84,0
36480,note_on,,,,,0,0,1,,,,,0,,,82,109
36864,note_off,,,,,768,0,3,,,,,2,,,64,0
36864,note_on,,,,,0,0,3,,,,,2,,,65,90
37248,note_on,,,,,0,0,1,,,,,0,,,80,109
37248,note_off,,,,,768,0,1,,,,,0,,,82,0
37440,note_off,,,,,192,0,1,,,,,0,,,80,0
37632,note_on,,,,,192,0,1,,,,,0,,,82,109
37632,note_off,,,,,2304,0,4,,,,,3,,,56,0
37632,note_off,,,,,768,0,3,,,,,2,,,65,0
37632,note_off,,,,,2304,0,2,,,,,1,,,72,0
37824,note_off,,,,,192,0,1,,,,,0,,,82,0
37824,note_on,,,,,0,0,1,,,,,0,,,80,109
38016,note_on,,,,,0,0,1,,,,,0,,,79,109
38016,note_off,,,,,192,0,1,,,,,0,,,80,0
38208,note_on,,,,,0,0,1,,,,,0,,,77,109
38208,note_off,,,,,192,0,1,,,,,0,,,79,0
38400,note_on,,,,,0,0,1,,,,,0,,,75,109
38400,note_off,,,,,192,0,1,,,,,0,,,77,0
38400,note_on,,,,,768,0,2,,,,,1,,,58,93
38400,note_on,,,,,768,0,4,,,,,3,,,46,90
38400,note_on,,,,,768,0,3,,,,,2,,,55,90
38976,note_on,,,,,0,0,2,,,,,1,,,57,93
38976,note_off,,,,,576,0,3,,,,,2,,,55,0
38976,note_on,,,,,0,0,3,,,,,2,,,54,90
38976,note_off,,,,,576,0,2,,,,,1,,,58,0
39168,note_on,,,,,0,0,2,,,,,1,,,58,93
39168,note_off,,,,,192,0,2,,,,,1,,,57,0
39168,note_off,,,,,192,0,3,,,,,2,,,54,0
39168,note_on,,,,,0,0,3,,,,,2,,,55,90
39552,note_off,,,,,384,0,2,,,,,1,,,58,0
39552,note_on,,,,,0,0,2,,,,,1,,,62,93
39552,note_off,,,,,1152,0,1,,,,,0,,,75,0
39552,note_on,,,,,0,0,3,,,,,2,,,56,90
39552,note_on,,,,,0,0,1,,,,,0,,,79,109
39552,note_off,,,,,384,0,3,,,,,2,,,55,0
39744,note_off,,,,,192,0,1,,,,,0,,,79,0
39744,note_on,,,,,0,0,1,,,,,0,,,77,109
39936,note_off,,,,,192,0,1,,,,,0,,,77,0
39936,note_on,,,,,0,0,3,,,,,2,,,55,90
39936,note_off,,,,,384,0,3,,,,,2,,,56,0
39936,note_off,,,,,384,0,2,,,,,1,,,62,0
39936,note_on,,,,,0,0,2,,,,,1,,,63,93
39936,note_off,,,,,1536,0,4,,,,,3,,,46,0
39936,note_on,,,,,0,0,4,,,,,3,,,39,90
39936,note_on,,,,,0,0,1,,,,,0,,,75,109
40064,note_on,,,,,0,0,2,,,,,1,,,70,93
40064,note_off,,,,,128,0,3,,,,,2,,,55,0
40064,note_off,,,,,128,0,2,,,,,1,,,63,0
40064,note_on,,,,,0,0,3,,,,,2,,,67,90
40192,note_off,,,,,128,0,2,,,,,1,,,70,0
40192,note_off,,,,,128,0,3,,,,,2,,,67,0
40192,note_on,,,,,0,0,3,,,,,2,,,67,90
40192,note_on,,,,,0,0,2,,,,,1,,,70,93
40320,note_off,,,,,128,0,2,,,,,1,,,70,0
40320,note_on,,,,,0,0,3,,,,,2,,,67,90
40320,note_off,,,,,128,0,3,,,,,2,,,67,0
40320,note_on,,,,,0,0,2,,,,,1,,,70,93
40320,note_off,,,,,384,0,4,,,,,3,,,39,0
40320,note_off,,,,,384,0,1,,,,,0,,,75,0
40448,note_on,,,,,0,0,2,,,,,1,,,70,93
40448,note_off,,,,,128,0,2,,,,,1,,,70,0
40448,note_on,,,,,0,0,3,,,,,2,,,67,90
40448,note_off,,,,,128,0,3,,,,,2,,,67,0
40576,note_off,,,,,128,0,3,,,,,2,,,67,0
40576,note_on,,,,,0,0,3,,,,,2,,,67,90
40576,note_off,,,,,128,0,2,,,,,1,,,70,0
40576,note_on,,,,,0,0,2,,,,,1,,,70,93
40704,note_on,,,,,0,0,3,,,,,2,,,67,90
40704,note_off,,,,,128,0,3,,,,,2,,,67,0
40704,note_off,,,,,128,0,2,,,,,1,,,70,0
40704,note_on,,,,,0,0,2,,,,,1,,,70,93
40832,note_on,,,,,0,0,3,,,,,2,,,67,90
40832,note_off,,,,,128,0,3,,,,,2,,,67,0
40832,note_on,,,,,0,0,2,,,,,1,,,70,93
40832,note_off,,,,,128,0,2,,,,,1,,,70,0
40960,note_on,,,,,0,0,3,,,,,2,,,67,90
40960,note_off,,,,,128,0,3,,,,,2,,,67,0
40960,note_off,,,,,128,0,2,,,,,1,,,70,0
40960,note_on,,,,,0,0,2,,,,,1,,,70,93
40992,note_on,,,,,672,0,1,,,,,0,,,77,109
41088,note_on,,,,,0,0,1,,,,,0,,,76,109
41088,note_off,,,,,96,0,1,,,,,0,,,77,0
41088,note_off,,,,,128,0,3,,,,,2,,,67,0
41088,note_off,,,,,128,0,2,,,,,1,,,70,0
41088,note_on,,,,,0,0,3,,,,,2,,,67,90
41088,note_on,,,,,0,0,2,,,,,1,,,70,93
41216,note_off,,,,,128,0,2,,,,,1,,,70,0
41216,note_on,,,,,0,0,2,,,,,1,,,70,93
41216,note_off,,,,,128,0,3,,,,,2,,,67,0
41216,note_on,,,,,0,0,3,,,,,2,,,67,90
41216,note_off,,,,,128,0,1,,,,,0,,,76,0
41216,note_on,,,,,0,0,1,,,,,0,,,74,109
41344,note_on,,,,,0,0,2,,,,,1,,,70,93
41344,note_off,,,,,128,0,2,,,,,1,,,70,0
41344,note_on,,,,,0,0,1,,,,,0,,,76,109
41344,note_on,,,,,0,0,3,,,,,2,,,67,90
41344,note_off,,,,,128,0,3,,,,,2,,,67,0
41344,note_off,,,,,128,0,1,,,,,0,,,74,0
41472,note_off,,,,,128,0,3,,,,,2,,,67,0
41472,note_off,,,,,128,0,1,,,,,0,,,76,0
41472,note_on,,,,,0,0,3,,,,,2,,,68,90
41472,note_on,,,,,0,0,1,,,,,0,,,77,109
41472,note_off,,,,,128,0,2,,,,,1,,,70,0
41472,note_on,,,,,0,0,2,,,,,1,,,70,93
41600,note_on,,,,,0,0,3,,,,,2,,,68,90
41600,note_off,,,,,128,0,3,,,,,2,,,68,0
41600,note_on,,,,,0,0,2,,,,,1,,,70,93
41600,note_off,,,,,128,0,2,,,,,1,,,70,0
41664,note_off,,,,,192,0,1,,,,,0,,,77,0
41728,note_on,,,,,0,0,3,,,,,2,,,68,90
41728,note_off,,,,,128,0,3,,,,,2,,,68,0
41728,note_off,,,,,128,0,2,,,,,1,,,70,0
41728,note_on,,,,,0,0,2,,,,,1,,,70,93
41856,note_on,,,,,0,0,3,,,,,2,,,68,90
41856,note_off,,,,,128,0,3,,,,,2,,,68,0
41856,note_on,,,,,0,0,2,,,,,1,,,70,93
41856,note_off,,,,,128,0,2,,,,,1,,,70,0
41856,note_on,,,,,192,0,1,,,,,0,,,74,109
41984,note_on,,,,,0,0,3,,,,,2,,,68,90
41984,note_off,,,,,128,0,3,,,,,2,,,68,0
41984,note_on,,,,,0,0,2,,,,,1,,,70,93
41984,note_off,,,,,128,0,2,,,,,1,,,70,0
42048,note_off,,,,,192,0,1,,,,,0,,,74,0
42112,note_on,,,,,0,0,3,,,,,2,,,68,90
42112,note_on,,,,,0,0,2,,,,,1,,,70,93
42112,note_off,,,,,128,0,3,,,,,2,,,68,0
42112,note_off,,,,,128,0,2,,,,,1,,,70,0
42240,note_off,,,,,128,0,3,,,,,2,,,68,0
42240,note_on,,,,,0,0,3,,,,,2,,,68,90
42240,note_on,,,,,192,0,1,,,,,0,,,70,109
42240,note_off,,,,,128,0,2,,,,,1,,,70,0
42240,note_on,,,,,0,0,2,,,,,1,,,70,93
42368,note_off,,,,,128,0,3,,,,,2,,,68,0
42368,note_on,,,,,0,0,3,,,,,2,,,68,90
42368,note_off,,,,,128,0,2,,,,,1,,,70,0
42368,note_on,,,,,0,0,2,,,,,1,,,70,93
42432,note_off,,,,,192,0,1,,,,,0,,,70,0
42496,note_off,,,,,128,0,2,,,,,1,,,70,0
42496,note_on,,,,,0,0,3,,,,,2,,,68,90
42496,note_off,,,,,128,0,3,,,,,2,,,68,0
42496,note_on,,,,,0,0,2,,,,,1,,,70,93
42528,note_on,,,,,2208,0,4,,,,,3,,,55,90
42624,note_on,,,,,0,0,2,,,,,1,,,70,93
42624,note_off,,,,,96,0,4,,,,,3,,,55,0
42624,note_off,,,,,128,0,3,,,,,2,,,68,0
42624,note_on,,,,,0,0,3,,,,,2,,,68,90
42624,note_on,,,,,0,0,4,,,,,3,,,53,90
42624,note_off,,,,,128,0,2,,,,,1,,,70,0
42688,note_off,,,,,64,0,4,,,,,3,,,53,0
42752,note_on,,,,,64,0,4,,,,,3,,,51,90
42752,note_on,,,,,0,0,2,,,,,1,,,70,93
42752,note_on,,,,,0,0,3,,,,,2,,,68,90
42752,note_off,,,,,128,0,2,,,,,1,,,70,0
42752,note_off,,,,,128,0,3,,,,,2,,,68,0
42816,note_off,,,,,64,0,4,,,,,3,,,51,0
42880,note_on,,,,,0,0,3,,,,,2,,,68,90
42880,note_on,,,,,64,0,4,,,,,3,,,50,90
42880,note_off,,,,,128,0,2,,,,,1,,,70,0
42880,note_on,,,,,0,0,2,,,,,1,,,70,93
42880,note_off,,,,,128,0,3,,,,,2,,,68,0
42944,note_off,,,,,64,0,4,,,,,3,,,50,0
43008,note_on,,,,,0,0,3,,,,,2,,,67,90
43008,note_off,,,,,128,0,3,,,,,2,,,68,0
43008,note_on,,,,,64,0,4,,,,,3,,,51,90
43008,note_on,,,,,0,0,2,,,,,1,,,70,93
43008,note_off,,,,,128,0,2,,,,,1,,,70,0
43136,note_off,,,,,128,0,2,,,,,1,,,70,0
43136,note_off,,,,,128,0,3,,,,,2,,,67,0
43136,note_on,,,,,0,0,3,,,,,2,,,67,90
43136,note_on,,,,,0,0,2,,,,,1,,,70,93
43200,note_off,,,,,192,0,4,,,,,3,,,51,0
43264,note_on,,,,,0,0,2,,,,,1,,,70,93
43264,note_off,,,,,128,0,3,,,,,2,,,67,0
43264,note_on,,,,,0,0,3,,,,,2,,,67,90
43264,note_off,,,,,128,0,2,,,,,1,,,70,0
43392,note_off,,,,,128,0,2,,,,,1,,,70,0
43392,note_on,,,,,0,0,2,,,,,1,,,70,93
43392,note_on,,,,,0,0,3,,,,,2,,,67,90
43392,note_off,,,,,128,0,3,,,,,2,,,67,0
43392,note_on,,,,,192,0,4,,,,,3,,,55,90
43520,note_on,,,,,0,0,2,,,,,1,,,70,93
43520,note_off,,,,,128,0,2,,,,,1,,,70,0
43520,note_off,,,,,128,0,3,,,,,2,,,67,0
43520,note_on,,,,,0,0,3,,,,,2,,,67,90
43584,note_off,,,,,192,0,4,,,,,3,,,55,0
43648,note_off,,,,,128,0,3,,,,,2,,,67,0
43648,note_on,,,,,0,0,3,,,,,2,,,67,90
43648,note_off,,,,,128,0,2,,,,,1,,,70,0
43648,note_on,,,,,0,0,2,,,,,1,,,70,93
43776,note_on,,,,,192,0,4,,,,,3,,,58,90
43776,note_off,,,,,128,0,2,,,,,1,,,70,0
43776,note_off,,,,,128,0,3,,,,,2,,,67,0
43776,note_on,,,,,0,0,3,,,,,2,,,67,90
43776,note_on,,,,,0,0,2,,,,,1,,,70,93
43904,note_on,,,,,0,0,2,,,,,1,,,70,93
43904,note_on,,,,,0,0,3,,,,,2,,,67,90
43904,note_off,,,,,128,0,3,,,,,2,,,67,0
43904,note_off,,,,,128,0,2,,,,,1,,,70,0
43968,note_off,,,,,192,0,4,,,,,3,,,58,0
44032,note_off,,,,,128,0,2,,,,,1,,,70,0
44032,note_off,,,,,128,0,3,,,,,2,,,67,0
44032,note_on,,,,,0,0,2,,,,,1,,,70,93
44032,note_on,,,,,0,0,3,,,,,2,,,67,90
44064,note_on,,,,,1632,0,1,,,,,0,,,77,109
44160,note_off,,,,,128,0,3,,,,,2,,,67,0
44160,note_on,,,,,0,0,2,,,,,1,,,70,93
44160,note_off,,,,,128,0,2,,,,,1,,,70,0
44160,note_off,,,,,96,0,1,,,,,0,,,77,0
44160,note_on,,,,,0,0,1,,,,,0,,,76,109
44160,note_on,,,,,0,0,3,,,,,2,,,67,90
44288,note_on,,,,,0,0,3,,,,,2,,,67,90
44288,note_on,,,,,0,0,2,,,,,1,,,70,93
44288,note_off,,,,,128,0,2,,,,,1,,,70,0
44288,note_off,,,,,128,0,1,,,,,0,,,76,0
44288,note_on,,,,,0,0,1,,,,,0,,,74,109
44288,note_off,,,,,128,0,3,,,,,2,,,67,0
44416,note_on,,,,,0,0,3,,,,,2,,,67,90
44416,note_off,,,,,128,0,3,,,,,2,,,67,0
44416,note_on,,,,,0,0,2,,,,,1,,,70,93
44416,note_off,,,,,128,0,2,,,,,1,,,70,0
44416,note_on,,,,,0,0,1,,,,,0,,,76,109
44416,note_off,,,,,128,0,1,,,,,0,,,74,0
44544,note_on,,,,,0,0,1,,,,,0,,,77,109
44544,note_off,,,,,128,0,3,,,,,2,,,67,0
44544,note_off,,,,,128,0,1,,,,,0,,,76,0
44544,note_off,,,,,128,0,2,,,,,1,,,70,0
44544,note_on,,,,,0,0,3,,,,,2,,,68,90
44544,note_on,,,,,0,0,2,,,,,1,,,70,93
44672,note_on,,,,,0,0,3,,,,,2,,,68,90
44672,note_on,,,,,0,0,2,,,,,1,,,70,93
44672,note_off,,,,,128,0,3,,,,,2,,,68,0
44672,note_off,,,,,128,0,2,,,,,1,,,70,0
44736,note_off,,,,,192,0,1,,,,,0,,,77,0
44800,note_off,,,,,128,0,2,,,,,1,,,70,0
44800,note_on,,,,,0,0,2,,,,,1,,,70,93
44800,note_off,,,,,128,0,3,,,,,2,,,68,0
44800,note_on,,,,,0,0,3,,,,,2,,,68,90
44928,note_on,,,,,192,0,1,,,,,0,,,74,109
44928,note_off,,,,,128,0,3,,,,,2,,,68,0
44928,note_on,,,,,0,0,3,,,,,2,,,68,90
44928,note_on,,,,,0,0,2,,,,,1,,,70,93
44928,note_off,,,,,128,0,2,,,,,1,,,70,0
45056,note_on,,,,,0,0,3,,,,,2,,,68,90
45056,note_off,,,,,128,0,3,,,,,2,,,68,0
45056,note_on,,,,,0,0,2,,,,,1,,,70,93
45056,note_off,,,,,128,0,2,,,,,1,,,70,0
45120,note_off,,,,,192,0,1,,,,,0,,,74,0
45184,note_on,,,,,0,0,2,,,,,1,,,70,93
45184,note_off,,,,,128,0,3,,,,,2,,,68,0
45184,note_off,,,,,128,0,2,,,,,1,,,70,0
45184,note_on,,,,,0,0,3,,,,,2,,,68,90
45312,note_on,,,,,0,0,3,,,,,2,,,68,90
45312,note_off,,,,,128,0,3,,,,,2,,,68,0
45312,note_on,,,,,0,0,2,,,,,1,,,70,93
45312,note_on,,,,,192,0,1,,,,,0,,,70,109
45312,note_off,,,,,128,0,2,,,,,1,,,70,0
45440,note_on,,,,,0,0,3,,,,,2,,,68,90
45440,note_on,,,,,0,0,2,,,,,1,,,70,93
45440,note_off,,,,,128,0,2,,,,,1,,,70,0
45440,note_off,,,,,128,0,3,,,,,2,,,68,0
45504,note_off,,,,,192,0,1,,,,,0,,,70,0
45568,note_on,,,,,0,0,3,,,,,2,,,68,90
45568,note_on,,,,,0,0,2,,,,,1,,,70,93
45568,note_off,,,,,128,0,2,,,,,1,,,70,0
45568,note_off,,,,,128,0,3,,,,,2,,,68,0
45600,note_on,,,,,1632,0,4,,,,,3,,,55,90
45696,note_on,,,,,0,0,4,,,,,3,,,53,90
45696,note_on,,,,,0,0,3,,,,,2,,,68,90
45696,note_off,,,,,128,0,3,,,,,2,,,68,0
45696,note_off,,,,,128,0,2,,,,,1,,,70,0
45696,note_on,,,,,0,0,2,,,,,1,,,70,93
45696,note_off,,,,,96,0,4,,,,,3,,,55,0
45760,note_off,,,,,64,0,4,,,,,3,,,53,0
45824,note_off,,,,,128,0,3,,,,,2,,,68,0
45824,note_on,,,,,0,0,3,,,,,2,,,68,90
45824,note_off,,,,,128,0,2,,,,,1,,,70,0
45824,note_on,,,,,64,0,4,,,,,3,,,51,90
45824,note_on,,,,,0,0,2,,,,,1,,,70,93
45888,note_off,,,,,64,0,4,,,,,3,,,51,0
45952,note_off,,,,,128,0,3,,,,,2,,,68,0
45952,note_on,,,,,0,0,3,,,,,2,,,68,90
45952,note_on,,,,,0,0,2,,,,,1,,,70,93
45952,note_on,,,,,64,0,4,,,,,3,,,50,90
45952,note_off,,,,,128,0,2,,,,,1,,,70,0
46016,note_off,,,,,64,0,4,,,,,3,,,50,0
46080,note_on,,,,,64,0,4,,,,,3,,,51,90
46080,note_off,,,,,128,0,3,,,,,2,,,68,0
46080,note_on,,,,,0,0,3,,,,,2,,,67,90
46080,note_off,,,,,128,0,2,,,,,1,,,70,0
46080,note_on,,,,,0,0,2,,,,,1,,,70,93
46208,note_on,,,,,0,0,2,,,,,1,,,70,93
46208,note_off,,,,,128,0,2,,,,,1,,,70,0
46208,note_off,,,,,128,0,3,,,,,2,,,67,0
46208,note_on,,,,,0,0,3,,,,,2,,,67,90
46272,note_off,,,,,192,0,4,,,,,3,,,51,0
46336,note_off,,,,,128,0,2,,,,,1,,,70,0
46336,note_off,,,,,128,0,3,,,,,2,,,67,0
46336,note_on,,,,,0,0,3,,,,,2,,,67,90
46336,note_on,,,,,0,0,2,,,,,1,,,70,93
46464,note_on,,,,,0,0,2,,,,,1,,,70,93
46464,note_on,,,,,0,0,3,,,,,2,,,67,90
46464,note_off,,,,,128,0,3,,,,,2,,,67,0
46464,note_off,,,,,128,0,2,,,,,1,,,70,0
46464,note_on,,,,,192,0,4,,,,,3,,,55,90
46592,note_on,,,,,0,0,3,,,,,2,,,67,90
46592,note_off,,,,,128,0,3,,,,,2,,,67,0
46592,note_off,,,,,128,0,2,,,,,1,,,70,0
46592,note_on,,,,,0,0,2,,,,,1,,,70,93
46656,note_off,,,,,192,0,4,,,,,3,,,55,0
46720,note_off,,,,,128,0,2,,,,,1,,,70,0
46720,note_on,,,,,0,0,2,,,,,1,,,70,93
46720,note_on,,,,,0,0,3,,,,,2,,,67,90
46720,note_off,,,,,128,0,3,,,,,2,,,67,0
46848,note_off,,,,,128,0,3,,,,,2,,,67,0
46848,note_on,,,,,192,0,4,,,,,3,,,58,90
46848,note_on,,,,,0,0,2,,,,,1,,,70,93
46848,note_off,,,,,128,0,2,,,,,1,,,70,0
46848,note_on,,,,,0,0,3,,,,,2,,,67,90
47040,note_off,,,,,192,0,4,,,,,3,,,58,0
47040,note_off,,,,,192,0,2,,,,,1,,,70,0
47040,note_off,,,,,192,0,3,,,,,2,,,67,0
47136,note_on,,,,,1632,0,1,,,,,0,,,80,109
47136,note_on,,,,,96,0,3,,,,,2,,,68,90
47136,note_on,,,,,96,0,2,,,,,1,,,80,93
47136,note_on,,,,,96,0,4,,,,,3,,,56,90
47232,note_off,,,,,96,0,1,,,,,0,,,80,0
47232,note_on,,,,,0,0,1,,,,,0,,,79,109
47232,note_off,,,,,96,0,4,,,,,3,,,56,0
47232,note_on,,,,,0,0,4,,,,,3,,,55,90
47232,note_off,,,,,96,0,3,,,,,2,,,68,0
47232,note_on,,,,,0,0,3,,,,,2,,,67,90
47232,note_on,,,,,0,0,2,,,,,1,,,79,93
47232,note_off,,,,,96,0,2,,,,,1,,,80,0
47360,note_off,,,,,128,0,3,,,,,2,,,67,0
47360,note_on,,,,,0,0,2,,,,,1,,,78,93
47360,note_on,,,,,0,0,3,,,,,2,,,66,90
47360,note_on,,,,,0,0,1,,,,,0,,,78,109
47360,note_off,,,,,128,0,1,,,,,0,,,79,0
47360,note_off,,,,,128,0,2,,,,,1,,,79,0
47360,note_off,,,,,128,0,4,,,,,3,,,55,0
47360,note_on,,,,,0,0,4,,,,,3,,,54,90
47488,note_off,,,,,128,0,3,,,,,2,,,66,0
47488,note_off,,,,,128,0,1,,,,,0,,,78,0
47488,note_on,,,,,0,0,1,,,,,0,,,79,109
47488,note_on,,,,,0,0,2,,,,,1,,,79,93
47488,note_on,,,,,0,0,3,,,,,2,,,67,90
47488,note_off,,,,,128,0,4,,,,,3,,,54,0
47488,note_off,,,,,128,0,2,,,,,1,,,78,0
47488,note_on,,,,,0,0,4,,,,,3,,,55,90
47616,note_off,,,,,128,0,4,,,,,3,,,55,0
47616,note_on,,,,,0,0,1,,,,,0,,,75,109
47616,note_off,,,,,128,0,1,,,,,0,,,79,0
47616,note_off,,,,,128,0,2,,,,,1,,,79,0
47616,note_on,,,,,0,0,2,,,,,1,,,75,93
47616,note_on,,,,,0,0,3,,,,,2,,,63,90
47616,note_off,,,,,128,0,3,,,,,2,,,67,0
47616,note_on,,,,,0,0,4,,,,,3,,,63,90
47808,note_off,,,,,192,0,2,,,,,1,,,75,0
47808,note_off,,,,,192,0,1,,,,,0,,,75,0
47808,note_off,,,,,192,0,4,,,,,3,,,63,0
47808,note_off,,,,,192,0,3,,,,,2,,,63,0
48000,note_on,,,,,192,0,3,,,,,2,,,60,90
48000,note_on,,,,,192,0,4,,,,,3,,,60,90
48000,note_on,,,,,192,0,2,,,,,1,,,72,93
48000,note_on,,,,,192,0,1,,,,,0,,,72,109
48192,note_off,,,,,192,0,4,,,,,3,,,60,0
48192,note_off,,,,,192,0,1,,,,,0,,,72,0
48192,note_off,,,,,192,0,3,,,,,2,,,60,0
48192,note_off,,,,,192,0,2,,,,,1,,,72,0
48384,note_on,,,,,192,0,4,,,,,3,,,55,90
48384,note_on,,,,,192,0,3,,,,,2,,,55,90
48384,note_on,,,,,192,0,2,,,,,1,,,67,93
48384,note_on,,,,,192,0,1,,,,,0,,,67,109
48576,note_off,,,,,192,0,2,,,,,1,,,67,0
48576,note_off,,,,,192,0,4,,,,,3,,,55,0
48576,note_off,,,,,192,0,3,,,,,2,,,55,0
48576,note_off,,,,,192,0,1,,,,,0,,,67,0
48768,note_on,,,,,192,0,4,,,,,3,,,51,90
48768,note_on,,,,,192,0,2,,,,,1,,,63,93
48768,note_on,,,,,192,0,3,,,,,2,,,51,90
48768,note_on,,,,,192,0,1,,,,,0,,,63,109
48960,note_off,,,,,192,0,1,,,,,0,,,63,0
48960,note_off,,,,,192,0,2,,,,,1,,,63,0
48960,note_on,,,,,0,0,3,,,,,2,,,48,90
48960,note_off,,,,,192,0,4,,,,,3,,,51,0
48960,note_on,,,,,0,0,4,,,,,3,,,48,90
48960,note_on,,,,,0,0,2,,,,,1,,,60,93
48960,note_off,,,,,192,0,3,,,,,2,,,51,0
48960,note_on,,,,,0,0,1,,,,,0,,,60,109
49152,note_on,,,,,0,0,1,,,,,0,,,57,109
49152,note_off,,,,,192,0,2,,,,,1,,,60,0
49152,note_on,,,,,0,0,2,,,,,1,,,57,93
49152,note_off,,,,,192,0,3,,,,,2,,,48,0
49152,note_on,,,,,0,0,3,,,,,2,,,53,90
49152,note_off,,,,,192,0,4,,,,,3,,,48,0
49152,note_on,,,,,0,0,4,,,,,3,,,53,90
49152,note_off,,,,,192,0,1,,,,,0,,,60,0
49280,note_on,,,,,0,0,3,,,,,2,,,53,90
49280,note_off,,,,,128,0,3,,,,,2,,,53,0
49408,note_on,,,,,0,0,3,,,,,2,,,53,90
49408,note_off,,,,,128,0,3,,,,,2,,,53,0
49536,note_off,,,,,128,0,3,,,,,2,,,53,0
49536,note_on,,,,,0,0,3,,,,,2,,,53,90
49664,note_off,,,,,128,0,3,,,,,2,,,53,0
49664,note_on,,,,,0,0,3,,,,,2,,,53,90
49792,note_on,,,,,0,0,3,,,,,2,,,53,90
49792,note_off,,,,,128,0,3,,,,,2,,,53,0
49920,note_off,,,,,768,0,2,,,,,1,,,57,0
49920,note_off,,,,,768,0,1,,,,,0,,,57,0
49920,note_on,,,,,0,0,3,,,,,2,,,53,90
49920,note_off,,,,,128,0,3,,,,,2,,,53,0
49920,note_off,,,,,768,0,4,,,,,3,,,53,0
50048,note_on,,,,,0,0,3,,,,,2,,,53,90
50048,note_off,,,,,128,0,3,,,,,2,,,53,0
50176,note_off,,,,,128,0,3,,,,,2,,,53,0
50176,note_on,,,,,0,0,3,,,,,2,,,53,90
50208,note_on,,,,,288,0,1,,,,,0,,,75,109
50304,note_on,,,,,0,0,1,,,,,0,,,74,109
50304,note_off,,,,,128,0,3,,,,,2,,,53,0
50304,note_on,,,,,0,0,3,,,,,2,,,53,90
50304,note_off,,,,,96,0,1,,,,,0,,,75,0
50304,note_on,,,,,384,0,2,,,,,1,,,71,93
50432,note_off,,,,,128,0,3,,,,,2,,,53,0
50432,note_on,,,,,0,0,1,,,,,0,,,72,109
50432,note_off,,,,,128,0,1,,,,,0,,,74,0
50432,note_on,,,,,0,0,2,,,,,1,,,69,93
50432,note_off,,,,,128,0,2,,,,,1,,,71,0
50432,note_on,,,,,0,0,3,,,,,2,,,53,90
50560,note_on,,,,,0,0,2,,,,,1,,,71,93
50560,note_off,,,,,128,0,3,,,,,2,,,53,0
50560,note_off,,,,,128,0,1,,,,,0,,,72,0
50560,note_off,,,,,128,0,2,,,,,1,,,69,0
50560,note_on,,,,,0,0,3,,,,,2,,,53,90
50560,note_on,,,,,0,0,1,,,,,0,,,74,109
50688,note_on,,,,,0,0,1,,,,,0,,,75,109
50688,note_off,,,,,128,0,1,,,,,0,,,74,0
50688,note_on,,,,,0,0,3,,,,,2,,,53,90
50688,note_off,,,,,128,0,2,,,,,1,,,71,0
50688,note_off,,,,,128,0,3,,,,,2,,,53,0
50688,note_on,,,,,0,0,2,,,,,1,,,72,93
50784,note_off,,,,,96,0,1,,,,,0,,,75,0
50784,note_off,,,,,96,0,2,,,,,1,,,72,0
50816,note_off,,,,,128,0,3,,,,,2,,,53,0
50816,note_on,,,,,0,0,3,,,,,2,,,53,90
50944,note_on,,,,,0,0,3,,,,,2,,,53,90
50944,note_off,,,,,128,0,3,,,,,2,,,53,0
51072,note_on,,,,,0,0,3,,,,,2,,,53,90
51072,note_off,,,,,128,0,3,,,,,2,,,53,0
51072,note_on,,,,,288,0,1,,,,,0,,,79,109
51072,note_on,,,,,288,0,2,,,,,1,,,75,93
51168,note_off,,,,,96,0,1,,,,,0,,,79,0
51168,note_off,,,,,96,0,2,,,,,1,,,75,0
51200,note_on,,,,,0,0,3,,,,,2,,,53,90
51200,note_off,,,,,128,0,3,,,,,2,,,53,0
51328,note_off,,,,,128,0,3,,,,,2,,,53,0
51328,note_on,,,,,0,0,3,,,,,2,,,53,90
51456,note_on,,,,,288,0,2,,,,,1,,,69,93
51456,note_off,,,,,128,0,3,,,,,2,,,53,0
51456,note_on,,,,,0,0,3,,,,,2,,,53,90
51456,note_on,,,,,288,0,1,,,,,0,,,72,109
51584,note_off,,,,,128,0,3,,,,,2,,,53,0
51584,note_on,,,,,0,0,3,,,,,2,,,53,90
51712,note_off,,,,,128,0,3,,,,,2,,,53,0
51712,note_on,,,,,0,0,3,,,,,2,,,53,90
51840,note_off,,,,,128,0,3,,,,,2,,,53,0
51840,note_on,,,,,0,0,3,,,,,2,,,53,90
51840,note_off,,,,,384,0,1,,,,,0,,,72,0
51840,note_off,,,,,384,0,2,,,,,1,,,69,0
51968,note_off,,,,,128,0,3,,,,,2,,,53,0
51968,note_on,,,,,0,0,3,,,,,2,,,53,90
52096,note_on,,,,,0,0,3,,,,,2,,,53,90
52096,note_off,,,,,128,0,3,,,,,2,,,53,0
52224,note_off,,,,,128,0,3,,,,,2,,,53,0
52224,note_on,,,,,0,0,3,,,,,2,,,53,90
52224,note_on,,,,,2304,0,4,,,,,3,,,53,90
52224,note_on,,,,,384,0,1,,,,,0,,,65,109
52224,note_on,,,,,0,0,1,,,,,0,,,57,109
52224,note_on,,,,,384,0,2,,,,,1,,,65,93
52224,note_on,,,,,0,0,2,,,,,1,,,57,93
52352,note_off,,,,,128,0,3,,,,,2,,,53,0
52352,note_on,,,,,0,0,3,,,,,2,,,53,90
52480,note_on,,,,,0,0,3,,,,,2,,,53,90
52480,note_off,,,,,128,0,3,,,,,2,,,53,0
52608,note_off,,,,,128,0,3,,,,,2,,,53,0
52608,note_on,,,,,0,0,3,,,,,2,,,53,90
52736,note_off,,,,,128,0,3,,,,,2,,,53,0
52736,note_on,,,,,0,0,3,,,,,2,,,53,90
52864,note_off,,,,,128,0,3,,,,,2,,,53,0
52864,note_on,,,,,0,0,3,,,,,2,,,53,90
52992,note_off,,,,,768,0,4,,,,,3,,,53,0
52992,note_off,,,,,128,0,3,,,,,2,,,53,0
52992,note_off,,,,,768,0,2,,,,,1,,,65,0
52992,note_off,,,,,0,0,2,,,,,1,,,57,0
52992,note_on,,,,,0,0,3,,,,,2,,,53,90
52992,note_off,,,,,0,0,1,,,,,0,,,57,0
52992,note_off,,,,,768,0,1,,,,,0,,,65,0
53120,note_off,,,,,128,0,3,,,,,2,,,53,0
53120,note_on,,,,,0,0,3,,,,,2,,,53,90
53248,note_off,,,,,128,0,3,,,,,2,,,53,0
53248,note_on,,,,,0,0,3,,,,,2,,,53,90
53280,note_on,,,,,288,0,1,,,,,0,,,75,109
53376,note_off,,,,,128,0,3,,,,,2,,,53,0
53376,note_on,,,,,0,0,3,,,,,2,,,53,90
53376,note_on,,,,,0,0,1,,,,,0,,,74,109
53376,note_on,,,,,384,0,2,,,,,1,,,71,93
53376,note_off,,,,,96,0,1,,,,,0,,,75,0
53504,note_off,,,,,128,0,3,,,,,2,,,53,0
53504,note_on,,,,,0,0,3,,,,,2,,,53,90
53504,note_on,,,,,0,0,2,,,,,1,,,69,93
53504,note_off,,,,,128,0,2,,,,,1,,,71,0
53504,note_on,,,,,0,0,1,,,,,0,,,72,109
53504,note_off,,,,,128,0,1,,,,,0,,,74,0
53632,note_off,,,,,128,0,2,,,,,1,,,69,0
53632,note_on,,,,,0,0,3,,,,,2,,,53,90
53632,note_on,,,,,0,0,1,,,,,0,,,74,109
53632,note_off,,,,,128,0,1,,,,,0,,,72,0
53632,note_off,,,,,128,0,3,,,,,2,,,53,0
53632,note_on,,,,,0,0,2,,,,,1,,,71,93
53760,note_on,,,,,0,0,3,,,,,2,,,53,90
53760,note_off,,,,,128,0,3,,,,,2,,,53,0
53760,note_off,,,,,128,0,1,,,,,0,,,74,0
53760,note_on,,,,,0,0,1,,,,,0,,,75,109
53760,note_on,,,,,0,0,2,,,,,1,,,72,93
53760,note_off,,,,,128,0,2,,,,,1,,,71,0
53856,note_off,,,,,96,0,2,,,,,1,,,72,0
53856,note_off,,,,,96,0,1,,,,,0,,,75,0
53888,note_off,,,,,128,0,3,,,,,2,,,53,0
53888,note_on,,,,,0,0,3,,,,,2,,,53,90
54016,note_off,,,,,128,0,3,,,,,2,,,53,0
54016,note_on,,,,,0,0,3,,,,,2,,,53,90
54144,note_on,,,,,288,0,1,,,,,0,,,79,109
54144,note_off,,,,,128,0,3,,,,,2,,,53,0
54144,note_on,,,,,0,0,3,,,,,2,,,53,90
54144,note_on,,,,,288,0,2,,,,,1,,,75,93
54240,note_off,,,,,96,0,1,,,,,0,,,79,0
54240,note_off,,,,,96,0,2,,,,,1,,,75,0
54272,note_off,,,,,128,0,3,,,,,2,,,53,0
54272,note_on,,,,,0,0,3,,,,,2,,,53,90
54400,note_off,,,,,128,0,3,,,,,2,,,53,0
54400,note_on,,,,,0,0,3,,,,,2,,,53,90
54528,note_off,,,,,128,0,3,,,,,2,,,53,0
54528,note_on,,,,,0,0,3,,,,,2,,,53,90
54528,note_on,,,,,288,0,1,,,,,0,,,72,109
54528,note_on,,,,,288,0,2,,,,,1,,,69,93
54656,note_off,,,,,128,0,3,,,,,2,,,53,0
54656,note_on,,,,,0,0,3,,,,,2,,,53,90
54784,note_off,,,,,128,0,3,,,,,2,,,53,0
54784,note_on,,,,,0,0,3,,,,,2,,,53,90
54912,note_off,,,,,128,0,3,,,,,2,,,53,0
54912,note_on,,,,,0,0,3,,,,,2,,,51,90
54912,note_off,,,,,384,0,1,,,,,0,,,72,0
54912,note_off,,,,,384,0,2,,,,,1,,,69,0
55040,note_off,,,,,128,0,3,,,,,2,,,51,0
55040,note_on,,,,,0,0,3,,,,,2,,,51,90
55168,note_on,,,,,0,0,3,,,,,2,,,51,90
55168,note_off,,,,,128,0,3,,,,,2,,,51,0
55296,note_on,,,,,0,0,2,,,,,1,,,65,93
55296,note_on,,,,,0,0,2,,,,,1,,,70,93
55296,note_on,,,,,2304,0,4,,,,,3,,,50,90
55296,note_on,,,,,384,0,2,,,,,1,,,58,93
55296,note_on,,,,,0,0,1,,,,,0,,,70,109
55296,note_on,,,,,0,0,3,,,,,2,,,50,90
55296,note_off,,,,,128,0,3,,,,,2,,,51,0
55296,note_on,,,,,384,0,1,,,,,0,,,77,109
56064,note_off,,,,,0,0,2,,,,,1,,,65,0
56064,note_on,,,,,0,0,2,,,,,1,,,75,93
56064,note_on,,,,,0,0,2,,,,,1,,,63,93
56064,note_on,,,,,0,0,2,,,,,1,,,55,93
56064,note_off,,,,,0,0,2,,,,,1,,,70,0
56064,note_off,,,,,768,0,2,,,,,1,,,58,0
56064,note_on,,,,,0,0,1,,,,,0,,,70,109
56064,note_off,,,,,0,0,1,,,,,0,,,70,0
56064,note_on,,,,,0,0,4,,,,,3,,,51,90
56064,note_off,,,,,768,0,1,,,,,0,,,77,0
56064,note_off,,,,,768,0,3,,,,,2,,,50,0
56064,note_on,,,,,0,0,3,,,,,2,,,51,90
56064,note_on,,,,,0,0,1,,,,,0,,,79,109
56064,note_off,,,,,768,0,4,,,,,3,,,50,0
56832,note_off,,,,,768,0,4,,,,,3,,,51,0
56832,note_off,,,,,0,0,2,,,,,1,,,63,0
56832,note_off,,,,,0,0,2,,,,,1,,,75,0
56832,note_off,,,,,0,0,1,,,,,0,,,70,0
56832,note_off,,,,,768,0,2,,,,,1,,,55,0
56832,note_off,,,,,768,0,3,,,,,2,,,51,0
56832,note_off,,,,,768,0,1,,,,,0,,,79,0
57216,note_on,,,,,384,0,1,,,,,0,,,79,109
57408,note_on,,,,,0,0,1,,,,,0,,,77,109
57408,note_off,,,,,192,0,1,,,,,0,,,79,0
57600,note_off,,,,,192,0,1,,,,,0,,,77,0
57600,note_on,,,,,0,0,1,,,,,0,,,77,109
57792,note_off,,,,,192,0,1,,,,,0,,,77,0
57792,note_on,,,,,0,0,1,,,,,0,,,75,109
57984,note_off,,,,,192,0,1,,,,,0,,,75,0
57984,note_on,,,,,0,0,1,,,,,0,,,74,109
58176,note_off,,,,,192,0,1,,,,,0,,,74,0
58176,note_on,,,,,0,0,1,,,,,0,,,72,109
58368,note_on,,,,,1536,0,2,,,,,1,,,65,93
58368,note_on,,,,,1536,0,4,,,,,3,,,53,90
58368,note_on,,,,,1536,0,3,,,,,2,,,62,90
58368,note_off,,,,,192,0,1,,,,,0,,,72,0
58368,note_on,,,,,0,0,1,,,,,0,,,70,109
59136,note_off,,,,,768,0,1,,,,,0,,,70,0
59136,note_on,,,,,0,0,2,,,,,1,,,69,93
59136,note_off,,,,,768,0,2,,,,,1,,,65,0
59136,note_off,,,,,768,0,3,,,,,2,,,62,0
59136,note_on,,,,,0,0,3,,,,,2,,,63,90
59136,note_on,,,,,0,0,1,,,,,0,,,74,109
59520,note_off,,,,,384,0,1,,,,,0,,,74,0
59520,note_on,,,,,0,0,1,,,,,0,,,72,109
59904,note_off,,,,,384,0,1,,,,,0,,,72,0
59904,note_on,,,,,0,0,1,,,,,0,,,70,109
59904,note_off,,,,,768,0,3,,,,,2,,,63,0
59904,note_on,,,,,0,0,3,,,,,2,,,62,90
59904,note_on,,,,,0,0,4,,,,,3,,,46,90
59904,note_on,,,,,0,0,2,,,,,1,,,70,93
59904,note_off,,,,,768,0,2,,,,,1,,,69,0
59904,note_off,,,,,1536,0,4,,,,,3,,,53,0
60288,note_on,,,,,0,0,3,,,,,2,,,62,90
60288,note_off,,,,,384,0,3,,,,,2,,,62,0
60288,note_off,,,,,384,0,4,,,,,3,,,46,0
60288,note_off,,,,,384,0,2,,,,,1,,,70,0
60288,note_on,,,,,0,0,2,,,,,1,,,65,93
60288,note_off,,,,,384,0,1,,,,,0,,,70,0
60672,note_off,,,,,384,0,2,,,,,1,,,65,0
60672,note_on,,,,,0,0,2,,,,,1,,,64,93
60672,note_on,,,,,0,0,3,,,,,2,,,61,90
60672,note_off,,,,,384,0,3,,,,,2,,,62,0
60960,note_on,,,,,672,0,1,,,,,0,,,79,109
61056,note_on,,,,,0,0,3,,,,,2,,,60,90
61056,note_off,,,,,384,0,3,,,,,2,,,61,0
61056,note_off,,,,,384,0,2,,,,,1,,,64,0
61056,note_on,,,,,0,0,2,,,,,1,,,63,93
61056,note_on,,,,,0,0,1,,,,,0,,,77,109
61056,note_off,,,,,96,0,1,,,,,0,,,79,0
61184,note_on,,,,,0,0,1,,,,,0,,,76,109
61184,note_off,,,,,128,0,1,,,,,0,,,77,0
61312,note_off,,,,,128,0,1,,,,,0,,,76,0
61312,note_on,,,,,0,0,1,,,,,0,,,77,109
61440,note_off,,,,,384,0,2,,,,,1,,,63,0
61440,note_on,,,,,0,0,2,,,,,1,,,62,93
61440,note_on,,,,,61440,0,5,,,,,4,,,46,90
61440,note_on,,,,,0,0,1,,,,,0,,,74,109
61440,note_off,,,,,128,0,1,,,,,0,,,77,0
61440,note_off,,,,,384,0,3,,,,,2,,,60,0
61440,note_on,,,,,0,0,3,,,,,2,,,58,90
61824,note_off,,,,,384,0,5,,,,,4,,,46,0
61824,note_off,,,,,384,0,3,,,,,2,,,58,0
61824,note_off,,,,,384,0,2,,,,,1,,,62,0
61824,note_on,,,,,0,0,3,,,,,2,,,58,90
61824,note_on,,,,,0,0,2,,,,,1,,,62,93
61920,note_off,,,,,96,0,2,,,,,1,,,62,0
61920,note_off,,,,,96,0,3,,,,,2,,,58,0
62016,note_on,,,,,96,0,3,,,,,2,,,58,90
62016,note_on,,,,,96,0,2,,,,,1,,,62,93
62112,note_off,,,,,96,0,3,,,,,2,,,58,0
62112,note_off,,,,,96,0,2,,,,,1,,,62,0
62208,note_on,,,,,0,0,1,,,,,0,,,77,109
62208,note_off,,,,,768,0,1,,,,,0,,,74,0
62208,note_on,,,,,96,0,3,,,,,2,,,62,90
62208,note_on,,,,,96,0,2,,,,,1,,,65,93
62304,note_off,,,,,96,0,2,,,,,1,,,65,0
62304,note_off,,,,,96,0,3,,,,,2,,,62,0
62400,note_on,,,,,96,0,2,,,,,1,,,65,93
62400,note_on,,,,,96,0,3,,,,,2,,,62,90
62496,note_off,,,,,96,0,3,,,,,2,,,62,0
62496,note_off,,,,,96,0,2,,,,,1,,,65,0
62592,note_on,,,,,96,0,3,,,,,2,,,58,90
62592,note_on,,,,,96,0,2,,,,,1,,,62,93
62688,note_off,,,,,96,0,2,,,,,1,,,62,0
62688,note_off,,,,,96,0,3,,,,,2,,,58,0
62784,note_on,,,,,96,0,3,,,,,2,,,58,90
62784,note_on,,,,,96,0,2,,,,,1,,,62,93
62880,note_off,,,,,96,0,3,,,,,2,,,58,0
62880,note_off,,,,,96,0,2,,,,,1,,,62,0
62976,note_on,,,,,1152,0,5,,,,,4,,,46,90
62976,note_on,,,,,0,0,1,,,,,0,,,84,109
62976,note_off,,,,,768,0,1,,,,,0,,,77,0
63360,note_off,,,,,384,0,5,,,,,4,,,46,0
63360,note_off,,,,,384,0,1,,,,,0,,,84,0
63360,note_on,,,,,480,0,3,,,,,2,,,58,90
63360,note_on,,,,,0,0,1,,,,,0,,,82,109
63360,note_on,,,,,480,0,2,,,,,1,,,62,93
63456,note_off,,,,,96,0,3,,,,,2,,,58,0
63456,note_off,,,,,96,0,2,,,,,1,,,62,0
63552,note_off,,,,,192,0,1,,,,,0,,,82,0
63552,note_on,,,,,96,0,3,,,,,2,,,58,90
63552,note_on,,,,,96,0,2,,,,,1,,,62,93
63648,note_off,,,,,96,0,3,,,,,2,,,58,0
63648,note_off,,,,,96,0,2,,,,,1,,,62,0
63744,note_on,,,,,96,0,3,,,,,2,,,62,90
63744,note_on,,,,,96,0,2,,,,,1,,,65,93
63840,note_off,,,,,96,0,3,,,,,2,,,62,0
63840,note_off,,,,,96,0,2,,,,,1,,,65,0
63936,note_on,,,,,96,0,3,,,,,2,,,62,90
63936,note_on,,,,,96,0,2,,,,,1,,,65,93
64032,note_off,,,,,96,0,2,,,,,1,,,65,0
64032,note_on,,,,,480,0,1,,,,,0,,,75,109
64032,note_off,,,,,96,0,3,,,,,2,,,62,0
64128,note_on,,,,,0,0,1,,,,,0,,,74,109
64128,note_off,,,,,96,0,1,,,,,0,,,75,0
64128,note_on,,,,,96,0,3,,,,,2,,,58,90
64128,note_on,,,,,96,0,2,,,,,1,,,62,93
64224,note_off,,,,,96,0,3,,,,,2,,,58,0
64224,note_off,,,,,96,0,2,,,,,1,,,62,0
64256,note_on,,,,,0,0,1,,,,,0,,,72,109
64256,note_off,,,,,128,0,1,,,,,0,,,74,0
64320,note_on,,,,,96,0,3,,,,,2,,,58,90
64320,note_on,,,,,96,0,2,,,,,1,,,62,93
64384,note_on,,,,,0,0,1,,,,,0,,,74,109
64384,note_off,,,,,128,0,1,,,,,0,,,72,0
64416,note_off,,,,,96,0,3,,,,,2,,,58,0
64416,note_off,,,,,96,0,2,,,,,1,,,62,0
64512,note_on,,,,,0,0,1,,,,,0,,,72,109
64512,note_on,,,,,1152,0,5,,,,,4,,,51,90
64512,note_off,,,,,128,0,1,,,,,0,,,74,0
64896,note_off,,,,,384,0,5,,,,,4,,,51,0
64896,note_on,,,,,480,0,2,,,,,1,,,63,93
64896,note_on,,,,,480,0,3,,,,,2,,,67,90
64992,note_off,,,,,96,0,2,,,,,1,,,63,0
64992,note_off,,,,,96,0,3,,,,,2,,,67,0
65088,note_on,,,,,96,0,3,,,,,2,,,67,90
65088,note_on,,,,,96,0,2,,,,,1,,,63,93
65184,note_off,,,,,96,0,2,,,,,1,,,63,0
65184,note_off,,,,,96,0,3,,,,,2,,,67,0
65280,note_on,,,,,96,0,3,,,,,2,,,63,90
65280,note_on,,,,,0,0,1,,,,,0,,,75,109
65280,note_off,,,,,768,0,1,,,,,0,,,72,0
65280,note_on,,,,,96,0,2,,,,,1,,,67,93
65376,note_off,,,,,96,0,3,,,,,2,,,63,0
65376,note_off,,,,,96,0,2,,,,,1,,,67,0
65472,note_on,,,,,96,0,3,,,,,2,,,63,90
65472,note_on,,,,,96,0,2,,,,,1,,,67,93
65568,note_off,,,,,96,0,2,,,,,1,,,67,0
65568,note_off,,,,,96,0,3,,,,,2,,,63,0
65664,note_on,,,,,96,0,2,,,,,1,,,63,93
65664,note_on,,,,,96,0,3,,,,,2,,,60,90
65760,note_off,,,,,96,0,2,,,,,1,,,63,0
65760,note_off,,,,,96,0,3,,,,,2,,,60,0
65856,note_on,,,,,96,0,3,,,,,2,,,60,90
65856,note_on,,,,,96,0,2,,,,,1,,,63,93
65952,note_off,,,,,96,0,2,,,,,1,,,63,0
65952,note_off,,,,,96,0,3,,,,,2,,,60,0
66048,note_off,,,,,768,0,1,,,,,0,,,75,0
66048,note_on,,,,,1152,0,5,,,,,4,,,51,90
66048,note_on,,,,,0,0,1,,,,,0,,,81,109
66432,note_off,,,,,384,0,1,,,,,0,,,81,0
66432,note_off,,,,,384,0,5,,,,,4,,,51,0
66432,note_on,,,,,480,0,3,,,,,2,,,60,90
66432,note_on,,,,,480,0,2,,,,,1,,,63,93
66432,note_on,,,,,0,0,1,,,,,0,,,79,109
66528,note_off,,,,,96,0,3,,,,,2,,,60,0
66528,note_off,,,,,96,0,2,,,,,1,,,63,0
66624,note_off,,,,,192,0,1,,,,,0,,,79,0
66624,note_on,,,,,96,0,2,,,,,1,,,63,93
66624,note_on,,,,,96,0,3,,,,,2,,,60,90
66720,note_off,,,,,96,0,2,,,,,1,,,63,0
66720,note_off,,,,,96,0,3,,,,,2,,,60,0
66816,note_on,,,,,96,0,3,,,,,2,,,63,90
66816,note_on,,,,,96,0,2,,,,,1,,,67,93
66912,note_off,,,,,96,0,3,,,,,2,,,63,0
66912,note_off,,,,,96,0,2,,,,,1,,,67,0
67008,note_on,,,,,96,0,2,,,,,1,,,67,93
67008,note_on,,,,,96,0,3,,,,,2,,,63,90
67104,note_off,,,,,96,0,2,,,,,1,,,67,0
67104,note_on,,,,,480,0,1,,,,,0,,,74,109
67104,note_off,,,,,96,0,3,,,,,2,,,63,0
67200,note_off,,,,,96,0,1,,,,,0,,,74,0
67200,note_on,,,,,0,0,1,,,,,0,,,72,109
67200,note_on,,,,,96,0,3,,,,,2,,,67,90
67200,note_on,,,,,96,0,2,,,,,1,,,63,93
67296,note_off,,,,,96,0,3,,,,,2,,,67,0
67296,note_off,,,,,96,0,2,,,,,1,,,63,0
67328,note_off,,,,,128,0,1,,,,,0,,,72,0
67328,note_on,,,,,0,0,1,,,,,0,,,71,109
67392,note_on,,,,,96,0,3,,,,,2,,,67,90
67392,note_on,,,,,96,0,2,,,,,1,,,63,93
67456,note_off,,,,,128,0,1,,,,,0,,,71,0
67456,note_on,,,,,0,0,1,,,,,0,,,72,109
67488,note_off,,,,,96,0,3,,,,,2,,,67,0
67488,note_off,,,,,96,0,2,,,,,1,,,63,0
67584,note_on,,,,,0,0,1,,,,,0,,,69,109
67584,note_on,,,,,1152,0,5,,,,,4,,,53,90
67584,note_off,,,,,128,0,1,,,,,0,,,72,0
67968,note_on,,,,,480,0,2,,,,,1,,,60,93
67968,note_off,,,,,384,0,5,,,,,4,,,53,0
67968,note_on,,,,,480,0,3,,,,,2,,,65,90
68064,note_off,,,,,96,0,3,,,,,2,,,65,0
68064,note_off,,,,,96,0,2,,,,,1,,,60,0
68160,note_on,,,,,96,0,3,,,,,2,,,65,90
68160,note_on,,,,,96,0,2,,,,,1,,,60,93
68256,note_off,,,,,96,0,3,,,,,2,,,65,0
68256,note_off,,,,,96,0,2,,,,,1,,,60,0
68352,note_on,,,,,96,0,3,,,,,2,,,60,90
68352,note_on,,,,,0,0,1,,,,,0,,,72,109
68352,note_on,,,,,96,0,2,,,,,1,,,65,93
68352,note_off,,,,,768,0,1,,,,,0,,,69,0
68448,note_off,,,,,96,0,3,,,,,2,,,60,0
68448,note_off,,,,,96,0,2,,,,,1,,,65,0
68544,note_on,,,,,96,0,3,,,,,2,,,60,90
68544,note_on,,,,,96,0,2,,,,,1,,,65,93
68640,note_off,,,,,96,0,2,,,,,1,,,65,0
68640,note_off,,,,,96,0,3,,,,,2,,,60,0
68736,note_on,,,,,96,0,3,,,,,2,,,57,90
68736,note_on,,,,,96,0,2,,,,,1,,,60,93
68832,note_off,,,,,96,0,3,,,,,2,,,57,0
68832,note_off,,,,,96,0,2,,,,,1,,,60,0
68928,note_on,,,,,96,0,3,,,,,2,,,57,90
68928,note_on,,,,,96,0,2,,,,,1,,,60,93
69024,note_off,,,,,96,0,2,,,,,1,,,60,0
69024,note_off,,,,,96,0,3,,,,,2,,,57,0
69120,note_on,,,,,0,0,1,,,,,0,,,79,109
69120,note_on,,,,,1152,0,5,,,,,4,,,41,90
69120,note_off,,,,,768,0,1,,,,,0,,,72,0
69504,note_on,,,,,480,0,3,,,,,2,,,57,90
69504,note_off,,,,,384,0,5,,,,,4,,,41,0
69504,note_on,,,,,480,0,2,,,,,1,,,60,93
69504,note_on,,,,,0,0,1,,,,,0,,,77,109
69504,note_off,,,,,384,0,1,,,,,0,,,79,0
69600,note_off,,,,,96,0,2,,,,,1,,,60,0
69600,note_off,,,,,96,0,3,,,,,2,,,57,0
69696,note_on,,,,,96,0,2,,,,,1,,,60,93
69696,note_on,,,,,96,0,3,,,,,2,,,57,90
69696,note_off,,,,,192,0,1,,,,,0,,,77,0
69792,note_off,,,,,96,0,2,,,,,1,,,60,0
69792,note_off,,,,,96,0,3,,,,,2,,,57,0
69888,note_on,,,,,96,0,3,,,,,2,,,60,90
69888,note_on,,,,,96,0,2,,,,,1,,,65,93
69984,note_off,,,,,96,0,2,,,,,1,,,65,0
69984,note_off,,,,,96,0,3,,,,,2,,,60,0
70080,note_on,,,,,96,0,2,,,,,1,,,65,93
70080,note_on,,,,,96,0,3,,,,,2,,,60,90
70176,note_off,,,,,96,0,2,,,,,1,,,65,0
70176,note_on,,,,,480,0,1,,,,,0,,,79,109
70176,note_off,,,,,96,0,3,,,,,2,,,60,0
70272,note_on,,,,,0,0,1,,,,,0,,,77,109
70272,note_on,,,,,96,0,3,,,,,2,,,57,90
70272,note_off,,,,,96,0,1,,,,,0,,,79,0
70272,note_on,,,,,96,0,2,,,,,1,,,60,93
70368,note_off,,,,,96,0,3,,,,,2,,,57,0
70368,note_off,,,,,96,0,2,,,,,1,,,60,0
70400,note_on,,,,,0,0,1,,,,,0,,,76,109
70400,note_off,,,,,128,0,1,,,,,0,,,77,0
70464,note_on,,,,,96,0,3,,,,,2,,,57,90
70464,note_on,,,,,96,0,2,,,,,1,,,60,93
70528,note_off,,,,,128,0,1,,,,,0,,,76,0
70528,note_on,,,,,0,0,1,,,,,0,,,77,109
70560,note_off,,,,,96,0,2,,,,,1,,,60,0
70560,note_off,,,,,96,0,3,,,,,2,,,57,0
70656,note_on,,,,,0,0,1,,,,,0,,,74,109
70656,note_off,,,,,128,0,1,,,,,0,,,77,0
70656,note_on,,,,,1152,0,5,,,,,4,,,46,90
71040,note_off,,,,,384,0,5,,,,,4,,,46,0
71040,note_on,,,,,480,0,3,,,,,2,,,53,90
71040,note_on,,,,,480,0,2,,,,,1,,,58,93
71136,note_off,,,,,96,0,2,,,,,1,,,58,0
71136,note_off,,,,,96,0,3,,,,,2,,,53,0
71232,note_on,,,,,96,0,3,,,,,2,,,53,90
71232,note_on,,,,,96,0,2,,,,,1,,,58,93
71328,note_off,,,,,96,0,2,,,,,1,,,58,0
71328,note_off,,,,,96,0,3,,,,,2,,,53,0
71424,note_off,,,,,768,0,1,,,,,0,,,74,0
71424,note_on,,,,,384,0,5,,,,,4,,,53,90
71424,note_on,,,,,0,0,1,,,,,0,,,77,109
71808,note_on,,,,,480,0,3,,,,,2,,,57,90
71808,note_off,,,,,384,0,5,,,,,4,,,53,0
71808,note_on,,,,,480,0,2,,,,,1,,,60,93
71904,note_off,,,,,96,0,2,,,,,1,,,60,0
71904,note_off,,,,,96,0,3,,,,,2,,,57,0
72000,note_on,,,,,96,0,2,,,,,1,,,60,93
72000,note_on,,,,,96,0,3,,,,,2,,,57,90
72096,note_off,,,,,96,0,2,,,,,1,,,60,0
72096,note_off,,,,,96,0,3,,,,,2,,,57,0
72192,note_on,,,,,0,0,1,,,,,0,,,82,109
72192,note_off,,,,,768,0,1,,,,,0,,,77,0
72192,note_on,,,,,384,0,5,,,,,4,,,58,90
72192,note_on,,,,,96,0,2,,,,,1,,,62,93
72192,note_on,,,,,96,0,3,,,,,2,,,58,90
72288,note_off,,,,,96,0,2,,,,,1,,,62,0
72288,note_off,,,,,96,0,3,,,,,2,,,58,0
72384,note_off,,,,,192,0,1,,,,,0,,,82,0
72384,note_on,,,,,96,0,3,,,,,2,,,50,90
72384,note_on,,,,,96,0,2,,,,,1,,,58,93
72480,note_off,,,,,96,0,3,,,,,2,,,50,0
72480,note_off,,,,,96,0,2,,,,,1,,,58,0
72576,note_on,,,,,96,0,3,,,,,2,,,53,90
72576,note_off,,,,,384,0,5,,,,,4,,,58,0
72576,note_on,,,,,192,0,1,,,,,0,,,84,109
72576,note_on,,,,,96,0,2,,,,,1,,,60,93
72672,note_off,,,,,96,0,3,,,,,2,,,53,0
72672,note_off,,,,,96,0,2,,,,,1,,,60,0
72768,note_on,,,,,96,0,3,,,,,2,,,53,90
72768,note_off,,,,,192,0,1,,,,,0,,,84,0
72768,note_on,,,,,96,0,2,,,,,1,,,60,93
72864,note_off,,,,,96,0,3,,,,,2,,,53,0
72864,note_off,,,,,96,0,2,,,,,1,,,60,0
72960,note_on,,,,,96,0,3,,,,,2,,,58,90
72960,note_on,,,,,192,0,1,,,,,0,,,86,109
72960,note_on,,,,,96,0,2,,,,,1,,,62,93
73152,note_off,,,,,192,0,1,,,,,0,,,86,0
73248,note_on,,,,,96,0,1,,,,,0,,,79,109
73344,note_off,,,,,96,0,1,,,,,0,,,79,0
73344,note_on,,,,,0,0,1,,,,,0,,,77,109
73344,note_off,,,,,384,0,3,,,,,2,,,58,0
73344,note_off,,,,,384,0,2,,,,,1,,,62,0
73472,note_off,,,,,128,0,1,,,,,0,,,77,0
73472,note_on,,,,,0,0,1,,,,,0,,,76,109
73600,note_off,,,,,128,0,1,,,,,0,,,76,0
73600,note_on,,,,,0,0,1,,,,,0,,,77,109
73728,note_off,,,,,128,0,1,,,,,0,,,77,0
73728,note_on,,,,,0,0,1,,,,,0,,,74,109
73728,note_on,,,,,1152,0,5,,,,,4,,,46,90
74112,note_on,,,,,768,0,3,,,,,2,,,58,90
74112,note_on,,,,,768,0,2,,,,,1,,,62,93
74112,note_off,,,,,384,0,5,,,,,4,,,46,0
74208,note_off,,,,,96,0,2,,,,,1,,,62,0
74208,note_off,,,,,96,0,3,,,,,2,,,58,0
74304,note_on,,,,,96,0,3,,,,,2,,,58,90
74304,note_on,,,,,96,0,2,,,,,1,,,62,93
74400,note_off,,,,,96,0,3,,,,,2,,,58,0
74400,note_off,,,,,96,0,2,,,,,1,,,62,0
74496,note_on,,,,,0,0,1,,,,,0,,,77,109
74496,note_on,,,,,96,0,2,,,,,1,,,65,93
74496,note_on,,,,,96,0,3,,,,,2,,,62,90
74496,note_off,,,,,768,0,1,,,,,0,,,74,0
74592,note_off,,,,,96,0,2,,,,,1,,,65,0
74592,note_off,,,,,96,0,3,,,,,2,,,62,0
74688,note_on,,,,,96,0,2,,,,,1,,,65,93
74688,note_on,,,,,96,0,3,,,,,2,,,62,90
74784,note_off,,,,,96,0,3,,,,,2,,,62,0
74784,note_off,,,,,96,0,2,,,,,1,,,65,0
74880,note_on,,,,,96,0,2,,,,,1,,,62,93
74880,note_on,,,,,96,0,3,,,,,2,,,58,90
74976,note_off,,,,,96,0,3,,,,,2,,,58,0
74976,note_off,,,,,96,0,2,,,,,1,,,62,0
75072,note_on,,,,,96,0,3,,,,,2,,,58,90
75072,note_on,,,,,96,0,2,,,,,1,,,62,93
75168,note_off,,,,,96,0,3,,,,,2,,,58,0
75168,note_off,,,,,96,0,2,,,,,1,,,62,0
75264,note_on,,,,,1152,0,5,,,,,4,,,46,90
75264,note_on,,,,,0,0,1,,,,,0,,,84,109
75264,note_off,,,,,768,0,1,,,,,0,,,77,0
75648,note_off,,,,,384,0,5,,,,,4,,,46,0
75648,note_on,,,,,480,0,2,,,,,1,,,62,93
75648,note_on,,,,,0,0,1,,,,,0,,,82,109
75648,note_off,,,,,384,0,1,,,,,0,,,84,0
75648,note_on,,,,,480,0,3,,,,,2,,,58,90
75744,note_off,,,,,96,0,2,,,,,1,,,62,0
75744,note_off,,,,,96,0,3,,,,,2,,,58,0
75840,note_on,,,,,96,0,2,,,,,1,,,62,93
75840,note_off,,,,,192,0,1,,,,,0,,,82,0
75840,note_on,,,,,96,0,3,,,,,2,,,58,90
75936,note_off,,,,,96,0,2,,,,,1,,,62,0
75936,note_off,,,,,96,0,3,,,,,2,,,58,0
76032,note_on,,,,,96,0,2,,,,,1,,,65,93
76032,note_on,,,,,96,0,3,,,,,2,,,62,90
76128,note_off,,,,,96,0,3,,,,,2,,,62,0
76128,note_off,,,,,96,0,2,,,,,1,,,65,0
76224,note_on,,,,,96,0,2,,,,,1,,,65,93
76224,note_on,,,,,96,0,3,,,,,2,,,62,90
76320,note_off,,,,,96,0,3,,,,,2,,,62,0
76320,note_off,,,,,96,0,2,,,,,1,,,65,0
76320,note_on,,,,,480,0,1,,,,,0,,,75,109
76416,note_on,,,,,96,0,2,,,,,1,,,62,93
76416,note_on,,,,,96,0,3,,,,,2,,,58,90
76416,note_off,,,,,96,0,1,,,,,0,,,75,0
76416,note_on,,,,,0,0,1,,,,,0,,,74,109
76512,note_off,,,,,96,0,2,,,,,1,,,62,0
76512,note_off,,,,,96,0,3,,,,,2,,,58,0
76544,note_on,,,,,0,0,1,,,,,0,,,72,109
76544,note_off,,,,,128,0,1,,,,,0,,,74,0
76608,note_on,,,,,96,0,2,,,,,1,,,62,93
76608,note_on,,,,,96,0,3,,,,,2,,,58,90
76672,note_off,,,,,128,0,1,,,,,0,,,72,0
76672,note_on,,,,,0,0,1,,,,,0,,,74,109
76704,note_off,,,,,96,0,2,,,,,1,,,62,0
76704,note_off,,,,,96,0,3,,,,,2,,,58,0
76800,note_on,,,,,1152,0,5,,,,,4,,,51,90
76800,note_on,,,,,0,0,1,,,,,0,,,72,109
76800,note_off,,,,,128,0,1,,,,,0,,,74,0
77184,note_off,,,,,384,0,5,,,,,4,,,51,0
77184,note_on,,,,,480,0,3,,,,,2,,,67,90
77184,note_on,,,,,480,0,2,,,,,1,,,63,93
77280,note_off,,,,,96,0,3,,,,,2,,,67,0
77280,note_off,,,,,96,0,2,,,,,1,,,63,0
77376,note_on,,,,,96,0,2,,,,,1,,,63,93
77376,note_on,,,,,96,0,3,,,,,2,,,67,90
77472,note_off,,,,,96,0,2,,,,,1,,,63,0
77472,note_off,,,,,96,0,3,,,,,2,,,67,0
77568,note_on,,,,,96,0,2,,,,,1,,,67,93
77568,note_off,,,,,768,0,1,,,,,0,,,72,0
77568,note_on,,,,,0,0,1,,,,,0,,,75,109
77568,note_on,,,,,96,0,3,,,,,2,,,63,90
77664,note_off,,,,,96,0,2,,,,,1,,,67,0
77664,note_off,,,,,96,0,3,,,,,2,,,63,0
77760,note_on,,,,,96,0,3,,,,,2,,,63,90
77760,note_on,,,,,96,0,2,,,,,1,,,67,93
77856,note_off,,,,,96,0,2,,,,,1,,,67,0
77856,note_off,,,,,96,0,3,,,,,2,,,63,0
77952,note_on,,,,,96,0,3,,,,,2,,,60,90
77952,note_on,,,,,96,0,2,,,,,1,,,63,93
78048,note_off,,,,,96,0,2,,,,,1,,,63,0
78048,note_off,,,,,96,0,3,,,,,2,,,60,0
78144,note_on,,,,,96,0,2,,,,,1,,,63,93
78144,note_on,,,,,96,0,3,,,,,2,,,60,90
78240,note_off,,,,,96,0,2,,,,,1,,,63,0
78240,note_off,,,,,96,0,3,,,,,2,,,60,0
78336,note_on,,,,,0,0,1,,,,,0,,,81,109
78336,note_off,,,,,768,0,1,,,,,0,,,75,0
78336,note_on,,,,,1152,0,5,,,,,4,,,51,90
78720,note_on,,,,,480,0,3,,,,,2,,,60,90
78720,note_on,,,,,480,0,2,,,,,1,,,63,93
78720,note_off,,,,,384,0,5,,,,,4,,,51,0
78720,note_off,,,,,384,0,1,,,,,0,,,81,0
78720,note_on,,,,,0,0,1,,,,,0,,,79,109
78816,note_off,,,,,96,0,3,,,,,2,,,60,0
78816,note_off,,,,,96,0,2,,,,,1,,,63,0
78912,note_off,,,,,192,0,1,,,,,0,,,79,0
78912,note_on,,,,,96,0,3,,,,,2,,,60,90
78912,note_on,,,,,96,0,2,,,,,1,,,63,93
79008,note_off,,,,,96,0,3,,,,,2,,,60,0
79008,note_off,,,,,96,0,2,,,,,1,,,63,0
79104,note_on,,,,,96,0,3,,,,,2,,,63,90
79104,note_on,,,,,96,0,2,,,,,1,,,67,93
79200,note_off,,,,,96,0,3,,,,,2,,,63,0
79200,note_off,,,,,96,0,2,,,,,1,,,67,0
79296,note_on,,,,,96,0,3,,,,,2,,,63,90
79296,note_on,,,,,96,0,2,,,,,1,,,67,93
79392,note_on,,,,,480,0,1,,,,,0,,,74,109
79392,note_off,,,,,96,0,2,,,,,1,,,67,0
79392,note_off,,,,,96,0,3,,,,,2,,,63,0
79488,note_on,,,,,96,0,3,,,,,2,,,67,90
79488,note_on,,,,,96,0,2,,,,,1,,,63,93
79488,note_on,,,,,0,0,1,,,,,0,,,72,109
79488,note_off,,,,,96,0,1,,,,,0,,,74,0
79584,note_off,,,,,96,0,2,,,,,1,,,63,0
79584,note_off,,,,,96,0,3,,,,,2,,,67,0
79616,note_off,,,,,128,0,1,,,,,0,,,72,0
79616,note_on,,,,,0,0,1,,,,,0,,,71,109
79680,note_on,,,,,96,0,3,,,,,2,,,67,90
79680,note_on,,,,,96,0,2,,,,,1,,,63,93
79744,note_off,,,,,128,0,1,,,,,0,,,71,0
79744,note_on,,,,,0,0,1,,,,,0,,,72,109
79776,note_off,,,,,96,0,3,,,,,2,,,67,0
79776,note_off,,,,,96,0,2,,,,,1,,,63,0
79872,note_on,,,,,1152,0,5,,,,,4,,,53,90
79872,note_on,,,,,0,0,1,,,,,0,,,69,109
79872,note_off,,,,,128,0,1,,,,,0,,,72,0
80256,note_on,,,,,480,0,3,,,,,2,,,65,90
80256,note_off,,,,,384,0,5,,,,,4,,,53,0
80256,note_on,,,,,480,0,2,,,,,1,,,60,93
80352,note_off,,,,,96,0,3,,,,,2,,,65,0
80352,note_off,,,,,96,0,2,,,,,1,,,60,0
80448,note_on,,,,,96,0,3,,,,,2,,,65,90
80448,note_on,,,,,96,0,2,,,,,1,,,60,93
80544,note_off,,,,,96,0,3,,,,,2,,,65,0
80544,note_off,,,,,96,0,2,,,,,1,,,60,0
80640,note_on,,,,,96,0,3,,,,,2,,,60,90
80640,note_off,,,,,768,0,1,,,,,0,,,69,0
80640,note_on,,,,,0,0,1,,,,,0,,,72,109
80640,note_on,,,,,96,0,2,,,,,1,,,65,93
80736,note_off,,,,,96,0,3,,,,,2,,,60,0
80736,note_off,,,,,96,0,2,,,,,1,,,65,0
80832,note_on,,,,,96,0,3,,,,,2,,,60,90
80832,note_on,,,,,96,0,2,,,,,1,,,65,93
80928,note_off,,,,,96,0,2,,,,,1,,,65,0
80928,note_off,,,,,96,0,3,,,,,2,,,60,0
81024,note_on,,,,,96,0,2,,,,,1,,,60,93
81024,note_on,,,,,96,0,3,,,,,2,,,57,90
81120,note_off,,,,,96,0,2,,,,,1,,,60,0
81120,note_off,,,,,96,0,3,,,,,2,,,57,0
81216,note_on,,,,,96,0,2,,,,,1,,,60,93
81216,note_on,,,,,96,0,3,,,,,2,,,57,90
81312,note_off,,,,,96,0,2,,,,,1,,,60,0
81312,note_off,,,,,96,0,3,,,,,2,,,57,0
81408,note_on,,,,,1152,0,5,,,,,4,,,53,90
81408,note_on,,,,,0,0,1,,,,,0,,,79,109
81408,note_off,,,,,768,0,1,,,,,0,,,72,0
81792,note_on,,,,,480,0,2,,,,,1,,,60,93
81792,note_on,,,,,480,0,3,,,,,2,,,57,90
81792,note_off,,,,,384,0,5,,,,,4,,,53,0
81792,note_off,,,,,384,0,1,,,,,0,,,79,0
81792,note_on,,,,,0,0,1,,,,,0,,,77,109
81888,note_off,,,,,96,0,2,,,,,1,,,60,0
81888,note_off,,,,,96,0,3,,,,,2,,,57,0
81984,note_on,,,,,96,0,3,,,,,2,,,57,90
81984,note_off,,,,,192,0,1,,,,,0,,,77,0
81984,note_on,,,,,96,0,2,,,,,1,,,60,93
82080,note_off,,,,,96,0,3,,,,,2,,,57,0
82080,note_off,,,,,96,0,2,,,,,1,,,60,0
82176,note_on,,,,,96,0,2,,,,,1,,,65,93
82176,note_on,,,,,96,0,3,,,,,2,,,60,90
82272,note_off,,,,,96,0,2,,,,,1,,,65,0
82272,note_off,,,,,96,0,3,,,,,2,,,60,0
82368,note_on,,,,,96,0,2,,,,,1,,,65,93
82368,note_on,,,,,96,0,3,,,,,2,,,60,90
82464,note_off,,,,,96,0,2,,,,,1,,,65,0
82464,note_on,,,,,480,0,1,,,,,0,,,79,109
82464,note_off,,,,,96,0,3,,,,,2,,,60,0
82560,note_on,,,,,96,0,2,,,,,1,,,60,93
82560,note_off,,,,,96,0,1,,,,,0,,,79,0
82560,note_on,,,,,96,0,3,,,,,2,,,57,90
82560,note_on,,,,,0,0,1,,,,,0,,,77,109
82656,note_off,,,,,96,0,2,,,,,1,,,60,0
82656,note_off,,,,,96,0,3,,,,,2,,,57,0
82688,note_off,,,,,128,0,1,,,,,0,,,77,0
82688,note_on,,,,,0,0,1,,,,,0,,,76,109
82752,note_on,,,,,96,0,3,,,,,2,,,57,90
82752,note_on,,,,,96,0,2,,,,,1,,,60,93
82816,note_on,,,,,0,0,1,,,,,0,,,77,109
82816,note_off,,,,,128,0,1,,,,,0,,,76,0
82848,note_off,,,,,96,0,2,,,,,1,,,60,0
82848,note_off,,,,,96,0,3,,,,,2,,,57,0
82944,note_on,,,,,0,0,1,,,,,0,,,74,109
82944,note_off,,,,,128,0,1,,,,,0,,,77,0
82944,note_on,,,,,1152,0,5,,,,,4,,,46,90
83328,note_on,,,,,480,0,3,,,,,2,,,53,90
83328,note_off,,,,,384,0,5,,,,,4,,,46,0
83328,note_on,,,,,480,0,2,,,,,1,,,58,93
83424,note_off,,,,,96,0,3,,,,,2,,,53,0
83424,note_off,,,,,96,0,2,,,,,1,,,58,0
83520,note_on,,,,,96,0,3,,,,,2,,,53,90
83520,note_on,,,,,96,0,2,,,,,1,,,58,93
83616,note_off,,,,,96,0,3,,,,,2,,,53,0
83616,note_off,,,,,96,0,2,,,,,1,,,58,0
83712,note_on,,,,,0,0,1,,,,,0,,,77,109
83712,note_off,,,,,768,0,1,,,,,0,,,74,0
83712,note_on,,,,,384,0,5,,,,,4,,,53,90
84096,note_on,,,,,480,0,3,,,,,2,,,57,90
84096,note_off,,,,,384,0,5,,,,,4,,,53,0
84096,note_on,,,,,480,0,2,,,,,1,,,60,93
84192,note_off,,,,,96,0,3,,,,,2,,,57,0
84192,note_off,,,,,96,0,2,,,,,1,,,60,0
84288,note_on,,,,,96,0,2,,,,,1,,,60,93
84288,note_on,,,,,96,0,3,,,,,2,,,57,90
84384,note_off,,,,,96,0,3,,,,,2,,,57,0
84384,note_off,,,,,96,0,2,,,,,1,,,60,0
84480,note_on,,,,,96,0,2,,,,,1,,,58,93
84480,note_on,,,,,384,0,5,,,,,4,,,46,90
84480,note_on,,,,,96,0,3,,,,,2,,,58,90
84480,note_off,,,,,768,0,1,,,,,0,,,77,0
84480,note_on,,,,,0,0,1,,,,,0,,,82,109
84576,note_off,,,,,96,0,2,,,,,1,,,58,0
84576,note_off,,,,,96,0,3,,,,,2,,,58,0
84672,note_off,,,,,192,0,1,,,,,0,,,82,0
84672,note_on,,,,,96,0,2,,,,,1,,,58,93
84672,note_on,,,,,96,0,3,,,,,2,,,50,90
84768,note_off,,,,,96,0,2,,,,,1,,,58,0
84768,note_off,,,,,96,0,3,,,,,2,,,50,0
84864,note_on,,,,,192,0,1,,,,,0,,,84,109
84864,note_on,,,,,96,0,3,,,,,2,,,53,90
84864,note_off,,,,,384,0,5,,,,,4,,,46,0
84864,note_on,,,,,96,0,2,,,,,1,,,60,93
84960,note_off,,,,,96,0,3,,,,,2,,,53,0
84960,note_off,,,,,96,0,2,,,,,1,,,60,0
85056,note_off,,,,,192,0,1,,,,,0,,,84,0
85056,note_on,,,,,96,0,2,,,,,1,,,60,93
85056,note_on,,,,,96,0,3,,,,,2,,,53,90
85152,note_off,,,,,96,0,2,,,,,1,,,60,0
85152,note_off,,,,,96,0,3,,,,,2,,,53,0
85248,note_on,,,,,96,0,3,,,,,2,,,58,90
85248,note_on,,,,,96,0,2,,,,,1,,,62,93
85248,note_on,,,,,192,0,1,,,,,0,,,86,109
85440,note_off,,,,,192,0,1,,,,,0,,,86,0
85536,note_on,,,,,96,0,1,,,,,0,,,84,109
85632,note_off,,,,,384,0,3,,,,,2,,,58,0
85632,note_off,,,,,384,0,2,,,,,1,,,62,0
85632,note_off,,,,,96,0,1,,,,,0,,,84,0
85632,note_on,,,,,0,0,1,,,,,0,,,82,109
85760,note_on,,,,,0,0,1,,,,,0,,,81,109
85760,note_off,,,,,128,0,1,,,,,0,,,82,0
85888,note_off,,,,,128,0,1,,,,,0,,,81,0
85888,note_on,,,,,0,0,1,,,,,0,,,82,109
86016,note_on,,,,,0,0,1,,,,,0,,,81,109
86016,note_on,,,,,384,0,2,,,,,1,,,72,93
86016,note_on,,,,,384,0,3,,,,,2,,,65,90
86016,note_on,,,,,25728,0,4,,,,,3,,,63,90
86016,note_off,,,,,128,0,1,,,,,0,,,82,0
86592,note_off,,,,,576,0,1,,,,,0,,,81,0
86592,note_on,,,,,0,0,1,,,,,0,,,84,109
86592,note_off,,,,,576,0,2,,,,,1,,,72,0
86592,note_on,,,,,0,0,2,,,,,1,,,69,93
86784,note_on,,,,,0,0,4,,,,,3,,,62,90
86784,note_off,,,,,768,0,4,,,,,3,,,63,0
86784,note_on,,,,,0,0,2,,,,,1,,,70,93
86784,note_off,,,,,192,0,2,,,,,1,,,69,0
86784,note_on,,,,,0,0,1,,,,,0,,,82,109
86784,note_off,,,,,192,0,1,,,,,0,,,84,0
87072,note_on,,,,,0,0,1,,,,,0,,,84,109
87072,note_off,,,,,288,0,1,,,,,0,,,82,0
87168,note_on,,,,,0,0,1,,,,,0,,,82,109
87168,note_off,,,,,96,0,1,,,,,0,,,84,0
87168,note_off,,,,,1152,0,3,,,,,2,,,65,0
87168,note_off,,,,,384,0,2,,,,,1,,,70,0
87168,note_off,,,,,384,0,4,,,,,3,,,62,0
87296,note_off,,,,,128,0,1,,,,,0,,,82,0
87296,note_on,,,,,0,0,1,,,,,0,,,81,109
87424,note_off,,,,,128,0,1,,,,,0,,,81,0
87424,note_on,,,,,0,0,1,,,,,0,,,82,109
87552,note_on,,,,,384,0,3,,,,,2,,,65,90
87552,note_on,,,,,384,0,4,,,,,3,,,63,90
87552,note_off,,,,,128,0,1,,,,,0,,,82,0
87552,note_on,,,,,0,0,1,,,,,0,,,81,109
87552,note_on,,,,,384,0,2,,,,,1,,,72,93
88128,note_off,,,,,576,0,1,,,,,0,,,81,0
88128,note_on,,,,,0,0,1,,,,,0,,,84,109
88128,note_on,,,,,0,0,2,,,,,1,,,69,93
88128,note_off,,,,,576,0,2,,,,,1,,,72,0
88320,note_off,,,,,768,0,4,,,,,3,,,63,0
88320,note_off,,,,,192,0,1,,,,,0,,,84,0
88320,note_on,,,,,0,0,1,,,,,0,,,82,109
88320,note_off,,,,,192,0,2,,,,,1,,,69,0
88320,note_on,,,,,0,0,2,,,,,1,,,70,93
88320,note_on,,,,,0,0,4,,,,,3,,,62,90
88608,note_off,,,,,288,0,1,,,,,0,,,82,0
88608,note_on,,,,,0,0,1,,,,,0,,,84,109
88704,note_off,,,,,384,0,2,,,,,1,,,70,0
88704,note_off,,,,,1152,0,3,,,,,2,,,65,0
88704,note_on,,,,,0,0,1,,,,,0,,,82,109
88704,note_off,,,,,96,0,1,,,,,0,,,84,0
88704,note_off,,,,,384,0,4,,,,,3,,,62,0
88832,note_on,,,,,0,0,1,,,,,0,,,81,109
88832,note_off,,,,,128,0,1,,,,,0,,,82,0
88960,note_off,,,,,128,0,1,,,,,0,,,81,0
88960,note_on,,,,,0,0,1,,,,,0,,,82,109
89088,note_on,,,,,0,0,1,,,,,0,,,87,109
89088,note_on,,,,,384,0,2,,,,,1,,,63,93
89088,note_off,,,,,128,0,1,,,,,0,,,82,0
89088,note_on,,,,,384,0,4,,,,,3,,,55,90
89088,note_on,,,,,384,0,3,,,,,2,,,63,90
89376,note_on,,,,,0,0,1,,,,,0,,,84,109
89376,note_off,,,,,288,0,1,,,,,0,,,87,0
89472,note_on,,,,,0,0,1,,,,,0,,,82,109
89472,note_off,,,,,384,0,4,,,,,3,,,55,0
89472,note_off,,,,,96,0,1,,,,,0,,,84,0
89472,note_off,,,,,384,0,2,,,,,1,,,63,0
89472,note_off,,,,,384,0,3,,,,,2,,,63,0
89600,note_on,,,,,0,0,1,,,,,0,,,81,109
89600,note_off,,,,,128,0,1,,,,,0,,,82,0
89728,note_off,,,,,128,0,1,,,,,0,,,81,0
89728,note_on,,,,,0,0,1,,,,,0,,,82,109
89856,note_on,,,,,384,0,3,,,,,2,,,58,90
89856,note_on,,,,,384,0,4,,,,,3,,,58,90
89856,note_off,,,,,128,0,1,,,,,0,,,82,0
89856,note_on,,,,,0,0,1,,,,,0,,,86,109
89856,note_on,,,,,384,0,2,,,,,1,,,65,93
90144,note_on,,,,,0,0,1,,,,,0,,,84,109
90144,note_off,,,,,288,0,1,,,,,0,,,86,0
90240,note_off,,,,,384,0,2,,,,,1,,,65,0
90240,note_off,,,,,384,0,3,,,,,2,,,58,0
90240,note_off,,,,,96,0,1,,,,,0,,,84,0
90240,note_off,,,,,384,0,4,,,,,3,,,58,0
90240,note_on,,,,,0,0,1,,,,,0,,,82,109
90368,note_on,,,,,0,0,1,,,,,0,,,81,109
90368,note_off,,,,,128,0,1,,,,,0,,,82,0
90496,note_on,,,,,0,0,1,,,,,0,,,82,109
90496,note_off,,,,,128,0,1,,,,,0,,,81,0
90624,note_on,,,,,384,0,2,,,,,1,,,69,93
90624,note_on,,,,,384,0,3,,,,,2,,,60,90
90624,note_off,,,,,128,0,1,,,,,0,,,82,0
90624,note_on,,,,,0,0,1,,,,,0,,,84,109
90624,note_on,,,,,384,0,4,,,,,3,,,53,90
91008,note_off,,,,,384,0,2,,,,,1,,,69,0
91008,note_on,,,,,0,0,2,,,,,1,,,69,93
91008,note_off,,,,,384,0,4,,,,,3,,,53,0
91008,note_on,,,,,0,0,3,,,,,2,,,60,90
91008,note_off,,,,,384,0,3,,,,,2,,,60,0
91008,note_off,,,,,384,0,1,,,,,0,,,84,0
91008,note_on,,,,,0,0,1,,,,,0,,,86,109
91008,note_on,,,,,0,0,4,,,,,3,,,53,90
91296,note_off,,,,,288,0,1,,,,,0,,,86,0
91296,note_on,,,,,0,0,1,,,,,0,,,87,109
91392,note_off,,,,,384,0,2,,,,,1,,,69,0
91392,note_on,,,,,0,0,2,,,,,1,,,70,93
91392,note_on,,,,,0,0,1,,,,,0,,,82,109
91392,note_on,,,,,0,0,4,,,,,3,,,50,90
91392,note_off,,,,,384,0,4,,,,,3,,,53,0
91392,note_on,,,,,0,0,3,,,,,2,,,58,90
91392,note_off,,,,,384,0,3,,,,,2,,,60,0
91392,note_off,,,,,96,0,1,,,,,0,,,87,0
91680,note_on,,,,,0,0,1,,,,,0,,,84,109
91680,note_off,,,,,288,0,1,,,,,0,,,82,0
91776,note_on,,,,,0,0,1,,,,,0,,,82,109
91776,note_off,,,,,384,0,4,,,,,3,,,50,0
91776,note_off,,,,,96,0,1,,,,,0,,,84,0
91776,note_off,,,,,384,0,2,,,,,1,,,70,0
91776,note_off,,,,,384,0,3,,,,,2,,,58,0
91904,note_off,,,,,128,0,1,,,,,0,,,82,0
91904,note_on,,,,,0,0,1,,,,,0,,,81,109
92032,note_off,,,,,128,0,1,,,,,0,,,81,0
92032,note_on,,,,,0,0,1,,,,,0,,,82,109
92160,note_on,,,,,384,0,3,,,,,2,,,63,90
92160,note_on,,,,,384,0,4,,,,,3,,,55,90
92160,note_on,,,,,384,0,2,,,,,1,,,63,93
92160,note_on,,,,,0,0,1,,,,,0,,,87,109
92160,note_off,,,,,128,0,1,,,,,0,,,82,0
92448,note_off,,,,,288,0,1,,,,,0,,,87,0
92448,note_on,,,,,0,0,1,,,,,0,,,84,109
92544,note_off,,,,,96,0,1,,,,,0,,,84,0
92544,note_off,,,,,384,0,2,,,,,1,,,63,0
92544,note_off,,,,,384,0,3,,,,,2,,,63,0
92544,note_off,,,,,384,0,4,,,,,3,,,55,0
92544,note_on,,,,,0,0,1,,,,,0,,,82,109
92672,note_on,,,,,0,0,1,,,,,0,,,81,109
92672,note_off,,,,,128,0,1,,,,,0,,,82,0
92800,note_on,,,,,0,0,1,,,,,0,,,82,109
92800,note_off,,,,,128,0,1,,,,,0,,,81,0
92928,note_on,,,,,0,0,1,,,,,0,,,86,109
92928,note_off,,,,,128,0,1,,,,,0,,,82,0
92928,note_on,,,,,384,0,4,,,,,3,,,58,90
92928,note_on,,,,,384,0,2,,,,,1,,,65,93
92928,note_on,,,,,384,0,3,,,,,2,,,58,90
93216,note_off,,,,,288,0,1,,,,,0,,,86,0
93216,note_on,,,,,0,0,1,,,,,0,,,84,109
93312,note_off,,,,,384,0,2,,,,,1,,,65,0
93312,note_on,,,,,0,0,1,,,,,0,,,82,109
93312,note_off,,,,,384,0,4,,,,,3,,,58,0
93312,note_off,,,,,96,0,1,,,,,0,,,84,0
93312,note_off,,,,,384,0,3,,,,,2,,,58,0
93440,note_on,,,,,0,0,1,,,,,0,,,81,109
93440,note_off,,,,,128,0,1,,,,,0,,,82,0
93568,note_off,,,,,128,0,1,,,,,0,,,81,0
93568,note_on,,,,,0,0,1,,,,,0,,,82,109
93696,note_on,,,,,384,0,3,,,,,2,,,60,90
93696,note_on,,,,,384,0,2,,,,,1,,,69,93
93696,note_on,,,,,384,0,4,,,,,3,,,53,90
93696,note_off,,,,,128,0,1,,,,,0,,,82,0
93696,note_on,,,,,0,0,1,,,,,0,,,84,109
94080,note_on,,,,,0,0,2,,,,,1,,,69,93
94080,note_on,,,,,0,0,4,,,,,3,,,53,90
94080,note_off,,,,,384,0,1,,,,,0,,,84,0
94080,note_off,,,,,384,0,3,,,,,2,,,60,0
94080,note_off,,,,,384,0,4,,,,,3,,,53,0
94080,note_off,,,,,384,0,2,,,,,1,,,69,0
94080,note_on,,,,,0,0,1,,,,,0,,,86,109
94080,note_on,,,,,0,0,3,,,,,2,,,60,90
94368,note_off,,,,,288,0,1,,,,,0,,,86,0
94368,note_on,,,,,0,0,1,,,,,0,,,87,109
94464,note_off,,,,,384,0,2,,,,,1,,,69,0
94464,note_on,,,,,0,0,2,,,,,1,,,70,93
94464,note_on,,,,,0,0,4,,,,,3,,,50,90
94464,note_off,,,,,384,0,3,,,,,2,,,60,0
94464,note_on,,,,,0,0,3,,,,,2,,,58,90
94464,note_off,,,,,384,0,4,,,,,3,,,53,0
94464,note_off,,,,,96,0,1,,,,,0,,,87,0
94464,note_on,,,,,0,0,1,,,,,0,,,82,109
94752,note_off,,,,,288,0,1,,,,,0,,,82,0
94752,note_on,,,,,0,0,1,,,,,0,,,72,109
94848,note_off,,,,,384,0,4,,,,,3,,,50,0
94848,note_off,,,,,96,0,1,,,,,0,,,72,0
94848,note_on,,,,,0,0,1,,,,,0,,,70,109
94848,note_off,,,,,384,0,3,,,,,2,,,58,0
94848,note_off,,,,,384,0,2,,,,,1,,,70,0
94976,note_on,,,,,0,0,1,,,,,0,,,69,109
94976,note_off,,,,,128,0,1,,,,,0,,,70,0
95104,note_off,,,,,128,0,1,,,,,0,,,69,0
95104,note_on,,,,,0,0,1,,,,,0,,,70,109
95232,note_on,,,,,384,0,3,,,,,2,,,67,90
95232,note_on,,,,,384,0,4,,,,,3,,,63,90
95232,note_on,,,,,384,0,2,,,,,1,,,70,93
95232,note_off,,,,,128,0,1,,,,,0,,,70,0
95232,note_on,,,,,0,0,1,,,,,0,,,79,109
96000,note_off,,,,,768,0,2,,,,,1,,,70,0
96000,note_on,,,,,0,0,2,,,,,1,,,71,93
96000,note_off,,,,,768,0,1,,,,,0,,,79,0
96000,note_on,,,,,0,0,4,,,,,3,,,62,90
96000,note_on,,,,,0,0,1,,,,,0,,,77,109
96000,note_off,,,,,768,0,4,,,,,3,,,63,0
96768,note_off,,,,,768,0,2,,,,,1,,,71,0
96768,note_off,,,,,768,0,4,,,,,3,,,62,0
96768,note_on,,,,,0,0,2,,,,,1,,,72,93
96768,note_on,,,,,0,0,1,,,,,0,,,77,109
96768,note_off,,,,,768,0,1,,,,,0,,,77,0
96768,note_on,,,,,0,0,4,,,,,3,,,60,90
97152,note_on,,,,,0,0,1,,,,,0,,,75,109
97152,note_off,,,,,384,0,1,,,,,0,,,77,0
97536,note_off,,,,,2304,0,3,,,,,2,,,67,0
97536,note_off,,,,,384,0,1,,,,,0,,,75,0
97536,note_off,,,,,768,0,2,,,,,1,,,72,0
97536,note_off,,,,,768,0,4,,,,,3,,,60,0
97920,note_on,,,,,384,0,4,,,,,3,,,63,90
97920,note_on,,,,,384,0,3,,,,,2,,,65,90
97920,note_on,,,,,384,0,1,,,,,0,,,72,109
97920,note_on,,,,,384,0,2,,,,,1,,,69,93
98304,note_off,,,,,384,0,4,,,,,3,,,63,0
98304,note_on,,,,,0,0,2,,,,,1,,,70,93
98304,note_on,,,,,0,0,1,,,,,0,,,77,109
98304,note_off,,,,,384,0,2,,,,,1,,,69,0
98304,note_on,,,,,0,0,4,,,,,3,,,62,90
98304,note_off,,,,,384,0,1,,,,,0,,,72,0
99072,note_on,,,,,0,0,1,,,,,0,,,75,109
99072,note_off,,,,,768,0,1,,,,,0,,,77,0
99072,note_on,,,,,0,0,2,,,,,1,,,69,93
99072,note_on,,,,,0,0,4,,,,,3,,,60,90
99072,note_off,,,,,768,0,4,,,,,3,,,62,0
99072,note_off,,,,,768,0,2,,,,,1,,,70,0
99840,note_on,,,,,0,0,4,,,,,3,,,58,90
99840,note_off,,,,,768,0,4,,,,,3,,,60,0
99840,note_off,,,,,768,0,2,,,,,1,,,69,0
99840,note_on,,,,,0,0,2,,,,,1,,,70,93
99840,note_off,,,,,768,0,1,,,,,0,,,75,0
99840,note_on,,,,,0,0,1,,,,,0,,,75,109
100224,note_on,,,,,0,0,1,,,,,0,,,74,109
100224,note_off,,,,,384,0,1,,,,,0,,,75,0
100608,note_off,,,,,384,0,1,,,,,0,,,74,0
100608,note_off,,,,,768,0,2,,,,,1,,,70,0
100608,note_off,,,,,2688,0,3,,,,,2,,,65,0
100608,note_off,,,,,768,0,4,,,,,3,,,58,0
100992,note_on,,,,,384,0,1,,,,,0,,,74,109
100992,note_on,,,,,384,0,2,,,,,1,,,71,93
100992,note_on,,,,,384,0,3,,,,,2,,,55,90
100992,note_on,,,,,384,0,4,,,,,3,,,53,90
101376,note_on,,,,,0,0,4,,,,,3,,,51,90
101376,note_on,,,,,0,0,2,,,,,1,,,72,93
101376,note_off,,,,,384,0,4,,,,,3,,,53,0
101376,note_off,,,,,384,0,1,,,,,0,,,74,0
101376,note_on,,,,,0,0,1,,,,,0,,,72,109
101376,note_off,,,,,384,0,2,,,,,1,,,71,0
101568,note_off,,,,,192,0,1,,,,,0,,,72,0
101568,note_off,,,,,192,0,4,,,,,3,,,51,0
101568,note_off,,,,,576,0,3,,,,,2,,,55,0
101568,note_off,,,,,192,0,2,,,,,1,,,72,0
101760,note_on,,,,,192,0,1,,,,,0,,,79,109
101888,note_on,,,,,0,0,1,,,,,0,,,80,109
101888,note_off,,,,,128,0,1,,,,,0,,,79,0
102016,note_on,,,,,0,0,1,,,,,0,,,78,109
102016,note_off,,,,,128,0,1,,,,,0,,,80,0
102144,note_off,,,,,128,0,1,,,,,0,,,78,0
102144,note_on,,,,,0,0,1,,,,,0,,,79,109
102336,note_off,,,,,192,0,1,,,,,0,,,79,0
102528,note_on,,,,,960,0,2,,,,,1,,,67,93
102528,note_on,,,,,960,0,4,,,,,3,,,53,90
102528,note_on,,,,,192,0,1,,,,,0,,,74,109
102528,note_on,,,,,960,0,3,,,,,2,,,59,90
102912,note_on,,,,,0,0,4,,,,,3,,,51,90
102912,note_off,,,,,384,0,4,,,,,3,,,53,0
102912,note_on,,,,,0,0,1,,,,,0,,,72,109
102912,note_off,,,,,384,0,1,,,,,0,,,74,0
102912,note_on,,,,,0,0,3,,,,,2,,,60,90
102912,note_off,,,,,384,0,3,,,,,2,,,59,0
103104,note_off,,,,,576,0,2,,,,,1,,,67,0
103104,note_off,,,,,192,0,1,,,,,0,,,72,0
103104,note_off,,,,,192,0,3,,,,,2,,,60,0
103104,note_off,,,,,192,0,4,,,,,3,,,51,0
103296,note_on,,,,,192,0,1,,,,,0,,,79,109
103424,note_off,,,,,128,0,1,,,,,0,,,79,0
103424,note_on,,,,,0,0,1,,,,,0,,,80,109
103552,note_on,,,,,0,0,1,,,,,0,,,78,109
103552,note_off,,,,,128,0,1,,,,,0,,,80,0
103680,note_on,,,,,0,0,1,,,,,0,,,79,109
103680,note_off,,,,,128,0,1,,,,,0,,,78,0
103872,note_off,,,,,192,0,1,,,,,0,,,79,0
104064,note_on,,,,,192,0,1,,,,,0,,,74,109
104064,note_on,,,,,960,0,2,,,,,1,,,71,93
104064,note_on,,,,,960,0,3,,,,,2,,,68,90
104192,note_off,,,,,128,0,3,,,,,2,,,68,0
104192,note_on,,,,,0,0,3,,,,,2,,,67,90
104320,note_off,,,,,128,0,3,,,,,2,,,67,0
104320,note_on,,,,,0,0,3,,,,,2,,,65,90
104448,note_off,,,,,384,0,1,,,,,0,,,74,0
104448,note_on,,,,,0,0,1,,,,,0,,,72,109
104448,note_off,,,,,128,0,3,,,,,2,,,65,0
104448,note_on,,,,,0,0,2,,,,,1,,,72,93
104448,note_off,,,,,384,0,2,,,,,1,,,71,0
104448,note_on,,,,,0,0,3,,,,,2,,,63,90
104640,note_off,,,,,192,0,3,,,,,2,,,63,0
104640,note_off,,,,,192,0,2,,,,,1,,,72,0
104640,note_off,,,,,192,0,1,,,,,0,,,72,0
104832,note_on,,,,,192,0,3,,,,,2,,,62,90
104832,note_on,,,,,192,0,2,,,,,1,,,71,93
104832,note_on,,,,,192,0,1,,,,,0,,,74,109
105024,note_off,,,,,192,0,3,,,,,2,,,62,0
105024,note_off,,,,,192,0,2,,,,,1,,,71,0
105024,note_off,,,,,192,0,1,,,,,0,,,74,0
105216,note_on,,,,,192,0,2,,,,,1,,,72,93
105216,note_on,,,,,192,0,1,,,,,0,,,75,109
105216,note_on,,,,,192,0,3,,,,,2,,,60,90
105408,note_off,,,,,192,0,1,,,,,0,,,75,0
105408,note_off,,,,,192,0,3,,,,,2,,,60,0
105408,note_off,,,,,192,0,2,,,,,1,,,72,0
105600,note_on,,,,,192,0,1,,,,,0,,,77,109
105600,note_on,,,,,192,0,3,,,,,2,,,58,90
105600,note_on,,,,,192,0,2,,,,,1,,,74,93
105792,note_off,,,,,192,0,1,,,,,0,,,77,0
105792,note_off,,,,,192,0,3,,,,,2,,,58,0
105792,note_off,,,,,192,0,2,,,,,1,,,74,0
105984,note_on,,,,,192,0,1,,,,,0,,,79,109
105984,note_on,,,,,192,0,3,,,,,2,,,57,90
105984,note_on,,,,,2880,0,4,,,,,3,,,51,90
105984,note_on,,,,,192,0,2,,,,,1,,,72,93
106752,note_on,,,,,0,0,2,,,,,1,,,73,93
106752,note_off,,,,,768,0,3,,,,,2,,,57,0
106752,note_on,,,,,0,0,3,,,,,2,,,69,90
106752,note_off,,,,,768,0,2,,,,,1,,,72,0
107520,note_off,,,,,1536,0,4,,,,,3,,,51,0
107520,note_on,,,,,0,0,4,,,,,3,,,50,90
107520,note_off,,,,,768,0,2,,,,,1,,,73,0
107520,note_on,,,,,0,0,2,,,,,1,,,74,93
108288,note_on,,,,,0,0,1,,,,,0,,,78,109
108288,note_off,,,,,2304,0,1,,,,,0,,,79,0
109056,note_off,,,,,2304,0,3,,,,,2,,,69,0
109056,note_on,,,,,0,0,3,,,,,2,,,62,90
109056,note_off,,,,,768,0,1,,,,,0,,,78,0
109056,note_off,,,,,1536,0,2,,,,,1,,,74,0
109056,note_on,,,,,0,0,1,,,,,0,,,77,109
109056,note_on,,,,,0,0,4,,,,,3,,,43,90
109056,note_off,,,,,1536,0,4,,,,,3,,,50,0
109056,note_on,,,,,0,0,2,,,,,1,,,71,93
110208,note_off,,,,,1152,0,1,,,,,0,,,77,0
110208,note_on,,,,,0,0,1,,,,,0,,,79,109
110592,note_off,,,,,1536,0,2,,,,,1,,,71,0
110592,note_on,,,,,0,0,4,,,,,3,,,48,90
110592,note_off,,,,,1536,0,4,,,,,3,,,43,0
110592,note_on,,,,,0,0,2,,,,,1,,,72,93
110592,note_on,,,,,0,0,1,,,,,0,,,77,109
110592,note_off,,,,,384,0,1,,,,,0,,,79,0
110592,note_off,,,,,1536,0,3,,,,,2,,,62,0
110592,note_on,,,,,0,0,3,,,,,2,,,60,90
111360,note_on,,,,,0,0,1,,,,,0,,,76,109
111360,note_off,,,,,768,0,1,,,,,0,,,77,0
111360,note_on,,,,,0,0,3,,,,,2,,,67,90
111360,note_off,,,,,768,0,3,,,,,2,,,60,0
112128,note_on,,,,,0,0,4,,,,,3,,,41,90
112128,note_off,,,,,768,0,1,,,,,0,,,76,0
112128,note_on,,,,,0,0,3,,,,,2,,,60,90
112128,note_off,,,,,1536,0,4,,,,,3,,,48,0
112128,note_off,,,,,768,0,3,,,,,2,,,67,0
112128,note_off,,,,,1536,0,2,,,,,1,,,72,0
112128,note_on,,,,,0,0,1,,,,,0,,,75,109
112128,note_on,,,,,0,0,2,,,,,1,,,69,93
112896,note_on,,,,,0,0,3,,,,,2,,,65,90
112896,note_off,,,,,768,0,3,,,,,2,,,60,0
113280,note_on,,,,,0,0,1,,,,,0,,,77,109
113280,note_off,,,,,1152,0,1,,,,,0,,,75,0
113664,note_off,,,,,1536,0,2,,,,,1,,,69,0
113664,note_off,,,,,384,0,1,,,,,0,,,77,0
113664,note_on,,,,,0,0,4,,,,,3,,,46,90
113664,note_on,,,,,0,0,1,,,,,0,,,75,109
113664,note_on,,,,,0,0,2,,,,,1,,,70,93
113664,note_off,,,,,1536,0,4,,,,,3,,,41,0
114048,note_off,,,,,384,0,1,,,,,0,,,75,0
114048,note_on,,,,,0,0,1,,,,,0,,,74,109
114432,note_off,,,,,768,0,4,,,,,3,,,46,0
114432,note_off,,,,,768,0,2,,,,,1,,,70,0
114432,note_off,,,,,384,0,1,,,,,0,,,74,0
114432,note_on,,,,,0,0,1,,,,,0,,,77,109
114432,note_on,,,,,0,0,2,,,,,1,,,67,93
114432,note_off,,,,,1536,0,3,,,,,2,,,65,0
114432,note_on,,,,,0,0,4,,,,,3,,,39,90
114432,note_on,,,,,0,0,3,,,,,2,,,59,90
114624,note_on,,,,,0,0,1,,,,,0,,,75,109
114624,note_on,,,,,0,0,3,,,,,2,,,60,90
114624,note_off,,,,,192,0,3,,,,,2,,,59,0
114624,note_off,,,,,192,0,1,,,,,0,,,77,0
114816,note_off,,,,,192,0,3,,,,,2,,,60,0
114816,note_on,,,,,0,0,3,,,,,2,,,62,90
114816,note_off,,,,,192,0,1,,,,,0,,,75,0
114816,note_on,,,,,0,0,1,,,,,0,,,74,109
115008,note_off,,,,,192,0,3,,,,,2,,,62,0
115008,note_on,,,,,0,0,3,,,,,2,,,63,90
115008,note_off,,,,,192,0,1,,,,,0,,,74,0
115008,note_on,,,,,0,0,1,,,,,0,,,72,109
115200,note_on,,,,,0,0,3,,,,,2,,,62,90
115200,note_on,,,,,0,0,4,,,,,3,,,41,90
115200,note_off,,,,,768,0,4,,,,,3,,,39,0
115200,note_off,,,,,192,0,1,,,,,0,,,72,0
115200,note_on,,,,,0,0,1,,,,,0,,,70,109
115200,note_off,,,,,192,0,3,,,,,2,,,63,0
115200,note_off,,,,,768,0,2,,,,,1,,,67,0
115200,note_on,,,,,0,0,2,,,,,1,,,65,93
115584,note_off,,,,,384,0,3,,,,,2,,,62,0
115584,note_off,,,,,384,0,4,,,,,3,,,41,0
115584,note_off,,,,,384,0,1,,,,,0,,,70,0
115584,note_off,,,,,384,0,2,,,,,1,,,65,0
115872,note_on,,,,,288,0,1,,,,,0,,,74,109
115968,note_on,,,,,384,0,2,,,,,1,,,69,93
115968,note_off,,,,,96,0,1,,,,,0,,,74,0
115968,note_on,,,,,384,0,4,,,,,3,,,53,90
115968,note_on,,,,,0,0,1,,,,,0,,,72,109
115968,note_on,,,,,384,0,3,,,,,2,,,63,90
116352,note_off,,,,,384,0,1,,,,,0,,,72,0
116352,note_off,,,,,384,0,2,,,,,1,,,69,0
116352,note_off,,,,,384,0,4,,,,,3,,,53,0
116352,note_off,,,,,384,0,3,,,,,2,,,63,0
116736,note_on,,,,,384,0,4,,,,,3,,,46,90
116736,note_on,,,,,384,0,2,,,,,1,,,70,93
116736,note_on,,,,,384,0,3,,,,,2,,,62,90
116736,note_on,,,,,384,0,1,,,,,0,,,70,109
116864,note_on,,,,,0,0,2,,,,,1,,,74,93
116864,note_on,,,,,0,0,1,,,,,0,,,77,109
116864,note_off,,,,,128,0,1,,,,,0,,,70,0
116864,note_off,,,,,128,0,2,,,,,1,,,70,0
116928,note_off,,,,,192,0,4,,,,,3,,,46,0
116928,note_off,,,,,192,0,3,,,,,2,,,62,0
116992,note_off,,,,,128,0,1,,,,,0,,,77,0
116992,note_on,,,,,0,0,1,,,,,0,,,77,109
116992,note_off,,,,,128,0,2,,,,,1,,,74,0
116992,note_on,,,,,0,0,2,,,,,1,,,74,93
117120,note_off,,,,,128,0,1,,,,,0,,,77,0
117120,note_on,,,,,192,0,3,,,,,2,,,58,90
117120,note_off,,,,,128,0,2,,,,,1,,,74,0
117120,note_on,,,,,0,0,2,,,,,1,,,74,93
117120,note_on,,,,,0,0,1,,,,,0,,,77,109
117120,note_on,,,,,192,0,4,,,,,3,,,58,90
117248,note_on,,,,,0,0,2,,,,,1,,,74,93
117248,note_on,,,,,0,0,1,,,,,0,,,77,109
117248,note_off,,,,,128,0,2,,,,,1,,,74,0
117248,note_off,,,,,128,0,1,,,,,0,,,77,0
117312,note_off,,,,,192,0,3,,,,,2,,,58,0
117312,note_off,,,,,192,0,4,,,,,3,,,58,0
117376,note_off,,,,,128,0,2,,,,,1,,,74,0
117376,note_on,,,,,0,0,2,,,,,1,,,74,93
117376,note_on,,,,,0,0,1,,,,,0,,,77,109
117376,note_off,,,,,128,0,1,,,,,0,,,77,0
117504,note_on,,,,,0,0,1,,,,,0,,,77,109
117504,note_off,,,,,128,0,1,,,,,0,,,77,0
117504,note_off,,,,,128,0,2,,,,,1,,,74,0
117504,note_on,,,,,0,0,2,,,,,1,,,74,93
117632,note_on,,,,,0,0,2,,,,,1,,,74,93
117632,note_off,,,,,128,0,1,,,,,0,,,77,0
117632,note_on,,,,,0,0,1,,,,,0,,,77,109
117632,note_off,,,,,128,0,2,,,,,1,,,74,0
117760,note_off,,,,,128,0,2,,,,,1,,,74,0
117760,note_on,,,,,0,0,2,,,,,1,,,74,93
117760,note_off,,,,,128,0,1,,,,,0,,,77,0
117760,note_on,,,,,0,0,1,,,,,0,,,77,109
117888,note_off,,,,,128,0,1,,,,,0,,,77,0
117888,note_on,,,,,576,0,3,,,,,2,,,74,90
117888,note_on,,,,,0,0,1,,,,,0,,,77,109
117888,note_on,,,,,576,0,4,,,,,3,,,62,90
117888,note_off,,,,,128,0,2,,,,,1,,,74,0
117888,note_on,,,,,0,0,2,,,,,1,,,74,93
118016,note_off,,,,,128,0,3,,,,,2,,,74,0
118016,note_on,,,,,0,0,3,,,,,2,,,72,90
118016,note_on,,,,,0,0,1,,,,,0,,,77,109
118016,note_off,,,,,128,0,2,,,,,1,,,74,0
118016,note_on,,,,,0,0,2,,,,,1,,,74,93
118016,note_off,,,,,128,0,1,,,,,0,,,77,0
118016,note_off,,,,,128,0,4,,,,,3,,,62,0
118016,note_on,,,,,0,0,4,,,,,3,,,60,90
118144,note_on,,,,,0,0,2,,,,,1,,,74,93
118144,note_on,,,,,0,0,4,,,,,3,,,58,90
118144,note_off,,,,,128,0,1,,,,,0,,,77,0
118144,note_on,,,,,0,0,1,,,,,0,,,77,109
118144,note_off,,,,,128,0,4,,,,,3,,,60,0
118144,note_off,,,,,128,0,3,,,,,2,,,72,0
118144,note_off,,,,,128,0,2,,,,,1,,,74,0
118144,note_on,,,,,0,0,3,,,,,2,,,70,90
118272,note_off,,,,,128,0,4,,,,,3,,,58,0
118272,note_off,,,,,128,0,3,,,,,2,,,70,0
118272,note_on,,,,,0,0,4,,,,,3,,,57,90
118272,note_on,,,,,0,0,1,,,,,0,,,77,109
118272,note_off,,,,,128,0,1,,,,,0,,,77,0
118272,note_on,,,,,0,0,2,,,,,1,,,75,93
118272,note_off,,,,,128,0,2,,,,,1,,,74,0
118272,note_on,,,,,0,0,3,,,,,2,,,69,90
118400,note_on,,,,,0,0,1,,,,,0,,,77,109
118400,note_off,,,,,128,0,1,,,,,0,,,77,0
118400,note_on,,,,,0,0,2,,,,,1,,,75,93
118400,note_off,,,,,128,0,2,,,,,1,,,75,0
118464,note_off,,,,,192,0,4,,,,,3,,,57,0
118464,note_off,,,,,192,0,3,,,,,2,,,69,0
118528,note_off,,,,,128,0,1,,,,,0,,,77,0
118528,note_on,,,,,0,0,1,,,,,0,,,77,109
118528,note_off,,,,,128,0,2,,,,,1,,,75,0
118528,note_on,,,,,0,0,2,,,,,1,,,75,93
118656,note_on,,,,,192,0,4,,,,,3,,,53,90
118656,note_on,,,,,192,0,3,,,,,2,,,65,90
118656,note_off,,,,,128,0,2,,,,,1,,,75,0
118656,note_off,,,,,128,0,1,,,,,0,,,77,0
118656,note_on,,,,,0,0,2,,,,,1,,,75,93
118656,note_on,,,,,0,0,1,,,,,0,,,77,109
118784,note_off,,,,,128,0,1,,,,,0,,,77,0
118784,note_on,,,,,0,0,1,,,,,0,,,77,109
118784,note_off,,,,,128,0,2,,,,,1,,,75,0
118784,note_on,,,,,0,0,2,,,,,1,,,75,93
118848,note_off,,,,,192,0,4,,,,,3,,,53,0
118848,note_off,,,,,192,0,3,,,,,2,,,65,0
118912,note_off,,,,,128,0,1,,,,,0,,,77,0
118912,note_on,,,,,0,0,2,,,,,1,,,75,93
118912,note_on,,,,,0,0,1,,,,,0,,,77,109
118912,note_off,,,,,128,0,2,,,,,1,,,75,0
119040,note_off,,,,,128,0,1,,,,,0,,,77,0
119040,note_on,,,,,0,0,2,,,,,1,,,75,93
119040,note_off,,,,,128,0,2,,,,,1,,,75,0
119040,note_on,,,,,0,0,1,,,,,0,,,77,109
119168,note_off,,,,,128,0,2,,,,,1,,,75,0
119168,note_off,,,,,128,0,1,,,,,0,,,77,0
119168,note_on,,,,,0,0,2,,,,,1,,,75,93
119168,note_on,,,,,0,0,1,,,,,0,,,77,109
119296,note_on,,,,,0,0,1,,,,,0,,,77,109
119296,note_off,,,,,128,0,1,,,,,0,,,77,0
119296,note_off,,,,,128,0,2,,,,,1,,,75,0
119296,note_on,,,,,0,0,2,,,,,1,,,75,93
119424,note_off,,,,,128,0,1,,,,,0,,,77,0
119424,note_off,,,,,128,0,2,,,,,1,,,75,0
119424,note_on,,,,,0,0,2,,,,,1,,,75,93
119424,note_on,,,,,0,0,1,,,,,0,,,81,109
119552,note_on,,,,,0,0,1,,,,,0,,,79,109
119552,note_off,,,,,128,0,1,,,,,0,,,81,0
119552,note_on,,,,,0,0,2,,,,,1,,,75,93
119552,note_off,,,,,128,0,2,,,,,1,,,75,0
119680,note_off,,,,,128,0,1,,,,,0,,,79,0
119680,note_on,,,,,0,0,1,,,,,0,,,77,109
119680,note_on,,,,,0,0,2,,,,,1,,,75,93
119680,note_off,,,,,128,0,2,,,,,1,,,75,0
119808,note_on,,,,,960,0,3,,,,,2,,,58,90
119808,note_on,,,,,960,0,4,,,,,3,,,46,90
119808,note_off,,,,,128,0,1,,,,,0,,,77,0
119808,note_on,,,,,0,0,1,,,,,0,,,82,109
119808,note_off,,,,,128,0,2,,,,,1,,,75,0
119808,note_on,,,,,0,0,2,,,,,1,,,74,93
119808,note_on,,,,,0,0,2,,,,,1,,,65,93
119936,note_off,,,,,128,0,1,,,,,0,,,82,0
119936,note_on,,,,,0,0,1,,,,,0,,,77,109
119936,note_off,,,,,128,0,2,,,,,1,,,74,0
119936,note_off,,,,,0,0,2,,,,,1,,,65,0
119936,note_on,,,,,0,0,2,,,,,1,,,74,93
119936,note_on,,,,,0,0,2,,,,,1,,,65,93
120000,note_off,,,,,192,0,4,,,,,3,,,46,0
120000,note_off,,,,,192,0,3,,,,,2,,,58,0
120064,note_off,,,,,128,0,1,,,,,0,,,77,0
120064,note_on,,,,,0,0,1,,,,,0,,,77,109
120064,note_on,,,,,0,0,2,,,,,1,,,65,93
120064,note_on,,,,,0,0,2,,,,,1,,,74,93
120064,note_off,,,,,0,0,2,,,,,1,,,65,0
120064,note_off,,,,,128,0,2,,,,,1,,,74,0
120192,note_on,,,,,0,0,2,,,,,1,,,65,93
120192,note_on,,,,,192,0,4,,,,,3,,,58,90
120192,note_off,,,,,128,0,1,,,,,0,,,77,0
120192,note_off,,,,,0,0,2,,,,,1,,,65,0
120192,note_on,,,,,0,0,1,,,,,0,,,77,109
120192,note_off,,,,,128,0,2,,,,,1,,,74,0
120192,note_on,,,,,192,0,3,,,,,2,,,70,90
120192,note_on,,,,,0,0,2,,,,,1,,,74,93
120320,note_on,,,,,0,0,1,,,,,0,,,77,109
120320,note_off,,,,,128,0,1,,,,,0,,,77,0
120320,note_on,,,,,0,0,2,,,,,1,,,65,93
120320,note_on,,,,,0,0,2,,,,,1,,,74,93
120320,note_off,,,,,128,0,2,,,,,1,,,74,0
120320,note_off,,,,,0,0,2,,,,,1,,,65,0
120384,note_off,,,,,192,0,3,,,,,2,,,70,0
120384,note_off,,,,,192,0,4,,,,,3,,,58,0
120448,note_off,,,,,128,0,2,,,,,1,,,65,0
120448,note_on,,,,,0,0,1,,,,,0,,,77,109
120448,note_off,,,,,0,0,2,,,,,1,,,74,0
120448,note_on,,,,,0,0,2,,,,,1,,,74,93
120448,note_off,,,,,128,0,1,,,,,0,,,77,0
120448,note_on,,,,,0,0,2,,,,,1,,,65,93
120576,note_off,,,,,0,0,2,,,,,1,,,74,0
120576,note_off,,,,,128,0,1,,,,,0,,,77,0
120576,note_on,,,,,0,0,1,,,,,0,,,77,109
120576,note_off,,,,,128,0,2,,,,,1,,,65,0
120576,note_on,,,,,0,0,2,,,,,1,,,65,93
120576,note_on,,,,,0,0,2,,,,,1,,,74,93
120704,note_off,,,,,128,0,2,,,,,1,,,65,0
120704,note_off,,,,,128,0,1,,,,,0,,,77,0
120704,note_on,,,,,0,0,2,,,,,1,,,74,93
120704,note_on,,,,,0,0,2,,,,,1,,,65,93
120704,note_on,,,,,0,0,1,,,,,0,,,77,109
120704,note_off,,,,,0,0,2,,,,,1,,,74,0
120832,note_on,,,,,0,0,2,,,,,1,,,74,93
120832,note_on,,,,,0,0,2,,,,,1,,,65,93
120832,note_off,,,,,128,0,2,,,,,1,,,74,0
120832,note_off,,,,,128,0,1,,,,,0,,,77,0
120832,note_on,,,,,0,0,1,,,,,0,,,77,109
120832,note_off,,,,,0,0,2,,,,,1,,,65,0
120960,note_off,,,,,128,0,1,,,,,0,,,77,0
120960,note_on,,,,,0,0,1,,,,,0,,,77,109
120960,note_on,,,,,0,0,2,,,,,1,,,74,93
120960,note_on,,,,,576,0,4,,,,,3,,,62,90
120960,note_off,,,,,128,0,2,,,,,1,,,65,0
120960,note_off,,,,,0,0,2,,,,,1,,,74,0
120960,note_on,,,,,0,0,2,,,,,1,,,65,93
120960,note_on,,,,,576,0,3,,,,,2,,,74,90
121088,note_off,,,,,128,0,3,,,,,2,,,74,0
121088,note_on,,,,,0,0,1,,,,,0,,,77,109
121088,note_off,,,,,128,0,1,,,,,0,,,77,0
121088,note_on,,,,,0,0,4,,,,,3,,,60,90
121088,note_off,,,,,128,0,4,,,,,3,,,62,0
121088,note_off,,,,,128,0,2,,,,,1,,,65,0
121088,note_on,,,,,0,0,2,,,,,1,,,65,93
121088,note_on,,,,,0,0,2,,,,,1,,,74,93
121088,note_off,,,,,0,0,2,,,,,1,,,74,0
121088,note_on,,,,,0,0,3,,,,,2,,,72,90
121216,note_off,,,,,0,0,2,,,,,1,,,74,0
121216,note_on,,,,,0,0,2,,,,,1,,,74,93
121216,note_on,,,,,0,0,2,,,,,1,,,65,93
121216,note_on,,,,,0,0,1,,,,,0,,,77,109
121216,note_off,,,,,128,0,1,,,,,0,,,77,0
121216,note_off,,,,,128,0,3,,,,,2,,,72,0
121216,note_on,,,,,0,0,4,,,,,3,,,58,90
121216,note_off,,,,,128,0,2,,,,,1,,,65,0
121216,note_on,,,,,0,0,3,,,,,2,,,70,90
121216,note_off,,,,,128,0,4,,,,,3,,,60,0
121344,note_off,,,,,128,0,3,,,,,2,,,70,0
121344,note_off,,,,,128,0,1,,,,,0,,,77,0
121344,note_on,,,,,0,0,2,,,,,1,,,75,93
121344,note_on,,,,,0,0,2,,,,,1,,,65,93
121344,note_off,,,,,128,0,2,,,,,1,,,74,0
121344,note_on,,,,,0,0,3,,,,,2,,,69,90
121344,note_on,,,,,0,0,1,,,,,0,,,77,109
121344,note_off,,,,,0,0,2,,,,,1,,,65,0
121344,note_on,,,,,0,0,4,,,,,3,,,57,90
121344,note_off,,,,,128,0,4,,,,,3,,,58,0
121472,note_off,,,,,128,0,1,,,,,0,,,77,0
121472,note_on,,,,,0,0,2,,,,,1,,,65,93
121472,note_on,,,,,0,0,2,,,,,1,,,75,93
121472,note_on,,,,,0,0,1,,,,,0,,,77,109
121472,note_off,,,,,0,0,2,,,,,1,,,75,0
121472,note_off,,,,,128,0,2,,,,,1,,,65,0
121536,note_off,,,,,192,0,4,,,,,3,,,57,0
121536,note_off,,,,,192,0,3,,,,,2,,,69,0
121600,note_on,,,,,0,0,2,,,,,1,,,75,93
121600,note_off,,,,,0,0,2,,,,,1,,,65,0
121600,note_off,,,,,128,0,2,,,,,1,,,75,0
121600,note_on,,,,,0,0,2,,,,,1,,,65,93
121600,note_off,,,,,128,0,1,,,,,0,,,77,0
121600,note_on,,,,,0,0,1,,,,,0,,,77,109
121728,note_on,,,,,192,0,3,,,,,2,,,65,90
121728,note_off,,,,,128,0,1,,,,,0,,,77,0
121728,note_on,,,,,192,0,4,,,,,3,,,53,90
121728,note_on,,,,,0,0,1,,,,,0,,,77,109
121728,note_on,,,,,0,0,2,,,,,1,,,65,93
121728,note_on,,,,,0,0,2,,,,,1,,,75,93
121728,note_off,,,,,0,0,2,,,,,1,,,65,0
121728,note_off,,,,,128,0,2,,,,,1,,,75,0
121856,note_off,,,,,0,0,2,,,,,1,,,65,0
121856,note_off,,,,,128,0,2,,,,,1,,,75,0
121856,note_on,,,,,0,0,2,,,,,1,,,75,93
121856,note_on,,,,,0,0,2,,,,,1,,,65,93
121856,note_off,,,,,128,0,1,,,,,0,,,77,0
121856,note_on,,,,,0,0,1,,,,,0,,,77,109
121920,note_off,,,,,192,0,3,,,,,2,,,65,0
121920,note_off,,,,,192,0,4,,,,,3,,,53,0
121984,note_off,,,,,128,0,2,,,,,1,,,75,0
121984,note_off,,,,,0,0,2,,,,,1,,,65,0
121984,note_on,,,,,0,0,2,,,,,1,,,75,93
121984,note_on,,,,,0,0,2,,,,,1,,,65,93
121984,note_off,,,,,128,0,1,,,,,0,,,77,0
121984,note_on,,,,,0,0,1,,,,,0,,,77,109
122112,note_on,,,,,0,0,2,,,,,1,,,65,93
122112,note_on,,,,,0,0,2,,,,,1,,,75,93
122112,note_off,,,,,0,0,2,,,,,1,,,65,0
122112,note_off,,,,,128,0,2,,,,,1,,,75,0
122112,note_off,,,,,128,0,1,,,,,0,,,77,0
122112,note_on,,,,,0,0,1,,,,,0,,,77,109
122240,note_on,,,,,0,0,2,,,,,1,,,75,93
122240,note_on,,,,,0,0,2,,,,,1,,,65,93
122240,note_off,,,,,128,0,1,,,,,0,,,77,0
122240,note_off,,,,,128,0,2,,,,,1,,,75,0
122240,note_on,,,,,0,0,1,,,,,0,,,77,109
122240,note_off,,,,,0,0,2,,,,,1,,,65,0
122368,note_on,,,,,0,0,1,,,,,0,,,77,109
122368,note_off,,,,,128,0,1,,,,,0,,,77,0
122368,note_off,,,,,128,0,2,,,,,1,,,75,0
122368,note_off,,,,,0,0,2,,,,,1,,,65,0
122368,note_on,,,,,0,0,2,,,,,1,,,75,93
122368,note_on,,,,,0,0,2,,,,,1,,,65,93
122496,note_on,,,,,0,0,2,,,,,1,,,65,93
122496,note_on,,,,,0,0,2,,,,,1,,,75,93
122496,note_off,,,,,0,0,2,,,,,1,,,65,0
122496,note_off,,,,,128,0,2,,,,,1,,,75,0
122496,note_on,,,,,0,0,1,,,,,0,,,81,109
122496,note_off,,,,,128,0,1,,,,,0,,,77,0
122624,note_off,,,,,0,0,2,,,,,1,,,65,0
122624,note_off,,,,,128,0,2,,,,,1,,,75,0
122624,note_on,,,,,0,0,2,,,,,1,,,75,93
122624,note_on,,,,,0,0,2,,,,,1,,,65,93
122624,note_on,,,,,0,0,1,,,,,0,,,79,109
122624,note_off,,,,,128,0,1,,,,,0,,,81,0
122752,note_on,,,,,0,0,2,,,,,1,,,75,93
122752,note_off,,,,,128,0,1,,,,,0,,,79,0
122752,note_on,,,,,0,0,1,,,,,0,,,77,109
122752,note_off,,,,,128,0,2,,,,,1,,,75,0
122752,note_off,,,,,0,0,2,,,,,1,,,65,0
122752,note_on,,,,,0,0,2,,,,,1,,,65,93
122880,note_on,,,,,960,0,4,,,,,3,,,46,90
122880,note_on,,,,,960,0,3,,,,,2,,,58,90
122880,note_off,,,,,0,0,2,,,,,1,,,65,0
122880,note_on,,,,,0,0,2,,,,,1,,,65,93
122880,note_on,,,,,0,0,2,,,,,1,,,74,93
122880,note_off,,,,,128,0,1,,,,,0,,,77,0
122880,note_on,,,,,0,0,1,,,,,0,,,82,109
122880,note_off,,,,,128,0,2,,,,,1,,,75,0
123008,note_on,,,,,0,0,2,,,,,1,,,65,93
123008,note_on,,,,,0,0,2,,,,,1,,,74,93
123008,note_off,,,,,0,0,2,,,,,1,,,74,0
123008,note_off,,,,,128,0,2,,,,,1,,,65,0
123008,note_off,,,,,128,0,1,,,,,0,,,82,0
123008,note_on,,,,,0,0,1,,,,,0,,,82,109
123136,note_off,,,,,128,0,2,,,,,1,,,74,0
123136,note_off,,,,,0,0,2,,,,,1,,,65,0
123136,note_on,,,,,0,0,2,,,,,1,,,74,93
123136,note_on,,,,,0,0,2,,,,,1,,,65,93
123136,note_on,,,,,0,0,1,,,,,0,,,82,109
123136,note_off,,,,,128,0,1,,,,,0,,,82,0
123264,note_off,,,,,0,0,2,,,,,1,,,65,0
123264,note_on,,,,,0,0,2,,,,,1,,,74,93
123264,note_on,,,,,0,0,3,,,,,2,,,74,90
123264,note_off,,,,,384,0,3,,,,,2,,,58,0
123264,note_off,,,,,128,0,2,,,,,1,,,74,0
123264,note_off,,,,,384,0,4,,,,,3,,,46,0
123264,note_on,,,,,0,0,1,,,,,0,,,86,109
123264,note_on,,,,,0,0,4,,,,,3,,,62,90
123264,note_off,,,,,128,0,1,,,,,0,,,82,0
123392,note_on,,,,,0,0,3,,,,,2,,,74,90
123392,note_on,,,,,0,0,1,,,,,0,,,86,109
123392,note_off,,,,,128,0,1,,,,,0,,,86,0
123392,note_off,,,,,128,0,2,,,,,1,,,74,0
123392,note_off,,,,,128,0,3,,,,,2,,,74,0
123392,note_on,,,,,0,0,2,,,,,1,,,74,93
123520,note_on,,,,,0,0,1,,,,,0,,,86,109
123520,note_off,,,,,128,0,1,,,,,0,,,86,0
123520,note_off,,,,,128,0,2,,,,,1,,,74,0
123520,note_on,,,,,0,0,2,,,,,1,,,74,93
123520,note_off,,,,,128,0,3,,,,,2,,,74,0
123520,note_on,,,,,0,0,3,,,,,2,,,74,90
123648,note_on,,,,,0,0,2,,,,,1,,,67,93
123648,note_on,,,,,0,0,1,,,,,0,,,79,109
123648,note_off,,,,,128,0,1,,,,,0,,,86,0
123648,note_off,,,,,128,0,3,,,,,2,,,74,0
123648,note_on,,,,,0,0,3,,,,,2,,,70,90
123648,note_off,,,,,128,0,2,,,,,1,,,74,0
123648,note_on,,,,,0,0,4,,,,,3,,,55,90
123648,note_off,,,,,384,0,4,,,,,3,,,62,0
123776,note_on,,,,,0,0,3,,,,,2,,,70,90
123776,note_off,,,,,128,0,2,,,,,1,,,67,0
123776,note_on,,,,,0,0,2,,,,,1,,,67,93
123776,note_on,,,,,0,0,1,,,,,0,,,79,109
123776,note_off,,,,,128,0,1,,,,,0,,,79,0
123776,note_off,,,,,128,0,3,,,,,2,,,70,0
123904,note_on,,,,,0,0,2,,,,,1,,,67,93
123904,note_off,,,,,128,0,2,,,,,1,,,67,0
123904,note_off,,,,,128,0,1,,,,,0,,,79,0
123904,note_on,,,,,0,0,1,,,,,0,,,79,109
123904,note_off,,,,,128,0,3,,,,,2,,,70,0
123904,note_on,,,,,0,0,3,,,,,2,,,70,90
124032,note_off,,,,,128,0,3,,,,,2,,,70,0
124032,note_off,,,,,384,0,4,,,,,3,,,55,0
124032,note_on,,,,,0,0,2,,,,,1,,,70,93
124032,note_off,,,,,128,0,2,,,,,1,,,67,0
124032,note_on,,,,,0,0,3,,,,,2,,,74,90
124032,note_off,,,,,128,0,1,,,,,0,,,79,0
124032,note_on,,,,,0,0,1,,,,,0,,,82,109
124032,note_on,,,,,0,0,4,,,,,3,,,58,90
124160,note_off,,,,,128,0,3,,,,,2,,,74,0
124160,note_on,,,,,0,0,1,,,,,0,,,82,109
124160,note_off,,,,,128,0,1,,,,,0,,,82,0
124160,note_off,,,,,128,0,2,,,,,1,,,70,0
124160,note_on,,,,,0,0,2,,,,,1,,,70,93
124160,note_on,,,,,0,0,3,,,,,2,,,74,90
124288,note_off,,,,,128,0,1,,,,,0,,,82,0
124288,note_on,,,,,0,0,1,,,,,0,,,82,109
124288,note_on,,,,,0,0,2,,,,,1,,,70,93
124288,note_off,,,,,128,0,3,,,,,2,,,74,0
124288,note_on,,,,,0,0,3,,,,,2,,,74,90
124288,note_off,,,,,128,0,2,,,,,1,,,70,0
124416,note_off,,,,,128,0,2,,,,,1,,,70,0
124416,note_off,,,,,128,0,3,,,,,2,,,74,0
124416,note_on,,,,,0,0,3,,,,,2,,,63,90
124416,note_on,,,,,0,0,4,,,,,3,,,51,90
124416,note_off,,,,,384,0,4,,,,,3,,,58,0
124416,note_on,,,,,0,0,2,,,,,1,,,63,93
124416,note_off,,,,,128,0,1,,,,,0,,,82,0
124416,note_on,,,,,0,0,1,,,,,0,,,75,109
124544,note_on,,,,,0,0,3,,,,,2,,,63,90
124544,note_off,,,,,128,0,1,,,,,0,,,75,0
124544,note_on,,,,,0,0,1,,,,,0,,,75,109
124544,note_off,,,,,128,0,2,,,,,1,,,63,0
124544,note_on,,,,,0,0,2,,,,,1,,,63,93
124544,note_off,,,,,128,0,3,,,,,2,,,63,0
124672,note_off,,,,,128,0,2,,,,,1,,,63,0
124672,note_off,,,,,128,0,3,,,,,2,,,63,0
124672,note_on,,,,,0,0,3,,,,,2,,,63,90
124672,note_on,,,,,0,0,2,,,,,1,,,63,93
124672,note_off,,,,,128,0,1,,,,,0,,,75,0
124672,note_on,,,,,0,0,1,,,,,0,,,75,109
124800,note_off,,,,,128,0,3,,,,,2,,,63,0
124800,note_on,,,,,0,0,1,,,,,0,,,79,109
124800,note_off,,,,,128,0,2,,,,,1,,,63,0
124800,note_off,,,,,384,0,4,,,,,3,,,51,0
124800,note_on,,,,,0,0,4,,,,,3,,,55,90
124800,note_on,,,,,0,0,2,,,,,1,,,67,93
124800,note_on,,,,,0,0,3,,,,,2,,,67,90
124800,note_off,,,,,128,0,1,,,,,0,,,75,0
124928,note_off,,,,,128,0,2,,,,,1,,,67,0
124928,note_on,,,,,0,0,2,,,,,1,,,67,93
124928,note_on,,,,,0,0,3,,,,,2,,,67,90
124928,note_on,,,,,0,0,1,,,,,0,,,79,109
124928,note_off,,,,,128,0,3,,,,,2,,,67,0
124928,note_off,,,,,128,0,1,,,,,0,,,79,0
125056,note_on,,,,,0,0,2,,,,,1,,,67,93
125056,note_off,,,,,128,0,3,,,,,2,,,67,0
125056,note_on,,,,,0,0,3,,,,,2,,,67,90
125056,note_on,,,,,0,0,1,,,,,0,,,79,109
125056,note_off,,,,,128,0,2,,,,,1,,,67,0
125056,note_off,,,,,128,0,1,,,,,0,,,79,0
125184,note_on,,,,,0,0,2,,,,,1,,,60,93
125184,note_off,,,,,128,0,1,,,,,0,,,79,0
125184,note_on,,,,,0,0,1,,,,,0,,,72,109
125184,note_off,,,,,128,0,3,,,,,2,,,67,0
125184,note_on,,,,,0,0,3,,,,,2,,,60,90
125184,note_off,,,,,128,0,2,,,,,1,,,67,0
125184,note_off,,,,,384,0,4,,,,,3,,,55,0
125184,note_on,,,,,0,0,4,,,,,3,,,48,90
125312,note_off,,,,,128,0,3,,,,,2,,,60,0
125312,note_on,,,,,0,0,2,,,,,1,,,60,93
125312,note_on,,,,,0,0,3,,,,,2,,,60,90
125312,note_on,,,,,0,0,1,,,,,0,,,72,109
125312,note_off,,,,,128,0,1,,,,,0,,,72,0
125312,note_off,,,,,128,0,2,,,,,1,,,60,0
125440,note_off,,,,,128,0,1,,,,,0,,,72,0
125440,note_on,,,,,0,0,3,,,,,2,,,60,90
125440,note_off,,,,,128,0,3,,,,,2,,,60,0
125440,note_off,,,,,128,0,2,,,,,1,,,60,0
125440,note_on,,,,,0,0,2,,,,,1,,,60,93
125440,note_on,,,,,0,0,1,,,,,0,,,72,109
125568,note_off,,,,,128,0,1,,,,,0,,,72,0
125568,note_on,,,,,0,0,1,,,,,0,,,75,109
125568,note_on,,,,,0,0,2,,,,,1,,,63,93
125568,note_off,,,,,128,0,3,,,,,2,,,60,0
125568,note_on,,,,,0,0,4,,,,,3,,,51,90
125568,note_off,,,,,384,0,4,,,,,3,,,48,0
125568,note_off,,,,,128,0,2,,,,,1,,,60,0
125568,note_on,,,,,0,0,3,,,,,2,,,63,90
125696,note_off,,,,,128,0,3,,,,,2,,,63,0
125696,note_on,,,,,0,0,1,,,,,0,,,75,109
125696,note_off,,,,,128,0,1,,,,,0,,,75,0
125696,note_on,,,,,0,0,2,,,,,1,,,63,93
125696,note_off,,,,,128,0,2,,,,,1,,,63,0
125696,note_on,,,,,0,0,3,,,,,2,,,63,90
125824,note_on,,,,,0,0,1,,,,,0,,,75,109
125824,note_off,,,,,128,0,1,,,,,0,,,75,0
125824,note_on,,,,,0,0,3,,,,,2,,,63,90
125824,note_off,,,,,128,0,3,,,,,2,,,63,0
125824,note_on,,,,,0,0,2,,,,,1,,,63,93
125824,note_off,,,,,128,0,2,,,,,1,,,63,0
125952,note_on,,,,,0,0,2,,,,,1,,,57,93
125952,note_on,,,,,0,0,4,,,,,3,,,45,90
125952,note_off,,,,,128,0,2,,,,,1,,,63,0
125952,note_off,,,,,384,0,4,,,,,3,,,51,0
125952,note_on,,,,,0,0,1,,,,,0,,,69,109
125952,note_off,,,,,128,0,1,,,,,0,,,75,0
125952,note_off,,,,,128,0,3,,,,,2,,,63,0
125952,note_on,,,,,0,0,3,,,,,2,,,57,90
126336,note_off,,,,,384,0,2,,,,,1,,,57,0
126336,note_off,,,,,384,0,4,,,,,3,,,45,0
126336,note_off,,,,,384,0,1,,,,,0,,,69,0
126336,note_off,,,,,384,0,3,,,,,2,,,57,0
126720,note_on,,,,,384,0,4,,,,,3,,,57,90
126720,note_on,,,,,384,0,3,,,,,2,,,69,90
126720,note_on,,,,,384,0,1,,,,,0,,,79,109
126720,note_on,,,,,0,0,1,,,,,0,,,75,109
126720,note_on,,,,,384,0,2,,,,,1,,,72,93
127104,note_off,,,,,384,0,4,,,,,3,,,57,0
127104,note_off,,,,,0,0,1,,,,,0,,,75,0
127104,note_off,,,,,384,0,1,,,,,0,,,79,0
127104,note_off,,,,,384,0,3,,,,,2,,,69,0
127104,note_off,,,,,384,0,2,,,,,1,,,72,0
128640,note_on,,,,,1536,0,3,,,,,2,,,69,90
128640,note_on,,,,,1536,0,1,,,,,0,,,79,109
128640,note_on,,,,,1536,0,2,,,,,1,,,75,93
129024,note_on,,,,,0,0,1,,,,,0,,,77,109
129024,note_off,,,,,384,0,3,,,,,2,,,69,0
129024,note_off,,,,,384,0,1,,,,,0,,,79,0
129024,note_on,,,,,0,0,2,,,,,1,,,74,93
129024,note_on,,,,,0,0,3,,,,,2,,,70,90
129024,note_off,,,,,384,0,2,,,,,1,,,75,0
129216,note_off,,,,,192,0,3,,,,,2,,,70,0
129216,note_off,,,,,192,0,2,,,,,1,,,74,0
129216,note_off,,,,,192,0,1,,,,,0,,,77,0
129408,note_on,,,,,192,0,1,,,,,0,,,82,109
129536,note_on,,,,,0,0,1,,,,,0,,,81,109
129536,note_off,,,,,128,0,1,,,,,0,,,82,0
129664,note_on,,,,,0,0,1,,,,,0,,,82,109
129664,note_off,,,,,128,0,1,,,,,0,,,81,0
129792,note_on,,,,,0,0,1,,,,,0,,,86,109
129792,note_off,,,,,128,0,1,,,,,0,,,82,0
130176,note_off,,,,,384,0,1,,,,,0,,,86,0
130560,note_on,,,,,45696,0,5,,,,,4,,,46,90
130944,note_off,,,,,384,0,5,,,,,4,,,46,0
131712,note_on,,,,,1536,0,1,,,,,0,,,79,109
131712,note_on,,,,,2496,0,2,,,,,1,,,75,93
131712,note_on,,,,,2496,0,3,,,,,2,,,69,90
132096,note_off,,,,,384,0,3,,,,,2,,,69,0
132096,note_on,,,,,0,0,3,,,,,2,,,70,90
132096,note_off,,,,,384,0,1,,,,,0,,,79,0
132096,note_on,,,,,0,0,1,,,,,0,,,77,109
132096,note_off,,,,,384,0,2,,,,,1,,,75,0
132096,note_on,,,,,0,0,2,,,,,1,,,74,93
132288,note_off,,,,,192,0,3,,,,,2,,,70,0
132288,note_off,,,,,192,0,2,,,,,1,,,74,0
132288,note_off,,,,,192,0,1,,,,,0,,,77,0
132480,note_on,,,,,192,0,1,,,,,0,,,82,109
132608,note_off,,,,,128,0,1,,,,,0,,,82,0
132608,note_on,,,,,0,0,1,,,,,0,,,81,109
132736,note_off,,,,,128,0,1,,,,,0,,,81,0
132736,note_on,,,,,0,0,1,,,,,0,,,82,109
132864,note_off,,,,,128,0,1,,,,,0,,,82,0
132864,note_on,,,,,0,0,1,,,,,0,,,86,109
133248,note_off,,,,,384,0,1,,,,,0,,,86,0
133248,note_on,,,,,0,0,1,,,,,0,,,79,109
133248,note_on,,,,,960,0,3,,,,,2,,,69,90
133248,note_on,,,,,960,0,2,,,,,1,,,75,93
133632,note_on,,,,,0,0,2,,,,,1,,,74,93
133632,note_off,,,,,384,0,2,,,,,1,,,75,0
133632,note_off,,,,,384,0,1,,,,,0,,,79,0
133632,note_on,,,,,0,0,3,,,,,2,,,70,90
133632,note_off,,,,,384,0,3,,,,,2,,,69,0
133632,note_on,,,,,0,0,1,,,,,0,,,77,109
133824,note_off,,,,,192,0,2,,,,,1,,,74,0
133824,note_off,,,,,192,0,3,,,,,2,,,70,0
133824,note_off,,,,,192,0,1,,,,,0,,,77,0
134016,note_on,,,,,192,0,1,,,,,0,,,82,109
134144,note_off,,,,,128,0,1,,,,,0,,,82,0
134144,note_on,,,,,0,0,1,,,,,0,,,81,109
134272,note_off,,,,,128,0,1,,,,,0,,,81,0
134272,note_on,,,,,0,0,1,,,,,0,,,82,109
134400,note_off,,,,,128,0,1,,,,,0,,,82,0
134400,note_on,,,,,0,0,1,,,,,0,,,86,109
134496,note_off,,,,,96,0,1,,,,,0,,,86,0
134784,note_on,,,,,288,0,1,,,,,0,,,77,109
134880,note_off,,,,,96,0,1,,,,,0,,,77,0
135168,note_on,,,,,288,0,1,,,,,0,,,82,109
135264,note_off,,,,,96,0,1,,,,,0,,,82,0
135552,note_on,,,,,288,0,1,,,,,0,,,74,109
135648,note_off,,,,,96,0,1,,,,,0,,,74,0
135936,note_on,,,,,288,0,1,,,,,0,,,77,109
136032,note_off,,,,,96,0,1,,,,,0,,,77,0
136320,note_on,,,,,2496,0,3,,,,,2,,,61,90
136320,note_on,,,,,288,0,1,,,,,0,,,79,109
136320,note_on,,,,,9216,0,4,,,,,3,,,52,90
136320,note_on,,,,,2496,0,2,,,,,1,,,70,93
136704,note_off,,,,,384,0,1,,,,,0,,,79,0
136704,note_on,,,,,0,0,1,,,,,0,,,70,109
136704,note_off,,,,,384,0,3,,,,,2,,,61,0
136704,note_off,,,,,384,0,2,,,,,1,,,70,0
136704,note_on,,,,,0,0,2,,,,,1,,,65,93
136704,note_off,,,,,384,0,4,,,,,3,,,52,0
136704,note_on,,,,,0,0,3,,,,,2,,,62,90
136704,note_on,,,,,0,0,4,,,,,3,,,53,90
137376,note_on,,,,,0,0,1,,,,,0,,,74,109
137376,note_off,,,,,672,0,1,,,,,0,,,70,0
137472,note_off,,,,,96,0,1,,,,,0,,,74,0
137472,note_off,,,,,768,0,3,,,,,2,,,62,0
137472,note_on,,,,,0,0,3,,,,,2,,,63,90
137472,note_off,,,,,768,0,2,,,,,1,,,65,0
137472,note_on,,,,,0,0,1,,,,,0,,,72,109
137472,note_on,,,,,0,0,2,,,,,1,,,69,93
137664,note_on,,,,,0,0,1,,,,,0,,,70,109
137664,note_off,,,,,192,0,1,,,,,0,,,72,0
137856,note_off,,,,,192,0,1,,,,,0,,,70,0
137856,note_on,,,,,0,0,1,,,,,0,,,72,109
138048,note_off,,,,,192,0,1,,,,,0,,,72,0
138048,note_on,,,,,0,0,1,,,,,0,,,74,109
138240,note_on,,,,,0,0,3,,,,,2,,,62,90
138240,note_off,,,,,768,0,2,,,,,1,,,69,0
138240,note_off,,,,,1536,0,4,,,,,3,,,53,0
138240,note_off,,,,,768,0,3,,,,,2,,,63,0
138240,note_on,,,,,0,0,2,,,,,1,,,70,93
138240,note_on,,,,,0,0,4,,,,,3,,,46,90
138240,note_off,,,,,192,0,1,,,,,0,,,74,0
138240,note_on,,,,,0,0,1,,,,,0,,,70,109
138432,note_off,,,,,192,0,2,,,,,1,,,70,0
138624,note_off,,,,,384,0,4,,,,,3,,,46,0
138624,note_on,,,,,0,0,1,,,,,0,,,82,109
138624,note_on,,,,,192,0,2,,,,,1,,,70,93
138624,note_off,,,,,384,0,3,,,,,2,,,62,0
138624,note_off,,,,,384,0,1,,,,,0,,,70,0
138752,note_off,,,,,128,0,1,,,,,0,,,82,0
138752,note_on,,,,,0,0,2,,,,,1,,,69,93
138752,note_off,,,,,128,0,2,,,,,1,,,70,0
138752,note_on,,,,,0,0,1,,,,,0,,,81,109
138880,note_off,,,,,128,0,2,,,,,1,,,69,0
138880,note_on,,,,,0,0,1,,,,,0,,,82,109
138880,note_on,,,,,0,0,2,,,,,1,,,70,93
138880,note_off,,,,,128,0,1,,,,,0,,,81,0
139008,note_off,,,,,128,0,1,,,,,0,,,82,0
139008,note_on,,,,,0,0,1,,,,,0,,,86,109
139008,note_off,,,,,128,0,2,,,,,1,,,70,0
139008,note_on,,,,,0,0,2,,,,,1,,,74,93
139104,note_off,,,,,96,0,2,,,,,1,,,74,0
139104,note_off,,,,,96,0,1,,,,,0,,,86,0
139392,note_on,,,,,288,0,2,,,,,1,,,65,93
139392,note_on,,,,,288,0,1,,,,,0,,,77,109
139488,note_off,,,,,96,0,1,,,,,0,,,77,0
139488,note_off,,,,,96,0,2,,,,,1,,,65,0
139776,note_on,,,,,288,0,1,,,,,0,,,82,109
139776,note_on,,,,,288,0,2,,,,,1,,,70,93
139872,note_off,,,,,96,0,1,,,,,0,,,82,0
139872,note_off,,,,,96,0,2,,,,,1,,,70,0
140160,note_on,,,,,288,0,2,,,,,1,,,62,93
140160,note_on,,,,,288,0,1,,,,,0,,,74,109
140256,note_off,,,,,96,0,2,,,,,1,,,62,0
140256,note_off,,,,,96,0,1,,,,,0,,,74,0
140544,note_on,,,,,288,0,2,,,,,1,,,65,93
140544,note_on,,,,,288,0,1,,,,,0,,,77,109
140640,note_off,,,,,96,0,1,,,,,0,,,77,0
140640,note_off,,,,,96,0,2,,,,,1,,,65,0
140928,note_on,,,,,2304,0,3,,,,,2,,,61,90
140928,note_on,,,,,288,0,1,,,,,0,,,79,109
140928,note_on,,,,,2304,0,4,,,,,3,,,52,90
140928,note_on,,,,,288,0,2,,,,,1,,,70,93
141312,note_on,,,,,0,0,4,,,,,3,,,53,90
141312,note_off,,,,,384,0,2,,,,,1,,,70,0
141312,note_on,,,,,0,0,2,,,,,1,,,65,93
141312,note_off,,,,,384,0,1,,,,,0,,,79,0
141312,note_on,,,,,0,0,1,,,,,0,,,70,109
141312,note_off,,,,,384,0,4,,,,,3,,,52,0
141312,note_off,,,,,384,0,3,,,,,2,,,61,0
141312,note_on,,,,,0,0,3,,,,,2,,,62,90
141984,note_on,,,,,0,0,1,,,,,0,,,74,109
141984,note_off,,,,,672,0,1,,,,,0,,,70,0
142080,note_on,,,,,0,0,2,,,,,1,,,69,93
142080,note_off,,,,,768,0,2,,,,,1,,,65,0
142080,note_on,,,,,0,0,1,,,,,0,,,72,109
142080,note_off,,,,,96,0,1,,,,,0,,,74,0
142080,note_off,,,,,768,0,3,,,,,2,,,62,0
142080,note_on,,,,,0,0,3,,,,,2,,,63,90
142272,note_on,,,,,0,0,1,,,,,0,,,70,109
142272,note_off,,,,,192,0,1,,,,,0,,,72,0
142464,note_on,,,,,0,0,1,,,,,0,,,72,109
142464,note_off,,,,,192,0,1,,,,,0,,,70,0
142656,note_off,,,,,192,0,1,,,,,0,,,72,0
142656,note_on,,,,,0,0,1,,,,,0,,,74,109
142848,note_off,,,,,192,0,1,,,,,0,,,74,0
142848,note_on,,,,,0,0,1,,,,,0,,,70,109
142848,note_on,,,,,0,0,4,,,,,3,,,46,90
142848,note_on,,,,,0,0,2,,,,,1,,,70,93
142848,note_off,,,,,1536,0,4,,,,,3,,,53,0
142848,note_off,,,,,768,0,2,,,,,1,,,69,0
142848,note_off,,,,,768,0,3,,,,,2,,,63,0
142848,note_on,,,,,0,0,3,,,,,2,,,62,90
142976,note_off,,,,,128,0,3,,,,,2,,,62,0
142976,note_on,,,,,0,0,3,,,,,2,,,62,90
142976,note_off,,,,,128,0,2,,,,,1,,,70,0
142976,note_on,,,,,0,0,2,,,,,1,,,65,93
143040,note_off,,,,,192,0,1,,,,,0,,,70,0
143104,note_off,,,,,128,0,3,,,,,2,,,62,0
143104,note_off,,,,,128,0,2,,,,,1,,,65,0
143104,note_on,,,,,0,0,3,,,,,2,,,62,90
143104,note_on,,,,,0,0,2,,,,,1,,,65,93
143232,note_on,,,,,192,0,1,,,,,0,,,86,109
143232,note_on,,,,,0,0,2,,,,,1,,,65,93
143232,note_off,,,,,384,0,4,,,,,3,,,46,0
143232,note_off,,,,,128,0,2,,,,,1,,,65,0
143232,note_on,,,,,0,0,3,,,,,2,,,62,90
143232,note_off,,,,,128,0,3,,,,,2,,,62,0
143360,note_on,,,,,0,0,2,,,,,1,,,65,93
143360,note_off,,,,,128,0,1,,,,,0,,,86,0
143360,note_on,,,,,0,0,1,,,,,0,,,84,109
143360,note_on,,,,,0,0,3,,,,,2,,,62,90
143360,note_off,,,,,128,0,3,,,,,2,,,62,0
143360,note_off,,,,,128,0,2,,,,,1,,,65,0
143488,note_off,,,,,128,0,2,,,,,1,,,65,0
143488,note_off,,,,,128,0,1,,,,,0,,,84,0
143488,note_off,,,,,128,0,3,,,,,2,,,62,0
143488,note_on,,,,,0,0,3,,,,,2,,,62,90
143488,note_on,,,,,0,0,1,,,,,0,,,82,109
143488,note_on,,,,,0,0,2,,,,,1,,,65,93
143616,note_off,,,,,128,0,2,,,,,1,,,65,0
143616,note_on,,,,,0,0,1,,,,,0,,,81,109
143616,note_off,,,,,128,0,1,,,,,0,,,82,0
143616,note_off,,,,,128,0,3,,,,,2,,,62,0
143616,note_on,,,,,0,0,3,,,,,2,,,63,90
143616,note_on,,,,,384,0,4,,,,,3,,,41,90
143616,note_on,,,,,0,0,2,,,,,1,,,65,93
143712,note_off,,,,,96,0,1,,,,,0,,,81,0
143744,note_off,,,,,128,0,3,,,,,2,,,63,0
143744,note_on,,,,,0,0,3,,,,,2,,,63,90
143744,note_on,,,,,0,0,2,,,,,1,,,65,93
143744,note_off,,,,,128,0,2,,,,,1,,,65,0
143872,note_off,,,,,128,0,3,,,,,2,,,63,0
143872,note_on,,,,,0,0,3,,,,,2,,,63,90
143872,note_off,,,,,128,0,2,,,,,1,,,65,0
143872,note_on,,,,,0,0,2,,,,,1,,,65,93
144000,note_on,,,,,288,0,1,,,,,0,,,65,109
144000,note_on,,,,,0,0,3,,,,,2,,,63,90
144000,note_off,,,,,128,0,2,,,,,1,,,65,0
144000,note_on,,,,,0,0,2,,,,,1,,,65,93
144000,note_off,,,,,128,0,3,,,,,2,,,63,0
144000,note_off,,,,,384,0,4,,,,,3,,,41,0
144128,note_off,,,,,128,0,3,,,,,2,,,63,0
144128,note_off,,,,,128,0,2,,,,,1,,,65,0
144128,note_on,,,,,0,0,2,,,,,1,,,65,93
144128,note_off,,,,,128,0,1,,,,,0,,,65,0
144128,note_on,,,,,0,0,1,,,,,0,,,67,109
144128,note_on,,,,,0,0,3,,,,,2,,,63,90
144256,note_off,,,,,128,0,1,,,,,0,,,67,0
144256,note_off,,,,,128,0,3,,,,,2,,,63,0
144256,note_on,,,,,0,0,3,,,,,2,,,63,90
144256,note_on,,,,,0,0,1,,,,,0,,,69,109
144256,note_off,,,,,128,0,2,,,,,1,,,65,0
144256,note_on,,,,,0,0,2,,,,,1,,,65,93
144384,note_off,,,,,128,0,1,,,,,0,,,69,0
144384,note_on,,,,,0,0,3,,,,,2,,,62,90
144384,note_on,,,,,0,0,1,,,,,0,,,70,109
144384,note_on,,,,,384,0,4,,,,,3,,,46,90
144384,note_off,,,,,128,0,3,,,,,2,,,63,0
144384,note_off,,,,,128,0,2,,,,,1,,,65,0
144384,note_on,,,,,0,0,2,,,,,1,,,65,93
144480,note_off,,,,,96,0,1,,,,,0,,,70,0
144512,note_off,,,,,128,0,2,,,,,1,,,65,0
144512,note_on,,,,,0,0,2,,,,,1,,,65,93
144512,note_on,,,,,0,0,3,,,,,2,,,62,90
144512,note_off,,,,,128,0,3,,,,,2,,,62,0
144640,note_off,,,,,128,0,2,,,,,1,,,65,0
144640,note_on,,,,,0,0,2,,,,,1,,,65,93
144640,note_off,,,,,128,0,3,,,,,2,,,62,0
144640,note_on,,,,,0,0,3,,,,,2,,,62,90
144768,note_off,,,,,128,0,3,,,,,2,,,62,0
144768,note_on,,,,,0,0,3,,,,,2,,,62,90
144768,note_on,,,,,288,0,1,,,,,0,,,86,109
144768,note_off,,,,,384,0,4,,,,,3,,,46,0
144768,note_on,,,,,0,0,2,,,,,1,,,65,93
144768,note_off,,,,,128,0,2,,,,,1,,,65,0
144896,note_off,,,,,128,0,2,,,,,1,,,65,0
144896,note_off,,,,,128,0,1,,,,,0,,,86,0
144896,note_on,,,,,0,0,1,,,,,0,,,84,109
144896,note_off,,,,,128,0,3,,,,,2,,,62,0
144896,note_on,,,,,0,0,3,,,,,2,,,62,90
144896,note_on,,,,,0,0,2,,,,,1,,,65,93
145024,note_off,,,,,128,0,3,,,,,2,,,62,0
145024,note_on,,,,,0,0,3,,,,,2,,,62,90
145024,note_off,,,,,128,0,2,,,,,1,,,65,0
145024,note_on,,,,,0,0,1,,,,,0,,,82,109
145024,note_off,,,,,128,0,1,,,,,0,,,84,0
145024,note_on,,,,,0,0,2,,,,,1,,,65,93
145152,note_off,,,,,128,0,3,,,,,2,,,62,0
145152,note_on,,,,,0,0,2,,,,,1,,,65,93
145152,note_on,,,,,384,0,4,,,,,3,,,41,90
145152,note_on,,,,,0,0,1,,,,,0,,,81,109
145152,note_off,,,,,128,0,1,,,,,0,,,82,0
145152,note_off,,,,,128,0,2,,,,,1,,,65,0
145152,note_on,,,,,0,0,3,,,,,2,,,63,90
145248,note_off,,,,,96,0,1,,,,,0,,,81,0
145280,note_off,,,,,128,0,3,,,,,2,,,63,0
145280,note_on,,,,,0,0,3,,,,,2,,,63,90
145280,note_on,,,,,0,0,2,,,,,1,,,65,93
145280,note_off,,,,,128,0,2,,,,,1,,,65,0
145408,note_on,,,,,0,0,2,,,,,1,,,65,93
145408,note_off,,,,,128,0,2,,,,,1,,,65,0
145408,note_on,,,,,0,0,3,,,,,2,,,63,90
145408,note_off,,,,,128,0,3,,,,,2,,,63,0
145536,note_off,,,,,384,0,4,,,,,3,,,41,0
145536,note_on,,,,,0,0,2,,,,,1,,,65,93
145536,note_on,,,,,288,0,1,,,,,0,,,65,109
145536,note_off,,,,,128,0,3,,,,,2,,,63,0
145536,note_on,,,,,0,0,3,,,,,2,,,63,90
145536,note_off,,,,,128,0,2,,,,,1,,,65,0
145664,note_off,,,,,128,0,2,,,,,1,,,65,0
145664,note_on,,,,,0,0,2,,,,,1,,,65,93
145664,note_on,,,,,0,0,3,,,,,2,,,63,90
145664,note_off,,,,,128,0,3,,,,,2,,,63,0
145664,note_off,,,,,128,0,1,,,,,0,,,65,0
145664,note_on,,,,,0,0,1,,,,,0,,,67,109
145792,note_on,,,,,0,0,3,,,,,2,,,63,90
145792,note_off,,,,,128,0,1,,,,,0,,,67,0
145792,note_on,,,,,0,0,1,,,,,0,,,69,109
145792,note_off,,,,,128,0,2,,,,,1,,,65,0
145792,note_off,,,,,128,0,3,,,,,2,,,63,0
145792,note_on,,,,,0,0,2,,,,,1,,,65,93
145920,note_off,,,,,128,0,2,,,,,1,,,65,0
145920,note_off,,,,,128,0,3,,,,,2,,,63,0
145920,note_on,,,,,0,0,3,,,,,2,,,62,90
145920,note_on,,,,,0,0,2,,,,,1,,,65,93
145920,note_off,,,,,128,0,1,,,,,0,,,69,0
145920,note_on,,,,,0,0,1,,,,,0,,,70,109
145920,note_on,,,,,384,0,4,,,,,3,,,46,90
146304,note_off,,,,,384,0,4,,,,,3,,,46,0
146304,note_off,,,,,384,0,3,,,,,2,,,62,0
146304,note_off,,,,,384,0,2,,,,,1,,,65,0
146304,note_off,,,,,384,0,1,,,,,0,,,70,0
146688,note_on,,,,,384,0,3,,,,,2,,,58,90
146688,note_on,,,,,384,0,4,,,,,3,,,46,90
146688,note_on,,,,,384,0,2,,,,,1,,,65,93
146688,note_on,,,,,384,0,1,,,,,0,,,74,109
147072,note_off,,,,,384,0,3,,,,,2,,,58,0
147072,note_off,,,,,384,0,4,,,,,3,,,46,0
147072,note_off,,,,,384,0,1,,,,,0,,,74,0
147072,note_off,,,,,384,0,2,,,,,1,,,65,0
147456,note_on,,,,,384,0,2,,,,,1,,,62,93
147456,note_on,,,,,384,0,3,,,,,2,,,58,90
147456,note_on,,,,,384,0,4,,,,,3,,,46,90
147456,note_on,,,,,384,0,1,,,,,0,,,70,109
147840,note_off,,,,,384,0,2,,,,,1,,,62,0
147840,note_off,,,,,384,0,3,,,,,2,,,58,0
147840,note_off,,,,,384,0,4,,,,,3,,,46,0
147840,note_off,,,,,384,0,1,,,,,0,,,70,0
148896,note_on,,,,,1056,0,1,,,,,0,,,55,109
148944,note_on,,,,,0,0,1,,,,,0,,,67,109
148944,note_off,,,,,48,0,1,,,,,0,,,55,0
148992,note_on,,,,,0,0,1,,,,,0,,,63,109
148992,note_off,,,,,48,0,1,,,,,0,,,67,0
148992,note_on,,,,,0,0,1,,,,,0,,,55,109
148992,note_on,,,,,1152,0,2,,,,,1,,,55,93
148992,note_on,,,,,1152,0,4,,,,,3,,,51,90
148992,note_on,,,,,1152,0,3,,,,,2,,,58,90
149088,note_off,,,,,96,0,3,,,,,2,,,58,0
149088,note_on,,,,,0,0,3,,,,,2,,,58,90
149088,note_off,,,,,96,0,2,,,,,1,,,55,0
149088,note_on,,,,,0,0,2,,,,,1,,,55,93
149184,note_on,,,,,0,0,2,,,,,1,,,58,93
149184,note_on,,,,,0,0,3,,,,,2,,,55,90
149184,note_off,,,,,96,0,2,,,,,1,,,55,0
149184,note_off,,,,,96,0,3,,,,,2,,,58,0
149280,note_off,,,,,96,0,3,,,,,2,,,55,0
149280,note_off,,,,,96,0,2,,,,,1,,,58,0
149280,note_on,,,,,0,0,2,,,,,1,,,58,93
149280,note_on,,,,,0,0,3,,,,,2,,,55,90
149376,note_on,,,,,0,0,3,,,,,2,,,58,90
149376,note_off,,,,,96,0,2,,,,,1,,,58,0
149376,note_on,,,,,0,0,2,,,,,1,,,55,93
149376,note_off,,,,,96,0,3,,,,,2,,,55,0
149472,note_off,,,,,96,0,3,,,,,2,,,58,0
149472,note_on,,,,,0,0,2,,,,,1,,,55,93
149472,note_off,,,,,96,0,2,,,,,1,,,55,0
149472,note_on,,,,,0,0,3,,,,,2,,,58,90
149568,note_off,,,,,96,0,3,,,,,2,,,58,0
149568,note_on,,,,,0,0,3,,,,,2,,,55,90
149568,note_off,,,,,96,0,2,,,,,1,,,55,0
149568,note_on,,,,,0,0,2,,,,,1,,,58,93
149664,note_off,,,,,96,0,3,,,,,2,,,55,0
149664,note_on,,,,,0,0,2,,,,,1,,,58,93
149664,note_off,,,,,96,0,2,,,,,1,,,58,0
149664,note_on,,,,,0,0,3,,,,,2,,,55,90
149760,note_on,,,,,0,0,3,,,,,2,,,58,90
149760,note_off,,,,,96,0,2,,,,,1,,,58,0
149760,note_off,,,,,96,0,3,,,,,2,,,55,0
149760,note_on,,,,,0,0,2,,,,,1,,,55,93
149856,note_off,,,,,96,0,2,,,,,1,,,55,0
149856,note_on,,,,,0,0,3,,,,,2,,,58,90
149856,note_off,,,,,96,0,3,,,,,2,,,58,0
149856,note_on,,,,,0,0,2,,,,,1,,,55,93
149952,note_off,,,,,96,0,2,,,,,1,,,55,0
149952,note_on,,,,,0,0,2,,,,,1,,,58,93
149952,note_on,,,,,0,0,3,,,,,2,,,55,90
149952,note_off,,,,,96,0,3,,,,,2,,,58,0
150048,note_off,,,,,96,0,2,,,,,1,,,58,0
150048,note_on,,,,,0,0,3,,,,,2,,,55,90
150048,note_off,,,,,96,0,3,,,,,2,,,55,0
150048,note_on,,,,,0,0,2,,,,,1,,,58,93
150144,note_off,,,,,0,0,1,,,,,0,,,63,0
150144,note_off,,,,,1152,0,4,,,,,3,,,51,0
150144,note_off,,,,,1152,0,1,,,,,0,,,55,0
150144,note_on,,,,,0,0,1,,,,,0,,,64,109
150144,note_on,,,,,0,0,3,,,,,2,,,58,90
150144,note_off,,,,,96,0,3,,,,,2,,,55,0
150144,note_off,,,,,96,0,2,,,,,1,,,58,0
150144,note_on,,,,,0,0,2,,,,,1,,,55,93
150240,note_on,,,,,0,0,2,,,,,1,,,55,93
150240,note_on,,,,,0,0,3,,,,,2,,,58,90
150240,note_off,,,,,96,0,3,,,,,2,,,58,0
150240,note_off,,,,,96,0,2,,,,,1,,,55,0
150336,note_on,,,,,0,0,3,,,,,2,,,55,90
150336,note_off,,,,,96,0,2,,,,,1,,,55,0
150336,note_on,,,,,0,0,2,,,,,1,,,58,93
150336,note_off,,,,,96,0,3,,,,,2,,,58,0
150432,note_off,,,,,96,0,2,,,,,1,,,58,0
150432,note_on,,,,,0,0,2,,,,,1,,,58,93
150432,note_on,,,,,0,0,3,,,,,2,,,55,90
150432,note_off,,,,,96,0,3,,,,,2,,,55,0
150528,note_on,,,,,0,0,3,,,,,2,,,60,90
150528,note_off,,,,,96,0,2,,,,,1,,,58,0
150528,note_on,,,,,384,0,4,,,,,3,,,51,90
150528,note_off,,,,,384,0,1,,,,,0,,,64,0
150528,note_on,,,,,0,0,1,,,,,0,,,65,109
150528,note_on,,,,,0,0,2,,,,,1,,,56,93
150528,note_off,,,,,96,0,3,,,,,2,,,55,0
150624,note_off,,,,,96,0,1,,,,,0,,,65,0
150624,note_on,,,,,0,0,2,,,,,1,,,56,93
150624,note_off,,,,,96,0,3,,,,,2,,,60,0
150624,note_on,,,,,0,0,3,,,,,2,,,60,90
150624,note_off,,,,,96,0,2,,,,,1,,,56,0
150720,note_off,,,,,96,0,2,,,,,1,,,56,0
150720,note_on,,,,,0,0,2,,,,,1,,,60,93
150720,note_on,,,,,96,0,1,,,,,0,,,67,109
150720,note_off,,,,,96,0,3,,,,,2,,,60,0
150720,note_on,,,,,0,0,3,,,,,2,,,56,90
150816,note_off,,,,,96,0,2,,,,,1,,,60,0
150816,note_off,,,,,96,0,3,,,,,2,,,56,0
150816,note_off,,,,,96,0,1,,,,,0,,,67,0
150816,note_on,,,,,0,0,3,,,,,2,,,56,90
150816,note_on,,,,,0,0,2,,,,,1,,,60,93
150912,note_on,,,,,0,0,3,,,,,2,,,60,90
150912,note_off,,,,,96,0,3,,,,,2,,,56,0
150912,note_on,,,,,96,0,1,,,,,0,,,68,109
150912,note_off,,,,,384,0,4,,,,,3,,,51,0
150912,note_on,,,,,0,0,2,,,,,1,,,56,93
150912,note_off,,,,,96,0,2,,,,,1,,,60,0
151008,note_off,,,,,96,0,2,,,,,1,,,56,0
151008,note_on,,,,,0,0,2,,,,,1,,,56,93
151008,note_on,,,,,0,0,3,,,,,2,,,60,90
151008,note_off,,,,,96,0,3,,,,,2,,,60,0
151008,note_off,,,,,96,0,1,,,,,0,,,68,0
151104,note_off,,,,,96,0,3,,,,,2,,,60,0
151104,note_on,,,,,0,0,3,,,,,2,,,56,90
151104,note_on,,,,,96,0,1,,,,,0,,,70,109
151104,note_off,,,,,96,0,2,,,,,1,,,56,0
151104,note_on,,,,,0,0,2,,,,,1,,,60,93
151200,note_off,,,,,96,0,3,,,,,2,,,56,0
151200,note_off,,,,,96,0,1,,,,,0,,,70,0
151200,note_off,,,,,96,0,2,,,,,1,,,60,0
151200,note_on,,,,,0,0,2,,,,,1,,,60,93
151200,note_on,,,,,0,0,3,,,,,2,,,56,90
151296,note_on,,,,,96,0,1,,,,,0,,,72,109
151296,note_on,,,,,0,0,2,,,,,1,,,56,93
151296,note_off,,,,,96,0,2,,,,,1,,,60,0
151296,note_off,,,,,96,0,3,,,,,2,,,56,0
151296,note_on,,,,,0,0,3,,,,,2,,,60,90
151392,note_on,,,,,0,0,2,,,,,1,,,56,93
151392,note_on,,,,,0,0,3,,,,,2,,,60,90
151392,note_off,,,,,96,0,2,,,,,1,,,56,0
151392,note_off,,,,,96,0,3,,,,,2,,,60,0
151488,note_on,,,,,0,0,3,,,,,2,,,56,90
151488,note_on,,,,,0,0,2,,,,,1,,,60,93
151488,note_off,,,,,96,0,2,,,,,1,,,56,0
151488,note_off,,,,,96,0,3,,,,,2,,,60,0
151584,note_on,,,,,0,0,3,,,,,2,,,56,90
151584,note_off,,,,,96,0,3,,,,,2,,,56,0
151584,note_on,,,,,0,0,2,,,,,1,,,60,93
151584,note_off,,,,,96,0,2,,,,,1,,,60,0
151680,note_off,,,,,96,0,2,,,,,1,,,60,0
151680,note_off,,,,,384,0,1,,,,,0,,,72,0
151680,note_on,,,,,0,0,2,,,,,1,,,56,93
151680,note_off,,,,,96,0,3,,,,,2,,,56,0
151680,note_on,,,,,0,0,3,,,,,2,,,60,90
151776,note_on,,,,,0,0,3,,,,,2,,,60,90
151776,note_on,,,,,0,0,2,,,,,1,,,56,93
151776,note_off,,,,,96,0,2,,,,,1,,,56,0
151776,note_off,,,,,96,0,3,,,,,2,,,60,0
151872,note_off,,,,,96,0,3,,,,,2,,,60,0
151872,note_on,,,,,0,0,3,,,,,2,,,56,90
151872,note_off,,,,,96,0,2,,,,,1,,,56,0
151872,note_on,,,,,0,0,2,,,,,1,,,60,93
151968,note_off,,,,,96,0,2,,,,,1,,,60,0
151968,note_on,,,,,0,0,2,,,,,1,,,60,93
151968,note_on,,,,,0,0,3,,,,,2,,,56,90
151968,note_off,,,,,96,0,3,,,,,2,,,56,0
152064,note_on,,,,,1152,0,4,,,,,3,,,51,90
152064,note_on,,,,,0,0,1,,,,,0,,,62,109
152064,note_on,,,,,0,0,3,,,,,2,,,53,90
152064,note_off,,,,,96,0,3,,,,,2,,,56,0
152064,note_off,,,,,96,0,2,,,,,1,,,60,0
152064,note_on,,,,,384,0,1,,,,,0,,,70,109
152064,note_on,,,,,0,0,2,,,,,1,,,56,93
152160,note_off,,,,,96,0,2,,,,,1,,,56,0
152160,note_on,,,,,0,0,2,,,,,1,,,56,93
152160,note_off,,,,,96,0,3,,,,,2,,,53,0
152160,note_on,,,,,0,0,3,,,,,2,,,53,90
152256,note_off,,,,,96,0,3,,,,,2,,,53,0
152256,note_on,,,,,0,0,3,,,,,2,,,56,90
152256,note_off,,,,,96,0,2,,,,,1,,,56,0
152256,note_on,,,,,0,0,2,,,,,1,,,58,93
152352,note_off,,,,,96,0,3,,,,,2,,,56,0
152352,note_on,,,,,0,0,3,,,,,2,,,56,90
152352,note_off,,,,,96,0,2,,,,,1,,,58,0
152352,note_on,,,,,0,0,2,,,,,1,,,58,93
152448,note_on,,,,,0,0,3,,,,,2,,,53,90
152448,note_off,,,,,96,0,3,,,,,2,,,56,0
152448,note_off,,,,,96,0,2,,,,,1,,,58,0
152448,note_on,,,,,0,0,2,,,,,1,,,56,93
152544,note_off,,,,,96,0,3,,,,,2,,,53,0
152544,note_on,,,,,0,0,3,,,,,2,,,53,90
152544,note_on,,,,,0,0,2,,,,,1,,,56,93
152544,note_off,,,,,96,0,2,,,,,1,,,56,0
152640,note_off,,,,,96,0,3,,,,,2,,,53,0
152640,note_on,,,,,0,0,3,,,,,2,,,56,90
152640,note_off,,,,,96,0,2,,,,,1,,,56,0
152640,note_on,,,,,0,0,2,,,,,1,,,58,93
152736,note_off,,,,,96,0,3,,,,,2,,,56,0
152736,note_on,,,,,0,0,3,,,,,2,,,56,90
152736,note_off,,,,,96,0,2,,,,,1,,,58,0
152736,note_on,,,,,0,0,2,,,,,1,,,58,93
152832,note_off,,,,,96,0,3,,,,,2,,,56,0
152832,note_on,,,,,0,0,3,,,,,2,,,53,90
152832,note_off,,,,,96,0,2,,,,,1,,,58,0
152832,note_on,,,,,0,0,2,,,,,1,,,56,93
152928,note_on,,,,,0,0,2,,,,,1,,,56,93
152928,note_off,,,,,96,0,2,,,,,1,,,56,0
152928,note_off,,,,,96,0,3,,,,,2,,,53,0
152928,note_on,,,,,0,0,3,,,,,2,,,53,90
153024,note_on,,,,,0,0,2,,,,,1,,,58,93
153024,note_off,,,,,96,0,2,,,,,1,,,56,0
153024,note_off,,,,,96,0,3,,,,,2,,,53,0
153024,note_on,,,,,0,0,3,,,,,2,,,56,90
153120,note_on,,,,,0,0,2,,,,,1,,,58,93
153120,note_off,,,,,96,0,2,,,,,1,,,58,0
153120,note_on,,,,,0,0,3,,,,,2,,,56,90
153120,note_off,,,,,96,0,3,,,,,2,,,56,0
153216,note_off,,,,,1152,0,4,,,,,3,,,51,0
153216,note_on,,,,,0,0,3,,,,,2,,,53,90
153216,note_off,,,,,96,0,3,,,,,2,,,56,0
153216,note_on,,,,,0,0,1,,,,,0,,,72,109
153216,note_off,,,,,1152,0,1,,,,,0,,,62,0
153216,note_off,,,,,96,0,2,,,,,1,,,58,0
153216,note_on,,,,,0,0,2,,,,,1,,,56,93
153216,note_off,,,,,0,0,1,,,,,0,,,70,0
153312,note_off,,,,,96,0,1,,,,,0,,,72,0
153312,note_on,,,,,0,0,2,,,,,1,,,56,93
153312,note_off,,,,,96,0,2,,,,,1,,,56,0
153312,note_on,,,,,0,0,3,,,,,2,,,53,90
153312,note_off,,,,,96,0,3,,,,,2,,,53,0
153408,note_on,,,,,0,0,3,,,,,2,,,56,90
153408,note_off,,,,,96,0,2,,,,,1,,,56,0
153408,note_on,,,,,0,0,2,,,,,1,,,58,93
153408,note_off,,,,,96,0,3,,,,,2,,,53,0
153408,note_on,,,,,96,0,1,,,,,0,,,74,109
153504,note_off,,,,,96,0,2,,,,,1,,,58,0
153504,note_off,,,,,96,0,1,,,,,0,,,74,0
153504,note_on,,,,,0,0,2,,,,,1,,,58,93
153504,note_off,,,,,96,0,3,,,,,2,,,56,0
153504,note_on,,,,,0,0,3,,,,,2,,,56,90
153600,note_on,,,,,96,0,1,,,,,0,,,75,109
153600,note_on,,,,,0,0,2,,,,,1,,,55,93
153600,note_on,,,,,384,0,4,,,,,3,,,51,90
153600,note_off,,,,,96,0,2,,,,,1,,,58,0
153600,note_on,,,,,0,0,3,,,,,2,,,51,90
153600,note_off,,,,,96,0,3,,,,,2,,,56,0
153696,note_off,,,,,96,0,3,,,,,2,,,51,0
153696,note_on,,,,,0,0,3,,,,,2,,,51,90
153696,note_off,,,,,96,0,1,,,,,0,,,75,0
153696,note_off,,,,,96,0,2,,,,,1,,,55,0
153696,note_on,,,,,0,0,2,,,,,1,,,55,93
153792,note_on,,,,,0,0,3,,,,,2,,,53,90
153792,note_on,,,,,96,0,1,,,,,0,,,77,109
153792,note_off,,,,,96,0,2,,,,,1,,,55,0
153792,note_off,,,,,96,0,3,,,,,2,,,51,0
153792,note_on,,,,,0,0,2,,,,,1,,,56,93
153888,note_off,,,,,96,0,3,,,,,2,,,53,0
153888,note_on,,,,,0,0,3,,,,,2,,,53,90
153888,note_off,,,,,96,0,2,,,,,1,,,56,0
153888,note_off,,,,,96,0,1,,,,,0,,,77,0
153888,note_on,,,,,0,0,2,,,,,1,,,56,93
153984,note_on,,,,,0,0,3,,,,,2,,,51,90
153984,note_on,,,,,96,0,1,,,,,0,,,79,109
153984,note_off,,,,,384,0,4,,,,,3,,,51,0
153984,note_off,,,,,96,0,3,,,,,2,,,53,0
153984,note_off,,,,,96,0,2,,,,,1,,,56,0
153984,note_on,,,,,0,0,2,,,,,1,,,55,93
154080,note_off,,,,,96,0,3,,,,,2,,,51,0
154080,note_on,,,,,0,0,3,,,,,2,,,51,90
154080,note_on,,,,,0,0,2,,,,,1,,,55,93
154080,note_off,,,,,96,0,1,,,,,0,,,79,0
154080,note_off,,,,,96,0,2,,,,,1,,,55,0
154176,note_on,,,,,96,0,1,,,,,0,,,80,109
154176,note_on,,,,,0,0,3,,,,,2,,,53,90
154176,note_off,,,,,96,0,2,,,,,1,,,55,0
154176,note_on,,,,,0,0,2,,,,,1,,,56,93
154176,note_off,,,,,96,0,3,,,,,2,,,51,0
154272,note_off,,,,,96,0,1,,,,,0,,,80,0
154272,note_off,,,,,96,0,3,,,,,2,,,53,0
154272,note_on,,,,,0,0,2,,,,,1,,,56,93
154272,note_off,,,,,96,0,2,,,,,1,,,56,0
154272,note_on,,,,,0,0,3,,,,,2,,,53,90
154368,note_on,,,,,0,0,2,,,,,1,,,58,93
154368,note_off,,,,,96,0,2,,,,,1,,,56,0
154368,note_on,,,,,0,0,3,,,,,2,,,55,90
154368,note_off,,,,,96,0,3,,,,,2,,,53,0
154368,note_on,,,,,96,0,1,,,,,0,,,82,109
154464,note_on,,,,,0,0,2,,,,,1,,,58,93
154464,note_on,,,,,0,0,3,,,,,2,,,55,90
154464,note_off,,,,,96,0,3,,,,,2,,,55,0
154464,note_off,,,,,96,0,2,,,,,1,,,58,0
154560,note_off,,,,,96,0,2,,,,,1,,,58,0
154560,note_on,,,,,0,0,2,,,,,1,,,57,93
154560,note_on,,,,,0,0,3,,,,,2,,,54,90
154560,note_off,,,,,96,0,3,,,,,2,,,55,0
154656,note_off,,,,,96,0,3,,,,,2,,,54,0
154656,note_on,,,,,0,0,2,,,,,1,,,57,93
154656,note_off,,,,,96,0,2,,,,,1,,,57,0
154656,note_on,,,,,0,0,3,,,,,2,,,54,90
154752,note_off,,,,,96,0,3,,,,,2,,,54,0
154752,note_on,,,,,0,0,2,,,,,1,,,58,93
154752,note_off,,,,,96,0,2,,,,,1,,,57,0
154752,note_off,,,,,384,0,1,,,,,0,,,82,0
154752,note_on,,,,,0,0,3,,,,,2,,,55,90
154848,note_on,,,,,0,0,2,,,,,1,,,58,93
154848,note_off,,,,,96,0,2,,,,,1,,,58,0
154848,note_off,,,,,96,0,3,,,,,2,,,55,0
154848,note_on,,,,,0,0,3,,,,,2,,,55,90
154944,note_on,,,,,0,0,2,,,,,1,,,55,93
154944,note_off,,,,,96,0,2,,,,,1,,,58,0
154944,note_off,,,,,96,0,3,,,,,2,,,55,0
154944,note_on,,,,,0,0,3,,,,,2,,,51,90
155040,note_on,,,,,0,0,3,,,,,2,,,51,90
155040,note_on,,,,,0,0,2,,,,,1,,,55,93
155040,note_off,,,,,96,0,2,,,,,1,,,55,0
155040,note_off,,,,,96,0,3,,,,,2,,,51,0
155136,note_on,,,,,384,0,1,,,,,0,,,80,109
155136,note_off,,,,,96,0,2,,,,,1,,,55,0
155136,note_on,,,,,1152,0,4,,,,,3,,,46,90
155136,note_on,,,,,0,0,2,,,,,1,,,62,93
155136,note_off,,,,,96,0,3,,,,,2,,,51,0
155136,note_on,,,,,0,0,3,,,,,2,,,53,90
155232,note_off,,,,,96,0,3,,,,,2,,,53,0
155232,note_on,,,,,0,0,3,,,,,2,,,53,90
155232,note_off,,,,,96,0,2,,,,,1,,,62,0
155232,note_on,,,,,0,0,2,,,,,1,,,62,93
155264,note_on,,,,,0,0,1,,,,,0,,,79,109
155264,note_off,,,,,128,0,1,,,,,0,,,80,0
155328,note_off,,,,,96,0,3,,,,,2,,,53,0
155328,note_on,,,,,0,0,3,,,,,2,,,58,90
155328,note_on,,,,,0,0,2,,,,,1,,,58,93
155328,note_off,,,,,96,0,2,,,,,1,,,62,0
155392,note_on,,,,,0,0,1,,,,,0,,,77,109
155392,note_off,,,,,128,0,1,,,,,0,,,79,0
155424,note_off,,,,,96,0,3,,,,,2,,,58,0
155424,note_on,,,,,0,0,3,,,,,2,,,58,90
155424,note_on,,,,,0,0,2,,,,,1,,,58,93
155424,note_off,,,,,96,0,2,,,,,1,,,58,0
155520,note_off,,,,,384,0,4,,,,,3,,,46,0
155520,note_off,,,,,96,0,3,,,,,2,,,58,0
155520,note_on,,,,,0,0,3,,,,,2,,,56,90
155520,note_on,,,,,0,0,2,,,,,1,,,62,93
155520,note_off,,,,,128,0,1,,,,,0,,,77,0
155520,note_on,,,,,0,0,1,,,,,0,,,77,109
155520,note_off,,,,,96,0,2,,,,,1,,,58,0
155616,note_on,,,,,0,0,3,,,,,2,,,56,90
155616,note_off,,,,,96,0,2,,,,,1,,,62,0
155616,note_on,,,,,0,0,2,,,,,1,,,62,93
155616,note_off,,,,,96,0,3,,,,,2,,,56,0
155648,note_off,,,,,128,0,1,,,,,0,,,77,0
155648,note_on,,,,,0,0,1,,,,,0,,,75,109
155712,note_on,,,,,0,0,3,,,,,2,,,58,90
155712,note_on,,,,,0,0,2,,,,,1,,,58,93
155712,note_off,,,,,96,0,3,,,,,2,,,56,0
155712,note_off,,,,,96,0,2,,,,,1,,,62,0
155776,note_on,,,,,0,0,1,,,,,0,,,74,109
155776,note_off,,,,,128,0,1,,,,,0,,,75,0
155808,note_off,,,,,96,0,2,,,,,1,,,58,0
155808,note_off,,,,,96,0,3,,,,,2,,,58,0
155808,note_on,,,,,0,0,3,,,,,2,,,58,90
155808,note_on,,,,,0,0,2,,,,,1,,,58,93
155904,note_on,,,,,0,0,2,,,,,1,,,63,93
155904,note_off,,,,,96,0,2,,,,,1,,,58,0
155904,note_off,,,,,128,0,1,,,,,0,,,74,0
155904,note_on,,,,,0,0,1,,,,,0,,,75,109
155904,note_on,,,,,0,0,3,,,,,2,,,55,90
155904,note_off,,,,,96,0,3,,,,,2,,,58,0
156000,note_off,,,,,96,0,3,,,,,2,,,55,0
156000,note_off,,,,,96,0,2,,,,,1,,,63,0
156000,note_on,,,,,0,0,2,,,,,1,,,63,93
156000,note_on,,,,,0,0,3,,,,,2,,,55,90
156096,note_on,,,,,0,0,3,,,,,2,,,58,90
156096,note_off,,,,,96,0,3,,,,,2,,,55,0
156096,note_off,,,,,96,0,2,,,,,1,,,63,0
156096,note_on,,,,,0,0,2,,,,,1,,,58,93
156192,note_off,,,,,96,0,3,,,,,2,,,58,0
156192,note_on,,,,,0,0,3,,,,,2,,,58,90
156192,note_off,,,,,96,0,2,,,,,1,,,58,0
156192,note_on,,,,,0,0,2,,,,,1,,,58,93
156288,note_off,,,,,96,0,2,,,,,1,,,58,0
156288,note_on,,,,,0,0,2,,,,,1,,,63,93
156288,note_off,,,,,384,0,1,,,,,0,,,75,0
156288,note_on,,,,,0,0,3,,,,,2,,,55,90
156288,note_off,,,,,96,0,3,,,,,2,,,58,0
156288,note_on,,,,,0,0,1,,,,,0,,,70,109
156384,note_off,,,,,96,0,2,,,,,1,,,63,0
156384,note_off,,,,,96,0,3,,,,,2,,,55,0
156384,note_on,,,,,0,0,3,,,,,2,,,55,90
156384,note_on,,,,,0,0,2,,,,,1,,,63,93
156480,note_on,,,,,0,0,3,,,,,2,,,58,90
156480,note_off,,,,,192,0,1,,,,,0,,,70,0
156480,note_off,,,,,96,0,3,,,,,2,,,55,0
156480,note_on,,,,,0,0,2,,,,,1,,,58,93
156480,note_off,,,,,96,0,2,,,,,1,,,63,0
156576,note_on,,,,,0,0,2,,,,,1,,,58,93
156576,note_off,,,,,96,0,2,,,,,1,,,58,0
156576,note_off,,,,,96,0,3,,,,,2,,,58,0
156576,note_on,,,,,0,0,3,,,,,2,,,58,90
156672,note_on,,,,,1152,0,4,,,,,3,,,46,90
156672,note_on,,,,,0,0,2,,,,,1,,,62,93
156672,note_off,,,,,96,0,2,,,,,1,,,58,0
156672,note_on,,,,,192,0,1,,,,,0,,,80,109
156672,note_on,,,,,0,0,3,,,,,2,,,53,90
156672,note_off,,,,,96,0,3,,,,,2,,,58,0
156768,note_off,,,,,96,0,3,,,,,2,,,53,0
156768,note_on,,,,,0,0,3,,,,,2,,,53,90
156768,note_off,,,,,96,0,2,,,,,1,,,62,0
156768,note_on,,,,,0,0,2,,,,,1,,,62,93
156800,note_off,,,,,128,0,1,,,,,0,,,80,0
156800,note_on,,,,,0,0,1,,,,,0,,,79,109
156864,note_on,,,,,0,0,3,,,,,2,,,58,90
156864,note_off,,,,,96,0,2,,,,,1,,,62,0
156864,note_on,,,,,0,0,2,,,,,1,,,58,93
156864,note_off,,,,,96,0,3,,,,,2,,,53,0
156928,note_off,,,,,128,0,1,,,,,0,,,79,0
156928,note_on,,,,,0,0,1,,,,,0,,,77,109
156960,note_on,,,,,0,0,2,,,,,1,,,58,93
156960,note_off,,,,,96,0,2,,,,,1,,,58,0
156960,note_off,,,,,96,0,3,,,,,2,,,58,0
156960,note_on,,,,,0,0,3,,,,,2,,,58,90
157056,note_on,,,,,0,0,2,,,,,1,,,62,93
157056,note_off,,,,,96,0,3,,,,,2,,,58,0
157056,note_on,,,,,0,0,3,,,,,2,,,56,90
157056,note_off,,,,,128,0,1,,,,,0,,,77,0
157056,note_on,,,,,0,0,1,,,,,0,,,77,109
157056,note_off,,,,,96,0,2,,,,,1,,,58,0
157056,note_off,,,,,384,0,4,,,,,3,,,46,0
157152,note_off,,,,,96,0,2,,,,,1,,,62,0
157152,note_off,,,,,96,0,3,,,,,2,,,56,0
157152,note_on,,,,,0,0,3,,,,,2,,,56,90
157152,note_on,,,,,0,0,2,,,,,1,,,62,93
157184,note_on,,,,,0,0,1,,,,,0,,,75,109
157184,note_off,,,,,128,0,1,,,,,0,,,77,0
157248,note_off,,,,,96,0,2,,,,,1,,,62,0
157248,note_off,,,,,96,0,3,,,,,2,,,56,0
157248,note_on,,,,,0,0,3,,,,,2,,,58,90
157248,note_on,,,,,0,0,2,,,,,1,,,58,93
157312,note_on,,,,,0,0,1,,,,,0,,,74,109
157312,note_off,,,,,128,0,1,,,,,0,,,75,0
157344,note_off,,,,,96,0,2,,,,,1,,,58,0
157344,note_on,,,,,0,0,2,,,,,1,,,58,93
157344,note_off,,,,,96,0,3,,,,,2,,,58,0
157344,note_on,,,,,0,0,3,,,,,2,,,58,90
157440,note_off,,,,,128,0,1,,,,,0,,,74,0
157440,note_on,,,,,0,0,1,,,,,0,,,75,109
157440,note_off,,,,,96,0,3,,,,,2,,,58,0
157440,note_on,,,,,0,0,2,,,,,1,,,63,93
157440,note_off,,,,,96,0,2,,,,,1,,,58,0
157440,note_on,,,,,0,0,3,,,,,2,,,55,90
157536,note_on,,,,,0,0,2,,,,,1,,,63,93
157536,note_off,,,,,96,0,2,,,,,1,,,63,0
157536,note_off,,,,,96,0,3,,,,,2,,,55,0
157536,note_on,,,,,0,0,3,,,,,2,,,55,90
157632,note_off,,,,,96,0,3,,,,,2,,,55,0
157632,note_off,,,,,96,0,2,,,,,1,,,63,0
157632,note_on,,,,,0,0,3,,,,,2,,,58,90
157632,note_on,,,,,0,0,2,,,,,1,,,58,93
157728,note_off,,,,,96,0,3,,,,,2,,,58,0
157728,note_on,,,,,0,0,3,,,,,2,,,58,90
157728,note_off,,,,,96,0,2,,,,,1,,,58,0
157728,note_on,,,,,0,0,2,,,,,1,,,58,93
157824,note_off,,,,,384,0,1,,,,,0,,,75,0
157824,note_on,,,,,0,0,1,,,,,0,,,82,109
157824,note_off,,,,,96,0,2,,,,,1,,,58,0
157824,note_on,,,,,0,0,2,,,,,1,,,63,93
157824,note_off,,,,,96,0,3,,,,,2,,,58,0
157824,note_on,,,,,0,0,3,,,,,2,,,55,90
157920,note_on,,,,,0,0,3,,,,,2,,,55,90
157920,note_off,,,,,96,0,3,,,,,2,,,55,0
157920,note_off,,,,,96,0,2,,,,,1,,,63,0
157920,note_on,,,,,0,0,2,,,,,1,,,63,93
158016,note_off,,,,,192,0,1,,,,,0,,,82,0
158016,note_off,,,,,96,0,2,,,,,1,,,63,0
158016,note_on,,,,,0,0,2,,,,,1,,,58,93
158016,note_off,,,,,96,0,3,,,,,2,,,55,0
158016,note_on,,,,,0,0,3,,,,,2,,,58,90
158112,note_on,,,,,0,0,2,,,,,1,,,58,93
158112,note_off,,,,,96,0,3,,,,,2,,,58,0
158112,note_on,,,,,0,0,3,,,,,2,,,58,90
158112,note_off,,,,,96,0,2,,,,,1,,,58,0
158208,note_off,,,,,96,0,2,,,,,1,,,58,0
158208,note_on,,,,,0,0,2,,,,,1,,,62,93
158208,note_on,,,,,0,0,3,,,,,2,,,53,90
158208,note_on,,,,,1152,0,4,,,,,3,,,46,90
158208,note_on,,,,,192,0,1,,,,,0,,,80,109
158208,note_off,,,,,96,0,3,,,,,2,,,58,0
158304,note_on,,,,,0,0,2,,,,,1,,,62,93
158304,note_on,,,,,0,0,3,,,,,2,,,53,90
158304,note_off,,,,,96,0,3,,,,,2,,,53,0
158304,note_off,,,,,96,0,2,,,,,1,,,62,0
158336,note_on,,,,,0,0,1,,,,,0,,,79,109
158336,note_off,,,,,128,0,1,,,,,0,,,80,0
158400,note_on,,,,,0,0,3,,,,,2,,,58,90
158400,note_off,,,,,96,0,3,,,,,2,,,53,0
158400,note_on,,,,,0,0,2,,,,,1,,,58,93
158400,note_off,,,,,96,0,2,,,,,1,,,62,0
158464,note_off,,,,,128,0,1,,,,,0,,,79,0
158464,note_on,,,,,0,0,1,,,,,0,,,77,109
158496,note_on,,,,,0,0,3,,,,,2,,,58,90
158496,note_off,,,,,96,0,2,,,,,1,,,58,0
158496,note_on,,,,,0,0,2,,,,,1,,,58,93
158496,note_off,,,,,96,0,3,,,,,2,,,58,0
158592,note_on,,,,,0,0,1,,,,,0,,,77,109
158592,note_off,,,,,96,0,3,,,,,2,,,58,0
158592,note_off,,,,,96,0,2,,,,,1,,,58,0
158592,note_on,,,,,0,0,2,,,,,1,,,62,93
158592,note_off,,,,,384,0,4,,,,,3,,,46,0
158592,note_off,,,,,128,0,1,,,,,0,,,77,0
158592,note_on,,,,,0,0,3,,,,,2,,,56,90
158688,note_on,,,,,0,0,3,,,,,2,,,56,90
158688,note_off,,,,,96,0,3,,,,,2,,,56,0
158688,note_on,,,,,0,0,2,,,,,1,,,62,93
158688,note_off,,,,,96,0,2,,,,,1,,,62,0
158720,note_off,,,,,128,0,1,,,,,0,,,77,0
158720,note_on,,,,,0,0,1,,,,,0,,,75,109
158784,note_on,,,,,0,0,3,,,,,2,,,58,90
158784,note_off,,,,,96,0,3,,,,,2,,,56,0
158784,note_on,,,,,0,0,2,,,,,1,,,58,93
158784,note_off,,,,,96,0,2,,,,,1,,,62,0
158848,note_on,,,,,0,0,1,,,,,0,,,74,109
158848,note_off,,,,,128,0,1,,,,,0,,,75,0
158880,note_off,,,,,96,0,2,,,,,1,,,58,0
158880,note_on,,,,,0,0,3,,,,,2,,,58,90
158880,note_off,,,,,96,0,3,,,,,2,,,58,0
158880,note_on,,,,,0,0,2,,,,,1,,,58,93
158976,note_on,,,,,0,0,3,,,,,2,,,55,90
158976,note_off,,,,,96,0,3,,,,,2,,,58,0
158976,note_off,,,,,128,0,1,,,,,0,,,74,0
158976,note_on,,,,,0,0,2,,,,,1,,,63,93
158976,note_off,,,,,96,0,2,,,,,1,,,58,0
158976,note_on,,,,,0,0,1,,,,,0,,,75,109
159072,note_on,,,,,0,0,2,,,,,1,,,63,93
159072,note_off,,,,,96,0,3,,,,,2,,,55,0
159072,note_on,,,,,0,0,3,,,,,2,,,55,90
159072,note_off,,,,,96,0,2,,,,,1,,,63,0
159168,note_on,,,,,0,0,2,,,,,1,,,58,93
159168,note_off,,,,,96,0,2,,,,,1,,,63,0
159168,note_off,,,,,96,0,3,,,,,2,,,55,0
159168,note_on,,,,,0,0,3,,,,,2,,,58,90
159264,note_on,,,,,0,0,2,,,,,1,,,58,93
159264,note_off,,,,,96,0,2,,,,,1,,,58,0
159264,note_on,,,,,0,0,3,,,,,2,,,58,90
159264,note_off,,,,,96,0,3,,,,,2,,,58,0
159360,note_on,,,,,0,0,2,,,,,1,,,63,93
159360,note_off,,,,,96,0,2,,,,,1,,,58,0
159360,note_on,,,,,0,0,3,,,,,2,,,55,90
159360,note_off,,,,,96,0,3,,,,,2,,,58,0
159360,note_off,,,,,384,0,1,,,,,0,,,75,0
159360,note_on,,,,,0,0,1,,,,,0,,,70,109
159456,note_off,,,,,96,0,3,,,,,2,,,55,0
159456,note_on,,,,,0,0,2,,,,,1,,,63,93
159456,note_off,,,,,96,0,2,,,,,1,,,63,0
159456,note_on,,,,,0,0,3,,,,,2,,,55,90
159552,note_on,,,,,0,0,2,,,,,1,,,58,93
159552,note_off,,,,,96,0,2,,,,,1,,,63,0
159552,note_off,,,,,96,0,3,,,,,2,,,55,0
159552,note_off,,,,,192,0,1,,,,,0,,,70,0
159552,note_on,,,,,0,0,3,,,,,2,,,58,90
159648,note_off,,,,,96,0,3,,,,,2,,,58,0
159648,note_on,,,,,0,0,2,,,,,1,,,58,93
159648,note_off,,,,,96,0,2,,,,,1,,,58,0
159648,note_on,,,,,0,0,3,,,,,2,,,58,90
159744,note_on,,,,,0,0,2,,,,,1,,,62,93
159744,note_off,,,,,96,0,2,,,,,1,,,58,0
159744,note_on,,,,,1152,0,4,,,,,3,,,46,90
159744,note_off,,,,,96,0,3,,,,,2,,,58,0
159744,note_on,,,,,192,0,1,,,,,0,,,80,109
159744,note_on,,,,,0,0,3,,,,,2,,,53,90
159840,note_on,,,,,0,0,3,,,,,2,,,53,90
159840,note_off,,,,,96,0,2,,,,,1,,,62,0
159840,note_on,,,,,0,0,2,,,,,1,,,62,93
159840,note_off,,,,,96,0,3,,,,,2,,,53,0
159872,note_on,,,,,0,0,1,,,,,0,,,82,109
159872,note_off,,,,,128,0,1,,,,,0,,,80,0
159936,note_on,,,,,0,0,2,,,,,1,,,58,93
159936,note_off,,,,,96,0,2,,,,,1,,,62,0
159936,note_off,,,,,96,0,3,,,,,2,,,53,0
159936,note_on,,,,,0,0,3,,,,,2,,,58,90
160000,note_off,,,,,128,0,1,,,,,0,,,82,0
160000,note_on,,,,,0,0,1,,,,,0,,,84,109
160032,note_off,,,,,96,0,3,,,,,2,,,58,0
160032,note_on,,,,,0,0,3,,,,,2,,,58,90
160032,note_on,,,,,0,0,2,,,,,1,,,58,93
160032,note_off,,,,,96,0,2,,,,,1,,,58,0
160128,note_off,,,,,128,0,1,,,,,0,,,84,0
160128,note_on,,,,,0,0,1,,,,,0,,,77,109
160128,note_off,,,,,384,0,4,,,,,3,,,46,0
160128,note_on,,,,,0,0,2,,,,,1,,,62,93
160128,note_off,,,,,96,0,3,,,,,2,,,58,0
160128,note_on,,,,,0,0,3,,,,,2,,,56,90
160128,note_off,,,,,96,0,2,,,,,1,,,58,0
160224,note_on,,,,,0,0,2,,,,,1,,,62,93
160224,note_off,,,,,96,0,2,,,,,1,,,62,0
160224,note_on,,,,,0,0,3,,,,,2,,,56,90
160224,note_off,,,,,96,0,3,,,,,2,,,56,0
160256,note_off,,,,,128,0,1,,,,,0,,,77,0
160256,note_on,,,,,0,0,1,,,,,0,,,79,109
160320,note_on,,,,,0,0,2,,,,,1,,,58,93
160320,note_off,,,,,96,0,2,,,,,1,,,62,0
160320,note_on,,,,,0,0,3,,,,,2,,,58,90
160320,note_off,,,,,96,0,3,,,,,2,,,56,0
160384,note_off,,,,,128,0,1,,,,,0,,,79,0
160384,note_on,,,,,0,0,1,,,,,0,,,80,109
160416,note_on,,,,,0,0,3,,,,,2,,,58,90
160416,note_off,,,,,96,0,3,,,,,2,,,58,0
160416,note_on,,,,,0,0,2,,,,,1,,,58,93
160416,note_off,,,,,96,0,2,,,,,1,,,58,0
160512,note_off,,,,,96,0,3,,,,,2,,,58,0
160512,note_on,,,,,0,0,3,,,,,2,,,51,90
160512,note_on,,,,,0,0,1,,,,,0,,,79,109
160512,note_off,,,,,128,0,1,,,,,0,,,80,0
160512,note_off,,,,,96,0,2,,,,,1,,,58,0
160512,note_on,,,,,384,0,4,,,,,3,,,39,90
160512,note_on,,,,,0,0,2,,,,,1,,,63,93
160608,note_on,,,,,0,0,2,,,,,1,,,63,93
160608,note_off,,,,,96,0,3,,,,,2,,,51,0
160608,note_on,,,,,0,0,3,,,,,2,,,51,90
160608,note_off,,,,,96,0,2,,,,,1,,,63,0
160704,note_off,,,,,96,0,3,,,,,2,,,51,0
160704,note_on,,,,,0,0,2,,,,,1,,,58,93
160704,note_off,,,,,96,0,2,,,,,1,,,63,0
160704,note_on,,,,,0,0,3,,,,,2,,,58,90
160800,note_on,,,,,0,0,3,,,,,2,,,58,90
160800,note_off,,,,,96,0,2,,,,,1,,,58,0
160800,note_on,,,,,0,0,2,,,,,1,,,58,93
160800,note_off,,,,,96,0,3,,,,,2,,,58,0
160896,note_off,,,,,96,0,2,,,,,1,,,58,0
160896,note_on,,,,,0,0,2,,,,,1,,,63,93
160896,note_off,,,,,384,0,4,,,,,3,,,39,0
160896,note_off,,,,,384,0,1,,,,,0,,,79,0
160896,note_off,,,,,96,0,3,,,,,2,,,58,0
160896,note_on,,,,,0,0,3,,,,,2,,,55,90
160896,note_on,,,,,0,0,1,,,,,0,,,82,109
160992,note_off,,,,,96,0,3,,,,,2,,,55,0
160992,note_on,,,,,0,0,3,,,,,2,,,55,90
160992,note_off,,,,,96,0,2,,,,,1,,,63,0
160992,note_on,,,,,0,0,2,,,,,1,,,63,93
161088,note_on,,,,,0,0,3,,,,,2,,,58,90
161088,note_off,,,,,192,0,1,,,,,0,,,82,0
161088,note_off,,,,,96,0,3,,,,,2,,,55,0
161088,note_on,,,,,0,0,2,,,,,1,,,58,93
161088,note_off,,,,,96,0,2,,,,,1,,,63,0
161184,note_on,,,,,0,0,2,,,,,1,,,58,93
161184,note_off,,,,,96,0,2,,,,,1,,,58,0
161184,note_on,,,,,0,0,3,,,,,2,,,58,90
161184,note_off,,,,,96,0,3,,,,,2,,,58,0
161280,note_off,,,,,96,0,2,,,,,1,,,58,0
161280,note_on,,,,,0,0,3,,,,,2,,,58,90
161280,note_off,,,,,96,0,3,,,,,2,,,58,0
161280,note_on,,,,,0,0,2,,,,,1,,,55,93
161280,note_on,,,,,0,0,1,,,,,0,,,63,109
161280,note_on,,,,,192,0,1,,,,,0,,,55,109
161280,note_on,,,,,384,0,4,,,,,3,,,51,90
161376,note_off,,,,,96,0,3,,,,,2,,,58,0
161376,note_on,,,,,0,0,2,,,,,1,,,55,93
161376,note_off,,,,,96,0,2,,,,,1,,,55,0
161376,note_on,,,,,0,0,3,,,,,2,,,58,90
161472,note_on,,,,,0,0,2,,,,,1,,,58,93
161472,note_off,,,,,96,0,2,,,,,1,,,55,0
161472,note_off,,,,,96,0,3,,,,,2,,,58,0
161472,note_on,,,,,0,0,3,,,,,2,,,55,90
161568,note_on,,,,,0,0,2,,,,,1,,,58,93
161568,note_off,,,,,96,0,2,,,,,1,,,58,0
161568,note_on,,,,,0,0,3,,,,,2,,,55,90
161568,note_off,,,,,96,0,3,,,,,2,,,55,0
161664,note_on,,,,,0,0,3,,,,,2,,,58,90
161664,note_off,,,,,96,0,3,,,,,2,,,55,0
161664,note_off,,,,,96,0,2,,,,,1,,,58,0
161664,note_on,,,,,0,0,2,,,,,1,,,55,93
161760,note_off,,,,,96,0,2,,,,,1,,,55,0
161760,note_off,,,,,96,0,3,,,,,2,,,58,0
161760,note_on,,,,,0,0,2,,,,,1,,,55,93
161760,note_on,,,,,0,0,3,,,,,2,,,58,90
161856,note_on,,,,,0,0,3,,,,,2,,,55,90
161856,note_on,,,,,0,0,2,,,,,1,,,58,93
161856,note_off,,,,,96,0,2,,,,,1,,,55,0
161856,note_off,,,,,96,0,3,,,,,2,,,58,0
161952,note_on,,,,,0,0,2,,,,,1,,,58,93
161952,note_off,,,,,96,0,2,,,,,1,,,58,0
161952,note_on,,,,,0,0,3,,,,,2,,,55,90
161952,note_off,,,,,96,0,3,,,,,2,,,55,0
162048,note_on,,,,,0,0,2,,,,,1,,,55,93
162048,note_off,,,,,96,0,2,,,,,1,,,58,0
162048,note_off,,,,,96,0,3,,,,,2,,,55,0
162048,note_on,,,,,0,0,3,,,,,2,,,58,90
162144,note_on,,,,,0,0,2,,,,,1,,,55,93
162144,note_on,,,,,0,0,3,,,,,2,,,58,90
162144,note_off,,,,,96,0,3,,,,,2,,,58,0
162144,note_off,,,,,96,0,2,,,,,1,,,55,0
162240,note_on,,,,,0,0,2,,,,,1,,,58,93
162240,note_off,,,,,96,0,2,,,,,1,,,55,0
162240,note_on,,,,,0,0,3,,,,,2,,,55,90
162240,note_off,,,,,96,0,3,,,,,2,,,58,0
162336,note_on,,,,,0,0,2,,,,,1,,,58,93
162336,note_off,,,,,96,0,2,,,,,1,,,58,0
162336,note_off,,,,,96,0,3,,,,,2,,,55,0
162336,note_on,,,,,0,0,3,,,,,2,,,55,90
162432,note_on,,,,,0,0,2,,,,,1,,,55,93
162432,note_off,,,,,96,0,2,,,,,1,,,58,0
162432,note_off,,,,,96,0,3,,,,,2,,,55,0
162432,note_off,,,,,0,0,1,,,,,0,,,63,0
162432,note_on,,,,,0,0,1,,,,,0,,,64,109
162432,note_on,,,,,0,0,3,,,,,2,,,58,90
162432,note_off,,,,,1152,0,1,,,,,0,,,55,0
162432,note_off,,,,,1152,0,4,,,,,3,,,51,0
162528,note_on,,,,,0,0,3,,,,,2,,,58,90
162528,note_off,,,,,96,0,3,,,,,2,,,58,0
162528,note_off,,,,,96,0,2,,,,,1,,,55,0
162528,note_on,,,,,0,0,2,,,,,1,,,55,93
162624,note_on,,,,,0,0,3,,,,,2,,,55,90
162624,note_off,,,,,96,0,2,,,,,1,,,55,0
162624,note_on,,,,,0,0,2,,,,,1,,,58,93
162624,note_off,,,,,96,0,3,,,,,2,,,58,0
162720,note_on,,,,,0,0,3,,,,,2,,,55,90
162720,note_off,,,,,96,0,2,,,,,1,,,58,0
162720,note_on,,,,,0,0,2,,,,,1,,,58,93
162720,note_off,,,,,96,0,3,,,,,2,,,55,0
162816,note_on,,,,,0,0,1,,,,,0,,,65,109
162816,note_on,,,,,384,0,4,,,,,3,,,51,90
162816,note_off,,,,,96,0,2,,,,,1,,,58,0
162816,note_on,,,,,0,0,2,,,,,1,,,56,93
162816,note_off,,,,,384,0,1,,,,,0,,,64,0
162816,note_on,,,,,0,0,3,,,,,2,,,60,90
162816,note_off,,,,,96,0,3,,,,,2,,,55,0
162912,note_off,,,,,96,0,1,,,,,0,,,65,0
162912,note_on,,,,,0,0,2,,,,,1,,,56,93
162912,note_on,,,,,0,0,3,,,,,2,,,60,90
162912,note_off,,,,,96,0,3,,,,,2,,,60,0
162912,note_off,,,,,96,0,2,,,,,1,,,56,0
163008,note_off,,,,,96,0,3,,,,,2,,,60,0
163008,note_on,,,,,96,0,1,,,,,0,,,67,109
163008,note_on,,,,,0,0,3,,,,,2,,,56,90
163008,note_on,,,,,0,0,2,,,,,1,,,60,93
163008,note_off,,,,,96,0,2,,,,,1,,,56,0
163104,note_off,,,,,96,0,2,,,,,1,,,60,0
163104,note_off,,,,,96,0,1,,,,,0,,,67,0
163104,note_on,,,,,0,0,3,,,,,2,,,56,90
163104,note_off,,,,,96,0,3,,,,,2,,,56,0
163104,note_on,,,,,0,0,2,,,,,1,,,60,93
163200,note_on,,,,,0,0,3,,,,,2,,,60,90
163200,note_on,,,,,96,0,1,,,,,0,,,68,109
163200,note_off,,,,,384,0,4,,,,,3,,,51,0
163200,note_off,,,,,96,0,3,,,,,2,,,56,0
163200,note_off,,,,,96,0,2,,,,,1,,,60,0
163200,note_on,,,,,0,0,2,,,,,1,,,56,93
163296,note_on,,,,,0,0,2,,,,,1,,,56,93
163296,note_on,,,,,0,0,3,,,,,2,,,60,90
163296,note_off,,,,,96,0,2,,,,,1,,,56,0
163296,note_off,,,,,96,0,3,,,,,2,,,60,0
163296,note_off,,,,,96,0,1,,,,,0,,,68,0
163392,note_on,,,,,0,0,3,,,,,2,,,56,90
163392,note_on,,,,,0,0,2,,,,,1,,,60,93
163392,note_off,,,,,96,0,3,,,,,2,,,60,0
163392,note_on,,,,,96,0,1,,,,,0,,,70,109
163392,note_off,,,,,96,0,2,,,,,1,,,56,0
163488,note_off,,,,,96,0,2,,,,,1,,,60,0
163488,note_on,,,,,0,0,2,,,,,1,,,60,93
163488,note_off,,,,,96,0,1,,,,,0,,,70,0
163488,note_off,,,,,96,0,3,,,,,2,,,56,0
163488,note_on,,,,,0,0,3,,,,,2,,,56,90
163584,note_off,,,,,96,0,3,,,,,2,,,56,0
163584,note_on,,,,,0,0,3,,,,,2,,,60,90
163584,note_on,,,,,0,0,2,,,,,1,,,56,93
163584,note_on,,,,,96,0,1,,,,,0,,,72,109
163584,note_off,,,,,96,0,2,,,,,1,,,60,0
163680,note_off,,,,,96,0,3,,,,,2,,,60,0
163680,note_off,,,,,96,0,2,,,,,1,,,56,0
163680,note_on,,,,,0,0,2,,,,,1,,,56,93
163680,note_on,,,,,0,0,3,,,,,2,,,60,90
163776,note_on,,,,,0,0,2,,,,,1,,,60,93
163776,note_on,,,,,0,0,3,,,,,2,,,56,90
163776,note_off,,,,,96,0,2,,,,,1,,,56,0
163776,note_off,,,,,96,0,3,,,,,2,,,60,0
163872,note_off,,,,,96,0,2,,,,,1,,,60,0
163872,note_off,,,,,96,0,3,,,,,2,,,56,0
163872,note_on,,,,,0,0,3,,,,,2,,,56,90
163872,note_on,,,,,0,0,2,,,,,1,,,60,93
163968,note_off,,,,,96,0,2,,,,,1,,,60,0
163968,note_on,,,,,0,0,3,,,,,2,,,60,90
163968,note_on,,,,,0,0,2,,,,,1,,,56,93
163968,note_off,,,,,384,0,1,,,,,0,,,72,0
163968,note_off,,,,,96,0,3,,,,,2,,,56,0
164064,note_on,,,,,0,0,2,,,,,1,,,56,93
164064,note_off,,,,,96,0,2,,,,,1,,,56,0
164064,note_off,,,,,96,0,3,,,,,2,,,60,0
164064,note_on,,,,,0,0,3,,,,,2,,,60,90
164160,note_off,,,,,96,0,3,,,,,2,,,60,0
164160,note_on,,,,,0,0,3,,,,,2,,,56,90
164160,note_off,,,,,96,0,2,,,,,1,,,56,0
164160,note_on,,,,,0,0,2,,,,,1,,,60,93
164256,note_off,,,,,96,0,3,,,,,2,,,56,0
164256,note_on,,,,,0,0,3,,,,,2,,,56,90
164256,note_off,,,,,96,0,2,,,,,1,,,60,0
164256,note_on,,,,,0,0,2,,,,,1,,,60,93
164352,note_off,,,,,96,0,3,,,,,2,,,56,0
164352,note_on,,,,,0,0,1,,,,,0,,,70,109
164352,note_on,,,,,384,0,1,,,,,0,,,62,109
164352,note_off,,,,,96,0,2,,,,,1,,,60,0
164352,note_on,,,,,0,0,2,,,,,1,,,56,93
164352,note_on,,,,,0,0,3,,,,,2,,,53,90
164352,note_on,,,,,1152,0,4,,,,,3,,,51,90
164448,note_on,,,,,0,0,3,,,,,2,,,53,90
164448,note_on,,,,,0,0,2,,,,,1,,,56,93
164448,note_off,,,,,96,0,2,,,,,1,,,56,0
164448,note_off,,,,,96,0,3,,,,,2,,,53,0
164544,note_off,,,,,96,0,3,,,,,2,,,53,0
164544,note_on,,,,,0,0,3,,,,,2,,,56,90
164544,note_on,,,,,0,0,2,,,,,1,,,58,93
164544,note_off,,,,,96,0,2,,,,,1,,,56,0
164640,note_on,,,,,0,0,3,,,,,2,,,56,90
164640,note_off,,,,,96,0,3,,,,,2,,,56,0
164640,note_off,,,,,96,0,2,,,,,1,,,58,0
164640,note_on,,,,,0,0,2,,,,,1,,,58,93
164736,note_off,,,,,96,0,3,,,,,2,,,56,0
164736,note_on,,,,,0,0,3,,,,,2,,,53,90
164736,note_off,,,,,96,0,2,,,,,1,,,58,0
164736,note_on,,,,,0,0,2,,,,,1,,,56,93
164832,note_off,,,,,96,0,2,,,,,1,,,56,0
164832,note_off,,,,,96,0,3,,,,,2,,,53,0
164832,note_on,,,,,0,0,3,,,,,2,,,53,90
164832,note_on,,,,,0,0,2,,,,,1,,,56,93
164928,note_on,,,,,0,0,3,,,,,2,,,56,90
164928,note_off,,,,,96,0,3,,,,,2,,,53,0
164928,note_on,,,,,0,0,2,,,,,1,,,58,93
164928,note_off,,,,,96,0,2,,,,,1,,,56,0
165024,note_on,,,,,0,0,2,,,,,1,,,58,93
165024,note_off,,,,,96,0,3,,,,,2,,,56,0
165024,note_on,,,,,0,0,3,,,,,2,,,56,90
165024,note_off,,,,,96,0,2,,,,,1,,,58,0
165120,note_off,,,,,96,0,2,,,,,1,,,58,0
165120,note_on,,,,,0,0,2,,,,,1,,,56,93
165120,note_off,,,,,96,0,3,,,,,2,,,56,0
165120,note_on,,,,,0,0,3,,,,,2,,,53,90
165216,note_on,,,,,0,0,3,,,,,2,,,53,90
165216,note_off,,,,,96,0,2,,,,,1,,,56,0
165216,note_on,,,,,0,0,2,,,,,1,,,56,93
165216,note_off,,,,,96,0,3,,,,,2,,,53,0
165312,note_off,,,,,96,0,2,,,,,1,,,56,0
165312,note_off,,,,,96,0,3,,,,,2,,,53,0
165312,note_on,,,,,0,0,3,,,,,2,,,56,90
165312,note_on,,,,,0,0,2,,,,,1,,,58,93
165408,note_off,,,,,96,0,3,,,,,2,,,56,0
165408,note_on,,,,,0,0,3,,,,,2,,,56,90
165408,note_on,,,,,0,0,2,,,,,1,,,58,93
165408,note_off,,,,,96,0,2,,,,,1,,,58,0
165504,note_off,,,,,96,0,2,,,,,1,,,58,0
165504,note_on,,,,,0,0,1,,,,,0,,,72,109
165504,note_on,,,,,0,0,3,,,,,2,,,53,90
165504,note_off,,,,,1152,0,1,,,,,0,,,62,0
165504,note_off,,,,,1152,0,4,,,,,3,,,51,0
165504,note_off,,,,,96,0,3,,,,,2,,,56,0
165504,note_on,,,,,0,0,2,,,,,1,,,56,93
165504,note_off,,,,,0,0,1,,,,,0,,,70,0
165600,note_off,,,,,96,0,1,,,,,0,,,72,0
165600,note_off,,,,,96,0,2,,,,,1,,,56,0
165600,note_off,,,,,96,0,3,,,,,2,,,53,0
165600,note_on,,,,,0,0,3,,,,,2,,,53,90
165600,note_on,,,,,0,0,2,,,,,1,,,56,93
165696,note_off,,,,,96,0,3,,,,,2,,,53,0
165696,note_on,,,,,0,0,3,,,,,2,,,56,90
165696,note_on,,,,,96,0,1,,,,,0,,,74,109
165696,note_off,,,,,96,0,2,,,,,1,,,56,0
165696,note_on,,,,,0,0,2,,,,,1,,,58,93
165792,note_on,,,,,0,0,3,,,,,2,,,56,90
165792,note_off,,,,,96,0,3,,,,,2,,,56,0
165792,note_off,,,,,96,0,1,,,,,0,,,74,0
165792,note_off,,,,,96,0,2,,,,,1,,,58,0
165792,note_on,,,,,0,0,2,,,,,1,,,58,93
165888,note_off,,,,,96,0,2,,,,,1,,,58,0
165888,note_off,,,,,96,0,3,,,,,2,,,56,0
165888,note_on,,,,,96,0,1,,,,,0,,,75,109
165888,note_on,,,,,384,0,4,,,,,3,,,51,90
165888,note_on,,,,,0,0,2,,,,,1,,,55,93
165888,note_on,,,,,0,0,3,,,,,2,,,51,90
165984,note_on,,,,,0,0,3,,,,,2,,,51,90
165984,note_off,,,,,96,0,2,,,,,1,,,55,0
165984,note_on,,,,,0,0,2,,,,,1,,,55,93
165984,note_off,,,,,96,0,3,,,,,2,,,51,0
165984,note_off,,,,,96,0,1,,,,,0,,,75,0
166080,note_on,,,,,0,0,2,,,,,1,,,56,93
166080,note_off,,,,,96,0,3,,,,,2,,,51,0
166080,note_on,,,,,0,0,3,,,,,2,,,53,90
166080,note_on,,,,,96,0,1,,,,,0,,,77,109
166080,note_off,,,,,96,0,2,,,,,1,,,55,0
166176,note_on,,,,,0,0,2,,,,,1,,,56,93
166176,note_off,,,,,96,0,3,,,,,2,,,53,0
166176,note_on,,,,,0,0,3,,,,,2,,,53,90
166176,note_off,,,,,96,0,1,,,,,0,,,77,0
166176,note_off,,,,,96,0,2,,,,,1,,,56,0
166272,note_off,,,,,96,0,3,,,,,2,,,53,0
166272,note_on,,,,,0,0,3,,,,,2,,,51,90
166272,note_on,,,,,96,0,1,,,,,0,,,79,109
166272,note_off,,,,,96,0,2,,,,,1,,,56,0
166272,note_on,,,,,0,0,2,,,,,1,,,55,93
166272,note_off,,,,,384,0,4,,,,,3,,,51,0
166368,note_off,,,,,96,0,2,,,,,1,,,55,0
166368,note_on,,,,,0,0,2,,,,,1,,,55,93
166368,note_off,,,,,96,0,3,,,,,2,,,51,0
166368,note_on,,,,,0,0,3,,,,,2,,,51,90
166368,note_off,,,,,96,0,1,,,,,0,,,79,0
166464,note_on,,,,,0,0,2,,,,,1,,,56,93
166464,note_on,,,,,96,0,1,,,,,0,,,80,109
166464,note_off,,,,,96,0,3,,,,,2,,,51,0
166464,note_on,,,,,0,0,3,,,,,2,,,53,90
166464,note_off,,,,,96,0,2,,,,,1,,,55,0
166560,note_off,,,,,96,0,1,,,,,0,,,80,0
166560,note_off,,,,,96,0,3,,,,,2,,,53,0
166560,note_on,,,,,0,0,3,,,,,2,,,53,90
166560,note_on,,,,,0,0,2,,,,,1,,,56,93
166560,note_off,,,,,96,0,2,,,,,1,,,56,0
166656,note_on,,,,,0,0,2,,,,,1,,,58,93
166656,note_on,,,,,96,0,1,,,,,0,,,82,109
166656,note_off,,,,,96,0,3,,,,,2,,,53,0
166656,note_on,,,,,0,0,3,,,,,2,,,55,90
166656,note_off,,,,,96,0,2,,,,,1,,,56,0
166752,note_on,,,,,0,0,3,,,,,2,,,55,90
166752,note_off,,,,,96,0,3,,,,,2,,,55,0
166752,note_off,,,,,96,0,2,,,,,1,,,58,0
166752,note_on,,,,,0,0,2,,,,,1,,,58,93
166848,note_off,,,,,96,0,3,,,,,2,,,55,0
166848,note_off,,,,,96,0,2,,,,,1,,,58,0
166848,note_on,,,,,0,0,2,,,,,1,,,57,93
166848,note_on,,,,,0,0,3,,,,,2,,,54,90
166944,note_off,,,,,96,0,3,,,,,2,,,54,0
166944,note_off,,,,,96,0,2,,,,,1,,,57,0
166944,note_on,,,,,0,0,2,,,,,1,,,57,93
166944,note_on,,,,,0,0,3,,,,,2,,,54,90
167040,note_off,,,,,96,0,3,,,,,2,,,54,0
167040,note_on,,,,,0,0,3,,,,,2,,,55,90
167040,note_off,,,,,384,0,1,,,,,0,,,82,0
167040,note_off,,,,,96,0,2,,,,,1,,,57,0
167040,note_on,,,,,0,0,2,,,,,1,,,58,93
167136,note_off,,,,,96,0,3,,,,,2,,,55,0
167136,note_on,,,,,0,0,3,,,,,2,,,55,90
167136,note_on,,,,,0,0,2,,,,,1,,,58,93
167136,note_off,,,,,96,0,2,,,,,1,,,58,0
167232,note_off,,,,,96,0,3,,,,,2,,,55,0
167232,note_on,,,,,0,0,3,,,,,2,,,51,90
167232,note_on,,,,,0,0,2,,,,,1,,,55,93
167232,note_off,,,,,96,0,2,,,,,1,,,58,0
167328,note_on,,,,,0,0,2,,,,,1,,,55,93
167328,note_off,,,,,96,0,2,,,,,1,,,55,0
167328,note_off,,,,,96,0,3,,,,,2,,,51,0
167328,note_on,,,,,0,0,3,,,,,2,,,51,90
167424,note_on,,,,,1152,0,4,,,,,3,,,46,90
167424,note_off,,,,,96,0,3,,,,,2,,,51,0
167424,note_on,,,,,0,0,3,,,,,2,,,53,90
167424,note_on,,,,,384,0,1,,,,,0,,,80,109
167424,note_off,,,,,96,0,2,,,,,1,,,55,0
167424,note_on,,,,,0,0,2,,,,,1,,,62,93
167520,note_off,,,,,96,0,3,,,,,2,,,53,0
167520,note_on,,,,,0,0,3,,,,,2,,,53,90
167520,note_on,,,,,0,0,2,,,,,1,,,62,93
167520,note_off,,,,,96,0,2,,,,,1,,,62,0
167552,note_off,,,,,128,0,1,,,,,0,,,80,0
167552,note_on,,,,,0,0,1,,,,,0,,,79,109
167616,note_off,,,,,96,0,3,,,,,2,,,53,0
167616,note_off,,,,,96,0,2,,,,,1,,,62,0
167616,note_on,,,,,0,0,3,,,,,2,,,58,90
167616,note_on,,,,,0,0,2,,,,,1,,,58,93
167680,note_off,,,,,128,0,1,,,,,0,,,79,0
167680,note_on,,,,,0,0,1,,,,,0,,,77,109
167712,note_on,,,,,0,0,2,,,,,1,,,58,93
167712,note_on,,,,,0,0,3,,,,,2,,,58,90
167712,note_off,,,,,96,0,3,,,,,2,,,58,0
167712,note_off,,,,,96,0,2,,,,,1,,,58,0
167808,note_off,,,,,96,0,2,,,,,1,,,58,0
167808,note_on,,,,,0,0,3,,,,,2,,,56,90
167808,note_off,,,,,96,0,3,,,,,2,,,58,0
167808,note_on,,,,,0,0,2,,,,,1,,,62,93
167808,note_off,,,,,384,0,4,,,,,3,,,46,0
167808,note_off,,,,,128,0,1,,,,,0,,,77,0
167808,note_on,,,,,0,0,1,,,,,0,,,77,109
167904,note_on,,,,,0,0,3,,,,,2,,,56,90
167904,note_off,,,,,96,0,3,,,,,2,,,56,0
167904,note_off,,,,,96,0,2,,,,,1,,,62,0
167904,note_on,,,,,0,0,2,,,,,1,,,62,93
167936,note_off,,,,,128,0,1,,,,,0,,,77,0
167936,note_on,,,,,0,0,1,,,,,0,,,75,109
168000,note_on,,,,,0,0,3,,,,,2,,,58,90
168000,note_off,,,,,96,0,3,,,,,2,,,56,0
168000,note_off,,,,,96,0,2,,,,,1,,,62,0
168000,note_on,,,,,0,0,2,,,,,1,,,58,93
168064,note_on,,,,,0,0,1,,,,,0,,,74,109
168064,note_off,,,,,128,0,1,,,,,0,,,75,0
168096,note_on,,,,,0,0,3,,,,,2,,,58,90
168096,note_off,,,,,96,0,3,,,,,2,,,58,0
168096,note_on,,,,,0,0,2,,,,,1,,,58,93
168096,note_off,,,,,96,0,2,,,,,1,,,58,0
168192,note_on,,,,,0,0,3,,,,,2,,,55,90
168192,note_off,,,,,96,0,3,,,,,2,,,58,0
168192,note_on,,,,,0,0,1,,,,,0,,,75,109
168192,note_off,,,,,96,0,2,,,,,1,,,58,0
168192,note_on,,,,,0,0,2,,,,,1,,,63,93
168192,note_off,,,,,128,0,1,,,,,0,,,74,0
168288,note_off,,,,,96,0,2,,,,,1,,,63,0
168288,note_on,,,,,0,0,2,,,,,1,,,63,93
168288,note_off,,,,,96,0,3,,,,,2,,,55,0
168288,note_on,,,,,0,0,3,,,,,2,,,55,90
168384,note_on,,,,,0,0,2,,,,,1,,,58,93
168384,note_off,,,,,96,0,3,,,,,2,,,55,0
168384,note_off,,,,,96,0,2,,,,,1,,,63,0
168384,note_on,,,,,0,0,3,,,,,2,,,58,90
168480,note_on,,,,,0,0,3,,,,,2,,,58,90
168480,note_off,,,,,96,0,2,,,,,1,,,58,0
168480,note_on,,,,,0,0,2,,,,,1,,,58,93
168480,note_off,,,,,96,0,3,,,,,2,,,58,0
168576,note_on,,,,,0,0,1,,,,,0,,,70,109
168576,note_off,,,,,384,0,1,,,,,0,,,75,0
168576,note_off,,,,,96,0,3,,,,,2,,,58,0
168576,note_on,,,,,0,0,3,,,,,2,,,55,90
168576,note_off,,,,,96,0,2,,,,,1,,,58,0
168576,note_on,,,,,0,0,2,,,,,1,,,63,93
168672,note_off,,,,,96,0,3,,,,,2,,,55,0
168672,note_off,,,,,96,0,2,,,,,1,,,63,0
168672,note_on,,,,,0,0,3,,,,,2,,,55,90
168672,note_on,,,,,0,0,2,,,,,1,,,63,93
168768,note_off,,,,,96,0,2,,,,,1,,,63,0
168768,note_on,,,,,0,0,2,,,,,1,,,58,93
168768,note_off,,,,,192,0,1,,,,,0,,,70,0
168768,note_off,,,,,96,0,3,,,,,2,,,55,0
168768,note_on,,,,,0,0,3,,,,,2,,,58,90
168864,note_on,,,,,0,0,3,,,,,2,,,58,90
168864,note_on,,,,,0,0,2,,,,,1,,,58,93
168864,note_off,,,,,96,0,2,,,,,1,,,58,0
168864,note_off,,,,,96,0,3,,,,,2,,,58,0
168960,note_off,,,,,96,0,3,,,,,2,,,58,0
168960,note_on,,,,,0,0,3,,,,,2,,,53,90
168960,note_off,,,,,96,0,2,,,,,1,,,58,0
168960,note_on,,,,,0,0,2,,,,,1,,,62,93
168960,note_on,,,,,1152,0,4,,,,,3,,,46,90
168960,note_on,,,,,192,0,1,,,,,0,,,80,109
169056,note_off,,,,,96,0,2,,,,,1,,,62,0
169056,note_on,,,,,0,0,2,,,,,1,,,62,93
169056,note_on,,,,,0,0,3,,,,,2,,,53,90
169056,note_off,,,,,96,0,3,,,,,2,,,53,0
169088,note_off,,,,,128,0,1,,,,,0,,,80,0
169088,note_on,,,,,0,0,1,,,,,0,,,79,109
169152,note_on,,,,,0,0,3,,,,,2,,,58,90
169152,note_off,,,,,96,0,3,,,,,2,,,53,0
169152,note_on,,,,,0,0,2,,,,,1,,,58,93
169152,note_off,,,,,96,0,2,,,,,1,,,62,0
169216,note_off,,,,,128,0,1,,,,,0,,,79,0
169216,note_on,,,,,0,0,1,,,,,0,,,77,109
169248,note_off,,,,,96,0,2,,,,,1,,,58,0
169248,note_off,,,,,96,0,3,,,,,2,,,58,0
169248,note_on,,,,,0,0,3,,,,,2,,,58,90
169248,note_on,,,,,0,0,2,,,,,1,,,58,93
169344,note_off,,,,,128,0,1,,,,,0,,,77,0
169344,note_on,,,,,0,0,1,,,,,0,,,77,109
169344,note_on,,,,,0,0,3,,,,,2,,,56,90
169344,note_on,,,,,0,0,2,,,,,1,,,62,93
169344,note_off,,,,,96,0,2,,,,,1,,,58,0
169344,note_off,,,,,96,0,3,,,,,2,,,58,0
169344,note_off,,,,,384,0,4,,,,,3,,,46,0
169440,note_on,,,,,0,0,2,,,,,1,,,62,93
169440,note_on,,,,,0,0,3,,,,,2,,,56,90
169440,note_off,,,,,96,0,3,,,,,2,,,56,0
169440,note_off,,,,,96,0,2,,,,,1,,,62,0
169472,note_off,,,,,128,0,1,,,,,0,,,77,0
169472,note_on,,,,,0,0,1,,,,,0,,,75,109
169536,note_off,,,,,96,0,3,,,,,2,,,56,0
169536,note_on,,,,,0,0,3,,,,,2,,,58,90
169536,note_on,,,,,0,0,2,,,,,1,,,58,93
169536,note_off,,,,,96,0,2,,,,,1,,,62,0
169600,note_off,,,,,128,0,1,,,,,0,,,75,0
169600,note_on,,,,,0,0,1,,,,,0,,,74,109
169632,note_on,,,,,0,0,2,,,,,1,,,58,93
169632,note_off,,,,,96,0,2,,,,,1,,,58,0
169632,note_on,,,,,0,0,3,,,,,2,,,58,90
169632,note_off,,,,,96,0,3,,,,,2,,,58,0
169728,note_off,,,,,128,0,1,,,,,0,,,74,0
169728,note_off,,,,,96,0,2,,,,,1,,,58,0
169728,note_on,,,,,0,0,1,,,,,0,,,75,109
169728,note_on,,,,,0,0,2,,,,,1,,,63,93
169728,note_on,,,,,384,0,4,,,,,3,,,39,90
169728,note_off,,,,,96,0,3,,,,,2,,,58,0
169728,note_on,,,,,0,0,3,,,,,2,,,55,90
169824,note_off,,,,,96,0,3,,,,,2,,,55,0
169824,note_on,,,,,0,0,2,,,,,1,,,63,93
169824,note_off,,,,,96,0,2,,,,,1,,,63,0
169824,note_on,,,,,0,0,3,,,,,2,,,55,90
169920,note_off,,,,,96,0,3,,,,,2,,,55,0
169920,note_on,,,,,0,0,3,,,,,2,,,58,90
169920,note_off,,,,,96,0,2,,,,,1,,,63,0
169920,note_on,,,,,0,0,2,,,,,1,,,58,93
170016,note_off,,,,,96,0,3,,,,,2,,,58,0
170016,note_on,,,,,0,0,3,,,,,2,,,58,90
170016,note_off,,,,,96,0,2,,,,,1,,,58,0
170016,note_on,,,,,0,0,2,,,,,1,,,58,93
170112,note_off,,,,,96,0,2,,,,,1,,,58,0
170112,note_on,,,,,0,0,2,,,,,1,,,63,93
170112,note_off,,,,,96,0,3,,,,,2,,,58,0
170112,note_on,,,,,0,0,1,,,,,0,,,82,109
170112,note_off,,,,,384,0,1,,,,,0,,,75,0
170112,note_off,,,,,384,0,4,,,,,3,,,39,0
170112,note_on,,,,,0,0,3,,,,,2,,,55,90
170208,note_off,,,,,96,0,2,,,,,1,,,63,0
170208,note_off,,,,,96,0,3,,,,,2,,,55,0
170208,note_on,,,,,0,0,3,,,,,2,,,55,90
170208,note_on,,,,,0,0,2,,,,,1,,,63,93
170304,note_off,,,,,192,0,1,,,,,0,,,82,0
170304,note_off,,,,,96,0,2,,,,,1,,,63,0
170304,note_off,,,,,96,0,3,,,,,2,,,55,0
170304,note_on,,,,,0,0,3,,,,,2,,,58,90
170304,note_on,,,,,0,0,2,,,,,1,,,58,93
170400,note_off,,,,,96,0,2,,,,,1,,,58,0
170400,note_on,,,,,0,0,2,,,,,1,,,58,93
170400,note_off,,,,,96,0,3,,,,,2,,,58,0
170400,note_on,,,,,0,0,3,,,,,2,,,58,90
170496,note_on,,,,,192,0,1,,,,,0,,,84,109
170496,note_off,,,,,96,0,3,,,,,2,,,58,0
170496,note_on,,,,,384,0,4,,,,,3,,,51,90
170496,note_on,,,,,0,0,2,,,,,1,,,60,93
170496,note_off,,,,,96,0,2,,,,,1,,,58,0
170496,note_on,,,,,0,0,3,,,,,2,,,56,90
170592,note_on,,,,,0,0,3,,,,,2,,,56,90
170592,note_on,,,,,0,0,2,,,,,1,,,60,93
170592,note_off,,,,,96,0,2,,,,,1,,,60,0
170592,note_off,,,,,96,0,3,,,,,2,,,56,0
170624,note_off,,,,,128,0,1,,,,,0,,,84,0
170624,note_on,,,,,0,0,1,,,,,0,,,86,109
170688,note_off,,,,,96,0,2,,,,,1,,,60,0
170688,note_on,,,,,0,0,2,,,,,1,,,63,93
170688,note_on,,,,,0,0,3,,,,,2,,,60,90
170688,note_off,,,,,96,0,3,,,,,2,,,56,0
170752,note_on,,,,,0,0,1,,,,,0,,,87,109
170752,note_off,,,,,128,0,1,,,,,0,,,86,0
170784,note_off,,,,,96,0,2,,,,,1,,,63,0
170784,note_on,,,,,0,0,2,,,,,1,,,63,93
170784,note_on,,,,,0,0,3,,,,,2,,,60,90
170784,note_off,,,,,96,0,3,,,,,2,,,60,0
170880,note_on,,,,,0,0,2,,,,,1,,,60,93
170880,note_on,,,,,0,0,3,,,,,2,,,56,90
170880,note_off,,,,,96,0,3,,,,,2,,,60,0
170880,note_on,,,,,0,0,4,,,,,3,,,51,90
170880,note_off,,,,,384,0,4,,,,,3,,,51,0
170880,note_off,,,,,96,0,2,,,,,1,,,63,0
170880,note_on,,,,,0,0,1,,,,,0,,,87,109
170880,note_off,,,,,128,0,1,,,,,0,,,87,0
170976,note_off,,,,,96,0,2,,,,,1,,,60,0
170976,note_on,,,,,0,0,2,,,,,1,,,60,93
170976,note_on,,,,,0,0,3,,,,,2,,,56,90
170976,note_off,,,,,96,0,3,,,,,2,,,56,0
171008,note_on,,,,,0,0,1,,,,,0,,,86,109
171008,note_off,,,,,128,0,1,,,,,0,,,87,0
171072,note_on,,,,,0,0,3,,,,,2,,,60,90
171072,note_off,,,,,96,0,3,,,,,2,,,56,0
171072,note_off,,,,,96,0,2,,,,,1,,,60,0
171072,note_on,,,,,0,0,2,,,,,1,,,63,93
171136,note_on,,,,,0,0,1,,,,,0,,,84,109
171136,note_off,,,,,128,0,1,,,,,0,,,86,0
171168,note_off,,,,,96,0,2,,,,,1,,,63,0
171168,note_off,,,,,96,0,3,,,,,2,,,60,0
171168,note_on,,,,,0,0,3,,,,,2,,,60,90
171168,note_on,,,,,0,0,2,,,,,1,,,63,93
171264,note_on,,,,,0,0,2,,,,,1,,,58,93
171264,note_off,,,,,96,0,3,,,,,2,,,60,0
171264,note_on,,,,,0,0,4,,,,,3,,,51,90
171264,note_off,,,,,384,0,4,,,,,3,,,51,0
171264,note_off,,,,,128,0,1,,,,,0,,,84,0
171264,note_on,,,,,0,0,1,,,,,0,,,82,109
171264,note_off,,,,,96,0,2,,,,,1,,,63,0
171264,note_on,,,,,0,0,3,,,,,2,,,55,90
171360,note_off,,,,,96,0,3,,,,,2,,,55,0
171360,note_on,,,,,0,0,3,,,,,2,,,55,90
171360,note_off,,,,,96,0,2,,,,,1,,,58,0
171360,note_on,,,,,0,0,2,,,,,1,,,58,93
171456,note_off,,,,,96,0,3,,,,,2,,,55,0
171456,note_off,,,,,96,0,2,,,,,1,,,58,0
171456,note_on,,,,,0,0,2,,,,,1,,,63,93
171456,note_on,,,,,0,0,3,,,,,2,,,58,90
171552,note_off,,,,,96,0,3,,,,,2,,,58,0
171552,note_on,,,,,0,0,3,,,,,2,,,58,90
171552,note_on,,,,,0,0,2,,,,,1,,,63,93
171552,note_off,,,,,96,0,2,,,,,1,,,63,0
171648,note_off,,,,,96,0,2,,,,,1,,,63,0
171648,note_on,,,,,0,0,2,,,,,1,,,58,93
171648,note_on,,,,,0,0,3,,,,,2,,,55,90
171648,note_off,,,,,96,0,3,,,,,2,,,58,0
171648,note_off,,,,,384,0,4,,,,,3,,,51,0
171648,note_on,,,,,0,0,4,,,,,3,,,51,90
171648,note_on,,,,,0,0,1,,,,,0,,,75,109
171648,note_off,,,,,384,0,1,,,,,0,,,82,0
171744,note_off,,,,,96,0,2,,,,,1,,,58,0
171744,note_on,,,,,0,0,2,,,,,1,,,58,93
171744,note_on,,,,,0,0,3,,,,,2,,,55,90
171744,note_off,,,,,96,0,3,,,,,2,,,55,0
171840,note_on,,,,,0,0,2,,,,,1,,,63,93
171840,note_off,,,,,96,0,3,,,,,2,,,55,0
171840,note_on,,,,,0,0,3,,,,,2,,,58,90
171840,note_off,,,,,96,0,2,,,,,1,,,58,0
171840,note_off,,,,,192,0,1,,,,,0,,,75,0
171936,note_off,,,,,96,0,2,,,,,1,,,63,0
171936,note_off,,,,,96,0,3,,,,,2,,,58,0
171936,note_on,,,,,0,0,2,,,,,1,,,63,93
171936,note_on,,,,,0,0,3,,,,,2,,,58,90
172032,note_off,,,,,96,0,3,,,,,2,,,58,0
172032,note_on,,,,,0,0,3,,,,,2,,,56,90
172032,note_on,,,,,192,0,1,,,,,0,,,84,109
172032,note_on,,,,,0,0,4,,,,,3,,,51,90
172032,note_off,,,,,384,0,4,,,,,3,,,51,0
172032,note_off,,,,,96,0,2,,,,,1,,,63,0
172032,note_on,,,,,0,0,2,,,,,1,,,60,93
172128,note_on,,,,,0,0,3,,,,,2,,,56,90
172128,note_off,,,,,96,0,3,,,,,2,,,56,0
172128,note_on,,,,,0,0,2,,,,,1,,,60,93
172128,note_off,,,,,96,0,2,,,,,1,,,60,0
172160,note_off,,,,,128,0,1,,,,,0,,,84,0
172160,note_on,,,,,0,0,1,,,,,0,,,86,109
172224,note_on,,,,,0,0,3,,,,,2,,,60,90
172224,note_on,,,,,0,0,4,,,,,3,,,51,90
172224,note_off,,,,,96,0,3,,,,,2,,,56,0
172224,note_off,,,,,192,0,4,,,,,3,,,51,0
172224,note_off,,,,,96,0,2,,,,,1,,,60,0
172224,note_on,,,,,0,0,2,,,,,1,,,63,93
172288,note_on,,,,,0,0,1,,,,,0,,,87,109
172288,note_off,,,,,128,0,1,,,,,0,,,86,0
172320,note_off,,,,,96,0,3,,,,,2,,,60,0
172320,note_on,,,,,0,0,2,,,,,1,,,63,93
172320,note_off,,,,,96,0,2,,,,,1,,,63,0
172320,note_on,,,,,0,0,3,,,,,2,,,60,90
172416,note_on,,,,,0,0,2,,,,,1,,,60,93
172416,note_off,,,,,96,0,3,,,,,2,,,60,0
172416,note_off,,,,,128,0,1,,,,,0,,,87,0
172416,note_on,,,,,0,0,1,,,,,0,,,87,109
172416,note_off,,,,,96,0,2,,,,,1,,,63,0
172416,note_on,,,,,0,0,3,,,,,2,,,56,90
172416,note_on,,,,,0,0,4,,,,,3,,,51,90
172416,note_off,,,,,192,0,4,,,,,3,,,51,0
172512,note_off,,,,,96,0,3,,,,,2,,,56,0
172512,note_on,,,,,0,0,3,,,,,2,,,56,90
172512,note_off,,,,,96,0,2,,,,,1,,,60,0
172512,note_on,,,,,0,0,2,,,,,1,,,60,93
172544,note_off,,,,,128,0,1,,,,,0,,,87,0
172544,note_on,,,,,0,0,1,,,,,0,,,86,109
172608,note_off,,,,,192,0,4,,,,,3,,,51,0
172608,note_on,,,,,0,0,2,,,,,1,,,63,93
172608,note_off,,,,,96,0,2,,,,,1,,,60,0
172608,note_off,,,,,96,0,3,,,,,2,,,56,0
172608,note_on,,,,,0,0,3,,,,,2,,,60,90
172608,note_on,,,,,0,0,4,,,,,3,,,51,90
172672,note_off,,,,,128,0,1,,,,,0,,,86,0
172672,note_on,,,,,0,0,1,,,,,0,,,84,109
172704,note_off,,,,,96,0,3,,,,,2,,,60,0
172704,note_on,,,,,0,0,3,,,,,2,,,60,90
172704,note_off,,,,,96,0,2,,,,,1,,,63,0
172704,note_on,,,,,0,0,2,,,,,1,,,63,93
172800,note_off,,,,,96,0,2,,,,,1,,,63,0
172800,note_on,,,,,0,0,2,,,,,1,,,58,93
172800,note_off,,,,,96,0,3,,,,,2,,,60,0
172800,note_off,,,,,128,0,1,,,,,0,,,84,0
172800,note_on,,,,,0,0,1,,,,,0,,,82,109
172800,note_on,,,,,0,0,3,,,,,2,,,55,90
172800,note_off,,,,,192,0,4,,,,,3,,,51,0
172800,note_on,,,,,0,0,4,,,,,3,,,51,90
172896,note_on,,,,,0,0,3,,,,,2,,,55,90
172896,note_off,,,,,96,0,3,,,,,2,,,55,0
172896,note_off,,,,,96,0,2,,,,,1,,,58,0
172896,note_on,,,,,0,0,2,,,,,1,,,58,93
172992,note_on,,,,,0,0,4,,,,,3,,,51,90
172992,note_off,,,,,192,0,4,,,,,3,,,51,0
172992,note_off,,,,,96,0,3,,,,,2,,,55,0
172992,note_on,,,,,0,0,3,,,,,2,,,58,90
172992,note_off,,,,,96,0,2,,,,,1,,,58,0
172992,note_on,,,,,0,0,2,,,,,1,,,63,93
173088,note_off,,,,,96,0,2,,,,,1,,,63,0
173088,note_off,,,,,96,0,3,,,,,2,,,58,0
173088,note_on,,,,,0,0,3,,,,,2,,,58,90
173088,note_on,,,,,0,0,2,,,,,1,,,63,93
173184,note_on,,,,,0,0,2,,,,,1,,,58,93
173184,note_off,,,,,96,0,2,,,,,1,,,63,0
173184,note_off,,,,,384,0,1,,,,,0,,,82,0
173184,note_on,,,,,0,0,1,,,,,0,,,75,109
173184,note_on,,,,,0,0,3,,,,,2,,,55,90
173184,note_off,,,,,96,0,3,,,,,2,,,58,0
173184,note_on,,,,,0,0,4,,,,,3,,,51,90
173184,note_off,,,,,192,0,4,,,,,3,,,51,0
173280,note_off,,,,,96,0,3,,,,,2,,,55,0
173280,note_on,,,,,0,0,3,,,,,2,,,55,90
173280,note_off,,,,,96,0,2,,,,,1,,,58,0
173280,note_on,,,,,0,0,2,,,,,1,,,58,93
173376,note_on,,,,,0,0,3,,,,,2,,,58,90
173376,note_off,,,,,192,0,1,,,,,0,,,75,0
173376,note_off,,,,,192,0,4,,,,,3,,,51,0
173376,note_off,,,,,96,0,2,,,,,1,,,58,0
173376,note_off,,,,,96,0,3,,,,,2,,,55,0
173376,note_on,,,,,0,0,4,,,,,3,,,51,90
173376,note_on,,,,,0,0,2,,,,,1,,,63,93
173472,note_on,,,,,0,0,2,,,,,1,,,63,93
173472,note_off,,,,,96,0,3,,,,,2,,,58,0
173472,note_on,,,,,0,0,3,,,,,2,,,58,90
173472,note_off,,,,,96,0,2,,,,,1,,,63,0
173568,note_on,,,,,0,0,3,,,,,2,,,65,90
173568,note_off,,,,,96,0,3,,,,,2,,,58,0
173568,note_on,,,,,0,0,3,,,,,2,,,60,90
173568,note_on,,,,,0,0,2,,,,,1,,,60,93
173568,note_off,,,,,192,0,4,,,,,3,,,51,0
173568,note_on,,,,,0,0,2,,,,,1,,,65,93
173568,note_off,,,,,96,0,2,,,,,1,,,63,0
173568,note_on,,,,,192,0,1,,,,,0,,,77,109
173568,note_on,,,,,0,0,4,,,,,3,,,44,90
173632,note_off,,,,,64,0,1,,,,,0,,,77,0
173696,note_on,,,,,64,0,1,,,,,0,,,84,109
173760,note_off,,,,,64,0,1,,,,,0,,,84,0
173824,note_on,,,,,64,0,1,,,,,0,,,82,109
173888,note_off,,,,,64,0,1,,,,,0,,,82,0
173952,note_off,,,,,384,0,3,,,,,2,,,65,0
173952,note_off,,,,,384,0,4,,,,,3,,,44,0
173952,note_off,,,,,0,0,2,,,,,1,,,65,0
173952,note_on,,,,,64,0,1,,,,,0,,,80,109
173952,note_off,,,,,384,0,2,,,,,1,,,60,0
173952,note_off,,,,,0,0,3,,,,,2,,,60,0
174016,note_off,,,,,64,0,1,,,,,0,,,80,0
174080,note_on,,,,,64,0,1,,,,,0,,,79,109
174144,note_off,,,,,64,0,1,,,,,0,,,79,0
174208,note_on,,,,,64,0,1,,,,,0,,,77,109
174272,note_off,,,,,64,0,1,,,,,0,,,77,0
174336,note_on,,,,,384,0,2,,,,,1,,,68,93
174336,note_on,,,,,384,0,3,,,,,2,,,58,90
174336,note_on,,,,,0,0,3,,,,,2,,,65,90
174336,note_on,,,,,0,0,2,,,,,1,,,58,93
174336,note_on,,,,,384,0,4,,,,,3,,,46,90
174336,note_on,,,,,64,0,1,,,,,0,,,75,109
174400,note_off,,,,,64,0,1,,,,,0,,,75,0
174464,note_on,,,,,64,0,1,,,,,0,,,74,109
174528,note_off,,,,,64,0,1,,,,,0,,,74,0
174592,note_on,,,,,64,0,1,,,,,0,,,72,109
174656,note_off,,,,,64,0,1,,,,,0,,,72,0
174720,note_off,,,,,0,0,2,,,,,1,,,58,0
174720,note_off,,,,,384,0,2,,,,,1,,,68,0
174720,note_off,,,,,0,0,3,,,,,2,,,65,0
174720,note_off,,,,,384,0,4,,,,,3,,,46,0
174720,note_off,,,,,384,0,3,,,,,2,,,58,0
174720,note_on,,,,,64,0,1,,,,,0,,,70,109
174784,note_off,,,,,64,0,1,,,,,0,,,70,0
174848,note_on,,,,,64,0,1,,,,,0,,,72,109
174912,note_off,,,,,64,0,1,,,,,0,,,72,0
174976,note_on,,,,,64,0,1,,,,,0,,,74,109
175040,note_off,,,,,64,0,1,,,,,0,,,74,0
175104,note_on,,,,,64,0,1,,,,,0,,,75,109
175104,note_on,,,,,384,0,2,,,,,1,,,67,93
175104,note_on,,,,,384,0,3,,,,,2,,,55,90
175104,note_on,,,,,0,0,3,,,,,2,,,63,90
175104,note_on,,,,,384,0,4,,,,,3,,,51,90
175232,note_on,,,,,0,0,2,,,,,1,,,67,93
175232,note_on,,,,,0,0,2,,,,,1,,,70,93
175232,note_off,,,,,128,0,2,,,,,1,,,67,0
175360,note_off,,,,,128,0,2,,,,,1,,,70,0
175360,note_on,,,,,0,0,2,,,,,1,,,70,93
175360,note_on,,,,,0,0,2,,,,,1,,,67,93
175360,note_off,,,,,0,0,2,,,,,1,,,67,0
175488,note_off,,,,,384,0,4,,,,,3,,,51,0
175488,note_off,,,,,0,0,3,,,,,2,,,63,0
175488,note_off,,,,,128,0,2,,,,,1,,,67,0
175488,note_off,,,,,384,0,3,,,,,2,,,55,0
175488,note_on,,,,,0,0,2,,,,,1,,,70,93
175488,note_off,,,,,384,0,1,,,,,0,,,75,0
175488,note_off,,,,,0,0,2,,,,,1,,,70,0
175488,note_on,,,,,0,0,2,,,,,1,,,67,93
175616,note_on,,,,,0,0,2,,,,,1,,,67,93
175616,note_off,,,,,0,0,2,,,,,1,,,67,0
175616,note_on,,,,,0,0,2,,,,,1,,,70,93
175616,note_off,,,,,128,0,2,,,,,1,,,70,0
175744,note_off,,,,,128,0,2,,,,,1,,,70,0
175744,note_off,,,,,0,0,2,,,,,1,,,67,0
175744,note_on,,,,,0,0,2,,,,,1,,,70,93
175744,note_on,,,,,0,0,2,,,,,1,,,67,93
175872,note_off,,,,,128,0,2,,,,,1,,,70,0
175872,note_off,,,,,0,0,2,,,,,1,,,67,0
175872,note_on,,,,,0,0,2,,,,,1,,,70,93
175872,note_on,,,,,0,0,2,,,,,1,,,67,93
176000,note_on,,,,,0,0,2,,,,,1,,,67,93
176000,note_on,,,,,0,0,2,,,,,1,,,70,93
176000,note_off,,,,,128,0,2,,,,,1,,,70,0
176000,note_off,,,,,0,0,2,,,,,1,,,67,0
176128,note_off,,,,,128,0,2,,,,,1,,,70,0
176128,note_on,,,,,0,0,2,,,,,1,,,70,93
176128,note_on,,,,,0,0,2,,,,,1,,,67,93
176128,note_off,,,,,0,0,2,,,,,1,,,67,0
176160,note_on,,,,,672,0,3,,,,,2,,,65,90
176256,note_off,,,,,128,0,2,,,,,1,,,70,0
176256,note_off,,,,,0,0,2,,,,,1,,,67,0
176256,note_on,,,,,0,0,2,,,,,1,,,70,93
176256,note_on,,,,,0,0,2,,,,,1,,,67,93
176256,note_on,,,,,0,0,3,,,,,2,,,64,90
176256,note_off,,,,,96,0,3,,,,,2,,,65,0
176384,note_off,,,,,128,0,2,,,,,1,,,70,0
176384,note_off,,,,,0,0,2,,,,,1,,,67,0
176384,note_on,,,,,0,0,2,,,,,1,,,70,93
176384,note_on,,,,,0,0,2,,,,,1,,,67,93
176384,note_off,,,,,128,0,3,,,,,2,,,64,0
176384,note_on,,,,,0,0,3,,,,,2,,,62,90
176512,note_off,,,,,128,0,2,,,,,1,,,70,0
176512,note_off,,,,,0,0,2,,,,,1,,,67,0
176512,note_on,,,,,0,0,2,,,,,1,,,67,93
176512,note_on,,,,,0,0,2,,,,,1,,,70,93
176512,note_on,,,,,0,0,3,,,,,2,,,64,90
176512,note_off,,,,,128,0,3,,,,,2,,,62,0
176640,note_off,,,,,128,0,3,,,,,2,,,64,0
176640,note_on,,,,,0,0,3,,,,,2,,,65,90
176640,note_on,,,,,0,0,2,,,,,1,,,68,93
176640,note_off,,,,,128,0,2,,,,,1,,,67,0
176640,note_on,,,,,0,0,2,,,,,1,,,70,93
176640,note_off,,,,,0,0,2,,,,,1,,,70,0
176768,note_on,,,,,0,0,2,,,,,1,,,68,93
176768,note_on,,,,,0,0,2,,,,,1,,,70,93
176768,note_off,,,,,0,0,2,,,,,1,,,70,0
176768,note_off,,,,,128,0,2,,,,,1,,,68,0
176832,note_off,,,,,192,0,3,,,,,2,,,65,0
176896,note_on,,,,,0,0,2,,,,,1,,,68,93
176896,note_off,,,,,0,0,2,,,,,1,,,70,0
176896,note_off,,,,,128,0,2,,,,,1,,,68,0
176896,note_on,,,,,0,0,2,,,,,1,,,70,93
177024,note_on,,,,,0,0,2,,,,,1,,,68,93
177024,note_on,,,,,0,0,2,,,,,1,,,70,93
177024,note_off,,,,,0,0,2,,,,,1,,,70,0
177024,note_on,,,,,192,0,3,,,,,2,,,62,90
177024,note_off,,,,,128,0,2,,,,,1,,,68,0
177152,note_off,,,,,128,0,2,,,,,1,,,68,0
177152,note_off,,,,,0,0,2,,,,,1,,,70,0
177152,note_on,,,,,0,0,2,,,,,1,,,68,93
177152,note_on,,,,,0,0,2,,,,,1,,,70,93
177216,note_off,,,,,192,0,3,,,,,2,,,62,0
177280,note_off,,,,,128,0,2,,,,,1,,,68,0
177280,note_off,,,,,0,0,2,,,,,1,,,70,0
177280,note_on,,,,,0,0,2,,,,,1,,,68,93
177280,note_on,,,,,0,0,2,,,,,1,,,70,93
177408,note_on,,,,,192,0,3,,,,,2,,,58,90
177408,note_on,,,,,0,0,2,,,,,1,,,70,93
177408,note_on,,,,,0,0,2,,,,,1,,,68,93
177408,note_off,,,,,0,0,2,,,,,1,,,70,0
177408,note_off,,,,,128,0,2,,,,,1,,,68,0
177536,note_off,,,,,128,0,2,,,,,1,,,68,0
177536,note_off,,,,,0,0,2,,,,,1,,,70,0
177536,note_on,,,,,0,0,2,,,,,1,,,68,93
177536,note_on,,,,,0,0,2,,,,,1,,,70,93
177600,note_off,,,,,192,0,3,,,,,2,,,58,0
177664,note_off,,,,,128,0,2,,,,,1,,,68,0
177664,note_off,,,,,0,0,2,,,,,1,,,70,0
177664,note_on,,,,,0,0,2,,,,,1,,,68,93
177664,note_on,,,,,0,0,2,,,,,1,,,70,93
177696,note_on,,,,,2208,0,4,,,,,3,,,60,90
177696,note_on,,,,,2208,0,1,,,,,0,,,75,109
177792,note_on,,,,,0,0,2,,,,,1,,,68,93
177792,note_off,,,,,128,0,2,,,,,1,,,68,0
177792,note_off,,,,,0,0,2,,,,,1,,,70,0
177792,note_on,,,,,0,0,2,,,,,1,,,70,93
177792,note_off,,,,,96,0,1,,,,,0,,,75,0
177792,note_on,,,,,0,0,1,,,,,0,,,74,109
177792,note_off,,,,,96,0,4,,,,,3,,,60,0
177792,note_on,,,,,0,0,4,,,,,3,,,58,90
177920,note_off,,,,,0,0,2,,,,,1,,,70,0
177920,note_on,,,,,0,0,2,,,,,1,,,70,93
177920,note_on,,,,,0,0,2,,,,,1,,,68,93
177920,note_off,,,,,128,0,1,,,,,0,,,74,0
177920,note_on,,,,,0,0,1,,,,,0,,,72,109
177920,note_off,,,,,128,0,4,,,,,3,,,58,0
177920,note_on,,,,,0,0,4,,,,,3,,,57,90
177920,note_off,,,,,128,0,2,,,,,1,,,68,0
178048,note_off,,,,,128,0,1,,,,,0,,,72,0
178048,note_on,,,,,0,0,1,,,,,0,,,74,109
178048,note_off,,,,,128,0,4,,,,,3,,,57,0
178048,note_on,,,,,0,0,4,,,,,3,,,58,90
178048,note_on,,,,,0,0,2,,,,,1,,,70,93
178048,note_off,,,,,128,0,2,,,,,1,,,70,0
178048,note_off,,,,,0,0,2,,,,,1,,,68,0
178048,note_on,,,,,0,0,2,,,,,1,,,68,93
178176,note_off,,,,,128,0,2,,,,,1,,,68,0
178176,note_off,,,,,0,0,2,,,,,1,,,70,0
178176,note_off,,,,,128,0,1,,,,,0,,,74,0
178176,note_on,,,,,0,0,1,,,,,0,,,75,109
178176,note_on,,,,,0,0,2,,,,,1,,,70,93
178176,note_on,,,,,0,0,2,,,,,1,,,67,93
178176,note_on,,,,,0,0,4,,,,,3,,,51,90
178176,note_off,,,,,128,0,4,,,,,3,,,58,0
178304,note_on,,,,,0,0,2,,,,,1,,,67,93
178304,note_off,,,,,128,0,2,,,,,1,,,70,0
178304,note_off,,,,,0,0,2,,,,,1,,,67,0
178304,note_on,,,,,0,0,2,,,,,1,,,70,93
178368,note_off,,,,,192,0,4,,,,,3,,,51,0
178432,note_on,,,,,0,0,2,,,,,1,,,67,93
178432,note_off,,,,,128,0,2,,,,,1,,,70,0
178432,note_on,,,,,0,0,2,,,,,1,,,70,93
178432,note_off,,,,,0,0,2,,,,,1,,,67,0
178560,note_on,,,,,192,0,4,,,,,3,,,39,90
178560,note_off,,,,,384,0,1,,,,,0,,,75,0
178560,note_on,,,,,0,0,2,,,,,1,,,67,93
178560,note_on,,,,,0,0,2,,,,,1,,,70,93
178560,note_off,,,,,0,0,2,,,,,1,,,70,0
178560,note_off,,,,,128,0,2,,,,,1,,,67,0
178688,note_on,,,,,0,0,2,,,,,1,,,67,93
178688,note_on,,,,,0,0,2,,,,,1,,,70,93
178688,note_on,,,,,128,0,1,,,,,0,,,77,109
178688,note_off,,,,,128,0,2,,,,,1,,,70,0
178688,note_off,,,,,0,0,2,,,,,1,,,67,0
178752,note_off,,,,,192,0,4,,,,,3,,,39,0
178816,note_off,,,,,128,0,2,,,,,1,,,70,0
178816,note_on,,,,,0,0,2,,,,,1,,,67,93
178816,note_off,,,,,0,0,2,,,,,1,,,67,0
178816,note_on,,,,,0,0,1,,,,,0,,,79,109
178816,note_off,,,,,128,0,1,,,,,0,,,77,0
178816,note_on,,,,,0,0,2,,,,,1,,,70,93
178944,note_on,,,,,0,0,2,,,,,1,,,67,93
178944,note_off,,,,,0,0,2,,,,,1,,,70,0
178944,note_off,,,,,128,0,2,,,,,1,,,67,0
178944,note_off,,,,,128,0,1,,,,,0,,,79,0
178944,note_on,,,,,0,0,1,,,,,0,,,70,109
178944,note_on,,,,,0,0,2,,,,,1,,,70,93
179072,note_on,,,,,0,0,2,,,,,1,,,67,93
179072,note_off,,,,,128,0,2,,,,,1,,,67,0
179072,note_off,,,,,0,0,2,,,,,1,,,70,0
179072,note_on,,,,,0,0,2,,,,,1,,,70,93
179200,note_off,,,,,128,0,2,,,,,1,,,67,0
179200,note_off,,,,,0,0,2,,,,,1,,,70,0
179200,note_on,,,,,0,0,2,,,,,1,,,67,93
179200,note_on,,,,,0,0,2,,,,,1,,,70,93
179232,note_on,,,,,1632,0,3,,,,,2,,,65,90
179328,note_off,,,,,384,0,1,,,,,0,,,70,0
179328,note_on,,,,,0,0,3,,,,,2,,,64,90
179328,note_on,,,,,0,0,2,,,,,1,,,67,93
179328,note_on,,,,,0,0,2,,,,,1,,,70,93
179328,note_off,,,,,128,0,2,,,,,1,,,67,0
179328,note_off,,,,,96,0,3,,,,,2,,,65,0
179328,note_off,,,,,0,0,2,,,,,1,,,70,0
179456,note_off,,,,,128,0,2,,,,,1,,,70,0
179456,note_on,,,,,0,0,2,,,,,1,,,70,93
179456,note_off,,,,,0,0,2,,,,,1,,,67,0
179456,note_off,,,,,128,0,3,,,,,2,,,64,0
179456,note_on,,,,,0,0,2,,,,,1,,,67,93
179456,note_on,,,,,0,0,3,,,,,2,,,62,90
179584,note_on,,,,,0,0,2,,,,,1,,,67,93
179584,note_on,,,,,0,0,3,,,,,2,,,64,90
179584,note_on,,,,,0,0,2,,,,,1,,,70,93
179584,note_off,,,,,0,0,2,,,,,1,,,67,0
179584,note_off,,,,,128,0,3,,,,,2,,,62,0
179584,note_off,,,,,128,0,2,,,,,1,,,70,0
179712,note_off,,,,,128,0,3,,,,,2,,,64,0
179712,note_on,,,,,0,0,3,,,,,2,,,65,90
179712,note_on,,,,,0,0,2,,,,,1,,,68,93
179712,note_on,,,,,0,0,2,,,,,1,,,70,93
179712,note_off,,,,,0,0,2,,,,,1,,,70,0
179712,note_off,,,,,128,0,2,,,,,1,,,67,0
179840,note_off,,,,,0,0,2,,,,,1,,,68,0
179840,note_off,,,,,128,0,2,,,,,1,,,70,0
179840,note_on,,,,,0,0,2,,,,,1,,,70,93
179840,note_on,,,,,0,0,2,,,,,1,,,68,93
179904,note_off,,,,,192,0,3,,,,,2,,,65,0
179968,note_on,,,,,0,0,2,,,,,1,,,68,93
179968,note_on,,,,,0,0,2,,,,,1,,,70,93
179968,note_off,,,,,0,0,2,,,,,1,,,70,0
179968,note_off,,,,,128,0,2,,,,,1,,,68,0
180096,note_on,,,,,0,0,2,,,,,1,,,70,93
180096,note_on,,,,,0,0,2,,,,,1,,,68,93
180096,note_off,,,,,0,0,2,,,,,1,,,70,0
180096,note_off,,,,,128,0,2,,,,,1,,,68,0
180096,note_on,,,,,192,0,3,,,,,2,,,62,90
180224,note_on,,,,,0,0,2,,,,,1,,,68,93
180224,note_off,,,,,128,0,2,,,,,1,,,68,0
180224,note_off,,,,,0,0,2,,,,,1,,,70,0
180224,note_on,,,,,0,0,2,,,,,1,,,70,93
180288,note_off,,,,,192,0,3,,,,,2,,,62,0
180352,note_on,,,,,0,0,2,,,,,1,,,68,93
180352,note_off,,,,,128,0,2,,,,,1,,,68,0
180352,note_off,,,,,0,0,2,,,,,1,,,70,0
180352,note_on,,,,,0,0,2,,,,,1,,,70,93
180480,note_on,,,,,0,0,2,,,,,1,,,68,93
180480,note_on,,,,,192,0,3,,,,,2,,,58,90
180480,note_off,,,,,128,0,2,,,,,1,,,68,0
180480,note_off,,,,,0,0,2,,,,,1,,,70,0
180480,note_on,,,,,0,0,2,,,,,1,,,70,93
180608,note_off,,,,,0,0,2,,,,,1,,,70,0
180608,note_on,,,,,0,0,2,,,,,1,,,70,93
180608,note_on,,,,,0,0,2,,,,,1,,,68,93
180608,note_off,,,,,128,0,2,,,,,1,,,68,0
180672,note_off,,,,,192,0,3,,,,,2,,,58,0
180736,note_off,,,,,0,0,2,,,,,1,,,68,0
180736,note_on,,,,,0,0,2,,,,,1,,,70,93
180736,note_on,,,,,0,0,2,,,,,1,,,68,93
180736,note_off,,,,,128,0,2,,,,,1,,,70,0
180768,note_on,,,,,2016,0,4,,,,,3,,,60,90
180768,note_on,,,,,1440,0,1,,,,,0,,,75,109
180864,note_on,,,,,0,0,2,,,,,1,,,68,93
180864,note_off,,,,,128,0,2,,,,,1,,,70,0
180864,note_on,,,,,0,0,4,,,,,3,,,58,90
180864,note_off,,,,,96,0,4,,,,,3,,,60,0
180864,note_on,,,,,0,0,1,,,,,0,,,74,109
180864,note_off,,,,,96,0,1,,,,,0,,,75,0
180864,note_off,,,,,0,0,2,,,,,1,,,68,0
180864,note_on,,,,,0,0,2,,,,,1,,,70,93
180992,note_on,,,,,0,0,2,,,,,1,,,70,93
180992,note_off,,,,,128,0,1,,,,,0,,,74,0
180992,note_on,,,,,0,0,1,,,,,0,,,72,109
180992,note_on,,,,,0,0,2,,,,,1,,,68,93
180992,note_off,,,,,0,0,2,,,,,1,,,68,0
180992,note_off,,,,,128,0,2,,,,,1,,,70,0
180992,note_off,,,,,128,0,4,,,,,3,,,58,0
180992,note_on,,,,,0,0,4,,,,,3,,,57,90
181120,note_on,,,,,0,0,2,,,,,1,,,70,93
181120,note_on,,,,,0,0,2,,,,,1,,,68,93
181120,note_on,,,,,0,0,4,,,,,3,,,58,90
181120,note_off,,,,,128,0,4,,,,,3,,,57,0
181120,note_off,,,,,0,0,2,,,,,1,,,68,0
181120,note_on,,,,,0,0,1,,,,,0,,,74,109
181120,note_off,,,,,128,0,1,,,,,0,,,72,0
181120,note_off,,,,,128,0,2,,,,,1,,,70,0
181248,note_on,,,,,0,0,4,,,,,3,,,51,90
181248,note_off,,,,,128,0,1,,,,,0,,,74,0
181248,note_on,,,,,0,0,2,,,,,1,,,70,93
181248,note_on,,,,,0,0,1,,,,,0,,,75,109
181248,note_off,,,,,0,0,2,,,,,1,,,68,0
181248,note_on,,,,,0,0,2,,,,,1,,,67,93
181248,note_off,,,,,128,0,2,,,,,1,,,70,0
181248,note_off,,,,,128,0,4,,,,,3,,,58,0
181376,note_on,,,,,0,0,2,,,,,1,,,70,93
181376,note_on,,,,,0,0,2,,,,,1,,,67,93
181376,note_off,,,,,128,0,2,,,,,1,,,67,0
181376,note_off,,,,,0,0,2,,,,,1,,,70,0
181440,note_off,,,,,192,0,4,,,,,3,,,51,0
181504,note_off,,,,,128,0,2,,,,,1,,,67,0
181504,note_off,,,,,0,0,2,,,,,1,,,70,0
181504,note_on,,,,,0,0,2,,,,,1,,,70,93
181504,note_on,,,,,0,0,2,,,,,1,,,67,93
181632,note_off,,,,,128,0,2,,,,,1,,,70,0
181632,note_off,,,,,0,0,2,,,,,1,,,67,0
181632,note_on,,,,,0,0,2,,,,,1,,,70,93
181632,note_on,,,,,0,0,2,,,,,1,,,67,93
181632,note_on,,,,,192,0,4,,,,,3,,,39,90
181632,note_off,,,,,384,0,1,,,,,0,,,75,0
181760,note_on,,,,,128,0,1,,,,,0,,,77,109
181760,note_off,,,,,128,0,2,,,,,1,,,70,0
181760,note_off,,,,,0,0,2,,,,,1,,,67,0
181760,note_on,,,,,0,0,2,,,,,1,,,67,93
181760,note_on,,,,,0,0,2,,,,,1,,,70,93
181824,note_off,,,,,192,0,4,,,,,3,,,39,0
181888,note_on,,,,,0,0,2,,,,,1,,,67,93
181888,note_on,,,,,0,0,2,,,,,1,,,70,93
181888,note_off,,,,,128,0,1,,,,,0,,,77,0
181888,note_on,,,,,0,0,1,,,,,0,,,79,109
181888,note_off,,,,,0,0,2,,,,,1,,,70,0
181888,note_off,,,,,128,0,2,,,,,1,,,67,0
182016,note_on,,,,,0,0,2,,,,,1,,,67,93
182016,note_off,,,,,128,0,1,,,,,0,,,79,0
182016,note_on,,,,,0,0,1,,,,,0,,,70,109
182016,note_off,,,,,128,0,2,,,,,1,,,70,0
182016,note_off,,,,,0,0,2,,,,,1,,,67,0
182016,note_on,,,,,0,0,2,,,,,1,,,70,93
182400,note_on,,,,,576,0,4,,,,,3,,,55,90
182400,note_on,,,,,1728,0,3,,,,,2,,,65,90
182400,note_off,,,,,0,0,2,,,,,1,,,67,0
182400,note_off,,,,,384,0,2,,,,,1,,,70,0
182400,note_on,,,,,0,0,2,,,,,1,,,71,93
182400,note_on,,,,,0,0,1,,,,,0,,,74,109
182400,note_off,,,,,384,0,1,,,,,0,,,70,0
182528,note_on,,,,,0,0,1,,,,,0,,,75,109
182528,note_off,,,,,128,0,1,,,,,0,,,74,0
182656,note_off,,,,,128,0,1,,,,,0,,,75,0
182656,note_on,,,,,0,0,1,,,,,0,,,74,109
182784,note_off,,,,,128,0,1,,,,,0,,,74,0
182784,note_off,,,,,384,0,2,,,,,1,,,71,0
182784,note_on,,,,,0,0,2,,,,,1,,,72,93
182784,note_on,,,,,0,0,3,,,,,2,,,63,90
182784,note_off,,,,,384,0,3,,,,,2,,,65,0
182784,note_on,,,,,0,0,4,,,,,3,,,60,90
182784,note_off,,,,,384,0,4,,,,,3,,,55,0
182784,note_on,,,,,0,0,1,,,,,0,,,72,109
182976,note_off,,,,,192,0,2,,,,,1,,,72,0
182976,note_off,,,,,192,0,4,,,,,3,,,60,0
182976,note_off,,,,,192,0,3,,,,,2,,,63,0
182976,note_off,,,,,192,0,1,,,,,0,,,72,0
183168,note_on,,,,,192,0,2,,,,,1,,,71,93
183168,note_on,,,,,192,0,4,,,,,3,,,55,90
183168,note_on,,,,,192,0,1,,,,,0,,,74,109
183168,note_on,,,,,192,0,3,,,,,2,,,65,90
183296,note_off,,,,,128,0,1,,,,,0,,,74,0
183296,note_on,,,,,0,0,1,,,,,0,,,75,109
183424,note_off,,,,,128,0,1,,,,,0,,,75,0
183424,note_on,,,,,0,0,1,,,,,0,,,74,109
183552,note_on,,,,,0,0,1,,,,,0,,,72,109
183552,note_off,,,,,384,0,3,,,,,2,,,65,0
183552,note_on,,,,,0,0,3,,,,,2,,,63,90
183552,note_on,,,,,0,0,4,,,,,3,,,60,90
183552,note_off,,,,,384,0,2,,,,,1,,,71,0
183552,note_on,,,,,0,0,2,,,,,1,,,72,93
183552,note_off,,,,,128,0,1,,,,,0,,,74,0
183552,note_off,,,,,384,0,4,,,,,3,,,55,0
183744,note_off,,,,,192,0,2,,,,,1,,,72,0
183744,note_off,,,,,192,0,3,,,,,2,,,63,0
183744,note_off,,,,,192,0,1,,,,,0,,,72,0
183744,note_off,,,,,192,0,4,,,,,3,,,60,0
183936,note_on,,,,,192,0,1,,,,,0,,,74,109
183936,note_on,,,,,192,0,3,,,,,2,,,65,90
183936,note_on,,,,,192,0,2,,,,,1,,,71,93
183936,note_on,,,,,192,0,4,,,,,3,,,55,90
184064,note_off,,,,,128,0,1,,,,,0,,,74,0
184064,note_on,,,,,0,0,1,,,,,0,,,75,109
184064,note_off,,,,,128,0,3,,,,,2,,,65,0
184064,note_on,,,,,0,0,3,,,,,2,,,67,90
184192,note_on,,,,,0,0,3,,,,,2,,,65,90
184192,note_on,,,,,0,0,1,,,,,0,,,74,109
184192,note_off,,,,,128,0,1,,,,,0,,,75,0
184192,note_off,,,,,128,0,3,,,,,2,,,67,0
184320,note_on,,,,,0,0,4,,,,,3,,,56,90
184320,note_off,,,,,384,0,4,,,,,3,,,55,0
184320,note_off,,,,,384,0,2,,,,,1,,,71,0
184320,note_on,,,,,0,0,2,,,,,1,,,72,93
184320,note_off,,,,,128,0,1,,,,,0,,,74,0
184320,note_off,,,,,128,0,3,,,,,2,,,65,0
184320,note_on,,,,,0,0,1,,,,,0,,,72,109
184320,note_on,,,,,0,0,3,,,,,2,,,63,90
184704,note_on,,,,,0,0,1,,,,,0,,,84,109
184704,note_off,,,,,384,0,1,,,,,0,,,72,0
185088,note_off,,,,,768,0,3,,,,,2,,,63,0
185088,note_on,,,,,0,0,3,,,,,2,,,64,90
185472,note_off,,,,,768,0,1,,,,,0,,,84,0
185472,note_on,,,,,0,0,1,,,,,0,,,82,109
185856,note_off,,,,,768,0,3,,,,,2,,,64,0
185856,note_on,,,,,0,0,3,,,,,2,,,65,90
186240,note_on,,,,,0,0,1,,,,,0,,,80,109
186240,note_off,,,,,768,0,1,,,,,0,,,82,0
186432,note_off,,,,,192,0,1,,,,,0,,,80,0
186624,note_on,,,,,192,0,1,,,,,0,,,82,109
186624,note_off,,,,,2304,0,2,,,,,1,,,72,0
186624,note_off,,,,,2304,0,4,,,,,3,,,56,0
186624,note_off,,,,,768,0,3,,,,,2,,,65,0
186816,note_off,,,,,192,0,1,,,,,0,,,82,0
186816,note_on,,,,,0,0,1,,,,,0,,,80,109
187008,note_off,,,,,192,0,1,,,,,0,,,80,0
187008,note_on,,,,,0,0,1,,,,,0,,,79,109
187200,note_on,,,,,0,0,1,,,,,0,,,77,109
187200,note_off,,,,,192,0,1,,,,,0,,,79,0
187392,note_on,,,,,0,0,1,,,,,0,,,75,109
187392,note_off,,,,,192,0,1,,,,,0,,,77,0
187392,note_on,,,,,768,0,3,,,,,2,,,55,90
187392,note_on,,,,,768,0,2,,,,,1,,,58,93
187392,note_on,,,,,768,0,4,,,,,3,,,46,90
187968,note_on,,,,,0,0,3,,,,,2,,,54,90
187968,note_on,,,,,0,0,2,,,,,1,,,57,93
187968,note_off,,,,,576,0,3,,,,,2,,,55,0
187968,note_off,,,,,576,0,2,,,,,1,,,58,0
188160,note_off,,,,,192,0,3,,,,,2,,,54,0
188160,note_on,,,,,0,0,3,,,,,2,,,55,90
188160,note_off,,,,,192,0,2,,,,,1,,,57,0
188160,note_on,,,,,0,0,2,,,,,1,,,58,93
188544,note_on,,,,,0,0,2,,,,,1,,,62,93
188544,note_on,,,,,0,0,1,,,,,0,,,79,109
188544,note_off,,,,,1152,0,1,,,,,0,,,75,0
188544,note_off,,,,,384,0,2,,,,,1,,,58,0
188544,note_off,,,,,384,0,3,,,,,2,,,55,0
188544,note_on,,,,,0,0,3,,,,,2,,,56,90
188736,note_on,,,,,0,0,1,,,,,0,,,77,109
188736,note_off,,,,,192,0,1,,,,,0,,,79,0
188928,note_off,,,,,384,0,3,,,,,2,,,56,0
188928,note_on,,,,,0,0,3,,,,,2,,,55,90
188928,note_off,,,,,192,0,1,,,,,0,,,77,0
188928,note_on,,,,,0,0,2,,,,,1,,,63,93
188928,note_off,,,,,384,0,2,,,,,1,,,62,0
188928,note_on,,,,,0,0,1,,,,,0,,,75,109
188928,note_on,,,,,0,0,4,,,,,3,,,39,90
188928,note_off,,,,,1536,0,4,,,,,3,,,46,0
189056,note_off,,,,,128,0,3,,,,,2,,,55,0
189056,note_on,,,,,0,0,3,,,,,2,,,67,90
189056,note_off,,,,,128,0,2,,,,,1,,,63,0
189056,note_on,,,,,0,0,2,,,,,1,,,70,93
189184,note_on,,,,,0,0,2,,,,,1,,,70,93
189184,note_off,,,,,128,0,2,,,,,1,,,70,0
189184,note_off,,,,,128,0,3,,,,,2,,,67,0
189184,note_on,,,,,0,0,3,,,,,2,,,67,90
189312,note_off,,,,,384,0,1,,,,,0,,,75,0
189312,note_on,,,,,0,0,3,,,,,2,,,67,90
189312,note_off,,,,,384,0,4,,,,,3,,,39,0
189312,note_off,,,,,128,0,3,,,,,2,,,67,0
189312,note_on,,,,,0,0,2,,,,,1,,,70,93
189312,note_off,,,,,128,0,2,,,,,1,,,70,0
189440,note_on,,,,,0,0,2,,,,,1,,,70,93
189440,note_off,,,,,128,0,2,,,,,1,,,70,0
189440,note_on,,,,,0,0,3,,,,,2,,,67,90
189440,note_off,,,,,128,0,3,,,,,2,,,67,0
189568,note_off,,,,,128,0,2,,,,,1,,,70,0
189568,note_off,,,,,128,0,3,,,,,2,,,67,0
189568,note_on,,,,,0,0,3,,,,,2,,,67,90
189568,note_on,,,,,0,0,2,,,,,1,,,70,93
189696,note_off,,,,,128,0,2,,,,,1,,,70,0
189696,note_off,,,,,128,0,3,,,,,2,,,67,0
189696,note_on,,,,,0,0,2,,,,,1,,,70,93
189696,note_on,,,,,0,0,3,,,,,2,,,67,90
189824,note_on,,,,,0,0,2,,,,,1,,,70,93
189824,note_off,,,,,128,0,2,,,,,1,,,70,0
189824,note_on,,,,,0,0,3,,,,,2,,,67,90
189824,note_off,,,,,128,0,3,,,,,2,,,67,0
189952,note_off,,,,,128,0,2,,,,,1,,,70,0
189952,note_on,,,,,0,0,3,,,,,2,,,67,90
189952,note_on,,,,,0,0,2,,,,,1,,,70,93
189952,note_off,,,,,128,0,3,,,,,2,,,67,0
189984,note_on,,,,,672,0,1,,,,,0,,,77,109
190080,note_off,,,,,128,0,2,,,,,1,,,70,0
190080,note_off,,,,,128,0,3,,,,,2,,,67,0
190080,note_on,,,,,0,0,3,,,,,2,,,67,90
190080,note_on,,,,,0,0,2,,,,,1,,,70,93
190080,note_on,,,,,0,0,1,,,,,0,,,76,109
190080,note_off,,,,,96,0,1,,,,,0,,,77,0
190208,note_off,,,,,128,0,1,,,,,0,,,76,0
190208,note_on,,,,,0,0,1,,,,,0,,,74,109
190208,note_off,,,,,128,0,2,,,,,1,,,70,0
190208,note_on,,,,,0,0,2,,,,,1,,,70,93
190208,note_on,,,,,0,0,3,,,,,2,,,67,90
190208,note_off,,,,,128,0,3,,,,,2,,,67,0
190336,note_on,,,,,0,0,1,,,,,0,,,76,109
190336,note_off,,,,,128,0,1,,,,,0,,,74,0
190336,note_on,,,,,0,0,3,,,,,2,,,67,90
190336,note_off,,,,,128,0,3,,,,,2,,,67,0
190336,note_off,,,,,128,0,2,,,,,1,,,70,0
190336,note_on,,,,,0,0,2,,,,,1,,,70,93
190464,note_off,,,,,128,0,1,,,,,0,,,76,0
190464,note_on,,,,,0,0,1,,,,,0,,,77,109
190464,note_on,,,,,0,0,3,,,,,2,,,68,90
190464,note_off,,,,,128,0,3,,,,,2,,,67,0
190464,note_off,,,,,128,0,2,,,,,1,,,70,0
190464,note_on,,,,,0,0,2,,,,,1,,,70,93
190592,note_on,,,,,0,0,3,,,,,2,,,68,90
190592,note_off,,,,,128,0,2,,,,,1,,,70,0
190592,note_off,,,,,128,0,3,,,,,2,,,68,0
190592,note_on,,,,,0,0,2,,,,,1,,,70,93
190656,note_off,,,,,192,0,1,,,,,0,,,77,0
190720,note_off,,,,,128,0,3,,,,,2,,,68,0
190720,note_on,,,,,0,0,3,,,,,2,,,68,90
190720,note_off,,,,,128,0,2,,,,,1,,,70,0
190720,note_on,,,,,0,0,2,,,,,1,,,70,93
190848,note_on,,,,,192,0,1,,,,,0,,,74,109
190848,note_off,,,,,128,0,2,,,,,1,,,70,0
190848,note_off,,,,,128,0,3,,,,,2,,,68,0
190848,note_on,,,,,0,0,3,,,,,2,,,68,90
190848,note_on,,,,,0,0,2,,,,,1,,,70,93
190976,note_on,,,,,0,0,2,,,,,1,,,70,93
190976,note_off,,,,,128,0,3,,,,,2,,,68,0
190976,note_on,,,,,0,0,3,,,,,2,,,68,90
190976,note_off,,,,,128,0,2,,,,,1,,,70,0
191040,note_off,,,,,192,0,1,,,,,0,,,74,0
191104,note_off,,,,,128,0,2,,,,,1,,,70,0
191104,note_on,,,,,0,0,2,,,,,1,,,70,93
191104,note_off,,,,,128,0,3,,,,,2,,,68,0
191104,note_on,,,,,0,0,3,,,,,2,,,68,90
191232,note_off,,,,,128,0,3,,,,,2,,,68,0
191232,note_on,,,,,192,0,1,,,,,0,,,70,109
191232,note_on,,,,,0,0,3,,,,,2,,,68,90
191232,note_on,,,,,0,0,2,,,,,1,,,70,93
191232,note_off,,,,,128,0,2,,,,,1,,,70,0
191360,note_off,,,,,128,0,3,,,,,2,,,68,0
191360,note_off,,,,,128,0,2,,,,,1,,,70,0
191360,note_on,,,,,0,0,2,,,,,1,,,70,93
191360,note_on,,,,,0,0,3,,,,,2,,,68,90
191424,note_off,,,,,192,0,1,,,,,0,,,70,0
191488,note_on,,,,,0,0,3,,,,,2,,,68,90
191488,note_off,,,,,128,0,3,,,,,2,,,68,0
191488,note_off,,,,,128,0,2,,,,,1,,,70,0
191488,note_on,,,,,0,0,2,,,,,1,,,70,93
191520,note_on,,,,,2208,0,4,,,,,3,,,55,90
191616,note_off,,,,,128,0,3,,,,,2,,,68,0
191616,note_on,,,,,0,0,3,,,,,2,,,68,90
191616,note_on,,,,,0,0,4,,,,,3,,,53,90
191616,note_off,,,,,96,0,4,,,,,3,,,55,0
191616,note_on,,,,,0,0,2,,,,,1,,,70,93
191616,note_off,,,,,128,0,2,,,,,1,,,70,0
191680,note_off,,,,,64,0,4,,,,,3,,,53,0
191744,note_off,,,,,128,0,3,,,,,2,,,68,0
191744,note_on,,,,,0,0,2,,,,,1,,,70,93
191744,note_on,,,,,0,0,3,,,,,2,,,68,90
191744,note_off,,,,,128,0,2,,,,,1,,,70,0
191744,note_on,,,,,64,0,4,,,,,3,,,51,90
191808,note_off,,,,,64,0,4,,,,,3,,,51,0
191872,note_on,,,,,64,0,4,,,,,3,,,50,90
191872,note_off,,,,,128,0,2,,,,,1,,,70,0
191872,note_off,,,,,128,0,3,,,,,2,,,68,0
191872,note_on,,,,,0,0,3,,,,,2,,,68,90
191872,note_on,,,,,0,0,2,,,,,1,,,70,93
191936,note_off,,,,,64,0,4,,,,,3,,,50,0
192000,note_off,,,,,128,0,2,,,,,1,,,70,0
192000,note_on,,,,,0,0,2,,,,,1,,,70,93
192000,note_off,,,,,128,0,3,,,,,2,,,68,0
192000,note_on,,,,,0,0,3,,,,,2,,,67,90
192000,note_on,,,,,64,0,4,,,,,3,,,51,90
192128,note_off,,,,,128,0,2,,,,,1,,,70,0
192128,note_off,,,,,128,0,3,,,,,2,,,67,0
192128,note_on,,,,,0,0,3,,,,,2,,,67,90
192128,note_on,,,,,0,0,2,,,,,1,,,70,93
192192,note_off,,,,,192,0,4,,,,,3,,,51,0
192256,note_off,,,,,128,0,2,,,,,1,,,70,0
192256,note_on,,,,,0,0,3,,,,,2,,,67,90
192256,note_off,,,,,128,0,3,,,,,2,,,67,0
192256,note_on,,,,,0,0,2,,,,,1,,,70,93
192384,note_off,,,,,128,0,3,,,,,2,,,67,0
192384,note_on,,,,,192,0,4,,,,,3,,,55,90
192384,note_on,,,,,0,0,2,,,,,1,,,70,93
192384,note_off,,,,,128,0,2,,,,,1,,,70,0
192384,note_on,,,,,0,0,3,,,,,2,,,67,90
192512,note_on,,,,,0,0,3,,,,,2,,,67,90
192512,note_on,,,,,0,0,2,,,,,1,,,70,93
192512,note_off,,,,,128,0,3,,,,,2,,,67,0
192512,note_off,,,,,128,0,2,,,,,1,,,70,0
192576,note_off,,,,,192,0,4,,,,,3,,,55,0
192640,note_on,,,,,0,0,2,,,,,1,,,70,93
192640,note_off,,,,,128,0,3,,,,,2,,,67,0
192640,note_off,,,,,128,0,2,,,,,1,,,70,0
192640,note_on,,,,,0,0,3,,,,,2,,,67,90
192768,note_on,,,,,0,0,2,,,,,1,,,70,93
192768,note_on,,,,,192,0,4,,,,,3,,,58,90
192768,note_off,,,,,128,0,2,,,,,1,,,70,0
192768,note_on,,,,,0,0,3,,,,,2,,,67,90
192768,note_off,,,,,128,0,3,,,,,2,,,67,0
192896,note_on,,,,,0,0,2,,,,,1,,,70,93
192896,note_off,,,,,128,0,2,,,,,1,,,70,0
192896,note_on,,,,,0,0,3,,,,,2,,,67,90
192896,note_off,,,,,128,0,3,,,,,2,,,67,0
192960,note_off,,,,,192,0,4,,,,,3,,,58,0
193024,note_off,,,,,128,0,3,,,,,2,,,67,0
193024,note_off,,,,,128,0,2,,,,,1,,,70,0
193024,note_on,,,,,0,0,3,,,,,2,,,67,90
193024,note_on,,,,,0,0,2,,,,,1,,,70,93
193056,note_on,,,,,1632,0,1,,,,,0,,,77,109
193152,note_on,,,,,0,0,3,,,,,2,,,67,90
193152,note_off,,,,,128,0,3,,,,,2,,,67,0
193152,note_off,,,,,128,0,2,,,,,1,,,70,0
193152,note_on,,,,,0,0,2,,,,,1,,,70,93
193152,note_off,,,,,96,0,1,,,,,0,,,77,0
193152,note_on,,,,,0,0,1,,,,,0,,,76,109
193280,note_on,,,,,0,0,3,,,,,2,,,67,90
193280,note_off,,,,,128,0,3,,,,,2,,,67,0
193280,note_off,,,,,128,0,2,,,,,1,,,70,0
193280,note_on,,,,,0,0,2,,,,,1,,,70,93
193280,note_off,,,,,128,0,1,,,,,0,,,76,0
193280,note_on,,,,,0,0,1,,,,,0,,,74,109
193408,note_off,,,,,128,0,3,,,,,2,,,67,0
193408,note_off,,,,,128,0,1,,,,,0,,,74,0
193408,note_on,,,,,0,0,2,,,,,1,,,70,93
193408,note_on,,,,,0,0,3,,,,,2,,,67,90
193408,note_off,,,,,128,0,2,,,,,1,,,70,0
193408,note_on,,,,,0,0,1,,,,,0,,,76,109
193536,note_off,,,,,128,0,1,,,,,0,,,76,0
193536,note_on,,,,,0,0,1,,,,,0,,,77,109
193536,note_on,,,,,0,0,3,,,,,2,,,68,90
193536,note_off,,,,,128,0,3,,,,,2,,,67,0
193536,note_on,,,,,0,0,2,,,,,1,,,70,93
193536,note_off,,,,,128,0,2,,,,,1,,,70,0
193664,note_on,,,,,0,0,3,,,,,2,,,68,90
193664,note_off,,,,,128,0,3,,,,,2,,,68,0
193664,note_on,,,,,0,0,2,,,,,1,,,70,93
193664,note_off,,,,,128,0,2,,,,,1,,,70,0
193728,note_off,,,,,192,0,1,,,,,0,,,77,0
193792,note_on,,,,,0,0,2,,,,,1,,,70,93
193792,note_off,,,,,128,0,2,,,,,1,,,70,0
193792,note_off,,,,,128,0,3,,,,,2,,,68,0
193792,note_on,,,,,0,0,3,,,,,2,,,68,90
193920,note_on,,,,,192,0,1,,,,,0,,,74,109
193920,note_off,,,,,128,0,3,,,,,2,,,68,0
193920,note_on,,,,,0,0,3,,,,,2,,,68,90
193920,note_off,,,,,128,0,2,,,,,1,,,70,0
193920,note_on,,,,,0,0,2,,,,,1,,,70,93
194048,note_off,,,,,128,0,3,,,,,2,,,68,0
194048,note_on,,,,,0,0,3,,,,,2,,,68,90
194048,note_off,,,,,128,0,2,,,,,1,,,70,0
194048,note_on,,,,,0,0,2,,,,,1,,,70,93
194112,note_off,,,,,192,0,1,,,,,0,,,74,0
194176,note_off,,,,,128,0,2,,,,,1,,,70,0
194176,note_off,,,,,128,0,3,,,,,2,,,68,0
194176,note_on,,,,,0,0,2,,,,,1,,,70,93
194176,note_on,,,,,0,0,3,,,,,2,,,68,90
194304,note_off,,,,,128,0,3,,,,,2,,,68,0
194304,note_off,,,,,128,0,2,,,,,1,,,70,0
194304,note_on,,,,,0,0,3,,,,,2,,,68,90
194304,note_on,,,,,192,0,1,,,,,0,,,70,109
194304,note_on,,,,,0,0,2,,,,,1,,,70,93
194432,note_on,,,,,0,0,2,,,,,1,,,70,93
194432,note_on,,,,,0,0,3,,,,,2,,,68,90
194432,note_off,,,,,128,0,3,,,,,2,,,68,0
194432,note_off,,,,,128,0,2,,,,,1,,,70,0
194496,note_off,,,,,192,0,1,,,,,0,,,70,0
194560,note_on,,,,,0,0,3,,,,,2,,,68,90
194560,note_off,,,,,128,0,3,,,,,2,,,68,0
194560,note_on,,,,,0,0,2,,,,,1,,,70,93
194560,note_off,,,,,128,0,2,,,,,1,,,70,0
194592,note_on,,,,,1632,0,4,,,,,3,,,55,90
194688,note_on,,,,,0,0,3,,,,,2,,,68,90
194688,note_off,,,,,128,0,2,,,,,1,,,70,0
194688,note_on,,,,,0,0,2,,,,,1,,,70,93
194688,note_on,,,,,0,0,4,,,,,3,,,53,90
194688,note_off,,,,,96,0,4,,,,,3,,,55,0
194688,note_off,,,,,128,0,3,,,,,2,,,68,0
194752,note_off,,,,,64,0,4,,,,,3,,,53,0
194816,note_off,,,,,128,0,2,,,,,1,,,70,0
194816,note_on,,,,,0,0,2,,,,,1,,,70,93
194816,note_on,,,,,64,0,4,,,,,3,,,51,90
194816,note_off,,,,,128,0,3,,,,,2,,,68,0
194816,note_on,,,,,0,0,3,,,,,2,,,68,90
194880,note_off,,,,,64,0,4,,,,,3,,,51,0
194944,note_off,,,,,128,0,2,,,,,1,,,70,0
194944,note_off,,,,,128,0,3,,,,,2,,,68,0
194944,note_on,,,,,0,0,2,,,,,1,,,70,93
194944,note_on,,,,,64,0,4,,,,,3,,,50,90
194944,note_on,,,,,0,0,3,,,,,2,,,68,90
195008,note_off,,,,,64,0,4,,,,,3,,,50,0
195072,note_on,,,,,0,0,2,,,,,1,,,70,93
195072,note_off,,,,,128,0,2,,,,,1,,,70,0
195072,note_on,,,,,64,0,4,,,,,3,,,51,90
195072,note_off,,,,,128,0,3,,,,,2,,,68,0
195072,note_on,,,,,0,0,3,,,,,2,,,67,90
195200,note_on,,,,,0,0,3,,,,,2,,,67,90
195200,note_off,,,,,128,0,3,,,,,2,,,67,0
195200,note_off,,,,,128,0,2,,,,,1,,,70,0
195200,note_on,,,,,0,0,2,,,,,1,,,70,93
195264,note_off,,,,,192,0,4,,,,,3,,,51,0
195328,note_off,,,,,128,0,2,,,,,1,,,70,0
195328,note_on,,,,,0,0,2,,,,,1,,,70,93
195328,note_on,,,,,0,0,3,,,,,2,,,67,90
195328,note_off,,,,,128,0,3,,,,,2,,,67,0
195456,note_on,,,,,192,0,4,,,,,3,,,55,90
195456,note_off,,,,,128,0,3,,,,,2,,,67,0
195456,note_on,,,,,0,0,3,,,,,2,,,67,90
195456,note_on,,,,,0,0,2,,,,,1,,,70,93
195456,note_off,,,,,128,0,2,,,,,1,,,70,0
195584,note_off,,,,,128,0,2,,,,,1,,,70,0
195584,note_off,,,,,128,0,3,,,,,2,,,67,0
195584,note_on,,,,,0,0,3,,,,,2,,,67,90
195584,note_on,,,,,0,0,2,,,,,1,,,70,93
195648,note_off,,,,,192,0,4,,,,,3,,,55,0
195712,note_on,,,,,0,0,2,,,,,1,,,70,93
195712,note_off,,,,,128,0,3,,,,,2,,,67,0
195712,note_on,,,,,0,0,3,,,,,2,,,67,90
195712,note_off,,,,,128,0,2,,,,,1,,,70,0
195840,note_off,,,,,128,0,3,,,,,2,,,67,0
195840,note_on,,,,,0,0,3,,,,,2,,,67,90
195840,note_on,,,,,192,0,4,,,,,3,,,58,90
195840,note_off,,,,,128,0,2,,,,,1,,,70,0
195840,note_on,,,,,0,0,2,,,,,1,,,70,93
196032,note_off,,,,,192,0,2,,,,,1,,,70,0
196032,note_off,,,,,192,0,4,,,,,3,,,58,0
196032,note_off,,,,,192,0,3,,,,,2,,,67,0
196128,note_on,,,,,96,0,2,,,,,1,,,80,93
196128,note_on,,,,,1632,0,1,,,,,0,,,80,109
196128,note_on,,,,,96,0,4,,,,,3,,,56,90
196128,note_on,,,,,96,0,3,,,,,2,,,68,90
196224,note_on,,,,,0,0,2,,,,,1,,,79,93
196224,note_on,,,,,0,0,1,,,,,0,,,79,109
196224,note_off,,,,,96,0,1,,,,,0,,,80,0
196224,note_off,,,,,96,0,3,,,,,2,,,68,0
196224,note_on,,,,,0,0,3,,,,,2,,,67,90
196224,note_on,,,,,0,0,4,,,,,3,,,55,90
196224,note_off,,,,,96,0,4,,,,,3,,,56,0
196224,note_off,,,,,96,0,2,,,,,1,,,80,0
196352,note_on,,,,,0,0,4,,,,,3,,,54,90
196352,note_on,,,,,0,0,1,,,,,0,,,78,109
196352,note_off,,,,,128,0,1,,,,,0,,,79,0
196352,note_on,,,,,0,0,3,,,,,2,,,66,90
196352,note_off,,,,,128,0,3,,,,,2,,,67,0
196352,note_off,,,,,128,0,2,,,,,1,,,79,0
196352,note_on,,,,,0,0,2,,,,,1,,,78,93
196352,note_off,,,,,128,0,4,,,,,3,,,55,0
196480,note_off,,,,,128,0,2,,,,,1,,,78,0
196480,note_on,,,,,0,0,1,,,,,0,,,79,109
196480,note_on,,,,,0,0,4,,,,,3,,,55,90
196480,note_off,,,,,128,0,4,,,,,3,,,54,0
196480,note_off,,,,,128,0,3,,,,,2,,,66,0
196480,note_on,,,,,0,0,3,,,,,2,,,67,90
196480,note_off,,,,,128,0,1,,,,,0,,,78,0
196480,note_on,,,,,0,0,2,,,,,1,,,79,93
196608,note_off,,,,,128,0,4,,,,,3,,,55,0
196608,note_on,,,,,0,0,4,,,,,3,,,63,90
196608,note_off,,,,,128,0,1,,,,,0,,,79,0
196608,note_on,,,,,0,0,1,,,,,0,,,75,109
196608,note_on,,,,,0,0,2,,,,,1,,,75,93
196608,note_on,,,,,0,0,3,,,,,2,,,63,90
196608,note_off,,,,,128,0,3,,,,,2,,,67,0
196608,note_off,,,,,128,0,2,,,,,1,,,79,0
196800,note_off,,,,,192,0,4,,,,,3,,,63,0
196800,note_off,,,,,192,0,1,,,,,0,,,75,0
196800,note_off,,,,,192,0,3,,,,,2,,,63,0
196800,note_off,,,,,192,0,2,,,,,1,,,75,0
196992,note_on,,,,,192,0,4,,,,,3,,,60,90
196992,note_on,,,,,192,0,1,,,,,0,,,72,109
196992,note_on,,,,,192,0,3,,,,,2,,,60,90
196992,note_on,,,,,192,0,2,,,,,1,,,72,93
197184,note_off,,,,,192,0,2,,,,,1,,,72,0
197184,note_off,,,,,192,0,4,,,,,3,,,60,0
197184,note_off,,,,,192,0,3,,,,,2,,,60,0
197184,note_off,,,,,192,0,1,,,,,0,,,72,0
197376,note_on,,,,,192,0,2,,,,,1,,,67,93
197376,note_on,,,,,192,0,4,,,,,3,,,55,90
197376,note_on,,,,,192,0,3,,,,,2,,,55,90
197376,note_on,,,,,192,0,1,,,,,0,,,67,109
197568,note_off,,,,,192,0,4,,,,,3,,,55,0
197568,note_off,,,,,192,0,1,,,,,0,,,67,0
197568,note_off,,,,,192,0,2,,,,,1,,,67,0
197568,note_off,,,,,192,0,3,,,,,2,,,55,0
197760,note_on,,,,,192,0,4,,,,,3,,,51,90
197760,note_on,,,,,192,0,1,,,,,0,,,63,109
197760,note_on,,,,,192,0,2,,,,,1,,,63,93
197760,note_on,,,,,192,0,3,,,,,2,,,51,90
197952,note_off,,,,,192,0,4,,,,,3,,,51,0
197952,note_off,,,,,192,0,2,,,,,1,,,63,0
197952,note_on,,,,,0,0,4,,,,,3,,,48,90
197952,note_on,,,,,0,0,3,,,,,2,,,48,90
197952,note_off,,,,,192,0,3,,,,,2,,,51,0
197952,note_on,,,,,0,0,2,,,,,1,,,60,93
197952,note_on,,,,,0,0,1,,,,,0,,,60,109
197952,note_off,,,,,192,0,1,,,,,0,,,63,0
198144,note_on,,,,,0,0,1,,,,,0,,,57,109
198144,note_on,,,,,0,0,2,,,,,1,,,57,93
198144,note_off,,,,,192,0,2,,,,,1,,,60,0
198144,note_off,,,,,192,0,1,,,,,0,,,60,0
198144,note_off,,,,,192,0,3,,,,,2,,,48,0
198144,note_on,,,,,0,0,3,,,,,2,,,53,90
198144,note_on,,,,,0,0,4,,,,,3,,,53,90
198144,note_off,,,,,192,0,4,,,,,3,,,48,0
198272,note_on,,,,,0,0,3,,,,,2,,,53,90
198272,note_off,,,,,128,0,3,,,,,2,,,53,0
198400,note_off,,,,,128,0,3,,,,,2,,,53,0
198400,note_on,,,,,0,0,3,,,,,2,,,53,90
198528,note_on,,,,,0,0,3,,,,,2,,,53,90
198528,note_off,,,,,128,0,3,,,,,2,,,53,0
198656,note_on,,,,,0,0,3,,,,,2,,,53,90
198656,note_off,,,,,128,0,3,,,,,2,,,53,0
198784,note_off,,,,,128,0,3,,,,,2,,,53,0
198784,note_on,,,,,0,0,3,,,,,2,,,53,90
198912,note_off,,,,,768,0,4,,,,,3,,,53,0
198912,note_on,,,,,0,0,3,,,,,2,,,53,90
198912,note_off,,,,,768,0,1,,,,,0,,,57,0
198912,note_off,,,,,768,0,2,,,,,1,,,57,0
198912,note_off,,,,,128,0,3,,,,,2,,,53,0
199040,note_off,,,,,128,0,3,,,,,2,,,53,0
199040,note_on,,,,,0,0,3,,,,,2,,,53,90
199168,note_on,,,,,0,0,3,,,,,2,,,53,90
199168,note_off,,,,,128,0,3,,,,,2,,,53,0
199200,note_on,,,,,288,0,1,,,,,0,,,75,109
199296,note_on,,,,,0,0,3,,,,,2,,,53,90
199296,note_off,,,,,128,0,3,,,,,2,,,53,0
199296,note_on,,,,,384,0,2,,,,,1,,,71,93
199296,note_on,,,,,0,0,1,,,,,0,,,74,109
199296,note_off,,,,,96,0,1,,,,,0,,,75,0
199424,note_on,,,,,0,0,2,,,,,1,,,69,93
199424,note_off,,,,,128,0,2,,,,,1,,,71,0
199424,note_off,,,,,128,0,3,,,,,2,,,53,0
199424,note_on,,,,,0,0,3,,,,,2,,,53,90
199424,note_off,,,,,128,0,1,,,,,0,,,74,0
199424,note_on,,,,,0,0,1,,,,,0,,,72,109
199552,note_on,,,,,0,0,2,,,,,1,,,71,93
199552,note_off,,,,,128,0,2,,,,,1,,,69,0
199552,note_off,,,,,128,0,3,,,,,2,,,53,0
199552,note_off,,,,,128,0,1,,,,,0,,,72,0
199552,note_on,,,,,0,0,1,,,,,0,,,74,109
199552,note_on,,,,,0,0,3,,,,,2,,,53,90
199680,note_on,,,,,0,0,3,,,,,2,,,53,90
199680,note_off,,,,,128,0,3,,,,,2,,,53,0
199680,note_off,,,,,128,0,1,,,,,0,,,74,0
199680,note_off,,,,,128,0,2,,,,,1,,,71,0
199680,note_on,,,,,0,0,2,,,,,1,,,72,93
199680,note_on,,,,,0,0,1,,,,,0,,,75,109
199776,note_off,,,,,96,0,2,,,,,1,,,72,0
199776,note_off,,,,,96,0,1,,,,,0,,,75,0
199808,note_on,,,,,0,0,3,,,,,2,,,53,90
199808,note_off,,,,,128,0,3,,,,,2,,,53,0
199936,note_on,,,,,0,0,3,,,,,2,,,53,90
199936,note_off,,,,,128,0,3,,,,,2,,,53,0
200064,note_off,,,,,128,0,3,,,,,2,,,53,0
200064,note_on,,,,,0,0,3,,,,,2,,,53,90
200064,note_on,,,,,288,0,2,,,,,1,,,75,93
200064,note_on,,,,,288,0,1,,,,,0,,,79,109
200160,note_off,,,,,96,0,1,,,,,0,,,79,0
200160,note_off,,,,,96,0,2,,,,,1,,,75,0
200192,note_off,,,,,128,0,3,,,,,2,,,53,0
200192,note_on,,,,,0,0,3,,,,,2,,,53,90
200320,note_off,,,,,128,0,3,,,,,2,,,53,0
200320,note_on,,,,,0,0,3,,,,,2,,,53,90
200448,note_on,,,,,288,0,2,,,,,1,,,69,93
200448,note_on,,,,,288,0,1,,,,,0,,,72,109
200448,note_off,,,,,128,0,3,,,,,2,,,53,0
200448,note_on,,,,,0,0,3,,,,,2,,,53,90
200576,note_on,,,,,0,0,3,,,,,2,,,53,90
200576,note_off,,,,,128,0,3,,,,,2,,,53,0
200704,note_off,,,,,128,0,3,,,,,2,,,53,0
200704,note_on,,,,,0,0,3,,,,,2,,,53,90
200832,note_off,,,,,384,0,2,,,,,1,,,69,0
200832,note_off,,,,,384,0,1,,,,,0,,,72,0
200832,note_off,,,,,128,0,3,,,,,2,,,53,0
200832,note_on,,,,,0,0,3,,,,,2,,,53,90
200960,note_on,,,,,0,0,3,,,,,2,,,53,90
200960,note_off,,,,,128,0,3,,,,,2,,,53,0
201088,note_on,,,,,0,0,3,,,,,2,,,53,90
201088,note_off,,,,,128,0,3,,,,,2,,,53,0
201216,note_on,,,,,0,0,3,,,,,2,,,53,90
201216,note_off,,,,,128,0,3,,,,,2,,,53,0
201216,note_on,,,,,384,0,1,,,,,0,,,65,109
201216,note_on,,,,,0,0,2,,,,,1,,,57,93
201216,note_on,,,,,2304,0,4,,,,,3,,,53,90
201216,note_on,,,,,0,0,1,,,,,0,,,57,109
201216,note_on,,,,,384,0,2,,,,,1,,,65,93
201344,note_off,,,,,128,0,3,,,,,2,,,53,0
201344,note_on,,,,,0,0,3,,,,,2,,,53,90
201472,note_off,,,,,128,0,3,,,,,2,,,53,0
201472,note_on,,,,,0,0,3,,,,,2,,,53,90
201600,note_off,,,,,128,0,3,,,,,2,,,53,0
201600,note_on,,,,,0,0,3,,,,,2,,,53,90
201728,note_off,,,,,128,0,3,,,,,2,,,53,0
201728,note_on,,,,,0,0,3,,,,,2,,,53,90
201856,note_on,,,,,0,0,3,,,,,2,,,53,90
201856,note_off,,,,,128,0,3,,,,,2,,,53,0
201984,note_off,,,,,768,0,1,,,,,0,,,65,0
201984,note_on,,,,,0,0,3,,,,,2,,,53,90
201984,note_off,,,,,0,0,1,,,,,0,,,57,0
201984,note_off,,,,,768,0,2,,,,,1,,,65,0
201984,note_off,,,,,768,0,4,,,,,3,,,53,0
201984,note_off,,,,,0,0,2,,,,,1,,,57,0
201984,note_off,,,,,128,0,3,,,,,2,,,53,0
202112,note_off,,,,,128,0,3,,,,,2,,,53,0
202112,note_on,,,,,0,0,3,,,,,2,,,53,90
202240,note_off,,,,,128,0,3,,,,,2,,,53,0
202240,note_on,,,,,0,0,3,,,,,2,,,53,90
202272,note_on,,,,,288,0,1,,,,,0,,,75,109
202368,note_off,,,,,96,0,1,,,,,0,,,75,0
202368,note_on,,,,,384,0,2,,,,,1,,,71,93
202368,note_on,,,,,0,0,1,,,,,0,,,74,109
202368,note_on,,,,,0,0,3,,,,,2,,,53,90
202368,note_off,,,,,128,0,3,,,,,2,,,53,0
202496,note_off,,,,,128,0,3,,,,,2,,,53,0
202496,note_off,,,,,128,0,1,,,,,0,,,74,0
202496,note_on,,,,,0,0,1,,,,,0,,,72,109
202496,note_on,,,,,0,0,2,,,,,1,,,69,93
202496,note_off,,,,,128,0,2,,,,,1,,,71,0
202496,note_on,,,,,0,0,3,,,,,2,,,53,90
202624,note_off,,,,,128,0,1,,,,,0,,,72,0
202624,note_on,,,,,0,0,1,,,,,0,,,74,109
202624,note_on,,,,,0,0,3,,,,,2,,,53,90
202624,note_off,,,,,128,0,2,,,,,1,,,69,0
202624,note_on,,,,,0,0,2,,,,,1,,,71,93
202624,note_off,,,,,128,0,3,,,,,2,,,53,0
202752,note_on,,,,,0,0,1,,,,,0,,,75,109
202752,note_off,,,,,128,0,2,,,,,1,,,71,0
202752,note_on,,,,,0,0,2,,,,,1,,,72,93
202752,note_off,,,,,128,0,1,,,,,0,,,74,0
202752,note_on,,,,,0,0,3,,,,,2,,,53,90
202752,note_off,,,,,128,0,3,,,,,2,,,53,0
202848,note_off,,,,,96,0,2,,,,,1,,,72,0
202848,note_off,,,,,96,0,1,,,,,0,,,75,0
202880,note_on,,,,,0,0,3,,,,,2,,,53,90
202880,note_off,,,,,128,0,3,,,,,2,,,53,0
203008,note_off,,,,,128,0,3,,,,,2,,,53,0
203008,note_on,,,,,0,0,3,,,,,2,,,53,90
203136,note_on,,,,,288,0,2,,,,,1,,,75,93
203136,note_off,,,,,128,0,3,,,,,2,,,53,0
203136,note_on,,,,,0,0,3,,,,,2,,,53,90
203136,note_on,,,,,288,0,1,,,,,0,,,79,109
203232,note_off,,,,,96,0,1,,,,,0,,,79,0
203232,note_off,,,,,96,0,2,,,,,1,,,75,0
203264,note_off,,,,,128,0,3,,,,,2,,,53,0
203264,note_on,,,,,0,0,3,,,,,2,,,53,90
203392,note_off,,,,,128,0,3,,,,,2,,,53,0
203392,note_on,,,,,0,0,3,,,,,2,,,53,90
203520,note_on,,,,,288,0,1,,,,,0,,,72,109
203520,note_on,,,,,288,0,2,,,,,1,,,69,93
203520,note_off,,,,,128,0,3,,,,,2,,,53,0
203520,note_on,,,,,0,0,3,,,,,2,,,53,90
203648,note_off,,,,,128,0,3,,,,,2,,,53,0
203648,note_on,,,,,0,0,3,,,,,2,,,53,90
203776,note_off,,,,,128,0,3,,,,,2,,,53,0
203776,note_on,,,,,0,0,3,,,,,2,,,53,90
203904,note_off,,,,,128,0,3,,,,,2,,,53,0
203904,note_off,,,,,384,0,2,,,,,1,,,69,0
203904,note_off,,,,,384,0,1,,,,,0,,,72,0
203904,note_on,,,,,0,0,3,,,,,2,,,51,90
204032,note_off,,,,,128,0,3,,,,,2,,,51,0
204032,note_on,,,,,0,0,3,,,,,2,,,51,90
204160,note_on,,,,,0,0,3,,,,,2,,,51,90
204160,note_off,,,,,128,0,3,,,,,2,,,51,0
204288,note_on,,,,,0,0,1,,,,,0,,,70,109
204288,note_off,,,,,128,0,3,,,,,2,,,51,0
204288,note_on,,,,,0,0,3,,,,,2,,,50,90
204288,note_on,,,,,384,0,2,,,,,1,,,58,93
204288,note_on,,,,,0,0,2,,,,,1,,,65,93
204288,note_on,,,,,2304,0,4,,,,,3,,,50,90
204288,note_on,,,,,0,0,2,,,,,1,,,70,93
204288,note_on,,,,,384,0,1,,,,,0,,,77,109
205056,note_off,,,,,768,0,2,,,,,1,,,58,0
205056,note_off,,,,,0,0,2,,,,,1,,,65,0
205056,note_off,,,,,0,0,2,,,,,1,,,70,0
205056,note_on,,,,,0,0,2,,,,,1,,,75,93
205056,note_off,,,,,768,0,1,,,,,0,,,77,0
205056,note_on,,,,,0,0,2,,,,,1,,,55,93
205056,note_on,,,,,0,0,1,,,,,0,,,79,109
205056,note_off,,,,,768,0,4,,,,,3,,,50,0
205056,note_on,,,,,0,0,2,,,,,1,,,63,93
205056,note_off,,,,,0,0,1,,,,,0,,,70,0
205056,note_off,,,,,768,0,3,,,,,2,,,50,0
205056,note_on,,,,,0,0,3,,,,,2,,,51,90
205056,note_on,,,,,0,0,4,,,,,3,,,51,90
205056,note_on,,,,,0,0,1,,,,,0,,,70,109
205824,note_off,,,,,768,0,3,,,,,2,,,51,0
205824,note_off,,,,,768,0,4,,,,,3,,,51,0
205824,note_off,,,,,768,0,1,,,,,0,,,79,0
205824,note_off,,,,,0,0,1,,,,,0,,,70,0
205824,note_off,,,,,0,0,2,,,,,1,,,75,0
205824,note_off,,,,,0,0,2,,,,,1,,,63,0
205824,note_off,,,,,768,0,2,,,,,1,,,55,0
206208,note_on,,,,,384,0,1,,,,,0,,,79,109
206400,note_off,,,,,192,0,1,,,,,0,,,79,0
206400,note_on,,,,,0,0,1,,,,,0,,,77,109
206592,note_off,,,,,192,0,1,,,,,0,,,77,0
206592,note_on,,,,,0,0,1,,,,,0,,,77,109
206784,note_on,,,,,0,0,1,,,,,0,,,75,109
206784,note_off,,,,,192,0,1,,,,,0,,,77,0
206976,note_off,,,,,192,0,1,,,,,0,,,75,0
206976,note_on,,,,,0,0,1,,,,,0,,,74,109
207168,note_off,,,,,192,0,1,,,,,0,,,74,0
207168,note_on,,,,,0,0,1,,,,,0,,,72,109
207360,note_on,,,,,0,0,1,,,,,0,,,70,109
207360,note_on,,,,,1536,0,2,,,,,1,,,65,93
207360,note_on,,,,,1536,0,4,,,,,3,,,53,90
207360,note_off,,,,,192,0,1,,,,,0,,,72,0
207360,note_on,,,,,1536,0,3,,,,,2,,,62,90
208128,note_off,,,,,768,0,3,,,,,2,,,62,0
208128,note_on,,,,,0,0,2,,,,,1,,,69,93
208128,note_off,,,,,768,0,2,,,,,1,,,65,0
208128,note_on,,,,,0,0,1,,,,,0,,,74,109
208128,note_off,,,,,768,0,1,,,,,0,,,70,0
208128,note_on,,,,,0,0,3,,,,,2,,,63,90
208512,note_off,,,,,384,0,1,,,,,0,,,74,0
208512,note_on,,,,,0,0,1,,,,,0,,,72,109
208896,note_on,,,,,0,0,4,,,,,3,,,46,90
208896,note_off,,,,,1536,0,4,,,,,3,,,53,0
208896,note_off,,,,,768,0,3,,,,,2,,,63,0
208896,note_on,,,,,0,0,2,,,,,1,,,70,93
208896,note_off,,,,,768,0,2,,,,,1,,,69,0
208896,note_off,,,,,384,0,1,,,,,0,,,72,0
208896,note_on,,,,,0,0,3,,,,,2,,,62,90
208896,note_on,,,,,0,0,1,,,,,0,,,70,109
209280,note_off,,,,,384,0,3,,,,,2,,,62,0
209280,note_on,,,,,0,0,2,,,,,1,,,65,93
209280,note_off,,,,,384,0,2,,,,,1,,,70,0
209280,note_off,,,,,384,0,1,,,,,0,,,70,0
209280,note_on,,,,,0,0,3,,,,,2,,,62,90
209280,note_off,,,,,384,0,4,,,,,3,,,46,0
209664,note_off,,,,,384,0,2,,,,,1,,,65,0
209664,note_off,,,,,384,0,3,,,,,2,,,62,0
209664,note_on,,,,,0,0,3,,,,,2,,,61,90
209664,note_on,,,,,0,0,2,,,,,1,,,64,93
209952,note_on,,,,,672,0,1,,,,,0,,,79,109
210048,note_off,,,,,384,0,3,,,,,2,,,61,0
210048,note_on,,,,,0,0,3,,,,,2,,,60,90
210048,note_off,,,,,384,0,2,,,,,1,,,64,0
210048,note_on,,,,,0,0,1,,,,,0,,,77,109
210048,note_off,,,,,96,0,1,,,,,0,,,79,0
210048,note_on,,,,,0,0,2,,,,,1,,,63,93
210176,note_on,,,,,0,0,1,,,,,0,,,76,109
210176,note_off,,,,,128,0,1,,,,,0,,,77,0
210304,note_off,,,,,128,0,1,,,,,0,,,76,0
210304,note_on,,,,,0,0,1,,,,,0,,,77,109
210432,note_off,,,,,384,0,3,,,,,2,,,60,0
210432,note_on,,,,,0,0,3,,,,,2,,,58,90
210432,note_on,,,,,0,0,2,,,,,1,,,62,93
210432,note_off,,,,,384,0,2,,,,,1,,,63,0
210432,note_on,,,,,79488,0,5,,,,,4,,,46,90
210432,note_off,,,,,128,0,1,,,,,0,,,77,0
210432,note_on,,,,,0,0,1,,,,,0,,,74,109
210816,note_off,,,,,384,0,2,,,,,1,,,62,0
210816,note_on,,,,,0,0,3,,,,,2,,,58,90
210816,note_off,,,,,384,0,5,,,,,4,,,46,0
210816,note_off,,,,,384,0,3,,,,,2,,,58,0
210816,note_on,,,,,0,0,2,,,,,1,,,62,93
210912,note_off,,,,,96,0,2,,,,,1,,,62,0
210912,note_off,,,,,96,0,3,,,,,2,,,58,0
211008,note_on,,,,,96,0,2,,,,,1,,,62,93
211008,note_on,,,,,96,0,3,,,,,2,,,58,90
211104,note_off,,,,,96,0,2,,,,,1,,,62,0
211104,note_off,,,,,96,0,3,,,,,2,,,58,0
211200,note_on,,,,,96,0,2,,,,,1,,,65,93
211200,note_on,,,,,96,0,3,,,,,2,,,62,90
211200,note_off,,,,,768,0,1,,,,,0,,,74,0
211200,note_on,,,,,0,0,1,,,,,0,,,77,109
211296,note_off,,,,,96,0,2,,,,,1,,,65,0
211296,note_off,,,,,96,0,3,,,,,2,,,62,0
211392,note_on,,,,,96,0,2,,,,,1,,,65,93
211392,note_on,,,,,96,0,3,,,,,2,,,62,90
211488,note_off,,,,,96,0,2,,,,,1,,,65,0
211488,note_off,,,,,96,0,3,,,,,2,,,62,0
211584,note_on,,,,,96,0,3,,,,,2,,,58,90
211584,note_on,,,,,96,0,2,,,,,1,,,62,93
211680,note_off,,,,,96,0,3,,,,,2,,,58,0
211680,note_off,,,,,96,0,2,,,,,1,,,62,0
211776,note_on,,,,,96,0,3,,,,,2,,,58,90
211776,note_on,,,,,96,0,2,,,,,1,,,62,93
211872,note_off,,,,,96,0,2,,,,,1,,,62,0
211872,note_off,,,,,96,0,3,,,,,2,,,58,0
211968,note_on,,,,,1152,0,5,,,,,4,,,46,90
211968,note_on,,,,,0,0,1,,,,,0,,,84,109
211968,note_off,,,,,768,0,1,,,,,0,,,77,0
212352,note_on,,,,,480,0,2,,,,,1,,,62,93
212352,note_on,,,,,0,0,1,,,,,0,,,82,109
212352,note_off,,,,,384,0,1,,,,,0,,,84,0
212352,note_off,,,,,384,0,5,,,,,4,,,46,0
212352,note_on,,,,,480,0,3,,,,,2,,,58,90
212448,note_off,,,,,96,0,2,,,,,1,,,62,0
212448,note_off,,,,,96,0,3,,,,,2,,,58,0
212544,note_on,,,,,96,0,2,,,,,1,,,62,93
212544,note_off,,,,,192,0,1,,,,,0,,,82,0
212544,note_on,,,,,96,0,3,,,,,2,,,58,90
212640,note_off,,,,,96,0,2,,,,,1,,,62,0
212640,note_off,,,,,96,0,3,,,,,2,,,58,0
212736,note_on,,,,,96,0,2,,,,,1,,,65,93
212736,note_on,,,,,96,0,3,,,,,2,,,62,90
212832,note_off,,,,,96,0,2,,,,,1,,,65,0
212832,note_off,,,,,96,0,3,,,,,2,,,62,0
212928,note_on,,,,,96,0,2,,,,,1,,,65,93
212928,note_on,,,,,96,0,3,,,,,2,,,62,90
213024,note_off,,,,,96,0,2,,,,,1,,,65,0
213024,note_off,,,,,96,0,3,,,,,2,,,62,0
213024,note_on,,,,,480,0,1,,,,,0,,,75,109
213120,note_on,,,,,96,0,3,,,,,2,,,58,90
213120,note_off,,,,,96,0,1,,,,,0,,,75,0
213120,note_on,,,,,96,0,2,,,,,1,,,62,93
213120,note_on,,,,,0,0,1,,,,,0,,,74,109
213216,note_off,,,,,96,0,2,,,,,1,,,62,0
213216,note_off,,,,,96,0,3,,,,,2,,,58,0
213248,note_on,,,,,0,0,1,,,,,0,,,72,109
213248,note_off,,,,,128,0,1,,,,,0,,,74,0
213312,note_on,,,,,96,0,3,,,,,2,,,58,90
213312,note_on,,,,,96,0,2,,,,,1,,,62,93
213376,note_off,,,,,128,0,1,,,,,0,,,72,0
213376,note_on,,,,,0,0,1,,,,,0,,,74,109
213408,note_off,,,,,96,0,2,,,,,1,,,62,0
213408,note_off,,,,,96,0,3,,,,,2,,,58,0
213504,note_off,,,,,128,0,1,,,,,0,,,74,0
213504,note_on,,,,,0,0,1,,,,,0,,,72,109
213504,note_on,,,,,1152,0,5,,,,,4,,,51,90
213888,note_off,,,,,384,0,5,,,,,4,,,51,0
213888,note_on,,,,,480,0,2,,,,,1,,,63,93
213888,note_on,,,,,480,0,3,,,,,2,,,67,90
213984,note_off,,,,,96,0,3,,,,,2,,,67,0
213984,note_off,,,,,96,0,2,,,,,1,,,63,0
214080,note_on,,,,,96,0,3,,,,,2,,,67,90
214080,note_on,,,,,96,0,2,,,,,1,,,63,93
214176,note_off,,,,,96,0,3,,,,,2,,,67,0
214176,note_off,,,,,96,0,2,,,,,1,,,63,0
214272,note_on,,,,,0,0,1,,,,,0,,,75,109
214272,note_on,,,,,96,0,3,,,,,2,,,63,90
214272,note_off,,,,,768,0,1,,,,,0,,,72,0
214272,note_on,,,,,96,0,2,,,,,1,,,67,93
214368,note_off,,,,,96,0,2,,,,,1,,,67,0
214368,note_off,,,,,96,0,3,,,,,2,,,63,0
214464,note_on,,,,,96,0,3,,,,,2,,,63,90
214464,note_on,,,,,96,0,2,,,,,1,,,67,93
214560,note_off,,,,,96,0,2,,,,,1,,,67,0
214560,note_off,,,,,96,0,3,,,,,2,,,63,0
214656,note_on,,,,,96,0,3,,,,,2,,,60,90
214656,note_on,,,,,96,0,2,,,,,1,,,63,93
214752,note_off,,,,,96,0,3,,,,,2,,,60,0
214752,note_off,,,,,96,0,2,,,,,1,,,63,0
214848,note_on,,,,,96,0,2,,,,,1,,,63,93
214848,note_on,,,,,96,0,3,,,,,2,,,60,90
214944,note_off,,,,,96,0,2,,,,,1,,,63,0
214944,note_off,,,,,96,0,3,,,,,2,,,60,0
215040,note_on,,,,,1152,0,5,,,,,4,,,51,90
215040,note_on,,,,,0,0,1,,,,,0,,,81,109
215040,note_off,,,,,768,0,1,,,,,0,,,75,0
215424,note_on,,,,,480,0,2,,,,,1,,,63,93
215424,note_off,,,,,384,0,5,,,,,4,,,51,0
215424,note_on,,,,,0,0,1,,,,,0,,,79,109
215424,note_off,,,,,384,0,1,,,,,0,,,81,0
215424,note_on,,,,,480,0,3,,,,,2,,,60,90
215520,note_off,,,,,96,0,3,,,,,2,,,60,0
215520,note_off,,,,,96,0,2,,,,,1,,,63,0
215616,note_on,,,,,96,0,2,,,,,1,,,63,93
215616,note_on,,,,,96,0,3,,,,,2,,,60,90
215616,note_off,,,,,192,0,1,,,,,0,,,79,0
215712,note_off,,,,,96,0,2,,,,,1,,,63,0
215712,note_off,,,,,96,0,3,,,,,2,,,60,0
215808,note_on,,,,,96,0,3,,,,,2,,,63,90
215808,note_on,,,,,96,0,2,,,,,1,,,67,93
215904,note_off,,,,,96,0,2,,,,,1,,,67,0
215904,note_off,,,,,96,0,3,,,,,2,,,63,0
216000,note_on,,,,,96,0,2,,,,,1,,,67,93
216000,note_on,,,,,96,0,3,,,,,2,,,63,90
216096,note_off,,,,,96,0,3,,,,,2,,,63,0
216096,note_off,,,,,96,0,2,,,,,1,,,67,0
216096,note_on,,,,,480,0,1,,,,,0,,,74,109
216192,note_off,,,,,96,0,1,,,,,0,,,74,0
216192,note_on,,,,,96,0,2,,,,,1,,,63,93
216192,note_on,,,,,96,0,3,,,,,2,,,67,90
216192,note_on,,,,,0,0,1,,,,,0,,,72,109
216288,note_off,,,,,96,0,2,,,,,1,,,63,0
216288,note_off,,,,,96,0,3,,,,,2,,,67,0
216320,note_on,,,,,0,0,1,,,,,0,,,71,109
216320,note_off,,,,,128,0,1,,,,,0,,,72,0
216384,note_on,,,,,96,0,2,,,,,1,,,63,93
216384,note_on,,,,,96,0,3,,,,,2,,,67,90
216448,note_off,,,,,128,0,1,,,,,0,,,71,0
216448,note_on,,,,,0,0,1,,,,,0,,,72,109
216480,note_off,,,,,96,0,2,,,,,1,,,63,0
216480,note_off,,,,,96,0,3,,,,,2,,,67,0
216576,note_off,,,,,128,0,1,,,,,0,,,72,0
216576,note_on,,,,,0,0,1,,,,,0,,,69,109
216576,note_on,,,,,1152,0,5,,,,,4,,,53,90
216960,note_off,,,,,384,0,5,,,,,4,,,53,0
216960,note_on,,,,,480,0,3,,,,,2,,,65,90
216960,note_on,,,,,480,0,2,,,,,1,,,60,93
217056,note_off,,,,,96,0,3,,,,,2,,,65,0
217056,note_off,,,,,96,0,2,,,,,1,,,60,0
217152,note_on,,,,,96,0,3,,,,,2,,,65,90
217152,note_on,,,,,96,0,2,,,,,1,,,60,93
217248,note_off,,,,,96,0,2,,,,,1,,,60,0
217248,note_off,,,,,96,0,3,,,,,2,,,65,0
217344,note_on,,,,,96,0,2,,,,,1,,,65,93
217344,note_on,,,,,96,0,3,,,,,2,,,60,90
217344,note_on,,,,,0,0,1,,,,,0,,,72,109
217344,note_off,,,,,768,0,1,,,,,0,,,69,0
217440,note_off,,,,,96,0,3,,,,,2,,,60,0
217440,note_off,,,,,96,0,2,,,,,1,,,65,0
217536,note_on,,,,,96,0,2,,,,,1,,,65,93
217536,note_on,,,,,96,0,3,,,,,2,,,60,90
217632,note_off,,,,,96,0,3,,,,,2,,,60,0
217632,note_off,,,,,96,0,2,,,,,1,,,65,0
217728,note_on,,,,,96,0,3,,,,,2,,,57,90
217728,note_on,,,,,96,0,2,,,,,1,,,60,93
217824,note_off,,,,,96,0,3,,,,,2,,,57,0
217824,note_off,,,,,96,0,2,,,,,1,,,60,0
217920,note_on,,,,,96,0,3,,,,,2,,,57,90
217920,note_on,,,,,96,0,2,,,,,1,,,60,93
218016,note_off,,,,,96,0,2,,,,,1,,,60,0
218016,note_off,,,,,96,0,3,,,,,2,,,57,0
218112,note_on,,,,,0,0,1,,,,,0,,,79,109
218112,note_on,,,,,1152,0,5,,,,,4,,,41,90
218112,note_off,,,,,768,0,1,,,,,0,,,72,0
218496,note_on,,,,,480,0,2,,,,,1,,,60,93
218496,note_on,,,,,480,0,3,,,,,2,,,57,90
218496,note_off,,,,,384,0,1,,,,,0,,,79,0
218496,note_on,,,,,0,0,1,,,,,0,,,77,109
218496,note_off,,,,,384,0,5,,,,,4,,,41,0
218592,note_off,,,,,96,0,3,,,,,2,,,57,0
218592,note_off,,,,,96,0,2,,,,,1,,,60,0
218688,note_on,,,,,96,0,3,,,,,2,,,57,90
218688,note_on,,,,,96,0,2,,,,,1,,,60,93
218688,note_off,,,,,192,0,1,,,,,0,,,77,0
218784,note_off,,,,,96,0,3,,,,,2,,,57,0
218784,note_off,,,,,96,0,2,,,,,1,,,60,0
218880,note_on,,,,,96,0,3,,,,,2,,,60,90
218880,note_on,,,,,96,0,2,,,,,1,,,65,93
218976,note_off,,,,,96,0,3,,,,,2,,,60,0
218976,note_off,,,,,96,0,2,,,,,1,,,65,0
219072,note_on,,,,,96,0,3,,,,,2,,,60,90
219072,note_on,,,,,96,0,2,,,,,1,,,65,93
219168,note_off,,,,,96,0,3,,,,,2,,,60,0
219168,note_off,,,,,96,0,2,,,,,1,,,65,0
219168,note_on,,,,,480,0,1,,,,,0,,,79,109
219264,note_on,,,,,0,0,1,,,,,0,,,77,109
219264,note_on,,,,,96,0,3,,,,,2,,,57,90
219264,note_off,,,,,96,0,1,,,,,0,,,79,0
219264,note_on,,,,,96,0,2,,,,,1,,,60,93
219360,note_off,,,,,96,0,3,,,,,2,,,57,0
219360,note_off,,,,,96,0,2,,,,,1,,,60,0
219392,note_off,,,,,128,0,1,,,,,0,,,77,0
219392,note_on,,,,,0,0,1,,,,,0,,,76,109
219456,note_on,,,,,96,0,3,,,,,2,,,57,90
219456,note_on,,,,,96,0,2,,,,,1,,,60,93
219520,note_on,,,,,0,0,1,,,,,0,,,77,109
219520,note_off,,,,,128,0,1,,,,,0,,,76,0
219552,note_off,,,,,96,0,3,,,,,2,,,57,0
219552,note_off,,,,,96,0,2,,,,,1,,,60,0
219648,note_on,,,,,1152,0,5,,,,,4,,,46,90
219648,note_on,,,,,0,0,1,,,,,0,,,74,109
219648,note_off,,,,,128,0,1,,,,,0,,,77,0
220032,note_on,,,,,480,0,3,,,,,2,,,53,90
220032,note_off,,,,,384,0,5,,,,,4,,,46,0
220032,note_on,,,,,480,0,2,,,,,1,,,58,93
220128,note_off,,,,,96,0,3,,,,,2,,,53,0
220128,note_off,,,,,96,0,2,,,,,1,,,58,0
220224,note_on,,,,,96,0,3,,,,,2,,,53,90
220224,note_on,,,,,96,0,2,,,,,1,,,58,93
220320,note_off,,,,,96,0,3,,,,,2,,,53,0
220320,note_off,,,,,96,0,2,,,,,1,,,58,0
220416,note_on,,,,,0,0,1,,,,,0,,,77,109
220416,note_off,,,,,768,0,1,,,,,0,,,74,0
220416,note_on,,,,,384,0,5,,,,,4,,,53,90
220800,note_on,,,,,480,0,2,,,,,1,,,60,93
220800,note_off,,,,,384,0,5,,,,,4,,,53,0
220800,note_on,,,,,480,0,3,,,,,2,,,57,90
220896,note_off,,,,,96,0,2,,,,,1,,,60,0
220896,note_off,,,,,96,0,3,,,,,2,,,57,0
220992,note_on,,,,,96,0,2,,,,,1,,,60,93
220992,note_on,,,,,96,0,3,,,,,2,,,57,90
221088,note_off,,,,,96,0,2,,,,,1,,,60,0
221088,note_off,,,,,96,0,3,,,,,2,,,57,0
221184,note_off,,,,,768,0,1,,,,,0,,,77,0
221184,note_on,,,,,0,0,1,,,,,0,,,82,109
221184,note_on,,,,,384,0,5,,,,,4,,,58,90
221184,note_on,,,,,96,0,3,,,,,2,,,58,90
221184,note_on,,,,,96,0,2,,,,,1,,,62,93
221280,note_off,,,,,96,0,3,,,,,2,,,58,0
221280,note_off,,,,,96,0,2,,,,,1,,,62,0
221376,note_on,,,,,96,0,2,,,,,1,,,58,93
221376,note_off,,,,,192,0,1,,,,,0,,,82,0
221376,note_on,,,,,96,0,3,,,,,2,,,50,90
221472,note_off,,,,,96,0,3,,,,,2,,,50,0
221472,note_off,,,,,96,0,2,,,,,1,,,58,0
221568,note_off,,,,,384,0,5,,,,,4,,,58,0
221568,note_on,,,,,192,0,1,,,,,0,,,84,109
221568,note_on,,,,,96,0,3,,,,,2,,,53,90
221568,note_on,,,,,96,0,2,,,,,1,,,60,93
221664,note_off,,,,,96,0,3,,,,,2,,,53,0
221664,note_off,,,,,96,0,2,,,,,1,,,60,0
221760,note_off,,,,,192,0,1,,,,,0,,,84,0
221760,note_on,,,,,96,0,3,,,,,2,,,53,90
221760,note_on,,,,,96,0,2,,,,,1,,,60,93
221856,note_off,,,,,96,0,3,,,,,2,,,53,0
221856,note_off,,,,,96,0,2,,,,,1,,,60,0
221952,note_on,,,,,96,0,3,,,,,2,,,58,90
221952,note_on,,,,,192,0,1,,,,,0,,,86,109
221952,note_on,,,,,96,0,2,,,,,1,,,62,93
222144,note_off,,,,,192,0,1,,,,,0,,,86,0
222240,note_on,,,,,96,0,1,,,,,0,,,79,109
222336,note_off,,,,,384,0,3,,,,,2,,,58,0
222336,note_off,,,,,384,0,2,,,,,1,,,62,0
222336,note_on,,,,,0,0,1,,,,,0,,,77,109
222336,note_off,,,,,96,0,1,,,,,0,,,79,0
222464,note_off,,,,,128,0,1,,,,,0,,,77,0
222464,note_on,,,,,0,0,1,,,,,0,,,76,109
222592,note_off,,,,,128,0,1,,,,,0,,,76,0
222592,note_on,,,,,0,0,1,,,,,0,,,77,109
222720,note_on,,,,,1152,0,5,,,,,4,,,46,90
222720,note_on,,,,,0,0,1,,,,,0,,,74,109
222720,note_off,,,,,128,0,1,,,,,0,,,77,0
223104,note_on,,,,,768,0,3,,,,,2,,,58,90
223104,note_on,,,,,768,0,2,,,,,1,,,62,93
223104,note_off,,,,,384,0,5,,,,,4,,,46,0
223200,note_off,,,,,96,0,2,,,,,1,,,62,0
223200,note_off,,,,,96,0,3,,,,,2,,,58,0
223296,note_on,,,,,96,0,2,,,,,1,,,62,93
223296,note_on,,,,,96,0,3,,,,,2,,,58,90
223392,note_off,,,,,96,0,2,,,,,1,,,62,0
223392,note_off,,,,,96,0,3,,,,,2,,,58,0
223488,note_on,,,,,96,0,3,,,,,2,,,62,90
223488,note_on,,,,,0,0,1,,,,,0,,,77,109
223488,note_off,,,,,768,0,1,,,,,0,,,74,0
223488,note_on,,,,,96,0,2,,,,,1,,,65,93
223584,note_off,,,,,96,0,3,,,,,2,,,62,0
223584,note_off,,,,,96,0,2,,,,,1,,,65,0
223680,note_on,,,,,96,0,3,,,,,2,,,62,90
223680,note_on,,,,,96,0,2,,,,,1,,,65,93
223776,note_off,,,,,96,0,2,,,,,1,,,65,0
223776,note_off,,,,,96,0,3,,,,,2,,,62,0
223872,note_on,,,,,96,0,2,,,,,1,,,62,93
223872,note_on,,,,,96,0,3,,,,,2,,,58,90
223968,note_off,,,,,96,0,3,,,,,2,,,58,0
223968,note_off,,,,,96,0,2,,,,,1,,,62,0
224064,note_on,,,,,96,0,3,,,,,2,,,58,90
224064,note_on,,,,,96,0,2,,,,,1,,,62,93
224160,note_off,,,,,96,0,3,,,,,2,,,58,0
224160,note_off,,,,,96,0,2,,,,,1,,,62,0
224256,note_on,,,,,0,0,1,,,,,0,,,84,109
224256,note_on,,,,,1152,0,5,,,,,4,,,46,90
224256,note_off,,,,,768,0,1,,,,,0,,,77,0
224640,note_off,,,,,384,0,1,,,,,0,,,84,0
224640,note_on,,,,,480,0,2,,,,,1,,,62,93
224640,note_on,,,,,480,0,3,,,,,2,,,58,90
224640,note_off,,,,,384,0,5,,,,,4,,,46,0
224640,note_on,,,,,0,0,1,,,,,0,,,82,109
224736,note_off,,,,,96,0,2,,,,,1,,,62,0
224736,note_off,,,,,96,0,3,,,,,2,,,58,0
224832,note_off,,,,,192,0,1,,,,,0,,,82,0
224832,note_on,,,,,96,0,2,,,,,1,,,62,93
224832,note_on,,,,,96,0,3,,,,,2,,,58,90
224928,note_off,,,,,96,0,2,,,,,1,,,62,0
224928,note_off,,,,,96,0,3,,,,,2,,,58,0
225024,note_on,,,,,96,0,3,,,,,2,,,62,90
225024,note_on,,,,,96,0,2,,,,,1,,,65,93
225120,note_off,,,,,96,0,2,,,,,1,,,65,0
225120,note_off,,,,,96,0,3,,,,,2,,,62,0
225216,note_on,,,,,96,0,2,,,,,1,,,65,93
225216,note_on,,,,,96,0,3,,,,,2,,,62,90
225312,note_off,,,,,96,0,2,,,,,1,,,65,0
225312,note_off,,,,,96,0,3,,,,,2,,,62,0
225312,note_on,,,,,480,0,1,,,,,0,,,75,109
225408,note_on,,,,,96,0,2,,,,,1,,,62,93
225408,note_on,,,,,96,0,3,,,,,2,,,58,90
225408,note_on,,,,,0,0,1,,,,,0,,,74,109
225408,note_off,,,,,96,0,1,,,,,0,,,75,0
225504,note_off,,,,,96,0,3,,,,,2,,,58,0
225504,note_off,,,,,96,0,2,,,,,1,,,62,0
225536,note_on,,,,,0,0,1,,,,,0,,,72,109
225536,note_off,,,,,128,0,1,,,,,0,,,74,0
225600,note_on,,,,,96,0,2,,,,,1,,,62,93
225600,note_on,,,,,96,0,3,,,,,2,,,58,90
225664,note_off,,,,,128,0,1,,,,,0,,,72,0
225664,note_on,,,,,0,0,1,,,,,0,,,74,109
225696,note_off,,,,,96,0,2,,,,,1,,,62,0
225696,note_off,,,,,96,0,3,,,,,2,,,58,0
225792,note_on,,,,,1152,0,5,,,,,4,,,51,90
225792,note_on,,,,,0,0,1,,,,,0,,,72,109
225792,note_off,,,,,128,0,1,,,,,0,,,74,0
226176,note_on,,,,,480,0,2,,,,,1,,,63,93
226176,note_on,,,,,480,0,3,,,,,2,,,67,90
226176,note_off,,,,,384,0,5,,,,,4,,,51,0
226272,note_off,,,,,96,0,2,,,,,1,,,63,0
226272,note_off,,,,,96,0,3,,,,,2,,,67,0
226368,note_on,,,,,96,0,3,,,,,2,,,67,90
226368,note_on,,,,,96,0,2,,,,,1,,,63,93
226464,note_off,,,,,96,0,3,,,,,2,,,67,0
226464,note_off,,,,,96,0,2,,,,,1,,,63,0
226560,note_on,,,,,96,0,2,,,,,1,,,67,93
226560,note_on,,,,,0,0,1,,,,,0,,,75,109
226560,note_on,,,,,96,0,3,,,,,2,,,63,90
226560,note_off,,,,,768,0,1,,,,,0,,,72,0
226656,note_off,,,,,96,0,2,,,,,1,,,67,0
226656,note_off,,,,,96,0,3,,,,,2,,,63,0
226752,note_on,,,,,96,0,3,,,,,2,,,63,90
226752,note_on,,,,,96,0,2,,,,,1,,,67,93
226848,note_off,,,,,96,0,3,,,,,2,,,63,0
226848,note_off,,,,,96,0,2,,,,,1,,,67,0
226944,note_on,,,,,96,0,2,,,,,1,,,63,93
226944,note_on,,,,,96,0,3,,,,,2,,,60,90
227040,note_off,,,,,96,0,3,,,,,2,,,60,0
227040,note_off,,,,,96,0,2,,,,,1,,,63,0
227136,note_on,,,,,96,0,3,,,,,2,,,60,90
227136,note_on,,,,,96,0,2,,,,,1,,,63,93
227232,note_off,,,,,96,0,3,,,,,2,,,60,0
227232,note_off,,,,,96,0,2,,,,,1,,,63,0
227328,note_on,,,,,0,0,1,,,,,0,,,81,109
227328,note_off,,,,,768,0,1,,,,,0,,,75,0
227328,note_on,,,,,1152,0,5,,,,,4,,,51,90
227712,note_on,,,,,0,0,1,,,,,0,,,79,109
227712,note_off,,,,,384,0,1,,,,,0,,,81,0
227712,note_off,,,,,384,0,5,,,,,4,,,51,0
227712,note_on,,,,,480,0,3,,,,,2,,,60,90
227712,note_on,,,,,480,0,2,,,,,1,,,63,93
227808,note_off,,,,,96,0,2,,,,,1,,,63,0
227808,note_off,,,,,96,0,3,,,,,2,,,60,0
227904,note_on,,,,,96,0,2,,,,,1,,,63,93
227904,note_off,,,,,192,0,1,,,,,0,,,79,0
227904,note_on,,,,,96,0,3,,,,,2,,,60,90
228000,note_off,,,,,96,0,2,,,,,1,,,63,0
228000,note_off,,,,,96,0,3,,,,,2,,,60,0
228096,note_on,,,,,96,0,2,,,,,1,,,67,93
228096,note_on,,,,,96,0,3,,,,,2,,,63,90
228192,note_off,,,,,96,0,3,,,,,2,,,63,0
228192,note_off,,,,,96,0,2,,,,,1,,,67,0
228288,note_on,,,,,96,0,2,,,,,1,,,67,93
228288,note_on,,,,,96,0,3,,,,,2,,,63,90
228384,note_off,,,,,96,0,3,,,,,2,,,63,0
228384,note_off,,,,,96,0,2,,,,,1,,,67,0
228384,note_on,,,,,480,0,1,,,,,0,,,74,109
228480,note_on,,,,,96,0,3,,,,,2,,,67,90
228480,note_on,,,,,0,0,1,,,,,0,,,72,109
228480,note_on,,,,,96,0,2,,,,,1,,,63,93
228480,note_off,,,,,96,0,1,,,,,0,,,74,0
228576,note_off,,,,,96,0,3,,,,,2,,,67,0
228576,note_off,,,,,96,0,2,,,,,1,,,63,0
228608,note_off,,,,,128,0,1,,,,,0,,,72,0
228608,note_on,,,,,0,0,1,,,,,0,,,71,109
228672,note_on,,,,,96,0,2,,,,,1,,,63,93
228672,note_on,,,,,96,0,3,,,,,2,,,67,90
228736,note_on,,,,,0,0,1,,,,,0,,,72,109
228736,note_off,,,,,128,0,1,,,,,0,,,71,0
228768,note_off,,,,,96,0,3,,,,,2,,,67,0
228768,note_off,,,,,96,0,2,,,,,1,,,63,0
228864,note_on,,,,,0,0,1,,,,,0,,,69,109
228864,note_on,,,,,1152,0,5,,,,,4,,,53,90
228864,note_off,,,,,128,0,1,,,,,0,,,72,0
229248,note_on,,,,,480,0,2,,,,,1,,,60,93
229248,note_off,,,,,384,0,5,,,,,4,,,53,0
229248,note_on,,,,,480,0,3,,,,,2,,,65,90
229344,note_off,,,,,96,0,2,,,,,1,,,60,0
229344,note_off,,,,,96,0,3,,,,,2,,,65,0
229440,note_on,,,,,96,0,3,,,,,2,,,65,90
229440,note_on,,,,,96,0,2,,,,,1,,,60,93
229536,note_off,,,,,96,0,3,,,,,2,,,65,0
229536,note_off,,,,,96,0,2,,,,,1,,,60,0
229632,note_off,,,,,768,0,1,,,,,0,,,69,0
229632,note_on,,,,,0,0,1,,,,,0,,,72,109
229632,note_on,,,,,96,0,2,,,,,1,,,65,93
229632,note_on,,,,,96,0,3,,,,,2,,,60,90
229728,note_off,,,,,96,0,2,,,,,1,,,65,0
229728,note_off,,,,,96,0,3,,,,,2,,,60,0
229824,note_on,,,,,96,0,3,,,,,2,,,60,90
229824,note_on,,,,,96,0,2,,,,,1,,,65,93
229920,note_off,,,,,96,0,3,,,,,2,,,60,0
229920,note_off,,,,,96,0,2,,,,,1,,,65,0
230016,note_on,,,,,96,0,3,,,,,2,,,57,90
230016,note_on,,,,,96,0,2,,,,,1,,,60,93
230112,note_off,,,,,96,0,2,,,,,1,,,60,0
230112,note_off,,,,,96,0,3,,,,,2,,,57,0
230208,note_on,,,,,96,0,2,,,,,1,,,60,93
230208,note_on,,,,,96,0,3,,,,,2,,,57,90
230304,note_off,,,,,96,0,3,,,,,2,,,57,0
230304,note_off,,,,,96,0,2,,,,,1,,,60,0
230400,note_on,,,,,1152,0,5,,,,,4,,,53,90
230400,note_off,,,,,768,0,1,,,,,0,,,72,0
230400,note_on,,,,,0,0,1,,,,,0,,,79,109
230784,note_off,,,,,384,0,1,,,,,0,,,79,0
230784,note_on,,,,,0,0,1,,,,,0,,,77,109
230784,note_on,,,,,480,0,3,,,,,2,,,57,90
230784,note_off,,,,,384,0,5,,,,,4,,,53,0
230784,note_on,,,,,480,0,2,,,,,1,,,60,93
230880,note_off,,,,,96,0,2,,,,,1,,,60,0
230880,note_off,,,,,96,0,3,,,,,2,,,57,0
230976,note_on,,,,,96,0,3,,,,,2,,,57,90
230976,note_on,,,,,96,0,2,,,,,1,,,60,93
230976,note_off,,,,,192,0,1,,,,,0,,,77,0
231072,note_off,,,,,96,0,2,,,,,1,,,60,0
231072,note_off,,,,,96,0,3,,,,,2,,,57,0
231168,note_on,,,,,96,0,2,,,,,1,,,65,93
231168,note_on,,,,,96,0,3,,,,,2,,,60,90
231264,note_off,,,,,96,0,3,,,,,2,,,60,0
231264,note_off,,,,,96,0,2,,,,,1,,,65,0
231360,note_on,,,,,96,0,3,,,,,2,,,60,90
231360,note_on,,,,,96,0,2,,,,,1,,,65,93
231456,note_on,,,,,480,0,1,,,,,0,,,79,109
231456,note_off,,,,,96,0,2,,,,,1,,,65,0
231456,note_off,,,,,96,0,3,,,,,2,,,60,0
231552,note_on,,,,,96,0,2,,,,,1,,,60,93
231552,note_off,,,,,96,0,1,,,,,0,,,79,0
231552,note_on,,,,,0,0,1,,,,,0,,,77,109
231552,note_on,,,,,96,0,3,,,,,2,,,57,90
231648,note_off,,,,,96,0,2,,,,,1,,,60,0
231648,note_off,,,,,96,0,3,,,,,2,,,57,0
231680,note_off,,,,,128,0,1,,,,,0,,,77,0
231680,note_on,,,,,0,0,1,,,,,0,,,76,109
231744,note_on,,,,,96,0,2,,,,,1,,,60,93
231744,note_on,,,,,96,0,3,,,,,2,,,57,90
231808,note_off,,,,,128,0,1,,,,,0,,,76,0
231808,note_on,,,,,0,0,1,,,,,0,,,77,109
231840,note_off,,,,,96,0,2,,,,,1,,,60,0
231840,note_off,,,,,96,0,3,,,,,2,,,57,0
231936,note_off,,,,,128,0,1,,,,,0,,,77,0
231936,note_on,,,,,0,0,1,,,,,0,,,74,109
231936,note_on,,,,,1152,0,5,,,,,4,,,46,90
232320,note_on,,,,,480,0,2,,,,,1,,,58,93
232320,note_on,,,,,480,0,3,,,,,2,,,53,90
232320,note_off,,,,,384,0,5,,,,,4,,,46,0
232416,note_off,,,,,96,0,2,,,,,1,,,58,0
232416,note_off,,,,,96,0,3,,,,,2,,,53,0
232512,note_on,,,,,96,0,2,,,,,1,,,58,93
232512,note_on,,,,,96,0,3,,,,,2,,,53,90
232608,note_off,,,,,96,0,2,,,,,1,,,58,0
232608,note_off,,,,,96,0,3,,,,,2,,,53,0
232704,note_off,,,,,768,0,1,,,,,0,,,74,0
232704,note_on,,,,,384,0,5,,,,,4,,,53,90
232704,note_on,,,,,0,0,1,,,,,0,,,77,109
233088,note_off,,,,,384,0,5,,,,,4,,,53,0
233088,note_on,,,,,480,0,2,,,,,1,,,60,93
233088,note_on,,,,,480,0,3,,,,,2,,,57,90
233184,note_off,,,,,96,0,3,,,,,2,,,57,0
233184,note_off,,,,,96,0,2,,,,,1,,,60,0
233280,note_on,,,,,96,0,3,,,,,2,,,57,90
233280,note_on,,,,,96,0,2,,,,,1,,,60,93
233376,note_off,,,,,96,0,3,,,,,2,,,57,0
233376,note_off,,,,,96,0,2,,,,,1,,,60,0
233472,note_on,,,,,0,0,1,,,,,0,,,82,109
233472,note_on,,,,,96,0,2,,,,,1,,,58,93
233472,note_off,,,,,768,0,1,,,,,0,,,77,0
233472,note_on,,,,,384,0,5,,,,,4,,,46,90
233472,note_on,,,,,96,0,3,,,,,2,,,58,90
233568,note_off,,,,,96,0,2,,,,,1,,,58,0
233568,note_off,,,,,96,0,3,,,,,2,,,58,0
233664,note_on,,,,,96,0,2,,,,,1,,,58,93
233664,note_on,,,,,96,0,3,,,,,2,,,50,90
233664,note_off,,,,,192,0,1,,,,,0,,,82,0
233760,note_off,,,,,96,0,3,,,,,2,,,50,0
233760,note_off,,,,,96,0,2,,,,,1,,,58,0
233856,note_on,,,,,96,0,2,,,,,1,,,60,93
233856,note_on,,,,,96,0,3,,,,,2,,,53,90
233856,note_on,,,,,192,0,1,,,,,0,,,84,109
233856,note_off,,,,,384,0,5,,,,,4,,,46,0
233952,note_off,,,,,96,0,2,,,,,1,,,60,0
233952,note_off,,,,,96,0,3,,,,,2,,,53,0
234048,note_on,,,,,96,0,2,,,,,1,,,60,93
234048,note_on,,,,,96,0,3,,,,,2,,,53,90
234048,note_off,,,,,192,0,1,,,,,0,,,84,0
234144,note_off,,,,,96,0,2,,,,,1,,,60,0
234144,note_off,,,,,96,0,3,,,,,2,,,53,0
234240,note_on,,,,,192,0,1,,,,,0,,,86,109
234240,note_on,,,,,96,0,2,,,,,1,,,62,93
234240,note_on,,,,,96,0,3,,,,,2,,,58,90
234432,note_off,,,,,192,0,1,,,,,0,,,86,0
234528,note_on,,,,,96,0,1,,,,,0,,,84,109
234624,note_on,,,,,0,0,1,,,,,0,,,82,109
234624,note_off,,,,,384,0,2,,,,,1,,,62,0
234624,note_off,,,,,96,0,1,,,,,0,,,84,0
234624,note_off,,,,,384,0,3,,,,,2,,,58,0
234752,note_off,,,,,128,0,1,,,,,0,,,82,0
234752,note_on,,,,,0,0,1,,,,,0,,,81,109
234880,note_off,,,,,128,0,1,,,,,0,,,81,0
234880,note_on,,,,,0,0,1,,,,,0,,,82,109
235008,note_on,,,,,25728,0,4,,,,,3,,,63,90
235008,note_on,,,,,384,0,2,,,,,1,,,72,93
235008,note_off,,,,,128,0,1,,,,,0,,,82,0
235008,note_on,,,,,0,0,1,,,,,0,,,81,109
235008,note_on,,,,,384,0,3,,,,,2,,,65,90
235584,note_on,,,,,0,0,1,,,,,0,,,84,109
235584,note_off,,,,,576,0,2,,,,,1,,,72,0
235584,note_on,,,,,0,0,2,,,,,1,,,69,93
235584,note_off,,,,,576,0,1,,,,,0,,,81,0
235776,note_off,,,,,192,0,1,,,,,0,,,84,0
235776,note_on,,,,,0,0,1,,,,,0,,,82,109
235776,note_off,,,,,768,0,4,,,,,3,,,63,0
235776,note_on,,,,,0,0,4,,,,,3,,,62,90
235776,note_off,,,,,192,0,2,,,,,1,,,69,0
235776,note_on,,,,,0,0,2,,,,,1,,,70,93
236064,note_on,,,,,0,0,1,,,,,0,,,84,109
236064,note_off,,,,,288,0,1,,,,,0,,,82,0
236160,note_off,,,,,384,0,2,,,,,1,,,70,0
236160,note_on,,,,,0,0,1,,,,,0,,,82,109
236160,note_off,,,,,1152,0,3,,,,,2,,,65,0
236160,note_off,,,,,384,0,4,,,,,3,,,62,0
236160,note_off,,,,,96,0,1,,,,,0,,,84,0
236288,note_off,,,,,128,0,1,,,,,0,,,82,0
236288,note_on,,,,,0,0,1,,,,,0,,,81,109
236416,note_off,,,,,128,0,1,,,,,0,,,81,0
236416,note_on,,,,,0,0,1,,,,,0,,,82,109
236544,note_off,,,,,128,0,1,,,,,0,,,82,0
236544,note_on,,,,,0,0,1,,,,,0,,,81,109
236544,note_on,,,,,384,0,2,,,,,1,,,72,93
236544,note_on,,,,,384,0,3,,,,,2,,,65,90
236544,note_on,,,,,384,0,4,,,,,3,,,63,90
237120,note_off,,,,,576,0,1,,,,,0,,,81,0
237120,note_on,,,,,0,0,1,,,,,0,,,84,109
237120,note_on,,,,,0,0,2,,,,,1,,,69,93
237120,note_off,,,,,576,0,2,,,,,1,,,72,0
237312,note_on,,,,,0,0,2,,,,,1,,,70,93
237312,note_on,,,,,0,0,4,,,,,3,,,62,90
237312,note_off,,,,,192,0,2,,,,,1,,,69,0
237312,note_on,,,,,0,0,1,,,,,0,,,82,109
237312,note_off,,,,,192,0,1,,,,,0,,,84,0
237312,note_off,,,,,768,0,4,,,,,3,,,63,0
237600,note_off,,,,,288,0,1,,,,,0,,,82,0
237600,note_on,,,,,0,0,1,,,,,0,,,84,109
237696,note_off,,,,,384,0,4,,,,,3,,,62,0
237696,note_off,,,,,96,0,1,,,,,0,,,84,0
237696,note_on,,,,,0,0,1,,,,,0,,,82,109
237696,note_off,,,,,384,0,2,,,,,1,,,70,0
237696,note_off,,,,,1152,0,3,,,,,2,,,65,0
237824,note_off,,,,,128,0,1,,,,,0,,,82,0
237824,note_on,,,,,0,0,1,,,,,0,,,81,109
237952,note_on,,,,,0,0,1,,,,,0,,,82,109
237952,note_off,,,,,128,0,1,,,,,0,,,81,0
238080,note_on,,,,,384,0,3,,,,,2,,,63,90
238080,note_on,,,,,0,0,1,,,,,0,,,87,109
238080,note_off,,,,,128,0,1,,,,,0,,,82,0
238080,note_on,,,,,384,0,4,,,,,3,,,55,90
238080,note_on,,,,,384,0,2,,,,,1,,,63,93
238368,note_off,,,,,288,0,1,,,,,0,,,87,0
238368,note_on,,,,,0,0,1,,,,,0,,,84,109
238464,note_off,,,,,384,0,3,,,,,2,,,63,0
238464,note_off,,,,,384,0,4,,,,,3,,,55,0
238464,note_on,,,,,0,0,1,,,,,0,,,82,109
238464,note_off,,,,,384,0,2,,,,,1,,,63,0
238464,note_off,,,,,96,0,1,,,,,0,,,84,0
238592,note_on,,,,,0,0,1,,,,,0,,,81,109
238592,note_off,,,,,128,0,1,,,,,0,,,82,0
238720,note_on,,,,,0,0,1,,,,,0,,,82,109
238720,note_off,,,,,128,0,1,,,,,0,,,81,0
238848,note_off,,,,,128,0,1,,,,,0,,,82,0
238848,note_on,,,,,0,0,1,,,,,0,,,86,109
238848,note_on,,,,,384,0,4,,,,,3,,,58,90
238848,note_on,,,,,384,0,3,,,,,2,,,58,90
238848,note_on,,,,,384,0,2,,,,,1,,,65,93
239136,note_off,,,,,288,0,1,,,,,0,,,86,0
239136,note_on,,,,,0,0,1,,,,,0,,,84,109
239232,note_off,,,,,384,0,3,,,,,2,,,58,0
239232,note_off,,,,,384,0,2,,,,,1,,,65,0
239232,note_off,,,,,384,0,4,,,,,3,,,58,0
239232,note_on,,,,,0,0,1,,,,,0,,,82,109
239232,note_off,,,,,96,0,1,,,,,0,,,84,0
239360,note_on,,,,,0,0,1,,,,,0,,,81,109
239360,note_off,,,,,128,0,1,,,,,0,,,82,0
239488,note_off,,,,,128,0,1,,,,,0,,,81,0
239488,note_on,,,,,0,0,1,,,,,0,,,82,109
239616,note_on,,,,,384,0,4,,,,,3,,,53,90
239616,note_off,,,,,128,0,1,,,,,0,,,82,0
239616,note_on,,,,,0,0,1,,,,,0,,,84,109
239616,note_on,,,,,384,0,2,,,,,1,,,69,93
239616,note_on,,,,,384,0,3,,,,,2,,,60,90
240000,note_on,,,,,0,0,1,,,,,0,,,86,109
240000,note_on,,,,,0,0,3,,,,,2,,,60,90
240000,note_off,,,,,384,0,1,,,,,0,,,84,0
240000,note_off,,,,,384,0,3,,,,,2,,,60,0
240000,note_on,,,,,0,0,4,,,,,3,,,53,90
240000,note_off,,,,,384,0,4,,,,,3,,,53,0
240000,note_off,,,,,384,0,2,,,,,1,,,69,0
240000,note_on,,,,,0,0,2,,,,,1,,,69,93
240288,note_on,,,,,0,0,1,,,,,0,,,87,109
240288,note_off,,,,,288,0,1,,,,,0,,,86,0
240384,note_on,,,,,0,0,4,,,,,3,,,50,90
240384,note_off,,,,,384,0,4,,,,,3,,,53,0
240384,note_off,,,,,96,0,1,,,,,0,,,87,0
240384,note_off,,,,,384,0,3,,,,,2,,,60,0
240384,note_on,,,,,0,0,2,,,,,1,,,70,93
240384,note_on,,,,,0,0,3,,,,,2,,,58,90
240384,note_on,,,,,0,0,1,,,,,0,,,82,109
240384,note_off,,,,,384,0,2,,,,,1,,,69,0
240672,note_off,,,,,288,0,1,,,,,0,,,82,0
240672,note_on,,,,,0,0,1,,,,,0,,,84,109
240768,note_off,,,,,384,0,2,,,,,1,,,70,0
240768,note_off,,,,,384,0,3,,,,,2,,,58,0
240768,note_off,,,,,384,0,4,,,,,3,,,50,0
240768,note_off,,,,,96,0,1,,,,,0,,,84,0
240768,note_on,,,,,0,0,1,,,,,0,,,82,109
240896,note_on,,,,,0,0,1,,,,,0,,,81,109
240896,note_off,,,,,128,0,1,,,,,0,,,82,0
241024,note_on,,,,,0,0,1,,,,,0,,,82,109
241024,note_off,,,,,128,0,1,,,,,0,,,81,0
241152,note_on,,,,,384,0,3,,,,,2,,,63,90
241152,note_on,,,,,384,0,4,,,,,3,,,55,90
241152,note_on,,,,,0,0,1,,,,,0,,,87,109
241152,note_off,,,,,128,0,1,,,,,0,,,82,0
241152,note_on,,,,,384,0,2,,,,,1,,,63,93
241440,note_on,,,,,0,0,1,,,,,0,,,84,109
241440,note_off,,,,,288,0,1,,,,,0,,,87,0
241536,note_off,,,,,384,0,2,,,,,1,,,63,0
241536,note_off,,,,,384,0,3,,,,,2,,,63,0
241536,note_off,,,,,384,0,4,,,,,3,,,55,0
241536,note_on,,,,,0,0,1,,,,,0,,,82,109
241536,note_off,,,,,96,0,1,,,,,0,,,84,0
241664,note_off,,,,,128,0,1,,,,,0,,,82,0
241664,note_on,,,,,0,0,1,,,,,0,,,81,109
241792,note_off,,,,,128,0,1,,,,,0,,,81,0
241792,note_on,,,,,0,0,1,,,,,0,,,82,109
241920,note_on,,,,,384,0,4,,,,,3,,,58,90
241920,note_on,,,,,384,0,3,,,,,2,,,58,90
241920,note_on,,,,,384,0,2,,,,,1,,,65,93
241920,note_on,,,,,0,0,1,,,,,0,,,86,109
241920,note_off,,,,,128,0,1,,,,,0,,,82,0
242208,note_off,,,,,288,0,1,,,,,0,,,86,0
242208,note_on,,,,,0,0,1,,,,,0,,,84,109
242304,note_off,,,,,384,0,3,,,,,2,,,58,0
242304,note_off,,,,,96,0,1,,,,,0,,,84,0
242304,note_off,,,,,384,0,4,,,,,3,,,58,0
242304,note_off,,,,,384,0,2,,,,,1,,,65,0
242304,note_on,,,,,0,0,1,,,,,0,,,82,109
242432,note_off,,,,,128,0,1,,,,,0,,,82,0
242432,note_on,,,,,0,0,1,,,,,0,,,81,109
242560,note_on,,,,,0,0,1,,,,,0,,,82,109
242560,note_off,,,,,128,0,1,,,,,0,,,81,0
242688,note_on,,,,,384,0,4,,,,,3,,,53,90
242688,note_off,,,,,128,0,1,,,,,0,,,82,0
242688,note_on,,,,,384,0,3,,,,,2,,,60,90
242688,note_on,,,,,0,0,1,,,,,0,,,84,109
242688,note_on,,,,,384,0,2,,,,,1,,,69,93
243072,note_on,,,,,0,0,4,,,,,3,,,53,90
243072,note_on,,,,,0,0,3,,,,,2,,,60,90
243072,note_off,,,,,384,0,3,,,,,2,,,60,0
243072,note_off,,,,,384,0,2,,,,,1,,,69,0
243072,note_off,,,,,384,0,1,,,,,0,,,84,0
243072,note_on,,,,,0,0,1,,,,,0,,,86,109
243072,note_off,,,,,384,0,4,,,,,3,,,53,0
243072,note_on,,,,,0,0,2,,,,,1,,,69,93
243360,note_on,,,,,0,0,1,,,,,0,,,87,109
243360,note_off,,,,,288,0,1,,,,,0,,,86,0
243456,note_off,,,,,384,0,4,,,,,3,,,53,0
243456,note_on,,,,,0,0,4,,,,,3,,,50,90
243456,note_on,,,,,0,0,1,,,,,0,,,82,109
243456,note_on,,,,,0,0,3,,,,,2,,,58,90
243456,note_off,,,,,96,0,1,,,,,0,,,87,0
243456,note_off,,,,,384,0,3,,,,,2,,,60,0
243456,note_on,,,,,0,0,2,,,,,1,,,70,93
243456,note_off,,,,,384,0,2,,,,,1,,,69,0
243744,note_on,,,,,0,0,1,,,,,0,,,72,109
243744,note_off,,,,,288,0,1,,,,,0,,,82,0
243840,note_off,,,,,384,0,4,,,,,3,,,50,0
243840,note_on,,,,,0,0,1,,,,,0,,,70,109
243840,note_off,,,,,96,0,1,,,,,0,,,72,0
243840,note_off,,,,,384,0,3,,,,,2,,,58,0
243840,note_off,,,,,384,0,2,,,,,1,,,70,0
243968,note_on,,,,,0,0,1,,,,,0,,,69,109
243968,note_off,,,,,128,0,1,,,,,0,,,70,0
244096,note_on,,,,,0,0,1,,,,,0,,,70,109
244096,note_off,,,,,128,0,1,,,,,0,,,69,0
244224,note_on,,,,,0,0,1,,,,,0,,,79,109
244224,note_on,,,,,384,0,4,,,,,3,,,63,90
244224,note_off,,,,,128,0,1,,,,,0,,,70,0
244224,note_on,,,,,384,0,3,,,,,2,,,67,90
244224,note_on,,,,,384,0,2,,,,,1,,,70,93
244992,note_off,,,,,768,0,4,,,,,3,,,63,0
244992,note_on,,,,,0,0,4,,,,,3,,,62,90
244992,note_off,,,,,768,0,1,,,,,0,,,79,0
244992,note_off,,,,,768,0,2,,,,,1,,,70,0
244992,note_on,,,,,0,0,2,,,,,1,,,71,93
244992,note_on,,,,,0,0,1,,,,,0,,,77,109
245760,note_off,,,,,768,0,2,,,,,1,,,71,0
245760,note_on,,,,,0,0,4,,,,,3,,,60,90
245760,note_off,,,,,768,0,4,,,,,3,,,62,0
245760,note_on,,,,,0,0,2,,,,,1,,,72,93
245760,note_on,,,,,0,0,1,,,,,0,,,77,109
245760,note_off,,,,,768,0,1,,,,,0,,,77,0
246144,note_off,,,,,384,0,1,,,,,0,,,77,0
246144,note_on,,,,,0,0,1,,,,,0,,,75,109
246528,note_off,,,,,768,0,2,,,,,1,,,72,0
246528,note_off,,,,,768,0,4,,,,,3,,,60,0
246528,note_off,,,,,384,0,1,,,,,0,,,75,0
246528,note_off,,,,,2304,0,3,,,,,2,,,67,0
246912,note_on,,,,,384,0,3,,,,,2,,,65,90
246912,note_on,,,,,384,0,2,,,,,1,,,69,93
246912,note_on,,,,,384,0,4,,,,,3,,,63,90
246912,note_on,,,,,384,0,1,,,,,0,,,72,109
247296,note_on,,,,,0,0,1,,,,,0,,,77,109
247296,note_off,,,,,384,0,1,,,,,0,,,72,0
247296,note_off,,,,,384,0,2,,,,,1,,,69,0
247296,note_on,,,,,0,0,2,,,,,1,,,70,93
247296,note_off,,,,,384,0,4,,,,,3,,,63,0
247296,note_on,,,,,0,0,4,,,,,3,,,62,90
248064,note_off,,,,,768,0,1,,,,,0,,,77,0
248064,note_on,,,,,0,0,1,,,,,0,,,75,109
248064,note_off,,,,,768,0,2,,,,,1,,,70,0
248064,note_on,,,,,0,0,4,,,,,3,,,60,90
248064,note_off,,,,,768,0,4,,,,,3,,,62,0
248064,note_on,,,,,0,0,2,,,,,1,,,69,93
248832,note_off,,,,,768,0,4,,,,,3,,,60,0
248832,note_on,,,,,0,0,1,,,,,0,,,75,109
248832,note_on,,,,,0,0,2,,,,,1,,,70,93
248832,note_off,,,,,768,0,2,,,,,1,,,69,0
248832,note_off,,,,,768,0,1,,,,,0,,,75,0
248832,note_on,,,,,0,0,4,,,,,3,,,58,90
249216,note_off,,,,,384,0,1,,,,,0,,,75,0
249216,note_on,,,,,0,0,1,,,,,0,,,74,109
249600,note_off,,,,,768,0,4,,,,,3,,,58,0
249600,note_off,,,,,2688,0,3,,,,,2,,,65,0
249600,note_off,,,,,384,0,1,,,,,0,,,74,0
249600,note_off,,,,,768,0,2,,,,,1,,,70,0
249984,note_on,,,,,384,0,3,,,,,2,,,55,90
249984,note_on,,,,,384,0,1,,,,,0,,,74,109
249984,note_on,,,,,384,0,2,,,,,1,,,71,93
249984,note_on,,,,,384,0,4,,,,,3,,,53,90
250368,note_off,,,,,384,0,1,,,,,0,,,74,0
250368,note_off,,,,,384,0,4,,,,,3,,,53,0
250368,note_on,,,,,0,0,4,,,,,3,,,51,90
250368,note_off,,,,,384,0,2,,,,,1,,,71,0
250368,note_on,,,,,0,0,2,,,,,1,,,72,93
250368,note_on,,,,,0,0,1,,,,,0,,,72,109
250560,note_off,,,,,192,0,4,,,,,3,,,51,0
250560,note_off,,,,,192,0,2,,,,,1,,,72,0
250560,note_off,,,,,576,0,3,,,,,2,,,55,0
250560,note_off,,,,,192,0,1,,,,,0,,,72,0
250752,note_on,,,,,192,0,1,,,,,0,,,79,109
250880,note_on,,,,,0,0,1,,,,,0,,,80,109
250880,note_off,,,,,128,0,1,,,,,0,,,79,0
251008,note_on,,,,,0,0,1,,,,,0,,,78,109
251008,note_off,,,,,128,0,1,,,,,0,,,80,0
251136,note_on,,,,,0,0,1,,,,,0,,,79,109
251136,note_off,,,,,128,0,1,,,,,0,,,78,0
251328,note_off,,,,,192,0,1,,,,,0,,,79,0
251520,note_on,,,,,960,0,4,,,,,3,,,53,90
251520,note_on,,,,,192,0,1,,,,,0,,,74,109
251520,note_on,,,,,960,0,3,,,,,2,,,59,90
251520,note_on,,,,,960,0,2,,,,,1,,,67,93
251904,note_on,,,,,0,0,3,,,,,2,,,60,90
251904,note_off,,,,,384,0,3,,,,,2,,,59,0
251904,note_off,,,,,384,0,4,,,,,3,,,53,0
251904,note_on,,,,,0,0,4,,,,,3,,,51,90
251904,note_off,,,,,384,0,1,,,,,0,,,74,0
251904,note_on,,,,,0,0,1,,,,,0,,,72,109
252096,note_off,,,,,192,0,3,,,,,2,,,60,0
252096,note_off,,,,,192,0,1,,,,,0,,,72,0
252096,note_off,,,,,576,0,2,,,,,1,,,67,0
252096,note_off,,,,,192,0,4,,,,,3,,,51,0
252288,note_on,,,,,192,0,1,,,,,0,,,79,109
252416,note_off,,,,,128,0,1,,,,,0,,,79,0
252416,note_on,,,,,0,0,1,,,,,0,,,80,109
252544,note_on,,,,,0,0,1,,,,,0,,,78,109
252544,note_off,,,,,128,0,1,,,,,0,,,80,0
252672,note_on,,,,,0,0,1,,,,,0,,,79,109
252672,note_off,,,,,128,0,1,,,,,0,,,78,0
252864,note_off,,,,,192,0,1,,,,,0,,,79,0
253056,note_on,,,,,192,0,1,,,,,0,,,74,109
253056,note_on,,,,,960,0,2,,,,,1,,,71,93
253056,note_on,,,,,960,0,3,,,,,2,,,68,90
253184,note_off,,,,,128,0,3,,,,,2,,,68,0
253184,note_on,,,,,0,0,3,,,,,2,,,67,90
253312,note_off,,,,,128,0,3,,,,,2,,,67,0
253312,note_on,,,,,0,0,3,,,,,2,,,65,90
253440,note_off,,,,,128,0,3,,,,,2,,,65,0
253440,note_on,,,,,0,0,3,,,,,2,,,63,90
253440,note_on,,,,,0,0,1,,,,,0,,,72,109
253440,note_on,,,,,0,0,2,,,,,1,,,72,93
253440,note_off,,,,,384,0,1,,,,,0,,,74,0
253440,note_off,,,,,384,0,2,,,,,1,,,71,0
253632,note_off,,,,,192,0,3,,,,,2,,,63,0
253632,note_off,,,,,192,0,1,,,,,0,,,72,0
253632,note_off,,,,,192,0,2,,,,,1,,,72,0
253824,note_on,,,,,192,0,2,,,,,1,,,71,93
253824,note_on,,,,,192,0,1,,,,,0,,,74,109
253824,note_on,,,,,192,0,3,,,,,2,,,62,90
254016,note_off,,,,,192,0,1,,,,,0,,,74,0
254016,note_off,,,,,192,0,2,,,,,1,,,71,0
254016,note_off,,,,,192,0,3,,,,,2,,,62,0
254208,note_on,,,,,192,0,2,,,,,1,,,72,93
254208,note_on,,,,,192,0,1,,,,,0,,,75,109
254208,note_on,,,,,192,0,3,,,,,2,,,60,90
254400,note_off,,,,,192,0,1,,,,,0,,,75,0
254400,note_off,,,,,192,0,2,,,,,1,,,72,0
254400,note_off,,,,,192,0,3,,,,,2,,,60,0
254592,note_on,,,,,192,0,3,,,,,2,,,58,90
254592,note_on,,,,,192,0,2,,,,,1,,,74,93
254592,note_on,,,,,192,0,1,,,,,0,,,77,109
254784,note_off,,,,,192,0,3,,,,,2,,,58,0
254784,note_off,,,,,192,0,1,,,,,0,,,77,0
254784,note_off,,,,,192,0,2,,,,,1,,,74,0
254976,note_on,,,,,192,0,2,,,,,1,,,72,93
254976,note_on,,,,,192,0,1,,,,,0,,,79,109
254976,note_on,,,,,192,0,3,,,,,2,,,57,90
254976,note_on,,,,,2880,0,4,,,,,3,,,51,90
255744,note_on,,,,,0,0,2,,,,,1,,,73,93
255744,note_off,,,,,768,0,3,,,,,2,,,57,0
255744,note_on,,,,,0,0,3,,,,,2,,,69,90
255744,note_off,,,,,768,0,2,,,,,1,,,72,0
256512,note_on,,,,,0,0,4,,,,,3,,,50,90
256512,note_off,,,,,1536,0,4,,,,,3,,,51,0
256512,note_on,,,,,0,0,2,,,,,1,,,74,93
256512,note_off,,,,,768,0,2,,,,,1,,,73,0
257280,note_off,,,,,2304,0,1,,,,,0,,,79,0
257280,note_on,,,,,0,0,1,,,,,0,,,78,109
258048,note_on,,,,,0,0,1,,,,,0,,,77,109
258048,note_off,,,,,768,0,1,,,,,0,,,78,0
258048,note_off,,,,,1536,0,4,,,,,3,,,50,0
258048,note_on,,,,,0,0,4,,,,,3,,,43,90
258048,note_on,,,,,0,0,2,,,,,1,,,71,93
258048,note_off,,,,,1536,0,2,,,,,1,,,74,0
258048,note_on,,,,,0,0,3,,,,,2,,,62,90
258048,note_off,,,,,2304,0,3,,,,,2,,,69,0
259200,note_on,,,,,0,0,1,,,,,0,,,79,109
259200,note_off,,,,,1152,0,1,,,,,0,,,77,0
259584,note_off,,,,,384,0,1,,,,,0,,,79,0
259584,note_on,,,,,0,0,1,,,,,0,,,77,109
259584,note_on,,,,,0,0,3,,,,,2,,,60,90
259584,note_off,,,,,1536,0,2,,,,,1,,,71,0
259584,note_on,,,,,0,0,4,,,,,3,,,48,90
259584,note_off,,,,,1536,0,4,,,,,3,,,43,0
259584,note_off,,,,,1536,0,3,,,,,2,,,62,0
259584,note_on,,,,,0,0,2,,,,,1,,,72,93
260352,note_on,,,,,0,0,1,,,,,0,,,76,109
260352,note_off,,,,,768,0,1,,,,,0,,,77,0
260352,note_on,,,,,0,0,3,,,,,2,,,67,90
260352,note_off,,,,,768,0,3,,,,,2,,,60,0
261120,note_off,,,,,1536,0,2,,,,,1,,,72,0
261120,note_off,,,,,768,0,1,,,,,0,,,76,0
261120,note_on,,,,,0,0,1,,,,,0,,,75,109
261120,note_on,,,,,0,0,3,,,,,2,,,60,90
261120,note_off,,,,,768,0,3,,,,,2,,,67,0
261120,note_off,,,,,1536,0,4,,,,,3,,,48,0
261120,note_on,,,,,0,0,2,,,,,1,,,69,93
261120,note_on,,,,,0,0,4,,,,,3,,,41,90
261888,note_off,,,,,768,0,3,,,,,2,,,60,0
261888,note_on,,,,,0,0,3,,,,,2,,,65,90
262272,note_on,,,,,0,0,1,,,,,0,,,77,109
262272,note_off,,,,,1152,0,1,,,,,0,,,75,0
262656,note_on,,,,,0,0,4,,,,,3,,,46,90
262656,note_off,,,,,384,0,1,,,,,0,,,77,0
262656,note_on,,,,,0,0,1,,,,,0,,,75,109
262656,note_on,,,,,0,0,2,,,,,1,,,70,93
262656,note_off,,,,,1536,0,4,,,,,3,,,41,0
262656,note_off,,,,,1536,0,2,,,,,1,,,69,0
263040,note_on,,,,,0,0,1,,,,,0,,,74,109
263040,note_off,,,,,384,0,1,,,,,0,,,75,0
263424,note_off,,,,,384,0,1,,,,,0,,,74,0
263424,note_off,,,,,768,0,4,,,,,3,,,46,0
263424,note_on,,,,,0,0,3,,,,,2,,,59,90
263424,note_on,,,,,0,0,4,,,,,3,,,39,90
263424,note_on,,,,,0,0,1,,,,,0,,,77,109
263424,note_off,,,,,1536,0,3,,,,,2,,,65,0
263424,note_off,,,,,768,0,2,,,,,1,,,70,0
263424,note_on,,,,,0,0,2,,,,,1,,,67,93
263616,note_on,,,,,0,0,1,,,,,0,,,75,109
263616,note_off,,,,,192,0,1,,,,,0,,,77,0
263616,note_on,,,,,0,0,3,,,,,2,,,60,90
263616,note_off,,,,,192,0,3,,,,,2,,,59,0
263808,note_on,,,,,0,0,1,,,,,0,,,74,109
263808,note_on,,,,,0,0,3,,,,,2,,,62,90
263808,note_off,,,,,192,0,1,,,,,0,,,75,0
263808,note_off,,,,,192,0,3,,,,,2,,,60,0
264000,note_on,,,,,0,0,1,,,,,0,,,72,109
264000,note_on,,,,,0,0,3,,,,,2,,,63,90
264000,note_off,,,,,192,0,3,,,,,2,,,62,0
264000,note_off,,,,,192,0,1,,,,,0,,,74,0
264192,note_on,,,,,0,0,2,,,,,1,,,65,93
264192,note_on,,,,,0,0,4,,,,,3,,,41,90
264192,note_off,,,,,192,0,3,,,,,2,,,63,0
264192,note_on,,,,,0,0,3,,,,,2,,,62,90
264192,note_off,,,,,192,0,1,,,,,0,,,72,0
264192,note_on,,,,,0,0,1,,,,,0,,,70,109
264192,note_off,,,,,768,0,4,,,,,3,,,39,0
264192,note_off,,,,,768,0,2,,,,,1,,,67,0
264576,note_off,,,,,384,0,3,,,,,2,,,62,0
264576,note_off,,,,,384,0,2,,,,,1,,,65,0
264576,note_off,,,,,384,0,1,,,,,0,,,70,0
264576,note_off,,,,,384,0,4,,,,,3,,,41,0
264864,note_on,,,,,288,0,1,,,,,0,,,74,109
264960,note_on,,,,,384,0,2,,,,,1,,,69,93
264960,note_off,,,,,96,0,1,,,,,0,,,74,0
264960,note_on,,,,,384,0,4,,,,,3,,,53,90
264960,note_on,,,,,0,0,1,,,,,0,,,72,109
264960,note_on,,,,,384,0,3,,,,,2,,,63,90
265344,note_off,,,,,384,0,4,,,,,3,,,53,0
265344,note_off,,,,,384,0,2,,,,,1,,,69,0
265344,note_off,,,,,384,0,1,,,,,0,,,72,0
265344,note_off,,,,,384,0,3,,,,,2,,,63,0
265728,note_on,,,,,384,0,1,,,,,0,,,70,109
265728,note_on,,,,,384,0,2,,,,,1,,,70,93
265728,note_on,,,,,384,0,4,,,,,3,,,46,90
265728,note_on,,,,,384,0,3,,,,,2,,,62,90
265856,note_off,,,,,128,0,1,,,,,0,,,70,0
265856,note_on,,,,,0,0,1,,,,,0,,,77,109
265856,note_off,,,,,128,0,2,,,,,1,,,70,0
265856,note_on,,,,,0,0,2,,,,,1,,,74,93
265920,note_off,,,,,192,0,3,,,,,2,,,62,0
265920,note_off,,,,,192,0,4,,,,,3,,,46,0
265984,note_off,,,,,128,0,2,,,,,1,,,74,0
265984,note_on,,,,,0,0,2,,,,,1,,,74,93
265984,note_on,,,,,0,0,1,,,,,0,,,77,109
265984,note_off,,,,,128,0,1,,,,,0,,,77,0
266112,note_on,,,,,0,0,1,,,,,0,,,77,109
266112,note_on,,,,,192,0,3,,,,,2,,,58,90
266112,note_on,,,,,192,0,4,,,,,3,,,58,90
266112,note_off,,,,,128,0,2,,,,,1,,,74,0
266112,note_on,,,,,0,0,2,,,,,1,,,74,93
266112,note_off,,,,,128,0,1,,,,,0,,,77,0
266240,note_off,,,,,128,0,2,,,,,1,,,74,0
266240,note_on,,,,,0,0,2,,,,,1,,,74,93
266240,note_off,,,,,128,0,1,,,,,0,,,77,0
266240,note_on,,,,,0,0,1,,,,,0,,,77,109
266304,note_off,,,,,192,0,4,,,,,3,,,58,0
266304,note_off,,,,,192,0,3,,,,,2,,,58,0
266368,note_off,,,,,128,0,1,,,,,0,,,77,0
266368,note_off,,,,,128,0,2,,,,,1,,,74,0
266368,note_on,,,,,0,0,2,,,,,1,,,74,93
266368,note_on,,,,,0,0,1,,,,,0,,,77,109
266496,note_on,,,,,0,0,2,,,,,1,,,74,93
266496,note_off,,,,,128,0,2,,,,,1,,,74,0
266496,note_off,,,,,128,0,1,,,,,0,,,77,0
266496,note_on,,,,,0,0,1,,,,,0,,,77,109
266624,note_off,,,,,128,0,2,,,,,1,,,74,0
266624,note_off,,,,,128,0,1,,,,,0,,,77,0
266624,note_on,,,,,0,0,2,,,,,1,,,74,93
266624,note_on,,,,,0,0,1,,,,,0,,,77,109
266752,note_off,,,,,128,0,2,,,,,1,,,74,0
266752,note_on,,,,,0,0,2,,,,,1,,,74,93
266752,note_on,,,,,0,0,1,,,,,0,,,77,109
266752,note_off,,,,,128,0,1,,,,,0,,,77,0
266880,note_off,,,,,128,0,2,,,,,1,,,74,0
266880,note_on,,,,,576,0,4,,,,,3,,,62,90
266880,note_on,,,,,0,0,2,,,,,1,,,74,93
266880,note_on,,,,,0,0,1,,,,,0,,,77,109
266880,note_off,,,,,128,0,1,,,,,0,,,77,0
266880,note_on,,,,,576,0,3,,,,,2,,,74,90
267008,note_on,,,,,0,0,1,,,,,0,,,77,109
267008,note_off,,,,,128,0,1,,,,,0,,,77,0
267008,note_off,,,,,128,0,4,,,,,3,,,62,0
267008,note_off,,,,,128,0,2,,,,,1,,,74,0
267008,note_on,,,,,0,0,2,,,,,1,,,74,93
267008,note_on,,,,,0,0,4,,,,,3,,,60,90
267008,note_on,,,,,0,0,3,,,,,2,,,72,90
267008,note_off,,,,,128,0,3,,,,,2,,,74,0
267136,note_on,,,,,0,0,2,,,,,1,,,74,93
267136,note_off,,,,,128,0,1,,,,,0,,,77,0
267136,note_on,,,,,0,0,3,,,,,2,,,70,90
267136,note_on,,,,,0,0,4,,,,,3,,,58,90
267136,note_on,,,,,0,0,1,,,,,0,,,77,109
267136,note_off,,,,,128,0,3,,,,,2,,,72,0
267136,note_off,,,,,128,0,2,,,,,1,,,74,0
267136,note_off,,,,,128,0,4,,,,,3,,,60,0
267264,note_on,,,,,0,0,4,,,,,3,,,57,90
267264,note_off,,,,,128,0,4,,,,,3,,,58,0
267264,note_on,,,,,0,0,1,,,,,0,,,77,109
267264,note_off,,,,,128,0,1,,,,,0,,,77,0
267264,note_off,,,,,128,0,2,,,,,1,,,74,0
267264,note_on,,,,,0,0,2,,,,,1,,,75,93
267264,note_on,,,,,0,0,3,,,,,2,,,69,90
267264,note_off,,,,,128,0,3,,,,,2,,,70,0
267392,note_on,,,,,0,0,2,,,,,1,,,75,93
267392,note_off,,,,,128,0,2,,,,,1,,,75,0
267392,note_on,,,,,0,0,1,,,,,0,,,77,109
267392,note_off,,,,,128,0,1,,,,,0,,,77,0
267456,note_off,,,,,192,0,4,,,,,3,,,57,0
267456,note_off,,,,,192,0,3,,,,,2,,,69,0
267520,note_on,,,,,0,0,2,,,,,1,,,75,93
267520,note_off,,,,,128,0,2,,,,,1,,,75,0
267520,note_on,,,,,0,0,1,,,,,0,,,77,109
267520,note_off,,,,,128,0,1,,,,,0,,,77,0
267648,note_off,,,,,128,0,2,,,,,1,,,75,0
267648,note_on,,,,,0,0,2,,,,,1,,,75,93
267648,note_on,,,,,192,0,4,,,,,3,,,53,90
267648,note_on,,,,,0,0,1,,,,,0,,,77,109
267648,note_off,,,,,128,0,1,,,,,0,,,77,0
267648,note_on,,,,,192,0,3,,,,,2,,,65,90
267776,note_off,,,,,128,0,2,,,,,1,,,75,0
267776,note_on,,,,,0,0,1,,,,,0,,,77,109
267776,note_off,,,,,128,0,1,,,,,0,,,77,0
267776,note_on,,,,,0,0,2,,,,,1,,,75,93
267840,note_off,,,,,192,0,4,,,,,3,,,53,0
267840,note_off,,,,,192,0,3,,,,,2,,,65,0
267904,note_on,,,,,0,0,1,,,,,0,,,77,109
267904,note_off,,,,,128,0,1,,,,,0,,,77,0
267904,note_on,,,,,0,0,2,,,,,1,,,75,93
267904,note_off,,,,,128,0,2,,,,,1,,,75,0
268032,note_off,,,,,128,0,2,,,,,1,,,75,0
268032,note_off,,,,,128,0,1,,,,,0,,,77,0
268032,note_on,,,,,0,0,2,,,,,1,,,75,93
268032,note_on,,,,,0,0,1,,,,,0,,,77,109
268160,note_off,,,,,128,0,2,,,,,1,,,75,0
268160,note_on,,,,,0,0,2,,,,,1,,,75,93
268160,note_off,,,,,128,0,1,,,,,0,,,77,0
268160,note_on,,,,,0,0,1,,,,,0,,,77,109
268288,note_on,,,,,0,0,1,,,,,0,,,77,109
268288,note_off,,,,,128,0,1,,,,,0,,,77,0
268288,note_on,,,,,0,0,2,,,,,1,,,75,93
268288,note_off,,,,,128,0,2,,,,,1,,,75,0
268416,note_off,,,,,128,0,2,,,,,1,,,75,0
268416,note_on,,,,,0,0,2,,,,,1,,,75,93
268416,note_off,,,,,128,0,1,,,,,0,,,77,0
268416,note_on,,,,,0,0,1,,,,,0,,,81,109
268544,note_on,,,,,0,0,2,,,,,1,,,75,93
268544,note_off,,,,,128,0,2,,,,,1,,,75,0
268544,note_on,,,,,0,0,1,,,,,0,,,79,109
268544,note_off,,,,,128,0,1,,,,,0,,,81,0
268672,note_on,,,,,0,0,1,,,,,0,,,77,109
268672,note_off,,,,,128,0,2,,,,,1,,,75,0
268672,note_on,,,,,0,0,2,,,,,1,,,75,93
268672,note_off,,,,,128,0,1,,,,,0,,,79,0
268800,note_on,,,,,960,0,3,,,,,2,,,58,90
268800,note_off,,,,,128,0,1,,,,,0,,,77,0
268800,note_on,,,,,0,0,1,,,,,0,,,82,109
268800,note_off,,,,,128,0,2,,,,,1,,,75,0
268800,note_on,,,,,0,0,2,,,,,1,,,74,93
268800,note_on,,,,,0,0,2,,,,,1,,,65,93
268800,note_on,,,,,960,0,4,,,,,3,,,46,90
268928,note_on,,,,,0,0,2,,,,,1,,,65,93
268928,note_off,,,,,128,0,2,,,,,1,,,74,0
268928,note_on,,,,,0,0,2,,,,,1,,,74,93
268928,note_off,,,,,0,0,2,,,,,1,,,65,0
268928,note_on,,,,,0,0,1,,,,,0,,,77,109
268928,note_off,,,,,128,0,1,,,,,0,,,82,0
268992,note_off,,,,,192,0,4,,,,,3,,,46,0
268992,note_off,,,,,192,0,3,,,,,2,,,58,0
269056,note_off,,,,,128,0,2,,,,,1,,,74,0
269056,note_off,,,,,0,0,2,,,,,1,,,65,0
269056,note_on,,,,,0,0,2,,,,,1,,,65,93
269056,note_off,,,,,128,0,1,,,,,0,,,77,0
269056,note_on,,,,,0,0,2,,,,,1,,,74,93
269056,note_on,,,,,0,0,1,,,,,0,,,77,109
269184,note_on,,,,,192,0,4,,,,,3,,,58,90
269184,note_on,,,,,0,0,2,,,,,1,,,74,93
269184,note_on,,,,,0,0,2,,,,,1,,,65,93
269184,note_on,,,,,192,0,3,,,,,2,,,70,90
269184,note_off,,,,,128,0,2,,,,,1,,,74,0
269184,note_on,,,,,0,0,1,,,,,0,,,77,109
269184,note_off,,,,,128,0,1,,,,,0,,,77,0
269184,note_off,,,,,0,0,2,,,,,1,,,65,0
269312,note_on,,,,,0,0,2,,,,,1,,,65,93
269312,note_on,,,,,0,0,2,,,,,1,,,74,93
269312,note_off,,,,,0,0,2,,,,,1,,,65,0
269312,note_off,,,,,128,0,2,,,,,1,,,74,0
269312,note_on,,,,,0,0,1,,,,,0,,,77,109
269312,note_off,,,,,128,0,1,,,,,0,,,77,0
269376,note_off,,,,,192,0,3,,,,,2,,,70,0
269376,note_off,,,,,192,0,4,,,,,3,,,58,0
269440,note_off,,,,,0,0,2,,,,,1,,,74,0
269440,note_on,,,,,0,0,2,,,,,1,,,65,93
269440,note_on,,,,,0,0,1,,,,,0,,,77,109
269440,note_off,,,,,128,0,1,,,,,0,,,77,0
269440,note_off,,,,,128,0,2,,,,,1,,,65,0
269440,note_on,,,,,0,0,2,,,,,1,,,74,93
269568,note_on,,,,,0,0,2,,,,,1,,,74,93
269568,note_off,,,,,128,0,2,,,,,1,,,65,0
269568,note_on,,,,,0,0,1,,,,,0,,,77,109
269568,note_off,,,,,128,0,1,,,,,0,,,77,0
269568,note_on,,,,,0,0,2,,,,,1,,,65,93
269568,note_off,,,,,0,0,2,,,,,1,,,74,0
269696,note_off,,,,,128,0,2,,,,,1,,,65,0
269696,note_on,,,,,0,0,2,,,,,1,,,65,93
269696,note_off,,,,,0,0,2,,,,,1,,,74,0
269696,note_on,,,,,0,0,1,,,,,0,,,77,109
269696,note_off,,,,,128,0,1,,,,,0,,,77,0
269696,note_on,,,,,0,0,2,,,,,1,,,74,93
269824,note_on,,,,,0,0,1,,,,,0,,,77,109
269824,note_off,,,,,128,0,1,,,,,0,,,77,0
269824,note_off,,,,,0,0,2,,,,,1,,,65,0
269824,note_on,,,,,0,0,2,,,,,1,,,65,93
269824,note_on,,,,,0,0,2,,,,,1,,,74,93
269824,note_off,,,,,128,0,2,,,,,1,,,74,0
269952,note_on,,,,,0,0,1,,,,,0,,,77,109
269952,note_off,,,,,128,0,1,,,,,0,,,77,0
269952,note_on,,,,,576,0,3,,,,,2,,,74,90
269952,note_on,,,,,576,0,4,,,,,3,,,62,90
269952,note_off,,,,,0,0,2,,,,,1,,,74,0
269952,note_off,,,,,128,0,2,,,,,1,,,65,0
269952,note_on,,,,,0,0,2,,,,,1,,,74,93
269952,note_on,,,,,0,0,2,,,,,1,,,65,93
270080,note_off,,,,,128,0,3,,,,,2,,,74,0
270080,note_on,,,,,0,0,3,,,,,2,,,72,90
270080,note_off,,,,,128,0,4,,,,,3,,,62,0
270080,note_on,,,,,0,0,4,,,,,3,,,60,90
270080,note_on,,,,,0,0,1,,,,,0,,,77,109
270080,note_off,,,,,128,0,2,,,,,1,,,65,0
270080,note_on,,,,,0,0,2,,,,,1,,,74,93
270080,note_on,,,,,0,0,2,,,,,1,,,65,93
270080,note_off,,,,,0,0,2,,,,,1,,,74,0
270080,note_off,,,,,128,0,1,,,,,0,,,77,0
270208,note_on,,,,,0,0,2,,,,,1,,,65,93
270208,note_on,,,,,0,0,2,,,,,1,,,74,93
270208,note_on,,,,,0,0,1,,,,,0,,,77,109
270208,note_on,,,,,0,0,4,,,,,3,,,58,90
270208,note_off,,,,,0,0,2,,,,,1,,,74,0
270208,note_off,,,,,128,0,4,,,,,3,,,60,0
270208,note_off,,,,,128,0,2,,,,,1,,,65,0
270208,note_on,,,,,0,0,3,,,,,2,,,70,90
270208,note_off,,,,,128,0,3,,,,,2,,,72,0
270208,note_off,,,,,128,0,1,,,,,0,,,77,0
270336,note_on,,,,,0,0,4,,,,,3,,,57,90
270336,note_on,,,,,0,0,3,,,,,2,,,69,90
270336,note_on,,,,,0,0,1,,,,,0,,,77,109
270336,note_off,,,,,128,0,1,,,,,0,,,77,0
270336,note_off,,,,,128,0,3,,,,,2,,,70,0
270336,note_off,,,,,128,0,4,,,,,3,,,58,0
270336,note_off,,,,,0,0,2,,,,,1,,,65,0
270336,note_off,,,,,128,0,2,,,,,1,,,74,0
270336,note_on,,,,,0,0,2,,,,,1,,,65,93
270336,note_on,,,,,0,0,2,,,,,1,,,75,93
270464,note_off,,,,,128,0,2,,,,,1,,,65,0
270464,note_on,,,,,0,0,2,,,,,1,,,65,93
270464,note_off,,,,,0,0,2,,,,,1,,,75,0
270464,note_on,,,,,0,0,2,,,,,1,,,75,93
270464,note_off,,,,,128,0,1,,,,,0,,,77,0
270464,note_on,,,,,0,0,1,,,,,0,,,77,109
270528,note_off,,,,,192,0,3,,,,,2,,,69,0
270528,note_off,,,,,192,0,4,,,,,3,,,57,0
270592,note_off,,,,,128,0,1,,,,,0,,,77,0
270592,note_off,,,,,128,0,2,,,,,1,,,75,0
270592,note_off,,,,,0,0,2,,,,,1,,,65,0
270592,note_on,,,,,0,0,2,,,,,1,,,75,93
270592,note_on,,,,,0,0,2,,,,,1,,,65,93
270592,note_on,,,,,0,0,1,,,,,0,,,77,109
270720,note_on,,,,,0,0,2,,,,,1,,,65,93
270720,note_off,,,,,128,0,2,,,,,1,,,75,0
270720,note_off,,,,,0,0,2,,,,,1,,,65,0
270720,note_on,,,,,0,0,2,,,,,1,,,75,93
270720,note_on,,,,,192,0,3,,,,,2,,,65,90
270720,note_off,,,,,128,0,1,,,,,0,,,77,0
270720,note_on,,,,,0,0,1,,,,,0,,,77,109
270720,note_on,,,,,192,0,4,,,,,3,,,53,90
270848,note_off,,,,,128,0,1,,,,,0,,,77,0
270848,note_on,,,,,0,0,1,,,,,0,,,77,109
270848,note_off,,,,,128,0,2,,,,,1,,,75,0
270848,note_on,,,,,0,0,2,,,,,1,,,65,93
270848,note_off,,,,,0,0,2,,,,,1,,,65,0
270848,note_on,,,,,0,0,2,,,,,1,,,75,93
270912,note_off,,,,,192,0,4,,,,,3,,,53,0
270912,note_off,,,,,192,0,3,,,,,2,,,65,0
270976,note_off,,,,,0,0,2,,,,,1,,,65,0
270976,note_on,,,,,0,0,2,,,,,1,,,75,93
270976,note_on,,,,,0,0,2,,,,,1,,,65,93
270976,note_on,,,,,0,0,1,,,,,0,,,77,109
270976,note_off,,,,,128,0,1,,,,,0,,,77,0
270976,note_off,,,,,128,0,2,,,,,1,,,75,0
271104,note_off,,,,,128,0,1,,,,,0,,,77,0
271104,note_off,,,,,128,0,2,,,,,1,,,75,0
271104,note_off,,,,,0,0,2,,,,,1,,,65,0
271104,note_on,,,,,0,0,2,,,,,1,,,75,93
271104,note_on,,,,,0,0,1,,,,,0,,,77,109
271104,note_on,,,,,0,0,2,,,,,1,,,65,93
271232,note_on,,,,,0,0,2,,,,,1,,,65,93
271232,note_on,,,,,0,0,2,,,,,1,,,75,93
271232,note_off,,,,,128,0,1,,,,,0,,,77,0
271232,note_off,,,,,128,0,2,,,,,1,,,75,0
271232,note_on,,,,,0,0,1,,,,,0,,,77,109
271232,note_off,,,,,0,0,2,,,,,1,,,65,0
271360,note_on,,,,,0,0,2,,,,,1,,,65,93
271360,note_on,,,,,0,0,2,,,,,1,,,75,93
271360,note_off,,,,,128,0,1,,,,,0,,,77,0
271360,note_off,,,,,128,0,2,,,,,1,,,75,0
271360,note_off,,,,,0,0,2,,,,,1,,,65,0
271360,note_on,,,,,0,0,1,,,,,0,,,77,109
271488,note_on,,,,,0,0,1,,,,,0,,,81,109
271488,note_off,,,,,128,0,1,,,,,0,,,77,0
271488,note_off,,,,,128,0,2,,,,,1,,,75,0
271488,note_off,,,,,0,0,2,,,,,1,,,65,0
271488,note_on,,,,,0,0,2,,,,,1,,,75,93
271488,note_on,,,,,0,0,2,,,,,1,,,65,93
271616,note_on,,,,,0,0,1,,,,,0,,,79,109
271616,note_off,,,,,128,0,1,,,,,0,,,81,0
271616,note_off,,,,,128,0,2,,,,,1,,,75,0
271616,note_on,,,,,0,0,2,,,,,1,,,65,93
271616,note_on,,,,,0,0,2,,,,,1,,,75,93
271616,note_off,,,,,0,0,2,,,,,1,,,65,0
271744,note_on,,,,,0,0,1,,,,,0,,,77,109
271744,note_off,,,,,128,0,1,,,,,0,,,79,0
271744,note_off,,,,,0,0,2,,,,,1,,,65,0
271744,note_off,,,,,128,0,2,,,,,1,,,75,0
271744,note_on,,,,,0,0,2,,,,,1,,,65,93
271744,note_on,,,,,0,0,2,,,,,1,,,75,93
271872,note_on,,,,,960,0,3,,,,,2,,,58,90
271872,note_on,,,,,0,0,1,,,,,0,,,82,109
271872,note_on,,,,,0,0,2,,,,,1,,,74,93
271872,note_off,,,,,128,0,1,,,,,0,,,77,0
271872,note_off,,,,,0,0,2,,,,,1,,,65,0
271872,note_off,,,,,128,0,2,,,,,1,,,75,0
271872,note_on,,,,,960,0,4,,,,,3,,,46,90
271872,note_on,,,,,0,0,2,,,,,1,,,65,93
272000,note_off,,,,,128,0,2,,,,,1,,,65,0
272000,note_off,,,,,0,0,2,,,,,1,,,74,0
272000,note_on,,,,,0,0,2,,,,,1,,,74,93
272000,note_on,,,,,0,0,1,,,,,0,,,82,109
272000,note_off,,,,,128,0,1,,,,,0,,,82,0
272000,note_on,,,,,0,0,2,,,,,1,,,65,93
272128,note_off,,,,,128,0,2,,,,,1,,,74,0
272128,note_off,,,,,0,0,2,,,,,1,,,65,0
272128,note_on,,,,,0,0,2,,,,,1,,,74,93
272128,note_on,,,,,0,0,2,,,,,1,,,65,93
272128,note_off,,,,,128,0,1,,,,,0,,,82,0
272128,note_on,,,,,0,0,1,,,,,0,,,82,109
272256,note_on,,,,,0,0,1,,,,,0,,,86,109
272256,note_on,,,,,0,0,4,,,,,3,,,62,90
272256,note_off,,,,,384,0,4,,,,,3,,,46,0
272256,note_off,,,,,384,0,3,,,,,2,,,58,0
272256,note_on,,,,,0,0,3,,,,,2,,,74,90
272256,note_off,,,,,128,0,1,,,,,0,,,82,0
272256,note_off,,,,,128,0,2,,,,,1,,,74,0
272256,note_off,,,,,0,0,2,,,,,1,,,65,0
272256,note_on,,,,,0,0,2,,,,,1,,,74,93
272384,note_off,,,,,128,0,1,,,,,0,,,86,0
272384,note_on,,,,,0,0,2,,,,,1,,,74,93
272384,note_on,,,,,0,0,3,,,,,2,,,74,90
272384,note_off,,,,,128,0,3,,,,,2,,,74,0
272384,note_off,,,,,128,0,2,,,,,1,,,74,0
272384,note_on,,,,,0,0,1,,,,,0,,,86,109
272512,note_on,,,,,0,0,1,,,,,0,,,86,109
272512,note_off,,,,,128,0,3,,,,,2,,,74,0
272512,note_off,,,,,128,0,1,,,,,0,,,86,0
272512,note_on,,,,,0,0,3,,,,,2,,,74,90
272512,note_off,,,,,128,0,2,,,,,1,,,74,0
272512,note_on,,,,,0,0,2,,,,,1,,,74,93
272640,note_off,,,,,128,0,2,,,,,1,,,74,0
272640,note_on,,,,,0,0,2,,,,,1,,,67,93
272640,note_off,,,,,128,0,3,,,,,2,,,74,0
272640,note_on,,,,,0,0,4,,,,,3,,,55,90
272640,note_on,,,,,0,0,1,,,,,0,,,79,109
272640,note_off,,,,,128,0,1,,,,,0,,,86,0
272640,note_off,,,,,384,0,4,,,,,3,,,62,0
272640,note_on,,,,,0,0,3,,,,,2,,,70,90
272768,note_off,,,,,128,0,3,,,,,2,,,70,0
272768,note_off,,,,,128,0,1,,,,,0,,,79,0
272768,note_on,,,,,0,0,1,,,,,0,,,79,109
272768,note_on,,,,,0,0,2,,,,,1,,,67,93
272768,note_off,,,,,128,0,2,,,,,1,,,67,0
272768,note_on,,,,,0,0,3,,,,,2,,,70,90
272896,note_on,,,,,0,0,1,,,,,0,,,79,109
272896,note_off,,,,,128,0,1,,,,,0,,,79,0
272896,note_on,,,,,0,0,2,,,,,1,,,67,93
272896,note_off,,,,,128,0,2,,,,,1,,,67,0
272896,note_on,,,,,0,0,3,,,,,2,,,70,90
272896,note_off,,,,,128,0,3,,,,,2,,,70,0
273024,note_off,,,,,384,0,4,,,,,3,,,55,0
273024,note_on,,,,,0,0,2,,,,,1,,,70,93
273024,note_off,,,,,128,0,2,,,,,1,,,67,0
273024,note_on,,,,,0,0,1,,,,,0,,,82,109
273024,note_on,,,,,0,0,3,,,,,2,,,74,90
273024,note_off,,,,,128,0,1,,,,,0,,,79,0
273024,note_on,,,,,0,0,4,,,,,3,,,58,90
273024,note_off,,,,,128,0,3,,,,,2,,,70,0
273152,note_off,,,,,128,0,1,,,,,0,,,82,0
273152,note_on,,,,,0,0,3,,,,,2,,,74,90
273152,note_on,,,,,0,0,2,,,,,1,,,70,93
273152,note_off,,,,,128,0,2,,,,,1,,,70,0
273152,note_off,,,,,128,0,3,,,,,2,,,74,0
273152,note_on,,,,,0,0,1,,,,,0,,,82,109
273280,note_off,,,,,128,0,1,,,,,0,,,82,0
273280,note_on,,,,,0,0,1,,,,,0,,,82,109
273280,note_on,,,,,0,0,3,,,,,2,,,74,90
273280,note_off,,,,,128,0,3,,,,,2,,,74,0
273280,note_off,,,,,128,0,2,,,,,1,,,70,0
273280,note_on,,,,,0,0,2,,,,,1,,,70,93
273408,note_on,,,,,0,0,4,,,,,3,,,51,90
273408,note_off,,,,,384,0,4,,,,,3,,,58,0
273408,note_off,,,,,128,0,3,,,,,2,,,74,0
273408,note_off,,,,,128,0,1,,,,,0,,,82,0
273408,note_off,,,,,128,0,2,,,,,1,,,70,0
273408,note_on,,,,,0,0,2,,,,,1,,,63,93
273408,note_on,,,,,0,0,3,,,,,2,,,63,90
273408,note_on,,,,,0,0,1,,,,,0,,,75,109
273536,note_on,,,,,0,0,1,,,,,0,,,75,109
273536,note_off,,,,,128,0,1,,,,,0,,,75,0
273536,note_on,,,,,0,0,2,,,,,1,,,63,93
273536,note_off,,,,,128,0,3,,,,,2,,,63,0
273536,note_on,,,,,0,0,3,,,,,2,,,63,90
273536,note_off,,,,,128,0,2,,,,,1,,,63,0
273664,note_on,,,,,0,0,2,,,,,1,,,63,93
273664,note_on,,,,,0,0,3,,,,,2,,,63,90
273664,note_off,,,,,128,0,3,,,,,2,,,63,0
273664,note_off,,,,,128,0,2,,,,,1,,,63,0
273664,note_off,,,,,128,0,1,,,,,0,,,75,0
273664,note_on,,,,,0,0,1,,,,,0,,,75,109
273792,note_off,,,,,128,0,3,,,,,2,,,63,0
273792,note_on,,,,,0,0,3,,,,,2,,,67,90
273792,note_on,,,,,0,0,1,,,,,0,,,79,109
273792,note_off,,,,,384,0,4,,,,,3,,,51,0
273792,note_on,,,,,0,0,4,,,,,3,,,55,90
273792,note_on,,,,,0,0,2,,,,,1,,,67,93
273792,note_off,,,,,128,0,2,,,,,1,,,63,0
273792,note_off,,,,,128,0,1,,,,,0,,,75,0
273920,note_on,,,,,0,0,3,,,,,2,,,67,90
273920,note_off,,,,,128,0,3,,,,,2,,,67,0
273920,note_on,,,,,0,0,1,,,,,0,,,79,109
273920,note_on,,,,,0,0,2,,,,,1,,,67,93
273920,note_off,,,,,128,0,1,,,,,0,,,79,0
273920,note_off,,,,,128,0,2,,,,,1,,,67,0
274048,note_off,,,,,128,0,1,,,,,0,,,79,0
274048,note_off,,,,,128,0,2,,,,,1,,,67,0
274048,note_on,,,,,0,0,2,,,,,1,,,67,93
274048,note_off,,,,,128,0,3,,,,,2,,,67,0
274048,note_on,,,,,0,0,3,,,,,2,,,67,90
274048,note_on,,,,,0,0,1,,,,,0,,,79,109
274176,note_off,,,,,128,0,3,,,,,2,,,67,0
274176,note_on,,,,,0,0,1,,,,,0,,,72,109
274176,note_on,,,,,0,0,4,,,,,3,,,48,90
274176,note_off,,,,,128,0,1,,,,,0,,,79,0
274176,note_off,,,,,384,0,4,,,,,3,,,55,0
274176,note_on,,,,,0,0,3,,,,,2,,,60,90
274176,note_off,,,,,128,0,2,,,,,1,,,67,0
274176,note_on,,,,,0,0,2,,,,,1,,,60,93
274304,note_on,,,,,0,0,3,,,,,2,,,60,90
274304,note_off,,,,,128,0,3,,,,,2,,,60,0
274304,note_on,,,,,0,0,2,,,,,1,,,60,93
274304,note_on,,,,,0,0,1,,,,,0,,,72,109
274304,note_off,,,,,128,0,2,,,,,1,,,60,0
274304,note_off,,,,,128,0,1,,,,,0,,,72,0
274432,note_on,,,,,0,0,2,,,,,1,,,60,93
274432,note_on,,,,,0,0,3,,,,,2,,,60,90
274432,note_off,,,,,128,0,3,,,,,2,,,60,0
274432,note_off,,,,,128,0,2,,,,,1,,,60,0
274432,note_on,,,,,0,0,1,,,,,0,,,72,109
274432,note_off,,,,,128,0,1,,,,,0,,,72,0
274560,note_on,,,,,0,0,2,,,,,1,,,63,93
274560,note_off,,,,,128,0,2,,,,,1,,,60,0
274560,note_on,,,,,0,0,1,,,,,0,,,75,109
274560,note_off,,,,,384,0,4,,,,,3,,,48,0
274560,note_on,,,,,0,0,4,,,,,3,,,51,90
274560,note_off,,,,,128,0,3,,,,,2,,,60,0
274560,note_off,,,,,128,0,1,,,,,0,,,72,0
274560,note_on,,,,,0,0,3,,,,,2,,,63,90
274688,note_on,,,,,0,0,2,,,,,1,,,63,93
274688,note_on,,,,,0,0,1,,,,,0,,,75,109
274688,note_on,,,,,0,0,3,,,,,2,,,63,90
274688,note_off,,,,,128,0,3,,,,,2,,,63,0
274688,note_off,,,,,128,0,2,,,,,1,,,63,0
274688,note_off,,,,,128,0,1,,,,,0,,,75,0
274816,note_on,,,,,0,0,1,,,,,0,,,75,109
274816,note_off,,,,,128,0,1,,,,,0,,,75,0
274816,note_on,,,,,0,0,2,,,,,1,,,63,93
274816,note_off,,,,,128,0,2,,,,,1,,,63,0
274816,note_on,,,,,0,0,3,,,,,2,,,63,90
274816,note_off,,,,,128,0,3,,,,,2,,,63,0
274944,note_on,,,,,0,0,3,,,,,2,,,57,90
274944,note_off,,,,,128,0,3,,,,,2,,,63,0
274944,note_off,,,,,128,0,1,,,,,0,,,75,0
274944,note_off,,,,,384,0,4,,,,,3,,,51,0
274944,note_on,,,,,0,0,4,,,,,3,,,45,90
274944,note_on,,,,,0,0,1,,,,,0,,,69,109
274944,note_on,,,,,0,0,2,,,,,1,,,57,93
274944,note_off,,,,,128,0,2,,,,,1,,,63,0
275328,note_off,,,,,384,0,1,,,,,0,,,69,0
275328,note_off,,,,,384,0,4,,,,,3,,,45,0
275328,note_off,,,,,384,0,2,,,,,1,,,57,0
275328,note_off,,,,,384,0,3,,,,,2,,,57,0
275712,note_on,,,,,384,0,3,,,,,2,,,69,90
275712,note_on,,,,,384,0,4,,,,,3,,,57,90
275712,note_on,,,,,0,0,1,,,,,0,,,75,109
275712,note_on,,,,,384,0,2,,,,,1,,,72,93
275712,note_on,,,,,384,0,1,,,,,0,,,79,109
276096,note_off,,,,,384,0,1,,,,,0,,,79,0
276096,note_off,,,,,0,0,1,,,,,0,,,75,0
276096,note_off,,,,,384,0,3,,,,,2,,,69,0
276096,note_off,,,,,384,0,2,,,,,1,,,72,0
276096,note_off,,,,,384,0,4,,,,,3,,,57,0
277632,note_on,,,,,1536,0,3,,,,,2,,,69,90
277632,note_on,,,,,1536,0,1,,,,,0,,,79,109
277632,note_on,,,,,1536,0,2,,,,,1,,,75,93
278016,note_on,,,,,0,0,2,,,,,1,,,74,93
278016,note_off,,,,,384,0,2,,,,,1,,,75,0
278016,note_on,,,,,0,0,3,,,,,2,,,70,90
278016,note_off,,,,,384,0,3,,,,,2,,,69,0
278016,note_off,,,,,384,0,1,,,,,0,,,79,0
278016,note_on,,,,,0,0,1,,,,,0,,,77,109
278208,note_off,,,,,192,0,2,,,,,1,,,74,0
278208,note_off,,,,,192,0,1,,,,,0,,,77,0
278208,note_off,,,,,192,0,3,,,,,2,,,70,0
278400,note_on,,,,,192,0,1,,,,,0,,,82,109
278528,note_off,,,,,128,0,1,,,,,0,,,82,0
278528,note_on,,,,,0,0,1,,,,,0,,,81,109
278656,note_on,,,,,0,0,1,,,,,0,,,82,109
278656,note_off,,,,,128,0,1,,,,,0,,,81,0
278784,note_on,,,,,0,0,1,,,,,0,,,86,109
278784,note_off,,,,,128,0,1,,,,,0,,,82,0
279168,note_off,,,,,384,0,1,,,,,0,,,86,0
279552,note_on,,,,,45696,0,5,,,,,4,,,46,90
279936,note_off,,,,,384,0,5,,,,,4,,,46,0
280704,note_on,,,,,2496,0,2,,,,,1,,,75,93
280704,note_on,,,,,1536,0,1,,,,,0,,,79,109
280704,note_on,,,,,2496,0,3,,,,,2,,,69,90
281088,note_on,,,,,0,0,3,,,,,2,,,70,90
281088,note_off,,,,,384,0,1,,,,,0,,,79,0
281088,note_on,,,,,0,0,1,,,,,0,,,77,109
281088,note_off,,,,,384,0,3,,,,,2,,,69,0
281088,note_off,,,,,384,0,2,,,,,1,,,75,0
281088,note_on,,,,,0,0,2,,,,,1,,,74,93
281280,note_off,,,,,192,0,3,,,,,2,,,70,0
281280,note_off,,,,,192,0,1,,,,,0,,,77,0
281280,note_off,,,,,192,0,2,,,,,1,,,74,0
281472,note_on,,,,,192,0,1,,,,,0,,,82,109
281600,note_off,,,,,128,0,1,,,,,0,,,82,0
281600,note_on,,,,,0,0,1,,,,,0,,,81,109
281728,note_on,,,,,0,0,1,,,,,0,,,82,109
281728,note_off,,,,,128,0,1,,,,,0,,,81,0
281856,note_off,,,,,128,0,1,,,,,0,,,82,0
281856,note_on,,,,,0,0,1,,,,,0,,,86,109
282240,note_off,,,,,384,0,1,,,,,0,,,86,0
282240,note_on,,,,,960,0,2,,,,,1,,,75,93
282240,note_on,,,,,0,0,1,,,,,0,,,79,109
282240,note_on,,,,,960,0,3,,,,,2,,,69,90
282624,note_off,,,,,384,0,3,,,,,2,,,69,0
282624,note_off,,,,,384,0,2,,,,,1,,,75,0
282624,note_on,,,,,0,0,2,,,,,1,,,74,93
282624,note_on,,,,,0,0,3,,,,,2,,,70,90
282624,note_off,,,,,384,0,1,,,,,0,,,79,0
282624,note_on,,,,,0,0,1,,,,,0,,,77,109
282816,note_off,,,,,192,0,3,,,,,2,,,70,0
282816,note_off,,,,,192,0,2,,,,,1,,,74,0
282816,note_off,,,,,192,0,1,,,,,0,,,77,0
283008,note_on,,,,,192,0,1,,,,,0,,,82,109
283136,note_on,,,,,0,0,1,,,,,0,,,81,109
283136,note_off,,,,,128,0,1,,,,,0,,,82,0
283264,note_off,,,,,128,0,1,,,,,0,,,81,0
283264,note_on,,,,,0,0,1,,,,,0,,,82,109
283392,note_on,,,,,0,0,1,,,,,0,,,86,109
283392,note_off,,,,,128,0,1,,,,,0,,,82,0
283488,note_off,,,,,96,0,1,,,,,0,,,86,0
283776,note_on,,,,,288,0,1,,,,,0,,,77,109
283872,note_off,,,,,96,0,1,,,,,0,,,77,0
284160,note_on,,,,,288,0,1,,,,,0,,,82,109
284256,note_off,,,,,96,0,1,,,,,0,,,82,0
284544,note_on,,,,,288,0,1,,,,,0,,,74,109
284640,note_off,,,,,96,0,1,,,,,0,,,74,0
284928,note_on,,,,,288,0,1,,,,,0,,,77,109
285024,note_off,,,,,96,0,1,,,,,0,,,77,0
285312,note_on,,,,,9216,0,4,,,,,3,,,52,90
285312,note_on,,,,,2496,0,2,,,,,1,,,70,93
285312,note_on,,,,,2496,0,3,,,,,2,,,61,90
285312,note_on,,,,,288,0,1,,,,,0,,,79,109
285696,note_on,,,,,0,0,4,,,,,3,,,53,90
285696,note_on,,,,,0,0,1,,,,,0,,,70,109
285696,note_off,,,,,384,0,1,,,,,0,,,79,0
285696,note_off,,,,,384,0,3,,,,,2,,,61,0
285696,note_on,,,,,0,0,3,,,,,2,,,62,90
285696,note_on,,,,,0,0,2,,,,,1,,,65,93
285696,note_off,,,,,384,0,2,,,,,1,,,70,0
285696,note_off,,,,,384,0,4,,,,,3,,,52,0
286368,note_off,,,,,672,0,1,,,,,0,,,70,0
286368,note_on,,,,,0,0,1,,,,,0,,,74,109
286464,note_off,,,,,768,0,3,,,,,2,,,62,0
286464,note_on,,,,,0,0,2,,,,,1,,,69,93
286464,note_off,,,,,768,0,2,,,,,1,,,65,0
286464,note_off,,,,,96,0,1,,,,,0,,,74,0
286464,note_on,,,,,0,0,1,,,,,0,,,72,109
286464,note_on,,,,,0,0,3,,,,,2,,,63,90
286656,note_on,,,,,0,0,1,,,,,0,,,70,109
286656,note_off,,,,,192,0,1,,,,,0,,,72,0
286848,note_on,,,,,0,0,1,,,,,0,,,72,109
286848,note_off,,,,,192,0,1,,,,,0,,,70,0
287040,note_off,,,,,192,0,1,,,,,0,,,72,0
287040,note_on,,,,,0,0,1,,,,,0,,,74,109
287232,note_off,,,,,192,0,1,,,,,0,,,74,0
287232,note_off,,,,,1536,0,4,,,,,3,,,53,0
287232,note_on,,,,,0,0,3,,,,,2,,,62,90
287232,note_off,,,,,768,0,3,,,,,2,,,63,0
287232,note_on,,,,,0,0,4,,,,,3,,,46,90
287232,note_on,,,,,0,0,2,,,,,1,,,70,93
287232,note_off,,,,,768,0,2,,,,,1,,,69,0
287232,note_on,,,,,0,0,1,,,,,0,,,70,109
287424,note_off,,,,,192,0,2,,,,,1,,,70,0
287616,note_off,,,,,384,0,1,,,,,0,,,70,0
287616,note_on,,,,,192,0,2,,,,,1,,,70,93
287616,note_off,,,,,384,0,3,,,,,2,,,62,0
287616,note_on,,,,,0,0,1,,,,,0,,,82,109
287616,note_off,,,,,384,0,4,,,,,3,,,46,0
287744,note_off,,,,,128,0,1,,,,,0,,,82,0
287744,note_on,,,,,0,0,1,,,,,0,,,81,109
287744,note_off,,,,,128,0,2,,,,,1,,,70,0
287744,note_on,,,,,0,0,2,,,,,1,,,69,93
287872,note_off,,,,,128,0,1,,,,,0,,,81,0
287872,note_on,,,,,0,0,1,,,,,0,,,82,109
287872,note_on,,,,,0,0,2,,,,,1,,,70,93
287872,note_off,,,,,128,0,2,,,,,1,,,69,0
288000,note_off,,,,,128,0,2,,,,,1,,,70,0
288000,note_off,,,,,128,0,1,,,,,0,,,82,0
288000,note_on,,,,,0,0,2,,,,,1,,,74,93
288000,note_on,,,,,0,0,1,,,,,0,,,86,109
288096,note_off,,,,,96,0,2,,,,,1,,,74,0
288096,note_off,,,,,96,0,1,,,,,0,,,86,0
288384,note_on,,,,,288,0,2,,,,,1,,,65,93
288384,note_on,,,,,288,0,1,,,,,0,,,77,109
288480,note_off,,,,,96,0,2,,,,,1,,,65,0
288480,note_off,,,,,96,0,1,,,,,0,,,77,0
288768,note_on,,,,,288,0,2,,,,,1,,,70,93
288768,note_on,,,,,288,0,1,,,,,0,,,82,109
288864,note_off,,,,,96,0,1,,,,,0,,,82,0
288864,note_off,,,,,96,0,2,,,,,1,,,70,0
289152,note_on,,,,,288,0,1,,,,,0,,,74,109
289152,note_on,,,,,288,0,2,,,,,1,,,62,93
289248,note_off,,,,,96,0,1,,,,,0,,,74,0
289248,note_off,,,,,96,0,2,,,,,1,,,62,0
289536,note_on,,,,,288,0,1,,,,,0,,,77,109
289536,note_on,,,,,288,0,2,,,,,1,,,65,93
289632,note_off,,,,,96,0,2,,,,,1,,,65,0
289632,note_off,,,,,96,0,1,,,,,0,,,77,0
289920,note_on,,,,,288,0,2,,,,,1,,,70,93
289920,note_on,,,,,2304,0,3,,,,,2,,,61,90
289920,note_on,,,,,2304,0,4,,,,,3,,,52,90
289920,note_on,,,,,288,0,1,,,,,0,,,79,109
290304,note_on,,,,,0,0,1,,,,,0,,,70,109
290304,note_off,,,,,384,0,1,,,,,0,,,79,0
290304,note_off,,,,,384,0,2,,,,,1,,,70,0
290304,note_on,,,,,0,0,4,,,,,3,,,53,90
290304,note_on,,,,,0,0,2,,,,,1,,,65,93
290304,note_off,,,,,384,0,3,,,,,2,,,61,0
290304,note_on,,,,,0,0,3,,,,,2,,,62,90
290304,note_off,,,,,384,0,4,,,,,3,,,52,0
290976,note_off,,,,,672,0,1,,,,,0,,,70,0
290976,note_on,,,,,0,0,1,,,,,0,,,74,109
291072,note_off,,,,,768,0,2,,,,,1,,,65,0
291072,note_on,,,,,0,0,3,,,,,2,,,63,90
291072,note_on,,,,,0,0,2,,,,,1,,,69,93
291072,note_on,,,,,0,0,1,,,,,0,,,72,109
291072,note_off,,,,,96,0,1,,,,,0,,,74,0
291072,note_off,,,,,768,0,3,,,,,2,,,62,0
291264,note_on,,,,,0,0,1,,,,,0,,,70,109
291264,note_off,,,,,192,0,1,,,,,0,,,72,0
291456,note_off,,,,,192,0,1,,,,,0,,,70,0
291456,note_on,,,,,0,0,1,,,,,0,,,72,109
291648,note_on,,,,,0,0,1,,,,,0,,,74,109
291648,note_off,,,,,192,0,1,,,,,0,,,72,0
291840,note_on,,,,,0,0,1,,,,,0,,,70,109
291840,note_off,,,,,192,0,1,,,,,0,,,74,0
291840,note_on,,,,,0,0,4,,,,,3,,,46,90
291840,note_on,,,,,0,0,3,,,,,2,,,62,90
291840,note_on,,,,,0,0,2,,,,,1,,,70,93
291840,note_off,,,,,768,0,2,,,,,1,,,69,0
291840,note_off,,,,,768,0,3,,,,,2,,,63,0
291840,note_off,,,,,1536,0,4,,,,,3,,,53,0
291968,note_on,,,,,0,0,2,,,,,1,,,65,93
291968,note_off,,,,,128,0,2,,,,,1,,,70,0
291968,note_off,,,,,128,0,3,,,,,2,,,62,0
291968,note_on,,,,,0,0,3,,,,,2,,,62,90
292032,note_off,,,,,192,0,1,,,,,0,,,70,0
292096,note_off,,,,,128,0,2,,,,,1,,,65,0
292096,note_on,,,,,0,0,3,,,,,2,,,62,90
292096,note_off,,,,,128,0,3,,,,,2,,,62,0
292096,note_on,,,,,0,0,2,,,,,1,,,65,93
292224,note_on,,,,,0,0,2,,,,,1,,,65,93
292224,note_on,,,,,0,0,3,,,,,2,,,62,90
292224,note_off,,,,,128,0,3,,,,,2,,,62,0
292224,note_off,,,,,128,0,2,,,,,1,,,65,0
292224,note_off,,,,,384,0,4,,,,,3,,,46,0
292224,note_on,,,,,192,0,1,,,,,0,,,86,109
292352,note_off,,,,,128,0,2,,,,,1,,,65,0
292352,note_on,,,,,0,0,1,,,,,0,,,84,109
292352,note_on,,,,,0,0,3,,,,,2,,,62,90
292352,note_off,,,,,128,0,3,,,,,2,,,62,0
292352,note_off,,,,,128,0,1,,,,,0,,,86,0
292352,note_on,,,,,0,0,2,,,,,1,,,65,93
292480,note_off,,,,,128,0,2,,,,,1,,,65,0
292480,note_off,,,,,128,0,3,,,,,2,,,62,0
292480,note_on,,,,,0,0,3,,,,,2,,,62,90
292480,note_on,,,,,0,0,2,,,,,1,,,65,93
292480,note_off,,,,,128,0,1,,,,,0,,,84,0
292480,note_on,,,,,0,0,1,,,,,0,,,82,109
292608,note_on,,,,,0,0,3,,,,,2,,,63,90
292608,note_on,,,,,0,0,1,,,,,0,,,81,109
292608,note_on,,,,,0,0,2,,,,,1,,,65,93
292608,note_on,,,,,384,0,4,,,,,3,,,41,90
292608,note_off,,,,,128,0,3,,,,,2,,,62,0
292608,note_off,,,,,128,0,1,,,,,0,,,82,0
292608,note_off,,,,,128,0,2,,,,,1,,,65,0
292704,note_off,,,,,96,0,1,,,,,0,,,81,0
292736,note_on,,,,,0,0,2,,,,,1,,,65,93
292736,note_on,,,,,0,0,3,,,,,2,,,63,90
292736,note_off,,,,,128,0,2,,,,,1,,,65,0
292736,note_off,,,,,128,0,3,,,,,2,,,63,0
292864,note_off,,,,,128,0,3,,,,,2,,,63,0
292864,note_on,,,,,0,0,3,,,,,2,,,63,90
292864,note_on,,,,,0,0,2,,,,,1,,,65,93
292864,note_off,,,,,128,0,2,,,,,1,,,65,0
292992,note_on,,,,,288,0,1,,,,,0,,,65,109
292992,note_off,,,,,128,0,3,,,,,2,,,63,0
292992,note_on,,,,,0,0,3,,,,,2,,,63,90
292992,note_off,,,,,384,0,4,,,,,3,,,41,0
292992,note_off,,,,,128,0,2,,,,,1,,,65,0
292992,note_on,,,,,0,0,2,,,,,1,,,65,93
293120,note_off,,,,,128,0,2,,,,,1,,,65,0
293120,note_on,,,,,0,0,3,,,,,2,,,63,90
293120,note_off,,,,,128,0,3,,,,,2,,,63,0
293120,note_on,,,,,0,0,2,,,,,1,,,65,93
293120,note_on,,,,,0,0,1,,,,,0,,,67,109
293120,note_off,,,,,128,0,1,,,,,0,,,65,0
293248,note_off,,,,,128,0,3,,,,,2,,,63,0
293248,note_off,,,,,128,0,1,,,,,0,,,67,0
293248,note_on,,,,,0,0,3,,,,,2,,,63,90
293248,note_on,,,,,0,0,1,,,,,0,,,69,109
293248,note_on,,,,,0,0,2,,,,,1,,,65,93
293248,note_off,,,,,128,0,2,,,,,1,,,65,0
293376,note_on,,,,,0,0,1,,,,,0,,,70,109
293376,note_off,,,,,128,0,1,,,,,0,,,69,0
293376,note_on,,,,,0,0,3,,,,,2,,,62,90
293376,note_off,,,,,128,0,3,,,,,2,,,63,0
293376,note_off,,,,,128,0,2,,,,,1,,,65,0
293376,note_on,,,,,384,0,4,,,,,3,,,46,90
293376,note_on,,,,,0,0,2,,,,,1,,,65,93
293472,note_off,,,,,96,0,1,,,,,0,,,70,0
293504,note_off,,,,,128,0,3,,,,,2,,,62,0
293504,note_off,,,,,128,0,2,,,,,1,,,65,0
293504,note_on,,,,,0,0,2,,,,,1,,,65,93
293504,note_on,,,,,0,0,3,,,,,2,,,62,90
293632,note_off,,,,,128,0,2,,,,,1,,,65,0
293632,note_on,,,,,0,0,2,,,,,1,,,65,93
293632,note_on,,,,,0,0,3,,,,,2,,,62,90
293632,note_off,,,,,128,0,3,,,,,2,,,62,0
293760,note_off,,,,,128,0,3,,,,,2,,,62,0
293760,note_on,,,,,0,0,3,,,,,2,,,62,90
293760,note_off,,,,,384,0,4,,,,,3,,,46,0
293760,note_on,,,,,0,0,2,,,,,1,,,65,93
293760,note_on,,,,,288,0,1,,,,,0,,,86,109
293760,note_off,,,,,128,0,2,,,,,1,,,65,0
293888,note_off,,,,,128,0,2,,,,,1,,,65,0
293888,note_on,,,,,0,0,2,,,,,1,,,65,93
293888,note_on,,,,,0,0,3,,,,,2,,,62,90
293888,note_off,,,,,128,0,1,,,,,0,,,86,0
293888,note_off,,,,,128,0,3,,,,,2,,,62,0
293888,note_on,,,,,0,0,1,,,,,0,,,84,109
294016,note_off,,,,,128,0,1,,,,,0,,,84,0
294016,note_on,,,,,0,0,1,,,,,0,,,82,109
294016,note_off,,,,,128,0,3,,,,,2,,,62,0
294016,note_on,,,,,0,0,2,,,,,1,,,65,93
294016,note_off,,,,,128,0,2,,,,,1,,,65,0
294016,note_on,,,,,0,0,3,,,,,2,,,62,90
294144,note_off,,,,,128,0,1,,,,,0,,,82,0
294144,note_on,,,,,0,0,1,,,,,0,,,81,109
294144,note_on,,,,,0,0,3,,,,,2,,,63,90
294144,note_off,,,,,128,0,2,,,,,1,,,65,0
294144,note_on,,,,,384,0,4,,,,,3,,,41,90
294144,note_on,,,,,0,0,2,,,,,1,,,65,93
294144,note_off,,,,,128,0,3,,,,,2,,,62,0
294240,note_off,,,,,96,0,1,,,,,0,,,81,0
294272,note_off,,,,,128,0,3,,,,,2,,,63,0
294272,note_on,,,,,0,0,3,,,,,2,,,63,90
294272,note_on,,,,,0,0,2,,,,,1,,,65,93
294272,note_off,,,,,128,0,2,,,,,1,,,65,0
294400,note_off,,,,,128,0,3,,,,,2,,,63,0
294400,note_on,,,,,0,0,3,,,,,2,,,63,90
294400,note_on,,,,,0,0,2,,,,,1,,,65,93
294400,note_off,,,,,128,0,2,,,,,1,,,65,0
294528,note_on,,,,,288,0,1,,,,,0,,,65,109
294528,note_off,,,,,128,0,3,,,,,2,,,63,0
294528,note_off,,,,,128,0,2,,,,,1,,,65,0
294528,note_on,,,,,0,0,2,,,,,1,,,65,93
294528,note_off,,,,,384,0,4,,,,,3,,,41,0
294528,note_on,,,,,0,0,3,,,,,2,,,63,90
294656,note_off,,,,,128,0,3,,,,,2,,,63,0
294656,note_on,,,,,0,0,1,,,,,0,,,67,109
294656,note_off,,,,,128,0,1,,,,,0,,,65,0
294656,note_on,,,,,0,0,2,,,,,1,,,65,93
294656,note_off,,,,,128,0,2,,,,,1,,,65,0
294656,note_on,,,,,0,0,3,,,,,2,,,63,90
294784,note_on,,,,,0,0,1,,,,,0,,,69,109
294784,note_off,,,,,128,0,1,,,,,0,,,67,0
294784,note_off,,,,,128,0,3,,,,,2,,,63,0
294784,note_on,,,,,0,0,3,,,,,2,,,63,90
294784,note_off,,,,,128,0,2,,,,,1,,,65,0
294784,note_on,,,,,0,0,2,,,,,1,,,65,93
294912,note_on,,,,,0,0,2,,,,,1,,,65,93
294912,note_on,,,,,0,0,1,,,,,0,,,70,109
294912,note_off,,,,,128,0,2,,,,,1,,,65,0
294912,note_off,,,,,128,0,3,,,,,2,,,63,0
294912,note_on,,,,,0,0,3,,,,,2,,,62,90
294912,note_on,,,,,384,0,4,,,,,3,,,46,90
294912,note_off,,,,,128,0,1,,,,,0,,,69,0
295296,note_off,,,,,384,0,1,,,,,0,,,70,0
295296,note_off,,,,,384,0,2,,,,,1,,,65,0
295296,note_off,,,,,384,0,3,,,,,2,,,62,0
295296,note_off,,,,,384,0,4,,,,,3,,,46,0
295680,note_on,,,,,384,0,2,,,,,1,,,65,93
295680,note_on,,,,,384,0,3,,,,,2,,,58,90
295680,note_on,,,,,384,0,4,,,,,3,,,46,90
295680,note_on,,,,,384,0,1,,,,,0,,,74,109
296064,note_off,,,,,384,0,2,,,,,1,,,65,0
296064,note_off,,,,,384,0,1,,,,,0,,,74,0
296064,note_off,,,,,384,0,4,,,,,3,,,46,0
296064,note_off,,,,,384,0,3,,,,,2,,,58,0
296448,note_on,,,,,384,0,3,,,,,2,,,58,90
296448,note_on,,,,,384,0,2,,,,,1,,,62,93
296448,note_on,,,,,384,0,1,,,,,0,,,70,109
296448,note_on,,,,,384,0,4,,,,,3,,,46,90
296832,note_off,,,,,384,0,1,,,,,0,,,70,0
296832,note_off,,,,,384,0,2,,,,,1,,,62,0
296832,note_off,,,,,384,0,4,,,,,3,,,46,0
296832,note_off,,,,,384,0,3,,,,,2,,,58,0
297888,note_on,,,,,1056,0,1,,,,,0,,,55,109
297936,note_off,,,,,48,0,1,,,,,0,,,55,0
297936,note_on,,,,,0,0,1,,,,,0,,,67,109
297984,note_on,,,,,1152,0,2,,,,,1,,,67,93
297984,note_on,,,,,0,0,2,,,,,1,,,55,93
297984,note_on,,,,,0,0,4,,,,,3,,,55,90
297984,note_on,,,,,1152,0,4,,,,,3,,,43,90
297984,note_on,,,,,0,0,3,,,,,2,,,55,90
297984,note_on,,,,,1152,0,3,,,,,2,,,67,90
297984,note_off,,,,,48,0,1,,,,,0,,,67,0
297984,note_on,,,,,0,0,1,,,,,0,,,67,109
297984,note_on,,,,,0,0,1,,,,,0,,,79,109
299136,note_off,,,,,0,0,4,,,,,3,,,55,0
299136,note_off,,,,,0,0,1,,,,,0,,,79,0
299136,note_on,,,,,0,0,1,,,,,0,,,74,109
299136,note_off,,,,,1152,0,1,,,,,0,,,67,0
299136,note_off,,,,,1152,0,3,,,,,2,,,55,0
299136,note_off,,,,,0,0,3,,,,,2,,,67,0
299136,note_on,,,,,0,0,3,,,,,2,,,74,90
299136,note_on,,,,,0,0,2,,,,,1,,,74,93
299136,note_off,,,,,0,0,2,,,,,1,,,67,0
299136,note_off,,,,,1152,0,2,,,,,1,,,55,0
299136,note_off,,,,,1152,0,4,,,,,3,,,43,0
299136,note_on,,,,,0,0,4,,,,,3,,,62,90
299264,note_off,,,,,128,0,3,,,,,2,,,74,0
299264,note_on,,,,,0,0,3,,,,,2,,,72,90
299264,note_on,,,,,0,0,1,,,,,0,,,72,109
299264,note_off,,,,,128,0,1,,,,,0,,,74,0
299264,note_on,,,,,0,0,4,,,,,3,,,60,90
299264,note_off,,,,,128,0,2,,,,,1,,,74,0
299264,note_off,,,,,128,0,4,,,,,3,,,62,0
299264,note_on,,,,,0,0,2,,,,,1,,,72,93
299392,note_on,,,,,0,0,1,,,,,0,,,74,109
299392,note_off,,,,,128,0,4,,,,,3,,,60,0
299392,note_on,,,,,0,0,4,,,,,3,,,62,90
299392,note_on,,,,,0,0,3,,,,,2,,,74,90
299392,note_off,,,,,128,0,3,,,,,2,,,72,0
299392,note_off,,,,,128,0,1,,,,,0,,,72,0
299392,note_on,,,,,0,0,2,,,,,1,,,74,93
299392,note_off,,,,,128,0,2,,,,,1,,,72,0
299520,note_off,,,,,128,0,3,,,,,2,,,74,0
299520,note_off,,,,,128,0,2,,,,,1,,,74,0
299520,note_on,,,,,0,0,4,,,,,3,,,63,90
299520,note_off,,,,,128,0,4,,,,,3,,,62,0
299520,note_on,,,,,0,0,2,,,,,1,,,75,93
299520,note_on,,,,,0,0,3,,,,,2,,,75,90
299520,note_off,,,,,128,0,1,,,,,0,,,74,0
299520,note_on,,,,,0,0,1,,,,,0,,,75,109
299712,note_off,,,,,192,0,2,,,,,1,,,75,0
299712,note_off,,,,,192,0,3,,,,,2,,,75,0
299712,note_off,,,,,192,0,4,,,,,3,,,63,0
299712,note_off,,,,,192,0,1,,,,,0,,,75,0
299904,note_on,,,,,192,0,3,,,,,2,,,71,90
299904,note_on,,,,,192,0,2,,,,,1,,,71,93
299904,note_on,,,,,192,0,4,,,,,3,,,59,90
299904,note_on,,,,,192,0,1,,,,,0,,,71,109
300032,note_off,,,,,128,0,2,,,,,1,,,71,0
300032,note_on,,,,,0,0,2,,,,,1,,,69,93
300032,note_on,,,,,0,0,1,,,,,0,,,69,109
300032,note_off,,,,,128,0,1,,,,,0,,,71,0
300032,note_off,,,,,128,0,4,,,,,3,,,59,0
300032,note_on,,,,,0,0,4,,,,,3,,,57,90
300032,note_off,,,,,128,0,3,,,,,2,,,71,0
300032,note_on,,,,,0,0,3,,,,,2,,,69,90
300160,note_off,,,,,128,0,3,,,,,2,,,69,0
300160,note_on,,,,,0,0,3,,,,,2,,,71,90
300160,note_off,,,,,128,0,2,,,,,1,,,69,0
300160,note_on,,,,,0,0,2,,,,,1,,,71,93
300160,note_on,,,,,0,0,1,,,,,0,,,71,109
300160,note_off,,,,,128,0,1,,,,,0,,,69,0
300160,note_off,,,,,128,0,4,,,,,3,,,57,0
300160,note_on,,,,,0,0,4,,,,,3,,,59,90
300288,note_off,,,,,128,0,3,,,,,2,,,71,0
300288,note_off,,,,,128,0,2,,,,,1,,,71,0
300288,note_on,,,,,0,0,2,,,,,1,,,72,93
300288,note_on,,,,,0,0,3,,,,,2,,,72,90
300288,note_on,,,,,0,0,4,,,,,3,,,60,90
300288,note_off,,,,,128,0,4,,,,,3,,,59,0
300288,note_off,,,,,128,0,1,,,,,0,,,71,0
300288,note_on,,,,,0,0,1,,,,,0,,,72,109
300480,note_off,,,,,192,0,2,,,,,1,,,72,0
300480,note_off,,,,,192,0,3,,,,,2,,,72,0
300480,note_off,,,,,192,0,1,,,,,0,,,72,0
300480,note_off,,,,,192,0,4,,,,,3,,,60,0
300672,note_on,,,,,192,0,1,,,,,0,,,66,109
300672,note_on,,,,,192,0,4,,,,,3,,,54,90
300672,note_on,,,,,192,0,2,,,,,1,,,66,93
300672,note_on,,,,,192,0,3,,,,,2,,,66,90
300800,note_on,,,,,0,0,2,,,,,1,,,67,93
300800,note_off,,,,,128,0,2,,,,,1,,,66,0
300800,note_off,,,,,128,0,3,,,,,2,,,66,0
300800,note_on,,,,,0,0,1,,,,,0,,,67,109
300800,note_off,,,,,128,0,1,,,,,0,,,66,0
300800,note_on,,,,,0,0,3,,,,,2,,,67,90
300800,note_on,,,,,0,0,4,,,,,3,,,55,90
300800,note_off,,,,,128,0,4,,,,,3,,,54,0
300928,note_on,,,,,0,0,3,,,,,2,,,66,90
300928,note_off,,,,,128,0,4,,,,,3,,,55,0
300928,note_off,,,,,128,0,3,,,,,2,,,67,0
300928,note_on,,,,,0,0,4,,,,,3,,,54,90
300928,note_on,,,,,0,0,1,,,,,0,,,66,109
300928,note_off,,,,,128,0,1,,,,,0,,,67,0
300928,note_on,,,,,0,0,2,,,,,1,,,66,93
300928,note_off,,,,,128,0,2,,,,,1,,,67,0
301056,note_on,,,,,0,0,4,,,,,3,,,43,90
301056,note_on,,,,,0,0,2,,,,,1,,,67,93
301056,note_on,,,,,0,0,2,,,,,1,,,55,93
301056,note_off,,,,,128,0,1,,,,,0,,,66,0
301056,note_on,,,,,0,0,1,,,,,0,,,55,109
301056,note_on,,,,,0,0,1,,,,,0,,,67,109
301056,note_on,,,,,0,0,3,,,,,2,,,67,90
301056,note_on,,,,,0,0,3,,,,,2,,,55,90
301056,note_off,,,,,128,0,3,,,,,2,,,66,0
301056,note_on,,,,,0,0,4,,,,,3,,,55,90
301056,note_off,,,,,128,0,2,,,,,1,,,66,0
301056,note_off,,,,,128,0,4,,,,,3,,,54,0
302208,note_off,,,,,0,0,2,,,,,1,,,67,0
302208,note_on,,,,,0,0,2,,,,,1,,,62,93
302208,note_off,,,,,0,0,3,,,,,2,,,67,0
302208,note_off,,,,,1152,0,3,,,,,2,,,55,0
302208,note_on,,,,,0,0,3,,,,,2,,,62,90
302208,note_off,,,,,1152,0,2,,,,,1,,,55,0
302208,note_off,,,,,0,0,4,,,,,3,,,55,0
302208,note_on,,,,,0,0,4,,,,,3,,,50,90
302208,note_off,,,,,1152,0,4,,,,,3,,,43,0
302208,note_off,,,,,1152,0,1,,,,,0,,,55,0
302208,note_off,,,,,0,0,1,,,,,0,,,67,0
302208,note_on,,,,,0,0,1,,,,,0,,,62,109
302336,note_on,,,,,0,0,3,,,,,2,,,60,90
302336,note_on,,,,,0,0,2,,,,,1,,,60,93
302336,note_off,,,,,128,0,3,,,,,2,,,62,0
302336,note_on,,,,,0,0,1,,,,,0,,,60,109
302336,note_off,,,,,128,0,4,,,,,3,,,50,0
302336,note_off,,,,,128,0,1,,,,,0,,,62,0
302336,note_on,,,,,0,0,4,,,,,3,,,48,90
302336,note_off,,,,,128,0,2,,,,,1,,,62,0
302464,note_off,,,,,128,0,3,,,,,2,,,60,0
302464,note_on,,,,,0,0,3,,,,,2,,,62,90
302464,note_off,,,,,128,0,1,,,,,0,,,60,0
302464,note_on,,,,,0,0,4,,,,,3,,,50,90
302464,note_on,,,,,0,0,1,,,,,0,,,62,109
302464,note_on,,,,,0,0,2,,,,,1,,,62,93
302464,note_off,,,,,128,0,2,,,,,1,,,60,0
302464,note_off,,,,,128,0,4,,,,,3,,,48,0
302592,note_on,,,,,0,0,1,,,,,0,,,63,109
302592,note_on,,,,,0,0,3,,,,,2,,,63,90
302592,note_on,,,,,0,0,2,,,,,1,,,63,93
302592,note_off,,,,,128,0,2,,,,,1,,,62,0
302592,note_off,,,,,128,0,3,,,,,2,,,62,0
302592,note_off,,,,,128,0,1,,,,,0,,,62,0
302592,note_off,,,,,128,0,4,,,,,3,,,50,0
302592,note_on,,,,,0,0,4,,,,,3,,,51,90
302784,note_off,,,,,192,0,4,,,,,3,,,51,0
302784,note_off,,,,,192,0,3,,,,,2,,,63,0
302784,note_off,,,,,192,0,2,,,,,1,,,63,0
302784,note_off,,,,,192,0,1,,,,,0,,,63,0
302976,note_on,,,,,192,0,4,,,,,3,,,47,90
302976,note_on,,,,,192,0,1,,,,,0,,,59,109
302976,note_on,,,,,192,0,2,,,,,1,,,59,93
302976,note_on,,,,,192,0,3,,,,,2,,,59,90
303104,note_off,,,,,128,0,2,,,,,1,,,59,0
303104,note_off,,,,,128,0,1,,,,,0,,,59,0
303104,note_on,,,,,0,0,2,,,,,1,,,57,93
303104,note_off,,,,,128,0,3,,,,,2,,,59,0
303104,note_on,,,,,0,0,3,,,,,2,,,57,90
303104,note_on,,,,,0,0,1,,,,,0,,,57,109
303104,note_on,,,,,0,0,4,,,,,3,,,45,90
303104,note_off,,,,,128,0,4,,,,,3,,,47,0
303232,note_on,,,,,0,0,3,,,,,2,,,59,90
303232,note_on,,,,,0,0,4,,,,,3,,,47,90
303232,note_off,,,,,128,0,4,,,,,3,,,45,0
303232,note_off,,,,,128,0,3,,,,,2,,,57,0
303232,note_on,,,,,0,0,1,,,,,0,,,59,109
303232,note_off,,,,,128,0,1,,,,,0,,,57,0
303232,note_on,,,,,0,0,2,,,,,1,,,59,93
303232,note_off,,,,,128,0,2,,,,,1,,,57,0
303360,note_off,,,,,128,0,3,,,,,2,,,59,0
303360,note_off,,,,,128,0,4,,,,,3,,,47,0
303360,note_on,,,,,0,0,4,,,,,3,,,48,90
303360,note_on,,,,,0,0,1,,,,,0,,,60,109
303360,note_off,,,,,128,0,1,,,,,0,,,59,0
303360,note_off,,,,,128,0,2,,,,,1,,,59,0
303360,note_on,,,,,0,0,2,,,,,1,,,60,93
303360,note_on,,,,,0,0,3,,,,,2,,,60,90
303552,note_off,,,,,192,0,1,,,,,0,,,60,0
303552,note_off,,,,,192,0,4,,,,,3,,,48,0
303552,note_off,,,,,192,0,3,,,,,2,,,60,0
303552,note_off,,,,,192,0,2,,,,,1,,,60,0
303744,note_on,,,,,192,0,4,,,,,3,,,42,90
303744,note_on,,,,,192,0,3,,,,,2,,,54,90
303744,note_on,,,,,192,0,1,,,,,0,,,63,109
303744,note_on,,,,,192,0,2,,,,,1,,,60,93
303872,note_on,,,,,0,0,3,,,,,2,,,55,90
303872,note_off,,,,,128,0,3,,,,,2,,,54,0
303872,note_on,,,,,0,0,4,,,,,3,,,43,90
303872,note_off,,,,,128,0,4,,,,,3,,,42,0
304000,note_off,,,,,128,0,4,,,,,3,,,43,0
304000,note_on,,,,,0,0,3,,,,,2,,,54,90
304000,note_off,,,,,128,0,3,,,,,2,,,55,0
304000,note_on,,,,,0,0,4,,,,,3,,,42,90
304128,note_on,,,,,0,0,4,,,,,3,,,43,90
304128,note_off,,,,,128,0,4,,,,,3,,,42,0
304128,note_on,,,,,0,0,2,,,,,1,,,59,93
304128,note_off,,,,,384,0,2,,,,,1,,,60,0
304128,note_off,,,,,128,0,3,,,,,2,,,54,0
304128,note_on,,,,,0,0,3,,,,,2,,,55,90
304128,note_off,,,,,384,0,1,,,,,0,,,63,0
304128,note_on,,,,,0,0,1,,,,,0,,,62,109
304320,note_off,,,,,192,0,3,,,,,2,,,55,0
304512,note_off,,,,,384,0,2,,,,,1,,,59,0
304512,note_off,,,,,384,0,4,,,,,3,,,43,0
304512,note_off,,,,,384,0,1,,,,,0,,,62,0
304896,note_on,,,,,0,0,1,,,,,0,,,79,109
304896,note_on,,,,,0,0,1,,,,,0,,,71,109
304896,note_on,,,,,0,0,1,,,,,0,,,62,109
304896,note_on,,,,,384,0,1,,,,,0,,,55,109
304896,note_on,,,,,0,0,2,,,,,1,,,62,93
304896,note_on,,,,,576,0,3,,,,,2,,,55,90
304896,note_on,,,,,0,0,4,,,,,3,,,55,90
304896,note_on,,,,,0,0,2,,,,,1,,,79,93
304896,note_on,,,,,0,0,2,,,,,1,,,71,93
304896,note_on,,,,,384,0,2,,,,,1,,,55,93
304896,note_on,,,,,384,0,4,,,,,3,,,43,90
304896,note_on,,,,,0,0,3,,,,,2,,,67,90
305280,note_off,,,,,0,0,4,,,,,3,,,55,0
305280,note_off,,,,,384,0,4,,,,,3,,,43,0
305280,note_off,,,,,0,0,1,,,,,0,,,62,0
305280,note_off,,,,,0,0,3,,,,,2,,,67,0
305280,note_off,,,,,384,0,3,,,,,2,,,55,0
305280,note_off,,,,,0,0,1,,,,,0,,,79,0
305280,note_off,,,,,384,0,2,,,,,1,,,55,0
305280,note_off,,,,,0,0,2,,,,,1,,,62,0
305280,note_off,,,,,0,0,2,,,,,1,,,71,0
305280,note_off,,,,,0,0,2,,,,,1,,,79,0
305280,note_off,,,,,0,0,1,,,,,0,,,71,0
305280,note_off,,,,,384,0,1,,,,,0,,,55,0
307200,note_on,,,,,1920,0,2,,,,,1,,,55,93
307200,note_on,,,,,1920,0,4,,,,,3,,,51,90
307200,note_on,,,,,1920,0,3,,,,,2,,,51,90
307200,note_on,,,,,1920,0,1,,,,,0,,,63,109
307328,note_on,,,,,0,0,1,,,,,0,,,58,109
307328,note_off,,,,,128,0,2,,,,,1,,,55,0
307328,note_on,,,,,0,0,2,,,,,1,,,55,93
307328,note_off,,,,,128,0,1,,,,,0,,,63,0
307456,note_off,,,,,128,0,2,,,,,1,,,55,0
307456,note_on,,,,,0,0,2,,,,,1,,,55,93
307456,note_on,,,,,0,0,1,,,,,0,,,58,109
307456,note_off,,,,,128,0,1,,,,,0,,,58,0
307584,note_off,,,,,384,0,4,,,,,3,,,51,0
307584,note_off,,,,,384,0,3,,,,,2,,,51,0
307584,note_off,,,,,128,0,2,,,,,1,,,55,0
307584,note_on,,,,,0,0,2,,,,,1,,,55,93
307584,note_off,,,,,128,0,1,,,,,0,,,58,0
307584,note_on,,,,,0,0,1,,,,,0,,,58,109
307712,note_on,,,,,0,0,1,,,,,0,,,58,109
307712,note_off,,,,,128,0,1,,,,,0,,,58,0
307712,note_on,,,,,0,0,2,,,,,1,,,55,93
307712,note_off,,,,,128,0,2,,,,,1,,,55,0
307840,note_on,,,,,0,0,1,,,,,0,,,58,109
307840,note_off,,,,,128,0,1,,,,,0,,,58,0
307840,note_off,,,,,128,0,2,,,,,1,,,55,0
307840,note_on,,,,,0,0,2,,,,,1,,,55,93
307968,note_on,,,,,0,0,1,,,,,0,,,58,109
307968,note_off,,,,,128,0,2,,,,,1,,,55,0
307968,note_off,,,,,128,0,1,,,,,0,,,58,0
307968,note_on,,,,,0,0,2,,,,,1,,,55,93
308096,note_off,,,,,128,0,1,,,,,0,,,58,0
308096,note_on,,,,,0,0,1,,,,,0,,,58,109
308096,note_on,,,,,0,0,2,,,,,1,,,55,93
308096,note_off,,,,,128,0,2,,,,,1,,,55,0
308224,note_on,,,,,0,0,2,,,,,1,,,55,93
308224,note_off,,,,,128,0,1,,,,,0,,,58,0
308224,note_on,,,,,0,0,1,,,,,0,,,58,109
308224,note_off,,,,,128,0,2,,,,,1,,,55,0
308352,note_off,,,,,128,0,2,,,,,1,,,55,0
308352,note_on,,,,,0,0,2,,,,,1,,,55,93
308352,note_on,,,,,768,0,3,,,,,2,,,64,90
308352,note_off,,,,,128,0,1,,,,,0,,,58,0
308352,note_on,,,,,0,0,1,,,,,0,,,58,109
308480,note_off,,,,,128,0,3,,,,,2,,,64,0
308480,note_on,,,,,0,0,2,,,,,1,,,55,93
308480,note_on,,,,,0,0,3,,,,,2,,,62,90
308480,note_off,,,,,128,0,2,,,,,1,,,55,0
308480,note_on,,,,,0,0,1,,,,,0,,,58,109
308480,note_off,,,,,128,0,1,,,,,0,,,58,0
308608,note_off,,,,,128,0,1,,,,,0,,,58,0
308608,note_off,,,,,128,0,3,,,,,2,,,62,0
308608,note_on,,,,,0,0,3,,,,,2,,,64,90
308608,note_on,,,,,0,0,1,,,,,0,,,58,109
308608,note_off,,,,,128,0,2,,,,,1,,,55,0
308608,note_on,,,,,0,0,2,,,,,1,,,55,93
308736,note_on,,,,,0,0,2,,,,,1,,,56,93
308736,note_on,,,,,0,0,3,,,,,2,,,65,90
308736,note_off,,,,,128,0,2,,,,,1,,,55,0
308736,note_off,,,,,128,0,3,,,,,2,,,64,0
308736,note_off,,,,,128,0,1,,,,,0,,,58,0
308736,note_on,,,,,0,0,1,,,,,0,,,58,109
308864,note_on,,,,,0,0,1,,,,,0,,,58,109
308864,note_on,,,,,0,0,2,,,,,1,,,56,93
308864,note_off,,,,,128,0,2,,,,,1,,,56,0
308864,note_off,,,,,128,0,1,,,,,0,,,58,0
308928,note_off,,,,,192,0,3,,,,,2,,,65,0
308992,note_off,,,,,128,0,1,,,,,0,,,58,0
308992,note_on,,,,,0,0,1,,,,,0,,,58,109
308992,note_on,,,,,0,0,2,,,,,1,,,56,93
308992,note_off,,,,,128,0,2,,,,,1,,,56,0
309120,note_on,,,,,192,0,3,,,,,2,,,62,90
309120,note_on,,,,,0,0,2,,,,,1,,,56,93
309120,note_on,,,,,0,0,1,,,,,0,,,58,109
309120,note_off,,,,,128,0,1,,,,,0,,,58,0
309120,note_off,,,,,128,0,2,,,,,1,,,56,0
309248,note_off,,,,,128,0,2,,,,,1,,,56,0
309248,note_on,,,,,0,0,2,,,,,1,,,56,93
309248,note_off,,,,,128,0,1,,,,,0,,,58,0
309248,note_on,,,,,0,0,1,,,,,0,,,58,109
309312,note_off,,,,,192,0,3,,,,,2,,,62,0
309376,note_on,,,,,0,0,1,,,,,0,,,58,109
309376,note_on,,,,,0,0,2,,,,,1,,,56,93
309376,note_off,,,,,128,0,1,,,,,0,,,58,0
309376,note_off,,,,,128,0,2,,,,,1,,,56,0
309504,note_off,,,,,128,0,2,,,,,1,,,56,0
309504,note_on,,,,,0,0,2,,,,,1,,,56,93
309504,note_off,,,,,128,0,1,,,,,0,,,58,0
309504,note_on,,,,,192,0,3,,,,,2,,,58,90
309504,note_on,,,,,0,0,1,,,,,0,,,58,109
309632,note_off,,,,,128,0,1,,,,,0,,,58,0
309632,note_on,,,,,0,0,2,,,,,1,,,56,93
309632,note_off,,,,,128,0,2,,,,,1,,,56,0
309632,note_on,,,,,0,0,1,,,,,0,,,58,109
309696,note_off,,,,,192,0,3,,,,,2,,,58,0
309760,note_off,,,,,128,0,2,,,,,1,,,56,0
309760,note_off,,,,,128,0,1,,,,,0,,,58,0
309760,note_on,,,,,0,0,2,,,,,1,,,56,93
309760,note_on,,,,,0,0,1,,,,,0,,,58,109
309888,note_off,,,,,128,0,2,,,,,1,,,56,0
309888,note_on,,,,,0,0,2,,,,,1,,,56,93
309888,note_on,,,,,2304,0,4,,,,,3,,,53,90
309888,note_on,,,,,0,0,1,,,,,0,,,58,109
309888,note_off,,,,,128,0,1,,,,,0,,,58,0
310016,note_on,,,,,0,0,1,,,,,0,,,58,109
310016,note_on,,,,,0,0,2,,,,,1,,,56,93
310016,note_off,,,,,128,0,2,,,,,1,,,56,0
310016,note_on,,,,,0,0,4,,,,,3,,,51,90
310016,note_off,,,,,128,0,4,,,,,3,,,53,0
310016,note_off,,,,,128,0,1,,,,,0,,,58,0
310144,note_on,,,,,0,0,4,,,,,3,,,50,90
310144,note_off,,,,,128,0,4,,,,,3,,,51,0
310144,note_on,,,,,0,0,2,,,,,1,,,56,93
310144,note_off,,,,,128,0,2,,,,,1,,,56,0
310144,note_on,,,,,0,0,1,,,,,0,,,58,109
310144,note_off,,,,,128,0,1,,,,,0,,,58,0
310272,note_on,,,,,576,0,3,,,,,2,,,51,90
310272,note_off,,,,,128,0,4,,,,,3,,,50,0
310272,note_on,,,,,0,0,4,,,,,3,,,51,90
310272,note_off,,,,,128,0,1,,,,,0,,,58,0
310272,note_on,,,,,0,0,1,,,,,0,,,58,109
310272,note_on,,,,,0,0,2,,,,,1,,,55,93
310272,note_off,,,,,128,0,2,,,,,1,,,56,0
310400,note_on,,,,,0,0,2,,,,,1,,,55,93
310400,note_off,,,,,128,0,2,,,,,1,,,55,0
310400,note_off,,,,,128,0,1,,,,,0,,,58,0
310400,note_on,,,,,0,0,1,,,,,0,,,58,109
310464,note_off,,,,,192,0,4,,,,,3,,,51,0
310464,note_off,,,,,192,0,3,,,,,2,,,51,0
310528,note_off,,,,,128,0,2,,,,,1,,,55,0
310528,note_off,,,,,128,0,1,,,,,0,,,58,0
310528,note_on,,,,,0,0,1,,,,,0,,,58,109
310528,note_on,,,,,0,0,2,,,,,1,,,55,93
310656,note_off,,,,,128,0,1,,,,,0,,,58,0
310656,note_on,,,,,0,0,1,,,,,0,,,58,109
310656,note_on,,,,,192,0,4,,,,,3,,,55,90
310656,note_off,,,,,128,0,2,,,,,1,,,55,0
310656,note_on,,,,,0,0,2,,,,,1,,,55,93
310784,note_on,,,,,0,0,1,,,,,0,,,58,109
310784,note_off,,,,,128,0,2,,,,,1,,,55,0
310784,note_on,,,,,0,0,2,,,,,1,,,55,93
310784,note_off,,,,,128,0,1,,,,,0,,,58,0
310848,note_off,,,,,192,0,4,,,,,3,,,55,0
310912,note_on,,,,,0,0,1,,,,,0,,,58,109
310912,note_off,,,,,128,0,1,,,,,0,,,58,0
310912,note_off,,,,,128,0,2,,,,,1,,,55,0
310912,note_on,,,,,0,0,2,,,,,1,,,55,93
311040,note_on,,,,,0,0,2,,,,,1,,,55,93
311040,note_off,,,,,128,0,1,,,,,0,,,58,0
311040,note_off,,,,,128,0,2,,,,,1,,,55,0
311040,note_on,,,,,192,0,4,,,,,3,,,58,90
311040,note_on,,,,,0,0,1,,,,,0,,,58,109
311168,note_off,,,,,128,0,2,,,,,1,,,55,0
311168,note_on,,,,,0,0,2,,,,,1,,,55,93
311168,note_on,,,,,0,0,1,,,,,0,,,58,109
311168,note_off,,,,,128,0,1,,,,,0,,,58,0
311232,note_off,,,,,192,0,4,,,,,3,,,58,0
311296,note_off,,,,,128,0,2,,,,,1,,,55,0
311296,note_on,,,,,0,0,2,,,,,1,,,55,93
311296,note_off,,,,,128,0,1,,,,,0,,,58,0
311296,note_on,,,,,0,0,1,,,,,0,,,58,109
311424,note_on,,,,,0,0,1,,,,,0,,,58,109
311424,note_off,,,,,128,0,1,,,,,0,,,58,0
311424,note_off,,,,,128,0,2,,,,,1,,,55,0
311424,note_on,,,,,0,0,2,,,,,1,,,55,93
311424,note_on,,,,,960,0,3,,,,,2,,,64,90
311552,note_off,,,,,128,0,1,,,,,0,,,58,0
311552,note_off,,,,,128,0,2,,,,,1,,,55,0
311552,note_off,,,,,128,0,3,,,,,2,,,64,0
311552,note_on,,,,,0,0,2,,,,,1,,,55,93
311552,note_on,,,,,0,0,1,,,,,0,,,58,109
311552,note_on,,,,,0,0,3,,,,,2,,,62,90
311680,note_on,,,,,0,0,2,,,,,1,,,55,93
311680,note_on,,,,,0,0,1,,,,,0,,,58,109
311680,note_off,,,,,128,0,1,,,,,0,,,58,0
311680,note_off,,,,,128,0,2,,,,,1,,,55,0
311680,note_on,,,,,0,0,3,,,,,2,,,64,90
311680,note_off,,,,,128,0,3,,,,,2,,,62,0
311808,note_on,,,,,0,0,1,,,,,0,,,58,109
311808,note_off,,,,,128,0,1,,,,,0,,,58,0
311808,note_on,,,,,0,0,2,,,,,1,,,56,93
311808,note_on,,,,,0,0,3,,,,,2,,,65,90
311808,note_off,,,,,128,0,3,,,,,2,,,64,0
311808,note_off,,,,,128,0,2,,,,,1,,,55,0
311936,note_off,,,,,128,0,1,,,,,0,,,58,0
311936,note_on,,,,,0,0,1,,,,,0,,,58,109
311936,note_off,,,,,128,0,2,,,,,1,,,56,0
311936,note_on,,,,,0,0,2,,,,,1,,,56,93
312000,note_off,,,,,192,0,3,,,,,2,,,65,0
312064,note_off,,,,,128,0,2,,,,,1,,,56,0
312064,note_off,,,,,128,0,1,,,,,0,,,58,0
312064,note_on,,,,,0,0,1,,,,,0,,,58,109
312064,note_on,,,,,0,0,2,,,,,1,,,56,93
312192,note_on,,,,,192,0,3,,,,,2,,,62,90
312192,note_on,,,,,0,0,1,,,,,0,,,58,109
312192,note_off,,,,,128,0,1,,,,,0,,,58,0
312192,note_on,,,,,0,0,2,,,,,1,,,56,93
312192,note_off,,,,,128,0,2,,,,,1,,,56,0
312320,note_on,,,,,0,0,1,,,,,0,,,58,109
312320,note_off,,,,,128,0,1,,,,,0,,,58,0
312320,note_off,,,,,128,0,2,,,,,1,,,56,0
312320,note_on,,,,,0,0,2,,,,,1,,,56,93
312384,note_off,,,,,192,0,3,,,,,2,,,62,0
312448,note_off,,,,,128,0,2,,,,,1,,,56,0
312448,note_on,,,,,0,0,2,,,,,1,,,56,93
312448,note_on,,,,,0,0,1,,,,,0,,,58,109
312448,note_off,,,,,128,0,1,,,,,0,,,58,0
312576,note_off,,,,,128,0,1,,,,,0,,,58,0
312576,note_on,,,,,0,0,1,,,,,0,,,58,109
312576,note_on,,,,,192,0,3,,,,,2,,,58,90
312576,note_off,,,,,128,0,2,,,,,1,,,56,0
312576,note_on,,,,,0,0,2,,,,,1,,,56,93
312704,note_off,,,,,128,0,1,,,,,0,,,58,0
312704,note_on,,,,,0,0,1,,,,,0,,,58,109
312704,note_on,,,,,0,0,2,,,,,1,,,56,93
312704,note_off,,,,,128,0,2,,,,,1,,,56,0
312768,note_off,,,,,192,0,3,,,,,2,,,58,0
312832,note_off,,,,,128,0,2,,,,,1,,,56,0
312832,note_on,,,,,0,0,1,,,,,0,,,58,109
312832,note_off,,,,,128,0,1,,,,,0,,,58,0
312832,note_on,,,,,0,0,2,,,,,1,,,56,93
312960,note_on,,,,,1728,0,4,,,,,3,,,43,90
312960,note_off,,,,,128,0,2,,,,,1,,,56,0
312960,note_on,,,,,192,0,3,,,,,2,,,53,90
312960,note_off,,,,,128,0,1,,,,,0,,,58,0
312960,note_on,,,,,0,0,1,,,,,0,,,59,109
312960,note_on,,,,,0,0,2,,,,,1,,,55,93
313088,note_on,,,,,0,0,4,,,,,3,,,44,90
313088,note_off,,,,,128,0,4,,,,,3,,,43,0
313088,note_off,,,,,128,0,2,,,,,1,,,55,0
313088,note_on,,,,,0,0,2,,,,,1,,,55,93
313088,note_on,,,,,0,0,1,,,,,0,,,59,109
313088,note_off,,,,,128,0,1,,,,,0,,,59,0
313216,note_on,,,,,0,0,4,,,,,3,,,43,90
313216,note_on,,,,,0,0,1,,,,,0,,,59,109
313216,note_off,,,,,128,0,1,,,,,0,,,59,0
313216,note_off,,,,,128,0,4,,,,,3,,,44,0
313216,note_on,,,,,0,0,2,,,,,1,,,55,93
313216,note_off,,,,,128,0,2,,,,,1,,,55,0
313344,note_off,,,,,384,0,3,,,,,2,,,53,0
313344,note_on,,,,,0,0,2,,,,,1,,,60,93
313344,note_off,,,,,128,0,2,,,,,1,,,55,0
313344,note_on,,,,,0,0,3,,,,,2,,,51,90
313344,note_off,,,,,128,0,4,,,,,3,,,43,0
313344,note_on,,,,,0,0,4,,,,,3,,,48,90
313344,note_off,,,,,128,0,1,,,,,0,,,59,0
313344,note_on,,,,,0,0,1,,,,,0,,,60,109
313472,note_off,,,,,128,0,2,,,,,1,,,60,0
313472,note_on,,,,,0,0,2,,,,,1,,,63,93
313472,note_off,,,,,128,0,1,,,,,0,,,60,0
313472,note_on,,,,,0,0,1,,,,,0,,,67,109
313536,note_off,,,,,192,0,4,,,,,3,,,48,0
313600,note_on,,,,,0,0,1,,,,,0,,,67,109
313600,note_off,,,,,128,0,2,,,,,1,,,63,0
313600,note_off,,,,,128,0,1,,,,,0,,,67,0
313600,note_on,,,,,0,0,2,,,,,1,,,63,93
313728,note_on,,,,,0,0,1,,,,,0,,,67,109
313728,note_off,,,,,384,0,3,,,,,2,,,51,0
313728,note_off,,,,,128,0,2,,,,,1,,,63,0
313728,note_on,,,,,192,0,4,,,,,3,,,51,90
313728,note_off,,,,,128,0,1,,,,,0,,,67,0
313728,note_on,,,,,0,0,2,,,,,1,,,63,93
313856,note_off,,,,,128,0,2,,,,,1,,,63,0
313856,note_off,,,,,128,0,1,,,,,0,,,67,0
313856,note_on,,,,,0,0,2,,,,,1,,,63,93
313856,note_on,,,,,0,0,1,,,,,0,,,67,109
313920,note_off,,,,,192,0,4,,,,,3,,,51,0
313984,note_off,,,,,128,0,2,,,,,1,,,63,0
313984,note_on,,,,,0,0,2,,,,,1,,,63,93
313984,note_off,,,,,128,0,1,,,,,0,,,67,0
313984,note_on,,,,,0,0,1,,,,,0,,,67,109
314112,note_on,,,,,192,0,4,,,,,3,,,55,90
314112,note_off,,,,,128,0,1,,,,,0,,,67,0
314112,note_off,,,,,128,0,2,,,,,1,,,63,0
314112,note_on,,,,,0,0,2,,,,,1,,,63,93
314112,note_on,,,,,0,0,1,,,,,0,,,67,109
314240,note_on,,,,,0,0,1,,,,,0,,,67,109
314240,note_off,,,,,128,0,1,,,,,0,,,67,0
314240,note_off,,,,,128,0,2,,,,,1,,,63,0
314240,note_on,,,,,0,0,2,,,,,1,,,63,93
314304,note_off,,,,,192,0,4,,,,,3,,,55,0
314368,note_on,,,,,0,0,2,,,,,1,,,63,93
314368,note_off,,,,,128,0,2,,,,,1,,,63,0
314368,note_off,,,,,128,0,1,,,,,0,,,67,0
314368,note_on,,,,,0,0,1,,,,,0,,,67,109
314496,note_on,,,,,0,0,2,,,,,1,,,63,93
314496,note_on,,,,,768,0,3,,,,,2,,,60,90
314496,note_off,,,,,128,0,1,,,,,0,,,67,0
314496,note_off,,,,,128,0,2,,,,,1,,,63,0
314496,note_on,,,,,0,0,1,,,,,0,,,67,109
314624,note_off,,,,,128,0,3,,,,,2,,,60,0
314624,note_on,,,,,0,0,1,,,,,0,,,67,109
314624,note_off,,,,,128,0,2,,,,,1,,,63,0
314624,note_on,,,,,0,0,3,,,,,2,,,59,90
314624,note_off,,,,,128,0,1,,,,,0,,,67,0
314624,note_on,,,,,0,0,2,,,,,1,,,63,93
314752,note_off,,,,,128,0,1,,,,,0,,,67,0
314752,note_on,,,,,0,0,1,,,,,0,,,67,109
314752,note_on,,,,,0,0,2,,,,,1,,,63,93
314752,note_off,,,,,128,0,2,,,,,1,,,63,0
314752,note_on,,,,,0,0,3,,,,,2,,,60,90
314752,note_off,,,,,128,0,3,,,,,2,,,59,0
314880,note_on,,,,,0,0,2,,,,,1,,,65,93
314880,note_off,,,,,128,0,2,,,,,1,,,63,0
314880,note_on,,,,,0,0,3,,,,,2,,,62,90
314880,note_off,,,,,128,0,1,,,,,0,,,67,0
314880,note_on,,,,,0,0,1,,,,,0,,,67,109
314880,note_off,,,,,128,0,3,,,,,2,,,60,0
315008,note_off,,,,,128,0,2,,,,,1,,,65,0
315008,note_off,,,,,128,0,1,,,,,0,,,67,0
315008,note_on,,,,,0,0,1,,,,,0,,,67,109
315008,note_on,,,,,0,0,2,,,,,1,,,65,93
315072,note_off,,,,,192,0,3,,,,,2,,,62,0
315136,note_off,,,,,128,0,1,,,,,0,,,67,0
315136,note_on,,,,,0,0,1,,,,,0,,,67,109
315136,note_off,,,,,128,0,2,,,,,1,,,65,0
315136,note_on,,,,,0,0,2,,,,,1,,,65,93
315264,note_off,,,,,128,0,1,,,,,0,,,67,0
315264,note_off,,,,,128,0,2,,,,,1,,,65,0
315264,note_on,,,,,192,0,3,,,,,2,,,59,90
315264,note_on,,,,,0,0,2,,,,,1,,,65,93
315264,note_on,,,,,0,0,1,,,,,0,,,67,109
315392,note_on,,,,,0,0,1,,,,,0,,,67,109
315392,note_on,,,,,0,0,2,,,,,1,,,65,93
315392,note_off,,,,,128,0,2,,,,,1,,,65,0
315392,note_off,,,,,128,0,1,,,,,0,,,67,0
315456,note_off,,,,,192,0,3,,,,,2,,,59,0
315520,note_on,,,,,0,0,1,,,,,0,,,67,109
315520,note_on,,,,,0,0,2,,,,,1,,,65,93
315520,note_off,,,,,128,0,2,,,,,1,,,65,0
315520,note_off,,,,,128,0,1,,,,,0,,,67,0
315648,note_on,,,,,192,0,3,,,,,2,,,55,90
315648,note_on,,,,,0,0,2,,,,,1,,,65,93
315648,note_off,,,,,128,0,2,,,,,1,,,65,0
315648,note_on,,,,,0,0,1,,,,,0,,,67,109
315648,note_off,,,,,128,0,1,,,,,0,,,67,0
315776,note_on,,,,,0,0,1,,,,,0,,,67,109
315776,note_off,,,,,128,0,1,,,,,0,,,67,0
315776,note_off,,,,,128,0,2,,,,,1,,,65,0
315776,note_on,,,,,0,0,2,,,,,1,,,65,93
315840,note_off,,,,,192,0,3,,,,,2,,,55,0
315904,note_off,,,,,128,0,1,,,,,0,,,67,0
315904,note_on,,,,,0,0,1,,,,,0,,,67,109
315904,note_on,,,,,0,0,2,,,,,1,,,65,93
315904,note_off,,,,,128,0,2,,,,,1,,,65,0
316032,note_on,,,,,0,0,1,,,,,0,,,67,109
316032,note_off,,,,,128,0,1,,,,,0,,,67,0
316032,note_on,,,,,1728,0,4,,,,,3,,,43,90
316032,note_on,,,,,0,0,2,,,,,1,,,65,93
316032,note_off,,,,,128,0,2,,,,,1,,,65,0
316160,note_on,,,,,0,0,1,,,,,0,,,67,109
316160,note_off,,,,,128,0,4,,,,,3,,,43,0
316160,note_off,,,,,128,0,2,,,,,1,,,65,0
316160,note_on,,,,,0,0,4,,,,,3,,,45,90
316160,note_on,,,,,0,0,2,,,,,1,,,65,93
316160,note_off,,,,,128,0,1,,,,,0,,,67,0
316288,note_off,,,,,128,0,4,,,,,3,,,45,0
316288,note_on,,,,,0,0,4,,,,,3,,,47,90
316288,note_off,,,,,128,0,2,,,,,1,,,65,0
316288,note_off,,,,,128,0,1,,,,,0,,,67,0
316288,note_on,,,,,0,0,2,,,,,1,,,65,93
316288,note_on,,,,,0,0,1,,,,,0,,,67,109
316416,note_on,,,,,0,0,4,,,,,3,,,48,90
316416,note_off,,,,,128,0,4,,,,,3,,,47,0
316416,note_off,,,,,128,0,1,,,,,0,,,67,0
316416,note_on,,,,,0,0,2,,,,,1,,,63,93
316416,note_off,,,,,128,0,2,,,,,1,,,65,0
316416,note_on,,,,,0,0,1,,,,,0,,,67,109
316544,note_off,,,,,128,0,1,,,,,0,,,67,0
316544,note_on,,,,,0,0,1,,,,,0,,,67,109
316544,note_off,,,,,128,0,2,,,,,1,,,63,0
316544,note_on,,,,,0,0,2,,,,,1,,,63,93
316608,note_off,,,,,192,0,4,,,,,3,,,48,0
316672,note_off,,,,,128,0,2,,,,,1,,,63,0
316672,note_on,,,,,0,0,2,,,,,1,,,63,93
316672,note_off,,,,,128,0,1,,,,,0,,,67,0
316672,note_on,,,,,0,0,1,,,,,0,,,67,109
316800,note_on,,,,,0,0,2,,,,,1,,,63,93
316800,note_off,,,,,128,0,2,,,,,1,,,63,0
316800,note_on,,,,,192,0,4,,,,,3,,,51,90
316800,note_off,,,,,128,0,1,,,,,0,,,67,0
316800,note_on,,,,,0,0,1,,,,,0,,,67,109
316928,note_on,,,,,0,0,2,,,,,1,,,63,93
316928,note_off,,,,,128,0,2,,,,,1,,,63,0
316928,note_on,,,,,0,0,1,,,,,0,,,67,109
316928,note_off,,,,,128,0,1,,,,,0,,,67,0
316992,note_off,,,,,192,0,4,,,,,3,,,51,0
317056,note_on,,,,,0,0,1,,,,,0,,,67,109
317056,note_on,,,,,0,0,2,,,,,1,,,63,93
317056,note_off,,,,,128,0,2,,,,,1,,,63,0
317056,note_off,,,,,128,0,1,,,,,0,,,67,0
317184,note_on,,,,,192,0,4,,,,,3,,,55,90
317184,note_on,,,,,0,0,2,,,,,1,,,63,93
317184,note_off,,,,,128,0,2,,,,,1,,,63,0
317184,note_on,,,,,0,0,1,,,,,0,,,67,109
317184,note_off,,,,,128,0,1,,,,,0,,,67,0
317312,note_on,,,,,0,0,1,,,,,0,,,67,109
317312,note_on,,,,,0,0,2,,,,,1,,,63,93
317312,note_off,,,,,128,0,1,,,,,0,,,67,0
317312,note_off,,,,,128,0,2,,,,,1,,,63,0
317376,note_off,,,,,192,0,4,,,,,3,,,55,0
317440,note_on,,,,,0,0,1,,,,,0,,,67,109
317440,note_off,,,,,128,0,2,,,,,1,,,63,0
317440,note_on,,,,,0,0,2,,,,,1,,,63,93
317440,note_off,,,,,128,0,1,,,,,0,,,67,0
317568,note_on,,,,,0,0,1,,,,,0,,,67,109
317568,note_off,,,,,128,0,1,,,,,0,,,67,0
317568,note_on,,,,,1728,0,3,,,,,2,,,60,90
317568,note_off,,,,,128,0,2,,,,,1,,,63,0
317568,note_on,,,,,0,0,2,,,,,1,,,63,93
317696,note_off,,,,,128,0,1,,,,,0,,,67,0
317696,note_on,,,,,0,0,1,,,,,0,,,67,109
317696,note_on,,,,,0,0,2,,,,,1,,,63,93
317696,note_on,,,,,0,0,3,,,,,2,,,59,90
317696,note_off,,,,,128,0,3,,,,,2,,,60,0
317696,note_off,,,,,128,0,2,,,,,1,,,63,0
317824,note_on,,,,,0,0,2,,,,,1,,,63,93
317824,note_on,,,,,0,0,1,,,,,0,,,67,109
317824,note_off,,,,,128,0,1,,,,,0,,,67,0
317824,note_on,,,,,0,0,3,,,,,2,,,60,90
317824,note_off,,,,,128,0,2,,,,,1,,,63,0
317824,note_off,,,,,128,0,3,,,,,2,,,59,0
317952,note_off,,,,,128,0,1,,,,,0,,,67,0
317952,note_off,,,,,128,0,3,,,,,2,,,60,0
317952,note_on,,,,,0,0,3,,,,,2,,,62,90
317952,note_on,,,,,0,0,2,,,,,1,,,65,93
317952,note_on,,,,,0,0,1,,,,,0,,,67,109
317952,note_off,,,,,128,0,2,,,,,1,,,63,0
318080,note_on,,,,,0,0,2,,,,,1,,,65,93
318080,note_off,,,,,128,0,2,,,,,1,,,65,0
318080,note_on,,,,,0,0,1,,,,,0,,,67,109
318080,note_off,,,,,128,0,1,,,,,0,,,67,0
318144,note_off,,,,,192,0,3,,,,,2,,,62,0
318208,note_on,,,,,0,0,2,,,,,1,,,65,93
318208,note_off,,,,,128,0,1,,,,,0,,,67,0
318208,note_on,,,,,0,0,1,,,,,0,,,67,109
318208,note_off,,,,,128,0,2,,,,,1,,,65,0
318336,note_on,,,,,0,0,2,,,,,1,,,65,93
318336,note_off,,,,,128,0,1,,,,,0,,,67,0
318336,note_on,,,,,0,0,1,,,,,0,,,67,109
318336,note_off,,,,,128,0,2,,,,,1,,,65,0
318336,note_on,,,,,192,0,3,,,,,2,,,59,90
318464,note_off,,,,,128,0,1,,,,,0,,,67,0
318464,note_on,,,,,0,0,1,,,,,0,,,67,109
318464,note_off,,,,,128,0,2,,,,,1,,,65,0
318464,note_on,,,,,0,0,2,,,,,1,,,65,93
318528,note_off,,,,,192,0,3,,,,,2,,,59,0
318592,note_off,,,,,128,0,1,,,,,0,,,67,0
318592,note_off,,,,,128,0,2,,,,,1,,,65,0
318592,note_on,,,,,0,0,2,,,,,1,,,65,93
318592,note_on,,,,,0,0,1,,,,,0,,,67,109
318720,note_off,,,,,128,0,1,,,,,0,,,67,0
318720,note_on,,,,,0,0,1,,,,,0,,,67,109
318720,note_off,,,,,128,0,2,,,,,1,,,65,0
318720,note_on,,,,,0,0,2,,,,,1,,,65,93
318720,note_on,,,,,192,0,3,,,,,2,,,55,90
318848,note_off,,,,,128,0,2,,,,,1,,,65,0
318848,note_off,,,,,128,0,1,,,,,0,,,67,0
318848,note_on,,,,,0,0,1,,,,,0,,,67,109
318848,note_on,,,,,0,0,2,,,,,1,,,65,93
318912,note_off,,,,,192,0,3,,,,,2,,,55,0
318976,note_off,,,,,128,0,1,,,,,0,,,67,0
318976,note_on,,,,,0,0,2,,,,,1,,,65,93
318976,note_on,,,,,0,0,1,,,,,0,,,67,109
318976,note_off,,,,,128,0,2,,,,,1,,,65,0
319104,note_on,,,,,1728,0,4,,,,,3,,,51,90
319104,note_on,,,,,0,0,1,,,,,0,,,67,109
319104,note_on,,,,,192,0,3,,,,,2,,,61,90
319104,note_off,,,,,128,0,2,,,,,1,,,65,0
319104,note_on,,,,,0,0,2,,,,,1,,,63,93
319104,note_off,,,,,128,0,1,,,,,0,,,67,0
319232,note_off,,,,,128,0,1,,,,,0,,,67,0
319232,note_on,,,,,0,0,1,,,,,0,,,67,109
319232,note_off,,,,,128,0,2,,,,,1,,,63,0
319232,note_off,,,,,128,0,4,,,,,3,,,51,0
319232,note_on,,,,,0,0,4,,,,,3,,,53,90
319232,note_on,,,,,0,0,2,,,,,1,,,63,93
319360,note_off,,,,,128,0,1,,,,,0,,,67,0
319360,note_off,,,,,128,0,4,,,,,3,,,53,0
319360,note_on,,,,,0,0,4,,,,,3,,,51,90
319360,note_off,,,,,128,0,2,,,,,1,,,63,0
319360,note_on,,,,,0,0,2,,,,,1,,,63,93
319360,note_on,,,,,0,0,1,,,,,0,,,67,109
319488,note_off,,,,,128,0,1,,,,,0,,,67,0
319488,note_off,,,,,384,0,3,,,,,2,,,61,0
319488,note_off,,,,,128,0,2,,,,,1,,,63,0
319488,note_on,,,,,0,0,2,,,,,1,,,63,93
319488,note_on,,,,,0,0,4,,,,,3,,,44,90
319488,note_off,,,,,128,0,4,,,,,3,,,51,0
319488,note_on,,,,,0,0,1,,,,,0,,,68,109
319488,note_on,,,,,0,0,3,,,,,2,,,60,90
319616,note_on,,,,,0,0,2,,,,,1,,,60,93
319616,note_on,,,,,0,0,1,,,,,0,,,63,109
319616,note_off,,,,,128,0,2,,,,,1,,,63,0
319616,note_off,,,,,128,0,1,,,,,0,,,68,0
319680,note_off,,,,,192,0,4,,,,,3,,,44,0
319744,note_off,,,,,128,0,1,,,,,0,,,63,0
319744,note_on,,,,,0,0,2,,,,,1,,,60,93
319744,note_off,,,,,128,0,2,,,,,1,,,60,0
319744,note_on,,,,,0,0,1,,,,,0,,,63,109
319872,note_on,,,,,0,0,2,,,,,1,,,60,93
319872,note_off,,,,,128,0,2,,,,,1,,,60,0
319872,note_on,,,,,192,0,4,,,,,3,,,48,90
319872,note_off,,,,,128,0,1,,,,,0,,,63,0
319872,note_on,,,,,0,0,1,,,,,0,,,63,109
319872,note_off,,,,,384,0,3,,,,,2,,,60,0
320000,note_on,,,,,0,0,2,,,,,1,,,60,93
320000,note_off,,,,,128,0,2,,,,,1,,,60,0
320000,note_off,,,,,128,0,1,,,,,0,,,63,0
320000,note_on,,,,,0,0,1,,,,,0,,,63,109
320064,note_off,,,,,192,0,4,,,,,3,,,48,0
320128,note_on,,,,,0,0,1,,,,,0,,,63,109
320128,note_off,,,,,128,0,2,,,,,1,,,60,0
320128,note_on,,,,,0,0,2,,,,,1,,,60,93
320128,note_off,,,,,128,0,1,,,,,0,,,63,0
320256,note_on,,,,,192,0,4,,,,,3,,,51,90
320256,note_off,,,,,128,0,1,,,,,0,,,63,0
320256,note_off,,,,,128,0,2,,,,,1,,,60,0
320256,note_on,,,,,0,0,2,,,,,1,,,60,93
320256,note_on,,,,,0,0,1,,,,,0,,,63,109
320384,note_on,,,,,0,0,2,,,,,1,,,60,93
320384,note_off,,,,,128,0,2,,,,,1,,,60,0
320384,note_on,,,,,0,0,1,,,,,0,,,63,109
320384,note_off,,,,,128,0,1,,,,,0,,,63,0
320448,note_off,,,,,192,0,4,,,,,3,,,51,0
320512,note_off,,,,,128,0,1,,,,,0,,,63,0
320512,note_on,,,,,0,0,1,,,,,0,,,63,109
320512,note_off,,,,,128,0,2,,,,,1,,,60,0
320512,note_on,,,,,0,0,2,,,,,1,,,60,93
320640,note_off,,,,,128,0,2,,,,,1,,,60,0
320640,note_on,,,,,768,0,3,,,,,2,,,56,90
320640,note_on,,,,,0,0,2,,,,,1,,,60,93
320640,note_off,,,,,128,0,1,,,,,0,,,63,0
320640,note_on,,,,,0,0,1,,,,,0,,,63,109
320768,note_on,,,,,0,0,3,,,,,2,,,55,90
320768,note_off,,,,,128,0,3,,,,,2,,,56,0
320768,note_off,,,,,128,0,2,,,,,1,,,60,0
320768,note_on,,,,,0,0,2,,,,,1,,,60,93
320768,note_off,,,,,128,0,1,,,,,0,,,63,0
320768,note_on,,,,,0,0,1,,,,,0,,,63,109
320896,note_on,,,,,0,0,2,,,,,1,,,60,93
320896,note_off,,,,,128,0,1,,,,,0,,,63,0
320896,note_on,,,,,0,0,1,,,,,0,,,63,109
320896,note_off,,,,,128,0,3,,,,,2,,,55,0
320896,note_on,,,,,0,0,3,,,,,2,,,56,90
320896,note_off,,,,,128,0,2,,,,,1,,,60,0
321024,note_on,,,,,0,0,2,,,,,1,,,61,93
321024,note_off,,,,,128,0,1,,,,,0,,,63,0
321024,note_on,,,,,0,0,1,,,,,0,,,63,109
321024,note_off,,,,,128,0,3,,,,,2,,,56,0
321024,note_on,,,,,0,0,3,,,,,2,,,58,90
321024,note_off,,,,,128,0,2,,,,,1,,,60,0
321152,note_off,,,,,128,0,2,,,,,1,,,61,0
321152,note_on,,,,,0,0,1,,,,,0,,,63,109
321152,note_off,,,,,128,0,1,,,,,0,,,63,0
321152,note_on,,,,,0,0,2,,,,,1,,,61,93
321216,note_off,,,,,192,0,3,,,,,2,,,58,0
321280,note_off,,,,,128,0,1,,,,,0,,,63,0
321280,note_off,,,,,128,0,2,,,,,1,,,61,0
321280,note_on,,,,,0,0,2,,,,,1,,,61,93
321280,note_on,,,,,0,0,1,,,,,0,,,63,109
321408,note_on,,,,,192,0,3,,,,,2,,,55,90
321408,note_off,,,,,128,0,1,,,,,0,,,63,0
321408,note_on,,,,,0,0,1,,,,,0,,,63,109
321408,note_on,,,,,0,0,2,,,,,1,,,61,93
321408,note_off,,,,,128,0,2,,,,,1,,,61,0
321536,note_off,,,,,128,0,2,,,,,1,,,61,0
321536,note_on,,,,,0,0,1,,,,,0,,,63,109
321536,note_off,,,,,128,0,1,,,,,0,,,63,0
321536,note_on,,,,,0,0,2,,,,,1,,,61,93
321600,note_off,,,,,192,0,3,,,,,2,,,55,0
321664,note_off,,,,,128,0,2,,,,,1,,,61,0
321664,note_on,,,,,0,0,2,,,,,1,,,61,93
321664,note_on,,,,,0,0,1,,,,,0,,,63,109
321664,note_off,,,,,128,0,1,,,,,0,,,63,0
321792,note_on,,,,,0,0,2,,,,,1,,,61,93
321792,note_on,,,,,0,0,1,,,,,0,,,63,109
321792,note_off,,,,,128,0,1,,,,,0,,,63,0
321792,note_on,,,,,192,0,3,,,,,2,,,51,90
321792,note_off,,,,,128,0,2,,,,,1,,,61,0
321920,note_off,,,,,128,0,1,,,,,0,,,63,0
321920,note_off,,,,,128,0,2,,,,,1,,,61,0
321920,note_on,,,,,0,0,1,,,,,0,,,63,109
321920,note_on,,,,,0,0,2,,,,,1,,,61,93
321984,note_off,,,,,192,0,3,,,,,2,,,51,0
322048,note_on,,,,,0,0,1,,,,,0,,,63,109
322048,note_off,,,,,128,0,1,,,,,0,,,63,0
322048,note_on,,,,,0,0,2,,,,,1,,,61,93
322048,note_off,,,,,128,0,2,,,,,1,,,61,0
322176,note_off,,,,,128,0,1,,,,,0,,,63,0
322176,note_on,,,,,0,0,1,,,,,0,,,63,109
322176,note_on,,,,,0,0,2,,,,,1,,,61,93
322176,note_off,,,,,128,0,2,,,,,1,,,61,0
322176,note_on,,,,,1728,0,4,,,,,3,,,51,90
322304,note_off,,,,,128,0,1,,,,,0,,,63,0
322304,note_on,,,,,0,0,1,,,,,0,,,63,109
322304,note_off,,,,,128,0,2,,,,,1,,,61,0
322304,note_off,,,,,128,0,4,,,,,3,,,51,0
322304,note_on,,,,,0,0,4,,,,,3,,,53,90
322304,note_on,,,,,0,0,2,,,,,1,,,61,93
322432,note_on,,,,,0,0,2,,,,,1,,,61,93
322432,note_off,,,,,128,0,1,,,,,0,,,63,0
322432,note_on,,,,,0,0,1,,,,,0,,,63,109
322432,note_off,,,,,128,0,4,,,,,3,,,53,0
322432,note_off,,,,,128,0,2,,,,,1,,,61,0
322432,note_on,,,,,0,0,4,,,,,3,,,55,90
322560,note_off,,,,,128,0,2,,,,,1,,,61,0
322560,note_on,,,,,0,0,2,,,,,1,,,60,93
322560,note_on,,,,,0,0,1,,,,,0,,,63,109
322560,note_off,,,,,128,0,4,,,,,3,,,55,0
322560,note_on,,,,,0,0,4,,,,,3,,,56,90
322560,note_off,,,,,128,0,1,,,,,0,,,63,0
322688,note_off,,,,,128,0,1,,,,,0,,,63,0
322688,note_on,,,,,0,0,2,,,,,1,,,60,93
322688,note_off,,,,,128,0,2,,,,,1,,,60,0
322688,note_on,,,,,0,0,1,,,,,0,,,63,109
322752,note_off,,,,,192,0,4,,,,,3,,,56,0
322816,note_off,,,,,128,0,1,,,,,0,,,63,0
322816,note_on,,,,,0,0,1,,,,,0,,,63,109
322816,note_on,,,,,0,0,2,,,,,1,,,60,93
322816,note_off,,,,,128,0,2,,,,,1,,,60,0
322944,note_off,,,,,128,0,2,,,,,1,,,60,0
322944,note_on,,,,,0,0,1,,,,,0,,,63,109
322944,note_on,,,,,0,0,2,,,,,1,,,60,93
322944,note_on,,,,,192,0,4,,,,,3,,,48,90
322944,note_off,,,,,128,0,1,,,,,0,,,63,0
323072,note_off,,,,,128,0,1,,,,,0,,,63,0
323072,note_on,,,,,0,0,1,,,,,0,,,63,109
323072,note_on,,,,,0,0,2,,,,,1,,,60,93
323072,note_off,,,,,128,0,2,,,,,1,,,60,0
323136,note_off,,,,,192,0,4,,,,,3,,,48,0
323200,note_on,,,,,0,0,1,,,,,0,,,63,109
323200,note_on,,,,,0,0,2,,,,,1,,,60,93
323200,note_off,,,,,128,0,2,,,,,1,,,60,0
323200,note_off,,,,,128,0,1,,,,,0,,,63,0
323328,note_on,,,,,0,0,2,,,,,1,,,60,93
323328,note_off,,,,,128,0,2,,,,,1,,,60,0
323328,note_on,,,,,192,0,4,,,,,3,,,51,90
323328,note_on,,,,,0,0,1,,,,,0,,,63,109
323328,note_off,,,,,128,0,1,,,,,0,,,63,0
323456,note_on,,,,,0,0,2,,,,,1,,,60,93
323456,note_off,,,,,128,0,2,,,,,1,,,60,0
323456,note_off,,,,,128,0,1,,,,,0,,,63,0
323456,note_on,,,,,0,0,1,,,,,0,,,63,109
323520,note_off,,,,,192,0,4,,,,,3,,,51,0
323584,note_on,,,,,0,0,1,,,,,0,,,63,109
323584,note_on,,,,,0,0,2,,,,,1,,,60,93
323584,note_off,,,,,128,0,2,,,,,1,,,60,0
323584,note_off,,,,,128,0,1,,,,,0,,,63,0
323712,note_on,,,,,0,0,1,,,,,0,,,63,109
323712,note_on,,,,,1728,0,3,,,,,2,,,56,90
323712,note_off,,,,,128,0,1,,,,,0,,,63,0
323712,note_off,,,,,128,0,2,,,,,1,,,60,0
323712,note_on,,,,,0,0,2,,,,,1,,,60,93
323840,note_off,,,,,128,0,2,,,,,1,,,60,0
323840,note_off,,,,,128,0,1,,,,,0,,,63,0
323840,note_on,,,,,0,0,1,,,,,0,,,63,109
323840,note_off,,,,,128,0,3,,,,,2,,,56,0
323840,note_on,,,,,0,0,2,,,,,1,,,60,93
323840,note_on,,,,,0,0,3,,,,,2,,,55,90
323968,note_off,,,,,128,0,2,,,,,1,,,60,0
323968,note_on,,,,,0,0,2,,,,,1,,,60,93
323968,note_on,,,,,0,0,1,,,,,0,,,63,109
323968,note_off,,,,,128,0,1,,,,,0,,,63,0
323968,note_off,,,,,128,0,3,,,,,2,,,55,0
323968,note_on,,,,,0,0,3,,,,,2,,,56,90
324096,note_off,,,,,128,0,2,,,,,1,,,60,0
324096,note_on,,,,,0,0,2,,,,,1,,,61,93
324096,note_on,,,,,0,0,3,,,,,2,,,58,90
324096,note_off,,,,,128,0,3,,,,,2,,,56,0
324096,note_on,,,,,0,0,1,,,,,0,,,63,109
324096,note_off,,,,,128,0,1,,,,,0,,,63,0
324224,note_off,,,,,128,0,1,,,,,0,,,63,0
324224,note_on,,,,,0,0,1,,,,,0,,,63,109
324224,note_off,,,,,128,0,2,,,,,1,,,61,0
324224,note_on,,,,,0,0,2,,,,,1,,,61,93
324288,note_off,,,,,192,0,3,,,,,2,,,58,0
324352,note_off,,,,,128,0,1,,,,,0,,,63,0
324352,note_on,,,,,0,0,1,,,,,0,,,63,109
324352,note_off,,,,,128,0,2,,,,,1,,,61,0
324352,note_on,,,,,0,0,2,,,,,1,,,61,93
324480,note_on,,,,,192,0,3,,,,,2,,,55,90
324480,note_on,,,,,0,0,1,,,,,0,,,63,109
324480,note_off,,,,,128,0,1,,,,,0,,,63,0
324480,note_on,,,,,0,0,2,,,,,1,,,61,93
324480,note_off,,,,,128,0,2,,,,,1,,,61,0
324608,note_on,,,,,0,0,2,,,,,1,,,61,93
324608,note_off,,,,,128,0,1,,,,,0,,,63,0
324608,note_on,,,,,0,0,1,,,,,0,,,63,109
324608,note_off,,,,,128,0,2,,,,,1,,,61,0
324672,note_off,,,,,192,0,3,,,,,2,,,55,0
324736,note_off,,,,,128,0,1,,,,,0,,,63,0
324736,note_off,,,,,128,0,2,,,,,1,,,61,0
324736,note_on,,,,,0,0,2,,,,,1,,,61,93
324736,note_on,,,,,0,0,1,,,,,0,,,63,109
324864,note_on,,,,,192,0,3,,,,,2,,,51,90
324864,note_off,,,,,128,0,2,,,,,1,,,61,0
324864,note_off,,,,,128,0,1,,,,,0,,,63,0
324864,note_on,,,,,0,0,1,,,,,0,,,63,109
324864,note_on,,,,,0,0,2,,,,,1,,,61,93
324992,note_off,,,,,128,0,1,,,,,0,,,63,0
324992,note_on,,,,,0,0,1,,,,,0,,,63,109
324992,note_off,,,,,128,0,2,,,,,1,,,61,0
324992,note_on,,,,,0,0,2,,,,,1,,,61,93
325120,note_off,,,,,128,0,1,,,,,0,,,63,0
325120,note_on,,,,,0,0,1,,,,,0,,,63,109
325120,note_off,,,,,128,0,2,,,,,1,,,61,0
325120,note_on,,,,,0,0,2,,,,,1,,,61,93
325248,note_on,,,,,0,0,1,,,,,0,,,63,109
325248,note_on,,,,,1728,0,4,,,,,3,,,51,90
325248,note_on,,,,,0,0,2,,,,,1,,,61,93
325248,note_off,,,,,384,0,3,,,,,2,,,51,0
325248,note_off,,,,,128,0,1,,,,,0,,,63,0
325248,note_off,,,,,128,0,2,,,,,1,,,61,0
325376,note_on,,,,,0,0,4,,,,,3,,,53,90
325376,note_off,,,,,128,0,2,,,,,1,,,61,0
325376,note_off,,,,,128,0,4,,,,,3,,,51,0
325376,note_on,,,,,0,0,2,,,,,1,,,61,93
325376,note_on,,,,,0,0,1,,,,,0,,,63,109
325376,note_off,,,,,128,0,1,,,,,0,,,63,0
325504,note_off,,,,,128,0,4,,,,,3,,,53,0
325504,note_on,,,,,0,0,4,,,,,3,,,55,90
325504,note_on,,,,,0,0,1,,,,,0,,,63,109
325504,note_off,,,,,128,0,1,,,,,0,,,63,0
325504,note_on,,,,,0,0,2,,,,,1,,,61,93
325504,note_off,,,,,128,0,2,,,,,1,,,61,0
325632,note_on,,,,,384,0,3,,,,,2,,,56,90
325632,note_on,,,,,0,0,2,,,,,1,,,60,93
325632,note_on,,,,,0,0,4,,,,,3,,,56,90
325632,note_off,,,,,128,0,4,,,,,3,,,55,0
325632,note_off,,,,,128,0,1,,,,,0,,,63,0
325632,note_on,,,,,0,0,1,,,,,0,,,63,109
325632,note_off,,,,,128,0,2,,,,,1,,,61,0
325760,note_off,,,,,128,0,2,,,,,1,,,60,0
325760,note_off,,,,,128,0,1,,,,,0,,,63,0
325760,note_on,,,,,0,0,1,,,,,0,,,75,109
325760,note_on,,,,,0,0,2,,,,,1,,,63,93
325760,note_on,,,,,0,0,2,,,,,1,,,72,93
325888,note_on,,,,,0,0,2,,,,,1,,,72,93
325888,note_off,,,,,128,0,1,,,,,0,,,75,0
325888,note_on,,,,,0,0,2,,,,,1,,,63,93
325888,note_off,,,,,0,0,2,,,,,1,,,72,0
325888,note_off,,,,,128,0,2,,,,,1,,,63,0
325888,note_on,,,,,0,0,1,,,,,0,,,75,109
326016,note_on,,,,,0,0,2,,,,,1,,,63,93
326016,note_off,,,,,128,0,2,,,,,1,,,63,0
326016,note_on,,,,,0,0,2,,,,,1,,,72,93
326016,note_off,,,,,0,0,2,,,,,1,,,72,0
326016,note_off,,,,,128,0,1,,,,,0,,,75,0
326016,note_on,,,,,0,0,1,,,,,0,,,75,109
326144,note_off,,,,,128,0,2,,,,,1,,,72,0
326144,note_off,,,,,0,0,2,,,,,1,,,63,0
326144,note_on,,,,,0,0,2,,,,,1,,,63,93
326144,note_on,,,,,0,0,2,,,,,1,,,72,93
326144,note_off,,,,,128,0,1,,,,,0,,,75,0
326144,note_on,,,,,0,0,1,,,,,0,,,75,109
326272,note_on,,,,,0,0,1,,,,,0,,,75,109
326272,note_on,,,,,0,0,2,,,,,1,,,72,93
326272,note_on,,,,,0,0,2,,,,,1,,,63,93
326272,note_off,,,,,0,0,2,,,,,1,,,72,0
326272,note_off,,,,,128,0,2,,,,,1,,,63,0
326272,note_off,,,,,128,0,1,,,,,0,,,75,0
326400,note_off,,,,,128,0,1,,,,,0,,,75,0
326400,note_on,,,,,0,0,1,,,,,0,,,75,109
326400,note_on,,,,,0,0,3,,,,,2,,,55,90
326400,note_on,,,,,0,0,4,,,,,3,,,55,90
326400,note_off,,,,,768,0,3,,,,,2,,,56,0
326400,note_off,,,,,768,0,4,,,,,3,,,56,0
326400,note_off,,,,,128,0,2,,,,,1,,,63,0
326400,note_off,,,,,0,0,2,,,,,1,,,72,0
326400,note_on,,,,,0,0,2,,,,,1,,,63,93
326400,note_on,,,,,0,0,2,,,,,1,,,72,93
326528,note_off,,,,,128,0,2,,,,,1,,,63,0
326528,note_off,,,,,0,0,2,,,,,1,,,72,0
326528,note_off,,,,,128,0,1,,,,,0,,,75,0
326528,note_on,,,,,0,0,2,,,,,1,,,72,93
326528,note_on,,,,,0,0,2,,,,,1,,,63,93
326528,note_on,,,,,0,0,1,,,,,0,,,75,109
326656,note_off,,,,,128,0,2,,,,,1,,,63,0
326656,note_on,,,,,0,0,1,,,,,0,,,75,109
326656,note_on,,,,,0,0,2,,,,,1,,,72,93
326656,note_on,,,,,0,0,2,,,,,1,,,63,93
326656,note_off,,,,,0,0,2,,,,,1,,,72,0
326656,note_off,,,,,128,0,1,,,,,0,,,75,0
326784,note_off,,,,,128,0,1,,,,,0,,,75,0
326784,note_on,,,,,0,0,1,,,,,0,,,75,109
326784,note_on,,,,,0,0,2,,,,,1,,,72,93
326784,note_on,,,,,0,0,2,,,,,1,,,63,93
326784,note_off,,,,,128,0,2,,,,,1,,,63,0
326784,note_off,,,,,0,0,2,,,,,1,,,72,0
326912,note_off,,,,,0,0,2,,,,,1,,,72,0
326912,note_off,,,,,128,0,2,,,,,1,,,63,0
326912,note_off,,,,,128,0,1,,,,,0,,,75,0
326912,note_on,,,,,0,0,1,,,,,0,,,75,109
326912,note_on,,,,,0,0,2,,,,,1,,,72,93
326912,note_on,,,,,0,0,2,,,,,1,,,63,93
327040,note_on,,,,,0,0,2,,,,,1,,,72,93
327040,note_off,,,,,0,0,2,,,,,1,,,72,0
327040,note_on,,,,,0,0,2,,,,,1,,,63,93
327040,note_off,,,,,128,0,1,,,,,0,,,75,0
327040,note_on,,,,,0,0,1,,,,,0,,,75,109
327040,note_off,,,,,128,0,2,,,,,1,,,63,0
327168,note_on,,,,,0,0,1,,,,,0,,,75,109
327168,note_off,,,,,768,0,4,,,,,3,,,55,0
327168,note_on,,,,,0,0,4,,,,,3,,,54,90
327168,note_off,,,,,128,0,2,,,,,1,,,63,0
327168,note_on,,,,,0,0,3,,,,,2,,,54,90
327168,note_on,,,,,0,0,2,,,,,1,,,63,93
327168,note_off,,,,,768,0,3,,,,,2,,,55,0
327168,note_off,,,,,128,0,1,,,,,0,,,75,0
327168,note_on,,,,,0,0,2,,,,,1,,,72,93
327168,note_off,,,,,0,0,2,,,,,1,,,72,0
327296,note_off,,,,,128,0,1,,,,,0,,,75,0
327296,note_on,,,,,0,0,1,,,,,0,,,75,109
327296,note_off,,,,,128,0,2,,,,,1,,,63,0
327296,note_off,,,,,0,0,2,,,,,1,,,72,0
327296,note_on,,,,,0,0,2,,,,,1,,,63,93
327296,note_on,,,,,0,0,2,,,,,1,,,72,93
327424,note_on,,,,,0,0,1,,,,,0,,,75,109
327424,note_on,,,,,0,0,2,,,,,1,,,72,93
327424,note_off,,,,,128,0,1,,,,,0,,,75,0
327424,note_off,,,,,128,0,2,,,,,1,,,63,0
327424,note_on,,,,,0,0,2,,,,,1,,,63,93
327424,note_off,,,,,0,0,2,,,,,1,,,72,0
327552,note_off,,,,,128,0,2,,,,,1,,,63,0
327552,note_off,,,,,0,0,2,,,,,1,,,72,0
327552,note_on,,,,,0,0,2,,,,,1,,,63,93
327552,note_on,,,,,0,0,2,,,,,1,,,72,93
327552,note_on,,,,,0,0,1,,,,,0,,,75,109
327552,note_off,,,,,128,0,1,,,,,0,,,75,0
327680,note_on,,,,,0,0,2,,,,,1,,,72,93
327680,note_on,,,,,0,0,2,,,,,1,,,63,93
327680,note_off,,,,,0,0,2,,,,,1,,,72,0
327680,note_on,,,,,0,0,1,,,,,0,,,75,109
327680,note_off,,,,,128,0,2,,,,,1,,,63,0
327680,note_off,,,,,128,0,1,,,,,0,,,75,0
327808,note_off,,,,,128,0,1,,,,,0,,,75,0
327808,note_on,,,,,0,0,2,,,,,1,,,72,93
327808,note_off,,,,,128,0,2,,,,,1,,,63,0
327808,note_off,,,,,0,0,2,,,,,1,,,72,0
327808,note_on,,,,,0,0,1,,,,,0,,,75,109
327808,note_on,,,,,0,0,2,,,,,1,,,63,93
327936,note_off,,,,,128,0,2,,,,,1,,,63,0
327936,note_off,,,,,0,0,2,,,,,1,,,72,0
327936,note_off,,,,,128,0,1,,,,,0,,,75,0
327936,note_on,,,,,0,0,2,,,,,1,,,72,93
327936,note_on,,,,,0,0,1,,,,,0,,,75,109
327936,note_on,,,,,0,0,2,,,,,1,,,63,93
328064,note_off,,,,,128,0,2,,,,,1,,,63,0
328064,note_off,,,,,0,0,2,,,,,1,,,72,0
328064,note_on,,,,,0,0,2,,,,,1,,,63,93
328064,note_on,,,,,0,0,2,,,,,1,,,72,93
328064,note_off,,,,,128,0,1,,,,,0,,,75,0
328064,note_on,,,,,0,0,1,,,,,0,,,75,109
328192,note_off,,,,,128,0,1,,,,,0,,,75,0
328192,note_on,,,,,0,0,2,,,,,1,,,72,93
328192,note_on,,,,,0,0,2,,,,,1,,,63,93
328192,note_off,,,,,0,0,2,,,,,1,,,72,0
328192,note_off,,,,,128,0,2,,,,,1,,,63,0
328192,note_on,,,,,0,0,1,,,,,0,,,75,109
328320,note_on,,,,,0,0,2,,,,,1,,,63,93
328320,note_on,,,,,0,0,2,,,,,1,,,72,93
328320,note_off,,,,,0,0,2,,,,,1,,,72,0
328320,note_off,,,,,128,0,2,,,,,1,,,63,0
328320,note_on,,,,,0,0,1,,,,,0,,,75,109
328320,note_off,,,,,128,0,1,,,,,0,,,75,0
328320,note_on,,,,,0,0,3,,,,,2,,,55,90
328320,note_off,,,,,1152,0,3,,,,,2,,,54,0
328320,note_off,,,,,1152,0,4,,,,,3,,,54,0
328320,note_on,,,,,0,0,4,,,,,3,,,55,90
328448,note_on,,,,,0,0,2,,,,,1,,,63,93
328448,note_on,,,,,0,0,3,,,,,2,,,54,90
328448,note_off,,,,,128,0,3,,,,,2,,,55,0
328448,note_on,,,,,0,0,1,,,,,0,,,75,109
328448,note_off,,,,,128,0,4,,,,,3,,,55,0
328448,note_on,,,,,0,0,4,,,,,3,,,54,90
328448,note_off,,,,,128,0,2,,,,,1,,,63,0
328448,note_off,,,,,0,0,2,,,,,1,,,72,0
328448,note_off,,,,,128,0,1,,,,,0,,,75,0
328448,note_on,,,,,0,0,2,,,,,1,,,72,93
328576,note_off,,,,,128,0,4,,,,,3,,,54,0
328576,note_on,,,,,0,0,2,,,,,1,,,63,93
328576,note_off,,,,,0,0,2,,,,,1,,,72,0
328576,note_off,,,,,128,0,3,,,,,2,,,54,0
328576,note_on,,,,,0,0,3,,,,,2,,,55,90
328576,note_on,,,,,0,0,1,,,,,0,,,75,109
328576,note_off,,,,,128,0,2,,,,,1,,,63,0
328576,note_off,,,,,128,0,1,,,,,0,,,75,0
328576,note_on,,,,,0,0,4,,,,,3,,,55,90
328576,note_on,,,,,0,0,2,,,,,1,,,72,93
328704,note_on,,,,,0,0,2,,,,,1,,,63,93
328704,note_on,,,,,0,0,1,,,,,0,,,75,109
328704,note_off,,,,,128,0,1,,,,,0,,,75,0
328704,note_on,,,,,0,0,4,,,,,3,,,56,90
328704,note_on,,,,,0,0,3,,,,,2,,,56,90
328704,note_off,,,,,128,0,3,,,,,2,,,55,0
328704,note_off,,,,,0,0,2,,,,,1,,,72,0
328704,note_on,,,,,0,0,2,,,,,1,,,72,93
328704,note_off,,,,,128,0,2,,,,,1,,,63,0
328704,note_off,,,,,128,0,4,,,,,3,,,55,0
328832,note_on,,,,,0,0,2,,,,,1,,,75,93
328832,note_off,,,,,0,0,2,,,,,1,,,72,0
328832,note_off,,,,,128,0,2,,,,,1,,,63,0
328832,note_off,,,,,128,0,1,,,,,0,,,75,0
328832,note_on,,,,,0,0,1,,,,,0,,,84,109
328960,note_off,,,,,128,0,1,,,,,0,,,84,0
328960,note_on,,,,,0,0,1,,,,,0,,,84,109
328960,note_off,,,,,128,0,2,,,,,1,,,75,0
328960,note_on,,,,,0,0,2,,,,,1,,,75,93
329088,note_off,,,,,128,0,2,,,,,1,,,75,0
329088,note_on,,,,,0,0,2,,,,,1,,,75,93
329088,note_off,,,,,128,0,1,,,,,0,,,84,0
329088,note_on,,,,,0,0,1,,,,,0,,,84,109
329216,note_off,,,,,128,0,2,,,,,1,,,75,0
329216,note_on,,,,,0,0,2,,,,,1,,,75,93
329216,note_off,,,,,128,0,1,,,,,0,,,84,0
329216,note_on,,,,,0,0,1,,,,,0,,,84,109
329344,note_off,,,,,128,0,2,,,,,1,,,75,0
329344,note_on,,,,,0,0,2,,,,,1,,,75,93
329344,note_off,,,,,128,0,1,,,,,0,,,84,0
329344,note_on,,,,,0,0,1,,,,,0,,,84,109
329472,note_off,,,,,128,0,1,,,,,0,,,84,0
329472,note_on,,,,,0,0,1,,,,,0,,,84,109
329472,note_off,,,,,128,0,2,,,,,1,,,75,0
329472,note_on,,,,,0,0,2,,,,,1,,,75,93
329472,note_on,,,,,0,0,3,,,,,2,,,55,90
329472,note_off,,,,,768,0,3,,,,,2,,,56,0
329472,note_off,,,,,768,0,4,,,,,3,,,56,0
329472,note_on,,,,,0,0,4,,,,,3,,,55,90
329600,note_on,,,,,0,0,1,,,,,0,,,84,109
329600,note_on,,,,,0,0,2,,,,,1,,,75,93
329600,note_off,,,,,128,0,1,,,,,0,,,84,0
329600,note_off,,,,,128,0,2,,,,,1,,,75,0
329728,note_off,,,,,128,0,2,,,,,1,,,75,0
329728,note_on,,,,,0,0,2,,,,,1,,,75,93
329728,note_off,,,,,128,0,1,,,,,0,,,84,0
329728,note_on,,,,,0,0,1,,,,,0,,,84,109
329856,note_off,,,,,128,0,1,,,,,0,,,84,0
329856,note_off,,,,,128,0,2,,,,,1,,,75,0
329856,note_on,,,,,0,0,2,,,,,1,,,75,93
329856,note_on,,,,,0,0,1,,,,,0,,,84,109
329984,note_on,,,,,0,0,1,,,,,0,,,84,109
329984,note_on,,,,,0,0,2,,,,,1,,,75,93
329984,note_off,,,,,128,0,1,,,,,0,,,84,0
329984,note_off,,,,,128,0,2,,,,,1,,,75,0
330112,note_off,,,,,128,0,1,,,,,0,,,84,0
330112,note_on,,,,,0,0,1,,,,,0,,,84,109
330112,note_on,,,,,0,0,2,,,,,1,,,75,93
330112,note_off,,,,,128,0,2,,,,,1,,,75,0
330240,note_off,,,,,128,0,2,,,,,1,,,75,0
330240,note_on,,,,,0,0,2,,,,,1,,,75,93
330240,note_off,,,,,768,0,3,,,,,2,,,55,0
330240,note_on,,,,,0,0,3,,,,,2,,,54,90
330240,note_on,,,,,0,0,1,,,,,0,,,84,109
330240,note_off,,,,,128,0,1,,,,,0,,,84,0
330240,note_off,,,,,768,0,4,,,,,3,,,55,0
330240,note_on,,,,,0,0,4,,,,,3,,,54,90
330368,note_on,,,,,0,0,2,,,,,1,,,75,93
330368,note_off,,,,,128,0,1,,,,,0,,,84,0
330368,note_off,,,,,128,0,2,,,,,1,,,75,0
330368,note_on,,,,,0,0,1,,,,,0,,,84,109
330496,note_off,,,,,128,0,2,,,,,1,,,75,0
330496,note_on,,,,,0,0,1,,,,,0,,,84,109
330496,note_on,,,,,0,0,2,,,,,1,,,75,93
330496,note_off,,,,,128,0,1,,,,,0,,,84,0
330624,note_on,,,,,0,0,1,,,,,0,,,84,109
330624,note_off,,,,,128,0,2,,,,,1,,,75,0
330624,note_on,,,,,0,0,2,,,,,1,,,75,93
330624,note_off,,,,,128,0,1,,,,,0,,,84,0
330752,note_off,,,,,128,0,2,,,,,1,,,75,0
330752,note_on,,,,,0,0,2,,,,,1,,,75,93
330752,note_off,,,,,128,0,1,,,,,0,,,84,0
330752,note_on,,,,,0,0,1,,,,,0,,,84,109
330880,note_on,,,,,0,0,1,,,,,0,,,84,109
330880,note_on,,,,,0,0,2,,,,,1,,,75,93
330880,note_off,,,,,128,0,1,,,,,0,,,84,0
330880,note_off,,,,,128,0,2,,,,,1,,,75,0
331008,note_on,,,,,0,0,2,,,,,1,,,75,93
331008,note_off,,,,,128,0,1,,,,,0,,,84,0
331008,note_off,,,,,128,0,2,,,,,1,,,75,0
331008,note_on,,,,,0,0,1,,,,,0,,,84,109
331136,note_off,,,,,128,0,1,,,,,0,,,84,0
331136,note_on,,,,,0,0,1,,,,,0,,,84,109
331136,note_on,,,,,0,0,2,,,,,1,,,75,93
331136,note_off,,,,,128,0,2,,,,,1,,,75,0
331264,note_on,,,,,0,0,1,,,,,0,,,84,109
331264,note_on,,,,,0,0,2,,,,,1,,,75,93
331264,note_off,,,,,128,0,2,,,,,1,,,75,0
331264,note_off,,,,,128,0,1,,,,,0,,,84,0
331392,note_on,,,,,0,0,4,,,,,3,,,42,90
331392,note_off,,,,,1152,0,4,,,,,3,,,54,0
331392,note_on,,,,,0,0,2,,,,,1,,,75,93
331392,note_off,,,,,128,0,1,,,,,0,,,84,0
331392,note_on,,,,,0,0,1,,,,,0,,,84,109
331392,note_off,,,,,128,0,2,,,,,1,,,75,0
331392,note_on,,,,,0,0,3,,,,,2,,,66,90
331392,note_off,,,,,1152,0,3,,,,,2,,,54,0
331520,note_on,,,,,0,0,4,,,,,3,,,43,90
331520,note_off,,,,,128,0,4,,,,,3,,,42,0
331520,note_on,,,,,0,0,3,,,,,2,,,67,90
331520,note_off,,,,,128,0,2,,,,,1,,,75,0
331520,note_on,,,,,0,0,1,,,,,0,,,84,109
331520,note_off,,,,,128,0,1,,,,,0,,,84,0
331520,note_on,,,,,0,0,2,,,,,1,,,75,93
331520,note_off,,,,,128,0,3,,,,,2,,,66,0
331648,note_off,,,,,128,0,1,,,,,0,,,84,0
331648,note_on,,,,,0,0,2,,,,,1,,,75,93
331648,note_off,,,,,128,0,3,,,,,2,,,67,0
331648,note_on,,,,,0,0,3,,,,,2,,,66,90
331648,note_off,,,,,128,0,2,,,,,1,,,75,0
331648,note_off,,,,,128,0,4,,,,,3,,,43,0
331648,note_on,,,,,0,0,4,,,,,3,,,42,90
331648,note_on,,,,,0,0,1,,,,,0,,,84,109
331776,note_off,,,,,128,0,3,,,,,2,,,66,0
331776,note_on,,,,,0,0,3,,,,,2,,,67,90
331776,note_on,,,,,0,0,2,,,,,1,,,74,93
331776,note_off,,,,,128,0,2,,,,,1,,,75,0
331776,note_on,,,,,0,0,1,,,,,0,,,83,109
331776,note_off,,,,,128,0,1,,,,,0,,,84,0
331776,note_off,,,,,128,0,4,,,,,3,,,42,0
331776,note_on,,,,,0,0,4,,,,,3,,,43,90
332160,note_on,,,,,0,0,3,,,,,2,,,71,90
332160,note_off,,,,,384,0,3,,,,,2,,,67,0
332160,note_on,,,,,0,0,1,,,,,0,,,79,109
332160,note_off,,,,,384,0,1,,,,,0,,,83,0
332160,note_off,,,,,384,0,4,,,,,3,,,43,0
332160,note_off,,,,,384,0,2,,,,,1,,,74,0
332160,note_on,,,,,0,0,2,,,,,1,,,74,93
332288,note_on,,,,,0,0,1,,,,,0,,,78,109
332288,note_off,,,,,128,0,1,,,,,0,,,79,0
332416,note_on,,,,,0,0,1,,,,,0,,,79,109
332416,note_off,,,,,128,0,1,,,,,0,,,78,0
332544,note_on,,,,,0,0,2,,,,,1,,,75,93
332544,note_off,,,,,128,0,1,,,,,0,,,79,0
332544,note_off,,,,,384,0,2,,,,,1,,,74,0
332544,note_on,,,,,0,0,1,,,,,0,,,80,109
332544,note_off,,,,,384,0,3,,,,,2,,,71,0
332544,note_on,,,,,0,0,3,,,,,2,,,72,90
332928,note_on,,,,,0,0,1,,,,,0,,,84,109
332928,note_on,,,,,0,0,2,,,,,1,,,72,93
332928,note_off,,,,,384,0,2,,,,,1,,,75,0
332928,note_off,,,,,384,0,3,,,,,2,,,72,0
332928,note_on,,,,,0,0,3,,,,,2,,,60,90
332928,note_on,,,,,0,0,3,,,,,2,,,62,90
332928,note_off,,,,,384,0,1,,,,,0,,,80,0
332928,note_on,,,,,768,0,4,,,,,3,,,56,90
333056,note_on,,,,,0,0,1,,,,,0,,,80,109
333056,note_off,,,,,128,0,1,,,,,0,,,84,0
333056,note_off,,,,,128,0,2,,,,,1,,,72,0
333056,note_on,,,,,0,0,2,,,,,1,,,68,93
333184,note_off,,,,,128,0,1,,,,,0,,,80,0
333184,note_on,,,,,0,0,1,,,,,0,,,78,109
333184,note_on,,,,,0,0,2,,,,,1,,,66,93
333184,note_off,,,,,128,0,2,,,,,1,,,68,0
333312,note_on,,,,,0,0,3,,,,,2,,,59,90
333312,note_on,,,,,0,0,3,,,,,2,,,62,90
333312,note_off,,,,,0,0,3,,,,,2,,,62,0
333312,note_off,,,,,384,0,3,,,,,2,,,60,0
333312,note_on,,,,,0,0,4,,,,,3,,,55,90
333312,note_off,,,,,384,0,4,,,,,3,,,56,0
333312,note_on,,,,,0,0,1,,,,,0,,,79,109
333312,note_off,,,,,128,0,1,,,,,0,,,78,0
333312,note_off,,,,,128,0,2,,,,,1,,,66,0
333312,note_on,,,,,0,0,2,,,,,1,,,67,93
333696,note_on,,,,,0,0,3,,,,,2,,,71,90
333696,note_on,,,,,0,0,1,,,,,0,,,79,109
333696,note_off,,,,,384,0,4,,,,,3,,,55,0
333696,note_on,,,,,0,0,2,,,,,1,,,74,93
333696,note_off,,,,,384,0,2,,,,,1,,,67,0
333696,note_off,,,,,384,0,1,,,,,0,,,79,0
333696,note_off,,,,,384,0,3,,,,,2,,,62,0
333696,note_off,,,,,0,0,3,,,,,2,,,59,0
333824,note_off,,,,,128,0,1,,,,,0,,,79,0
333824,note_on,,,,,0,0,1,,,,,0,,,78,109
333952,note_off,,,,,128,0,1,,,,,0,,,78,0
333952,note_on,,,,,0,0,1,,,,,0,,,79,109
334080,note_off,,,,,128,0,1,,,,,0,,,79,0
334080,note_off,,,,,384,0,2,,,,,1,,,74,0
334080,note_on,,,,,0,0,2,,,,,1,,,75,93
334080,note_on,,,,,0,0,3,,,,,2,,,72,90
334080,note_off,,,,,384,0,3,,,,,2,,,71,0
334080,note_on,,,,,0,0,1,,,,,0,,,80,109
334464,note_on,,,,,0,0,3,,,,,2,,,62,90
334464,note_off,,,,,384,0,3,,,,,2,,,72,0
334464,note_on,,,,,0,0,1,,,,,0,,,84,109
334464,note_off,,,,,384,0,1,,,,,0,,,80,0
334464,note_on,,,,,0,0,3,,,,,2,,,60,90
334464,note_on,,,,,0,0,2,,,,,1,,,72,93
334464,note_off,,,,,384,0,2,,,,,1,,,75,0
334464,note_on,,,,,768,0,4,,,,,3,,,56,90
334592,note_off,,,,,128,0,1,,,,,0,,,84,0
334592,note_off,,,,,128,0,2,,,,,1,,,72,0
334592,note_on,,,,,0,0,1,,,,,0,,,80,109
334592,note_on,,,,,0,0,2,,,,,1,,,68,93
334720,note_off,,,,,128,0,1,,,,,0,,,80,0
334720,note_on,,,,,0,0,2,,,,,1,,,66,93
334720,note_off,,,,,128,0,2,,,,,1,,,68,0
334720,note_on,,,,,0,0,1,,,,,0,,,78,109
334848,note_off,,,,,128,0,1,,,,,0,,,78,0
334848,note_off,,,,,384,0,3,,,,,2,,,62,0
334848,note_on,,,,,0,0,3,,,,,2,,,59,90
334848,note_on,,,,,0,0,3,,,,,2,,,62,90
334848,note_off,,,,,0,0,3,,,,,2,,,60,0
334848,note_on,,,,,0,0,2,,,,,1,,,67,93
334848,note_off,,,,,128,0,2,,,,,1,,,66,0
334848,note_off,,,,,384,0,4,,,,,3,,,56,0
334848,note_on,,,,,0,0,4,,,,,3,,,55,90
334848,note_on,,,,,0,0,1,,,,,0,,,79,109
335232,note_off,,,,,384,0,3,,,,,2,,,62,0
335232,note_off,,,,,0,0,3,,,,,2,,,59,0
335232,note_off,,,,,384,0,2,,,,,1,,,67,0
335232,note_off,,,,,384,0,4,,,,,3,,,55,0
335232,note_on,,,,,0,0,3,,,,,2,,,71,90
335232,note_on,,,,,0,0,2,,,,,1,,,74,93
335232,note_on,,,,,0,0,1,,,,,0,,,79,109
335232,note_off,,,,,384,0,1,,,,,0,,,79,0
335360,note_on,,,,,0,0,1,,,,,0,,,78,109
335360,note_off,,,,,128,0,1,,,,,0,,,79,0
335488,note_on,,,,,0,0,1,,,,,0,,,79,109
335488,note_off,,,,,128,0,1,,,,,0,,,78,0
335616,note_off,,,,,384,0,2,,,,,1,,,74,0
335616,note_on,,,,,0,0,2,,,,,1,,,75,93
335616,note_on,,,,,0,0,1,,,,,0,,,80,109
335616,note_off,,,,,128,0,1,,,,,0,,,79,0
335616,note_off,,,,,384,0,3,,,,,2,,,71,0
335616,note_on,,,,,0,0,3,,,,,2,,,72,90
335808,note_off,,,,,192,0,2,,,,,1,,,75,0
335808,note_off,,,,,192,0,3,,,,,2,,,72,0
335808,note_off,,,,,192,0,1,,,,,0,,,80,0
336000,note_on,,,,,192,0,3,,,,,2,,,70,90
336000,note_on,,,,,192,0,2,,,,,1,,,74,93
336000,note_on,,,,,192,0,1,,,,,0,,,79,109
336128,note_on,,,,,0,0,1,,,,,0,,,78,109
336128,note_off,,,,,128,0,1,,,,,0,,,79,0
336256,note_on,,,,,0,0,1,,,,,0,,,79,109
336256,note_off,,,,,128,0,1,,,,,0,,,78,0
336384,note_off,,,,,384,0,3,,,,,2,,,70,0
336384,note_on,,,,,0,0,3,,,,,2,,,68,90
336384,note_on,,,,,0,0,1,,,,,0,,,77,109
336384,note_off,,,,,128,0,1,,,,,0,,,79,0
336384,note_on,,,,,0,0,2,,,,,1,,,72,93
336384,note_off,,,,,384,0,2,,,,,1,,,74,0
336576,note_off,,,,,192,0,1,,,,,0,,,77,0
336576,note_off,,,,,192,0,3,,,,,2,,,68,0
336576,note_off,,,,,192,0,2,,,,,1,,,72,0
336768,note_on,,,,,192,0,2,,,,,1,,,74,93
336768,note_on,,,,,192,0,1,,,,,0,,,79,109
336768,note_on,,,,,192,0,3,,,,,2,,,70,90
336896,note_off,,,,,128,0,1,,,,,0,,,79,0
336896,note_on,,,,,0,0,1,,,,,0,,,78,109
337024,note_on,,,,,0,0,1,,,,,0,,,79,109
337024,note_off,,,,,128,0,1,,,,,0,,,78,0
337152,note_on,,,,,0,0,2,,,,,1,,,72,93
337152,note_on,,,,,0,0,1,,,,,0,,,77,109
337152,note_off,,,,,128,0,1,,,,,0,,,79,0
337152,note_off,,,,,384,0,2,,,,,1,,,74,0
337152,note_off,,,,,384,0,3,,,,,2,,,70,0
337152,note_on,,,,,0,0,3,,,,,2,,,68,90
337344,note_off,,,,,192,0,1,,,,,0,,,77,0
337536,note_off,,,,,384,0,3,,,,,2,,,68,0
337536,note_on,,,,,0,0,2,,,,,1,,,70,93
337536,note_off,,,,,384,0,2,,,,,1,,,72,0
337536,note_on,,,,,0,0,3,,,,,2,,,67,90
337536,note_on,,,,,192,0,1,,,,,0,,,75,109
337664,note_on,,,,,0,0,1,,,,,0,,,74,109
337664,note_off,,,,,128,0,1,,,,,0,,,75,0
337792,note_on,,,,,0,0,1,,,,,0,,,75,109
337792,note_off,,,,,128,0,1,,,,,0,,,74,0
337920,note_on,,,,,2688,0,4,,,,,3,,,58,90
337920,note_off,,,,,384,0,3,,,,,2,,,67,0
337920,note_on,,,,,0,0,1,,,,,0,,,75,109
337920,note_off,,,,,384,0,2,,,,,1,,,70,0
337920,note_on,,,,,0,0,2,,,,,1,,,68,93
337920,note_off,,,,,128,0,1,,,,,0,,,75,0
337920,note_on,,,,,0,0,3,,,,,2,,,65,90
338688,note_off,,,,,768,0,1,,,,,0,,,75,0
338688,note_on,,,,,0,0,1,,,,,0,,,74,109
339072,note_on,,,,,0,0,1,,,,,0,,,72,109
339072,note_on,,,,,0,0,2,,,,,1,,,67,93
339072,note_on,,,,,0,0,3,,,,,2,,,63,90
339072,note_off,,,,,1152,0,3,,,,,2,,,65,0
339072,note_off,,,,,1152,0,2,,,,,1,,,68,0
339072,note_off,,,,,384,0,1,,,,,0,,,74,0
339456,note_on,,,,,0,0,1,,,,,0,,,70,109
339456,note_off,,,,,384,0,1,,,,,0,,,72,0
339456,note_off,,,,,1536,0,4,,,,,3,,,58,0
339456,note_on,,,,,0,0,2,,,,,1,,,65,93
339456,note_off,,,,,384,0,2,,,,,1,,,67,0
339456,note_off,,,,,384,0,3,,,,,2,,,63,0
339456,note_on,,,,,0,0,3,,,,,2,,,62,90
339456,note_on,,,,,0,0,4,,,,,3,,,46,90
339840,note_on,,,,,0,0,1,,,,,0,,,68,109
339840,note_off,,,,,384,0,1,,,,,0,,,70,0
340224,note_off,,,,,768,0,2,,,,,1,,,65,0
340224,note_on,,,,,0,0,2,,,,,1,,,62,93
340224,note_on,,,,,0,0,3,,,,,2,,,56,90
340224,note_off,,,,,384,0,1,,,,,0,,,68,0
340224,note_off,,,,,768,0,3,,,,,2,,,62,0
340224,note_on,,,,,0,0,1,,,,,0,,,65,109
340608,note_off,,,,,384,0,1,,,,,0,,,65,0
340608,note_off,,,,,384,0,3,,,,,2,,,56,0
340608,note_on,,,,,0,0,3,,,,,2,,,53,90
340608,note_off,,,,,384,0,2,,,,,1,,,62,0
340608,note_on,,,,,0,0,2,,,,,1,,,56,93
340608,note_on,,,,,0,0,1,,,,,0,,,62,109
340992,note_off,,,,,384,0,2,,,,,1,,,56,0
340992,note_on,,,,,0,0,2,,,,,1,,,55,93
340992,note_off,,,,,384,0,3,,,,,2,,,53,0
340992,note_on,,,,,0,0,3,,,,,2,,,51,90
340992,note_off,,,,,384,0,1,,,,,0,,,62,0
340992,note_off,,,,,1536,0,4,,,,,3,,,46,0
340992,note_on,,,,,0,0,4,,,,,3,,,51,90
340992,note_on,,,,,0,0,1,,,,,0,,,55,109
340992,note_on,,,,,0,0,1,,,,,0,,,63,109
341088,note_on,,,,,0,0,2,,,,,1,,,55,93
341088,note_off,,,,,96,0,2,,,,,1,,,55,0
341088,note_on,,,,,0,0,3,,,,,2,,,51,90
341088,note_off,,,,,96,0,3,,,,,2,,,51,0
341184,note_on,,,,,0,0,3,,,,,2,,,55,90
341184,note_on,,,,,0,0,2,,,,,1,,,58,93
341184,note_off,,,,,96,0,2,,,,,1,,,55,0
341184,note_off,,,,,96,0,3,,,,,2,,,51,0
341280,note_on,,,,,0,0,3,,,,,2,,,55,90
341280,note_on,,,,,0,0,2,,,,,1,,,58,93
341280,note_off,,,,,96,0,3,,,,,2,,,55,0
341280,note_off,,,,,96,0,2,,,,,1,,,58,0
341376,note_off,,,,,96,0,2,,,,,1,,,58,0
341376,note_on,,,,,0,0,2,,,,,1,,,55,93
341376,note_off,,,,,96,0,3,,,,,2,,,55,0
341376,note_on,,,,,0,0,3,,,,,2,,,58,90
341472,note_on,,,,,0,0,2,,,,,1,,,55,93
341472,note_on,,,,,0,0,3,,,,,2,,,58,90
341472,note_off,,,,,96,0,3,,,,,2,,,58,0
341472,note_off,,,,,96,0,2,,,,,1,,,55,0
341568,note_off,,,,,96,0,3,,,,,2,,,58,0
341568,note_on,,,,,0,0,3,,,,,2,,,55,90
341568,note_off,,,,,96,0,2,,,,,1,,,55,0
341568,note_on,,,,,0,0,2,,,,,1,,,58,93
341664,note_on,,,,,0,0,2,,,,,1,,,58,93
341664,note_off,,,,,96,0,2,,,,,1,,,58,0
341664,note_on,,,,,0,0,3,,,,,2,,,55,90
341664,note_off,,,,,96,0,3,,,,,2,,,55,0
341760,note_on,,,,,0,0,3,,,,,2,,,58,90
341760,note_off,,,,,96,0,3,,,,,2,,,55,0
341760,note_off,,,,,96,0,2,,,,,1,,,58,0
341760,note_on,,,,,0,0,2,,,,,1,,,55,93
341856,note_off,,,,,96,0,3,,,,,2,,,58,0
341856,note_off,,,,,96,0,2,,,,,1,,,55,0
341856,note_on,,,,,0,0,2,,,,,1,,,55,93
341856,note_on,,,,,0,0,3,,,,,2,,,58,90
341952,note_on,,,,,0,0,2,,,,,1,,,58,93
341952,note_off,,,,,96,0,2,,,,,1,,,55,0
341952,note_off,,,,,96,0,3,,,,,2,,,58,0
341952,note_on,,,,,0,0,3,,,,,2,,,55,90
342048,note_off,,,,,96,0,3,,,,,2,,,55,0
342048,note_on,,,,,0,0,3,,,,,2,,,55,90
342048,note_off,,,,,96,0,2,,,,,1,,,58,0
342048,note_on,,,,,0,0,2,,,,,1,,,58,93
342144,note_on,,,,,0,0,1,,,,,0,,,64,109
342144,note_off,,,,,96,0,3,,,,,2,,,55,0
342144,note_on,,,,,0,0,3,,,,,2,,,58,90
342144,note_off,,,,,96,0,2,,,,,1,,,58,0
342144,note_on,,,,,0,0,2,,,,,1,,,55,93
342144,note_off,,,,,1152,0,1,,,,,0,,,55,0
342144,note_off,,,,,0,0,1,,,,,0,,,63,0
342144,note_off,,,,,1152,0,4,,,,,3,,,51,0
342240,note_on,,,,,0,0,3,,,,,2,,,58,90
342240,note_off,,,,,96,0,2,,,,,1,,,55,0
342240,note_on,,,,,0,0,2,,,,,1,,,55,93
342240,note_off,,,,,96,0,3,,,,,2,,,58,0
342336,note_on,,,,,0,0,2,,,,,1,,,58,93
342336,note_on,,,,,0,0,3,,,,,2,,,55,90
342336,note_off,,,,,96,0,3,,,,,2,,,58,0
342336,note_off,,,,,96,0,2,,,,,1,,,55,0
342432,note_on,,,,,0,0,3,,,,,2,,,55,90
342432,note_off,,,,,96,0,2,,,,,1,,,58,0
342432,note_on,,,,,0,0,2,,,,,1,,,58,93
342432,note_off,,,,,96,0,3,,,,,2,,,55,0
342528,note_off,,,,,96,0,2,,,,,1,,,58,0
342528,note_on,,,,,0,0,2,,,,,1,,,56,93
342528,note_on,,,,,0,0,1,,,,,0,,,65,109
342528,note_off,,,,,384,0,1,,,,,0,,,64,0
342528,note_on,,,,,0,0,3,,,,,2,,,60,90
342528,note_on,,,,,384,0,4,,,,,3,,,51,90
342528,note_off,,,,,96,0,3,,,,,2,,,55,0
342624,note_off,,,,,96,0,1,,,,,0,,,65,0
342624,note_off,,,,,96,0,3,,,,,2,,,60,0
342624,note_on,,,,,0,0,3,,,,,2,,,60,90
342624,note_off,,,,,96,0,2,,,,,1,,,56,0
342624,note_on,,,,,0,0,2,,,,,1,,,56,93
342720,note_on,,,,,0,0,3,,,,,2,,,56,90
342720,note_off,,,,,96,0,3,,,,,2,,,60,0
342720,note_off,,,,,96,0,2,,,,,1,,,56,0
342720,note_on,,,,,0,0,2,,,,,1,,,60,93
342720,note_on,,,,,96,0,1,,,,,0,,,67,109
342816,note_off,,,,,96,0,1,,,,,0,,,67,0
342816,note_on,,,,,0,0,2,,,,,1,,,60,93
342816,note_off,,,,,96,0,2,,,,,1,,,60,0
342816,note_on,,,,,0,0,3,,,,,2,,,56,90
342816,note_off,,,,,96,0,3,,,,,2,,,56,0
342912,note_on,,,,,96,0,1,,,,,0,,,68,109
342912,note_off,,,,,96,0,3,,,,,2,,,56,0
342912,note_off,,,,,384,0,4,,,,,3,,,51,0
342912,note_on,,,,,0,0,3,,,,,2,,,60,90
342912,note_on,,,,,0,0,2,,,,,1,,,56,93
342912,note_off,,,,,96,0,2,,,,,1,,,60,0
343008,note_off,,,,,96,0,1,,,,,0,,,68,0
343008,note_off,,,,,96,0,3,,,,,2,,,60,0
343008,note_on,,,,,0,0,2,,,,,1,,,56,93
343008,note_off,,,,,96,0,2,,,,,1,,,56,0
343008,note_on,,,,,0,0,3,,,,,2,,,60,90
343104,note_on,,,,,0,0,2,,,,,1,,,60,93
343104,note_on,,,,,0,0,3,,,,,2,,,56,90
343104,note_off,,,,,96,0,3,,,,,2,,,60,0
343104,note_off,,,,,96,0,2,,,,,1,,,56,0
343104,note_on,,,,,96,0,1,,,,,0,,,70,109
343200,note_on,,,,,0,0,3,,,,,2,,,56,90
343200,note_on,,,,,0,0,2,,,,,1,,,60,93
343200,note_off,,,,,96,0,2,,,,,1,,,60,0
343200,note_off,,,,,96,0,3,,,,,2,,,56,0
343200,note_off,,,,,96,0,1,,,,,0,,,70,0
343296,note_on,,,,,0,0,2,,,,,1,,,56,93
343296,note_off,,,,,96,0,2,,,,,1,,,60,0
343296,note_on,,,,,96,0,1,,,,,0,,,72,109
343296,note_on,,,,,0,0,3,,,,,2,,,53,90
343296,note_off,,,,,96,0,3,,,,,2,,,56,0
343392,note_on,,,,,0,0,2,,,,,1,,,56,93
343392,note_off,,,,,96,0,2,,,,,1,,,56,0
343392,note_on,,,,,0,0,3,,,,,2,,,53,90
343392,note_off,,,,,96,0,3,,,,,2,,,53,0
343488,note_on,,,,,0,0,3,,,,,2,,,56,90
343488,note_off,,,,,96,0,3,,,,,2,,,53,0
343488,note_off,,,,,96,0,2,,,,,1,,,56,0
343488,note_on,,,,,0,0,2,,,,,1,,,60,93
343584,note_on,,,,,0,0,3,,,,,2,,,56,90
343584,note_off,,,,,96,0,3,,,,,2,,,56,0
343584,note_on,,,,,0,0,2,,,,,1,,,60,93
343584,note_off,,,,,96,0,2,,,,,1,,,60,0
343680,note_on,,,,,0,0,3,,,,,2,,,53,90
343680,note_off,,,,,96,0,3,,,,,2,,,56,0
343680,note_on,,,,,0,0,2,,,,,1,,,56,93
343680,note_off,,,,,384,0,1,,,,,0,,,72,0
343680,note_off,,,,,96,0,2,,,,,1,,,60,0
343776,note_off,,,,,96,0,2,,,,,1,,,56,0
343776,note_on,,,,,0,0,2,,,,,1,,,56,93
343776,note_off,,,,,96,0,3,,,,,2,,,53,0
343776,note_on,,,,,0,0,3,,,,,2,,,53,90
343872,note_off,,,,,96,0,3,,,,,2,,,53,0
343872,note_off,,,,,96,0,2,,,,,1,,,56,0
343872,note_on,,,,,0,0,2,,,,,1,,,60,93
343872,note_on,,,,,0,0,3,,,,,2,,,56,90
343968,note_off,,,,,96,0,3,,,,,2,,,56,0
343968,note_on,,,,,0,0,3,,,,,2,,,56,90
343968,note_on,,,,,0,0,2,,,,,1,,,60,93
343968,note_off,,,,,96,0,2,,,,,1,,,60,0
344064,note_on,,,,,0,0,2,,,,,1,,,56,93
344064,note_on,,,,,0,0,1,,,,,0,,,62,109
344064,note_on,,,,,384,0,1,,,,,0,,,70,109
344064,note_on,,,,,0,0,3,,,,,2,,,53,90
344064,note_off,,,,,96,0,3,,,,,2,,,56,0
344064,note_on,,,,,1152,0,4,,,,,3,,,51,90
344064,note_off,,,,,96,0,2,,,,,1,,,60,0
344160,note_off,,,,,96,0,2,,,,,1,,,56,0
344160,note_on,,,,,0,0,2,,,,,1,,,56,93
344160,note_off,,,,,96,0,3,,,,,2,,,53,0
344160,note_on,,,,,0,0,3,,,,,2,,,53,90
344256,note_off,,,,,96,0,2,,,,,1,,,56,0
344256,note_on,,,,,0,0,2,,,,,1,,,58,93
344256,note_off,,,,,96,0,3,,,,,2,,,53,0
344256,note_on,,,,,0,0,3,,,,,2,,,56,90
344352,note_on,,,,,0,0,3,,,,,2,,,56,90
344352,note_off,,,,,96,0,3,,,,,2,,,56,0
344352,note_on,,,,,0,0,2,,,,,1,,,58,93
344352,note_off,,,,,96,0,2,,,,,1,,,58,0
344448,note_on,,,,,0,0,3,,,,,2,,,53,90
344448,note_off,,,,,96,0,3,,,,,2,,,56,0
344448,note_on,,,,,0,0,2,,,,,1,,,56,93
344448,note_off,,,,,96,0,2,,,,,1,,,58,0
344544,note_off,,,,,96,0,3,,,,,2,,,53,0
344544,note_on,,,,,0,0,2,,,,,1,,,56,93
344544,note_off,,,,,96,0,2,,,,,1,,,56,0
344544,note_on,,,,,0,0,3,,,,,2,,,53,90
344640,note_on,,,,,0,0,3,,,,,2,,,56,90
344640,note_on,,,,,0,0,2,,,,,1,,,58,93
344640,note_off,,,,,96,0,3,,,,,2,,,53,0
344640,note_off,,,,,96,0,2,,,,,1,,,56,0
344736,note_off,,,,,96,0,3,,,,,2,,,56,0
344736,note_on,,,,,0,0,2,,,,,1,,,58,93
344736,note_off,,,,,96,0,2,,,,,1,,,58,0
344736,note_on,,,,,0,0,3,,,,,2,,,56,90
344832,note_off,,,,,96,0,3,,,,,2,,,56,0
344832,note_on,,,,,0,0,3,,,,,2,,,53,90
344832,note_on,,,,,0,0,2,,,,,1,,,56,93
344832,note_off,,,,,96,0,2,,,,,1,,,58,0
344928,note_off,,,,,96,0,3,,,,,2,,,53,0
344928,note_on,,,,,0,0,2,,,,,1,,,56,93
344928,note_off,,,,,96,0,2,,,,,1,,,56,0
344928,note_on,,,,,0,0,3,,,,,2,,,53,90
345024,note_off,,,,,96,0,2,,,,,1,,,56,0
345024,note_on,,,,,0,0,2,,,,,1,,,58,93
345024,note_off,,,,,96,0,3,,,,,2,,,53,0
345024,note_on,,,,,0,0,3,,,,,2,,,56,90
345120,note_on,,,,,0,0,3,,,,,2,,,56,90
345120,note_on,,,,,0,0,2,,,,,1,,,58,93
345120,note_off,,,,,96,0,2,,,,,1,,,58,0
345120,note_off,,,,,96,0,3,,,,,2,,,56,0
345216,note_off,,,,,96,0,3,,,,,2,,,56,0
345216,note_on,,,,,0,0,3,,,,,2,,,53,90
345216,note_on,,,,,0,0,2,,,,,1,,,56,93
345216,note_off,,,,,96,0,2,,,,,1,,,58,0
345216,note_on,,,,,0,0,1,,,,,0,,,72,109
345216,note_off,,,,,0,0,1,,,,,0,,,70,0
345216,note_off,,,,,1152,0,1,,,,,0,,,62,0
345216,note_off,,,,,1152,0,4,,,,,3,,,51,0
345312,note_off,,,,,96,0,2,,,,,1,,,56,0
345312,note_off,,,,,96,0,1,,,,,0,,,72,0
345312,note_on,,,,,0,0,2,,,,,1,,,56,93
345312,note_off,,,,,96,0,3,,,,,2,,,53,0
345312,note_on,,,,,0,0,3,,,,,2,,,53,90
345408,note_on,,,,,96,0,1,,,,,0,,,74,109
345408,note_on,,,,,0,0,2,,,,,1,,,58,93
345408,note_off,,,,,96,0,2,,,,,1,,,56,0
345408,note_on,,,,,0,0,3,,,,,2,,,56,90
345408,note_off,,,,,96,0,3,,,,,2,,,53,0
345504,note_on,,,,,0,0,2,,,,,1,,,58,93
345504,note_off,,,,,96,0,1,,,,,0,,,74,0
345504,note_off,,,,,96,0,3,,,,,2,,,56,0
345504,note_on,,,,,0,0,3,,,,,2,,,56,90
345504,note_off,,,,,96,0,2,,,,,1,,,58,0
345600,note_off,,,,,96,0,2,,,,,1,,,58,0
345600,note_on,,,,,384,0,4,,,,,3,,,51,90
345600,note_on,,,,,96,0,1,,,,,0,,,75,109
345600,note_on,,,,,0,0,2,,,,,1,,,55,93
345600,note_off,,,,,96,0,3,,,,,2,,,56,0
345600,note_on,,,,,0,0,3,,,,,2,,,51,90
345696,note_on,,,,,0,0,2,,,,,1,,,55,93
345696,note_off,,,,,96,0,3,,,,,2,,,51,0
345696,note_on,,,,,0,0,3,,,,,2,,,51,90
345696,note_off,,,,,96,0,2,,,,,1,,,55,0
345696,note_off,,,,,96,0,1,,,,,0,,,75,0
345792,note_off,,,,,96,0,3,,,,,2,,,51,0
345792,note_on,,,,,0,0,3,,,,,2,,,53,90
345792,note_on,,,,,96,0,1,,,,,0,,,77,109
345792,note_on,,,,,0,0,2,,,,,1,,,56,93
345792,note_off,,,,,96,0,2,,,,,1,,,55,0
345888,note_off,,,,,96,0,1,,,,,0,,,77,0
345888,note_off,,,,,96,0,2,,,,,1,,,56,0
345888,note_on,,,,,0,0,2,,,,,1,,,56,93
345888,note_off,,,,,96,0,3,,,,,2,,,53,0
345888,note_on,,,,,0,0,3,,,,,2,,,53,90
345984,note_off,,,,,96,0,2,,,,,1,,,56,0
345984,note_on,,,,,0,0,2,,,,,1,,,55,93
345984,note_on,,,,,96,0,1,,,,,0,,,79,109
345984,note_off,,,,,96,0,3,,,,,2,,,53,0
345984,note_on,,,,,0,0,3,,,,,2,,,51,90
345984,note_off,,,,,384,0,4,,,,,3,,,51,0
346080,note_off,,,,,96,0,1,,,,,0,,,79,0
346080,note_off,,,,,96,0,3,,,,,2,,,51,0
346080,note_on,,,,,0,0,3,,,,,2,,,51,90
346080,note_off,,,,,96,0,2,,,,,1,,,55,0
346080,note_on,,,,,0,0,2,,,,,1,,,55,93
346176,note_on,,,,,0,0,2,,,,,1,,,56,93
346176,note_on,,,,,96,0,1,,,,,0,,,80,109
346176,note_off,,,,,96,0,3,,,,,2,,,51,0
346176,note_on,,,,,0,0,3,,,,,2,,,53,90
346176,note_off,,,,,96,0,2,,,,,1,,,55,0
346272,note_on,,,,,0,0,3,,,,,2,,,53,90
346272,note_on,,,,,0,0,2,,,,,1,,,56,93
346272,note_off,,,,,96,0,1,,,,,0,,,80,0
346272,note_off,,,,,96,0,3,,,,,2,,,53,0
346272,note_off,,,,,96,0,2,,,,,1,,,56,0
346368,note_on,,,,,96,0,1,,,,,0,,,82,109
346368,note_off,,,,,96,0,2,,,,,1,,,56,0
346368,note_on,,,,,0,0,2,,,,,1,,,58,93
346368,note_off,,,,,96,0,3,,,,,2,,,53,0
346368,note_on,,,,,0,0,3,,,,,2,,,55,90
346464,note_off,,,,,96,0,2,,,,,1,,,58,0
346464,note_on,,,,,0,0,2,,,,,1,,,58,93
346464,note_on,,,,,0,0,3,,,,,2,,,55,90
346464,note_off,,,,,96,0,3,,,,,2,,,55,0
346560,note_off,,,,,96,0,2,,,,,1,,,58,0
346560,note_on,,,,,0,0,2,,,,,1,,,57,93
346560,note_on,,,,,0,0,3,,,,,2,,,54,90
346560,note_off,,,,,96,0,3,,,,,2,,,55,0
346656,note_on,,,,,0,0,3,,,,,2,,,54,90
346656,note_off,,,,,96,0,3,,,,,2,,,54,0
346656,note_off,,,,,96,0,2,,,,,1,,,57,0
346656,note_on,,,,,0,0,2,,,,,1,,,57,93
346752,note_off,,,,,96,0,3,,,,,2,,,54,0
346752,note_on,,,,,0,0,2,,,,,1,,,58,93
346752,note_on,,,,,0,0,3,,,,,2,,,55,90
346752,note_off,,,,,384,0,1,,,,,0,,,82,0
346752,note_off,,,,,96,0,2,,,,,1,,,57,0
346848,note_on,,,,,0,0,2,,,,,1,,,58,93
346848,note_off,,,,,96,0,2,,,,,1,,,58,0
346848,note_on,,,,,0,0,3,,,,,2,,,55,90
346848,note_off,,,,,96,0,3,,,,,2,,,55,0
346944,note_on,,,,,0,0,2,,,,,1,,,55,93
346944,note_on,,,,,0,0,3,,,,,2,,,51,90
346944,note_off,,,,,96,0,3,,,,,2,,,55,0
346944,note_off,,,,,96,0,2,,,,,1,,,58,0
347040,note_off,,,,,96,0,2,,,,,1,,,55,0
347040,note_on,,,,,0,0,2,,,,,1,,,55,93
347040,note_on,,,,,0,0,3,,,,,2,,,51,90
347040,note_off,,,,,96,0,3,,,,,2,,,51,0
347136,note_off,,,,,96,0,2,,,,,1,,,55,0
347136,note_on,,,,,0,0,2,,,,,1,,,62,93
347136,note_on,,,,,1152,0,4,,,,,3,,,46,90
347136,note_on,,,,,0,0,3,,,,,2,,,53,90
347136,note_on,,,,,384,0,1,,,,,0,,,80,109
347136,note_off,,,,,96,0,3,,,,,2,,,51,0
347232,note_off,,,,,96,0,3,,,,,2,,,53,0
347232,note_on,,,,,0,0,3,,,,,2,,,53,90
347232,note_on,,,,,0,0,2,,,,,1,,,62,93
347232,note_off,,,,,96,0,2,,,,,1,,,62,0
347264,note_off,,,,,128,0,1,,,,,0,,,80,0
347264,note_on,,,,,0,0,1,,,,,0,,,79,109
347328,note_on,,,,,0,0,3,,,,,2,,,58,90
347328,note_off,,,,,96,0,3,,,,,2,,,53,0
347328,note_off,,,,,96,0,2,,,,,1,,,62,0
347328,note_on,,,,,0,0,2,,,,,1,,,58,93
347392,note_on,,,,,0,0,1,,,,,0,,,77,109
347392,note_off,,,,,128,0,1,,,,,0,,,79,0
347424,note_on,,,,,0,0,3,,,,,2,,,58,90
347424,note_off,,,,,96,0,2,,,,,1,,,58,0
347424,note_on,,,,,0,0,2,,,,,1,,,58,93
347424,note_off,,,,,96,0,3,,,,,2,,,58,0
347520,note_off,,,,,96,0,3,,,,,2,,,58,0
347520,note_on,,,,,0,0,1,,,,,0,,,77,109
347520,note_off,,,,,128,0,1,,,,,0,,,77,0
347520,note_off,,,,,384,0,4,,,,,3,,,46,0
347520,note_on,,,,,0,0,3,,,,,2,,,56,90
347520,note_off,,,,,96,0,2,,,,,1,,,58,0
347520,note_on,,,,,0,0,2,,,,,1,,,62,93
347616,note_on,,,,,0,0,2,,,,,1,,,62,93
347616,note_off,,,,,96,0,2,,,,,1,,,62,0
347616,note_on,,,,,0,0,3,,,,,2,,,56,90
347616,note_off,,,,,96,0,3,,,,,2,,,56,0
347648,note_on,,,,,0,0,1,,,,,0,,,75,109
347648,note_off,,,,,128,0,1,,,,,0,,,77,0
347712,note_off,,,,,96,0,3,,,,,2,,,56,0
347712,note_on,,,,,0,0,3,,,,,2,,,58,90
347712,note_on,,,,,0,0,2,,,,,1,,,58,93
347712,note_off,,,,,96,0,2,,,,,1,,,62,0
347776,note_off,,,,,128,0,1,,,,,0,,,75,0
347776,note_on,,,,,0,0,1,,,,,0,,,74,109
347808,note_on,,,,,0,0,3,,,,,2,,,58,90
347808,note_off,,,,,96,0,2,,,,,1,,,58,0
347808,note_on,,,,,0,0,2,,,,,1,,,58,93
347808,note_off,,,,,96,0,3,,,,,2,,,58,0
347904,note_on,,,,,0,0,1,,,,,0,,,75,109
347904,note_off,,,,,128,0,1,,,,,0,,,74,0
347904,note_on,,,,,0,0,2,,,,,1,,,63,93
347904,note_off,,,,,96,0,2,,,,,1,,,58,0
347904,note_off,,,,,96,0,3,,,,,2,,,58,0
347904,note_on,,,,,0,0,3,,,,,2,,,55,90
348000,note_off,,,,,96,0,2,,,,,1,,,63,0
348000,note_on,,,,,0,0,2,,,,,1,,,63,93
348000,note_off,,,,,96,0,3,,,,,2,,,55,0
348000,note_on,,,,,0,0,3,,,,,2,,,55,90
348096,note_off,,,,,96,0,2,,,,,1,,,63,0
348096,note_on,,,,,0,0,2,,,,,1,,,58,93
348096,note_on,,,,,0,0,3,,,,,2,,,58,90
348096,note_off,,,,,96,0,3,,,,,2,,,55,0
348192,note_off,,,,,96,0,2,,,,,1,,,58,0
348192,note_on,,,,,0,0,2,,,,,1,,,58,93
348192,note_on,,,,,0,0,3,,,,,2,,,58,90
348192,note_off,,,,,96,0,3,,,,,2,,,58,0
348288,note_off,,,,,96,0,3,,,,,2,,,58,0
348288,note_on,,,,,0,0,2,,,,,1,,,63,93
348288,note_off,,,,,96,0,2,,,,,1,,,58,0
348288,note_on,,,,,0,0,3,,,,,2,,,55,90
348288,note_off,,,,,384,0,1,,,,,0,,,75,0
348288,note_on,,,,,0,0,1,,,,,0,,,70,109
348384,note_off,,,,,96,0,3,,,,,2,,,55,0
348384,note_on,,,,,0,0,3,,,,,2,,,55,90
348384,note_on,,,,,0,0,2,,,,,1,,,63,93
348384,note_off,,,,,96,0,2,,,,,1,,,63,0
348480,note_off,,,,,96,0,3,,,,,2,,,55,0
348480,note_on,,,,,0,0,2,,,,,1,,,58,93
348480,note_off,,,,,96,0,2,,,,,1,,,63,0
348480,note_off,,,,,192,0,1,,,,,0,,,70,0
348480,note_on,,,,,0,0,3,,,,,2,,,58,90
348576,note_on,,,,,0,0,2,,,,,1,,,58,93
348576,note_off,,,,,96,0,2,,,,,1,,,58,0
348576,note_on,,,,,0,0,3,,,,,2,,,58,90
348576,note_off,,,,,96,0,3,,,,,2,,,58,0
348672,note_on,,,,,0,0,2,,,,,1,,,62,93
348672,note_on,,,,,0,0,3,,,,,2,,,53,90
348672,note_on,,,,,1152,0,4,,,,,3,,,46,90
348672,note_on,,,,,192,0,1,,,,,0,,,80,109
348672,note_off,,,,,96,0,2,,,,,1,,,58,0
348672,note_off,,,,,96,0,3,,,,,2,,,58,0
348768,note_on,,,,,0,0,2,,,,,1,,,62,93
348768,note_on,,,,,0,0,3,,,,,2,,,53,90
348768,note_off,,,,,96,0,2,,,,,1,,,62,0
348768,note_off,,,,,96,0,3,,,,,2,,,53,0
348800,note_off,,,,,128,0,1,,,,,0,,,80,0
348800,note_on,,,,,0,0,1,,,,,0,,,79,109
348864,note_on,,,,,0,0,2,,,,,1,,,58,93
348864,note_on,,,,,0,0,3,,,,,2,,,58,90
348864,note_off,,,,,96,0,2,,,,,1,,,62,0
348864,note_off,,,,,96,0,3,,,,,2,,,53,0
348928,note_off,,,,,128,0,1,,,,,0,,,79,0
348928,note_on,,,,,0,0,1,,,,,0,,,77,109
348960,note_off,,,,,96,0,2,,,,,1,,,58,0
348960,note_on,,,,,0,0,3,,,,,2,,,58,90
348960,note_on,,,,,0,0,2,,,,,1,,,58,93
348960,note_off,,,,,96,0,3,,,,,2,,,58,0
349056,note_off,,,,,96,0,3,,,,,2,,,58,0
349056,note_on,,,,,0,0,3,,,,,2,,,56,90
349056,note_off,,,,,96,0,2,,,,,1,,,58,0
349056,note_on,,,,,0,0,1,,,,,0,,,77,109
349056,note_off,,,,,128,0,1,,,,,0,,,77,0
349056,note_off,,,,,384,0,4,,,,,3,,,46,0
349056,note_on,,,,,0,0,2,,,,,1,,,62,93
349152,note_off,,,,,96,0,2,,,,,1,,,62,0
349152,note_on,,,,,0,0,2,,,,,1,,,62,93
349152,note_on,,,,,0,0,3,,,,,2,,,56,90
349152,note_off,,,,,96,0,3,,,,,2,,,56,0
349184,note_off,,,,,128,0,1,,,,,0,,,77,0
349184,note_on,,,,,0,0,1,,,,,0,,,75,109
349248,note_off,,,,,96,0,2,,,,,1,,,62,0
349248,note_on,,,,,0,0,2,,,,,1,,,58,93
349248,note_off,,,,,96,0,3,,,,,2,,,56,0
349248,note_on,,,,,0,0,3,,,,,2,,,58,90
349312,note_on,,,,,0,0,1,,,,,0,,,74,109
349312,note_off,,,,,128,0,1,,,,,0,,,75,0
349344,note_on,,,,,0,0,3,,,,,2,,,58,90
349344,note_on,,,,,0,0,2,,,,,1,,,58,93
349344,note_off,,,,,96,0,2,,,,,1,,,58,0
349344,note_off,,,,,96,0,3,,,,,2,,,58,0
349440,note_on,,,,,0,0,3,,,,,2,,,55,90
349440,note_on,,,,,0,0,1,,,,,0,,,75,109
349440,note_off,,,,,96,0,3,,,,,2,,,58,0
349440,note_on,,,,,0,0,2,,,,,1,,,63,93
349440,note_off,,,,,128,0,1,,,,,0,,,74,0
349440,note_off,,,,,96,0,2,,,,,1,,,58,0
349536,note_off,,,,,96,0,2,,,,,1,,,63,0
349536,note_on,,,,,0,0,2,,,,,1,,,63,93
349536,note_on,,,,,0,0,3,,,,,2,,,55,90
349536,note_off,,,,,96,0,3,,,,,2,,,55,0
349632,note_off,,,,,96,0,2,,,,,1,,,63,0
349632,note_on,,,,,0,0,2,,,,,1,,,58,93
349632,note_on,,,,,0,0,3,,,,,2,,,58,90
349632,note_off,,,,,96,0,3,,,,,2,,,55,0
349728,note_off,,,,,96,0,2,,,,,1,,,58,0
349728,note_on,,,,,0,0,2,,,,,1,,,58,93
349728,note_on,,,,,0,0,3,,,,,2,,,58,90
349728,note_off,,,,,96,0,3,,,,,2,,,58,0
349824,note_off,,,,,384,0,1,,,,,0,,,75,0
349824,note_on,,,,,0,0,3,,,,,2,,,55,90
349824,note_on,,,,,0,0,1,,,,,0,,,82,109
349824,note_on,,,,,0,0,2,,,,,1,,,63,93
349824,note_off,,,,,96,0,2,,,,,1,,,58,0
349824,note_off,,,,,96,0,3,,,,,2,,,58,0
349920,note_on,,,,,0,0,2,,,,,1,,,63,93
349920,note_off,,,,,96,0,2,,,,,1,,,63,0
349920,note_on,,,,,0,0,3,,,,,2,,,55,90
349920,note_off,,,,,96,0,3,,,,,2,,,55,0
350016,note_on,,,,,0,0,2,,,,,1,,,58,93
350016,note_off,,,,,96,0,2,,,,,1,,,63,0
350016,note_off,,,,,192,0,1,,,,,0,,,82,0
350016,note_on,,,,,0,0,3,,,,,2,,,58,90
350016,note_off,,,,,96,0,3,,,,,2,,,55,0
350112,note_off,,,,,96,0,2,,,,,1,,,58,0
350112,note_on,,,,,0,0,3,,,,,2,,,58,90
350112,note_off,,,,,96,0,3,,,,,2,,,58,0
350112,note_on,,,,,0,0,2,,,,,1,,,58,93
350208,note_on,,,,,0,0,3,,,,,2,,,53,90
350208,note_on,,,,,192,0,1,,,,,0,,,80,109
350208,note_on,,,,,0,0,2,,,,,1,,,62,93
350208,note_off,,,,,96,0,2,,,,,1,,,58,0
350208,note_on,,,,,1152,0,4,,,,,3,,,46,90
350208,note_off,,,,,96,0,3,,,,,2,,,58,0
350304,note_off,,,,,96,0,3,,,,,2,,,53,0
350304,note_on,,,,,0,0,3,,,,,2,,,53,90
350304,note_on,,,,,0,0,2,,,,,1,,,62,93
350304,note_off,,,,,96,0,2,,,,,1,,,62,0
350336,note_on,,,,,0,0,1,,,,,0,,,79,109
350336,note_off,,,,,128,0,1,,,,,0,,,80,0
350400,note_off,,,,,96,0,2,,,,,1,,,62,0
350400,note_on,,,,,0,0,3,,,,,2,,,58,90
350400,note_off,,,,,96,0,3,,,,,2,,,53,0
350400,note_on,,,,,0,0,2,,,,,1,,,58,93
350464,note_on,,,,,0,0,1,,,,,0,,,77,109
350464,note_off,,,,,128,0,1,,,,,0,,,79,0
350496,note_on,,,,,0,0,3,,,,,2,,,58,90
350496,note_off,,,,,96,0,3,,,,,2,,,58,0
350496,note_on,,,,,0,0,2,,,,,1,,,58,93
350496,note_off,,,,,96,0,2,,,,,1,,,58,0
350592,note_on,,,,,0,0,2,,,,,1,,,62,93
350592,note_on,,,,,0,0,1,,,,,0,,,77,109
350592,note_off,,,,,128,0,1,,,,,0,,,77,0
350592,note_off,,,,,96,0,2,,,,,1,,,58,0
350592,note_off,,,,,96,0,3,,,,,2,,,58,0
350592,note_on,,,,,0,0,3,,,,,2,,,56,90
350592,note_off,,,,,384,0,4,,,,,3,,,46,0
350688,note_off,,,,,96,0,3,,,,,2,,,56,0
350688,note_on,,,,,0,0,3,,,,,2,,,56,90
350688,note_off,,,,,96,0,2,,,,,1,,,62,0
350688,note_on,,,,,0,0,2,,,,,1,,,62,93
350720,note_on,,,,,0,0,1,,,,,0,,,75,109
350720,note_off,,,,,128,0,1,,,,,0,,,77,0
350784,note_off,,,,,96,0,3,,,,,2,,,56,0
350784,note_on,,,,,0,0,2,,,,,1,,,58,93
350784,note_off,,,,,96,0,2,,,,,1,,,62,0
350784,note_on,,,,,0,0,3,,,,,2,,,58,90
350848,note_off,,,,,128,0,1,,,,,0,,,75,0
350848,note_on,,,,,0,0,1,,,,,0,,,74,109
350880,note_on,,,,,0,0,2,,,,,1,,,58,93
350880,note_on,,,,,0,0,3,,,,,2,,,58,90
350880,note_off,,,,,96,0,3,,,,,2,,,58,0
350880,note_off,,,,,96,0,2,,,,,1,,,58,0
350976,note_on,,,,,0,0,3,,,,,2,,,55,90
350976,note_off,,,,,96,0,3,,,,,2,,,58,0
350976,note_off,,,,,96,0,2,,,,,1,,,58,0
350976,note_on,,,,,0,0,1,,,,,0,,,75,109
350976,note_off,,,,,128,0,1,,,,,0,,,74,0
350976,note_on,,,,,0,0,2,,,,,1,,,63,93
351072,note_on,,,,,0,0,2,,,,,1,,,63,93
351072,note_on,,,,,0,0,3,,,,,2,,,55,90
351072,note_off,,,,,96,0,3,,,,,2,,,55,0
351072,note_off,,,,,96,0,2,,,,,1,,,63,0
351168,note_off,,,,,96,0,2,,,,,1,,,63,0
351168,note_off,,,,,96,0,3,,,,,2,,,55,0
351168,note_on,,,,,0,0,3,,,,,2,,,58,90
351168,note_on,,,,,0,0,2,,,,,1,,,58,93
351264,note_off,,,,,96,0,2,,,,,1,,,58,0
351264,note_off,,,,,96,0,3,,,,,2,,,58,0
351264,note_on,,,,,0,0,3,,,,,2,,,58,90
351264,note_on,,,,,0,0,2,,,,,1,,,58,93
351360,note_on,,,,,0,0,1,,,,,0,,,70,109
351360,note_on,,,,,0,0,2,,,,,1,,,63,93
351360,note_off,,,,,96,0,3,,,,,2,,,58,0
351360,note_on,,,,,0,0,3,,,,,2,,,55,90
351360,note_off,,,,,384,0,1,,,,,0,,,75,0
351360,note_off,,,,,96,0,2,,,,,1,,,58,0
351456,note_off,,,,,96,0,2,,,,,1,,,63,0
351456,note_on,,,,,0,0,2,,,,,1,,,63,93
351456,note_off,,,,,96,0,3,,,,,2,,,55,0
351456,note_on,,,,,0,0,3,,,,,2,,,55,90
351552,note_on,,,,,0,0,3,,,,,2,,,58,90
351552,note_off,,,,,96,0,3,,,,,2,,,55,0
351552,note_off,,,,,192,0,1,,,,,0,,,70,0
351552,note_off,,,,,96,0,2,,,,,1,,,63,0
351552,note_on,,,,,0,0,2,,,,,1,,,58,93
351648,note_off,,,,,96,0,2,,,,,1,,,58,0
351648,note_on,,,,,0,0,2,,,,,1,,,58,93
351648,note_on,,,,,0,0,3,,,,,2,,,58,90
351648,note_off,,,,,96,0,3,,,,,2,,,58,0
351744,note_on,,,,,192,0,1,,,,,0,,,80,109
351744,note_on,,,,,1152,0,4,,,,,3,,,46,90
351744,note_off,,,,,96,0,2,,,,,1,,,58,0
351744,note_on,,,,,0,0,2,,,,,1,,,62,93
351744,note_on,,,,,0,0,3,,,,,2,,,53,90
351744,note_off,,,,,96,0,3,,,,,2,,,58,0
351840,note_off,,,,,96,0,3,,,,,2,,,53,0
351840,note_off,,,,,96,0,2,,,,,1,,,62,0
351840,note_on,,,,,0,0,2,,,,,1,,,62,93
351840,note_on,,,,,0,0,3,,,,,2,,,53,90
351872,note_on,,,,,0,0,1,,,,,0,,,82,109
351872,note_off,,,,,128,0,1,,,,,0,,,80,0
351936,note_on,,,,,0,0,2,,,,,1,,,58,93
351936,note_off,,,,,96,0,2,,,,,1,,,62,0
351936,note_off,,,,,96,0,3,,,,,2,,,53,0
351936,note_on,,,,,0,0,3,,,,,2,,,58,90
352000,note_on,,,,,0,0,1,,,,,0,,,84,109
352000,note_off,,,,,128,0,1,,,,,0,,,82,0
352032,note_off,,,,,96,0,2,,,,,1,,,58,0
352032,note_on,,,,,0,0,2,,,,,1,,,58,93
352032,note_on,,,,,0,0,3,,,,,2,,,58,90
352032,note_off,,,,,96,0,3,,,,,2,,,58,0
352128,note_on,,,,,0,0,1,,,,,0,,,77,109
352128,note_on,,,,,0,0,3,,,,,2,,,56,90
352128,note_off,,,,,96,0,2,,,,,1,,,58,0
352128,note_on,,,,,0,0,2,,,,,1,,,62,93
352128,note_off,,,,,96,0,3,,,,,2,,,58,0
352128,note_off,,,,,128,0,1,,,,,0,,,84,0
352128,note_off,,,,,384,0,4,,,,,3,,,46,0
352224,note_off,,,,,96,0,2,,,,,1,,,62,0
352224,note_off,,,,,96,0,3,,,,,2,,,56,0
352224,note_on,,,,,0,0,2,,,,,1,,,62,93
352224,note_on,,,,,0,0,3,,,,,2,,,56,90
352256,note_off,,,,,128,0,1,,,,,0,,,77,0
352256,note_on,,,,,0,0,1,,,,,0,,,79,109
352320,note_on,,,,,0,0,3,,,,,2,,,58,90
352320,note_off,,,,,96,0,3,,,,,2,,,56,0
352320,note_off,,,,,96,0,2,,,,,1,,,62,0
352320,note_on,,,,,0,0,2,,,,,1,,,58,93
352384,note_off,,,,,128,0,1,,,,,0,,,79,0
352384,note_on,,,,,0,0,1,,,,,0,,,80,109
352416,note_on,,,,,0,0,3,,,,,2,,,58,90
352416,note_off,,,,,96,0,3,,,,,2,,,58,0
352416,note_off,,,,,96,0,2,,,,,1,,,58,0
352416,note_on,,,,,0,0,2,,,,,1,,,58,93
352512,note_off,,,,,96,0,3,,,,,2,,,58,0
352512,note_off,,,,,128,0,1,,,,,0,,,80,0
352512,note_on,,,,,0,0,1,,,,,0,,,79,109
352512,note_off,,,,,96,0,2,,,,,1,,,58,0
352512,note_on,,,,,0,0,3,,,,,2,,,51,90
352512,note_on,,,,,0,0,2,,,,,1,,,63,93
352512,note_on,,,,,384,0,4,,,,,3,,,39,90
352608,note_off,,,,,96,0,2,,,,,1,,,63,0
352608,note_on,,,,,0,0,2,,,,,1,,,63,93
352608,note_off,,,,,96,0,3,,,,,2,,,51,0
352608,note_on,,,,,0,0,3,,,,,2,,,51,90
352704,note_on,,,,,0,0,3,,,,,2,,,58,90
352704,note_off,,,,,96,0,3,,,,,2,,,51,0
352704,note_on,,,,,0,0,2,,,,,1,,,58,93
352704,note_off,,,,,96,0,2,,,,,1,,,63,0
352800,note_off,,,,,96,0,3,,,,,2,,,58,0
352800,note_on,,,,,0,0,2,,,,,1,,,58,93
352800,note_off,,,,,96,0,2,,,,,1,,,58,0
352800,note_on,,,,,0,0,3,,,,,2,,,58,90
352896,note_on,,,,,0,0,3,,,,,2,,,55,90
352896,note_off,,,,,384,0,1,,,,,0,,,79,0
352896,note_off,,,,,96,0,2,,,,,1,,,58,0
352896,note_on,,,,,0,0,2,,,,,1,,,63,93
352896,note_off,,,,,384,0,4,,,,,3,,,39,0
352896,note_off,,,,,96,0,3,,,,,2,,,58,0
352896,note_on,,,,,0,0,1,,,,,0,,,82,109
352992,note_on,,,,,0,0,2,,,,,1,,,63,93
352992,note_on,,,,,0,0,3,,,,,2,,,55,90
352992,note_off,,,,,96,0,3,,,,,2,,,55,0
352992,note_off,,,,,96,0,2,,,,,1,,,63,0
353088,note_off,,,,,192,0,1,,,,,0,,,82,0
353088,note_on,,,,,0,0,3,,,,,2,,,58,90
353088,note_off,,,,,96,0,2,,,,,1,,,63,0
353088,note_on,,,,,0,0,2,,,,,1,,,58,93
353088,note_off,,,,,96,0,3,,,,,2,,,55,0
353184,note_on,,,,,0,0,3,,,,,2,,,58,90
353184,note_off,,,,,96,0,2,,,,,1,,,58,0
353184,note_on,,,,,0,0,2,,,,,1,,,58,93
353184,note_off,,,,,96,0,3,,,,,2,,,58,0
353280,note_on,,,,,0,0,1,,,,,0,,,63,109
353280,note_on,,,,,192,0,1,,,,,0,,,55,109
353280,note_off,,,,,96,0,2,,,,,1,,,58,0
353280,note_on,,,,,0,0,2,,,,,1,,,55,93
353280,note_on,,,,,384,0,4,,,,,3,,,51,90
353280,note_off,,,,,96,0,3,,,,,2,,,58,0
353280,note_on,,,,,0,0,3,,,,,2,,,51,90
353376,note_on,,,,,0,0,3,,,,,2,,,51,90
353376,note_off,,,,,96,0,3,,,,,2,,,51,0
353376,note_off,,,,,96,0,2,,,,,1,,,55,0
353376,note_on,,,,,0,0,2,,,,,1,,,55,93
353472,note_on,,,,,0,0,3,,,,,2,,,55,90
353472,note_off,,,,,96,0,3,,,,,2,,,51,0
353472,note_off,,,,,96,0,2,,,,,1,,,55,0
353472,note_on,,,,,0,0,2,,,,,1,,,58,93
353568,note_on,,,,,0,0,3,,,,,2,,,55,90
353568,note_off,,,,,96,0,2,,,,,1,,,58,0
353568,note_on,,,,,0,0,2,,,,,1,,,58,93
353568,note_off,,,,,96,0,3,,,,,2,,,55,0
353664,note_off,,,,,96,0,2,,,,,1,,,58,0
353664,note_off,,,,,96,0,3,,,,,2,,,55,0
353664,note_on,,,,,0,0,3,,,,,2,,,58,90
353664,note_on,,,,,0,0,2,,,,,1,,,55,93
353760,note_off,,,,,96,0,3,,,,,2,,,58,0
353760,note_on,,,,,0,0,3,,,,,2,,,58,90
353760,note_off,,,,,96,0,2,,,,,1,,,55,0
353760,note_on,,,,,0,0,2,,,,,1,,,55,93
353856,note_off,,,,,96,0,2,,,,,1,,,55,0
353856,note_off,,,,,96,0,3,,,,,2,,,58,0
353856,note_on,,,,,0,0,3,,,,,2,,,55,90
353856,note_on,,,,,0,0,2,,,,,1,,,58,93
353952,note_on,,,,,0,0,2,,,,,1,,,58,93
353952,note_off,,,,,96,0,3,,,,,2,,,55,0
353952,note_on,,,,,0,0,3,,,,,2,,,55,90
353952,note_off,,,,,96,0,2,,,,,1,,,58,0
354048,note_off,,,,,96,0,3,,,,,2,,,55,0
354048,note_on,,,,,0,0,3,,,,,2,,,58,90
354048,note_on,,,,,0,0,2,,,,,1,,,55,93
354048,note_off,,,,,96,0,2,,,,,1,,,58,0
354144,note_on,,,,,0,0,3,,,,,2,,,58,90
354144,note_on,,,,,0,0,2,,,,,1,,,55,93
354144,note_off,,,,,96,0,2,,,,,1,,,55,0
354144,note_off,,,,,96,0,3,,,,,2,,,58,0
354240,note_on,,,,,0,0,3,,,,,2,,,55,90
354240,note_off,,,,,96,0,2,,,,,1,,,55,0
354240,note_on,,,,,0,0,2,,,,,1,,,58,93
354240,note_off,,,,,96,0,3,,,,,2,,,58,0
354336,note_off,,,,,96,0,2,,,,,1,,,58,0
354336,note_on,,,,,0,0,2,,,,,1,,,58,93
354336,note_off,,,,,96,0,3,,,,,2,,,55,0
354336,note_on,,,,,0,0,3,,,,,2,,,55,90
354432,note_on,,,,,0,0,2,,,,,1,,,55,93
354432,note_off,,,,,96,0,3,,,,,2,,,55,0
354432,note_off,,,,,1152,0,1,,,,,0,,,55,0
354432,note_off,,,,,0,0,1,,,,,0,,,63,0
354432,note_on,,,,,0,0,1,,,,,0,,,64,109
354432,note_off,,,,,1152,0,4,,,,,3,,,51,0
354432,note_off,,,,,96,0,2,,,,,1,,,58,0
354432,note_on,,,,,0,0,3,,,,,2,,,58,90
354528,note_on,,,,,0,0,3,,,,,2,,,58,90
354528,note_off,,,,,96,0,2,,,,,1,,,55,0
354528,note_on,,,,,0,0,2,,,,,1,,,55,93
354528,note_off,,,,,96,0,3,,,,,2,,,58,0
354624,note_off,,,,,96,0,3,,,,,2,,,58,0
354624,note_on,,,,,0,0,3,,,,,2,,,55,90
354624,note_off,,,,,96,0,2,,,,,1,,,55,0
354624,note_on,,,,,0,0,2,,,,,1,,,58,93
354720,note_off,,,,,96,0,2,,,,,1,,,58,0
354720,note_on,,,,,0,0,2,,,,,1,,,58,93
354720,note_off,,,,,96,0,3,,,,,2,,,55,0
354720,note_on,,,,,0,0,3,,,,,2,,,55,90
354816,note_off,,,,,96,0,3,,,,,2,,,55,0
354816,note_on,,,,,0,0,3,,,,,2,,,60,90
354816,note_on,,,,,384,0,4,,,,,3,,,51,90
354816,note_off,,,,,96,0,2,,,,,1,,,58,0
354816,note_on,,,,,0,0,2,,,,,1,,,56,93
354816,note_off,,,,,384,0,1,,,,,0,,,64,0
354816,note_on,,,,,0,0,1,,,,,0,,,65,109
354912,note_off,,,,,96,0,2,,,,,1,,,56,0
354912,note_on,,,,,0,0,2,,,,,1,,,56,93
354912,note_on,,,,,0,0,3,,,,,2,,,60,90
354912,note_off,,,,,96,0,1,,,,,0,,,65,0
354912,note_off,,,,,96,0,3,,,,,2,,,60,0
355008,note_on,,,,,96,0,1,,,,,0,,,67,109
355008,note_on,,,,,0,0,2,,,,,1,,,60,93
355008,note_on,,,,,0,0,3,,,,,2,,,56,90
355008,note_off,,,,,96,0,3,,,,,2,,,60,0
355008,note_off,,,,,96,0,2,,,,,1,,,56,0
355104,note_off,,,,,96,0,3,,,,,2,,,56,0
355104,note_off,,,,,96,0,1,,,,,0,,,67,0
355104,note_on,,,,,0,0,2,,,,,1,,,60,93
355104,note_off,,,,,96,0,2,,,,,1,,,60,0
355104,note_on,,,,,0,0,3,,,,,2,,,56,90
355200,note_off,,,,,96,0,2,,,,,1,,,60,0
355200,note_on,,,,,0,0,3,,,,,2,,,60,90
355200,note_on,,,,,96,0,1,,,,,0,,,68,109
355200,note_off,,,,,96,0,3,,,,,2,,,56,0
355200,note_on,,,,,0,0,2,,,,,1,,,56,93
355200,note_off,,,,,384,0,4,,,,,3,,,51,0
355296,note_off,,,,,96,0,1,,,,,0,,,68,0
355296,note_on,,,,,0,0,3,,,,,2,,,60,90
355296,note_off,,,,,96,0,2,,,,,1,,,56,0
355296,note_on,,,,,0,0,2,,,,,1,,,56,93
355296,note_off,,,,,96,0,3,,,,,2,,,60,0
355392,note_off,,,,,96,0,2,,,,,1,,,56,0
355392,note_off,,,,,96,0,3,,,,,2,,,60,0
355392,note_on,,,,,0,0,3,,,,,2,,,56,90
355392,note_on,,,,,0,0,2,,,,,1,,,60,93
355392,note_on,,,,,96,0,1,,,,,0,,,70,109
355488,note_off,,,,,96,0,2,,,,,1,,,60,0
355488,note_on,,,,,0,0,2,,,,,1,,,60,93
355488,note_off,,,,,96,0,3,,,,,2,,,56,0
355488,note_on,,,,,0,0,3,,,,,2,,,56,90
355488,note_off,,,,,96,0,1,,,,,0,,,70,0
355584,note_off,,,,,96,0,3,,,,,2,,,56,0
355584,note_on,,,,,0,0,3,,,,,2,,,53,90
355584,note_off,,,,,96,0,2,,,,,1,,,60,0
355584,note_on,,,,,96,0,1,,,,,0,,,72,109
355584,note_on,,,,,0,0,2,,,,,1,,,56,93
355680,note_on,,,,,0,0,2,,,,,1,,,56,93
355680,note_off,,,,,96,0,3,,,,,2,,,53,0
355680,note_on,,,,,0,0,3,,,,,2,,,53,90
355680,note_off,,,,,96,0,2,,,,,1,,,56,0
355776,note_off,,,,,96,0,3,,,,,2,,,53,0
355776,note_off,,,,,96,0,2,,,,,1,,,56,0
355776,note_on,,,,,0,0,2,,,,,1,,,60,93
355776,note_on,,,,,0,0,3,,,,,2,,,56,90
355872,note_off,,,,,96,0,2,,,,,1,,,60,0
355872,note_on,,,,,0,0,2,,,,,1,,,60,93
355872,note_off,,,,,96,0,3,,,,,2,,,56,0
355872,note_on,,,,,0,0,3,,,,,2,,,56,90
355968,note_on,,,,,0,0,2,,,,,1,,,56,93
355968,note_on,,,,,0,0,3,,,,,2,,,53,90
355968,note_off,,,,,96,0,2,,,,,1,,,60,0
355968,note_off,,,,,96,0,3,,,,,2,,,56,0
355968,note_off,,,,,384,0,1,,,,,0,,,72,0
356064,note_off,,,,,96,0,3,,,,,2,,,53,0
356064,note_off,,,,,96,0,2,,,,,1,,,56,0
356064,note_on,,,,,0,0,2,,,,,1,,,56,93
356064,note_on,,,,,0,0,3,,,,,2,,,53,90
356160,note_off,,,,,96,0,2,,,,,1,,,56,0
356160,note_on,,,,,0,0,2,,,,,1,,,60,93
356160,note_on,,,,,0,0,3,,,,,2,,,56,90
356160,note_off,,,,,96,0,3,,,,,2,,,53,0
356256,note_off,,,,,96,0,2,,,,,1,,,60,0
356256,note_on,,,,,0,0,3,,,,,2,,,56,90
356256,note_off,,,,,96,0,3,,,,,2,,,56,0
356256,note_on,,,,,0,0,2,,,,,1,,,60,93
356352,note_off,,,,,96,0,3,,,,,2,,,56,0
356352,note_on,,,,,0,0,1,,,,,0,,,62,109
356352,note_on,,,,,384,0,1,,,,,0,,,70,109
356352,note_on,,,,,0,0,2,,,,,1,,,56,93
356352,note_off,,,,,96,0,2,,,,,1,,,60,0
356352,note_on,,,,,0,0,3,,,,,2,,,53,90
356352,note_on,,,,,1152,0,4,,,,,3,,,51,90
356448,note_off,,,,,96,0,3,,,,,2,,,53,0
356448,note_on,,,,,0,0,3,,,,,2,,,53,90
356448,note_on,,,,,0,0,2,,,,,1,,,56,93
356448,note_off,,,,,96,0,2,,,,,1,,,56,0
356544,note_off,,,,,96,0,3,,,,,2,,,53,0
356544,note_on,,,,,0,0,3,,,,,2,,,56,90
356544,note_on,,,,,0,0,2,,,,,1,,,58,93
356544,note_off,,,,,96,0,2,,,,,1,,,56,0
356640,note_off,,,,,96,0,3,,,,,2,,,56,0
356640,note_on,,,,,0,0,3,,,,,2,,,56,90
356640,note_off,,,,,96,0,2,,,,,1,,,58,0
356640,note_on,,,,,0,0,2,,,,,1,,,58,93
356736,note_off,,,,,96,0,2,,,,,1,,,58,0
356736,note_on,,,,,0,0,2,,,,,1,,,56,93
356736,note_off,,,,,96,0,3,,,,,2,,,56,0
356736,note_on,,,,,0,0,3,,,,,2,,,53,90
356832,note_off,,,,,96,0,2,,,,,1,,,56,0
356832,note_on,,,,,0,0,2,,,,,1,,,56,93
356832,note_off,,,,,96,0,3,,,,,2,,,53,0
356832,note_on,,,,,0,0,3,,,,,2,,,53,90
356928,note_on,,,,,0,0,2,,,,,1,,,58,93
356928,note_on,,,,,0,0,3,,,,,2,,,56,90
356928,note_off,,,,,96,0,3,,,,,2,,,53,0
356928,note_off,,,,,96,0,2,,,,,1,,,56,0
357024,note_on,,,,,0,0,2,,,,,1,,,58,93
357024,note_off,,,,,96,0,3,,,,,2,,,56,0
357024,note_on,,,,,0,0,3,,,,,2,,,56,90
357024,note_off,,,,,96,0,2,,,,,1,,,58,0
357120,note_off,,,,,96,0,3,,,,,2,,,56,0
357120,note_off,,,,,96,0,2,,,,,1,,,58,0
357120,note_on,,,,,0,0,2,,,,,1,,,56,93
357120,note_on,,,,,0,0,3,,,,,2,,,53,90
357216,note_on,,,,,0,0,2,,,,,1,,,56,93
357216,note_off,,,,,96,0,3,,,,,2,,,53,0
357216,note_on,,,,,0,0,3,,,,,2,,,53,90
357216,note_off,,,,,96,0,2,,,,,1,,,56,0
357312,note_off,,,,,96,0,2,,,,,1,,,56,0
357312,note_on,,,,,0,0,2,,,,,1,,,58,93
357312,note_off,,,,,96,0,3,,,,,2,,,53,0
357312,note_on,,,,,0,0,3,,,,,2,,,56,90
357408,note_off,,,,,96,0,3,,,,,2,,,56,0
357408,note_off,,,,,96,0,2,,,,,1,,,58,0
357408,note_on,,,,,0,0,2,,,,,1,,,58,93
357408,note_on,,,,,0,0,3,,,,,2,,,56,90
357504,note_off,,,,,96,0,2,,,,,1,,,58,0
357504,note_on,,,,,0,0,2,,,,,1,,,56,93
357504,note_off,,,,,96,0,3,,,,,2,,,56,0
357504,note_off,,,,,1152,0,1,,,,,0,,,62,0
357504,note_off,,,,,0,0,1,,,,,0,,,70,0
357504,note_on,,,,,0,0,1,,,,,0,,,72,109
357504,note_on,,,,,0,0,3,,,,,2,,,53,90
357504,note_off,,,,,1152,0,4,,,,,3,,,51,0
357600,note_off,,,,,96,0,3,,,,,2,,,53,0
357600,note_on,,,,,0,0,3,,,,,2,,,53,90
357600,note_on,,,,,0,0,2,,,,,1,,,56,93
357600,note_off,,,,,96,0,2,,,,,1,,,56,0
357600,note_off,,,,,96,0,1,,,,,0,,,72,0
357696,note_on,,,,,96,0,1,,,,,0,,,74,109
357696,note_off,,,,,96,0,2,,,,,1,,,56,0
357696,note_off,,,,,96,0,3,,,,,2,,,53,0
357696,note_on,,,,,0,0,3,,,,,2,,,56,90
357696,note_on,,,,,0,0,2,,,,,1,,,58,93
357792,note_on,,,,,0,0,3,,,,,2,,,56,90
357792,note_off,,,,,96,0,2,,,,,1,,,58,0
357792,note_on,,,,,0,0,2,,,,,1,,,58,93
357792,note_off,,,,,96,0,3,,,,,2,,,56,0
357792,note_off,,,,,96,0,1,,,,,0,,,74,0
357888,note_off,,,,,96,0,3,,,,,2,,,56,0
357888,note_on,,,,,96,0,1,,,,,0,,,75,109
357888,note_on,,,,,0,0,3,,,,,2,,,51,90
357888,note_on,,,,,384,0,4,,,,,3,,,51,90
357888,note_on,,,,,0,0,2,,,,,1,,,55,93
357888,note_off,,,,,96,0,2,,,,,1,,,58,0
357984,note_off,,,,,96,0,1,,,,,0,,,75,0
357984,note_on,,,,,0,0,2,,,,,1,,,55,93
357984,note_off,,,,,96,0,3,,,,,2,,,51,0
357984,note_on,,,,,0,0,3,,,,,2,,,51,90
357984,note_off,,,,,96,0,2,,,,,1,,,55,0
358080,note_off,,,,,96,0,2,,,,,1,,,55,0
358080,note_on,,,,,0,0,2,,,,,1,,,56,93
358080,note_off,,,,,96,0,3,,,,,2,,,51,0
358080,note_on,,,,,0,0,3,,,,,2,,,53,90
358080,note_on,,,,,96,0,1,,,,,0,,,77,109
358176,note_on,,,,,0,0,2,,,,,1,,,56,93
358176,note_off,,,,,96,0,1,,,,,0,,,77,0
358176,note_on,,,,,0,0,3,,,,,2,,,53,90
358176,note_off,,,,,96,0,3,,,,,2,,,53,0
358176,note_off,,,,,96,0,2,,,,,1,,,56,0
358272,note_on,,,,,96,0,1,,,,,0,,,79,109
358272,note_off,,,,,384,0,4,,,,,3,,,51,0
358272,note_on,,,,,0,0,3,,,,,2,,,51,90
358272,note_off,,,,,96,0,3,,,,,2,,,53,0
358272,note_on,,,,,0,0,2,,,,,1,,,55,93
358272,note_off,,,,,96,0,2,,,,,1,,,56,0
358368,note_off,,,,,96,0,2,,,,,1,,,55,0
358368,note_on,,,,,0,0,2,,,,,1,,,55,93
358368,note_off,,,,,96,0,1,,,,,0,,,79,0
358368,note_on,,,,,0,0,3,,,,,2,,,51,90
358368,note_off,,,,,96,0,3,,,,,2,,,51,0
358464,note_on,,,,,96,0,1,,,,,0,,,80,109
358464,note_on,,,,,0,0,3,,,,,2,,,53,90
358464,note_off,,,,,96,0,3,,,,,2,,,51,0
358464,note_off,,,,,96,0,2,,,,,1,,,55,0
358464,note_on,,,,,0,0,2,,,,,1,,,56,93
358560,note_off,,,,,96,0,3,,,,,2,,,53,0
358560,note_off,,,,,96,0,1,,,,,0,,,80,0
358560,note_on,,,,,0,0,3,,,,,2,,,53,90
358560,note_on,,,,,0,0,2,,,,,1,,,56,93
358560,note_off,,,,,96,0,2,,,,,1,,,56,0
358656,note_off,,,,,96,0,2,,,,,1,,,56,0
358656,note_on,,,,,0,0,3,,,,,2,,,55,90
358656,note_off,,,,,96,0,3,,,,,2,,,53,0
358656,note_on,,,,,96,0,1,,,,,0,,,82,109
358656,note_on,,,,,0,0,2,,,,,1,,,58,93
358752,note_on,,,,,0,0,3,,,,,2,,,55,90
358752,note_off,,,,,96,0,2,,,,,1,,,58,0
358752,note_off,,,,,96,0,3,,,,,2,,,55,0
358752,note_on,,,,,0,0,2,,,,,1,,,58,93
358848,note_on,,,,,0,0,3,,,,,2,,,54,90
358848,note_on,,,,,0,0,2,,,,,1,,,57,93
358848,note_off,,,,,96,0,3,,,,,2,,,55,0
358848,note_off,,,,,96,0,2,,,,,1,,,58,0
358944,note_off,,,,,96,0,2,,,,,1,,,57,0
358944,note_off,,,,,96,0,3,,,,,2,,,54,0
358944,note_on,,,,,0,0,2,,,,,1,,,57,93
358944,note_on,,,,,0,0,3,,,,,2,,,54,90
359040,note_on,,,,,0,0,2,,,,,1,,,58,93
359040,note_off,,,,,96,0,2,,,,,1,,,57,0
359040,note_on,,,,,0,0,3,,,,,2,,,55,90
359040,note_off,,,,,96,0,3,,,,,2,,,54,0
359040,note_off,,,,,384,0,1,,,,,0,,,82,0
359136,note_on,,,,,0,0,2,,,,,1,,,58,93
359136,note_off,,,,,96,0,2,,,,,1,,,58,0
359136,note_on,,,,,0,0,3,,,,,2,,,55,90
359136,note_off,,,,,96,0,3,,,,,2,,,55,0
359232,note_on,,,,,0,0,3,,,,,2,,,51,90
359232,note_on,,,,,0,0,2,,,,,1,,,55,93
359232,note_off,,,,,96,0,2,,,,,1,,,58,0
359232,note_off,,,,,96,0,3,,,,,2,,,55,0
359328,note_off,,,,,96,0,3,,,,,2,,,51,0
359328,note_on,,,,,0,0,3,,,,,2,,,51,90
359328,note_on,,,,,0,0,2,,,,,1,,,55,93
359328,note_off,,,,,96,0,2,,,,,1,,,55,0
359424,note_on,,,,,1152,0,4,,,,,3,,,46,90
359424,note_on,,,,,0,0,3,,,,,2,,,53,90
359424,note_off,,,,,96,0,3,,,,,2,,,51,0
359424,note_on,,,,,0,0,2,,,,,1,,,62,93
359424,note_off,,,,,96,0,2,,,,,1,,,55,0
359424,note_on,,,,,384,0,1,,,,,0,,,80,109
359520,note_off,,,,,96,0,3,,,,,2,,,53,0
359520,note_on,,,,,0,0,3,,,,,2,,,53,90
359520,note_on,,,,,0,0,2,,,,,1,,,62,93
359520,note_off,,,,,96,0,2,,,,,1,,,62,0
359552,note_off,,,,,128,0,1,,,,,0,,,80,0
359552,note_on,,,,,0,0,1,,,,,0,,,79,109
359616,note_on,,,,,0,0,3,,,,,2,,,58,90
359616,note_on,,,,,0,0,2,,,,,1,,,58,93
359616,note_off,,,,,96,0,2,,,,,1,,,62,0
359616,note_off,,,,,96,0,3,,,,,2,,,53,0
359680,note_off,,,,,128,0,1,,,,,0,,,79,0
359680,note_on,,,,,0,0,1,,,,,0,,,77,109
359712,note_off,,,,,96,0,3,,,,,2,,,58,0
359712,note_on,,,,,0,0,2,,,,,1,,,58,93
359712,note_off,,,,,96,0,2,,,,,1,,,58,0
359712,note_on,,,,,0,0,3,,,,,2,,,58,90
359808,note_off,,,,,96,0,3,,,,,2,,,58,0
359808,note_off,,,,,384,0,4,,,,,3,,,46,0
359808,note_on,,,,,0,0,3,,,,,2,,,56,90
359808,note_on,,,,,0,0,2,,,,,1,,,62,93
359808,note_off,,,,,96,0,2,,,,,1,,,58,0
359808,note_off,,,,,128,0,1,,,,,0,,,77,0
359808,note_on,,,,,0,0,1,,,,,0,,,77,109
359904,note_on,,,,,0,0,2,,,,,1,,,62,93
359904,note_off,,,,,96,0,2,,,,,1,,,62,0
359904,note_off,,,,,96,0,3,,,,,2,,,56,0
359904,note_on,,,,,0,0,3,,,,,2,,,56,90
359936,note_on,,,,,0,0,1,,,,,0,,,75,109
359936,note_off,,,,,128,0,1,,,,,0,,,77,0
360000,note_on,,,,,0,0,2,,,,,1,,,58,93
360000,note_off,,,,,96,0,2,,,,,1,,,62,0
360000,note_off,,,,,96,0,3,,,,,2,,,56,0
360000,note_on,,,,,0,0,3,,,,,2,,,58,90
360064,note_on,,,,,0,0,1,,,,,0,,,74,109
360064,note_off,,,,,128,0,1,,,,,0,,,75,0
360096,note_on,,,,,0,0,3,,,,,2,,,58,90
360096,note_off,,,,,96,0,2,,,,,1,,,58,0
360096,note_off,,,,,96,0,3,,,,,2,,,58,0
360096,note_on,,,,,0,0,2,,,,,1,,,58,93
360192,note_off,,,,,96,0,2,,,,,1,,,58,0
360192,note_off,,,,,128,0,1,,,,,0,,,74,0
360192,note_on,,,,,0,0,1,,,,,0,,,75,109
360192,note_on,,,,,0,0,2,,,,,1,,,63,93
360192,note_off,,,,,96,0,3,,,,,2,,,58,0
360192,note_on,,,,,0,0,3,,,,,2,,,55,90
360288,note_on,,,,,0,0,2,,,,,1,,,63,93
360288,note_off,,,,,96,0,3,,,,,2,,,55,0
360288,note_on,,,,,0,0,3,,,,,2,,,55,90
360288,note_off,,,,,96,0,2,,,,,1,,,63,0
360384,note_on,,,,,0,0,3,,,,,2,,,58,90
360384,note_off,,,,,96,0,3,,,,,2,,,55,0
360384,note_off,,,,,96,0,2,,,,,1,,,63,0
360384,note_on,,,,,0,0,2,,,,,1,,,58,93
360480,note_off,,,,,96,0,3,,,,,2,,,58,0
360480,note_on,,,,,0,0,2,,,,,1,,,58,93
360480,note_off,,,,,96,0,2,,,,,1,,,58,0
360480,note_on,,,,,0,0,3,,,,,2,,,58,90
360576,note_on,,,,,0,0,1,,,,,0,,,70,109
360576,note_off,,,,,96,0,2,,,,,1,,,58,0
360576,note_on,,,,,0,0,2,,,,,1,,,63,93
360576,note_off,,,,,384,0,1,,,,,0,,,75,0
360576,note_on,,,,,0,0,3,,,,,2,,,55,90
360576,note_off,,,,,96,0,3,,,,,2,,,58,0
360672,note_off,,,,,96,0,2,,,,,1,,,63,0
360672,note_on,,,,,0,0,2,,,,,1,,,63,93
360672,note_off,,,,,96,0,3,,,,,2,,,55,0
360672,note_on,,,,,0,0,3,,,,,2,,,55,90
360768,note_on,,,,,0,0,2,,,,,1,,,58,93
360768,note_off,,,,,96,0,3,,,,,2,,,55,0
360768,note_on,,,,,0,0,3,,,,,2,,,58,90
360768,note_off,,,,,192,0,1,,,,,0,,,70,0
360768,note_off,,,,,96,0,2,,,,,1,,,63,0
360864,note_off,,,,,96,0,3,,,,,2,,,58,0
360864,note_on,,,,,0,0,3,,,,,2,,,58,90
360864,note_off,,,,,96,0,2,,,,,1,,,58,0
360864,note_on,,,,,0,0,2,,,,,1,,,58,93
360960,note_off,,,,,96,0,3,,,,,2,,,58,0
360960,note_on,,,,,192,0,1,,,,,0,,,80,109
360960,note_on,,,,,0,0,2,,,,,1,,,62,93
360960,note_off,,,,,96,0,2,,,,,1,,,58,0
360960,note_on,,,,,1152,0,4,,,,,3,,,46,90
360960,note_on,,,,,0,0,3,,,,,2,,,53,90
361056,note_off,,,,,96,0,3,,,,,2,,,53,0
361056,note_on,,,,,0,0,3,,,,,2,,,53,90
361056,note_on,,,,,0,0,2,,,,,1,,,62,93
361056,note_off,,,,,96,0,2,,,,,1,,,62,0
361088,note_off,,,,,128,0,1,,,,,0,,,80,0
361088,note_on,,,,,0,0,1,,,,,0,,,79,109
361152,note_off,,,,,96,0,2,,,,,1,,,62,0
361152,note_off,,,,,96,0,3,,,,,2,,,53,0
361152,note_on,,,,,0,0,3,,,,,2,,,58,90
361152,note_on,,,,,0,0,2,,,,,1,,,58,93
361216,note_off,,,,,128,0,1,,,,,0,,,79,0
361216,note_on,,,,,0,0,1,,,,,0,,,77,109
361248,note_on,,,,,0,0,2,,,,,1,,,58,93
361248,note_off,,,,,96,0,2,,,,,1,,,58,0
361248,note_off,,,,,96,0,3,,,,,2,,,58,0
361248,note_on,,,,,0,0,3,,,,,2,,,58,90
361344,note_off,,,,,96,0,3,,,,,2,,,58,0
361344,note_on,,,,,0,0,3,,,,,2,,,56,90
361344,note_on,,,,,0,0,2,,,,,1,,,62,93
361344,note_off,,,,,96,0,2,,,,,1,,,58,0
361344,note_off,,,,,128,0,1,,,,,0,,,77,0
361344,note_off,,,,,384,0,4,,,,,3,,,46,0
361344,note_on,,,,,0,0,1,,,,,0,,,77,109
361440,note_on,,,,,0,0,3,,,,,2,,,56,90
361440,note_off,,,,,96,0,3,,,,,2,,,56,0
361440,note_on,,,,,0,0,2,,,,,1,,,62,93
361440,note_off,,,,,96,0,2,,,,,1,,,62,0
361472,note_on,,,,,0,0,1,,,,,0,,,75,109
361472,note_off,,,,,128,0,1,,,,,0,,,77,0
361536,note_on,,,,,0,0,3,,,,,2,,,58,90
361536,note_off,,,,,96,0,3,,,,,2,,,56,0
361536,note_on,,,,,0,0,2,,,,,1,,,58,93
361536,note_off,,,,,96,0,2,,,,,1,,,62,0
361600,note_off,,,,,128,0,1,,,,,0,,,75,0
361600,note_on,,,,,0,0,1,,,,,0,,,74,109
361632,note_off,,,,,96,0,3,,,,,2,,,58,0
361632,note_on,,,,,0,0,2,,,,,1,,,58,93
361632,note_on,,,,,0,0,3,,,,,2,,,58,90
361632,note_off,,,,,96,0,2,,,,,1,,,58,0
361728,note_off,,,,,96,0,2,,,,,1,,,58,0
361728,note_off,,,,,96,0,3,,,,,2,,,58,0
361728,note_on,,,,,0,0,1,,,,,0,,,75,109
361728,note_off,,,,,128,0,1,,,,,0,,,74,0
361728,note_on,,,,,384,0,4,,,,,3,,,39,90
361728,note_on,,,,,0,0,2,,,,,1,,,63,93
361728,note_on,,,,,0,0,3,,,,,2,,,55,90
361824,note_on,,,,,0,0,3,,,,,2,,,55,90
361824,note_off,,,,,96,0,3,,,,,2,,,55,0
361824,note_on,,,,,0,0,2,,,,,1,,,63,93
361824,note_off,,,,,96,0,2,,,,,1,,,63,0
361920,note_on,,,,,0,0,2,,,,,1,,,58,93
361920,note_on,,,,,0,0,3,,,,,2,,,58,90
361920,note_off,,,,,96,0,3,,,,,2,,,55,0
361920,note_off,,,,,96,0,2,,,,,1,,,63,0
362016,note_on,,,,,0,0,2,,,,,1,,,58,93
362016,note_off,,,,,96,0,2,,,,,1,,,58,0
362016,note_off,,,,,96,0,3,,,,,2,,,58,0
362016,note_on,,,,,0,0,3,,,,,2,,,58,90
362112,note_on,,,,,0,0,1,,,,,0,,,82,109
362112,note_on,,,,,0,0,3,,,,,2,,,55,90
362112,note_off,,,,,384,0,1,,,,,0,,,75,0
362112,note_off,,,,,96,0,3,,,,,2,,,58,0
362112,note_on,,,,,0,0,2,,,,,1,,,63,93
362112,note_off,,,,,96,0,2,,,,,1,,,58,0
362112,note_off,,,,,384,0,4,,,,,3,,,39,0
362208,note_off,,,,,96,0,2,,,,,1,,,63,0
362208,note_on,,,,,0,0,2,,,,,1,,,63,93
362208,note_off,,,,,96,0,3,,,,,2,,,55,0
362208,note_on,,,,,0,0,3,,,,,2,,,55,90
362304,note_off,,,,,96,0,3,,,,,2,,,55,0
362304,note_off,,,,,192,0,1,,,,,0,,,82,0
362304,note_on,,,,,0,0,3,,,,,2,,,58,90
362304,note_on,,,,,0,0,2,,,,,1,,,58,93
362304,note_off,,,,,96,0,2,,,,,1,,,63,0
362400,note_on,,,,,0,0,2,,,,,1,,,58,93
362400,note_on,,,,,0,0,3,,,,,2,,,58,90
362400,note_off,,,,,96,0,3,,,,,2,,,58,0
362400,note_off,,,,,96,0,2,,,,,1,,,58,0
362496,note_on,,,,,0,0,3,,,,,2,,,56,90
362496,note_off,,,,,96,0,3,,,,,2,,,58,0
362496,note_on,,,,,192,0,1,,,,,0,,,84,109
362496,note_on,,,,,384,0,4,,,,,3,,,51,90
362496,note_on,,,,,0,0,2,,,,,1,,,60,93
362496,note_off,,,,,96,0,2,,,,,1,,,58,0
362592,note_off,,,,,96,0,3,,,,,2,,,56,0
362592,note_off,,,,,96,0,2,,,,,1,,,60,0
362592,note_on,,,,,0,0,2,,,,,1,,,60,93
362592,note_on,,,,,0,0,3,,,,,2,,,56,90
362624,note_off,,,,,128,0,1,,,,,0,,,84,0
362624,note_on,,,,,0,0,1,,,,,0,,,86,109
362688,note_off,,,,,96,0,2,,,,,1,,,60,0
362688,note_on,,,,,0,0,2,,,,,1,,,63,93
362688,note_on,,,,,0,0,3,,,,,2,,,60,90
362688,note_off,,,,,96,0,3,,,,,2,,,56,0
362752,note_on,,,,,0,0,1,,,,,0,,,87,109
362752,note_off,,,,,128,0,1,,,,,0,,,86,0
362784,note_off,,,,,96,0,3,,,,,2,,,60,0
362784,note_on,,,,,0,0,3,,,,,2,,,60,90
362784,note_on,,,,,0,0,2,,,,,1,,,63,93
362784,note_off,,,,,96,0,2,,,,,1,,,63,0
362880,note_on,,,,,0,0,2,,,,,1,,,60,93
362880,note_off,,,,,96,0,2,,,,,1,,,63,0
362880,note_on,,,,,0,0,3,,,,,2,,,56,90
362880,note_off,,,,,96,0,3,,,,,2,,,60,0
362880,note_off,,,,,128,0,1,,,,,0,,,87,0
362880,note_on,,,,,0,0,1,,,,,0,,,87,109
362880,note_off,,,,,384,0,4,,,,,3,,,51,0
362880,note_on,,,,,0,0,4,,,,,3,,,51,90
362976,note_off,,,,,96,0,3,,,,,2,,,56,0
362976,note_on,,,,,0,0,3,,,,,2,,,56,90
362976,note_on,,,,,0,0,2,,,,,1,,,60,93
362976,note_off,,,,,96,0,2,,,,,1,,,60,0
363008,note_off,,,,,128,0,1,,,,,0,,,87,0
363008,note_on,,,,,0,0,1,,,,,0,,,86,109
363072,note_on,,,,,0,0,2,,,,,1,,,63,93
363072,note_off,,,,,96,0,2,,,,,1,,,60,0
363072,note_on,,,,,0,0,3,,,,,2,,,60,90
363072,note_off,,,,,96,0,3,,,,,2,,,56,0
363136,note_off,,,,,128,0,1,,,,,0,,,86,0
363136,note_on,,,,,0,0,1,,,,,0,,,84,109
363168,note_on,,,,,0,0,3,,,,,2,,,60,90
363168,note_off,,,,,96,0,3,,,,,2,,,60,0
363168,note_off,,,,,96,0,2,,,,,1,,,63,0
363168,note_on,,,,,0,0,2,,,,,1,,,63,93
363264,note_on,,,,,0,0,1,,,,,0,,,82,109
363264,note_on,,,,,0,0,4,,,,,3,,,51,90
363264,note_off,,,,,384,0,4,,,,,3,,,51,0
363264,note_off,,,,,128,0,1,,,,,0,,,84,0
363264,note_on,,,,,0,0,2,,,,,1,,,58,93
363264,note_off,,,,,96,0,2,,,,,1,,,63,0
363264,note_off,,,,,96,0,3,,,,,2,,,60,0
363264,note_on,,,,,0,0,3,,,,,2,,,55,90
363360,note_off,,,,,96,0,2,,,,,1,,,58,0
363360,note_on,,,,,0,0,2,,,,,1,,,58,93
363360,note_off,,,,,96,0,3,,,,,2,,,55,0
363360,note_on,,,,,0,0,3,,,,,2,,,55,90
363456,note_on,,,,,0,0,2,,,,,1,,,63,93
363456,note_on,,,,,0,0,3,,,,,2,,,58,90
363456,note_off,,,,,96,0,3,,,,,2,,,55,0
363456,note_off,,,,,96,0,2,,,,,1,,,58,0
363552,note_off,,,,,96,0,3,,,,,2,,,58,0
363552,note_on,,,,,0,0,3,,,,,2,,,58,90
363552,note_on,,,,,0,0,2,,,,,1,,,63,93
363552,note_off,,,,,96,0,2,,,,,1,,,63,0
363648,note_on,,,,,0,0,1,,,,,0,,,75,109
363648,note_off,,,,,384,0,4,,,,,3,,,51,0
363648,note_off,,,,,384,0,1,,,,,0,,,82,0
363648,note_on,,,,,0,0,3,,,,,2,,,55,90
363648,note_off,,,,,96,0,3,,,,,2,,,58,0
363648,note_on,,,,,0,0,2,,,,,1,,,58,93
363648,note_off,,,,,96,0,2,,,,,1,,,63,0
363648,note_on,,,,,0,0,4,,,,,3,,,51,90
363744,note_on,,,,,0,0,3,,,,,2,,,55,90
363744,note_off,,,,,96,0,3,,,,,2,,,55,0
363744,note_on,,,,,0,0,2,,,,,1,,,58,93
363744,note_off,,,,,96,0,2,,,,,1,,,58,0
363840,note_off,,,,,192,0,1,,,,,0,,,75,0
363840,note_on,,,,,0,0,2,,,,,1,,,63,93
363840,note_off,,,,,96,0,3,,,,,2,,,55,0
363840,note_off,,,,,96,0,2,,,,,1,,,58,0
363840,note_on,,,,,0,0,3,,,,,2,,,58,90
363936,note_off,,,,,96,0,2,,,,,1,,,63,0
363936,note_on,,,,,0,0,2,,,,,1,,,63,93
363936,note_off,,,,,96,0,3,,,,,2,,,58,0
363936,note_on,,,,,0,0,3,,,,,2,,,58,90
364032,note_on,,,,,0,0,3,,,,,2,,,56,90
364032,note_off,,,,,96,0,3,,,,,2,,,58,0
364032,note_on,,,,,0,0,2,,,,,1,,,60,93
364032,note_off,,,,,96,0,2,,,,,1,,,63,0
364032,note_off,,,,,384,0,4,,,,,3,,,51,0
364032,note_on,,,,,192,0,1,,,,,0,,,84,109
364032,note_on,,,,,0,0,4,,,,,3,,,51,90
364128,note_on,,,,,0,0,3,,,,,2,,,56,90
364128,note_on,,,,,0,0,2,,,,,1,,,60,93
364128,note_off,,,,,96,0,2,,,,,1,,,60,0
364128,note_off,,,,,96,0,3,,,,,2,,,56,0
364160,note_on,,,,,0,0,1,,,,,0,,,86,109
364160,note_off,,,,,128,0,1,,,,,0,,,84,0
364224,note_off,,,,,96,0,3,,,,,2,,,56,0
364224,note_on,,,,,0,0,4,,,,,3,,,51,90
364224,note_on,,,,,0,0,2,,,,,1,,,63,93
364224,note_off,,,,,96,0,2,,,,,1,,,60,0
364224,note_off,,,,,192,0,4,,,,,3,,,51,0
364224,note_on,,,,,0,0,3,,,,,2,,,60,90
364288,note_on,,,,,0,0,1,,,,,0,,,87,109
364288,note_off,,,,,128,0,1,,,,,0,,,86,0
364320,note_off,,,,,96,0,2,,,,,1,,,63,0
364320,note_on,,,,,0,0,2,,,,,1,,,63,93
364320,note_off,,,,,96,0,3,,,,,2,,,60,0
364320,note_on,,,,,0,0,3,,,,,2,,,60,90
364416,note_off,,,,,96,0,3,,,,,2,,,60,0
364416,note_off,,,,,96,0,2,,,,,1,,,63,0
364416,note_on,,,,,0,0,2,,,,,1,,,60,93
364416,note_on,,,,,0,0,4,,,,,3,,,51,90
364416,note_on,,,,,0,0,3,,,,,2,,,56,90
364416,note_off,,,,,192,0,4,,,,,3,,,51,0
364416,note_off,,,,,128,0,1,,,,,0,,,87,0
364416,note_on,,,,,0,0,1,,,,,0,,,87,109
364512,note_off,,,,,96,0,2,,,,,1,,,60,0
364512,note_on,,,,,0,0,2,,,,,1,,,60,93
364512,note_on,,,,,0,0,3,,,,,2,,,56,90
364512,note_off,,,,,96,0,3,,,,,2,,,56,0
364544,note_off,,,,,128,0,1,,,,,0,,,87,0
364544,note_on,,,,,0,0,1,,,,,0,,,86,109
364608,note_on,,,,,0,0,3,,,,,2,,,60,90
364608,note_off,,,,,96,0,3,,,,,2,,,56,0
364608,note_off,,,,,192,0,4,,,,,3,,,51,0
364608,note_on,,,,,0,0,2,,,,,1,,,63,93
364608,note_off,,,,,96,0,2,,,,,1,,,60,0
364608,note_on,,,,,0,0,4,,,,,3,,,51,90
364672,note_off,,,,,128,0,1,,,,,0,,,86,0
364672,note_on,,,,,0,0,1,,,,,0,,,84,109
364704,note_off,,,,,96,0,2,,,,,1,,,63,0
364704,note_on,,,,,0,0,2,,,,,1,,,63,93
364704,note_off,,,,,96,0,3,,,,,2,,,60,0
364704,note_on,,,,,0,0,3,,,,,2,,,60,90
364800,note_off,,,,,96,0,3,,,,,2,,,60,0
364800,note_on,,,,,0,0,3,,,,,2,,,55,90
364800,note_on,,,,,0,0,4,,,,,3,,,51,90
364800,note_off,,,,,192,0,4,,,,,3,,,51,0
364800,note_off,,,,,96,0,2,,,,,1,,,63,0
364800,note_off,,,,,128,0,1,,,,,0,,,84,0
364800,note_on,,,,,0,0,1,,,,,0,,,82,109
364800,note_on,,,,,0,0,2,,,,,1,,,58,93
364896,note_on,,,,,0,0,3,,,,,2,,,55,90
364896,note_off,,,,,96,0,2,,,,,1,,,58,0
364896,note_on,,,,,0,0,2,,,,,1,,,58,93
364896,note_off,,,,,96,0,3,,,,,2,,,55,0
364992,note_on,,,,,0,0,4,,,,,3,,,51,90
364992,note_off,,,,,96,0,2,,,,,1,,,58,0
364992,note_on,,,,,0,0,2,,,,,1,,,63,93
364992,note_off,,,,,192,0,4,,,,,3,,,51,0
364992,note_on,,,,,0,0,3,,,,,2,,,58,90
364992,note_off,,,,,96,0,3,,,,,2,,,55,0
365088,note_off,,,,,96,0,3,,,,,2,,,58,0
365088,note_on,,,,,0,0,3,,,,,2,,,58,90
365088,note_on,,,,,0,0,2,,,,,1,,,63,93
365088,note_off,,,,,96,0,2,,,,,1,,,63,0
365184,note_on,,,,,0,0,1,,,,,0,,,75,109
365184,note_off,,,,,192,0,4,,,,,3,,,51,0
365184,note_on,,,,,0,0,4,,,,,3,,,51,90
365184,note_off,,,,,384,0,1,,,,,0,,,82,0
365184,note_on,,,,,0,0,2,,,,,1,,,58,93
365184,note_off,,,,,96,0,3,,,,,2,,,58,0
365184,note_on,,,,,0,0,3,,,,,2,,,55,90
365184,note_off,,,,,96,0,2,,,,,1,,,63,0
365280,note_on,,,,,0,0,2,,,,,1,,,58,93
365280,note_off,,,,,96,0,2,,,,,1,,,58,0
365280,note_on,,,,,0,0,3,,,,,2,,,55,90
365280,note_off,,,,,96,0,3,,,,,2,,,55,0
365376,note_off,,,,,192,0,1,,,,,0,,,75,0
365376,note_off,,,,,192,0,4,,,,,3,,,51,0
365376,note_off,,,,,96,0,3,,,,,2,,,55,0
365376,note_on,,,,,0,0,2,,,,,1,,,63,93
365376,note_on,,,,,0,0,3,,,,,2,,,58,90
365376,note_on,,,,,0,0,4,,,,,3,,,51,90
365376,note_off,,,,,96,0,2,,,,,1,,,58,0
365472,note_on,,,,,0,0,2,,,,,1,,,63,93
365472,note_off,,,,,96,0,2,,,,,1,,,63,0
365472,note_off,,,,,96,0,3,,,,,2,,,58,0
365472,note_on,,,,,0,0,3,,,,,2,,,58,90
365568,note_on,,,,,0,0,2,,,,,1,,,60,93
365568,note_on,,,,,192,0,1,,,,,0,,,77,109
365568,note_on,,,,,0,0,4,,,,,3,,,44,90
365568,note_off,,,,,192,0,4,,,,,3,,,51,0
365568,note_on,,,,,0,0,3,,,,,2,,,65,90
365568,note_on,,,,,0,0,3,,,,,2,,,60,90
365568,note_off,,,,,96,0,3,,,,,2,,,58,0
365568,note_off,,,,,96,0,2,,,,,1,,,63,0
365568,note_on,,,,,0,0,2,,,,,1,,,65,93
365696,note_on,,,,,0,0,1,,,,,0,,,84,109
365696,note_off,,,,,128,0,1,,,,,0,,,77,0
365824,note_on,,,,,0,0,1,,,,,0,,,82,109
365824,note_off,,,,,128,0,1,,,,,0,,,84,0
365952,note_off,,,,,128,0,1,,,,,0,,,82,0
365952,note_on,,,,,0,0,1,,,,,0,,,80,109
365952,note_off,,,,,384,0,2,,,,,1,,,60,0
365952,note_off,,,,,0,0,2,,,,,1,,,65,0
365952,note_off,,,,,384,0,3,,,,,2,,,65,0
365952,note_off,,,,,384,0,4,,,,,3,,,44,0
365952,note_off,,,,,0,0,3,,,,,2,,,60,0
366080,note_off,,,,,128,0,1,,,,,0,,,80,0
366080,note_on,,,,,0,0,1,,,,,0,,,79,109
366208,note_off,,,,,128,0,1,,,,,0,,,79,0
366208,note_on,,,,,0,0,1,,,,,0,,,77,109
366336,note_on,,,,,384,0,4,,,,,3,,,46,90
366336,note_on,,,,,384,0,2,,,,,1,,,58,93
366336,note_on,,,,,0,0,2,,,,,1,,,68,93
366336,note_on,,,,,0,0,3,,,,,2,,,58,90
366336,note_on,,,,,0,0,1,,,,,0,,,75,109
366336,note_off,,,,,128,0,1,,,,,0,,,77,0
366336,note_on,,,,,384,0,3,,,,,2,,,65,90
366464,note_off,,,,,128,0,1,,,,,0,,,75,0
366464,note_on,,,,,0,0,1,,,,,0,,,74,109
366592,note_on,,,,,0,0,1,,,,,0,,,72,109
366592,note_off,,,,,128,0,1,,,,,0,,,74,0
366720,note_off,,,,,0,0,2,,,,,1,,,68,0
366720,note_off,,,,,384,0,2,,,,,1,,,58,0
366720,note_off,,,,,384,0,3,,,,,2,,,65,0
366720,note_off,,,,,0,0,3,,,,,2,,,58,0
366720,note_off,,,,,128,0,1,,,,,0,,,72,0
366720,note_on,,,,,0,0,1,,,,,0,,,70,109
366720,note_off,,,,,384,0,4,,,,,3,,,46,0
366848,note_off,,,,,128,0,1,,,,,0,,,70,0
366848,note_on,,,,,0,0,1,,,,,0,,,72,109
366976,note_on,,,,,0,0,1,,,,,0,,,74,109
366976,note_off,,,,,128,0,1,,,,,0,,,72,0
367104,note_on,,,,,384,0,2,,,,,1,,,67,93
367104,note_on,,,,,384,0,3,,,,,2,,,63,90
367104,note_off,,,,,128,0,1,,,,,0,,,74,0
367104,note_on,,,,,0,0,1,,,,,0,,,75,109
367104,note_on,,,,,384,0,4,,,,,3,,,51,90
367104,note_on,,,,,0,0,3,,,,,2,,,55,90
367232,note_off,,,,,128,0,2,,,,,1,,,67,0
367232,note_on,,,,,0,0,2,,,,,1,,,70,93
367232,note_on,,,,,0,0,2,,,,,1,,,67,93
367360,note_off,,,,,0,0,2,,,,,1,,,67,0
367360,note_on,,,,,0,0,2,,,,,1,,,67,93
367360,note_on,,,,,0,0,2,,,,,1,,,70,93
367360,note_off,,,,,128,0,2,,,,,1,,,70,0
367488,note_off,,,,,384,0,1,,,,,0,,,75,0
367488,note_on,,,,,0,0,2,,,,,1,,,67,93
367488,note_on,,,,,0,0,2,,,,,1,,,70,93
367488,note_off,,,,,0,0,3,,,,,2,,,55,0
367488,note_off,,,,,128,0,2,,,,,1,,,70,0
367488,note_off,,,,,384,0,3,,,,,2,,,63,0
367488,note_off,,,,,384,0,4,,,,,3,,,51,0
367488,note_off,,,,,0,0,2,,,,,1,,,67,0
367616,note_off,,,,,128,0,2,,,,,1,,,70,0
367616,note_off,,,,,0,0,2,,,,,1,,,67,0
367616,note_on,,,,,0,0,2,,,,,1,,,70,93
367616,note_on,,,,,0,0,2,,,,,1,,,67,93
367744,note_on,,,,,0,0,2,,,,,1,,,70,93
367744,note_off,,,,,0,0,2,,,,,1,,,67,0
367744,note_off,,,,,128,0,2,,,,,1,,,70,0
367872,note_off,,,,,128,0,2,,,,,1,,,70,0
367872,note_on,,,,,0,0,2,,,,,1,,,70,93
367872,note_on,,,,,0,0,2,,,,,1,,,67,93
368000,note_off,,,,,128,0,2,,,,,1,,,70,0
368000,note_off,,,,,0,0,2,,,,,1,,,67,0
368000,note_on,,,,,0,0,2,,,,,1,,,70,93
368000,note_on,,,,,0,0,2,,,,,1,,,67,93
368128,note_on,,,,,0,0,2,,,,,1,,,70,93
368128,note_off,,,,,128,0,2,,,,,1,,,70,0
368128,note_off,,,,,0,0,2,,,,,1,,,67,0
368128,note_on,,,,,0,0,2,,,,,1,,,67,93
368160,note_on,,,,,672,0,3,,,,,2,,,63,90
368256,note_off,,,,,0,0,2,,,,,1,,,70,0
368256,note_on,,,,,0,0,2,,,,,1,,,67,93
368256,note_on,,,,,0,0,2,,,,,1,,,70,93
368256,note_off,,,,,128,0,2,,,,,1,,,67,0
368256,note_off,,,,,96,0,3,,,,,2,,,63,0
368256,note_on,,,,,0,0,3,,,,,2,,,62,90
368384,note_on,,,,,0,0,2,,,,,1,,,70,93
368384,note_off,,,,,128,0,3,,,,,2,,,62,0
368384,note_on,,,,,0,0,3,,,,,2,,,60,90
368384,note_off,,,,,128,0,2,,,,,1,,,67,0
368384,note_off,,,,,0,0,2,,,,,1,,,70,0
368384,note_on,,,,,0,0,2,,,,,1,,,67,93
368512,note_off,,,,,128,0,3,,,,,2,,,60,0
368512,note_on,,,,,0,0,3,,,,,2,,,62,90
368512,note_on,,,,,0,0,2,,,,,1,,,70,93
368512,note_off,,,,,0,0,2,,,,,1,,,70,0
368512,note_on,,,,,0,0,2,,,,,1,,,67,93
368512,note_off,,,,,128,0,2,,,,,1,,,67,0
368640,note_off,,,,,128,0,3,,,,,2,,,62,0
368640,note_off,,,,,128,0,2,,,,,1,,,67,0
368640,note_off,,,,,0,0,2,,,,,1,,,70,0
368640,note_on,,,,,0,0,2,,,,,1,,,68,93
368640,note_on,,,,,0,0,2,,,,,1,,,70,93
368640,note_on,,,,,0,0,3,,,,,2,,,65,90
368768,note_on,,,,,0,0,2,,,,,1,,,68,93
368768,note_off,,,,,128,0,2,,,,,1,,,68,0
368768,note_off,,,,,0,0,2,,,,,1,,,70,0
368768,note_on,,,,,0,0,2,,,,,1,,,70,93
368832,note_off,,,,,192,0,3,,,,,2,,,65,0
368896,note_on,,,,,0,0,2,,,,,1,,,68,93
368896,note_on,,,,,0,0,2,,,,,1,,,70,93
368896,note_off,,,,,128,0,2,,,,,1,,,68,0
368896,note_off,,,,,0,0,2,,,,,1,,,70,0
369024,note_on,,,,,0,0,2,,,,,1,,,70,93
369024,note_on,,,,,192,0,3,,,,,2,,,62,90
369024,note_off,,,,,128,0,2,,,,,1,,,68,0
369024,note_off,,,,,0,0,2,,,,,1,,,70,0
369024,note_on,,,,,0,0,2,,,,,1,,,68,93
369152,note_off,,,,,128,0,2,,,,,1,,,68,0
369152,note_off,,,,,0,0,2,,,,,1,,,70,0
369152,note_on,,,,,0,0,2,,,,,1,,,68,93
369152,note_on,,,,,0,0,2,,,,,1,,,70,93
369216,note_off,,,,,192,0,3,,,,,2,,,62,0
369280,note_on,,,,,0,0,2,,,,,1,,,70,93
369280,note_off,,,,,0,0,2,,,,,1,,,70,0
369280,note_off,,,,,128,0,2,,,,,1,,,68,0
369280,note_on,,,,,0,0,2,,,,,1,,,68,93
369408,note_on,,,,,0,0,2,,,,,1,,,68,93
369408,note_off,,,,,128,0,2,,,,,1,,,68,0
369408,note_off,,,,,0,0,2,,,,,1,,,70,0
369408,note_on,,,,,192,0,3,,,,,2,,,58,90
369408,note_on,,,,,0,0,2,,,,,1,,,70,93
369536,note_off,,,,,128,0,2,,,,,1,,,70,0
369536,note_off,,,,,0,0,2,,,,,1,,,68,0
369536,note_on,,,,,0,0,2,,,,,1,,,70,93
369536,note_on,,,,,0,0,2,,,,,1,,,68,93
369600,note_off,,,,,192,0,3,,,,,2,,,58,0
369664,note_on,,,,,0,0,2,,,,,1,,,68,93
369664,note_off,,,,,0,0,2,,,,,1,,,68,0
369664,note_off,,,,,128,0,2,,,,,1,,,70,0
369664,note_on,,,,,0,0,2,,,,,1,,,70,93
369696,note_on,,,,,2208,0,4,,,,,3,,,60,90
369696,note_on,,,,,2208,0,1,,,,,0,,,75,109
369792,note_on,,,,,0,0,2,,,,,1,,,68,93
369792,note_off,,,,,96,0,4,,,,,3,,,60,0
369792,note_on,,,,,0,0,4,,,,,3,,,58,90
369792,note_off,,,,,0,0,2,,,,,1,,,68,0
369792,note_on,,,,,0,0,1,,,,,0,,,74,109
369792,note_off,,,,,128,0,2,,,,,1,,,70,0
369792,note_on,,,,,0,0,2,,,,,1,,,70,93
369792,note_off,,,,,96,0,1,,,,,0,,,75,0
369920,note_off,,,,,128,0,4,,,,,3,,,58,0
369920,note_on,,,,,0,0,4,,,,,3,,,57,90
369920,note_on,,,,,0,0,1,,,,,0,,,72,109
369920,note_off,,,,,128,0,2,,,,,1,,,70,0
369920,note_off,,,,,0,0,2,,,,,1,,,68,0
369920,note_on,,,,,0,0,2,,,,,1,,,68,93
369920,note_off,,,,,128,0,1,,,,,0,,,74,0
369920,note_on,,,,,0,0,2,,,,,1,,,70,93
370048,note_on,,,,,0,0,4,,,,,3,,,58,90
370048,note_off,,,,,0,0,2,,,,,1,,,70,0
370048,note_off,,,,,128,0,2,,,,,1,,,68,0
370048,note_on,,,,,0,0,2,,,,,1,,,68,93
370048,note_off,,,,,128,0,1,,,,,0,,,72,0
370048,note_off,,,,,128,0,4,,,,,3,,,57,0
370048,note_on,,,,,0,0,1,,,,,0,,,74,109
370048,note_on,,,,,0,0,2,,,,,1,,,70,93
370176,note_on,,,,,0,0,2,,,,,1,,,70,93
370176,note_on,,,,,0,0,2,,,,,1,,,67,93
370176,note_off,,,,,0,0,2,,,,,1,,,70,0
370176,note_off,,,,,128,0,2,,,,,1,,,68,0
370176,note_off,,,,,128,0,1,,,,,0,,,74,0
370176,note_on,,,,,0,0,1,,,,,0,,,75,109
370176,note_off,,,,,128,0,4,,,,,3,,,58,0
370176,note_on,,,,,0,0,4,,,,,3,,,51,90
370304,note_on,,,,,0,0,2,,,,,1,,,67,93
370304,note_on,,,,,0,0,2,,,,,1,,,70,93
370304,note_off,,,,,0,0,2,,,,,1,,,70,0
370304,note_off,,,,,128,0,2,,,,,1,,,67,0
370368,note_off,,,,,192,0,4,,,,,3,,,51,0
370432,note_off,,,,,128,0,2,,,,,1,,,70,0
370432,note_off,,,,,0,0,2,,,,,1,,,67,0
370432,note_on,,,,,0,0,2,,,,,1,,,67,93
370432,note_on,,,,,0,0,2,,,,,1,,,70,93
370560,note_on,,,,,0,0,2,,,,,1,,,67,93
370560,note_on,,,,,0,0,2,,,,,1,,,70,93
370560,note_off,,,,,128,0,2,,,,,1,,,67,0
370560,note_on,,,,,192,0,4,,,,,3,,,39,90
370560,note_off,,,,,384,0,1,,,,,0,,,75,0
370560,note_off,,,,,0,0,2,,,,,1,,,70,0
370688,note_on,,,,,0,0,2,,,,,1,,,70,93
370688,note_on,,,,,0,0,2,,,,,1,,,67,93
370688,note_off,,,,,0,0,2,,,,,1,,,67,0
370688,note_off,,,,,128,0,2,,,,,1,,,70,0
370688,note_on,,,,,128,0,1,,,,,0,,,77,109
370752,note_off,,,,,192,0,4,,,,,3,,,39,0
370816,note_on,,,,,0,0,2,,,,,1,,,70,93
370816,note_on,,,,,0,0,2,,,,,1,,,67,93
370816,note_off,,,,,128,0,2,,,,,1,,,67,0
370816,note_on,,,,,0,0,1,,,,,0,,,79,109
370816,note_off,,,,,128,0,1,,,,,0,,,77,0
370816,note_off,,,,,0,0,2,,,,,1,,,70,0
370944,note_off,,,,,128,0,1,,,,,0,,,79,0
370944,note_off,,,,,128,0,2,,,,,1,,,67,0
370944,note_off,,,,,0,0,2,,,,,1,,,70,0
370944,note_on,,,,,0,0,2,,,,,1,,,67,93
370944,note_on,,,,,0,0,2,,,,,1,,,70,93
370944,note_on,,,,,0,0,1,,,,,0,,,70,109
371072,note_on,,,,,0,0,2,,,,,1,,,67,93
371072,note_on,,,,,0,0,2,,,,,1,,,70,93
371072,note_off,,,,,128,0,2,,,,,1,,,67,0
371072,note_off,,,,,0,0,2,,,,,1,,,70,0
371200,note_off,,,,,0,0,2,,,,,1,,,70,0
371200,note_on,,,,,0,0,2,,,,,1,,,67,93
371200,note_on,,,,,0,0,2,,,,,1,,,70,93
371200,note_off,,,,,128,0,2,,,,,1,,,67,0
371232,note_on,,,,,1632,0,3,,,,,2,,,65,90
371328,note_off,,,,,128,0,2,,,,,1,,,67,0
371328,note_off,,,,,0,0,2,,,,,1,,,70,0
371328,note_on,,,,,0,0,2,,,,,1,,,70,93
371328,note_on,,,,,0,0,2,,,,,1,,,67,93
371328,note_off,,,,,96,0,3,,,,,2,,,65,0
371328,note_on,,,,,0,0,3,,,,,2,,,64,90
371328,note_off,,,,,384,0,1,,,,,0,,,70,0
371456,note_on,,,,,0,0,2,,,,,1,,,70,93
371456,note_off,,,,,0,0,2,,,,,1,,,67,0
371456,note_off,,,,,128,0,2,,,,,1,,,70,0
371456,note_off,,,,,128,0,3,,,,,2,,,64,0
371456,note_on,,,,,0,0,3,,,,,2,,,62,90
371456,note_on,,,,,0,0,2,,,,,1,,,67,93
371584,note_off,,,,,128,0,3,,,,,2,,,62,0
371584,note_on,,,,,0,0,3,,,,,2,,,64,90
371584,note_off,,,,,128,0,2,,,,,1,,,67,0
371584,note_off,,,,,0,0,2,,,,,1,,,70,0
371584,note_on,,,,,0,0,2,,,,,1,,,67,93
371584,note_on,,,,,0,0,2,,,,,1,,,70,93
371712,note_off,,,,,128,0,3,,,,,2,,,64,0
371712,note_on,,,,,0,0,3,,,,,2,,,65,90
371712,note_off,,,,,128,0,2,,,,,1,,,67,0
371712,note_on,,,,,0,0,2,,,,,1,,,68,93
371712,note_on,,,,,0,0,2,,,,,1,,,70,93
371712,note_off,,,,,0,0,2,,,,,1,,,70,0
371840,note_off,,,,,128,0,2,,,,,1,,,68,0
371840,note_off,,,,,0,0,2,,,,,1,,,70,0
371840,note_on,,,,,0,0,2,,,,,1,,,70,93
371840,note_on,,,,,0,0,2,,,,,1,,,68,93
371904,note_off,,,,,192,0,3,,,,,2,,,65,0
371968,note_off,,,,,0,0,2,,,,,1,,,68,0
371968,note_on,,,,,0,0,2,,,,,1,,,68,93
371968,note_on,,,,,0,0,2,,,,,1,,,70,93
371968,note_off,,,,,128,0,2,,,,,1,,,70,0
372096,note_off,,,,,128,0,2,,,,,1,,,68,0
372096,note_off,,,,,0,0,2,,,,,1,,,70,0
372096,note_on,,,,,0,0,2,,,,,1,,,68,93
372096,note_on,,,,,0,0,2,,,,,1,,,70,93
372096,note_on,,,,,192,0,3,,,,,2,,,62,90
372224,note_on,,,,,0,0,2,,,,,1,,,70,93
372224,note_on,,,,,0,0,2,,,,,1,,,68,93
372224,note_off,,,,,0,0,2,,,,,1,,,70,0
372224,note_off,,,,,128,0,2,,,,,1,,,68,0
372288,note_off,,,,,192,0,3,,,,,2,,,62,0
372352,note_on,,,,,0,0,2,,,,,1,,,70,93
372352,note_on,,,,,0,0,2,,,,,1,,,68,93
372352,note_off,,,,,0,0,2,,,,,1,,,70,0
372352,note_off,,,,,128,0,2,,,,,1,,,68,0
372480,note_on,,,,,0,0,2,,,,,1,,,68,93
372480,note_on,,,,,0,0,2,,,,,1,,,70,93
372480,note_off,,,,,128,0,2,,,,,1,,,68,0
372480,note_off,,,,,0,0,2,,,,,1,,,70,0
372480,note_on,,,,,192,0,3,,,,,2,,,58,90
372608,note_on,,,,,0,0,2,,,,,1,,,68,93
372608,note_on,,,,,0,0,2,,,,,1,,,70,93
372608,note_off,,,,,0,0,2,,,,,1,,,68,0
372608,note_off,,,,,128,0,2,,,,,1,,,70,0
372672,note_off,,,,,192,0,3,,,,,2,,,58,0
372736,note_off,,,,,128,0,2,,,,,1,,,70,0
372736,note_on,,,,,0,0,2,,,,,1,,,68,93
372736,note_on,,,,,0,0,2,,,,,1,,,70,93
372736,note_off,,,,,0,0,2,,,,,1,,,68,0
372768,note_on,,,,,1440,0,1,,,,,0,,,75,109
372768,note_on,,,,,2016,0,4,,,,,3,,,60,90
372864,note_on,,,,,0,0,2,,,,,1,,,68,93
372864,note_on,,,,,0,0,2,,,,,1,,,70,93
372864,note_off,,,,,0,0,2,,,,,1,,,68,0
372864,note_off,,,,,128,0,2,,,,,1,,,70,0
372864,note_off,,,,,96,0,4,,,,,3,,,60,0
372864,note_on,,,,,0,0,1,,,,,0,,,74,109
372864,note_off,,,,,96,0,1,,,,,0,,,75,0
372864,note_on,,,,,0,0,4,,,,,3,,,58,90
372992,note_on,,,,,0,0,2,,,,,1,,,70,93
372992,note_off,,,,,128,0,4,,,,,3,,,58,0
372992,note_on,,,,,0,0,2,,,,,1,,,68,93
372992,note_off,,,,,128,0,2,,,,,1,,,68,0
372992,note_off,,,,,128,0,1,,,,,0,,,74,0
372992,note_on,,,,,0,0,1,,,,,0,,,72,109
372992,note_on,,,,,0,0,4,,,,,3,,,57,90
372992,note_off,,,,,0,0,2,,,,,1,,,70,0
373120,note_off,,,,,128,0,2,,,,,1,,,70,0
373120,note_off,,,,,0,0,2,,,,,1,,,68,0
373120,note_on,,,,,0,0,2,,,,,1,,,70,93
373120,note_on,,,,,0,0,2,,,,,1,,,68,93
373120,note_on,,,,,0,0,1,,,,,0,,,74,109
373120,note_off,,,,,128,0,4,,,,,3,,,57,0
373120,note_off,,,,,128,0,1,,,,,0,,,72,0
373120,note_on,,,,,0,0,4,,,,,3,,,58,90
373248,note_off,,,,,128,0,4,,,,,3,,,58,0
373248,note_on,,,,,0,0,1,,,,,0,,,75,109
373248,note_off,,,,,128,0,1,,,,,0,,,74,0
373248,note_off,,,,,128,0,2,,,,,1,,,70,0
373248,note_off,,,,,0,0,2,,,,,1,,,68,0
373248,note_on,,,,,0,0,2,,,,,1,,,70,93
373248,note_on,,,,,0,0,2,,,,,1,,,67,93
373248,note_on,,,,,0,0,4,,,,,3,,,51,90
373376,note_on,,,,,0,0,2,,,,,1,,,70,93
373376,note_off,,,,,0,0,2,,,,,1,,,67,0
373376,note_on,,,,,0,0,2,,,,,1,,,67,93
373376,note_off,,,,,128,0,2,,,,,1,,,70,0
373440,note_off,,,,,192,0,4,,,,,3,,,51,0
373504,note_on,,,,,0,0,2,,,,,1,,,70,93
373504,note_on,,,,,0,0,2,,,,,1,,,67,93
373504,note_off,,,,,128,0,2,,,,,1,,,70,0
373504,note_off,,,,,0,0,2,,,,,1,,,67,0
373632,note_off,,,,,128,0,2,,,,,1,,,67,0
373632,note_on,,,,,0,0,2,,,,,1,,,70,93
373632,note_on,,,,,0,0,2,,,,,1,,,67,93
373632,note_off,,,,,384,0,1,,,,,0,,,75,0
373632,note_on,,,,,192,0,4,,,,,3,,,39,90
373632,note_off,,,,,0,0,2,,,,,1,,,70,0
373760,note_off,,,,,128,0,2,,,,,1,,,70,0
373760,note_off,,,,,0,0,2,,,,,1,,,67,0
373760,note_on,,,,,0,0,2,,,,,1,,,70,93
373760,note_on,,,,,0,0,2,,,,,1,,,67,93
373760,note_on,,,,,128,0,1,,,,,0,,,77,109
373824,note_off,,,,,192,0,4,,,,,3,,,39,0
373888,note_off,,,,,0,0,2,,,,,1,,,67,0
373888,note_on,,,,,0,0,2,,,,,1,,,67,93
373888,note_on,,,,,0,0,2,,,,,1,,,70,93
373888,note_off,,,,,128,0,1,,,,,0,,,77,0
373888,note_on,,,,,0,0,1,,,,,0,,,79,109
373888,note_off,,,,,128,0,2,,,,,1,,,70,0
374016,note_off,,,,,128,0,1,,,,,0,,,79,0
374016,note_on,,,,,0,0,2,,,,,1,,,70,93
374016,note_on,,,,,0,0,1,,,,,0,,,70,109
374016,note_off,,,,,128,0,2,,,,,1,,,67,0
374016,note_on,,,,,0,0,2,,,,,1,,,67,93
374016,note_off,,,,,0,0,2,,,,,1,,,70,0
374400,note_on,,,,,0,0,1,,,,,0,,,74,109
374400,note_off,,,,,384,0,1,,,,,0,,,70,0
374400,note_on,,,,,576,0,4,,,,,3,,,55,90
374400,note_on,,,,,1728,0,3,,,,,2,,,65,90
374400,note_off,,,,,384,0,2,,,,,1,,,70,0
374400,note_off,,,,,0,0,2,,,,,1,,,67,0
374400,note_on,,,,,0,0,2,,,,,1,,,71,93
374528,note_on,,,,,0,0,1,,,,,0,,,75,109
374528,note_off,,,,,128,0,1,,,,,0,,,74,0
374656,note_on,,,,,0,0,1,,,,,0,,,74,109
374656,note_off,,,,,128,0,1,,,,,0,,,75,0
374784,note_off,,,,,384,0,4,,,,,3,,,55,0
374784,note_on,,,,,0,0,4,,,,,3,,,60,90
374784,note_on,,,,,0,0,1,,,,,0,,,72,109
374784,note_off,,,,,384,0,2,,,,,1,,,71,0
374784,note_on,,,,,0,0,2,,,,,1,,,72,93
374784,note_off,,,,,128,0,1,,,,,0,,,74,0
374784,note_on,,,,,0,0,3,,,,,2,,,63,90
374784,note_off,,,,,384,0,3,,,,,2,,,65,0
374976,note_off,,,,,192,0,4,,,,,3,,,60,0
374976,note_off,,,,,192,0,1,,,,,0,,,72,0
374976,note_off,,,,,192,0,3,,,,,2,,,63,0
374976,note_off,,,,,192,0,2,,,,,1,,,72,0
375168,note_on,,,,,192,0,2,,,,,1,,,71,93
375168,note_on,,,,,192,0,1,,,,,0,,,74,109
375168,note_on,,,,,192,0,4,,,,,3,,,55,90
375168,note_on,,,,,192,0,3,,,,,2,,,65,90
375296,note_off,,,,,128,0,1,,,,,0,,,74,0
375296,note_on,,,,,0,0,1,,,,,0,,,75,109
375424,note_off,,,,,128,0,1,,,,,0,,,75,0
375424,note_on,,,,,0,0,1,,,,,0,,,74,109
375552,note_on,,,,,0,0,4,,,,,3,,,60,90
375552,note_on,,,,,0,0,3,,,,,2,,,63,90
375552,note_off,,,,,128,0,1,,,,,0,,,74,0
375552,note_off,,,,,384,0,4,,,,,3,,,55,0
375552,note_on,,,,,0,0,1,,,,,0,,,72,109
375552,note_on,,,,,0,0,2,,,,,1,,,72,93
375552,note_off,,,,,384,0,2,,,,,1,,,71,0
375552,note_off,,,,,384,0,3,,,,,2,,,65,0
375744,note_off,,,,,192,0,2,,,,,1,,,72,0
375744,note_off,,,,,192,0,3,,,,,2,,,63,0
375744,note_off,,,,,192,0,4,,,,,3,,,60,0
375744,note_off,,,,,192,0,1,,,,,0,,,72,0
375936,note_on,,,,,192,0,4,,,,,3,,,55,90
375936,note_on,,,,,192,0,3,,,,,2,,,65,90
375936,note_on,,,,,192,0,1,,,,,0,,,74,109
375936,note_on,,,,,192,0,2,,,,,1,,,71,93
376064,note_off,,,,,128,0,3,,,,,2,,,65,0
376064,note_on,,,,,0,0,3,,,,,2,,,67,90
376064,note_off,,,,,128,0,1,,,,,0,,,74,0
376064,note_on,,,,,0,0,1,,,,,0,,,75,109
376192,note_off,,,,,128,0,1,,,,,0,,,75,0
376192,note_on,,,,,0,0,1,,,,,0,,,74,109
376192,note_off,,,,,128,0,3,,,,,2,,,67,0
376192,note_on,,,,,0,0,3,,,,,2,,,65,90
376320,note_on,,,,,0,0,1,,,,,0,,,72,109
376320,note_off,,,,,384,0,2,,,,,1,,,71,0
376320,note_on,,,,,0,0,4,,,,,3,,,56,90
376320,note_off,,,,,384,0,4,,,,,3,,,55,0
376320,note_on,,,,,0,0,2,,,,,1,,,72,93
376320,note_off,,,,,128,0,3,,,,,2,,,65,0
376320,note_on,,,,,0,0,3,,,,,2,,,63,90
376320,note_off,,,,,128,0,1,,,,,0,,,74,0
376704,note_off,,,,,384,0,1,,,,,0,,,72,0
376704,note_on,,,,,0,0,1,,,,,0,,,84,109
377088,note_on,,,,,0,0,3,,,,,2,,,64,90
377088,note_off,,,,,768,0,3,,,,,2,,,63,0
377472,note_off,,,,,768,0,1,,,,,0,,,84,0
377472,note_on,,,,,0,0,1,,,,,0,,,82,109
377856,note_on,,,,,0,0,3,,,,,2,,,65,90
377856,note_off,,,,,768,0,3,,,,,2,,,64,0
378240,note_off,,,,,768,0,1,,,,,0,,,82,0
378240,note_on,,,,,0,0,1,,,,,0,,,80,109
378432,note_off,,,,,192,0,1,,,,,0,,,80,0
378624,note_off,,,,,2304,0,2,,,,,1,,,72,0
378624,note_on,,,,,192,0,1,,,,,0,,,82,109
378624,note_off,,,,,768,0,3,,,,,2,,,65,0
378624,note_off,,,,,2304,0,4,,,,,3,,,56,0
378816,note_off,,,,,192,0,1,,,,,0,,,82,0
378816,note_on,,,,,0,0,1,,,,,0,,,80,109
379008,note_on,,,,,0,0,1,,,,,0,,,79,109
379008,note_off,,,,,192,0,1,,,,,0,,,80,0
379200,note_on,,,,,0,0,1,,,,,0,,,77,109
379200,note_off,,,,,192,0,1,,,,,0,,,79,0
379392,note_on,,,,,768,0,4,,,,,3,,,46,90
379392,note_on,,,,,0,0,1,,,,,0,,,75,109
379392,note_on,,,,,768,0,2,,,,,1,,,58,93
379392,note_on,,,,,768,0,3,,,,,2,,,55,90
379392,note_off,,,,,192,0,1,,,,,0,,,77,0
379968,note_on,,,,,0,0,2,,,,,1,,,57,93
379968,note_off,,,,,576,0,2,,,,,1,,,58,0
379968,note_off,,,,,576,0,3,,,,,2,,,55,0
379968,note_on,,,,,0,0,3,,,,,2,,,54,90
380160,note_off,,,,,192,0,3,,,,,2,,,54,0
380160,note_on,,,,,0,0,3,,,,,2,,,55,90
380160,note_off,,,,,192,0,2,,,,,1,,,57,0
380160,note_on,,,,,0,0,2,,,,,1,,,58,93
380544,note_on,,,,,0,0,2,,,,,1,,,62,93
380544,note_off,,,,,384,0,3,,,,,2,,,55,0
380544,note_on,,,,,0,0,3,,,,,2,,,56,90
380544,note_off,,,,,384,0,2,,,,,1,,,58,0
380544,note_off,,,,,1152,0,1,,,,,0,,,75,0
380544,note_on,,,,,0,0,1,,,,,0,,,79,109
380736,note_off,,,,,192,0,1,,,,,0,,,79,0
380736,note_on,,,,,0,0,1,,,,,0,,,77,109
380928,note_on,,,,,0,0,3,,,,,2,,,55,90
380928,note_off,,,,,192,0,1,,,,,0,,,77,0
380928,note_off,,,,,384,0,3,,,,,2,,,56,0
380928,note_on,,,,,0,0,1,,,,,0,,,79,109
380928,note_on,,,,,0,0,4,,,,,3,,,47,90
380928,note_off,,,,,384,0,2,,,,,1,,,62,0
380928,note_off,,,,,1536,0,4,,,,,3,,,46,0
380928,note_on,,,,,0,0,2,,,,,1,,,62,93
381696,note_off,,,,,768,0,4,,,,,3,,,47,0
381696,note_on,,,,,0,0,4,,,,,3,,,48,90
381696,note_off,,,,,768,0,3,,,,,2,,,55,0
381696,note_on,,,,,0,0,3,,,,,2,,,67,90
381696,note_on,,,,,0,0,2,,,,,1,,,63,93
381696,note_off,,,,,768,0,2,,,,,1,,,62,0
382080,note_off,,,,,384,0,2,,,,,1,,,63,0
382080,note_off,,,,,384,0,3,,,,,2,,,67,0
382080,note_on,,,,,0,0,3,,,,,2,,,62,90
382080,note_off,,,,,1152,0,1,,,,,0,,,79,0
382080,note_on,,,,,0,0,4,,,,,3,,,41,90
382080,note_on,,,,,0,0,2,,,,,1,,,68,93
382080,note_on,,,,,0,0,1,,,,,0,,,77,109
382080,note_off,,,,,384,0,4,,,,,3,,,48,0
382272,note_off,,,,,192,0,1,,,,,0,,,77,0
382272,note_off,,,,,192,0,3,,,,,2,,,62,0
382272,note_on,,,,,0,0,1,,,,,0,,,74,109
382272,note_on,,,,,0,0,3,,,,,2,,,65,90
382464,note_off,,,,,384,0,2,,,,,1,,,68,0
382464,note_on,,,,,0,0,2,,,,,1,,,67,93
382464,note_on,,,,,0,0,1,,,,,0,,,72,109
382464,note_off,,,,,192,0,1,,,,,0,,,74,0
382464,note_on,,,,,0,0,4,,,,,3,,,43,90
382464,note_off,,,,,384,0,4,,,,,3,,,41,0
382464,note_off,,,,,192,0,3,,,,,2,,,65,0
382464,note_on,,,,,0,0,3,,,,,2,,,63,90
383232,note_off,,,,,768,0,1,,,,,0,,,72,0
383232,note_on,,,,,0,0,2,,,,,1,,,71,93
383232,note_off,,,,,768,0,2,,,,,1,,,67,0
383232,note_off,,,,,768,0,3,,,,,2,,,63,0
383232,note_on,,,,,0,0,1,,,,,0,,,75,109
383232,note_on,,,,,0,0,3,,,,,2,,,65,90
383616,note_off,,,,,384,0,1,,,,,0,,,75,0
383616,note_on,,,,,0,0,1,,,,,0,,,74,109
384000,note_on,,,,,0,0,2,,,,,1,,,72,93
384000,note_on,,,,,0,0,3,,,,,2,,,63,90
384000,note_off,,,,,768,0,3,,,,,2,,,65,0
384000,note_off,,,,,768,0,2,,,,,1,,,71,0
384000,note_off,,,,,384,0,1,,,,,0,,,74,0
384000,note_on,,,,,0,0,1,,,,,0,,,72,109
384000,note_on,,,,,0,0,4,,,,,3,,,48,90
384000,note_off,,,,,1536,0,4,,,,,3,,,43,0
384128,note_on,,,,,0,0,3,,,,,2,,,63,90
384128,note_off,,,,,128,0,2,,,,,1,,,72,0
384128,note_off,,,,,128,0,3,,,,,2,,,63,0
384128,note_on,,,,,0,0,2,,,,,1,,,67,93
384256,note_on,,,,,0,0,3,,,,,2,,,63,90
384256,note_on,,,,,0,0,2,,,,,1,,,67,93
384256,note_off,,,,,128,0,3,,,,,2,,,63,0
384256,note_off,,,,,128,0,2,,,,,1,,,67,0
384384,note_on,,,,,0,0,2,,,,,1,,,67,93
384384,note_off,,,,,128,0,2,,,,,1,,,67,0
384384,note_off,,,,,384,0,1,,,,,0,,,72,0
384384,note_on,,,,,0,0,3,,,,,2,,,63,90
384384,note_off,,,,,128,0,3,,,,,2,,,63,0
384384,note_off,,,,,384,0,4,,,,,3,,,48,0
384512,note_off,,,,,128,0,3,,,,,2,,,63,0
384512,note_off,,,,,128,0,2,,,,,1,,,67,0
384512,note_on,,,,,0,0,2,,,,,1,,,67,93
384512,note_on,,,,,0,0,3,,,,,2,,,63,90
384640,note_off,,,,,128,0,3,,,,,2,,,63,0
384640,note_on,,,,,0,0,3,,,,,2,,,63,90
384640,note_off,,,,,128,0,2,,,,,1,,,67,0
384640,note_on,,,,,0,0,2,,,,,1,,,67,93
384768,note_off,,,,,128,0,3,,,,,2,,,63,0
384768,note_on,,,,,0,0,3,,,,,2,,,63,90
384768,note_off,,,,,128,0,2,,,,,1,,,67,0
384768,note_on,,,,,0,0,2,,,,,1,,,67,93
384896,note_off,,,,,128,0,3,,,,,2,,,63,0
384896,note_on,,,,,0,0,2,,,,,1,,,67,93
384896,note_off,,,,,128,0,2,,,,,1,,,67,0
384896,note_on,,,,,0,0,3,,,,,2,,,63,90
385024,note_off,,,,,128,0,2,,,,,1,,,67,0
385024,note_off,,,,,128,0,3,,,,,2,,,63,0
385024,note_on,,,,,0,0,3,,,,,2,,,63,90
385024,note_on,,,,,0,0,2,,,,,1,,,67,93
385056,note_on,,,,,672,0,4,,,,,3,,,62,90
385152,note_on,,,,,0,0,3,,,,,2,,,63,90
385152,note_off,,,,,128,0,2,,,,,1,,,67,0
385152,note_on,,,,,0,0,2,,,,,1,,,67,93
385152,note_on,,,,,0,0,4,,,,,3,,,60,90
385152,note_off,,,,,128,0,3,,,,,2,,,63,0
385152,note_off,,,,,96,0,4,,,,,3,,,62,0
385280,note_on,,,,,0,0,2,,,,,1,,,67,93
385280,note_off,,,,,128,0,3,,,,,2,,,63,0
385280,note_on,,,,,0,0,4,,,,,3,,,59,90
385280,note_on,,,,,0,0,3,,,,,2,,,63,90
385280,note_off,,,,,128,0,4,,,,,3,,,60,0
385280,note_off,,,,,128,0,2,,,,,1,,,67,0
385408,note_on,,,,,0,0,3,,,,,2,,,63,90
385408,note_off,,,,,128,0,3,,,,,2,,,63,0
385408,note_on,,,,,0,0,4,,,,,3,,,60,90
385408,note_off,,,,,128,0,4,,,,,3,,,59,0
385408,note_on,,,,,0,0,2,,,,,1,,,67,93
385408,note_off,,,,,128,0,2,,,,,1,,,67,0
385536,note_on,,,,,0,0,3,,,,,2,,,65,90
385536,note_off,,,,,128,0,3,,,,,2,,,63,0
385536,note_on,,,,,0,0,4,,,,,3,,,62,90
385536,note_off,,,,,128,0,4,,,,,3,,,60,0
385536,note_on,,,,,0,0,2,,,,,1,,,67,93
385536,note_off,,,,,128,0,2,,,,,1,,,67,0
385664,note_on,,,,,0,0,3,,,,,2,,,65,90
385664,note_off,,,,,128,0,2,,,,,1,,,67,0
385664,note_on,,,,,0,0,2,,,,,1,,,67,93
385664,note_off,,,,,128,0,3,,,,,2,,,65,0
385728,note_off,,,,,192,0,4,,,,,3,,,62,0
385792,note_on,,,,,0,0,2,,,,,1,,,67,93
385792,note_on,,,,,0,0,3,,,,,2,,,65,90
385792,note_off,,,,,128,0,2,,,,,1,,,67,0
385792,note_off,,,,,128,0,3,,,,,2,,,65,0
385920,note_off,,,,,128,0,2,,,,,1,,,67,0
385920,note_on,,,,,0,0,2,,,,,1,,,67,93
385920,note_on,,,,,0,0,3,,,,,2,,,65,90
385920,note_off,,,,,128,0,3,,,,,2,,,65,0
385920,note_on,,,,,192,0,4,,,,,3,,,59,90
386048,note_on,,,,,0,0,3,,,,,2,,,65,90
386048,note_off,,,,,128,0,3,,,,,2,,,65,0
386048,note_off,,,,,128,0,2,,,,,1,,,67,0
386048,note_on,,,,,0,0,2,,,,,1,,,67,93
386112,note_off,,,,,192,0,4,,,,,3,,,59,0
386176,note_off,,,,,128,0,3,,,,,2,,,65,0
386176,note_off,,,,,128,0,2,,,,,1,,,67,0
386176,note_on,,,,,0,0,3,,,,,2,,,65,90
386176,note_on,,,,,0,0,2,,,,,1,,,67,93
386304,note_on,,,,,0,0,3,,,,,2,,,65,90
386304,note_off,,,,,128,0,3,,,,,2,,,65,0
386304,note_on,,,,,192,0,4,,,,,3,,,55,90
386304,note_on,,,,,0,0,2,,,,,1,,,67,93
386304,note_off,,,,,128,0,2,,,,,1,,,67,0
386432,note_on,,,,,0,0,3,,,,,2,,,65,90
386432,note_off,,,,,128,0,3,,,,,2,,,65,0
386432,note_on,,,,,0,0,2,,,,,1,,,67,93
386432,note_off,,,,,128,0,2,,,,,1,,,67,0
386496,note_off,,,,,192,0,4,,,,,3,,,55,0
386560,note_on,,,,,0,0,2,,,,,1,,,67,93
386560,note_off,,,,,128,0,2,,,,,1,,,67,0
386560,note_on,,,,,0,0,3,,,,,2,,,65,90
386560,note_off,,,,,128,0,3,,,,,2,,,65,0
386592,note_on,,,,,2208,0,1,,,,,0,,,72,109
386688,note_on,,,,,0,0,2,,,,,1,,,67,93
386688,note_on,,,,,0,0,1,,,,,0,,,71,109
386688,note_off,,,,,128,0,2,,,,,1,,,67,0
386688,note_off,,,,,128,0,3,,,,,2,,,65,0
386688,note_on,,,,,0,0,3,,,,,2,,,65,90
386688,note_off,,,,,96,0,1,,,,,0,,,72,0
386816,note_on,,,,,0,0,3,,,,,2,,,65,90
386816,note_off,,,,,128,0,3,,,,,2,,,65,0
386816,note_off,,,,,128,0,1,,,,,0,,,71,0
386816,note_on,,,,,0,0,1,,,,,0,,,69,109
386816,note_off,,,,,128,0,2,,,,,1,,,67,0
386816,note_on,,,,,0,0,2,,,,,1,,,67,93
386944,note_off,,,,,128,0,1,,,,,0,,,69,0
386944,note_on,,,,,0,0,2,,,,,1,,,67,93
386944,note_on,,,,,0,0,1,,,,,0,,,71,109
386944,note_off,,,,,128,0,3,,,,,2,,,65,0
386944,note_off,,,,,128,0,2,,,,,1,,,67,0
386944,note_on,,,,,0,0,3,,,,,2,,,65,90
387072,note_on,,,,,0,0,1,,,,,0,,,72,109
387072,note_off,,,,,128,0,1,,,,,0,,,71,0
387072,note_on,,,,,0,0,2,,,,,1,,,67,93
387072,note_off,,,,,128,0,2,,,,,1,,,67,0
387072,note_off,,,,,128,0,3,,,,,2,,,65,0
387072,note_on,,,,,576,0,4,,,,,3,,,48,90
387072,note_on,,,,,0,0,3,,,,,2,,,63,90
387200,note_off,,,,,128,0,2,,,,,1,,,67,0
387200,note_on,,,,,0,0,2,,,,,1,,,67,93
387200,note_on,,,,,0,0,3,,,,,2,,,63,90
387200,note_off,,,,,128,0,3,,,,,2,,,63,0
387328,note_on,,,,,0,0,3,,,,,2,,,63,90
387328,note_off,,,,,128,0,2,,,,,1,,,67,0
387328,note_off,,,,,128,0,3,,,,,2,,,63,0
387328,note_on,,,,,0,0,2,,,,,1,,,67,93
387456,note_off,,,,,128,0,2,,,,,1,,,67,0
387456,note_on,,,,,0,0,2,,,,,1,,,67,93
387456,note_off,,,,,384,0,4,,,,,3,,,48,0
387456,note_on,,,,,0,0,3,,,,,2,,,63,90
387456,note_off,,,,,128,0,3,,,,,2,,,63,0
387584,note_on,,,,,0,0,1,,,,,0,,,74,109
387584,note_off,,,,,128,0,2,,,,,1,,,67,0
387584,note_on,,,,,0,0,2,,,,,1,,,67,93
387584,note_on,,,,,0,0,3,,,,,2,,,63,90
387584,note_off,,,,,128,0,3,,,,,2,,,63,0
387584,note_off,,,,,512,0,1,,,,,0,,,72,0
387712,note_off,,,,,128,0,1,,,,,0,,,74,0
387712,note_on,,,,,0,0,3,,,,,2,,,63,90
387712,note_off,,,,,128,0,2,,,,,1,,,67,0
387712,note_off,,,,,128,0,3,,,,,2,,,63,0
387712,note_on,,,,,0,0,2,,,,,1,,,67,93
387712,note_on,,,,,0,0,1,,,,,0,,,75,109
387840,note_off,,,,,128,0,2,,,,,1,,,67,0
387840,note_on,,,,,0,0,1,,,,,0,,,67,109
387840,note_on,,,,,0,0,3,,,,,2,,,63,90
387840,note_off,,,,,128,0,3,,,,,2,,,63,0
387840,note_on,,,,,0,0,2,,,,,1,,,67,93
387840,note_off,,,,,128,0,1,,,,,0,,,75,0
387968,note_on,,,,,0,0,3,,,,,2,,,63,90
387968,note_off,,,,,128,0,3,,,,,2,,,63,0
387968,note_off,,,,,128,0,2,,,,,1,,,67,0
387968,note_on,,,,,0,0,2,,,,,1,,,67,93
388096,note_on,,,,,0,0,2,,,,,1,,,67,93
388096,note_off,,,,,128,0,2,,,,,1,,,67,0
388096,note_off,,,,,128,0,3,,,,,2,,,63,0
388096,note_on,,,,,0,0,3,,,,,2,,,63,90
388128,note_on,,,,,672,0,4,,,,,3,,,62,90
388224,note_off,,,,,96,0,4,,,,,3,,,62,0
388224,note_on,,,,,0,0,2,,,,,1,,,67,93
388224,note_off,,,,,384,0,1,,,,,0,,,67,0
388224,note_off,,,,,128,0,2,,,,,1,,,67,0
388224,note_off,,,,,128,0,3,,,,,2,,,63,0
388224,note_on,,,,,0,0,3,,,,,2,,,63,90
388224,note_on,,,,,0,0,4,,,,,3,,,60,90
388352,note_off,,,,,128,0,2,,,,,1,,,67,0
388352,note_on,,,,,0,0,3,,,,,2,,,63,90
388352,note_on,,,,,0,0,2,,,,,1,,,67,93
388352,note_off,,,,,128,0,3,,,,,2,,,63,0
388352,note_off,,,,,128,0,4,,,,,3,,,60,0
388352,note_on,,,,,0,0,4,,,,,3,,,59,90
388480,note_on,,,,,0,0,3,,,,,2,,,63,90
388480,note_off,,,,,128,0,4,,,,,3,,,59,0
388480,note_on,,,,,0,0,4,,,,,3,,,60,90
388480,note_off,,,,,128,0,3,,,,,2,,,63,0
388480,note_off,,,,,128,0,2,,,,,1,,,67,0
388480,note_on,,,,,0,0,2,,,,,1,,,67,93
388608,note_on,,,,,0,0,3,,,,,2,,,65,90
388608,note_off,,,,,128,0,3,,,,,2,,,63,0
388608,note_on,,,,,0,0,2,,,,,1,,,67,93
388608,note_on,,,,,0,0,4,,,,,3,,,62,90
388608,note_off,,,,,128,0,4,,,,,3,,,60,0
388608,note_off,,,,,128,0,2,,,,,1,,,67,0
388736,note_off,,,,,128,0,2,,,,,1,,,67,0
388736,note_on,,,,,0,0,2,,,,,1,,,67,93
388736,note_off,,,,,128,0,3,,,,,2,,,65,0
388736,note_on,,,,,0,0,3,,,,,2,,,65,90
388800,note_off,,,,,192,0,4,,,,,3,,,62,0
388864,note_off,,,,,128,0,3,,,,,2,,,65,0
388864,note_off,,,,,128,0,2,,,,,1,,,67,0
388864,note_on,,,,,0,0,2,,,,,1,,,67,93
388864,note_on,,,,,0,0,3,,,,,2,,,65,90
388992,note_off,,,,,128,0,2,,,,,1,,,67,0
388992,note_on,,,,,0,0,3,,,,,2,,,65,90
388992,note_on,,,,,0,0,2,,,,,1,,,67,93
388992,note_off,,,,,128,0,3,,,,,2,,,65,0
388992,note_on,,,,,192,0,4,,,,,3,,,59,90
389120,note_off,,,,,128,0,3,,,,,2,,,65,0
389120,note_on,,,,,0,0,2,,,,,1,,,67,93
389120,note_off,,,,,128,0,2,,,,,1,,,67,0
389120,note_on,,,,,0,0,3,,,,,2,,,65,90
389184,note_off,,,,,192,0,4,,,,,3,,,59,0
389248,note_on,,,,,0,0,3,,,,,2,,,65,90
389248,note_off,,,,,128,0,3,,,,,2,,,65,0
389248,note_off,,,,,128,0,2,,,,,1,,,67,0
389248,note_on,,,,,0,0,2,,,,,1,,,67,93
389376,note_on,,,,,192,0,4,,,,,3,,,55,90
389376,note_off,,,,,128,0,2,,,,,1,,,67,0
389376,note_on,,,,,0,0,2,,,,,1,,,67,93
389376,note_on,,,,,0,0,3,,,,,2,,,65,90
389376,note_off,,,,,128,0,3,,,,,2,,,65,0
389504,note_on,,,,,0,0,3,,,,,2,,,65,90
389504,note_off,,,,,128,0,2,,,,,1,,,67,0
389504,note_on,,,,,0,0,2,,,,,1,,,67,93
389504,note_off,,,,,128,0,3,,,,,2,,,65,0
389568,note_off,,,,,192,0,4,,,,,3,,,55,0
389632,note_on,,,,,0,0,2,,,,,1,,,67,93
389632,note_off,,,,,128,0,2,,,,,1,,,67,0
389632,note_off,,,,,128,0,3,,,,,2,,,65,0
389632,note_on,,,,,0,0,3,,,,,2,,,65,90
389664,note_on,,,,,1440,0,1,,,,,0,,,72,109
389760,note_on,,,,,0,0,3,,,,,2,,,65,90
389760,note_off,,,,,128,0,3,,,,,2,,,65,0
389760,note_on,,,,,0,0,2,,,,,1,,,67,93
389760,note_off,,,,,128,0,2,,,,,1,,,67,0
389760,note_on,,,,,0,0,1,,,,,0,,,71,109
389760,note_off,,,,,96,0,1,,,,,0,,,72,0
389888,note_on,,,,,0,0,3,,,,,2,,,65,90
389888,note_off,,,,,128,0,3,,,,,2,,,65,0
389888,note_off,,,,,128,0,1,,,,,0,,,71,0
389888,note_on,,,,,0,0,1,,,,,0,,,69,109
389888,note_on,,,,,0,0,2,,,,,1,,,67,93
389888,note_off,,,,,128,0,2,,,,,1,,,67,0
390016,note_off,,,,,128,0,3,,,,,2,,,65,0
390016,note_on,,,,,0,0,2,,,,,1,,,67,93
390016,note_on,,,,,0,0,3,,,,,2,,,65,90
390016,note_off,,,,,128,0,2,,,,,1,,,67,0
390016,note_off,,,,,128,0,1,,,,,0,,,69,0
390016,note_on,,,,,0,0,1,,,,,0,,,71,109
390144,note_off,,,,,128,0,1,,,,,0,,,71,0
390144,note_on,,,,,0,0,1,,,,,0,,,72,109
390144,note_on,,,,,0,0,3,,,,,2,,,63,90
390144,note_off,,,,,128,0,3,,,,,2,,,65,0
390144,note_on,,,,,576,0,4,,,,,3,,,48,90
390144,note_off,,,,,128,0,2,,,,,1,,,67,0
390144,note_on,,,,,0,0,2,,,,,1,,,67,93
390272,note_on,,,,,0,0,3,,,,,2,,,63,90
390272,note_off,,,,,128,0,3,,,,,2,,,63,0
390272,note_on,,,,,0,0,2,,,,,1,,,67,93
390272,note_off,,,,,128,0,2,,,,,1,,,67,0
390400,note_off,,,,,128,0,3,,,,,2,,,63,0
390400,note_on,,,,,0,0,3,,,,,2,,,63,90
390400,note_on,,,,,0,0,2,,,,,1,,,67,93
390400,note_off,,,,,128,0,2,,,,,1,,,67,0
390528,note_on,,,,,0,0,3,,,,,2,,,63,90
390528,note_off,,,,,128,0,3,,,,,2,,,63,0
390528,note_off,,,,,128,0,2,,,,,1,,,67,0
390528,note_on,,,,,0,0,2,,,,,1,,,67,93
390528,note_off,,,,,384,0,4,,,,,3,,,48,0
390656,note_on,,,,,0,0,3,,,,,2,,,63,90
390656,note_off,,,,,512,0,1,,,,,0,,,72,0
390656,note_on,,,,,0,0,2,,,,,1,,,67,93
390656,note_off,,,,,128,0,2,,,,,1,,,67,0
390656,note_on,,,,,0,0,1,,,,,0,,,74,109
390656,note_off,,,,,128,0,3,,,,,2,,,63,0
390784,note_off,,,,,128,0,1,,,,,0,,,74,0
390784,note_off,,,,,128,0,2,,,,,1,,,67,0
390784,note_on,,,,,0,0,2,,,,,1,,,67,93
390784,note_on,,,,,0,0,3,,,,,2,,,63,90
390784,note_off,,,,,128,0,3,,,,,2,,,63,0
390784,note_on,,,,,0,0,1,,,,,0,,,75,109
390912,note_on,,,,,0,0,2,,,,,1,,,67,93
390912,note_on,,,,,0,0,3,,,,,2,,,63,90
390912,note_off,,,,,128,0,3,,,,,2,,,63,0
390912,note_off,,,,,128,0,1,,,,,0,,,75,0
390912,note_off,,,,,128,0,2,,,,,1,,,67,0
390912,note_on,,,,,0,0,1,,,,,0,,,67,109
391200,note_off,,,,,288,0,2,,,,,1,,,67,0
391200,note_on,,,,,0,0,2,,,,,1,,,80,93
391200,note_off,,,,,288,0,1,,,,,0,,,67,0
391200,note_on,,,,,0,0,1,,,,,0,,,80,109
391200,note_off,,,,,288,0,3,,,,,2,,,63,0
391200,note_on,,,,,672,0,4,,,,,3,,,56,90
391200,note_on,,,,,0,0,3,,,,,2,,,68,90
391296,note_off,,,,,96,0,1,,,,,0,,,80,0
391296,note_on,,,,,0,0,1,,,,,0,,,79,109
391296,note_off,,,,,96,0,4,,,,,3,,,56,0
391296,note_off,,,,,96,0,3,,,,,2,,,68,0
391296,note_on,,,,,0,0,2,,,,,1,,,79,93
391296,note_off,,,,,96,0,2,,,,,1,,,80,0
391296,note_on,,,,,0,0,4,,,,,3,,,55,90
391296,note_on,,,,,0,0,3,,,,,2,,,67,90
391424,note_on,,,,,0,0,3,,,,,2,,,66,90
391424,note_on,,,,,0,0,1,,,,,0,,,78,109
391424,note_off,,,,,128,0,3,,,,,2,,,67,0
391424,note_off,,,,,128,0,2,,,,,1,,,79,0
391424,note_on,,,,,0,0,2,,,,,1,,,78,93
391424,note_off,,,,,128,0,4,,,,,3,,,55,0
391424,note_on,,,,,0,0,4,,,,,3,,,54,90
391424,note_off,,,,,128,0,1,,,,,0,,,79,0
391552,note_off,,,,,128,0,1,,,,,0,,,78,0
391552,note_on,,,,,0,0,3,,,,,2,,,67,90
391552,note_off,,,,,128,0,2,,,,,1,,,78,0
391552,note_on,,,,,0,0,2,,,,,1,,,79,93
391552,note_off,,,,,128,0,4,,,,,3,,,54,0
391552,note_on,,,,,0,0,4,,,,,3,,,55,90
391552,note_off,,,,,128,0,3,,,,,2,,,66,0
391552,note_on,,,,,0,0,1,,,,,0,,,79,109
391680,note_on,,,,,0,0,4,,,,,3,,,63,90
391680,note_on,,,,,0,0,1,,,,,0,,,75,109
391680,note_off,,,,,128,0,4,,,,,3,,,55,0
391680,note_off,,,,,128,0,1,,,,,0,,,79,0
391680,note_off,,,,,128,0,3,,,,,2,,,67,0
391680,note_on,,,,,0,0,3,,,,,2,,,63,90
391680,note_on,,,,,0,0,2,,,,,1,,,75,93
391680,note_off,,,,,128,0,2,,,,,1,,,79,0
391872,note_off,,,,,192,0,2,,,,,1,,,75,0
391872,note_off,,,,,192,0,1,,,,,0,,,75,0
391872,note_off,,,,,192,0,4,,,,,3,,,63,0
391872,note_off,,,,,192,0,3,,,,,2,,,63,0
392064,note_on,,,,,192,0,4,,,,,3,,,60,90
392064,note_on,,,,,192,0,2,,,,,1,,,72,93
392064,note_on,,,,,192,0,1,,,,,0,,,72,109
392064,note_on,,,,,192,0,3,,,,,2,,,60,90
392256,note_off,,,,,192,0,4,,,,,3,,,60,0
392256,note_off,,,,,192,0,2,,,,,1,,,72,0
392256,note_off,,,,,192,0,3,,,,,2,,,60,0
392256,note_off,,,,,192,0,1,,,,,0,,,72,0
392448,note_on,,,,,192,0,4,,,,,3,,,55,90
392448,note_on,,,,,192,0,2,,,,,1,,,67,93
392448,note_on,,,,,192,0,3,,,,,2,,,55,90
392448,note_on,,,,,192,0,1,,,,,0,,,67,109
392640,note_off,,,,,192,0,3,,,,,2,,,55,0
392640,note_off,,,,,192,0,4,,,,,3,,,55,0
392640,note_off,,,,,192,0,2,,,,,1,,,67,0
392640,note_off,,,,,192,0,1,,,,,0,,,67,0
392832,note_on,,,,,192,0,4,,,,,3,,,51,90
392832,note_on,,,,,192,0,2,,,,,1,,,63,93
392832,note_on,,,,,192,0,1,,,,,0,,,63,109
392832,note_on,,,,,192,0,3,,,,,2,,,51,90
393024,note_on,,,,,0,0,4,,,,,3,,,48,90
393024,note_off,,,,,192,0,1,,,,,0,,,63,0
393024,note_on,,,,,0,0,1,,,,,0,,,60,109
393024,note_off,,,,,192,0,2,,,,,1,,,63,0
393024,note_on,,,,,0,0,2,,,,,1,,,60,93
393024,note_on,,,,,0,0,3,,,,,2,,,48,90
393024,note_off,,,,,192,0,3,,,,,2,,,51,0
393024,note_off,,,,,192,0,4,,,,,3,,,51,0
393216,note_off,,,,,192,0,4,,,,,3,,,48,0
393216,note_on,,,,,0,0,3,,,,,2,,,56,90
393216,note_off,,,,,192,0,3,,,,,2,,,48,0
393216,note_off,,,,,192,0,1,,,,,0,,,60,0
393216,note_on,,,,,0,0,4,,,,,3,,,44,90
393216,note_on,,,,,0,0,1,,,,,0,,,56,109
393216,note_on,,,,,0,0,2,,,,,1,,,56,93
393216,note_off,,,,,192,0,2,,,,,1,,,60,0
393344,note_off,,,,,128,0,3,,,,,2,,,56,0
393344,note_on,,,,,0,0,3,,,,,2,,,56,90
393472,note_off,,,,,128,0,3,,,,,2,,,56,0
393472,note_on,,,,,0,0,3,,,,,2,,,56,90
393600,note_off,,,,,128,0,3,,,,,2,,,56,0
393600,note_on,,,,,0,0,3,,,,,2,,,56,90
393728,note_off,,,,,128,0,3,,,,,2,,,56,0
393728,note_on,,,,,0,0,3,,,,,2,,,56,90
393856,note_off,,,,,128,0,3,,,,,2,,,56,0
393856,note_on,,,,,0,0,3,,,,,2,,,56,90
393984,note_off,,,,,768,0,2,,,,,1,,,56,0
393984,note_on,,,,,0,0,3,,,,,2,,,56,90
393984,note_off,,,,,768,0,1,,,,,0,,,56,0
393984,note_off,,,,,768,0,4,,,,,3,,,44,0
393984,note_off,,,,,128,0,3,,,,,2,,,56,0
394112,note_off,,,,,128,0,3,,,,,2,,,56,0
394112,note_on,,,,,0,0,3,,,,,2,,,56,90
394240,note_off,,,,,128,0,3,,,,,2,,,56,0
394240,note_on,,,,,0,0,3,,,,,2,,,56,90
394272,note_on,,,,,288,0,1,,,,,0,,,74,109
394368,note_on,,,,,384,0,2,,,,,1,,,68,93
394368,note_on,,,,,0,0,1,,,,,0,,,72,109
394368,note_off,,,,,96,0,1,,,,,0,,,74,0
394368,note_off,,,,,128,0,3,,,,,2,,,56,0
394368,note_on,,,,,0,0,3,,,,,2,,,56,90
394496,note_off,,,,,128,0,2,,,,,1,,,68,0
394496,note_on,,,,,0,0,2,,,,,1,,,67,93
394496,note_off,,,,,128,0,3,,,,,2,,,56,0
394496,note_off,,,,,128,0,1,,,,,0,,,72,0
394496,note_on,,,,,0,0,1,,,,,0,,,71,109
394496,note_on,,,,,0,0,3,,,,,2,,,56,90
394624,note_off,,,,,128,0,3,,,,,2,,,56,0
394624,note_on,,,,,0,0,3,,,,,2,,,56,90
394624,note_on,,,,,0,0,1,,,,,0,,,72,109
394624,note_off,,,,,128,0,1,,,,,0,,,71,0
394624,note_on,,,,,0,0,2,,,,,1,,,68,93
394624,note_off,,,,,128,0,2,,,,,1,,,67,0
394752,note_on,,,,,0,0,2,,,,,1,,,65,93
394752,note_off,,,,,128,0,1,,,,,0,,,72,0
394752,note_on,,,,,0,0,3,,,,,2,,,56,90
394752,note_off,,,,,128,0,3,,,,,2,,,56,0
394752,note_off,,,,,128,0,2,,,,,1,,,68,0
394752,note_on,,,,,0,0,1,,,,,0,,,74,109
394880,note_on,,,,,0,0,3,,,,,2,,,56,90
394880,note_off,,,,,128,0,3,,,,,2,,,56,0
394944,note_off,,,,,192,0,2,,,,,1,,,65,0
394944,note_off,,,,,192,0,1,,,,,0,,,74,0
395008,note_on,,,,,0,0,3,,,,,2,,,56,90
395008,note_off,,,,,128,0,3,,,,,2,,,56,0
395136,note_on,,,,,192,0,2,,,,,1,,,74,93
395136,note_off,,,,,128,0,3,,,,,2,,,56,0
395136,note_on,,,,,0,0,3,,,,,2,,,56,90
395136,note_on,,,,,192,0,1,,,,,0,,,77,109
395264,note_on,,,,,0,0,3,,,,,2,,,56,90
395264,note_off,,,,,128,0,3,,,,,2,,,56,0
395328,note_off,,,,,192,0,1,,,,,0,,,77,0
395328,note_off,,,,,192,0,2,,,,,1,,,74,0
395392,note_off,,,,,128,0,3,,,,,2,,,56,0
395392,note_on,,,,,0,0,3,,,,,2,,,56,90
395520,note_on,,,,,0,0,3,,,,,2,,,56,90
395520,note_off,,,,,128,0,3,,,,,2,,,56,0
395648,note_off,,,,,128,0,3,,,,,2,,,56,0
395648,note_on,,,,,0,0,3,,,,,2,,,56,90
395776,note_off,,,,,128,0,3,,,,,2,,,56,0
395776,note_on,,,,,0,0,3,,,,,2,,,56,90
395904,note_off,,,,,128,0,3,,,,,2,,,56,0
395904,note_on,,,,,0,0,3,,,,,2,,,56,90
396032,note_off,,,,,128,0,3,,,,,2,,,56,0
396032,note_on,,,,,0,0,3,,,,,2,,,56,90
396160,note_off,,,,,128,0,3,,,,,2,,,56,0
396160,note_on,,,,,0,0,3,,,,,2,,,56,90
396288,note_on,,,,,960,0,2,,,,,1,,,56,93
396288,note_on,,,,,2304,0,4,,,,,3,,,44,90
396288,note_off,,,,,128,0,3,,,,,2,,,56,0
396288,note_on,,,,,960,0,1,,,,,0,,,56,109
396288,note_on,,,,,0,0,3,,,,,2,,,56,90
396416,note_off,,,,,128,0,3,,,,,2,,,56,0
396416,note_on,,,,,0,0,3,,,,,2,,,56,90
396544,note_off,,,,,128,0,3,,,,,2,,,56,0
396544,note_on,,,,,0,0,3,,,,,2,,,56,90
396672,note_on,,,,,0,0,3,,,,,2,,,56,90
396672,note_off,,,,,128,0,3,,,,,2,,,56,0
396800,note_off,,,,,128,0,3,,,,,2,,,56,0
396800,note_on,,,,,0,0,3,,,,,2,,,56,90
396928,note_on,,,,,0,0,3,,,,,2,,,56,90
396928,note_off,,,,,128,0,3,,,,,2,,,56,0
397056,note_off,,,,,768,0,2,,,,,1,,,56,0
397056,note_on,,,,,0,0,3,,,,,2,,,56,90
397056,note_off,,,,,768,0,1,,,,,0,,,56,0
397056,note_off,,,,,128,0,3,,,,,2,,,56,0
397056,note_off,,,,,768,0,4,,,,,3,,,44,0
397184,note_on,,,,,0,0,3,,,,,2,,,56,90
397184,note_off,,,,,128,0,3,,,,,2,,,56,0
397312,note_on,,,,,0,0,3,,,,,2,,,56,90
397312,note_off,,,,,128,0,3,,,,,2,,,56,0
397344,note_on,,,,,288,0,1,,,,,0,,,74,109
397440,note_on,,,,,0,0,1,,,,,0,,,72,109
397440,note_on,,,,,384,0,2,,,,,1,,,68,93
397440,note_on,,,,,0,0,3,,,,,2,,,56,90
397440,note_off,,,,,96,0,1,,,,,0,,,74,0
397440,note_off,,,,,128,0,3,,,,,2,,,56,0
397568,note_off,,,,,128,0,1,,,,,0,,,72,0
397568,note_on,,,,,0,0,3,,,,,2,,,56,90
397568,note_on,,,,,0,0,1,,,,,0,,,71,109
397568,note_off,,,,,128,0,3,,,,,2,,,56,0
397568,note_off,,,,,128,0,2,,,,,1,,,68,0
397568,note_on,,,,,0,0,2,,,,,1,,,67,93
397696,note_off,,,,,128,0,1,,,,,0,,,71,0
397696,note_on,,,,,0,0,1,,,,,0,,,72,109
397696,note_on,,,,,0,0,3,,,,,2,,,56,90
397696,note_off,,,,,128,0,3,,,,,2,,,56,0
397696,note_off,,,,,128,0,2,,,,,1,,,67,0
397696,note_on,,,,,0,0,2,,,,,1,,,68,93
397824,note_on,,,,,0,0,3,,,,,2,,,56,90
397824,note_off,,,,,128,0,3,,,,,2,,,56,0
397824,note_off,,,,,128,0,2,,,,,1,,,68,0
397824,note_on,,,,,0,0,2,,,,,1,,,65,93
397824,note_on,,,,,0,0,1,,,,,0,,,74,109
397824,note_off,,,,,128,0,1,,,,,0,,,72,0
397952,note_on,,,,,0,0,3,,,,,2,,,56,90
397952,note_off,,,,,128,0,3,,,,,2,,,56,0
398016,note_off,,,,,192,0,2,,,,,1,,,65,0
398016,note_off,,,,,192,0,1,,,,,0,,,74,0
398080,note_off,,,,,128,0,3,,,,,2,,,56,0
398080,note_on,,,,,0,0,3,,,,,2,,,56,90
398208,note_off,,,,,128,0,3,,,,,2,,,56,0
398208,note_on,,,,,192,0,1,,,,,0,,,77,109
398208,note_on,,,,,0,0,3,,,,,2,,,56,90
398208,note_on,,,,,192,0,2,,,,,1,,,74,93
398336,note_off,,,,,128,0,3,,,,,2,,,56,0
398336,note_on,,,,,0,0,3,,,,,2,,,56,90
398400,note_off,,,,,192,0,2,,,,,1,,,74,0
398400,note_off,,,,,192,0,1,,,,,0,,,77,0
398464,note_off,,,,,128,0,3,,,,,2,,,56,0
398464,note_on,,,,,0,0,3,,,,,2,,,56,90
398592,note_off,,,,,128,0,3,,,,,2,,,56,0
398592,note_on,,,,,0,0,3,,,,,2,,,58,90
398720,note_on,,,,,0,0,3,,,,,2,,,58,90
398720,note_off,,,,,128,0,3,,,,,2,,,58,0
398848,note_on,,,,,0,0,3,,,,,2,,,58,90
398848,note_off,,,,,128,0,3,,,,,2,,,58,0
398976,note_off,,,,,128,0,3,,,,,2,,,58,0
398976,note_on,,,,,0,0,3,,,,,2,,,56,90
399104,note_off,,,,,128,0,3,,,,,2,,,56,0
399104,note_on,,,,,0,0,3,,,,,2,,,56,90
399232,note_on,,,,,0,0,3,,,,,2,,,56,90
399232,note_off,,,,,128,0,3,,,,,2,,,56,0
399360,note_off,,,,,128,0,3,,,,,2,,,56,0
399360,note_on,,,,,960,0,2,,,,,1,,,70,93
399360,note_on,,,,,0,0,2,,,,,1,,,63,93
399360,note_on,,,,,0,0,1,,,,,0,,,75,109
399360,note_on,,,,,960,0,1,,,,,0,,,82,109
399360,note_on,,,,,2304,0,4,,,,,3,,,43,90
399360,note_on,,,,,0,0,3,,,,,2,,,55,90
400128,note_off,,,,,0,0,1,,,,,0,,,75,0
400128,note_off,,,,,768,0,1,,,,,0,,,82,0
400128,note_on,,,,,0,0,2,,,,,1,,,56,93
400128,note_on,,,,,0,0,1,,,,,0,,,75,109
400128,note_on,,,,,0,0,1,,,,,0,,,84,109
400128,note_on,,,,,0,0,3,,,,,2,,,56,90
400128,note_off,,,,,768,0,3,,,,,2,,,55,0
400128,note_on,,,,,0,0,4,,,,,3,,,44,90
400128,note_off,,,,,768,0,2,,,,,1,,,70,0
400128,note_off,,,,,0,0,2,,,,,1,,,63,0
400128,note_on,,,,,0,0,2,,,,,1,,,63,93
400128,note_on,,,,,0,0,2,,,,,1,,,72,93
400128,note_on,,,,,0,0,1,,,,,0,,,68,109
400128,note_off,,,,,768,0,4,,,,,3,,,43,0
400896,note_off,,,,,768,0,1,,,,,0,,,68,0
400896,note_off,,,,,0,0,1,,,,,0,,,75,0
400896,note_off,,,,,0,0,1,,,,,0,,,84,0
400896,note_off,,,,,0,0,2,,,,,1,,,63,0
400896,note_off,,,,,768,0,2,,,,,1,,,56,0
400896,note_off,,,,,768,0,3,,,,,2,,,56,0
400896,note_off,,,,,0,0,2,,,,,1,,,72,0
400896,note_off,,,,,768,0,4,,,,,3,,,44,0
401280,note_on,,,,,384,0,1,,,,,0,,,84,109
401472,note_on,,,,,0,0,1,,,,,0,,,82,109
401472,note_off,,,,,192,0,1,,,,,0,,,84,0
401664,note_on,,,,,0,0,1,,,,,0,,,82,109
401664,note_off,,,,,192,0,1,,,,,0,,,82,0
401856,note_off,,,,,192,0,1,,,,,0,,,82,0
401856,note_on,,,,,0,0,1,,,,,0,,,80,109
402048,note_on,,,,,0,0,1,,,,,0,,,79,109
402048,note_off,,,,,192,0,1,,,,,0,,,80,0
402240,note_off,,,,,192,0,1,,,,,0,,,79,0
402240,note_on,,,,,0,0,1,,,,,0,,,77,109
402432,note_on,,,,,0,0,1,,,,,0,,,75,109
402432,note_on,,,,,1536,0,3,,,,,2,,,55,90
402432,note_on,,,,,1536,0,2,,,,,1,,,58,93
402432,note_on,,,,,1536,0,4,,,,,3,,,43,90
402432,note_off,,,,,192,0,1,,,,,0,,,77,0
403200,note_off,,,,,768,0,2,,,,,1,,,58,0
403200,note_on,,,,,0,0,2,,,,,1,,,62,93
403200,note_on,,,,,0,0,1,,,,,0,,,79,109
403200,note_off,,,,,768,0,1,,,,,0,,,75,0
403200,note_off,,,,,768,0,4,,,,,3,,,43,0
403200,note_on,,,,,0,0,4,,,,,3,,,44,90
403200,note_on,,,,,0,0,3,,,,,2,,,56,90
403200,note_off,,,,,768,0,3,,,,,2,,,55,0
403584,note_off,,,,,384,0,1,,,,,0,,,79,0
403584,note_on,,,,,0,0,1,,,,,0,,,77,109
403968,note_on,,,,,0,0,3,,,,,2,,,55,90
403968,note_on,,,,,0,0,4,,,,,3,,,51,90
403968,note_off,,,,,384,0,1,,,,,0,,,77,0
403968,note_on,,,,,0,0,2,,,,,1,,,63,93
403968,note_off,,,,,768,0,4,,,,,3,,,44,0
403968,note_on,,,,,0,0,1,,,,,0,,,75,109
403968,note_off,,,,,768,0,3,,,,,2,,,56,0
403968,note_off,,,,,768,0,2,,,,,1,,,62,0
404352,note_off,,,,,384,0,2,,,,,1,,,63,0
404352,note_on,,,,,0,0,2,,,,,1,,,58,93
404352,note_on,,,,,0,0,3,,,,,2,,,55,90
404352,note_off,,,,,384,0,4,,,,,3,,,51,0
404352,note_off,,,,,384,0,3,,,,,2,,,55,0
404352,note_off,,,,,384,0,1,,,,,0,,,75,0
404736,note_on,,,,,0,0,2,,,,,1,,,57,93
404736,note_off,,,,,384,0,2,,,,,1,,,58,0
404736,note_off,,,,,384,0,3,,,,,2,,,55,0
404736,note_on,,,,,0,0,3,,,,,2,,,54,90
405024,note_on,,,,,672,0,1,,,,,0,,,72,109
405120,note_on,,,,,0,0,2,,,,,1,,,56,93
405120,note_off,,,,,384,0,2,,,,,1,,,57,0
405120,note_off,,,,,96,0,1,,,,,0,,,72,0
405120,note_on,,,,,0,0,1,,,,,0,,,70,109
405120,note_off,,,,,384,0,3,,,,,2,,,54,0
405120,note_on,,,,,0,0,3,,,,,2,,,53,90
405248,note_on,,,,,0,0,1,,,,,0,,,69,109
405248,note_off,,,,,128,0,1,,,,,0,,,70,0
405376,note_off,,,,,128,0,1,,,,,0,,,69,0
405376,note_on,,,,,0,0,1,,,,,0,,,70,109
405504,note_on,,,,,0,0,1,,,,,0,,,67,109
405504,note_off,,,,,128,0,1,,,,,0,,,70,0
405504,note_on,,,,,125568,0,5,,,,,4,,,51,90
405504,note_on,,,,,0,0,2,,,,,1,,,55,93
405504,note_off,,,,,384,0,3,,,,,2,,,53,0
405504,note_on,,,,,0,0,3,,,,,2,,,51,90
405504,note_off,,,,,384,0,2,,,,,1,,,56,0
405888,note_off,,,,,384,0,2,,,,,1,,,55,0
405888,note_on,,,,,0,0,2,,,,,1,,,55,93
405888,note_off,,,,,384,0,5,,,,,4,,,51,0
405888,note_off,,,,,384,0,3,,,,,2,,,51,0
405888,note_on,,,,,0,0,3,,,,,2,,,51,90
405984,note_off,,,,,96,0,3,,,,,2,,,51,0
405984,note_off,,,,,96,0,2,,,,,1,,,55,0
406080,note_on,,,,,96,0,2,,,,,1,,,55,93
406080,note_on,,,,,96,0,3,,,,,2,,,51,90
406176,note_off,,,,,96,0,3,,,,,2,,,51,0
406176,note_off,,,,,96,0,2,,,,,1,,,55,0
406272,note_on,,,,,96,0,3,,,,,2,,,55,90
406272,note_off,,,,,768,0,1,,,,,0,,,67,0
406272,note_on,,,,,0,0,1,,,,,0,,,70,109
406272,note_on,,,,,96,0,2,,,,,1,,,58,93
406368,note_off,,,,,96,0,3,,,,,2,,,55,0
406368,note_off,,,,,96,0,2,,,,,1,,,58,0
406464,note_on,,,,,96,0,2,,,,,1,,,58,93
406464,note_on,,,,,96,0,3,,,,,2,,,55,90
406560,note_off,,,,,96,0,3,,,,,2,,,55,0
406560,note_off,,,,,96,0,2,,,,,1,,,58,0
406656,note_on,,,,,96,0,3,,,,,2,,,51,90
406656,note_on,,,,,96,0,2,,,,,1,,,55,93
406752,note_off,,,,,96,0,3,,,,,2,,,51,0
406752,note_off,,,,,96,0,2,,,,,1,,,55,0
406848,note_on,,,,,96,0,3,,,,,2,,,51,90
406848,note_on,,,,,96,0,2,,,,,1,,,55,93
406944,note_off,,,,,96,0,3,,,,,2,,,51,0
406944,note_off,,,,,96,0,2,,,,,1,,,55,0
407040,note_on,,,,,1152,0,5,,,,,4,,,51,90
407040,note_off,,,,,768,0,1,,,,,0,,,70,0
407040,note_on,,,,,0,0,1,,,,,0,,,77,109
407424,note_on,,,,,0,0,1,,,,,0,,,75,109
407424,note_off,,,,,384,0,1,,,,,0,,,77,0
407424,note_off,,,,,384,0,5,,,,,4,,,51,0
407424,note_on,,,,,480,0,2,,,,,1,,,55,93
407424,note_on,,,,,480,0,3,,,,,2,,,51,90
407520,note_off,,,,,96,0,2,,,,,1,,,55,0
407520,note_off,,,,,96,0,3,,,,,2,,,51,0
407616,note_on,,,,,96,0,3,,,,,2,,,51,90
407616,note_on,,,,,96,0,2,,,,,1,,,55,93
407616,note_off,,,,,192,0,1,,,,,0,,,75,0
407712,note_off,,,,,96,0,3,,,,,2,,,51,0
407712,note_off,,,,,96,0,2,,,,,1,,,55,0
407808,note_on,,,,,96,0,3,,,,,2,,,55,90
407808,note_on,,,,,96,0,2,,,,,1,,,58,93
407904,note_off,,,,,96,0,3,,,,,2,,,55,0
407904,note_off,,,,,96,0,2,,,,,1,,,58,0
408000,note_on,,,,,96,0,3,,,,,2,,,55,90
408000,note_on,,,,,96,0,2,,,,,1,,,58,93
408096,note_off,,,,,96,0,3,,,,,2,,,55,0
408096,note_off,,,,,96,0,2,,,,,1,,,58,0
408096,note_on,,,,,480,0,1,,,,,0,,,68,109
408192,note_on,,,,,96,0,2,,,,,1,,,55,93
408192,note_off,,,,,96,0,1,,,,,0,,,68,0
408192,note_on,,,,,0,0,1,,,,,0,,,67,109
408192,note_on,,,,,96,0,3,,,,,2,,,51,90
408288,note_off,,,,,96,0,2,,,,,1,,,55,0
408288,note_off,,,,,96,0,3,,,,,2,,,51,0
408320,note_off,,,,,128,0,1,,,,,0,,,67,0
408320,note_on,,,,,0,0,1,,,,,0,,,65,109
408384,note_on,,,,,96,0,3,,,,,2,,,51,90
408384,note_on,,,,,96,0,2,,,,,1,,,55,93
408448,note_on,,,,,0,0,1,,,,,0,,,67,109
408448,note_off,,,,,128,0,1,,,,,0,,,65,0
408480,note_off,,,,,96,0,3,,,,,2,,,51,0
408480,note_off,,,,,96,0,2,,,,,1,,,55,0
408576,note_on,,,,,0,0,1,,,,,0,,,65,109
408576,note_on,,,,,1152,0,5,,,,,4,,,44,90
408576,note_off,,,,,128,0,1,,,,,0,,,67,0
408960,note_on,,,,,480,0,2,,,,,1,,,56,93
408960,note_off,,,,,384,0,5,,,,,4,,,44,0
408960,note_on,,,,,480,0,3,,,,,2,,,60,90
409056,note_off,,,,,96,0,3,,,,,2,,,60,0
409056,note_off,,,,,96,0,2,,,,,1,,,56,0
409152,note_on,,,,,96,0,3,,,,,2,,,60,90
409152,note_on,,,,,96,0,2,,,,,1,,,56,93
409248,note_off,,,,,96,0,3,,,,,2,,,60,0
409248,note_off,,,,,96,0,2,,,,,1,,,56,0
409344,note_on,,,,,96,0,2,,,,,1,,,60,93
409344,note_on,,,,,0,0,1,,,,,0,,,68,109
409344,note_off,,,,,768,0,1,,,,,0,,,65,0
409344,note_on,,,,,96,0,3,,,,,2,,,56,90
409440,note_off,,,,,96,0,3,,,,,2,,,56,0
409440,note_off,,,,,96,0,2,,,,,1,,,60,0
409536,note_on,,,,,96,0,2,,,,,1,,,60,93
409536,note_on,,,,,96,0,3,,,,,2,,,56,90
409632,note_off,,,,,96,0,2,,,,,1,,,60,0
409632,note_off,,,,,96,0,3,,,,,2,,,56,0
409728,note_on,,,,,96,0,2,,,,,1,,,56,93
409728,note_on,,,,,96,0,3,,,,,2,,,53,90
409824,note_off,,,,,96,0,2,,,,,1,,,56,0
409824,note_off,,,,,96,0,3,,,,,2,,,53,0
409920,note_on,,,,,96,0,3,,,,,2,,,53,90
409920,note_on,,,,,96,0,2,,,,,1,,,56,93
410016,note_off,,,,,96,0,2,,,,,1,,,56,0
410016,note_off,,,,,96,0,3,,,,,2,,,53,0
410112,note_on,,,,,1152,0,5,,,,,4,,,44,90
410112,note_on,,,,,0,0,1,,,,,0,,,74,109
410112,note_off,,,,,768,0,1,,,,,0,,,68,0
410496,note_off,,,,,384,0,1,,,,,0,,,74,0
410496,note_on,,,,,0,0,1,,,,,0,,,72,109
410496,note_off,,,,,384,0,5,,,,,4,,,44,0
410496,note_on,,,,,480,0,3,,,,,2,,,53,90
410496,note_on,,,,,480,0,2,,,,,1,,,56,93
410592,note_off,,,,,96,0,2,,,,,1,,,56,0
410592,note_off,,,,,96,0,3,,,,,2,,,53,0
410688,note_off,,,,,192,0,1,,,,,0,,,72,0
410688,note_on,,,,,96,0,2,,,,,1,,,56,93
410688,note_on,,,,,96,0,3,,,,,2,,,53,90
410784,note_off,,,,,96,0,2,,,,,1,,,56,0
410784,note_off,,,,,96,0,3,,,,,2,,,53,0
410880,note_on,,,,,96,0,2,,,,,1,,,60,93
410880,note_on,,,,,96,0,3,,,,,2,,,56,90
410976,note_off,,,,,96,0,2,,,,,1,,,60,0
410976,note_off,,,,,96,0,3,,,,,2,,,56,0
411072,note_on,,,,,96,0,3,,,,,2,,,60,90
411072,note_on,,,,,96,0,2,,,,,1,,,60,93
411168,note_off,,,,,96,0,3,,,,,2,,,60,0
411168,note_off,,,,,96,0,2,,,,,1,,,60,0
411168,note_on,,,,,480,0,1,,,,,0,,,67,109
411264,note_on,,,,,96,0,2,,,,,1,,,65,93
411264,note_on,,,,,96,0,3,,,,,2,,,56,90
411264,note_on,,,,,0,0,1,,,,,0,,,65,109
411264,note_off,,,,,96,0,1,,,,,0,,,67,0
411360,note_off,,,,,96,0,3,,,,,2,,,56,0
411360,note_off,,,,,96,0,2,,,,,1,,,65,0
411392,note_off,,,,,128,0,1,,,,,0,,,65,0
411392,note_on,,,,,0,0,1,,,,,0,,,64,109
411456,note_on,,,,,96,0,2,,,,,1,,,65,93
411456,note_on,,,,,96,0,3,,,,,2,,,56,90
411520,note_off,,,,,128,0,1,,,,,0,,,64,0
411520,note_on,,,,,0,0,1,,,,,0,,,65,109
411552,note_off,,,,,96,0,2,,,,,1,,,65,0
411552,note_off,,,,,96,0,3,,,,,2,,,56,0
411648,note_off,,,,,128,0,1,,,,,0,,,65,0
411648,note_on,,,,,0,0,1,,,,,0,,,62,109
411648,note_on,,,,,1152,0,5,,,,,4,,,46,90
412032,note_on,,,,,480,0,3,,,,,2,,,53,90
412032,note_on,,,,,480,0,2,,,,,1,,,58,93
412032,note_off,,,,,384,0,5,,,,,4,,,46,0
412128,note_off,,,,,96,0,3,,,,,2,,,53,0
412128,note_off,,,,,96,0,2,,,,,1,,,58,0
412224,note_on,,,,,96,0,3,,,,,2,,,53,90
412224,note_on,,,,,96,0,2,,,,,1,,,58,93
412320,note_off,,,,,96,0,2,,,,,1,,,58,0
412320,note_off,,,,,96,0,3,,,,,2,,,53,0
412416,note_on,,,,,96,0,3,,,,,2,,,58,90
412416,note_off,,,,,768,0,1,,,,,0,,,62,0
412416,note_on,,,,,0,0,1,,,,,0,,,65,109
412416,note_on,,,,,96,0,2,,,,,1,,,62,93
412512,note_off,,,,,96,0,2,,,,,1,,,62,0
412512,note_off,,,,,96,0,3,,,,,2,,,58,0
412608,note_on,,,,,96,0,2,,,,,1,,,62,93
412608,note_on,,,,,96,0,3,,,,,2,,,58,90
412704,note_off,,,,,96,0,2,,,,,1,,,62,0
412704,note_off,,,,,96,0,3,,,,,2,,,58,0
412800,note_on,,,,,96,0,2,,,,,1,,,58,93
412800,note_on,,,,,96,0,3,,,,,2,,,62,90
412896,note_off,,,,,96,0,2,,,,,1,,,58,0
412896,note_off,,,,,96,0,3,,,,,2,,,62,0
412992,note_on,,,,,96,0,3,,,,,2,,,62,90
412992,note_on,,,,,96,0,2,,,,,1,,,58,93
413088,note_off,,,,,96,0,3,,,,,2,,,62,0
413088,note_off,,,,,96,0,2,,,,,1,,,58,0
413184,note_off,,,,,768,0,1,,,,,0,,,65,0
413184,note_on,,,,,1152,0,5,,,,,4,,,46,90
413184,note_on,,,,,0,0,1,,,,,0,,,72,109
413568,note_off,,,,,384,0,1,,,,,0,,,72,0
413568,note_on,,,,,480,0,2,,,,,1,,,62,93
413568,note_off,,,,,384,0,5,,,,,4,,,46,0
413568,note_on,,,,,480,0,3,,,,,2,,,58,90
413568,note_on,,,,,0,0,1,,,,,0,,,70,109
413664,note_off,,,,,96,0,2,,,,,1,,,62,0
413664,note_off,,,,,96,0,3,,,,,2,,,58,0
413760,note_off,,,,,192,0,1,,,,,0,,,70,0
413760,note_on,,,,,96,0,2,,,,,1,,,62,93
413760,note_on,,,,,96,0,3,,,,,2,,,58,90
413856,note_off,,,,,96,0,2,,,,,1,,,62,0
413856,note_off,,,,,96,0,3,,,,,2,,,58,0
413952,note_on,,,,,96,0,3,,,,,2,,,62,90
413952,note_on,,,,,96,0,2,,,,,1,,,65,93
414048,note_off,,,,,96,0,2,,,,,1,,,65,0
414048,note_off,,,,,96,0,3,,,,,2,,,62,0
414144,note_on,,,,,96,0,3,,,,,2,,,62,90
414144,note_on,,,,,96,0,2,,,,,1,,,65,93
414240,note_on,,,,,480,0,1,,,,,0,,,70,109
414240,note_off,,,,,96,0,3,,,,,2,,,62,0
414240,note_off,,,,,96,0,2,,,,,1,,,65,0
414336,note_on,,,,,96,0,2,,,,,1,,,62,93
414336,note_off,,,,,96,0,1,,,,,0,,,70,0
414336,note_on,,,,,96,0,3,,,,,2,,,58,90
414336,note_on,,,,,0,0,1,,,,,0,,,68,109
414432,note_off,,,,,96,0,2,,,,,1,,,62,0
414432,note_off,,,,,96,0,3,,,,,2,,,58,0
414464,note_on,,,,,0,0,1,,,,,0,,,67,109
414464,note_off,,,,,128,0,1,,,,,0,,,68,0
414528,note_on,,,,,96,0,2,,,,,1,,,62,93
414528,note_on,,,,,96,0,3,,,,,2,,,58,90
414592,note_off,,,,,128,0,1,,,,,0,,,67,0
414592,note_on,,,,,0,0,1,,,,,0,,,68,109
414624,note_off,,,,,96,0,2,,,,,1,,,62,0
414624,note_off,,,,,96,0,3,,,,,2,,,58,0
414720,note_off,,,,,128,0,1,,,,,0,,,68,0
414720,note_on,,,,,1152,0,5,,,,,4,,,51,90
414720,note_on,,,,,0,0,1,,,,,0,,,67,109
415104,note_on,,,,,480,0,2,,,,,1,,,63,93
415104,note_off,,,,,384,0,5,,,,,4,,,51,0
415104,note_on,,,,,480,0,3,,,,,2,,,58,90
415200,note_off,,,,,96,0,2,,,,,1,,,63,0
415200,note_off,,,,,96,0,3,,,,,2,,,58,0
415296,note_on,,,,,96,0,3,,,,,2,,,58,90
415296,note_on,,,,,96,0,2,,,,,1,,,63,93
415392,note_off,,,,,96,0,3,,,,,2,,,58,0
415392,note_off,,,,,96,0,2,,,,,1,,,63,0
415488,note_on,,,,,0,0,1,,,,,0,,,70,109
415488,note_off,,,,,768,0,1,,,,,0,,,67,0
415488,note_on,,,,,384,0,5,,,,,4,,,46,90
415872,note_on,,,,,480,0,3,,,,,2,,,62,90
415872,note_on,,,,,480,0,2,,,,,1,,,65,93
415872,note_off,,,,,384,0,5,,,,,4,,,46,0
415968,note_off,,,,,96,0,2,,,,,1,,,65,0
415968,note_off,,,,,96,0,3,,,,,2,,,62,0
416064,note_on,,,,,96,0,3,,,,,2,,,62,90
416064,note_on,,,,,96,0,2,,,,,1,,,65,93
416160,note_off,,,,,96,0,3,,,,,2,,,62,0
416160,note_off,,,,,96,0,2,,,,,1,,,65,0
416256,note_on,,,,,0,0,1,,,,,0,,,75,109
416256,note_on,,,,,384,0,5,,,,,4,,,39,90
416256,note_on,,,,,96,0,2,,,,,1,,,63,93
416256,note_on,,,,,96,0,3,,,,,2,,,63,90
416256,note_off,,,,,768,0,1,,,,,0,,,70,0
416352,note_off,,,,,96,0,3,,,,,2,,,63,0
416352,note_off,,,,,96,0,2,,,,,1,,,63,0
416448,note_on,,,,,96,0,2,,,,,1,,,63,93
416448,note_on,,,,,96,0,3,,,,,2,,,55,90
416448,note_off,,,,,192,0,1,,,,,0,,,75,0
416544,note_off,,,,,96,0,3,,,,,2,,,55,0
416544,note_off,,,,,96,0,2,,,,,1,,,63,0
416640,note_on,,,,,96,0,3,,,,,2,,,58,90
416640,note_off,,,,,384,0,5,,,,,4,,,39,0
416640,note_on,,,,,192,0,1,,,,,0,,,77,109
416640,note_on,,,,,96,0,2,,,,,1,,,65,93
416736,note_off,,,,,96,0,3,,,,,2,,,58,0
416736,note_off,,,,,96,0,2,,,,,1,,,65,0
416832,note_off,,,,,192,0,1,,,,,0,,,77,0
416832,note_on,,,,,96,0,2,,,,,1,,,65,93
416832,note_on,,,,,96,0,3,,,,,2,,,58,90
416928,note_off,,,,,96,0,3,,,,,2,,,58,0
416928,note_off,,,,,96,0,2,,,,,1,,,65,0
417024,note_on,,,,,192,0,1,,,,,0,,,79,109
417024,note_on,,,,,96,0,2,,,,,1,,,67,93
417024,note_on,,,,,96,0,3,,,,,2,,,63,90
417216,note_off,,,,,192,0,1,,,,,0,,,79,0
417312,note_on,,,,,96,0,1,,,,,0,,,72,109
417408,note_off,,,,,384,0,2,,,,,1,,,67,0
417408,note_off,,,,,96,0,1,,,,,0,,,72,0
417408,note_on,,,,,0,0,1,,,,,0,,,70,109
417408,note_off,,,,,384,0,3,,,,,2,,,63,0
417536,note_off,,,,,128,0,1,,,,,0,,,70,0
417536,note_on,,,,,0,0,1,,,,,0,,,69,109
417664,note_off,,,,,128,0,1,,,,,0,,,69,0
417664,note_on,,,,,0,0,1,,,,,0,,,70,109
417792,note_on,,,,,0,0,1,,,,,0,,,67,109
417792,note_on,,,,,1152,0,5,,,,,4,,,51,90
417792,note_off,,,,,128,0,1,,,,,0,,,70,0
418176,note_on,,,,,768,0,3,,,,,2,,,51,90
418176,note_off,,,,,384,0,5,,,,,4,,,51,0
418176,note_on,,,,,768,0,2,,,,,1,,,55,93
418272,note_off,,,,,96,0,2,,,,,1,,,55,0
418272,note_off,,,,,96,0,3,,,,,2,,,51,0
418368,note_on,,,,,96,0,2,,,,,1,,,55,93
418368,note_on,,,,,96,0,3,,,,,2,,,51,90
418464,note_off,,,,,96,0,2,,,,,1,,,55,0
418464,note_off,,,,,96,0,3,,,,,2,,,51,0
418560,note_on,,,,,0,0,1,,,,,0,,,70,109
418560,note_on,,,,,96,0,2,,,,,1,,,58,93
418560,note_on,,,,,96,0,3,,,,,2,,,55,90
418560,note_off,,,,,768,0,1,,,,,0,,,67,0
418656,note_off,,,,,96,0,2,,,,,1,,,58,0
418656,note_off,,,,,96,0,3,,,,,2,,,55,0
418752,note_on,,,,,96,0,2,,,,,1,,,58,93
418752,note_on,,,,,96,0,3,,,,,2,,,55,90
418848,note_off,,,,,96,0,2,,,,,1,,,58,0
418848,note_off,,,,,96,0,3,,,,,2,,,55,0
418944,note_on,,,,,96,0,3,,,,,2,,,51,90
418944,note_on,,,,,96,0,2,,,,,1,,,55,93
419040,note_off,,,,,96,0,3,,,,,2,,,51,0
419040,note_off,,,,,96,0,2,,,,,1,,,55,0
419136,note_on,,,,,96,0,2,,,,,1,,,55,93
419136,note_on,,,,,96,0,3,,,,,2,,,51,90
419232,note_off,,,,,96,0,2,,,,,1,,,55,0
419232,note_off,,,,,96,0,3,,,,,2,,,51,0
419328,note_on,,,,,0,0,1,,,,,0,,,77,109
419328,note_off,,,,,768,0,1,,,,,0,,,70,0
419328,note_on,,,,,1152,0,5,,,,,4,,,51,90
419712,note_on,,,,,0,0,1,,,,,0,,,75,109
419712,note_off,,,,,384,0,1,,,,,0,,,77,0
419712,note_off,,,,,384,0,5,,,,,4,,,51,0
419712,note_on,,,,,480,0,3,,,,,2,,,51,90
419712,note_on,,,,,480,0,2,,,,,1,,,55,93
419808,note_off,,,,,96,0,2,,,,,1,,,55,0
419808,note_off,,,,,96,0,3,,,,,2,,,51,0
419904,note_off,,,,,192,0,1,,,,,0,,,75,0
419904,note_on,,,,,96,0,2,,,,,1,,,55,93
419904,note_on,,,,,96,0,3,,,,,2,,,51,90
420000,note_off,,,,,96,0,3,,,,,2,,,51,0
420000,note_off,,,,,96,0,2,,,,,1,,,55,0
420096,note_on,,,,,96,0,3,,,,,2,,,55,90
420096,note_on,,,,,96,0,2,,,,,1,,,58,93
420192,note_off,,,,,96,0,3,,,,,2,,,55,0
420192,note_off,,,,,96,0,2,,,,,1,,,58,0
420288,note_on,,,,,96,0,3,,,,,2,,,55,90
420288,note_on,,,,,96,0,2,,,,,1,,,58,93
420384,note_off,,,,,96,0,2,,,,,1,,,58,0
420384,note_on,,,,,480,0,1,,,,,0,,,68,109
420384,note_off,,,,,96,0,3,,,,,2,,,55,0
420480,note_on,,,,,0,0,1,,,,,0,,,67,109
420480,note_off,,,,,96,0,1,,,,,0,,,68,0
420480,note_on,,,,,96,0,3,,,,,2,,,51,90
420480,note_on,,,,,96,0,2,,,,,1,,,55,93
420576,note_off,,,,,96,0,2,,,,,1,,,55,0
420576,note_off,,,,,96,0,3,,,,,2,,,51,0
420608,note_on,,,,,0,0,1,,,,,0,,,65,109
420608,note_off,,,,,128,0,1,,,,,0,,,67,0
420672,note_on,,,,,96,0,2,,,,,1,,,55,93
420672,note_on,,,,,96,0,3,,,,,2,,,51,90
420736,note_off,,,,,128,0,1,,,,,0,,,65,0
420736,note_on,,,,,0,0,1,,,,,0,,,67,109
420768,note_off,,,,,96,0,3,,,,,2,,,51,0
420768,note_off,,,,,96,0,2,,,,,1,,,55,0
420864,note_on,,,,,1152,0,5,,,,,4,,,44,90
420864,note_on,,,,,0,0,1,,,,,0,,,65,109
420864,note_off,,,,,128,0,1,,,,,0,,,67,0
421248,note_on,,,,,480,0,2,,,,,1,,,56,93
421248,note_on,,,,,480,0,3,,,,,2,,,60,90
421248,note_off,,,,,384,0,5,,,,,4,,,44,0
421344,note_off,,,,,96,0,2,,,,,1,,,56,0
421344,note_off,,,,,96,0,3,,,,,2,,,60,0
421440,note_on,,,,,96,0,2,,,,,1,,,56,93
421440,note_on,,,,,96,0,3,,,,,2,,,60,90
421536,note_off,,,,,96,0,2,,,,,1,,,56,0
421536,note_off,,,,,96,0,3,,,,,2,,,60,0
421632,note_on,,,,,96,0,3,,,,,2,,,56,90
421632,note_on,,,,,0,0,1,,,,,0,,,68,109
421632,note_on,,,,,96,0,2,,,,,1,,,60,93
421632,note_off,,,,,768,0,1,,,,,0,,,65,0
421728,note_off,,,,,96,0,3,,,,,2,,,56,0
421728,note_off,,,,,96,0,2,,,,,1,,,60,0
421824,note_on,,,,,96,0,3,,,,,2,,,56,90
421824,note_on,,,,,96,0,2,,,,,1,,,60,93
421920,note_off,,,,,96,0,3,,,,,2,,,56,0
421920,note_off,,,,,96,0,2,,,,,1,,,60,0
422016,note_on,,,,,96,0,3,,,,,2,,,53,90
422016,note_on,,,,,96,0,2,,,,,1,,,56,93
422112,note_off,,,,,96,0,2,,,,,1,,,56,0
422112,note_off,,,,,96,0,3,,,,,2,,,53,0
422208,note_on,,,,,96,0,3,,,,,2,,,53,90
422208,note_on,,,,,96,0,2,,,,,1,,,56,93
422304,note_off,,,,,96,0,3,,,,,2,,,53,0
422304,note_off,,,,,96,0,2,,,,,1,,,56,0
422400,note_on,,,,,0,0,1,,,,,0,,,74,109
422400,note_off,,,,,768,0,1,,,,,0,,,68,0
422400,note_on,,,,,1152,0,5,,,,,4,,,44,90
422784,note_off,,,,,384,0,1,,,,,0,,,74,0
422784,note_on,,,,,480,0,2,,,,,1,,,56,93
422784,note_off,,,,,384,0,5,,,,,4,,,44,0
422784,note_on,,,,,0,0,1,,,,,0,,,72,109
422784,note_on,,,,,480,0,3,,,,,2,,,53,90
422880,note_off,,,,,96,0,2,,,,,1,,,56,0
422880,note_off,,,,,96,0,3,,,,,2,,,53,0
422976,note_off,,,,,192,0,1,,,,,0,,,72,0
422976,note_on,,,,,96,0,2,,,,,1,,,56,93
422976,note_on,,,,,96,0,3,,,,,2,,,53,90
423072,note_off,,,,,96,0,3,,,,,2,,,53,0
423072,note_off,,,,,96,0,2,,,,,1,,,56,0
423168,note_on,,,,,96,0,3,,,,,2,,,56,90
423168,note_on,,,,,96,0,2,,,,,1,,,60,93
423264,note_off,,,,,96,0,2,,,,,1,,,60,0
423264,note_off,,,,,96,0,3,,,,,2,,,56,0
423360,note_on,,,,,96,0,2,,,,,1,,,60,93
423360,note_on,,,,,96,0,3,,,,,2,,,60,90
423456,note_off,,,,,96,0,3,,,,,2,,,60,0
423456,note_off,,,,,96,0,2,,,,,1,,,60,0
423456,note_on,,,,,480,0,1,,,,,0,,,67,109
423552,note_on,,,,,0,0,1,,,,,0,,,65,109
423552,note_off,,,,,96,0,1,,,,,0,,,67,0
423552,note_on,,,,,96,0,3,,,,,2,,,56,90
423552,note_on,,,,,96,0,2,,,,,1,,,65,93
423648,note_off,,,,,96,0,3,,,,,2,,,56,0
423648,note_off,,,,,96,0,2,,,,,1,,,65,0
423680,note_on,,,,,0,0,1,,,,,0,,,64,109
423680,note_off,,,,,128,0,1,,,,,0,,,65,0
423744,note_on,,,,,96,0,2,,,,,1,,,65,93
423744,note_on,,,,,96,0,3,,,,,2,,,56,90
423808,note_on,,,,,0,0,1,,,,,0,,,65,109
423808,note_off,,,,,128,0,1,,,,,0,,,64,0
423840,note_off,,,,,96,0,2,,,,,1,,,65,0
423840,note_off,,,,,96,0,3,,,,,2,,,56,0
423936,note_on,,,,,0,0,1,,,,,0,,,62,109
423936,note_off,,,,,128,0,1,,,,,0,,,65,0
423936,note_on,,,,,1152,0,5,,,,,4,,,46,90
424320,note_on,,,,,480,0,3,,,,,2,,,53,90
424320,note_on,,,,,480,0,2,,,,,1,,,58,93
424320,note_off,,,,,384,0,5,,,,,4,,,46,0
424416,note_off,,,,,96,0,3,,,,,2,,,53,0
424416,note_off,,,,,96,0,2,,,,,1,,,58,0
424512,note_on,,,,,96,0,2,,,,,1,,,58,93
424512,note_on,,,,,96,0,3,,,,,2,,,53,90
424608,note_off,,,,,96,0,3,,,,,2,,,53,0
424608,note_off,,,,,96,0,2,,,,,1,,,58,0
424704,note_on,,,,,96,0,2,,,,,1,,,62,93
424704,note_on,,,,,96,0,3,,,,,2,,,58,90
424704,note_on,,,,,0,0,1,,,,,0,,,65,109
424704,note_off,,,,,768,0,1,,,,,0,,,62,0
424800,note_off,,,,,96,0,2,,,,,1,,,62,0
424800,note_off,,,,,96,0,3,,,,,2,,,58,0
424896,note_on,,,,,96,0,2,,,,,1,,,62,93
424896,note_on,,,,,96,0,3,,,,,2,,,58,90
424992,note_off,,,,,96,0,3,,,,,2,,,58,0
424992,note_off,,,,,96,0,2,,,,,1,,,62,0
425088,note_on,,,,,96,0,2,,,,,1,,,58,93
425088,note_on,,,,,96,0,3,,,,,2,,,62,90
425184,note_off,,,,,96,0,2,,,,,1,,,58,0
425184,note_off,,,,,96,0,3,,,,,2,,,62,0
425280,note_on,,,,,96,0,2,,,,,1,,,58,93
425280,note_on,,,,,96,0,3,,,,,2,,,62,90
425376,note_off,,,,,96,0,2,,,,,1,,,58,0
425376,note_off,,,,,96,0,3,,,,,2,,,62,0
425472,note_on,,,,,1152,0,5,,,,,4,,,46,90
425472,note_off,,,,,768,0,1,,,,,0,,,65,0
425472,note_on,,,,,0,0,1,,,,,0,,,72,109
425856,note_on,,,,,480,0,2,,,,,1,,,62,93
425856,note_off,,,,,384,0,1,,,,,0,,,72,0
425856,note_on,,,,,0,0,1,,,,,0,,,70,109
425856,note_off,,,,,384,0,5,,,,,4,,,46,0
425856,note_on,,,,,480,0,3,,,,,2,,,58,90
425952,note_off,,,,,96,0,3,,,,,2,,,58,0
425952,note_off,,,,,96,0,2,,,,,1,,,62,0
426048,note_on,,,,,96,0,2,,,,,1,,,62,93
426048,note_off,,,,,192,0,1,,,,,0,,,70,0
426048,note_on,,,,,96,0,3,,,,,2,,,58,90
426144,note_off,,,,,96,0,2,,,,,1,,,62,0
426144,note_off,,,,,96,0,3,,,,,2,,,58,0
426240,note_on,,,,,96,0,3,,,,,2,,,62,90
426240,note_on,,,,,96,0,2,,,,,1,,,65,93
426336,note_off,,,,,96,0,3,,,,,2,,,62,0
426336,note_off,,,,,96,0,2,,,,,1,,,65,0
426432,note_on,,,,,96,0,3,,,,,2,,,62,90
426432,note_on,,,,,96,0,2,,,,,1,,,65,93
426528,note_on,,,,,480,0,1,,,,,0,,,70,109
426528,note_off,,,,,96,0,2,,,,,1,,,65,0
426528,note_off,,,,,96,0,3,,,,,2,,,62,0
426624,note_on,,,,,0,0,1,,,,,0,,,68,109
426624,note_on,,,,,96,0,3,,,,,2,,,58,90
426624,note_off,,,,,96,0,1,,,,,0,,,70,0
426624,note_on,,,,,96,0,2,,,,,1,,,62,93
426720,note_off,,,,,96,0,3,,,,,2,,,58,0
426720,note_off,,,,,96,0,2,,,,,1,,,62,0
426752,note_on,,,,,0,0,1,,,,,0,,,67,109
426752,note_off,,,,,128,0,1,,,,,0,,,68,0
426816,note_on,,,,,96,0,3,,,,,2,,,58,90
426816,note_on,,,,,96,0,2,,,,,1,,,62,93
426880,note_on,,,,,0,0,1,,,,,0,,,68,109
426880,note_off,,,,,128,0,1,,,,,0,,,67,0
426912,note_off,,,,,96,0,2,,,,,1,,,62,0
426912,note_off,,,,,96,0,3,,,,,2,,,58,0
427008,note_off,,,,,128,0,1,,,,,0,,,68,0
427008,note_on,,,,,0,0,1,,,,,0,,,67,109
427008,note_on,,,,,1152,0,5,,,,,4,,,51,90
427392,note_on,,,,,480,0,2,,,,,1,,,63,93
427392,note_off,,,,,384,0,5,,,,,4,,,51,0
427392,note_on,,,,,480,0,3,,,,,2,,,58,90
427488,note_off,,,,,96,0,2,,,,,1,,,63,0
427488,note_off,,,,,96,0,3,,,,,2,,,58,0
427584,note_on,,,,,96,0,2,,,,,1,,,63,93
427584,note_on,,,,,96,0,3,,,,,2,,,58,90
427680,note_off,,,,,96,0,3,,,,,2,,,58,0
427680,note_off,,,,,96,0,2,,,,,1,,,63,0
427776,note_on,,,,,384,0,5,,,,,4,,,46,90
427776,note_on,,,,,0,0,1,,,,,0,,,70,109
427776,note_off,,,,,768,0,1,,,,,0,,,67,0
428160,note_on,,,,,480,0,3,,,,,2,,,62,90
428160,note_on,,,,,480,0,2,,,,,1,,,65,93
428160,note_off,,,,,384,0,5,,,,,4,,,46,0
428256,note_off,,,,,96,0,3,,,,,2,,,62,0
428256,note_off,,,,,96,0,2,,,,,1,,,65,0
428352,note_on,,,,,96,0,3,,,,,2,,,62,90
428352,note_on,,,,,96,0,2,,,,,1,,,65,93
428448,note_off,,,,,96,0,3,,,,,2,,,62,0
428448,note_off,,,,,96,0,2,,,,,1,,,65,0
428544,note_on,,,,,96,0,2,,,,,1,,,63,93
428544,note_on,,,,,384,0,5,,,,,4,,,39,90
428544,note_on,,,,,96,0,3,,,,,2,,,63,90
428544,note_on,,,,,0,0,1,,,,,0,,,75,109
428544,note_off,,,,,768,0,1,,,,,0,,,70,0
428640,note_off,,,,,96,0,3,,,,,2,,,63,0
428640,note_off,,,,,96,0,2,,,,,1,,,63,0
428736,note_on,,,,,96,0,3,,,,,2,,,55,90
428736,note_off,,,,,192,0,1,,,,,0,,,75,0
428736,note_on,,,,,96,0,2,,,,,1,,,63,93
428832,note_off,,,,,96,0,2,,,,,1,,,63,0
428832,note_off,,,,,96,0,3,,,,,2,,,55,0
428928,note_on,,,,,192,0,1,,,,,0,,,77,109
428928,note_off,,,,,384,0,5,,,,,4,,,39,0
428928,note_on,,,,,96,0,2,,,,,1,,,65,93
428928,note_on,,,,,96,0,3,,,,,2,,,58,90
429024,note_off,,,,,96,0,2,,,,,1,,,65,0
429024,note_off,,,,,96,0,3,,,,,2,,,58,0
429120,note_on,,,,,96,0,2,,,,,1,,,65,93
429120,note_off,,,,,192,0,1,,,,,0,,,77,0
429120,note_on,,,,,96,0,3,,,,,2,,,58,90
429216,note_off,,,,,96,0,2,,,,,1,,,65,0
429216,note_off,,,,,96,0,3,,,,,2,,,58,0
429312,note_on,,,,,192,0,1,,,,,0,,,79,109
429312,note_on,,,,,96,0,3,,,,,2,,,63,90
429312,note_on,,,,,96,0,2,,,,,1,,,67,93
429504,note_off,,,,,192,0,1,,,,,0,,,79,0
429600,note_on,,,,,96,0,1,,,,,0,,,77,109
429696,note_off,,,,,384,0,2,,,,,1,,,67,0
429696,note_off,,,,,384,0,3,,,,,2,,,63,0
429696,note_on,,,,,0,0,1,,,,,0,,,75,109
429696,note_off,,,,,96,0,1,,,,,0,,,77,0
429824,note_on,,,,,0,0,1,,,,,0,,,74,109
429824,note_off,,,,,128,0,1,,,,,0,,,75,0
429952,note_on,,,,,0,0,1,,,,,0,,,75,109
429952,note_off,,,,,128,0,1,,,,,0,,,74,0
430080,note_on,,,,,0,0,1,,,,,0,,,74,109
430080,note_on,,,,,25728,0,4,,,,,3,,,56,90
430080,note_off,,,,,128,0,1,,,,,0,,,75,0
430080,note_on,,,,,384,0,2,,,,,1,,,65,93
430080,note_on,,,,,384,0,3,,,,,2,,,58,90
430656,note_on,,,,,0,0,2,,,,,1,,,62,93
430656,note_off,,,,,576,0,1,,,,,0,,,74,0
430656,note_on,,,,,0,0,1,,,,,0,,,77,109
430656,note_off,,,,,576,0,2,,,,,1,,,65,0
430848,note_on,,,,,0,0,2,,,,,1,,,63,93
430848,note_off,,,,,768,0,4,,,,,3,,,56,0
430848,note_on,,,,,0,0,4,,,,,3,,,55,90
430848,note_off,,,,,192,0,2,,,,,1,,,62,0
430848,note_on,,,,,0,0,1,,,,,0,,,75,109
430848,note_off,,,,,192,0,1,,,,,0,,,77,0
431136,note_on,,,,,0,0,1,,,,,0,,,77,109
431136,note_off,,,,,288,0,1,,,,,0,,,75,0
431232,note_on,,,,,0,0,1,,,,,0,,,75,109
431232,note_off,,,,,384,0,4,,,,,3,,,55,0
431232,note_off,,,,,1152,0,3,,,,,2,,,58,0
431232,note_off,,,,,96,0,1,,,,,0,,,77,0
431232,note_off,,,,,384,0,2,,,,,1,,,63,0
431360,note_on,,,,,0,0,1,,,,,0,,,74,109
431360,note_off,,,,,128,0,1,,,,,0,,,75,0
431488,note_on,,,,,0,0,1,,,,,0,,,75,109
431488,note_off,,,,,128,0,1,,,,,0,,,74,0
431616,note_off,,,,,128,0,1,,,,,0,,,75,0
431616,note_on,,,,,384,0,4,,,,,3,,,56,90
431616,note_on,,,,,0,0,1,,,,,0,,,74,109
431616,note_on,,,,,384,0,2,,,,,1,,,65,93
431616,note_on,,,,,384,0,3,,,,,2,,,58,90
432192,note_off,,,,,576,0,1,,,,,0,,,74,0
432192,note_off,,,,,576,0,2,,,,,1,,,65,0
432192,note_on,,,,,0,0,1,,,,,0,,,77,109
432192,note_on,,,,,0,0,2,,,,,1,,,62,93
432384,note_on,,,,,0,0,1,,,,,0,,,75,109
432384,note_off,,,,,192,0,1,,,,,0,,,77,0
432384,note_off,,,,,192,0,2,,,,,1,,,62,0
432384,note_off,,,,,768,0,4,,,,,3,,,56,0
432384,note_on,,,,,0,0,2,,,,,1,,,63,93
432384,note_on,,,,,0,0,4,,,,,3,,,55,90
432672,note_on,,,,,0,0,1,,,,,0,,,77,109
432672,note_off,,,,,288,0,1,,,,,0,,,75,0
432768,note_off,,,,,384,0,2,,,,,1,,,63,0
432768,note_off,,,,,1152,0,3,,,,,2,,,58,0
432768,note_off,,,,,96,0,1,,,,,0,,,77,0
432768,note_on,,,,,0,0,1,,,,,0,,,75,109
432768,note_off,,,,,384,0,4,,,,,3,,,55,0
432896,note_on,,,,,0,0,1,,,,,0,,,74,109
432896,note_off,,,,,128,0,1,,,,,0,,,75,0
433024,note_on,,,,,0,0,1,,,,,0,,,75,109
433024,note_off,,,,,128,0,1,,,,,0,,,74,0
433152,note_off,,,,,128,0,1,,,,,0,,,75,0
433152,note_on,,,,,384,0,4,,,,,3,,,48,90
433152,note_on,,,,,0,0,1,,,,,0,,,80,109
433152,note_on,,,,,384,0,3,,,,,2,,,51,90
433152,note_on,,,,,384,0,2,,,,,1,,,56,93
433344,note_off,,,,,192,0,3,,,,,2,,,51,0
433344,note_off,,,,,192,0,4,,,,,3,,,48,0
433440,note_off,,,,,288,0,1,,,,,0,,,80,0
433440,note_on,,,,,0,0,1,,,,,0,,,77,109
433536,note_off,,,,,96,0,1,,,,,0,,,77,0
433536,note_on,,,,,0,0,1,,,,,0,,,75,109
433536,note_off,,,,,384,0,2,,,,,1,,,56,0
433664,note_off,,,,,128,0,1,,,,,0,,,75,0
433664,note_on,,,,,0,0,1,,,,,0,,,74,109
433792,note_off,,,,,128,0,1,,,,,0,,,74,0
433792,note_on,,,,,0,0,1,,,,,0,,,75,109
433920,note_on,,,,,576,0,4,,,,,3,,,51,90
433920,note_on,,,,,384,0,2,,,,,1,,,58,93
433920,note_off,,,,,128,0,1,,,,,0,,,75,0
433920,note_on,,,,,0,0,1,,,,,0,,,79,109
433920,note_on,,,,,576,0,3,,,,,2,,,51,90
434112,note_off,,,,,192,0,4,,,,,3,,,51,0
434112,note_off,,,,,192,0,3,,,,,2,,,51,0
434112,note_off,,,,,192,0,2,,,,,1,,,58,0
434208,note_off,,,,,288,0,1,,,,,0,,,79,0
434208,note_on,,,,,0,0,1,,,,,0,,,77,109
434304,note_on,,,,,0,0,1,,,,,0,,,75,109
434304,note_off,,,,,96,0,1,,,,,0,,,77,0
434432,note_off,,,,,128,0,1,,,,,0,,,75,0
434432,note_on,,,,,0,0,1,,,,,0,,,74,109
434560,note_off,,,,,128,0,1,,,,,0,,,74,0
434560,note_on,,,,,0,0,1,,,,,0,,,75,109
434688,note_on,,,,,576,0,2,,,,,1,,,62,93
434688,note_on,,,,,0,0,1,,,,,0,,,77,109
434688,note_on,,,,,576,0,3,,,,,2,,,53,90
434688,note_off,,,,,128,0,1,,,,,0,,,75,0
434688,note_on,,,,,576,0,4,,,,,3,,,46,90
434880,note_off,,,,,192,0,4,,,,,3,,,46,0
434880,note_off,,,,,192,0,2,,,,,1,,,62,0
434880,note_off,,,,,192,0,3,,,,,2,,,53,0
434880,note_off,,,,,192,0,1,,,,,0,,,77,0
435072,note_on,,,,,192,0,3,,,,,2,,,53,90
435072,note_on,,,,,192,0,2,,,,,1,,,62,93
435072,note_on,,,,,192,0,1,,,,,0,,,77,109
435072,note_on,,,,,192,0,4,,,,,3,,,46,90
435264,note_off,,,,,192,0,3,,,,,2,,,53,0
435264,note_off,,,,,192,0,2,,,,,1,,,62,0
435264,note_off,,,,,192,0,4,,,,,3,,,46,0
435360,note_on,,,,,0,0,1,,,,,0,,,79,109
435360,note_off,,,,,288,0,1,,,,,0,,,77,0
435456,note_on,,,,,0,0,1,,,,,0,,,75,109
435456,note_off,,,,,96,0,1,,,,,0,,,79,0
435456,note_on,,,,,192,0,4,,,,,3,,,43,90
435456,note_on,,,,,192,0,2,,,,,1,,,63,93
435456,note_on,,,,,192,0,3,,,,,2,,,51,90
435648,note_off,,,,,192,0,2,,,,,1,,,63,0
435648,note_off,,,,,192,0,4,,,,,3,,,43,0
435648,note_off,,,,,192,0,3,,,,,2,,,51,0
435744,note_off,,,,,288,0,1,,,,,0,,,75,0
435744,note_on,,,,,0,0,1,,,,,0,,,77,109
435840,note_off,,,,,96,0,1,,,,,0,,,77,0
435840,note_on,,,,,0,0,1,,,,,0,,,75,109
435968,note_on,,,,,0,0,1,,,,,0,,,74,109
435968,note_off,,,,,128,0,1,,,,,0,,,75,0
436096,note_off,,,,,128,0,1,,,,,0,,,74,0
436096,note_on,,,,,0,0,1,,,,,0,,,75,109
436224,note_off,,,,,128,0,1,,,,,0,,,75,0
436224,note_on,,,,,576,0,2,,,,,1,,,56,93
436224,note_on,,,,,576,0,4,,,,,3,,,48,90
436224,note_on,,,,,0,0,1,,,,,0,,,80,109
436224,note_on,,,,,576,0,3,,,,,2,,,51,90
436416,note_off,,,,,192,0,2,,,,,1,,,56,0
436416,note_off,,,,,192,0,3,,,,,2,,,51,0
436416,note_off,,,,,192,0,4,,,,,3,,,48,0
436512,note_off,,,,,288,0,1,,,,,0,,,80,0
436512,note_on,,,,,0,0,1,,,,,0,,,77,109
436608,note_off,,,,,96,0,1,,,,,0,,,77,0
436608,note_on,,,,,0,0,1,,,,,0,,,75,109
436736,note_on,,,,,0,0,1,,,,,0,,,74,109
436736,note_off,,,,,128,0,1,,,,,0,,,75,0
436864,note_on,,,,,0,0,1,,,,,0,,,75,109
436864,note_off,,,,,128,0,1,,,,,0,,,74,0
436992,note_off,,,,,128,0,1,,,,,0,,,75,0
436992,note_on,,,,,0,0,1,,,,,0,,,79,109
436992,note_on,,,,,576,0,2,,,,,1,,,58,93
436992,note_on,,,,,576,0,3,,,,,2,,,51,90
436992,note_on,,,,,576,0,4,,,,,3,,,51,90
437184,note_off,,,,,192,0,3,,,,,2,,,51,0
437184,note_off,,,,,192,0,2,,,,,1,,,58,0
437184,note_off,,,,,192,0,4,,,,,3,,,51,0
437280,note_off,,,,,288,0,1,,,,,0,,,79,0
437280,note_on,,,,,0,0,1,,,,,0,,,77,109
437376,note_off,,,,,96,0,1,,,,,0,,,77,0
437376,note_on,,,,,0,0,1,,,,,0,,,75,109
437504,note_off,,,,,128,0,1,,,,,0,,,75,0
437504,note_on,,,,,0,0,1,,,,,0,,,74,109
437632,note_off,,,,,128,0,1,,,,,0,,,74,0
437632,note_on,,,,,0,0,1,,,,,0,,,75,109
437760,note_on,,,,,576,0,4,,,,,3,,,46,90
437760,note_on,,,,,576,0,2,,,,,1,,,62,93
437760,note_on,,,,,576,0,3,,,,,2,,,53,90
437760,note_off,,,,,128,0,1,,,,,0,,,75,0
437760,note_on,,,,,0,0,1,,,,,0,,,77,109
437952,note_off,,,,,192,0,2,,,,,1,,,62,0
437952,note_off,,,,,192,0,3,,,,,2,,,53,0
437952,note_off,,,,,192,0,4,,,,,3,,,46,0
437952,note_off,,,,,192,0,1,,,,,0,,,77,0
438144,note_on,,,,,192,0,3,,,,,2,,,53,90
438144,note_on,,,,,192,0,4,,,,,3,,,46,90
438144,note_on,,,,,192,0,2,,,,,1,,,62,93
438144,note_on,,,,,192,0,1,,,,,0,,,77,109
438336,note_off,,,,,192,0,4,,,,,3,,,46,0
438336,note_off,,,,,192,0,2,,,,,1,,,62,0
438336,note_off,,,,,192,0,3,,,,,2,,,53,0
438432,note_on,,,,,0,0,1,,,,,0,,,79,109
438432,note_off,,,,,288,0,1,,,,,0,,,77,0
438528,note_on,,,,,192,0,3,,,,,2,,,51,90
438528,note_on,,,,,192,0,4,,,,,3,,,43,90
438528,note_off,,,,,96,0,1,,,,,0,,,79,0
438528,note_on,,,,,0,0,1,,,,,0,,,75,109
438528,note_on,,,,,192,0,2,,,,,1,,,63,93
438720,note_off,,,,,192,0,2,,,,,1,,,63,0
438720,note_off,,,,,192,0,3,,,,,2,,,51,0
438720,note_off,,,,,192,0,4,,,,,3,,,43,0
438816,note_off,,,,,288,0,1,,,,,0,,,75,0
438816,note_on,,,,,0,0,1,,,,,0,,,65,109
438912,note_on,,,,,0,0,1,,,,,0,,,63,109
438912,note_off,,,,,96,0,1,,,,,0,,,65,0
439040,note_off,,,,,128,0,1,,,,,0,,,63,0
439040,note_on,,,,,0,0,1,,,,,0,,,62,109
439168,note_on,,,,,0,0,1,,,,,0,,,63,109
439168,note_off,,,,,128,0,1,,,,,0,,,62,0
439296,note_off,,,,,128,0,1,,,,,0,,,63,0
439296,note_on,,,,,0,0,1,,,,,0,,,72,109
439296,note_on,,,,,576,0,2,,,,,1,,,63,93
439296,note_on,,,,,576,0,3,,,,,2,,,60,90
439296,note_on,,,,,576,0,4,,,,,3,,,44,90
440064,note_off,,,,,768,0,2,,,,,1,,,63,0
440064,note_on,,,,,0,0,2,,,,,1,,,64,93
440064,note_on,,,,,0,0,4,,,,,3,,,43,90
440064,note_off,,,,,768,0,4,,,,,3,,,44,0
440256,note_on,,,,,0,0,1,,,,,0,,,71,109
440256,note_off,,,,,960,0,1,,,,,0,,,72,0
440448,note_on,,,,,0,0,1,,,,,0,,,73,109
440448,note_off,,,,,192,0,1,,,,,0,,,71,0
440640,note_off,,,,,192,0,1,,,,,0,,,73,0
440640,note_on,,,,,0,0,1,,,,,0,,,72,109
440832,note_off,,,,,768,0,2,,,,,1,,,64,0
440832,note_on,,,,,0,0,2,,,,,1,,,65,93
440832,note_off,,,,,768,0,4,,,,,3,,,43,0
440832,note_on,,,,,0,0,4,,,,,3,,,41,90
440832,note_off,,,,,192,0,1,,,,,0,,,72,0
440832,note_on,,,,,0,0,1,,,,,0,,,70,109
441216,note_on,,,,,0,0,1,,,,,0,,,68,109
441216,note_off,,,,,384,0,1,,,,,0,,,70,0
441600,note_off,,,,,2304,0,3,,,,,2,,,60,0
441600,note_off,,,,,768,0,4,,,,,3,,,41,0
441600,note_off,,,,,768,0,2,,,,,1,,,65,0
441600,note_off,,,,,384,0,1,,,,,0,,,68,0
441984,note_on,,,,,384,0,4,,,,,3,,,44,90
441984,note_on,,,,,384,0,3,,,,,2,,,58,90
441984,note_on,,,,,384,0,2,,,,,1,,,62,93
441984,note_on,,,,,384,0,1,,,,,0,,,65,109
442368,note_off,,,,,384,0,2,,,,,1,,,62,0
442368,note_off,,,,,384,0,1,,,,,0,,,65,0
442368,note_on,,,,,0,0,1,,,,,0,,,70,109
442368,note_on,,,,,0,0,4,,,,,3,,,43,90
442368,note_off,,,,,384,0,4,,,,,3,,,44,0
442368,note_on,,,,,0,0,2,,,,,1,,,63,93
443136,note_off,,,,,768,0,2,,,,,1,,,63,0
443136,note_off,,,,,768,0,4,,,,,3,,,43,0
443136,note_on,,,,,0,0,4,,,,,3,,,38,90
443136,note_on,,,,,0,0,2,,,,,1,,,65,93
443328,note_on,,,,,0,0,1,,,,,0,,,69,109
443328,note_off,,,,,960,0,1,,,,,0,,,70,0
443520,note_on,,,,,0,0,1,,,,,0,,,72,109
443520,note_off,,,,,192,0,1,,,,,0,,,69,0
443712,note_off,,,,,192,0,1,,,,,0,,,72,0
443712,note_on,,,,,0,0,1,,,,,0,,,70,109
443904,note_on,,,,,0,0,1,,,,,0,,,68,109
443904,note_off,,,,,768,0,4,,,,,3,,,38,0
443904,note_on,,,,,0,0,4,,,,,3,,,39,90
443904,note_on,,,,,0,0,2,,,,,1,,,63,93
443904,note_off,,,,,768,0,2,,,,,1,,,65,0
443904,note_off,,,,,192,0,1,,,,,0,,,70,0
444288,note_on,,,,,0,0,1,,,,,0,,,67,109
444288,note_off,,,,,384,0,1,,,,,0,,,68,0
444672,note_off,,,,,2688,0,3,,,,,2,,,58,0
444672,note_off,,,,,384,0,1,,,,,0,,,67,0
444672,note_off,,,,,768,0,4,,,,,3,,,39,0
444672,note_off,,,,,768,0,2,,,,,1,,,63,0
445056,note_on,,,,,384,0,4,,,,,3,,,58,90
445056,note_on,,,,,384,0,1,,,,,0,,,67,109
445056,note_on,,,,,384,0,3,,,,,2,,,60,90
445056,note_on,,,,,384,0,2,,,,,1,,,64,93
445440,note_on,,,,,0,0,2,,,,,1,,,65,93
445440,note_on,,,,,0,0,1,,,,,0,,,65,109
445440,note_off,,,,,384,0,1,,,,,0,,,67,0
445440,note_off,,,,,384,0,4,,,,,3,,,58,0
445440,note_on,,,,,0,0,4,,,,,3,,,56,90
445440,note_off,,,,,384,0,2,,,,,1,,,64,0
445632,note_off,,,,,576,0,3,,,,,2,,,60,0
445632,note_off,,,,,192,0,4,,,,,3,,,56,0
445632,note_off,,,,,192,0,1,,,,,0,,,65,0
445632,note_off,,,,,192,0,2,,,,,1,,,65,0
445824,note_on,,,,,192,0,1,,,,,0,,,72,109
445952,note_off,,,,,128,0,1,,,,,0,,,72,0
445952,note_on,,,,,0,0,1,,,,,0,,,73,109
446080,note_off,,,,,128,0,1,,,,,0,,,73,0
446080,note_on,,,,,0,0,1,,,,,0,,,71,109
446208,note_off,,,,,128,0,1,,,,,0,,,71,0
446208,note_on,,,,,0,0,1,,,,,0,,,72,109
446400,note_off,,,,,192,0,1,,,,,0,,,72,0
446592,note_on,,,,,960,0,4,,,,,3,,,58,90
446592,note_on,,,,,960,0,2,,,,,1,,,64,93
446592,note_on,,,,,960,0,3,,,,,2,,,60,90
446592,note_on,,,,,192,0,1,,,,,0,,,67,109
446720,note_off,,,,,128,0,1,,,,,0,,,67,0
446720,note_on,,,,,0,0,1,,,,,0,,,68,109
446848,note_off,,,,,128,0,1,,,,,0,,,68,0
446848,note_on,,,,,0,0,1,,,,,0,,,67,109
446976,note_off,,,,,384,0,2,,,,,1,,,64,0
446976,note_on,,,,,0,0,4,,,,,3,,,56,90
446976,note_on,,,,,0,0,2,,,,,1,,,65,93
446976,note_off,,,,,384,0,4,,,,,3,,,58,0
446976,note_on,,,,,0,0,1,,,,,0,,,65,109
446976,note_off,,,,,128,0,1,,,,,0,,,67,0
447152,note_off,,,,,560,0,3,,,,,2,,,60,0
447168,note_off,,,,,192,0,4,,,,,3,,,56,0
447168,note_off,,,,,192,0,1,,,,,0,,,65,0
447168,note_off,,,,,192,0,2,,,,,1,,,65,0
447344,note_on,,,,,192,0,3,,,,,2,,,60,90
447360,note_on,,,,,192,0,1,,,,,0,,,72,109
447472,note_on,,,,,0,0,3,,,,,2,,,61,90
447472,note_off,,,,,128,0,3,,,,,2,,,60,0
447488,note_off,,,,,128,0,1,,,,,0,,,72,0
447488,note_on,,,,,0,0,1,,,,,0,,,73,109
447600,note_on,,,,,0,0,3,,,,,2,,,59,90
447600,note_off,,,,,128,0,3,,,,,2,,,61,0
447616,note_off,,,,,128,0,1,,,,,0,,,73,0
447616,note_on,,,,,0,0,1,,,,,0,,,71,109
447728,note_off,,,,,128,0,3,,,,,2,,,59,0
447728,note_on,,,,,0,0,3,,,,,2,,,60,90
447744,note_off,,,,,128,0,1,,,,,0,,,71,0
447744,note_on,,,,,0,0,1,,,,,0,,,72,109
447920,note_off,,,,,192,0,3,,,,,2,,,60,0
447936,note_off,,,,,192,0,1,,,,,0,,,72,0
448112,note_on,,,,,192,0,3,,,,,2,,,61,90
448128,note_on,,,,,192,0,1,,,,,0,,,67,109
448128,note_on,,,,,960,0,2,,,,,1,,,64,93
448240,note_off,,,,,128,0,3,,,,,2,,,61,0
448240,note_on,,,,,0,0,3,,,,,2,,,60,90
448368,note_off,,,,,128,0,3,,,,,2,,,60,0
448368,note_on,,,,,0,0,3,,,,,2,,,58,90
448496,note_on,,,,,0,0,3,,,,,2,,,56,90
448496,note_off,,,,,128,0,3,,,,,2,,,58,0
448512,note_off,,,,,384,0,1,,,,,0,,,67,0
448512,note_on,,,,,0,0,1,,,,,0,,,65,109
448512,note_off,,,,,384,0,2,,,,,1,,,64,0
448512,note_on,,,,,0,0,2,,,,,1,,,65,93
448688,note_off,,,,,192,0,3,,,,,2,,,56,0
448704,note_off,,,,,192,0,1,,,,,0,,,65,0
448704,note_off,,,,,192,0,2,,,,,1,,,65,0
448880,note_on,,,,,192,0,3,,,,,2,,,55,90
448896,note_on,,,,,192,0,1,,,,,0,,,67,109
448896,note_on,,,,,192,0,2,,,,,1,,,64,93
449072,note_off,,,,,192,0,3,,,,,2,,,55,0
449088,note_off,,,,,192,0,2,,,,,1,,,64,0
449088,note_off,,,,,192,0,1,,,,,0,,,67,0
449264,note_on,,,,,192,0,3,,,,,2,,,53,90
449280,note_on,,,,,192,0,1,,,,,0,,,68,109
449280,note_on,,,,,192,0,2,,,,,1,,,65,93
449456,note_off,,,,,192,0,3,,,,,2,,,53,0
449472,note_off,,,,,192,0,1,,,,,0,,,68,0
449472,note_off,,,,,192,0,2,,,,,1,,,65,0
449648,note_on,,,,,192,0,3,,,,,2,,,51,90
449664,note_on,,,,,192,0,1,,,,,0,,,70,109
449664,note_on,,,,,192,0,2,,,,,1,,,67,93
449840,note_off,,,,,192,0,3,,,,,2,,,51,0
449856,note_off,,,,,192,0,1,,,,,0,,,70,0
449856,note_off,,,,,192,0,2,,,,,1,,,67,0
450032,note_on,,,,,192,0,3,,,,,2,,,50,90
450048,note_on,,,,,192,0,1,,,,,0,,,72,109
450048,note_on,,,,,192,0,2,,,,,1,,,65,93
450048,note_on,,,,,2880,0,4,,,,,3,,,44,90
450800,note_on,,,,,0,0,3,,,,,2,,,62,90
450800,note_off,,,,,768,0,3,,,,,2,,,50,0
450816,note_off,,,,,768,0,2,,,,,1,,,65,0
450816,note_on,,,,,0,0,2,,,,,1,,,66,93
451584,note_off,,,,,1536,0,4,,,,,3,,,44,0
451584,note_off,,,,,768,0,2,,,,,1,,,66,0
451584,note_on,,,,,0,0,4,,,,,3,,,43,90
451584,note_on,,,,,0,0,2,,,,,1,,,67,93
452352,note_off,,,,,2304,0,1,,,,,0,,,72,0
452352,note_on,,,,,0,0,1,,,,,0,,,71,109
453104,note_off,,,,,2304,0,3,,,,,2,,,62,0
453104,note_on,,,,,0,0,3,,,,,2,,,64,90
453120,note_off,,,,,1536,0,2,,,,,1,,,67,0
453120,note_on,,,,,0,0,2,,,,,1,,,67,93
453120,note_on,,,,,0,0,4,,,,,3,,,48,90
453120,note_off,,,,,1536,0,4,,,,,3,,,43,0
453120,note_off,,,,,768,0,1,,,,,0,,,71,0
453120,note_on,,,,,0,0,1,,,,,0,,,70,109
454272,note_on,,,,,0,0,1,,,,,0,,,72,109
454272,note_off,,,,,1152,0,1,,,,,0,,,70,0
454640,note_on,,,,,0,0,3,,,,,2,,,65,90
454640,note_off,,,,,1536,0,3,,,,,2,,,64,0
454656,note_on,,,,,0,0,4,,,,,3,,,41,90
454656,note_off,,,,,1536,0,4,,,,,3,,,48,0
454656,note_off,,,,,1536,0,2,,,,,1,,,67,0
454656,note_on,,,,,0,0,2,,,,,1,,,65,93
454656,note_on,,,,,0,0,1,,,,,0,,,70,109
454656,note_off,,,,,384,0,1,,,,,0,,,72,0
455408,note_on,,,,,0,0,3,,,,,2,,,60,90
455408,note_off,,,,,768,0,3,,,,,2,,,65,0
455424,note_on,,,,,0,0,1,,,,,0,,,69,109
455424,note_off,,,,,768,0,1,,,,,0,,,70,0
456176,note_off,,,,,768,0,3,,,,,2,,,60,0
456176,note_on,,,,,0,0,3,,,,,2,,,62,90
456192,note_off,,,,,1536,0,4,,,,,3,,,41,0
456192,note_on,,,,,0,0,1,,,,,0,,,68,109
456192,note_on,,,,,0,0,4,,,,,3,,,46,90
456192,note_off,,,,,768,0,1,,,,,0,,,69,0
456944,note_on,,,,,0,0,3,,,,,2,,,58,90
456944,note_off,,,,,768,0,3,,,,,2,,,62,0
456960,note_on,,,,,0,0,4,,,,,3,,,38,90
456960,note_off,,,,,768,0,4,,,,,3,,,46,0
457344,note_on,,,,,0,0,1,,,,,0,,,72,109
457344,note_off,,,,,1152,0,1,,,,,0,,,68,0
457536,note_on,,,,,0,0,1,,,,,0,,,70,109
457536,note_off,,,,,192,0,1,,,,,0,,,72,0
457728,note_off,,,,,768,0,4,,,,,3,,,38,0
457728,note_on,,,,,0,0,1,,,,,0,,,68,109
457728,note_on,,,,,0,0,4,,,,,3,,,39,90
457728,note_off,,,,,192,0,1,,,,,0,,,70,0
458112,note_on,,,,,0,0,1,,,,,0,,,67,109
458112,note_off,,,,,3456,0,2,,,,,1,,,65,0
458112,note_on,,,,,0,0,2,,,,,1,,,63,93
458112,note_off,,,,,384,0,1,,,,,0,,,68,0
458480,note_off,,,,,1536,0,3,,,,,2,,,58,0
458480,note_on,,,,,0,0,3,,,,,2,,,52,90
458496,note_off,,,,,768,0,4,,,,,3,,,39,0
458496,note_on,,,,,0,0,4,,,,,3,,,44,90
458496,note_off,,,,,384,0,2,,,,,1,,,63,0
458496,note_on,,,,,0,0,1,,,,,0,,,70,109
458496,note_off,,,,,384,0,1,,,,,0,,,67,0
458496,note_on,,,,,0,0,2,,,,,1,,,60,93
458672,note_on,,,,,0,0,3,,,,,2,,,53,90
458672,note_off,,,,,192,0,3,,,,,2,,,52,0
458688,note_off,,,,,192,0,1,,,,,0,,,70,0
458688,note_on,,,,,0,0,1,,,,,0,,,68,109
458864,note_on,,,,,0,0,3,,,,,2,,,55,90
458864,note_off,,,,,192,0,3,,,,,2,,,53,0
458880,note_off,,,,,192,0,1,,,,,0,,,68,0
458880,note_on,,,,,0,0,1,,,,,0,,,67,109
459056,note_off,,,,,192,0,3,,,,,2,,,55,0
459056,note_on,,,,,0,0,3,,,,,2,,,56,90
459072,note_off,,,,,192,0,1,,,,,0,,,67,0
459072,note_on,,,,,0,0,1,,,,,0,,,65,109
459248,note_on,,,,,0,0,3,,,,,2,,,55,90
459248,note_off,,,,,192,0,3,,,,,2,,,56,0
459264,note_off,,,,,192,0,1,,,,,0,,,65,0
459264,note_on,,,,,0,0,4,,,,,3,,,46,90
459264,note_on,,,,,0,0,2,,,,,1,,,58,93
459264,note_off,,,,,768,0,2,,,,,1,,,60,0
459264,note_off,,,,,768,0,4,,,,,3,,,44,0
459264,note_on,,,,,0,0,1,,,,,0,,,63,109
459632,note_off,,,,,384,0,3,,,,,2,,,55,0
459648,note_off,,,,,384,0,4,,,,,3,,,46,0
459648,note_off,,,,,384,0,2,,,,,1,,,58,0
459648,note_off,,,,,384,0,1,,,,,0,,,63,0
459936,note_on,,,,,288,0,1,,,,,0,,,67,109
460016,note_on,,,,,384,0,3,,,,,2,,,56,90
460032,note_on,,,,,384,0,4,,,,,3,,,46,90
460032,note_on,,,,,384,0,2,,,,,1,,,62,93
460032,note_off,,,,,96,0,1,,,,,0,,,67,0
460032,note_on,,,,,0,0,1,,,,,0,,,65,109
460400,note_off,,,,,384,0,3,,,,,2,,,56,0
460416,note_off,,,,,384,0,4,,,,,3,,,46,0
460416,note_off,,,,,384,0,1,,,,,0,,,65,0
460416,note_off,,,,,384,0,2,,,,,1,,,62,0
460784,note_on,,,,,384,0,3,,,,,2,,,55,90
460800,note_on,,,,,0,0,1,,,,,0,,,55,109
460800,note_on,,,,,384,0,1,,,,,0,,,63,109
460800,note_on,,,,,384,0,2,,,,,1,,,55,93
460800,note_on,,,,,0,0,2,,,,,1,,,63,93
460800,note_on,,,,,384,0,4,,,,,3,,,39,90
460928,note_off,,,,,128,0,1,,,,,0,,,63,0
460928,note_off,,,,,128,0,2,,,,,1,,,55,0
460928,note_off,,,,,0,0,2,,,,,1,,,63,0
460928,note_on,,,,,0,0,2,,,,,1,,,67,93
460928,note_on,,,,,0,0,1,,,,,0,,,70,109
460928,note_off,,,,,0,0,1,,,,,0,,,55,0
460976,note_off,,,,,192,0,3,,,,,2,,,55,0
460992,note_off,,,,,192,0,4,,,,,3,,,39,0
461056,note_on,,,,,0,0,1,,,,,0,,,70,109
461056,note_off,,,,,128,0,2,,,,,1,,,67,0
461056,note_off,,,,,128,0,1,,,,,0,,,70,0
461056,note_on,,,,,0,0,2,,,,,1,,,67,93
461168,note_on,,,,,192,0,3,,,,,2,,,51,90
461184,note_on,,,,,192,0,4,,,,,3,,,51,90
461184,note_on,,,,,0,0,1,,,,,0,,,70,109
461184,note_on,,,,,0,0,2,,,,,1,,,67,93
461184,note_off,,,,,128,0,1,,,,,0,,,70,0
461184,note_off,,,,,128,0,2,,,,,1,,,67,0
461312,note_on,,,,,0,0,2,,,,,1,,,67,93
461312,note_on,,,,,0,0,1,,,,,0,,,70,109
461312,note_off,,,,,128,0,1,,,,,0,,,70,0
461312,note_off,,,,,128,0,2,,,,,1,,,67,0
461360,note_off,,,,,192,0,3,,,,,2,,,51,0
461376,note_off,,,,,192,0,4,,,,,3,,,51,0
461440,note_off,,,,,128,0,2,,,,,1,,,67,0
461440,note_on,,,,,0,0,1,,,,,0,,,70,109
461440,note_on,,,,,0,0,2,,,,,1,,,67,93
461440,note_off,,,,,128,0,1,,,,,0,,,70,0
461568,note_off,,,,,128,0,1,,,,,0,,,70,0
461568,note_on,,,,,0,0,1,,,,,0,,,70,109
461568,note_off,,,,,128,0,2,,,,,1,,,67,0
461568,note_on,,,,,0,0,2,,,,,1,,,67,93
461696,note_off,,,,,128,0,2,,,,,1,,,67,0
461696,note_on,,,,,0,0,2,,,,,1,,,67,93
461696,note_off,,,,,128,0,1,,,,,0,,,70,0
461696,note_on,,,,,0,0,1,,,,,0,,,70,109
461824,note_off,,,,,128,0,2,,,,,1,,,67,0
461824,note_on,,,,,0,0,2,,,,,1,,,67,93
461824,note_off,,,,,128,0,1,,,,,0,,,70,0
461824,note_on,,,,,0,0,1,,,,,0,,,70,109
461936,note_on,,,,,576,0,3,,,,,2,,,67,90
461952,note_on,,,,,0,0,2,,,,,1,,,67,93
461952,note_off,,,,,128,0,2,,,,,1,,,67,0
461952,note_on,,,,,576,0,4,,,,,3,,,55,90
461952,note_off,,,,,128,0,1,,,,,0,,,70,0
461952,note_on,,,,,0,0,1,,,,,0,,,70,109
462064,note_off,,,,,128,0,3,,,,,2,,,67,0
462064,note_on,,,,,0,0,3,,,,,2,,,65,90
462080,note_off,,,,,128,0,4,,,,,3,,,55,0
462080,note_on,,,,,0,0,4,,,,,3,,,53,90
462080,note_off,,,,,128,0,2,,,,,1,,,67,0
462080,note_on,,,,,0,0,2,,,,,1,,,67,93
462080,note_off,,,,,128,0,1,,,,,0,,,70,0
462080,note_on,,,,,0,0,1,,,,,0,,,70,109
462192,note_off,,,,,128,0,3,,,,,2,,,65,0
462192,note_on,,,,,0,0,3,,,,,2,,,63,90
462208,note_on,,,,,0,0,1,,,,,0,,,70,109
462208,note_off,,,,,128,0,2,,,,,1,,,67,0
462208,note_off,,,,,128,0,1,,,,,0,,,70,0
462208,note_on,,,,,0,0,4,,,,,3,,,51,90
462208,note_off,,,,,128,0,4,,,,,3,,,53,0
462208,note_on,,,,,0,0,2,,,,,1,,,67,93
462320,note_on,,,,,0,0,3,,,,,2,,,62,90
462320,note_off,,,,,128,0,3,,,,,2,,,63,0
462336,note_on,,,,,0,0,4,,,,,3,,,50,90
462336,note_off,,,,,128,0,4,,,,,3,,,51,0
462336,note_on,,,,,0,0,1,,,,,0,,,70,109
462336,note_off,,,,,128,0,2,,,,,1,,,67,0
462336,note_on,,,,,0,0,2,,,,,1,,,68,93
462336,note_off,,,,,128,0,1,,,,,0,,,70,0
462464,note_on,,,,,0,0,2,,,,,1,,,68,93
462464,note_off,,,,,128,0,2,,,,,1,,,68,0
462464,note_off,,,,,128,0,1,,,,,0,,,70,0
462464,note_on,,,,,0,0,1,,,,,0,,,70,109
462512,note_off,,,,,192,0,3,,,,,2,,,62,0
462528,note_off,,,,,192,0,4,,,,,3,,,50,0
462592,note_off,,,,,128,0,1,,,,,0,,,70,0
462592,note_on,,,,,0,0,2,,,,,1,,,68,93
462592,note_off,,,,,128,0,2,,,,,1,,,68,0
462592,note_on,,,,,0,0,1,,,,,0,,,70,109
462704,note_on,,,,,192,0,3,,,,,2,,,58,90
462720,note_on,,,,,192,0,4,,,,,3,,,46,90
462720,note_off,,,,,128,0,2,,,,,1,,,68,0
462720,note_on,,,,,0,0,2,,,,,1,,,68,93
462720,note_off,,,,,128,0,1,,,,,0,,,70,0
462720,note_on,,,,,0,0,1,,,,,0,,,70,109
462848,note_on,,,,,0,0,2,,,,,1,,,68,93
462848,note_off,,,,,128,0,1,,,,,0,,,70,0
462848,note_on,,,,,0,0,1,,,,,0,,,70,109
462848,note_off,,,,,128,0,2,,,,,1,,,68,0
462896,note_off,,,,,192,0,3,,,,,2,,,58,0
462912,note_off,,,,,192,0,4,,,,,3,,,46,0
462976,note_on,,,,,0,0,2,,,,,1,,,68,93
462976,note_on,,,,,0,0,1,,,,,0,,,70,109
462976,note_off,,,,,128,0,1,,,,,0,,,70,0
462976,note_off,,,,,128,0,2,,,,,1,,,68,0
463104,note_off,,,,,128,0,1,,,,,0,,,70,0
463104,note_off,,,,,128,0,2,,,,,1,,,68,0
463104,note_on,,,,,0,0,1,,,,,0,,,70,109
463104,note_on,,,,,0,0,2,,,,,1,,,68,93
463232,note_off,,,,,128,0,2,,,,,1,,,68,0
463232,note_off,,,,,128,0,1,,,,,0,,,70,0
463232,note_on,,,,,0,0,1,,,,,0,,,70,109
463232,note_on,,,,,0,0,2,,,,,1,,,68,93
463360,note_off,,,,,128,0,2,,,,,1,,,68,0
463360,note_on,,,,,0,0,2,,,,,1,,,68,93
463360,note_off,,,,,128,0,1,,,,,0,,,70,0
463360,note_on,,,,,0,0,1,,,,,0,,,70,109
463488,note_off,,,,,128,0,2,,,,,1,,,68,0
463488,note_on,,,,,0,0,2,,,,,1,,,68,93
463488,note_off,,,,,128,0,1,,,,,0,,,70,0
463488,note_on,,,,,0,0,1,,,,,0,,,74,109
463616,note_on,,,,,0,0,2,,,,,1,,,68,93
463616,note_off,,,,,128,0,2,,,,,1,,,68,0
463616,note_off,,,,,128,0,1,,,,,0,,,74,0
463616,note_on,,,,,0,0,1,,,,,0,,,72,109
463744,note_on,,,,,0,0,2,,,,,1,,,68,93
463744,note_off,,,,,128,0,2,,,,,1,,,68,0
463744,note_on,,,,,0,0,1,,,,,0,,,70,109
463744,note_off,,,,,128,0,1,,,,,0,,,72,0
463856,note_on,,,,,960,0,3,,,,,2,,,51,90
463872,note_on,,,,,0,0,2,,,,,1,,,67,93
463872,note_off,,,,,128,0,2,,,,,1,,,68,0
463872,note_on,,,,,0,0,1,,,,,0,,,75,109
463872,note_off,,,,,128,0,1,,,,,0,,,70,0
463872,note_on,,,,,960,0,4,,,,,3,,,39,90
464000,note_off,,,,,128,0,2,,,,,1,,,67,0
464000,note_off,,,,,128,0,1,,,,,0,,,75,0
464000,note_on,,,,,0,0,1,,,,,0,,,70,109
464000,note_on,,,,,0,0,2,,,,,1,,,67,93
464048,note_off,,,,,192,0,3,,,,,2,,,51,0
464064,note_off,,,,,192,0,4,,,,,3,,,39,0
464128,note_off,,,,,128,0,1,,,,,0,,,70,0
464128,note_on,,,,,0,0,1,,,,,0,,,70,109
464128,note_on,,,,,0,0,2,,,,,1,,,67,93
464128,note_off,,,,,128,0,2,,,,,1,,,67,0
464240,note_on,,,,,192,0,3,,,,,2,,,63,90
464256,note_on,,,,,192,0,4,,,,,3,,,51,90
464256,note_off,,,,,128,0,1,,,,,0,,,70,0
464256,note_on,,,,,0,0,2,,,,,1,,,67,93
464256,note_off,,,,,128,0,2,,,,,1,,,67,0
464256,note_on,,,,,0,0,1,,,,,0,,,70,109
464384,note_on,,,,,0,0,2,,,,,1,,,67,93
464384,note_off,,,,,128,0,1,,,,,0,,,70,0
464384,note_on,,,,,0,0,1,,,,,0,,,70,109
464384,note_off,,,,,128,0,2,,,,,1,,,67,0
464432,note_off,,,,,192,0,3,,,,,2,,,63,0
464448,note_off,,,,,192,0,4,,,,,3,,,51,0
464512,note_on,,,,,0,0,1,,,,,0,,,70,109
464512,note_off,,,,,128,0,1,,,,,0,,,70,0
464512,note_on,,,,,0,0,2,,,,,1,,,67,93
464512,note_off,,,,,128,0,2,,,,,1,,,67,0
464640,note_on,,,,,0,0,1,,,,,0,,,70,109
464640,note_off,,,,,128,0,1,,,,,0,,,70,0
464640,note_off,,,,,128,0,2,,,,,1,,,67,0
464640,note_on,,,,,0,0,2,,,,,1,,,67,93
464768,note_off,,,,,128,0,2,,,,,1,,,67,0
464768,note_on,,,,,0,0,2,,,,,1,,,67,93
464768,note_off,,,,,128,0,1,,,,,0,,,70,0
464768,note_on,,,,,0,0,1,,,,,0,,,70,109
464896,note_off,,,,,128,0,2,,,,,1,,,67,0
464896,note_on,,,,,0,0,2,,,,,1,,,67,93
464896,note_off,,,,,128,0,1,,,,,0,,,70,0
464896,note_on,,,,,0,0,1,,,,,0,,,70,109
465008,note_on,,,,,576,0,3,,,,,2,,,67,90
465024,note_off,,,,,128,0,2,,,,,1,,,67,0
465024,note_on,,,,,0,0,1,,,,,0,,,70,109
465024,note_off,,,,,128,0,1,,,,,0,,,70,0
465024,note_on,,,,,0,0,2,,,,,1,,,67,93
465024,note_on,,,,,576,0,4,,,,,3,,,55,90
465136,note_off,,,,,128,0,3,,,,,2,,,67,0
465136,note_on,,,,,0,0,3,,,,,2,,,65,90
465152,note_on,,,,,0,0,2,,,,,1,,,67,93
465152,note_off,,,,,128,0,1,,,,,0,,,70,0
465152,note_on,,,,,0,0,1,,,,,0,,,70,109
465152,note_off,,,,,128,0,2,,,,,1,,,67,0
465152,note_on,,,,,0,0,4,,,,,3,,,53,90
465152,note_off,,,,,128,0,4,,,,,3,,,55,0
465264,note_off,,,,,128,0,3,,,,,2,,,65,0
465264,note_on,,,,,0,0,3,,,,,2,,,63,90
465280,note_on,,,,,0,0,2,,,,,1,,,67,93
465280,note_off,,,,,128,0,2,,,,,1,,,67,0
465280,note_on,,,,,0,0,1,,,,,0,,,70,109
465280,note_off,,,,,128,0,4,,,,,3,,,53,0
465280,note_on,,,,,0,0,4,,,,,3,,,51,90
465280,note_off,,,,,128,0,1,,,,,0,,,70,0
465392,note_off,,,,,128,0,3,,,,,2,,,63,0
465392,note_on,,,,,0,0,3,,,,,2,,,62,90
465408,note_off,,,,,128,0,2,,,,,1,,,67,0
465408,note_off,,,,,128,0,4,,,,,3,,,51,0
465408,note_on,,,,,0,0,4,,,,,3,,,50,90
465408,note_off,,,,,128,0,1,,,,,0,,,70,0
465408,note_on,,,,,0,0,2,,,,,1,,,68,93
465408,note_on,,,,,0,0,1,,,,,0,,,70,109
465536,note_on,,,,,0,0,1,,,,,0,,,70,109
465536,note_off,,,,,128,0,1,,,,,0,,,70,0
465536,note_on,,,,,0,0,2,,,,,1,,,68,93
465536,note_off,,,,,128,0,2,,,,,1,,,68,0
465584,note_off,,,,,192,0,3,,,,,2,,,62,0
465600,note_off,,,,,192,0,4,,,,,3,,,50,0
465664,note_on,,,,,0,0,1,,,,,0,,,70,109
465664,note_off,,,,,128,0,2,,,,,1,,,68,0
465664,note_off,,,,,128,0,1,,,,,0,,,70,0
465664,note_on,,,,,0,0,2,,,,,1,,,68,93
465776,note_on,,,,,192,0,3,,,,,2,,,58,90
465792,note_off,,,,,128,0,2,,,,,1,,,68,0
465792,note_off,,,,,128,0,1,,,,,0,,,70,0
465792,note_on,,,,,0,0,1,,,,,0,,,70,109
465792,note_on,,,,,0,0,2,,,,,1,,,68,93
465792,note_on,,,,,192,0,4,,,,,3,,,46,90
465920,note_off,,,,,128,0,2,,,,,1,,,68,0
465920,note_off,,,,,128,0,1,,,,,0,,,70,0
465920,note_on,,,,,0,0,2,,,,,1,,,68,93
465920,note_on,,,,,0,0,1,,,,,0,,,70,109
465968,note_off,,,,,192,0,3,,,,,2,,,58,0
465984,note_off,,,,,192,0,4,,,,,3,,,46,0
466048,note_off,,,,,128,0,2,,,,,1,,,68,0
466048,note_on,,,,,0,0,1,,,,,0,,,70,109
466048,note_on,,,,,0,0,2,,,,,1,,,68,93
466048,note_off,,,,,128,0,1,,,,,0,,,70,0
466176,note_off,,,,,128,0,1,,,,,0,,,70,0
466176,note_on,,,,,0,0,1,,,,,0,,,70,109
466176,note_off,,,,,128,0,2,,,,,1,,,68,0
466176,note_on,,,,,0,0,2,,,,,1,,,68,93
466304,note_off,,,,,128,0,1,,,,,0,,,70,0
466304,note_on,,,,,0,0,1,,,,,0,,,70,109
466304,note_off,,,,,128,0,2,,,,,1,,,68,0
466304,note_on,,,,,0,0,2,,,,,1,,,68,93
466432,note_on,,,,,0,0,2,,,,,1,,,68,93
466432,note_off,,,,,128,0,1,,,,,0,,,70,0
466432,note_on,,,,,0,0,1,,,,,0,,,70,109
466432,note_off,,,,,128,0,2,,,,,1,,,68,0
466560,note_off,,,,,128,0,1,,,,,0,,,70,0
466560,note_on,,,,,0,0,1,,,,,0,,,74,109
466560,note_off,,,,,128,0,2,,,,,1,,,68,0
466560,note_on,,,,,0,0,2,,,,,1,,,68,93
466688,note_off,,,,,128,0,1,,,,,0,,,74,0
466688,note_on,,,,,0,0,2,,,,,1,,,68,93
466688,note_off,,,,,128,0,2,,,,,1,,,68,0
466688,note_on,,,,,0,0,1,,,,,0,,,72,109
466816,note_off,,,,,128,0,1,,,,,0,,,72,0
466816,note_on,,,,,0,0,1,,,,,0,,,70,109
466816,note_off,,,,,128,0,2,,,,,1,,,68,0
466816,note_on,,,,,0,0,2,,,,,1,,,68,93
466928,note_on,,,,,960,0,3,,,,,2,,,51,90
466944,note_on,,,,,960,0,4,,,,,3,,,39,90
466944,note_on,,,,,0,0,1,,,,,0,,,75,109
466944,note_on,,,,,0,0,2,,,,,1,,,67,93
466944,note_off,,,,,128,0,2,,,,,1,,,68,0
466944,note_off,,,,,128,0,1,,,,,0,,,70,0
467072,note_off,,,,,128,0,2,,,,,1,,,67,0
467072,note_on,,,,,0,0,1,,,,,0,,,75,109
467072,note_off,,,,,128,0,1,,,,,0,,,75,0
467072,note_on,,,,,0,0,2,,,,,1,,,67,93
467200,note_off,,,,,128,0,1,,,,,0,,,75,0
467200,note_on,,,,,0,0,2,,,,,1,,,67,93
467200,note_off,,,,,128,0,2,,,,,1,,,67,0
467200,note_on,,,,,0,0,1,,,,,0,,,75,109
467312,note_on,,,,,0,0,3,,,,,2,,,67,90
467312,note_off,,,,,384,0,3,,,,,2,,,51,0
467328,note_on,,,,,0,0,4,,,,,3,,,55,90
467328,note_off,,,,,384,0,4,,,,,3,,,39,0
467328,note_off,,,,,128,0,2,,,,,1,,,67,0
467328,note_on,,,,,0,0,1,,,,,0,,,79,109
467328,note_off,,,,,128,0,1,,,,,0,,,75,0
467328,note_on,,,,,0,0,2,,,,,1,,,79,93
467440,note_on,,,,,0,0,3,,,,,2,,,67,90
467440,note_off,,,,,128,0,3,,,,,2,,,67,0
467456,note_off,,,,,128,0,2,,,,,1,,,79,0
467456,note_on,,,,,0,0,2,,,,,1,,,79,93
467456,note_off,,,,,128,0,1,,,,,0,,,79,0
467456,note_on,,,,,0,0,1,,,,,0,,,79,109
467568,note_off,,,,,128,0,3,,,,,2,,,67,0
467568,note_on,,,,,0,0,3,,,,,2,,,67,90
467584,note_on,,,,,0,0,2,,,,,1,,,79,93
467584,note_off,,,,,128,0,2,,,,,1,,,79,0
467584,note_off,,,,,128,0,1,,,,,0,,,79,0
467584,note_on,,,,,0,0,1,,,,,0,,,79,109
467696,note_off,,,,,128,0,3,,,,,2,,,67,0
467696,note_on,,,,,0,0,3,,,,,2,,,60,90
467712,note_on,,,,,0,0,1,,,,,0,,,72,109
467712,note_on,,,,,0,0,4,,,,,3,,,48,90
467712,note_off,,,,,128,0,2,,,,,1,,,79,0
467712,note_on,,,,,0,0,2,,,,,1,,,72,93
467712,note_off,,,,,128,0,1,,,,,0,,,79,0
467712,note_off,,,,,384,0,4,,,,,3,,,55,0
467824,note_off,,,,,128,0,3,,,,,2,,,60,0
467824,note_on,,,,,0,0,3,,,,,2,,,60,90
467840,note_off,,,,,128,0,2,,,,,1,,,72,0
467840,note_on,,,,,0,0,2,,,,,1,,,72,93
467840,note_off,,,,,128,0,1,,,,,0,,,72,0
467840,note_on,,,,,0,0,1,,,,,0,,,72,109
467952,note_off,,,,,128,0,3,,,,,2,,,60,0
467952,note_on,,,,,0,0,3,,,,,2,,,60,90
467968,note_off,,,,,128,0,1,,,,,0,,,72,0
467968,note_off,,,,,128,0,2,,,,,1,,,72,0
467968,note_on,,,,,0,0,2,,,,,1,,,72,93
467968,note_on,,,,,0,0,1,,,,,0,,,72,109
468080,note_off,,,,,128,0,3,,,,,2,,,60,0
468080,note_on,,,,,0,0,3,,,,,2,,,63,90
468096,note_off,,,,,128,0,1,,,,,0,,,72,0
468096,note_on,,,,,0,0,2,,,,,1,,,75,93
468096,note_on,,,,,0,0,4,,,,,3,,,51,90
468096,note_off,,,,,384,0,4,,,,,3,,,48,0
468096,note_on,,,,,0,0,1,,,,,0,,,75,109
468096,note_off,,,,,128,0,2,,,,,1,,,72,0
468208,note_off,,,,,128,0,3,,,,,2,,,63,0
468208,note_on,,,,,0,0,3,,,,,2,,,63,90
468224,note_off,,,,,128,0,1,,,,,0,,,75,0
468224,note_on,,,,,0,0,1,,,,,0,,,75,109
468224,note_on,,,,,0,0,2,,,,,1,,,75,93
468224,note_off,,,,,128,0,2,,,,,1,,,75,0
468336,note_on,,,,,0,0,3,,,,,2,,,63,90
468336,note_off,,,,,128,0,3,,,,,2,,,63,0
468352,note_on,,,,,0,0,1,,,,,0,,,75,109
468352,note_off,,,,,128,0,1,,,,,0,,,75,0
468352,note_off,,,,,128,0,2,,,,,1,,,75,0
468352,note_on,,,,,0,0,2,,,,,1,,,75,93
468464,note_off,,,,,128,0,3,,,,,2,,,63,0
468464,note_on,,,,,0,0,3,,,,,2,,,56,90
468480,note_off,,,,,128,0,2,,,,,1,,,75,0
468480,note_on,,,,,0,0,2,,,,,1,,,68,93
468480,note_off,,,,,384,0,4,,,,,3,,,51,0
468480,note_off,,,,,128,0,1,,,,,0,,,75,0
468480,note_on,,,,,0,0,4,,,,,3,,,44,90
468480,note_on,,,,,0,0,1,,,,,0,,,68,109
468592,note_on,,,,,0,0,3,,,,,2,,,56,90
468592,note_off,,,,,128,0,3,,,,,2,,,56,0
468608,note_on,,,,,0,0,2,,,,,1,,,68,93
468608,note_off,,,,,128,0,2,,,,,1,,,68,0
468608,note_off,,,,,128,0,1,,,,,0,,,68,0
468608,note_on,,,,,0,0,1,,,,,0,,,68,109
468720,note_off,,,,,128,0,3,,,,,2,,,56,0
468720,note_on,,,,,0,0,3,,,,,2,,,56,90
468736,note_on,,,,,0,0,2,,,,,1,,,68,93
468736,note_off,,,,,128,0,2,,,,,1,,,68,0
468736,note_off,,,,,128,0,1,,,,,0,,,68,0
468736,note_on,,,,,0,0,1,,,,,0,,,68,109
468848,note_off,,,,,128,0,3,,,,,2,,,56,0
468848,note_on,,,,,0,0,3,,,,,2,,,60,90
468864,note_off,,,,,384,0,4,,,,,3,,,44,0
468864,note_off,,,,,128,0,1,,,,,0,,,68,0
468864,note_off,,,,,128,0,2,,,,,1,,,68,0
468864,note_on,,,,,0,0,2,,,,,1,,,72,93
468864,note_on,,,,,0,0,4,,,,,3,,,48,90
468864,note_on,,,,,0,0,1,,,,,0,,,72,109
468976,note_on,,,,,0,0,3,,,,,2,,,60,90
468976,note_off,,,,,128,0,3,,,,,2,,,60,0
468992,note_on,,,,,0,0,1,,,,,0,,,72,109
468992,note_on,,,,,0,0,2,,,,,1,,,72,93
468992,note_off,,,,,128,0,2,,,,,1,,,72,0
468992,note_off,,,,,128,0,1,,,,,0,,,72,0
469104,note_on,,,,,0,0,3,,,,,2,,,60,90
469104,note_off,,,,,128,0,3,,,,,2,,,60,0
469120,note_off,,,,,128,0,2,,,,,1,,,72,0
469120,note_off,,,,,128,0,1,,,,,0,,,72,0
469120,note_on,,,,,0,0,2,,,,,1,,,72,93
469120,note_on,,,,,0,0,1,,,,,0,,,72,109
469232,note_on,,,,,0,0,3,,,,,2,,,53,90
469232,note_off,,,,,128,0,3,,,,,2,,,60,0
469248,note_off,,,,,128,0,1,,,,,0,,,72,0
469248,note_on,,,,,0,0,1,,,,,0,,,65,109
469248,note_on,,,,,0,0,4,,,,,3,,,41,90
469248,note_off,,,,,128,0,2,,,,,1,,,72,0
469248,note_on,,,,,0,0,2,,,,,1,,,65,93
469248,note_off,,,,,384,0,4,,,,,3,,,48,0
469360,note_on,,,,,0,0,3,,,,,2,,,53,90
469360,note_off,,,,,128,0,3,,,,,2,,,53,0
469376,note_off,,,,,128,0,2,,,,,1,,,65,0
469376,note_on,,,,,0,0,2,,,,,1,,,65,93
469376,note_on,,,,,0,0,1,,,,,0,,,65,109
469376,note_off,,,,,128,0,1,,,,,0,,,65,0
469488,note_off,,,,,128,0,3,,,,,2,,,53,0
469488,note_on,,,,,0,0,3,,,,,2,,,53,90
469504,note_on,,,,,0,0,2,,,,,1,,,65,93
469504,note_off,,,,,128,0,2,,,,,1,,,65,0
469504,note_on,,,,,0,0,1,,,,,0,,,65,109
469504,note_off,,,,,128,0,1,,,,,0,,,65,0
469616,note_off,,,,,128,0,3,,,,,2,,,53,0
469616,note_on,,,,,0,0,3,,,,,2,,,56,90
469632,note_on,,,,,0,0,4,,,,,3,,,44,90
469632,note_on,,,,,0,0,2,,,,,1,,,68,93
469632,note_off,,,,,128,0,2,,,,,1,,,65,0
469632,note_on,,,,,0,0,1,,,,,0,,,68,109
469632,note_off,,,,,128,0,1,,,,,0,,,65,0
469632,note_off,,,,,384,0,4,,,,,3,,,41,0
469744,note_on,,,,,0,0,3,,,,,2,,,56,90
469744,note_off,,,,,128,0,3,,,,,2,,,56,0
469760,note_off,,,,,128,0,1,,,,,0,,,68,0
469760,note_on,,,,,0,0,1,,,,,0,,,68,109
469760,note_on,,,,,0,0,2,,,,,1,,,68,93
469760,note_off,,,,,128,0,2,,,,,1,,,68,0
469872,note_off,,,,,128,0,3,,,,,2,,,56,0
469872,note_on,,,,,0,0,3,,,,,2,,,56,90
469888,note_off,,,,,128,0,2,,,,,1,,,68,0
469888,note_on,,,,,0,0,2,,,,,1,,,68,93
469888,note_off,,,,,128,0,1,,,,,0,,,68,0
469888,note_on,,,,,0,0,1,,,,,0,,,68,109
470000,note_on,,,,,0,0,3,,,,,2,,,51,90
470000,note_off,,,,,128,0,3,,,,,2,,,56,0
470016,note_on,,,,,0,0,2,,,,,1,,,62,93
470016,note_off,,,,,384,0,4,,,,,3,,,44,0
470016,note_on,,,,,0,0,4,,,,,3,,,38,90
470016,note_off,,,,,128,0,2,,,,,1,,,68,0
470016,note_on,,,,,0,0,1,,,,,0,,,62,109
470016,note_off,,,,,128,0,1,,,,,0,,,68,0
470384,note_off,,,,,384,0,3,,,,,2,,,51,0
470400,note_off,,,,,384,0,4,,,,,3,,,38,0
470400,note_off,,,,,384,0,1,,,,,0,,,62,0
470400,note_off,,,,,384,0,2,,,,,1,,,62,0
470768,note_on,,,,,384,0,3,,,,,2,,,65,90
470784,note_on,,,,,384,0,4,,,,,3,,,62,90
470784,note_on,,,,,0,0,1,,,,,0,,,84,109
470784,note_on,,,,,384,0,1,,,,,0,,,72,109
470784,note_on,,,,,384,0,2,,,,,1,,,80,93
471536,note_off,,,,,768,0,3,,,,,2,,,65,0
471552,note_off,,,,,768,0,1,,,,,0,,,72,0
471552,note_off,,,,,768,0,2,,,,,1,,,80,0
471552,note_off,,,,,0,0,1,,,,,0,,,84,0
471552,note_off,,,,,768,0,4,,,,,3,,,62,0
472688,note_on,,,,,1152,0,3,,,,,2,,,62,90
472704,note_on,,,,,1152,0,2,,,,,1,,,68,93
472704,note_on,,,,,1152,0,1,,,,,0,,,72,109
473072,note_off,,,,,384,0,3,,,,,2,,,62,0
473072,note_on,,,,,0,0,3,,,,,2,,,63,90
473088,note_off,,,,,384,0,2,,,,,1,,,68,0
473088,note_on,,,,,0,0,2,,,,,1,,,67,93
473088,note_on,,,,,0,0,1,,,,,0,,,70,109
473088,note_off,,,,,384,0,1,,,,,0,,,72,0
473264,note_off,,,,,192,0,3,,,,,2,,,63,0
473280,note_off,,,,,192,0,2,,,,,1,,,67,0
473280,note_off,,,,,192,0,1,,,,,0,,,70,0
473472,note_on,,,,,192,0,1,,,,,0,,,75,109
473600,note_on,,,,,0,0,1,,,,,0,,,74,109
473600,note_off,,,,,128,0,1,,,,,0,,,75,0
473728,note_on,,,,,0,0,1,,,,,0,,,75,109
473728,note_off,,,,,128,0,1,,,,,0,,,74,0
473856,note_on,,,,,0,0,1,,,,,0,,,79,109
473856,note_off,,,,,128,0,1,,,,,0,,,75,0
474240,note_off,,,,,384,0,1,,,,,0,,,79,0
474624,note_on,,,,,45696,0,5,,,,,4,,,51,90
475008,end_of_track,,,,,0,1,5,,,,,,,,,
475008,note_off,,,,,384,0,5,,,,,4,,,51,0
475760,note_on,,,,,2496,0,3,,,,,2,,,62,90
475776,note_on,,,,,1536,0,1,,,,,0,,,72,109
475776,note_on,,,,,2496,0,2,,,,,1,,,68,93
476144,note_off,,,,,384,0,3,,,,,2,,,62,0
476144,note_on,,,,,0,0,3,,,,,2,,,63,90
476160,note_off,,,,,384,0,2,,,,,1,,,68,0
476160,note_on,,,,,0,0,2,,,,,1,,,67,93
476160,note_off,,,,,384,0,1,,,,,0,,,72,0
476160,note_on,,,,,0,0,1,,,,,0,,,70,109
476336,note_off,,,,,192,0,3,,,,,2,,,63,0
476352,note_off,,,,,192,0,1,,,,,0,,,70,0
476352,note_off,,,,,192,0,2,,,,,1,,,67,0
476544,note_on,,,,,192,0,1,,,,,0,,,75,109
476672,note_off,,,,,128,0,1,,,,,0,,,75,0
476672,note_on,,,,,0,0,1,,,,,0,,,74,109
476800,note_on,,,,,0,0,1,,,,,0,,,75,109
476800,note_off,,,,,128,0,1,,,,,0,,,74,0
476928,note_on,,,,,0,0,1,,,,,0,,,79,109
476928,note_off,,,,,128,0,1,,,,,0,,,75,0
477024,note_off,,,,,96,0,1,,,,,0,,,79,0
477296,note_on,,,,,960,0,3,,,,,2,,,62,90
477312,note_on,,,,,960,0,2,,,,,1,,,68,93
477312,note_on,,,,,288,0,1,,,,,0,,,72,109
477680,note_on,,,,,0,0,3,,,,,2,,,63,90
477680,note_off,,,,,384,0,3,,,,,2,,,62,0
477696,note_off,,,,,384,0,2,,,,,1,,,68,0
477696,note_on,,,,,0,0,2,,,,,1,,,67,93
477696,note_on,,,,,0,0,1,,,,,0,,,70,109
477696,note_off,,,,,384,0,1,,,,,0,,,72,0
477872,note_off,,,,,192,0,3,,,,,2,,,63,0
477888,note_off,,,,,192,0,2,,,,,1,,,67,0
477888,note_off,,,,,192,0,1,,,,,0,,,70,0
478080,note_on,,,,,192,0,1,,,,,0,,,75,109
478208,note_on,,,,,0,0,1,,,,,0,,,74,109
478208,note_off,,,,,128,0,1,,,,,0,,,75,0
478336,note_off,,,,,128,0,1,,,,,0,,,74,0
478336,note_on,,,,,0,0,1,,,,,0,,,75,109
478464,note_off,,,,,128,0,1,,,,,0,,,75,0
478464,note_on,,,,,0,0,1,,,,,0,,,79,109
478560,note_off,,,,,96,0,1,,,,,0,,,79,0
478848,note_on,,,,,288,0,1,,,,,0,,,70,109
478944,note_off,,,,,96,0,1,,,,,0,,,70,0
479232,note_on,,,,,288,0,1,,,,,0,,,75,109
479328,note_off,,,,,96,0,1,,,,,0,,,75,0
479616,note_on,,,,,288,0,1,,,,,0,,,67,109
479712,note_off,,,,,96,0,1,,,,,0,,,67,0
480000,note_on,,,,,288,0,1,,,,,0,,,70,109
480096,note_off,,,,,96,0,1,,,,,0,,,70,0
480368,note_on,,,,,2496,0,3,,,,,2,,,54,90
480384,note_on,,,,,2496,0,2,,,,,1,,,63,93
480384,note_on,,,,,288,0,1,,,,,0,,,72,109
480384,note_on,,,,,8832,0,4,,,,,3,,,45,90
480752,note_off,,,,,384,0,3,,,,,2,,,54,0
480752,note_on,,,,,0,0,3,,,,,2,,,55,90
480768,note_off,,,,,384,0,2,,,,,1,,,63,0
480768,note_on,,,,,0,0,1,,,,,0,,,63,109
480768,note_off,,,,,384,0,1,,,,,0,,,72,0
480768,note_off,,,,,384,0,4,,,,,3,,,45,0
480768,note_on,,,,,0,0,2,,,,,1,,,58,93
480768,note_on,,,,,0,0,4,,,,,3,,,46,90
481440,note_on,,,,,0,0,1,,,,,0,,,67,109
481440,note_off,,,,,672,0,1,,,,,0,,,63,0
481520,note_on,,,,,0,0,3,,,,,2,,,56,90
481520,note_off,,,,,768,0,3,,,,,2,,,55,0
481536,note_off,,,,,96,0,1,,,,,0,,,67,0
481536,note_on,,,,,0,0,1,,,,,0,,,65,109
481536,note_on,,,,,0,0,2,,,,,1,,,62,93
481536,note_off,,,,,768,0,2,,,,,1,,,58,0
481728,note_off,,,,,192,0,1,,,,,0,,,65,0
481728,note_on,,,,,0,0,1,,,,,0,,,63,109
481920,note_on,,,,,0,0,1,,,,,0,,,65,109
481920,note_off,,,,,192,0,1,,,,,0,,,63,0
482112,note_off,,,,,192,0,1,,,,,0,,,65,0
482112,note_on,,,,,0,0,1,,,,,0,,,67,109
482288,note_on,,,,,0,0,3,,,,,2,,,55,90
482288,note_off,,,,,768,0,3,,,,,2,,,56,0
482304,note_off,,,,,192,0,1,,,,,0,,,67,0
482304,note_on,,,,,0,0,1,,,,,0,,,63,109
482304,note_on,,,,,0,0,4,,,,,3,,,39,90
482304,note_off,,,,,1536,0,4,,,,,3,,,46,0
482304,note_off,,,,,768,0,2,,,,,1,,,62,0
482304,note_on,,,,,0,0,2,,,,,1,,,63,93
482496,note_off,,,,,192,0,1,,,,,0,,,63,0
482672,note_off,,,,,384,0,3,,,,,2,,,55,0
482688,note_off,,,,,384,0,4,,,,,3,,,39,0
482688,note_on,,,,,0,0,2,,,,,1,,,63,93
482688,note_off,,,,,384,0,2,,,,,1,,,63,0
482688,note_on,,,,,192,0,1,,,,,0,,,75,109
482816,note_off,,,,,128,0,2,,,,,1,,,63,0
482816,note_on,,,,,0,0,2,,,,,1,,,62,93
482816,note_off,,,,,128,0,1,,,,,0,,,75,0
482816,note_on,,,,,0,0,1,,,,,0,,,74,109
482944,note_off,,,,,128,0,2,,,,,1,,,62,0
482944,note_on,,,,,0,0,2,,,,,1,,,63,93
482944,note_on,,,,,0,0,1,,,,,0,,,75,109
482944,note_off,,,,,128,0,1,,,,,0,,,74,0
483072,note_off,,,,,128,0,2,,,,,1,,,63,0
483072,note_on,,,,,0,0,2,,,,,1,,,67,93
483072,note_on,,,,,0,0,1,,,,,0,,,79,109
483072,note_off,,,,,128,0,1,,,,,0,,,75,0
483168,note_off,,,,,96,0,2,,,,,1,,,67,0
483168,note_off,,,,,96,0,1,,,,,0,,,79,0
483456,note_on,,,,,288,0,2,,,,,1,,,58,93
483456,note_on,,,,,288,0,1,,,,,0,,,70,109
483552,note_off,,,,,96,0,1,,,,,0,,,70,0
483552,note_off,,,,,96,0,2,,,,,1,,,58,0
483840,note_on,,,,,288,0,1,,,,,0,,,75,109
483840,note_on,,,,,288,0,2,,,,,1,,,63,93
483936,note_off,,,,,96,0,2,,,,,1,,,63,0
483936,note_off,,,,,96,0,1,,,,,0,,,75,0
484224,note_on,,,,,288,0,2,,,,,1,,,55,93
484224,note_on,,,,,288,0,1,,,,,0,,,67,109
484320,note_off,,,,,96,0,2,,,,,1,,,55,0
484320,note_off,,,,,96,0,1,,,,,0,,,67,0
484608,note_on,,,,,288,0,1,,,,,0,,,70,109
484608,note_on,,,,,288,0,2,,,,,1,,,58,93
484704,note_off,,,,,96,0,1,,,,,0,,,70,0
484704,note_off,,,,,96,0,2,,,,,1,,,58,0
484976,note_on,,,,,2304,0,3,,,,,2,,,54,90
484992,note_on,,,,,2304,0,4,,,,,3,,,45,90
484992,note_on,,,,,288,0,1,,,,,0,,,72,109
484992,note_on,,,,,288,0,2,,,,,1,,,63,93
485360,note_off,,,,,384,0,3,,,,,2,,,54,0
485360,note_on,,,,,0,0,3,,,,,2,,,55,90
485376,note_on,,,,,0,0,4,,,,,3,,,46,90
485376,note_on,,,,,0,0,1,,,,,0,,,63,109
485376,note_on,,,,,0,0,2,,,,,1,,,58,93
485376,note_off,,,,,384,0,2,,,,,1,,,63,0
485376,note_off,,,,,384,0,4,,,,,3,,,45,0
485376,note_off,,,,,384,0,1,,,,,0,,,72,0
486048,note_on,,,,,0,0,1,,,,,0,,,67,109
486048,note_off,,,,,672,0,1,,,,,0,,,63,0
486128,note_on,,,,,0,0,3,,,,,2,,,56,90
486128,note_off,,,,,768,0,3,,,,,2,,,55,0
486144,note_on,,,,,0,0,1,,,,,0,,,65,109
486144,note_off,,,,,96,0,1,,,,,0,,,67,0
486144,note_off,,,,,768,0,2,,,,,1,,,58,0
486144,note_on,,,,,0,0,2,,,,,1,,,62,93
486336,note_on,,,,,0,0,1,,,,,0,,,63,109
486336,note_off,,,,,192,0,1,,,,,0,,,65,0
486528,note_on,,,,,0,0,1,,,,,0,,,65,109
486528,note_off,,,,,192,0,1,,,,,0,,,63,0
486720,note_on,,,,,0,0,1,,,,,0,,,67,109
486720,note_off,,,,,192,0,1,,,,,0,,,65,0
486896,note_on,,,,,0,0,3,,,,,2,,,55,90
486896,note_off,,,,,768,0,3,,,,,2,,,56,0
486912,note_off,,,,,768,0,2,,,,,1,,,62,0
486912,note_on,,,,,0,0,2,,,,,1,,,63,93
486912,note_on,,,,,0,0,4,,,,,3,,,39,90
486912,note_off,,,,,1536,0,4,,,,,3,,,46,0
486912,note_off,,,,,192,0,1,,,,,0,,,67,0
486912,note_on,,,,,0,0,1,,,,,0,,,63,109
487024,note_off,,,,,128,0,3,,,,,2,,,55,0
487024,note_on,,,,,0,0,3,,,,,2,,,55,90
487040,note_off,,,,,128,0,2,,,,,1,,,63,0
487040,note_on,,,,,0,0,2,,,,,1,,,58,93
487104,note_off,,,,,192,0,1,,,,,0,,,63,0
487152,note_off,,,,,128,0,3,,,,,2,,,55,0
487152,note_on,,,,,0,0,3,,,,,2,,,55,90
487168,note_on,,,,,0,0,2,,,,,1,,,58,93
487168,note_off,,,,,128,0,2,,,,,1,,,58,0
487280,note_on,,,,,0,0,3,,,,,2,,,55,90
487280,note_off,,,,,128,0,3,,,,,2,,,55,0
487296,note_off,,,,,384,0,4,,,,,3,,,39,0
487296,note_on,,,,,192,0,1,,,,,0,,,79,109
487296,note_off,,,,,128,0,2,,,,,1,,,58,0
487296,note_on,,,,,0,0,2,,,,,1,,,58,93
487408,note_on,,,,,0,0,3,,,,,2,,,55,90
487408,note_off,,,,,128,0,3,,,,,2,,,55,0
487424,note_off,,,,,128,0,1,,,,,0,,,79,0
487424,note_on,,,,,0,0,1,,,,,0,,,77,109
487424,note_on,,,,,0,0,2,,,,,1,,,58,93
487424,note_off,,,,,128,0,2,,,,,1,,,58,0
487536,note_on,,,,,0,0,3,,,,,2,,,55,90
487536,note_off,,,,,128,0,3,,,,,2,,,55,0
487552,note_on,,,,,0,0,1,,,,,0,,,75,109
487552,note_off,,,,,128,0,2,,,,,1,,,58,0
487552,note_on,,,,,0,0,2,,,,,1,,,58,93
487552,note_off,,,,,128,0,1,,,,,0,,,77,0
487664,note_on,,,,,0,0,3,,,,,2,,,56,90
487664,note_off,,,,,128,0,3,,,,,2,,,55,0
487680,note_on,,,,,0,0,1,,,,,0,,,74,109
487680,note_off,,,,,128,0,1,,,,,0,,,75,0
487680,note_on,,,,,0,0,2,,,,,1,,,58,93
487680,note_off,,,,,128,0,2,,,,,1,,,58,0
487680,note_on,,,,,384,0,4,,,,,3,,,46,90
487792,note_off,,,,,128,0,3,,,,,2,,,56,0
487792,note_on,,,,,0,0,3,,,,,2,,,56,90
487808,note_on,,,,,0,0,2,,,,,1,,,58,93
487808,note_off,,,,,128,0,2,,,,,1,,,58,0
487872,note_off,,,,,192,0,1,,,,,0,,,74,0
487920,note_off,,,,,128,0,3,,,,,2,,,56,0
487920,note_on,,,,,0,0,3,,,,,2,,,56,90
487936,note_off,,,,,128,0,2,,,,,1,,,58,0
487936,note_on,,,,,0,0,2,,,,,1,,,58,93
488048,note_on,,,,,0,0,3,,,,,2,,,56,90
488048,note_off,,,,,128,0,3,,,,,2,,,56,0
488064,note_on,,,,,192,0,1,,,,,0,,,70,109
488064,note_on,,,,,0,0,2,,,,,1,,,58,93
488064,note_off,,,,,384,0,4,,,,,3,,,46,0
488064,note_off,,,,,128,0,2,,,,,1,,,58,0
488176,note_on,,,,,0,0,3,,,,,2,,,56,90
488176,note_off,,,,,128,0,3,,,,,2,,,56,0
488192,note_off,,,,,128,0,2,,,,,1,,,58,0
488192,note_on,,,,,0,0,2,,,,,1,,,58,93
488192,note_off,,,,,128,0,1,,,,,0,,,70,0
488192,note_on,,,,,0,0,1,,,,,0,,,72,109
488304,note_off,,,,,128,0,3,,,,,2,,,56,0
488304,note_on,,,,,0,0,3,,,,,2,,,56,90
488320,note_on,,,,,0,0,2,,,,,1,,,58,93
488320,note_on,,,,,0,0,1,,,,,0,,,74,109
488320,note_off,,,,,128,0,1,,,,,0,,,72,0
488320,note_off,,,,,128,0,2,,,,,1,,,58,0
488432,note_on,,,,,0,0,3,,,,,2,,,55,90
488432,note_off,,,,,128,0,3,,,,,2,,,56,0
488448,note_off,,,,,128,0,1,,,,,0,,,74,0
488448,note_on,,,,,0,0,2,,,,,1,,,58,93
488448,note_off,,,,,128,0,2,,,,,1,,,58,0
488448,note_on,,,,,384,0,4,,,,,3,,,39,90
488448,note_on,,,,,0,0,1,,,,,0,,,75,109
488560,note_on,,,,,0,0,3,,,,,2,,,55,90
488560,note_off,,,,,128,0,3,,,,,2,,,55,0
488576,note_on,,,,,0,0,2,,,,,1,,,58,93
488576,note_off,,,,,128,0,2,,,,,1,,,58,0
488640,note_off,,,,,192,0,1,,,,,0,,,75,0
488688,note_off,,,,,128,0,3,,,,,2,,,55,0
488688,note_on,,,,,0,0,3,,,,,2,,,55,90
488704,note_off,,,,,128,0,2,,,,,1,,,58,0
488704,note_on,,,,,0,0,2,,,,,1,,,58,93
488816,note_off,,,,,128,0,3,,,,,2,,,55,0
488816,note_on,,,,,0,0,3,,,,,2,,,55,90
488832,note_off,,,,,128,0,2,,,,,1,,,58,0
488832,note_on,,,,,0,0,2,,,,,1,,,58,93
488832,note_off,,,,,384,0,4,,,,,3,,,39,0
488832,note_on,,,,,192,0,1,,,,,0,,,79,109
488944,note_off,,,,,128,0,3,,,,,2,,,55,0
488944,note_on,,,,,0,0,3,,,,,2,,,55,90
488960,note_on,,,,,0,0,1,,,,,0,,,77,109
488960,note_off,,,,,128,0,1,,,,,0,,,79,0
488960,note_off,,,,,128,0,2,,,,,1,,,58,0
488960,note_on,,,,,0,0,2,,,,,1,,,58,93
489072,note_off,,,,,128,0,3,,,,,2,,,55,0
489072,note_on,,,,,0,0,3,,,,,2,,,55,90
489088,note_off,,,,,128,0,2,,,,,1,,,58,0
489088,note_on,,,,,0,0,2,,,,,1,,,58,93
489088,note_off,,,,,128,0,1,,,,,0,,,77,0
489088,note_on,,,,,0,0,1,,,,,0,,,75,109
489200,note_off,,,,,128,0,3,,,,,2,,,55,0
489200,note_on,,,,,0,0,3,,,,,2,,,56,90
489216,note_off,,,,,128,0,2,,,,,1,,,58,0
489216,note_on,,,,,0,0,2,,,,,1,,,58,93
489216,note_on,,,,,384,0,4,,,,,3,,,46,90
489216,note_on,,,,,0,0,1,,,,,0,,,74,109
489216,note_off,,,,,128,0,1,,,,,0,,,75,0
489328,note_on,,,,,0,0,3,,,,,2,,,56,90
489328,note_off,,,,,128,0,3,,,,,2,,,56,0
489344,note_on,,,,,0,0,2,,,,,1,,,58,93
489344,note_off,,,,,128,0,2,,,,,1,,,58,0
489408,note_off,,,,,192,0,1,,,,,0,,,74,0
489456,note_on,,,,,0,0,3,,,,,2,,,56,90
489456,note_off,,,,,128,0,3,,,,,2,,,56,0
489472,note_on,,,,,0,0,2,,,,,1,,,58,93
489472,note_off,,,,,128,0,2,,,,,1,,,58,0
489584,note_on,,,,,0,0,3,,,,,2,,,56,90
489584,note_off,,,,,128,0,3,,,,,2,,,56,0
489600,note_off,,,,,384,0,4,,,,,3,,,46,0
489600,note_off,,,,,128,0,2,,,,,1,,,58,0
489600,note_on,,,,,0,0,2,,,,,1,,,58,93
489600,note_on,,,,,192,0,1,,,,,0,,,70,109
489712,note_on,,,,,0,0,3,,,,,2,,,56,90
489712,note_off,,,,,128,0,3,,,,,2,,,56,0
489728,note_off,,,,,128,0,1,,,,,0,,,70,0
489728,note_off,,,,,128,0,2,,,,,1,,,58,0
489728,note_on,,,,,0,0,2,,,,,1,,,58,93
489728,note_on,,,,,0,0,1,,,,,0,,,72,109
489840,note_on,,,,,0,0,3,,,,,2,,,56,90
489840,note_off,,,,,128,0,3,,,,,2,,,56,0
489856,note_off,,,,,128,0,2,,,,,1,,,58,0
489856,note_off,,,,,128,0,1,,,,,0,,,72,0
489856,note_on,,,,,0,0,1,,,,,0,,,74,109
489856,note_on,,,,,0,0,2,,,,,1,,,58,93
489968,note_on,,,,,0,0,3,,,,,2,,,55,90
489968,note_off,,,,,128,0,3,,,,,2,,,56,0
489984,note_on,,,,,0,0,2,,,,,1,,,58,93
489984,note_off,,,,,128,0,2,,,,,1,,,58,0
489984,note_off,,,,,128,0,1,,,,,0,,,74,0
489984,note_on,,,,,384,0,4,,,,,3,,,39,90
489984,note_on,,,,,0,0,1,,,,,0,,,75,109
490160,note_off,,,,,192,0,3,,,,,2,,,55,0
490160,note_on,,,,,0,0,3,,,,,2,,,63,90
490368,note_off,,,,,384,0,4,,,,,3,,,39,0
490368,note_off,,,,,384,0,1,,,,,0,,,75,0
490368,note_off,,,,,384,0,2,,,,,1,,,58,0
490544,note_on,,,,,0,0,3,,,,,2,,,63,90
490544,note_off,,,,,384,0,3,,,,,2,,,63,0
490928,note_on,,,,,0,0,3,,,,,2,,,63,90
490928,note_off,,,,,384,0,3,,,,,2,,,63,0
491312,note_off,,,,,384,0,3,,,,,2,,,63,0
491312,note_on,,,,,0,0,3,,,,,2,,,63,90
491520,note_on,,,,,1152,0,1,,,,,0,,,70,109
491520,note_on,,,,,1152,0,2,,,,,1,,,61,93
491696,note_off,,,,,384,0,3,,,,,2,,,63,0
491696,note_on,,,,,0,0,3,,,,,2,,,63,90
492080,note_off,,,,,384,0,3,,,,,2,,,63,0
492080,note_on,,,,,0,0,3,,,,,2,,,63,90
492288,note_off,,,,,768,0,1,,,,,0,,,70,0
492288,note_on,,,,,0,0,1,,,,,0,,,68,109
492288,note_on,,,,,0,0,2,,,,,1,,,60,93
492288,note_off,,,,,768,0,2,,,,,1,,,61,0
492464,note_on,,,,,0,0,3,,,,,2,,,63,90
492464,note_off,,,,,384,0,3,,,,,2,,,63,0
492672,note_on,,,,,0,0,1,,,,,0,,,67,109
492672,note_off,,,,,384,0,1,,,,,0,,,68,0
492672,note_on,,,,,0,0,2,,,,,1,,,58,93
492672,note_off,,,,,384,0,2,,,,,1,,,60,0
492848,note_on,,,,,0,0,3,,,,,2,,,63,90
492848,note_off,,,,,384,0,3,,,,,2,,,63,0
493056,note_on,,,,,0,0,1,,,,,0,,,65,109
493056,note_off,,,,,384,0,1,,,,,0,,,67,0
493056,note_on,,,,,0,0,2,,,,,1,,,56,93
493056,note_off,,,,,384,0,2,,,,,1,,,58,0
493232,note_on,,,,,0,0,3,,,,,2,,,63,90
493232,note_off,,,,,384,0,3,,,,,2,,,63,0
493440,note_on,,,,,0,0,1,,,,,0,,,65,109
493440,note_off,,,,,384,0,1,,,,,0,,,65,0
493440,note_on,,,,,0,0,2,,,,,1,,,56,93
493440,note_off,,,,,384,0,2,,,,,1,,,56,0
493616,note_off,,,,,384,0,3,,,,,2,,,63,0
493616,note_on,,,,,0,0,3,,,,,2,,,63,90
493728,note_off,,,,,288,0,1,,,,,0,,,65,0
493728,note_on,,,,,0,0,2,,,,,1,,,58,93
493728,note_off,,,,,288,0,2,,,,,1,,,56,0
493728,note_on,,,,,0,0,1,,,,,0,,,67,109
493824,note_off,,,,,96,0,2,,,,,1,,,58,0
493824,note_on,,,,,0,0,2,,,,,1,,,55,93
493824,note_on,,,,,0,0,1,,,,,0,,,63,109
493824,note_off,,,,,96,0,1,,,,,0,,,67,0
494000,note_off,,,,,384,0,3,,,,,2,,,63,0
494000,note_on,,,,,0,0,3,,,,,2,,,63,90
494208,note_on,,,,,0,0,1,,,,,0,,,67,109
494208,note_on,,,,,0,0,2,,,,,1,,,58,93
494208,note_off,,,,,384,0,1,,,,,0,,,63,0
494208,note_off,,,,,384,0,2,,,,,1,,,55,0
494384,note_on,,,,,0,0,3,,,,,2,,,63,90
494384,note_off,,,,,384,0,3,,,,,2,,,63,0
494592,note_off,,,,,384,0,2,,,,,1,,,58,0
494592,note_on,,,,,0,0,2,,,,,1,,,61,93
494592,note_on,,,,,0,0,1,,,,,0,,,70,109
494592,note_off,,,,,384,0,1,,,,,0,,,67,0
494768,note_off,,,,,384,0,3,,,,,2,,,63,0
494768,note_on,,,,,0,0,3,,,,,2,,,63,90
495152,note_on,,,,,0,0,3,,,,,2,,,63,90
495152,note_off,,,,,384,0,3,,,,,2,,,63,0
495360,note_off,,,,,768,0,1,,,,,0,,,70,0
495360,note_on,,,,,0,0,1,,,,,0,,,68,109
495360,note_on,,,,,0,0,2,,,,,1,,,60,93
495360,note_off,,,,,768,0,2,,,,,1,,,61,0
495536,note_on,,,,,0,0,3,,,,,2,,,63,90
495536,note_off,,,,,384,0,3,,,,,2,,,63,0
495744,note_off,,,,,384,0,2,,,,,1,,,60,0
495744,note_off,,,,,384,0,1,,,,,0,,,68,0
495744,note_on,,,,,0,0,1,,,,,0,,,67,109
495744,note_on,,,,,0,0,2,,,,,1,,,58,93
495920,note_on,,,,,0,0,3,,,,,2,,,63,90
495920,note_off,,,,,384,0,3,,,,,2,,,63,0
496128,note_on,,,,,0,0,1,,,,,0,,,65,109
496128,note_off,,,,,384,0,1,,,,,0,,,67,0
496128,note_on,,,,,0,0,2,,,,,1,,,56,93
496128,note_off,,,,,384,0,2,,,,,1,,,58,0
496304,note_off,,,,,384,0,3,,,,,2,,,63,0
496304,note_on,,,,,0,0,3,,,,,2,,,63,90
496320,note_off,,,,,192,0,1,,,,,0,,,65,0
496320,note_on,,,,,0,0,1,,,,,0,,,67,109
496320,note_off,,,,,192,0,2,,,,,1,,,56,0
496320,note_on,,,,,0,0,2,,,,,1,,,58,93
496512,note_off,,,,,192,0,1,,,,,0,,,67,0
496512,note_on,,,,,0,0,1,,,,,0,,,65,109
496512,note_off,,,,,192,0,2,,,,,1,,,58,0
496512,note_on,,,,,0,0,2,,,,,1,,,56,93
496688,note_off,,,,,384,0,3,,,,,2,,,63,0
496688,note_on,,,,,0,0,3,,,,,2,,,63,90
496704,note_on,,,,,0,0,1,,,,,0,,,67,109
496704,note_off,,,,,192,0,2,,,,,1,,,56,0
496704,note_off,,,,,192,0,1,,,,,0,,,65,0
496704,note_on,,,,,0,0,2,,,,,1,,,58,93
496896,note_on,,,,,0,0,2,,,,,1,,,55,93
496896,note_off,,,,,192,0,2,,,,,1,,,58,0
496896,note_on,,,,,0,0,1,,,,,0,,,63,109
496896,note_off,,,,,192,0,1,,,,,0,,,67,0
497072,note_off,,,,,384,0,3,,,,,2,,,63,0
497072,note_on,,,,,0,0,3,,,,,2,,,63,90
497280,note_off,,,,,384,0,1,,,,,0,,,63,0
497280,note_off,,,,,384,0,2,,,,,1,,,55,0
497456,note_off,,,,,384,0,3,,,,,2,,,63,0
497456,note_on,,,,,0,0,3,,,,,2,,,63,90
497664,note_on,,,,,384,0,1,,,,,0,,,70,109
497664,note_on,,,,,384,0,2,,,,,1,,,58,93
497664,note_on,,,,,7296,0,4,,,,,3,,,49,90
497840,note_off,,,,,384,0,3,,,,,2,,,63,0
497840,note_on,,,,,0,0,3,,,,,2,,,63,90
498224,note_on,,,,,0,0,3,,,,,2,,,63,90
498224,note_off,,,,,384,0,3,,,,,2,,,63,0
498608,note_on,,,,,0,0,3,,,,,2,,,63,90
498608,note_off,,,,,384,0,3,,,,,2,,,63,0
498992,note_on,,,,,0,0,3,,,,,2,,,63,90
498992,note_off,,,,,384,0,3,,,,,2,,,63,0
499200,note_on,,,,,0,0,4,,,,,3,,,48,90
499200,note_on,,,,,0,0,2,,,,,1,,,56,93
499200,note_off,,,,,1536,0,1,,,,,0,,,70,0
499200,note_on,,,,,0,0,1,,,,,0,,,68,109
499200,note_off,,,,,1536,0,4,,,,,3,,,49,0
499200,note_off,,,,,1536,0,2,,,,,1,,,58,0
499376,note_off,,,,,384,0,3,,,,,2,,,63,0
499376,note_on,,,,,0,0,3,,,,,2,,,63,90
499760,note_on,,,,,0,0,3,,,,,2,,,63,90
499760,note_off,,,,,384,0,3,,,,,2,,,63,0
499968,note_on,,,,,0,0,2,,,,,1,,,60,93
499968,note_off,,,,,768,0,4,,,,,3,,,48,0
499968,note_on,,,,,0,0,4,,,,,3,,,44,90
499968,note_off,,,,,768,0,1,,,,,0,,,68,0
499968,note_on,,,,,0,0,1,,,,,0,,,72,109
499968,note_off,,,,,768,0,2,,,,,1,,,56,0
500144,note_on,,,,,0,0,3,,,,,2,,,63,90
500144,note_off,,,,,384,0,3,,,,,2,,,63,0
500528,note_on,,,,,0,0,3,,,,,2,,,63,90
500528,note_off,,,,,384,0,3,,,,,2,,,63,0
500720,note_off,,,,,192,0,3,,,,,2,,,63,0
500720,note_on,,,,,0,0,3,,,,,2,,,58,90
500736,note_on,,,,,0,0,4,,,,,3,,,46,90
500736,note_off,,,,,768,0,4,,,,,3,,,44,0
500736,note_on,,,,,0,0,2,,,,,1,,,63,93
500736,note_off,,,,,768,0,1,,,,,0,,,72,0
500736,note_on,,,,,0,0,1,,,,,0,,,67,109
500736,note_off,,,,,768,0,2,,,,,1,,,60,0
502256,note_off,,,,,1536,0,3,,,,,2,,,58,0
502256,note_on,,,,,0,0,3,,,,,2,,,56,90
502272,note_on,,,,,0,0,2,,,,,1,,,62,93
502272,note_on,,,,,0,0,1,,,,,0,,,65,109
502272,note_off,,,,,1536,0,1,,,,,0,,,67,0
502272,note_off,,,,,1536,0,2,,,,,1,,,63,0
503792,note_off,,,,,1536,0,3,,,,,2,,,56,0
503792,note_on,,,,,0,0,3,,,,,2,,,55,90
503808,note_on,,,,,0,0,1,,,,,0,,,63,109
503808,note_off,,,,,1536,0,1,,,,,0,,,65,0
503808,note_on,,,,,0,0,2,,,,,1,,,63,93
503808,note_off,,,,,1536,0,2,,,,,1,,,62,0
503808,note_on,,,,,0,0,4,,,,,3,,,39,90
503808,note_off,,,,,3072,0,4,,,,,3,,,46,0
504176,note_off,,,,,384,0,3,,,,,2,,,55,0
504176,note_on,,,,,0,0,3,,,,,2,,,58,90
504192,note_off,,,,,384,0,4,,,,,3,,,39,0
504192,note_off,,,,,384,0,2,,,,,1,,,63,0
504192,note_on,,,,,0,0,2,,,,,1,,,58,93
504192,note_on,,,,,0,0,4,,,,,3,,,46,90
504192,note_off,,,,,384,0,1,,,,,0,,,63,0
504192,note_on,,,,,0,0,1,,,,,0,,,70,109
504304,note_off,,,,,128,0,3,,,,,2,,,58,0
504304,note_on,,,,,0,0,3,,,,,2,,,60,90
504320,note_on,,,,,0,0,4,,,,,3,,,48,90
504320,note_off,,,,,128,0,4,,,,,3,,,46,0
504320,note_on,,,,,0,0,1,,,,,0,,,72,109
504320,note_off,,,,,128,0,2,,,,,1,,,58,0
504320,note_on,,,,,0,0,2,,,,,1,,,60,93
504320,note_off,,,,,128,0,1,,,,,0,,,70,0
504432,note_off,,,,,128,0,3,,,,,2,,,60,0
504432,note_on,,,,,0,0,3,,,,,2,,,62,90
504448,note_on,,,,,0,0,4,,,,,3,,,50,90
504448,note_off,,,,,128,0,4,,,,,3,,,48,0
504448,note_on,,,,,0,0,1,,,,,0,,,74,109
504448,note_off,,,,,128,0,1,,,,,0,,,72,0
504448,note_on,,,,,0,0,2,,,,,1,,,62,93
504448,note_off,,,,,128,0,2,,,,,1,,,60,0
504560,note_off,,,,,128,0,3,,,,,2,,,62,0
504560,note_on,,,,,0,0,3,,,,,2,,,63,90
504576,note_on,,,,,0,0,2,,,,,1,,,63,93
504576,note_off,,,,,128,0,2,,,,,1,,,62,0
504576,note_on,,,,,0,0,1,,,,,0,,,75,109
504576,note_off,,,,,128,0,1,,,,,0,,,74,0
504576,note_on,,,,,0,0,4,,,,,3,,,51,90
504576,note_off,,,,,128,0,4,,,,,3,,,50,0
504944,note_on,,,,,0,0,3,,,,,2,,,58,90
504944,note_on,,,,,0,0,3,,,,,2,,,65,90
504944,note_off,,,,,384,0,3,,,,,2,,,63,0
504960,note_off,,,,,384,0,1,,,,,0,,,75,0
504960,note_off,,,,,384,0,4,,,,,3,,,51,0
504960,note_on,,,,,0,0,2,,,,,1,,,58,93
504960,note_on,,,,,0,0,4,,,,,3,,,58,90
504960,note_on,,,,,0,0,1,,,,,0,,,62,109
504960,note_on,,,,,0,0,2,,,,,1,,,65,93
504960,note_on,,,,,0,0,1,,,,,0,,,77,109
504960,note_on,,,,,0,0,2,,,,,1,,,74,93
504960,note_off,,,,,384,0,2,,,,,1,,,63,0
504960,note_on,,,,,0,0,1,,,,,0,,,70,109
505328,note_off,,,,,384,0,3,,,,,2,,,65,0
505328,note_off,,,,,0,0,3,,,,,2,,,58,0
505328,note_on,,,,,0,0,3,,,,,2,,,51,90
505328,note_on,,,,,0,0,3,,,,,2,,,58,90
505328,note_on,,,,,0,0,3,,,,,2,,,67,90
505344,note_on,,,,,0,0,2,,,,,1,,,67,93
505344,note_off,,,,,0,0,2,,,,,1,,,74,0
505344,note_off,,,,,0,0,2,,,,,1,,,58,0
505344,note_on,,,,,0,0,2,,,,,1,,,58,93
505344,note_on,,,,,0,0,2,,,,,1,,,75,93
505344,note_off,,,,,384,0,2,,,,,1,,,65,0
505344,note_on,,,,,0,0,1,,,,,0,,,79,109
505344,note_on,,,,,0,0,1,,,,,0,,,70,109
505344,note_on,,,,,0,0,1,,,,,0,,,63,109
505344,note_on,,,,,0,0,4,,,,,3,,,51,90
505344,note_off,,,,,384,0,4,,,,,3,,,58,0
505344,note_off,,,,,384,0,1,,,,,0,,,62,0
505344,note_off,,,,,0,0,1,,,,,0,,,70,0
505344,note_off,,,,,0,0,1,,,,,0,,,77,0
505712,note_off,,,,,0,0,3,,,,,2,,,58,0
505712,note_off,,,,,0,0,3,,,,,2,,,67,0
505712,note_on,,,,,0,0,3,,,,,2,,,58,90
505712,note_off,,,,,384,0,3,,,,,2,,,51,0
505728,note_on,,,,,0,0,2,,,,,1,,,58,93
505728,note_on,,,,,0,0,1,,,,,0,,,70,109
505728,note_off,,,,,384,0,1,,,,,0,,,63,0
505728,note_off,,,,,0,0,1,,,,,0,,,79,0
505728,note_on,,,,,0,0,4,,,,,3,,,46,90
505728,note_off,,,,,0,0,2,,,,,1,,,75,0
505728,note_off,,,,,0,0,2,,,,,1,,,67,0
505728,note_off,,,,,384,0,4,,,,,3,,,51,0
505728,note_off,,,,,384,0,2,,,,,1,,,58,0
505728,note_off,,,,,0,0,1,,,,,0,,,70,0
505840,note_off,,,,,128,0,3,,,,,2,,,58,0
505840,note_on,,,,,0,0,3,,,,,2,,,60,90
505856,note_off,,,,,128,0,4,,,,,3,,,46,0
505856,note_on,,,,,0,0,4,,,,,3,,,48,90
505856,note_on,,,,,0,0,2,,,,,1,,,60,93
505856,note_off,,,,,128,0,2,,,,,1,,,58,0
505856,note_off,,,,,128,0,1,,,,,0,,,70,0
505856,note_on,,,,,0,0,1,,,,,0,,,72,109
505968,note_on,,,,,0,0,3,,,,,2,,,62,90
505968,note_off,,,,,128,0,3,,,,,2,,,60,0
505984,note_on,,,,,0,0,4,,,,,3,,,50,90
505984,note_on,,,,,0,0,2,,,,,1,,,62,93
505984,note_on,,,,,0,0,1,,,,,0,,,74,109
505984,note_off,,,,,128,0,1,,,,,0,,,72,0
505984,note_off,,,,,128,0,4,,,,,3,,,48,0
505984,note_off,,,,,128,0,2,,,,,1,,,60,0
506096,note_off,,,,,128,0,3,,,,,2,,,62,0
506096,note_on,,,,,0,0,3,,,,,2,,,63,90
506112,note_on,,,,,0,0,4,,,,,3,,,51,90
506112,note_on,,,,,0,0,2,,,,,1,,,63,93
506112,note_off,,,,,128,0,2,,,,,1,,,62,0
506112,note_off,,,,,128,0,4,,,,,3,,,50,0
506112,note_off,,,,,128,0,1,,,,,0,,,74,0
506112,note_on,,,,,0,0,1,,,,,0,,,75,109
506480,note_off,,,,,384,0,3,,,,,2,,,63,0
506480,note_on,,,,,0,0,3,,,,,2,,,58,90
506480,note_on,,,,,0,0,3,,,,,2,,,65,90
506480,note_on,,,,,0,0,3,,,,,2,,,70,90
506496,note_on,,,,,0,0,2,,,,,1,,,70,93
506496,note_on,,,,,0,0,2,,,,,1,,,62,93
506496,note_off,,,,,384,0,2,,,,,1,,,63,0
506496,note_on,,,,,0,0,2,,,,,1,,,77,93
506496,note_off,,,,,384,0,1,,,,,0,,,75,0
506496,note_on,,,,,0,0,4,,,,,3,,,58,90
506496,note_off,,,,,384,0,4,,,,,3,,,51,0
506496,note_on,,,,,0,0,1,,,,,0,,,62,109
506496,note_on,,,,,0,0,1,,,,,0,,,70,109
506496,note_on,,,,,0,0,1,,,,,0,,,82,109
506864,note_off,,,,,0,0,3,,,,,2,,,70,0
506864,note_off,,,,,384,0,3,,,,,2,,,58,0
506864,note_on,,,,,0,0,3,,,,,2,,,51,90
506864,note_on,,,,,0,0,3,,,,,2,,,58,90
506864,note_on,,,,,0,0,3,,,,,2,,,67,90
506864,note_off,,,,,0,0,3,,,,,2,,,65,0
506880,note_on,,,,,0,0,2,,,,,1,,,70,93
506880,note_on,,,,,0,0,2,,,,,1,,,63,93
506880,note_off,,,,,0,0,2,,,,,1,,,77,0
506880,note_off,,,,,0,0,2,,,,,1,,,70,0
506880,note_off,,,,,384,0,2,,,,,1,,,62,0
506880,note_on,,,,,0,0,1,,,,,0,,,63,109
506880,note_on,,,,,0,0,2,,,,,1,,,79,93
506880,note_on,,,,,0,0,1,,,,,0,,,79,109
506880,note_on,,,,,0,0,1,,,,,0,,,70,109
506880,note_off,,,,,0,0,1,,,,,0,,,82,0
506880,note_off,,,,,0,0,1,,,,,0,,,70,0
506880,note_off,,,,,384,0,1,,,,,0,,,62,0
506880,note_on,,,,,0,0,4,,,,,3,,,51,90
506880,note_off,,,,,384,0,4,,,,,3,,,58,0
507248,note_off,,,,,384,0,3,,,,,2,,,51,0
507248,note_off,,,,,0,0,3,,,,,2,,,58,0
507248,note_off,,,,,0,0,3,,,,,2,,,67,0
507264,note_off,,,,,384,0,4,,,,,3,,,51,0
507264,note_off,,,,,0,0,1,,,,,0,,,70,0
507264,note_off,,,,,0,0,1,,,,,0,,,79,0
507264,note_off,,,,,0,0,2,,,,,1,,,79,0
507264,note_off,,,,,0,0,2,,,,,1,,,70,0
507264,note_off,,,,,384,0,2,,,,,1,,,63,0
507264,note_off,,,,,384,0,1,,,,,0,,,63,0
507632,note_on,,,,,0,0,3,,,,,2,,,63,90
507632,note_on,,,,,0,0,3,,,,,2,,,58,90
507632,note_on,,,,,384,0,3,,,,,2,,,51,90
507648,note_on,,,,,0,0,2,,,,,1,,,63,93
507648,note_on,,,,,0,0,2,,,,,1,,,75,93
507648,note_on,,,,,384,0,1,,,,,0,,,55,109
507648,note_on,,,,,0,0,1,,,,,0,,,63,109
507648,note_on,,,,,0,0,1,,,,,0,,,75,109
507648,note_on,,,,,384,0,4,,,,,3,,,39,90
507648,note_on,,,,,384,0,2,,,,,1,,,55,93
508016,note_off,,,,,0,0,3,,,,,2,,,58,0
508016,note_off,,,,,0,0,3,,,,,2,,,63,0
508016,note_off,,,,,384,0,3,,,,,2,,,51,0
508032,note_off,,,,,384,0,4,,,,,3,,,39,0
508032,note_off,,,,,0,0,1,,,,,0,,,75,0
508032,note_off,,,,,0,0,1,,,,,0,,,63,0
508032,note_off,,,,,384,0,1,,,,,0,,,55,0
508032,note_off,,,,,0,0,2,,,,,1,,,63,0
508032,note_off,,,,,384,0,2,,,,,1,,,55,0
508032,note_off,,,,,0,0,2,,,,,1,,,75,0
508400,note_on,,,,,384,0,3,,,,,2,,,51,90
508400,note_on,,,,,0,0,3,,,,,2,,,58,90
508400,note_on,,,,,0,0,3,,,,,2,,,63,90
508416,note_on,,,,,0,0,1,,,,,0,,,63,109
508416,note_on,,,,,384,0,1,,,,,0,,,55,109
508416,note_on,,,,,0,0,2,,,,,1,,,75,93
508416,note_on,,,,,0,0,2,,,,,1,,,63,93
508416,note_on,,,,,384,0,2,,,,,1,,,55,93
508416,note_on,,,,,384,0,4,,,,,3,,,39,90
508416,note_on,,,,,0,0,1,,,,,0,,,75,109
508784,note_off,,,,,0,0,3,,,,,2,,,63,0
508784,end_of_track,,,,,0,1,3,,,,,,,,,
508784,note_off,,,,,384,0,3,,,,,2,,,51,0
508784,note_off,,,,,0,0,3,,,,,2,,,58,0
508800,note_off,,,,,384,0,2,,,,,1,,,55,0
508800,end_of_track,,,,,0,1,4,,,,,,,,,
508800,note_off,,,,,384,0,4,,,,,3,,,39,0
508800,note_off,,,,,384,0,1,,,,,0,,,55,0
508800,note_off,,,,,0,0,1,,,,,0,,,63,0
508800,note_off,,,,,0,0,1,,,,,0,,,75,0
508800,end_of_track,,,,,0,1,1,,,,,,,,,
508800,end_of_track,,,,,0,1,2,,,,,,,,,
508800,note_off,,,,,0,0,2,,,,,1,,,63,0
508800,note_off,,,,,0,0,2,,,,,1,,,75,0
