tick,type,numerator,denominator,clocks_per_click,notated_32nd_notes_per_beat,time,meta,track,data,tempo,control,value,channel,program,key,note,velocity
0,time_signature,2,4,96,8,0,1,0,,,,,,,,,
0,control_change,,,,,0,0,2,,,10,51,1,,,,
0,program_change,,,,,0,0,2,,,,,1,40,,,
0,key_signature,,,,,0,1,2,,,,,,,C,,
0,note_on,,,,,0,0,2,,,,,1,,,61,90
0,key_signature,,,,,0,1,6,,,,,,,C,,
0,track_name,,,,,0,1,3,,,,,,,,,
0,control_change,,,,,0,0,3,,,0,0,2,,,,
0,control_change,,,,,0,0,3,,,10,67,2,,,,
0,program_change,,,,,0,0,3,,,,,2,41,,,
0,key_signature,,,,,0,1,3,,,,,,,C,,
0,note_on,,,,,0,0,3,,,,,2,,,57,81
0,track_name,,,,,0,1,4,,,,,,,,,
0,control_change,,,,,0,0,4,,,0,0,3,,,,
0,control_change,,,,,0,0,4,,,10,94,3,,,,
0,program_change,,,,,0,0,4,,,,,3,42,,,
0,key_signature,,,,,0,1,4,,,,,,,C,,
0,note_on,,,,,0,0,4,,,,,3,,,57,78
0,key_signature,,,,,0,1,5,,,,,,,C,,
0,end_of_track,,,,,0,1,5,,,,,,,,,
0,control_change,,,,,0,0,2,,,0,0,1,,,,
0,track_name,,,,,0,1,2,,,,,,,,,
0,end_of_track,,,,,0,1,6,,,,,,,,,
0,sequencer_specific,,,,,0,1,0,"(0, 0, 65)",,,,,,,,
0,key_signature,,,,,0,1,1,,,,,,,C,,
0,program_change,,,,,0,0,1,,,,,0,40,,,
0,control_change,,,,,0,0,1,,,10,42,0,,,,
0,control_change,,,,,0,0,1,,,0,0,0,,,,
0,end_of_track,,,,,0,1,0,,,,,,,,,
0,track_name,,,,,0,1,1,,,,,,,,,
0,note_on,,,,,0,0,1,,,,,0,,,76,106
0,set_tempo,,,,,0,1,0,,1304347,,,,,,,
288,note_off,,,,,288,0,3,,,,,2,,,57,0
288,note_off,,,,,288,0,1,,,,,0,,,76,0
288,note_on,,,,,0,0,1,,,,,0,,,74,106
288,note_off,,,,,288,0,2,,,,,1,,,61,0
288,note_on,,,,,0,0,2,,,,,1,,,62,90
288,note_on,,,,,0,0,3,,,,,2,,,59,81
384,note_off,,,,,96,0,3,,,,,2,,,59,0
384,note_on,,,,,0,0,3,,,,,2,,,61,81
384,note_on,,,,,0,0,2,,,,,1,,,64,90
384,note_off,,,,,96,0,1,,,,,0,,,74,0
384,note_on,,,,,0,0,1,,,,,0,,,73,106
384,note_off,,,,,96,0,2,,,,,1,,,62,0
528,note_off,,,,,144,0,1,,,,,0,,,73,0
528,note_on,,,,,0,0,1,,,,,0,,,74,106
576,note_off,,,,,192,0,3,,,,,2,,,61,0
576,note_on,,,,,0,0,3,,,,,2,,,62,81
576,note_on,,,,,0,0,2,,,,,1,,,68,90
576,note_off,,,,,192,0,2,,,,,1,,,64,0
576,note_off,,,,,48,0,1,,,,,0,,,74,0
576,note_on,,,,,0,0,1,,,,,0,,,71,106
720,note_off,,,,,144,0,1,,,,,0,,,71,0
720,note_on,,,,,0,0,1,,,,,0,,,73,106
768,note_off,,,,,48,0,1,,,,,0,,,73,0
768,note_on,,,,,0,0,1,,,,,0,,,69,106
768,note_on,,,,,0,0,3,,,,,2,,,61,81
768,note_off,,,,,192,0,3,,,,,2,,,62,0
768,note_on,,,,,0,0,2,,,,,1,,,69,90
768,note_off,,,,,192,0,2,,,,,1,,,68,0
960,note_off,,,,,192,0,3,,,,,2,,,61,0
960,note_off,,,,,192,0,2,,,,,1,,,69,0
960,note_off,,,,,960,0,4,,,,,3,,,57,49
1056,note_off,,,,,288,0,1,,,,,0,,,69,0
1056,note_on,,,,,0,0,1,,,,,0,,,68,106
1152,note_off,,,,,96,0,1,,,,,0,,,68,0
1152,note_on,,,,,0,0,1,,,,,0,,,66,106
1152,note_on,,,,,192,0,3,,,,,2,,,57,81
1152,note_on,,,,,192,0,2,,,,,1,,,62,90
1152,note_on,,,,,192,0,4,,,,,3,,,57,78
1296,note_on,,,,,0,0,1,,,,,0,,,71,106
1296,note_off,,,,,144,0,1,,,,,0,,,66,0
1344,note_off,,,,,192,0,3,,,,,2,,,57,0
1344,note_on,,,,,0,0,1,,,,,0,,,69,106
1344,note_off,,,,,192,0,2,,,,,1,,,62,0
1344,note_off,,,,,48,0,1,,,,,0,,,71,0
1344,note_off,,,,,192,0,4,,,,,3,,,57,0
1488,note_off,,,,,144,0,1,,,,,0,,,69,0
1488,note_on,,,,,0,0,1,,,,,0,,,66,106
1536,note_on,,,,,0,0,1,,,,,0,,,64,106
1536,note_on,,,,,192,0,4,,,,,3,,,57,78
1536,note_on,,,,,192,0,2,,,,,1,,,61,90
1536,note_on,,,,,192,0,3,,,,,2,,,57,81
1536,note_off,,,,,48,0,1,,,,,0,,,66,0
1824,note_off,,,,,288,0,4,,,,,3,,,57,0
1824,note_on,,,,,0,0,4,,,,,3,,,55,78
1920,note_off,,,,,96,0,4,,,,,3,,,55,0
1920,note_on,,,,,0,0,4,,,,,3,,,54,78
1920,note_off,,,,,384,0,1,,,,,0,,,64,0
1920,note_on,,,,,0,0,2,,,,,1,,,62,90
1920,note_off,,,,,384,0,2,,,,,1,,,61,0
1920,note_on,,,,,0,0,1,,,,,0,,,62,106
2064,note_off,,,,,144,0,4,,,,,3,,,54,0
2064,note_on,,,,,0,0,4,,,,,3,,,49,78
2112,note_off,,,,,192,0,1,,,,,0,,,62,0
2112,note_on,,,,,0,0,4,,,,,3,,,50,78
2112,note_off,,,,,48,0,4,,,,,3,,,49,0
2112,note_on,,,,,0,0,1,,,,,0,,,66,106
2208,note_off,,,,,96,0,1,,,,,0,,,66,0
2256,note_on,,,,,0,0,4,,,,,3,,,54,78
2256,note_off,,,,,144,0,4,,,,,3,,,50,0
2304,note_on,,,,,96,0,1,,,,,0,,,64,106
2304,note_on,,,,,0,0,4,,,,,3,,,57,78
2304,note_off,,,,,48,0,4,,,,,3,,,54,0
2304,note_off,,,,,384,0,2,,,,,1,,,62,0
2304,note_off,,,,,768,0,3,,,,,2,,,57,0
2304,note_on,,,,,0,0,2,,,,,1,,,61,90
2304,note_on,,,,,0,0,3,,,,,2,,,57,81
2592,note_on,,,,,0,0,1,,,,,0,,,64,106
2592,note_off,,,,,288,0,1,,,,,0,,,64,0
2640,note_off,,,,,48,0,1,,,,,0,,,64,0
2640,note_on,,,,,0,0,1,,,,,0,,,66,106
2688,note_on,,,,,0,0,1,,,,,0,,,68,106
2688,note_off,,,,,384,0,3,,,,,2,,,57,0
2688,note_off,,,,,384,0,4,,,,,3,,,57,0
2688,note_off,,,,,384,0,2,,,,,1,,,61,0
2688,note_off,,,,,48,0,1,,,,,0,,,66,0
2736,note_off,,,,,48,0,1,,,,,0,,,68,0
2784,note_on,,,,,48,0,1,,,,,0,,,69,106
2832,note_off,,,,,48,0,1,,,,,0,,,69,0
2880,note_on,,,,,48,0,1,,,,,0,,,71,106
2928,note_off,,,,,48,0,1,,,,,0,,,71,0
2976,note_on,,,,,48,0,1,,,,,0,,,73,106
3024,note_off,,,,,48,0,1,,,,,0,,,73,0
3072,note_on,,,,,384,0,4,,,,,3,,,52,78
3072,note_on,,,,,384,0,3,,,,,2,,,56,81
3072,note_on,,,,,48,0,1,,,,,0,,,74,106
3360,note_on,,,,,0,0,4,,,,,3,,,54,78
3360,note_off,,,,,288,0,4,,,,,3,,,52,0
3360,note_on,,,,,0,0,1,,,,,0,,,73,106
3360,note_off,,,,,288,0,1,,,,,0,,,74,0
3360,note_on,,,,,0,0,3,,,,,2,,,57,81
3360,note_off,,,,,288,0,3,,,,,2,,,56,0
3456,note_off,,,,,96,0,1,,,,,0,,,73,0
3456,note_on,,,,,0,0,4,,,,,3,,,56,78
3456,note_off,,,,,96,0,4,,,,,3,,,54,0
3456,note_on,,,,,0,0,1,,,,,0,,,71,106
3456,note_off,,,,,96,0,3,,,,,2,,,57,0
3456,note_on,,,,,0,0,3,,,,,2,,,59,81
3600,note_off,,,,,144,0,1,,,,,0,,,71,0
3600,note_on,,,,,0,0,1,,,,,0,,,73,106
3648,note_off,,,,,192,0,3,,,,,2,,,59,0
3648,note_on,,,,,0,0,3,,,,,2,,,61,81
3648,note_on,,,,,0,0,4,,,,,3,,,57,78
3648,note_off,,,,,192,0,4,,,,,3,,,56,0
3648,note_on,,,,,0,0,1,,,,,0,,,69,106
3648,note_off,,,,,48,0,1,,,,,0,,,73,0
3792,note_off,,,,,144,0,1,,,,,0,,,69,0
3792,note_on,,,,,0,0,1,,,,,0,,,71,106
3840,note_off,,,,,192,0,3,,,,,2,,,61,0
3840,note_on,,,,,0,0,4,,,,,3,,,59,78
3840,note_off,,,,,192,0,4,,,,,3,,,57,0
3840,note_off,,,,,48,0,1,,,,,0,,,71,0
3840,note_on,,,,,0,0,3,,,,,2,,,62,81
3840,note_on,,,,,0,0,1,,,,,0,,,68,106
4032,note_on,,,,,1344,0,2,,,,,1,,,68,90
4032,note_off,,,,,192,0,1,,,,,0,,,68,0
4032,note_on,,,,,0,0,1,,,,,0,,,78,106
4224,note_off,,,,,384,0,3,,,,,2,,,62,0
4224,note_on,,,,,0,0,3,,,,,2,,,64,81
4224,note_on,,,,,0,0,2,,,,,1,,,69,90
4224,note_off,,,,,384,0,4,,,,,3,,,59,0
4224,note_on,,,,,0,0,4,,,,,3,,,61,78
4224,note_off,,,,,192,0,1,,,,,0,,,78,0
4224,note_on,,,,,0,0,1,,,,,0,,,76,106
4224,note_off,,,,,192,0,2,,,,,1,,,68,0
4416,note_off,,,,,192,0,2,,,,,1,,,69,0
4416,note_off,,,,,192,0,1,,,,,0,,,76,0
4416,note_on,,,,,0,0,1,,,,,0,,,81,106
4416,note_on,,,,,0,0,2,,,,,1,,,66,90
4416,note_on,,,,,0,0,4,,,,,3,,,51,78
4416,note_off,,,,,192,0,4,,,,,3,,,61,0
4416,note_on,,,,,0,0,3,,,,,2,,,59,81
4416,note_off,,,,,192,0,3,,,,,2,,,64,0
4608,note_off,,,,,192,0,2,,,,,1,,,66,0
4608,note_on,,,,,0,0,1,,,,,0,,,69,106
4608,note_off,,,,,192,0,1,,,,,0,,,81,0
4608,note_on,,,,,0,0,4,,,,,3,,,52,78
4608,note_off,,,,,192,0,4,,,,,3,,,51,0
4608,note_on,,,,,0,0,2,,,,,1,,,61,90
4608,note_off,,,,,192,0,3,,,,,2,,,59,0
4608,note_on,,,,,0,0,3,,,,,2,,,64,81
4896,note_on,,,,,0,0,1,,,,,0,,,71,106
4896,note_on,,,,,0,0,2,,,,,1,,,62,90
4896,note_off,,,,,288,0,2,,,,,1,,,61,0
4896,note_off,,,,,288,0,1,,,,,0,,,69,0
4944,note_off,,,,,48,0,1,,,,,0,,,71,0
4944,note_on,,,,,0,0,2,,,,,1,,,61,90
4944,note_on,,,,,0,0,1,,,,,0,,,69,106
4944,note_off,,,,,48,0,2,,,,,1,,,62,0
4992,note_on,,,,,0,0,2,,,,,1,,,59,90
4992,note_off,,,,,48,0,1,,,,,0,,,69,0
4992,note_on,,,,,0,0,1,,,,,0,,,68,106
4992,note_off,,,,,48,0,2,,,,,1,,,61,0
5136,note_off,,,,,144,0,1,,,,,0,,,68,0
5136,note_on,,,,,0,0,1,,,,,0,,,69,106
5136,note_off,,,,,144,0,2,,,,,1,,,59,0
5136,note_on,,,,,0,0,2,,,,,1,,,61,90
5184,note_off,,,,,576,0,4,,,,,3,,,52,0
5184,note_on,,,,,0,0,4,,,,,3,,,52,78
5184,note_off,,,,,576,0,3,,,,,2,,,64,0
5184,note_on,,,,,0,0,2,,,,,1,,,64,90
5184,note_on,,,,,0,0,3,,,,,2,,,56,81
5184,note_on,,,,,0,0,1,,,,,0,,,73,106
5184,note_off,,,,,48,0,1,,,,,0,,,69,0
5184,note_off,,,,,48,0,2,,,,,1,,,61,0
5328,note_off,,,,,144,0,2,,,,,1,,,64,0
5328,note_on,,,,,0,0,2,,,,,1,,,62,90
5328,note_off,,,,,144,0,1,,,,,0,,,73,0
5328,note_on,,,,,0,0,1,,,,,0,,,71,106
5376,note_on,,,,,0,0,3,,,,,2,,,56,81
5376,note_off,,,,,192,0,3,,,,,2,,,56,0
5376,note_off,,,,,192,0,4,,,,,3,,,52,0
5376,note_off,,,,,48,0,1,,,,,0,,,71,0
5376,note_on,,,,,0,0,2,,,,,1,,,62,90
5376,note_off,,,,,48,0,2,,,,,1,,,62,0
5376,note_on,,,,,0,0,4,,,,,3,,,52,78
5376,note_on,,,,,0,0,1,,,,,0,,,71,106
5760,note_off,,,,,384,0,3,,,,,2,,,56,0
5760,note_on,,,,,0,0,2,,,,,1,,,61,90
5760,note_off,,,,,384,0,2,,,,,1,,,62,0
5760,note_off,,,,,384,0,4,,,,,3,,,52,0
5760,note_on,,,,,0,0,4,,,,,3,,,45,78
5760,note_on,,,,,0,0,3,,,,,2,,,57,81
5760,note_on,,,,,0,0,1,,,,,0,,,69,106
5760,note_off,,,,,384,0,1,,,,,0,,,71,0
5952,note_off,,,,,192,0,4,,,,,3,,,45,0
5952,note_on,,,,,0,0,1,,,,,0,,,81,106
5952,note_off,,,,,192,0,2,,,,,1,,,61,0
5952,note_off,,,,,192,0,1,,,,,0,,,69,0
5952,note_off,,,,,192,0,3,,,,,2,,,57,0
5984,note_off,,,,,32,0,1,,,,,0,,,81,0
5984,note_on,,,,,0,0,1,,,,,0,,,85,106
6016,note_off,,,,,32,0,1,,,,,0,,,85,0
6016,note_on,,,,,0,0,1,,,,,0,,,83,106
6048,note_on,,,,,0,0,1,,,,,0,,,81,106
6048,note_off,,,,,32,0,1,,,,,0,,,83,0
6080,note_off,,,,,32,0,1,,,,,0,,,81,0
6080,note_on,,,,,0,0,1,,,,,0,,,80,106
6112,note_off,,,,,32,0,1,,,,,0,,,80,0
6112,note_on,,,,,0,0,1,,,,,0,,,78,106
6144,note_off,,,,,32,0,1,,,,,0,,,78,0
6144,note_on,,,,,0,0,1,,,,,0,,,76,106
6432,note_off,,,,,288,0,1,,,,,0,,,76,0
6432,note_on,,,,,0,0,1,,,,,0,,,74,106
6528,note_off,,,,,96,0,1,,,,,0,,,74,0
6528,note_on,,,,,0,0,1,,,,,0,,,73,106
6672,note_off,,,,,144,0,1,,,,,0,,,73,0
6672,note_on,,,,,0,0,1,,,,,0,,,74,106
6720,note_on,,,,,0,0,1,,,,,0,,,71,106
6720,note_off,,,,,48,0,1,,,,,0,,,74,0
6864,note_on,,,,,0,0,1,,,,,0,,,73,106
6864,note_off,,,,,144,0,1,,,,,0,,,71,0
6912,note_on,,,,,960,0,3,,,,,2,,,64,81
6912,note_on,,,,,960,0,4,,,,,3,,,61,78
6912,note_on,,,,,0,0,1,,,,,0,,,69,106
6912,note_off,,,,,48,0,1,,,,,0,,,73,0
7200,note_off,,,,,288,0,4,,,,,3,,,61,0
7200,note_on,,,,,0,0,4,,,,,3,,,59,78
7200,note_off,,,,,288,0,3,,,,,2,,,64,0
7200,note_on,,,,,0,0,3,,,,,2,,,62,81
7296,note_on,,,,,0,0,3,,,,,2,,,61,81
7296,note_off,,,,,96,0,3,,,,,2,,,62,0
7296,note_off,,,,,384,0,1,,,,,0,,,69,0
7296,note_on,,,,,0,0,4,,,,,3,,,57,78
7296,note_off,,,,,96,0,4,,,,,3,,,59,0
7440,note_on,,,,,0,0,3,,,,,2,,,62,81
7440,note_off,,,,,144,0,3,,,,,2,,,61,0
7440,note_on,,,,,0,0,4,,,,,3,,,59,78
7440,note_off,,,,,144,0,4,,,,,3,,,57,0
7488,note_off,,,,,48,0,3,,,,,2,,,62,0
7488,note_on,,,,,0,0,4,,,,,3,,,52,78
7488,note_off,,,,,48,0,4,,,,,3,,,59,0
7488,note_on,,,,,0,0,3,,,,,2,,,59,81
7632,note_on,,,,,0,0,4,,,,,3,,,57,78
7632,note_off,,,,,144,0,4,,,,,3,,,52,0
7632,note_on,,,,,0,0,3,,,,,2,,,61,81
7632,note_off,,,,,144,0,3,,,,,2,,,59,0
7680,note_on,,,,,0,0,3,,,,,2,,,57,81
7680,note_on,,,,,0,0,4,,,,,3,,,49,78
7680,note_off,,,,,48,0,4,,,,,3,,,57,0
7680,note_on,,,,,384,0,1,,,,,0,,,76,106
7680,note_off,,,,,48,0,3,,,,,2,,,61,0
7968,note_off,,,,,288,0,1,,,,,0,,,76,0
7968,note_on,,,,,0,0,1,,,,,0,,,77,106
8064,note_off,,,,,96,0,1,,,,,0,,,77,0
8064,note_on,,,,,0,0,1,,,,,0,,,78,106
8064,note_on,,,,,0,0,4,,,,,3,,,50,78
8064,note_off,,,,,384,0,4,,,,,3,,,49,0
8208,note_on,,,,,0,0,1,,,,,0,,,83,106
8208,note_off,,,,,144,0,1,,,,,0,,,78,0
8256,note_off,,,,,48,0,1,,,,,0,,,83,0
8256,note_on,,,,,0,0,1,,,,,0,,,81,106
8256,note_off,,,,,192,0,4,,,,,3,,,50,0
8256,note_on,,,,,0,0,4,,,,,3,,,54,78
8400,note_off,,,,,144,0,1,,,,,0,,,81,0
8400,note_on,,,,,0,0,1,,,,,0,,,78,106
8448,note_on,,,,,0,0,4,,,,,3,,,57,78
8448,note_off,,,,,48,0,1,,,,,0,,,78,0
8448,note_on,,,,,0,0,1,,,,,0,,,76,106
8448,note_off,,,,,192,0,4,,,,,3,,,54,0
8448,note_off,,,,,768,0,3,,,,,2,,,57,0
8448,note_on,,,,,0,0,3,,,,,2,,,61,81
8544,note_off,,,,,96,0,4,,,,,3,,,57,0
8544,note_off,,,,,96,0,3,,,,,2,,,61,0
8640,note_on,,,,,96,0,4,,,,,3,,,57,78
8640,note_on,,,,,96,0,3,,,,,2,,,61,81
8736,note_off,,,,,288,0,1,,,,,0,,,76,0
8736,note_on,,,,,0,0,1,,,,,0,,,74,106
8768,note_on,,,,,0,0,1,,,,,0,,,73,106
8768,note_off,,,,,32,0,1,,,,,0,,,74,0
8784,note_off,,,,,144,0,4,,,,,3,,,57,0
8784,note_on,,,,,0,0,4,,,,,3,,,59,78
8784,note_off,,,,,144,0,3,,,,,2,,,61,0
8784,note_on,,,,,0,0,3,,,,,2,,,62,81
8800,note_on,,,,,0,0,1,,,,,0,,,71,106
8800,note_off,,,,,32,0,1,,,,,0,,,73,0
8832,note_on,,,,,0,0,4,,,,,3,,,61,78
8832,note_on,,,,,0,0,1,,,,,0,,,70,106
8832,note_off,,,,,32,0,1,,,,,0,,,71,0
8832,note_on,,,,,0,0,3,,,,,2,,,64,81
8832,note_off,,,,,48,0,3,,,,,2,,,62,0
8832,note_off,,,,,48,0,4,,,,,3,,,59,0
9024,note_off,,,,,192,0,1,,,,,0,,,70,0
9024,note_on,,,,,3072,0,2,,,,,1,,,70,90
9024,note_on,,,,,0,0,1,,,,,0,,,79,106
9168,note_off,,,,,144,0,1,,,,,0,,,79,0
9168,note_on,,,,,0,0,1,,,,,0,,,78,106
9216,note_off,,,,,48,0,1,,,,,0,,,78,0
9216,note_on,,,,,0,0,1,,,,,0,,,78,106
9216,note_on,,,,,0,0,3,,,,,2,,,66,81
9216,note_on,,,,,0,0,4,,,,,3,,,62,78
9216,note_off,,,,,384,0,4,,,,,3,,,61,0
9216,note_on,,,,,0,0,2,,,,,1,,,71,90
9216,note_off,,,,,384,0,3,,,,,2,,,64,0
9216,note_off,,,,,192,0,2,,,,,1,,,70,0
9408,note_off,,,,,192,0,4,,,,,3,,,62,0
9408,note_off,,,,,192,0,2,,,,,1,,,71,0
9408,note_off,,,,,192,0,3,,,,,2,,,66,0
9504,note_off,,,,,288,0,1,,,,,0,,,78,0
9504,note_on,,,,,0,0,1,,,,,0,,,76,106
9600,note_off,,,,,96,0,1,,,,,0,,,76,0
9600,note_on,,,,,0,0,1,,,,,0,,,74,106
9744,note_off,,,,,144,0,1,,,,,0,,,74,0
9744,note_on,,,,,0,0,1,,,,,0,,,76,106
9792,note_off,,,,,48,0,1,,,,,0,,,76,0
9792,note_on,,,,,0,0,1,,,,,0,,,73,106
9936,note_off,,,,,144,0,1,,,,,0,,,73,0
9936,note_on,,,,,0,0,1,,,,,0,,,74,106
9984,note_on,,,,,576,0,3,,,,,2,,,66,81
9984,note_off,,,,,48,0,1,,,,,0,,,74,0
9984,note_on,,,,,576,0,4,,,,,3,,,62,78
9984,note_on,,,,,0,0,1,,,,,0,,,71,106
10272,note_on,,,,,0,0,3,,,,,2,,,64,81
10272,note_off,,,,,288,0,4,,,,,3,,,62,0
10272,note_on,,,,,0,0,4,,,,,3,,,61,78
10272,note_off,,,,,288,0,3,,,,,2,,,66,0
10368,note_off,,,,,96,0,3,,,,,2,,,64,0
10368,note_off,,,,,384,0,1,,,,,0,,,71,0
10368,note_off,,,,,96,0,4,,,,,3,,,61,0
10368,note_on,,,,,0,0,4,,,,,3,,,59,78
10368,note_on,,,,,0,0,3,,,,,2,,,62,81
10512,note_off,,,,,144,0,3,,,,,2,,,62,0
10512,note_on,,,,,0,0,3,,,,,2,,,64,81
10512,note_off,,,,,144,0,4,,,,,3,,,59,0
10512,note_on,,,,,0,0,4,,,,,3,,,61,78
10560,note_on,,,,,0,0,3,,,,,2,,,61,81
10560,note_off,,,,,48,0,4,,,,,3,,,61,0
10560,note_on,,,,,0,0,4,,,,,3,,,57,78
10560,note_off,,,,,48,0,3,,,,,2,,,64,0
10704,note_off,,,,,144,0,4,,,,,3,,,57,0
10704,note_on,,,,,0,0,4,,,,,3,,,59,78
10704,note_on,,,,,0,0,3,,,,,2,,,62,81
10704,note_off,,,,,144,0,3,,,,,2,,,61,0
10752,note_off,,,,,48,0,3,,,,,2,,,62,0
10752,note_on,,,,,384,0,1,,,,,0,,,86,106
10752,note_off,,,,,48,0,4,,,,,3,,,59,0
10752,note_on,,,,,0,0,4,,,,,3,,,56,78
10752,note_on,,,,,0,0,3,,,,,2,,,59,81
10992,note_off,,,,,240,0,1,,,,,0,,,86,0
10992,note_on,,,,,0,0,1,,,,,0,,,85,106
11040,note_on,,,,,0,0,1,,,,,0,,,83,106
11040,note_off,,,,,48,0,1,,,,,0,,,85,0
11088,note_on,,,,,0,0,1,,,,,0,,,81,106
11088,note_off,,,,,48,0,1,,,,,0,,,83,0
11136,note_off,,,,,48,0,1,,,,,0,,,81,0
11136,note_on,,,,,0,0,1,,,,,0,,,80,106
11136,note_off,,,,,384,0,3,,,,,2,,,59,0
11136,note_on,,,,,0,0,3,,,,,2,,,64,81
11184,note_off,,,,,48,0,1,,,,,0,,,80,0
11232,note_on,,,,,48,0,1,,,,,0,,,78,106
11280,note_off,,,,,48,0,1,,,,,0,,,78,0
11328,note_on,,,,,48,0,1,,,,,0,,,76,106
11376,note_off,,,,,48,0,1,,,,,0,,,76,0
11424,note_on,,,,,48,0,1,,,,,0,,,74,106
11472,note_off,,,,,48,0,1,,,,,0,,,74,0
11520,note_on,,,,,0,0,3,,,,,2,,,64,81
11520,note_on,,,,,48,0,1,,,,,0,,,73,106
11520,note_on,,,,,0,0,4,,,,,3,,,57,78
11520,note_off,,,,,768,0,4,,,,,3,,,56,0
11520,note_off,,,,,384,0,3,,,,,2,,,64,0
11616,note_off,,,,,96,0,1,,,,,0,,,73,0
11616,note_off,,,,,96,0,4,,,,,3,,,57,0
11616,note_off,,,,,96,0,3,,,,,2,,,64,0
11712,note_on,,,,,96,0,4,,,,,3,,,58,78
11712,note_on,,,,,2304,0,2,,,,,1,,,67,90
11712,note_on,,,,,96,0,1,,,,,0,,,76,106
11712,note_on,,,,,96,0,3,,,,,2,,,61,81
11904,note_on,,,,,0,0,2,,,,,1,,,66,90
11904,note_off,,,,,192,0,2,,,,,1,,,67,0
11904,note_on,,,,,0,0,3,,,,,2,,,62,81
11904,note_off,,,,,192,0,4,,,,,3,,,58,0
11904,note_on,,,,,0,0,4,,,,,3,,,59,78
11904,note_on,,,,,0,0,1,,,,,0,,,74,106
11904,note_off,,,,,192,0,1,,,,,0,,,76,0
11904,note_off,,,,,192,0,3,,,,,2,,,61,0
12096,note_off,,,,,192,0,4,,,,,3,,,59,0
12096,note_on,,,,,0,0,4,,,,,3,,,60,78
12096,note_on,,,,,0,0,3,,,,,2,,,63,81
12096,note_off,,,,,192,0,1,,,,,0,,,74,0
12096,note_off,,,,,192,0,2,,,,,1,,,66,0
12096,note_on,,,,,0,0,2,,,,,1,,,69,90
12096,note_off,,,,,192,0,3,,,,,2,,,62,0
12096,note_on,,,,,0,0,1,,,,,0,,,78,106
12288,note_on,,,,,0,0,1,,,,,0,,,76,106
12288,note_off,,,,,192,0,1,,,,,0,,,78,0
12288,note_on,,,,,0,0,3,,,,,2,,,64,81
12288,note_off,,,,,192,0,4,,,,,3,,,60,0
12288,note_off,,,,,192,0,3,,,,,2,,,63,0
12288,note_on,,,,,0,0,4,,,,,3,,,61,78
12480,note_on,,,,,0,0,4,,,,,3,,,61,78
12480,note_off,,,,,192,0,1,,,,,0,,,76,0
12480,note_on,,,,,0,0,1,,,,,0,,,79,106
12480,note_off,,,,,192,0,3,,,,,2,,,64,0
12480,note_on,,,,,0,0,3,,,,,2,,,64,81
12480,note_off,,,,,384,0,2,,,,,1,,,69,57
12480,note_on,,,,,0,0,2,,,,,1,,,70,90
12480,note_off,,,,,192,0,4,,,,,3,,,61,0
12672,note_on,,,,,0,0,3,,,,,2,,,66,81
12672,note_off,,,,,192,0,3,,,,,2,,,64,0
12672,note_off,,,,,192,0,4,,,,,3,,,61,0
12672,note_off,,,,,192,0,2,,,,,1,,,70,0
12672,note_on,,,,,0,0,4,,,,,3,,,62,78
12672,note_on,,,,,0,0,1,,,,,0,,,78,106
12672,note_off,,,,,192,0,1,,,,,0,,,79,0
12672,note_on,,,,,0,0,2,,,,,1,,,71,90
12864,note_on,,,,,0,0,4,,,,,3,,,62,78
12864,note_off,,,,,192,0,4,,,,,3,,,62,0
12864,note_on,,,,,0,0,3,,,,,2,,,66,81
12864,note_off,,,,,192,0,3,,,,,2,,,66,0
12864,note_on,,,,,0,0,2,,,,,1,,,71,90
12864,note_off,,,,,192,0,1,,,,,0,,,78,0
12864,note_on,,,,,0,0,1,,,,,0,,,83,106
12864,note_off,,,,,192,0,2,,,,,1,,,71,0
12960,note_off,,,,,96,0,4,,,,,3,,,62,0
12960,note_off,,,,,96,0,3,,,,,2,,,66,0
13008,note_off,,,,,144,0,1,,,,,0,,,83,0
13008,note_on,,,,,0,0,1,,,,,0,,,81,106
13056,note_on,,,,,0,0,1,,,,,0,,,81,106
13056,note_on,,,,,96,0,3,,,,,2,,,65,81
13056,note_on,,,,,96,0,4,,,,,3,,,62,78
13056,note_off,,,,,48,0,1,,,,,0,,,81,0
13440,note_off,,,,,384,0,1,,,,,0,,,81,0
13440,note_on,,,,,0,0,1,,,,,0,,,80,106
13440,note_on,,,,,0,0,3,,,,,2,,,64,81
13440,note_off,,,,,384,0,3,,,,,2,,,65,0
13632,note_off,,,,,768,0,2,,,,,1,,,71,57
13632,note_off,,,,,192,0,1,,,,,0,,,80,0
13632,note_off,,,,,576,0,4,,,,,3,,,62,0
13632,note_off,,,,,192,0,3,,,,,2,,,64,0
13824,note_on,,,,,192,0,2,,,,,1,,,69,90
13824,note_on,,,,,192,0,4,,,,,3,,,61,78
13824,note_on,,,,,192,0,1,,,,,0,,,81,106
13824,note_on,,,,,192,0,3,,,,,2,,,64,81
14016,note_on,,,,,0,0,4,,,,,3,,,60,78
14016,note_off,,,,,192,0,4,,,,,3,,,61,0
14208,note_on,,,,,0,0,4,,,,,3,,,59,78
14208,note_off,,,,,192,0,4,,,,,3,,,60,0
14304,note_off,,,,,480,0,1,,,,,0,,,81,0
14304,note_on,,,,,0,0,1,,,,,0,,,80,106
14304,note_on,,,,,0,0,2,,,,,1,,,68,90
14304,note_off,,,,,480,0,2,,,,,1,,,69,0
14400,note_on,,,,,0,0,4,,,,,3,,,58,78
14400,note_on,,,,,0,0,2,,,,,1,,,68,90
14400,note_off,,,,,96,0,2,,,,,1,,,68,0
14400,note_off,,,,,96,0,1,,,,,0,,,80,0
14400,note_on,,,,,0,0,1,,,,,0,,,80,106
14400,note_off,,,,,192,0,4,,,,,3,,,59,0
14496,note_off,,,,,96,0,1,,,,,0,,,80,0
14496,note_on,,,,,0,0,1,,,,,0,,,79,106
14496,note_on,,,,,0,0,2,,,,,1,,,67,90
14496,note_off,,,,,96,0,2,,,,,1,,,68,0
14592,note_on,,,,,0,0,1,,,,,0,,,78,106
14592,note_off,,,,,192,0,4,,,,,3,,,58,0
14592,note_on,,,,,0,0,4,,,,,3,,,59,78
14592,note_off,,,,,96,0,2,,,,,1,,,67,0
14592,note_off,,,,,96,0,1,,,,,0,,,79,0
14592,note_on,,,,,0,0,2,,,,,1,,,66,90
14592,note_off,,,,,768,0,3,,,,,2,,,64,0
14592,note_on,,,,,0,0,3,,,,,2,,,64,81
14784,note_on,,,,,0,0,2,,,,,1,,,70,90
14784,note_off,,,,,192,0,2,,,,,1,,,66,0
14784,note_off,,,,,192,0,3,,,,,2,,,64,0
14784,note_on,,,,,0,0,3,,,,,2,,,61,81
14976,note_off,,,,,192,0,2,,,,,1,,,70,0
14976,note_on,,,,,0,0,2,,,,,1,,,71,90
14976,note_off,,,,,192,0,3,,,,,2,,,61,0
14976,note_on,,,,,0,0,3,,,,,2,,,63,81
15072,note_on,,,,,0,0,3,,,,,2,,,65,81
15072,note_off,,,,,96,0,3,,,,,2,,,63,0
15072,note_off,,,,,480,0,1,,,,,0,,,78,0
15072,note_on,,,,,0,0,1,,,,,0,,,80,106
15168,note_on,,,,,0,0,3,,,,,2,,,66,81
15168,note_off,,,,,96,0,3,,,,,2,,,65,0
15168,note_off,,,,,96,0,1,,,,,0,,,80,0
15168,note_on,,,,,0,0,1,,,,,0,,,81,106
15232,note_on,,,,,0,0,1,,,,,0,,,78,106
15232,note_off,,,,,64,0,1,,,,,0,,,81,0
15264,note_on,,,,,0,0,2,,,,,1,,,69,90
15264,note_off,,,,,288,0,2,,,,,1,,,71,0
15296,note_off,,,,,64,0,1,,,,,0,,,78,0
15296,note_on,,,,,0,0,1,,,,,0,,,75,106
15360,note_off,,,,,64,0,1,,,,,0,,,75,0
15360,note_off,,,,,768,0,4,,,,,3,,,59,0
15360,note_on,,,,,0,0,4,,,,,3,,,59,78
15360,note_off,,,,,192,0,3,,,,,2,,,66,0
15360,note_on,,,,,0,0,1,,,,,0,,,78,106
15360,note_on,,,,,0,0,3,,,,,2,,,63,81
15360,note_off,,,,,96,0,2,,,,,1,,,69,0
15360,note_on,,,,,0,0,2,,,,,1,,,69,90
15744,note_on,,,,,0,0,3,,,,,2,,,64,81
15744,note_off,,,,,384,0,3,,,,,2,,,63,0
15744,note_off,,,,,384,0,1,,,,,0,,,78,0
15744,note_on,,,,,0,0,1,,,,,0,,,76,106
15744,note_off,,,,,384,0,2,,,,,1,,,69,0
15744,note_on,,,,,0,0,4,,,,,3,,,52,78
15744,note_off,,,,,384,0,4,,,,,3,,,59,0
15744,note_on,,,,,0,0,2,,,,,1,,,68,90
15936,note_off,,,,,192,0,1,,,,,0,,,76,0
15936,note_off,,,,,192,0,2,,,,,1,,,68,0
15936,note_off,,,,,192,0,3,,,,,2,,,64,0
15936,note_off,,,,,192,0,4,,,,,3,,,52,0
16128,note_on,,,,,192,0,4,,,,,3,,,52,78
16192,note_on,,,,,256,0,2,,,,,1,,,59,90
16192,note_on,,,,,256,0,3,,,,,2,,,56,81
16224,note_off,,,,,32,0,2,,,,,1,,,59,0
16224,note_off,,,,,32,0,3,,,,,2,,,56,0
16256,note_on,,,,,32,0,3,,,,,2,,,57,81
16256,note_on,,,,,32,0,2,,,,,1,,,61,90
16288,note_off,,,,,32,0,3,,,,,2,,,57,0
16288,note_off,,,,,32,0,2,,,,,1,,,61,0
16320,note_on,,,,,32,0,2,,,,,1,,,63,90
16320,note_on,,,,,32,0,3,,,,,2,,,59,81
16320,note_off,,,,,192,0,4,,,,,3,,,52,0
16352,note_off,,,,,32,0,3,,,,,2,,,59,0
16352,note_off,,,,,32,0,2,,,,,1,,,63,0
16384,note_on,,,,,32,0,3,,,,,2,,,61,81
16384,note_on,,,,,32,0,2,,,,,1,,,64,90
16416,note_off,,,,,32,0,3,,,,,2,,,61,0
16416,note_off,,,,,32,0,2,,,,,1,,,64,0
16448,note_on,,,,,32,0,3,,,,,2,,,63,81
16448,note_on,,,,,32,0,2,,,,,1,,,66,90
16480,note_off,,,,,32,0,3,,,,,2,,,63,0
16480,note_off,,,,,32,0,2,,,,,1,,,66,0
16512,note_on,,,,,32,0,3,,,,,2,,,64,81
16512,note_on,,,,,32,0,2,,,,,1,,,68,90
16576,note_off,,,,,64,0,3,,,,,2,,,64,0
16576,note_on,,,,,0,0,3,,,,,2,,,66,81
16576,note_on,,,,,0,0,2,,,,,1,,,70,90
16576,note_off,,,,,64,0,2,,,,,1,,,68,0
16640,note_off,,,,,64,0,3,,,,,2,,,66,0
16640,note_off,,,,,64,0,2,,,,,1,,,70,0
16640,note_on,,,,,0,0,2,,,,,1,,,71,90
16640,note_on,,,,,0,0,3,,,,,2,,,68,81
16704,note_off,,,,,64,0,3,,,,,2,,,68,0
16704,note_on,,,,,0,0,3,,,,,2,,,68,81
16704,note_off,,,,,64,0,2,,,,,1,,,71,0
16704,note_on,,,,,0,0,2,,,,,1,,,71,90
16736,note_off,,,,,32,0,3,,,,,2,,,68,0
16736,note_off,,,,,32,0,2,,,,,1,,,71,0
16768,note_on,,,,,32,0,2,,,,,1,,,71,90
16768,note_on,,,,,32,0,3,,,,,2,,,68,81
16800,note_off,,,,,32,0,3,,,,,2,,,68,0
16800,note_off,,,,,32,0,2,,,,,1,,,71,0
16832,note_on,,,,,32,0,3,,,,,2,,,68,81
16832,note_on,,,,,32,0,2,,,,,1,,,71,90
16864,note_off,,,,,32,0,2,,,,,1,,,71,0
16864,note_off,,,,,32,0,3,,,,,2,,,68,0
16896,note_on,,,,,32,0,2,,,,,1,,,71,90
16896,note_on,,,,,576,0,4,,,,,3,,,59,78
16896,note_on,,,,,32,0,3,,,,,2,,,66,81
16896,note_on,,,,,0,0,3,,,,,2,,,69,81
16960,note_on,,,,,1024,0,1,,,,,0,,,75,106
16992,note_off,,,,,32,0,1,,,,,0,,,75,0
17024,note_on,,,,,32,0,1,,,,,0,,,76,106
17056,note_off,,,,,32,0,1,,,,,0,,,76,0
17088,note_off,,,,,192,0,4,,,,,3,,,59,0
17088,note_on,,,,,0,0,4,,,,,3,,,60,78
17088,note_off,,,,,192,0,2,,,,,1,,,71,0
17088,note_on,,,,,32,0,1,,,,,0,,,78,106
17088,note_on,,,,,0,0,2,,,,,1,,,72,90
17120,note_off,,,,,32,0,1,,,,,0,,,78,0
17152,note_on,,,,,32,0,1,,,,,0,,,79,106
17184,note_off,,,,,32,0,1,,,,,0,,,79,0
17216,note_on,,,,,32,0,1,,,,,0,,,80,106
17248,note_off,,,,,32,0,1,,,,,0,,,80,0
17280,note_on,,,,,0,0,2,,,,,1,,,73,90
17280,note_off,,,,,192,0,2,,,,,1,,,72,0
17280,note_off,,,,,192,0,4,,,,,3,,,60,0
17280,note_on,,,,,0,0,4,,,,,3,,,61,78
17280,note_on,,,,,32,0,1,,,,,0,,,81,106
17312,note_off,,,,,32,0,1,,,,,0,,,81,0
17344,note_on,,,,,32,0,1,,,,,0,,,82,106
17376,note_off,,,,,32,0,1,,,,,0,,,82,0
17408,note_on,,,,,32,0,1,,,,,0,,,83,106
17440,note_off,,,,,32,0,1,,,,,0,,,83,0
17472,note_on,,,,,0,0,2,,,,,1,,,71,90
17472,note_off,,,,,192,0,2,,,,,1,,,73,0
17472,note_on,,,,,0,0,4,,,,,3,,,59,78
17472,note_off,,,,,192,0,4,,,,,3,,,61,0
17472,note_on,,,,,32,0,1,,,,,0,,,84,106
17504,note_off,,,,,32,0,1,,,,,0,,,84,0
17536,note_on,,,,,32,0,1,,,,,0,,,85,106
17568,note_off,,,,,32,0,1,,,,,0,,,85,0
17600,note_on,,,,,32,0,1,,,,,0,,,87,106
17632,note_off,,,,,32,0,1,,,,,0,,,87,0
17664,note_on,,,,,0,0,4,,,,,3,,,52,78
17664,note_off,,,,,192,0,2,,,,,1,,,71,0
17664,note_on,,,,,0,0,3,,,,,2,,,64,81
17664,note_off,,,,,0,0,3,,,,,2,,,69,0
17664,note_off,,,,,768,0,3,,,,,2,,,66,0
17664,note_on,,,,,0,0,2,,,,,1,,,68,90
17664,note_off,,,,,192,0,4,,,,,3,,,59,0
17664,note_on,,,,,32,0,1,,,,,0,,,88,106
17696,note_off,,,,,32,0,3,,,,,2,,,64,0
17696,note_off,,,,,32,0,2,,,,,1,,,68,0
17728,note_on,,,,,32,0,3,,,,,2,,,56,81
17728,note_on,,,,,32,0,2,,,,,1,,,59,90
17760,note_off,,,,,32,0,2,,,,,1,,,59,0
17760,note_off,,,,,32,0,3,,,,,2,,,56,0
17792,note_on,,,,,32,0,2,,,,,1,,,61,90
17792,note_on,,,,,32,0,3,,,,,2,,,57,81
17824,note_off,,,,,32,0,2,,,,,1,,,61,0
17824,note_off,,,,,32,0,3,,,,,2,,,57,0
17856,note_on,,,,,32,0,2,,,,,1,,,63,90
17856,note_on,,,,,32,0,3,,,,,2,,,59,81
17856,note_off,,,,,192,0,4,,,,,3,,,52,0
17888,note_off,,,,,32,0,3,,,,,2,,,59,0
17888,note_off,,,,,32,0,2,,,,,1,,,63,0
17920,note_on,,,,,32,0,3,,,,,2,,,61,81
17920,note_on,,,,,32,0,2,,,,,1,,,64,90
17952,note_off,,,,,32,0,2,,,,,1,,,64,0
17952,note_off,,,,,288,0,1,,,,,0,,,88,0
17952,note_on,,,,,0,0,1,,,,,0,,,87,106
17952,note_off,,,,,32,0,3,,,,,2,,,61,0
17984,note_on,,,,,32,0,3,,,,,2,,,63,81
17984,note_on,,,,,32,0,2,,,,,1,,,66,90
18000,note_on,,,,,0,0,1,,,,,0,,,85,106
18000,note_off,,,,,48,0,1,,,,,0,,,87,0
18016,note_off,,,,,32,0,3,,,,,2,,,63,0
18016,note_off,,,,,32,0,2,,,,,1,,,66,0
18048,note_on,,,,,32,0,2,,,,,1,,,68,90
18048,note_on,,,,,0,0,1,,,,,0,,,83,106
18048,note_off,,,,,48,0,1,,,,,0,,,85,0
18048,note_on,,,,,32,0,3,,,,,2,,,64,81
18112,note_off,,,,,64,0,1,,,,,0,,,83,0
18112,note_on,,,,,0,0,1,,,,,0,,,83,106
18112,note_on,,,,,0,0,3,,,,,2,,,66,81
18112,note_off,,,,,64,0,3,,,,,2,,,64,0
18112,note_on,,,,,0,0,2,,,,,1,,,69,90
18112,note_off,,,,,64,0,2,,,,,1,,,68,0
18144,note_off,,,,,32,0,1,,,,,0,,,83,0
18176,note_off,,,,,64,0,3,,,,,2,,,66,0
18176,note_on,,,,,32,0,1,,,,,0,,,83,106
18176,note_off,,,,,64,0,2,,,,,1,,,69,0
18176,note_on,,,,,0,0,2,,,,,1,,,71,90
18176,note_on,,,,,0,0,3,,,,,2,,,68,81
18208,note_off,,,,,32,0,1,,,,,0,,,83,0
18240,note_on,,,,,0,0,2,,,,,1,,,71,90
18240,note_off,,,,,64,0,2,,,,,1,,,71,0
18240,note_on,,,,,32,0,1,,,,,0,,,83,106
18240,note_on,,,,,0,0,3,,,,,2,,,68,81
18240,note_off,,,,,64,0,3,,,,,2,,,68,0
18272,note_off,,,,,32,0,1,,,,,0,,,83,0
18272,note_off,,,,,32,0,3,,,,,2,,,68,0
18272,note_off,,,,,32,0,2,,,,,1,,,71,0
18304,note_on,,,,,32,0,3,,,,,2,,,68,81
18304,note_on,,,,,32,0,2,,,,,1,,,71,90
18304,note_on,,,,,32,0,1,,,,,0,,,83,106
18336,note_off,,,,,32,0,1,,,,,0,,,83,0
18336,note_off,,,,,32,0,3,,,,,2,,,68,0
18336,note_off,,,,,32,0,2,,,,,1,,,71,0
18368,note_on,,,,,32,0,1,,,,,0,,,83,106
18368,note_on,,,,,32,0,2,,,,,1,,,71,90
18368,note_on,,,,,32,0,3,,,,,2,,,68,81
18400,note_off,,,,,32,0,1,,,,,0,,,83,0
18400,note_off,,,,,32,0,3,,,,,2,,,68,0
18400,note_off,,,,,32,0,2,,,,,1,,,71,0
18432,note_on,,,,,32,0,1,,,,,0,,,83,106
18432,note_on,,,,,0,0,3,,,,,2,,,69,81
18432,note_on,,,,,32,0,3,,,,,2,,,66,81
18432,note_on,,,,,32,0,2,,,,,1,,,71,90
18496,note_on,,,,,640,0,4,,,,,3,,,51,78
18528,note_off,,,,,32,0,4,,,,,3,,,51,0
18560,note_on,,,,,32,0,4,,,,,3,,,52,78
18592,note_off,,,,,32,0,4,,,,,3,,,52,0
18624,note_on,,,,,0,0,2,,,,,1,,,72,90
18624,note_on,,,,,0,0,1,,,,,0,,,84,106
18624,note_on,,,,,32,0,4,,,,,3,,,54,78
18624,note_off,,,,,192,0,2,,,,,1,,,71,0
18624,note_off,,,,,192,0,1,,,,,0,,,83,0
18656,note_off,,,,,32,0,4,,,,,3,,,54,0
18688,note_on,,,,,32,0,4,,,,,3,,,55,78
18720,note_off,,,,,32,0,4,,,,,3,,,55,0
18752,note_on,,,,,32,0,4,,,,,3,,,56,78
18784,note_off,,,,,32,0,4,,,,,3,,,56,0
18816,note_on,,,,,32,0,4,,,,,3,,,57,78
18816,note_off,,,,,192,0,2,,,,,1,,,72,0
18816,note_on,,,,,0,0,2,,,,,1,,,73,90
18816,note_on,,,,,0,0,1,,,,,0,,,85,106
18816,note_off,,,,,192,0,1,,,,,0,,,84,0
18848,note_off,,,,,32,0,4,,,,,3,,,57,0
18880,note_on,,,,,32,0,4,,,,,3,,,58,78
18912,note_off,,,,,32,0,4,,,,,3,,,58,0
18944,note_on,,,,,32,0,4,,,,,3,,,59,78
18976,note_off,,,,,32,0,4,,,,,3,,,59,0
19008,note_off,,,,,192,0,1,,,,,0,,,85,0
19008,note_on,,,,,0,0,1,,,,,0,,,83,106
19008,note_on,,,,,32,0,4,,,,,3,,,60,78
19008,note_on,,,,,0,0,2,,,,,1,,,71,90
19008,note_off,,,,,192,0,2,,,,,1,,,73,0
19040,note_off,,,,,32,0,4,,,,,3,,,60,0
19072,note_on,,,,,32,0,4,,,,,3,,,61,78
19072,note_on,,,,,0,0,1,,,,,0,,,81,106
19072,note_off,,,,,64,0,1,,,,,0,,,83,0
19104,note_on,,,,,0,0,2,,,,,1,,,69,90
19104,note_off,,,,,96,0,2,,,,,1,,,71,0
19104,note_off,,,,,32,0,4,,,,,3,,,61,0
19136,note_on,,,,,0,0,1,,,,,0,,,78,106
19136,note_off,,,,,64,0,1,,,,,0,,,81,0
19136,note_on,,,,,32,0,4,,,,,3,,,63,78
19168,note_on,,,,,0,0,1,,,,,0,,,78,106
19168,note_off,,,,,32,0,1,,,,,0,,,78,0
19168,note_off,,,,,32,0,4,,,,,3,,,63,0
19200,note_off,,,,,0,0,3,,,,,2,,,69,0
19200,note_off,,,,,32,0,1,,,,,0,,,78,0
19200,note_off,,,,,768,0,3,,,,,2,,,66,0
19200,note_on,,,,,0,0,1,,,,,0,,,76,106
19200,note_on,,,,,0,0,2,,,,,1,,,68,90
19200,note_off,,,,,96,0,2,,,,,1,,,69,0
19200,note_on,,,,,32,0,4,,,,,3,,,64,78
19200,note_on,,,,,0,0,3,,,,,2,,,64,81
19232,note_on,,,,,0,0,1,,,,,0,,,75,106
19232,note_off,,,,,32,0,1,,,,,0,,,76,0
19232,note_off,,,,,32,0,2,,,,,1,,,68,0
19232,note_off,,,,,32,0,4,,,,,3,,,64,0
19232,note_off,,,,,32,0,3,,,,,2,,,64,0
19264,note_on,,,,,32,0,3,,,,,2,,,68,81
19264,note_on,,,,,32,0,2,,,,,1,,,59,90
19264,note_on,,,,,0,0,2,,,,,1,,,71,90
19264,note_on,,,,,32,0,4,,,,,3,,,52,78
19264,note_on,,,,,0,0,1,,,,,0,,,76,106
19264,note_off,,,,,32,0,1,,,,,0,,,75,0
19296,note_off,,,,,32,0,2,,,,,1,,,59,0
19296,note_off,,,,,0,0,2,,,,,1,,,71,0
19296,note_on,,,,,0,0,1,,,,,0,,,78,106
19296,note_off,,,,,32,0,1,,,,,0,,,76,0
19328,note_off,,,,,64,0,3,,,,,2,,,68,0
19328,note_on,,,,,0,0,3,,,,,2,,,69,81
19328,note_on,,,,,0,0,2,,,,,1,,,59,90
19328,note_off,,,,,64,0,4,,,,,3,,,52,0
19328,note_on,,,,,0,0,4,,,,,3,,,54,78
19328,note_on,,,,,32,0,2,,,,,1,,,71,90
19328,note_off,,,,,32,0,1,,,,,0,,,78,0
19328,note_on,,,,,0,0,1,,,,,0,,,80,106
19360,note_on,,,,,0,0,1,,,,,0,,,81,106
19360,note_off,,,,,0,0,2,,,,,1,,,59,0
19360,note_off,,,,,32,0,2,,,,,1,,,71,0
19360,note_off,,,,,32,0,1,,,,,0,,,80,0
19392,note_off,,,,,64,0,4,,,,,3,,,54,0
19392,note_off,,,,,32,0,1,,,,,0,,,81,0
19392,note_on,,,,,32,0,2,,,,,1,,,59,90
19392,note_on,,,,,0,0,2,,,,,1,,,71,90
19392,note_on,,,,,0,0,3,,,,,2,,,70,81
19392,note_off,,,,,64,0,3,,,,,2,,,69,0
19392,note_on,,,,,0,0,4,,,,,3,,,55,78
19392,note_on,,,,,0,0,1,,,,,0,,,82,106
19424,note_off,,,,,32,0,1,,,,,0,,,82,0
19424,note_on,,,,,0,0,1,,,,,0,,,85,106
19424,note_off,,,,,0,0,2,,,,,1,,,71,0
19424,note_off,,,,,32,0,2,,,,,1,,,59,0
19456,note_off,,,,,64,0,4,,,,,3,,,55,0
19456,note_on,,,,,0,0,4,,,,,3,,,56,78
19456,note_off,,,,,64,0,3,,,,,2,,,70,0
19456,note_on,,,,,0,0,3,,,,,2,,,71,81
19456,note_on,,,,,32,0,2,,,,,1,,,59,90
19456,note_on,,,,,0,0,2,,,,,1,,,71,90
19456,note_on,,,,,0,0,1,,,,,0,,,82,106
19456,note_off,,,,,32,0,1,,,,,0,,,85,0
19488,note_off,,,,,32,0,2,,,,,1,,,59,0
19488,note_off,,,,,0,0,2,,,,,1,,,71,0
19488,note_on,,,,,0,0,1,,,,,0,,,83,106
19488,note_off,,,,,32,0,1,,,,,0,,,82,0
19520,note_on,,,,,0,0,4,,,,,3,,,52,78
19520,note_off,,,,,64,0,3,,,,,2,,,71,0
19520,note_on,,,,,32,0,2,,,,,1,,,59,90
19520,note_on,,,,,0,0,2,,,,,1,,,71,90
19520,note_on,,,,,0,0,3,,,,,2,,,68,81
19520,note_off,,,,,32,0,1,,,,,0,,,83,0
19520,note_on,,,,,0,0,1,,,,,0,,,80,106
19520,note_off,,,,,64,0,4,,,,,3,,,56,0
19552,note_off,,,,,0,0,2,,,,,1,,,71,0
19552,note_off,,,,,32,0,2,,,,,1,,,59,0
19552,note_off,,,,,32,0,1,,,,,0,,,80,0
19552,note_on,,,,,0,0,1,,,,,0,,,76,106
19568,note_off,,,,,16,0,1,,,,,0,,,76,0
19568,note_on,,,,,0,0,1,,,,,0,,,78,106
19584,note_off,,,,,64,0,4,,,,,3,,,52,0
19584,note_on,,,,,0,0,4,,,,,3,,,47,78
19584,note_off,,,,,16,0,1,,,,,0,,,78,0
19584,note_off,,,,,64,0,3,,,,,2,,,68,0
19584,note_on,,,,,0,0,1,,,,,0,,,76,106
19616,note_on,,,,,0,0,1,,,,,0,,,75,106
19616,note_off,,,,,32,0,1,,,,,0,,,76,0
19616,note_off,,,,,32,0,4,,,,,3,,,47,0
19648,note_on,,,,,0,0,1,,,,,0,,,76,106
19648,note_off,,,,,32,0,1,,,,,0,,,75,0
19648,note_on,,,,,0,0,2,,,,,1,,,71,90
19648,note_on,,,,,32,0,4,,,,,3,,,52,78
19648,note_on,,,,,96,0,2,,,,,1,,,59,90
19648,note_on,,,,,64,0,3,,,,,2,,,68,81
19680,note_on,,,,,0,0,1,,,,,0,,,78,106
19680,note_off,,,,,32,0,1,,,,,0,,,76,0
19680,note_off,,,,,32,0,2,,,,,1,,,59,0
19680,note_off,,,,,0,0,2,,,,,1,,,71,0
19712,note_on,,,,,32,0,2,,,,,1,,,59,90
19712,note_on,,,,,0,0,3,,,,,2,,,69,81
19712,note_off,,,,,64,0,4,,,,,3,,,52,0
19712,note_on,,,,,0,0,4,,,,,3,,,54,78
19712,note_on,,,,,0,0,1,,,,,0,,,80,106
19712,note_off,,,,,32,0,1,,,,,0,,,78,0
19712,note_off,,,,,64,0,3,,,,,2,,,68,0
19712,note_on,,,,,0,0,2,,,,,1,,,71,90
19744,note_off,,,,,0,0,2,,,,,1,,,71,0
19744,note_off,,,,,32,0,1,,,,,0,,,80,0
19744,note_off,,,,,32,0,2,,,,,1,,,59,0
19744,note_on,,,,,0,0,1,,,,,0,,,81,106
19776,note_on,,,,,0,0,4,,,,,3,,,55,78
19776,note_off,,,,,64,0,4,,,,,3,,,54,0
19776,note_on,,,,,0,0,1,,,,,0,,,82,106
19776,note_on,,,,,32,0,2,,,,,1,,,59,90
19776,note_on,,,,,0,0,2,,,,,1,,,71,90
19776,note_on,,,,,0,0,3,,,,,2,,,70,81
19776,note_off,,,,,64,0,3,,,,,2,,,69,0
19776,note_off,,,,,32,0,1,,,,,0,,,81,0
19808,note_off,,,,,32,0,1,,,,,0,,,82,0
19808,note_off,,,,,32,0,2,,,,,1,,,59,0
19808,note_off,,,,,0,0,2,,,,,1,,,71,0
19808,note_on,,,,,0,0,1,,,,,0,,,85,106
19840,note_on,,,,,0,0,3,,,,,2,,,71,81
19840,note_off,,,,,64,0,3,,,,,2,,,70,0
19840,note_off,,,,,64,0,4,,,,,3,,,55,0
19840,note_off,,,,,32,0,1,,,,,0,,,85,0
19840,note_on,,,,,0,0,2,,,,,1,,,71,90
19840,note_on,,,,,32,0,2,,,,,1,,,59,90
19840,note_on,,,,,0,0,1,,,,,0,,,82,106
19840,note_on,,,,,0,0,4,,,,,3,,,56,78
19872,note_off,,,,,32,0,1,,,,,0,,,82,0
19872,note_on,,,,,0,0,1,,,,,0,,,83,106
19872,note_off,,,,,0,0,2,,,,,1,,,71,0
19872,note_off,,,,,32,0,2,,,,,1,,,59,0
19904,note_off,,,,,64,0,4,,,,,3,,,56,0
19904,note_off,,,,,64,0,3,,,,,2,,,71,0
19904,note_on,,,,,0,0,4,,,,,3,,,52,78
19904,note_on,,,,,32,0,2,,,,,1,,,59,90
19904,note_on,,,,,0,0,2,,,,,1,,,71,90
19904,note_on,,,,,0,0,3,,,,,2,,,68,81
19904,note_on,,,,,0,0,1,,,,,0,,,80,106
19904,note_off,,,,,32,0,1,,,,,0,,,83,0
19936,note_off,,,,,32,0,2,,,,,1,,,59,0
19936,note_on,,,,,0,0,1,,,,,0,,,76,106
19936,note_off,,,,,0,0,2,,,,,1,,,71,0
19936,note_off,,,,,32,0,1,,,,,0,,,80,0
19952,note_off,,,,,16,0,1,,,,,0,,,76,0
19952,note_on,,,,,0,0,1,,,,,0,,,76,106
19968,note_on,,,,,0,0,4,,,,,3,,,47,78
19968,note_off,,,,,64,0,4,,,,,3,,,52,0
19968,note_off,,,,,16,0,1,,,,,0,,,76,0
19968,note_on,,,,,0,0,1,,,,,0,,,75,106
19968,note_off,,,,,64,0,3,,,,,2,,,68,0
20000,note_off,,,,,32,0,4,,,,,3,,,47,0
20000,note_off,,,,,32,0,1,,,,,0,,,75,0
20000,note_on,,,,,0,0,1,,,,,0,,,73,106
20032,note_on,,,,,64,0,3,,,,,2,,,66,81
20032,note_on,,,,,0,0,2,,,,,1,,,71,90
20032,note_on,,,,,96,0,2,,,,,1,,,59,90
20032,note_off,,,,,32,0,1,,,,,0,,,73,0
20032,note_on,,,,,0,0,1,,,,,0,,,75,106
20032,note_on,,,,,32,0,4,,,,,3,,,51,78
20064,note_off,,,,,0,0,2,,,,,1,,,71,0
20064,note_off,,,,,32,0,2,,,,,1,,,59,0
20064,note_off,,,,,32,0,1,,,,,0,,,75,0
20064,note_on,,,,,0,0,1,,,,,0,,,76,106
20096,note_on,,,,,0,0,2,,,,,1,,,59,90
20096,note_off,,,,,64,0,3,,,,,2,,,66,0
20096,note_on,,,,,0,0,4,,,,,3,,,52,78
20096,note_off,,,,,64,0,4,,,,,3,,,51,0
20096,note_on,,,,,0,0,1,,,,,0,,,78,106
20096,note_on,,,,,32,0,2,,,,,1,,,71,90
20096,note_on,,,,,0,0,3,,,,,2,,,68,81
20096,note_off,,,,,32,0,1,,,,,0,,,76,0
20128,note_on,,,,,0,0,1,,,,,0,,,80,106
20128,note_off,,,,,32,0,1,,,,,0,,,78,0
20128,note_off,,,,,32,0,2,,,,,1,,,71,0
20128,note_off,,,,,0,0,2,,,,,1,,,59,0
20160,note_off,,,,,32,0,1,,,,,0,,,80,0
20160,note_on,,,,,0,0,4,,,,,3,,,54,78
20160,note_on,,,,,0,0,3,,,,,2,,,69,81
20160,note_off,,,,,64,0,3,,,,,2,,,68,0
20160,note_off,,,,,64,0,4,,,,,3,,,52,0
20160,note_on,,,,,32,0,2,,,,,1,,,59,90
20160,note_on,,,,,0,0,2,,,,,1,,,71,90
20160,note_on,,,,,0,0,1,,,,,0,,,81,106
20192,note_on,,,,,0,0,1,,,,,0,,,85,106
20192,note_off,,,,,32,0,2,,,,,1,,,59,0
20192,note_off,,,,,0,0,2,,,,,1,,,71,0
20192,note_off,,,,,32,0,1,,,,,0,,,81,0
20224,note_on,,,,,0,0,2,,,,,1,,,71,90
20224,note_on,,,,,32,0,2,,,,,1,,,59,90
20224,note_on,,,,,0,0,1,,,,,0,,,82,106
20224,note_off,,,,,64,0,3,,,,,2,,,69,0
20224,note_off,,,,,32,0,1,,,,,0,,,85,0
20224,note_on,,,,,0,0,3,,,,,2,,,66,81
20224,note_on,,,,,0,0,4,,,,,3,,,51,78
20224,note_off,,,,,64,0,4,,,,,3,,,54,0
20256,note_off,,,,,32,0,1,,,,,0,,,82,0
20256,note_on,,,,,0,0,1,,,,,0,,,83,106
20256,note_off,,,,,0,0,2,,,,,1,,,71,0
20256,note_off,,,,,32,0,2,,,,,1,,,59,0
20288,note_off,,,,,32,0,1,,,,,0,,,83,0
20288,note_on,,,,,0,0,1,,,,,0,,,81,106
20288,note_off,,,,,64,0,4,,,,,3,,,51,0
20288,note_on,,,,,32,0,2,,,,,1,,,59,90
20288,note_on,,,,,0,0,2,,,,,1,,,71,90
20288,note_on,,,,,0,0,3,,,,,2,,,63,81
20288,note_on,,,,,0,0,4,,,,,3,,,47,78
20288,note_off,,,,,64,0,3,,,,,2,,,66,0
20320,note_off,,,,,32,0,2,,,,,1,,,59,0
20320,note_off,,,,,0,0,2,,,,,1,,,71,0
20320,note_off,,,,,32,0,1,,,,,0,,,81,0
20320,note_on,,,,,0,0,1,,,,,0,,,78,106
20336,note_on,,,,,0,0,1,,,,,0,,,76,106
20336,note_off,,,,,16,0,1,,,,,0,,,78,0
20352,note_off,,,,,64,0,4,,,,,3,,,47,0
20352,note_off,,,,,64,0,3,,,,,2,,,63,0
20352,note_on,,,,,0,0,1,,,,,0,,,75,106
20352,note_off,,,,,16,0,1,,,,,0,,,76,0
20352,note_on,,,,,0,0,4,,,,,3,,,47,78
20384,note_on,,,,,0,0,1,,,,,0,,,73,106
20384,note_off,,,,,32,0,1,,,,,0,,,75,0
20384,note_off,,,,,32,0,4,,,,,3,,,47,0
20416,note_off,,,,,32,0,1,,,,,0,,,73,0
20416,note_on,,,,,0,0,2,,,,,1,,,71,90
20416,note_on,,,,,96,0,2,,,,,1,,,59,90
20416,note_on,,,,,64,0,3,,,,,2,,,66,81
20416,note_on,,,,,32,0,4,,,,,3,,,51,78
20416,note_on,,,,,0,0,1,,,,,0,,,75,106
20448,note_off,,,,,32,0,1,,,,,0,,,75,0
20448,note_on,,,,,0,0,1,,,,,0,,,76,106
20448,note_off,,,,,0,0,2,,,,,1,,,71,0
20448,note_off,,,,,32,0,2,,,,,1,,,59,0
20480,note_on,,,,,0,0,2,,,,,1,,,71,90
20480,note_on,,,,,32,0,2,,,,,1,,,59,90
20480,note_on,,,,,0,0,4,,,,,3,,,52,78
20480,note_off,,,,,64,0,4,,,,,3,,,51,0
20480,note_on,,,,,0,0,1,,,,,0,,,78,106
20480,note_on,,,,,0,0,3,,,,,2,,,68,81
20480,note_off,,,,,64,0,3,,,,,2,,,66,0
20480,note_off,,,,,32,0,1,,,,,0,,,76,0
20512,note_off,,,,,32,0,2,,,,,1,,,59,0
20512,note_off,,,,,0,0,2,,,,,1,,,71,0
20512,note_on,,,,,0,0,1,,,,,0,,,80,106
20512,note_off,,,,,32,0,1,,,,,0,,,78,0
20544,note_off,,,,,64,0,4,,,,,3,,,52,0
20544,note_on,,,,,0,0,3,,,,,2,,,69,81
20544,note_off,,,,,32,0,1,,,,,0,,,80,0
20544,note_on,,,,,0,0,1,,,,,0,,,81,106
20544,note_off,,,,,64,0,3,,,,,2,,,68,0
20544,note_on,,,,,0,0,4,,,,,3,,,54,78
20544,note_on,,,,,0,0,2,,,,,1,,,59,90
20544,note_on,,,,,32,0,2,,,,,1,,,71,90
20576,note_off,,,,,32,0,1,,,,,0,,,81,0
20576,note_on,,,,,0,0,1,,,,,0,,,85,106
20576,note_off,,,,,0,0,2,,,,,1,,,59,0
20576,note_off,,,,,32,0,2,,,,,1,,,71,0
20608,note_on,,,,,32,0,2,,,,,1,,,71,90
20608,note_on,,,,,0,0,1,,,,,0,,,82,106
20608,note_off,,,,,32,0,1,,,,,0,,,85,0
20608,note_off,,,,,64,0,4,,,,,3,,,54,0
20608,note_on,,,,,0,0,2,,,,,1,,,59,90
20608,note_on,,,,,0,0,4,,,,,3,,,51,78
20608,note_on,,,,,0,0,3,,,,,2,,,66,81
20608,note_off,,,,,64,0,3,,,,,2,,,69,0
20640,note_on,,,,,0,0,1,,,,,0,,,83,106
20640,note_off,,,,,32,0,1,,,,,0,,,82,0
20640,note_off,,,,,0,0,2,,,,,1,,,59,0
20640,note_off,,,,,32,0,2,,,,,1,,,71,0
20672,note_off,,,,,32,0,1,,,,,0,,,83,0
20672,note_on,,,,,32,0,2,,,,,1,,,59,90
20672,note_on,,,,,0,0,2,,,,,1,,,71,90
20672,note_off,,,,,64,0,3,,,,,2,,,66,0
20672,note_on,,,,,0,0,3,,,,,2,,,63,81
20672,note_on,,,,,0,0,1,,,,,0,,,81,106
20672,note_on,,,,,0,0,4,,,,,3,,,47,78
20672,note_off,,,,,64,0,4,,,,,3,,,51,0
20704,note_off,,,,,32,0,2,,,,,1,,,59,0
20704,note_off,,,,,0,0,2,,,,,1,,,71,0
20704,note_off,,,,,32,0,1,,,,,0,,,81,0
20704,note_on,,,,,0,0,1,,,,,0,,,78,106
20720,note_off,,,,,16,0,1,,,,,0,,,78,0
20720,note_on,,,,,0,0,1,,,,,0,,,78,106
20736,note_on,,,,,0,0,4,,,,,3,,,47,78
20736,note_off,,,,,64,0,4,,,,,3,,,47,0
20736,note_on,,,,,0,0,1,,,,,0,,,76,106
20736,note_off,,,,,64,0,3,,,,,2,,,63,0
20736,note_off,,,,,16,0,1,,,,,0,,,78,0
20768,note_on,,,,,0,0,1,,,,,0,,,75,106
20768,note_off,,,,,32,0,1,,,,,0,,,76,0
20768,note_off,,,,,32,0,4,,,,,3,,,47,0
20800,note_on,,,,,64,0,3,,,,,2,,,67,81
20800,note_on,,,,,32,0,4,,,,,3,,,52,78
20800,note_on,,,,,0,0,2,,,,,1,,,71,90
20800,note_on,,,,,0,0,1,,,,,0,,,76,106
20800,note_off,,,,,32,0,1,,,,,0,,,75,0
20800,note_on,,,,,96,0,2,,,,,1,,,59,90
20832,note_off,,,,,32,0,2,,,,,1,,,59,0
20832,note_off,,,,,0,0,2,,,,,1,,,71,0
20832,note_on,,,,,0,0,1,,,,,0,,,78,106
20832,note_off,,,,,32,0,1,,,,,0,,,76,0
20864,note_on,,,,,0,0,3,,,,,2,,,69,81
20864,note_on,,,,,0,0,1,,,,,0,,,80,106
20864,note_off,,,,,32,0,1,,,,,0,,,78,0
20864,note_off,,,,,64,0,3,,,,,2,,,67,0
20864,note_on,,,,,32,0,2,,,,,1,,,59,90
20864,note_on,,,,,0,0,4,,,,,3,,,54,78
20864,note_off,,,,,64,0,4,,,,,3,,,52,0
20864,note_on,,,,,0,0,2,,,,,1,,,71,90
20896,note_off,,,,,0,0,2,,,,,1,,,71,0
20896,note_off,,,,,32,0,1,,,,,0,,,80,0
20896,note_on,,,,,0,0,1,,,,,0,,,81,106
20896,note_off,,,,,32,0,2,,,,,1,,,59,0
20928,note_off,,,,,64,0,3,,,,,2,,,69,0
20928,note_off,,,,,64,0,4,,,,,3,,,54,0
20928,note_on,,,,,0,0,3,,,,,2,,,70,81
20928,note_on,,,,,0,0,4,,,,,3,,,54,78
20928,note_on,,,,,0,0,2,,,,,1,,,71,90
20928,note_on,,,,,32,0,2,,,,,1,,,59,90
20928,note_off,,,,,32,0,1,,,,,0,,,81,0
20928,note_on,,,,,0,0,1,,,,,0,,,82,106
20960,note_off,,,,,0,0,2,,,,,1,,,71,0
20960,note_off,,,,,32,0,1,,,,,0,,,82,0
20960,note_on,,,,,0,0,1,,,,,0,,,85,106
20960,note_off,,,,,32,0,2,,,,,1,,,59,0
20992,note_on,,,,,0,0,2,,,,,1,,,71,90
20992,note_on,,,,,0,0,4,,,,,3,,,55,78
20992,note_on,,,,,32,0,2,,,,,1,,,59,90
20992,note_off,,,,,64,0,4,,,,,3,,,54,0
20992,note_off,,,,,64,0,3,,,,,2,,,70,0
20992,note_on,,,,,0,0,3,,,,,2,,,71,81
20992,note_on,,,,,0,0,1,,,,,0,,,83,106
20992,note_off,,,,,32,0,1,,,,,0,,,85,0
21024,note_off,,,,,0,0,2,,,,,1,,,71,0
21024,note_off,,,,,32,0,2,,,,,1,,,59,0
21024,note_on,,,,,0,0,1,,,,,0,,,88,106
21024,note_off,,,,,32,0,1,,,,,0,,,83,0
21056,note_off,,,,,64,0,4,,,,,3,,,55,0
21056,note_on,,,,,0,0,4,,,,,3,,,52,78
21056,note_on,,,,,32,0,2,,,,,1,,,59,90
21056,note_on,,,,,0,0,2,,,,,1,,,71,90
21056,note_on,,,,,0,0,3,,,,,2,,,67,81
21056,note_off,,,,,32,0,1,,,,,0,,,88,0
21056,note_on,,,,,0,0,1,,,,,0,,,83,106
21056,note_off,,,,,64,0,3,,,,,2,,,71,0
21088,note_off,,,,,32,0,1,,,,,0,,,83,0
21088,note_off,,,,,32,0,2,,,,,1,,,59,0
21088,note_off,,,,,0,0,2,,,,,1,,,71,0
21088,note_on,,,,,0,0,1,,,,,0,,,80,106
21104,note_on,,,,,0,0,1,,,,,0,,,78,106
21104,note_off,,,,,16,0,1,,,,,0,,,80,0
21120,note_off,,,,,16,0,1,,,,,0,,,78,0
21120,note_on,,,,,0,0,1,,,,,0,,,76,106
21120,note_on,,,,,0,0,4,,,,,3,,,47,78
21120,note_off,,,,,64,0,3,,,,,2,,,67,0
21120,note_off,,,,,64,0,4,,,,,3,,,52,0
21152,note_off,,,,,32,0,1,,,,,0,,,76,0
21152,note_off,,,,,32,0,4,,,,,3,,,47,0
21152,note_on,,,,,0,0,1,,,,,0,,,75,106
21184,note_on,,,,,64,0,3,,,,,2,,,67,81
21184,note_on,,,,,0,0,1,,,,,0,,,76,106
21184,note_on,,,,,96,0,2,,,,,1,,,71,90
21184,note_on,,,,,0,0,2,,,,,1,,,59,90
21184,note_off,,,,,32,0,1,,,,,0,,,75,0
21184,note_on,,,,,32,0,4,,,,,3,,,52,78
21216,note_off,,,,,0,0,2,,,,,1,,,59,0
21216,note_off,,,,,32,0,1,,,,,0,,,76,0
21216,note_on,,,,,0,0,1,,,,,0,,,78,106
21216,note_off,,,,,32,0,2,,,,,1,,,71,0
21248,note_on,,,,,0,0,4,,,,,3,,,54,78
21248,note_off,,,,,64,0,3,,,,,2,,,67,0
21248,note_on,,,,,0,0,3,,,,,2,,,69,81
21248,note_off,,,,,64,0,4,,,,,3,,,52,0
21248,note_on,,,,,0,0,1,,,,,0,,,80,106
21248,note_off,,,,,32,0,1,,,,,0,,,78,0
21248,note_on,,,,,0,0,2,,,,,1,,,71,90
21248,note_on,,,,,32,0,2,,,,,1,,,59,90
21280,note_off,,,,,32,0,1,,,,,0,,,80,0
21280,note_off,,,,,0,0,2,,,,,1,,,71,0
21280,note_on,,,,,0,0,1,,,,,0,,,81,106
21280,note_off,,,,,32,0,2,,,,,1,,,59,0
21312,note_on,,,,,32,0,2,,,,,1,,,59,90
21312,note_on,,,,,0,0,2,,,,,1,,,71,90
21312,note_off,,,,,64,0,3,,,,,2,,,69,0
21312,note_off,,,,,64,0,4,,,,,3,,,54,0
21312,note_on,,,,,0,0,3,,,,,2,,,70,81
21312,note_on,,,,,0,0,4,,,,,3,,,54,78
21312,note_on,,,,,0,0,1,,,,,0,,,82,106
21312,note_off,,,,,32,0,1,,,,,0,,,81,0
21344,note_on,,,,,0,0,1,,,,,0,,,85,106
21344,note_off,,,,,32,0,2,,,,,1,,,59,0
21344,note_off,,,,,0,0,2,,,,,1,,,71,0
21344,note_off,,,,,32,0,1,,,,,0,,,82,0
21376,note_on,,,,,0,0,4,,,,,3,,,55,78
21376,note_off,,,,,64,0,4,,,,,3,,,54,0
21376,note_on,,,,,0,0,1,,,,,0,,,83,106
21376,note_off,,,,,32,0,1,,,,,0,,,85,0
21376,note_off,,,,,64,0,3,,,,,2,,,70,0
21376,note_on,,,,,0,0,2,,,,,1,,,59,90
21376,note_on,,,,,32,0,2,,,,,1,,,71,90
21376,note_on,,,,,0,0,3,,,,,2,,,71,81
21408,note_on,,,,,0,0,1,,,,,0,,,88,106
21408,note_off,,,,,0,0,2,,,,,1,,,59,0
21408,note_off,,,,,32,0,2,,,,,1,,,71,0
21408,note_off,,,,,32,0,1,,,,,0,,,83,0
21440,note_off,,,,,64,0,3,,,,,2,,,71,0
21440,note_on,,,,,0,0,3,,,,,2,,,67,81
21440,note_on,,,,,0,0,1,,,,,0,,,83,106
21440,note_off,,,,,32,0,1,,,,,0,,,88,0
21440,note_on,,,,,32,0,2,,,,,1,,,59,90
21440,note_on,,,,,0,0,2,,,,,1,,,71,90
21440,note_off,,,,,64,0,4,,,,,3,,,55,0
21440,note_on,,,,,0,0,4,,,,,3,,,52,78
21472,note_off,,,,,32,0,1,,,,,0,,,83,0
21472,note_on,,,,,0,0,1,,,,,0,,,80,106
21472,note_off,,,,,0,0,2,,,,,1,,,71,0
21472,note_off,,,,,32,0,2,,,,,1,,,59,0
21488,note_on,,,,,0,0,1,,,,,0,,,84,106
21488,note_off,,,,,16,0,1,,,,,0,,,80,0
21504,note_off,,,,,16,0,1,,,,,0,,,84,0
21504,note_on,,,,,0,0,1,,,,,0,,,83,106
21504,note_on,,,,,0,0,4,,,,,3,,,43,78
21504,note_off,,,,,64,0,3,,,,,2,,,67,0
21504,note_off,,,,,64,0,4,,,,,3,,,52,0
21536,note_off,,,,,32,0,4,,,,,3,,,43,0
21536,note_on,,,,,0,0,1,,,,,0,,,81,106
21536,note_off,,,,,32,0,1,,,,,0,,,83,0
21568,note_on,,,,,32,0,4,,,,,3,,,59,78
21568,note_on,,,,,0,0,1,,,,,0,,,83,106
21568,note_off,,,,,32,0,1,,,,,0,,,81,0
21568,note_on,,,,,96,0,2,,,,,1,,,67,90
21568,note_on,,,,,0,0,2,,,,,1,,,55,90
21568,note_on,,,,,64,0,3,,,,,2,,,62,81
21600,note_off,,,,,32,0,1,,,,,0,,,83,0
21600,note_on,,,,,0,0,1,,,,,0,,,84,106
21600,note_off,,,,,0,0,2,,,,,1,,,55,0
21600,note_off,,,,,32,0,2,,,,,1,,,67,0
21632,note_on,,,,,0,0,2,,,,,1,,,55,90
21632,note_on,,,,,0,0,1,,,,,0,,,86,106
21632,note_off,,,,,32,0,1,,,,,0,,,84,0
21632,note_on,,,,,32,0,2,,,,,1,,,67,90
21632,note_off,,,,,64,0,3,,,,,2,,,62,0
21632,note_on,,,,,0,0,3,,,,,2,,,64,81
21632,note_on,,,,,0,0,4,,,,,3,,,60,78
21632,note_off,,,,,64,0,4,,,,,3,,,59,0
21664,note_off,,,,,32,0,1,,,,,0,,,86,0
21664,note_off,,,,,32,0,2,,,,,1,,,67,0
21664,note_off,,,,,0,0,2,,,,,1,,,55,0
21664,note_on,,,,,0,0,1,,,,,0,,,88,106
21696,note_on,,,,,0,0,2,,,,,1,,,55,90
21696,note_off,,,,,64,0,3,,,,,2,,,64,0
21696,note_on,,,,,0,0,3,,,,,2,,,65,81
21696,note_off,,,,,32,0,1,,,,,0,,,88,0
21696,note_on,,,,,0,0,1,,,,,0,,,89,106
21696,note_on,,,,,32,0,2,,,,,1,,,67,90
21696,note_on,,,,,0,0,4,,,,,3,,,62,78
21696,note_off,,,,,64,0,4,,,,,3,,,60,0
21728,note_off,,,,,32,0,1,,,,,0,,,89,0
21728,note_on,,,,,0,0,1,,,,,0,,,93,106
21728,note_off,,,,,32,0,2,,,,,1,,,67,0
21728,note_off,,,,,0,0,2,,,,,1,,,55,0
21760,note_on,,,,,0,0,4,,,,,3,,,59,78
21760,note_off,,,,,64,0,4,,,,,3,,,62,0
21760,note_on,,,,,0,0,2,,,,,1,,,55,90
21760,note_on,,,,,0,0,3,,,,,2,,,62,81
21760,note_on,,,,,0,0,1,,,,,0,,,90,106
21760,note_off,,,,,32,0,1,,,,,0,,,93,0
21760,note_on,,,,,32,0,2,,,,,1,,,67,90
21760,note_off,,,,,64,0,3,,,,,2,,,65,0
21792,note_off,,,,,0,0,2,,,,,1,,,55,0
21792,note_on,,,,,0,0,1,,,,,0,,,91,106
21792,note_off,,,,,32,0,2,,,,,1,,,67,0
21792,note_off,,,,,32,0,1,,,,,0,,,90,0
21824,note_off,,,,,64,0,3,,,,,2,,,62,0
21824,note_off,,,,,64,0,4,,,,,3,,,59,0
21824,note_on,,,,,0,0,3,,,,,2,,,59,81
21824,note_on,,,,,0,0,4,,,,,3,,,55,78
21824,note_on,,,,,0,0,2,,,,,1,,,67,90
21824,note_off,,,,,32,0,1,,,,,0,,,91,0
21824,note_on,,,,,32,0,2,,,,,1,,,55,90
21824,note_on,,,,,0,0,1,,,,,0,,,89,106
21856,note_on,,,,,0,0,1,,,,,0,,,86,106
21856,note_off,,,,,32,0,1,,,,,0,,,89,0
21856,note_off,,,,,0,0,2,,,,,1,,,67,0
21856,note_off,,,,,32,0,2,,,,,1,,,55,0
21872,note_on,,,,,0,0,1,,,,,0,,,84,106
21872,note_off,,,,,16,0,1,,,,,0,,,86,0
21888,note_on,,,,,0,0,4,,,,,3,,,43,78
21888,note_off,,,,,64,0,4,,,,,3,,,55,0
21888,note_on,,,,,0,0,1,,,,,0,,,83,106
21888,note_off,,,,,64,0,3,,,,,2,,,59,0
21888,note_off,,,,,16,0,1,,,,,0,,,84,0
21920,note_off,,,,,32,0,1,,,,,0,,,83,0
21920,note_on,,,,,0,0,1,,,,,0,,,81,106
21920,note_off,,,,,32,0,4,,,,,3,,,43,0
21952,note_on,,,,,96,0,2,,,,,1,,,55,90
21952,note_on,,,,,64,0,3,,,,,2,,,62,81
21952,note_on,,,,,32,0,4,,,,,3,,,59,78
21952,note_on,,,,,0,0,2,,,,,1,,,67,90
21952,note_on,,,,,0,0,1,,,,,0,,,83,106
21952,note_off,,,,,32,0,1,,,,,0,,,81,0
21984,note_on,,,,,0,0,1,,,,,0,,,84,106
21984,note_off,,,,,32,0,1,,,,,0,,,83,0
21984,note_off,,,,,0,0,2,,,,,1,,,67,0
21984,note_off,,,,,32,0,2,,,,,1,,,55,0
22016,note_on,,,,,0,0,1,,,,,0,,,86,106
22016,note_off,,,,,32,0,1,,,,,0,,,84,0
22016,note_off,,,,,64,0,4,,,,,3,,,59,0
22016,note_on,,,,,0,0,4,,,,,3,,,60,78
22016,note_on,,,,,32,0,2,,,,,1,,,55,90
22016,note_on,,,,,0,0,2,,,,,1,,,67,90
22016,note_on,,,,,0,0,3,,,,,2,,,64,81
22016,note_off,,,,,64,0,3,,,,,2,,,62,0
22048,note_off,,,,,32,0,1,,,,,0,,,86,0
22048,note_on,,,,,0,0,1,,,,,0,,,88,106
22048,note_off,,,,,0,0,2,,,,,1,,,67,0
22048,note_off,,,,,32,0,2,,,,,1,,,55,0
22080,note_off,,,,,32,0,1,,,,,0,,,88,0
22080,note_on,,,,,0,0,1,,,,,0,,,89,106
22080,note_on,,,,,0,0,2,,,,,1,,,55,90
22080,note_off,,,,,64,0,3,,,,,2,,,64,0
22080,note_off,,,,,64,0,4,,,,,3,,,60,0
22080,note_on,,,,,0,0,4,,,,,3,,,62,78
22080,note_on,,,,,32,0,2,,,,,1,,,67,90
22080,note_on,,,,,0,0,3,,,,,2,,,65,81
22112,note_off,,,,,32,0,2,,,,,1,,,67,0
22112,note_off,,,,,0,0,2,,,,,1,,,55,0
22112,note_off,,,,,32,0,1,,,,,0,,,89,0
22112,note_on,,,,,0,0,1,,,,,0,,,93,106
22144,note_off,,,,,64,0,3,,,,,2,,,65,0
22144,note_on,,,,,0,0,3,,,,,2,,,62,81
22144,note_off,,,,,64,0,4,,,,,3,,,62,0
22144,note_off,,,,,32,0,1,,,,,0,,,93,0
22144,note_on,,,,,0,0,4,,,,,3,,,59,78
22144,note_on,,,,,0,0,1,,,,,0,,,90,106
22144,note_on,,,,,32,0,2,,,,,1,,,67,90
22144,note_on,,,,,0,0,2,,,,,1,,,55,90
22176,note_on,,,,,0,0,1,,,,,0,,,91,106
22176,note_off,,,,,32,0,1,,,,,0,,,90,0
22176,note_off,,,,,32,0,2,,,,,1,,,67,0
22176,note_off,,,,,0,0,2,,,,,1,,,55,0
22208,note_on,,,,,0,0,1,,,,,0,,,88,106
22208,note_off,,,,,32,0,1,,,,,0,,,91,0
22208,note_off,,,,,64,0,3,,,,,2,,,62,0
22208,note_on,,,,,0,0,3,,,,,2,,,59,81
22208,note_on,,,,,0,0,2,,,,,1,,,55,90
22208,note_on,,,,,32,0,2,,,,,1,,,67,90
22208,note_on,,,,,0,0,4,,,,,3,,,55,78
22208,note_off,,,,,64,0,4,,,,,3,,,59,0
22240,note_off,,,,,32,0,1,,,,,0,,,88,0
22240,note_on,,,,,0,0,4,,,,,3,,,50,78
22240,note_off,,,,,32,0,2,,,,,1,,,67,0
22240,note_off,,,,,0,0,2,,,,,1,,,55,0
22240,note_on,,,,,0,0,1,,,,,0,,,86,106
22240,note_off,,,,,32,0,4,,,,,3,,,55,0
22272,note_off,,,,,32,0,4,,,,,3,,,50,0
22272,note_on,,,,,0,0,3,,,,,2,,,60,81
22272,note_off,,,,,64,0,3,,,,,2,,,59,0
22272,note_on,,,,,0,0,1,,,,,0,,,84,106
22272,note_off,,,,,32,0,1,,,,,0,,,86,0
22272,note_on,,,,,0,0,4,,,,,3,,,48,78
22304,note_off,,,,,32,0,1,,,,,0,,,84,0
22304,note_off,,,,,32,0,4,,,,,3,,,48,0
22304,note_on,,,,,0,0,4,,,,,3,,,47,78
22304,note_off,,,,,32,0,3,,,,,2,,,60,0
22336,note_on,,,,,96,0,2,,,,,1,,,84,90
22336,note_on,,,,,32,0,1,,,,,0,,,88,106
22336,note_off,,,,,32,0,4,,,,,3,,,47,0
22336,note_on,,,,,0,0,4,,,,,3,,,48,78
22368,note_off,,,,,32,0,1,,,,,0,,,88,0
22368,note_off,,,,,32,0,2,,,,,1,,,84,0
22368,note_off,,,,,32,0,4,,,,,3,,,48,0
22368,note_on,,,,,0,0,4,,,,,3,,,50,78
22400,note_on,,,,,32,0,1,,,,,0,,,84,106
22400,note_off,,,,,32,0,4,,,,,3,,,50,0
22400,note_on,,,,,0,0,4,,,,,3,,,52,78
22400,note_on,,,,,32,0,2,,,,,1,,,79,90
22432,note_on,,,,,0,0,4,,,,,3,,,53,78
22432,note_off,,,,,32,0,2,,,,,1,,,79,0
22432,note_off,,,,,32,0,1,,,,,0,,,84,0
22432,note_off,,,,,32,0,4,,,,,3,,,52,0
22464,note_off,,,,,32,0,4,,,,,3,,,53,0
22464,note_on,,,,,0,0,4,,,,,3,,,54,78
22464,note_on,,,,,32,0,2,,,,,1,,,76,90
22464,note_on,,,,,32,0,1,,,,,0,,,79,106
22496,note_off,,,,,32,0,1,,,,,0,,,79,0
22496,note_off,,,,,32,0,4,,,,,3,,,54,0
22496,note_on,,,,,0,0,4,,,,,3,,,57,78
22496,note_off,,,,,32,0,2,,,,,1,,,76,0
22528,note_on,,,,,0,0,4,,,,,3,,,54,78
22528,note_on,,,,,32,0,2,,,,,1,,,72,90
22528,note_on,,,,,32,0,1,,,,,0,,,76,106
22528,note_off,,,,,32,0,4,,,,,3,,,57,0
22560,note_off,,,,,32,0,2,,,,,1,,,72,0
22560,note_on,,,,,0,0,4,,,,,3,,,55,78
22560,note_off,,,,,32,0,4,,,,,3,,,54,0
22560,note_off,,,,,32,0,1,,,,,0,,,76,0
22592,note_on,,,,,32,0,1,,,,,0,,,72,106
22592,note_on,,,,,0,0,4,,,,,3,,,52,78
22592,note_off,,,,,32,0,4,,,,,3,,,55,0
22592,note_on,,,,,32,0,2,,,,,1,,,67,90
22624,note_on,,,,,0,0,4,,,,,3,,,48,78
22624,note_off,,,,,32,0,2,,,,,1,,,67,0
22624,note_off,,,,,32,0,1,,,,,0,,,72,0
22624,note_on,,,,,0,0,1,,,,,0,,,76,106
22624,note_off,,,,,32,0,4,,,,,3,,,52,0
22656,note_off,,,,,32,0,1,,,,,0,,,76,0
22656,note_off,,,,,32,0,4,,,,,3,,,48,0
22656,note_on,,,,,0,0,4,,,,,3,,,41,78
22656,note_on,,,,,0,0,1,,,,,0,,,74,106
22688,note_off,,,,,32,0,1,,,,,0,,,74,0
22688,note_on,,,,,0,0,1,,,,,0,,,73,106
22720,note_on,,,,,0,0,1,,,,,0,,,74,106
22720,note_off,,,,,32,0,1,,,,,0,,,73,0
22720,note_on,,,,,96,0,2,,,,,1,,,62,90
22720,note_on,,,,,416,0,3,,,,,2,,,57,81
22752,note_off,,,,,32,0,1,,,,,0,,,74,0
22752,note_off,,,,,32,0,3,,,,,2,,,57,0
22752,note_off,,,,,32,0,2,,,,,1,,,62,0
22752,note_on,,,,,0,0,1,,,,,0,,,76,106
22784,note_on,,,,,32,0,3,,,,,2,,,62,81
22784,note_off,,,,,32,0,1,,,,,0,,,76,0
22784,note_on,,,,,0,0,1,,,,,0,,,77,106
22784,note_on,,,,,32,0,2,,,,,1,,,65,90
22816,note_on,,,,,0,0,1,,,,,0,,,79,106
22816,note_off,,,,,32,0,1,,,,,0,,,77,0
22816,note_off,,,,,32,0,3,,,,,2,,,62,0
22816,note_off,,,,,32,0,2,,,,,1,,,65,0
22848,note_on,,,,,32,0,3,,,,,2,,,65,81
22848,note_on,,,,,0,0,1,,,,,0,,,80,106
22848,note_on,,,,,32,0,2,,,,,1,,,69,90
22848,note_off,,,,,32,0,1,,,,,0,,,79,0
22880,note_off,,,,,32,0,3,,,,,2,,,65,0
22880,note_off,,,,,32,0,1,,,,,0,,,80,0
22880,note_on,,,,,0,0,1,,,,,0,,,83,106
22880,note_off,,,,,32,0,2,,,,,1,,,69,0
22912,note_on,,,,,32,0,3,,,,,2,,,69,81
22912,note_off,,,,,32,0,1,,,,,0,,,83,0
22912,note_on,,,,,0,0,1,,,,,0,,,80,106
22912,note_on,,,,,32,0,2,,,,,1,,,74,90
22944,note_on,,,,,0,0,1,,,,,0,,,81,106
22944,note_off,,,,,32,0,3,,,,,2,,,69,0
22944,note_off,,,,,32,0,2,,,,,1,,,74,0
22944,note_off,,,,,32,0,1,,,,,0,,,80,0
22976,note_on,,,,,32,0,3,,,,,2,,,74,81
22976,note_on,,,,,32,0,2,,,,,1,,,77,90
22976,note_on,,,,,0,0,1,,,,,0,,,77,106
22976,note_off,,,,,32,0,1,,,,,0,,,81,0
23008,note_off,,,,,32,0,3,,,,,2,,,74,0
23008,note_on,,,,,0,0,3,,,,,2,,,65,81
23008,note_off,,,,,32,0,2,,,,,1,,,77,0
23008,note_on,,,,,0,0,2,,,,,1,,,65,90
23008,note_off,,,,,32,0,1,,,,,0,,,77,0
23008,note_on,,,,,0,0,1,,,,,0,,,74,106
23040,note_off,,,,,32,0,1,,,,,0,,,74,0
23040,note_off,,,,,32,0,3,,,,,2,,,65,0
23040,note_on,,,,,0,0,3,,,,,2,,,64,81
23040,note_on,,,,,0,0,2,,,,,1,,,64,90
23040,note_off,,,,,32,0,2,,,,,1,,,65,0
23040,note_on,,,,,0,0,1,,,,,0,,,72,106
23040,note_off,,,,,384,0,4,,,,,3,,,41,0
23040,note_on,,,,,0,0,4,,,,,3,,,43,78
23072,note_on,,,,,0,0,2,,,,,1,,,62,90
23072,note_off,,,,,32,0,2,,,,,1,,,64,0
23072,note_off,,,,,32,0,3,,,,,2,,,64,0
23072,note_off,,,,,32,0,4,,,,,3,,,43,0
23072,note_off,,,,,32,0,1,,,,,0,,,72,0
23072,note_on,,,,,0,0,3,,,,,2,,,62,81
23104,note_on,,,,,0,0,2,,,,,1,,,64,90
23104,note_off,,,,,32,0,2,,,,,1,,,62,0
23104,note_on,,,,,32,0,1,,,,,0,,,79,106
23104,note_on,,,,,0,0,3,,,,,2,,,64,81
23104,note_on,,,,,32,0,4,,,,,3,,,43,78
23104,note_off,,,,,32,0,3,,,,,2,,,62,0
23136,note_off,,,,,32,0,3,,,,,2,,,64,0
23136,note_on,,,,,0,0,3,,,,,2,,,65,81
23136,note_off,,,,,32,0,2,,,,,1,,,64,0
23136,note_on,,,,,0,0,2,,,,,1,,,65,90
23136,note_off,,,,,32,0,1,,,,,0,,,79,0
23136,note_off,,,,,32,0,4,,,,,3,,,43,0
23168,note_on,,,,,32,0,1,,,,,0,,,79,106
23168,note_on,,,,,0,0,3,,,,,2,,,66,81
23168,note_off,,,,,32,0,3,,,,,2,,,65,0
23168,note_on,,,,,0,0,2,,,,,1,,,66,90
23168,note_off,,,,,32,0,2,,,,,1,,,65,0
23168,note_on,,,,,32,0,4,,,,,3,,,43,78
23200,note_on,,,,,0,0,3,,,,,2,,,67,81
23200,note_off,,,,,32,0,3,,,,,2,,,66,0
23200,note_on,,,,,0,0,2,,,,,1,,,67,90
23200,note_off,,,,,32,0,2,,,,,1,,,66,0
23200,note_off,,,,,32,0,1,,,,,0,,,79,0
23200,note_off,,,,,32,0,4,,,,,3,,,43,0
23232,note_on,,,,,0,0,3,,,,,2,,,62,81
23232,note_off,,,,,32,0,3,,,,,2,,,67,0
23232,note_on,,,,,32,0,4,,,,,3,,,43,78
23232,note_off,,,,,32,0,2,,,,,1,,,67,0
23232,note_on,,,,,0,0,2,,,,,1,,,66,90
23232,note_on,,,,,32,0,1,,,,,0,,,79,106
23264,note_off,,,,,32,0,3,,,,,2,,,62,0
23264,note_off,,,,,32,0,1,,,,,0,,,79,0
23264,note_on,,,,,0,0,3,,,,,2,,,64,81
23264,note_on,,,,,0,0,2,,,,,1,,,67,90
23264,note_off,,,,,32,0,2,,,,,1,,,66,0
23264,note_off,,,,,32,0,4,,,,,3,,,43,0
23296,note_off,,,,,32,0,3,,,,,2,,,64,0
23296,note_on,,,,,32,0,4,,,,,3,,,43,78
23296,note_on,,,,,32,0,1,,,,,0,,,79,106
23296,note_on,,,,,0,0,3,,,,,2,,,65,81
23296,note_off,,,,,32,0,2,,,,,1,,,67,0
23296,note_on,,,,,0,0,2,,,,,1,,,69,90
23328,note_off,,,,,32,0,4,,,,,3,,,43,0
23328,note_off,,,,,32,0,1,,,,,0,,,79,0
23328,note_off,,,,,32,0,3,,,,,2,,,65,0
23328,note_on,,,,,0,0,3,,,,,2,,,64,81
23328,note_on,,,,,0,0,2,,,,,1,,,67,90
23328,note_off,,,,,32,0,2,,,,,1,,,69,0
23360,note_on,,,,,0,0,3,,,,,2,,,62,81
23360,note_on,,,,,32,0,1,,,,,0,,,79,106
23360,note_off,,,,,32,0,3,,,,,2,,,64,0
23360,note_on,,,,,32,0,4,,,,,3,,,43,78
23360,note_on,,,,,0,0,2,,,,,1,,,65,90
23360,note_off,,,,,32,0,2,,,,,1,,,67,0
23392,note_off,,,,,32,0,1,,,,,0,,,79,0
23392,note_off,,,,,32,0,4,,,,,3,,,43,0
23392,note_on,,,,,0,0,1,,,,,0,,,72,106
23392,note_on,,,,,0,0,2,,,,,1,,,64,90
23392,note_off,,,,,32,0,2,,,,,1,,,65,0
23392,note_off,,,,,32,0,3,,,,,2,,,62,0
23392,note_on,,,,,0,0,3,,,,,2,,,60,81
23424,note_on,,,,,32,0,4,,,,,3,,,43,78
23424,note_off,,,,,32,0,3,,,,,2,,,60,0
23424,note_on,,,,,0,0,3,,,,,2,,,62,81
23424,note_on,,,,,0,0,1,,,,,0,,,71,106
23424,note_off,,,,,32,0,2,,,,,1,,,64,0
23424,note_off,,,,,32,0,1,,,,,0,,,72,0
23424,note_on,,,,,0,0,2,,,,,1,,,65,90
23456,note_off,,,,,32,0,3,,,,,2,,,62,0
23456,note_off,,,,,32,0,1,,,,,0,,,71,0
23456,note_on,,,,,0,0,1,,,,,0,,,69,106
23456,note_off,,,,,32,0,4,,,,,3,,,43,0
23456,note_off,,,,,32,0,2,,,,,1,,,65,0
23488,note_on,,,,,32,0,3,,,,,2,,,62,81
23488,note_off,,,,,32,0,1,,,,,0,,,69,0
23488,note_on,,,,,0,0,1,,,,,0,,,71,106
23488,note_on,,,,,32,0,4,,,,,3,,,43,78
23488,note_on,,,,,32,0,2,,,,,1,,,65,90
23520,note_off,,,,,32,0,2,,,,,1,,,65,0
23520,note_off,,,,,32,0,3,,,,,2,,,62,0
23520,note_off,,,,,32,0,4,,,,,3,,,43,0
23520,note_off,,,,,32,0,1,,,,,0,,,71,0
23520,note_on,,,,,0,0,1,,,,,0,,,72,106
23552,note_on,,,,,32,0,4,,,,,3,,,43,78
23552,note_off,,,,,32,0,1,,,,,0,,,72,0
23552,note_on,,,,,32,0,2,,,,,1,,,65,90
23552,note_on,,,,,32,0,3,,,,,2,,,62,81
23552,note_on,,,,,0,0,1,,,,,0,,,74,106
23584,note_off,,,,,32,0,3,,,,,2,,,62,0
23584,note_off,,,,,32,0,1,,,,,0,,,74,0
23584,note_on,,,,,0,0,1,,,,,0,,,76,106
23584,note_off,,,,,32,0,2,,,,,1,,,65,0
23584,note_off,,,,,32,0,4,,,,,3,,,43,0
23616,note_on,,,,,32,0,2,,,,,1,,,65,90
23616,note_off,,,,,32,0,1,,,,,0,,,76,0
23616,note_on,,,,,0,0,1,,,,,0,,,76,106
23616,note_on,,,,,32,0,4,,,,,3,,,43,78
23616,note_on,,,,,32,0,3,,,,,2,,,62,81
23648,note_off,,,,,32,0,1,,,,,0,,,76,0
23648,note_on,,,,,0,0,1,,,,,0,,,79,106
23648,note_off,,,,,32,0,2,,,,,1,,,65,0
23648,note_off,,,,,32,0,4,,,,,3,,,43,0
23648,note_off,,,,,32,0,3,,,,,2,,,62,0
23680,note_on,,,,,32,0,4,,,,,3,,,43,78
23680,note_on,,,,,32,0,2,,,,,1,,,65,90
23680,note_on,,,,,32,0,3,,,,,2,,,62,81
23680,note_on,,,,,0,0,1,,,,,0,,,76,106
23680,note_off,,,,,32,0,1,,,,,0,,,79,0
23712,note_on,,,,,0,0,1,,,,,0,,,77,106
23712,note_off,,,,,32,0,4,,,,,3,,,43,0
23712,note_off,,,,,32,0,3,,,,,2,,,62,0
23712,note_off,,,,,32,0,1,,,,,0,,,76,0
23712,note_off,,,,,32,0,2,,,,,1,,,65,0
23744,note_off,,,,,32,0,1,,,,,0,,,77,0
23744,note_on,,,,,32,0,3,,,,,2,,,62,81
23744,note_on,,,,,32,0,2,,,,,1,,,65,90
23744,note_on,,,,,0,0,1,,,,,0,,,74,106
23744,note_on,,,,,32,0,4,,,,,3,,,43,78
23776,note_on,,,,,0,0,2,,,,,1,,,64,90
23776,note_off,,,,,32,0,2,,,,,1,,,65,0
23776,note_on,,,,,0,0,1,,,,,0,,,71,106
23776,note_off,,,,,32,0,4,,,,,3,,,43,0
23776,note_off,,,,,32,0,3,,,,,2,,,62,0
23776,note_off,,,,,32,0,1,,,,,0,,,74,0
23808,note_off,,,,,32,0,1,,,,,0,,,71,0
23808,note_on,,,,,0,0,1,,,,,0,,,72,106
23808,note_on,,,,,0,0,2,,,,,1,,,67,90
23808,note_off,,,,,32,0,2,,,,,1,,,64,0
23808,note_on,,,,,32,0,4,,,,,3,,,48,78
23808,note_on,,,,,32,0,3,,,,,2,,,64,81
24096,note_on,,,,,0,0,2,,,,,1,,,65,90
24096,note_on,,,,,0,0,3,,,,,2,,,62,81
24096,note_off,,,,,288,0,3,,,,,2,,,64,0
24096,note_off,,,,,288,0,2,,,,,1,,,67,0
24192,note_off,,,,,384,0,1,,,,,0,,,72,0
24192,note_off,,,,,96,0,2,,,,,1,,,65,0
24192,note_off,,,,,384,0,4,,,,,3,,,48,0
24192,note_off,,,,,96,0,3,,,,,2,,,62,0
24192,note_on,,,,,0,0,3,,,,,2,,,60,81
24192,note_on,,,,,0,0,2,,,,,1,,,64,90
24336,note_on,,,,,0,0,2,,,,,1,,,65,90
24336,note_off,,,,,144,0,3,,,,,2,,,60,0
24336,note_on,,,,,0,0,3,,,,,2,,,62,81
24336,note_off,,,,,144,0,2,,,,,1,,,64,0
24384,note_off,,,,,48,0,3,,,,,2,,,62,0
24384,note_on,,,,,0,0,3,,,,,2,,,55,81
24384,note_off,,,,,48,0,2,,,,,1,,,65,0
24384,note_on,,,,,0,0,2,,,,,1,,,62,90
24528,note_off,,,,,144,0,2,,,,,1,,,62,0
24528,note_off,,,,,144,0,3,,,,,2,,,55,0
24528,note_on,,,,,0,0,3,,,,,2,,,60,81
24528,note_on,,,,,0,0,2,,,,,1,,,64,90
24576,note_on,,,,,384,0,1,,,,,0,,,84,106
24576,note_on,,,,,0,0,2,,,,,1,,,60,90
24576,note_on,,,,,0,0,3,,,,,2,,,52,81
24576,note_off,,,,,48,0,2,,,,,1,,,64,0
24576,note_off,,,,,48,0,3,,,,,2,,,60,0
24864,note_on,,,,,0,0,1,,,,,0,,,83,106
24864,note_off,,,,,288,0,1,,,,,0,,,84,0
24960,note_off,,,,,96,0,1,,,,,0,,,83,0
24960,note_on,,,,,0,0,1,,,,,0,,,81,106
24960,note_off,,,,,384,0,3,,,,,2,,,52,0
24960,note_on,,,,,0,0,3,,,,,2,,,53,81
25104,note_on,,,,,0,0,1,,,,,0,,,86,106
25104,note_off,,,,,144,0,1,,,,,0,,,81,0
25152,note_on,,,,,0,0,1,,,,,0,,,84,106
25152,note_on,,,,,0,0,3,,,,,2,,,57,81
25152,note_off,,,,,192,0,3,,,,,2,,,53,0
25152,note_off,,,,,48,0,1,,,,,0,,,86,0
25296,note_off,,,,,144,0,1,,,,,0,,,84,0
25296,note_on,,,,,0,0,1,,,,,0,,,81,106
25344,note_on,,,,,1152,0,4,,,,,3,,,48,78
25344,note_on,,,,,0,0,3,,,,,2,,,52,81
25344,note_off,,,,,192,0,3,,,,,2,,,57,0
25344,note_off,,,,,768,0,2,,,,,1,,,60,0
25344,note_on,,,,,0,0,1,,,,,0,,,79,106
25344,note_off,,,,,48,0,1,,,,,0,,,81,0
25536,note_off,,,,,192,0,3,,,,,2,,,52,0
25536,note_on,,,,,0,0,3,,,,,2,,,64,81
25536,note_off,,,,,192,0,4,,,,,3,,,48,0
25536,note_on,,,,,0,0,4,,,,,3,,,60,78
25632,note_on,,,,,0,0,1,,,,,0,,,77,106
25632,note_off,,,,,288,0,1,,,,,0,,,79,0
25664,note_on,,,,,0,0,1,,,,,0,,,76,106
25664,note_off,,,,,32,0,1,,,,,0,,,77,0
25680,note_off,,,,,144,0,4,,,,,3,,,60,0
25680,note_off,,,,,144,0,3,,,,,2,,,64,0
25680,note_on,,,,,0,0,3,,,,,2,,,65,81
25680,note_on,,,,,0,0,4,,,,,3,,,62,78
25696,note_off,,,,,32,0,1,,,,,0,,,76,0
25696,note_on,,,,,0,0,1,,,,,0,,,74,106
25728,note_on,,,,,0,0,3,,,,,2,,,67,81
25728,note_on,,,,,0,0,4,,,,,3,,,64,78
25728,note_on,,,,,0,0,1,,,,,0,,,73,106
25728,note_off,,,,,48,0,4,,,,,3,,,62,0
25728,note_off,,,,,48,0,3,,,,,2,,,65,0
25728,note_off,,,,,32,0,1,,,,,0,,,74,0
25920,note_on,,,,,0,0,1,,,,,0,,,82,106
25920,note_on,,,,,576,0,2,,,,,1,,,73,90
25920,note_off,,,,,192,0,1,,,,,0,,,73,0
26064,note_on,,,,,0,0,1,,,,,0,,,81,106
26064,note_off,,,,,144,0,1,,,,,0,,,82,0
26112,note_on,,,,,0,0,1,,,,,0,,,81,106
26112,note_off,,,,,48,0,1,,,,,0,,,81,0
26112,note_off,,,,,384,0,3,,,,,2,,,67,0
26112,note_on,,,,,0,0,3,,,,,2,,,69,81
26112,note_on,,,,,0,0,4,,,,,3,,,65,78
26112,note_off,,,,,192,0,2,,,,,1,,,73,0
26112,note_on,,,,,0,0,2,,,,,1,,,74,90
26112,note_off,,,,,384,0,4,,,,,3,,,64,0
26304,note_off,,,,,192,0,4,,,,,3,,,65,0
26304,note_off,,,,,192,0,2,,,,,1,,,74,0
26304,note_off,,,,,192,0,3,,,,,2,,,69,0
26400,note_off,,,,,288,0,1,,,,,0,,,81,0
26400,note_on,,,,,0,0,1,,,,,0,,,79,106
26496,note_off,,,,,96,0,1,,,,,0,,,79,0
26496,note_on,,,,,0,0,1,,,,,0,,,77,106
26640,note_off,,,,,144,0,1,,,,,0,,,77,0
26640,note_on,,,,,0,0,1,,,,,0,,,79,106
26688,note_off,,,,,48,0,1,,,,,0,,,79,0
26688,note_on,,,,,0,0,1,,,,,0,,,76,106
26832,note_on,,,,,0,0,1,,,,,0,,,77,106
26832,note_off,,,,,144,0,1,,,,,0,,,76,0
26880,note_on,,,,,576,0,3,,,,,2,,,69,81
26880,note_on,,,,,0,0,1,,,,,0,,,74,106
26880,note_off,,,,,48,0,1,,,,,0,,,77,0
26880,note_on,,,,,576,0,4,,,,,3,,,65,78
27168,note_off,,,,,288,0,4,,,,,3,,,65,0
27168,note_on,,,,,0,0,3,,,,,2,,,67,81
27168,note_on,,,,,0,0,4,,,,,3,,,64,78
27168,note_off,,,,,288,0,3,,,,,2,,,69,0
27264,note_off,,,,,96,0,3,,,,,2,,,67,0
27264,note_on,,,,,0,0,3,,,,,2,,,65,81
27264,note_off,,,,,96,0,4,,,,,3,,,64,0
27264,note_on,,,,,0,0,4,,,,,3,,,62,78
27264,note_off,,,,,384,0,1,,,,,0,,,74,0
27408,note_off,,,,,144,0,4,,,,,3,,,62,0
27408,note_on,,,,,0,0,4,,,,,3,,,64,78
27408,note_off,,,,,144,0,3,,,,,2,,,65,0
27408,note_on,,,,,0,0,3,,,,,2,,,67,81
27456,note_off,,,,,48,0,3,,,,,2,,,67,0
27456,note_on,,,,,0,0,4,,,,,3,,,60,78
27456,note_on,,,,,0,0,3,,,,,2,,,64,81
27456,note_off,,,,,48,0,4,,,,,3,,,64,0
27600,note_on,,,,,0,0,4,,,,,3,,,62,78
27600,note_off,,,,,144,0,3,,,,,2,,,64,0
27600,note_on,,,,,0,0,3,,,,,2,,,65,81
27600,note_off,,,,,144,0,4,,,,,3,,,60,0
27648,note_on,,,,,0,0,3,,,,,2,,,62,81
27648,note_off,,,,,48,0,3,,,,,2,,,65,0
27648,note_on,,,,,384,0,1,,,,,0,,,89,106
27648,note_on,,,,,0,0,4,,,,,3,,,59,78
27648,note_off,,,,,48,0,4,,,,,3,,,62,0
27888,note_off,,,,,240,0,1,,,,,0,,,89,0
27888,note_on,,,,,0,0,1,,,,,0,,,88,106
27936,note_on,,,,,0,0,1,,,,,0,,,86,106
27936,note_off,,,,,48,0,1,,,,,0,,,88,0
27984,note_off,,,,,48,0,1,,,,,0,,,86,0
27984,note_on,,,,,0,0,1,,,,,0,,,84,106
28032,note_on,,,,,0,0,3,,,,,2,,,67,81
28032,note_on,,,,,0,0,1,,,,,0,,,83,106
28032,note_off,,,,,48,0,1,,,,,0,,,84,0
28032,note_off,,,,,384,0,3,,,,,2,,,62,0
28080,note_off,,,,,48,0,1,,,,,0,,,83,0
28128,note_on,,,,,48,0,1,,,,,0,,,81,106
28176,note_off,,,,,48,0,1,,,,,0,,,81,0
28224,note_on,,,,,48,0,1,,,,,0,,,79,106
28272,note_off,,,,,48,0,1,,,,,0,,,79,0
28320,note_on,,,,,48,0,1,,,,,0,,,77,106
28368,note_off,,,,,48,0,1,,,,,0,,,77,0
28416,note_off,,,,,768,0,4,,,,,3,,,59,0
28416,note_on,,,,,0,0,4,,,,,3,,,60,78
28416,note_on,,,,,0,0,3,,,,,2,,,67,81
28416,note_off,,,,,384,0,3,,,,,2,,,67,0
28416,note_on,,,,,48,0,1,,,,,0,,,76,106
28608,note_off,,,,,192,0,3,,,,,2,,,67,0
28608,note_on,,,,,0,0,3,,,,,2,,,64,81
28608,note_off,,,,,192,0,1,,,,,0,,,76,0
28608,note_on,,,,,0,0,1,,,,,0,,,79,106
28608,note_off,,,,,192,0,4,,,,,3,,,60,0
28608,note_on,,,,,0,0,4,,,,,3,,,61,78
28608,note_on,,,,,2304,0,2,,,,,1,,,70,90
28800,note_off,,,,,192,0,1,,,,,0,,,79,0
28800,note_on,,,,,0,0,1,,,,,0,,,77,106
28800,note_off,,,,,192,0,4,,,,,3,,,61,0
28800,note_on,,,,,0,0,4,,,,,3,,,62,78
28800,note_off,,,,,192,0,2,,,,,1,,,70,0
28800,note_on,,,,,0,0,2,,,,,1,,,69,90
28800,note_on,,,,,0,0,3,,,,,2,,,65,81
28800,note_off,,,,,192,0,3,,,,,2,,,64,0
28992,note_on,,,,,0,0,4,,,,,3,,,62,78
28992,note_on,,,,,0,0,1,,,,,0,,,81,106
28992,note_off,,,,,192,0,2,,,,,1,,,69,0
28992,note_off,,,,,192,0,3,,,,,2,,,65,0
28992,note_off,,,,,192,0,4,,,,,3,,,62,0
28992,note_off,,,,,192,0,1,,,,,0,,,77,0
28992,note_on,,,,,0,0,3,,,,,2,,,65,81
28992,note_on,,,,,0,0,2,,,,,1,,,71,90
29184,note_off,,,,,192,0,4,,,,,3,,,62,0
29184,note_on,,,,,0,0,2,,,,,1,,,72,90
29184,note_off,,,,,192,0,2,,,,,1,,,71,0
29184,note_on,,,,,0,0,3,,,,,2,,,67,81
29184,note_off,,,,,192,0,3,,,,,2,,,65,0
29184,note_off,,,,,192,0,1,,,,,0,,,81,0
29184,note_on,,,,,0,0,4,,,,,3,,,64,78
29184,note_on,,,,,0,0,1,,,,,0,,,79,106
29376,note_on,,,,,0,0,2,,,,,1,,,73,90
29376,note_off,,,,,192,0,2,,,,,1,,,72,0
29376,note_on,,,,,0,0,1,,,,,0,,,82,106
29376,note_off,,,,,192,0,4,,,,,3,,,64,0
29376,note_on,,,,,0,0,4,,,,,3,,,64,78
29376,note_off,,,,,192,0,1,,,,,0,,,79,0
29376,note_on,,,,,0,0,3,,,,,2,,,67,81
29376,note_off,,,,,192,0,3,,,,,2,,,67,0
29568,note_off,,,,,192,0,2,,,,,1,,,73,0
29568,note_on,,,,,0,0,4,,,,,3,,,65,78
29568,note_on,,,,,0,0,3,,,,,2,,,69,81
29568,note_off,,,,,192,0,3,,,,,2,,,67,0
29568,note_on,,,,,0,0,1,,,,,0,,,81,106
29568,note_off,,,,,192,0,1,,,,,0,,,82,0
29568,note_off,,,,,192,0,4,,,,,3,,,64,0
29568,note_on,,,,,0,0,2,,,,,1,,,74,90
29760,note_off,,,,,192,0,4,,,,,3,,,65,0
29760,note_on,,,,,0,0,4,,,,,3,,,65,78
29760,note_on,,,,,0,0,3,,,,,2,,,69,81
29760,note_off,,,,,192,0,3,,,,,2,,,69,0
29760,note_off,,,,,192,0,2,,,,,1,,,74,0
29760,note_on,,,,,0,0,2,,,,,1,,,74,90
29760,note_on,,,,,0,0,1,,,,,0,,,86,106
29760,note_off,,,,,192,0,1,,,,,0,,,81,0
29904,note_on,,,,,0,0,1,,,,,0,,,84,106
29904,note_off,,,,,144,0,1,,,,,0,,,86,0
29952,note_off,,,,,192,0,4,,,,,3,,,65,0
29952,note_off,,,,,192,0,3,,,,,2,,,69,0
29952,note_on,,,,,0,0,4,,,,,3,,,65,78
29952,note_on,,,,,0,0,1,,,,,0,,,84,106
29952,note_on,,,,,0,0,3,,,,,2,,,68,81
29952,note_off,,,,,48,0,1,,,,,0,,,84,0
29952,note_off,,,,,192,0,2,,,,,1,,,74,0
29952,note_on,,,,,0,0,2,,,,,1,,,74,90
30336,note_off,,,,,384,0,1,,,,,0,,,84,0
30336,note_on,,,,,0,0,1,,,,,0,,,83,106
30336,note_on,,,,,0,0,3,,,,,2,,,67,81
30336,note_off,,,,,384,0,3,,,,,2,,,68,0
30528,note_off,,,,,192,0,1,,,,,0,,,83,0
30528,note_off,,,,,192,0,3,,,,,2,,,67,0
30528,note_off,,,,,576,0,4,,,,,3,,,65,0
30528,note_off,,,,,576,0,2,,,,,1,,,74,0
30720,note_on,,,,,192,0,2,,,,,1,,,72,90
30720,note_on,,,,,192,0,3,,,,,2,,,67,81
30720,note_on,,,,,192,0,1,,,,,0,,,84,106
30720,note_on,,,,,192,0,4,,,,,3,,,64,78
30912,note_off,,,,,192,0,4,,,,,3,,,64,0
30912,note_on,,,,,0,0,4,,,,,3,,,63,78
31104,note_on,,,,,0,0,4,,,,,3,,,62,78
31104,note_off,,,,,192,0,4,,,,,3,,,63,0
31200,note_off,,,,,480,0,1,,,,,0,,,84,0
31200,note_on,,,,,0,0,1,,,,,0,,,83,106
31200,note_on,,,,,0,0,2,,,,,1,,,71,90
31200,note_off,,,,,480,0,2,,,,,1,,,72,0
31296,note_off,,,,,192,0,4,,,,,3,,,62,0
31296,note_on,,,,,0,0,4,,,,,3,,,61,78
31296,note_on,,,,,0,0,2,,,,,1,,,71,90
31296,note_off,,,,,96,0,2,,,,,1,,,71,0
31296,note_off,,,,,96,0,1,,,,,0,,,83,0
31296,note_on,,,,,0,0,1,,,,,0,,,83,106
31392,note_off,,,,,96,0,2,,,,,1,,,71,0
31392,note_on,,,,,0,0,2,,,,,1,,,70,90
31392,note_off,,,,,96,0,1,,,,,0,,,83,0
31392,note_on,,,,,0,0,1,,,,,0,,,82,106
31488,note_on,,,,,0,0,4,,,,,3,,,62,78
31488,note_off,,,,,96,0,1,,,,,0,,,82,0
31488,note_on,,,,,0,0,1,,,,,0,,,81,106
31488,note_on,,,,,0,0,3,,,,,2,,,67,81
31488,note_off,,,,,768,0,3,,,,,2,,,67,0
31488,note_off,,,,,96,0,2,,,,,1,,,70,0
31488,note_off,,,,,192,0,4,,,,,3,,,61,0
31488,note_on,,,,,0,0,2,,,,,1,,,69,90
31680,note_on,,,,,0,0,3,,,,,2,,,66,81
31680,note_off,,,,,192,0,3,,,,,2,,,67,0
31872,note_off,,,,,192,0,3,,,,,2,,,66,0
31872,note_on,,,,,0,0,3,,,,,2,,,65,81
31968,note_on,,,,,0,0,2,,,,,1,,,68,90
31968,note_off,,,,,480,0,2,,,,,1,,,69,0
31968,note_off,,,,,480,0,1,,,,,0,,,81,0
31968,note_on,,,,,0,0,1,,,,,0,,,80,106
32064,note_off,,,,,96,0,2,,,,,1,,,68,0
32064,note_off,,,,,576,0,4,,,,,3,,,62,0
32064,note_on,,,,,0,0,4,,,,,3,,,59,78
32064,note_on,,,,,0,0,2,,,,,1,,,68,90
32064,note_on,,,,,0,0,1,,,,,0,,,80,106
32064,note_off,,,,,96,0,1,,,,,0,,,80,0
32160,note_off,,,,,96,0,2,,,,,1,,,68,0
32160,note_on,,,,,0,0,2,,,,,1,,,67,90
32160,note_off,,,,,96,0,1,,,,,0,,,80,0
32160,note_on,,,,,0,0,1,,,,,0,,,79,106
32256,note_off,,,,,96,0,1,,,,,0,,,79,0
32256,note_on,,,,,0,0,2,,,,,1,,,67,90
32256,note_on,,,,,0,0,3,,,,,2,,,64,81
32256,note_on,,,,,0,0,4,,,,,3,,,60,78
32256,note_off,,,,,192,0,4,,,,,3,,,59,0
32256,note_off,,,,,96,0,2,,,,,1,,,67,0
32256,note_off,,,,,384,0,3,,,,,2,,,65,0
32256,note_on,,,,,0,0,1,,,,,0,,,79,106
32448,note_off,,,,,192,0,3,,,,,2,,,64,0
32448,note_on,,,,,0,0,3,,,,,2,,,64,81
32448,note_off,,,,,192,0,2,,,,,1,,,67,0
32448,note_on,,,,,0,0,4,,,,,3,,,58,78
32448,note_off,,,,,192,0,4,,,,,3,,,60,0
32448,note_on,,,,,0,0,2,,,,,1,,,72,90
32640,note_off,,,,,192,0,2,,,,,1,,,72,0
32640,note_on,,,,,0,0,2,,,,,1,,,71,90
32640,note_on,,,,,0,0,4,,,,,3,,,59,78
32640,note_off,,,,,192,0,4,,,,,3,,,58,0
32736,note_on,,,,,0,0,1,,,,,0,,,78,106
32736,note_off,,,,,480,0,1,,,,,0,,,79,0
32832,note_on,,,,,0,0,2,,,,,1,,,69,90
32832,note_off,,,,,192,0,2,,,,,1,,,71,0
32832,note_off,,,,,96,0,1,,,,,0,,,78,0
32832,note_off,,,,,384,0,3,,,,,2,,,64,0
32832,note_on,,,,,0,0,3,,,,,2,,,63,81
32832,note_on,,,,,0,0,1,,,,,0,,,78,106
32928,note_off,,,,,96,0,1,,,,,0,,,78,0
32928,note_on,,,,,0,0,1,,,,,0,,,76,106
33024,note_on,,,,,0,0,4,,,,,3,,,52,78
33024,note_off,,,,,192,0,3,,,,,2,,,63,0
33024,note_on,,,,,0,0,2,,,,,1,,,68,90
33024,note_on,,,,,0,0,3,,,,,2,,,64,81
33024,note_off,,,,,192,0,2,,,,,1,,,69,0
33024,note_off,,,,,96,0,1,,,,,0,,,76,0
33024,note_on,,,,,0,0,1,,,,,0,,,76,106
33024,note_off,,,,,384,0,4,,,,,3,,,59,0
33216,note_off,,,,,192,0,1,,,,,0,,,76,0
33216,note_on,,,,,0,0,1,,,,,0,,,80,106
33216,note_on,,,,,0,0,2,,,,,1,,,71,90
33216,note_off,,,,,192,0,2,,,,,1,,,68,0
33408,note_off,,,,,384,0,3,,,,,2,,,64,0
33408,note_on,,,,,0,0,3,,,,,2,,,63,81
33408,note_on,,,,,0,0,2,,,,,1,,,71,90
33408,note_off,,,,,192,0,2,,,,,1,,,71,0
33408,note_off,,,,,384,0,4,,,,,3,,,52,0
33408,note_on,,,,,0,0,1,,,,,0,,,80,106
33408,note_off,,,,,192,0,1,,,,,0,,,80,0
33504,note_off,,,,,96,0,2,,,,,1,,,71,0
33504,note_on,,,,,0,0,1,,,,,0,,,78,106
33504,note_off,,,,,96,0,1,,,,,0,,,80,0
33504,note_on,,,,,0,0,2,,,,,1,,,69,90
33600,note_off,,,,,192,0,3,,,,,2,,,63,0
33600,note_on,,,,,0,0,2,,,,,1,,,69,90
33600,note_off,,,,,96,0,2,,,,,1,,,69,0
33600,note_on,,,,,0,0,1,,,,,0,,,78,106
33600,note_on,,,,,0,0,3,,,,,2,,,64,81
33600,note_off,,,,,96,0,1,,,,,0,,,78,0
33696,note_on,,,,,0,0,1,,,,,0,,,76,106
33696,note_off,,,,,96,0,2,,,,,1,,,69,0
33696,note_on,,,,,0,0,2,,,,,1,,,68,90
33696,note_off,,,,,96,0,1,,,,,0,,,78,0
33792,note_on,,,,,0,0,1,,,,,0,,,75,106
33792,note_off,,,,,96,0,2,,,,,1,,,68,0
33792,note_off,,,,,96,0,1,,,,,0,,,76,0
33792,note_on,,,,,0,0,2,,,,,1,,,66,90
33792,note_off,,,,,192,0,3,,,,,2,,,64,0
33792,note_on,,,,,0,0,3,,,,,2,,,59,81
33984,note_on,,,,,0,0,1,,,,,0,,,85,106
33984,note_on,,,,,576,0,4,,,,,3,,,57,78
33984,note_off,,,,,192,0,1,,,,,0,,,75,0
33984,note_off,,,,,192,0,2,,,,,1,,,66,0
33984,note_on,,,,,0,0,2,,,,,1,,,75,90
34176,note_on,,,,,0,0,4,,,,,3,,,56,78
34176,note_off,,,,,192,0,4,,,,,3,,,57,0
34176,note_on,,,,,0,0,2,,,,,1,,,76,90
34176,note_off,,,,,192,0,2,,,,,1,,,75,0
34176,note_off,,,,,192,0,1,,,,,0,,,85,0
34176,note_on,,,,,0,0,1,,,,,0,,,85,106
34272,note_off,,,,,96,0,1,,,,,0,,,85,0
34272,note_on,,,,,0,0,1,,,,,0,,,83,106
34368,note_off,,,,,192,0,2,,,,,1,,,76,0
34368,note_on,,,,,0,0,2,,,,,1,,,78,90
34368,note_off,,,,,96,0,1,,,,,0,,,83,0
34368,note_off,,,,,192,0,4,,,,,3,,,56,0
34368,note_on,,,,,0,0,4,,,,,3,,,51,78
34368,note_on,,,,,0,0,1,,,,,0,,,83,106
34464,note_on,,,,,0,0,1,,,,,0,,,81,106
34464,note_off,,,,,96,0,1,,,,,0,,,83,0
34560,note_on,,,,,0,0,4,,,,,3,,,52,78
34560,note_off,,,,,192,0,4,,,,,3,,,51,0
34560,note_off,,,,,192,0,2,,,,,1,,,78,0
34560,note_on,,,,,0,0,1,,,,,0,,,80,106
34560,note_off,,,,,96,0,1,,,,,0,,,81,0
34560,note_on,,,,,0,0,2,,,,,1,,,76,90
34560,note_on,,,,,0,0,3,,,,,2,,,59,81
34560,note_off,,,,,768,0,3,,,,,2,,,59,0
34656,note_off,,,,,96,0,3,,,,,2,,,59,0
34752,note_on,,,,,0,0,1,,,,,0,,,80,106
34752,note_on,,,,,0,0,2,,,,,1,,,71,90
34752,note_off,,,,,192,0,1,,,,,0,,,80,0
34752,note_off,,,,,192,0,2,,,,,1,,,76,0
34752,note_on,,,,,96,0,3,,,,,2,,,64,81
34944,note_off,,,,,192,0,3,,,,,2,,,64,0
34944,note_off,,,,,384,0,4,,,,,3,,,52,0
34944,note_on,,,,,0,0,3,,,,,2,,,63,81
35040,note_off,,,,,288,0,2,,,,,1,,,71,0
35040,note_off,,,,,288,0,1,,,,,0,,,80,0
35040,note_on,,,,,0,0,2,,,,,1,,,69,90
35040,note_on,,,,,0,0,1,,,,,0,,,78,106
35136,note_off,,,,,192,0,3,,,,,2,,,63,0
35136,note_on,,,,,0,0,3,,,,,2,,,64,81
35136,note_off,,,,,96,0,2,,,,,1,,,69,0
35136,note_on,,,,,0,0,2,,,,,1,,,69,90
35136,note_on,,,,,0,0,1,,,,,0,,,78,106
35136,note_off,,,,,96,0,1,,,,,0,,,78,0
35232,note_on,,,,,0,0,1,,,,,0,,,76,106
35232,note_off,,,,,96,0,1,,,,,0,,,78,0
35232,note_on,,,,,0,0,2,,,,,1,,,68,90
35232,note_off,,,,,96,0,2,,,,,1,,,69,0
35328,note_off,,,,,96,0,2,,,,,1,,,68,0
35328,note_off,,,,,192,0,3,,,,,2,,,64,0
35328,note_off,,,,,96,0,1,,,,,0,,,76,0
35328,note_on,,,,,0,0,1,,,,,0,,,75,106
35328,note_on,,,,,0,0,3,,,,,2,,,59,81
35328,note_on,,,,,0,0,2,,,,,1,,,66,90
35520,note_off,,,,,192,0,1,,,,,0,,,75,0
35520,note_on,,,,,0,0,1,,,,,0,,,85,106
35520,note_off,,,,,192,0,2,,,,,1,,,66,0
35520,note_on,,,,,0,0,2,,,,,1,,,75,90
35520,note_on,,,,,576,0,4,,,,,3,,,57,78
35712,note_on,,,,,0,0,4,,,,,3,,,56,78
35712,note_off,,,,,192,0,4,,,,,3,,,57,0
35712,note_on,,,,,0,0,2,,,,,1,,,76,90
35712,note_off,,,,,192,0,2,,,,,1,,,75,0
35808,note_on,,,,,0,0,1,,,,,0,,,83,106
35808,note_off,,,,,288,0,1,,,,,0,,,85,0
35904,note_on,,,,,0,0,2,,,,,1,,,78,90
35904,note_off,,,,,192,0,2,,,,,1,,,76,0
35904,note_on,,,,,0,0,4,,,,,3,,,51,78
35904,note_off,,,,,192,0,4,,,,,3,,,56,0
35904,note_off,,,,,96,0,1,,,,,0,,,83,0
35904,note_on,,,,,0,0,1,,,,,0,,,83,106
36000,note_off,,,,,96,0,1,,,,,0,,,83,0
36000,note_on,,,,,0,0,1,,,,,0,,,81,106
36096,note_on,,,,,0,0,2,,,,,1,,,71,90
36096,note_off,,,,,192,0,4,,,,,3,,,51,0
36096,note_off,,,,,192,0,2,,,,,1,,,78,0
36096,note_on,,,,,0,0,3,,,,,2,,,59,81
36096,note_off,,,,,768,0,3,,,,,2,,,59,0
36096,note_on,,,,,0,0,1,,,,,0,,,80,106
36096,note_on,,,,,0,0,4,,,,,3,,,52,78
36096,note_off,,,,,96,0,1,,,,,0,,,81,0
36160,note_on,,,,,0,0,2,,,,,1,,,73,90
36160,note_off,,,,,64,0,2,,,,,1,,,71,0
36224,note_off,,,,,64,0,2,,,,,1,,,73,0
36224,note_on,,,,,0,0,2,,,,,1,,,71,90
36288,note_on,,,,,0,0,1,,,,,0,,,78,106
36288,note_off,,,,,192,0,1,,,,,0,,,80,0
36288,note_off,,,,,64,0,2,,,,,1,,,71,0
36288,note_off,,,,,192,0,3,,,,,2,,,59,0
36288,note_on,,,,,0,0,3,,,,,2,,,63,81
36288,note_on,,,,,0,0,2,,,,,1,,,69,90
36352,note_on,,,,,0,0,2,,,,,1,,,71,90
36352,note_off,,,,,64,0,2,,,,,1,,,69,0
36416,note_off,,,,,64,0,2,,,,,1,,,71,0
36416,note_on,,,,,0,0,2,,,,,1,,,69,90
36480,note_on,,,,,0,0,2,,,,,1,,,68,90
36480,note_off,,,,,64,0,2,,,,,1,,,69,0
36480,note_off,,,,,192,0,1,,,,,0,,,78,0
36480,note_off,,,,,192,0,3,,,,,2,,,63,0
36480,note_on,,,,,0,0,3,,,,,2,,,64,81
36480,note_on,,,,,0,0,1,,,,,0,,,76,106
36544,note_on,,,,,0,0,2,,,,,1,,,69,90
36544,note_off,,,,,64,0,2,,,,,1,,,68,0
36608,note_on,,,,,0,0,2,,,,,1,,,68,90
36608,note_off,,,,,64,0,2,,,,,1,,,69,0
36672,note_on,,,,,0,0,3,,,,,2,,,69,81
36672,note_off,,,,,576,0,4,,,,,3,,,52,0
36672,note_on,,,,,0,0,4,,,,,3,,,54,78
36672,note_on,,,,,0,0,1,,,,,0,,,75,106
36672,note_off,,,,,192,0,1,,,,,0,,,76,0
36672,note_off,,,,,64,0,2,,,,,1,,,68,0
36672,note_on,,,,,0,0,2,,,,,1,,,66,90
36672,note_off,,,,,192,0,3,,,,,2,,,64,0
36736,note_off,,,,,64,0,2,,,,,1,,,66,0
36736,note_on,,,,,0,0,2,,,,,1,,,68,90
36800,note_off,,,,,64,0,2,,,,,1,,,68,0
36800,note_on,,,,,0,0,2,,,,,1,,,66,90
36864,note_off,,,,,192,0,3,,,,,2,,,69,0
36864,note_on,,,,,0,0,3,,,,,2,,,71,81
36864,note_on,,,,,0,0,2,,,,,1,,,64,90
36864,note_off,,,,,192,0,4,,,,,3,,,54,0
36864,note_on,,,,,0,0,4,,,,,3,,,56,78
36864,note_on,,,,,0,0,1,,,,,0,,,74,106
36864,note_off,,,,,192,0,1,,,,,0,,,75,0
36864,note_off,,,,,64,0,2,,,,,1,,,66,0
36928,note_on,,,,,0,0,2,,,,,1,,,66,90
36928,note_off,,,,,64,0,2,,,,,1,,,64,0
36992,note_on,,,,,0,0,2,,,,,1,,,64,90
36992,note_off,,,,,64,0,2,,,,,1,,,66,0
37056,note_on,,,,,0,0,2,,,,,1,,,63,90
37056,note_off,,,,,64,0,2,,,,,1,,,64,0
37120,note_off,,,,,64,0,2,,,,,1,,,63,0
37120,note_on,,,,,0,0,2,,,,,1,,,64,90
37184,note_on,,,,,0,0,2,,,,,1,,,63,90
37184,note_off,,,,,64,0,2,,,,,1,,,64,0
37248,note_off,,,,,64,0,2,,,,,1,,,63,0
37248,note_on,,,,,0,0,2,,,,,1,,,64,90
37312,note_off,,,,,64,0,2,,,,,1,,,64,0
37312,note_on,,,,,0,0,2,,,,,1,,,66,90
37376,note_off,,,,,64,0,2,,,,,1,,,66,0
37376,note_on,,,,,0,0,2,,,,,1,,,64,90
37440,note_off,,,,,576,0,1,,,,,0,,,74,0
37440,note_on,,,,,0,0,4,,,,,3,,,56,78
37440,note_off,,,,,576,0,4,,,,,3,,,56,0
37440,note_off,,,,,576,0,3,,,,,2,,,71,0
37440,note_on,,,,,0,0,3,,,,,2,,,59,81
37440,note_on,,,,,0,0,1,,,,,0,,,78,106
37440,note_off,,,,,64,0,2,,,,,1,,,64,0
37440,note_on,,,,,0,0,2,,,,,1,,,62,90
37504,note_on,,,,,0,0,2,,,,,1,,,64,90
37504,note_off,,,,,64,0,2,,,,,1,,,62,0
37568,note_off,,,,,64,0,2,,,,,1,,,64,0
37568,note_on,,,,,0,0,2,,,,,1,,,62,90
37584,note_off,,,,,144,0,1,,,,,0,,,78,0
37584,note_on,,,,,0,0,1,,,,,0,,,76,106
37632,note_on,,,,,0,0,2,,,,,1,,,61,90
37632,note_on,,,,,0,0,1,,,,,0,,,76,106
37632,note_on,,,,,0,0,3,,,,,2,,,57,81
37632,note_off,,,,,192,0,3,,,,,2,,,59,0
37632,note_off,,,,,48,0,1,,,,,0,,,76,0
37632,note_on,,,,,0,0,4,,,,,3,,,57,78
37632,note_off,,,,,192,0,4,,,,,3,,,56,0
37632,note_off,,,,,64,0,2,,,,,1,,,62,0
37696,note_off,,,,,64,0,3,,,,,2,,,57,0
37696,note_off,,,,,64,0,2,,,,,1,,,61,0
37696,note_on,,,,,0,0,3,,,,,2,,,59,81
37696,note_on,,,,,0,0,2,,,,,1,,,62,90
37760,note_off,,,,,64,0,2,,,,,1,,,62,0
37760,note_on,,,,,0,0,2,,,,,1,,,61,90
37760,note_off,,,,,64,0,3,,,,,2,,,59,0
37760,note_on,,,,,0,0,3,,,,,2,,,57,81
37824,note_off,,,,,64,0,3,,,,,2,,,57,0
37824,note_on,,,,,0,0,2,,,,,1,,,59,90
37824,note_on,,,,,0,0,3,,,,,2,,,56,81
37824,note_off,,,,,64,0,2,,,,,1,,,61,0
37888,note_on,,,,,0,0,2,,,,,1,,,61,90
37888,note_off,,,,,64,0,2,,,,,1,,,59,0
37888,note_off,,,,,64,0,3,,,,,2,,,56,0
37888,note_on,,,,,0,0,3,,,,,2,,,57,81
37920,note_on,,,,,0,0,1,,,,,0,,,74,106
37920,note_off,,,,,288,0,1,,,,,0,,,76,0
37952,note_on,,,,,0,0,2,,,,,1,,,59,90
37952,note_off,,,,,64,0,2,,,,,1,,,61,0
37952,note_on,,,,,0,0,3,,,,,2,,,56,81
37952,note_off,,,,,64,0,3,,,,,2,,,57,0
38016,note_off,,,,,96,0,1,,,,,0,,,74,0
38016,note_on,,,,,0,0,3,,,,,2,,,57,81
38016,note_off,,,,,384,0,4,,,,,3,,,57,0
38016,note_on,,,,,0,0,2,,,,,1,,,61,90
38016,note_off,,,,,64,0,2,,,,,1,,,59,0
38016,note_off,,,,,64,0,3,,,,,2,,,56,0
38016,note_on,,,,,0,0,1,,,,,0,,,73,106
38080,note_off,,,,,64,0,3,,,,,2,,,57,0
38080,note_off,,,,,64,0,2,,,,,1,,,61,0
38080,note_on,,,,,0,0,2,,,,,1,,,59,90
38080,note_on,,,,,0,0,3,,,,,2,,,56,81
38144,note_off,,,,,64,0,3,,,,,2,,,56,0
38144,note_on,,,,,0,0,3,,,,,2,,,57,81
38144,note_off,,,,,64,0,2,,,,,1,,,59,0
38144,note_on,,,,,0,0,2,,,,,1,,,61,90
38160,note_on,,,,,0,0,1,,,,,0,,,74,106
38160,note_off,,,,,144,0,1,,,,,0,,,73,0
38208,note_on,,,,,0,0,3,,,,,2,,,59,81
38208,note_off,,,,,64,0,2,,,,,1,,,61,0
38208,note_off,,,,,48,0,1,,,,,0,,,74,0
38208,note_on,,,,,0,0,1,,,,,0,,,71,106
38208,note_off,,,,,64,0,3,,,,,2,,,57,0
38208,note_on,,,,,0,0,2,,,,,1,,,62,90
38272,note_off,,,,,64,0,3,,,,,2,,,59,0
38272,note_off,,,,,64,0,2,,,,,1,,,62,0
38272,note_on,,,,,0,0,2,,,,,1,,,61,90
38272,note_on,,,,,0,0,3,,,,,2,,,57,81
38336,note_off,,,,,64,0,3,,,,,2,,,57,0
38336,note_off,,,,,64,0,2,,,,,1,,,61,0
38336,note_on,,,,,0,0,3,,,,,2,,,59,81
38336,note_on,,,,,0,0,2,,,,,1,,,62,90
38352,note_off,,,,,144,0,1,,,,,0,,,71,0
38352,note_on,,,,,0,0,1,,,,,0,,,73,106
38400,note_off,,,,,64,0,3,,,,,2,,,59,0
38400,note_on,,,,,0,0,1,,,,,0,,,69,106
38400,note_off,,,,,48,0,1,,,,,0,,,73,0
38400,note_off,,,,,64,0,2,,,,,1,,,62,0
38400,note_on,,,,,0,0,2,,,,,1,,,64,90
38400,note_on,,,,,0,0,3,,,,,2,,,61,81
38464,note_off,,,,,64,0,3,,,,,2,,,61,0
38464,note_on,,,,,0,0,3,,,,,2,,,60,81
38464,note_off,,,,,64,0,2,,,,,1,,,64,0
38464,note_on,,,,,0,0,2,,,,,1,,,63,90
38528,note_off,,,,,64,0,3,,,,,2,,,60,0
38528,note_on,,,,,0,0,2,,,,,1,,,64,90
38528,note_on,,,,,0,0,3,,,,,2,,,61,81
38528,note_off,,,,,64,0,2,,,,,1,,,63,0
38592,note_off,,,,,64,0,2,,,,,1,,,64,0
38592,note_on,,,,,0,0,3,,,,,2,,,57,81
38592,note_on,,,,,0,0,2,,,,,1,,,61,90
38592,note_off,,,,,64,0,3,,,,,2,,,61,0
38656,note_on,,,,,0,0,2,,,,,1,,,62,90
38656,note_off,,,,,64,0,3,,,,,2,,,57,0
38656,note_on,,,,,0,0,3,,,,,2,,,59,81
38656,note_off,,,,,64,0,2,,,,,1,,,61,0
38688,note_off,,,,,288,0,1,,,,,0,,,69,0
38688,note_on,,,,,0,0,1,,,,,0,,,68,106
38720,note_on,,,,,0,0,3,,,,,2,,,61,81
38720,note_on,,,,,0,0,2,,,,,1,,,64,90
38720,note_off,,,,,64,0,2,,,,,1,,,62,0
38720,note_off,,,,,64,0,3,,,,,2,,,59,0
38784,note_on,,,,,0,0,2,,,,,1,,,66,90
38784,note_off,,,,,96,0,1,,,,,0,,,68,0
38784,note_off,,,,,64,0,3,,,,,2,,,61,0
38784,note_off,,,,,64,0,2,,,,,1,,,64,0
38784,note_on,,,,,0,0,1,,,,,0,,,66,106
38784,note_on,,,,,0,0,3,,,,,2,,,62,81
38848,note_off,,,,,64,0,3,,,,,2,,,62,0
38848,note_on,,,,,0,0,3,,,,,2,,,57,81
38848,note_on,,,,,0,0,2,,,,,1,,,64,90
38848,note_off,,,,,64,0,2,,,,,1,,,66,0
38912,note_off,,,,,64,0,3,,,,,2,,,57,0
38912,note_on,,,,,0,0,3,,,,,2,,,54,81
38912,note_off,,,,,64,0,2,,,,,1,,,64,0
38912,note_on,,,,,0,0,2,,,,,1,,,62,90
38928,note_off,,,,,144,0,1,,,,,0,,,66,0
38928,note_on,,,,,0,0,1,,,,,0,,,71,106
38976,note_on,,,,,0,0,3,,,,,2,,,54,81
38976,note_off,,,,,64,0,3,,,,,2,,,54,0
38976,note_off,,,,,48,0,1,,,,,0,,,71,0
38976,note_on,,,,,0,0,1,,,,,0,,,69,106
38976,note_off,,,,,64,0,2,,,,,1,,,62,0
38976,note_on,,,,,0,0,2,,,,,1,,,62,90
39040,note_on,,,,,0,0,3,,,,,2,,,57,81
39040,note_off,,,,,64,0,2,,,,,1,,,62,0
39040,note_on,,,,,0,0,2,,,,,1,,,64,90
39040,note_off,,,,,64,0,3,,,,,2,,,54,0
39104,note_off,,,,,64,0,3,,,,,2,,,57,0
39104,note_on,,,,,0,0,3,,,,,2,,,62,81
39104,note_off,,,,,64,0,2,,,,,1,,,64,0
39104,note_on,,,,,0,0,2,,,,,1,,,66,90
39120,note_off,,,,,144,0,1,,,,,0,,,69,0
39120,note_on,,,,,0,0,1,,,,,0,,,66,106
39168,note_off,,,,,64,0,3,,,,,2,,,62,0
39168,note_on,,,,,0,0,1,,,,,0,,,64,106
39168,note_off,,,,,64,0,2,,,,,1,,,66,0
39168,note_on,,,,,1152,0,4,,,,,3,,,57,78
39168,note_on,,,,,0,0,2,,,,,1,,,61,90
39168,note_off,,,,,48,0,1,,,,,0,,,66,0
39168,note_on,,,,,0,0,3,,,,,2,,,57,81
39232,note_off,,,,,64,0,2,,,,,1,,,61,0
39232,note_on,,,,,0,0,2,,,,,1,,,62,90
39232,note_on,,,,,0,0,3,,,,,2,,,56,81
39232,note_on,,,,,0,0,1,,,,,0,,,66,106
39232,note_off,,,,,64,0,1,,,,,0,,,64,0
39232,note_off,,,,,64,0,3,,,,,2,,,57,0
39296,note_off,,,,,64,0,2,,,,,1,,,62,0
39296,note_off,,,,,64,0,1,,,,,0,,,66,0
39296,note_on,,,,,0,0,1,,,,,0,,,64,106
39296,note_on,,,,,0,0,3,,,,,2,,,57,81
39296,note_off,,,,,64,0,3,,,,,2,,,56,0
39296,note_on,,,,,0,0,2,,,,,1,,,61,90
39360,note_on,,,,,0,0,3,,,,,2,,,61,81
39360,note_off,,,,,64,0,3,,,,,2,,,57,0
39360,note_on,,,,,0,0,2,,,,,1,,,57,90
39360,note_off,,,,,64,0,1,,,,,0,,,64,0
39360,note_on,,,,,0,0,1,,,,,0,,,69,106
39360,note_off,,,,,64,0,2,,,,,1,,,61,0
39424,note_off,,,,,64,0,1,,,,,0,,,69,0
39424,note_on,,,,,0,0,1,,,,,0,,,67,106
39424,note_on,,,,,0,0,3,,,,,2,,,62,81
39424,note_off,,,,,64,0,3,,,,,2,,,61,0
39424,note_on,,,,,0,0,2,,,,,1,,,59,90
39424,note_off,,,,,64,0,2,,,,,1,,,57,0
39456,note_off,,,,,288,0,4,,,,,3,,,57,0
39456,note_on,,,,,0,0,4,,,,,3,,,55,78
39488,note_on,,,,,0,0,2,,,,,1,,,61,90
39488,note_off,,,,,64,0,2,,,,,1,,,59,0
39488,note_off,,,,,64,0,1,,,,,0,,,67,0
39488,note_off,,,,,64,0,3,,,,,2,,,62,0
39488,note_on,,,,,0,0,3,,,,,2,,,64,81
39488,note_on,,,,,0,0,1,,,,,0,,,64,106
39552,note_off,,,,,64,0,1,,,,,0,,,64,0
39552,note_on,,,,,0,0,1,,,,,0,,,62,106
39552,note_off,,,,,64,0,2,,,,,1,,,61,0
39552,note_on,,,,,0,0,2,,,,,1,,,62,90
39552,note_off,,,,,64,0,3,,,,,2,,,64,0
39552,note_on,,,,,0,0,3,,,,,2,,,57,81
39552,note_off,,,,,96,0,4,,,,,3,,,55,0
39552,note_on,,,,,0,0,4,,,,,3,,,54,78
39616,note_off,,,,,64,0,2,,,,,1,,,62,0
39616,note_on,,,,,0,0,2,,,,,1,,,64,90
39616,note_on,,,,,0,0,1,,,,,0,,,61,106
39616,note_off,,,,,64,0,1,,,,,0,,,62,0
39616,note_on,,,,,0,0,3,,,,,2,,,64,81
39616,note_off,,,,,64,0,3,,,,,2,,,57,0
39680,note_off,,,,,64,0,3,,,,,2,,,64,0
39680,note_on,,,,,0,0,1,,,,,0,,,62,106
39680,note_on,,,,,0,0,3,,,,,2,,,62,81
39680,note_off,,,,,64,0,2,,,,,1,,,64,0
39680,note_on,,,,,0,0,2,,,,,1,,,62,90
39680,note_off,,,,,64,0,1,,,,,0,,,61,0
39696,note_off,,,,,144,0,4,,,,,3,,,54,0
39696,note_on,,,,,0,0,4,,,,,3,,,49,78
39744,note_off,,,,,64,0,1,,,,,0,,,62,0
39744,note_on,,,,,0,0,1,,,,,0,,,66,106
39744,note_off,,,,,64,0,3,,,,,2,,,62,0
39744,note_off,,,,,48,0,4,,,,,3,,,49,0
39744,note_on,,,,,0,0,4,,,,,3,,,50,78
39744,note_on,,,,,0,0,3,,,,,2,,,62,81
39744,note_off,,,,,64,0,2,,,,,1,,,62,0
39744,note_on,,,,,0,0,2,,,,,1,,,57,90
39808,note_off,,,,,64,0,3,,,,,2,,,62,0
39808,note_on,,,,,0,0,1,,,,,0,,,65,106
39808,note_on,,,,,0,0,2,,,,,1,,,59,90
39808,note_off,,,,,64,0,2,,,,,1,,,57,0
39808,note_off,,,,,64,0,1,,,,,0,,,66,0
39808,note_on,,,,,0,0,3,,,,,2,,,50,81
39872,note_off,,,,,64,0,1,,,,,0,,,65,0
39872,note_on,,,,,0,0,1,,,,,0,,,66,106
39872,note_off,,,,,64,0,2,,,,,1,,,59,0
39872,note_off,,,,,64,0,3,,,,,2,,,50,0
39872,note_on,,,,,0,0,3,,,,,2,,,62,81
39872,note_on,,,,,0,0,2,,,,,1,,,57,90
39888,note_on,,,,,0,0,4,,,,,3,,,54,78
39888,note_off,,,,,144,0,4,,,,,3,,,50,0
39936,note_on,,,,,0,0,2,,,,,1,,,57,90
39936,note_on,,,,,0,0,4,,,,,3,,,57,78
39936,note_off,,,,,48,0,4,,,,,3,,,54,0
39936,note_off,,,,,64,0,2,,,,,1,,,57,0
39936,note_on,,,,,0,0,3,,,,,2,,,61,81
39936,note_off,,,,,64,0,3,,,,,2,,,62,0
39936,note_off,,,,,64,0,1,,,,,0,,,66,0
39936,note_on,,,,,0,0,1,,,,,0,,,64,106
39968,note_off,,,,,32,0,1,,,,,0,,,64,0
40000,note_on,,,,,32,0,1,,,,,0,,,66,106
40032,note_off,,,,,32,0,1,,,,,0,,,66,0
40064,note_on,,,,,32,0,1,,,,,0,,,68,106
40096,note_off,,,,,32,0,1,,,,,0,,,68,0
40128,note_on,,,,,32,0,1,,,,,0,,,69,106
40160,note_off,,,,,32,0,1,,,,,0,,,69,0
40192,note_on,,,,,32,0,1,,,,,0,,,71,106
40224,note_off,,,,,32,0,1,,,,,0,,,71,0
40256,note_on,,,,,32,0,1,,,,,0,,,73,106
40288,note_off,,,,,32,0,1,,,,,0,,,73,0
40320,note_on,,,,,32,0,1,,,,,0,,,74,106
40320,note_off,,,,,384,0,4,,,,,3,,,57,0
40320,note_off,,,,,384,0,3,,,,,2,,,61,0
40320,note_off,,,,,384,0,2,,,,,1,,,57,0
40352,note_off,,,,,32,0,1,,,,,0,,,74,0
40384,note_on,,,,,32,0,1,,,,,0,,,76,106
40416,note_off,,,,,32,0,1,,,,,0,,,76,0
40448,note_on,,,,,32,0,1,,,,,0,,,78,106
40480,note_off,,,,,32,0,1,,,,,0,,,78,0
40512,note_on,,,,,32,0,1,,,,,0,,,80,106
40544,note_off,,,,,32,0,1,,,,,0,,,80,0
40576,note_on,,,,,32,0,1,,,,,0,,,81,106
40608,note_off,,,,,32,0,1,,,,,0,,,81,0
40640,note_on,,,,,32,0,1,,,,,0,,,85,106
40672,note_off,,,,,32,0,1,,,,,0,,,85,0
40704,note_on,,,,,384,0,2,,,,,1,,,68,90
40704,note_on,,,,,384,0,3,,,,,2,,,64,81
40704,note_on,,,,,32,0,1,,,,,0,,,86,106
40704,note_on,,,,,384,0,4,,,,,3,,,64,78
40768,note_off,,,,,64,0,2,,,,,1,,,68,0
40768,note_on,,,,,0,0,2,,,,,1,,,69,90
40768,note_on,,,,,0,0,3,,,,,2,,,66,81
40768,note_off,,,,,64,0,3,,,,,2,,,64,0
40832,note_on,,,,,0,0,3,,,,,2,,,68,81
40832,note_on,,,,,0,0,2,,,,,1,,,71,90
40832,note_off,,,,,64,0,2,,,,,1,,,69,0
40832,note_off,,,,,64,0,3,,,,,2,,,66,0
40896,note_on,,,,,0,0,2,,,,,1,,,69,90
40896,note_off,,,,,64,0,2,,,,,1,,,71,0
40896,note_off,,,,,64,0,3,,,,,2,,,68,0
40896,note_on,,,,,0,0,3,,,,,2,,,66,81
40960,note_off,,,,,64,0,3,,,,,2,,,66,0
40960,note_on,,,,,0,0,2,,,,,1,,,68,90
40960,note_off,,,,,64,0,2,,,,,1,,,69,0
40960,note_on,,,,,0,0,3,,,,,2,,,64,81
40992,note_on,,,,,0,0,1,,,,,0,,,85,106
40992,note_off,,,,,288,0,1,,,,,0,,,86,0
41024,note_off,,,,,64,0,2,,,,,1,,,68,0
41024,note_off,,,,,64,0,3,,,,,2,,,64,0
41024,note_on,,,,,0,0,3,,,,,2,,,66,81
41024,note_on,,,,,0,0,2,,,,,1,,,69,90
41088,note_on,,,,,0,0,2,,,,,1,,,71,90
41088,note_off,,,,,64,0,3,,,,,2,,,66,0
41088,note_on,,,,,0,0,3,,,,,2,,,68,81
41088,note_off,,,,,64,0,2,,,,,1,,,69,0
41088,note_on,,,,,0,0,1,,,,,0,,,83,106
41088,note_off,,,,,96,0,1,,,,,0,,,85,0
41152,note_on,,,,,0,0,3,,,,,2,,,66,81
41152,note_on,,,,,0,0,2,,,,,1,,,69,90
41152,note_off,,,,,64,0,2,,,,,1,,,71,0
41152,note_off,,,,,64,0,3,,,,,2,,,68,0
41216,note_on,,,,,0,0,3,,,,,2,,,68,81
41216,note_off,,,,,64,0,3,,,,,2,,,66,0
41216,note_off,,,,,64,0,2,,,,,1,,,69,0
41216,note_on,,,,,0,0,2,,,,,1,,,71,90
41232,note_on,,,,,0,0,1,,,,,0,,,85,106
41232,note_off,,,,,144,0,1,,,,,0,,,83,0
41280,note_on,,,,,0,0,3,,,,,2,,,69,81
41280,note_on,,,,,0,0,1,,,,,0,,,81,106
41280,note_off,,,,,48,0,1,,,,,0,,,85,0
41280,note_off,,,,,64,0,2,,,,,1,,,71,0
41280,note_off,,,,,64,0,3,,,,,2,,,68,0
41280,note_on,,,,,0,0,2,,,,,1,,,73,90
41344,note_on,,,,,0,0,3,,,,,2,,,68,81
41344,note_off,,,,,64,0,3,,,,,2,,,69,0
41344,note_on,,,,,0,0,2,,,,,1,,,71,90
41344,note_off,,,,,64,0,2,,,,,1,,,73,0
41408,note_off,,,,,64,0,2,,,,,1,,,71,0
41408,note_on,,,,,0,0,2,,,,,1,,,73,90
41408,note_on,,,,,0,0,3,,,,,2,,,69,81
41408,note_off,,,,,64,0,3,,,,,2,,,68,0
41424,note_off,,,,,144,0,1,,,,,0,,,81,0
41424,note_on,,,,,0,0,1,,,,,0,,,83,106
41472,note_off,,,,,64,0,3,,,,,2,,,69,0
41472,note_on,,,,,0,0,3,,,,,2,,,71,81
41472,note_off,,,,,48,0,1,,,,,0,,,83,0
41472,note_on,,,,,0,0,1,,,,,0,,,80,106
41472,note_on,,,,,0,0,4,,,,,3,,,64,78
41472,note_off,,,,,768,0,4,,,,,3,,,64,0
41472,note_off,,,,,64,0,2,,,,,1,,,73,0
41472,note_on,,,,,0,0,2,,,,,1,,,74,90
41536,note_on,,,,,0,0,3,,,,,2,,,73,81
41536,note_off,,,,,64,0,3,,,,,2,,,71,0
41536,note_off,,,,,64,0,2,,,,,1,,,74,0
41536,note_on,,,,,0,0,2,,,,,1,,,76,90
41600,note_off,,,,,64,0,3,,,,,2,,,73,0
41600,note_off,,,,,64,0,2,,,,,1,,,76,0
41600,note_on,,,,,0,0,2,,,,,1,,,78,90
41600,note_on,,,,,0,0,3,,,,,2,,,74,81
41664,note_off,,,,,64,0,3,,,,,2,,,74,0
41664,note_on,,,,,0,0,3,,,,,2,,,74,81
41664,note_off,,,,,64,0,2,,,,,1,,,78,0
41664,note_on,,,,,0,0,2,,,,,1,,,78,90
41728,note_off,,,,,64,0,3,,,,,2,,,74,0
41728,note_on,,,,,0,0,3,,,,,2,,,73,81
41728,note_on,,,,,0,0,2,,,,,1,,,76,90
41728,note_off,,,,,64,0,2,,,,,1,,,78,0
41792,note_on,,,,,0,0,3,,,,,2,,,71,81
41792,note_off,,,,,64,0,3,,,,,2,,,73,0
41792,note_on,,,,,0,0,2,,,,,1,,,74,90
41792,note_off,,,,,64,0,2,,,,,1,,,76,0
41856,note_off,,,,,384,0,1,,,,,0,,,80,0
41856,note_off,,,,,64,0,2,,,,,1,,,74,0
41856,note_on,,,,,0,0,3,,,,,2,,,69,81
41856,note_off,,,,,64,0,3,,,,,2,,,71,0
41856,note_on,,,,,0,0,2,,,,,1,,,73,90
41856,note_on,,,,,0,0,1,,,,,0,,,81,106
41920,note_on,,,,,0,0,3,,,,,2,,,71,81
41920,note_off,,,,,64,0,3,,,,,2,,,69,0
41920,note_off,,,,,64,0,2,,,,,1,,,73,0
41920,note_on,,,,,0,0,2,,,,,1,,,74,90
41984,note_on,,,,,0,0,3,,,,,2,,,73,81
41984,note_off,,,,,64,0,3,,,,,2,,,71,0
41984,note_on,,,,,0,0,2,,,,,1,,,76,90
41984,note_off,,,,,64,0,2,,,,,1,,,74,0
42048,note_on,,,,,0,0,3,,,,,2,,,73,81
42048,note_on,,,,,0,0,2,,,,,1,,,76,90
42048,note_off,,,,,64,0,3,,,,,2,,,73,0
42048,note_off,,,,,64,0,2,,,,,1,,,76,0
42112,note_on,,,,,0,0,2,,,,,1,,,74,90
42112,note_off,,,,,64,0,2,,,,,1,,,76,0
42112,note_off,,,,,64,0,3,,,,,2,,,73,0
42112,note_on,,,,,0,0,3,,,,,2,,,71,81
42176,note_on,,,,,0,0,2,,,,,1,,,73,90
42176,note_off,,,,,64,0,2,,,,,1,,,74,0
42176,note_on,,,,,0,0,3,,,,,2,,,69,81
42176,note_off,,,,,64,0,3,,,,,2,,,71,0
42240,note_off,,,,,64,0,2,,,,,1,,,73,0
42240,note_on,,,,,0,0,3,,,,,2,,,66,81
42240,note_off,,,,,768,0,4,,,,,3,,,64,0
42240,note_on,,,,,0,0,4,,,,,3,,,64,78
42240,note_on,,,,,0,0,1,,,,,0,,,75,106
42240,note_off,,,,,384,0,1,,,,,0,,,81,0
42240,note_off,,,,,64,0,3,,,,,2,,,69,0
42240,note_on,,,,,0,0,2,,,,,1,,,69,90
42304,note_on,,,,,0,0,2,,,,,1,,,71,90
42304,note_off,,,,,64,0,2,,,,,1,,,69,0
42304,note_off,,,,,64,0,3,,,,,2,,,66,0
42304,note_on,,,,,0,0,3,,,,,2,,,68,81
42368,note_on,,,,,0,0,2,,,,,1,,,73,90
42368,note_off,,,,,64,0,3,,,,,2,,,68,0
42368,note_on,,,,,0,0,3,,,,,2,,,69,81
42368,note_off,,,,,64,0,2,,,,,1,,,71,0
42432,note_off,,,,,64,0,2,,,,,1,,,73,0
42432,note_on,,,,,0,0,3,,,,,2,,,69,81
42432,note_on,,,,,0,0,2,,,,,1,,,73,90
42432,note_off,,,,,64,0,3,,,,,2,,,69,0
42496,note_off,,,,,64,0,3,,,,,2,,,69,0
42496,note_on,,,,,0,0,2,,,,,1,,,71,90
42496,note_off,,,,,64,0,2,,,,,1,,,73,0
42496,note_on,,,,,0,0,3,,,,,2,,,68,81
42560,note_off,,,,,64,0,3,,,,,2,,,68,0
42560,note_on,,,,,0,0,2,,,,,1,,,69,90
42560,note_off,,,,,64,0,2,,,,,1,,,71,0
42560,note_on,,,,,0,0,3,,,,,2,,,66,81
42624,note_off,,,,,64,0,3,,,,,2,,,66,0
42624,note_on,,,,,0,0,2,,,,,1,,,68,90
42624,note_off,,,,,64,0,2,,,,,1,,,69,0
42624,note_off,,,,,384,0,1,,,,,0,,,75,0
42624,note_on,,,,,0,0,1,,,,,0,,,76,106
42624,note_on,,,,,0,0,3,,,,,2,,,64,81
42688,note_on,,,,,0,0,2,,,,,1,,,69,90
42688,note_off,,,,,64,0,2,,,,,1,,,68,0
42688,note_on,,,,,0,0,3,,,,,2,,,66,81
42688,note_off,,,,,64,0,3,,,,,2,,,64,0
42752,note_off,,,,,64,0,2,,,,,1,,,69,0
42752,note_on,,,,,0,0,3,,,,,2,,,68,81
42752,note_off,,,,,64,0,3,,,,,2,,,66,0
42752,note_on,,,,,0,0,2,,,,,1,,,71,90
42816,note_on,,,,,0,0,2,,,,,1,,,71,90
42816,note_off,,,,,64,0,2,,,,,1,,,71,0
42816,note_off,,,,,64,0,3,,,,,2,,,68,0
42816,note_on,,,,,0,0,3,,,,,2,,,68,81
42880,note_on,,,,,0,0,2,,,,,1,,,69,90
42880,note_off,,,,,64,0,2,,,,,1,,,71,0
42880,note_off,,,,,64,0,3,,,,,2,,,68,0
42880,note_on,,,,,0,0,3,,,,,2,,,66,81
42944,note_on,,,,,0,0,2,,,,,1,,,68,90
42944,note_off,,,,,64,0,3,,,,,2,,,66,0
42944,note_on,,,,,0,0,3,,,,,2,,,64,81
42944,note_off,,,,,64,0,2,,,,,1,,,69,0
43008,note_off,,,,,64,0,2,,,,,1,,,68,0
43008,note_on,,,,,0,0,3,,,,,2,,,68,81
43008,note_off,,,,,768,0,4,,,,,3,,,64,0
43008,note_on,,,,,0,0,2,,,,,1,,,71,90
43008,note_off,,,,,64,0,3,,,,,2,,,64,0
43008,note_off,,,,,384,0,1,,,,,0,,,76,0
43072,note_off,,,,,64,0,3,,,,,2,,,68,0
43072,note_on,,,,,0,0,3,,,,,2,,,69,81
43072,note_on,,,,,0,0,2,,,,,1,,,73,90
43072,note_off,,,,,64,0,2,,,,,1,,,71,0
43136,note_off,,,,,64,0,3,,,,,2,,,69,0
43136,note_off,,,,,64,0,2,,,,,1,,,73,0
43136,note_on,,,,,0,0,2,,,,,1,,,74,90
43136,note_on,,,,,0,0,3,,,,,2,,,71,81
43200,note_off,,,,,64,0,3,,,,,2,,,71,0
43200,note_on,,,,,0,0,2,,,,,1,,,74,90
43200,note_off,,,,,64,0,2,,,,,1,,,74,0
43200,note_on,,,,,0,0,3,,,,,2,,,71,81
43200,note_on,,,,,192,0,1,,,,,0,,,76,106
43264,note_on,,,,,0,0,2,,,,,1,,,73,90
43264,note_off,,,,,64,0,2,,,,,1,,,74,0
43264,note_off,,,,,64,0,3,,,,,2,,,71,0
43264,note_on,,,,,0,0,3,,,,,2,,,69,81
43328,note_off,,,,,64,0,3,,,,,2,,,69,0
43328,note_on,,,,,0,0,3,,,,,2,,,68,81
43328,note_on,,,,,0,0,2,,,,,1,,,71,90
43328,note_off,,,,,64,0,2,,,,,1,,,73,0
43392,note_on,,,,,0,0,2,,,,,1,,,71,90
43392,note_off,,,,,64,0,2,,,,,1,,,71,0
43392,note_on,,,,,0,0,1,,,,,0,,,78,106
43392,note_off,,,,,192,0,1,,,,,0,,,76,0
43392,note_off,,,,,64,0,3,,,,,2,,,68,0
43392,note_on,,,,,0,0,3,,,,,2,,,68,81
43456,note_off,,,,,64,0,3,,,,,2,,,68,0
43456,note_on,,,,,0,0,2,,,,,1,,,73,90
43456,note_off,,,,,64,0,2,,,,,1,,,71,0
43456,note_on,,,,,0,0,3,,,,,2,,,69,81
43520,note_on,,,,,0,0,2,,,,,1,,,74,90
43520,note_off,,,,,64,0,2,,,,,1,,,73,0
43520,note_on,,,,,0,0,3,,,,,2,,,71,81
43520,note_off,,,,,64,0,3,,,,,2,,,69,0
43584,note_on,,,,,0,0,2,,,,,1,,,74,90
43584,note_off,,,,,64,0,2,,,,,1,,,74,0
43584,note_off,,,,,192,0,1,,,,,0,,,78,0
43584,note_on,,,,,0,0,3,,,,,2,,,71,81
43584,note_on,,,,,0,0,1,,,,,0,,,76,106
43584,note_off,,,,,64,0,3,,,,,2,,,71,0
43648,note_off,,,,,64,0,3,,,,,2,,,71,0
43648,note_on,,,,,0,0,3,,,,,2,,,69,81
43648,note_off,,,,,64,0,2,,,,,1,,,74,0
43648,note_on,,,,,0,0,2,,,,,1,,,73,90
43712,note_off,,,,,64,0,3,,,,,2,,,69,0
43712,note_off,,,,,64,0,2,,,,,1,,,73,0
43712,note_on,,,,,0,0,2,,,,,1,,,71,90
43712,note_on,,,,,0,0,3,,,,,2,,,68,81
43776,note_off,,,,,64,0,2,,,,,1,,,71,0
43776,note_off,,,,,192,0,1,,,,,0,,,76,0
43776,note_on,,,,,0,0,3,,,,,2,,,68,81
43776,note_off,,,,,64,0,3,,,,,2,,,68,0
43776,note_on,,,,,0,0,2,,,,,1,,,71,90
43840,note_off,,,,,64,0,2,,,,,1,,,71,0
43840,note_off,,,,,64,0,3,,,,,2,,,68,0
43840,note_on,,,,,0,0,3,,,,,2,,,69,81
43840,note_on,,,,,0,0,2,,,,,1,,,72,90
43904,note_on,,,,,0,0,3,,,,,2,,,71,81
43904,note_off,,,,,64,0,2,,,,,1,,,72,0
43904,note_on,,,,,0,0,2,,,,,1,,,74,90
43904,note_off,,,,,64,0,3,,,,,2,,,69,0
43968,note_on,,,,,0,0,2,,,,,1,,,74,90
43968,note_on,,,,,960,0,4,,,,,3,,,40,78
43968,note_off,,,,,64,0,3,,,,,2,,,71,0
43968,note_on,,,,,0,0,3,,,,,2,,,71,81
43968,note_off,,,,,64,0,2,,,,,1,,,74,0
44032,note_off,,,,,64,0,2,,,,,1,,,74,0
44032,note_on,,,,,0,0,2,,,,,1,,,72,90
44032,note_off,,,,,64,0,3,,,,,2,,,71,0
44032,note_on,,,,,0,0,3,,,,,2,,,69,81
44096,note_off,,,,,64,0,3,,,,,2,,,69,0
44096,note_off,,,,,64,0,2,,,,,1,,,72,0
44096,note_on,,,,,0,0,2,,,,,1,,,71,90
44096,note_on,,,,,0,0,3,,,,,2,,,68,81
44160,note_off,,,,,192,0,4,,,,,3,,,40,0
44160,note_on,,,,,0,0,4,,,,,3,,,41,78
44160,note_off,,,,,64,0,3,,,,,2,,,68,0
44160,note_on,,,,,0,0,2,,,,,1,,,71,90
44160,note_on,,,,,0,0,3,,,,,2,,,68,81
44160,note_off,,,,,64,0,2,,,,,1,,,71,0
44224,note_on,,,,,0,0,3,,,,,2,,,69,81
44224,note_on,,,,,0,0,2,,,,,1,,,72,90
44224,note_off,,,,,64,0,3,,,,,2,,,68,0
44224,note_off,,,,,64,0,2,,,,,1,,,71,0
44288,note_on,,,,,0,0,3,,,,,2,,,71,81
44288,note_off,,,,,64,0,3,,,,,2,,,69,0
44288,note_off,,,,,64,0,2,,,,,1,,,72,0
44288,note_on,,,,,0,0,2,,,,,1,,,74,90
44352,note_off,,,,,64,0,2,,,,,1,,,74,0
44352,note_on,,,,,0,0,3,,,,,2,,,71,81
44352,note_off,,,,,64,0,3,,,,,2,,,71,0
44352,note_on,,,,,0,0,2,,,,,1,,,74,90
44352,note_on,,,,,0,0,4,,,,,3,,,40,78
44352,note_off,,,,,192,0,4,,,,,3,,,41,0
44416,note_off,,,,,64,0,3,,,,,2,,,71,0
44416,note_on,,,,,0,0,2,,,,,1,,,72,90
44416,note_off,,,,,64,0,2,,,,,1,,,74,0
44416,note_on,,,,,0,0,3,,,,,2,,,69,81
44480,note_on,,,,,0,0,3,,,,,2,,,68,81
44480,note_on,,,,,0,0,2,,,,,1,,,71,90
44480,note_off,,,,,64,0,3,,,,,2,,,69,0
44480,note_off,,,,,64,0,2,,,,,1,,,72,0
44544,note_on,,,,,0,0,3,,,,,2,,,69,81
44544,note_off,,,,,64,0,3,,,,,2,,,68,0
44544,note_on,,,,,0,0,2,,,,,1,,,72,90
44544,note_off,,,,,192,0,4,,,,,3,,,40,0
44544,note_off,,,,,64,0,2,,,,,1,,,71,0
44608,note_on,,,,,0,0,2,,,,,1,,,74,90
44608,note_off,,,,,64,0,2,,,,,1,,,72,0
44608,note_off,,,,,64,0,3,,,,,2,,,69,0
44608,note_on,,,,,0,0,3,,,,,2,,,71,81
44672,note_off,,,,,64,0,3,,,,,2,,,71,0
44672,note_on,,,,,0,0,3,,,,,2,,,72,81
44672,note_off,,,,,64,0,2,,,,,1,,,74,0
44672,note_on,,,,,0,0,2,,,,,1,,,76,90
44736,note_on,,,,,0,0,2,,,,,1,,,76,90
44736,note_on,,,,,960,0,1,,,,,0,,,76,106
44736,note_off,,,,,64,0,3,,,,,2,,,72,0
44736,note_on,,,,,0,0,3,,,,,2,,,72,81
44736,note_off,,,,,64,0,2,,,,,1,,,76,0
44800,note_off,,,,,64,0,2,,,,,1,,,76,0
44800,note_on,,,,,0,0,2,,,,,1,,,74,90
44800,note_on,,,,,0,0,3,,,,,2,,,71,81
44800,note_off,,,,,64,0,3,,,,,2,,,72,0
44864,note_on,,,,,0,0,3,,,,,2,,,69,81
44864,note_off,,,,,64,0,3,,,,,2,,,71,0
44864,note_on,,,,,0,0,2,,,,,1,,,72,90
44864,note_off,,,,,64,0,2,,,,,1,,,74,0
44928,note_off,,,,,64,0,3,,,,,2,,,69,0
44928,note_on,,,,,0,0,2,,,,,1,,,72,90
44928,note_off,,,,,64,0,2,,,,,1,,,72,0
44928,note_off,,,,,192,0,1,,,,,0,,,76,0
44928,note_on,,,,,0,0,3,,,,,2,,,69,81
44928,note_on,,,,,0,0,1,,,,,0,,,81,106
44992,note_on,,,,,0,0,3,,,,,2,,,71,81
44992,note_on,,,,,0,0,2,,,,,1,,,74,90
44992,note_off,,,,,64,0,2,,,,,1,,,72,0
44992,note_off,,,,,64,0,3,,,,,2,,,69,0
45056,note_on,,,,,0,0,2,,,,,1,,,76,90
45056,note_off,,,,,64,0,2,,,,,1,,,74,0
45056,note_off,,,,,64,0,3,,,,,2,,,71,0
45056,note_on,,,,,0,0,3,,,,,2,,,72,81
45120,note_on,,,,,0,0,2,,,,,1,,,76,90
45120,note_off,,,,,64,0,2,,,,,1,,,76,0
45120,note_off,,,,,64,0,3,,,,,2,,,72,0
45120,note_on,,,,,0,0,3,,,,,2,,,72,81
45120,note_on,,,,,0,0,1,,,,,0,,,76,106
45120,note_off,,,,,192,0,1,,,,,0,,,81,0
45184,note_on,,,,,0,0,3,,,,,2,,,71,81
45184,note_on,,,,,0,0,2,,,,,1,,,74,90
45184,note_off,,,,,64,0,2,,,,,1,,,76,0
45184,note_off,,,,,64,0,3,,,,,2,,,72,0
45248,note_on,,,,,0,0,2,,,,,1,,,72,90
45248,note_off,,,,,64,0,2,,,,,1,,,74,0
45248,note_on,,,,,0,0,3,,,,,2,,,69,81
45248,note_off,,,,,64,0,3,,,,,2,,,71,0
45312,note_on,,,,,0,0,3,,,,,2,,,69,81
45312,note_off,,,,,64,0,3,,,,,2,,,69,0
45312,note_off,,,,,192,0,1,,,,,0,,,76,0
45312,note_off,,,,,64,0,2,,,,,1,,,72,0
45312,note_on,,,,,0,0,2,,,,,1,,,72,90
45376,note_on,,,,,0,0,3,,,,,2,,,71,81
45376,note_off,,,,,64,0,3,,,,,2,,,69,0
45376,note_off,,,,,64,0,2,,,,,1,,,72,0
45376,note_on,,,,,0,0,2,,,,,1,,,74,90
45440,note_off,,,,,64,0,3,,,,,2,,,71,0
45440,note_on,,,,,0,0,2,,,,,1,,,76,90
45440,note_off,,,,,64,0,2,,,,,1,,,74,0
45440,note_on,,,,,0,0,3,,,,,2,,,72,81
45504,note_off,,,,,64,0,3,,,,,2,,,72,0
45504,note_on,,,,,0,0,2,,,,,1,,,76,90
45504,note_off,,,,,64,0,2,,,,,1,,,76,0
45504,note_on,,,,,960,0,4,,,,,3,,,40,78
45504,note_on,,,,,0,0,3,,,,,2,,,72,81
45568,note_off,,,,,64,0,3,,,,,2,,,72,0
45568,note_off,,,,,64,0,2,,,,,1,,,76,0
45568,note_on,,,,,0,0,2,,,,,1,,,74,90
45568,note_on,,,,,0,0,3,,,,,2,,,71,81
45632,note_off,,,,,64,0,3,,,,,2,,,71,0
45632,note_on,,,,,0,0,3,,,,,2,,,69,81
45632,note_on,,,,,0,0,2,,,,,1,,,72,90
45632,note_off,,,,,64,0,2,,,,,1,,,74,0
45696,note_off,,,,,192,0,4,,,,,3,,,40,0
45696,note_on,,,,,0,0,4,,,,,3,,,45,78
45696,note_off,,,,,64,0,2,,,,,1,,,72,0
45696,note_on,,,,,0,0,3,,,,,2,,,69,81
45696,note_off,,,,,64,0,3,,,,,2,,,69,0
45696,note_on,,,,,0,0,2,,,,,1,,,72,90
45760,note_on,,,,,0,0,2,,,,,1,,,74,90
45760,note_off,,,,,64,0,2,,,,,1,,,72,0
45760,note_off,,,,,64,0,3,,,,,2,,,69,0
45760,note_on,,,,,0,0,3,,,,,2,,,71,81
45824,note_off,,,,,64,0,2,,,,,1,,,74,0
45824,note_on,,,,,0,0,2,,,,,1,,,76,90
45824,note_on,,,,,0,0,3,,,,,2,,,72,81
45824,note_off,,,,,64,0,3,,,,,2,,,71,0
45888,note_on,,,,,0,0,2,,,,,1,,,76,90
45888,note_off,,,,,192,0,4,,,,,3,,,45,0
45888,note_on,,,,,0,0,4,,,,,3,,,40,78
45888,note_off,,,,,64,0,2,,,,,1,,,76,0
45888,note_on,,,,,0,0,3,,,,,2,,,72,81
45888,note_off,,,,,64,0,3,,,,,2,,,72,0
45952,note_on,,,,,0,0,2,,,,,1,,,74,90
45952,note_off,,,,,64,0,2,,,,,1,,,76,0
45952,note_on,,,,,0,0,3,,,,,2,,,71,81
45952,note_off,,,,,64,0,3,,,,,2,,,72,0
46016,note_on,,,,,0,0,2,,,,,1,,,72,90
46016,note_on,,,,,0,0,3,,,,,2,,,69,81
46016,note_off,,,,,64,0,3,,,,,2,,,71,0
46016,note_off,,,,,64,0,2,,,,,1,,,74,0
46080,note_off,,,,,64,0,3,,,,,2,,,69,0
46080,note_on,,,,,0,0,3,,,,,2,,,69,81
46080,note_off,,,,,192,0,4,,,,,3,,,40,0
46080,note_on,,,,,0,0,2,,,,,1,,,72,90
46080,note_off,,,,,64,0,2,,,,,1,,,72,0
46080,note_on,,,,,0,0,4,,,,,3,,,41,78
46144,note_off,,,,,64,0,2,,,,,1,,,72,0
46144,note_on,,,,,0,0,2,,,,,1,,,74,90
46144,note_off,,,,,64,0,3,,,,,2,,,69,0
46144,note_on,,,,,0,0,3,,,,,2,,,70,81
46208,note_off,,,,,64,0,2,,,,,1,,,74,0
46208,note_off,,,,,64,0,3,,,,,2,,,70,0
46208,note_on,,,,,0,0,3,,,,,2,,,72,81
46208,note_on,,,,,0,0,2,,,,,1,,,75,90
46272,note_off,,,,,64,0,2,,,,,1,,,75,0
46272,note_on,,,,,960,0,1,,,,,0,,,77,106
46272,note_off,,,,,64,0,3,,,,,2,,,72,0
46272,note_on,,,,,0,0,3,,,,,2,,,72,81
46272,note_on,,,,,0,0,2,,,,,1,,,75,90
46336,note_off,,,,,64,0,2,,,,,1,,,75,0
46336,note_on,,,,,0,0,3,,,,,2,,,70,81
46336,note_on,,,,,0,0,2,,,,,1,,,74,90
46336,note_off,,,,,64,0,3,,,,,2,,,72,0
46400,note_off,,,,,64,0,2,,,,,1,,,74,0
46400,note_on,,,,,0,0,3,,,,,2,,,69,81
46400,note_on,,,,,0,0,2,,,,,1,,,72,90
46400,note_off,,,,,64,0,3,,,,,2,,,70,0
46464,note_off,,,,,64,0,2,,,,,1,,,72,0
46464,note_on,,,,,0,0,2,,,,,1,,,72,90
46464,note_on,,,,,0,0,3,,,,,2,,,69,81
46464,note_off,,,,,64,0,3,,,,,2,,,69,0
46464,note_off,,,,,192,0,1,,,,,0,,,77,0
46464,note_on,,,,,0,0,1,,,,,0,,,79,106
46528,note_on,,,,,0,0,3,,,,,2,,,70,81
46528,note_off,,,,,64,0,3,,,,,2,,,69,0
46528,note_off,,,,,64,0,2,,,,,1,,,72,0
46528,note_on,,,,,0,0,2,,,,,1,,,74,90
46592,note_off,,,,,64,0,3,,,,,2,,,70,0
46592,note_off,,,,,64,0,2,,,,,1,,,74,0
46592,note_on,,,,,0,0,2,,,,,1,,,75,90
46592,note_on,,,,,0,0,3,,,,,2,,,72,81
46656,note_on,,,,,0,0,2,,,,,1,,,75,90
46656,note_off,,,,,64,0,2,,,,,1,,,75,0
46656,note_off,,,,,192,0,1,,,,,0,,,79,0
46656,note_on,,,,,0,0,1,,,,,0,,,77,106
46656,note_off,,,,,64,0,3,,,,,2,,,72,0
46656,note_on,,,,,0,0,3,,,,,2,,,72,81
46720,note_off,,,,,64,0,2,,,,,1,,,75,0
46720,note_on,,,,,0,0,3,,,,,2,,,70,81
46720,note_off,,,,,64,0,3,,,,,2,,,72,0
46720,note_on,,,,,0,0,2,,,,,1,,,74,90
46784,note_off,,,,,64,0,2,,,,,1,,,74,0
46784,note_on,,,,,0,0,3,,,,,2,,,69,81
46784,note_off,,,,,64,0,3,,,,,2,,,70,0
46784,note_on,,,,,0,0,2,,,,,1,,,72,90
46848,note_on,,,,,0,0,3,,,,,2,,,70,81
46848,note_off,,,,,64,0,3,,,,,2,,,69,0
46848,note_off,,,,,64,0,2,,,,,1,,,72,0
46848,note_on,,,,,0,0,2,,,,,1,,,74,90
46848,note_off,,,,,192,0,1,,,,,0,,,77,0
46912,note_on,,,,,0,0,3,,,,,2,,,72,81
46912,note_on,,,,,0,0,2,,,,,1,,,75,90
46912,note_off,,,,,64,0,3,,,,,2,,,70,0
46912,note_off,,,,,64,0,2,,,,,1,,,74,0
46976,note_off,,,,,64,0,3,,,,,2,,,72,0
46976,note_on,,,,,0,0,3,,,,,2,,,74,81
46976,note_on,,,,,0,0,2,,,,,1,,,77,90
46976,note_off,,,,,64,0,2,,,,,1,,,75,0
47040,note_on,,,,,0,0,3,,,,,2,,,74,81
47040,note_on,,,,,192,0,1,,,,,0,,,77,106
47040,note_on,,,,,0,0,2,,,,,1,,,77,90
47040,note_off,,,,,64,0,3,,,,,2,,,74,0
47040,note_off,,,,,64,0,2,,,,,1,,,77,0
47104,note_on,,,,,0,0,3,,,,,2,,,72,81
47104,note_on,,,,,0,0,2,,,,,1,,,75,90
47104,note_off,,,,,64,0,3,,,,,2,,,74,0
47104,note_off,,,,,64,0,2,,,,,1,,,77,0
47168,note_on,,,,,0,0,2,,,,,1,,,74,90
47168,note_on,,,,,0,0,3,,,,,2,,,70,81
47168,note_off,,,,,64,0,3,,,,,2,,,72,0
47168,note_off,,,,,64,0,2,,,,,1,,,75,0
47232,note_off,,,,,64,0,3,,,,,2,,,70,0
47232,note_on,,,,,0,0,3,,,,,2,,,70,81
47232,note_off,,,,,64,0,2,,,,,1,,,74,0
47232,note_on,,,,,0,0,2,,,,,1,,,74,90
47232,note_off,,,,,192,0,1,,,,,0,,,77,0
47232,note_on,,,,,0,0,1,,,,,0,,,82,106
47296,note_on,,,,,0,0,2,,,,,1,,,75,90
47296,note_off,,,,,64,0,2,,,,,1,,,74,0
47296,note_off,,,,,64,0,3,,,,,2,,,70,0
47296,note_on,,,,,0,0,3,,,,,2,,,72,81
47360,note_on,,,,,0,0,2,,,,,1,,,77,90
47360,note_off,,,,,64,0,2,,,,,1,,,75,0
47360,note_off,,,,,64,0,3,,,,,2,,,72,0
47360,note_on,,,,,0,0,3,,,,,2,,,74,81
47424,note_on,,,,,0,0,2,,,,,1,,,77,90
47424,note_off,,,,,64,0,2,,,,,1,,,77,0
47424,note_on,,,,,0,0,1,,,,,0,,,77,106
47424,note_off,,,,,64,0,3,,,,,2,,,74,0
47424,note_on,,,,,0,0,3,,,,,2,,,74,81
47424,note_off,,,,,192,0,1,,,,,0,,,82,0
47488,note_on,,,,,0,0,3,,,,,2,,,72,81
47488,note_off,,,,,64,0,3,,,,,2,,,74,0
47488,note_on,,,,,0,0,2,,,,,1,,,75,90
47488,note_off,,,,,64,0,2,,,,,1,,,77,0
47552,note_off,,,,,64,0,2,,,,,1,,,75,0
47552,note_on,,,,,0,0,3,,,,,2,,,70,81
47552,note_off,,,,,64,0,3,,,,,2,,,72,0
47552,note_on,,,,,0,0,2,,,,,1,,,74,90
47616,note_off,,,,,192,0,1,,,,,0,,,77,0
47616,note_on,,,,,0,0,1,,,,,0,,,76,106
47616,note_on,,,,,0,0,2,,,,,1,,,70,90
47616,note_on,,,,,0,0,3,,,,,2,,,67,81
47616,note_off,,,,,64,0,2,,,,,1,,,74,0
47616,note_off,,,,,64,0,3,,,,,2,,,70,0
47680,note_on,,,,,0,0,3,,,,,2,,,69,81
47680,note_on,,,,,0,0,2,,,,,1,,,72,90
47680,note_off,,,,,64,0,2,,,,,1,,,70,0
47680,note_off,,,,,64,0,3,,,,,2,,,67,0
47744,note_off,,,,,64,0,2,,,,,1,,,72,0
47744,note_off,,,,,64,0,3,,,,,2,,,69,0
47744,note_on,,,,,0,0,3,,,,,2,,,70,81
47744,note_on,,,,,0,0,2,,,,,1,,,73,90
47808,note_on,,,,,0,0,3,,,,,2,,,70,81
47808,note_off,,,,,64,0,3,,,,,2,,,70,0
47808,note_on,,,,,0,0,2,,,,,1,,,73,90
47808,note_off,,,,,64,0,2,,,,,1,,,73,0
47872,note_on,,,,,0,0,2,,,,,1,,,72,90
47872,note_off,,,,,64,0,2,,,,,1,,,73,0
47872,note_on,,,,,0,0,3,,,,,2,,,69,81
47872,note_off,,,,,64,0,3,,,,,2,,,70,0
47936,note_on,,,,,0,0,2,,,,,1,,,70,90
47936,note_on,,,,,0,0,3,,,,,2,,,67,81
47936,note_off,,,,,64,0,3,,,,,2,,,69,0
47936,note_off,,,,,64,0,2,,,,,1,,,72,0
48000,note_off,,,,,64,0,3,,,,,2,,,67,0
48000,note_on,,,,,0,0,3,,,,,2,,,67,81
48000,note_off,,,,,64,0,2,,,,,1,,,70,0
48000,note_on,,,,,0,0,2,,,,,1,,,70,90
48000,note_on,,,,,0,0,1,,,,,0,,,88,106
48000,note_off,,,,,384,0,1,,,,,0,,,76,0
48064,note_off,,,,,64,0,3,,,,,2,,,67,0
48064,note_on,,,,,0,0,3,,,,,2,,,69,81
48064,note_on,,,,,0,0,2,,,,,1,,,72,90
48064,note_off,,,,,64,0,2,,,,,1,,,70,0
48128,note_off,,,,,64,0,3,,,,,2,,,69,0
48128,note_on,,,,,0,0,2,,,,,1,,,73,90
48128,note_on,,,,,0,0,3,,,,,2,,,70,81
48128,note_off,,,,,64,0,2,,,,,1,,,72,0
48192,note_on,,,,,0,0,2,,,,,1,,,73,90
48192,note_off,,,,,64,0,2,,,,,1,,,73,0
48192,note_off,,,,,64,0,3,,,,,2,,,70,0
48192,note_on,,,,,0,0,3,,,,,2,,,70,81
48256,note_on,,,,,0,0,2,,,,,1,,,72,90
48256,note_off,,,,,64,0,2,,,,,1,,,73,0
48256,note_off,,,,,64,0,3,,,,,2,,,70,0
48256,note_on,,,,,0,0,3,,,,,2,,,69,81
48320,note_off,,,,,64,0,2,,,,,1,,,72,0
48320,note_on,,,,,0,0,2,,,,,1,,,70,90
48320,note_on,,,,,0,0,3,,,,,2,,,67,81
48320,note_off,,,,,64,0,3,,,,,2,,,69,0
48384,note_on,,,,,0,0,2,,,,,1,,,69,90
48384,note_off,,,,,64,0,2,,,,,1,,,70,0
48384,note_on,,,,,0,0,4,,,,,3,,,41,78
48384,note_off,,,,,2304,0,4,,,,,3,,,41,49
48384,note_off,,,,,384,0,1,,,,,0,,,88,0
48384,note_on,,,,,0,0,1,,,,,0,,,89,106
48384,note_off,,,,,64,0,3,,,,,2,,,67,0
48384,note_on,,,,,0,0,3,,,,,2,,,65,81
48416,note_off,,,,,32,0,3,,,,,2,,,65,0
48416,note_off,,,,,32,0,2,,,,,1,,,69,0
48448,note_on,,,,,32,0,3,,,,,2,,,57,81
48448,note_on,,,,,32,0,2,,,,,1,,,60,90
48480,note_off,,,,,32,0,2,,,,,1,,,60,0
48480,note_off,,,,,32,0,3,,,,,2,,,57,0
48512,note_on,,,,,32,0,3,,,,,2,,,58,81
48512,note_on,,,,,32,0,2,,,,,1,,,62,90
48544,note_off,,,,,32,0,3,,,,,2,,,58,0
48544,note_off,,,,,32,0,2,,,,,1,,,62,0
48576,note_off,,,,,192,0,4,,,,,3,,,41,0
48576,note_on,,,,,32,0,3,,,,,2,,,60,81
48576,note_on,,,,,32,0,2,,,,,1,,,64,90
48608,note_off,,,,,32,0,2,,,,,1,,,64,0
48608,note_off,,,,,32,0,3,,,,,2,,,60,0
48640,note_on,,,,,32,0,2,,,,,1,,,65,90
48640,note_on,,,,,32,0,3,,,,,2,,,62,81
48672,note_off,,,,,32,0,3,,,,,2,,,62,0
48672,note_off,,,,,32,0,2,,,,,1,,,65,0
48704,note_on,,,,,32,0,3,,,,,2,,,64,81
48704,note_on,,,,,32,0,2,,,,,1,,,67,90
48736,note_off,,,,,32,0,2,,,,,1,,,67,0
48736,note_off,,,,,32,0,3,,,,,2,,,64,0
48768,note_on,,,,,32,0,2,,,,,1,,,69,90
48768,note_on,,,,,32,0,3,,,,,2,,,65,81
48768,note_off,,,,,384,0,1,,,,,0,,,89,0
48832,note_on,,,,,64,0,3,,,,,2,,,67,81
48832,note_on,,,,,0,0,2,,,,,1,,,70,90
48832,note_off,,,,,64,0,2,,,,,1,,,69,0
48864,note_off,,,,,32,0,3,,,,,2,,,65,0
48896,note_on,,,,,0,0,2,,,,,1,,,72,90
48896,note_on,,,,,32,0,3,,,,,2,,,69,81
48896,note_off,,,,,64,0,2,,,,,1,,,70,0
48928,note_off,,,,,32,0,3,,,,,2,,,67,0
48960,note_off,,,,,64,0,2,,,,,1,,,72,0
48960,note_on,,,,,32,0,3,,,,,2,,,69,81
48960,note_on,,,,,0,0,2,,,,,1,,,72,90
48992,note_off,,,,,32,0,2,,,,,1,,,72,0
48992,note_off,,,,,32,0,3,,,,,2,,,69,0
48992,note_off,,,,,0,0,3,,,,,2,,,69,0
49024,note_on,,,,,32,0,2,,,,,1,,,72,90
49024,note_on,,,,,32,0,3,,,,,2,,,69,81
49056,note_off,,,,,32,0,3,,,,,2,,,69,0
49056,note_off,,,,,32,0,2,,,,,1,,,72,0
49088,note_on,,,,,32,0,3,,,,,2,,,69,81
49088,note_on,,,,,32,0,2,,,,,1,,,72,90
49120,note_off,,,,,32,0,3,,,,,2,,,69,0
49120,note_off,,,,,32,0,2,,,,,1,,,72,0
49152,note_on,,,,,0,0,3,,,,,2,,,67,81
49152,note_on,,,,,576,0,4,,,,,3,,,60,78
49152,note_on,,,,,32,0,2,,,,,1,,,72,90
49152,note_on,,,,,32,0,3,,,,,2,,,70,81
49216,note_on,,,,,448,0,1,,,,,0,,,76,106
49248,note_off,,,,,32,0,1,,,,,0,,,76,0
49280,note_on,,,,,32,0,1,,,,,0,,,77,106
49312,note_off,,,,,32,0,1,,,,,0,,,77,0
49344,note_off,,,,,192,0,2,,,,,1,,,72,0
49344,note_off,,,,,192,0,4,,,,,3,,,60,0
49344,note_on,,,,,0,0,4,,,,,3,,,61,78
49344,note_on,,,,,0,0,2,,,,,1,,,73,90
49344,note_on,,,,,32,0,1,,,,,0,,,79,106
49376,note_off,,,,,32,0,1,,,,,0,,,79,0
49408,note_on,,,,,32,0,1,,,,,0,,,80,106
49440,note_off,,,,,32,0,1,,,,,0,,,80,0
49472,note_on,,,,,32,0,1,,,,,0,,,81,106
49504,note_off,,,,,32,0,1,,,,,0,,,81,0
49536,note_on,,,,,32,0,1,,,,,0,,,82,106
49536,note_on,,,,,0,0,4,,,,,3,,,62,78
49536,note_off,,,,,192,0,4,,,,,3,,,61,0
49536,note_off,,,,,192,0,2,,,,,1,,,73,0
49536,note_on,,,,,0,0,2,,,,,1,,,74,90
49568,note_off,,,,,32,0,1,,,,,0,,,82,0
49600,note_on,,,,,32,0,1,,,,,0,,,83,106
49632,note_off,,,,,32,0,1,,,,,0,,,83,0
49664,note_on,,,,,32,0,1,,,,,0,,,84,106
49696,note_off,,,,,32,0,1,,,,,0,,,84,0
49728,note_on,,,,,32,0,1,,,,,0,,,85,106
49728,note_off,,,,,192,0,2,,,,,1,,,74,0
49728,note_on,,,,,0,0,2,,,,,1,,,72,90
49728,note_off,,,,,192,0,4,,,,,3,,,62,0
49728,note_on,,,,,0,0,4,,,,,3,,,60,78
49760,note_off,,,,,32,0,1,,,,,0,,,85,0
49792,note_on,,,,,32,0,1,,,,,0,,,86,106
49824,note_off,,,,,32,0,1,,,,,0,,,86,0
49856,note_on,,,,,32,0,1,,,,,0,,,88,106
49888,note_off,,,,,32,0,1,,,,,0,,,88,0
49920,note_off,,,,,0,0,3,,,,,2,,,67,0
49920,note_on,,,,,0,0,2,,,,,1,,,69,90
49920,note_on,,,,,32,0,1,,,,,0,,,89,106
49920,note_off,,,,,192,0,4,,,,,3,,,60,0
49920,note_on,,,,,0,0,3,,,,,2,,,69,81
49920,note_on,,,,,0,0,3,,,,,2,,,65,81
49920,note_off,,,,,192,0,2,,,,,1,,,72,0
49920,note_on,,,,,0,0,4,,,,,3,,,53,78
49920,note_off,,,,,768,0,3,,,,,2,,,70,0
49952,note_off,,,,,32,0,2,,,,,1,,,69,0
49952,note_off,,,,,0,0,3,,,,,2,,,69,0
49952,note_off,,,,,32,0,3,,,,,2,,,65,0
49984,note_on,,,,,32,0,3,,,,,2,,,57,81
49984,note_on,,,,,32,0,2,,,,,1,,,60,90
50016,note_off,,,,,32,0,3,,,,,2,,,57,0
50016,note_off,,,,,32,0,2,,,,,1,,,60,0
50048,note_on,,,,,32,0,2,,,,,1,,,62,90
50048,note_on,,,,,32,0,3,,,,,2,,,58,81
50080,note_off,,,,,32,0,2,,,,,1,,,62,0
50080,note_off,,,,,32,0,3,,,,,2,,,58,0
50112,note_on,,,,,32,0,3,,,,,2,,,60,81
50112,note_off,,,,,192,0,4,,,,,3,,,53,0
50112,note_on,,,,,32,0,2,,,,,1,,,64,90
50144,note_off,,,,,32,0,3,,,,,2,,,60,0
50144,note_off,,,,,32,0,2,,,,,1,,,64,0
50176,note_on,,,,,32,0,2,,,,,1,,,65,90
50176,note_on,,,,,32,0,3,,,,,2,,,62,81
50208,note_off,,,,,288,0,1,,,,,0,,,89,0
50208,note_off,,,,,32,0,2,,,,,1,,,65,0
50208,note_off,,,,,32,0,3,,,,,2,,,62,0
50208,note_on,,,,,0,0,1,,,,,0,,,88,106
50240,note_on,,,,,32,0,2,,,,,1,,,67,90
50240,note_on,,,,,32,0,3,,,,,2,,,64,81
50256,note_on,,,,,0,0,1,,,,,0,,,86,106
50256,note_off,,,,,48,0,1,,,,,0,,,88,0
50272,note_off,,,,,32,0,3,,,,,2,,,64,0
50272,note_off,,,,,32,0,2,,,,,1,,,67,0
50304,note_on,,,,,32,0,2,,,,,1,,,69,90
50304,note_on,,,,,0,0,1,,,,,0,,,84,106
50304,note_off,,,,,48,0,1,,,,,0,,,86,0
50304,note_on,,,,,32,0,3,,,,,2,,,65,81
50368,note_off,,,,,64,0,2,,,,,1,,,69,0
50368,note_on,,,,,0,0,2,,,,,1,,,70,90
50368,note_on,,,,,0,0,3,,,,,2,,,67,81
50368,note_off,,,,,64,0,3,,,,,2,,,65,0
50400,note_on,,,,,0,0,1,,,,,0,,,84,106
50400,note_off,,,,,96,0,1,,,,,0,,,84,0
50432,note_on,,,,,0,0,2,,,,,1,,,72,90
50432,note_on,,,,,0,0,3,,,,,2,,,69,81
50432,note_off,,,,,64,0,2,,,,,1,,,70,0
50432,note_off,,,,,64,0,3,,,,,2,,,67,0
50448,note_off,,,,,48,0,1,,,,,0,,,84,0
50496,note_on,,,,,0,0,2,,,,,1,,,72,90
50496,note_on,,,,,48,0,1,,,,,0,,,84,106
50496,note_on,,,,,0,0,3,,,,,2,,,69,81
50496,note_off,,,,,64,0,3,,,,,2,,,69,0
50496,note_off,,,,,64,0,2,,,,,1,,,72,0
50528,note_off,,,,,32,0,2,,,,,1,,,72,0
50528,note_off,,,,,32,0,3,,,,,2,,,69,0
50544,note_off,,,,,48,0,1,,,,,0,,,84,0
50560,note_on,,,,,32,0,3,,,,,2,,,69,81
50560,note_on,,,,,32,0,2,,,,,1,,,72,90
50592,note_off,,,,,32,0,3,,,,,2,,,69,0
50592,note_on,,,,,48,0,1,,,,,0,,,84,106
50592,note_off,,,,,32,0,2,,,,,1,,,72,0
50624,note_on,,,,,32,0,3,,,,,2,,,69,81
50624,note_on,,,,,32,0,2,,,,,1,,,72,90
50640,note_off,,,,,48,0,1,,,,,0,,,84,0
50656,note_off,,,,,32,0,3,,,,,2,,,69,0
50656,note_off,,,,,32,0,2,,,,,1,,,72,0
50688,note_on,,,,,32,0,3,,,,,2,,,67,81
50688,note_on,,,,,0,0,3,,,,,2,,,70,81
50688,note_on,,,,,48,0,1,,,,,0,,,84,106
50688,note_on,,,,,32,0,2,,,,,1,,,72,90
50752,note_on,,,,,640,0,4,,,,,3,,,52,78
50784,note_off,,,,,32,0,4,,,,,3,,,52,0
50816,note_on,,,,,32,0,4,,,,,3,,,53,78
50848,note_off,,,,,32,0,4,,,,,3,,,53,0
50880,note_off,,,,,192,0,2,,,,,1,,,72,0
50880,note_on,,,,,0,0,2,,,,,1,,,73,90
50880,note_on,,,,,0,0,1,,,,,0,,,85,106
50880,note_off,,,,,192,0,1,,,,,0,,,84,0
50880,note_on,,,,,32,0,4,,,,,3,,,55,78
50912,note_off,,,,,32,0,4,,,,,3,,,55,0
50944,note_on,,,,,32,0,4,,,,,3,,,56,78
50976,note_off,,,,,32,0,4,,,,,3,,,56,0
51008,note_on,,,,,32,0,4,,,,,3,,,57,78
51040,note_off,,,,,32,0,4,,,,,3,,,57,0
51072,note_on,,,,,0,0,1,,,,,0,,,86,106
51072,note_off,,,,,192,0,1,,,,,0,,,85,0
51072,note_on,,,,,32,0,4,,,,,3,,,58,78
51072,note_on,,,,,0,0,2,,,,,1,,,74,90
51072,note_off,,,,,192,0,2,,,,,1,,,73,0
51104,note_off,,,,,32,0,4,,,,,3,,,58,0
51136,note_on,,,,,32,0,4,,,,,3,,,59,78
51168,note_off,,,,,32,0,4,,,,,3,,,59,0
51200,note_on,,,,,32,0,4,,,,,3,,,60,78
51232,note_off,,,,,32,0,4,,,,,3,,,60,0
51264,note_off,,,,,192,0,1,,,,,0,,,86,0
51264,note_on,,,,,32,0,4,,,,,3,,,61,78
51264,note_off,,,,,192,0,2,,,,,1,,,74,0
51264,note_on,,,,,0,0,2,,,,,1,,,72,90
51264,note_on,,,,,0,0,1,,,,,0,,,84,106
51296,note_off,,,,,32,0,4,,,,,3,,,61,0
51328,note_on,,,,,0,0,1,,,,,0,,,82,106
51328,note_on,,,,,32,0,4,,,,,3,,,62,78
51328,note_off,,,,,64,0,1,,,,,0,,,84,0
51360,note_off,,,,,96,0,2,,,,,1,,,72,0
51360,note_off,,,,,32,0,4,,,,,3,,,62,0
51360,note_on,,,,,0,0,2,,,,,1,,,70,90
51392,note_on,,,,,0,0,1,,,,,0,,,79,106
51392,note_on,,,,,32,0,4,,,,,3,,,64,78
51392,note_off,,,,,64,0,1,,,,,0,,,82,0
51424,note_off,,,,,32,0,1,,,,,0,,,79,0
51424,note_off,,,,,32,0,4,,,,,3,,,64,0
51424,note_on,,,,,0,0,1,,,,,0,,,79,106
51456,note_off,,,,,32,0,1,,,,,0,,,79,0
51456,note_on,,,,,0,0,1,,,,,0,,,77,106
51456,note_on,,,,,32,0,4,,,,,3,,,65,78
51456,note_off,,,,,0,0,3,,,,,2,,,70,0
51456,note_on,,,,,0,0,3,,,,,2,,,65,81
51456,note_off,,,,,96,0,2,,,,,1,,,70,0
51456,note_on,,,,,0,0,2,,,,,1,,,69,90
51456,note_off,,,,,768,0,3,,,,,2,,,67,0
51456,note_on,,,,,0,0,3,,,,,2,,,69,81
51488,note_off,,,,,32,0,2,,,,,1,,,69,0
51488,note_off,,,,,32,0,1,,,,,0,,,77,0
51488,note_on,,,,,0,0,1,,,,,0,,,76,106
51488,note_off,,,,,32,0,3,,,,,2,,,69,0
51488,note_off,,,,,0,0,3,,,,,2,,,65,0
51520,note_off,,,,,64,0,4,,,,,3,,,65,0
51520,note_on,,,,,0,0,4,,,,,3,,,53,78
51520,note_on,,,,,32,0,2,,,,,1,,,72,90
51520,note_on,,,,,0,0,2,,,,,1,,,60,90
51520,note_on,,,,,32,0,3,,,,,2,,,69,81
51520,note_off,,,,,32,0,1,,,,,0,,,76,0
51520,note_on,,,,,0,0,1,,,,,0,,,77,106
51552,note_off,,,,,32,0,2,,,,,1,,,72,0
51552,note_off,,,,,32,0,1,,,,,0,,,77,0
51552,note_on,,,,,0,0,1,,,,,0,,,79,106
51552,note_off,,,,,0,0,2,,,,,1,,,60,0
51584,note_off,,,,,64,0,3,,,,,2,,,69,0
51584,note_on,,,,,0,0,3,,,,,2,,,70,81
51584,note_on,,,,,0,0,4,,,,,3,,,55,78
51584,note_off,,,,,64,0,4,,,,,3,,,53,0
51584,note_on,,,,,32,0,2,,,,,1,,,72,90
51584,note_on,,,,,0,0,2,,,,,1,,,60,90
51584,note_off,,,,,32,0,1,,,,,0,,,79,0
51584,note_on,,,,,0,0,1,,,,,0,,,81,106
51616,note_on,,,,,0,0,1,,,,,0,,,82,106
51616,note_off,,,,,32,0,2,,,,,1,,,72,0
51616,note_off,,,,,0,0,2,,,,,1,,,60,0
51616,note_off,,,,,32,0,1,,,,,0,,,81,0
51648,note_off,,,,,64,0,3,,,,,2,,,70,0
51648,note_on,,,,,0,0,3,,,,,2,,,71,81
51648,note_on,,,,,0,0,4,,,,,3,,,56,78
51648,note_on,,,,,32,0,2,,,,,1,,,72,90
51648,note_off,,,,,32,0,1,,,,,0,,,82,0
51648,note_on,,,,,0,0,2,,,,,1,,,60,90
51648,note_on,,,,,0,0,1,,,,,0,,,83,106
51648,note_off,,,,,64,0,4,,,,,3,,,55,0
51680,note_off,,,,,32,0,1,,,,,0,,,83,0
51680,note_on,,,,,0,0,1,,,,,0,,,86,106
51680,note_off,,,,,0,0,2,,,,,1,,,60,0
51680,note_off,,,,,32,0,2,,,,,1,,,72,0
51712,note_on,,,,,0,0,3,,,,,2,,,72,81
51712,note_off,,,,,64,0,3,,,,,2,,,71,0
51712,note_off,,,,,32,0,1,,,,,0,,,86,0
51712,note_on,,,,,32,0,2,,,,,1,,,72,90
51712,note_on,,,,,0,0,2,,,,,1,,,60,90
51712,note_on,,,,,0,0,4,,,,,3,,,57,78
51712,note_off,,,,,64,0,4,,,,,3,,,56,0
51712,note_on,,,,,0,0,1,,,,,0,,,83,106
51744,note_off,,,,,32,0,2,,,,,1,,,72,0
51744,note_on,,,,,0,0,1,,,,,0,,,84,106
51744,note_off,,,,,32,0,1,,,,,0,,,83,0
51744,note_off,,,,,0,0,2,,,,,1,,,60,0
51776,note_off,,,,,32,0,1,,,,,0,,,84,0
51776,note_on,,,,,0,0,2,,,,,1,,,60,90
51776,note_on,,,,,32,0,2,,,,,1,,,72,90
51776,note_on,,,,,0,0,3,,,,,2,,,69,81
51776,note_off,,,,,64,0,3,,,,,2,,,72,0
51776,note_off,,,,,64,0,4,,,,,3,,,57,0
51776,note_on,,,,,0,0,4,,,,,3,,,53,78
51776,note_on,,,,,0,0,1,,,,,0,,,81,106
51808,note_off,,,,,32,0,2,,,,,1,,,72,0
51808,note_off,,,,,0,0,2,,,,,1,,,60,0
51808,note_on,,,,,0,0,1,,,,,0,,,77,106
51808,note_off,,,,,32,0,1,,,,,0,,,81,0
51824,note_off,,,,,16,0,1,,,,,0,,,77,0
51824,note_on,,,,,0,0,1,,,,,0,,,79,106
51840,note_off,,,,,16,0,1,,,,,0,,,79,0
51840,note_on,,,,,0,0,1,,,,,0,,,77,106
51840,note_off,,,,,64,0,3,,,,,2,,,69,0
51840,note_off,,,,,64,0,4,,,,,3,,,53,0
51840,note_on,,,,,0,0,4,,,,,3,,,48,78
51872,note_off,,,,,32,0,1,,,,,0,,,77,0
51872,note_on,,,,,0,0,1,,,,,0,,,76,106
51872,note_off,,,,,32,0,4,,,,,3,,,48,0
51904,note_off,,,,,32,0,1,,,,,0,,,76,0
51904,note_on,,,,,0,0,1,,,,,0,,,77,106
51904,note_on,,,,,64,0,3,,,,,2,,,69,81
51904,note_on,,,,,0,0,2,,,,,1,,,72,90
51904,note_on,,,,,96,0,2,,,,,1,,,60,90
51904,note_on,,,,,32,0,4,,,,,3,,,53,78
51936,note_off,,,,,32,0,2,,,,,1,,,60,0
51936,note_off,,,,,0,0,2,,,,,1,,,72,0
51936,note_on,,,,,0,0,1,,,,,0,,,79,106
51936,note_off,,,,,32,0,1,,,,,0,,,77,0
51968,note_on,,,,,0,0,1,,,,,0,,,81,106
51968,note_off,,,,,32,0,1,,,,,0,,,79,0
51968,note_on,,,,,0,0,3,,,,,2,,,70,81
51968,note_off,,,,,64,0,3,,,,,2,,,69,0
51968,note_on,,,,,0,0,4,,,,,3,,,55,78
51968,note_off,,,,,64,0,4,,,,,3,,,53,0
51968,note_on,,,,,0,0,2,,,,,1,,,60,90
51968,note_on,,,,,32,0,2,,,,,1,,,72,90
52000,note_off,,,,,0,0,2,,,,,1,,,60,0
52000,note_off,,,,,32,0,2,,,,,1,,,72,0
52000,note_off,,,,,32,0,1,,,,,0,,,81,0
52000,note_on,,,,,0,0,1,,,,,0,,,82,106
52032,note_on,,,,,32,0,2,,,,,1,,,72,90
52032,note_off,,,,,64,0,3,,,,,2,,,70,0
52032,note_on,,,,,0,0,2,,,,,1,,,60,90
52032,note_off,,,,,32,0,1,,,,,0,,,82,0
52032,note_on,,,,,0,0,3,,,,,2,,,71,81
52032,note_off,,,,,64,0,4,,,,,3,,,55,0
52032,note_on,,,,,0,0,1,,,,,0,,,83,106
52032,note_on,,,,,0,0,4,,,,,3,,,56,78
52064,note_on,,,,,0,0,1,,,,,0,,,86,106
52064,note_off,,,,,32,0,1,,,,,0,,,83,0
52064,note_off,,,,,32,0,2,,,,,1,,,72,0
52064,note_off,,,,,0,0,2,,,,,1,,,60,0
52096,note_on,,,,,0,0,4,,,,,3,,,57,78
52096,note_off,,,,,64,0,3,,,,,2,,,71,0
52096,note_off,,,,,32,0,1,,,,,0,,,86,0
52096,note_on,,,,,0,0,1,,,,,0,,,83,106
52096,note_on,,,,,0,0,2,,,,,1,,,60,90
52096,note_on,,,,,0,0,3,,,,,2,,,72,81
52096,note_off,,,,,64,0,4,,,,,3,,,56,0
52096,note_on,,,,,32,0,2,,,,,1,,,72,90
52128,note_off,,,,,32,0,1,,,,,0,,,83,0
52128,note_on,,,,,0,0,1,,,,,0,,,84,106
52128,note_off,,,,,32,0,2,,,,,1,,,72,0
52128,note_off,,,,,0,0,2,,,,,1,,,60,0
52160,note_off,,,,,32,0,1,,,,,0,,,84,0
52160,note_on,,,,,0,0,1,,,,,0,,,81,106
52160,note_off,,,,,64,0,3,,,,,2,,,72,0
52160,note_on,,,,,32,0,2,,,,,1,,,72,90
52160,note_on,,,,,0,0,2,,,,,1,,,60,90
52160,note_off,,,,,64,0,4,,,,,3,,,57,0
52160,note_on,,,,,0,0,3,,,,,2,,,69,81
52160,note_on,,,,,0,0,4,,,,,3,,,53,78
52192,note_off,,,,,0,0,2,,,,,1,,,60,0
52192,note_off,,,,,32,0,2,,,,,1,,,72,0
52192,note_on,,,,,0,0,1,,,,,0,,,77,106
52192,note_off,,,,,32,0,1,,,,,0,,,81,0
52208,note_off,,,,,16,0,1,,,,,0,,,77,0
52208,note_on,,,,,0,0,1,,,,,0,,,77,106
52224,note_on,,,,,0,0,1,,,,,0,,,76,106
52224,note_off,,,,,16,0,1,,,,,0,,,77,0
52224,note_off,,,,,64,0,3,,,,,2,,,69,0
52224,note_on,,,,,0,0,4,,,,,3,,,48,78
52224,note_off,,,,,64,0,4,,,,,3,,,53,0
52256,note_off,,,,,32,0,4,,,,,3,,,48,0
52256,note_off,,,,,32,0,1,,,,,0,,,76,0
52256,note_on,,,,,0,0,1,,,,,0,,,74,106
52288,note_on,,,,,32,0,4,,,,,3,,,52,78
52288,note_on,,,,,96,0,2,,,,,1,,,60,90
52288,note_off,,,,,32,0,1,,,,,0,,,74,0
52288,note_on,,,,,0,0,1,,,,,0,,,76,106
52288,note_on,,,,,64,0,3,,,,,2,,,67,81
52288,note_on,,,,,0,0,2,,,,,1,,,72,90
52320,note_off,,,,,32,0,1,,,,,0,,,76,0
52320,note_on,,,,,0,0,1,,,,,0,,,77,106
52320,note_off,,,,,32,0,2,,,,,1,,,60,0
52320,note_off,,,,,0,0,2,,,,,1,,,72,0
52352,note_on,,,,,0,0,3,,,,,2,,,69,81
52352,note_off,,,,,64,0,3,,,,,2,,,67,0
52352,note_off,,,,,32,0,1,,,,,0,,,77,0
52352,note_on,,,,,0,0,1,,,,,0,,,79,106
52352,note_on,,,,,0,0,4,,,,,3,,,53,78
52352,note_off,,,,,64,0,4,,,,,3,,,52,0
52352,note_on,,,,,0,0,2,,,,,1,,,72,90
52352,note_on,,,,,32,0,2,,,,,1,,,60,90
52384,note_on,,,,,0,0,1,,,,,0,,,81,106
52384,note_off,,,,,32,0,1,,,,,0,,,79,0
52384,note_off,,,,,0,0,2,,,,,1,,,72,0
52384,note_off,,,,,32,0,2,,,,,1,,,60,0
52416,note_on,,,,,0,0,1,,,,,0,,,81,106
52416,note_off,,,,,32,0,1,,,,,0,,,81,0
52416,note_on,,,,,0,0,2,,,,,1,,,60,90
52416,note_on,,,,,32,0,2,,,,,1,,,72,90
52416,note_on,,,,,0,0,3,,,,,2,,,69,81
52416,note_on,,,,,0,0,4,,,,,3,,,54,78
52416,note_off,,,,,64,0,4,,,,,3,,,53,0
52416,note_off,,,,,64,0,3,,,,,2,,,69,0
52448,note_off,,,,,0,0,2,,,,,1,,,60,0
52448,note_off,,,,,32,0,1,,,,,0,,,81,0
52448,note_on,,,,,0,0,1,,,,,0,,,84,106
52448,note_off,,,,,32,0,2,,,,,1,,,72,0
52480,note_off,,,,,64,0,3,,,,,2,,,69,0
52480,note_on,,,,,0,0,3,,,,,2,,,70,81
52480,note_on,,,,,0,0,4,,,,,3,,,55,78
52480,note_off,,,,,64,0,4,,,,,3,,,54,0
52480,note_off,,,,,32,0,1,,,,,0,,,84,0
52480,note_on,,,,,0,0,1,,,,,0,,,81,106
52480,note_on,,,,,32,0,2,,,,,1,,,72,90
52480,note_on,,,,,0,0,2,,,,,1,,,60,90
52512,note_off,,,,,32,0,2,,,,,1,,,72,0
52512,note_on,,,,,0,0,1,,,,,0,,,82,106
52512,note_off,,,,,32,0,1,,,,,0,,,81,0
52512,note_off,,,,,0,0,2,,,,,1,,,60,0
52544,note_on,,,,,0,0,2,,,,,1,,,72,90
52544,note_on,,,,,32,0,2,,,,,1,,,60,90
52544,note_off,,,,,64,0,3,,,,,2,,,70,0
52544,note_on,,,,,0,0,3,,,,,2,,,67,81
52544,note_on,,,,,0,0,1,,,,,0,,,79,106
52544,note_off,,,,,32,0,1,,,,,0,,,82,0
52544,note_off,,,,,64,0,4,,,,,3,,,55,0
52544,note_on,,,,,0,0,4,,,,,3,,,52,78
52576,note_off,,,,,32,0,1,,,,,0,,,79,0
52576,note_on,,,,,0,0,1,,,,,0,,,76,106
52576,note_off,,,,,32,0,2,,,,,1,,,60,0
52576,note_off,,,,,0,0,2,,,,,1,,,72,0
52592,note_on,,,,,0,0,1,,,,,0,,,77,106
52592,note_off,,,,,16,0,1,,,,,0,,,76,0
52608,note_off,,,,,16,0,1,,,,,0,,,77,0
52608,note_on,,,,,0,0,4,,,,,3,,,48,78
52608,note_off,,,,,64,0,4,,,,,3,,,52,0
52608,note_on,,,,,0,0,1,,,,,0,,,76,106
52608,note_off,,,,,64,0,3,,,,,2,,,67,0
52640,note_off,,,,,32,0,4,,,,,3,,,48,0
52640,note_off,,,,,32,0,1,,,,,0,,,76,0
52640,note_on,,,,,0,0,1,,,,,0,,,74,106
52672,note_on,,,,,64,0,3,,,,,2,,,67,81
52672,note_off,,,,,32,0,1,,,,,0,,,74,0
52672,note_on,,,,,0,0,1,,,,,0,,,76,106
52672,note_on,,,,,32,0,4,,,,,3,,,52,78
52672,note_on,,,,,96,0,2,,,,,1,,,60,90
52672,note_on,,,,,0,0,2,,,,,1,,,72,90
52704,note_off,,,,,0,0,2,,,,,1,,,72,0
52704,note_off,,,,,32,0,2,,,,,1,,,60,0
52704,note_off,,,,,32,0,1,,,,,0,,,76,0
52704,note_on,,,,,0,0,1,,,,,0,,,77,106
52736,note_on,,,,,0,0,4,,,,,3,,,53,78
52736,note_off,,,,,32,0,1,,,,,0,,,77,0
52736,note_on,,,,,0,0,1,,,,,0,,,79,106
52736,note_off,,,,,64,0,4,,,,,3,,,52,0
52736,note_on,,,,,0,0,2,,,,,1,,,60,90
52736,note_on,,,,,32,0,2,,,,,1,,,72,90
52736,note_on,,,,,0,0,3,,,,,2,,,69,81
52736,note_off,,,,,64,0,3,,,,,2,,,67,0
52768,note_on,,,,,0,0,1,,,,,0,,,81,106
52768,note_off,,,,,0,0,2,,,,,1,,,60,0
52768,note_off,,,,,32,0,2,,,,,1,,,72,0
52768,note_off,,,,,32,0,1,,,,,0,,,79,0
52800,note_on,,,,,0,0,2,,,,,1,,,60,90
52800,note_off,,,,,64,0,4,,,,,3,,,53,0
52800,note_off,,,,,64,0,3,,,,,2,,,69,0
52800,note_on,,,,,0,0,3,,,,,2,,,69,81
52800,note_off,,,,,32,0,1,,,,,0,,,81,0
52800,note_on,,,,,0,0,1,,,,,0,,,81,106
52800,note_on,,,,,32,0,2,,,,,1,,,72,90
52800,note_on,,,,,0,0,4,,,,,3,,,54,78
52832,note_off,,,,,32,0,1,,,,,0,,,81,0
52832,note_on,,,,,0,0,1,,,,,0,,,84,106
52832,note_off,,,,,32,0,2,,,,,1,,,72,0
52832,note_off,,,,,0,0,2,,,,,1,,,60,0
52864,note_off,,,,,64,0,4,,,,,3,,,54,0
52864,note_on,,,,,0,0,4,,,,,3,,,55,78
52864,note_on,,,,,32,0,2,,,,,1,,,72,90
52864,note_on,,,,,0,0,2,,,,,1,,,60,90
52864,note_off,,,,,64,0,3,,,,,2,,,69,0
52864,note_on,,,,,0,0,3,,,,,2,,,70,81
52864,note_on,,,,,0,0,1,,,,,0,,,81,106
52864,note_off,,,,,32,0,1,,,,,0,,,84,0
52896,note_off,,,,,32,0,2,,,,,1,,,72,0
52896,note_on,,,,,0,0,1,,,,,0,,,82,106
52896,note_off,,,,,32,0,1,,,,,0,,,81,0
52896,note_off,,,,,0,0,2,,,,,1,,,60,0
52928,note_off,,,,,64,0,3,,,,,2,,,70,0
52928,note_on,,,,,0,0,2,,,,,1,,,72,90
52928,note_on,,,,,0,0,3,,,,,2,,,67,81
52928,note_on,,,,,32,0,2,,,,,1,,,60,90
52928,note_off,,,,,32,0,1,,,,,0,,,82,0
52928,note_off,,,,,64,0,4,,,,,3,,,55,0
52928,note_on,,,,,0,0,4,,,,,3,,,48,78
52928,note_on,,,,,0,0,1,,,,,0,,,79,106
52960,note_on,,,,,0,0,1,,,,,0,,,76,106
52960,note_off,,,,,32,0,1,,,,,0,,,79,0
52960,note_off,,,,,0,0,2,,,,,1,,,72,0
52960,note_off,,,,,32,0,2,,,,,1,,,60,0
52976,note_off,,,,,16,0,1,,,,,0,,,76,0
52976,note_on,,,,,0,0,1,,,,,0,,,79,106
52992,note_off,,,,,64,0,4,,,,,3,,,48,0
52992,note_on,,,,,0,0,1,,,,,0,,,77,106
52992,note_off,,,,,64,0,3,,,,,2,,,67,0
52992,note_on,,,,,0,0,4,,,,,3,,,48,78
52992,note_off,,,,,16,0,1,,,,,0,,,79,0
53024,note_off,,,,,32,0,4,,,,,3,,,48,0
53024,note_off,,,,,32,0,1,,,,,0,,,77,0
53024,note_on,,,,,0,0,1,,,,,0,,,76,106
53056,note_off,,,,,32,0,1,,,,,0,,,76,0
53056,note_on,,,,,0,0,1,,,,,0,,,77,106
53056,note_on,,,,,96,0,2,,,,,1,,,60,90
53056,note_on,,,,,0,0,2,,,,,1,,,72,90
53056,note_on,,,,,32,0,4,,,,,3,,,53,78
53056,note_on,,,,,64,0,3,,,,,2,,,68,81
53088,note_off,,,,,32,0,2,,,,,1,,,60,0
53088,note_off,,,,,0,0,2,,,,,1,,,72,0
53088,note_off,,,,,32,0,1,,,,,0,,,77,0
53088,note_on,,,,,0,0,1,,,,,0,,,79,106
53120,note_off,,,,,64,0,4,,,,,3,,,53,0
53120,note_off,,,,,64,0,3,,,,,2,,,68,0
53120,note_on,,,,,0,0,3,,,,,2,,,70,81
53120,note_off,,,,,32,0,1,,,,,0,,,79,0
53120,note_on,,,,,0,0,1,,,,,0,,,80,106
53120,note_on,,,,,0,0,2,,,,,1,,,60,90
53120,note_on,,,,,32,0,2,,,,,1,,,72,90
53120,note_on,,,,,0,0,4,,,,,3,,,55,78
53152,note_off,,,,,0,0,2,,,,,1,,,60,0
53152,note_off,,,,,32,0,2,,,,,1,,,72,0
53152,note_off,,,,,32,0,1,,,,,0,,,80,0
53152,note_on,,,,,0,0,1,,,,,0,,,82,106
53184,note_on,,,,,0,0,1,,,,,0,,,83,106
53184,note_on,,,,,0,0,2,,,,,1,,,72,90
53184,note_on,,,,,0,0,4,,,,,3,,,55,78
53184,note_off,,,,,32,0,1,,,,,0,,,82,0
53184,note_on,,,,,32,0,2,,,,,1,,,60,90
53184,note_on,,,,,0,0,3,,,,,2,,,71,81
53184,note_off,,,,,64,0,3,,,,,2,,,70,0
53184,note_off,,,,,64,0,4,,,,,3,,,55,0
53216,note_on,,,,,0,0,1,,,,,0,,,86,106
53216,note_off,,,,,32,0,2,,,,,1,,,60,0
53216,note_off,,,,,0,0,2,,,,,1,,,72,0
53216,note_off,,,,,32,0,1,,,,,0,,,83,0
53248,note_on,,,,,32,0,2,,,,,1,,,60,90
53248,note_on,,,,,0,0,2,,,,,1,,,72,90
53248,note_on,,,,,0,0,1,,,,,0,,,84,106
53248,note_on,,,,,0,0,4,,,,,3,,,56,78
53248,note_off,,,,,64,0,3,,,,,2,,,71,0
53248,note_on,,,,,0,0,3,,,,,2,,,72,81
53248,note_off,,,,,64,0,4,,,,,3,,,55,0
53248,note_off,,,,,32,0,1,,,,,0,,,86,0
53280,note_off,,,,,32,0,1,,,,,0,,,84,0
53280,note_off,,,,,32,0,2,,,,,1,,,60,0
53280,note_on,,,,,0,0,1,,,,,0,,,89,106
53280,note_off,,,,,0,0,2,,,,,1,,,72,0
53312,note_on,,,,,0,0,1,,,,,0,,,84,106
53312,note_off,,,,,32,0,1,,,,,0,,,89,0
53312,note_on,,,,,0,0,3,,,,,2,,,68,81
53312,note_on,,,,,0,0,4,,,,,3,,,53,78
53312,note_off,,,,,64,0,3,,,,,2,,,72,0
53312,note_on,,,,,32,0,2,,,,,1,,,60,90
53312,note_off,,,,,64,0,4,,,,,3,,,56,0
53312,note_on,,,,,0,0,2,,,,,1,,,72,90
53344,note_off,,,,,32,0,1,,,,,0,,,84,0
53344,note_on,,,,,0,0,1,,,,,0,,,81,106
53344,note_off,,,,,0,0,2,,,,,1,,,72,0
53344,note_off,,,,,32,0,2,,,,,1,,,60,0
53360,note_off,,,,,16,0,1,,,,,0,,,81,0
53360,note_on,,,,,0,0,1,,,,,0,,,79,106
53376,note_off,,,,,64,0,4,,,,,3,,,53,0
53376,note_off,,,,,64,0,3,,,,,2,,,68,0
53376,note_on,,,,,0,0,4,,,,,3,,,48,78
53376,note_on,,,,,0,0,1,,,,,0,,,77,106
53376,note_off,,,,,16,0,1,,,,,0,,,79,0
53408,note_on,,,,,0,0,1,,,,,0,,,76,106
53408,note_off,,,,,32,0,1,,,,,0,,,77,0
53408,note_off,,,,,32,0,4,,,,,3,,,48,0
53440,note_on,,,,,0,0,2,,,,,1,,,72,90
53440,note_on,,,,,96,0,2,,,,,1,,,60,90
53440,note_on,,,,,64,0,3,,,,,2,,,68,81
53440,note_on,,,,,0,0,1,,,,,0,,,77,106
53440,note_off,,,,,32,0,1,,,,,0,,,76,0
53440,note_on,,,,,32,0,4,,,,,3,,,53,78
53472,note_off,,,,,32,0,2,,,,,1,,,60,0
53472,note_on,,,,,0,0,1,,,,,0,,,79,106
53472,note_off,,,,,32,0,1,,,,,0,,,77,0
53472,note_off,,,,,0,0,2,,,,,1,,,72,0
53504,note_off,,,,,64,0,3,,,,,2,,,68,0
53504,note_on,,,,,0,0,3,,,,,2,,,70,81
53504,note_on,,,,,0,0,4,,,,,3,,,55,78
53504,note_on,,,,,0,0,2,,,,,1,,,72,90
53504,note_on,,,,,0,0,1,,,,,0,,,81,106
53504,note_off,,,,,32,0,1,,,,,0,,,79,0
53504,note_off,,,,,64,0,4,,,,,3,,,53,0
53504,note_on,,,,,32,0,2,,,,,1,,,60,90
53536,note_off,,,,,32,0,2,,,,,1,,,60,0
53536,note_off,,,,,0,0,2,,,,,1,,,72,0
53536,note_on,,,,,0,0,1,,,,,0,,,82,106
53536,note_off,,,,,32,0,1,,,,,0,,,81,0
53568,note_on,,,,,32,0,2,,,,,1,,,60,90
53568,note_on,,,,,0,0,2,,,,,1,,,72,90
53568,note_on,,,,,0,0,4,,,,,3,,,55,78
53568,note_off,,,,,64,0,3,,,,,2,,,70,0
53568,note_off,,,,,64,0,4,,,,,3,,,55,0
53568,note_on,,,,,0,0,3,,,,,2,,,71,81
53568,note_off,,,,,32,0,1,,,,,0,,,82,0
53568,note_on,,,,,0,0,1,,,,,0,,,83,106
53600,note_off,,,,,0,0,2,,,,,1,,,72,0
53600,note_off,,,,,32,0,2,,,,,1,,,60,0
53600,note_on,,,,,0,0,1,,,,,0,,,86,106
53600,note_off,,,,,32,0,1,,,,,0,,,83,0
53632,note_on,,,,,0,0,3,,,,,2,,,72,81
53632,note_on,,,,,0,0,2,,,,,1,,,60,90
53632,note_on,,,,,32,0,2,,,,,1,,,72,90
53632,note_on,,,,,0,0,4,,,,,3,,,56,78
53632,note_off,,,,,64,0,4,,,,,3,,,55,0
53632,note_on,,,,,0,0,1,,,,,0,,,84,106
53632,note_off,,,,,32,0,1,,,,,0,,,86,0
53632,note_off,,,,,64,0,3,,,,,2,,,71,0
53664,note_on,,,,,0,0,1,,,,,0,,,89,106
53664,note_off,,,,,32,0,2,,,,,1,,,72,0
53664,note_off,,,,,0,0,2,,,,,1,,,60,0
53664,note_off,,,,,32,0,1,,,,,0,,,84,0
53696,note_on,,,,,0,0,2,,,,,1,,,72,90
53696,note_on,,,,,0,0,1,,,,,0,,,84,106
53696,note_off,,,,,64,0,3,,,,,2,,,72,0
53696,note_on,,,,,0,0,3,,,,,2,,,68,81
53696,note_on,,,,,32,0,2,,,,,1,,,60,90
53696,note_off,,,,,64,0,4,,,,,3,,,56,0
53696,note_on,,,,,0,0,4,,,,,3,,,53,78
53696,note_off,,,,,32,0,1,,,,,0,,,89,0
53728,note_off,,,,,0,0,2,,,,,1,,,72,0
53728,note_off,,,,,32,0,2,,,,,1,,,60,0
53728,note_on,,,,,0,0,1,,,,,0,,,81,106
53728,note_off,,,,,32,0,1,,,,,0,,,84,0
53744,note_off,,,,,16,0,1,,,,,0,,,81,0
53744,note_on,,,,,0,0,1,,,,,0,,,73,106
53760,note_off,,,,,64,0,3,,,,,2,,,68,0
53760,note_off,,,,,64,0,4,,,,,3,,,53,0
53760,note_on,,,,,0,0,1,,,,,0,,,72,106
53760,note_off,,,,,16,0,1,,,,,0,,,73,0
53760,note_on,,,,,0,0,4,,,,,3,,,44,78
53792,note_off,,,,,32,0,1,,,,,0,,,72,0
53792,note_on,,,,,0,0,1,,,,,0,,,71,106
53792,note_off,,,,,32,0,4,,,,,3,,,44,0
53824,note_on,,,,,96,0,2,,,,,1,,,68,90
53824,note_on,,,,,0,0,1,,,,,0,,,72,106
53824,note_off,,,,,32,0,1,,,,,0,,,71,0
53824,note_on,,,,,0,0,2,,,,,1,,,56,90
53824,note_on,,,,,64,0,3,,,,,2,,,63,81
53824,note_on,,,,,32,0,4,,,,,3,,,48,78
53856,note_off,,,,,0,0,2,,,,,1,,,56,0
53856,note_off,,,,,32,0,2,,,,,1,,,68,0
53856,note_on,,,,,0,0,1,,,,,0,,,73,106
53856,note_off,,,,,32,0,1,,,,,0,,,72,0
53888,note_on,,,,,32,0,2,,,,,1,,,56,90
53888,note_on,,,,,0,0,2,,,,,1,,,68,90
53888,note_off,,,,,64,0,4,,,,,3,,,48,0
53888,note_off,,,,,32,0,1,,,,,0,,,73,0
53888,note_on,,,,,0,0,1,,,,,0,,,75,106
53888,note_on,,,,,0,0,4,,,,,3,,,49,78
53888,note_off,,,,,64,0,3,,,,,2,,,63,0
53888,note_on,,,,,0,0,3,,,,,2,,,65,81
53920,note_off,,,,,0,0,2,,,,,1,,,68,0
53920,note_off,,,,,32,0,1,,,,,0,,,75,0
53920,note_on,,,,,0,0,1,,,,,0,,,77,106
53920,note_off,,,,,32,0,2,,,,,1,,,56,0
53952,note_off,,,,,32,0,1,,,,,0,,,77,0
53952,note_off,,,,,64,0,4,,,,,3,,,49,0
53952,note_on,,,,,0,0,4,,,,,3,,,50,78
53952,note_off,,,,,64,0,3,,,,,2,,,65,0
53952,note_on,,,,,0,0,3,,,,,2,,,65,81
53952,note_on,,,,,32,0,2,,,,,1,,,56,90
53952,note_on,,,,,0,0,2,,,,,1,,,68,90
53952,note_on,,,,,0,0,1,,,,,0,,,77,106
53984,note_off,,,,,32,0,1,,,,,0,,,77,0
53984,note_off,,,,,32,0,2,,,,,1,,,56,0
53984,note_off,,,,,0,0,2,,,,,1,,,68,0
53984,note_on,,,,,0,0,1,,,,,0,,,80,106
54016,note_on,,,,,0,0,2,,,,,1,,,68,90
54016,note_on,,,,,32,0,2,,,,,1,,,56,90
54016,note_off,,,,,32,0,1,,,,,0,,,80,0
54016,note_on,,,,,0,0,1,,,,,0,,,77,106
54016,note_on,,,,,0,0,4,,,,,3,,,51,78
54016,note_off,,,,,64,0,4,,,,,3,,,50,0
54016,note_off,,,,,64,0,3,,,,,2,,,65,0
54016,note_on,,,,,0,0,3,,,,,2,,,66,81
54048,note_off,,,,,32,0,2,,,,,1,,,56,0
54048,note_off,,,,,0,0,2,,,,,1,,,68,0
54048,note_off,,,,,32,0,1,,,,,0,,,77,0
54048,note_on,,,,,0,0,1,,,,,0,,,78,106
54080,note_on,,,,,0,0,4,,,,,3,,,48,78
54080,note_off,,,,,64,0,4,,,,,3,,,51,0
54080,note_on,,,,,0,0,1,,,,,0,,,75,106
54080,note_off,,,,,64,0,3,,,,,2,,,66,0
54080,note_off,,,,,32,0,1,,,,,0,,,78,0
54080,note_on,,,,,0,0,2,,,,,1,,,56,90
54080,note_on,,,,,0,0,3,,,,,2,,,63,81
54080,note_on,,,,,32,0,2,,,,,1,,,68,90
54112,note_off,,,,,0,0,2,,,,,1,,,56,0
54112,note_off,,,,,32,0,2,,,,,1,,,68,0
54112,note_on,,,,,0,0,1,,,,,0,,,72,106
54112,note_off,,,,,32,0,1,,,,,0,,,75,0
54128,note_on,,,,,0,0,1,,,,,0,,,73,106
54128,note_off,,,,,16,0,1,,,,,0,,,72,0
54144,note_off,,,,,64,0,3,,,,,2,,,63,0
54144,note_on,,,,,0,0,1,,,,,0,,,72,106
54144,note_off,,,,,16,0,1,,,,,0,,,73,0
54144,note_off,,,,,64,0,4,,,,,3,,,48,0
54144,note_on,,,,,0,0,4,,,,,3,,,44,78
54176,note_off,,,,,32,0,1,,,,,0,,,72,0
54176,note_off,,,,,32,0,4,,,,,3,,,44,0
54176,note_on,,,,,0,0,1,,,,,0,,,70,106
54208,note_off,,,,,32,0,1,,,,,0,,,70,0
54208,note_on,,,,,64,0,3,,,,,2,,,63,81
54208,note_on,,,,,96,0,2,,,,,1,,,56,90
54208,note_on,,,,,0,0,2,,,,,1,,,68,90
54208,note_on,,,,,0,0,1,,,,,0,,,72,106
54208,note_on,,,,,32,0,4,,,,,3,,,48,78
54240,note_off,,,,,0,0,2,,,,,1,,,68,0
54240,note_off,,,,,32,0,2,,,,,1,,,56,0
54240,note_on,,,,,0,0,1,,,,,0,,,73,106
54240,note_off,,,,,32,0,1,,,,,0,,,72,0
54272,note_on,,,,,0,0,1,,,,,0,,,75,106
54272,note_off,,,,,32,0,1,,,,,0,,,73,0
54272,note_off,,,,,64,0,4,,,,,3,,,48,0
54272,note_on,,,,,0,0,4,,,,,3,,,49,78
54272,note_on,,,,,0,0,3,,,,,2,,,65,81
54272,note_off,,,,,64,0,3,,,,,2,,,63,0
54272,note_on,,,,,32,0,2,,,,,1,,,68,90
54272,note_on,,,,,0,0,2,,,,,1,,,56,90
54304,note_on,,,,,0,0,1,,,,,0,,,77,106
54304,note_off,,,,,32,0,1,,,,,0,,,75,0
54304,note_off,,,,,0,0,2,,,,,1,,,56,0
54304,note_off,,,,,32,0,2,,,,,1,,,68,0
54336,note_on,,,,,0,0,3,,,,,2,,,65,81
54336,note_on,,,,,0,0,1,,,,,0,,,77,106
54336,note_off,,,,,32,0,1,,,,,0,,,77,0
54336,note_off,,,,,64,0,3,,,,,2,,,65,0
54336,note_off,,,,,64,0,4,,,,,3,,,49,0
54336,note_on,,,,,0,0,4,,,,,3,,,50,78
54336,note_on,,,,,0,0,2,,,,,1,,,56,90
54336,note_on,,,,,32,0,2,,,,,1,,,68,90
54368,note_off,,,,,32,0,1,,,,,0,,,77,0
54368,note_on,,,,,0,0,1,,,,,0,,,80,106
54368,note_off,,,,,32,0,2,,,,,1,,,68,0
54368,note_off,,,,,0,0,2,,,,,1,,,56,0
54400,note_on,,,,,0,0,1,,,,,0,,,77,106
54400,note_on,,,,,0,0,4,,,,,3,,,51,78
54400,note_on,,,,,0,0,3,,,,,2,,,66,81
54400,note_on,,,,,32,0,2,,,,,1,,,68,90
54400,note_on,,,,,0,0,2,,,,,1,,,56,90
54400,note_off,,,,,64,0,4,,,,,3,,,50,0
54400,note_off,,,,,64,0,3,,,,,2,,,65,0
54400,note_off,,,,,32,0,1,,,,,0,,,80,0
54432,note_off,,,,,32,0,1,,,,,0,,,77,0
54432,note_off,,,,,0,0,2,,,,,1,,,56,0
54432,note_off,,,,,32,0,2,,,,,1,,,68,0
54432,note_on,,,,,0,0,1,,,,,0,,,78,106
54464,note_off,,,,,32,0,1,,,,,0,,,78,0
54464,note_on,,,,,0,0,1,,,,,0,,,75,106
54464,note_on,,,,,0,0,2,,,,,1,,,56,90
54464,note_on,,,,,32,0,2,,,,,1,,,68,90
54464,note_on,,,,,0,0,4,,,,,3,,,44,78
54464,note_off,,,,,64,0,4,,,,,3,,,51,0
54464,note_off,,,,,64,0,3,,,,,2,,,66,0
54464,note_on,,,,,0,0,3,,,,,2,,,63,81
54496,note_off,,,,,32,0,4,,,,,3,,,44,0
54496,note_off,,,,,0,0,2,,,,,1,,,56,0
54496,note_off,,,,,32,0,2,,,,,1,,,68,0
54496,note_on,,,,,0,0,4,,,,,3,,,51,78
54496,note_on,,,,,0,0,1,,,,,0,,,72,106
54496,note_off,,,,,32,0,1,,,,,0,,,75,0
54528,note_on,,,,,0,0,1,,,,,0,,,73,106
54528,note_off,,,,,32,0,1,,,,,0,,,72,0
54528,note_on,,,,,0,0,3,,,,,2,,,61,81
54528,note_off,,,,,64,0,3,,,,,2,,,63,0
54528,note_off,,,,,32,0,4,,,,,3,,,51,0
54528,note_on,,,,,0,0,4,,,,,3,,,49,78
54560,note_on,,,,,0,0,4,,,,,3,,,48,78
54560,note_off,,,,,32,0,1,,,,,0,,,73,0
54560,note_off,,,,,32,0,4,,,,,3,,,49,0
54592,note_on,,,,,32,0,1,,,,,0,,,68,106
54592,note_off,,,,,32,0,4,,,,,3,,,48,0
54592,note_on,,,,,0,0,4,,,,,3,,,49,78
54592,note_off,,,,,64,0,3,,,,,2,,,61,0
54592,note_on,,,,,96,0,2,,,,,1,,,65,90
54624,note_on,,,,,0,0,4,,,,,3,,,51,78
54624,note_off,,,,,32,0,4,,,,,3,,,49,0
54624,note_off,,,,,32,0,1,,,,,0,,,68,0
54624,note_off,,,,,32,0,2,,,,,1,,,65,0
54656,note_off,,,,,32,0,4,,,,,3,,,51,0
54656,note_on,,,,,32,0,1,,,,,0,,,73,106
54656,note_on,,,,,32,0,2,,,,,1,,,68,90
54656,note_on,,,,,0,0,4,,,,,3,,,53,78
54688,note_off,,,,,32,0,4,,,,,3,,,53,0
54688,note_on,,,,,0,0,4,,,,,3,,,54,78
54688,note_off,,,,,32,0,1,,,,,0,,,73,0
54688,note_off,,,,,32,0,2,,,,,1,,,68,0
54720,note_on,,,,,32,0,1,,,,,0,,,77,106
54720,note_on,,,,,0,0,4,,,,,3,,,55,78
54720,note_off,,,,,32,0,4,,,,,3,,,54,0
54720,note_on,,,,,32,0,2,,,,,1,,,73,90
54752,note_off,,,,,32,0,2,,,,,1,,,73,0
54752,note_on,,,,,0,0,4,,,,,3,,,58,78
54752,note_off,,,,,32,0,4,,,,,3,,,55,0
54752,note_off,,,,,32,0,1,,,,,0,,,77,0
54784,note_on,,,,,32,0,1,,,,,0,,,80,106
54784,note_on,,,,,0,0,4,,,,,3,,,55,78
54784,note_on,,,,,32,0,2,,,,,1,,,77,90
54784,note_off,,,,,32,0,4,,,,,3,,,58,0
54816,note_off,,,,,32,0,2,,,,,1,,,77,0
54816,note_off,,,,,32,0,4,,,,,3,,,55,0
54816,note_off,,,,,32,0,1,,,,,0,,,80,0
54816,note_on,,,,,0,0,4,,,,,3,,,56,78
54848,note_off,,,,,32,0,4,,,,,3,,,56,0
54848,note_on,,,,,0,0,4,,,,,3,,,53,78
54848,note_on,,,,,32,0,1,,,,,0,,,85,106
54848,note_on,,,,,32,0,2,,,,,1,,,80,90
54880,note_off,,,,,32,0,2,,,,,1,,,80,0
54880,note_off,,,,,32,0,1,,,,,0,,,85,0
54880,note_off,,,,,32,0,4,,,,,3,,,53,0
54880,note_on,,,,,0,0,4,,,,,3,,,49,78
54880,note_on,,,,,0,0,1,,,,,0,,,77,106
54912,note_off,,,,,32,0,4,,,,,3,,,49,0
54912,note_on,,,,,0,0,1,,,,,0,,,75,106
54912,note_on,,,,,0,0,4,,,,,3,,,42,78
54912,note_off,,,,,32,0,1,,,,,0,,,77,0
54944,note_off,,,,,32,0,1,,,,,0,,,75,0
54944,note_on,,,,,0,0,1,,,,,0,,,74,106
54976,note_off,,,,,32,0,1,,,,,0,,,74,0
54976,note_on,,,,,0,0,1,,,,,0,,,75,106
54976,note_on,,,,,384,0,3,,,,,2,,,54,81
54976,note_on,,,,,96,0,2,,,,,1,,,58,90
55008,note_off,,,,,32,0,1,,,,,0,,,75,0
55008,note_on,,,,,0,0,1,,,,,0,,,77,106
55008,note_off,,,,,32,0,3,,,,,2,,,54,0
55008,note_off,,,,,32,0,2,,,,,1,,,58,0
55040,note_on,,,,,32,0,3,,,,,2,,,58,81
55040,note_on,,,,,32,0,2,,,,,1,,,63,90
55040,note_on,,,,,0,0,1,,,,,0,,,78,106
55040,note_off,,,,,32,0,1,,,,,0,,,77,0
55072,note_off,,,,,32,0,2,,,,,1,,,63,0
55072,note_off,,,,,32,0,1,,,,,0,,,78,0
55072,note_on,,,,,0,0,1,,,,,0,,,80,106
55072,note_off,,,,,32,0,3,,,,,2,,,58,0
55104,note_on,,,,,32,0,3,,,,,2,,,63,81
55104,note_on,,,,,0,0,1,,,,,0,,,81,106
55104,note_on,,,,,32,0,2,,,,,1,,,66,90
55104,note_off,,,,,32,0,1,,,,,0,,,80,0
55136,note_off,,,,,32,0,3,,,,,2,,,63,0
55136,note_on,,,,,0,0,1,,,,,0,,,84,106
55136,note_off,,,,,32,0,1,,,,,0,,,81,0
55136,note_off,,,,,32,0,2,,,,,1,,,66,0
55168,note_off,,,,,32,0,1,,,,,0,,,84,0
55168,note_on,,,,,32,0,3,,,,,2,,,66,81
55168,note_on,,,,,32,0,2,,,,,1,,,70,90
55168,note_on,,,,,0,0,1,,,,,0,,,81,106
55200,note_off,,,,,32,0,1,,,,,0,,,81,0
55200,note_on,,,,,0,0,1,,,,,0,,,82,106
55200,note_off,,,,,32,0,3,,,,,2,,,66,0
55200,note_off,,,,,32,0,2,,,,,1,,,70,0
55232,note_on,,,,,0,0,1,,,,,0,,,78,106
55232,note_off,,,,,32,0,1,,,,,0,,,82,0
55232,note_on,,,,,32,0,3,,,,,2,,,70,81
55232,note_on,,,,,32,0,2,,,,,1,,,75,90
55264,note_on,,,,,0,0,3,,,,,2,,,66,81
55264,note_on,,,,,0,0,2,,,,,1,,,63,90
55264,note_off,,,,,32,0,2,,,,,1,,,75,0
55264,note_off,,,,,32,0,1,,,,,0,,,78,0
55264,note_on,,,,,0,0,1,,,,,0,,,75,106
55264,note_off,,,,,32,0,3,,,,,2,,,70,0
55296,note_on,,,,,0,0,2,,,,,1,,,61,90
55296,note_off,,,,,32,0,3,,,,,2,,,66,0
55296,note_on,,,,,0,0,3,,,,,2,,,65,81
55296,note_off,,,,,384,0,4,,,,,3,,,42,0
55296,note_on,,,,,0,0,1,,,,,0,,,73,106
55296,note_off,,,,,32,0,1,,,,,0,,,75,0
55296,note_on,,,,,0,0,4,,,,,3,,,44,78
55296,note_off,,,,,32,0,2,,,,,1,,,63,0
55328,note_on,,,,,0,0,3,,,,,2,,,63,81
55328,note_off,,,,,32,0,3,,,,,2,,,65,0
55328,note_off,,,,,32,0,4,,,,,3,,,44,0
55328,note_off,,,,,32,0,1,,,,,0,,,73,0
55328,note_off,,,,,32,0,2,,,,,1,,,61,0
55328,note_on,,,,,0,0,2,,,,,1,,,60,90
55360,note_off,,,,,32,0,2,,,,,1,,,60,0
55360,note_on,,,,,32,0,4,,,,,3,,,44,78
55360,note_on,,,,,0,0,3,,,,,2,,,65,81
55360,note_on,,,,,0,0,2,,,,,1,,,61,90
55360,note_off,,,,,32,0,3,,,,,2,,,63,0
55360,note_on,,,,,32,0,1,,,,,0,,,80,106
55392,note_off,,,,,32,0,3,,,,,2,,,65,0
55392,note_off,,,,,32,0,4,,,,,3,,,44,0
55392,note_on,,,,,0,0,3,,,,,2,,,60,81
55392,note_off,,,,,32,0,2,,,,,1,,,61,0
55392,note_on,,,,,0,0,2,,,,,1,,,63,90
55392,note_off,,,,,32,0,1,,,,,0,,,80,0
55424,note_on,,,,,0,0,3,,,,,2,,,61,81
55424,note_off,,,,,32,0,3,,,,,2,,,60,0
55424,note_on,,,,,0,0,2,,,,,1,,,65,90
55424,note_on,,,,,32,0,4,,,,,3,,,44,78
55424,note_off,,,,,32,0,2,,,,,1,,,63,0
55424,note_on,,,,,32,0,1,,,,,0,,,80,106
55456,note_off,,,,,32,0,2,,,,,1,,,65,0
55456,note_on,,,,,0,0,2,,,,,1,,,66,90
55456,note_off,,,,,32,0,1,,,,,0,,,80,0
55456,note_on,,,,,0,0,3,,,,,2,,,63,81
55456,note_off,,,,,32,0,3,,,,,2,,,61,0
55456,note_off,,,,,32,0,4,,,,,3,,,44,0
55488,note_off,,,,,32,0,3,,,,,2,,,63,0
55488,note_on,,,,,0,0,3,,,,,2,,,64,81
55488,note_off,,,,,32,0,2,,,,,1,,,66,0
55488,note_on,,,,,0,0,2,,,,,1,,,67,90
55488,note_on,,,,,32,0,1,,,,,0,,,80,106
55488,note_on,,,,,32,0,4,,,,,3,,,44,78
55520,note_off,,,,,32,0,3,,,,,2,,,64,0
55520,note_off,,,,,32,0,4,,,,,3,,,44,0
55520,note_on,,,,,0,0,3,,,,,2,,,65,81
55520,note_off,,,,,32,0,1,,,,,0,,,80,0
55520,note_on,,,,,0,0,2,,,,,1,,,68,90
55520,note_off,,,,,32,0,2,,,,,1,,,67,0
55552,note_on,,,,,0,0,2,,,,,1,,,70,90
55552,note_off,,,,,32,0,2,,,,,1,,,68,0
55552,note_on,,,,,32,0,1,,,,,0,,,80,106
55552,note_on,,,,,0,0,3,,,,,2,,,66,81
55552,note_off,,,,,32,0,3,,,,,2,,,65,0
55552,note_on,,,,,32,0,4,,,,,3,,,44,78
55584,note_off,,,,,32,0,4,,,,,3,,,44,0
55584,note_on,,,,,0,0,2,,,,,1,,,68,90
55584,note_off,,,,,32,0,1,,,,,0,,,80,0
55584,note_on,,,,,0,0,3,,,,,2,,,65,81
55584,note_off,,,,,32,0,3,,,,,2,,,66,0
55584,note_off,,,,,32,0,2,,,,,1,,,70,0
55616,note_on,,,,,32,0,4,,,,,3,,,44,78
55616,note_on,,,,,32,0,1,,,,,0,,,80,106
55616,note_off,,,,,32,0,2,,,,,1,,,68,0
55616,note_on,,,,,0,0,2,,,,,1,,,66,90
55616,note_off,,,,,32,0,3,,,,,2,,,65,0
55616,note_on,,,,,0,0,3,,,,,2,,,63,81
55648,note_off,,,,,32,0,2,,,,,1,,,66,0
55648,note_on,,,,,0,0,2,,,,,1,,,65,90
55648,note_on,,,,,0,0,1,,,,,0,,,73,106
55648,note_off,,,,,32,0,1,,,,,0,,,80,0
55648,note_off,,,,,32,0,4,,,,,3,,,44,0
55648,note_on,,,,,0,0,3,,,,,2,,,61,81
55648,note_off,,,,,32,0,3,,,,,2,,,63,0
55680,note_on,,,,,0,0,3,,,,,2,,,63,81
55680,note_on,,,,,32,0,4,,,,,3,,,44,78
55680,note_off,,,,,32,0,1,,,,,0,,,73,0
55680,note_on,,,,,0,0,1,,,,,0,,,72,106
55680,note_on,,,,,0,0,2,,,,,1,,,66,90
55680,note_off,,,,,32,0,2,,,,,1,,,65,0
55680,note_off,,,,,32,0,3,,,,,2,,,61,0
55712,note_off,,,,,32,0,4,,,,,3,,,44,0
55712,note_on,,,,,0,0,1,,,,,0,,,70,106
55712,note_off,,,,,32,0,3,,,,,2,,,63,0
55712,note_off,,,,,32,0,2,,,,,1,,,66,0
55712,note_off,,,,,32,0,1,,,,,0,,,72,0
55744,note_on,,,,,32,0,4,,,,,3,,,44,78
55744,note_on,,,,,32,0,2,,,,,1,,,66,90
55744,note_on,,,,,0,0,1,,,,,0,,,72,106
55744,note_off,,,,,32,0,1,,,,,0,,,70,0
55744,note_on,,,,,32,0,3,,,,,2,,,63,81
55776,note_off,,,,,32,0,1,,,,,0,,,72,0
55776,note_on,,,,,0,0,1,,,,,0,,,73,106
55776,note_off,,,,,32,0,3,,,,,2,,,63,0
55776,note_off,,,,,32,0,4,,,,,3,,,44,0
55776,note_off,,,,,32,0,2,,,,,1,,,66,0
55808,note_on,,,,,32,0,4,,,,,3,,,44,78
55808,note_on,,,,,0,0,1,,,,,0,,,75,106
55808,note_off,,,,,32,0,1,,,,,0,,,73,0
55808,note_on,,,,,32,0,2,,,,,1,,,66,90
55808,note_on,,,,,32,0,3,,,,,2,,,63,81
55840,note_off,,,,,32,0,3,,,,,2,,,63,0
55840,note_off,,,,,32,0,4,,,,,3,,,44,0
55840,note_off,,,,,32,0,1,,,,,0,,,75,0
55840,note_on,,,,,0,0,1,,,,,0,,,77,106
55840,note_off,,,,,32,0,2,,,,,1,,,66,0
55872,note_on,,,,,32,0,2,,,,,1,,,66,90
55872,note_off,,,,,32,0,1,,,,,0,,,77,0
55872,note_on,,,,,32,0,3,,,,,2,,,63,81
55872,note_on,,,,,0,0,1,,,,,0,,,77,106
55872,note_on,,,,,32,0,4,,,,,3,,,44,78
55904,note_off,,,,,32,0,3,,,,,2,,,63,0
55904,note_off,,,,,32,0,1,,,,,0,,,77,0
55904,note_off,,,,,32,0,4,,,,,3,,,44,0
55904,note_on,,,,,0,0,1,,,,,0,,,80,106
55904,note_off,,,,,32,0,2,,,,,1,,,66,0
55936,note_on,,,,,32,0,3,,,,,2,,,63,81
55936,note_on,,,,,32,0,4,,,,,3,,,44,78
55936,note_on,,,,,32,0,2,,,,,1,,,66,90
55936,note_off,,,,,32,0,1,,,,,0,,,80,0
55936,note_on,,,,,0,0,1,,,,,0,,,77,106
55968,note_off,,,,,32,0,4,,,,,3,,,44,0
55968,note_off,,,,,32,0,1,,,,,0,,,77,0
55968,note_on,,,,,0,0,1,,,,,0,,,78,106
55968,note_off,,,,,32,0,2,,,,,1,,,66,0
55968,note_off,,,,,32,0,3,,,,,2,,,63,0
56000,note_on,,,,,32,0,3,,,,,2,,,63,81
56000,note_on,,,,,32,0,4,,,,,3,,,44,78
56000,note_off,,,,,32,0,1,,,,,0,,,78,0
56000,note_on,,,,,32,0,2,,,,,1,,,66,90
56000,note_on,,,,,0,0,1,,,,,0,,,75,106
56032,note_on,,,,,0,0,2,,,,,1,,,65,90
56032,note_off,,,,,32,0,2,,,,,1,,,66,0
56032,note_off,,,,,32,0,1,,,,,0,,,75,0
56032,note_on,,,,,0,0,1,,,,,0,,,72,106
56032,note_on,,,,,0,0,3,,,,,2,,,61,81
56032,note_off,,,,,32,0,4,,,,,3,,,44,0
56032,note_off,,,,,32,0,3,,,,,2,,,63,0
56064,note_on,,,,,0,0,1,,,,,0,,,73,106
56064,note_on,,,,,0,0,3,,,,,2,,,65,81
56064,note_off,,,,,32,0,3,,,,,2,,,61,0
56064,note_on,,,,,32,0,4,,,,,3,,,49,78
56064,note_on,,,,,0,0,2,,,,,1,,,68,90
56064,note_off,,,,,32,0,2,,,,,1,,,65,0
56064,note_off,,,,,32,0,1,,,,,0,,,72,0
56352,note_on,,,,,0,0,3,,,,,2,,,63,81
56352,note_on,,,,,0,0,2,,,,,1,,,66,90
56352,note_off,,,,,288,0,2,,,,,1,,,68,0
56352,note_off,,,,,288,0,3,,,,,2,,,65,0
56448,note_off,,,,,384,0,1,,,,,0,,,73,0
56448,note_off,,,,,96,0,2,,,,,1,,,66,0
56448,note_off,,,,,384,0,4,,,,,3,,,49,0
56448,note_on,,,,,0,0,3,,,,,2,,,61,81
56448,note_on,,,,,0,0,2,,,,,1,,,65,90
56448,note_off,,,,,96,0,3,,,,,2,,,63,0
56592,note_on,,,,,0,0,2,,,,,1,,,66,90
56592,note_off,,,,,144,0,2,,,,,1,,,65,0
56592,note_off,,,,,144,0,3,,,,,2,,,61,0
56592,note_on,,,,,0,0,3,,,,,2,,,63,81
56640,note_on,,,,,0,0,2,,,,,1,,,63,90
56640,note_off,,,,,48,0,2,,,,,1,,,66,0
56640,note_off,,,,,48,0,3,,,,,2,,,63,0
56640,note_on,,,,,0,0,3,,,,,2,,,56,81
56784,note_on,,,,,0,0,2,,,,,1,,,65,90
56784,note_off,,,,,144,0,3,,,,,2,,,56,0
56784,note_off,,,,,144,0,2,,,,,1,,,63,0
56784,note_on,,,,,0,0,3,,,,,2,,,61,81
56832,note_off,,,,,48,0,3,,,,,2,,,61,0
56832,note_on,,,,,0,0,3,,,,,2,,,53,81
56832,note_off,,,,,48,0,2,,,,,1,,,65,0
56832,note_on,,,,,0,0,2,,,,,1,,,61,90
56832,note_on,,,,,384,0,4,,,,,3,,,49,78
56832,note_on,,,,,384,0,1,,,,,0,,,68,106
56880,note_on,,,,,0,0,1,,,,,0,,,69,106
56880,note_off,,,,,48,0,1,,,,,0,,,68,0
56928,note_off,,,,,48,0,1,,,,,0,,,69,0
56928,note_on,,,,,0,0,1,,,,,0,,,68,106
56976,note_on,,,,,0,0,1,,,,,0,,,69,106
56976,note_off,,,,,48,0,1,,,,,0,,,68,0
57024,note_off,,,,,48,0,1,,,,,0,,,69,0
57024,note_on,,,,,0,0,1,,,,,0,,,68,106
57072,note_off,,,,,48,0,1,,,,,0,,,68,0
57072,note_on,,,,,0,0,1,,,,,0,,,69,106
57120,note_on,,,,,0,0,1,,,,,0,,,68,106
57120,note_off,,,,,48,0,1,,,,,0,,,69,0
57168,note_off,,,,,48,0,1,,,,,0,,,68,0
57168,note_on,,,,,0,0,1,,,,,0,,,69,106
57216,note_off,,,,,384,0,3,,,,,2,,,53,0
57216,note_off,,,,,48,0,1,,,,,0,,,69,0
57216,note_on,,,,,0,0,1,,,,,0,,,68,106
57216,note_on,,,,,0,0,3,,,,,2,,,52,81
57264,note_off,,,,,48,0,1,,,,,0,,,68,0
57264,note_on,,,,,0,0,1,,,,,0,,,69,106
57312,note_off,,,,,48,0,1,,,,,0,,,69,0
57312,note_on,,,,,0,0,1,,,,,0,,,68,106
57360,note_off,,,,,48,0,1,,,,,0,,,68,0
57360,note_on,,,,,0,0,1,,,,,0,,,69,106
57408,note_off,,,,,48,0,1,,,,,0,,,69,0
57408,note_on,,,,,0,0,1,,,,,0,,,68,106
57456,note_off,,,,,48,0,1,,,,,0,,,68,0
57456,note_on,,,,,0,0,1,,,,,0,,,69,106
57504,note_off,,,,,48,0,1,,,,,0,,,69,0
57504,note_on,,,,,0,0,1,,,,,0,,,67,106
57552,note_off,,,,,48,0,1,,,,,0,,,67,0
57552,note_on,,,,,0,0,1,,,,,0,,,68,106
57600,note_on,,,,,0,0,3,,,,,2,,,57,81
57600,note_off,,,,,48,0,1,,,,,0,,,68,0
57600,note_on,,,,,0,0,1,,,,,0,,,76,106
57600,note_off,,,,,768,0,2,,,,,1,,,61,0
57600,note_on,,,,,0,0,2,,,,,1,,,61,90
57600,note_on,,,,,0,0,2,,,,,1,,,64,90
57600,note_off,,,,,384,0,3,,,,,2,,,52,0
57600,note_off,,,,,768,0,4,,,,,3,,,49,0
57600,note_on,,,,,0,0,4,,,,,3,,,45,78
57888,note_off,,,,,288,0,1,,,,,0,,,76,0
57888,note_on,,,,,0,0,1,,,,,0,,,74,106
57984,note_off,,,,,96,0,1,,,,,0,,,74,0
57984,note_off,,,,,384,0,2,,,,,1,,,61,0
57984,note_off,,,,,384,0,3,,,,,2,,,57,0
57984,note_off,,,,,0,0,2,,,,,1,,,64,0
57984,note_on,,,,,0,0,1,,,,,0,,,73,106
57984,note_off,,,,,384,0,4,,,,,3,,,45,0
58128,note_off,,,,,144,0,1,,,,,0,,,73,0
58128,note_on,,,,,0,0,1,,,,,0,,,74,106
58176,note_on,,,,,0,0,1,,,,,0,,,71,106
58176,note_off,,,,,48,0,1,,,,,0,,,74,0
58320,note_off,,,,,144,0,1,,,,,0,,,71,0
58320,note_on,,,,,0,0,1,,,,,0,,,73,106
58368,note_off,,,,,48,0,1,,,,,0,,,73,0
58368,note_on,,,,,384,0,3,,,,,2,,,64,81
58368,note_on,,,,,384,0,4,,,,,3,,,61,78
58368,note_on,,,,,0,0,1,,,,,0,,,69,106
58656,note_off,,,,,288,0,4,,,,,3,,,61,0
58656,note_on,,,,,0,0,3,,,,,2,,,62,81
58656,note_off,,,,,288,0,3,,,,,2,,,64,0
58656,note_on,,,,,0,0,4,,,,,3,,,59,78
58752,note_on,,,,,0,0,3,,,,,2,,,61,81
58752,note_off,,,,,384,0,1,,,,,0,,,69,0
58752,note_off,,,,,96,0,4,,,,,3,,,59,0
58752,note_off,,,,,96,0,3,,,,,2,,,62,0
58752,note_on,,,,,0,0,4,,,,,3,,,57,78
58896,note_on,,,,,0,0,4,,,,,3,,,59,78
58896,note_off,,,,,144,0,4,,,,,3,,,57,0
58896,note_off,,,,,144,0,3,,,,,2,,,61,0
58896,note_on,,,,,0,0,3,,,,,2,,,62,81
58944,note_on,,,,,0,0,3,,,,,2,,,59,81
58944,note_off,,,,,48,0,4,,,,,3,,,59,0
58944,note_on,,,,,0,0,4,,,,,3,,,52,78
58944,note_off,,,,,48,0,3,,,,,2,,,62,0
59088,note_off,,,,,144,0,3,,,,,2,,,59,0
59088,note_on,,,,,0,0,3,,,,,2,,,61,81
59088,note_off,,,,,144,0,4,,,,,3,,,52,0
59088,note_on,,,,,0,0,4,,,,,3,,,57,78
59136,note_on,,,,,0,0,4,,,,,3,,,49,78
59136,note_on,,,,,384,0,1,,,,,0,,,76,106
59136,note_off,,,,,48,0,4,,,,,3,,,57,0
59136,note_on,,,,,0,0,3,,,,,2,,,57,81
59136,note_off,,,,,48,0,3,,,,,2,,,61,0
59424,note_off,,,,,288,0,1,,,,,0,,,76,0
59424,note_on,,,,,0,0,1,,,,,0,,,77,106
59520,note_off,,,,,96,0,1,,,,,0,,,77,0
59520,note_on,,,,,0,0,4,,,,,3,,,50,78
59520,note_on,,,,,0,0,1,,,,,0,,,78,106
59520,note_off,,,,,384,0,4,,,,,3,,,49,0
59664,note_on,,,,,0,0,1,,,,,0,,,83,106
59664,note_off,,,,,144,0,1,,,,,0,,,78,0
59712,note_off,,,,,48,0,1,,,,,0,,,83,0
59712,note_on,,,,,0,0,4,,,,,3,,,54,78
59712,note_off,,,,,192,0,4,,,,,3,,,50,0
59712,note_on,,,,,0,0,1,,,,,0,,,81,106
59856,note_off,,,,,144,0,1,,,,,0,,,81,0
59856,note_on,,,,,0,0,1,,,,,0,,,78,106
59904,note_off,,,,,48,0,1,,,,,0,,,78,0
59904,note_on,,,,,0,0,1,,,,,0,,,76,106
59904,note_on,,,,,0,0,4,,,,,3,,,57,78
59904,note_on,,,,,0,0,3,,,,,2,,,61,81
59904,note_off,,,,,192,0,4,,,,,3,,,54,0
59904,note_off,,,,,768,0,3,,,,,2,,,57,0
60192,note_on,,,,,0,0,1,,,,,0,,,74,106
60192,note_off,,,,,288,0,4,,,,,3,,,57,0
60192,note_on,,,,,0,0,4,,,,,3,,,59,78
60192,note_off,,,,,288,0,1,,,,,0,,,76,0
60192,note_off,,,,,288,0,3,,,,,2,,,61,0
60192,note_on,,,,,0,0,3,,,,,2,,,62,81
60224,note_off,,,,,32,0,1,,,,,0,,,74,0
60224,note_on,,,,,0,0,1,,,,,0,,,73,106
60256,note_off,,,,,32,0,1,,,,,0,,,73,0
60256,note_on,,,,,0,0,1,,,,,0,,,71,106
60288,note_off,,,,,32,0,1,,,,,0,,,71,0
60288,note_on,,,,,0,0,1,,,,,0,,,70,106
60288,note_off,,,,,96,0,4,,,,,3,,,59,0
60288,note_on,,,,,0,0,4,,,,,3,,,61,78
60288,note_on,,,,,0,0,3,,,,,2,,,64,81
60288,note_off,,,,,96,0,3,,,,,2,,,62,0
60480,note_on,,,,,0,0,1,,,,,0,,,79,106
60480,note_on,,,,,2496,0,2,,,,,1,,,70,90
60480,note_off,,,,,192,0,1,,,,,0,,,70,0
60624,note_on,,,,,0,0,1,,,,,0,,,78,106
60624,note_off,,,,,144,0,1,,,,,0,,,79,0
60672,note_on,,,,,0,0,4,,,,,3,,,62,78
60672,note_off,,,,,384,0,4,,,,,3,,,61,0
60672,note_on,,,,,0,0,3,,,,,2,,,66,81
60672,note_off,,,,,192,0,2,,,,,1,,,70,0
60672,note_on,,,,,0,0,2,,,,,1,,,71,90
60672,note_off,,,,,384,0,3,,,,,2,,,64,0
60672,note_on,,,,,0,0,1,,,,,0,,,78,106
60672,note_off,,,,,48,0,1,,,,,0,,,78,0
60864,note_off,,,,,192,0,2,,,,,1,,,71,0
60864,note_off,,,,,192,0,3,,,,,2,,,66,0
60864,note_off,,,,,192,0,4,,,,,3,,,62,0
60960,note_on,,,,,0,0,1,,,,,0,,,76,106
60960,note_off,,,,,288,0,1,,,,,0,,,78,0
61056,note_on,,,,,0,0,1,,,,,0,,,74,106
61056,note_off,,,,,96,0,1,,,,,0,,,76,0
61200,note_on,,,,,0,0,1,,,,,0,,,76,106
61200,note_off,,,,,144,0,1,,,,,0,,,74,0
61248,note_on,,,,,0,0,1,,,,,0,,,73,106
61248,note_off,,,,,48,0,1,,,,,0,,,76,0
61392,note_off,,,,,144,0,1,,,,,0,,,73,0
61392,note_on,,,,,0,0,1,,,,,0,,,74,106
61440,note_on,,,,,576,0,4,,,,,3,,,62,78
61440,note_on,,,,,576,0,3,,,,,2,,,66,81
61440,note_off,,,,,48,0,1,,,,,0,,,74,0
61440,note_on,,,,,0,0,1,,,,,0,,,71,106
61728,note_off,,,,,288,0,4,,,,,3,,,62,0
61728,note_off,,,,,288,0,3,,,,,2,,,66,0
61728,note_on,,,,,0,0,3,,,,,2,,,64,81
61728,note_on,,,,,0,0,4,,,,,3,,,61,78
61824,note_off,,,,,96,0,3,,,,,2,,,64,0
61824,note_on,,,,,0,0,3,,,,,2,,,62,81
61824,note_off,,,,,384,0,1,,,,,0,,,71,0
61824,note_on,,,,,0,0,4,,,,,3,,,59,78
61824,note_off,,,,,96,0,4,,,,,3,,,61,0
61968,note_off,,,,,144,0,3,,,,,2,,,62,0
61968,note_on,,,,,0,0,4,,,,,3,,,61,78
61968,note_off,,,,,144,0,4,,,,,3,,,59,0
61968,note_on,,,,,0,0,3,,,,,2,,,64,81
62016,note_off,,,,,48,0,3,,,,,2,,,64,0
62016,note_on,,,,,0,0,4,,,,,3,,,57,78
62016,note_on,,,,,0,0,3,,,,,2,,,61,81
62016,note_off,,,,,48,0,4,,,,,3,,,61,0
62160,note_off,,,,,144,0,4,,,,,3,,,57,0
62160,note_on,,,,,0,0,4,,,,,3,,,59,78
62160,note_on,,,,,0,0,3,,,,,2,,,62,81
62160,note_off,,,,,144,0,3,,,,,2,,,61,0
62208,note_on,,,,,384,0,1,,,,,0,,,86,106
62208,note_off,,,,,48,0,4,,,,,3,,,59,0
62208,note_on,,,,,0,0,4,,,,,3,,,56,78
62208,note_on,,,,,0,0,3,,,,,2,,,59,81
62208,note_off,,,,,48,0,3,,,,,2,,,62,0
62448,note_off,,,,,240,0,1,,,,,0,,,86,0
62448,note_on,,,,,0,0,1,,,,,0,,,85,106
62496,note_off,,,,,48,0,1,,,,,0,,,85,0
62496,note_on,,,,,0,0,1,,,,,0,,,83,106
62544,note_on,,,,,0,0,1,,,,,0,,,81,106
62544,note_off,,,,,48,0,1,,,,,0,,,83,0
62592,note_off,,,,,384,0,3,,,,,2,,,59,0
62592,note_on,,,,,0,0,3,,,,,2,,,64,81
62592,note_on,,,,,0,0,1,,,,,0,,,80,106
62592,note_off,,,,,48,0,1,,,,,0,,,81,0
62640,note_off,,,,,48,0,1,,,,,0,,,80,0
62688,note_on,,,,,48,0,1,,,,,0,,,78,106
62736,note_off,,,,,48,0,1,,,,,0,,,78,0
62784,note_on,,,,,48,0,1,,,,,0,,,76,106
62832,note_off,,,,,48,0,1,,,,,0,,,76,0
62880,note_on,,,,,48,0,1,,,,,0,,,74,106
62928,note_off,,,,,48,0,1,,,,,0,,,74,0
62976,note_off,,,,,384,0,3,,,,,2,,,64,0
62976,note_on,,,,,0,0,3,,,,,2,,,64,81
62976,note_on,,,,,48,0,1,,,,,0,,,73,106
62976,note_on,,,,,0,0,4,,,,,3,,,57,78
62976,note_off,,,,,768,0,4,,,,,3,,,56,0
63072,note_off,,,,,96,0,4,,,,,3,,,57,0
63072,note_off,,,,,96,0,1,,,,,0,,,73,0
63072,note_off,,,,,96,0,3,,,,,2,,,64,0
63168,note_on,,,,,96,0,1,,,,,0,,,76,106
63168,note_on,,,,,96,0,3,,,,,2,,,61,81
63168,note_on,,,,,2304,0,2,,,,,1,,,67,90
63168,note_on,,,,,96,0,4,,,,,3,,,58,78
63360,note_on,,,,,0,0,1,,,,,0,,,74,106
63360,note_off,,,,,192,0,1,,,,,0,,,76,0
63360,note_off,,,,,192,0,4,,,,,3,,,58,0
63360,note_on,,,,,0,0,4,,,,,3,,,59,78
63360,note_on,,,,,0,0,3,,,,,2,,,62,81
63360,note_off,,,,,192,0,3,,,,,2,,,61,0
63360,note_off,,,,,192,0,2,,,,,1,,,67,0
63360,note_on,,,,,0,0,2,,,,,1,,,66,90
63552,note_on,,,,,0,0,2,,,,,1,,,66,90
63552,note_off,,,,,192,0,2,,,,,1,,,66,0
63552,note_on,,,,,0,0,1,,,,,0,,,78,106
63552,note_off,,,,,192,0,1,,,,,0,,,74,0
63552,note_on,,,,,0,0,3,,,,,2,,,59,81
63552,note_off,,,,,192,0,3,,,,,2,,,62,0
63552,note_off,,,,,192,0,4,,,,,3,,,59,0
63552,note_on,,,,,0,0,4,,,,,3,,,50,78
63648,note_on,,,,,0,0,4,,,,,3,,,51,78
63648,note_off,,,,,96,0,2,,,,,1,,,66,0
63648,note_off,,,,,96,0,4,,,,,3,,,50,0
63648,note_on,,,,,0,0,2,,,,,1,,,69,90
63744,note_on,,,,,0,0,2,,,,,1,,,61,90
63744,note_on,,,,,0,0,3,,,,,2,,,64,81
63744,note_off,,,,,192,0,3,,,,,2,,,59,0
63744,note_off,,,,,192,0,1,,,,,0,,,78,0
63744,note_on,,,,,0,0,1,,,,,0,,,69,106
63744,note_off,,,,,96,0,4,,,,,3,,,51,0
63744,note_on,,,,,0,0,4,,,,,3,,,52,78
63744,note_off,,,,,96,0,2,,,,,1,,,69,0
64032,note_on,,,,,0,0,2,,,,,1,,,62,90
64032,note_off,,,,,288,0,2,,,,,1,,,61,0
64032,note_off,,,,,288,0,1,,,,,0,,,69,0
64032,note_on,,,,,0,0,1,,,,,0,,,71,106
64080,note_on,,,,,0,0,1,,,,,0,,,69,106
64080,note_off,,,,,48,0,2,,,,,1,,,62,0
64080,note_on,,,,,0,0,2,,,,,1,,,61,90
64080,note_off,,,,,48,0,1,,,,,0,,,71,0
64128,note_off,,,,,48,0,2,,,,,1,,,61,0
64128,note_on,,,,,0,0,2,,,,,1,,,59,90
64128,note_off,,,,,48,0,1,,,,,0,,,69,0
64128,note_on,,,,,0,0,1,,,,,0,,,68,106
64272,note_off,,,,,144,0,1,,,,,0,,,68,0
64272,note_on,,,,,0,0,2,,,,,1,,,61,90
64272,note_off,,,,,144,0,2,,,,,1,,,59,0
64272,note_on,,,,,0,0,1,,,,,0,,,69,106
64320,note_on,,,,,0,0,3,,,,,2,,,56,81
64320,note_off,,,,,576,0,3,,,,,2,,,64,0
64320,note_off,,,,,48,0,1,,,,,0,,,69,0
64320,note_on,,,,,0,0,1,,,,,0,,,73,106
64320,note_off,,,,,576,0,4,,,,,3,,,52,0
64320,note_off,,,,,48,0,2,,,,,1,,,61,0
64320,note_on,,,,,0,0,2,,,,,1,,,64,90
64320,note_on,,,,,0,0,4,,,,,3,,,52,78
64464,note_off,,,,,144,0,1,,,,,0,,,73,0
64464,note_off,,,,,144,0,2,,,,,1,,,64,0
64464,note_on,,,,,0,0,2,,,,,1,,,62,90
64464,note_on,,,,,0,0,1,,,,,0,,,71,106
64512,note_off,,,,,192,0,4,,,,,3,,,52,0
64512,note_on,,,,,0,0,4,,,,,3,,,52,78
64512,note_off,,,,,192,0,3,,,,,2,,,56,0
64512,note_off,,,,,48,0,2,,,,,1,,,62,0
64512,note_off,,,,,48,0,1,,,,,0,,,71,0
64512,note_on,,,,,0,0,1,,,,,0,,,71,106
64512,note_on,,,,,0,0,3,,,,,2,,,56,81
64512,note_on,,,,,0,0,2,,,,,1,,,62,90
64896,note_on,,,,,0,0,1,,,,,0,,,69,106
64896,note_on,,,,,0,0,2,,,,,1,,,61,90
64896,note_off,,,,,384,0,3,,,,,2,,,56,0
64896,note_on,,,,,0,0,3,,,,,2,,,57,81
64896,note_on,,,,,0,0,4,,,,,3,,,45,78
64896,note_off,,,,,384,0,4,,,,,3,,,52,0
64896,note_off,,,,,384,0,2,,,,,1,,,62,0
64896,note_off,,,,,384,0,1,,,,,0,,,71,0
65088,note_off,,,,,192,0,2,,,,,1,,,61,0
65088,note_off,,,,,192,0,3,,,,,2,,,57,0
65088,note_off,,,,,192,0,1,,,,,0,,,69,0
65088,note_off,,,,,192,0,4,,,,,3,,,45,0
65088,note_on,,,,,0,0,4,,,,,3,,,57,78
65232,note_off,,,,,144,0,4,,,,,3,,,57,0
65232,note_on,,,,,0,0,4,,,,,3,,,56,78
65280,note_on,,,,,0,0,4,,,,,3,,,56,78
65280,note_off,,,,,48,0,4,,,,,3,,,56,0
65472,note_on,,,,,384,0,2,,,,,1,,,74,90
65472,note_off,,,,,192,0,4,,,,,3,,,56,0
65472,note_on,,,,,0,0,4,,,,,3,,,54,78
65616,note_on,,,,,0,0,2,,,,,1,,,73,90
65616,note_off,,,,,144,0,2,,,,,1,,,74,0
65664,note_off,,,,,48,0,2,,,,,1,,,73,0
65664,note_on,,,,,0,0,4,,,,,3,,,52,78
65664,note_off,,,,,192,0,4,,,,,3,,,54,0
65664,note_on,,,,,0,0,2,,,,,1,,,73,90
65856,note_on,,,,,0,0,4,,,,,3,,,50,78
65856,note_off,,,,,192,0,4,,,,,3,,,52,0
65856,note_on,,,,,768,0,1,,,,,0,,,78,106
65856,note_off,,,,,192,0,2,,,,,1,,,73,0
65856,note_on,,,,,0,0,2,,,,,1,,,71,90
65856,note_on,,,,,768,0,3,,,,,2,,,68,81
66000,note_on,,,,,0,0,1,,,,,0,,,76,106
66000,note_off,,,,,144,0,1,,,,,0,,,78,0
66048,note_on,,,,,0,0,2,,,,,1,,,69,90
66048,note_off,,,,,192,0,2,,,,,1,,,71,0
66048,note_off,,,,,192,0,4,,,,,3,,,50,0
66048,note_on,,,,,0,0,3,,,,,2,,,69,81
66048,note_on,,,,,0,0,4,,,,,3,,,49,78
66048,note_off,,,,,48,0,1,,,,,0,,,76,0
66048,note_on,,,,,0,0,1,,,,,0,,,76,106
66048,note_off,,,,,192,0,3,,,,,2,,,68,0
66096,note_off,,,,,48,0,1,,,,,0,,,76,0
66096,note_on,,,,,0,0,1,,,,,0,,,78,106
66120,note_off,,,,,24,0,1,,,,,0,,,78,0
66120,note_on,,,,,0,0,1,,,,,0,,,80,106
66144,note_off,,,,,24,0,1,,,,,0,,,80,0
66144,note_on,,,,,0,0,1,,,,,0,,,81,106
66168,note_off,,,,,24,0,1,,,,,0,,,81,0
66168,note_on,,,,,0,0,1,,,,,0,,,83,106
66192,note_off,,,,,24,0,1,,,,,0,,,83,0
66192,note_on,,,,,0,0,1,,,,,0,,,85,106
66216,note_off,,,,,24,0,1,,,,,0,,,85,0
66216,note_on,,,,,0,0,1,,,,,0,,,86,106
66240,note_off,,,,,24,0,1,,,,,0,,,86,0
66240,note_on,,,,,0,0,1,,,,,0,,,88,106
66240,note_off,,,,,192,0,2,,,,,1,,,69,0
66240,note_off,,,,,192,0,3,,,,,2,,,69,0
66240,note_off,,,,,192,0,4,,,,,3,,,49,0
66432,note_on,,,,,192,0,3,,,,,2,,,57,81
66432,note_on,,,,,192,0,4,,,,,3,,,49,78
66432,note_on,,,,,192,0,2,,,,,1,,,69,90
66496,note_on,,,,,0,0,3,,,,,2,,,61,81
66496,note_off,,,,,64,0,3,,,,,2,,,57,0
66496,note_on,,,,,0,0,1,,,,,0,,,85,106
66496,note_off,,,,,256,0,1,,,,,0,,,88,0
66496,note_off,,,,,64,0,2,,,,,1,,,69,0
66496,note_on,,,,,0,0,2,,,,,1,,,73,90
66560,note_off,,,,,64,0,2,,,,,1,,,73,0
66560,note_on,,,,,0,0,2,,,,,1,,,76,90
66560,note_off,,,,,64,0,3,,,,,2,,,61,0
66560,note_on,,,,,0,0,3,,,,,2,,,69,81
66560,note_on,,,,,0,0,1,,,,,0,,,81,106
66560,note_off,,,,,64,0,1,,,,,0,,,85,0
66624,note_off,,,,,64,0,2,,,,,1,,,76,0
66624,note_off,,,,,192,0,4,,,,,3,,,49,0
66624,note_on,,,,,0,0,4,,,,,3,,,50,78
66624,note_on,,,,,0,0,3,,,,,2,,,62,81
66624,note_on,,,,,0,0,2,,,,,1,,,78,90
66624,note_off,,,,,64,0,3,,,,,2,,,69,0
66624,note_on,,,,,0,0,1,,,,,0,,,81,106
66624,note_off,,,,,64,0,1,,,,,0,,,81,0
66688,note_on,,,,,0,0,3,,,,,2,,,66,81
66688,note_off,,,,,64,0,3,,,,,2,,,62,0
66688,note_on,,,,,0,0,2,,,,,1,,,74,90
66688,note_off,,,,,64,0,2,,,,,1,,,78,0
66688,note_on,,,,,0,0,1,,,,,0,,,78,106
66688,note_off,,,,,64,0,1,,,,,0,,,81,0
66752,note_off,,,,,64,0,3,,,,,2,,,66,0
66752,note_on,,,,,0,0,3,,,,,2,,,71,81
66752,note_on,,,,,0,0,1,,,,,0,,,74,106
66752,note_off,,,,,64,0,1,,,,,0,,,78,0
66752,note_on,,,,,0,0,2,,,,,1,,,71,90
66752,note_off,,,,,64,0,2,,,,,1,,,74,0
66816,note_off,,,,,64,0,1,,,,,0,,,74,0
66816,note_on,,,,,0,0,1,,,,,0,,,73,106
66816,note_off,,,,,192,0,4,,,,,3,,,50,0
66816,note_on,,,,,0,0,4,,,,,3,,,52,78
66816,note_on,,,,,0,0,3,,,,,2,,,57,81
66816,note_off,,,,,64,0,3,,,,,2,,,71,0
66816,note_on,,,,,0,0,2,,,,,1,,,69,90
66816,note_off,,,,,64,0,2,,,,,1,,,71,0
66880,note_on,,,,,0,0,3,,,,,2,,,62,81
66880,note_off,,,,,64,0,3,,,,,2,,,57,0
66880,note_off,,,,,64,0,1,,,,,0,,,73,0
66880,note_on,,,,,0,0,1,,,,,0,,,78,106
66944,note_on,,,,,0,0,1,,,,,0,,,76,106
66944,note_off,,,,,64,0,1,,,,,0,,,78,0
66944,note_off,,,,,64,0,3,,,,,2,,,62,0
66944,note_on,,,,,0,0,3,,,,,2,,,61,81
66976,note_on,,,,,0,0,1,,,,,0,,,76,106
66976,note_off,,,,,32,0,1,,,,,0,,,76,0
67008,note_off,,,,,192,0,4,,,,,3,,,52,0
67008,note_on,,,,,0,0,4,,,,,3,,,52,78
67008,note_on,,,,,0,0,1,,,,,0,,,74,106
67008,note_off,,,,,32,0,1,,,,,0,,,76,0
67008,note_off,,,,,192,0,2,,,,,1,,,69,0
67008,note_on,,,,,0,0,2,,,,,1,,,68,90
67008,note_on,,,,,0,0,3,,,,,2,,,59,81
67008,note_off,,,,,64,0,3,,,,,2,,,61,0
67072,note_off,,,,,64,0,3,,,,,2,,,59,0
67072,note_on,,,,,0,0,3,,,,,2,,,61,81
67072,note_off,,,,,64,0,1,,,,,0,,,74,0
67072,note_on,,,,,0,0,1,,,,,0,,,73,106
67136,note_off,,,,,64,0,3,,,,,2,,,61,0
67136,note_on,,,,,0,0,3,,,,,2,,,62,81
67136,note_off,,,,,64,0,1,,,,,0,,,73,0
67136,note_on,,,,,0,0,1,,,,,0,,,71,106
67200,note_on,,,,,0,0,4,,,,,3,,,54,78
67200,note_on,,,,,0,0,2,,,,,1,,,66,90
67200,note_off,,,,,192,0,2,,,,,1,,,68,0
67200,note_off,,,,,64,0,1,,,,,0,,,71,0
67200,note_on,,,,,0,0,1,,,,,0,,,69,106
67200,note_off,,,,,192,0,4,,,,,3,,,52,0
67200,note_on,,,,,0,0,3,,,,,2,,,61,81
67200,note_off,,,,,64,0,3,,,,,2,,,62,0
67392,note_off,,,,,192,0,1,,,,,0,,,69,0
67392,note_off,,,,,192,0,3,,,,,2,,,61,0
67392,note_on,,,,,0,0,1,,,,,0,,,81,106
67392,note_off,,,,,192,0,4,,,,,3,,,54,0
67392,note_off,,,,,192,0,2,,,,,1,,,66,0
67536,note_off,,,,,144,0,1,,,,,0,,,81,0
67536,note_on,,,,,0,0,1,,,,,0,,,80,106
67584,note_off,,,,,48,0,1,,,,,0,,,80,0
67584,note_on,,,,,0,0,1,,,,,0,,,80,106
67776,note_off,,,,,192,0,1,,,,,0,,,80,0
67776,note_on,,,,,384,0,3,,,,,2,,,69,81
67776,note_on,,,,,0,0,1,,,,,0,,,78,106
67920,note_on,,,,,0,0,3,,,,,2,,,68,81
67920,note_off,,,,,144,0,3,,,,,2,,,69,0
67968,note_on,,,,,0,0,3,,,,,2,,,68,81
67968,note_off,,,,,48,0,3,,,,,2,,,68,0
67968,note_off,,,,,192,0,1,,,,,0,,,78,0
67968,note_on,,,,,0,0,1,,,,,0,,,76,106
68160,note_off,,,,,192,0,3,,,,,2,,,68,0
68160,note_off,,,,,192,0,1,,,,,0,,,76,0
68160,note_on,,,,,0,0,3,,,,,2,,,64,81
68160,note_on,,,,,0,0,1,,,,,0,,,74,106
68160,note_on,,,,,768,0,2,,,,,1,,,71,90
68160,note_on,,,,,768,0,4,,,,,3,,,56,78
68304,note_off,,,,,144,0,4,,,,,3,,,56,0
68304,note_on,,,,,0,0,4,,,,,3,,,57,78
68352,note_off,,,,,48,0,4,,,,,3,,,57,0
68352,note_on,,,,,0,0,4,,,,,3,,,57,78
68352,note_on,,,,,0,0,2,,,,,1,,,69,90
68352,note_on,,,,,0,0,3,,,,,2,,,64,81
68352,note_off,,,,,192,0,3,,,,,2,,,64,0
68352,note_off,,,,,192,0,2,,,,,1,,,71,0
68352,note_off,,,,,192,0,1,,,,,0,,,74,0
68352,note_on,,,,,0,0,1,,,,,0,,,73,106
68376,note_off,,,,,24,0,1,,,,,0,,,73,0
68376,note_on,,,,,0,0,1,,,,,0,,,69,106
68400,note_off,,,,,24,0,1,,,,,0,,,69,0
68400,note_on,,,,,0,0,1,,,,,0,,,73,106
68424,note_off,,,,,24,0,1,,,,,0,,,73,0
68424,note_on,,,,,0,0,1,,,,,0,,,76,106
68448,note_off,,,,,24,0,1,,,,,0,,,76,0
68448,note_on,,,,,0,0,1,,,,,0,,,81,106
68480,note_on,,,,,0,0,1,,,,,0,,,85,106
68480,note_off,,,,,32,0,1,,,,,0,,,81,0
68512,note_on,,,,,0,0,1,,,,,0,,,88,106
68512,note_off,,,,,32,0,1,,,,,0,,,85,0
68544,note_on,,,,,0,0,1,,,,,0,,,93,106
68544,note_off,,,,,32,0,1,,,,,0,,,88,0
68544,note_off,,,,,192,0,2,,,,,1,,,69,0
68544,note_off,,,,,192,0,4,,,,,3,,,57,0
68544,note_off,,,,,192,0,3,,,,,2,,,64,0
68736,note_on,,,,,192,0,2,,,,,1,,,69,90
68736,note_on,,,,,192,0,4,,,,,3,,,61,78
68736,note_on,,,,,192,0,3,,,,,2,,,64,81
68736,note_off,,,,,192,0,1,,,,,0,,,93,0
68800,note_on,,,,,64,0,1,,,,,0,,,88,106
68832,note_off,,,,,32,0,1,,,,,0,,,88,0
68864,note_on,,,,,32,0,1,,,,,0,,,85,106
68896,note_off,,,,,32,0,1,,,,,0,,,85,0
68928,note_off,,,,,192,0,3,,,,,2,,,64,0
68928,note_on,,,,,0,0,3,,,,,2,,,67,81
68928,note_on,,,,,32,0,1,,,,,0,,,81,106
68960,note_off,,,,,32,0,1,,,,,0,,,81,0
68992,note_on,,,,,32,0,1,,,,,0,,,76,106
69024,note_off,,,,,288,0,4,,,,,3,,,61,0
69024,note_off,,,,,32,0,1,,,,,0,,,76,0
69024,note_on,,,,,0,0,2,,,,,1,,,70,90
69024,note_on,,,,,0,0,4,,,,,3,,,64,78
69024,note_off,,,,,288,0,2,,,,,1,,,69,0
69056,note_on,,,,,32,0,1,,,,,0,,,73,106
69088,note_off,,,,,32,0,1,,,,,0,,,73,0
69120,note_off,,,,,192,0,3,,,,,2,,,67,0
69120,note_off,,,,,96,0,4,,,,,3,,,64,0
69120,note_off,,,,,96,0,2,,,,,1,,,70,0
69120,note_on,,,,,0,0,2,,,,,1,,,71,90
69120,note_on,,,,,32,0,1,,,,,0,,,71,106
69120,note_on,,,,,0,0,3,,,,,2,,,66,81
69120,note_on,,,,,0,0,4,,,,,3,,,62,78
69184,note_off,,,,,64,0,3,,,,,2,,,66,0
69184,note_on,,,,,0,0,3,,,,,2,,,66,81
69184,note_off,,,,,64,0,2,,,,,1,,,71,0
69184,note_on,,,,,0,0,2,,,,,1,,,71,90
69184,note_off,,,,,64,0,4,,,,,3,,,62,0
69184,note_on,,,,,0,0,4,,,,,3,,,62,78
69248,note_on,,,,,0,0,4,,,,,3,,,62,78
69248,note_on,,,,,0,0,2,,,,,1,,,71,90
69248,note_off,,,,,64,0,2,,,,,1,,,71,0
69248,note_off,,,,,64,0,3,,,,,2,,,66,0
69248,note_off,,,,,64,0,4,,,,,3,,,62,0
69248,note_on,,,,,0,0,3,,,,,2,,,66,81
69312,note_off,,,,,192,0,1,,,,,0,,,71,0
69312,note_on,,,,,0,0,4,,,,,3,,,63,78
69312,note_off,,,,,64,0,2,,,,,1,,,71,0
69312,note_on,,,,,0,0,2,,,,,1,,,71,90
69312,note_off,,,,,64,0,3,,,,,2,,,66,0
69312,note_off,,,,,64,0,4,,,,,3,,,62,0
69312,note_on,,,,,0,0,3,,,,,2,,,69,81
69312,note_on,,,,,0,0,1,,,,,0,,,83,106
69376,note_on,,,,,0,0,2,,,,,1,,,71,90
69376,note_off,,,,,64,0,2,,,,,1,,,71,0
69376,note_off,,,,,64,0,3,,,,,2,,,69,0
69376,note_on,,,,,0,0,4,,,,,3,,,63,78
69376,note_on,,,,,0,0,3,,,,,2,,,69,81
69376,note_off,,,,,64,0,4,,,,,3,,,63,0
69440,note_off,,,,,64,0,4,,,,,3,,,63,0
69440,note_on,,,,,0,0,4,,,,,3,,,63,78
69440,note_off,,,,,64,0,3,,,,,2,,,69,0
69440,note_on,,,,,0,0,3,,,,,2,,,69,81
69440,note_off,,,,,64,0,2,,,,,1,,,71,0
69440,note_on,,,,,0,0,2,,,,,1,,,71,90
69504,note_off,,,,,64,0,4,,,,,3,,,63,0
69504,note_off,,,,,64,0,2,,,,,1,,,71,0
69504,note_on,,,,,0,0,4,,,,,3,,,64,78
69504,note_off,,,,,64,0,3,,,,,2,,,69,0
69504,note_on,,,,,0,0,3,,,,,2,,,69,81
69504,note_on,,,,,0,0,2,,,,,1,,,71,90
69568,note_off,,,,,64,0,2,,,,,1,,,71,0
69568,note_on,,,,,0,0,2,,,,,1,,,71,90
69568,note_on,,,,,0,0,3,,,,,2,,,69,81
69568,note_off,,,,,64,0,3,,,,,2,,,69,0
69568,note_on,,,,,0,0,4,,,,,3,,,64,78
69568,note_off,,,,,64,0,4,,,,,3,,,64,0
69632,note_on,,,,,0,0,2,,,,,1,,,71,90
69632,note_off,,,,,64,0,2,,,,,1,,,71,0
69632,note_on,,,,,0,0,3,,,,,2,,,69,81
69632,note_off,,,,,64,0,3,,,,,2,,,69,0
69632,note_off,,,,,64,0,4,,,,,3,,,64,0
69632,note_on,,,,,0,0,4,,,,,3,,,64,78
69696,note_off,,,,,64,0,2,,,,,1,,,71,0
69696,note_on,,,,,0,0,3,,,,,2,,,69,81
69696,note_off,,,,,64,0,4,,,,,3,,,64,0
69696,note_off,,,,,64,0,3,,,,,2,,,69,0
69696,note_on,,,,,0,0,2,,,,,1,,,75,90
69696,note_on,,,,,0,0,1,,,,,0,,,95,106
69696,note_off,,,,,384,0,1,,,,,0,,,83,0
69696,note_on,,,,,0,0,4,,,,,3,,,66,78
69760,note_on,,,,,0,0,2,,,,,1,,,75,90
69760,note_off,,,,,64,0,2,,,,,1,,,75,0
69760,note_on,,,,,0,0,3,,,,,2,,,69,81
69760,note_off,,,,,64,0,4,,,,,3,,,66,0
69760,note_on,,,,,0,0,4,,,,,3,,,66,78
69760,note_off,,,,,64,0,3,,,,,2,,,69,0
69824,note_off,,,,,64,0,4,,,,,3,,,66,0
69824,note_on,,,,,0,0,3,,,,,2,,,69,81
69824,note_on,,,,,0,0,4,,,,,3,,,66,78
69824,note_off,,,,,64,0,2,,,,,1,,,75,0
69824,note_on,,,,,0,0,2,,,,,1,,,75,90
69824,note_off,,,,,64,0,3,,,,,2,,,69,0
69888,note_on,,,,,0,0,2,,,,,1,,,76,90
69888,note_off,,,,,64,0,2,,,,,1,,,75,0
69888,note_off,,,,,64,0,4,,,,,3,,,66,0
69888,note_on,,,,,0,0,3,,,,,2,,,73,81
69888,note_off,,,,,192,0,1,,,,,0,,,95,0
69888,note_on,,,,,0,0,4,,,,,3,,,64,78
69888,note_off,,,,,64,0,3,,,,,2,,,69,0
69920,note_on,,,,,32,0,1,,,,,0,,,93,106
69952,note_off,,,,,32,0,1,,,,,0,,,93,0
69952,note_on,,,,,0,0,1,,,,,0,,,92,106
69984,note_off,,,,,32,0,1,,,,,0,,,92,0
69984,note_on,,,,,0,0,1,,,,,0,,,93,106
70016,note_off,,,,,32,0,1,,,,,0,,,93,0
70016,note_on,,,,,0,0,1,,,,,0,,,88,106
70048,note_on,,,,,0,0,1,,,,,0,,,85,106
70048,note_off,,,,,32,0,1,,,,,0,,,88,0
70080,note_off,,,,,32,0,1,,,,,0,,,85,0
70080,note_on,,,,,0,0,1,,,,,0,,,83,106
70112,note_off,,,,,32,0,1,,,,,0,,,83,0
70112,note_on,,,,,0,0,1,,,,,0,,,81,106
70144,note_off,,,,,32,0,1,,,,,0,,,81,0
70144,note_on,,,,,0,0,1,,,,,0,,,80,106
70176,note_off,,,,,32,0,1,,,,,0,,,80,0
70176,note_on,,,,,0,0,1,,,,,0,,,81,106
70208,note_off,,,,,32,0,1,,,,,0,,,81,0
70208,note_on,,,,,0,0,1,,,,,0,,,76,106
70240,note_on,,,,,0,0,1,,,,,0,,,73,106
70240,note_off,,,,,32,0,1,,,,,0,,,76,0
70272,note_off,,,,,384,0,3,,,,,2,,,73,0
70272,note_off,,,,,384,0,2,,,,,1,,,76,0
70272,note_on,,,,,0,0,1,,,,,0,,,71,106
70272,note_off,,,,,32,0,1,,,,,0,,,73,0
70272,note_off,,,,,384,0,4,,,,,3,,,64,0
70304,note_off,,,,,32,0,1,,,,,0,,,71,0
70304,note_on,,,,,0,0,1,,,,,0,,,69,106
70336,note_on,,,,,0,0,1,,,,,0,,,68,106
70336,note_off,,,,,32,0,1,,,,,0,,,69,0
70368,note_on,,,,,0,0,1,,,,,0,,,69,106
70368,note_off,,,,,32,0,1,,,,,0,,,68,0
70400,note_off,,,,,32,0,1,,,,,0,,,69,0
70400,note_on,,,,,0,0,1,,,,,0,,,64,106
70432,note_off,,,,,32,0,1,,,,,0,,,64,0
70432,note_on,,,,,0,0,1,,,,,0,,,61,106
70464,note_off,,,,,32,0,1,,,,,0,,,61,0
70464,note_on,,,,,0,0,1,,,,,0,,,59,106
70496,note_off,,,,,32,0,1,,,,,0,,,59,0
70496,note_on,,,,,0,0,1,,,,,0,,,57,106
70528,note_on,,,,,0,0,1,,,,,0,,,56,106
70528,note_off,,,,,32,0,1,,,,,0,,,57,0
70560,note_on,,,,,0,0,1,,,,,0,,,57,106
70560,note_off,,,,,32,0,1,,,,,0,,,56,0
70592,note_off,,,,,32,0,1,,,,,0,,,57,0
70592,note_on,,,,,0,0,1,,,,,0,,,66,106
70624,note_off,,,,,32,0,1,,,,,0,,,66,0
70624,note_on,,,,,0,0,1,,,,,0,,,64,106
70656,note_off,,,,,32,0,1,,,,,0,,,64,0
70656,note_on,,,,,0,0,1,,,,,0,,,64,106
70656,note_on,,,,,384,0,4,,,,,3,,,61,78
70656,note_on,,,,,384,0,3,,,,,2,,,64,81
70688,note_off,,,,,32,0,1,,,,,0,,,64,0
70688,note_on,,,,,0,0,1,,,,,0,,,66,106
70720,note_off,,,,,32,0,1,,,,,0,,,66,0
70720,note_on,,,,,0,0,1,,,,,0,,,64,106
70752,note_off,,,,,32,0,1,,,,,0,,,64,0
70752,note_on,,,,,0,0,1,,,,,0,,,66,106
70784,note_off,,,,,32,0,1,,,,,0,,,66,0
70784,note_on,,,,,0,0,1,,,,,0,,,64,106
70816,note_on,,,,,0,0,1,,,,,0,,,66,106
70816,note_off,,,,,32,0,1,,,,,0,,,64,0
70848,note_off,,,,,32,0,1,,,,,0,,,66,0
70848,note_on,,,,,0,0,1,,,,,0,,,64,106
70880,note_off,,,,,32,0,1,,,,,0,,,64,0
70880,note_on,,,,,0,0,1,,,,,0,,,66,106
70912,note_off,,,,,32,0,1,,,,,0,,,66,0
70912,note_on,,,,,0,0,1,,,,,0,,,64,106
70944,note_on,,,,,0,0,3,,,,,2,,,62,81
70944,note_on,,,,,0,0,4,,,,,3,,,59,78
70944,note_off,,,,,288,0,3,,,,,2,,,64,0
70944,note_off,,,,,288,0,4,,,,,3,,,61,0
70944,note_off,,,,,32,0,1,,,,,0,,,64,0
70944,note_on,,,,,0,0,1,,,,,0,,,66,106
70976,note_off,,,,,32,0,1,,,,,0,,,66,0
70976,note_on,,,,,0,0,1,,,,,0,,,63,106
71008,note_on,,,,,0,0,1,,,,,0,,,64,106
71008,note_off,,,,,32,0,1,,,,,0,,,63,0
71040,note_off,,,,,32,0,1,,,,,0,,,64,0
71040,note_on,,,,,0,0,3,,,,,2,,,61,81
71040,note_off,,,,,96,0,3,,,,,2,,,62,0
71040,note_on,,,,,0,0,4,,,,,3,,,57,78
71040,note_off,,,,,96,0,4,,,,,3,,,59,0
71040,note_on,,,,,0,0,1,,,,,0,,,76,106
71072,note_off,,,,,32,0,1,,,,,0,,,76,0
71072,note_on,,,,,0,0,1,,,,,0,,,78,106
71104,note_off,,,,,32,0,1,,,,,0,,,78,0
71104,note_on,,,,,0,0,1,,,,,0,,,76,106
71136,note_off,,,,,32,0,1,,,,,0,,,76,0
71136,note_on,,,,,0,0,1,,,,,0,,,78,106
71168,note_off,,,,,32,0,1,,,,,0,,,78,0
71168,note_on,,,,,0,0,1,,,,,0,,,76,106
71184,note_on,,,,,0,0,4,,,,,3,,,59,78
71184,note_off,,,,,144,0,4,,,,,3,,,57,0
71184,note_off,,,,,144,0,3,,,,,2,,,61,0
71184,note_on,,,,,0,0,3,,,,,2,,,62,81
71200,note_off,,,,,32,0,1,,,,,0,,,76,0
71200,note_on,,,,,0,0,1,,,,,0,,,78,106
71232,note_off,,,,,32,0,1,,,,,0,,,78,0
71232,note_on,,,,,0,0,1,,,,,0,,,76,106
71232,note_on,,,,,0,0,4,,,,,3,,,52,78
71232,note_off,,,,,48,0,4,,,,,3,,,59,0
71232,note_on,,,,,0,0,3,,,,,2,,,59,81
71232,note_off,,,,,48,0,3,,,,,2,,,62,0
71264,note_on,,,,,0,0,1,,,,,0,,,78,106
71264,note_off,,,,,32,0,1,,,,,0,,,76,0
71296,note_off,,,,,32,0,1,,,,,0,,,78,0
71296,note_on,,,,,0,0,1,,,,,0,,,76,106
71328,note_off,,,,,32,0,1,,,,,0,,,76,0
71328,note_on,,,,,0,0,1,,,,,0,,,78,106
71360,note_on,,,,,0,0,1,,,,,0,,,75,106
71360,note_off,,,,,32,0,1,,,,,0,,,78,0
71376,note_off,,,,,144,0,3,,,,,2,,,59,0
71376,note_on,,,,,0,0,4,,,,,3,,,57,78
71376,note_off,,,,,144,0,4,,,,,3,,,52,0
71376,note_on,,,,,0,0,3,,,,,2,,,61,81
71392,note_off,,,,,32,0,1,,,,,0,,,75,0
71392,note_on,,,,,0,0,1,,,,,0,,,76,106
71424,note_on,,,,,0,0,3,,,,,2,,,59,81
71424,note_off,,,,,48,0,3,,,,,2,,,61,0
71424,note_off,,,,,32,0,1,,,,,0,,,76,0
71424,note_on,,,,,0,0,1,,,,,0,,,88,106
71424,note_off,,,,,48,0,4,,,,,3,,,57,0
71424,note_on,,,,,0,0,4,,,,,3,,,52,78
71424,note_on,,,,,1152,0,2,,,,,1,,,80,90
71456,note_on,,,,,0,0,1,,,,,0,,,90,106
71456,note_off,,,,,32,0,1,,,,,0,,,88,0
71456,note_on,,,,,0,0,2,,,,,1,,,81,90
71456,note_off,,,,,32,0,2,,,,,1,,,80,0
71488,note_off,,,,,32,0,1,,,,,0,,,90,0
71488,note_on,,,,,0,0,1,,,,,0,,,88,106
71488,note_on,,,,,0,0,2,,,,,1,,,80,90
71488,note_off,,,,,32,0,2,,,,,1,,,81,0
71520,note_on,,,,,0,0,2,,,,,1,,,81,90
71520,note_off,,,,,32,0,1,,,,,0,,,88,0
71520,note_on,,,,,0,0,1,,,,,0,,,90,106
71520,note_off,,,,,32,0,2,,,,,1,,,80,0
71552,note_off,,,,,32,0,1,,,,,0,,,90,0
71552,note_on,,,,,0,0,1,,,,,0,,,88,106
71552,note_off,,,,,32,0,2,,,,,1,,,81,0
71552,note_on,,,,,0,0,2,,,,,1,,,80,90
71584,note_on,,,,,0,0,2,,,,,1,,,81,90
71584,note_off,,,,,32,0,1,,,,,0,,,88,0
71584,note_on,,,,,0,0,1,,,,,0,,,90,106
71584,note_off,,,,,32,0,2,,,,,1,,,80,0
71616,note_on,,,,,0,0,2,,,,,1,,,80,90
71616,note_on,,,,,0,0,1,,,,,0,,,88,106
71616,note_off,,,,,32,0,2,,,,,1,,,81,0
71616,note_off,,,,,32,0,1,,,,,0,,,90,0
71648,note_on,,,,,0,0,1,,,,,0,,,90,106
71648,note_off,,,,,32,0,1,,,,,0,,,88,0
71648,note_on,,,,,0,0,2,,,,,1,,,81,90
71648,note_off,,,,,32,0,2,,,,,1,,,80,0
71680,note_on,,,,,0,0,1,,,,,0,,,88,106
71680,note_off,,,,,32,0,2,,,,,1,,,81,0
71680,note_on,,,,,0,0,2,,,,,1,,,80,90
71680,note_off,,,,,32,0,1,,,,,0,,,90,0
71712,note_off,,,,,32,0,1,,,,,0,,,88,0
71712,note_off,,,,,32,0,2,,,,,1,,,80,0
71712,note_on,,,,,0,0,2,,,,,1,,,81,90
71712,note_on,,,,,0,0,1,,,,,0,,,90,106
71744,note_off,,,,,32,0,2,,,,,1,,,81,0
71744,note_on,,,,,0,0,2,,,,,1,,,80,90
71744,note_off,,,,,32,0,1,,,,,0,,,90,0
71744,note_on,,,,,0,0,1,,,,,0,,,88,106
71776,note_off,,,,,32,0,1,,,,,0,,,88,0
71776,note_on,,,,,0,0,1,,,,,0,,,90,106
71776,note_off,,,,,32,0,2,,,,,1,,,80,0
71776,note_on,,,,,0,0,2,,,,,1,,,81,90
71808,note_off,,,,,32,0,1,,,,,0,,,90,0
71808,note_on,,,,,0,0,1,,,,,0,,,88,106
71808,note_off,,,,,32,0,2,,,,,1,,,81,0
71808,note_on,,,,,0,0,2,,,,,1,,,80,90
71808,note_on,,,,,0,0,3,,,,,2,,,61,81
71808,note_off,,,,,384,0,3,,,,,2,,,59,0
71840,note_off,,,,,32,0,1,,,,,0,,,88,0
71840,note_on,,,,,0,0,2,,,,,1,,,81,90
71840,note_off,,,,,32,0,2,,,,,1,,,80,0
71840,note_on,,,,,0,0,1,,,,,0,,,90,106
71872,note_off,,,,,32,0,2,,,,,1,,,81,0
71872,note_on,,,,,0,0,2,,,,,1,,,80,90
71872,note_off,,,,,32,0,1,,,,,0,,,90,0
71872,note_on,,,,,0,0,1,,,,,0,,,88,106
71904,note_on,,,,,0,0,2,,,,,1,,,81,90
71904,note_off,,,,,32,0,2,,,,,1,,,80,0
71904,note_off,,,,,32,0,1,,,,,0,,,88,0
71904,note_on,,,,,0,0,1,,,,,0,,,90,106
71936,note_off,,,,,32,0,2,,,,,1,,,81,0
71936,note_on,,,,,0,0,2,,,,,1,,,80,90
71936,note_off,,,,,32,0,1,,,,,0,,,90,0
71936,note_on,,,,,0,0,1,,,,,0,,,88,106
71968,note_off,,,,,32,0,2,,,,,1,,,80,0
71968,note_on,,,,,0,0,2,,,,,1,,,81,90
71968,note_on,,,,,0,0,1,,,,,0,,,90,106
71968,note_off,,,,,32,0,1,,,,,0,,,88,0
72000,note_off,,,,,192,0,3,,,,,2,,,61,0
72000,note_off,,,,,32,0,1,,,,,0,,,90,0
72000,note_off,,,,,32,0,2,,,,,1,,,81,0
72000,note_on,,,,,0,0,2,,,,,1,,,80,90
72000,note_on,,,,,0,0,1,,,,,0,,,88,106
72000,note_on,,,,,0,0,3,,,,,2,,,62,81
72032,note_on,,,,,0,0,1,,,,,0,,,90,106
72032,note_off,,,,,32,0,2,,,,,1,,,80,0
72032,note_off,,,,,32,0,1,,,,,0,,,88,0
72032,note_on,,,,,0,0,2,,,,,1,,,81,90
72064,note_off,,,,,32,0,1,,,,,0,,,90,0
72064,note_off,,,,,32,0,2,,,,,1,,,81,0
72064,note_on,,,,,0,0,2,,,,,1,,,80,90
72064,note_on,,,,,0,0,1,,,,,0,,,88,106
72096,note_off,,,,,32,0,1,,,,,0,,,88,0
72096,note_off,,,,,32,0,2,,,,,1,,,80,0
72096,note_on,,,,,0,0,2,,,,,1,,,81,90
72096,note_on,,,,,0,0,1,,,,,0,,,90,106
72128,note_off,,,,,32,0,1,,,,,0,,,90,0
72128,note_on,,,,,0,0,1,,,,,0,,,87,106
72128,note_off,,,,,32,0,2,,,,,1,,,81,0
72128,note_on,,,,,0,0,2,,,,,1,,,78,90
72160,note_off,,,,,32,0,1,,,,,0,,,87,0
72160,note_on,,,,,0,0,1,,,,,0,,,88,106
72160,note_on,,,,,0,0,2,,,,,1,,,80,90
72160,note_off,,,,,32,0,2,,,,,1,,,78,0
72192,note_on,,,,,0,0,3,,,,,2,,,61,81
72192,note_off,,,,,192,0,3,,,,,2,,,62,0
72192,note_on,,,,,0,0,4,,,,,3,,,45,78
72192,note_off,,,,,32,0,1,,,,,0,,,88,0
72192,note_on,,,,,0,0,1,,,,,0,,,81,106
72192,note_on,,,,,0,0,2,,,,,1,,,81,90
72192,note_off,,,,,32,0,2,,,,,1,,,80,0
72192,note_off,,,,,768,0,4,,,,,3,,,52,0
72288,note_off,,,,,96,0,1,,,,,0,,,81,0
72384,note_off,,,,,192,0,3,,,,,2,,,61,0
72384,note_off,,,,,192,0,4,,,,,3,,,45,0
72384,note_on,,,,,96,0,1,,,,,0,,,88,106
72384,note_off,,,,,192,0,2,,,,,1,,,81,0
72576,note_on,,,,,192,0,4,,,,,3,,,45,78
72576,note_on,,,,,0,0,1,,,,,0,,,69,106
72576,note_on,,,,,192,0,3,,,,,2,,,64,81
72576,note_off,,,,,192,0,1,,,,,0,,,88,0
72576,note_on,,,,,192,0,2,,,,,1,,,73,90
72672,note_off,,,,,96,0,1,,,,,0,,,69,0
72768,note_on,,,,,96,0,1,,,,,0,,,85,106
72768,note_off,,,,,192,0,3,,,,,2,,,64,0
72768,note_off,,,,,192,0,4,,,,,3,,,45,0
72768,note_off,,,,,192,0,2,,,,,1,,,73,0
72960,note_on,,,,,0,0,1,,,,,0,,,57,106
72960,note_on,,,,,192,0,4,,,,,3,,,45,78
72960,note_off,,,,,192,0,1,,,,,0,,,85,0
72960,note_on,,,,,192,0,2,,,,,1,,,69,90
72960,note_on,,,,,0,0,3,,,,,2,,,64,81
72960,note_on,,,,,192,0,3,,,,,2,,,61,81
73728,end_of_track,,,,,0,1,2,,,,,,,,,
73728,end_of_track,,,,,0,1,3,,,,,,,,,
73728,note_off,,,,,0,0,3,,,,,2,,,64,0
73728,note_off,,,,,768,0,4,,,,,3,,,45,0
73728,end_of_track,,,,,0,1,4,,,,,,,,,
73728,end_of_track,,,,,0,1,1,,,,,,,,,
73728,note_off,,,,,768,0,1,,,,,0,,,57,0
73728,note_off,,,,,768,0,2,,,,,1,,,69,0
73728,note_off,,,,,768,0,3,,,,,2,,,61,0
