tick,type,tempo,time,meta,track,numerator,denominator,clocks_per_click,notated_32nd_notes_per_beat,key,port,channel,control,value,program,note,velocity
0,set_tempo,500000,0,1,0,,,,,,,,,,,,
0,control_change,,0,0,1,,,,,,,3,7,38,,,
0,control_change,,0,0,1,,,,,,,3,10,120,,,
0,control_change,,0,0,1,,,,,,,3,93,99,,,
0,program_change,,0,0,1,,,,,,,3,,,42,,
0,program_change,,0,0,4,,,,,,,1,,,42,,
0,control_change,,0,0,4,,,,,,,1,93,72,,,
0,control_change,,0,0,4,,,,,,,1,10,64,,,
0,control_change,,0,0,4,,,,,,,1,7,100,,,
0,channel_prefix,,0,1,4,,,,,,,1,,,,,
0,midi_port,,0,1,4,,,,,,0,,,,,,
0,midi_port,,0,1,2,,,,,,0,,,,,,
0,channel_prefix,,0,1,2,,,,,,,0,,,,,
0,control_change,,0,0,2,,,,,,,0,7,89,,,
0,control_change,,0,0,2,,,,,,,0,10,12,,,
0,control_change,,0,0,2,,,,,,,0,93,88,,,
0,program_change,,0,0,2,,,,,,,0,,,0,,
0,note_on,,0,0,2,,,,,,,0,,,,61,127
0,note_on,,0,0,2,,,,,,,0,,,,64,127
0,note_on,,0,0,2,,,,,,,0,,,,69,127
0,channel_prefix,,0,1,3,,,,,,,2,,,,,
0,note_on,,0,0,3,,,,,,,2,,,,45,127
0,program_change,,0,0,3,,,,,,,2,,,0,,
0,control_change,,0,0,3,,,,,,,2,93,57,,,
0,control_change,,0,0,3,,,,,,,2,10,64,,,
0,control_change,,0,0,3,,,,,,,2,7,100,,,
0,channel_prefix,,0,1,1,,,,,,,3,,,,,
0,midi_port,,0,1,1,,,,,,0,,,,,,
0,midi_port,,0,1,3,,,,,,0,,,,,,
0,time_signature,,0,1,0,4,4,24,8,,,,,,,,
0,key_signature,,0,1,0,,,,,C,,,,,,,
232,note_off,,232,0,2,,,,,,,0,,,,69,64
232,note_off,,0,0,2,,,,,,,0,,,,61,64
232,note_off,,0,0,2,,,,,,,0,,,,64,64
240,note_on,,0,0,2,,,,,,,0,,,,69,127
240,note_on,,0,0,2,,,,,,,0,,,,64,127
240,note_on,,8,0,2,,,,,,,0,,,,61,127
240,control_change,,240,0,3,,,,,,,2,7,103,,,
472,note_off,,232,0,3,,,,,,,2,,,,45,64
472,note_off,,0,0,2,,,,,,,0,,,,61,64
472,note_off,,0,0,2,,,,,,,0,,,,64,64
472,note_off,,232,0,2,,,,,,,0,,,,69,64
480,note_on,,8,0,3,,,,,,,2,,,,40,127
480,note_on,,0,0,2,,,,,,,0,,,,69,127
480,note_on,,8,0,2,,,,,,,0,,,,61,127
480,note_on,,0,0,2,,,,,,,0,,,,64,127
712,note_off,,232,0,2,,,,,,,0,,,,69,64
712,note_off,,0,0,2,,,,,,,0,,,,61,64
712,note_off,,0,0,2,,,,,,,0,,,,64,64
720,note_on,,0,0,2,,,,,,,0,,,,69,127
720,note_on,,8,0,2,,,,,,,0,,,,61,127
720,note_on,,0,0,2,,,,,,,0,,,,64,127
952,note_off,,472,0,3,,,,,,,2,,,,40,64
952,note_off,,0,0,2,,,,,,,0,,,,61,64
952,note_off,,232,0,2,,,,,,,0,,,,69,64
952,note_off,,0,0,2,,,,,,,0,,,,64,64
960,note_on,,0,0,2,,,,,,,0,,,,69,127
960,note_on,,0,0,2,,,,,,,0,,,,64,127
960,note_on,,8,0,2,,,,,,,0,,,,61,127
1192,note_off,,0,0,2,,,,,,,0,,,,64,64
1192,note_off,,0,0,2,,,,,,,0,,,,61,64
1192,note_off,,232,0,2,,,,,,,0,,,,69,64
1200,note_on,,0,0,2,,,,,,,0,,,,69,127
1200,note_on,,8,0,2,,,,,,,0,,,,61,127
1200,note_on,,0,0,2,,,,,,,0,,,,64,127
1432,note_off,,0,0,2,,,,,,,0,,,,61,64
1432,note_off,,0,0,2,,,,,,,0,,,,64,64
1432,note_off,,232,0,2,,,,,,,0,,,,69,64
1440,note_on,,488,0,3,,,,,,,2,,,,45,127
1440,note_on,,0,0,2,,,,,,,0,,,,69,127
1440,note_on,,0,0,2,,,,,,,0,,,,64,127
1440,note_on,,8,0,2,,,,,,,0,,,,61,127
1672,note_off,,0,0,2,,,,,,,0,,,,61,64
1672,note_off,,232,0,2,,,,,,,0,,,,69,64
1672,note_off,,0,0,2,,,,,,,0,,,,64,64
1680,note_on,,0,0,2,,,,,,,0,,,,64,127
1680,note_on,,8,0,2,,,,,,,0,,,,61,127
1680,note_on,,0,0,2,,,,,,,0,,,,69,127
1792,note_off,,352,0,3,,,,,,,2,,,,45,64
1800,note_on,,8,0,3,,,,,,,2,,,,45,127
1912,note_off,,0,0,2,,,,,,,0,,,,61,64
1912,note_off,,112,0,3,,,,,,,2,,,,45,64
1912,note_off,,0,0,2,,,,,,,0,,,,64,64
1912,note_off,,232,0,2,,,,,,,0,,,,69,64
1920,note_on,,0,0,2,,,,,,,0,,,,69,127
1920,note_on,,8,0,2,,,,,,,0,,,,62,127
1920,note_on,,0,0,2,,,,,,,0,,,,64,127
1920,note_on,,8,0,3,,,,,,,2,,,,47,127
2152,note_off,,0,0,2,,,,,,,0,,,,62,64
2152,note_off,,232,0,2,,,,,,,0,,,,69,64
2152,note_off,,0,0,2,,,,,,,0,,,,64,64
2160,note_on,,0,0,2,,,,,,,0,,,,69,127
2160,note_on,,8,0,2,,,,,,,0,,,,62,127
2160,note_on,,0,0,2,,,,,,,0,,,,64,127
2392,note_off,,472,0,3,,,,,,,2,,,,47,64
2392,note_off,,232,0,2,,,,,,,0,,,,69,64
2392,note_off,,0,0,2,,,,,,,0,,,,64,64
2392,note_off,,0,0,2,,,,,,,0,,,,62,64
2400,note_on,,0,0,2,,,,,,,0,,,,68,127
2400,note_on,,8,0,2,,,,,,,0,,,,62,127
2400,note_on,,0,0,2,,,,,,,0,,,,64,127
2400,note_on,,8,0,3,,,,,,,2,,,,40,127
2632,note_off,,0,0,2,,,,,,,0,,,,62,64
2632,note_off,,0,0,2,,,,,,,0,,,,64,64
2632,note_off,,232,0,2,,,,,,,0,,,,68,64
2640,note_on,,8,0,2,,,,,,,0,,,,62,127
2640,note_on,,0,0,2,,,,,,,0,,,,64,127
2640,note_on,,0,0,2,,,,,,,0,,,,68,127
2872,note_off,,472,0,3,,,,,,,2,,,,40,64
2872,note_off,,232,0,2,,,,,,,0,,,,68,64
2872,note_off,,0,0,2,,,,,,,0,,,,64,64
2872,note_off,,0,0,2,,,,,,,0,,,,62,64
2880,note_on,,8,0,2,,,,,,,0,,,,62,127
2880,note_on,,0,0,2,,,,,,,0,,,,64,127
2880,note_on,,0,0,2,,,,,,,0,,,,68,127
3112,note_off,,232,0,2,,,,,,,0,,,,68,64
3112,note_off,,0,0,2,,,,,,,0,,,,64,64
3112,note_off,,0,0,2,,,,,,,0,,,,62,64
3120,note_on,,0,0,2,,,,,,,0,,,,68,127
3120,note_on,,8,0,2,,,,,,,0,,,,62,127
3120,note_on,,0,0,2,,,,,,,0,,,,64,127
3352,note_off,,232,0,2,,,,,,,0,,,,68,64
3352,note_off,,0,0,2,,,,,,,0,,,,64,64
3352,note_off,,0,0,2,,,,,,,0,,,,62,64
3360,note_on,,488,0,3,,,,,,,2,,,,47,127
3360,note_on,,8,0,2,,,,,,,0,,,,62,127
3360,note_on,,0,0,2,,,,,,,0,,,,64,127
3360,note_on,,0,0,2,,,,,,,0,,,,68,127
3592,note_off,,232,0,2,,,,,,,0,,,,68,64
3592,note_off,,0,0,2,,,,,,,0,,,,64,64
3592,note_off,,0,0,2,,,,,,,0,,,,62,64
3600,note_on,,0,0,2,,,,,,,0,,,,64,127
3600,note_on,,0,0,2,,,,,,,0,,,,68,127
3600,note_on,,8,0,2,,,,,,,0,,,,62,127
3712,note_off,,352,0,3,,,,,,,2,,,,47,64
3720,note_on,,8,0,3,,,,,,,2,,,,47,127
3832,note_off,,0,0,2,,,,,,,0,,,,64,64
3832,note_off,,112,0,3,,,,,,,2,,,,47,64
3832,note_off,,0,0,2,,,,,,,0,,,,62,64
3832,note_off,,232,0,2,,,,,,,0,,,,68,64
3840,note_on,,8,0,3,,,,,,,2,,,,49,127
3840,note_on,,8,0,2,,,,,,,0,,,,64,127
3840,note_on,,0,0,2,,,,,,,0,,,,70,127
3840,note_on,,0,0,2,,,,,,,0,,,,67,127
4072,note_off,,0,0,2,,,,,,,0,,,,64,64
4072,note_off,,232,0,2,,,,,,,0,,,,70,64
4072,note_off,,0,0,2,,,,,,,0,,,,67,64
4080,note_on,,8,0,2,,,,,,,0,,,,64,127
4080,note_on,,0,0,2,,,,,,,0,,,,67,127
4080,note_on,,0,0,2,,,,,,,0,,,,70,127
4312,note_off,,232,0,2,,,,,,,0,,,,70,64
4312,note_off,,0,0,2,,,,,,,0,,,,64,64
4312,note_off,,0,0,2,,,,,,,0,,,,67,64
4312,note_off,,472,0,3,,,,,,,2,,,,49,64
4320,note_on,,8,0,2,,,,,,,0,,,,64,127
4320,note_on,,8,0,3,,,,,,,2,,,,40,127
4320,note_on,,0,0,2,,,,,,,0,,,,67,127
4320,note_on,,0,0,2,,,,,,,0,,,,70,127
4552,note_off,,232,0,2,,,,,,,0,,,,70,64
4552,note_off,,0,0,2,,,,,,,0,,,,67,64
4552,note_off,,0,0,2,,,,,,,0,,,,64,64
4560,note_on,,8,0,2,,,,,,,0,,,,64,127
4560,note_on,,0,0,2,,,,,,,0,,,,67,127
4560,note_on,,0,0,2,,,,,,,0,,,,70,127
4672,note_off,,352,0,3,,,,,,,2,,,,40,64
4680,note_on,,8,0,3,,,,,,,2,,,,40,127
4792,note_off,,112,0,3,,,,,,,2,,,,40,64
4792,note_off,,232,0,2,,,,,,,0,,,,70,64
4792,note_off,,0,0,2,,,,,,,0,,,,67,64
4792,note_off,,0,0,2,,,,,,,0,,,,64,64
4800,note_on,,8,0,2,,,,,,,0,,,,62,127
4800,note_on,,0,0,2,,,,,,,0,,,,66,127
4800,note_on,,0,0,2,,,,,,,0,,,,71,127
4800,note_on,,8,0,3,,,,,,,2,,,,50,127
5032,note_off,,232,0,2,,,,,,,0,,,,71,64
5032,note_off,,0,0,2,,,,,,,0,,,,66,64
5032,note_off,,0,0,2,,,,,,,0,,,,62,64
5040,note_on,,0,0,2,,,,,,,0,,,,66,127
5040,note_on,,8,0,2,,,,,,,0,,,,62,127
5040,note_on,,0,0,2,,,,,,,0,,,,71,127
5272,note_off,,232,0,2,,,,,,,0,,,,71,64
5272,note_off,,472,0,3,,,,,,,2,,,,50,64
5272,note_off,,0,0,2,,,,,,,0,,,,62,64
5272,note_off,,0,0,2,,,,,,,0,,,,66,64
5280,note_on,,8,0,3,,,,,,,2,,,,40,127
5280,note_on,,0,0,2,,,,,,,0,,,,74,127
5280,note_on,,0,0,2,,,,,,,0,,,,71,127
5280,note_on,,8,0,2,,,,,,,0,,,,66,127
5512,note_off,,0,0,2,,,,,,,0,,,,71,64
5512,note_off,,232,0,2,,,,,,,0,,,,74,64
5512,note_off,,0,0,2,,,,,,,0,,,,66,64
5520,note_on,,0,0,2,,,,,,,0,,,,71,127
5520,note_on,,8,0,2,,,,,,,0,,,,66,127
5520,note_on,,0,0,2,,,,,,,0,,,,74,127
5632,note_off,,352,0,3,,,,,,,2,,,,40,64
5640,note_on,,8,0,3,,,,,,,2,,,,40,127
5752,note_off,,112,0,3,,,,,,,2,,,,40,64
5752,note_off,,232,0,2,,,,,,,0,,,,74,64
5752,note_off,,0,0,2,,,,,,,0,,,,71,64
5752,note_off,,0,0,2,,,,,,,0,,,,66,64
5760,note_on,,8,0,2,,,,,,,0,,,,64,127
5760,note_on,,0,0,2,,,,,,,0,,,,73,127
5760,note_on,,8,0,3,,,,,,,2,,,,52,127
5760,note_on,,0,0,2,,,,,,,0,,,,71,127
5992,note_off,,232,0,2,,,,,,,0,,,,73,64
5992,note_off,,0,0,2,,,,,,,0,,,,71,64
5992,note_off,,0,0,2,,,,,,,0,,,,64,64
6000,note_on,,0,0,2,,,,,,,0,,,,71,127
6000,note_on,,8,0,2,,,,,,,0,,,,64,127
6000,note_on,,0,0,2,,,,,,,0,,,,73,127
6232,note_off,,472,0,3,,,,,,,2,,,,52,64
6232,note_off,,0,0,2,,,,,,,0,,,,64,64
6232,note_off,,232,0,2,,,,,,,0,,,,73,64
6232,note_off,,0,0,2,,,,,,,0,,,,71,64
6240,note_on,,8,0,3,,,,,,,2,,,,40,127
6240,note_on,,8,0,2,,,,,,,0,,,,64,127
6240,note_on,,0,0,2,,,,,,,0,,,,69,127
6240,note_on,,0,0,2,,,,,,,0,,,,73,127
6472,note_off,,0,0,2,,,,,,,0,,,,69,64
6472,note_off,,232,0,2,,,,,,,0,,,,73,64
6472,note_off,,0,0,2,,,,,,,0,,,,64,64
6480,note_on,,0,0,2,,,,,,,0,,,,73,127
6480,note_on,,0,0,2,,,,,,,0,,,,69,127
6480,note_on,,8,0,2,,,,,,,0,,,,64,127
6712,note_off,,0,0,2,,,,,,,0,,,,64,64
6712,note_off,,0,0,2,,,,,,,0,,,,69,64
6712,note_off,,232,0,2,,,,,,,0,,,,73,64
6712,note_off,,472,0,3,,,,,,,2,,,,40,64
6720,note_on,,0,0,2,,,,,,,0,,,,71,127
6720,note_on,,8,0,2,,,,,,,0,,,,64,127
6720,note_on,,0,0,2,,,,,,,0,,,,69,127
6720,note_on,,8,0,3,,,,,,,2,,,,52,127
6952,note_off,,232,0,2,,,,,,,0,,,,71,64
6952,note_off,,0,0,2,,,,,,,0,,,,64,64
6952,note_off,,0,0,2,,,,,,,0,,,,69,64
6960,note_on,,0,0,2,,,,,,,0,,,,71,127
6960,note_on,,0,0,2,,,,,,,0,,,,69,127
6960,note_on,,8,0,2,,,,,,,0,,,,64,127
7192,note_off,,0,0,2,,,,,,,0,,,,69,64
7192,note_off,,232,0,2,,,,,,,0,,,,71,64
7192,note_off,,0,0,2,,,,,,,0,,,,64,64
7192,note_off,,472,0,3,,,,,,,2,,,,52,64
7200,note_on,,8,0,3,,,,,,,2,,,,40,127
7200,program_change,,7200,0,1,,,,,,,3,,,68,,
7200,note_on,,8,0,2,,,,,,,0,,,,64,127
7200,note_on,,0,0,2,,,,,,,0,,,,68,127
7200,note_on,,0,0,2,,,,,,,0,,,,71,127
7432,note_off,,232,0,2,,,,,,,0,,,,71,64
7432,note_off,,0,0,2,,,,,,,0,,,,68,64
7432,note_off,,0,0,2,,,,,,,0,,,,64,64
7440,note_on,,8,0,2,,,,,,,0,,,,64,127
7440,note_on,,0,0,2,,,,,,,0,,,,68,127
7440,program_change,,0,0,2,,,,,,,0,,,0,,
7440,note_on,,0,0,2,,,,,,,0,,,,71,127
7552,note_off,,352,0,3,,,,,,,2,,,,40,64
7560,note_on,,8,0,3,,,,,,,2,,,,40,127
7672,note_off,,0,0,2,,,,,,,0,,,,68,64
7672,note_off,,0,0,2,,,,,,,0,,,,64,64
7672,note_off,,232,0,2,,,,,,,0,,,,71,64
7672,note_off,,112,0,3,,,,,,,2,,,,40,64
7680,note_on,,8,0,3,,,,,,,2,,,,45,127
7680,note_on,,0,0,2,,,,,,,0,,,,64,127
7680,note_on,,0,0,2,,,,,,,0,,,,69,127
7680,control_change,,480,0,1,,,,,,,3,7,127,,,
7680,note_on,,0,0,1,,,,,,,3,,,,73,127
7680,note_on,,8,0,2,,,,,,,0,,,,61,127
7680,control_change,,7680,0,4,,,,,,,1,7,95,,,
7680,program_change,,0,0,4,,,,,,,1,,,56,,
7680,note_on,,0,0,4,,,,,,,1,,,,73,127
7912,note_off,,0,0,2,,,,,,,0,,,,61,64
7912,note_off,,0,0,2,,,,,,,0,,,,64,64
7912,note_off,,232,0,2,,,,,,,0,,,,69,64
7920,note_on,,0,0,2,,,,,,,0,,,,69,127
7920,note_on,,0,0,2,,,,,,,0,,,,64,127
7920,note_on,,8,0,2,,,,,,,0,,,,61,127
8152,note_off,,0,0,2,,,,,,,0,,,,64,64
8152,note_off,,472,0,3,,,,,,,2,,,,45,64
8152,note_off,,0,0,2,,,,,,,0,,,,61,64
8152,note_off,,232,0,2,,,,,,,0,,,,69,64
8160,note_on,,0,0,2,,,,,,,0,,,,64,127
8160,note_on,,0,0,2,,,,,,,0,,,,69,127
8160,note_on,,8,0,2,,,,,,,0,,,,61,127
8160,note_on,,8,0,3,,,,,,,2,,,,40,127
8392,note_off,,232,0,2,,,,,,,0,,,,69,64
8392,note_off,,0,0,2,,,,,,,0,,,,64,64
8392,note_off,,0,0,2,,,,,,,0,,,,61,64
8400,note_on,,0,0,2,,,,,,,0,,,,64,127
8400,note_on,,0,0,2,,,,,,,0,,,,69,127
8400,note_on,,8,0,2,,,,,,,0,,,,61,127
8632,note_off,,472,0,3,,,,,,,2,,,,40,64
8632,note_off,,232,0,2,,,,,,,0,,,,69,64
8632,note_off,,0,0,2,,,,,,,0,,,,64,64
8632,note_off,,0,0,2,,,,,,,0,,,,61,64
8640,note_on,,8,0,2,,,,,,,0,,,,61,127
8640,note_on,,0,0,2,,,,,,,0,,,,64,127
8640,note_on,,0,0,2,,,,,,,0,,,,69,127
8872,note_off,,232,0,2,,,,,,,0,,,,69,64
8872,note_off,,0,0,2,,,,,,,0,,,,61,64
8872,note_off,,0,0,2,,,,,,,0,,,,64,64
8880,note_on,,0,0,2,,,,,,,0,,,,69,127
8880,note_on,,0,0,2,,,,,,,0,,,,64,127
8880,note_on,,8,0,2,,,,,,,0,,,,61,127
9112,note_off,,0,0,2,,,,,,,0,,,,61,64
9112,note_off,,0,0,2,,,,,,,0,,,,64,64
9112,note_off,,1432,0,4,,,,,,,1,,,,73,64
9112,note_off,,232,0,2,,,,,,,0,,,,69,64
9112,note_off,,1432,0,1,,,,,,,3,,,,73,64
9120,note_on,,0,0,2,,,,,,,0,,,,69,127
9120,note_on,,0,0,2,,,,,,,0,,,,64,127
9120,note_on,,8,0,2,,,,,,,0,,,,61,127
9120,note_on,,8,0,1,,,,,,,3,,,,69,127
9120,note_on,,488,0,3,,,,,,,2,,,,45,127
9120,note_on,,8,0,4,,,,,,,1,,,,69,127
9352,note_off,,0,0,2,,,,,,,0,,,,61,64
9352,note_off,,232,0,2,,,,,,,0,,,,69,64
9352,note_off,,0,0,2,,,,,,,0,,,,64,64
9360,note_on,,8,0,2,,,,,,,0,,,,61,127
9360,note_on,,0,0,2,,,,,,,0,,,,69,127
9360,note_on,,0,0,2,,,,,,,0,,,,64,127
9472,note_off,,352,0,3,,,,,,,2,,,,45,64
9480,note_on,,8,0,3,,,,,,,2,,,,45,127
9592,note_off,,232,0,2,,,,,,,0,,,,69,64
9592,note_off,,0,0,2,,,,,,,0,,,,64,64
9592,note_off,,0,0,2,,,,,,,0,,,,61,64
9592,note_off,,472,0,4,,,,,,,1,,,,69,64
9592,note_off,,112,0,3,,,,,,,2,,,,45,64
9592,note_off,,472,0,1,,,,,,,3,,,,69,64
9600,note_on,,8,0,4,,,,,,,1,,,,69,127
9600,note_on,,8,0,3,,,,,,,2,,,,47,127
9600,note_on,,8,0,1,,,,,,,3,,,,69,127
9600,note_on,,8,0,2,,,,,,,0,,,,62,127
9600,note_on,,0,0,2,,,,,,,0,,,,64,127
9600,note_on,,0,0,2,,,,,,,0,,,,69,127
9832,note_off,,232,0,2,,,,,,,0,,,,69,64
9832,note_off,,0,0,2,,,,,,,0,,,,64,64
9832,note_off,,0,0,2,,,,,,,0,,,,62,64
9840,note_on,,0,0,2,,,,,,,0,,,,69,127
9840,note_on,,8,0,2,,,,,,,0,,,,62,127
9840,note_on,,0,0,2,,,,,,,0,,,,64,127
10072,note_off,,232,0,2,,,,,,,0,,,,69,64
10072,note_off,,0,0,2,,,,,,,0,,,,64,64
10072,note_off,,0,0,2,,,,,,,0,,,,62,64
10072,note_off,,472,0,1,,,,,,,3,,,,69,64
10072,note_off,,472,0,3,,,,,,,2,,,,47,64
10072,note_off,,472,0,4,,,,,,,1,,,,69,64
10080,note_on,,8,0,4,,,,,,,1,,,,68,127
10080,note_on,,8,0,3,,,,,,,2,,,,40,127
10080,note_on,,8,0,1,,,,,,,3,,,,68,127
10080,note_on,,0,0,2,,,,,,,0,,,,64,127
10080,note_on,,0,0,2,,,,,,,0,,,,68,127
10080,note_on,,8,0,2,,,,,,,0,,,,62,127
10312,note_off,,0,0,2,,,,,,,0,,,,62,64
10312,note_off,,232,0,2,,,,,,,0,,,,68,64
10312,note_off,,0,0,2,,,,,,,0,,,,64,64
10320,note_on,,0,0,2,,,,,,,0,,,,64,127
10320,note_on,,0,0,2,,,,,,,0,,,,68,127
10320,note_on,,8,0,2,,,,,,,0,,,,62,127
10552,note_off,,472,0,3,,,,,,,2,,,,40,64
10552,note_off,,0,0,2,,,,,,,0,,,,62,64
10552,note_off,,0,0,2,,,,,,,0,,,,64,64
10552,note_off,,472,0,4,,,,,,,1,,,,68,64
10552,note_off,,472,0,1,,,,,,,3,,,,68,64
10552,note_off,,232,0,2,,,,,,,0,,,,68,64
10560,note_on,,8,0,2,,,,,,,0,,,,62,127
10560,note_on,,0,0,2,,,,,,,0,,,,64,127
10560,note_on,,0,0,2,,,,,,,0,,,,68,127
10792,note_off,,232,0,2,,,,,,,0,,,,68,64
10792,note_off,,0,0,2,,,,,,,0,,,,64,64
10792,note_off,,0,0,2,,,,,,,0,,,,62,64
10800,note_on,,8,0,2,,,,,,,0,,,,62,127
10800,note_on,,0,0,2,,,,,,,0,,,,64,127
10800,note_on,,0,0,2,,,,,,,0,,,,68,127
11032,note_off,,0,0,2,,,,,,,0,,,,64,64
11032,note_off,,0,0,2,,,,,,,0,,,,62,64
11032,note_off,,232,0,2,,,,,,,0,,,,68,64
11040,note_on,,488,0,3,,,,,,,2,,,,47,127
11040,note_on,,8,0,2,,,,,,,0,,,,59,127
11040,note_on,,0,0,2,,,,,,,0,,,,62,127
11040,note_on,,0,0,2,,,,,,,0,,,,65,127
11040,note_on,,0,0,2,,,,,,,0,,,,68,127
11272,note_off,,0,0,2,,,,,,,0,,,,59,64
11272,note_off,,0,0,2,,,,,,,0,,,,62,64
11272,note_off,,232,0,2,,,,,,,0,,,,68,64
11272,note_off,,0,0,2,,,,,,,0,,,,65,64
11280,note_on,,8,0,2,,,,,,,0,,,,59,127
11280,note_on,,0,0,2,,,,,,,0,,,,62,127
11280,note_on,,0,0,2,,,,,,,0,,,,65,127
11280,note_on,,0,0,2,,,,,,,0,,,,68,127
11392,note_off,,352,0,3,,,,,,,2,,,,47,64
11400,note_on,,8,0,3,,,,,,,2,,,,47,127
11512,note_off,,112,0,3,,,,,,,2,,,,47,64
11512,note_off,,232,0,2,,,,,,,0,,,,68,64
11512,note_off,,0,0,2,,,,,,,0,,,,65,64
11512,note_off,,0,0,2,,,,,,,0,,,,62,64
11512,note_off,,0,0,2,,,,,,,0,,,,59,64
11520,note_on,,8,0,2,,,,,,,0,,,,57,127
11520,note_on,,968,0,1,,,,,,,3,,,,69,127
11520,note_on,,8,0,3,,,,,,,2,,,,50,127
11520,note_on,,968,0,4,,,,,,,1,,,,69,127
11520,note_on,,0,0,2,,,,,,,0,,,,62,127
11520,note_on,,0,0,2,,,,,,,0,,,,66,127
11520,note_on,,0,0,2,,,,,,,0,,,,69,127
11752,note_off,,0,0,2,,,,,,,0,,,,57,64
11752,note_off,,0,0,2,,,,,,,0,,,,66,64
11752,note_off,,0,0,2,,,,,,,0,,,,62,64
11752,note_off,,232,0,2,,,,,,,0,,,,69,64
11760,note_on,,8,0,2,,,,,,,0,,,,57,127
11760,note_on,,0,0,2,,,,,,,0,,,,62,127
11760,note_on,,0,0,2,,,,,,,0,,,,66,127
11760,note_on,,0,0,2,,,,,,,0,,,,69,127
11992,note_off,,472,0,3,,,,,,,2,,,,50,64
11992,note_off,,0,0,2,,,,,,,0,,,,66,64
11992,note_off,,0,0,2,,,,,,,0,,,,57,64
11992,note_off,,0,0,2,,,,,,,0,,,,62,64
11992,note_off,,232,0,2,,,,,,,0,,,,69,64
12000,note_on,,0,0,2,,,,,,,0,,,,66,127
12000,note_on,,8,0,2,,,,,,,0,,,,57,127
12000,note_on,,8,0,3,,,,,,,2,,,,38,127
12000,note_on,,0,0,2,,,,,,,0,,,,69,127
12000,note_on,,0,0,2,,,,,,,0,,,,62,127
12232,note_off,,232,0,2,,,,,,,0,,,,69,64
12232,note_off,,0,0,2,,,,,,,0,,,,66,64
12232,note_off,,0,0,2,,,,,,,0,,,,62,64
12232,note_off,,0,0,2,,,,,,,0,,,,57,64
12240,note_on,,0,0,2,,,,,,,0,,,,66,127
12240,note_on,,8,0,2,,,,,,,0,,,,57,127
12240,note_on,,0,0,2,,,,,,,0,,,,69,127
12240,note_on,,0,0,2,,,,,,,0,,,,62,127
12472,note_off,,472,0,3,,,,,,,2,,,,38,64
12472,note_off,,232,0,2,,,,,,,0,,,,69,64
12472,note_off,,0,0,2,,,,,,,0,,,,57,64
12472,note_off,,0,0,2,,,,,,,0,,,,66,64
12472,note_off,,0,0,2,,,,,,,0,,,,62,64
12480,note_on,,8,0,2,,,,,,,0,,,,57,127
12480,note_on,,0,0,2,,,,,,,0,,,,62,127
12480,note_on,,0,0,2,,,,,,,0,,,,66,127
12480,note_on,,0,0,2,,,,,,,0,,,,69,127
12712,note_off,,232,0,2,,,,,,,0,,,,69,64
12712,note_off,,0,0,2,,,,,,,0,,,,66,64
12712,note_off,,0,0,2,,,,,,,0,,,,62,64
12712,note_off,,0,0,2,,,,,,,0,,,,57,64
12720,note_on,,0,0,2,,,,,,,0,,,,69,127
12720,note_on,,0,0,2,,,,,,,0,,,,66,127
12720,note_on,,0,0,2,,,,,,,0,,,,62,127
12720,note_on,,8,0,2,,,,,,,0,,,,57,127
12952,note_off,,0,0,2,,,,,,,0,,,,62,64
12952,note_off,,1432,0,1,,,,,,,3,,,,69,64
12952,note_off,,0,0,2,,,,,,,0,,,,66,64
12952,note_off,,1432,0,4,,,,,,,1,,,,69,64
12952,note_off,,0,0,2,,,,,,,0,,,,57,64
12952,note_off,,232,0,2,,,,,,,0,,,,69,64
12960,note_on,,8,0,1,,,,,,,3,,,,66,127
12960,note_on,,8,0,4,,,,,,,1,,,,66,127
12960,note_on,,8,0,2,,,,,,,0,,,,57,127
12960,note_on,,0,0,2,,,,,,,0,,,,62,127
12960,note_on,,0,0,2,,,,,,,0,,,,66,127
12960,note_on,,488,0,3,,,,,,,2,,,,42,127
13192,note_off,,232,0,2,,,,,,,0,,,,66,64
13192,note_off,,0,0,2,,,,,,,0,,,,62,64
13192,note_off,,0,0,2,,,,,,,0,,,,57,64
13200,note_on,,8,0,2,,,,,,,0,,,,57,127
13200,note_on,,0,0,2,,,,,,,0,,,,62,127
13200,note_on,,0,0,2,,,,,,,0,,,,66,127
13312,note_off,,352,0,3,,,,,,,2,,,,42,64
13320,note_on,,8,0,3,,,,,,,2,,,,42,127
13432,note_off,,0,0,2,,,,,,,0,,,,57,64
13432,note_off,,472,0,1,,,,,,,3,,,,66,64
13432,note_off,,112,0,3,,,,,,,2,,,,42,64
13432,note_off,,232,0,2,,,,,,,0,,,,66,64
13432,note_off,,0,0,2,,,,,,,0,,,,62,64
13432,note_off,,472,0,4,,,,,,,1,,,,66,64
13440,note_on,,8,0,3,,,,,,,2,,,,45,127
13440,note_on,,8,0,4,,,,,,,1,,,,66,127
13440,note_on,,8,0,2,,,,,,,0,,,,57,127
13440,note_on,,0,0,2,,,,,,,0,,,,62,127
13440,note_on,,0,0,2,,,,,,,0,,,,66,127
13440,note_on,,8,0,1,,,,,,,3,,,,66,127
13672,note_off,,0,0,2,,,,,,,0,,,,57,64
13672,note_off,,232,0,2,,,,,,,0,,,,66,64
13672,note_off,,0,0,2,,,,,,,0,,,,62,64
13680,note_on,,8,0,2,,,,,,,0,,,,57,127
13680,note_on,,0,0,2,,,,,,,0,,,,62,127
13680,note_on,,0,0,2,,,,,,,0,,,,66,127
13912,note_off,,472,0,3,,,,,,,2,,,,45,64
13912,note_off,,472,0,4,,,,,,,1,,,,66,64
13912,note_off,,232,0,2,,,,,,,0,,,,66,64
13912,note_off,,0,0,2,,,,,,,0,,,,62,64
13912,note_off,,0,0,2,,,,,,,0,,,,57,64
13912,note_off,,472,0,1,,,,,,,3,,,,66,64
13920,note_on,,8,0,1,,,,,,,3,,,,64,127
13920,note_on,,8,0,2,,,,,,,0,,,,57,127
13920,note_on,,0,0,2,,,,,,,0,,,,61,127
13920,note_on,,0,0,2,,,,,,,0,,,,64,127
13920,note_on,,8,0,4,,,,,,,1,,,,64,127
13920,note_on,,8,0,3,,,,,,,2,,,,33,127
14152,note_off,,0,0,2,,,,,,,0,,,,57,64
14152,note_off,,232,0,2,,,,,,,0,,,,64,64
14152,note_off,,0,0,2,,,,,,,0,,,,61,64
14160,note_on,,8,0,2,,,,,,,0,,,,57,127
14160,note_on,,0,0,2,,,,,,,0,,,,61,127
14160,note_on,,0,0,2,,,,,,,0,,,,64,127
14392,note_off,,472,0,4,,,,,,,1,,,,64,64
14392,note_off,,472,0,3,,,,,,,2,,,,33,64
14392,note_off,,472,0,1,,,,,,,3,,,,64,64
14392,note_off,,232,0,2,,,,,,,0,,,,64,64
14392,note_off,,0,0,2,,,,,,,0,,,,61,64
14392,note_off,,0,0,2,,,,,,,0,,,,57,64
14400,note_on,,8,0,2,,,,,,,0,,,,57,127
14400,note_on,,0,0,2,,,,,,,0,,,,61,127
14400,note_on,,0,0,2,,,,,,,0,,,,64,127
14632,note_off,,232,0,2,,,,,,,0,,,,64,64
14632,note_off,,0,0,2,,,,,,,0,,,,57,64
14632,note_off,,0,0,2,,,,,,,0,,,,61,64
14640,note_on,,0,0,2,,,,,,,0,,,,64,127
14640,note_on,,0,0,2,,,,,,,0,,,,61,127
14640,note_on,,8,0,2,,,,,,,0,,,,57,127
14872,note_off,,0,0,2,,,,,,,0,,,,57,64
14872,note_off,,0,0,2,,,,,,,0,,,,61,64
14872,note_off,,232,0,2,,,,,,,0,,,,64,64
14880,note_on,,488,0,3,,,,,,,2,,,,49,127
14880,note_on,,0,0,2,,,,,,,0,,,,61,127
14880,note_on,,0,0,2,,,,,,,0,,,,64,127
14880,note_on,,488,0,1,,,,,,,3,,,,69,127
14880,note_on,,8,0,2,,,,,,,0,,,,57,127
14880,note_on,,488,0,4,,,,,,,1,,,,69,127
15112,note_off,,232,0,2,,,,,,,0,,,,64,64
15112,note_off,,0,0,2,,,,,,,0,,,,61,64
15112,note_off,,0,0,2,,,,,,,0,,,,57,64
15120,note_on,,0,0,2,,,,,,,0,,,,61,127
15120,note_on,,8,0,2,,,,,,,0,,,,57,127
15120,note_on,,0,0,2,,,,,,,0,,,,64,127
15232,note_off,,352,0,3,,,,,,,2,,,,49,64
15240,note_on,,8,0,3,,,,,,,2,,,,49,127
15352,note_off,,112,0,3,,,,,,,2,,,,49,64
15352,note_off,,472,0,1,,,,,,,3,,,,69,64
15352,note_off,,0,0,2,,,,,,,0,,,,57,64
15352,note_off,,232,0,2,,,,,,,0,,,,64,64
15352,note_off,,0,0,2,,,,,,,0,,,,61,64
15352,note_off,,472,0,4,,,,,,,1,,,,69,64
15360,note_on,,8,0,4,,,,,,,1,,,,68,127
15360,note_on,,0,0,2,,,,,,,0,,,,64,127
15360,note_on,,0,0,2,,,,,,,0,,,,59,127
15360,note_on,,8,0,2,,,,,,,0,,,,56,127
15360,note_on,,8,0,1,,,,,,,3,,,,68,127
15360,note_on,,8,0,3,,,,,,,2,,,,52,127
15592,note_off,,0,0,2,,,,,,,0,,,,56,64
15592,note_off,,232,0,2,,,,,,,0,,,,64,64
15592,note_off,,0,0,2,,,,,,,0,,,,59,64
15600,note_on,,0,0,2,,,,,,,0,,,,59,127
15600,note_on,,8,0,2,,,,,,,0,,,,56,127
15600,note_on,,0,0,2,,,,,,,0,,,,64,127
15832,note_off,,472,0,4,,,,,,,1,,,,68,64
15832,note_off,,232,0,2,,,,,,,0,,,,64,64
15832,note_off,,472,0,1,,,,,,,3,,,,68,64
15832,note_off,,0,0,2,,,,,,,0,,,,59,64
15832,note_off,,0,0,2,,,,,,,0,,,,56,64
15832,note_off,,472,0,3,,,,,,,2,,,,52,64
15840,note_on,,8,0,3,,,,,,,2,,,,50,127
15840,note_on,,8,0,4,,,,,,,1,,,,71,127
15840,note_on,,0,0,2,,,,,,,0,,,,64,127
15840,note_on,,0,0,2,,,,,,,0,,,,59,127
15840,note_on,,8,0,2,,,,,,,0,,,,56,127
15840,note_on,,8,0,1,,,,,,,3,,,,71,127
16072,note_off,,0,0,2,,,,,,,0,,,,56,64
16072,note_off,,0,0,2,,,,,,,0,,,,59,64
16072,note_off,,232,0,2,,,,,,,0,,,,64,64
16080,note_on,,0,0,2,,,,,,,0,,,,59,127
16080,note_on,,0,0,2,,,,,,,0,,,,64,127
16080,note_on,,8,0,2,,,,,,,0,,,,56,127
16312,note_off,,472,0,3,,,,,,,2,,,,50,64
16312,note_off,,472,0,4,,,,,,,1,,,,71,64
16312,note_off,,0,0,2,,,,,,,0,,,,59,64
16312,note_off,,232,0,2,,,,,,,0,,,,64,64
16312,note_off,,0,0,2,,,,,,,0,,,,56,64
16312,note_off,,472,0,1,,,,,,,3,,,,71,64
16320,note_on,,8,0,2,,,,,,,0,,,,57,127
16320,note_on,,8,0,3,,,,,,,2,,,,49,127
16320,note_on,,8,0,4,,,,,,,1,,,,69,127
16320,note_on,,0,0,2,,,,,,,0,,,,61,127
16320,note_on,,8,0,1,,,,,,,3,,,,69,127
16320,note_on,,0,0,2,,,,,,,0,,,,64,127
16552,note_off,,232,0,2,,,,,,,0,,,,64,64
16552,note_off,,0,0,2,,,,,,,0,,,,61,64
16552,note_off,,0,0,2,,,,,,,0,,,,57,64
16560,note_on,,0,0,2,,,,,,,0,,,,64,127
16560,note_on,,8,0,2,,,,,,,0,,,,57,127
16560,note_on,,0,0,2,,,,,,,0,,,,61,127
16792,note_off,,472,0,1,,,,,,,3,,,,69,64
16792,note_off,,0,0,2,,,,,,,0,,,,57,64
16792,note_off,,232,0,2,,,,,,,0,,,,64,64
16792,note_off,,472,0,3,,,,,,,2,,,,49,64
16792,note_off,,0,0,2,,,,,,,0,,,,61,64
16792,note_off,,472,0,4,,,,,,,1,,,,69,64
16800,note_on,,8,0,4,,,,,,,1,,,,73,127
16800,note_on,,8,0,1,,,,,,,3,,,,73,127
16800,note_on,,8,0,2,,,,,,,0,,,,57,127
16800,note_on,,0,0,2,,,,,,,0,,,,61,127
16800,note_on,,0,0,2,,,,,,,0,,,,64,127
16800,note_on,,8,0,3,,,,,,,2,,,,45,127
17032,note_off,,0,0,2,,,,,,,0,,,,57,64
17032,note_off,,232,0,2,,,,,,,0,,,,64,64
17032,note_off,,0,0,2,,,,,,,0,,,,61,64
17040,note_on,,0,0,2,,,,,,,0,,,,64,127
17040,note_on,,8,0,2,,,,,,,0,,,,57,127
17040,note_on,,0,0,2,,,,,,,0,,,,61,127
17272,note_off,,0,0,2,,,,,,,0,,,,57,64
17272,note_off,,0,0,2,,,,,,,0,,,,61,64
17272,note_off,,232,0,2,,,,,,,0,,,,64,64
17272,note_off,,472,0,3,,,,,,,2,,,,45,64
17272,note_off,,472,0,4,,,,,,,1,,,,73,64
17272,note_off,,472,0,1,,,,,,,3,,,,73,64
17280,note_on,,8,0,1,,,,,,,3,,,,76,127
17280,note_on,,8,0,3,,,,,,,2,,,,40,127
17280,note_on,,8,0,2,,,,,,,0,,,,57,127
17280,note_on,,0,0,2,,,,,,,0,,,,59,127
17280,note_on,,0,0,2,,,,,,,0,,,,62,127
17280,note_on,,0,0,2,,,,,,,0,,,,64,127
17280,note_on,,8,0,4,,,,,,,1,,,,76,127
17512,note_off,,0,0,2,,,,,,,0,,,,59,64
17512,note_off,,0,0,2,,,,,,,0,,,,62,64
17512,note_off,,232,0,2,,,,,,,0,,,,64,64
17512,note_off,,0,0,2,,,,,,,0,,,,57,64
17520,note_on,,0,0,2,,,,,,,0,,,,59,127
17520,note_on,,0,0,2,,,,,,,0,,,,62,127
17520,note_on,,0,0,2,,,,,,,0,,,,64,127
17520,note_on,,8,0,2,,,,,,,0,,,,57,127
17752,note_off,,232,0,2,,,,,,,0,,,,64,64
17752,note_off,,0,0,2,,,,,,,0,,,,59,64
17752,note_off,,0,0,2,,,,,,,0,,,,57,64
17752,note_off,,0,0,2,,,,,,,0,,,,62,64
17760,note_on,,0,0,2,,,,,,,0,,,,59,127
17760,note_on,,0,0,2,,,,,,,0,,,,62,127
17760,note_on,,0,0,2,,,,,,,0,,,,64,127
17760,note_on,,0,0,2,,,,,,,0,,,,59,127
17760,note_on,,8,0,2,,,,,,,0,,,,56,127
17992,note_off,,0,0,2,,,,,,,0,,,,59,64
17992,note_off,,0,0,2,,,,,,,0,,,,62,64
17992,note_off,,232,0,2,,,,,,,0,,,,64,64
17992,note_off,,0,0,2,,,,,,,0,,,,59,64
17992,note_off,,0,0,2,,,,,,,0,,,,56,64
18000,note_on,,8,0,2,,,,,,,0,,,,56,127
18000,note_on,,0,0,2,,,,,,,0,,,,59,127
18000,note_on,,0,0,2,,,,,,,0,,,,62,127
18000,note_on,,0,0,2,,,,,,,0,,,,64,127
18000,note_on,,0,0,2,,,,,,,0,,,,62,127
18000,note_on,,0,0,2,,,,,,,0,,,,62,127
18232,note_off,,232,0,2,,,,,,,0,,,,64,64
18232,note_off,,0,0,2,,,,,,,0,,,,62,64
18232,note_off,,0,0,2,,,,,,,0,,,,62,64
18232,note_off,,0,0,2,,,,,,,0,,,,59,64
18232,note_off,,0,0,2,,,,,,,0,,,,56,64
18232,note_off,,952,0,3,,,,,,,2,,,,40,64
18232,note_off,,952,0,4,,,,,,,1,,,,76,64
18232,note_off,,0,0,2,,,,,,,0,,,,62,64
18232,note_off,,952,0,1,,,,,,,3,,,,76,64
18240,note_on,,8,0,2,,,,,,,0,,,,57,127
18240,note_on,,0,0,2,,,,,,,0,,,,61,127
18240,note_on,,0,0,2,,,,,,,0,,,,64,127
18240,note_on,,8,0,3,,,,,,,2,,,,45,127
18240,note_on,,8,0,4,,,,,,,1,,,,73,127
18240,note_on,,8,0,1,,,,,,,3,,,,73,127
18472,note_off,,0,0,2,,,,,,,0,,,,57,64
18472,note_off,,0,0,2,,,,,,,0,,,,61,64
18472,note_off,,232,0,2,,,,,,,0,,,,64,64
18480,note_on,,0,0,2,,,,,,,0,,,,64,127
18480,note_on,,8,0,2,,,,,,,0,,,,57,127
18480,note_on,,0,0,2,,,,,,,0,,,,61,127
18712,note_off,,472,0,4,,,,,,,1,,,,73,64
18712,note_off,,472,0,3,,,,,,,2,,,,45,64
18712,note_off,,232,0,2,,,,,,,0,,,,64,64
18712,note_off,,0,0,2,,,,,,,0,,,,61,64
18712,note_off,,0,0,2,,,,,,,0,,,,57,64
18712,note_off,,472,0,1,,,,,,,3,,,,73,64
18720,note_on,,0,0,2,,,,,,,0,,,,64,127
18720,note_on,,8,0,2,,,,,,,0,,,,57,127
18720,note_on,,0,0,2,,,,,,,0,,,,61,127
18952,note_off,,0,0,2,,,,,,,0,,,,57,64
18952,note_off,,0,0,2,,,,,,,0,,,,61,64
18952,note_off,,232,0,2,,,,,,,0,,,,64,64
18960,note_on,,8,0,2,,,,,,,0,,,,57,127
18960,note_on,,0,0,2,,,,,,,0,,,,64,127
18960,note_on,,0,0,2,,,,,,,0,,,,61,127
19192,note_off,,0,0,2,,,,,,,0,,,,61,64
19192,note_off,,0,0,2,,,,,,,0,,,,57,64
19192,note_off,,232,0,2,,,,,,,0,,,,64,64
19200,note_on,,0,0,2,,,,,,,0,,,,59,127
19200,note_on,,0,0,2,,,,,,,0,,,,62,127
19200,note_on,,0,0,2,,,,,,,0,,,,64,127
19200,note_on,,8,0,2,,,,,,,0,,,,57,127
19200,note_on,,488,0,3,,,,,,,2,,,,76,127
19432,note_off,,232,0,2,,,,,,,0,,,,64,64
19432,note_off,,0,0,2,,,,,,,0,,,,62,64
19432,note_off,,0,0,2,,,,,,,0,,,,59,64
19432,note_off,,0,0,2,,,,,,,0,,,,57,64
19440,note_on,,0,0,2,,,,,,,0,,,,62,127
19440,note_on,,8,0,2,,,,,,,0,,,,57,127
19440,note_on,,0,0,2,,,,,,,0,,,,59,127
19440,note_on,,0,0,2,,,,,,,0,,,,64,127
19672,note_off,,0,0,2,,,,,,,0,,,,57,64
19672,note_off,,0,0,2,,,,,,,0,,,,59,64
19672,note_off,,232,0,2,,,,,,,0,,,,64,64
19672,note_off,,0,0,2,,,,,,,0,,,,62,64
19680,note_on,,8,0,2,,,,,,,0,,,,56,127
19680,note_on,,0,0,2,,,,,,,0,,,,59,127
19680,note_on,,0,0,2,,,,,,,0,,,,59,127
19680,note_on,,0,0,2,,,,,,,0,,,,62,127
19680,note_on,,0,0,2,,,,,,,0,,,,64,127
19912,note_off,,0,0,2,,,,,,,0,,,,59,64
19912,note_off,,0,0,2,,,,,,,0,,,,62,64
19912,note_off,,0,0,2,,,,,,,0,,,,59,64
19912,note_off,,0,0,2,,,,,,,0,,,,56,64
19912,note_off,,232,0,2,,,,,,,0,,,,64,64
19920,note_on,,0,0,2,,,,,,,0,,,,64,127
19920,note_on,,0,0,2,,,,,,,0,,,,62,127
19920,note_on,,0,0,2,,,,,,,0,,,,62,127
19920,note_on,,0,0,2,,,,,,,0,,,,62,127
19920,note_on,,8,0,2,,,,,,,0,,,,56,127
19920,note_on,,0,0,2,,,,,,,0,,,,59,127
20152,note_off,,0,0,2,,,,,,,0,,,,62,64
20152,note_off,,952,0,3,,,,,,,2,,,,76,64
20152,note_off,,0,0,2,,,,,,,0,,,,56,64
20152,note_off,,0,0,2,,,,,,,0,,,,62,64
20152,note_off,,0,0,2,,,,,,,0,,,,62,64
20152,note_off,,0,0,2,,,,,,,0,,,,59,64
20152,note_off,,232,0,2,,,,,,,0,,,,64,64
20160,note_on,,8,0,3,,,,,,,2,,,,73,127
20160,note_on,,8,0,2,,,,,,,0,,,,57,127
20160,note_on,,0,0,2,,,,,,,0,,,,61,127
20160,note_on,,0,0,2,,,,,,,0,,,,64,127
20392,note_off,,232,0,2,,,,,,,0,,,,64,64
20392,note_off,,0,0,2,,,,,,,0,,,,61,64
20392,note_off,,0,0,2,,,,,,,0,,,,57,64
20400,note_on,,0,0,2,,,,,,,0,,,,64,127
20400,note_on,,8,0,2,,,,,,,0,,,,57,127
20400,note_on,,0,0,2,,,,,,,0,,,,61,127
20632,note_off,,472,0,3,,,,,,,2,,,,73,64
20632,note_off,,232,0,2,,,,,,,0,,,,64,64
20632,note_off,,0,0,2,,,,,,,0,,,,61,64
20632,note_off,,0,0,2,,,,,,,0,,,,57,64
20640,note_on,,0,0,2,,,,,,,0,,,,64,127
20640,note_on,,0,0,2,,,,,,,0,,,,69,127
20640,note_on,,8,0,2,,,,,,,0,,,,61,127
20872,note_off,,232,0,2,,,,,,,0,,,,69,64
20872,note_off,,0,0,2,,,,,,,0,,,,61,64
20872,note_off,,0,0,2,,,,,,,0,,,,64,64
20880,note_on,,8,0,2,,,,,,,0,,,,61,127
20880,note_on,,0,0,2,,,,,,,0,,,,64,127
20880,note_on,,0,0,2,,,,,,,0,,,,69,127
21112,note_off,,232,0,2,,,,,,,0,,,,69,64
21112,note_off,,0,0,2,,,,,,,0,,,,61,64
21112,note_off,,0,0,2,,,,,,,0,,,,64,64
21120,note_on,,0,0,2,,,,,,,0,,,,68,127
21120,note_on,,8,0,2,,,,,,,0,,,,64,127
21120,note_on,,488,0,3,,,,,,,2,,,,49,127
21120,note_on,,2408,0,1,,,,,,,3,,,,76,127
21120,note_on,,0,0,2,,,,,,,0,,,,73,127
21120,note_on,,2408,0,4,,,,,,,1,,,,76,127
21352,note_off,,232,0,2,,,,,,,0,,,,73,64
21352,note_off,,0,0,2,,,,,,,0,,,,68,64
21352,note_off,,0,0,2,,,,,,,0,,,,64,64
21360,note_on,,0,0,2,,,,,,,0,,,,68,127
21360,note_on,,0,0,2,,,,,,,0,,,,73,127
21360,note_on,,8,0,2,,,,,,,0,,,,64,127
21592,note_off,,0,0,2,,,,,,,0,,,,64,64
21592,note_off,,232,0,2,,,,,,,0,,,,73,64
21592,note_off,,472,0,3,,,,,,,2,,,,49,64
21592,note_off,,0,0,2,,,,,,,0,,,,68,64
21600,note_on,,8,0,2,,,,,,,0,,,,64,127
21600,note_on,,0,0,2,,,,,,,0,,,,68,127
21600,note_on,,0,0,2,,,,,,,0,,,,73,127
21600,note_on,,8,0,3,,,,,,,2,,,,44,127
21832,note_off,,232,0,2,,,,,,,0,,,,73,64
21832,note_off,,0,0,2,,,,,,,0,,,,64,64
21832,note_off,,0,0,2,,,,,,,0,,,,68,64
21840,note_on,,8,0,2,,,,,,,0,,,,64,127
21840,note_on,,0,0,2,,,,,,,0,,,,68,127
21840,note_on,,0,0,2,,,,,,,0,,,,73,127
22072,note_off,,952,0,1,,,,,,,3,,,,76,64
22072,note_off,,232,0,2,,,,,,,0,,,,73,64
22072,note_off,,0,0,2,,,,,,,0,,,,68,64
22072,note_off,,0,0,2,,,,,,,0,,,,64,64
22072,note_off,,952,0,4,,,,,,,1,,,,76,64
22072,note_off,,472,0,3,,,,,,,2,,,,44,64
22080,note_on,,0,0,2,,,,,,,0,,,,73,127
22080,note_on,,0,0,2,,,,,,,0,,,,68,127
22080,note_on,,8,0,2,,,,,,,0,,,,64,127
22312,note_off,,0,0,2,,,,,,,0,,,,68,64
22312,note_off,,0,0,2,,,,,,,0,,,,64,64
22312,note_off,,232,0,2,,,,,,,0,,,,73,64
22320,note_on,,8,0,2,,,,,,,0,,,,64,127
22320,note_on,,0,0,2,,,,,,,0,,,,68,127
22320,note_on,,0,0,2,,,,,,,0,,,,73,127
22552,note_off,,232,0,2,,,,,,,0,,,,73,64
22552,note_off,,0,0,2,,,,,,,0,,,,68,64
22552,note_off,,0,0,2,,,,,,,0,,,,64,64
22560,note_on,,8,0,2,,,,,,,0,,,,64,127
22560,note_on,,0,0,2,,,,,,,0,,,,68,127
22560,note_on,,0,0,2,,,,,,,0,,,,73,127
22560,note_on,,488,0,4,,,,,,,1,,,,73,127
22560,note_on,,488,0,1,,,,,,,3,,,,73,127
22560,note_on,,488,0,3,,,,,,,2,,,,49,127
22792,note_off,,232,0,2,,,,,,,0,,,,73,64
22792,note_off,,0,0,2,,,,,,,0,,,,68,64
22792,note_off,,0,0,2,,,,,,,0,,,,64,64
22800,note_on,,0,0,2,,,,,,,0,,,,68,127
22800,note_on,,0,0,2,,,,,,,0,,,,73,127
22800,note_on,,8,0,2,,,,,,,0,,,,64,127
22912,note_off,,352,0,3,,,,,,,2,,,,49,64
22920,note_on,,8,0,3,,,,,,,2,,,,49,127
23032,note_off,,232,0,2,,,,,,,0,,,,73,64
23032,note_off,,472,0,1,,,,,,,3,,,,73,64
23032,note_off,,112,0,3,,,,,,,2,,,,49,64
23032,note_off,,472,0,4,,,,,,,1,,,,73,64
23032,note_off,,0,0,2,,,,,,,0,,,,64,64
23032,note_off,,0,0,2,,,,,,,0,,,,68,64
23040,note_on,,0,0,2,,,,,,,0,,,,73,127
23040,note_on,,0,0,2,,,,,,,0,,,,68,127
23040,note_on,,8,0,2,,,,,,,0,,,,66,127
23040,note_on,,8,0,4,,,,,,,1,,,,73,127
23040,note_on,,8,0,3,,,,,,,2,,,,51,127
23040,note_on,,8,0,1,,,,,,,3,,,,73,127
23272,note_off,,232,0,2,,,,,,,0,,,,73,64
23272,note_off,,0,0,2,,,,,,,0,,,,68,64
23272,note_off,,0,0,2,,,,,,,0,,,,66,64
23280,note_on,,8,0,2,,,,,,,0,,,,66,127
23280,note_on,,0,0,2,,,,,,,0,,,,68,127
23280,note_on,,0,0,2,,,,,,,0,,,,73,127
23512,note_off,,472,0,3,,,,,,,2,,,,51,64
23512,note_off,,472,0,4,,,,,,,1,,,,73,64
23512,note_off,,232,0,2,,,,,,,0,,,,73,64
23512,note_off,,0,0,2,,,,,,,0,,,,68,64
23512,note_off,,0,0,2,,,,,,,0,,,,66,64
23512,note_off,,472,0,1,,,,,,,3,,,,73,64
23520,note_on,,8,0,2,,,,,,,0,,,,66,127
23520,note_on,,0,0,2,,,,,,,0,,,,68,127
23520,note_on,,0,0,2,,,,,,,0,,,,72,127
23520,note_on,,8,0,1,,,,,,,3,,,,72,127
23520,note_on,,8,0,4,,,,,,,1,,,,72,127
23520,note_on,,8,0,3,,,,,,,2,,,,44,127
23752,note_off,,232,0,2,,,,,,,0,,,,72,64
23752,note_off,,0,0,2,,,,,,,0,,,,68,64
23752,note_off,,0,0,2,,,,,,,0,,,,66,64
23760,note_on,,8,0,2,,,,,,,0,,,,66,127
23760,note_on,,0,0,2,,,,,,,0,,,,68,127
23760,note_on,,0,0,2,,,,,,,0,,,,72,127
23992,note_off,,232,0,2,,,,,,,0,,,,72,64
23992,note_off,,0,0,2,,,,,,,0,,,,68,64
23992,note_off,,0,0,2,,,,,,,0,,,,66,64
23992,note_off,,472,0,3,,,,,,,2,,,,44,64
23992,note_off,,472,0,4,,,,,,,1,,,,72,64
23992,note_off,,472,0,1,,,,,,,3,,,,72,64
24000,note_on,,8,0,2,,,,,,,0,,,,66,127
24000,note_on,,0,0,2,,,,,,,0,,,,72,127
24000,note_on,,0,0,2,,,,,,,0,,,,68,127
24232,note_off,,232,0,2,,,,,,,0,,,,72,64
24232,note_off,,0,0,2,,,,,,,0,,,,68,64
24232,note_off,,0,0,2,,,,,,,0,,,,66,64
24240,note_on,,8,0,2,,,,,,,0,,,,66,127
24240,note_on,,0,0,2,,,,,,,0,,,,68,127
24240,note_on,,0,0,2,,,,,,,0,,,,72,127
24472,note_off,,232,0,2,,,,,,,0,,,,72,64
24472,note_off,,0,0,2,,,,,,,0,,,,68,64
24472,note_off,,0,0,2,,,,,,,0,,,,66,64
24480,note_on,,488,0,3,,,,,,,2,,,,52,127
24480,note_on,,0,0,2,,,,,,,0,,,,73,127
24480,note_on,,0,0,2,,,,,,,0,,,,68,127
24480,note_on,,8,0,2,,,,,,,0,,,,64,127
24480,note_on,,488,0,1,,,,,,,3,,,,75,127
24480,note_on,,488,0,4,,,,,,,1,,,,75,127
24712,note_off,,0,0,2,,,,,,,0,,,,68,64
24712,note_off,,232,0,1,,,,,,,3,,,,75,64
24712,note_off,,232,0,2,,,,,,,0,,,,73,64
24712,note_off,,232,0,4,,,,,,,1,,,,75,64
24712,note_off,,0,0,2,,,,,,,0,,,,64,64
24720,note_on,,8,0,2,,,,,,,0,,,,64,127
24720,note_on,,0,0,2,,,,,,,0,,,,73,127
24720,note_on,,0,0,2,,,,,,,0,,,,68,127
24720,note_on,,8,0,1,,,,,,,3,,,,73,127
24720,note_on,,8,0,4,,,,,,,1,,,,73,127
24832,note_off,,352,0,3,,,,,,,2,,,,52,64
24840,note_on,,8,0,3,,,,,,,2,,,,52,127
24952,note_off,,232,0,1,,,,,,,3,,,,73,64
24952,note_off,,112,0,3,,,,,,,2,,,,52,64
24952,note_off,,232,0,2,,,,,,,0,,,,73,64
24952,note_off,,0,0,2,,,,,,,0,,,,68,64
24952,note_off,,0,0,2,,,,,,,0,,,,64,64
24952,note_off,,232,0,4,,,,,,,1,,,,73,64
24960,note_on,,8,0,1,,,,,,,3,,,,71,127
24960,note_on,,8,0,4,,,,,,,1,,,,71,127
24960,note_on,,8,0,3,,,,,,,2,,,,54,127
24960,note_on,,8,0,2,,,,,,,0,,,,63,127
24960,note_on,,0,0,2,,,,,,,0,,,,69,127
24960,note_on,,0,0,2,,,,,,,0,,,,71,127
25192,note_off,,232,0,2,,,,,,,0,,,,71,64
25192,note_off,,0,0,2,,,,,,,0,,,,63,64
25192,note_off,,0,0,2,,,,,,,0,,,,69,64
25200,note_on,,0,0,2,,,,,,,0,,,,71,127
25200,note_on,,0,0,2,,,,,,,0,,,,69,127
25200,note_on,,8,0,2,,,,,,,0,,,,63,127
25432,note_off,,232,0,2,,,,,,,0,,,,71,64
25432,note_off,,0,0,2,,,,,,,0,,,,69,64
25432,note_off,,0,0,2,,,,,,,0,,,,63,64
25432,note_off,,472,0,3,,,,,,,2,,,,54,64
25440,note_on,,8,0,2,,,,,,,0,,,,63,127
25440,note_on,,0,0,2,,,,,,,0,,,,69,127
25440,note_on,,0,0,2,,,,,,,0,,,,71,127
25440,note_on,,8,0,3,,,,,,,2,,,,47,127
25672,note_off,,0,0,2,,,,,,,0,,,,69,64
25672,note_off,,0,0,2,,,,,,,0,,,,63,64
25672,note_off,,232,0,2,,,,,,,0,,,,71,64
25680,note_on,,0,0,2,,,,,,,0,,,,69,127
25680,note_on,,0,0,2,,,,,,,0,,,,71,127
25680,note_on,,8,0,2,,,,,,,0,,,,63,127
25912,note_off,,0,0,2,,,,,,,0,,,,69,64
25912,note_off,,0,0,2,,,,,,,0,,,,63,64
25912,note_off,,472,0,3,,,,,,,2,,,,47,64
25912,note_off,,232,0,2,,,,,,,0,,,,71,64
25920,note_on,,8,0,2,,,,,,,0,,,,63,127
25920,note_on,,0,0,2,,,,,,,0,,,,69,127
25920,note_on,,0,0,2,,,,,,,0,,,,71,127
26152,note_off,,0,0,2,,,,,,,0,,,,69,64
26152,note_off,,232,0,2,,,,,,,0,,,,71,64
26152,note_off,,0,0,2,,,,,,,0,,,,63,64
26160,note_on,,8,0,2,,,,,,,0,,,,63,127
26160,note_on,,0,0,2,,,,,,,0,,,,69,127
26160,note_on,,0,0,2,,,,,,,0,,,,71,127
26392,note_off,,0,0,2,,,,,,,0,,,,63,64
26392,note_off,,0,0,2,,,,,,,0,,,,69,64
26392,note_off,,232,0,2,,,,,,,0,,,,71,64
26392,note_off,,1432,0,1,,,,,,,3,,,,71,64
26392,note_off,,1432,0,4,,,,,,,1,,,,71,64
26400,note_on,,0,0,2,,,,,,,0,,,,69,127
26400,note_on,,0,0,2,,,,,,,0,,,,71,127
26400,note_on,,8,0,2,,,,,,,0,,,,66,127
26400,note_on,,488,0,3,,,,,,,2,,,,51,127
26400,note_on,,8,0,4,,,,,,,1,,,,66,127
26400,note_on,,8,0,1,,,,,,,3,,,,66,127
26632,note_off,,0,0,2,,,,,,,0,,,,66,64
26632,note_off,,0,0,2,,,,,,,0,,,,69,64
26632,note_off,,232,0,2,,,,,,,0,,,,71,64
26640,note_on,,0,0,2,,,,,,,0,,,,71,127
26640,note_on,,0,0,2,,,,,,,0,,,,69,127
26640,note_on,,8,0,2,,,,,,,0,,,,66,127
26752,note_off,,352,0,3,,,,,,,2,,,,51,64
26760,note_on,,8,0,3,,,,,,,2,,,,51,127
26872,note_off,,232,0,2,,,,,,,0,,,,71,64
26872,note_off,,0,0,2,,,,,,,0,,,,69,64
26872,note_off,,472,0,4,,,,,,,1,,,,66,64
26872,note_off,,112,0,3,,,,,,,2,,,,51,64
26872,note_off,,0,0,2,,,,,,,0,,,,66,64
26872,note_off,,472,0,1,,,,,,,3,,,,66,64
26880,note_on,,8,0,3,,,,,,,2,,,,52,127
26880,note_on,,8,0,1,,,,,,,3,,,,69,127
26880,note_on,,0,0,2,,,,,,,0,,,,69,127
26880,note_on,,8,0,2,,,,,,,0,,,,66,127
26880,note_on,,8,0,4,,,,,,,1,,,,69,127
26880,note_on,,0,0,2,,,,,,,0,,,,71,127
27112,note_off,,232,0,2,,,,,,,0,,,,71,64
27112,note_off,,0,0,2,,,,,,,0,,,,66,64
27112,note_off,,0,0,2,,,,,,,0,,,,69,64
27120,note_on,,8,0,2,,,,,,,0,,,,66,127
27120,note_on,,0,0,2,,,,,,,0,,,,69,127
27120,note_on,,0,0,2,,,,,,,0,,,,71,127
27352,note_off,,0,0,2,,,,,,,0,,,,69,64
27352,note_off,,0,0,2,,,,,,,0,,,,66,64
27352,note_off,,472,0,3,,,,,,,2,,,,52,64
27352,note_off,,232,0,2,,,,,,,0,,,,71,64
27352,note_off,,472,0,1,,,,,,,3,,,,69,64
27352,note_off,,472,0,4,,,,,,,1,,,,69,64
27360,note_on,,8,0,2,,,,,,,0,,,,64,127
27360,note_on,,0,0,2,,,,,,,0,,,,71,127
27360,note_on,,8,0,3,,,,,,,2,,,,40,127
27360,note_on,,8,0,1,,,,,,,3,,,,68,127
27360,note_on,,8,0,4,,,,,,,1,,,,68,127
27360,note_on,,0,0,2,,,,,,,0,,,,68,127
27592,note_off,,232,0,2,,,,,,,0,,,,71,64
27592,note_off,,0,0,2,,,,,,,0,,,,68,64
27592,note_off,,0,0,2,,,,,,,0,,,,64,64
27600,note_on,,8,0,2,,,,,,,0,,,,64,127
27600,note_on,,0,0,2,,,,,,,0,,,,68,127
27600,note_on,,0,0,2,,,,,,,0,,,,71,127
27832,note_off,,472,0,4,,,,,,,1,,,,68,64
27832,note_off,,472,0,3,,,,,,,2,,,,40,64
27832,note_off,,472,0,1,,,,,,,3,,,,68,64
27832,note_off,,0,0,2,,,,,,,0,,,,64,64
27832,note_off,,0,0,2,,,,,,,0,,,,68,64
27832,note_off,,232,0,2,,,,,,,0,,,,71,64
27840,note_on,,0,0,2,,,,,,,0,,,,71,127
27840,note_on,,0,0,2,,,,,,,0,,,,68,127
27840,note_on,,8,0,2,,,,,,,0,,,,64,127
28072,note_off,,232,0,2,,,,,,,0,,,,71,64
28072,note_off,,0,0,2,,,,,,,0,,,,68,64
28072,note_off,,0,0,2,,,,,,,0,,,,64,64
28080,note_on,,8,0,2,,,,,,,0,,,,64,127
28080,note_on,,0,0,2,,,,,,,0,,,,68,127
28080,note_on,,0,0,2,,,,,,,0,,,,71,127
28312,note_off,,232,0,2,,,,,,,0,,,,71,64
28312,note_off,,0,0,2,,,,,,,0,,,,68,64
28312,note_off,,0,0,2,,,,,,,0,,,,64,64
28320,note_on,,0,0,2,,,,,,,0,,,,68,127
28320,note_on,,0,0,2,,,,,,,0,,,,71,127
28320,note_on,,8,0,2,,,,,,,0,,,,64,127
28320,note_on,,488,0,3,,,,,,,2,,,,52,127
28320,note_on,,488,0,4,,,,,,,1,,,,64,127
28320,note_on,,488,0,1,,,,,,,3,,,,64,127
28552,note_off,,232,0,2,,,,,,,0,,,,71,64
28552,note_off,,0,0,2,,,,,,,0,,,,68,64
28552,note_off,,0,0,2,,,,,,,0,,,,64,64
28560,note_on,,0,0,2,,,,,,,0,,,,68,127
28560,note_on,,8,0,2,,,,,,,0,,,,64,127
28560,note_on,,0,0,2,,,,,,,0,,,,71,127
28672,note_off,,352,0,3,,,,,,,2,,,,52,64
28680,note_on,,8,0,3,,,,,,,2,,,,52,127
28792,note_off,,232,0,2,,,,,,,0,,,,71,64
28792,note_off,,0,0,2,,,,,,,0,,,,68,64
28792,note_off,,0,0,2,,,,,,,0,,,,64,64
28792,note_off,,472,0,4,,,,,,,1,,,,64,64
28792,note_off,,112,0,3,,,,,,,2,,,,52,64
28792,note_off,,472,0,1,,,,,,,3,,,,64,64
28800,note_on,,0,0,2,,,,,,,0,,,,71,127
28800,note_on,,8,0,3,,,,,,,2,,,,56,127
28800,note_on,,8,0,4,,,,,,,1,,,,71,127
28800,note_on,,8,0,2,,,,,,,0,,,,64,127
28800,note_on,,8,0,1,,,,,,,3,,,,71,127
28800,note_on,,0,0,2,,,,,,,0,,,,68,127
29032,note_off,,232,0,2,,,,,,,0,,,,71,64
29032,note_off,,0,0,2,,,,,,,0,,,,68,64
29032,note_off,,0,0,2,,,,,,,0,,,,64,64
29040,note_on,,0,0,2,,,,,,,0,,,,71,127
29040,note_on,,0,0,2,,,,,,,0,,,,68,127
29040,note_on,,8,0,2,,,,,,,0,,,,64,127
29272,note_off,,0,0,2,,,,,,,0,,,,64,64
29272,note_off,,232,0,2,,,,,,,0,,,,71,64
29272,note_off,,0,0,2,,,,,,,0,,,,68,64
29272,note_off,,472,0,4,,,,,,,1,,,,71,64
29272,note_off,,472,0,3,,,,,,,2,,,,56,64
29272,note_off,,472,0,1,,,,,,,3,,,,71,64
29280,note_on,,8,0,4,,,,,,,1,,,,68,127
29280,note_on,,8,0,2,,,,,,,0,,,,64,127
29280,note_on,,8,0,3,,,,,,,2,,,,52,127
29280,note_on,,0,0,2,,,,,,,0,,,,71,127
29280,note_on,,0,0,2,,,,,,,0,,,,68,127
29280,note_on,,8,0,1,,,,,,,3,,,,68,127
29512,note_off,,232,0,2,,,,,,,0,,,,71,64
29512,note_off,,0,0,2,,,,,,,0,,,,68,64
29512,note_off,,0,0,2,,,,,,,0,,,,64,64
29520,note_on,,0,0,2,,,,,,,0,,,,68,127
29520,note_on,,8,0,2,,,,,,,0,,,,64,127
29520,note_on,,0,0,2,,,,,,,0,,,,71,127
29752,note_off,,232,0,2,,,,,,,0,,,,71,64
29752,note_off,,0,0,2,,,,,,,0,,,,64,64
29752,note_off,,472,0,3,,,,,,,2,,,,52,64
29752,note_off,,472,0,1,,,,,,,3,,,,68,64
29752,note_off,,472,0,4,,,,,,,1,,,,68,64
29752,note_off,,0,0,2,,,,,,,0,,,,68,64
29760,note_on,,8,0,1,,,,,,,3,,,,74,127
29760,note_on,,8,0,2,,,,,,,0,,,,64,127
29760,note_on,,0,0,2,,,,,,,0,,,,68,127
29760,note_on,,0,0,2,,,,,,,0,,,,71,127
29760,note_on,,8,0,4,,,,,,,1,,,,74,127
29760,note_on,,8,0,3,,,,,,,2,,,,47,127
29992,note_off,,0,0,2,,,,,,,0,,,,64,64
29992,note_off,,232,0,2,,,,,,,0,,,,71,64
29992,note_off,,0,0,2,,,,,,,0,,,,68,64
30000,note_on,,8,0,2,,,,,,,0,,,,64,127
30000,note_on,,0,0,2,,,,,,,0,,,,71,127
30000,note_on,,0,0,2,,,,,,,0,,,,68,127
30232,note_off,,472,0,3,,,,,,,2,,,,47,64
30232,note_off,,472,0,1,,,,,,,3,,,,74,64
30232,note_off,,472,0,4,,,,,,,1,,,,74,64
30232,note_off,,232,0,2,,,,,,,0,,,,71,64
30232,note_off,,0,0,2,,,,,,,0,,,,68,64
30232,note_off,,0,0,2,,,,,,,0,,,,64,64
30240,note_on,,8,0,1,,,,,,,3,,,,71,127
30240,note_on,,8,0,3,,,,,,,2,,,,52,127
30240,note_on,,0,0,2,,,,,,,0,,,,68,127
30240,note_on,,0,0,2,,,,,,,0,,,,71,127
30240,note_on,,8,0,2,,,,,,,0,,,,64,127
30240,note_on,,8,0,4,,,,,,,1,,,,71,127
30472,note_off,,0,0,2,,,,,,,0,,,,68,64
30472,note_off,,0,0,2,,,,,,,0,,,,64,64
30472,note_off,,232,0,2,,,,,,,0,,,,71,64
30480,note_on,,0,0,2,,,,,,,0,,,,71,127
30480,note_on,,0,0,2,,,,,,,0,,,,68,127
30480,note_on,,8,0,2,,,,,,,0,,,,64,127
30712,note_off,,0,0,2,,,,,,,0,,,,64,64
30712,note_off,,232,0,2,,,,,,,0,,,,71,64
30712,note_off,,0,0,2,,,,,,,0,,,,68,64
30712,note_off,,472,0,4,,,,,,,1,,,,71,64
30712,note_off,,472,0,1,,,,,,,3,,,,71,64
30712,note_off,,472,0,3,,,,,,,2,,,,52,64
30720,note_on,,8,0,3,,,,,,,2,,,,44,127
30720,note_on,,8,0,1,,,,,,,3,,,,78,127
30720,note_on,,8,0,4,,,,,,,1,,,,78,127
30720,note_on,,0,0,2,,,,,,,0,,,,74,127
30720,note_on,,8,0,2,,,,,,,0,,,,64,127
30720,note_on,,0,0,2,,,,,,,0,,,,71,127
30952,note_off,,0,0,2,,,,,,,0,,,,64,64
30952,note_off,,0,0,2,,,,,,,0,,,,71,64
30952,note_off,,232,0,2,,,,,,,0,,,,74,64
30960,note_on,,0,0,2,,,,,,,0,,,,71,127
30960,note_on,,0,0,2,,,,,,,0,,,,74,127
30960,note_on,,8,0,2,,,,,,,0,,,,64,127
31192,note_off,,0,0,2,,,,,,,0,,,,71,64
31192,note_off,,0,0,2,,,,,,,0,,,,64,64
31192,note_off,,232,0,2,,,,,,,0,,,,74,64
31200,note_on,,0,0,2,,,,,,,0,,,,74,127
31200,note_on,,0,0,2,,,,,,,0,,,,71,127
31200,note_on,,8,0,2,,,,,,,0,,,,64,127
31432,note_off,,712,0,1,,,,,,,3,,,,78,64
31432,note_off,,0,0,2,,,,,,,0,,,,71,64
31432,note_off,,0,0,2,,,,,,,0,,,,64,64
31432,note_off,,712,0,4,,,,,,,1,,,,78,64
31432,note_off,,232,0,2,,,,,,,0,,,,74,64
31432,note_off,,712,0,3,,,,,,,2,,,,44,64
31440,note_on,,0,0,2,,,,,,,0,,,,71,127
31440,note_on,,0,0,2,,,,,,,0,,,,74,127
31440,note_on,,8,0,4,,,,,,,1,,,,74,127
31440,note_on,,8,0,1,,,,,,,3,,,,74,127
31440,note_on,,8,0,3,,,,,,,2,,,,47,127
31440,note_on,,8,0,2,,,,,,,0,,,,64,127
31672,note_off,,232,0,2,,,,,,,0,,,,74,64
31672,note_off,,232,0,4,,,,,,,1,,,,74,64
31672,note_off,,232,0,1,,,,,,,3,,,,74,64
31672,note_off,,0,0,2,,,,,,,0,,,,64,64
31672,note_off,,232,0,3,,,,,,,2,,,,47,64
31672,note_off,,0,0,2,,,,,,,0,,,,71,64
31680,note_on,,0,0,2,,,,,,,0,,,,71,127
31680,note_on,,8,0,4,,,,,,,1,,,,71,127
31680,note_on,,8,0,1,,,,,,,3,,,,71,127
31680,note_on,,8,0,3,,,,,,,2,,,,52,127
31680,note_on,,8,0,2,,,,,,,0,,,,64,127
31680,note_on,,0,0,2,,,,,,,0,,,,74,127
31912,note_off,,232,0,2,,,,,,,0,,,,74,64
31912,note_off,,0,0,2,,,,,,,0,,,,71,64
31912,note_off,,0,0,2,,,,,,,0,,,,64,64
31920,note_on,,8,0,2,,,,,,,0,,,,64,127
31920,note_on,,0,0,2,,,,,,,0,,,,74,127
31920,note_on,,0,0,2,,,,,,,0,,,,71,127
32152,note_off,,232,0,2,,,,,,,0,,,,74,64
32152,note_off,,472,0,4,,,,,,,1,,,,71,64
32152,note_off,,0,0,2,,,,,,,0,,,,71,64
32152,note_off,,472,0,1,,,,,,,3,,,,71,64
32152,note_off,,472,0,3,,,,,,,2,,,,52,64
32152,note_off,,0,0,2,,,,,,,0,,,,64,64
32160,note_on,,8,0,2,,,,,,,0,,,,64,127
32160,note_on,,0,0,2,,,,,,,0,,,,74,127
32160,note_on,,0,0,2,,,,,,,0,,,,71,127
32392,note_off,,0,0,2,,,,,,,0,,,,71,64
32392,note_off,,232,0,2,,,,,,,0,,,,74,64
32392,note_off,,0,0,2,,,,,,,0,,,,64,64
32400,note_on,,0,0,2,,,,,,,0,,,,71,127
32400,note_on,,8,0,2,,,,,,,0,,,,64,127
32400,note_on,,0,0,2,,,,,,,0,,,,74,127
32632,note_off,,232,0,2,,,,,,,0,,,,74,64
32632,note_off,,0,0,2,,,,,,,0,,,,64,64
32632,note_off,,0,0,2,,,,,,,0,,,,71,64
32640,note_on,,0,0,2,,,,,,,0,,,,71,127
32640,note_on,,0,0,2,,,,,,,0,,,,69,127
32640,note_on,,8,0,2,,,,,,,0,,,,64,127
32640,note_on,,0,0,2,,,,,,,0,,,,74,127
32640,note_on,,488,0,3,,,,,,,2,,,,78,127
32872,note_off,,0,0,2,,,,,,,0,,,,64,64
32872,note_off,,232,0,2,,,,,,,0,,,,74,64
32872,note_off,,0,0,2,,,,,,,0,,,,71,64
32872,note_off,,0,0,2,,,,,,,0,,,,69,64
32880,note_on,,0,0,2,,,,,,,0,,,,69,127
32880,note_on,,8,0,2,,,,,,,0,,,,64,127
32880,note_on,,0,0,2,,,,,,,0,,,,71,127
32880,note_on,,0,0,2,,,,,,,0,,,,74,127
33112,note_off,,232,0,2,,,,,,,0,,,,74,64
33112,note_off,,0,0,2,,,,,,,0,,,,71,64
33112,note_off,,0,0,2,,,,,,,0,,,,69,64
33112,note_off,,0,0,2,,,,,,,0,,,,64,64
33120,note_on,,0,0,2,,,,,,,0,,,,74,127
33120,note_on,,0,0,2,,,,,,,0,,,,69,127
33120,note_on,,0,0,2,,,,,,,0,,,,71,127
33120,note_on,,8,0,2,,,,,,,0,,,,64,127
33352,note_off,,0,0,2,,,,,,,0,,,,64,64
33352,note_off,,0,0,2,,,,,,,0,,,,69,64
33352,note_off,,0,0,2,,,,,,,0,,,,71,64
33352,note_off,,232,0,2,,,,,,,0,,,,74,64
33360,note_on,,0,0,2,,,,,,,0,,,,74,127
33360,note_on,,0,0,2,,,,,,,0,,,,71,127
33360,note_on,,0,0,2,,,,,,,0,,,,69,127
33360,note_on,,8,0,2,,,,,,,0,,,,64,127
33592,note_off,,952,0,3,,,,,,,2,,,,78,64
33592,note_off,,0,0,2,,,,,,,0,,,,69,64
33592,note_off,,232,0,2,,,,,,,0,,,,74,64
33592,note_off,,0,0,2,,,,,,,0,,,,71,64
33592,note_off,,0,0,2,,,,,,,0,,,,64,64
33600,note_on,,0,0,2,,,,,,,0,,,,68,127
33600,note_on,,8,0,3,,,,,,,2,,,,76,127
33600,note_on,,8,0,2,,,,,,,0,,,,64,127
33600,note_on,,0,0,2,,,,,,,0,,,,74,127
33600,note_on,,0,0,2,,,,,,,0,,,,71,127
33832,note_off,,0,0,2,,,,,,,0,,,,68,64
33832,note_off,,0,0,2,,,,,,,0,,,,71,64
33832,note_off,,232,0,2,,,,,,,0,,,,74,64
33832,note_off,,0,0,2,,,,,,,0,,,,64,64
33840,note_on,,8,0,2,,,,,,,0,,,,64,127
33840,note_on,,0,0,2,,,,,,,0,,,,68,127
33840,note_on,,0,0,2,,,,,,,0,,,,71,127
33840,note_on,,0,0,2,,,,,,,0,,,,74,127
34072,note_off,,472,0,3,,,,,,,2,,,,76,64
34072,note_off,,232,0,2,,,,,,,0,,,,74,64
34072,note_off,,0,0,2,,,,,,,0,,,,71,64
34072,note_off,,0,0,2,,,,,,,0,,,,68,64
34072,note_off,,0,0,2,,,,,,,0,,,,64,64
34080,note_on,,0,0,2,,,,,,,0,,,,74,127
34080,note_on,,0,0,2,,,,,,,0,,,,71,127
34080,note_on,,0,0,2,,,,,,,0,,,,68,127
34080,note_on,,8,0,2,,,,,,,0,,,,64,127
34312,note_off,,232,0,2,,,,,,,0,,,,74,64
34312,note_off,,0,0,2,,,,,,,0,,,,64,64
34312,note_off,,0,0,2,,,,,,,0,,,,68,64
34312,note_off,,0,0,2,,,,,,,0,,,,71,64
34320,note_on,,0,0,2,,,,,,,0,,,,74,127
34320,note_on,,0,0,2,,,,,,,0,,,,71,127
34320,note_on,,0,0,2,,,,,,,0,,,,68,127
34320,note_on,,8,0,2,,,,,,,0,,,,64,127
34552,note_off,,232,0,2,,,,,,,0,,,,74,64
34552,note_off,,0,0,2,,,,,,,0,,,,64,64
34552,note_off,,0,0,2,,,,,,,0,,,,71,64
34552,note_off,,0,0,2,,,,,,,0,,,,68,64
34560,note_on,,0,0,2,,,,,,,0,,,,73,127
34560,note_on,,2408,0,4,,,,,,,1,,,,76,127
34560,note_on,,0,0,2,,,,,,,0,,,,69,127
34560,note_on,,8,0,2,,,,,,,0,,,,64,127
34560,note_on,,2408,0,1,,,,,,,3,,,,76,127
34560,note_on,,488,0,3,,,,,,,2,,,,45,127
34792,note_off,,0,0,2,,,,,,,0,,,,64,64
34792,note_off,,0,0,2,,,,,,,0,,,,69,64
34792,note_off,,232,0,2,,,,,,,0,,,,73,64
34800,note_on,,8,0,2,,,,,,,0,,,,64,127
34800,note_on,,0,0,2,,,,,,,0,,,,73,127
34800,note_on,,0,0,2,,,,,,,0,,,,69,127
35032,note_off,,232,0,2,,,,,,,0,,,,73,64
35032,note_off,,472,0,3,,,,,,,2,,,,45,64
35032,note_off,,0,0,2,,,,,,,0,,,,64,64
35032,note_off,,0,0,2,,,,,,,0,,,,69,64
35040,note_on,,8,0,3,,,,,,,2,,,,49,127
35040,note_on,,0,0,2,,,,,,,0,,,,73,127
35040,note_on,,0,0,2,,,,,,,0,,,,69,127
35040,note_on,,8,0,2,,,,,,,0,,,,64,127
35272,note_off,,0,0,2,,,,,,,0,,,,64,64
35272,note_off,,0,0,2,,,,,,,0,,,,69,64
35272,note_off,,232,0,2,,,,,,,0,,,,73,64
35280,note_on,,0,0,2,,,,,,,0,,,,69,127
35280,note_on,,8,0,2,,,,,,,0,,,,64,127
35280,note_on,,0,0,2,,,,,,,0,,,,73,127
35512,note_off,,0,0,2,,,,,,,0,,,,69,64
35512,note_off,,0,0,2,,,,,,,0,,,,64,64
35512,note_off,,472,0,3,,,,,,,2,,,,49,64
35512,note_off,,232,0,2,,,,,,,0,,,,73,64
35520,note_on,,8,0,2,,,,,,,0,,,,64,127
35520,note_on,,0,0,2,,,,,,,0,,,,69,127
35520,note_on,,0,0,2,,,,,,,0,,,,73,127
35752,note_off,,232,0,2,,,,,,,0,,,,73,64
35752,note_off,,0,0,2,,,,,,,0,,,,69,64
35752,note_off,,0,0,2,,,,,,,0,,,,64,64
35760,note_on,,8,0,2,,,,,,,0,,,,64,127
35760,note_on,,0,0,2,,,,,,,0,,,,69,127
35760,note_on,,0,0,2,,,,,,,0,,,,73,127
35992,note_off,,232,0,2,,,,,,,0,,,,73,64
35992,note_off,,1432,0,1,,,,,,,3,,,,76,64
35992,note_off,,0,0,2,,,,,,,0,,,,64,64
35992,note_off,,1432,0,4,,,,,,,1,,,,76,64
35992,note_off,,0,0,2,,,,,,,0,,,,69,64
36000,note_on,,8,0,4,,,,,,,1,,,,73,127
36000,note_on,,0,0,2,,,,,,,0,,,,73,127
36000,note_on,,0,0,2,,,,,,,0,,,,69,127
36000,note_on,,488,0,3,,,,,,,2,,,,45,127
36000,note_on,,8,0,1,,,,,,,3,,,,73,127
36000,note_on,,8,0,2,,,,,,,0,,,,64,127
36232,note_off,,232,0,2,,,,,,,0,,,,73,64
36232,note_off,,232,0,1,,,,,,,3,,,,73,64
36232,note_off,,0,0,2,,,,,,,0,,,,69,64
36232,note_off,,0,0,2,,,,,,,0,,,,64,64
36232,note_off,,232,0,4,,,,,,,1,,,,73,64
36240,note_on,,8,0,1,,,,,,,3,,,,69,127
36240,note_on,,8,0,2,,,,,,,0,,,,64,127
36240,note_on,,8,0,4,,,,,,,1,,,,69,127
36240,note_on,,0,0,2,,,,,,,0,,,,73,127
36240,note_on,,0,0,2,,,,,,,0,,,,69,127
36352,note_off,,352,0,3,,,,,,,2,,,,45,64
36360,note_on,,8,0,3,,,,,,,2,,,,45,127
36472,note_off,,112,0,3,,,,,,,2,,,,45,64
36472,note_off,,232,0,4,,,,,,,1,,,,69,64
36472,note_off,,232,0,2,,,,,,,0,,,,73,64
36472,note_off,,0,0,2,,,,,,,0,,,,69,64
36472,note_off,,0,0,2,,,,,,,0,,,,64,64
36472,note_off,,232,0,1,,,,,,,3,,,,69,64
36480,note_on,,8,0,4,,,,,,,1,,,,68,127
36480,note_on,,8,0,3,,,,,,,2,,,,50,127
36480,note_on,,8,0,1,,,,,,,3,,,,68,127
36480,note_on,,8,0,2,,,,,,,0,,,,66,127
36480,note_on,,0,0,2,,,,,,,0,,,,69,127
36480,note_on,,0,0,2,,,,,,,0,,,,74,127
36712,note_off,,0,0,2,,,,,,,0,,,,69,64
36712,note_off,,232,0,2,,,,,,,0,,,,74,64
36712,note_off,,0,0,2,,,,,,,0,,,,66,64
36720,note_on,,0,0,2,,,,,,,0,,,,69,127
36720,note_on,,8,0,2,,,,,,,0,,,,66,127
36720,note_on,,0,0,2,,,,,,,0,,,,74,127
36952,note_off,,232,0,2,,,,,,,0,,,,74,64
36952,note_off,,0,0,2,,,,,,,0,,,,69,64
36952,note_off,,0,0,2,,,,,,,0,,,,66,64
36952,note_off,,472,0,1,,,,,,,3,,,,68,64
36952,note_off,,472,0,4,,,,,,,1,,,,68,64
36952,note_off,,472,0,3,,,,,,,2,,,,50,64
36960,note_on,,8,0,2,,,,,,,0,,,,66,127
36960,note_on,,0,0,2,,,,,,,0,,,,74,127
36960,note_on,,8,0,3,,,,,,,2,,,,54,127
36960,note_on,,0,0,2,,,,,,,0,,,,70,127
36960,note_on,,8,0,4,,,,,,,1,,,,66,127
36960,note_on,,8,0,1,,,,,,,3,,,,66,127
37192,note_off,,232,0,2,,,,,,,0,,,,74,64
37192,note_off,,0,0,2,,,,,,,0,,,,70,64
37192,note_off,,0,0,2,,,,,,,0,,,,66,64
37200,note_on,,0,0,2,,,,,,,0,,,,74,127
37200,note_on,,0,0,2,,,,,,,0,,,,70,127
37200,note_on,,8,0,2,,,,,,,0,,,,66,127
37432,note_off,,0,0,2,,,,,,,0,,,,66,64
37432,note_off,,232,0,2,,,,,,,0,,,,74,64
37432,note_off,,0,0,2,,,,,,,0,,,,70,64
37432,note_off,,472,0,3,,,,,,,2,,,,54,64
37432,note_off,,472,0,4,,,,,,,1,,,,66,64
37432,note_off,,472,0,1,,,,,,,3,,,,66,64
37440,note_on,,8,0,2,,,,,,,0,,,,66,127
37440,note_on,,0,0,2,,,,,,,0,,,,71,127
37440,note_on,,0,0,2,,,,,,,0,,,,74,127
37672,note_off,,232,0,2,,,,,,,0,,,,74,64
37672,note_off,,0,0,2,,,,,,,0,,,,71,64
37672,note_off,,0,0,2,,,,,,,0,,,,66,64
37680,note_on,,0,0,2,,,,,,,0,,,,71,127
37680,note_on,,8,0,2,,,,,,,0,,,,66,127
37680,note_on,,0,0,2,,,,,,,0,,,,74,127
37912,note_off,,0,0,2,,,,,,,0,,,,71,64
37912,note_off,,0,0,2,,,,,,,0,,,,66,64
37912,note_off,,232,0,2,,,,,,,0,,,,74,64
37920,note_on,,488,0,3,,,,,,,2,,,,46,127
37920,note_on,,8,0,2,,,,,,,0,,,,66,127
37920,note_on,,0,0,2,,,,,,,0,,,,74,127
37920,note_on,,0,0,2,,,,,,,0,,,,73,127
38152,note_off,,0,0,2,,,,,,,0,,,,73,64
38152,note_off,,0,0,2,,,,,,,0,,,,66,64
38152,note_off,,232,0,2,,,,,,,0,,,,74,64
38160,note_on,,8,0,2,,,,,,,0,,,,66,127
38160,note_on,,0,0,2,,,,,,,0,,,,73,127
38160,note_on,,0,0,2,,,,,,,0,,,,74,127
38272,note_off,,352,0,3,,,,,,,2,,,,46,64
38280,note_on,,8,0,3,,,,,,,2,,,,46,127
38392,note_off,,112,0,3,,,,,,,2,,,,46,64
38392,note_off,,232,0,2,,,,,,,0,,,,74,64
38392,note_off,,0,0,2,,,,,,,0,,,,73,64
38392,note_off,,0,0,2,,,,,,,0,,,,66,64
38400,note_on,,8,0,2,,,,,,,0,,,,66,127
38400,note_on,,0,0,2,,,,,,,0,,,,74,127
38400,note_on,,968,0,4,,,,,,,1,,,,74,127
38400,note_on,,8,0,3,,,,,,,2,,,,47,127
38400,note_on,,968,0,1,,,,,,,3,,,,74,127
38632,note_off,,0,0,2,,,,,,,0,,,,66,64
38632,note_off,,232,0,2,,,,,,,0,,,,74,64
38640,note_on,,8,0,2,,,,,,,0,,,,66,127
38640,note_on,,0,0,2,,,,,,,0,,,,74,127
38872,note_off,,232,0,2,,,,,,,0,,,,74,64
38872,note_off,,0,0,2,,,,,,,0,,,,66,64
38872,note_off,,472,0,3,,,,,,,2,,,,47,64
38880,note_on,,0,0,2,,,,,,,0,,,,74,127
38880,note_on,,0,0,2,,,,,,,0,,,,71,127
38880,note_on,,8,0,2,,,,,,,0,,,,66,127
38880,note_on,,8,0,3,,,,,,,2,,,,50,127
39112,note_off,,0,0,2,,,,,,,0,,,,71,64
39112,note_off,,0,0,2,,,,,,,0,,,,66,64
39112,note_off,,232,0,2,,,,,,,0,,,,74,64
39120,note_on,,8,0,2,,,,,,,0,,,,66,127
39120,note_on,,0,0,2,,,,,,,0,,,,71,127
39120,note_on,,0,0,2,,,,,,,0,,,,74,127
39352,note_off,,472,0,3,,,,,,,2,,,,50,64
39352,note_off,,232,0,2,,,,,,,0,,,,74,64
39352,note_off,,0,0,2,,,,,,,0,,,,71,64
39352,note_off,,0,0,2,,,,,,,0,,,,66,64
39360,note_on,,8,0,2,,,,,,,0,,,,66,127
39360,note_on,,0,0,2,,,,,,,0,,,,74,127
39360,note_on,,0,0,2,,,,,,,0,,,,71,127
39592,note_off,,0,0,2,,,,,,,0,,,,66,64
39592,note_off,,0,0,2,,,,,,,0,,,,71,64
39592,note_off,,232,0,2,,,,,,,0,,,,74,64
39600,note_on,,0,0,2,,,,,,,0,,,,74,127
39600,note_on,,0,0,2,,,,,,,0,,,,71,127
39600,note_on,,8,0,2,,,,,,,0,,,,66,127
39832,note_off,,0,0,2,,,,,,,0,,,,66,64
39832,note_off,,1432,0,1,,,,,,,3,,,,74,64
39832,note_off,,0,0,2,,,,,,,0,,,,71,64
39832,note_off,,232,0,2,,,,,,,0,,,,74,64
39832,note_off,,1432,0,4,,,,,,,1,,,,74,64
39840,note_on,,0,0,2,,,,,,,0,,,,74,127
39840,note_on,,8,0,4,,,,,,,1,,,,73,127
39840,note_on,,488,0,3,,,,,,,2,,,,45,127
39840,note_on,,8,0,2,,,,,,,0,,,,66,127
39840,note_on,,8,0,1,,,,,,,3,,,,73,127
39840,note_on,,0,0,2,,,,,,,0,,,,71,127
39952,note_off,,112,0,1,,,,,,,3,,,,73,64
39952,note_off,,112,0,4,,,,,,,1,,,,73,64
39960,note_on,,8,0,4,,,,,,,1,,,,71,127
39960,note_on,,8,0,1,,,,,,,3,,,,71,127
40072,note_off,,232,0,2,,,,,,,0,,,,74,64
40072,note_off,,0,0,2,,,,,,,0,,,,71,64
40072,note_off,,0,0,2,,,,,,,0,,,,66,64
40072,note_off,,112,0,4,,,,,,,1,,,,71,64
40072,note_off,,112,0,1,,,,,,,3,,,,71,64
40080,note_on,,0,0,2,,,,,,,0,,,,74,127
40080,note_on,,8,0,1,,,,,,,3,,,,69,127
40080,note_on,,8,0,4,,,,,,,1,,,,69,127
40080,note_on,,8,0,2,,,,,,,0,,,,66,127
40080,note_on,,0,0,2,,,,,,,0,,,,71,127
40192,note_off,,352,0,3,,,,,,,2,,,,45,64
40192,note_off,,112,0,4,,,,,,,1,,,,69,64
40192,note_off,,112,0,1,,,,,,,3,,,,69,64
40200,note_on,,8,0,3,,,,,,,2,,,,45,127
40200,note_on,,8,0,4,,,,,,,1,,,,68,127
40200,note_on,,8,0,1,,,,,,,3,,,,68,127
40312,note_off,,232,0,2,,,,,,,0,,,,74,64
40312,note_off,,112,0,3,,,,,,,2,,,,45,64
40312,note_off,,0,0,2,,,,,,,0,,,,66,64
40312,note_off,,112,0,4,,,,,,,1,,,,68,64
40312,note_off,,0,0,2,,,,,,,0,,,,71,64
40312,note_off,,112,0,1,,,,,,,3,,,,68,64
40320,note_on,,8,0,4,,,,,,,1,,,,66,127
40320,note_on,,8,0,1,,,,,,,3,,,,66,127
40320,note_on,,8,0,3,,,,,,,2,,,,44,127
40320,note_on,,8,0,2,,,,,,,0,,,,64,127
40320,note_on,,0,0,2,,,,,,,0,,,,74,127
40320,note_on,,0,0,2,,,,,,,0,,,,71,127
40552,note_off,,0,0,2,,,,,,,0,,,,64,64
40552,note_off,,0,0,2,,,,,,,0,,,,71,64
40552,note_off,,232,0,2,,,,,,,0,,,,74,64
40560,note_on,,0,0,2,,,,,,,0,,,,74,127
40560,note_on,,0,0,2,,,,,,,0,,,,71,127
40560,note_on,,8,0,2,,,,,,,0,,,,64,127
40792,note_off,,472,0,3,,,,,,,2,,,,44,64
40792,note_off,,0,0,2,,,,,,,0,,,,71,64
40792,note_off,,232,0,2,,,,,,,0,,,,74,64
40792,note_off,,0,0,2,,,,,,,0,,,,64,64
40792,note_off,,472,0,4,,,,,,,1,,,,66,64
40792,note_off,,472,0,1,,,,,,,3,,,,66,64
40800,note_on,,8,0,4,,,,,,,1,,,,64,127
40800,note_on,,0,0,2,,,,,,,0,,,,71,127
40800,note_on,,8,0,3,,,,,,,2,,,,52,127
40800,note_on,,8,0,1,,,,,,,3,,,,64,127
40800,note_on,,8,0,2,,,,,,,0,,,,64,127
41032,note_off,,0,0,2,,,,,,,0,,,,64,64
41032,note_off,,232,0,2,,,,,,,0,,,,71,64
41040,note_on,,0,0,2,,,,,,,0,,,,71,127
41040,note_on,,8,0,2,,,,,,,0,,,,64,127
41272,note_off,,0,0,2,,,,,,,0,,,,64,64
41272,note_off,,232,0,2,,,,,,,0,,,,71,64
41272,note_off,,472,0,3,,,,,,,2,,,,52,64
41272,note_off,,472,0,4,,,,,,,1,,,,64,64
41272,note_off,,472,0,1,,,,,,,3,,,,64,64
41280,note_on,,0,0,2,,,,,,,0,,,,76,127
41280,note_on,,8,0,2,,,,,,,0,,,,64,127
41512,note_off,,232,0,2,,,,,,,0,,,,76,64
41512,note_off,,0,0,2,,,,,,,0,,,,64,64
41520,note_on,,0,0,2,,,,,,,0,,,,76,127
41520,note_on,,8,0,2,,,,,,,0,,,,64,127
41752,note_off,,0,0,2,,,,,,,0,,,,64,64
41752,note_off,,232,0,2,,,,,,,0,,,,76,64
41760,note_on,,0,0,2,,,,,,,0,,,,74,127
41760,note_on,,0,0,2,,,,,,,0,,,,71,127
41760,note_on,,8,0,2,,,,,,,0,,,,64,127
41760,note_on,,488,0,3,,,,,,,2,,,,32,127
41992,note_off,,0,0,2,,,,,,,0,,,,64,64
41992,note_off,,232,0,2,,,,,,,0,,,,74,64
41992,note_off,,0,0,2,,,,,,,0,,,,71,64
42000,note_on,,0,0,2,,,,,,,0,,,,71,127
42000,note_on,,8,0,2,,,,,,,0,,,,64,127
42000,note_on,,0,0,2,,,,,,,0,,,,74,127
42112,note_off,,352,0,3,,,,,,,2,,,,32,64
42120,note_on,,8,0,3,,,,,,,2,,,,32,127
42232,note_off,,0,0,2,,,,,,,0,,,,71,64
42232,note_off,,0,0,2,,,,,,,0,,,,64,64
42232,note_off,,112,0,3,,,,,,,2,,,,32,64
42232,note_off,,232,0,2,,,,,,,0,,,,74,64
42240,note_on,,0,0,2,,,,,,,0,,,,64,127
42240,note_on,,0,0,2,,,,,,,0,,,,73,127
42240,note_on,,8,0,2,,,,,,,0,,,,61,127
42240,note_on,,968,0,1,,,,,,,3,,,,64,127
42240,note_on,,968,0,4,,,,,,,1,,,,64,127
42240,note_on,,8,0,3,,,,,,,2,,,,33,127
42472,note_off,,0,0,2,,,,,,,0,,,,61,64
42472,note_off,,232,0,2,,,,,,,0,,,,73,64
42472,note_off,,0,0,2,,,,,,,0,,,,64,64
42480,note_on,,8,0,2,,,,,,,0,,,,61,127
42480,note_on,,0,0,2,,,,,,,0,,,,64,127
42480,note_on,,0,0,2,,,,,,,0,,,,73,127
42712,note_off,,0,0,2,,,,,,,0,,,,64,64
42712,note_off,,0,0,2,,,,,,,0,,,,61,64
42712,note_off,,232,0,2,,,,,,,0,,,,73,64
42712,note_off,,472,0,3,,,,,,,2,,,,33,64
42720,note_on,,8,0,3,,,,,,,2,,,,45,127
42720,note_on,,8,0,2,,,,,,,0,,,,61,127
42720,note_on,,0,0,2,,,,,,,0,,,,64,127
42720,note_on,,0,0,2,,,,,,,0,,,,71,127
42952,note_off,,0,0,2,,,,,,,0,,,,61,64
42952,note_off,,232,0,2,,,,,,,0,,,,71,64
42952,note_off,,0,0,2,,,,,,,0,,,,64,64
42960,note_on,,0,0,2,,,,,,,0,,,,71,127
42960,note_on,,0,0,2,,,,,,,0,,,,64,127
42960,note_on,,8,0,2,,,,,,,0,,,,61,127
43192,note_off,,472,0,3,,,,,,,2,,,,45,64
43192,note_off,,232,0,2,,,,,,,0,,,,71,64
43192,note_off,,0,0,2,,,,,,,0,,,,64,64
43192,note_off,,0,0,2,,,,,,,0,,,,61,64
43192,note_off,,952,0,4,,,,,,,1,,,,64,64
43192,note_off,,952,0,1,,,,,,,3,,,,64,64
43200,note_on,,8,0,4,,,,,,,1,,,,76,127
43200,note_on,,8,0,1,,,,,,,3,,,,76,127
43200,note_on,,8,0,2,,,,,,,0,,,,61,127
43200,note_on,,0,0,2,,,,,,,0,,,,64,127
43200,note_on,,0,0,2,,,,,,,0,,,,69,127
43432,note_off,,232,0,2,,,,,,,0,,,,69,64
43432,note_off,,0,0,2,,,,,,,0,,,,64,64
43432,note_off,,0,0,2,,,,,,,0,,,,61,64
43440,note_on,,0,0,2,,,,,,,0,,,,69,127
43440,note_on,,0,0,2,,,,,,,0,,,,64,127
43440,note_on,,8,0,2,,,,,,,0,,,,61,127
43672,note_off,,0,0,2,,,,,,,0,,,,64,64
43672,note_off,,0,0,2,,,,,,,0,,,,61,64
43672,note_off,,232,0,2,,,,,,,0,,,,69,64
43680,note_on,,8,0,2,,,,,,,0,,,,61,127
43680,note_on,,488,0,3,,,,,,,2,,,,37,127
43680,note_on,,0,0,2,,,,,,,0,,,,64,127
43680,note_on,,0,0,2,,,,,,,0,,,,68,127
43912,note_off,,232,0,2,,,,,,,0,,,,68,64
43912,note_off,,0,0,2,,,,,,,0,,,,64,64
43912,note_off,,0,0,2,,,,,,,0,,,,61,64
43920,note_on,,0,0,2,,,,,,,0,,,,64,127
43920,note_on,,0,0,2,,,,,,,0,,,,68,127
43920,note_on,,8,0,2,,,,,,,0,,,,61,127
44032,note_off,,352,0,3,,,,,,,2,,,,37,64
44040,note_on,,8,0,3,,,,,,,2,,,,37,127
44152,note_off,,232,0,2,,,,,,,0,,,,68,64
44152,note_off,,0,0,2,,,,,,,0,,,,64,64
44152,note_off,,952,0,1,,,,,,,3,,,,76,64
44152,note_off,,0,0,2,,,,,,,0,,,,61,64
44152,note_off,,112,0,3,,,,,,,2,,,,37,64
44152,note_off,,952,0,4,,,,,,,1,,,,76,64
44160,note_on,,0,0,2,,,,,,,0,,,,64,127
44160,note_on,,0,0,2,,,,,,,0,,,,66,127
44160,note_on,,8,0,3,,,,,,,2,,,,38,127
44160,note_on,,8,0,4,,,,,,,1,,,,78,127
44160,note_on,,8,0,1,,,,,,,3,,,,78,127
44160,note_on,,8,0,2,,,,,,,0,,,,61,127
44392,note_off,,232,0,2,,,,,,,0,,,,66,64
44392,note_off,,0,0,2,,,,,,,0,,,,64,64
44392,note_off,,0,0,2,,,,,,,0,,,,61,64
44400,note_on,,8,0,2,,,,,,,0,,,,61,127
44400,note_on,,0,0,2,,,,,,,0,,,,64,127
44400,note_on,,0,0,2,,,,,,,0,,,,66,127
44632,note_off,,0,0,2,,,,,,,0,,,,64,64
44632,note_off,,0,0,2,,,,,,,0,,,,61,64
44632,note_off,,232,0,2,,,,,,,0,,,,66,64
44632,note_off,,472,0,3,,,,,,,2,,,,38,64
44640,note_on,,0,0,2,,,,,,,0,,,,61,127
44640,note_on,,0,0,2,,,,,,,0,,,,66,127
44640,note_on,,8,0,2,,,,,,,0,,,,58,127
44640,note_on,,8,0,3,,,,,,,2,,,,50,127
44872,note_off,,232,0,2,,,,,,,0,,,,66,64
44872,note_off,,0,0,2,,,,,,,0,,,,58,64
44872,note_off,,0,0,2,,,,,,,0,,,,61,64
44880,note_on,,0,0,2,,,,,,,0,,,,61,127
44880,note_on,,0,0,2,,,,,,,0,,,,66,127
44880,note_on,,8,0,2,,,,,,,0,,,,58,127
45112,note_off,,0,0,2,,,,,,,0,,,,58,64
45112,note_off,,952,0,1,,,,,,,3,,,,78,64
45112,note_off,,232,0,2,,,,,,,0,,,,66,64
45112,note_off,,472,0,3,,,,,,,2,,,,50,64
45112,note_off,,0,0,2,,,,,,,0,,,,61,64
45112,note_off,,952,0,4,,,,,,,1,,,,78,64
45120,note_on,,8,0,4,,,,,,,1,,,,66,127
45120,note_on,,8,0,2,,,,,,,0,,,,59,127
45120,note_on,,0,0,2,,,,,,,0,,,,62,127
45120,note_on,,0,0,2,,,,,,,0,,,,66,127
45120,note_on,,8,0,1,,,,,,,3,,,,66,127
45352,note_off,,232,0,2,,,,,,,0,,,,66,64
45352,note_off,,0,0,2,,,,,,,0,,,,62,64
45352,note_off,,0,0,2,,,,,,,0,,,,59,64
45360,note_on,,0,0,2,,,,,,,0,,,,62,127
45360,note_on,,0,0,2,,,,,,,0,,,,66,127
45360,note_on,,8,0,2,,,,,,,0,,,,59,127
45592,note_off,,232,0,2,,,,,,,0,,,,66,64
45592,note_off,,0,0,2,,,,,,,0,,,,62,64
45592,note_off,,0,0,2,,,,,,,0,,,,59,64
45600,note_on,,8,0,2,,,,,,,0,,,,66,127
45600,note_on,,0,0,2,,,,,,,0,,,,71,127
45600,note_on,,488,0,3,,,,,,,2,,,,38,127
45832,note_off,,232,0,2,,,,,,,0,,,,71,64
45832,note_off,,0,0,2,,,,,,,0,,,,66,64
45840,note_on,,8,0,2,,,,,,,0,,,,66,127
45840,note_on,,0,0,2,,,,,,,0,,,,71,127
45952,note_off,,352,0,3,,,,,,,2,,,,38,64
45960,note_on,,8,0,3,,,,,,,2,,,,38,127
46072,note_off,,232,0,2,,,,,,,0,,,,71,64
46072,note_off,,952,0,1,,,,,,,3,,,,66,64
46072,note_off,,112,0,3,,,,,,,2,,,,38,64
46072,note_off,,0,0,2,,,,,,,0,,,,66,64
46072,note_off,,952,0,4,,,,,,,1,,,,66,64
46080,note_on,,8,0,4,,,,,,,1,,,,68,127
46080,note_on,,8,0,1,,,,,,,3,,,,68,127
46080,note_on,,0,0,2,,,,,,,0,,,,74,127
46080,note_on,,0,0,2,,,,,,,0,,,,71,127
46080,note_on,,8,0,2,,,,,,,0,,,,64,127
46080,note_on,,8,0,3,,,,,,,2,,,,40,127
46312,note_off,,232,0,2,,,,,,,0,,,,74,64
46312,note_off,,0,0,2,,,,,,,0,,,,71,64
46312,note_off,,0,0,2,,,,,,,0,,,,64,64
46320,note_on,,0,0,2,,,,,,,0,,,,74,127
46320,note_on,,0,0,2,,,,,,,0,,,,71,127
46320,note_on,,8,0,2,,,,,,,0,,,,64,127
46552,note_off,,0,0,2,,,,,,,0,,,,71,64
46552,note_off,,0,0,2,,,,,,,0,,,,64,64
46552,note_off,,472,0,3,,,,,,,2,,,,40,64
46552,note_off,,232,0,2,,,,,,,0,,,,74,64
46560,note_on,,8,0,3,,,,,,,2,,,,52,127
46560,note_on,,0,0,2,,,,,,,0,,,,71,127
46560,note_on,,0,0,2,,,,,,,0,,,,74,127
46560,note_on,,8,0,2,,,,,,,0,,,,64,127
46792,note_off,,232,0,2,,,,,,,0,,,,74,64
46792,note_off,,0,0,2,,,,,,,0,,,,71,64
46792,note_off,,0,0,2,,,,,,,0,,,,64,64
46800,note_on,,8,0,2,,,,,,,0,,,,64,127
46800,note_on,,0,0,2,,,,,,,0,,,,71,127
46800,note_on,,0,0,2,,,,,,,0,,,,74,127
47032,note_off,,232,0,2,,,,,,,0,,,,74,64
47032,note_off,,0,0,2,,,,,,,0,,,,64,64
47032,note_off,,0,0,2,,,,,,,0,,,,71,64
47032,note_off,,472,0,3,,,,,,,2,,,,52,64
47040,note_on,,8,0,2,,,,,,,0,,,,64,127
47040,note_on,,0,0,2,,,,,,,0,,,,71,127
47272,note_off,,232,0,2,,,,,,,0,,,,71,64
47272,note_off,,0,0,2,,,,,,,0,,,,64,64
47280,note_on,,8,0,2,,,,,,,0,,,,64,127
47280,note_on,,0,0,2,,,,,,,0,,,,71,127
47512,note_off,,1432,0,4,,,,,,,1,,,,68,64
47512,note_off,,232,0,2,,,,,,,0,,,,71,64
47512,note_off,,0,0,2,,,,,,,0,,,,64,64
47512,note_off,,1432,0,1,,,,,,,3,,,,68,64
47520,note_on,,488,0,3,,,,,,,2,,,,40,127
47520,note_on,,0,0,2,,,,,,,0,,,,68,127
47520,note_on,,0,0,2,,,,,,,0,,,,64,127
47520,note_on,,8,0,2,,,,,,,0,,,,62,127
47520,note_on,,8,0,1,,,,,,,3,,,,69,127
47520,note_on,,8,0,4,,,,,,,1,,,,69,127
47752,note_off,,232,0,2,,,,,,,0,,,,68,64
47752,note_off,,232,0,4,,,,,,,1,,,,69,64
47752,note_off,,232,0,1,,,,,,,3,,,,69,64
47752,note_off,,0,0,2,,,,,,,0,,,,62,64
47752,note_off,,0,0,2,,,,,,,0,,,,64,64
47760,note_on,,8,0,4,,,,,,,1,,,,71,127
47760,note_on,,8,0,1,,,,,,,3,,,,71,127
47760,note_on,,0,0,2,,,,,,,0,,,,68,127
47760,note_on,,0,0,2,,,,,,,0,,,,64,127
47760,note_on,,8,0,2,,,,,,,0,,,,62,127
47872,note_off,,352,0,3,,,,,,,2,,,,40,64
47880,note_on,,8,0,3,,,,,,,2,,,,40,127
47992,note_off,,0,0,2,,,,,,,0,,,,62,64
47992,note_off,,0,0,2,,,,,,,0,,,,64,64
47992,note_off,,232,0,2,,,,,,,0,,,,68,64
47992,note_off,,112,0,3,,,,,,,2,,,,40,64
47992,note_off,,232,0,1,,,,,,,3,,,,71,64
47992,note_off,,232,0,4,,,,,,,1,,,,71,64
48000,note_on,,8,0,3,,,,,,,2,,,,45,127
48000,note_on,,8,0,1,,,,,,,3,,,,69,127
48000,note_on,,8,0,2,,,,,,,0,,,,61,127
48000,note_on,,0,0,2,,,,,,,0,,,,64,127
48000,note_on,,0,0,2,,,,,,,0,,,,69,127
48000,note_on,,8,0,4,,,,,,,1,,,,69,127
48232,note_off,,0,0,2,,,,,,,0,,,,61,64
48232,note_off,,0,0,2,,,,,,,0,,,,64,64
48232,note_off,,232,0,2,,,,,,,0,,,,69,64
48240,note_on,,8,0,2,,,,,,,0,,,,61,127
48240,note_on,,0,0,2,,,,,,,0,,,,64,127
48240,note_on,,0,0,2,,,,,,,0,,,,69,127
48472,note_off,,0,0,2,,,,,,,0,,,,64,64
48472,note_off,,232,0,2,,,,,,,0,,,,69,64
48472,note_off,,0,0,2,,,,,,,0,,,,61,64
48472,note_off,,472,0,3,,,,,,,2,,,,45,64
48480,note_on,,8,0,3,,,,,,,2,,,,40,127
48480,note_on,,0,0,2,,,,,,,0,,,,64,127
48480,note_on,,8,0,2,,,,,,,0,,,,61,127
48480,note_on,,0,0,2,,,,,,,0,,,,69,127
48712,note_off,,0,0,2,,,,,,,0,,,,64,64
48712,note_off,,0,0,2,,,,,,,0,,,,61,64
48712,note_off,,232,0,2,,,,,,,0,,,,69,64
48720,note_on,,8,0,2,,,,,,,0,,,,61,127
48720,note_on,,0,0,2,,,,,,,0,,,,64,127
48720,note_on,,0,0,2,,,,,,,0,,,,69,127
48952,note_off,,472,0,3,,,,,,,2,,,,40,64
48952,note_off,,232,0,2,,,,,,,0,,,,69,64
48952,note_off,,0,0,2,,,,,,,0,,,,64,64
48952,note_off,,0,0,2,,,,,,,0,,,,61,64
48960,note_on,,8,0,2,,,,,,,0,,,,61,127
48960,note_on,,0,0,2,,,,,,,0,,,,64,127
48960,note_on,,0,0,2,,,,,,,0,,,,69,127
49192,note_off,,232,0,2,,,,,,,0,,,,69,64
49192,note_off,,0,0,2,,,,,,,0,,,,61,64
49192,note_off,,0,0,2,,,,,,,0,,,,64,64
49200,note_on,,8,0,2,,,,,,,0,,,,61,127
49200,note_on,,0,0,2,,,,,,,0,,,,64,127
49200,note_on,,0,0,2,,,,,,,0,,,,69,127
49432,note_off,,232,0,2,,,,,,,0,,,,69,64
49432,note_off,,0,0,2,,,,,,,0,,,,64,64
49432,note_off,,0,0,2,,,,,,,0,,,,61,64
49432,note_off,,1432,0,4,,,,,,,1,,,,69,64
49432,note_off,,1432,0,1,,,,,,,3,,,,69,64
49440,note_on,,0,0,2,,,,,,,0,,,,69,127
49440,note_on,,8,0,2,,,,,,,0,,,,61,127
49440,note_on,,0,0,2,,,,,,,0,,,,64,127
49440,note_on,,488,0,3,,,,,,,2,,,,45,127
49672,note_off,,0,0,2,,,,,,,0,,,,61,64
49672,note_off,,0,0,2,,,,,,,0,,,,64,64
49672,note_off,,232,0,2,,,,,,,0,,,,69,64
49680,note_on,,8,0,2,,,,,,,0,,,,61,127
49680,note_on,,0,0,2,,,,,,,0,,,,64,127
49680,note_on,,0,0,2,,,,,,,0,,,,69,127
49792,note_off,,352,0,3,,,,,,,2,,,,45,64
49800,note_on,,8,0,3,,,,,,,2,,,,45,127
49912,note_off,,0,0,2,,,,,,,0,,,,64,64
49912,note_off,,112,0,3,,,,,,,2,,,,45,64
49912,note_off,,0,0,2,,,,,,,0,,,,61,64
49912,note_off,,232,0,2,,,,,,,0,,,,69,64
49920,note_on,,8,0,2,,,,,,,0,,,,62,127
49920,note_on,,0,0,2,,,,,,,0,,,,69,127
49920,note_on,,0,0,2,,,,,,,0,,,,64,127
49920,note_on,,8,0,3,,,,,,,2,,,,47,127
50152,note_off,,232,0,2,,,,,,,0,,,,69,64
50152,note_off,,0,0,2,,,,,,,0,,,,64,64
50152,note_off,,0,0,2,,,,,,,0,,,,62,64
50160,note_on,,8,0,2,,,,,,,0,,,,62,127
50160,note_on,,0,0,2,,,,,,,0,,,,64,127
50160,note_on,,0,0,2,,,,,,,0,,,,69,127
50392,note_off,,0,0,2,,,,,,,0,,,,64,64
50392,note_off,,472,0,3,,,,,,,2,,,,47,64
50392,note_off,,232,0,2,,,,,,,0,,,,69,64
50392,note_off,,0,0,2,,,,,,,0,,,,62,64
50400,note_on,,8,0,3,,,,,,,2,,,,40,127
50400,note_on,,8,0,2,,,,,,,0,,,,62,127
50400,note_on,,0,0,2,,,,,,,0,,,,64,127
50400,note_on,,0,0,2,,,,,,,0,,,,68,127
50632,note_off,,232,0,2,,,,,,,0,,,,68,64
50632,note_off,,0,0,2,,,,,,,0,,,,64,64
50632,note_off,,0,0,2,,,,,,,0,,,,62,64
50640,note_on,,8,0,2,,,,,,,0,,,,62,127
50640,note_on,,0,0,2,,,,,,,0,,,,64,127
50640,note_on,,0,0,2,,,,,,,0,,,,68,127
50872,note_off,,0,0,2,,,,,,,0,,,,62,64
50872,note_off,,232,0,2,,,,,,,0,,,,68,64
50872,note_off,,472,0,3,,,,,,,2,,,,40,64
50872,note_off,,0,0,2,,,,,,,0,,,,64,64
50880,note_on,,0,0,2,,,,,,,0,,,,64,127
50880,note_on,,0,0,2,,,,,,,0,,,,68,127
50880,note_on,,8,0,2,,,,,,,0,,,,62,127
51112,note_off,,0,0,2,,,,,,,0,,,,62,64
51112,note_off,,0,0,2,,,,,,,0,,,,64,64
51112,note_off,,232,0,2,,,,,,,0,,,,68,64
51120,note_on,,0,0,2,,,,,,,0,,,,68,127
51120,note_on,,0,0,2,,,,,,,0,,,,64,127
51120,note_on,,8,0,2,,,,,,,0,,,,62,127
51352,note_off,,232,0,2,,,,,,,0,,,,68,64
51352,note_off,,0,0,2,,,,,,,0,,,,62,64
51352,note_off,,0,0,2,,,,,,,0,,,,64,64
51360,note_on,,0,0,2,,,,,,,0,,,,68,127
51360,note_on,,8,0,2,,,,,,,0,,,,62,127
51360,note_on,,0,0,2,,,,,,,0,,,,64,127
51360,note_on,,488,0,3,,,,,,,2,,,,47,127
51592,note_off,,0,0,2,,,,,,,0,,,,62,64
51592,note_off,,232,0,2,,,,,,,0,,,,68,64
51592,note_off,,0,0,2,,,,,,,0,,,,64,64
51600,note_on,,8,0,2,,,,,,,0,,,,62,127
51600,note_on,,0,0,2,,,,,,,0,,,,64,127
51600,note_on,,0,0,2,,,,,,,0,,,,68,127
51712,note_off,,352,0,3,,,,,,,2,,,,47,64
51720,note_on,,8,0,3,,,,,,,2,,,,47,127
51832,note_off,,232,0,2,,,,,,,0,,,,68,64
51832,note_off,,0,0,2,,,,,,,0,,,,64,64
51832,note_off,,0,0,2,,,,,,,0,,,,62,64
51832,note_off,,112,0,3,,,,,,,2,,,,47,64
51840,note_on,,8,0,2,,,,,,,0,,,,64,127
51840,note_on,,0,0,2,,,,,,,0,,,,67,127
51840,note_on,,0,0,2,,,,,,,0,,,,70,127
51840,note_on,,8,0,3,,,,,,,2,,,,49,127
52072,note_off,,0,0,2,,,,,,,0,,,,67,64
52072,note_off,,232,0,2,,,,,,,0,,,,70,64
52072,note_off,,0,0,2,,,,,,,0,,,,64,64
52080,note_on,,0,0,2,,,,,,,0,,,,70,127
52080,note_on,,0,0,2,,,,,,,0,,,,67,127
52080,note_on,,8,0,2,,,,,,,0,,,,64,127
52312,note_off,,472,0,3,,,,,,,2,,,,49,64
52312,note_off,,0,0,2,,,,,,,0,,,,64,64
52312,note_off,,0,0,2,,,,,,,0,,,,67,64
52312,note_off,,232,0,2,,,,,,,0,,,,70,64
52320,note_on,,0,0,2,,,,,,,0,,,,70,127
52320,note_on,,0,0,2,,,,,,,0,,,,67,127
52320,note_on,,8,0,2,,,,,,,0,,,,64,127
52320,note_on,,8,0,3,,,,,,,2,,,,40,127
52552,note_off,,232,0,2,,,,,,,0,,,,70,64
52552,note_off,,0,0,2,,,,,,,0,,,,64,64
52552,note_off,,0,0,2,,,,,,,0,,,,67,64
52560,note_on,,8,0,2,,,,,,,0,,,,64,127
52560,note_on,,0,0,2,,,,,,,0,,,,67,127
52560,note_on,,0,0,2,,,,,,,0,,,,70,127
52672,note_off,,352,0,3,,,,,,,2,,,,40,64
52680,note_on,,8,0,3,,,,,,,2,,,,40,127
52792,note_off,,0,0,2,,,,,,,0,,,,67,64
52792,note_off,,0,0,2,,,,,,,0,,,,64,64
52792,note_off,,112,0,3,,,,,,,2,,,,40,64
52792,note_off,,232,0,2,,,,,,,0,,,,70,64
52800,note_on,,8,0,2,,,,,,,0,,,,62,127
52800,note_on,,8,0,3,,,,,,,2,,,,50,127
52800,note_on,,0,0,2,,,,,,,0,,,,66,127
52800,note_on,,0,0,2,,,,,,,0,,,,71,127
53032,note_off,,0,0,2,,,,,,,0,,,,62,64
53032,note_off,,0,0,2,,,,,,,0,,,,66,64
53032,note_off,,232,0,2,,,,,,,0,,,,71,64
53040,note_on,,0,0,2,,,,,,,0,,,,71,127
53040,note_on,,0,0,2,,,,,,,0,,,,66,127
53040,note_on,,8,0,2,,,,,,,0,,,,62,127
53272,note_off,,232,0,2,,,,,,,0,,,,71,64
53272,note_off,,0,0,2,,,,,,,0,,,,66,64
53272,note_off,,472,0,3,,,,,,,2,,,,50,64
53272,note_off,,0,0,2,,,,,,,0,,,,62,64
53280,note_on,,8,0,3,,,,,,,2,,,,40,127
53280,note_on,,0,0,2,,,,,,,0,,,,71,127
53280,note_on,,0,0,2,,,,,,,0,,,,74,127
53280,note_on,,8,0,2,,,,,,,0,,,,66,127
53512,note_off,,0,0,2,,,,,,,0,,,,71,64
53512,note_off,,0,0,2,,,,,,,0,,,,66,64
53512,note_off,,232,0,2,,,,,,,0,,,,74,64
53520,note_on,,0,0,2,,,,,,,0,,,,71,127
53520,note_on,,0,0,2,,,,,,,0,,,,74,127
53520,note_on,,8,0,2,,,,,,,0,,,,66,127
53632,note_off,,352,0,3,,,,,,,2,,,,40,64
53640,note_on,,8,0,3,,,,,,,2,,,,40,127
53752,note_off,,112,0,3,,,,,,,2,,,,40,64
53752,note_off,,232,0,2,,,,,,,0,,,,74,64
53752,note_off,,0,0,2,,,,,,,0,,,,71,64
53752,note_off,,0,0,2,,,,,,,0,,,,66,64
53760,note_on,,8,0,3,,,,,,,2,,,,52,127
53760,note_on,,8,0,2,,,,,,,0,,,,64,127
53760,note_on,,0,0,2,,,,,,,0,,,,73,127
53760,note_on,,0,0,2,,,,,,,0,,,,71,127
53992,note_off,,232,0,2,,,,,,,0,,,,73,64
53992,note_off,,0,0,2,,,,,,,0,,,,71,64
53992,note_off,,0,0,2,,,,,,,0,,,,64,64
54000,note_on,,0,0,2,,,,,,,0,,,,73,127
54000,note_on,,8,0,2,,,,,,,0,,,,64,127
54000,note_on,,0,0,2,,,,,,,0,,,,71,127
54232,note_off,,0,0,2,,,,,,,0,,,,64,64
54232,note_off,,0,0,2,,,,,,,0,,,,71,64
54232,note_off,,472,0,3,,,,,,,2,,,,52,64
54232,note_off,,232,0,2,,,,,,,0,,,,73,64
54240,note_on,,0,0,2,,,,,,,0,,,,73,127
54240,note_on,,0,0,2,,,,,,,0,,,,69,127
54240,note_on,,8,0,2,,,,,,,0,,,,64,127
54240,note_on,,8,0,3,,,,,,,2,,,,40,127
54472,note_off,,0,0,2,,,,,,,0,,,,64,64
54472,note_off,,0,0,2,,,,,,,0,,,,69,64
54472,note_off,,232,0,2,,,,,,,0,,,,73,64
54480,note_on,,0,0,2,,,,,,,0,,,,73,127
54480,note_on,,0,0,2,,,,,,,0,,,,69,127
54480,note_on,,8,0,2,,,,,,,0,,,,64,127
54712,note_off,,0,0,2,,,,,,,0,,,,64,64
54712,note_off,,0,0,2,,,,,,,0,,,,69,64
54712,note_off,,232,0,2,,,,,,,0,,,,73,64
54712,note_off,,472,0,3,,,,,,,2,,,,40,64
54720,note_on,,0,0,2,,,,,,,0,,,,71,127
54720,note_on,,0,0,2,,,,,,,0,,,,69,127
54720,note_on,,8,0,2,,,,,,,0,,,,64,127
54720,note_on,,8,0,3,,,,,,,2,,,,52,127
54952,note_off,,0,0,2,,,,,,,0,,,,64,64
54952,note_off,,0,0,2,,,,,,,0,,,,69,64
54952,note_off,,232,0,2,,,,,,,0,,,,71,64
54960,note_on,,0,0,2,,,,,,,0,,,,71,127
54960,note_on,,0,0,2,,,,,,,0,,,,69,127
54960,note_on,,8,0,2,,,,,,,0,,,,64,127
55192,note_off,,472,0,3,,,,,,,2,,,,52,64
55192,note_off,,0,0,2,,,,,,,0,,,,64,64
55192,note_off,,0,0,2,,,,,,,0,,,,69,64
55192,note_off,,232,0,2,,,,,,,0,,,,71,64
55200,note_on,,8,0,3,,,,,,,2,,,,40,127
55200,note_on,,0,0,2,,,,,,,0,,,,71,127
55200,note_on,,0,0,2,,,,,,,0,,,,68,127
55200,note_on,,8,0,2,,,,,,,0,,,,64,127
55432,note_off,,232,0,2,,,,,,,0,,,,71,64
55432,note_off,,0,0,2,,,,,,,0,,,,64,64
55432,note_off,,0,0,2,,,,,,,0,,,,68,64
55440,note_on,,0,0,2,,,,,,,0,,,,71,127
55440,note_on,,0,0,2,,,,,,,0,,,,68,127
55440,note_on,,8,0,2,,,,,,,0,,,,64,127
55552,note_off,,352,0,3,,,,,,,2,,,,40,64
55560,note_on,,8,0,3,,,,,,,2,,,,40,127
55672,note_off,,0,0,2,,,,,,,0,,,,68,64
55672,note_off,,232,0,2,,,,,,,0,,,,71,64
55672,note_off,,112,0,3,,,,,,,2,,,,40,64
55672,note_off,,0,0,2,,,,,,,0,,,,64,64
55680,note_on,,8,0,2,,,,,,,0,,,,61,127
55680,note_on,,0,0,2,,,,,,,0,,,,69,127
55680,note_on,,8,0,3,,,,,,,2,,,,45,127
55680,note_on,,0,0,1,,,,,,,3,,,,73,127
55680,program_change,,6248,0,1,,,,,,,3,,,42,,
55680,note_on,,0,0,4,,,,,,,1,,,,73,127
55680,program_change,,6248,0,4,,,,,,,1,,,42,,
55680,note_on,,0,0,2,,,,,,,0,,,,64,127
55912,note_off,,0,0,2,,,,,,,0,,,,61,64
55912,note_off,,0,0,2,,,,,,,0,,,,64,64
55912,note_off,,232,0,2,,,,,,,0,,,,69,64
55920,note_on,,8,0,2,,,,,,,0,,,,61,127
55920,note_on,,0,0,2,,,,,,,0,,,,64,127
55920,note_on,,0,0,2,,,,,,,0,,,,69,127
56152,note_off,,472,0,3,,,,,,,2,,,,45,64
56152,note_off,,232,0,2,,,,,,,0,,,,69,64
56152,note_off,,0,0,2,,,,,,,0,,,,64,64
56152,note_off,,0,0,2,,,,,,,0,,,,61,64
56160,note_on,,8,0,3,,,,,,,2,,,,40,127
56160,note_on,,0,0,2,,,,,,,0,,,,69,127
56160,note_on,,8,0,2,,,,,,,0,,,,61,127
56160,note_on,,0,0,2,,,,,,,0,,,,64,127
56392,note_off,,232,0,2,,,,,,,0,,,,69,64
56392,note_off,,0,0,2,,,,,,,0,,,,64,64
56392,note_off,,0,0,2,,,,,,,0,,,,61,64
56400,note_on,,0,0,2,,,,,,,0,,,,69,127
56400,note_on,,8,0,2,,,,,,,0,,,,61,127
56400,note_on,,0,0,2,,,,,,,0,,,,64,127
56632,note_off,,0,0,2,,,,,,,0,,,,61,64
56632,note_off,,0,0,2,,,,,,,0,,,,64,64
56632,note_off,,232,0,2,,,,,,,0,,,,69,64
56632,note_off,,472,0,3,,,,,,,2,,,,40,64
56640,note_on,,0,0,2,,,,,,,0,,,,64,127
56640,note_on,,0,0,2,,,,,,,0,,,,69,127
56640,note_on,,8,0,2,,,,,,,0,,,,61,127
56872,note_off,,232,0,2,,,,,,,0,,,,69,64
56872,note_off,,0,0,2,,,,,,,0,,,,64,64
56872,note_off,,0,0,2,,,,,,,0,,,,61,64
56880,note_on,,8,0,2,,,,,,,0,,,,61,127
56880,note_on,,0,0,2,,,,,,,0,,,,69,127
56880,note_on,,0,0,2,,,,,,,0,,,,64,127
57112,note_off,,1432,0,4,,,,,,,1,,,,73,64
57112,note_off,,232,0,2,,,,,,,0,,,,69,64
57112,note_off,,0,0,2,,,,,,,0,,,,64,64
57112,note_off,,0,0,2,,,,,,,0,,,,61,64
57112,note_off,,1432,0,1,,,,,,,3,,,,73,64
57120,note_on,,488,0,3,,,,,,,2,,,,45,127
57120,note_on,,8,0,1,,,,,,,3,,,,69,127
57120,note_on,,8,0,4,,,,,,,1,,,,69,127
57120,note_on,,0,0,2,,,,,,,0,,,,69,127
57120,note_on,,0,0,2,,,,,,,0,,,,64,127
57120,note_on,,8,0,2,,,,,,,0,,,,61,127
57352,note_off,,232,0,2,,,,,,,0,,,,69,64
57352,note_off,,0,0,2,,,,,,,0,,,,61,64
57352,note_off,,0,0,2,,,,,,,0,,,,64,64
57360,note_on,,8,0,2,,,,,,,0,,,,61,127
57360,note_on,,0,0,2,,,,,,,0,,,,69,127
57360,note_on,,0,0,2,,,,,,,0,,,,64,127
57472,note_off,,352,0,3,,,,,,,2,,,,45,64
57480,note_on,,8,0,3,,,,,,,2,,,,45,127
57592,note_off,,0,0,2,,,,,,,0,,,,64,64
57592,note_off,,112,0,3,,,,,,,2,,,,45,64
57592,note_off,,232,0,2,,,,,,,0,,,,69,64
57592,note_off,,472,0,1,,,,,,,3,,,,69,64
57592,note_off,,472,0,4,,,,,,,1,,,,69,64
57592,note_off,,0,0,2,,,,,,,0,,,,61,64
57600,note_on,,8,0,3,,,,,,,2,,,,47,127
57600,note_on,,8,0,1,,,,,,,3,,,,69,127
57600,note_on,,8,0,2,,,,,,,0,,,,62,127
57600,note_on,,8,0,4,,,,,,,1,,,,69,127
57600,note_on,,0,0,2,,,,,,,0,,,,64,127
57600,note_on,,0,0,2,,,,,,,0,,,,69,127
57832,note_off,,232,0,2,,,,,,,0,,,,69,64
57832,note_off,,0,0,2,,,,,,,0,,,,64,64
57832,note_off,,0,0,2,,,,,,,0,,,,62,64
57840,note_on,,0,0,2,,,,,,,0,,,,64,127
57840,note_on,,0,0,2,,,,,,,0,,,,69,127
57840,note_on,,8,0,2,,,,,,,0,,,,62,127
58072,note_off,,472,0,3,,,,,,,2,,,,47,64
58072,note_off,,472,0,1,,,,,,,3,,,,69,64
58072,note_off,,0,0,2,,,,,,,0,,,,62,64
58072,note_off,,0,0,2,,,,,,,0,,,,64,64
58072,note_off,,232,0,2,,,,,,,0,,,,69,64
58072,note_off,,472,0,4,,,,,,,1,,,,69,64
58080,note_on,,8,0,4,,,,,,,1,,,,68,127
58080,note_on,,8,0,2,,,,,,,0,,,,62,127
58080,note_on,,8,0,3,,,,,,,2,,,,40,127
58080,note_on,,8,0,1,,,,,,,3,,,,68,127
58080,note_on,,0,0,2,,,,,,,0,,,,68,127
58080,note_on,,0,0,2,,,,,,,0,,,,64,127
58312,note_off,,232,0,2,,,,,,,0,,,,68,64
58312,note_off,,0,0,2,,,,,,,0,,,,64,64
58312,note_off,,0,0,2,,,,,,,0,,,,62,64
58320,note_on,,0,0,2,,,,,,,0,,,,68,127
58320,note_on,,0,0,2,,,,,,,0,,,,64,127
58320,note_on,,8,0,2,,,,,,,0,,,,62,127
58552,note_off,,0,0,2,,,,,,,0,,,,64,64
58552,note_off,,472,0,4,,,,,,,1,,,,68,64
58552,note_off,,0,0,2,,,,,,,0,,,,62,64
58552,note_off,,232,0,2,,,,,,,0,,,,68,64
58552,note_off,,472,0,1,,,,,,,3,,,,68,64
58552,note_off,,472,0,3,,,,,,,2,,,,40,64
58560,note_on,,0,0,2,,,,,,,0,,,,68,127
58560,note_on,,0,0,2,,,,,,,0,,,,64,127
58560,note_on,,8,0,2,,,,,,,0,,,,62,127
58792,note_off,,0,0,2,,,,,,,0,,,,64,64
58792,note_off,,232,0,2,,,,,,,0,,,,68,64
58792,note_off,,0,0,2,,,,,,,0,,,,62,64
58800,note_on,,8,0,2,,,,,,,0,,,,62,127
58800,note_on,,0,0,2,,,,,,,0,,,,64,127
58800,note_on,,0,0,2,,,,,,,0,,,,68,127
59032,note_off,,232,0,2,,,,,,,0,,,,68,64
59032,note_off,,0,0,2,,,,,,,0,,,,64,64
59032,note_off,,0,0,2,,,,,,,0,,,,62,64
59040,note_on,,0,0,2,,,,,,,0,,,,62,127
59040,note_on,,488,0,3,,,,,,,2,,,,47,127
59040,note_on,,0,0,2,,,,,,,0,,,,65,127
59040,note_on,,8,0,2,,,,,,,0,,,,59,127
59040,note_on,,0,0,2,,,,,,,0,,,,68,127
59272,note_off,,0,0,2,,,,,,,0,,,,65,64
59272,note_off,,232,0,2,,,,,,,0,,,,68,64
59272,note_off,,0,0,2,,,,,,,0,,,,62,64
59272,note_off,,0,0,2,,,,,,,0,,,,59,64
59280,note_on,,0,0,2,,,,,,,0,,,,68,127
59280,note_on,,8,0,2,,,,,,,0,,,,59,127
59280,note_on,,0,0,2,,,,,,,0,,,,62,127
59280,note_on,,0,0,2,,,,,,,0,,,,65,127
59392,note_off,,352,0,3,,,,,,,2,,,,47,64
59400,note_on,,8,0,3,,,,,,,2,,,,47,127
59512,note_off,,0,0,2,,,,,,,0,,,,59,64
59512,note_off,,0,0,2,,,,,,,0,,,,65,64
59512,note_off,,112,0,3,,,,,,,2,,,,47,64
59512,note_off,,0,0,2,,,,,,,0,,,,62,64
59512,note_off,,232,0,2,,,,,,,0,,,,68,64
59520,note_on,,8,0,3,,,,,,,2,,,,50,127
59520,note_on,,968,0,1,,,,,,,3,,,,69,127
59520,note_on,,968,0,4,,,,,,,1,,,,69,127
59520,note_on,,0,0,2,,,,,,,0,,,,62,127
59520,note_on,,8,0,2,,,,,,,0,,,,57,127
59520,note_on,,0,0,2,,,,,,,0,,,,66,127
59520,note_on,,0,0,2,,,,,,,0,,,,69,127
59752,note_off,,232,0,2,,,,,,,0,,,,69,64
59752,note_off,,0,0,2,,,,,,,0,,,,66,64
59752,note_off,,0,0,2,,,,,,,0,,,,62,64
59752,note_off,,0,0,2,,,,,,,0,,,,57,64
59760,note_on,,8,0,2,,,,,,,0,,,,57,127
59760,note_on,,0,0,2,,,,,,,0,,,,62,127
59760,note_on,,0,0,2,,,,,,,0,,,,66,127
59760,note_on,,0,0,2,,,,,,,0,,,,69,127
59992,note_off,,232,0,2,,,,,,,0,,,,69,64
59992,note_off,,0,0,2,,,,,,,0,,,,66,64
59992,note_off,,0,0,2,,,,,,,0,,,,62,64
59992,note_off,,0,0,2,,,,,,,0,,,,57,64
59992,note_off,,472,0,3,,,,,,,2,,,,50,64
60000,note_on,,8,0,3,,,,,,,2,,,,38,127
60000,note_on,,8,0,2,,,,,,,0,,,,57,127
60000,note_on,,0,0,2,,,,,,,0,,,,62,127
60000,note_on,,0,0,2,,,,,,,0,,,,66,127
60000,note_on,,0,0,2,,,,,,,0,,,,69,127
60232,note_off,,232,0,2,,,,,,,0,,,,69,64
60232,note_off,,0,0,2,,,,,,,0,,,,66,64
60232,note_off,,0,0,2,,,,,,,0,,,,62,64
60232,note_off,,0,0,2,,,,,,,0,,,,57,64
60240,note_on,,8,0,2,,,,,,,0,,,,57,127
60240,note_on,,0,0,2,,,,,,,0,,,,62,127
60240,note_on,,0,0,2,,,,,,,0,,,,69,127
60240,note_on,,0,0,2,,,,,,,0,,,,66,127
60472,note_off,,472,0,3,,,,,,,2,,,,38,64
60472,note_off,,232,0,2,,,,,,,0,,,,69,64
60472,note_off,,0,0,2,,,,,,,0,,,,66,64
60472,note_off,,0,0,2,,,,,,,0,,,,62,64
60472,note_off,,0,0,2,,,,,,,0,,,,57,64
60480,note_on,,8,0,2,,,,,,,0,,,,57,127
60480,note_on,,0,0,2,,,,,,,0,,,,62,127
60480,note_on,,0,0,2,,,,,,,0,,,,66,127
60480,note_on,,0,0,2,,,,,,,0,,,,69,127
60712,note_off,,0,0,2,,,,,,,0,,,,57,64
60712,note_off,,0,0,2,,,,,,,0,,,,62,64
60712,note_off,,232,0,2,,,,,,,0,,,,69,64
60712,note_off,,0,0,2,,,,,,,0,,,,66,64
60720,note_on,,0,0,2,,,,,,,0,,,,69,127
60720,note_on,,8,0,2,,,,,,,0,,,,57,127
60720,note_on,,0,0,2,,,,,,,0,,,,62,127
60720,note_on,,0,0,2,,,,,,,0,,,,66,127
60952,note_off,,0,0,2,,,,,,,0,,,,62,64
60952,note_off,,1432,0,4,,,,,,,1,,,,69,64
60952,note_off,,0,0,2,,,,,,,0,,,,57,64
60952,note_off,,232,0,2,,,,,,,0,,,,69,64
60952,note_off,,0,0,2,,,,,,,0,,,,66,64
60952,note_off,,1432,0,1,,,,,,,3,,,,69,64
60960,note_on,,0,0,2,,,,,,,0,,,,62,127
60960,note_on,,8,0,2,,,,,,,0,,,,57,127
60960,note_on,,0,0,2,,,,,,,0,,,,66,127
60960,note_on,,488,0,3,,,,,,,2,,,,42,127
60960,note_on,,8,0,4,,,,,,,1,,,,66,127
60960,note_on,,8,0,1,,,,,,,3,,,,66,127
61192,note_off,,232,0,2,,,,,,,0,,,,66,64
61192,note_off,,0,0,2,,,,,,,0,,,,62,64
61192,note_off,,0,0,2,,,,,,,0,,,,57,64
61200,note_on,,0,0,2,,,,,,,0,,,,62,127
61200,note_on,,8,0,2,,,,,,,0,,,,57,127
61200,note_on,,0,0,2,,,,,,,0,,,,66,127
61312,note_off,,352,0,3,,,,,,,2,,,,42,64
61320,note_on,,8,0,3,,,,,,,2,,,,42,127
61432,note_off,,232,0,2,,,,,,,0,,,,66,64
61432,note_off,,472,0,4,,,,,,,1,,,,66,64
61432,note_off,,0,0,2,,,,,,,0,,,,57,64
61432,note_off,,472,0,1,,,,,,,3,,,,66,64
61432,note_off,,112,0,3,,,,,,,2,,,,42,64
61432,note_off,,0,0,2,,,,,,,0,,,,62,64
61440,note_on,,0,0,2,,,,,,,0,,,,62,127
61440,note_on,,8,0,1,,,,,,,3,,,,66,127
61440,note_on,,8,0,3,,,,,,,2,,,,45,127
61440,note_on,,0,0,2,,,,,,,0,,,,66,127
61440,note_on,,8,0,2,,,,,,,0,,,,57,127
61440,note_on,,8,0,4,,,,,,,1,,,,66,127
61672,note_off,,232,0,2,,,,,,,0,,,,66,64
61672,note_off,,0,0,2,,,,,,,0,,,,62,64
61672,note_off,,0,0,2,,,,,,,0,,,,57,64
61680,note_on,,8,0,2,,,,,,,0,,,,57,127
61680,note_on,,0,0,2,,,,,,,0,,,,62,127
61680,note_on,,0,0,2,,,,,,,0,,,,66,127
61912,note_off,,232,0,2,,,,,,,0,,,,66,64
61912,note_off,,0,0,2,,,,,,,0,,,,62,64
61912,note_off,,0,0,2,,,,,,,0,,,,57,64
61912,note_off,,472,0,1,,,,,,,3,,,,66,64
61912,note_off,,472,0,3,,,,,,,2,,,,45,64
61912,note_off,,472,0,4,,,,,,,1,,,,66,64
61920,note_on,,8,0,4,,,,,,,1,,,,64,127
61920,note_on,,8,0,2,,,,,,,0,,,,57,127
61920,note_on,,0,0,2,,,,,,,0,,,,61,127
61920,note_on,,8,0,1,,,,,,,3,,,,64,127
61920,note_on,,0,0,2,,,,,,,0,,,,64,127
61920,note_on,,8,0,3,,,,,,,2,,,,33,127
62152,note_off,,232,0,2,,,,,,,0,,,,64,64
62152,note_off,,0,0,2,,,,,,,0,,,,61,64
62152,note_off,,0,0,2,,,,,,,0,,,,57,64
62160,note_on,,0,0,2,,,,,,,0,,,,61,127
62160,note_on,,0,0,2,,,,,,,0,,,,64,127
62160,note_on,,8,0,2,,,,,,,0,,,,57,127
62392,note_off,,232,0,2,,,,,,,0,,,,64,64
62392,note_off,,0,0,2,,,,,,,0,,,,57,64
62392,note_off,,472,0,4,,,,,,,1,,,,64,64
62392,note_off,,472,0,3,,,,,,,2,,,,33,64
62392,note_off,,0,0,2,,,,,,,0,,,,61,64
62392,note_off,,472,0,1,,,,,,,3,,,,64,64
62400,note_on,,0,0,2,,,,,,,0,,,,61,127
62400,note_on,,8,0,2,,,,,,,0,,,,57,127
62400,note_on,,0,0,2,,,,,,,0,,,,64,127
62632,note_off,,232,0,2,,,,,,,0,,,,64,64
62632,note_off,,0,0,2,,,,,,,0,,,,57,64
62632,note_off,,0,0,2,,,,,,,0,,,,61,64
62640,note_on,,0,0,2,,,,,,,0,,,,61,127
62640,note_on,,0,0,2,,,,,,,0,,,,64,127
62640,note_on,,8,0,2,,,,,,,0,,,,57,127
62872,note_off,,232,0,2,,,,,,,0,,,,64,64
62872,note_off,,0,0,2,,,,,,,0,,,,61,64
62872,note_off,,0,0,2,,,,,,,0,,,,57,64
62880,note_on,,488,0,1,,,,,,,3,,,,69,127
62880,note_on,,488,0,3,,,,,,,2,,,,49,127
62880,note_on,,488,0,4,,,,,,,1,,,,69,127
62880,note_on,,8,0,2,,,,,,,0,,,,57,127
62880,note_on,,0,0,2,,,,,,,0,,,,61,127
62880,note_on,,0,0,2,,,,,,,0,,,,64,127
63112,note_off,,232,0,2,,,,,,,0,,,,64,64
63112,note_off,,0,0,2,,,,,,,0,,,,61,64
63112,note_off,,0,0,2,,,,,,,0,,,,57,64
63120,note_on,,8,0,2,,,,,,,0,,,,57,127
63120,note_on,,0,0,2,,,,,,,0,,,,61,127
63120,note_on,,0,0,2,,,,,,,0,,,,64,127
63232,note_off,,352,0,3,,,,,,,2,,,,49,64
63240,note_on,,8,0,3,,,,,,,2,,,,49,127
63352,note_off,,112,0,3,,,,,,,2,,,,49,64
63352,note_off,,472,0,4,,,,,,,1,,,,69,64
63352,note_off,,472,0,1,,,,,,,3,,,,69,64
63352,note_off,,0,0,2,,,,,,,0,,,,57,64
63352,note_off,,0,0,2,,,,,,,0,,,,61,64
63352,note_off,,232,0,2,,,,,,,0,,,,64,64
63360,note_on,,0,0,2,,,,,,,0,,,,64,127
63360,note_on,,8,0,2,,,,,,,0,,,,56,127
63360,note_on,,8,0,4,,,,,,,1,,,,68,127
63360,note_on,,8,0,3,,,,,,,2,,,,52,127
63360,note_on,,8,0,1,,,,,,,3,,,,68,127
63360,note_on,,0,0,2,,,,,,,0,,,,59,127
63592,note_off,,232,0,2,,,,,,,0,,,,64,64
63592,note_off,,0,0,2,,,,,,,0,,,,59,64
63592,note_off,,0,0,2,,,,,,,0,,,,56,64
63600,note_on,,0,0,2,,,,,,,0,,,,59,127
63600,note_on,,0,0,2,,,,,,,0,,,,64,127
63600,note_on,,8,0,2,,,,,,,0,,,,56,127
63832,note_off,,472,0,4,,,,,,,1,,,,68,64
63832,note_off,,472,0,3,,,,,,,2,,,,52,64
63832,note_off,,472,0,1,,,,,,,3,,,,68,64
63832,note_off,,0,0,2,,,,,,,0,,,,59,64
63832,note_off,,232,0,2,,,,,,,0,,,,64,64
63832,note_off,,0,0,2,,,,,,,0,,,,56,64
63840,note_on,,8,0,1,,,,,,,3,,,,71,127
63840,note_on,,8,0,3,,,,,,,2,,,,50,127
63840,note_on,,0,0,2,,,,,,,0,,,,64,127
63840,note_on,,0,0,2,,,,,,,0,,,,59,127
63840,note_on,,8,0,4,,,,,,,1,,,,71,127
63840,note_on,,8,0,2,,,,,,,0,,,,56,127
64072,note_off,,0,0,2,,,,,,,0,,,,56,64
64072,note_off,,0,0,2,,,,,,,0,,,,59,64
64072,note_off,,232,0,2,,,,,,,0,,,,64,64
64080,note_on,,8,0,2,,,,,,,0,,,,56,127
64080,note_on,,0,0,2,,,,,,,0,,,,59,127
64080,note_on,,0,0,2,,,,,,,0,,,,64,127
64312,note_off,,0,0,2,,,,,,,0,,,,56,64
64312,note_off,,472,0,3,,,,,,,2,,,,50,64
64312,note_off,,472,0,4,,,,,,,1,,,,71,64
64312,note_off,,472,0,1,,,,,,,3,,,,71,64
64312,note_off,,232,0,2,,,,,,,0,,,,64,64
64312,note_off,,0,0,2,,,,,,,0,,,,59,64
64320,note_on,,8,0,4,,,,,,,1,,,,69,127
64320,note_on,,8,0,1,,,,,,,3,,,,69,127
64320,note_on,,8,0,2,,,,,,,0,,,,57,127
64320,note_on,,0,0,2,,,,,,,0,,,,61,127
64320,note_on,,0,0,2,,,,,,,0,,,,64,127
64320,note_on,,8,0,3,,,,,,,2,,,,49,127
64552,note_off,,232,0,2,,,,,,,0,,,,64,64
64552,note_off,,0,0,2,,,,,,,0,,,,61,64
64552,note_off,,0,0,2,,,,,,,0,,,,57,64
64560,note_on,,0,0,2,,,,,,,0,,,,64,127
64560,note_on,,0,0,2,,,,,,,0,,,,61,127
64560,note_on,,8,0,2,,,,,,,0,,,,57,127
64792,note_off,,472,0,4,,,,,,,1,,,,69,64
64792,note_off,,232,0,2,,,,,,,0,,,,64,64
64792,note_off,,472,0,1,,,,,,,3,,,,69,64
64792,note_off,,472,0,3,,,,,,,2,,,,49,64
64792,note_off,,0,0,2,,,,,,,0,,,,57,64
64792,note_off,,0,0,2,,,,,,,0,,,,61,64
64800,note_on,,0,0,2,,,,,,,0,,,,64,127
64800,note_on,,8,0,2,,,,,,,0,,,,57,127
64800,note_on,,8,0,3,,,,,,,2,,,,45,127
64800,note_on,,8,0,1,,,,,,,3,,,,73,127
64800,note_on,,8,0,4,,,,,,,1,,,,73,127
64800,note_on,,0,0,2,,,,,,,0,,,,61,127
65032,note_off,,232,0,2,,,,,,,0,,,,64,64
65032,note_off,,0,0,2,,,,,,,0,,,,61,64
65032,note_off,,0,0,2,,,,,,,0,,,,57,64
65040,note_on,,8,0,2,,,,,,,0,,,,57,127
65040,note_on,,0,0,2,,,,,,,0,,,,61,127
65040,note_on,,0,0,2,,,,,,,0,,,,64,127
65272,note_off,,472,0,3,,,,,,,2,,,,45,64
65272,note_off,,472,0,1,,,,,,,3,,,,73,64
65272,note_off,,0,0,2,,,,,,,0,,,,57,64
65272,note_off,,0,0,2,,,,,,,0,,,,61,64
65272,note_off,,232,0,2,,,,,,,0,,,,64,64
65272,note_off,,472,0,4,,,,,,,1,,,,73,64
65280,note_on,,0,0,2,,,,,,,0,,,,62,127
65280,note_on,,8,0,3,,,,,,,2,,,,40,127
65280,note_on,,0,0,2,,,,,,,0,,,,59,127
65280,note_on,,8,0,4,,,,,,,1,,,,76,127
65280,note_on,,8,0,2,,,,,,,0,,,,57,127
65280,note_on,,8,0,1,,,,,,,3,,,,76,127
65280,note_on,,0,0,2,,,,,,,0,,,,64,127
65512,note_off,,0,0,2,,,,,,,0,,,,57,64
65512,note_off,,232,0,2,,,,,,,0,,,,64,64
65512,note_off,,0,0,2,,,,,,,0,,,,62,64
65512,note_off,,0,0,2,,,,,,,0,,,,59,64
65520,note_on,,0,0,2,,,,,,,0,,,,62,127
65520,note_on,,0,0,2,,,,,,,0,,,,59,127
65520,note_on,,8,0,2,,,,,,,0,,,,57,127
65520,note_on,,0,0,2,,,,,,,0,,,,64,127
65752,note_off,,232,0,2,,,,,,,0,,,,64,64
65752,note_off,,0,0,2,,,,,,,0,,,,57,64
65752,note_off,,0,0,2,,,,,,,0,,,,62,64
65752,note_off,,0,0,2,,,,,,,0,,,,59,64
65760,note_on,,8,0,2,,,,,,,0,,,,56,127
65760,note_on,,0,0,2,,,,,,,0,,,,59,127
65760,note_on,,0,0,2,,,,,,,0,,,,59,127
65760,note_on,,0,0,2,,,,,,,0,,,,62,127
65760,note_on,,0,0,2,,,,,,,0,,,,64,127
65992,note_off,,0,0,2,,,,,,,0,,,,62,64
65992,note_off,,232,0,2,,,,,,,0,,,,64,64
65992,note_off,,0,0,2,,,,,,,0,,,,59,64
65992,note_off,,0,0,2,,,,,,,0,,,,56,64
65992,note_off,,0,0,2,,,,,,,0,,,,59,64
66000,note_on,,0,0,2,,,,,,,0,,,,59,127
66000,note_on,,0,0,2,,,,,,,0,,,,62,127
66000,note_on,,0,0,2,,,,,,,0,,,,62,127
66000,note_on,,0,0,2,,,,,,,0,,,,62,127
66000,note_on,,0,0,2,,,,,,,0,,,,64,127
66000,note_on,,8,0,2,,,,,,,0,,,,56,127
66232,note_off,,0,0,2,,,,,,,0,,,,62,64
66232,note_off,,0,0,2,,,,,,,0,,,,59,64
66232,note_off,,0,0,2,,,,,,,0,,,,56,64
66232,note_off,,952,0,3,,,,,,,2,,,,40,64
66232,note_off,,232,0,2,,,,,,,0,,,,64,64
66232,note_off,,952,0,4,,,,,,,1,,,,76,64
66232,note_off,,0,0,2,,,,,,,0,,,,62,64
66232,note_off,,952,0,1,,,,,,,3,,,,76,64
66232,note_off,,0,0,2,,,,,,,0,,,,62,64
66240,note_on,,8,0,1,,,,,,,3,,,,73,127
66240,note_on,,8,0,4,,,,,,,1,,,,73,127
66240,note_on,,8,0,3,,,,,,,2,,,,45,127
66240,note_on,,8,0,2,,,,,,,0,,,,57,127
66240,note_on,,0,0,2,,,,,,,0,,,,61,127
66240,note_on,,0,0,2,,,,,,,0,,,,64,127
66472,note_off,,232,0,2,,,,,,,0,,,,64,64
66472,note_off,,0,0,2,,,,,,,0,,,,61,64
66472,note_off,,0,0,2,,,,,,,0,,,,57,64
66480,note_on,,0,0,2,,,,,,,0,,,,64,127
66480,note_on,,8,0,2,,,,,,,0,,,,57,127
66480,note_on,,0,0,2,,,,,,,0,,,,61,127
66712,note_off,,472,0,1,,,,,,,3,,,,73,64
66712,note_off,,472,0,4,,,,,,,1,,,,73,64
66712,note_off,,472,0,3,,,,,,,2,,,,45,64
66712,note_off,,0,0,2,,,,,,,0,,,,61,64
66712,note_off,,232,0,2,,,,,,,0,,,,64,64
66712,note_off,,0,0,2,,,,,,,0,,,,57,64
66720,note_on,,8,0,2,,,,,,,0,,,,57,127
66720,note_on,,0,0,2,,,,,,,0,,,,61,127
66720,note_on,,0,0,2,,,,,,,0,,,,64,127
66952,note_off,,232,0,2,,,,,,,0,,,,64,64
66952,note_off,,0,0,2,,,,,,,0,,,,61,64
66952,note_off,,0,0,2,,,,,,,0,,,,57,64
66960,note_on,,8,0,2,,,,,,,0,,,,57,127
66960,note_on,,0,0,2,,,,,,,0,,,,61,127
66960,note_on,,0,0,2,,,,,,,0,,,,64,127
67192,note_off,,0,0,2,,,,,,,0,,,,57,64
67192,note_off,,0,0,2,,,,,,,0,,,,61,64
67192,note_off,,232,0,2,,,,,,,0,,,,64,64
67200,note_on,,488,0,3,,,,,,,2,,,,76,127
67200,note_on,,0,0,2,,,,,,,0,,,,64,127
67200,note_on,,8,0,2,,,,,,,0,,,,57,127
67200,note_on,,0,0,2,,,,,,,0,,,,59,127
67200,note_on,,0,0,2,,,,,,,0,,,,62,127
67432,note_off,,0,0,2,,,,,,,0,,,,59,64
67432,note_off,,0,0,2,,,,,,,0,,,,57,64
67432,note_off,,232,0,2,,,,,,,0,,,,64,64
67432,note_off,,0,0,2,,,,,,,0,,,,62,64
67440,note_on,,0,0,2,,,,,,,0,,,,64,127
67440,note_on,,8,0,2,,,,,,,0,,,,57,127
67440,note_on,,0,0,2,,,,,,,0,,,,59,127
67440,note_on,,0,0,2,,,,,,,0,,,,62,127
67672,note_off,,0,0,2,,,,,,,0,,,,57,64
67672,note_off,,0,0,2,,,,,,,0,,,,59,64
67672,note_off,,232,0,2,,,,,,,0,,,,64,64
67672,note_off,,0,0,2,,,,,,,0,,,,62,64
67680,note_on,,8,0,2,,,,,,,0,,,,56,127
67680,note_on,,0,0,2,,,,,,,0,,,,59,127
67680,note_on,,0,0,2,,,,,,,0,,,,59,127
67680,note_on,,0,0,2,,,,,,,0,,,,62,127
67680,note_on,,0,0,2,,,,,,,0,,,,64,127
67912,note_off,,232,0,2,,,,,,,0,,,,64,64
67912,note_off,,0,0,2,,,,,,,0,,,,62,64
67912,note_off,,0,0,2,,,,,,,0,,,,59,64
67912,note_off,,0,0,2,,,,,,,0,,,,59,64
67912,note_off,,0,0,2,,,,,,,0,,,,56,64
67920,note_on,,0,0,2,,,,,,,0,,,,64,127
67920,note_on,,0,0,2,,,,,,,0,,,,62,127
67920,note_on,,0,0,2,,,,,,,0,,,,62,127
67920,note_on,,0,0,2,,,,,,,0,,,,59,127
67920,note_on,,0,0,2,,,,,,,0,,,,62,127
67920,note_on,,8,0,2,,,,,,,0,,,,56,127
68152,note_off,,0,0,2,,,,,,,0,,,,56,64
68152,note_off,,0,0,2,,,,,,,0,,,,59,64
68152,note_off,,0,0,2,,,,,,,0,,,,62,64
68152,note_off,,952,0,3,,,,,,,2,,,,76,64
68152,note_off,,0,0,2,,,,,,,0,,,,62,64
68152,note_off,,0,0,2,,,,,,,0,,,,62,64
68152,note_off,,232,0,2,,,,,,,0,,,,64,64
68160,note_on,,0,0,2,,,,,,,0,,,,64,127
68160,note_on,,0,0,2,,,,,,,0,,,,61,127
68160,note_on,,8,0,2,,,,,,,0,,,,57,127
68160,note_on,,8,0,3,,,,,,,2,,,,73,127
68392,note_off,,232,0,2,,,,,,,0,,,,64,64
68392,note_off,,0,0,2,,,,,,,0,,,,61,64
68392,note_off,,0,0,2,,,,,,,0,,,,57,64
68400,note_on,,8,0,2,,,,,,,0,,,,57,127
68400,note_on,,0,0,2,,,,,,,0,,,,61,127
68400,note_on,,0,0,2,,,,,,,0,,,,64,127
68632,note_off,,0,0,2,,,,,,,0,,,,57,64
68632,note_off,,232,0,2,,,,,,,0,,,,64,64
68632,note_off,,0,0,2,,,,,,,0,,,,61,64
68632,note_off,,472,0,3,,,,,,,2,,,,73,64
68640,note_on,,0,0,2,,,,,,,0,,,,64,127
68640,note_on,,8,0,2,,,,,,,0,,,,61,127
68640,note_on,,0,0,2,,,,,,,0,,,,69,127
68872,note_off,,232,0,2,,,,,,,0,,,,69,64
68872,note_off,,0,0,2,,,,,,,0,,,,64,64
68872,note_off,,0,0,2,,,,,,,0,,,,61,64
68880,note_on,,8,0,2,,,,,,,0,,,,61,127
68880,note_on,,0,0,2,,,,,,,0,,,,64,127
68880,note_on,,0,0,2,,,,,,,0,,,,69,127
69112,note_off,,232,0,2,,,,,,,0,,,,69,64
69112,note_off,,0,0,2,,,,,,,0,,,,64,64
69112,note_off,,0,0,2,,,,,,,0,,,,61,64
69120,note_on,,2408,0,4,,,,,,,1,,,,76,127
69120,note_on,,2408,0,1,,,,,,,3,,,,76,127
69120,note_on,,8,0,2,,,,,,,0,,,,64,127
69120,note_on,,0,0,2,,,,,,,0,,,,68,127
69120,note_on,,488,0,3,,,,,,,2,,,,49,127
69120,note_on,,0,0,2,,,,,,,0,,,,73,127
69352,note_off,,0,0,2,,,,,,,0,,,,68,64
69352,note_off,,0,0,2,,,,,,,0,,,,64,64
69352,note_off,,232,0,2,,,,,,,0,,,,73,64
69360,note_on,,8,0,2,,,,,,,0,,,,64,127
69360,note_on,,0,0,2,,,,,,,0,,,,68,127
69360,note_on,,0,0,2,,,,,,,0,,,,73,127
69592,note_off,,232,0,2,,,,,,,0,,,,73,64
69592,note_off,,0,0,2,,,,,,,0,,,,68,64
69592,note_off,,0,0,2,,,,,,,0,,,,64,64
69592,note_off,,472,0,3,,,,,,,2,,,,49,64
69600,note_on,,8,0,2,,,,,,,0,,,,64,127
69600,note_on,,0,0,2,,,,,,,0,,,,68,127
69600,note_on,,0,0,2,,,,,,,0,,,,73,127
69600,note_on,,8,0,3,,,,,,,2,,,,44,127
69832,note_off,,232,0,2,,,,,,,0,,,,73,64
69832,note_off,,0,0,2,,,,,,,0,,,,64,64
69832,note_off,,0,0,2,,,,,,,0,,,,68,64
69840,note_on,,0,0,2,,,,,,,0,,,,68,127
69840,note_on,,0,0,2,,,,,,,0,,,,73,127
69840,note_on,,8,0,2,,,,,,,0,,,,64,127
70072,note_off,,472,0,3,,,,,,,2,,,,44,64
70072,note_off,,952,0,4,,,,,,,1,,,,76,64
70072,note_off,,952,0,1,,,,,,,3,,,,76,64
70072,note_off,,0,0,2,,,,,,,0,,,,64,64
70072,note_off,,232,0,2,,,,,,,0,,,,73,64
70072,note_off,,0,0,2,,,,,,,0,,,,68,64
70080,note_on,,8,0,2,,,,,,,0,,,,64,127
70080,note_on,,0,0,2,,,,,,,0,,,,68,127
70080,note_on,,0,0,2,,,,,,,0,,,,73,127
70312,note_off,,0,0,2,,,,,,,0,,,,64,64
70312,note_off,,232,0,2,,,,,,,0,,,,73,64
70312,note_off,,0,0,2,,,,,,,0,,,,68,64
70320,note_on,,8,0,2,,,,,,,0,,,,64,127
70320,note_on,,0,0,2,,,,,,,0,,,,68,127
70320,note_on,,0,0,2,,,,,,,0,,,,73,127
70552,note_off,,232,0,2,,,,,,,0,,,,73,64
70552,note_off,,0,0,2,,,,,,,0,,,,64,64
70552,note_off,,0,0,2,,,,,,,0,,,,68,64
70560,note_on,,488,0,3,,,,,,,2,,,,49,127
70560,note_on,,0,0,2,,,,,,,0,,,,68,127
70560,note_on,,8,0,2,,,,,,,0,,,,64,127
70560,note_on,,0,0,2,,,,,,,0,,,,73,127
70560,note_on,,488,0,4,,,,,,,1,,,,73,127
70560,note_on,,488,0,1,,,,,,,3,,,,73,127
70792,note_off,,232,0,2,,,,,,,0,,,,73,64
70792,note_off,,0,0,2,,,,,,,0,,,,68,64
70792,note_off,,0,0,2,,,,,,,0,,,,64,64
70800,note_on,,0,0,2,,,,,,,0,,,,73,127
70800,note_on,,8,0,2,,,,,,,0,,,,64,127
70800,note_on,,0,0,2,,,,,,,0,,,,68,127
70912,note_off,,352,0,3,,,,,,,2,,,,49,64
70920,note_on,,8,0,3,,,,,,,2,,,,49,127
71032,note_off,,0,0,2,,,,,,,0,,,,64,64
71032,note_off,,0,0,2,,,,,,,0,,,,68,64
71032,note_off,,232,0,2,,,,,,,0,,,,73,64
71032,note_off,,472,0,1,,,,,,,3,,,,73,64
71032,note_off,,472,0,4,,,,,,,1,,,,73,64
71032,note_off,,112,0,3,,,,,,,2,,,,49,64
71040,note_on,,8,0,1,,,,,,,3,,,,73,127
71040,note_on,,8,0,3,,,,,,,2,,,,51,127
71040,note_on,,8,0,4,,,,,,,1,,,,73,127
71040,note_on,,8,0,2,,,,,,,0,,,,66,127
71040,note_on,,0,0,2,,,,,,,0,,,,68,127
71040,note_on,,0,0,2,,,,,,,0,,,,73,127
71272,note_off,,232,0,2,,,,,,,0,,,,73,64
71272,note_off,,0,0,2,,,,,,,0,,,,68,64
71272,note_off,,0,0,2,,,,,,,0,,,,66,64
71280,note_on,,8,0,2,,,,,,,0,,,,66,127
71280,note_on,,0,0,2,,,,,,,0,,,,68,127
71280,note_on,,0,0,2,,,,,,,0,,,,73,127
71512,note_off,,472,0,4,,,,,,,1,,,,73,64
71512,note_off,,232,0,2,,,,,,,0,,,,73,64
71512,note_off,,0,0,2,,,,,,,0,,,,66,64
71512,note_off,,0,0,2,,,,,,,0,,,,68,64
71512,note_off,,472,0,3,,,,,,,2,,,,51,64
71512,note_off,,472,0,1,,,,,,,3,,,,73,64
71520,note_on,,8,0,2,,,,,,,0,,,,66,127
71520,note_on,,8,0,4,,,,,,,1,,,,72,127
71520,note_on,,8,0,3,,,,,,,2,,,,44,127
71520,note_on,,8,0,1,,,,,,,3,,,,72,127
71520,note_on,,0,0,2,,,,,,,0,,,,68,127
71520,note_on,,0,0,2,,,,,,,0,,,,72,127
71752,note_off,,0,0,2,,,,,,,0,,,,66,64
71752,note_off,,0,0,2,,,,,,,0,,,,68,64
71752,note_off,,232,0,2,,,,,,,0,,,,72,64
71760,note_on,,0,0,2,,,,,,,0,,,,68,127
71760,note_on,,0,0,2,,,,,,,0,,,,72,127
71760,note_on,,8,0,2,,,,,,,0,,,,66,127
71992,note_off,,472,0,1,,,,,,,3,,,,72,64
71992,note_off,,472,0,3,,,,,,,2,,,,44,64
71992,note_off,,0,0,2,,,,,,,0,,,,68,64
71992,note_off,,232,0,2,,,,,,,0,,,,72,64
71992,note_off,,472,0,4,,,,,,,1,,,,72,64
71992,note_off,,0,0,2,,,,,,,0,,,,66,64
72000,note_on,,0,0,2,,,,,,,0,,,,68,127
72000,note_on,,0,0,2,,,,,,,0,,,,72,127
72000,note_on,,8,0,2,,,,,,,0,,,,66,127
72232,note_off,,0,0,2,,,,,,,0,,,,66,64
72232,note_off,,0,0,2,,,,,,,0,,,,68,64
72232,note_off,,232,0,2,,,,,,,0,,,,72,64
72240,note_on,,8,0,2,,,,,,,0,,,,66,127
72240,note_on,,0,0,2,,,,,,,0,,,,72,127
72240,note_on,,0,0,2,,,,,,,0,,,,68,127
72472,note_off,,232,0,2,,,,,,,0,,,,72,64
72472,note_off,,0,0,2,,,,,,,0,,,,68,64
72472,note_off,,0,0,2,,,,,,,0,,,,66,64
72480,note_on,,488,0,4,,,,,,,1,,,,75,127
72480,note_on,,488,0,3,,,,,,,2,,,,52,127
72480,note_on,,488,0,1,,,,,,,3,,,,75,127
72480,note_on,,0,0,2,,,,,,,0,,,,73,127
72480,note_on,,0,0,2,,,,,,,0,,,,68,127
72480,note_on,,8,0,2,,,,,,,0,,,,64,127
72712,note_off,,0,0,2,,,,,,,0,,,,68,64
72712,note_off,,0,0,2,,,,,,,0,,,,64,64
72712,note_off,,232,0,4,,,,,,,1,,,,75,64
72712,note_off,,232,0,2,,,,,,,0,,,,73,64
72712,note_off,,232,0,1,,,,,,,3,,,,75,64
72720,note_on,,8,0,4,,,,,,,1,,,,73,127
72720,note_on,,8,0,1,,,,,,,3,,,,73,127
72720,note_on,,8,0,2,,,,,,,0,,,,64,127
72720,note_on,,0,0,2,,,,,,,0,,,,68,127
72720,note_on,,0,0,2,,,,,,,0,,,,73,127
72832,note_off,,352,0,3,,,,,,,2,,,,52,64
72840,note_on,,8,0,3,,,,,,,2,,,,52,127
72952,note_off,,0,0,2,,,,,,,0,,,,64,64
72952,note_off,,232,0,4,,,,,,,1,,,,73,64
72952,note_off,,112,0,3,,,,,,,2,,,,52,64
72952,note_off,,232,0,2,,,,,,,0,,,,73,64
72952,note_off,,0,0,2,,,,,,,0,,,,68,64
72952,note_off,,232,0,1,,,,,,,3,,,,73,64
72960,note_on,,8,0,4,,,,,,,1,,,,71,127
72960,note_on,,8,0,2,,,,,,,0,,,,63,127
72960,note_on,,0,0,2,,,,,,,0,,,,69,127
72960,note_on,,0,0,2,,,,,,,0,,,,71,127
72960,note_on,,8,0,1,,,,,,,3,,,,71,127
72960,note_on,,8,0,3,,,,,,,2,,,,54,127
73192,note_off,,232,0,2,,,,,,,0,,,,71,64
73192,note_off,,0,0,2,,,,,,,0,,,,69,64
73192,note_off,,0,0,2,,,,,,,0,,,,63,64
73200,note_on,,8,0,2,,,,,,,0,,,,63,127
73200,note_on,,0,0,2,,,,,,,0,,,,69,127
73200,note_on,,0,0,2,,,,,,,0,,,,71,127
73432,note_off,,472,0,3,,,,,,,2,,,,54,64
73432,note_off,,0,0,2,,,,,,,0,,,,63,64
73432,note_off,,0,0,2,,,,,,,0,,,,69,64
73432,note_off,,232,0,2,,,,,,,0,,,,71,64
73440,note_on,,8,0,3,,,,,,,2,,,,47,127
73440,note_on,,0,0,2,,,,,,,0,,,,71,127
73440,note_on,,0,0,2,,,,,,,0,,,,69,127
73440,note_on,,8,0,2,,,,,,,0,,,,63,127
73672,note_off,,232,0,2,,,,,,,0,,,,71,64
73672,note_off,,0,0,2,,,,,,,0,,,,69,64
73672,note_off,,0,0,2,,,,,,,0,,,,63,64
73680,note_on,,0,0,2,,,,,,,0,,,,69,127
73680,note_on,,8,0,2,,,,,,,0,,,,63,127
73680,note_on,,0,0,2,,,,,,,0,,,,71,127
73912,note_off,,232,0,2,,,,,,,0,,,,71,64
73912,note_off,,472,0,3,,,,,,,2,,,,47,64
73912,note_off,,0,0,2,,,,,,,0,,,,63,64
73912,note_off,,0,0,2,,,,,,,0,,,,69,64
73920,note_on,,8,0,2,,,,,,,0,,,,63,127
73920,note_on,,0,0,2,,,,,,,0,,,,71,127
73920,note_on,,0,0,2,,,,,,,0,,,,69,127
74152,note_off,,0,0,2,,,,,,,0,,,,69,64
74152,note_off,,0,0,2,,,,,,,0,,,,63,64
74152,note_off,,232,0,2,,,,,,,0,,,,71,64
74160,note_on,,0,0,2,,,,,,,0,,,,69,127
74160,note_on,,0,0,2,,,,,,,0,,,,71,127
74160,note_on,,8,0,2,,,,,,,0,,,,63,127
74392,note_off,,232,0,2,,,,,,,0,,,,71,64
74392,note_off,,1432,0,4,,,,,,,1,,,,71,64
74392,note_off,,0,0,2,,,,,,,0,,,,63,64
74392,note_off,,1432,0,1,,,,,,,3,,,,71,64
74392,note_off,,0,0,2,,,,,,,0,,,,69,64
74400,note_on,,0,0,2,,,,,,,0,,,,69,127
74400,note_on,,8,0,2,,,,,,,0,,,,66,127
74400,note_on,,8,0,4,,,,,,,1,,,,66,127
74400,note_on,,488,0,3,,,,,,,2,,,,51,127
74400,note_on,,8,0,1,,,,,,,3,,,,66,127
74400,note_on,,0,0,2,,,,,,,0,,,,71,127
74632,note_off,,0,0,2,,,,,,,0,,,,66,64
74632,note_off,,0,0,2,,,,,,,0,,,,69,64
74632,note_off,,232,0,2,,,,,,,0,,,,71,64
74640,note_on,,8,0,2,,,,,,,0,,,,66,127
74640,note_on,,0,0,2,,,,,,,0,,,,69,127
74640,note_on,,0,0,2,,,,,,,0,,,,71,127
74752,note_off,,352,0,3,,,,,,,2,,,,51,64
74760,note_on,,8,0,3,,,,,,,2,,,,51,127
74872,note_off,,0,0,2,,,,,,,0,,,,66,64
74872,note_off,,232,0,2,,,,,,,0,,,,71,64
74872,note_off,,0,0,2,,,,,,,0,,,,69,64
74872,note_off,,112,0,3,,,,,,,2,,,,51,64
74872,note_off,,472,0,1,,,,,,,3,,,,66,64
74872,note_off,,472,0,4,,,,,,,1,,,,66,64
74880,note_on,,0,0,2,,,,,,,0,,,,69,127
74880,note_on,,8,0,1,,,,,,,3,,,,69,127
74880,note_on,,8,0,3,,,,,,,2,,,,52,127
74880,note_on,,8,0,4,,,,,,,1,,,,69,127
74880,note_on,,0,0,2,,,,,,,0,,,,71,127
74880,note_on,,8,0,2,,,,,,,0,,,,66,127
75112,note_off,,232,0,2,,,,,,,0,,,,71,64
75112,note_off,,0,0,2,,,,,,,0,,,,66,64
75112,note_off,,0,0,2,,,,,,,0,,,,69,64
75120,note_on,,0,0,2,,,,,,,0,,,,69,127
75120,note_on,,8,0,2,,,,,,,0,,,,66,127
75120,note_on,,0,0,2,,,,,,,0,,,,71,127
75352,note_off,,232,0,2,,,,,,,0,,,,71,64
75352,note_off,,0,0,2,,,,,,,0,,,,69,64
75352,note_off,,0,0,2,,,,,,,0,,,,66,64
75352,note_off,,472,0,3,,,,,,,2,,,,52,64
75352,note_off,,472,0,4,,,,,,,1,,,,69,64
75352,note_off,,472,0,1,,,,,,,3,,,,69,64
75360,note_on,,8,0,2,,,,,,,0,,,,64,127
75360,note_on,,0,0,2,,,,,,,0,,,,71,127
75360,note_on,,0,0,2,,,,,,,0,,,,68,127
75360,note_on,,8,0,1,,,,,,,3,,,,68,127
75360,note_on,,8,0,4,,,,,,,1,,,,68,127
75360,note_on,,8,0,3,,,,,,,2,,,,40,127
75592,note_off,,0,0,2,,,,,,,0,,,,64,64
75592,note_off,,0,0,2,,,,,,,0,,,,68,64
75592,note_off,,232,0,2,,,,,,,0,,,,71,64
75600,note_on,,0,0,2,,,,,,,0,,,,71,127
75600,note_on,,0,0,2,,,,,,,0,,,,68,127
75600,note_on,,8,0,2,,,,,,,0,,,,64,127
75832,note_off,,472,0,1,,,,,,,3,,,,68,64
75832,note_off,,472,0,3,,,,,,,2,,,,40,64
75832,note_off,,232,0,2,,,,,,,0,,,,71,64
75832,note_off,,0,0,2,,,,,,,0,,,,68,64
75832,note_off,,0,0,2,,,,,,,0,,,,64,64
75832,note_off,,472,0,4,,,,,,,1,,,,68,64
75840,note_on,,0,0,2,,,,,,,0,,,,71,127
75840,note_on,,8,0,2,,,,,,,0,,,,64,127
75840,note_on,,0,0,2,,,,,,,0,,,,68,127
76072,note_off,,232,0,2,,,,,,,0,,,,71,64
76072,note_off,,0,0,2,,,,,,,0,,,,64,64
76072,note_off,,0,0,2,,,,,,,0,,,,68,64
76080,note_on,,8,0,2,,,,,,,0,,,,64,127
76080,note_on,,0,0,2,,,,,,,0,,,,68,127
76080,note_on,,0,0,2,,,,,,,0,,,,71,127
76312,note_off,,232,0,2,,,,,,,0,,,,71,64
76312,note_off,,0,0,2,,,,,,,0,,,,68,64
76312,note_off,,0,0,2,,,,,,,0,,,,64,64
76320,note_on,,488,0,1,,,,,,,3,,,,64,127
76320,note_on,,0,0,2,,,,,,,0,,,,71,127
76320,note_on,,8,0,2,,,,,,,0,,,,64,127
76320,note_on,,0,0,2,,,,,,,0,,,,68,127
76320,note_on,,488,0,4,,,,,,,1,,,,64,127
76320,note_on,,488,0,3,,,,,,,2,,,,52,127
76552,note_off,,232,0,2,,,,,,,0,,,,71,64
76552,note_off,,0,0,2,,,,,,,0,,,,64,64
76552,note_off,,0,0,2,,,,,,,0,,,,68,64
76560,note_on,,0,0,2,,,,,,,0,,,,71,127
76560,note_on,,8,0,2,,,,,,,0,,,,64,127
76560,note_on,,0,0,2,,,,,,,0,,,,68,127
76672,note_off,,352,0,3,,,,,,,2,,,,52,64
76680,note_on,,8,0,3,,,,,,,2,,,,52,127
76792,note_off,,232,0,2,,,,,,,0,,,,71,64
76792,note_off,,0,0,2,,,,,,,0,,,,68,64
76792,note_off,,0,0,2,,,,,,,0,,,,64,64
76792,note_off,,112,0,3,,,,,,,2,,,,52,64
76792,note_off,,472,0,1,,,,,,,3,,,,64,64
76792,note_off,,472,0,4,,,,,,,1,,,,64,64
76800,note_on,,8,0,1,,,,,,,3,,,,71,127
76800,note_on,,8,0,4,,,,,,,1,,,,71,127
76800,note_on,,8,0,3,,,,,,,2,,,,56,127
76800,note_on,,8,0,2,,,,,,,0,,,,64,127
76800,note_on,,0,0,2,,,,,,,0,,,,68,127
76800,note_on,,0,0,2,,,,,,,0,,,,71,127
77032,note_off,,0,0,2,,,,,,,0,,,,68,64
77032,note_off,,232,0,2,,,,,,,0,,,,71,64
77032,note_off,,0,0,2,,,,,,,0,,,,64,64
77040,note_on,,0,0,2,,,,,,,0,,,,71,127
77040,note_on,,0,0,2,,,,,,,0,,,,68,127
77040,note_on,,8,0,2,,,,,,,0,,,,64,127
77272,note_off,,0,0,2,,,,,,,0,,,,64,64
77272,note_off,,0,0,2,,,,,,,0,,,,68,64
77272,note_off,,232,0,2,,,,,,,0,,,,71,64
77272,note_off,,472,0,4,,,,,,,1,,,,71,64
77272,note_off,,472,0,3,,,,,,,2,,,,56,64
77272,note_off,,472,0,1,,,,,,,3,,,,71,64
77280,note_on,,8,0,4,,,,,,,1,,,,68,127
77280,note_on,,8,0,3,,,,,,,2,,,,52,127
77280,note_on,,8,0,1,,,,,,,3,,,,68,127
77280,note_on,,8,0,2,,,,,,,0,,,,64,127
77280,note_on,,0,0,2,,,,,,,0,,,,68,127
77280,note_on,,0,0,2,,,,,,,0,,,,71,127
77512,note_off,,232,0,2,,,,,,,0,,,,71,64
77512,note_off,,0,0,2,,,,,,,0,,,,68,64
77512,note_off,,0,0,2,,,,,,,0,,,,64,64
77520,note_on,,0,0,2,,,,,,,0,,,,71,127
77520,note_on,,0,0,2,,,,,,,0,,,,68,127
77520,note_on,,8,0,2,,,,,,,0,,,,64,127
77752,note_off,,232,0,2,,,,,,,0,,,,71,64
77752,note_off,,0,0,2,,,,,,,0,,,,68,64
77752,note_off,,0,0,2,,,,,,,0,,,,64,64
77752,note_off,,472,0,1,,,,,,,3,,,,68,64
77752,note_off,,472,0,3,,,,,,,2,,,,52,64
77752,note_off,,472,0,4,,,,,,,1,,,,68,64
77760,note_on,,8,0,3,,,,,,,2,,,,47,127
77760,note_on,,8,0,1,,,,,,,3,,,,74,127
77760,note_on,,8,0,4,,,,,,,1,,,,74,127
77760,note_on,,8,0,2,,,,,,,0,,,,64,127
77760,note_on,,0,0,2,,,,,,,0,,,,71,127
77760,note_on,,0,0,2,,,,,,,0,,,,68,127
77992,note_off,,0,0,2,,,,,,,0,,,,64,64
77992,note_off,,0,0,2,,,,,,,0,,,,68,64
77992,note_off,,232,0,2,,,,,,,0,,,,71,64
78000,note_on,,0,0,2,,,,,,,0,,,,71,127
78000,note_on,,8,0,2,,,,,,,0,,,,64,127
78000,note_on,,0,0,2,,,,,,,0,,,,68,127
78232,note_off,,472,0,1,,,,,,,3,,,,74,64
78232,note_off,,472,0,3,,,,,,,2,,,,47,64
78232,note_off,,472,0,4,,,,,,,1,,,,74,64
78232,note_off,,0,0,2,,,,,,,0,,,,64,64
78232,note_off,,232,0,2,,,,,,,0,,,,71,64
78232,note_off,,0,0,2,,,,,,,0,,,,68,64
78240,note_on,,8,0,3,,,,,,,2,,,,52,127
78240,note_on,,8,0,4,,,,,,,1,,,,71,127
78240,note_on,,8,0,2,,,,,,,0,,,,64,127
78240,note_on,,0,0,2,,,,,,,0,,,,68,127
78240,note_on,,0,0,2,,,,,,,0,,,,71,127
78240,note_on,,8,0,1,,,,,,,3,,,,71,127
78472,note_off,,232,0,2,,,,,,,0,,,,71,64
78472,note_off,,0,0,2,,,,,,,0,,,,68,64
78472,note_off,,0,0,2,,,,,,,0,,,,64,64
78480,note_on,,8,0,2,,,,,,,0,,,,64,127
78480,note_on,,0,0,2,,,,,,,0,,,,68,127
78480,note_on,,0,0,2,,,,,,,0,,,,71,127
78712,note_off,,472,0,1,,,,,,,3,,,,71,64
78712,note_off,,472,0,4,,,,,,,1,,,,71,64
78712,note_off,,0,0,2,,,,,,,0,,,,68,64
78712,note_off,,472,0,3,,,,,,,2,,,,52,64
78712,note_off,,0,0,2,,,,,,,0,,,,64,64
78712,note_off,,232,0,2,,,,,,,0,,,,71,64
78720,note_on,,8,0,2,,,,,,,0,,,,64,127
78720,note_on,,0,0,2,,,,,,,0,,,,71,127
78720,note_on,,0,0,2,,,,,,,0,,,,74,127
78720,note_on,,8,0,1,,,,,,,3,,,,78,127
78720,note_on,,8,0,4,,,,,,,1,,,,78,127
78720,note_on,,8,0,3,,,,,,,2,,,,44,127
78952,note_off,,0,0,2,,,,,,,0,,,,64,64
78952,note_off,,0,0,2,,,,,,,0,,,,71,64
78952,note_off,,232,0,2,,,,,,,0,,,,74,64
78960,note_on,,0,0,2,,,,,,,0,,,,74,127
78960,note_on,,0,0,2,,,,,,,0,,,,71,127
78960,note_on,,8,0,2,,,,,,,0,,,,64,127
79192,note_off,,0,0,2,,,,,,,0,,,,64,64
79192,note_off,,232,0,2,,,,,,,0,,,,74,64
79192,note_off,,0,0,2,,,,,,,0,,,,71,64
79200,note_on,,8,0,2,,,,,,,0,,,,64,127
79200,note_on,,0,0,2,,,,,,,0,,,,71,127
79200,note_on,,0,0,2,,,,,,,0,,,,74,127
79432,note_off,,232,0,2,,,,,,,0,,,,74,64
79432,note_off,,0,0,2,,,,,,,0,,,,71,64
79432,note_off,,712,0,3,,,,,,,2,,,,44,64
79432,note_off,,0,0,2,,,,,,,0,,,,64,64
79432,note_off,,712,0,1,,,,,,,3,,,,78,64
79432,note_off,,712,0,4,,,,,,,1,,,,78,64
79440,note_on,,0,0,2,,,,,,,0,,,,71,127
79440,note_on,,8,0,4,,,,,,,1,,,,74,127
79440,note_on,,8,0,3,,,,,,,2,,,,47,127
79440,note_on,,8,0,1,,,,,,,3,,,,74,127
79440,note_on,,8,0,2,,,,,,,0,,,,64,127
79440,note_on,,0,0,2,,,,,,,0,,,,74,127
79672,note_off,,0,0,2,,,,,,,0,,,,64,64
79672,note_off,,232,0,3,,,,,,,2,,,,47,64
79672,note_off,,232,0,4,,,,,,,1,,,,74,64
79672,note_off,,232,0,1,,,,,,,3,,,,74,64
79672,note_off,,232,0,2,,,,,,,0,,,,74,64
79672,note_off,,0,0,2,,,,,,,0,,,,71,64
79680,note_on,,8,0,1,,,,,,,3,,,,71,127
79680,note_on,,0,0,2,,,,,,,0,,,,71,127
79680,note_on,,8,0,2,,,,,,,0,,,,64,127
79680,note_on,,8,0,3,,,,,,,2,,,,52,127
79680,note_on,,8,0,4,,,,,,,1,,,,71,127
79680,note_on,,0,0,2,,,,,,,0,,,,74,127
79912,note_off,,232,0,2,,,,,,,0,,,,74,64
79912,note_off,,0,0,2,,,,,,,0,,,,71,64
79912,note_off,,0,0,2,,,,,,,0,,,,64,64
79920,note_on,,8,0,2,,,,,,,0,,,,64,127
79920,note_on,,0,0,2,,,,,,,0,,,,71,127
79920,note_on,,0,0,2,,,,,,,0,,,,74,127
80152,note_off,,472,0,4,,,,,,,1,,,,71,64
80152,note_off,,472,0,1,,,,,,,3,,,,71,64
80152,note_off,,472,0,3,,,,,,,2,,,,52,64
80152,note_off,,232,0,2,,,,,,,0,,,,74,64
80152,note_off,,0,0,2,,,,,,,0,,,,71,64
80152,note_off,,0,0,2,,,,,,,0,,,,64,64
80160,note_on,,0,0,2,,,,,,,0,,,,74,127
80160,note_on,,0,0,2,,,,,,,0,,,,71,127
80160,note_on,,8,0,2,,,,,,,0,,,,64,127
80392,note_off,,0,0,2,,,,,,,0,,,,71,64
80392,note_off,,0,0,2,,,,,,,0,,,,64,64
80392,note_off,,232,0,2,,,,,,,0,,,,74,64
80400,note_on,,8,0,2,,,,,,,0,,,,64,127
80400,note_on,,0,0,2,,,,,,,0,,,,71,127
80400,note_on,,0,0,2,,,,,,,0,,,,74,127
80632,note_off,,232,0,2,,,,,,,0,,,,74,64
80632,note_off,,0,0,2,,,,,,,0,,,,71,64
80632,note_off,,0,0,2,,,,,,,0,,,,64,64
80640,note_on,,0,0,2,,,,,,,0,,,,69,127
80640,note_on,,488,0,3,,,,,,,2,,,,78,127
80640,note_on,,0,0,2,,,,,,,0,,,,71,127
80640,note_on,,0,0,2,,,,,,,0,,,,74,127
80640,note_on,,8,0,2,,,,,,,0,,,,64,127
80872,note_off,,0,0,2,,,,,,,0,,,,71,64
80872,note_off,,0,0,2,,,,,,,0,,,,64,64
80872,note_off,,232,0,2,,,,,,,0,,,,74,64
80872,note_off,,0,0,2,,,,,,,0,,,,69,64
80880,note_on,,8,0,2,,,,,,,0,,,,64,127
80880,note_on,,0,0,2,,,,,,,0,,,,69,127
80880,note_on,,0,0,2,,,,,,,0,,,,71,127
80880,note_on,,0,0,2,,,,,,,0,,,,74,127
81112,note_off,,232,0,2,,,,,,,0,,,,74,64
81112,note_off,,0,0,2,,,,,,,0,,,,71,64
81112,note_off,,0,0,2,,,,,,,0,,,,69,64
81112,note_off,,0,0,2,,,,,,,0,,,,64,64
81120,note_on,,0,0,2,,,,,,,0,,,,74,127
81120,note_on,,0,0,2,,,,,,,0,,,,71,127
81120,note_on,,8,0,2,,,,,,,0,,,,64,127
81120,note_on,,0,0,2,,,,,,,0,,,,69,127
81352,note_off,,0,0,2,,,,,,,0,,,,71,64
81352,note_off,,0,0,2,,,,,,,0,,,,69,64
81352,note_off,,0,0,2,,,,,,,0,,,,64,64
81352,note_off,,232,0,2,,,,,,,0,,,,74,64
81360,note_on,,8,0,2,,,,,,,0,,,,64,127
81360,note_on,,0,0,2,,,,,,,0,,,,69,127
81360,note_on,,0,0,2,,,,,,,0,,,,71,127
81360,note_on,,0,0,2,,,,,,,0,,,,74,127
81592,note_off,,0,0,2,,,,,,,0,,,,69,64
81592,note_off,,0,0,2,,,,,,,0,,,,64,64
81592,note_off,,232,0,2,,,,,,,0,,,,74,64
81592,note_off,,952,0,3,,,,,,,2,,,,78,64
81592,note_off,,0,0,2,,,,,,,0,,,,71,64
81600,note_on,,0,0,2,,,,,,,0,,,,74,127
81600,note_on,,0,0,2,,,,,,,0,,,,71,127
81600,note_on,,8,0,3,,,,,,,2,,,,76,127
81600,note_on,,0,0,2,,,,,,,0,,,,68,127
81600,note_on,,8,0,2,,,,,,,0,,,,64,127
81832,note_off,,232,0,2,,,,,,,0,,,,74,64
81832,note_off,,0,0,2,,,,,,,0,,,,71,64
81832,note_off,,0,0,2,,,,,,,0,,,,68,64
81832,note_off,,0,0,2,,,,,,,0,,,,64,64
81840,note_on,,0,0,2,,,,,,,0,,,,74,127
81840,note_on,,8,0,2,,,,,,,0,,,,64,127
81840,note_on,,0,0,2,,,,,,,0,,,,68,127
81840,note_on,,0,0,2,,,,,,,0,,,,71,127
82072,note_off,,0,0,2,,,,,,,0,,,,68,64
82072,note_off,,0,0,2,,,,,,,0,,,,71,64
82072,note_off,,232,0,2,,,,,,,0,,,,74,64
82072,note_off,,0,0,2,,,,,,,0,,,,64,64
82072,note_off,,472,0,3,,,,,,,2,,,,76,64
82080,note_on,,0,0,2,,,,,,,0,,,,68,127
82080,note_on,,8,0,2,,,,,,,0,,,,64,127
82080,note_on,,0,0,2,,,,,,,0,,,,71,127
82080,note_on,,0,0,2,,,,,,,0,,,,74,127
82312,note_off,,232,0,2,,,,,,,0,,,,74,64
82312,note_off,,0,0,2,,,,,,,0,,,,64,64
82312,note_off,,0,0,2,,,,,,,0,,,,68,64
82312,note_off,,0,0,2,,,,,,,0,,,,71,64
82320,note_on,,0,0,2,,,,,,,0,,,,68,127
82320,note_on,,8,0,2,,,,,,,0,,,,64,127
82320,note_on,,0,0,2,,,,,,,0,,,,71,127
82320,note_on,,0,0,2,,,,,,,0,,,,74,127
82552,note_off,,0,0,2,,,,,,,0,,,,64,64
82552,note_off,,0,0,2,,,,,,,0,,,,71,64
82552,note_off,,0,0,2,,,,,,,0,,,,68,64
82552,note_off,,232,0,2,,,,,,,0,,,,74,64
82560,note_on,,2408,0,1,,,,,,,3,,,,76,127
82560,note_on,,2408,0,4,,,,,,,1,,,,76,127
82560,note_on,,8,0,2,,,,,,,0,,,,64,127
82560,note_on,,0,0,2,,,,,,,0,,,,69,127
82560,note_on,,0,0,2,,,,,,,0,,,,73,127
82560,note_on,,488,0,3,,,,,,,2,,,,45,127
82792,note_off,,232,0,2,,,,,,,0,,,,73,64
82792,note_off,,0,0,2,,,,,,,0,,,,69,64
82792,note_off,,0,0,2,,,,,,,0,,,,64,64
82800,note_on,,8,0,2,,,,,,,0,,,,64,127
82800,note_on,,0,0,2,,,,,,,0,,,,69,127
82800,note_on,,0,0,2,,,,,,,0,,,,73,127
83032,note_off,,0,0,2,,,,,,,0,,,,69,64
83032,note_off,,232,0,2,,,,,,,0,,,,73,64
83032,note_off,,472,0,3,,,,,,,2,,,,45,64
83032,note_off,,0,0,2,,,,,,,0,,,,64,64
83040,note_on,,8,0,2,,,,,,,0,,,,64,127
83040,note_on,,8,0,3,,,,,,,2,,,,49,127
83040,note_on,,0,0,2,,,,,,,0,,,,69,127
83040,note_on,,0,0,2,,,,,,,0,,,,73,127
83272,note_off,,0,0,2,,,,,,,0,,,,64,64
83272,note_off,,232,0,2,,,,,,,0,,,,73,64
83272,note_off,,0,0,2,,,,,,,0,,,,69,64
83280,note_on,,8,0,2,,,,,,,0,,,,64,127
83280,note_on,,0,0,2,,,,,,,0,,,,69,127
83280,note_on,,0,0,2,,,,,,,0,,,,73,127
83512,note_off,,472,0,3,,,,,,,2,,,,49,64
83512,note_off,,0,0,2,,,,,,,0,,,,64,64
83512,note_off,,0,0,2,,,,,,,0,,,,69,64
83512,note_off,,232,0,2,,,,,,,0,,,,73,64
83520,note_on,,8,0,2,,,,,,,0,,,,64,127
83520,note_on,,0,0,2,,,,,,,0,,,,73,127
83520,note_on,,0,0,2,,,,,,,0,,,,69,127
83752,note_off,,232,0,2,,,,,,,0,,,,73,64
83752,note_off,,0,0,2,,,,,,,0,,,,69,64
83752,note_off,,0,0,2,,,,,,,0,,,,64,64
83760,note_on,,8,0,2,,,,,,,0,,,,64,127
83760,note_on,,0,0,2,,,,,,,0,,,,69,127
83760,note_on,,0,0,2,,,,,,,0,,,,73,127
83992,note_off,,1432,0,4,,,,,,,1,,,,76,64
83992,note_off,,1432,0,1,,,,,,,3,,,,76,64
83992,note_off,,0,0,2,,,,,,,0,,,,64,64
83992,note_off,,0,0,2,,,,,,,0,,,,69,64
83992,note_off,,232,0,2,,,,,,,0,,,,73,64
84000,note_on,,0,0,2,,,,,,,0,,,,69,127
84000,note_on,,0,0,2,,,,,,,0,,,,73,127
84000,note_on,,8,0,4,,,,,,,1,,,,73,127
84000,note_on,,8,0,1,,,,,,,3,,,,73,127
84000,note_on,,488,0,3,,,,,,,2,,,,45,127
84000,note_on,,8,0,2,,,,,,,0,,,,64,127
84232,note_off,,232,0,2,,,,,,,0,,,,73,64
84232,note_off,,232,0,4,,,,,,,1,,,,73,64
84232,note_off,,232,0,1,,,,,,,3,,,,73,64
84232,note_off,,0,0,2,,,,,,,0,,,,69,64
84232,note_off,,0,0,2,,,,,,,0,,,,64,64
84240,note_on,,0,0,2,,,,,,,0,,,,73,127
84240,note_on,,8,0,1,,,,,,,3,,,,69,127
84240,note_on,,8,0,2,,,,,,,0,,,,64,127
84240,note_on,,0,0,2,,,,,,,0,,,,69,127
84240,note_on,,8,0,4,,,,,,,1,,,,69,127
84352,note_off,,352,0,3,,,,,,,2,,,,45,64
84360,note_on,,8,0,3,,,,,,,2,,,,45,127
84472,note_off,,0,0,2,,,,,,,0,,,,64,64
84472,note_off,,232,0,4,,,,,,,1,,,,69,64
84472,note_off,,0,0,2,,,,,,,0,,,,69,64
84472,note_off,,232,0,1,,,,,,,3,,,,69,64
84472,note_off,,112,0,3,,,,,,,2,,,,45,64
84472,note_off,,232,0,2,,,,,,,0,,,,73,64
84480,note_on,,0,0,2,,,,,,,0,,,,74,127
84480,note_on,,8,0,3,,,,,,,2,,,,50,127
84480,note_on,,8,0,1,,,,,,,3,,,,68,127
84480,note_on,,0,0,2,,,,,,,0,,,,69,127
84480,note_on,,8,0,2,,,,,,,0,,,,66,127
84480,note_on,,8,0,4,,,,,,,1,,,,68,127
84712,note_off,,232,0,2,,,,,,,0,,,,74,64
84712,note_off,,0,0,2,,,,,,,0,,,,69,64
84712,note_off,,0,0,2,,,,,,,0,,,,66,64
84720,note_on,,0,0,2,,,,,,,0,,,,69,127
84720,note_on,,0,0,2,,,,,,,0,,,,74,127
84720,note_on,,8,0,2,,,,,,,0,,,,66,127
84952,note_off,,472,0,1,,,,,,,3,,,,68,64
84952,note_off,,472,0,3,,,,,,,2,,,,50,64
84952,note_off,,0,0,2,,,,,,,0,,,,66,64
84952,note_off,,0,0,2,,,,,,,0,,,,69,64
84952,note_off,,232,0,2,,,,,,,0,,,,74,64
84952,note_off,,472,0,4,,,,,,,1,,,,68,64
84960,note_on,,8,0,1,,,,,,,3,,,,66,127
84960,note_on,,8,0,3,,,,,,,2,,,,54,127
84960,note_on,,0,0,2,,,,,,,0,,,,74,127
84960,note_on,,0,0,2,,,,,,,0,,,,70,127
84960,note_on,,8,0,2,,,,,,,0,,,,66,127
84960,note_on,,8,0,4,,,,,,,1,,,,66,127
85192,note_off,,0,0,2,,,,,,,0,,,,66,64
85192,note_off,,232,0,2,,,,,,,0,,,,74,64
85192,note_off,,0,0,2,,,,,,,0,,,,70,64
85200,note_on,,8,0,2,,,,,,,0,,,,66,127
85200,note_on,,0,0,2,,,,,,,0,,,,74,127
85200,note_on,,0,0,2,,,,,,,0,,,,70,127
85432,note_off,,472,0,4,,,,,,,1,,,,66,64
85432,note_off,,0,0,2,,,,,,,0,,,,66,64
85432,note_off,,0,0,2,,,,,,,0,,,,70,64
85432,note_off,,232,0,2,,,,,,,0,,,,74,64
85432,note_off,,472,0,3,,,,,,,2,,,,54,64
85432,note_off,,472,0,1,,,,,,,3,,,,66,64
85440,note_on,,0,0,2,,,,,,,0,,,,74,127
85440,note_on,,0,0,2,,,,,,,0,,,,71,127
85440,note_on,,8,0,2,,,,,,,0,,,,66,127
85672,note_off,,232,0,2,,,,,,,0,,,,74,64
85672,note_off,,0,0,2,,,,,,,0,,,,71,64
85672,note_off,,0,0,2,,,,,,,0,,,,66,64
85680,note_on,,0,0,2,,,,,,,0,,,,71,127
85680,note_on,,8,0,2,,,,,,,0,,,,66,127
85680,note_on,,0,0,2,,,,,,,0,,,,74,127
85912,note_off,,0,0,2,,,,,,,0,,,,66,64
85912,note_off,,232,0,2,,,,,,,0,,,,74,64
85912,note_off,,0,0,2,,,,,,,0,,,,71,64
85920,note_on,,488,0,3,,,,,,,2,,,,46,127
85920,note_on,,8,0,2,,,,,,,0,,,,66,127
85920,note_on,,0,0,2,,,,,,,0,,,,73,127
85920,note_on,,0,0,2,,,,,,,0,,,,74,127
86152,note_off,,232,0,2,,,,,,,0,,,,74,64
86152,note_off,,0,0,2,,,,,,,0,,,,73,64
86152,note_off,,0,0,2,,,,,,,0,,,,66,64
86160,note_on,,0,0,2,,,,,,,0,,,,73,127
86160,note_on,,8,0,2,,,,,,,0,,,,66,127
86160,note_on,,0,0,2,,,,,,,0,,,,74,127
86272,note_off,,352,0,3,,,,,,,2,,,,46,64
86280,note_on,,8,0,3,,,,,,,2,,,,46,127
86392,note_off,,112,0,3,,,,,,,2,,,,46,64
86392,note_off,,232,0,2,,,,,,,0,,,,74,64
86392,note_off,,0,0,2,,,,,,,0,,,,73,64
86392,note_off,,0,0,2,,,,,,,0,,,,66,64
86400,note_on,,0,0,2,,,,,,,0,,,,74,127
86400,note_on,,8,0,2,,,,,,,0,,,,66,127
86400,note_on,,968,0,1,,,,,,,3,,,,74,127
86400,note_on,,8,0,3,,,,,,,2,,,,47,127
86400,note_on,,968,0,4,,,,,,,1,,,,74,127
86632,note_off,,232,0,2,,,,,,,0,,,,74,64
86632,note_off,,0,0,2,,,,,,,0,,,,66,64
86640,note_on,,0,0,2,,,,,,,0,,,,74,127
86640,note_on,,8,0,2,,,,,,,0,,,,66,127
86872,note_off,,232,0,2,,,,,,,0,,,,74,64
86872,note_off,,0,0,2,,,,,,,0,,,,66,64
86872,note_off,,472,0,3,,,,,,,2,,,,47,64
86880,note_on,,8,0,3,,,,,,,2,,,,50,127
86880,note_on,,8,0,2,,,,,,,0,,,,66,127
86880,note_on,,0,0,2,,,,,,,0,,,,71,127
86880,note_on,,0,0,2,,,,,,,0,,,,74,127
87112,note_off,,232,0,2,,,,,,,0,,,,74,64
87112,note_off,,0,0,2,,,,,,,0,,,,71,64
87112,note_off,,0,0,2,,,,,,,0,,,,66,64
87120,note_on,,8,0,2,,,,,,,0,,,,66,127
87120,note_on,,0,0,2,,,,,,,0,,,,71,127
87120,note_on,,0,0,2,,,,,,,0,,,,74,127
87352,note_off,,232,0,2,,,,,,,0,,,,74,64
87352,note_off,,472,0,3,,,,,,,2,,,,50,64
87352,note_off,,0,0,2,,,,,,,0,,,,71,64
87352,note_off,,0,0,2,,,,,,,0,,,,66,64
87360,note_on,,8,0,2,,,,,,,0,,,,66,127
87360,note_on,,0,0,2,,,,,,,0,,,,71,127
87360,note_on,,0,0,2,,,,,,,0,,,,74,127
87592,note_off,,232,0,2,,,,,,,0,,,,74,64
87592,note_off,,0,0,2,,,,,,,0,,,,71,64
87592,note_off,,0,0,2,,,,,,,0,,,,66,64
87600,note_on,,8,0,2,,,,,,,0,,,,66,127
87600,note_on,,0,0,2,,,,,,,0,,,,71,127
87600,note_on,,0,0,2,,,,,,,0,,,,74,127
87832,note_off,,1432,0,4,,,,,,,1,,,,74,64
87832,note_off,,232,0,2,,,,,,,0,,,,74,64
87832,note_off,,0,0,2,,,,,,,0,,,,71,64
87832,note_off,,0,0,2,,,,,,,0,,,,66,64
87832,note_off,,1432,0,1,,,,,,,3,,,,74,64
87840,note_on,,488,0,3,,,,,,,2,,,,45,127
87840,note_on,,8,0,4,,,,,,,1,,,,73,127
87840,note_on,,8,0,1,,,,,,,3,,,,73,127
87840,note_on,,8,0,2,,,,,,,0,,,,66,127
87840,note_on,,0,0,2,,,,,,,0,,,,71,127
87840,note_on,,0,0,2,,,,,,,0,,,,74,127
87952,note_off,,112,0,4,,,,,,,1,,,,73,64
87952,note_off,,112,0,1,,,,,,,3,,,,73,64
87960,note_on,,8,0,4,,,,,,,1,,,,71,127
87960,note_on,,8,0,1,,,,,,,3,,,,71,127
88072,note_off,,112,0,1,,,,,,,3,,,,71,64
88072,note_off,,232,0,2,,,,,,,0,,,,74,64
88072,note_off,,0,0,2,,,,,,,0,,,,71,64
88072,note_off,,112,0,4,,,,,,,1,,,,71,64
88072,note_off,,0,0,2,,,,,,,0,,,,66,64
88080,note_on,,8,0,2,,,,,,,0,,,,66,127
88080,note_on,,0,0,2,,,,,,,0,,,,71,127
88080,note_on,,0,0,2,,,,,,,0,,,,74,127
88080,note_on,,8,0,4,,,,,,,1,,,,69,127
88080,note_on,,8,0,1,,,,,,,3,,,,69,127
88192,note_off,,112,0,4,,,,,,,1,,,,69,64
88192,note_off,,112,0,1,,,,,,,3,,,,69,64
88192,note_off,,352,0,3,,,,,,,2,,,,45,64
88200,note_on,,8,0,4,,,,,,,1,,,,68,127
88200,note_on,,8,0,1,,,,,,,3,,,,68,127
88200,note_on,,8,0,3,,,,,,,2,,,,45,127
88312,note_off,,112,0,4,,,,,,,1,,,,68,64
88312,note_off,,112,0,3,,,,,,,2,,,,45,64
88312,note_off,,0,0,2,,,,,,,0,,,,71,64
88312,note_off,,0,0,2,,,,,,,0,,,,66,64
88312,note_off,,112,0,1,,,,,,,3,,,,68,64
88312,note_off,,232,0,2,,,,,,,0,,,,74,64
88320,note_on,,0,0,2,,,,,,,0,,,,74,127
88320,note_on,,8,0,2,,,,,,,0,,,,64,127
88320,note_on,,8,0,4,,,,,,,1,,,,66,127
88320,note_on,,8,0,1,,,,,,,3,,,,66,127
88320,note_on,,0,0,2,,,,,,,0,,,,71,127
88320,note_on,,8,0,3,,,,,,,2,,,,44,127
88552,note_off,,0,0,2,,,,,,,0,,,,64,64
88552,note_off,,0,0,2,,,,,,,0,,,,71,64
88552,note_off,,232,0,2,,,,,,,0,,,,74,64
88560,note_on,,8,0,2,,,,,,,0,,,,64,127
88560,note_on,,0,0,2,,,,,,,0,,,,71,127
88560,note_on,,0,0,2,,,,,,,0,,,,74,127
88792,note_off,,472,0,3,,,,,,,2,,,,44,64
88792,note_off,,0,0,2,,,,,,,0,,,,64,64
88792,note_off,,0,0,2,,,,,,,0,,,,71,64
88792,note_off,,232,0,2,,,,,,,0,,,,74,64
88792,note_off,,472,0,4,,,,,,,1,,,,66,64
88792,note_off,,472,0,1,,,,,,,3,,,,66,64
88800,note_on,,8,0,1,,,,,,,3,,,,64,127
88800,note_on,,8,0,3,,,,,,,2,,,,52,127
88800,note_on,,8,0,4,,,,,,,1,,,,64,127
88800,note_on,,8,0,2,,,,,,,0,,,,64,127
88800,note_on,,0,0,2,,,,,,,0,,,,71,127
89032,note_off,,0,0,2,,,,,,,0,,,,64,64
89032,note_off,,232,0,2,,,,,,,0,,,,71,64
89040,note_on,,8,0,2,,,,,,,0,,,,64,127
89040,note_on,,0,0,2,,,,,,,0,,,,71,127
89272,note_off,,472,0,1,,,,,,,3,,,,64,64
89272,note_off,,472,0,3,,,,,,,2,,,,52,64
89272,note_off,,472,0,4,,,,,,,1,,,,64,64
89272,note_off,,0,0,2,,,,,,,0,,,,64,64
89272,note_off,,232,0,2,,,,,,,0,,,,71,64
89280,note_on,,0,0,2,,,,,,,0,,,,76,127
89280,note_on,,8,0,2,,,,,,,0,,,,64,127
89512,note_off,,0,0,2,,,,,,,0,,,,64,64
89512,note_off,,232,0,2,,,,,,,0,,,,76,64
89520,note_on,,0,0,2,,,,,,,0,,,,76,127
89520,note_on,,8,0,2,,,,,,,0,,,,64,127
89752,note_off,,0,0,2,,,,,,,0,,,,64,64
89752,note_off,,232,0,2,,,,,,,0,,,,76,64
89760,note_on,,0,0,2,,,,,,,0,,,,74,127
89760,note_on,,8,0,2,,,,,,,0,,,,64,127
89760,note_on,,0,0,2,,,,,,,0,,,,71,127
89760,note_on,,488,0,3,,,,,,,2,,,,32,127
89992,note_off,,0,0,2,,,,,,,0,,,,64,64
89992,note_off,,232,0,2,,,,,,,0,,,,74,64
89992,note_off,,0,0,2,,,,,,,0,,,,71,64
90000,note_on,,8,0,2,,,,,,,0,,,,64,127
90000,note_on,,0,0,2,,,,,,,0,,,,71,127
90000,note_on,,0,0,2,,,,,,,0,,,,74,127
90112,note_off,,352,0,3,,,,,,,2,,,,32,64
90120,note_on,,8,0,3,,,,,,,2,,,,32,127
90232,note_off,,112,0,3,,,,,,,2,,,,32,64
90232,note_off,,0,0,2,,,,,,,0,,,,64,64
90232,note_off,,0,0,2,,,,,,,0,,,,71,64
90232,note_off,,232,0,2,,,,,,,0,,,,74,64
90240,note_on,,968,0,4,,,,,,,1,,,,64,127
90240,note_on,,968,0,1,,,,,,,3,,,,64,127
90240,note_on,,8,0,3,,,,,,,2,,,,33,127
90240,note_on,,0,0,2,,,,,,,0,,,,73,127
90240,note_on,,0,0,2,,,,,,,0,,,,64,127
90240,note_on,,8,0,2,,,,,,,0,,,,61,127
90472,note_off,,0,0,2,,,,,,,0,,,,61,64
90472,note_off,,232,0,2,,,,,,,0,,,,73,64
90472,note_off,,0,0,2,,,,,,,0,,,,64,64
90480,note_on,,8,0,2,,,,,,,0,,,,61,127
90480,note_on,,0,0,2,,,,,,,0,,,,64,127
90480,note_on,,0,0,2,,,,,,,0,,,,73,127
90712,note_off,,472,0,3,,,,,,,2,,,,33,64
90712,note_off,,232,0,2,,,,,,,0,,,,73,64
90712,note_off,,0,0,2,,,,,,,0,,,,64,64
90712,note_off,,0,0,2,,,,,,,0,,,,61,64
90720,note_on,,8,0,3,,,,,,,2,,,,45,127
90720,note_on,,0,0,2,,,,,,,0,,,,71,127
90720,note_on,,8,0,2,,,,,,,0,,,,61,127
90720,note_on,,0,0,2,,,,,,,0,,,,64,127
90952,note_off,,232,0,2,,,,,,,0,,,,71,64
90952,note_off,,0,0,2,,,,,,,0,,,,64,64
90952,note_off,,0,0,2,,,,,,,0,,,,61,64
90960,note_on,,8,0,2,,,,,,,0,,,,61,127
90960,note_on,,0,0,2,,,,,,,0,,,,64,127
90960,note_on,,0,0,2,,,,,,,0,,,,71,127
91192,note_off,,952,0,4,,,,,,,1,,,,64,64
91192,note_off,,232,0,2,,,,,,,0,,,,71,64
91192,note_off,,0,0,2,,,,,,,0,,,,64,64
91192,note_off,,472,0,3,,,,,,,2,,,,45,64
91192,note_off,,952,0,1,,,,,,,3,,,,64,64
91192,note_off,,0,0,2,,,,,,,0,,,,61,64
91200,note_on,,8,0,1,,,,,,,3,,,,76,127
91200,note_on,,8,0,4,,,,,,,1,,,,76,127
91200,note_on,,8,0,2,,,,,,,0,,,,61,127
91200,note_on,,0,0,2,,,,,,,0,,,,64,127
91200,note_on,,0,0,2,,,,,,,0,,,,69,127
91432,note_off,,232,0,2,,,,,,,0,,,,69,64
91432,note_off,,0,0,2,,,,,,,0,,,,64,64
91432,note_off,,0,0,2,,,,,,,0,,,,61,64
91440,note_on,,8,0,2,,,,,,,0,,,,61,127
91440,note_on,,0,0,2,,,,,,,0,,,,64,127
91440,note_on,,0,0,2,,,,,,,0,,,,69,127
91672,note_off,,232,0,2,,,,,,,0,,,,69,64
91672,note_off,,0,0,2,,,,,,,0,,,,64,64
91672,note_off,,0,0,2,,,,,,,0,,,,61,64
91680,note_on,,488,0,3,,,,,,,2,,,,37,127
91680,note_on,,0,0,2,,,,,,,0,,,,68,127
91680,note_on,,0,0,2,,,,,,,0,,,,64,127
91680,note_on,,8,0,2,,,,,,,0,,,,61,127
91912,note_off,,0,0,2,,,,,,,0,,,,64,64
91912,note_off,,232,0,2,,,,,,,0,,,,68,64
91912,note_off,,0,0,2,,,,,,,0,,,,61,64
91920,note_on,,8,0,2,,,,,,,0,,,,61,127
91920,note_on,,0,0,2,,,,,,,0,,,,64,127
91920,note_on,,0,0,2,,,,,,,0,,,,68,127
92032,note_off,,352,0,3,,,,,,,2,,,,37,64
92040,note_on,,8,0,3,,,,,,,2,,,,37,127
92152,note_off,,0,0,2,,,,,,,0,,,,64,64
92152,note_off,,112,0,3,,,,,,,2,,,,37,64
92152,note_off,,952,0,4,,,,,,,1,,,,76,64
92152,note_off,,232,0,2,,,,,,,0,,,,68,64
92152,note_off,,0,0,2,,,,,,,0,,,,61,64
92152,note_off,,952,0,1,,,,,,,3,,,,76,64
92160,note_on,,8,0,1,,,,,,,3,,,,78,127
92160,note_on,,0,0,2,,,,,,,0,,,,64,127
92160,note_on,,8,0,2,,,,,,,0,,,,61,127
92160,note_on,,8,0,3,,,,,,,2,,,,38,127
92160,note_on,,8,0,4,,,,,,,1,,,,78,127
92160,note_on,,0,0,2,,,,,,,0,,,,66,127
92392,note_off,,0,0,2,,,,,,,0,,,,61,64
92392,note_off,,232,0,2,,,,,,,0,,,,66,64
92392,note_off,,0,0,2,,,,,,,0,,,,64,64
92400,note_on,,8,0,2,,,,,,,0,,,,61,127
92400,note_on,,0,0,2,,,,,,,0,,,,64,127
92400,note_on,,0,0,2,,,,,,,0,,,,66,127
92632,note_off,,472,0,3,,,,,,,2,,,,38,64
92632,note_off,,232,0,2,,,,,,,0,,,,66,64
92632,note_off,,0,0,2,,,,,,,0,,,,64,64
92632,note_off,,0,0,2,,,,,,,0,,,,61,64
92640,note_on,,8,0,2,,,,,,,0,,,,58,127
92640,note_on,,0,0,2,,,,,,,0,,,,66,127
92640,note_on,,8,0,3,,,,,,,2,,,,50,127
92640,note_on,,0,0,2,,,,,,,0,,,,61,127
92872,note_off,,232,0,2,,,,,,,0,,,,66,64
92872,note_off,,0,0,2,,,,,,,0,,,,61,64
92872,note_off,,0,0,2,,,,,,,0,,,,58,64
92880,note_on,,8,0,2,,,,,,,0,,,,58,127
92880,note_on,,0,0,2,,,,,,,0,,,,61,127
92880,note_on,,0,0,2,,,,,,,0,,,,66,127
93112,note_off,,952,0,4,,,,,,,1,,,,78,64
93112,note_off,,472,0,3,,,,,,,2,,,,50,64
93112,note_off,,232,0,2,,,,,,,0,,,,66,64
93112,note_off,,0,0,2,,,,,,,0,,,,61,64
93112,note_off,,0,0,2,,,,,,,0,,,,58,64
93112,note_off,,952,0,1,,,,,,,3,,,,78,64
93120,note_on,,8,0,1,,,,,,,3,,,,66,127
93120,note_on,,8,0,4,,,,,,,1,,,,66,127
93120,note_on,,8,0,2,,,,,,,0,,,,59,127
93120,note_on,,0,0,2,,,,,,,0,,,,66,127
93120,note_on,,0,0,2,,,,,,,0,,,,62,127
93352,note_off,,0,0,2,,,,,,,0,,,,62,64
93352,note_off,,0,0,2,,,,,,,0,,,,59,64
93352,note_off,,232,0,2,,,,,,,0,,,,66,64
93360,note_on,,8,0,2,,,,,,,0,,,,59,127
93360,note_on,,0,0,2,,,,,,,0,,,,66,127
93360,note_on,,0,0,2,,,,,,,0,,,,62,127
93592,note_off,,232,0,2,,,,,,,0,,,,66,64
93592,note_off,,0,0,2,,,,,,,0,,,,62,64
93592,note_off,,0,0,2,,,,,,,0,,,,59,64
93600,note_on,,8,0,2,,,,,,,0,,,,66,127
93600,note_on,,0,0,2,,,,,,,0,,,,71,127
93600,note_on,,488,0,3,,,,,,,2,,,,38,127
93832,note_off,,232,0,2,,,,,,,0,,,,71,64
93832,note_off,,0,0,2,,,,,,,0,,,,66,64
93840,note_on,,8,0,2,,,,,,,0,,,,66,127
93840,note_on,,0,0,2,,,,,,,0,,,,71,127
93952,note_off,,352,0,3,,,,,,,2,,,,38,64
93960,note_on,,8,0,3,,,,,,,2,,,,38,127
94072,note_off,,952,0,4,,,,,,,1,,,,66,64
94072,note_off,,232,0,2,,,,,,,0,,,,71,64
94072,note_off,,0,0,2,,,,,,,0,,,,66,64
94072,note_off,,112,0,3,,,,,,,2,,,,38,64
94072,note_off,,952,0,1,,,,,,,3,,,,66,64
94080,note_on,,8,0,3,,,,,,,2,,,,40,127
94080,note_on,,8,0,1,,,,,,,3,,,,68,127
94080,note_on,,8,0,4,,,,,,,1,,,,68,127
94080,note_on,,0,0,2,,,,,,,0,,,,74,127
94080,note_on,,0,0,2,,,,,,,0,,,,71,127
94080,note_on,,8,0,2,,,,,,,0,,,,64,127
94312,note_off,,0,0,2,,,,,,,0,,,,64,64
94312,note_off,,0,0,2,,,,,,,0,,,,71,64
94312,note_off,,232,0,2,,,,,,,0,,,,74,64
94320,note_on,,0,0,2,,,,,,,0,,,,74,127
94320,note_on,,8,0,2,,,,,,,0,,,,64,127
94320,note_on,,0,0,2,,,,,,,0,,,,71,127
94552,note_off,,232,0,2,,,,,,,0,,,,74,64
94552,note_off,,472,0,3,,,,,,,2,,,,40,64
94552,note_off,,0,0,2,,,,,,,0,,,,71,64
94552,note_off,,0,0,2,,,,,,,0,,,,64,64
94560,note_on,,0,0,2,,,,,,,0,,,,74,127
94560,note_on,,8,0,2,,,,,,,0,,,,64,127
94560,note_on,,8,0,3,,,,,,,2,,,,52,127
94560,note_on,,0,0,2,,,,,,,0,,,,71,127
94792,note_off,,232,0,2,,,,,,,0,,,,74,64
94792,note_off,,0,0,2,,,,,,,0,,,,71,64
94792,note_off,,0,0,2,,,,,,,0,,,,64,64
94800,note_on,,8,0,2,,,,,,,0,,,,64,127
94800,note_on,,0,0,2,,,,,,,0,,,,71,127
94800,note_on,,0,0,2,,,,,,,0,,,,74,127
95032,note_off,,232,0,2,,,,,,,0,,,,74,64
95032,note_off,,0,0,2,,,,,,,0,,,,71,64
95032,note_off,,0,0,2,,,,,,,0,,,,64,64
95032,note_off,,472,0,3,,,,,,,2,,,,52,64
95040,note_on,,8,0,2,,,,,,,0,,,,64,127
95040,note_on,,0,0,2,,,,,,,0,,,,71,127
95272,note_off,,0,0,2,,,,,,,0,,,,64,64
95272,note_off,,232,0,2,,,,,,,0,,,,71,64
95280,note_on,,8,0,2,,,,,,,0,,,,64,127
95280,note_on,,0,0,2,,,,,,,0,,,,71,127
95512,note_off,,232,0,2,,,,,,,0,,,,71,64
95512,note_off,,0,0,2,,,,,,,0,,,,64,64
95512,note_off,,1432,0,4,,,,,,,1,,,,68,64
95512,note_off,,1432,0,1,,,,,,,3,,,,68,64
95520,note_on,,8,0,2,,,,,,,0,,,,62,127
95520,note_on,,0,0,2,,,,,,,0,,,,64,127
95520,note_on,,0,0,2,,,,,,,0,,,,68,127
95520,note_on,,8,0,4,,,,,,,1,,,,69,127
95520,note_on,,8,0,1,,,,,,,3,,,,69,127
95520,note_on,,488,0,3,,,,,,,2,,,,40,127
95752,note_off,,232,0,1,,,,,,,3,,,,69,64
95752,note_off,,232,0,4,,,,,,,1,,,,69,64
95752,note_off,,0,0,2,,,,,,,0,,,,62,64
95752,note_off,,232,0,2,,,,,,,0,,,,68,64
95752,note_off,,0,0,2,,,,,,,0,,,,64,64
95760,note_on,,8,0,2,,,,,,,0,,,,62,127
95760,note_on,,8,0,1,,,,,,,3,,,,71,127
95760,note_on,,8,0,4,,,,,,,1,,,,71,127
95760,note_on,,0,0,2,,,,,,,0,,,,68,127
95760,note_on,,0,0,2,,,,,,,0,,,,64,127
95872,note_off,,352,0,3,,,,,,,2,,,,40,64
95880,note_on,,8,0,3,,,,,,,2,,,,40,127
95992,note_off,,232,0,2,,,,,,,0,,,,68,64
95992,note_off,,112,0,3,,,,,,,2,,,,40,64
95992,note_off,,0,0,2,,,,,,,0,,,,64,64
95992,note_off,,0,0,2,,,,,,,0,,,,62,64
95992,note_off,,232,0,1,,,,,,,3,,,,71,64
95992,note_off,,232,0,4,,,,,,,1,,,,71,64
96000,note_on,,8,0,4,,,,,,,1,,,,69,127
96000,note_on,,8,0,2,,,,,,,0,,,,61,127
96000,note_on,,8,0,3,,,,,,,2,,,,45,127
96000,note_on,,0,0,2,,,,,,,0,,,,69,127
96000,note_on,,0,0,2,,,,,,,0,,,,64,127
96000,note_on,,8,0,1,,,,,,,3,,,,69,127
96232,note_off,,0,0,2,,,,,,,0,,,,61,64
96232,note_off,,0,0,2,,,,,,,0,,,,64,64
96232,note_off,,232,0,2,,,,,,,0,,,,69,64
96240,note_on,,0,0,2,,,,,,,0,,,,69,127
96240,note_on,,0,0,2,,,,,,,0,,,,64,127
96240,note_on,,8,0,2,,,,,,,0,,,,61,127
96472,note_off,,0,0,2,,,,,,,0,,,,64,64
96472,note_off,,232,0,2,,,,,,,0,,,,69,64
96472,note_off,,472,0,3,,,,,,,2,,,,45,64
96472,note_off,,0,0,2,,,,,,,0,,,,61,64
96480,note_on,,8,0,2,,,,,,,0,,,,61,127
96480,note_on,,0,0,2,,,,,,,0,,,,64,127
96480,note_on,,0,0,2,,,,,,,0,,,,69,127
96480,note_on,,8,0,3,,,,,,,2,,,,40,127
96712,note_off,,232,0,2,,,,,,,0,,,,69,64
96712,note_off,,0,0,2,,,,,,,0,,,,64,64
96712,note_off,,0,0,2,,,,,,,0,,,,61,64
96720,note_on,,0,0,2,,,,,,,0,,,,64,127
96720,note_on,,8,0,2,,,,,,,0,,,,61,127
96720,note_on,,0,0,2,,,,,,,0,,,,69,127
96952,note_off,,232,0,2,,,,,,,0,,,,69,64
96952,note_off,,0,0,2,,,,,,,0,,,,64,64
96952,note_off,,0,0,2,,,,,,,0,,,,61,64
96952,note_off,,472,0,3,,,,,,,2,,,,40,64
96960,note_on,,8,0,2,,,,,,,0,,,,61,127
96960,note_on,,0,0,2,,,,,,,0,,,,64,127
96960,note_on,,0,0,2,,,,,,,0,,,,69,127
97192,note_off,,0,0,2,,,,,,,0,,,,61,64
97192,note_off,,232,0,2,,,,,,,0,,,,69,64
97192,note_off,,0,0,2,,,,,,,0,,,,64,64
97200,note_on,,0,0,2,,,,,,,0,,,,64,127
97200,note_on,,0,0,2,,,,,,,0,,,,69,127
97200,note_on,,8,0,2,,,,,,,0,,,,61,127
97432,note_off,,1432,0,1,,,,,,,3,,,,69,64
97432,note_off,,0,0,2,,,,,,,0,,,,61,64
97432,note_off,,0,0,2,,,,,,,0,,,,64,64
97432,note_off,,232,0,2,,,,,,,0,,,,69,64
97432,note_off,,1432,0,4,,,,,,,1,,,,69,64
97440,note_on,,488,0,3,,,,,,,2,,,,45,127
97440,note_on,,0,0,2,,,,,,,0,,,,64,127
97440,note_on,,8,0,2,,,,,,,0,,,,61,127
97440,note_on,,0,0,2,,,,,,,0,,,,69,127
97672,note_off,,0,0,2,,,,,,,0,,,,61,64
97672,note_off,,0,0,2,,,,,,,0,,,,64,64
97672,note_off,,232,0,2,,,,,,,0,,,,69,64
97680,note_on,,0,0,2,,,,,,,0,,,,69,127
97680,note_on,,0,0,2,,,,,,,0,,,,64,127
97680,note_on,,8,0,2,,,,,,,0,,,,61,127
97792,note_off,,352,0,3,,,,,,,2,,,,45,64
97800,note_on,,8,0,3,,,,,,,2,,,,45,127
97912,note_off,,112,0,3,,,,,,,2,,,,45,64
97912,note_off,,0,0,2,,,,,,,0,,,,61,64
97912,note_off,,0,0,2,,,,,,,0,,,,64,64
97912,note_off,,232,0,2,,,,,,,0,,,,69,64
97920,note_on,,0,0,2,,,,,,,0,,,,64,127
97920,note_on,,8,0,2,,,,,,,0,,,,62,127
97920,note_on,,0,0,2,,,,,,,0,,,,69,127
97920,note_on,,8,0,3,,,,,,,2,,,,47,127
98152,note_off,,0,0,2,,,,,,,0,,,,64,64
98152,note_off,,0,0,2,,,,,,,0,,,,62,64
98152,note_off,,232,0,2,,,,,,,0,,,,69,64
98160,note_on,,8,0,2,,,,,,,0,,,,62,127
98160,note_on,,0,0,2,,,,,,,0,,,,64,127
98160,note_on,,0,0,2,,,,,,,0,,,,69,127
98392,note_off,,472,0,3,,,,,,,2,,,,47,64
98392,note_off,,232,0,2,,,,,,,0,,,,69,64
98392,note_off,,0,0,2,,,,,,,0,,,,64,64
98392,note_off,,0,0,2,,,,,,,0,,,,62,64
98400,note_on,,8,0,3,,,,,,,2,,,,40,127
98400,note_on,,0,0,2,,,,,,,0,,,,68,127
98400,note_on,,8,0,2,,,,,,,0,,,,62,127
98400,note_on,,0,0,2,,,,,,,0,,,,64,127
98632,note_off,,232,0,2,,,,,,,0,,,,68,64
98632,note_off,,0,0,2,,,,,,,0,,,,64,64
98632,note_off,,0,0,2,,,,,,,0,,,,62,64
98640,note_on,,8,0,2,,,,,,,0,,,,62,127
98640,note_on,,0,0,2,,,,,,,0,,,,64,127
98640,note_on,,0,0,2,,,,,,,0,,,,68,127
98872,note_off,,232,0,2,,,,,,,0,,,,68,64
98872,note_off,,0,0,2,,,,,,,0,,,,64,64
98872,note_off,,0,0,2,,,,,,,0,,,,62,64
98872,note_off,,472,0,3,,,,,,,2,,,,40,64
98880,note_on,,8,0,2,,,,,,,0,,,,62,127
98880,note_on,,0,0,2,,,,,,,0,,,,64,127
98880,note_on,,0,0,2,,,,,,,0,,,,68,127
99112,note_off,,232,0,2,,,,,,,0,,,,68,64
99112,note_off,,0,0,2,,,,,,,0,,,,64,64
99112,note_off,,0,0,2,,,,,,,0,,,,62,64
99120,note_on,,8,0,2,,,,,,,0,,,,62,127
99120,note_on,,0,0,2,,,,,,,0,,,,64,127
99120,note_on,,0,0,2,,,,,,,0,,,,68,127
99352,note_off,,232,0,2,,,,,,,0,,,,68,64
99352,note_off,,0,0,2,,,,,,,0,,,,64,64
99352,note_off,,0,0,2,,,,,,,0,,,,62,64
99360,note_on,,8,0,2,,,,,,,0,,,,62,127
99360,note_on,,0,0,2,,,,,,,0,,,,64,127
99360,note_on,,0,0,2,,,,,,,0,,,,68,127
99360,note_on,,488,0,3,,,,,,,2,,,,47,127
99592,note_off,,0,0,2,,,,,,,0,,,,64,64
99592,note_off,,232,0,2,,,,,,,0,,,,68,64
99592,note_off,,0,0,2,,,,,,,0,,,,62,64
99600,note_on,,8,0,2,,,,,,,0,,,,62,127
99600,note_on,,0,0,2,,,,,,,0,,,,68,127
99600,note_on,,0,0,2,,,,,,,0,,,,64,127
99712,note_off,,352,0,3,,,,,,,2,,,,47,64
99720,note_on,,8,0,3,,,,,,,2,,,,47,127
99832,note_off,,232,0,2,,,,,,,0,,,,68,64
99832,note_off,,0,0,2,,,,,,,0,,,,64,64
99832,note_off,,0,0,2,,,,,,,0,,,,62,64
99832,note_off,,112,0,3,,,,,,,2,,,,47,64
99840,note_on,,8,0,2,,,,,,,0,,,,64,127
99840,note_on,,0,0,2,,,,,,,0,,,,67,127
99840,note_on,,0,0,2,,,,,,,0,,,,70,127
99840,note_on,,8,0,3,,,,,,,2,,,,49,127
100072,note_off,,0,0,2,,,,,,,0,,,,64,64
100072,note_off,,0,0,2,,,,,,,0,,,,67,64
100072,note_off,,232,0,2,,,,,,,0,,,,70,64
100080,note_on,,0,0,2,,,,,,,0,,,,70,127
100080,note_on,,0,0,2,,,,,,,0,,,,67,127
100080,note_on,,8,0,2,,,,,,,0,,,,64,127
100312,note_off,,0,0,2,,,,,,,0,,,,67,64
100312,note_off,,232,0,2,,,,,,,0,,,,70,64
100312,note_off,,472,0,3,,,,,,,2,,,,49,64
100312,note_off,,0,0,2,,,,,,,0,,,,64,64
100320,note_on,,0,0,2,,,,,,,0,,,,67,127
100320,note_on,,8,0,3,,,,,,,2,,,,40,127
100320,note_on,,0,0,2,,,,,,,0,,,,70,127
100320,note_on,,8,0,2,,,,,,,0,,,,64,127
100552,note_off,,0,0,2,,,,,,,0,,,,64,64
100552,note_off,,0,0,2,,,,,,,0,,,,67,64
100552,note_off,,232,0,2,,,,,,,0,,,,70,64
100560,note_on,,0,0,2,,,,,,,0,,,,67,127
100560,note_on,,8,0,2,,,,,,,0,,,,64,127
100560,note_on,,0,0,2,,,,,,,0,,,,70,127
100672,note_off,,352,0,3,,,,,,,2,,,,40,64
100680,note_on,,8,0,3,,,,,,,2,,,,40,127
100792,note_off,,112,0,3,,,,,,,2,,,,40,64
100792,note_off,,232,0,2,,,,,,,0,,,,70,64
100792,note_off,,0,0,2,,,,,,,0,,,,67,64
100792,note_off,,0,0,2,,,,,,,0,,,,64,64
100800,note_on,,8,0,3,,,,,,,2,,,,50,127
100800,note_on,,8,0,2,,,,,,,0,,,,62,127
100800,note_on,,0,0,2,,,,,,,0,,,,66,127
100800,note_on,,0,0,2,,,,,,,0,,,,71,127
101032,note_off,,232,0,2,,,,,,,0,,,,71,64
101032,note_off,,0,0,2,,,,,,,0,,,,62,64
101032,note_off,,0,0,2,,,,,,,0,,,,66,64
101040,note_on,,8,0,2,,,,,,,0,,,,62,127
101040,note_on,,0,0,2,,,,,,,0,,,,66,127
101040,note_on,,0,0,2,,,,,,,0,,,,71,127
101272,note_off,,472,0,3,,,,,,,2,,,,50,64
101272,note_off,,232,0,2,,,,,,,0,,,,71,64
101272,note_off,,0,0,2,,,,,,,0,,,,66,64
101272,note_off,,0,0,2,,,,,,,0,,,,62,64
101280,note_on,,8,0,3,,,,,,,2,,,,40,127
101280,note_on,,8,0,2,,,,,,,0,,,,66,127
101280,note_on,,0,0,2,,,,,,,0,,,,71,127
101280,note_on,,0,0,2,,,,,,,0,,,,74,127
101512,note_off,,232,0,2,,,,,,,0,,,,74,64
101512,note_off,,0,0,2,,,,,,,0,,,,71,64
101512,note_off,,0,0,2,,,,,,,0,,,,66,64
101520,note_on,,8,0,2,,,,,,,0,,,,66,127
101520,note_on,,0,0,2,,,,,,,0,,,,71,127
101520,note_on,,0,0,2,,,,,,,0,,,,74,127
101632,note_off,,352,0,3,,,,,,,2,,,,40,64
101640,note_on,,8,0,3,,,,,,,2,,,,40,127
101752,note_off,,112,0,3,,,,,,,2,,,,40,64
101752,note_off,,232,0,2,,,,,,,0,,,,74,64
101752,note_off,,0,0,2,,,,,,,0,,,,71,64
101752,note_off,,0,0,2,,,,,,,0,,,,66,64
101760,note_on,,8,0,3,,,,,,,2,,,,52,127
101760,note_on,,0,0,2,,,,,,,0,,,,73,127
101760,note_on,,8,0,2,,,,,,,0,,,,64,127
101760,note_on,,0,0,2,,,,,,,0,,,,71,127
101992,note_off,,232,0,2,,,,,,,0,,,,73,64
101992,note_off,,0,0,2,,,,,,,0,,,,64,64
101992,note_off,,0,0,2,,,,,,,0,,,,71,64
102000,note_on,,8,0,2,,,,,,,0,,,,64,127
102000,note_on,,0,0,2,,,,,,,0,,,,71,127
102000,note_on,,0,0,2,,,,,,,0,,,,73,127
102232,note_off,,0,0,2,,,,,,,0,,,,64,64
102232,note_off,,232,0,2,,,,,,,0,,,,73,64
102232,note_off,,0,0,2,,,,,,,0,,,,71,64
102232,note_off,,472,0,3,,,,,,,2,,,,52,64
102240,note_on,,8,0,3,,,,,,,2,,,,40,127
102240,note_on,,0,0,2,,,,,,,0,,,,73,127
102240,note_on,,8,0,2,,,,,,,0,,,,64,127
102240,note_on,,0,0,2,,,,,,,0,,,,69,127
102472,note_off,,0,0,2,,,,,,,0,,,,64,64
102472,note_off,,232,0,2,,,,,,,0,,,,73,64
102472,note_off,,0,0,2,,,,,,,0,,,,69,64
102480,note_on,,8,0,2,,,,,,,0,,,,64,127
102480,note_on,,0,0,2,,,,,,,0,,,,69,127
102480,note_on,,0,0,2,,,,,,,0,,,,73,127
102712,note_off,,472,0,3,,,,,,,2,,,,40,64
102712,note_off,,0,0,2,,,,,,,0,,,,69,64
102712,note_off,,0,0,2,,,,,,,0,,,,64,64
102712,note_off,,232,0,2,,,,,,,0,,,,73,64
102720,note_on,,0,0,2,,,,,,,0,,,,71,127
102720,note_on,,0,0,2,,,,,,,0,,,,69,127
102720,note_on,,8,0,2,,,,,,,0,,,,64,127
102720,note_on,,8,0,3,,,,,,,2,,,,52,127
102952,note_off,,232,0,2,,,,,,,0,,,,71,64
102952,note_off,,0,0,2,,,,,,,0,,,,69,64
102952,note_off,,0,0,2,,,,,,,0,,,,64,64
102960,note_on,,8,0,2,,,,,,,0,,,,64,127
102960,note_on,,0,0,2,,,,,,,0,,,,69,127
102960,note_on,,0,0,2,,,,,,,0,,,,71,127
103192,note_off,,232,0,2,,,,,,,0,,,,71,64
103192,note_off,,0,0,2,,,,,,,0,,,,69,64
103192,note_off,,0,0,2,,,,,,,0,,,,64,64
103192,note_off,,472,0,3,,,,,,,2,,,,52,64
103200,note_on,,0,0,2,,,,,,,0,,,,68,127
103200,note_on,,8,0,2,,,,,,,0,,,,64,127
103200,note_on,,8,0,3,,,,,,,2,,,,40,127
103200,note_on,,0,0,2,,,,,,,0,,,,71,127
103432,note_off,,0,0,2,,,,,,,0,,,,64,64
103432,note_off,,232,0,2,,,,,,,0,,,,71,64
103432,note_off,,0,0,2,,,,,,,0,,,,68,64
103440,note_on,,0,0,2,,,,,,,0,,,,71,127
103440,note_on,,0,0,2,,,,,,,0,,,,68,127
103440,note_on,,8,0,2,,,,,,,0,,,,64,127
103552,note_off,,352,0,3,,,,,,,2,,,,40,64
103560,note_on,,8,0,3,,,,,,,2,,,,40,127
103672,note_off,,0,0,2,,,,,,,0,,,,68,64
103672,note_off,,0,0,2,,,,,,,0,,,,64,64
103672,note_off,,112,0,3,,,,,,,2,,,,40,64
103672,note_off,,232,0,2,,,,,,,0,,,,71,64
103680,note_on,,0,0,2,,,,,,,0,,,,69,127
103680,note_on,,0,0,2,,,,,,,0,,,,64,127
103680,note_on,,8,0,2,,,,,,,0,,,,61,127
103680,program_change,,6248,0,4,,,,,,,1,,,69,,
103680,note_on,,0,0,4,,,,,,,1,,,,73,127
103680,program_change,,6248,0,1,,,,,,,3,,,54,,
103680,note_on,,0,0,1,,,,,,,3,,,,73,127
103680,note_on,,8,0,3,,,,,,,2,,,,45,127
103912,note_off,,232,0,2,,,,,,,0,,,,69,64
103912,note_off,,0,0,2,,,,,,,0,,,,64,64
103912,note_off,,0,0,2,,,,,,,0,,,,61,64
103920,note_on,,8,0,2,,,,,,,0,,,,61,127
103920,note_on,,0,0,2,,,,,,,0,,,,64,127
103920,note_on,,0,0,2,,,,,,,0,,,,69,127
104152,note_off,,0,0,2,,,,,,,0,,,,61,64
104152,note_off,,0,0,2,,,,,,,0,,,,64,64
104152,note_off,,472,0,3,,,,,,,2,,,,45,64
104152,note_off,,232,0,2,,,,,,,0,,,,69,64
104160,note_on,,8,0,3,,,,,,,2,,,,40,127
104160,note_on,,0,0,2,,,,,,,0,,,,69,127
104160,note_on,,0,0,2,,,,,,,0,,,,64,127
104160,note_on,,8,0,2,,,,,,,0,,,,61,127
104392,note_off,,0,0,2,,,,,,,0,,,,64,64
104392,note_off,,232,0,2,,,,,,,0,,,,69,64
104392,note_off,,0,0,2,,,,,,,0,,,,61,64
104400,note_on,,8,0,2,,,,,,,0,,,,61,127
104400,note_on,,0,0,2,,,,,,,0,,,,64,127
104400,note_on,,0,0,2,,,,,,,0,,,,69,127
104632,note_off,,0,0,2,,,,,,,0,,,,64,64
104632,note_off,,472,0,3,,,,,,,2,,,,40,64
104632,note_off,,232,0,2,,,,,,,0,,,,69,64
104632,note_off,,0,0,2,,,,,,,0,,,,61,64
104640,note_on,,0,0,2,,,,,,,0,,,,69,127
104640,note_on,,8,0,2,,,,,,,0,,,,61,127
104640,note_on,,0,0,2,,,,,,,0,,,,64,127
104872,note_off,,0,0,2,,,,,,,0,,,,61,64
104872,note_off,,0,0,2,,,,,,,0,,,,64,64
104872,note_off,,232,0,2,,,,,,,0,,,,69,64
104880,note_on,,0,0,2,,,,,,,0,,,,64,127
104880,note_on,,0,0,2,,,,,,,0,,,,69,127
104880,note_on,,8,0,2,,,,,,,0,,,,61,127
105112,note_off,,0,0,2,,,,,,,0,,,,64,64
105112,note_off,,232,0,2,,,,,,,0,,,,69,64
105112,note_off,,1432,0,4,,,,,,,1,,,,73,64
105112,note_off,,0,0,2,,,,,,,0,,,,61,64
105112,note_off,,1432,0,1,,,,,,,3,,,,73,64
105120,note_on,,8,0,1,,,,,,,3,,,,69,127
105120,note_on,,8,0,2,,,,,,,0,,,,61,127
105120,note_on,,0,0,2,,,,,,,0,,,,64,127
105120,note_on,,0,0,2,,,,,,,0,,,,69,127
105120,note_on,,488,0,3,,,,,,,2,,,,45,127
105120,note_on,,8,0,4,,,,,,,1,,,,69,127
105352,note_off,,232,0,2,,,,,,,0,,,,69,64
105352,note_off,,0,0,2,,,,,,,0,,,,64,64
105352,note_off,,0,0,2,,,,,,,0,,,,61,64
105360,note_on,,8,0,2,,,,,,,0,,,,61,127
105360,note_on,,0,0,2,,,,,,,0,,,,64,127
105360,note_on,,0,0,2,,,,,,,0,,,,69,127
105472,note_off,,352,0,3,,,,,,,2,,,,45,64
105480,note_on,,8,0,3,,,,,,,2,,,,45,127
105592,note_off,,472,0,4,,,,,,,1,,,,69,64
105592,note_off,,112,0,3,,,,,,,2,,,,45,64
105592,note_off,,472,0,1,,,,,,,3,,,,69,64
105592,note_off,,0,0,2,,,,,,,0,,,,61,64
105592,note_off,,0,0,2,,,,,,,0,,,,64,64
105592,note_off,,232,0,2,,,,,,,0,,,,69,64
105600,note_on,,8,0,1,,,,,,,3,,,,69,127
105600,note_on,,0,0,2,,,,,,,0,,,,64,127
105600,note_on,,8,0,4,,,,,,,1,,,,69,127
105600,note_on,,8,0,3,,,,,,,2,,,,47,127
105600,note_on,,0,0,2,,,,,,,0,,,,69,127
105600,note_on,,8,0,2,,,,,,,0,,,,62,127
105832,note_off,,232,0,2,,,,,,,0,,,,69,64
105832,note_off,,0,0,2,,,,,,,0,,,,62,64
105832,note_off,,0,0,2,,,,,,,0,,,,64,64
105840,note_on,,0,0,2,,,,,,,0,,,,69,127
105840,note_on,,0,0,2,,,,,,,0,,,,64,127
105840,note_on,,8,0,2,,,,,,,0,,,,62,127
106072,note_off,,472,0,3,,,,,,,2,,,,47,64
106072,note_off,,0,0,2,,,,,,,0,,,,64,64
106072,note_off,,472,0,4,,,,,,,1,,,,69,64
106072,note_off,,472,0,1,,,,,,,3,,,,69,64
106072,note_off,,0,0,2,,,,,,,0,,,,62,64
106072,note_off,,232,0,2,,,,,,,0,,,,69,64
106080,note_on,,8,0,2,,,,,,,0,,,,62,127
106080,note_on,,0,0,2,,,,,,,0,,,,68,127
106080,note_on,,8,0,4,,,,,,,1,,,,68,127
106080,note_on,,8,0,3,,,,,,,2,,,,40,127
106080,note_on,,8,0,1,,,,,,,3,,,,68,127
106080,note_on,,0,0,2,,,,,,,0,,,,64,127
106312,note_off,,232,0,2,,,,,,,0,,,,68,64
106312,note_off,,0,0,2,,,,,,,0,,,,64,64
106312,note_off,,0,0,2,,,,,,,0,,,,62,64
106320,note_on,,0,0,2,,,,,,,0,,,,68,127
106320,note_on,,8,0,2,,,,,,,0,,,,62,127
106320,note_on,,0,0,2,,,,,,,0,,,,64,127
106552,note_off,,472,0,1,,,,,,,3,,,,68,64
106552,note_off,,472,0,3,,,,,,,2,,,,40,64
106552,note_off,,472,0,4,,,,,,,1,,,,68,64
106552,note_off,,232,0,2,,,,,,,0,,,,68,64
106552,note_off,,0,0,2,,,,,,,0,,,,64,64
106552,note_off,,0,0,2,,,,,,,0,,,,62,64
106560,note_on,,8,0,2,,,,,,,0,,,,62,127
106560,note_on,,0,0,2,,,,,,,0,,,,68,127
106560,note_on,,0,0,2,,,,,,,0,,,,64,127
106792,note_off,,0,0,2,,,,,,,0,,,,62,64
106792,note_off,,232,0,2,,,,,,,0,,,,68,64
106792,note_off,,0,0,2,,,,,,,0,,,,64,64
106800,note_on,,8,0,2,,,,,,,0,,,,62,127
106800,note_on,,0,0,2,,,,,,,0,,,,64,127
106800,note_on,,0,0,2,,,,,,,0,,,,68,127
107032,note_off,,0,0,2,,,,,,,0,,,,62,64
107032,note_off,,232,0,2,,,,,,,0,,,,68,64
107032,note_off,,0,0,2,,,,,,,0,,,,64,64
107040,note_on,,8,0,2,,,,,,,0,,,,59,127
107040,note_on,,488,0,3,,,,,,,2,,,,47,127
107040,note_on,,0,0,2,,,,,,,0,,,,62,127
107040,note_on,,0,0,2,,,,,,,0,,,,65,127
107040,note_on,,0,0,2,,,,,,,0,,,,68,127
107272,note_off,,0,0,2,,,,,,,0,,,,65,64
107272,note_off,,0,0,2,,,,,,,0,,,,62,64
107272,note_off,,0,0,2,,,,,,,0,,,,59,64
107272,note_off,,232,0,2,,,,,,,0,,,,68,64
107280,note_on,,8,0,2,,,,,,,0,,,,59,127
107280,note_on,,0,0,2,,,,,,,0,,,,62,127
107280,note_on,,0,0,2,,,,,,,0,,,,65,127
107280,note_on,,0,0,2,,,,,,,0,,,,68,127
107392,note_off,,352,0,3,,,,,,,2,,,,47,64
107400,note_on,,8,0,3,,,,,,,2,,,,47,127
107512,note_off,,0,0,2,,,,,,,0,,,,59,64
107512,note_off,,0,0,2,,,,,,,0,,,,62,64
107512,note_off,,232,0,2,,,,,,,0,,,,68,64
107512,note_off,,0,0,2,,,,,,,0,,,,65,64
107512,note_off,,112,0,3,,,,,,,2,,,,47,64
107520,note_on,,8,0,3,,,,,,,2,,,,50,127
107520,note_on,,968,0,4,,,,,,,1,,,,69,127
107520,note_on,,8,0,2,,,,,,,0,,,,57,127
107520,note_on,,0,0,2,,,,,,,0,,,,62,127
107520,note_on,,0,0,2,,,,,,,0,,,,66,127
107520,note_on,,0,0,2,,,,,,,0,,,,69,127
107520,note_on,,968,0,1,,,,,,,3,,,,69,127
107752,note_off,,0,0,2,,,,,,,0,,,,62,64
107752,note_off,,232,0,2,,,,,,,0,,,,69,64
107752,note_off,,0,0,2,,,,,,,0,,,,66,64
107752,note_off,,0,0,2,,,,,,,0,,,,57,64
107760,note_on,,0,0,2,,,,,,,0,,,,66,127
107760,note_on,,0,0,2,,,,,,,0,,,,62,127
107760,note_on,,8,0,2,,,,,,,0,,,,57,127
107760,note_on,,0,0,2,,,,,,,0,,,,69,127
107992,note_off,,232,0,2,,,,,,,0,,,,69,64
107992,note_off,,472,0,3,,,,,,,2,,,,50,64
107992,note_off,,0,0,2,,,,,,,0,,,,62,64
107992,note_off,,0,0,2,,,,,,,0,,,,57,64
107992,note_off,,0,0,2,,,,,,,0,,,,66,64
108000,note_on,,8,0,3,,,,,,,2,,,,38,127
108000,note_on,,8,0,2,,,,,,,0,,,,57,127
108000,note_on,,0,0,2,,,,,,,0,,,,62,127
108000,note_on,,0,0,2,,,,,,,0,,,,66,127
108000,note_on,,0,0,2,,,,,,,0,,,,69,127
108232,note_off,,232,0,2,,,,,,,0,,,,69,64
108232,note_off,,0,0,2,,,,,,,0,,,,66,64
108232,note_off,,0,0,2,,,,,,,0,,,,62,64
108232,note_off,,0,0,2,,,,,,,0,,,,57,64
108240,note_on,,0,0,2,,,,,,,0,,,,62,127
108240,note_on,,0,0,2,,,,,,,0,,,,66,127
108240,note_on,,0,0,2,,,,,,,0,,,,69,127
108240,note_on,,8,0,2,,,,,,,0,,,,57,127
108472,note_off,,232,0,2,,,,,,,0,,,,69,64
108472,note_off,,0,0,2,,,,,,,0,,,,66,64
108472,note_off,,0,0,2,,,,,,,0,,,,62,64
108472,note_off,,0,0,2,,,,,,,0,,,,57,64
108472,note_off,,472,0,3,,,,,,,2,,,,38,64
108480,note_on,,8,0,2,,,,,,,0,,,,57,127
108480,note_on,,0,0,2,,,,,,,0,,,,62,127
108480,note_on,,0,0,2,,,,,,,0,,,,66,127
108480,note_on,,0,0,2,,,,,,,0,,,,69,127
108712,note_off,,0,0,2,,,,,,,0,,,,62,64
108712,note_off,,0,0,2,,,,,,,0,,,,66,64
108712,note_off,,0,0,2,,,,,,,0,,,,57,64
108712,note_off,,232,0,2,,,,,,,0,,,,69,64
108720,note_on,,8,0,2,,,,,,,0,,,,57,127
108720,note_on,,0,0,2,,,,,,,0,,,,62,127
108720,note_on,,0,0,2,,,,,,,0,,,,66,127
108720,note_on,,0,0,2,,,,,,,0,,,,69,127
108952,note_off,,1432,0,1,,,,,,,3,,,,69,64
108952,note_off,,232,0,2,,,,,,,0,,,,69,64
108952,note_off,,0,0,2,,,,,,,0,,,,66,64
108952,note_off,,0,0,2,,,,,,,0,,,,62,64
108952,note_off,,0,0,2,,,,,,,0,,,,57,64
108952,note_off,,1432,0,4,,,,,,,1,,,,69,64
108960,note_on,,8,0,1,,,,,,,3,,,,66,127
108960,note_on,,8,0,4,,,,,,,1,,,,66,127
108960,note_on,,0,0,2,,,,,,,0,,,,62,127
108960,note_on,,0,0,2,,,,,,,0,,,,66,127
108960,note_on,,8,0,2,,,,,,,0,,,,57,127
108960,note_on,,488,0,3,,,,,,,2,,,,42,127
109192,note_off,,0,0,2,,,,,,,0,,,,57,64
109192,note_off,,232,0,2,,,,,,,0,,,,66,64
109192,note_off,,0,0,2,,,,,,,0,,,,62,64
109200,note_on,,8,0,2,,,,,,,0,,,,57,127
109200,note_on,,0,0,2,,,,,,,0,,,,62,127
109200,note_on,,0,0,2,,,,,,,0,,,,66,127
109312,note_off,,352,0,3,,,,,,,2,,,,42,64
109320,note_on,,8,0,3,,,,,,,2,,,,42,127
109432,note_off,,0,0,2,,,,,,,0,,,,57,64
109432,note_off,,0,0,2,,,,,,,0,,,,62,64
109432,note_off,,472,0,1,,,,,,,3,,,,66,64
109432,note_off,,112,0,3,,,,,,,2,,,,42,64
109432,note_off,,232,0,2,,,,,,,0,,,,66,64
109432,note_off,,472,0,4,,,,,,,1,,,,66,64
109440,note_on,,0,0,2,,,,,,,0,,,,66,127
109440,note_on,,8,0,2,,,,,,,0,,,,57,127
109440,note_on,,8,0,4,,,,,,,1,,,,66,127
109440,note_on,,0,0,2,,,,,,,0,,,,62,127
109440,note_on,,8,0,3,,,,,,,2,,,,45,127
109440,note_on,,8,0,1,,,,,,,3,,,,66,127
109672,note_off,,0,0,2,,,,,,,0,,,,62,64
109672,note_off,,0,0,2,,,,,,,0,,,,57,64
109672,note_off,,232,0,2,,,,,,,0,,,,66,64
109680,note_on,,0,0,2,,,,,,,0,,,,62,127
109680,note_on,,8,0,2,,,,,,,0,,,,57,127
109680,note_on,,0,0,2,,,,,,,0,,,,66,127
109912,note_off,,0,0,2,,,,,,,0,,,,62,64
109912,note_off,,232,0,2,,,,,,,0,,,,66,64
109912,note_off,,472,0,1,,,,,,,3,,,,66,64
109912,note_off,,472,0,3,,,,,,,2,,,,45,64
109912,note_off,,472,0,4,,,,,,,1,,,,66,64
109912,note_off,,0,0,2,,,,,,,0,,,,57,64
109920,note_on,,0,0,2,,,,,,,0,,,,61,127
109920,note_on,,0,0,2,,,,,,,0,,,,64,127
109920,note_on,,8,0,2,,,,,,,0,,,,57,127
109920,note_on,,8,0,4,,,,,,,1,,,,64,127
109920,note_on,,8,0,1,,,,,,,3,,,,64,127
109920,note_on,,8,0,3,,,,,,,2,,,,33,127
110152,note_off,,0,0,2,,,,,,,0,,,,57,64
110152,note_off,,232,0,2,,,,,,,0,,,,64,64
110152,note_off,,0,0,2,,,,,,,0,,,,61,64
110160,note_on,,0,0,2,,,,,,,0,,,,64,127
110160,note_on,,8,0,2,,,,,,,0,,,,57,127
110160,note_on,,0,0,2,,,,,,,0,,,,61,127
110392,note_off,,472,0,4,,,,,,,1,,,,64,64
110392,note_off,,472,0,1,,,,,,,3,,,,64,64
110392,note_off,,0,0,2,,,,,,,0,,,,61,64
110392,note_off,,0,0,2,,,,,,,0,,,,57,64
110392,note_off,,472,0,3,,,,,,,2,,,,33,64
110392,note_off,,232,0,2,,,,,,,0,,,,64,64
110400,note_on,,8,0,2,,,,,,,0,,,,57,127
110400,note_on,,0,0,2,,,,,,,0,,,,61,127
110400,note_on,,0,0,2,,,,,,,0,,,,64,127
110632,note_off,,232,0,2,,,,,,,0,,,,64,64
110632,note_off,,0,0,2,,,,,,,0,,,,61,64
110632,note_off,,0,0,2,,,,,,,0,,,,57,64
110640,note_on,,8,0,2,,,,,,,0,,,,57,127
110640,note_on,,0,0,2,,,,,,,0,,,,61,127
110640,note_on,,0,0,2,,,,,,,0,,,,64,127
110872,note_off,,0,0,2,,,,,,,0,,,,57,64
110872,note_off,,232,0,2,,,,,,,0,,,,64,64
110872,note_off,,0,0,2,,,,,,,0,,,,61,64
110880,note_on,,488,0,4,,,,,,,1,,,,69,127
110880,note_on,,488,0,3,,,,,,,2,,,,49,127
110880,note_on,,488,0,1,,,,,,,3,,,,69,127
110880,note_on,,0,0,2,,,,,,,0,,,,64,127
110880,note_on,,0,0,2,,,,,,,0,,,,61,127
110880,note_on,,8,0,2,,,,,,,0,,,,57,127
111112,note_off,,0,0,2,,,,,,,0,,,,61,64
111112,note_off,,0,0,2,,,,,,,0,,,,57,64
111112,note_off,,232,0,2,,,,,,,0,,,,64,64
111120,note_on,,8,0,2,,,,,,,0,,,,57,127
111120,note_on,,0,0,2,,,,,,,0,,,,61,127
111120,note_on,,0,0,2,,,,,,,0,,,,64,127
111232,note_off,,352,0,3,,,,,,,2,,,,49,64
111240,note_on,,8,0,3,,,,,,,2,,,,49,127
111352,note_off,,232,0,2,,,,,,,0,,,,64,64
111352,note_off,,472,0,4,,,,,,,1,,,,69,64
111352,note_off,,112,0,3,,,,,,,2,,,,49,64
111352,note_off,,472,0,1,,,,,,,3,,,,69,64
111352,note_off,,0,0,2,,,,,,,0,,,,61,64
111352,note_off,,0,0,2,,,,,,,0,,,,57,64
111360,note_on,,0,0,2,,,,,,,0,,,,59,127
111360,note_on,,8,0,1,,,,,,,3,,,,68,127
111360,note_on,,8,0,3,,,,,,,2,,,,52,127
111360,note_on,,8,0,4,,,,,,,1,,,,68,127
111360,note_on,,8,0,2,,,,,,,0,,,,56,127
111360,note_on,,0,0,2,,,,,,,0,,,,64,127
111592,note_off,,0,0,2,,,,,,,0,,,,56,64
111592,note_off,,0,0,2,,,,,,,0,,,,59,64
111592,note_off,,232,0,2,,,,,,,0,,,,64,64
111600,note_on,,8,0,2,,,,,,,0,,,,56,127
111600,note_on,,0,0,2,,,,,,,0,,,,59,127
111600,note_on,,0,0,2,,,,,,,0,,,,64,127
111832,note_off,,232,0,2,,,,,,,0,,,,64,64
111832,note_off,,472,0,4,,,,,,,1,,,,68,64
111832,note_off,,0,0,2,,,,,,,0,,,,59,64
111832,note_off,,472,0,1,,,,,,,3,,,,68,64
111832,note_off,,0,0,2,,,,,,,0,,,,56,64
111832,note_off,,472,0,3,,,,,,,2,,,,52,64
111840,note_on,,8,0,2,,,,,,,0,,,,56,127
111840,note_on,,0,0,2,,,,,,,0,,,,64,127
111840,note_on,,0,0,2,,,,,,,0,,,,59,127
111840,note_on,,8,0,1,,,,,,,3,,,,71,127
111840,note_on,,8,0,3,,,,,,,2,,,,50,127
111840,note_on,,8,0,4,,,,,,,1,,,,71,127
112072,note_off,,0,0,2,,,,,,,0,,,,59,64
112072,note_off,,232,0,2,,,,,,,0,,,,64,64
112072,note_off,,0,0,2,,,,,,,0,,,,56,64
112080,note_on,,8,0,2,,,,,,,0,,,,56,127
112080,note_on,,0,0,2,,,,,,,0,,,,59,127
112080,note_on,,0,0,2,,,,,,,0,,,,64,127
112312,note_off,,472,0,3,,,,,,,2,,,,50,64
112312,note_off,,472,0,4,,,,,,,1,,,,71,64
112312,note_off,,0,0,2,,,,,,,0,,,,56,64
112312,note_off,,472,0,1,,,,,,,3,,,,71,64
112312,note_off,,0,0,2,,,,,,,0,,,,59,64
112312,note_off,,232,0,2,,,,,,,0,,,,64,64
112320,note_on,,8,0,2,,,,,,,0,,,,57,127
112320,note_on,,8,0,1,,,,,,,3,,,,69,127
112320,note_on,,8,0,4,,,,,,,1,,,,69,127
112320,note_on,,8,0,3,,,,,,,2,,,,49,127
112320,note_on,,0,0,2,,,,,,,0,,,,61,127
112320,note_on,,0,0,2,,,,,,,0,,,,64,127
112552,note_off,,232,0,2,,,,,,,0,,,,64,64
112552,note_off,,0,0,2,,,,,,,0,,,,61,64
112552,note_off,,0,0,2,,,,,,,0,,,,57,64
112560,note_on,,0,0,2,,,,,,,0,,,,61,127
112560,note_on,,0,0,2,,,,,,,0,,,,64,127
112560,note_on,,8,0,2,,,,,,,0,,,,57,127
112792,note_off,,0,0,2,,,,,,,0,,,,61,64
112792,note_off,,0,0,2,,,,,,,0,,,,57,64
112792,note_off,,472,0,3,,,,,,,2,,,,49,64
112792,note_off,,472,0,4,,,,,,,1,,,,69,64
112792,note_off,,472,0,1,,,,,,,3,,,,69,64
112792,note_off,,232,0,2,,,,,,,0,,,,64,64
112800,note_on,,0,0,2,,,,,,,0,,,,64,127
112800,note_on,,8,0,3,,,,,,,2,,,,45,127
112800,note_on,,8,0,2,,,,,,,0,,,,57,127
112800,note_on,,0,0,2,,,,,,,0,,,,61,127
112800,note_on,,8,0,4,,,,,,,1,,,,73,127
112800,note_on,,8,0,1,,,,,,,3,,,,73,127
113032,note_off,,232,0,2,,,,,,,0,,,,64,64
113032,note_off,,0,0,2,,,,,,,0,,,,57,64
113032,note_off,,0,0,2,,,,,,,0,,,,61,64
113040,note_on,,0,0,2,,,,,,,0,,,,61,127
113040,note_on,,0,0,2,,,,,,,0,,,,64,127
113040,note_on,,8,0,2,,,,,,,0,,,,57,127
113272,note_off,,0,0,2,,,,,,,0,,,,61,64
113272,note_off,,472,0,1,,,,,,,3,,,,73,64
113272,note_off,,232,0,2,,,,,,,0,,,,64,64
113272,note_off,,472,0,4,,,,,,,1,,,,73,64
113272,note_off,,0,0,2,,,,,,,0,,,,57,64
113272,note_off,,472,0,3,,,,,,,2,,,,45,64
113280,note_on,,0,0,2,,,,,,,0,,,,64,127
113280,note_on,,0,0,2,,,,,,,0,,,,62,127
113280,note_on,,8,0,3,,,,,,,2,,,,40,127
113280,note_on,,8,0,1,,,,,,,3,,,,76,127
113280,note_on,,8,0,2,,,,,,,0,,,,57,127
113280,note_on,,8,0,4,,,,,,,1,,,,76,127
113280,note_on,,0,0,2,,,,,,,0,,,,59,127
113512,note_off,,0,0,2,,,,,,,0,,,,59,64
113512,note_off,,0,0,2,,,,,,,0,,,,57,64
113512,note_off,,0,0,2,,,,,,,0,,,,62,64
113512,note_off,,232,0,2,,,,,,,0,,,,64,64
113520,note_on,,0,0,2,,,,,,,0,,,,64,127
113520,note_on,,0,0,2,,,,,,,0,,,,62,127
113520,note_on,,0,0,2,,,,,,,0,,,,59,127
113520,note_on,,8,0,2,,,,,,,0,,,,57,127
113752,note_off,,232,0,2,,,,,,,0,,,,64,64
113752,note_off,,0,0,2,,,,,,,0,,,,59,64
113752,note_off,,0,0,2,,,,,,,0,,,,57,64
113752,note_off,,0,0,2,,,,,,,0,,,,62,64
113760,note_on,,0,0,2,,,,,,,0,,,,64,127
113760,note_on,,8,0,2,,,,,,,0,,,,56,127
113760,note_on,,0,0,2,,,,,,,0,,,,59,127
113760,note_on,,0,0,2,,,,,,,0,,,,59,127
113760,note_on,,0,0,2,,,,,,,0,,,,62,127
113992,note_off,,232,0,2,,,,,,,0,,,,64,64
113992,note_off,,0,0,2,,,,,,,0,,,,59,64
113992,note_off,,0,0,2,,,,,,,0,,,,59,64
113992,note_off,,0,0,2,,,,,,,0,,,,56,64
113992,note_off,,0,0,2,,,,,,,0,,,,62,64
114000,note_on,,8,0,2,,,,,,,0,,,,56,127
114000,note_on,,0,0,2,,,,,,,0,,,,59,127
114000,note_on,,0,0,2,,,,,,,0,,,,62,127
114000,note_on,,0,0,2,,,,,,,0,,,,62,127
114000,note_on,,0,0,2,,,,,,,0,,,,62,127
114000,note_on,,0,0,2,,,,,,,0,,,,64,127
114232,note_off,,232,0,2,,,,,,,0,,,,64,64
114232,note_off,,0,0,2,,,,,,,0,,,,62,64
114232,note_off,,0,0,2,,,,,,,0,,,,62,64
114232,note_off,,0,0,2,,,,,,,0,,,,62,64
114232,note_off,,0,0,2,,,,,,,0,,,,59,64
114232,note_off,,0,0,2,,,,,,,0,,,,56,64
114232,note_off,,952,0,1,,,,,,,3,,,,76,64
114232,note_off,,952,0,4,,,,,,,1,,,,76,64
114232,note_off,,952,0,3,,,,,,,2,,,,40,64
114240,note_on,,0,0,2,,,,,,,0,,,,61,127
114240,note_on,,8,0,2,,,,,,,0,,,,57,127
114240,note_on,,8,0,1,,,,,,,3,,,,73,127
114240,note_on,,8,0,4,,,,,,,1,,,,73,127
114240,note_on,,0,0,2,,,,,,,0,,,,64,127
114240,note_on,,8,0,3,,,,,,,2,,,,45,127
114472,note_off,,0,0,2,,,,,,,0,,,,61,64
114472,note_off,,0,0,2,,,,,,,0,,,,57,64
114472,note_off,,232,0,2,,,,,,,0,,,,64,64
114480,note_on,,0,0,2,,,,,,,0,,,,64,127
114480,note_on,,8,0,2,,,,,,,0,,,,57,127
114480,note_on,,0,0,2,,,,,,,0,,,,61,127
114712,note_off,,472,0,4,,,,,,,1,,,,73,64
114712,note_off,,0,0,2,,,,,,,0,,,,57,64
114712,note_off,,472,0,1,,,,,,,3,,,,73,64
114712,note_off,,0,0,2,,,,,,,0,,,,61,64
114712,note_off,,472,0,3,,,,,,,2,,,,45,64
114712,note_off,,232,0,2,,,,,,,0,,,,64,64
114720,note_on,,8,0,2,,,,,,,0,,,,57,127
114720,note_on,,0,0,2,,,,,,,0,,,,61,127
114720,note_on,,0,0,2,,,,,,,0,,,,64,127
114952,note_off,,0,0,2,,,,,,,0,,,,61,64
114952,note_off,,0,0,2,,,,,,,0,,,,57,64
114952,note_off,,232,0,2,,,,,,,0,,,,64,64
114960,note_on,,0,0,2,,,,,,,0,,,,61,127
114960,note_on,,0,0,2,,,,,,,0,,,,64,127
114960,note_on,,8,0,2,,,,,,,0,,,,57,127
115192,note_off,,232,0,2,,,,,,,0,,,,64,64
115192,note_off,,0,0,2,,,,,,,0,,,,61,64
115192,note_off,,0,0,2,,,,,,,0,,,,57,64
115200,note_on,,488,0,3,,,,,,,2,,,,76,127
115200,note_on,,8,0,2,,,,,,,0,,,,57,127
115200,note_on,,0,0,2,,,,,,,0,,,,59,127
115200,note_on,,0,0,2,,,,,,,0,,,,62,127
115200,note_on,,0,0,2,,,,,,,0,,,,64,127
115432,note_off,,232,0,2,,,,,,,0,,,,64,64
115432,note_off,,0,0,2,,,,,,,0,,,,62,64
115432,note_off,,0,0,2,,,,,,,0,,,,59,64
115432,note_off,,0,0,2,,,,,,,0,,,,57,64
115440,note_on,,8,0,2,,,,,,,0,,,,57,127
115440,note_on,,0,0,2,,,,,,,0,,,,59,127
115440,note_on,,0,0,2,,,,,,,0,,,,62,127
115440,note_on,,0,0,2,,,,,,,0,,,,64,127
115672,note_off,,232,0,2,,,,,,,0,,,,64,64
115672,note_off,,0,0,2,,,,,,,0,,,,62,64
115672,note_off,,0,0,2,,,,,,,0,,,,59,64
115672,note_off,,0,0,2,,,,,,,0,,,,57,64
115680,note_on,,8,0,2,,,,,,,0,,,,56,127
115680,note_on,,0,0,2,,,,,,,0,,,,59,127
115680,note_on,,0,0,2,,,,,,,0,,,,59,127
115680,note_on,,0,0,2,,,,,,,0,,,,62,127
115680,note_on,,0,0,2,,,,,,,0,,,,64,127
115912,note_off,,232,0,2,,,,,,,0,,,,64,64
115912,note_off,,0,0,2,,,,,,,0,,,,62,64
115912,note_off,,0,0,2,,,,,,,0,,,,59,64
115912,note_off,,0,0,2,,,,,,,0,,,,59,64
115912,note_off,,0,0,2,,,,,,,0,,,,56,64
115920,note_on,,8,0,2,,,,,,,0,,,,56,127
115920,note_on,,0,0,2,,,,,,,0,,,,59,127
115920,note_on,,0,0,2,,,,,,,0,,,,62,127
115920,note_on,,0,0,2,,,,,,,0,,,,62,127
115920,note_on,,0,0,2,,,,,,,0,,,,64,127
115920,note_on,,0,0,2,,,,,,,0,,,,62,127
116152,note_off,,952,0,3,,,,,,,2,,,,76,64
116152,note_off,,0,0,2,,,,,,,0,,,,62,64
116152,note_off,,0,0,2,,,,,,,0,,,,62,64
116152,note_off,,0,0,2,,,,,,,0,,,,59,64
116152,note_off,,0,0,2,,,,,,,0,,,,56,64
116152,note_off,,0,0,2,,,,,,,0,,,,62,64
116152,note_off,,232,0,2,,,,,,,0,,,,64,64
116160,note_on,,8,0,3,,,,,,,2,,,,73,127
116160,note_on,,8,0,2,,,,,,,0,,,,57,127
116160,note_on,,0,0,2,,,,,,,0,,,,61,127
116160,note_on,,0,0,2,,,,,,,0,,,,64,127
116392,note_off,,232,0,2,,,,,,,0,,,,64,64
116392,note_off,,0,0,2,,,,,,,0,,,,61,64
116392,note_off,,0,0,2,,,,,,,0,,,,57,64
116400,note_on,,0,0,2,,,,,,,0,,,,61,127
116400,note_on,,8,0,2,,,,,,,0,,,,57,127
116400,note_on,,0,0,2,,,,,,,0,,,,64,127
116632,note_off,,0,0,2,,,,,,,0,,,,57,64
116632,note_off,,232,0,2,,,,,,,0,,,,64,64
116632,note_off,,0,0,2,,,,,,,0,,,,61,64
116632,note_off,,472,0,3,,,,,,,2,,,,73,64
116640,note_on,,8,0,2,,,,,,,0,,,,61,127
116640,note_on,,0,0,2,,,,,,,0,,,,64,127
116640,note_on,,0,0,2,,,,,,,0,,,,69,127
116872,note_off,,232,0,2,,,,,,,0,,,,69,64
116872,note_off,,0,0,2,,,,,,,0,,,,64,64
116872,note_off,,0,0,2,,,,,,,0,,,,61,64
116880,note_on,,0,0,2,,,,,,,0,,,,69,127
116880,note_on,,0,0,2,,,,,,,0,,,,64,127
116880,note_on,,8,0,2,,,,,,,0,,,,61,127
117112,note_off,,232,0,2,,,,,,,0,,,,69,64
117112,note_off,,0,0,2,,,,,,,0,,,,61,64
117112,note_off,,0,0,2,,,,,,,0,,,,64,64
117120,note_on,,488,0,3,,,,,,,2,,,,49,127
117120,note_on,,2408,0,4,,,,,,,1,,,,76,127
117120,note_on,,8,0,2,,,,,,,0,,,,64,127
117120,note_on,,0,0,2,,,,,,,0,,,,73,127
117120,note_on,,0,0,2,,,,,,,0,,,,68,127
117120,note_on,,2408,0,1,,,,,,,3,,,,76,127
117352,note_off,,232,0,2,,,,,,,0,,,,73,64
117352,note_off,,0,0,2,,,,,,,0,,,,68,64
117352,note_off,,0,0,2,,,,,,,0,,,,64,64
117360,note_on,,8,0,2,,,,,,,0,,,,64,127
117360,note_on,,0,0,2,,,,,,,0,,,,68,127
117360,note_on,,0,0,2,,,,,,,0,,,,73,127
117592,note_off,,0,0,2,,,,,,,0,,,,68,64
117592,note_off,,232,0,2,,,,,,,0,,,,73,64
117592,note_off,,472,0,3,,,,,,,2,,,,49,64
117592,note_off,,0,0,2,,,,,,,0,,,,64,64
117600,note_on,,0,0,2,,,,,,,0,,,,73,127
117600,note_on,,0,0,2,,,,,,,0,,,,68,127
117600,note_on,,8,0,2,,,,,,,0,,,,64,127
117600,note_on,,8,0,3,,,,,,,2,,,,44,127
117832,note_off,,232,0,2,,,,,,,0,,,,73,64
117832,note_off,,0,0,2,,,,,,,0,,,,68,64
117832,note_off,,0,0,2,,,,,,,0,,,,64,64
117840,note_on,,0,0,2,,,,,,,0,,,,68,127
117840,note_on,,8,0,2,,,,,,,0,,,,64,127
117840,note_on,,0,0,2,,,,,,,0,,,,73,127
118072,note_off,,0,0,2,,,,,,,0,,,,64,64
118072,note_off,,0,0,2,,,,,,,0,,,,68,64
118072,note_off,,472,0,3,,,,,,,2,,,,44,64
118072,note_off,,952,0,1,,,,,,,3,,,,76,64
118072,note_off,,952,0,4,,,,,,,1,,,,76,64
118072,note_off,,232,0,2,,,,,,,0,,,,73,64
118080,note_on,,8,0,2,,,,,,,0,,,,64,127
118080,note_on,,0,0,2,,,,,,,0,,,,68,127
118080,note_on,,0,0,2,,,,,,,0,,,,73,127
118312,note_off,,0,0,2,,,,,,,0,,,,64,64
118312,note_off,,0,0,2,,,,,,,0,,,,68,64
118312,note_off,,232,0,2,,,,,,,0,,,,73,64
118320,note_on,,8,0,2,,,,,,,0,,,,64,127
118320,note_on,,0,0,2,,,,,,,0,,,,73,127
118320,note_on,,0,0,2,,,,,,,0,,,,68,127
118552,note_off,,0,0,2,,,,,,,0,,,,64,64
118552,note_off,,0,0,2,,,,,,,0,,,,68,64
118552,note_off,,232,0,2,,,,,,,0,,,,73,64
118560,note_on,,488,0,3,,,,,,,2,,,,49,127
118560,note_on,,0,0,2,,,,,,,0,,,,68,127
118560,note_on,,8,0,2,,,,,,,0,,,,64,127
118560,note_on,,488,0,1,,,,,,,3,,,,73,127
118560,note_on,,488,0,4,,,,,,,1,,,,73,127
118560,note_on,,0,0,2,,,,,,,0,,,,73,127
118792,note_off,,0,0,2,,,,,,,0,,,,68,64
118792,note_off,,232,0,2,,,,,,,0,,,,73,64
118792,note_off,,0,0,2,,,,,,,0,,,,64,64
118800,note_on,,0,0,2,,,,,,,0,,,,73,127
118800,note_on,,0,0,2,,,,,,,0,,,,68,127
118800,note_on,,8,0,2,,,,,,,0,,,,64,127
118912,note_off,,352,0,3,,,,,,,2,,,,49,64
118920,note_on,,8,0,3,,,,,,,2,,,,49,127
119032,note_off,,0,0,2,,,,,,,0,,,,68,64
119032,note_off,,0,0,2,,,,,,,0,,,,64,64
119032,note_off,,232,0,2,,,,,,,0,,,,73,64
119032,note_off,,112,0,3,,,,,,,2,,,,49,64
119032,note_off,,472,0,1,,,,,,,3,,,,73,64
119032,note_off,,472,0,4,,,,,,,1,,,,73,64
119040,note_on,,8,0,4,,,,,,,1,,,,73,127
119040,note_on,,0,0,2,,,,,,,0,,,,73,127
119040,note_on,,0,0,2,,,,,,,0,,,,68,127
119040,note_on,,8,0,2,,,,,,,0,,,,66,127
119040,note_on,,8,0,1,,,,,,,3,,,,73,127
119040,note_on,,8,0,3,,,,,,,2,,,,51,127
119272,note_off,,232,0,2,,,,,,,0,,,,73,64
119272,note_off,,0,0,2,,,,,,,0,,,,66,64
119272,note_off,,0,0,2,,,,,,,0,,,,68,64
119280,note_on,,0,0,2,,,,,,,0,,,,73,127
119280,note_on,,0,0,2,,,,,,,0,,,,68,127
119280,note_on,,8,0,2,,,,,,,0,,,,66,127
119512,note_off,,472,0,1,,,,,,,3,,,,73,64
119512,note_off,,232,0,2,,,,,,,0,,,,73,64
119512,note_off,,472,0,4,,,,,,,1,,,,73,64
119512,note_off,,0,0,2,,,,,,,0,,,,66,64
119512,note_off,,472,0,3,,,,,,,2,,,,51,64
119512,note_off,,0,0,2,,,,,,,0,,,,68,64
119520,note_on,,8,0,3,,,,,,,2,,,,44,127
119520,note_on,,8,0,1,,,,,,,3,,,,72,127
119520,note_on,,8,0,4,,,,,,,1,,,,72,127
119520,note_on,,0,0,2,,,,,,,0,,,,72,127
119520,note_on,,0,0,2,,,,,,,0,,,,68,127
119520,note_on,,8,0,2,,,,,,,0,,,,66,127
119752,note_off,,0,0,2,,,,,,,0,,,,68,64
119752,note_off,,232,0,2,,,,,,,0,,,,72,64
119752,note_off,,0,0,2,,,,,,,0,,,,66,64
119760,note_on,,8,0,2,,,,,,,0,,,,66,127
119760,note_on,,0,0,2,,,,,,,0,,,,68,127
119760,note_on,,0,0,2,,,,,,,0,,,,72,127
119992,note_off,,472,0,3,,,,,,,2,,,,44,64
119992,note_off,,0,0,2,,,,,,,0,,,,68,64
119992,note_off,,472,0,4,,,,,,,1,,,,72,64
119992,note_off,,0,0,2,,,,,,,0,,,,66,64
119992,note_off,,472,0,1,,,,,,,3,,,,72,64
119992,note_off,,232,0,2,,,,,,,0,,,,72,64
120000,note_on,,0,0,2,,,,,,,0,,,,72,127
120000,note_on,,0,0,2,,,,,,,0,,,,68,127
120000,note_on,,8,0,2,,,,,,,0,,,,66,127
120232,note_off,,0,0,2,,,,,,,0,,,,66,64
120232,note_off,,0,0,2,,,,,,,0,,,,68,64
120232,note_off,,232,0,2,,,,,,,0,,,,72,64
120240,note_on,,8,0,2,,,,,,,0,,,,66,127
120240,note_on,,0,0,2,,,,,,,0,,,,72,127
120240,note_on,,0,0,2,,,,,,,0,,,,68,127
120472,note_off,,0,0,2,,,,,,,0,,,,68,64
120472,note_off,,0,0,2,,,,,,,0,,,,66,64
120472,note_off,,232,0,2,,,,,,,0,,,,72,64
120480,note_on,,8,0,2,,,,,,,0,,,,64,127
120480,note_on,,0,0,2,,,,,,,0,,,,68,127
120480,note_on,,0,0,2,,,,,,,0,,,,73,127
120480,note_on,,488,0,3,,,,,,,2,,,,52,127
120480,note_on,,488,0,1,,,,,,,3,,,,75,127
120480,note_on,,488,0,4,,,,,,,1,,,,75,127
120712,note_off,,232,0,1,,,,,,,3,,,,75,64
120712,note_off,,232,0,4,,,,,,,1,,,,75,64
120712,note_off,,0,0,2,,,,,,,0,,,,64,64
120712,note_off,,232,0,2,,,,,,,0,,,,73,64
120712,note_off,,0,0,2,,,,,,,0,,,,68,64
120720,note_on,,8,0,2,,,,,,,0,,,,64,127
120720,note_on,,0,0,2,,,,,,,0,,,,73,127
120720,note_on,,0,0,2,,,,,,,0,,,,68,127
120720,note_on,,8,0,1,,,,,,,3,,,,73,127
120720,note_on,,8,0,4,,,,,,,1,,,,73,127
120832,note_off,,352,0,3,,,,,,,2,,,,52,64
120840,note_on,,8,0,3,,,,,,,2,,,,52,127
120952,note_off,,232,0,2,,,,,,,0,,,,73,64
120952,note_off,,232,0,1,,,,,,,3,,,,73,64
120952,note_off,,0,0,2,,,,,,,0,,,,64,64
120952,note_off,,0,0,2,,,,,,,0,,,,68,64
120952,note_off,,112,0,3,,,,,,,2,,,,52,64
120952,note_off,,232,0,4,,,,,,,1,,,,73,64
120960,note_on,,8,0,1,,,,,,,3,,,,71,127
120960,note_on,,8,0,3,,,,,,,2,,,,54,127
120960,note_on,,8,0,4,,,,,,,1,,,,71,127
120960,note_on,,8,0,2,,,,,,,0,,,,63,127
120960,note_on,,0,0,2,,,,,,,0,,,,69,127
120960,note_on,,0,0,2,,,,,,,0,,,,71,127
121192,note_off,,232,0,2,,,,,,,0,,,,71,64
121192,note_off,,0,0,2,,,,,,,0,,,,69,64
121192,note_off,,0,0,2,,,,,,,0,,,,63,64
121200,note_on,,0,0,2,,,,,,,0,,,,71,127
121200,note_on,,8,0,2,,,,,,,0,,,,63,127
121200,note_on,,0,0,2,,,,,,,0,,,,69,127
121432,note_off,,472,0,3,,,,,,,2,,,,54,64
121432,note_off,,232,0,2,,,,,,,0,,,,71,64
121432,note_off,,0,0,2,,,,,,,0,,,,69,64
121432,note_off,,0,0,2,,,,,,,0,,,,63,64
121440,note_on,,8,0,2,,,,,,,0,,,,63,127
121440,note_on,,0,0,2,,,,,,,0,,,,69,127
121440,note_on,,0,0,2,,,,,,,0,,,,71,127
121440,note_on,,8,0,3,,,,,,,2,,,,47,127
121672,note_off,,0,0,2,,,,,,,0,,,,63,64
121672,note_off,,0,0,2,,,,,,,0,,,,69,64
121672,note_off,,232,0,2,,,,,,,0,,,,71,64
121680,note_on,,0,0,2,,,,,,,0,,,,69,127
121680,note_on,,0,0,2,,,,,,,0,,,,71,127
121680,note_on,,8,0,2,,,,,,,0,,,,63,127
121912,note_off,,0,0,2,,,,,,,0,,,,63,64
121912,note_off,,0,0,2,,,,,,,0,,,,69,64
121912,note_off,,232,0,2,,,,,,,0,,,,71,64
121912,note_off,,472,0,3,,,,,,,2,,,,47,64
121920,note_on,,0,0,2,,,,,,,0,,,,71,127
121920,note_on,,0,0,2,,,,,,,0,,,,69,127
121920,note_on,,8,0,2,,,,,,,0,,,,63,127
122152,note_off,,232,0,2,,,,,,,0,,,,71,64
122152,note_off,,0,0,2,,,,,,,0,,,,69,64
122152,note_off,,0,0,2,,,,,,,0,,,,63,64
122160,note_on,,8,0,2,,,,,,,0,,,,63,127
122160,note_on,,0,0,2,,,,,,,0,,,,69,127
122160,note_on,,0,0,2,,,,,,,0,,,,71,127
122392,note_off,,232,0,2,,,,,,,0,,,,71,64
122392,note_off,,0,0,2,,,,,,,0,,,,63,64
122392,note_off,,0,0,2,,,,,,,0,,,,69,64
122392,note_off,,1432,0,4,,,,,,,1,,,,71,64
122392,note_off,,1432,0,1,,,,,,,3,,,,71,64
122400,note_on,,0,0,2,,,,,,,0,,,,69,127
122400,note_on,,8,0,1,,,,,,,3,,,,66,127
122400,note_on,,8,0,2,,,,,,,0,,,,66,127
122400,note_on,,8,0,4,,,,,,,1,,,,66,127
122400,note_on,,0,0,2,,,,,,,0,,,,71,127
122400,note_on,,488,0,3,,,,,,,2,,,,51,127
122632,note_off,,0,0,2,,,,,,,0,,,,69,64
122632,note_off,,232,0,2,,,,,,,0,,,,71,64
122632,note_off,,0,0,2,,,,,,,0,,,,66,64
122640,note_on,,8,0,2,,,,,,,0,,,,66,127
122640,note_on,,0,0,2,,,,,,,0,,,,71,127
122640,note_on,,0,0,2,,,,,,,0,,,,69,127
122752,note_off,,352,0,3,,,,,,,2,,,,51,64
122760,note_on,,8,0,3,,,,,,,2,,,,51,127
122872,note_off,,0,0,2,,,,,,,0,,,,69,64
122872,note_off,,472,0,4,,,,,,,1,,,,66,64
122872,note_off,,112,0,3,,,,,,,2,,,,51,64
122872,note_off,,472,0,1,,,,,,,3,,,,66,64
122872,note_off,,0,0,2,,,,,,,0,,,,66,64
122872,note_off,,232,0,2,,,,,,,0,,,,71,64
122880,note_on,,0,0,2,,,,,,,0,,,,71,127
122880,note_on,,8,0,4,,,,,,,1,,,,69,127
122880,note_on,,8,0,1,,,,,,,3,,,,69,127
122880,note_on,,8,0,3,,,,,,,2,,,,52,127
122880,note_on,,8,0,2,,,,,,,0,,,,66,127
122880,note_on,,0,0,2,,,,,,,0,,,,69,127
123112,note_off,,232,0,2,,,,,,,0,,,,71,64
123112,note_off,,0,0,2,,,,,,,0,,,,66,64
123112,note_off,,0,0,2,,,,,,,0,,,,69,64
123120,note_on,,0,0,2,,,,,,,0,,,,69,127
123120,note_on,,8,0,2,,,,,,,0,,,,66,127
123120,note_on,,0,0,2,,,,,,,0,,,,71,127
123352,note_off,,0,0,2,,,,,,,0,,,,69,64
123352,note_off,,472,0,3,,,,,,,2,,,,52,64
123352,note_off,,472,0,1,,,,,,,3,,,,69,64
123352,note_off,,0,0,2,,,,,,,0,,,,66,64
123352,note_off,,232,0,2,,,,,,,0,,,,71,64
123352,note_off,,472,0,4,,,,,,,1,,,,69,64
123360,note_on,,8,0,2,,,,,,,0,,,,64,127
123360,note_on,,0,0,2,,,,,,,0,,,,71,127
123360,note_on,,8,0,4,,,,,,,1,,,,68,127
123360,note_on,,0,0,2,,,,,,,0,,,,68,127
123360,note_on,,8,0,3,,,,,,,2,,,,40,127
123360,note_on,,8,0,1,,,,,,,3,,,,68,127
123592,note_off,,232,0,2,,,,,,,0,,,,71,64
123592,note_off,,0,0,2,,,,,,,0,,,,68,64
123592,note_off,,0,0,2,,,,,,,0,,,,64,64
123600,note_on,,8,0,2,,,,,,,0,,,,64,127
123600,note_on,,0,0,2,,,,,,,0,,,,68,127
123600,note_on,,0,0,2,,,,,,,0,,,,71,127
123832,note_off,,232,0,2,,,,,,,0,,,,71,64
123832,note_off,,472,0,3,,,,,,,2,,,,40,64
123832,note_off,,0,0,2,,,,,,,0,,,,68,64
123832,note_off,,472,0,4,,,,,,,1,,,,68,64
123832,note_off,,0,0,2,,,,,,,0,,,,64,64
123832,note_off,,472,0,1,,,,,,,3,,,,68,64
123840,note_on,,0,0,2,,,,,,,0,,,,71,127
123840,note_on,,0,0,2,,,,,,,0,,,,68,127
123840,note_on,,8,0,2,,,,,,,0,,,,64,127
124072,note_off,,232,0,2,,,,,,,0,,,,71,64
124072,note_off,,0,0,2,,,,,,,0,,,,68,64
124072,note_off,,0,0,2,,,,,,,0,,,,64,64
124080,note_on,,8,0,2,,,,,,,0,,,,64,127
124080,note_on,,0,0,2,,,,,,,0,,,,68,127
124080,note_on,,0,0,2,,,,,,,0,,,,71,127
124312,note_off,,232,0,2,,,,,,,0,,,,71,64
124312,note_off,,0,0,2,,,,,,,0,,,,68,64
124312,note_off,,0,0,2,,,,,,,0,,,,64,64
124320,note_on,,488,0,4,,,,,,,1,,,,64,127
124320,note_on,,488,0,1,,,,,,,3,,,,64,127
124320,note_on,,8,0,2,,,,,,,0,,,,64,127
124320,note_on,,0,0,2,,,,,,,0,,,,71,127
124320,note_on,,488,0,3,,,,,,,2,,,,52,127
124320,note_on,,0,0,2,,,,,,,0,,,,68,127
124552,note_off,,0,0,2,,,,,,,0,,,,64,64
124552,note_off,,0,0,2,,,,,,,0,,,,68,64
124552,note_off,,232,0,2,,,,,,,0,,,,71,64
124560,note_on,,8,0,2,,,,,,,0,,,,64,127
124560,note_on,,0,0,2,,,,,,,0,,,,68,127
124560,note_on,,0,0,2,,,,,,,0,,,,71,127
124672,note_off,,352,0,3,,,,,,,2,,,,52,64
124680,note_on,,8,0,3,,,,,,,2,,,,52,127
124792,note_off,,232,0,2,,,,,,,0,,,,71,64
124792,note_off,,0,0,2,,,,,,,0,,,,68,64
124792,note_off,,112,0,3,,,,,,,2,,,,52,64
124792,note_off,,472,0,1,,,,,,,3,,,,64,64
124792,note_off,,0,0,2,,,,,,,0,,,,64,64
124792,note_off,,472,0,4,,,,,,,1,,,,64,64
124800,note_on,,8,0,3,,,,,,,2,,,,56,127
124800,note_on,,8,0,1,,,,,,,3,,,,71,127
124800,note_on,,0,0,2,,,,,,,0,,,,68,127
124800,note_on,,0,0,2,,,,,,,0,,,,71,127
124800,note_on,,8,0,4,,,,,,,1,,,,71,127
124800,note_on,,8,0,2,,,,,,,0,,,,64,127
125032,note_off,,232,0,2,,,,,,,0,,,,71,64
125032,note_off,,0,0,2,,,,,,,0,,,,68,64
125032,note_off,,0,0,2,,,,,,,0,,,,64,64
125040,note_on,,8,0,2,,,,,,,0,,,,64,127
125040,note_on,,0,0,2,,,,,,,0,,,,68,127
125040,note_on,,0,0,2,,,,,,,0,,,,71,127
125272,note_off,,472,0,4,,,,,,,1,,,,71,64
125272,note_off,,472,0,1,,,,,,,3,,,,71,64
125272,note_off,,472,0,3,,,,,,,2,,,,56,64
125272,note_off,,232,0,2,,,,,,,0,,,,71,64
125272,note_off,,0,0,2,,,,,,,0,,,,68,64
125272,note_off,,0,0,2,,,,,,,0,,,,64,64
125280,note_on,,8,0,4,,,,,,,1,,,,68,127
125280,note_on,,8,0,2,,,,,,,0,,,,64,127
125280,note_on,,0,0,2,,,,,,,0,,,,68,127
125280,note_on,,0,0,2,,,,,,,0,,,,71,127
125280,note_on,,8,0,1,,,,,,,3,,,,68,127
125280,note_on,,8,0,3,,,,,,,2,,,,52,127
125512,note_off,,232,0,2,,,,,,,0,,,,71,64
125512,note_off,,0,0,2,,,,,,,0,,,,68,64
125512,note_off,,0,0,2,,,,,,,0,,,,64,64
125520,note_on,,0,0,2,,,,,,,0,,,,68,127
125520,note_on,,8,0,2,,,,,,,0,,,,64,127
125520,note_on,,0,0,2,,,,,,,0,,,,71,127
125752,note_off,,472,0,1,,,,,,,3,,,,68,64
125752,note_off,,472,0,3,,,,,,,2,,,,52,64
125752,note_off,,232,0,2,,,,,,,0,,,,71,64
125752,note_off,,0,0,2,,,,,,,0,,,,68,64
125752,note_off,,0,0,2,,,,,,,0,,,,64,64
125752,note_off,,472,0,4,,,,,,,1,,,,68,64
125760,note_on,,8,0,3,,,,,,,2,,,,47,127
125760,note_on,,8,0,4,,,,,,,1,,,,74,127
125760,note_on,,0,0,2,,,,,,,0,,,,71,127
125760,note_on,,0,0,2,,,,,,,0,,,,68,127
125760,note_on,,8,0,2,,,,,,,0,,,,64,127
125760,note_on,,8,0,1,,,,,,,3,,,,74,127
125992,note_off,,0,0,2,,,,,,,0,,,,64,64
125992,note_off,,0,0,2,,,,,,,0,,,,68,64
125992,note_off,,232,0,2,,,,,,,0,,,,71,64
126000,note_on,,0,0,2,,,,,,,0,,,,71,127
126000,note_on,,0,0,2,,,,,,,0,,,,68,127
126000,note_on,,8,0,2,,,,,,,0,,,,64,127
126232,note_off,,0,0,2,,,,,,,0,,,,68,64
126232,note_off,,232,0,2,,,,,,,0,,,,71,64
126232,note_off,,0,0,2,,,,,,,0,,,,64,64
126232,note_off,,472,0,3,,,,,,,2,,,,47,64
126232,note_off,,472,0,4,,,,,,,1,,,,74,64
126232,note_off,,472,0,1,,,,,,,3,,,,74,64
126240,note_on,,8,0,3,,,,,,,2,,,,52,127
126240,note_on,,8,0,1,,,,,,,3,,,,71,127
126240,note_on,,8,0,4,,,,,,,1,,,,71,127
126240,note_on,,8,0,2,,,,,,,0,,,,64,127
126240,note_on,,0,0,2,,,,,,,0,,,,68,127
126240,note_on,,0,0,2,,,,,,,0,,,,71,127
126472,note_off,,0,0,2,,,,,,,0,,,,64,64
126472,note_off,,0,0,2,,,,,,,0,,,,68,64
126472,note_off,,232,0,2,,,,,,,0,,,,71,64
126480,note_on,,0,0,2,,,,,,,0,,,,71,127
126480,note_on,,0,0,2,,,,,,,0,,,,68,127
126480,note_on,,8,0,2,,,,,,,0,,,,64,127
126712,note_off,,232,0,2,,,,,,,0,,,,71,64
126712,note_off,,0,0,2,,,,,,,0,,,,64,64
126712,note_off,,472,0,4,,,,,,,1,,,,71,64
126712,note_off,,0,0,2,,,,,,,0,,,,68,64
126712,note_off,,472,0,3,,,,,,,2,,,,52,64
126712,note_off,,472,0,1,,,,,,,3,,,,71,64
126720,note_on,,0,0,2,,,,,,,0,,,,74,127
126720,note_on,,0,0,2,,,,,,,0,,,,71,127
126720,note_on,,8,0,2,,,,,,,0,,,,64,127
126720,note_on,,8,0,1,,,,,,,3,,,,78,127
126720,note_on,,8,0,3,,,,,,,2,,,,44,127
126720,note_on,,8,0,4,,,,,,,1,,,,78,127
126952,note_off,,232,0,2,,,,,,,0,,,,74,64
126952,note_off,,0,0,2,,,,,,,0,,,,71,64
126952,note_off,,0,0,2,,,,,,,0,,,,64,64
126960,note_on,,8,0,2,,,,,,,0,,,,64,127
126960,note_on,,0,0,2,,,,,,,0,,,,71,127
126960,note_on,,0,0,2,,,,,,,0,,,,74,127
127192,note_off,,232,0,2,,,,,,,0,,,,74,64
127192,note_off,,0,0,2,,,,,,,0,,,,71,64
127192,note_off,,0,0,2,,,,,,,0,,,,64,64
127200,note_on,,0,0,2,,,,,,,0,,,,74,127
127200,note_on,,0,0,2,,,,,,,0,,,,71,127
127200,note_on,,8,0,2,,,,,,,0,,,,64,127
127432,note_off,,232,0,2,,,,,,,0,,,,74,64
127432,note_off,,0,0,2,,,,,,,0,,,,71,64
127432,note_off,,0,0,2,,,,,,,0,,,,64,64
127432,note_off,,712,0,1,,,,,,,3,,,,78,64
127432,note_off,,712,0,3,,,,,,,2,,,,44,64
127432,note_off,,712,0,4,,,,,,,1,,,,78,64
127440,note_on,,8,0,4,,,,,,,1,,,,74,127
127440,note_on,,8,0,3,,,,,,,2,,,,47,127
127440,note_on,,0,0,2,,,,,,,0,,,,74,127
127440,note_on,,0,0,2,,,,,,,0,,,,71,127
127440,note_on,,8,0,2,,,,,,,0,,,,64,127
127440,note_on,,8,0,1,,,,,,,3,,,,74,127
127672,note_off,,0,0,2,,,,,,,0,,,,64,64
127672,note_off,,232,0,1,,,,,,,3,,,,74,64
127672,note_off,,232,0,2,,,,,,,0,,,,74,64
127672,note_off,,232,0,4,,,,,,,1,,,,74,64
127672,note_off,,232,0,3,,,,,,,2,,,,47,64
127672,note_off,,0,0,2,,,,,,,0,,,,71,64
127680,note_on,,8,0,4,,,,,,,1,,,,71,127
127680,note_on,,8,0,1,,,,,,,3,,,,71,127
127680,note_on,,8,0,3,,,,,,,2,,,,52,127
127680,note_on,,0,0,2,,,,,,,0,,,,74,127
127680,note_on,,0,0,2,,,,,,,0,,,,71,127
127680,note_on,,8,0,2,,,,,,,0,,,,64,127
127912,note_off,,0,0,2,,,,,,,0,,,,64,64
127912,note_off,,0,0,2,,,,,,,0,,,,71,64
127912,note_off,,232,0,2,,,,,,,0,,,,74,64
127920,note_on,,0,0,2,,,,,,,0,,,,71,127
127920,note_on,,8,0,2,,,,,,,0,,,,64,127
127920,note_on,,0,0,2,,,,,,,0,,,,74,127
128152,note_off,,0,0,2,,,,,,,0,,,,71,64
128152,note_off,,232,0,2,,,,,,,0,,,,74,64
128152,note_off,,472,0,1,,,,,,,3,,,,71,64
128152,note_off,,472,0,4,,,,,,,1,,,,71,64
128152,note_off,,472,0,3,,,,,,,2,,,,52,64
128152,note_off,,0,0,2,,,,,,,0,,,,64,64
128160,note_on,,0,0,2,,,,,,,0,,,,74,127
128160,note_on,,0,0,2,,,,,,,0,,,,71,127
128160,note_on,,8,0,2,,,,,,,0,,,,64,127
128392,note_off,,0,0,2,,,,,,,0,,,,64,64
128392,note_off,,0,0,2,,,,,,,0,,,,71,64
128392,note_off,,232,0,2,,,,,,,0,,,,74,64
128400,note_on,,0,0,2,,,,,,,0,,,,71,127
128400,note_on,,8,0,2,,,,,,,0,,,,64,127
128400,note_on,,0,0,2,,,,,,,0,,,,74,127
128632,note_off,,0,0,2,,,,,,,0,,,,71,64
128632,note_off,,232,0,2,,,,,,,0,,,,74,64
128632,note_off,,0,0,2,,,,,,,0,,,,64,64
128640,note_on,,0,0,2,,,,,,,0,,,,69,127
128640,note_on,,0,0,2,,,,,,,0,,,,74,127
128640,note_on,,0,0,2,,,,,,,0,,,,71,127
128640,note_on,,488,0,3,,,,,,,2,,,,78,127
128640,note_on,,8,0,2,,,,,,,0,,,,64,127
128872,note_off,,232,0,2,,,,,,,0,,,,74,64
128872,note_off,,0,0,2,,,,,,,0,,,,71,64
128872,note_off,,0,0,2,,,,,,,0,,,,69,64
128872,note_off,,0,0,2,,,,,,,0,,,,64,64
128880,note_on,,0,0,2,,,,,,,0,,,,69,127
128880,note_on,,8,0,2,,,,,,,0,,,,64,127
128880,note_on,,0,0,2,,,,,,,0,,,,71,127
128880,note_on,,0,0,2,,,,,,,0,,,,74,127
129112,note_off,,0,0,2,,,,,,,0,,,,64,64
129112,note_off,,0,0,2,,,,,,,0,,,,69,64
129112,note_off,,232,0,2,,,,,,,0,,,,74,64
129112,note_off,,0,0,2,,,,,,,0,,,,71,64
129120,note_on,,0,0,2,,,,,,,0,,,,74,127
129120,note_on,,0,0,2,,,,,,,0,,,,71,127
129120,note_on,,8,0,2,,,,,,,0,,,,64,127
129120,note_on,,0,0,2,,,,,,,0,,,,69,127
129352,note_off,,232,0,2,,,,,,,0,,,,74,64
129352,note_off,,0,0,2,,,,,,,0,,,,71,64
129352,note_off,,0,0,2,,,,,,,0,,,,69,64
129352,note_off,,0,0,2,,,,,,,0,,,,64,64
129360,note_on,,0,0,2,,,,,,,0,,,,74,127
129360,note_on,,8,0,2,,,,,,,0,,,,64,127
129360,note_on,,0,0,2,,,,,,,0,,,,69,127
129360,note_on,,0,0,2,,,,,,,0,,,,71,127
129592,note_off,,0,0,2,,,,,,,0,,,,69,64
129592,note_off,,952,0,3,,,,,,,2,,,,78,64
129592,note_off,,232,0,2,,,,,,,0,,,,74,64
129592,note_off,,0,0,2,,,,,,,0,,,,71,64
129592,note_off,,0,0,2,,,,,,,0,,,,64,64
129600,note_on,,8,0,3,,,,,,,2,,,,76,127
129600,note_on,,0,0,2,,,,,,,0,,,,71,127
129600,note_on,,8,0,2,,,,,,,0,,,,64,127
129600,note_on,,0,0,2,,,,,,,0,,,,68,127
129600,note_on,,0,0,2,,,,,,,0,,,,74,127
129832,note_off,,0,0,2,,,,,,,0,,,,71,64
129832,note_off,,0,0,2,,,,,,,0,,,,68,64
129832,note_off,,0,0,2,,,,,,,0,,,,64,64
129832,note_off,,232,0,2,,,,,,,0,,,,74,64
129840,note_on,,8,0,2,,,,,,,0,,,,64,127
129840,note_on,,0,0,2,,,,,,,0,,,,68,127
129840,note_on,,0,0,2,,,,,,,0,,,,71,127
129840,note_on,,0,0,2,,,,,,,0,,,,74,127
130072,note_off,,232,0,2,,,,,,,0,,,,74,64
130072,note_off,,0,0,2,,,,,,,0,,,,71,64
130072,note_off,,0,0,2,,,,,,,0,,,,68,64
130072,note_off,,0,0,2,,,,,,,0,,,,64,64
130072,note_off,,472,0,3,,,,,,,2,,,,76,64
130080,note_on,,0,0,2,,,,,,,0,,,,68,127
130080,note_on,,0,0,2,,,,,,,0,,,,71,127
130080,note_on,,0,0,2,,,,,,,0,,,,74,127
130080,note_on,,8,0,2,,,,,,,0,,,,64,127
130312,note_off,,232,0,2,,,,,,,0,,,,74,64
130312,note_off,,0,0,2,,,,,,,0,,,,71,64
130312,note_off,,0,0,2,,,,,,,0,,,,68,64
130312,note_off,,0,0,2,,,,,,,0,,,,64,64
130320,note_on,,8,0,2,,,,,,,0,,,,64,127
130320,note_on,,0,0,2,,,,,,,0,,,,68,127
130320,note_on,,0,0,2,,,,,,,0,,,,71,127
130320,note_on,,0,0,2,,,,,,,0,,,,74,127
130552,note_off,,0,0,2,,,,,,,0,,,,68,64
130552,note_off,,232,0,2,,,,,,,0,,,,74,64
130552,note_off,,0,0,2,,,,,,,0,,,,71,64
130552,note_off,,0,0,2,,,,,,,0,,,,64,64
130560,note_on,,2408,0,4,,,,,,,1,,,,76,127
130560,note_on,,2408,0,1,,,,,,,3,,,,76,127
130560,note_on,,8,0,2,,,,,,,0,,,,64,127
130560,note_on,,0,0,2,,,,,,,0,,,,69,127
130560,note_on,,0,0,2,,,,,,,0,,,,73,127
130560,note_on,,488,0,3,,,,,,,2,,,,45,127
130792,note_off,,232,0,2,,,,,,,0,,,,73,64
130792,note_off,,0,0,2,,,,,,,0,,,,69,64
130792,note_off,,0,0,2,,,,,,,0,,,,64,64
130800,note_on,,0,0,2,,,,,,,0,,,,73,127
130800,note_on,,8,0,2,,,,,,,0,,,,64,127
130800,note_on,,0,0,2,,,,,,,0,,,,69,127
131032,note_off,,232,0,2,,,,,,,0,,,,73,64
131032,note_off,,0,0,2,,,,,,,0,,,,69,64
131032,note_off,,0,0,2,,,,,,,0,,,,64,64
131032,note_off,,472,0,3,,,,,,,2,,,,45,64
131040,note_on,,8,0,3,,,,,,,2,,,,49,127
131040,note_on,,8,0,2,,,,,,,0,,,,64,127
131040,note_on,,0,0,2,,,,,,,0,,,,69,127
131040,note_on,,0,0,2,,,,,,,0,,,,73,127
131272,note_off,,232,0,2,,,,,,,0,,,,73,64
131272,note_off,,0,0,2,,,,,,,0,,,,69,64
131272,note_off,,0,0,2,,,,,,,0,,,,64,64
131280,note_on,,0,0,2,,,,,,,0,,,,69,127
131280,note_on,,8,0,2,,,,,,,0,,,,64,127
131280,note_on,,0,0,2,,,,,,,0,,,,73,127
131512,note_off,,232,0,2,,,,,,,0,,,,73,64
131512,note_off,,0,0,2,,,,,,,0,,,,69,64
131512,note_off,,0,0,2,,,,,,,0,,,,64,64
131512,note_off,,472,0,3,,,,,,,2,,,,49,64
131520,note_on,,8,0,2,,,,,,,0,,,,64,127
131520,note_on,,0,0,2,,,,,,,0,,,,69,127
131520,note_on,,0,0,2,,,,,,,0,,,,73,127
131752,note_off,,232,0,2,,,,,,,0,,,,73,64
131752,note_off,,0,0,2,,,,,,,0,,,,69,64
131752,note_off,,0,0,2,,,,,,,0,,,,64,64
131760,note_on,,0,0,2,,,,,,,0,,,,73,127
131760,note_on,,0,0,2,,,,,,,0,,,,69,127
131760,note_on,,8,0,2,,,,,,,0,,,,64,127
131992,note_off,,0,0,2,,,,,,,0,,,,69,64
131992,note_off,,1432,0,1,,,,,,,3,,,,76,64
131992,note_off,,1432,0,4,,,,,,,1,,,,76,64
131992,note_off,,0,0,2,,,,,,,0,,,,64,64
131992,note_off,,232,0,2,,,,,,,0,,,,73,64
132000,note_on,,8,0,2,,,,,,,0,,,,64,127
132000,note_on,,0,0,2,,,,,,,0,,,,69,127
132000,note_on,,0,0,2,,,,,,,0,,,,73,127
132000,note_on,,8,0,1,,,,,,,3,,,,73,127
132000,note_on,,488,0,3,,,,,,,2,,,,45,127
132000,note_on,,8,0,4,,,,,,,1,,,,73,127
132232,note_off,,232,0,2,,,,,,,0,,,,73,64
132232,note_off,,0,0,2,,,,,,,0,,,,69,64
132232,note_off,,232,0,1,,,,,,,3,,,,73,64
132232,note_off,,0,0,2,,,,,,,0,,,,64,64
132232,note_off,,232,0,4,,,,,,,1,,,,73,64
132240,note_on,,8,0,4,,,,,,,1,,,,69,127
132240,note_on,,8,0,1,,,,,,,3,,,,69,127
132240,note_on,,8,0,2,,,,,,,0,,,,64,127
132240,note_on,,0,0,2,,,,,,,0,,,,69,127
132240,note_on,,0,0,2,,,,,,,0,,,,73,127
132352,note_off,,352,0,3,,,,,,,2,,,,45,64
132360,note_on,,8,0,3,,,,,,,2,,,,45,127
132472,note_off,,232,0,2,,,,,,,0,,,,73,64
132472,note_off,,232,0,4,,,,,,,1,,,,69,64
132472,note_off,,0,0,2,,,,,,,0,,,,64,64
132472,note_off,,112,0,3,,,,,,,2,,,,45,64
132472,note_off,,232,0,1,,,,,,,3,,,,69,64
132472,note_off,,0,0,2,,,,,,,0,,,,69,64
132480,note_on,,8,0,2,,,,,,,0,,,,66,127
132480,note_on,,8,0,4,,,,,,,1,,,,68,127
132480,note_on,,8,0,1,,,,,,,3,,,,68,127
132480,note_on,,0,0,2,,,,,,,0,,,,69,127
132480,note_on,,0,0,2,,,,,,,0,,,,74,127
132480,note_on,,8,0,3,,,,,,,2,,,,50,127
132712,note_off,,232,0,2,,,,,,,0,,,,74,64
132712,note_off,,0,0,2,,,,,,,0,,,,66,64
132712,note_off,,0,0,2,,,,,,,0,,,,69,64
132720,note_on,,0,0,2,,,,,,,0,,,,74,127
132720,note_on,,0,0,2,,,,,,,0,,,,69,127
132720,note_on,,8,0,2,,,,,,,0,,,,66,127
132952,note_off,,0,0,2,,,,,,,0,,,,69,64
132952,note_off,,0,0,2,,,,,,,0,,,,66,64
132952,note_off,,472,0,4,,,,,,,1,,,,68,64
132952,note_off,,472,0,1,,,,,,,3,,,,68,64
132952,note_off,,472,0,3,,,,,,,2,,,,50,64
132952,note_off,,232,0,2,,,,,,,0,,,,74,64
132960,note_on,,8,0,4,,,,,,,1,,,,66,127
132960,note_on,,8,0,3,,,,,,,2,,,,54,127
132960,note_on,,8,0,2,,,,,,,0,,,,66,127
132960,note_on,,8,0,1,,,,,,,3,,,,66,127
132960,note_on,,0,0,2,,,,,,,0,,,,74,127
132960,note_on,,0,0,2,,,,,,,0,,,,70,127
133192,note_off,,0,0,2,,,,,,,0,,,,70,64
133192,note_off,,232,0,2,,,,,,,0,,,,74,64
133192,note_off,,0,0,2,,,,,,,0,,,,66,64
133200,note_on,,0,0,2,,,,,,,0,,,,74,127
133200,note_on,,0,0,2,,,,,,,0,,,,70,127
133200,note_on,,8,0,2,,,,,,,0,,,,66,127
133432,note_off,,0,0,2,,,,,,,0,,,,66,64
133432,note_off,,232,0,2,,,,,,,0,,,,74,64
133432,note_off,,472,0,4,,,,,,,1,,,,66,64
133432,note_off,,472,0,3,,,,,,,2,,,,54,64
133432,note_off,,472,0,1,,,,,,,3,,,,66,64
133432,note_off,,0,0,2,,,,,,,0,,,,70,64
133440,note_on,,8,0,2,,,,,,,0,,,,66,127
133440,note_on,,0,0,2,,,,,,,0,,,,71,127
133440,note_on,,0,0,2,,,,,,,0,,,,74,127
133672,note_off,,0,0,2,,,,,,,0,,,,66,64
133672,note_off,,0,0,2,,,,,,,0,,,,71,64
133672,note_off,,232,0,2,,,,,,,0,,,,74,64
133680,note_on,,0,0,2,,,,,,,0,,,,71,127
133680,note_on,,8,0,2,,,,,,,0,,,,66,127
133680,note_on,,0,0,2,,,,,,,0,,,,74,127
133912,note_off,,0,0,2,,,,,,,0,,,,71,64
133912,note_off,,232,0,2,,,,,,,0,,,,74,64
133912,note_off,,0,0,2,,,,,,,0,,,,66,64
133920,note_on,,488,0,3,,,,,,,2,,,,46,127
133920,note_on,,0,0,2,,,,,,,0,,,,74,127
133920,note_on,,0,0,2,,,,,,,0,,,,73,127
133920,note_on,,8,0,2,,,,,,,0,,,,66,127
134152,note_off,,0,0,2,,,,,,,0,,,,66,64
134152,note_off,,232,0,2,,,,,,,0,,,,74,64
134152,note_off,,0,0,2,,,,,,,0,,,,73,64
134160,note_on,,0,0,2,,,,,,,0,,,,74,127
134160,note_on,,0,0,2,,,,,,,0,,,,73,127
134160,note_on,,8,0,2,,,,,,,0,,,,66,127
134272,note_off,,352,0,3,,,,,,,2,,,,46,64
134280,note_on,,8,0,3,,,,,,,2,,,,46,127
134392,note_off,,0,0,2,,,,,,,0,,,,66,64
134392,note_off,,112,0,3,,,,,,,2,,,,46,64
134392,note_off,,232,0,2,,,,,,,0,,,,74,64
134392,note_off,,0,0,2,,,,,,,0,,,,73,64
134400,note_on,,968,0,1,,,,,,,3,,,,74,127
134400,note_on,,968,0,4,,,,,,,1,,,,74,127
134400,note_on,,8,0,3,,,,,,,2,,,,47,127
134400,note_on,,0,0,2,,,,,,,0,,,,74,127
134400,note_on,,8,0,2,,,,,,,0,,,,66,127
134632,note_off,,232,0,2,,,,,,,0,,,,74,64
134632,note_off,,0,0,2,,,,,,,0,,,,66,64
134640,note_on,,8,0,2,,,,,,,0,,,,66,127
134640,note_on,,0,0,2,,,,,,,0,,,,74,127
134872,note_off,,472,0,3,,,,,,,2,,,,47,64
134872,note_off,,0,0,2,,,,,,,0,,,,66,64
134872,note_off,,232,0,2,,,,,,,0,,,,74,64
134880,note_on,,0,0,2,,,,,,,0,,,,71,127
134880,note_on,,8,0,2,,,,,,,0,,,,66,127
134880,note_on,,8,0,3,,,,,,,2,,,,50,127
134880,note_on,,0,0,2,,,,,,,0,,,,74,127
135112,note_off,,0,0,2,,,,,,,0,,,,71,64
135112,note_off,,232,0,2,,,,,,,0,,,,74,64
135112,note_off,,0,0,2,,,,,,,0,,,,66,64
135120,note_on,,0,0,2,,,,,,,0,,,,74,127
135120,note_on,,8,0,2,,,,,,,0,,,,66,127
135120,note_on,,0,0,2,,,,,,,0,,,,71,127
135352,note_off,,472,0,3,,,,,,,2,,,,50,64
135352,note_off,,0,0,2,,,,,,,0,,,,66,64
135352,note_off,,0,0,2,,,,,,,0,,,,71,64
135352,note_off,,232,0,2,,,,,,,0,,,,74,64
135360,note_on,,0,0,2,,,,,,,0,,,,71,127
135360,note_on,,0,0,2,,,,,,,0,,,,74,127
135360,note_on,,8,0,2,,,,,,,0,,,,66,127
135592,note_off,,0,0,2,,,,,,,0,,,,71,64
135592,note_off,,232,0,2,,,,,,,0,,,,74,64
135592,note_off,,0,0,2,,,,,,,0,,,,66,64
135600,note_on,,0,0,2,,,,,,,0,,,,74,127
135600,note_on,,0,0,2,,,,,,,0,,,,71,127
135600,note_on,,8,0,2,,,,,,,0,,,,66,127
135832,note_off,,0,0,2,,,,,,,0,,,,66,64
135832,note_off,,0,0,2,,,,,,,0,,,,71,64
135832,note_off,,232,0,2,,,,,,,0,,,,74,64
135832,note_off,,1432,0,4,,,,,,,1,,,,74,64
135832,note_off,,1432,0,1,,,,,,,3,,,,74,64
135840,note_on,,488,0,3,,,,,,,2,,,,45,127
135840,note_on,,8,0,2,,,,,,,0,,,,66,127
135840,note_on,,0,0,2,,,,,,,0,,,,71,127
135840,note_on,,0,0,2,,,,,,,0,,,,74,127
135840,note_on,,8,0,4,,,,,,,1,,,,73,127
135840,note_on,,8,0,1,,,,,,,3,,,,73,127
135952,note_off,,112,0,4,,,,,,,1,,,,73,64
135952,note_off,,112,0,1,,,,,,,3,,,,73,64
135960,note_on,,8,0,1,,,,,,,3,,,,71,127
135960,note_on,,8,0,4,,,,,,,1,,,,71,127
136072,note_off,,0,0,2,,,,,,,0,,,,66,64
136072,note_off,,112,0,4,,,,,,,1,,,,71,64
136072,note_off,,112,0,1,,,,,,,3,,,,71,64
136072,note_off,,0,0,2,,,,,,,0,,,,71,64
136072,note_off,,232,0,2,,,,,,,0,,,,74,64
136080,note_on,,0,0,2,,,,,,,0,,,,74,127
136080,note_on,,8,0,2,,,,,,,0,,,,66,127
136080,note_on,,0,0,2,,,,,,,0,,,,71,127
136080,note_on,,8,0,1,,,,,,,3,,,,69,127
136080,note_on,,8,0,4,,,,,,,1,,,,69,127
136192,note_off,,352,0,3,,,,,,,2,,,,45,64
136192,note_off,,112,0,1,,,,,,,3,,,,69,64
136192,note_off,,112,0,4,,,,,,,1,,,,69,64
136200,note_on,,8,0,4,,,,,,,1,,,,68,127
136200,note_on,,8,0,3,,,,,,,2,,,,45,127
136200,note_on,,8,0,1,,,,,,,3,,,,68,127
136312,note_off,,112,0,4,,,,,,,1,,,,68,64
136312,note_off,,112,0,3,,,,,,,2,,,,45,64
136312,note_off,,112,0,1,,,,,,,3,,,,68,64
136312,note_off,,0,0,2,,,,,,,0,,,,66,64
136312,note_off,,0,0,2,,,,,,,0,,,,71,64
136312,note_off,,232,0,2,,,,,,,0,,,,74,64
136320,note_on,,8,0,3,,,,,,,2,,,,44,127
136320,note_on,,0,0,2,,,,,,,0,,,,74,127
136320,note_on,,0,0,2,,,,,,,0,,,,71,127
136320,note_on,,8,0,2,,,,,,,0,,,,64,127
136320,note_on,,8,0,4,,,,,,,1,,,,66,127
136320,note_on,,8,0,1,,,,,,,3,,,,66,127
136552,note_off,,232,0,2,,,,,,,0,,,,74,64
136552,note_off,,0,0,2,,,,,,,0,,,,64,64
136552,note_off,,0,0,2,,,,,,,0,,,,71,64
136560,note_on,,8,0,2,,,,,,,0,,,,64,127
136560,note_on,,0,0,2,,,,,,,0,,,,71,127
136560,note_on,,0,0,2,,,,,,,0,,,,74,127
136792,note_off,,232,0,2,,,,,,,0,,,,74,64
136792,note_off,,0,0,2,,,,,,,0,,,,71,64
136792,note_off,,0,0,2,,,,,,,0,,,,64,64
136792,note_off,,472,0,1,,,,,,,3,,,,66,64
136792,note_off,,472,0,3,,,,,,,2,,,,44,64
136792,note_off,,472,0,4,,,,,,,1,,,,66,64
136800,note_on,,8,0,1,,,,,,,3,,,,64,127
136800,note_on,,8,0,3,,,,,,,2,,,,52,127
136800,note_on,,0,0,2,,,,,,,0,,,,71,127
136800,note_on,,8,0,2,,,,,,,0,,,,64,127
136800,note_on,,8,0,4,,,,,,,1,,,,64,127
137032,note_off,,0,0,2,,,,,,,0,,,,64,64
137032,note_off,,232,0,2,,,,,,,0,,,,71,64
137040,note_on,,0,0,2,,,,,,,0,,,,71,127
137040,note_on,,8,0,2,,,,,,,0,,,,64,127
137272,note_off,,232,0,2,,,,,,,0,,,,71,64
137272,note_off,,472,0,1,,,,,,,3,,,,64,64
137272,note_off,,0,0,2,,,,,,,0,,,,64,64
137272,note_off,,472,0,3,,,,,,,2,,,,52,64
137272,note_off,,472,0,4,,,,,,,1,,,,64,64
137280,note_on,,0,0,2,,,,,,,0,,,,76,127
137280,note_on,,8,0,2,,,,,,,0,,,,64,127
137512,note_off,,232,0,2,,,,,,,0,,,,76,64
137512,note_off,,0,0,2,,,,,,,0,,,,64,64
137520,note_on,,0,0,2,,,,,,,0,,,,76,127
137520,note_on,,8,0,2,,,,,,,0,,,,64,127
137752,note_off,,232,0,2,,,,,,,0,,,,76,64
137752,note_off,,0,0,2,,,,,,,0,,,,64,64
137760,note_on,,488,0,3,,,,,,,2,,,,32,127
137760,note_on,,8,0,2,,,,,,,0,,,,64,127
137760,note_on,,0,0,2,,,,,,,0,,,,71,127
137760,note_on,,0,0,2,,,,,,,0,,,,74,127
137992,note_off,,0,0,2,,,,,,,0,,,,71,64
137992,note_off,,0,0,2,,,,,,,0,,,,64,64
137992,note_off,,232,0,2,,,,,,,0,,,,74,64
138000,note_on,,0,0,2,,,,,,,0,,,,74,127
138000,note_on,,0,0,2,,,,,,,0,,,,71,127
138000,note_on,,8,0,2,,,,,,,0,,,,64,127
138112,note_off,,352,0,3,,,,,,,2,,,,32,64
138120,note_on,,8,0,3,,,,,,,2,,,,32,127
138232,note_off,,0,0,2,,,,,,,0,,,,64,64
138232,note_off,,0,0,2,,,,,,,0,,,,71,64
138232,note_off,,112,0,3,,,,,,,2,,,,32,64
138232,note_off,,232,0,2,,,,,,,0,,,,74,64
138240,note_on,,0,0,2,,,,,,,0,,,,64,127
138240,note_on,,8,0,3,,,,,,,2,,,,33,127
138240,note_on,,968,0,4,,,,,,,1,,,,64,127
138240,note_on,,0,0,2,,,,,,,0,,,,73,127
138240,note_on,,8,0,2,,,,,,,0,,,,61,127
138240,note_on,,968,0,1,,,,,,,3,,,,64,127
138472,note_off,,232,0,2,,,,,,,0,,,,73,64
138472,note_off,,0,0,2,,,,,,,0,,,,64,64
138472,note_off,,0,0,2,,,,,,,0,,,,61,64
138480,note_on,,8,0,2,,,,,,,0,,,,61,127
138480,note_on,,0,0,2,,,,,,,0,,,,73,127
138480,note_on,,0,0,2,,,,,,,0,,,,64,127
138712,note_off,,472,0,3,,,,,,,2,,,,33,64
138712,note_off,,0,0,2,,,,,,,0,,,,64,64
138712,note_off,,232,0,2,,,,,,,0,,,,73,64
138712,note_off,,0,0,2,,,,,,,0,,,,61,64
138720,note_on,,8,0,2,,,,,,,0,,,,61,127
138720,note_on,,8,0,3,,,,,,,2,,,,45,127
138720,note_on,,0,0,2,,,,,,,0,,,,71,127
138720,note_on,,0,0,2,,,,,,,0,,,,64,127
138952,note_off,,0,0,2,,,,,,,0,,,,61,64
138952,note_off,,0,0,2,,,,,,,0,,,,64,64
138952,note_off,,232,0,2,,,,,,,0,,,,71,64
138960,note_on,,0,0,2,,,,,,,0,,,,64,127
138960,note_on,,8,0,2,,,,,,,0,,,,61,127
138960,note_on,,0,0,2,,,,,,,0,,,,71,127
139192,note_off,,472,0,3,,,,,,,2,,,,45,64
139192,note_off,,952,0,4,,,,,,,1,,,,64,64
139192,note_off,,0,0,2,,,,,,,0,,,,64,64
139192,note_off,,952,0,1,,,,,,,3,,,,64,64
139192,note_off,,232,0,2,,,,,,,0,,,,71,64
139192,note_off,,0,0,2,,,,,,,0,,,,61,64
139200,note_on,,0,0,2,,,,,,,0,,,,69,127
139200,note_on,,8,0,1,,,,,,,3,,,,76,127
139200,note_on,,8,0,4,,,,,,,1,,,,76,127
139200,note_on,,8,0,2,,,,,,,0,,,,61,127
139200,note_on,,0,0,2,,,,,,,0,,,,64,127
139432,note_off,,0,0,2,,,,,,,0,,,,64,64
139432,note_off,,232,0,2,,,,,,,0,,,,69,64
139432,note_off,,0,0,2,,,,,,,0,,,,61,64
139440,note_on,,8,0,2,,,,,,,0,,,,61,127
139440,note_on,,0,0,2,,,,,,,0,,,,64,127
139440,note_on,,0,0,2,,,,,,,0,,,,69,127
139672,note_off,,0,0,2,,,,,,,0,,,,61,64
139672,note_off,,232,0,2,,,,,,,0,,,,69,64
139672,note_off,,0,0,2,,,,,,,0,,,,64,64
139680,note_on,,8,0,2,,,,,,,0,,,,61,127
139680,note_on,,488,0,3,,,,,,,2,,,,37,127
139680,note_on,,0,0,2,,,,,,,0,,,,64,127
139680,note_on,,0,0,2,,,,,,,0,,,,68,127
139912,note_off,,232,0,2,,,,,,,0,,,,68,64
139912,note_off,,0,0,2,,,,,,,0,,,,64,64
139912,note_off,,0,0,2,,,,,,,0,,,,61,64
139920,note_on,,8,0,2,,,,,,,0,,,,61,127
139920,note_on,,0,0,2,,,,,,,0,,,,64,127
139920,note_on,,0,0,2,,,,,,,0,,,,68,127
140032,note_off,,352,0,3,,,,,,,2,,,,37,64
140040,note_on,,8,0,3,,,,,,,2,,,,37,127
140152,note_off,,0,0,2,,,,,,,0,,,,61,64
140152,note_off,,0,0,2,,,,,,,0,,,,64,64
140152,note_off,,232,0,2,,,,,,,0,,,,68,64
140152,note_off,,112,0,3,,,,,,,2,,,,37,64
140152,note_off,,952,0,1,,,,,,,3,,,,76,64
140152,note_off,,952,0,4,,,,,,,1,,,,76,64
140160,note_on,,8,0,2,,,,,,,0,,,,61,127
140160,note_on,,0,0,2,,,,,,,0,,,,66,127
140160,note_on,,8,0,3,,,,,,,2,,,,38,127
140160,note_on,,8,0,1,,,,,,,3,,,,78,127
140160,note_on,,0,0,2,,,,,,,0,,,,64,127
140160,note_on,,8,0,4,,,,,,,1,,,,78,127
140392,note_off,,0,0,2,,,,,,,0,,,,64,64
140392,note_off,,0,0,2,,,,,,,0,,,,61,64
140392,note_off,,232,0,2,,,,,,,0,,,,66,64
140400,note_on,,0,0,2,,,,,,,0,,,,66,127
140400,note_on,,0,0,2,,,,,,,0,,,,64,127
140400,note_on,,8,0,2,,,,,,,0,,,,61,127
140632,note_off,,0,0,2,,,,,,,0,,,,61,64
140632,note_off,,472,0,3,,,,,,,2,,,,38,64
140632,note_off,,0,0,2,,,,,,,0,,,,64,64
140632,note_off,,232,0,2,,,,,,,0,,,,66,64
140640,note_on,,0,0,2,,,,,,,0,,,,61,127
140640,note_on,,8,0,3,,,,,,,2,,,,50,127
140640,note_on,,0,0,2,,,,,,,0,,,,66,127
140640,note_on,,8,0,2,,,,,,,0,,,,58,127
140872,note_off,,0,0,2,,,,,,,0,,,,61,64
140872,note_off,,0,0,2,,,,,,,0,,,,58,64
140872,note_off,,232,0,2,,,,,,,0,,,,66,64
140880,note_on,,0,0,2,,,,,,,0,,,,66,127
140880,note_on,,0,0,2,,,,,,,0,,,,61,127
140880,note_on,,8,0,2,,,,,,,0,,,,58,127
141112,note_off,,952,0,1,,,,,,,3,,,,78,64
141112,note_off,,472,0,3,,,,,,,2,,,,50,64
141112,note_off,,0,0,2,,,,,,,0,,,,58,64
141112,note_off,,0,0,2,,,,,,,0,,,,61,64
141112,note_off,,232,0,2,,,,,,,0,,,,66,64
141112,note_off,,952,0,4,,,,,,,1,,,,78,64
141120,note_on,,0,0,2,,,,,,,0,,,,66,127
141120,note_on,,0,0,2,,,,,,,0,,,,62,127
141120,note_on,,8,0,2,,,,,,,0,,,,59,127
141120,note_on,,8,0,4,,,,,,,1,,,,66,127
141120,note_on,,8,0,1,,,,,,,3,,,,66,127
141352,note_off,,0,0,2,,,,,,,0,,,,59,64
141352,note_off,,0,0,2,,,,,,,0,,,,62,64
141352,note_off,,232,0,2,,,,,,,0,,,,66,64
141360,note_on,,0,0,2,,,,,,,0,,,,66,127
141360,note_on,,8,0,2,,,,,,,0,,,,59,127
141360,note_on,,0,0,2,,,,,,,0,,,,62,127
141592,note_off,,232,0,2,,,,,,,0,,,,66,64
141592,note_off,,0,0,2,,,,,,,0,,,,62,64
141592,note_off,,0,0,2,,,,,,,0,,,,59,64
141600,note_on,,8,0,2,,,,,,,0,,,,66,127
141600,note_on,,0,0,2,,,,,,,0,,,,71,127
141600,note_on,,488,0,3,,,,,,,2,,,,38,127
141832,note_off,,232,0,2,,,,,,,0,,,,71,64
141832,note_off,,0,0,2,,,,,,,0,,,,66,64
141840,note_on,,8,0,2,,,,,,,0,,,,66,127
141840,note_on,,0,0,2,,,,,,,0,,,,71,127
141952,note_off,,352,0,3,,,,,,,2,,,,38,64
141960,note_on,,8,0,3,,,,,,,2,,,,38,127
142072,note_off,,232,0,2,,,,,,,0,,,,71,64
142072,note_off,,0,0,2,,,,,,,0,,,,66,64
142072,note_off,,952,0,4,,,,,,,1,,,,66,64
142072,note_off,,952,0,1,,,,,,,3,,,,66,64
142072,note_off,,112,0,3,,,,,,,2,,,,38,64
142080,note_on,,8,0,4,,,,,,,1,,,,68,127
142080,note_on,,8,0,3,,,,,,,2,,,,40,127
142080,note_on,,8,0,1,,,,,,,3,,,,68,127
142080,note_on,,8,0,2,,,,,,,0,,,,64,127
142080,note_on,,0,0,2,,,,,,,0,,,,71,127
142080,note_on,,0,0,2,,,,,,,0,,,,74,127
142312,note_off,,232,0,2,,,,,,,0,,,,74,64
142312,note_off,,0,0,2,,,,,,,0,,,,64,64
142312,note_off,,0,0,2,,,,,,,0,,,,71,64
142320,note_on,,0,0,2,,,,,,,0,,,,74,127
142320,note_on,,0,0,2,,,,,,,0,,,,71,127
142320,note_on,,8,0,2,,,,,,,0,,,,64,127
142552,note_off,,472,0,3,,,,,,,2,,,,40,64
142552,note_off,,232,0,2,,,,,,,0,,,,74,64
142552,note_off,,0,0,2,,,,,,,0,,,,71,64
142552,note_off,,0,0,2,,,,,,,0,,,,64,64
142560,note_on,,8,0,3,,,,,,,2,,,,52,127
142560,note_on,,8,0,2,,,,,,,0,,,,64,127
142560,note_on,,0,0,2,,,,,,,0,,,,71,127
142560,note_on,,0,0,2,,,,,,,0,,,,74,127
142792,note_off,,232,0,2,,,,,,,0,,,,74,64
142792,note_off,,0,0,2,,,,,,,0,,,,71,64
142792,note_off,,0,0,2,,,,,,,0,,,,64,64
142800,note_on,,8,0,2,,,,,,,0,,,,64,127
142800,note_on,,0,0,2,,,,,,,0,,,,71,127
142800,note_on,,0,0,2,,,,,,,0,,,,74,127
143032,note_off,,0,0,2,,,,,,,0,,,,64,64
143032,note_off,,232,0,2,,,,,,,0,,,,74,64
143032,note_off,,472,0,3,,,,,,,2,,,,52,64
143032,note_off,,0,0,2,,,,,,,0,,,,71,64
143040,note_on,,8,0,2,,,,,,,0,,,,64,127
143040,note_on,,0,0,2,,,,,,,0,,,,71,127
143272,note_off,,232,0,2,,,,,,,0,,,,71,64
143272,note_off,,0,0,2,,,,,,,0,,,,64,64
143280,note_on,,8,0,2,,,,,,,0,,,,64,127
143280,note_on,,0,0,2,,,,,,,0,,,,71,127
143512,note_off,,232,0,2,,,,,,,0,,,,71,64
143512,note_off,,0,0,2,,,,,,,0,,,,64,64
143512,note_off,,1432,0,4,,,,,,,1,,,,68,64
143512,note_off,,1432,0,1,,,,,,,3,,,,68,64
143520,note_on,,8,0,1,,,,,,,3,,,,69,127
143520,note_on,,488,0,3,,,,,,,2,,,,40,127
143520,note_on,,8,0,4,,,,,,,1,,,,69,127
143520,note_on,,0,0,2,,,,,,,0,,,,64,127
143520,note_on,,8,0,2,,,,,,,0,,,,62,127
143520,note_on,,0,0,2,,,,,,,0,,,,68,127
143752,note_off,,0,0,2,,,,,,,0,,,,64,64
143752,note_off,,0,0,2,,,,,,,0,,,,62,64
143752,note_off,,232,0,1,,,,,,,3,,,,69,64
143752,note_off,,232,0,4,,,,,,,1,,,,69,64
143752,note_off,,232,0,2,,,,,,,0,,,,68,64
143760,note_on,,8,0,2,,,,,,,0,,,,62,127
143760,note_on,,0,0,2,,,,,,,0,,,,64,127
143760,note_on,,0,0,2,,,,,,,0,,,,68,127
143760,note_on,,8,0,4,,,,,,,1,,,,71,127
143760,note_on,,8,0,1,,,,,,,3,,,,71,127
143872,note_off,,352,0,3,,,,,,,2,,,,40,64
143880,note_on,,8,0,3,,,,,,,2,,,,40,127
143992,note_off,,112,0,3,,,,,,,2,,,,40,64
143992,note_off,,232,0,1,,,,,,,3,,,,71,64
143992,note_off,,232,0,4,,,,,,,1,,,,71,64
143992,note_off,,232,0,2,,,,,,,0,,,,68,64
143992,note_off,,0,0,2,,,,,,,0,,,,64,64
143992,note_off,,0,0,2,,,,,,,0,,,,62,64
144000,note_on,,8,0,3,,,,,,,2,,,,45,127
144000,note_on,,8,0,2,,,,,,,0,,,,61,127
144000,note_on,,0,0,2,,,,,,,0,,,,64,127
144000,note_on,,8,0,1,,,,,,,3,,,,69,127
144000,note_on,,8,0,4,,,,,,,1,,,,69,127
144000,note_on,,0,0,2,,,,,,,0,,,,69,127
144232,note_off,,0,0,2,,,,,,,0,,,,61,64
144232,note_off,,0,0,2,,,,,,,0,,,,64,64
144232,note_off,,232,0,2,,,,,,,0,,,,69,64
144240,note_on,,0,0,2,,,,,,,0,,,,69,127
144240,note_on,,0,0,2,,,,,,,0,,,,64,127
144240,note_on,,8,0,2,,,,,,,0,,,,61,127
144472,note_off,,472,0,3,,,,,,,2,,,,45,64
144472,note_off,,232,0,2,,,,,,,0,,,,69,64
144472,note_off,,0,0,2,,,,,,,0,,,,61,64
144472,note_off,,0,0,2,,,,,,,0,,,,64,64
144480,note_on,,0,0,2,,,,,,,0,,,,69,127
144480,note_on,,0,0,2,,,,,,,0,,,,64,127
144480,note_on,,8,0,2,,,,,,,0,,,,61,127
144480,note_on,,8,0,3,,,,,,,2,,,,40,127
144712,note_off,,232,0,2,,,,,,,0,,,,69,64
144712,note_off,,0,0,2,,,,,,,0,,,,61,64
144712,note_off,,0,0,2,,,,,,,0,,,,64,64
144720,note_on,,8,0,2,,,,,,,0,,,,61,127
144720,note_on,,0,0,2,,,,,,,0,,,,64,127
144720,note_on,,0,0,2,,,,,,,0,,,,69,127
144952,note_off,,472,0,3,,,,,,,2,,,,40,64
144952,note_off,,0,0,2,,,,,,,0,,,,61,64
144952,note_off,,0,0,2,,,,,,,0,,,,64,64
144952,note_off,,232,0,2,,,,,,,0,,,,69,64
144960,note_on,,8,0,2,,,,,,,0,,,,61,127
144960,note_on,,0,0,2,,,,,,,0,,,,64,127
144960,note_on,,0,0,2,,,,,,,0,,,,69,127
145192,note_off,,0,0,2,,,,,,,0,,,,64,64
145192,note_off,,0,0,2,,,,,,,0,,,,61,64
145192,note_off,,232,0,2,,,,,,,0,,,,69,64
145200,note_on,,8,0,2,,,,,,,0,,,,61,127
145200,note_on,,0,0,2,,,,,,,0,,,,64,127
145200,note_on,,0,0,2,,,,,,,0,,,,69,127
145432,note_off,,232,0,2,,,,,,,0,,,,69,64
145432,note_off,,0,0,2,,,,,,,0,,,,64,64
145432,note_off,,0,0,2,,,,,,,0,,,,61,64
145432,end_of_track,,0,1,4,,,,,,,,,,,,
145432,note_off,,1432,0,1,,,,,,,3,,,,69,64
145432,end_of_track,,0,1,1,,,,,,,,,,,,
145432,note_off,,1432,0,4,,,,,,,1,,,,69,64
145440,note_on,,0,0,2,,,,,,,0,,,,69,127
145440,note_on,,0,0,2,,,,,,,0,,,,64,127
145440,note_on,,8,0,2,,,,,,,0,,,,61,127
145440,note_on,,488,0,3,,,,,,,2,,,,45,127
145672,note_off,,0,0,2,,,,,,,0,,,,61,64
145672,note_off,,0,0,2,,,,,,,0,,,,64,64
145672,note_off,,232,0,2,,,,,,,0,,,,69,64
145680,note_on,,0,0,2,,,,,,,0,,,,64,127
145680,note_on,,8,0,2,,,,,,,0,,,,61,127
145680,note_on,,0,0,2,,,,,,,0,,,,69,127
145792,note_off,,352,0,3,,,,,,,2,,,,45,64
145800,note_on,,8,0,3,,,,,,,2,,,,45,127
145912,note_off,,232,0,2,,,,,,,0,,,,69,64
145912,note_off,,112,0,3,,,,,,,2,,,,45,64
145912,note_off,,0,0,2,,,,,,,0,,,,64,64
145912,note_off,,0,0,2,,,,,,,0,,,,61,64
145920,note_on,,0,0,2,,,,,,,0,,,,69,127
145920,note_on,,8,0,3,,,,,,,2,,,,47,127
145920,note_on,,0,0,2,,,,,,,0,,,,64,127
145920,note_on,,8,0,2,,,,,,,0,,,,62,127
146152,note_off,,0,0,2,,,,,,,0,,,,64,64
146152,note_off,,232,0,2,,,,,,,0,,,,69,64
146152,note_off,,0,0,2,,,,,,,0,,,,62,64
146160,note_on,,0,0,2,,,,,,,0,,,,64,127
146160,note_on,,0,0,2,,,,,,,0,,,,69,127
146160,note_on,,8,0,2,,,,,,,0,,,,62,127
146392,note_off,,0,0,2,,,,,,,0,,,,62,64
146392,note_off,,472,0,3,,,,,,,2,,,,47,64
146392,note_off,,232,0,2,,,,,,,0,,,,69,64
146392,note_off,,0,0,2,,,,,,,0,,,,64,64
146400,note_on,,0,0,2,,,,,,,0,,,,68,127
146400,note_on,,8,0,3,,,,,,,2,,,,40,127
146400,note_on,,8,0,2,,,,,,,0,,,,62,127
146400,note_on,,0,0,2,,,,,,,0,,,,64,127
146632,note_off,,232,0,2,,,,,,,0,,,,68,64
146632,note_off,,0,0,2,,,,,,,0,,,,64,64
146632,note_off,,0,0,2,,,,,,,0,,,,62,64
146640,note_on,,0,0,2,,,,,,,0,,,,64,127
146640,note_on,,0,0,2,,,,,,,0,,,,68,127
146640,note_on,,8,0,2,,,,,,,0,,,,62,127
146872,note_off,,0,0,2,,,,,,,0,,,,62,64
146872,note_off,,0,0,2,,,,,,,0,,,,64,64
146872,note_off,,232,0,2,,,,,,,0,,,,68,64
146872,note_off,,472,0,3,,,,,,,2,,,,40,64
146880,note_on,,0,0,2,,,,,,,0,,,,68,127
146880,note_on,,0,0,2,,,,,,,0,,,,64,127
146880,note_on,,8,0,2,,,,,,,0,,,,62,127
146960,set_tempo,495868,146960,1,0,,,,,,,,,,,,
147000,set_tempo,497925,40,1,0,,,,,,,,,,,,
147040,set_tempo,500000,40,1,0,,,,,,,,,,,,
147080,set_tempo,502092,40,1,0,,,,,,,,,,,,
147112,note_off,,0,0,2,,,,,,,0,,,,64,64
147112,note_off,,232,0,2,,,,,,,0,,,,68,64
147112,note_off,,0,0,2,,,,,,,0,,,,62,64
147120,set_tempo,504202,40,1,0,,,,,,,,,,,,
147120,note_on,,0,0,2,,,,,,,0,,,,68,127
147120,note_on,,0,0,2,,,,,,,0,,,,64,127
147120,note_on,,8,0,2,,,,,,,0,,,,62,127
147160,set_tempo,506329,40,1,0,,,,,,,,,,,,
147200,set_tempo,508475,40,1,0,,,,,,,,,,,,
147240,set_tempo,510638,40,1,0,,,,,,,,,,,,
147280,set_tempo,512821,40,1,0,,,,,,,,,,,,
147320,set_tempo,515021,40,1,0,,,,,,,,,,,,
147352,note_off,,232,0,2,,,,,,,0,,,,68,64
147352,note_off,,0,0,2,,,,,,,0,,,,62,64
147352,note_off,,0,0,2,,,,,,,0,,,,64,64
147360,note_on,,488,0,3,,,,,,,2,,,,47,127
147360,set_tempo,517241,40,1,0,,,,,,,,,,,,
147360,note_on,,0,0,2,,,,,,,0,,,,68,127
147360,note_on,,0,0,2,,,,,,,0,,,,64,127
147360,note_on,,8,0,2,,,,,,,0,,,,62,127
147400,set_tempo,521739,40,1,0,,,,,,,,,,,,
147440,set_tempo,524017,40,1,0,,,,,,,,,,,,
147480,set_tempo,526316,40,1,0,,,,,,,,,,,,
147520,set_tempo,528634,40,1,0,,,,,,,,,,,,
147560,set_tempo,530973,40,1,0,,,,,,,,,,,,
147592,note_off,,232,0,2,,,,,,,0,,,,68,64
147592,note_off,,0,0,2,,,,,,,0,,,,62,64
147592,note_off,,0,0,2,,,,,,,0,,,,64,64
147600,set_tempo,533333,40,1,0,,,,,,,,,,,,
147600,note_on,,0,0,2,,,,,,,0,,,,68,127
147600,note_on,,0,0,2,,,,,,,0,,,,64,127
147600,note_on,,8,0,2,,,,,,,0,,,,62,127
147640,set_tempo,535714,40,1,0,,,,,,,,,,,,
147680,set_tempo,538117,40,1,0,,,,,,,,,,,,
147712,note_off,,352,0,3,,,,,,,2,,,,47,64
147720,set_tempo,540541,40,1,0,,,,,,,,,,,,
147720,note_on,,8,0,3,,,,,,,2,,,,47,127
147760,set_tempo,542986,40,1,0,,,,,,,,,,,,
147800,set_tempo,547945,40,1,0,,,,,,,,,,,,
147832,note_off,,0,0,2,,,,,,,0,,,,62,64
147832,note_off,,0,0,2,,,,,,,0,,,,64,64
147832,note_off,,232,0,2,,,,,,,0,,,,68,64
147832,note_off,,112,0,3,,,,,,,2,,,,47,64
147840,note_on,,8,0,2,,,,,,,0,,,,64,127
147840,note_on,,0,0,2,,,,,,,0,,,,70,127
147840,note_on,,8,0,3,,,,,,,2,,,,49,127
147840,set_tempo,550459,40,1,0,,,,,,,,,,,,
147840,note_on,,0,0,2,,,,,,,0,,,,67,127
147880,set_tempo,552995,40,1,0,,,,,,,,,,,,
147920,set_tempo,555556,40,1,0,,,,,,,,,,,,
147960,set_tempo,558140,40,1,0,,,,,,,,,,,,
148000,set_tempo,560748,40,1,0,,,,,,,,,,,,
148040,set_tempo,563380,40,1,0,,,,,,,,,,,,
148072,note_off,,0,0,2,,,,,,,0,,,,64,64
148072,note_off,,0,0,2,,,,,,,0,,,,67,64
148072,note_off,,232,0,2,,,,,,,0,,,,70,64
148080,set_tempo,566038,40,1,0,,,,,,,,,,,,
148080,note_on,,8,0,2,,,,,,,0,,,,64,127
148080,note_on,,0,0,2,,,,,,,0,,,,67,127
148080,note_on,,0,0,2,,,,,,,0,,,,70,127
148120,set_tempo,568720,40,1,0,,,,,,,,,,,,
148160,set_tempo,571429,40,1,0,,,,,,,,,,,,
148200,set_tempo,576923,40,1,0,,,,,,,,,,,,
148240,set_tempo,579710,40,1,0,,,,,,,,,,,,
148280,set_tempo,582524,40,1,0,,,,,,,,,,,,
148312,note_off,,472,0,3,,,,,,,2,,,,49,64
148312,note_off,,0,0,2,,,,,,,0,,,,67,64
148312,note_off,,0,0,2,,,,,,,0,,,,64,64
148312,note_off,,232,0,2,,,,,,,0,,,,70,64
148320,note_on,,0,0,2,,,,,,,0,,,,70,127
148320,set_tempo,585366,40,1,0,,,,,,,,,,,,
148320,note_on,,0,0,2,,,,,,,0,,,,67,127
148320,note_on,,8,0,2,,,,,,,0,,,,64,127
148320,note_on,,8,0,3,,,,,,,2,,,,40,127
148360,set_tempo,588235,40,1,0,,,,,,,,,,,,
148400,set_tempo,591133,40,1,0,,,,,,,,,,,,
148440,set_tempo,594059,40,1,0,,,,,,,,,,,,
148480,set_tempo,597015,40,1,0,,,,,,,,,,,,
148520,set_tempo,600000,40,1,0,,,,,,,,,,,,
148552,note_off,,0,0,2,,,,,,,0,,,,67,64
148552,note_off,,0,0,2,,,,,,,0,,,,64,64
148552,note_off,,232,0,2,,,,,,,0,,,,70,64
148560,note_on,,0,0,2,,,,,,,0,,,,70,127
148560,note_on,,0,0,2,,,,,,,0,,,,67,127
148560,note_on,,8,0,2,,,,,,,0,,,,64,127
148560,set_tempo,603015,40,1,0,,,,,,,,,,,,
148600,set_tempo,609137,40,1,0,,,,,,,,,,,,
148640,set_tempo,612245,40,1,0,,,,,,,,,,,,
148672,note_off,,352,0,3,,,,,,,2,,,,40,64
148680,set_tempo,615385,40,1,0,,,,,,,,,,,,
148680,note_on,,8,0,3,,,,,,,2,,,,40,127
148720,set_tempo,618557,40,1,0,,,,,,,,,,,,
148760,set_tempo,621762,40,1,0,,,,,,,,,,,,
148792,note_off,,112,0,3,,,,,,,2,,,,40,64
148792,note_off,,232,0,2,,,,,,,0,,,,70,64
148792,note_off,,0,0,2,,,,,,,0,,,,67,64
148792,note_off,,0,0,2,,,,,,,0,,,,64,64
148800,set_tempo,625000,40,1,0,,,,,,,,,,,,
148800,note_on,,8,0,2,,,,,,,0,,,,62,127
148800,note_on,,8,0,3,,,,,,,2,,,,50,127
148800,note_on,,0,0,2,,,,,,,0,,,,66,127
148800,note_on,,0,0,2,,,,,,,0,,,,71,127
148840,set_tempo,628272,40,1,0,,,,,,,,,,,,
148880,set_tempo,631579,40,1,0,,,,,,,,,,,,
148920,set_tempo,634921,40,1,0,,,,,,,,,,,,
148960,set_tempo,638298,40,1,0,,,,,,,,,,,,
149000,set_tempo,645161,40,1,0,,,,,,,,,,,,
149032,note_off,,232,0,2,,,,,,,0,,,,71,64
149032,note_off,,0,0,2,,,,,,,0,,,,66,64
149032,note_off,,0,0,2,,,,,,,0,,,,62,64
149040,note_on,,0,0,2,,,,,,,0,,,,66,127
149040,note_on,,0,0,2,,,,,,,0,,,,71,127
149040,set_tempo,648649,40,1,0,,,,,,,,,,,,
149040,note_on,,8,0,2,,,,,,,0,,,,62,127
149080,set_tempo,652174,40,1,0,,,,,,,,,,,,
149120,set_tempo,655738,40,1,0,,,,,,,,,,,,
149160,set_tempo,659341,40,1,0,,,,,,,,,,,,
149200,set_tempo,662983,40,1,0,,,,,,,,,,,,
149240,set_tempo,666667,40,1,0,,,,,,,,,,,,
149272,note_off,,232,0,2,,,,,,,0,,,,71,64
149272,note_off,,472,0,3,,,,,,,2,,,,50,64
149272,note_off,,0,0,2,,,,,,,0,,,,66,64
149272,note_off,,0,0,2,,,,,,,0,,,,62,64
149280,note_on,,8,0,2,,,,,,,0,,,,66,127
149280,note_on,,0,0,2,,,,,,,0,,,,71,127
149280,note_on,,0,0,2,,,,,,,0,,,,74,127
149280,note_on,,8,0,3,,,,,,,2,,,,40,127
149280,set_tempo,670391,40,1,0,,,,,,,,,,,,
149320,set_tempo,674157,40,1,0,,,,,,,,,,,,
149360,set_tempo,677966,40,1,0,,,,,,,,,,,,
149400,set_tempo,685714,40,1,0,,,,,,,,,,,,
149440,set_tempo,689655,40,1,0,,,,,,,,,,,,
149480,set_tempo,693642,40,1,0,,,,,,,,,,,,
149512,note_off,,0,0,2,,,,,,,0,,,,66,64
149512,note_off,,0,0,2,,,,,,,0,,,,71,64
149512,note_off,,232,0,2,,,,,,,0,,,,74,64
149520,set_tempo,697674,40,1,0,,,,,,,,,,,,
149520,note_on,,8,0,2,,,,,,,0,,,,66,127
149520,note_on,,0,0,2,,,,,,,0,,,,71,127
149520,note_on,,0,0,2,,,,,,,0,,,,74,127
149560,set_tempo,701754,40,1,0,,,,,,,,,,,,
149600,set_tempo,705882,40,1,0,,,,,,,,,,,,
149632,note_off,,352,0,3,,,,,,,2,,,,40,64
149640,note_on,,8,0,3,,,,,,,2,,,,40,127
149640,set_tempo,710059,40,1,0,,,,,,,,,,,,
149680,set_tempo,714286,40,1,0,,,,,,,,,,,,
149720,set_tempo,718563,40,1,0,,,,,,,,,,,,
149752,note_off,,232,0,2,,,,,,,0,,,,74,64
149752,note_off,,0,0,2,,,,,,,0,,,,71,64
149752,note_off,,0,0,2,,,,,,,0,,,,66,64
149752,note_off,,112,0,3,,,,,,,2,,,,40,64
149760,note_on,,0,0,2,,,,,,,0,,,,73,127
149760,note_on,,8,0,2,,,,,,,0,,,,64,127
149760,note_on,,0,0,2,,,,,,,0,,,,71,127
149760,set_tempo,722892,40,1,0,,,,,,,,,,,,
149760,note_on,,8,0,3,,,,,,,2,,,,52,127
149800,set_tempo,731707,40,1,0,,,,,,,,,,,,
149840,set_tempo,736196,40,1,0,,,,,,,,,,,,
149880,set_tempo,740741,40,1,0,,,,,,,,,,,,
149920,set_tempo,745342,40,1,0,,,,,,,,,,,,
149960,set_tempo,750000,40,1,0,,,,,,,,,,,,
149992,note_off,,0,0,2,,,,,,,0,,,,64,64
149992,note_off,,232,0,2,,,,,,,0,,,,73,64
149992,note_off,,0,0,2,,,,,,,0,,,,71,64
150000,note_on,,8,0,2,,,,,,,0,,,,64,127
150000,note_on,,0,0,2,,,,,,,0,,,,71,127
150000,note_on,,0,0,2,,,,,,,0,,,,73,127
150000,set_tempo,754717,40,1,0,,,,,,,,,,,,
150040,set_tempo,759494,40,1,0,,,,,,,,,,,,
150080,set_tempo,764331,40,1,0,,,,,,,,,,,,
150120,set_tempo,769231,40,1,0,,,,,,,,,,,,
150160,set_tempo,774194,40,1,0,,,,,,,,,,,,
150200,set_tempo,784314,40,1,0,,,,,,,,,,,,
150232,note_off,,232,0,2,,,,,,,0,,,,73,64
150232,note_off,,0,0,2,,,,,,,0,,,,71,64
150232,note_off,,472,0,3,,,,,,,2,,,,52,64
150232,note_off,,0,0,2,,,,,,,0,,,,64,64
150240,note_on,,8,0,3,,,,,,,2,,,,40,127
150240,set_tempo,789474,40,1,0,,,,,,,,,,,,
150240,note_on,,0,0,2,,,,,,,0,,,,73,127
150240,note_on,,0,0,2,,,,,,,0,,,,69,127
150240,note_on,,8,0,2,,,,,,,0,,,,64,127
150280,set_tempo,794702,40,1,0,,,,,,,,,,,,
150320,set_tempo,800000,40,1,0,,,,,,,,,,,,
150360,set_tempo,805369,40,1,0,,,,,,,,,,,,
150400,set_tempo,810811,40,1,0,,,,,,,,,,,,
150440,set_tempo,816327,40,1,0,,,,,,,,,,,,
150472,note_off,,232,0,2,,,,,,,0,,,,73,64
150472,note_off,,0,0,2,,,,,,,0,,,,64,64
150472,note_off,,0,0,2,,,,,,,0,,,,69,64
150480,note_on,,8,0,2,,,,,,,0,,,,64,127
150480,note_on,,0,0,2,,,,,,,0,,,,69,127
150480,note_on,,0,0,2,,,,,,,0,,,,73,127
150480,set_tempo,821918,40,1,0,,,,,,,,,,,,
150520,set_tempo,827586,40,1,0,,,,,,,,,,,,
150560,set_tempo,833333,40,1,0,,,,,,,,,,,,
150600,set_tempo,845070,40,1,0,,,,,,,,,,,,
150640,set_tempo,851064,40,1,0,,,,,,,,,,,,
150680,set_tempo,857143,40,1,0,,,,,,,,,,,,
150712,note_off,,232,0,2,,,,,,,0,,,,73,64
150712,note_off,,0,0,2,,,,,,,0,,,,69,64
150712,note_off,,0,0,2,,,,,,,0,,,,64,64
150712,note_off,,472,0,3,,,,,,,2,,,,40,64
150720,note_on,,8,0,3,,,,,,,2,,,,52,127
150720,note_on,,0,0,2,,,,,,,0,,,,71,127
150720,note_on,,0,0,2,,,,,,,0,,,,69,127
150720,note_on,,8,0,2,,,,,,,0,,,,64,127
150720,set_tempo,863309,40,1,0,,,,,,,,,,,,
150760,set_tempo,869565,40,1,0,,,,,,,,,,,,
150800,set_tempo,875912,40,1,0,,,,,,,,,,,,
150840,set_tempo,882353,40,1,0,,,,,,,,,,,,
150880,set_tempo,888889,40,1,0,,,,,,,,,,,,
150920,set_tempo,895522,40,1,0,,,,,,,,,,,,
150952,note_off,,232,0,2,,,,,,,0,,,,71,64
150952,note_off,,0,0,2,,,,,,,0,,,,69,64
150952,note_off,,0,0,2,,,,,,,0,,,,64,64
150960,set_tempo,902256,40,1,0,,,,,,,,,,,,
150960,note_on,,8,0,2,,,,,,,0,,,,64,127
150960,note_on,,0,0,2,,,,,,,0,,,,69,127
150960,note_on,,0,0,2,,,,,,,0,,,,71,127
151000,set_tempo,916031,40,1,0,,,,,,,,,,,,
151040,set_tempo,923077,40,1,0,,,,,,,,,,,,
151080,set_tempo,930233,40,1,0,,,,,,,,,,,,
151120,set_tempo,937500,40,1,0,,,,,,,,,,,,
151160,set_tempo,944882,40,1,0,,,,,,,,,,,,
151192,note_off,,0,0,2,,,,,,,0,,,,64,64
151192,note_off,,232,0,2,,,,,,,0,,,,71,64
151192,note_off,,0,0,2,,,,,,,0,,,,69,64
151192,note_off,,472,0,3,,,,,,,2,,,,52,64
151200,note_on,,8,0,2,,,,,,,0,,,,62,127
151200,note_on,,0,0,2,,,,,,,0,,,,68,127
151200,set_tempo,952381,40,1,0,,,,,,,,,,,,
151200,note_on,,0,0,2,,,,,,,0,,,,71,127
151200,note_on,,8,0,3,,,,,,,2,,,,40,127
151240,set_tempo,960000,40,1,0,,,,,,,,,,,,
151280,set_tempo,967742,40,1,0,,,,,,,,,,,,
151320,set_tempo,975610,40,1,0,,,,,,,,,,,,
151360,set_tempo,983607,40,1,0,,,,,,,,,,,,
151400,set_tempo,1000000,40,1,0,,,,,,,,,,,,
151432,note_off,,232,0,2,,,,,,,0,,,,71,64
151432,note_off,,0,0,2,,,,,,,0,,,,62,64
151432,note_off,,0,0,2,,,,,,,0,,,,68,64
151440,note_on,,0,0,2,,,,,,,0,,,,71,127
151440,note_on,,0,0,2,,,,,,,0,,,,68,127
151440,set_tempo,1008403,40,1,0,,,,,,,,,,,,
151440,note_on,,8,0,2,,,,,,,0,,,,62,127
151480,set_tempo,1016949,40,1,0,,,,,,,,,,,,
151520,set_tempo,1025641,40,1,0,,,,,,,,,,,,
151552,note_off,,352,0,3,,,,,,,2,,,,40,64
151560,set_tempo,1034483,40,1,0,,,,,,,,,,,,
151560,note_on,,8,0,3,,,,,,,2,,,,40,127
151600,set_tempo,1043478,40,1,0,,,,,,,,,,,,
151640,set_tempo,1052632,40,1,0,,,,,,,,,,,,
151672,note_off,,0,0,2,,,,,,,0,,,,68,64
151672,note_off,,0,0,2,,,,,,,0,,,,62,64
151672,note_off,,232,0,2,,,,,,,0,,,,71,64
151672,note_off,,112,0,3,,,,,,,2,,,,40,64
151680,set_tempo,1061947,40,1,0,,,,,,,,,,,,
151680,note_on,,0,0,2,,,,,,,0,,,,69,127
151680,note_on,,8,0,3,,,,,,,2,,,,45,127
151680,note_on,,0,0,2,,,,,,,0,,,,64,127
151680,note_on,,8,0,2,,,,,,,0,,,,61,127
151720,set_tempo,1071429,40,1,0,,,,,,,,,,,,
151760,set_tempo,1081081,40,1,0,,,,,,,,,,,,
151800,set_tempo,1100917,40,1,0,,,,,,,,,,,,
151840,set_tempo,1111111,40,1,0,,,,,,,,,,,,
151880,set_tempo,1121495,40,1,0,,,,,,,,,,,,
151920,set_tempo,1132075,40,1,0,,,,,,,,,,,,
151960,set_tempo,1142857,40,1,0,,,,,,,,,,,,
152000,set_tempo,1153846,40,1,0,,,,,,,,,,,,
152040,set_tempo,1165049,40,1,0,,,,,,,,,,,,
152080,set_tempo,1176471,40,1,0,,,,,,,,,,,,
152120,set_tempo,1188119,40,1,0,,,,,,,,,,,,
152160,set_tempo,1200000,40,1,0,,,,,,,,,,,,
152200,set_tempo,1224490,40,1,0,,,,,,,,,,,,
152240,set_tempo,1237113,40,1,0,,,,,,,,,,,,
152280,set_tempo,1250000,40,1,0,,,,,,,,,,,,
152320,set_tempo,1263158,40,1,0,,,,,,,,,,,,
152360,set_tempo,1276596,40,1,0,,,,,,,,,,,,
152400,set_tempo,1290323,40,1,0,,,,,,,,,,,,
152440,set_tempo,1304348,40,1,0,,,,,,,,,,,,
152480,set_tempo,1318681,40,1,0,,,,,,,,,,,,
152520,set_tempo,1333333,40,1,0,,,,,,,,,,,,
152560,set_tempo,1348315,40,1,0,,,,,,,,,,,,
152600,set_tempo,1379310,40,1,0,,,,,,,,,,,,
152600,end_of_track,,0,1,0,,,,,,,,,,,,
152632,note_off,,952,0,2,,,,,,,0,,,,69,64
152632,note_off,,0,0,2,,,,,,,0,,,,64,64
152632,note_off,,0,0,2,,,,,,,0,,,,61,64
152632,end_of_track,,0,1,2,,,,,,,,,,,,
152632,end_of_track,,0,1,3,,,,,,,,,,,,
152632,note_off,,952,0,3,,,,,,,2,,,,45,64
