tick,type,time,meta,track,numerator,denominator,clocks_per_click,notated_32nd_notes_per_beat,key,tempo,port,program,channel,control,value,pitch,note,velocity
0,track_name,0,1,0,,,,,,,,,,,,,,
0,control_change,0,0,6,,,,,,,,,10,121,0,,,
0,control_change,0,0,6,,,,,,,,,10,10,12,,,
0,control_change,0,0,6,,,,,,,,,10,7,127,,,
0,program_change,0,0,6,,,,,,,,48,10,,,,,
0,track_name,0,1,6,,,,,,,,,,,,,,
0,midi_port,0,1,6,,,,,,,0,,,,,,,
0,control_change,0,0,5,,,,,,,,,5,10,28,,,
0,control_change,0,0,5,,,,,,,,,5,7,127,,,
0,program_change,0,0,5,,,,,,,,60,5,,,,,
0,track_name,0,1,5,,,,,,,,,,,,,,
0,midi_port,0,1,5,,,,,,,0,,,,,,,
0,control_change,0,0,4,,,,,,,,,4,10,24,,,
0,control_change,0,0,4,,,,,,,,,4,7,127,,,
0,program_change,0,0,4,,,,,,,,60,4,,,,,
0,track_name,0,1,4,,,,,,,,,,,,,,
0,midi_port,0,1,4,,,,,,,0,,,,,,,
0,control_change,0,0,3,,,,,,,,,3,10,80,,,
0,control_change,0,0,3,,,,,,,,,3,7,127,,,
0,program_change,0,0,3,,,,,,,,70,3,,,,,
0,track_name,0,1,3,,,,,,,,,,,,,,
0,midi_port,0,1,3,,,,,,,0,,,,,,,
0,control_change,0,0,2,,,,,,,,,1,10,72,,,
0,control_change,0,0,2,,,,,,,,,1,7,127,,,
0,program_change,0,0,2,,,,,,,,68,1,,,,,
0,track_name,0,1,2,,,,,,,,,,,,,,
0,midi_port,0,1,2,,,,,,,0,,,,,,,
0,control_change,0,0,1,,,,,,,,,0,10,52,,,
0,control_change,0,0,1,,,,,,,,,0,7,127,,,
0,program_change,0,0,1,,,,,,,,73,0,,,,,
0,midi_port,0,1,7,,,,,,,0,,,,,,,
0,track_name,0,1,7,,,,,,,,,,,,,,
0,program_change,0,0,7,,,,,,,,48,11,,,,,
0,control_change,0,0,7,,,,,,,,,11,7,127,,,
0,midi_port,0,1,15,,,,,,,0,,,,,,,
0,end_of_track,0,1,14,,,,,,,,,,,,,,
0,track_name,0,1,14,,,,,,,,,,,,,,
0,midi_port,0,1,14,,,,,,,0,,,,,,,
0,end_of_track,0,1,13,,,,,,,,,,,,,,
0,track_name,0,1,13,,,,,,,,,,,,,,
0,midi_port,0,1,13,,,,,,,0,,,,,,,
0,end_of_track,0,1,12,,,,,,,,,,,,,,
0,track_name,0,1,12,,,,,,,,,,,,,,
0,midi_port,0,1,12,,,,,,,0,,,,,,,
0,end_of_track,0,1,11,,,,,,,,,,,,,,
0,track_name,0,1,11,,,,,,,,,,,,,,
0,midi_port,0,1,11,,,,,,,0,,,,,,,
0,control_change,0,0,10,,,,,,,,,14,10,127,,,
0,track_name,0,1,1,,,,,,,,,,,,,,
0,control_change,0,0,10,,,,,,,,,14,7,127,,,
0,track_name,0,1,10,,,,,,,,,,,,,,
0,midi_port,0,1,10,,,,,,,0,,,,,,,
0,control_change,0,0,9,,,,,,,,,13,10,100,,,
0,control_change,0,0,9,,,,,,,,,13,7,127,,,
0,program_change,0,0,9,,,,,,,,48,13,,,,,
0,track_name,0,1,9,,,,,,,,,,,,,,
0,midi_port,0,1,9,,,,,,,0,,,,,,,
0,control_change,0,0,8,,,,,,,,,12,10,40,,,
0,control_change,0,0,8,,,,,,,,,12,7,127,,,
0,program_change,0,0,8,,,,,,,,48,12,,,,,
0,track_name,0,1,8,,,,,,,,,,,,,,
0,midi_port,0,1,8,,,,,,,0,,,,,,,
0,track_name,0,1,15,,,,,,,,,,,,,,
0,control_change,0,0,7,,,,,,,,,11,10,90,,,
0,program_change,0,0,10,,,,,,,,48,14,,,,,
0,midi_port,0,1,1,,,,,,,0,,,,,,,
0,end_of_track,0,1,15,,,,,,,,,,,,,,
0,text,0,1,0,,,,,,,,,,,,,,
0,text,0,1,0,,,,,,,,,,,,,,
0,text,0,1,0,,,,,,,,,,,,,,
0,text,0,1,0,,,,,,,,,,,,,,
0,text,0,1,0,,,,,,,,,,,,,,
0,set_tempo,0,1,0,,,,,,272727,,,,,,,,
0,copyright,0,1,0,,,,,,,,,,,,,,
0,time_signature,0,1,0,2,2,48,8,,,,,,,,,,
0,text,0,1,0,,,,,,,,,,,,,,
0,text,0,1,0,,,,,,,,,,,,,,
0,text,0,1,0,,,,,,,,,,,,,,
0,text,0,1,0,,,,,,,,,,,,,,
0,text,0,1,0,,,,,,,,,,,,,,
0,text,0,1,0,,,,,,,,,,,,,,
0,text,0,1,0,,,,,,,,,,,,,,
0,text,0,1,0,,,,,,,,,,,,,,
0,text,0,1,0,,,,,,,,,,,,,,
0,text,0,1,0,,,,,,,,,,,,,,
0,text,0,1,0,,,,,,,,,,,,,,
0,text,0,1,0,,,,,,,,,,,,,,
0,text,0,1,0,,,,,,,,,,,,,,
0,key_signature,0,1,0,,,,,Bb,,,,,,,,,
0,track_name,0,1,0,,,,,,,,,,,,,,
0,text,0,1,0,,,,,,,,,,,,,,
0,text,0,1,0,,,,,,,,,,,,,,
0,text,0,1,0,,,,,,,,,,,,,,
0,marker,0,1,0,,,,,,,,,,,,,,
2,control_change,2,0,7,,,,,,,,,11,121,0,,,
3,control_change,3,0,1,,,,,,,,,0,121,0,,,
4,control_change,4,0,4,,,,,,,,,4,121,0,,,
5,control_change,5,0,2,,,,,,,,,1,121,0,,,
5,program_change,5,0,6,,,,,,,,48,10,,,,,
6,control_change,6,0,5,,,,,,,,,5,121,0,,,
6,control_change,6,0,8,,,,,,,,,12,121,0,,,
7,program_change,5,0,7,,,,,,,,48,11,,,,,
8,program_change,5,0,1,,,,,,,,73,0,,,,,
9,program_change,5,0,4,,,,,,,,60,4,,,,,
10,control_change,10,0,9,,,,,,,,,13,121,0,,,
10,program_change,5,0,2,,,,,,,,68,1,,,,,
10,pitchwheel,5,0,6,,,,,,,,,10,,,300,,
11,program_change,5,0,8,,,,,,,,48,12,,,,,
11,control_change,11,0,3,,,,,,,,,3,121,0,,,
11,program_change,5,0,5,,,,,,,,60,5,,,,,
12,control_change,12,0,10,,,,,,,,,14,121,0,,,
12,pitchwheel,5,0,7,,,,,,,,,11,,,-300,,
13,pitchwheel,5,0,1,,,,,,,,,0,,,0,,
14,pitchwheel,5,0,4,,,,,,,,,4,,,100,,
15,control_change,5,0,6,,,,,,,,,10,11,37,,,
15,pitchwheel,5,0,2,,,,,,,,,1,,,0,,
15,program_change,5,0,9,,,,,,,,48,13,,,,,
16,program_change,5,0,3,,,,,,,,70,3,,,,,
16,pitchwheel,5,0,5,,,,,,,,,5,,,-100,,
16,pitchwheel,5,0,8,,,,,,,,,12,,,300,,
17,program_change,5,0,10,,,,,,,,48,14,,,,,
17,control_change,5,0,7,,,,,,,,,11,11,37,,,
18,control_change,5,0,1,,,,,,,,,0,11,37,,,
19,control_change,5,0,4,,,,,,,,,4,11,37,,,
20,pitchwheel,5,0,9,,,,,,,,,13,,,-300,,
20,control_change,5,0,2,,,,,,,,,1,11,37,,,
20,control_change,5,0,6,,,,,,,,,10,7,127,,,
21,pitchwheel,5,0,3,,,,,,,,,3,,,0,,
21,control_change,5,0,8,,,,,,,,,12,11,37,,,
21,control_change,5,0,5,,,,,,,,,5,11,37,,,
22,pitchwheel,5,0,10,,,,,,,,,14,,,300,,
22,control_change,5,0,7,,,,,,,,,11,7,127,,,
23,control_change,5,0,1,,,,,,,,,0,7,127,,,
24,control_change,5,0,4,,,,,,,,,4,7,127,,,
25,control_change,5,0,6,,,,,,,,,10,91,15,,,
25,control_change,5,0,2,,,,,,,,,1,7,127,,,
25,control_change,5,0,9,,,,,,,,,13,11,37,,,
26,control_change,5,0,8,,,,,,,,,12,7,127,,,
26,control_change,5,0,3,,,,,,,,,3,11,37,,,
26,control_change,5,0,5,,,,,,,,,5,7,127,,,
27,control_change,5,0,7,,,,,,,,,11,91,10,,,
27,control_change,5,0,10,,,,,,,,,14,11,37,,,
28,control_change,5,0,1,,,,,,,,,0,91,30,,,
29,control_change,5,0,4,,,,,,,,,4,91,40,,,
30,control_change,5,0,6,,,,,,,,,10,93,20,,,
30,control_change,5,0,2,,,,,,,,,1,91,30,,,
30,control_change,5,0,9,,,,,,,,,13,7,127,,,
31,control_change,5,0,8,,,,,,,,,12,91,10,,,
31,control_change,5,0,5,,,,,,,,,5,91,40,,,
31,control_change,5,0,3,,,,,,,,,3,7,127,,,
32,control_change,5,0,7,,,,,,,,,11,93,20,,,
32,control_change,5,0,10,,,,,,,,,14,7,127,,,
33,control_change,5,0,1,,,,,,,,,0,93,15,,,
34,control_change,5,0,4,,,,,,,,,4,93,15,,,
35,control_change,5,0,6,,,,,,,,,10,1,15,,,
35,control_change,5,0,9,,,,,,,,,13,91,10,,,
35,control_change,5,0,2,,,,,,,,,1,93,15,,,
36,control_change,5,0,8,,,,,,,,,12,93,17,,,
36,control_change,5,0,5,,,,,,,,,5,93,20,,,
36,control_change,5,0,3,,,,,,,,,3,91,25,,,
37,control_change,5,0,10,,,,,,,,,14,91,5,,,
37,control_change,5,0,7,,,,,,,,,11,1,15,,,
40,control_change,5,0,9,,,,,,,,,13,93,15,,,
41,control_change,5,0,8,,,,,,,,,12,1,15,,,
41,control_change,5,0,3,,,,,,,,,3,93,15,,,
42,control_change,5,0,10,,,,,,,,,14,93,5,,,
45,control_change,5,0,9,,,,,,,,,13,1,15,,,
47,control_change,5,0,10,,,,,,,,,14,1,15,,,
480,marker,480,1,0,,,,,,,,,,,,,,
483,note_on,0,0,1,,,,,,,,,0,,,,79,97
483,control_change,450,0,1,,,,,,,,,0,11,20,,,
485,control_change,450,0,2,,,,,,,,,1,11,20,,,
485,note_on,0,0,2,,,,,,,,,1,,,,70,97
485,note_on,0,0,2,,,,,,,,,1,,,,74,97
491,note_on,0,0,3,,,,,,,,,3,,,,58,97
491,control_change,450,0,3,,,,,,,,,3,11,20,,,
497,control_change,14,0,1,,,,,,,,,0,11,24,,,
499,control_change,14,0,2,,,,,,,,,1,11,24,,,
505,control_change,14,0,3,,,,,,,,,3,11,24,,,
511,control_change,14,0,1,,,,,,,,,0,11,28,,,
513,control_change,14,0,2,,,,,,,,,1,11,28,,,
519,control_change,14,0,3,,,,,,,,,3,11,28,,,
525,control_change,14,0,1,,,,,,,,,0,11,32,,,
527,control_change,14,0,2,,,,,,,,,1,11,32,,,
533,control_change,14,0,3,,,,,,,,,3,11,32,,,
543,control_change,18,0,1,,,,,,,,,0,11,35,,,
545,control_change,18,0,2,,,,,,,,,1,11,35,,,
551,control_change,18,0,3,,,,,,,,,3,11,35,,,
579,control_change,36,0,1,,,,,,,,,0,11,38,,,
581,control_change,36,0,2,,,,,,,,,1,11,38,,,
587,control_change,36,0,3,,,,,,,,,3,11,38,,,
603,control_change,24,0,1,,,,,,,,,0,11,39,,,
605,control_change,24,0,2,,,,,,,,,1,11,39,,,
611,control_change,24,0,3,,,,,,,,,3,11,39,,,
627,control_change,24,0,1,,,,,,,,,0,11,41,,,
629,control_change,24,0,2,,,,,,,,,1,11,41,,,
635,control_change,24,0,3,,,,,,,,,3,11,41,,,
651,control_change,24,0,1,,,,,,,,,0,11,42,,,
653,control_change,24,0,2,,,,,,,,,1,11,42,,,
659,control_change,24,0,3,,,,,,,,,3,11,42,,,
675,control_change,24,0,1,,,,,,,,,0,11,44,,,
677,control_change,24,0,2,,,,,,,,,1,11,44,,,
683,control_change,24,0,3,,,,,,,,,3,11,44,,,
699,control_change,24,0,1,,,,,,,,,0,11,45,,,
701,control_change,24,0,2,,,,,,,,,1,11,45,,,
707,control_change,24,0,3,,,,,,,,,3,11,45,,,
723,control_change,24,0,1,,,,,,,,,0,11,47,,,
725,control_change,24,0,2,,,,,,,,,1,11,47,,,
731,control_change,24,0,3,,,,,,,,,3,11,47,,,
963,note_on,240,0,1,,,,,,,,,0,,,,79,0
963,note_on,0,0,1,,,,,,,,,0,,,,74,97
971,note_on,240,0,3,,,,,,,,,3,,,,58,0
971,note_on,0,0,3,,,,,,,,,3,,,,67,97
1440,set_tempo,960,1,0,,,,,,277136,,,,,,,,
1443,note_on,480,0,1,,,,,,,,,0,,,,74,0
1443,note_on,0,0,1,,,,,,,,,0,,,,79,97
1445,note_on,720,0,2,,,,,,,,,1,,,,74,0
1445,note_on,0,0,2,,,,,,,,,1,,,,72,97
1451,note_on,480,0,3,,,,,,,,,3,,,,67,0
1451,note_on,0,0,3,,,,,,,,,3,,,,63,97
1560,control_change,1525,0,6,,,,,,,,,10,11,47,,,
1560,note_on,0,0,6,,,,,,,,,10,,,,75,110
1584,note_on,24,0,6,,,,,,,,,10,,,,75,0
1620,note_on,36,0,6,,,,,,,,,10,,,,77,110
1644,note_on,24,0,6,,,,,,,,,10,,,,77,0
1680,note_on,36,0,6,,,,,,,,,10,,,,79,110
1680,set_tempo,240,1,0,,,,,,267261,,,,,,,,
1704,note_on,24,0,6,,,,,,,,,10,,,,79,0
1740,note_on,36,0,6,,,,,,,,,10,,,,77,110
1764,note_on,24,0,6,,,,,,,,,10,,,,77,0
1800,note_on,36,0,6,,,,,,,,,10,,,,75,110
1824,note_on,24,0,6,,,,,,,,,10,,,,75,0
1860,note_on,36,0,6,,,,,,,,,10,,,,74,110
1884,note_on,24,0,6,,,,,,,,,10,,,,74,0
1920,set_tempo,240,1,0,,,,,,272727,,,,,,,,
1920,note_on,36,0,6,,,,,,,,,10,,,,72,110
1923,note_on,480,0,1,,,,,,,,,0,,,,79,0
1923,note_on,0,0,1,,,,,,,,,0,,,,77,97
1925,note_on,480,0,2,,,,,,,,,1,,,,70,0
1925,note_on,0,0,2,,,,,,,,,1,,,,69,97
1931,note_on,480,0,3,,,,,,,,,3,,,,63,0
1931,note_on,0,0,3,,,,,,,,,3,,,,65,97
1944,note_on,24,0,6,,,,,,,,,10,,,,72,0
1980,note_on,36,0,6,,,,,,,,,10,,,,70,110
2004,note_on,24,0,6,,,,,,,,,10,,,,70,0
2040,note_on,36,0,6,,,,,,,,,10,,,,69,110
2064,note_on,24,0,6,,,,,,,,,10,,,,69,0
2100,note_on,36,0,6,,,,,,,,,10,,,,67,110
2124,note_on,24,0,6,,,,,,,,,10,,,,67,0
2160,set_tempo,240,1,0,,,,,,261438,,,,,,,,
2160,note_on,36,0,6,,,,,,,,,10,,,,65,110
2163,note_on,240,0,1,,,,,,,,,0,,,,77,0
2163,note_on,0,0,1,,,,,,,,,0,,,,75,97
2184,note_on,24,0,6,,,,,,,,,10,,,,65,0
2220,note_on,36,0,6,,,,,,,,,10,,,,63,110
2244,note_on,24,0,6,,,,,,,,,10,,,,63,0
2280,note_on,36,0,6,,,,,,,,,10,,,,62,110
2304,note_on,24,0,6,,,,,,,,,10,,,,62,0
2340,note_on,36,0,6,,,,,,,,,10,,,,60,110
2364,note_on,24,0,6,,,,,,,,,10,,,,60,0
2400,set_tempo,240,1,0,,,,,,272727,,,,,,,,
2400,control_change,36,0,6,,,,,,,,,10,11,52,,,
2400,note_on,0,0,6,,,,,,,,,10,,,,70,95
2402,note_on,0,0,7,,,,,,,,,11,,,,62,95
2402,note_on,0,0,7,,,,,,,,,11,,,,65,95
2402,control_change,2365,0,7,,,,,,,,,11,11,22,,,
2403,note_on,240,0,1,,,,,,,,,0,,,,75,0
2403,note_on,0,0,1,,,,,,,,,0,,,,74,97
2405,note_on,0,0,2,,,,,,,,,1,,,,70,97
2405,note_on,0,0,2,,,,,,,,,1,,,,72,0
2405,note_on,480,0,2,,,,,,,,,1,,,,69,0
2406,control_change,2365,0,8,,,,,,,,,12,11,22,,,
2406,note_on,0,0,8,,,,,,,,,12,,,,58,93
2410,control_change,2365,0,9,,,,,,,,,13,11,22,,,
2410,note_on,0,0,9,,,,,,,,,13,,,,46,99
2411,note_on,480,0,3,,,,,,,,,3,,,,65,0
2411,note_on,0,0,3,,,,,,,,,3,,,,58,97
2412,note_on,0,0,10,,,,,,,,,14,,,,34,93
2412,control_change,2365,0,10,,,,,,,,,14,11,22,,,
2414,control_change,12,0,7,,,,,,,,,11,11,25,,,
2418,control_change,12,0,8,,,,,,,,,12,11,25,,,
2419,control_change,19,0,6,,,,,,,,,10,11,49,,,
2422,control_change,12,0,9,,,,,,,,,13,11,25,,,
2424,control_change,12,0,10,,,,,,,,,14,11,25,,,
2426,control_change,12,0,7,,,,,,,,,11,11,28,,,
2430,control_change,12,0,8,,,,,,,,,12,11,28,,,
2434,control_change,12,0,9,,,,,,,,,13,11,28,,,
2434,control_change,8,0,7,,,,,,,,,11,11,31,,,
2436,control_change,12,0,10,,,,,,,,,14,11,28,,,
2438,control_change,8,0,8,,,,,,,,,12,11,31,,,
2439,control_change,20,0,6,,,,,,,,,10,11,46,,,
2441,note_on,0,0,7,,,,,,,,,11,,,,62,0
2441,note_on,7,0,7,,,,,,,,,11,,,,65,0
2442,control_change,1,0,7,,,,,,,,,11,11,34,,,
2442,control_change,8,0,9,,,,,,,,,13,11,31,,,
2444,control_change,8,0,10,,,,,,,,,14,11,31,,,
2445,note_on,7,0,8,,,,,,,,,12,,,,58,0
2446,control_change,1,0,8,,,,,,,,,12,11,34,,,
2450,control_change,8,0,7,,,,,,,,,11,11,37,,,
2450,control_change,8,0,9,,,,,,,,,13,11,34,,,
2452,control_change,8,0,10,,,,,,,,,14,11,34,,,
2454,control_change,8,0,8,,,,,,,,,12,11,37,,,
2458,control_change,8,0,7,,,,,,,,,11,11,40,,,
2458,control_change,8,0,9,,,,,,,,,13,11,37,,,
2459,control_change,20,0,6,,,,,,,,,10,11,43,,,
2460,control_change,8,0,10,,,,,,,,,14,11,37,,,
2462,note_on,0,0,7,,,,,,,,,11,,,,62,93
2462,note_on,4,0,7,,,,,,,,,11,,,,65,93
2462,control_change,8,0,8,,,,,,,,,12,11,40,,,
2466,note_on,4,0,8,,,,,,,,,12,,,,58,91
2466,control_change,8,0,9,,,,,,,,,13,11,40,,,
2468,control_change,8,0,10,,,,,,,,,14,11,40,,,
2501,note_on,39,0,7,,,,,,,,,11,,,,62,0
2501,note_on,0,0,7,,,,,,,,,11,,,,65,0
2505,note_on,39,0,8,,,,,,,,,12,,,,58,0
2508,control_change,49,0,6,,,,,,,,,10,11,46,,,
2522,note_on,21,0,7,,,,,,,,,11,,,,62,110
2522,note_on,0,0,7,,,,,,,,,11,,,,65,110
2523,note_on,120,0,1,,,,,,,,,0,,,,74,0
2525,note_on,120,0,2,,,,,,,,,1,,,,70,0
2526,note_on,21,0,8,,,,,,,,,12,,,,58,108
2530,note_on,64,0,9,,,,,,,,,13,,,,46,0
2531,note_on,120,0,3,,,,,,,,,3,,,,58,0
2532,note_on,64,0,10,,,,,,,,,14,,,,34,0
2544,control_change,36,0,6,,,,,,,,,10,11,48,,,
2561,note_on,39,0,7,,,,,,,,,11,,,,65,0
2561,note_on,0,0,7,,,,,,,,,11,,,,62,0
2565,note_on,39,0,8,,,,,,,,,12,,,,58,0
2580,note_on,0,0,6,,,,,,,,,10,,,,74,90
2580,control_change,0,0,6,,,,,,,,,10,11,49,,,
2580,note_on,36,0,6,,,,,,,,,10,,,,70,0
2582,note_on,0,0,7,,,,,,,,,11,,,,62,101
2582,note_on,21,0,7,,,,,,,,,11,,,,65,101
2586,note_on,21,0,8,,,,,,,,,12,,,,58,99
2598,control_change,18,0,6,,,,,,,,,10,11,52,,,
2616,control_change,18,0,6,,,,,,,,,10,11,55,,,
2619,note_on,3,0,6,,,,,,,,,10,,,,74,0
2621,note_on,39,0,7,,,,,,,,,11,,,,62,0
2621,note_on,0,0,7,,,,,,,,,11,,,,65,0
2625,note_on,39,0,8,,,,,,,,,12,,,,58,0
2634,control_change,15,0,6,,,,,,,,,10,11,58,,,
2640,note_on,6,0,6,,,,,,,,,10,,,,77,90
2640,set_tempo,240,1,0,,,,,,261438,,,,,,,,
2642,note_on,0,0,7,,,,,,,,,11,,,,65,110
2642,note_on,21,0,7,,,,,,,,,11,,,,62,110
2646,note_on,21,0,8,,,,,,,,,12,,,,58,108
2652,control_change,12,0,6,,,,,,,,,10,11,60,,,
2670,control_change,18,0,6,,,,,,,,,10,11,62,,,
2681,note_on,0,0,7,,,,,,,,,11,,,,62,0
2681,note_on,39,0,7,,,,,,,,,11,,,,65,0
2685,note_on,39,0,8,,,,,,,,,12,,,,58,0
2688,control_change,18,0,6,,,,,,,,,10,11,63,,,
2700,note_on,12,0,6,,,,,,,,,10,,,,77,0
2702,note_on,21,0,7,,,,,,,,,11,,,,65,101
2702,note_on,0,0,7,,,,,,,,,11,,,,62,101
2706,note_on,21,0,8,,,,,,,,,12,,,,58,99
2706,control_change,6,0,6,,,,,,,,,10,11,64,,,
2724,control_change,18,0,6,,,,,,,,,10,11,66,,,
2741,note_on,39,0,7,,,,,,,,,11,,,,62,0
2741,note_on,0,0,7,,,,,,,,,11,,,,65,0
2742,control_change,18,0,6,,,,,,,,,10,11,67,,,
2745,note_on,39,0,8,,,,,,,,,12,,,,58,0
2760,note_on,0,0,6,,,,,,,,,10,,,,77,90
2760,control_change,18,0,6,,,,,,,,,10,11,68,,,
2762,note_on,21,0,7,,,,,,,,,11,,,,62,110
2762,note_on,0,0,7,,,,,,,,,11,,,,65,110
2766,note_on,21,0,8,,,,,,,,,12,,,,58,108
2801,note_on,39,0,7,,,,,,,,,11,,,,65,0
2801,note_on,0,0,7,,,,,,,,,11,,,,62,0
2805,note_on,39,0,8,,,,,,,,,12,,,,58,0
2820,note_on,60,0,6,,,,,,,,,10,,,,77,0
2822,note_on,0,0,7,,,,,,,,,11,,,,62,101
2822,note_on,21,0,7,,,,,,,,,11,,,,65,101
2826,note_on,21,0,8,,,,,,,,,12,,,,58,99
2861,note_on,39,0,7,,,,,,,,,11,,,,62,0
2861,note_on,0,0,7,,,,,,,,,11,,,,65,0
2865,note_on,39,0,8,,,,,,,,,12,,,,58,0
2880,set_tempo,240,1,0,,,,,,272727,,,,,,,,
2880,note_on,0,0,6,,,,,,,,,10,,,,77,79
2880,control_change,60,0,6,,,,,,,,,10,11,68,,,
2882,note_on,0,0,7,,,,,,,,,11,,,,62,110
2882,note_on,21,0,7,,,,,,,,,11,,,,65,110
2886,note_on,21,0,8,,,,,,,,,12,,,,58,108
2890,note_on,360,0,9,,,,,,,,,13,,,,46,99
2892,note_on,360,0,10,,,,,,,,,14,,,,34,93
2904,control_change,24,0,6,,,,,,,,,10,11,67,,,
2921,note_on,0,0,7,,,,,,,,,11,,,,65,0
2921,note_on,39,0,7,,,,,,,,,11,,,,62,0
2925,note_on,39,0,8,,,,,,,,,12,,,,58,0
2928,control_change,24,0,6,,,,,,,,,10,11,66,,,
2942,note_on,21,0,7,,,,,,,,,11,,,,62,101
2942,note_on,0,0,7,,,,,,,,,11,,,,65,101
2946,note_on,21,0,8,,,,,,,,,12,,,,58,99
2952,control_change,24,0,6,,,,,,,,,10,11,64,,,
2976,control_change,24,0,6,,,,,,,,,10,11,63,,,
2981,note_on,39,0,7,,,,,,,,,11,,,,65,0
2981,note_on,0,0,7,,,,,,,,,11,,,,62,0
2985,note_on,39,0,8,,,,,,,,,12,,,,58,0
3000,control_change,24,0,6,,,,,,,,,10,11,62,,,
3002,note_on,0,0,7,,,,,,,,,11,,,,62,110
3002,note_on,21,0,7,,,,,,,,,11,,,,65,110
3006,note_on,21,0,8,,,,,,,,,12,,,,58,108
3024,control_change,24,0,6,,,,,,,,,10,11,60,,,
3041,note_on,39,0,7,,,,,,,,,11,,,,62,0
3041,note_on,0,0,7,,,,,,,,,11,,,,65,0
3045,note_on,39,0,8,,,,,,,,,12,,,,58,0
3048,control_change,24,0,6,,,,,,,,,10,11,58,,,
3062,note_on,21,0,7,,,,,,,,,11,,,,62,101
3062,note_on,0,0,7,,,,,,,,,11,,,,65,101
3066,note_on,21,0,8,,,,,,,,,12,,,,58,99
3070,note_on,0,0,9,,,,,,,,,13,,,,50,99
3070,note_on,180,0,9,,,,,,,,,13,,,,46,0
3072,control_change,24,0,6,,,,,,,,,10,11,55,,,
3072,note_on,0,0,10,,,,,,,,,14,,,,38,93
3072,note_on,180,0,10,,,,,,,,,14,,,,34,0
3096,control_change,24,0,6,,,,,,,,,10,11,52,,,
3101,note_on,39,0,7,,,,,,,,,11,,,,65,0
3101,note_on,0,0,7,,,,,,,,,11,,,,62,0
3105,note_on,39,0,8,,,,,,,,,12,,,,58,0
3109,note_on,39,0,9,,,,,,,,,13,,,,50,0
3111,note_on,39,0,10,,,,,,,,,14,,,,38,0
3120,note_on,24,0,6,,,,,,,,,10,,,,77,0
3120,control_change,0,0,6,,,,,,,,,10,11,49,,,
3120,set_tempo,240,1,0,,,,,,261438,,,,,,,,
3122,note_on,0,0,7,,,,,,,,,11,,,,62,110
3122,note_on,21,0,7,,,,,,,,,11,,,,65,110
3126,note_on,21,0,8,,,,,,,,,12,,,,58,108
3130,note_on,21,0,9,,,,,,,,,13,,,,53,99
3132,note_on,21,0,10,,,,,,,,,14,,,,41,93
3161,note_on,0,0,7,,,,,,,,,11,,,,65,0
3161,note_on,39,0,7,,,,,,,,,11,,,,62,0
3165,note_on,39,0,8,,,,,,,,,12,,,,58,0
3182,note_on,21,0,7,,,,,,,,,11,,,,62,101
3182,note_on,0,0,7,,,,,,,,,11,,,,65,101
3186,note_on,21,0,8,,,,,,,,,12,,,,58,99
3190,note_on,60,0,9,,,,,,,,,13,,,,53,0
3192,note_on,60,0,10,,,,,,,,,14,,,,41,0
3221,note_on,39,0,7,,,,,,,,,11,,,,65,0
3221,note_on,0,0,7,,,,,,,,,11,,,,62,0
3225,note_on,39,0,8,,,,,,,,,12,,,,58,0
3242,note_on,0,0,7,,,,,,,,,11,,,,62,110
3242,note_on,21,0,7,,,,,,,,,11,,,,65,110
3246,note_on,21,0,8,,,,,,,,,12,,,,58,108
3250,note_on,60,0,9,,,,,,,,,13,,,,53,99
3252,note_on,60,0,10,,,,,,,,,14,,,,41,93
3281,note_on,0,0,7,,,,,,,,,11,,,,65,0
3281,note_on,39,0,7,,,,,,,,,11,,,,62,0
3285,note_on,39,0,8,,,,,,,,,12,,,,58,0
3302,note_on,21,0,7,,,,,,,,,11,,,,62,101
3302,note_on,0,0,7,,,,,,,,,11,,,,65,101
3306,note_on,21,0,8,,,,,,,,,12,,,,58,99
3310,note_on,60,0,9,,,,,,,,,13,,,,53,0
3312,note_on,60,0,10,,,,,,,,,14,,,,41,0
3341,note_on,0,0,7,,,,,,,,,11,,,,62,0
3341,note_on,39,0,7,,,,,,,,,11,,,,65,0
3345,note_on,39,0,8,,,,,,,,,12,,,,58,0
3360,note_on,0,0,6,,,,,,,,,10,,,,69,90
3360,control_change,240,0,6,,,,,,,,,10,11,58,,,
3360,set_tempo,240,1,0,,,,,,272727,,,,,,,,
3362,note_on,21,0,7,,,,,,,,,11,,,,65,110
3362,note_on,0,0,7,,,,,,,,,11,,,,60,110
3366,note_on,21,0,8,,,,,,,,,12,,,,57,108
3370,note_on,60,0,9,,,,,,,,,13,,,,53,99
3372,note_on,60,0,10,,,,,,,,,14,,,,41,93
3379,control_change,19,0,6,,,,,,,,,10,11,57,,,
3399,control_change,20,0,6,,,,,,,,,10,11,56,,,
3401,note_on,39,0,7,,,,,,,,,11,,,,60,0
3401,note_on,0,0,7,,,,,,,,,11,,,,65,0
3405,note_on,39,0,8,,,,,,,,,12,,,,57,0
3419,control_change,20,0,6,,,,,,,,,10,11,55,,,
3422,note_on,21,0,7,,,,,,,,,11,,,,65,101
3422,note_on,0,0,7,,,,,,,,,11,,,,60,101
3426,note_on,21,0,8,,,,,,,,,12,,,,57,99
3432,control_change,13,0,6,,,,,,,,,10,11,58,,,
3456,control_change,24,0,6,,,,,,,,,10,11,60,,,
3461,note_on,0,0,7,,,,,,,,,11,,,,65,0
3461,note_on,39,0,7,,,,,,,,,11,,,,60,0
3465,note_on,39,0,8,,,,,,,,,12,,,,57,0
3480,control_change,24,0,6,,,,,,,,,10,11,62,,,
3482,note_on,0,0,7,,,,,,,,,11,,,,60,110
3482,note_on,21,0,7,,,,,,,,,11,,,,65,110
3486,note_on,21,0,8,,,,,,,,,12,,,,57,108
3504,control_change,24,0,6,,,,,,,,,10,11,63,,,
3521,note_on,0,0,7,,,,,,,,,11,,,,65,0
3521,note_on,39,0,7,,,,,,,,,11,,,,60,0
3525,note_on,39,0,8,,,,,,,,,12,,,,57,0
3528,control_change,24,0,6,,,,,,,,,10,11,64,,,
3540,note_on,12,0,6,,,,,,,,,10,,,,69,0
3540,note_on,0,0,6,,,,,,,,,10,,,,72,90
3542,note_on,0,0,7,,,,,,,,,11,,,,60,101
3542,note_on,21,0,7,,,,,,,,,11,,,,65,101
3546,note_on,21,0,8,,,,,,,,,12,,,,57,99
3552,control_change,12,0,6,,,,,,,,,10,11,66,,,
3576,control_change,24,0,6,,,,,,,,,10,11,67,,,
3579,note_on,3,0,6,,,,,,,,,10,,,,72,0
3581,note_on,39,0,7,,,,,,,,,11,,,,60,0
3581,note_on,0,0,7,,,,,,,,,11,,,,65,0
3585,note_on,39,0,8,,,,,,,,,12,,,,57,0
3600,set_tempo,240,1,0,,,,,,261438,,,,,,,,
3600,note_on,0,0,6,,,,,,,,,10,,,,77,90
3600,control_change,21,0,6,,,,,,,,,10,11,68,,,
3602,note_on,21,0,7,,,,,,,,,11,,,,65,110
3602,note_on,0,0,7,,,,,,,,,11,,,,60,110
3606,note_on,21,0,8,,,,,,,,,12,,,,57,108
3610,note_on,240,0,9,,,,,,,,,13,,,,53,0
3612,note_on,240,0,10,,,,,,,,,14,,,,41,0
3641,note_on,0,0,7,,,,,,,,,11,,,,65,0
3641,note_on,39,0,7,,,,,,,,,11,,,,60,0
3645,note_on,39,0,8,,,,,,,,,12,,,,57,0
3660,note_on,60,0,6,,,,,,,,,10,,,,77,0
3662,note_on,0,0,7,,,,,,,,,11,,,,60,101
3662,note_on,21,0,7,,,,,,,,,11,,,,65,101
3666,note_on,21,0,8,,,,,,,,,12,,,,57,99
3701,note_on,0,0,7,,,,,,,,,11,,,,65,0
3701,note_on,39,0,7,,,,,,,,,11,,,,60,0
3705,note_on,39,0,8,,,,,,,,,12,,,,57,0
3720,note_on,60,0,6,,,,,,,,,10,,,,77,90
3722,note_on,21,0,7,,,,,,,,,11,,,,65,110
3722,note_on,0,0,7,,,,,,,,,11,,,,60,110
3726,note_on,21,0,8,,,,,,,,,12,,,,57,108
3761,note_on,39,0,7,,,,,,,,,11,,,,60,0
3761,note_on,0,0,7,,,,,,,,,11,,,,65,0
3765,note_on,39,0,8,,,,,,,,,12,,,,57,0
3780,note_on,60,0,6,,,,,,,,,10,,,,77,0
3782,note_on,0,0,7,,,,,,,,,11,,,,60,101
3782,note_on,21,0,7,,,,,,,,,11,,,,65,101
3786,note_on,21,0,8,,,,,,,,,12,,,,57,99
3821,note_on,0,0,7,,,,,,,,,11,,,,65,0
3821,note_on,39,0,7,,,,,,,,,11,,,,60,0
3825,note_on,39,0,8,,,,,,,,,12,,,,57,0
3840,set_tempo,240,1,0,,,,,,272727,,,,,,,,
3840,control_change,60,0,6,,,,,,,,,10,11,68,,,
3840,note_on,0,0,6,,,,,,,,,10,,,,77,79
3842,note_on,21,0,7,,,,,,,,,11,,,,65,110
3842,note_on,0,0,7,,,,,,,,,11,,,,60,110
3846,note_on,21,0,8,,,,,,,,,12,,,,57,108
3850,note_on,240,0,9,,,,,,,,,13,,,,45,99
3852,note_on,240,0,10,,,,,,,,,14,,,,33,93
3864,control_change,24,0,6,,,,,,,,,10,11,67,,,
3881,note_on,39,0,7,,,,,,,,,11,,,,60,0
3881,note_on,0,0,7,,,,,,,,,11,,,,65,0
3885,note_on,39,0,8,,,,,,,,,12,,,,57,0
3888,control_change,24,0,6,,,,,,,,,10,11,66,,,
3902,note_on,0,0,7,,,,,,,,,11,,,,60,101
3902,note_on,21,0,7,,,,,,,,,11,,,,65,101
3906,note_on,21,0,8,,,,,,,,,12,,,,57,99
3912,control_change,24,0,6,,,,,,,,,10,11,64,,,
3936,control_change,24,0,6,,,,,,,,,10,11,63,,,
3941,note_on,39,0,7,,,,,,,,,11,,,,60,0
3941,note_on,0,0,7,,,,,,,,,11,,,,65,0
3945,note_on,39,0,8,,,,,,,,,12,,,,57,0
3960,control_change,24,0,6,,,,,,,,,10,11,62,,,
3962,note_on,21,0,7,,,,,,,,,11,,,,65,110
3962,note_on,0,0,7,,,,,,,,,11,,,,60,110
3966,note_on,21,0,8,,,,,,,,,12,,,,57,108
3984,control_change,24,0,6,,,,,,,,,10,11,60,,,
4001,note_on,0,0,7,,,,,,,,,11,,,,65,0
4001,note_on,39,0,7,,,,,,,,,11,,,,60,0
4005,note_on,39,0,8,,,,,,,,,12,,,,57,0
4008,control_change,24,0,6,,,,,,,,,10,11,58,,,
4022,note_on,21,0,7,,,,,,,,,11,,,,65,101
4022,note_on,0,0,7,,,,,,,,,11,,,,60,101
4026,note_on,21,0,8,,,,,,,,,12,,,,57,99
4030,note_on,180,0,9,,,,,,,,,13,,,,45,0
4030,note_on,0,0,9,,,,,,,,,13,,,,48,99
4032,note_on,0,0,10,,,,,,,,,14,,,,36,93
4032,note_on,180,0,10,,,,,,,,,14,,,,33,0
4032,control_change,24,0,6,,,,,,,,,10,11,55,,,
4056,control_change,24,0,6,,,,,,,,,10,11,52,,,
4061,note_on,0,0,7,,,,,,,,,11,,,,65,0
4061,note_on,39,0,7,,,,,,,,,11,,,,60,0
4065,note_on,39,0,8,,,,,,,,,12,,,,57,0
4069,note_on,39,0,9,,,,,,,,,13,,,,48,0
4071,note_on,39,0,10,,,,,,,,,14,,,,36,0
4080,set_tempo,240,1,0,,,,,,261438,,,,,,,,
4080,control_change,0,0,6,,,,,,,,,10,11,49,,,
4080,note_on,24,0,6,,,,,,,,,10,,,,77,0
4082,note_on,0,0,7,,,,,,,,,11,,,,60,110
4082,note_on,21,0,7,,,,,,,,,11,,,,65,110
4086,note_on,21,0,8,,,,,,,,,12,,,,57,108
4090,note_on,21,0,9,,,,,,,,,13,,,,53,99
4092,note_on,21,0,10,,,,,,,,,14,,,,41,93
4121,note_on,0,0,7,,,,,,,,,11,,,,65,0
4121,note_on,39,0,7,,,,,,,,,11,,,,60,0
4125,note_on,39,0,8,,,,,,,,,12,,,,57,0
4142,note_on,21,0,7,,,,,,,,,11,,,,65,101
4142,note_on,0,0,7,,,,,,,,,11,,,,60,101
4146,note_on,21,0,8,,,,,,,,,12,,,,57,99
4150,note_on,60,0,9,,,,,,,,,13,,,,53,0
4152,note_on,60,0,10,,,,,,,,,14,,,,41,0
4181,note_on,39,0,7,,,,,,,,,11,,,,60,0
4181,note_on,0,0,7,,,,,,,,,11,,,,65,0
4185,note_on,39,0,8,,,,,,,,,12,,,,57,0
4202,note_on,21,0,7,,,,,,,,,11,,,,65,110
4202,note_on,0,0,7,,,,,,,,,11,,,,60,110
4206,note_on,21,0,8,,,,,,,,,12,,,,57,108
4210,note_on,60,0,9,,,,,,,,,13,,,,53,99
4212,note_on,60,0,10,,,,,,,,,14,,,,41,93
4241,note_on,39,0,7,,,,,,,,,11,,,,60,0
4241,note_on,0,0,7,,,,,,,,,11,,,,65,0
4245,note_on,39,0,8,,,,,,,,,12,,,,57,0
4262,note_on,21,0,7,,,,,,,,,11,,,,65,101
4262,note_on,0,0,7,,,,,,,,,11,,,,60,101
4266,note_on,21,0,8,,,,,,,,,12,,,,57,99
4270,note_on,60,0,9,,,,,,,,,13,,,,53,0
4272,note_on,60,0,10,,,,,,,,,14,,,,41,0
4301,note_on,0,0,7,,,,,,,,,11,,,,65,0
4301,note_on,39,0,7,,,,,,,,,11,,,,60,0
4305,note_on,39,0,8,,,,,,,,,12,,,,57,0
4320,control_change,240,0,6,,,,,,,,,10,11,58,,,
4320,note_on,0,0,6,,,,,,,,,10,,,,75,90
4320,set_tempo,240,1,0,,,,,,272727,,,,,,,,
4322,note_on,21,0,7,,,,,,,,,11,,,,58,110
4322,note_on,0,0,7,,,,,,,,,11,,,,63,110
4326,note_on,21,0,8,,,,,,,,,12,,,,55,108
4330,note_on,60,0,9,,,,,,,,,13,,,,43,99
4332,note_on,60,0,10,,,,,,,,,14,,,,31,93
4339,control_change,19,0,6,,,,,,,,,10,11,57,,,
4359,control_change,20,0,6,,,,,,,,,10,11,56,,,
4361,note_on,0,0,7,,,,,,,,,11,,,,58,0
4361,note_on,39,0,7,,,,,,,,,11,,,,63,0
4365,note_on,39,0,8,,,,,,,,,12,,,,55,0
4379,control_change,20,0,6,,,,,,,,,10,11,55,,,
4382,note_on,0,0,7,,,,,,,,,11,,,,58,101
4382,note_on,21,0,7,,,,,,,,,11,,,,63,101
4386,note_on,21,0,8,,,,,,,,,12,,,,55,99
4392,control_change,13,0,6,,,,,,,,,10,11,58,,,
4416,control_change,24,0,6,,,,,,,,,10,11,60,,,
4421,note_on,0,0,7,,,,,,,,,11,,,,63,0
4421,note_on,39,0,7,,,,,,,,,11,,,,58,0
4425,note_on,39,0,8,,,,,,,,,12,,,,55,0
4440,control_change,24,0,6,,,,,,,,,10,11,62,,,
4442,note_on,0,0,7,,,,,,,,,11,,,,58,110
4442,note_on,21,0,7,,,,,,,,,11,,,,63,110
4446,note_on,21,0,8,,,,,,,,,12,,,,55,108
4464,control_change,24,0,6,,,,,,,,,10,11,63,,,
4481,note_on,39,0,7,,,,,,,,,11,,,,58,0
4481,note_on,0,0,7,,,,,,,,,11,,,,63,0
4485,note_on,39,0,8,,,,,,,,,12,,,,55,0
4488,control_change,24,0,6,,,,,,,,,10,11,64,,,
4500,note_on,0,0,6,,,,,,,,,10,,,,79,90
4500,note_on,12,0,6,,,,,,,,,10,,,,75,0
4502,note_on,21,0,7,,,,,,,,,11,,,,58,101
4502,note_on,0,0,7,,,,,,,,,11,,,,63,101
4506,note_on,21,0,8,,,,,,,,,12,,,,55,99
4512,control_change,12,0,6,,,,,,,,,10,11,66,,,
4536,control_change,24,0,6,,,,,,,,,10,11,67,,,
4539,note_on,3,0,6,,,,,,,,,10,,,,79,0
4541,note_on,39,0,7,,,,,,,,,11,,,,63,0
4541,note_on,0,0,7,,,,,,,,,11,,,,58,0
4545,note_on,39,0,8,,,,,,,,,12,,,,55,0
4560,note_on,0,0,6,,,,,,,,,10,,,,82,90
4560,control_change,21,0,6,,,,,,,,,10,11,68,,,
4560,set_tempo,240,1,0,,,,,,261438,,,,,,,,
4562,note_on,0,0,7,,,,,,,,,11,,,,58,110
4562,note_on,21,0,7,,,,,,,,,11,,,,63,110
4566,note_on,21,0,8,,,,,,,,,12,,,,55,108
4570,note_on,240,0,9,,,,,,,,,13,,,,43,0
4572,note_on,240,0,10,,,,,,,,,14,,,,31,0
4601,note_on,0,0,7,,,,,,,,,11,,,,63,0
4601,note_on,39,0,7,,,,,,,,,11,,,,58,0
4605,note_on,39,0,8,,,,,,,,,12,,,,55,0
4620,note_on,60,0,6,,,,,,,,,10,,,,82,0
4622,note_on,21,0,7,,,,,,,,,11,,,,63,101
4622,note_on,0,0,7,,,,,,,,,11,,,,58,101
4626,note_on,21,0,8,,,,,,,,,12,,,,55,99
4661,note_on,0,0,7,,,,,,,,,11,,,,63,0
4661,note_on,39,0,7,,,,,,,,,11,,,,58,0
4665,note_on,39,0,8,,,,,,,,,12,,,,55,0
4680,note_on,60,0,6,,,,,,,,,10,,,,82,90
4682,note_on,0,0,7,,,,,,,,,11,,,,63,110
4682,note_on,21,0,7,,,,,,,,,11,,,,58,110
4686,note_on,21,0,8,,,,,,,,,12,,,,55,108
4721,note_on,0,0,7,,,,,,,,,11,,,,58,0
4721,note_on,39,0,7,,,,,,,,,11,,,,63,0
4725,note_on,39,0,8,,,,,,,,,12,,,,55,0
4740,note_on,60,0,6,,,,,,,,,10,,,,82,0
4742,note_on,21,0,7,,,,,,,,,11,,,,63,101
4742,note_on,0,0,7,,,,,,,,,11,,,,58,101
4746,note_on,21,0,8,,,,,,,,,12,,,,55,99
4781,note_on,39,0,7,,,,,,,,,11,,,,58,0
4781,note_on,0,0,7,,,,,,,,,11,,,,63,0
4785,note_on,39,0,8,,,,,,,,,12,,,,55,0
4800,note_on,0,0,6,,,,,,,,,10,,,,82,79
4800,set_tempo,240,1,0,,,,,,272727,,,,,,,,
4800,control_change,60,0,6,,,,,,,,,10,11,68,,,
4802,note_on,0,0,7,,,,,,,,,11,,,,58,110
4802,note_on,21,0,7,,,,,,,,,11,,,,63,110
4806,note_on,21,0,8,,,,,,,,,12,,,,55,108
4810,note_on,240,0,9,,,,,,,,,13,,,,43,99
4812,note_on,240,0,10,,,,,,,,,14,,,,31,93
4824,control_change,24,0,6,,,,,,,,,10,11,67,,,
4841,note_on,0,0,7,,,,,,,,,11,,,,63,0
4841,note_on,39,0,7,,,,,,,,,11,,,,58,0
4845,note_on,39,0,8,,,,,,,,,12,,,,55,0
4848,control_change,24,0,6,,,,,,,,,10,11,66,,,
4862,note_on,0,0,7,,,,,,,,,11,,,,63,101
4862,note_on,21,0,7,,,,,,,,,11,,,,58,101
4866,note_on,21,0,8,,,,,,,,,12,,,,55,99
4872,control_change,24,0,6,,,,,,,,,10,11,64,,,
4896,control_change,24,0,6,,,,,,,,,10,11,63,,,
4901,note_on,0,0,7,,,,,,,,,11,,,,58,0
4901,note_on,39,0,7,,,,,,,,,11,,,,63,0
4905,note_on,39,0,8,,,,,,,,,12,,,,55,0
4920,control_change,24,0,6,,,,,,,,,10,11,62,,,
4922,note_on,0,0,7,,,,,,,,,11,,,,58,110
4922,note_on,21,0,7,,,,,,,,,11,,,,63,110
4926,note_on,21,0,8,,,,,,,,,12,,,,55,108
4944,control_change,24,0,6,,,,,,,,,10,11,60,,,
4961,note_on,39,0,7,,,,,,,,,11,,,,58,0
4961,note_on,0,0,7,,,,,,,,,11,,,,63,0
4965,note_on,39,0,8,,,,,,,,,12,,,,55,0
4968,control_change,24,0,6,,,,,,,,,10,11,58,,,
4982,note_on,21,0,7,,,,,,,,,11,,,,63,101
4982,note_on,0,0,7,,,,,,,,,11,,,,58,101
4986,note_on,21,0,8,,,,,,,,,12,,,,55,99
4990,note_on,180,0,9,,,,,,,,,13,,,,43,0
4990,note_on,0,0,9,,,,,,,,,13,,,,46,99
4992,control_change,24,0,6,,,,,,,,,10,11,55,,,
4992,note_on,0,0,10,,,,,,,,,14,,,,34,93
4992,note_on,180,0,10,,,,,,,,,14,,,,31,0
5016,control_change,24,0,6,,,,,,,,,10,11,52,,,
5021,note_on,39,0,7,,,,,,,,,11,,,,58,0
5021,note_on,0,0,7,,,,,,,,,11,,,,63,0
5025,note_on,39,0,8,,,,,,,,,12,,,,55,0
5029,note_on,39,0,9,,,,,,,,,13,,,,46,0
5031,note_on,39,0,10,,,,,,,,,14,,,,34,0
5040,note_on,0,0,6,,,,,,,,,10,,,,81,90
5040,note_on,24,0,6,,,,,,,,,10,,,,82,0
5040,control_change,0,0,6,,,,,,,,,10,11,49,,,
5040,set_tempo,240,1,0,,,,,,261438,,,,,,,,
5042,note_on,0,0,7,,,,,,,,,11,,,,63,110
5042,note_on,21,0,7,,,,,,,,,11,,,,58,110
5046,note_on,21,0,8,,,,,,,,,12,,,,55,108
5050,note_on,21,0,9,,,,,,,,,13,,,,51,99
5052,note_on,21,0,10,,,,,,,,,14,,,,39,93
5081,note_on,39,0,7,,,,,,,,,11,,,,63,0
5081,note_on,0,0,7,,,,,,,,,11,,,,58,0
5085,note_on,39,0,8,,,,,,,,,12,,,,55,0
5100,note_on,0,0,6,,,,,,,,,10,,,,79,90
5100,note_on,60,0,6,,,,,,,,,10,,,,81,0
5102,note_on,21,0,7,,,,,,,,,11,,,,63,101
5102,note_on,0,0,7,,,,,,,,,11,,,,58,101
5106,note_on,21,0,8,,,,,,,,,12,,,,55,99
5110,note_on,60,0,9,,,,,,,,,13,,,,51,0
5112,note_on,60,0,10,,,,,,,,,14,,,,39,0
5141,note_on,39,0,7,,,,,,,,,11,,,,58,0
5141,note_on,0,0,7,,,,,,,,,11,,,,63,0
5145,note_on,39,0,8,,,,,,,,,12,,,,55,0
5160,note_on,60,0,6,,,,,,,,,10,,,,79,0
5160,note_on,0,0,6,,,,,,,,,10,,,,77,90
5162,note_on,21,0,7,,,,,,,,,11,,,,63,110
5162,note_on,0,0,7,,,,,,,,,11,,,,58,110
5166,note_on,21,0,8,,,,,,,,,12,,,,55,108
5170,note_on,60,0,9,,,,,,,,,13,,,,51,99
5172,note_on,60,0,10,,,,,,,,,14,,,,39,93
5201,note_on,39,0,7,,,,,,,,,11,,,,58,0
5201,note_on,0,0,7,,,,,,,,,11,,,,63,0
5205,note_on,39,0,8,,,,,,,,,12,,,,55,0
5220,note_on,0,0,6,,,,,,,,,10,,,,75,90
5220,note_on,60,0,6,,,,,,,,,10,,,,77,0
5222,note_on,0,0,7,,,,,,,,,11,,,,63,101
5222,note_on,21,0,7,,,,,,,,,11,,,,58,101
5226,note_on,21,0,8,,,,,,,,,12,,,,55,99
5230,note_on,60,0,9,,,,,,,,,13,,,,51,0
5232,note_on,60,0,10,,,,,,,,,14,,,,39,0
5259,note_on,39,0,6,,,,,,,,,10,,,,75,0
5261,note_on,0,0,7,,,,,,,,,11,,,,58,0
5261,note_on,39,0,7,,,,,,,,,11,,,,63,0
5265,note_on,39,0,8,,,,,,,,,12,,,,55,0
5280,control_change,21,0,6,,,,,,,,,10,11,58,,,
5280,note_on,0,0,6,,,,,,,,,10,,,,74,90
5280,set_tempo,240,1,0,,,,,,272727,,,,,,,,
5282,note_on,21,0,7,,,,,,,,,11,,,,58,110
5282,note_on,0,0,7,,,,,,,,,11,,,,62,110
5286,note_on,21,0,8,,,,,,,,,12,,,,53,108
5290,note_on,60,0,9,,,,,,,,,13,,,,41,99
5292,note_on,60,0,10,,,,,,,,,14,,,,29,93
5299,control_change,19,0,6,,,,,,,,,10,11,57,,,
5319,control_change,20,0,6,,,,,,,,,10,11,56,,,
5321,note_on,39,0,7,,,,,,,,,11,,,,62,0
5321,note_on,0,0,7,,,,,,,,,11,,,,58,0
5325,note_on,39,0,8,,,,,,,,,12,,,,53,0
5339,control_change,20,0,6,,,,,,,,,10,11,55,,,
5342,note_on,21,0,7,,,,,,,,,11,,,,58,101
5342,note_on,0,0,7,,,,,,,,,11,,,,62,101
5346,note_on,21,0,8,,,,,,,,,12,,,,53,99
5352,control_change,13,0,6,,,,,,,,,10,11,58,,,
5376,control_change,24,0,6,,,,,,,,,10,11,60,,,
5381,note_on,39,0,7,,,,,,,,,11,,,,62,0
5381,note_on,0,0,7,,,,,,,,,11,,,,58,0
5385,note_on,39,0,8,,,,,,,,,12,,,,53,0
5400,control_change,24,0,6,,,,,,,,,10,11,62,,,
5402,note_on,0,0,7,,,,,,,,,11,,,,58,110
5402,note_on,21,0,7,,,,,,,,,11,,,,62,110
5406,note_on,21,0,8,,,,,,,,,12,,,,53,108
5424,control_change,24,0,6,,,,,,,,,10,11,63,,,
5441,note_on,0,0,7,,,,,,,,,11,,,,62,0
5441,note_on,39,0,7,,,,,,,,,11,,,,58,0
5445,note_on,39,0,8,,,,,,,,,12,,,,53,0
5448,control_change,24,0,6,,,,,,,,,10,11,64,,,
5460,note_on,12,0,6,,,,,,,,,10,,,,74,0
5460,note_on,0,0,6,,,,,,,,,10,,,,77,90
5462,note_on,0,0,7,,,,,,,,,11,,,,62,101
5462,note_on,21,0,7,,,,,,,,,11,,,,58,101
5466,note_on,21,0,8,,,,,,,,,12,,,,53,99
5472,control_change,12,0,6,,,,,,,,,10,11,66,,,
5496,control_change,24,0,6,,,,,,,,,10,11,67,,,
5499,note_on,3,0,6,,,,,,,,,10,,,,77,0
5501,note_on,0,0,7,,,,,,,,,11,,,,58,0
5501,note_on,39,0,7,,,,,,,,,11,,,,62,0
5505,note_on,39,0,8,,,,,,,,,12,,,,53,0
5520,note_on,0,0,6,,,,,,,,,10,,,,82,90
5520,set_tempo,240,1,0,,,,,,261438,,,,,,,,
5520,control_change,21,0,6,,,,,,,,,10,11,68,,,
5522,note_on,21,0,7,,,,,,,,,11,,,,62,110
5522,note_on,0,0,7,,,,,,,,,11,,,,58,110
5526,note_on,21,0,8,,,,,,,,,12,,,,53,108
5530,note_on,240,0,9,,,,,,,,,13,,,,41,0
5532,note_on,240,0,10,,,,,,,,,14,,,,29,0
5561,note_on,39,0,7,,,,,,,,,11,,,,58,0
5561,note_on,0,0,7,,,,,,,,,11,,,,62,0
5565,note_on,39,0,8,,,,,,,,,12,,,,53,0
5580,note_on,60,0,6,,,,,,,,,10,,,,82,0
5582,note_on,0,0,7,,,,,,,,,11,,,,58,101
5582,note_on,21,0,7,,,,,,,,,11,,,,62,101
5586,note_on,21,0,8,,,,,,,,,12,,,,53,99
5621,note_on,39,0,7,,,,,,,,,11,,,,58,0
5621,note_on,0,0,7,,,,,,,,,11,,,,62,0
5625,note_on,39,0,8,,,,,,,,,12,,,,53,0
5640,note_on,60,0,6,,,,,,,,,10,,,,82,90
5642,note_on,0,0,7,,,,,,,,,11,,,,62,110
5642,note_on,21,0,7,,,,,,,,,11,,,,58,110
5646,note_on,21,0,8,,,,,,,,,12,,,,53,108
5681,note_on,39,0,7,,,,,,,,,11,,,,62,0
5681,note_on,0,0,7,,,,,,,,,11,,,,58,0
5685,note_on,39,0,8,,,,,,,,,12,,,,53,0
5700,note_on,60,0,6,,,,,,,,,10,,,,82,0
5702,note_on,21,0,7,,,,,,,,,11,,,,58,101
5702,note_on,0,0,7,,,,,,,,,11,,,,62,101
5706,note_on,21,0,8,,,,,,,,,12,,,,53,99
5741,note_on,39,0,7,,,,,,,,,11,,,,62,0
5741,note_on,0,0,7,,,,,,,,,11,,,,58,0
5745,note_on,39,0,8,,,,,,,,,12,,,,53,0
5760,control_change,60,0,6,,,,,,,,,10,11,68,,,
5760,note_on,0,0,6,,,,,,,,,10,,,,82,79
5760,set_tempo,240,1,0,,,,,,272727,,,,,,,,
5762,note_on,21,0,7,,,,,,,,,11,,,,58,110
5762,note_on,0,0,7,,,,,,,,,11,,,,62,110
5766,note_on,21,0,8,,,,,,,,,12,,,,53,108
5770,note_on,240,0,9,,,,,,,,,13,,,,41,99
5772,note_on,240,0,10,,,,,,,,,14,,,,29,93
5778,control_change,18,0,6,,,,,,,,,10,11,67,,,
5796,control_change,18,0,6,,,,,,,,,10,11,66,,,
5801,note_on,0,0,7,,,,,,,,,11,,,,58,0
5801,note_on,39,0,7,,,,,,,,,11,,,,62,0
5805,note_on,39,0,8,,,,,,,,,12,,,,53,0
5814,control_change,18,0,6,,,,,,,,,10,11,64,,,
5822,note_on,0,0,7,,,,,,,,,11,,,,58,101
5822,note_on,21,0,7,,,,,,,,,11,,,,62,101
5826,note_on,21,0,8,,,,,,,,,12,,,,53,99
5832,control_change,18,0,6,,,,,,,,,10,11,63,,,
5850,control_change,18,0,6,,,,,,,,,10,11,62,,,
5861,note_on,0,0,7,,,,,,,,,11,,,,62,0
5861,note_on,39,0,7,,,,,,,,,11,,,,58,0
5865,note_on,39,0,8,,,,,,,,,12,,,,53,0
5868,control_change,18,0,6,,,,,,,,,10,11,60,,,
5882,note_on,0,0,7,,,,,,,,,11,,,,58,110
5882,note_on,21,0,7,,,,,,,,,11,,,,62,110
5886,control_change,18,0,6,,,,,,,,,10,11,58,,,
5886,note_on,21,0,8,,,,,,,,,12,,,,53,108
5904,control_change,18,0,6,,,,,,,,,10,11,55,,,
5921,note_on,0,0,7,,,,,,,,,11,,,,62,0
5921,note_on,39,0,7,,,,,,,,,11,,,,58,0
5922,control_change,18,0,6,,,,,,,,,10,11,52,,,
5925,note_on,39,0,8,,,,,,,,,12,,,,53,0
5940,note_on,0,0,6,,,,,,,,,10,,,,81,90
5940,note_on,18,0,6,,,,,,,,,10,,,,82,0
5940,control_change,0,0,6,,,,,,,,,10,11,49,,,
5942,note_on,21,0,7,,,,,,,,,11,,,,62,101
5942,note_on,0,0,7,,,,,,,,,11,,,,58,101
5946,note_on,21,0,8,,,,,,,,,12,,,,53,99
5950,note_on,180,0,9,,,,,,,,,13,,,,41,0
5950,note_on,0,0,9,,,,,,,,,13,,,,46,99
5952,note_on,0,0,10,,,,,,,,,14,,,,34,93
5952,note_on,180,0,10,,,,,,,,,14,,,,29,0
5981,note_on,0,0,7,,,,,,,,,11,,,,62,0
5981,note_on,39,0,7,,,,,,,,,11,,,,58,0
5985,note_on,39,0,8,,,,,,,,,12,,,,53,0
5989,note_on,39,0,9,,,,,,,,,13,,,,46,0
5991,note_on,39,0,10,,,,,,,,,14,,,,34,0
6000,set_tempo,240,1,0,,,,,,261438,,,,,,,,
6000,note_on,0,0,6,,,,,,,,,10,,,,79,90
6000,note_on,60,0,6,,,,,,,,,10,,,,81,0
6002,note_on,0,0,7,,,,,,,,,11,,,,58,110
6002,note_on,21,0,7,,,,,,,,,11,,,,62,110
6006,note_on,21,0,8,,,,,,,,,12,,,,53,108
6010,note_on,21,0,9,,,,,,,,,13,,,,50,99
6012,note_on,21,0,10,,,,,,,,,14,,,,38,93
6041,note_on,39,0,7,,,,,,,,,11,,,,58,0
6041,note_on,0,0,7,,,,,,,,,11,,,,62,0
6045,note_on,39,0,8,,,,,,,,,12,,,,53,0
6060,note_on,60,0,6,,,,,,,,,10,,,,79,0
6060,note_on,0,0,6,,,,,,,,,10,,,,77,90
6062,note_on,21,0,7,,,,,,,,,11,,,,58,101
6062,note_on,0,0,7,,,,,,,,,11,,,,62,101
6066,note_on,21,0,8,,,,,,,,,12,,,,53,99
6070,note_on,60,0,9,,,,,,,,,13,,,,50,0
6072,note_on,60,0,10,,,,,,,,,14,,,,38,0
6101,note_on,39,0,7,,,,,,,,,11,,,,62,0
6101,note_on,0,0,7,,,,,,,,,11,,,,58,0
6105,note_on,39,0,8,,,,,,,,,12,,,,53,0
6120,note_on,60,0,6,,,,,,,,,10,,,,77,0
6120,note_on,0,0,6,,,,,,,,,10,,,,75,90
6122,note_on,21,0,7,,,,,,,,,11,,,,58,110
6122,note_on,0,0,7,,,,,,,,,11,,,,62,110
6126,note_on,21,0,8,,,,,,,,,12,,,,53,108
6130,note_on,60,0,9,,,,,,,,,13,,,,50,99
6132,note_on,60,0,10,,,,,,,,,14,,,,38,93
6161,note_on,39,0,7,,,,,,,,,11,,,,62,0
6161,note_on,0,0,7,,,,,,,,,11,,,,58,0
6165,note_on,39,0,8,,,,,,,,,12,,,,53,0
6180,note_on,60,0,6,,,,,,,,,10,,,,75,0
6180,note_on,0,0,6,,,,,,,,,10,,,,74,90
6182,note_on,0,0,7,,,,,,,,,11,,,,62,101
6182,note_on,21,0,7,,,,,,,,,11,,,,58,101
6186,note_on,21,0,8,,,,,,,,,12,,,,53,99
6190,note_on,60,0,9,,,,,,,,,13,,,,50,0
6192,note_on,60,0,10,,,,,,,,,14,,,,38,0
6219,note_on,39,0,6,,,,,,,,,10,,,,74,0
6221,note_on,39,0,7,,,,,,,,,11,,,,62,0
6221,note_on,0,0,7,,,,,,,,,11,,,,58,0
6225,note_on,39,0,8,,,,,,,,,12,,,,53,0
6240,note_on,0,0,6,,,,,,,,,10,,,,72,90
6240,set_tempo,240,1,0,,,,,,272727,,,,,,,,
6240,control_change,21,0,6,,,,,,,,,10,11,58,,,
6242,note_on,21,0,7,,,,,,,,,11,,,,60,110
6246,note_on,21,0,8,,,,,,,,,12,,,,57,108
6250,note_on,60,0,9,,,,,,,,,13,,,,51,99
6252,note_on,60,0,10,,,,,,,,,14,,,,39,93
6259,control_change,19,0,6,,,,,,,,,10,11,57,,,
6279,control_change,20,0,6,,,,,,,,,10,11,56,,,
6281,note_on,39,0,7,,,,,,,,,11,,,,60,0
6285,note_on,39,0,8,,,,,,,,,12,,,,57,0
6299,control_change,20,0,6,,,,,,,,,10,11,55,,,
6302,note_on,21,0,7,,,,,,,,,11,,,,60,101
6306,note_on,21,0,8,,,,,,,,,12,,,,57,99
6312,control_change,13,0,6,,,,,,,,,10,11,58,,,
6336,control_change,24,0,6,,,,,,,,,10,11,60,,,
6341,note_on,39,0,7,,,,,,,,,11,,,,60,0
6345,note_on,39,0,8,,,,,,,,,12,,,,57,0
6360,control_change,24,0,6,,,,,,,,,10,11,62,,,
6362,note_on,21,0,7,,,,,,,,,11,,,,60,110
6366,note_on,21,0,8,,,,,,,,,12,,,,57,108
6384,control_change,24,0,6,,,,,,,,,10,11,63,,,
6401,note_on,39,0,7,,,,,,,,,11,,,,60,0
6405,note_on,39,0,8,,,,,,,,,12,,,,57,0
6408,control_change,24,0,6,,,,,,,,,10,11,64,,,
6420,note_on,12,0,6,,,,,,,,,10,,,,72,0
6420,note_on,0,0,6,,,,,,,,,10,,,,75,90
6422,note_on,21,0,7,,,,,,,,,11,,,,60,101
6426,note_on,21,0,8,,,,,,,,,12,,,,57,99
6432,control_change,12,0,6,,,,,,,,,10,11,66,,,
6456,control_change,24,0,6,,,,,,,,,10,11,67,,,
6459,note_on,3,0,6,,,,,,,,,10,,,,75,0
6461,note_on,39,0,7,,,,,,,,,11,,,,60,0
6465,note_on,39,0,8,,,,,,,,,12,,,,57,0
6480,note_on,0,0,6,,,,,,,,,10,,,,79,90
6480,set_tempo,240,1,0,,,,,,261438,,,,,,,,
6480,control_change,21,0,6,,,,,,,,,10,11,68,,,
6482,note_on,21,0,7,,,,,,,,,11,,,,60,110
6486,note_on,21,0,8,,,,,,,,,12,,,,57,108
6521,note_on,39,0,7,,,,,,,,,11,,,,60,0
6525,note_on,39,0,8,,,,,,,,,12,,,,57,0
6540,note_on,60,0,6,,,,,,,,,10,,,,79,0
6542,note_on,21,0,7,,,,,,,,,11,,,,60,101
6546,note_on,21,0,8,,,,,,,,,12,,,,57,99
6581,note_on,39,0,7,,,,,,,,,11,,,,60,0
6585,note_on,39,0,8,,,,,,,,,12,,,,57,0
6600,note_on,60,0,6,,,,,,,,,10,,,,79,90
6602,note_on,21,0,7,,,,,,,,,11,,,,60,110
6606,note_on,21,0,8,,,,,,,,,12,,,,57,108
6641,note_on,39,0,7,,,,,,,,,11,,,,60,0
6645,note_on,39,0,8,,,,,,,,,12,,,,57,0
6660,note_on,60,0,6,,,,,,,,,10,,,,79,0
6662,note_on,21,0,7,,,,,,,,,11,,,,60,101
6666,note_on,21,0,8,,,,,,,,,12,,,,57,99
6701,note_on,39,0,7,,,,,,,,,11,,,,60,0
6705,note_on,39,0,8,,,,,,,,,12,,,,57,0
6720,set_tempo,240,1,0,,,,,,272727,,,,,,,,
6720,note_on,0,0,6,,,,,,,,,10,,,,77,79
6720,control_change,60,0,6,,,,,,,,,10,11,68,,,
6722,note_on,21,0,7,,,,,,,,,11,,,,65,110
6726,note_on,21,0,8,,,,,,,,,12,,,,58,108
6730,note_on,0,0,9,,,,,,,,,13,,,,50,99
6730,note_on,480,0,9,,,,,,,,,13,,,,51,0
6732,note_on,480,0,10,,,,,,,,,14,,,,39,0
6732,note_on,0,0,10,,,,,,,,,14,,,,38,93
6744,control_change,24,0,6,,,,,,,,,10,11,67,,,
6761,note_on,39,0,7,,,,,,,,,11,,,,65,0
6765,note_on,39,0,8,,,,,,,,,12,,,,58,0
6768,control_change,24,0,6,,,,,,,,,10,11,66,,,
6782,note_on,21,0,7,,,,,,,,,11,,,,65,101
6786,note_on,21,0,8,,,,,,,,,12,,,,58,99
6792,control_change,24,0,6,,,,,,,,,10,11,64,,,
6816,control_change,24,0,6,,,,,,,,,10,11,63,,,
6821,note_on,39,0,7,,,,,,,,,11,,,,65,0
6825,note_on,39,0,8,,,,,,,,,12,,,,58,0
6840,control_change,24,0,6,,,,,,,,,10,11,62,,,
6842,note_on,21,0,7,,,,,,,,,11,,,,65,110
6846,note_on,21,0,8,,,,,,,,,12,,,,58,108
6864,control_change,24,0,6,,,,,,,,,10,11,60,,,
6881,note_on,39,0,7,,,,,,,,,11,,,,65,0
6885,note_on,39,0,8,,,,,,,,,12,,,,58,0
6888,control_change,24,0,6,,,,,,,,,10,11,58,,,
6902,note_on,21,0,7,,,,,,,,,11,,,,65,101
6906,note_on,21,0,8,,,,,,,,,12,,,,58,99
6912,control_change,24,0,6,,,,,,,,,10,11,55,,,
6936,control_change,24,0,6,,,,,,,,,10,11,52,,,
6941,note_on,39,0,7,,,,,,,,,11,,,,65,0
6945,note_on,39,0,8,,,,,,,,,12,,,,58,0
6960,note_on,0,0,6,,,,,,,,,10,,,,75,90
6960,set_tempo,240,1,0,,,,,,261438,,,,,,,,
6960,note_on,24,0,6,,,,,,,,,10,,,,77,0
6960,control_change,0,0,6,,,,,,,,,10,11,49,,,
6962,note_on,21,0,7,,,,,,,,,11,,,,65,110
6966,note_on,21,0,8,,,,,,,,,12,,,,58,108
7001,note_on,39,0,7,,,,,,,,,11,,,,65,0
7005,note_on,39,0,8,,,,,,,,,12,,,,58,0
7020,note_on,0,0,6,,,,,,,,,10,,,,74,90
7020,note_on,60,0,6,,,,,,,,,10,,,,75,0
7022,note_on,21,0,7,,,,,,,,,11,,,,65,101
7026,note_on,21,0,8,,,,,,,,,12,,,,58,99
7061,note_on,39,0,7,,,,,,,,,11,,,,65,0
7065,note_on,39,0,8,,,,,,,,,12,,,,58,0
7080,note_on,60,0,6,,,,,,,,,10,,,,74,0
7080,note_on,0,0,6,,,,,,,,,10,,,,72,90
7082,note_on,21,0,7,,,,,,,,,11,,,,65,110
7086,note_on,21,0,8,,,,,,,,,12,,,,58,108
7121,note_on,39,0,7,,,,,,,,,11,,,,65,0
7125,note_on,39,0,8,,,,,,,,,12,,,,58,0
7140,note_on,60,0,6,,,,,,,,,10,,,,72,0
7140,note_on,0,0,6,,,,,,,,,10,,,,70,90
7142,note_on,21,0,7,,,,,,,,,11,,,,65,101
7146,note_on,21,0,8,,,,,,,,,12,,,,58,99
7179,note_on,39,0,6,,,,,,,,,10,,,,70,0
7181,note_on,39,0,7,,,,,,,,,11,,,,65,0
7185,note_on,39,0,8,,,,,,,,,12,,,,58,0
7200,set_tempo,240,1,0,,,,,,272727,,,,,,,,
7200,note_on,0,0,6,,,,,,,,,10,,,,72,90
7200,control_change,21,0,6,,,,,,,,,10,11,58,,,
7202,note_on,21,0,7,,,,,,,,,11,,,,60,110
7206,note_on,21,0,8,,,,,,,,,12,,,,57,108
7210,note_on,0,0,9,,,,,,,,,13,,,,51,99
7210,note_on,480,0,9,,,,,,,,,13,,,,50,0
7212,note_on,0,0,10,,,,,,,,,14,,,,39,93
7212,note_on,480,0,10,,,,,,,,,14,,,,38,0
7219,control_change,19,0,6,,,,,,,,,10,11,57,,,
7239,control_change,20,0,6,,,,,,,,,10,11,56,,,
7241,note_on,39,0,7,,,,,,,,,11,,,,60,0
7245,note_on,39,0,8,,,,,,,,,12,,,,57,0
7259,control_change,20,0,6,,,,,,,,,10,11,55,,,
7262,note_on,21,0,7,,,,,,,,,11,,,,60,101
7266,note_on,21,0,8,,,,,,,,,12,,,,57,99
7272,control_change,13,0,6,,,,,,,,,10,11,58,,,
7296,control_change,24,0,6,,,,,,,,,10,11,60,,,
7301,note_on,39,0,7,,,,,,,,,11,,,,60,0
7305,note_on,39,0,8,,,,,,,,,12,,,,57,0
7320,control_change,24,0,6,,,,,,,,,10,11,62,,,
7322,note_on,21,0,7,,,,,,,,,11,,,,60,110
7326,note_on,21,0,8,,,,,,,,,12,,,,57,108
7344,control_change,24,0,6,,,,,,,,,10,11,63,,,
7361,note_on,39,0,7,,,,,,,,,11,,,,60,0
7365,note_on,39,0,8,,,,,,,,,12,,,,57,0
7368,control_change,24,0,6,,,,,,,,,10,11,64,,,
7380,note_on,12,0,6,,,,,,,,,10,,,,72,0
7380,note_on,0,0,6,,,,,,,,,10,,,,75,90
7382,note_on,21,0,7,,,,,,,,,11,,,,60,101
7386,note_on,21,0,8,,,,,,,,,12,,,,57,99
7392,control_change,12,0,6,,,,,,,,,10,11,66,,,
7416,control_change,24,0,6,,,,,,,,,10,11,67,,,
7419,note_on,3,0,6,,,,,,,,,10,,,,75,0
7421,note_on,39,0,7,,,,,,,,,11,,,,60,0
7425,note_on,39,0,8,,,,,,,,,12,,,,57,0
7440,note_on,0,0,6,,,,,,,,,10,,,,79,90
7440,set_tempo,240,1,0,,,,,,261438,,,,,,,,
7440,control_change,21,0,6,,,,,,,,,10,11,68,,,
7442,note_on,21,0,7,,,,,,,,,11,,,,60,110
7446,note_on,21,0,8,,,,,,,,,12,,,,57,108
7481,note_on,39,0,7,,,,,,,,,11,,,,60,0
7485,note_on,39,0,8,,,,,,,,,12,,,,57,0
7500,note_on,60,0,6,,,,,,,,,10,,,,79,0
7502,note_on,21,0,7,,,,,,,,,11,,,,60,101
7506,note_on,21,0,8,,,,,,,,,12,,,,57,99
7541,note_on,39,0,7,,,,,,,,,11,,,,60,0
7545,note_on,39,0,8,,,,,,,,,12,,,,57,0
7560,note_on,60,0,6,,,,,,,,,10,,,,79,90
7562,note_on,21,0,7,,,,,,,,,11,,,,60,110
7566,note_on,21,0,8,,,,,,,,,12,,,,57,108
7601,note_on,39,0,7,,,,,,,,,11,,,,60,0
7605,note_on,39,0,8,,,,,,,,,12,,,,57,0
7620,note_on,60,0,6,,,,,,,,,10,,,,79,0
7622,note_on,21,0,7,,,,,,,,,11,,,,60,101
7626,note_on,21,0,8,,,,,,,,,12,,,,57,99
7661,note_on,39,0,7,,,,,,,,,11,,,,60,0
7665,note_on,39,0,8,,,,,,,,,12,,,,57,0
7680,set_tempo,240,1,0,,,,,,272727,,,,,,,,
7680,note_on,0,0,6,,,,,,,,,10,,,,77,79
7680,control_change,60,0,6,,,,,,,,,10,11,68,,,
7682,note_on,21,0,7,,,,,,,,,11,,,,65,110
7686,note_on,21,0,8,,,,,,,,,12,,,,58,108
7690,note_on,480,0,9,,,,,,,,,13,,,,51,0
7690,note_on,0,0,9,,,,,,,,,13,,,,50,99
7692,note_on,0,0,10,,,,,,,,,14,,,,38,93
7692,note_on,480,0,10,,,,,,,,,14,,,,39,0
7704,control_change,24,0,6,,,,,,,,,10,11,67,,,
7721,note_on,39,0,7,,,,,,,,,11,,,,65,0
7725,note_on,39,0,8,,,,,,,,,12,,,,58,0
7728,control_change,24,0,6,,,,,,,,,10,11,66,,,
7742,note_on,21,0,7,,,,,,,,,11,,,,65,101
7746,note_on,21,0,8,,,,,,,,,12,,,,58,99
7752,control_change,24,0,6,,,,,,,,,10,11,64,,,
7776,control_change,24,0,6,,,,,,,,,10,11,63,,,
7781,note_on,39,0,7,,,,,,,,,11,,,,65,0
7785,note_on,39,0,8,,,,,,,,,12,,,,58,0
7800,control_change,24,0,6,,,,,,,,,10,11,62,,,
7802,note_on,21,0,7,,,,,,,,,11,,,,65,110
7806,note_on,21,0,8,,,,,,,,,12,,,,58,108
7824,control_change,24,0,6,,,,,,,,,10,11,60,,,
7841,note_on,39,0,7,,,,,,,,,11,,,,65,0
7845,note_on,39,0,8,,,,,,,,,12,,,,58,0
7848,control_change,24,0,6,,,,,,,,,10,11,58,,,
7862,note_on,21,0,7,,,,,,,,,11,,,,65,101
7866,note_on,21,0,8,,,,,,,,,12,,,,58,99
7872,control_change,24,0,6,,,,,,,,,10,11,55,,,
7896,control_change,24,0,6,,,,,,,,,10,11,52,,,
7901,note_on,39,0,7,,,,,,,,,11,,,,65,0
7905,note_on,39,0,8,,,,,,,,,12,,,,58,0
7920,set_tempo,240,1,0,,,,,,261438,,,,,,,,
7920,control_change,0,0,6,,,,,,,,,10,11,49,,,
7920,note_on,0,0,6,,,,,,,,,10,,,,75,90
7920,note_on,24,0,6,,,,,,,,,10,,,,77,0
7922,note_on,21,0,7,,,,,,,,,11,,,,65,110
7926,note_on,21,0,8,,,,,,,,,12,,,,58,108
7961,note_on,39,0,7,,,,,,,,,11,,,,65,0
7965,note_on,39,0,8,,,,,,,,,12,,,,58,0
7980,note_on,0,0,6,,,,,,,,,10,,,,74,90
7980,note_on,60,0,6,,,,,,,,,10,,,,75,0
7982,note_on,21,0,7,,,,,,,,,11,,,,65,101
7986,note_on,21,0,8,,,,,,,,,12,,,,58,99
8021,note_on,39,0,7,,,,,,,,,11,,,,65,0
8025,note_on,39,0,8,,,,,,,,,12,,,,58,0
8040,note_on,60,0,6,,,,,,,,,10,,,,74,0
8040,note_on,0,0,6,,,,,,,,,10,,,,72,90
8042,note_on,21,0,7,,,,,,,,,11,,,,65,110
8046,note_on,21,0,8,,,,,,,,,12,,,,58,108
8081,note_on,39,0,7,,,,,,,,,11,,,,65,0
8085,note_on,39,0,8,,,,,,,,,12,,,,58,0
8100,note_on,0,0,6,,,,,,,,,10,,,,70,90
8100,note_on,60,0,6,,,,,,,,,10,,,,72,0
8102,note_on,21,0,7,,,,,,,,,11,,,,65,101
8106,note_on,21,0,8,,,,,,,,,12,,,,58,99
8139,note_on,39,0,6,,,,,,,,,10,,,,70,0
8141,note_on,39,0,7,,,,,,,,,11,,,,65,0
8145,note_on,39,0,8,,,,,,,,,12,,,,58,0
8160,set_tempo,240,1,0,,,,,,272727,,,,,,,,
8160,control_change,21,0,6,,,,,,,,,10,11,49,,,
8160,note_on,0,0,6,,,,,,,,,10,,,,77,90
8162,control_change,21,0,7,,,,,,,,,11,11,42,,,
8162,note_on,0,0,7,,,,,,,,,11,,,,70,110
8166,control_change,21,0,8,,,,,,,,,12,11,42,,,
8166,note_on,0,0,8,,,,,,,,,12,,,,63,108
8170,note_on,480,0,9,,,,,,,,,13,,,,50,0
8170,control_change,0,0,9,,,,,,,,,13,11,42,,,
8170,note_on,0,0,9,,,,,,,,,13,,,,55,99
8172,control_change,0,0,10,,,,,,,,,14,11,42,,,
8172,note_on,0,0,10,,,,,,,,,14,,,,43,93
8172,note_on,480,0,10,,,,,,,,,14,,,,38,0
8201,note_on,39,0,7,,,,,,,,,11,,,,70,0
8205,note_on,39,0,8,,,,,,,,,12,,,,63,0
8222,note_on,21,0,7,,,,,,,,,11,,,,70,101
8226,note_on,21,0,8,,,,,,,,,12,,,,63,99
8261,note_on,39,0,7,,,,,,,,,11,,,,70,0
8265,note_on,39,0,8,,,,,,,,,12,,,,63,0
8280,note_on,0,0,6,,,,,,,,,10,,,,75,90
8280,note_on,120,0,6,,,,,,,,,10,,,,77,0
8282,note_on,21,0,7,,,,,,,,,11,,,,70,110
8286,note_on,21,0,8,,,,,,,,,12,,,,63,108
8321,note_on,39,0,7,,,,,,,,,11,,,,70,0
8325,note_on,39,0,8,,,,,,,,,12,,,,63,0
8340,note_on,60,0,6,,,,,,,,,10,,,,75,0
8342,note_on,21,0,7,,,,,,,,,11,,,,70,101
8346,note_on,21,0,8,,,,,,,,,12,,,,63,99
8352,control_change,12,0,6,,,,,,,,,10,11,52,,,
8354,control_change,12,0,7,,,,,,,,,11,11,43,,,
8358,control_change,12,0,8,,,,,,,,,12,11,43,,,
8362,control_change,192,0,9,,,,,,,,,13,11,43,,,
8364,control_change,192,0,10,,,,,,,,,14,11,43,,,
8381,note_on,27,0,7,,,,,,,,,11,,,,70,0
8385,note_on,27,0,8,,,,,,,,,12,,,,63,0
8400,set_tempo,240,1,0,,,,,,263736,,,,,,,,
8400,note_on,48,0,6,,,,,,,,,10,,,,75,90
8402,note_on,21,0,7,,,,,,,,,11,,,,70,110
8405,note_on,0,0,2,,,,,,,,,1,,,,70,97
8405,note_on,0,0,2,,,,,,,,,1,,,,82,97
8405,control_change,5880,0,2,,,,,,,,,1,11,32,,,
8405,note_on,43,0,9,,,,,,,,,13,,,,55,0
8406,note_on,21,0,8,,,,,,,,,12,,,,65,108
8407,note_on,43,0,10,,,,,,,,,14,,,,43,0
8410,note_on,5,0,9,,,,,,,,,13,,,,53,99
8412,note_on,5,0,10,,,,,,,,,14,,,,41,93
8429,control_change,24,0,2,,,,,,,,,1,11,34,,,
8441,note_on,39,0,7,,,,,,,,,11,,,,70,0
8445,note_on,39,0,8,,,,,,,,,12,,,,65,0
8453,control_change,24,0,2,,,,,,,,,1,11,36,,,
8462,note_on,21,0,7,,,,,,,,,11,,,,70,101
8466,note_on,21,0,8,,,,,,,,,12,,,,65,99
8477,control_change,24,0,2,,,,,,,,,1,11,38,,,
8501,note_on,39,0,7,,,,,,,,,11,,,,70,0
8501,control_change,24,0,2,,,,,,,,,1,11,40,,,
8505,note_on,39,0,8,,,,,,,,,12,,,,65,0
8520,note_on,120,0,6,,,,,,,,,10,,,,75,0
8520,note_on,0,0,6,,,,,,,,,10,,,,74,90
8522,note_on,21,0,7,,,,,,,,,11,,,,70,110
8525,control_change,24,0,2,,,,,,,,,1,11,42,,,
8526,note_on,21,0,8,,,,,,,,,12,,,,65,108
8544,control_change,24,0,6,,,,,,,,,10,11,55,,,
8546,control_change,24,0,7,,,,,,,,,11,11,45,,,
8549,control_change,24,0,2,,,,,,,,,1,11,44,,,
8550,control_change,24,0,8,,,,,,,,,12,11,45,,,
8554,control_change,144,0,9,,,,,,,,,13,11,45,,,
8556,control_change,144,0,10,,,,,,,,,14,11,45,,,
8561,note_on,15,0,7,,,,,,,,,11,,,,70,0
8565,note_on,15,0,8,,,,,,,,,12,,,,65,0
8573,control_change,24,0,2,,,,,,,,,1,11,46,,,
8580,note_on,36,0,6,,,,,,,,,10,,,,74,0
8582,note_on,21,0,7,,,,,,,,,11,,,,70,101
8586,note_on,21,0,8,,,,,,,,,12,,,,65,99
8597,control_change,24,0,2,,,,,,,,,1,11,48,,,
8621,control_change,24,0,2,,,,,,,,,1,11,50,,,
8621,note_on,39,0,7,,,,,,,,,11,,,,70,0
8625,note_on,39,0,8,,,,,,,,,12,,,,65,0
8640,set_tempo,240,1,0,,,,,,272727,,,,,,,,
8640,note_on,60,0,6,,,,,,,,,10,,,,74,90
8642,note_on,21,0,7,,,,,,,,,11,,,,70,110
8645,note_on,91,0,9,,,,,,,,,13,,,,53,0
8645,control_change,24,0,2,,,,,,,,,1,11,52,,,
8646,note_on,21,0,8,,,,,,,,,12,,,,67,108
8647,note_on,91,0,10,,,,,,,,,14,,,,41,0
8650,note_on,5,0,9,,,,,,,,,13,,,,51,99
8652,note_on,5,0,10,,,,,,,,,14,,,,39,93
8681,note_on,39,0,7,,,,,,,,,11,,,,70,0
8685,note_on,39,0,8,,,,,,,,,12,,,,67,0
8702,note_on,21,0,7,,,,,,,,,11,,,,70,101
8706,note_on,21,0,8,,,,,,,,,12,,,,67,99
8736,control_change,96,0,6,,,,,,,,,10,11,58,,,
8738,control_change,36,0,7,,,,,,,,,11,11,46,,,
8741,note_on,3,0,7,,,,,,,,,11,,,,70,0
8742,control_change,36,0,8,,,,,,,,,12,11,46,,,
8745,note_on,3,0,8,,,,,,,,,12,,,,67,0
8746,control_change,96,0,9,,,,,,,,,13,11,46,,,
8748,control_change,96,0,10,,,,,,,,,14,11,46,,,
8760,note_on,24,0,6,,,,,,,,,10,,,,74,0
8760,note_on,0,0,6,,,,,,,,,10,,,,72,90
8762,note_on,21,0,7,,,,,,,,,11,,,,70,110
8766,note_on,21,0,8,,,,,,,,,12,,,,67,108
8801,note_on,39,0,7,,,,,,,,,11,,,,70,0
8805,note_on,39,0,8,,,,,,,,,12,,,,67,0
8820,note_on,60,0,6,,,,,,,,,10,,,,72,0
8822,note_on,21,0,7,,,,,,,,,11,,,,70,101
8826,note_on,21,0,8,,,,,,,,,12,,,,67,99
8861,note_on,39,0,7,,,,,,,,,11,,,,70,0
8865,note_on,39,0,8,,,,,,,,,12,,,,67,0
8880,set_tempo,240,1,0,,,,,,266667,,,,,,,,
8880,note_on,60,0,6,,,,,,,,,10,,,,72,90
8882,note_on,21,0,7,,,,,,,,,11,,,,70,110
8885,note_on,139,0,9,,,,,,,,,13,,,,51,0
8886,note_on,21,0,8,,,,,,,,,12,,,,67,108
8887,note_on,139,0,10,,,,,,,,,14,,,,39,0
8890,note_on,5,0,9,,,,,,,,,13,,,,52,99
8892,note_on,5,0,10,,,,,,,,,14,,,,40,93
8921,note_on,39,0,7,,,,,,,,,11,,,,70,0
8925,note_on,39,0,8,,,,,,,,,12,,,,67,0
8928,control_change,48,0,6,,,,,,,,,10,11,60,,,
8930,control_change,9,0,7,,,,,,,,,11,11,48,,,
8934,control_change,9,0,8,,,,,,,,,12,11,48,,,
8938,control_change,48,0,9,,,,,,,,,13,11,48,,,
8940,control_change,48,0,10,,,,,,,,,14,11,48,,,
8942,note_on,12,0,7,,,,,,,,,11,,,,70,101
8946,note_on,12,0,8,,,,,,,,,12,,,,67,99
8981,note_on,39,0,7,,,,,,,,,11,,,,70,0
8985,note_on,39,0,8,,,,,,,,,12,,,,67,0
9000,note_on,72,0,6,,,,,,,,,10,,,,72,0
9000,note_on,0,0,6,,,,,,,,,10,,,,73,90
9002,note_on,21,0,7,,,,,,,,,11,,,,70,110
9005,note_on,360,0,2,,,,,,,,,1,,,,82,0
9005,note_on,0,0,2,,,,,,,,,1,,,,73,97
9006,note_on,21,0,8,,,,,,,,,12,,,,67,108
9041,note_on,39,0,7,,,,,,,,,11,,,,70,0
9045,note_on,39,0,8,,,,,,,,,12,,,,67,0
9060,note_on,60,0,6,,,,,,,,,10,,,,73,0
9062,note_on,21,0,7,,,,,,,,,11,,,,70,101
9066,note_on,21,0,8,,,,,,,,,12,,,,67,99
9101,note_on,39,0,7,,,,,,,,,11,,,,70,0
9105,note_on,39,0,8,,,,,,,,,12,,,,67,0
9120,control_change,60,0,6,,,,,,,,,10,11,62,,,
9120,set_tempo,240,1,0,,,,,,276498,,,,,,,,
9120,note_on,0,0,6,,,,,,,,,10,,,,72,90
9122,control_change,21,0,7,,,,,,,,,11,11,49,,,
9122,note_on,0,0,7,,,,,,,,,11,,,,69,110
9123,control_change,6600,0,1,,,,,,,,,0,11,52,,,
9123,note_on,0,0,1,,,,,,,,,0,,,,84,110
9124,note_on,0,0,4,,,,,,,,,4,,,,53,96
9124,control_change,9090,0,4,,,,,,,,,4,11,47,,,
9125,note_on,0,0,2,,,,,,,,,1,,,,69,97
9125,note_on,120,0,2,,,,,,,,,1,,,,73,0
9125,note_on,0,0,2,,,,,,,,,1,,,,70,0
9125,note_on,0,0,2,,,,,,,,,1,,,,72,97
9125,note_on,187,0,9,,,,,,,,,13,,,,52,0
9126,note_on,0,0,8,,,,,,,,,12,,,,60,108
9126,control_change,21,0,8,,,,,,,,,12,11,49,,,
9126,note_on,0,0,5,,,,,,,,,5,,,,41,96
9126,control_change,9090,0,5,,,,,,,,,5,11,47,,,
9127,note_on,187,0,10,,,,,,,,,14,,,,40,0
9130,note_on,0,0,9,,,,,,,,,13,,,,53,99
9130,control_change,5,0,9,,,,,,,,,13,11,49,,,
9132,note_on,0,0,10,,,,,,,,,14,,,,41,93
9132,control_change,5,0,10,,,,,,,,,14,11,49,,,
9161,note_on,39,0,7,,,,,,,,,11,,,,69,0
9165,note_on,39,0,8,,,,,,,,,12,,,,60,0
9182,note_on,21,0,7,,,,,,,,,11,,,,69,101
9186,note_on,21,0,8,,,,,,,,,12,,,,60,99
9221,note_on,39,0,7,,,,,,,,,11,,,,69,0
9225,note_on,39,0,8,,,,,,,,,12,,,,60,0
9242,note_on,21,0,7,,,,,,,,,11,,,,69,110
9246,note_on,21,0,8,,,,,,,,,12,,,,60,108
9281,note_on,39,0,7,,,,,,,,,11,,,,69,0
9285,note_on,39,0,8,,,,,,,,,12,,,,60,0
9302,note_on,21,0,7,,,,,,,,,11,,,,69,101
9303,note_on,0,0,1,,,,,,,,,0,,,,81,97
9303,note_on,180,0,1,,,,,,,,,0,,,,84,0
9306,note_on,21,0,8,,,,,,,,,12,,,,60,99
9341,note_on,39,0,7,,,,,,,,,11,,,,69,0
9345,note_on,39,0,8,,,,,,,,,12,,,,60,0
9360,set_tempo,240,1,0,,,,,,269663,,,,,,,,
9360,note_on,240,0,6,,,,,,,,,10,,,,72,0
9362,note_on,21,0,7,,,,,,,,,11,,,,69,110
9363,note_on,0,0,1,,,,,,,,,0,,,,77,97
9363,note_on,60,0,1,,,,,,,,,0,,,,81,0
9365,note_on,0,0,2,,,,,,,,,1,,,,69,97
9365,note_on,240,0,2,,,,,,,,,1,,,,69,0
9365,note_on,0,0,2,,,,,,,,,1,,,,72,0
9365,note_on,0,0,2,,,,,,,,,1,,,,77,97
9366,note_on,21,0,8,,,,,,,,,12,,,,60,108
9371,note_on,0,0,3,,,,,,,,,3,,,,53,97
9371,note_on,0,0,3,,,,,,,,,3,,,,60,97
9371,control_change,6840,0,3,,,,,,,,,3,11,52,,,
9401,note_on,39,0,7,,,,,,,,,11,,,,69,0
9405,note_on,39,0,8,,,,,,,,,12,,,,60,0
9422,note_on,21,0,7,,,,,,,,,11,,,,69,101
9423,note_on,60,0,1,,,,,,,,,0,,,,77,0
9426,note_on,21,0,8,,,,,,,,,12,,,,60,99
9461,note_on,39,0,7,,,,,,,,,11,,,,69,0
9465,note_on,39,0,8,,,,,,,,,12,,,,60,0
9482,note_on,21,0,7,,,,,,,,,11,,,,69,110
9483,note_on,60,0,1,,,,,,,,,0,,,,77,97
9486,note_on,21,0,8,,,,,,,,,12,,,,60,108
9521,note_on,39,0,7,,,,,,,,,11,,,,69,0
9525,note_on,39,0,8,,,,,,,,,12,,,,60,0
9542,note_on,21,0,7,,,,,,,,,11,,,,69,101
9543,note_on,60,0,1,,,,,,,,,0,,,,77,0
9546,note_on,21,0,8,,,,,,,,,12,,,,60,99
9581,note_on,39,0,7,,,,,,,,,11,,,,69,0
9585,note_on,39,0,8,,,,,,,,,12,,,,60,0
9600,control_change,240,0,6,,,,,,,,,10,11,57,,,
9600,note_on,0,0,6,,,,,,,,,10,,,,85,108
9600,set_tempo,240,1,0,,,,,,277136,,,,,,,,
9602,note_on,0,0,7,,,,,,,,,11,,,,70,125
9602,control_change,21,0,7,,,,,,,,,11,11,47,,,
9603,control_change,60,0,1,,,,,,,,,0,11,56,,,
9603,note_on,0,0,1,,,,,,,,,0,,,,76,97
9604,control_change,4,0,6,,,,,,,,,10,11,60,,,
9604,control_change,480,0,4,,,,,,,,,4,11,65,,,
9605,note_on,0,0,2,,,,,,,,,1,,,,77,0
9605,note_on,240,0,2,,,,,,,,,1,,,,69,0
9605,note_on,0,0,2,,,,,,,,,1,,,,70,110
9605,note_on,0,0,2,,,,,,,,,1,,,,76,110
9605,control_change,0,0,2,,,,,,,,,1,11,56,,,
9606,control_change,4,0,7,,,,,,,,,11,11,50,,,
9606,note_on,0,0,8,,,,,,,,,12,,,,61,123
9606,control_change,21,0,8,,,,,,,,,12,11,47,,,
9606,control_change,480,0,5,,,,,,,,,5,11,65,,,
9607,control_change,4,0,1,,,,,,,,,0,11,59,,,
9609,control_change,4,0,2,,,,,,,,,1,11,59,,,
9610,note_on,0,0,9,,,,,,,,,13,,,,41,99
9610,control_change,4,0,7,,,,,,,,,11,11,53,,,
9610,control_change,4,0,8,,,,,,,,,12,11,50,,,
9610,note_on,480,0,9,,,,,,,,,13,,,,53,0
9610,control_change,0,0,9,,,,,,,,,13,11,47,,,
9611,control_change,4,0,1,,,,,,,,,0,11,62,,,
9611,note_on,0,0,3,,,,,,,,,3,,,,61,110
9611,note_on,240,0,3,,,,,,,,,3,,,,60,0
9611,control_change,0,0,3,,,,,,,,,3,11,56,,,
9612,note_on,0,0,10,,,,,,,,,14,,,,29,108
9612,control_change,0,0,10,,,,,,,,,14,11,47,,,
9612,note_on,480,0,10,,,,,,,,,14,,,,41,0
9612,control_change,8,0,6,,,,,,,,,10,11,64,,,
9613,control_change,4,0,2,,,,,,,,,1,11,62,,,
9614,control_change,4,0,8,,,,,,,,,12,11,53,,,
9614,control_change,4,0,9,,,,,,,,,13,11,50,,,
9614,control_change,4,0,7,,,,,,,,,11,11,56,,,
9615,control_change,4,0,3,,,,,,,,,3,11,59,,,
9616,control_change,4,0,10,,,,,,,,,14,11,50,,,
9618,control_change,4,0,8,,,,,,,,,12,11,56,,,
9618,control_change,4,0,9,,,,,,,,,13,11,53,,,
9619,control_change,4,0,3,,,,,,,,,3,11,62,,,
9620,control_change,4,0,10,,,,,,,,,14,11,53,,,
9622,control_change,4,0,9,,,,,,,,,13,11,56,,,
9624,control_change,4,0,10,,,,,,,,,14,11,56,,,
9627,control_change,23,0,4,,,,,,,,,4,11,64,,,
9629,control_change,23,0,5,,,,,,,,,5,11,64,,,
9641,note_on,27,0,7,,,,,,,,,11,,,,70,0
9645,note_on,27,0,8,,,,,,,,,12,,,,61,0
9651,control_change,24,0,4,,,,,,,,,4,11,62,,,
9653,control_change,24,0,5,,,,,,,,,5,11,62,,,
9662,note_on,21,0,7,,,,,,,,,11,,,,70,112
9666,note_on,21,0,8,,,,,,,,,12,,,,61,110
9675,control_change,24,0,4,,,,,,,,,4,11,61,,,
9677,control_change,24,0,5,,,,,,,,,5,11,61,,,
9699,control_change,24,0,4,,,,,,,,,4,11,59,,,
9701,control_change,24,0,5,,,,,,,,,5,11,59,,,
9701,note_on,39,0,7,,,,,,,,,11,,,,70,0
9705,note_on,39,0,8,,,,,,,,,12,,,,61,0
9722,note_on,21,0,7,,,,,,,,,11,,,,70,118
9723,control_change,24,0,4,,,,,,,,,4,11,57,,,
9725,control_change,24,0,5,,,,,,,,,5,11,57,,,
9726,note_on,21,0,8,,,,,,,,,12,,,,61,116
9747,control_change,24,0,4,,,,,,,,,4,11,55,,,
9749,control_change,24,0,5,,,,,,,,,5,11,55,,,
9761,note_on,39,0,7,,,,,,,,,11,,,,70,0
9765,note_on,39,0,8,,,,,,,,,12,,,,61,0
9771,control_change,24,0,4,,,,,,,,,4,11,53,,,
9773,control_change,24,0,5,,,,,,,,,5,11,53,,,
9780,note_on,0,0,6,,,,,,,,,10,,,,82,90
9780,note_on,168,0,6,,,,,,,,,10,,,,85,0
9782,note_on,21,0,7,,,,,,,,,11,,,,70,104
9786,note_on,21,0,8,,,,,,,,,12,,,,61,102
9795,control_change,24,0,4,,,,,,,,,4,11,51,,,
9797,control_change,24,0,5,,,,,,,,,5,11,51,,,
9819,control_change,24,0,4,,,,,,,,,4,11,49,,,
9819,note_on,39,0,6,,,,,,,,,10,,,,82,0
9821,note_on,39,0,7,,,,,,,,,11,,,,70,0
9821,control_change,24,0,5,,,,,,,,,5,11,49,,,
9825,note_on,39,0,8,,,,,,,,,12,,,,61,0
9825,control_change,6,0,6,,,,,,,,,10,11,65,,,
9827,control_change,6,0,7,,,,,,,,,11,11,57,,,
9828,control_change,217,0,1,,,,,,,,,0,11,65,,,
9830,control_change,217,0,2,,,,,,,,,1,11,65,,,
9831,control_change,6,0,8,,,,,,,,,12,11,57,,,
9835,control_change,213,0,9,,,,,,,,,13,11,57,,,
9836,control_change,217,0,3,,,,,,,,,3,11,65,,,
9837,control_change,213,0,10,,,,,,,,,14,11,57,,,
9840,note_on,15,0,6,,,,,,,,,10,,,,76,90
9840,set_tempo,240,1,0,,,,,,267857,,,,,,,,
9842,note_on,15,0,7,,,,,,,,,11,,,,70,110
9843,control_change,24,0,4,,,,,,,,,4,11,47,,,
9843,note_on,15,0,1,,,,,,,,,0,,,,76,0
9845,control_change,24,0,5,,,,,,,,,5,11,47,,,
9846,note_on,15,0,8,,,,,,,,,12,,,,61,108
9850,control_change,10,0,6,,,,,,,,,10,11,64,,,
9852,control_change,10,0,7,,,,,,,,,11,11,56,,,
9853,control_change,10,0,1,,,,,,,,,0,11,64,,,
9855,control_change,25,0,2,,,,,,,,,1,11,64,,,
9856,control_change,10,0,8,,,,,,,,,12,11,56,,,
9860,control_change,25,0,9,,,,,,,,,13,11,56,,,
9861,control_change,25,0,3,,,,,,,,,3,11,64,,,
9862,control_change,25,0,10,,,,,,,,,14,11,56,,,
9875,control_change,25,0,6,,,,,,,,,10,11,64,,,
9877,control_change,25,0,7,,,,,,,,,11,11,55,,,
9878,control_change,25,0,1,,,,,,,,,0,11,64,,,
9880,control_change,25,0,2,,,,,,,,,1,11,64,,,
9881,control_change,25,0,8,,,,,,,,,12,11,55,,,
9881,note_on,4,0,7,,,,,,,,,11,,,,70,0
9885,control_change,25,0,9,,,,,,,,,13,11,55,,,
9885,note_on,4,0,8,,,,,,,,,12,,,,61,0
9886,control_change,25,0,3,,,,,,,,,3,11,64,,,
9887,control_change,25,0,10,,,,,,,,,14,11,55,,,
9900,note_on,25,0,6,,,,,,,,,10,,,,76,0
9901,control_change,1,0,6,,,,,,,,,10,11,63,,,
9902,note_on,21,0,7,,,,,,,,,11,,,,70,101
9903,control_change,1,0,7,,,,,,,,,11,11,54,,,
9904,control_change,26,0,1,,,,,,,,,0,11,62,,,
9906,note_on,21,0,8,,,,,,,,,12,,,,61,99
9906,control_change,26,0,2,,,,,,,,,1,11,62,,,
9907,control_change,1,0,8,,,,,,,,,12,11,54,,,
9911,control_change,26,0,9,,,,,,,,,13,11,54,,,
9912,control_change,26,0,3,,,,,,,,,3,11,62,,,
9913,control_change,26,0,10,,,,,,,,,14,11,54,,,
9926,control_change,25,0,6,,,,,,,,,10,11,62,,,
9928,control_change,25,0,7,,,,,,,,,11,11,53,,,
9929,control_change,25,0,1,,,,,,,,,0,11,62,,,
9931,control_change,25,0,2,,,,,,,,,1,11,62,,,
9932,control_change,25,0,8,,,,,,,,,12,11,53,,,
9936,control_change,25,0,9,,,,,,,,,13,11,53,,,
9937,control_change,25,0,3,,,,,,,,,3,11,62,,,
9938,control_change,25,0,10,,,,,,,,,14,11,53,,,
9941,note_on,13,0,7,,,,,,,,,11,,,,70,0
9945,note_on,13,0,8,,,,,,,,,12,,,,61,0
9952,control_change,26,0,6,,,,,,,,,10,11,62,,,
9954,control_change,13,0,7,,,,,,,,,11,11,52,,,
9955,control_change,26,0,1,,,,,,,,,0,11,61,,,
9957,control_change,26,0,2,,,,,,,,,1,11,61,,,
9958,control_change,13,0,8,,,,,,,,,12,11,52,,,
9960,note_on,8,0,6,,,,,,,,,10,,,,76,90
9962,note_on,8,0,7,,,,,,,,,11,,,,70,110
9962,control_change,26,0,9,,,,,,,,,13,11,52,,,
9963,control_change,26,0,3,,,,,,,,,3,11,61,,,
9964,control_change,26,0,10,,,,,,,,,14,11,52,,,
9966,note_on,8,0,8,,,,,,,,,12,,,,61,108
9977,control_change,17,0,6,,,,,,,,,10,11,61,,,
9979,control_change,17,0,7,,,,,,,,,11,11,51,,,
9980,control_change,25,0,1,,,,,,,,,0,11,60,,,
9982,control_change,25,0,2,,,,,,,,,1,11,60,,,
9983,control_change,17,0,8,,,,,,,,,12,11,51,,,
9987,control_change,25,0,9,,,,,,,,,13,11,51,,,
9988,control_change,25,0,3,,,,,,,,,3,11,60,,,
9989,control_change,25,0,10,,,,,,,,,14,11,51,,,
10001,note_on,22,0,7,,,,,,,,,11,,,,70,0
10002,control_change,25,0,6,,,,,,,,,10,11,60,,,
10004,control_change,3,0,7,,,,,,,,,11,11,50,,,
10005,note_on,22,0,8,,,,,,,,,12,,,,61,0
10005,control_change,25,0,1,,,,,,,,,0,11,59,,,
10007,control_change,25,0,2,,,,,,,,,1,11,59,,,
10008,control_change,3,0,8,,,,,,,,,12,11,50,,,
10012,control_change,25,0,9,,,,,,,,,13,11,50,,,
10013,control_change,25,0,3,,,,,,,,,3,11,59,,,
10014,control_change,25,0,10,,,,,,,,,14,11,50,,,
10020,note_on,18,0,6,,,,,,,,,10,,,,76,0
10022,note_on,18,0,7,,,,,,,,,11,,,,70,101
10026,note_on,18,0,8,,,,,,,,,12,,,,61,99
10028,control_change,8,0,6,,,,,,,,,10,11,59,,,
10030,control_change,8,0,7,,,,,,,,,11,11,49,,,
10031,control_change,26,0,1,,,,,,,,,0,11,58,,,
10033,control_change,26,0,2,,,,,,,,,1,11,58,,,
10034,control_change,8,0,8,,,,,,,,,12,11,49,,,
10038,control_change,26,0,9,,,,,,,,,13,11,49,,,
10039,control_change,26,0,3,,,,,,,,,3,11,58,,,
10040,control_change,26,0,10,,,,,,,,,14,11,49,,,
10053,control_change,25,0,6,,,,,,,,,10,11,58,,,
10055,control_change,25,0,7,,,,,,,,,11,11,48,,,
10056,control_change,25,0,1,,,,,,,,,0,11,57,,,
10058,control_change,25,0,2,,,,,,,,,1,11,57,,,
10059,control_change,25,0,8,,,,,,,,,12,11,48,,,
10061,note_on,6,0,7,,,,,,,,,11,,,,70,0
10063,control_change,25,0,9,,,,,,,,,13,11,48,,,
10064,control_change,25,0,3,,,,,,,,,3,11,57,,,
10065,note_on,6,0,8,,,,,,,,,12,,,,61,0
10065,control_change,25,0,10,,,,,,,,,14,11,48,,,
10079,control_change,26,0,6,,,,,,,,,10,11,57,,,
10080,set_tempo,240,1,0,,,,,,276498,,,,,,,,
10080,note_on,1,0,6,,,,,,,,,10,,,,77,76
10081,control_change,20,0,7,,,,,,,,,11,11,47,,,
10082,control_change,26,0,1,,,,,,,,,0,11,56,,,
10082,note_on,1,0,7,,,,,,,,,11,,,,69,110
10083,note_on,1,0,1,,,,,,,,,0,,,,84,110
10084,control_change,26,0,2,,,,,,,,,1,11,56,,,
10085,note_on,0,0,2,,,,,,,,,1,,,,77,97
10085,control_change,20,0,8,,,,,,,,,12,11,47,,,
10085,note_on,1,0,2,,,,,,,,,1,,,,76,0
10085,note_on,0,0,2,,,,,,,,,1,,,,70,0
10085,note_on,0,0,2,,,,,,,,,1,,,,69,97
10086,note_on,1,0,8,,,,,,,,,12,,,,60,108
10089,control_change,26,0,9,,,,,,,,,13,11,47,,,
10090,note_on,1,0,9,,,,,,,,,13,,,,41,0
10090,note_on,0,0,9,,,,,,,,,13,,,,53,99
10090,control_change,26,0,3,,,,,,,,,3,11,56,,,
10091,note_on,1,0,3,,,,,,,,,3,,,,61,0
10091,note_on,0,0,3,,,,,,,,,3,,,,53,0
10091,note_on,0,0,3,,,,,,,,,3,,,,53,97
10091,note_on,0,0,3,,,,,,,,,3,,,,60,97
10091,control_change,26,0,10,,,,,,,,,14,11,47,,,
10092,note_on,0,0,10,,,,,,,,,14,,,,41,93
10092,note_on,1,0,10,,,,,,,,,14,,,,29,0
10121,note_on,39,0,7,,,,,,,,,11,,,,69,0
10125,note_on,39,0,8,,,,,,,,,12,,,,60,0
10142,note_on,21,0,7,,,,,,,,,11,,,,69,101
10146,note_on,21,0,8,,,,,,,,,12,,,,60,99
10181,note_on,39,0,7,,,,,,,,,11,,,,69,0
10185,note_on,39,0,8,,,,,,,,,12,,,,60,0
10202,note_on,21,0,7,,,,,,,,,11,,,,69,110
10206,note_on,21,0,8,,,,,,,,,12,,,,60,108
10230,control_change,150,0,6,,,,,,,,,10,11,57,,,
10241,note_on,39,0,7,,,,,,,,,11,,,,69,0
10241,control_change,11,0,6,,,,,,,,,10,11,54,,,
10245,note_on,39,0,8,,,,,,,,,12,,,,60,0
10253,control_change,12,0,6,,,,,,,,,10,11,51,,,
10262,note_on,21,0,7,,,,,,,,,11,,,,69,101
10263,note_on,180,0,1,,,,,,,,,0,,,,84,0
10263,note_on,0,0,1,,,,,,,,,0,,,,81,97
10265,control_change,12,0,6,,,,,,,,,10,11,48,,,
10266,note_on,21,0,8,,,,,,,,,12,,,,60,99
10277,control_change,12,0,6,,,,,,,,,10,11,45,,,
10289,control_change,12,0,6,,,,,,,,,10,11,42,,,
10301,control_change,12,0,6,,,,,,,,,10,11,39,,,
10301,note_on,39,0,7,,,,,,,,,11,,,,69,0
10305,note_on,39,0,8,,,,,,,,,12,,,,60,0
10313,control_change,12,0,6,,,,,,,,,10,11,36,,,
10320,note_on,7,0,6,,,,,,,,,10,,,,77,0
10320,set_tempo,240,1,0,,,,,,269058,,,,,,,,
10322,note_on,21,0,7,,,,,,,,,11,,,,69,110
10323,note_on,0,0,1,,,,,,,,,0,,,,77,97
10323,note_on,60,0,1,,,,,,,,,0,,,,81,0
10326,note_on,21,0,8,,,,,,,,,12,,,,60,108
10361,note_on,39,0,7,,,,,,,,,11,,,,69,0
10365,note_on,39,0,8,,,,,,,,,12,,,,60,0
10382,note_on,21,0,7,,,,,,,,,11,,,,69,101
10383,note_on,60,0,1,,,,,,,,,0,,,,77,0
10386,note_on,21,0,8,,,,,,,,,12,,,,60,99
10421,note_on,39,0,7,,,,,,,,,11,,,,69,0
10425,note_on,39,0,8,,,,,,,,,12,,,,60,0
10442,note_on,21,0,7,,,,,,,,,11,,,,69,110
10443,note_on,60,0,1,,,,,,,,,0,,,,77,97
10446,note_on,21,0,8,,,,,,,,,12,,,,60,108
10481,note_on,39,0,7,,,,,,,,,11,,,,69,0
10485,note_on,39,0,8,,,,,,,,,12,,,,60,0
10502,note_on,21,0,7,,,,,,,,,11,,,,69,101
10503,note_on,60,0,1,,,,,,,,,0,,,,77,0
10506,note_on,21,0,8,,,,,,,,,12,,,,60,99
10541,note_on,39,0,7,,,,,,,,,11,,,,69,0
10545,note_on,39,0,8,,,,,,,,,12,,,,60,0
10560,control_change,240,0,6,,,,,,,,,10,11,57,,,
10560,note_on,0,0,6,,,,,,,,,10,,,,85,108
10560,set_tempo,240,1,0,,,,,,277778,,,,,,,,
10562,note_on,0,0,7,,,,,,,,,11,,,,70,125
10562,control_change,21,0,7,,,,,,,,,11,11,47,,,
10563,control_change,60,0,1,,,,,,,,,0,11,56,,,
10563,note_on,0,0,1,,,,,,,,,0,,,,76,97
10564,control_change,721,0,4,,,,,,,,,4,11,65,,,
10564,control_change,4,0,6,,,,,,,,,10,11,60,,,
10565,note_on,0,0,2,,,,,,,,,1,,,,69,0
10565,note_on,480,0,2,,,,,,,,,1,,,,77,0
10565,note_on,0,0,2,,,,,,,,,1,,,,70,110
10565,control_change,0,0,2,,,,,,,,,1,11,56,,,
10565,note_on,0,0,2,,,,,,,,,1,,,,76,110
10566,control_change,721,0,5,,,,,,,,,5,11,65,,,
10566,control_change,4,0,7,,,,,,,,,11,11,50,,,
10566,control_change,21,0,8,,,,,,,,,12,11,47,,,
10566,note_on,0,0,8,,,,,,,,,12,,,,61,123
10567,control_change,4,0,1,,,,,,,,,0,11,59,,,
10569,control_change,4,0,2,,,,,,,,,1,11,59,,,
10570,note_on,0,0,9,,,,,,,,,13,,,,41,99
10570,control_change,0,0,9,,,,,,,,,13,11,47,,,
10570,note_on,480,0,9,,,,,,,,,13,,,,53,0
10570,control_change,4,0,7,,,,,,,,,11,11,53,,,
10570,control_change,4,0,8,,,,,,,,,12,11,50,,,
10571,note_on,0,0,3,,,,,,,,,3,,,,61,110
10571,note_on,0,0,3,,,,,,,,,3,,,,53,0
10571,note_on,480,0,3,,,,,,,,,3,,,,60,0
10571,control_change,0,0,3,,,,,,,,,3,11,56,,,
10571,note_on,0,0,3,,,,,,,,,3,,,,53,110
10571,control_change,4,0,1,,,,,,,,,0,11,62,,,
10572,control_change,8,0,6,,,,,,,,,10,11,64,,,
10572,control_change,0,0,10,,,,,,,,,14,11,47,,,
10572,note_on,480,0,10,,,,,,,,,14,,,,41,0
10572,note_on,0,0,10,,,,,,,,,14,,,,29,108
10573,control_change,4,0,2,,,,,,,,,1,11,62,,,
10574,control_change,4,0,9,,,,,,,,,13,11,50,,,
10574,control_change,4,0,7,,,,,,,,,11,11,56,,,
10574,control_change,4,0,8,,,,,,,,,12,11,53,,,
10575,control_change,4,0,3,,,,,,,,,3,11,59,,,
10576,control_change,4,0,10,,,,,,,,,14,11,50,,,
10578,control_change,4,0,9,,,,,,,,,13,11,53,,,
10578,control_change,4,0,8,,,,,,,,,12,11,56,,,
10579,control_change,4,0,3,,,,,,,,,3,11,62,,,
10580,control_change,4,0,10,,,,,,,,,14,11,53,,,
10582,control_change,4,0,9,,,,,,,,,13,11,56,,,
10584,control_change,4,0,10,,,,,,,,,14,11,56,,,
10587,control_change,23,0,4,,,,,,,,,4,11,64,,,
10589,control_change,23,0,5,,,,,,,,,5,11,64,,,
10601,note_on,27,0,7,,,,,,,,,11,,,,70,0
10605,note_on,27,0,8,,,,,,,,,12,,,,61,0
10611,control_change,24,0,4,,,,,,,,,4,11,62,,,
10613,control_change,24,0,5,,,,,,,,,5,11,62,,,
10622,note_on,21,0,7,,,,,,,,,11,,,,70,112
10626,note_on,21,0,8,,,,,,,,,12,,,,61,110
10635,control_change,24,0,4,,,,,,,,,4,11,61,,,
10637,control_change,24,0,5,,,,,,,,,5,11,61,,,
10659,control_change,24,0,4,,,,,,,,,4,11,59,,,
10661,note_on,39,0,7,,,,,,,,,11,,,,70,0
10661,control_change,24,0,5,,,,,,,,,5,11,59,,,
10665,note_on,39,0,8,,,,,,,,,12,,,,61,0
10682,note_on,21,0,7,,,,,,,,,11,,,,70,118
10683,control_change,24,0,4,,,,,,,,,4,11,57,,,
10685,control_change,24,0,5,,,,,,,,,5,11,57,,,
10686,note_on,21,0,8,,,,,,,,,12,,,,61,116
10707,control_change,24,0,4,,,,,,,,,4,11,55,,,
10709,control_change,24,0,5,,,,,,,,,5,11,55,,,
10721,note_on,39,0,7,,,,,,,,,11,,,,70,0
10725,note_on,39,0,8,,,,,,,,,12,,,,61,0
10731,control_change,24,0,4,,,,,,,,,4,11,53,,,
10733,control_change,24,0,5,,,,,,,,,5,11,53,,,
10740,note_on,168,0,6,,,,,,,,,10,,,,85,0
10740,note_on,0,0,6,,,,,,,,,10,,,,82,90
10742,note_on,21,0,7,,,,,,,,,11,,,,70,104
10746,note_on,21,0,8,,,,,,,,,12,,,,61,102
10755,control_change,24,0,4,,,,,,,,,4,11,51,,,
10757,control_change,24,0,5,,,,,,,,,5,11,51,,,
10779,note_on,39,0,6,,,,,,,,,10,,,,82,0
10779,control_change,24,0,4,,,,,,,,,4,11,49,,,
10781,note_on,39,0,7,,,,,,,,,11,,,,70,0
10781,control_change,24,0,5,,,,,,,,,5,11,49,,,
10785,control_change,6,0,6,,,,,,,,,10,11,65,,,
10785,note_on,39,0,8,,,,,,,,,12,,,,61,0
10787,control_change,6,0,7,,,,,,,,,11,11,57,,,
10788,control_change,217,0,1,,,,,,,,,0,11,65,,,
10790,set_tempo,230,1,0,,,,,,269663,,,,,,,,
10790,control_change,217,0,2,,,,,,,,,1,11,65,,,
10791,control_change,6,0,8,,,,,,,,,12,11,57,,,
10795,control_change,213,0,9,,,,,,,,,13,11,57,,,
10796,control_change,217,0,3,,,,,,,,,3,11,65,,,
10797,control_change,213,0,10,,,,,,,,,14,11,57,,,
10800,note_on,15,0,6,,,,,,,,,10,,,,76,90
10802,note_on,15,0,7,,,,,,,,,11,,,,70,110
10803,note_on,15,0,1,,,,,,,,,0,,,,76,0
10803,control_change,24,0,4,,,,,,,,,4,11,47,,,
10805,control_change,24,0,5,,,,,,,,,5,11,47,,,
10806,note_on,15,0,8,,,,,,,,,12,,,,61,108
10810,control_change,10,0,6,,,,,,,,,10,11,64,,,
10812,control_change,10,0,7,,,,,,,,,11,11,56,,,
10813,control_change,10,0,1,,,,,,,,,0,11,64,,,
10815,control_change,25,0,2,,,,,,,,,1,11,64,,,
10816,control_change,10,0,8,,,,,,,,,12,11,56,,,
10820,control_change,25,0,9,,,,,,,,,13,11,56,,,
10821,control_change,25,0,3,,,,,,,,,3,11,64,,,
10822,control_change,25,0,10,,,,,,,,,14,11,56,,,
10835,control_change,25,0,6,,,,,,,,,10,11,64,,,
10837,control_change,25,0,7,,,,,,,,,11,11,55,,,
10838,control_change,25,0,1,,,,,,,,,0,11,64,,,
10840,control_change,25,0,2,,,,,,,,,1,11,64,,,
10841,note_on,4,0,7,,,,,,,,,11,,,,70,0
10841,control_change,25,0,8,,,,,,,,,12,11,55,,,
10845,note_on,4,0,8,,,,,,,,,12,,,,61,0
10845,control_change,25,0,9,,,,,,,,,13,11,55,,,
10846,control_change,25,0,3,,,,,,,,,3,11,64,,,
10847,control_change,25,0,10,,,,,,,,,14,11,55,,,
10860,note_on,25,0,6,,,,,,,,,10,,,,76,0
10861,control_change,1,0,6,,,,,,,,,10,11,63,,,
10862,note_on,21,0,7,,,,,,,,,11,,,,70,101
10863,control_change,1,0,7,,,,,,,,,11,11,54,,,
10864,control_change,26,0,1,,,,,,,,,0,11,62,,,
10866,control_change,26,0,2,,,,,,,,,1,11,62,,,
10866,note_on,21,0,8,,,,,,,,,12,,,,61,99
10867,control_change,1,0,8,,,,,,,,,12,11,54,,,
10871,control_change,26,0,9,,,,,,,,,13,11,54,,,
10872,control_change,26,0,3,,,,,,,,,3,11,62,,,
10873,control_change,26,0,10,,,,,,,,,14,11,54,,,
10886,control_change,25,0,6,,,,,,,,,10,11,62,,,
10888,control_change,25,0,7,,,,,,,,,11,11,53,,,
10889,control_change,25,0,1,,,,,,,,,0,11,62,,,
10891,control_change,25,0,2,,,,,,,,,1,11,62,,,
10892,control_change,25,0,8,,,,,,,,,12,11,53,,,
10896,control_change,25,0,9,,,,,,,,,13,11,53,,,
10897,control_change,25,0,3,,,,,,,,,3,11,62,,,
10898,control_change,25,0,10,,,,,,,,,14,11,53,,,
10901,note_on,13,0,7,,,,,,,,,11,,,,70,0
10905,note_on,13,0,8,,,,,,,,,12,,,,61,0
10912,control_change,26,0,6,,,,,,,,,10,11,62,,,
10914,control_change,13,0,7,,,,,,,,,11,11,52,,,
10915,control_change,26,0,1,,,,,,,,,0,11,61,,,
10917,control_change,26,0,2,,,,,,,,,1,11,61,,,
10918,control_change,13,0,8,,,,,,,,,12,11,52,,,
10920,note_on,8,0,6,,,,,,,,,10,,,,76,90
10922,note_on,8,0,7,,,,,,,,,11,,,,70,110
10922,control_change,26,0,9,,,,,,,,,13,11,52,,,
10923,control_change,26,0,3,,,,,,,,,3,11,61,,,
10924,control_change,26,0,10,,,,,,,,,14,11,52,,,
10926,note_on,8,0,8,,,,,,,,,12,,,,61,108
10937,control_change,17,0,6,,,,,,,,,10,11,61,,,
10939,control_change,17,0,7,,,,,,,,,11,11,51,,,
10940,control_change,25,0,1,,,,,,,,,0,11,60,,,
10942,control_change,25,0,2,,,,,,,,,1,11,60,,,
10943,control_change,17,0,8,,,,,,,,,12,11,51,,,
10947,control_change,25,0,9,,,,,,,,,13,11,51,,,
10948,control_change,25,0,3,,,,,,,,,3,11,60,,,
10949,control_change,25,0,10,,,,,,,,,14,11,51,,,
10961,note_on,22,0,7,,,,,,,,,11,,,,70,0
10962,control_change,25,0,6,,,,,,,,,10,11,60,,,
10964,control_change,3,0,7,,,,,,,,,11,11,50,,,
10965,control_change,25,0,1,,,,,,,,,0,11,59,,,
10965,note_on,22,0,8,,,,,,,,,12,,,,61,0
10967,control_change,25,0,2,,,,,,,,,1,11,59,,,
10968,control_change,3,0,8,,,,,,,,,12,11,50,,,
10972,control_change,25,0,9,,,,,,,,,13,11,50,,,
10973,control_change,25,0,3,,,,,,,,,3,11,59,,,
10974,control_change,25,0,10,,,,,,,,,14,11,50,,,
10980,note_on,18,0,6,,,,,,,,,10,,,,76,0
10982,note_on,18,0,7,,,,,,,,,11,,,,70,101
10986,note_on,18,0,8,,,,,,,,,12,,,,61,99
10988,control_change,8,0,6,,,,,,,,,10,11,59,,,
10990,control_change,8,0,7,,,,,,,,,11,11,49,,,
10991,control_change,26,0,1,,,,,,,,,0,11,58,,,
10993,control_change,26,0,2,,,,,,,,,1,11,58,,,
10994,control_change,8,0,8,,,,,,,,,12,11,49,,,
10998,control_change,26,0,9,,,,,,,,,13,11,49,,,
10999,control_change,26,0,3,,,,,,,,,3,11,58,,,
11000,control_change,26,0,10,,,,,,,,,14,11,49,,,
11013,control_change,25,0,6,,,,,,,,,10,11,58,,,
11015,control_change,25,0,7,,,,,,,,,11,11,48,,,
11016,control_change,25,0,1,,,,,,,,,0,11,57,,,
11018,control_change,25,0,2,,,,,,,,,1,11,57,,,
11019,control_change,25,0,8,,,,,,,,,12,11,48,,,
11021,note_on,6,0,7,,,,,,,,,11,,,,70,0
11023,control_change,25,0,9,,,,,,,,,13,11,48,,,
11024,control_change,25,0,3,,,,,,,,,3,11,57,,,
11025,note_on,6,0,8,,,,,,,,,12,,,,61,0
11025,control_change,25,0,10,,,,,,,,,14,11,48,,,
11039,control_change,26,0,6,,,,,,,,,10,11,57,,,
11040,note_on,1,0,6,,,,,,,,,10,,,,77,76
11040,set_tempo,250,1,0,,,,,,278422,,,,,,,,
11041,control_change,20,0,7,,,,,,,,,11,11,47,,,
11042,control_change,26,0,1,,,,,,,,,0,11,56,,,
11042,note_on,1,0,7,,,,,,,,,11,,,,69,110
11044,control_change,26,0,2,,,,,,,,,1,11,56,,,
11045,control_change,0,0,2,,,,,,,,,1,11,52,,,
11045,control_change,20,0,8,,,,,,,,,12,11,47,,,
11045,note_on,1,0,2,,,,,,,,,1,,,,70,0
11045,note_on,0,0,2,,,,,,,,,1,,,,76,0
11045,note_on,0,0,2,,,,,,,,,1,,,,77,97
11045,note_on,0,0,2,,,,,,,,,1,,,,69,97
11046,note_on,1,0,8,,,,,,,,,12,,,,60,108
11049,control_change,26,0,9,,,,,,,,,13,11,47,,,
11050,control_change,26,0,3,,,,,,,,,3,11,56,,,
11050,note_on,1,0,9,,,,,,,,,13,,,,41,0
11050,note_on,0,0,9,,,,,,,,,13,,,,53,99
11051,note_on,1,0,3,,,,,,,,,3,,,,61,0
11051,note_on,0,0,3,,,,,,,,,3,,,,60,97
11051,control_change,0,0,3,,,,,,,,,3,11,52,,,
11051,control_change,26,0,10,,,,,,,,,14,11,47,,,
11052,note_on,0,0,10,,,,,,,,,14,,,,41,93
11052,note_on,1,0,10,,,,,,,,,14,,,,29,0
11081,note_on,39,0,7,,,,,,,,,11,,,,69,0
11085,note_on,39,0,8,,,,,,,,,12,,,,60,0
11102,note_on,21,0,7,,,,,,,,,11,,,,69,101
11106,note_on,21,0,8,,,,,,,,,12,,,,60,99
11141,control_change,96,0,2,,,,,,,,,1,11,51,,,
11141,note_on,39,0,7,,,,,,,,,11,,,,69,0
11145,note_on,39,0,8,,,,,,,,,12,,,,60,0
11147,control_change,96,0,3,,,,,,,,,3,11,51,,,
11162,note_on,21,0,7,,,,,,,,,11,,,,69,110
11166,note_on,21,0,8,,,,,,,,,12,,,,60,108
11190,control_change,150,0,6,,,,,,,,,10,11,57,,,
11201,note_on,39,0,7,,,,,,,,,11,,,,69,0
11201,control_change,11,0,6,,,,,,,,,10,11,54,,,
11205,note_on,39,0,8,,,,,,,,,12,,,,60,0
11213,control_change,12,0,6,,,,,,,,,10,11,51,,,
11220,set_tempo,180,1,0,,,,,,314136,,,,,,,,
11222,note_on,21,0,7,,,,,,,,,11,,,,69,101
11225,control_change,12,0,6,,,,,,,,,10,11,48,,,
11226,note_on,21,0,8,,,,,,,,,12,,,,60,99
11234,control_change,12,0,7,,,,,,,,,11,11,48,,,
11237,control_change,96,0,2,,,,,,,,,1,11,50,,,
11237,control_change,12,0,6,,,,,,,,,10,11,45,,,
11238,control_change,12,0,8,,,,,,,,,12,11,48,,,
11243,control_change,96,0,3,,,,,,,,,3,11,50,,,
11249,control_change,12,0,6,,,,,,,,,10,11,42,,,
11261,control_change,12,0,6,,,,,,,,,10,11,39,,,
11261,note_on,27,0,7,,,,,,,,,11,,,,69,0
11265,note_on,27,0,8,,,,,,,,,12,,,,60,0
11273,control_change,12,0,6,,,,,,,,,10,11,36,,,
11280,set_tempo,60,1,0,,,,,,270270,,,,,,,,
11280,note_on,7,0,6,,,,,,,,,10,,,,77,0
11282,note_on,21,0,7,,,,,,,,,11,,,,67,110
11284,note_on,481,0,4,,,,,,,,,4,,,,53,0
11284,note_on,0,0,4,,,,,,,,,4,,,,53,96
11285,note_on,0,0,2,,,,,,,,,1,,,,75,97
11285,note_on,48,0,2,,,,,,,,,1,,,,69,0
11285,note_on,0,0,2,,,,,,,,,1,,,,77,0
11285,note_on,0,0,2,,,,,,,,,1,,,,79,97
11286,note_on,0,0,5,,,,,,,,,5,,,,41,96
11286,note_on,481,0,5,,,,,,,,,5,,,,41,0
11286,note_on,21,0,8,,,,,,,,,12,,,,63,108
11290,note_on,240,0,9,,,,,,,,,13,,,,53,0
11291,note_on,0,0,3,,,,,,,,,3,,,,63,97
11291,note_on,0,0,3,,,,,,,,,3,,,,67,97
11291,note_on,0,0,3,,,,,,,,,3,,,,53,0
11291,note_on,48,0,3,,,,,,,,,3,,,,60,0
11292,note_on,240,0,10,,,,,,,,,14,,,,41,0
11321,note_on,39,0,7,,,,,,,,,11,,,,67,0
11325,note_on,39,0,8,,,,,,,,,12,,,,63,0
11333,control_change,48,0,2,,,,,,,,,1,11,49,,,
11339,control_change,48,0,3,,,,,,,,,3,11,49,,,
11342,note_on,21,0,7,,,,,,,,,11,,,,67,101
11346,note_on,21,0,8,,,,,,,,,12,,,,63,99
11381,note_on,39,0,7,,,,,,,,,11,,,,67,0
11385,note_on,39,0,8,,,,,,,,,12,,,,63,0
11402,note_on,21,0,7,,,,,,,,,11,,,,67,110
11406,note_on,21,0,8,,,,,,,,,12,,,,63,108
11426,control_change,24,0,7,,,,,,,,,11,11,46,,,
11429,control_change,96,0,2,,,,,,,,,1,11,48,,,
11430,control_change,24,0,8,,,,,,,,,12,11,46,,,
11435,control_change,96,0,3,,,,,,,,,3,11,48,,,
11441,note_on,15,0,7,,,,,,,,,11,,,,67,0
11445,note_on,15,0,8,,,,,,,,,12,,,,63,0
11462,note_on,21,0,7,,,,,,,,,11,,,,67,101
11466,note_on,21,0,8,,,,,,,,,12,,,,63,99
11501,note_on,39,0,7,,,,,,,,,11,,,,67,0
11505,note_on,39,0,8,,,,,,,,,12,,,,63,0
11520,set_tempo,240,1,0,,,,,,278422,,,,,,,,
11522,note_on,21,0,7,,,,,,,,,11,,,,65,110
11525,note_on,0,0,2,,,,,,,,,1,,,,74,97
11525,note_on,0,0,2,,,,,,,,,1,,,,75,0
11525,note_on,0,0,2,,,,,,,,,1,,,,77,97
11525,note_on,96,0,2,,,,,,,,,1,,,,79,0
11525,control_change,0,0,2,,,,,,,,,1,11,47,,,
11526,note_on,21,0,8,,,,,,,,,12,,,,62,108
11531,note_on,0,0,3,,,,,,,,,3,,,,67,0
11531,note_on,96,0,3,,,,,,,,,3,,,,63,0
11531,note_on,0,0,3,,,,,,,,,3,,,,62,97
11531,note_on,0,0,3,,,,,,,,,3,,,,65,97
11531,control_change,0,0,3,,,,,,,,,3,11,47,,,
11561,note_on,39,0,7,,,,,,,,,11,,,,65,0
11565,note_on,39,0,8,,,,,,,,,12,,,,62,0
11582,note_on,21,0,7,,,,,,,,,11,,,,65,101
11586,note_on,21,0,8,,,,,,,,,12,,,,62,99
11618,control_change,36,0,7,,,,,,,,,11,11,45,,,
11621,control_change,96,0,2,,,,,,,,,1,11,46,,,
11621,note_on,3,0,7,,,,,,,,,11,,,,65,0
11622,control_change,36,0,8,,,,,,,,,12,11,45,,,
11625,note_on,3,0,8,,,,,,,,,12,,,,62,0
11627,control_change,96,0,3,,,,,,,,,3,11,46,,,
11642,note_on,21,0,7,,,,,,,,,11,,,,65,110
11646,note_on,21,0,8,,,,,,,,,12,,,,62,108
11681,note_on,39,0,7,,,,,,,,,11,,,,65,0
11685,note_on,39,0,8,,,,,,,,,12,,,,62,0
11702,note_on,21,0,7,,,,,,,,,11,,,,65,101
11706,note_on,21,0,8,,,,,,,,,12,,,,62,99
11717,control_change,96,0,2,,,,,,,,,1,11,45,,,
11723,control_change,96,0,3,,,,,,,,,3,11,45,,,
11741,note_on,39,0,7,,,,,,,,,11,,,,65,0
11745,note_on,39,0,8,,,,,,,,,12,,,,62,0
11760,set_tempo,240,1,0,,,,,,270880,,,,,,,,
11762,note_on,21,0,7,,,,,,,,,11,,,,63,110
11765,note_on,0,0,2,,,,,,,,,1,,,,81,97
11765,note_on,48,0,2,,,,,,,,,1,,,,77,0
11765,note_on,0,0,2,,,,,,,,,1,,,,74,0
11765,note_on,0,0,2,,,,,,,,,1,,,,75,97
11766,note_on,21,0,8,,,,,,,,,12,,,,60,108
11771,note_on,0,0,3,,,,,,,,,3,,,,60,97
11771,note_on,0,0,3,,,,,,,,,3,,,,63,97
11771,note_on,0,0,3,,,,,,,,,3,,,,62,0
11771,note_on,48,0,3,,,,,,,,,3,,,,65,0
11801,note_on,39,0,7,,,,,,,,,11,,,,63,0
11805,note_on,39,0,8,,,,,,,,,12,,,,60,0
11810,control_change,9,0,7,,,,,,,,,11,11,43,,,
11813,control_change,48,0,2,,,,,,,,,1,11,44,,,
11814,control_change,9,0,8,,,,,,,,,12,11,43,,,
11819,control_change,48,0,3,,,,,,,,,3,11,44,,,
11822,note_on,12,0,7,,,,,,,,,11,,,,63,101
11826,note_on,12,0,8,,,,,,,,,12,,,,60,99
11861,note_on,39,0,7,,,,,,,,,11,,,,63,0
11865,note_on,39,0,8,,,,,,,,,12,,,,60,0
11882,note_on,21,0,7,,,,,,,,,11,,,,63,110
11886,note_on,21,0,8,,,,,,,,,12,,,,60,108
11909,control_change,96,0,2,,,,,,,,,1,11,43,,,
11915,control_change,96,0,3,,,,,,,,,3,11,43,,,
11921,note_on,39,0,7,,,,,,,,,11,,,,63,0
11925,note_on,39,0,8,,,,,,,,,12,,,,60,0
11940,set_tempo,180,1,0,,,,,,314136,,,,,,,,
11942,note_on,21,0,7,,,,,,,,,11,,,,63,101
11946,note_on,21,0,8,,,,,,,,,12,,,,60,99
11981,note_on,39,0,7,,,,,,,,,11,,,,63,0
11985,note_on,39,0,8,,,,,,,,,12,,,,60,0
12000,set_tempo,60,1,0,,,,,,272727,,,,,,,,
12000,note_on,0,0,6,,,,,,,,,10,,,,70,90
12000,control_change,720,0,6,,,,,,,,,10,11,57,,,
12002,control_change,21,0,7,,,,,,,,,11,11,57,,,
12002,control_change,0,0,7,,,,,,,,,11,11,49,,,
12002,note_on,0,0,7,,,,,,,,,11,,,,58,88
12004,note_on,720,0,4,,,,,,,,,4,,,,53,0
12004,note_on,0,0,4,,,,,,,,,4,,,,46,82
12005,note_on,96,0,2,,,,,,,,,1,,,,81,0
12005,note_on,0,0,2,,,,,,,,,1,,,,75,0
12005,note_on,0,0,2,,,,,,,,,1,,,,74,83
12005,note_on,0,0,2,,,,,,,,,1,,,,82,83
12005,control_change,0,0,2,,,,,,,,,1,11,42,,,
12006,note_on,720,0,5,,,,,,,,,5,,,,41,0
12006,note_on,0,0,5,,,,,,,,,5,,,,46,82
12006,note_on,0,0,8,,,,,,,,,12,,,,62,108
12006,note_on,0,0,8,,,,,,,,,12,,,,58,108
12006,control_change,21,0,8,,,,,,,,,12,11,22,,,
12009,control_change,7,0,7,,,,,,,,,11,11,56,,,
12010,note_on,0,0,9,,,,,,,,,13,,,,46,99
12010,control_change,720,0,9,,,,,,,,,13,11,22,,,
12011,note_on,96,0,3,,,,,,,,,3,,,,63,0
12011,control_change,0,0,3,,,,,,,,,3,11,42,,,
12011,note_on,0,0,3,,,,,,,,,3,,,,60,0
12011,note_on,0,0,3,,,,,,,,,3,,,,58,83
12011,note_on,0,0,3,,,,,,,,,3,,,,62,83
12012,control_change,720,0,10,,,,,,,,,14,11,22,,,
12012,note_on,0,0,10,,,,,,,,,14,,,,34,93
12022,control_change,22,0,6,,,,,,,,,10,11,54,,,
12022,control_change,16,0,8,,,,,,,,,12,11,24,,,
12024,control_change,15,0,7,,,,,,,,,11,11,54,,,
12026,control_change,16,0,9,,,,,,,,,13,11,24,,,
12028,control_change,16,0,10,,,,,,,,,14,11,24,,,
12038,control_change,16,0,8,,,,,,,,,12,11,26,,,
12042,control_change,16,0,9,,,,,,,,,13,11,26,,,
12044,control_change,16,0,10,,,,,,,,,14,11,26,,,
12044,control_change,22,0,6,,,,,,,,,10,11,51,,,
12045,note_on,0,0,8,,,,,,,,,12,,,,58,0
12045,note_on,7,0,8,,,,,,,,,12,,,,62,0
12046,control_change,22,0,7,,,,,,,,,11,11,51,,,
12054,control_change,9,0,8,,,,,,,,,12,11,28,,,
12058,control_change,16,0,9,,,,,,,,,13,11,28,,,
12059,control_change,15,0,6,,,,,,,,,10,11,49,,,
12060,control_change,16,0,10,,,,,,,,,14,11,28,,,
12061,control_change,15,0,7,,,,,,,,,11,11,49,,,
12066,note_on,12,0,8,,,,,,,,,12,,,,62,99
12066,note_on,0,0,8,,,,,,,,,12,,,,58,99
12070,control_change,4,0,8,,,,,,,,,12,11,31,,,
12074,control_change,16,0,9,,,,,,,,,13,11,31,,,
12076,control_change,16,0,10,,,,,,,,,14,11,31,,,
12086,control_change,16,0,8,,,,,,,,,12,11,34,,,
12090,control_change,16,0,9,,,,,,,,,13,11,34,,,
12092,control_change,16,0,10,,,,,,,,,14,11,34,,,
12102,control_change,16,0,8,,,,,,,,,12,11,37,,,
12105,note_on,3,0,8,,,,,,,,,12,,,,58,0
12105,note_on,0,0,8,,,,,,,,,12,,,,62,0
12106,control_change,16,0,9,,,,,,,,,13,11,37,,,
12108,control_change,16,0,10,,,,,,,,,14,11,37,,,
12118,control_change,13,0,8,,,,,,,,,12,11,40,,,
12122,control_change,16,0,9,,,,,,,,,13,11,40,,,
12124,control_change,16,0,10,,,,,,,,,14,11,40,,,
12124,control_change,120,0,4,,,,,,,,,4,11,47,,,
12125,control_change,120,0,2,,,,,,,,,1,11,42,,,
12126,note_on,0,0,8,,,,,,,,,12,,,,62,108
12126,note_on,8,0,8,,,,,,,,,12,,,,58,108
12126,control_change,120,0,5,,,,,,,,,5,11,47,,,
12131,control_change,120,0,3,,,,,,,,,3,11,42,,,
12140,control_change,15,0,2,,,,,,,,,1,11,40,,,
12141,control_change,17,0,4,,,,,,,,,4,11,44,,,
12143,control_change,17,0,5,,,,,,,,,5,11,44,,,
12146,control_change,15,0,3,,,,,,,,,3,11,40,,,
12156,control_change,16,0,2,,,,,,,,,1,11,38,,,
12159,control_change,18,0,4,,,,,,,,,4,11,41,,,
12161,control_change,18,0,5,,,,,,,,,5,11,41,,,
12162,control_change,16,0,3,,,,,,,,,3,11,38,,,
12165,note_on,0,0,8,,,,,,,,,12,,,,58,0
12165,note_on,39,0,8,,,,,,,,,12,,,,62,0
12172,control_change,16,0,2,,,,,,,,,1,11,36,,,
12177,control_change,18,0,4,,,,,,,,,4,11,38,,,
12178,control_change,16,0,3,,,,,,,,,3,11,36,,,
12179,control_change,18,0,5,,,,,,,,,5,11,38,,,
12180,note_on,0,0,6,,,,,,,,,10,,,,74,90
12180,note_on,121,0,6,,,,,,,,,10,,,,70,0
12182,note_on,0,0,7,,,,,,,,,11,,,,62,88
12182,note_on,121,0,7,,,,,,,,,11,,,,58,0
12186,note_on,0,0,8,,,,,,,,,12,,,,62,99
12186,note_on,21,0,8,,,,,,,,,12,,,,58,99
12188,control_change,16,0,2,,,,,,,,,1,11,34,,,
12194,control_change,16,0,3,,,,,,,,,3,11,34,,,
12195,control_change,18,0,4,,,,,,,,,4,11,35,,,
12197,control_change,18,0,5,,,,,,,,,5,11,35,,,
12204,control_change,16,0,2,,,,,,,,,1,11,32,,,
12210,control_change,16,0,3,,,,,,,,,3,11,32,,,
12213,control_change,18,0,4,,,,,,,,,4,11,32,,,
12215,control_change,18,0,5,,,,,,,,,5,11,32,,,
12219,note_on,39,0,6,,,,,,,,,10,,,,74,0
12220,control_change,16,0,2,,,,,,,,,1,11,30,,,
12221,note_on,39,0,7,,,,,,,,,11,,,,62,0
12225,note_on,39,0,8,,,,,,,,,12,,,,62,0
12225,note_on,0,0,8,,,,,,,,,12,,,,58,0
12226,control_change,16,0,3,,,,,,,,,3,11,30,,,
12231,control_change,18,0,4,,,,,,,,,4,11,29,,,
12233,control_change,18,0,5,,,,,,,,,5,11,29,,,
12236,control_change,16,0,2,,,,,,,,,1,11,28,,,
12240,set_tempo,240,1,0,,,,,,261438,,,,,,,,
12240,note_on,21,0,6,,,,,,,,,10,,,,77,90
12242,note_on,21,0,7,,,,,,,,,11,,,,65,88
12242,control_change,16,0,3,,,,,,,,,3,11,28,,,
12244,note_on,13,0,4,,,,,,,,,4,,,,46,0
12245,note_on,9,0,2,,,,,,,,,1,,,,82,0
12245,note_on,0,0,2,,,,,,,,,1,,,,74,0
12246,note_on,0,0,8,,,,,,,,,12,,,,62,108
12246,note_on,21,0,8,,,,,,,,,12,,,,58,108
12246,note_on,13,0,5,,,,,,,,,5,,,,46,0
12250,note_on,128,0,9,,,,,,,,,13,,,,46,0
12251,note_on,9,0,3,,,,,,,,,3,,,,62,0
12251,note_on,0,0,3,,,,,,,,,3,,,,58,0
12252,note_on,128,0,10,,,,,,,,,14,,,,34,0
12285,note_on,0,0,8,,,,,,,,,12,,,,58,0
12285,note_on,39,0,8,,,,,,,,,12,,,,62,0
12300,note_on,60,0,6,,,,,,,,,10,,,,77,0
12302,note_on,60,0,7,,,,,,,,,11,,,,65,0
12306,note_on,21,0,8,,,,,,,,,12,,,,58,99
12306,note_on,0,0,8,,,,,,,,,12,,,,62,99
12345,note_on,39,0,8,,,,,,,,,12,,,,62,0
12345,note_on,0,0,8,,,,,,,,,12,,,,58,0
12360,note_on,60,0,6,,,,,,,,,10,,,,77,90
12362,note_on,60,0,7,,,,,,,,,11,,,,65,88
12366,note_on,21,0,8,,,,,,,,,12,,,,62,108
12366,note_on,0,0,8,,,,,,,,,12,,,,58,108
12405,note_on,39,0,8,,,,,,,,,12,,,,58,0
12405,note_on,0,0,8,,,,,,,,,12,,,,62,0
12420,note_on,60,0,6,,,,,,,,,10,,,,77,0
12422,note_on,60,0,7,,,,,,,,,11,,,,65,0
12426,note_on,0,0,8,,,,,,,,,12,,,,62,99
12426,note_on,21,0,8,,,,,,,,,12,,,,58,99
12465,note_on,39,0,8,,,,,,,,,12,,,,62,0
12465,note_on,0,0,8,,,,,,,,,12,,,,58,0
12480,set_tempo,240,1,0,,,,,,272727,,,,,,,,
12480,note_on,60,0,6,,,,,,,,,10,,,,77,79
12482,note_on,60,0,7,,,,,,,,,11,,,,65,77
12483,control_change,1441,0,1,,,,,,,,,0,11,40,,,
12483,note_on,0,0,1,,,,,,,,,0,,,,86,110
12485,note_on,0,0,2,,,,,,,,,1,,,,74,97
12485,note_on,0,0,2,,,,,,,,,1,,,,65,97
12485,control_change,240,0,2,,,,,,,,,1,11,40,,,
12486,note_on,21,0,8,,,,,,,,,12,,,,58,108
12486,note_on,0,0,8,,,,,,,,,12,,,,62,108
12490,note_on,240,0,9,,,,,,,,,13,,,,46,99
12491,note_on,0,0,3,,,,,,,,,3,,,,58,97
12491,control_change,240,0,3,,,,,,,,,3,11,40,,,
12492,note_on,240,0,10,,,,,,,,,14,,,,34,93
12498,control_change,15,0,1,,,,,,,,,0,11,43,,,
12500,control_change,15,0,2,,,,,,,,,1,11,43,,,
12506,control_change,15,0,3,,,,,,,,,3,11,43,,,
12513,control_change,15,0,1,,,,,,,,,0,11,46,,,
12515,control_change,15,0,2,,,,,,,,,1,11,46,,,
12521,control_change,15,0,3,,,,,,,,,3,11,46,,,
12525,note_on,0,0,8,,,,,,,,,12,,,,58,0
12525,note_on,39,0,8,,,,,,,,,12,,,,62,0
12528,control_change,15,0,1,,,,,,,,,0,11,49,,,
12530,control_change,15,0,2,,,,,,,,,1,11,49,,,
12536,control_change,15,0,3,,,,,,,,,3,11,49,,,
12543,control_change,15,0,1,,,,,,,,,0,11,52,,,
12545,control_change,15,0,2,,,,,,,,,1,11,52,,,
12546,note_on,0,0,8,,,,,,,,,12,,,,62,99
12546,note_on,21,0,8,,,,,,,,,12,,,,58,99
12551,control_change,15,0,3,,,,,,,,,3,11,52,,,
12585,note_on,0,0,8,,,,,,,,,12,,,,58,0
12585,note_on,39,0,8,,,,,,,,,12,,,,62,0
12606,note_on,0,0,8,,,,,,,,,12,,,,58,108
12606,note_on,21,0,8,,,,,,,,,12,,,,62,108
12645,note_on,39,0,8,,,,,,,,,12,,,,58,0
12645,note_on,0,0,8,,,,,,,,,12,,,,62,0
12666,note_on,21,0,8,,,,,,,,,12,,,,62,99
12666,note_on,0,0,8,,,,,,,,,12,,,,58,99
12670,note_on,0,0,9,,,,,,,,,13,,,,50,99
12670,note_on,180,0,9,,,,,,,,,13,,,,46,0
12672,note_on,180,0,10,,,,,,,,,14,,,,34,0
12672,note_on,0,0,10,,,,,,,,,14,,,,38,93
12705,note_on,0,0,8,,,,,,,,,12,,,,62,0
12705,note_on,39,0,8,,,,,,,,,12,,,,58,0
12709,note_on,39,0,9,,,,,,,,,13,,,,50,0
12711,note_on,39,0,10,,,,,,,,,14,,,,38,0
12720,set_tempo,240,1,0,,,,,,261438,,,,,,,,
12720,note_on,240,0,6,,,,,,,,,10,,,,77,0
12722,note_on,240,0,7,,,,,,,,,11,,,,65,0
12723,note_on,180,0,1,,,,,,,,,0,,,,86,0
12723,note_on,0,0,1,,,,,,,,,0,,,,84,110
12726,note_on,21,0,8,,,,,,,,,12,,,,58,108
12726,note_on,0,0,8,,,,,,,,,12,,,,62,108
12730,note_on,21,0,9,,,,,,,,,13,,,,53,99
12732,note_on,21,0,10,,,,,,,,,14,,,,41,93
12765,note_on,39,0,8,,,,,,,,,12,,,,62,0
12765,note_on,0,0,8,,,,,,,,,12,,,,58,0
12783,note_on,60,0,1,,,,,,,,,0,,,,84,0
12783,note_on,0,0,1,,,,,,,,,0,,,,82,110
12786,note_on,21,0,8,,,,,,,,,12,,,,58,99
12786,note_on,0,0,8,,,,,,,,,12,,,,62,99
12790,note_on,60,0,9,,,,,,,,,13,,,,53,0
12792,note_on,60,0,10,,,,,,,,,14,,,,41,0
12825,note_on,39,0,8,,,,,,,,,12,,,,62,0
12825,note_on,0,0,8,,,,,,,,,12,,,,58,0
12843,note_on,0,0,1,,,,,,,,,0,,,,81,110
12843,note_on,60,0,1,,,,,,,,,0,,,,82,0
12846,note_on,21,0,8,,,,,,,,,12,,,,62,108
12846,note_on,0,0,8,,,,,,,,,12,,,,58,108
12850,note_on,60,0,9,,,,,,,,,13,,,,53,99
12852,note_on,60,0,10,,,,,,,,,14,,,,41,93
12885,note_on,39,0,8,,,,,,,,,12,,,,58,0
12885,note_on,0,0,8,,,,,,,,,12,,,,62,0
12903,note_on,60,0,1,,,,,,,,,0,,,,81,0
12903,note_on,0,0,1,,,,,,,,,0,,,,79,110
12906,note_on,21,0,8,,,,,,,,,12,,,,58,99
12906,note_on,0,0,8,,,,,,,,,12,,,,62,99
12910,note_on,60,0,9,,,,,,,,,13,,,,53,0
12912,note_on,60,0,10,,,,,,,,,14,,,,41,0
12945,note_on,39,0,8,,,,,,,,,12,,,,62,0
12945,note_on,0,0,8,,,,,,,,,12,,,,58,0
12958,note_on,55,0,1,,,,,,,,,0,,,,79,0
12960,control_change,240,0,6,,,,,,,,,10,11,57,,,
12960,note_on,0,0,6,,,,,,,,,10,,,,69,90
12960,set_tempo,240,1,0,,,,,,272727,,,,,,,,
12962,control_change,240,0,7,,,,,,,,,11,11,57,,,
12962,note_on,0,0,7,,,,,,,,,11,,,,57,88
12963,note_on,5,0,1,,,,,,,,,0,,,,77,110
12965,note_on,0,0,2,,,,,,,,,1,,,,72,97
12965,note_on,420,0,2,,,,,,,,,1,,,,74,0
12966,note_on,21,0,8,,,,,,,,,12,,,,65,108
12966,note_on,0,0,8,,,,,,,,,12,,,,60,108
12970,note_on,60,0,9,,,,,,,,,13,,,,53,99
12971,note_on,420,0,3,,,,,,,,,3,,,,58,0
12971,note_on,0,0,3,,,,,,,,,3,,,,57,97
12972,note_on,60,0,10,,,,,,,,,14,,,,41,93
12982,control_change,22,0,6,,,,,,,,,10,11,54,,,
12984,control_change,22,0,7,,,,,,,,,11,11,54,,,
13004,control_change,22,0,6,,,,,,,,,10,11,51,,,
13005,note_on,0,0,8,,,,,,,,,12,,,,65,0
13005,note_on,39,0,8,,,,,,,,,12,,,,60,0
13006,control_change,22,0,7,,,,,,,,,11,11,51,,,
13019,control_change,15,0,6,,,,,,,,,10,11,49,,,
13021,control_change,15,0,7,,,,,,,,,11,11,49,,,
13026,note_on,0,0,8,,,,,,,,,12,,,,65,99
13026,note_on,21,0,8,,,,,,,,,12,,,,60,99
13065,note_on,0,0,8,,,,,,,,,12,,,,60,0
13065,note_on,39,0,8,,,,,,,,,12,,,,65,0
13086,note_on,21,0,8,,,,,,,,,12,,,,60,108
13086,note_on,0,0,8,,,,,,,,,12,,,,65,108
13125,note_on,39,0,8,,,,,,,,,12,,,,65,0
13125,note_on,0,0,8,,,,,,,,,12,,,,60,0
13140,note_on,0,0,6,,,,,,,,,10,,,,72,90
13140,note_on,121,0,6,,,,,,,,,10,,,,69,0
13142,note_on,121,0,7,,,,,,,,,11,,,,57,0
13142,note_on,0,0,7,,,,,,,,,11,,,,60,88
13146,note_on,0,0,8,,,,,,,,,12,,,,60,99
13146,note_on,21,0,8,,,,,,,,,12,,,,65,99
13179,note_on,39,0,6,,,,,,,,,10,,,,72,0
13181,note_on,39,0,7,,,,,,,,,11,,,,60,0
13185,note_on,0,0,8,,,,,,,,,12,,,,65,0
13185,note_on,39,0,8,,,,,,,,,12,,,,60,0
13200,note_on,21,0,6,,,,,,,,,10,,,,77,90
13200,set_tempo,240,1,0,,,,,,261438,,,,,,,,
13202,note_on,21,0,7,,,,,,,,,11,,,,65,88
13203,note_on,240,0,1,,,,,,,,,0,,,,77,0
13206,note_on,21,0,8,,,,,,,,,12,,,,65,108
13206,note_on,0,0,8,,,,,,,,,12,,,,60,108
13210,note_on,240,0,9,,,,,,,,,13,,,,53,0
13212,note_on,240,0,10,,,,,,,,,14,,,,41,0
13245,note_on,0,0,8,,,,,,,,,12,,,,65,0
13245,note_on,39,0,8,,,,,,,,,12,,,,60,0
13260,note_on,60,0,6,,,,,,,,,10,,,,77,0
13262,note_on,60,0,7,,,,,,,,,11,,,,65,0
13266,note_on,21,0,8,,,,,,,,,12,,,,65,99
13266,note_on,0,0,8,,,,,,,,,12,,,,60,99
13305,note_on,0,0,8,,,,,,,,,12,,,,65,0
13305,note_on,39,0,8,,,,,,,,,12,,,,60,0
13320,note_on,60,0,6,,,,,,,,,10,,,,77,90
13322,note_on,60,0,7,,,,,,,,,11,,,,65,88
13326,note_on,0,0,8,,,,,,,,,12,,,,60,108
13326,note_on,21,0,8,,,,,,,,,12,,,,65,108
13365,note_on,0,0,8,,,,,,,,,12,,,,65,0
13365,note_on,39,0,8,,,,,,,,,12,,,,60,0
13380,note_on,60,0,6,,,,,,,,,10,,,,77,0
13382,note_on,60,0,7,,,,,,,,,11,,,,65,0
13386,note_on,0,0,8,,,,,,,,,12,,,,60,99
13386,note_on,21,0,8,,,,,,,,,12,,,,65,99
13425,note_on,39,0,8,,,,,,,,,12,,,,60,0
13425,note_on,0,0,8,,,,,,,,,12,,,,65,0
13440,note_on,60,0,6,,,,,,,,,10,,,,77,79
13440,set_tempo,240,1,0,,,,,,272727,,,,,,,,
13442,note_on,60,0,7,,,,,,,,,11,,,,65,77
13443,note_on,240,0,1,,,,,,,,,0,,,,84,110
13446,note_on,21,0,8,,,,,,,,,12,,,,60,108
13446,note_on,0,0,8,,,,,,,,,12,,,,65,108
13450,note_on,240,0,9,,,,,,,,,13,,,,45,99
13452,note_on,240,0,10,,,,,,,,,14,,,,33,93
13485,note_on,39,0,8,,,,,,,,,12,,,,65,0
13485,note_on,0,0,8,,,,,,,,,12,,,,60,0
13506,note_on,0,0,8,,,,,,,,,12,,,,65,99
13506,note_on,21,0,8,,,,,,,,,12,,,,60,99
13545,note_on,39,0,8,,,,,,,,,12,,,,65,0
13545,note_on,0,0,8,,,,,,,,,12,,,,60,0
13566,note_on,0,0,8,,,,,,,,,12,,,,65,108
13566,note_on,21,0,8,,,,,,,,,12,,,,60,108
13605,note_on,0,0,8,,,,,,,,,12,,,,60,0
13605,note_on,39,0,8,,,,,,,,,12,,,,65,0
13626,note_on,0,0,8,,,,,,,,,12,,,,60,99
13626,note_on,21,0,8,,,,,,,,,12,,,,65,99
13630,note_on,180,0,9,,,,,,,,,13,,,,45,0
13630,note_on,0,0,9,,,,,,,,,13,,,,48,99
13632,note_on,180,0,10,,,,,,,,,14,,,,33,0
13632,note_on,0,0,10,,,,,,,,,14,,,,36,93
13665,note_on,0,0,8,,,,,,,,,12,,,,65,0
13665,note_on,39,0,8,,,,,,,,,12,,,,60,0
13669,note_on,39,0,9,,,,,,,,,13,,,,48,0
13671,note_on,39,0,10,,,,,,,,,14,,,,36,0
13680,set_tempo,240,1,0,,,,,,261438,,,,,,,,
13680,note_on,240,0,6,,,,,,,,,10,,,,77,0
13682,note_on,240,0,7,,,,,,,,,11,,,,65,0
13683,note_on,240,0,1,,,,,,,,,0,,,,84,0
13683,note_on,0,0,1,,,,,,,,,0,,,,82,110
13686,note_on,21,0,8,,,,,,,,,12,,,,65,108
13686,note_on,0,0,8,,,,,,,,,12,,,,60,108
13690,note_on,21,0,9,,,,,,,,,13,,,,53,99
13692,note_on,21,0,10,,,,,,,,,14,,,,41,93
13725,note_on,39,0,8,,,,,,,,,12,,,,60,0
13725,note_on,0,0,8,,,,,,,,,12,,,,65,0
13743,note_on,60,0,1,,,,,,,,,0,,,,82,0
13743,note_on,0,0,1,,,,,,,,,0,,,,81,110
13746,note_on,0,0,8,,,,,,,,,12,,,,65,99
13746,note_on,21,0,8,,,,,,,,,12,,,,60,99
13750,note_on,60,0,9,,,,,,,,,13,,,,53,0
13752,note_on,60,0,10,,,,,,,,,14,,,,41,0
13785,note_on,0,0,8,,,,,,,,,12,,,,60,0
13785,note_on,39,0,8,,,,,,,,,12,,,,65,0
13803,note_on,0,0,1,,,,,,,,,0,,,,79,110
13803,note_on,60,0,1,,,,,,,,,0,,,,81,0
13806,note_on,0,0,8,,,,,,,,,12,,,,65,108
13806,note_on,21,0,8,,,,,,,,,12,,,,60,108
13810,note_on,60,0,9,,,,,,,,,13,,,,53,99
13812,note_on,60,0,10,,,,,,,,,14,,,,41,93
13845,note_on,39,0,8,,,,,,,,,12,,,,65,0
13845,note_on,0,0,8,,,,,,,,,12,,,,60,0
13863,note_on,60,0,1,,,,,,,,,0,,,,79,0
13863,note_on,0,0,1,,,,,,,,,0,,,,77,110
13866,note_on,0,0,8,,,,,,,,,12,,,,65,99
13866,note_on,21,0,8,,,,,,,,,12,,,,60,99
13870,note_on,60,0,9,,,,,,,,,13,,,,53,0
13872,note_on,60,0,10,,,,,,,,,14,,,,41,0
13905,note_on,0,0,8,,,,,,,,,12,,,,60,0
13905,note_on,39,0,8,,,,,,,,,12,,,,65,0
13918,note_on,55,0,1,,,,,,,,,0,,,,77,0
13920,note_on,0,0,6,,,,,,,,,10,,,,75,90
13920,set_tempo,240,1,0,,,,,,272727,,,,,,,,
13920,control_change,240,0,6,,,,,,,,,10,11,57,,,
13922,note_on,0,0,7,,,,,,,,,11,,,,63,88
13922,control_change,240,0,7,,,,,,,,,11,11,57,,,
13923,note_on,5,0,1,,,,,,,,,0,,,,75,110
13925,note_on,0,0,2,,,,,,,,,1,,,,75,97
13925,note_on,0,0,2,,,,,,,,,1,,,,70,97
13925,note_on,0,0,2,,,,,,,,,1,,,,65,0
13925,note_on,960,0,2,,,,,,,,,1,,,,72,0
13926,note_on,0,0,8,,,,,,,,,12,,,,58,108
13926,note_on,21,0,8,,,,,,,,,12,,,,63,108
13930,note_on,60,0,9,,,,,,,,,13,,,,43,99
13931,note_on,0,0,3,,,,,,,,,3,,,,55,97
13931,note_on,960,0,3,,,,,,,,,3,,,,57,0
13932,note_on,60,0,10,,,,,,,,,14,,,,31,93
13942,control_change,22,0,6,,,,,,,,,10,11,54,,,
13944,control_change,22,0,7,,,,,,,,,11,11,54,,,
13964,control_change,22,0,6,,,,,,,,,10,11,51,,,
13965,note_on,0,0,8,,,,,,,,,12,,,,63,0
13965,note_on,39,0,8,,,,,,,,,12,,,,58,0
13966,control_change,22,0,7,,,,,,,,,11,11,51,,,
13979,control_change,15,0,6,,,,,,,,,10,11,49,,,
13981,control_change,15,0,7,,,,,,,,,11,11,49,,,
13986,note_on,0,0,8,,,,,,,,,12,,,,63,99
13986,note_on,21,0,8,,,,,,,,,12,,,,58,99
14025,note_on,0,0,8,,,,,,,,,12,,,,58,0
14025,note_on,39,0,8,,,,,,,,,12,,,,63,0
14046,note_on,0,0,8,,,,,,,,,12,,,,63,108
14046,note_on,21,0,8,,,,,,,,,12,,,,58,108
14085,note_on,39,0,8,,,,,,,,,12,,,,63,0
14085,note_on,0,0,8,,,,,,,,,12,,,,58,0
14100,note_on,0,0,6,,,,,,,,,10,,,,79,90
14100,note_on,121,0,6,,,,,,,,,10,,,,75,0
14102,note_on,121,0,7,,,,,,,,,11,,,,63,0
14102,note_on,0,0,7,,,,,,,,,11,,,,67,88
14106,note_on,21,0,8,,,,,,,,,12,,,,63,99
14106,note_on,0,0,8,,,,,,,,,12,,,,58,99
14139,note_on,39,0,6,,,,,,,,,10,,,,79,0
14141,note_on,39,0,7,,,,,,,,,11,,,,67,0
14145,note_on,0,0,8,,,,,,,,,12,,,,63,0
14145,note_on,39,0,8,,,,,,,,,12,,,,58,0
14160,set_tempo,240,1,0,,,,,,261438,,,,,,,,
14160,note_on,21,0,6,,,,,,,,,10,,,,82,90
14162,note_on,21,0,7,,,,,,,,,11,,,,70,88
14163,note_on,240,0,1,,,,,,,,,0,,,,75,0
14166,note_on,0,0,8,,,,,,,,,12,,,,63,108
14166,note_on,21,0,8,,,,,,,,,12,,,,58,108
14170,note_on,240,0,9,,,,,,,,,13,,,,43,0
14172,note_on,240,0,10,,,,,,,,,14,,,,31,0
14205,note_on,39,0,8,,,,,,,,,12,,,,63,0
14205,note_on,0,0,8,,,,,,,,,12,,,,58,0
14220,note_on,60,0,6,,,,,,,,,10,,,,82,0
14222,note_on,60,0,7,,,,,,,,,11,,,,70,0
14226,note_on,0,0,8,,,,,,,,,12,,,,58,99
14226,note_on,21,0,8,,,,,,,,,12,,,,63,99
14265,note_on,39,0,8,,,,,,,,,12,,,,58,0
14265,note_on,0,0,8,,,,,,,,,12,,,,63,0
14280,note_on,60,0,6,,,,,,,,,10,,,,82,90
14282,note_on,60,0,7,,,,,,,,,11,,,,70,88
14286,note_on,0,0,8,,,,,,,,,12,,,,58,108
14286,note_on,21,0,8,,,,,,,,,12,,,,63,108
14325,note_on,0,0,8,,,,,,,,,12,,,,63,0
14325,note_on,39,0,8,,,,,,,,,12,,,,58,0
14340,note_on,60,0,6,,,,,,,,,10,,,,82,0
14342,note_on,60,0,7,,,,,,,,,11,,,,70,0
14346,note_on,21,0,8,,,,,,,,,12,,,,58,99
14346,note_on,0,0,8,,,,,,,,,12,,,,63,99
14385,note_on,0,0,8,,,,,,,,,12,,,,58,0
14385,note_on,39,0,8,,,,,,,,,12,,,,63,0
14400,note_on,60,0,6,,,,,,,,,10,,,,82,79
14400,set_tempo,240,1,0,,,,,,272727,,,,,,,,
14402,note_on,60,0,7,,,,,,,,,11,,,,70,77
14403,note_on,240,0,1,,,,,,,,,0,,,,82,110
14406,note_on,0,0,8,,,,,,,,,12,,,,63,108
14406,note_on,21,0,8,,,,,,,,,12,,,,58,108
14410,note_on,240,0,9,,,,,,,,,13,,,,55,99
14412,note_on,240,0,10,,,,,,,,,14,,,,43,93
14445,note_on,39,0,8,,,,,,,,,12,,,,63,0
14445,note_on,0,0,8,,,,,,,,,12,,,,58,0
14466,note_on,21,0,8,,,,,,,,,12,,,,58,99
14466,note_on,0,0,8,,,,,,,,,12,,,,63,99
14505,note_on,39,0,8,,,,,,,,,12,,,,63,0
14505,note_on,0,0,8,,,,,,,,,12,,,,58,0
14526,note_on,0,0,8,,,,,,,,,12,,,,58,108
14526,note_on,21,0,8,,,,,,,,,12,,,,63,108
14565,note_on,0,0,8,,,,,,,,,12,,,,63,0
14565,note_on,39,0,8,,,,,,,,,12,,,,58,0
14586,note_on,21,0,8,,,,,,,,,12,,,,63,99
14586,note_on,0,0,8,,,,,,,,,12,,,,58,99
14590,note_on,180,0,9,,,,,,,,,13,,,,55,0
14590,note_on,0,0,9,,,,,,,,,13,,,,58,99
14592,note_on,0,0,10,,,,,,,,,14,,,,46,93
14592,note_on,180,0,10,,,,,,,,,14,,,,43,0
14625,note_on,0,0,8,,,,,,,,,12,,,,63,0
14625,note_on,39,0,8,,,,,,,,,12,,,,58,0
14629,note_on,39,0,9,,,,,,,,,13,,,,58,0
14631,note_on,39,0,10,,,,,,,,,14,,,,46,0
14640,note_on,240,0,6,,,,,,,,,10,,,,82,0
14640,note_on,0,0,6,,,,,,,,,10,,,,81,90
14640,set_tempo,240,1,0,,,,,,261438,,,,,,,,
14642,note_on,240,0,7,,,,,,,,,11,,,,70,0
14642,note_on,0,0,7,,,,,,,,,11,,,,69,88
14643,note_on,0,0,1,,,,,,,,,0,,,,81,110
14643,note_on,240,0,1,,,,,,,,,0,,,,82,0
14646,note_on,0,0,8,,,,,,,,,12,,,,63,108
14646,note_on,21,0,8,,,,,,,,,12,,,,58,108
14650,note_on,21,0,9,,,,,,,,,13,,,,63,99
14652,note_on,21,0,10,,,,,,,,,14,,,,51,93
14685,note_on,0,0,8,,,,,,,,,12,,,,58,0
14685,note_on,39,0,8,,,,,,,,,12,,,,63,0
14700,note_on,60,0,6,,,,,,,,,10,,,,81,0
14700,note_on,0,0,6,,,,,,,,,10,,,,79,90
14702,note_on,0,0,7,,,,,,,,,11,,,,67,88
14702,note_on,60,0,7,,,,,,,,,11,,,,69,0
14703,note_on,0,0,1,,,,,,,,,0,,,,79,110
14703,note_on,60,0,1,,,,,,,,,0,,,,81,0
14706,note_on,0,0,8,,,,,,,,,12,,,,58,99
14706,note_on,21,0,8,,,,,,,,,12,,,,63,99
14710,note_on,60,0,9,,,,,,,,,13,,,,63,0
14712,note_on,60,0,10,,,,,,,,,14,,,,51,0
14745,note_on,0,0,8,,,,,,,,,12,,,,63,0
14745,note_on,39,0,8,,,,,,,,,12,,,,58,0
14760,note_on,0,0,6,,,,,,,,,10,,,,77,90
14760,note_on,60,0,6,,,,,,,,,10,,,,79,0
14762,note_on,60,0,7,,,,,,,,,11,,,,67,0
14762,note_on,0,0,7,,,,,,,,,11,,,,65,88
14763,note_on,0,0,1,,,,,,,,,0,,,,77,110
14763,note_on,60,0,1,,,,,,,,,0,,,,79,0
14766,note_on,21,0,8,,,,,,,,,12,,,,58,108
14766,note_on,0,0,8,,,,,,,,,12,,,,63,108
14770,note_on,60,0,9,,,,,,,,,13,,,,63,99
14772,note_on,60,0,10,,,,,,,,,14,,,,51,93
14805,note_on,0,0,8,,,,,,,,,12,,,,58,0
14805,note_on,39,0,8,,,,,,,,,12,,,,63,0
14820,note_on,60,0,6,,,,,,,,,10,,,,77,0
14820,note_on,0,0,6,,,,,,,,,10,,,,75,90
14822,note_on,60,0,7,,,,,,,,,11,,,,65,0
14822,note_on,0,0,7,,,,,,,,,11,,,,63,88
14823,note_on,0,0,1,,,,,,,,,0,,,,75,110
14823,note_on,60,0,1,,,,,,,,,0,,,,77,0
14826,note_on,0,0,8,,,,,,,,,12,,,,58,99
14826,note_on,21,0,8,,,,,,,,,12,,,,63,99
14830,note_on,60,0,9,,,,,,,,,13,,,,63,0
14832,note_on,60,0,10,,,,,,,,,14,,,,51,0
14859,note_on,39,0,6,,,,,,,,,10,,,,75,0
14861,note_on,39,0,7,,,,,,,,,11,,,,63,0
14865,note_on,39,0,8,,,,,,,,,12,,,,58,0
14865,note_on,0,0,8,,,,,,,,,12,,,,63,0
14878,note_on,55,0,1,,,,,,,,,0,,,,75,0
14880,control_change,21,0,6,,,,,,,,,10,11,57,,,
14880,note_on,0,0,6,,,,,,,,,10,,,,74,90
14880,set_tempo,240,1,0,,,,,,272727,,,,,,,,
14882,note_on,0,0,7,,,,,,,,,11,,,,62,88
14882,control_change,21,0,7,,,,,,,,,11,11,57,,,
14883,note_on,5,0,1,,,,,,,,,0,,,,74,110
14885,note_on,960,0,2,,,,,,,,,1,,,,75,0
14885,note_on,0,0,2,,,,,,,,,1,,,,74,97
14886,note_on,0,0,8,,,,,,,,,12,,,,58,108
14886,note_on,21,0,8,,,,,,,,,12,,,,62,108
14890,note_on,60,0,9,,,,,,,,,13,,,,53,99
14891,note_on,960,0,3,,,,,,,,,3,,,,55,0
14891,note_on,0,0,3,,,,,,,,,3,,,,53,97
14892,note_on,60,0,10,,,,,,,,,14,,,,41,93
14902,control_change,22,0,6,,,,,,,,,10,11,54,,,
14904,control_change,22,0,7,,,,,,,,,11,11,54,,,
14924,control_change,22,0,6,,,,,,,,,10,11,51,,,
14925,note_on,39,0,8,,,,,,,,,12,,,,58,0
14925,note_on,0,0,8,,,,,,,,,12,,,,62,0
14926,control_change,22,0,7,,,,,,,,,11,11,51,,,
14939,control_change,15,0,6,,,,,,,,,10,11,49,,,
14941,control_change,15,0,7,,,,,,,,,11,11,49,,,
14946,note_on,0,0,8,,,,,,,,,12,,,,58,99
14946,note_on,21,0,8,,,,,,,,,12,,,,62,99
14985,note_on,39,0,8,,,,,,,,,12,,,,58,0
14985,note_on,0,0,8,,,,,,,,,12,,,,62,0
15006,note_on,21,0,8,,,,,,,,,12,,,,58,108
15006,note_on,0,0,8,,,,,,,,,12,,,,62,108
15045,note_on,39,0,8,,,,,,,,,12,,,,62,0
15045,note_on,0,0,8,,,,,,,,,12,,,,58,0
15060,note_on,121,0,6,,,,,,,,,10,,,,74,0
15060,note_on,0,0,6,,,,,,,,,10,,,,77,90
15062,note_on,121,0,7,,,,,,,,,11,,,,62,0
15062,note_on,0,0,7,,,,,,,,,11,,,,65,88
15066,note_on,0,0,8,,,,,,,,,12,,,,62,99
15066,note_on,21,0,8,,,,,,,,,12,,,,58,99
15099,note_on,39,0,6,,,,,,,,,10,,,,77,0
15101,note_on,39,0,7,,,,,,,,,11,,,,65,0
15105,note_on,0,0,8,,,,,,,,,12,,,,58,0
15105,note_on,39,0,8,,,,,,,,,12,,,,62,0
15120,set_tempo,240,1,0,,,,,,261438,,,,,,,,
15120,note_on,21,0,6,,,,,,,,,10,,,,82,90
15122,note_on,21,0,7,,,,,,,,,11,,,,70,88
15123,note_on,240,0,1,,,,,,,,,0,,,,74,0
15126,note_on,21,0,8,,,,,,,,,12,,,,58,108
15126,note_on,0,0,8,,,,,,,,,12,,,,62,108
15130,note_on,240,0,9,,,,,,,,,13,,,,53,0
15132,note_on,240,0,10,,,,,,,,,14,,,,41,0
15165,note_on,0,0,8,,,,,,,,,12,,,,58,0
15165,note_on,39,0,8,,,,,,,,,12,,,,62,0
15180,note_on,60,0,6,,,,,,,,,10,,,,82,0
15182,note_on,60,0,7,,,,,,,,,11,,,,70,0
15186,note_on,21,0,8,,,,,,,,,12,,,,58,99
15186,note_on,0,0,8,,,,,,,,,12,,,,62,99
15225,note_on,39,0,8,,,,,,,,,12,,,,62,0
15225,note_on,0,0,8,,,,,,,,,12,,,,58,0
15240,note_on,60,0,6,,,,,,,,,10,,,,82,90
15242,note_on,60,0,7,,,,,,,,,11,,,,70,88
15246,note_on,0,0,8,,,,,,,,,12,,,,58,108
15246,note_on,21,0,8,,,,,,,,,12,,,,62,108
15285,note_on,0,0,8,,,,,,,,,12,,,,62,0
15285,note_on,39,0,8,,,,,,,,,12,,,,58,0
15300,note_on,60,0,6,,,,,,,,,10,,,,82,0
15302,note_on,60,0,7,,,,,,,,,11,,,,70,0
15306,note_on,21,0,8,,,,,,,,,12,,,,58,99
15306,note_on,0,0,8,,,,,,,,,12,,,,62,99
15345,note_on,39,0,8,,,,,,,,,12,,,,62,0
15345,note_on,0,0,8,,,,,,,,,12,,,,58,0
15360,set_tempo,240,1,0,,,,,,272727,,,,,,,,
15360,note_on,60,0,6,,,,,,,,,10,,,,82,79
15362,note_on,60,0,7,,,,,,,,,11,,,,70,77
15363,note_on,240,0,1,,,,,,,,,0,,,,82,110
15366,note_on,0,0,8,,,,,,,,,12,,,,58,108
15366,note_on,21,0,8,,,,,,,,,12,,,,62,108
15370,note_on,240,0,9,,,,,,,,,13,,,,53,99
15372,note_on,240,0,10,,,,,,,,,14,,,,41,93
15405,note_on,39,0,8,,,,,,,,,12,,,,58,0
15405,note_on,0,0,8,,,,,,,,,12,,,,62,0
15426,note_on,21,0,8,,,,,,,,,12,,,,58,99
15426,note_on,0,0,8,,,,,,,,,12,,,,62,99
15465,note_on,39,0,8,,,,,,,,,12,,,,62,0
15465,note_on,0,0,8,,,,,,,,,12,,,,58,0
15486,note_on,21,0,8,,,,,,,,,12,,,,62,108
15486,note_on,0,0,8,,,,,,,,,12,,,,58,108
15525,note_on,39,0,8,,,,,,,,,12,,,,58,0
15525,note_on,0,0,8,,,,,,,,,12,,,,62,0
15540,note_on,180,0,6,,,,,,,,,10,,,,82,0
15540,note_on,0,0,6,,,,,,,,,10,,,,81,90
15542,note_on,0,0,7,,,,,,,,,11,,,,69,88
15542,note_on,180,0,7,,,,,,,,,11,,,,70,0
15543,note_on,0,0,1,,,,,,,,,0,,,,81,110
15543,note_on,180,0,1,,,,,,,,,0,,,,82,0
15546,note_on,21,0,8,,,,,,,,,12,,,,62,99
15546,note_on,0,0,8,,,,,,,,,12,,,,58,99
15550,note_on,180,0,9,,,,,,,,,13,,,,53,0
15550,note_on,0,0,9,,,,,,,,,13,,,,58,99
15552,note_on,180,0,10,,,,,,,,,14,,,,41,0
15552,note_on,0,0,10,,,,,,,,,14,,,,46,93
15585,note_on,0,0,8,,,,,,,,,12,,,,62,0
15585,note_on,39,0,8,,,,,,,,,12,,,,58,0
15589,note_on,39,0,9,,,,,,,,,13,,,,58,0
15591,note_on,39,0,10,,,,,,,,,14,,,,46,0
15600,note_on,0,0,6,,,,,,,,,10,,,,79,90
15600,set_tempo,240,1,0,,,,,,261438,,,,,,,,
15600,note_on,60,0,6,,,,,,,,,10,,,,81,0
15602,note_on,0,0,7,,,,,,,,,11,,,,67,88
15602,note_on,60,0,7,,,,,,,,,11,,,,69,0
15603,note_on,0,0,1,,,,,,,,,0,,,,79,110
15603,note_on,60,0,1,,,,,,,,,0,,,,81,0
15606,note_on,21,0,8,,,,,,,,,12,,,,62,108
15606,note_on,0,0,8,,,,,,,,,12,,,,58,108
15610,note_on,21,0,9,,,,,,,,,13,,,,62,99
15612,note_on,21,0,10,,,,,,,,,14,,,,50,93
15645,note_on,39,0,8,,,,,,,,,12,,,,58,0
15645,note_on,0,0,8,,,,,,,,,12,,,,62,0
15660,note_on,60,0,6,,,,,,,,,10,,,,79,0
15660,note_on,0,0,6,,,,,,,,,10,,,,77,90
15662,note_on,0,0,7,,,,,,,,,11,,,,65,88
15662,note_on,60,0,7,,,,,,,,,11,,,,67,0
15663,note_on,60,0,1,,,,,,,,,0,,,,79,0
15663,note_on,0,0,1,,,,,,,,,0,,,,77,110
15666,note_on,0,0,8,,,,,,,,,12,,,,62,99
15666,note_on,21,0,8,,,,,,,,,12,,,,58,99
15670,note_on,60,0,9,,,,,,,,,13,,,,62,0
15672,note_on,60,0,10,,,,,,,,,14,,,,50,0
15705,note_on,39,0,8,,,,,,,,,12,,,,62,0
15705,note_on,0,0,8,,,,,,,,,12,,,,58,0
15720,note_on,60,0,6,,,,,,,,,10,,,,77,0
15720,note_on,0,0,6,,,,,,,,,10,,,,75,90
15722,note_on,0,0,7,,,,,,,,,11,,,,63,88
15722,note_on,60,0,7,,,,,,,,,11,,,,65,0
15723,note_on,0,0,1,,,,,,,,,0,,,,75,110
15723,note_on,60,0,1,,,,,,,,,0,,,,77,0
15726,note_on,0,0,8,,,,,,,,,12,,,,58,108
15726,note_on,21,0,8,,,,,,,,,12,,,,62,108
15730,note_on,60,0,9,,,,,,,,,13,,,,62,99
15732,note_on,60,0,10,,,,,,,,,14,,,,50,93
15765,note_on,0,0,8,,,,,,,,,12,,,,62,0
15765,note_on,39,0,8,,,,,,,,,12,,,,58,0
15780,note_on,60,0,6,,,,,,,,,10,,,,75,0
15780,note_on,0,0,6,,,,,,,,,10,,,,74,90
15782,note_on,60,0,7,,,,,,,,,11,,,,63,0
15782,note_on,0,0,7,,,,,,,,,11,,,,62,88
15783,note_on,0,0,1,,,,,,,,,0,,,,74,110
15783,note_on,60,0,1,,,,,,,,,0,,,,75,0
15786,note_on,21,0,8,,,,,,,,,12,,,,62,99
15786,note_on,0,0,8,,,,,,,,,12,,,,58,99
15790,note_on,60,0,9,,,,,,,,,13,,,,62,0
15792,note_on,60,0,10,,,,,,,,,14,,,,50,0
15819,note_on,39,0,6,,,,,,,,,10,,,,74,0
15821,note_on,39,0,7,,,,,,,,,11,,,,62,0
15825,note_on,39,0,8,,,,,,,,,12,,,,58,0
15825,note_on,0,0,8,,,,,,,,,12,,,,62,0
15838,note_on,55,0,1,,,,,,,,,0,,,,74,0
15840,note_on,0,0,6,,,,,,,,,10,,,,72,90
15840,control_change,21,0,6,,,,,,,,,10,11,57,,,
15840,set_tempo,240,1,0,,,,,,272727,,,,,,,,
15842,control_change,21,0,7,,,,,,,,,11,11,57,,,
15842,note_on,0,0,7,,,,,,,,,11,,,,60,88
15843,note_on,5,0,1,,,,,,,,,0,,,,72,110
15845,note_on,0,0,2,,,,,,,,,1,,,,67,97
15845,note_on,0,0,2,,,,,,,,,1,,,,72,97
15845,note_on,0,0,2,,,,,,,,,1,,,,70,0
15845,note_on,960,0,2,,,,,,,,,1,,,,74,0
15845,control_change,0,0,2,,,,,,,,,1,11,62,,,
15846,note_on,21,0,8,,,,,,,,,12,,,,60,108
15846,note_on,0,0,8,,,,,,,,,12,,,,55,108
15850,note_on,60,0,9,,,,,,,,,13,,,,51,99
15851,control_change,0,0,3,,,,,,,,,3,11,62,,,
15851,note_on,0,0,3,,,,,,,,,3,,,,51,97
15851,note_on,960,0,3,,,,,,,,,3,,,,53,0
15852,note_on,60,0,10,,,,,,,,,14,,,,39,93
15862,control_change,22,0,6,,,,,,,,,10,11,54,,,
15864,control_change,22,0,7,,,,,,,,,11,11,54,,,
15884,control_change,22,0,6,,,,,,,,,10,11,51,,,
15885,note_on,0,0,8,,,,,,,,,12,,,,60,0
15885,note_on,39,0,8,,,,,,,,,12,,,,55,0
15886,control_change,22,0,7,,,,,,,,,11,11,51,,,
15899,control_change,15,0,6,,,,,,,,,10,11,49,,,
15901,control_change,15,0,7,,,,,,,,,11,11,49,,,
15906,note_on,21,0,8,,,,,,,,,12,,,,60,99
15906,note_on,0,0,8,,,,,,,,,12,,,,55,99
15945,note_on,39,0,8,,,,,,,,,12,,,,55,0
15945,note_on,0,0,8,,,,,,,,,12,,,,60,0
15966,note_on,21,0,8,,,,,,,,,12,,,,55,108
15966,note_on,0,0,8,,,,,,,,,12,,,,60,108
16005,note_on,39,0,8,,,,,,,,,12,,,,60,0
16005,note_on,0,0,8,,,,,,,,,12,,,,55,0
16020,note_on,121,0,6,,,,,,,,,10,,,,72,0
16020,note_on,0,0,6,,,,,,,,,10,,,,75,90
16020,control_change,0,0,6,,,,,,,,,10,11,49,,,
16022,note_on,0,0,7,,,,,,,,,11,,,,63,88
16022,note_on,121,0,7,,,,,,,,,11,,,,60,0
16022,control_change,0,0,7,,,,,,,,,11,11,49,,,
16026,note_on,21,0,8,,,,,,,,,12,,,,60,99
16026,note_on,0,0,8,,,,,,,,,12,,,,55,99
16035,control_change,15,0,6,,,,,,,,,10,11,52,,,
16037,control_change,15,0,7,,,,,,,,,11,11,51,,,
16050,control_change,15,0,6,,,,,,,,,10,11,55,,,
16052,control_change,15,0,7,,,,,,,,,11,11,52,,,
16059,note_on,9,0,6,,,,,,,,,10,,,,75,0
16061,note_on,9,0,7,,,,,,,,,11,,,,63,0
16065,note_on,0,0,8,,,,,,,,,12,,,,60,0
16065,note_on,39,0,8,,,,,,,,,12,,,,55,0
16065,control_change,6,0,6,,,,,,,,,10,11,58,,,
16067,control_change,6,0,7,,,,,,,,,11,11,54,,,
16080,note_on,0,0,6,,,,,,,,,10,,,,79,90
16080,control_change,15,0,6,,,,,,,,,10,11,60,,,
16080,set_tempo,240,1,0,,,,,,261438,,,,,,,,
16082,note_on,0,0,7,,,,,,,,,11,,,,67,88
16082,control_change,15,0,7,,,,,,,,,11,11,55,,,
16083,note_on,240,0,1,,,,,,,,,0,,,,72,0
16086,note_on,0,0,8,,,,,,,,,12,,,,55,108
16086,note_on,21,0,8,,,,,,,,,12,,,,60,108
16095,control_change,15,0,6,,,,,,,,,10,11,62,,,
16097,control_change,15,0,7,,,,,,,,,11,11,57,,,
16110,control_change,15,0,6,,,,,,,,,10,11,63,,,
16112,control_change,15,0,7,,,,,,,,,11,11,58,,,
16125,note_on,39,0,8,,,,,,,,,12,,,,55,0
16125,control_change,15,0,6,,,,,,,,,10,11,64,,,
16125,note_on,0,0,8,,,,,,,,,12,,,,60,0
16127,control_change,15,0,7,,,,,,,,,11,11,59,,,
16140,note_on,15,0,6,,,,,,,,,10,,,,79,0
16140,control_change,0,0,6,,,,,,,,,10,11,66,,,
16142,note_on,15,0,7,,,,,,,,,11,,,,67,0
16142,control_change,0,0,7,,,,,,,,,11,11,60,,,
16146,note_on,0,0,8,,,,,,,,,12,,,,60,99
16146,note_on,21,0,8,,,,,,,,,12,,,,55,99
16155,control_change,15,0,6,,,,,,,,,10,11,67,,,
16157,control_change,15,0,7,,,,,,,,,11,11,61,,,
16170,control_change,15,0,6,,,,,,,,,10,11,68,,,
16172,control_change,15,0,7,,,,,,,,,11,11,62,,,
16185,note_on,39,0,8,,,,,,,,,12,,,,60,0
16185,note_on,0,0,8,,,,,,,,,12,,,,55,0
16185,control_change,15,0,6,,,,,,,,,10,11,62,,,
16187,control_change,15,0,7,,,,,,,,,11,11,62,,,
16200,control_change,15,0,6,,,,,,,,,10,11,63,,,
16200,note_on,0,0,6,,,,,,,,,10,,,,79,90
16202,control_change,15,0,7,,,,,,,,,11,11,63,,,
16202,note_on,0,0,7,,,,,,,,,11,,,,67,88
16206,note_on,21,0,8,,,,,,,,,12,,,,55,108
16206,note_on,0,0,8,,,,,,,,,12,,,,60,108
16215,control_change,15,0,6,,,,,,,,,10,11,64,,,
16217,control_change,15,0,7,,,,,,,,,11,11,64,,,
16230,control_change,15,0,6,,,,,,,,,10,11,64,,,
16232,control_change,15,0,7,,,,,,,,,11,11,64,,,
16245,control_change,15,0,6,,,,,,,,,10,11,65,,,
16245,note_on,39,0,8,,,,,,,,,12,,,,60,0
16245,note_on,0,0,8,,,,,,,,,12,,,,55,0
16247,control_change,15,0,7,,,,,,,,,11,11,65,,,
16260,control_change,0,0,6,,,,,,,,,10,11,66,,,
16260,note_on,15,0,6,,,,,,,,,10,,,,79,0
16262,control_change,0,0,7,,,,,,,,,11,11,66,,,
16262,note_on,15,0,7,,,,,,,,,11,,,,67,0
16266,note_on,21,0,8,,,,,,,,,12,,,,60,99
16266,note_on,0,0,8,,,,,,,,,12,,,,55,99
16275,control_change,15,0,6,,,,,,,,,10,11,66,,,
16277,control_change,15,0,7,,,,,,,,,11,11,66,,,
16290,control_change,15,0,6,,,,,,,,,10,11,67,,,
16292,control_change,15,0,7,,,,,,,,,11,11,67,,,
16305,note_on,39,0,8,,,,,,,,,12,,,,55,0
16305,note_on,0,0,8,,,,,,,,,12,,,,60,0
16305,control_change,15,0,6,,,,,,,,,10,11,68,,,
16307,control_change,15,0,7,,,,,,,,,11,11,68,,,
16320,set_tempo,240,1,0,,,,,,272727,,,,,,,,
16320,control_change,15,0,6,,,,,,,,,10,11,68,,,
16320,note_on,0,0,6,,,,,,,,,10,,,,79,90
16322,note_on,0,0,7,,,,,,,,,11,,,,67,88
16322,control_change,15,0,7,,,,,,,,,11,11,68,,,
16323,note_on,0,0,1,,,,,,,,,0,,,,84,110
16323,control_change,240,0,1,,,,,,,,,0,11,68,,,
16326,note_on,0,0,8,,,,,,,,,12,,,,60,108
16326,note_on,21,0,8,,,,,,,,,12,,,,55,108
16341,control_change,18,0,1,,,,,,,,,0,11,68,,,
16344,control_change,24,0,6,,,,,,,,,10,11,67,,,
16346,control_change,24,0,7,,,,,,,,,11,11,67,,,
16359,control_change,18,0,1,,,,,,,,,0,11,67,,,
16365,note_on,0,0,8,,,,,,,,,12,,,,55,0
16365,note_on,39,0,8,,,,,,,,,12,,,,60,0
16368,control_change,24,0,6,,,,,,,,,10,11,66,,,
16370,control_change,24,0,7,,,,,,,,,11,11,66,,,
16377,control_change,18,0,1,,,,,,,,,0,11,66,,,
16386,note_on,21,0,8,,,,,,,,,12,,,,55,99
16386,note_on,0,0,8,,,,,,,,,12,,,,60,99
16392,control_change,24,0,6,,,,,,,,,10,11,64,,,
16394,control_change,24,0,7,,,,,,,,,11,11,64,,,
16395,control_change,18,0,1,,,,,,,,,0,11,66,,,
16413,control_change,18,0,1,,,,,,,,,0,11,65,,,
16416,control_change,24,0,6,,,,,,,,,10,11,63,,,
16418,control_change,24,0,7,,,,,,,,,11,11,63,,,
16425,note_on,39,0,8,,,,,,,,,12,,,,60,0
16425,note_on,0,0,8,,,,,,,,,12,,,,55,0
16431,control_change,18,0,1,,,,,,,,,0,11,64,,,
16440,control_change,24,0,6,,,,,,,,,10,11,68,,,
16442,control_change,24,0,7,,,,,,,,,11,11,62,,,
16446,note_on,21,0,8,,,,,,,,,12,,,,60,108
16446,note_on,0,0,8,,,,,,,,,12,,,,55,108
16449,control_change,18,0,1,,,,,,,,,0,11,64,,,
16464,control_change,24,0,6,,,,,,,,,10,11,66,,,
16466,control_change,24,0,7,,,,,,,,,11,11,60,,,
16467,control_change,18,0,1,,,,,,,,,0,11,63,,,
16485,control_change,18,0,1,,,,,,,,,0,11,62,,,
16485,note_on,39,0,8,,,,,,,,,12,,,,55,0
16485,note_on,0,0,8,,,,,,,,,12,,,,60,0
16488,control_change,24,0,6,,,,,,,,,10,11,63,,,
16490,control_change,24,0,7,,,,,,,,,11,11,58,,,
16503,control_change,18,0,1,,,,,,,,,0,11,62,,,
16506,note_on,21,0,8,,,,,,,,,12,,,,55,99
16506,note_on,0,0,8,,,,,,,,,12,,,,60,99
16512,control_change,24,0,6,,,,,,,,,10,11,60,,,
16514,control_change,24,0,7,,,,,,,,,11,11,55,,,
16521,control_change,18,0,1,,,,,,,,,0,11,61,,,
16536,control_change,24,0,6,,,,,,,,,10,11,55,,,
16538,control_change,24,0,7,,,,,,,,,11,11,52,,,
16539,control_change,18,0,1,,,,,,,,,0,11,60,,,
16545,note_on,0,0,8,,,,,,,,,12,,,,55,0
16545,note_on,39,0,8,,,,,,,,,12,,,,60,0
16548,control_change,12,0,6,,,,,,,,,10,11,52,,,
16557,control_change,18,0,1,,,,,,,,,0,11,59,,,
16560,set_tempo,240,1,0,,,,,,261438,,,,,,,,
16560,note_on,12,0,6,,,,,,,,,10,,,,79,0
16560,control_change,0,0,6,,,,,,,,,10,11,49,,,
16560,note_on,0,0,6,,,,,,,,,10,,,,78,90
16562,note_on,0,0,7,,,,,,,,,11,,,,66,88
16562,control_change,0,0,7,,,,,,,,,11,11,49,,,
16562,note_on,24,0,7,,,,,,,,,11,,,,67,0
16565,control_change,0,0,2,,,,,,,,,1,11,62,,,
16565,note_on,0,0,2,,,,,,,,,1,,,,69,97
16565,note_on,720,0,2,,,,,,,,,1,,,,67,0
16566,note_on,21,0,8,,,,,,,,,12,,,,60,108
16566,note_on,0,0,8,,,,,,,,,12,,,,57,108
16571,control_change,720,0,3,,,,,,,,,3,11,62,,,
16575,control_change,18,0,1,,,,,,,,,0,11,58,,,
16589,control_change,24,0,2,,,,,,,,,1,11,61,,,
16593,control_change,18,0,1,,,,,,,,,0,11,57,,,
16595,control_change,24,0,3,,,,,,,,,3,11,61,,,
16605,note_on,0,0,8,,,,,,,,,12,,,,60,0
16605,note_on,39,0,8,,,,,,,,,12,,,,57,0
16611,control_change,18,0,1,,,,,,,,,0,11,56,,,
16613,control_change,24,0,2,,,,,,,,,1,11,60,,,
16619,control_change,24,0,3,,,,,,,,,3,11,60,,,
16626,note_on,0,0,8,,,,,,,,,12,,,,57,99
16626,note_on,21,0,8,,,,,,,,,12,,,,60,99
16629,control_change,18,0,1,,,,,,,,,0,11,55,,,
16637,control_change,24,0,2,,,,,,,,,1,11,59,,,
16643,control_change,24,0,3,,,,,,,,,3,11,59,,,
16647,control_change,18,0,1,,,,,,,,,0,11,54,,,
16661,control_change,24,0,2,,,,,,,,,1,11,58,,,
16665,note_on,39,0,8,,,,,,,,,12,,,,57,0
16665,control_change,18,0,1,,,,,,,,,0,11,53,,,
16665,note_on,0,0,8,,,,,,,,,12,,,,60,0
16667,control_change,24,0,3,,,,,,,,,3,11,58,,,
16683,note_on,18,0,1,,,,,,,,,0,,,,84,0
16683,control_change,0,0,1,,,,,,,,,0,11,52,,,
16683,note_on,0,0,1,,,,,,,,,0,,,,82,110
16685,control_change,24,0,2,,,,,,,,,1,11,57,,,
16686,note_on,21,0,8,,,,,,,,,12,,,,57,108
16686,note_on,0,0,8,,,,,,,,,12,,,,60,108
16691,control_change,24,0,3,,,,,,,,,3,11,57,,,
16709,control_change,24,0,2,,,,,,,,,1,11,56,,,
16715,control_change,24,0,3,,,,,,,,,3,11,56,,,
16725,note_on,0,0,8,,,,,,,,,12,,,,57,0
16725,note_on,39,0,8,,,,,,,,,12,,,,60,0
16733,control_change,24,0,2,,,,,,,,,1,11,55,,,
16739,control_change,24,0,3,,,,,,,,,3,11,55,,,
16743,note_on,60,0,1,,,,,,,,,0,,,,82,0
16743,note_on,0,0,1,,,,,,,,,0,,,,81,110
16746,note_on,21,0,8,,,,,,,,,12,,,,60,99
16746,note_on,0,0,8,,,,,,,,,12,,,,57,99
16757,control_change,24,0,2,,,,,,,,,1,11,54,,,
16763,control_change,24,0,3,,,,,,,,,3,11,54,,,
16781,control_change,24,0,2,,,,,,,,,1,11,53,,,
16785,note_on,39,0,8,,,,,,,,,12,,,,57,0
16785,note_on,0,0,8,,,,,,,,,12,,,,60,0
16787,control_change,24,0,3,,,,,,,,,3,11,53,,,
16795,note_on,235,0,6,,,,,,,,,10,,,,78,0
16797,note_on,235,0,7,,,,,,,,,11,,,,66,0
16798,note_on,55,0,1,,,,,,,,,0,,,,81,0
16800,note_on,5,0,6,,,,,,,,,10,,,,77,90
16800,set_tempo,240,1,0,,,,,,272727,,,,,,,,
16802,note_on,5,0,7,,,,,,,,,11,,,,65,88
16803,note_on,5,0,1,,,,,,,,,0,,,,82,110
16805,note_on,0,0,2,,,,,,,,,1,,,,72,0
16805,note_on,24,0,2,,,,,,,,,1,,,,69,0
16805,note_on,0,0,2,,,,,,,,,1,,,,70,97
16805,note_on,0,0,2,,,,,,,,,1,,,,77,97
16805,control_change,0,0,2,,,,,,,,,1,11,52,,,
16806,note_on,21,0,8,,,,,,,,,12,,,,58,108
16810,note_on,0,0,9,,,,,,,,,13,,,,50,99
16810,note_on,960,0,9,,,,,,,,,13,,,,51,0
16811,note_on,24,0,3,,,,,,,,,3,,,,51,0
16811,control_change,0,0,3,,,,,,,,,3,11,52,,,
16811,note_on,0,0,3,,,,,,,,,3,,,,50,97
16812,note_on,0,0,10,,,,,,,,,14,,,,38,93
16812,note_on,960,0,10,,,,,,,,,14,,,,39,0
16845,note_on,39,0,8,,,,,,,,,12,,,,58,0
16866,note_on,21,0,8,,,,,,,,,12,,,,58,99
16905,note_on,39,0,8,,,,,,,,,12,,,,58,0
16926,note_on,21,0,8,,,,,,,,,12,,,,58,108
16965,note_on,39,0,8,,,,,,,,,12,,,,58,0
16986,note_on,21,0,8,,,,,,,,,12,,,,58,99
17025,note_on,39,0,8,,,,,,,,,12,,,,58,0
17040,set_tempo,240,1,0,,,,,,261438,,,,,,,,
17042,note_on,240,0,7,,,,,,,,,11,,,,65,0
17042,note_on,0,0,7,,,,,,,,,11,,,,69,88
17043,note_on,240,0,1,,,,,,,,,0,,,,82,0
17043,note_on,0,0,1,,,,,,,,,0,,,,81,110
17045,note_on,240,0,2,,,,,,,,,1,,,,70,0
17045,note_on,0,0,2,,,,,,,,,1,,,,69,97
17046,note_on,21,0,8,,,,,,,,,12,,,,65,108
17050,note_on,240,0,9,,,,,,,,,13,,,,50,0
17050,note_on,0,0,9,,,,,,,,,13,,,,51,99
17051,note_on,0,0,3,,,,,,,,,3,,,,51,97
17051,note_on,240,0,3,,,,,,,,,3,,,,50,0
17052,note_on,240,0,10,,,,,,,,,14,,,,38,0
17052,note_on,0,0,10,,,,,,,,,14,,,,39,93
17100,note_on,0,0,6,,,,,,,,,10,,,,75,90
17100,note_on,300,0,6,,,,,,,,,10,,,,77,0
17102,note_on,0,0,7,,,,,,,,,11,,,,67,88
17102,note_on,60,0,7,,,,,,,,,11,,,,69,0
17103,note_on,60,0,1,,,,,,,,,0,,,,81,0
17103,note_on,0,0,1,,,,,,,,,0,,,,79,110
17105,note_on,0,0,2,,,,,,,,,1,,,,67,97
17105,note_on,0,0,2,,,,,,,,,1,,,,75,97
17105,note_on,0,0,2,,,,,,,,,1,,,,77,0
17105,note_on,60,0,2,,,,,,,,,1,,,,69,0
17106,note_on,60,0,8,,,,,,,,,12,,,,65,0
17106,note_on,0,0,8,,,,,,,,,12,,,,63,108
17160,note_on,60,0,6,,,,,,,,,10,,,,75,0
17160,note_on,0,0,6,,,,,,,,,10,,,,74,90
17162,note_on,60,0,7,,,,,,,,,11,,,,67,0
17162,note_on,0,0,7,,,,,,,,,11,,,,65,88
17163,note_on,0,0,1,,,,,,,,,0,,,,77,110
17163,note_on,60,0,1,,,,,,,,,0,,,,79,0
17165,note_on,60,0,2,,,,,,,,,1,,,,67,0
17165,note_on,0,0,2,,,,,,,,,1,,,,75,0
17165,note_on,0,0,2,,,,,,,,,1,,,,65,97
17165,note_on,0,0,2,,,,,,,,,1,,,,74,97
17166,note_on,60,0,8,,,,,,,,,12,,,,63,0
17166,note_on,0,0,8,,,,,,,,,12,,,,62,108
17220,note_on,0,0,6,,,,,,,,,10,,,,72,90
17220,note_on,60,0,6,,,,,,,,,10,,,,74,0
17222,note_on,60,0,7,,,,,,,,,11,,,,65,0
17222,note_on,0,0,7,,,,,,,,,11,,,,63,88
17223,note_on,0,0,1,,,,,,,,,0,,,,75,110
17223,note_on,60,0,1,,,,,,,,,0,,,,77,0
17225,note_on,0,0,2,,,,,,,,,1,,,,72,97
17225,note_on,0,0,2,,,,,,,,,1,,,,65,0
17225,note_on,60,0,2,,,,,,,,,1,,,,74,0
17225,note_on,0,0,2,,,,,,,,,1,,,,63,97
17226,note_on,0,0,8,,,,,,,,,12,,,,60,108
17226,note_on,60,0,8,,,,,,,,,12,,,,62,0
17259,note_on,39,0,6,,,,,,,,,10,,,,72,0
17261,note_on,39,0,7,,,,,,,,,11,,,,63,0
17265,note_on,39,0,8,,,,,,,,,12,,,,60,0
17278,note_on,55,0,1,,,,,,,,,0,,,,75,0
17280,note_on,21,0,6,,,,,,,,,10,,,,70,90
17280,set_tempo,240,1,0,,,,,,272727,,,,,,,,
17280,note_on,55,0,2,,,,,,,,,1,,,,63,0
17280,note_on,0,0,2,,,,,,,,,1,,,,72,0
17282,note_on,21,0,7,,,,,,,,,11,,,,62,88
17283,note_on,5,0,1,,,,,,,,,0,,,,74,110
17285,note_on,0,0,2,,,,,,,,,1,,,,70,97
17285,note_on,5,0,2,,,,,,,,,1,,,,62,97
17286,note_on,21,0,8,,,,,,,,,12,,,,58,108
17290,note_on,240,0,9,,,,,,,,,13,,,,51,0
17290,note_on,0,0,9,,,,,,,,,13,,,,53,99
17291,note_on,0,0,3,,,,,,,,,3,,,,53,97
17291,note_on,240,0,3,,,,,,,,,3,,,,51,0
17292,note_on,0,0,10,,,,,,,,,14,,,,41,93
17292,note_on,240,0,10,,,,,,,,,14,,,,39,0
17325,note_on,39,0,8,,,,,,,,,12,,,,58,0
17346,note_on,21,0,8,,,,,,,,,12,,,,65,90
17385,note_on,39,0,8,,,,,,,,,12,,,,65,0
17406,note_on,21,0,8,,,,,,,,,12,,,,65,108
17445,note_on,39,0,8,,,,,,,,,12,,,,65,0
17466,note_on,21,0,8,,,,,,,,,12,,,,65,90
17505,note_on,39,0,8,,,,,,,,,12,,,,65,0
17520,note_on,240,0,6,,,,,,,,,10,,,,70,0
17520,set_tempo,240,1,0,,,,,,261438,,,,,,,,
17520,note_on,0,0,6,,,,,,,,,10,,,,69,79
17520,control_change,0,0,6,,,,,,,,,10,11,49,,,
17522,note_on,0,0,7,,,,,,,,,11,,,,60,77
17522,control_change,0,0,7,,,,,,,,,11,11,49,,,
17522,note_on,240,0,7,,,,,,,,,11,,,,62,0
17523,note_on,240,0,1,,,,,,,,,0,,,,74,0
17523,note_on,0,0,1,,,,,,,,,0,,,,72,110
17525,note_on,0,0,2,,,,,,,,,1,,,,60,97
17525,note_on,0,0,2,,,,,,,,,1,,,,69,97
17525,note_on,240,0,2,,,,,,,,,1,,,,70,0
17525,note_on,0,0,2,,,,,,,,,1,,,,62,0
17526,note_on,21,0,8,,,,,,,,,12,,,,65,108
17535,control_change,15,0,6,,,,,,,,,10,11,46,,,
17537,control_change,15,0,7,,,,,,,,,11,11,46,,,
17551,control_change,16,0,6,,,,,,,,,10,11,43,,,
17553,control_change,16,0,7,,,,,,,,,11,11,43,,,
17565,note_on,39,0,8,,,,,,,,,12,,,,65,0
17567,control_change,16,0,6,,,,,,,,,10,11,40,,,
17569,control_change,16,0,7,,,,,,,,,11,11,40,,,
17583,control_change,16,0,6,,,,,,,,,10,11,37,,,
17585,control_change,16,0,7,,,,,,,,,11,11,37,,,
17586,note_on,21,0,8,,,,,,,,,12,,,,65,90
17599,control_change,16,0,6,,,,,,,,,10,11,34,,,
17601,control_change,16,0,7,,,,,,,,,11,11,34,,,
17615,control_change,16,0,6,,,,,,,,,10,11,31,,,
17617,control_change,16,0,7,,,,,,,,,11,11,31,,,
17625,note_on,39,0,8,,,,,,,,,12,,,,65,0
17631,control_change,16,0,6,,,,,,,,,10,11,28,,,
17633,control_change,16,0,7,,,,,,,,,11,11,28,,,
17640,note_on,9,0,6,,,,,,,,,10,,,,69,0
17642,note_on,9,0,7,,,,,,,,,11,,,,60,0
17643,note_on,120,0,1,,,,,,,,,0,,,,72,0
17645,note_on,0,0,2,,,,,,,,,1,,,,69,0
17645,note_on,120,0,2,,,,,,,,,1,,,,60,0
17646,note_on,21,0,8,,,,,,,,,12,,,,65,108
17685,note_on,39,0,8,,,,,,,,,12,,,,65,0
17706,note_on,21,0,8,,,,,,,,,12,,,,65,90
17745,note_on,39,0,8,,,,,,,,,12,,,,65,0
17760,set_tempo,240,1,0,,,,,,272727,,,,,,,,
17760,control_change,120,0,6,,,,,,,,,10,11,57,,,
17760,note_on,0,0,6,,,,,,,,,10,,,,72,90
17762,control_change,0,0,7,,,,,,,,,11,11,49,,,
17762,control_change,120,0,7,,,,,,,,,11,11,57,,,
17762,note_on,0,0,7,,,,,,,,,11,,,,60,88
17765,note_on,0,0,2,,,,,,,,,1,,,,69,97
17765,note_on,0,0,2,,,,,,,,,1,,,,72,97
17765,control_change,120,0,2,,,,,,,,,1,11,52,,,
17766,note_on,21,0,8,,,,,,,,,12,,,,57,108
17769,control_change,7,0,7,,,,,,,,,11,11,56,,,
17770,note_on,0,0,9,,,,,,,,,13,,,,51,99
17770,note_on,480,0,9,,,,,,,,,13,,,,53,0
17771,control_change,0,0,3,,,,,,,,,3,11,52,,,
17771,note_on,480,0,3,,,,,,,,,3,,,,53,0
17771,note_on,0,0,3,,,,,,,,,3,,,,51,97
17772,note_on,0,0,10,,,,,,,,,14,,,,39,93
17772,note_on,480,0,10,,,,,,,,,14,,,,41,0
17782,control_change,22,0,6,,,,,,,,,10,11,54,,,
17784,control_change,15,0,7,,,,,,,,,11,11,54,,,
17804,control_change,22,0,6,,,,,,,,,10,11,51,,,
17805,note_on,39,0,8,,,,,,,,,12,,,,57,0
17806,control_change,22,0,7,,,,,,,,,11,11,51,,,
17813,control_change,48,0,2,,,,,,,,,1,11,53,,,
17819,control_change,48,0,3,,,,,,,,,3,11,53,,,
17819,control_change,15,0,6,,,,,,,,,10,11,49,,,
17821,control_change,15,0,7,,,,,,,,,11,11,49,,,
17826,note_on,21,0,8,,,,,,,,,12,,,,57,99
17861,control_change,48,0,2,,,,,,,,,1,11,54,,,
17865,note_on,39,0,8,,,,,,,,,12,,,,57,0
17867,control_change,48,0,3,,,,,,,,,3,11,54,,,
17886,note_on,21,0,8,,,,,,,,,12,,,,57,108
17909,control_change,48,0,2,,,,,,,,,1,11,55,,,
17915,control_change,48,0,3,,,,,,,,,3,11,55,,,
17925,note_on,39,0,8,,,,,,,,,12,,,,57,0
17940,note_on,0,0,6,,,,,,,,,10,,,,75,90
17940,control_change,0,0,6,,,,,,,,,10,11,49,,,
17940,note_on,121,0,6,,,,,,,,,10,,,,72,0
17942,note_on,121,0,7,,,,,,,,,11,,,,60,0
17942,control_change,0,0,7,,,,,,,,,11,11,49,,,
17942,note_on,0,0,7,,,,,,,,,11,,,,63,88
17946,note_on,21,0,8,,,,,,,,,12,,,,57,99
17955,control_change,15,0,6,,,,,,,,,10,11,52,,,
17957,control_change,15,0,7,,,,,,,,,11,11,51,,,
17957,control_change,48,0,2,,,,,,,,,1,11,56,,,
17963,control_change,48,0,3,,,,,,,,,3,11,56,,,
17970,control_change,15,0,6,,,,,,,,,10,11,55,,,
17972,control_change,15,0,7,,,,,,,,,11,11,52,,,
17979,note_on,9,0,6,,,,,,,,,10,,,,75,0
17981,note_on,9,0,7,,,,,,,,,11,,,,63,0
17985,note_on,39,0,8,,,,,,,,,12,,,,57,0
17985,control_change,6,0,6,,,,,,,,,10,11,58,,,
17987,control_change,6,0,7,,,,,,,,,11,11,54,,,
18000,set_tempo,240,1,0,,,,,,261438,,,,,,,,
18000,note_on,0,0,6,,,,,,,,,10,,,,79,90
18000,control_change,15,0,6,,,,,,,,,10,11,60,,,
18002,note_on,0,0,7,,,,,,,,,11,,,,67,88
18002,control_change,15,0,7,,,,,,,,,11,11,55,,,
18005,control_change,48,0,2,,,,,,,,,1,11,57,,,
18006,note_on,21,0,8,,,,,,,,,12,,,,57,108
18011,control_change,48,0,3,,,,,,,,,3,11,57,,,
18015,control_change,15,0,6,,,,,,,,,10,11,62,,,
18017,control_change,15,0,7,,,,,,,,,11,11,57,,,
18030,control_change,15,0,6,,,,,,,,,10,11,63,,,
18032,control_change,15,0,7,,,,,,,,,11,11,58,,,
18045,note_on,39,0,8,,,,,,,,,12,,,,57,0
18045,control_change,15,0,6,,,,,,,,,10,11,64,,,
18047,control_change,15,0,7,,,,,,,,,11,11,59,,,
18053,control_change,48,0,2,,,,,,,,,1,11,58,,,
18059,control_change,48,0,3,,,,,,,,,3,11,58,,,
18060,note_on,15,0,6,,,,,,,,,10,,,,79,0
18060,control_change,0,0,6,,,,,,,,,10,11,66,,,
18062,control_change,0,0,7,,,,,,,,,11,11,60,,,
18062,note_on,15,0,7,,,,,,,,,11,,,,67,0
18066,note_on,21,0,8,,,,,,,,,12,,,,57,99
18075,control_change,15,0,6,,,,,,,,,10,11,67,,,
18077,control_change,15,0,7,,,,,,,,,11,11,61,,,
18090,control_change,15,0,6,,,,,,,,,10,11,68,,,
18092,control_change,15,0,7,,,,,,,,,11,11,62,,,
18101,control_change,48,0,2,,,,,,,,,1,11,59,,,
18105,note_on,39,0,8,,,,,,,,,12,,,,57,0
18105,control_change,15,0,6,,,,,,,,,10,11,62,,,
18107,control_change,48,0,3,,,,,,,,,3,11,59,,,
18107,control_change,15,0,7,,,,,,,,,11,11,62,,,
18120,note_on,0,0,6,,,,,,,,,10,,,,79,90
18120,control_change,15,0,6,,,,,,,,,10,11,63,,,
18122,control_change,15,0,7,,,,,,,,,11,11,63,,,
18122,note_on,0,0,7,,,,,,,,,11,,,,67,88
18126,note_on,21,0,8,,,,,,,,,12,,,,57,108
18135,control_change,15,0,6,,,,,,,,,10,11,64,,,
18137,control_change,15,0,7,,,,,,,,,11,11,64,,,
18149,control_change,48,0,2,,,,,,,,,1,11,60,,,
18150,control_change,15,0,6,,,,,,,,,10,11,64,,,
18152,control_change,15,0,7,,,,,,,,,11,11,64,,,
18155,control_change,48,0,3,,,,,,,,,3,11,60,,,
18165,note_on,39,0,8,,,,,,,,,12,,,,57,0
18165,control_change,15,0,6,,,,,,,,,10,11,65,,,
18167,control_change,15,0,7,,,,,,,,,11,11,65,,,
18180,note_on,15,0,6,,,,,,,,,10,,,,79,0
18180,control_change,0,0,6,,,,,,,,,10,11,66,,,
18182,note_on,15,0,7,,,,,,,,,11,,,,67,0
18182,control_change,0,0,7,,,,,,,,,11,11,66,,,
18186,note_on,21,0,8,,,,,,,,,12,,,,57,99
18195,control_change,15,0,6,,,,,,,,,10,11,66,,,
18197,control_change,15,0,7,,,,,,,,,11,11,66,,,
18197,control_change,48,0,2,,,,,,,,,1,11,61,,,
18203,control_change,48,0,3,,,,,,,,,3,11,61,,,
18210,control_change,15,0,6,,,,,,,,,10,11,67,,,
18212,control_change,15,0,7,,,,,,,,,11,11,67,,,
18225,control_change,15,0,6,,,,,,,,,10,11,68,,,
18225,note_on,39,0,8,,,,,,,,,12,,,,57,0
18227,control_change,15,0,7,,,,,,,,,11,11,68,,,
18240,set_tempo,240,1,0,,,,,,272727,,,,,,,,
18240,control_change,15,0,6,,,,,,,,,10,11,68,,,
18240,note_on,0,0,6,,,,,,,,,10,,,,79,90
18242,note_on,0,0,7,,,,,,,,,11,,,,67,88
18242,control_change,15,0,7,,,,,,,,,11,11,68,,,
18243,note_on,0,0,1,,,,,,,,,0,,,,84,97
18243,control_change,600,0,1,,,,,,,,,0,11,68,,,
18245,control_change,48,0,2,,,,,,,,,1,11,62,,,
18246,note_on,21,0,8,,,,,,,,,12,,,,57,108
18251,control_change,48,0,3,,,,,,,,,3,11,62,,,
18261,control_change,18,0,1,,,,,,,,,0,11,68,,,
18264,control_change,24,0,6,,,,,,,,,10,11,67,,,
18266,control_change,24,0,7,,,,,,,,,11,11,67,,,
18279,control_change,18,0,1,,,,,,,,,0,11,67,,,
18285,note_on,39,0,8,,,,,,,,,12,,,,57,0
18288,control_change,24,0,6,,,,,,,,,10,11,66,,,
18290,control_change,24,0,7,,,,,,,,,11,11,66,,,
18293,control_change,48,0,2,,,,,,,,,1,11,61,,,
18297,control_change,18,0,1,,,,,,,,,0,11,66,,,
18299,control_change,48,0,3,,,,,,,,,3,11,61,,,
18306,note_on,21,0,8,,,,,,,,,12,,,,57,99
18312,control_change,24,0,6,,,,,,,,,10,11,64,,,
18314,control_change,24,0,7,,,,,,,,,11,11,64,,,
18315,control_change,18,0,1,,,,,,,,,0,11,66,,,
18333,control_change,18,0,1,,,,,,,,,0,11,65,,,
18336,control_change,24,0,6,,,,,,,,,10,11,63,,,
18338,control_change,24,0,7,,,,,,,,,11,11,63,,,
18341,control_change,48,0,2,,,,,,,,,1,11,60,,,
18345,note_on,39,0,8,,,,,,,,,12,,,,57,0
18347,control_change,48,0,3,,,,,,,,,3,11,60,,,
18351,control_change,18,0,1,,,,,,,,,0,11,64,,,
18360,control_change,24,0,6,,,,,,,,,10,11,68,,,
18362,control_change,24,0,7,,,,,,,,,11,11,62,,,
18366,note_on,21,0,8,,,,,,,,,12,,,,57,108
18369,control_change,18,0,1,,,,,,,,,0,11,64,,,
18384,control_change,24,0,6,,,,,,,,,10,11,66,,,
18386,control_change,24,0,7,,,,,,,,,11,11,60,,,
18387,control_change,18,0,1,,,,,,,,,0,11,63,,,
18389,control_change,48,0,2,,,,,,,,,1,11,59,,,
18395,control_change,48,0,3,,,,,,,,,3,11,59,,,
18405,control_change,18,0,1,,,,,,,,,0,11,62,,,
18405,note_on,39,0,8,,,,,,,,,12,,,,57,0
18408,control_change,24,0,6,,,,,,,,,10,11,63,,,
18410,control_change,24,0,7,,,,,,,,,11,11,58,,,
18423,control_change,18,0,1,,,,,,,,,0,11,62,,,
18426,note_on,21,0,8,,,,,,,,,12,,,,57,99
18432,control_change,24,0,6,,,,,,,,,10,11,60,,,
18434,control_change,24,0,7,,,,,,,,,11,11,55,,,
18437,control_change,48,0,2,,,,,,,,,1,11,58,,,
18441,control_change,18,0,1,,,,,,,,,0,11,61,,,
18443,control_change,48,0,3,,,,,,,,,3,11,58,,,
18456,control_change,24,0,6,,,,,,,,,10,11,55,,,
18458,control_change,24,0,7,,,,,,,,,11,11,52,,,
18459,control_change,18,0,1,,,,,,,,,0,11,60,,,
18465,note_on,39,0,8,,,,,,,,,12,,,,57,0
18468,control_change,12,0,6,,,,,,,,,10,11,52,,,
18477,control_change,18,0,1,,,,,,,,,0,11,59,,,
18480,control_change,0,0,6,,,,,,,,,10,11,49,,,
18480,note_on,0,0,6,,,,,,,,,10,,,,78,90
18480,set_tempo,240,1,0,,,,,,261438,,,,,,,,
18480,note_on,12,0,6,,,,,,,,,10,,,,79,0
18482,note_on,24,0,7,,,,,,,,,11,,,,67,0
18482,control_change,0,0,7,,,,,,,,,11,11,49,,,
18482,note_on,0,0,7,,,,,,,,,11,,,,66,88
18485,control_change,48,0,2,,,,,,,,,1,11,57,,,
18486,note_on,21,0,8,,,,,,,,,12,,,,57,108
18491,control_change,48,0,3,,,,,,,,,3,11,57,,,
18495,control_change,18,0,1,,,,,,,,,0,11,58,,,
18513,control_change,18,0,1,,,,,,,,,0,11,57,,,
18525,note_on,39,0,8,,,,,,,,,12,,,,57,0
18531,control_change,18,0,1,,,,,,,,,0,11,56,,,
18533,control_change,48,0,2,,,,,,,,,1,11,56,,,
18539,control_change,48,0,3,,,,,,,,,3,11,56,,,
18546,note_on,21,0,8,,,,,,,,,12,,,,57,99
18549,control_change,18,0,1,,,,,,,,,0,11,55,,,
18567,control_change,18,0,1,,,,,,,,,0,11,54,,,
18581,control_change,48,0,2,,,,,,,,,1,11,55,,,
18585,note_on,39,0,8,,,,,,,,,12,,,,57,0
18585,control_change,18,0,1,,,,,,,,,0,11,53,,,
18587,control_change,48,0,3,,,,,,,,,3,11,55,,,
18603,control_change,0,0,1,,,,,,,,,0,11,52,,,
18603,note_on,18,0,1,,,,,,,,,0,,,,84,0
18603,note_on,0,0,1,,,,,,,,,0,,,,82,97
18606,note_on,21,0,8,,,,,,,,,12,,,,57,108
18629,control_change,48,0,2,,,,,,,,,1,11,54,,,
18635,control_change,48,0,3,,,,,,,,,3,11,54,,,
18645,note_on,39,0,8,,,,,,,,,12,,,,57,0
18663,note_on,60,0,1,,,,,,,,,0,,,,82,0
18663,note_on,0,0,1,,,,,,,,,0,,,,81,97
18666,note_on,21,0,8,,,,,,,,,12,,,,57,99
18677,control_change,48,0,2,,,,,,,,,1,11,53,,,
18683,control_change,48,0,3,,,,,,,,,3,11,53,,,
18705,note_on,39,0,8,,,,,,,,,12,,,,57,0
18715,note_on,235,0,6,,,,,,,,,10,,,,78,0
18717,note_on,235,0,7,,,,,,,,,11,,,,66,0
18718,note_on,55,0,1,,,,,,,,,0,,,,81,0
18720,note_on,5,0,6,,,,,,,,,10,,,,77,90
18720,set_tempo,240,1,0,,,,,,272727,,,,,,,,
18722,note_on,5,0,7,,,,,,,,,11,,,,65,88
18723,note_on,5,0,1,,,,,,,,,0,,,,82,97
18725,note_on,48,0,2,,,,,,,,,1,,,,69,0
18725,control_change,0,0,2,,,,,,,,,1,11,52,,,
18725,note_on,0,0,2,,,,,,,,,1,,,,77,97
18725,note_on,0,0,2,,,,,,,,,1,,,,70,97
18725,note_on,0,0,2,,,,,,,,,1,,,,72,0
18726,note_on,21,0,8,,,,,,,,,12,,,,58,108
18730,note_on,960,0,9,,,,,,,,,13,,,,51,0
18730,note_on,0,0,9,,,,,,,,,13,,,,50,99
18731,note_on,48,0,3,,,,,,,,,3,,,,51,0
18731,control_change,0,0,3,,,,,,,,,3,11,52,,,
18731,note_on,0,0,3,,,,,,,,,3,,,,50,97
18732,note_on,0,0,10,,,,,,,,,14,,,,38,93
18732,note_on,960,0,10,,,,,,,,,14,,,,39,0
18765,note_on,39,0,8,,,,,,,,,12,,,,58,0
18786,note_on,21,0,8,,,,,,,,,12,,,,58,99
18825,note_on,39,0,8,,,,,,,,,12,,,,58,0
18846,note_on,21,0,8,,,,,,,,,12,,,,58,108
18885,note_on,39,0,8,,,,,,,,,12,,,,58,0
18906,note_on,21,0,8,,,,,,,,,12,,,,58,99
18945,note_on,39,0,8,,,,,,,,,12,,,,58,0
18960,set_tempo,240,1,0,,,,,,261438,,,,,,,,
18962,note_on,240,0,7,,,,,,,,,11,,,,65,0
18962,note_on,0,0,7,,,,,,,,,11,,,,69,88
18963,note_on,0,0,1,,,,,,,,,0,,,,81,97
18963,note_on,240,0,1,,,,,,,,,0,,,,82,0
18965,note_on,240,0,2,,,,,,,,,1,,,,70,0
18965,note_on,0,0,2,,,,,,,,,1,,,,69,97
18966,note_on,21,0,8,,,,,,,,,12,,,,65,108
18970,note_on,0,0,9,,,,,,,,,13,,,,51,99
18970,note_on,240,0,9,,,,,,,,,13,,,,50,0
18971,note_on,240,0,3,,,,,,,,,3,,,,50,0
18971,note_on,0,0,3,,,,,,,,,3,,,,51,97
18972,note_on,0,0,10,,,,,,,,,14,,,,39,93
18972,note_on,240,0,10,,,,,,,,,14,,,,38,0
19020,note_on,0,0,6,,,,,,,,,10,,,,75,90
19020,note_on,300,0,6,,,,,,,,,10,,,,77,0
19022,note_on,60,0,7,,,,,,,,,11,,,,69,0
19022,note_on,0,0,7,,,,,,,,,11,,,,67,88
19023,note_on,60,0,1,,,,,,,,,0,,,,81,0
19023,note_on,0,0,1,,,,,,,,,0,,,,79,97
19025,note_on,60,0,2,,,,,,,,,1,,,,69,0
19025,note_on,0,0,2,,,,,,,,,1,,,,77,0
19025,note_on,0,0,2,,,,,,,,,1,,,,67,97
19025,note_on,0,0,2,,,,,,,,,1,,,,75,97
19026,note_on,0,0,8,,,,,,,,,12,,,,63,108
19026,note_on,60,0,8,,,,,,,,,12,,,,65,0
19080,note_on,0,0,6,,,,,,,,,10,,,,74,90
19080,note_on,60,0,6,,,,,,,,,10,,,,75,0
19082,note_on,0,0,7,,,,,,,,,11,,,,65,88
19082,note_on,60,0,7,,,,,,,,,11,,,,67,0
19083,note_on,60,0,1,,,,,,,,,0,,,,79,0
19083,note_on,0,0,1,,,,,,,,,0,,,,77,97
19085,note_on,0,0,2,,,,,,,,,1,,,,75,0
19085,note_on,60,0,2,,,,,,,,,1,,,,67,0
19085,note_on,0,0,2,,,,,,,,,1,,,,65,97
19085,note_on,0,0,2,,,,,,,,,1,,,,74,97
19086,note_on,60,0,8,,,,,,,,,12,,,,63,0
19086,note_on,0,0,8,,,,,,,,,12,,,,62,108
19140,note_on,60,0,6,,,,,,,,,10,,,,74,0
19140,note_on,0,0,6,,,,,,,,,10,,,,72,90
19142,note_on,0,0,7,,,,,,,,,11,,,,63,88
19142,note_on,60,0,7,,,,,,,,,11,,,,65,0
19143,note_on,0,0,1,,,,,,,,,0,,,,75,97
19143,note_on,60,0,1,,,,,,,,,0,,,,77,0
19145,note_on,60,0,2,,,,,,,,,1,,,,74,0
19145,note_on,0,0,2,,,,,,,,,1,,,,65,0
19145,note_on,0,0,2,,,,,,,,,1,,,,72,97
19145,note_on,0,0,2,,,,,,,,,1,,,,63,97
19146,note_on,60,0,8,,,,,,,,,12,,,,62,0
19146,note_on,0,0,8,,,,,,,,,12,,,,60,108
19179,note_on,39,0,6,,,,,,,,,10,,,,72,0
19181,note_on,39,0,7,,,,,,,,,11,,,,63,0
19185,note_on,39,0,8,,,,,,,,,12,,,,60,0
19198,note_on,55,0,1,,,,,,,,,0,,,,75,0
19200,note_on,0,0,2,,,,,,,,,1,,,,72,0
19200,note_on,21,0,6,,,,,,,,,10,,,,70,90
19200,set_tempo,240,1,0,,,,,,272727,,,,,,,,
19200,note_on,55,0,2,,,,,,,,,1,,,,63,0
19202,note_on,21,0,7,,,,,,,,,11,,,,62,88
19203,note_on,5,0,1,,,,,,,,,0,,,,74,97
19205,note_on,5,0,2,,,,,,,,,1,,,,62,97
19205,note_on,0,0,2,,,,,,,,,1,,,,70,97
19206,note_on,21,0,8,,,,,,,,,12,,,,58,108
19210,note_on,0,0,9,,,,,,,,,13,,,,53,99
19210,note_on,240,0,9,,,,,,,,,13,,,,51,0
19211,note_on,240,0,3,,,,,,,,,3,,,,51,0
19211,note_on,0,0,3,,,,,,,,,3,,,,53,97
19212,note_on,0,0,10,,,,,,,,,14,,,,41,93
19212,note_on,240,0,10,,,,,,,,,14,,,,39,0
19440,note_on,0,0,6,,,,,,,,,10,,,,69,79
19440,control_change,0,0,6,,,,,,,,,10,11,49,,,
19440,note_on,240,0,6,,,,,,,,,10,,,,70,0
19440,set_tempo,240,1,0,,,,,,261438,,,,,,,,
19442,note_on,240,0,7,,,,,,,,,11,,,,62,0
19442,note_on,0,0,7,,,,,,,,,11,,,,60,77
19442,control_change,0,0,7,,,,,,,,,11,11,49,,,
19443,note_on,240,0,1,,,,,,,,,0,,,,74,0
19443,note_on,0,0,1,,,,,,,,,0,,,,72,84
19445,note_on,0,0,2,,,,,,,,,1,,,,60,84
19445,note_on,0,0,2,,,,,,,,,1,,,,69,84
19445,note_on,0,0,2,,,,,,,,,1,,,,62,0
19445,note_on,240,0,2,,,,,,,,,1,,,,70,0
19446,note_on,0,0,8,,,,,,,,,12,,,,57,95
19446,note_on,240,0,8,,,,,,,,,12,,,,58,0
19450,note_on,240,0,9,,,,,,,,,13,,,,53,0
19450,note_on,0,0,9,,,,,,,,,13,,,,41,86
19452,note_on,240,0,10,,,,,,,,,14,,,,41,0
19452,note_on,0,0,10,,,,,,,,,14,,,,29,80
19453,control_change,7,0,8,,,,,,,,,12,11,49,,,
19457,control_change,17,0,6,,,,,,,,,10,11,47,,,
19457,control_change,7,0,9,,,,,,,,,13,11,49,,,
19459,control_change,7,0,10,,,,,,,,,14,11,49,,,
19459,control_change,17,0,7,,,,,,,,,11,11,47,,,
19468,control_change,15,0,8,,,,,,,,,12,11,46,,,
19472,control_change,15,0,9,,,,,,,,,13,11,46,,,
19472,control_change,15,0,6,,,,,,,,,10,11,44,,,
19474,control_change,15,0,7,,,,,,,,,11,11,44,,,
19474,control_change,15,0,10,,,,,,,,,14,11,46,,,
19483,control_change,15,0,8,,,,,,,,,12,11,43,,,
19487,control_change,15,0,6,,,,,,,,,10,11,41,,,
19487,control_change,15,0,9,,,,,,,,,13,11,43,,,
19489,control_change,15,0,10,,,,,,,,,14,11,43,,,
19489,control_change,15,0,7,,,,,,,,,11,11,41,,,
19498,control_change,15,0,8,,,,,,,,,12,11,40,,,
19502,control_change,15,0,9,,,,,,,,,13,11,40,,,
19503,control_change,16,0,6,,,,,,,,,10,11,38,,,
19504,control_change,15,0,10,,,,,,,,,14,11,40,,,
19505,control_change,16,0,7,,,,,,,,,11,11,38,,,
19514,control_change,16,0,8,,,,,,,,,12,11,37,,,
19518,control_change,15,0,6,,,,,,,,,10,11,35,,,
19518,control_change,16,0,9,,,,,,,,,13,11,37,,,
19520,control_change,15,0,7,,,,,,,,,11,11,35,,,
19520,control_change,16,0,10,,,,,,,,,14,11,37,,,
19529,control_change,15,0,8,,,,,,,,,12,11,34,,,
19533,control_change,15,0,9,,,,,,,,,13,11,34,,,
19533,control_change,15,0,6,,,,,,,,,10,11,32,,,
19535,control_change,15,0,7,,,,,,,,,11,11,32,,,
19535,control_change,15,0,10,,,,,,,,,14,11,34,,,
19544,control_change,15,0,8,,,,,,,,,12,11,31,,,
19548,control_change,15,0,6,,,,,,,,,10,11,29,,,
19548,control_change,15,0,9,,,,,,,,,13,11,31,,,
19550,control_change,15,0,7,,,,,,,,,11,11,29,,,
19550,control_change,15,0,10,,,,,,,,,14,11,31,,,
19559,control_change,15,0,8,,,,,,,,,12,11,28,,,
19560,note_on,12,0,6,,,,,,,,,10,,,,69,0
19562,note_on,12,0,7,,,,,,,,,11,,,,60,0
19563,control_change,15,0,9,,,,,,,,,13,11,28,,,
19565,control_change,15,0,10,,,,,,,,,14,11,28,,,
19678,note_on,235,0,1,,,,,,,,,0,,,,72,0
19680,note_on,235,0,2,,,,,,,,,1,,,,60,0
19680,set_tempo,240,1,0,,,,,,272727,,,,,,,,
19680,note_on,0,0,6,,,,,,,,,10,,,,70,110
19680,control_change,120,0,6,,,,,,,,,10,11,65,,,
19680,note_on,0,0,2,,,,,,,,,1,,,,69,0
19682,note_on,0,0,7,,,,,,,,,11,,,,70,110
19682,note_on,0,0,7,,,,,,,,,11,,,,62,110
19682,control_change,120,0,7,,,,,,,,,11,11,65,,,
19683,control_change,5,0,1,,,,,,,,,0,11,79,,,
19683,note_on,0,0,1,,,,,,,,,0,,,,70,97
19684,note_on,0,0,4,,,,,,,,,4,,,,58,88
19684,control_change,7440,0,4,,,,,,,,,4,11,79,,,
19685,control_change,5,0,2,,,,,,,,,1,11,79,,,
19685,note_on,0,0,2,,,,,,,,,1,,,,70,97
19686,control_change,7440,0,5,,,,,,,,,5,11,79,,,
19686,note_on,0,0,5,,,,,,,,,5,,,,50,88
19686,note_on,127,0,8,,,,,,,,,12,,,,57,0
19686,note_on,0,0,8,,,,,,,,,12,,,,58,108
19686,control_change,0,0,8,,,,,,,,,12,11,65,,,
19690,note_on,127,0,9,,,,,,,,,13,,,,41,0
19690,control_change,0,0,9,,,,,,,,,13,11,65,,,
19690,note_on,0,0,9,,,,,,,,,13,,,,46,99
19691,note_on,480,0,3,,,,,,,,,3,,,,53,0
19691,control_change,0,0,3,,,,,,,,,3,11,79,,,
19691,note_on,0,0,3,,,,,,,,,3,,,,58,97
19691,note_on,0,0,3,,,,,,,,,3,,,,46,97
19692,control_change,0,0,10,,,,,,,,,14,11,65,,,
19692,note_on,0,0,10,,,,,,,,,14,,,,34,93
19692,note_on,127,0,10,,,,,,,,,14,,,,29,0
19698,control_change,18,0,6,,,,,,,,,10,11,69,,,
19700,control_change,18,0,7,,,,,,,,,11,11,69,,,
19704,control_change,18,0,8,,,,,,,,,12,11,69,,,
19708,control_change,18,0,9,,,,,,,,,13,11,69,,,
19710,control_change,18,0,10,,,,,,,,,14,11,69,,,
19716,control_change,18,0,6,,,,,,,,,10,11,73,,,
19718,control_change,18,0,7,,,,,,,,,11,11,73,,,
19721,note_on,3,0,7,,,,,,,,,11,,,,70,0
19721,note_on,0,0,7,,,,,,,,,11,,,,62,0
19722,control_change,18,0,8,,,,,,,,,12,11,73,,,
19725,note_on,3,0,8,,,,,,,,,12,,,,58,0
19726,control_change,18,0,9,,,,,,,,,13,11,73,,,
19728,control_change,18,0,10,,,,,,,,,14,11,73,,,
19729,note_on,3,0,9,,,,,,,,,13,,,,46,0
19731,note_on,3,0,10,,,,,,,,,14,,,,34,0
19734,control_change,18,0,6,,,,,,,,,10,11,77,,,
19736,control_change,15,0,7,,,,,,,,,11,11,77,,,
19740,control_change,15,0,8,,,,,,,,,12,11,77,,,
19742,note_on,0,0,7,,,,,,,,,11,,,,70,101
19742,note_on,6,0,7,,,,,,,,,11,,,,62,101
19744,control_change,15,0,9,,,,,,,,,13,11,77,,,
19746,note_on,6,0,8,,,,,,,,,12,,,,58,99
19746,control_change,15,0,10,,,,,,,,,14,11,77,,,
19750,note_on,6,0,9,,,,,,,,,13,,,,46,90
19752,note_on,6,0,10,,,,,,,,,14,,,,34,84
19781,note_on,0,0,7,,,,,,,,,11,,,,62,0
19781,note_on,39,0,7,,,,,,,,,11,,,,70,0
19785,note_on,39,0,8,,,,,,,,,12,,,,58,0
19789,note_on,39,0,9,,,,,,,,,13,,,,46,0
19791,note_on,39,0,10,,,,,,,,,14,,,,34,0
19802,note_on,0,0,7,,,,,,,,,11,,,,70,110
19802,note_on,21,0,7,,,,,,,,,11,,,,62,110
19806,note_on,21,0,8,,,,,,,,,12,,,,58,108
19810,note_on,21,0,9,,,,,,,,,13,,,,46,99
19812,note_on,21,0,10,,,,,,,,,14,,,,34,93
19841,note_on,39,0,7,,,,,,,,,11,,,,70,0
19841,note_on,0,0,7,,,,,,,,,11,,,,62,0
19845,note_on,39,0,8,,,,,,,,,12,,,,58,0
19849,note_on,39,0,9,,,,,,,,,13,,,,46,0
19851,note_on,39,0,10,,,,,,,,,14,,,,34,0
19855,note_on,121,0,6,,,,,,,,,10,,,,70,0
19858,note_on,175,0,1,,,,,,,,,0,,,,70,0
19860,note_on,5,0,6,,,,,,,,,10,,,,74,110
19860,note_on,175,0,2,,,,,,,,,1,,,,70,0
19862,note_on,0,0,7,,,,,,,,,11,,,,70,101
19862,note_on,21,0,7,,,,,,,,,11,,,,62,101
19863,note_on,5,0,1,,,,,,,,,0,,,,74,97
19865,note_on,5,0,2,,,,,,,,,1,,,,74,97
19866,note_on,21,0,8,,,,,,,,,12,,,,58,99
19870,note_on,21,0,9,,,,,,,,,13,,,,46,90
19872,note_on,21,0,10,,,,,,,,,14,,,,34,84
19899,note_on,39,0,6,,,,,,,,,10,,,,74,0
19901,note_on,39,0,7,,,,,,,,,11,,,,70,0
19901,note_on,0,0,7,,,,,,,,,11,,,,62,0
19905,note_on,39,0,8,,,,,,,,,12,,,,58,0
19909,note_on,39,0,9,,,,,,,,,13,,,,46,0
19911,note_on,39,0,10,,,,,,,,,14,,,,34,0
19918,note_on,55,0,1,,,,,,,,,0,,,,74,0
19920,set_tempo,240,1,0,,,,,,261438,,,,,,,,
19920,note_on,21,0,6,,,,,,,,,10,,,,77,110
19920,note_on,55,0,2,,,,,,,,,1,,,,74,0
19922,note_on,0,0,7,,,,,,,,,11,,,,70,110
19922,note_on,21,0,7,,,,,,,,,11,,,,62,110
19923,note_on,5,0,1,,,,,,,,,0,,,,77,97
19925,note_on,5,0,2,,,,,,,,,1,,,,77,97
19926,note_on,21,0,8,,,,,,,,,12,,,,58,108
19930,note_on,21,0,9,,,,,,,,,13,,,,46,99
19932,note_on,21,0,10,,,,,,,,,14,,,,34,93
19961,note_on,0,0,7,,,,,,,,,11,,,,62,0
19961,note_on,39,0,7,,,,,,,,,11,,,,70,0
19965,note_on,39,0,8,,,,,,,,,12,,,,58,0
19969,note_on,39,0,9,,,,,,,,,13,,,,46,0
19971,note_on,39,0,10,,,,,,,,,14,,,,34,0
19980,note_on,60,0,6,,,,,,,,,10,,,,77,0
19982,note_on,21,0,7,,,,,,,,,11,,,,62,101
19982,note_on,0,0,7,,,,,,,,,11,,,,70,101
19983,note_on,60,0,1,,,,,,,,,0,,,,77,0
19985,note_on,60,0,2,,,,,,,,,1,,,,77,0
19986,note_on,21,0,8,,,,,,,,,12,,,,58,99
19990,note_on,21,0,9,,,,,,,,,13,,,,46,90
19992,note_on,21,0,10,,,,,,,,,14,,,,34,84
20021,note_on,0,0,7,,,,,,,,,11,,,,62,0
20021,note_on,39,0,7,,,,,,,,,11,,,,70,0
20025,note_on,39,0,8,,,,,,,,,12,,,,58,0
20029,note_on,39,0,9,,,,,,,,,13,,,,46,0
20031,note_on,39,0,10,,,,,,,,,14,,,,34,0
20040,note_on,60,0,6,,,,,,,,,10,,,,81,110
20042,note_on,21,0,7,,,,,,,,,11,,,,69,110
20043,note_on,60,0,1,,,,,,,,,0,,,,81,97
20044,note_on,360,0,4,,,,,,,,,4,,,,58,0
20045,note_on,60,0,2,,,,,,,,,1,,,,69,97
20045,note_on,0,0,2,,,,,,,,,1,,,,73,97
20046,note_on,21,0,8,,,,,,,,,12,,,,61,108
20046,note_on,360,0,5,,,,,,,,,5,,,,50,0
20050,note_on,21,0,9,,,,,,,,,13,,,,46,99
20052,note_on,21,0,10,,,,,,,,,14,,,,34,93
20081,note_on,39,0,7,,,,,,,,,11,,,,69,0
20085,note_on,39,0,8,,,,,,,,,12,,,,61,0
20089,note_on,39,0,9,,,,,,,,,13,,,,46,0
20091,note_on,39,0,10,,,,,,,,,14,,,,34,0
20100,note_on,60,0,6,,,,,,,,,10,,,,81,0
20102,note_on,21,0,7,,,,,,,,,11,,,,69,101
20103,note_on,60,0,1,,,,,,,,,0,,,,81,0
20105,note_on,0,0,2,,,,,,,,,1,,,,69,0
20105,note_on,60,0,2,,,,,,,,,1,,,,73,0
20106,note_on,21,0,8,,,,,,,,,12,,,,61,99
20110,note_on,21,0,9,,,,,,,,,13,,,,46,90
20112,note_on,21,0,10,,,,,,,,,14,,,,34,84
20141,note_on,39,0,7,,,,,,,,,11,,,,69,0
20145,note_on,39,0,8,,,,,,,,,12,,,,61,0
20149,note_on,39,0,9,,,,,,,,,13,,,,46,0
20151,note_on,39,0,10,,,,,,,,,14,,,,34,0
20160,note_on,60,0,6,,,,,,,,,10,,,,82,110
20160,set_tempo,240,1,0,,,,,,272727,,,,,,,,
20162,note_on,21,0,7,,,,,,,,,11,,,,70,110
20163,note_on,60,0,1,,,,,,,,,0,,,,82,97
20165,note_on,60,0,2,,,,,,,,,1,,,,74,97
20165,note_on,0,0,2,,,,,,,,,1,,,,70,97
20166,note_on,21,0,8,,,,,,,,,12,,,,62,108
20170,note_on,21,0,9,,,,,,,,,13,,,,46,99
20172,note_on,21,0,10,,,,,,,,,14,,,,34,93
20201,note_on,39,0,7,,,,,,,,,11,,,,70,0
20205,note_on,39,0,8,,,,,,,,,12,,,,62,0
20209,note_on,39,0,9,,,,,,,,,13,,,,46,0
20211,note_on,39,0,10,,,,,,,,,14,,,,34,0
20220,note_on,60,0,6,,,,,,,,,10,,,,82,0
20222,note_on,21,0,7,,,,,,,,,11,,,,70,101
20223,note_on,60,0,1,,,,,,,,,0,,,,82,0
20225,note_on,0,0,2,,,,,,,,,1,,,,74,0
20225,note_on,60,0,2,,,,,,,,,1,,,,70,0
20226,note_on,21,0,8,,,,,,,,,12,,,,62,99
20230,note_on,21,0,9,,,,,,,,,13,,,,46,90
20232,note_on,21,0,10,,,,,,,,,14,,,,34,84
20261,note_on,39,0,7,,,,,,,,,11,,,,70,0
20265,note_on,39,0,8,,,,,,,,,12,,,,62,0
20269,note_on,39,0,9,,,,,,,,,13,,,,46,0
20271,note_on,39,0,10,,,,,,,,,14,,,,34,0
20280,note_on,60,0,6,,,,,,,,,10,,,,85,110
20282,note_on,21,0,7,,,,,,,,,11,,,,73,110
20283,note_on,60,0,1,,,,,,,,,0,,,,85,97
20285,note_on,0,0,2,,,,,,,,,1,,,,73,97
20285,note_on,60,0,2,,,,,,,,,1,,,,76,97
20286,note_on,21,0,8,,,,,,,,,12,,,,64,108
20290,note_on,21,0,9,,,,,,,,,13,,,,46,99
20292,note_on,21,0,10,,,,,,,,,14,,,,34,93
20321,note_on,39,0,7,,,,,,,,,11,,,,73,0
20325,note_on,39,0,8,,,,,,,,,12,,,,64,0
20329,note_on,39,0,9,,,,,,,,,13,,,,46,0
20331,note_on,39,0,10,,,,,,,,,14,,,,34,0
20340,note_on,60,0,6,,,,,,,,,10,,,,85,0
20342,note_on,21,0,7,,,,,,,,,11,,,,73,101
20343,note_on,60,0,1,,,,,,,,,0,,,,85,0
20345,note_on,0,0,2,,,,,,,,,1,,,,76,0
20345,note_on,60,0,2,,,,,,,,,1,,,,73,0
20346,note_on,21,0,8,,,,,,,,,12,,,,64,99
20350,note_on,21,0,9,,,,,,,,,13,,,,46,90
20352,note_on,21,0,10,,,,,,,,,14,,,,34,84
20381,note_on,39,0,7,,,,,,,,,11,,,,73,0
20385,note_on,39,0,8,,,,,,,,,12,,,,64,0
20389,note_on,39,0,9,,,,,,,,,13,,,,46,0
20391,note_on,39,0,10,,,,,,,,,14,,,,34,0
20400,note_on,60,0,6,,,,,,,,,10,,,,86,110
20400,set_tempo,240,1,0,,,,,,261438,,,,,,,,
20402,note_on,21,0,7,,,,,,,,,11,,,,74,110
20403,note_on,60,0,1,,,,,,,,,0,,,,86,97
20405,note_on,0,0,2,,,,,,,,,1,,,,77,97
20405,note_on,60,0,2,,,,,,,,,1,,,,74,97
20406,note_on,21,0,8,,,,,,,,,12,,,,65,108
20410,note_on,21,0,9,,,,,,,,,13,,,,46,99
20412,note_on,21,0,10,,,,,,,,,14,,,,34,93
20441,note_on,39,0,7,,,,,,,,,11,,,,74,0
20445,note_on,39,0,8,,,,,,,,,12,,,,65,0
20449,note_on,39,0,9,,,,,,,,,13,,,,46,0
20451,note_on,39,0,10,,,,,,,,,14,,,,34,0
20460,note_on,60,0,6,,,,,,,,,10,,,,86,0
20462,note_on,21,0,7,,,,,,,,,11,,,,74,101
20463,note_on,60,0,1,,,,,,,,,0,,,,86,0
20465,note_on,60,0,2,,,,,,,,,1,,,,77,0
20465,note_on,0,0,2,,,,,,,,,1,,,,74,0
20466,note_on,21,0,8,,,,,,,,,12,,,,65,99
20470,note_on,21,0,9,,,,,,,,,13,,,,46,90
20472,note_on,21,0,10,,,,,,,,,14,,,,34,84
20501,note_on,39,0,7,,,,,,,,,11,,,,74,0
20505,note_on,39,0,8,,,,,,,,,12,,,,65,0
20509,note_on,39,0,9,,,,,,,,,13,,,,46,0
20511,note_on,39,0,10,,,,,,,,,14,,,,34,0
20520,note_on,60,0,6,,,,,,,,,10,,,,88,110
20522,note_on,0,0,7,,,,,,,,,11,,,,73,110
20522,note_on,21,0,7,,,,,,,,,11,,,,76,110
20523,note_on,60,0,1,,,,,,,,,0,,,,88,97
20525,note_on,0,0,2,,,,,,,,,1,,,,76,97
20525,note_on,60,0,2,,,,,,,,,1,,,,73,97
20526,note_on,21,0,8,,,,,,,,,12,,,,70,108
20530,note_on,21,0,9,,,,,,,,,13,,,,46,99
20532,note_on,21,0,10,,,,,,,,,14,,,,34,93
20561,note_on,0,0,7,,,,,,,,,11,,,,76,0
20561,note_on,39,0,7,,,,,,,,,11,,,,73,0
20565,note_on,39,0,8,,,,,,,,,12,,,,70,0
20569,note_on,39,0,9,,,,,,,,,13,,,,46,0
20571,note_on,39,0,10,,,,,,,,,14,,,,34,0
20580,note_on,60,0,6,,,,,,,,,10,,,,88,0
20582,note_on,21,0,7,,,,,,,,,11,,,,76,101
20582,note_on,0,0,7,,,,,,,,,11,,,,73,101
20583,note_on,60,0,1,,,,,,,,,0,,,,88,0
20585,note_on,60,0,2,,,,,,,,,1,,,,76,0
20585,note_on,0,0,2,,,,,,,,,1,,,,73,0
20586,note_on,21,0,8,,,,,,,,,12,,,,70,99
20590,note_on,21,0,9,,,,,,,,,13,,,,46,90
20592,note_on,21,0,10,,,,,,,,,14,,,,34,84
20621,note_on,0,0,7,,,,,,,,,11,,,,76,0
20621,note_on,39,0,7,,,,,,,,,11,,,,73,0
20625,note_on,39,0,8,,,,,,,,,12,,,,70,0
20629,note_on,39,0,9,,,,,,,,,13,,,,46,0
20631,note_on,39,0,10,,,,,,,,,14,,,,34,0
20640,set_tempo,240,1,0,,,,,,272727,,,,,,,,
20640,note_on,60,0,6,,,,,,,,,10,,,,89,110
20642,note_on,21,0,7,,,,,,,,,11,,,,77,110
20642,note_on,0,0,7,,,,,,,,,11,,,,74,110
20643,note_on,60,0,1,,,,,,,,,0,,,,89,110
20644,note_on,600,0,4,,,,,,,,,4,,,,65,100
20645,note_on,0,0,2,,,,,,,,,1,,,,74,110
20645,note_on,60,0,2,,,,,,,,,1,,,,77,110
20646,note_on,21,0,8,,,,,,,,,12,,,,58,108
20646,note_on,600,0,5,,,,,,,,,5,,,,62,100
20650,note_on,21,0,9,,,,,,,,,13,,,,46,99
20651,note_on,960,0,3,,,,,,,,,3,,,,46,0
20651,note_on,0,0,3,,,,,,,,,3,,,,58,0
20651,note_on,0,0,3,,,,,,,,,3,,,,46,97
20652,note_on,21,0,10,,,,,,,,,14,,,,34,93
20679,note_on,39,0,6,,,,,,,,,10,,,,89,0
20681,note_on,0,0,7,,,,,,,,,11,,,,77,0
20681,note_on,39,0,7,,,,,,,,,11,,,,74,0
20700,note_on,21,0,6,,,,,,,,,10,,,,89,101
20702,note_on,0,0,7,,,,,,,,,11,,,,77,101
20702,note_on,21,0,7,,,,,,,,,11,,,,74,101
20739,note_on,39,0,6,,,,,,,,,10,,,,89,0
20741,note_on,0,0,7,,,,,,,,,11,,,,74,0
20741,note_on,39,0,7,,,,,,,,,11,,,,77,0
20760,note_on,21,0,6,,,,,,,,,10,,,,89,110
20762,note_on,0,0,7,,,,,,,,,11,,,,77,110
20762,note_on,21,0,7,,,,,,,,,11,,,,74,110
20799,note_on,39,0,6,,,,,,,,,10,,,,89,0
20801,note_on,39,0,7,,,,,,,,,11,,,,77,0
20801,note_on,0,0,7,,,,,,,,,11,,,,74,0
20820,note_on,21,0,6,,,,,,,,,10,,,,89,101
20821,note_on,175,0,8,,,,,,,,,12,,,,58,0
20822,note_on,0,0,7,,,,,,,,,11,,,,74,101
20822,note_on,21,0,7,,,,,,,,,11,,,,77,101
20825,note_on,175,0,9,,,,,,,,,13,,,,46,0
20826,note_on,175,0,3,,,,,,,,,3,,,,46,0
20826,note_on,5,0,8,,,,,,,,,12,,,,62,108
20827,note_on,175,0,10,,,,,,,,,14,,,,34,0
20830,note_on,5,0,9,,,,,,,,,13,,,,50,99
20831,note_on,5,0,3,,,,,,,,,3,,,,50,97
20832,note_on,5,0,10,,,,,,,,,14,,,,38,93
20859,note_on,39,0,6,,,,,,,,,10,,,,89,0
20861,note_on,39,0,7,,,,,,,,,11,,,,74,0
20861,note_on,0,0,7,,,,,,,,,11,,,,77,0
20865,note_on,39,0,8,,,,,,,,,12,,,,62,0
20869,note_on,39,0,9,,,,,,,,,13,,,,50,0
20871,note_on,39,0,10,,,,,,,,,14,,,,38,0
20880,note_on,21,0,6,,,,,,,,,10,,,,89,110
20880,set_tempo,240,1,0,,,,,,261438,,,,,,,,
20882,note_on,0,0,7,,,,,,,,,11,,,,74,110
20882,note_on,21,0,7,,,,,,,,,11,,,,77,110
20886,note_on,21,0,8,,,,,,,,,12,,,,65,108
20886,note_on,55,0,3,,,,,,,,,3,,,,50,0
20890,note_on,21,0,9,,,,,,,,,13,,,,53,99
20891,note_on,5,0,3,,,,,,,,,3,,,,53,97
20892,note_on,21,0,10,,,,,,,,,14,,,,41,93
20919,note_on,39,0,6,,,,,,,,,10,,,,89,0
20921,note_on,0,0,7,,,,,,,,,11,,,,77,0
20921,note_on,39,0,7,,,,,,,,,11,,,,74,0
20940,note_on,21,0,6,,,,,,,,,10,,,,89,101
20942,note_on,0,0,7,,,,,,,,,11,,,,74,101
20942,note_on,21,0,7,,,,,,,,,11,,,,77,101
20946,note_on,60,0,8,,,,,,,,,12,,,,65,0
20950,note_on,60,0,9,,,,,,,,,13,,,,53,0
20951,note_on,60,0,3,,,,,,,,,3,,,,53,0
20952,note_on,60,0,10,,,,,,,,,14,,,,41,0
20979,note_on,39,0,6,,,,,,,,,10,,,,89,0
20981,note_on,39,0,7,,,,,,,,,11,,,,74,0
20981,note_on,0,0,7,,,,,,,,,11,,,,77,0
21000,note_on,21,0,6,,,,,,,,,10,,,,89,110
21002,note_on,21,0,7,,,,,,,,,11,,,,77,110
21002,note_on,0,0,7,,,,,,,,,11,,,,74,110
21006,note_on,60,0,8,,,,,,,,,12,,,,69,108
21010,note_on,60,0,9,,,,,,,,,13,,,,57,99
21011,note_on,60,0,3,,,,,,,,,3,,,,57,97
21012,note_on,60,0,10,,,,,,,,,14,,,,45,93
21039,note_on,39,0,6,,,,,,,,,10,,,,89,0
21041,note_on,0,0,7,,,,,,,,,11,,,,77,0
21041,note_on,39,0,7,,,,,,,,,11,,,,74,0
21060,note_on,21,0,6,,,,,,,,,10,,,,89,101
21062,note_on,21,0,7,,,,,,,,,11,,,,77,101
21062,note_on,0,0,7,,,,,,,,,11,,,,74,101
21066,note_on,60,0,8,,,,,,,,,12,,,,69,0
21070,note_on,60,0,9,,,,,,,,,13,,,,57,0
21071,note_on,60,0,3,,,,,,,,,3,,,,57,0
21072,note_on,60,0,10,,,,,,,,,14,,,,45,0
21099,note_on,39,0,6,,,,,,,,,10,,,,89,0
21101,note_on,39,0,7,,,,,,,,,11,,,,74,0
21101,note_on,0,0,7,,,,,,,,,11,,,,77,0
21120,note_on,21,0,6,,,,,,,,,10,,,,89,110
21120,set_tempo,240,1,0,,,,,,272727,,,,,,,,
21122,note_on,21,0,7,,,,,,,,,11,,,,77,110
21122,note_on,0,0,7,,,,,,,,,11,,,,74,110
21126,note_on,60,0,8,,,,,,,,,12,,,,70,108
21130,note_on,60,0,9,,,,,,,,,13,,,,58,99
21131,note_on,60,0,3,,,,,,,,,3,,,,58,97
21132,note_on,60,0,10,,,,,,,,,14,,,,46,93
21159,note_on,39,0,6,,,,,,,,,10,,,,89,0
21161,note_on,39,0,7,,,,,,,,,11,,,,74,0
21161,note_on,0,0,7,,,,,,,,,11,,,,77,0
21180,note_on,21,0,6,,,,,,,,,10,,,,89,101
21182,note_on,21,0,7,,,,,,,,,11,,,,77,101
21182,note_on,0,0,7,,,,,,,,,11,,,,74,101
21186,note_on,60,0,8,,,,,,,,,12,,,,70,0
21190,note_on,60,0,9,,,,,,,,,13,,,,58,0
21191,note_on,60,0,3,,,,,,,,,3,,,,58,0
21192,note_on,60,0,10,,,,,,,,,14,,,,46,0
21219,note_on,39,0,6,,,,,,,,,10,,,,89,0
21221,note_on,0,0,7,,,,,,,,,11,,,,77,0
21221,note_on,39,0,7,,,,,,,,,11,,,,74,0
21240,note_on,21,0,6,,,,,,,,,10,,,,89,110
21242,note_on,21,0,7,,,,,,,,,11,,,,74,110
21242,note_on,0,0,7,,,,,,,,,11,,,,77,110
21246,note_on,60,0,8,,,,,,,,,12,,,,73,108
21250,note_on,60,0,9,,,,,,,,,13,,,,61,99
21251,note_on,60,0,3,,,,,,,,,3,,,,61,97
21252,note_on,60,0,10,,,,,,,,,14,,,,49,93
21279,note_on,39,0,6,,,,,,,,,10,,,,89,0
21281,note_on,39,0,7,,,,,,,,,11,,,,77,0
21281,note_on,0,0,7,,,,,,,,,11,,,,74,0
21300,note_on,21,0,6,,,,,,,,,10,,,,89,101
21302,note_on,21,0,7,,,,,,,,,11,,,,77,101
21302,note_on,0,0,7,,,,,,,,,11,,,,74,101
21306,note_on,60,0,8,,,,,,,,,12,,,,73,0
21310,note_on,60,0,9,,,,,,,,,13,,,,61,0
21311,note_on,60,0,3,,,,,,,,,3,,,,61,0
21312,note_on,60,0,10,,,,,,,,,14,,,,49,0
21339,note_on,39,0,6,,,,,,,,,10,,,,89,0
21341,note_on,39,0,7,,,,,,,,,11,,,,74,0
21341,note_on,0,0,7,,,,,,,,,11,,,,77,0
21360,set_tempo,240,1,0,,,,,,261438,,,,,,,,
21360,note_on,21,0,6,,,,,,,,,10,,,,89,110
21362,note_on,21,0,7,,,,,,,,,11,,,,77,110
21362,note_on,0,0,7,,,,,,,,,11,,,,74,110
21366,note_on,60,0,8,,,,,,,,,12,,,,74,108
21370,note_on,60,0,9,,,,,,,,,13,,,,62,99
21371,note_on,60,0,3,,,,,,,,,3,,,,62,97
21372,note_on,60,0,10,,,,,,,,,14,,,,50,93
21399,note_on,39,0,6,,,,,,,,,10,,,,89,0
21401,note_on,0,0,7,,,,,,,,,11,,,,77,0
21401,note_on,39,0,7,,,,,,,,,11,,,,74,0
21420,note_on,21,0,6,,,,,,,,,10,,,,89,101
21422,note_on,21,0,7,,,,,,,,,11,,,,77,101
21422,note_on,0,0,7,,,,,,,,,11,,,,74,101
21426,note_on,60,0,8,,,,,,,,,12,,,,74,0
21430,note_on,60,0,9,,,,,,,,,13,,,,62,0
21431,note_on,60,0,3,,,,,,,,,3,,,,62,0
21432,note_on,60,0,10,,,,,,,,,14,,,,50,0
21459,note_on,39,0,6,,,,,,,,,10,,,,89,0
21461,note_on,39,0,7,,,,,,,,,11,,,,74,0
21461,note_on,0,0,7,,,,,,,,,11,,,,77,0
21480,note_on,21,0,6,,,,,,,,,10,,,,89,110
21482,note_on,0,0,7,,,,,,,,,11,,,,77,110
21482,note_on,21,0,7,,,,,,,,,11,,,,74,110
21486,note_on,60,0,8,,,,,,,,,12,,,,77,108
21490,note_on,60,0,9,,,,,,,,,13,,,,65,99
21491,note_on,60,0,3,,,,,,,,,3,,,,65,97
21492,note_on,60,0,10,,,,,,,,,14,,,,53,93
21519,note_on,39,0,6,,,,,,,,,10,,,,89,0
21521,note_on,39,0,7,,,,,,,,,11,,,,77,0
21521,note_on,0,0,7,,,,,,,,,11,,,,74,0
21540,note_on,21,0,6,,,,,,,,,10,,,,89,101
21542,note_on,21,0,7,,,,,,,,,11,,,,77,101
21542,note_on,0,0,7,,,,,,,,,11,,,,74,101
21546,note_on,60,0,8,,,,,,,,,12,,,,77,0
21550,note_on,60,0,9,,,,,,,,,13,,,,65,0
21551,note_on,60,0,3,,,,,,,,,3,,,,65,0
21552,note_on,60,0,10,,,,,,,,,14,,,,53,0
21579,note_on,39,0,6,,,,,,,,,10,,,,89,0
21581,note_on,39,0,7,,,,,,,,,11,,,,74,0
21581,note_on,0,0,7,,,,,,,,,11,,,,77,0
21600,set_tempo,240,1,0,,,,,,272727,,,,,,,,
21600,control_change,21,0,6,,,,,,,,,10,11,85,,,
21600,note_on,0,0,6,,,,,,,,,10,,,,87,110
21602,control_change,21,0,7,,,,,,,,,11,11,85,,,
21602,note_on,0,0,7,,,,,,,,,11,,,,81,110
21603,control_change,0,0,1,,,,,,,,,0,11,85,,,
21603,note_on,960,0,1,,,,,,,,,0,,,,89,0
21603,note_on,0,0,1,,,,,,,,,0,,,,87,97
21604,note_on,0,0,4,,,,,,,,,4,,,,65,88
21604,note_on,960,0,4,,,,,,,,,4,,,,65,0
21604,control_change,0,0,4,,,,,,,,,4,11,85,,,
21605,note_on,0,0,2,,,,,,,,,1,,,,77,0
21605,note_on,0,0,2,,,,,,,,,1,,,,72,97
21605,note_on,0,0,2,,,,,,,,,1,,,,81,97
21605,control_change,0,0,2,,,,,,,,,1,11,85,,,
21605,note_on,960,0,2,,,,,,,,,1,,,,74,0
21605,control_change,5,0,6,,,,,,,,,10,11,89,,,
21606,note_on,960,0,5,,,,,,,,,5,,,,62,0
21606,control_change,0,0,5,,,,,,,,,5,11,85,,,
21606,note_on,0,0,5,,,,,,,,,5,,,,53,88
21606,control_change,60,0,8,,,,,,,,,12,11,85,,,
21606,note_on,0,0,8,,,,,,,,,12,,,,72,108
21607,control_change,5,0,7,,,,,,,,,11,11,89,,,
21608,control_change,5,0,1,,,,,,,,,0,11,89,,,
21609,control_change,5,0,4,,,,,,,,,4,11,89,,,
21610,control_change,5,0,2,,,,,,,,,1,11,89,,,
21610,control_change,60,0,9,,,,,,,,,13,11,85,,,
21610,note_on,0,0,9,,,,,,,,,13,,,,53,99
21611,control_change,5,0,5,,,,,,,,,5,11,89,,,
21611,note_on,0,0,3,,,,,,,,,3,,,,53,97
21611,control_change,60,0,3,,,,,,,,,3,11,85,,,
21611,control_change,5,0,8,,,,,,,,,12,11,89,,,
21612,control_change,60,0,10,,,,,,,,,14,11,85,,,
21612,note_on,0,0,10,,,,,,,,,14,,,,41,93
21615,control_change,5,0,9,,,,,,,,,13,11,89,,,
21616,control_change,5,0,3,,,,,,,,,3,11,89,,,
21617,control_change,5,0,10,,,,,,,,,14,11,89,,,
21627,control_change,22,0,6,,,,,,,,,10,11,91,,,
21629,control_change,22,0,7,,,,,,,,,11,11,91,,,
21630,control_change,22,0,1,,,,,,,,,0,11,91,,,
21631,control_change,22,0,4,,,,,,,,,4,11,91,,,
21632,control_change,22,0,2,,,,,,,,,1,11,91,,,
21633,control_change,22,0,5,,,,,,,,,5,11,91,,,
21633,control_change,22,0,8,,,,,,,,,12,11,91,,,
21637,control_change,22,0,9,,,,,,,,,13,11,91,,,
21638,control_change,22,0,3,,,,,,,,,3,11,91,,,
21639,control_change,22,0,10,,,,,,,,,14,11,91,,,
21645,control_change,18,0,6,,,,,,,,,10,11,89,,,
21647,control_change,18,0,7,,,,,,,,,11,11,89,,,
21648,control_change,18,0,1,,,,,,,,,0,11,89,,,
21649,control_change,18,0,4,,,,,,,,,4,11,89,,,
21650,control_change,18,0,2,,,,,,,,,1,11,89,,,
21651,control_change,18,0,8,,,,,,,,,12,11,89,,,
21651,control_change,18,0,5,,,,,,,,,5,11,89,,,
21655,control_change,18,0,9,,,,,,,,,13,11,89,,,
21656,control_change,18,0,3,,,,,,,,,3,11,89,,,
21657,control_change,18,0,10,,,,,,,,,14,11,89,,,
21663,control_change,18,0,6,,,,,,,,,10,11,88,,,
21665,control_change,18,0,7,,,,,,,,,11,11,88,,,
21666,control_change,18,0,1,,,,,,,,,0,11,88,,,
21667,control_change,18,0,4,,,,,,,,,4,11,88,,,
21668,control_change,18,0,2,,,,,,,,,1,11,88,,,
21669,control_change,18,0,8,,,,,,,,,12,11,88,,,
21669,control_change,18,0,5,,,,,,,,,5,11,88,,,
21673,control_change,18,0,9,,,,,,,,,13,11,88,,,
21674,control_change,18,0,3,,,,,,,,,3,11,88,,,
21675,control_change,18,0,10,,,,,,,,,14,11,88,,,
21681,control_change,18,0,6,,,,,,,,,10,11,86,,,
21683,control_change,18,0,7,,,,,,,,,11,11,86,,,
21684,control_change,18,0,1,,,,,,,,,0,11,86,,,
21685,control_change,18,0,4,,,,,,,,,4,11,86,,,
21686,control_change,18,0,2,,,,,,,,,1,11,86,,,
21687,control_change,18,0,8,,,,,,,,,12,11,86,,,
21687,control_change,18,0,5,,,,,,,,,5,11,86,,,
21691,control_change,18,0,9,,,,,,,,,13,11,86,,,
21692,control_change,18,0,3,,,,,,,,,3,11,86,,,
21693,control_change,18,0,10,,,,,,,,,14,11,86,,,
21699,control_change,18,0,6,,,,,,,,,10,11,85,,,
21701,control_change,18,0,7,,,,,,,,,11,11,85,,,
21702,control_change,18,0,1,,,,,,,,,0,11,85,,,
21703,control_change,18,0,4,,,,,,,,,4,11,85,,,
21704,control_change,18,0,2,,,,,,,,,1,11,85,,,
21705,control_change,18,0,8,,,,,,,,,12,11,85,,,
21705,control_change,18,0,5,,,,,,,,,5,11,85,,,
21709,control_change,18,0,9,,,,,,,,,13,11,85,,,
21710,control_change,18,0,3,,,,,,,,,3,11,85,,,
21711,control_change,18,0,10,,,,,,,,,14,11,85,,,
21717,control_change,18,0,6,,,,,,,,,10,11,84,,,
21719,control_change,18,0,7,,,,,,,,,11,11,84,,,
21720,control_change,18,0,1,,,,,,,,,0,11,84,,,
21721,control_change,18,0,4,,,,,,,,,4,11,84,,,
21722,control_change,18,0,2,,,,,,,,,1,11,84,,,
21723,control_change,18,0,8,,,,,,,,,12,11,84,,,
21723,control_change,18,0,5,,,,,,,,,5,11,84,,,
21727,control_change,18,0,9,,,,,,,,,13,11,84,,,
21728,control_change,18,0,3,,,,,,,,,3,11,84,,,
21729,control_change,18,0,10,,,,,,,,,14,11,84,,,
21732,note_on,15,0,6,,,,,,,,,10,,,,87,0
21734,note_on,15,0,7,,,,,,,,,11,,,,81,0
21735,control_change,3,0,6,,,,,,,,,10,11,82,,,
21737,control_change,3,0,7,,,,,,,,,11,11,82,,,
21738,control_change,18,0,1,,,,,,,,,0,11,82,,,
21738,note_on,15,0,8,,,,,,,,,12,,,,72,0
21739,control_change,18,0,4,,,,,,,,,4,11,82,,,
21740,control_change,18,0,2,,,,,,,,,1,11,82,,,
21741,control_change,18,0,5,,,,,,,,,5,11,82,,,
21741,control_change,3,0,8,,,,,,,,,12,11,82,,,
21745,control_change,18,0,9,,,,,,,,,13,11,82,,,
21746,control_change,18,0,3,,,,,,,,,3,11,82,,,
21747,control_change,18,0,10,,,,,,,,,14,11,82,,,
21753,control_change,18,0,6,,,,,,,,,10,11,81,,,
21755,control_change,18,0,7,,,,,,,,,11,11,81,,,
21756,control_change,18,0,1,,,,,,,,,0,11,81,,,
21757,control_change,18,0,4,,,,,,,,,4,11,81,,,
21758,control_change,18,0,2,,,,,,,,,1,11,81,,,
21759,control_change,18,0,8,,,,,,,,,12,11,81,,,
21759,control_change,18,0,5,,,,,,,,,5,11,81,,,
21763,control_change,18,0,9,,,,,,,,,13,11,81,,,
21764,control_change,18,0,3,,,,,,,,,3,11,81,,,
21765,control_change,18,0,10,,,,,,,,,14,11,81,,,
21771,control_change,18,0,6,,,,,,,,,10,11,80,,,
21773,control_change,18,0,7,,,,,,,,,11,11,80,,,
21774,control_change,18,0,1,,,,,,,,,0,11,80,,,
21775,control_change,18,0,4,,,,,,,,,4,11,80,,,
21776,control_change,18,0,2,,,,,,,,,1,11,80,,,
21777,control_change,18,0,5,,,,,,,,,5,11,80,,,
21777,control_change,18,0,8,,,,,,,,,12,11,80,,,
21778,note_on,4,0,1,,,,,,,,,0,,,,87,0
21780,note_on,0,0,2,,,,,,,,,1,,,,72,0
21780,note_on,4,0,2,,,,,,,,,1,,,,81,0
21780,note_on,9,0,6,,,,,,,,,10,,,,86,110
21781,control_change,18,0,9,,,,,,,,,13,11,80,,,
21782,control_change,18,0,3,,,,,,,,,3,11,80,,,
21782,note_on,9,0,7,,,,,,,,,11,,,,82,110
21783,note_on,5,0,1,,,,,,,,,0,,,,86,97
21783,control_change,18,0,10,,,,,,,,,14,11,80,,,
21785,note_on,0,0,2,,,,,,,,,1,,,,74,97
21785,note_on,5,0,2,,,,,,,,,1,,,,82,97
21786,note_on,9,0,8,,,,,,,,,12,,,,74,108
21825,note_on,45,0,6,,,,,,,,,10,,,,86,0
21827,note_on,45,0,7,,,,,,,,,11,,,,82,0
21829,note_on,54,0,4,,,,,,,,,4,,,,65,0
21831,note_on,45,0,8,,,,,,,,,12,,,,74,0
21831,note_on,54,0,5,,,,,,,,,5,,,,53,0
21836,note_on,54,0,3,,,,,,,,,3,,,,53,0
21838,note_on,55,0,1,,,,,,,,,0,,,,86,0
21840,control_change,15,0,6,,,,,,,,,10,11,85,,,
21840,note_on,0,0,2,,,,,,,,,1,,,,82,0
21840,set_tempo,240,1,0,,,,,,261438,,,,,,,,
21840,note_on,0,0,6,,,,,,,,,10,,,,84,110
21840,note_on,55,0,2,,,,,,,,,1,,,,74,0
21842,note_on,0,0,7,,,,,,,,,11,,,,79,110
21842,control_change,15,0,7,,,,,,,,,11,11,85,,,
21843,note_on,0,0,1,,,,,,,,,0,,,,84,97
21843,control_change,5,0,1,,,,,,,,,0,11,85,,,
21844,note_on,0,0,4,,,,,,,,,4,,,,65,88
21844,control_change,15,0,4,,,,,,,,,4,11,85,,,
21845,control_change,5,0,6,,,,,,,,,10,11,89,,,
21845,note_on,64,0,9,,,,,,,,,13,,,,53,0
21845,note_on,0,0,2,,,,,,,,,1,,,,79,97
21845,note_on,0,0,2,,,,,,,,,1,,,,75,97
21845,control_change,5,0,2,,,,,,,,,1,11,85,,,
21846,control_change,15,0,5,,,,,,,,,5,11,85,,,
21846,note_on,0,0,5,,,,,,,,,5,,,,53,88
21846,control_change,15,0,8,,,,,,,,,12,11,85,,,
21846,note_on,0,0,8,,,,,,,,,12,,,,75,108
21847,control_change,5,0,7,,,,,,,,,11,11,89,,,
21847,note_on,64,0,10,,,,,,,,,14,,,,41,0
21848,control_change,5,0,1,,,,,,,,,0,11,89,,,
21849,control_change,5,0,4,,,,,,,,,4,11,89,,,
21850,control_change,5,0,9,,,,,,,,,13,11,85,,,
21850,control_change,5,0,2,,,,,,,,,1,11,89,,,
21850,note_on,0,0,9,,,,,,,,,13,,,,53,99
21851,control_change,15,0,3,,,,,,,,,3,11,85,,,
21851,control_change,5,0,5,,,,,,,,,5,11,89,,,
21851,control_change,5,0,8,,,,,,,,,12,11,89,,,
21851,note_on,0,0,3,,,,,,,,,3,,,,53,97
21852,note_on,0,0,10,,,,,,,,,14,,,,41,93
21852,control_change,5,0,10,,,,,,,,,14,11,85,,,
21855,control_change,5,0,9,,,,,,,,,13,11,89,,,
21856,control_change,5,0,3,,,,,,,,,3,11,89,,,
21857,control_change,5,0,10,,,,,,,,,14,11,89,,,
21867,control_change,22,0,6,,,,,,,,,10,11,91,,,
21869,control_change,22,0,7,,,,,,,,,11,11,91,,,
21870,control_change,22,0,1,,,,,,,,,0,11,91,,,
21871,control_change,22,0,4,,,,,,,,,4,11,91,,,
21872,control_change,22,0,2,,,,,,,,,1,11,91,,,
21873,control_change,22,0,8,,,,,,,,,12,11,91,,,
21873,control_change,22,0,5,,,,,,,,,5,11,91,,,
21877,control_change,22,0,9,,,,,,,,,13,11,91,,,
21878,control_change,22,0,3,,,,,,,,,3,11,91,,,
21879,control_change,22,0,10,,,,,,,,,14,11,91,,,
21885,control_change,18,0,6,,,,,,,,,10,11,89,,,
21887,control_change,18,0,7,,,,,,,,,11,11,89,,,
21888,control_change,18,0,1,,,,,,,,,0,11,89,,,
21889,control_change,18,0,4,,,,,,,,,4,11,89,,,
21890,control_change,18,0,2,,,,,,,,,1,11,89,,,
21891,control_change,18,0,8,,,,,,,,,12,11,89,,,
21891,control_change,18,0,5,,,,,,,,,5,11,89,,,
21895,control_change,18,0,9,,,,,,,,,13,11,89,,,
21896,control_change,18,0,3,,,,,,,,,3,11,89,,,
21897,control_change,18,0,10,,,,,,,,,14,11,89,,,
21903,control_change,18,0,6,,,,,,,,,10,11,88,,,
21905,control_change,18,0,7,,,,,,,,,11,11,88,,,
21906,control_change,18,0,1,,,,,,,,,0,11,88,,,
21907,control_change,18,0,4,,,,,,,,,4,11,88,,,
21908,control_change,18,0,2,,,,,,,,,1,11,88,,,
21909,control_change,18,0,5,,,,,,,,,5,11,88,,,
21909,control_change,18,0,8,,,,,,,,,12,11,88,,,
21913,control_change,18,0,9,,,,,,,,,13,11,88,,,
21914,control_change,18,0,3,,,,,,,,,3,11,88,,,
21915,control_change,18,0,10,,,,,,,,,14,11,88,,,
21921,control_change,18,0,6,,,,,,,,,10,11,86,,,
21923,control_change,18,0,7,,,,,,,,,11,11,86,,,
21924,control_change,18,0,1,,,,,,,,,0,11,86,,,
21925,control_change,18,0,4,,,,,,,,,4,11,86,,,
21926,control_change,18,0,2,,,,,,,,,1,11,86,,,
21927,control_change,18,0,8,,,,,,,,,12,11,86,,,
21927,control_change,18,0,5,,,,,,,,,5,11,86,,,
21931,control_change,18,0,9,,,,,,,,,13,11,86,,,
21932,control_change,18,0,3,,,,,,,,,3,11,86,,,
21933,control_change,18,0,10,,,,,,,,,14,11,86,,,
21939,control_change,18,0,6,,,,,,,,,10,11,85,,,
21941,control_change,18,0,7,,,,,,,,,11,11,85,,,
21942,control_change,18,0,1,,,,,,,,,0,11,85,,,
21943,control_change,18,0,4,,,,,,,,,4,11,85,,,
21944,control_change,18,0,2,,,,,,,,,1,11,85,,,
21945,control_change,18,0,5,,,,,,,,,5,11,85,,,
21945,control_change,18,0,8,,,,,,,,,12,11,85,,,
21949,control_change,18,0,9,,,,,,,,,13,11,85,,,
21950,control_change,18,0,3,,,,,,,,,3,11,85,,,
21951,control_change,18,0,10,,,,,,,,,14,11,85,,,
21957,control_change,18,0,6,,,,,,,,,10,11,84,,,
21959,control_change,18,0,7,,,,,,,,,11,11,84,,,
21960,control_change,18,0,1,,,,,,,,,0,11,84,,,
21961,control_change,18,0,4,,,,,,,,,4,11,84,,,
21962,control_change,18,0,2,,,,,,,,,1,11,84,,,
21963,control_change,18,0,8,,,,,,,,,12,11,84,,,
21963,control_change,18,0,5,,,,,,,,,5,11,84,,,
21967,control_change,18,0,9,,,,,,,,,13,11,84,,,
21968,control_change,18,0,3,,,,,,,,,3,11,84,,,
21969,control_change,18,0,10,,,,,,,,,14,11,84,,,
21972,note_on,15,0,6,,,,,,,,,10,,,,84,0
21974,note_on,15,0,7,,,,,,,,,11,,,,79,0
21975,control_change,3,0,6,,,,,,,,,10,11,82,,,
21977,control_change,3,0,7,,,,,,,,,11,11,82,,,
21978,note_on,15,0,8,,,,,,,,,12,,,,75,0
21978,control_change,18,0,1,,,,,,,,,0,11,82,,,
21979,control_change,18,0,4,,,,,,,,,4,11,82,,,
21980,control_change,18,0,2,,,,,,,,,1,11,82,,,
21981,control_change,18,0,5,,,,,,,,,5,11,82,,,
21981,control_change,3,0,8,,,,,,,,,12,11,82,,,
21985,control_change,18,0,9,,,,,,,,,13,11,82,,,
21986,control_change,18,0,3,,,,,,,,,3,11,82,,,
21987,control_change,18,0,10,,,,,,,,,14,11,82,,,
21993,control_change,18,0,6,,,,,,,,,10,11,81,,,
21995,control_change,18,0,7,,,,,,,,,11,11,81,,,
21996,control_change,18,0,1,,,,,,,,,0,11,81,,,
21997,control_change,18,0,4,,,,,,,,,4,11,81,,,
21998,control_change,18,0,2,,,,,,,,,1,11,81,,,
21999,control_change,18,0,8,,,,,,,,,12,11,81,,,
21999,control_change,18,0,5,,,,,,,,,5,11,81,,,
22003,control_change,18,0,9,,,,,,,,,13,11,81,,,
22004,control_change,18,0,3,,,,,,,,,3,11,81,,,
22005,control_change,18,0,10,,,,,,,,,14,11,81,,,
22011,control_change,18,0,6,,,,,,,,,10,11,80,,,
22013,control_change,18,0,7,,,,,,,,,11,11,80,,,
22014,control_change,18,0,1,,,,,,,,,0,11,80,,,
22015,control_change,18,0,4,,,,,,,,,4,11,80,,,
22016,control_change,18,0,2,,,,,,,,,1,11,80,,,
22017,control_change,18,0,8,,,,,,,,,12,11,80,,,
22017,control_change,18,0,5,,,,,,,,,5,11,80,,,
22018,note_on,4,0,1,,,,,,,,,0,,,,84,0
22020,note_on,4,0,2,,,,,,,,,1,,,,75,0
22020,note_on,9,0,6,,,,,,,,,10,,,,82,110
22020,note_on,0,0,2,,,,,,,,,1,,,,79,0
22021,control_change,18,0,9,,,,,,,,,13,11,80,,,
22022,note_on,9,0,7,,,,,,,,,11,,,,77,110
22022,control_change,18,0,3,,,,,,,,,3,11,80,,,
22023,control_change,18,0,10,,,,,,,,,14,11,80,,,
22023,note_on,5,0,1,,,,,,,,,0,,,,82,97
22025,note_on,0,0,2,,,,,,,,,1,,,,77,97
22025,note_on,5,0,2,,,,,,,,,1,,,,74,97
22026,note_on,9,0,8,,,,,,,,,12,,,,74,108
22065,note_on,45,0,6,,,,,,,,,10,,,,82,0
22067,note_on,45,0,7,,,,,,,,,11,,,,77,0
22069,note_on,54,0,4,,,,,,,,,4,,,,65,0
22071,note_on,45,0,8,,,,,,,,,12,,,,74,0
22071,note_on,54,0,5,,,,,,,,,5,,,,53,0
22076,note_on,54,0,3,,,,,,,,,3,,,,53,0
22078,note_on,55,0,1,,,,,,,,,0,,,,82,0
22080,note_on,0,0,2,,,,,,,,,1,,,,74,0
22080,note_on,0,0,6,,,,,,,,,10,,,,81,110
22080,set_tempo,240,1,0,,,,,,272727,,,,,,,,
22080,note_on,55,0,2,,,,,,,,,1,,,,77,0
22080,control_change,15,0,6,,,,,,,,,10,11,85,,,
22082,control_change,15,0,7,,,,,,,,,11,11,85,,,
22082,note_on,0,0,7,,,,,,,,,11,,,,75,110
22083,note_on,0,0,1,,,,,,,,,0,,,,81,97
22083,control_change,5,0,1,,,,,,,,,0,11,85,,,
22084,control_change,15,0,4,,,,,,,,,4,11,85,,,
22084,note_on,0,0,4,,,,,,,,,4,,,,65,88
22085,control_change,5,0,2,,,,,,,,,1,11,85,,,
22085,note_on,0,0,2,,,,,,,,,1,,,,75,97
22085,note_on,0,0,2,,,,,,,,,1,,,,72,97
22085,note_on,64,0,9,,,,,,,,,13,,,,53,0
22085,control_change,5,0,6,,,,,,,,,10,11,89,,,
22086,note_on,0,0,8,,,,,,,,,12,,,,72,108
22086,control_change,15,0,8,,,,,,,,,12,11,85,,,
22086,control_change,15,0,5,,,,,,,,,5,11,85,,,
22086,note_on,0,0,5,,,,,,,,,5,,,,53,88
22087,control_change,5,0,7,,,,,,,,,11,11,89,,,
22087,note_on,64,0,10,,,,,,,,,14,,,,41,0
22088,control_change,5,0,1,,,,,,,,,0,11,89,,,
22089,control_change,5,0,4,,,,,,,,,4,11,89,,,
22090,control_change,5,0,2,,,,,,,,,1,11,89,,,
22090,control_change,5,0,9,,,,,,,,,13,11,85,,,
22090,note_on,0,0,9,,,,,,,,,13,,,,53,99
22091,control_change,15,0,3,,,,,,,,,3,11,85,,,
22091,note_on,0,0,3,,,,,,,,,3,,,,53,97
22091,control_change,5,0,5,,,,,,,,,5,11,89,,,
22091,control_change,5,0,8,,,,,,,,,12,11,89,,,
22092,control_change,5,0,10,,,,,,,,,14,11,85,,,
22092,note_on,0,0,10,,,,,,,,,14,,,,41,93
22095,control_change,5,0,9,,,,,,,,,13,11,89,,,
22096,control_change,5,0,3,,,,,,,,,3,11,89,,,
22097,control_change,5,0,10,,,,,,,,,14,11,89,,,
22107,control_change,22,0,6,,,,,,,,,10,11,91,,,
22109,control_change,22,0,7,,,,,,,,,11,11,91,,,
22110,control_change,22,0,1,,,,,,,,,0,11,91,,,
22111,control_change,22,0,4,,,,,,,,,4,11,91,,,
22112,control_change,22,0,2,,,,,,,,,1,11,91,,,
22113,control_change,22,0,8,,,,,,,,,12,11,91,,,
22113,control_change,22,0,5,,,,,,,,,5,11,91,,,
22117,control_change,22,0,9,,,,,,,,,13,11,91,,,
22118,control_change,22,0,3,,,,,,,,,3,11,91,,,
22119,control_change,22,0,10,,,,,,,,,14,11,91,,,
22125,control_change,18,0,6,,,,,,,,,10,11,89,,,
22127,control_change,18,0,7,,,,,,,,,11,11,89,,,
22128,control_change,18,0,1,,,,,,,,,0,11,89,,,
22129,control_change,18,0,4,,,,,,,,,4,11,89,,,
22130,control_change,18,0,2,,,,,,,,,1,11,89,,,
22131,control_change,18,0,8,,,,,,,,,12,11,89,,,
22131,control_change,18,0,5,,,,,,,,,5,11,89,,,
22135,control_change,18,0,9,,,,,,,,,13,11,89,,,
22136,control_change,18,0,3,,,,,,,,,3,11,89,,,
22137,control_change,18,0,10,,,,,,,,,14,11,89,,,
22143,control_change,18,0,6,,,,,,,,,10,11,88,,,
22145,control_change,18,0,7,,,,,,,,,11,11,88,,,
22146,control_change,18,0,1,,,,,,,,,0,11,88,,,
22147,control_change,18,0,4,,,,,,,,,4,11,88,,,
22148,control_change,18,0,2,,,,,,,,,1,11,88,,,
22149,control_change,18,0,5,,,,,,,,,5,11,88,,,
22149,control_change,18,0,8,,,,,,,,,12,11,88,,,
22153,control_change,18,0,9,,,,,,,,,13,11,88,,,
22154,control_change,18,0,3,,,,,,,,,3,11,88,,,
22155,control_change,18,0,10,,,,,,,,,14,11,88,,,
22161,control_change,18,0,6,,,,,,,,,10,11,86,,,
22163,control_change,18,0,7,,,,,,,,,11,11,86,,,
22164,control_change,18,0,1,,,,,,,,,0,11,86,,,
22165,control_change,18,0,4,,,,,,,,,4,11,86,,,
22166,control_change,18,0,2,,,,,,,,,1,11,86,,,
22167,control_change,18,0,5,,,,,,,,,5,11,86,,,
22167,control_change,18,0,8,,,,,,,,,12,11,86,,,
22171,control_change,18,0,9,,,,,,,,,13,11,86,,,
22172,control_change,18,0,3,,,,,,,,,3,11,86,,,
22173,control_change,18,0,10,,,,,,,,,14,11,86,,,
22179,control_change,18,0,6,,,,,,,,,10,11,85,,,
22181,control_change,18,0,7,,,,,,,,,11,11,85,,,
22182,control_change,18,0,1,,,,,,,,,0,11,85,,,
22183,control_change,18,0,4,,,,,,,,,4,11,85,,,
22184,control_change,18,0,2,,,,,,,,,1,11,85,,,
22185,control_change,18,0,5,,,,,,,,,5,11,85,,,
22185,control_change,18,0,8,,,,,,,,,12,11,85,,,
22189,control_change,18,0,9,,,,,,,,,13,11,85,,,
22190,control_change,18,0,3,,,,,,,,,3,11,85,,,
22191,control_change,18,0,10,,,,,,,,,14,11,85,,,
22197,control_change,18,0,6,,,,,,,,,10,11,84,,,
22199,control_change,18,0,7,,,,,,,,,11,11,84,,,
22200,control_change,18,0,1,,,,,,,,,0,11,84,,,
22201,control_change,18,0,4,,,,,,,,,4,11,84,,,
22202,control_change,18,0,2,,,,,,,,,1,11,84,,,
22203,control_change,18,0,5,,,,,,,,,5,11,84,,,
22203,control_change,18,0,8,,,,,,,,,12,11,84,,,
22207,control_change,18,0,9,,,,,,,,,13,11,84,,,
22208,control_change,18,0,3,,,,,,,,,3,11,84,,,
22209,control_change,18,0,10,,,,,,,,,14,11,84,,,
22212,note_on,15,0,6,,,,,,,,,10,,,,81,0
22214,note_on,15,0,7,,,,,,,,,11,,,,75,0
22215,control_change,3,0,6,,,,,,,,,10,11,82,,,
22217,control_change,3,0,7,,,,,,,,,11,11,82,,,
22218,control_change,18,0,1,,,,,,,,,0,11,82,,,
22218,note_on,15,0,8,,,,,,,,,12,,,,72,0
22219,control_change,18,0,4,,,,,,,,,4,11,82,,,
22220,control_change,18,0,2,,,,,,,,,1,11,82,,,
22221,control_change,3,0,8,,,,,,,,,12,11,82,,,
22221,control_change,18,0,5,,,,,,,,,5,11,82,,,
22225,control_change,18,0,9,,,,,,,,,13,11,82,,,
22226,control_change,18,0,3,,,,,,,,,3,11,82,,,
22227,control_change,18,0,10,,,,,,,,,14,11,82,,,
22233,control_change,18,0,6,,,,,,,,,10,11,81,,,
22235,control_change,18,0,7,,,,,,,,,11,11,81,,,
22236,control_change,18,0,1,,,,,,,,,0,11,81,,,
22237,control_change,18,0,4,,,,,,,,,4,11,81,,,
22238,control_change,18,0,2,,,,,,,,,1,11,81,,,
22239,control_change,18,0,8,,,,,,,,,12,11,81,,,
22239,control_change,18,0,5,,,,,,,,,5,11,81,,,
22243,control_change,18,0,9,,,,,,,,,13,11,81,,,
22244,control_change,18,0,3,,,,,,,,,3,11,81,,,
22245,control_change,18,0,10,,,,,,,,,14,11,81,,,
22251,control_change,18,0,6,,,,,,,,,10,11,80,,,
22253,control_change,18,0,7,,,,,,,,,11,11,80,,,
22254,control_change,18,0,1,,,,,,,,,0,11,80,,,
22255,control_change,18,0,4,,,,,,,,,4,11,80,,,
22256,control_change,18,0,2,,,,,,,,,1,11,80,,,
22257,control_change,18,0,8,,,,,,,,,12,11,80,,,
22257,control_change,18,0,5,,,,,,,,,5,11,80,,,
22258,note_on,4,0,1,,,,,,,,,0,,,,81,0
22260,note_on,9,0,6,,,,,,,,,10,,,,79,110
22260,note_on,0,0,2,,,,,,,,,1,,,,75,0
22260,note_on,4,0,2,,,,,,,,,1,,,,72,0
22261,control_change,18,0,9,,,,,,,,,13,11,80,,,
22262,control_change,18,0,3,,,,,,,,,3,11,80,,,
22262,note_on,9,0,7,,,,,,,,,11,,,,74,110
22263,control_change,18,0,10,,,,,,,,,14,11,80,,,
22263,note_on,5,0,1,,,,,,,,,0,,,,79,97
22265,note_on,0,0,2,,,,,,,,,1,,,,74,97
22265,note_on,5,0,2,,,,,,,,,1,,,,70,97
22266,note_on,9,0,8,,,,,,,,,12,,,,70,108
22305,note_on,45,0,6,,,,,,,,,10,,,,79,0
22307,note_on,45,0,7,,,,,,,,,11,,,,74,0
22309,note_on,54,0,4,,,,,,,,,4,,,,65,0
22311,note_on,54,0,5,,,,,,,,,5,,,,53,0
22311,note_on,45,0,8,,,,,,,,,12,,,,70,0
22316,note_on,54,0,3,,,,,,,,,3,,,,53,0
22318,note_on,55,0,1,,,,,,,,,0,,,,79,0
22320,set_tempo,240,1,0,,,,,,261438,,,,,,,,
22320,note_on,0,0,2,,,,,,,,,1,,,,70,0
22320,note_on,55,0,2,,,,,,,,,1,,,,74,0
22320,control_change,15,0,6,,,,,,,,,10,11,85,,,
22320,note_on,0,0,6,,,,,,,,,10,,,,77,110
22322,note_on,0,0,7,,,,,,,,,11,,,,72,110
22322,control_change,15,0,7,,,,,,,,,11,11,85,,,
22323,note_on,0,0,1,,,,,,,,,0,,,,77,97
22323,control_change,5,0,1,,,,,,,,,0,11,85,,,
22324,note_on,0,0,4,,,,,,,,,4,,,,65,88
22324,control_change,15,0,4,,,,,,,,,4,11,85,,,
22325,note_on,64,0,9,,,,,,,,,13,,,,53,0
22325,control_change,5,0,2,,,,,,,,,1,11,85,,,
22325,note_on,0,0,2,,,,,,,,,1,,,,69,97
22325,control_change,5,0,6,,,,,,,,,10,11,89,,,
22325,note_on,0,0,2,,,,,,,,,1,,,,72,97
22326,note_on,0,0,5,,,,,,,,,5,,,,53,88
22326,note_on,0,0,8,,,,,,,,,12,,,,69,108
22326,control_change,15,0,8,,,,,,,,,12,11,85,,,
22326,control_change,15,0,5,,,,,,,,,5,11,85,,,
22327,note_on,64,0,10,,,,,,,,,14,,,,41,0
22327,control_change,5,0,7,,,,,,,,,11,11,89,,,
22328,control_change,5,0,1,,,,,,,,,0,11,89,,,
22329,control_change,5,0,4,,,,,,,,,4,11,89,,,
22330,control_change,5,0,9,,,,,,,,,13,11,85,,,
22330,control_change,5,0,2,,,,,,,,,1,11,89,,,
22330,note_on,0,0,9,,,,,,,,,13,,,,53,99
22331,control_change,15,0,3,,,,,,,,,3,11,85,,,
22331,note_on,0,0,3,,,,,,,,,3,,,,53,97
22331,control_change,5,0,8,,,,,,,,,12,11,89,,,
22331,control_change,5,0,5,,,,,,,,,5,11,89,,,
22332,note_on,0,0,10,,,,,,,,,14,,,,41,93
22332,control_change,5,0,10,,,,,,,,,14,11,85,,,
22335,control_change,5,0,9,,,,,,,,,13,11,89,,,
22336,control_change,5,0,3,,,,,,,,,3,11,89,,,
22337,control_change,5,0,10,,,,,,,,,14,11,89,,,
22347,control_change,22,0,6,,,,,,,,,10,11,91,,,
22349,control_change,22,0,7,,,,,,,,,11,11,91,,,
22350,control_change,22,0,1,,,,,,,,,0,11,91,,,
22351,control_change,22,0,4,,,,,,,,,4,11,91,,,
22352,control_change,22,0,2,,,,,,,,,1,11,91,,,
22353,control_change,22,0,5,,,,,,,,,5,11,91,,,
22353,control_change,22,0,8,,,,,,,,,12,11,91,,,
22357,control_change,22,0,9,,,,,,,,,13,11,91,,,
22358,control_change,22,0,3,,,,,,,,,3,11,91,,,
22359,control_change,22,0,10,,,,,,,,,14,11,91,,,
22365,control_change,18,0,6,,,,,,,,,10,11,89,,,
22367,control_change,18,0,7,,,,,,,,,11,11,89,,,
22368,control_change,18,0,1,,,,,,,,,0,11,89,,,
22369,control_change,18,0,4,,,,,,,,,4,11,89,,,
22370,control_change,18,0,2,,,,,,,,,1,11,89,,,
22371,control_change,18,0,8,,,,,,,,,12,11,89,,,
22371,control_change,18,0,5,,,,,,,,,5,11,89,,,
22375,control_change,18,0,9,,,,,,,,,13,11,89,,,
22376,control_change,18,0,3,,,,,,,,,3,11,89,,,
22377,control_change,18,0,10,,,,,,,,,14,11,89,,,
22383,control_change,18,0,6,,,,,,,,,10,11,88,,,
22385,control_change,18,0,7,,,,,,,,,11,11,88,,,
22386,control_change,18,0,1,,,,,,,,,0,11,88,,,
22387,control_change,18,0,4,,,,,,,,,4,11,88,,,
22388,control_change,18,0,2,,,,,,,,,1,11,88,,,
22389,control_change,18,0,8,,,,,,,,,12,11,88,,,
22389,control_change,18,0,5,,,,,,,,,5,11,88,,,
22393,control_change,18,0,9,,,,,,,,,13,11,88,,,
22394,control_change,18,0,3,,,,,,,,,3,11,88,,,
22395,control_change,18,0,10,,,,,,,,,14,11,88,,,
22401,control_change,18,0,6,,,,,,,,,10,11,86,,,
22403,control_change,18,0,7,,,,,,,,,11,11,86,,,
22404,control_change,18,0,1,,,,,,,,,0,11,86,,,
22405,control_change,18,0,4,,,,,,,,,4,11,86,,,
22406,control_change,18,0,2,,,,,,,,,1,11,86,,,
22407,control_change,18,0,5,,,,,,,,,5,11,86,,,
22407,control_change,18,0,8,,,,,,,,,12,11,86,,,
22411,control_change,18,0,9,,,,,,,,,13,11,86,,,
22412,control_change,18,0,3,,,,,,,,,3,11,86,,,
22413,control_change,18,0,10,,,,,,,,,14,11,86,,,
22419,control_change,18,0,6,,,,,,,,,10,11,85,,,
22421,control_change,18,0,7,,,,,,,,,11,11,85,,,
22422,control_change,18,0,1,,,,,,,,,0,11,85,,,
22423,control_change,18,0,4,,,,,,,,,4,11,85,,,
22424,control_change,18,0,2,,,,,,,,,1,11,85,,,
22425,control_change,18,0,5,,,,,,,,,5,11,85,,,
22425,control_change,18,0,8,,,,,,,,,12,11,85,,,
22429,control_change,18,0,9,,,,,,,,,13,11,85,,,
22430,control_change,18,0,3,,,,,,,,,3,11,85,,,
22431,control_change,18,0,10,,,,,,,,,14,11,85,,,
22437,control_change,18,0,6,,,,,,,,,10,11,84,,,
22439,control_change,18,0,7,,,,,,,,,11,11,84,,,
22440,control_change,18,0,1,,,,,,,,,0,11,84,,,
22441,control_change,18,0,4,,,,,,,,,4,11,84,,,
22442,control_change,18,0,2,,,,,,,,,1,11,84,,,
22443,control_change,18,0,8,,,,,,,,,12,11,84,,,
22443,control_change,18,0,5,,,,,,,,,5,11,84,,,
22447,control_change,18,0,9,,,,,,,,,13,11,84,,,
22448,control_change,18,0,3,,,,,,,,,3,11,84,,,
22449,control_change,18,0,10,,,,,,,,,14,11,84,,,
22455,control_change,18,0,6,,,,,,,,,10,11,82,,,
22457,control_change,18,0,7,,,,,,,,,11,11,82,,,
22458,control_change,18,0,1,,,,,,,,,0,11,82,,,
22459,control_change,18,0,4,,,,,,,,,4,11,82,,,
22460,control_change,18,0,2,,,,,,,,,1,11,82,,,
22461,control_change,18,0,8,,,,,,,,,12,11,82,,,
22461,control_change,18,0,5,,,,,,,,,5,11,82,,,
22465,control_change,18,0,9,,,,,,,,,13,11,82,,,
22466,control_change,18,0,3,,,,,,,,,3,11,82,,,
22467,control_change,18,0,10,,,,,,,,,14,11,82,,,
22473,control_change,18,0,6,,,,,,,,,10,11,81,,,
22475,control_change,18,0,7,,,,,,,,,11,11,81,,,
22476,control_change,18,0,1,,,,,,,,,0,11,81,,,
22477,control_change,18,0,4,,,,,,,,,4,11,81,,,
22478,control_change,18,0,2,,,,,,,,,1,11,81,,,
22479,control_change,18,0,8,,,,,,,,,12,11,81,,,
22479,control_change,18,0,5,,,,,,,,,5,11,81,,,
22483,control_change,18,0,9,,,,,,,,,13,11,81,,,
22484,control_change,18,0,3,,,,,,,,,3,11,81,,,
22485,note_on,12,0,6,,,,,,,,,10,,,,77,0
22485,control_change,18,0,10,,,,,,,,,14,11,81,,,
22487,note_on,12,0,7,,,,,,,,,11,,,,72,0
22491,note_on,12,0,8,,,,,,,,,12,,,,69,0
22491,control_change,6,0,6,,,,,,,,,10,11,80,,,
22493,control_change,6,0,7,,,,,,,,,11,11,80,,,
22494,control_change,18,0,1,,,,,,,,,0,11,80,,,
22495,control_change,18,0,4,,,,,,,,,4,11,80,,,
22496,control_change,18,0,2,,,,,,,,,1,11,80,,,
22497,control_change,18,0,5,,,,,,,,,5,11,80,,,
22497,control_change,6,0,8,,,,,,,,,12,11,80,,,
22498,note_on,4,0,1,,,,,,,,,0,,,,77,0
22500,note_on,4,0,2,,,,,,,,,1,,,,72,0
22500,note_on,0,0,2,,,,,,,,,1,,,,69,0
22500,note_on,9,0,6,,,,,,,,,10,,,,69,110
22501,control_change,18,0,9,,,,,,,,,13,11,80,,,
22502,note_on,9,0,7,,,,,,,,,11,,,,63,110
22502,control_change,18,0,3,,,,,,,,,3,11,80,,,
22503,note_on,5,0,1,,,,,,,,,0,,,,69,97
22503,control_change,18,0,10,,,,,,,,,14,11,80,,,
22505,note_on,5,0,2,,,,,,,,,1,,,,72,97
22505,note_on,0,0,2,,,,,,,,,1,,,,69,97
22506,note_on,9,0,8,,,,,,,,,12,,,,72,108
22545,note_on,45,0,6,,,,,,,,,10,,,,69,0
22547,note_on,45,0,7,,,,,,,,,11,,,,63,0
22549,note_on,54,0,4,,,,,,,,,4,,,,65,0
22551,note_on,54,0,5,,,,,,,,,5,,,,53,0
22551,note_on,45,0,8,,,,,,,,,12,,,,72,0
22556,note_on,54,0,3,,,,,,,,,3,,,,53,0
22558,note_on,55,0,1,,,,,,,,,0,,,,69,0
22560,note_on,55,0,2,,,,,,,,,1,,,,69,0
22560,note_on,0,0,2,,,,,,,,,1,,,,72,0
22560,note_on,15,0,6,,,,,,,,,10,,,,70,110
22560,set_tempo,240,1,0,,,,,,272727,,,,,,,,
22562,note_on,15,0,7,,,,,,,,,11,,,,62,110
22562,note_on,0,0,7,,,,,,,,,11,,,,70,110
22563,note_on,5,0,1,,,,,,,,,0,,,,70,97
22564,note_on,15,0,4,,,,,,,,,4,,,,58,88
22565,note_on,5,0,2,,,,,,,,,1,,,,70,97
22565,note_on,64,0,9,,,,,,,,,13,,,,53,0
22566,note_on,15,0,8,,,,,,,,,12,,,,70,108
22566,note_on,15,0,5,,,,,,,,,5,,,,50,88
22567,note_on,64,0,10,,,,,,,,,14,,,,41,0
22570,note_on,5,0,9,,,,,,,,,13,,,,46,99
22571,note_on,15,0,3,,,,,,,,,3,,,,46,97
22571,note_on,0,0,3,,,,,,,,,3,,,,58,97
22572,note_on,5,0,10,,,,,,,,,14,,,,34,93
22601,note_on,0,0,7,,,,,,,,,11,,,,62,0
22601,note_on,39,0,7,,,,,,,,,11,,,,70,0
22605,note_on,39,0,8,,,,,,,,,12,,,,70,0
22609,note_on,39,0,9,,,,,,,,,13,,,,46,0
22611,note_on,39,0,10,,,,,,,,,14,,,,34,0
22622,note_on,0,0,7,,,,,,,,,11,,,,70,101
22622,note_on,21,0,7,,,,,,,,,11,,,,62,101
22626,note_on,21,0,8,,,,,,,,,12,,,,58,99
22630,note_on,21,0,9,,,,,,,,,13,,,,46,90
22632,note_on,21,0,10,,,,,,,,,14,,,,34,84
22661,note_on,39,0,7,,,,,,,,,11,,,,70,0
22661,note_on,0,0,7,,,,,,,,,11,,,,62,0
22665,note_on,39,0,8,,,,,,,,,12,,,,58,0
22669,note_on,39,0,9,,,,,,,,,13,,,,46,0
22671,note_on,39,0,10,,,,,,,,,14,,,,34,0
22682,note_on,21,0,7,,,,,,,,,11,,,,62,110
22682,note_on,0,0,7,,,,,,,,,11,,,,70,110
22686,note_on,21,0,8,,,,,,,,,12,,,,58,108
22690,note_on,21,0,9,,,,,,,,,13,,,,46,99
22692,note_on,21,0,10,,,,,,,,,14,,,,34,93
22721,note_on,39,0,7,,,,,,,,,11,,,,70,0
22721,note_on,0,0,7,,,,,,,,,11,,,,62,0
22725,note_on,39,0,8,,,,,,,,,12,,,,58,0
22729,note_on,39,0,9,,,,,,,,,13,,,,46,0
22731,note_on,39,0,10,,,,,,,,,14,,,,34,0
22735,note_on,175,0,6,,,,,,,,,10,,,,70,0
22738,note_on,175,0,1,,,,,,,,,0,,,,70,0
22740,note_on,175,0,2,,,,,,,,,1,,,,70,0
22740,note_on,5,0,6,,,,,,,,,10,,,,74,110
22742,note_on,0,0,7,,,,,,,,,11,,,,62,101
22742,note_on,21,0,7,,,,,,,,,11,,,,70,101
22743,note_on,5,0,1,,,,,,,,,0,,,,74,97
22745,note_on,5,0,2,,,,,,,,,1,,,,74,97
22746,note_on,21,0,8,,,,,,,,,12,,,,58,99
22750,note_on,21,0,9,,,,,,,,,13,,,,46,90
22752,note_on,21,0,10,,,,,,,,,14,,,,34,84
22779,note_on,39,0,6,,,,,,,,,10,,,,74,0
22781,note_on,39,0,7,,,,,,,,,11,,,,62,0
22781,note_on,0,0,7,,,,,,,,,11,,,,70,0
22785,note_on,39,0,8,,,,,,,,,12,,,,58,0
22789,note_on,39,0,9,,,,,,,,,13,,,,46,0
22791,note_on,39,0,10,,,,,,,,,14,,,,34,0
22798,note_on,55,0,1,,,,,,,,,0,,,,74,0
22800,set_tempo,240,1,0,,,,,,261438,,,,,,,,
22800,note_on,55,0,2,,,,,,,,,1,,,,74,0
22800,note_on,21,0,6,,,,,,,,,10,,,,77,110
22802,note_on,21,0,7,,,,,,,,,11,,,,70,110
22803,note_on,5,0,1,,,,,,,,,0,,,,77,97
22805,note_on,5,0,2,,,,,,,,,1,,,,77,97
22806,note_on,21,0,8,,,,,,,,,12,,,,58,108
22810,note_on,21,0,9,,,,,,,,,13,,,,46,99
22812,note_on,21,0,10,,,,,,,,,14,,,,34,93
22841,note_on,39,0,7,,,,,,,,,11,,,,70,0
22845,note_on,39,0,8,,,,,,,,,12,,,,58,0
22849,note_on,39,0,9,,,,,,,,,13,,,,46,0
22851,note_on,39,0,10,,,,,,,,,14,,,,34,0
22860,note_on,60,0,6,,,,,,,,,10,,,,77,0
22862,note_on,21,0,7,,,,,,,,,11,,,,70,101
22863,note_on,60,0,1,,,,,,,,,0,,,,77,0
22865,note_on,60,0,2,,,,,,,,,1,,,,77,0
22866,note_on,21,0,8,,,,,,,,,12,,,,58,99
22870,note_on,21,0,9,,,,,,,,,13,,,,46,90
22872,note_on,21,0,10,,,,,,,,,14,,,,34,84
22901,note_on,39,0,7,,,,,,,,,11,,,,70,0
22905,note_on,39,0,8,,,,,,,,,12,,,,58,0
22909,note_on,39,0,9,,,,,,,,,13,,,,46,0
22911,note_on,39,0,10,,,,,,,,,14,,,,34,0
22920,note_on,60,0,6,,,,,,,,,10,,,,81,110
22922,note_on,21,0,7,,,,,,,,,11,,,,69,110
22923,note_on,60,0,1,,,,,,,,,0,,,,81,97
22924,note_on,360,0,4,,,,,,,,,4,,,,58,0
22925,note_on,0,0,2,,,,,,,,,1,,,,69,97
22925,note_on,60,0,2,,,,,,,,,1,,,,73,97
22926,note_on,21,0,8,,,,,,,,,12,,,,61,108
22926,note_on,360,0,5,,,,,,,,,5,,,,50,0
22930,note_on,21,0,9,,,,,,,,,13,,,,46,99
22932,note_on,21,0,10,,,,,,,,,14,,,,34,93
22961,note_on,39,0,7,,,,,,,,,11,,,,69,0
22965,note_on,39,0,8,,,,,,,,,12,,,,61,0
22969,note_on,39,0,9,,,,,,,,,13,,,,46,0
22971,note_on,39,0,10,,,,,,,,,14,,,,34,0
22980,note_on,60,0,6,,,,,,,,,10,,,,81,0
22982,note_on,21,0,7,,,,,,,,,11,,,,69,101
22983,note_on,60,0,1,,,,,,,,,0,,,,81,0
22985,note_on,0,0,2,,,,,,,,,1,,,,73,0
22985,note_on,60,0,2,,,,,,,,,1,,,,69,0
22986,note_on,21,0,8,,,,,,,,,12,,,,61,99
22990,note_on,21,0,9,,,,,,,,,13,,,,46,90
22992,note_on,21,0,10,,,,,,,,,14,,,,34,84
23021,note_on,39,0,7,,,,,,,,,11,,,,69,0
23025,note_on,39,0,8,,,,,,,,,12,,,,61,0
23029,note_on,39,0,9,,,,,,,,,13,,,,46,0
23031,note_on,39,0,10,,,,,,,,,14,,,,34,0
23040,note_on,60,0,6,,,,,,,,,10,,,,82,110
23040,set_tempo,240,1,0,,,,,,272727,,,,,,,,
23042,note_on,21,0,7,,,,,,,,,11,,,,70,110
23043,note_on,60,0,1,,,,,,,,,0,,,,82,97
23045,note_on,60,0,2,,,,,,,,,1,,,,74,97
23045,note_on,0,0,2,,,,,,,,,1,,,,70,97
23046,note_on,21,0,8,,,,,,,,,12,,,,62,108
23050,note_on,21,0,9,,,,,,,,,13,,,,46,99
23052,note_on,21,0,10,,,,,,,,,14,,,,34,93
23081,note_on,39,0,7,,,,,,,,,11,,,,70,0
23085,note_on,39,0,8,,,,,,,,,12,,,,62,0
23089,note_on,39,0,9,,,,,,,,,13,,,,46,0
23091,note_on,39,0,10,,,,,,,,,14,,,,34,0
23100,note_on,60,0,6,,,,,,,,,10,,,,82,0
23102,note_on,21,0,7,,,,,,,,,11,,,,70,101
23103,note_on,60,0,1,,,,,,,,,0,,,,82,0
23105,note_on,0,0,2,,,,,,,,,1,,,,74,0
23105,note_on,60,0,2,,,,,,,,,1,,,,70,0
23106,note_on,21,0,8,,,,,,,,,12,,,,62,99
23110,note_on,21,0,9,,,,,,,,,13,,,,46,90
23112,note_on,21,0,10,,,,,,,,,14,,,,34,84
23141,note_on,39,0,7,,,,,,,,,11,,,,70,0
23145,note_on,39,0,8,,,,,,,,,12,,,,62,0
23149,note_on,39,0,9,,,,,,,,,13,,,,46,0
23151,note_on,39,0,10,,,,,,,,,14,,,,34,0
23160,note_on,60,0,6,,,,,,,,,10,,,,85,110
23162,note_on,21,0,7,,,,,,,,,11,,,,73,110
23163,note_on,60,0,1,,,,,,,,,0,,,,85,97
23165,note_on,60,0,2,,,,,,,,,1,,,,73,97
23165,note_on,0,0,2,,,,,,,,,1,,,,76,97
23166,note_on,21,0,8,,,,,,,,,12,,,,64,108
23170,note_on,21,0,9,,,,,,,,,13,,,,46,99
23172,note_on,21,0,10,,,,,,,,,14,,,,34,93
23201,note_on,39,0,7,,,,,,,,,11,,,,73,0
23205,note_on,39,0,8,,,,,,,,,12,,,,64,0
23209,note_on,39,0,9,,,,,,,,,13,,,,46,0
23211,note_on,39,0,10,,,,,,,,,14,,,,34,0
23220,note_on,60,0,6,,,,,,,,,10,,,,85,0
23222,note_on,21,0,7,,,,,,,,,11,,,,73,101
23223,note_on,60,0,1,,,,,,,,,0,,,,85,0
23225,note_on,0,0,2,,,,,,,,,1,,,,73,0
23225,note_on,60,0,2,,,,,,,,,1,,,,76,0
23226,note_on,21,0,8,,,,,,,,,12,,,,64,99
23230,note_on,21,0,9,,,,,,,,,13,,,,46,90
23232,note_on,21,0,10,,,,,,,,,14,,,,34,84
23261,note_on,39,0,7,,,,,,,,,11,,,,73,0
23265,note_on,39,0,8,,,,,,,,,12,,,,64,0
23269,note_on,39,0,9,,,,,,,,,13,,,,46,0
23271,note_on,39,0,10,,,,,,,,,14,,,,34,0
23280,note_on,60,0,6,,,,,,,,,10,,,,86,110
23280,set_tempo,240,1,0,,,,,,261438,,,,,,,,
23282,note_on,21,0,7,,,,,,,,,11,,,,74,110
23283,note_on,60,0,1,,,,,,,,,0,,,,86,97
23285,note_on,0,0,2,,,,,,,,,1,,,,74,97
23285,note_on,60,0,2,,,,,,,,,1,,,,77,97
23286,note_on,21,0,8,,,,,,,,,12,,,,65,108
23290,note_on,21,0,9,,,,,,,,,13,,,,46,99
23292,note_on,21,0,10,,,,,,,,,14,,,,34,93
23321,note_on,39,0,7,,,,,,,,,11,,,,74,0
23325,note_on,39,0,8,,,,,,,,,12,,,,65,0
23329,note_on,39,0,9,,,,,,,,,13,,,,46,0
23331,note_on,39,0,10,,,,,,,,,14,,,,34,0
23340,note_on,60,0,6,,,,,,,,,10,,,,86,0
23342,note_on,21,0,7,,,,,,,,,11,,,,74,101
23343,note_on,60,0,1,,,,,,,,,0,,,,86,0
23345,note_on,60,0,2,,,,,,,,,1,,,,74,0
23345,note_on,0,0,2,,,,,,,,,1,,,,77,0
23346,note_on,21,0,8,,,,,,,,,12,,,,65,99
23350,note_on,21,0,9,,,,,,,,,13,,,,46,90
23352,note_on,21,0,10,,,,,,,,,14,,,,34,84
23381,note_on,39,0,7,,,,,,,,,11,,,,74,0
23385,note_on,39,0,8,,,,,,,,,12,,,,65,0
23389,note_on,39,0,9,,,,,,,,,13,,,,46,0
23391,note_on,39,0,10,,,,,,,,,14,,,,34,0
23400,note_on,60,0,6,,,,,,,,,10,,,,88,110
23402,note_on,21,0,7,,,,,,,,,11,,,,76,110
23402,note_on,0,0,7,,,,,,,,,11,,,,73,110
23403,note_on,60,0,1,,,,,,,,,0,,,,88,97
23405,note_on,0,0,2,,,,,,,,,1,,,,73,97
23405,note_on,60,0,2,,,,,,,,,1,,,,76,97
23406,note_on,21,0,8,,,,,,,,,12,,,,70,108
23410,note_on,21,0,9,,,,,,,,,13,,,,46,99
23412,note_on,21,0,10,,,,,,,,,14,,,,34,93
23441,note_on,0,0,7,,,,,,,,,11,,,,76,0
23441,note_on,39,0,7,,,,,,,,,11,,,,73,0
23445,note_on,39,0,8,,,,,,,,,12,,,,70,0
23449,note_on,39,0,9,,,,,,,,,13,,,,46,0
23451,note_on,39,0,10,,,,,,,,,14,,,,34,0
23460,note_on,60,0,6,,,,,,,,,10,,,,88,0
23462,note_on,21,0,7,,,,,,,,,11,,,,76,101
23462,note_on,0,0,7,,,,,,,,,11,,,,73,101
23463,note_on,60,0,1,,,,,,,,,0,,,,88,0
23465,note_on,60,0,2,,,,,,,,,1,,,,73,0
23465,note_on,0,0,2,,,,,,,,,1,,,,76,0
23466,note_on,21,0,8,,,,,,,,,12,,,,70,99
23470,note_on,21,0,9,,,,,,,,,13,,,,46,90
23472,note_on,21,0,10,,,,,,,,,14,,,,34,84
23501,note_on,0,0,7,,,,,,,,,11,,,,76,0
23501,note_on,39,0,7,,,,,,,,,11,,,,73,0
23505,note_on,39,0,8,,,,,,,,,12,,,,70,0
23509,note_on,39,0,9,,,,,,,,,13,,,,46,0
23511,note_on,39,0,10,,,,,,,,,14,,,,34,0
23520,note_on,60,0,6,,,,,,,,,10,,,,89,110
23520,set_tempo,240,1,0,,,,,,272727,,,,,,,,
23522,note_on,0,0,7,,,,,,,,,11,,,,74,110
23522,note_on,21,0,7,,,,,,,,,11,,,,77,110
23523,note_on,60,0,1,,,,,,,,,0,,,,89,110
23524,note_on,600,0,4,,,,,,,,,4,,,,65,100
23525,note_on,0,0,2,,,,,,,,,1,,,,74,110
23525,note_on,60,0,2,,,,,,,,,1,,,,77,110
23526,note_on,600,0,5,,,,,,,,,5,,,,62,100
23526,note_on,21,0,8,,,,,,,,,12,,,,58,108
23530,note_on,21,0,9,,,,,,,,,13,,,,46,99
23531,note_on,960,0,3,,,,,,,,,3,,,,58,0
23531,note_on,0,0,3,,,,,,,,,3,,,,46,0
23531,note_on,0,0,3,,,,,,,,,3,,,,46,97
23532,note_on,21,0,10,,,,,,,,,14,,,,34,93
23559,note_on,39,0,6,,,,,,,,,10,,,,89,0
23561,note_on,0,0,7,,,,,,,,,11,,,,77,0
23561,note_on,39,0,7,,,,,,,,,11,,,,74,0
23580,note_on,21,0,6,,,,,,,,,10,,,,89,101
23582,note_on,21,0,7,,,,,,,,,11,,,,77,101
23582,note_on,0,0,7,,,,,,,,,11,,,,74,101
23619,note_on,39,0,6,,,,,,,,,10,,,,89,0
23621,note_on,39,0,7,,,,,,,,,11,,,,74,0
23621,note_on,0,0,7,,,,,,,,,11,,,,77,0
23640,note_on,21,0,6,,,,,,,,,10,,,,89,110
23642,note_on,0,0,7,,,,,,,,,11,,,,77,110
23642,note_on,21,0,7,,,,,,,,,11,,,,74,110
23679,note_on,39,0,6,,,,,,,,,10,,,,89,0
23681,note_on,39,0,7,,,,,,,,,11,,,,77,0
23681,note_on,0,0,7,,,,,,,,,11,,,,74,0
23700,note_on,21,0,6,,,,,,,,,10,,,,89,101
23701,note_on,175,0,8,,,,,,,,,12,,,,58,0
23702,note_on,21,0,7,,,,,,,,,11,,,,74,101
23702,note_on,0,0,7,,,,,,,,,11,,,,77,101
23705,note_on,175,0,9,,,,,,,,,13,,,,46,0
23706,note_on,5,0,8,,,,,,,,,12,,,,62,108
23706,note_on,175,0,3,,,,,,,,,3,,,,46,0
23707,note_on,175,0,10,,,,,,,,,14,,,,34,0
23710,note_on,5,0,9,,,,,,,,,13,,,,50,99
23711,note_on,5,0,3,,,,,,,,,3,,,,50,97
23712,note_on,5,0,10,,,,,,,,,14,,,,38,93
23739,note_on,39,0,6,,,,,,,,,10,,,,89,0
23741,note_on,39,0,7,,,,,,,,,11,,,,77,0
23741,note_on,0,0,7,,,,,,,,,11,,,,74,0
23745,note_on,39,0,8,,,,,,,,,12,,,,62,0
23749,note_on,39,0,9,,,,,,,,,13,,,,50,0
23751,note_on,39,0,10,,,,,,,,,14,,,,38,0
23760,note_on,21,0,6,,,,,,,,,10,,,,89,110
23760,set_tempo,240,1,0,,,,,,261438,,,,,,,,
23762,note_on,0,0,7,,,,,,,,,11,,,,74,110
23762,note_on,21,0,7,,,,,,,,,11,,,,77,110
23766,note_on,55,0,3,,,,,,,,,3,,,,50,0
23766,note_on,21,0,8,,,,,,,,,12,,,,65,108
23770,note_on,21,0,9,,,,,,,,,13,,,,53,99
23771,note_on,5,0,3,,,,,,,,,3,,,,53,97
23772,note_on,21,0,10,,,,,,,,,14,,,,41,93
23799,note_on,39,0,6,,,,,,,,,10,,,,89,0
23801,note_on,39,0,7,,,,,,,,,11,,,,74,0
23801,note_on,0,0,7,,,,,,,,,11,,,,77,0
23820,note_on,21,0,6,,,,,,,,,10,,,,89,101
23822,note_on,0,0,7,,,,,,,,,11,,,,74,101
23822,note_on,21,0,7,,,,,,,,,11,,,,77,101
23826,note_on,60,0,8,,,,,,,,,12,,,,65,0
23830,note_on,60,0,9,,,,,,,,,13,,,,53,0
23831,note_on,60,0,3,,,,,,,,,3,,,,53,0
23832,note_on,60,0,10,,,,,,,,,14,,,,41,0
23859,note_on,39,0,6,,,,,,,,,10,,,,89,0
23861,note_on,39,0,7,,,,,,,,,11,,,,74,0
23861,note_on,0,0,7,,,,,,,,,11,,,,77,0
23880,note_on,21,0,6,,,,,,,,,10,,,,89,110
23882,note_on,0,0,7,,,,,,,,,11,,,,74,110
23882,note_on,21,0,7,,,,,,,,,11,,,,77,110
23886,note_on,60,0,8,,,,,,,,,12,,,,69,108
23890,note_on,60,0,9,,,,,,,,,13,,,,57,99
23891,note_on,60,0,3,,,,,,,,,3,,,,57,97
23892,note_on,60,0,10,,,,,,,,,14,,,,45,93
23919,note_on,39,0,6,,,,,,,,,10,,,,89,0
23921,note_on,0,0,7,,,,,,,,,11,,,,77,0
23921,note_on,39,0,7,,,,,,,,,11,,,,74,0
23940,note_on,21,0,6,,,,,,,,,10,,,,89,101
23942,note_on,0,0,7,,,,,,,,,11,,,,74,101
23942,note_on,21,0,7,,,,,,,,,11,,,,77,101
23946,note_on,60,0,8,,,,,,,,,12,,,,69,0
23950,note_on,60,0,9,,,,,,,,,13,,,,57,0
23951,note_on,60,0,3,,,,,,,,,3,,,,57,0
23952,note_on,60,0,10,,,,,,,,,14,,,,45,0
23979,note_on,39,0,6,,,,,,,,,10,,,,89,0
23981,note_on,39,0,7,,,,,,,,,11,,,,74,0
23981,note_on,0,0,7,,,,,,,,,11,,,,77,0
24000,note_on,21,0,6,,,,,,,,,10,,,,89,110
24000,set_tempo,240,1,0,,,,,,272727,,,,,,,,
24002,note_on,21,0,7,,,,,,,,,11,,,,74,110
24002,note_on,0,0,7,,,,,,,,,11,,,,77,110
24006,note_on,60,0,8,,,,,,,,,12,,,,70,108
24010,note_on,60,0,9,,,,,,,,,13,,,,58,99
24011,note_on,60,0,3,,,,,,,,,3,,,,58,97
24012,note_on,60,0,10,,,,,,,,,14,,,,46,93
24039,note_on,39,0,6,,,,,,,,,10,,,,89,0
24041,note_on,39,0,7,,,,,,,,,11,,,,77,0
24041,note_on,0,0,7,,,,,,,,,11,,,,74,0
24060,note_on,21,0,6,,,,,,,,,10,,,,89,101
24062,note_on,0,0,7,,,,,,,,,11,,,,74,101
24062,note_on,21,0,7,,,,,,,,,11,,,,77,101
24066,note_on,60,0,8,,,,,,,,,12,,,,70,0
24070,note_on,60,0,9,,,,,,,,,13,,,,58,0
24071,note_on,60,0,3,,,,,,,,,3,,,,58,0
24072,note_on,60,0,10,,,,,,,,,14,,,,46,0
24099,note_on,39,0,6,,,,,,,,,10,,,,89,0
24101,note_on,39,0,7,,,,,,,,,11,,,,74,0
24101,note_on,0,0,7,,,,,,,,,11,,,,77,0
24120,note_on,21,0,6,,,,,,,,,10,,,,89,110
24122,note_on,21,0,7,,,,,,,,,11,,,,77,110
24122,note_on,0,0,7,,,,,,,,,11,,,,74,110
24126,note_on,60,0,8,,,,,,,,,12,,,,73,108
24130,note_on,60,0,9,,,,,,,,,13,,,,61,99
24131,note_on,60,0,3,,,,,,,,,3,,,,61,97
24132,note_on,60,0,10,,,,,,,,,14,,,,49,93
24159,note_on,39,0,6,,,,,,,,,10,,,,89,0
24161,note_on,39,0,7,,,,,,,,,11,,,,74,0
24161,note_on,0,0,7,,,,,,,,,11,,,,77,0
24180,note_on,21,0,6,,,,,,,,,10,,,,89,101
24182,note_on,21,0,7,,,,,,,,,11,,,,77,101
24182,note_on,0,0,7,,,,,,,,,11,,,,74,101
24186,note_on,60,0,8,,,,,,,,,12,,,,73,0
24190,note_on,60,0,9,,,,,,,,,13,,,,61,0
24191,note_on,60,0,3,,,,,,,,,3,,,,61,0
24192,note_on,60,0,10,,,,,,,,,14,,,,49,0
24219,note_on,39,0,6,,,,,,,,,10,,,,89,0
24221,note_on,0,0,7,,,,,,,,,11,,,,77,0
24221,note_on,39,0,7,,,,,,,,,11,,,,74,0
24240,note_on,21,0,6,,,,,,,,,10,,,,89,110
24240,set_tempo,240,1,0,,,,,,261438,,,,,,,,
24242,note_on,0,0,7,,,,,,,,,11,,,,77,110
24242,note_on,21,0,7,,,,,,,,,11,,,,74,110
24246,note_on,60,0,8,,,,,,,,,12,,,,74,108
24250,note_on,60,0,9,,,,,,,,,13,,,,62,99
24251,note_on,60,0,3,,,,,,,,,3,,,,62,97
24252,note_on,60,0,10,,,,,,,,,14,,,,50,93
24279,note_on,39,0,6,,,,,,,,,10,,,,89,0
24281,note_on,39,0,7,,,,,,,,,11,,,,77,0
24281,note_on,0,0,7,,,,,,,,,11,,,,74,0
24300,note_on,21,0,6,,,,,,,,,10,,,,89,101
24302,note_on,21,0,7,,,,,,,,,11,,,,77,101
24302,note_on,0,0,7,,,,,,,,,11,,,,74,101
24306,note_on,60,0,8,,,,,,,,,12,,,,74,0
24310,note_on,60,0,9,,,,,,,,,13,,,,62,0
24311,note_on,60,0,3,,,,,,,,,3,,,,62,0
24312,note_on,60,0,10,,,,,,,,,14,,,,50,0
24339,note_on,39,0,6,,,,,,,,,10,,,,89,0
24341,note_on,0,0,7,,,,,,,,,11,,,,77,0
24341,note_on,39,0,7,,,,,,,,,11,,,,74,0
24360,note_on,21,0,6,,,,,,,,,10,,,,89,110
24362,note_on,0,0,7,,,,,,,,,11,,,,74,110
24362,note_on,21,0,7,,,,,,,,,11,,,,77,110
24366,note_on,60,0,8,,,,,,,,,12,,,,77,108
24370,note_on,60,0,9,,,,,,,,,13,,,,65,99
24371,note_on,60,0,3,,,,,,,,,3,,,,65,97
24372,note_on,60,0,10,,,,,,,,,14,,,,53,93
24399,note_on,39,0,6,,,,,,,,,10,,,,89,0
24401,note_on,0,0,7,,,,,,,,,11,,,,77,0
24401,note_on,39,0,7,,,,,,,,,11,,,,74,0
24420,note_on,21,0,6,,,,,,,,,10,,,,89,101
24422,note_on,21,0,7,,,,,,,,,11,,,,77,101
24422,note_on,0,0,7,,,,,,,,,11,,,,74,101
24426,note_on,60,0,8,,,,,,,,,12,,,,77,0
24430,note_on,60,0,9,,,,,,,,,13,,,,65,0
24431,note_on,60,0,3,,,,,,,,,3,,,,65,0
24432,note_on,60,0,10,,,,,,,,,14,,,,53,0
24459,note_on,39,0,6,,,,,,,,,10,,,,89,0
24461,note_on,0,0,7,,,,,,,,,11,,,,77,0
24461,note_on,39,0,7,,,,,,,,,11,,,,74,0
24480,control_change,21,0,6,,,,,,,,,10,11,85,,,
24480,note_on,0,0,6,,,,,,,,,10,,,,78,110
24480,set_tempo,240,1,0,,,,,,272727,,,,,,,,
24482,control_change,21,0,7,,,,,,,,,11,11,85,,,
24482,note_on,0,0,7,,,,,,,,,11,,,,72,110
24482,note_on,0,0,7,,,,,,,,,11,,,,78,110
24483,control_change,0,0,1,,,,,,,,,0,11,85,,,
24483,note_on,0,0,1,,,,,,,,,0,,,,90,97
24483,note_on,960,0,1,,,,,,,,,0,,,,89,0
24484,note_on,960,0,4,,,,,,,,,4,,,,65,0
24484,control_change,0,0,4,,,,,,,,,4,11,85,,,
24484,note_on,0,0,4,,,,,,,,,4,,,,62,96
24485,control_change,0,0,2,,,,,,,,,1,11,85,,,
24485,note_on,0,0,2,,,,,,,,,1,,,,69,97
24485,control_change,5,0,6,,,,,,,,,10,11,89,,,
24485,note_on,0,0,2,,,,,,,,,1,,,,72,97
24485,note_on,960,0,2,,,,,,,,,1,,,,74,0
24485,note_on,0,0,2,,,,,,,,,1,,,,77,0
24486,control_change,60,0,8,,,,,,,,,12,11,85,,,
24486,note_on,0,0,5,,,,,,,,,5,,,,50,96
24486,control_change,0,0,5,,,,,,,,,5,11,85,,,
24486,note_on,0,0,8,,,,,,,,,12,,,,69,108
24486,note_on,960,0,5,,,,,,,,,5,,,,62,0
24487,control_change,5,0,7,,,,,,,,,11,11,89,,,
24488,control_change,5,0,1,,,,,,,,,0,11,89,,,
24489,control_change,5,0,4,,,,,,,,,4,11,89,,,
24490,note_on,0,0,9,,,,,,,,,13,,,,50,99
24490,control_change,60,0,9,,,,,,,,,13,11,85,,,
24490,control_change,5,0,2,,,,,,,,,1,11,89,,,
24491,control_change,5,0,8,,,,,,,,,12,11,89,,,
24491,control_change,60,0,3,,,,,,,,,3,11,85,,,
24491,note_on,0,0,3,,,,,,,,,3,,,,50,97
24491,control_change,5,0,5,,,,,,,,,5,11,89,,,
24492,control_change,60,0,10,,,,,,,,,14,11,85,,,
24492,note_on,0,0,10,,,,,,,,,14,,,,38,93
24495,control_change,5,0,9,,,,,,,,,13,11,89,,,
24496,control_change,5,0,3,,,,,,,,,3,11,89,,,
24497,control_change,5,0,10,,,,,,,,,14,11,89,,,
24507,control_change,22,0,6,,,,,,,,,10,11,91,,,
24509,control_change,22,0,7,,,,,,,,,11,11,91,,,
24510,control_change,22,0,1,,,,,,,,,0,11,91,,,
24511,control_change,22,0,4,,,,,,,,,4,11,91,,,
24512,control_change,22,0,2,,,,,,,,,1,11,91,,,
24513,control_change,22,0,5,,,,,,,,,5,11,91,,,
24513,control_change,22,0,8,,,,,,,,,12,11,91,,,
24517,control_change,22,0,9,,,,,,,,,13,11,91,,,
24518,control_change,22,0,3,,,,,,,,,3,11,91,,,
24519,control_change,22,0,10,,,,,,,,,14,11,91,,,
24525,control_change,18,0,6,,,,,,,,,10,11,89,,,
24527,control_change,18,0,7,,,,,,,,,11,11,89,,,
24528,control_change,18,0,1,,,,,,,,,0,11,89,,,
24529,control_change,18,0,4,,,,,,,,,4,11,89,,,
24530,control_change,18,0,2,,,,,,,,,1,11,89,,,
24531,control_change,18,0,5,,,,,,,,,5,11,89,,,
24531,control_change,18,0,8,,,,,,,,,12,11,89,,,
24535,control_change,18,0,9,,,,,,,,,13,11,89,,,
24536,control_change,18,0,3,,,,,,,,,3,11,89,,,
24537,control_change,18,0,10,,,,,,,,,14,11,89,,,
24543,control_change,18,0,6,,,,,,,,,10,11,88,,,
24545,control_change,18,0,7,,,,,,,,,11,11,88,,,
24546,control_change,18,0,1,,,,,,,,,0,11,88,,,
24547,control_change,18,0,4,,,,,,,,,4,11,88,,,
24548,control_change,18,0,2,,,,,,,,,1,11,88,,,
24549,control_change,18,0,5,,,,,,,,,5,11,88,,,
24549,control_change,18,0,8,,,,,,,,,12,11,88,,,
24553,control_change,18,0,9,,,,,,,,,13,11,88,,,
24554,control_change,18,0,3,,,,,,,,,3,11,88,,,
24555,control_change,18,0,10,,,,,,,,,14,11,88,,,
24561,control_change,18,0,6,,,,,,,,,10,11,86,,,
24563,control_change,18,0,7,,,,,,,,,11,11,86,,,
24564,control_change,18,0,1,,,,,,,,,0,11,86,,,
24565,control_change,18,0,4,,,,,,,,,4,11,86,,,
24566,control_change,18,0,2,,,,,,,,,1,11,86,,,
24567,control_change,18,0,5,,,,,,,,,5,11,86,,,
24567,control_change,18,0,8,,,,,,,,,12,11,86,,,
24571,control_change,18,0,9,,,,,,,,,13,11,86,,,
24572,control_change,18,0,3,,,,,,,,,3,11,86,,,
24573,control_change,18,0,10,,,,,,,,,14,11,86,,,
24579,control_change,18,0,6,,,,,,,,,10,11,85,,,
24581,control_change,18,0,7,,,,,,,,,11,11,85,,,
24582,control_change,18,0,1,,,,,,,,,0,11,85,,,
24583,control_change,18,0,4,,,,,,,,,4,11,85,,,
24584,control_change,18,0,2,,,,,,,,,1,11,85,,,
24585,control_change,18,0,5,,,,,,,,,5,11,85,,,
24585,control_change,18,0,8,,,,,,,,,12,11,85,,,
24589,control_change,18,0,9,,,,,,,,,13,11,85,,,
24590,control_change,18,0,3,,,,,,,,,3,11,85,,,
24591,control_change,18,0,10,,,,,,,,,14,11,85,,,
24597,control_change,18,0,6,,,,,,,,,10,11,84,,,
24599,control_change,18,0,7,,,,,,,,,11,11,84,,,
24600,control_change,18,0,1,,,,,,,,,0,11,84,,,
24601,control_change,18,0,4,,,,,,,,,4,11,84,,,
24602,control_change,18,0,2,,,,,,,,,1,11,84,,,
24603,control_change,18,0,5,,,,,,,,,5,11,84,,,
24603,control_change,18,0,8,,,,,,,,,12,11,84,,,
24607,control_change,18,0,9,,,,,,,,,13,11,84,,,
24608,control_change,18,0,3,,,,,,,,,3,11,84,,,
24609,control_change,18,0,10,,,,,,,,,14,11,84,,,
24612,note_on,15,0,6,,,,,,,,,10,,,,78,0
24614,note_on,0,0,7,,,,,,,,,11,,,,72,0
24614,note_on,15,0,7,,,,,,,,,11,,,,78,0
24615,control_change,3,0,6,,,,,,,,,10,11,82,,,
24617,control_change,3,0,7,,,,,,,,,11,11,82,,,
24618,control_change,18,0,1,,,,,,,,,0,11,82,,,
24618,note_on,15,0,8,,,,,,,,,12,,,,69,0
24619,control_change,18,0,4,,,,,,,,,4,11,82,,,
24620,control_change,18,0,2,,,,,,,,,1,11,82,,,
24621,control_change,3,0,8,,,,,,,,,12,11,82,,,
24621,control_change,18,0,5,,,,,,,,,5,11,82,,,
24625,control_change,18,0,9,,,,,,,,,13,11,82,,,
24626,control_change,18,0,3,,,,,,,,,3,11,82,,,
24627,control_change,18,0,10,,,,,,,,,14,11,82,,,
24633,control_change,18,0,6,,,,,,,,,10,11,81,,,
24635,control_change,18,0,7,,,,,,,,,11,11,81,,,
24636,control_change,18,0,1,,,,,,,,,0,11,81,,,
24637,control_change,18,0,4,,,,,,,,,4,11,81,,,
24638,control_change,18,0,2,,,,,,,,,1,11,81,,,
24639,control_change,18,0,8,,,,,,,,,12,11,81,,,
24639,control_change,18,0,5,,,,,,,,,5,11,81,,,
24643,control_change,18,0,9,,,,,,,,,13,11,81,,,
24644,control_change,18,0,3,,,,,,,,,3,11,81,,,
24645,control_change,18,0,10,,,,,,,,,14,11,81,,,
24651,control_change,18,0,6,,,,,,,,,10,11,80,,,
24653,note_on,17,0,1,,,,,,,,,0,,,,90,0
24653,control_change,18,0,7,,,,,,,,,11,11,80,,,
24654,control_change,1,0,1,,,,,,,,,0,11,80,,,
24655,control_change,18,0,4,,,,,,,,,4,11,80,,,
24655,note_on,17,0,2,,,,,,,,,1,,,,72,0
24655,note_on,0,0,2,,,,,,,,,1,,,,69,0
24656,control_change,1,0,2,,,,,,,,,1,11,80,,,
24657,control_change,18,0,8,,,,,,,,,12,11,80,,,
24657,control_change,18,0,5,,,,,,,,,5,11,80,,,
24660,note_on,9,0,6,,,,,,,,,10,,,,79,110
24661,control_change,18,0,9,,,,,,,,,13,11,80,,,
24662,control_change,18,0,3,,,,,,,,,3,11,80,,,
24662,note_on,9,0,7,,,,,,,,,11,,,,74,110
24663,note_on,9,0,1,,,,,,,,,0,,,,91,97
24663,control_change,18,0,10,,,,,,,,,14,11,80,,,
24665,note_on,0,0,2,,,,,,,,,1,,,,70,97
24665,note_on,9,0,2,,,,,,,,,1,,,,74,97
24666,note_on,9,0,8,,,,,,,,,12,,,,70,108
24705,note_on,45,0,6,,,,,,,,,10,,,,79,0
24707,note_on,45,0,7,,,,,,,,,11,,,,74,0
24711,note_on,45,0,8,,,,,,,,,12,,,,70,0
24713,note_on,50,0,1,,,,,,,,,0,,,,91,0
24714,note_on,59,0,4,,,,,,,,,4,,,,62,0
24715,note_on,0,0,2,,,,,,,,,1,,,,74,0
24715,note_on,50,0,2,,,,,,,,,1,,,,70,0
24716,note_on,59,0,5,,,,,,,,,5,,,,50,0
24720,control_change,15,0,6,,,,,,,,,10,11,85,,,
24720,note_on,0,0,6,,,,,,,,,10,,,,81,110
24720,set_tempo,240,1,0,,,,,,261438,,,,,,,,
24721,note_on,59,0,3,,,,,,,,,3,,,,50,0
24722,note_on,0,0,7,,,,,,,,,11,,,,75,110
24722,control_change,15,0,7,,,,,,,,,11,11,85,,,
24723,control_change,10,0,1,,,,,,,,,0,11,85,,,
24723,note_on,0,0,1,,,,,,,,,0,,,,93,97
24724,note_on,0,0,4,,,,,,,,,4,,,,62,96
24724,control_change,10,0,4,,,,,,,,,4,11,85,,,
24725,control_change,5,0,6,,,,,,,,,10,11,89,,,
24725,note_on,64,0,9,,,,,,,,,13,,,,50,0
24725,note_on,0,0,2,,,,,,,,,1,,,,72,97
24725,note_on,0,0,2,,,,,,,,,1,,,,75,97
24725,control_change,10,0,2,,,,,,,,,1,11,85,,,
24726,control_change,10,0,5,,,,,,,,,5,11,85,,,
24726,note_on,0,0,5,,,,,,,,,5,,,,50,96
24726,control_change,15,0,8,,,,,,,,,12,11,85,,,
24726,note_on,0,0,8,,,,,,,,,12,,,,72,108
24727,note_on,64,0,10,,,,,,,,,14,,,,38,0
24727,control_change,5,0,7,,,,,,,,,11,11,89,,,
24728,control_change,5,0,1,,,,,,,,,0,11,89,,,
24729,control_change,5,0,4,,,,,,,,,4,11,89,,,
24730,control_change,5,0,9,,,,,,,,,13,11,85,,,
24730,control_change,5,0,2,,,,,,,,,1,11,89,,,
24730,note_on,0,0,9,,,,,,,,,13,,,,50,99
24731,note_on,0,0,3,,,,,,,,,3,,,,50,97
24731,control_change,5,0,8,,,,,,,,,12,11,89,,,
24731,control_change,5,0,5,,,,,,,,,5,11,89,,,
24731,control_change,10,0,3,,,,,,,,,3,11,85,,,
24732,note_on,0,0,10,,,,,,,,,14,,,,38,93
24732,control_change,5,0,10,,,,,,,,,14,11,85,,,
24735,control_change,5,0,9,,,,,,,,,13,11,89,,,
24736,control_change,5,0,3,,,,,,,,,3,11,89,,,
24737,control_change,5,0,10,,,,,,,,,14,11,89,,,
24747,control_change,22,0,6,,,,,,,,,10,11,91,,,
24749,control_change,22,0,7,,,,,,,,,11,11,91,,,
24750,control_change,22,0,1,,,,,,,,,0,11,91,,,
24751,control_change,22,0,4,,,,,,,,,4,11,91,,,
24752,control_change,22,0,2,,,,,,,,,1,11,91,,,
24753,control_change,22,0,8,,,,,,,,,12,11,91,,,
24753,control_change,22,0,5,,,,,,,,,5,11,91,,,
24757,control_change,22,0,9,,,,,,,,,13,11,91,,,
24758,control_change,22,0,3,,,,,,,,,3,11,91,,,
24759,control_change,22,0,10,,,,,,,,,14,11,91,,,
24765,control_change,18,0,6,,,,,,,,,10,11,89,,,
24767,control_change,18,0,7,,,,,,,,,11,11,89,,,
24768,control_change,18,0,1,,,,,,,,,0,11,89,,,
24769,control_change,18,0,4,,,,,,,,,4,11,89,,,
24770,control_change,18,0,2,,,,,,,,,1,11,89,,,
24771,control_change,18,0,5,,,,,,,,,5,11,89,,,
24771,control_change,18,0,8,,,,,,,,,12,11,89,,,
24775,control_change,18,0,9,,,,,,,,,13,11,89,,,
24776,control_change,18,0,3,,,,,,,,,3,11,89,,,
24777,control_change,18,0,10,,,,,,,,,14,11,89,,,
24783,control_change,18,0,6,,,,,,,,,10,11,88,,,
24785,control_change,18,0,7,,,,,,,,,11,11,88,,,
24786,control_change,18,0,1,,,,,,,,,0,11,88,,,
24787,control_change,18,0,4,,,,,,,,,4,11,88,,,
24788,control_change,18,0,2,,,,,,,,,1,11,88,,,
24789,control_change,18,0,5,,,,,,,,,5,11,88,,,
24789,control_change,18,0,8,,,,,,,,,12,11,88,,,
24793,control_change,18,0,9,,,,,,,,,13,11,88,,,
24794,control_change,18,0,3,,,,,,,,,3,11,88,,,
24795,control_change,18,0,10,,,,,,,,,14,11,88,,,
24801,control_change,18,0,6,,,,,,,,,10,11,86,,,
24803,control_change,18,0,7,,,,,,,,,11,11,86,,,
24804,control_change,18,0,1,,,,,,,,,0,11,86,,,
24805,control_change,18,0,4,,,,,,,,,4,11,86,,,
24806,control_change,18,0,2,,,,,,,,,1,11,86,,,
24807,control_change,18,0,5,,,,,,,,,5,11,86,,,
24807,control_change,18,0,8,,,,,,,,,12,11,86,,,
24811,control_change,18,0,9,,,,,,,,,13,11,86,,,
24812,control_change,18,0,3,,,,,,,,,3,11,86,,,
24813,control_change,18,0,10,,,,,,,,,14,11,86,,,
24819,control_change,18,0,6,,,,,,,,,10,11,85,,,
24821,control_change,18,0,7,,,,,,,,,11,11,85,,,
24822,control_change,18,0,1,,,,,,,,,0,11,85,,,
24823,control_change,18,0,4,,,,,,,,,4,11,85,,,
24824,control_change,18,0,2,,,,,,,,,1,11,85,,,
24825,control_change,18,0,8,,,,,,,,,12,11,85,,,
24825,control_change,18,0,5,,,,,,,,,5,11,85,,,
24829,control_change,18,0,9,,,,,,,,,13,11,85,,,
24830,control_change,18,0,3,,,,,,,,,3,11,85,,,
24831,control_change,18,0,10,,,,,,,,,14,11,85,,,
24837,control_change,18,0,6,,,,,,,,,10,11,84,,,
24839,control_change,18,0,7,,,,,,,,,11,11,84,,,
24840,control_change,18,0,1,,,,,,,,,0,11,84,,,
24841,control_change,18,0,4,,,,,,,,,4,11,84,,,
24842,control_change,18,0,2,,,,,,,,,1,11,84,,,
24843,control_change,18,0,5,,,,,,,,,5,11,84,,,
24843,control_change,18,0,8,,,,,,,,,12,11,84,,,
24847,control_change,18,0,9,,,,,,,,,13,11,84,,,
24848,control_change,18,0,3,,,,,,,,,3,11,84,,,
24849,control_change,18,0,10,,,,,,,,,14,11,84,,,
24852,note_on,15,0,6,,,,,,,,,10,,,,81,0
24854,note_on,15,0,7,,,,,,,,,11,,,,75,0
24855,control_change,3,0,6,,,,,,,,,10,11,82,,,
24857,control_change,3,0,7,,,,,,,,,11,11,82,,,
24858,note_on,15,0,8,,,,,,,,,12,,,,72,0
24858,control_change,18,0,1,,,,,,,,,0,11,82,,,
24859,control_change,18,0,4,,,,,,,,,4,11,82,,,
24860,control_change,18,0,2,,,,,,,,,1,11,82,,,
24861,control_change,18,0,5,,,,,,,,,5,11,82,,,
24861,control_change,3,0,8,,,,,,,,,12,11,82,,,
24865,control_change,18,0,9,,,,,,,,,13,11,82,,,
24866,control_change,18,0,3,,,,,,,,,3,11,82,,,
24867,control_change,18,0,10,,,,,,,,,14,11,82,,,
24873,control_change,18,0,6,,,,,,,,,10,11,81,,,
24875,control_change,18,0,7,,,,,,,,,11,11,81,,,
24876,control_change,18,0,1,,,,,,,,,0,11,81,,,
24877,control_change,18,0,4,,,,,,,,,4,11,81,,,
24878,control_change,18,0,2,,,,,,,,,1,11,81,,,
24879,control_change,18,0,8,,,,,,,,,12,11,81,,,
24879,control_change,18,0,5,,,,,,,,,5,11,81,,,
24883,control_change,18,0,9,,,,,,,,,13,11,81,,,
24884,control_change,18,0,3,,,,,,,,,3,11,81,,,
24885,control_change,18,0,10,,,,,,,,,14,11,81,,,
24891,control_change,18,0,6,,,,,,,,,10,11,80,,,
24893,control_change,18,0,7,,,,,,,,,11,11,80,,,
24893,note_on,17,0,1,,,,,,,,,0,,,,93,0
24894,control_change,1,0,1,,,,,,,,,0,11,80,,,
24895,control_change,18,0,4,,,,,,,,,4,11,80,,,
24895,note_on,0,0,2,,,,,,,,,1,,,,75,0
24895,note_on,17,0,2,,,,,,,,,1,,,,72,0
24896,control_change,1,0,2,,,,,,,,,1,11,80,,,
24897,control_change,18,0,8,,,,,,,,,12,11,80,,,
24897,control_change,18,0,5,,,,,,,,,5,11,80,,,
24900,note_on,9,0,6,,,,,,,,,10,,,,79,110
24901,control_change,18,0,9,,,,,,,,,13,11,80,,,
24902,control_change,18,0,3,,,,,,,,,3,11,80,,,
24902,note_on,9,0,7,,,,,,,,,11,,,,74,110
24903,control_change,18,0,10,,,,,,,,,14,11,80,,,
24903,note_on,9,0,1,,,,,,,,,0,,,,91,97
24905,note_on,0,0,2,,,,,,,,,1,,,,70,97
24905,note_on,9,0,2,,,,,,,,,1,,,,74,97
24906,note_on,9,0,8,,,,,,,,,12,,,,70,108
24945,note_on,45,0,6,,,,,,,,,10,,,,79,0
24947,note_on,45,0,7,,,,,,,,,11,,,,74,0
24951,note_on,45,0,8,,,,,,,,,12,,,,70,0
24953,note_on,50,0,1,,,,,,,,,0,,,,91,0
24954,note_on,59,0,4,,,,,,,,,4,,,,62,0
24955,note_on,0,0,2,,,,,,,,,1,,,,74,0
24955,note_on,50,0,2,,,,,,,,,1,,,,70,0
24956,note_on,59,0,5,,,,,,,,,5,,,,50,0
24960,set_tempo,240,1,0,,,,,,272727,,,,,,,,
24960,note_on,0,0,6,,,,,,,,,10,,,,78,110
24960,control_change,15,0,6,,,,,,,,,10,11,85,,,
24961,note_on,59,0,3,,,,,,,,,3,,,,50,0
24962,note_on,0,0,7,,,,,,,,,11,,,,72,110
24962,control_change,15,0,7,,,,,,,,,11,11,85,,,
24963,note_on,0,0,1,,,,,,,,,0,,,,90,97
24963,control_change,10,0,1,,,,,,,,,0,11,85,,,
24964,control_change,10,0,4,,,,,,,,,4,11,85,,,
24964,note_on,0,0,4,,,,,,,,,4,,,,62,96
24965,control_change,10,0,2,,,,,,,,,1,11,85,,,
24965,note_on,0,0,2,,,,,,,,,1,,,,72,97
24965,note_on,0,0,2,,,,,,,,,1,,,,69,97
24965,control_change,5,0,6,,,,,,,,,10,11,89,,,
24965,note_on,64,0,9,,,,,,,,,13,,,,50,0
24966,control_change,10,0,5,,,,,,,,,5,11,85,,,
24966,control_change,15,0,8,,,,,,,,,12,11,85,,,
24966,note_on,0,0,8,,,,,,,,,12,,,,69,108
24966,note_on,0,0,5,,,,,,,,,5,,,,50,96
24967,note_on,64,0,10,,,,,,,,,14,,,,38,0
24967,control_change,5,0,7,,,,,,,,,11,11,89,,,
24968,control_change,5,0,1,,,,,,,,,0,11,89,,,
24969,control_change,5,0,4,,,,,,,,,4,11,89,,,
24970,control_change,5,0,9,,,,,,,,,13,11,85,,,
24970,control_change,5,0,2,,,,,,,,,1,11,89,,,
24970,note_on,0,0,9,,,,,,,,,13,,,,50,99
24971,control_change,10,0,3,,,,,,,,,3,11,85,,,
24971,note_on,0,0,3,,,,,,,,,3,,,,50,97
24971,control_change,5,0,5,,,,,,,,,5,11,89,,,
24971,control_change,5,0,8,,,,,,,,,12,11,89,,,
24972,control_change,5,0,10,,,,,,,,,14,11,85,,,
24972,note_on,0,0,10,,,,,,,,,14,,,,38,93
24975,control_change,5,0,9,,,,,,,,,13,11,89,,,
24976,control_change,5,0,3,,,,,,,,,3,11,89,,,
24977,control_change,5,0,10,,,,,,,,,14,11,89,,,
24987,control_change,22,0,6,,,,,,,,,10,11,91,,,
24989,control_change,22,0,7,,,,,,,,,11,11,91,,,
24990,control_change,22,0,1,,,,,,,,,0,11,91,,,
24991,control_change,22,0,4,,,,,,,,,4,11,91,,,
24992,control_change,22,0,2,,,,,,,,,1,11,91,,,
24993,control_change,22,0,5,,,,,,,,,5,11,91,,,
24993,control_change,22,0,8,,,,,,,,,12,11,91,,,
24997,control_change,22,0,9,,,,,,,,,13,11,91,,,
24998,control_change,22,0,3,,,,,,,,,3,11,91,,,
24999,control_change,22,0,10,,,,,,,,,14,11,91,,,
25005,control_change,18,0,6,,,,,,,,,10,11,89,,,
25007,control_change,18,0,7,,,,,,,,,11,11,89,,,
25008,control_change,18,0,1,,,,,,,,,0,11,89,,,
25009,control_change,18,0,4,,,,,,,,,4,11,89,,,
25010,control_change,18,0,2,,,,,,,,,1,11,89,,,
25011,control_change,18,0,5,,,,,,,,,5,11,89,,,
25011,control_change,18,0,8,,,,,,,,,12,11,89,,,
25015,control_change,18,0,9,,,,,,,,,13,11,89,,,
25016,control_change,18,0,3,,,,,,,,,3,11,89,,,
25017,control_change,18,0,10,,,,,,,,,14,11,89,,,
25023,control_change,18,0,6,,,,,,,,,10,11,88,,,
25025,control_change,18,0,7,,,,,,,,,11,11,88,,,
25026,control_change,18,0,1,,,,,,,,,0,11,88,,,
25027,control_change,18,0,4,,,,,,,,,4,11,88,,,
25028,control_change,18,0,2,,,,,,,,,1,11,88,,,
25029,control_change,18,0,8,,,,,,,,,12,11,88,,,
25029,control_change,18,0,5,,,,,,,,,5,11,88,,,
25033,control_change,18,0,9,,,,,,,,,13,11,88,,,
25034,control_change,18,0,3,,,,,,,,,3,11,88,,,
25035,control_change,18,0,10,,,,,,,,,14,11,88,,,
25041,control_change,18,0,6,,,,,,,,,10,11,86,,,
25043,control_change,18,0,7,,,,,,,,,11,11,86,,,
25044,control_change,18,0,1,,,,,,,,,0,11,86,,,
25045,control_change,18,0,4,,,,,,,,,4,11,86,,,
25046,control_change,18,0,2,,,,,,,,,1,11,86,,,
25047,control_change,18,0,5,,,,,,,,,5,11,86,,,
25047,control_change,18,0,8,,,,,,,,,12,11,86,,,
25051,control_change,18,0,9,,,,,,,,,13,11,86,,,
25052,control_change,18,0,3,,,,,,,,,3,11,86,,,
25053,control_change,18,0,10,,,,,,,,,14,11,86,,,
25059,control_change,18,0,6,,,,,,,,,10,11,85,,,
25061,control_change,18,0,7,,,,,,,,,11,11,85,,,
25062,control_change,18,0,1,,,,,,,,,0,11,85,,,
25063,control_change,18,0,4,,,,,,,,,4,11,85,,,
25064,control_change,18,0,2,,,,,,,,,1,11,85,,,
25065,control_change,18,0,5,,,,,,,,,5,11,85,,,
25065,control_change,18,0,8,,,,,,,,,12,11,85,,,
25069,control_change,18,0,9,,,,,,,,,13,11,85,,,
25070,control_change,18,0,3,,,,,,,,,3,11,85,,,
25071,control_change,18,0,10,,,,,,,,,14,11,85,,,
25077,control_change,18,0,6,,,,,,,,,10,11,84,,,
25079,control_change,18,0,7,,,,,,,,,11,11,84,,,
25080,control_change,18,0,1,,,,,,,,,0,11,84,,,
25081,control_change,18,0,4,,,,,,,,,4,11,84,,,
25082,control_change,18,0,2,,,,,,,,,1,11,84,,,
25083,control_change,18,0,5,,,,,,,,,5,11,84,,,
25083,control_change,18,0,8,,,,,,,,,12,11,84,,,
25087,control_change,18,0,9,,,,,,,,,13,11,84,,,
25088,control_change,18,0,3,,,,,,,,,3,11,84,,,
25089,control_change,18,0,10,,,,,,,,,14,11,84,,,
25092,note_on,15,0,6,,,,,,,,,10,,,,78,0
25094,note_on,15,0,7,,,,,,,,,11,,,,72,0
25095,control_change,3,0,6,,,,,,,,,10,11,82,,,
25097,control_change,3,0,7,,,,,,,,,11,11,82,,,
25098,note_on,15,0,8,,,,,,,,,12,,,,69,0
25098,control_change,18,0,1,,,,,,,,,0,11,82,,,
25099,control_change,18,0,4,,,,,,,,,4,11,82,,,
25100,control_change,18,0,2,,,,,,,,,1,11,82,,,
25101,control_change,18,0,5,,,,,,,,,5,11,82,,,
25101,control_change,3,0,8,,,,,,,,,12,11,82,,,
25105,control_change,18,0,9,,,,,,,,,13,11,82,,,
25106,control_change,18,0,3,,,,,,,,,3,11,82,,,
25107,control_change,18,0,10,,,,,,,,,14,11,82,,,
25113,control_change,18,0,6,,,,,,,,,10,11,81,,,
25115,control_change,18,0,7,,,,,,,,,11,11,81,,,
25116,control_change,18,0,1,,,,,,,,,0,11,81,,,
25117,control_change,18,0,4,,,,,,,,,4,11,81,,,
25118,control_change,18,0,2,,,,,,,,,1,11,81,,,
25119,control_change,18,0,5,,,,,,,,,5,11,81,,,
25119,control_change,18,0,8,,,,,,,,,12,11,81,,,
25123,control_change,18,0,9,,,,,,,,,13,11,81,,,
25124,control_change,18,0,3,,,,,,,,,3,11,81,,,
25125,control_change,18,0,10,,,,,,,,,14,11,81,,,
25131,control_change,18,0,6,,,,,,,,,10,11,80,,,
25133,control_change,18,0,7,,,,,,,,,11,11,80,,,
25133,note_on,17,0,1,,,,,,,,,0,,,,90,0
25134,control_change,1,0,1,,,,,,,,,0,11,80,,,
25135,note_on,0,0,2,,,,,,,,,1,,,,72,0
25135,note_on,17,0,2,,,,,,,,,1,,,,69,0
25135,control_change,18,0,4,,,,,,,,,4,11,80,,,
25136,control_change,1,0,2,,,,,,,,,1,11,80,,,
25137,control_change,18,0,8,,,,,,,,,12,11,80,,,
25137,control_change,18,0,5,,,,,,,,,5,11,80,,,
25140,note_on,9,0,6,,,,,,,,,10,,,,75,110
25141,control_change,18,0,9,,,,,,,,,13,11,80,,,
25142,note_on,9,0,7,,,,,,,,,11,,,,70,110
25142,control_change,18,0,3,,,,,,,,,3,11,80,,,
25143,control_change,18,0,10,,,,,,,,,14,11,80,,,
25143,note_on,9,0,1,,,,,,,,,0,,,,87,97
25145,note_on,0,0,2,,,,,,,,,1,,,,67,97
25145,note_on,9,0,2,,,,,,,,,1,,,,70,97
25146,note_on,9,0,8,,,,,,,,,12,,,,67,108
25185,note_on,45,0,6,,,,,,,,,10,,,,75,0
25187,note_on,45,0,7,,,,,,,,,11,,,,70,0
25191,note_on,45,0,8,,,,,,,,,12,,,,67,0
25193,note_on,50,0,1,,,,,,,,,0,,,,87,0
25194,note_on,59,0,4,,,,,,,,,4,,,,62,0
25195,note_on,50,0,2,,,,,,,,,1,,,,67,0
25195,note_on,0,0,2,,,,,,,,,1,,,,70,0
25196,note_on,59,0,5,,,,,,,,,5,,,,50,0
25200,set_tempo,240,1,0,,,,,,261438,,,,,,,,
25200,control_change,15,0,6,,,,,,,,,10,11,85,,,
25200,note_on,0,0,6,,,,,,,,,10,,,,74,110
25201,note_on,59,0,3,,,,,,,,,3,,,,50,0
25202,note_on,0,0,7,,,,,,,,,11,,,,69,110
25202,control_change,15,0,7,,,,,,,,,11,11,85,,,
25203,control_change,10,0,1,,,,,,,,,0,11,85,,,
25203,note_on,0,0,1,,,,,,,,,0,,,,86,97
25204,control_change,10,0,4,,,,,,,,,4,11,85,,,
25204,note_on,0,0,4,,,,,,,,,4,,,,62,96
25205,control_change,5,0,6,,,,,,,,,10,11,89,,,
25205,control_change,10,0,2,,,,,,,,,1,11,85,,,
25205,note_on,0,0,2,,,,,,,,,1,,,,69,97
25205,note_on,64,0,9,,,,,,,,,13,,,,50,0
25205,note_on,0,0,2,,,,,,,,,1,,,,66,97
25206,note_on,0,0,5,,,,,,,,,5,,,,50,96
25206,control_change,10,0,5,,,,,,,,,5,11,85,,,
25206,control_change,15,0,8,,,,,,,,,12,11,85,,,
25206,note_on,0,0,8,,,,,,,,,12,,,,66,108
25207,note_on,64,0,10,,,,,,,,,14,,,,38,0
25207,control_change,5,0,7,,,,,,,,,11,11,89,,,
25208,control_change,5,0,1,,,,,,,,,0,11,89,,,
25209,control_change,5,0,4,,,,,,,,,4,11,89,,,
25210,control_change,5,0,9,,,,,,,,,13,11,85,,,
25210,note_on,0,0,9,,,,,,,,,13,,,,50,99
25210,control_change,5,0,2,,,,,,,,,1,11,89,,,
25211,control_change,5,0,8,,,,,,,,,12,11,89,,,
25211,note_on,0,0,3,,,,,,,,,3,,,,50,97
25211,control_change,10,0,3,,,,,,,,,3,11,85,,,
25211,control_change,5,0,5,,,,,,,,,5,11,89,,,
25212,control_change,5,0,10,,,,,,,,,14,11,85,,,
25212,note_on,0,0,10,,,,,,,,,14,,,,38,93
25215,control_change,5,0,9,,,,,,,,,13,11,89,,,
25216,control_change,5,0,3,,,,,,,,,3,11,89,,,
25217,control_change,5,0,10,,,,,,,,,14,11,89,,,
25227,control_change,22,0,6,,,,,,,,,10,11,91,,,
25229,control_change,22,0,7,,,,,,,,,11,11,91,,,
25230,control_change,22,0,1,,,,,,,,,0,11,91,,,
25231,control_change,22,0,4,,,,,,,,,4,11,91,,,
25232,control_change,22,0,2,,,,,,,,,1,11,91,,,
25233,control_change,22,0,5,,,,,,,,,5,11,91,,,
25233,control_change,22,0,8,,,,,,,,,12,11,91,,,
25237,control_change,22,0,9,,,,,,,,,13,11,91,,,
25238,control_change,22,0,3,,,,,,,,,3,11,91,,,
25239,control_change,22,0,10,,,,,,,,,14,11,91,,,
25245,control_change,18,0,6,,,,,,,,,10,11,89,,,
25247,control_change,18,0,7,,,,,,,,,11,11,89,,,
25248,control_change,18,0,1,,,,,,,,,0,11,89,,,
25249,control_change,18,0,4,,,,,,,,,4,11,89,,,
25250,control_change,18,0,2,,,,,,,,,1,11,89,,,
25251,control_change,18,0,5,,,,,,,,,5,11,89,,,
25251,control_change,18,0,8,,,,,,,,,12,11,89,,,
25255,control_change,18,0,9,,,,,,,,,13,11,89,,,
25256,control_change,18,0,3,,,,,,,,,3,11,89,,,
25257,control_change,18,0,10,,,,,,,,,14,11,89,,,
25263,control_change,18,0,6,,,,,,,,,10,11,88,,,
25265,control_change,18,0,7,,,,,,,,,11,11,88,,,
25266,control_change,18,0,1,,,,,,,,,0,11,88,,,
25267,control_change,18,0,4,,,,,,,,,4,11,88,,,
25268,control_change,18,0,2,,,,,,,,,1,11,88,,,
25269,control_change,18,0,5,,,,,,,,,5,11,88,,,
25269,control_change,18,0,8,,,,,,,,,12,11,88,,,
25273,control_change,18,0,9,,,,,,,,,13,11,88,,,
25274,control_change,18,0,3,,,,,,,,,3,11,88,,,
25275,control_change,18,0,10,,,,,,,,,14,11,88,,,
25281,control_change,18,0,6,,,,,,,,,10,11,86,,,
25283,control_change,18,0,7,,,,,,,,,11,11,86,,,
25284,control_change,18,0,1,,,,,,,,,0,11,86,,,
25285,control_change,18,0,4,,,,,,,,,4,11,86,,,
25286,control_change,18,0,2,,,,,,,,,1,11,86,,,
25287,control_change,18,0,5,,,,,,,,,5,11,86,,,
25287,control_change,18,0,8,,,,,,,,,12,11,86,,,
25291,control_change,18,0,9,,,,,,,,,13,11,86,,,
25292,control_change,18,0,3,,,,,,,,,3,11,86,,,
25293,control_change,18,0,10,,,,,,,,,14,11,86,,,
25299,control_change,18,0,6,,,,,,,,,10,11,85,,,
25301,control_change,18,0,7,,,,,,,,,11,11,85,,,
25302,control_change,18,0,1,,,,,,,,,0,11,85,,,
25303,control_change,18,0,4,,,,,,,,,4,11,85,,,
25304,control_change,18,0,2,,,,,,,,,1,11,85,,,
25305,control_change,18,0,8,,,,,,,,,12,11,85,,,
25305,control_change,18,0,5,,,,,,,,,5,11,85,,,
25309,control_change,18,0,9,,,,,,,,,13,11,85,,,
25310,control_change,18,0,3,,,,,,,,,3,11,85,,,
25311,control_change,18,0,10,,,,,,,,,14,11,85,,,
25317,control_change,18,0,6,,,,,,,,,10,11,84,,,
25319,control_change,18,0,7,,,,,,,,,11,11,84,,,
25320,control_change,18,0,1,,,,,,,,,0,11,84,,,
25321,control_change,18,0,4,,,,,,,,,4,11,84,,,
25322,control_change,18,0,2,,,,,,,,,1,11,84,,,
25323,control_change,18,0,5,,,,,,,,,5,11,84,,,
25323,control_change,18,0,8,,,,,,,,,12,11,84,,,
25327,control_change,18,0,9,,,,,,,,,13,11,84,,,
25328,control_change,18,0,3,,,,,,,,,3,11,84,,,
25329,control_change,18,0,10,,,,,,,,,14,11,84,,,
25332,note_on,15,0,6,,,,,,,,,10,,,,74,0
25334,note_on,15,0,7,,,,,,,,,11,,,,69,0
25335,control_change,3,0,6,,,,,,,,,10,11,82,,,
25337,control_change,3,0,7,,,,,,,,,11,11,82,,,
25338,note_on,15,0,8,,,,,,,,,12,,,,66,0
25338,control_change,18,0,1,,,,,,,,,0,11,82,,,
25339,control_change,18,0,4,,,,,,,,,4,11,82,,,
25340,control_change,18,0,2,,,,,,,,,1,11,82,,,
25341,control_change,3,0,8,,,,,,,,,12,11,82,,,
25341,control_change,18,0,5,,,,,,,,,5,11,82,,,
25345,control_change,18,0,9,,,,,,,,,13,11,82,,,
25346,control_change,18,0,3,,,,,,,,,3,11,82,,,
25347,control_change,18,0,10,,,,,,,,,14,11,82,,,
25353,control_change,18,0,6,,,,,,,,,10,11,81,,,
25355,control_change,18,0,7,,,,,,,,,11,11,81,,,
25356,control_change,18,0,1,,,,,,,,,0,11,81,,,
25357,control_change,18,0,4,,,,,,,,,4,11,81,,,
25358,control_change,18,0,2,,,,,,,,,1,11,81,,,
25359,control_change,18,0,5,,,,,,,,,5,11,81,,,
25359,control_change,18,0,8,,,,,,,,,12,11,81,,,
25363,control_change,18,0,9,,,,,,,,,13,11,81,,,
25364,control_change,18,0,3,,,,,,,,,3,11,81,,,
25365,control_change,18,0,10,,,,,,,,,14,11,81,,,
25371,control_change,18,0,6,,,,,,,,,10,11,80,,,
25373,control_change,18,0,7,,,,,,,,,11,11,80,,,
25373,note_on,17,0,1,,,,,,,,,0,,,,86,0
25374,control_change,1,0,1,,,,,,,,,0,11,80,,,
25375,note_on,17,0,2,,,,,,,,,1,,,,69,0
25375,control_change,18,0,4,,,,,,,,,4,11,80,,,
25375,note_on,0,0,2,,,,,,,,,1,,,,66,0
25376,control_change,1,0,2,,,,,,,,,1,11,80,,,
25377,control_change,18,0,5,,,,,,,,,5,11,80,,,
25377,control_change,18,0,8,,,,,,,,,12,11,80,,,
25380,note_on,9,0,6,,,,,,,,,10,,,,72,110
25381,control_change,18,0,9,,,,,,,,,13,11,80,,,
25382,control_change,18,0,3,,,,,,,,,3,11,80,,,
25382,note_on,9,0,7,,,,,,,,,11,,,,66,110
25383,note_on,9,0,1,,,,,,,,,0,,,,84,97
25383,control_change,18,0,10,,,,,,,,,14,11,80,,,
25385,note_on,9,0,2,,,,,,,,,1,,,,78,97
25385,note_on,0,0,2,,,,,,,,,1,,,,69,97
25386,note_on,9,0,8,,,,,,,,,12,,,,60,108
25425,note_on,45,0,6,,,,,,,,,10,,,,72,0
25427,note_on,45,0,7,,,,,,,,,11,,,,66,0
25431,note_on,45,0,8,,,,,,,,,12,,,,60,0
25433,note_on,50,0,1,,,,,,,,,0,,,,84,0
25434,note_on,59,0,4,,,,,,,,,4,,,,62,0
25435,note_on,50,0,2,,,,,,,,,1,,,,69,0
25435,note_on,0,0,2,,,,,,,,,1,,,,78,0
25436,note_on,59,0,5,,,,,,,,,5,,,,50,0
25440,note_on,15,0,6,,,,,,,,,10,,,,70,110
25440,set_tempo,240,1,0,,,,,,272727,,,,,,,,
25441,note_on,59,0,3,,,,,,,,,3,,,,50,0
25442,note_on,15,0,7,,,,,,,,,11,,,,67,110
25443,note_on,10,0,1,,,,,,,,,0,,,,82,97
25444,note_on,10,0,4,,,,,,,,,4,,,,62,96
25445,note_on,10,0,2,,,,,,,,,1,,,,70,97
25445,note_on,0,0,2,,,,,,,,,1,,,,79,97
25445,note_on,64,0,9,,,,,,,,,13,,,,50,0
25446,note_on,15,0,8,,,,,,,,,12,,,,58,108
25446,note_on,10,0,5,,,,,,,,,5,,,,62,96
25447,note_on,64,0,10,,,,,,,,,14,,,,38,0
25450,note_on,5,0,9,,,,,,,,,13,,,,43,99
25451,note_on,10,0,3,,,,,,,,,3,,,,55,97
25452,note_on,5,0,10,,,,,,,,,14,,,,31,93
25481,note_on,39,0,7,,,,,,,,,11,,,,67,0
25485,note_on,39,0,8,,,,,,,,,12,,,,58,0
25502,note_on,0,0,7,,,,,,,,,11,,,,62,101
25502,note_on,21,0,7,,,,,,,,,11,,,,70,101
25506,note_on,21,0,8,,,,,,,,,12,,,,67,99
25541,note_on,0,0,7,,,,,,,,,11,,,,70,0
25541,note_on,39,0,7,,,,,,,,,11,,,,62,0
25545,note_on,39,0,8,,,,,,,,,12,,,,67,0
25562,note_on,21,0,7,,,,,,,,,11,,,,62,110
25562,note_on,0,0,7,,,,,,,,,11,,,,70,110
25566,note_on,21,0,8,,,,,,,,,12,,,,67,108
25601,note_on,0,0,7,,,,,,,,,11,,,,62,0
25601,note_on,39,0,7,,,,,,,,,11,,,,70,0
25605,note_on,165,0,6,,,,,,,,,10,,,,70,0
25605,note_on,39,0,8,,,,,,,,,12,,,,67,0
25620,note_on,15,0,6,,,,,,,,,10,,,,74,110
25622,note_on,0,0,7,,,,,,,,,11,,,,62,101
25622,note_on,21,0,7,,,,,,,,,11,,,,70,101
25626,note_on,21,0,8,,,,,,,,,12,,,,67,99
25655,note_on,35,0,6,,,,,,,,,10,,,,74,0
25661,note_on,39,0,7,,,,,,,,,11,,,,62,0
25661,note_on,0,0,7,,,,,,,,,11,,,,70,0
25665,note_on,39,0,8,,,,,,,,,12,,,,67,0
25680,set_tempo,240,1,0,,,,,,261438,,,,,,,,
25680,note_on,25,0,6,,,,,,,,,10,,,,79,110
25682,note_on,0,0,7,,,,,,,,,11,,,,62,110
25682,note_on,21,0,7,,,,,,,,,11,,,,70,110
25685,note_on,235,0,9,,,,,,,,,13,,,,43,0
25686,note_on,21,0,8,,,,,,,,,12,,,,67,108
25687,note_on,235,0,10,,,,,,,,,14,,,,31,0
25721,note_on,39,0,7,,,,,,,,,11,,,,62,0
25721,note_on,0,0,7,,,,,,,,,11,,,,70,0
25725,note_on,39,0,8,,,,,,,,,12,,,,67,0
25742,note_on,21,0,7,,,,,,,,,11,,,,62,101
25742,note_on,0,0,7,,,,,,,,,11,,,,70,101
25746,note_on,21,0,8,,,,,,,,,12,,,,67,99
25751,note_on,71,0,6,,,,,,,,,10,,,,79,0
25781,note_on,39,0,7,,,,,,,,,11,,,,70,0
25781,note_on,0,0,7,,,,,,,,,11,,,,62,0
25785,note_on,39,0,8,,,,,,,,,12,,,,67,0
25800,note_on,49,0,6,,,,,,,,,10,,,,82,110
25802,note_on,21,0,7,,,,,,,,,11,,,,70,110
25802,note_on,0,0,7,,,,,,,,,11,,,,62,110
25806,note_on,21,0,8,,,,,,,,,12,,,,67,108
25841,note_on,39,0,7,,,,,,,,,11,,,,62,0
25841,note_on,0,0,7,,,,,,,,,11,,,,70,0
25845,note_on,39,0,8,,,,,,,,,12,,,,67,0
25862,note_on,21,0,7,,,,,,,,,11,,,,70,101
25862,note_on,0,0,7,,,,,,,,,11,,,,62,101
25866,note_on,21,0,8,,,,,,,,,12,,,,67,99
25871,note_on,71,0,6,,,,,,,,,10,,,,82,0
25901,note_on,39,0,7,,,,,,,,,11,,,,62,0
25901,note_on,0,0,7,,,,,,,,,11,,,,70,0
25905,note_on,39,0,8,,,,,,,,,12,,,,67,0
25913,note_on,470,0,1,,,,,,,,,0,,,,82,0
25914,note_on,470,0,4,,,,,,,,,4,,,,62,0
25915,note_on,0,0,2,,,,,,,,,1,,,,70,0
25915,note_on,470,0,2,,,,,,,,,1,,,,79,0
25916,note_on,470,0,5,,,,,,,,,5,,,,62,0
25920,set_tempo,240,1,0,,,,,,272727,,,,,,,,
25920,note_on,49,0,6,,,,,,,,,10,,,,83,110
25921,note_on,470,0,3,,,,,,,,,3,,,,55,0
25922,note_on,0,0,7,,,,,,,,,11,,,,62,110
25922,note_on,21,0,7,,,,,,,,,11,,,,71,110
25923,note_on,10,0,1,,,,,,,,,0,,,,83,97
25924,note_on,10,0,4,,,,,,,,,4,,,,62,96
25925,note_on,0,0,2,,,,,,,,,1,,,,71,97
25925,note_on,10,0,2,,,,,,,,,1,,,,80,97
25926,note_on,10,0,5,,,,,,,,,5,,,,62,96
25926,note_on,21,0,8,,,,,,,,,12,,,,68,108
25930,note_on,245,0,9,,,,,,,,,13,,,,53,99
25931,note_on,10,0,3,,,,,,,,,3,,,,53,97
25932,note_on,245,0,10,,,,,,,,,14,,,,41,93
25961,note_on,39,0,7,,,,,,,,,11,,,,62,0
25961,note_on,0,0,7,,,,,,,,,11,,,,71,0
25965,note_on,39,0,8,,,,,,,,,12,,,,68,0
25982,note_on,21,0,7,,,,,,,,,11,,,,71,101
25982,note_on,0,0,7,,,,,,,,,11,,,,62,101
25986,note_on,21,0,8,,,,,,,,,12,,,,68,99
26021,note_on,0,0,7,,,,,,,,,11,,,,71,0
26021,note_on,39,0,7,,,,,,,,,11,,,,62,0
26025,note_on,39,0,8,,,,,,,,,12,,,,68,0
26042,note_on,0,0,7,,,,,,,,,11,,,,62,110
26042,note_on,21,0,7,,,,,,,,,11,,,,71,110
26046,note_on,21,0,8,,,,,,,,,12,,,,68,108
26081,note_on,39,0,7,,,,,,,,,11,,,,62,0
26081,note_on,0,0,7,,,,,,,,,11,,,,71,0
26085,note_on,39,0,8,,,,,,,,,12,,,,68,0
26102,note_on,0,0,7,,,,,,,,,11,,,,71,101
26102,note_on,21,0,7,,,,,,,,,11,,,,62,101
26105,note_on,175,0,9,,,,,,,,,13,,,,53,0
26106,note_on,21,0,8,,,,,,,,,12,,,,68,99
26107,note_on,175,0,10,,,,,,,,,14,,,,41,0
26110,note_on,5,0,9,,,,,,,,,13,,,,59,99
26112,note_on,5,0,10,,,,,,,,,14,,,,47,93
26130,note_on,210,0,6,,,,,,,,,10,,,,83,0
26141,note_on,0,0,7,,,,,,,,,11,,,,62,0
26141,note_on,39,0,7,,,,,,,,,11,,,,71,0
26145,note_on,39,0,8,,,,,,,,,12,,,,68,0
26149,note_on,39,0,9,,,,,,,,,13,,,,59,0
26151,note_on,39,0,10,,,,,,,,,14,,,,47,0
26160,note_on,30,0,6,,,,,,,,,10,,,,71,110
26160,set_tempo,240,1,0,,,,,,261438,,,,,,,,
26162,note_on,21,0,7,,,,,,,,,11,,,,62,110
26162,note_on,0,0,7,,,,,,,,,11,,,,71,110
26166,note_on,21,0,8,,,,,,,,,12,,,,68,108
26170,note_on,21,0,9,,,,,,,,,13,,,,62,99
26172,note_on,21,0,10,,,,,,,,,14,,,,50,93
26201,note_on,0,0,7,,,,,,,,,11,,,,62,0
26201,note_on,39,0,7,,,,,,,,,11,,,,71,0
26205,note_on,39,0,8,,,,,,,,,12,,,,68,0
26222,note_on,21,0,7,,,,,,,,,11,,,,71,101
26222,note_on,0,0,7,,,,,,,,,11,,,,62,101
26226,note_on,21,0,8,,,,,,,,,12,,,,68,99
26261,note_on,0,0,7,,,,,,,,,11,,,,71,0
26261,note_on,39,0,7,,,,,,,,,11,,,,62,0
26265,note_on,39,0,8,,,,,,,,,12,,,,68,0
26282,note_on,21,0,7,,,,,,,,,11,,,,62,110
26282,note_on,0,0,7,,,,,,,,,11,,,,71,110
26285,note_on,115,0,9,,,,,,,,,13,,,,62,0
26286,note_on,21,0,8,,,,,,,,,12,,,,65,108
26287,note_on,115,0,10,,,,,,,,,14,,,,50,0
26290,note_on,5,0,9,,,,,,,,,13,,,,65,99
26292,note_on,5,0,10,,,,,,,,,14,,,,53,93
26321,note_on,0,0,7,,,,,,,,,11,,,,62,0
26321,note_on,39,0,7,,,,,,,,,11,,,,71,0
26325,note_on,39,0,8,,,,,,,,,12,,,,65,0
26342,note_on,21,0,7,,,,,,,,,11,,,,62,101
26342,note_on,0,0,7,,,,,,,,,11,,,,71,101
26346,note_on,21,0,8,,,,,,,,,12,,,,65,99
26370,note_on,210,0,6,,,,,,,,,10,,,,71,0
26381,note_on,39,0,7,,,,,,,,,11,,,,71,0
26381,note_on,0,0,7,,,,,,,,,11,,,,62,0
26385,note_on,39,0,8,,,,,,,,,12,,,,65,0
26393,note_on,470,0,1,,,,,,,,,0,,,,83,0
26394,note_on,470,0,4,,,,,,,,,4,,,,62,0
26395,note_on,0,0,2,,,,,,,,,1,,,,80,0
26395,note_on,470,0,2,,,,,,,,,1,,,,71,0
26396,note_on,470,0,5,,,,,,,,,5,,,,62,0
26400,note_on,30,0,6,,,,,,,,,10,,,,72,110
26400,set_tempo,240,1,0,,,,,,272727,,,,,,,,
26401,note_on,470,0,3,,,,,,,,,3,,,,53,0
26402,note_on,0,0,7,,,,,,,,,11,,,,67,110
26402,note_on,21,0,7,,,,,,,,,11,,,,72,110
26403,note_on,10,0,1,,,,,,,,,0,,,,84,97
26404,note_on,10,0,4,,,,,,,,,4,,,,60,96
26405,note_on,0,0,2,,,,,,,,,1,,,,72,97
26405,note_on,10,0,2,,,,,,,,,1,,,,79,97
26405,note_on,115,0,9,,,,,,,,,13,,,,65,0
26406,note_on,10,0,5,,,,,,,,,5,,,,60,96
26406,note_on,21,0,8,,,,,,,,,12,,,,64,108
26407,note_on,115,0,10,,,,,,,,,14,,,,53,0
26410,note_on,5,0,9,,,,,,,,,13,,,,64,99
26411,note_on,10,0,3,,,,,,,,,3,,,,52,97
26412,note_on,5,0,10,,,,,,,,,14,,,,52,93
26441,note_on,0,0,7,,,,,,,,,11,,,,72,0
26441,note_on,39,0,7,,,,,,,,,11,,,,67,0
26445,note_on,39,0,8,,,,,,,,,12,,,,64,0
26462,note_on,0,0,7,,,,,,,,,11,,,,67,101
26462,note_on,21,0,7,,,,,,,,,11,,,,72,101
26466,note_on,21,0,8,,,,,,,,,12,,,,64,99
26501,note_on,0,0,7,,,,,,,,,11,,,,72,0
26501,note_on,39,0,7,,,,,,,,,11,,,,67,0
26505,note_on,39,0,8,,,,,,,,,12,,,,64,0
26522,note_on,21,0,7,,,,,,,,,11,,,,67,110
26522,note_on,0,0,7,,,,,,,,,11,,,,72,110
26526,note_on,21,0,8,,,,,,,,,12,,,,64,108
26561,note_on,39,0,7,,,,,,,,,11,,,,72,0
26561,note_on,0,0,7,,,,,,,,,11,,,,67,0
26565,note_on,39,0,8,,,,,,,,,12,,,,64,0
26565,note_on,165,0,6,,,,,,,,,10,,,,72,0
26580,note_on,15,0,6,,,,,,,,,10,,,,76,110
26582,note_on,21,0,7,,,,,,,,,11,,,,67,101
26582,note_on,0,0,7,,,,,,,,,11,,,,72,101
26586,note_on,21,0,8,,,,,,,,,12,,,,64,99
26615,note_on,35,0,6,,,,,,,,,10,,,,76,0
26621,note_on,39,0,7,,,,,,,,,11,,,,72,0
26621,note_on,0,0,7,,,,,,,,,11,,,,67,0
26625,note_on,39,0,8,,,,,,,,,12,,,,64,0
26640,set_tempo,240,1,0,,,,,,261438,,,,,,,,
26640,note_on,25,0,6,,,,,,,,,10,,,,79,110
26642,note_on,0,0,7,,,,,,,,,11,,,,72,110
26642,note_on,21,0,7,,,,,,,,,11,,,,67,110
26645,note_on,235,0,9,,,,,,,,,13,,,,64,0
26646,note_on,21,0,8,,,,,,,,,12,,,,64,108
26647,note_on,235,0,10,,,,,,,,,14,,,,52,0
26650,note_on,5,0,9,,,,,,,,,13,,,,52,99
26652,note_on,5,0,10,,,,,,,,,14,,,,40,93
26681,note_on,0,0,7,,,,,,,,,11,,,,67,0
26681,note_on,39,0,7,,,,,,,,,11,,,,72,0
26685,note_on,39,0,8,,,,,,,,,12,,,,64,0
26702,note_on,21,0,7,,,,,,,,,11,,,,72,101
26702,note_on,0,0,7,,,,,,,,,11,,,,67,101
26706,note_on,21,0,8,,,,,,,,,12,,,,64,99
26710,note_on,70,0,6,,,,,,,,,10,,,,79,0
26741,note_on,39,0,7,,,,,,,,,11,,,,67,0
26741,note_on,0,0,7,,,,,,,,,11,,,,72,0
26745,note_on,39,0,8,,,,,,,,,12,,,,64,0
26760,note_on,50,0,6,,,,,,,,,10,,,,84,110
26762,note_on,0,0,7,,,,,,,,,11,,,,72,110
26762,note_on,21,0,7,,,,,,,,,11,,,,67,110
26766,note_on,21,0,8,,,,,,,,,12,,,,64,108
26801,note_on,39,0,7,,,,,,,,,11,,,,72,0
26801,note_on,0,0,7,,,,,,,,,11,,,,67,0
26805,note_on,39,0,8,,,,,,,,,12,,,,64,0
26822,note_on,0,0,7,,,,,,,,,11,,,,67,101
26822,note_on,21,0,7,,,,,,,,,11,,,,72,101
26826,note_on,21,0,8,,,,,,,,,12,,,,64,99
26830,note_on,70,0,6,,,,,,,,,10,,,,84,0
26861,note_on,39,0,7,,,,,,,,,11,,,,67,0
26861,note_on,0,0,7,,,,,,,,,11,,,,72,0
26865,note_on,39,0,8,,,,,,,,,12,,,,64,0
26873,note_on,470,0,1,,,,,,,,,0,,,,84,0
26874,note_on,470,0,4,,,,,,,,,4,,,,60,0
26875,note_on,0,0,2,,,,,,,,,1,,,,79,0
26875,note_on,470,0,2,,,,,,,,,1,,,,72,0
26876,note_on,470,0,5,,,,,,,,,5,,,,60,0
26880,note_on,50,0,6,,,,,,,,,10,,,,81,110
26880,set_tempo,240,1,0,,,,,,272727,,,,,,,,
26881,note_on,470,0,3,,,,,,,,,3,,,,52,0
26882,note_on,21,0,7,,,,,,,,,11,,,,69,110
26882,note_on,0,0,7,,,,,,,,,11,,,,66,110
26883,note_on,10,0,1,,,,,,,,,0,,,,81,97
26884,note_on,10,0,4,,,,,,,,,4,,,,60,96
26885,note_on,10,0,2,,,,,,,,,1,,,,78,97
26885,note_on,0,0,2,,,,,,,,,1,,,,69,97
26885,note_on,235,0,9,,,,,,,,,13,,,,52,0
26886,note_on,10,0,5,,,,,,,,,5,,,,60,96
26886,note_on,21,0,8,,,,,,,,,12,,,,63,108
26887,note_on,235,0,10,,,,,,,,,14,,,,40,0
26890,note_on,5,0,9,,,,,,,,,13,,,,51,99
26891,note_on,10,0,3,,,,,,,,,3,,,,51,97
26892,note_on,5,0,10,,,,,,,,,14,,,,39,93
26921,note_on,39,0,7,,,,,,,,,11,,,,66,0
26921,note_on,0,0,7,,,,,,,,,11,,,,69,0
26925,note_on,39,0,8,,,,,,,,,12,,,,63,0
26942,note_on,21,0,7,,,,,,,,,11,,,,69,101
26942,note_on,0,0,7,,,,,,,,,11,,,,66,101
26946,note_on,21,0,8,,,,,,,,,12,,,,63,99
26981,note_on,39,0,7,,,,,,,,,11,,,,66,0
26981,note_on,0,0,7,,,,,,,,,11,,,,69,0
26985,note_on,39,0,8,,,,,,,,,12,,,,63,0
27002,note_on,21,0,7,,,,,,,,,11,,,,66,110
27002,note_on,0,0,7,,,,,,,,,11,,,,69,110
27006,note_on,21,0,8,,,,,,,,,12,,,,63,108
27041,note_on,0,0,7,,,,,,,,,11,,,,66,0
27041,note_on,39,0,7,,,,,,,,,11,,,,69,0
27045,note_on,39,0,8,,,,,,,,,12,,,,63,0
27062,note_on,0,0,7,,,,,,,,,11,,,,66,101
27062,note_on,21,0,7,,,,,,,,,11,,,,69,101
27065,note_on,175,0,9,,,,,,,,,13,,,,51,0
27066,note_on,21,0,8,,,,,,,,,12,,,,63,99
27067,note_on,175,0,10,,,,,,,,,14,,,,39,0
27070,note_on,5,0,9,,,,,,,,,13,,,,57,99
27072,note_on,5,0,10,,,,,,,,,14,,,,45,93
27090,note_on,210,0,6,,,,,,,,,10,,,,81,0
27101,note_on,0,0,7,,,,,,,,,11,,,,69,0
27101,note_on,39,0,7,,,,,,,,,11,,,,66,0
27105,note_on,39,0,8,,,,,,,,,12,,,,63,0
27109,note_on,39,0,9,,,,,,,,,13,,,,57,0
27111,note_on,39,0,10,,,,,,,,,14,,,,45,0
27120,set_tempo,240,1,0,,,,,,261438,,,,,,,,
27120,note_on,30,0,6,,,,,,,,,10,,,,69,110
27122,note_on,21,0,7,,,,,,,,,11,,,,66,110
27122,note_on,0,0,7,,,,,,,,,11,,,,69,110
27126,note_on,21,0,8,,,,,,,,,12,,,,63,108
27130,note_on,21,0,9,,,,,,,,,13,,,,60,99
27132,note_on,21,0,10,,,,,,,,,14,,,,48,93
27161,note_on,39,0,7,,,,,,,,,11,,,,69,0
27161,note_on,0,0,7,,,,,,,,,11,,,,66,0
27165,note_on,39,0,8,,,,,,,,,12,,,,63,0
27182,note_on,21,0,7,,,,,,,,,11,,,,69,101
27182,note_on,0,0,7,,,,,,,,,11,,,,66,101
27186,note_on,21,0,8,,,,,,,,,12,,,,63,99
27221,note_on,39,0,7,,,,,,,,,11,,,,66,0
27221,note_on,0,0,7,,,,,,,,,11,,,,69,0
27225,note_on,39,0,8,,,,,,,,,12,,,,63,0
27242,note_on,21,0,7,,,,,,,,,11,,,,66,110
27242,note_on,0,0,7,,,,,,,,,11,,,,69,110
27245,note_on,115,0,9,,,,,,,,,13,,,,60,0
27246,note_on,21,0,8,,,,,,,,,12,,,,63,108
27247,note_on,115,0,10,,,,,,,,,14,,,,48,0
27250,note_on,5,0,9,,,,,,,,,13,,,,63,99
27252,note_on,5,0,10,,,,,,,,,14,,,,51,93
27281,note_on,39,0,7,,,,,,,,,11,,,,69,0
27281,note_on,0,0,7,,,,,,,,,11,,,,66,0
27285,note_on,39,0,8,,,,,,,,,12,,,,63,0
27302,note_on,21,0,7,,,,,,,,,11,,,,69,101
27302,note_on,0,0,7,,,,,,,,,11,,,,66,101
27306,note_on,21,0,8,,,,,,,,,12,,,,63,99
27330,note_on,210,0,6,,,,,,,,,10,,,,69,0
27341,note_on,39,0,7,,,,,,,,,11,,,,66,0
27341,note_on,0,0,7,,,,,,,,,11,,,,69,0
27345,note_on,39,0,8,,,,,,,,,12,,,,63,0
27353,note_on,470,0,1,,,,,,,,,0,,,,81,0
27354,note_on,470,0,4,,,,,,,,,4,,,,60,0
27355,note_on,0,0,2,,,,,,,,,1,,,,78,0
27355,note_on,470,0,2,,,,,,,,,1,,,,69,0
27356,note_on,470,0,5,,,,,,,,,5,,,,60,0
27360,note_on,30,0,6,,,,,,,,,10,,,,70,110
27360,set_tempo,240,1,0,,,,,,272727,,,,,,,,
27361,note_on,470,0,3,,,,,,,,,3,,,,51,0
27362,note_on,0,0,7,,,,,,,,,11,,,,65,110
27362,note_on,21,0,7,,,,,,,,,11,,,,70,110
27363,note_on,10,0,1,,,,,,,,,0,,,,82,97
27364,note_on,10,0,4,,,,,,,,,4,,,,65,96
27365,note_on,0,0,2,,,,,,,,,1,,,,70,97
27365,note_on,10,0,2,,,,,,,,,1,,,,77,97
27365,note_on,115,0,9,,,,,,,,,13,,,,63,0
27366,note_on,10,0,5,,,,,,,,,5,,,,58,96
27366,note_on,21,0,8,,,,,,,,,12,,,,62,108
27367,note_on,115,0,10,,,,,,,,,14,,,,51,0
27370,note_on,5,0,9,,,,,,,,,13,,,,62,99
27371,note_on,10,0,3,,,,,,,,,3,,,,50,97
27372,note_on,5,0,10,,,,,,,,,14,,,,50,93
27401,note_on,39,0,7,,,,,,,,,11,,,,65,0
27401,note_on,0,0,7,,,,,,,,,11,,,,70,0
27405,note_on,39,0,8,,,,,,,,,12,,,,62,0
27422,note_on,21,0,7,,,,,,,,,11,,,,70,101
27422,note_on,0,0,7,,,,,,,,,11,,,,65,101
27426,note_on,21,0,8,,,,,,,,,12,,,,62,99
27461,note_on,39,0,7,,,,,,,,,11,,,,65,0
27461,note_on,0,0,7,,,,,,,,,11,,,,70,0
27465,note_on,39,0,8,,,,,,,,,12,,,,62,0
27482,note_on,21,0,7,,,,,,,,,11,,,,65,110
27482,note_on,0,0,7,,,,,,,,,11,,,,70,110
27486,note_on,21,0,8,,,,,,,,,12,,,,62,108
27521,note_on,39,0,7,,,,,,,,,11,,,,70,0
27521,note_on,0,0,7,,,,,,,,,11,,,,65,0
27525,note_on,39,0,8,,,,,,,,,12,,,,62,0
27525,note_on,165,0,6,,,,,,,,,10,,,,70,0
27540,note_on,15,0,6,,,,,,,,,10,,,,74,110
27542,note_on,21,0,7,,,,,,,,,11,,,,70,101
27542,note_on,0,0,7,,,,,,,,,11,,,,65,101
27546,note_on,21,0,8,,,,,,,,,12,,,,62,99
27575,note_on,35,0,6,,,,,,,,,10,,,,74,0
27581,note_on,39,0,7,,,,,,,,,11,,,,65,0
27581,note_on,0,0,7,,,,,,,,,11,,,,70,0
27585,note_on,39,0,8,,,,,,,,,12,,,,62,0
27600,set_tempo,240,1,0,,,,,,261438,,,,,,,,
27600,note_on,25,0,6,,,,,,,,,10,,,,77,110
27602,note_on,0,0,7,,,,,,,,,11,,,,65,110
27602,note_on,21,0,7,,,,,,,,,11,,,,70,110
27605,note_on,235,0,9,,,,,,,,,13,,,,62,0
27606,note_on,21,0,8,,,,,,,,,12,,,,62,108
27607,note_on,235,0,10,,,,,,,,,14,,,,50,0
27610,note_on,5,0,9,,,,,,,,,13,,,,50,99
27612,note_on,5,0,10,,,,,,,,,14,,,,38,93
27641,note_on,0,0,7,,,,,,,,,11,,,,70,0
27641,note_on,39,0,7,,,,,,,,,11,,,,65,0
27645,note_on,39,0,8,,,,,,,,,12,,,,62,0
27662,note_on,0,0,7,,,,,,,,,11,,,,65,101
27662,note_on,21,0,7,,,,,,,,,11,,,,70,101
27666,note_on,21,0,8,,,,,,,,,12,,,,62,99
27670,note_on,70,0,6,,,,,,,,,10,,,,77,0
27701,note_on,39,0,7,,,,,,,,,11,,,,65,0
27701,note_on,0,0,7,,,,,,,,,11,,,,70,0
27705,note_on,39,0,8,,,,,,,,,12,,,,62,0
27720,note_on,50,0,6,,,,,,,,,10,,,,82,110
27722,note_on,21,0,7,,,,,,,,,11,,,,65,110
27722,note_on,0,0,7,,,,,,,,,11,,,,70,110
27726,note_on,21,0,8,,,,,,,,,12,,,,62,108
27761,note_on,0,0,7,,,,,,,,,11,,,,65,0
27761,note_on,39,0,7,,,,,,,,,11,,,,70,0
27765,note_on,39,0,8,,,,,,,,,12,,,,62,0
27782,note_on,0,0,7,,,,,,,,,11,,,,65,101
27782,note_on,21,0,7,,,,,,,,,11,,,,70,101
27786,note_on,21,0,8,,,,,,,,,12,,,,62,99
27790,note_on,70,0,6,,,,,,,,,10,,,,82,0
27821,note_on,39,0,7,,,,,,,,,11,,,,65,0
27821,note_on,0,0,7,,,,,,,,,11,,,,70,0
27825,note_on,39,0,8,,,,,,,,,12,,,,62,0
27833,note_on,470,0,1,,,,,,,,,0,,,,82,0
27834,note_on,470,0,4,,,,,,,,,4,,,,65,0
27835,note_on,470,0,2,,,,,,,,,1,,,,70,0
27835,note_on,0,0,2,,,,,,,,,1,,,,77,0
27836,note_on,470,0,5,,,,,,,,,5,,,,58,0
27840,set_tempo,240,1,0,,,,,,272727,,,,,,,,
27840,note_on,50,0,6,,,,,,,,,10,,,,83,110
27841,note_on,470,0,3,,,,,,,,,3,,,,50,0
27842,note_on,21,0,7,,,,,,,,,11,,,,65,110
27842,note_on,0,0,7,,,,,,,,,11,,,,71,110
27843,note_on,10,0,1,,,,,,,,,0,,,,83,97
27844,note_on,10,0,4,,,,,,,,,4,,,,65,96
27845,note_on,0,0,2,,,,,,,,,1,,,,77,110
27845,note_on,10,0,2,,,,,,,,,1,,,,65,110
27845,note_on,235,0,9,,,,,,,,,13,,,,50,0
27846,note_on,10,0,5,,,,,,,,,5,,,,53,96
27846,note_on,21,0,8,,,,,,,,,12,,,,61,108
27847,note_on,235,0,10,,,,,,,,,14,,,,38,0
27850,note_on,5,0,9,,,,,,,,,13,,,,49,99
27851,note_on,10,0,3,,,,,,,,,3,,,,49,97
27852,note_on,5,0,10,,,,,,,,,14,,,,37,93
27881,note_on,39,0,7,,,,,,,,,11,,,,71,0
27881,note_on,0,0,7,,,,,,,,,11,,,,65,0
27885,note_on,39,0,8,,,,,,,,,12,,,,61,0
27902,note_on,21,0,7,,,,,,,,,11,,,,71,101
27902,note_on,0,0,7,,,,,,,,,11,,,,65,101
27906,note_on,21,0,8,,,,,,,,,12,,,,61,99
27941,note_on,39,0,7,,,,,,,,,11,,,,65,0
27941,note_on,0,0,7,,,,,,,,,11,,,,71,0
27945,note_on,39,0,8,,,,,,,,,12,,,,61,0
27962,note_on,21,0,7,,,,,,,,,11,,,,65,110
27962,note_on,0,0,7,,,,,,,,,11,,,,71,110
27966,note_on,21,0,8,,,,,,,,,12,,,,61,108
28001,note_on,39,0,7,,,,,,,,,11,,,,71,0
28001,note_on,0,0,7,,,,,,,,,11,,,,65,0
28005,note_on,39,0,8,,,,,,,,,12,,,,61,0
28015,note_on,0,0,2,,,,,,,,,1,,,,65,0
28015,note_on,170,0,2,,,,,,,,,1,,,,77,0
28022,note_on,21,0,7,,,,,,,,,11,,,,71,101
28022,note_on,0,0,7,,,,,,,,,11,,,,65,101
28025,note_on,10,0,2,,,,,,,,,1,,,,67,110
28025,note_on,0,0,2,,,,,,,,,1,,,,79,110
28025,note_on,175,0,9,,,,,,,,,13,,,,49,0
28026,note_on,21,0,8,,,,,,,,,12,,,,61,99
28027,note_on,175,0,10,,,,,,,,,14,,,,37,0
28030,note_on,5,0,9,,,,,,,,,13,,,,53,99
28032,note_on,5,0,10,,,,,,,,,14,,,,41,93
28050,note_on,210,0,6,,,,,,,,,10,,,,83,0
28061,note_on,0,0,7,,,,,,,,,11,,,,71,0
28061,note_on,39,0,7,,,,,,,,,11,,,,65,0
28065,note_on,39,0,8,,,,,,,,,12,,,,61,0
28069,note_on,39,0,9,,,,,,,,,13,,,,53,0
28071,note_on,39,0,10,,,,,,,,,14,,,,41,0
28075,note_on,50,0,2,,,,,,,,,1,,,,79,0
28075,note_on,0,0,2,,,,,,,,,1,,,,67,0
28080,note_on,30,0,6,,,,,,,,,10,,,,71,110
28080,set_tempo,240,1,0,,,,,,261438,,,,,,,,
28082,note_on,21,0,7,,,,,,,,,11,,,,71,110
28082,note_on,0,0,7,,,,,,,,,11,,,,65,110
28085,note_on,0,0,2,,,,,,,,,1,,,,68,110
28085,note_on,10,0,2,,,,,,,,,1,,,,80,110
28086,note_on,21,0,8,,,,,,,,,12,,,,61,108
28090,note_on,21,0,9,,,,,,,,,13,,,,56,99
28092,note_on,21,0,10,,,,,,,,,14,,,,44,93
28121,note_on,39,0,7,,,,,,,,,11,,,,65,0
28121,note_on,0,0,7,,,,,,,,,11,,,,71,0
28125,note_on,39,0,8,,,,,,,,,12,,,,61,0
28142,note_on,21,0,7,,,,,,,,,11,,,,65,101
28142,note_on,0,0,7,,,,,,,,,11,,,,71,101
28145,note_on,60,0,2,,,,,,,,,1,,,,68,0
28145,note_on,0,0,2,,,,,,,,,1,,,,80,0
28146,note_on,21,0,8,,,,,,,,,12,,,,61,99
28181,note_on,39,0,7,,,,,,,,,11,,,,71,0
28181,note_on,0,0,7,,,,,,,,,11,,,,65,0
28185,note_on,39,0,8,,,,,,,,,12,,,,61,0
28202,note_on,0,0,7,,,,,,,,,11,,,,65,110
28202,note_on,21,0,7,,,,,,,,,11,,,,71,110
28205,note_on,115,0,9,,,,,,,,,13,,,,56,0
28205,note_on,0,0,2,,,,,,,,,1,,,,77,110
28205,note_on,60,0,2,,,,,,,,,1,,,,65,110
28206,note_on,21,0,8,,,,,,,,,12,,,,61,108
28207,note_on,115,0,10,,,,,,,,,14,,,,44,0
28210,note_on,5,0,9,,,,,,,,,13,,,,61,99
28212,note_on,5,0,10,,,,,,,,,14,,,,49,93
28241,note_on,39,0,7,,,,,,,,,11,,,,65,0
28241,note_on,0,0,7,,,,,,,,,11,,,,71,0
28245,note_on,39,0,8,,,,,,,,,12,,,,61,0
28262,note_on,0,0,7,,,,,,,,,11,,,,71,101
28262,note_on,21,0,7,,,,,,,,,11,,,,65,101
28265,note_on,60,0,2,,,,,,,,,1,,,,77,0
28265,note_on,0,0,2,,,,,,,,,1,,,,65,0
28266,note_on,21,0,8,,,,,,,,,12,,,,61,99
28290,note_on,210,0,6,,,,,,,,,10,,,,71,0
28301,note_on,0,0,7,,,,,,,,,11,,,,65,0
28301,note_on,39,0,7,,,,,,,,,11,,,,71,0
28305,note_on,39,0,8,,,,,,,,,12,,,,61,0
28313,note_on,470,0,1,,,,,,,,,0,,,,83,0
28314,note_on,470,0,4,,,,,,,,,4,,,,65,0
28316,note_on,470,0,5,,,,,,,,,5,,,,53,0
28320,note_on,30,0,6,,,,,,,,,10,,,,72,110
28320,set_tempo,240,1,0,,,,,,272727,,,,,,,,
28321,note_on,470,0,3,,,,,,,,,3,,,,49,0
28322,note_on,21,0,7,,,,,,,,,11,,,,72,110
28322,note_on,0,0,7,,,,,,,,,11,,,,64,110
28323,note_on,10,0,1,,,,,,,,,0,,,,84,97
28324,note_on,10,0,4,,,,,,,,,4,,,,60,96
28325,note_on,60,0,2,,,,,,,,,1,,,,72,97
28325,note_on,0,0,2,,,,,,,,,1,,,,76,97
28325,note_on,115,0,9,,,,,,,,,13,,,,61,0
28326,note_on,21,0,8,,,,,,,,,12,,,,60,108
28326,note_on,10,0,5,,,,,,,,,5,,,,60,96
28327,note_on,115,0,10,,,,,,,,,14,,,,49,0
28330,note_on,5,0,9,,,,,,,,,13,,,,60,99
28331,note_on,10,0,3,,,,,,,,,3,,,,48,97
28332,note_on,5,0,10,,,,,,,,,14,,,,48,93
28361,note_on,0,0,7,,,,,,,,,11,,,,72,0
28361,note_on,39,0,7,,,,,,,,,11,,,,64,0
28365,note_on,39,0,8,,,,,,,,,12,,,,60,0
28382,note_on,0,0,7,,,,,,,,,11,,,,64,101
28382,note_on,21,0,7,,,,,,,,,11,,,,72,101
28386,note_on,21,0,8,,,,,,,,,12,,,,60,99
28421,note_on,39,0,7,,,,,,,,,11,,,,64,0
28421,note_on,0,0,7,,,,,,,,,11,,,,72,0
28425,note_on,39,0,8,,,,,,,,,12,,,,60,0
28442,note_on,21,0,7,,,,,,,,,11,,,,64,110
28442,note_on,0,0,7,,,,,,,,,11,,,,72,110
28446,note_on,21,0,8,,,,,,,,,12,,,,60,108
28481,note_on,39,0,7,,,,,,,,,11,,,,72,0
28481,note_on,0,0,7,,,,,,,,,11,,,,64,0
28485,note_on,39,0,8,,,,,,,,,12,,,,60,0
28485,note_on,165,0,6,,,,,,,,,10,,,,72,0
28500,note_on,15,0,6,,,,,,,,,10,,,,76,110
28502,note_on,21,0,7,,,,,,,,,11,,,,72,101
28502,note_on,0,0,7,,,,,,,,,11,,,,64,101
28506,note_on,21,0,8,,,,,,,,,12,,,,60,99
28535,note_on,35,0,6,,,,,,,,,10,,,,76,0
28541,note_on,0,0,7,,,,,,,,,11,,,,72,0
28541,note_on,39,0,7,,,,,,,,,11,,,,64,0
28545,note_on,39,0,8,,,,,,,,,12,,,,60,0
28560,set_tempo,240,1,0,,,,,,261438,,,,,,,,
28560,note_on,25,0,6,,,,,,,,,10,,,,79,110
28562,note_on,0,0,7,,,,,,,,,11,,,,72,110
28562,note_on,21,0,7,,,,,,,,,11,,,,64,110
28565,note_on,235,0,9,,,,,,,,,13,,,,60,0
28566,note_on,21,0,8,,,,,,,,,12,,,,60,108
28567,note_on,235,0,10,,,,,,,,,14,,,,48,0
28570,note_on,5,0,9,,,,,,,,,13,,,,48,99
28572,note_on,5,0,10,,,,,,,,,14,,,,36,93
28601,note_on,39,0,7,,,,,,,,,11,,,,72,0
28601,note_on,0,0,7,,,,,,,,,11,,,,64,0
28605,note_on,39,0,8,,,,,,,,,12,,,,60,0
28622,note_on,0,0,7,,,,,,,,,11,,,,64,101
28622,note_on,21,0,7,,,,,,,,,11,,,,72,101
28626,note_on,21,0,8,,,,,,,,,12,,,,60,99
28630,note_on,70,0,6,,,,,,,,,10,,,,79,0
28661,note_on,39,0,7,,,,,,,,,11,,,,64,0
28661,note_on,0,0,7,,,,,,,,,11,,,,72,0
28665,note_on,39,0,8,,,,,,,,,12,,,,60,0
28680,note_on,50,0,6,,,,,,,,,10,,,,84,110
28682,note_on,0,0,7,,,,,,,,,11,,,,64,110
28682,note_on,21,0,7,,,,,,,,,11,,,,72,110
28686,note_on,21,0,8,,,,,,,,,12,,,,60,108
28721,note_on,39,0,7,,,,,,,,,11,,,,64,0
28721,note_on,0,0,7,,,,,,,,,11,,,,72,0
28725,note_on,39,0,8,,,,,,,,,12,,,,60,0
28742,note_on,0,0,7,,,,,,,,,11,,,,72,101
28742,note_on,21,0,7,,,,,,,,,11,,,,64,101
28746,note_on,21,0,8,,,,,,,,,12,,,,60,99
28750,note_on,70,0,6,,,,,,,,,10,,,,84,0
28781,note_on,0,0,7,,,,,,,,,11,,,,64,0
28781,note_on,39,0,7,,,,,,,,,11,,,,72,0
28785,note_on,39,0,8,,,,,,,,,12,,,,60,0
28793,note_on,470,0,1,,,,,,,,,0,,,,84,0
28794,note_on,470,0,4,,,,,,,,,4,,,,60,0
28795,note_on,0,0,2,,,,,,,,,1,,,,72,0
28795,note_on,470,0,2,,,,,,,,,1,,,,76,0
28796,note_on,470,0,5,,,,,,,,,5,,,,60,0
28800,set_tempo,240,1,0,,,,,,272727,,,,,,,,
28800,note_on,50,0,6,,,,,,,,,10,,,,89,110
28801,note_on,470,0,3,,,,,,,,,3,,,,48,0
28802,note_on,21,0,7,,,,,,,,,11,,,,71,110
28802,note_on,0,0,7,,,,,,,,,11,,,,65,110
28803,note_on,10,0,1,,,,,,,,,0,,,,89,97
28804,note_on,10,0,4,,,,,,,,,4,,,,65,96
28805,note_on,0,0,2,,,,,,,,,1,,,,77,97
28805,note_on,235,0,9,,,,,,,,,13,,,,48,0
28805,note_on,10,0,2,,,,,,,,,1,,,,71,97
28806,note_on,10,0,5,,,,,,,,,5,,,,53,96
28806,note_on,21,0,8,,,,,,,,,12,,,,61,108
28807,note_on,235,0,10,,,,,,,,,14,,,,36,0
28810,note_on,5,0,9,,,,,,,,,13,,,,49,99
28811,note_on,10,0,3,,,,,,,,,3,,,,49,97
28812,note_on,5,0,10,,,,,,,,,14,,,,37,93
28841,note_on,0,0,7,,,,,,,,,11,,,,71,0
28841,note_on,39,0,7,,,,,,,,,11,,,,65,0
28845,note_on,39,0,8,,,,,,,,,12,,,,61,0
28862,note_on,21,0,7,,,,,,,,,11,,,,71,101
28862,note_on,0,0,7,,,,,,,,,11,,,,65,101
28866,note_on,21,0,8,,,,,,,,,12,,,,61,99
28901,note_on,0,0,7,,,,,,,,,11,,,,71,0
28901,note_on,39,0,7,,,,,,,,,11,,,,65,0
28905,note_on,39,0,8,,,,,,,,,12,,,,61,0
28922,note_on,21,0,7,,,,,,,,,11,,,,65,110
28922,note_on,0,0,7,,,,,,,,,11,,,,71,110
28926,note_on,21,0,8,,,,,,,,,12,,,,61,108
28961,note_on,0,0,7,,,,,,,,,11,,,,65,0
28961,note_on,39,0,7,,,,,,,,,11,,,,71,0
28965,note_on,39,0,8,,,,,,,,,12,,,,61,0
28982,note_on,21,0,7,,,,,,,,,11,,,,65,101
28982,note_on,0,0,7,,,,,,,,,11,,,,71,101
28985,note_on,175,0,9,,,,,,,,,13,,,,49,0
28986,note_on,21,0,8,,,,,,,,,12,,,,61,99
28987,note_on,175,0,10,,,,,,,,,14,,,,37,0
28990,note_on,5,0,9,,,,,,,,,13,,,,53,99
28992,note_on,5,0,10,,,,,,,,,14,,,,41,93
29010,note_on,210,0,6,,,,,,,,,10,,,,89,0
29021,note_on,0,0,7,,,,,,,,,11,,,,65,0
29021,note_on,39,0,7,,,,,,,,,11,,,,71,0
29025,note_on,39,0,8,,,,,,,,,12,,,,61,0
29029,note_on,39,0,9,,,,,,,,,13,,,,53,0
29031,note_on,39,0,10,,,,,,,,,14,,,,41,0
29033,note_on,230,0,1,,,,,,,,,0,,,,89,0
29040,note_on,30,0,6,,,,,,,,,10,,,,83,110
29040,set_tempo,240,1,0,,,,,,261438,,,,,,,,
29042,note_on,21,0,7,,,,,,,,,11,,,,65,110
29042,note_on,0,0,7,,,,,,,,,11,,,,71,110
29043,note_on,10,0,1,,,,,,,,,0,,,,83,97
29046,note_on,21,0,8,,,,,,,,,12,,,,61,108
29050,note_on,21,0,9,,,,,,,,,13,,,,56,99
29052,note_on,21,0,10,,,,,,,,,14,,,,44,93
29081,note_on,39,0,7,,,,,,,,,11,,,,71,0
29081,note_on,0,0,7,,,,,,,,,11,,,,65,0
29085,note_on,39,0,8,,,,,,,,,12,,,,61,0
29102,note_on,21,0,7,,,,,,,,,11,,,,71,101
29102,note_on,0,0,7,,,,,,,,,11,,,,65,101
29106,note_on,21,0,8,,,,,,,,,12,,,,61,99
29141,note_on,39,0,7,,,,,,,,,11,,,,65,0
29141,note_on,0,0,7,,,,,,,,,11,,,,71,0
29145,note_on,39,0,8,,,,,,,,,12,,,,61,0
29162,note_on,0,0,7,,,,,,,,,11,,,,71,110
29162,note_on,21,0,7,,,,,,,,,11,,,,65,110
29165,note_on,115,0,9,,,,,,,,,13,,,,56,0
29166,note_on,21,0,8,,,,,,,,,12,,,,61,108
29167,note_on,115,0,10,,,,,,,,,14,,,,44,0
29170,note_on,5,0,9,,,,,,,,,13,,,,61,99
29172,note_on,5,0,10,,,,,,,,,14,,,,49,93
29201,note_on,39,0,7,,,,,,,,,11,,,,71,0
29201,note_on,0,0,7,,,,,,,,,11,,,,65,0
29205,note_on,39,0,8,,,,,,,,,12,,,,61,0
29222,note_on,21,0,7,,,,,,,,,11,,,,71,101
29222,note_on,0,0,7,,,,,,,,,11,,,,65,101
29226,note_on,21,0,8,,,,,,,,,12,,,,61,99
29250,note_on,210,0,6,,,,,,,,,10,,,,83,0
29261,note_on,0,0,7,,,,,,,,,11,,,,71,0
29261,note_on,39,0,7,,,,,,,,,11,,,,65,0
29265,note_on,39,0,8,,,,,,,,,12,,,,61,0
29273,note_on,230,0,1,,,,,,,,,0,,,,83,0
29274,note_on,470,0,4,,,,,,,,,4,,,,65,0
29275,note_on,0,0,2,,,,,,,,,1,,,,71,0
29275,note_on,470,0,2,,,,,,,,,1,,,,77,0
29276,note_on,470,0,5,,,,,,,,,5,,,,53,0
29280,note_on,30,0,6,,,,,,,,,10,,,,76,95
29280,set_tempo,240,1,0,,,,,,272727,,,,,,,,
29280,note_on,0,0,6,,,,,,,,,10,,,,84,95
29281,note_on,470,0,3,,,,,,,,,3,,,,49,0
29282,note_on,21,0,7,,,,,,,,,11,,,,64,110
29282,note_on,0,0,7,,,,,,,,,11,,,,72,110
29283,note_on,10,0,1,,,,,,,,,0,,,,84,97
29284,note_on,10,0,4,,,,,,,,,4,,,,60,96
29285,note_on,115,0,9,,,,,,,,,13,,,,61,0
29285,note_on,10,0,2,,,,,,,,,1,,,,72,97
29285,note_on,0,0,2,,,,,,,,,1,,,,76,97
29286,note_on,10,0,5,,,,,,,,,5,,,,60,96
29286,note_on,21,0,8,,,,,,,,,12,,,,60,108
29287,note_on,115,0,10,,,,,,,,,14,,,,49,0
29290,note_on,5,0,9,,,,,,,,,13,,,,60,99
29291,note_on,10,0,3,,,,,,,,,3,,,,48,97
29292,note_on,5,0,10,,,,,,,,,14,,,,48,93
29430,note_on,0,0,6,,,,,,,,,10,,,,76,0
29430,note_on,150,0,6,,,,,,,,,10,,,,84,0
29442,note_on,160,0,7,,,,,,,,,11,,,,72,0
29442,note_on,0,0,7,,,,,,,,,11,,,,64,0
29446,note_on,160,0,8,,,,,,,,,12,,,,60,0
29450,note_on,160,0,9,,,,,,,,,13,,,,60,0
29452,note_on,160,0,10,,,,,,,,,14,,,,48,0
29460,note_on,30,0,6,,,,,,,,,10,,,,84,95
29460,note_on,0,0,6,,,,,,,,,10,,,,76,95
29462,note_on,20,0,7,,,,,,,,,11,,,,64,110
29462,note_on,0,0,7,,,,,,,,,11,,,,72,110
29466,note_on,20,0,8,,,,,,,,,12,,,,60,108
29470,note_on,20,0,9,,,,,,,,,13,,,,48,99
29472,note_on,20,0,10,,,,,,,,,14,,,,36,93
29490,note_on,30,0,6,,,,,,,,,10,,,,76,0
29490,note_on,0,0,6,,,,,,,,,10,,,,84,0
29502,note_on,0,0,7,,,,,,,,,11,,,,64,0
29502,note_on,40,0,7,,,,,,,,,11,,,,72,0
29506,note_on,40,0,8,,,,,,,,,12,,,,60,0
29510,note_on,40,0,9,,,,,,,,,13,,,,48,0
29512,note_on,40,0,10,,,,,,,,,14,,,,36,0
29513,note_on,230,0,1,,,,,,,,,0,,,,84,0
29514,note_on,230,0,4,,,,,,,,,4,,,,60,0
29515,note_on,230,0,2,,,,,,,,,1,,,,76,0
29515,note_on,0,0,2,,,,,,,,,1,,,,72,0
29516,note_on,230,0,5,,,,,,,,,5,,,,60,0
29520,note_on,0,0,6,,,,,,,,,10,,,,83,95
29520,set_tempo,240,1,0,,,,,,261438,,,,,,,,
29520,note_on,30,0,6,,,,,,,,,10,,,,77,95
29521,note_on,230,0,3,,,,,,,,,3,,,,48,0
29522,note_on,20,0,7,,,,,,,,,11,,,,65,110
29522,note_on,0,0,7,,,,,,,,,11,,,,71,110
29523,note_on,10,0,1,,,,,,,,,0,,,,91,97
29524,note_on,10,0,4,,,,,,,,,4,,,,65,96
29525,note_on,0,0,2,,,,,,,,,1,,,,67,97
29525,note_on,10,0,2,,,,,,,,,1,,,,79,97
29526,note_on,10,0,5,,,,,,,,,5,,,,53,96
29526,note_on,20,0,8,,,,,,,,,12,,,,61,108
29530,note_on,20,0,9,,,,,,,,,13,,,,49,99
29531,note_on,10,0,3,,,,,,,,,3,,,,49,97
29532,note_on,20,0,10,,,,,,,,,14,,,,37,93
29584,note_on,0,0,6,,,,,,,,,10,,,,77,0
29584,note_on,64,0,6,,,,,,,,,10,,,,83,0
29596,note_on,0,0,7,,,,,,,,,11,,,,65,0
29596,note_on,74,0,7,,,,,,,,,11,,,,71,0
29600,note_on,74,0,8,,,,,,,,,12,,,,61,0
29604,note_on,74,0,9,,,,,,,,,13,,,,49,0
29606,note_on,74,0,10,,,,,,,,,14,,,,37,0
29640,note_on,56,0,6,,,,,,,,,10,,,,83,95
29640,note_on,0,0,6,,,,,,,,,10,,,,77,95
29642,note_on,0,0,7,,,,,,,,,11,,,,65,110
29642,note_on,46,0,7,,,,,,,,,11,,,,71,110
29646,note_on,46,0,8,,,,,,,,,12,,,,61,108
29650,note_on,46,0,9,,,,,,,,,13,,,,49,99
29652,note_on,46,0,10,,,,,,,,,14,,,,37,93
29704,note_on,64,0,6,,,,,,,,,10,,,,77,0
29704,note_on,0,0,6,,,,,,,,,10,,,,83,0
29716,note_on,74,0,7,,,,,,,,,11,,,,65,0
29716,note_on,0,0,7,,,,,,,,,11,,,,71,0
29720,note_on,74,0,8,,,,,,,,,12,,,,61,0
29724,note_on,74,0,9,,,,,,,,,13,,,,49,0
29726,note_on,74,0,10,,,,,,,,,14,,,,37,0
29754,note_on,230,0,4,,,,,,,,,4,,,,65,0
29756,note_on,230,0,5,,,,,,,,,5,,,,53,0
29760,note_on,0,0,6,,,,,,,,,10,,,,84,95
29760,note_on,56,0,6,,,,,,,,,10,,,,76,95
29760,set_tempo,240,1,0,,,,,,272727,,,,,,,,
29761,note_on,230,0,3,,,,,,,,,3,,,,49,0
29762,note_on,46,0,7,,,,,,,,,11,,,,64,110
29762,note_on,0,0,7,,,,,,,,,11,,,,72,110
29764,note_on,10,0,4,,,,,,,,,4,,,,60,96
29766,note_on,46,0,8,,,,,,,,,12,,,,60,108
29766,note_on,10,0,5,,,,,,,,,5,,,,60,96
29770,note_on,46,0,9,,,,,,,,,13,,,,48,99
29771,note_on,10,0,3,,,,,,,,,3,,,,48,97
29772,note_on,46,0,10,,,,,,,,,14,,,,36,93
29900,note_on,140,0,6,,,,,,,,,10,,,,84,0
29900,note_on,0,0,6,,,,,,,,,10,,,,76,0
29912,note_on,0,0,7,,,,,,,,,11,,,,64,0
29912,note_on,150,0,7,,,,,,,,,11,,,,72,0
29916,note_on,150,0,8,,,,,,,,,12,,,,60,0
29920,note_on,150,0,9,,,,,,,,,13,,,,48,0
29922,note_on,150,0,10,,,,,,,,,14,,,,36,0
29940,note_on,40,0,6,,,,,,,,,10,,,,76,95
29940,note_on,0,0,6,,,,,,,,,10,,,,84,95
29942,note_on,0,0,7,,,,,,,,,11,,,,72,110
29942,note_on,30,0,7,,,,,,,,,11,,,,64,110
29946,note_on,30,0,8,,,,,,,,,12,,,,60,108
29950,note_on,30,0,9,,,,,,,,,13,,,,48,99
29952,note_on,30,0,10,,,,,,,,,14,,,,36,93
29970,note_on,30,0,6,,,,,,,,,10,,,,84,0
29970,note_on,0,0,6,,,,,,,,,10,,,,76,0
29982,note_on,40,0,7,,,,,,,,,11,,,,72,0
29982,note_on,0,0,7,,,,,,,,,11,,,,64,0
29986,note_on,40,0,8,,,,,,,,,12,,,,60,0
29990,note_on,40,0,9,,,,,,,,,13,,,,48,0
29992,note_on,40,0,10,,,,,,,,,14,,,,36,0
29994,note_on,230,0,4,,,,,,,,,4,,,,60,0
29996,note_on,230,0,5,,,,,,,,,5,,,,60,0
30000,set_tempo,240,1,0,,,,,,261438,,,,,,,,
30000,note_on,30,0,6,,,,,,,,,10,,,,77,95
30000,note_on,0,0,6,,,,,,,,,10,,,,83,95
30001,note_on,230,0,3,,,,,,,,,3,,,,48,0
30002,note_on,0,0,7,,,,,,,,,11,,,,65,110
30002,note_on,20,0,7,,,,,,,,,11,,,,71,110
30004,note_on,10,0,4,,,,,,,,,4,,,,65,96
30006,note_on,10,0,5,,,,,,,,,5,,,,53,96
30006,note_on,20,0,8,,,,,,,,,12,,,,61,108
30010,note_on,20,0,9,,,,,,,,,13,,,,49,99
30011,note_on,10,0,3,,,,,,,,,3,,,,49,97
30012,note_on,20,0,10,,,,,,,,,14,,,,37,93
30064,note_on,64,0,6,,,,,,,,,10,,,,83,0
30064,note_on,0,0,6,,,,,,,,,10,,,,77,0
30076,note_on,74,0,7,,,,,,,,,11,,,,65,0
30076,note_on,0,0,7,,,,,,,,,11,,,,71,0
30080,note_on,74,0,8,,,,,,,,,12,,,,61,0
30084,note_on,74,0,9,,,,,,,,,13,,,,49,0
30086,note_on,74,0,10,,,,,,,,,14,,,,37,0
30120,note_on,56,0,6,,,,,,,,,10,,,,77,95
30120,note_on,0,0,6,,,,,,,,,10,,,,83,95
30122,note_on,0,0,7,,,,,,,,,11,,,,71,110
30122,note_on,46,0,7,,,,,,,,,11,,,,65,110
30126,note_on,46,0,8,,,,,,,,,12,,,,61,108
30130,note_on,46,0,9,,,,,,,,,13,,,,49,99
30132,note_on,46,0,10,,,,,,,,,14,,,,37,93
30184,note_on,0,0,6,,,,,,,,,10,,,,77,0
30184,note_on,64,0,6,,,,,,,,,10,,,,83,0
30196,note_on,0,0,7,,,,,,,,,11,,,,65,0
30196,note_on,74,0,7,,,,,,,,,11,,,,71,0
30200,note_on,74,0,8,,,,,,,,,12,,,,61,0
30204,note_on,74,0,9,,,,,,,,,13,,,,49,0
30206,note_on,74,0,10,,,,,,,,,14,,,,37,0
30234,note_on,230,0,4,,,,,,,,,4,,,,65,0
30236,note_on,230,0,5,,,,,,,,,5,,,,53,0
30240,set_tempo,240,1,0,,,,,,272727,,,,,,,,
30240,note_on,56,0,6,,,,,,,,,10,,,,76,95
30240,note_on,0,0,6,,,,,,,,,10,,,,84,95
30241,note_on,230,0,3,,,,,,,,,3,,,,49,0
30242,note_on,46,0,7,,,,,,,,,11,,,,64,110
30242,note_on,0,0,7,,,,,,,,,11,,,,72,110
30244,note_on,10,0,4,,,,,,,,,4,,,,60,96
30246,note_on,46,0,8,,,,,,,,,12,,,,60,108
30246,note_on,10,0,5,,,,,,,,,5,,,,60,96
30250,note_on,46,0,9,,,,,,,,,13,,,,48,99
30251,note_on,10,0,3,,,,,,,,,3,,,,48,97
30252,note_on,46,0,10,,,,,,,,,14,,,,36,93
30303,note_on,780,0,1,,,,,,,,,0,,,,91,0
30305,note_on,780,0,2,,,,,,,,,1,,,,67,0
30305,note_on,0,0,2,,,,,,,,,1,,,,79,0
30325,note_on,0,0,6,,,,,,,,,10,,,,76,0
30325,note_on,85,0,6,,,,,,,,,10,,,,84,0
30337,note_on,95,0,7,,,,,,,,,11,,,,72,0
30337,note_on,0,0,7,,,,,,,,,11,,,,64,0
30341,note_on,95,0,8,,,,,,,,,12,,,,60,0
30345,note_on,95,0,9,,,,,,,,,13,,,,48,0
30347,note_on,95,0,10,,,,,,,,,14,,,,36,0
30349,note_on,105,0,4,,,,,,,,,4,,,,60,0
30351,note_on,105,0,5,,,,,,,,,5,,,,60,0
30356,note_on,105,0,3,,,,,,,,,3,,,,48,0
30360,note_on,35,0,6,,,,,,,,,10,,,,60,110
30362,note_on,25,0,7,,,,,,,,,11,,,,60,110
30363,note_on,60,0,1,,,,,,,,,0,,,,84,97
30364,note_on,15,0,4,,,,,,,,,4,,,,60,96
30365,note_on,60,0,2,,,,,,,,,1,,,,72,97
30366,note_on,25,0,8,,,,,,,,,12,,,,48,108
30366,note_on,15,0,5,,,,,,,,,5,,,,60,96
30370,note_on,25,0,9,,,,,,,,,13,,,,60,99
30371,note_on,15,0,3,,,,,,,,,3,,,,48,97
30372,note_on,25,0,10,,,,,,,,,14,,,,48,93
30397,note_on,37,0,6,,,,,,,,,10,,,,60,0
30399,note_on,37,0,7,,,,,,,,,11,,,,60,0
30403,note_on,37,0,8,,,,,,,,,12,,,,48,0
30406,note_on,43,0,1,,,,,,,,,0,,,,84,0
30407,note_on,43,0,4,,,,,,,,,4,,,,60,0
30407,note_on,37,0,9,,,,,,,,,13,,,,60,0
30408,note_on,43,0,2,,,,,,,,,1,,,,72,0
30409,note_on,37,0,10,,,,,,,,,14,,,,48,0
30409,note_on,43,0,5,,,,,,,,,5,,,,60,0
30414,note_on,43,0,3,,,,,,,,,3,,,,48,0
30420,note_on,23,0,6,,,,,,,,,10,,,,60,110
30422,note_on,23,0,7,,,,,,,,,11,,,,60,110
30423,note_on,17,0,1,,,,,,,,,0,,,,84,97
30424,note_on,17,0,4,,,,,,,,,4,,,,60,96
30425,note_on,17,0,2,,,,,,,,,1,,,,72,97
30426,note_on,23,0,8,,,,,,,,,12,,,,48,108
30426,note_on,17,0,5,,,,,,,,,5,,,,60,96
30430,note_on,23,0,9,,,,,,,,,13,,,,60,99
30431,note_on,17,0,3,,,,,,,,,3,,,,48,97
30432,note_on,23,0,10,,,,,,,,,14,,,,48,93
30457,note_on,37,0,6,,,,,,,,,10,,,,60,0
30459,note_on,37,0,7,,,,,,,,,11,,,,60,0
30463,note_on,37,0,8,,,,,,,,,12,,,,48,0
30466,note_on,43,0,1,,,,,,,,,0,,,,84,0
30467,note_on,43,0,4,,,,,,,,,4,,,,60,0
30467,note_on,37,0,9,,,,,,,,,13,,,,60,0
30468,note_on,43,0,2,,,,,,,,,1,,,,72,0
30469,note_on,37,0,10,,,,,,,,,14,,,,48,0
30469,note_on,43,0,5,,,,,,,,,5,,,,60,0
30474,note_on,43,0,3,,,,,,,,,3,,,,48,0
30480,note_on,23,0,6,,,,,,,,,10,,,,60,110
30480,set_tempo,240,1,0,,,,,,261438,,,,,,,,
30482,note_on,23,0,7,,,,,,,,,11,,,,60,110
30483,note_on,17,0,1,,,,,,,,,0,,,,84,97
30484,note_on,17,0,4,,,,,,,,,4,,,,60,96
30485,note_on,17,0,2,,,,,,,,,1,,,,72,97
30486,note_on,17,0,5,,,,,,,,,5,,,,60,96
30486,note_on,23,0,8,,,,,,,,,12,,,,48,108
30490,note_on,23,0,9,,,,,,,,,13,,,,60,99
30491,note_on,17,0,3,,,,,,,,,3,,,,48,97
30492,note_on,23,0,10,,,,,,,,,14,,,,48,93
30565,note_on,85,0,6,,,,,,,,,10,,,,60,0
30567,note_on,85,0,7,,,,,,,,,11,,,,60,0
30568,note_on,85,0,1,,,,,,,,,0,,,,84,0
30569,note_on,85,0,4,,,,,,,,,4,,,,60,0
30570,note_on,85,0,2,,,,,,,,,1,,,,72,0
30571,note_on,85,0,8,,,,,,,,,12,,,,48,0
30571,note_on,85,0,5,,,,,,,,,5,,,,60,0
30575,note_on,85,0,9,,,,,,,,,13,,,,60,0
30576,note_on,85,0,3,,,,,,,,,3,,,,48,0
30577,note_on,85,0,10,,,,,,,,,14,,,,48,0
30600,note_on,35,0,6,,,,,,,,,10,,,,60,110
30602,note_on,35,0,7,,,,,,,,,11,,,,60,110
30603,note_on,35,0,1,,,,,,,,,0,,,,84,97
30604,note_on,35,0,4,,,,,,,,,4,,,,60,96
30605,note_on,35,0,2,,,,,,,,,1,,,,72,97
30606,note_on,35,0,5,,,,,,,,,5,,,,60,96
30606,note_on,35,0,8,,,,,,,,,12,,,,48,108
30610,note_on,35,0,9,,,,,,,,,13,,,,60,99
30611,note_on,35,0,3,,,,,,,,,3,,,,48,97
30612,note_on,35,0,10,,,,,,,,,14,,,,48,93
30685,note_on,85,0,6,,,,,,,,,10,,,,60,0
30687,note_on,85,0,7,,,,,,,,,11,,,,60,0
30688,note_on,85,0,1,,,,,,,,,0,,,,84,0
30689,note_on,85,0,4,,,,,,,,,4,,,,60,0
30690,note_on,85,0,2,,,,,,,,,1,,,,72,0
30691,note_on,85,0,8,,,,,,,,,12,,,,48,0
30691,note_on,85,0,5,,,,,,,,,5,,,,60,0
30695,note_on,85,0,9,,,,,,,,,13,,,,60,0
30696,note_on,85,0,3,,,,,,,,,3,,,,48,0
30697,note_on,85,0,10,,,,,,,,,14,,,,48,0
30720,set_tempo,240,1,0,,,,,,272727,,,,,,,,
30720,note_on,35,0,6,,,,,,,,,10,,,,60,88
30722,note_on,35,0,7,,,,,,,,,11,,,,60,88
30723,note_on,35,0,1,,,,,,,,,0,,,,84,77
30724,note_on,35,0,4,,,,,,,,,4,,,,60,76
30725,note_on,35,0,2,,,,,,,,,1,,,,72,77
30726,note_on,35,0,5,,,,,,,,,5,,,,60,76
30726,note_on,35,0,8,,,,,,,,,12,,,,48,86
30730,note_on,35,0,9,,,,,,,,,13,,,,60,77
30731,note_on,35,0,3,,,,,,,,,3,,,,48,77
30732,note_on,35,0,10,,,,,,,,,14,,,,48,71
30840,control_change,120,0,6,,,,,,,,,10,11,79,,,
30842,control_change,120,0,7,,,,,,,,,11,11,79,,,
30846,control_change,120,0,8,,,,,,,,,12,11,79,,,
30850,control_change,120,0,9,,,,,,,,,13,11,79,,,
30852,control_change,120,0,10,,,,,,,,,14,11,79,,,
30863,control_change,23,0,6,,,,,,,,,10,11,75,,,
30865,control_change,23,0,7,,,,,,,,,11,11,75,,,
30869,control_change,23,0,8,,,,,,,,,12,11,75,,,
30873,control_change,23,0,9,,,,,,,,,13,11,75,,,
30875,control_change,23,0,10,,,,,,,,,14,11,75,,,
30887,control_change,24,0,6,,,,,,,,,10,11,71,,,
30889,control_change,24,0,7,,,,,,,,,11,11,71,,,
30893,control_change,24,0,8,,,,,,,,,12,11,71,,,
30897,control_change,24,0,9,,,,,,,,,13,11,71,,,
30899,control_change,24,0,10,,,,,,,,,14,11,71,,,
30899,control_change,12,0,6,,,,,,,,,10,11,68,,,
30901,control_change,12,0,7,,,,,,,,,11,11,68,,,
30905,control_change,12,0,8,,,,,,,,,12,11,68,,,
30909,control_change,12,0,9,,,,,,,,,13,11,68,,,
30911,control_change,12,0,10,,,,,,,,,14,11,68,,,
30923,control_change,24,0,6,,,,,,,,,10,11,64,,,
30925,control_change,24,0,7,,,,,,,,,11,11,64,,,
30929,control_change,24,0,8,,,,,,,,,12,11,64,,,
30933,control_change,24,0,9,,,,,,,,,13,11,64,,,
30935,control_change,24,0,10,,,,,,,,,14,11,64,,,
30947,control_change,24,0,6,,,,,,,,,10,11,60,,,
30949,control_change,24,0,7,,,,,,,,,11,11,60,,,
30953,control_change,24,0,8,,,,,,,,,12,11,60,,,
30955,note_on,8,0,6,,,,,,,,,10,,,,60,0
30957,note_on,8,0,7,,,,,,,,,11,,,,60,0
30957,control_change,24,0,9,,,,,,,,,13,11,60,,,
30958,note_on,235,0,1,,,,,,,,,0,,,,84,0
30959,note_on,235,0,4,,,,,,,,,4,,,,60,0
30959,control_change,24,0,10,,,,,,,,,14,11,60,,,
30959,control_change,4,0,6,,,,,,,,,10,11,57,,,
30960,set_tempo,240,1,0,,,,,,288462,,,,,,,,
30960,note_on,235,0,2,,,,,,,,,1,,,,72,0
30961,control_change,4,0,7,,,,,,,,,11,11,57,,,
30961,note_on,8,0,8,,,,,,,,,12,,,,48,0
30961,note_on,235,0,5,,,,,,,,,5,,,,60,0
30965,note_on,8,0,9,,,,,,,,,13,,,,60,0
30965,control_change,4,0,8,,,,,,,,,12,11,57,,,
30966,note_on,235,0,3,,,,,,,,,3,,,,48,0
30967,note_on,8,0,10,,,,,,,,,14,,,,48,0
30969,control_change,4,0,9,,,,,,,,,13,11,57,,,
30971,control_change,4,0,10,,,,,,,,,14,11,57,,,
31200,note_on,0,0,6,,,,,,,,,10,,,,81,100
31200,control_change,241,0,6,,,,,,,,,10,11,22,,,
31200,set_tempo,240,1,0,,,,,,289157,,,,,,,,
31202,control_change,241,0,7,,,,,,,,,11,11,22,,,
31202,note_on,0,0,7,,,,,,,,,11,,,,69,80
31206,control_change,241,0,8,,,,,,,,,12,11,22,,,
31206,note_on,0,0,8,,,,,,,,,12,,,,57,98
31209,control_change,9,0,6,,,,,,,,,10,11,25,,,
31210,control_change,241,0,9,,,,,,,,,13,11,22,,,
31210,note_on,0,0,9,,,,,,,,,13,,,,53,89
31211,control_change,9,0,7,,,,,,,,,11,11,25,,,
31212,note_on,0,0,10,,,,,,,,,14,,,,41,83
31212,control_change,241,0,10,,,,,,,,,14,11,22,,,
31215,control_change,9,0,8,,,,,,,,,12,11,25,,,
31218,control_change,9,0,6,,,,,,,,,10,11,28,,,
31219,control_change,9,0,9,,,,,,,,,13,11,25,,,
31220,control_change,9,0,7,,,,,,,,,11,11,28,,,
31221,control_change,9,0,10,,,,,,,,,14,11,25,,,
31224,control_change,9,0,8,,,,,,,,,12,11,28,,,
31227,control_change,9,0,6,,,,,,,,,10,11,31,,,
31228,control_change,9,0,9,,,,,,,,,13,11,28,,,
31229,control_change,9,0,7,,,,,,,,,11,11,31,,,
31230,control_change,9,0,10,,,,,,,,,14,11,28,,,
31233,control_change,9,0,8,,,,,,,,,12,11,31,,,
31237,control_change,9,0,9,,,,,,,,,13,11,31,,,
31239,control_change,9,0,10,,,,,,,,,14,11,31,,,
31242,control_change,15,0,6,,,,,,,,,10,11,34,,,
31244,control_change,15,0,7,,,,,,,,,11,11,34,,,
31248,control_change,15,0,8,,,,,,,,,12,11,34,,,
31252,control_change,15,0,9,,,,,,,,,13,11,34,,,
31254,control_change,15,0,10,,,,,,,,,14,11,34,,,
31260,control_change,18,0,6,,,,,,,,,10,11,37,,,
31262,control_change,18,0,7,,,,,,,,,11,11,37,,,
31266,control_change,18,0,8,,,,,,,,,12,11,37,,,
31270,control_change,18,0,9,,,,,,,,,13,11,37,,,
31272,control_change,18,0,10,,,,,,,,,14,11,37,,,
31278,control_change,18,0,6,,,,,,,,,10,11,40,,,
31280,control_change,18,0,7,,,,,,,,,11,11,40,,,
31284,control_change,18,0,8,,,,,,,,,12,11,40,,,
31288,control_change,18,0,9,,,,,,,,,13,11,40,,,
31290,control_change,18,0,10,,,,,,,,,14,11,40,,,
31296,control_change,18,0,6,,,,,,,,,10,11,43,,,
31298,control_change,18,0,7,,,,,,,,,11,11,43,,,
31302,control_change,18,0,8,,,,,,,,,12,11,43,,,
31306,control_change,18,0,9,,,,,,,,,13,11,43,,,
31308,control_change,18,0,10,,,,,,,,,14,11,43,,,
31314,control_change,18,0,6,,,,,,,,,10,11,46,,,
31316,control_change,18,0,7,,,,,,,,,11,11,46,,,
31320,control_change,18,0,8,,,,,,,,,12,11,46,,,
31324,control_change,18,0,9,,,,,,,,,13,11,46,,,
31326,control_change,18,0,10,,,,,,,,,14,11,46,,,
31440,note_on,0,0,6,,,,,,,,,10,,,,79,100
31440,note_on,126,0,6,,,,,,,,,10,,,,81,0
31440,set_tempo,240,1,0,,,,,,281030,,,,,,,,
31442,note_on,126,0,7,,,,,,,,,11,,,,69,0
31442,note_on,0,0,7,,,,,,,,,11,,,,67,80
31446,note_on,126,0,8,,,,,,,,,12,,,,57,0
31446,note_on,0,0,8,,,,,,,,,12,,,,58,98
31450,note_on,126,0,9,,,,,,,,,13,,,,53,0
31450,note_on,0,0,9,,,,,,,,,13,,,,55,89
31452,note_on,0,0,10,,,,,,,,,14,,,,43,83
31452,note_on,126,0,10,,,,,,,,,14,,,,41,0
31620,note_on,0,0,6,,,,,,,,,10,,,,76,100
31620,note_on,180,0,6,,,,,,,,,10,,,,79,0
31622,note_on,180,0,7,,,,,,,,,11,,,,67,0
31622,note_on,0,0,7,,,,,,,,,11,,,,64,80
31659,note_on,39,0,6,,,,,,,,,10,,,,76,0
31661,note_on,39,0,7,,,,,,,,,11,,,,64,0
31680,set_tempo,240,1,0,,,,,,289157,,,,,,,,
31680,note_on,21,0,6,,,,,,,,,10,,,,76,100
31682,note_on,21,0,7,,,,,,,,,11,,,,64,80
31686,note_on,240,0,8,,,,,,,,,12,,,,58,0
31686,note_on,0,0,8,,,,,,,,,12,,,,60,98
31690,note_on,240,0,9,,,,,,,,,13,,,,55,0
31690,note_on,0,0,9,,,,,,,,,13,,,,57,89
31692,note_on,240,0,10,,,,,,,,,14,,,,43,0
31692,note_on,0,0,10,,,,,,,,,14,,,,45,83
31800,note_on,120,0,6,,,,,,,,,10,,,,76,0
31800,note_on,0,0,6,,,,,,,,,10,,,,77,100
31802,note_on,0,0,7,,,,,,,,,11,,,,65,80
31802,note_on,120,0,7,,,,,,,,,11,,,,64,0
31915,note_on,115,0,6,,,,,,,,,10,,,,77,0
31917,note_on,115,0,7,,,,,,,,,11,,,,65,0
31920,set_tempo,240,1,0,,,,,,281030,,,,,,,,
31920,note_on,5,0,6,,,,,,,,,10,,,,72,88
31922,note_on,5,0,7,,,,,,,,,11,,,,60,70
31926,note_on,240,0,8,,,,,,,,,12,,,,60,0
31930,note_on,240,0,9,,,,,,,,,13,,,,57,0
31932,note_on,240,0,10,,,,,,,,,14,,,,45,0
32100,control_change,180,0,6,,,,,,,,,10,11,47,,,
32102,control_change,180,0,7,,,,,,,,,11,11,47,,,
32108,control_change,8,0,6,,,,,,,,,10,11,44,,,
32110,control_change,8,0,7,,,,,,,,,11,11,44,,,
32116,control_change,8,0,6,,,,,,,,,10,11,41,,,
32118,control_change,8,0,7,,,,,,,,,11,11,41,,,
32124,control_change,8,0,6,,,,,,,,,10,11,38,,,
32126,control_change,8,0,7,,,,,,,,,11,11,38,,,
32132,control_change,8,0,6,,,,,,,,,10,11,35,,,
32134,control_change,8,0,7,,,,,,,,,11,11,35,,,
32140,control_change,0,0,6,,,,,,,,,10,11,32,,,
32140,note_on,8,0,6,,,,,,,,,10,,,,72,0
32142,note_on,8,0,7,,,,,,,,,11,,,,60,0
32142,control_change,0,0,7,,,,,,,,,11,11,32,,,
32160,set_tempo,240,1,0,,,,,,289157,,,,,,,,
32160,note_on,20,0,6,,,,,,,,,10,,,,74,90
32162,note_on,20,0,7,,,,,,,,,11,,,,62,72
32166,note_on,240,0,8,,,,,,,,,12,,,,62,88
32170,note_on,240,0,9,,,,,,,,,13,,,,58,66
32172,note_on,240,0,10,,,,,,,,,14,,,,46,60
32220,note_on,60,0,6,,,,,,,,,10,,,,74,0
32222,note_on,60,0,7,,,,,,,,,11,,,,62,0
32226,note_on,60,0,8,,,,,,,,,12,,,,62,0
32230,note_on,60,0,9,,,,,,,,,13,,,,58,0
32232,note_on,60,0,10,,,,,,,,,14,,,,46,0
32280,note_on,60,0,6,,,,,,,,,10,,,,74,92
32282,note_on,60,0,7,,,,,,,,,11,,,,62,73
32286,note_on,60,0,8,,,,,,,,,12,,,,62,90
32290,note_on,60,0,9,,,,,,,,,13,,,,58,69
32292,note_on,60,0,10,,,,,,,,,14,,,,46,63
32340,note_on,60,0,6,,,,,,,,,10,,,,74,0
32342,note_on,60,0,7,,,,,,,,,11,,,,62,0
32346,note_on,60,0,8,,,,,,,,,12,,,,62,0
32350,note_on,60,0,9,,,,,,,,,13,,,,58,0
32352,note_on,60,0,10,,,,,,,,,14,,,,46,0
32400,set_tempo,240,1,0,,,,,,281030,,,,,,,,
32400,note_on,60,0,6,,,,,,,,,10,,,,78,97
32402,note_on,60,0,7,,,,,,,,,11,,,,66,77
32406,note_on,60,0,8,,,,,,,,,12,,,,63,95
32410,note_on,60,0,9,,,,,,,,,13,,,,60,72
32412,note_on,60,0,10,,,,,,,,,14,,,,48,66
32460,note_on,60,0,6,,,,,,,,,10,,,,78,0
32462,note_on,60,0,7,,,,,,,,,11,,,,66,0
32466,note_on,60,0,8,,,,,,,,,12,,,,63,0
32470,note_on,60,0,9,,,,,,,,,13,,,,60,0
32472,note_on,60,0,10,,,,,,,,,14,,,,48,0
32520,note_on,60,0,6,,,,,,,,,10,,,,78,101
32522,note_on,60,0,7,,,,,,,,,11,,,,66,80
32526,note_on,60,0,8,,,,,,,,,12,,,,63,99
32530,note_on,60,0,9,,,,,,,,,13,,,,60,76
32532,note_on,60,0,10,,,,,,,,,14,,,,48,70
32580,note_on,60,0,6,,,,,,,,,10,,,,78,0
32582,note_on,60,0,7,,,,,,,,,11,,,,66,0
32586,note_on,60,0,8,,,,,,,,,12,,,,63,0
32590,note_on,60,0,9,,,,,,,,,13,,,,60,0
32592,note_on,60,0,10,,,,,,,,,14,,,,48,0
32640,note_on,60,0,6,,,,,,,,,10,,,,81,105
32640,set_tempo,240,1,0,,,,,,289157,,,,,,,,
32642,note_on,60,0,7,,,,,,,,,11,,,,69,84
32646,note_on,60,0,8,,,,,,,,,12,,,,62,103
32650,note_on,60,0,9,,,,,,,,,13,,,,58,80
32652,note_on,60,0,10,,,,,,,,,14,,,,46,74
32655,note_on,15,0,6,,,,,,,,,10,,,,81,0
32655,note_on,0,0,6,,,,,,,,,10,,,,79,105
32657,note_on,0,0,7,,,,,,,,,11,,,,67,84
32657,note_on,15,0,7,,,,,,,,,11,,,,69,0
32700,note_on,45,0,6,,,,,,,,,10,,,,79,0
32700,note_on,0,0,6,,,,,,,,,10,,,,78,106
32702,note_on,45,0,7,,,,,,,,,11,,,,67,0
32702,note_on,0,0,7,,,,,,,,,11,,,,66,84
32760,note_on,0,0,6,,,,,,,,,10,,,,79,107
32760,note_on,60,0,6,,,,,,,,,10,,,,78,0
32762,note_on,0,0,7,,,,,,,,,11,,,,67,85
32762,note_on,60,0,7,,,,,,,,,11,,,,66,0
32820,note_on,60,0,6,,,,,,,,,10,,,,79,0
32820,note_on,0,0,6,,,,,,,,,10,,,,81,108
32822,note_on,60,0,7,,,,,,,,,11,,,,67,0
32822,note_on,0,0,7,,,,,,,,,11,,,,69,86
32826,note_on,180,0,8,,,,,,,,,12,,,,62,0
32826,note_on,0,0,8,,,,,,,,,12,,,,60,106
32830,note_on,180,0,9,,,,,,,,,13,,,,58,0
32830,note_on,0,0,9,,,,,,,,,13,,,,57,83
32832,note_on,0,0,10,,,,,,,,,14,,,,45,77
32832,note_on,180,0,10,,,,,,,,,14,,,,46,0
32880,note_on,60,0,6,,,,,,,,,10,,,,81,0
32880,set_tempo,240,1,0,,,,,,281030,,,,,,,,
32880,note_on,0,0,6,,,,,,,,,10,,,,82,97
32882,note_on,0,0,7,,,,,,,,,11,,,,70,77
32882,note_on,60,0,7,,,,,,,,,11,,,,69,0
32886,note_on,60,0,8,,,,,,,,,12,,,,60,0
32886,note_on,0,0,8,,,,,,,,,12,,,,58,95
32890,note_on,60,0,9,,,,,,,,,13,,,,57,0
32890,note_on,0,0,9,,,,,,,,,13,,,,55,72
32892,note_on,60,0,10,,,,,,,,,14,,,,45,0
32892,note_on,0,0,10,,,,,,,,,14,,,,43,66
33000,note_on,120,0,6,,,,,,,,,10,,,,82,0
33002,note_on,120,0,7,,,,,,,,,11,,,,70,0
33006,note_on,120,0,8,,,,,,,,,12,,,,58,0
33010,note_on,120,0,9,,,,,,,,,13,,,,55,0
33012,note_on,120,0,10,,,,,,,,,14,,,,43,0
33120,note_on,0,0,6,,,,,,,,,10,,,,82,110
33120,control_change,120,0,6,,,,,,,,,10,11,32,,,
33120,set_tempo,240,1,0,,,,,,289157,,,,,,,,
33122,note_on,0,0,7,,,,,,,,,11,,,,70,88
33122,control_change,120,0,7,,,,,,,,,11,11,32,,,
33126,note_on,120,0,8,,,,,,,,,12,,,,58,108
33130,note_on,120,0,9,,,,,,,,,13,,,,55,99
33132,note_on,120,0,10,,,,,,,,,14,,,,43,93
33136,control_change,16,0,6,,,,,,,,,10,11,34,,,
33138,control_change,16,0,7,,,,,,,,,11,11,34,,,
33152,control_change,16,0,6,,,,,,,,,10,11,36,,,
33154,control_change,16,0,7,,,,,,,,,11,11,36,,,
33168,control_change,16,0,6,,,,,,,,,10,11,38,,,
33170,control_change,16,0,7,,,,,,,,,11,11,38,,,
33184,control_change,16,0,6,,,,,,,,,10,11,40,,,
33186,control_change,16,0,7,,,,,,,,,11,11,40,,,
33200,control_change,16,0,6,,,,,,,,,10,11,42,,,
33202,control_change,16,0,7,,,,,,,,,11,11,42,,,
33216,control_change,16,0,6,,,,,,,,,10,11,44,,,
33218,control_change,16,0,7,,,,,,,,,11,11,44,,,
33232,control_change,16,0,6,,,,,,,,,10,11,46,,,
33234,control_change,16,0,7,,,,,,,,,11,11,46,,,
33360,note_on,128,0,6,,,,,,,,,10,,,,82,0
33360,set_tempo,240,1,0,,,,,,281030,,,,,,,,
33360,note_on,0,0,6,,,,,,,,,10,,,,81,110
33362,note_on,0,0,7,,,,,,,,,11,,,,69,88
33362,note_on,128,0,7,,,,,,,,,11,,,,70,0
33366,note_on,0,0,8,,,,,,,,,12,,,,60,108
33366,note_on,240,0,8,,,,,,,,,12,,,,58,0
33370,note_on,240,0,9,,,,,,,,,13,,,,55,0
33370,note_on,0,0,9,,,,,,,,,13,,,,57,99
33372,note_on,240,0,10,,,,,,,,,14,,,,43,0
33372,note_on,0,0,10,,,,,,,,,14,,,,45,93
33540,note_on,0,0,6,,,,,,,,,10,,,,78,110
33540,note_on,180,0,6,,,,,,,,,10,,,,81,0
33542,note_on,0,0,7,,,,,,,,,11,,,,66,88
33542,note_on,180,0,7,,,,,,,,,11,,,,69,0
33579,note_on,39,0,6,,,,,,,,,10,,,,78,0
33581,note_on,39,0,7,,,,,,,,,11,,,,66,0
33600,note_on,21,0,6,,,,,,,,,10,,,,78,100
33600,set_tempo,240,1,0,,,,,,289157,,,,,,,,
33602,note_on,21,0,7,,,,,,,,,11,,,,66,80
33606,note_on,240,0,8,,,,,,,,,12,,,,60,0
33606,note_on,0,0,8,,,,,,,,,12,,,,62,108
33610,note_on,0,0,9,,,,,,,,,13,,,,58,99
33610,note_on,240,0,9,,,,,,,,,13,,,,57,0
33612,note_on,0,0,10,,,,,,,,,14,,,,46,93
33612,note_on,240,0,10,,,,,,,,,14,,,,45,0
33720,note_on,120,0,6,,,,,,,,,10,,,,78,0
33720,note_on,0,0,6,,,,,,,,,10,,,,79,102
33722,note_on,0,0,7,,,,,,,,,11,,,,67,81
33722,note_on,120,0,7,,,,,,,,,11,,,,66,0
33840,note_on,120,0,6,,,,,,,,,10,,,,79,0
33840,note_on,0,0,6,,,,,,,,,10,,,,82,105
33840,set_tempo,240,1,0,,,,,,281030,,,,,,,,
33842,note_on,120,0,7,,,,,,,,,11,,,,67,0
33842,note_on,0,0,7,,,,,,,,,11,,,,70,84
33846,note_on,240,0,8,,,,,,,,,12,,,,62,0
33850,note_on,240,0,9,,,,,,,,,13,,,,58,0
33852,note_on,240,0,10,,,,,,,,,14,,,,46,0
33960,control_change,0,0,6,,,,,,,,,10,11,46,,,
33960,note_on,120,0,6,,,,,,,,,10,,,,82,0
33960,note_on,0,0,6,,,,,,,,,10,,,,86,107
33962,note_on,120,0,7,,,,,,,,,11,,,,70,0
33962,control_change,0,0,7,,,,,,,,,11,11,46,,,
33962,note_on,0,0,7,,,,,,,,,11,,,,74,85
33977,control_change,17,0,6,,,,,,,,,10,11,44,,,
33979,control_change,17,0,7,,,,,,,,,11,11,44,,,
33994,control_change,17,0,6,,,,,,,,,10,11,42,,,
33996,control_change,17,0,7,,,,,,,,,11,11,42,,,
34011,control_change,17,0,6,,,,,,,,,10,11,40,,,
34013,control_change,17,0,7,,,,,,,,,11,11,40,,,
34028,control_change,17,0,6,,,,,,,,,10,11,38,,,
34030,control_change,17,0,7,,,,,,,,,11,11,38,,,
34045,control_change,17,0,6,,,,,,,,,10,11,36,,,
34047,control_change,17,0,7,,,,,,,,,11,11,36,,,
34062,control_change,17,0,6,,,,,,,,,10,11,34,,,
34064,control_change,17,0,7,,,,,,,,,11,11,34,,,
34075,note_on,13,0,6,,,,,,,,,10,,,,86,0
34077,note_on,13,0,7,,,,,,,,,11,,,,74,0
34080,note_on,0,0,6,,,,,,,,,10,,,,77,104
34080,set_tempo,240,1,0,,,,,,289157,,,,,,,,
34080,control_change,5,0,6,,,,,,,,,10,11,32,,,
34082,control_change,5,0,7,,,,,,,,,11,11,32,,,
34082,note_on,0,0,7,,,,,,,,,11,,,,65,83
34086,note_on,240,0,8,,,,,,,,,12,,,,57,102
34090,note_on,240,0,9,,,,,,,,,13,,,,60,79
34092,note_on,240,0,10,,,,,,,,,14,,,,48,73
34096,control_change,16,0,6,,,,,,,,,10,11,33,,,
34098,control_change,16,0,7,,,,,,,,,11,11,33,,,
34112,control_change,16,0,6,,,,,,,,,10,11,34,,,
34114,control_change,16,0,7,,,,,,,,,11,11,34,,,
34128,control_change,16,0,6,,,,,,,,,10,11,35,,,
34130,control_change,16,0,7,,,,,,,,,11,11,35,,,
34144,control_change,16,0,6,,,,,,,,,10,11,36,,,
34146,control_change,16,0,7,,,,,,,,,11,11,36,,,
34158,note_on,14,0,6,,,,,,,,,10,,,,77,0
34160,control_change,2,0,6,,,,,,,,,10,11,37,,,
34160,note_on,14,0,7,,,,,,,,,11,,,,65,0
34162,control_change,2,0,7,,,,,,,,,11,11,37,,,
34164,note_on,78,0,8,,,,,,,,,12,,,,57,0
34168,note_on,78,0,9,,,,,,,,,13,,,,60,0
34170,note_on,78,0,10,,,,,,,,,14,,,,48,0
34176,control_change,16,0,6,,,,,,,,,10,11,38,,,
34178,control_change,16,0,7,,,,,,,,,11,11,38,,,
34192,control_change,16,0,6,,,,,,,,,10,11,39,,,
34194,control_change,16,0,7,,,,,,,,,11,11,39,,,
34200,note_on,8,0,6,,,,,,,,,10,,,,77,105
34202,note_on,8,0,7,,,,,,,,,11,,,,65,84
34206,note_on,42,0,8,,,,,,,,,12,,,,57,103
34208,control_change,8,0,6,,,,,,,,,10,11,40,,,
34210,note_on,42,0,9,,,,,,,,,13,,,,60,80
34210,control_change,8,0,7,,,,,,,,,11,11,40,,,
34212,note_on,42,0,10,,,,,,,,,14,,,,48,74
34224,control_change,16,0,6,,,,,,,,,10,11,41,,,
34226,control_change,16,0,7,,,,,,,,,11,11,41,,,
34240,control_change,16,0,6,,,,,,,,,10,11,42,,,
34242,control_change,16,0,7,,,,,,,,,11,11,42,,,
34256,control_change,16,0,6,,,,,,,,,10,11,43,,,
34258,control_change,16,0,7,,,,,,,,,11,11,43,,,
34272,control_change,16,0,6,,,,,,,,,10,11,44,,,
34274,control_change,16,0,7,,,,,,,,,11,11,44,,,
34278,note_on,6,0,6,,,,,,,,,10,,,,77,0
34280,note_on,6,0,7,,,,,,,,,11,,,,65,0
34284,note_on,78,0,8,,,,,,,,,12,,,,57,0
34288,note_on,78,0,9,,,,,,,,,13,,,,60,0
34288,control_change,10,0,6,,,,,,,,,10,11,45,,,
34290,control_change,10,0,7,,,,,,,,,11,11,45,,,
34290,note_on,78,0,10,,,,,,,,,14,,,,48,0
34304,control_change,16,0,6,,,,,,,,,10,11,46,,,
34306,control_change,16,0,7,,,,,,,,,11,11,46,,,
34320,note_on,0,0,6,,,,,,,,,10,,,,81,106
34320,control_change,16,0,6,,,,,,,,,10,11,47,,,
34320,set_tempo,240,1,0,,,,,,281030,,,,,,,,
34322,control_change,16,0,7,,,,,,,,,11,11,47,,,
34322,note_on,0,0,7,,,,,,,,,11,,,,69,84
34326,note_on,42,0,8,,,,,,,,,12,,,,58,104
34330,note_on,42,0,9,,,,,,,,,13,,,,48,81
34332,note_on,42,0,10,,,,,,,,,14,,,,36,75
34335,note_on,15,0,6,,,,,,,,,10,,,,81,0
34335,note_on,0,0,6,,,,,,,,,10,,,,79,106
34337,note_on,0,0,7,,,,,,,,,11,,,,67,84
34337,note_on,15,0,7,,,,,,,,,11,,,,69,0
34380,note_on,45,0,6,,,,,,,,,10,,,,79,0
34380,note_on,0,0,6,,,,,,,,,10,,,,77,107
34382,note_on,0,0,7,,,,,,,,,11,,,,65,85
34382,note_on,45,0,7,,,,,,,,,11,,,,67,0
34386,note_on,0,0,8,,,,,,,,,12,,,,57,105
34386,note_on,60,0,8,,,,,,,,,12,,,,58,0
34440,note_on,0,0,6,,,,,,,,,10,,,,79,107
34440,note_on,60,0,6,,,,,,,,,10,,,,77,0
34442,note_on,0,0,7,,,,,,,,,11,,,,67,85
34442,note_on,60,0,7,,,,,,,,,11,,,,65,0
34445,note_on,115,0,9,,,,,,,,,13,,,,48,0
34446,note_on,0,0,8,,,,,,,,,12,,,,58,105
34446,note_on,60,0,8,,,,,,,,,12,,,,57,0
34447,note_on,115,0,10,,,,,,,,,14,,,,36,0
34450,note_on,5,0,9,,,,,,,,,13,,,,48,82
34452,note_on,5,0,10,,,,,,,,,14,,,,36,76
34490,set_tempo,170,1,0,,,,,,318302,,,,,,,,
34500,note_on,60,0,6,,,,,,,,,10,,,,79,0
34500,note_on,0,0,6,,,,,,,,,10,,,,81,86
34502,note_on,0,0,7,,,,,,,,,11,,,,69,68
34502,note_on,60,0,7,,,,,,,,,11,,,,67,0
34506,note_on,60,0,8,,,,,,,,,12,,,,58,0
34506,note_on,0,0,8,,,,,,,,,12,,,,60,84
34560,set_tempo,70,1,0,,,,,,289157,,,,,,,,
34560,note_on,60,0,6,,,,,,,,,10,,,,81,0
34560,note_on,0,0,6,,,,,,,,,10,,,,77,86
34562,note_on,0,0,7,,,,,,,,,11,,,,65,68
34562,note_on,60,0,7,,,,,,,,,11,,,,69,0
34565,note_on,115,0,9,,,,,,,,,13,,,,48,0
34566,note_on,60,0,8,,,,,,,,,12,,,,60,0
34566,note_on,0,0,8,,,,,,,,,12,,,,57,84
34567,note_on,115,0,10,,,,,,,,,14,,,,36,0
34570,note_on,5,0,9,,,,,,,,,13,,,,53,63
34572,note_on,5,0,10,,,,,,,,,14,,,,41,57
34680,note_on,120,0,6,,,,,,,,,10,,,,77,0
34682,note_on,120,0,7,,,,,,,,,11,,,,65,0
34683,control_change,3725,0,1,,,,,,,,,0,11,57,,,
34683,note_on,0,0,1,,,,,,,,,0,,,,71,97
34686,note_on,120,0,8,,,,,,,,,12,,,,57,0
34690,note_on,120,0,9,,,,,,,,,13,,,,53,0
34691,note_on,0,0,3,,,,,,,,,3,,,,59,97
34691,control_change,3725,0,3,,,,,,,,,3,11,47,,,
34692,note_on,120,0,10,,,,,,,,,14,,,,41,0
34743,note_on,60,0,1,,,,,,,,,0,,,,71,0
34743,note_on,0,0,1,,,,,,,,,0,,,,72,97
34751,note_on,0,0,3,,,,,,,,,3,,,,60,97
34751,note_on,60,0,3,,,,,,,,,3,,,,59,0
34800,set_tempo,240,1,0,,,,,,281030,,,,,,,,
34803,note_on,0,0,1,,,,,,,,,0,,,,74,99
34803,note_on,60,0,1,,,,,,,,,0,,,,72,0
34811,note_on,60,0,3,,,,,,,,,3,,,,60,0
34811,note_on,0,0,3,,,,,,,,,3,,,,62,99
34863,note_on,60,0,1,,,,,,,,,0,,,,74,0
34863,note_on,0,0,1,,,,,,,,,0,,,,76,101
34871,note_on,0,0,3,,,,,,,,,3,,,,64,101
34871,note_on,60,0,3,,,,,,,,,3,,,,62,0
34923,note_on,60,0,1,,,,,,,,,0,,,,76,0
34923,note_on,0,0,1,,,,,,,,,0,,,,77,102
34931,note_on,60,0,3,,,,,,,,,3,,,,64,0
34931,note_on,0,0,3,,,,,,,,,3,,,,65,102
34983,note_on,0,0,1,,,,,,,,,0,,,,79,103
34983,note_on,60,0,1,,,,,,,,,0,,,,77,0
34991,note_on,60,0,3,,,,,,,,,3,,,,65,0
34991,note_on,0,0,3,,,,,,,,,3,,,,67,103
35040,set_tempo,240,1,0,,,,,,289157,,,,,,,,
35043,control_change,0,0,1,,,,,,,,,0,11,57,,,
35043,note_on,0,0,1,,,,,,,,,0,,,,81,105
35043,note_on,60,0,1,,,,,,,,,0,,,,79,0
35045,control_change,4085,0,2,,,,,,,,,1,11,57,,,
35045,note_on,0,0,2,,,,,,,,,1,,,,69,105
35046,note_on,0,0,8,,,,,,,,,12,,,,57,108
35046,control_change,360,0,8,,,,,,,,,12,11,27,,,
35050,note_on,0,0,9,,,,,,,,,13,,,,53,99
35050,control_change,360,0,9,,,,,,,,,13,11,27,,,
35051,note_on,0,0,3,,,,,,,,,3,,,,65,105
35051,note_on,60,0,3,,,,,,,,,3,,,,67,0
35052,note_on,0,0,10,,,,,,,,,14,,,,41,93
35052,control_change,360,0,10,,,,,,,,,14,11,27,,,
35070,control_change,24,0,8,,,,,,,,,12,11,29,,,
35074,control_change,24,0,9,,,,,,,,,13,11,29,,,
35076,control_change,24,0,10,,,,,,,,,14,11,29,,,
35094,control_change,24,0,8,,,,,,,,,12,11,31,,,
35098,control_change,24,0,9,,,,,,,,,13,11,31,,,
35100,control_change,24,0,10,,,,,,,,,14,11,31,,,
35118,control_change,24,0,8,,,,,,,,,12,11,33,,,
35122,control_change,24,0,9,,,,,,,,,13,11,33,,,
35124,control_change,24,0,10,,,,,,,,,14,11,33,,,
35142,control_change,24,0,8,,,,,,,,,12,11,35,,,
35146,control_change,24,0,9,,,,,,,,,13,11,35,,,
35148,control_change,24,0,10,,,,,,,,,14,11,35,,,
35166,control_change,24,0,8,,,,,,,,,12,11,37,,,
35170,control_change,24,0,9,,,,,,,,,13,11,37,,,
35172,control_change,24,0,10,,,,,,,,,14,11,37,,,
35190,control_change,24,0,8,,,,,,,,,12,11,39,,,
35194,control_change,24,0,9,,,,,,,,,13,11,39,,,
35196,control_change,24,0,10,,,,,,,,,14,11,39,,,
35214,control_change,24,0,8,,,,,,,,,12,11,41,,,
35218,control_change,24,0,9,,,,,,,,,13,11,41,,,
35220,control_change,24,0,10,,,,,,,,,14,11,41,,,
35238,control_change,24,0,8,,,,,,,,,12,11,43,,,
35242,control_change,24,0,9,,,,,,,,,13,11,43,,,
35244,control_change,24,0,10,,,,,,,,,14,11,43,,,
35262,control_change,24,0,8,,,,,,,,,12,11,45,,,
35266,control_change,24,0,9,,,,,,,,,13,11,45,,,
35268,control_change,24,0,10,,,,,,,,,14,11,45,,,
35280,set_tempo,240,1,0,,,,,,281030,,,,,,,,
35283,note_on,0,0,1,,,,,,,,,0,,,,79,97
35283,note_on,240,0,1,,,,,,,,,0,,,,81,0
35285,note_on,240,0,2,,,,,,,,,1,,,,69,0
35285,note_on,0,0,2,,,,,,,,,1,,,,67,97
35286,control_change,0,0,8,,,,,,,,,12,11,47,,,
35286,note_on,0,0,8,,,,,,,,,12,,,,58,108
35286,note_on,24,0,8,,,,,,,,,12,,,,57,0
35290,control_change,0,0,9,,,,,,,,,13,11,47,,,
35290,note_on,0,0,9,,,,,,,,,13,,,,55,99
35290,note_on,24,0,9,,,,,,,,,13,,,,53,0
35291,note_on,0,0,3,,,,,,,,,3,,,,61,97
35291,note_on,240,0,3,,,,,,,,,3,,,,65,0
35292,control_change,0,0,10,,,,,,,,,14,11,47,,,
35292,note_on,24,0,10,,,,,,,,,14,,,,41,0
35292,note_on,0,0,10,,,,,,,,,14,,,,43,93
35463,note_on,180,0,1,,,,,,,,,0,,,,79,0
35463,note_on,0,0,1,,,,,,,,,0,,,,76,97
35465,note_on,180,0,2,,,,,,,,,1,,,,67,0
35465,note_on,0,0,2,,,,,,,,,1,,,,64,97
35513,note_on,50,0,1,,,,,,,,,0,,,,76,0
35515,note_on,50,0,2,,,,,,,,,1,,,,64,0
35520,set_tempo,240,1,0,,,,,,289157,,,,,,,,
35523,note_on,10,0,1,,,,,,,,,0,,,,76,97
35525,note_on,10,0,2,,,,,,,,,1,,,,64,97
35526,note_on,0,0,8,,,,,,,,,12,,,,60,108
35526,note_on,240,0,8,,,,,,,,,12,,,,58,0
35530,note_on,0,0,9,,,,,,,,,13,,,,57,99
35530,note_on,240,0,9,,,,,,,,,13,,,,55,0
35531,note_on,240,0,3,,,,,,,,,3,,,,61,0
35531,note_on,0,0,3,,,,,,,,,3,,,,60,97
35532,note_on,0,0,10,,,,,,,,,14,,,,45,93
35532,note_on,240,0,10,,,,,,,,,14,,,,43,0
35640,note_on,0,0,6,,,,,,,,,10,,,,84,102
35640,control_change,960,0,6,,,,,,,,,10,11,42,,,
35642,note_on,0,0,7,,,,,,,,,11,,,,72,81
35642,control_change,960,0,7,,,,,,,,,11,11,42,,,
35643,note_on,120,0,1,,,,,,,,,0,,,,76,0
35643,note_on,0,0,1,,,,,,,,,0,,,,77,97
35644,control_change,4,0,6,,,,,,,,,10,11,45,,,
35645,note_on,0,0,2,,,,,,,,,1,,,,65,97
35645,note_on,120,0,2,,,,,,,,,1,,,,64,0
35646,control_change,4,0,7,,,,,,,,,11,11,45,,,
35648,control_change,4,0,6,,,,,,,,,10,11,48,,,
35650,control_change,4,0,7,,,,,,,,,11,11,48,,,
35653,control_change,5,0,6,,,,,,,,,10,11,51,,,
35655,control_change,5,0,7,,,,,,,,,11,11,51,,,
35657,control_change,4,0,6,,,,,,,,,10,11,54,,,
35659,control_change,4,0,7,,,,,,,,,11,11,54,,,
35661,control_change,4,0,6,,,,,,,,,10,11,57,,,
35663,control_change,4,0,7,,,,,,,,,11,11,57,,,
35666,control_change,5,0,6,,,,,,,,,10,11,60,,,
35668,control_change,5,0,7,,,,,,,,,11,11,60,,,
35760,set_tempo,240,1,0,,,,,,281030,,,,,,,,
35760,control_change,94,0,6,,,,,,,,,10,11,62,,,
35762,control_change,94,0,7,,,,,,,,,11,11,62,,,
35763,note_on,0,0,1,,,,,,,,,0,,,,72,97
35763,note_on,120,0,1,,,,,,,,,0,,,,77,0
35765,note_on,0,0,2,,,,,,,,,1,,,,60,97
35765,note_on,120,0,2,,,,,,,,,1,,,,65,0
35766,note_on,240,0,8,,,,,,,,,12,,,,60,0
35770,note_on,240,0,9,,,,,,,,,13,,,,57,0
35771,note_on,240,0,3,,,,,,,,,3,,,,60,0
35772,note_on,240,0,10,,,,,,,,,14,,,,45,0
35783,control_change,23,0,6,,,,,,,,,10,11,60,,,
35785,control_change,23,0,7,,,,,,,,,11,11,60,,,
35807,control_change,24,0,6,,,,,,,,,10,11,58,,,
35809,control_change,24,0,7,,,,,,,,,11,11,58,,,
35831,control_change,24,0,6,,,,,,,,,10,11,56,,,
35833,control_change,24,0,7,,,,,,,,,11,11,56,,,
35855,control_change,24,0,6,,,,,,,,,10,11,54,,,
35857,control_change,24,0,7,,,,,,,,,11,11,54,,,
35879,control_change,24,0,6,,,,,,,,,10,11,52,,,
35880,note_on,0,0,6,,,,,,,,,10,,,,82,102
35880,note_on,1,0,6,,,,,,,,,10,,,,84,0
35881,control_change,24,0,7,,,,,,,,,11,11,52,,,
35882,note_on,0,0,7,,,,,,,,,11,,,,70,81
35882,note_on,1,0,7,,,,,,,,,11,,,,72,0
35903,control_change,23,0,6,,,,,,,,,10,11,50,,,
35903,control_change,140,0,1,,,,,,,,,0,11,57,,,
35905,control_change,23,0,7,,,,,,,,,11,11,50,,,
35905,control_change,140,0,2,,,,,,,,,1,11,57,,,
35922,control_change,19,0,1,,,,,,,,,0,11,54,,,
35924,control_change,19,0,2,,,,,,,,,1,11,54,,,
35927,control_change,24,0,6,,,,,,,,,10,11,48,,,
35929,control_change,24,0,7,,,,,,,,,11,11,48,,,
35940,note_on,0,0,6,,,,,,,,,10,,,,81,102
35940,note_on,13,0,6,,,,,,,,,10,,,,82,0
35942,note_on,13,0,7,,,,,,,,,11,,,,70,0
35942,note_on,0,0,7,,,,,,,,,11,,,,69,81
35942,control_change,20,0,1,,,,,,,,,0,11,51,,,
35944,control_change,20,0,2,,,,,,,,,1,11,51,,,
35962,control_change,20,0,1,,,,,,,,,0,11,48,,,
35964,control_change,20,0,2,,,,,,,,,1,11,48,,,
35979,note_on,39,0,6,,,,,,,,,10,,,,81,0
35981,note_on,39,0,7,,,,,,,,,11,,,,69,0
35982,control_change,20,0,1,,,,,,,,,0,11,45,,,
35984,control_change,20,0,2,,,,,,,,,1,11,45,,,
36000,set_tempo,240,1,0,,,,,,289157,,,,,,,,
36000,note_on,21,0,6,,,,,,,,,10,,,,79,72
36002,control_change,20,0,1,,,,,,,,,0,11,42,,,
36002,note_on,21,0,7,,,,,,,,,11,,,,67,57
36003,control_change,0,0,1,,,,,,,,,0,11,57,,,
36003,note_on,1,0,1,,,,,,,,,0,,,,72,0
36003,note_on,0,0,1,,,,,,,,,0,,,,74,87
36004,control_change,20,0,2,,,,,,,,,1,11,42,,,
36005,note_on,0,0,2,,,,,,,,,1,,,,62,87
36005,control_change,0,0,2,,,,,,,,,1,11,57,,,
36005,note_on,1,0,2,,,,,,,,,1,,,,60,0
36006,note_on,240,0,8,,,,,,,,,12,,,,62,108
36010,note_on,240,0,9,,,,,,,,,13,,,,58,84
36012,note_on,240,0,10,,,,,,,,,14,,,,46,78
36063,note_on,60,0,1,,,,,,,,,0,,,,74,0
36065,note_on,60,0,2,,,,,,,,,1,,,,62,0
36066,note_on,60,0,8,,,,,,,,,12,,,,62,0
36070,note_on,60,0,9,,,,,,,,,13,,,,58,0
36072,note_on,60,0,10,,,,,,,,,14,,,,46,0
36120,note_on,120,0,6,,,,,,,,,10,,,,79,0
36122,note_on,120,0,7,,,,,,,,,11,,,,67,0
36123,note_on,60,0,1,,,,,,,,,0,,,,74,88
36125,note_on,60,0,2,,,,,,,,,1,,,,62,88
36126,note_on,60,0,8,,,,,,,,,12,,,,62,108
36130,note_on,60,0,9,,,,,,,,,13,,,,58,84
36132,note_on,60,0,10,,,,,,,,,14,,,,46,78
36183,note_on,60,0,1,,,,,,,,,0,,,,74,0
36185,note_on,60,0,2,,,,,,,,,1,,,,62,0
36186,note_on,60,0,8,,,,,,,,,12,,,,62,0
36190,note_on,60,0,9,,,,,,,,,13,,,,58,0
36192,note_on,60,0,10,,,,,,,,,14,,,,46,0
36240,set_tempo,240,1,0,,,,,,281030,,,,,,,,
36243,note_on,60,0,1,,,,,,,,,0,,,,78,90
36245,note_on,60,0,2,,,,,,,,,1,,,,66,90
36246,note_on,60,0,8,,,,,,,,,12,,,,63,108
36250,note_on,60,0,9,,,,,,,,,13,,,,60,84
36252,note_on,60,0,10,,,,,,,,,14,,,,48,78
36303,note_on,60,0,1,,,,,,,,,0,,,,78,0
36305,note_on,60,0,2,,,,,,,,,1,,,,66,0
36306,note_on,60,0,8,,,,,,,,,12,,,,63,0
36310,note_on,60,0,9,,,,,,,,,13,,,,60,0
36312,note_on,60,0,10,,,,,,,,,14,,,,48,0
36363,note_on,60,0,1,,,,,,,,,0,,,,78,92
36365,note_on,60,0,2,,,,,,,,,1,,,,66,92
36366,note_on,60,0,8,,,,,,,,,12,,,,63,108
36370,note_on,60,0,9,,,,,,,,,13,,,,60,84
36372,note_on,60,0,10,,,,,,,,,14,,,,48,78
36423,note_on,60,0,1,,,,,,,,,0,,,,78,0
36425,note_on,60,0,2,,,,,,,,,1,,,,66,0
36426,note_on,60,0,8,,,,,,,,,12,,,,63,0
36430,note_on,60,0,9,,,,,,,,,13,,,,60,0
36432,note_on,60,0,10,,,,,,,,,14,,,,48,0
36480,set_tempo,240,1,0,,,,,,289157,,,,,,,,
36483,note_on,60,0,1,,,,,,,,,0,,,,81,93
36485,note_on,60,0,2,,,,,,,,,1,,,,69,93
36486,note_on,60,0,8,,,,,,,,,12,,,,62,108
36490,note_on,60,0,9,,,,,,,,,13,,,,58,84
36492,note_on,60,0,10,,,,,,,,,14,,,,46,78
36498,note_on,0,0,1,,,,,,,,,0,,,,79,93
36498,note_on,15,0,1,,,,,,,,,0,,,,81,0
36500,note_on,0,0,2,,,,,,,,,1,,,,67,93
36500,note_on,15,0,2,,,,,,,,,1,,,,69,0
36543,note_on,0,0,1,,,,,,,,,0,,,,78,94
36543,note_on,45,0,1,,,,,,,,,0,,,,79,0
36545,note_on,0,0,2,,,,,,,,,1,,,,66,94
36545,note_on,45,0,2,,,,,,,,,1,,,,67,0
36603,note_on,0,0,1,,,,,,,,,0,,,,79,95
36603,note_on,60,0,1,,,,,,,,,0,,,,78,0
36605,note_on,0,0,2,,,,,,,,,1,,,,67,95
36605,note_on,60,0,2,,,,,,,,,1,,,,66,0
36663,note_on,0,0,1,,,,,,,,,0,,,,81,96
36663,note_on,60,0,1,,,,,,,,,0,,,,79,0
36665,note_on,0,0,2,,,,,,,,,1,,,,69,96
36665,note_on,60,0,2,,,,,,,,,1,,,,67,0
36666,note_on,0,0,8,,,,,,,,,12,,,,60,108
36666,note_on,180,0,8,,,,,,,,,12,,,,62,0
36670,note_on,180,0,9,,,,,,,,,13,,,,58,0
36670,note_on,0,0,9,,,,,,,,,13,,,,57,84
36672,note_on,180,0,10,,,,,,,,,14,,,,46,0
36672,note_on,0,0,10,,,,,,,,,14,,,,45,78
36720,note_on,600,0,6,,,,,,,,,10,,,,81,90
36720,set_tempo,240,1,0,,,,,,281030,,,,,,,,
36722,note_on,600,0,7,,,,,,,,,11,,,,69,72
36723,note_on,0,0,1,,,,,,,,,0,,,,82,85
36723,note_on,60,0,1,,,,,,,,,0,,,,81,0
36725,note_on,60,0,2,,,,,,,,,1,,,,69,0
36725,note_on,0,0,2,,,,,,,,,1,,,,70,85
36726,note_on,60,0,8,,,,,,,,,12,,,,60,0
36726,note_on,0,0,8,,,,,,,,,12,,,,58,108
36730,note_on,60,0,9,,,,,,,,,13,,,,57,0
36730,note_on,0,0,9,,,,,,,,,13,,,,55,84
36731,note_on,960,0,3,,,,,,,,,3,,,,55,97
36732,note_on,60,0,10,,,,,,,,,14,,,,45,0
36732,note_on,0,0,10,,,,,,,,,14,,,,43,78
36735,note_on,0,0,6,,,,,,,,,10,,,,79,90
36735,note_on,15,0,6,,,,,,,,,10,,,,81,0
36737,note_on,0,0,7,,,,,,,,,11,,,,67,72
36737,note_on,15,0,7,,,,,,,,,11,,,,69,0
36780,note_on,0,0,6,,,,,,,,,10,,,,78,90
36780,note_on,45,0,6,,,,,,,,,10,,,,79,0
36782,note_on,45,0,7,,,,,,,,,11,,,,67,0
36782,note_on,0,0,7,,,,,,,,,11,,,,66,72
36791,note_on,60,0,3,,,,,,,,,3,,,,55,0
36791,note_on,0,0,3,,,,,,,,,3,,,,54,97
36840,note_on,60,0,6,,,,,,,,,10,,,,78,0
36840,note_on,0,0,6,,,,,,,,,10,,,,79,90
36842,note_on,60,0,7,,,,,,,,,11,,,,66,0
36842,note_on,0,0,7,,,,,,,,,11,,,,67,72
36843,note_on,120,0,1,,,,,,,,,0,,,,82,0
36845,note_on,120,0,2,,,,,,,,,1,,,,70,0
36846,note_on,120,0,8,,,,,,,,,12,,,,58,0
36850,note_on,120,0,9,,,,,,,,,13,,,,55,0
36851,note_on,0,0,3,,,,,,,,,3,,,,55,97
36851,note_on,60,0,3,,,,,,,,,3,,,,54,0
36852,note_on,120,0,10,,,,,,,,,14,,,,43,0
36900,note_on,60,0,6,,,,,,,,,10,,,,79,0
36900,note_on,0,0,6,,,,,,,,,10,,,,81,90
36902,note_on,0,0,7,,,,,,,,,11,,,,69,72
36902,note_on,60,0,7,,,,,,,,,11,,,,67,0
36911,note_on,0,0,3,,,,,,,,,3,,,,57,97
36911,note_on,60,0,3,,,,,,,,,3,,,,55,0
36960,set_tempo,240,1,0,,,,,,289157,,,,,,,,
36960,note_on,0,0,6,,,,,,,,,10,,,,82,74
36960,note_on,60,0,6,,,,,,,,,10,,,,81,0
36962,note_on,60,0,7,,,,,,,,,11,,,,69,0
36962,note_on,0,0,7,,,,,,,,,11,,,,70,59
36963,note_on,120,0,1,,,,,,,,,0,,,,82,97
36965,note_on,120,0,2,,,,,,,,,1,,,,70,97
36966,note_on,120,0,8,,,,,,,,,12,,,,58,108
36970,note_on,120,0,9,,,,,,,,,13,,,,55,99
36971,note_on,60,0,3,,,,,,,,,3,,,,57,0
36971,note_on,0,0,3,,,,,,,,,3,,,,58,97
36972,note_on,120,0,10,,,,,,,,,14,,,,43,93
37080,note_on,120,0,6,,,,,,,,,10,,,,82,0
37082,note_on,120,0,7,,,,,,,,,11,,,,70,0
37200,set_tempo,240,1,0,,,,,,281030,,,,,,,,
37203,note_on,0,0,1,,,,,,,,,0,,,,81,97
37203,note_on,240,0,1,,,,,,,,,0,,,,82,0
37205,note_on,240,0,2,,,,,,,,,1,,,,70,0
37205,note_on,0,0,2,,,,,,,,,1,,,,69,97
37206,note_on,0,0,8,,,,,,,,,12,,,,60,108
37206,note_on,240,0,8,,,,,,,,,12,,,,58,0
37210,note_on,240,0,9,,,,,,,,,13,,,,55,0
37210,note_on,0,0,9,,,,,,,,,13,,,,57,99
37211,note_on,240,0,3,,,,,,,,,3,,,,58,0
37211,note_on,0,0,3,,,,,,,,,3,,,,63,97
37212,note_on,240,0,10,,,,,,,,,14,,,,43,0
37212,note_on,0,0,10,,,,,,,,,14,,,,45,93
37383,note_on,0,0,1,,,,,,,,,0,,,,78,97
37383,note_on,180,0,1,,,,,,,,,0,,,,81,0
37385,note_on,180,0,2,,,,,,,,,1,,,,69,0
37385,note_on,0,0,2,,,,,,,,,1,,,,66,97
37433,note_on,50,0,1,,,,,,,,,0,,,,78,0
37435,note_on,50,0,2,,,,,,,,,1,,,,66,0
37440,set_tempo,240,1,0,,,,,,289157,,,,,,,,
37443,note_on,10,0,1,,,,,,,,,0,,,,78,97
37445,note_on,10,0,2,,,,,,,,,1,,,,66,97
37446,note_on,240,0,8,,,,,,,,,12,,,,60,0
37446,note_on,0,0,8,,,,,,,,,12,,,,62,108
37450,note_on,0,0,9,,,,,,,,,13,,,,58,99
37450,note_on,240,0,9,,,,,,,,,13,,,,57,0
37451,note_on,240,0,3,,,,,,,,,3,,,,63,0
37451,note_on,0,0,3,,,,,,,,,3,,,,62,97
37452,note_on,0,0,10,,,,,,,,,14,,,,46,93
37452,note_on,240,0,10,,,,,,,,,14,,,,45,0
37560,control_change,480,0,6,,,,,,,,,10,11,42,,,
37560,note_on,0,0,6,,,,,,,,,10,,,,86,102
37562,control_change,480,0,7,,,,,,,,,11,11,42,,,
37562,note_on,0,0,7,,,,,,,,,11,,,,74,81
37563,note_on,120,0,1,,,,,,,,,0,,,,78,0
37563,note_on,0,0,1,,,,,,,,,0,,,,79,97
37564,control_change,4,0,6,,,,,,,,,10,11,45,,,
37565,note_on,120,0,2,,,,,,,,,1,,,,66,0
37565,note_on,0,0,2,,,,,,,,,1,,,,67,97
37566,control_change,4,0,7,,,,,,,,,11,11,45,,,
37568,control_change,4,0,6,,,,,,,,,10,11,48,,,
37570,control_change,4,0,7,,,,,,,,,11,11,48,,,
37573,control_change,5,0,6,,,,,,,,,10,11,51,,,
37575,control_change,5,0,7,,,,,,,,,11,11,51,,,
37577,control_change,4,0,6,,,,,,,,,10,11,54,,,
37579,control_change,4,0,7,,,,,,,,,11,11,54,,,
37581,control_change,4,0,6,,,,,,,,,10,11,57,,,
37583,control_change,4,0,7,,,,,,,,,11,11,57,,,
37586,control_change,5,0,6,,,,,,,,,10,11,60,,,
37588,control_change,5,0,7,,,,,,,,,11,11,60,,,
37680,control_change,94,0,6,,,,,,,,,10,11,62,,,
37680,set_tempo,240,1,0,,,,,,281030,,,,,,,,
37682,control_change,94,0,7,,,,,,,,,11,11,62,,,
37683,note_on,0,0,1,,,,,,,,,0,,,,82,97
37683,note_on,120,0,1,,,,,,,,,0,,,,79,0
37685,note_on,120,0,2,,,,,,,,,1,,,,67,0
37685,note_on,0,0,2,,,,,,,,,1,,,,70,97
37686,note_on,240,0,8,,,,,,,,,12,,,,62,0
37690,note_on,240,0,9,,,,,,,,,13,,,,58,0
37691,note_on,240,0,3,,,,,,,,,3,,,,62,0
37692,note_on,240,0,10,,,,,,,,,14,,,,46,0
37707,control_change,27,0,6,,,,,,,,,10,11,60,,,
37709,control_change,27,0,7,,,,,,,,,11,11,60,,,
37735,control_change,28,0,6,,,,,,,,,10,11,58,,,
37737,control_change,28,0,7,,,,,,,,,11,11,58,,,
37763,control_change,28,0,6,,,,,,,,,10,11,56,,,
37765,control_change,28,0,7,,,,,,,,,11,11,56,,,
37791,control_change,28,0,6,,,,,,,,,10,11,54,,,
37793,control_change,28,0,7,,,,,,,,,11,11,54,,,
37800,note_on,0,0,6,,,,,,,,,10,,,,82,102
37800,note_on,9,0,6,,,,,,,,,10,,,,86,0
37802,note_on,9,0,7,,,,,,,,,11,,,,74,0
37802,note_on,0,0,7,,,,,,,,,11,,,,70,81
37803,note_on,120,0,1,,,,,,,,,0,,,,82,0
37803,note_on,0,0,1,,,,,,,,,0,,,,86,97
37805,note_on,120,0,2,,,,,,,,,1,,,,70,0
37805,note_on,0,0,2,,,,,,,,,1,,,,74,97
37819,control_change,19,0,6,,,,,,,,,10,11,52,,,
37821,control_change,19,0,7,,,,,,,,,11,11,52,,,
37847,control_change,28,0,6,,,,,,,,,10,11,50,,,
37849,control_change,28,0,7,,,,,,,,,11,11,50,,,
37860,note_on,0,0,6,,,,,,,,,10,,,,79,102
37860,note_on,13,0,6,,,,,,,,,10,,,,82,0
37862,note_on,13,0,7,,,,,,,,,11,,,,70,0
37862,note_on,0,0,7,,,,,,,,,11,,,,67,81
37875,control_change,15,0,6,,,,,,,,,10,11,48,,,
37877,control_change,15,0,7,,,,,,,,,11,11,48,,,
37899,note_on,24,0,6,,,,,,,,,10,,,,79,0
37901,note_on,24,0,7,,,,,,,,,11,,,,67,0
37920,note_on,21,0,6,,,,,,,,,10,,,,77,102
37920,set_tempo,240,1,0,,,,,,289157,,,,,,,,
37922,note_on,21,0,7,,,,,,,,,11,,,,65,81
37923,note_on,120,0,1,,,,,,,,,0,,,,86,0
37923,note_on,0,0,1,,,,,,,,,0,,,,77,97
37925,note_on,120,0,2,,,,,,,,,1,,,,74,0
37925,note_on,0,0,2,,,,,,,,,1,,,,65,97
37926,note_on,240,0,8,,,,,,,,,12,,,,57,108
37930,note_on,240,0,9,,,,,,,,,13,,,,60,99
37932,note_on,240,0,10,,,,,,,,,14,,,,48,93
38023,note_on,100,0,1,,,,,,,,,0,,,,77,0
38025,note_on,100,0,2,,,,,,,,,1,,,,65,0
38040,note_on,120,0,6,,,,,,,,,10,,,,77,0
38041,note_on,115,0,8,,,,,,,,,12,,,,57,0
38042,note_on,120,0,7,,,,,,,,,11,,,,65,0
38043,note_on,20,0,1,,,,,,,,,0,,,,77,97
38045,note_on,20,0,2,,,,,,,,,1,,,,65,97
38045,note_on,115,0,9,,,,,,,,,13,,,,60,0
38046,note_on,5,0,8,,,,,,,,,12,,,,57,108
38047,note_on,115,0,10,,,,,,,,,14,,,,48,0
38050,note_on,5,0,9,,,,,,,,,13,,,,60,99
38052,note_on,5,0,10,,,,,,,,,14,,,,48,93
38143,note_on,100,0,1,,,,,,,,,0,,,,77,0
38145,note_on,100,0,2,,,,,,,,,1,,,,65,0
38160,set_tempo,240,1,0,,,,,,281030,,,,,,,,
38160,note_on,120,0,6,,,,,,,,,10,,,,76,94
38161,note_on,115,0,8,,,,,,,,,12,,,,57,0
38162,note_on,120,0,7,,,,,,,,,11,,,,64,75
38163,note_on,20,0,1,,,,,,,,,0,,,,81,97
38165,note_on,20,0,2,,,,,,,,,1,,,,69,97
38165,note_on,115,0,9,,,,,,,,,13,,,,60,0
38166,note_on,5,0,8,,,,,,,,,12,,,,58,108
38167,note_on,115,0,10,,,,,,,,,14,,,,48,0
38170,note_on,5,0,9,,,,,,,,,13,,,,48,99
38172,note_on,5,0,10,,,,,,,,,14,,,,36,93
38178,note_on,15,0,1,,,,,,,,,0,,,,81,0
38178,note_on,0,0,1,,,,,,,,,0,,,,79,97
38180,note_on,0,0,2,,,,,,,,,1,,,,67,97
38180,note_on,15,0,2,,,,,,,,,1,,,,69,0
38223,note_on,0,0,1,,,,,,,,,0,,,,77,97
38223,note_on,45,0,1,,,,,,,,,0,,,,79,0
38225,note_on,0,0,2,,,,,,,,,1,,,,65,97
38225,note_on,45,0,2,,,,,,,,,1,,,,67,0
38226,note_on,60,0,8,,,,,,,,,12,,,,58,0
38226,note_on,0,0,8,,,,,,,,,12,,,,57,108
38280,note_on,120,0,6,,,,,,,,,10,,,,76,0
38282,note_on,120,0,7,,,,,,,,,11,,,,64,0
38283,note_on,60,0,1,,,,,,,,,0,,,,77,0
38283,note_on,0,0,1,,,,,,,,,0,,,,79,97
38285,note_on,115,0,9,,,,,,,,,13,,,,48,0
38285,note_on,0,0,2,,,,,,,,,1,,,,67,97
38285,note_on,60,0,2,,,,,,,,,1,,,,65,0
38286,note_on,60,0,8,,,,,,,,,12,,,,57,0
38286,note_on,0,0,8,,,,,,,,,12,,,,58,108
38287,note_on,115,0,10,,,,,,,,,14,,,,36,0
38290,note_on,5,0,9,,,,,,,,,13,,,,48,99
38292,note_on,5,0,10,,,,,,,,,14,,,,36,93
38340,set_tempo,180,1,0,,,,,,338028,,,,,,,,
38343,note_on,60,0,1,,,,,,,,,0,,,,79,0
38343,note_on,0,0,1,,,,,,,,,0,,,,81,97
38345,note_on,60,0,2,,,,,,,,,1,,,,67,0
38345,note_on,0,0,2,,,,,,,,,1,,,,69,97
38346,note_on,60,0,8,,,,,,,,,12,,,,58,0
38346,note_on,0,0,8,,,,,,,,,12,,,,60,108
38400,control_change,120,0,6,,,,,,,,,10,11,42,,,
38400,note_on,0,0,6,,,,,,,,,10,,,,77,82
38400,set_tempo,60,1,0,,,,,,285714,,,,,,,,
38402,control_change,120,0,7,,,,,,,,,11,11,42,,,
38402,note_on,0,0,7,,,,,,,,,11,,,,65,65
38403,note_on,0,0,1,,,,,,,,,0,,,,77,73
38403,note_on,60,0,1,,,,,,,,,0,,,,81,0
38405,note_on,115,0,9,,,,,,,,,13,,,,48,0
38405,note_on,0,0,2,,,,,,,,,1,,,,65,73
38405,note_on,60,0,2,,,,,,,,,1,,,,69,0
38406,note_on,0,0,8,,,,,,,,,12,,,,56,98
38406,control_change,0,0,8,,,,,,,,,12,11,42,,,
38406,note_on,60,0,8,,,,,,,,,12,,,,60,0
38407,note_on,115,0,10,,,,,,,,,14,,,,36,0
38410,control_change,5,0,9,,,,,,,,,13,11,42,,,
38410,note_on,0,0,9,,,,,,,,,13,,,,49,89
38412,note_on,0,0,10,,,,,,,,,14,,,,37,83
38412,control_change,5,0,10,,,,,,,,,14,11,42,,,
38460,note_on,60,0,6,,,,,,,,,10,,,,77,0
38462,note_on,60,0,7,,,,,,,,,11,,,,65,0
38520,note_on,60,0,6,,,,,,,,,10,,,,77,105
38522,note_on,60,0,7,,,,,,,,,11,,,,65,84
38523,note_on,120,0,1,,,,,,,,,0,,,,77,0
38525,note_on,120,0,2,,,,,,,,,1,,,,65,0
38580,note_on,60,0,6,,,,,,,,,10,,,,77,0
38582,note_on,60,0,7,,,,,,,,,11,,,,65,0
38640,set_tempo,240,1,0,,,,,,272727,,,,,,,,
38640,note_on,60,0,6,,,,,,,,,10,,,,80,110
38642,note_on,60,0,7,,,,,,,,,11,,,,68,88
38645,note_on,0,0,2,,,,,,,,,1,,,,68,97
38645,control_change,120,0,2,,,,,,,,,1,11,27,,,
38645,note_on,0,0,2,,,,,,,,,1,,,,80,97
38646,note_on,0,0,8,,,,,,,,,12,,,,63,108
38646,note_on,240,0,8,,,,,,,,,12,,,,56,0
38650,note_on,0,0,9,,,,,,,,,13,,,,48,99
38650,note_on,240,0,9,,,,,,,,,13,,,,49,0
38652,note_on,240,0,10,,,,,,,,,14,,,,37,0
38652,note_on,0,0,10,,,,,,,,,14,,,,36,93
38655,note_on,0,0,6,,,,,,,,,10,,,,78,110
38655,note_on,15,0,6,,,,,,,,,10,,,,80,0
38657,note_on,0,0,7,,,,,,,,,11,,,,66,88
38657,note_on,15,0,7,,,,,,,,,11,,,,68,0
38661,control_change,16,0,2,,,,,,,,,1,11,28,,,
38677,control_change,16,0,2,,,,,,,,,1,11,29,,,
38693,control_change,16,0,2,,,,,,,,,1,11,30,,,
38700,note_on,0,0,6,,,,,,,,,10,,,,77,110
38700,note_on,45,0,6,,,,,,,,,10,,,,78,0
38702,note_on,0,0,7,,,,,,,,,11,,,,65,88
38702,note_on,45,0,7,,,,,,,,,11,,,,66,0
38709,control_change,16,0,2,,,,,,,,,1,11,31,,,
38725,control_change,16,0,2,,,,,,,,,1,11,32,,,
38741,control_change,16,0,2,,,,,,,,,1,11,33,,,
38757,control_change,16,0,2,,,,,,,,,1,11,34,,,
38760,note_on,0,0,6,,,,,,,,,10,,,,78,110
38760,note_on,60,0,6,,,,,,,,,10,,,,77,0
38762,note_on,60,0,7,,,,,,,,,11,,,,65,0
38762,note_on,0,0,7,,,,,,,,,11,,,,66,88
38773,control_change,16,0,2,,,,,,,,,1,11,35,,,
38789,control_change,16,0,2,,,,,,,,,1,11,36,,,
38805,control_change,16,0,2,,,,,,,,,1,11,37,,,
38820,note_on,0,0,6,,,,,,,,,10,,,,80,110
38820,note_on,60,0,6,,,,,,,,,10,,,,78,0
38821,control_change,16,0,2,,,,,,,,,1,11,38,,,
38822,note_on,60,0,7,,,,,,,,,11,,,,66,0
38822,note_on,0,0,7,,,,,,,,,11,,,,68,88
38837,control_change,16,0,2,,,,,,,,,1,11,39,,,
38853,control_change,16,0,2,,,,,,,,,1,11,40,,,
38859,note_on,39,0,6,,,,,,,,,10,,,,80,0
38861,note_on,39,0,7,,,,,,,,,11,,,,68,0
38869,control_change,16,0,2,,,,,,,,,1,11,41,,,
38880,note_on,21,0,6,,,,,,,,,10,,,,77,110
38880,set_tempo,240,1,0,,,,,,285714,,,,,,,,
38882,note_on,21,0,7,,,,,,,,,11,,,,65,88
38885,control_change,16,0,2,,,,,,,,,1,11,42,,,
38886,note_on,240,0,8,,,,,,,,,12,,,,63,0
38886,note_on,0,0,8,,,,,,,,,12,,,,65,108
38890,note_on,240,0,9,,,,,,,,,13,,,,48,0
38890,note_on,0,0,9,,,,,,,,,13,,,,49,99
38892,note_on,240,0,10,,,,,,,,,14,,,,36,0
38892,note_on,0,0,10,,,,,,,,,14,,,,37,93
38940,note_on,60,0,6,,,,,,,,,10,,,,77,0
38942,note_on,60,0,7,,,,,,,,,11,,,,65,0
39000,note_on,60,0,6,,,,,,,,,10,,,,77,110
39002,note_on,60,0,7,,,,,,,,,11,,,,65,88
39060,note_on,60,0,6,,,,,,,,,10,,,,77,0
39062,note_on,60,0,7,,,,,,,,,11,,,,65,0
39120,set_tempo,240,1,0,,,,,,272727,,,,,,,,
39120,note_on,60,0,6,,,,,,,,,10,,,,80,110
39122,note_on,60,0,7,,,,,,,,,11,,,,68,88
39126,note_on,0,0,8,,,,,,,,,12,,,,63,108
39126,note_on,240,0,8,,,,,,,,,12,,,,65,0
39130,note_on,240,0,9,,,,,,,,,13,,,,49,0
39130,note_on,0,0,9,,,,,,,,,13,,,,48,99
39132,note_on,240,0,10,,,,,,,,,14,,,,37,0
39132,note_on,0,0,10,,,,,,,,,14,,,,36,93
39135,note_on,0,0,6,,,,,,,,,10,,,,78,110
39135,note_on,15,0,6,,,,,,,,,10,,,,80,0
39137,note_on,0,0,7,,,,,,,,,11,,,,66,88
39137,note_on,15,0,7,,,,,,,,,11,,,,68,0
39180,note_on,45,0,6,,,,,,,,,10,,,,78,0
39180,note_on,0,0,6,,,,,,,,,10,,,,77,110
39182,note_on,45,0,7,,,,,,,,,11,,,,66,0
39182,note_on,0,0,7,,,,,,,,,11,,,,65,88
39240,note_on,60,0,6,,,,,,,,,10,,,,77,0
39240,note_on,0,0,6,,,,,,,,,10,,,,78,110
39242,note_on,60,0,7,,,,,,,,,11,,,,65,0
39242,note_on,0,0,7,,,,,,,,,11,,,,66,88
39300,note_on,0,0,6,,,,,,,,,10,,,,80,110
39300,note_on,60,0,6,,,,,,,,,10,,,,78,0
39302,note_on,60,0,7,,,,,,,,,11,,,,66,0
39302,note_on,0,0,7,,,,,,,,,11,,,,68,88
39339,note_on,39,0,6,,,,,,,,,10,,,,80,0
39341,note_on,39,0,7,,,,,,,,,11,,,,68,0
39360,set_tempo,240,1,0,,,,,,282353,,,,,,,,
39360,control_change,21,0,6,,,,,,,,,10,11,42,,,
39360,note_on,0,0,6,,,,,,,,,10,,,,77,110
39362,note_on,0,0,7,,,,,,,,,11,,,,65,88
39362,control_change,21,0,7,,,,,,,,,11,11,42,,,
39366,note_on,0,0,8,,,,,,,,,12,,,,65,108
39366,control_change,0,0,8,,,,,,,,,12,11,42,,,
39366,note_on,240,0,8,,,,,,,,,12,,,,63,0
39370,note_on,240,0,9,,,,,,,,,13,,,,48,0
39370,control_change,0,0,9,,,,,,,,,13,11,42,,,
39370,note_on,0,0,9,,,,,,,,,13,,,,49,99
39372,note_on,240,0,10,,,,,,,,,14,,,,36,0
39372,control_change,0,0,10,,,,,,,,,14,11,42,,,
39372,note_on,0,0,10,,,,,,,,,14,,,,37,93
39384,control_change,24,0,6,,,,,,,,,10,11,40,,,
39386,control_change,24,0,7,,,,,,,,,11,11,40,,,
39390,control_change,24,0,8,,,,,,,,,12,11,40,,,
39394,control_change,24,0,9,,,,,,,,,13,11,40,,,
39396,control_change,24,0,10,,,,,,,,,14,11,40,,,
39405,note_on,15,0,8,,,,,,,,,12,,,,65,0
39408,control_change,24,0,6,,,,,,,,,10,11,38,,,
39409,note_on,15,0,9,,,,,,,,,13,,,,49,0
39410,control_change,24,0,7,,,,,,,,,11,11,38,,,
39411,note_on,15,0,10,,,,,,,,,14,,,,37,0
39414,control_change,9,0,8,,,,,,,,,12,11,38,,,
39418,control_change,9,0,9,,,,,,,,,13,11,38,,,
39420,control_change,9,0,10,,,,,,,,,14,11,38,,,
39426,note_on,12,0,8,,,,,,,,,12,,,,65,99
39427,note_on,19,0,6,,,,,,,,,10,,,,77,0
39429,note_on,19,0,7,,,,,,,,,11,,,,65,0
39430,note_on,12,0,9,,,,,,,,,13,,,,49,90
39432,note_on,12,0,10,,,,,,,,,14,,,,37,84
39432,control_change,5,0,6,,,,,,,,,10,11,36,,,
39434,control_change,5,0,7,,,,,,,,,11,11,36,,,
39438,control_change,12,0,8,,,,,,,,,12,11,36,,,
39442,control_change,12,0,9,,,,,,,,,13,11,36,,,
39444,control_change,12,0,10,,,,,,,,,14,11,36,,,
39456,control_change,24,0,6,,,,,,,,,10,11,34,,,
39458,control_change,24,0,7,,,,,,,,,11,11,34,,,
39462,control_change,24,0,8,,,,,,,,,12,11,34,,,
39465,note_on,3,0,8,,,,,,,,,12,,,,65,0
39466,control_change,24,0,9,,,,,,,,,13,11,34,,,
39468,control_change,24,0,10,,,,,,,,,14,11,34,,,
39469,note_on,3,0,9,,,,,,,,,13,,,,49,0
39471,note_on,3,0,10,,,,,,,,,14,,,,37,0
39480,control_change,24,0,6,,,,,,,,,10,11,32,,,
39480,note_on,0,0,6,,,,,,,,,10,,,,77,110
39482,control_change,24,0,7,,,,,,,,,11,11,32,,,
39482,note_on,0,0,7,,,,,,,,,11,,,,65,88
39486,note_on,0,0,8,,,,,,,,,12,,,,65,108
39486,control_change,21,0,8,,,,,,,,,12,11,32,,,
39490,control_change,21,0,9,,,,,,,,,13,11,32,,,
39490,note_on,0,0,9,,,,,,,,,13,,,,49,99
39492,control_change,21,0,10,,,,,,,,,14,11,32,,,
39492,note_on,0,0,10,,,,,,,,,14,,,,37,93
39497,control_change,17,0,6,,,,,,,,,10,11,33,,,
39499,control_change,17,0,7,,,,,,,,,11,11,33,,,
39503,control_change,17,0,8,,,,,,,,,12,11,33,,,
39507,control_change,17,0,9,,,,,,,,,13,11,33,,,
39509,control_change,17,0,10,,,,,,,,,14,11,33,,,
39514,control_change,17,0,6,,,,,,,,,10,11,34,,,
39516,control_change,17,0,7,,,,,,,,,11,11,34,,,
39520,control_change,17,0,8,,,,,,,,,12,11,34,,,
39524,control_change,17,0,9,,,,,,,,,13,11,34,,,
39525,note_on,5,0,8,,,,,,,,,12,,,,65,0
39526,control_change,17,0,10,,,,,,,,,14,11,34,,,
39529,note_on,5,0,9,,,,,,,,,13,,,,49,0
39531,note_on,5,0,10,,,,,,,,,14,,,,37,0
39532,control_change,18,0,6,,,,,,,,,10,11,35,,,
39534,control_change,18,0,7,,,,,,,,,11,11,35,,,
39538,control_change,13,0,8,,,,,,,,,12,11,35,,,
39542,control_change,13,0,9,,,,,,,,,13,11,35,,,
39544,control_change,13,0,10,,,,,,,,,14,11,35,,,
39546,note_on,8,0,8,,,,,,,,,12,,,,65,99
39547,note_on,15,0,6,,,,,,,,,10,,,,77,0
39549,note_on,15,0,7,,,,,,,,,11,,,,65,0
39549,control_change,2,0,6,,,,,,,,,10,11,36,,,
39550,note_on,8,0,9,,,,,,,,,13,,,,49,90
39551,control_change,2,0,7,,,,,,,,,11,11,36,,,
39552,note_on,8,0,10,,,,,,,,,14,,,,37,84
39555,control_change,9,0,8,,,,,,,,,12,11,36,,,
39559,control_change,9,0,9,,,,,,,,,13,11,36,,,
39561,control_change,9,0,10,,,,,,,,,14,11,36,,,
39567,control_change,18,0,6,,,,,,,,,10,11,37,,,
39569,control_change,18,0,7,,,,,,,,,11,11,37,,,
39573,control_change,18,0,8,,,,,,,,,12,11,37,,,
39577,control_change,18,0,9,,,,,,,,,13,11,37,,,
39579,control_change,18,0,10,,,,,,,,,14,11,37,,,
39584,control_change,17,0,6,,,,,,,,,10,11,38,,,
39585,note_on,12,0,8,,,,,,,,,12,,,,65,0
39586,control_change,17,0,7,,,,,,,,,11,11,38,,,
39589,note_on,12,0,9,,,,,,,,,13,,,,49,0
39590,control_change,5,0,8,,,,,,,,,12,11,38,,,
39591,note_on,12,0,10,,,,,,,,,14,,,,37,0
39594,control_change,5,0,9,,,,,,,,,13,11,38,,,
39596,control_change,5,0,10,,,,,,,,,14,11,38,,,
39600,note_on,16,0,6,,,,,,,,,10,,,,81,110
39600,set_tempo,240,1,0,,,,,,269663,,,,,,,,
39602,control_change,2,0,6,,,,,,,,,10,11,39,,,
39602,note_on,16,0,7,,,,,,,,,11,,,,69,88
39603,control_change,1080,0,1,,,,,,,,,0,11,42,,,
39603,note_on,0,0,1,,,,,,,,,0,,,,81,97
39604,control_change,8645,0,4,,,,,,,,,4,11,47,,,
39604,note_on,0,0,4,,,,,,,,,4,,,,65,96
39604,control_change,2,0,7,,,,,,,,,11,11,39,,,
39605,note_on,720,0,2,,,,,,,,,1,,,,80,0
39605,note_on,0,0,2,,,,,,,,,1,,,,68,0
39605,note_on,0,0,2,,,,,,,,,1,,,,81,97
39605,note_on,0,0,2,,,,,,,,,1,,,,69,97
39605,control_change,0,0,2,,,,,,,,,1,11,42,,,
39606,note_on,16,0,8,,,,,,,,,12,,,,65,108
39606,note_on,0,0,5,,,,,,,,,5,,,,53,96
39606,control_change,8645,0,5,,,,,,,,,5,11,47,,,
39608,control_change,2,0,8,,,,,,,,,12,11,39,,,
39610,note_on,16,0,9,,,,,,,,,13,,,,49,99
39611,control_change,1920,0,3,,,,,,,,,3,11,47,,,
39611,note_on,0,0,3,,,,,,,,,3,,,,49,97
39612,note_on,16,0,10,,,,,,,,,14,,,,37,93
39612,control_change,2,0,9,,,,,,,,,13,11,39,,,
39614,control_change,2,0,10,,,,,,,,,14,11,39,,,
39619,control_change,17,0,6,,,,,,,,,10,11,40,,,
39621,control_change,18,0,1,,,,,,,,,0,11,43,,,
39621,control_change,17,0,7,,,,,,,,,11,11,40,,,
39623,control_change,18,0,2,,,,,,,,,1,11,43,,,
39625,control_change,17,0,8,,,,,,,,,12,11,40,,,
39629,control_change,17,0,9,,,,,,,,,13,11,40,,,
39631,control_change,17,0,10,,,,,,,,,14,11,40,,,
39637,control_change,18,0,6,,,,,,,,,10,11,41,,,
39639,control_change,18,0,7,,,,,,,,,11,11,41,,,
39640,control_change,19,0,1,,,,,,,,,0,11,44,,,
39642,control_change,19,0,2,,,,,,,,,1,11,44,,,
39643,control_change,18,0,8,,,,,,,,,12,11,41,,,
39645,note_on,2,0,8,,,,,,,,,12,,,,65,0
39647,control_change,18,0,9,,,,,,,,,13,11,41,,,
39649,note_on,2,0,9,,,,,,,,,13,,,,49,0
39649,control_change,18,0,10,,,,,,,,,14,11,41,,,
39651,note_on,2,0,10,,,,,,,,,14,,,,37,0
39654,control_change,17,0,6,,,,,,,,,10,11,42,,,
39656,control_change,17,0,7,,,,,,,,,11,11,42,,,
39659,control_change,19,0,1,,,,,,,,,0,11,45,,,
39660,control_change,15,0,8,,,,,,,,,12,11,42,,,
39661,control_change,19,0,2,,,,,,,,,1,11,45,,,
39664,control_change,15,0,9,,,,,,,,,13,11,42,,,
39666,control_change,15,0,10,,,,,,,,,14,11,42,,,
39666,note_on,6,0,8,,,,,,,,,12,,,,65,99
39667,note_on,13,0,6,,,,,,,,,10,,,,81,0
39669,note_on,13,0,7,,,,,,,,,11,,,,69,0
39670,note_on,6,0,9,,,,,,,,,13,,,,49,90
39672,control_change,5,0,6,,,,,,,,,10,11,43,,,
39672,note_on,6,0,10,,,,,,,,,14,,,,37,84
39674,control_change,5,0,7,,,,,,,,,11,11,43,,,
39677,control_change,18,0,1,,,,,,,,,0,11,46,,,
39678,control_change,12,0,8,,,,,,,,,12,11,43,,,
39679,control_change,18,0,2,,,,,,,,,1,11,46,,,
39682,control_change,12,0,9,,,,,,,,,13,11,43,,,
39684,control_change,12,0,10,,,,,,,,,14,11,43,,,
39689,control_change,17,0,6,,,,,,,,,10,11,44,,,
39691,control_change,17,0,7,,,,,,,,,11,11,44,,,
39695,control_change,17,0,8,,,,,,,,,12,11,44,,,
39696,control_change,19,0,1,,,,,,,,,0,11,47,,,
39698,control_change,19,0,2,,,,,,,,,1,11,47,,,
39699,control_change,17,0,9,,,,,,,,,13,11,44,,,
39701,control_change,17,0,10,,,,,,,,,14,11,44,,,
39705,note_on,10,0,8,,,,,,,,,12,,,,65,0
39706,control_change,17,0,6,,,,,,,,,10,11,45,,,
39708,control_change,17,0,7,,,,,,,,,11,11,45,,,
39709,note_on,10,0,9,,,,,,,,,13,,,,49,0
39711,note_on,10,0,10,,,,,,,,,14,,,,37,0
39712,control_change,7,0,8,,,,,,,,,12,11,45,,,
39715,control_change,19,0,1,,,,,,,,,0,11,48,,,
39716,control_change,7,0,9,,,,,,,,,13,11,45,,,
39717,control_change,19,0,2,,,,,,,,,1,11,48,,,
39718,control_change,7,0,10,,,,,,,,,14,11,45,,,
39720,note_on,14,0,6,,,,,,,,,10,,,,81,110
39722,note_on,14,0,7,,,,,,,,,11,,,,69,88
39724,control_change,4,0,6,,,,,,,,,10,11,46,,,
39726,control_change,4,0,7,,,,,,,,,11,11,46,,,
39726,note_on,14,0,8,,,,,,,,,12,,,,65,108
39730,note_on,14,0,9,,,,,,,,,13,,,,49,99
39730,control_change,4,0,8,,,,,,,,,12,11,46,,,
39732,note_on,14,0,10,,,,,,,,,14,,,,37,93
39733,control_change,18,0,1,,,,,,,,,0,11,49,,,
39734,control_change,4,0,9,,,,,,,,,13,11,46,,,
39735,control_change,18,0,2,,,,,,,,,1,11,49,,,
39736,control_change,4,0,10,,,,,,,,,14,11,46,,,
39741,control_change,17,0,6,,,,,,,,,10,11,47,,,
39743,control_change,17,0,7,,,,,,,,,11,11,47,,,
39747,control_change,17,0,8,,,,,,,,,12,11,47,,,
39751,control_change,17,0,9,,,,,,,,,13,11,47,,,
39752,control_change,19,0,1,,,,,,,,,0,11,50,,,
39753,control_change,17,0,10,,,,,,,,,14,11,47,,,
39754,control_change,19,0,2,,,,,,,,,1,11,50,,,
39759,control_change,18,0,6,,,,,,,,,10,11,48,,,
39761,control_change,18,0,7,,,,,,,,,11,11,48,,,
39765,note_on,18,0,8,,,,,,,,,12,,,,65,0
39765,control_change,0,0,8,,,,,,,,,12,11,48,,,
39769,note_on,18,0,9,,,,,,,,,13,,,,49,0
39769,control_change,0,0,9,,,,,,,,,13,11,48,,,
39771,note_on,18,0,10,,,,,,,,,14,,,,37,0
39771,control_change,0,0,10,,,,,,,,,14,11,48,,,
39771,control_change,19,0,1,,,,,,,,,0,11,51,,,
39773,control_change,19,0,2,,,,,,,,,1,11,51,,,
39776,control_change,17,0,6,,,,,,,,,10,11,49,,,
39778,control_change,17,0,7,,,,,,,,,11,11,49,,,
39782,control_change,17,0,8,,,,,,,,,12,11,49,,,
39786,control_change,17,0,9,,,,,,,,,13,11,49,,,
39786,note_on,4,0,8,,,,,,,,,12,,,,65,99
39787,note_on,11,0,6,,,,,,,,,10,,,,81,0
39788,control_change,17,0,10,,,,,,,,,14,11,49,,,
39789,control_change,18,0,1,,,,,,,,,0,11,52,,,
39789,note_on,11,0,7,,,,,,,,,11,,,,69,0
39790,note_on,4,0,9,,,,,,,,,13,,,,49,90
39791,control_change,18,0,2,,,,,,,,,1,11,52,,,
39792,note_on,4,0,10,,,,,,,,,14,,,,37,84
39794,control_change,7,0,6,,,,,,,,,10,11,50,,,
39796,control_change,7,0,7,,,,,,,,,11,11,50,,,
39800,control_change,14,0,8,,,,,,,,,12,11,50,,,
39804,control_change,14,0,9,,,,,,,,,13,11,50,,,
39806,control_change,14,0,10,,,,,,,,,14,11,50,,,
39808,control_change,19,0,1,,,,,,,,,0,11,53,,,
39810,control_change,19,0,2,,,,,,,,,1,11,53,,,
39811,control_change,17,0,6,,,,,,,,,10,11,51,,,
39813,control_change,17,0,7,,,,,,,,,11,11,51,,,
39817,control_change,17,0,8,,,,,,,,,12,11,51,,,
39821,control_change,17,0,9,,,,,,,,,13,11,51,,,
39823,control_change,17,0,10,,,,,,,,,14,11,51,,,
39825,note_on,8,0,8,,,,,,,,,12,,,,65,0
39827,control_change,19,0,1,,,,,,,,,0,11,54,,,
39829,control_change,18,0,6,,,,,,,,,10,11,52,,,
39829,note_on,8,0,9,,,,,,,,,13,,,,49,0
39829,control_change,19,0,2,,,,,,,,,1,11,54,,,
39831,control_change,18,0,7,,,,,,,,,11,11,52,,,
39831,note_on,8,0,10,,,,,,,,,14,,,,37,0
39835,control_change,10,0,8,,,,,,,,,12,11,52,,,
39839,control_change,10,0,9,,,,,,,,,13,11,52,,,
39840,set_tempo,240,1,0,,,,,,278422,,,,,,,,
39840,note_on,11,0,6,,,,,,,,,10,,,,82,110
39841,control_change,10,0,10,,,,,,,,,14,11,52,,,
39842,note_on,11,0,7,,,,,,,,,11,,,,70,88
39843,note_on,0,0,1,,,,,,,,,0,,,,82,97
39843,note_on,16,0,1,,,,,,,,,0,,,,81,0
39844,control_change,240,0,4,,,,,,,,,4,11,47,,,
39845,note_on,0,0,2,,,,,,,,,1,,,,81,0
39845,control_change,2,0,1,,,,,,,,,0,11,55,,,
39845,note_on,0,0,2,,,,,,,,,1,,,,70,97
39845,note_on,0,0,2,,,,,,,,,1,,,,82,97
39845,note_on,16,0,2,,,,,,,,,1,,,,69,0
39846,note_on,11,0,8,,,,,,,,,12,,,,65,108
39846,control_change,240,0,5,,,,,,,,,5,11,47,,,
39846,control_change,6,0,6,,,,,,,,,10,11,53,,,
39847,control_change,2,0,2,,,,,,,,,1,11,55,,,
39848,control_change,6,0,7,,,,,,,,,11,11,53,,,
39850,note_on,11,0,9,,,,,,,,,13,,,,49,99
39851,control_change,240,0,3,,,,,,,,,3,11,47,,,
39852,note_on,11,0,10,,,,,,,,,14,,,,37,93
39852,control_change,6,0,8,,,,,,,,,12,11,53,,,
39856,control_change,6,0,9,,,,,,,,,13,11,53,,,
39858,control_change,6,0,10,,,,,,,,,14,11,53,,,
39859,control_change,15,0,4,,,,,,,,,4,11,48,,,
39861,control_change,15,0,5,,,,,,,,,5,11,48,,,
39864,control_change,18,0,6,,,,,,,,,10,11,54,,,
39864,control_change,19,0,1,,,,,,,,,0,11,56,,,
39866,control_change,18,0,7,,,,,,,,,11,11,54,,,
39866,control_change,19,0,2,,,,,,,,,1,11,56,,,
39866,control_change,15,0,3,,,,,,,,,3,11,48,,,
39870,control_change,18,0,8,,,,,,,,,12,11,54,,,
39874,control_change,15,0,4,,,,,,,,,4,11,49,,,
39874,control_change,18,0,9,,,,,,,,,13,11,54,,,
39876,control_change,15,0,5,,,,,,,,,5,11,49,,,
39876,control_change,18,0,10,,,,,,,,,14,11,54,,,
39881,control_change,15,0,3,,,,,,,,,3,11,49,,,
39881,control_change,17,0,6,,,,,,,,,10,11,55,,,
39883,control_change,17,0,7,,,,,,,,,11,11,55,,,
39883,control_change,19,0,1,,,,,,,,,0,11,57,,,
39885,control_change,19,0,2,,,,,,,,,1,11,57,,,
39885,note_on,15,0,8,,,,,,,,,12,,,,65,0
39887,control_change,2,0,8,,,,,,,,,12,11,55,,,
39889,note_on,15,0,9,,,,,,,,,13,,,,49,0
39889,control_change,15,0,4,,,,,,,,,4,11,50,,,
39891,note_on,15,0,10,,,,,,,,,14,,,,37,0
39891,control_change,15,0,5,,,,,,,,,5,11,50,,,
39891,control_change,2,0,9,,,,,,,,,13,11,55,,,
39893,control_change,2,0,10,,,,,,,,,14,11,55,,,
39896,control_change,15,0,3,,,,,,,,,3,11,50,,,
39898,control_change,17,0,6,,,,,,,,,10,11,56,,,
39900,control_change,17,0,7,,,,,,,,,11,11,56,,,
39901,control_change,18,0,1,,,,,,,,,0,11,58,,,
39903,control_change,18,0,2,,,,,,,,,1,11,58,,,
39904,control_change,17,0,8,,,,,,,,,12,11,56,,,
39904,control_change,15,0,4,,,,,,,,,4,11,51,,,
39906,control_change,15,0,5,,,,,,,,,5,11,51,,,
39906,note_on,2,0,8,,,,,,,,,12,,,,65,99
39907,note_on,9,0,6,,,,,,,,,10,,,,82,0
39908,control_change,17,0,9,,,,,,,,,13,11,56,,,
39909,note_on,9,0,7,,,,,,,,,11,,,,70,0
39910,control_change,17,0,10,,,,,,,,,14,11,56,,,
39910,note_on,2,0,9,,,,,,,,,13,,,,49,90
39911,control_change,15,0,3,,,,,,,,,3,11,51,,,
39912,note_on,2,0,10,,,,,,,,,14,,,,37,84
39916,control_change,9,0,6,,,,,,,,,10,11,57,,,
39918,control_change,9,0,7,,,,,,,,,11,11,57,,,
39919,control_change,15,0,4,,,,,,,,,4,11,52,,,
39920,control_change,19,0,1,,,,,,,,,0,11,59,,,
39921,control_change,15,0,5,,,,,,,,,5,11,52,,,
39922,control_change,19,0,2,,,,,,,,,1,11,59,,,
39922,control_change,16,0,8,,,,,,,,,12,11,57,,,
39926,control_change,15,0,3,,,,,,,,,3,11,52,,,
39926,control_change,16,0,9,,,,,,,,,13,11,57,,,
39928,control_change,16,0,10,,,,,,,,,14,11,57,,,
39933,control_change,17,0,6,,,,,,,,,10,11,58,,,
39934,control_change,15,0,4,,,,,,,,,4,11,53,,,
39935,control_change,17,0,7,,,,,,,,,11,11,58,,,
39936,control_change,15,0,5,,,,,,,,,5,11,53,,,
39939,control_change,17,0,8,,,,,,,,,12,11,58,,,
39939,control_change,19,0,1,,,,,,,,,0,11,60,,,
39941,control_change,15,0,3,,,,,,,,,3,11,53,,,
39941,control_change,19,0,2,,,,,,,,,1,11,60,,,
39943,control_change,17,0,9,,,,,,,,,13,11,58,,,
39945,control_change,17,0,10,,,,,,,,,14,11,58,,,
39945,note_on,6,0,8,,,,,,,,,12,,,,65,0
39949,note_on,6,0,9,,,,,,,,,13,,,,49,0
39949,control_change,15,0,4,,,,,,,,,4,11,54,,,
39951,note_on,6,0,10,,,,,,,,,14,,,,37,0
39951,control_change,18,0,6,,,,,,,,,10,11,59,,,
39951,control_change,15,0,5,,,,,,,,,5,11,54,,,
39953,control_change,18,0,7,,,,,,,,,11,11,59,,,
39956,control_change,15,0,3,,,,,,,,,3,11,54,,,
39957,control_change,18,0,1,,,,,,,,,0,11,61,,,
39957,control_change,12,0,8,,,,,,,,,12,11,59,,,
39959,control_change,18,0,2,,,,,,,,,1,11,61,,,
39960,note_on,9,0,6,,,,,,,,,10,,,,82,110
39961,control_change,12,0,9,,,,,,,,,13,11,59,,,
39962,note_on,9,0,7,,,,,,,,,11,,,,70,88
39963,control_change,12,0,10,,,,,,,,,14,11,59,,,
39964,control_change,15,0,4,,,,,,,,,4,11,55,,,
39966,control_change,15,0,5,,,,,,,,,5,11,55,,,
39966,note_on,9,0,8,,,,,,,,,12,,,,65,108
39968,control_change,8,0,6,,,,,,,,,10,11,60,,,
39970,control_change,8,0,7,,,,,,,,,11,11,60,,,
39970,note_on,9,0,9,,,,,,,,,13,,,,49,99
39971,control_change,15,0,3,,,,,,,,,3,11,55,,,
39972,note_on,9,0,10,,,,,,,,,14,,,,37,93
39974,control_change,8,0,8,,,,,,,,,12,11,60,,,
39976,control_change,19,0,1,,,,,,,,,0,11,62,,,
39978,control_change,8,0,9,,,,,,,,,13,11,60,,,
39978,control_change,19,0,2,,,,,,,,,1,11,62,,,
39979,control_change,15,0,4,,,,,,,,,4,11,56,,,
39980,control_change,8,0,10,,,,,,,,,14,11,60,,,
39981,control_change,15,0,5,,,,,,,,,5,11,56,,,
39986,control_change,15,0,3,,,,,,,,,3,11,56,,,
39986,control_change,18,0,6,,,,,,,,,10,11,61,,,
39988,control_change,18,0,7,,,,,,,,,11,11,61,,,
39992,control_change,18,0,8,,,,,,,,,12,11,61,,,
39994,control_change,15,0,4,,,,,,,,,4,11,57,,,
39995,control_change,19,0,1,,,,,,,,,0,11,62,,,
39996,control_change,18,0,9,,,,,,,,,13,11,61,,,
39996,control_change,15,0,5,,,,,,,,,5,11,57,,,
39997,control_change,19,0,2,,,,,,,,,1,11,62,,,
39998,control_change,18,0,10,,,,,,,,,14,11,61,,,
40001,control_change,15,0,3,,,,,,,,,3,11,57,,,
40003,control_change,17,0,6,,,,,,,,,10,11,62,,,
40005,note_on,13,0,8,,,,,,,,,12,,,,65,0
40005,control_change,17,0,7,,,,,,,,,11,11,62,,,
40009,note_on,13,0,9,,,,,,,,,13,,,,49,0
40009,control_change,15,0,4,,,,,,,,,4,11,58,,,
40009,control_change,4,0,8,,,,,,,,,12,11,62,,,
40011,control_change,15,0,5,,,,,,,,,5,11,58,,,
40011,note_on,13,0,10,,,,,,,,,14,,,,37,0
40013,control_change,18,0,1,,,,,,,,,0,11,63,,,
40013,control_change,4,0,9,,,,,,,,,13,11,62,,,
40015,control_change,18,0,2,,,,,,,,,1,11,63,,,
40015,control_change,4,0,10,,,,,,,,,14,11,62,,,
40016,control_change,15,0,3,,,,,,,,,3,11,58,,,
40021,control_change,18,0,6,,,,,,,,,10,11,62,,,
40023,control_change,18,0,7,,,,,,,,,11,11,62,,,
40024,control_change,15,0,4,,,,,,,,,4,11,59,,,
40026,control_change,15,0,5,,,,,,,,,5,11,59,,,
40026,note_on,17,0,8,,,,,,,,,12,,,,65,99
40027,control_change,1,0,8,,,,,,,,,12,11,62,,,
40027,note_on,6,0,6,,,,,,,,,10,,,,82,0
40029,note_on,6,0,7,,,,,,,,,11,,,,70,0
40030,note_on,17,0,9,,,,,,,,,13,,,,49,90
40031,control_change,15,0,3,,,,,,,,,3,11,59,,,
40031,control_change,1,0,9,,,,,,,,,13,11,62,,,
40032,note_on,17,0,10,,,,,,,,,14,,,,37,84
40032,control_change,19,0,1,,,,,,,,,0,11,64,,,
40033,control_change,1,0,10,,,,,,,,,14,11,62,,,
40034,control_change,19,0,2,,,,,,,,,1,11,64,,,
40038,control_change,11,0,6,,,,,,,,,10,11,63,,,
40039,control_change,15,0,4,,,,,,,,,4,11,60,,,
40040,control_change,11,0,7,,,,,,,,,11,11,63,,,
40041,control_change,15,0,5,,,,,,,,,5,11,60,,,
40044,control_change,17,0,8,,,,,,,,,12,11,63,,,
40046,control_change,15,0,3,,,,,,,,,3,11,60,,,
40048,control_change,17,0,9,,,,,,,,,13,11,63,,,
40050,control_change,17,0,10,,,,,,,,,14,11,63,,,
40051,control_change,19,0,1,,,,,,,,,0,11,64,,,
40053,control_change,19,0,2,,,,,,,,,1,11,64,,,
40054,control_change,15,0,4,,,,,,,,,4,11,61,,,
40056,control_change,18,0,6,,,,,,,,,10,11,64,,,
40056,control_change,15,0,5,,,,,,,,,5,11,61,,,
40058,control_change,18,0,7,,,,,,,,,11,11,64,,,
40061,control_change,15,0,3,,,,,,,,,3,11,61,,,
40062,control_change,18,0,8,,,,,,,,,12,11,64,,,
40065,note_on,3,0,8,,,,,,,,,12,,,,65,0
40066,control_change,18,0,9,,,,,,,,,13,11,64,,,
40068,control_change,18,0,10,,,,,,,,,14,11,64,,,
40069,control_change,15,0,4,,,,,,,,,4,11,62,,,
40069,control_change,18,0,1,,,,,,,,,0,11,65,,,
40069,note_on,3,0,9,,,,,,,,,13,,,,49,0
40071,control_change,18,0,2,,,,,,,,,1,11,65,,,
40071,control_change,15,0,5,,,,,,,,,5,11,62,,,
40071,note_on,3,0,10,,,,,,,,,14,,,,37,0
40073,control_change,17,0,6,,,,,,,,,10,11,64,,,
40075,control_change,17,0,7,,,,,,,,,11,11,64,,,
40076,control_change,15,0,3,,,,,,,,,3,11,62,,,
40079,control_change,14,0,8,,,,,,,,,12,11,64,,,
40080,note_on,7,0,6,,,,,,,,,10,,,,83,110
40080,set_tempo,240,1,0,,,,,,267857,,,,,,,,
40082,note_on,7,0,7,,,,,,,,,11,,,,71,88
40083,control_change,14,0,9,,,,,,,,,13,11,64,,,
40083,note_on,14,0,1,,,,,,,,,0,,,,82,0
40083,note_on,0,0,1,,,,,,,,,0,,,,83,97
40084,control_change,15,0,4,,,,,,,,,4,11,62,,,
40085,note_on,0,0,2,,,,,,,,,1,,,,83,97
40085,note_on,0,0,2,,,,,,,,,1,,,,71,97
40085,note_on,0,0,2,,,,,,,,,1,,,,70,0
40085,note_on,14,0,2,,,,,,,,,1,,,,82,0
40085,control_change,14,0,10,,,,,,,,,14,11,64,,,
40086,control_change,15,0,5,,,,,,,,,5,11,62,,,
40086,note_on,7,0,8,,,,,,,,,12,,,,68,108
40088,control_change,5,0,1,,,,,,,,,0,11,66,,,
40090,control_change,10,0,6,,,,,,,,,10,11,65,,,
40090,note_on,7,0,9,,,,,,,,,13,,,,49,99
40090,control_change,5,0,2,,,,,,,,,1,11,66,,,
40091,control_change,15,0,3,,,,,,,,,3,11,62,,,
40092,control_change,10,0,7,,,,,,,,,11,11,65,,,
40092,note_on,7,0,10,,,,,,,,,14,,,,37,93
40096,control_change,10,0,8,,,,,,,,,12,11,65,,,
40099,control_change,15,0,4,,,,,,,,,4,11,63,,,
40100,control_change,10,0,9,,,,,,,,,13,11,65,,,
40101,control_change,15,0,5,,,,,,,,,5,11,63,,,
40102,control_change,10,0,10,,,,,,,,,14,11,65,,,
40106,control_change,15,0,3,,,,,,,,,3,11,63,,,
40107,control_change,19,0,1,,,,,,,,,0,11,66,,,
40108,control_change,18,0,6,,,,,,,,,10,11,66,,,
40109,control_change,19,0,2,,,,,,,,,1,11,66,,,
40110,control_change,18,0,7,,,,,,,,,11,11,66,,,
40114,control_change,18,0,8,,,,,,,,,12,11,66,,,
40114,control_change,15,0,4,,,,,,,,,4,11,64,,,
40116,control_change,15,0,5,,,,,,,,,5,11,64,,,
40118,control_change,18,0,9,,,,,,,,,13,11,66,,,
40120,control_change,18,0,10,,,,,,,,,14,11,66,,,
40121,control_change,15,0,3,,,,,,,,,3,11,64,,,
40125,control_change,18,0,1,,,,,,,,,0,11,67,,,
40125,note_on,11,0,8,,,,,,,,,12,,,,68,0
40125,control_change,17,0,6,,,,,,,,,10,11,66,,,
40127,control_change,17,0,7,,,,,,,,,11,11,66,,,
40127,control_change,18,0,2,,,,,,,,,1,11,67,,,
40129,note_on,11,0,9,,,,,,,,,13,,,,49,0
40129,control_change,15,0,4,,,,,,,,,4,11,64,,,
40131,note_on,11,0,10,,,,,,,,,14,,,,37,0
40131,control_change,6,0,8,,,,,,,,,12,11,66,,,
40131,control_change,15,0,5,,,,,,,,,5,11,64,,,
40135,control_change,6,0,9,,,,,,,,,13,11,66,,,
40136,control_change,15,0,3,,,,,,,,,3,11,64,,,
40137,control_change,6,0,10,,,,,,,,,14,11,66,,,
40143,control_change,18,0,6,,,,,,,,,10,11,67,,,
40144,control_change,15,0,4,,,,,,,,,4,11,65,,,
40144,control_change,19,0,1,,,,,,,,,0,11,68,,,
40145,control_change,18,0,7,,,,,,,,,11,11,67,,,
40146,note_on,15,0,8,,,,,,,,,12,,,,68,99
40146,control_change,15,0,5,,,,,,,,,5,11,65,,,
40146,control_change,19,0,2,,,,,,,,,1,11,68,,,
40147,note_on,4,0,6,,,,,,,,,10,,,,83,0
40149,note_on,4,0,7,,,,,,,,,11,,,,71,0
40149,control_change,3,0,8,,,,,,,,,12,11,67,,,
40150,note_on,15,0,9,,,,,,,,,13,,,,49,90
40151,control_change,15,0,3,,,,,,,,,3,11,65,,,
40152,note_on,15,0,10,,,,,,,,,14,,,,37,84
40153,control_change,3,0,9,,,,,,,,,13,11,67,,,
40155,control_change,3,0,10,,,,,,,,,14,11,67,,,
40159,control_change,15,0,4,,,,,,,,,4,11,66,,,
40160,control_change,13,0,6,,,,,,,,,10,11,68,,,
40161,control_change,15,0,5,,,,,,,,,5,11,66,,,
40162,control_change,13,0,7,,,,,,,,,11,11,68,,,
40163,control_change,19,0,1,,,,,,,,,0,11,68,,,
40165,control_change,19,0,2,,,,,,,,,1,11,68,,,
40166,control_change,17,0,8,,,,,,,,,12,11,68,,,
40166,control_change,15,0,3,,,,,,,,,3,11,66,,,
40170,control_change,17,0,9,,,,,,,,,13,11,68,,,
40172,control_change,17,0,10,,,,,,,,,14,11,68,,,
40174,control_change,15,0,4,,,,,,,,,4,11,66,,,
40176,control_change,15,0,5,,,,,,,,,5,11,66,,,
40178,control_change,18,0,6,,,,,,,,,10,11,68,,,
40180,control_change,18,0,7,,,,,,,,,11,11,68,,,
40181,control_change,18,0,1,,,,,,,,,0,11,69,,,
40181,control_change,15,0,3,,,,,,,,,3,11,66,,,
40183,control_change,18,0,2,,,,,,,,,1,11,69,,,
40184,control_change,18,0,8,,,,,,,,,12,11,68,,,
40185,note_on,1,0,8,,,,,,,,,12,,,,68,0
40188,control_change,18,0,9,,,,,,,,,13,11,68,,,
40189,note_on,1,0,9,,,,,,,,,13,,,,49,0
40189,control_change,15,0,4,,,,,,,,,4,11,67,,,
40190,control_change,18,0,10,,,,,,,,,14,11,68,,,
40191,note_on,1,0,10,,,,,,,,,14,,,,37,0
40191,control_change,15,0,5,,,,,,,,,5,11,67,,,
40195,control_change,17,0,6,,,,,,,,,10,11,69,,,
40196,control_change,15,0,3,,,,,,,,,3,11,67,,,
40197,control_change,17,0,7,,,,,,,,,11,11,69,,,
40200,note_on,5,0,6,,,,,,,,,10,,,,83,110
40200,control_change,19,0,1,,,,,,,,,0,11,70,,,
40201,control_change,16,0,8,,,,,,,,,12,11,69,,,
40202,note_on,5,0,7,,,,,,,,,11,,,,71,88
40202,control_change,19,0,2,,,,,,,,,1,11,70,,,
40204,control_change,15,0,4,,,,,,,,,4,11,68,,,
40205,control_change,16,0,9,,,,,,,,,13,11,69,,,
40206,note_on,5,0,8,,,,,,,,,12,,,,68,108
40206,control_change,15,0,5,,,,,,,,,5,11,68,,,
40207,control_change,16,0,10,,,,,,,,,14,11,69,,,
40210,note_on,5,0,9,,,,,,,,,13,,,,49,99
40211,control_change,15,0,3,,,,,,,,,3,11,68,,,
40212,note_on,5,0,10,,,,,,,,,14,,,,37,93
40213,control_change,13,0,6,,,,,,,,,10,11,70,,,
40215,control_change,13,0,7,,,,,,,,,11,11,70,,,
40219,control_change,19,0,1,,,,,,,,,0,11,71,,,
40219,control_change,13,0,8,,,,,,,,,12,11,70,,,
40219,control_change,15,0,4,,,,,,,,,4,11,68,,,
40221,control_change,15,0,5,,,,,,,,,5,11,68,,,
40221,control_change,19,0,2,,,,,,,,,1,11,71,,,
40223,control_change,13,0,9,,,,,,,,,13,11,70,,,
40225,control_change,13,0,10,,,,,,,,,14,11,70,,,
40226,control_change,15,0,3,,,,,,,,,3,11,68,,,
40230,control_change,17,0,6,,,,,,,,,10,11,71,,,
40232,control_change,17,0,7,,,,,,,,,11,11,71,,,
40234,control_change,15,0,4,,,,,,,,,4,11,69,,,
40236,control_change,17,0,8,,,,,,,,,12,11,71,,,
40236,control_change,15,0,5,,,,,,,,,5,11,69,,,
40237,control_change,18,0,1,,,,,,,,,0,11,71,,,
40239,control_change,18,0,2,,,,,,,,,1,11,71,,,
40240,control_change,17,0,9,,,,,,,,,13,11,71,,,
40241,control_change,15,0,3,,,,,,,,,3,11,69,,,
40242,control_change,17,0,10,,,,,,,,,14,11,71,,,
40245,note_on,9,0,8,,,,,,,,,12,,,,68,0
40248,control_change,18,0,6,,,,,,,,,10,11,71,,,
40249,control_change,15,0,4,,,,,,,,,4,11,70,,,
40249,note_on,9,0,9,,,,,,,,,13,,,,49,0
40250,control_change,18,0,7,,,,,,,,,11,11,71,,,
40251,note_on,9,0,10,,,,,,,,,14,,,,37,0
40251,control_change,15,0,5,,,,,,,,,5,11,70,,,
40254,control_change,9,0,8,,,,,,,,,12,11,71,,,
40256,control_change,19,0,1,,,,,,,,,0,11,72,,,
40256,control_change,15,0,3,,,,,,,,,3,11,70,,,
40258,control_change,19,0,2,,,,,,,,,1,11,72,,,
40258,control_change,9,0,9,,,,,,,,,13,11,71,,,
40260,control_change,9,0,10,,,,,,,,,14,11,71,,,
40264,control_change,15,0,4,,,,,,,,,4,11,71,,,
40265,control_change,17,0,6,,,,,,,,,10,11,72,,,
40266,note_on,12,0,8,,,,,,,,,12,,,,68,99
40266,control_change,15,0,5,,,,,,,,,5,11,71,,,
40267,note_on,2,0,6,,,,,,,,,10,,,,83,0
40267,control_change,17,0,7,,,,,,,,,11,11,72,,,
40269,note_on,2,0,7,,,,,,,,,11,,,,71,0
40270,note_on,12,0,9,,,,,,,,,13,,,,49,90
40271,control_change,15,0,3,,,,,,,,,3,11,71,,,
40271,control_change,5,0,8,,,,,,,,,12,11,72,,,
40272,note_on,12,0,10,,,,,,,,,14,,,,37,84
40275,control_change,19,0,1,,,,,,,,,0,11,73,,,
40275,control_change,5,0,9,,,,,,,,,13,11,72,,,
40277,control_change,5,0,10,,,,,,,,,14,11,72,,,
40277,control_change,19,0,2,,,,,,,,,1,11,73,,,
40279,control_change,15,0,4,,,,,,,,,4,11,71,,,
40281,control_change,15,0,5,,,,,,,,,5,11,71,,,
40282,control_change,15,0,6,,,,,,,,,10,11,73,,,
40284,control_change,15,0,7,,,,,,,,,11,11,73,,,
40286,control_change,15,0,3,,,,,,,,,3,11,71,,,
40288,control_change,17,0,8,,,,,,,,,12,11,73,,,
40292,control_change,17,0,9,,,,,,,,,13,11,73,,,
40293,control_change,18,0,1,,,,,,,,,0,11,73,,,
40294,control_change,15,0,4,,,,,,,,,4,11,72,,,
40294,control_change,17,0,10,,,,,,,,,14,11,73,,,
40295,control_change,18,0,2,,,,,,,,,1,11,73,,,
40296,control_change,15,0,5,,,,,,,,,5,11,72,,,
40300,control_change,18,0,6,,,,,,,,,10,11,73,,,
40301,control_change,15,0,3,,,,,,,,,3,11,72,,,
40302,control_change,18,0,7,,,,,,,,,11,11,73,,,
40305,note_on,17,0,8,,,,,,,,,12,,,,68,0
40306,control_change,1,0,8,,,,,,,,,12,11,73,,,
40309,control_change,15,0,4,,,,,,,,,4,11,73,,,
40309,note_on,17,0,9,,,,,,,,,13,,,,49,0
40310,control_change,1,0,9,,,,,,,,,13,11,73,,,
40311,control_change,15,0,5,,,,,,,,,5,11,73,,,
40311,note_on,17,0,10,,,,,,,,,14,,,,37,0
40312,control_change,1,0,10,,,,,,,,,14,11,73,,,
40312,control_change,19,0,1,,,,,,,,,0,11,74,,,
40314,control_change,19,0,2,,,,,,,,,1,11,74,,,
40316,control_change,15,0,3,,,,,,,,,3,11,73,,,
40317,control_change,17,0,6,,,,,,,,,10,11,74,,,
40319,control_change,17,0,7,,,,,,,,,11,11,74,,,
40320,note_on,3,0,6,,,,,,,,,10,,,,84,110
40320,set_tempo,240,1,0,,,,,,277136,,,,,,,,
40322,note_on,3,0,7,,,,,,,,,11,,,,72,88
40323,control_change,17,0,8,,,,,,,,,12,11,74,,,
40323,note_on,11,0,1,,,,,,,,,0,,,,83,0
40323,note_on,0,0,1,,,,,,,,,0,,,,84,97
40324,control_change,15,0,4,,,,,,,,,4,11,73,,,
40325,note_on,0,0,2,,,,,,,,,1,,,,72,97
40325,note_on,0,0,2,,,,,,,,,1,,,,81,97
40325,note_on,0,0,2,,,,,,,,,1,,,,83,0
40325,note_on,11,0,2,,,,,,,,,1,,,,71,0
40326,note_on,3,0,8,,,,,,,,,12,,,,69,108
40326,control_change,15,0,5,,,,,,,,,5,11,73,,,
40327,control_change,17,0,9,,,,,,,,,13,11,74,,,
40329,control_change,17,0,10,,,,,,,,,14,11,74,,,
40330,note_on,3,0,9,,,,,,,,,13,,,,48,99
40331,note_on,0,0,3,,,,,,,,,3,,,,48,97
40331,control_change,0,0,3,,,,,,,,,3,11,73,,,
40331,note_on,15,0,3,,,,,,,,,3,,,,49,0
40331,control_change,8,0,1,,,,,,,,,0,11,75,,,
40332,note_on,3,0,10,,,,,,,,,14,,,,36,93
40333,control_change,8,0,2,,,,,,,,,1,11,75,,,
40335,control_change,15,0,6,,,,,,,,,10,11,75,,,
40337,control_change,15,0,7,,,,,,,,,11,11,75,,,
40339,control_change,15,0,4,,,,,,,,,4,11,74,,,
40341,control_change,15,0,8,,,,,,,,,12,11,75,,,
40341,control_change,15,0,5,,,,,,,,,5,11,74,,,
40345,control_change,15,0,9,,,,,,,,,13,11,75,,,
40346,control_change,15,0,3,,,,,,,,,3,11,74,,,
40347,control_change,15,0,10,,,,,,,,,14,11,75,,,
40349,control_change,18,0,1,,,,,,,,,0,11,75,,,
40351,control_change,18,0,2,,,,,,,,,1,11,75,,,
40352,control_change,17,0,6,,,,,,,,,10,11,75,,,
40354,control_change,15,0,4,,,,,,,,,4,11,75,,,
40354,control_change,17,0,7,,,,,,,,,11,11,75,,,
40356,control_change,15,0,5,,,,,,,,,5,11,75,,,
40358,control_change,17,0,8,,,,,,,,,12,11,75,,,
40361,control_change,15,0,3,,,,,,,,,3,11,75,,,
40362,control_change,17,0,9,,,,,,,,,13,11,75,,,
40364,control_change,17,0,10,,,,,,,,,14,11,75,,,
40368,control_change,19,0,1,,,,,,,,,0,11,76,,,
40369,control_change,15,0,4,,,,,,,,,4,11,75,,,
40370,control_change,18,0,6,,,,,,,,,10,11,76,,,
40370,control_change,19,0,2,,,,,,,,,1,11,76,,,
40371,control_change,15,0,5,,,,,,,,,5,11,75,,,
40372,control_change,18,0,7,,,,,,,,,11,11,76,,,
40376,control_change,18,0,8,,,,,,,,,12,11,76,,,
40376,control_change,15,0,3,,,,,,,,,3,11,75,,,
40380,control_change,18,0,9,,,,,,,,,13,11,76,,,
40382,control_change,18,0,10,,,,,,,,,14,11,76,,,
40384,control_change,15,0,4,,,,,,,,,4,11,76,,,
40386,control_change,15,0,5,,,,,,,,,5,11,76,,,
40387,note_on,17,0,6,,,,,,,,,10,,,,84,0
40387,control_change,19,0,1,,,,,,,,,0,11,77,,,
40387,control_change,0,0,6,,,,,,,,,10,11,77,,,
40389,note_on,17,0,7,,,,,,,,,11,,,,72,0
40389,control_change,0,0,7,,,,,,,,,11,11,77,,,
40389,control_change,19,0,2,,,,,,,,,1,11,77,,,
40391,control_change,15,0,3,,,,,,,,,3,11,76,,,
40393,control_change,17,0,8,,,,,,,,,12,11,77,,,
40397,control_change,17,0,9,,,,,,,,,13,11,77,,,
40399,control_change,15,0,4,,,,,,,,,4,11,77,,,
40399,control_change,17,0,10,,,,,,,,,14,11,77,,,
40401,control_change,15,0,5,,,,,,,,,5,11,77,,,
40405,control_change,18,0,6,,,,,,,,,10,11,77,,,
40405,control_change,18,0,1,,,,,,,,,0,11,77,,,
40406,control_change,15,0,3,,,,,,,,,3,11,77,,,
40407,control_change,18,0,2,,,,,,,,,1,11,77,,,
40407,control_change,18,0,7,,,,,,,,,11,11,77,,,
40411,control_change,18,0,8,,,,,,,,,12,11,77,,,
40414,control_change,15,0,4,,,,,,,,,4,11,77,,,
40415,control_change,18,0,9,,,,,,,,,13,11,77,,,
40416,control_change,15,0,5,,,,,,,,,5,11,77,,,
40417,control_change,18,0,10,,,,,,,,,14,11,77,,,
40421,control_change,15,0,3,,,,,,,,,3,11,77,,,
40422,control_change,17,0,6,,,,,,,,,10,11,78,,,
40424,control_change,17,0,7,,,,,,,,,11,11,78,,,
40424,control_change,19,0,1,,,,,,,,,0,11,78,,,
40426,control_change,19,0,2,,,,,,,,,1,11,78,,,
40428,control_change,17,0,8,,,,,,,,,12,11,78,,,
40429,control_change,15,0,4,,,,,,,,,4,11,78,,,
40431,control_change,15,0,5,,,,,,,,,5,11,78,,,
40432,control_change,17,0,9,,,,,,,,,13,11,78,,,
40434,control_change,17,0,10,,,,,,,,,14,11,78,,,
40436,control_change,15,0,3,,,,,,,,,3,11,78,,,
40438,note_on,14,0,1,,,,,,,,,0,,,,84,0
40440,note_on,0,0,6,,,,,,,,,10,,,,89,125
40440,note_on,14,0,2,,,,,,,,,1,,,,72,0
40440,note_on,0,0,2,,,,,,,,,1,,,,81,0
40440,control_change,18,0,6,,,,,,,,,10,11,79,,,
40441,note_on,13,0,8,,,,,,,,,12,,,,69,0
40442,control_change,18,0,7,,,,,,,,,11,11,79,,,
40442,note_on,0,0,7,,,,,,,,,11,,,,77,100
40442,note_on,0,0,7,,,,,,,,,11,,,,69,100
40443,control_change,5,0,1,,,,,,,,,0,11,79,,,
40443,note_on,0,0,1,,,,,,,,,0,,,,89,110
40444,note_on,15,0,4,,,,,,,,,4,,,,65,0
40444,note_on,0,0,4,,,,,,,,,4,,,,60,109
40444,control_change,0,0,4,,,,,,,,,4,11,79,,,
40445,control_change,5,0,2,,,,,,,,,1,11,79,,,
40445,note_on,13,0,9,,,,,,,,,13,,,,48,0
40445,note_on,0,0,2,,,,,,,,,1,,,,81,110
40445,note_on,0,0,2,,,,,,,,,1,,,,77,110
40446,control_change,0,0,5,,,,,,,,,5,11,79,,,
40446,note_on,0,0,8,,,,,,,,,12,,,,69,123
40446,note_on,0,0,8,,,,,,,,,12,,,,65,123
40446,control_change,5,0,8,,,,,,,,,12,11,79,,,
40446,note_on,15,0,5,,,,,,,,,5,,,,53,0
40446,note_on,0,0,5,,,,,,,,,5,,,,60,109
40446,note_on,10,0,3,,,,,,,,,3,,,,48,0
40447,note_on,13,0,10,,,,,,,,,14,,,,36,0
40450,note_on,0,0,9,,,,,,,,,13,,,,60,114
40450,control_change,5,0,9,,,,,,,,,13,11,79,,,
40451,note_on,0,0,3,,,,,,,,,3,,,,60,110
40451,note_on,0,0,3,,,,,,,,,3,,,,48,110
40451,control_change,5,0,3,,,,,,,,,3,11,79,,,
40452,control_change,5,0,10,,,,,,,,,14,11,79,,,
40452,note_on,0,0,10,,,,,,,,,14,,,,48,108
40500,control_change,60,0,6,,,,,,,,,10,11,79,,,
40502,control_change,60,0,7,,,,,,,,,11,11,79,,,
40503,control_change,60,0,1,,,,,,,,,0,11,79,,,
40504,control_change,60,0,4,,,,,,,,,4,11,79,,,
40505,control_change,60,0,2,,,,,,,,,1,11,79,,,
40506,control_change,60,0,5,,,,,,,,,5,11,79,,,
40506,control_change,60,0,8,,,,,,,,,12,11,79,,,
40510,control_change,60,0,9,,,,,,,,,13,11,79,,,
40511,control_change,60,0,3,,,,,,,,,3,11,79,,,
40512,control_change,60,0,10,,,,,,,,,14,11,79,,,
40522,control_change,22,0,6,,,,,,,,,10,11,77,,,
40524,control_change,22,0,7,,,,,,,,,11,11,77,,,
40525,control_change,22,0,1,,,,,,,,,0,11,77,,,
40526,control_change,22,0,4,,,,,,,,,4,11,77,,,
40527,control_change,22,0,2,,,,,,,,,1,11,77,,,
40528,control_change,22,0,5,,,,,,,,,5,11,77,,,
40528,control_change,22,0,8,,,,,,,,,12,11,77,,,
40532,control_change,22,0,9,,,,,,,,,13,11,77,,,
40533,control_change,22,0,3,,,,,,,,,3,11,77,,,
40534,control_change,22,0,10,,,,,,,,,14,11,77,,,
40537,control_change,15,0,6,,,,,,,,,10,11,75,,,
40539,control_change,15,0,7,,,,,,,,,11,11,75,,,
40540,control_change,15,0,1,,,,,,,,,0,11,75,,,
40541,control_change,15,0,4,,,,,,,,,4,11,75,,,
40542,control_change,15,0,2,,,,,,,,,1,11,75,,,
40543,control_change,15,0,5,,,,,,,,,5,11,75,,,
40543,control_change,15,0,8,,,,,,,,,12,11,75,,,
40547,control_change,15,0,9,,,,,,,,,13,11,75,,,
40548,control_change,15,0,3,,,,,,,,,3,11,75,,,
40549,control_change,15,0,10,,,,,,,,,14,11,75,,,
40552,control_change,15,0,6,,,,,,,,,10,11,74,,,
40554,control_change,15,0,7,,,,,,,,,11,11,74,,,
40555,control_change,15,0,1,,,,,,,,,0,11,74,,,
40556,control_change,15,0,4,,,,,,,,,4,11,74,,,
40557,control_change,15,0,2,,,,,,,,,1,11,74,,,
40558,control_change,15,0,8,,,,,,,,,12,11,74,,,
40558,control_change,15,0,5,,,,,,,,,5,11,74,,,
40560,set_tempo,240,1,0,,,,,,265487,,,,,,,,
40562,control_change,15,0,9,,,,,,,,,13,11,74,,,
40563,control_change,15,0,3,,,,,,,,,3,11,74,,,
40564,control_change,15,0,10,,,,,,,,,14,11,74,,,
40567,control_change,15,0,6,,,,,,,,,10,11,73,,,
40569,control_change,15,0,7,,,,,,,,,11,11,73,,,
40570,control_change,15,0,1,,,,,,,,,0,11,73,,,
40571,control_change,15,0,4,,,,,,,,,4,11,73,,,
40572,control_change,15,0,2,,,,,,,,,1,11,73,,,
40573,control_change,15,0,5,,,,,,,,,5,11,73,,,
40573,control_change,15,0,8,,,,,,,,,12,11,73,,,
40577,control_change,15,0,9,,,,,,,,,13,11,73,,,
40578,control_change,15,0,3,,,,,,,,,3,11,73,,,
40579,control_change,15,0,10,,,,,,,,,14,11,73,,,
40589,control_change,22,0,6,,,,,,,,,10,11,71,,,
40591,control_change,22,0,7,,,,,,,,,11,11,71,,,
40592,control_change,22,0,1,,,,,,,,,0,11,71,,,
40593,control_change,22,0,4,,,,,,,,,4,11,71,,,
40594,control_change,22,0,2,,,,,,,,,1,11,71,,,
40595,control_change,22,0,8,,,,,,,,,12,11,71,,,
40595,control_change,22,0,5,,,,,,,,,5,11,71,,,
40599,control_change,22,0,9,,,,,,,,,13,11,71,,,
40600,control_change,22,0,3,,,,,,,,,3,11,71,,,
40601,control_change,22,0,10,,,,,,,,,14,11,71,,,
40604,control_change,15,0,6,,,,,,,,,10,11,69,,,
40606,control_change,15,0,7,,,,,,,,,11,11,69,,,
40607,control_change,15,0,1,,,,,,,,,0,11,69,,,
40608,control_change,15,0,4,,,,,,,,,4,11,69,,,
40609,control_change,15,0,2,,,,,,,,,1,11,69,,,
40610,control_change,15,0,5,,,,,,,,,5,11,69,,,
40610,control_change,15,0,8,,,,,,,,,12,11,69,,,
40614,control_change,15,0,9,,,,,,,,,13,11,69,,,
40615,control_change,15,0,3,,,,,,,,,3,11,69,,,
40616,control_change,15,0,10,,,,,,,,,14,11,69,,,
40619,control_change,15,0,6,,,,,,,,,10,11,68,,,
40621,control_change,15,0,7,,,,,,,,,11,11,68,,,
40622,control_change,15,0,1,,,,,,,,,0,11,68,,,
40623,control_change,15,0,4,,,,,,,,,4,11,68,,,
40624,control_change,15,0,2,,,,,,,,,1,11,68,,,
40625,control_change,15,0,5,,,,,,,,,5,11,68,,,
40625,control_change,15,0,8,,,,,,,,,12,11,68,,,
40629,control_change,15,0,9,,,,,,,,,13,11,68,,,
40630,control_change,15,0,3,,,,,,,,,3,11,68,,,
40631,control_change,15,0,10,,,,,,,,,14,11,68,,,
40634,control_change,15,0,6,,,,,,,,,10,11,66,,,
40636,control_change,15,0,7,,,,,,,,,11,11,66,,,
40637,control_change,15,0,1,,,,,,,,,0,11,66,,,
40638,control_change,15,0,4,,,,,,,,,4,11,66,,,
40639,control_change,15,0,2,,,,,,,,,1,11,66,,,
40640,control_change,15,0,5,,,,,,,,,5,11,66,,,
40640,control_change,15,0,8,,,,,,,,,12,11,66,,,
40644,control_change,15,0,9,,,,,,,,,13,11,66,,,
40645,control_change,15,0,3,,,,,,,,,3,11,66,,,
40646,control_change,15,0,10,,,,,,,,,14,11,66,,,
40649,control_change,15,0,6,,,,,,,,,10,11,65,,,
40651,control_change,15,0,7,,,,,,,,,11,11,65,,,
40652,control_change,15,0,1,,,,,,,,,0,11,65,,,
40653,control_change,15,0,4,,,,,,,,,4,11,65,,,
40654,control_change,15,0,2,,,,,,,,,1,11,65,,,
40655,control_change,15,0,5,,,,,,,,,5,11,65,,,
40655,control_change,15,0,8,,,,,,,,,12,11,65,,,
40659,control_change,15,0,9,,,,,,,,,13,11,65,,,
40660,control_change,15,0,3,,,,,,,,,3,11,65,,,
40661,control_change,15,0,10,,,,,,,,,14,11,65,,,
40663,control_change,14,0,6,,,,,,,,,10,11,69,,,
40665,control_change,14,0,7,,,,,,,,,11,11,69,,,
40666,control_change,14,0,1,,,,,,,,,0,11,69,,,
40667,control_change,14,0,4,,,,,,,,,4,11,69,,,
40668,control_change,14,0,2,,,,,,,,,1,11,69,,,
40669,control_change,14,0,5,,,,,,,,,5,11,69,,,
40669,control_change,14,0,8,,,,,,,,,12,11,69,,,
40673,control_change,14,0,9,,,,,,,,,13,11,69,,,
40674,control_change,14,0,3,,,,,,,,,3,11,69,,,
40675,note_on,12,0,6,,,,,,,,,10,,,,89,0
40675,control_change,14,0,10,,,,,,,,,14,11,69,,,
40676,control_change,1,0,6,,,,,,,,,10,11,73,,,
40677,note_on,12,0,7,,,,,,,,,11,,,,69,0
40677,note_on,0,0,7,,,,,,,,,11,,,,77,0
40678,control_change,1,0,7,,,,,,,,,11,11,73,,,
40678,note_on,12,0,1,,,,,,,,,0,,,,89,0
40679,control_change,1,0,1,,,,,,,,,0,11,73,,,
40679,note_on,12,0,4,,,,,,,,,4,,,,60,0
40680,note_on,0,0,2,,,,,,,,,1,,,,81,0
40680,note_on,12,0,2,,,,,,,,,1,,,,77,0
40680,control_change,1,0,4,,,,,,,,,4,11,73,,,
40680,note_on,4,0,6,,,,,,,,,10,,,,84,110
40681,note_on,12,0,8,,,,,,,,,12,,,,69,0
40681,note_on,0,0,8,,,,,,,,,12,,,,65,0
40681,note_on,12,0,5,,,,,,,,,5,,,,60,0
40681,control_change,1,0,2,,,,,,,,,1,11,73,,,
40682,control_change,1,0,5,,,,,,,,,5,11,73,,,
40682,note_on,4,0,7,,,,,,,,,11,,,,72,88
40682,control_change,1,0,8,,,,,,,,,12,11,73,,,
40683,note_on,4,0,1,,,,,,,,,0,,,,84,110
40684,note_on,4,0,4,,,,,,,,,4,,,,60,96
40685,note_on,0,0,2,,,,,,,,,1,,,,77,97
40685,note_on,4,0,2,,,,,,,,,1,,,,81,97
40685,note_on,12,0,9,,,,,,,,,13,,,,60,0
40686,note_on,4,0,8,,,,,,,,,12,,,,60,108
40686,note_on,0,0,3,,,,,,,,,3,,,,48,0
40686,note_on,12,0,3,,,,,,,,,3,,,,60,0
40686,control_change,1,0,9,,,,,,,,,13,11,73,,,
40686,note_on,4,0,5,,,,,,,,,5,,,,60,96
40687,note_on,12,0,10,,,,,,,,,14,,,,48,0
40687,control_change,1,0,3,,,,,,,,,3,11,73,,,
40688,control_change,1,0,10,,,,,,,,,14,11,73,,,
40689,control_change,9,0,6,,,,,,,,,10,11,77,,,
40690,note_on,4,0,9,,,,,,,,,13,,,,57,99
40691,note_on,4,0,3,,,,,,,,,3,,,,57,97
40691,note_on,0,0,3,,,,,,,,,3,,,,45,97
40691,control_change,9,0,7,,,,,,,,,11,11,77,,,
40692,note_on,4,0,10,,,,,,,,,14,,,,45,93
40692,control_change,9,0,1,,,,,,,,,0,11,77,,,
40693,control_change,9,0,4,,,,,,,,,4,11,77,,,
40694,control_change,9,0,2,,,,,,,,,1,11,77,,,
40695,control_change,9,0,8,,,,,,,,,12,11,77,,,
40695,control_change,9,0,5,,,,,,,,,5,11,77,,,
40699,control_change,9,0,9,,,,,,,,,13,11,77,,,
40700,control_change,9,0,3,,,,,,,,,3,11,77,,,
40701,control_change,9,0,10,,,,,,,,,14,11,77,,,
40740,note_on,0,0,6,,,,,,,,,10,,,,81,110
40740,note_on,51,0,6,,,,,,,,,10,,,,84,0
40742,note_on,0,0,7,,,,,,,,,11,,,,69,88
40742,note_on,51,0,7,,,,,,,,,11,,,,72,0
40743,note_on,51,0,1,,,,,,,,,0,,,,84,0
40743,note_on,0,0,1,,,,,,,,,0,,,,81,110
40779,note_on,39,0,6,,,,,,,,,10,,,,81,0
40781,note_on,39,0,7,,,,,,,,,11,,,,69,0
40794,note_on,101,0,4,,,,,,,,,4,,,,60,0
40795,note_on,0,0,2,,,,,,,,,1,,,,81,0
40795,note_on,101,0,2,,,,,,,,,1,,,,77,0
40796,note_on,101,0,5,,,,,,,,,5,,,,60,0
40798,note_on,55,0,1,,,,,,,,,0,,,,81,0
40800,set_tempo,240,1,0,,,,,,274600,,,,,,,,
40800,note_on,21,0,6,,,,,,,,,10,,,,79,110
40801,note_on,106,0,8,,,,,,,,,12,,,,60,0
40801,note_on,0,0,3,,,,,,,,,3,,,,57,0
40801,note_on,101,0,3,,,,,,,,,3,,,,45,0
40802,note_on,21,0,7,,,,,,,,,11,,,,67,88
40803,note_on,5,0,1,,,,,,,,,0,,,,79,97
40804,note_on,10,0,4,,,,,,,,,4,,,,62,96
40805,note_on,106,0,9,,,,,,,,,13,,,,57,0
40805,note_on,10,0,2,,,,,,,,,1,,,,77,97
40805,note_on,0,0,2,,,,,,,,,1,,,,79,97
40806,note_on,5,0,8,,,,,,,,,12,,,,62,108
40806,note_on,10,0,5,,,,,,,,,5,,,,58,96
40807,note_on,106,0,10,,,,,,,,,14,,,,45,0
40810,note_on,5,0,9,,,,,,,,,13,,,,58,99
40811,note_on,0,0,3,,,,,,,,,3,,,,46,97
40811,note_on,10,0,3,,,,,,,,,3,,,,58,97
40812,note_on,5,0,10,,,,,,,,,14,,,,46,93
40860,note_on,0,0,6,,,,,,,,,10,,,,81,110
40860,note_on,60,0,6,,,,,,,,,10,,,,79,0
40862,note_on,60,0,7,,,,,,,,,11,,,,67,0
40862,note_on,0,0,7,,,,,,,,,11,,,,69,88
40899,note_on,39,0,6,,,,,,,,,10,,,,81,0
40901,note_on,39,0,7,,,,,,,,,11,,,,69,0
40913,note_on,110,0,1,,,,,,,,,0,,,,79,0
40914,note_on,110,0,4,,,,,,,,,4,,,,62,0
40915,note_on,0,0,2,,,,,,,,,1,,,,77,0
40915,note_on,110,0,2,,,,,,,,,1,,,,79,0
40916,note_on,110,0,5,,,,,,,,,5,,,,58,0
40920,note_on,21,0,6,,,,,,,,,10,,,,82,110
40921,note_on,115,0,8,,,,,,,,,12,,,,62,0
40921,note_on,110,0,3,,,,,,,,,3,,,,46,0
40921,note_on,0,0,3,,,,,,,,,3,,,,58,0
40922,note_on,21,0,7,,,,,,,,,11,,,,70,88
40923,note_on,10,0,1,,,,,,,,,0,,,,79,97
40924,note_on,10,0,4,,,,,,,,,4,,,,62,96
40925,note_on,10,0,2,,,,,,,,,1,,,,79,97
40925,note_on,115,0,9,,,,,,,,,13,,,,58,0
40925,note_on,0,0,2,,,,,,,,,1,,,,77,97
40926,note_on,5,0,8,,,,,,,,,12,,,,62,108
40926,note_on,10,0,5,,,,,,,,,5,,,,58,96
40927,note_on,115,0,10,,,,,,,,,14,,,,46,0
40930,note_on,5,0,9,,,,,,,,,13,,,,58,99
40931,note_on,0,0,3,,,,,,,,,3,,,,58,97
40931,note_on,10,0,3,,,,,,,,,3,,,,46,97
40932,note_on,5,0,10,,,,,,,,,14,,,,46,93
40955,note_on,35,0,6,,,,,,,,,10,,,,82,0
40957,note_on,35,0,7,,,,,,,,,11,,,,70,0
40980,note_on,25,0,6,,,,,,,,,10,,,,86,110
40982,note_on,25,0,7,,,,,,,,,11,,,,74,88
41015,note_on,35,0,6,,,,,,,,,10,,,,86,0
41017,note_on,35,0,7,,,,,,,,,11,,,,74,0
41033,note_on,110,0,1,,,,,,,,,0,,,,79,0
41034,note_on,110,0,4,,,,,,,,,4,,,,62,0
41035,note_on,110,0,2,,,,,,,,,1,,,,77,0
41035,note_on,0,0,2,,,,,,,,,1,,,,79,0
41036,note_on,110,0,5,,,,,,,,,5,,,,58,0
41040,note_on,25,0,6,,,,,,,,,10,,,,84,110
41040,set_tempo,240,1,0,,,,,,264901,,,,,,,,
41041,note_on,0,0,3,,,,,,,,,3,,,,46,0
41041,note_on,110,0,3,,,,,,,,,3,,,,58,0
41041,note_on,115,0,8,,,,,,,,,12,,,,62,0
41042,note_on,25,0,7,,,,,,,,,11,,,,72,88
41043,note_on,10,0,1,,,,,,,,,0,,,,84,97
41044,note_on,10,0,4,,,,,,,,,4,,,,60,96
41045,note_on,115,0,9,,,,,,,,,13,,,,58,0
41045,note_on,10,0,2,,,,,,,,,1,,,,79,97
41045,note_on,0,0,2,,,,,,,,,1,,,,76,97
41046,note_on,10,0,5,,,,,,,,,5,,,,60,96
41046,note_on,5,0,8,,,,,,,,,12,,,,64,108
41047,note_on,115,0,10,,,,,,,,,14,,,,46,0
41050,note_on,5,0,9,,,,,,,,,13,,,,60,99
41051,note_on,10,0,3,,,,,,,,,3,,,,48,97
41051,note_on,0,0,3,,,,,,,,,3,,,,60,97
41052,note_on,5,0,10,,,,,,,,,14,,,,48,93
41100,note_on,0,0,6,,,,,,,,,10,,,,82,110
41100,note_on,60,0,6,,,,,,,,,10,,,,84,0
41102,note_on,0,0,7,,,,,,,,,11,,,,70,88
41102,note_on,60,0,7,,,,,,,,,11,,,,72,0
41139,note_on,39,0,6,,,,,,,,,10,,,,82,0
41141,note_on,39,0,7,,,,,,,,,11,,,,70,0
41153,note_on,110,0,1,,,,,,,,,0,,,,84,0
41154,note_on,110,0,4,,,,,,,,,4,,,,60,0
41155,note_on,0,0,2,,,,,,,,,1,,,,79,0
41155,note_on,110,0,2,,,,,,,,,1,,,,76,0
41156,note_on,110,0,5,,,,,,,,,5,,,,60,0
41160,note_on,21,0,6,,,,,,,,,10,,,,81,110
41161,note_on,0,0,3,,,,,,,,,3,,,,48,0
41161,note_on,115,0,8,,,,,,,,,12,,,,64,0
41161,note_on,110,0,3,,,,,,,,,3,,,,60,0
41162,note_on,21,0,7,,,,,,,,,11,,,,69,88
41163,note_on,10,0,1,,,,,,,,,0,,,,84,97
41164,note_on,10,0,4,,,,,,,,,4,,,,60,96
41165,note_on,0,0,2,,,,,,,,,1,,,,76,97
41165,note_on,10,0,2,,,,,,,,,1,,,,79,97
41165,note_on,115,0,9,,,,,,,,,13,,,,60,0
41166,note_on,10,0,5,,,,,,,,,5,,,,60,96
41166,note_on,5,0,8,,,,,,,,,12,,,,64,108
41167,note_on,115,0,10,,,,,,,,,14,,,,48,0
41170,note_on,5,0,9,,,,,,,,,13,,,,60,99
41171,note_on,10,0,3,,,,,,,,,3,,,,60,97
41171,note_on,0,0,3,,,,,,,,,3,,,,48,97
41172,note_on,5,0,10,,,,,,,,,14,,,,48,93
41195,note_on,35,0,6,,,,,,,,,10,,,,81,0
41197,note_on,35,0,7,,,,,,,,,11,,,,69,0
41220,note_on,0,0,6,,,,,,,,,10,,,,79,110
41220,control_change,25,0,6,,,,,,,,,10,11,79,,,
41220,set_tempo,180,1,0,,,,,,330579,,,,,,,,
41222,control_change,25,0,7,,,,,,,,,11,11,79,,,
41222,note_on,0,0,7,,,,,,,,,11,,,,67,88
41223,control_change,60,0,1,,,,,,,,,0,11,79,,,
41224,control_change,60,0,4,,,,,,,,,4,11,79,,,
41225,control_change,60,0,2,,,,,,,,,1,11,79,,,
41226,control_change,60,0,5,,,,,,,,,5,11,79,,,
41226,control_change,60,0,8,,,,,,,,,12,11,79,,,
41228,control_change,8,0,6,,,,,,,,,10,11,75,,,
41230,control_change,60,0,9,,,,,,,,,13,11,79,,,
41230,control_change,8,0,7,,,,,,,,,11,11,75,,,
41231,control_change,60,0,3,,,,,,,,,3,11,79,,,
41232,control_change,9,0,1,,,,,,,,,0,11,75,,,
41232,control_change,60,0,10,,,,,,,,,14,11,79,,,
41233,control_change,9,0,4,,,,,,,,,4,11,75,,,
41234,control_change,9,0,2,,,,,,,,,1,11,75,,,
41234,control_change,8,0,8,,,,,,,,,12,11,75,,,
41235,control_change,9,0,5,,,,,,,,,5,11,75,,,
41236,control_change,8,0,6,,,,,,,,,10,11,71,,,
41238,control_change,8,0,9,,,,,,,,,13,11,75,,,
41238,control_change,8,0,7,,,,,,,,,11,11,71,,,
41240,control_change,8,0,10,,,,,,,,,14,11,75,,,
41240,control_change,4,0,6,,,,,,,,,10,11,68,,,
41240,control_change,9,0,3,,,,,,,,,3,11,75,,,
41241,control_change,9,0,1,,,,,,,,,0,11,71,,,
41242,control_change,8,0,8,,,,,,,,,12,11,71,,,
41242,control_change,4,0,7,,,,,,,,,11,11,68,,,
41242,control_change,9,0,4,,,,,,,,,4,11,71,,,
41243,control_change,9,0,2,,,,,,,,,1,11,71,,,
41244,control_change,9,0,5,,,,,,,,,5,11,71,,,
41245,control_change,4,0,1,,,,,,,,,0,11,68,,,
41246,control_change,4,0,4,,,,,,,,,4,11,68,,,
41246,control_change,8,0,9,,,,,,,,,13,11,71,,,
41246,control_change,4,0,8,,,,,,,,,12,11,68,,,
41247,control_change,4,0,2,,,,,,,,,1,11,68,,,
41248,control_change,8,0,6,,,,,,,,,10,11,64,,,
41248,control_change,4,0,5,,,,,,,,,5,11,68,,,
41248,control_change,8,0,10,,,,,,,,,14,11,71,,,
41249,control_change,9,0,3,,,,,,,,,3,11,71,,,
41250,control_change,4,0,9,,,,,,,,,13,11,68,,,
41250,control_change,8,0,7,,,,,,,,,11,11,64,,,
41252,control_change,4,0,10,,,,,,,,,14,11,68,,,
41253,control_change,4,0,3,,,,,,,,,3,11,68,,,
41254,control_change,9,0,1,,,,,,,,,0,11,64,,,
41254,control_change,8,0,8,,,,,,,,,12,11,64,,,
41255,control_change,9,0,4,,,,,,,,,4,11,64,,,
41255,note_on,7,0,6,,,,,,,,,10,,,,79,0
41256,control_change,1,0,6,,,,,,,,,10,11,60,,,
41256,control_change,9,0,2,,,,,,,,,1,11,64,,,
41257,control_change,9,0,5,,,,,,,,,5,11,64,,,
41257,note_on,7,0,7,,,,,,,,,11,,,,67,0
41258,control_change,8,0,9,,,,,,,,,13,11,64,,,
41258,control_change,1,0,7,,,,,,,,,11,11,60,,,
41260,control_change,4,0,6,,,,,,,,,10,11,57,,,
41260,control_change,8,0,10,,,,,,,,,14,11,64,,,
41262,control_change,4,0,7,,,,,,,,,11,11,57,,,
41262,control_change,9,0,3,,,,,,,,,3,11,64,,,
41262,control_change,8,0,8,,,,,,,,,12,11,60,,,
41263,control_change,9,0,1,,,,,,,,,0,11,60,,,
41264,control_change,4,0,6,,,,,,,,,10,11,54,,,
41264,control_change,9,0,4,,,,,,,,,4,11,60,,,
41265,control_change,9,0,2,,,,,,,,,1,11,60,,,
41266,control_change,4,0,7,,,,,,,,,11,11,54,,,
41266,control_change,8,0,9,,,,,,,,,13,11,60,,,
41266,control_change,4,0,8,,,,,,,,,12,11,57,,,
41266,control_change,9,0,5,,,,,,,,,5,11,60,,,
41268,control_change,5,0,1,,,,,,,,,0,11,57,,,
41268,control_change,8,0,10,,,,,,,,,14,11,60,,,
41268,control_change,4,0,6,,,,,,,,,10,11,51,,,
41269,control_change,5,0,4,,,,,,,,,4,11,57,,,
41270,control_change,5,0,2,,,,,,,,,1,11,57,,,
41270,control_change,4,0,8,,,,,,,,,12,11,54,,,
41270,control_change,4,0,7,,,,,,,,,11,11,51,,,
41270,control_change,4,0,9,,,,,,,,,13,11,57,,,
41271,control_change,5,0,5,,,,,,,,,5,11,57,,,
41271,control_change,9,0,3,,,,,,,,,3,11,60,,,
41272,control_change,4,0,1,,,,,,,,,0,11,54,,,
41272,control_change,4,0,6,,,,,,,,,10,11,48,,,
41272,control_change,4,0,10,,,,,,,,,14,11,57,,,
41273,note_on,1,0,1,,,,,,,,,0,,,,84,0
41273,control_change,4,0,4,,,,,,,,,4,11,54,,,
41274,note_on,1,0,4,,,,,,,,,4,,,,60,0
41274,control_change,4,0,8,,,,,,,,,12,11,51,,,
41274,control_change,4,0,2,,,,,,,,,1,11,54,,,
41274,control_change,4,0,9,,,,,,,,,13,11,54,,,
41274,control_change,4,0,7,,,,,,,,,11,11,48,,,
41275,note_on,0,0,2,,,,,,,,,1,,,,79,0
41275,control_change,4,0,5,,,,,,,,,5,11,54,,,
41275,note_on,1,0,2,,,,,,,,,1,,,,76,0
41276,control_change,4,0,6,,,,,,,,,10,11,45,,,
41276,control_change,4,0,10,,,,,,,,,14,11,54,,,
41276,control_change,5,0,3,,,,,,,,,3,11,57,,,
41276,note_on,1,0,5,,,,,,,,,5,,,,60,0
41277,control_change,4,0,1,,,,,,,,,0,11,51,,,
41278,control_change,4,0,7,,,,,,,,,11,11,45,,,
41278,control_change,4,0,8,,,,,,,,,12,11,48,,,
41278,control_change,4,0,4,,,,,,,,,4,11,51,,,
41278,control_change,4,0,9,,,,,,,,,13,11,51,,,
41279,control_change,4,0,2,,,,,,,,,1,11,51,,,
41280,control_change,4,0,10,,,,,,,,,14,11,51,,,
41280,set_tempo,60,1,0,,,,,,285714,,,,,,,,
41280,control_change,4,0,5,,,,,,,,,5,11,51,,,
41280,note_on,0,0,6,,,,,,,,,10,,,,77,110
41280,control_change,4,0,6,,,,,,,,,10,11,42,,,
41280,control_change,4,0,3,,,,,,,,,3,11,54,,,
41281,note_on,1,0,3,,,,,,,,,3,,,,48,0
41281,control_change,4,0,1,,,,,,,,,0,11,48,,,
41281,note_on,0,0,3,,,,,,,,,3,,,,60,0
41281,note_on,3,0,8,,,,,,,,,12,,,,64,0
41282,control_change,1,0,8,,,,,,,,,12,11,45,,,
41282,control_change,4,0,9,,,,,,,,,13,11,48,,,
41282,note_on,0,0,7,,,,,,,,,11,,,,65,88
41282,control_change,4,0,7,,,,,,,,,11,11,42,,,
41282,control_change,4,0,4,,,,,,,,,4,11,48,,,
41283,note_on,2,0,1,,,,,,,,,0,,,,77,97
41283,control_change,4,0,2,,,,,,,,,1,11,48,,,
41284,control_change,4,0,10,,,,,,,,,14,11,48,,,
41284,note_on,2,0,4,,,,,,,,,4,,,,53,96
41284,control_change,4,0,5,,,,,,,,,5,11,48,,,
41285,note_on,2,0,2,,,,,,,,,1,,,,77,97
41285,control_change,4,0,3,,,,,,,,,3,11,51,,,
41285,note_on,3,0,9,,,,,,,,,13,,,,60,0
41286,control_change,4,0,8,,,,,,,,,12,11,42,,,
41286,note_on,0,0,8,,,,,,,,,12,,,,65,108
41286,note_on,2,0,5,,,,,,,,,5,,,,53,96
41286,control_change,1,0,9,,,,,,,,,13,11,45,,,
41287,note_on,3,0,10,,,,,,,,,14,,,,48,0
41288,control_change,1,0,10,,,,,,,,,14,11,45,,,
41289,control_change,4,0,3,,,,,,,,,3,11,48,,,
41290,control_change,4,0,9,,,,,,,,,13,11,42,,,
41290,note_on,0,0,9,,,,,,,,,13,,,,49,99
41291,note_on,2,0,3,,,,,,,,,3,,,,53,97
41292,control_change,4,0,10,,,,,,,,,14,11,42,,,
41292,note_on,0,0,10,,,,,,,,,14,,,,37,93
41340,note_on,60,0,6,,,,,,,,,10,,,,77,0
41342,note_on,60,0,7,,,,,,,,,11,,,,65,0
41398,note_on,115,0,1,,,,,,,,,0,,,,77,0
41399,note_on,115,0,4,,,,,,,,,4,,,,53,0
41400,note_on,115,0,2,,,,,,,,,1,,,,77,0
41400,note_on,60,0,6,,,,,,,,,10,,,,77,110
41401,note_on,115,0,5,,,,,,,,,5,,,,53,0
41402,note_on,60,0,7,,,,,,,,,11,,,,65,88
41406,note_on,115,0,3,,,,,,,,,3,,,,53,0
41460,note_on,60,0,6,,,,,,,,,10,,,,77,0
41462,note_on,60,0,7,,,,,,,,,11,,,,65,0
41520,set_tempo,240,1,0,,,,,,272727,,,,,,,,
41520,note_on,60,0,6,,,,,,,,,10,,,,80,110
41522,note_on,60,0,7,,,,,,,,,11,,,,68,88
41525,note_on,0,0,2,,,,,,,,,1,,,,80,97
41525,control_change,125,0,2,,,,,,,,,1,11,27,,,
41525,note_on,0,0,2,,,,,,,,,1,,,,68,97
41526,note_on,0,0,8,,,,,,,,,12,,,,63,108
41526,note_on,240,0,8,,,,,,,,,12,,,,65,0
41530,note_on,0,0,9,,,,,,,,,13,,,,48,99
41530,note_on,240,0,9,,,,,,,,,13,,,,49,0
41532,note_on,0,0,10,,,,,,,,,14,,,,36,93
41532,note_on,240,0,10,,,,,,,,,14,,,,37,0
41535,note_on,0,0,6,,,,,,,,,10,,,,78,110
41535,note_on,15,0,6,,,,,,,,,10,,,,80,0
41537,note_on,15,0,7,,,,,,,,,11,,,,68,0
41537,note_on,0,0,7,,,,,,,,,11,,,,66,88
41541,control_change,16,0,2,,,,,,,,,1,11,28,,,
41557,control_change,16,0,2,,,,,,,,,1,11,29,,,
41573,control_change,16,0,2,,,,,,,,,1,11,30,,,
41580,note_on,45,0,6,,,,,,,,,10,,,,78,0
41580,note_on,0,0,6,,,,,,,,,10,,,,77,110
41582,note_on,0,0,7,,,,,,,,,11,,,,65,88
41582,note_on,45,0,7,,,,,,,,,11,,,,66,0
41589,control_change,16,0,2,,,,,,,,,1,11,31,,,
41605,control_change,16,0,2,,,,,,,,,1,11,32,,,
41621,control_change,16,0,2,,,,,,,,,1,11,33,,,
41637,control_change,16,0,2,,,,,,,,,1,11,34,,,
41640,note_on,0,0,6,,,,,,,,,10,,,,78,110
41640,note_on,60,0,6,,,,,,,,,10,,,,77,0
41642,note_on,0,0,7,,,,,,,,,11,,,,66,88
41642,note_on,60,0,7,,,,,,,,,11,,,,65,0
41653,control_change,16,0,2,,,,,,,,,1,11,35,,,
41669,control_change,16,0,2,,,,,,,,,1,11,36,,,
41685,control_change,16,0,2,,,,,,,,,1,11,37,,,
41700,note_on,60,0,6,,,,,,,,,10,,,,78,0
41700,note_on,0,0,6,,,,,,,,,10,,,,80,110
41701,control_change,16,0,2,,,,,,,,,1,11,38,,,
41702,note_on,60,0,7,,,,,,,,,11,,,,66,0
41702,note_on,0,0,7,,,,,,,,,11,,,,68,88
41717,control_change,16,0,2,,,,,,,,,1,11,39,,,
41733,control_change,16,0,2,,,,,,,,,1,11,40,,,
41739,note_on,39,0,6,,,,,,,,,10,,,,80,0
41741,note_on,39,0,7,,,,,,,,,11,,,,68,0
41749,control_change,16,0,2,,,,,,,,,1,11,41,,,
41760,set_tempo,240,1,0,,,,,,285714,,,,,,,,
41760,note_on,21,0,6,,,,,,,,,10,,,,77,110
41762,note_on,21,0,7,,,,,,,,,11,,,,65,88
41765,control_change,16,0,2,,,,,,,,,1,11,42,,,
41766,note_on,240,0,8,,,,,,,,,12,,,,63,0
41766,note_on,0,0,8,,,,,,,,,12,,,,65,108
41770,note_on,0,0,9,,,,,,,,,13,,,,49,99
41770,note_on,240,0,9,,,,,,,,,13,,,,48,0
41772,note_on,0,0,10,,,,,,,,,14,,,,37,93
41772,note_on,240,0,10,,,,,,,,,14,,,,36,0
41820,note_on,60,0,6,,,,,,,,,10,,,,77,0
41822,note_on,60,0,7,,,,,,,,,11,,,,65,0
41880,note_on,60,0,6,,,,,,,,,10,,,,77,110
41882,note_on,60,0,7,,,,,,,,,11,,,,65,88
41940,note_on,60,0,6,,,,,,,,,10,,,,77,0
41942,note_on,60,0,7,,,,,,,,,11,,,,65,0
42000,note_on,60,0,6,,,,,,,,,10,,,,80,110
42000,set_tempo,240,1,0,,,,,,272727,,,,,,,,
42002,note_on,60,0,7,,,,,,,,,11,,,,68,88
42006,note_on,0,0,8,,,,,,,,,12,,,,63,108
42006,note_on,240,0,8,,,,,,,,,12,,,,65,0
42010,note_on,240,0,9,,,,,,,,,13,,,,49,0
42010,note_on,0,0,9,,,,,,,,,13,,,,48,99
42012,note_on,240,0,10,,,,,,,,,14,,,,37,0
42012,note_on,0,0,10,,,,,,,,,14,,,,36,93
42015,note_on,0,0,6,,,,,,,,,10,,,,78,110
42015,note_on,15,0,6,,,,,,,,,10,,,,80,0
42017,note_on,15,0,7,,,,,,,,,11,,,,68,0
42017,note_on,0,0,7,,,,,,,,,11,,,,66,88
42060,note_on,0,0,6,,,,,,,,,10,,,,77,110
42060,note_on,45,0,6,,,,,,,,,10,,,,78,0
42062,note_on,0,0,7,,,,,,,,,11,,,,65,88
42062,note_on,45,0,7,,,,,,,,,11,,,,66,0
42120,note_on,60,0,6,,,,,,,,,10,,,,77,0
42120,note_on,0,0,6,,,,,,,,,10,,,,78,110
42122,note_on,0,0,7,,,,,,,,,11,,,,66,88
42122,note_on,60,0,7,,,,,,,,,11,,,,65,0
42180,note_on,60,0,6,,,,,,,,,10,,,,78,0
42180,note_on,0,0,6,,,,,,,,,10,,,,80,110
42182,note_on,0,0,7,,,,,,,,,11,,,,68,88
42182,note_on,60,0,7,,,,,,,,,11,,,,66,0
42240,control_change,0,0,6,,,,,,,,,10,11,42,,,
42240,set_tempo,240,1,0,,,,,,282353,,,,,,,,
42240,note_on,60,0,6,,,,,,,,,10,,,,80,0
42240,note_on,0,0,6,,,,,,,,,10,,,,77,110
42242,note_on,0,0,7,,,,,,,,,11,,,,65,88
42242,control_change,0,0,7,,,,,,,,,11,11,42,,,
42242,note_on,60,0,7,,,,,,,,,11,,,,68,0
42246,note_on,240,0,8,,,,,,,,,12,,,,63,0
42246,control_change,0,0,8,,,,,,,,,12,11,42,,,
42246,note_on,0,0,8,,,,,,,,,12,,,,65,108
42250,note_on,0,0,9,,,,,,,,,13,,,,49,99
42250,control_change,0,0,9,,,,,,,,,13,11,42,,,
42250,note_on,240,0,9,,,,,,,,,13,,,,48,0
42252,note_on,240,0,10,,,,,,,,,14,,,,36,0
42252,control_change,0,0,10,,,,,,,,,14,11,42,,,
42252,note_on,0,0,10,,,,,,,,,14,,,,37,93
42264,control_change,24,0,6,,,,,,,,,10,11,40,,,
42266,control_change,24,0,7,,,,,,,,,11,11,40,,,
42270,control_change,24,0,8,,,,,,,,,12,11,40,,,
42274,control_change,24,0,9,,,,,,,,,13,11,40,,,
42276,control_change,24,0,10,,,,,,,,,14,11,40,,,
42285,note_on,15,0,8,,,,,,,,,12,,,,65,0
42288,control_change,24,0,6,,,,,,,,,10,11,38,,,
42289,note_on,15,0,9,,,,,,,,,13,,,,49,0
42290,control_change,24,0,7,,,,,,,,,11,11,38,,,
42291,note_on,15,0,10,,,,,,,,,14,,,,37,0
42294,control_change,9,0,8,,,,,,,,,12,11,38,,,
42298,control_change,9,0,9,,,,,,,,,13,11,38,,,
42300,control_change,9,0,10,,,,,,,,,14,11,38,,,
42306,note_on,12,0,8,,,,,,,,,12,,,,65,99
42307,note_on,19,0,6,,,,,,,,,10,,,,77,0
42309,note_on,19,0,7,,,,,,,,,11,,,,65,0
42310,note_on,12,0,9,,,,,,,,,13,,,,49,90
42312,control_change,5,0,6,,,,,,,,,10,11,36,,,
42312,note_on,12,0,10,,,,,,,,,14,,,,37,84
42314,control_change,5,0,7,,,,,,,,,11,11,36,,,
42318,control_change,12,0,8,,,,,,,,,12,11,36,,,
42322,control_change,12,0,9,,,,,,,,,13,11,36,,,
42324,control_change,12,0,10,,,,,,,,,14,11,36,,,
42336,control_change,24,0,6,,,,,,,,,10,11,34,,,
42338,control_change,24,0,7,,,,,,,,,11,11,34,,,
42342,control_change,24,0,8,,,,,,,,,12,11,34,,,
42345,note_on,3,0,8,,,,,,,,,12,,,,65,0
42346,control_change,24,0,9,,,,,,,,,13,11,34,,,
42348,control_change,24,0,10,,,,,,,,,14,11,34,,,
42349,note_on,3,0,9,,,,,,,,,13,,,,49,0
42351,note_on,3,0,10,,,,,,,,,14,,,,37,0
42360,control_change,24,0,6,,,,,,,,,10,11,32,,,
42360,note_on,0,0,6,,,,,,,,,10,,,,77,110
42362,note_on,0,0,7,,,,,,,,,11,,,,65,88
42362,control_change,24,0,7,,,,,,,,,11,11,32,,,
42366,note_on,0,0,8,,,,,,,,,12,,,,65,108
42366,control_change,21,0,8,,,,,,,,,12,11,32,,,
42370,note_on,0,0,9,,,,,,,,,13,,,,49,99
42370,control_change,21,0,9,,,,,,,,,13,11,32,,,
42372,control_change,21,0,10,,,,,,,,,14,11,32,,,
42372,note_on,0,0,10,,,,,,,,,14,,,,37,93
42375,control_change,15,0,6,,,,,,,,,10,11,33,,,
42377,control_change,15,0,7,,,,,,,,,11,11,33,,,
42381,control_change,15,0,8,,,,,,,,,12,11,33,,,
42385,control_change,15,0,9,,,,,,,,,13,11,33,,,
42387,control_change,15,0,10,,,,,,,,,14,11,33,,,
42390,control_change,15,0,6,,,,,,,,,10,11,34,,,
42392,control_change,15,0,7,,,,,,,,,11,11,34,,,
42396,control_change,15,0,8,,,,,,,,,12,11,34,,,
42400,control_change,15,0,9,,,,,,,,,13,11,34,,,
42402,control_change,15,0,10,,,,,,,,,14,11,34,,,
42405,note_on,9,0,8,,,,,,,,,12,,,,65,0
42405,control_change,15,0,6,,,,,,,,,10,11,35,,,
42407,control_change,15,0,7,,,,,,,,,11,11,35,,,
42409,note_on,9,0,9,,,,,,,,,13,,,,49,0
42411,note_on,9,0,10,,,,,,,,,14,,,,37,0
42411,control_change,6,0,8,,,,,,,,,12,11,35,,,
42415,control_change,6,0,9,,,,,,,,,13,11,35,,,
42417,control_change,6,0,10,,,,,,,,,14,11,35,,,
42421,control_change,16,0,6,,,,,,,,,10,11,36,,,
42423,control_change,16,0,7,,,,,,,,,11,11,36,,,
42426,note_on,15,0,8,,,,,,,,,12,,,,65,99
42427,note_on,6,0,6,,,,,,,,,10,,,,77,0
42427,control_change,1,0,8,,,,,,,,,12,11,36,,,
42429,note_on,6,0,7,,,,,,,,,11,,,,65,0
42430,note_on,15,0,9,,,,,,,,,13,,,,49,90
42431,control_change,1,0,9,,,,,,,,,13,11,36,,,
42432,note_on,15,0,10,,,,,,,,,14,,,,37,84
42433,control_change,1,0,10,,,,,,,,,14,11,36,,,
42436,control_change,9,0,6,,,,,,,,,10,11,37,,,
42438,control_change,9,0,7,,,,,,,,,11,11,37,,,
42442,control_change,15,0,8,,,,,,,,,12,11,37,,,
42446,control_change,15,0,9,,,,,,,,,13,11,37,,,
42448,control_change,15,0,10,,,,,,,,,14,11,37,,,
42451,control_change,15,0,6,,,,,,,,,10,11,38,,,
42453,control_change,15,0,7,,,,,,,,,11,11,38,,,
42457,control_change,15,0,8,,,,,,,,,12,11,38,,,
42461,control_change,15,0,9,,,,,,,,,13,11,38,,,
42463,control_change,15,0,10,,,,,,,,,14,11,38,,,
42465,note_on,8,0,8,,,,,,,,,12,,,,65,0
42466,control_change,15,0,6,,,,,,,,,10,11,39,,,
42468,control_change,15,0,7,,,,,,,,,11,11,39,,,
42469,note_on,8,0,9,,,,,,,,,13,,,,49,0
42471,note_on,8,0,10,,,,,,,,,14,,,,37,0
42472,control_change,7,0,8,,,,,,,,,12,11,39,,,
42476,control_change,7,0,9,,,,,,,,,13,11,39,,,
42478,control_change,7,0,10,,,,,,,,,14,11,39,,,
42480,set_tempo,240,1,0,,,,,,269663,,,,,,,,
42480,note_on,14,0,6,,,,,,,,,10,,,,81,110
42482,note_on,14,0,7,,,,,,,,,11,,,,69,88
42482,control_change,2,0,6,,,,,,,,,10,11,40,,,
42483,control_change,1085,0,1,,,,,,,,,0,11,42,,,
42483,note_on,0,0,1,,,,,,,,,0,,,,81,97
42484,note_on,0,0,4,,,,,,,,,4,,,,65,96
42484,control_change,1085,0,4,,,,,,,,,4,11,47,,,
42484,control_change,2,0,7,,,,,,,,,11,11,40,,,
42485,note_on,0,0,2,,,,,,,,,1,,,,68,0
42485,note_on,0,0,2,,,,,,,,,1,,,,81,97
42485,control_change,0,0,2,,,,,,,,,1,11,42,,,
42485,note_on,0,0,2,,,,,,,,,1,,,,69,97
42485,note_on,720,0,2,,,,,,,,,1,,,,80,0
42486,note_on,0,0,5,,,,,,,,,5,,,,53,96
42486,control_change,1085,0,5,,,,,,,,,5,11,47,,,
42486,note_on,14,0,8,,,,,,,,,12,,,,65,108
42488,control_change,2,0,8,,,,,,,,,12,11,40,,,
42490,note_on,14,0,9,,,,,,,,,13,,,,49,99
42491,note_on,0,0,3,,,,,,,,,3,,,,49,97
42491,control_change,1085,0,3,,,,,,,,,3,11,47,,,
42492,note_on,14,0,10,,,,,,,,,14,,,,37,93
42492,control_change,2,0,9,,,,,,,,,13,11,40,,,
42494,control_change,2,0,10,,,,,,,,,14,11,40,,,
42497,control_change,15,0,6,,,,,,,,,10,11,41,,,
42499,control_change,15,0,7,,,,,,,,,11,11,41,,,
42501,control_change,18,0,1,,,,,,,,,0,11,43,,,
42503,control_change,15,0,8,,,,,,,,,12,11,41,,,
42503,control_change,18,0,2,,,,,,,,,1,11,43,,,
42507,control_change,15,0,9,,,,,,,,,13,11,41,,,
42509,control_change,15,0,10,,,,,,,,,14,11,41,,,
42512,control_change,15,0,6,,,,,,,,,10,11,42,,,
42514,control_change,15,0,7,,,,,,,,,11,11,42,,,
42518,control_change,15,0,8,,,,,,,,,12,11,42,,,
42520,control_change,19,0,1,,,,,,,,,0,11,44,,,
42522,control_change,15,0,9,,,,,,,,,13,11,42,,,
42522,control_change,19,0,2,,,,,,,,,1,11,44,,,
42524,control_change,15,0,10,,,,,,,,,14,11,42,,,
42525,note_on,7,0,8,,,,,,,,,12,,,,65,0
42528,control_change,16,0,6,,,,,,,,,10,11,43,,,
42529,note_on,7,0,9,,,,,,,,,13,,,,49,0
42530,control_change,16,0,7,,,,,,,,,11,11,43,,,
42531,note_on,7,0,10,,,,,,,,,14,,,,37,0
42534,control_change,9,0,8,,,,,,,,,12,11,43,,,
42538,control_change,9,0,9,,,,,,,,,13,11,43,,,
42539,control_change,19,0,1,,,,,,,,,0,11,45,,,
42540,control_change,9,0,10,,,,,,,,,14,11,43,,,
42541,control_change,19,0,2,,,,,,,,,1,11,45,,,
42543,control_change,15,0,6,,,,,,,,,10,11,44,,,
42545,control_change,15,0,7,,,,,,,,,11,11,44,,,
42546,note_on,12,0,8,,,,,,,,,12,,,,65,99
42547,note_on,4,0,6,,,,,,,,,10,,,,81,0
42549,control_change,3,0,8,,,,,,,,,12,11,44,,,
42549,note_on,4,0,7,,,,,,,,,11,,,,69,0
42550,note_on,12,0,9,,,,,,,,,13,,,,49,90
42552,note_on,12,0,10,,,,,,,,,14,,,,37,84
42553,control_change,3,0,9,,,,,,,,,13,11,44,,,
42555,control_change,3,0,10,,,,,,,,,14,11,44,,,
42557,control_change,18,0,1,,,,,,,,,0,11,46,,,
42558,control_change,11,0,6,,,,,,,,,10,11,45,,,
42559,control_change,18,0,2,,,,,,,,,1,11,46,,,
42560,control_change,11,0,7,,,,,,,,,11,11,45,,,
42564,control_change,15,0,8,,,,,,,,,12,11,45,,,
42568,control_change,15,0,9,,,,,,,,,13,11,45,,,
42570,control_change,15,0,10,,,,,,,,,14,11,45,,,
42573,control_change,15,0,6,,,,,,,,,10,11,46,,,
42575,control_change,15,0,7,,,,,,,,,11,11,46,,,
42576,control_change,19,0,1,,,,,,,,,0,11,47,,,
42578,control_change,19,0,2,,,,,,,,,1,11,47,,,
42579,control_change,15,0,8,,,,,,,,,12,11,46,,,
42583,control_change,15,0,9,,,,,,,,,13,11,46,,,
42585,note_on,6,0,8,,,,,,,,,12,,,,65,0
42585,control_change,15,0,10,,,,,,,,,14,11,46,,,
42589,note_on,6,0,9,,,,,,,,,13,,,,49,0
42589,control_change,16,0,6,,,,,,,,,10,11,47,,,
42591,control_change,16,0,7,,,,,,,,,11,11,47,,,
42591,note_on,6,0,10,,,,,,,,,14,,,,37,0
42595,control_change,19,0,1,,,,,,,,,0,11,48,,,
42595,control_change,10,0,8,,,,,,,,,12,11,47,,,
42597,control_change,19,0,2,,,,,,,,,1,11,48,,,
42599,control_change,10,0,9,,,,,,,,,13,11,47,,,
42600,note_on,11,0,6,,,,,,,,,10,,,,81,110
42601,control_change,10,0,10,,,,,,,,,14,11,47,,,
42602,note_on,11,0,7,,,,,,,,,11,,,,69,88
42604,control_change,4,0,6,,,,,,,,,10,11,48,,,
42606,note_on,11,0,8,,,,,,,,,12,,,,65,108
42606,control_change,4,0,7,,,,,,,,,11,11,48,,,
42610,control_change,4,0,8,,,,,,,,,12,11,48,,,
42610,note_on,11,0,9,,,,,,,,,13,,,,49,99
42612,note_on,11,0,10,,,,,,,,,14,,,,37,93
42613,control_change,18,0,1,,,,,,,,,0,11,49,,,
42614,control_change,4,0,9,,,,,,,,,13,11,48,,,
42615,control_change,18,0,2,,,,,,,,,1,11,49,,,
42616,control_change,4,0,10,,,,,,,,,14,11,48,,,
42619,control_change,15,0,6,,,,,,,,,10,11,49,,,
42621,control_change,15,0,7,,,,,,,,,11,11,49,,,
42625,control_change,15,0,8,,,,,,,,,12,11,49,,,
42629,control_change,15,0,9,,,,,,,,,13,11,49,,,
42631,control_change,15,0,10,,,,,,,,,14,11,49,,,
42632,control_change,19,0,1,,,,,,,,,0,11,50,,,
42634,control_change,15,0,6,,,,,,,,,10,11,50,,,
42634,control_change,19,0,2,,,,,,,,,1,11,50,,,
42636,control_change,15,0,7,,,,,,,,,11,11,50,,,
42640,control_change,15,0,8,,,,,,,,,12,11,50,,,
42644,control_change,15,0,9,,,,,,,,,13,11,50,,,
42645,note_on,5,0,8,,,,,,,,,12,,,,65,0
42646,control_change,15,0,10,,,,,,,,,14,11,50,,,
42649,note_on,5,0,9,,,,,,,,,13,,,,49,0
42650,control_change,16,0,6,,,,,,,,,10,11,51,,,
42651,note_on,5,0,10,,,,,,,,,14,,,,37,0
42651,control_change,19,0,1,,,,,,,,,0,11,51,,,
42652,control_change,16,0,7,,,,,,,,,11,11,51,,,
42653,control_change,19,0,2,,,,,,,,,1,11,51,,,
42656,control_change,11,0,8,,,,,,,,,12,11,51,,,
42660,control_change,11,0,9,,,,,,,,,13,11,51,,,
42662,control_change,11,0,10,,,,,,,,,14,11,51,,,
42665,control_change,15,0,6,,,,,,,,,10,11,52,,,
42666,note_on,10,0,8,,,,,,,,,12,,,,65,99
42667,control_change,15,0,7,,,,,,,,,11,11,52,,,
42667,note_on,2,0,6,,,,,,,,,10,,,,81,0
42669,note_on,2,0,7,,,,,,,,,11,,,,69,0
42669,control_change,18,0,1,,,,,,,,,0,11,52,,,
42670,note_on,10,0,9,,,,,,,,,13,,,,49,90
42671,control_change,5,0,8,,,,,,,,,12,11,52,,,
42671,control_change,18,0,2,,,,,,,,,1,11,52,,,
42672,note_on,10,0,10,,,,,,,,,14,,,,37,84
42675,control_change,5,0,9,,,,,,,,,13,11,52,,,
42677,control_change,5,0,10,,,,,,,,,14,11,52,,,
42680,control_change,13,0,6,,,,,,,,,10,11,53,,,
42682,control_change,13,0,7,,,,,,,,,11,11,53,,,
42686,control_change,15,0,8,,,,,,,,,12,11,53,,,
42688,control_change,19,0,1,,,,,,,,,0,11,53,,,
42690,control_change,15,0,9,,,,,,,,,13,11,53,,,
42690,control_change,19,0,2,,,,,,,,,1,11,53,,,
42692,control_change,15,0,10,,,,,,,,,14,11,53,,,
42696,control_change,16,0,6,,,,,,,,,10,11,54,,,
42698,control_change,16,0,7,,,,,,,,,11,11,54,,,
42702,control_change,16,0,8,,,,,,,,,12,11,54,,,
42705,note_on,3,0,8,,,,,,,,,12,,,,65,0
42706,control_change,16,0,9,,,,,,,,,13,11,54,,,
42707,control_change,19,0,1,,,,,,,,,0,11,54,,,
42708,control_change,16,0,10,,,,,,,,,14,11,54,,,
42709,control_change,19,0,2,,,,,,,,,1,11,54,,,
42709,note_on,3,0,9,,,,,,,,,13,,,,49,0
42711,note_on,3,0,10,,,,,,,,,14,,,,37,0
42711,control_change,15,0,6,,,,,,,,,10,11,55,,,
42713,control_change,15,0,7,,,,,,,,,11,11,55,,,
42717,control_change,12,0,8,,,,,,,,,12,11,55,,,
42720,note_on,9,0,6,,,,,,,,,10,,,,82,110
42720,set_tempo,240,1,0,,,,,,278422,,,,,,,,
42721,control_change,12,0,9,,,,,,,,,13,11,55,,,
42722,note_on,9,0,7,,,,,,,,,11,,,,70,88
42723,note_on,0,0,1,,,,,,,,,0,,,,82,97
42723,note_on,16,0,1,,,,,,,,,0,,,,81,0
42723,control_change,12,0,10,,,,,,,,,14,11,55,,,
42724,control_change,240,0,4,,,,,,,,,4,11,47,,,
42725,control_change,2,0,1,,,,,,,,,0,11,55,,,
42725,note_on,0,0,2,,,,,,,,,1,,,,82,97
42725,note_on,16,0,2,,,,,,,,,1,,,,81,0
42725,note_on,0,0,2,,,,,,,,,1,,,,69,0
42725,note_on,0,0,2,,,,,,,,,1,,,,70,97
42726,note_on,9,0,8,,,,,,,,,12,,,,65,108
42726,control_change,6,0,6,,,,,,,,,10,11,56,,,
42726,control_change,240,0,5,,,,,,,,,5,11,47,,,
42727,control_change,2,0,2,,,,,,,,,1,11,55,,,
42728,control_change,6,0,7,,,,,,,,,11,11,56,,,
42730,note_on,9,0,9,,,,,,,,,13,,,,49,99
42731,control_change,240,0,3,,,,,,,,,3,11,47,,,
42732,control_change,6,0,8,,,,,,,,,12,11,56,,,
42732,note_on,9,0,10,,,,,,,,,14,,,,37,93
42736,control_change,6,0,9,,,,,,,,,13,11,56,,,
42738,control_change,6,0,10,,,,,,,,,14,11,56,,,
42739,control_change,15,0,4,,,,,,,,,4,11,48,,,
42741,control_change,15,0,6,,,,,,,,,10,11,57,,,
42741,control_change,15,0,5,,,,,,,,,5,11,48,,,
42743,control_change,15,0,7,,,,,,,,,11,11,57,,,
42744,control_change,19,0,1,,,,,,,,,0,11,56,,,
42746,control_change,19,0,2,,,,,,,,,1,11,56,,,
42746,control_change,15,0,3,,,,,,,,,3,11,48,,,
42747,control_change,15,0,8,,,,,,,,,12,11,57,,,
42751,control_change,15,0,9,,,,,,,,,13,11,57,,,
42753,control_change,15,0,10,,,,,,,,,14,11,57,,,
42754,control_change,15,0,4,,,,,,,,,4,11,49,,,
42756,control_change,15,0,5,,,,,,,,,5,11,49,,,
42757,control_change,16,0,6,,,,,,,,,10,11,58,,,
42759,control_change,16,0,7,,,,,,,,,11,11,58,,,
42761,control_change,15,0,3,,,,,,,,,3,11,49,,,
42763,control_change,19,0,1,,,,,,,,,0,11,57,,,
42763,control_change,16,0,8,,,,,,,,,12,11,58,,,
42765,note_on,2,0,8,,,,,,,,,12,,,,65,0
42765,control_change,19,0,2,,,,,,,,,1,11,57,,,
42767,control_change,16,0,9,,,,,,,,,13,11,58,,,
42769,note_on,2,0,9,,,,,,,,,13,,,,49,0
42769,control_change,15,0,4,,,,,,,,,4,11,50,,,
42769,control_change,16,0,10,,,,,,,,,14,11,58,,,
42771,control_change,15,0,5,,,,,,,,,5,11,50,,,
42771,note_on,2,0,10,,,,,,,,,14,,,,37,0
42772,control_change,15,0,6,,,,,,,,,10,11,59,,,
42774,control_change,15,0,7,,,,,,,,,11,11,59,,,
42776,control_change,15,0,3,,,,,,,,,3,11,50,,,
42778,control_change,13,0,8,,,,,,,,,12,11,59,,,
42781,control_change,18,0,1,,,,,,,,,0,11,58,,,
42782,control_change,13,0,9,,,,,,,,,13,11,59,,,
42783,control_change,18,0,2,,,,,,,,,1,11,58,,,
42784,control_change,13,0,10,,,,,,,,,14,11,59,,,
42784,control_change,15,0,4,,,,,,,,,4,11,51,,,
42786,note_on,8,0,8,,,,,,,,,12,,,,65,99
42786,control_change,15,0,5,,,,,,,,,5,11,51,,,
42787,control_change,0,0,6,,,,,,,,,10,11,60,,,
42787,note_on,15,0,6,,,,,,,,,10,,,,82,0
42789,note_on,15,0,7,,,,,,,,,11,,,,70,0
42789,control_change,0,0,7,,,,,,,,,11,11,60,,,
42790,note_on,8,0,9,,,,,,,,,13,,,,49,90
42791,control_change,15,0,3,,,,,,,,,3,11,51,,,
42792,note_on,8,0,10,,,,,,,,,14,,,,37,84
42793,control_change,7,0,8,,,,,,,,,12,11,60,,,
42797,control_change,7,0,9,,,,,,,,,13,11,60,,,
42799,control_change,7,0,10,,,,,,,,,14,11,60,,,
42799,control_change,15,0,4,,,,,,,,,4,11,52,,,
42800,control_change,19,0,1,,,,,,,,,0,11,59,,,
42801,control_change,15,0,5,,,,,,,,,5,11,52,,,
42802,control_change,15,0,6,,,,,,,,,10,11,61,,,
42802,control_change,19,0,2,,,,,,,,,1,11,59,,,
42804,control_change,15,0,7,,,,,,,,,11,11,61,,,
42806,control_change,15,0,3,,,,,,,,,3,11,52,,,
42808,control_change,15,0,8,,,,,,,,,12,11,61,,,
42812,control_change,15,0,9,,,,,,,,,13,11,61,,,
42814,control_change,15,0,10,,,,,,,,,14,11,61,,,
42814,control_change,15,0,4,,,,,,,,,4,11,53,,,
42816,control_change,15,0,5,,,,,,,,,5,11,53,,,
42818,control_change,16,0,6,,,,,,,,,10,11,62,,,
42819,control_change,19,0,1,,,,,,,,,0,11,60,,,
42820,control_change,16,0,7,,,,,,,,,11,11,62,,,
42821,control_change,15,0,3,,,,,,,,,3,11,53,,,
42821,control_change,19,0,2,,,,,,,,,1,11,60,,,
42824,control_change,16,0,8,,,,,,,,,12,11,62,,,
42825,note_on,1,0,8,,,,,,,,,12,,,,65,0
42828,control_change,16,0,9,,,,,,,,,13,11,62,,,
42829,note_on,1,0,9,,,,,,,,,13,,,,49,0
42829,control_change,15,0,4,,,,,,,,,4,11,54,,,
42830,control_change,16,0,10,,,,,,,,,14,11,62,,,
42831,control_change,15,0,5,,,,,,,,,5,11,54,,,
42831,note_on,1,0,10,,,,,,,,,14,,,,37,0
42833,control_change,15,0,6,,,,,,,,,10,11,62,,,
42835,control_change,15,0,7,,,,,,,,,11,11,62,,,
42836,control_change,15,0,3,,,,,,,,,3,11,54,,,
42837,control_change,18,0,1,,,,,,,,,0,11,61,,,
42839,control_change,14,0,8,,,,,,,,,12,11,62,,,
42839,control_change,18,0,2,,,,,,,,,1,11,61,,,
42840,note_on,7,0,6,,,,,,,,,10,,,,82,110
42842,note_on,7,0,7,,,,,,,,,11,,,,70,88
42843,control_change,14,0,9,,,,,,,,,13,11,62,,,
42844,control_change,15,0,4,,,,,,,,,4,11,55,,,
42845,control_change,14,0,10,,,,,,,,,14,11,62,,,
42846,note_on,7,0,8,,,,,,,,,12,,,,65,108
42846,control_change,15,0,5,,,,,,,,,5,11,55,,,
42848,control_change,8,0,6,,,,,,,,,10,11,63,,,
42850,note_on,7,0,9,,,,,,,,,13,,,,49,99
42850,control_change,8,0,7,,,,,,,,,11,11,63,,,
42851,control_change,15,0,3,,,,,,,,,3,11,55,,,
42852,note_on,7,0,10,,,,,,,,,14,,,,37,93
42854,control_change,8,0,8,,,,,,,,,12,11,63,,,
42856,control_change,19,0,1,,,,,,,,,0,11,62,,,
42858,control_change,19,0,2,,,,,,,,,1,11,62,,,
42858,control_change,8,0,9,,,,,,,,,13,11,63,,,
42859,control_change,15,0,4,,,,,,,,,4,11,56,,,
42860,control_change,8,0,10,,,,,,,,,14,11,63,,,
42861,control_change,15,0,5,,,,,,,,,5,11,56,,,
42864,control_change,16,0,6,,,,,,,,,10,11,64,,,
42866,control_change,15,0,3,,,,,,,,,3,11,56,,,
42866,control_change,16,0,7,,,,,,,,,11,11,64,,,
42870,control_change,16,0,8,,,,,,,,,12,11,64,,,
42874,control_change,16,0,9,,,,,,,,,13,11,64,,,
42874,control_change,15,0,4,,,,,,,,,4,11,57,,,
42875,control_change,19,0,1,,,,,,,,,0,11,62,,,
42876,control_change,16,0,10,,,,,,,,,14,11,64,,,
42876,control_change,15,0,5,,,,,,,,,5,11,57,,,
42877,control_change,19,0,2,,,,,,,,,1,11,62,,,
42879,control_change,15,0,6,,,,,,,,,10,11,64,,,
42881,control_change,15,0,3,,,,,,,,,3,11,57,,,
42881,control_change,15,0,7,,,,,,,,,11,11,64,,,
42885,control_change,0,0,8,,,,,,,,,12,11,64,,,
42885,note_on,15,0,8,,,,,,,,,12,,,,65,0
42889,control_change,15,0,4,,,,,,,,,4,11,58,,,
42889,note_on,15,0,9,,,,,,,,,13,,,,49,0
42889,control_change,0,0,9,,,,,,,,,13,11,64,,,
42891,note_on,15,0,10,,,,,,,,,14,,,,37,0
42891,control_change,15,0,5,,,,,,,,,5,11,58,,,
42891,control_change,0,0,10,,,,,,,,,14,11,64,,,
42893,control_change,18,0,1,,,,,,,,,0,11,63,,,
42894,control_change,15,0,6,,,,,,,,,10,11,65,,,
42895,control_change,18,0,2,,,,,,,,,1,11,63,,,
42896,control_change,15,0,3,,,,,,,,,3,11,58,,,
42896,control_change,15,0,7,,,,,,,,,11,11,65,,,
42900,control_change,15,0,8,,,,,,,,,12,11,65,,,
42904,control_change,15,0,9,,,,,,,,,13,11,65,,,
42904,control_change,15,0,4,,,,,,,,,4,11,59,,,
42906,note_on,6,0,8,,,,,,,,,12,,,,65,99
42906,control_change,15,0,5,,,,,,,,,5,11,59,,,
42906,control_change,15,0,10,,,,,,,,,14,11,65,,,
42907,note_on,13,0,6,,,,,,,,,10,,,,82,0
42909,control_change,2,0,6,,,,,,,,,10,11,66,,,
42909,note_on,13,0,7,,,,,,,,,11,,,,70,0
42910,note_on,6,0,9,,,,,,,,,13,,,,49,90
42911,control_change,2,0,7,,,,,,,,,11,11,66,,,
42911,control_change,15,0,3,,,,,,,,,3,11,59,,,
42912,control_change,19,0,1,,,,,,,,,0,11,64,,,
42912,note_on,6,0,10,,,,,,,,,14,,,,37,84
42914,control_change,19,0,2,,,,,,,,,1,11,64,,,
42915,control_change,9,0,8,,,,,,,,,12,11,66,,,
42919,control_change,15,0,4,,,,,,,,,4,11,60,,,
42919,control_change,9,0,9,,,,,,,,,13,11,66,,,
42921,control_change,15,0,5,,,,,,,,,5,11,60,,,
42921,control_change,9,0,10,,,,,,,,,14,11,66,,,
42925,control_change,16,0,6,,,,,,,,,10,11,66,,,
42926,control_change,15,0,3,,,,,,,,,3,11,60,,,
42927,control_change,16,0,7,,,,,,,,,11,11,66,,,
42931,control_change,16,0,8,,,,,,,,,12,11,66,,,
42931,control_change,19,0,1,,,,,,,,,0,11,64,,,
42933,control_change,19,0,2,,,,,,,,,1,11,64,,,
42934,control_change,15,0,4,,,,,,,,,4,11,61,,,
42935,control_change,16,0,9,,,,,,,,,13,11,66,,,
42936,control_change,15,0,5,,,,,,,,,5,11,61,,,
42937,control_change,16,0,10,,,,,,,,,14,11,66,,,
42940,control_change,15,0,6,,,,,,,,,10,11,67,,,
42941,control_change,15,0,3,,,,,,,,,3,11,61,,,
42942,control_change,15,0,7,,,,,,,,,11,11,67,,,
42945,note_on,14,0,8,,,,,,,,,12,,,,65,0
42946,control_change,1,0,8,,,,,,,,,12,11,67,,,
42949,note_on,14,0,9,,,,,,,,,13,,,,49,0
42949,control_change,18,0,1,,,,,,,,,0,11,65,,,
42949,control_change,15,0,4,,,,,,,,,4,11,62,,,
42950,control_change,1,0,9,,,,,,,,,13,11,67,,,
42951,control_change,18,0,2,,,,,,,,,1,11,65,,,
42951,control_change,15,0,5,,,,,,,,,5,11,62,,,
42951,note_on,14,0,10,,,,,,,,,14,,,,37,0
42952,control_change,1,0,10,,,,,,,,,14,11,67,,,
42955,control_change,15,0,6,,,,,,,,,10,11,68,,,
42956,control_change,15,0,3,,,,,,,,,3,11,62,,,
42957,control_change,15,0,7,,,,,,,,,11,11,68,,,
42960,note_on,5,0,6,,,,,,,,,10,,,,83,110
42960,set_tempo,240,1,0,,,,,,267857,,,,,,,,
42961,control_change,15,0,8,,,,,,,,,12,11,68,,,
42962,note_on,5,0,7,,,,,,,,,11,,,,71,88
42963,note_on,0,0,1,,,,,,,,,0,,,,83,97
42963,note_on,14,0,1,,,,,,,,,0,,,,82,0
42964,control_change,15,0,4,,,,,,,,,4,11,62,,,
42965,note_on,14,0,2,,,,,,,,,1,,,,82,0
42965,note_on,0,0,2,,,,,,,,,1,,,,71,97
42965,note_on,0,0,2,,,,,,,,,1,,,,83,97
42965,note_on,0,0,2,,,,,,,,,1,,,,70,0
42965,control_change,15,0,9,,,,,,,,,13,11,68,,,
42966,control_change,15,0,5,,,,,,,,,5,11,62,,,
42966,note_on,5,0,8,,,,,,,,,12,,,,68,108
42967,control_change,15,0,10,,,,,,,,,14,11,68,,,
42968,control_change,5,0,1,,,,,,,,,0,11,66,,,
42970,note_on,5,0,9,,,,,,,,,13,,,,49,99
42970,control_change,10,0,6,,,,,,,,,10,11,68,,,
42970,control_change,5,0,2,,,,,,,,,1,11,66,,,
42971,control_change,15,0,3,,,,,,,,,3,11,62,,,
42972,note_on,5,0,10,,,,,,,,,14,,,,37,93
42972,control_change,10,0,7,,,,,,,,,11,11,68,,,
42976,control_change,10,0,8,,,,,,,,,12,11,68,,,
42979,control_change,15,0,4,,,,,,,,,4,11,63,,,
42980,control_change,10,0,9,,,,,,,,,13,11,68,,,
42981,control_change,15,0,5,,,,,,,,,5,11,63,,,
42982,control_change,10,0,10,,,,,,,,,14,11,68,,,
42986,control_change,15,0,3,,,,,,,,,3,11,63,,,
42986,control_change,16,0,6,,,,,,,,,10,11,69,,,
42987,control_change,19,0,1,,,,,,,,,0,11,66,,,
42988,control_change,16,0,7,,,,,,,,,11,11,69,,,
42989,control_change,19,0,2,,,,,,,,,1,11,66,,,
42992,control_change,16,0,8,,,,,,,,,12,11,69,,,
42994,control_change,15,0,4,,,,,,,,,4,11,64,,,
42996,control_change,15,0,5,,,,,,,,,5,11,64,,,
42996,control_change,16,0,9,,,,,,,,,13,11,69,,,
42998,control_change,16,0,10,,,,,,,,,14,11,69,,,
43001,control_change,15,0,6,,,,,,,,,10,11,70,,,
43001,control_change,15,0,3,,,,,,,,,3,11,64,,,
43003,control_change,15,0,7,,,,,,,,,11,11,70,,,
43005,note_on,13,0,8,,,,,,,,,12,,,,68,0
43005,control_change,18,0,1,,,,,,,,,0,11,67,,,
43007,control_change,2,0,8,,,,,,,,,12,11,70,,,
43007,control_change,18,0,2,,,,,,,,,1,11,67,,,
43009,note_on,13,0,9,,,,,,,,,13,,,,49,0
43009,control_change,15,0,4,,,,,,,,,4,11,64,,,
43011,control_change,2,0,9,,,,,,,,,13,11,70,,,
43011,control_change,15,0,5,,,,,,,,,5,11,64,,,
43011,note_on,13,0,10,,,,,,,,,14,,,,37,0
43013,control_change,2,0,10,,,,,,,,,14,11,70,,,
43016,control_change,15,0,3,,,,,,,,,3,11,64,,,
43016,control_change,15,0,6,,,,,,,,,10,11,71,,,
43018,control_change,15,0,7,,,,,,,,,11,11,71,,,
43022,control_change,15,0,8,,,,,,,,,12,11,71,,,
43024,control_change,15,0,4,,,,,,,,,4,11,65,,,
43024,control_change,19,0,1,,,,,,,,,0,11,68,,,
43026,note_on,4,0,8,,,,,,,,,12,,,,68,99
43026,control_change,19,0,2,,,,,,,,,1,11,68,,,
43026,control_change,15,0,9,,,,,,,,,13,11,71,,,
43026,control_change,15,0,5,,,,,,,,,5,11,65,,,
43027,note_on,11,0,6,,,,,,,,,10,,,,83,0
43028,control_change,15,0,10,,,,,,,,,14,11,71,,,
43029,note_on,11,0,7,,,,,,,,,11,,,,71,0
43030,note_on,4,0,9,,,,,,,,,13,,,,49,90
43031,control_change,15,0,3,,,,,,,,,3,11,65,,,
43032,note_on,4,0,10,,,,,,,,,14,,,,37,84
43032,control_change,5,0,6,,,,,,,,,10,11,71,,,
43034,control_change,5,0,7,,,,,,,,,11,11,71,,,
43038,control_change,12,0,8,,,,,,,,,12,11,71,,,
43039,control_change,15,0,4,,,,,,,,,4,11,66,,,
43041,control_change,15,0,5,,,,,,,,,5,11,66,,,
43042,control_change,12,0,9,,,,,,,,,13,11,71,,,
43043,control_change,19,0,1,,,,,,,,,0,11,68,,,
43044,control_change,12,0,10,,,,,,,,,14,11,71,,,
43045,control_change,19,0,2,,,,,,,,,1,11,68,,,
43046,control_change,15,0,3,,,,,,,,,3,11,66,,,
43047,control_change,15,0,6,,,,,,,,,10,11,72,,,
43049,control_change,15,0,7,,,,,,,,,11,11,72,,,
43053,control_change,15,0,8,,,,,,,,,12,11,72,,,
43054,control_change,15,0,4,,,,,,,,,4,11,66,,,
43056,control_change,15,0,5,,,,,,,,,5,11,66,,,
43057,control_change,15,0,9,,,,,,,,,13,11,72,,,
43059,control_change,15,0,10,,,,,,,,,14,11,72,,,
43061,control_change,18,0,1,,,,,,,,,0,11,69,,,
43061,control_change,15,0,3,,,,,,,,,3,11,66,,,
43062,control_change,15,0,6,,,,,,,,,10,11,73,,,
43063,control_change,18,0,2,,,,,,,,,1,11,69,,,
43064,control_change,15,0,7,,,,,,,,,11,11,73,,,
43065,note_on,12,0,8,,,,,,,,,12,,,,68,0
43068,control_change,3,0,8,,,,,,,,,12,11,73,,,
43069,note_on,12,0,9,,,,,,,,,13,,,,49,0
43069,control_change,15,0,4,,,,,,,,,4,11,67,,,
43071,note_on,12,0,10,,,,,,,,,14,,,,37,0
43071,control_change,15,0,5,,,,,,,,,5,11,67,,,
43072,control_change,3,0,9,,,,,,,,,13,11,73,,,
43074,control_change,3,0,10,,,,,,,,,14,11,73,,,
43076,control_change,15,0,3,,,,,,,,,3,11,67,,,
43077,control_change,15,0,6,,,,,,,,,10,11,73,,,
43079,control_change,15,0,7,,,,,,,,,11,11,73,,,
43080,control_change,19,0,1,,,,,,,,,0,11,70,,,
43080,note_on,3,0,6,,,,,,,,,10,,,,83,110
43082,control_change,19,0,2,,,,,,,,,1,11,70,,,
43082,note_on,3,0,7,,,,,,,,,11,,,,71,88
43083,control_change,15,0,8,,,,,,,,,12,11,73,,,
43084,control_change,15,0,4,,,,,,,,,4,11,68,,,
43086,control_change,15,0,5,,,,,,,,,5,11,68,,,
43086,note_on,3,0,8,,,,,,,,,12,,,,68,108
43087,control_change,15,0,9,,,,,,,,,13,11,73,,,
43089,control_change,15,0,10,,,,,,,,,14,11,73,,,
43090,note_on,3,0,9,,,,,,,,,13,,,,49,99
43091,control_change,15,0,3,,,,,,,,,3,11,68,,,
43092,note_on,3,0,10,,,,,,,,,14,,,,37,93
43093,control_change,13,0,6,,,,,,,,,10,11,74,,,
43095,control_change,13,0,7,,,,,,,,,11,11,74,,,
43099,control_change,19,0,1,,,,,,,,,0,11,71,,,
43099,control_change,15,0,4,,,,,,,,,4,11,68,,,
43099,control_change,13,0,8,,,,,,,,,12,11,74,,,
43101,control_change,19,0,2,,,,,,,,,1,11,71,,,
43101,control_change,15,0,5,,,,,,,,,5,11,68,,,
43103,control_change,13,0,9,,,,,,,,,13,11,74,,,
43105,control_change,13,0,10,,,,,,,,,14,11,74,,,
43106,control_change,15,0,3,,,,,,,,,3,11,68,,,
43108,control_change,15,0,6,,,,,,,,,10,11,75,,,
43110,control_change,15,0,7,,,,,,,,,11,11,75,,,
43114,control_change,15,0,8,,,,,,,,,12,11,75,,,
43114,control_change,15,0,4,,,,,,,,,4,11,69,,,
43116,control_change,15,0,5,,,,,,,,,5,11,69,,,
43117,control_change,18,0,1,,,,,,,,,0,11,71,,,
43118,control_change,15,0,9,,,,,,,,,13,11,75,,,
43119,control_change,18,0,2,,,,,,,,,1,11,71,,,
43120,control_change,15,0,10,,,,,,,,,14,11,75,,,
43121,control_change,15,0,3,,,,,,,,,3,11,69,,,
43123,control_change,15,0,6,,,,,,,,,10,11,75,,,
43125,control_change,15,0,7,,,,,,,,,11,11,75,,,
43125,note_on,11,0,8,,,,,,,,,12,,,,68,0
43129,note_on,11,0,9,,,,,,,,,13,,,,49,0
43129,control_change,15,0,4,,,,,,,,,4,11,70,,,
43129,control_change,4,0,8,,,,,,,,,12,11,75,,,
43131,note_on,11,0,10,,,,,,,,,14,,,,37,0
43131,control_change,15,0,5,,,,,,,,,5,11,70,,,
43133,control_change,4,0,9,,,,,,,,,13,11,75,,,
43135,control_change,4,0,10,,,,,,,,,14,11,75,,,
43136,control_change,19,0,1,,,,,,,,,0,11,72,,,
43136,control_change,15,0,3,,,,,,,,,3,11,70,,,
43138,control_change,19,0,2,,,,,,,,,1,11,72,,,
43138,control_change,15,0,6,,,,,,,,,10,11,76,,,
43140,control_change,15,0,7,,,,,,,,,11,11,76,,,
43144,control_change,15,0,4,,,,,,,,,4,11,71,,,
43144,control_change,15,0,8,,,,,,,,,12,11,76,,,
43146,control_change,15,0,5,,,,,,,,,5,11,71,,,
43146,note_on,2,0,8,,,,,,,,,12,,,,68,99
43147,note_on,9,0,6,,,,,,,,,10,,,,83,0
43148,control_change,15,0,9,,,,,,,,,13,11,76,,,
43149,note_on,9,0,7,,,,,,,,,11,,,,71,0
43150,control_change,15,0,10,,,,,,,,,14,11,76,,,
43150,note_on,2,0,9,,,,,,,,,13,,,,49,90
43151,control_change,15,0,3,,,,,,,,,3,11,71,,,
43152,note_on,2,0,10,,,,,,,,,14,,,,37,84
43154,control_change,7,0,6,,,,,,,,,10,11,77,,,
43155,control_change,19,0,1,,,,,,,,,0,11,73,,,
43156,control_change,7,0,7,,,,,,,,,11,11,77,,,
43157,control_change,19,0,2,,,,,,,,,1,11,73,,,
43159,control_change,15,0,4,,,,,,,,,4,11,71,,,
43160,control_change,14,0,8,,,,,,,,,12,11,77,,,
43161,control_change,15,0,5,,,,,,,,,5,11,71,,,
43164,control_change,14,0,9,,,,,,,,,13,11,77,,,
43166,control_change,15,0,3,,,,,,,,,3,11,71,,,
43166,control_change,14,0,10,,,,,,,,,14,11,77,,,
43169,control_change,15,0,6,,,,,,,,,10,11,77,,,
43171,control_change,15,0,7,,,,,,,,,11,11,77,,,
43173,control_change,18,0,1,,,,,,,,,0,11,73,,,
43174,control_change,15,0,4,,,,,,,,,4,11,72,,,
43175,control_change,15,0,8,,,,,,,,,12,11,77,,,
43175,control_change,18,0,2,,,,,,,,,1,11,73,,,
43176,control_change,15,0,5,,,,,,,,,5,11,72,,,
43179,control_change,15,0,9,,,,,,,,,13,11,77,,,
43181,control_change,15,0,10,,,,,,,,,14,11,77,,,
43181,control_change,15,0,3,,,,,,,,,3,11,72,,,
43184,control_change,15,0,6,,,,,,,,,10,11,78,,,
43185,note_on,10,0,8,,,,,,,,,12,,,,68,0
43186,control_change,15,0,7,,,,,,,,,11,11,78,,,
43189,note_on,10,0,9,,,,,,,,,13,,,,49,0
43189,control_change,15,0,4,,,,,,,,,4,11,73,,,
43190,control_change,5,0,8,,,,,,,,,12,11,78,,,
43191,note_on,10,0,10,,,,,,,,,14,,,,37,0
43191,control_change,15,0,5,,,,,,,,,5,11,73,,,
43192,control_change,19,0,1,,,,,,,,,0,11,74,,,
43194,control_change,5,0,9,,,,,,,,,13,11,78,,,
43194,control_change,19,0,2,,,,,,,,,1,11,74,,,
43196,control_change,15,0,3,,,,,,,,,3,11,73,,,
43196,control_change,5,0,10,,,,,,,,,14,11,78,,,
43200,set_tempo,240,1,0,,,,,,277136,,,,,,,,
43200,note_on,0,0,6,,,,,,,,,10,,,,84,110
43200,control_change,16,0,6,,,,,,,,,10,11,79,,,
43202,control_change,16,0,7,,,,,,,,,11,11,79,,,
43202,note_on,0,0,7,,,,,,,,,11,,,,72,88
43203,note_on,0,0,1,,,,,,,,,0,,,,84,97
43203,note_on,11,0,1,,,,,,,,,0,,,,83,0
43204,control_change,15,0,4,,,,,,,,,4,11,73,,,
43205,note_on,0,0,2,,,,,,,,,1,,,,72,97
43205,note_on,11,0,2,,,,,,,,,1,,,,71,0
43205,note_on,0,0,2,,,,,,,,,1,,,,83,0
43205,note_on,0,0,2,,,,,,,,,1,,,,81,97
43206,control_change,15,0,5,,,,,,,,,5,11,73,,,
43206,note_on,0,0,8,,,,,,,,,12,,,,69,108
43206,control_change,16,0,8,,,,,,,,,12,11,79,,,
43208,control_change,8,0,6,,,,,,,,,10,11,75,,,
43210,note_on,0,0,9,,,,,,,,,13,,,,48,99
43210,control_change,8,0,7,,,,,,,,,11,11,75,,,
43210,control_change,16,0,9,,,,,,,,,13,11,79,,,
43211,note_on,15,0,3,,,,,,,,,3,,,,49,0
43211,control_change,0,0,3,,,,,,,,,3,11,73,,,
43211,note_on,0,0,3,,,,,,,,,3,,,,48,97
43211,control_change,8,0,1,,,,,,,,,0,11,75,,,
43212,note_on,0,0,10,,,,,,,,,14,,,,36,93
43212,control_change,16,0,10,,,,,,,,,14,11,79,,,
43213,control_change,8,0,2,,,,,,,,,1,11,75,,,
43214,control_change,8,0,8,,,,,,,,,12,11,75,,,
43218,control_change,8,0,9,,,,,,,,,13,11,75,,,
43219,control_change,15,0,4,,,,,,,,,4,11,74,,,
43220,control_change,8,0,10,,,,,,,,,14,11,75,,,
43221,control_change,15,0,5,,,,,,,,,5,11,74,,,
43226,control_change,15,0,3,,,,,,,,,3,11,74,,,
43226,control_change,18,0,6,,,,,,,,,10,11,75,,,
43228,control_change,18,0,7,,,,,,,,,11,11,75,,,
43229,control_change,18,0,1,,,,,,,,,0,11,75,,,
43231,control_change,18,0,2,,,,,,,,,1,11,75,,,
43232,control_change,18,0,8,,,,,,,,,12,11,75,,,
43234,control_change,15,0,4,,,,,,,,,4,11,75,,,
43236,control_change,15,0,5,,,,,,,,,5,11,75,,,
43236,control_change,18,0,9,,,,,,,,,13,11,75,,,
43238,control_change,18,0,10,,,,,,,,,14,11,75,,,
43241,control_change,15,0,3,,,,,,,,,3,11,75,,,
43245,control_change,19,0,6,,,,,,,,,10,11,76,,,
43247,control_change,19,0,7,,,,,,,,,11,11,76,,,
43248,control_change,19,0,1,,,,,,,,,0,11,76,,,
43249,control_change,15,0,4,,,,,,,,,4,11,75,,,
43250,control_change,19,0,2,,,,,,,,,1,11,76,,,
43251,control_change,15,0,5,,,,,,,,,5,11,75,,,
43251,control_change,19,0,8,,,,,,,,,12,11,76,,,
43255,control_change,19,0,9,,,,,,,,,13,11,76,,,
43256,control_change,15,0,3,,,,,,,,,3,11,75,,,
43257,control_change,19,0,10,,,,,,,,,14,11,76,,,
43264,control_change,19,0,6,,,,,,,,,10,11,77,,,
43264,control_change,15,0,4,,,,,,,,,4,11,76,,,
43266,control_change,19,0,7,,,,,,,,,11,11,77,,,
43266,control_change,15,0,5,,,,,,,,,5,11,76,,,
43267,control_change,19,0,1,,,,,,,,,0,11,77,,,
43267,note_on,3,0,6,,,,,,,,,10,,,,84,0
43269,note_on,3,0,7,,,,,,,,,11,,,,72,0
43269,control_change,19,0,2,,,,,,,,,1,11,77,,,
43270,control_change,19,0,8,,,,,,,,,12,11,77,,,
43271,control_change,15,0,3,,,,,,,,,3,11,76,,,
43274,control_change,19,0,9,,,,,,,,,13,11,77,,,
43276,control_change,19,0,10,,,,,,,,,14,11,77,,,
43279,control_change,15,0,4,,,,,,,,,4,11,77,,,
43281,control_change,15,0,5,,,,,,,,,5,11,77,,,
43282,control_change,15,0,6,,,,,,,,,10,11,77,,,
43284,control_change,15,0,7,,,,,,,,,11,11,77,,,
43285,control_change,18,0,1,,,,,,,,,0,11,77,,,
43286,control_change,15,0,3,,,,,,,,,3,11,77,,,
43287,control_change,18,0,2,,,,,,,,,1,11,77,,,
43288,control_change,18,0,8,,,,,,,,,12,11,77,,,
43292,control_change,18,0,9,,,,,,,,,13,11,77,,,
43294,control_change,15,0,4,,,,,,,,,4,11,77,,,
43294,control_change,18,0,10,,,,,,,,,14,11,77,,,
43296,control_change,15,0,5,,,,,,,,,5,11,77,,,
43301,control_change,15,0,3,,,,,,,,,3,11,77,,,
43301,control_change,19,0,6,,,,,,,,,10,11,78,,,
43303,control_change,19,0,7,,,,,,,,,11,11,78,,,
43304,control_change,19,0,1,,,,,,,,,0,11,78,,,
43306,control_change,19,0,2,,,,,,,,,1,11,78,,,
43307,control_change,19,0,8,,,,,,,,,12,11,78,,,
43309,control_change,15,0,4,,,,,,,,,4,11,78,,,
43311,control_change,19,0,9,,,,,,,,,13,11,78,,,
43311,control_change,15,0,5,,,,,,,,,5,11,78,,,
43313,control_change,19,0,10,,,,,,,,,14,11,78,,,
43316,control_change,15,0,3,,,,,,,,,3,11,78,,,
43318,note_on,14,0,1,,,,,,,,,0,,,,84,0
43320,note_on,0,0,6,,,,,,,,,10,,,,89,125
43320,note_on,0,0,2,,,,,,,,,1,,,,81,0
43320,note_on,14,0,2,,,,,,,,,1,,,,72,0
43320,control_change,19,0,6,,,,,,,,,10,11,79,,,
43321,note_on,14,0,8,,,,,,,,,12,,,,69,0
43322,control_change,19,0,7,,,,,,,,,11,11,79,,,
43322,note_on,0,0,7,,,,,,,,,11,,,,69,100
43322,note_on,0,0,7,,,,,,,,,11,,,,77,100
43323,note_on,0,0,1,,,,,,,,,0,,,,89,110
43323,control_change,5,0,1,,,,,,,,,0,11,79,,,
43324,note_on,15,0,4,,,,,,,,,4,,,,65,0
43324,note_on,0,0,4,,,,,,,,,4,,,,60,109
43324,control_change,0,0,4,,,,,,,,,4,11,79,,,
43325,note_on,14,0,9,,,,,,,,,13,,,,48,0
43325,note_on,0,0,2,,,,,,,,,1,,,,77,110
43325,note_on,0,0,2,,,,,,,,,1,,,,81,110
43325,control_change,5,0,2,,,,,,,,,1,11,79,,,
43326,note_on,0,0,8,,,,,,,,,12,,,,69,123
43326,note_on,0,0,5,,,,,,,,,5,,,,60,109
43326,control_change,0,0,5,,,,,,,,,5,11,79,,,
43326,note_on,0,0,8,,,,,,,,,12,,,,65,123
43326,note_on,10,0,3,,,,,,,,,3,,,,48,0
43326,control_change,5,0,8,,,,,,,,,12,11,79,,,
43326,note_on,15,0,5,,,,,,,,,5,,,,53,0
43327,note_on,14,0,10,,,,,,,,,14,,,,36,0
43330,control_change,5,0,9,,,,,,,,,13,11,79,,,
43330,note_on,0,0,9,,,,,,,,,13,,,,60,114
43331,control_change,5,0,3,,,,,,,,,3,11,79,,,
43331,note_on,0,0,3,,,,,,,,,3,,,,48,110
43331,note_on,0,0,3,,,,,,,,,3,,,,60,110
43332,control_change,5,0,10,,,,,,,,,14,11,79,,,
43332,note_on,0,0,10,,,,,,,,,14,,,,48,108
43380,control_change,60,0,6,,,,,,,,,10,11,79,,,
43382,control_change,60,0,7,,,,,,,,,11,11,79,,,
43383,control_change,60,0,1,,,,,,,,,0,11,79,,,
43384,control_change,60,0,4,,,,,,,,,4,11,79,,,
43385,control_change,60,0,2,,,,,,,,,1,11,79,,,
43386,control_change,60,0,8,,,,,,,,,12,11,79,,,
43386,control_change,60,0,5,,,,,,,,,5,11,79,,,
43390,control_change,60,0,9,,,,,,,,,13,11,79,,,
43391,control_change,60,0,3,,,,,,,,,3,11,79,,,
43392,control_change,60,0,10,,,,,,,,,14,11,79,,,
43402,control_change,22,0,6,,,,,,,,,10,11,77,,,
43404,control_change,22,0,7,,,,,,,,,11,11,77,,,
43405,control_change,22,0,1,,,,,,,,,0,11,77,,,
43406,control_change,22,0,4,,,,,,,,,4,11,77,,,
43407,control_change,22,0,2,,,,,,,,,1,11,77,,,
43408,control_change,22,0,5,,,,,,,,,5,11,77,,,
43408,control_change,22,0,8,,,,,,,,,12,11,77,,,
43412,control_change,22,0,9,,,,,,,,,13,11,77,,,
43413,control_change,22,0,3,,,,,,,,,3,11,77,,,
43414,control_change,22,0,10,,,,,,,,,14,11,77,,,
43417,control_change,15,0,6,,,,,,,,,10,11,75,,,
43419,control_change,15,0,7,,,,,,,,,11,11,75,,,
43420,control_change,15,0,1,,,,,,,,,0,11,75,,,
43421,control_change,15,0,4,,,,,,,,,4,11,75,,,
43422,control_change,15,0,2,,,,,,,,,1,11,75,,,
43423,control_change,15,0,8,,,,,,,,,12,11,75,,,
43423,control_change,15,0,5,,,,,,,,,5,11,75,,,
43427,control_change,15,0,9,,,,,,,,,13,11,75,,,
43428,control_change,15,0,3,,,,,,,,,3,11,75,,,
43429,control_change,15,0,10,,,,,,,,,14,11,75,,,
43432,control_change,15,0,6,,,,,,,,,10,11,74,,,
43434,control_change,15,0,7,,,,,,,,,11,11,74,,,
43435,control_change,15,0,1,,,,,,,,,0,11,74,,,
43436,control_change,15,0,4,,,,,,,,,4,11,74,,,
43437,control_change,15,0,2,,,,,,,,,1,11,74,,,
43438,control_change,15,0,8,,,,,,,,,12,11,74,,,
43438,control_change,15,0,5,,,,,,,,,5,11,74,,,
43440,set_tempo,240,1,0,,,,,,265487,,,,,,,,
43442,control_change,15,0,9,,,,,,,,,13,11,74,,,
43443,control_change,15,0,3,,,,,,,,,3,11,74,,,
43444,control_change,15,0,10,,,,,,,,,14,11,74,,,
43447,control_change,15,0,6,,,,,,,,,10,11,73,,,
43449,control_change,15,0,7,,,,,,,,,11,11,73,,,
43450,control_change,15,0,1,,,,,,,,,0,11,73,,,
43451,control_change,15,0,4,,,,,,,,,4,11,73,,,
43452,control_change,15,0,2,,,,,,,,,1,11,73,,,
43453,control_change,15,0,5,,,,,,,,,5,11,73,,,
43453,control_change,15,0,8,,,,,,,,,12,11,73,,,
43457,control_change,15,0,9,,,,,,,,,13,11,73,,,
43458,control_change,15,0,3,,,,,,,,,3,11,73,,,
43459,control_change,15,0,10,,,,,,,,,14,11,73,,,
43469,control_change,22,0,6,,,,,,,,,10,11,71,,,
43471,control_change,22,0,7,,,,,,,,,11,11,71,,,
43472,control_change,22,0,1,,,,,,,,,0,11,71,,,
43473,control_change,22,0,4,,,,,,,,,4,11,71,,,
43474,control_change,22,0,2,,,,,,,,,1,11,71,,,
43475,control_change,22,0,5,,,,,,,,,5,11,71,,,
43475,control_change,22,0,8,,,,,,,,,12,11,71,,,
43479,control_change,22,0,9,,,,,,,,,13,11,71,,,
43480,control_change,22,0,3,,,,,,,,,3,11,71,,,
43481,control_change,22,0,10,,,,,,,,,14,11,71,,,
43484,control_change,15,0,6,,,,,,,,,10,11,69,,,
43486,control_change,15,0,7,,,,,,,,,11,11,69,,,
43487,control_change,15,0,1,,,,,,,,,0,11,69,,,
43488,control_change,15,0,4,,,,,,,,,4,11,69,,,
43489,control_change,15,0,2,,,,,,,,,1,11,69,,,
43490,control_change,15,0,5,,,,,,,,,5,11,69,,,
43490,control_change,15,0,8,,,,,,,,,12,11,69,,,
43494,control_change,15,0,9,,,,,,,,,13,11,69,,,
43495,control_change,15,0,3,,,,,,,,,3,11,69,,,
43496,control_change,15,0,10,,,,,,,,,14,11,69,,,
43499,control_change,15,0,6,,,,,,,,,10,11,68,,,
43501,control_change,15,0,7,,,,,,,,,11,11,68,,,
43502,control_change,15,0,1,,,,,,,,,0,11,68,,,
43503,control_change,15,0,4,,,,,,,,,4,11,68,,,
43504,control_change,15,0,2,,,,,,,,,1,11,68,,,
43505,control_change,15,0,8,,,,,,,,,12,11,68,,,
43505,control_change,15,0,5,,,,,,,,,5,11,68,,,
43509,control_change,15,0,9,,,,,,,,,13,11,68,,,
43510,control_change,15,0,3,,,,,,,,,3,11,68,,,
43511,control_change,15,0,10,,,,,,,,,14,11,68,,,
43514,control_change,15,0,6,,,,,,,,,10,11,66,,,
43516,control_change,15,0,7,,,,,,,,,11,11,66,,,
43517,control_change,15,0,1,,,,,,,,,0,11,66,,,
43518,control_change,15,0,4,,,,,,,,,4,11,66,,,
43519,control_change,15,0,2,,,,,,,,,1,11,66,,,
43520,control_change,15,0,5,,,,,,,,,5,11,66,,,
43520,control_change,15,0,8,,,,,,,,,12,11,66,,,
43524,control_change,15,0,9,,,,,,,,,13,11,66,,,
43525,control_change,15,0,3,,,,,,,,,3,11,66,,,
43526,control_change,15,0,10,,,,,,,,,14,11,66,,,
43529,control_change,15,0,6,,,,,,,,,10,11,65,,,
43531,control_change,15,0,7,,,,,,,,,11,11,65,,,
43532,control_change,15,0,1,,,,,,,,,0,11,65,,,
43533,control_change,15,0,4,,,,,,,,,4,11,65,,,
43534,control_change,15,0,2,,,,,,,,,1,11,65,,,
43535,control_change,15,0,8,,,,,,,,,12,11,65,,,
43535,control_change,15,0,5,,,,,,,,,5,11,65,,,
43539,control_change,15,0,9,,,,,,,,,13,11,65,,,
43540,control_change,15,0,3,,,,,,,,,3,11,65,,,
43541,control_change,15,0,10,,,,,,,,,14,11,65,,,
43543,control_change,14,0,6,,,,,,,,,10,11,69,,,
43545,control_change,14,0,7,,,,,,,,,11,11,69,,,
43546,control_change,14,0,1,,,,,,,,,0,11,69,,,
43547,control_change,14,0,4,,,,,,,,,4,11,69,,,
43548,control_change,14,0,2,,,,,,,,,1,11,69,,,
43549,control_change,14,0,5,,,,,,,,,5,11,69,,,
43549,control_change,14,0,8,,,,,,,,,12,11,69,,,
43553,control_change,14,0,9,,,,,,,,,13,11,69,,,
43554,control_change,14,0,3,,,,,,,,,3,11,69,,,
43555,control_change,14,0,10,,,,,,,,,14,11,69,,,
43555,note_on,12,0,6,,,,,,,,,10,,,,89,0
43556,control_change,1,0,6,,,,,,,,,10,11,73,,,
43557,note_on,12,0,7,,,,,,,,,11,,,,69,0
43557,note_on,0,0,7,,,,,,,,,11,,,,77,0
43558,control_change,1,0,7,,,,,,,,,11,11,73,,,
43558,note_on,12,0,1,,,,,,,,,0,,,,89,0
43559,note_on,12,0,4,,,,,,,,,4,,,,60,0
43559,control_change,1,0,1,,,,,,,,,0,11,73,,,
43560,note_on,12,0,2,,,,,,,,,1,,,,77,0
43560,note_on,4,0,6,,,,,,,,,10,,,,84,110
43560,control_change,1,0,4,,,,,,,,,4,11,73,,,
43560,note_on,0,0,2,,,,,,,,,1,,,,81,0
43561,control_change,1,0,2,,,,,,,,,1,11,73,,,
43561,note_on,12,0,5,,,,,,,,,5,,,,60,0
43561,note_on,12,0,8,,,,,,,,,12,,,,65,0
43561,note_on,0,0,8,,,,,,,,,12,,,,69,0
43562,control_change,1,0,8,,,,,,,,,12,11,73,,,
43562,control_change,1,0,5,,,,,,,,,5,11,73,,,
43562,note_on,4,0,7,,,,,,,,,11,,,,72,88
43563,note_on,4,0,1,,,,,,,,,0,,,,84,110
43564,note_on,4,0,4,,,,,,,,,4,,,,60,96
43565,note_on,4,0,2,,,,,,,,,1,,,,81,97
43565,note_on,0,0,2,,,,,,,,,1,,,,77,97
43565,note_on,12,0,9,,,,,,,,,13,,,,60,0
43566,note_on,12,0,3,,,,,,,,,3,,,,48,0
43566,note_on,0,0,3,,,,,,,,,3,,,,60,0
43566,note_on,4,0,8,,,,,,,,,12,,,,60,108
43566,note_on,4,0,5,,,,,,,,,5,,,,60,96
43566,control_change,1,0,9,,,,,,,,,13,11,73,,,
43567,control_change,1,0,3,,,,,,,,,3,11,73,,,
43567,note_on,12,0,10,,,,,,,,,14,,,,48,0
43568,control_change,1,0,10,,,,,,,,,14,11,73,,,
43569,control_change,9,0,6,,,,,,,,,10,11,77,,,
43570,note_on,4,0,9,,,,,,,,,13,,,,57,99
43571,control_change,9,0,7,,,,,,,,,11,11,77,,,
43571,note_on,0,0,3,,,,,,,,,3,,,,57,97
43571,note_on,4,0,3,,,,,,,,,3,,,,45,97
43572,control_change,9,0,1,,,,,,,,,0,11,77,,,
43572,note_on,4,0,10,,,,,,,,,14,,,,45,93
43573,control_change,9,0,4,,,,,,,,,4,11,77,,,
43574,control_change,9,0,2,,,,,,,,,1,11,77,,,
43575,control_change,9,0,5,,,,,,,,,5,11,77,,,
43575,control_change,9,0,8,,,,,,,,,12,11,77,,,
43579,control_change,9,0,9,,,,,,,,,13,11,77,,,
43580,control_change,9,0,3,,,,,,,,,3,11,77,,,
43581,control_change,9,0,10,,,,,,,,,14,11,77,,,
43620,note_on,0,0,6,,,,,,,,,10,,,,81,110
43620,note_on,51,0,6,,,,,,,,,10,,,,84,0
43622,note_on,51,0,7,,,,,,,,,11,,,,72,0
43622,note_on,0,0,7,,,,,,,,,11,,,,69,88
43623,note_on,0,0,1,,,,,,,,,0,,,,81,110
43623,note_on,51,0,1,,,,,,,,,0,,,,84,0
43659,note_on,39,0,6,,,,,,,,,10,,,,81,0
43661,note_on,39,0,7,,,,,,,,,11,,,,69,0
43674,note_on,101,0,4,,,,,,,,,4,,,,60,0
43675,note_on,0,0,2,,,,,,,,,1,,,,81,0
43675,note_on,101,0,2,,,,,,,,,1,,,,77,0
43676,note_on,101,0,5,,,,,,,,,5,,,,60,0
43678,note_on,55,0,1,,,,,,,,,0,,,,81,0
43680,set_tempo,240,1,0,,,,,,274600,,,,,,,,
43680,note_on,21,0,6,,,,,,,,,10,,,,79,110
43681,note_on,106,0,8,,,,,,,,,12,,,,60,0
43681,note_on,101,0,3,,,,,,,,,3,,,,57,0
43681,note_on,0,0,3,,,,,,,,,3,,,,45,0
43682,note_on,21,0,7,,,,,,,,,11,,,,67,88
43683,note_on,5,0,1,,,,,,,,,0,,,,79,97
43684,note_on,10,0,4,,,,,,,,,4,,,,62,96
43685,note_on,106,0,9,,,,,,,,,13,,,,57,0
43685,note_on,0,0,2,,,,,,,,,1,,,,79,97
43685,note_on,10,0,2,,,,,,,,,1,,,,77,97
43686,note_on,10,0,5,,,,,,,,,5,,,,58,96
43686,note_on,5,0,8,,,,,,,,,12,,,,62,108
43687,note_on,106,0,10,,,,,,,,,14,,,,45,0
43690,note_on,5,0,9,,,,,,,,,13,,,,58,99
43691,note_on,0,0,3,,,,,,,,,3,,,,46,97
43691,note_on,10,0,3,,,,,,,,,3,,,,58,97
43692,note_on,5,0,10,,,,,,,,,14,,,,46,93
43740,note_on,0,0,6,,,,,,,,,10,,,,81,110
43740,note_on,60,0,6,,,,,,,,,10,,,,79,0
43742,note_on,0,0,7,,,,,,,,,11,,,,69,88
43742,note_on,60,0,7,,,,,,,,,11,,,,67,0
43779,note_on,39,0,6,,,,,,,,,10,,,,81,0
43781,note_on,39,0,7,,,,,,,,,11,,,,69,0
43793,note_on,110,0,1,,,,,,,,,0,,,,79,0
43794,note_on,110,0,4,,,,,,,,,4,,,,62,0
43795,note_on,0,0,2,,,,,,,,,1,,,,77,0
43795,note_on,110,0,2,,,,,,,,,1,,,,79,0
43796,note_on,110,0,5,,,,,,,,,5,,,,58,0
43800,note_on,21,0,6,,,,,,,,,10,,,,82,110
43801,note_on,115,0,8,,,,,,,,,12,,,,62,0
43801,note_on,110,0,3,,,,,,,,,3,,,,46,0
43801,note_on,0,0,3,,,,,,,,,3,,,,58,0
43802,note_on,21,0,7,,,,,,,,,11,,,,70,88
43803,note_on,10,0,1,,,,,,,,,0,,,,79,97
43804,note_on,10,0,4,,,,,,,,,4,,,,62,96
43805,note_on,0,0,2,,,,,,,,,1,,,,77,97
43805,note_on,10,0,2,,,,,,,,,1,,,,79,97
43805,note_on,115,0,9,,,,,,,,,13,,,,58,0
43806,note_on,5,0,8,,,,,,,,,12,,,,62,108
43806,note_on,10,0,5,,,,,,,,,5,,,,58,96
43807,note_on,115,0,10,,,,,,,,,14,,,,46,0
43810,note_on,5,0,9,,,,,,,,,13,,,,58,99
43811,note_on,10,0,3,,,,,,,,,3,,,,58,97
43811,note_on,0,0,3,,,,,,,,,3,,,,46,97
43812,note_on,5,0,10,,,,,,,,,14,,,,46,93
43835,note_on,35,0,6,,,,,,,,,10,,,,82,0
43837,note_on,35,0,7,,,,,,,,,11,,,,70,0
43860,note_on,25,0,6,,,,,,,,,10,,,,86,110
43862,note_on,25,0,7,,,,,,,,,11,,,,74,88
43895,note_on,35,0,6,,,,,,,,,10,,,,86,0
43897,note_on,35,0,7,,,,,,,,,11,,,,74,0
43913,note_on,110,0,1,,,,,,,,,0,,,,79,0
43914,note_on,110,0,4,,,,,,,,,4,,,,62,0
43915,note_on,0,0,2,,,,,,,,,1,,,,79,0
43915,note_on,110,0,2,,,,,,,,,1,,,,77,0
43916,note_on,110,0,5,,,,,,,,,5,,,,58,0
43920,set_tempo,240,1,0,,,,,,264901,,,,,,,,
43920,note_on,25,0,6,,,,,,,,,10,,,,84,110
43921,note_on,0,0,3,,,,,,,,,3,,,,58,0
43921,note_on,110,0,3,,,,,,,,,3,,,,46,0
43921,note_on,115,0,8,,,,,,,,,12,,,,62,0
43922,note_on,25,0,7,,,,,,,,,11,,,,72,88
43923,note_on,10,0,1,,,,,,,,,0,,,,84,97
43924,note_on,10,0,4,,,,,,,,,4,,,,60,96
43925,note_on,0,0,2,,,,,,,,,1,,,,76,97
43925,note_on,115,0,9,,,,,,,,,13,,,,58,0
43925,note_on,10,0,2,,,,,,,,,1,,,,84,97
43926,note_on,5,0,8,,,,,,,,,12,,,,64,108
43926,note_on,10,0,5,,,,,,,,,5,,,,60,96
43927,note_on,115,0,10,,,,,,,,,14,,,,46,0
43930,note_on,5,0,9,,,,,,,,,13,,,,60,99
43931,note_on,10,0,3,,,,,,,,,3,,,,48,97
43931,note_on,0,0,3,,,,,,,,,3,,,,60,97
43932,note_on,5,0,10,,,,,,,,,14,,,,48,93
43980,note_on,0,0,6,,,,,,,,,10,,,,82,110
43980,note_on,60,0,6,,,,,,,,,10,,,,84,0
43982,note_on,60,0,7,,,,,,,,,11,,,,72,0
43982,note_on,0,0,7,,,,,,,,,11,,,,70,88
44019,note_on,39,0,6,,,,,,,,,10,,,,82,0
44021,note_on,39,0,7,,,,,,,,,11,,,,70,0
44033,note_on,110,0,1,,,,,,,,,0,,,,84,0
44034,note_on,110,0,4,,,,,,,,,4,,,,60,0
44035,note_on,110,0,2,,,,,,,,,1,,,,76,0
44035,note_on,0,0,2,,,,,,,,,1,,,,84,0
44036,note_on,110,0,5,,,,,,,,,5,,,,60,0
44040,note_on,21,0,6,,,,,,,,,10,,,,81,110
44041,note_on,0,0,3,,,,,,,,,3,,,,48,0
44041,note_on,110,0,3,,,,,,,,,3,,,,60,0
44041,note_on,115,0,8,,,,,,,,,12,,,,64,0
44042,note_on,21,0,7,,,,,,,,,11,,,,69,88
44043,note_on,10,0,1,,,,,,,,,0,,,,84,97
44044,note_on,10,0,4,,,,,,,,,4,,,,60,96
44045,note_on,115,0,9,,,,,,,,,13,,,,60,0
44045,note_on,0,0,2,,,,,,,,,1,,,,84,97
44045,note_on,10,0,2,,,,,,,,,1,,,,76,97
44046,note_on,5,0,8,,,,,,,,,12,,,,64,108
44046,note_on,10,0,5,,,,,,,,,5,,,,60,96
44047,note_on,115,0,10,,,,,,,,,14,,,,48,0
44050,note_on,5,0,9,,,,,,,,,13,,,,60,99
44051,note_on,10,0,3,,,,,,,,,3,,,,48,97
44051,note_on,0,0,3,,,,,,,,,3,,,,60,97
44052,note_on,5,0,10,,,,,,,,,14,,,,48,93
44075,note_on,35,0,6,,,,,,,,,10,,,,81,0
44077,note_on,35,0,7,,,,,,,,,11,,,,69,0
44100,set_tempo,180,1,0,,,,,,330579,,,,,,,,
44100,note_on,25,0,6,,,,,,,,,10,,,,79,110
44102,note_on,25,0,7,,,,,,,,,11,,,,67,88
44135,note_on,35,0,6,,,,,,,,,10,,,,79,0
44137,note_on,35,0,7,,,,,,,,,11,,,,67,0
44153,note_on,110,0,1,,,,,,,,,0,,,,84,0
44154,note_on,110,0,4,,,,,,,,,4,,,,60,0
44155,note_on,0,0,2,,,,,,,,,1,,,,76,0
44155,note_on,110,0,2,,,,,,,,,1,,,,84,0
44156,note_on,110,0,5,,,,,,,,,5,,,,60,0
44160,note_on,0,0,6,,,,,,,,,10,,,,77,110
44160,set_tempo,60,1,0,,,,,,272727,,,,,,,,
44160,control_change,25,0,6,,,,,,,,,10,11,79,,,
44161,note_on,115,0,8,,,,,,,,,12,,,,64,0
44161,note_on,110,0,3,,,,,,,,,3,,,,60,0
44161,note_on,0,0,3,,,,,,,,,3,,,,48,0
44162,control_change,25,0,7,,,,,,,,,11,11,79,,,
44162,note_on,0,0,7,,,,,,,,,11,,,,69,110
44163,note_on,0,0,1,,,,,,,,,0,,,,89,97
44163,control_change,10,0,1,,,,,,,,,0,11,89,,,
44164,note_on,0,0,4,,,,,,,,,4,,,,65,96
44164,control_change,10,0,4,,,,,,,,,4,11,89,,,
44165,control_change,10,0,2,,,,,,,,,1,11,89,,,
44165,note_on,0,0,2,,,,,,,,,1,,,,81,97
44165,note_on,0,0,2,,,,,,,,,1,,,,69,97
44165,note_on,115,0,9,,,,,,,,,13,,,,60,0
44166,control_change,5,0,8,,,,,,,,,12,11,79,,,
44166,note_on,0,0,8,,,,,,,,,12,,,,65,108
44166,note_on,0,0,5,,,,,,,,,5,,,,53,96
44166,control_change,10,0,5,,,,,,,,,5,11,89,,,
44167,note_on,115,0,10,,,,,,,,,14,,,,48,0
44170,note_on,0,0,9,,,,,,,,,13,,,,53,99
44170,control_change,5,0,9,,,,,,,,,13,11,79,,,
44171,control_change,10,0,3,,,,,,,,,3,11,89,,,
44171,note_on,0,0,3,,,,,,,,,3,,,,53,97
44172,control_change,5,0,10,,,,,,,,,14,11,79,,,
44172,note_on,0,0,10,,,,,,,,,14,,,,41,93
44184,control_change,24,0,6,,,,,,,,,10,11,83,,,
44186,control_change,24,0,7,,,,,,,,,11,11,83,,,
44190,control_change,24,0,8,,,,,,,,,12,11,83,,,
44194,control_change,24,0,9,,,,,,,,,13,11,83,,,
44196,control_change,24,0,10,,,,,,,,,14,11,83,,,
44199,note_on,15,0,6,,,,,,,,,10,,,,77,0
44201,note_on,15,0,7,,,,,,,,,11,,,,69,0
44205,note_on,15,0,8,,,,,,,,,12,,,,65,0
44208,control_change,9,0,6,,,,,,,,,10,11,87,,,
44210,control_change,9,0,7,,,,,,,,,11,11,87,,,
44214,control_change,9,0,8,,,,,,,,,12,11,87,,,
44218,control_change,24,0,9,,,,,,,,,13,11,87,,,
44220,note_on,12,0,6,,,,,,,,,10,,,,77,101
44220,control_change,24,0,10,,,,,,,,,14,11,87,,,
44222,note_on,12,0,7,,,,,,,,,11,,,,69,101
44226,note_on,12,0,8,,,,,,,,,12,,,,53,99
44259,note_on,39,0,6,,,,,,,,,10,,,,77,0
44261,note_on,39,0,7,,,,,,,,,11,,,,69,0
44265,note_on,39,0,8,,,,,,,,,12,,,,53,0
44280,note_on,21,0,6,,,,,,,,,10,,,,77,110
44282,note_on,21,0,7,,,,,,,,,11,,,,69,110
44286,note_on,21,0,8,,,,,,,,,12,,,,53,108
44319,note_on,39,0,6,,,,,,,,,10,,,,77,0
44321,note_on,39,0,7,,,,,,,,,11,,,,69,0
44325,note_on,39,0,8,,,,,,,,,12,,,,53,0
44340,note_on,21,0,6,,,,,,,,,10,,,,77,101
44342,note_on,21,0,7,,,,,,,,,11,,,,69,101
44346,note_on,21,0,8,,,,,,,,,12,,,,53,99
44379,note_on,39,0,6,,,,,,,,,10,,,,77,0
44381,note_on,39,0,7,,,,,,,,,11,,,,69,0
44385,note_on,39,0,8,,,,,,,,,12,,,,53,0
44394,note_on,230,0,4,,,,,,,,,4,,,,65,0
44396,note_on,230,0,5,,,,,,,,,5,,,,53,0
44398,note_on,235,0,1,,,,,,,,,0,,,,89,0
44400,set_tempo,240,1,0,,,,,,261438,,,,,,,,
44400,note_on,235,0,2,,,,,,,,,1,,,,69,0
44400,note_on,0,0,2,,,,,,,,,1,,,,81,0
44400,note_on,21,0,6,,,,,,,,,10,,,,77,110
44401,note_on,230,0,3,,,,,,,,,3,,,,53,0
44402,note_on,21,0,7,,,,,,,,,11,,,,70,110
44403,note_on,5,0,1,,,,,,,,,0,,,,89,97
44404,note_on,10,0,4,,,,,,,,,4,,,,65,96
44405,note_on,0,0,2,,,,,,,,,1,,,,70,97
44405,note_on,5,0,2,,,,,,,,,1,,,,82,97
44405,note_on,187,0,9,,,,,,,,,13,,,,53,0
44406,note_on,10,0,5,,,,,,,,,5,,,,53,96
44406,note_on,21,0,8,,,,,,,,,12,,,,55,108
44407,note_on,187,0,10,,,,,,,,,14,,,,41,0
44410,note_on,5,0,9,,,,,,,,,13,,,,55,99
44411,note_on,10,0,3,,,,,,,,,3,,,,55,97
44412,note_on,5,0,10,,,,,,,,,14,,,,43,93
44439,note_on,39,0,6,,,,,,,,,10,,,,77,0
44441,note_on,39,0,7,,,,,,,,,11,,,,70,0
44445,note_on,39,0,8,,,,,,,,,12,,,,55,0
44460,note_on,21,0,6,,,,,,,,,10,,,,77,101
44462,note_on,21,0,7,,,,,,,,,11,,,,70,101
44466,note_on,21,0,8,,,,,,,,,12,,,,55,99
44499,note_on,39,0,6,,,,,,,,,10,,,,77,0
44501,note_on,39,0,7,,,,,,,,,11,,,,70,0
44505,note_on,39,0,8,,,,,,,,,12,,,,55,0
44520,note_on,21,0,6,,,,,,,,,10,,,,77,110
44522,note_on,21,0,7,,,,,,,,,11,,,,70,110
44526,note_on,21,0,8,,,,,,,,,12,,,,55,108
44559,note_on,39,0,6,,,,,,,,,10,,,,77,0
44561,note_on,39,0,7,,,,,,,,,11,,,,70,0
44565,note_on,39,0,8,,,,,,,,,12,,,,55,0
44580,note_on,21,0,6,,,,,,,,,10,,,,77,101
44582,note_on,21,0,7,,,,,,,,,11,,,,70,101
44586,note_on,21,0,8,,,,,,,,,12,,,,55,99
44619,note_on,39,0,6,,,,,,,,,10,,,,77,0
44621,note_on,39,0,7,,,,,,,,,11,,,,70,0
44625,note_on,39,0,8,,,,,,,,,12,,,,55,0
44634,note_on,230,0,4,,,,,,,,,4,,,,65,0
44636,note_on,230,0,5,,,,,,,,,5,,,,53,0
44638,note_on,235,0,1,,,,,,,,,0,,,,89,0
44640,note_on,235,0,2,,,,,,,,,1,,,,70,0
44640,note_on,0,0,2,,,,,,,,,1,,,,82,0
44640,set_tempo,240,1,0,,,,,,272727,,,,,,,,
44640,note_on,21,0,6,,,,,,,,,10,,,,77,110
44641,note_on,230,0,3,,,,,,,,,3,,,,55,0
44642,note_on,21,0,7,,,,,,,,,11,,,,71,110
44643,note_on,5,0,1,,,,,,,,,0,,,,89,97
44644,note_on,10,0,4,,,,,,,,,4,,,,65,96
44645,note_on,0,0,2,,,,,,,,,1,,,,71,97
44645,note_on,235,0,9,,,,,,,,,13,,,,55,0
44645,note_on,5,0,2,,,,,,,,,1,,,,83,97
44646,note_on,10,0,5,,,,,,,,,5,,,,53,96
44646,note_on,21,0,8,,,,,,,,,12,,,,56,108
44647,note_on,235,0,10,,,,,,,,,14,,,,43,0
44650,note_on,5,0,9,,,,,,,,,13,,,,56,99
44651,note_on,10,0,3,,,,,,,,,3,,,,56,97
44652,note_on,5,0,10,,,,,,,,,14,,,,44,93
44679,note_on,39,0,6,,,,,,,,,10,,,,77,0
44681,note_on,39,0,7,,,,,,,,,11,,,,71,0
44685,note_on,39,0,8,,,,,,,,,12,,,,56,0
44700,note_on,21,0,6,,,,,,,,,10,,,,77,101
44702,note_on,21,0,7,,,,,,,,,11,,,,71,101
44706,note_on,21,0,8,,,,,,,,,12,,,,56,99
44739,note_on,39,0,6,,,,,,,,,10,,,,77,0
44741,note_on,39,0,7,,,,,,,,,11,,,,71,0
44745,note_on,39,0,8,,,,,,,,,12,,,,56,0
44760,note_on,21,0,6,,,,,,,,,10,,,,77,110
44762,note_on,21,0,7,,,,,,,,,11,,,,71,110
44766,note_on,21,0,8,,,,,,,,,12,,,,56,108
44799,note_on,39,0,6,,,,,,,,,10,,,,77,0
44801,note_on,39,0,7,,,,,,,,,11,,,,71,0
44805,note_on,39,0,8,,,,,,,,,12,,,,56,0
44820,note_on,21,0,6,,,,,,,,,10,,,,77,101
44822,note_on,21,0,7,,,,,,,,,11,,,,71,101
44826,note_on,21,0,8,,,,,,,,,12,,,,56,99
44859,note_on,39,0,6,,,,,,,,,10,,,,77,0
44861,note_on,39,0,7,,,,,,,,,11,,,,71,0
44865,note_on,39,0,8,,,,,,,,,12,,,,56,0
44874,note_on,230,0,4,,,,,,,,,4,,,,65,0
44876,note_on,230,0,5,,,,,,,,,5,,,,53,0
44878,note_on,235,0,1,,,,,,,,,0,,,,89,0
44880,set_tempo,240,1,0,,,,,,261438,,,,,,,,
44880,note_on,235,0,2,,,,,,,,,1,,,,71,0
44880,note_on,0,0,2,,,,,,,,,1,,,,83,0
44880,note_on,21,0,6,,,,,,,,,10,,,,77,110
44881,note_on,230,0,3,,,,,,,,,3,,,,56,0
44882,note_on,21,0,7,,,,,,,,,11,,,,72,110
44883,note_on,5,0,1,,,,,,,,,0,,,,89,97
44884,note_on,10,0,4,,,,,,,,,4,,,,65,96
44885,note_on,235,0,9,,,,,,,,,13,,,,56,0
44885,note_on,0,0,2,,,,,,,,,1,,,,72,97
44885,note_on,5,0,2,,,,,,,,,1,,,,84,97
44886,note_on,21,0,8,,,,,,,,,12,,,,57,108
44886,note_on,10,0,5,,,,,,,,,5,,,,53,96
44887,note_on,235,0,10,,,,,,,,,14,,,,44,0
44890,note_on,5,0,9,,,,,,,,,13,,,,57,99
44891,note_on,10,0,3,,,,,,,,,3,,,,57,97
44892,note_on,5,0,10,,,,,,,,,14,,,,45,93
44919,note_on,39,0,6,,,,,,,,,10,,,,77,0
44921,note_on,39,0,7,,,,,,,,,11,,,,72,0
44925,note_on,39,0,8,,,,,,,,,12,,,,57,0
44940,note_on,21,0,6,,,,,,,,,10,,,,77,101
44942,note_on,21,0,7,,,,,,,,,11,,,,72,101
44946,note_on,21,0,8,,,,,,,,,12,,,,57,99
44979,note_on,39,0,6,,,,,,,,,10,,,,77,0
44981,note_on,39,0,7,,,,,,,,,11,,,,72,0
44985,note_on,39,0,8,,,,,,,,,12,,,,57,0
45000,note_on,21,0,6,,,,,,,,,10,,,,77,110
45002,note_on,21,0,7,,,,,,,,,11,,,,72,110
45006,note_on,21,0,8,,,,,,,,,12,,,,57,108
45039,note_on,39,0,6,,,,,,,,,10,,,,77,0
45041,note_on,39,0,7,,,,,,,,,11,,,,72,0
45045,note_on,39,0,8,,,,,,,,,12,,,,57,0
45060,note_on,21,0,6,,,,,,,,,10,,,,77,101
45062,note_on,21,0,7,,,,,,,,,11,,,,72,101
45066,note_on,21,0,8,,,,,,,,,12,,,,57,99
45099,note_on,39,0,6,,,,,,,,,10,,,,77,0
45101,note_on,39,0,7,,,,,,,,,11,,,,72,0
45105,note_on,39,0,8,,,,,,,,,12,,,,57,0
45114,note_on,230,0,4,,,,,,,,,4,,,,65,0
45116,note_on,230,0,5,,,,,,,,,5,,,,53,0
45118,note_on,235,0,1,,,,,,,,,0,,,,89,0
45120,note_on,21,0,6,,,,,,,,,10,,,,77,110
45120,note_on,0,0,2,,,,,,,,,1,,,,84,0
45120,note_on,235,0,2,,,,,,,,,1,,,,72,0
45120,set_tempo,240,1,0,,,,,,272727,,,,,,,,
45121,note_on,230,0,3,,,,,,,,,3,,,,57,0
45122,note_on,21,0,7,,,,,,,,,11,,,,73,110
45123,note_on,5,0,1,,,,,,,,,0,,,,89,97
45124,note_on,10,0,4,,,,,,,,,4,,,,65,96
45125,note_on,235,0,9,,,,,,,,,13,,,,57,0
45125,note_on,5,0,2,,,,,,,,,1,,,,85,97
45125,note_on,0,0,2,,,,,,,,,1,,,,73,97
45126,note_on,21,0,8,,,,,,,,,12,,,,58,108
45126,note_on,10,0,5,,,,,,,,,5,,,,53,96
45127,note_on,235,0,10,,,,,,,,,14,,,,45,0
45130,note_on,5,0,9,,,,,,,,,13,,,,58,99
45131,note_on,10,0,3,,,,,,,,,3,,,,58,97
45132,note_on,5,0,10,,,,,,,,,14,,,,46,93
45159,note_on,39,0,6,,,,,,,,,10,,,,77,0
45161,note_on,39,0,7,,,,,,,,,11,,,,73,0
45165,note_on,39,0,8,,,,,,,,,12,,,,58,0
45180,note_on,21,0,6,,,,,,,,,10,,,,77,101
45182,note_on,21,0,7,,,,,,,,,11,,,,73,101
45186,note_on,21,0,8,,,,,,,,,12,,,,58,99
45219,note_on,39,0,6,,,,,,,,,10,,,,77,0
45221,note_on,39,0,7,,,,,,,,,11,,,,73,0
45225,note_on,39,0,8,,,,,,,,,12,,,,58,0
45240,note_on,21,0,6,,,,,,,,,10,,,,77,110
45242,note_on,21,0,7,,,,,,,,,11,,,,73,110
45246,note_on,21,0,8,,,,,,,,,12,,,,58,108
45279,note_on,39,0,6,,,,,,,,,10,,,,77,0
45281,note_on,39,0,7,,,,,,,,,11,,,,73,0
45285,note_on,39,0,8,,,,,,,,,12,,,,58,0
45300,note_on,21,0,6,,,,,,,,,10,,,,77,101
45302,note_on,21,0,7,,,,,,,,,11,,,,73,101
45306,note_on,21,0,8,,,,,,,,,12,,,,58,99
45339,note_on,39,0,6,,,,,,,,,10,,,,77,0
45341,note_on,39,0,7,,,,,,,,,11,,,,73,0
45345,note_on,39,0,8,,,,,,,,,12,,,,58,0
45354,note_on,230,0,4,,,,,,,,,4,,,,65,0
45356,note_on,230,0,5,,,,,,,,,5,,,,53,0
45358,note_on,235,0,1,,,,,,,,,0,,,,89,0
45360,note_on,235,0,2,,,,,,,,,1,,,,73,0
45360,set_tempo,240,1,0,,,,,,261438,,,,,,,,
45360,note_on,21,0,6,,,,,,,,,10,,,,77,110
45360,note_on,0,0,2,,,,,,,,,1,,,,85,0
45361,note_on,230,0,3,,,,,,,,,3,,,,58,0
45362,note_on,21,0,7,,,,,,,,,11,,,,69,110
45363,note_on,5,0,1,,,,,,,,,0,,,,89,97
45364,note_on,10,0,4,,,,,,,,,4,,,,65,96
45365,note_on,235,0,9,,,,,,,,,13,,,,58,0
45365,note_on,5,0,2,,,,,,,,,1,,,,69,97
45365,note_on,0,0,2,,,,,,,,,1,,,,81,97
45366,note_on,10,0,5,,,,,,,,,5,,,,53,96
45366,note_on,21,0,8,,,,,,,,,12,,,,63,108
45367,note_on,235,0,10,,,,,,,,,14,,,,46,0
45370,note_on,5,0,9,,,,,,,,,13,,,,60,99
45371,note_on,10,0,3,,,,,,,,,3,,,,60,97
45372,note_on,5,0,10,,,,,,,,,14,,,,48,93
45399,note_on,39,0,6,,,,,,,,,10,,,,77,0
45401,note_on,39,0,7,,,,,,,,,11,,,,69,0
45405,note_on,39,0,8,,,,,,,,,12,,,,63,0
45420,note_on,21,0,6,,,,,,,,,10,,,,77,101
45422,note_on,21,0,7,,,,,,,,,11,,,,69,101
45426,note_on,21,0,8,,,,,,,,,12,,,,63,99
45459,note_on,39,0,6,,,,,,,,,10,,,,77,0
45461,note_on,39,0,7,,,,,,,,,11,,,,69,0
45465,note_on,39,0,8,,,,,,,,,12,,,,63,0
45480,note_on,21,0,6,,,,,,,,,10,,,,77,110
45482,note_on,21,0,7,,,,,,,,,11,,,,69,110
45486,note_on,21,0,8,,,,,,,,,12,,,,63,108
45519,note_on,39,0,6,,,,,,,,,10,,,,77,0
45521,note_on,39,0,7,,,,,,,,,11,,,,69,0
45525,note_on,39,0,8,,,,,,,,,12,,,,63,0
45540,note_on,21,0,6,,,,,,,,,10,,,,77,101
45542,note_on,21,0,7,,,,,,,,,11,,,,69,101
45546,note_on,21,0,8,,,,,,,,,12,,,,63,99
45579,note_on,39,0,6,,,,,,,,,10,,,,77,0
45581,note_on,39,0,7,,,,,,,,,11,,,,69,0
45585,note_on,39,0,8,,,,,,,,,12,,,,63,0
45594,note_on,230,0,4,,,,,,,,,4,,,,65,0
45596,note_on,230,0,5,,,,,,,,,5,,,,53,0
45598,note_on,235,0,1,,,,,,,,,0,,,,89,0
45600,set_tempo,240,1,0,,,,,,272727,,,,,,,,
45600,note_on,235,0,2,,,,,,,,,1,,,,81,0
45600,note_on,0,0,2,,,,,,,,,1,,,,69,0
45600,note_on,21,0,6,,,,,,,,,10,,,,77,110
45601,note_on,230,0,3,,,,,,,,,3,,,,60,0
45602,note_on,21,0,7,,,,,,,,,11,,,,70,110
45603,note_on,5,0,1,,,,,,,,,0,,,,89,97
45604,note_on,10,0,4,,,,,,,,,4,,,,65,96
45605,note_on,0,0,2,,,,,,,,,1,,,,70,97
45605,note_on,235,0,9,,,,,,,,,13,,,,60,0
45605,note_on,5,0,2,,,,,,,,,1,,,,82,97
45606,note_on,21,0,8,,,,,,,,,12,,,,61,108
45606,note_on,10,0,5,,,,,,,,,5,,,,53,96
45607,note_on,235,0,10,,,,,,,,,14,,,,48,0
45610,note_on,5,0,9,,,,,,,,,13,,,,61,99
45611,note_on,10,0,3,,,,,,,,,3,,,,61,97
45612,note_on,5,0,10,,,,,,,,,14,,,,49,93
45639,note_on,39,0,6,,,,,,,,,10,,,,77,0
45641,note_on,39,0,7,,,,,,,,,11,,,,70,0
45645,note_on,39,0,8,,,,,,,,,12,,,,61,0
45660,note_on,21,0,6,,,,,,,,,10,,,,77,101
45662,note_on,21,0,7,,,,,,,,,11,,,,70,101
45666,note_on,21,0,8,,,,,,,,,12,,,,61,99
45699,note_on,39,0,6,,,,,,,,,10,,,,77,0
45701,note_on,39,0,7,,,,,,,,,11,,,,70,0
45705,note_on,39,0,8,,,,,,,,,12,,,,61,0
45720,note_on,21,0,6,,,,,,,,,10,,,,77,110
45722,note_on,21,0,7,,,,,,,,,11,,,,70,110
45726,note_on,21,0,8,,,,,,,,,12,,,,61,108
45759,note_on,39,0,6,,,,,,,,,10,,,,77,0
45761,note_on,39,0,7,,,,,,,,,11,,,,70,0
45765,note_on,39,0,8,,,,,,,,,12,,,,61,0
45780,note_on,21,0,6,,,,,,,,,10,,,,77,101
45782,note_on,21,0,7,,,,,,,,,11,,,,70,101
45786,note_on,21,0,8,,,,,,,,,12,,,,61,99
45819,note_on,39,0,6,,,,,,,,,10,,,,77,0
45821,note_on,39,0,7,,,,,,,,,11,,,,70,0
45825,note_on,39,0,8,,,,,,,,,12,,,,61,0
45834,note_on,230,0,4,,,,,,,,,4,,,,65,0
45836,note_on,230,0,5,,,,,,,,,5,,,,53,0
45838,note_on,235,0,1,,,,,,,,,0,,,,89,0
45840,note_on,21,0,6,,,,,,,,,10,,,,77,110
45840,set_tempo,240,1,0,,,,,,261438,,,,,,,,
45840,note_on,235,0,2,,,,,,,,,1,,,,70,0
45840,note_on,0,0,2,,,,,,,,,1,,,,82,0
45841,note_on,230,0,3,,,,,,,,,3,,,,61,0
45842,note_on,21,0,7,,,,,,,,,11,,,,71,110
45843,note_on,5,0,1,,,,,,,,,0,,,,89,97
45844,note_on,10,0,4,,,,,,,,,4,,,,65,96
45845,note_on,0,0,2,,,,,,,,,1,,,,77,97
45845,note_on,235,0,9,,,,,,,,,13,,,,61,0
45845,note_on,5,0,2,,,,,,,,,1,,,,83,97
45846,note_on,10,0,5,,,,,,,,,5,,,,53,96
45846,note_on,21,0,8,,,,,,,,,12,,,,68,108
45847,note_on,235,0,10,,,,,,,,,14,,,,49,0
45850,note_on,5,0,9,,,,,,,,,13,,,,62,99
45851,note_on,10,0,3,,,,,,,,,3,,,,62,97
45852,note_on,5,0,10,,,,,,,,,14,,,,50,93
45879,note_on,39,0,6,,,,,,,,,10,,,,77,0
45881,note_on,39,0,7,,,,,,,,,11,,,,71,0
45885,note_on,39,0,8,,,,,,,,,12,,,,68,0
45900,note_on,21,0,6,,,,,,,,,10,,,,77,101
45902,note_on,21,0,7,,,,,,,,,11,,,,71,101
45906,note_on,21,0,8,,,,,,,,,12,,,,68,99
45939,note_on,39,0,6,,,,,,,,,10,,,,77,0
45941,note_on,39,0,7,,,,,,,,,11,,,,71,0
45945,note_on,39,0,8,,,,,,,,,12,,,,68,0
45960,control_change,21,0,6,,,,,,,,,10,11,89,,,
45960,note_on,0,0,6,,,,,,,,,10,,,,77,110
45962,control_change,21,0,7,,,,,,,,,11,11,89,,,
45962,note_on,0,0,7,,,,,,,,,11,,,,71,110
45963,control_change,120,0,1,,,,,,,,,0,11,89,,,
45965,control_change,120,0,2,,,,,,,,,1,11,89,,,
45966,control_change,21,0,8,,,,,,,,,12,11,89,,,
45966,note_on,0,0,8,,,,,,,,,12,,,,68,108
45970,control_change,120,0,9,,,,,,,,,13,11,89,,,
45971,control_change,120,0,3,,,,,,,,,3,11,89,,,
45972,control_change,120,0,10,,,,,,,,,14,11,89,,,
45973,control_change,13,0,6,,,,,,,,,10,11,85,,,
45975,control_change,13,0,7,,,,,,,,,11,11,85,,,
45979,control_change,16,0,1,,,,,,,,,0,11,85,,,
45979,control_change,13,0,8,,,,,,,,,12,11,85,,,
45981,control_change,16,0,2,,,,,,,,,1,11,85,,,
45983,control_change,13,0,9,,,,,,,,,13,11,85,,,
45984,control_change,13,0,3,,,,,,,,,3,11,85,,,
45985,control_change,13,0,10,,,,,,,,,14,11,85,,,
45986,control_change,13,0,6,,,,,,,,,10,11,81,,,
45988,control_change,13,0,7,,,,,,,,,11,11,81,,,
45992,control_change,13,0,8,,,,,,,,,12,11,81,,,
45995,control_change,16,0,1,,,,,,,,,0,11,81,,,
45996,control_change,13,0,9,,,,,,,,,13,11,81,,,
45997,control_change,13,0,3,,,,,,,,,3,11,81,,,
45997,control_change,16,0,2,,,,,,,,,1,11,81,,,
45998,control_change,13,0,10,,,,,,,,,14,11,81,,,
45999,note_on,13,0,6,,,,,,,,,10,,,,77,0
45999,control_change,0,0,6,,,,,,,,,10,11,77,,,
46001,note_on,13,0,7,,,,,,,,,11,,,,71,0
46001,control_change,0,0,7,,,,,,,,,11,11,77,,,
46005,control_change,0,0,8,,,,,,,,,12,11,77,,,
46005,note_on,13,0,8,,,,,,,,,12,,,,68,0
46009,control_change,13,0,9,,,,,,,,,13,11,77,,,
46010,control_change,13,0,3,,,,,,,,,3,11,77,,,
46011,control_change,16,0,1,,,,,,,,,0,11,77,,,
46011,control_change,13,0,10,,,,,,,,,14,11,77,,,
46012,control_change,13,0,6,,,,,,,,,10,11,73,,,
46013,control_change,16,0,2,,,,,,,,,1,11,77,,,
46014,control_change,13,0,7,,,,,,,,,11,11,73,,,
46018,control_change,13,0,8,,,,,,,,,12,11,73,,,
46020,note_on,8,0,6,,,,,,,,,10,,,,77,101
46020,set_tempo,180,1,0,,,,,,314136,,,,,,,,
46022,note_on,8,0,7,,,,,,,,,11,,,,71,101
46022,control_change,13,0,9,,,,,,,,,13,11,73,,,
46023,control_change,13,0,3,,,,,,,,,3,11,73,,,
46024,control_change,13,0,10,,,,,,,,,14,11,73,,,
46025,control_change,5,0,6,,,,,,,,,10,11,68,,,
46026,note_on,8,0,8,,,,,,,,,12,,,,68,99
46027,control_change,16,0,1,,,,,,,,,0,11,73,,,
46027,control_change,5,0,7,,,,,,,,,11,11,68,,,
46029,control_change,16,0,2,,,,,,,,,1,11,73,,,
46031,control_change,5,0,8,,,,,,,,,12,11,68,,,
46035,control_change,13,0,9,,,,,,,,,13,11,68,,,
46036,control_change,13,0,3,,,,,,,,,3,11,68,,,
46037,control_change,13,0,10,,,,,,,,,14,11,68,,,
46038,control_change,13,0,6,,,,,,,,,10,11,64,,,
46040,control_change,13,0,7,,,,,,,,,11,11,64,,,
46043,control_change,16,0,1,,,,,,,,,0,11,68,,,
46044,control_change,13,0,8,,,,,,,,,12,11,64,,,
46045,control_change,16,0,2,,,,,,,,,1,11,68,,,
46048,control_change,13,0,9,,,,,,,,,13,11,64,,,
46049,control_change,13,0,3,,,,,,,,,3,11,64,,,
46050,control_change,13,0,10,,,,,,,,,14,11,64,,,
46051,control_change,13,0,6,,,,,,,,,10,11,60,,,
46053,control_change,13,0,7,,,,,,,,,11,11,60,,,
46057,control_change,13,0,8,,,,,,,,,12,11,60,,,
46058,control_change,7,0,6,,,,,,,,,10,11,57,,,
46059,control_change,16,0,1,,,,,,,,,0,11,64,,,
46059,note_on,1,0,6,,,,,,,,,10,,,,77,0
46060,control_change,7,0,7,,,,,,,,,11,11,57,,,
46061,control_change,13,0,9,,,,,,,,,13,11,60,,,
46061,note_on,1,0,7,,,,,,,,,11,,,,71,0
46061,control_change,16,0,2,,,,,,,,,1,11,64,,,
46062,control_change,13,0,3,,,,,,,,,3,11,60,,,
46063,control_change,13,0,10,,,,,,,,,14,11,60,,,
46064,control_change,7,0,8,,,,,,,,,12,11,57,,,
46064,control_change,5,0,6,,,,,,,,,10,11,54,,,
46065,note_on,1,0,8,,,,,,,,,12,,,,68,0
46066,control_change,5,0,7,,,,,,,,,11,11,54,,,
46068,control_change,7,0,9,,,,,,,,,13,11,57,,,
46069,control_change,7,0,3,,,,,,,,,3,11,57,,,
46070,control_change,5,0,8,,,,,,,,,12,11,54,,,
46070,control_change,7,0,10,,,,,,,,,14,11,57,,,
46071,control_change,7,0,6,,,,,,,,,10,11,51,,,
46073,control_change,7,0,7,,,,,,,,,11,11,51,,,
46074,control_change,6,0,9,,,,,,,,,13,11,54,,,
46074,note_on,230,0,4,,,,,,,,,4,,,,65,0
46075,control_change,16,0,1,,,,,,,,,0,11,60,,,
46075,control_change,6,0,3,,,,,,,,,3,11,54,,,
46076,control_change,6,0,10,,,,,,,,,14,11,54,,,
46076,note_on,230,0,5,,,,,,,,,5,,,,53,0
46077,control_change,7,0,8,,,,,,,,,12,11,51,,,
46077,control_change,16,0,2,,,,,,,,,1,11,60,,,
46077,control_change,6,0,6,,,,,,,,,10,11,48,,,
46078,note_on,3,0,1,,,,,,,,,0,,,,89,0
46079,control_change,6,0,7,,,,,,,,,11,11,48,,,
46080,note_on,3,0,2,,,,,,,,,1,,,,77,0
46080,note_on,0,0,2,,,,,,,,,1,,,,83,0
46080,note_on,3,0,6,,,,,,,,,10,,,,75,110
46080,set_tempo,60,1,0,,,,,,279720,,,,,,,,
46081,control_change,7,0,9,,,,,,,,,13,11,51,,,
46081,note_on,6,0,3,,,,,,,,,3,,,,62,0
46082,note_on,3,0,7,,,,,,,,,11,,,,72,110
46082,control_change,1,0,3,,,,,,,,,3,11,51,,,
46083,control_change,5,0,1,,,,,,,,,0,11,57,,,
46083,control_change,6,0,8,,,,,,,,,12,11,48,,,
46083,control_change,7,0,10,,,,,,,,,14,11,51,,,
46083,note_on,0,0,1,,,,,,,,,0,,,,87,97
46085,note_on,4,0,9,,,,,,,,,13,,,,62,0
46085,note_on,0,0,2,,,,,,,,,1,,,,84,97
46085,control_change,5,0,2,,,,,,,,,1,11,57,,,
46085,note_on,0,0,2,,,,,,,,,1,,,,75,97
46086,note_on,3,0,8,,,,,,,,,12,,,,68,108
46087,control_change,2,0,9,,,,,,,,,13,11,48,,,
46087,note_on,4,0,10,,,,,,,,,14,,,,50,0
46088,control_change,6,0,3,,,,,,,,,3,11,48,,,
46089,control_change,2,0,10,,,,,,,,,14,11,48,,,
46090,note_on,3,0,9,,,,,,,,,13,,,,63,99
46091,note_on,3,0,3,,,,,,,,,3,,,,51,97
46092,note_on,3,0,10,,,,,,,,,14,,,,51,93
46119,note_on,39,0,6,,,,,,,,,10,,,,75,0
46121,note_on,39,0,7,,,,,,,,,11,,,,72,0
46125,note_on,39,0,8,,,,,,,,,12,,,,68,0
46140,note_on,21,0,6,,,,,,,,,10,,,,75,101
46142,note_on,21,0,7,,,,,,,,,11,,,,72,101
46146,note_on,21,0,8,,,,,,,,,12,,,,68,99
46179,note_on,39,0,6,,,,,,,,,10,,,,75,0
46181,note_on,39,0,7,,,,,,,,,11,,,,72,0
46185,note_on,39,0,8,,,,,,,,,12,,,,68,0
46200,note_on,21,0,6,,,,,,,,,10,,,,75,110
46202,note_on,21,0,7,,,,,,,,,11,,,,72,110
46206,note_on,21,0,8,,,,,,,,,12,,,,68,108
46239,note_on,39,0,6,,,,,,,,,10,,,,75,0
46241,note_on,39,0,7,,,,,,,,,11,,,,72,0
46245,note_on,39,0,8,,,,,,,,,12,,,,68,0
46260,note_on,21,0,6,,,,,,,,,10,,,,75,101
46262,note_on,21,0,7,,,,,,,,,11,,,,72,101
46266,note_on,21,0,8,,,,,,,,,12,,,,68,99
46299,note_on,39,0,6,,,,,,,,,10,,,,75,0
46301,note_on,39,0,7,,,,,,,,,11,,,,72,0
46305,note_on,39,0,8,,,,,,,,,12,,,,68,0
46320,set_tempo,240,1,0,,,,,,268456,,,,,,,,
46320,note_on,21,0,6,,,,,,,,,10,,,,73,110
46322,note_on,21,0,7,,,,,,,,,11,,,,70,110
46323,note_on,0,0,1,,,,,,,,,0,,,,85,97
46323,note_on,240,0,1,,,,,,,,,0,,,,87,0
46325,note_on,240,0,2,,,,,,,,,1,,,,84,0
46325,note_on,0,0,2,,,,,,,,,1,,,,73,97
46325,note_on,0,0,2,,,,,,,,,1,,,,75,0
46325,note_on,0,0,2,,,,,,,,,1,,,,82,97
46326,note_on,21,0,8,,,,,,,,,12,,,,67,108
46330,note_on,240,0,9,,,,,,,,,13,,,,63,0
46330,note_on,0,0,9,,,,,,,,,13,,,,64,99
46331,note_on,240,0,3,,,,,,,,,3,,,,51,0
46331,note_on,0,0,3,,,,,,,,,3,,,,52,97
46332,note_on,0,0,10,,,,,,,,,14,,,,52,93
46332,note_on,240,0,10,,,,,,,,,14,,,,51,0
46359,note_on,39,0,6,,,,,,,,,10,,,,73,0
46361,note_on,39,0,7,,,,,,,,,11,,,,70,0
46365,note_on,39,0,8,,,,,,,,,12,,,,67,0
46380,note_on,21,0,6,,,,,,,,,10,,,,73,101
46382,note_on,21,0,7,,,,,,,,,11,,,,70,101
46386,note_on,21,0,8,,,,,,,,,12,,,,67,99
46419,note_on,39,0,6,,,,,,,,,10,,,,73,0
46421,note_on,39,0,7,,,,,,,,,11,,,,70,0
46425,note_on,39,0,8,,,,,,,,,12,,,,67,0
46440,note_on,21,0,6,,,,,,,,,10,,,,73,110
46442,note_on,21,0,7,,,,,,,,,11,,,,70,110
46446,note_on,21,0,8,,,,,,,,,12,,,,67,108
46479,note_on,39,0,6,,,,,,,,,10,,,,73,0
46481,note_on,39,0,7,,,,,,,,,11,,,,70,0
46485,note_on,39,0,8,,,,,,,,,12,,,,67,0
46500,note_on,21,0,6,,,,,,,,,10,,,,73,101
46502,note_on,21,0,7,,,,,,,,,11,,,,70,101
46506,note_on,21,0,8,,,,,,,,,12,,,,67,99
46539,note_on,39,0,6,,,,,,,,,10,,,,73,0
46541,note_on,39,0,7,,,,,,,,,11,,,,70,0
46545,note_on,39,0,8,,,,,,,,,12,,,,67,0
46560,set_tempo,240,1,0,,,,,,279720,,,,,,,,
46560,note_on,21,0,6,,,,,,,,,10,,,,72,110
46562,note_on,21,0,7,,,,,,,,,11,,,,68,110
46563,note_on,240,0,1,,,,,,,,,0,,,,85,0
46563,note_on,0,0,1,,,,,,,,,0,,,,84,97
46565,note_on,0,0,2,,,,,,,,,1,,,,72,97
46565,note_on,0,0,2,,,,,,,,,1,,,,73,0
46565,note_on,240,0,2,,,,,,,,,1,,,,82,0
46565,note_on,0,0,2,,,,,,,,,1,,,,80,97
46566,note_on,21,0,8,,,,,,,,,12,,,,68,108
46570,note_on,240,0,9,,,,,,,,,13,,,,64,0
46570,note_on,0,0,9,,,,,,,,,13,,,,65,99
46571,note_on,0,0,3,,,,,,,,,3,,,,53,97
46571,note_on,240,0,3,,,,,,,,,3,,,,52,0
46572,note_on,240,0,10,,,,,,,,,14,,,,52,0
46572,note_on,0,0,10,,,,,,,,,14,,,,53,93
46599,note_on,39,0,6,,,,,,,,,10,,,,72,0
46601,note_on,39,0,7,,,,,,,,,11,,,,68,0
46605,note_on,39,0,8,,,,,,,,,12,,,,68,0
46620,note_on,21,0,6,,,,,,,,,10,,,,72,101
46622,note_on,21,0,7,,,,,,,,,11,,,,68,101
46626,note_on,21,0,8,,,,,,,,,12,,,,68,99
46659,note_on,39,0,6,,,,,,,,,10,,,,72,0
46661,note_on,39,0,7,,,,,,,,,11,,,,68,0
46665,note_on,39,0,8,,,,,,,,,12,,,,68,0
46680,note_on,21,0,6,,,,,,,,,10,,,,72,110
46682,note_on,21,0,7,,,,,,,,,11,,,,68,110
46686,note_on,21,0,8,,,,,,,,,12,,,,68,108
46719,note_on,39,0,6,,,,,,,,,10,,,,72,0
46721,note_on,39,0,7,,,,,,,,,11,,,,68,0
46725,note_on,39,0,8,,,,,,,,,12,,,,68,0
46740,note_on,21,0,6,,,,,,,,,10,,,,72,101
46742,note_on,21,0,7,,,,,,,,,11,,,,68,101
46746,note_on,21,0,8,,,,,,,,,12,,,,68,99
46779,note_on,39,0,6,,,,,,,,,10,,,,72,0
46781,note_on,39,0,7,,,,,,,,,11,,,,68,0
46785,note_on,39,0,8,,,,,,,,,12,,,,68,0
46800,set_tempo,240,1,0,,,,,,268456,,,,,,,,
46800,note_on,21,0,6,,,,,,,,,10,,,,70,110
46802,note_on,21,0,7,,,,,,,,,11,,,,67,110
46803,note_on,240,0,1,,,,,,,,,0,,,,84,0
46803,note_on,0,0,1,,,,,,,,,0,,,,82,97
46805,note_on,240,0,2,,,,,,,,,1,,,,72,0
46805,note_on,0,0,2,,,,,,,,,1,,,,80,0
46805,note_on,0,0,2,,,,,,,,,1,,,,79,97
46805,note_on,0,0,2,,,,,,,,,1,,,,70,97
46806,note_on,21,0,8,,,,,,,,,12,,,,61,108
46810,note_on,0,0,9,,,,,,,,,13,,,,58,99
46810,note_on,240,0,9,,,,,,,,,13,,,,65,0
46811,note_on,0,0,3,,,,,,,,,3,,,,46,97
46811,note_on,240,0,3,,,,,,,,,3,,,,53,0
46811,note_on,0,0,3,,,,,,,,,3,,,,58,97
46812,note_on,240,0,10,,,,,,,,,14,,,,53,0
46812,note_on,0,0,10,,,,,,,,,14,,,,46,93
46839,note_on,39,0,6,,,,,,,,,10,,,,70,0
46841,note_on,39,0,7,,,,,,,,,11,,,,67,0
46845,note_on,39,0,8,,,,,,,,,12,,,,61,0
46860,note_on,21,0,6,,,,,,,,,10,,,,70,101
46862,note_on,21,0,7,,,,,,,,,11,,,,67,101
46866,note_on,21,0,8,,,,,,,,,12,,,,61,99
46899,note_on,39,0,6,,,,,,,,,10,,,,70,0
46901,note_on,39,0,7,,,,,,,,,11,,,,67,0
46905,note_on,39,0,8,,,,,,,,,12,,,,61,0
46920,note_on,21,0,6,,,,,,,,,10,,,,70,110
46922,note_on,21,0,7,,,,,,,,,11,,,,67,110
46926,note_on,21,0,8,,,,,,,,,12,,,,61,108
46959,note_on,39,0,6,,,,,,,,,10,,,,70,0
46961,note_on,39,0,7,,,,,,,,,11,,,,67,0
46965,note_on,39,0,8,,,,,,,,,12,,,,61,0
46980,note_on,21,0,6,,,,,,,,,10,,,,70,101
46982,note_on,21,0,7,,,,,,,,,11,,,,67,101
46986,note_on,21,0,8,,,,,,,,,12,,,,61,99
47019,note_on,39,0,6,,,,,,,,,10,,,,70,0
47021,note_on,39,0,7,,,,,,,,,11,,,,67,0
47025,note_on,39,0,8,,,,,,,,,12,,,,61,0
47040,set_tempo,240,1,0,,,,,,279720,,,,,,,,
47040,note_on,21,0,6,,,,,,,,,10,,,,69,110
47042,note_on,21,0,7,,,,,,,,,11,,,,65,110
47043,control_change,0,0,1,,,,,,,,,0,11,65,,,
47043,note_on,0,0,1,,,,,,,,,0,,,,81,110
47043,note_on,240,0,1,,,,,,,,,0,,,,82,0
47044,note_on,0,0,4,,,,,,,,,4,,,,60,109
47044,control_change,970,0,4,,,,,,,,,4,11,47,,,
47045,note_on,240,0,2,,,,,,,,,1,,,,70,0
47045,note_on,0,0,2,,,,,,,,,1,,,,79,0
47045,note_on,0,0,2,,,,,,,,,1,,,,72,110
47045,control_change,0,0,2,,,,,,,,,1,11,65,,,
47046,note_on,21,0,8,,,,,,,,,12,,,,60,108
47046,note_on,0,0,5,,,,,,,,,5,,,,60,109
47046,control_change,970,0,5,,,,,,,,,5,11,47,,,
47050,note_on,0,0,9,,,,,,,,,13,,,,60,99
47050,note_on,240,0,9,,,,,,,,,13,,,,58,0
47051,note_on,240,0,3,,,,,,,,,3,,,,46,0
47051,note_on,0,0,3,,,,,,,,,3,,,,58,0
47051,note_on,0,0,3,,,,,,,,,3,,,,48,97
47051,note_on,0,0,3,,,,,,,,,3,,,,60,97
47052,note_on,240,0,10,,,,,,,,,14,,,,46,0
47052,note_on,0,0,10,,,,,,,,,14,,,,48,93
47079,note_on,39,0,6,,,,,,,,,10,,,,69,0
47081,note_on,39,0,7,,,,,,,,,11,,,,65,0
47085,note_on,39,0,8,,,,,,,,,12,,,,60,0
47085,control_change,42,0,1,,,,,,,,,0,11,64,,,
47087,control_change,42,0,2,,,,,,,,,1,11,64,,,
47100,note_on,21,0,6,,,,,,,,,10,,,,69,101
47102,note_on,21,0,7,,,,,,,,,11,,,,65,101
47106,note_on,21,0,8,,,,,,,,,12,,,,60,99
47127,control_change,42,0,1,,,,,,,,,0,11,64,,,
47129,control_change,42,0,2,,,,,,,,,1,11,64,,,
47139,note_on,39,0,6,,,,,,,,,10,,,,69,0
47141,note_on,39,0,7,,,,,,,,,11,,,,65,0
47145,note_on,39,0,8,,,,,,,,,12,,,,60,0
47160,note_on,21,0,6,,,,,,,,,10,,,,69,110
47162,note_on,21,0,7,,,,,,,,,11,,,,65,110
47163,note_on,0,0,1,,,,,,,,,0,,,,84,97
47163,note_on,36,0,1,,,,,,,,,0,,,,81,0
47166,note_on,21,0,8,,,,,,,,,12,,,,60,108
47169,control_change,6,0,1,,,,,,,,,0,11,63,,,
47171,control_change,42,0,2,,,,,,,,,1,11,63,,,
47199,note_on,39,0,6,,,,,,,,,10,,,,69,0
47201,note_on,39,0,7,,,,,,,,,11,,,,65,0
47205,note_on,39,0,8,,,,,,,,,12,,,,60,0
47211,control_change,42,0,1,,,,,,,,,0,11,62,,,
47213,control_change,42,0,2,,,,,,,,,1,11,62,,,
47220,note_on,21,0,6,,,,,,,,,10,,,,69,101
47222,note_on,21,0,7,,,,,,,,,11,,,,65,101
47226,note_on,21,0,8,,,,,,,,,12,,,,60,99
47253,control_change,42,0,1,,,,,,,,,0,11,62,,,
47255,control_change,42,0,2,,,,,,,,,1,11,62,,,
47259,note_on,39,0,6,,,,,,,,,10,,,,69,0
47261,note_on,39,0,7,,,,,,,,,11,,,,65,0
47265,note_on,39,0,8,,,,,,,,,12,,,,60,0
47280,note_on,21,0,6,,,,,,,,,10,,,,68,110
47280,set_tempo,240,1,0,,,,,,268456,,,,,,,,
47282,note_on,21,0,7,,,,,,,,,11,,,,65,110
47283,note_on,0,0,1,,,,,,,,,0,,,,82,97
47283,note_on,30,0,1,,,,,,,,,0,,,,84,0
47285,note_on,0,0,2,,,,,,,,,1,,,,70,97
47285,note_on,30,0,2,,,,,,,,,1,,,,72,0
47286,note_on,21,0,8,,,,,,,,,12,,,,60,108
47295,control_change,12,0,1,,,,,,,,,0,11,61,,,
47297,control_change,12,0,2,,,,,,,,,1,11,61,,,
47319,note_on,39,0,6,,,,,,,,,10,,,,68,0
47321,note_on,39,0,7,,,,,,,,,11,,,,65,0
47325,note_on,39,0,8,,,,,,,,,12,,,,60,0
47337,control_change,42,0,1,,,,,,,,,0,11,60,,,
47339,control_change,42,0,2,,,,,,,,,1,11,60,,,
47340,note_on,21,0,6,,,,,,,,,10,,,,68,101
47342,note_on,21,0,7,,,,,,,,,11,,,,65,101
47343,note_on,0,0,1,,,,,,,,,0,,,,80,97
47343,note_on,6,0,1,,,,,,,,,0,,,,82,0
47345,note_on,6,0,2,,,,,,,,,1,,,,70,0
47345,note_on,0,0,2,,,,,,,,,1,,,,68,97
47346,note_on,21,0,8,,,,,,,,,12,,,,60,99
47379,note_on,39,0,6,,,,,,,,,10,,,,68,0
47379,control_change,36,0,1,,,,,,,,,0,11,59,,,
47381,note_on,39,0,7,,,,,,,,,11,,,,65,0
47381,control_change,36,0,2,,,,,,,,,1,11,59,,,
47385,note_on,39,0,8,,,,,,,,,12,,,,60,0
47400,note_on,21,0,6,,,,,,,,,10,,,,68,110
47402,note_on,21,0,7,,,,,,,,,11,,,,65,110
47403,note_on,24,0,1,,,,,,,,,0,,,,80,0
47403,note_on,0,0,1,,,,,,,,,0,,,,79,97
47405,note_on,0,0,2,,,,,,,,,1,,,,67,97
47405,note_on,24,0,2,,,,,,,,,1,,,,68,0
47406,note_on,21,0,8,,,,,,,,,12,,,,60,108
47421,control_change,18,0,1,,,,,,,,,0,11,58,,,
47423,control_change,18,0,2,,,,,,,,,1,11,58,,,
47439,note_on,39,0,6,,,,,,,,,10,,,,68,0
47441,note_on,39,0,7,,,,,,,,,11,,,,65,0
47445,note_on,39,0,8,,,,,,,,,12,,,,60,0
47460,note_on,21,0,6,,,,,,,,,10,,,,68,101
47462,note_on,21,0,7,,,,,,,,,11,,,,65,101
47463,note_on,42,0,1,,,,,,,,,0,,,,79,0
47463,control_change,0,0,1,,,,,,,,,0,11,57,,,
47463,note_on,0,0,1,,,,,,,,,0,,,,77,97
47465,note_on,0,0,2,,,,,,,,,1,,,,65,97
47465,note_on,42,0,2,,,,,,,,,1,,,,67,0
47465,control_change,0,0,2,,,,,,,,,1,11,57,,,
47466,note_on,21,0,8,,,,,,,,,12,,,,60,99
47499,note_on,39,0,6,,,,,,,,,10,,,,68,0
47501,note_on,39,0,7,,,,,,,,,11,,,,65,0
47505,note_on,39,0,8,,,,,,,,,12,,,,60,0
47520,note_on,21,0,6,,,,,,,,,10,,,,67,110
47520,set_tempo,240,1,0,,,,,,279720,,,,,,,,
47522,note_on,21,0,7,,,,,,,,,11,,,,65,110
47523,note_on,0,0,1,,,,,,,,,0,,,,82,110
47523,note_on,60,0,1,,,,,,,,,0,,,,77,0
47523,control_change,0,0,1,,,,,,,,,0,11,65,,,
47525,control_change,0,0,2,,,,,,,,,1,11,65,,,
47525,note_on,0,0,2,,,,,,,,,1,,,,70,110
47525,note_on,60,0,2,,,,,,,,,1,,,,65,0
47526,note_on,21,0,8,,,,,,,,,12,,,,60,108
47530,note_on,0,0,9,,,,,,,,,13,,,,48,99
47530,note_on,480,0,9,,,,,,,,,13,,,,60,0
47532,note_on,0,0,10,,,,,,,,,14,,,,36,93
47532,note_on,480,0,10,,,,,,,,,14,,,,48,0
47559,note_on,39,0,6,,,,,,,,,10,,,,67,0
47561,note_on,39,0,7,,,,,,,,,11,,,,65,0
47565,note_on,39,0,8,,,,,,,,,12,,,,60,0
47565,control_change,42,0,1,,,,,,,,,0,11,64,,,
47567,control_change,42,0,2,,,,,,,,,1,11,64,,,
47580,note_on,21,0,6,,,,,,,,,10,,,,67,101
47582,note_on,21,0,7,,,,,,,,,11,,,,65,101
47586,note_on,21,0,8,,,,,,,,,12,,,,60,99
47607,control_change,42,0,1,,,,,,,,,0,11,64,,,
47609,control_change,42,0,2,,,,,,,,,1,11,64,,,
47619,note_on,39,0,6,,,,,,,,,10,,,,67,0
47621,note_on,39,0,7,,,,,,,,,11,,,,65,0
47625,note_on,39,0,8,,,,,,,,,12,,,,60,0
47640,note_on,21,0,6,,,,,,,,,10,,,,67,110
47642,note_on,21,0,7,,,,,,,,,11,,,,65,110
47646,note_on,21,0,8,,,,,,,,,12,,,,60,108
47649,control_change,42,0,1,,,,,,,,,0,11,63,,,
47651,control_change,42,0,2,,,,,,,,,1,11,63,,,
47679,note_on,39,0,6,,,,,,,,,10,,,,67,0
47681,note_on,39,0,7,,,,,,,,,11,,,,65,0
47685,note_on,39,0,8,,,,,,,,,12,,,,60,0
47691,control_change,42,0,1,,,,,,,,,0,11,62,,,
47693,control_change,42,0,2,,,,,,,,,1,11,62,,,
47700,note_on,21,0,6,,,,,,,,,10,,,,67,101
47702,note_on,21,0,7,,,,,,,,,11,,,,65,101
47706,note_on,21,0,8,,,,,,,,,12,,,,60,99
47733,control_change,42,0,1,,,,,,,,,0,11,62,,,
47735,control_change,42,0,2,,,,,,,,,1,11,62,,,
47739,note_on,39,0,6,,,,,,,,,10,,,,67,0
47741,note_on,39,0,7,,,,,,,,,11,,,,65,0
47745,note_on,39,0,8,,,,,,,,,12,,,,60,0
47760,note_on,21,0,6,,,,,,,,,10,,,,72,110
47760,set_tempo,240,1,0,,,,,,268456,,,,,,,,
47762,note_on,21,0,7,,,,,,,,,11,,,,64,110
47763,note_on,0,0,1,,,,,,,,,0,,,,80,97
47763,note_on,30,0,1,,,,,,,,,0,,,,82,0
47765,note_on,0,0,2,,,,,,,,,1,,,,68,97
47765,note_on,30,0,2,,,,,,,,,1,,,,70,0
47766,note_on,21,0,8,,,,,,,,,12,,,,60,108
47775,control_change,12,0,1,,,,,,,,,0,11,61,,,
47777,control_change,12,0,2,,,,,,,,,1,11,61,,,
47799,note_on,39,0,6,,,,,,,,,10,,,,72,0
47801,note_on,39,0,7,,,,,,,,,11,,,,64,0
47805,note_on,39,0,8,,,,,,,,,12,,,,60,0
47817,control_change,42,0,1,,,,,,,,,0,11,60,,,
47819,control_change,42,0,2,,,,,,,,,1,11,60,,,
47820,note_on,21,0,6,,,,,,,,,10,,,,72,101
47822,note_on,21,0,7,,,,,,,,,11,,,,64,101
47823,note_on,0,0,1,,,,,,,,,0,,,,79,97
47823,note_on,6,0,1,,,,,,,,,0,,,,80,0
47825,note_on,0,0,2,,,,,,,,,1,,,,67,97
47825,note_on,6,0,2,,,,,,,,,1,,,,68,0
47826,note_on,21,0,8,,,,,,,,,12,,,,60,99
47859,note_on,39,0,6,,,,,,,,,10,,,,72,0
47859,control_change,36,0,1,,,,,,,,,0,11,59,,,
47861,control_change,36,0,2,,,,,,,,,1,11,59,,,
47861,note_on,39,0,7,,,,,,,,,11,,,,64,0
47865,note_on,39,0,8,,,,,,,,,12,,,,60,0
47880,note_on,21,0,6,,,,,,,,,10,,,,72,110
47882,note_on,21,0,7,,,,,,,,,11,,,,64,110
47883,note_on,0,0,1,,,,,,,,,0,,,,77,97
47883,note_on,24,0,1,,,,,,,,,0,,,,79,0
47885,note_on,24,0,2,,,,,,,,,1,,,,67,0
47885,note_on,0,0,2,,,,,,,,,1,,,,65,97
47886,note_on,21,0,8,,,,,,,,,12,,,,60,108
47901,control_change,18,0,1,,,,,,,,,0,11,58,,,
47903,control_change,18,0,2,,,,,,,,,1,11,58,,,
47919,note_on,39,0,6,,,,,,,,,10,,,,72,0
47921,note_on,39,0,7,,,,,,,,,11,,,,64,0
47925,note_on,39,0,8,,,,,,,,,12,,,,60,0
47940,note_on,21,0,6,,,,,,,,,10,,,,72,101
47942,note_on,21,0,7,,,,,,,,,11,,,,64,101
47943,control_change,0,0,1,,,,,,,,,0,11,57,,,
47943,note_on,42,0,1,,,,,,,,,0,,,,77,0
47943,note_on,0,0,1,,,,,,,,,0,,,,76,97
47945,note_on,42,0,2,,,,,,,,,1,,,,65,0
47945,control_change,0,0,2,,,,,,,,,1,11,57,,,
47945,note_on,0,0,2,,,,,,,,,1,,,,64,97
47946,note_on,21,0,8,,,,,,,,,12,,,,60,99
47979,note_on,39,0,6,,,,,,,,,10,,,,72,0
47981,note_on,39,0,7,,,,,,,,,11,,,,64,0
47985,note_on,39,0,8,,,,,,,,,12,,,,60,0
48000,set_tempo,240,1,0,,,,,,272727,,,,,,,,
48000,control_change,21,0,6,,,,,,,,,10,11,65,,,
48000,note_on,0,0,6,,,,,,,,,10,,,,77,110
48002,note_on,0,0,7,,,,,,,,,11,,,,69,110
48002,control_change,21,0,7,,,,,,,,,11,11,65,,,
48002,note_on,0,0,7,,,,,,,,,11,,,,65,110
48003,note_on,60,0,1,,,,,,,,,0,,,,76,0
48003,control_change,0,0,1,,,,,,,,,0,11,89,,,
48003,note_on,0,0,1,,,,,,,,,0,,,,77,97
48004,note_on,960,0,4,,,,,,,,,4,,,,60,0
48004,control_change,0,0,4,,,,,,,,,4,11,89,,,
48004,note_on,0,0,4,,,,,,,,,4,,,,65,96
48005,note_on,60,0,2,,,,,,,,,1,,,,64,0
48005,control_change,0,0,2,,,,,,,,,1,11,89,,,
48005,note_on,0,0,2,,,,,,,,,1,,,,65,97
48006,control_change,0,0,5,,,,,,,,,5,11,89,,,
48006,note_on,0,0,8,,,,,,,,,12,,,,53,108
48006,control_change,21,0,8,,,,,,,,,12,11,65,,,
48006,note_on,960,0,5,,,,,,,,,5,,,,60,0
48006,note_on,0,0,5,,,,,,,,,5,,,,53,96
48010,note_on,0,0,9,,,,,,,,,13,,,,53,99
48010,note_on,480,0,9,,,,,,,,,13,,,,48,0
48010,control_change,10,0,6,,,,,,,,,10,11,69,,,
48010,control_change,0,0,9,,,,,,,,,13,11,65,,,
48011,note_on,0,0,3,,,,,,,,,3,,,,48,0
48011,control_change,0,0,3,,,,,,,,,3,11,89,,,
48011,note_on,960,0,3,,,,,,,,,3,,,,60,0
48011,note_on,0,0,3,,,,,,,,,3,,,,53,97
48012,note_on,480,0,10,,,,,,,,,14,,,,36,0
48012,control_change,0,0,10,,,,,,,,,14,11,65,,,
48012,note_on,0,0,10,,,,,,,,,14,,,,41,93
48012,control_change,10,0,7,,,,,,,,,11,11,69,,,
48016,control_change,10,0,8,,,,,,,,,12,11,69,,,
48020,control_change,10,0,6,,,,,,,,,10,11,73,,,
48020,control_change,10,0,9,,,,,,,,,13,11,69,,,
48022,control_change,10,0,7,,,,,,,,,11,11,73,,,
48022,control_change,10,0,10,,,,,,,,,14,11,69,,,
48026,control_change,10,0,8,,,,,,,,,12,11,73,,,
48030,control_change,10,0,6,,,,,,,,,10,11,77,,,
48030,control_change,10,0,9,,,,,,,,,13,11,73,,,
48032,control_change,10,0,7,,,,,,,,,11,11,77,,,
48032,control_change,10,0,10,,,,,,,,,14,11,73,,,
48036,control_change,6,0,6,,,,,,,,,10,11,80,,,
48036,control_change,10,0,8,,,,,,,,,12,11,77,,,
48038,control_change,6,0,7,,,,,,,,,11,11,80,,,
48040,control_change,10,0,9,,,,,,,,,13,11,77,,,
48042,control_change,6,0,8,,,,,,,,,12,11,80,,,
48042,control_change,10,0,10,,,,,,,,,14,11,77,,,
48046,control_change,10,0,6,,,,,,,,,10,11,84,,,
48046,control_change,6,0,9,,,,,,,,,13,11,80,,,
48048,control_change,6,0,10,,,,,,,,,14,11,80,,,
48048,control_change,10,0,7,,,,,,,,,11,11,84,,,
48052,control_change,10,0,8,,,,,,,,,12,11,84,,,
48056,control_change,10,0,9,,,,,,,,,13,11,84,,,
48056,control_change,10,0,6,,,,,,,,,10,11,88,,,
48058,control_change,10,0,10,,,,,,,,,14,11,84,,,
48058,control_change,10,0,7,,,,,,,,,11,11,88,,,
48062,control_change,10,0,8,,,,,,,,,12,11,88,,,
48066,control_change,10,0,9,,,,,,,,,13,11,88,,,
48068,control_change,10,0,10,,,,,,,,,14,11,88,,,
48135,note_on,79,0,6,,,,,,,,,10,,,,77,0
48137,note_on,0,0,7,,,,,,,,,11,,,,65,0
48137,note_on,79,0,7,,,,,,,,,11,,,,69,0
48141,note_on,79,0,8,,,,,,,,,12,,,,53,0
48145,note_on,79,0,9,,,,,,,,,13,,,,53,0
48147,note_on,79,0,10,,,,,,,,,14,,,,41,0
48173,note_on,170,0,1,,,,,,,,,0,,,,77,0
48174,note_on,170,0,4,,,,,,,,,4,,,,65,0
48175,note_on,170,0,2,,,,,,,,,1,,,,65,0
48176,note_on,170,0,5,,,,,,,,,5,,,,53,0
48180,note_on,45,0,6,,,,,,,,,10,,,,77,110
48181,note_on,170,0,3,,,,,,,,,3,,,,53,0
48182,note_on,45,0,7,,,,,,,,,11,,,,69,110
48183,note_on,10,0,1,,,,,,,,,0,,,,89,97
48184,note_on,10,0,4,,,,,,,,,4,,,,65,96
48185,note_on,10,0,2,,,,,,,,,1,,,,81,97
48185,note_on,0,0,2,,,,,,,,,1,,,,69,97
48186,note_on,10,0,5,,,,,,,,,5,,,,53,96
48186,note_on,45,0,8,,,,,,,,,12,,,,53,108
48190,note_on,45,0,9,,,,,,,,,13,,,,53,99
48191,note_on,10,0,3,,,,,,,,,3,,,,53,97
48192,note_on,45,0,10,,,,,,,,,14,,,,41,93
48215,note_on,35,0,6,,,,,,,,,10,,,,77,0
48217,note_on,35,0,7,,,,,,,,,11,,,,69,0
48221,note_on,35,0,8,,,,,,,,,12,,,,53,0
48225,note_on,35,0,9,,,,,,,,,13,,,,53,0
48227,note_on,35,0,10,,,,,,,,,14,,,,41,0
48233,note_on,50,0,1,,,,,,,,,0,,,,89,0
48234,note_on,50,0,4,,,,,,,,,4,,,,65,0
48235,note_on,50,0,2,,,,,,,,,1,,,,69,0
48235,note_on,0,0,2,,,,,,,,,1,,,,81,0
48236,note_on,50,0,5,,,,,,,,,5,,,,53,0
48240,note_on,25,0,6,,,,,,,,,10,,,,77,110
48240,set_tempo,240,1,0,,,,,,261438,,,,,,,,
48241,note_on,50,0,3,,,,,,,,,3,,,,53,0
48242,note_on,25,0,7,,,,,,,,,11,,,,70,110
48243,note_on,10,0,1,,,,,,,,,0,,,,89,97
48244,note_on,10,0,4,,,,,,,,,4,,,,65,96
48245,note_on,10,0,2,,,,,,,,,1,,,,70,97
48245,note_on,0,0,2,,,,,,,,,1,,,,82,97
48246,note_on,10,0,5,,,,,,,,,5,,,,53,96
48246,note_on,25,0,8,,,,,,,,,12,,,,55,108
48250,note_on,25,0,9,,,,,,,,,13,,,,55,99
48251,note_on,10,0,3,,,,,,,,,3,,,,55,97
48252,note_on,25,0,10,,,,,,,,,14,,,,43,93
48375,note_on,135,0,6,,,,,,,,,10,,,,77,0
48377,note_on,135,0,7,,,,,,,,,11,,,,70,0
48381,note_on,135,0,8,,,,,,,,,12,,,,55,0
48385,note_on,135,0,9,,,,,,,,,13,,,,55,0
48387,note_on,135,0,10,,,,,,,,,14,,,,43,0
48413,note_on,170,0,1,,,,,,,,,0,,,,89,0
48414,note_on,170,0,4,,,,,,,,,4,,,,65,0
48415,note_on,0,0,2,,,,,,,,,1,,,,70,0
48415,note_on,170,0,2,,,,,,,,,1,,,,82,0
48416,note_on,170,0,5,,,,,,,,,5,,,,53,0
48420,note_on,45,0,6,,,,,,,,,10,,,,77,110
48421,note_on,170,0,3,,,,,,,,,3,,,,55,0
48422,note_on,45,0,7,,,,,,,,,11,,,,70,110
48423,note_on,10,0,1,,,,,,,,,0,,,,89,97
48424,note_on,10,0,4,,,,,,,,,4,,,,65,96
48425,note_on,10,0,2,,,,,,,,,1,,,,70,97
48425,note_on,0,0,2,,,,,,,,,1,,,,82,97
48426,note_on,10,0,5,,,,,,,,,5,,,,53,96
48426,note_on,45,0,8,,,,,,,,,12,,,,55,108
48430,note_on,45,0,9,,,,,,,,,13,,,,55,99
48431,note_on,10,0,3,,,,,,,,,3,,,,55,97
48432,note_on,45,0,10,,,,,,,,,14,,,,43,93
48455,note_on,35,0,6,,,,,,,,,10,,,,77,0
48457,note_on,35,0,7,,,,,,,,,11,,,,70,0
48461,note_on,35,0,8,,,,,,,,,12,,,,55,0
48465,note_on,35,0,9,,,,,,,,,13,,,,55,0
48467,note_on,35,0,10,,,,,,,,,14,,,,43,0
48473,note_on,50,0,1,,,,,,,,,0,,,,89,0
48474,note_on,50,0,4,,,,,,,,,4,,,,65,0
48475,note_on,50,0,2,,,,,,,,,1,,,,82,0
48475,note_on,0,0,2,,,,,,,,,1,,,,70,0
48476,note_on,50,0,5,,,,,,,,,5,,,,53,0
48480,set_tempo,240,1,0,,,,,,272727,,,,,,,,
48480,note_on,25,0,6,,,,,,,,,10,,,,77,110
48481,note_on,50,0,3,,,,,,,,,3,,,,55,0
48482,note_on,25,0,7,,,,,,,,,11,,,,71,110
48483,note_on,10,0,1,,,,,,,,,0,,,,89,97
48484,note_on,10,0,4,,,,,,,,,4,,,,65,96
48485,note_on,10,0,2,,,,,,,,,1,,,,83,97
48485,note_on,0,0,2,,,,,,,,,1,,,,71,97
48486,note_on,10,0,5,,,,,,,,,5,,,,53,96
48486,note_on,25,0,8,,,,,,,,,12,,,,56,108
48490,note_on,25,0,9,,,,,,,,,13,,,,56,99
48491,note_on,10,0,3,,,,,,,,,3,,,,56,97
48492,note_on,25,0,10,,,,,,,,,14,,,,44,93
48615,note_on,135,0,6,,,,,,,,,10,,,,77,0
48617,note_on,135,0,7,,,,,,,,,11,,,,71,0
48621,note_on,135,0,8,,,,,,,,,12,,,,56,0
48625,note_on,135,0,9,,,,,,,,,13,,,,56,0
48627,note_on,135,0,10,,,,,,,,,14,,,,44,0
48653,note_on,170,0,1,,,,,,,,,0,,,,89,0
48654,note_on,170,0,4,,,,,,,,,4,,,,65,0
48655,note_on,0,0,2,,,,,,,,,1,,,,83,0
48655,note_on,170,0,2,,,,,,,,,1,,,,71,0
48656,note_on,170,0,5,,,,,,,,,5,,,,53,0
48660,note_on,45,0,6,,,,,,,,,10,,,,77,110
48661,note_on,170,0,3,,,,,,,,,3,,,,56,0
48662,note_on,45,0,7,,,,,,,,,11,,,,71,110
48663,note_on,10,0,1,,,,,,,,,0,,,,89,97
48664,note_on,10,0,4,,,,,,,,,4,,,,65,96
48665,note_on,0,0,2,,,,,,,,,1,,,,71,97
48665,note_on,10,0,2,,,,,,,,,1,,,,83,97
48666,note_on,10,0,5,,,,,,,,,5,,,,53,96
48666,note_on,45,0,8,,,,,,,,,12,,,,56,108
48670,note_on,45,0,9,,,,,,,,,13,,,,56,99
48671,note_on,10,0,3,,,,,,,,,3,,,,56,97
48672,note_on,45,0,10,,,,,,,,,14,,,,44,93
48695,note_on,35,0,6,,,,,,,,,10,,,,77,0
48697,note_on,35,0,7,,,,,,,,,11,,,,71,0
48701,note_on,35,0,8,,,,,,,,,12,,,,56,0
48705,note_on,35,0,9,,,,,,,,,13,,,,56,0
48707,note_on,35,0,10,,,,,,,,,14,,,,44,0
48713,note_on,50,0,1,,,,,,,,,0,,,,89,0
48714,note_on,50,0,4,,,,,,,,,4,,,,65,0
48715,note_on,0,0,2,,,,,,,,,1,,,,83,0
48715,note_on,50,0,2,,,,,,,,,1,,,,71,0
48716,note_on,50,0,5,,,,,,,,,5,,,,53,0
48720,set_tempo,240,1,0,,,,,,261438,,,,,,,,
48720,note_on,25,0,6,,,,,,,,,10,,,,77,110
48721,note_on,50,0,3,,,,,,,,,3,,,,56,0
48722,note_on,25,0,7,,,,,,,,,11,,,,72,110
48723,note_on,10,0,1,,,,,,,,,0,,,,89,97
48724,note_on,10,0,4,,,,,,,,,4,,,,65,96
48725,note_on,0,0,2,,,,,,,,,1,,,,84,97
48725,note_on,10,0,2,,,,,,,,,1,,,,72,97
48726,note_on,25,0,8,,,,,,,,,12,,,,57,108
48726,note_on,10,0,5,,,,,,,,,5,,,,53,96
48730,note_on,25,0,9,,,,,,,,,13,,,,57,99
48731,note_on,10,0,3,,,,,,,,,3,,,,57,97
48732,note_on,25,0,10,,,,,,,,,14,,,,45,93
48855,note_on,135,0,6,,,,,,,,,10,,,,77,0
48857,note_on,135,0,7,,,,,,,,,11,,,,72,0
48861,note_on,135,0,8,,,,,,,,,12,,,,57,0
48865,note_on,135,0,9,,,,,,,,,13,,,,57,0
48867,note_on,135,0,10,,,,,,,,,14,,,,45,0
48893,note_on,170,0,1,,,,,,,,,0,,,,89,0
48894,note_on,170,0,4,,,,,,,,,4,,,,65,0
48895,note_on,170,0,2,,,,,,,,,1,,,,84,0
48895,note_on,0,0,2,,,,,,,,,1,,,,72,0
48896,note_on,170,0,5,,,,,,,,,5,,,,53,0
48900,note_on,45,0,6,,,,,,,,,10,,,,77,110
48901,note_on,170,0,3,,,,,,,,,3,,,,57,0
48902,note_on,45,0,7,,,,,,,,,11,,,,72,110
48903,note_on,10,0,1,,,,,,,,,0,,,,89,97
48904,note_on,10,0,4,,,,,,,,,4,,,,65,96
48905,note_on,0,0,2,,,,,,,,,1,,,,84,97
48905,note_on,10,0,2,,,,,,,,,1,,,,72,97
48906,note_on,10,0,5,,,,,,,,,5,,,,53,96
48906,note_on,45,0,8,,,,,,,,,12,,,,57,108
48910,note_on,45,0,9,,,,,,,,,13,,,,57,99
48911,note_on,10,0,3,,,,,,,,,3,,,,57,97
48912,note_on,45,0,10,,,,,,,,,14,,,,45,93
48935,note_on,35,0,6,,,,,,,,,10,,,,77,0
48937,note_on,35,0,7,,,,,,,,,11,,,,72,0
48941,note_on,35,0,8,,,,,,,,,12,,,,57,0
48945,note_on,35,0,9,,,,,,,,,13,,,,57,0
48947,note_on,35,0,10,,,,,,,,,14,,,,45,0
48953,note_on,50,0,1,,,,,,,,,0,,,,89,0
48954,note_on,50,0,4,,,,,,,,,4,,,,65,0
48955,note_on,50,0,2,,,,,,,,,1,,,,84,0
48955,note_on,0,0,2,,,,,,,,,1,,,,72,0
48956,note_on,50,0,5,,,,,,,,,5,,,,53,0
48960,set_tempo,240,1,0,,,,,,272727,,,,,,,,
48960,note_on,25,0,6,,,,,,,,,10,,,,77,110
48961,note_on,50,0,3,,,,,,,,,3,,,,57,0
48962,note_on,25,0,7,,,,,,,,,11,,,,73,110
48963,note_on,10,0,1,,,,,,,,,0,,,,89,97
48964,note_on,10,0,4,,,,,,,,,4,,,,65,96
48965,note_on,10,0,2,,,,,,,,,1,,,,85,97
48965,note_on,0,0,2,,,,,,,,,1,,,,73,97
48966,note_on,25,0,8,,,,,,,,,12,,,,58,108
48966,note_on,10,0,5,,,,,,,,,5,,,,53,96
48970,note_on,25,0,9,,,,,,,,,13,,,,58,99
48971,note_on,10,0,3,,,,,,,,,3,,,,58,97
48972,note_on,25,0,10,,,,,,,,,14,,,,46,93
49095,note_on,135,0,6,,,,,,,,,10,,,,77,0
49097,note_on,135,0,7,,,,,,,,,11,,,,73,0
49101,note_on,135,0,8,,,,,,,,,12,,,,58,0
49105,note_on,135,0,9,,,,,,,,,13,,,,58,0
49107,note_on,135,0,10,,,,,,,,,14,,,,46,0
49133,note_on,170,0,1,,,,,,,,,0,,,,89,0
49134,note_on,170,0,4,,,,,,,,,4,,,,65,0
49135,note_on,0,0,2,,,,,,,,,1,,,,85,0
49135,note_on,170,0,2,,,,,,,,,1,,,,73,0
49136,note_on,170,0,5,,,,,,,,,5,,,,53,0
49140,note_on,45,0,6,,,,,,,,,10,,,,77,110
49141,note_on,170,0,3,,,,,,,,,3,,,,58,0
49142,note_on,45,0,7,,,,,,,,,11,,,,73,110
49143,note_on,10,0,1,,,,,,,,,0,,,,89,97
49144,note_on,10,0,4,,,,,,,,,4,,,,65,96
49145,note_on,0,0,2,,,,,,,,,1,,,,85,97
49145,note_on,10,0,2,,,,,,,,,1,,,,73,97
49146,note_on,10,0,5,,,,,,,,,5,,,,53,96
49146,note_on,45,0,8,,,,,,,,,12,,,,58,108
49150,note_on,45,0,9,,,,,,,,,13,,,,58,99
49151,note_on,10,0,3,,,,,,,,,3,,,,58,97
49152,note_on,45,0,10,,,,,,,,,14,,,,46,93
49175,note_on,35,0,6,,,,,,,,,10,,,,77,0
49177,note_on,35,0,7,,,,,,,,,11,,,,73,0
49181,note_on,35,0,8,,,,,,,,,12,,,,58,0
49185,note_on,35,0,9,,,,,,,,,13,,,,58,0
49187,note_on,35,0,10,,,,,,,,,14,,,,46,0
49193,note_on,50,0,1,,,,,,,,,0,,,,89,0
49194,note_on,50,0,4,,,,,,,,,4,,,,65,0
49195,note_on,0,0,2,,,,,,,,,1,,,,73,0
49195,note_on,50,0,2,,,,,,,,,1,,,,85,0
49196,note_on,50,0,5,,,,,,,,,5,,,,53,0
49200,note_on,25,0,6,,,,,,,,,10,,,,77,110
49200,set_tempo,240,1,0,,,,,,261438,,,,,,,,
49201,note_on,50,0,3,,,,,,,,,3,,,,58,0
49202,note_on,25,0,7,,,,,,,,,11,,,,69,110
49203,note_on,10,0,1,,,,,,,,,0,,,,89,97
49204,note_on,10,0,4,,,,,,,,,4,,,,65,96
49205,note_on,10,0,2,,,,,,,,,1,,,,69,97
49205,note_on,0,0,2,,,,,,,,,1,,,,81,97
49206,note_on,25,0,8,,,,,,,,,12,,,,60,108
49206,note_on,10,0,5,,,,,,,,,5,,,,53,96
49210,note_on,25,0,9,,,,,,,,,13,,,,60,99
49211,note_on,10,0,3,,,,,,,,,3,,,,60,97
49212,note_on,25,0,10,,,,,,,,,14,,,,48,93
49335,note_on,135,0,6,,,,,,,,,10,,,,77,0
49337,note_on,135,0,7,,,,,,,,,11,,,,69,0
49341,note_on,135,0,8,,,,,,,,,12,,,,60,0
49345,note_on,135,0,9,,,,,,,,,13,,,,60,0
49347,note_on,135,0,10,,,,,,,,,14,,,,48,0
49373,note_on,170,0,1,,,,,,,,,0,,,,89,0
49374,note_on,170,0,4,,,,,,,,,4,,,,65,0
49375,note_on,170,0,2,,,,,,,,,1,,,,81,0
49375,note_on,0,0,2,,,,,,,,,1,,,,69,0
49376,note_on,170,0,5,,,,,,,,,5,,,,53,0
49380,note_on,45,0,6,,,,,,,,,10,,,,77,110
49381,note_on,170,0,3,,,,,,,,,3,,,,60,0
49382,note_on,45,0,7,,,,,,,,,11,,,,69,110
49383,note_on,10,0,1,,,,,,,,,0,,,,89,97
49384,note_on,10,0,4,,,,,,,,,4,,,,65,96
49385,note_on,0,0,2,,,,,,,,,1,,,,81,97
49385,note_on,10,0,2,,,,,,,,,1,,,,69,97
49386,note_on,45,0,8,,,,,,,,,12,,,,60,108
49386,note_on,10,0,5,,,,,,,,,5,,,,53,96
49390,note_on,45,0,9,,,,,,,,,13,,,,60,99
49391,note_on,10,0,3,,,,,,,,,3,,,,60,97
49392,note_on,45,0,10,,,,,,,,,14,,,,48,93
49415,note_on,35,0,6,,,,,,,,,10,,,,77,0
49417,note_on,35,0,7,,,,,,,,,11,,,,69,0
49421,note_on,35,0,8,,,,,,,,,12,,,,60,0
49425,note_on,35,0,9,,,,,,,,,13,,,,60,0
49427,note_on,35,0,10,,,,,,,,,14,,,,48,0
49433,note_on,50,0,1,,,,,,,,,0,,,,89,0
49434,note_on,50,0,4,,,,,,,,,4,,,,65,0
49435,note_on,50,0,2,,,,,,,,,1,,,,81,0
49435,note_on,0,0,2,,,,,,,,,1,,,,69,0
49436,note_on,50,0,5,,,,,,,,,5,,,,53,0
49440,note_on,25,0,6,,,,,,,,,10,,,,77,110
49440,set_tempo,240,1,0,,,,,,272727,,,,,,,,
49441,note_on,50,0,3,,,,,,,,,3,,,,60,0
49442,note_on,25,0,7,,,,,,,,,11,,,,70,110
49443,note_on,10,0,1,,,,,,,,,0,,,,89,97
49444,note_on,10,0,4,,,,,,,,,4,,,,65,96
49445,note_on,10,0,2,,,,,,,,,1,,,,70,97
49445,note_on,0,0,2,,,,,,,,,1,,,,82,97
49446,note_on,25,0,8,,,,,,,,,12,,,,61,108
49446,note_on,10,0,5,,,,,,,,,5,,,,53,96
49450,note_on,25,0,9,,,,,,,,,13,,,,61,99
49451,note_on,10,0,3,,,,,,,,,3,,,,61,97
49452,note_on,25,0,10,,,,,,,,,14,,,,49,93
49575,note_on,135,0,6,,,,,,,,,10,,,,77,0
49577,note_on,135,0,7,,,,,,,,,11,,,,70,0
49581,note_on,135,0,8,,,,,,,,,12,,,,61,0
49585,note_on,135,0,9,,,,,,,,,13,,,,61,0
49587,note_on,135,0,10,,,,,,,,,14,,,,49,0
49613,note_on,170,0,1,,,,,,,,,0,,,,89,0
49614,note_on,170,0,4,,,,,,,,,4,,,,65,0
49615,note_on,0,0,2,,,,,,,,,1,,,,70,0
49615,note_on,170,0,2,,,,,,,,,1,,,,82,0
49616,note_on,170,0,5,,,,,,,,,5,,,,53,0
49620,note_on,45,0,6,,,,,,,,,10,,,,77,110
49621,note_on,170,0,3,,,,,,,,,3,,,,61,0
49622,note_on,45,0,7,,,,,,,,,11,,,,70,110
49623,note_on,10,0,1,,,,,,,,,0,,,,89,97
49624,note_on,10,0,4,,,,,,,,,4,,,,65,96
49625,note_on,0,0,2,,,,,,,,,1,,,,82,97
49625,note_on,10,0,2,,,,,,,,,1,,,,70,97
49626,note_on,10,0,5,,,,,,,,,5,,,,53,96
49626,note_on,45,0,8,,,,,,,,,12,,,,61,108
49630,note_on,45,0,9,,,,,,,,,13,,,,61,99
49631,note_on,10,0,3,,,,,,,,,3,,,,61,97
49632,note_on,45,0,10,,,,,,,,,14,,,,49,93
49655,note_on,35,0,6,,,,,,,,,10,,,,77,0
49657,note_on,35,0,7,,,,,,,,,11,,,,70,0
49661,note_on,35,0,8,,,,,,,,,12,,,,61,0
49665,note_on,35,0,9,,,,,,,,,13,,,,61,0
49667,note_on,35,0,10,,,,,,,,,14,,,,49,0
49673,note_on,50,0,1,,,,,,,,,0,,,,89,0
49674,note_on,50,0,4,,,,,,,,,4,,,,65,0
49675,note_on,50,0,2,,,,,,,,,1,,,,82,0
49675,note_on,0,0,2,,,,,,,,,1,,,,70,0
49676,note_on,50,0,5,,,,,,,,,5,,,,53,0
49680,set_tempo,240,1,0,,,,,,261438,,,,,,,,
49680,note_on,25,0,6,,,,,,,,,10,,,,77,110
49681,note_on,50,0,3,,,,,,,,,3,,,,61,0
49682,note_on,25,0,7,,,,,,,,,11,,,,71,110
49683,note_on,10,0,1,,,,,,,,,0,,,,89,97
49684,note_on,10,0,4,,,,,,,,,4,,,,65,96
49685,note_on,10,0,2,,,,,,,,,1,,,,83,97
49685,note_on,0,0,2,,,,,,,,,1,,,,71,97
49686,note_on,10,0,5,,,,,,,,,5,,,,53,96
49686,note_on,25,0,8,,,,,,,,,12,,,,62,108
49690,note_on,25,0,9,,,,,,,,,13,,,,62,99
49691,note_on,10,0,3,,,,,,,,,3,,,,62,97
49692,note_on,25,0,10,,,,,,,,,14,,,,50,93
49800,control_change,120,0,6,,,,,,,,,10,11,89,,,
49802,control_change,120,0,7,,,,,,,,,11,11,89,,,
49803,control_change,120,0,1,,,,,,,,,0,11,89,,,
49805,control_change,120,0,2,,,,,,,,,1,11,89,,,
49806,control_change,120,0,8,,,,,,,,,12,11,89,,,
49810,control_change,120,0,9,,,,,,,,,13,11,89,,,
49811,control_change,120,0,3,,,,,,,,,3,11,89,,,
49812,control_change,12,0,6,,,,,,,,,10,11,85,,,
49812,control_change,120,0,10,,,,,,,,,14,11,89,,,
49814,control_change,12,0,7,,,,,,,,,11,11,85,,,
49815,note_on,3,0,6,,,,,,,,,10,,,,77,0
49817,note_on,3,0,7,,,,,,,,,11,,,,71,0
49818,control_change,15,0,1,,,,,,,,,0,11,85,,,
49818,control_change,12,0,8,,,,,,,,,12,11,85,,,
49820,control_change,15,0,2,,,,,,,,,1,11,85,,,
49821,note_on,3,0,8,,,,,,,,,12,,,,62,0
49822,control_change,12,0,9,,,,,,,,,13,11,85,,,
49823,control_change,12,0,3,,,,,,,,,3,11,85,,,
49824,control_change,12,0,10,,,,,,,,,14,11,85,,,
49825,control_change,10,0,6,,,,,,,,,10,11,81,,,
49825,note_on,3,0,9,,,,,,,,,13,,,,62,0
49827,control_change,10,0,7,,,,,,,,,11,11,81,,,
49827,note_on,3,0,10,,,,,,,,,14,,,,50,0
49831,control_change,10,0,8,,,,,,,,,12,11,81,,,
49834,control_change,16,0,1,,,,,,,,,0,11,81,,,
49835,control_change,10,0,9,,,,,,,,,13,11,81,,,
49836,control_change,16,0,2,,,,,,,,,1,11,81,,,
49836,control_change,13,0,3,,,,,,,,,3,11,81,,,
49837,control_change,10,0,10,,,,,,,,,14,11,81,,,
49838,control_change,13,0,6,,,,,,,,,10,11,77,,,
49840,control_change,13,0,7,,,,,,,,,11,11,77,,,
49844,control_change,13,0,8,,,,,,,,,12,11,77,,,
49848,control_change,13,0,9,,,,,,,,,13,11,77,,,
49849,control_change,13,0,3,,,,,,,,,3,11,77,,,
49850,control_change,13,0,10,,,,,,,,,14,11,77,,,
49850,control_change,16,0,1,,,,,,,,,0,11,77,,,
49851,control_change,13,0,6,,,,,,,,,10,11,73,,,
49852,control_change,16,0,2,,,,,,,,,1,11,77,,,
49853,control_change,13,0,7,,,,,,,,,11,11,73,,,
49853,note_on,3,0,1,,,,,,,,,0,,,,89,0
49855,note_on,3,0,2,,,,,,,,,1,,,,71,0
49855,note_on,0,0,2,,,,,,,,,1,,,,83,0
49857,control_change,13,0,8,,,,,,,,,12,11,73,,,
49860,note_on,9,0,6,,,,,,,,,10,,,,77,110
49860,set_tempo,180,1,0,,,,,,314136,,,,,,,,
49861,control_change,13,0,9,,,,,,,,,13,11,73,,,
49861,note_on,12,0,3,,,,,,,,,3,,,,62,0
49862,note_on,9,0,7,,,,,,,,,11,,,,71,110
49862,control_change,1,0,3,,,,,,,,,3,11,73,,,
49863,note_on,10,0,1,,,,,,,,,0,,,,89,97
49863,control_change,13,0,10,,,,,,,,,14,11,73,,,
49864,control_change,4,0,6,,,,,,,,,10,11,68,,,
49865,note_on,10,0,2,,,,,,,,,1,,,,83,97
49865,note_on,0,0,2,,,,,,,,,1,,,,71,97
49866,note_on,9,0,8,,,,,,,,,12,,,,62,108
49866,control_change,4,0,7,,,,,,,,,11,11,68,,,
49866,control_change,3,0,1,,,,,,,,,0,11,73,,,
49868,control_change,3,0,2,,,,,,,,,1,11,73,,,
49870,control_change,4,0,8,,,,,,,,,12,11,68,,,
49870,note_on,9,0,9,,,,,,,,,13,,,,62,99
49871,note_on,9,0,3,,,,,,,,,3,,,,62,97
49872,note_on,9,0,10,,,,,,,,,14,,,,50,93
49874,control_change,4,0,9,,,,,,,,,13,11,68,,,
49875,control_change,4,0,3,,,,,,,,,3,11,68,,,
49876,control_change,4,0,10,,,,,,,,,14,11,68,,,
49877,control_change,13,0,6,,,,,,,,,10,11,64,,,
49879,control_change,13,0,7,,,,,,,,,11,11,64,,,
49882,control_change,16,0,1,,,,,,,,,0,11,68,,,
49883,control_change,13,0,8,,,,,,,,,12,11,64,,,
49884,control_change,16,0,2,,,,,,,,,1,11,68,,,
49887,control_change,13,0,9,,,,,,,,,13,11,64,,,
49888,control_change,13,0,3,,,,,,,,,3,11,64,,,
49889,control_change,13,0,10,,,,,,,,,14,11,64,,,
49890,note_on,13,0,6,,,,,,,,,10,,,,77,0
49890,control_change,0,0,6,,,,,,,,,10,11,60,,,
49892,note_on,13,0,7,,,,,,,,,11,,,,71,0
49892,control_change,0,0,7,,,,,,,,,11,11,60,,,
49896,control_change,0,0,8,,,,,,,,,12,11,60,,,
49896,note_on,13,0,8,,,,,,,,,12,,,,62,0
49897,control_change,7,0,6,,,,,,,,,10,11,57,,,
49898,control_change,16,0,1,,,,,,,,,0,11,64,,,
49899,control_change,7,0,7,,,,,,,,,11,11,57,,,
49900,control_change,16,0,2,,,,,,,,,1,11,64,,,
49900,control_change,13,0,9,,,,,,,,,13,11,60,,,
49901,control_change,13,0,3,,,,,,,,,3,11,60,,,
49902,control_change,13,0,10,,,,,,,,,14,11,60,,,
49903,control_change,6,0,6,,,,,,,,,10,11,54,,,
49903,control_change,7,0,8,,,,,,,,,12,11,57,,,
49905,note_on,5,0,9,,,,,,,,,13,,,,62,0
49905,control_change,6,0,7,,,,,,,,,11,11,54,,,
49907,control_change,2,0,9,,,,,,,,,13,11,57,,,
49907,note_on,5,0,10,,,,,,,,,14,,,,50,0
49908,control_change,7,0,3,,,,,,,,,3,11,57,,,
49909,control_change,6,0,8,,,,,,,,,12,11,54,,,
49909,control_change,2,0,10,,,,,,,,,14,11,57,,,
49910,control_change,7,0,6,,,,,,,,,10,11,51,,,
49912,control_change,7,0,7,,,,,,,,,11,11,51,,,
49913,control_change,6,0,9,,,,,,,,,13,11,54,,,
49913,note_on,15,0,1,,,,,,,,,0,,,,89,0
49914,control_change,6,0,3,,,,,,,,,3,11,54,,,
49914,control_change,1,0,1,,,,,,,,,0,11,60,,,
49915,control_change,6,0,10,,,,,,,,,14,11,54,,,
49915,note_on,15,0,2,,,,,,,,,1,,,,71,0
49915,note_on,0,0,2,,,,,,,,,1,,,,83,0
49916,control_change,6,0,6,,,,,,,,,10,11,48,,,
49916,control_change,7,0,8,,,,,,,,,12,11,51,,,
49916,control_change,1,0,2,,,,,,,,,1,11,60,,,
49918,control_change,6,0,7,,,,,,,,,11,11,48,,,
49920,note_on,4,0,6,,,,,,,,,10,,,,75,110
49920,control_change,7,0,9,,,,,,,,,13,11,51,,,
49920,set_tempo,60,1,0,,,,,,279720,,,,,,,,
49921,control_change,0,0,3,,,,,,,,,3,11,51,,,
49921,note_on,7,0,3,,,,,,,,,3,,,,62,0
49922,control_change,8,0,1,,,,,,,,,0,11,57,,,
49922,note_on,4,0,7,,,,,,,,,11,,,,72,110
49922,control_change,6,0,8,,,,,,,,,12,11,48,,,
49922,control_change,7,0,10,,,,,,,,,14,11,51,,,
49923,note_on,1,0,1,,,,,,,,,0,,,,87,97
49924,control_change,8,0,2,,,,,,,,,1,11,57,,,
49924,note_on,240,0,4,,,,,,,,,4,,,,65,0
49925,note_on,0,0,2,,,,,,,,,1,,,,84,97
49925,note_on,1,0,2,,,,,,,,,1,,,,75,97
49926,note_on,4,0,8,,,,,,,,,12,,,,63,108
49926,note_on,240,0,5,,,,,,,,,5,,,,53,0
49926,control_change,6,0,9,,,,,,,,,13,11,48,,,
49927,control_change,6,0,3,,,,,,,,,3,11,48,,,
49928,control_change,6,0,10,,,,,,,,,14,11,48,,,
49930,note_on,4,0,9,,,,,,,,,13,,,,63,99
49931,note_on,4,0,3,,,,,,,,,3,,,,51,97
49932,note_on,4,0,10,,,,,,,,,14,,,,51,93
49959,note_on,39,0,6,,,,,,,,,10,,,,75,0
49961,note_on,39,0,7,,,,,,,,,11,,,,72,0
49965,note_on,39,0,8,,,,,,,,,12,,,,63,0
49980,note_on,21,0,6,,,,,,,,,10,,,,75,101
49982,note_on,21,0,7,,,,,,,,,11,,,,72,101
49986,note_on,21,0,8,,,,,,,,,12,,,,63,99
50019,note_on,39,0,6,,,,,,,,,10,,,,75,0
50021,note_on,39,0,7,,,,,,,,,11,,,,72,0
50025,note_on,39,0,8,,,,,,,,,12,,,,63,0
50040,note_on,21,0,6,,,,,,,,,10,,,,75,110
50042,note_on,21,0,7,,,,,,,,,11,,,,72,110
50046,note_on,21,0,8,,,,,,,,,12,,,,63,108
50079,note_on,39,0,6,,,,,,,,,10,,,,75,0
50081,note_on,39,0,7,,,,,,,,,11,,,,72,0
50085,note_on,39,0,8,,,,,,,,,12,,,,63,0
50100,note_on,21,0,6,,,,,,,,,10,,,,75,101
50102,note_on,21,0,7,,,,,,,,,11,,,,72,101
50106,note_on,21,0,8,,,,,,,,,12,,,,63,99
50139,note_on,39,0,6,,,,,,,,,10,,,,75,0
50141,note_on,39,0,7,,,,,,,,,11,,,,72,0
50145,note_on,39,0,8,,,,,,,,,12,,,,63,0
50160,set_tempo,240,1,0,,,,,,268456,,,,,,,,
50160,note_on,21,0,6,,,,,,,,,10,,,,73,110
50162,note_on,21,0,7,,,,,,,,,11,,,,70,110
50163,note_on,240,0,1,,,,,,,,,0,,,,87,0
50163,note_on,0,0,1,,,,,,,,,0,,,,85,97
50165,note_on,0,0,2,,,,,,,,,1,,,,75,0
50165,note_on,0,0,2,,,,,,,,,1,,,,82,97
50165,note_on,0,0,2,,,,,,,,,1,,,,73,97
50165,note_on,240,0,2,,,,,,,,,1,,,,84,0
50166,note_on,21,0,8,,,,,,,,,12,,,,67,108
50170,note_on,240,0,9,,,,,,,,,13,,,,63,0
50170,note_on,0,0,9,,,,,,,,,13,,,,64,99
50171,note_on,240,0,3,,,,,,,,,3,,,,51,0
50171,note_on,0,0,3,,,,,,,,,3,,,,52,97
50172,note_on,0,0,10,,,,,,,,,14,,,,52,93
50172,note_on,240,0,10,,,,,,,,,14,,,,51,0
50199,note_on,39,0,6,,,,,,,,,10,,,,73,0
50201,note_on,39,0,7,,,,,,,,,11,,,,70,0
50205,note_on,39,0,8,,,,,,,,,12,,,,67,0
50220,note_on,21,0,6,,,,,,,,,10,,,,73,101
50222,note_on,21,0,7,,,,,,,,,11,,,,70,101
50226,note_on,21,0,8,,,,,,,,,12,,,,67,99
50259,note_on,39,0,6,,,,,,,,,10,,,,73,0
50261,note_on,39,0,7,,,,,,,,,11,,,,70,0
50265,note_on,39,0,8,,,,,,,,,12,,,,67,0
50280,note_on,21,0,6,,,,,,,,,10,,,,73,110
50282,note_on,21,0,7,,,,,,,,,11,,,,70,110
50286,note_on,21,0,8,,,,,,,,,12,,,,67,108
50319,note_on,39,0,6,,,,,,,,,10,,,,73,0
50321,note_on,39,0,7,,,,,,,,,11,,,,70,0
50325,note_on,39,0,8,,,,,,,,,12,,,,67,0
50340,note_on,21,0,6,,,,,,,,,10,,,,73,101
50342,note_on,21,0,7,,,,,,,,,11,,,,70,101
50346,note_on,21,0,8,,,,,,,,,12,,,,67,99
50379,note_on,39,0,6,,,,,,,,,10,,,,73,0
50381,note_on,39,0,7,,,,,,,,,11,,,,70,0
50385,note_on,39,0,8,,,,,,,,,12,,,,67,0
50400,set_tempo,240,1,0,,,,,,279720,,,,,,,,
50400,note_on,21,0,6,,,,,,,,,10,,,,72,110
50402,note_on,21,0,7,,,,,,,,,11,,,,68,110
50403,note_on,240,0,1,,,,,,,,,0,,,,85,0
50403,note_on,0,0,1,,,,,,,,,0,,,,84,97
50405,note_on,0,0,2,,,,,,,,,1,,,,82,0
50405,note_on,240,0,2,,,,,,,,,1,,,,73,0
50405,note_on,0,0,2,,,,,,,,,1,,,,72,97
50405,note_on,0,0,2,,,,,,,,,1,,,,80,97
50406,note_on,21,0,8,,,,,,,,,12,,,,68,108
50410,note_on,0,0,9,,,,,,,,,13,,,,65,99
50410,note_on,240,0,9,,,,,,,,,13,,,,64,0
50411,note_on,240,0,3,,,,,,,,,3,,,,52,0
50411,note_on,0,0,3,,,,,,,,,3,,,,53,97
50412,note_on,240,0,10,,,,,,,,,14,,,,52,0
50412,note_on,0,0,10,,,,,,,,,14,,,,53,93
50439,note_on,39,0,6,,,,,,,,,10,,,,72,0
50441,note_on,39,0,7,,,,,,,,,11,,,,68,0
50445,note_on,39,0,8,,,,,,,,,12,,,,68,0
50460,note_on,21,0,6,,,,,,,,,10,,,,72,101
50462,note_on,21,0,7,,,,,,,,,11,,,,68,101
50466,note_on,21,0,8,,,,,,,,,12,,,,68,99
50499,note_on,39,0,6,,,,,,,,,10,,,,72,0
50501,note_on,39,0,7,,,,,,,,,11,,,,68,0
50505,note_on,39,0,8,,,,,,,,,12,,,,68,0
50520,note_on,21,0,6,,,,,,,,,10,,,,72,110
50522,note_on,21,0,7,,,,,,,,,11,,,,68,110
50526,note_on,21,0,8,,,,,,,,,12,,,,68,108
50559,note_on,39,0,6,,,,,,,,,10,,,,72,0
50561,note_on,39,0,7,,,,,,,,,11,,,,68,0
50565,note_on,39,0,8,,,,,,,,,12,,,,68,0
50580,note_on,21,0,6,,,,,,,,,10,,,,72,101
50582,note_on,21,0,7,,,,,,,,,11,,,,68,101
50586,note_on,21,0,8,,,,,,,,,12,,,,68,99
50619,note_on,39,0,6,,,,,,,,,10,,,,72,0
50621,note_on,39,0,7,,,,,,,,,11,,,,68,0
50625,note_on,39,0,8,,,,,,,,,12,,,,68,0
50640,set_tempo,240,1,0,,,,,,268456,,,,,,,,
50640,note_on,21,0,6,,,,,,,,,10,,,,70,110
50642,note_on,21,0,7,,,,,,,,,11,,,,67,110
50643,note_on,240,0,1,,,,,,,,,0,,,,84,0
50643,note_on,0,0,1,,,,,,,,,0,,,,82,97
50645,note_on,240,0,2,,,,,,,,,1,,,,72,0
50645,note_on,0,0,2,,,,,,,,,1,,,,79,97
50645,note_on,0,0,2,,,,,,,,,1,,,,80,0
50645,note_on,0,0,2,,,,,,,,,1,,,,70,97
50646,note_on,21,0,8,,,,,,,,,12,,,,61,108
50650,note_on,0,0,9,,,,,,,,,13,,,,58,99
50650,note_on,240,0,9,,,,,,,,,13,,,,65,0
50651,note_on,240,0,3,,,,,,,,,3,,,,53,0
50651,note_on,0,0,3,,,,,,,,,3,,,,46,97
50651,note_on,0,0,3,,,,,,,,,3,,,,58,97
50652,note_on,240,0,10,,,,,,,,,14,,,,53,0
50652,note_on,0,0,10,,,,,,,,,14,,,,46,93
50679,note_on,39,0,6,,,,,,,,,10,,,,70,0
50681,note_on,39,0,7,,,,,,,,,11,,,,67,0
50685,note_on,39,0,8,,,,,,,,,12,,,,61,0
50700,note_on,21,0,6,,,,,,,,,10,,,,70,101
50702,note_on,21,0,7,,,,,,,,,11,,,,67,101
50706,note_on,21,0,8,,,,,,,,,12,,,,61,99
50739,note_on,39,0,6,,,,,,,,,10,,,,70,0
50741,note_on,39,0,7,,,,,,,,,11,,,,67,0
50745,note_on,39,0,8,,,,,,,,,12,,,,61,0
50760,note_on,21,0,6,,,,,,,,,10,,,,70,110
50762,note_on,21,0,7,,,,,,,,,11,,,,67,110
50766,note_on,21,0,8,,,,,,,,,12,,,,61,108
50799,note_on,39,0,6,,,,,,,,,10,,,,70,0
50801,note_on,39,0,7,,,,,,,,,11,,,,67,0
50805,note_on,39,0,8,,,,,,,,,12,,,,61,0
50820,note_on,21,0,6,,,,,,,,,10,,,,70,101
50822,note_on,21,0,7,,,,,,,,,11,,,,67,101
50826,note_on,21,0,8,,,,,,,,,12,,,,61,99
50859,note_on,39,0,6,,,,,,,,,10,,,,70,0
50861,note_on,39,0,7,,,,,,,,,11,,,,67,0
50865,note_on,39,0,8,,,,,,,,,12,,,,61,0
50880,set_tempo,240,1,0,,,,,,279720,,,,,,,,
50880,note_on,21,0,6,,,,,,,,,10,,,,69,110
50882,note_on,21,0,7,,,,,,,,,11,,,,65,110
50883,note_on,0,0,1,,,,,,,,,0,,,,81,110
50883,control_change,0,0,1,,,,,,,,,0,11,65,,,
50883,note_on,240,0,1,,,,,,,,,0,,,,82,0
50884,note_on,0,0,4,,,,,,,,,4,,,,60,109
50884,control_change,960,0,4,,,,,,,,,4,11,47,,,
50885,note_on,0,0,2,,,,,,,,,1,,,,72,110
50885,note_on,235,0,9,,,,,,,,,13,,,,58,0
50885,note_on,0,0,2,,,,,,,,,1,,,,79,0
50885,note_on,240,0,2,,,,,,,,,1,,,,70,0
50885,control_change,0,0,2,,,,,,,,,1,11,65,,,
50886,note_on,21,0,8,,,,,,,,,12,,,,60,108
50886,note_on,0,0,5,,,,,,,,,5,,,,60,109
50886,control_change,960,0,5,,,,,,,,,5,11,47,,,
50887,note_on,235,0,10,,,,,,,,,14,,,,46,0
50890,note_on,5,0,9,,,,,,,,,13,,,,60,114
50891,note_on,0,0,3,,,,,,,,,3,,,,48,110
50891,note_on,0,0,3,,,,,,,,,3,,,,60,110
50891,note_on,0,0,3,,,,,,,,,3,,,,46,0
50891,note_on,240,0,3,,,,,,,,,3,,,,58,0
50892,note_on,5,0,10,,,,,,,,,14,,,,48,108
50919,note_on,39,0,6,,,,,,,,,10,,,,69,0
50921,note_on,39,0,7,,,,,,,,,11,,,,65,0
50925,note_on,39,0,8,,,,,,,,,12,,,,60,0
50925,control_change,42,0,1,,,,,,,,,0,11,64,,,
50927,control_change,42,0,2,,,,,,,,,1,11,64,,,
50940,note_on,21,0,6,,,,,,,,,10,,,,69,101
50942,note_on,21,0,7,,,,,,,,,11,,,,65,101
50946,note_on,21,0,8,,,,,,,,,12,,,,60,99
50967,control_change,42,0,1,,,,,,,,,0,11,64,,,
50969,control_change,42,0,2,,,,,,,,,1,11,64,,,
50979,note_on,39,0,6,,,,,,,,,10,,,,69,0
50981,note_on,39,0,7,,,,,,,,,11,,,,65,0
50985,note_on,39,0,8,,,,,,,,,12,,,,60,0
51000,note_on,21,0,6,,,,,,,,,10,,,,69,110
51002,note_on,21,0,7,,,,,,,,,11,,,,65,110
51003,note_on,0,0,1,,,,,,,,,0,,,,84,97
51003,note_on,36,0,1,,,,,,,,,0,,,,81,0
51006,note_on,21,0,8,,,,,,,,,12,,,,60,108
51009,control_change,6,0,1,,,,,,,,,0,11,63,,,
51011,control_change,42,0,2,,,,,,,,,1,11,63,,,
51039,note_on,39,0,6,,,,,,,,,10,,,,69,0
51041,note_on,39,0,7,,,,,,,,,11,,,,65,0
51045,note_on,39,0,8,,,,,,,,,12,,,,60,0
51051,control_change,42,0,1,,,,,,,,,0,11,62,,,
51053,control_change,42,0,2,,,,,,,,,1,11,62,,,
51060,note_on,21,0,6,,,,,,,,,10,,,,69,101
51062,note_on,21,0,7,,,,,,,,,11,,,,65,101
51066,note_on,21,0,8,,,,,,,,,12,,,,60,99
51093,control_change,42,0,1,,,,,,,,,0,11,62,,,
51095,control_change,42,0,2,,,,,,,,,1,11,62,,,
51099,note_on,39,0,6,,,,,,,,,10,,,,69,0
51101,note_on,39,0,7,,,,,,,,,11,,,,65,0
51105,note_on,39,0,8,,,,,,,,,12,,,,60,0
51120,note_on,21,0,6,,,,,,,,,10,,,,68,110
51120,set_tempo,240,1,0,,,,,,268456,,,,,,,,
51122,note_on,21,0,7,,,,,,,,,11,,,,65,110
51123,note_on,30,0,1,,,,,,,,,0,,,,84,0
51123,note_on,0,0,1,,,,,,,,,0,,,,82,97
51125,note_on,30,0,2,,,,,,,,,1,,,,72,0
51125,note_on,0,0,2,,,,,,,,,1,,,,70,97
51126,note_on,21,0,8,,,,,,,,,12,,,,60,108
51135,control_change,12,0,1,,,,,,,,,0,11,61,,,
51137,control_change,12,0,2,,,,,,,,,1,11,61,,,
51159,note_on,39,0,6,,,,,,,,,10,,,,68,0
51161,note_on,39,0,7,,,,,,,,,11,,,,65,0
51165,note_on,39,0,8,,,,,,,,,12,,,,60,0
51177,control_change,42,0,1,,,,,,,,,0,11,60,,,
51179,control_change,42,0,2,,,,,,,,,1,11,60,,,
51180,note_on,21,0,6,,,,,,,,,10,,,,68,101
51182,note_on,21,0,7,,,,,,,,,11,,,,65,101
51183,note_on,6,0,1,,,,,,,,,0,,,,82,0
51183,note_on,0,0,1,,,,,,,,,0,,,,80,97
51185,note_on,6,0,2,,,,,,,,,1,,,,70,0
51185,note_on,0,0,2,,,,,,,,,1,,,,68,97
51186,note_on,21,0,8,,,,,,,,,12,,,,60,99
51219,note_on,39,0,6,,,,,,,,,10,,,,68,0
51219,control_change,36,0,1,,,,,,,,,0,11,59,,,
51221,note_on,39,0,7,,,,,,,,,11,,,,65,0
51221,control_change,36,0,2,,,,,,,,,1,11,59,,,
51225,note_on,39,0,8,,,,,,,,,12,,,,60,0
51240,note_on,21,0,6,,,,,,,,,10,,,,68,110
51242,note_on,21,0,7,,,,,,,,,11,,,,65,110
51243,note_on,0,0,1,,,,,,,,,0,,,,79,97
51243,note_on,24,0,1,,,,,,,,,0,,,,80,0
51245,note_on,0,0,2,,,,,,,,,1,,,,67,97
51245,note_on,24,0,2,,,,,,,,,1,,,,68,0
51246,note_on,21,0,8,,,,,,,,,12,,,,60,108
51261,control_change,18,0,1,,,,,,,,,0,11,58,,,
51263,control_change,18,0,2,,,,,,,,,1,11,58,,,
51279,note_on,39,0,6,,,,,,,,,10,,,,68,0
51281,note_on,39,0,7,,,,,,,,,11,,,,65,0
51285,note_on,39,0,8,,,,,,,,,12,,,,60,0
51300,note_on,21,0,6,,,,,,,,,10,,,,68,101
51302,note_on,21,0,7,,,,,,,,,11,,,,65,101
51303,note_on,0,0,1,,,,,,,,,0,,,,77,97
51303,control_change,0,0,1,,,,,,,,,0,11,57,,,
51303,note_on,42,0,1,,,,,,,,,0,,,,79,0
51305,note_on,42,0,2,,,,,,,,,1,,,,67,0
51305,control_change,0,0,2,,,,,,,,,1,11,57,,,
51305,note_on,0,0,2,,,,,,,,,1,,,,65,97
51306,note_on,21,0,8,,,,,,,,,12,,,,60,99
51339,note_on,39,0,6,,,,,,,,,10,,,,68,0
51341,note_on,39,0,7,,,,,,,,,11,,,,65,0
51345,note_on,39,0,8,,,,,,,,,12,,,,60,0
51360,set_tempo,240,1,0,,,,,,279720,,,,,,,,
51360,note_on,21,0,6,,,,,,,,,10,,,,67,110
51362,note_on,21,0,7,,,,,,,,,11,,,,65,110
51363,note_on,60,0,1,,,,,,,,,0,,,,77,0
51363,control_change,0,0,1,,,,,,,,,0,11,65,,,
51363,note_on,0,0,1,,,,,,,,,0,,,,82,110
51365,note_on,60,0,2,,,,,,,,,1,,,,65,0
51365,control_change,0,0,2,,,,,,,,,1,11,65,,,
51365,note_on,0,0,2,,,,,,,,,1,,,,70,110
51366,note_on,21,0,8,,,,,,,,,12,,,,60,108
51399,note_on,39,0,6,,,,,,,,,10,,,,67,0
51401,note_on,39,0,7,,,,,,,,,11,,,,65,0
51405,control_change,42,0,1,,,,,,,,,0,11,64,,,
51405,note_on,39,0,8,,,,,,,,,12,,,,60,0
51407,control_change,42,0,2,,,,,,,,,1,11,64,,,
51420,note_on,21,0,6,,,,,,,,,10,,,,67,101
51422,note_on,21,0,7,,,,,,,,,11,,,,65,101
51426,note_on,21,0,8,,,,,,,,,12,,,,60,99
51447,control_change,42,0,1,,,,,,,,,0,11,64,,,
51449,control_change,42,0,2,,,,,,,,,1,11,64,,,
51459,note_on,39,0,6,,,,,,,,,10,,,,67,0
51461,note_on,39,0,7,,,,,,,,,11,,,,65,0
51465,note_on,39,0,8,,,,,,,,,12,,,,60,0
51480,note_on,21,0,6,,,,,,,,,10,,,,67,110
51482,note_on,21,0,7,,,,,,,,,11,,,,65,110
51486,note_on,21,0,8,,,,,,,,,12,,,,60,108
51489,control_change,42,0,1,,,,,,,,,0,11,63,,,
51491,control_change,42,0,2,,,,,,,,,1,11,63,,,
51519,note_on,39,0,6,,,,,,,,,10,,,,67,0
51521,note_on,39,0,7,,,,,,,,,11,,,,65,0
51525,note_on,39,0,8,,,,,,,,,12,,,,60,0
51531,control_change,42,0,1,,,,,,,,,0,11,62,,,
51533,control_change,42,0,2,,,,,,,,,1,11,62,,,
51540,note_on,21,0,6,,,,,,,,,10,,,,67,101
51542,note_on,21,0,7,,,,,,,,,11,,,,65,101
51546,note_on,21,0,8,,,,,,,,,12,,,,60,99
51573,control_change,42,0,1,,,,,,,,,0,11,62,,,
51575,control_change,42,0,2,,,,,,,,,1,11,62,,,
51579,note_on,39,0,6,,,,,,,,,10,,,,67,0
51581,note_on,39,0,7,,,,,,,,,11,,,,65,0
51585,note_on,39,0,8,,,,,,,,,12,,,,60,0
51600,note_on,21,0,6,,,,,,,,,10,,,,72,110
51600,set_tempo,240,1,0,,,,,,268456,,,,,,,,
51602,note_on,21,0,7,,,,,,,,,11,,,,64,110
51603,note_on,30,0,1,,,,,,,,,0,,,,82,0
51603,note_on,0,0,1,,,,,,,,,0,,,,80,97
51605,note_on,30,0,2,,,,,,,,,1,,,,70,0
51605,note_on,0,0,2,,,,,,,,,1,,,,68,97
51606,note_on,21,0,8,,,,,,,,,12,,,,60,108
51615,control_change,12,0,1,,,,,,,,,0,11,61,,,
51617,control_change,12,0,2,,,,,,,,,1,11,61,,,
51639,note_on,39,0,6,,,,,,,,,10,,,,72,0
51641,note_on,39,0,7,,,,,,,,,11,,,,64,0
51645,note_on,39,0,8,,,,,,,,,12,,,,60,0
51657,control_change,42,0,1,,,,,,,,,0,11,60,,,
51659,control_change,42,0,2,,,,,,,,,1,11,60,,,
51660,note_on,21,0,6,,,,,,,,,10,,,,72,101
51662,note_on,21,0,7,,,,,,,,,11,,,,64,101
51663,note_on,6,0,1,,,,,,,,,0,,,,80,0
51663,note_on,0,0,1,,,,,,,,,0,,,,79,97
51665,note_on,0,0,2,,,,,,,,,1,,,,67,97
51665,note_on,6,0,2,,,,,,,,,1,,,,68,0
51666,note_on,21,0,8,,,,,,,,,12,,,,60,99
51699,control_change,36,0,1,,,,,,,,,0,11,59,,,
51699,note_on,39,0,6,,,,,,,,,10,,,,72,0
51701,control_change,36,0,2,,,,,,,,,1,11,59,,,
51701,note_on,39,0,7,,,,,,,,,11,,,,64,0
51705,note_on,39,0,8,,,,,,,,,12,,,,60,0
51720,note_on,21,0,6,,,,,,,,,10,,,,72,110
51722,note_on,21,0,7,,,,,,,,,11,,,,64,110
51723,note_on,0,0,1,,,,,,,,,0,,,,77,97
51723,note_on,24,0,1,,,,,,,,,0,,,,79,0
51725,note_on,24,0,2,,,,,,,,,1,,,,67,0
51725,note_on,0,0,2,,,,,,,,,1,,,,65,97
51726,note_on,21,0,8,,,,,,,,,12,,,,60,108
51741,control_change,18,0,1,,,,,,,,,0,11,58,,,
51743,control_change,18,0,2,,,,,,,,,1,11,58,,,
51759,note_on,39,0,6,,,,,,,,,10,,,,72,0
51761,note_on,39,0,7,,,,,,,,,11,,,,64,0
51765,note_on,39,0,8,,,,,,,,,12,,,,60,0
51780,note_on,21,0,6,,,,,,,,,10,,,,72,101
51782,note_on,21,0,7,,,,,,,,,11,,,,64,101
51783,note_on,42,0,1,,,,,,,,,0,,,,77,0
51783,control_change,0,0,1,,,,,,,,,0,11,57,,,
51783,note_on,0,0,1,,,,,,,,,0,,,,76,97
51785,note_on,0,0,2,,,,,,,,,1,,,,64,97
51785,control_change,0,0,2,,,,,,,,,1,11,57,,,
51785,note_on,42,0,2,,,,,,,,,1,,,,65,0
51786,note_on,21,0,8,,,,,,,,,12,,,,60,99
51819,note_on,39,0,6,,,,,,,,,10,,,,72,0
51821,note_on,39,0,7,,,,,,,,,11,,,,64,0
51825,note_on,39,0,8,,,,,,,,,12,,,,60,0
51840,control_change,21,0,6,,,,,,,,,10,11,37,,,
51840,note_on,0,0,6,,,,,,,,,10,,,,84,125
51840,set_tempo,240,1,0,,,,,,275862,,,,,,,,
51842,control_change,21,0,7,,,,,,,,,11,11,37,,,
51842,note_on,0,0,7,,,,,,,,,11,,,,72,100
51843,note_on,0,0,1,,,,,,,,,0,,,,84,110
51843,note_on,60,0,1,,,,,,,,,0,,,,76,0
51844,note_on,0,0,4,,,,,,,,,4,,,,60,109
51844,note_on,960,0,4,,,,,,,,,4,,,,60,0
51845,note_on,60,0,2,,,,,,,,,1,,,,64,0
51845,note_on,0,0,2,,,,,,,,,1,,,,77,110
51845,note_on,0,0,2,,,,,,,,,1,,,,69,110
51846,note_on,960,0,5,,,,,,,,,5,,,,60,0
51846,note_on,0,0,5,,,,,,,,,5,,,,60,109
51846,note_on,21,0,8,,,,,,,,,12,,,,57,108
51850,note_on,960,0,9,,,,,,,,,13,,,,60,0
51850,note_on,0,0,9,,,,,,,,,13,,,,48,114
51851,note_on,0,0,3,,,,,,,,,3,,,,48,110
51851,note_on,0,0,3,,,,,,,,,3,,,,60,110
51851,note_on,0,0,3,,,,,,,,,3,,,,60,0
51851,note_on,960,0,3,,,,,,,,,3,,,,48,0
51852,note_on,960,0,10,,,,,,,,,14,,,,48,0
51852,note_on,0,0,10,,,,,,,,,14,,,,36,108
51860,control_change,20,0,6,,,,,,,,,10,11,40,,,
51862,control_change,20,0,7,,,,,,,,,11,11,40,,,
51880,control_change,20,0,6,,,,,,,,,10,11,43,,,
51882,control_change,20,0,7,,,,,,,,,11,11,43,,,
51900,control_change,20,0,6,,,,,,,,,10,11,46,,,
51902,control_change,20,0,7,,,,,,,,,11,11,46,,,
51920,control_change,20,0,6,,,,,,,,,10,11,49,,,
51922,control_change,20,0,7,,,,,,,,,11,11,49,,,
51940,control_change,20,0,6,,,,,,,,,10,11,52,,,
51942,control_change,20,0,7,,,,,,,,,11,11,52,,,
51960,control_change,20,0,6,,,,,,,,,10,11,55,,,
51962,control_change,20,0,7,,,,,,,,,11,11,55,,,
51975,control_change,15,0,6,,,,,,,,,10,11,54,,,
51977,control_change,15,0,7,,,,,,,,,11,11,54,,,
51990,control_change,15,0,6,,,,,,,,,10,11,53,,,
51992,control_change,15,0,7,,,,,,,,,11,11,53,,,
52005,control_change,15,0,6,,,,,,,,,10,11,52,,,
52007,control_change,15,0,7,,,,,,,,,11,11,52,,,
52020,control_change,15,0,6,,,,,,,,,10,11,51,,,
52022,control_change,15,0,7,,,,,,,,,11,11,51,,,
52035,control_change,15,0,6,,,,,,,,,10,11,50,,,
52037,control_change,15,0,7,,,,,,,,,11,11,50,,,
52050,control_change,15,0,6,,,,,,,,,10,11,49,,,
52052,control_change,15,0,7,,,,,,,,,11,11,49,,,
52065,control_change,15,0,6,,,,,,,,,10,11,48,,,
52067,control_change,15,0,7,,,,,,,,,11,11,48,,,
52080,note_on,15,0,6,,,,,,,,,10,,,,84,0
52080,note_on,0,0,6,,,,,,,,,10,,,,82,110
52080,set_tempo,240,1,0,,,,,,266667,,,,,,,,
52080,control_change,0,0,6,,,,,,,,,10,11,47,,,
52082,control_change,0,0,7,,,,,,,,,11,11,47,,,
52082,note_on,0,0,7,,,,,,,,,11,,,,70,88
52082,note_on,15,0,7,,,,,,,,,11,,,,72,0
52085,note_on,240,0,2,,,,,,,,,1,,,,69,0
52085,note_on,0,0,2,,,,,,,,,1,,,,68,110
52086,note_on,0,0,8,,,,,,,,,12,,,,56,108
52086,note_on,240,0,8,,,,,,,,,12,,,,57,0
52140,note_on,60,0,6,,,,,,,,,10,,,,82,0
52140,note_on,0,0,6,,,,,,,,,10,,,,80,110
52142,note_on,0,0,7,,,,,,,,,11,,,,68,88
52142,note_on,60,0,7,,,,,,,,,11,,,,70,0
52200,note_on,60,0,6,,,,,,,,,10,,,,80,0
52200,note_on,0,0,6,,,,,,,,,10,,,,79,110
52202,note_on,60,0,7,,,,,,,,,11,,,,68,0
52202,note_on,0,0,7,,,,,,,,,11,,,,67,88
52260,note_on,0,0,6,,,,,,,,,10,,,,77,110
52260,note_on,60,0,6,,,,,,,,,10,,,,79,0
52262,note_on,60,0,7,,,,,,,,,11,,,,67,0
52262,note_on,0,0,7,,,,,,,,,11,,,,65,88
52299,note_on,39,0,6,,,,,,,,,10,,,,77,0
52301,note_on,39,0,7,,,,,,,,,11,,,,65,0
52320,set_tempo,240,1,0,,,,,,275862,,,,,,,,
52320,note_on,0,0,6,,,,,,,,,10,,,,82,125
52320,control_change,21,0,6,,,,,,,,,10,11,37,,,
52322,note_on,0,0,7,,,,,,,,,11,,,,70,100
52322,control_change,21,0,7,,,,,,,,,11,11,37,,,
52325,note_on,0,0,2,,,,,,,,,1,,,,67,110
52325,note_on,240,0,2,,,,,,,,,1,,,,68,0
52326,note_on,0,0,8,,,,,,,,,12,,,,55,108
52326,note_on,240,0,8,,,,,,,,,12,,,,56,0
52340,control_change,20,0,6,,,,,,,,,10,11,40,,,
52342,control_change,20,0,7,,,,,,,,,11,11,40,,,
52360,control_change,20,0,6,,,,,,,,,10,11,43,,,
52362,control_change,20,0,7,,,,,,,,,11,11,43,,,
52380,control_change,20,0,6,,,,,,,,,10,11,46,,,
52382,control_change,20,0,7,,,,,,,,,11,11,46,,,
52400,control_change,20,0,6,,,,,,,,,10,11,49,,,
52402,control_change,20,0,7,,,,,,,,,11,11,49,,,
52420,control_change,20,0,6,,,,,,,,,10,11,52,,,
52422,control_change,20,0,7,,,,,,,,,11,11,52,,,
52440,control_change,20,0,6,,,,,,,,,10,11,55,,,
52442,control_change,20,0,7,,,,,,,,,11,11,55,,,
52469,control_change,29,0,6,,,,,,,,,10,11,53,,,
52471,control_change,29,0,7,,,,,,,,,11,11,53,,,
52484,control_change,15,0,6,,,,,,,,,10,11,52,,,
52486,control_change,15,0,7,,,,,,,,,11,11,52,,,
52499,control_change,15,0,6,,,,,,,,,10,11,51,,,
52501,control_change,15,0,7,,,,,,,,,11,11,51,,,
52514,control_change,15,0,6,,,,,,,,,10,11,50,,,
52516,control_change,15,0,7,,,,,,,,,11,11,50,,,
52529,control_change,15,0,6,,,,,,,,,10,11,49,,,
52531,control_change,15,0,7,,,,,,,,,11,11,49,,,
52544,control_change,15,0,6,,,,,,,,,10,11,48,,,
52546,control_change,15,0,7,,,,,,,,,11,11,48,,,
52559,control_change,15,0,6,,,,,,,,,10,11,47,,,
52560,set_tempo,240,1,0,,,,,,266667,,,,,,,,
52560,note_on,0,0,6,,,,,,,,,10,,,,80,110
52560,note_on,1,0,6,,,,,,,,,10,,,,82,0
52561,control_change,15,0,7,,,,,,,,,11,11,47,,,
52562,note_on,1,0,7,,,,,,,,,11,,,,70,0
52562,note_on,0,0,7,,,,,,,,,11,,,,68,88
52565,note_on,240,0,2,,,,,,,,,1,,,,67,0
52565,note_on,0,0,2,,,,,,,,,1,,,,77,0
52565,note_on,0,0,2,,,,,,,,,1,,,,70,110
52565,note_on,0,0,2,,,,,,,,,1,,,,76,110
52566,note_on,240,0,8,,,,,,,,,12,,,,55,0
52566,note_on,0,0,8,,,,,,,,,12,,,,58,108
52620,note_on,0,0,6,,,,,,,,,10,,,,79,110
52620,note_on,60,0,6,,,,,,,,,10,,,,80,0
52622,note_on,60,0,7,,,,,,,,,11,,,,68,0
52622,note_on,0,0,7,,,,,,,,,11,,,,67,88
52680,note_on,60,0,6,,,,,,,,,10,,,,79,0
52680,note_on,0,0,6,,,,,,,,,10,,,,77,110
52682,note_on,60,0,7,,,,,,,,,11,,,,67,0
52682,note_on,0,0,7,,,,,,,,,11,,,,65,88
52740,note_on,60,0,6,,,,,,,,,10,,,,77,0
52740,note_on,0,0,6,,,,,,,,,10,,,,76,110
52742,note_on,0,0,7,,,,,,,,,11,,,,64,88
52742,note_on,60,0,7,,,,,,,,,11,,,,65,0
52779,note_on,39,0,6,,,,,,,,,10,,,,76,0
52781,note_on,39,0,7,,,,,,,,,11,,,,64,0
52800,set_tempo,240,1,0,,,,,,272727,,,,,,,,
52800,note_on,0,0,6,,,,,,,,,10,,,,77,110
52800,control_change,21,0,6,,,,,,,,,10,11,65,,,
52802,control_change,21,0,7,,,,,,,,,11,11,65,,,
52802,note_on,0,0,7,,,,,,,,,11,,,,65,110
52803,note_on,0,0,1,,,,,,,,,0,,,,89,110
52803,control_change,0,0,1,,,,,,,,,0,11,79,,,
52803,note_on,960,0,1,,,,,,,,,0,,,,84,0
52804,note_on,960,0,4,,,,,,,,,4,,,,60,0
52804,control_change,0,0,4,,,,,,,,,4,11,79,,,
52804,note_on,0,0,4,,,,,,,,,4,,,,60,109
52805,control_change,0,0,2,,,,,,,,,1,11,79,,,
52805,note_on,240,0,2,,,,,,,,,1,,,,70,0
52805,note_on,0,0,2,,,,,,,,,1,,,,76,0
52805,note_on,0,0,2,,,,,,,,,1,,,,77,110
52805,note_on,0,0,2,,,,,,,,,1,,,,69,110
52806,control_change,0,0,8,,,,,,,,,12,11,65,,,
52806,note_on,960,0,5,,,,,,,,,5,,,,60,0
52806,control_change,0,0,5,,,,,,,,,5,11,79,,,
52806,note_on,0,0,8,,,,,,,,,12,,,,57,108
52806,note_on,0,0,5,,,,,,,,,5,,,,53,109
52806,note_on,240,0,8,,,,,,,,,12,,,,58,0
52810,note_on,960,0,9,,,,,,,,,13,,,,48,0
52810,note_on,0,0,9,,,,,,,,,13,,,,53,99
52810,control_change,0,0,9,,,,,,,,,13,11,65,,,
52811,note_on,960,0,3,,,,,,,,,3,,,,60,0
52811,note_on,0,0,3,,,,,,,,,3,,,,48,0
52811,note_on,0,0,3,,,,,,,,,3,,,,41,110
52811,note_on,0,0,3,,,,,,,,,3,,,,53,110
52811,control_change,0,0,3,,,,,,,,,3,11,79,,,
52812,note_on,960,0,10,,,,,,,,,14,,,,36,0
52812,control_change,0,0,10,,,,,,,,,14,11,65,,,
52812,note_on,0,0,10,,,,,,,,,14,,,,41,93
52818,control_change,18,0,6,,,,,,,,,10,11,69,,,
52820,control_change,18,0,7,,,,,,,,,11,11,69,,,
52824,control_change,18,0,8,,,,,,,,,12,11,69,,,
52828,control_change,18,0,9,,,,,,,,,13,11,69,,,
52830,control_change,18,0,10,,,,,,,,,14,11,69,,,
52836,control_change,18,0,6,,,,,,,,,10,11,73,,,
52838,control_change,18,0,7,,,,,,,,,11,11,73,,,
52842,control_change,18,0,8,,,,,,,,,12,11,73,,,
52846,control_change,18,0,9,,,,,,,,,13,11,73,,,
52848,control_change,18,0,10,,,,,,,,,14,11,73,,,
52854,control_change,18,0,6,,,,,,,,,10,11,77,,,
52856,control_change,18,0,7,,,,,,,,,11,11,77,,,
52860,control_change,18,0,8,,,,,,,,,12,11,77,,,
52864,control_change,18,0,9,,,,,,,,,13,11,77,,,
52866,control_change,18,0,10,,,,,,,,,14,11,77,,,
52915,note_on,61,0,6,,,,,,,,,10,,,,77,0
52917,note_on,61,0,7,,,,,,,,,11,,,,65,0
52920,note_on,5,0,6,,,,,,,,,10,,,,77,110
52922,note_on,5,0,7,,,,,,,,,11,,,,65,110
52923,note_on,120,0,1,,,,,,,,,0,,,,89,0
52924,note_on,120,0,4,,,,,,,,,4,,,,60,0
52925,note_on,120,0,2,,,,,,,,,1,,,,69,0
52925,note_on,0,0,2,,,,,,,,,1,,,,77,0
52926,note_on,66,0,8,,,,,,,,,12,,,,57,0
52926,note_on,120,0,5,,,,,,,,,5,,,,53,0
52930,note_on,66,0,9,,,,,,,,,13,,,,53,0
52931,note_on,120,0,3,,,,,,,,,3,,,,53,0
52931,note_on,0,0,3,,,,,,,,,3,,,,41,0
52932,note_on,66,0,10,,,,,,,,,14,,,,41,0
52980,note_on,60,0,6,,,,,,,,,10,,,,77,0
52980,note_on,0,0,6,,,,,,,,,10,,,,81,110
52982,note_on,60,0,7,,,,,,,,,11,,,,65,0
52982,note_on,0,0,7,,,,,,,,,11,,,,69,110
53019,note_on,39,0,6,,,,,,,,,10,,,,81,0
53021,note_on,39,0,7,,,,,,,,,11,,,,69,0
53040,note_on,21,0,6,,,,,,,,,10,,,,84,110
53040,set_tempo,240,1,0,,,,,,261438,,,,,,,,
53042,note_on,21,0,7,,,,,,,,,11,,,,72,110
53043,note_on,120,0,1,,,,,,,,,0,,,,88,110
53044,note_on,120,0,4,,,,,,,,,4,,,,60,109
53045,note_on,120,0,2,,,,,,,,,1,,,,79,110
53045,note_on,0,0,2,,,,,,,,,1,,,,76,110
53046,note_on,0,0,8,,,,,,,,,12,,,,64,108
53046,note_on,120,0,5,,,,,,,,,5,,,,60,109
53046,note_on,120,0,8,,,,,,,,,12,,,,55,108
53050,note_on,120,0,9,,,,,,,,,13,,,,48,99
53051,note_on,0,0,3,,,,,,,,,3,,,,60,110
53051,note_on,120,0,3,,,,,,,,,3,,,,48,110
53052,note_on,120,0,10,,,,,,,,,14,,,,36,93
53100,note_on,60,0,6,,,,,,,,,10,,,,84,0
53102,note_on,60,0,7,,,,,,,,,11,,,,72,0
53160,note_on,60,0,6,,,,,,,,,10,,,,84,110
53162,note_on,60,0,7,,,,,,,,,11,,,,72,110
53163,note_on,120,0,1,,,,,,,,,0,,,,88,0
53164,note_on,120,0,4,,,,,,,,,4,,,,60,0
53165,note_on,120,0,2,,,,,,,,,1,,,,76,0
53165,note_on,0,0,2,,,,,,,,,1,,,,79,0
53166,note_on,120,0,5,,,,,,,,,5,,,,60,0
53166,note_on,0,0,8,,,,,,,,,12,,,,55,0
53166,note_on,120,0,8,,,,,,,,,12,,,,64,0
53170,note_on,120,0,9,,,,,,,,,13,,,,48,0
53171,note_on,0,0,3,,,,,,,,,3,,,,48,0
53171,note_on,120,0,3,,,,,,,,,3,,,,60,0
53172,note_on,120,0,10,,,,,,,,,14,,,,36,0
53220,note_on,60,0,6,,,,,,,,,10,,,,84,0
53222,note_on,60,0,7,,,,,,,,,11,,,,72,0
53280,set_tempo,240,1,0,,,,,,272727,,,,,,,,
53283,note_on,120,0,1,,,,,,,,,0,,,,89,110
53284,note_on,120,0,4,,,,,,,,,4,,,,60,109
53285,note_on,120,0,2,,,,,,,,,1,,,,77,110
53285,note_on,0,0,2,,,,,,,,,1,,,,81,110
53286,note_on,0,0,8,,,,,,,,,12,,,,57,108
53286,note_on,120,0,8,,,,,,,,,12,,,,65,108
53286,note_on,120,0,5,,,,,,,,,5,,,,53,109
53290,note_on,120,0,9,,,,,,,,,13,,,,53,99
53291,note_on,120,0,3,,,,,,,,,3,,,,53,110
53291,note_on,0,0,3,,,,,,,,,3,,,,41,110
53292,note_on,120,0,10,,,,,,,,,14,,,,41,93
53400,note_on,180,0,6,,,,,,,,,10,,,,77,110
53402,note_on,180,0,7,,,,,,,,,11,,,,65,110
53403,note_on,120,0,1,,,,,,,,,0,,,,89,0
53404,note_on,120,0,4,,,,,,,,,4,,,,60,0
53405,note_on,0,0,2,,,,,,,,,1,,,,77,0
53405,note_on,120,0,2,,,,,,,,,1,,,,81,0
53406,note_on,0,0,8,,,,,,,,,12,,,,65,0
53406,note_on,120,0,5,,,,,,,,,5,,,,53,0
53406,note_on,120,0,8,,,,,,,,,12,,,,57,0
53410,note_on,120,0,9,,,,,,,,,13,,,,53,0
53411,note_on,120,0,3,,,,,,,,,3,,,,41,0
53411,note_on,0,0,3,,,,,,,,,3,,,,53,0
53412,note_on,120,0,10,,,,,,,,,14,,,,41,0
53460,note_on,0,0,6,,,,,,,,,10,,,,81,110
53460,note_on,60,0,6,,,,,,,,,10,,,,77,0
53462,note_on,0,0,7,,,,,,,,,11,,,,69,110
53462,note_on,60,0,7,,,,,,,,,11,,,,65,0
53499,note_on,39,0,6,,,,,,,,,10,,,,81,0
53501,note_on,39,0,7,,,,,,,,,11,,,,69,0
53520,set_tempo,240,1,0,,,,,,261438,,,,,,,,
53520,note_on,21,0,6,,,,,,,,,10,,,,84,110
53522,note_on,21,0,7,,,,,,,,,11,,,,72,110
53523,note_on,120,0,1,,,,,,,,,0,,,,88,110
53524,note_on,120,0,4,,,,,,,,,4,,,,60,109
53525,note_on,0,0,2,,,,,,,,,1,,,,76,110
53525,note_on,120,0,2,,,,,,,,,1,,,,79,110
53526,note_on,120,0,5,,,,,,,,,5,,,,60,109
53526,note_on,0,0,8,,,,,,,,,12,,,,55,108
53526,note_on,120,0,8,,,,,,,,,12,,,,64,108
53530,note_on,120,0,9,,,,,,,,,13,,,,48,99
53531,note_on,0,0,3,,,,,,,,,3,,,,60,110
53531,note_on,120,0,3,,,,,,,,,3,,,,48,110
53532,note_on,120,0,10,,,,,,,,,14,,,,36,93
53580,note_on,60,0,6,,,,,,,,,10,,,,84,0
53582,note_on,60,0,7,,,,,,,,,11,,,,72,0
53640,note_on,60,0,6,,,,,,,,,10,,,,84,110
53642,note_on,60,0,7,,,,,,,,,11,,,,72,110
53643,note_on,120,0,1,,,,,,,,,0,,,,88,0
53644,note_on,120,0,4,,,,,,,,,4,,,,60,0
53645,note_on,0,0,2,,,,,,,,,1,,,,79,0
53645,note_on,120,0,2,,,,,,,,,1,,,,76,0
53646,note_on,120,0,5,,,,,,,,,5,,,,60,0
53646,note_on,120,0,8,,,,,,,,,12,,,,55,0
53646,note_on,0,0,8,,,,,,,,,12,,,,64,0
53650,note_on,120,0,9,,,,,,,,,13,,,,48,0
53651,note_on,120,0,3,,,,,,,,,3,,,,60,0
53651,note_on,0,0,3,,,,,,,,,3,,,,48,0
53652,note_on,120,0,10,,,,,,,,,14,,,,36,0
53700,note_on,60,0,6,,,,,,,,,10,,,,84,0
53702,note_on,60,0,7,,,,,,,,,11,,,,72,0
53760,note_on,60,0,6,,,,,,,,,10,,,,77,110
53760,set_tempo,240,1,0,,,,,,272727,,,,,,,,
53762,note_on,60,0,7,,,,,,,,,11,,,,65,110
53763,note_on,120,0,1,,,,,,,,,0,,,,89,110
53764,note_on,120,0,4,,,,,,,,,4,,,,60,109
53765,note_on,120,0,2,,,,,,,,,1,,,,81,110
53765,note_on,0,0,2,,,,,,,,,1,,,,77,110
53766,note_on,120,0,8,,,,,,,,,12,,,,57,108
53766,note_on,0,0,8,,,,,,,,,12,,,,65,108
53766,note_on,120,0,5,,,,,,,,,5,,,,60,109
53770,note_on,120,0,9,,,,,,,,,13,,,,53,99
53771,note_on,120,0,3,,,,,,,,,3,,,,53,110
53772,note_on,120,0,10,,,,,,,,,14,,,,41,93
53820,note_on,60,0,6,,,,,,,,,10,,,,77,0
53820,note_on,0,0,6,,,,,,,,,10,,,,81,110
53822,note_on,60,0,7,,,,,,,,,11,,,,65,0
53822,note_on,0,0,7,,,,,,,,,11,,,,69,110
53858,note_on,95,0,1,,,,,,,,,0,,,,89,0
53859,note_on,39,0,6,,,,,,,,,10,,,,81,0
53859,note_on,95,0,4,,,,,,,,,4,,,,60,0
53860,note_on,0,0,2,,,,,,,,,1,,,,81,0
53860,note_on,95,0,2,,,,,,,,,1,,,,77,0
53861,note_on,39,0,7,,,,,,,,,11,,,,69,0
53861,note_on,95,0,5,,,,,,,,,5,,,,60,0
53866,note_on,95,0,3,,,,,,,,,3,,,,53,0
53880,note_on,21,0,6,,,,,,,,,10,,,,84,110
53881,note_on,115,0,8,,,,,,,,,12,,,,65,0
53881,note_on,0,0,8,,,,,,,,,12,,,,57,0
53882,note_on,21,0,7,,,,,,,,,11,,,,72,110
53883,note_on,25,0,1,,,,,,,,,0,,,,88,110
53884,note_on,25,0,4,,,,,,,,,4,,,,60,109
53885,note_on,115,0,9,,,,,,,,,13,,,,53,0
53885,note_on,25,0,2,,,,,,,,,1,,,,79,110
53885,note_on,0,0,2,,,,,,,,,1,,,,76,110
53886,note_on,25,0,5,,,,,,,,,5,,,,60,109
53886,note_on,0,0,8,,,,,,,,,12,,,,55,108
53886,note_on,5,0,8,,,,,,,,,12,,,,64,108
53887,note_on,115,0,10,,,,,,,,,14,,,,41,0
53890,note_on,5,0,9,,,,,,,,,13,,,,48,99
53891,note_on,25,0,3,,,,,,,,,3,,,,48,110
53892,note_on,5,0,10,,,,,,,,,14,,,,36,93
53910,note_on,30,0,6,,,,,,,,,10,,,,84,0
53912,note_on,30,0,7,,,,,,,,,11,,,,72,0
53940,note_on,30,0,6,,,,,,,,,10,,,,84,110
53942,note_on,30,0,7,,,,,,,,,11,,,,72,110
53970,note_on,30,0,6,,,,,,,,,10,,,,84,0
53972,note_on,30,0,7,,,,,,,,,11,,,,72,0
53978,note_on,95,0,1,,,,,,,,,0,,,,88,0
53979,note_on,95,0,4,,,,,,,,,4,,,,60,0
53980,note_on,95,0,2,,,,,,,,,1,,,,76,0
53980,note_on,0,0,2,,,,,,,,,1,,,,79,0
53981,note_on,95,0,5,,,,,,,,,5,,,,60,0
53986,note_on,95,0,3,,,,,,,,,3,,,,48,0
54000,set_tempo,240,1,0,,,,,,261438,,,,,,,,
54000,note_on,30,0,6,,,,,,,,,10,,,,77,110
54001,note_on,115,0,8,,,,,,,,,12,,,,55,0
54001,note_on,0,0,8,,,,,,,,,12,,,,64,0
54002,note_on,30,0,7,,,,,,,,,11,,,,65,110
54003,note_on,25,0,1,,,,,,,,,0,,,,89,110
54004,note_on,25,0,4,,,,,,,,,4,,,,60,109
54005,note_on,0,0,2,,,,,,,,,1,,,,77,110
54005,note_on,25,0,2,,,,,,,,,1,,,,81,110
54005,note_on,115,0,9,,,,,,,,,13,,,,48,0
54006,note_on,5,0,8,,,,,,,,,12,,,,57,108
54006,note_on,0,0,8,,,,,,,,,12,,,,65,108
54006,note_on,25,0,5,,,,,,,,,5,,,,60,109
54007,note_on,115,0,10,,,,,,,,,14,,,,36,0
54010,note_on,5,0,9,,,,,,,,,13,,,,53,99
54011,note_on,25,0,3,,,,,,,,,3,,,,53,110
54012,note_on,5,0,10,,,,,,,,,14,,,,41,93
54060,note_on,60,0,6,,,,,,,,,10,,,,77,0
54060,note_on,0,0,6,,,,,,,,,10,,,,81,110
54062,note_on,60,0,7,,,,,,,,,11,,,,65,0
54062,note_on,0,0,7,,,,,,,,,11,,,,69,110
54098,note_on,95,0,1,,,,,,,,,0,,,,89,0
54099,note_on,95,0,4,,,,,,,,,4,,,,60,0
54099,note_on,39,0,6,,,,,,,,,10,,,,81,0
54100,note_on,95,0,2,,,,,,,,,1,,,,77,0
54100,note_on,0,0,2,,,,,,,,,1,,,,81,0
54101,note_on,39,0,7,,,,,,,,,11,,,,69,0
54101,note_on,95,0,5,,,,,,,,,5,,,,60,0
54106,note_on,95,0,3,,,,,,,,,3,,,,53,0
54120,note_on,21,0,6,,,,,,,,,10,,,,84,110
54121,note_on,0,0,8,,,,,,,,,12,,,,57,0
54121,note_on,115,0,8,,,,,,,,,12,,,,65,0
54122,note_on,21,0,7,,,,,,,,,11,,,,72,110
54123,note_on,25,0,1,,,,,,,,,0,,,,88,110
54124,note_on,25,0,4,,,,,,,,,4,,,,60,109
54125,note_on,0,0,2,,,,,,,,,1,,,,76,110
54125,note_on,115,0,9,,,,,,,,,13,,,,53,0
54125,note_on,25,0,2,,,,,,,,,1,,,,79,110
54126,note_on,25,0,5,,,,,,,,,5,,,,60,109
54126,note_on,0,0,8,,,,,,,,,12,,,,64,108
54126,note_on,5,0,8,,,,,,,,,12,,,,55,108
54127,note_on,115,0,10,,,,,,,,,14,,,,41,0
54130,note_on,5,0,9,,,,,,,,,13,,,,48,99
54131,note_on,25,0,3,,,,,,,,,3,,,,48,110
54132,note_on,5,0,10,,,,,,,,,14,,,,36,93
54150,note_on,30,0,6,,,,,,,,,10,,,,84,0
54152,note_on,30,0,7,,,,,,,,,11,,,,72,0
54180,note_on,30,0,6,,,,,,,,,10,,,,84,110
54182,note_on,30,0,7,,,,,,,,,11,,,,72,110
54210,note_on,30,0,6,,,,,,,,,10,,,,84,0
54212,note_on,30,0,7,,,,,,,,,11,,,,72,0
54218,note_on,95,0,1,,,,,,,,,0,,,,88,0
54219,note_on,95,0,4,,,,,,,,,4,,,,60,0
54220,note_on,0,0,2,,,,,,,,,1,,,,79,0
54220,note_on,95,0,2,,,,,,,,,1,,,,76,0
54221,note_on,95,0,5,,,,,,,,,5,,,,60,0
54226,note_on,95,0,3,,,,,,,,,3,,,,48,0
54240,note_on,30,0,6,,,,,,,,,10,,,,77,110
54240,set_tempo,240,1,0,,,,,,272727,,,,,,,,
54241,note_on,0,0,8,,,,,,,,,12,,,,55,0
54241,note_on,115,0,8,,,,,,,,,12,,,,64,0
54242,note_on,30,0,7,,,,,,,,,11,,,,65,110
54243,note_on,25,0,1,,,,,,,,,0,,,,89,110
54244,note_on,25,0,4,,,,,,,,,4,,,,60,109
54245,note_on,0,0,2,,,,,,,,,1,,,,77,110
54245,note_on,115,0,9,,,,,,,,,13,,,,48,0
54245,note_on,25,0,2,,,,,,,,,1,,,,81,110
54246,note_on,0,0,8,,,,,,,,,12,,,,65,108
54246,note_on,5,0,8,,,,,,,,,12,,,,57,108
54246,note_on,25,0,5,,,,,,,,,5,,,,60,109
54247,note_on,115,0,10,,,,,,,,,14,,,,36,0
54250,note_on,5,0,9,,,,,,,,,13,,,,53,99
54251,note_on,25,0,3,,,,,,,,,3,,,,53,110
54252,note_on,5,0,10,,,,,,,,,14,,,,41,93
54300,note_on,0,0,6,,,,,,,,,10,,,,81,110
54300,note_on,60,0,6,,,,,,,,,10,,,,77,0
54302,note_on,0,0,7,,,,,,,,,11,,,,69,110
54302,note_on,60,0,7,,,,,,,,,11,,,,65,0
54338,note_on,95,0,1,,,,,,,,,0,,,,89,0
54339,note_on,95,0,4,,,,,,,,,4,,,,60,0
54339,note_on,39,0,6,,,,,,,,,10,,,,81,0
54340,note_on,0,0,2,,,,,,,,,1,,,,81,0
54340,note_on,95,0,2,,,,,,,,,1,,,,77,0
54341,note_on,39,0,7,,,,,,,,,11,,,,69,0
54341,note_on,95,0,5,,,,,,,,,5,,,,60,0
54346,note_on,95,0,3,,,,,,,,,3,,,,53,0
54360,note_on,21,0,6,,,,,,,,,10,,,,84,110
54361,note_on,0,0,8,,,,,,,,,12,,,,57,0
54361,note_on,115,0,8,,,,,,,,,12,,,,65,0
54362,note_on,21,0,7,,,,,,,,,11,,,,72,110
54363,note_on,25,0,1,,,,,,,,,0,,,,88,110
54364,note_on,25,0,4,,,,,,,,,4,,,,60,109
54365,note_on,0,0,2,,,,,,,,,1,,,,76,110
54365,note_on,25,0,2,,,,,,,,,1,,,,79,110
54365,note_on,115,0,9,,,,,,,,,13,,,,53,0
54366,note_on,0,0,8,,,,,,,,,12,,,,64,108
54366,note_on,5,0,8,,,,,,,,,12,,,,55,108
54366,note_on,25,0,5,,,,,,,,,5,,,,60,109
54367,note_on,115,0,10,,,,,,,,,14,,,,41,0
54370,note_on,5,0,9,,,,,,,,,13,,,,48,99
54371,note_on,25,0,3,,,,,,,,,3,,,,48,110
54372,note_on,5,0,10,,,,,,,,,14,,,,36,93
54390,note_on,30,0,6,,,,,,,,,10,,,,84,0
54392,note_on,30,0,7,,,,,,,,,11,,,,72,0
54420,note_on,30,0,6,,,,,,,,,10,,,,84,110
54422,note_on,30,0,7,,,,,,,,,11,,,,72,110
54450,note_on,30,0,6,,,,,,,,,10,,,,84,0
54452,note_on,30,0,7,,,,,,,,,11,,,,72,0
54458,note_on,95,0,1,,,,,,,,,0,,,,88,0
54459,note_on,95,0,4,,,,,,,,,4,,,,60,0
54460,note_on,95,0,2,,,,,,,,,1,,,,76,0
54460,note_on,0,0,2,,,,,,,,,1,,,,79,0
54461,note_on,95,0,5,,,,,,,,,5,,,,60,0
54466,note_on,95,0,3,,,,,,,,,3,,,,48,0
54480,note_on,30,0,6,,,,,,,,,10,,,,77,110
54480,set_tempo,240,1,0,,,,,,261438,,,,,,,,
54481,note_on,115,0,8,,,,,,,,,12,,,,64,0
54481,note_on,0,0,8,,,,,,,,,12,,,,55,0
54482,note_on,30,0,7,,,,,,,,,11,,,,65,110
54483,note_on,25,0,1,,,,,,,,,0,,,,89,110
54484,note_on,25,0,4,,,,,,,,,4,,,,60,109
54485,note_on,115,0,9,,,,,,,,,13,,,,48,0
54485,note_on,0,0,2,,,,,,,,,1,,,,77,110
54485,note_on,25,0,2,,,,,,,,,1,,,,81,110
54486,note_on,25,0,5,,,,,,,,,5,,,,60,109
54486,note_on,5,0,8,,,,,,,,,12,,,,57,108
54486,note_on,0,0,8,,,,,,,,,12,,,,65,108
54487,note_on,115,0,10,,,,,,,,,14,,,,36,0
54490,note_on,5,0,9,,,,,,,,,13,,,,53,99
54491,note_on,25,0,3,,,,,,,,,3,,,,53,110
54492,note_on,5,0,10,,,,,,,,,14,,,,41,93
54540,note_on,0,0,6,,,,,,,,,10,,,,81,110
54540,note_on,60,0,6,,,,,,,,,10,,,,77,0
54542,note_on,0,0,7,,,,,,,,,11,,,,69,110
54542,note_on,60,0,7,,,,,,,,,11,,,,65,0
54578,note_on,95,0,1,,,,,,,,,0,,,,89,0
54579,note_on,39,0,6,,,,,,,,,10,,,,81,0
54579,note_on,95,0,4,,,,,,,,,4,,,,60,0
54580,note_on,95,0,2,,,,,,,,,1,,,,77,0
54580,note_on,0,0,2,,,,,,,,,1,,,,81,0
54581,note_on,39,0,7,,,,,,,,,11,,,,69,0
54581,note_on,95,0,5,,,,,,,,,5,,,,60,0
54586,note_on,95,0,3,,,,,,,,,3,,,,53,0
54600,note_on,21,0,6,,,,,,,,,10,,,,84,110
54601,note_on,115,0,8,,,,,,,,,12,,,,65,0
54601,note_on,0,0,8,,,,,,,,,12,,,,57,0
54602,note_on,21,0,7,,,,,,,,,11,,,,72,110
54603,note_on,25,0,1,,,,,,,,,0,,,,88,110
54604,note_on,25,0,4,,,,,,,,,4,,,,60,109
54605,note_on,25,0,2,,,,,,,,,1,,,,79,110
54605,note_on,115,0,9,,,,,,,,,13,,,,53,0
54605,note_on,0,0,2,,,,,,,,,1,,,,76,110
54606,note_on,5,0,8,,,,,,,,,12,,,,55,108
54606,note_on,0,0,8,,,,,,,,,12,,,,64,108
54606,note_on,25,0,5,,,,,,,,,5,,,,60,109
54607,note_on,115,0,10,,,,,,,,,14,,,,41,0
54610,note_on,5,0,9,,,,,,,,,13,,,,48,99
54611,note_on,25,0,3,,,,,,,,,3,,,,48,110
54612,note_on,5,0,10,,,,,,,,,14,,,,36,93
54630,note_on,30,0,6,,,,,,,,,10,,,,84,0
54632,note_on,30,0,7,,,,,,,,,11,,,,72,0
54660,note_on,30,0,6,,,,,,,,,10,,,,84,110
54660,set_tempo,180,1,0,,,,,,317460,,,,,,,,
54662,note_on,30,0,7,,,,,,,,,11,,,,72,110
54690,note_on,30,0,6,,,,,,,,,10,,,,84,0
54692,note_on,30,0,7,,,,,,,,,11,,,,72,0
54698,note_on,95,0,1,,,,,,,,,0,,,,88,0
54699,note_on,95,0,4,,,,,,,,,4,,,,60,0
54700,note_on,95,0,2,,,,,,,,,1,,,,76,0
54700,note_on,0,0,2,,,,,,,,,1,,,,79,0
54701,note_on,95,0,5,,,,,,,,,5,,,,60,0
54706,note_on,95,0,3,,,,,,,,,3,,,,48,0
54720,note_on,30,0,6,,,,,,,,,10,,,,67,125
54720,set_tempo,60,1,0,,,,,,272727,,,,,,,,
54721,note_on,115,0,8,,,,,,,,,12,,,,64,0
54721,note_on,0,0,8,,,,,,,,,12,,,,55,0
54722,note_on,30,0,7,,,,,,,,,11,,,,55,125
54723,control_change,25,0,1,,,,,,,,,0,11,79,,,
54723,note_on,0,0,1,,,,,,,,,0,,,,88,110
54724,note_on,0,0,4,,,,,,,,,4,,,,53,109
54724,control_change,25,0,4,,,,,,,,,4,11,79,,,
54725,note_on,115,0,9,,,,,,,,,13,,,,48,0
54725,control_change,25,0,2,,,,,,,,,1,11,79,,,
54725,note_on,0,0,2,,,,,,,,,1,,,,79,110
54725,note_on,0,0,2,,,,,,,,,1,,,,70,110
54726,note_on,0,0,8,,,,,,,,,12,,,,61,123
54726,control_change,25,0,5,,,,,,,,,5,11,79,,,
54726,note_on,0,0,5,,,,,,,,,5,,,,41,109
54726,note_on,5,0,8,,,,,,,,,12,,,,58,123
54727,note_on,115,0,10,,,,,,,,,14,,,,36,0
54730,note_on,5,0,9,,,,,,,,,13,,,,41,114
54731,note_on,0,0,3,,,,,,,,,3,,,,61,110
54731,control_change,25,0,3,,,,,,,,,3,11,79,,,
54731,note_on,0,0,3,,,,,,,,,3,,,,53,110
54732,note_on,5,0,10,,,,,,,,,14,,,,29,108
54759,note_on,39,0,6,,,,,,,,,10,,,,67,0
54761,note_on,39,0,7,,,,,,,,,11,,,,55,0
54765,note_on,39,0,8,,,,,,,,,12,,,,61,0
54765,note_on,0,0,8,,,,,,,,,12,,,,58,0
54769,note_on,39,0,9,,,,,,,,,13,,,,41,0
54771,note_on,39,0,10,,,,,,,,,14,,,,29,0
54780,note_on,21,0,6,,,,,,,,,10,,,,67,101
54782,note_on,21,0,7,,,,,,,,,11,,,,55,101
54786,note_on,21,0,8,,,,,,,,,12,,,,58,99
54786,note_on,0,0,8,,,,,,,,,12,,,,61,99
54790,note_on,21,0,9,,,,,,,,,13,,,,41,90
54792,note_on,21,0,10,,,,,,,,,14,,,,29,84
54819,note_on,39,0,6,,,,,,,,,10,,,,67,0
54821,note_on,39,0,7,,,,,,,,,11,,,,55,0
54825,note_on,39,0,8,,,,,,,,,12,,,,61,0
54825,note_on,0,0,8,,,,,,,,,12,,,,58,0
54829,note_on,39,0,9,,,,,,,,,13,,,,41,0
54831,note_on,39,0,10,,,,,,,,,14,,,,29,0
54840,note_on,21,0,6,,,,,,,,,10,,,,70,111
54842,note_on,21,0,7,,,,,,,,,11,,,,58,111
54846,note_on,21,0,8,,,,,,,,,12,,,,58,109
54846,note_on,0,0,8,,,,,,,,,12,,,,61,109
54850,note_on,21,0,9,,,,,,,,,13,,,,41,100
54852,note_on,21,0,10,,,,,,,,,14,,,,29,94
54879,note_on,39,0,6,,,,,,,,,10,,,,70,0
54881,note_on,39,0,7,,,,,,,,,11,,,,58,0
54885,note_on,0,0,8,,,,,,,,,12,,,,58,0
54885,note_on,39,0,8,,,,,,,,,12,,,,61,0
54889,note_on,39,0,9,,,,,,,,,13,,,,41,0
54891,note_on,39,0,10,,,,,,,,,14,,,,29,0
54900,note_on,21,0,6,,,,,,,,,10,,,,70,103
54902,note_on,21,0,7,,,,,,,,,11,,,,58,103
54906,note_on,21,0,8,,,,,,,,,12,,,,58,101
54906,note_on,0,0,8,,,,,,,,,12,,,,61,101
54910,note_on,21,0,9,,,,,,,,,13,,,,41,92
54912,note_on,21,0,10,,,,,,,,,14,,,,29,86
54939,note_on,39,0,6,,,,,,,,,10,,,,70,0
54941,note_on,39,0,7,,,,,,,,,11,,,,58,0
54945,note_on,0,0,8,,,,,,,,,12,,,,58,0
54945,note_on,39,0,8,,,,,,,,,12,,,,61,0
54949,note_on,39,0,9,,,,,,,,,13,,,,41,0
54951,note_on,39,0,10,,,,,,,,,14,,,,29,0
54960,note_on,21,0,6,,,,,,,,,10,,,,73,113
54960,set_tempo,240,1,0,,,,,,261438,,,,,,,,
54962,note_on,21,0,7,,,,,,,,,11,,,,61,113
54966,note_on,0,0,8,,,,,,,,,12,,,,58,111
54966,note_on,21,0,8,,,,,,,,,12,,,,61,111
54970,note_on,21,0,9,,,,,,,,,13,,,,41,102
54972,note_on,21,0,10,,,,,,,,,14,,,,29,96
54999,note_on,39,0,6,,,,,,,,,10,,,,73,0
55001,note_on,39,0,7,,,,,,,,,11,,,,61,0
55005,note_on,39,0,8,,,,,,,,,12,,,,58,0
55005,note_on,0,0,8,,,,,,,,,12,,,,61,0
55009,note_on,39,0,9,,,,,,,,,13,,,,41,0
55011,note_on,39,0,10,,,,,,,,,14,,,,29,0
55020,note_on,21,0,6,,,,,,,,,10,,,,73,104
55022,note_on,21,0,7,,,,,,,,,11,,,,61,104
55026,note_on,0,0,8,,,,,,,,,12,,,,58,102
55026,note_on,21,0,8,,,,,,,,,12,,,,61,102
55030,note_on,21,0,9,,,,,,,,,13,,,,41,93
55032,note_on,21,0,10,,,,,,,,,14,,,,29,87
55059,note_on,39,0,6,,,,,,,,,10,,,,73,0
55061,note_on,39,0,7,,,,,,,,,11,,,,61,0
55065,note_on,0,0,8,,,,,,,,,12,,,,61,0
55065,note_on,39,0,8,,,,,,,,,12,,,,58,0
55069,note_on,39,0,9,,,,,,,,,13,,,,41,0
55071,note_on,39,0,10,,,,,,,,,14,,,,29,0
55080,note_on,21,0,6,,,,,,,,,10,,,,76,115
55082,note_on,21,0,7,,,,,,,,,11,,,,64,115
55086,note_on,21,0,8,,,,,,,,,12,,,,58,113
55086,note_on,0,0,8,,,,,,,,,12,,,,61,113
55090,note_on,21,0,9,,,,,,,,,13,,,,41,104
55092,note_on,21,0,10,,,,,,,,,14,,,,29,98
55119,note_on,39,0,6,,,,,,,,,10,,,,76,0
55121,note_on,39,0,7,,,,,,,,,11,,,,64,0
55125,note_on,0,0,8,,,,,,,,,12,,,,58,0
55125,note_on,39,0,8,,,,,,,,,12,,,,61,0
55129,note_on,39,0,9,,,,,,,,,13,,,,41,0
55131,note_on,39,0,10,,,,,,,,,14,,,,29,0
55140,note_on,21,0,6,,,,,,,,,10,,,,76,105
55142,note_on,21,0,7,,,,,,,,,11,,,,64,105
55146,note_on,0,0,8,,,,,,,,,12,,,,58,103
55146,note_on,21,0,8,,,,,,,,,12,,,,61,103
55150,note_on,21,0,9,,,,,,,,,13,,,,41,94
55152,note_on,21,0,10,,,,,,,,,14,,,,29,88
55179,note_on,39,0,6,,,,,,,,,10,,,,76,0
55181,note_on,39,0,7,,,,,,,,,11,,,,64,0
55185,note_on,0,0,8,,,,,,,,,12,,,,61,0
55185,note_on,39,0,8,,,,,,,,,12,,,,58,0
55189,note_on,39,0,9,,,,,,,,,13,,,,41,0
55191,note_on,39,0,10,,,,,,,,,14,,,,29,0
55200,note_on,21,0,6,,,,,,,,,10,,,,79,116
55200,set_tempo,240,1,0,,,,,,272727,,,,,,,,
55202,note_on,21,0,7,,,,,,,,,11,,,,67,116
55206,note_on,0,0,8,,,,,,,,,12,,,,58,114
55206,note_on,21,0,8,,,,,,,,,12,,,,61,114
55210,note_on,21,0,9,,,,,,,,,13,,,,41,105
55212,note_on,21,0,10,,,,,,,,,14,,,,29,99
55239,note_on,39,0,6,,,,,,,,,10,,,,79,0
55241,note_on,39,0,7,,,,,,,,,11,,,,67,0
55245,note_on,0,0,8,,,,,,,,,12,,,,61,0
55245,note_on,39,0,8,,,,,,,,,12,,,,58,0
55249,note_on,39,0,9,,,,,,,,,13,,,,41,0
55251,note_on,39,0,10,,,,,,,,,14,,,,29,0
55260,note_on,21,0,6,,,,,,,,,10,,,,79,107
55262,note_on,21,0,7,,,,,,,,,11,,,,67,107
55266,note_on,0,0,8,,,,,,,,,12,,,,61,105
55266,note_on,21,0,8,,,,,,,,,12,,,,58,105
55270,note_on,21,0,9,,,,,,,,,13,,,,41,96
55272,note_on,21,0,10,,,,,,,,,14,,,,29,90
55299,note_on,39,0,6,,,,,,,,,10,,,,79,0
55301,note_on,39,0,7,,,,,,,,,11,,,,67,0
55305,note_on,39,0,8,,,,,,,,,12,,,,61,0
55305,note_on,0,0,8,,,,,,,,,12,,,,58,0
55309,note_on,39,0,9,,,,,,,,,13,,,,41,0
55311,note_on,39,0,10,,,,,,,,,14,,,,29,0
55320,note_on,21,0,6,,,,,,,,,10,,,,82,118
55322,note_on,21,0,7,,,,,,,,,11,,,,70,118
55326,note_on,0,0,8,,,,,,,,,12,,,,61,116
55326,note_on,21,0,8,,,,,,,,,12,,,,58,116
55330,note_on,21,0,9,,,,,,,,,13,,,,41,107
55332,note_on,21,0,10,,,,,,,,,14,,,,29,101
55359,note_on,39,0,6,,,,,,,,,10,,,,82,0
55361,note_on,39,0,7,,,,,,,,,11,,,,70,0
55365,note_on,39,0,8,,,,,,,,,12,,,,61,0
55365,note_on,0,0,8,,,,,,,,,12,,,,58,0
55369,note_on,39,0,9,,,,,,,,,13,,,,41,0
55371,note_on,39,0,10,,,,,,,,,14,,,,29,0
55380,note_on,21,0,6,,,,,,,,,10,,,,82,109
55382,note_on,21,0,7,,,,,,,,,11,,,,70,109
55386,note_on,0,0,8,,,,,,,,,12,,,,61,107
55386,note_on,21,0,8,,,,,,,,,12,,,,58,107
55390,note_on,21,0,9,,,,,,,,,13,,,,41,98
55392,note_on,21,0,10,,,,,,,,,14,,,,29,92
55419,note_on,39,0,6,,,,,,,,,10,,,,82,0
55421,note_on,39,0,7,,,,,,,,,11,,,,70,0
55425,note_on,0,0,8,,,,,,,,,12,,,,58,0
55425,note_on,39,0,8,,,,,,,,,12,,,,61,0
55429,note_on,39,0,9,,,,,,,,,13,,,,41,0
55431,note_on,39,0,10,,,,,,,,,14,,,,29,0
55440,set_tempo,240,1,0,,,,,,261438,,,,,,,,
55440,note_on,21,0,6,,,,,,,,,10,,,,85,120
55442,note_on,21,0,7,,,,,,,,,11,,,,73,120
55446,note_on,21,0,8,,,,,,,,,12,,,,58,118
55446,note_on,0,0,8,,,,,,,,,12,,,,61,118
55450,note_on,21,0,9,,,,,,,,,13,,,,41,109
55452,note_on,21,0,10,,,,,,,,,14,,,,29,103
55479,note_on,39,0,6,,,,,,,,,10,,,,85,0
55481,note_on,39,0,7,,,,,,,,,11,,,,73,0
55485,note_on,0,0,8,,,,,,,,,12,,,,58,0
55485,note_on,39,0,8,,,,,,,,,12,,,,61,0
55489,note_on,39,0,9,,,,,,,,,13,,,,41,0
55491,note_on,39,0,10,,,,,,,,,14,,,,29,0
55500,note_on,21,0,6,,,,,,,,,10,,,,85,110
55502,note_on,21,0,7,,,,,,,,,11,,,,73,110
55506,note_on,0,0,8,,,,,,,,,12,,,,58,108
55506,note_on,21,0,8,,,,,,,,,12,,,,61,108
55510,note_on,21,0,9,,,,,,,,,13,,,,41,99
55512,note_on,21,0,10,,,,,,,,,14,,,,29,93
55539,note_on,39,0,6,,,,,,,,,10,,,,85,0
55541,note_on,39,0,7,,,,,,,,,11,,,,73,0
55545,note_on,39,0,8,,,,,,,,,12,,,,58,0
55545,note_on,0,0,8,,,,,,,,,12,,,,61,0
55549,note_on,39,0,9,,,,,,,,,13,,,,41,0
55551,note_on,39,0,10,,,,,,,,,14,,,,29,0
55560,note_on,21,0,6,,,,,,,,,10,,,,88,121
55562,note_on,21,0,7,,,,,,,,,11,,,,76,121
55566,note_on,0,0,8,,,,,,,,,12,,,,58,119
55566,note_on,21,0,8,,,,,,,,,12,,,,61,119
55570,note_on,21,0,9,,,,,,,,,13,,,,41,110
55572,note_on,21,0,10,,,,,,,,,14,,,,29,104
55599,note_on,39,0,6,,,,,,,,,10,,,,88,0
55601,note_on,39,0,7,,,,,,,,,11,,,,76,0
55605,note_on,39,0,8,,,,,,,,,12,,,,58,0
55605,note_on,0,0,8,,,,,,,,,12,,,,61,0
55609,note_on,39,0,9,,,,,,,,,13,,,,41,0
55611,note_on,39,0,10,,,,,,,,,14,,,,29,0
55620,note_on,21,0,6,,,,,,,,,10,,,,88,112
55622,note_on,21,0,7,,,,,,,,,11,,,,76,112
55626,note_on,0,0,8,,,,,,,,,12,,,,61,110
55626,note_on,21,0,8,,,,,,,,,12,,,,58,110
55630,note_on,21,0,9,,,,,,,,,13,,,,41,101
55632,note_on,21,0,10,,,,,,,,,14,,,,29,95
55659,note_on,39,0,6,,,,,,,,,10,,,,88,0
55661,note_on,39,0,7,,,,,,,,,11,,,,76,0
55665,note_on,0,0,8,,,,,,,,,12,,,,58,0
55665,note_on,39,0,8,,,,,,,,,12,,,,61,0
55669,note_on,39,0,9,,,,,,,,,13,,,,41,0
55671,note_on,39,0,10,,,,,,,,,14,,,,29,0
55680,set_tempo,240,1,0,,,,,,285714,,,,,,,,
55680,note_on,21,0,6,,,,,,,,,10,,,,89,113
55682,note_on,21,0,7,,,,,,,,,11,,,,77,113
55683,note_on,0,0,1,,,,,,,,,0,,,,89,110
55683,note_on,960,0,1,,,,,,,,,0,,,,88,0
55685,note_on,960,0,2,,,,,,,,,1,,,,70,0
55685,note_on,0,0,2,,,,,,,,,1,,,,77,110
55685,note_on,0,0,2,,,,,,,,,1,,,,79,0
55685,note_on,0,0,2,,,,,,,,,1,,,,69,110
55686,note_on,21,0,8,,,,,,,,,12,,,,57,111
55686,note_on,0,0,8,,,,,,,,,12,,,,60,111
55690,note_on,21,0,9,,,,,,,,,13,,,,41,102
55691,note_on,960,0,3,,,,,,,,,3,,,,60,110
55692,note_on,21,0,10,,,,,,,,,14,,,,29,96
55694,note_on,3,0,3,,,,,,,,,3,,,,61,0
55800,note_on,120,0,6,,,,,,,,,10,,,,89,0
55802,note_on,120,0,7,,,,,,,,,11,,,,77,0
55803,note_on,120,0,1,,,,,,,,,0,,,,89,0
55804,note_on,1080,0,4,,,,,,,,,4,,,,53,0
55805,note_on,0,0,2,,,,,,,,,1,,,,77,0
55805,note_on,120,0,2,,,,,,,,,1,,,,69,0
55806,note_on,1080,0,5,,,,,,,,,5,,,,41,0
55806,note_on,0,0,8,,,,,,,,,12,,,,57,0
55806,note_on,120,0,8,,,,,,,,,12,,,,60,0
55810,note_on,120,0,9,,,,,,,,,13,,,,41,0
55811,note_on,117,0,3,,,,,,,,,3,,,,60,0
55811,note_on,0,0,3,,,,,,,,,3,,,,53,0
55812,note_on,120,0,10,,,,,,,,,14,,,,29,0
55910,set_tempo,230,1,0,,,,,,281030,,,,,,,,
55920,note_on,0,0,6,,,,,,,,,10,,,,72,95
55920,note_on,120,0,6,,,,,,,,,10,,,,65,95
55920,note_on,0,0,6,,,,,,,,,10,,,,81,95
55922,note_on,0,0,7,,,,,,,,,11,,,,72,95
55922,note_on,0,0,7,,,,,,,,,11,,,,81,95
55922,note_on,120,0,7,,,,,,,,,11,,,,65,95
55923,note_on,120,0,1,,,,,,,,,0,,,,93,110
55924,note_on,120,0,4,,,,,,,,,4,,,,53,109
55925,note_on,0,0,2,,,,,,,,,1,,,,72,110
55925,note_on,120,0,2,,,,,,,,,1,,,,81,110
55926,note_on,120,0,8,,,,,,,,,12,,,,53,108
55926,note_on,0,0,8,,,,,,,,,12,,,,60,108
55926,note_on,0,0,8,,,,,,,,,12,,,,69,108
55926,note_on,120,0,5,,,,,,,,,5,,,,41,109
55930,note_on,120,0,9,,,,,,,,,13,,,,53,99
55931,note_on,120,0,3,,,,,,,,,3,,,,53,110
55932,note_on,120,0,10,,,,,,,,,14,,,,41,93
56040,note_on,120,0,6,,,,,,,,,10,,,,72,0
56040,note_on,0,0,6,,,,,,,,,10,,,,81,0
56040,note_on,0,0,6,,,,,,,,,10,,,,65,0
56042,note_on,0,0,7,,,,,,,,,11,,,,65,0
56042,note_on,0,0,7,,,,,,,,,11,,,,81,0
56042,note_on,120,0,7,,,,,,,,,11,,,,72,0
56043,note_on,120,0,1,,,,,,,,,0,,,,93,0
56044,note_on,120,0,4,,,,,,,,,4,,,,53,0
56045,note_on,0,0,2,,,,,,,,,1,,,,81,0
56045,note_on,120,0,2,,,,,,,,,1,,,,72,0
56046,note_on,0,0,8,,,,,,,,,12,,,,60,0
56046,note_on,120,0,5,,,,,,,,,5,,,,41,0
56046,note_on,0,0,8,,,,,,,,,12,,,,53,0
56046,note_on,120,0,8,,,,,,,,,12,,,,69,0
56050,note_on,120,0,9,,,,,,,,,13,,,,53,0
56051,note_on,120,0,3,,,,,,,,,3,,,,53,0
56052,note_on,120,0,10,,,,,,,,,14,,,,41,0
56160,note_on,120,0,6,,,,,,,,,10,,,,57,94
56160,note_on,0,0,6,,,,,,,,,10,,,,65,94
56160,set_tempo,250,1,0,,,,,,299252,,,,,,,,
56162,note_on,0,0,7,,,,,,,,,11,,,,57,94
56162,note_on,120,0,7,,,,,,,,,11,,,,65,94
56163,note_on,120,0,1,,,,,,,,,0,,,,89,93
56164,note_on,120,0,4,,,,,,,,,4,,,,53,92
56165,note_on,120,0,2,,,,,,,,,1,,,,69,93
56165,note_on,0,0,2,,,,,,,,,1,,,,77,93
56166,note_on,120,0,5,,,,,,,,,5,,,,41,92
56166,note_on,120,0,8,,,,,,,,,12,,,,53,92
56170,note_on,120,0,9,,,,,,,,,13,,,,41,83
56171,note_on,0,0,3,,,,,,,,,3,,,,53,93
56171,note_on,120,0,3,,,,,,,,,3,,,,41,93
56172,note_on,120,0,10,,,,,,,,,14,,,,29,77
56280,note_on,0,0,6,,,,,,,,,10,,,,57,0
56280,note_on,120,0,6,,,,,,,,,10,,,,65,0
56282,note_on,120,0,7,,,,,,,,,11,,,,57,0
56282,note_on,0,0,7,,,,,,,,,11,,,,65,0
56283,note_on,120,0,1,,,,,,,,,0,,,,89,0
56284,note_on,120,0,4,,,,,,,,,4,,,,53,0
56285,note_on,120,0,2,,,,,,,,,1,,,,77,0
56285,note_on,0,0,2,,,,,,,,,1,,,,69,0
56286,note_on,120,0,8,,,,,,,,,12,,,,53,0
56286,note_on,120,0,5,,,,,,,,,5,,,,41,0
56290,note_on,120,0,9,,,,,,,,,13,,,,41,0
56291,note_on,120,0,3,,,,,,,,,3,,,,53,0
56291,note_on,0,0,3,,,,,,,,,3,,,,41,0
56292,note_on,120,0,10,,,,,,,,,14,,,,29,0
56640,set_tempo,480,1,0,,,,,,272727,,,,,,,,
56643,control_change,360,0,1,,,,,,,,,0,11,20,,,
56643,note_on,0,0,1,,,,,,,,,0,,,,79,97
56645,control_change,360,0,2,,,,,,,,,1,11,20,,,
56645,note_on,0,0,2,,,,,,,,,1,,,,70,97
56645,note_on,0,0,2,,,,,,,,,1,,,,74,97
56651,control_change,360,0,3,,,,,,,,,3,11,20,,,
56651,note_on,0,0,3,,,,,,,,,3,,,,58,97
56657,control_change,14,0,1,,,,,,,,,0,11,24,,,
56659,control_change,14,0,2,,,,,,,,,1,11,24,,,
56665,control_change,14,0,3,,,,,,,,,3,11,24,,,
56671,control_change,14,0,1,,,,,,,,,0,11,28,,,
56673,control_change,14,0,2,,,,,,,,,1,11,28,,,
56679,control_change,14,0,3,,,,,,,,,3,11,28,,,
56685,control_change,14,0,1,,,,,,,,,0,11,32,,,
56687,control_change,14,0,2,,,,,,,,,1,11,32,,,
56693,control_change,14,0,3,,,,,,,,,3,11,32,,,
56703,control_change,18,0,1,,,,,,,,,0,11,35,,,
56705,control_change,18,0,2,,,,,,,,,1,11,35,,,
56711,control_change,18,0,3,,,,,,,,,3,11,35,,,
56739,control_change,36,0,1,,,,,,,,,0,11,38,,,
56741,control_change,36,0,2,,,,,,,,,1,11,38,,,
56747,control_change,36,0,3,,,,,,,,,3,11,38,,,
56763,control_change,24,0,1,,,,,,,,,0,11,39,,,
56765,control_change,24,0,2,,,,,,,,,1,11,39,,,
56771,control_change,24,0,3,,,,,,,,,3,11,39,,,
56787,control_change,24,0,1,,,,,,,,,0,11,41,,,
56789,control_change,24,0,2,,,,,,,,,1,11,41,,,
56795,control_change,24,0,3,,,,,,,,,3,11,41,,,
56811,control_change,24,0,1,,,,,,,,,0,11,42,,,
56813,control_change,24,0,2,,,,,,,,,1,11,42,,,
56819,control_change,24,0,3,,,,,,,,,3,11,42,,,
56835,control_change,24,0,1,,,,,,,,,0,11,44,,,
56837,control_change,24,0,2,,,,,,,,,1,11,44,,,
56843,control_change,24,0,3,,,,,,,,,3,11,44,,,
56859,control_change,24,0,1,,,,,,,,,0,11,45,,,
56861,control_change,24,0,2,,,,,,,,,1,11,45,,,
56867,control_change,24,0,3,,,,,,,,,3,11,45,,,
56883,control_change,24,0,1,,,,,,,,,0,11,47,,,
56885,control_change,24,0,2,,,,,,,,,1,11,47,,,
56891,control_change,24,0,3,,,,,,,,,3,11,47,,,
57123,note_on,240,0,1,,,,,,,,,0,,,,79,0
57123,note_on,0,0,1,,,,,,,,,0,,,,74,97
57131,note_on,240,0,3,,,,,,,,,3,,,,58,0
57131,note_on,0,0,3,,,,,,,,,3,,,,67,97
57600,set_tempo,960,1,0,,,,,,277136,,,,,,,,
57603,note_on,0,0,1,,,,,,,,,0,,,,79,97
57603,note_on,480,0,1,,,,,,,,,0,,,,74,0
57605,note_on,720,0,2,,,,,,,,,1,,,,74,0
57605,note_on,0,0,2,,,,,,,,,1,,,,72,97
57611,note_on,0,0,3,,,,,,,,,3,,,,63,97
57611,note_on,480,0,3,,,,,,,,,3,,,,67,0
57720,note_on,0,0,6,,,,,,,,,10,,,,75,110
57720,control_change,1440,0,6,,,,,,,,,10,11,47,,,
57744,note_on,24,0,6,,,,,,,,,10,,,,75,0
57780,note_on,36,0,6,,,,,,,,,10,,,,77,110
57804,note_on,24,0,6,,,,,,,,,10,,,,77,0
57840,note_on,36,0,6,,,,,,,,,10,,,,79,110
57840,set_tempo,240,1,0,,,,,,267261,,,,,,,,
57864,note_on,24,0,6,,,,,,,,,10,,,,79,0
57900,note_on,36,0,6,,,,,,,,,10,,,,77,110
57924,note_on,24,0,6,,,,,,,,,10,,,,77,0
57960,note_on,36,0,6,,,,,,,,,10,,,,75,110
57984,note_on,24,0,6,,,,,,,,,10,,,,75,0
58020,note_on,36,0,6,,,,,,,,,10,,,,74,110
58044,note_on,24,0,6,,,,,,,,,10,,,,74,0
58080,note_on,36,0,6,,,,,,,,,10,,,,72,110
58080,set_tempo,240,1,0,,,,,,272727,,,,,,,,
58083,note_on,480,0,1,,,,,,,,,0,,,,79,0
58083,note_on,0,0,1,,,,,,,,,0,,,,77,97
58085,note_on,480,0,2,,,,,,,,,1,,,,70,0
58085,note_on,0,0,2,,,,,,,,,1,,,,69,97
58091,note_on,480,0,3,,,,,,,,,3,,,,63,0
58091,note_on,0,0,3,,,,,,,,,3,,,,65,97
58104,note_on,24,0,6,,,,,,,,,10,,,,72,0
58140,note_on,36,0,6,,,,,,,,,10,,,,70,110
58164,note_on,24,0,6,,,,,,,,,10,,,,70,0
58200,note_on,36,0,6,,,,,,,,,10,,,,69,110
58224,note_on,24,0,6,,,,,,,,,10,,,,69,0
58260,note_on,36,0,6,,,,,,,,,10,,,,67,110
58284,note_on,24,0,6,,,,,,,,,10,,,,67,0
58320,note_on,36,0,6,,,,,,,,,10,,,,65,110
58320,set_tempo,240,1,0,,,,,,261438,,,,,,,,
58323,note_on,0,0,1,,,,,,,,,0,,,,75,97
58323,note_on,240,0,1,,,,,,,,,0,,,,77,0
58344,note_on,24,0,6,,,,,,,,,10,,,,65,0
58380,note_on,36,0,6,,,,,,,,,10,,,,63,110
58404,note_on,24,0,6,,,,,,,,,10,,,,63,0
58440,note_on,36,0,6,,,,,,,,,10,,,,62,110
58464,note_on,24,0,6,,,,,,,,,10,,,,62,0
58500,note_on,36,0,6,,,,,,,,,10,,,,60,110
58524,note_on,24,0,6,,,,,,,,,10,,,,60,0
58560,set_tempo,240,1,0,,,,,,272727,,,,,,,,
58560,control_change,36,0,6,,,,,,,,,10,11,52,,,
58560,note_on,0,0,6,,,,,,,,,10,,,,70,95
58562,note_on,0,0,7,,,,,,,,,11,,,,65,95
58562,note_on,0,0,7,,,,,,,,,11,,,,62,95
58562,control_change,2280,0,7,,,,,,,,,11,11,22,,,
58563,note_on,0,0,1,,,,,,,,,0,,,,74,97
58563,note_on,240,0,1,,,,,,,,,0,,,,75,0
58565,note_on,480,0,2,,,,,,,,,1,,,,69,0
58565,note_on,0,0,2,,,,,,,,,1,,,,72,0
58565,note_on,0,0,2,,,,,,,,,1,,,,70,97
58566,control_change,2280,0,8,,,,,,,,,12,11,22,,,
58566,note_on,0,0,8,,,,,,,,,12,,,,58,93
58570,note_on,0,0,9,,,,,,,,,13,,,,46,99
58570,control_change,2280,0,9,,,,,,,,,13,11,22,,,
58571,note_on,0,0,3,,,,,,,,,3,,,,58,97
58571,note_on,480,0,3,,,,,,,,,3,,,,65,0
58572,note_on,0,0,10,,,,,,,,,14,,,,34,93
58572,control_change,2280,0,10,,,,,,,,,14,11,22,,,
58574,control_change,12,0,7,,,,,,,,,11,11,25,,,
58578,control_change,12,0,8,,,,,,,,,12,11,25,,,
58579,control_change,19,0,6,,,,,,,,,10,11,49,,,
58582,control_change,12,0,9,,,,,,,,,13,11,25,,,
58584,control_change,12,0,10,,,,,,,,,14,11,25,,,
58586,control_change,12,0,7,,,,,,,,,11,11,28,,,
58590,control_change,12,0,8,,,,,,,,,12,11,28,,,
58594,control_change,12,0,9,,,,,,,,,13,11,28,,,
58594,control_change,8,0,7,,,,,,,,,11,11,31,,,
58596,control_change,12,0,10,,,,,,,,,14,11,28,,,
58598,control_change,8,0,8,,,,,,,,,12,11,31,,,
58599,control_change,20,0,6,,,,,,,,,10,11,46,,,
58601,note_on,7,0,7,,,,,,,,,11,,,,62,0
58601,note_on,0,0,7,,,,,,,,,11,,,,65,0
58602,control_change,1,0,7,,,,,,,,,11,11,34,,,
58602,control_change,8,0,9,,,,,,,,,13,11,31,,,
58604,control_change,8,0,10,,,,,,,,,14,11,31,,,
58605,note_on,7,0,8,,,,,,,,,12,,,,58,0
58606,control_change,1,0,8,,,,,,,,,12,11,34,,,
58610,control_change,8,0,9,,,,,,,,,13,11,34,,,
58610,control_change,8,0,7,,,,,,,,,11,11,37,,,
58612,control_change,8,0,10,,,,,,,,,14,11,34,,,
58614,control_change,8,0,8,,,,,,,,,12,11,37,,,
58618,control_change,8,0,9,,,,,,,,,13,11,37,,,
58618,control_change,8,0,7,,,,,,,,,11,11,40,,,
58619,control_change,20,0,6,,,,,,,,,10,11,43,,,
58620,control_change,8,0,10,,,,,,,,,14,11,37,,,
58622,note_on,0,0,7,,,,,,,,,11,,,,65,93
58622,control_change,8,0,8,,,,,,,,,12,11,40,,,
58622,note_on,4,0,7,,,,,,,,,11,,,,62,93
58626,note_on,4,0,8,,,,,,,,,12,,,,58,91
58626,control_change,8,0,9,,,,,,,,,13,11,40,,,
58628,control_change,8,0,10,,,,,,,,,14,11,40,,,
58661,note_on,0,0,7,,,,,,,,,11,,,,62,0
58661,note_on,39,0,7,,,,,,,,,11,,,,65,0
58665,note_on,39,0,8,,,,,,,,,12,,,,58,0
58668,control_change,49,0,6,,,,,,,,,10,11,46,,,
58682,note_on,21,0,7,,,,,,,,,11,,,,62,110
58682,note_on,0,0,7,,,,,,,,,11,,,,65,110
58683,note_on,120,0,1,,,,,,,,,0,,,,74,0
58685,note_on,120,0,2,,,,,,,,,1,,,,70,0
58686,note_on,21,0,8,,,,,,,,,12,,,,58,108
58690,note_on,64,0,9,,,,,,,,,13,,,,46,0
58691,note_on,120,0,3,,,,,,,,,3,,,,58,0
58692,note_on,64,0,10,,,,,,,,,14,,,,34,0
58704,control_change,36,0,6,,,,,,,,,10,11,48,,,
58721,note_on,39,0,7,,,,,,,,,11,,,,65,0
58721,note_on,0,0,7,,,,,,,,,11,,,,62,0
58725,note_on,39,0,8,,,,,,,,,12,,,,58,0
58740,note_on,36,0,6,,,,,,,,,10,,,,70,0
58740,control_change,0,0,6,,,,,,,,,10,11,49,,,
58740,note_on,0,0,6,,,,,,,,,10,,,,74,90
58742,note_on,21,0,7,,,,,,,,,11,,,,65,101
58742,note_on,0,0,7,,,,,,,,,11,,,,62,101
58746,note_on,21,0,8,,,,,,,,,12,,,,58,99
58758,control_change,18,0,6,,,,,,,,,10,11,52,,,
58776,control_change,18,0,6,,,,,,,,,10,11,55,,,
58779,note_on,3,0,6,,,,,,,,,10,,,,74,0
58781,note_on,39,0,7,,,,,,,,,11,,,,62,0
58781,note_on,0,0,7,,,,,,,,,11,,,,65,0
58785,note_on,39,0,8,,,,,,,,,12,,,,58,0
58794,control_change,15,0,6,,,,,,,,,10,11,58,,,
58800,set_tempo,240,1,0,,,,,,261438,,,,,,,,
58800,note_on,6,0,6,,,,,,,,,10,,,,77,90
58802,note_on,21,0,7,,,,,,,,,11,,,,62,110
58802,note_on,0,0,7,,,,,,,,,11,,,,65,110
58806,note_on,21,0,8,,,,,,,,,12,,,,58,108
58812,control_change,12,0,6,,,,,,,,,10,11,60,,,
58830,control_change,18,0,6,,,,,,,,,10,11,62,,,
58841,note_on,39,0,7,,,,,,,,,11,,,,65,0
58841,note_on,0,0,7,,,,,,,,,11,,,,62,0
58845,note_on,39,0,8,,,,,,,,,12,,,,58,0
58848,control_change,18,0,6,,,,,,,,,10,11,63,,,
58860,note_on,12,0,6,,,,,,,,,10,,,,77,0
58862,note_on,0,0,7,,,,,,,,,11,,,,62,101
58862,note_on,21,0,7,,,,,,,,,11,,,,65,101
58866,note_on,21,0,8,,,,,,,,,12,,,,58,99
58866,control_change,6,0,6,,,,,,,,,10,11,64,,,
58884,control_change,18,0,6,,,,,,,,,10,11,66,,,
58901,note_on,0,0,7,,,,,,,,,11,,,,65,0
58901,note_on,39,0,7,,,,,,,,,11,,,,62,0
58902,control_change,18,0,6,,,,,,,,,10,11,67,,,
58905,note_on,39,0,8,,,,,,,,,12,,,,58,0
58920,note_on,0,0,6,,,,,,,,,10,,,,77,90
58920,control_change,18,0,6,,,,,,,,,10,11,68,,,
58922,note_on,21,0,7,,,,,,,,,11,,,,65,110
58922,note_on,0,0,7,,,,,,,,,11,,,,62,110
58926,note_on,21,0,8,,,,,,,,,12,,,,58,108
58961,note_on,39,0,7,,,,,,,,,11,,,,62,0
58961,note_on,0,0,7,,,,,,,,,11,,,,65,0
58965,note_on,39,0,8,,,,,,,,,12,,,,58,0
58980,note_on,60,0,6,,,,,,,,,10,,,,77,0
58982,note_on,0,0,7,,,,,,,,,11,,,,62,101
58982,note_on,21,0,7,,,,,,,,,11,,,,65,101
58986,note_on,21,0,8,,,,,,,,,12,,,,58,99
59021,note_on,0,0,7,,,,,,,,,11,,,,65,0
59021,note_on,39,0,7,,,,,,,,,11,,,,62,0
59025,note_on,39,0,8,,,,,,,,,12,,,,58,0
59040,note_on,0,0,6,,,,,,,,,10,,,,77,79
59040,set_tempo,240,1,0,,,,,,272727,,,,,,,,
59040,control_change,60,0,6,,,,,,,,,10,11,68,,,
59042,note_on,0,0,7,,,,,,,,,11,,,,62,110
59042,note_on,21,0,7,,,,,,,,,11,,,,65,110
59046,note_on,21,0,8,,,,,,,,,12,,,,58,108
59050,note_on,360,0,9,,,,,,,,,13,,,,46,99
59052,note_on,360,0,10,,,,,,,,,14,,,,34,93
59064,control_change,24,0,6,,,,,,,,,10,11,67,,,
59081,note_on,0,0,7,,,,,,,,,11,,,,65,0
59081,note_on,39,0,7,,,,,,,,,11,,,,62,0
59085,note_on,39,0,8,,,,,,,,,12,,,,58,0
59088,control_change,24,0,6,,,,,,,,,10,11,66,,,
59102,note_on,21,0,7,,,,,,,,,11,,,,62,101
59102,note_on,0,0,7,,,,,,,,,11,,,,65,101
59106,note_on,21,0,8,,,,,,,,,12,,,,58,99
59112,control_change,24,0,6,,,,,,,,,10,11,64,,,
59136,control_change,24,0,6,,,,,,,,,10,11,63,,,
59141,note_on,39,0,7,,,,,,,,,11,,,,65,0
59141,note_on,0,0,7,,,,,,,,,11,,,,62,0
59145,note_on,39,0,8,,,,,,,,,12,,,,58,0
59160,control_change,24,0,6,,,,,,,,,10,11,62,,,
59162,note_on,21,0,7,,,,,,,,,11,,,,62,110
59162,note_on,0,0,7,,,,,,,,,11,,,,65,110
59166,note_on,21,0,8,,,,,,,,,12,,,,58,108
59184,control_change,24,0,6,,,,,,,,,10,11,60,,,
59201,note_on,0,0,7,,,,,,,,,11,,,,62,0
59201,note_on,39,0,7,,,,,,,,,11,,,,65,0
59205,note_on,39,0,8,,,,,,,,,12,,,,58,0
59208,control_change,24,0,6,,,,,,,,,10,11,58,,,
59222,note_on,21,0,7,,,,,,,,,11,,,,62,101
59222,note_on,0,0,7,,,,,,,,,11,,,,65,101
59226,note_on,21,0,8,,,,,,,,,12,,,,58,99
59230,note_on,0,0,9,,,,,,,,,13,,,,50,99
59230,note_on,180,0,9,,,,,,,,,13,,,,46,0
59232,control_change,24,0,6,,,,,,,,,10,11,55,,,
59232,note_on,0,0,10,,,,,,,,,14,,,,38,93
59232,note_on,180,0,10,,,,,,,,,14,,,,34,0
59256,control_change,24,0,6,,,,,,,,,10,11,52,,,
59261,note_on,39,0,7,,,,,,,,,11,,,,65,0
59261,note_on,0,0,7,,,,,,,,,11,,,,62,0
59265,note_on,39,0,8,,,,,,,,,12,,,,58,0
59269,note_on,39,0,9,,,,,,,,,13,,,,50,0
59271,note_on,39,0,10,,,,,,,,,14,,,,38,0
59280,note_on,24,0,6,,,,,,,,,10,,,,77,0
59280,set_tempo,240,1,0,,,,,,261438,,,,,,,,
59280,control_change,0,0,6,,,,,,,,,10,11,49,,,
59282,note_on,0,0,7,,,,,,,,,11,,,,62,110
59282,note_on,21,0,7,,,,,,,,,11,,,,65,110
59286,note_on,21,0,8,,,,,,,,,12,,,,58,108
59290,note_on,21,0,9,,,,,,,,,13,,,,53,99
59292,note_on,21,0,10,,,,,,,,,14,,,,41,93
59321,note_on,0,0,7,,,,,,,,,11,,,,65,0
59321,note_on,39,0,7,,,,,,,,,11,,,,62,0
59325,note_on,39,0,8,,,,,,,,,12,,,,58,0
59342,note_on,21,0,7,,,,,,,,,11,,,,62,101
59342,note_on,0,0,7,,,,,,,,,11,,,,65,101
59346,note_on,21,0,8,,,,,,,,,12,,,,58,99
59350,note_on,60,0,9,,,,,,,,,13,,,,53,0
59352,note_on,60,0,10,,,,,,,,,14,,,,41,0
59381,note_on,0,0,7,,,,,,,,,11,,,,62,0
59381,note_on,39,0,7,,,,,,,,,11,,,,65,0
59385,note_on,39,0,8,,,,,,,,,12,,,,58,0
59402,note_on,21,0,7,,,,,,,,,11,,,,65,110
59402,note_on,0,0,7,,,,,,,,,11,,,,62,110
59406,note_on,21,0,8,,,,,,,,,12,,,,58,108
59410,note_on,60,0,9,,,,,,,,,13,,,,53,99
59412,note_on,60,0,10,,,,,,,,,14,,,,41,93
59441,note_on,39,0,7,,,,,,,,,11,,,,62,0
59441,note_on,0,0,7,,,,,,,,,11,,,,65,0
59445,note_on,39,0,8,,,,,,,,,12,,,,58,0
59462,note_on,21,0,7,,,,,,,,,11,,,,65,101
59462,note_on,0,0,7,,,,,,,,,11,,,,62,101
59466,note_on,21,0,8,,,,,,,,,12,,,,58,99
59470,note_on,60,0,9,,,,,,,,,13,,,,53,0
59472,note_on,60,0,10,,,,,,,,,14,,,,41,0
59501,note_on,39,0,7,,,,,,,,,11,,,,62,0
59501,note_on,0,0,7,,,,,,,,,11,,,,65,0
59505,note_on,39,0,8,,,,,,,,,12,,,,58,0
59520,control_change,240,0,6,,,,,,,,,10,11,58,,,
59520,note_on,0,0,6,,,,,,,,,10,,,,69,90
59520,set_tempo,240,1,0,,,,,,272727,,,,,,,,
59522,note_on,21,0,7,,,,,,,,,11,,,,65,110
59522,note_on,0,0,7,,,,,,,,,11,,,,60,110
59526,note_on,21,0,8,,,,,,,,,12,,,,57,108
59530,note_on,60,0,9,,,,,,,,,13,,,,53,99
59532,note_on,60,0,10,,,,,,,,,14,,,,41,93
59539,control_change,19,0,6,,,,,,,,,10,11,57,,,
59559,control_change,20,0,6,,,,,,,,,10,11,56,,,
59561,note_on,39,0,7,,,,,,,,,11,,,,60,0
59561,note_on,0,0,7,,,,,,,,,11,,,,65,0
59565,note_on,39,0,8,,,,,,,,,12,,,,57,0
59579,control_change,20,0,6,,,,,,,,,10,11,55,,,
59582,note_on,21,0,7,,,,,,,,,11,,,,65,101
59582,note_on,0,0,7,,,,,,,,,11,,,,60,101
59586,note_on,21,0,8,,,,,,,,,12,,,,57,99
59592,control_change,13,0,6,,,,,,,,,10,11,58,,,
59616,control_change,24,0,6,,,,,,,,,10,11,60,,,
59621,note_on,39,0,7,,,,,,,,,11,,,,60,0
59621,note_on,0,0,7,,,,,,,,,11,,,,65,0
59625,note_on,39,0,8,,,,,,,,,12,,,,57,0
59640,control_change,24,0,6,,,,,,,,,10,11,62,,,
59642,note_on,21,0,7,,,,,,,,,11,,,,65,110
59642,note_on,0,0,7,,,,,,,,,11,,,,60,110
59646,note_on,21,0,8,,,,,,,,,12,,,,57,108
59664,control_change,24,0,6,,,,,,,,,10,11,63,,,
59681,note_on,0,0,7,,,,,,,,,11,,,,65,0
59681,note_on,39,0,7,,,,,,,,,11,,,,60,0
59685,note_on,39,0,8,,,,,,,,,12,,,,57,0
59688,control_change,24,0,6,,,,,,,,,10,11,64,,,
59700,note_on,12,0,6,,,,,,,,,10,,,,69,0
59700,note_on,0,0,6,,,,,,,,,10,,,,72,90
59702,note_on,21,0,7,,,,,,,,,11,,,,60,101
59702,note_on,0,0,7,,,,,,,,,11,,,,65,101
59706,note_on,21,0,8,,,,,,,,,12,,,,57,99
59712,control_change,12,0,6,,,,,,,,,10,11,66,,,
59736,control_change,24,0,6,,,,,,,,,10,11,67,,,
59739,note_on,3,0,6,,,,,,,,,10,,,,72,0
59741,note_on,0,0,7,,,,,,,,,11,,,,60,0
59741,note_on,39,0,7,,,,,,,,,11,,,,65,0
59745,note_on,39,0,8,,,,,,,,,12,,,,57,0
59760,note_on,0,0,6,,,,,,,,,10,,,,77,90
59760,set_tempo,240,1,0,,,,,,261438,,,,,,,,
59760,control_change,21,0,6,,,,,,,,,10,11,68,,,
59762,note_on,21,0,7,,,,,,,,,11,,,,65,110
59762,note_on,0,0,7,,,,,,,,,11,,,,60,110
59766,note_on,21,0,8,,,,,,,,,12,,,,57,108
59770,note_on,240,0,9,,,,,,,,,13,,,,53,0
59772,note_on,240,0,10,,,,,,,,,14,,,,41,0
59801,note_on,39,0,7,,,,,,,,,11,,,,60,0
59801,note_on,0,0,7,,,,,,,,,11,,,,65,0
59805,note_on,39,0,8,,,,,,,,,12,,,,57,0
59820,note_on,60,0,6,,,,,,,,,10,,,,77,0
59822,note_on,21,0,7,,,,,,,,,11,,,,65,101
59822,note_on,0,0,7,,,,,,,,,11,,,,60,101
59826,note_on,21,0,8,,,,,,,,,12,,,,57,99
59861,note_on,39,0,7,,,,,,,,,11,,,,60,0
59861,note_on,0,0,7,,,,,,,,,11,,,,65,0
59865,note_on,39,0,8,,,,,,,,,12,,,,57,0
59880,note_on,60,0,6,,,,,,,,,10,,,,77,90
59882,note_on,21,0,7,,,,,,,,,11,,,,65,110
59882,note_on,0,0,7,,,,,,,,,11,,,,60,110
59886,note_on,21,0,8,,,,,,,,,12,,,,57,108
59921,note_on,0,0,7,,,,,,,,,11,,,,65,0
59921,note_on,39,0,7,,,,,,,,,11,,,,60,0
59925,note_on,39,0,8,,,,,,,,,12,,,,57,0
59940,note_on,60,0,6,,,,,,,,,10,,,,77,0
59942,note_on,0,0,7,,,,,,,,,11,,,,60,101
59942,note_on,21,0,7,,,,,,,,,11,,,,65,101
59946,note_on,21,0,8,,,,,,,,,12,,,,57,99
59981,note_on,39,0,7,,,,,,,,,11,,,,60,0
59981,note_on,0,0,7,,,,,,,,,11,,,,65,0
59985,note_on,39,0,8,,,,,,,,,12,,,,57,0
60000,note_on,0,0,6,,,,,,,,,10,,,,77,79
60000,control_change,60,0,6,,,,,,,,,10,11,68,,,
60000,set_tempo,240,1,0,,,,,,272727,,,,,,,,
60002,note_on,21,0,7,,,,,,,,,11,,,,60,110
60002,note_on,0,0,7,,,,,,,,,11,,,,65,110
60006,note_on,21,0,8,,,,,,,,,12,,,,57,108
60010,note_on,240,0,9,,,,,,,,,13,,,,45,99
60012,note_on,240,0,10,,,,,,,,,14,,,,33,93
60024,control_change,24,0,6,,,,,,,,,10,11,67,,,
60041,note_on,39,0,7,,,,,,,,,11,,,,65,0
60041,note_on,0,0,7,,,,,,,,,11,,,,60,0
60045,note_on,39,0,8,,,,,,,,,12,,,,57,0
60048,control_change,24,0,6,,,,,,,,,10,11,66,,,
60062,note_on,21,0,7,,,,,,,,,11,,,,60,101
60062,note_on,0,0,7,,,,,,,,,11,,,,65,101
60066,note_on,21,0,8,,,,,,,,,12,,,,57,99
60072,control_change,24,0,6,,,,,,,,,10,11,64,,,
60096,control_change,24,0,6,,,,,,,,,10,11,63,,,
60101,note_on,0,0,7,,,,,,,,,11,,,,60,0
60101,note_on,39,0,7,,,,,,,,,11,,,,65,0
60105,note_on,39,0,8,,,,,,,,,12,,,,57,0
60120,control_change,24,0,6,,,,,,,,,10,11,62,,,
60122,note_on,21,0,7,,,,,,,,,11,,,,65,110
60122,note_on,0,0,7,,,,,,,,,11,,,,60,110
60126,note_on,21,0,8,,,,,,,,,12,,,,57,108
60144,control_change,24,0,6,,,,,,,,,10,11,60,,,
60161,note_on,39,0,7,,,,,,,,,11,,,,60,0
60161,note_on,0,0,7,,,,,,,,,11,,,,65,0
60165,note_on,39,0,8,,,,,,,,,12,,,,57,0
60168,control_change,24,0,6,,,,,,,,,10,11,58,,,
60182,note_on,21,0,7,,,,,,,,,11,,,,65,101
60182,note_on,0,0,7,,,,,,,,,11,,,,60,101
60186,note_on,21,0,8,,,,,,,,,12,,,,57,99
60190,note_on,180,0,9,,,,,,,,,13,,,,45,0
60190,note_on,0,0,9,,,,,,,,,13,,,,48,99
60192,control_change,24,0,6,,,,,,,,,10,11,55,,,
60192,note_on,180,0,10,,,,,,,,,14,,,,33,0
60192,note_on,0,0,10,,,,,,,,,14,,,,36,93
60216,control_change,24,0,6,,,,,,,,,10,11,52,,,
60221,note_on,39,0,7,,,,,,,,,11,,,,60,0
60221,note_on,0,0,7,,,,,,,,,11,,,,65,0
60225,note_on,39,0,8,,,,,,,,,12,,,,57,0
60229,note_on,39,0,9,,,,,,,,,13,,,,48,0
60231,note_on,39,0,10,,,,,,,,,14,,,,36,0
60240,note_on,24,0,6,,,,,,,,,10,,,,77,0
60240,set_tempo,240,1,0,,,,,,261438,,,,,,,,
60240,control_change,0,0,6,,,,,,,,,10,11,49,,,
60242,note_on,0,0,7,,,,,,,,,11,,,,60,110
60242,note_on,21,0,7,,,,,,,,,11,,,,65,110
60246,note_on,21,0,8,,,,,,,,,12,,,,57,108
60250,note_on,21,0,9,,,,,,,,,13,,,,53,99
60252,note_on,21,0,10,,,,,,,,,14,,,,41,93
60281,note_on,0,0,7,,,,,,,,,11,,,,65,0
60281,note_on,39,0,7,,,,,,,,,11,,,,60,0
60285,note_on,39,0,8,,,,,,,,,12,,,,57,0
60302,note_on,21,0,7,,,,,,,,,11,,,,65,101
60302,note_on,0,0,7,,,,,,,,,11,,,,60,101
60306,note_on,21,0,8,,,,,,,,,12,,,,57,99
60310,note_on,60,0,9,,,,,,,,,13,,,,53,0
60312,note_on,60,0,10,,,,,,,,,14,,,,41,0
60341,note_on,0,0,7,,,,,,,,,11,,,,65,0
60341,note_on,39,0,7,,,,,,,,,11,,,,60,0
60345,note_on,39,0,8,,,,,,,,,12,,,,57,0
60362,note_on,0,0,7,,,,,,,,,11,,,,65,110
60362,note_on,21,0,7,,,,,,,,,11,,,,60,110
60366,note_on,21,0,8,,,,,,,,,12,,,,57,108
60370,note_on,60,0,9,,,,,,,,,13,,,,53,99
60372,note_on,60,0,10,,,,,,,,,14,,,,41,93
60401,note_on,0,0,7,,,,,,,,,11,,,,60,0
60401,note_on,39,0,7,,,,,,,,,11,,,,65,0
60405,note_on,39,0,8,,,,,,,,,12,,,,57,0
60422,note_on,0,0,7,,,,,,,,,11,,,,65,101
60422,note_on,21,0,7,,,,,,,,,11,,,,60,101
60426,note_on,21,0,8,,,,,,,,,12,,,,57,99
60430,note_on,60,0,9,,,,,,,,,13,,,,53,0
60432,note_on,60,0,10,,,,,,,,,14,,,,41,0
60461,note_on,39,0,7,,,,,,,,,11,,,,65,0
60461,note_on,0,0,7,,,,,,,,,11,,,,60,0
60465,note_on,39,0,8,,,,,,,,,12,,,,57,0
60480,set_tempo,240,1,0,,,,,,272727,,,,,,,,
60480,note_on,0,0,6,,,,,,,,,10,,,,75,90
60480,control_change,240,0,6,,,,,,,,,10,11,58,,,
60482,note_on,21,0,7,,,,,,,,,11,,,,63,110
60482,note_on,0,0,7,,,,,,,,,11,,,,58,110
60486,note_on,21,0,8,,,,,,,,,12,,,,55,108
60490,note_on,60,0,9,,,,,,,,,13,,,,43,99
60492,note_on,60,0,10,,,,,,,,,14,,,,31,93
60499,control_change,19,0,6,,,,,,,,,10,11,57,,,
60519,control_change,20,0,6,,,,,,,,,10,11,56,,,
60521,note_on,0,0,7,,,,,,,,,11,,,,63,0
60521,note_on,39,0,7,,,,,,,,,11,,,,58,0
60525,note_on,39,0,8,,,,,,,,,12,,,,55,0
60539,control_change,20,0,6,,,,,,,,,10,11,55,,,
60542,note_on,21,0,7,,,,,,,,,11,,,,58,101
60542,note_on,0,0,7,,,,,,,,,11,,,,63,101
60546,note_on,21,0,8,,,,,,,,,12,,,,55,99
60552,control_change,13,0,6,,,,,,,,,10,11,58,,,
60576,control_change,24,0,6,,,,,,,,,10,11,60,,,
60581,note_on,39,0,7,,,,,,,,,11,,,,63,0
60581,note_on,0,0,7,,,,,,,,,11,,,,58,0
60585,note_on,39,0,8,,,,,,,,,12,,,,55,0
60600,control_change,24,0,6,,,,,,,,,10,11,62,,,
60602,note_on,21,0,7,,,,,,,,,11,,,,63,110
60602,note_on,0,0,7,,,,,,,,,11,,,,58,110
60606,note_on,21,0,8,,,,,,,,,12,,,,55,108
60624,control_change,24,0,6,,,,,,,,,10,11,63,,,
60641,note_on,0,0,7,,,,,,,,,11,,,,63,0
60641,note_on,39,0,7,,,,,,,,,11,,,,58,0
60645,note_on,39,0,8,,,,,,,,,12,,,,55,0
60648,control_change,24,0,6,,,,,,,,,10,11,64,,,
60660,note_on,12,0,6,,,,,,,,,10,,,,75,0
60660,note_on,0,0,6,,,,,,,,,10,,,,79,90
60662,note_on,0,0,7,,,,,,,,,11,,,,63,101
60662,note_on,21,0,7,,,,,,,,,11,,,,58,101
60666,note_on,21,0,8,,,,,,,,,12,,,,55,99
60672,control_change,12,0,6,,,,,,,,,10,11,66,,,
60696,control_change,24,0,6,,,,,,,,,10,11,67,,,
60699,note_on,3,0,6,,,,,,,,,10,,,,79,0
60701,note_on,39,0,7,,,,,,,,,11,,,,63,0
60701,note_on,0,0,7,,,,,,,,,11,,,,58,0
60705,note_on,39,0,8,,,,,,,,,12,,,,55,0
60720,note_on,0,0,6,,,,,,,,,10,,,,82,90
60720,control_change,21,0,6,,,,,,,,,10,11,68,,,
60720,set_tempo,240,1,0,,,,,,261438,,,,,,,,
60722,note_on,0,0,7,,,,,,,,,11,,,,58,110
60722,note_on,21,0,7,,,,,,,,,11,,,,63,110
60726,note_on,21,0,8,,,,,,,,,12,,,,55,108
60730,note_on,240,0,9,,,,,,,,,13,,,,43,0
60732,note_on,240,0,10,,,,,,,,,14,,,,31,0
60761,note_on,39,0,7,,,,,,,,,11,,,,58,0
60761,note_on,0,0,7,,,,,,,,,11,,,,63,0
60765,note_on,39,0,8,,,,,,,,,12,,,,55,0
60780,note_on,60,0,6,,,,,,,,,10,,,,82,0
60782,note_on,0,0,7,,,,,,,,,11,,,,58,101
60782,note_on,21,0,7,,,,,,,,,11,,,,63,101
60786,note_on,21,0,8,,,,,,,,,12,,,,55,99
60821,note_on,39,0,7,,,,,,,,,11,,,,58,0
60821,note_on,0,0,7,,,,,,,,,11,,,,63,0
60825,note_on,39,0,8,,,,,,,,,12,,,,55,0
60840,note_on,60,0,6,,,,,,,,,10,,,,82,90
60842,note_on,21,0,7,,,,,,,,,11,,,,63,110
60842,note_on,0,0,7,,,,,,,,,11,,,,58,110
60846,note_on,21,0,8,,,,,,,,,12,,,,55,108
60881,note_on,0,0,7,,,,,,,,,11,,,,63,0
60881,note_on,39,0,7,,,,,,,,,11,,,,58,0
60885,note_on,39,0,8,,,,,,,,,12,,,,55,0
60900,note_on,60,0,6,,,,,,,,,10,,,,82,0
60902,note_on,0,0,7,,,,,,,,,11,,,,58,101
60902,note_on,21,0,7,,,,,,,,,11,,,,63,101
60906,note_on,21,0,8,,,,,,,,,12,,,,55,99
60941,note_on,0,0,7,,,,,,,,,11,,,,63,0
60941,note_on,39,0,7,,,,,,,,,11,,,,58,0
60945,note_on,39,0,8,,,,,,,,,12,,,,55,0
60960,note_on,0,0,6,,,,,,,,,10,,,,82,79
60960,control_change,60,0,6,,,,,,,,,10,11,68,,,
60960,set_tempo,240,1,0,,,,,,272727,,,,,,,,
60962,note_on,21,0,7,,,,,,,,,11,,,,63,110
60962,note_on,0,0,7,,,,,,,,,11,,,,58,110
60966,note_on,21,0,8,,,,,,,,,12,,,,55,108
60970,note_on,240,0,9,,,,,,,,,13,,,,43,99
60972,note_on,240,0,10,,,,,,,,,14,,,,31,93
60984,control_change,24,0,6,,,,,,,,,10,11,67,,,
61001,note_on,0,0,7,,,,,,,,,11,,,,63,0
61001,note_on,39,0,7,,,,,,,,,11,,,,58,0
61005,note_on,39,0,8,,,,,,,,,12,,,,55,0
61008,control_change,24,0,6,,,,,,,,,10,11,66,,,
61022,note_on,0,0,7,,,,,,,,,11,,,,63,101
61022,note_on,21,0,7,,,,,,,,,11,,,,58,101
61026,note_on,21,0,8,,,,,,,,,12,,,,55,99
61032,control_change,24,0,6,,,,,,,,,10,11,64,,,
61056,control_change,24,0,6,,,,,,,,,10,11,63,,,
61061,note_on,0,0,7,,,,,,,,,11,,,,58,0
61061,note_on,39,0,7,,,,,,,,,11,,,,63,0
61065,note_on,39,0,8,,,,,,,,,12,,,,55,0
61080,control_change,24,0,6,,,,,,,,,10,11,62,,,
61082,note_on,0,0,7,,,,,,,,,11,,,,63,110
61082,note_on,21,0,7,,,,,,,,,11,,,,58,110
61086,note_on,21,0,8,,,,,,,,,12,,,,55,108
61104,control_change,24,0,6,,,,,,,,,10,11,60,,,
61121,note_on,39,0,7,,,,,,,,,11,,,,63,0
61121,note_on,0,0,7,,,,,,,,,11,,,,58,0
61125,note_on,39,0,8,,,,,,,,,12,,,,55,0
61128,control_change,24,0,6,,,,,,,,,10,11,58,,,
61142,note_on,21,0,7,,,,,,,,,11,,,,63,101
61142,note_on,0,0,7,,,,,,,,,11,,,,58,101
61146,note_on,21,0,8,,,,,,,,,12,,,,55,99
61150,note_on,0,0,9,,,,,,,,,13,,,,46,99
61150,note_on,180,0,9,,,,,,,,,13,,,,43,0
61152,note_on,0,0,10,,,,,,,,,14,,,,34,93
61152,note_on,180,0,10,,,,,,,,,14,,,,31,0
61152,control_change,24,0,6,,,,,,,,,10,11,55,,,
61176,control_change,24,0,6,,,,,,,,,10,11,52,,,
61181,note_on,39,0,7,,,,,,,,,11,,,,58,0
61181,note_on,0,0,7,,,,,,,,,11,,,,63,0
61185,note_on,39,0,8,,,,,,,,,12,,,,55,0
61189,note_on,39,0,9,,,,,,,,,13,,,,46,0
61191,note_on,39,0,10,,,,,,,,,14,,,,34,0
61200,note_on,24,0,6,,,,,,,,,10,,,,82,0
61200,control_change,0,0,6,,,,,,,,,10,11,49,,,
61200,note_on,0,0,6,,,,,,,,,10,,,,81,90
61200,set_tempo,240,1,0,,,,,,261438,,,,,,,,
61202,note_on,21,0,7,,,,,,,,,11,,,,58,110
61202,note_on,0,0,7,,,,,,,,,11,,,,63,110
61206,note_on,21,0,8,,,,,,,,,12,,,,55,108
61210,note_on,21,0,9,,,,,,,,,13,,,,51,99
61212,note_on,21,0,10,,,,,,,,,14,,,,39,93
61241,note_on,39,0,7,,,,,,,,,11,,,,63,0
61241,note_on,0,0,7,,,,,,,,,11,,,,58,0
61245,note_on,39,0,8,,,,,,,,,12,,,,55,0
61260,note_on,60,0,6,,,,,,,,,10,,,,81,0
61260,note_on,0,0,6,,,,,,,,,10,,,,79,90
61262,note_on,21,0,7,,,,,,,,,11,,,,63,101
61262,note_on,0,0,7,,,,,,,,,11,,,,58,101
61266,note_on,21,0,8,,,,,,,,,12,,,,55,99
61270,note_on,60,0,9,,,,,,,,,13,,,,51,0
61272,note_on,60,0,10,,,,,,,,,14,,,,39,0
61301,note_on,0,0,7,,,,,,,,,11,,,,63,0
61301,note_on,39,0,7,,,,,,,,,11,,,,58,0
61305,note_on,39,0,8,,,,,,,,,12,,,,55,0
61320,note_on,60,0,6,,,,,,,,,10,,,,79,0
61320,note_on,0,0,6,,,,,,,,,10,,,,77,90
61322,note_on,0,0,7,,,,,,,,,11,,,,58,110
61322,note_on,21,0,7,,,,,,,,,11,,,,63,110
61326,note_on,21,0,8,,,,,,,,,12,,,,55,108
61330,note_on,60,0,9,,,,,,,,,13,,,,51,99
61332,note_on,60,0,10,,,,,,,,,14,,,,39,93
61361,note_on,39,0,7,,,,,,,,,11,,,,58,0
61361,note_on,0,0,7,,,,,,,,,11,,,,63,0
61365,note_on,39,0,8,,,,,,,,,12,,,,55,0
61380,note_on,60,0,6,,,,,,,,,10,,,,77,0
61380,note_on,0,0,6,,,,,,,,,10,,,,75,90
61382,note_on,21,0,7,,,,,,,,,11,,,,63,101
61382,note_on,0,0,7,,,,,,,,,11,,,,58,101
61386,note_on,21,0,8,,,,,,,,,12,,,,55,99
61390,note_on,60,0,9,,,,,,,,,13,,,,51,0
61392,note_on,60,0,10,,,,,,,,,14,,,,39,0
61419,note_on,39,0,6,,,,,,,,,10,,,,75,0
61421,note_on,39,0,7,,,,,,,,,11,,,,58,0
61421,note_on,0,0,7,,,,,,,,,11,,,,63,0
61425,note_on,39,0,8,,,,,,,,,12,,,,55,0
61440,note_on,0,0,6,,,,,,,,,10,,,,74,90
61440,set_tempo,240,1,0,,,,,,272727,,,,,,,,
61440,control_change,21,0,6,,,,,,,,,10,11,58,,,
61442,note_on,0,0,7,,,,,,,,,11,,,,62,110
61442,note_on,21,0,7,,,,,,,,,11,,,,58,110
61446,note_on,21,0,8,,,,,,,,,12,,,,53,108
61450,note_on,60,0,9,,,,,,,,,13,,,,41,99
61452,note_on,60,0,10,,,,,,,,,14,,,,29,93
61459,control_change,19,0,6,,,,,,,,,10,11,57,,,
61479,control_change,20,0,6,,,,,,,,,10,11,56,,,
61481,note_on,0,0,7,,,,,,,,,11,,,,58,0
61481,note_on,39,0,7,,,,,,,,,11,,,,62,0
61485,note_on,39,0,8,,,,,,,,,12,,,,53,0
61499,control_change,20,0,6,,,,,,,,,10,11,55,,,
61502,note_on,0,0,7,,,,,,,,,11,,,,62,101
61502,note_on,21,0,7,,,,,,,,,11,,,,58,101
61506,note_on,21,0,8,,,,,,,,,12,,,,53,99
61512,control_change,13,0,6,,,,,,,,,10,11,58,,,
61536,control_change,24,0,6,,,,,,,,,10,11,60,,,
61541,note_on,39,0,7,,,,,,,,,11,,,,62,0
61541,note_on,0,0,7,,,,,,,,,11,,,,58,0
61545,note_on,39,0,8,,,,,,,,,12,,,,53,0
61560,control_change,24,0,6,,,,,,,,,10,11,62,,,
61562,note_on,0,0,7,,,,,,,,,11,,,,58,110
61562,note_on,21,0,7,,,,,,,,,11,,,,62,110
61566,note_on,21,0,8,,,,,,,,,12,,,,53,108
61584,control_change,24,0,6,,,,,,,,,10,11,63,,,
61601,note_on,0,0,7,,,,,,,,,11,,,,62,0
61601,note_on,39,0,7,,,,,,,,,11,,,,58,0
61605,note_on,39,0,8,,,,,,,,,12,,,,53,0
61608,control_change,24,0,6,,,,,,,,,10,11,64,,,
61620,note_on,0,0,6,,,,,,,,,10,,,,77,90
61620,note_on,12,0,6,,,,,,,,,10,,,,74,0
61622,note_on,21,0,7,,,,,,,,,11,,,,62,101
61622,note_on,0,0,7,,,,,,,,,11,,,,58,101
61626,note_on,21,0,8,,,,,,,,,12,,,,53,99
61632,control_change,12,0,6,,,,,,,,,10,11,66,,,
61656,control_change,24,0,6,,,,,,,,,10,11,67,,,
61659,note_on,3,0,6,,,,,,,,,10,,,,77,0
61661,note_on,0,0,7,,,,,,,,,11,,,,62,0
61661,note_on,39,0,7,,,,,,,,,11,,,,58,0
61665,note_on,39,0,8,,,,,,,,,12,,,,53,0
61680,note_on,0,0,6,,,,,,,,,10,,,,82,90
61680,control_change,21,0,6,,,,,,,,,10,11,68,,,
61680,set_tempo,240,1,0,,,,,,261438,,,,,,,,
61682,note_on,21,0,7,,,,,,,,,11,,,,62,110
61682,note_on,0,0,7,,,,,,,,,11,,,,58,110
61686,note_on,21,0,8,,,,,,,,,12,,,,53,108
61690,note_on,240,0,9,,,,,,,,,13,,,,41,0
61692,note_on,240,0,10,,,,,,,,,14,,,,29,0
61721,note_on,0,0,7,,,,,,,,,11,,,,62,0
61721,note_on,39,0,7,,,,,,,,,11,,,,58,0
61725,note_on,39,0,8,,,,,,,,,12,,,,53,0
61740,note_on,60,0,6,,,,,,,,,10,,,,82,0
61742,note_on,21,0,7,,,,,,,,,11,,,,62,101
61742,note_on,0,0,7,,,,,,,,,11,,,,58,101
61746,note_on,21,0,8,,,,,,,,,12,,,,53,99
61781,note_on,39,0,7,,,,,,,,,11,,,,58,0
61781,note_on,0,0,7,,,,,,,,,11,,,,62,0
61785,note_on,39,0,8,,,,,,,,,12,,,,53,0
61800,note_on,60,0,6,,,,,,,,,10,,,,82,90
61802,note_on,0,0,7,,,,,,,,,11,,,,62,110
61802,note_on,21,0,7,,,,,,,,,11,,,,58,110
61806,note_on,21,0,8,,,,,,,,,12,,,,53,108
61841,note_on,0,0,7,,,,,,,,,11,,,,58,0
61841,note_on,39,0,7,,,,,,,,,11,,,,62,0
61845,note_on,39,0,8,,,,,,,,,12,,,,53,0
61860,note_on,60,0,6,,,,,,,,,10,,,,82,0
61862,note_on,21,0,7,,,,,,,,,11,,,,58,101
61862,note_on,0,0,7,,,,,,,,,11,,,,62,101
61866,note_on,21,0,8,,,,,,,,,12,,,,53,99
61901,note_on,39,0,7,,,,,,,,,11,,,,62,0
61901,note_on,0,0,7,,,,,,,,,11,,,,58,0
61905,note_on,39,0,8,,,,,,,,,12,,,,53,0
61920,set_tempo,240,1,0,,,,,,272727,,,,,,,,
61920,control_change,60,0,6,,,,,,,,,10,11,68,,,
61920,note_on,0,0,6,,,,,,,,,10,,,,82,79
61922,note_on,0,0,7,,,,,,,,,11,,,,58,110
61922,note_on,21,0,7,,,,,,,,,11,,,,62,110
61926,note_on,21,0,8,,,,,,,,,12,,,,53,108
61930,note_on,240,0,9,,,,,,,,,13,,,,41,99
61932,note_on,240,0,10,,,,,,,,,14,,,,29,93
61938,control_change,18,0,6,,,,,,,,,10,11,67,,,
61956,control_change,18,0,6,,,,,,,,,10,11,66,,,
61961,note_on,39,0,7,,,,,,,,,11,,,,58,0
61961,note_on,0,0,7,,,,,,,,,11,,,,62,0
61965,note_on,39,0,8,,,,,,,,,12,,,,53,0
61974,control_change,18,0,6,,,,,,,,,10,11,64,,,
61982,note_on,0,0,7,,,,,,,,,11,,,,58,101
61982,note_on,21,0,7,,,,,,,,,11,,,,62,101
61986,note_on,21,0,8,,,,,,,,,12,,,,53,99
61992,control_change,18,0,6,,,,,,,,,10,11,63,,,
62010,control_change,18,0,6,,,,,,,,,10,11,62,,,
62021,note_on,39,0,7,,,,,,,,,11,,,,58,0
62021,note_on,0,0,7,,,,,,,,,11,,,,62,0
62025,note_on,39,0,8,,,,,,,,,12,,,,53,0
62028,control_change,18,0,6,,,,,,,,,10,11,60,,,
62042,note_on,21,0,7,,,,,,,,,11,,,,62,110
62042,note_on,0,0,7,,,,,,,,,11,,,,58,110
62046,note_on,21,0,8,,,,,,,,,12,,,,53,108
62046,control_change,18,0,6,,,,,,,,,10,11,58,,,
62064,control_change,18,0,6,,,,,,,,,10,11,55,,,
62081,note_on,39,0,7,,,,,,,,,11,,,,58,0
62081,note_on,0,0,7,,,,,,,,,11,,,,62,0
62082,control_change,18,0,6,,,,,,,,,10,11,52,,,
62085,note_on,39,0,8,,,,,,,,,12,,,,53,0
62100,note_on,0,0,6,,,,,,,,,10,,,,81,90
62100,note_on,18,0,6,,,,,,,,,10,,,,82,0
62100,control_change,0,0,6,,,,,,,,,10,11,49,,,
62102,note_on,21,0,7,,,,,,,,,11,,,,62,101
62102,note_on,0,0,7,,,,,,,,,11,,,,58,101
62106,note_on,21,0,8,,,,,,,,,12,,,,53,99
62110,note_on,180,0,9,,,,,,,,,13,,,,41,0
62110,note_on,0,0,9,,,,,,,,,13,,,,46,99
62112,note_on,0,0,10,,,,,,,,,14,,,,34,93
62112,note_on,180,0,10,,,,,,,,,14,,,,29,0
62141,note_on,0,0,7,,,,,,,,,11,,,,62,0
62141,note_on,39,0,7,,,,,,,,,11,,,,58,0
62145,note_on,39,0,8,,,,,,,,,12,,,,53,0
62149,note_on,39,0,9,,,,,,,,,13,,,,46,0
62151,note_on,39,0,10,,,,,,,,,14,,,,34,0
62160,note_on,60,0,6,,,,,,,,,10,,,,81,0
62160,set_tempo,240,1,0,,,,,,261438,,,,,,,,
62160,note_on,0,0,6,,,,,,,,,10,,,,79,90
62162,note_on,0,0,7,,,,,,,,,11,,,,62,110
62162,note_on,21,0,7,,,,,,,,,11,,,,58,110
62166,note_on,21,0,8,,,,,,,,,12,,,,53,108
62170,note_on,21,0,9,,,,,,,,,13,,,,50,99
62172,note_on,21,0,10,,,,,,,,,14,,,,38,93
62201,note_on,39,0,7,,,,,,,,,11,,,,62,0
62201,note_on,0,0,7,,,,,,,,,11,,,,58,0
62205,note_on,39,0,8,,,,,,,,,12,,,,53,0
62220,note_on,60,0,6,,,,,,,,,10,,,,79,0
62220,note_on,0,0,6,,,,,,,,,10,,,,77,90
62222,note_on,21,0,7,,,,,,,,,11,,,,62,101
62222,note_on,0,0,7,,,,,,,,,11,,,,58,101
62226,note_on,21,0,8,,,,,,,,,12,,,,53,99
62230,note_on,60,0,9,,,,,,,,,13,,,,50,0
62232,note_on,60,0,10,,,,,,,,,14,,,,38,0
62261,note_on,0,0,7,,,,,,,,,11,,,,62,0
62261,note_on,39,0,7,,,,,,,,,11,,,,58,0
62265,note_on,39,0,8,,,,,,,,,12,,,,53,0
62280,note_on,0,0,6,,,,,,,,,10,,,,75,90
62280,note_on,60,0,6,,,,,,,,,10,,,,77,0
62282,note_on,0,0,7,,,,,,,,,11,,,,58,110
62282,note_on,21,0,7,,,,,,,,,11,,,,62,110
62286,note_on,21,0,8,,,,,,,,,12,,,,53,108
62290,note_on,60,0,9,,,,,,,,,13,,,,50,99
62292,note_on,60,0,10,,,,,,,,,14,,,,38,93
62321,note_on,39,0,7,,,,,,,,,11,,,,58,0
62321,note_on,0,0,7,,,,,,,,,11,,,,62,0
62325,note_on,39,0,8,,,,,,,,,12,,,,53,0
62340,note_on,60,0,6,,,,,,,,,10,,,,75,0
62340,note_on,0,0,6,,,,,,,,,10,,,,74,90
62342,note_on,21,0,7,,,,,,,,,11,,,,62,101
62342,note_on,0,0,7,,,,,,,,,11,,,,58,101
62346,note_on,21,0,8,,,,,,,,,12,,,,53,99
62350,note_on,60,0,9,,,,,,,,,13,,,,50,0
62352,note_on,60,0,10,,,,,,,,,14,,,,38,0
62379,note_on,39,0,6,,,,,,,,,10,,,,74,0
62381,note_on,39,0,7,,,,,,,,,11,,,,58,0
62381,note_on,0,0,7,,,,,,,,,11,,,,62,0
62385,note_on,39,0,8,,,,,,,,,12,,,,53,0
62400,set_tempo,240,1,0,,,,,,272727,,,,,,,,
62400,control_change,21,0,6,,,,,,,,,10,11,58,,,
62400,note_on,0,0,6,,,,,,,,,10,,,,72,90
62402,note_on,21,0,7,,,,,,,,,11,,,,60,110
62406,note_on,21,0,8,,,,,,,,,12,,,,57,108
62410,note_on,60,0,9,,,,,,,,,13,,,,51,99
62412,note_on,60,0,10,,,,,,,,,14,,,,39,93
62419,control_change,19,0,6,,,,,,,,,10,11,57,,,
62439,control_change,20,0,6,,,,,,,,,10,11,56,,,
62441,note_on,39,0,7,,,,,,,,,11,,,,60,0
62445,note_on,39,0,8,,,,,,,,,12,,,,57,0
62459,control_change,20,0,6,,,,,,,,,10,11,55,,,
62462,note_on,21,0,7,,,,,,,,,11,,,,60,101
62466,note_on,21,0,8,,,,,,,,,12,,,,57,99
62472,control_change,13,0,6,,,,,,,,,10,11,58,,,
62496,control_change,24,0,6,,,,,,,,,10,11,60,,,
62501,note_on,39,0,7,,,,,,,,,11,,,,60,0
62505,note_on,39,0,8,,,,,,,,,12,,,,57,0
62520,control_change,24,0,6,,,,,,,,,10,11,62,,,
62522,note_on,21,0,7,,,,,,,,,11,,,,60,110
62526,note_on,21,0,8,,,,,,,,,12,,,,57,108
62544,control_change,24,0,6,,,,,,,,,10,11,63,,,
62561,note_on,39,0,7,,,,,,,,,11,,,,60,0
62565,note_on,39,0,8,,,,,,,,,12,,,,57,0
62568,control_change,24,0,6,,,,,,,,,10,11,64,,,
62580,note_on,12,0,6,,,,,,,,,10,,,,72,0
62580,note_on,0,0,6,,,,,,,,,10,,,,75,90
62582,note_on,21,0,7,,,,,,,,,11,,,,60,101
62586,note_on,21,0,8,,,,,,,,,12,,,,57,99
62592,control_change,12,0,6,,,,,,,,,10,11,66,,,
62616,control_change,24,0,6,,,,,,,,,10,11,67,,,
62619,note_on,3,0,6,,,,,,,,,10,,,,75,0
62621,note_on,39,0,7,,,,,,,,,11,,,,60,0
62625,note_on,39,0,8,,,,,,,,,12,,,,57,0
62640,set_tempo,240,1,0,,,,,,261438,,,,,,,,
62640,control_change,21,0,6,,,,,,,,,10,11,68,,,
62640,note_on,0,0,6,,,,,,,,,10,,,,79,90
62642,note_on,21,0,7,,,,,,,,,11,,,,60,110
62646,note_on,21,0,8,,,,,,,,,12,,,,57,108
62681,note_on,39,0,7,,,,,,,,,11,,,,60,0
62685,note_on,39,0,8,,,,,,,,,12,,,,57,0
62700,note_on,60,0,6,,,,,,,,,10,,,,79,0
62702,note_on,21,0,7,,,,,,,,,11,,,,60,101
62706,note_on,21,0,8,,,,,,,,,12,,,,57,99
62741,note_on,39,0,7,,,,,,,,,11,,,,60,0
62745,note_on,39,0,8,,,,,,,,,12,,,,57,0
62760,note_on,60,0,6,,,,,,,,,10,,,,79,90
62762,note_on,21,0,7,,,,,,,,,11,,,,60,110
62766,note_on,21,0,8,,,,,,,,,12,,,,57,108
62801,note_on,39,0,7,,,,,,,,,11,,,,60,0
62805,note_on,39,0,8,,,,,,,,,12,,,,57,0
62820,note_on,60,0,6,,,,,,,,,10,,,,79,0
62822,note_on,21,0,7,,,,,,,,,11,,,,60,101
62826,note_on,21,0,8,,,,,,,,,12,,,,57,99
62861,note_on,39,0,7,,,,,,,,,11,,,,60,0
62865,note_on,39,0,8,,,,,,,,,12,,,,57,0
62880,note_on,0,0,6,,,,,,,,,10,,,,77,79
62880,set_tempo,240,1,0,,,,,,272727,,,,,,,,
62880,control_change,60,0,6,,,,,,,,,10,11,68,,,
62882,note_on,21,0,7,,,,,,,,,11,,,,65,110
62886,note_on,21,0,8,,,,,,,,,12,,,,58,108
62890,note_on,0,0,9,,,,,,,,,13,,,,50,99
62890,note_on,480,0,9,,,,,,,,,13,,,,51,0
62892,note_on,480,0,10,,,,,,,,,14,,,,39,0
62892,note_on,0,0,10,,,,,,,,,14,,,,38,93
62904,control_change,24,0,6,,,,,,,,,10,11,67,,,
62921,note_on,39,0,7,,,,,,,,,11,,,,65,0
62925,note_on,39,0,8,,,,,,,,,12,,,,58,0
62928,control_change,24,0,6,,,,,,,,,10,11,66,,,
62942,note_on,21,0,7,,,,,,,,,11,,,,65,101
62946,note_on,21,0,8,,,,,,,,,12,,,,58,99
62952,control_change,24,0,6,,,,,,,,,10,11,64,,,
62976,control_change,24,0,6,,,,,,,,,10,11,63,,,
62981,note_on,39,0,7,,,,,,,,,11,,,,65,0
62985,note_on,39,0,8,,,,,,,,,12,,,,58,0
63000,control_change,24,0,6,,,,,,,,,10,11,62,,,
63002,note_on,21,0,7,,,,,,,,,11,,,,65,110
63006,note_on,21,0,8,,,,,,,,,12,,,,58,108
63024,control_change,24,0,6,,,,,,,,,10,11,60,,,
63041,note_on,39,0,7,,,,,,,,,11,,,,65,0
63045,note_on,39,0,8,,,,,,,,,12,,,,58,0
63048,control_change,24,0,6,,,,,,,,,10,11,58,,,
63062,note_on,21,0,7,,,,,,,,,11,,,,65,101
63066,note_on,21,0,8,,,,,,,,,12,,,,58,99
63072,control_change,24,0,6,,,,,,,,,10,11,55,,,
63096,control_change,24,0,6,,,,,,,,,10,11,52,,,
63101,note_on,39,0,7,,,,,,,,,11,,,,65,0
63105,note_on,39,0,8,,,,,,,,,12,,,,58,0
63120,set_tempo,240,1,0,,,,,,261438,,,,,,,,
63120,note_on,0,0,6,,,,,,,,,10,,,,75,90
63120,control_change,0,0,6,,,,,,,,,10,11,49,,,
63120,note_on,24,0,6,,,,,,,,,10,,,,77,0
63122,note_on,21,0,7,,,,,,,,,11,,,,65,110
63126,note_on,21,0,8,,,,,,,,,12,,,,58,108
63161,note_on,39,0,7,,,,,,,,,11,,,,65,0
63165,note_on,39,0,8,,,,,,,,,12,,,,58,0
63180,note_on,60,0,6,,,,,,,,,10,,,,75,0
63180,note_on,0,0,6,,,,,,,,,10,,,,74,90
63182,note_on,21,0,7,,,,,,,,,11,,,,65,101
63186,note_on,21,0,8,,,,,,,,,12,,,,58,99
63221,note_on,39,0,7,,,,,,,,,11,,,,65,0
63225,note_on,39,0,8,,,,,,,,,12,,,,58,0
63240,note_on,0,0,6,,,,,,,,,10,,,,72,90
63240,note_on,60,0,6,,,,,,,,,10,,,,74,0
63242,note_on,21,0,7,,,,,,,,,11,,,,65,110
63246,note_on,21,0,8,,,,,,,,,12,,,,58,108
63281,note_on,39,0,7,,,,,,,,,11,,,,65,0
63285,note_on,39,0,8,,,,,,,,,12,,,,58,0
63300,note_on,60,0,6,,,,,,,,,10,,,,72,0
63300,note_on,0,0,6,,,,,,,,,10,,,,70,90
63302,note_on,21,0,7,,,,,,,,,11,,,,65,101
63306,note_on,21,0,8,,,,,,,,,12,,,,58,99
63339,note_on,39,0,6,,,,,,,,,10,,,,70,0
63341,note_on,39,0,7,,,,,,,,,11,,,,65,0
63345,note_on,39,0,8,,,,,,,,,12,,,,58,0
63360,set_tempo,240,1,0,,,,,,272727,,,,,,,,
63360,note_on,0,0,6,,,,,,,,,10,,,,72,90
63360,control_change,21,0,6,,,,,,,,,10,11,58,,,
63362,note_on,21,0,7,,,,,,,,,11,,,,60,110
63366,note_on,21,0,8,,,,,,,,,12,,,,57,108
63370,note_on,480,0,9,,,,,,,,,13,,,,50,0
63370,note_on,0,0,9,,,,,,,,,13,,,,51,99
63372,note_on,0,0,10,,,,,,,,,14,,,,39,93
63372,note_on,480,0,10,,,,,,,,,14,,,,38,0
63379,control_change,19,0,6,,,,,,,,,10,11,57,,,
63399,control_change,20,0,6,,,,,,,,,10,11,56,,,
63401,note_on,39,0,7,,,,,,,,,11,,,,60,0
63405,note_on,39,0,8,,,,,,,,,12,,,,57,0
63419,control_change,20,0,6,,,,,,,,,10,11,55,,,
63422,note_on,21,0,7,,,,,,,,,11,,,,60,101
63426,note_on,21,0,8,,,,,,,,,12,,,,57,99
63432,control_change,13,0,6,,,,,,,,,10,11,58,,,
63456,control_change,24,0,6,,,,,,,,,10,11,60,,,
63461,note_on,39,0,7,,,,,,,,,11,,,,60,0
63465,note_on,39,0,8,,,,,,,,,12,,,,57,0
63480,control_change,24,0,6,,,,,,,,,10,11,62,,,
63482,note_on,21,0,7,,,,,,,,,11,,,,60,110
63486,note_on,21,0,8,,,,,,,,,12,,,,57,108
63504,control_change,24,0,6,,,,,,,,,10,11,63,,,
63521,note_on,39,0,7,,,,,,,,,11,,,,60,0
63525,note_on,39,0,8,,,,,,,,,12,,,,57,0
63528,control_change,24,0,6,,,,,,,,,10,11,64,,,
63540,note_on,0,0,6,,,,,,,,,10,,,,75,90
63540,note_on,12,0,6,,,,,,,,,10,,,,72,0
63542,note_on,21,0,7,,,,,,,,,11,,,,60,101
63546,note_on,21,0,8,,,,,,,,,12,,,,57,99
63552,control_change,12,0,6,,,,,,,,,10,11,66,,,
63576,control_change,24,0,6,,,,,,,,,10,11,67,,,
63579,note_on,3,0,6,,,,,,,,,10,,,,75,0
63581,note_on,39,0,7,,,,,,,,,11,,,,60,0
63585,note_on,39,0,8,,,,,,,,,12,,,,57,0
63600,control_change,21,0,6,,,,,,,,,10,11,68,,,
63600,note_on,0,0,6,,,,,,,,,10,,,,79,90
63600,set_tempo,240,1,0,,,,,,261438,,,,,,,,
63602,note_on,21,0,7,,,,,,,,,11,,,,60,110
63606,note_on,21,0,8,,,,,,,,,12,,,,57,108
63641,note_on,39,0,7,,,,,,,,,11,,,,60,0
63645,note_on,39,0,8,,,,,,,,,12,,,,57,0
63660,note_on,60,0,6,,,,,,,,,10,,,,79,0
63662,note_on,21,0,7,,,,,,,,,11,,,,60,101
63666,note_on,21,0,8,,,,,,,,,12,,,,57,99
63701,note_on,39,0,7,,,,,,,,,11,,,,60,0
63705,note_on,39,0,8,,,,,,,,,12,,,,57,0
63720,note_on,60,0,6,,,,,,,,,10,,,,79,90
63722,note_on,21,0,7,,,,,,,,,11,,,,60,110
63726,note_on,21,0,8,,,,,,,,,12,,,,57,108
63761,note_on,39,0,7,,,,,,,,,11,,,,60,0
63765,note_on,39,0,8,,,,,,,,,12,,,,57,0
63780,note_on,60,0,6,,,,,,,,,10,,,,79,0
63782,note_on,21,0,7,,,,,,,,,11,,,,60,101
63786,note_on,21,0,8,,,,,,,,,12,,,,57,99
63821,note_on,39,0,7,,,,,,,,,11,,,,60,0
63825,note_on,39,0,8,,,,,,,,,12,,,,57,0
63840,control_change,60,0,6,,,,,,,,,10,11,68,,,
63840,set_tempo,240,1,0,,,,,,272727,,,,,,,,
63840,note_on,0,0,6,,,,,,,,,10,,,,77,79
63842,note_on,21,0,7,,,,,,,,,11,,,,65,110
63846,note_on,21,0,8,,,,,,,,,12,,,,58,108
63850,note_on,0,0,9,,,,,,,,,13,,,,50,99
63850,note_on,480,0,9,,,,,,,,,13,,,,51,0
63852,note_on,0,0,10,,,,,,,,,14,,,,38,93
63852,note_on,480,0,10,,,,,,,,,14,,,,39,0
63864,control_change,24,0,6,,,,,,,,,10,11,67,,,
63881,note_on,39,0,7,,,,,,,,,11,,,,65,0
63885,note_on,39,0,8,,,,,,,,,12,,,,58,0
63888,control_change,24,0,6,,,,,,,,,10,11,66,,,
63902,note_on,21,0,7,,,,,,,,,11,,,,65,101
63906,note_on,21,0,8,,,,,,,,,12,,,,58,99
63912,control_change,24,0,6,,,,,,,,,10,11,64,,,
63936,control_change,24,0,6,,,,,,,,,10,11,63,,,
63941,note_on,39,0,7,,,,,,,,,11,,,,65,0
63945,note_on,39,0,8,,,,,,,,,12,,,,58,0
63960,control_change,24,0,6,,,,,,,,,10,11,62,,,
63962,note_on,21,0,7,,,,,,,,,11,,,,65,110
63966,note_on,21,0,8,,,,,,,,,12,,,,58,108
63984,control_change,24,0,6,,,,,,,,,10,11,60,,,
64001,note_on,39,0,7,,,,,,,,,11,,,,65,0
64005,note_on,39,0,8,,,,,,,,,12,,,,58,0
64008,control_change,24,0,6,,,,,,,,,10,11,58,,,
64022,note_on,21,0,7,,,,,,,,,11,,,,65,101
64026,note_on,21,0,8,,,,,,,,,12,,,,58,99
64032,control_change,24,0,6,,,,,,,,,10,11,55,,,
64056,control_change,24,0,6,,,,,,,,,10,11,52,,,
64061,note_on,39,0,7,,,,,,,,,11,,,,65,0
64065,note_on,39,0,8,,,,,,,,,12,,,,58,0
64080,set_tempo,240,1,0,,,,,,261438,,,,,,,,
64080,note_on,24,0,6,,,,,,,,,10,,,,77,0
64080,note_on,0,0,6,,,,,,,,,10,,,,75,90
64080,control_change,0,0,6,,,,,,,,,10,11,49,,,
64082,note_on,21,0,7,,,,,,,,,11,,,,65,110
64086,note_on,21,0,8,,,,,,,,,12,,,,58,108
64121,note_on,39,0,7,,,,,,,,,11,,,,65,0
64125,note_on,39,0,8,,,,,,,,,12,,,,58,0
64140,note_on,60,0,6,,,,,,,,,10,,,,75,0
64140,note_on,0,0,6,,,,,,,,,10,,,,74,90
64142,note_on,21,0,7,,,,,,,,,11,,,,65,101
64146,note_on,21,0,8,,,,,,,,,12,,,,58,99
64181,note_on,39,0,7,,,,,,,,,11,,,,65,0
64185,note_on,39,0,8,,,,,,,,,12,,,,58,0
64200,note_on,0,0,6,,,,,,,,,10,,,,72,90
64200,note_on,60,0,6,,,,,,,,,10,,,,74,0
64202,note_on,21,0,7,,,,,,,,,11,,,,65,110
64206,note_on,21,0,8,,,,,,,,,12,,,,58,108
64241,note_on,39,0,7,,,,,,,,,11,,,,65,0
64245,note_on,39,0,8,,,,,,,,,12,,,,58,0
64260,note_on,60,0,6,,,,,,,,,10,,,,72,0
64260,note_on,0,0,6,,,,,,,,,10,,,,70,90
64262,note_on,21,0,7,,,,,,,,,11,,,,65,101
64266,note_on,21,0,8,,,,,,,,,12,,,,58,99
64299,note_on,39,0,6,,,,,,,,,10,,,,70,0
64301,note_on,39,0,7,,,,,,,,,11,,,,65,0
64305,note_on,39,0,8,,,,,,,,,12,,,,58,0
64320,control_change,21,0,6,,,,,,,,,10,11,49,,,
64320,set_tempo,240,1,0,,,,,,272727,,,,,,,,
64320,note_on,0,0,6,,,,,,,,,10,,,,77,90
64322,note_on,0,0,7,,,,,,,,,11,,,,70,110
64322,control_change,21,0,7,,,,,,,,,11,11,42,,,
64326,note_on,0,0,8,,,,,,,,,12,,,,63,108
64326,control_change,21,0,8,,,,,,,,,12,11,42,,,
64330,note_on,0,0,9,,,,,,,,,13,,,,55,99
64330,control_change,0,0,9,,,,,,,,,13,11,42,,,
64330,note_on,480,0,9,,,,,,,,,13,,,,50,0
64332,note_on,480,0,10,,,,,,,,,14,,,,38,0
64332,control_change,0,0,10,,,,,,,,,14,11,42,,,
64332,note_on,0,0,10,,,,,,,,,14,,,,43,93
64361,note_on,39,0,7,,,,,,,,,11,,,,70,0
64365,note_on,39,0,8,,,,,,,,,12,,,,63,0
64382,note_on,21,0,7,,,,,,,,,11,,,,70,101
64386,note_on,21,0,8,,,,,,,,,12,,,,63,99
64421,note_on,39,0,7,,,,,,,,,11,,,,70,0
64425,note_on,39,0,8,,,,,,,,,12,,,,63,0
64440,note_on,0,0,6,,,,,,,,,10,,,,75,90
64440,note_on,120,0,6,,,,,,,,,10,,,,77,0
64442,note_on,21,0,7,,,,,,,,,11,,,,70,110
64446,note_on,21,0,8,,,,,,,,,12,,,,63,108
64481,note_on,39,0,7,,,,,,,,,11,,,,70,0
64485,note_on,39,0,8,,,,,,,,,12,,,,63,0
64500,note_on,60,0,6,,,,,,,,,10,,,,75,0
64502,note_on,21,0,7,,,,,,,,,11,,,,70,101
64506,note_on,21,0,8,,,,,,,,,12,,,,63,99
64512,control_change,12,0,6,,,,,,,,,10,11,52,,,
64514,control_change,12,0,7,,,,,,,,,11,11,43,,,
64518,control_change,12,0,8,,,,,,,,,12,11,43,,,
64522,control_change,192,0,9,,,,,,,,,13,11,43,,,
64524,control_change,192,0,10,,,,,,,,,14,11,43,,,
64541,note_on,27,0,7,,,,,,,,,11,,,,70,0
64545,note_on,27,0,8,,,,,,,,,12,,,,63,0
64560,set_tempo,240,1,0,,,,,,263736,,,,,,,,
64560,note_on,48,0,6,,,,,,,,,10,,,,75,90
64562,note_on,21,0,7,,,,,,,,,11,,,,70,110
64565,control_change,5880,0,2,,,,,,,,,1,11,32,,,
64565,note_on,0,0,2,,,,,,,,,1,,,,82,97
64565,note_on,0,0,2,,,,,,,,,1,,,,70,97
64565,note_on,43,0,9,,,,,,,,,13,,,,55,0
64566,note_on,21,0,8,,,,,,,,,12,,,,65,108
64567,note_on,43,0,10,,,,,,,,,14,,,,43,0
64570,note_on,5,0,9,,,,,,,,,13,,,,53,99
64572,note_on,5,0,10,,,,,,,,,14,,,,41,93
64589,control_change,24,0,2,,,,,,,,,1,11,34,,,
64601,note_on,39,0,7,,,,,,,,,11,,,,70,0
64605,note_on,39,0,8,,,,,,,,,12,,,,65,0
64613,control_change,24,0,2,,,,,,,,,1,11,36,,,
64622,note_on,21,0,7,,,,,,,,,11,,,,70,101
64626,note_on,21,0,8,,,,,,,,,12,,,,65,99
64637,control_change,24,0,2,,,,,,,,,1,11,38,,,
64661,note_on,39,0,7,,,,,,,,,11,,,,70,0
64661,control_change,24,0,2,,,,,,,,,1,11,40,,,
64665,note_on,39,0,8,,,,,,,,,12,,,,65,0
64680,note_on,120,0,6,,,,,,,,,10,,,,75,0
64680,note_on,0,0,6,,,,,,,,,10,,,,74,90
64682,note_on,21,0,7,,,,,,,,,11,,,,70,110
64685,control_change,24,0,2,,,,,,,,,1,11,42,,,
64686,note_on,21,0,8,,,,,,,,,12,,,,65,108
64704,control_change,24,0,6,,,,,,,,,10,11,55,,,
64706,control_change,24,0,7,,,,,,,,,11,11,45,,,
64709,control_change,24,0,2,,,,,,,,,1,11,44,,,
64710,control_change,24,0,8,,,,,,,,,12,11,45,,,
64714,control_change,144,0,9,,,,,,,,,13,11,45,,,
64716,control_change,144,0,10,,,,,,,,,14,11,45,,,
64721,note_on,15,0,7,,,,,,,,,11,,,,70,0
64725,note_on,15,0,8,,,,,,,,,12,,,,65,0
64733,control_change,24,0,2,,,,,,,,,1,11,46,,,
64740,note_on,36,0,6,,,,,,,,,10,,,,74,0
64742,note_on,21,0,7,,,,,,,,,11,,,,70,101
64746,note_on,21,0,8,,,,,,,,,12,,,,65,99
64757,control_change,24,0,2,,,,,,,,,1,11,48,,,
64781,control_change,24,0,2,,,,,,,,,1,11,50,,,
64781,note_on,39,0,7,,,,,,,,,11,,,,70,0
64785,note_on,39,0,8,,,,,,,,,12,,,,65,0
64800,note_on,60,0,6,,,,,,,,,10,,,,74,90
64800,set_tempo,240,1,0,,,,,,272727,,,,,,,,
64802,note_on,21,0,7,,,,,,,,,11,,,,70,110
64805,note_on,91,0,9,,,,,,,,,13,,,,53,0
64805,control_change,24,0,2,,,,,,,,,1,11,52,,,
64806,note_on,21,0,8,,,,,,,,,12,,,,67,108
64807,note_on,91,0,10,,,,,,,,,14,,,,41,0
64810,note_on,5,0,9,,,,,,,,,13,,,,51,99
64812,note_on,5,0,10,,,,,,,,,14,,,,39,93
64841,note_on,39,0,7,,,,,,,,,11,,,,70,0
64845,note_on,39,0,8,,,,,,,,,12,,,,67,0
64862,note_on,21,0,7,,,,,,,,,11,,,,70,101
64866,note_on,21,0,8,,,,,,,,,12,,,,67,99
64896,control_change,96,0,6,,,,,,,,,10,11,58,,,
64898,control_change,36,0,7,,,,,,,,,11,11,46,,,
64901,note_on,3,0,7,,,,,,,,,11,,,,70,0
64902,control_change,36,0,8,,,,,,,,,12,11,46,,,
64905,note_on,3,0,8,,,,,,,,,12,,,,67,0
64906,control_change,96,0,9,,,,,,,,,13,11,46,,,
64908,control_change,96,0,10,,,,,,,,,14,11,46,,,
64920,note_on,0,0,6,,,,,,,,,10,,,,72,90
64920,note_on,24,0,6,,,,,,,,,10,,,,74,0
64922,note_on,21,0,7,,,,,,,,,11,,,,70,110
64926,note_on,21,0,8,,,,,,,,,12,,,,67,108
64961,note_on,39,0,7,,,,,,,,,11,,,,70,0
64965,note_on,39,0,8,,,,,,,,,12,,,,67,0
64980,note_on,60,0,6,,,,,,,,,10,,,,72,0
64982,note_on,21,0,7,,,,,,,,,11,,,,70,101
64986,note_on,21,0,8,,,,,,,,,12,,,,67,99
65021,note_on,39,0,7,,,,,,,,,11,,,,70,0
65025,note_on,39,0,8,,,,,,,,,12,,,,67,0
65040,note_on,60,0,6,,,,,,,,,10,,,,72,90
65040,set_tempo,240,1,0,,,,,,266667,,,,,,,,
65042,note_on,21,0,7,,,,,,,,,11,,,,70,110
65045,note_on,139,0,9,,,,,,,,,13,,,,51,0
65046,note_on,21,0,8,,,,,,,,,12,,,,67,108
65047,note_on,139,0,10,,,,,,,,,14,,,,39,0
65050,note_on,5,0,9,,,,,,,,,13,,,,52,99
65052,note_on,5,0,10,,,,,,,,,14,,,,40,93
65081,note_on,39,0,7,,,,,,,,,11,,,,70,0
65085,note_on,39,0,8,,,,,,,,,12,,,,67,0
65088,control_change,48,0,6,,,,,,,,,10,11,60,,,
65090,control_change,9,0,7,,,,,,,,,11,11,48,,,
65094,control_change,9,0,8,,,,,,,,,12,11,48,,,
65098,control_change,48,0,9,,,,,,,,,13,11,48,,,
65100,control_change,48,0,10,,,,,,,,,14,11,48,,,
65102,note_on,12,0,7,,,,,,,,,11,,,,70,101
65106,note_on,12,0,8,,,,,,,,,12,,,,67,99
65141,note_on,39,0,7,,,,,,,,,11,,,,70,0
65145,note_on,39,0,8,,,,,,,,,12,,,,67,0
65160,note_on,72,0,6,,,,,,,,,10,,,,72,0
65160,note_on,0,0,6,,,,,,,,,10,,,,73,90
65162,note_on,21,0,7,,,,,,,,,11,,,,70,110
65165,note_on,360,0,2,,,,,,,,,1,,,,82,0
65165,note_on,0,0,2,,,,,,,,,1,,,,73,97
65166,note_on,21,0,8,,,,,,,,,12,,,,67,108
65201,note_on,39,0,7,,,,,,,,,11,,,,70,0
65205,note_on,39,0,8,,,,,,,,,12,,,,67,0
65220,note_on,60,0,6,,,,,,,,,10,,,,73,0
65222,note_on,21,0,7,,,,,,,,,11,,,,70,101
65226,note_on,21,0,8,,,,,,,,,12,,,,67,99
65261,note_on,39,0,7,,,,,,,,,11,,,,70,0
65265,note_on,39,0,8,,,,,,,,,12,,,,67,0
65280,set_tempo,240,1,0,,,,,,276498,,,,,,,,
65280,note_on,0,0,6,,,,,,,,,10,,,,72,90
65280,control_change,60,0,6,,,,,,,,,10,11,62,,,
65282,control_change,21,0,7,,,,,,,,,11,11,49,,,
65282,note_on,0,0,7,,,,,,,,,11,,,,69,110
65283,note_on,0,0,1,,,,,,,,,0,,,,84,110
65283,control_change,6600,0,1,,,,,,,,,0,11,52,,,
65284,note_on,0,0,4,,,,,,,,,4,,,,53,96
65284,control_change,9000,0,4,,,,,,,,,4,11,47,,,
65285,note_on,0,0,2,,,,,,,,,1,,,,69,97
65285,note_on,187,0,9,,,,,,,,,13,,,,52,0
65285,note_on,120,0,2,,,,,,,,,1,,,,73,0
65285,note_on,0,0,2,,,,,,,,,1,,,,70,0
65285,note_on,0,0,2,,,,,,,,,1,,,,72,97
65286,control_change,21,0,8,,,,,,,,,12,11,49,,,
65286,note_on,0,0,8,,,,,,,,,12,,,,60,108
65286,control_change,9000,0,5,,,,,,,,,5,11,47,,,
65286,note_on,0,0,5,,,,,,,,,5,,,,41,96
65287,note_on,187,0,10,,,,,,,,,14,,,,40,0
65290,note_on,0,0,9,,,,,,,,,13,,,,53,99
65290,control_change,5,0,9,,,,,,,,,13,11,49,,,
65292,control_change,5,0,10,,,,,,,,,14,11,49,,,
65292,note_on,0,0,10,,,,,,,,,14,,,,41,93
65321,note_on,39,0,7,,,,,,,,,11,,,,69,0
65325,note_on,39,0,8,,,,,,,,,12,,,,60,0
65342,note_on,21,0,7,,,,,,,,,11,,,,69,101
65346,note_on,21,0,8,,,,,,,,,12,,,,60,99
65381,note_on,39,0,7,,,,,,,,,11,,,,69,0
65385,note_on,39,0,8,,,,,,,,,12,,,,60,0
65402,note_on,21,0,7,,,,,,,,,11,,,,69,110
65406,note_on,21,0,8,,,,,,,,,12,,,,60,108
65441,note_on,39,0,7,,,,,,,,,11,,,,69,0
65445,note_on,39,0,8,,,,,,,,,12,,,,60,0
65462,note_on,21,0,7,,,,,,,,,11,,,,69,101
65463,note_on,180,0,1,,,,,,,,,0,,,,84,0
65463,note_on,0,0,1,,,,,,,,,0,,,,81,97
65466,note_on,21,0,8,,,,,,,,,12,,,,60,99
65501,note_on,39,0,7,,,,,,,,,11,,,,69,0
65505,note_on,39,0,8,,,,,,,,,12,,,,60,0
65520,note_on,240,0,6,,,,,,,,,10,,,,72,0
65520,set_tempo,240,1,0,,,,,,269663,,,,,,,,
65522,note_on,21,0,7,,,,,,,,,11,,,,69,110
65523,note_on,0,0,1,,,,,,,,,0,,,,77,97
65523,note_on,60,0,1,,,,,,,,,0,,,,81,0
65525,note_on,0,0,2,,,,,,,,,1,,,,69,97
65525,note_on,0,0,2,,,,,,,,,1,,,,77,97
65525,note_on,0,0,2,,,,,,,,,1,,,,72,0
65525,note_on,240,0,2,,,,,,,,,1,,,,69,0
65526,note_on,21,0,8,,,,,,,,,12,,,,60,108
65531,note_on,0,0,3,,,,,,,,,3,,,,60,97
65531,control_change,6840,0,3,,,,,,,,,3,11,52,,,
65531,note_on,0,0,3,,,,,,,,,3,,,,53,97
65561,note_on,39,0,7,,,,,,,,,11,,,,69,0
65565,note_on,39,0,8,,,,,,,,,12,,,,60,0
65582,note_on,21,0,7,,,,,,,,,11,,,,69,101
65583,note_on,60,0,1,,,,,,,,,0,,,,77,0
65586,note_on,21,0,8,,,,,,,,,12,,,,60,99
65621,note_on,39,0,7,,,,,,,,,11,,,,69,0
65625,note_on,39,0,8,,,,,,,,,12,,,,60,0
65642,note_on,21,0,7,,,,,,,,,11,,,,69,110
65643,note_on,60,0,1,,,,,,,,,0,,,,77,97
65646,note_on,21,0,8,,,,,,,,,12,,,,60,108
65681,note_on,39,0,7,,,,,,,,,11,,,,69,0
65685,note_on,39,0,8,,,,,,,,,12,,,,60,0
65702,note_on,21,0,7,,,,,,,,,11,,,,69,101
65703,note_on,60,0,1,,,,,,,,,0,,,,77,0
65706,note_on,21,0,8,,,,,,,,,12,,,,60,99
65741,note_on,39,0,7,,,,,,,,,11,,,,69,0
65745,note_on,39,0,8,,,,,,,,,12,,,,60,0
65760,set_tempo,240,1,0,,,,,,277136,,,,,,,,
65760,note_on,0,0,6,,,,,,,,,10,,,,85,108
65760,control_change,240,0,6,,,,,,,,,10,11,57,,,
65762,control_change,21,0,7,,,,,,,,,11,11,47,,,
65762,note_on,0,0,7,,,,,,,,,11,,,,70,125
65763,note_on,0,0,1,,,,,,,,,0,,,,76,97
65763,control_change,60,0,1,,,,,,,,,0,11,56,,,
65764,control_change,4,0,6,,,,,,,,,10,11,60,,,
65764,control_change,480,0,4,,,,,,,,,4,11,65,,,
65765,control_change,0,0,2,,,,,,,,,1,11,56,,,
65765,note_on,0,0,2,,,,,,,,,1,,,,70,110
65765,note_on,0,0,2,,,,,,,,,1,,,,76,110
65765,note_on,0,0,2,,,,,,,,,1,,,,77,0
65765,note_on,240,0,2,,,,,,,,,1,,,,69,0
65766,note_on,0,0,8,,,,,,,,,12,,,,61,123
65766,control_change,21,0,8,,,,,,,,,12,11,47,,,
65766,control_change,480,0,5,,,,,,,,,5,11,65,,,
65766,control_change,4,0,7,,,,,,,,,11,11,50,,,
65767,control_change,4,0,1,,,,,,,,,0,11,59,,,
65769,control_change,4,0,2,,,,,,,,,1,11,59,,,
65770,note_on,0,0,9,,,,,,,,,13,,,,41,99
65770,control_change,0,0,9,,,,,,,,,13,11,47,,,
65770,note_on,480,0,9,,,,,,,,,13,,,,53,0
65770,control_change,4,0,8,,,,,,,,,12,11,50,,,
65770,control_change,4,0,7,,,,,,,,,11,11,53,,,
65771,note_on,0,0,3,,,,,,,,,3,,,,61,110
65771,control_change,4,0,1,,,,,,,,,0,11,62,,,
65771,control_change,0,0,3,,,,,,,,,3,11,56,,,
65771,note_on,240,0,3,,,,,,,,,3,,,,60,0
65772,control_change,8,0,6,,,,,,,,,10,11,64,,,
65772,control_change,0,0,10,,,,,,,,,14,11,47,,,
65772,note_on,480,0,10,,,,,,,,,14,,,,41,0
65772,note_on,0,0,10,,,,,,,,,14,,,,29,108
65773,control_change,4,0,2,,,,,,,,,1,11,62,,,
65774,control_change,4,0,7,,,,,,,,,11,11,56,,,
65774,control_change,4,0,8,,,,,,,,,12,11,53,,,
65774,control_change,4,0,9,,,,,,,,,13,11,50,,,
65775,control_change,4,0,3,,,,,,,,,3,11,59,,,
65776,control_change,4,0,10,,,,,,,,,14,11,50,,,
65778,control_change,4,0,9,,,,,,,,,13,11,53,,,
65778,control_change,4,0,8,,,,,,,,,12,11,56,,,
65779,control_change,4,0,3,,,,,,,,,3,11,62,,,
65780,control_change,4,0,10,,,,,,,,,14,11,53,,,
65782,control_change,4,0,9,,,,,,,,,13,11,56,,,
65784,control_change,4,0,10,,,,,,,,,14,11,56,,,
65787,control_change,23,0,4,,,,,,,,,4,11,64,,,
65789,control_change,23,0,5,,,,,,,,,5,11,64,,,
65801,note_on,27,0,7,,,,,,,,,11,,,,70,0
65805,note_on,27,0,8,,,,,,,,,12,,,,61,0
65811,control_change,24,0,4,,,,,,,,,4,11,62,,,
65813,control_change,24,0,5,,,,,,,,,5,11,62,,,
65822,note_on,21,0,7,,,,,,,,,11,,,,70,112
65826,note_on,21,0,8,,,,,,,,,12,,,,61,110
65835,control_change,24,0,4,,,,,,,,,4,11,61,,,
65837,control_change,24,0,5,,,,,,,,,5,11,61,,,
65859,control_change,24,0,4,,,,,,,,,4,11,59,,,
65861,control_change,24,0,5,,,,,,,,,5,11,59,,,
65861,note_on,39,0,7,,,,,,,,,11,,,,70,0
65865,note_on,39,0,8,,,,,,,,,12,,,,61,0
65882,note_on,21,0,7,,,,,,,,,11,,,,70,118
65883,control_change,24,0,4,,,,,,,,,4,11,57,,,
65885,control_change,24,0,5,,,,,,,,,5,11,57,,,
65886,note_on,21,0,8,,,,,,,,,12,,,,61,116
65907,control_change,24,0,4,,,,,,,,,4,11,55,,,
65909,control_change,24,0,5,,,,,,,,,5,11,55,,,
65921,note_on,39,0,7,,,,,,,,,11,,,,70,0
65925,note_on,39,0,8,,,,,,,,,12,,,,61,0
65931,control_change,24,0,4,,,,,,,,,4,11,53,,,
65933,control_change,24,0,5,,,,,,,,,5,11,53,,,
65940,note_on,168,0,6,,,,,,,,,10,,,,85,0
65940,note_on,0,0,6,,,,,,,,,10,,,,82,90
65942,note_on,21,0,7,,,,,,,,,11,,,,70,104
65946,note_on,21,0,8,,,,,,,,,12,,,,61,102
65955,control_change,24,0,4,,,,,,,,,4,11,51,,,
65957,control_change,24,0,5,,,,,,,,,5,11,51,,,
65979,control_change,24,0,4,,,,,,,,,4,11,49,,,
65979,note_on,39,0,6,,,,,,,,,10,,,,82,0
65981,note_on,39,0,7,,,,,,,,,11,,,,70,0
65981,control_change,24,0,5,,,,,,,,,5,11,49,,,
65985,note_on,39,0,8,,,,,,,,,12,,,,61,0
65985,control_change,6,0,6,,,,,,,,,10,11,65,,,
65987,control_change,6,0,7,,,,,,,,,11,11,57,,,
65988,control_change,217,0,1,,,,,,,,,0,11,65,,,
65990,control_change,217,0,2,,,,,,,,,1,11,65,,,
65991,control_change,6,0,8,,,,,,,,,12,11,57,,,
65995,control_change,213,0,9,,,,,,,,,13,11,57,,,
65996,control_change,217,0,3,,,,,,,,,3,11,65,,,
65997,control_change,213,0,10,,,,,,,,,14,11,57,,,
66000,note_on,15,0,6,,,,,,,,,10,,,,76,90
66000,set_tempo,240,1,0,,,,,,267857,,,,,,,,
66002,note_on,15,0,7,,,,,,,,,11,,,,70,110
66003,note_on,15,0,1,,,,,,,,,0,,,,76,0
66003,control_change,24,0,4,,,,,,,,,4,11,47,,,
66005,control_change,24,0,5,,,,,,,,,5,11,47,,,
66006,note_on,15,0,8,,,,,,,,,12,,,,61,108
66010,control_change,10,0,6,,,,,,,,,10,11,64,,,
66012,control_change,10,0,7,,,,,,,,,11,11,56,,,
66013,control_change,10,0,1,,,,,,,,,0,11,64,,,
66015,control_change,25,0,2,,,,,,,,,1,11,64,,,
66016,control_change,10,0,8,,,,,,,,,12,11,56,,,
66020,control_change,25,0,9,,,,,,,,,13,11,56,,,
66021,control_change,25,0,3,,,,,,,,,3,11,64,,,
66022,control_change,25,0,10,,,,,,,,,14,11,56,,,
66035,control_change,25,0,6,,,,,,,,,10,11,64,,,
66037,control_change,25,0,7,,,,,,,,,11,11,55,,,
66038,control_change,25,0,1,,,,,,,,,0,11,64,,,
66040,control_change,25,0,2,,,,,,,,,1,11,64,,,
66041,control_change,25,0,8,,,,,,,,,12,11,55,,,
66041,note_on,4,0,7,,,,,,,,,11,,,,70,0
66045,control_change,25,0,9,,,,,,,,,13,11,55,,,
66045,note_on,4,0,8,,,,,,,,,12,,,,61,0
66046,control_change,25,0,3,,,,,,,,,3,11,64,,,
66047,control_change,25,0,10,,,,,,,,,14,11,55,,,
66060,note_on,25,0,6,,,,,,,,,10,,,,76,0
66061,control_change,1,0,6,,,,,,,,,10,11,63,,,
66062,note_on,21,0,7,,,,,,,,,11,,,,70,101
66063,control_change,1,0,7,,,,,,,,,11,11,54,,,
66064,control_change,26,0,1,,,,,,,,,0,11,62,,,
66066,note_on,21,0,8,,,,,,,,,12,,,,61,99
66066,control_change,26,0,2,,,,,,,,,1,11,62,,,
66067,control_change,1,0,8,,,,,,,,,12,11,54,,,
66071,control_change,26,0,9,,,,,,,,,13,11,54,,,
66072,control_change,26,0,3,,,,,,,,,3,11,62,,,
66073,control_change,26,0,10,,,,,,,,,14,11,54,,,
66086,control_change,25,0,6,,,,,,,,,10,11,62,,,
66088,control_change,25,0,7,,,,,,,,,11,11,53,,,
66089,control_change,25,0,1,,,,,,,,,0,11,62,,,
66091,control_change,25,0,2,,,,,,,,,1,11,62,,,
66092,control_change,25,0,8,,,,,,,,,12,11,53,,,
66096,control_change,25,0,9,,,,,,,,,13,11,53,,,
66097,control_change,25,0,3,,,,,,,,,3,11,62,,,
66098,control_change,25,0,10,,,,,,,,,14,11,53,,,
66101,note_on,13,0,7,,,,,,,,,11,,,,70,0
66105,note_on,13,0,8,,,,,,,,,12,,,,61,0
66112,control_change,26,0,6,,,,,,,,,10,11,62,,,
66114,control_change,13,0,7,,,,,,,,,11,11,52,,,
66115,control_change,26,0,1,,,,,,,,,0,11,61,,,
66117,control_change,26,0,2,,,,,,,,,1,11,61,,,
66118,control_change,13,0,8,,,,,,,,,12,11,52,,,
66120,note_on,8,0,6,,,,,,,,,10,,,,76,90
66122,control_change,26,0,9,,,,,,,,,13,11,52,,,
66122,note_on,8,0,7,,,,,,,,,11,,,,70,110
66123,control_change,26,0,3,,,,,,,,,3,11,61,,,
66124,control_change,26,0,10,,,,,,,,,14,11,52,,,
66126,note_on,8,0,8,,,,,,,,,12,,,,61,108
66137,control_change,17,0,6,,,,,,,,,10,11,61,,,
66139,control_change,17,0,7,,,,,,,,,11,11,51,,,
66140,control_change,25,0,1,,,,,,,,,0,11,60,,,
66142,control_change,25,0,2,,,,,,,,,1,11,60,,,
66143,control_change,17,0,8,,,,,,,,,12,11,51,,,
66147,control_change,25,0,9,,,,,,,,,13,11,51,,,
66148,control_change,25,0,3,,,,,,,,,3,11,60,,,
66149,control_change,25,0,10,,,,,,,,,14,11,51,,,
66161,note_on,22,0,7,,,,,,,,,11,,,,70,0
66162,control_change,25,0,6,,,,,,,,,10,11,60,,,
66164,control_change,3,0,7,,,,,,,,,11,11,50,,,
66165,note_on,22,0,8,,,,,,,,,12,,,,61,0
66165,control_change,25,0,1,,,,,,,,,0,11,59,,,
66167,control_change,25,0,2,,,,,,,,,1,11,59,,,
66168,control_change,3,0,8,,,,,,,,,12,11,50,,,
66172,control_change,25,0,9,,,,,,,,,13,11,50,,,
66173,control_change,25,0,3,,,,,,,,,3,11,59,,,
66174,control_change,25,0,10,,,,,,,,,14,11,50,,,
66180,note_on,18,0,6,,,,,,,,,10,,,,76,0
66182,note_on,18,0,7,,,,,,,,,11,,,,70,101
66186,note_on,18,0,8,,,,,,,,,12,,,,61,99
66188,control_change,8,0,6,,,,,,,,,10,11,59,,,
66190,control_change,8,0,7,,,,,,,,,11,11,49,,,
66191,control_change,26,0,1,,,,,,,,,0,11,58,,,
66193,control_change,26,0,2,,,,,,,,,1,11,58,,,
66194,control_change,8,0,8,,,,,,,,,12,11,49,,,
66198,control_change,26,0,9,,,,,,,,,13,11,49,,,
66199,control_change,26,0,3,,,,,,,,,3,11,58,,,
66200,control_change,26,0,10,,,,,,,,,14,11,49,,,
66213,control_change,25,0,6,,,,,,,,,10,11,58,,,
66215,control_change,25,0,7,,,,,,,,,11,11,48,,,
66216,control_change,25,0,1,,,,,,,,,0,11,57,,,
66218,control_change,25,0,2,,,,,,,,,1,11,57,,,
66219,control_change,25,0,8,,,,,,,,,12,11,48,,,
66221,note_on,6,0,7,,,,,,,,,11,,,,70,0
66223,control_change,25,0,9,,,,,,,,,13,11,48,,,
66224,control_change,25,0,3,,,,,,,,,3,11,57,,,
66225,control_change,25,0,10,,,,,,,,,14,11,48,,,
66225,note_on,6,0,8,,,,,,,,,12,,,,61,0
66239,control_change,26,0,6,,,,,,,,,10,11,57,,,
66240,set_tempo,240,1,0,,,,,,276498,,,,,,,,
66240,note_on,1,0,6,,,,,,,,,10,,,,77,76
66241,control_change,20,0,7,,,,,,,,,11,11,47,,,
66242,note_on,1,0,7,,,,,,,,,11,,,,69,110
66242,control_change,26,0,1,,,,,,,,,0,11,56,,,
66243,note_on,1,0,1,,,,,,,,,0,,,,84,110
66244,control_change,26,0,2,,,,,,,,,1,11,56,,,
66245,note_on,0,0,2,,,,,,,,,1,,,,76,0
66245,note_on,0,0,2,,,,,,,,,1,,,,77,97
66245,note_on,1,0,2,,,,,,,,,1,,,,70,0
66245,control_change,20,0,8,,,,,,,,,12,11,47,,,
66245,note_on,0,0,2,,,,,,,,,1,,,,69,97
66246,note_on,1,0,8,,,,,,,,,12,,,,60,108
66249,control_change,26,0,9,,,,,,,,,13,11,47,,,
66250,note_on,1,0,9,,,,,,,,,13,,,,41,0
66250,control_change,26,0,3,,,,,,,,,3,11,56,,,
66250,note_on,0,0,9,,,,,,,,,13,,,,53,99
66251,control_change,26,0,10,,,,,,,,,14,11,47,,,
66251,note_on,0,0,3,,,,,,,,,3,,,,60,97
66251,note_on,0,0,3,,,,,,,,,3,,,,53,0
66251,note_on,1,0,3,,,,,,,,,3,,,,61,0
66251,note_on,0,0,3,,,,,,,,,3,,,,53,97
66252,note_on,1,0,10,,,,,,,,,14,,,,29,0
66252,note_on,0,0,10,,,,,,,,,14,,,,41,93
66281,note_on,39,0,7,,,,,,,,,11,,,,69,0
66285,note_on,39,0,8,,,,,,,,,12,,,,60,0
66302,note_on,21,0,7,,,,,,,,,11,,,,69,101
66306,note_on,21,0,8,,,,,,,,,12,,,,60,99
66341,note_on,39,0,7,,,,,,,,,11,,,,69,0
66345,note_on,39,0,8,,,,,,,,,12,,,,60,0
66362,note_on,21,0,7,,,,,,,,,11,,,,69,110
66366,note_on,21,0,8,,,,,,,,,12,,,,60,108
66390,control_change,150,0,6,,,,,,,,,10,11,57,,,
66401,control_change,11,0,6,,,,,,,,,10,11,54,,,
66401,note_on,39,0,7,,,,,,,,,11,,,,69,0
66405,note_on,39,0,8,,,,,,,,,12,,,,60,0
66413,control_change,12,0,6,,,,,,,,,10,11,51,,,
66422,note_on,21,0,7,,,,,,,,,11,,,,69,101
66423,note_on,180,0,1,,,,,,,,,0,,,,84,0
66423,note_on,0,0,1,,,,,,,,,0,,,,81,97
66425,control_change,12,0,6,,,,,,,,,10,11,48,,,
66426,note_on,21,0,8,,,,,,,,,12,,,,60,99
66437,control_change,12,0,6,,,,,,,,,10,11,45,,,
66449,control_change,12,0,6,,,,,,,,,10,11,42,,,
66461,note_on,39,0,7,,,,,,,,,11,,,,69,0
66461,control_change,12,0,6,,,,,,,,,10,11,39,,,
66465,note_on,39,0,8,,,,,,,,,12,,,,60,0
66473,control_change,12,0,6,,,,,,,,,10,11,36,,,
66480,set_tempo,240,1,0,,,,,,269058,,,,,,,,
66480,note_on,7,0,6,,,,,,,,,10,,,,77,0
66482,note_on,21,0,7,,,,,,,,,11,,,,69,110
66483,note_on,60,0,1,,,,,,,,,0,,,,81,0
66483,note_on,0,0,1,,,,,,,,,0,,,,77,97
66486,note_on,21,0,8,,,,,,,,,12,,,,60,108
66521,note_on,39,0,7,,,,,,,,,11,,,,69,0
66525,note_on,39,0,8,,,,,,,,,12,,,,60,0
66542,note_on,21,0,7,,,,,,,,,11,,,,69,101
66543,note_on,60,0,1,,,,,,,,,0,,,,77,0
66546,note_on,21,0,8,,,,,,,,,12,,,,60,99
66581,note_on,39,0,7,,,,,,,,,11,,,,69,0
66585,note_on,39,0,8,,,,,,,,,12,,,,60,0
66602,note_on,21,0,7,,,,,,,,,11,,,,69,110
66603,note_on,60,0,1,,,,,,,,,0,,,,77,97
66606,note_on,21,0,8,,,,,,,,,12,,,,60,108
66641,note_on,39,0,7,,,,,,,,,11,,,,69,0
66645,note_on,39,0,8,,,,,,,,,12,,,,60,0
66662,note_on,21,0,7,,,,,,,,,11,,,,69,101
66663,note_on,60,0,1,,,,,,,,,0,,,,77,0
66666,note_on,21,0,8,,,,,,,,,12,,,,60,99
66701,note_on,39,0,7,,,,,,,,,11,,,,69,0
66705,note_on,39,0,8,,,,,,,,,12,,,,60,0
66720,set_tempo,240,1,0,,,,,,277778,,,,,,,,
66720,note_on,0,0,6,,,,,,,,,10,,,,85,108
66720,control_change,240,0,6,,,,,,,,,10,11,57,,,
66722,note_on,0,0,7,,,,,,,,,11,,,,70,125
66722,control_change,21,0,7,,,,,,,,,11,11,47,,,
66723,note_on,0,0,1,,,,,,,,,0,,,,76,97
66723,control_change,60,0,1,,,,,,,,,0,11,56,,,
66724,control_change,721,0,4,,,,,,,,,4,11,65,,,
66724,control_change,4,0,6,,,,,,,,,10,11,60,,,
66725,note_on,0,0,2,,,,,,,,,1,,,,76,110
66725,note_on,0,0,2,,,,,,,,,1,,,,69,0
66725,note_on,480,0,2,,,,,,,,,1,,,,77,0
66725,control_change,0,0,2,,,,,,,,,1,11,56,,,
66725,note_on,0,0,2,,,,,,,,,1,,,,70,110
66726,note_on,0,0,8,,,,,,,,,12,,,,61,123
66726,control_change,721,0,5,,,,,,,,,5,11,65,,,
66726,control_change,21,0,8,,,,,,,,,12,11,47,,,
66726,control_change,4,0,7,,,,,,,,,11,11,50,,,
66727,control_change,4,0,1,,,,,,,,,0,11,59,,,
66729,control_change,4,0,2,,,,,,,,,1,11,59,,,
66730,control_change,4,0,8,,,,,,,,,12,11,50,,,
66730,control_change,0,0,9,,,,,,,,,13,11,47,,,
66730,note_on,0,0,9,,,,,,,,,13,,,,41,99
66730,note_on,480,0,9,,,,,,,,,13,,,,53,0
66730,control_change,4,0,7,,,,,,,,,11,11,53,,,
66731,note_on,0,0,3,,,,,,,,,3,,,,61,110
66731,control_change,0,0,3,,,,,,,,,3,11,56,,,
66731,note_on,0,0,3,,,,,,,,,3,,,,60,0
66731,control_change,4,0,1,,,,,,,,,0,11,62,,,
66731,note_on,480,0,3,,,,,,,,,3,,,,53,0
66731,note_on,0,0,3,,,,,,,,,3,,,,53,110
66732,control_change,0,0,10,,,,,,,,,14,11,47,,,
66732,control_change,8,0,6,,,,,,,,,10,11,64,,,
66732,note_on,0,0,10,,,,,,,,,14,,,,29,108
66732,note_on,480,0,10,,,,,,,,,14,,,,41,0
66733,control_change,4,0,2,,,,,,,,,1,11,62,,,
66734,control_change,4,0,8,,,,,,,,,12,11,53,,,
66734,control_change,4,0,9,,,,,,,,,13,11,50,,,
66734,control_change,4,0,7,,,,,,,,,11,11,56,,,
66735,control_change,4,0,3,,,,,,,,,3,11,59,,,
66736,control_change,4,0,10,,,,,,,,,14,11,50,,,
66738,control_change,4,0,8,,,,,,,,,12,11,56,,,
66738,control_change,4,0,9,,,,,,,,,13,11,53,,,
66739,control_change,4,0,3,,,,,,,,,3,11,62,,,
66740,control_change,4,0,10,,,,,,,,,14,11,53,,,
66742,control_change,4,0,9,,,,,,,,,13,11,56,,,
66744,control_change,4,0,10,,,,,,,,,14,11,56,,,
66747,control_change,23,0,4,,,,,,,,,4,11,64,,,
66749,control_change,23,0,5,,,,,,,,,5,11,64,,,
66761,note_on,27,0,7,,,,,,,,,11,,,,70,0
66765,note_on,27,0,8,,,,,,,,,12,,,,61,0
66771,control_change,24,0,4,,,,,,,,,4,11,62,,,
66773,control_change,24,0,5,,,,,,,,,5,11,62,,,
66782,note_on,21,0,7,,,,,,,,,11,,,,70,112
66786,note_on,21,0,8,,,,,,,,,12,,,,61,110
66795,control_change,24,0,4,,,,,,,,,4,11,61,,,
66797,control_change,24,0,5,,,,,,,,,5,11,61,,,
66819,control_change,24,0,4,,,,,,,,,4,11,59,,,
66821,note_on,39,0,7,,,,,,,,,11,,,,70,0
66821,control_change,24,0,5,,,,,,,,,5,11,59,,,
66825,note_on,39,0,8,,,,,,,,,12,,,,61,0
66842,note_on,21,0,7,,,,,,,,,11,,,,70,118
66843,control_change,24,0,4,,,,,,,,,4,11,57,,,
66845,control_change,24,0,5,,,,,,,,,5,11,57,,,
66846,note_on,21,0,8,,,,,,,,,12,,,,61,116
66867,control_change,24,0,4,,,,,,,,,4,11,55,,,
66869,control_change,24,0,5,,,,,,,,,5,11,55,,,
66881,note_on,39,0,7,,,,,,,,,11,,,,70,0
66885,note_on,39,0,8,,,,,,,,,12,,,,61,0
66891,control_change,24,0,4,,,,,,,,,4,11,53,,,
66893,control_change,24,0,5,,,,,,,,,5,11,53,,,
66900,note_on,0,0,6,,,,,,,,,10,,,,82,90
66900,note_on,168,0,6,,,,,,,,,10,,,,85,0
66902,note_on,21,0,7,,,,,,,,,11,,,,70,104
66906,note_on,21,0,8,,,,,,,,,12,,,,61,102
66915,control_change,24,0,4,,,,,,,,,4,11,51,,,
66917,control_change,24,0,5,,,,,,,,,5,11,51,,,
66939,control_change,24,0,4,,,,,,,,,4,11,49,,,
66939,note_on,39,0,6,,,,,,,,,10,,,,82,0
66941,control_change,24,0,5,,,,,,,,,5,11,49,,,
66941,note_on,39,0,7,,,,,,,,,11,,,,70,0
66945,control_change,6,0,6,,,,,,,,,10,11,65,,,
66945,note_on,39,0,8,,,,,,,,,12,,,,61,0
66947,control_change,6,0,7,,,,,,,,,11,11,57,,,
66948,control_change,217,0,1,,,,,,,,,0,11,65,,,
66950,control_change,217,0,2,,,,,,,,,1,11,65,,,
66950,set_tempo,230,1,0,,,,,,269663,,,,,,,,
66951,control_change,6,0,8,,,,,,,,,12,11,57,,,
66955,control_change,213,0,9,,,,,,,,,13,11,57,,,
66956,control_change,217,0,3,,,,,,,,,3,11,65,,,
66957,control_change,213,0,10,,,,,,,,,14,11,57,,,
66960,note_on,15,0,6,,,,,,,,,10,,,,76,90
66962,note_on,15,0,7,,,,,,,,,11,,,,70,110
66963,control_change,24,0,4,,,,,,,,,4,11,47,,,
66963,note_on,15,0,1,,,,,,,,,0,,,,76,0
66965,control_change,24,0,5,,,,,,,,,5,11,47,,,
66966,note_on,15,0,8,,,,,,,,,12,,,,61,108
66970,control_change,10,0,6,,,,,,,,,10,11,64,,,
66972,control_change,10,0,7,,,,,,,,,11,11,56,,,
66973,control_change,10,0,1,,,,,,,,,0,11,64,,,
66975,control_change,25,0,2,,,,,,,,,1,11,64,,,
66976,control_change,10,0,8,,,,,,,,,12,11,56,,,
66980,control_change,25,0,9,,,,,,,,,13,11,56,,,
66981,control_change,25,0,3,,,,,,,,,3,11,64,,,
66982,control_change,25,0,10,,,,,,,,,14,11,56,,,
66995,control_change,25,0,6,,,,,,,,,10,11,64,,,
66997,control_change,25,0,7,,,,,,,,,11,11,55,,,
66998,control_change,25,0,1,,,,,,,,,0,11,64,,,
67000,control_change,25,0,2,,,,,,,,,1,11,64,,,
67001,control_change,25,0,8,,,,,,,,,12,11,55,,,
67001,note_on,4,0,7,,,,,,,,,11,,,,70,0
67005,note_on,4,0,8,,,,,,,,,12,,,,61,0
67005,control_change,25,0,9,,,,,,,,,13,11,55,,,
67006,control_change,25,0,3,,,,,,,,,3,11,64,,,
67007,control_change,25,0,10,,,,,,,,,14,11,55,,,
67020,note_on,25,0,6,,,,,,,,,10,,,,76,0
67021,control_change,1,0,6,,,,,,,,,10,11,63,,,
67022,note_on,21,0,7,,,,,,,,,11,,,,70,101
67023,control_change,1,0,7,,,,,,,,,11,11,54,,,
67024,control_change,26,0,1,,,,,,,,,0,11,62,,,
67026,note_on,21,0,8,,,,,,,,,12,,,,61,99
67026,control_change,26,0,2,,,,,,,,,1,11,62,,,
67027,control_change,1,0,8,,,,,,,,,12,11,54,,,
67031,control_change,26,0,9,,,,,,,,,13,11,54,,,
67032,control_change,26,0,3,,,,,,,,,3,11,62,,,
67033,control_change,26,0,10,,,,,,,,,14,11,54,,,
67046,control_change,25,0,6,,,,,,,,,10,11,62,,,
67048,control_change,25,0,7,,,,,,,,,11,11,53,,,
67049,control_change,25,0,1,,,,,,,,,0,11,62,,,
67051,control_change,25,0,2,,,,,,,,,1,11,62,,,
67052,control_change,25,0,8,,,,,,,,,12,11,53,,,
67056,control_change,25,0,9,,,,,,,,,13,11,53,,,
67057,control_change,25,0,3,,,,,,,,,3,11,62,,,
67058,control_change,25,0,10,,,,,,,,,14,11,53,,,
67061,note_on,13,0,7,,,,,,,,,11,,,,70,0
67065,note_on,13,0,8,,,,,,,,,12,,,,61,0
67072,control_change,26,0,6,,,,,,,,,10,11,62,,,
67074,control_change,13,0,7,,,,,,,,,11,11,52,,,
67075,control_change,26,0,1,,,,,,,,,0,11,61,,,
67077,control_change,26,0,2,,,,,,,,,1,11,61,,,
67078,control_change,13,0,8,,,,,,,,,12,11,52,,,
67080,note_on,8,0,6,,,,,,,,,10,,,,76,90
67082,control_change,26,0,9,,,,,,,,,13,11,52,,,
67082,note_on,8,0,7,,,,,,,,,11,,,,70,110
67083,control_change,26,0,3,,,,,,,,,3,11,61,,,
67084,control_change,26,0,10,,,,,,,,,14,11,52,,,
67086,note_on,8,0,8,,,,,,,,,12,,,,61,108
67097,control_change,17,0,6,,,,,,,,,10,11,61,,,
67099,control_change,17,0,7,,,,,,,,,11,11,51,,,
67100,control_change,25,0,1,,,,,,,,,0,11,60,,,
67102,control_change,25,0,2,,,,,,,,,1,11,60,,,
67103,control_change,17,0,8,,,,,,,,,12,11,51,,,
67107,control_change,25,0,9,,,,,,,,,13,11,51,,,
67108,control_change,25,0,3,,,,,,,,,3,11,60,,,
67109,control_change,25,0,10,,,,,,,,,14,11,51,,,
67121,note_on,22,0,7,,,,,,,,,11,,,,70,0
67122,control_change,25,0,6,,,,,,,,,10,11,60,,,
67124,control_change,3,0,7,,,,,,,,,11,11,50,,,
67125,note_on,22,0,8,,,,,,,,,12,,,,61,0
67125,control_change,25,0,1,,,,,,,,,0,11,59,,,
67127,control_change,25,0,2,,,,,,,,,1,11,59,,,
67128,control_change,3,0,8,,,,,,,,,12,11,50,,,
67132,control_change,25,0,9,,,,,,,,,13,11,50,,,
67133,control_change,25,0,3,,,,,,,,,3,11,59,,,
67134,control_change,25,0,10,,,,,,,,,14,11,50,,,
67140,note_on,18,0,6,,,,,,,,,10,,,,76,0
67142,note_on,18,0,7,,,,,,,,,11,,,,70,101
67146,note_on,18,0,8,,,,,,,,,12,,,,61,99
67148,control_change,8,0,6,,,,,,,,,10,11,59,,,
67150,control_change,8,0,7,,,,,,,,,11,11,49,,,
67151,control_change,26,0,1,,,,,,,,,0,11,58,,,
67153,control_change,26,0,2,,,,,,,,,1,11,58,,,
67154,control_change,8,0,8,,,,,,,,,12,11,49,,,
67158,control_change,26,0,9,,,,,,,,,13,11,49,,,
67159,control_change,26,0,3,,,,,,,,,3,11,58,,,
67160,control_change,26,0,10,,,,,,,,,14,11,49,,,
67173,control_change,25,0,6,,,,,,,,,10,11,58,,,
67175,control_change,25,0,7,,,,,,,,,11,11,48,,,
67176,control_change,25,0,1,,,,,,,,,0,11,57,,,
67178,control_change,25,0,2,,,,,,,,,1,11,57,,,
67179,control_change,25,0,8,,,,,,,,,12,11,48,,,
67181,note_on,6,0,7,,,,,,,,,11,,,,70,0
67183,control_change,25,0,9,,,,,,,,,13,11,48,,,
67184,control_change,25,0,3,,,,,,,,,3,11,57,,,
67185,control_change,25,0,10,,,,,,,,,14,11,48,,,
67185,note_on,6,0,8,,,,,,,,,12,,,,61,0
67199,control_change,26,0,6,,,,,,,,,10,11,57,,,
67200,note_on,1,0,6,,,,,,,,,10,,,,77,76
67200,set_tempo,250,1,0,,,,,,278422,,,,,,,,
67201,control_change,20,0,7,,,,,,,,,11,11,47,,,
67202,note_on,1,0,7,,,,,,,,,11,,,,69,110
67202,control_change,26,0,1,,,,,,,,,0,11,56,,,
67204,control_change,26,0,2,,,,,,,,,1,11,56,,,
67205,control_change,20,0,8,,,,,,,,,12,11,47,,,
67205,control_change,0,0,2,,,,,,,,,1,11,52,,,
67205,note_on,0,0,2,,,,,,,,,1,,,,77,97
67205,note_on,0,0,2,,,,,,,,,1,,,,76,0
67205,note_on,1,0,2,,,,,,,,,1,,,,70,0
67205,note_on,0,0,2,,,,,,,,,1,,,,69,97
67206,note_on,1,0,8,,,,,,,,,12,,,,60,108
67209,control_change,26,0,9,,,,,,,,,13,11,47,,,
67210,note_on,0,0,9,,,,,,,,,13,,,,53,99
67210,note_on,1,0,9,,,,,,,,,13,,,,41,0
67210,control_change,26,0,3,,,,,,,,,3,11,56,,,
67211,note_on,1,0,3,,,,,,,,,3,,,,61,0
67211,note_on,0,0,3,,,,,,,,,3,,,,60,97
67211,control_change,26,0,10,,,,,,,,,14,11,47,,,
67211,control_change,0,0,3,,,,,,,,,3,11,52,,,
67212,note_on,1,0,10,,,,,,,,,14,,,,29,0
67212,note_on,0,0,10,,,,,,,,,14,,,,41,93
67241,note_on,39,0,7,,,,,,,,,11,,,,69,0
67245,note_on,39,0,8,,,,,,,,,12,,,,60,0
67262,note_on,21,0,7,,,,,,,,,11,,,,69,101
67266,note_on,21,0,8,,,,,,,,,12,,,,60,99
67301,control_change,96,0,2,,,,,,,,,1,11,51,,,
67301,note_on,39,0,7,,,,,,,,,11,,,,69,0
67305,note_on,39,0,8,,,,,,,,,12,,,,60,0
67307,control_change,96,0,3,,,,,,,,,3,11,51,,,
67322,note_on,21,0,7,,,,,,,,,11,,,,69,110
67326,note_on,21,0,8,,,,,,,,,12,,,,60,108
67350,control_change,150,0,6,,,,,,,,,10,11,57,,,
67361,note_on,39,0,7,,,,,,,,,11,,,,69,0
67361,control_change,11,0,6,,,,,,,,,10,11,54,,,
67365,note_on,39,0,8,,,,,,,,,12,,,,60,0
67373,control_change,12,0,6,,,,,,,,,10,11,51,,,
67380,set_tempo,180,1,0,,,,,,314136,,,,,,,,
67382,note_on,21,0,7,,,,,,,,,11,,,,69,101
67385,control_change,12,0,6,,,,,,,,,10,11,48,,,
67386,note_on,21,0,8,,,,,,,,,12,,,,60,99
67394,control_change,12,0,7,,,,,,,,,11,11,48,,,
67397,control_change,96,0,2,,,,,,,,,1,11,50,,,
67397,control_change,12,0,6,,,,,,,,,10,11,45,,,
67398,control_change,12,0,8,,,,,,,,,12,11,48,,,
67403,control_change,96,0,3,,,,,,,,,3,11,50,,,
67409,control_change,12,0,6,,,,,,,,,10,11,42,,,
67421,control_change,12,0,6,,,,,,,,,10,11,39,,,
67421,note_on,27,0,7,,,,,,,,,11,,,,69,0
67425,note_on,27,0,8,,,,,,,,,12,,,,60,0
67433,control_change,12,0,6,,,,,,,,,10,11,36,,,
67440,note_on,7,0,6,,,,,,,,,10,,,,77,0
67440,set_tempo,60,1,0,,,,,,270270,,,,,,,,
67442,note_on,21,0,7,,,,,,,,,11,,,,67,110
67444,note_on,0,0,4,,,,,,,,,4,,,,53,96
67444,note_on,481,0,4,,,,,,,,,4,,,,53,0
67445,note_on,0,0,2,,,,,,,,,1,,,,75,97
67445,note_on,48,0,2,,,,,,,,,1,,,,69,0
67445,note_on,0,0,2,,,,,,,,,1,,,,79,97
67445,note_on,0,0,2,,,,,,,,,1,,,,77,0
67446,note_on,0,0,5,,,,,,,,,5,,,,41,96
67446,note_on,481,0,5,,,,,,,,,5,,,,41,0
67446,note_on,21,0,8,,,,,,,,,12,,,,63,108
67450,note_on,240,0,9,,,,,,,,,13,,,,53,0
67451,note_on,48,0,3,,,,,,,,,3,,,,60,0
67451,note_on,0,0,3,,,,,,,,,3,,,,67,97
67451,note_on,0,0,3,,,,,,,,,3,,,,53,0
67451,note_on,0,0,3,,,,,,,,,3,,,,63,97
67452,note_on,240,0,10,,,,,,,,,14,,,,41,0
67481,note_on,39,0,7,,,,,,,,,11,,,,67,0
67485,note_on,39,0,8,,,,,,,,,12,,,,63,0
67493,control_change,48,0,2,,,,,,,,,1,11,49,,,
67499,control_change,48,0,3,,,,,,,,,3,11,49,,,
67502,note_on,21,0,7,,,,,,,,,11,,,,67,101
67506,note_on,21,0,8,,,,,,,,,12,,,,63,99
67541,note_on,39,0,7,,,,,,,,,11,,,,67,0
67545,note_on,39,0,8,,,,,,,,,12,,,,63,0
67562,note_on,21,0,7,,,,,,,,,11,,,,67,110
67566,note_on,21,0,8,,,,,,,,,12,,,,63,108
67586,control_change,24,0,7,,,,,,,,,11,11,46,,,
67589,control_change,96,0,2,,,,,,,,,1,11,48,,,
67590,control_change,24,0,8,,,,,,,,,12,11,46,,,
67595,control_change,96,0,3,,,,,,,,,3,11,48,,,
67601,note_on,15,0,7,,,,,,,,,11,,,,67,0
67605,note_on,15,0,8,,,,,,,,,12,,,,63,0
67622,note_on,21,0,7,,,,,,,,,11,,,,67,101
67626,note_on,21,0,8,,,,,,,,,12,,,,63,99
67661,note_on,39,0,7,,,,,,,,,11,,,,67,0
67665,note_on,39,0,8,,,,,,,,,12,,,,63,0
67680,set_tempo,240,1,0,,,,,,278422,,,,,,,,
67682,note_on,21,0,7,,,,,,,,,11,,,,65,110
67685,note_on,96,0,2,,,,,,,,,1,,,,79,0
67685,note_on,0,0,2,,,,,,,,,1,,,,75,0
67685,note_on,0,0,2,,,,,,,,,1,,,,74,97
67685,note_on,0,0,2,,,,,,,,,1,,,,77,97
67685,control_change,0,0,2,,,,,,,,,1,11,47,,,
67686,note_on,21,0,8,,,,,,,,,12,,,,62,108
67691,control_change,0,0,3,,,,,,,,,3,11,47,,,
67691,note_on,0,0,3,,,,,,,,,3,,,,65,97
67691,note_on,0,0,3,,,,,,,,,3,,,,62,97
67691,note_on,0,0,3,,,,,,,,,3,,,,63,0
67691,note_on,96,0,3,,,,,,,,,3,,,,67,0
67721,note_on,39,0,7,,,,,,,,,11,,,,65,0
67725,note_on,39,0,8,,,,,,,,,12,,,,62,0
67742,note_on,21,0,7,,,,,,,,,11,,,,65,101
67746,note_on,21,0,8,,,,,,,,,12,,,,62,99
67778,control_change,36,0,7,,,,,,,,,11,11,45,,,
67781,control_change,96,0,2,,,,,,,,,1,11,46,,,
67781,note_on,3,0,7,,,,,,,,,11,,,,65,0
67782,control_change,36,0,8,,,,,,,,,12,11,45,,,
67785,note_on,3,0,8,,,,,,,,,12,,,,62,0
67787,control_change,96,0,3,,,,,,,,,3,11,46,,,
67802,note_on,21,0,7,,,,,,,,,11,,,,65,110
67806,note_on,21,0,8,,,,,,,,,12,,,,62,108
67841,note_on,39,0,7,,,,,,,,,11,,,,65,0
67845,note_on,39,0,8,,,,,,,,,12,,,,62,0
67862,note_on,21,0,7,,,,,,,,,11,,,,65,101
67866,note_on,21,0,8,,,,,,,,,12,,,,62,99
67877,control_change,96,0,2,,,,,,,,,1,11,45,,,
67883,control_change,96,0,3,,,,,,,,,3,11,45,,,
67901,note_on,39,0,7,,,,,,,,,11,,,,65,0
67905,note_on,39,0,8,,,,,,,,,12,,,,62,0
67920,set_tempo,240,1,0,,,,,,270880,,,,,,,,
67922,note_on,21,0,7,,,,,,,,,11,,,,63,110
67925,note_on,0,0,2,,,,,,,,,1,,,,75,97
67925,note_on,0,0,2,,,,,,,,,1,,,,74,0
67925,note_on,48,0,2,,,,,,,,,1,,,,77,0
67925,note_on,0,0,2,,,,,,,,,1,,,,81,97
67926,note_on,21,0,8,,,,,,,,,12,,,,60,108
67931,note_on,0,0,3,,,,,,,,,3,,,,63,97
67931,note_on,0,0,3,,,,,,,,,3,,,,62,0
67931,note_on,0,0,3,,,,,,,,,3,,,,60,97
67931,note_on,48,0,3,,,,,,,,,3,,,,65,0
67961,note_on,39,0,7,,,,,,,,,11,,,,63,0
67965,note_on,39,0,8,,,,,,,,,12,,,,60,0
67970,control_change,9,0,7,,,,,,,,,11,11,43,,,
67973,control_change,48,0,2,,,,,,,,,1,11,44,,,
67974,control_change,9,0,8,,,,,,,,,12,11,43,,,
67979,control_change,48,0,3,,,,,,,,,3,11,44,,,
67982,note_on,12,0,7,,,,,,,,,11,,,,63,101
67986,note_on,12,0,8,,,,,,,,,12,,,,60,99
68021,note_on,39,0,7,,,,,,,,,11,,,,63,0
68025,note_on,39,0,8,,,,,,,,,12,,,,60,0
68042,note_on,21,0,7,,,,,,,,,11,,,,63,110
68046,note_on,21,0,8,,,,,,,,,12,,,,60,108
68069,control_change,96,0,2,,,,,,,,,1,11,43,,,
68075,control_change,96,0,3,,,,,,,,,3,11,43,,,
68081,note_on,39,0,7,,,,,,,,,11,,,,63,0
68085,note_on,39,0,8,,,,,,,,,12,,,,60,0
68100,set_tempo,180,1,0,,,,,,314136,,,,,,,,
68102,note_on,21,0,7,,,,,,,,,11,,,,63,101
68106,note_on,21,0,8,,,,,,,,,12,,,,60,99
68141,note_on,39,0,7,,,,,,,,,11,,,,63,0
68145,note_on,39,0,8,,,,,,,,,12,,,,60,0
68160,set_tempo,60,1,0,,,,,,272727,,,,,,,,
68160,note_on,0,0,6,,,,,,,,,10,,,,70,90
68160,control_change,720,0,6,,,,,,,,,10,11,57,,,
68162,control_change,21,0,7,,,,,,,,,11,11,57,,,
68162,control_change,0,0,7,,,,,,,,,11,11,49,,,
68162,note_on,0,0,7,,,,,,,,,11,,,,58,88
68164,note_on,0,0,4,,,,,,,,,4,,,,46,82
68164,note_on,720,0,4,,,,,,,,,4,,,,53,0
68165,note_on,0,0,2,,,,,,,,,1,,,,82,83
68165,note_on,0,0,2,,,,,,,,,1,,,,74,83
68165,note_on,0,0,2,,,,,,,,,1,,,,75,0
68165,note_on,96,0,2,,,,,,,,,1,,,,81,0
68165,control_change,0,0,2,,,,,,,,,1,11,42,,,
68166,note_on,0,0,8,,,,,,,,,12,,,,62,108
68166,note_on,0,0,8,,,,,,,,,12,,,,58,108
68166,control_change,21,0,8,,,,,,,,,12,11,22,,,
68166,note_on,720,0,5,,,,,,,,,5,,,,41,0
68166,note_on,0,0,5,,,,,,,,,5,,,,46,82
68169,control_change,7,0,7,,,,,,,,,11,11,56,,,
68170,note_on,0,0,9,,,,,,,,,13,,,,46,99
68170,control_change,720,0,9,,,,,,,,,13,11,22,,,
68171,control_change,0,0,3,,,,,,,,,3,11,42,,,
68171,note_on,0,0,3,,,,,,,,,3,,,,58,83
68171,note_on,0,0,3,,,,,,,,,3,,,,62,83
68171,note_on,0,0,3,,,,,,,,,3,,,,60,0
68171,note_on,96,0,3,,,,,,,,,3,,,,63,0
68172,control_change,720,0,10,,,,,,,,,14,11,22,,,
68172,note_on,0,0,10,,,,,,,,,14,,,,34,93
68182,control_change,22,0,6,,,,,,,,,10,11,54,,,
68182,control_change,16,0,8,,,,,,,,,12,11,24,,,
68184,control_change,15,0,7,,,,,,,,,11,11,54,,,
68186,control_change,16,0,9,,,,,,,,,13,11,24,,,
68188,control_change,16,0,10,,,,,,,,,14,11,24,,,
68198,control_change,16,0,8,,,,,,,,,12,11,26,,,
68202,control_change,16,0,9,,,,,,,,,13,11,26,,,
68204,control_change,16,0,10,,,,,,,,,14,11,26,,,
68204,control_change,22,0,6,,,,,,,,,10,11,51,,,
68205,note_on,0,0,8,,,,,,,,,12,,,,58,0
68205,note_on,7,0,8,,,,,,,,,12,,,,62,0
68206,control_change,22,0,7,,,,,,,,,11,11,51,,,
68214,control_change,9,0,8,,,,,,,,,12,11,28,,,
68218,control_change,16,0,9,,,,,,,,,13,11,28,,,
68219,control_change,15,0,6,,,,,,,,,10,11,49,,,
68220,control_change,16,0,10,,,,,,,,,14,11,28,,,
68221,control_change,15,0,7,,,,,,,,,11,11,49,,,
68226,note_on,12,0,8,,,,,,,,,12,,,,62,99
68226,note_on,0,0,8,,,,,,,,,12,,,,58,99
68230,control_change,4,0,8,,,,,,,,,12,11,31,,,
68234,control_change,16,0,9,,,,,,,,,13,11,31,,,
68236,control_change,16,0,10,,,,,,,,,14,11,31,,,
68246,control_change,16,0,8,,,,,,,,,12,11,34,,,
68250,control_change,16,0,9,,,,,,,,,13,11,34,,,
68252,control_change,16,0,10,,,,,,,,,14,11,34,,,
68262,control_change,16,0,8,,,,,,,,,12,11,37,,,
68265,note_on,0,0,8,,,,,,,,,12,,,,62,0
68265,note_on,3,0,8,,,,,,,,,12,,,,58,0
68266,control_change,16,0,9,,,,,,,,,13,11,37,,,
68268,control_change,16,0,10,,,,,,,,,14,11,37,,,
68278,control_change,13,0,8,,,,,,,,,12,11,40,,,
68282,control_change,16,0,9,,,,,,,,,13,11,40,,,
68284,control_change,16,0,10,,,,,,,,,14,11,40,,,
68284,control_change,120,0,4,,,,,,,,,4,11,47,,,
68285,control_change,120,0,2,,,,,,,,,1,11,42,,,
68286,control_change,120,0,5,,,,,,,,,5,11,47,,,
68286,note_on,8,0,8,,,,,,,,,12,,,,58,108
68286,note_on,0,0,8,,,,,,,,,12,,,,62,108
68291,control_change,120,0,3,,,,,,,,,3,11,42,,,
68300,control_change,15,0,2,,,,,,,,,1,11,40,,,
68301,control_change,17,0,4,,,,,,,,,4,11,44,,,
68303,control_change,17,0,5,,,,,,,,,5,11,44,,,
68306,control_change,15,0,3,,,,,,,,,3,11,40,,,
68316,control_change,16,0,2,,,,,,,,,1,11,38,,,
68319,control_change,18,0,4,,,,,,,,,4,11,41,,,
68321,control_change,18,0,5,,,,,,,,,5,11,41,,,
68322,control_change,16,0,3,,,,,,,,,3,11,38,,,
68325,note_on,0,0,8,,,,,,,,,12,,,,58,0
68325,note_on,39,0,8,,,,,,,,,12,,,,62,0
68332,control_change,16,0,2,,,,,,,,,1,11,36,,,
68337,control_change,18,0,4,,,,,,,,,4,11,38,,,
68338,control_change,16,0,3,,,,,,,,,3,11,36,,,
68339,control_change,18,0,5,,,,,,,,,5,11,38,,,
68340,note_on,0,0,6,,,,,,,,,10,,,,74,90
68340,note_on,121,0,6,,,,,,,,,10,,,,70,0
68342,note_on,0,0,7,,,,,,,,,11,,,,62,88
68342,note_on,121,0,7,,,,,,,,,11,,,,58,0
68346,note_on,21,0,8,,,,,,,,,12,,,,58,99
68346,note_on,0,0,8,,,,,,,,,12,,,,62,99
68348,control_change,16,0,2,,,,,,,,,1,11,34,,,
68354,control_change,16,0,3,,,,,,,,,3,11,34,,,
68355,control_change,18,0,4,,,,,,,,,4,11,35,,,
68357,control_change,18,0,5,,,,,,,,,5,11,35,,,
68364,control_change,16,0,2,,,,,,,,,1,11,32,,,
68370,control_change,16,0,3,,,,,,,,,3,11,32,,,
68373,control_change,18,0,4,,,,,,,,,4,11,32,,,
68375,control_change,18,0,5,,,,,,,,,5,11,32,,,
68379,note_on,39,0,6,,,,,,,,,10,,,,74,0
68380,control_change,16,0,2,,,,,,,,,1,11,30,,,
68381,note_on,39,0,7,,,,,,,,,11,,,,62,0
68385,note_on,39,0,8,,,,,,,,,12,,,,62,0
68385,note_on,0,0,8,,,,,,,,,12,,,,58,0
68386,control_change,16,0,3,,,,,,,,,3,11,30,,,
68391,control_change,18,0,4,,,,,,,,,4,11,29,,,
68393,control_change,18,0,5,,,,,,,,,5,11,29,,,
68396,control_change,16,0,2,,,,,,,,,1,11,28,,,
68400,set_tempo,240,1,0,,,,,,261438,,,,,,,,
68400,note_on,21,0,6,,,,,,,,,10,,,,77,90
68402,note_on,21,0,7,,,,,,,,,11,,,,65,88
68402,control_change,16,0,3,,,,,,,,,3,11,28,,,
68404,note_on,13,0,4,,,,,,,,,4,,,,46,0
68405,note_on,9,0,2,,,,,,,,,1,,,,82,0
68405,note_on,0,0,2,,,,,,,,,1,,,,74,0
68406,note_on,13,0,5,,,,,,,,,5,,,,46,0
68406,note_on,21,0,8,,,,,,,,,12,,,,58,108
68406,note_on,0,0,8,,,,,,,,,12,,,,62,108
68410,note_on,128,0,9,,,,,,,,,13,,,,46,0
68411,note_on,0,0,3,,,,,,,,,3,,,,62,0
68411,note_on,9,0,3,,,,,,,,,3,,,,58,0
68412,note_on,128,0,10,,,,,,,,,14,,,,34,0
68445,note_on,0,0,8,,,,,,,,,12,,,,58,0
68445,note_on,39,0,8,,,,,,,,,12,,,,62,0
68460,note_on,60,0,6,,,,,,,,,10,,,,77,0
68462,note_on,60,0,7,,,,,,,,,11,,,,65,0
68466,note_on,0,0,8,,,,,,,,,12,,,,62,99
68466,note_on,21,0,8,,,,,,,,,12,,,,58,99
68505,note_on,0,0,8,,,,,,,,,12,,,,58,0
68505,note_on,39,0,8,,,,,,,,,12,,,,62,0
68520,note_on,60,0,6,,,,,,,,,10,,,,77,90
68522,note_on,60,0,7,,,,,,,,,11,,,,65,88
68526,note_on,21,0,8,,,,,,,,,12,,,,62,108
68526,note_on,0,0,8,,,,,,,,,12,,,,58,108
68565,note_on,39,0,8,,,,,,,,,12,,,,58,0
68565,note_on,0,0,8,,,,,,,,,12,,,,62,0
68580,note_on,60,0,6,,,,,,,,,10,,,,77,0
68582,note_on,60,0,7,,,,,,,,,11,,,,65,0
68586,note_on,0,0,8,,,,,,,,,12,,,,62,99
68586,note_on,21,0,8,,,,,,,,,12,,,,58,99
68625,note_on,0,0,8,,,,,,,,,12,,,,58,0
68625,note_on,39,0,8,,,,,,,,,12,,,,62,0
68640,note_on,60,0,6,,,,,,,,,10,,,,77,79
68640,set_tempo,240,1,0,,,,,,272727,,,,,,,,
68642,note_on,60,0,7,,,,,,,,,11,,,,65,77
68643,note_on,0,0,1,,,,,,,,,0,,,,86,110
68643,control_change,1441,0,1,,,,,,,,,0,11,40,,,
68645,control_change,240,0,2,,,,,,,,,1,11,40,,,
68645,note_on,0,0,2,,,,,,,,,1,,,,65,97
68645,note_on,0,0,2,,,,,,,,,1,,,,74,97
68646,note_on,21,0,8,,,,,,,,,12,,,,58,108
68646,note_on,0,0,8,,,,,,,,,12,,,,62,108
68650,note_on,240,0,9,,,,,,,,,13,,,,46,99
68651,control_change,240,0,3,,,,,,,,,3,11,40,,,
68651,note_on,0,0,3,,,,,,,,,3,,,,58,97
68652,note_on,240,0,10,,,,,,,,,14,,,,34,93
68658,control_change,15,0,1,,,,,,,,,0,11,43,,,
68660,control_change,15,0,2,,,,,,,,,1,11,43,,,
68666,control_change,15,0,3,,,,,,,,,3,11,43,,,
68673,control_change,15,0,1,,,,,,,,,0,11,46,,,
68675,control_change,15,0,2,,,,,,,,,1,11,46,,,
68681,control_change,15,0,3,,,,,,,,,3,11,46,,,
68685,note_on,39,0,8,,,,,,,,,12,,,,62,0
68685,note_on,0,0,8,,,,,,,,,12,,,,58,0
68688,control_change,15,0,1,,,,,,,,,0,11,49,,,
68690,control_change,15,0,2,,,,,,,,,1,11,49,,,
68696,control_change,15,0,3,,,,,,,,,3,11,49,,,
68703,control_change,15,0,1,,,,,,,,,0,11,52,,,
68705,control_change,15,0,2,,,,,,,,,1,11,52,,,
68706,note_on,0,0,8,,,,,,,,,12,,,,62,99
68706,note_on,21,0,8,,,,,,,,,12,,,,58,99
68711,control_change,15,0,3,,,,,,,,,3,11,52,,,
68745,note_on,39,0,8,,,,,,,,,12,,,,62,0
68745,note_on,0,0,8,,,,,,,,,12,,,,58,0
68766,note_on,0,0,8,,,,,,,,,12,,,,58,108
68766,note_on,21,0,8,,,,,,,,,12,,,,62,108
68805,note_on,39,0,8,,,,,,,,,12,,,,58,0
68805,note_on,0,0,8,,,,,,,,,12,,,,62,0
68826,note_on,21,0,8,,,,,,,,,12,,,,62,99
68826,note_on,0,0,8,,,,,,,,,12,,,,58,99
68830,note_on,180,0,9,,,,,,,,,13,,,,46,0
68830,note_on,0,0,9,,,,,,,,,13,,,,50,99
68832,note_on,0,0,10,,,,,,,,,14,,,,38,93
68832,note_on,180,0,10,,,,,,,,,14,,,,34,0
68865,note_on,39,0,8,,,,,,,,,12,,,,58,0
68865,note_on,0,0,8,,,,,,,,,12,,,,62,0
68869,note_on,39,0,9,,,,,,,,,13,,,,50,0
68871,note_on,39,0,10,,,,,,,,,14,,,,38,0
68880,set_tempo,240,1,0,,,,,,261438,,,,,,,,
68880,note_on,240,0,6,,,,,,,,,10,,,,77,0
68882,note_on,240,0,7,,,,,,,,,11,,,,65,0
68883,note_on,0,0,1,,,,,,,,,0,,,,84,110
68883,note_on,180,0,1,,,,,,,,,0,,,,86,0
68886,note_on,0,0,8,,,,,,,,,12,,,,62,108
68886,note_on,21,0,8,,,,,,,,,12,,,,58,108
68890,note_on,21,0,9,,,,,,,,,13,,,,53,99
68892,note_on,21,0,10,,,,,,,,,14,,,,41,93
68925,note_on,39,0,8,,,,,,,,,12,,,,62,0
68925,note_on,0,0,8,,,,,,,,,12,,,,58,0
68943,note_on,60,0,1,,,,,,,,,0,,,,84,0
68943,note_on,0,0,1,,,,,,,,,0,,,,82,110
68946,note_on,0,0,8,,,,,,,,,12,,,,62,99
68946,note_on,21,0,8,,,,,,,,,12,,,,58,99
68950,note_on,60,0,9,,,,,,,,,13,,,,53,0
68952,note_on,60,0,10,,,,,,,,,14,,,,41,0
68985,note_on,0,0,8,,,,,,,,,12,,,,58,0
68985,note_on,39,0,8,,,,,,,,,12,,,,62,0
69003,note_on,60,0,1,,,,,,,,,0,,,,82,0
69003,note_on,0,0,1,,,,,,,,,0,,,,81,110
69006,note_on,0,0,8,,,,,,,,,12,,,,58,108
69006,note_on,21,0,8,,,,,,,,,12,,,,62,108
69010,note_on,60,0,9,,,,,,,,,13,,,,53,99
69012,note_on,60,0,10,,,,,,,,,14,,,,41,93
69045,note_on,39,0,8,,,,,,,,,12,,,,58,0
69045,note_on,0,0,8,,,,,,,,,12,,,,62,0
69063,note_on,0,0,1,,,,,,,,,0,,,,79,110
69063,note_on,60,0,1,,,,,,,,,0,,,,81,0
69066,note_on,21,0,8,,,,,,,,,12,,,,58,99
69066,note_on,0,0,8,,,,,,,,,12,,,,62,99
69070,note_on,60,0,9,,,,,,,,,13,,,,53,0
69072,note_on,60,0,10,,,,,,,,,14,,,,41,0
69105,note_on,39,0,8,,,,,,,,,12,,,,62,0
69105,note_on,0,0,8,,,,,,,,,12,,,,58,0
69118,note_on,55,0,1,,,,,,,,,0,,,,79,0
69120,control_change,240,0,6,,,,,,,,,10,11,57,,,
69120,set_tempo,240,1,0,,,,,,272727,,,,,,,,
69120,note_on,0,0,6,,,,,,,,,10,,,,69,90
69122,control_change,240,0,7,,,,,,,,,11,11,57,,,
69122,note_on,0,0,7,,,,,,,,,11,,,,57,88
69123,note_on,5,0,1,,,,,,,,,0,,,,77,110
69125,note_on,0,0,2,,,,,,,,,1,,,,72,97
69125,note_on,420,0,2,,,,,,,,,1,,,,74,0
69126,note_on,0,0,8,,,,,,,,,12,,,,65,108
69126,note_on,21,0,8,,,,,,,,,12,,,,60,108
69130,note_on,60,0,9,,,,,,,,,13,,,,53,99
69131,note_on,420,0,3,,,,,,,,,3,,,,58,0
69131,note_on,0,0,3,,,,,,,,,3,,,,57,97
69132,note_on,60,0,10,,,,,,,,,14,,,,41,93
69142,control_change,22,0,6,,,,,,,,,10,11,54,,,
69144,control_change,22,0,7,,,,,,,,,11,11,54,,,
69164,control_change,22,0,6,,,,,,,,,10,11,51,,,
69165,note_on,39,0,8,,,,,,,,,12,,,,65,0
69165,note_on,0,0,8,,,,,,,,,12,,,,60,0
69166,control_change,22,0,7,,,,,,,,,11,11,51,,,
69179,control_change,15,0,6,,,,,,,,,10,11,49,,,
69181,control_change,15,0,7,,,,,,,,,11,11,49,,,
69186,note_on,21,0,8,,,,,,,,,12,,,,60,99
69186,note_on,0,0,8,,,,,,,,,12,,,,65,99
69225,note_on,39,0,8,,,,,,,,,12,,,,65,0
69225,note_on,0,0,8,,,,,,,,,12,,,,60,0
69246,note_on,0,0,8,,,,,,,,,12,,,,65,108
69246,note_on,21,0,8,,,,,,,,,12,,,,60,108
69285,note_on,0,0,8,,,,,,,,,12,,,,60,0
69285,note_on,39,0,8,,,,,,,,,12,,,,65,0
69300,note_on,121,0,6,,,,,,,,,10,,,,69,0
69300,note_on,0,0,6,,,,,,,,,10,,,,72,90
69302,note_on,121,0,7,,,,,,,,,11,,,,57,0
69302,note_on,0,0,7,,,,,,,,,11,,,,60,88
69306,note_on,21,0,8,,,,,,,,,12,,,,65,99
69306,note_on,0,0,8,,,,,,,,,12,,,,60,99
69339,note_on,39,0,6,,,,,,,,,10,,,,72,0
69341,note_on,39,0,7,,,,,,,,,11,,,,60,0
69345,note_on,0,0,8,,,,,,,,,12,,,,65,0
69345,note_on,39,0,8,,,,,,,,,12,,,,60,0
69360,set_tempo,240,1,0,,,,,,261438,,,,,,,,
69360,note_on,21,0,6,,,,,,,,,10,,,,77,90
69362,note_on,21,0,7,,,,,,,,,11,,,,65,88
69363,note_on,240,0,1,,,,,,,,,0,,,,77,0
69366,note_on,0,0,8,,,,,,,,,12,,,,60,108
69366,note_on,21,0,8,,,,,,,,,12,,,,65,108
69370,note_on,240,0,9,,,,,,,,,13,,,,53,0
69372,note_on,240,0,10,,,,,,,,,14,,,,41,0
69405,note_on,39,0,8,,,,,,,,,12,,,,60,0
69405,note_on,0,0,8,,,,,,,,,12,,,,65,0
69420,note_on,60,0,6,,,,,,,,,10,,,,77,0
69422,note_on,60,0,7,,,,,,,,,11,,,,65,0
69426,note_on,0,0,8,,,,,,,,,12,,,,60,99
69426,note_on,21,0,8,,,,,,,,,12,,,,65,99
69465,note_on,39,0,8,,,,,,,,,12,,,,60,0
69465,note_on,0,0,8,,,,,,,,,12,,,,65,0
69480,note_on,60,0,6,,,,,,,,,10,,,,77,90
69482,note_on,60,0,7,,,,,,,,,11,,,,65,88
69486,note_on,21,0,8,,,,,,,,,12,,,,65,108
69486,note_on,0,0,8,,,,,,,,,12,,,,60,108
69525,note_on,39,0,8,,,,,,,,,12,,,,60,0
69525,note_on,0,0,8,,,,,,,,,12,,,,65,0
69540,note_on,60,0,6,,,,,,,,,10,,,,77,0
69542,note_on,60,0,7,,,,,,,,,11,,,,65,0
69546,note_on,0,0,8,,,,,,,,,12,,,,60,99
69546,note_on,21,0,8,,,,,,,,,12,,,,65,99
69585,note_on,39,0,8,,,,,,,,,12,,,,60,0
69585,note_on,0,0,8,,,,,,,,,12,,,,65,0
69600,note_on,60,0,6,,,,,,,,,10,,,,77,79
69600,set_tempo,240,1,0,,,,,,272727,,,,,,,,
69602,note_on,60,0,7,,,,,,,,,11,,,,65,77
69603,note_on,240,0,1,,,,,,,,,0,,,,84,110
69606,note_on,0,0,8,,,,,,,,,12,,,,65,108
69606,note_on,21,0,8,,,,,,,,,12,,,,60,108
69610,note_on,240,0,9,,,,,,,,,13,,,,45,99
69612,note_on,240,0,10,,,,,,,,,14,,,,33,93
69645,note_on,0,0,8,,,,,,,,,12,,,,60,0
69645,note_on,39,0,8,,,,,,,,,12,,,,65,0
69666,note_on,21,0,8,,,,,,,,,12,,,,60,99
69666,note_on,0,0,8,,,,,,,,,12,,,,65,99
69705,note_on,0,0,8,,,,,,,,,12,,,,60,0
69705,note_on,39,0,8,,,,,,,,,12,,,,65,0
69726,note_on,21,0,8,,,,,,,,,12,,,,60,108
69726,note_on,0,0,8,,,,,,,,,12,,,,65,108
69765,note_on,39,0,8,,,,,,,,,12,,,,65,0
69765,note_on,0,0,8,,,,,,,,,12,,,,60,0
69786,note_on,21,0,8,,,,,,,,,12,,,,65,99
69786,note_on,0,0,8,,,,,,,,,12,,,,60,99
69790,note_on,0,0,9,,,,,,,,,13,,,,48,99
69790,note_on,180,0,9,,,,,,,,,13,,,,45,0
69792,note_on,0,0,10,,,,,,,,,14,,,,36,93
69792,note_on,180,0,10,,,,,,,,,14,,,,33,0
69825,note_on,0,0,8,,,,,,,,,12,,,,65,0
69825,note_on,39,0,8,,,,,,,,,12,,,,60,0
69829,note_on,39,0,9,,,,,,,,,13,,,,48,0
69831,note_on,39,0,10,,,,,,,,,14,,,,36,0
69840,set_tempo,240,1,0,,,,,,261438,,,,,,,,
69840,note_on,240,0,6,,,,,,,,,10,,,,77,0
69842,note_on,240,0,7,,,,,,,,,11,,,,65,0
69843,note_on,240,0,1,,,,,,,,,0,,,,84,0
69843,note_on,0,0,1,,,,,,,,,0,,,,82,110
69846,note_on,0,0,8,,,,,,,,,12,,,,60,108
69846,note_on,21,0,8,,,,,,,,,12,,,,65,108
69850,note_on,21,0,9,,,,,,,,,13,,,,53,99
69852,note_on,21,0,10,,,,,,,,,14,,,,41,93
69885,note_on,0,0,8,,,,,,,,,12,,,,65,0
69885,note_on,39,0,8,,,,,,,,,12,,,,60,0
69903,note_on,0,0,1,,,,,,,,,0,,,,81,110
69903,note_on,60,0,1,,,,,,,,,0,,,,82,0
69906,note_on,0,0,8,,,,,,,,,12,,,,65,99
69906,note_on,21,0,8,,,,,,,,,12,,,,60,99
69910,note_on,60,0,9,,,,,,,,,13,,,,53,0
69912,note_on,60,0,10,,,,,,,,,14,,,,41,0
69945,note_on,0,0,8,,,,,,,,,12,,,,60,0
69945,note_on,39,0,8,,,,,,,,,12,,,,65,0
69963,note_on,0,0,1,,,,,,,,,0,,,,79,110
69963,note_on,60,0,1,,,,,,,,,0,,,,81,0
69966,note_on,0,0,8,,,,,,,,,12,,,,65,108
69966,note_on,21,0,8,,,,,,,,,12,,,,60,108
69970,note_on,60,0,9,,,,,,,,,13,,,,53,99
69972,note_on,60,0,10,,,,,,,,,14,,,,41,93
70005,note_on,39,0,8,,,,,,,,,12,,,,65,0
70005,note_on,0,0,8,,,,,,,,,12,,,,60,0
70023,note_on,0,0,1,,,,,,,,,0,,,,77,110
70023,note_on,60,0,1,,,,,,,,,0,,,,79,0
70026,note_on,21,0,8,,,,,,,,,12,,,,65,99
70026,note_on,0,0,8,,,,,,,,,12,,,,60,99
70030,note_on,60,0,9,,,,,,,,,13,,,,53,0
70032,note_on,60,0,10,,,,,,,,,14,,,,41,0
70065,note_on,0,0,8,,,,,,,,,12,,,,65,0
70065,note_on,39,0,8,,,,,,,,,12,,,,60,0
70078,note_on,55,0,1,,,,,,,,,0,,,,77,0
70080,set_tempo,240,1,0,,,,,,272727,,,,,,,,
70080,control_change,240,0,6,,,,,,,,,10,11,57,,,
70080,note_on,0,0,6,,,,,,,,,10,,,,75,90
70082,control_change,240,0,7,,,,,,,,,11,11,57,,,
70082,note_on,0,0,7,,,,,,,,,11,,,,63,88
70083,note_on,5,0,1,,,,,,,,,0,,,,75,110
70085,note_on,0,0,2,,,,,,,,,1,,,,75,97
70085,note_on,0,0,2,,,,,,,,,1,,,,70,97
70085,note_on,960,0,2,,,,,,,,,1,,,,72,0
70085,note_on,0,0,2,,,,,,,,,1,,,,65,0
70086,note_on,21,0,8,,,,,,,,,12,,,,63,108
70086,note_on,0,0,8,,,,,,,,,12,,,,58,108
70090,note_on,60,0,9,,,,,,,,,13,,,,43,99
70091,note_on,960,0,3,,,,,,,,,3,,,,57,0
70091,note_on,0,0,3,,,,,,,,,3,,,,55,97
70092,note_on,60,0,10,,,,,,,,,14,,,,31,93
70102,control_change,22,0,6,,,,,,,,,10,11,54,,,
70104,control_change,22,0,7,,,,,,,,,11,11,54,,,
70124,control_change,22,0,6,,,,,,,,,10,11,51,,,
70125,note_on,0,0,8,,,,,,,,,12,,,,63,0
70125,note_on,39,0,8,,,,,,,,,12,,,,58,0
70126,control_change,22,0,7,,,,,,,,,11,11,51,,,
70139,control_change,15,0,6,,,,,,,,,10,11,49,,,
70141,control_change,15,0,7,,,,,,,,,11,11,49,,,
70146,note_on,21,0,8,,,,,,,,,12,,,,63,99
70146,note_on,0,0,8,,,,,,,,,12,,,,58,99
70185,note_on,0,0,8,,,,,,,,,12,,,,63,0
70185,note_on,39,0,8,,,,,,,,,12,,,,58,0
70206,note_on,0,0,8,,,,,,,,,12,,,,63,108
70206,note_on,21,0,8,,,,,,,,,12,,,,58,108
70245,note_on,0,0,8,,,,,,,,,12,,,,58,0
70245,note_on,39,0,8,,,,,,,,,12,,,,63,0
70260,note_on,121,0,6,,,,,,,,,10,,,,75,0
70260,note_on,0,0,6,,,,,,,,,10,,,,79,90
70262,note_on,0,0,7,,,,,,,,,11,,,,67,88
70262,note_on,121,0,7,,,,,,,,,11,,,,63,0
70266,note_on,21,0,8,,,,,,,,,12,,,,58,99
70266,note_on,0,0,8,,,,,,,,,12,,,,63,99
70299,note_on,39,0,6,,,,,,,,,10,,,,79,0
70301,note_on,39,0,7,,,,,,,,,11,,,,67,0
70305,note_on,39,0,8,,,,,,,,,12,,,,63,0
70305,note_on,0,0,8,,,,,,,,,12,,,,58,0
70320,set_tempo,240,1,0,,,,,,261438,,,,,,,,
70320,note_on,21,0,6,,,,,,,,,10,,,,82,90
70322,note_on,21,0,7,,,,,,,,,11,,,,70,88
70323,note_on,240,0,1,,,,,,,,,0,,,,75,0
70326,note_on,21,0,8,,,,,,,,,12,,,,58,108
70326,note_on,0,0,8,,,,,,,,,12,,,,63,108
70330,note_on,240,0,9,,,,,,,,,13,,,,43,0
70332,note_on,240,0,10,,,,,,,,,14,,,,31,0
70365,note_on,39,0,8,,,,,,,,,12,,,,63,0
70365,note_on,0,0,8,,,,,,,,,12,,,,58,0
70380,note_on,60,0,6,,,,,,,,,10,,,,82,0
70382,note_on,60,0,7,,,,,,,,,11,,,,70,0
70386,note_on,0,0,8,,,,,,,,,12,,,,58,99
70386,note_on,21,0,8,,,,,,,,,12,,,,63,99
70425,note_on,39,0,8,,,,,,,,,12,,,,58,0
70425,note_on,0,0,8,,,,,,,,,12,,,,63,0
70440,note_on,60,0,6,,,,,,,,,10,,,,82,90
70442,note_on,60,0,7,,,,,,,,,11,,,,70,88
70446,note_on,21,0,8,,,,,,,,,12,,,,63,108
70446,note_on,0,0,8,,,,,,,,,12,,,,58,108
70485,note_on,39,0,8,,,,,,,,,12,,,,58,0
70485,note_on,0,0,8,,,,,,,,,12,,,,63,0
70500,note_on,60,0,6,,,,,,,,,10,,,,82,0
70502,note_on,60,0,7,,,,,,,,,11,,,,70,0
70506,note_on,21,0,8,,,,,,,,,12,,,,58,99
70506,note_on,0,0,8,,,,,,,,,12,,,,63,99
70545,note_on,0,0,8,,,,,,,,,12,,,,58,0
70545,note_on,39,0,8,,,,,,,,,12,,,,63,0
70560,note_on,60,0,6,,,,,,,,,10,,,,82,79
70560,set_tempo,240,1,0,,,,,,272727,,,,,,,,
70562,note_on,60,0,7,,,,,,,,,11,,,,70,77
70563,note_on,240,0,1,,,,,,,,,0,,,,82,110
70566,note_on,0,0,8,,,,,,,,,12,,,,63,108
70566,note_on,21,0,8,,,,,,,,,12,,,,58,108
70570,note_on,240,0,9,,,,,,,,,13,,,,55,99
70572,note_on,240,0,10,,,,,,,,,14,,,,43,93
70605,note_on,0,0,8,,,,,,,,,12,,,,58,0
70605,note_on,39,0,8,,,,,,,,,12,,,,63,0
70626,note_on,21,0,8,,,,,,,,,12,,,,58,99
70626,note_on,0,0,8,,,,,,,,,12,,,,63,99
70665,note_on,0,0,8,,,,,,,,,12,,,,58,0
70665,note_on,39,0,8,,,,,,,,,12,,,,63,0
70686,note_on,0,0,8,,,,,,,,,12,,,,58,108
70686,note_on,21,0,8,,,,,,,,,12,,,,63,108
70725,note_on,0,0,8,,,,,,,,,12,,,,63,0
70725,note_on,39,0,8,,,,,,,,,12,,,,58,0
70746,note_on,21,0,8,,,,,,,,,12,,,,63,99
70746,note_on,0,0,8,,,,,,,,,12,,,,58,99
70750,note_on,0,0,9,,,,,,,,,13,,,,58,99
70750,note_on,180,0,9,,,,,,,,,13,,,,55,0
70752,note_on,0,0,10,,,,,,,,,14,,,,46,93
70752,note_on,180,0,10,,,,,,,,,14,,,,43,0
70785,note_on,0,0,8,,,,,,,,,12,,,,63,0
70785,note_on,39,0,8,,,,,,,,,12,,,,58,0
70789,note_on,39,0,9,,,,,,,,,13,,,,58,0
70791,note_on,39,0,10,,,,,,,,,14,,,,46,0
70800,note_on,0,0,6,,,,,,,,,10,,,,81,90
70800,note_on,240,0,6,,,,,,,,,10,,,,82,0
70800,set_tempo,240,1,0,,,,,,261438,,,,,,,,
70802,note_on,0,0,7,,,,,,,,,11,,,,69,88
70802,note_on,240,0,7,,,,,,,,,11,,,,70,0
70803,note_on,0,0,1,,,,,,,,,0,,,,81,110
70803,note_on,240,0,1,,,,,,,,,0,,,,82,0
70806,note_on,0,0,8,,,,,,,,,12,,,,63,108
70806,note_on,21,0,8,,,,,,,,,12,,,,58,108
70810,note_on,21,0,9,,,,,,,,,13,,,,63,99
70812,note_on,21,0,10,,,,,,,,,14,,,,51,93
70845,note_on,39,0,8,,,,,,,,,12,,,,63,0
70845,note_on,0,0,8,,,,,,,,,12,,,,58,0
70860,note_on,60,0,6,,,,,,,,,10,,,,81,0
70860,note_on,0,0,6,,,,,,,,,10,,,,79,90
70862,note_on,60,0,7,,,,,,,,,11,,,,69,0
70862,note_on,0,0,7,,,,,,,,,11,,,,67,88
70863,note_on,60,0,1,,,,,,,,,0,,,,81,0
70863,note_on,0,0,1,,,,,,,,,0,,,,79,110
70866,note_on,21,0,8,,,,,,,,,12,,,,63,99
70866,note_on,0,0,8,,,,,,,,,12,,,,58,99
70870,note_on,60,0,9,,,,,,,,,13,,,,63,0
70872,note_on,60,0,10,,,,,,,,,14,,,,51,0
70905,note_on,0,0,8,,,,,,,,,12,,,,63,0
70905,note_on,39,0,8,,,,,,,,,12,,,,58,0
70920,note_on,60,0,6,,,,,,,,,10,,,,79,0
70920,note_on,0,0,6,,,,,,,,,10,,,,77,90
70922,note_on,0,0,7,,,,,,,,,11,,,,65,88
70922,note_on,60,0,7,,,,,,,,,11,,,,67,0
70923,note_on,0,0,1,,,,,,,,,0,,,,77,110
70923,note_on,60,0,1,,,,,,,,,0,,,,79,0
70926,note_on,21,0,8,,,,,,,,,12,,,,58,108
70926,note_on,0,0,8,,,,,,,,,12,,,,63,108
70930,note_on,60,0,9,,,,,,,,,13,,,,63,99
70932,note_on,60,0,10,,,,,,,,,14,,,,51,93
70965,note_on,0,0,8,,,,,,,,,12,,,,58,0
70965,note_on,39,0,8,,,,,,,,,12,,,,63,0
70980,note_on,60,0,6,,,,,,,,,10,,,,77,0
70980,note_on,0,0,6,,,,,,,,,10,,,,75,90
70982,note_on,60,0,7,,,,,,,,,11,,,,65,0
70982,note_on,0,0,7,,,,,,,,,11,,,,63,88
70983,note_on,0,0,1,,,,,,,,,0,,,,75,110
70983,note_on,60,0,1,,,,,,,,,0,,,,77,0
70986,note_on,0,0,8,,,,,,,,,12,,,,58,99
70986,note_on,21,0,8,,,,,,,,,12,,,,63,99
70990,note_on,60,0,9,,,,,,,,,13,,,,63,0
70992,note_on,60,0,10,,,,,,,,,14,,,,51,0
71019,note_on,39,0,6,,,,,,,,,10,,,,75,0
71021,note_on,39,0,7,,,,,,,,,11,,,,63,0
71025,note_on,0,0,8,,,,,,,,,12,,,,63,0
71025,note_on,39,0,8,,,,,,,,,12,,,,58,0
71038,note_on,55,0,1,,,,,,,,,0,,,,75,0
71040,note_on,0,0,6,,,,,,,,,10,,,,74,90
71040,control_change,21,0,6,,,,,,,,,10,11,57,,,
71040,set_tempo,240,1,0,,,,,,272727,,,,,,,,
71042,note_on,0,0,7,,,,,,,,,11,,,,62,88
71042,control_change,21,0,7,,,,,,,,,11,11,57,,,
71043,note_on,5,0,1,,,,,,,,,0,,,,74,110
71045,note_on,960,0,2,,,,,,,,,1,,,,75,0
71045,note_on,0,0,2,,,,,,,,,1,,,,74,97
71046,note_on,21,0,8,,,,,,,,,12,,,,62,108
71046,note_on,0,0,8,,,,,,,,,12,,,,58,108
71050,note_on,60,0,9,,,,,,,,,13,,,,53,99
71051,note_on,0,0,3,,,,,,,,,3,,,,53,97
71051,note_on,960,0,3,,,,,,,,,3,,,,55,0
71052,note_on,60,0,10,,,,,,,,,14,,,,41,93
71062,control_change,22,0,6,,,,,,,,,10,11,54,,,
71064,control_change,22,0,7,,,,,,,,,11,11,54,,,
71084,control_change,22,0,6,,,,,,,,,10,11,51,,,
71085,note_on,0,0,8,,,,,,,,,12,,,,62,0
71085,note_on,39,0,8,,,,,,,,,12,,,,58,0
71086,control_change,22,0,7,,,,,,,,,11,11,51,,,
71099,control_change,15,0,6,,,,,,,,,10,11,49,,,
71101,control_change,15,0,7,,,,,,,,,11,11,49,,,
71106,note_on,21,0,8,,,,,,,,,12,,,,62,99
71106,note_on,0,0,8,,,,,,,,,12,,,,58,99
71145,note_on,39,0,8,,,,,,,,,12,,,,58,0
71145,note_on,0,0,8,,,,,,,,,12,,,,62,0
71166,note_on,0,0,8,,,,,,,,,12,,,,62,108
71166,note_on,21,0,8,,,,,,,,,12,,,,58,108
71205,note_on,39,0,8,,,,,,,,,12,,,,62,0
71205,note_on,0,0,8,,,,,,,,,12,,,,58,0
71220,note_on,121,0,6,,,,,,,,,10,,,,74,0
71220,note_on,0,0,6,,,,,,,,,10,,,,77,90
71222,note_on,0,0,7,,,,,,,,,11,,,,65,88
71222,note_on,121,0,7,,,,,,,,,11,,,,62,0
71226,note_on,0,0,8,,,,,,,,,12,,,,62,99
71226,note_on,21,0,8,,,,,,,,,12,,,,58,99
71259,note_on,39,0,6,,,,,,,,,10,,,,77,0
71261,note_on,39,0,7,,,,,,,,,11,,,,65,0
71265,note_on,0,0,8,,,,,,,,,12,,,,58,0
71265,note_on,39,0,8,,,,,,,,,12,,,,62,0
71280,note_on,21,0,6,,,,,,,,,10,,,,82,90
71280,set_tempo,240,1,0,,,,,,261438,,,,,,,,
71282,note_on,21,0,7,,,,,,,,,11,,,,70,88
71283,note_on,240,0,1,,,,,,,,,0,,,,74,0
71286,note_on,21,0,8,,,,,,,,,12,,,,62,108
71286,note_on,0,0,8,,,,,,,,,12,,,,58,108
71290,note_on,240,0,9,,,,,,,,,13,,,,53,0
71292,note_on,240,0,10,,,,,,,,,14,,,,41,0
71325,note_on,0,0,8,,,,,,,,,12,,,,62,0
71325,note_on,39,0,8,,,,,,,,,12,,,,58,0
71340,note_on,60,0,6,,,,,,,,,10,,,,82,0
71342,note_on,60,0,7,,,,,,,,,11,,,,70,0
71346,note_on,21,0,8,,,,,,,,,12,,,,62,99
71346,note_on,0,0,8,,,,,,,,,12,,,,58,99
71385,note_on,39,0,8,,,,,,,,,12,,,,58,0
71385,note_on,0,0,8,,,,,,,,,12,,,,62,0
71400,note_on,60,0,6,,,,,,,,,10,,,,82,90
71402,note_on,60,0,7,,,,,,,,,11,,,,70,88
71406,note_on,0,0,8,,,,,,,,,12,,,,62,108
71406,note_on,21,0,8,,,,,,,,,12,,,,58,108
71445,note_on,0,0,8,,,,,,,,,12,,,,58,0
71445,note_on,39,0,8,,,,,,,,,12,,,,62,0
71460,note_on,60,0,6,,,,,,,,,10,,,,82,0
71462,note_on,60,0,7,,,,,,,,,11,,,,70,0
71466,note_on,21,0,8,,,,,,,,,12,,,,62,99
71466,note_on,0,0,8,,,,,,,,,12,,,,58,99
71505,note_on,0,0,8,,,,,,,,,12,,,,62,0
71505,note_on,39,0,8,,,,,,,,,12,,,,58,0
71520,set_tempo,240,1,0,,,,,,272727,,,,,,,,
71520,note_on,60,0,6,,,,,,,,,10,,,,82,79
71522,note_on,60,0,7,,,,,,,,,11,,,,70,77
71523,note_on,240,0,1,,,,,,,,,0,,,,82,110
71526,note_on,21,0,8,,,,,,,,,12,,,,58,108
71526,note_on,0,0,8,,,,,,,,,12,,,,62,108
71530,note_on,240,0,9,,,,,,,,,13,,,,53,99
71532,note_on,240,0,10,,,,,,,,,14,,,,41,93
71565,note_on,39,0,8,,,,,,,,,12,,,,62,0
71565,note_on,0,0,8,,,,,,,,,12,,,,58,0
71586,note_on,21,0,8,,,,,,,,,12,,,,62,99
71586,note_on,0,0,8,,,,,,,,,12,,,,58,99
71625,note_on,39,0,8,,,,,,,,,12,,,,58,0
71625,note_on,0,0,8,,,,,,,,,12,,,,62,0
71646,note_on,0,0,8,,,,,,,,,12,,,,62,108
71646,note_on,21,0,8,,,,,,,,,12,,,,58,108
71685,note_on,0,0,8,,,,,,,,,12,,,,58,0
71685,note_on,39,0,8,,,,,,,,,12,,,,62,0
71700,note_on,0,0,6,,,,,,,,,10,,,,81,90
71700,note_on,180,0,6,,,,,,,,,10,,,,82,0
71702,note_on,0,0,7,,,,,,,,,11,,,,69,88
71702,note_on,180,0,7,,,,,,,,,11,,,,70,0
71703,note_on,0,0,1,,,,,,,,,0,,,,81,110
71703,note_on,180,0,1,,,,,,,,,0,,,,82,0
71706,note_on,0,0,8,,,,,,,,,12,,,,62,99
71706,note_on,21,0,8,,,,,,,,,12,,,,58,99
71710,note_on,180,0,9,,,,,,,,,13,,,,53,0
71710,note_on,0,0,9,,,,,,,,,13,,,,58,99
71712,note_on,0,0,10,,,,,,,,,14,,,,46,93
71712,note_on,180,0,10,,,,,,,,,14,,,,41,0
71745,note_on,0,0,8,,,,,,,,,12,,,,58,0
71745,note_on,39,0,8,,,,,,,,,12,,,,62,0
71749,note_on,39,0,9,,,,,,,,,13,,,,58,0
71751,note_on,39,0,10,,,,,,,,,14,,,,46,0
71760,note_on,60,0,6,,,,,,,,,10,,,,81,0
71760,set_tempo,240,1,0,,,,,,261438,,,,,,,,
71760,note_on,0,0,6,,,,,,,,,10,,,,79,90
71762,note_on,60,0,7,,,,,,,,,11,,,,69,0
71762,note_on,0,0,7,,,,,,,,,11,,,,67,88
71763,note_on,0,0,1,,,,,,,,,0,,,,79,110
71763,note_on,60,0,1,,,,,,,,,0,,,,81,0
71766,note_on,0,0,8,,,,,,,,,12,,,,62,108
71766,note_on,21,0,8,,,,,,,,,12,,,,58,108
71770,note_on,21,0,9,,,,,,,,,13,,,,62,99
71772,note_on,21,0,10,,,,,,,,,14,,,,50,93
71805,note_on,39,0,8,,,,,,,,,12,,,,62,0
71805,note_on,0,0,8,,,,,,,,,12,,,,58,0
71820,note_on,0,0,6,,,,,,,,,10,,,,77,90
71820,note_on,60,0,6,,,,,,,,,10,,,,79,0
71822,note_on,0,0,7,,,,,,,,,11,,,,65,88
71822,note_on,60,0,7,,,,,,,,,11,,,,67,0
71823,note_on,0,0,1,,,,,,,,,0,,,,77,110
71823,note_on,60,0,1,,,,,,,,,0,,,,79,0
71826,note_on,21,0,8,,,,,,,,,12,,,,62,99
71826,note_on,0,0,8,,,,,,,,,12,,,,58,99
71830,note_on,60,0,9,,,,,,,,,13,,,,62,0
71832,note_on,60,0,10,,,,,,,,,14,,,,50,0
71865,note_on,39,0,8,,,,,,,,,12,,,,58,0
71865,note_on,0,0,8,,,,,,,,,12,,,,62,0
71880,note_on,60,0,6,,,,,,,,,10,,,,77,0
71880,note_on,0,0,6,,,,,,,,,10,,,,75,90
71882,note_on,60,0,7,,,,,,,,,11,,,,65,0
71882,note_on,0,0,7,,,,,,,,,11,,,,63,88
71883,note_on,0,0,1,,,,,,,,,0,,,,75,110
71883,note_on,60,0,1,,,,,,,,,0,,,,77,0
71886,note_on,0,0,8,,,,,,,,,12,,,,62,108
71886,note_on,21,0,8,,,,,,,,,12,,,,58,108
71890,note_on,60,0,9,,,,,,,,,13,,,,62,99
71892,note_on,60,0,10,,,,,,,,,14,,,,50,93
71925,note_on,39,0,8,,,,,,,,,12,,,,62,0
71925,note_on,0,0,8,,,,,,,,,12,,,,58,0
71940,note_on,60,0,6,,,,,,,,,10,,,,75,0
71940,note_on,0,0,6,,,,,,,,,10,,,,74,90
71942,note_on,60,0,7,,,,,,,,,11,,,,63,0
71942,note_on,0,0,7,,,,,,,,,11,,,,62,88
71943,note_on,60,0,1,,,,,,,,,0,,,,75,0
71943,note_on,0,0,1,,,,,,,,,0,,,,74,110
71946,note_on,21,0,8,,,,,,,,,12,,,,58,99
71946,note_on,0,0,8,,,,,,,,,12,,,,62,99
71950,note_on,60,0,9,,,,,,,,,13,,,,62,0
71952,note_on,60,0,10,,,,,,,,,14,,,,50,0
71979,note_on,39,0,6,,,,,,,,,10,,,,74,0
71981,note_on,39,0,7,,,,,,,,,11,,,,62,0
71985,note_on,0,0,8,,,,,,,,,12,,,,58,0
71985,note_on,39,0,8,,,,,,,,,12,,,,62,0
71998,note_on,55,0,1,,,,,,,,,0,,,,74,0
72000,set_tempo,240,1,0,,,,,,272727,,,,,,,,
72000,control_change,21,0,6,,,,,,,,,10,11,57,,,
72000,note_on,0,0,6,,,,,,,,,10,,,,72,90
72002,note_on,0,0,7,,,,,,,,,11,,,,60,88
72002,control_change,21,0,7,,,,,,,,,11,11,57,,,
72003,note_on,5,0,1,,,,,,,,,0,,,,72,110
72005,note_on,960,0,2,,,,,,,,,1,,,,74,0
72005,note_on,0,0,2,,,,,,,,,1,,,,70,0
72005,note_on,0,0,2,,,,,,,,,1,,,,72,97
72005,control_change,0,0,2,,,,,,,,,1,11,62,,,
72005,note_on,0,0,2,,,,,,,,,1,,,,67,97
72006,note_on,21,0,8,,,,,,,,,12,,,,55,108
72006,note_on,0,0,8,,,,,,,,,12,,,,60,108
72010,note_on,60,0,9,,,,,,,,,13,,,,51,99
72011,note_on,960,0,3,,,,,,,,,3,,,,53,0
72011,control_change,0,0,3,,,,,,,,,3,11,62,,,
72011,note_on,0,0,3,,,,,,,,,3,,,,51,97
72012,note_on,60,0,10,,,,,,,,,14,,,,39,93
72022,control_change,22,0,6,,,,,,,,,10,11,54,,,
72024,control_change,22,0,7,,,,,,,,,11,11,54,,,
72044,control_change,22,0,6,,,,,,,,,10,11,51,,,
72045,note_on,0,0,8,,,,,,,,,12,,,,55,0
72045,note_on,39,0,8,,,,,,,,,12,,,,60,0
72046,control_change,22,0,7,,,,,,,,,11,11,51,,,
72059,control_change,15,0,6,,,,,,,,,10,11,49,,,
72061,control_change,15,0,7,,,,,,,,,11,11,49,,,
72066,note_on,0,0,8,,,,,,,,,12,,,,60,99
72066,note_on,21,0,8,,,,,,,,,12,,,,55,99
72105,note_on,39,0,8,,,,,,,,,12,,,,60,0
72105,note_on,0,0,8,,,,,,,,,12,,,,55,0
72126,note_on,0,0,8,,,,,,,,,12,,,,55,108
72126,note_on,21,0,8,,,,,,,,,12,,,,60,108
72165,note_on,0,0,8,,,,,,,,,12,,,,60,0
72165,note_on,39,0,8,,,,,,,,,12,,,,55,0
72180,note_on,121,0,6,,,,,,,,,10,,,,72,0
72180,note_on,0,0,6,,,,,,,,,10,,,,75,90
72180,control_change,0,0,6,,,,,,,,,10,11,49,,,
72182,note_on,0,0,7,,,,,,,,,11,,,,63,88
72182,control_change,0,0,7,,,,,,,,,11,11,49,,,
72182,note_on,121,0,7,,,,,,,,,11,,,,60,0
72186,note_on,21,0,8,,,,,,,,,12,,,,55,99
72186,note_on,0,0,8,,,,,,,,,12,,,,60,99
72195,control_change,15,0,6,,,,,,,,,10,11,52,,,
72197,control_change,15,0,7,,,,,,,,,11,11,51,,,
72210,control_change,15,0,6,,,,,,,,,10,11,55,,,
72212,control_change,15,0,7,,,,,,,,,11,11,52,,,
72219,note_on,9,0,6,,,,,,,,,10,,,,75,0
72221,note_on,9,0,7,,,,,,,,,11,,,,63,0
72225,control_change,6,0,6,,,,,,,,,10,11,58,,,
72225,note_on,39,0,8,,,,,,,,,12,,,,60,0
72225,note_on,0,0,8,,,,,,,,,12,,,,55,0
72227,control_change,6,0,7,,,,,,,,,11,11,54,,,
72240,set_tempo,240,1,0,,,,,,261438,,,,,,,,
72240,note_on,0,0,6,,,,,,,,,10,,,,79,90
72240,control_change,15,0,6,,,,,,,,,10,11,60,,,
72242,note_on,0,0,7,,,,,,,,,11,,,,67,88
72242,control_change,15,0,7,,,,,,,,,11,11,55,,,
72243,note_on,240,0,1,,,,,,,,,0,,,,72,0
72246,note_on,21,0,8,,,,,,,,,12,,,,55,108
72246,note_on,0,0,8,,,,,,,,,12,,,,60,108
72255,control_change,15,0,6,,,,,,,,,10,11,62,,,
72257,control_change,15,0,7,,,,,,,,,11,11,57,,,
72270,control_change,15,0,6,,,,,,,,,10,11,63,,,
72272,control_change,15,0,7,,,,,,,,,11,11,58,,,
72285,note_on,0,0,8,,,,,,,,,12,,,,55,0
72285,note_on,39,0,8,,,,,,,,,12,,,,60,0
72285,control_change,15,0,6,,,,,,,,,10,11,64,,,
72287,control_change,15,0,7,,,,,,,,,11,11,59,,,
72300,note_on,15,0,6,,,,,,,,,10,,,,79,0
72300,control_change,0,0,6,,,,,,,,,10,11,66,,,
72302,note_on,15,0,7,,,,,,,,,11,,,,67,0
72302,control_change,0,0,7,,,,,,,,,11,11,60,,,
72306,note_on,21,0,8,,,,,,,,,12,,,,60,99
72306,note_on,0,0,8,,,,,,,,,12,,,,55,99
72315,control_change,15,0,6,,,,,,,,,10,11,67,,,
72317,control_change,15,0,7,,,,,,,,,11,11,61,,,
72330,control_change,15,0,6,,,,,,,,,10,11,68,,,
72332,control_change,15,0,7,,,,,,,,,11,11,62,,,
72345,note_on,39,0,8,,,,,,,,,12,,,,55,0
72345,control_change,15,0,6,,,,,,,,,10,11,62,,,
72345,note_on,0,0,8,,,,,,,,,12,,,,60,0
72347,control_change,15,0,7,,,,,,,,,11,11,62,,,
72360,control_change,15,0,6,,,,,,,,,10,11,63,,,
72360,note_on,0,0,6,,,,,,,,,10,,,,79,90
72362,note_on,0,0,7,,,,,,,,,11,,,,67,88
72362,control_change,15,0,7,,,,,,,,,11,11,63,,,
72366,note_on,0,0,8,,,,,,,,,12,,,,55,108
72366,note_on,21,0,8,,,,,,,,,12,,,,60,108
72375,control_change,15,0,6,,,,,,,,,10,11,64,,,
72377,control_change,15,0,7,,,,,,,,,11,11,64,,,
72390,control_change,15,0,6,,,,,,,,,10,11,64,,,
72392,control_change,15,0,7,,,,,,,,,11,11,64,,,
72405,note_on,39,0,8,,,,,,,,,12,,,,55,0
72405,note_on,0,0,8,,,,,,,,,12,,,,60,0
72405,control_change,15,0,6,,,,,,,,,10,11,65,,,
72407,control_change,15,0,7,,,,,,,,,11,11,65,,,
72420,control_change,0,0,6,,,,,,,,,10,11,66,,,
72420,note_on,15,0,6,,,,,,,,,10,,,,79,0
72422,note_on,15,0,7,,,,,,,,,11,,,,67,0
72422,control_change,0,0,7,,,,,,,,,11,11,66,,,
72426,note_on,21,0,8,,,,,,,,,12,,,,55,99
72426,note_on,0,0,8,,,,,,,,,12,,,,60,99
72435,control_change,15,0,6,,,,,,,,,10,11,66,,,
72437,control_change,15,0,7,,,,,,,,,11,11,66,,,
72450,control_change,15,0,6,,,,,,,,,10,11,67,,,
72452,control_change,15,0,7,,,,,,,,,11,11,67,,,
72465,control_change,15,0,6,,,,,,,,,10,11,68,,,
72465,note_on,0,0,8,,,,,,,,,12,,,,55,0
72465,note_on,39,0,8,,,,,,,,,12,,,,60,0
72467,control_change,15,0,7,,,,,,,,,11,11,68,,,
72480,control_change,15,0,6,,,,,,,,,10,11,68,,,
72480,set_tempo,240,1,0,,,,,,272727,,,,,,,,
72480,note_on,0,0,6,,,,,,,,,10,,,,79,90
72482,control_change,15,0,7,,,,,,,,,11,11,68,,,
72482,note_on,0,0,7,,,,,,,,,11,,,,67,88
72483,note_on,0,0,1,,,,,,,,,0,,,,84,110
72483,control_change,240,0,1,,,,,,,,,0,11,68,,,
72486,note_on,0,0,8,,,,,,,,,12,,,,55,108
72486,note_on,21,0,8,,,,,,,,,12,,,,60,108
72501,control_change,18,0,1,,,,,,,,,0,11,68,,,
72504,control_change,24,0,6,,,,,,,,,10,11,67,,,
72506,control_change,24,0,7,,,,,,,,,11,11,67,,,
72519,control_change,18,0,1,,,,,,,,,0,11,67,,,
72525,note_on,39,0,8,,,,,,,,,12,,,,55,0
72525,note_on,0,0,8,,,,,,,,,12,,,,60,0
72528,control_change,24,0,6,,,,,,,,,10,11,66,,,
72530,control_change,24,0,7,,,,,,,,,11,11,66,,,
72537,control_change,18,0,1,,,,,,,,,0,11,66,,,
72546,note_on,21,0,8,,,,,,,,,12,,,,60,99
72546,note_on,0,0,8,,,,,,,,,12,,,,55,99
72552,control_change,24,0,6,,,,,,,,,10,11,64,,,
72554,control_change,24,0,7,,,,,,,,,11,11,64,,,
72555,control_change,18,0,1,,,,,,,,,0,11,66,,,
72573,control_change,18,0,1,,,,,,,,,0,11,65,,,
72576,control_change,24,0,6,,,,,,,,,10,11,63,,,
72578,control_change,24,0,7,,,,,,,,,11,11,63,,,
72585,note_on,0,0,8,,,,,,,,,12,,,,60,0
72585,note_on,39,0,8,,,,,,,,,12,,,,55,0
72591,control_change,18,0,1,,,,,,,,,0,11,64,,,
72600,control_change,24,0,6,,,,,,,,,10,11,68,,,
72602,control_change,24,0,7,,,,,,,,,11,11,62,,,
72606,note_on,21,0,8,,,,,,,,,12,,,,55,108
72606,note_on,0,0,8,,,,,,,,,12,,,,60,108
72609,control_change,18,0,1,,,,,,,,,0,11,64,,,
72624,control_change,24,0,6,,,,,,,,,10,11,66,,,
72626,control_change,24,0,7,,,,,,,,,11,11,60,,,
72627,control_change,18,0,1,,,,,,,,,0,11,63,,,
72645,note_on,0,0,8,,,,,,,,,12,,,,55,0
72645,control_change,18,0,1,,,,,,,,,0,11,62,,,
72645,note_on,39,0,8,,,,,,,,,12,,,,60,0
72648,control_change,24,0,6,,,,,,,,,10,11,63,,,
72650,control_change,24,0,7,,,,,,,,,11,11,58,,,
72663,control_change,18,0,1,,,,,,,,,0,11,62,,,
72666,note_on,0,0,8,,,,,,,,,12,,,,55,99
72666,note_on,21,0,8,,,,,,,,,12,,,,60,99
72672,control_change,24,0,6,,,,,,,,,10,11,60,,,
72674,control_change,24,0,7,,,,,,,,,11,11,55,,,
72681,control_change,18,0,1,,,,,,,,,0,11,61,,,
72696,control_change,24,0,6,,,,,,,,,10,11,55,,,
72698,control_change,24,0,7,,,,,,,,,11,11,52,,,
72699,control_change,18,0,1,,,,,,,,,0,11,60,,,
72705,note_on,39,0,8,,,,,,,,,12,,,,55,0
72705,note_on,0,0,8,,,,,,,,,12,,,,60,0
72708,control_change,12,0,6,,,,,,,,,10,11,52,,,
72717,control_change,18,0,1,,,,,,,,,0,11,59,,,
72720,note_on,12,0,6,,,,,,,,,10,,,,79,0
72720,note_on,0,0,6,,,,,,,,,10,,,,78,90
72720,set_tempo,240,1,0,,,,,,261438,,,,,,,,
72720,control_change,0,0,6,,,,,,,,,10,11,49,,,
72722,note_on,0,0,7,,,,,,,,,11,,,,66,88
72722,control_change,0,0,7,,,,,,,,,11,11,49,,,
72722,note_on,24,0,7,,,,,,,,,11,,,,67,0
72725,note_on,0,0,2,,,,,,,,,1,,,,69,97
72725,control_change,0,0,2,,,,,,,,,1,11,62,,,
72725,note_on,720,0,2,,,,,,,,,1,,,,67,0
72726,note_on,21,0,8,,,,,,,,,12,,,,57,108
72726,note_on,0,0,8,,,,,,,,,12,,,,60,108
72731,control_change,720,0,3,,,,,,,,,3,11,62,,,
72735,control_change,18,0,1,,,,,,,,,0,11,58,,,
72749,control_change,24,0,2,,,,,,,,,1,11,61,,,
72753,control_change,18,0,1,,,,,,,,,0,11,57,,,
72755,control_change,24,0,3,,,,,,,,,3,11,61,,,
72765,note_on,0,0,8,,,,,,,,,12,,,,57,0
72765,note_on,39,0,8,,,,,,,,,12,,,,60,0
72771,control_change,18,0,1,,,,,,,,,0,11,56,,,
72773,control_change,24,0,2,,,,,,,,,1,11,60,,,
72779,control_change,24,0,3,,,,,,,,,3,11,60,,,
72786,note_on,0,0,8,,,,,,,,,12,,,,60,99
72786,note_on,21,0,8,,,,,,,,,12,,,,57,99
72789,control_change,18,0,1,,,,,,,,,0,11,55,,,
72797,control_change,24,0,2,,,,,,,,,1,11,59,,,
72803,control_change,24,0,3,,,,,,,,,3,11,59,,,
72807,control_change,18,0,1,,,,,,,,,0,11,54,,,
72821,control_change,24,0,2,,,,,,,,,1,11,58,,,
72825,control_change,18,0,1,,,,,,,,,0,11,53,,,
72825,note_on,0,0,8,,,,,,,,,12,,,,57,0
72825,note_on,39,0,8,,,,,,,,,12,,,,60,0
72827,control_change,24,0,3,,,,,,,,,3,11,58,,,
72843,note_on,18,0,1,,,,,,,,,0,,,,84,0
72843,control_change,0,0,1,,,,,,,,,0,11,52,,,
72843,note_on,0,0,1,,,,,,,,,0,,,,82,110
72845,control_change,24,0,2,,,,,,,,,1,11,57,,,
72846,note_on,21,0,8,,,,,,,,,12,,,,60,108
72846,note_on,0,0,8,,,,,,,,,12,,,,57,108
72851,control_change,24,0,3,,,,,,,,,3,11,57,,,
72869,control_change,24,0,2,,,,,,,,,1,11,56,,,
72875,control_change,24,0,3,,,,,,,,,3,11,56,,,
72885,note_on,0,0,8,,,,,,,,,12,,,,60,0
72885,note_on,39,0,8,,,,,,,,,12,,,,57,0
72893,control_change,24,0,2,,,,,,,,,1,11,55,,,
72899,control_change,24,0,3,,,,,,,,,3,11,55,,,
72903,note_on,0,0,1,,,,,,,,,0,,,,81,110
72903,note_on,60,0,1,,,,,,,,,0,,,,82,0
72906,note_on,0,0,8,,,,,,,,,12,,,,60,99
72906,note_on,21,0,8,,,,,,,,,12,,,,57,99
72917,control_change,24,0,2,,,,,,,,,1,11,54,,,
72923,control_change,24,0,3,,,,,,,,,3,11,54,,,
72941,control_change,24,0,2,,,,,,,,,1,11,53,,,
72945,note_on,0,0,8,,,,,,,,,12,,,,57,0
72945,note_on,39,0,8,,,,,,,,,12,,,,60,0
72947,control_change,24,0,3,,,,,,,,,3,11,53,,,
72955,note_on,235,0,6,,,,,,,,,10,,,,78,0
72957,note_on,235,0,7,,,,,,,,,11,,,,66,0
72958,note_on,55,0,1,,,,,,,,,0,,,,81,0
72960,set_tempo,240,1,0,,,,,,272727,,,,,,,,
72960,note_on,5,0,6,,,,,,,,,10,,,,77,90
72962,note_on,5,0,7,,,,,,,,,11,,,,65,88
72963,note_on,5,0,1,,,,,,,,,0,,,,82,110
72965,note_on,0,0,2,,,,,,,,,1,,,,70,97
72965,note_on,0,0,2,,,,,,,,,1,,,,77,97
72965,note_on,24,0,2,,,,,,,,,1,,,,69,0
72965,note_on,0,0,2,,,,,,,,,1,,,,72,0
72965,control_change,0,0,2,,,,,,,,,1,11,52,,,
72966,note_on,21,0,8,,,,,,,,,12,,,,58,108
72970,note_on,0,0,9,,,,,,,,,13,,,,50,99
72970,note_on,960,0,9,,,,,,,,,13,,,,51,0
72971,note_on,24,0,3,,,,,,,,,3,,,,51,0
72971,note_on,0,0,3,,,,,,,,,3,,,,50,97
72971,control_change,0,0,3,,,,,,,,,3,11,52,,,
72972,note_on,960,0,10,,,,,,,,,14,,,,39,0
72972,note_on,0,0,10,,,,,,,,,14,,,,38,93
73005,note_on,39,0,8,,,,,,,,,12,,,,58,0
73026,note_on,21,0,8,,,,,,,,,12,,,,58,99
73065,note_on,39,0,8,,,,,,,,,12,,,,58,0
73086,note_on,21,0,8,,,,,,,,,12,,,,58,108
73125,note_on,39,0,8,,,,,,,,,12,,,,58,0
73146,note_on,21,0,8,,,,,,,,,12,,,,58,99
73185,note_on,39,0,8,,,,,,,,,12,,,,58,0
73200,set_tempo,240,1,0,,,,,,261438,,,,,,,,
73202,note_on,240,0,7,,,,,,,,,11,,,,65,0
73202,note_on,0,0,7,,,,,,,,,11,,,,69,88
73203,note_on,240,0,1,,,,,,,,,0,,,,82,0
73203,note_on,0,0,1,,,,,,,,,0,,,,81,110
73205,note_on,0,0,2,,,,,,,,,1,,,,69,97
73205,note_on,240,0,2,,,,,,,,,1,,,,70,0
73206,note_on,21,0,8,,,,,,,,,12,,,,65,108
73210,note_on,240,0,9,,,,,,,,,13,,,,50,0
73210,note_on,0,0,9,,,,,,,,,13,,,,51,99
73211,note_on,0,0,3,,,,,,,,,3,,,,51,97
73211,note_on,240,0,3,,,,,,,,,3,,,,50,0
73212,note_on,0,0,10,,,,,,,,,14,,,,39,93
73212,note_on,240,0,10,,,,,,,,,14,,,,38,0
73260,note_on,0,0,6,,,,,,,,,10,,,,75,90
73260,note_on,300,0,6,,,,,,,,,10,,,,77,0
73262,note_on,0,0,7,,,,,,,,,11,,,,67,88
73262,note_on,60,0,7,,,,,,,,,11,,,,69,0
73263,note_on,60,0,1,,,,,,,,,0,,,,81,0
73263,note_on,0,0,1,,,,,,,,,0,,,,79,110
73265,note_on,60,0,2,,,,,,,,,1,,,,69,0
73265,note_on,0,0,2,,,,,,,,,1,,,,77,0
73265,note_on,0,0,2,,,,,,,,,1,,,,67,97
73265,note_on,0,0,2,,,,,,,,,1,,,,75,97
73266,note_on,60,0,8,,,,,,,,,12,,,,65,0
73266,note_on,0,0,8,,,,,,,,,12,,,,63,108
73320,note_on,0,0,6,,,,,,,,,10,,,,74,90
73320,note_on,60,0,6,,,,,,,,,10,,,,75,0
73322,note_on,0,0,7,,,,,,,,,11,,,,65,88
73322,note_on,60,0,7,,,,,,,,,11,,,,67,0
73323,note_on,60,0,1,,,,,,,,,0,,,,79,0
73323,note_on,0,0,1,,,,,,,,,0,,,,77,110
73325,note_on,0,0,2,,,,,,,,,1,,,,74,97
73325,note_on,0,0,2,,,,,,,,,1,,,,65,97
73325,note_on,0,0,2,,,,,,,,,1,,,,75,0
73325,note_on,60,0,2,,,,,,,,,1,,,,67,0
73326,note_on,0,0,8,,,,,,,,,12,,,,62,108
73326,note_on,60,0,8,,,,,,,,,12,,,,63,0
73380,note_on,60,0,6,,,,,,,,,10,,,,74,0
73380,note_on,0,0,6,,,,,,,,,10,,,,72,90
73382,note_on,0,0,7,,,,,,,,,11,,,,63,88
73382,note_on,60,0,7,,,,,,,,,11,,,,65,0
73383,note_on,60,0,1,,,,,,,,,0,,,,77,0
73383,note_on,0,0,1,,,,,,,,,0,,,,75,110
73385,note_on,0,0,2,,,,,,,,,1,,,,63,97
73385,note_on,0,0,2,,,,,,,,,1,,,,72,97
73385,note_on,0,0,2,,,,,,,,,1,,,,65,0
73385,note_on,60,0,2,,,,,,,,,1,,,,74,0
73386,note_on,60,0,8,,,,,,,,,12,,,,62,0
73386,note_on,0,0,8,,,,,,,,,12,,,,60,108
73419,note_on,39,0,6,,,,,,,,,10,,,,72,0
73421,note_on,39,0,7,,,,,,,,,11,,,,63,0
73425,note_on,39,0,8,,,,,,,,,12,,,,60,0
73438,note_on,55,0,1,,,,,,,,,0,,,,75,0
73440,set_tempo,240,1,0,,,,,,272727,,,,,,,,
73440,note_on,0,0,2,,,,,,,,,1,,,,72,0
73440,note_on,21,0,6,,,,,,,,,10,,,,70,90
73440,note_on,55,0,2,,,,,,,,,1,,,,63,0
73442,note_on,21,0,7,,,,,,,,,11,,,,62,88
73443,note_on,5,0,1,,,,,,,,,0,,,,74,110
73445,note_on,0,0,2,,,,,,,,,1,,,,70,97
73445,note_on,5,0,2,,,,,,,,,1,,,,62,97
73446,note_on,21,0,8,,,,,,,,,12,,,,58,108
73450,note_on,0,0,9,,,,,,,,,13,,,,53,99
73450,note_on,240,0,9,,,,,,,,,13,,,,51,0
73451,note_on,240,0,3,,,,,,,,,3,,,,51,0
73451,note_on,0,0,3,,,,,,,,,3,,,,53,97
73452,note_on,0,0,10,,,,,,,,,14,,,,41,93
73452,note_on,240,0,10,,,,,,,,,14,,,,39,0
73485,note_on,39,0,8,,,,,,,,,12,,,,58,0
73506,note_on,21,0,8,,,,,,,,,12,,,,65,90
73545,note_on,39,0,8,,,,,,,,,12,,,,65,0
73566,note_on,21,0,8,,,,,,,,,12,,,,65,108
73605,note_on,39,0,8,,,,,,,,,12,,,,65,0
73626,note_on,21,0,8,,,,,,,,,12,,,,65,90
73665,note_on,39,0,8,,,,,,,,,12,,,,65,0
73680,control_change,0,0,6,,,,,,,,,10,11,49,,,
73680,note_on,0,0,6,,,,,,,,,10,,,,69,79
73680,set_tempo,240,1,0,,,,,,261438,,,,,,,,
73680,note_on,240,0,6,,,,,,,,,10,,,,70,0
73682,note_on,0,0,7,,,,,,,,,11,,,,60,77
73682,control_change,0,0,7,,,,,,,,,11,11,49,,,
73682,note_on,240,0,7,,,,,,,,,11,,,,62,0
73683,note_on,240,0,1,,,,,,,,,0,,,,74,0
73683,note_on,0,0,1,,,,,,,,,0,,,,72,110
73685,note_on,0,0,2,,,,,,,,,1,,,,60,97
73685,note_on,0,0,2,,,,,,,,,1,,,,62,0
73685,note_on,0,0,2,,,,,,,,,1,,,,69,97
73685,note_on,240,0,2,,,,,,,,,1,,,,70,0
73686,note_on,21,0,8,,,,,,,,,12,,,,65,108
73695,control_change,15,0,6,,,,,,,,,10,11,46,,,
73697,control_change,15,0,7,,,,,,,,,11,11,46,,,
73711,control_change,16,0,6,,,,,,,,,10,11,43,,,
73713,control_change,16,0,7,,,,,,,,,11,11,43,,,
73725,note_on,39,0,8,,,,,,,,,12,,,,65,0
73727,control_change,16,0,6,,,,,,,,,10,11,40,,,
73729,control_change,16,0,7,,,,,,,,,11,11,40,,,
73743,control_change,16,0,6,,,,,,,,,10,11,37,,,
73745,control_change,16,0,7,,,,,,,,,11,11,37,,,
73746,note_on,21,0,8,,,,,,,,,12,,,,65,90
73759,control_change,16,0,6,,,,,,,,,10,11,34,,,
73761,control_change,16,0,7,,,,,,,,,11,11,34,,,
73775,control_change,16,0,6,,,,,,,,,10,11,31,,,
73777,control_change,16,0,7,,,,,,,,,11,11,31,,,
73785,note_on,39,0,8,,,,,,,,,12,,,,65,0
73791,control_change,16,0,6,,,,,,,,,10,11,28,,,
73793,control_change,16,0,7,,,,,,,,,11,11,28,,,
73800,note_on,9,0,6,,,,,,,,,10,,,,69,0
73802,note_on,9,0,7,,,,,,,,,11,,,,60,0
73803,note_on,120,0,1,,,,,,,,,0,,,,72,0
73805,note_on,0,0,2,,,,,,,,,1,,,,69,0
73805,note_on,120,0,2,,,,,,,,,1,,,,60,0
73806,note_on,21,0,8,,,,,,,,,12,,,,65,108
73845,note_on,39,0,8,,,,,,,,,12,,,,65,0
73866,note_on,21,0,8,,,,,,,,,12,,,,65,90
73905,note_on,39,0,8,,,,,,,,,12,,,,65,0
73920,set_tempo,240,1,0,,,,,,272727,,,,,,,,
73920,control_change,120,0,6,,,,,,,,,10,11,57,,,
73920,note_on,0,0,6,,,,,,,,,10,,,,72,90
73922,note_on,0,0,7,,,,,,,,,11,,,,60,88
73922,control_change,120,0,7,,,,,,,,,11,11,57,,,
73922,control_change,0,0,7,,,,,,,,,11,11,49,,,
73925,note_on,0,0,2,,,,,,,,,1,,,,69,97
73925,note_on,0,0,2,,,,,,,,,1,,,,72,97
73925,control_change,120,0,2,,,,,,,,,1,11,52,,,
73926,note_on,21,0,8,,,,,,,,,12,,,,57,108
73929,control_change,7,0,7,,,,,,,,,11,11,56,,,
73930,note_on,0,0,9,,,,,,,,,13,,,,51,99
73930,note_on,480,0,9,,,,,,,,,13,,,,53,0
73931,note_on,0,0,3,,,,,,,,,3,,,,51,97
73931,control_change,0,0,3,,,,,,,,,3,11,52,,,
73931,note_on,480,0,3,,,,,,,,,3,,,,53,0
73932,note_on,480,0,10,,,,,,,,,14,,,,41,0
73932,note_on,0,0,10,,,,,,,,,14,,,,39,93
73942,control_change,22,0,6,,,,,,,,,10,11,54,,,
73944,control_change,15,0,7,,,,,,,,,11,11,54,,,
73964,control_change,22,0,6,,,,,,,,,10,11,51,,,
73965,note_on,39,0,8,,,,,,,,,12,,,,57,0
73966,control_change,22,0,7,,,,,,,,,11,11,51,,,
73973,control_change,48,0,2,,,,,,,,,1,11,53,,,
73979,control_change,48,0,3,,,,,,,,,3,11,53,,,
73979,control_change,15,0,6,,,,,,,,,10,11,49,,,
73981,control_change,15,0,7,,,,,,,,,11,11,49,,,
73986,note_on,21,0,8,,,,,,,,,12,,,,57,99
74021,control_change,48,0,2,,,,,,,,,1,11,54,,,
74025,note_on,39,0,8,,,,,,,,,12,,,,57,0
74027,control_change,48,0,3,,,,,,,,,3,11,54,,,
74046,note_on,21,0,8,,,,,,,,,12,,,,57,108
74069,control_change,48,0,2,,,,,,,,,1,11,55,,,
74075,control_change,48,0,3,,,,,,,,,3,11,55,,,
74085,note_on,39,0,8,,,,,,,,,12,,,,57,0
74100,note_on,0,0,6,,,,,,,,,10,,,,75,90
74100,control_change,0,0,6,,,,,,,,,10,11,49,,,
74100,note_on,121,0,6,,,,,,,,,10,,,,72,0
74102,note_on,121,0,7,,,,,,,,,11,,,,60,0
74102,control_change,0,0,7,,,,,,,,,11,11,49,,,
74102,note_on,0,0,7,,,,,,,,,11,,,,63,88
74106,note_on,21,0,8,,,,,,,,,12,,,,57,99
74115,control_change,15,0,6,,,,,,,,,10,11,52,,,
74117,control_change,15,0,7,,,,,,,,,11,11,51,,,
74117,control_change,48,0,2,,,,,,,,,1,11,56,,,
74123,control_change,48,0,3,,,,,,,,,3,11,56,,,
74130,control_change,15,0,6,,,,,,,,,10,11,55,,,
74132,control_change,15,0,7,,,,,,,,,11,11,52,,,
74139,note_on,9,0,6,,,,,,,,,10,,,,75,0
74141,note_on,9,0,7,,,,,,,,,11,,,,63,0
74145,control_change,6,0,6,,,,,,,,,10,11,58,,,
74145,note_on,39,0,8,,,,,,,,,12,,,,57,0
74147,control_change,6,0,7,,,,,,,,,11,11,54,,,
74160,note_on,0,0,6,,,,,,,,,10,,,,79,90
74160,set_tempo,240,1,0,,,,,,261438,,,,,,,,
74160,control_change,15,0,6,,,,,,,,,10,11,60,,,
74162,control_change,15,0,7,,,,,,,,,11,11,55,,,
74162,note_on,0,0,7,,,,,,,,,11,,,,67,88
74165,control_change,48,0,2,,,,,,,,,1,11,57,,,
74166,note_on,21,0,8,,,,,,,,,12,,,,57,108
74171,control_change,48,0,3,,,,,,,,,3,11,57,,,
74175,control_change,15,0,6,,,,,,,,,10,11,62,,,
74177,control_change,15,0,7,,,,,,,,,11,11,57,,,
74190,control_change,15,0,6,,,,,,,,,10,11,63,,,
74192,control_change,15,0,7,,,,,,,,,11,11,58,,,
74205,note_on,39,0,8,,,,,,,,,12,,,,57,0
74205,control_change,15,0,6,,,,,,,,,10,11,64,,,
74207,control_change,15,0,7,,,,,,,,,11,11,59,,,
74213,control_change,48,0,2,,,,,,,,,1,11,58,,,
74219,control_change,48,0,3,,,,,,,,,3,11,58,,,
74220,note_on,15,0,6,,,,,,,,,10,,,,79,0
74220,control_change,0,0,6,,,,,,,,,10,11,66,,,
74222,note_on,15,0,7,,,,,,,,,11,,,,67,0
74222,control_change,0,0,7,,,,,,,,,11,11,60,,,
74226,note_on,21,0,8,,,,,,,,,12,,,,57,99
74235,control_change,15,0,6,,,,,,,,,10,11,67,,,
74237,control_change,15,0,7,,,,,,,,,11,11,61,,,
74250,control_change,15,0,6,,,,,,,,,10,11,68,,,
74252,control_change,15,0,7,,,,,,,,,11,11,62,,,
74261,control_change,48,0,2,,,,,,,,,1,11,59,,,
74265,note_on,39,0,8,,,,,,,,,12,,,,57,0
74265,control_change,15,0,6,,,,,,,,,10,11,62,,,
74267,control_change,48,0,3,,,,,,,,,3,11,59,,,
74267,control_change,15,0,7,,,,,,,,,11,11,62,,,
74280,control_change,15,0,6,,,,,,,,,10,11,63,,,
74280,note_on,0,0,6,,,,,,,,,10,,,,79,90
74282,control_change,15,0,7,,,,,,,,,11,11,63,,,
74282,note_on,0,0,7,,,,,,,,,11,,,,67,88
74286,note_on,21,0,8,,,,,,,,,12,,,,57,108
74295,control_change,15,0,6,,,,,,,,,10,11,64,,,
74297,control_change,15,0,7,,,,,,,,,11,11,64,,,
74309,control_change,48,0,2,,,,,,,,,1,11,60,,,
74310,control_change,15,0,6,,,,,,,,,10,11,64,,,
74312,control_change,15,0,7,,,,,,,,,11,11,64,,,
74315,control_change,48,0,3,,,,,,,,,3,11,60,,,
74325,note_on,39,0,8,,,,,,,,,12,,,,57,0
74325,control_change,15,0,6,,,,,,,,,10,11,65,,,
74327,control_change,15,0,7,,,,,,,,,11,11,65,,,
74340,note_on,15,0,6,,,,,,,,,10,,,,79,0
74340,control_change,0,0,6,,,,,,,,,10,11,66,,,
74342,control_change,0,0,7,,,,,,,,,11,11,66,,,
74342,note_on,15,0,7,,,,,,,,,11,,,,67,0
74346,note_on,21,0,8,,,,,,,,,12,,,,57,99
74355,control_change,15,0,6,,,,,,,,,10,11,66,,,
74357,control_change,48,0,2,,,,,,,,,1,11,61,,,
74357,control_change,15,0,7,,,,,,,,,11,11,66,,,
74363,control_change,48,0,3,,,,,,,,,3,11,61,,,
74370,control_change,15,0,6,,,,,,,,,10,11,67,,,
74372,control_change,15,0,7,,,,,,,,,11,11,67,,,
74385,note_on,39,0,8,,,,,,,,,12,,,,57,0
74385,control_change,15,0,6,,,,,,,,,10,11,68,,,
74387,control_change,15,0,7,,,,,,,,,11,11,68,,,
74400,note_on,0,0,6,,,,,,,,,10,,,,79,90
74400,set_tempo,240,1,0,,,,,,272727,,,,,,,,
74400,control_change,15,0,6,,,,,,,,,10,11,68,,,
74402,control_change,15,0,7,,,,,,,,,11,11,68,,,
74402,note_on,0,0,7,,,,,,,,,11,,,,67,88
74403,control_change,600,0,1,,,,,,,,,0,11,68,,,
74403,note_on,0,0,1,,,,,,,,,0,,,,84,97
74405,control_change,48,0,2,,,,,,,,,1,11,62,,,
74406,note_on,21,0,8,,,,,,,,,12,,,,57,108
74411,control_change,48,0,3,,,,,,,,,3,11,62,,,
74421,control_change,18,0,1,,,,,,,,,0,11,68,,,
74424,control_change,24,0,6,,,,,,,,,10,11,67,,,
74426,control_change,24,0,7,,,,,,,,,11,11,67,,,
74439,control_change,18,0,1,,,,,,,,,0,11,67,,,
74445,note_on,39,0,8,,,,,,,,,12,,,,57,0
74448,control_change,24,0,6,,,,,,,,,10,11,66,,,
74450,control_change,24,0,7,,,,,,,,,11,11,66,,,
74453,control_change,48,0,2,,,,,,,,,1,11,61,,,
74457,control_change,18,0,1,,,,,,,,,0,11,66,,,
74459,control_change,48,0,3,,,,,,,,,3,11,61,,,
74466,note_on,21,0,8,,,,,,,,,12,,,,57,99
74472,control_change,24,0,6,,,,,,,,,10,11,64,,,
74474,control_change,24,0,7,,,,,,,,,11,11,64,,,
74475,control_change,18,0,1,,,,,,,,,0,11,66,,,
74493,control_change,18,0,1,,,,,,,,,0,11,65,,,
74496,control_change,24,0,6,,,,,,,,,10,11,63,,,
74498,control_change,24,0,7,,,,,,,,,11,11,63,,,
74501,control_change,48,0,2,,,,,,,,,1,11,60,,,
74505,note_on,39,0,8,,,,,,,,,12,,,,57,0
74507,control_change,48,0,3,,,,,,,,,3,11,60,,,
74511,control_change,18,0,1,,,,,,,,,0,11,64,,,
74520,control_change,24,0,6,,,,,,,,,10,11,68,,,
74522,control_change,24,0,7,,,,,,,,,11,11,62,,,
74526,note_on,21,0,8,,,,,,,,,12,,,,57,108
74529,control_change,18,0,1,,,,,,,,,0,11,64,,,
74544,control_change,24,0,6,,,,,,,,,10,11,66,,,
74546,control_change,24,0,7,,,,,,,,,11,11,60,,,
74547,control_change,18,0,1,,,,,,,,,0,11,63,,,
74549,control_change,48,0,2,,,,,,,,,1,11,59,,,
74555,control_change,48,0,3,,,,,,,,,3,11,59,,,
74565,note_on,39,0,8,,,,,,,,,12,,,,57,0
74565,control_change,18,0,1,,,,,,,,,0,11,62,,,
74568,control_change,24,0,6,,,,,,,,,10,11,63,,,
74570,control_change,24,0,7,,,,,,,,,11,11,58,,,
74583,control_change,18,0,1,,,,,,,,,0,11,62,,,
74586,note_on,21,0,8,,,,,,,,,12,,,,57,99
74592,control_change,24,0,6,,,,,,,,,10,11,60,,,
74594,control_change,24,0,7,,,,,,,,,11,11,55,,,
74597,control_change,48,0,2,,,,,,,,,1,11,58,,,
74601,control_change,18,0,1,,,,,,,,,0,11,61,,,
74603,control_change,48,0,3,,,,,,,,,3,11,58,,,
74616,control_change,24,0,6,,,,,,,,,10,11,55,,,
74618,control_change,24,0,7,,,,,,,,,11,11,52,,,
74619,control_change,18,0,1,,,,,,,,,0,11,60,,,
74625,note_on,39,0,8,,,,,,,,,12,,,,57,0
74628,control_change,12,0,6,,,,,,,,,10,11,52,,,
74637,control_change,18,0,1,,,,,,,,,0,11,59,,,
74640,set_tempo,240,1,0,,,,,,261438,,,,,,,,
74640,note_on,12,0,6,,,,,,,,,10,,,,79,0
74640,control_change,0,0,6,,,,,,,,,10,11,49,,,
74640,note_on,0,0,6,,,,,,,,,10,,,,78,90
74642,note_on,24,0,7,,,,,,,,,11,,,,67,0
74642,note_on,0,0,7,,,,,,,,,11,,,,66,88
74642,control_change,0,0,7,,,,,,,,,11,11,49,,,
74645,control_change,48,0,2,,,,,,,,,1,11,57,,,
74646,note_on,21,0,8,,,,,,,,,12,,,,57,108
74651,control_change,48,0,3,,,,,,,,,3,11,57,,,
74655,control_change,18,0,1,,,,,,,,,0,11,58,,,
74673,control_change,18,0,1,,,,,,,,,0,11,57,,,
74685,note_on,39,0,8,,,,,,,,,12,,,,57,0
74691,control_change,18,0,1,,,,,,,,,0,11,56,,,
74693,control_change,48,0,2,,,,,,,,,1,11,56,,,
74699,control_change,48,0,3,,,,,,,,,3,11,56,,,
74706,note_on,21,0,8,,,,,,,,,12,,,,57,99
74709,control_change,18,0,1,,,,,,,,,0,11,55,,,
74727,control_change,18,0,1,,,,,,,,,0,11,54,,,
74741,control_change,48,0,2,,,,,,,,,1,11,55,,,
74745,control_change,18,0,1,,,,,,,,,0,11,53,,,
74745,note_on,39,0,8,,,,,,,,,12,,,,57,0
74747,control_change,48,0,3,,,,,,,,,3,11,55,,,
74763,note_on,18,0,1,,,,,,,,,0,,,,84,0
74763,control_change,0,0,1,,,,,,,,,0,11,52,,,
74763,note_on,0,0,1,,,,,,,,,0,,,,82,97
74766,note_on,21,0,8,,,,,,,,,12,,,,57,108
74789,control_change,48,0,2,,,,,,,,,1,11,54,,,
74795,control_change,48,0,3,,,,,,,,,3,11,54,,,
74805,note_on,39,0,8,,,,,,,,,12,,,,57,0
74823,note_on,0,0,1,,,,,,,,,0,,,,81,97
74823,note_on,60,0,1,,,,,,,,,0,,,,82,0
74826,note_on,21,0,8,,,,,,,,,12,,,,57,99
74837,control_change,48,0,2,,,,,,,,,1,11,53,,,
74843,control_change,48,0,3,,,,,,,,,3,11,53,,,
74865,note_on,39,0,8,,,,,,,,,12,,,,57,0
74875,note_on,235,0,6,,,,,,,,,10,,,,78,0
74877,note_on,235,0,7,,,,,,,,,11,,,,66,0
74878,note_on,55,0,1,,,,,,,,,0,,,,81,0
74880,note_on,5,0,6,,,,,,,,,10,,,,77,90
74880,set_tempo,240,1,0,,,,,,272727,,,,,,,,
74882,note_on,5,0,7,,,,,,,,,11,,,,65,88
74883,note_on,5,0,1,,,,,,,,,0,,,,82,97
74885,note_on,0,0,2,,,,,,,,,1,,,,72,0
74885,note_on,48,0,2,,,,,,,,,1,,,,69,0
74885,note_on,0,0,2,,,,,,,,,1,,,,70,97
74885,control_change,0,0,2,,,,,,,,,1,11,52,,,
74885,note_on,0,0,2,,,,,,,,,1,,,,77,97
74886,note_on,21,0,8,,,,,,,,,12,,,,58,108
74890,note_on,960,0,9,,,,,,,,,13,,,,51,0
74890,note_on,0,0,9,,,,,,,,,13,,,,50,99
74891,note_on,48,0,3,,,,,,,,,3,,,,51,0
74891,control_change,0,0,3,,,,,,,,,3,11,52,,,
74891,note_on,0,0,3,,,,,,,,,3,,,,50,97
74892,note_on,960,0,10,,,,,,,,,14,,,,39,0
74892,note_on,0,0,10,,,,,,,,,14,,,,38,93
74925,note_on,39,0,8,,,,,,,,,12,,,,58,0
74946,note_on,21,0,8,,,,,,,,,12,,,,58,99
74985,note_on,39,0,8,,,,,,,,,12,,,,58,0
75006,note_on,21,0,8,,,,,,,,,12,,,,58,108
75045,note_on,39,0,8,,,,,,,,,12,,,,58,0
75066,note_on,21,0,8,,,,,,,,,12,,,,58,99
75105,note_on,39,0,8,,,,,,,,,12,,,,58,0
75120,set_tempo,240,1,0,,,,,,261438,,,,,,,,
75122,note_on,0,0,7,,,,,,,,,11,,,,69,88
75122,note_on,240,0,7,,,,,,,,,11,,,,65,0
75123,note_on,0,0,1,,,,,,,,,0,,,,81,97
75123,note_on,240,0,1,,,,,,,,,0,,,,82,0
75125,note_on,0,0,2,,,,,,,,,1,,,,69,97
75125,note_on,240,0,2,,,,,,,,,1,,,,70,0
75126,note_on,21,0,8,,,,,,,,,12,,,,65,108
75130,note_on,0,0,9,,,,,,,,,13,,,,51,99
75130,note_on,240,0,9,,,,,,,,,13,,,,50,0
75131,note_on,0,0,3,,,,,,,,,3,,,,51,97
75131,note_on,240,0,3,,,,,,,,,3,,,,50,0
75132,note_on,240,0,10,,,,,,,,,14,,,,38,0
75132,note_on,0,0,10,,,,,,,,,14,,,,39,93
75180,note_on,300,0,6,,,,,,,,,10,,,,77,0
75180,note_on,0,0,6,,,,,,,,,10,,,,75,90
75182,note_on,60,0,7,,,,,,,,,11,,,,69,0
75182,note_on,0,0,7,,,,,,,,,11,,,,67,88
75183,note_on,0,0,1,,,,,,,,,0,,,,79,97
75183,note_on,60,0,1,,,,,,,,,0,,,,81,0
75185,note_on,0,0,2,,,,,,,,,1,,,,77,0
75185,note_on,60,0,2,,,,,,,,,1,,,,69,0
75185,note_on,0,0,2,,,,,,,,,1,,,,67,97
75185,note_on,0,0,2,,,,,,,,,1,,,,75,97
75186,note_on,60,0,8,,,,,,,,,12,,,,65,0
75186,note_on,0,0,8,,,,,,,,,12,,,,63,108
75240,note_on,0,0,6,,,,,,,,,10,,,,74,90
75240,note_on,60,0,6,,,,,,,,,10,,,,75,0
75242,note_on,60,0,7,,,,,,,,,11,,,,67,0
75242,note_on,0,0,7,,,,,,,,,11,,,,65,88
75243,note_on,0,0,1,,,,,,,,,0,,,,77,97
75243,note_on,60,0,1,,,,,,,,,0,,,,79,0
75245,note_on,0,0,2,,,,,,,,,1,,,,74,97
75245,note_on,0,0,2,,,,,,,,,1,,,,65,97
75245,note_on,0,0,2,,,,,,,,,1,,,,75,0
75245,note_on,60,0,2,,,,,,,,,1,,,,67,0
75246,note_on,0,0,8,,,,,,,,,12,,,,62,108
75246,note_on,60,0,8,,,,,,,,,12,,,,63,0
75300,note_on,0,0,6,,,,,,,,,10,,,,72,90
75300,note_on,60,0,6,,,,,,,,,10,,,,74,0
75302,note_on,60,0,7,,,,,,,,,11,,,,65,0
75302,note_on,0,0,7,,,,,,,,,11,,,,63,88
75303,note_on,0,0,1,,,,,,,,,0,,,,75,97
75303,note_on,60,0,1,,,,,,,,,0,,,,77,0
75305,note_on,60,0,2,,,,,,,,,1,,,,74,0
75305,note_on,0,0,2,,,,,,,,,1,,,,65,0
75305,note_on,0,0,2,,,,,,,,,1,,,,72,97
75305,note_on,0,0,2,,,,,,,,,1,,,,63,97
75306,note_on,0,0,8,,,,,,,,,12,,,,60,108
75306,note_on,60,0,8,,,,,,,,,12,,,,62,0
75339,note_on,39,0,6,,,,,,,,,10,,,,72,0
75341,note_on,39,0,7,,,,,,,,,11,,,,63,0
75345,note_on,39,0,8,,,,,,,,,12,,,,60,0
75358,note_on,55,0,1,,,,,,,,,0,,,,75,0
75360,note_on,21,0,6,,,,,,,,,10,,,,70,90
75360,set_tempo,240,1,0,,,,,,272727,,,,,,,,
75360,note_on,0,0,2,,,,,,,,,1,,,,72,0
75360,note_on,55,0,2,,,,,,,,,1,,,,63,0
75362,note_on,21,0,7,,,,,,,,,11,,,,62,88
75363,note_on,5,0,1,,,,,,,,,0,,,,74,97
75365,note_on,0,0,2,,,,,,,,,1,,,,70,97
75365,note_on,5,0,2,,,,,,,,,1,,,,62,97
75366,note_on,21,0,8,,,,,,,,,12,,,,58,108
75370,note_on,0,0,9,,,,,,,,,13,,,,53,99
75370,note_on,240,0,9,,,,,,,,,13,,,,51,0
75371,note_on,240,0,3,,,,,,,,,3,,,,51,0
75371,note_on,0,0,3,,,,,,,,,3,,,,53,97
75372,note_on,0,0,10,,,,,,,,,14,,,,41,93
75372,note_on,240,0,10,,,,,,,,,14,,,,39,0
75600,control_change,0,0,6,,,,,,,,,10,11,49,,,
75600,note_on,0,0,6,,,,,,,,,10,,,,69,79
75600,set_tempo,240,1,0,,,,,,261438,,,,,,,,
75600,note_on,240,0,6,,,,,,,,,10,,,,70,0
75602,note_on,0,0,7,,,,,,,,,11,,,,60,77
75602,control_change,0,0,7,,,,,,,,,11,11,49,,,
75602,note_on,240,0,7,,,,,,,,,11,,,,62,0
75603,note_on,0,0,1,,,,,,,,,0,,,,72,84
75603,note_on,240,0,1,,,,,,,,,0,,,,74,0
75605,note_on,0,0,2,,,,,,,,,1,,,,69,84
75605,note_on,240,0,2,,,,,,,,,1,,,,70,0
75605,note_on,0,0,2,,,,,,,,,1,,,,60,84
75605,note_on,0,0,2,,,,,,,,,1,,,,62,0
75606,note_on,0,0,8,,,,,,,,,12,,,,57,95
75606,note_on,240,0,8,,,,,,,,,12,,,,58,0
75610,note_on,240,0,9,,,,,,,,,13,,,,53,0
75610,note_on,0,0,9,,,,,,,,,13,,,,41,86
75612,note_on,240,0,10,,,,,,,,,14,,,,41,0
75612,note_on,0,0,10,,,,,,,,,14,,,,29,80
75613,control_change,7,0,8,,,,,,,,,12,11,49,,,
75617,control_change,7,0,9,,,,,,,,,13,11,49,,,
75617,control_change,17,0,6,,,,,,,,,10,11,47,,,
75619,control_change,17,0,7,,,,,,,,,11,11,47,,,
75619,control_change,7,0,10,,,,,,,,,14,11,49,,,
75628,control_change,15,0,8,,,,,,,,,12,11,46,,,
75632,control_change,15,0,9,,,,,,,,,13,11,46,,,
75632,control_change,15,0,6,,,,,,,,,10,11,44,,,
75634,control_change,15,0,7,,,,,,,,,11,11,44,,,
75634,control_change,15,0,10,,,,,,,,,14,11,46,,,
75643,control_change,15,0,8,,,,,,,,,12,11,43,,,
75647,control_change,15,0,9,,,,,,,,,13,11,43,,,
75647,control_change,15,0,6,,,,,,,,,10,11,41,,,
75649,control_change,15,0,7,,,,,,,,,11,11,41,,,
75649,control_change,15,0,10,,,,,,,,,14,11,43,,,
75658,control_change,15,0,8,,,,,,,,,12,11,40,,,
75662,control_change,15,0,9,,,,,,,,,13,11,40,,,
75663,control_change,16,0,6,,,,,,,,,10,11,38,,,
75664,control_change,15,0,10,,,,,,,,,14,11,40,,,
75665,control_change,16,0,7,,,,,,,,,11,11,38,,,
75674,control_change,16,0,8,,,,,,,,,12,11,37,,,
75678,control_change,15,0,6,,,,,,,,,10,11,35,,,
75678,control_change,16,0,9,,,,,,,,,13,11,37,,,
75680,control_change,16,0,10,,,,,,,,,14,11,37,,,
75680,control_change,15,0,7,,,,,,,,,11,11,35,,,
75689,control_change,15,0,8,,,,,,,,,12,11,34,,,
75693,control_change,15,0,6,,,,,,,,,10,11,32,,,
75693,control_change,15,0,9,,,,,,,,,13,11,34,,,
75695,control_change,15,0,10,,,,,,,,,14,11,34,,,
75695,control_change,15,0,7,,,,,,,,,11,11,32,,,
75704,control_change,15,0,8,,,,,,,,,12,11,31,,,
75708,control_change,15,0,6,,,,,,,,,10,11,29,,,
75708,control_change,15,0,9,,,,,,,,,13,11,31,,,
75710,control_change,15,0,10,,,,,,,,,14,11,31,,,
75710,control_change,15,0,7,,,,,,,,,11,11,29,,,
75719,control_change,15,0,8,,,,,,,,,12,11,28,,,
75720,note_on,12,0,6,,,,,,,,,10,,,,69,0
75722,note_on,12,0,7,,,,,,,,,11,,,,60,0
75723,control_change,15,0,9,,,,,,,,,13,11,28,,,
75725,control_change,15,0,10,,,,,,,,,14,11,28,,,
75838,note_on,235,0,1,,,,,,,,,0,,,,72,0
75840,set_tempo,240,1,0,,,,,,272727,,,,,,,,
75840,control_change,120,0,6,,,,,,,,,10,11,65,,,
75840,note_on,0,0,6,,,,,,,,,10,,,,70,110
75840,note_on,0,0,2,,,,,,,,,1,,,,69,0
75840,note_on,235,0,2,,,,,,,,,1,,,,60,0
75842,note_on,0,0,7,,,,,,,,,11,,,,62,110
75842,note_on,0,0,7,,,,,,,,,11,,,,70,110
75842,control_change,120,0,7,,,,,,,,,11,11,65,,,
75843,note_on,0,0,1,,,,,,,,,0,,,,70,97
75843,control_change,5,0,1,,,,,,,,,0,11,79,,,
75844,note_on,0,0,4,,,,,,,,,4,,,,58,88
75844,control_change,7440,0,4,,,,,,,,,4,11,79,,,
75845,control_change,5,0,2,,,,,,,,,1,11,79,,,
75845,note_on,0,0,2,,,,,,,,,1,,,,70,97
75846,control_change,0,0,8,,,,,,,,,12,11,65,,,
75846,control_change,7440,0,5,,,,,,,,,5,11,79,,,
75846,note_on,127,0,8,,,,,,,,,12,,,,57,0
75846,note_on,0,0,5,,,,,,,,,5,,,,50,88
75846,note_on,0,0,8,,,,,,,,,12,,,,58,108
75850,note_on,0,0,9,,,,,,,,,13,,,,46,99
75850,control_change,0,0,9,,,,,,,,,13,11,65,,,
75850,note_on,127,0,9,,,,,,,,,13,,,,41,0
75851,note_on,480,0,3,,,,,,,,,3,,,,53,0
75851,note_on,0,0,3,,,,,,,,,3,,,,58,97
75851,note_on,0,0,3,,,,,,,,,3,,,,46,97
75851,control_change,0,0,3,,,,,,,,,3,11,79,,,
75852,note_on,0,0,10,,,,,,,,,14,,,,34,93
75852,control_change,0,0,10,,,,,,,,,14,11,65,,,
75852,note_on,127,0,10,,,,,,,,,14,,,,29,0
75858,control_change,18,0,6,,,,,,,,,10,11,69,,,
75860,control_change,18,0,7,,,,,,,,,11,11,69,,,
75864,control_change,18,0,8,,,,,,,,,12,11,69,,,
75868,control_change,18,0,9,,,,,,,,,13,11,69,,,
75870,control_change,18,0,10,,,,,,,,,14,11,69,,,
75876,control_change,18,0,6,,,,,,,,,10,11,73,,,
75878,control_change,18,0,7,,,,,,,,,11,11,73,,,
75881,note_on,0,0,7,,,,,,,,,11,,,,70,0
75881,note_on,3,0,7,,,,,,,,,11,,,,62,0
75882,control_change,18,0,8,,,,,,,,,12,11,73,,,
75885,note_on,3,0,8,,,,,,,,,12,,,,58,0
75886,control_change,18,0,9,,,,,,,,,13,11,73,,,
75888,control_change,18,0,10,,,,,,,,,14,11,73,,,
75889,note_on,3,0,9,,,,,,,,,13,,,,46,0
75891,note_on,3,0,10,,,,,,,,,14,,,,34,0
75894,control_change,18,0,6,,,,,,,,,10,11,77,,,
75896,control_change,15,0,7,,,,,,,,,11,11,77,,,
75900,control_change,15,0,8,,,,,,,,,12,11,77,,,
75902,note_on,6,0,7,,,,,,,,,11,,,,62,101
75902,note_on,0,0,7,,,,,,,,,11,,,,70,101
75904,control_change,15,0,9,,,,,,,,,13,11,77,,,
75906,control_change,15,0,10,,,,,,,,,14,11,77,,,
75906,note_on,6,0,8,,,,,,,,,12,,,,58,99
75910,note_on,6,0,9,,,,,,,,,13,,,,46,90
75912,note_on,6,0,10,,,,,,,,,14,,,,34,84
75941,note_on,39,0,7,,,,,,,,,11,,,,70,0
75941,note_on,0,0,7,,,,,,,,,11,,,,62,0
75945,note_on,39,0,8,,,,,,,,,12,,,,58,0
75949,note_on,39,0,9,,,,,,,,,13,,,,46,0
75951,note_on,39,0,10,,,,,,,,,14,,,,34,0
75962,note_on,21,0,7,,,,,,,,,11,,,,62,110
75962,note_on,0,0,7,,,,,,,,,11,,,,70,110
75966,note_on,21,0,8,,,,,,,,,12,,,,58,108
75970,note_on,21,0,9,,,,,,,,,13,,,,46,99
75972,note_on,21,0,10,,,,,,,,,14,,,,34,93
76001,note_on,0,0,7,,,,,,,,,11,,,,62,0
76001,note_on,39,0,7,,,,,,,,,11,,,,70,0
76005,note_on,39,0,8,,,,,,,,,12,,,,58,0
76009,note_on,39,0,9,,,,,,,,,13,,,,46,0
76011,note_on,39,0,10,,,,,,,,,14,,,,34,0
76015,note_on,121,0,6,,,,,,,,,10,,,,70,0
76018,note_on,175,0,1,,,,,,,,,0,,,,70,0
76020,note_on,5,0,6,,,,,,,,,10,,,,74,110
76020,note_on,175,0,2,,,,,,,,,1,,,,70,0
76022,note_on,0,0,7,,,,,,,,,11,,,,70,101
76022,note_on,21,0,7,,,,,,,,,11,,,,62,101
76023,note_on,5,0,1,,,,,,,,,0,,,,74,97
76025,note_on,5,0,2,,,,,,,,,1,,,,74,97
76026,note_on,21,0,8,,,,,,,,,12,,,,58,99
76030,note_on,21,0,9,,,,,,,,,13,,,,46,90
76032,note_on,21,0,10,,,,,,,,,14,,,,34,84
76059,note_on,39,0,6,,,,,,,,,10,,,,74,0
76061,note_on,39,0,7,,,,,,,,,11,,,,70,0
76061,note_on,0,0,7,,,,,,,,,11,,,,62,0
76065,note_on,39,0,8,,,,,,,,,12,,,,58,0
76069,note_on,39,0,9,,,,,,,,,13,,,,46,0
76071,note_on,39,0,10,,,,,,,,,14,,,,34,0
76078,note_on,55,0,1,,,,,,,,,0,,,,74,0
76080,note_on,55,0,2,,,,,,,,,1,,,,74,0
76080,set_tempo,240,1,0,,,,,,261438,,,,,,,,
76080,note_on,21,0,6,,,,,,,,,10,,,,77,110
76082,note_on,21,0,7,,,,,,,,,11,,,,62,110
76082,note_on,0,0,7,,,,,,,,,11,,,,70,110
76083,note_on,5,0,1,,,,,,,,,0,,,,77,97
76085,note_on,5,0,2,,,,,,,,,1,,,,77,97
76086,note_on,21,0,8,,,,,,,,,12,,,,58,108
76090,note_on,21,0,9,,,,,,,,,13,,,,46,99
76092,note_on,21,0,10,,,,,,,,,14,,,,34,93
76121,note_on,39,0,7,,,,,,,,,11,,,,70,0
76121,note_on,0,0,7,,,,,,,,,11,,,,62,0
76125,note_on,39,0,8,,,,,,,,,12,,,,58,0
76129,note_on,39,0,9,,,,,,,,,13,,,,46,0
76131,note_on,39,0,10,,,,,,,,,14,,,,34,0
76140,note_on,60,0,6,,,,,,,,,10,,,,77,0
76142,note_on,0,0,7,,,,,,,,,11,,,,62,101
76142,note_on,21,0,7,,,,,,,,,11,,,,70,101
76143,note_on,60,0,1,,,,,,,,,0,,,,77,0
76145,note_on,60,0,2,,,,,,,,,1,,,,77,0
76146,note_on,21,0,8,,,,,,,,,12,,,,58,99
76150,note_on,21,0,9,,,,,,,,,13,,,,46,90
76152,note_on,21,0,10,,,,,,,,,14,,,,34,84
76181,note_on,0,0,7,,,,,,,,,11,,,,70,0
76181,note_on,39,0,7,,,,,,,,,11,,,,62,0
76185,note_on,39,0,8,,,,,,,,,12,,,,58,0
76189,note_on,39,0,9,,,,,,,,,13,,,,46,0
76191,note_on,39,0,10,,,,,,,,,14,,,,34,0
76200,note_on,60,0,6,,,,,,,,,10,,,,81,110
76202,note_on,21,0,7,,,,,,,,,11,,,,69,110
76203,note_on,60,0,1,,,,,,,,,0,,,,81,97
76204,note_on,360,0,4,,,,,,,,,4,,,,58,0
76205,note_on,60,0,2,,,,,,,,,1,,,,69,97
76205,note_on,0,0,2,,,,,,,,,1,,,,73,97
76206,note_on,21,0,8,,,,,,,,,12,,,,61,108
76206,note_on,360,0,5,,,,,,,,,5,,,,50,0
76210,note_on,21,0,9,,,,,,,,,13,,,,46,99
76212,note_on,21,0,10,,,,,,,,,14,,,,34,93
76241,note_on,39,0,7,,,,,,,,,11,,,,69,0
76245,note_on,39,0,8,,,,,,,,,12,,,,61,0
76249,note_on,39,0,9,,,,,,,,,13,,,,46,0
76251,note_on,39,0,10,,,,,,,,,14,,,,34,0
76260,note_on,60,0,6,,,,,,,,,10,,,,81,0
76262,note_on,21,0,7,,,,,,,,,11,,,,69,101
76263,note_on,60,0,1,,,,,,,,,0,,,,81,0
76265,note_on,60,0,2,,,,,,,,,1,,,,73,0
76265,note_on,0,0,2,,,,,,,,,1,,,,69,0
76266,note_on,21,0,8,,,,,,,,,12,,,,61,99
76270,note_on,21,0,9,,,,,,,,,13,,,,46,90
76272,note_on,21,0,10,,,,,,,,,14,,,,34,84
76301,note_on,39,0,7,,,,,,,,,11,,,,69,0
76305,note_on,39,0,8,,,,,,,,,12,,,,61,0
76309,note_on,39,0,9,,,,,,,,,13,,,,46,0
76311,note_on,39,0,10,,,,,,,,,14,,,,34,0
76320,set_tempo,240,1,0,,,,,,272727,,,,,,,,
76320,note_on,60,0,6,,,,,,,,,10,,,,82,110
76322,note_on,21,0,7,,,,,,,,,11,,,,70,110
76323,note_on,60,0,1,,,,,,,,,0,,,,82,97
76325,note_on,0,0,2,,,,,,,,,1,,,,70,97
76325,note_on,60,0,2,,,,,,,,,1,,,,74,97
76326,note_on,21,0,8,,,,,,,,,12,,,,62,108
76330,note_on,21,0,9,,,,,,,,,13,,,,46,99
76332,note_on,21,0,10,,,,,,,,,14,,,,34,93
76361,note_on,39,0,7,,,,,,,,,11,,,,70,0
76365,note_on,39,0,8,,,,,,,,,12,,,,62,0
76369,note_on,39,0,9,,,,,,,,,13,,,,46,0
76371,note_on,39,0,10,,,,,,,,,14,,,,34,0
76380,note_on,60,0,6,,,,,,,,,10,,,,82,0
76382,note_on,21,0,7,,,,,,,,,11,,,,70,101
76383,note_on,60,0,1,,,,,,,,,0,,,,82,0
76385,note_on,60,0,2,,,,,,,,,1,,,,70,0
76385,note_on,0,0,2,,,,,,,,,1,,,,74,0
76386,note_on,21,0,8,,,,,,,,,12,,,,62,99
76390,note_on,21,0,9,,,,,,,,,13,,,,46,90
76392,note_on,21,0,10,,,,,,,,,14,,,,34,84
76421,note_on,39,0,7,,,,,,,,,11,,,,70,0
76425,note_on,39,0,8,,,,,,,,,12,,,,62,0
76429,note_on,39,0,9,,,,,,,,,13,,,,46,0
76431,note_on,39,0,10,,,,,,,,,14,,,,34,0
76440,note_on,60,0,6,,,,,,,,,10,,,,85,110
76442,note_on,21,0,7,,,,,,,,,11,,,,73,110
76443,note_on,60,0,1,,,,,,,,,0,,,,85,97
76445,note_on,60,0,2,,,,,,,,,1,,,,73,97
76445,note_on,0,0,2,,,,,,,,,1,,,,76,97
76446,note_on,21,0,8,,,,,,,,,12,,,,64,108
76450,note_on,21,0,9,,,,,,,,,13,,,,46,99
76452,note_on,21,0,10,,,,,,,,,14,,,,34,93
76481,note_on,39,0,7,,,,,,,,,11,,,,73,0
76485,note_on,39,0,8,,,,,,,,,12,,,,64,0
76489,note_on,39,0,9,,,,,,,,,13,,,,46,0
76491,note_on,39,0,10,,,,,,,,,14,,,,34,0
76500,note_on,60,0,6,,,,,,,,,10,,,,85,0
76502,note_on,21,0,7,,,,,,,,,11,,,,73,101
76503,note_on,60,0,1,,,,,,,,,0,,,,85,0
76505,note_on,0,0,2,,,,,,,,,1,,,,73,0
76505,note_on,60,0,2,,,,,,,,,1,,,,76,0
76506,note_on,21,0,8,,,,,,,,,12,,,,64,99
76510,note_on,21,0,9,,,,,,,,,13,,,,46,90
76512,note_on,21,0,10,,,,,,,,,14,,,,34,84
76541,note_on,39,0,7,,,,,,,,,11,,,,73,0
76545,note_on,39,0,8,,,,,,,,,12,,,,64,0
76549,note_on,39,0,9,,,,,,,,,13,,,,46,0
76551,note_on,39,0,10,,,,,,,,,14,,,,34,0
76560,note_on,60,0,6,,,,,,,,,10,,,,86,110
76560,set_tempo,240,1,0,,,,,,261438,,,,,,,,
76562,note_on,21,0,7,,,,,,,,,11,,,,74,110
76563,note_on,60,0,1,,,,,,,,,0,,,,86,97
76565,note_on,60,0,2,,,,,,,,,1,,,,77,97
76565,note_on,0,0,2,,,,,,,,,1,,,,74,97
76566,note_on,21,0,8,,,,,,,,,12,,,,65,108
76570,note_on,21,0,9,,,,,,,,,13,,,,46,99
76572,note_on,21,0,10,,,,,,,,,14,,,,34,93
76601,note_on,39,0,7,,,,,,,,,11,,,,74,0
76605,note_on,39,0,8,,,,,,,,,12,,,,65,0
76609,note_on,39,0,9,,,,,,,,,13,,,,46,0
76611,note_on,39,0,10,,,,,,,,,14,,,,34,0
76620,note_on,60,0,6,,,,,,,,,10,,,,86,0
76622,note_on,21,0,7,,,,,,,,,11,,,,74,101
76623,note_on,60,0,1,,,,,,,,,0,,,,86,0
76625,note_on,60,0,2,,,,,,,,,1,,,,74,0
76625,note_on,0,0,2,,,,,,,,,1,,,,77,0
76626,note_on,21,0,8,,,,,,,,,12,,,,65,99
76630,note_on,21,0,9,,,,,,,,,13,,,,46,90
76632,note_on,21,0,10,,,,,,,,,14,,,,34,84
76661,note_on,39,0,7,,,,,,,,,11,,,,74,0
76665,note_on,39,0,8,,,,,,,,,12,,,,65,0
76669,note_on,39,0,9,,,,,,,,,13,,,,46,0
76671,note_on,39,0,10,,,,,,,,,14,,,,34,0
76680,note_on,60,0,6,,,,,,,,,10,,,,88,110
76682,note_on,0,0,7,,,,,,,,,11,,,,73,110
76682,note_on,21,0,7,,,,,,,,,11,,,,76,110
76683,note_on,60,0,1,,,,,,,,,0,,,,88,97
76685,note_on,60,0,2,,,,,,,,,1,,,,76,97
76685,note_on,0,0,2,,,,,,,,,1,,,,73,97
76686,note_on,21,0,8,,,,,,,,,12,,,,70,108
76690,note_on,21,0,9,,,,,,,,,13,,,,46,99
76692,note_on,21,0,10,,,,,,,,,14,,,,34,93
76721,note_on,39,0,7,,,,,,,,,11,,,,73,0
76721,note_on,0,0,7,,,,,,,,,11,,,,76,0
76725,note_on,39,0,8,,,,,,,,,12,,,,70,0
76729,note_on,39,0,9,,,,,,,,,13,,,,46,0
76731,note_on,39,0,10,,,,,,,,,14,,,,34,0
76740,note_on,60,0,6,,,,,,,,,10,,,,88,0
76742,note_on,21,0,7,,,,,,,,,11,,,,76,101
76742,note_on,0,0,7,,,,,,,,,11,,,,73,101
76743,note_on,60,0,1,,,,,,,,,0,,,,88,0
76745,note_on,60,0,2,,,,,,,,,1,,,,73,0
76745,note_on,0,0,2,,,,,,,,,1,,,,76,0
76746,note_on,21,0,8,,,,,,,,,12,,,,70,99
76750,note_on,21,0,9,,,,,,,,,13,,,,46,90
76752,note_on,21,0,10,,,,,,,,,14,,,,34,84
76781,note_on,0,0,7,,,,,,,,,11,,,,76,0
76781,note_on,39,0,7,,,,,,,,,11,,,,73,0
76785,note_on,39,0,8,,,,,,,,,12,,,,70,0
76789,note_on,39,0,9,,,,,,,,,13,,,,46,0
76791,note_on,39,0,10,,,,,,,,,14,,,,34,0
76800,note_on,60,0,6,,,,,,,,,10,,,,89,110
76800,set_tempo,240,1,0,,,,,,272727,,,,,,,,
76802,note_on,0,0,7,,,,,,,,,11,,,,74,110
76802,note_on,21,0,7,,,,,,,,,11,,,,77,110
76803,note_on,60,0,1,,,,,,,,,0,,,,89,110
76804,note_on,600,0,4,,,,,,,,,4,,,,65,100
76805,note_on,0,0,2,,,,,,,,,1,,,,74,110
76805,note_on,60,0,2,,,,,,,,,1,,,,77,110
76806,note_on,21,0,8,,,,,,,,,12,,,,58,108
76806,note_on,600,0,5,,,,,,,,,5,,,,62,100
76810,note_on,21,0,9,,,,,,,,,13,,,,46,99
76811,note_on,0,0,3,,,,,,,,,3,,,,46,0
76811,note_on,0,0,3,,,,,,,,,3,,,,46,97
76811,note_on,960,0,3,,,,,,,,,3,,,,58,0
76812,note_on,21,0,10,,,,,,,,,14,,,,34,93
76839,note_on,39,0,6,,,,,,,,,10,,,,89,0
76841,note_on,0,0,7,,,,,,,,,11,,,,77,0
76841,note_on,39,0,7,,,,,,,,,11,,,,74,0
76860,note_on,21,0,6,,,,,,,,,10,,,,89,101
76862,note_on,0,0,7,,,,,,,,,11,,,,77,101
76862,note_on,21,0,7,,,,,,,,,11,,,,74,101
76899,note_on,39,0,6,,,,,,,,,10,,,,89,0
76901,note_on,39,0,7,,,,,,,,,11,,,,77,0
76901,note_on,0,0,7,,,,,,,,,11,,,,74,0
76920,note_on,21,0,6,,,,,,,,,10,,,,89,110
76922,note_on,21,0,7,,,,,,,,,11,,,,77,110
76922,note_on,0,0,7,,,,,,,,,11,,,,74,110
76959,note_on,39,0,6,,,,,,,,,10,,,,89,0
76961,note_on,0,0,7,,,,,,,,,11,,,,77,0
76961,note_on,39,0,7,,,,,,,,,11,,,,74,0
76980,note_on,21,0,6,,,,,,,,,10,,,,89,101
76981,note_on,175,0,8,,,,,,,,,12,,,,58,0
76982,note_on,21,0,7,,,,,,,,,11,,,,77,101
76982,note_on,0,0,7,,,,,,,,,11,,,,74,101
76985,note_on,175,0,9,,,,,,,,,13,,,,46,0
76986,note_on,175,0,3,,,,,,,,,3,,,,46,0
76986,note_on,5,0,8,,,,,,,,,12,,,,62,108
76987,note_on,175,0,10,,,,,,,,,14,,,,34,0
76990,note_on,5,0,9,,,,,,,,,13,,,,50,99
76991,note_on,5,0,3,,,,,,,,,3,,,,50,97
76992,note_on,5,0,10,,,,,,,,,14,,,,38,93
77019,note_on,39,0,6,,,,,,,,,10,,,,89,0
77021,note_on,39,0,7,,,,,,,,,11,,,,74,0
77021,note_on,0,0,7,,,,,,,,,11,,,,77,0
77025,note_on,39,0,8,,,,,,,,,12,,,,62,0
77029,note_on,39,0,9,,,,,,,,,13,,,,50,0
77031,note_on,39,0,10,,,,,,,,,14,,,,38,0
77040,set_tempo,240,1,0,,,,,,261438,,,,,,,,
77040,note_on,21,0,6,,,,,,,,,10,,,,89,110
77042,note_on,0,0,7,,,,,,,,,11,,,,74,110
77042,note_on,21,0,7,,,,,,,,,11,,,,77,110
77046,note_on,21,0,8,,,,,,,,,12,,,,65,108
77046,note_on,55,0,3,,,,,,,,,3,,,,50,0
77050,note_on,21,0,9,,,,,,,,,13,,,,53,99
77051,note_on,5,0,3,,,,,,,,,3,,,,53,97
77052,note_on,21,0,10,,,,,,,,,14,,,,41,93
77079,note_on,39,0,6,,,,,,,,,10,,,,89,0
77081,note_on,0,0,7,,,,,,,,,11,,,,77,0
77081,note_on,39,0,7,,,,,,,,,11,,,,74,0
77100,note_on,21,0,6,,,,,,,,,10,,,,89,101
77102,note_on,0,0,7,,,,,,,,,11,,,,74,101
77102,note_on,21,0,7,,,,,,,,,11,,,,77,101
77106,note_on,60,0,8,,,,,,,,,12,,,,65,0
77110,note_on,60,0,9,,,,,,,,,13,,,,53,0
77111,note_on,60,0,3,,,,,,,,,3,,,,53,0
77112,note_on,60,0,10,,,,,,,,,14,,,,41,0
77139,note_on,39,0,6,,,,,,,,,10,,,,89,0
77141,note_on,39,0,7,,,,,,,,,11,,,,74,0
77141,note_on,0,0,7,,,,,,,,,11,,,,77,0
77160,note_on,21,0,6,,,,,,,,,10,,,,89,110
77162,note_on,0,0,7,,,,,,,,,11,,,,77,110
77162,note_on,21,0,7,,,,,,,,,11,,,,74,110
77166,note_on,60,0,8,,,,,,,,,12,,,,69,108
77170,note_on,60,0,9,,,,,,,,,13,,,,57,99
77171,note_on,60,0,3,,,,,,,,,3,,,,57,97
77172,note_on,60,0,10,,,,,,,,,14,,,,45,93
77199,note_on,39,0,6,,,,,,,,,10,,,,89,0
77201,note_on,0,0,7,,,,,,,,,11,,,,74,0
77201,note_on,39,0,7,,,,,,,,,11,,,,77,0
77220,note_on,21,0,6,,,,,,,,,10,,,,89,101
77222,note_on,0,0,7,,,,,,,,,11,,,,74,101
77222,note_on,21,0,7,,,,,,,,,11,,,,77,101
77226,note_on,60,0,8,,,,,,,,,12,,,,69,0
77230,note_on,60,0,9,,,,,,,,,13,,,,57,0
77231,note_on,60,0,3,,,,,,,,,3,,,,57,0
77232,note_on,60,0,10,,,,,,,,,14,,,,45,0
77259,note_on,39,0,6,,,,,,,,,10,,,,89,0
77261,note_on,39,0,7,,,,,,,,,11,,,,74,0
77261,note_on,0,0,7,,,,,,,,,11,,,,77,0
77280,set_tempo,240,1,0,,,,,,272727,,,,,,,,
77280,note_on,21,0,6,,,,,,,,,10,,,,89,110
77282,note_on,0,0,7,,,,,,,,,11,,,,74,110
77282,note_on,21,0,7,,,,,,,,,11,,,,77,110
77286,note_on,60,0,8,,,,,,,,,12,,,,70,108
77290,note_on,60,0,9,,,,,,,,,13,,,,58,99
77291,note_on,60,0,3,,,,,,,,,3,,,,58,97
77292,note_on,60,0,10,,,,,,,,,14,,,,46,93
77319,note_on,39,0,6,,,,,,,,,10,,,,89,0
77321,note_on,39,0,7,,,,,,,,,11,,,,74,0
77321,note_on,0,0,7,,,,,,,,,11,,,,77,0
77340,note_on,21,0,6,,,,,,,,,10,,,,89,101
77342,note_on,21,0,7,,,,,,,,,11,,,,77,101
77342,note_on,0,0,7,,,,,,,,,11,,,,74,101
77346,note_on,60,0,8,,,,,,,,,12,,,,70,0
77350,note_on,60,0,9,,,,,,,,,13,,,,58,0
77351,note_on,60,0,3,,,,,,,,,3,,,,58,0
77352,note_on,60,0,10,,,,,,,,,14,,,,46,0
77379,note_on,39,0,6,,,,,,,,,10,,,,89,0
77381,note_on,0,0,7,,,,,,,,,11,,,,77,0
77381,note_on,39,0,7,,,,,,,,,11,,,,74,0
77400,note_on,21,0,6,,,,,,,,,10,,,,89,110
77402,note_on,21,0,7,,,,,,,,,11,,,,74,110
77402,note_on,0,0,7,,,,,,,,,11,,,,77,110
77406,note_on,60,0,8,,,,,,,,,12,,,,73,108
77410,note_on,60,0,9,,,,,,,,,13,,,,61,99
77411,note_on,60,0,3,,,,,,,,,3,,,,61,97
77412,note_on,60,0,10,,,,,,,,,14,,,,49,93
77439,note_on,39,0,6,,,,,,,,,10,,,,89,0
77441,note_on,39,0,7,,,,,,,,,11,,,,77,0
77441,note_on,0,0,7,,,,,,,,,11,,,,74,0
77460,note_on,21,0,6,,,,,,,,,10,,,,89,101
77462,note_on,0,0,7,,,,,,,,,11,,,,77,101
77462,note_on,21,0,7,,,,,,,,,11,,,,74,101
77466,note_on,60,0,8,,,,,,,,,12,,,,73,0
77470,note_on,60,0,9,,,,,,,,,13,,,,61,0
77471,note_on,60,0,3,,,,,,,,,3,,,,61,0
77472,note_on,60,0,10,,,,,,,,,14,,,,49,0
77499,note_on,39,0,6,,,,,,,,,10,,,,89,0
77501,note_on,39,0,7,,,,,,,,,11,,,,77,0
77501,note_on,0,0,7,,,,,,,,,11,,,,74,0
77520,note_on,21,0,6,,,,,,,,,10,,,,89,110
77520,set_tempo,240,1,0,,,,,,261438,,,,,,,,
77522,note_on,0,0,7,,,,,,,,,11,,,,74,110
77522,note_on,21,0,7,,,,,,,,,11,,,,77,110
77526,note_on,60,0,8,,,,,,,,,12,,,,74,108
77530,note_on,60,0,9,,,,,,,,,13,,,,62,99
77531,note_on,60,0,3,,,,,,,,,3,,,,62,97
77532,note_on,60,0,10,,,,,,,,,14,,,,50,93
77559,note_on,39,0,6,,,,,,,,,10,,,,89,0
77561,note_on,39,0,7,,,,,,,,,11,,,,74,0
77561,note_on,0,0,7,,,,,,,,,11,,,,77,0
77580,note_on,21,0,6,,,,,,,,,10,,,,89,101
77582,note_on,0,0,7,,,,,,,,,11,,,,74,101
77582,note_on,21,0,7,,,,,,,,,11,,,,77,101
77586,note_on,60,0,8,,,,,,,,,12,,,,74,0
77590,note_on,60,0,9,,,,,,,,,13,,,,62,0
77591,note_on,60,0,3,,,,,,,,,3,,,,62,0
77592,note_on,60,0,10,,,,,,,,,14,,,,50,0
77619,note_on,39,0,6,,,,,,,,,10,,,,89,0
77621,note_on,39,0,7,,,,,,,,,11,,,,74,0
77621,note_on,0,0,7,,,,,,,,,11,,,,77,0
77640,note_on,21,0,6,,,,,,,,,10,,,,89,110
77642,note_on,21,0,7,,,,,,,,,11,,,,74,110
77642,note_on,0,0,7,,,,,,,,,11,,,,77,110
77646,note_on,60,0,8,,,,,,,,,12,,,,77,108
77650,note_on,60,0,9,,,,,,,,,13,,,,65,99
77651,note_on,60,0,3,,,,,,,,,3,,,,65,97
77652,note_on,60,0,10,,,,,,,,,14,,,,53,93
77679,note_on,39,0,6,,,,,,,,,10,,,,89,0
77681,note_on,39,0,7,,,,,,,,,11,,,,77,0
77681,note_on,0,0,7,,,,,,,,,11,,,,74,0
77700,note_on,21,0,6,,,,,,,,,10,,,,89,101
77702,note_on,21,0,7,,,,,,,,,11,,,,74,101
77702,note_on,0,0,7,,,,,,,,,11,,,,77,101
77706,note_on,60,0,8,,,,,,,,,12,,,,77,0
77710,note_on,60,0,9,,,,,,,,,13,,,,65,0
77711,note_on,60,0,3,,,,,,,,,3,,,,65,0
77712,note_on,60,0,10,,,,,,,,,14,,,,53,0
77739,note_on,39,0,6,,,,,,,,,10,,,,89,0
77741,note_on,39,0,7,,,,,,,,,11,,,,77,0
77741,note_on,0,0,7,,,,,,,,,11,,,,74,0
77760,set_tempo,240,1,0,,,,,,272727,,,,,,,,
77760,control_change,21,0,6,,,,,,,,,10,11,85,,,
77760,note_on,0,0,6,,,,,,,,,10,,,,87,110
77762,note_on,0,0,7,,,,,,,,,11,,,,81,110
77762,control_change,21,0,7,,,,,,,,,11,11,85,,,
77763,control_change,0,0,1,,,,,,,,,0,11,85,,,
77763,note_on,960,0,1,,,,,,,,,0,,,,89,0
77763,note_on,0,0,1,,,,,,,,,0,,,,87,97
77764,note_on,0,0,4,,,,,,,,,4,,,,65,88
77764,note_on,960,0,4,,,,,,,,,4,,,,65,0
77764,control_change,0,0,4,,,,,,,,,4,11,85,,,
77765,note_on,960,0,2,,,,,,,,,1,,,,74,0
77765,control_change,0,0,2,,,,,,,,,1,11,85,,,
77765,control_change,5,0,6,,,,,,,,,10,11,89,,,
77765,note_on,0,0,2,,,,,,,,,1,,,,77,0
77765,note_on,0,0,2,,,,,,,,,1,,,,72,97
77765,note_on,0,0,2,,,,,,,,,1,,,,81,97
77766,note_on,0,0,8,,,,,,,,,12,,,,72,108
77766,control_change,60,0,8,,,,,,,,,12,11,85,,,
77766,note_on,960,0,5,,,,,,,,,5,,,,62,0
77766,control_change,0,0,5,,,,,,,,,5,11,85,,,
77766,note_on,0,0,5,,,,,,,,,5,,,,53,88
77767,control_change,5,0,7,,,,,,,,,11,11,89,,,
77768,control_change,5,0,1,,,,,,,,,0,11,89,,,
77769,control_change,5,0,4,,,,,,,,,4,11,89,,,
77770,control_change,60,0,9,,,,,,,,,13,11,85,,,
77770,note_on,0,0,9,,,,,,,,,13,,,,53,99
77770,control_change,5,0,2,,,,,,,,,1,11,89,,,
77771,control_change,5,0,5,,,,,,,,,5,11,89,,,
77771,note_on,0,0,3,,,,,,,,,3,,,,53,97
77771,control_change,5,0,8,,,,,,,,,12,11,89,,,
77771,control_change,60,0,3,,,,,,,,,3,11,85,,,
77772,note_on,0,0,10,,,,,,,,,14,,,,41,93
77772,control_change,60,0,10,,,,,,,,,14,11,85,,,
77775,control_change,5,0,9,,,,,,,,,13,11,89,,,
77776,control_change,5,0,3,,,,,,,,,3,11,89,,,
77777,control_change,5,0,10,,,,,,,,,14,11,89,,,
77787,control_change,22,0,6,,,,,,,,,10,11,91,,,
77789,control_change,22,0,7,,,,,,,,,11,11,91,,,
77790,control_change,22,0,1,,,,,,,,,0,11,91,,,
77791,control_change,22,0,4,,,,,,,,,4,11,91,,,
77792,control_change,22,0,2,,,,,,,,,1,11,91,,,
77793,control_change,22,0,8,,,,,,,,,12,11,91,,,
77793,control_change,22,0,5,,,,,,,,,5,11,91,,,
77797,control_change,22,0,9,,,,,,,,,13,11,91,,,
77798,control_change,22,0,3,,,,,,,,,3,11,91,,,
77799,control_change,22,0,10,,,,,,,,,14,11,91,,,
77805,control_change,18,0,6,,,,,,,,,10,11,89,,,
77807,control_change,18,0,7,,,,,,,,,11,11,89,,,
77808,control_change,18,0,1,,,,,,,,,0,11,89,,,
77809,control_change,18,0,4,,,,,,,,,4,11,89,,,
77810,control_change,18,0,2,,,,,,,,,1,11,89,,,
77811,control_change,18,0,5,,,,,,,,,5,11,89,,,
77811,control_change,18,0,8,,,,,,,,,12,11,89,,,
77815,control_change,18,0,9,,,,,,,,,13,11,89,,,
77816,control_change,18,0,3,,,,,,,,,3,11,89,,,
77817,control_change,18,0,10,,,,,,,,,14,11,89,,,
77823,control_change,18,0,6,,,,,,,,,10,11,88,,,
77825,control_change,18,0,7,,,,,,,,,11,11,88,,,
77826,control_change,18,0,1,,,,,,,,,0,11,88,,,
77827,control_change,18,0,4,,,,,,,,,4,11,88,,,
77828,control_change,18,0,2,,,,,,,,,1,11,88,,,
77829,control_change,18,0,8,,,,,,,,,12,11,88,,,
77829,control_change,18,0,5,,,,,,,,,5,11,88,,,
77833,control_change,18,0,9,,,,,,,,,13,11,88,,,
77834,control_change,18,0,3,,,,,,,,,3,11,88,,,
77835,control_change,18,0,10,,,,,,,,,14,11,88,,,
77841,control_change,18,0,6,,,,,,,,,10,11,86,,,
77843,control_change,18,0,7,,,,,,,,,11,11,86,,,
77844,control_change,18,0,1,,,,,,,,,0,11,86,,,
77845,control_change,18,0,4,,,,,,,,,4,11,86,,,
77846,control_change,18,0,2,,,,,,,,,1,11,86,,,
77847,control_change,18,0,8,,,,,,,,,12,11,86,,,
77847,control_change,18,0,5,,,,,,,,,5,11,86,,,
77851,control_change,18,0,9,,,,,,,,,13,11,86,,,
77852,control_change,18,0,3,,,,,,,,,3,11,86,,,
77853,control_change,18,0,10,,,,,,,,,14,11,86,,,
77859,control_change,18,0,6,,,,,,,,,10,11,85,,,
77861,control_change,18,0,7,,,,,,,,,11,11,85,,,
77862,control_change,18,0,1,,,,,,,,,0,11,85,,,
77863,control_change,18,0,4,,,,,,,,,4,11,85,,,
77864,control_change,18,0,2,,,,,,,,,1,11,85,,,
77865,control_change,18,0,5,,,,,,,,,5,11,85,,,
77865,control_change,18,0,8,,,,,,,,,12,11,85,,,
77869,control_change,18,0,9,,,,,,,,,13,11,85,,,
77870,control_change,18,0,3,,,,,,,,,3,11,85,,,
77871,control_change,18,0,10,,,,,,,,,14,11,85,,,
77877,control_change,18,0,6,,,,,,,,,10,11,84,,,
77879,control_change,18,0,7,,,,,,,,,11,11,84,,,
77880,control_change,18,0,1,,,,,,,,,0,11,84,,,
77881,control_change,18,0,4,,,,,,,,,4,11,84,,,
77882,control_change,18,0,2,,,,,,,,,1,11,84,,,
77883,control_change,18,0,5,,,,,,,,,5,11,84,,,
77883,control_change,18,0,8,,,,,,,,,12,11,84,,,
77887,control_change,18,0,9,,,,,,,,,13,11,84,,,
77888,control_change,18,0,3,,,,,,,,,3,11,84,,,
77889,control_change,18,0,10,,,,,,,,,14,11,84,,,
77892,note_on,15,0,6,,,,,,,,,10,,,,87,0
77894,note_on,15,0,7,,,,,,,,,11,,,,81,0
77895,control_change,3,0,6,,,,,,,,,10,11,82,,,
77897,control_change,3,0,7,,,,,,,,,11,11,82,,,
77898,control_change,18,0,1,,,,,,,,,0,11,82,,,
77898,note_on,15,0,8,,,,,,,,,12,,,,72,0
77899,control_change,18,0,4,,,,,,,,,4,11,82,,,
77900,control_change,18,0,2,,,,,,,,,1,11,82,,,
77901,control_change,18,0,5,,,,,,,,,5,11,82,,,
77901,control_change,3,0,8,,,,,,,,,12,11,82,,,
77905,control_change,18,0,9,,,,,,,,,13,11,82,,,
77906,control_change,18,0,3,,,,,,,,,3,11,82,,,
77907,control_change,18,0,10,,,,,,,,,14,11,82,,,
77913,control_change,18,0,6,,,,,,,,,10,11,81,,,
77915,control_change,18,0,7,,,,,,,,,11,11,81,,,
77916,control_change,18,0,1,,,,,,,,,0,11,81,,,
77917,control_change,18,0,4,,,,,,,,,4,11,81,,,
77918,control_change,18,0,2,,,,,,,,,1,11,81,,,
77919,control_change,18,0,8,,,,,,,,,12,11,81,,,
77919,control_change,18,0,5,,,,,,,,,5,11,81,,,
77923,control_change,18,0,9,,,,,,,,,13,11,81,,,
77924,control_change,18,0,3,,,,,,,,,3,11,81,,,
77925,control_change,18,0,10,,,,,,,,,14,11,81,,,
77931,control_change,18,0,6,,,,,,,,,10,11,80,,,
77933,control_change,18,0,7,,,,,,,,,11,11,80,,,
77934,control_change,18,0,1,,,,,,,,,0,11,80,,,
77935,control_change,18,0,4,,,,,,,,,4,11,80,,,
77936,control_change,18,0,2,,,,,,,,,1,11,80,,,
77937,control_change,18,0,5,,,,,,,,,5,11,80,,,
77937,control_change,18,0,8,,,,,,,,,12,11,80,,,
77938,note_on,4,0,1,,,,,,,,,0,,,,87,0
77940,note_on,9,0,6,,,,,,,,,10,,,,86,110
77940,note_on,4,0,2,,,,,,,,,1,,,,81,0
77940,note_on,0,0,2,,,,,,,,,1,,,,72,0
77941,control_change,18,0,9,,,,,,,,,13,11,80,,,
77942,control_change,18,0,3,,,,,,,,,3,11,80,,,
77942,note_on,9,0,7,,,,,,,,,11,,,,82,110
77943,note_on,5,0,1,,,,,,,,,0,,,,86,97
77943,control_change,18,0,10,,,,,,,,,14,11,80,,,
77945,note_on,0,0,2,,,,,,,,,1,,,,82,97
77945,note_on,5,0,2,,,,,,,,,1,,,,74,97
77946,note_on,9,0,8,,,,,,,,,12,,,,74,108
77985,note_on,45,0,6,,,,,,,,,10,,,,86,0
77987,note_on,45,0,7,,,,,,,,,11,,,,82,0
77989,note_on,54,0,4,,,,,,,,,4,,,,65,0
77991,note_on,45,0,8,,,,,,,,,12,,,,74,0
77991,note_on,54,0,5,,,,,,,,,5,,,,53,0
77996,note_on,54,0,3,,,,,,,,,3,,,,53,0
77998,note_on,55,0,1,,,,,,,,,0,,,,86,0
78000,control_change,15,0,6,,,,,,,,,10,11,85,,,
78000,note_on,0,0,6,,,,,,,,,10,,,,84,110
78000,note_on,0,0,2,,,,,,,,,1,,,,74,0
78000,set_tempo,240,1,0,,,,,,261438,,,,,,,,
78000,note_on,55,0,2,,,,,,,,,1,,,,82,0
78002,control_change,15,0,7,,,,,,,,,11,11,85,,,
78002,note_on,0,0,7,,,,,,,,,11,,,,79,110
78003,note_on,0,0,1,,,,,,,,,0,,,,84,97
78003,control_change,5,0,1,,,,,,,,,0,11,85,,,
78004,note_on,0,0,4,,,,,,,,,4,,,,65,88
78004,control_change,15,0,4,,,,,,,,,4,11,85,,,
78005,control_change,5,0,6,,,,,,,,,10,11,89,,,
78005,note_on,64,0,9,,,,,,,,,13,,,,53,0
78005,note_on,0,0,2,,,,,,,,,1,,,,75,97
78005,control_change,5,0,2,,,,,,,,,1,11,85,,,
78005,note_on,0,0,2,,,,,,,,,1,,,,79,97
78006,note_on,0,0,8,,,,,,,,,12,,,,75,108
78006,control_change,15,0,8,,,,,,,,,12,11,85,,,
78006,note_on,0,0,5,,,,,,,,,5,,,,53,88
78006,control_change,15,0,5,,,,,,,,,5,11,85,,,
78007,control_change,5,0,7,,,,,,,,,11,11,89,,,
78007,note_on,64,0,10,,,,,,,,,14,,,,41,0
78008,control_change,5,0,1,,,,,,,,,0,11,89,,,
78009,control_change,5,0,4,,,,,,,,,4,11,89,,,
78010,note_on,0,0,9,,,,,,,,,13,,,,53,99
78010,control_change,5,0,2,,,,,,,,,1,11,89,,,
78010,control_change,5,0,9,,,,,,,,,13,11,85,,,
78011,note_on,0,0,3,,,,,,,,,3,,,,53,97
78011,control_change,5,0,5,,,,,,,,,5,11,89,,,
78011,control_change,5,0,8,,,,,,,,,12,11,89,,,
78011,control_change,15,0,3,,,,,,,,,3,11,85,,,
78012,note_on,0,0,10,,,,,,,,,14,,,,41,93
78012,control_change,5,0,10,,,,,,,,,14,11,85,,,
78015,control_change,5,0,9,,,,,,,,,13,11,89,,,
78016,control_change,5,0,3,,,,,,,,,3,11,89,,,
78017,control_change,5,0,10,,,,,,,,,14,11,89,,,
78027,control_change,22,0,6,,,,,,,,,10,11,91,,,
78029,control_change,22,0,7,,,,,,,,,11,11,91,,,
78030,control_change,22,0,1,,,,,,,,,0,11,91,,,
78031,control_change,22,0,4,,,,,,,,,4,11,91,,,
78032,control_change,22,0,2,,,,,,,,,1,11,91,,,
78033,control_change,22,0,8,,,,,,,,,12,11,91,,,
78033,control_change,22,0,5,,,,,,,,,5,11,91,,,
78037,control_change,22,0,9,,,,,,,,,13,11,91,,,
78038,control_change,22,0,3,,,,,,,,,3,11,91,,,
78039,control_change,22,0,10,,,,,,,,,14,11,91,,,
78045,control_change,18,0,6,,,,,,,,,10,11,89,,,
78047,control_change,18,0,7,,,,,,,,,11,11,89,,,
78048,control_change,18,0,1,,,,,,,,,0,11,89,,,
78049,control_change,18,0,4,,,,,,,,,4,11,89,,,
78050,control_change,18,0,2,,,,,,,,,1,11,89,,,
78051,control_change,18,0,8,,,,,,,,,12,11,89,,,
78051,control_change,18,0,5,,,,,,,,,5,11,89,,,
78055,control_change,18,0,9,,,,,,,,,13,11,89,,,
78056,control_change,18,0,3,,,,,,,,,3,11,89,,,
78057,control_change,18,0,10,,,,,,,,,14,11,89,,,
78063,control_change,18,0,6,,,,,,,,,10,11,88,,,
78065,control_change,18,0,7,,,,,,,,,11,11,88,,,
78066,control_change,18,0,1,,,,,,,,,0,11,88,,,
78067,control_change,18,0,4,,,,,,,,,4,11,88,,,
78068,control_change,18,0,2,,,,,,,,,1,11,88,,,
78069,control_change,18,0,8,,,,,,,,,12,11,88,,,
78069,control_change,18,0,5,,,,,,,,,5,11,88,,,
78073,control_change,18,0,9,,,,,,,,,13,11,88,,,
78074,control_change,18,0,3,,,,,,,,,3,11,88,,,
78075,control_change,18,0,10,,,,,,,,,14,11,88,,,
78081,control_change,18,0,6,,,,,,,,,10,11,86,,,
78083,control_change,18,0,7,,,,,,,,,11,11,86,,,
78084,control_change,18,0,1,,,,,,,,,0,11,86,,,
78085,control_change,18,0,4,,,,,,,,,4,11,86,,,
78086,control_change,18,0,2,,,,,,,,,1,11,86,,,
78087,control_change,18,0,8,,,,,,,,,12,11,86,,,
78087,control_change,18,0,5,,,,,,,,,5,11,86,,,
78091,control_change,18,0,9,,,,,,,,,13,11,86,,,
78092,control_change,18,0,3,,,,,,,,,3,11,86,,,
78093,control_change,18,0,10,,,,,,,,,14,11,86,,,
78099,control_change,18,0,6,,,,,,,,,10,11,85,,,
78101,control_change,18,0,7,,,,,,,,,11,11,85,,,
78102,control_change,18,0,1,,,,,,,,,0,11,85,,,
78103,control_change,18,0,4,,,,,,,,,4,11,85,,,
78104,control_change,18,0,2,,,,,,,,,1,11,85,,,
78105,control_change,18,0,5,,,,,,,,,5,11,85,,,
78105,control_change,18,0,8,,,,,,,,,12,11,85,,,
78109,control_change,18,0,9,,,,,,,,,13,11,85,,,
78110,control_change,18,0,3,,,,,,,,,3,11,85,,,
78111,control_change,18,0,10,,,,,,,,,14,11,85,,,
78117,control_change,18,0,6,,,,,,,,,10,11,84,,,
78119,control_change,18,0,7,,,,,,,,,11,11,84,,,
78120,control_change,18,0,1,,,,,,,,,0,11,84,,,
78121,control_change,18,0,4,,,,,,,,,4,11,84,,,
78122,control_change,18,0,2,,,,,,,,,1,11,84,,,
78123,control_change,18,0,5,,,,,,,,,5,11,84,,,
78123,control_change,18,0,8,,,,,,,,,12,11,84,,,
78127,control_change,18,0,9,,,,,,,,,13,11,84,,,
78128,control_change,18,0,3,,,,,,,,,3,11,84,,,
78129,control_change,18,0,10,,,,,,,,,14,11,84,,,
78132,note_on,15,0,6,,,,,,,,,10,,,,84,0
78134,note_on,15,0,7,,,,,,,,,11,,,,79,0
78135,control_change,3,0,6,,,,,,,,,10,11,82,,,
78137,control_change,3,0,7,,,,,,,,,11,11,82,,,
78138,note_on,15,0,8,,,,,,,,,12,,,,75,0
78138,control_change,18,0,1,,,,,,,,,0,11,82,,,
78139,control_change,18,0,4,,,,,,,,,4,11,82,,,
78140,control_change,18,0,2,,,,,,,,,1,11,82,,,
78141,control_change,18,0,5,,,,,,,,,5,11,82,,,
78141,control_change,3,0,8,,,,,,,,,12,11,82,,,
78145,control_change,18,0,9,,,,,,,,,13,11,82,,,
78146,control_change,18,0,3,,,,,,,,,3,11,82,,,
78147,control_change,18,0,10,,,,,,,,,14,11,82,,,
78153,control_change,18,0,6,,,,,,,,,10,11,81,,,
78155,control_change,18,0,7,,,,,,,,,11,11,81,,,
78156,control_change,18,0,1,,,,,,,,,0,11,81,,,
78157,control_change,18,0,4,,,,,,,,,4,11,81,,,
78158,control_change,18,0,2,,,,,,,,,1,11,81,,,
78159,control_change,18,0,8,,,,,,,,,12,11,81,,,
78159,control_change,18,0,5,,,,,,,,,5,11,81,,,
78163,control_change,18,0,9,,,,,,,,,13,11,81,,,
78164,control_change,18,0,3,,,,,,,,,3,11,81,,,
78165,control_change,18,0,10,,,,,,,,,14,11,81,,,
78171,control_change,18,0,6,,,,,,,,,10,11,80,,,
78173,control_change,18,0,7,,,,,,,,,11,11,80,,,
78174,control_change,18,0,1,,,,,,,,,0,11,80,,,
78175,control_change,18,0,4,,,,,,,,,4,11,80,,,
78176,control_change,18,0,2,,,,,,,,,1,11,80,,,
78177,control_change,18,0,8,,,,,,,,,12,11,80,,,
78177,control_change,18,0,5,,,,,,,,,5,11,80,,,
78178,note_on,4,0,1,,,,,,,,,0,,,,84,0
78180,note_on,0,0,2,,,,,,,,,1,,,,79,0
78180,note_on,4,0,2,,,,,,,,,1,,,,75,0
78180,note_on,9,0,6,,,,,,,,,10,,,,82,110
78181,control_change,18,0,9,,,,,,,,,13,11,80,,,
78182,note_on,9,0,7,,,,,,,,,11,,,,77,110
78182,control_change,18,0,3,,,,,,,,,3,11,80,,,
78183,note_on,5,0,1,,,,,,,,,0,,,,82,97
78183,control_change,18,0,10,,,,,,,,,14,11,80,,,
78185,note_on,5,0,2,,,,,,,,,1,,,,74,97
78185,note_on,0,0,2,,,,,,,,,1,,,,77,97
78186,note_on,9,0,8,,,,,,,,,12,,,,74,108
78225,note_on,45,0,6,,,,,,,,,10,,,,82,0
78227,note_on,45,0,7,,,,,,,,,11,,,,77,0
78229,note_on,54,0,4,,,,,,,,,4,,,,65,0
78231,note_on,45,0,8,,,,,,,,,12,,,,74,0
78231,note_on,54,0,5,,,,,,,,,5,,,,53,0
78236,note_on,54,0,3,,,,,,,,,3,,,,53,0
78238,note_on,55,0,1,,,,,,,,,0,,,,82,0
78240,set_tempo,240,1,0,,,,,,272727,,,,,,,,
78240,note_on,0,0,6,,,,,,,,,10,,,,81,110
78240,control_change,15,0,6,,,,,,,,,10,11,85,,,
78240,note_on,55,0,2,,,,,,,,,1,,,,77,0
78240,note_on,0,0,2,,,,,,,,,1,,,,74,0
78242,note_on,0,0,7,,,,,,,,,11,,,,75,110
78242,control_change,15,0,7,,,,,,,,,11,11,85,,,
78243,note_on,0,0,1,,,,,,,,,0,,,,81,97
78243,control_change,5,0,1,,,,,,,,,0,11,85,,,
78244,note_on,0,0,4,,,,,,,,,4,,,,65,88
78244,control_change,15,0,4,,,,,,,,,4,11,85,,,
78245,note_on,64,0,9,,,,,,,,,13,,,,53,0
78245,control_change,5,0,2,,,,,,,,,1,11,85,,,
78245,control_change,5,0,6,,,,,,,,,10,11,89,,,
78245,note_on,0,0,2,,,,,,,,,1,,,,75,97
78245,note_on,0,0,2,,,,,,,,,1,,,,72,97
78246,note_on,0,0,5,,,,,,,,,5,,,,53,88
78246,control_change,15,0,5,,,,,,,,,5,11,85,,,
78246,control_change,15,0,8,,,,,,,,,12,11,85,,,
78246,note_on,0,0,8,,,,,,,,,12,,,,72,108
78247,note_on,64,0,10,,,,,,,,,14,,,,41,0
78247,control_change,5,0,7,,,,,,,,,11,11,89,,,
78248,control_change,5,0,1,,,,,,,,,0,11,89,,,
78249,control_change,5,0,4,,,,,,,,,4,11,89,,,
78250,control_change,5,0,9,,,,,,,,,13,11,85,,,
78250,control_change,5,0,2,,,,,,,,,1,11,89,,,
78250,note_on,0,0,9,,,,,,,,,13,,,,53,99
78251,control_change,5,0,8,,,,,,,,,12,11,89,,,
78251,control_change,15,0,3,,,,,,,,,3,11,85,,,
78251,control_change,5,0,5,,,,,,,,,5,11,89,,,
78251,note_on,0,0,3,,,,,,,,,3,,,,53,97
78252,control_change,5,0,10,,,,,,,,,14,11,85,,,
78252,note_on,0,0,10,,,,,,,,,14,,,,41,93
78255,control_change,5,0,9,,,,,,,,,13,11,89,,,
78256,control_change,5,0,3,,,,,,,,,3,11,89,,,
78257,control_change,5,0,10,,,,,,,,,14,11,89,,,
78267,control_change,22,0,6,,,,,,,,,10,11,91,,,
78269,control_change,22,0,7,,,,,,,,,11,11,91,,,
78270,control_change,22,0,1,,,,,,,,,0,11,91,,,
78271,control_change,22,0,4,,,,,,,,,4,11,91,,,
78272,control_change,22,0,2,,,,,,,,,1,11,91,,,
78273,control_change,22,0,8,,,,,,,,,12,11,91,,,
78273,control_change,22,0,5,,,,,,,,,5,11,91,,,
78277,control_change,22,0,9,,,,,,,,,13,11,91,,,
78278,control_change,22,0,3,,,,,,,,,3,11,91,,,
78279,control_change,22,0,10,,,,,,,,,14,11,91,,,
78285,control_change,18,0,6,,,,,,,,,10,11,89,,,
78287,control_change,18,0,7,,,,,,,,,11,11,89,,,
78288,control_change,18,0,1,,,,,,,,,0,11,89,,,
78289,control_change,18,0,4,,,,,,,,,4,11,89,,,
78290,control_change,18,0,2,,,,,,,,,1,11,89,,,
78291,control_change,18,0,8,,,,,,,,,12,11,89,,,
78291,control_change,18,0,5,,,,,,,,,5,11,89,,,
78295,control_change,18,0,9,,,,,,,,,13,11,89,,,
78296,control_change,18,0,3,,,,,,,,,3,11,89,,,
78297,control_change,18,0,10,,,,,,,,,14,11,89,,,
78303,control_change,18,0,6,,,,,,,,,10,11,88,,,
78305,control_change,18,0,7,,,,,,,,,11,11,88,,,
78306,control_change,18,0,1,,,,,,,,,0,11,88,,,
78307,control_change,18,0,4,,,,,,,,,4,11,88,,,
78308,control_change,18,0,2,,,,,,,,,1,11,88,,,
78309,control_change,18,0,8,,,,,,,,,12,11,88,,,
78309,control_change,18,0,5,,,,,,,,,5,11,88,,,
78313,control_change,18,0,9,,,,,,,,,13,11,88,,,
78314,control_change,18,0,3,,,,,,,,,3,11,88,,,
78315,control_change,18,0,10,,,,,,,,,14,11,88,,,
78321,control_change,18,0,6,,,,,,,,,10,11,86,,,
78323,control_change,18,0,7,,,,,,,,,11,11,86,,,
78324,control_change,18,0,1,,,,,,,,,0,11,86,,,
78325,control_change,18,0,4,,,,,,,,,4,11,86,,,
78326,control_change,18,0,2,,,,,,,,,1,11,86,,,
78327,control_change,18,0,8,,,,,,,,,12,11,86,,,
78327,control_change,18,0,5,,,,,,,,,5,11,86,,,
78331,control_change,18,0,9,,,,,,,,,13,11,86,,,
78332,control_change,18,0,3,,,,,,,,,3,11,86,,,
78333,control_change,18,0,10,,,,,,,,,14,11,86,,,
78339,control_change,18,0,6,,,,,,,,,10,11,85,,,
78341,control_change,18,0,7,,,,,,,,,11,11,85,,,
78342,control_change,18,0,1,,,,,,,,,0,11,85,,,
78343,control_change,18,0,4,,,,,,,,,4,11,85,,,
78344,control_change,18,0,2,,,,,,,,,1,11,85,,,
78345,control_change,18,0,8,,,,,,,,,12,11,85,,,
78345,control_change,18,0,5,,,,,,,,,5,11,85,,,
78349,control_change,18,0,9,,,,,,,,,13,11,85,,,
78350,control_change,18,0,3,,,,,,,,,3,11,85,,,
78351,control_change,18,0,10,,,,,,,,,14,11,85,,,
78357,control_change,18,0,6,,,,,,,,,10,11,84,,,
78359,control_change,18,0,7,,,,,,,,,11,11,84,,,
78360,control_change,18,0,1,,,,,,,,,0,11,84,,,
78361,control_change,18,0,4,,,,,,,,,4,11,84,,,
78362,control_change,18,0,2,,,,,,,,,1,11,84,,,
78363,control_change,18,0,5,,,,,,,,,5,11,84,,,
78363,control_change,18,0,8,,,,,,,,,12,11,84,,,
78367,control_change,18,0,9,,,,,,,,,13,11,84,,,
78368,control_change,18,0,3,,,,,,,,,3,11,84,,,
78369,control_change,18,0,10,,,,,,,,,14,11,84,,,
78372,note_on,15,0,6,,,,,,,,,10,,,,81,0
78374,note_on,15,0,7,,,,,,,,,11,,,,75,0
78375,control_change,3,0,6,,,,,,,,,10,11,82,,,
78377,control_change,3,0,7,,,,,,,,,11,11,82,,,
78378,note_on,15,0,8,,,,,,,,,12,,,,72,0
78378,control_change,18,0,1,,,,,,,,,0,11,82,,,
78379,control_change,18,0,4,,,,,,,,,4,11,82,,,
78380,control_change,18,0,2,,,,,,,,,1,11,82,,,
78381,control_change,18,0,5,,,,,,,,,5,11,82,,,
78381,control_change,3,0,8,,,,,,,,,12,11,82,,,
78385,control_change,18,0,9,,,,,,,,,13,11,82,,,
78386,control_change,18,0,3,,,,,,,,,3,11,82,,,
78387,control_change,18,0,10,,,,,,,,,14,11,82,,,
78393,control_change,18,0,6,,,,,,,,,10,11,81,,,
78395,control_change,18,0,7,,,,,,,,,11,11,81,,,
78396,control_change,18,0,1,,,,,,,,,0,11,81,,,
78397,control_change,18,0,4,,,,,,,,,4,11,81,,,
78398,control_change,18,0,2,,,,,,,,,1,11,81,,,
78399,control_change,18,0,5,,,,,,,,,5,11,81,,,
78399,control_change,18,0,8,,,,,,,,,12,11,81,,,
78403,control_change,18,0,9,,,,,,,,,13,11,81,,,
78404,control_change,18,0,3,,,,,,,,,3,11,81,,,
78405,control_change,18,0,10,,,,,,,,,14,11,81,,,
78411,control_change,18,0,6,,,,,,,,,10,11,80,,,
78413,control_change,18,0,7,,,,,,,,,11,11,80,,,
78414,control_change,18,0,1,,,,,,,,,0,11,80,,,
78415,control_change,18,0,4,,,,,,,,,4,11,80,,,
78416,control_change,18,0,2,,,,,,,,,1,11,80,,,
78417,control_change,18,0,5,,,,,,,,,5,11,80,,,
78417,control_change,18,0,8,,,,,,,,,12,11,80,,,
78418,note_on,4,0,1,,,,,,,,,0,,,,81,0
78420,note_on,0,0,2,,,,,,,,,1,,,,72,0
78420,note_on,9,0,6,,,,,,,,,10,,,,79,110
78420,note_on,4,0,2,,,,,,,,,1,,,,75,0
78421,control_change,18,0,9,,,,,,,,,13,11,80,,,
78422,note_on,9,0,7,,,,,,,,,11,,,,74,110
78422,control_change,18,0,3,,,,,,,,,3,11,80,,,
78423,note_on,5,0,1,,,,,,,,,0,,,,79,97
78423,control_change,18,0,10,,,,,,,,,14,11,80,,,
78425,note_on,5,0,2,,,,,,,,,1,,,,70,97
78425,note_on,0,0,2,,,,,,,,,1,,,,74,97
78426,note_on,9,0,8,,,,,,,,,12,,,,70,108
78465,note_on,45,0,6,,,,,,,,,10,,,,79,0
78467,note_on,45,0,7,,,,,,,,,11,,,,74,0
78469,note_on,54,0,4,,,,,,,,,4,,,,65,0
78471,note_on,54,0,5,,,,,,,,,5,,,,53,0
78471,note_on,45,0,8,,,,,,,,,12,,,,70,0
78476,note_on,54,0,3,,,,,,,,,3,,,,53,0
78478,note_on,55,0,1,,,,,,,,,0,,,,79,0
78480,note_on,0,0,2,,,,,,,,,1,,,,70,0
78480,note_on,55,0,2,,,,,,,,,1,,,,74,0
78480,note_on,0,0,6,,,,,,,,,10,,,,77,110
78480,set_tempo,240,1,0,,,,,,261438,,,,,,,,
78480,control_change,15,0,6,,,,,,,,,10,11,85,,,
78482,note_on,0,0,7,,,,,,,,,11,,,,72,110
78482,control_change,15,0,7,,,,,,,,,11,11,85,,,
78483,control_change,5,0,1,,,,,,,,,0,11,85,,,
78483,note_on,0,0,1,,,,,,,,,0,,,,77,97
78484,note_on,0,0,4,,,,,,,,,4,,,,65,88
78484,control_change,15,0,4,,,,,,,,,4,11,85,,,
78485,control_change,5,0,2,,,,,,,,,1,11,85,,,
78485,note_on,0,0,2,,,,,,,,,1,,,,69,97
78485,note_on,64,0,9,,,,,,,,,13,,,,53,0
78485,note_on,0,0,2,,,,,,,,,1,,,,72,97
78485,control_change,5,0,6,,,,,,,,,10,11,89,,,
78486,control_change,15,0,5,,,,,,,,,5,11,85,,,
78486,note_on,0,0,8,,,,,,,,,12,,,,69,108
78486,note_on,0,0,5,,,,,,,,,5,,,,53,88
78486,control_change,15,0,8,,,,,,,,,12,11,85,,,
78487,note_on,64,0,10,,,,,,,,,14,,,,41,0
78487,control_change,5,0,7,,,,,,,,,11,11,89,,,
78488,control_change,5,0,1,,,,,,,,,0,11,89,,,
78489,control_change,5,0,4,,,,,,,,,4,11,89,,,
78490,control_change,5,0,9,,,,,,,,,13,11,85,,,
78490,control_change,5,0,2,,,,,,,,,1,11,89,,,
78490,note_on,0,0,9,,,,,,,,,13,,,,53,99
78491,note_on,0,0,3,,,,,,,,,3,,,,53,97
78491,control_change,15,0,3,,,,,,,,,3,11,85,,,
78491,control_change,5,0,5,,,,,,,,,5,11,89,,,
78491,control_change,5,0,8,,,,,,,,,12,11,89,,,
78492,control_change,5,0,10,,,,,,,,,14,11,85,,,
78492,note_on,0,0,10,,,,,,,,,14,,,,41,93
78495,control_change,5,0,9,,,,,,,,,13,11,89,,,
78496,control_change,5,0,3,,,,,,,,,3,11,89,,,
78497,control_change,5,0,10,,,,,,,,,14,11,89,,,
78507,control_change,22,0,6,,,,,,,,,10,11,91,,,
78509,control_change,22,0,7,,,,,,,,,11,11,91,,,
78510,control_change,22,0,1,,,,,,,,,0,11,91,,,
78511,control_change,22,0,4,,,,,,,,,4,11,91,,,
78512,control_change,22,0,2,,,,,,,,,1,11,91,,,
78513,control_change,22,0,5,,,,,,,,,5,11,91,,,
78513,control_change,22,0,8,,,,,,,,,12,11,91,,,
78517,control_change,22,0,9,,,,,,,,,13,11,91,,,
78518,control_change,22,0,3,,,,,,,,,3,11,91,,,
78519,control_change,22,0,10,,,,,,,,,14,11,91,,,
78525,control_change,18,0,6,,,,,,,,,10,11,89,,,
78527,control_change,18,0,7,,,,,,,,,11,11,89,,,
78528,control_change,18,0,1,,,,,,,,,0,11,89,,,
78529,control_change,18,0,4,,,,,,,,,4,11,89,,,
78530,control_change,18,0,2,,,,,,,,,1,11,89,,,
78531,control_change,18,0,8,,,,,,,,,12,11,89,,,
78531,control_change,18,0,5,,,,,,,,,5,11,89,,,
78535,control_change,18,0,9,,,,,,,,,13,11,89,,,
78536,control_change,18,0,3,,,,,,,,,3,11,89,,,
78537,control_change,18,0,10,,,,,,,,,14,11,89,,,
78543,control_change,18,0,6,,,,,,,,,10,11,88,,,
78545,control_change,18,0,7,,,,,,,,,11,11,88,,,
78546,control_change,18,0,1,,,,,,,,,0,11,88,,,
78547,control_change,18,0,4,,,,,,,,,4,11,88,,,
78548,control_change,18,0,2,,,,,,,,,1,11,88,,,
78549,control_change,18,0,8,,,,,,,,,12,11,88,,,
78549,control_change,18,0,5,,,,,,,,,5,11,88,,,
78553,control_change,18,0,9,,,,,,,,,13,11,88,,,
78554,control_change,18,0,3,,,,,,,,,3,11,88,,,
78555,control_change,18,0,10,,,,,,,,,14,11,88,,,
78561,control_change,18,0,6,,,,,,,,,10,11,86,,,
78563,control_change,18,0,7,,,,,,,,,11,11,86,,,
78564,control_change,18,0,1,,,,,,,,,0,11,86,,,
78565,control_change,18,0,4,,,,,,,,,4,11,86,,,
78566,control_change,18,0,2,,,,,,,,,1,11,86,,,
78567,control_change,18,0,5,,,,,,,,,5,11,86,,,
78567,control_change,18,0,8,,,,,,,,,12,11,86,,,
78571,control_change,18,0,9,,,,,,,,,13,11,86,,,
78572,control_change,18,0,3,,,,,,,,,3,11,86,,,
78573,control_change,18,0,10,,,,,,,,,14,11,86,,,
78579,control_change,18,0,6,,,,,,,,,10,11,85,,,
78581,control_change,18,0,7,,,,,,,,,11,11,85,,,
78582,control_change,18,0,1,,,,,,,,,0,11,85,,,
78583,control_change,18,0,4,,,,,,,,,4,11,85,,,
78584,control_change,18,0,2,,,,,,,,,1,11,85,,,
78585,control_change,18,0,5,,,,,,,,,5,11,85,,,
78585,control_change,18,0,8,,,,,,,,,12,11,85,,,
78589,control_change,18,0,9,,,,,,,,,13,11,85,,,
78590,control_change,18,0,3,,,,,,,,,3,11,85,,,
78591,control_change,18,0,10,,,,,,,,,14,11,85,,,
78597,control_change,18,0,6,,,,,,,,,10,11,84,,,
78599,control_change,18,0,7,,,,,,,,,11,11,84,,,
78600,control_change,18,0,1,,,,,,,,,0,11,84,,,
78601,control_change,18,0,4,,,,,,,,,4,11,84,,,
78602,control_change,18,0,2,,,,,,,,,1,11,84,,,
78603,control_change,18,0,8,,,,,,,,,12,11,84,,,
78603,control_change,18,0,5,,,,,,,,,5,11,84,,,
78607,control_change,18,0,9,,,,,,,,,13,11,84,,,
78608,control_change,18,0,3,,,,,,,,,3,11,84,,,
78609,control_change,18,0,10,,,,,,,,,14,11,84,,,
78615,control_change,18,0,6,,,,,,,,,10,11,82,,,
78617,control_change,18,0,7,,,,,,,,,11,11,82,,,
78618,control_change,18,0,1,,,,,,,,,0,11,82,,,
78619,control_change,18,0,4,,,,,,,,,4,11,82,,,
78620,control_change,18,0,2,,,,,,,,,1,11,82,,,
78621,control_change,18,0,8,,,,,,,,,12,11,82,,,
78621,control_change,18,0,5,,,,,,,,,5,11,82,,,
78625,control_change,18,0,9,,,,,,,,,13,11,82,,,
78626,control_change,18,0,3,,,,,,,,,3,11,82,,,
78627,control_change,18,0,10,,,,,,,,,14,11,82,,,
78633,control_change,18,0,6,,,,,,,,,10,11,81,,,
78635,control_change,18,0,7,,,,,,,,,11,11,81,,,
78636,control_change,18,0,1,,,,,,,,,0,11,81,,,
78637,control_change,18,0,4,,,,,,,,,4,11,81,,,
78638,control_change,18,0,2,,,,,,,,,1,11,81,,,
78639,control_change,18,0,5,,,,,,,,,5,11,81,,,
78639,control_change,18,0,8,,,,,,,,,12,11,81,,,
78643,control_change,18,0,9,,,,,,,,,13,11,81,,,
78644,control_change,18,0,3,,,,,,,,,3,11,81,,,
78645,note_on,12,0,6,,,,,,,,,10,,,,77,0
78645,control_change,18,0,10,,,,,,,,,14,11,81,,,
78647,note_on,12,0,7,,,,,,,,,11,,,,72,0
78651,note_on,12,0,8,,,,,,,,,12,,,,69,0
78651,control_change,6,0,6,,,,,,,,,10,11,80,,,
78653,control_change,6,0,7,,,,,,,,,11,11,80,,,
78654,control_change,18,0,1,,,,,,,,,0,11,80,,,
78655,control_change,18,0,4,,,,,,,,,4,11,80,,,
78656,control_change,18,0,2,,,,,,,,,1,11,80,,,
78657,control_change,6,0,8,,,,,,,,,12,11,80,,,
78657,control_change,18,0,5,,,,,,,,,5,11,80,,,
78658,note_on,4,0,1,,,,,,,,,0,,,,77,0
78660,note_on,4,0,2,,,,,,,,,1,,,,72,0
78660,note_on,0,0,2,,,,,,,,,1,,,,69,0
78660,note_on,9,0,6,,,,,,,,,10,,,,69,110
78661,control_change,18,0,9,,,,,,,,,13,11,80,,,
78662,note_on,9,0,7,,,,,,,,,11,,,,63,110
78662,control_change,18,0,3,,,,,,,,,3,11,80,,,
78663,control_change,18,0,10,,,,,,,,,14,11,80,,,
78663,note_on,5,0,1,,,,,,,,,0,,,,69,97
78665,note_on,0,0,2,,,,,,,,,1,,,,69,97
78665,note_on,5,0,2,,,,,,,,,1,,,,72,97
78666,note_on,9,0,8,,,,,,,,,12,,,,72,108
78705,note_on,45,0,6,,,,,,,,,10,,,,69,0
78707,note_on,45,0,7,,,,,,,,,11,,,,63,0
78709,note_on,54,0,4,,,,,,,,,4,,,,65,0
78711,note_on,54,0,5,,,,,,,,,5,,,,53,0
78711,note_on,45,0,8,,,,,,,,,12,,,,72,0
78716,note_on,54,0,3,,,,,,,,,3,,,,53,0
78718,note_on,55,0,1,,,,,,,,,0,,,,69,0
78720,note_on,55,0,2,,,,,,,,,1,,,,69,0
78720,note_on,15,0,6,,,,,,,,,10,,,,70,110
78720,note_on,0,0,2,,,,,,,,,1,,,,72,0
78720,set_tempo,240,1,0,,,,,,272727,,,,,,,,
78722,note_on,15,0,7,,,,,,,,,11,,,,62,110
78722,note_on,0,0,7,,,,,,,,,11,,,,70,110
78723,note_on,5,0,1,,,,,,,,,0,,,,70,97
78724,note_on,15,0,4,,,,,,,,,4,,,,58,88
78725,note_on,5,0,2,,,,,,,,,1,,,,70,97
78725,note_on,64,0,9,,,,,,,,,13,,,,53,0
78726,note_on,15,0,5,,,,,,,,,5,,,,50,88
78726,note_on,15,0,8,,,,,,,,,12,,,,70,108
78727,note_on,64,0,10,,,,,,,,,14,,,,41,0
78730,note_on,5,0,9,,,,,,,,,13,,,,46,99
78731,note_on,0,0,3,,,,,,,,,3,,,,58,97
78731,note_on,15,0,3,,,,,,,,,3,,,,46,97
78732,note_on,5,0,10,,,,,,,,,14,,,,34,93
78761,note_on,0,0,7,,,,,,,,,11,,,,62,0
78761,note_on,39,0,7,,,,,,,,,11,,,,70,0
78765,note_on,39,0,8,,,,,,,,,12,,,,70,0
78769,note_on,39,0,9,,,,,,,,,13,,,,46,0
78771,note_on,39,0,10,,,,,,,,,14,,,,34,0
78782,note_on,21,0,7,,,,,,,,,11,,,,70,101
78782,note_on,0,0,7,,,,,,,,,11,,,,62,101
78786,note_on,21,0,8,,,,,,,,,12,,,,58,99
78790,note_on,21,0,9,,,,,,,,,13,,,,46,90
78792,note_on,21,0,10,,,,,,,,,14,,,,34,84
78821,note_on,0,0,7,,,,,,,,,11,,,,70,0
78821,note_on,39,0,7,,,,,,,,,11,,,,62,0
78825,note_on,39,0,8,,,,,,,,,12,,,,58,0
78829,note_on,39,0,9,,,,,,,,,13,,,,46,0
78831,note_on,39,0,10,,,,,,,,,14,,,,34,0
78842,note_on,0,0,7,,,,,,,,,11,,,,70,110
78842,note_on,21,0,7,,,,,,,,,11,,,,62,110
78846,note_on,21,0,8,,,,,,,,,12,,,,58,108
78850,note_on,21,0,9,,,,,,,,,13,,,,46,99
78852,note_on,21,0,10,,,,,,,,,14,,,,34,93
78881,note_on,0,0,7,,,,,,,,,11,,,,62,0
78881,note_on,39,0,7,,,,,,,,,11,,,,70,0
78885,note_on,39,0,8,,,,,,,,,12,,,,58,0
78889,note_on,39,0,9,,,,,,,,,13,,,,46,0
78891,note_on,39,0,10,,,,,,,,,14,,,,34,0
78895,note_on,175,0,6,,,,,,,,,10,,,,70,0
78898,note_on,175,0,1,,,,,,,,,0,,,,70,0
78900,note_on,5,0,6,,,,,,,,,10,,,,74,110
78900,note_on,175,0,2,,,,,,,,,1,,,,70,0
78902,note_on,0,0,7,,,,,,,,,11,,,,62,101
78902,note_on,21,0,7,,,,,,,,,11,,,,70,101
78903,note_on,5,0,1,,,,,,,,,0,,,,74,97
78905,note_on,5,0,2,,,,,,,,,1,,,,74,97
78906,note_on,21,0,8,,,,,,,,,12,,,,58,99
78910,note_on,21,0,9,,,,,,,,,13,,,,46,90
78912,note_on,21,0,10,,,,,,,,,14,,,,34,84
78939,note_on,39,0,6,,,,,,,,,10,,,,74,0
78941,note_on,39,0,7,,,,,,,,,11,,,,62,0
78941,note_on,0,0,7,,,,,,,,,11,,,,70,0
78945,note_on,39,0,8,,,,,,,,,12,,,,58,0
78949,note_on,39,0,9,,,,,,,,,13,,,,46,0
78951,note_on,39,0,10,,,,,,,,,14,,,,34,0
78958,note_on,55,0,1,,,,,,,,,0,,,,74,0
78960,set_tempo,240,1,0,,,,,,261438,,,,,,,,
78960,note_on,21,0,6,,,,,,,,,10,,,,77,110
78960,note_on,55,0,2,,,,,,,,,1,,,,74,0
78962,note_on,21,0,7,,,,,,,,,11,,,,70,110
78963,note_on,5,0,1,,,,,,,,,0,,,,77,97
78965,note_on,5,0,2,,,,,,,,,1,,,,77,97
78966,note_on,21,0,8,,,,,,,,,12,,,,58,108
78970,note_on,21,0,9,,,,,,,,,13,,,,46,99
78972,note_on,21,0,10,,,,,,,,,14,,,,34,93
79001,note_on,39,0,7,,,,,,,,,11,,,,70,0
79005,note_on,39,0,8,,,,,,,,,12,,,,58,0
79009,note_on,39,0,9,,,,,,,,,13,,,,46,0
79011,note_on,39,0,10,,,,,,,,,14,,,,34,0
79020,note_on,60,0,6,,,,,,,,,10,,,,77,0
79022,note_on,21,0,7,,,,,,,,,11,,,,70,101
79023,note_on,60,0,1,,,,,,,,,0,,,,77,0
79025,note_on,60,0,2,,,,,,,,,1,,,,77,0
79026,note_on,21,0,8,,,,,,,,,12,,,,58,99
79030,note_on,21,0,9,,,,,,,,,13,,,,46,90
79032,note_on,21,0,10,,,,,,,,,14,,,,34,84
79061,note_on,39,0,7,,,,,,,,,11,,,,70,0
79065,note_on,39,0,8,,,,,,,,,12,,,,58,0
79069,note_on,39,0,9,,,,,,,,,13,,,,46,0
79071,note_on,39,0,10,,,,,,,,,14,,,,34,0
79080,note_on,60,0,6,,,,,,,,,10,,,,81,110
79082,note_on,21,0,7,,,,,,,,,11,,,,69,110
79083,note_on,60,0,1,,,,,,,,,0,,,,81,97
79084,note_on,360,0,4,,,,,,,,,4,,,,58,0
79085,note_on,60,0,2,,,,,,,,,1,,,,73,97
79085,note_on,0,0,2,,,,,,,,,1,,,,69,97
79086,note_on,360,0,5,,,,,,,,,5,,,,50,0
79086,note_on,21,0,8,,,,,,,,,12,,,,61,108
79090,note_on,21,0,9,,,,,,,,,13,,,,46,99
79092,note_on,21,0,10,,,,,,,,,14,,,,34,93
79121,note_on,39,0,7,,,,,,,,,11,,,,69,0
79125,note_on,39,0,8,,,,,,,,,12,,,,61,0
79129,note_on,39,0,9,,,,,,,,,13,,,,46,0
79131,note_on,39,0,10,,,,,,,,,14,,,,34,0
79140,note_on,60,0,6,,,,,,,,,10,,,,81,0
79142,note_on,21,0,7,,,,,,,,,11,,,,69,101
79143,note_on,60,0,1,,,,,,,,,0,,,,81,0
79145,note_on,0,0,2,,,,,,,,,1,,,,73,0
79145,note_on,60,0,2,,,,,,,,,1,,,,69,0
79146,note_on,21,0,8,,,,,,,,,12,,,,61,99
79150,note_on,21,0,9,,,,,,,,,13,,,,46,90
79152,note_on,21,0,10,,,,,,,,,14,,,,34,84
79181,note_on,39,0,7,,,,,,,,,11,,,,69,0
79185,note_on,39,0,8,,,,,,,,,12,,,,61,0
79189,note_on,39,0,9,,,,,,,,,13,,,,46,0
79191,note_on,39,0,10,,,,,,,,,14,,,,34,0
79200,note_on,60,0,6,,,,,,,,,10,,,,82,110
79200,set_tempo,240,1,0,,,,,,272727,,,,,,,,
79202,note_on,21,0,7,,,,,,,,,11,,,,70,110
79203,note_on,60,0,1,,,,,,,,,0,,,,82,97
79205,note_on,60,0,2,,,,,,,,,1,,,,74,97
79205,note_on,0,0,2,,,,,,,,,1,,,,70,97
79206,note_on,21,0,8,,,,,,,,,12,,,,62,108
79210,note_on,21,0,9,,,,,,,,,13,,,,46,99
79212,note_on,21,0,10,,,,,,,,,14,,,,34,93
79241,note_on,39,0,7,,,,,,,,,11,,,,70,0
79245,note_on,39,0,8,,,,,,,,,12,,,,62,0
79249,note_on,39,0,9,,,,,,,,,13,,,,46,0
79251,note_on,39,0,10,,,,,,,,,14,,,,34,0
79260,note_on,60,0,6,,,,,,,,,10,,,,82,0
79262,note_on,21,0,7,,,,,,,,,11,,,,70,101
79263,note_on,60,0,1,,,,,,,,,0,,,,82,0
79265,note_on,0,0,2,,,,,,,,,1,,,,74,0
79265,note_on,60,0,2,,,,,,,,,1,,,,70,0
79266,note_on,21,0,8,,,,,,,,,12,,,,62,99
79270,note_on,21,0,9,,,,,,,,,13,,,,46,90
79272,note_on,21,0,10,,,,,,,,,14,,,,34,84
79301,note_on,39,0,7,,,,,,,,,11,,,,70,0
79305,note_on,39,0,8,,,,,,,,,12,,,,62,0
79309,note_on,39,0,9,,,,,,,,,13,,,,46,0
79311,note_on,39,0,10,,,,,,,,,14,,,,34,0
79320,note_on,60,0,6,,,,,,,,,10,,,,85,110
79322,note_on,21,0,7,,,,,,,,,11,,,,73,110
79323,note_on,60,0,1,,,,,,,,,0,,,,85,97
79325,note_on,60,0,2,,,,,,,,,1,,,,73,97
79325,note_on,0,0,2,,,,,,,,,1,,,,76,97
79326,note_on,21,0,8,,,,,,,,,12,,,,64,108
79330,note_on,21,0,9,,,,,,,,,13,,,,46,99
79332,note_on,21,0,10,,,,,,,,,14,,,,34,93
79361,note_on,39,0,7,,,,,,,,,11,,,,73,0
79365,note_on,39,0,8,,,,,,,,,12,,,,64,0
79369,note_on,39,0,9,,,,,,,,,13,,,,46,0
79371,note_on,39,0,10,,,,,,,,,14,,,,34,0
79380,note_on,60,0,6,,,,,,,,,10,,,,85,0
79382,note_on,21,0,7,,,,,,,,,11,,,,73,101
79383,note_on,60,0,1,,,,,,,,,0,,,,85,0
79385,note_on,0,0,2,,,,,,,,,1,,,,73,0
79385,note_on,60,0,2,,,,,,,,,1,,,,76,0
79386,note_on,21,0,8,,,,,,,,,12,,,,64,99
79390,note_on,21,0,9,,,,,,,,,13,,,,46,90
79392,note_on,21,0,10,,,,,,,,,14,,,,34,84
79421,note_on,39,0,7,,,,,,,,,11,,,,73,0
79425,note_on,39,0,8,,,,,,,,,12,,,,64,0
79429,note_on,39,0,9,,,,,,,,,13,,,,46,0
79431,note_on,39,0,10,,,,,,,,,14,,,,34,0
79440,note_on,60,0,6,,,,,,,,,10,,,,86,110
79440,set_tempo,240,1,0,,,,,,261438,,,,,,,,
79442,note_on,21,0,7,,,,,,,,,11,,,,74,110
79443,note_on,60,0,1,,,,,,,,,0,,,,86,97
79445,note_on,60,0,2,,,,,,,,,1,,,,74,97
79445,note_on,0,0,2,,,,,,,,,1,,,,77,97
79446,note_on,21,0,8,,,,,,,,,12,,,,65,108
79450,note_on,21,0,9,,,,,,,,,13,,,,46,99
79452,note_on,21,0,10,,,,,,,,,14,,,,34,93
79481,note_on,39,0,7,,,,,,,,,11,,,,74,0
79485,note_on,39,0,8,,,,,,,,,12,,,,65,0
79489,note_on,39,0,9,,,,,,,,,13,,,,46,0
79491,note_on,39,0,10,,,,,,,,,14,,,,34,0
79500,note_on,60,0,6,,,,,,,,,10,,,,86,0
79502,note_on,21,0,7,,,,,,,,,11,,,,74,101
79503,note_on,60,0,1,,,,,,,,,0,,,,86,0
79505,note_on,60,0,2,,,,,,,,,1,,,,77,0
79505,note_on,0,0,2,,,,,,,,,1,,,,74,0
79506,note_on,21,0,8,,,,,,,,,12,,,,65,99
79510,note_on,21,0,9,,,,,,,,,13,,,,46,90
79512,note_on,21,0,10,,,,,,,,,14,,,,34,84
79541,note_on,39,0,7,,,,,,,,,11,,,,74,0
79545,note_on,39,0,8,,,,,,,,,12,,,,65,0
79549,note_on,39,0,9,,,,,,,,,13,,,,46,0
79551,note_on,39,0,10,,,,,,,,,14,,,,34,0
79560,note_on,60,0,6,,,,,,,,,10,,,,88,110
79562,note_on,0,0,7,,,,,,,,,11,,,,76,110
79562,note_on,21,0,7,,,,,,,,,11,,,,73,110
79563,note_on,60,0,1,,,,,,,,,0,,,,88,97
79565,note_on,0,0,2,,,,,,,,,1,,,,73,97
79565,note_on,60,0,2,,,,,,,,,1,,,,76,97
79566,note_on,21,0,8,,,,,,,,,12,,,,70,108
79570,note_on,21,0,9,,,,,,,,,13,,,,46,99
79572,note_on,21,0,10,,,,,,,,,14,,,,34,93
79601,note_on,39,0,7,,,,,,,,,11,,,,76,0
79601,note_on,0,0,7,,,,,,,,,11,,,,73,0
79605,note_on,39,0,8,,,,,,,,,12,,,,70,0
79609,note_on,39,0,9,,,,,,,,,13,,,,46,0
79611,note_on,39,0,10,,,,,,,,,14,,,,34,0
79620,note_on,60,0,6,,,,,,,,,10,,,,88,0
79622,note_on,0,0,7,,,,,,,,,11,,,,73,101
79622,note_on,21,0,7,,,,,,,,,11,,,,76,101
79623,note_on,60,0,1,,,,,,,,,0,,,,88,0
79625,note_on,60,0,2,,,,,,,,,1,,,,73,0
79625,note_on,0,0,2,,,,,,,,,1,,,,76,0
79626,note_on,21,0,8,,,,,,,,,12,,,,70,99
79630,note_on,21,0,9,,,,,,,,,13,,,,46,90
79632,note_on,21,0,10,,,,,,,,,14,,,,34,84
79661,note_on,39,0,7,,,,,,,,,11,,,,73,0
79661,note_on,0,0,7,,,,,,,,,11,,,,76,0
79665,note_on,39,0,8,,,,,,,,,12,,,,70,0
79669,note_on,39,0,9,,,,,,,,,13,,,,46,0
79671,note_on,39,0,10,,,,,,,,,14,,,,34,0
79680,set_tempo,240,1,0,,,,,,272727,,,,,,,,
79680,note_on,60,0,6,,,,,,,,,10,,,,89,110
79682,note_on,21,0,7,,,,,,,,,11,,,,74,110
79682,note_on,0,0,7,,,,,,,,,11,,,,77,110
79683,note_on,60,0,1,,,,,,,,,0,,,,89,110
79684,note_on,600,0,4,,,,,,,,,4,,,,65,100
79685,note_on,0,0,2,,,,,,,,,1,,,,74,110
79685,note_on,60,0,2,,,,,,,,,1,,,,77,110
79686,note_on,600,0,5,,,,,,,,,5,,,,62,100
79686,note_on,21,0,8,,,,,,,,,12,,,,58,108
79690,note_on,21,0,9,,,,,,,,,13,,,,46,99
79691,note_on,960,0,3,,,,,,,,,3,,,,58,0
79691,note_on,0,0,3,,,,,,,,,3,,,,46,0
79691,note_on,0,0,3,,,,,,,,,3,,,,46,97
79692,note_on,21,0,10,,,,,,,,,14,,,,34,93
79719,note_on,39,0,6,,,,,,,,,10,,,,89,0
79721,note_on,0,0,7,,,,,,,,,11,,,,74,0
79721,note_on,39,0,7,,,,,,,,,11,,,,77,0
79740,note_on,21,0,6,,,,,,,,,10,,,,89,101
79742,note_on,0,0,7,,,,,,,,,11,,,,74,101
79742,note_on,21,0,7,,,,,,,,,11,,,,77,101
79779,note_on,39,0,6,,,,,,,,,10,,,,89,0
79781,note_on,39,0,7,,,,,,,,,11,,,,74,0
79781,note_on,0,0,7,,,,,,,,,11,,,,77,0
79800,note_on,21,0,6,,,,,,,,,10,,,,89,110
79802,note_on,21,0,7,,,,,,,,,11,,,,74,110
79802,note_on,0,0,7,,,,,,,,,11,,,,77,110
79839,note_on,39,0,6,,,,,,,,,10,,,,89,0
79841,note_on,39,0,7,,,,,,,,,11,,,,77,0
79841,note_on,0,0,7,,,,,,,,,11,,,,74,0
79860,note_on,21,0,6,,,,,,,,,10,,,,89,101
79861,note_on,175,0,8,,,,,,,,,12,,,,58,0
79862,note_on,21,0,7,,,,,,,,,11,,,,74,101
79862,note_on,0,0,7,,,,,,,,,11,,,,77,101
79865,note_on,175,0,9,,,,,,,,,13,,,,46,0
79866,note_on,175,0,3,,,,,,,,,3,,,,46,0
79866,note_on,5,0,8,,,,,,,,,12,,,,62,108
79867,note_on,175,0,10,,,,,,,,,14,,,,34,0
79870,note_on,5,0,9,,,,,,,,,13,,,,50,99
79871,note_on,5,0,3,,,,,,,,,3,,,,50,97
79872,note_on,5,0,10,,,,,,,,,14,,,,38,93
79899,note_on,39,0,6,,,,,,,,,10,,,,89,0
79901,note_on,0,0,7,,,,,,,,,11,,,,74,0
79901,note_on,39,0,7,,,,,,,,,11,,,,77,0
79905,note_on,39,0,8,,,,,,,,,12,,,,62,0
79909,note_on,39,0,9,,,,,,,,,13,,,,50,0
79911,note_on,39,0,10,,,,,,,,,14,,,,38,0
79920,note_on,21,0,6,,,,,,,,,10,,,,89,110
79920,set_tempo,240,1,0,,,,,,261438,,,,,,,,
79922,note_on,21,0,7,,,,,,,,,11,,,,77,110
79922,note_on,0,0,7,,,,,,,,,11,,,,74,110
79926,note_on,55,0,3,,,,,,,,,3,,,,50,0
79926,note_on,21,0,8,,,,,,,,,12,,,,65,108
79930,note_on,21,0,9,,,,,,,,,13,,,,53,99
79931,note_on,5,0,3,,,,,,,,,3,,,,53,97
79932,note_on,21,0,10,,,,,,,,,14,,,,41,93
79959,note_on,39,0,6,,,,,,,,,10,,,,89,0
79961,note_on,39,0,7,,,,,,,,,11,,,,74,0
79961,note_on,0,0,7,,,,,,,,,11,,,,77,0
79980,note_on,21,0,6,,,,,,,,,10,,,,89,101
79982,note_on,0,0,7,,,,,,,,,11,,,,77,101
79982,note_on,21,0,7,,,,,,,,,11,,,,74,101
79986,note_on,60,0,8,,,,,,,,,12,,,,65,0
79990,note_on,60,0,9,,,,,,,,,13,,,,53,0
79991,note_on,60,0,3,,,,,,,,,3,,,,53,0
79992,note_on,60,0,10,,,,,,,,,14,,,,41,0
80019,note_on,39,0,6,,,,,,,,,10,,,,89,0
80021,note_on,39,0,7,,,,,,,,,11,,,,77,0
80021,note_on,0,0,7,,,,,,,,,11,,,,74,0
80040,note_on,21,0,6,,,,,,,,,10,,,,89,110
80042,note_on,21,0,7,,,,,,,,,11,,,,74,110
80042,note_on,0,0,7,,,,,,,,,11,,,,77,110
80046,note_on,60,0,8,,,,,,,,,12,,,,69,108
80050,note_on,60,0,9,,,,,,,,,13,,,,57,99
80051,note_on,60,0,3,,,,,,,,,3,,,,57,97
80052,note_on,60,0,10,,,,,,,,,14,,,,45,93
80079,note_on,39,0,6,,,,,,,,,10,,,,89,0
80081,note_on,0,0,7,,,,,,,,,11,,,,74,0
80081,note_on,39,0,7,,,,,,,,,11,,,,77,0
80100,note_on,21,0,6,,,,,,,,,10,,,,89,101
80102,note_on,0,0,7,,,,,,,,,11,,,,77,101
80102,note_on,21,0,7,,,,,,,,,11,,,,74,101
80106,note_on,60,0,8,,,,,,,,,12,,,,69,0
80110,note_on,60,0,9,,,,,,,,,13,,,,57,0
80111,note_on,60,0,3,,,,,,,,,3,,,,57,0
80112,note_on,60,0,10,,,,,,,,,14,,,,45,0
80139,note_on,39,0,6,,,,,,,,,10,,,,89,0
80141,note_on,39,0,7,,,,,,,,,11,,,,77,0
80141,note_on,0,0,7,,,,,,,,,11,,,,74,0
80160,set_tempo,240,1,0,,,,,,272727,,,,,,,,
80160,note_on,21,0,6,,,,,,,,,10,,,,89,110
80162,note_on,0,0,7,,,,,,,,,11,,,,77,110
80162,note_on,21,0,7,,,,,,,,,11,,,,74,110
80166,note_on,60,0,8,,,,,,,,,12,,,,70,108
80170,note_on,60,0,9,,,,,,,,,13,,,,58,99
80171,note_on,60,0,3,,,,,,,,,3,,,,58,97
80172,note_on,60,0,10,,,,,,,,,14,,,,46,93
80199,note_on,39,0,6,,,,,,,,,10,,,,89,0
80201,note_on,39,0,7,,,,,,,,,11,,,,77,0
80201,note_on,0,0,7,,,,,,,,,11,,,,74,0
80220,note_on,21,0,6,,,,,,,,,10,,,,89,101
80222,note_on,21,0,7,,,,,,,,,11,,,,77,101
80222,note_on,0,0,7,,,,,,,,,11,,,,74,101
80226,note_on,60,0,8,,,,,,,,,12,,,,70,0
80230,note_on,60,0,9,,,,,,,,,13,,,,58,0
80231,note_on,60,0,3,,,,,,,,,3,,,,58,0
80232,note_on,60,0,10,,,,,,,,,14,,,,46,0
80259,note_on,39,0,6,,,,,,,,,10,,,,89,0
80261,note_on,39,0,7,,,,,,,,,11,,,,74,0
80261,note_on,0,0,7,,,,,,,,,11,,,,77,0
80280,note_on,21,0,6,,,,,,,,,10,,,,89,110
80282,note_on,0,0,7,,,,,,,,,11,,,,74,110
80282,note_on,21,0,7,,,,,,,,,11,,,,77,110
80286,note_on,60,0,8,,,,,,,,,12,,,,73,108
80290,note_on,60,0,9,,,,,,,,,13,,,,61,99
80291,note_on,60,0,3,,,,,,,,,3,,,,61,97
80292,note_on,60,0,10,,,,,,,,,14,,,,49,93
80319,note_on,39,0,6,,,,,,,,,10,,,,89,0
80321,note_on,39,0,7,,,,,,,,,11,,,,74,0
80321,note_on,0,0,7,,,,,,,,,11,,,,77,0
80340,note_on,21,0,6,,,,,,,,,10,,,,89,101
80342,note_on,0,0,7,,,,,,,,,11,,,,74,101
80342,note_on,21,0,7,,,,,,,,,11,,,,77,101
80346,note_on,60,0,8,,,,,,,,,12,,,,73,0
80350,note_on,60,0,9,,,,,,,,,13,,,,61,0
80351,note_on,60,0,3,,,,,,,,,3,,,,61,0
80352,note_on,60,0,10,,,,,,,,,14,,,,49,0
80379,note_on,39,0,6,,,,,,,,,10,,,,89,0
80381,note_on,39,0,7,,,,,,,,,11,,,,74,0
80381,note_on,0,0,7,,,,,,,,,11,,,,77,0
80400,note_on,21,0,6,,,,,,,,,10,,,,89,110
80400,set_tempo,240,1,0,,,,,,261438,,,,,,,,
80402,note_on,0,0,7,,,,,,,,,11,,,,74,110
80402,note_on,21,0,7,,,,,,,,,11,,,,77,110
80406,note_on,60,0,8,,,,,,,,,12,,,,74,108
80410,note_on,60,0,9,,,,,,,,,13,,,,62,99
80411,note_on,60,0,3,,,,,,,,,3,,,,62,97
80412,note_on,60,0,10,,,,,,,,,14,,,,50,93
80439,note_on,39,0,6,,,,,,,,,10,,,,89,0
80441,note_on,39,0,7,,,,,,,,,11,,,,74,0
80441,note_on,0,0,7,,,,,,,,,11,,,,77,0
80460,note_on,21,0,6,,,,,,,,,10,,,,89,101
80462,note_on,21,0,7,,,,,,,,,11,,,,77,101
80462,note_on,0,0,7,,,,,,,,,11,,,,74,101
80466,note_on,60,0,8,,,,,,,,,12,,,,74,0
80470,note_on,60,0,9,,,,,,,,,13,,,,62,0
80471,note_on,60,0,3,,,,,,,,,3,,,,62,0
80472,note_on,60,0,10,,,,,,,,,14,,,,50,0
80499,note_on,39,0,6,,,,,,,,,10,,,,89,0
80501,note_on,39,0,7,,,,,,,,,11,,,,74,0
80501,note_on,0,0,7,,,,,,,,,11,,,,77,0
80520,note_on,21,0,6,,,,,,,,,10,,,,89,110
80522,note_on,21,0,7,,,,,,,,,11,,,,77,110
80522,note_on,0,0,7,,,,,,,,,11,,,,74,110
80526,note_on,60,0,8,,,,,,,,,12,,,,77,108
80530,note_on,60,0,9,,,,,,,,,13,,,,65,99
80531,note_on,60,0,3,,,,,,,,,3,,,,65,97
80532,note_on,60,0,10,,,,,,,,,14,,,,53,93
80559,note_on,39,0,6,,,,,,,,,10,,,,89,0
80561,note_on,39,0,7,,,,,,,,,11,,,,74,0
80561,note_on,0,0,7,,,,,,,,,11,,,,77,0
80580,note_on,21,0,6,,,,,,,,,10,,,,89,101
80582,note_on,21,0,7,,,,,,,,,11,,,,74,101
80582,note_on,0,0,7,,,,,,,,,11,,,,77,101
80586,note_on,60,0,8,,,,,,,,,12,,,,77,0
80590,note_on,60,0,9,,,,,,,,,13,,,,65,0
80591,note_on,60,0,3,,,,,,,,,3,,,,65,0
80592,note_on,60,0,10,,,,,,,,,14,,,,53,0
80619,note_on,39,0,6,,,,,,,,,10,,,,89,0
80621,note_on,0,0,7,,,,,,,,,11,,,,74,0
80621,note_on,39,0,7,,,,,,,,,11,,,,77,0
80640,control_change,21,0,6,,,,,,,,,10,11,85,,,
80640,note_on,0,0,6,,,,,,,,,10,,,,78,110
80640,set_tempo,240,1,0,,,,,,272727,,,,,,,,
80642,note_on,0,0,7,,,,,,,,,11,,,,78,110
80642,note_on,0,0,7,,,,,,,,,11,,,,72,110
80642,control_change,21,0,7,,,,,,,,,11,11,85,,,
80643,note_on,960,0,1,,,,,,,,,0,,,,89,0
80643,control_change,0,0,1,,,,,,,,,0,11,85,,,
80643,note_on,0,0,1,,,,,,,,,0,,,,90,97
80644,note_on,960,0,4,,,,,,,,,4,,,,65,0
80644,note_on,0,0,4,,,,,,,,,4,,,,62,96
80644,control_change,0,0,4,,,,,,,,,4,11,85,,,
80645,control_change,5,0,6,,,,,,,,,10,11,89,,,
80645,control_change,0,0,2,,,,,,,,,1,11,85,,,
80645,note_on,0,0,2,,,,,,,,,1,,,,72,97
80645,note_on,0,0,2,,,,,,,,,1,,,,69,97
80645,note_on,0,0,2,,,,,,,,,1,,,,77,0
80645,note_on,960,0,2,,,,,,,,,1,,,,74,0
80646,control_change,60,0,8,,,,,,,,,12,11,85,,,
80646,note_on,0,0,8,,,,,,,,,12,,,,69,108
80646,note_on,960,0,5,,,,,,,,,5,,,,62,0
80646,control_change,0,0,5,,,,,,,,,5,11,85,,,
80646,note_on,0,0,5,,,,,,,,,5,,,,50,96
80647,control_change,5,0,7,,,,,,,,,11,11,89,,,
80648,control_change,5,0,1,,,,,,,,,0,11,89,,,
80649,control_change,5,0,4,,,,,,,,,4,11,89,,,
80650,note_on,0,0,9,,,,,,,,,13,,,,50,99
80650,control_change,5,0,2,,,,,,,,,1,11,89,,,
80650,control_change,60,0,9,,,,,,,,,13,11,85,,,
80651,control_change,5,0,5,,,,,,,,,5,11,89,,,
80651,control_change,60,0,3,,,,,,,,,3,11,85,,,
80651,control_change,5,0,8,,,,,,,,,12,11,89,,,
80651,note_on,0,0,3,,,,,,,,,3,,,,50,97
80652,control_change,60,0,10,,,,,,,,,14,11,85,,,
80652,note_on,0,0,10,,,,,,,,,14,,,,38,93
80655,control_change,5,0,9,,,,,,,,,13,11,89,,,
80656,control_change,5,0,3,,,,,,,,,3,11,89,,,
80657,control_change,5,0,10,,,,,,,,,14,11,89,,,
80667,control_change,22,0,6,,,,,,,,,10,11,91,,,
80669,control_change,22,0,7,,,,,,,,,11,11,91,,,
80670,control_change,22,0,1,,,,,,,,,0,11,91,,,
80671,control_change,22,0,4,,,,,,,,,4,11,91,,,
80672,control_change,22,0,2,,,,,,,,,1,11,91,,,
80673,control_change,22,0,5,,,,,,,,,5,11,91,,,
80673,control_change,22,0,8,,,,,,,,,12,11,91,,,
80677,control_change,22,0,9,,,,,,,,,13,11,91,,,
80678,control_change,22,0,3,,,,,,,,,3,11,91,,,
80679,control_change,22,0,10,,,,,,,,,14,11,91,,,
80685,control_change,18,0,6,,,,,,,,,10,11,89,,,
80687,control_change,18,0,7,,,,,,,,,11,11,89,,,
80688,control_change,18,0,1,,,,,,,,,0,11,89,,,
80689,control_change,18,0,4,,,,,,,,,4,11,89,,,
80690,control_change,18,0,2,,,,,,,,,1,11,89,,,
80691,control_change,18,0,5,,,,,,,,,5,11,89,,,
80691,control_change,18,0,8,,,,,,,,,12,11,89,,,
80695,control_change,18,0,9,,,,,,,,,13,11,89,,,
80696,control_change,18,0,3,,,,,,,,,3,11,89,,,
80697,control_change,18,0,10,,,,,,,,,14,11,89,,,
80703,control_change,18,0,6,,,,,,,,,10,11,88,,,
80705,control_change,18,0,7,,,,,,,,,11,11,88,,,
80706,control_change,18,0,1,,,,,,,,,0,11,88,,,
80707,control_change,18,0,4,,,,,,,,,4,11,88,,,
80708,control_change,18,0,2,,,,,,,,,1,11,88,,,
80709,control_change,18,0,8,,,,,,,,,12,11,88,,,
80709,control_change,18,0,5,,,,,,,,,5,11,88,,,
80713,control_change,18,0,9,,,,,,,,,13,11,88,,,
80714,control_change,18,0,3,,,,,,,,,3,11,88,,,
80715,control_change,18,0,10,,,,,,,,,14,11,88,,,
80721,control_change,18,0,6,,,,,,,,,10,11,86,,,
80723,control_change,18,0,7,,,,,,,,,11,11,86,,,
80724,control_change,18,0,1,,,,,,,,,0,11,86,,,
80725,control_change,18,0,4,,,,,,,,,4,11,86,,,
80726,control_change,18,0,2,,,,,,,,,1,11,86,,,
80727,control_change,18,0,5,,,,,,,,,5,11,86,,,
80727,control_change,18,0,8,,,,,,,,,12,11,86,,,
80731,control_change,18,0,9,,,,,,,,,13,11,86,,,
80732,control_change,18,0,3,,,,,,,,,3,11,86,,,
80733,control_change,18,0,10,,,,,,,,,14,11,86,,,
80739,control_change,18,0,6,,,,,,,,,10,11,85,,,
80741,control_change,18,0,7,,,,,,,,,11,11,85,,,
80742,control_change,18,0,1,,,,,,,,,0,11,85,,,
80743,control_change,18,0,4,,,,,,,,,4,11,85,,,
80744,control_change,18,0,2,,,,,,,,,1,11,85,,,
80745,control_change,18,0,5,,,,,,,,,5,11,85,,,
80745,control_change,18,0,8,,,,,,,,,12,11,85,,,
80749,control_change,18,0,9,,,,,,,,,13,11,85,,,
80750,control_change,18,0,3,,,,,,,,,3,11,85,,,
80751,control_change,18,0,10,,,,,,,,,14,11,85,,,
80757,control_change,18,0,6,,,,,,,,,10,11,84,,,
80759,control_change,18,0,7,,,,,,,,,11,11,84,,,
80760,control_change,18,0,1,,,,,,,,,0,11,84,,,
80761,control_change,18,0,4,,,,,,,,,4,11,84,,,
80762,control_change,18,0,2,,,,,,,,,1,11,84,,,
80763,control_change,18,0,5,,,,,,,,,5,11,84,,,
80763,control_change,18,0,8,,,,,,,,,12,11,84,,,
80767,control_change,18,0,9,,,,,,,,,13,11,84,,,
80768,control_change,18,0,3,,,,,,,,,3,11,84,,,
80769,control_change,18,0,10,,,,,,,,,14,11,84,,,
80772,note_on,15,0,6,,,,,,,,,10,,,,78,0
80774,note_on,0,0,7,,,,,,,,,11,,,,78,0
80774,note_on,15,0,7,,,,,,,,,11,,,,72,0
80775,control_change,3,0,6,,,,,,,,,10,11,82,,,
80777,control_change,3,0,7,,,,,,,,,11,11,82,,,
80778,control_change,18,0,1,,,,,,,,,0,11,82,,,
80778,note_on,15,0,8,,,,,,,,,12,,,,69,0
80779,control_change,18,0,4,,,,,,,,,4,11,82,,,
80780,control_change,18,0,2,,,,,,,,,1,11,82,,,
80781,control_change,18,0,5,,,,,,,,,5,11,82,,,
80781,control_change,3,0,8,,,,,,,,,12,11,82,,,
80785,control_change,18,0,9,,,,,,,,,13,11,82,,,
80786,control_change,18,0,3,,,,,,,,,3,11,82,,,
80787,control_change,18,0,10,,,,,,,,,14,11,82,,,
80793,control_change,18,0,6,,,,,,,,,10,11,81,,,
80795,control_change,18,0,7,,,,,,,,,11,11,81,,,
80796,control_change,18,0,1,,,,,,,,,0,11,81,,,
80797,control_change,18,0,4,,,,,,,,,4,11,81,,,
80798,control_change,18,0,2,,,,,,,,,1,11,81,,,
80799,control_change,18,0,5,,,,,,,,,5,11,81,,,
80799,control_change,18,0,8,,,,,,,,,12,11,81,,,
80803,control_change,18,0,9,,,,,,,,,13,11,81,,,
80804,control_change,18,0,3,,,,,,,,,3,11,81,,,
80805,control_change,18,0,10,,,,,,,,,14,11,81,,,
80811,control_change,18,0,6,,,,,,,,,10,11,80,,,
80813,control_change,18,0,7,,,,,,,,,11,11,80,,,
80813,note_on,17,0,1,,,,,,,,,0,,,,90,0
80814,control_change,1,0,1,,,,,,,,,0,11,80,,,
80815,control_change,18,0,4,,,,,,,,,4,11,80,,,
80815,note_on,0,0,2,,,,,,,,,1,,,,69,0
80815,note_on,17,0,2,,,,,,,,,1,,,,72,0
80816,control_change,1,0,2,,,,,,,,,1,11,80,,,
80817,control_change,18,0,8,,,,,,,,,12,11,80,,,
80817,control_change,18,0,5,,,,,,,,,5,11,80,,,
80820,note_on,9,0,6,,,,,,,,,10,,,,79,110
80821,control_change,18,0,9,,,,,,,,,13,11,80,,,
80822,note_on,9,0,7,,,,,,,,,11,,,,74,110
80822,control_change,18,0,3,,,,,,,,,3,11,80,,,
80823,control_change,18,0,10,,,,,,,,,14,11,80,,,
80823,note_on,9,0,1,,,,,,,,,0,,,,91,97
80825,note_on,0,0,2,,,,,,,,,1,,,,74,97
80825,note_on,9,0,2,,,,,,,,,1,,,,70,97
80826,note_on,9,0,8,,,,,,,,,12,,,,70,108
80865,note_on,45,0,6,,,,,,,,,10,,,,79,0
80867,note_on,45,0,7,,,,,,,,,11,,,,74,0
80871,note_on,45,0,8,,,,,,,,,12,,,,70,0
80873,note_on,50,0,1,,,,,,,,,0,,,,91,0
80874,note_on,59,0,4,,,,,,,,,4,,,,62,0
80875,note_on,50,0,2,,,,,,,,,1,,,,74,0
80875,note_on,0,0,2,,,,,,,,,1,,,,70,0
80876,note_on,59,0,5,,,,,,,,,5,,,,50,0
80880,note_on,0,0,6,,,,,,,,,10,,,,81,110
80880,control_change,15,0,6,,,,,,,,,10,11,85,,,
80880,set_tempo,240,1,0,,,,,,261438,,,,,,,,
80881,note_on,59,0,3,,,,,,,,,3,,,,50,0
80882,control_change,15,0,7,,,,,,,,,11,11,85,,,
80882,note_on,0,0,7,,,,,,,,,11,,,,75,110
80883,note_on,0,0,1,,,,,,,,,0,,,,93,97
80883,control_change,10,0,1,,,,,,,,,0,11,85,,,
80884,note_on,0,0,4,,,,,,,,,4,,,,62,96
80884,control_change,10,0,4,,,,,,,,,4,11,85,,,
80885,note_on,0,0,2,,,,,,,,,1,,,,75,97
80885,control_change,5,0,6,,,,,,,,,10,11,89,,,
80885,note_on,0,0,2,,,,,,,,,1,,,,72,97
80885,control_change,10,0,2,,,,,,,,,1,11,85,,,
80885,note_on,64,0,9,,,,,,,,,13,,,,50,0
80886,note_on,0,0,5,,,,,,,,,5,,,,50,96
80886,control_change,15,0,8,,,,,,,,,12,11,85,,,
80886,note_on,0,0,8,,,,,,,,,12,,,,72,108
80886,control_change,10,0,5,,,,,,,,,5,11,85,,,
80887,control_change,5,0,7,,,,,,,,,11,11,89,,,
80887,note_on,64,0,10,,,,,,,,,14,,,,38,0
80888,control_change,5,0,1,,,,,,,,,0,11,89,,,
80889,control_change,5,0,4,,,,,,,,,4,11,89,,,
80890,control_change,5,0,9,,,,,,,,,13,11,85,,,
80890,note_on,0,0,9,,,,,,,,,13,,,,50,99
80890,control_change,5,0,2,,,,,,,,,1,11,89,,,
80891,control_change,5,0,8,,,,,,,,,12,11,89,,,
80891,note_on,0,0,3,,,,,,,,,3,,,,50,97
80891,control_change,10,0,3,,,,,,,,,3,11,85,,,
80891,control_change,5,0,5,,,,,,,,,5,11,89,,,
80892,note_on,0,0,10,,,,,,,,,14,,,,38,93
80892,control_change,5,0,10,,,,,,,,,14,11,85,,,
80895,control_change,5,0,9,,,,,,,,,13,11,89,,,
80896,control_change,5,0,3,,,,,,,,,3,11,89,,,
80897,control_change,5,0,10,,,,,,,,,14,11,89,,,
80907,control_change,22,0,6,,,,,,,,,10,11,91,,,
80909,control_change,22,0,7,,,,,,,,,11,11,91,,,
80910,control_change,22,0,1,,,,,,,,,0,11,91,,,
80911,control_change,22,0,4,,,,,,,,,4,11,91,,,
80912,control_change,22,0,2,,,,,,,,,1,11,91,,,
80913,control_change,22,0,5,,,,,,,,,5,11,91,,,
80913,control_change,22,0,8,,,,,,,,,12,11,91,,,
80917,control_change,22,0,9,,,,,,,,,13,11,91,,,
80918,control_change,22,0,3,,,,,,,,,3,11,91,,,
80919,control_change,22,0,10,,,,,,,,,14,11,91,,,
80925,control_change,18,0,6,,,,,,,,,10,11,89,,,
80927,control_change,18,0,7,,,,,,,,,11,11,89,,,
80928,control_change,18,0,1,,,,,,,,,0,11,89,,,
80929,control_change,18,0,4,,,,,,,,,4,11,89,,,
80930,control_change,18,0,2,,,,,,,,,1,11,89,,,
80931,control_change,18,0,8,,,,,,,,,12,11,89,,,
80931,control_change,18,0,5,,,,,,,,,5,11,89,,,
80935,control_change,18,0,9,,,,,,,,,13,11,89,,,
80936,control_change,18,0,3,,,,,,,,,3,11,89,,,
80937,control_change,18,0,10,,,,,,,,,14,11,89,,,
80943,control_change,18,0,6,,,,,,,,,10,11,88,,,
80945,control_change,18,0,7,,,,,,,,,11,11,88,,,
80946,control_change,18,0,1,,,,,,,,,0,11,88,,,
80947,control_change,18,0,4,,,,,,,,,4,11,88,,,
80948,control_change,18,0,2,,,,,,,,,1,11,88,,,
80949,control_change,18,0,8,,,,,,,,,12,11,88,,,
80949,control_change,18,0,5,,,,,,,,,5,11,88,,,
80953,control_change,18,0,9,,,,,,,,,13,11,88,,,
80954,control_change,18,0,3,,,,,,,,,3,11,88,,,
80955,control_change,18,0,10,,,,,,,,,14,11,88,,,
80961,control_change,18,0,6,,,,,,,,,10,11,86,,,
80963,control_change,18,0,7,,,,,,,,,11,11,86,,,
80964,control_change,18,0,1,,,,,,,,,0,11,86,,,
80965,control_change,18,0,4,,,,,,,,,4,11,86,,,
80966,control_change,18,0,2,,,,,,,,,1,11,86,,,
80967,control_change,18,0,5,,,,,,,,,5,11,86,,,
80967,control_change,18,0,8,,,,,,,,,12,11,86,,,
80971,control_change,18,0,9,,,,,,,,,13,11,86,,,
80972,control_change,18,0,3,,,,,,,,,3,11,86,,,
80973,control_change,18,0,10,,,,,,,,,14,11,86,,,
80979,control_change,18,0,6,,,,,,,,,10,11,85,,,
80981,control_change,18,0,7,,,,,,,,,11,11,85,,,
80982,control_change,18,0,1,,,,,,,,,0,11,85,,,
80983,control_change,18,0,4,,,,,,,,,4,11,85,,,
80984,control_change,18,0,2,,,,,,,,,1,11,85,,,
80985,control_change,18,0,8,,,,,,,,,12,11,85,,,
80985,control_change,18,0,5,,,,,,,,,5,11,85,,,
80989,control_change,18,0,9,,,,,,,,,13,11,85,,,
80990,control_change,18,0,3,,,,,,,,,3,11,85,,,
80991,control_change,18,0,10,,,,,,,,,14,11,85,,,
80997,control_change,18,0,6,,,,,,,,,10,11,84,,,
80999,control_change,18,0,7,,,,,,,,,11,11,84,,,
81000,control_change,18,0,1,,,,,,,,,0,11,84,,,
81001,control_change,18,0,4,,,,,,,,,4,11,84,,,
81002,control_change,18,0,2,,,,,,,,,1,11,84,,,
81003,control_change,18,0,5,,,,,,,,,5,11,84,,,
81003,control_change,18,0,8,,,,,,,,,12,11,84,,,
81007,control_change,18,0,9,,,,,,,,,13,11,84,,,
81008,control_change,18,0,3,,,,,,,,,3,11,84,,,
81009,control_change,18,0,10,,,,,,,,,14,11,84,,,
81012,note_on,15,0,6,,,,,,,,,10,,,,81,0
81014,note_on,15,0,7,,,,,,,,,11,,,,75,0
81015,control_change,3,0,6,,,,,,,,,10,11,82,,,
81017,control_change,3,0,7,,,,,,,,,11,11,82,,,
81018,control_change,18,0,1,,,,,,,,,0,11,82,,,
81018,note_on,15,0,8,,,,,,,,,12,,,,72,0
81019,control_change,18,0,4,,,,,,,,,4,11,82,,,
81020,control_change,18,0,2,,,,,,,,,1,11,82,,,
81021,control_change,18,0,5,,,,,,,,,5,11,82,,,
81021,control_change,3,0,8,,,,,,,,,12,11,82,,,
81025,control_change,18,0,9,,,,,,,,,13,11,82,,,
81026,control_change,18,0,3,,,,,,,,,3,11,82,,,
81027,control_change,18,0,10,,,,,,,,,14,11,82,,,
81033,control_change,18,0,6,,,,,,,,,10,11,81,,,
81035,control_change,18,0,7,,,,,,,,,11,11,81,,,
81036,control_change,18,0,1,,,,,,,,,0,11,81,,,
81037,control_change,18,0,4,,,,,,,,,4,11,81,,,
81038,control_change,18,0,2,,,,,,,,,1,11,81,,,
81039,control_change,18,0,8,,,,,,,,,12,11,81,,,
81039,control_change,18,0,5,,,,,,,,,5,11,81,,,
81043,control_change,18,0,9,,,,,,,,,13,11,81,,,
81044,control_change,18,0,3,,,,,,,,,3,11,81,,,
81045,control_change,18,0,10,,,,,,,,,14,11,81,,,
81051,control_change,18,0,6,,,,,,,,,10,11,80,,,
81053,control_change,18,0,7,,,,,,,,,11,11,80,,,
81053,note_on,17,0,1,,,,,,,,,0,,,,93,0
81054,control_change,1,0,1,,,,,,,,,0,11,80,,,
81055,control_change,18,0,4,,,,,,,,,4,11,80,,,
81055,note_on,17,0,2,,,,,,,,,1,,,,75,0
81055,note_on,0,0,2,,,,,,,,,1,,,,72,0
81056,control_change,1,0,2,,,,,,,,,1,11,80,,,
81057,control_change,18,0,8,,,,,,,,,12,11,80,,,
81057,control_change,18,0,5,,,,,,,,,5,11,80,,,
81060,note_on,9,0,6,,,,,,,,,10,,,,79,110
81061,control_change,18,0,9,,,,,,,,,13,11,80,,,
81062,control_change,18,0,3,,,,,,,,,3,11,80,,,
81062,note_on,9,0,7,,,,,,,,,11,,,,74,110
81063,note_on,9,0,1,,,,,,,,,0,,,,91,97
81063,control_change,18,0,10,,,,,,,,,14,11,80,,,
81065,note_on,0,0,2,,,,,,,,,1,,,,70,97
81065,note_on,9,0,2,,,,,,,,,1,,,,74,97
81066,note_on,9,0,8,,,,,,,,,12,,,,70,108
81105,note_on,45,0,6,,,,,,,,,10,,,,79,0
81107,note_on,45,0,7,,,,,,,,,11,,,,74,0
81111,note_on,45,0,8,,,,,,,,,12,,,,70,0
81113,note_on,50,0,1,,,,,,,,,0,,,,91,0
81114,note_on,59,0,4,,,,,,,,,4,,,,62,0
81115,note_on,0,0,2,,,,,,,,,1,,,,74,0
81115,note_on,50,0,2,,,,,,,,,1,,,,70,0
81116,note_on,59,0,5,,,,,,,,,5,,,,50,0
81120,note_on,0,0,6,,,,,,,,,10,,,,78,110
81120,control_change,15,0,6,,,,,,,,,10,11,85,,,
81120,set_tempo,240,1,0,,,,,,272727,,,,,,,,
81121,note_on,59,0,3,,,,,,,,,3,,,,50,0
81122,note_on,0,0,7,,,,,,,,,11,,,,72,110
81122,control_change,15,0,7,,,,,,,,,11,11,85,,,
81123,note_on,0,0,1,,,,,,,,,0,,,,90,97
81123,control_change,10,0,1,,,,,,,,,0,11,85,,,
81124,control_change,10,0,4,,,,,,,,,4,11,85,,,
81124,note_on,0,0,4,,,,,,,,,4,,,,62,96
81125,control_change,5,0,6,,,,,,,,,10,11,89,,,
81125,note_on,0,0,2,,,,,,,,,1,,,,72,97
81125,note_on,0,0,2,,,,,,,,,1,,,,69,97
81125,control_change,10,0,2,,,,,,,,,1,11,85,,,
81125,note_on,64,0,9,,,,,,,,,13,,,,50,0
81126,note_on,0,0,5,,,,,,,,,5,,,,50,96
81126,control_change,15,0,8,,,,,,,,,12,11,85,,,
81126,control_change,10,0,5,,,,,,,,,5,11,85,,,
81126,note_on,0,0,8,,,,,,,,,12,,,,69,108
81127,control_change,5,0,7,,,,,,,,,11,11,89,,,
81127,note_on,64,0,10,,,,,,,,,14,,,,38,0
81128,control_change,5,0,1,,,,,,,,,0,11,89,,,
81129,control_change,5,0,4,,,,,,,,,4,11,89,,,
81130,control_change,5,0,9,,,,,,,,,13,11,85,,,
81130,note_on,0,0,9,,,,,,,,,13,,,,50,99
81130,control_change,5,0,2,,,,,,,,,1,11,89,,,
81131,note_on,0,0,3,,,,,,,,,3,,,,50,97
81131,control_change,10,0,3,,,,,,,,,3,11,85,,,
81131,control_change,5,0,5,,,,,,,,,5,11,89,,,
81131,control_change,5,0,8,,,,,,,,,12,11,89,,,
81132,note_on,0,0,10,,,,,,,,,14,,,,38,93
81132,control_change,5,0,10,,,,,,,,,14,11,85,,,
81135,control_change,5,0,9,,,,,,,,,13,11,89,,,
81136,control_change,5,0,3,,,,,,,,,3,11,89,,,
81137,control_change,5,0,10,,,,,,,,,14,11,89,,,
81147,control_change,22,0,6,,,,,,,,,10,11,91,,,
81149,control_change,22,0,7,,,,,,,,,11,11,91,,,
81150,control_change,22,0,1,,,,,,,,,0,11,91,,,
81151,control_change,22,0,4,,,,,,,,,4,11,91,,,
81152,control_change,22,0,2,,,,,,,,,1,11,91,,,
81153,control_change,22,0,5,,,,,,,,,5,11,91,,,
81153,control_change,22,0,8,,,,,,,,,12,11,91,,,
81157,control_change,22,0,9,,,,,,,,,13,11,91,,,
81158,control_change,22,0,3,,,,,,,,,3,11,91,,,
81159,control_change,22,0,10,,,,,,,,,14,11,91,,,
81165,control_change,18,0,6,,,,,,,,,10,11,89,,,
81167,control_change,18,0,7,,,,,,,,,11,11,89,,,
81168,control_change,18,0,1,,,,,,,,,0,11,89,,,
81169,control_change,18,0,4,,,,,,,,,4,11,89,,,
81170,control_change,18,0,2,,,,,,,,,1,11,89,,,
81171,control_change,18,0,5,,,,,,,,,5,11,89,,,
81171,control_change,18,0,8,,,,,,,,,12,11,89,,,
81175,control_change,18,0,9,,,,,,,,,13,11,89,,,
81176,control_change,18,0,3,,,,,,,,,3,11,89,,,
81177,control_change,18,0,10,,,,,,,,,14,11,89,,,
81183,control_change,18,0,6,,,,,,,,,10,11,88,,,
81185,control_change,18,0,7,,,,,,,,,11,11,88,,,
81186,control_change,18,0,1,,,,,,,,,0,11,88,,,
81187,control_change,18,0,4,,,,,,,,,4,11,88,,,
81188,control_change,18,0,2,,,,,,,,,1,11,88,,,
81189,control_change,18,0,8,,,,,,,,,12,11,88,,,
81189,control_change,18,0,5,,,,,,,,,5,11,88,,,
81193,control_change,18,0,9,,,,,,,,,13,11,88,,,
81194,control_change,18,0,3,,,,,,,,,3,11,88,,,
81195,control_change,18,0,10,,,,,,,,,14,11,88,,,
81201,control_change,18,0,6,,,,,,,,,10,11,86,,,
81203,control_change,18,0,7,,,,,,,,,11,11,86,,,
81204,control_change,18,0,1,,,,,,,,,0,11,86,,,
81205,control_change,18,0,4,,,,,,,,,4,11,86,,,
81206,control_change,18,0,2,,,,,,,,,1,11,86,,,
81207,control_change,18,0,8,,,,,,,,,12,11,86,,,
81207,control_change,18,0,5,,,,,,,,,5,11,86,,,
81211,control_change,18,0,9,,,,,,,,,13,11,86,,,
81212,control_change,18,0,3,,,,,,,,,3,11,86,,,
81213,control_change,18,0,10,,,,,,,,,14,11,86,,,
81219,control_change,18,0,6,,,,,,,,,10,11,85,,,
81221,control_change,18,0,7,,,,,,,,,11,11,85,,,
81222,control_change,18,0,1,,,,,,,,,0,11,85,,,
81223,control_change,18,0,4,,,,,,,,,4,11,85,,,
81224,control_change,18,0,2,,,,,,,,,1,11,85,,,
81225,control_change,18,0,8,,,,,,,,,12,11,85,,,
81225,control_change,18,0,5,,,,,,,,,5,11,85,,,
81229,control_change,18,0,9,,,,,,,,,13,11,85,,,
81230,control_change,18,0,3,,,,,,,,,3,11,85,,,
81231,control_change,18,0,10,,,,,,,,,14,11,85,,,
81237,control_change,18,0,6,,,,,,,,,10,11,84,,,
81239,control_change,18,0,7,,,,,,,,,11,11,84,,,
81240,control_change,18,0,1,,,,,,,,,0,11,84,,,
81241,control_change,18,0,4,,,,,,,,,4,11,84,,,
81242,control_change,18,0,2,,,,,,,,,1,11,84,,,
81243,control_change,18,0,8,,,,,,,,,12,11,84,,,
81243,control_change,18,0,5,,,,,,,,,5,11,84,,,
81247,control_change,18,0,9,,,,,,,,,13,11,84,,,
81248,control_change,18,0,3,,,,,,,,,3,11,84,,,
81249,control_change,18,0,10,,,,,,,,,14,11,84,,,
81252,note_on,15,0,6,,,,,,,,,10,,,,78,0
81254,note_on,15,0,7,,,,,,,,,11,,,,72,0
81255,control_change,3,0,6,,,,,,,,,10,11,82,,,
81257,control_change,3,0,7,,,,,,,,,11,11,82,,,
81258,note_on,15,0,8,,,,,,,,,12,,,,69,0
81258,control_change,18,0,1,,,,,,,,,0,11,82,,,
81259,control_change,18,0,4,,,,,,,,,4,11,82,,,
81260,control_change,18,0,2,,,,,,,,,1,11,82,,,
81261,control_change,18,0,5,,,,,,,,,5,11,82,,,
81261,control_change,3,0,8,,,,,,,,,12,11,82,,,
81265,control_change,18,0,9,,,,,,,,,13,11,82,,,
81266,control_change,18,0,3,,,,,,,,,3,11,82,,,
81267,control_change,18,0,10,,,,,,,,,14,11,82,,,
81273,control_change,18,0,6,,,,,,,,,10,11,81,,,
81275,control_change,18,0,7,,,,,,,,,11,11,81,,,
81276,control_change,18,0,1,,,,,,,,,0,11,81,,,
81277,control_change,18,0,4,,,,,,,,,4,11,81,,,
81278,control_change,18,0,2,,,,,,,,,1,11,81,,,
81279,control_change,18,0,8,,,,,,,,,12,11,81,,,
81279,control_change,18,0,5,,,,,,,,,5,11,81,,,
81283,control_change,18,0,9,,,,,,,,,13,11,81,,,
81284,control_change,18,0,3,,,,,,,,,3,11,81,,,
81285,control_change,18,0,10,,,,,,,,,14,11,81,,,
81291,control_change,18,0,6,,,,,,,,,10,11,80,,,
81293,note_on,17,0,1,,,,,,,,,0,,,,90,0
81293,control_change,18,0,7,,,,,,,,,11,11,80,,,
81294,control_change,1,0,1,,,,,,,,,0,11,80,,,
81295,note_on,0,0,2,,,,,,,,,1,,,,69,0
81295,control_change,18,0,4,,,,,,,,,4,11,80,,,
81295,note_on,17,0,2,,,,,,,,,1,,,,72,0
81296,control_change,1,0,2,,,,,,,,,1,11,80,,,
81297,control_change,18,0,5,,,,,,,,,5,11,80,,,
81297,control_change,18,0,8,,,,,,,,,12,11,80,,,
81300,note_on,9,0,6,,,,,,,,,10,,,,75,110
81301,control_change,18,0,9,,,,,,,,,13,11,80,,,
81302,control_change,18,0,3,,,,,,,,,3,11,80,,,
81302,note_on,9,0,7,,,,,,,,,11,,,,70,110
81303,control_change,18,0,10,,,,,,,,,14,11,80,,,
81303,note_on,9,0,1,,,,,,,,,0,,,,87,97
81305,note_on,0,0,2,,,,,,,,,1,,,,70,97
81305,note_on,9,0,2,,,,,,,,,1,,,,67,97
81306,note_on,9,0,8,,,,,,,,,12,,,,67,108
81345,note_on,45,0,6,,,,,,,,,10,,,,75,0
81347,note_on,45,0,7,,,,,,,,,11,,,,70,0
81351,note_on,45,0,8,,,,,,,,,12,,,,67,0
81353,note_on,50,0,1,,,,,,,,,0,,,,87,0
81354,note_on,59,0,4,,,,,,,,,4,,,,62,0
81355,note_on,50,0,2,,,,,,,,,1,,,,70,0
81355,note_on,0,0,2,,,,,,,,,1,,,,67,0
81356,note_on,59,0,5,,,,,,,,,5,,,,50,0
81360,note_on,0,0,6,,,,,,,,,10,,,,74,110
81360,set_tempo,240,1,0,,,,,,261438,,,,,,,,
81360,control_change,15,0,6,,,,,,,,,10,11,85,,,
81361,note_on,59,0,3,,,,,,,,,3,,,,50,0
81362,control_change,15,0,7,,,,,,,,,11,11,85,,,
81362,note_on,0,0,7,,,,,,,,,11,,,,69,110
81363,note_on,0,0,1,,,,,,,,,0,,,,86,97
81363,control_change,10,0,1,,,,,,,,,0,11,85,,,
81364,control_change,10,0,4,,,,,,,,,4,11,85,,,
81364,note_on,0,0,4,,,,,,,,,4,,,,62,96
81365,control_change,10,0,2,,,,,,,,,1,11,85,,,
81365,note_on,0,0,2,,,,,,,,,1,,,,69,97
81365,control_change,5,0,6,,,,,,,,,10,11,89,,,
81365,note_on,64,0,9,,,,,,,,,13,,,,50,0
81365,note_on,0,0,2,,,,,,,,,1,,,,66,97
81366,note_on,0,0,5,,,,,,,,,5,,,,50,96
81366,control_change,15,0,8,,,,,,,,,12,11,85,,,
81366,note_on,0,0,8,,,,,,,,,12,,,,66,108
81366,control_change,10,0,5,,,,,,,,,5,11,85,,,
81367,note_on,64,0,10,,,,,,,,,14,,,,38,0
81367,control_change,5,0,7,,,,,,,,,11,11,89,,,
81368,control_change,5,0,1,,,,,,,,,0,11,89,,,
81369,control_change,5,0,4,,,,,,,,,4,11,89,,,
81370,note_on,0,0,9,,,,,,,,,13,,,,50,99
81370,control_change,5,0,2,,,,,,,,,1,11,89,,,
81370,control_change,5,0,9,,,,,,,,,13,11,85,,,
81371,control_change,5,0,5,,,,,,,,,5,11,89,,,
81371,control_change,5,0,8,,,,,,,,,12,11,89,,,
81371,note_on,0,0,3,,,,,,,,,3,,,,50,97
81371,control_change,10,0,3,,,,,,,,,3,11,85,,,
81372,note_on,0,0,10,,,,,,,,,14,,,,38,93
81372,control_change,5,0,10,,,,,,,,,14,11,85,,,
81375,control_change,5,0,9,,,,,,,,,13,11,89,,,
81376,control_change,5,0,3,,,,,,,,,3,11,89,,,
81377,control_change,5,0,10,,,,,,,,,14,11,89,,,
81387,control_change,22,0,6,,,,,,,,,10,11,91,,,
81389,control_change,22,0,7,,,,,,,,,11,11,91,,,
81390,control_change,22,0,1,,,,,,,,,0,11,91,,,
81391,control_change,22,0,4,,,,,,,,,4,11,91,,,
81392,control_change,22,0,2,,,,,,,,,1,11,91,,,
81393,control_change,22,0,5,,,,,,,,,5,11,91,,,
81393,control_change,22,0,8,,,,,,,,,12,11,91,,,
81397,control_change,22,0,9,,,,,,,,,13,11,91,,,
81398,control_change,22,0,3,,,,,,,,,3,11,91,,,
81399,control_change,22,0,10,,,,,,,,,14,11,91,,,
81405,control_change,18,0,6,,,,,,,,,10,11,89,,,
81407,control_change,18,0,7,,,,,,,,,11,11,89,,,
81408,control_change,18,0,1,,,,,,,,,0,11,89,,,
81409,control_change,18,0,4,,,,,,,,,4,11,89,,,
81410,control_change,18,0,2,,,,,,,,,1,11,89,,,
81411,control_change,18,0,5,,,,,,,,,5,11,89,,,
81411,control_change,18,0,8,,,,,,,,,12,11,89,,,
81415,control_change,18,0,9,,,,,,,,,13,11,89,,,
81416,control_change,18,0,3,,,,,,,,,3,11,89,,,
81417,control_change,18,0,10,,,,,,,,,14,11,89,,,
81423,control_change,18,0,6,,,,,,,,,10,11,88,,,
81425,control_change,18,0,7,,,,,,,,,11,11,88,,,
81426,control_change,18,0,1,,,,,,,,,0,11,88,,,
81427,control_change,18,0,4,,,,,,,,,4,11,88,,,
81428,control_change,18,0,2,,,,,,,,,1,11,88,,,
81429,control_change,18,0,5,,,,,,,,,5,11,88,,,
81429,control_change,18,0,8,,,,,,,,,12,11,88,,,
81433,control_change,18,0,9,,,,,,,,,13,11,88,,,
81434,control_change,18,0,3,,,,,,,,,3,11,88,,,
81435,control_change,18,0,10,,,,,,,,,14,11,88,,,
81441,control_change,18,0,6,,,,,,,,,10,11,86,,,
81443,control_change,18,0,7,,,,,,,,,11,11,86,,,
81444,control_change,18,0,1,,,,,,,,,0,11,86,,,
81445,control_change,18,0,4,,,,,,,,,4,11,86,,,
81446,control_change,18,0,2,,,,,,,,,1,11,86,,,
81447,control_change,18,0,5,,,,,,,,,5,11,86,,,
81447,control_change,18,0,8,,,,,,,,,12,11,86,,,
81451,control_change,18,0,9,,,,,,,,,13,11,86,,,
81452,control_change,18,0,3,,,,,,,,,3,11,86,,,
81453,control_change,18,0,10,,,,,,,,,14,11,86,,,
81459,control_change,18,0,6,,,,,,,,,10,11,85,,,
81461,control_change,18,0,7,,,,,,,,,11,11,85,,,
81462,control_change,18,0,1,,,,,,,,,0,11,85,,,
81463,control_change,18,0,4,,,,,,,,,4,11,85,,,
81464,control_change,18,0,2,,,,,,,,,1,11,85,,,
81465,control_change,18,0,8,,,,,,,,,12,11,85,,,
81465,control_change,18,0,5,,,,,,,,,5,11,85,,,
81469,control_change,18,0,9,,,,,,,,,13,11,85,,,
81470,control_change,18,0,3,,,,,,,,,3,11,85,,,
81471,control_change,18,0,10,,,,,,,,,14,11,85,,,
81477,control_change,18,0,6,,,,,,,,,10,11,84,,,
81479,control_change,18,0,7,,,,,,,,,11,11,84,,,
81480,control_change,18,0,1,,,,,,,,,0,11,84,,,
81481,control_change,18,0,4,,,,,,,,,4,11,84,,,
81482,control_change,18,0,2,,,,,,,,,1,11,84,,,
81483,control_change,18,0,5,,,,,,,,,5,11,84,,,
81483,control_change,18,0,8,,,,,,,,,12,11,84,,,
81487,control_change,18,0,9,,,,,,,,,13,11,84,,,
81488,control_change,18,0,3,,,,,,,,,3,11,84,,,
81489,control_change,18,0,10,,,,,,,,,14,11,84,,,
81492,note_on,15,0,6,,,,,,,,,10,,,,74,0
81494,note_on,15,0,7,,,,,,,,,11,,,,69,0
81495,control_change,3,0,6,,,,,,,,,10,11,82,,,
81497,control_change,3,0,7,,,,,,,,,11,11,82,,,
81498,note_on,15,0,8,,,,,,,,,12,,,,66,0
81498,control_change,18,0,1,,,,,,,,,0,11,82,,,
81499,control_change,18,0,4,,,,,,,,,4,11,82,,,
81500,control_change,18,0,2,,,,,,,,,1,11,82,,,
81501,control_change,18,0,5,,,,,,,,,5,11,82,,,
81501,control_change,3,0,8,,,,,,,,,12,11,82,,,
81505,control_change,18,0,9,,,,,,,,,13,11,82,,,
81506,control_change,18,0,3,,,,,,,,,3,11,82,,,
81507,control_change,18,0,10,,,,,,,,,14,11,82,,,
81513,control_change,18,0,6,,,,,,,,,10,11,81,,,
81515,control_change,18,0,7,,,,,,,,,11,11,81,,,
81516,control_change,18,0,1,,,,,,,,,0,11,81,,,
81517,control_change,18,0,4,,,,,,,,,4,11,81,,,
81518,control_change,18,0,2,,,,,,,,,1,11,81,,,
81519,control_change,18,0,5,,,,,,,,,5,11,81,,,
81519,control_change,18,0,8,,,,,,,,,12,11,81,,,
81523,control_change,18,0,9,,,,,,,,,13,11,81,,,
81524,control_change,18,0,3,,,,,,,,,3,11,81,,,
81525,control_change,18,0,10,,,,,,,,,14,11,81,,,
81531,control_change,18,0,6,,,,,,,,,10,11,80,,,
81533,note_on,17,0,1,,,,,,,,,0,,,,86,0
81533,control_change,18,0,7,,,,,,,,,11,11,80,,,
81534,control_change,1,0,1,,,,,,,,,0,11,80,,,
81535,note_on,17,0,2,,,,,,,,,1,,,,69,0
81535,note_on,0,0,2,,,,,,,,,1,,,,66,0
81535,control_change,18,0,4,,,,,,,,,4,11,80,,,
81536,control_change,1,0,2,,,,,,,,,1,11,80,,,
81537,control_change,18,0,5,,,,,,,,,5,11,80,,,
81537,control_change,18,0,8,,,,,,,,,12,11,80,,,
81540,note_on,9,0,6,,,,,,,,,10,,,,72,110
81541,control_change,18,0,9,,,,,,,,,13,11,80,,,
81542,note_on,9,0,7,,,,,,,,,11,,,,66,110
81542,control_change,18,0,3,,,,,,,,,3,11,80,,,
81543,note_on,9,0,1,,,,,,,,,0,,,,84,97
81543,control_change,18,0,10,,,,,,,,,14,11,80,,,
81545,note_on,0,0,2,,,,,,,,,1,,,,69,97
81545,note_on,9,0,2,,,,,,,,,1,,,,78,97
81546,note_on,9,0,8,,,,,,,,,12,,,,60,108
81585,note_on,45,0,6,,,,,,,,,10,,,,72,0
81587,note_on,45,0,7,,,,,,,,,11,,,,66,0
81591,note_on,45,0,8,,,,,,,,,12,,,,60,0
81593,note_on,50,0,1,,,,,,,,,0,,,,84,0
81594,note_on,59,0,4,,,,,,,,,4,,,,62,0
81595,note_on,50,0,2,,,,,,,,,1,,,,69,0
81595,note_on,0,0,2,,,,,,,,,1,,,,78,0
81596,note_on,59,0,5,,,,,,,,,5,,,,50,0
81600,note_on,15,0,6,,,,,,,,,10,,,,70,110
81600,set_tempo,240,1,0,,,,,,272727,,,,,,,,
81601,note_on,59,0,3,,,,,,,,,3,,,,50,0
81602,note_on,15,0,7,,,,,,,,,11,,,,67,110
81603,note_on,10,0,1,,,,,,,,,0,,,,82,97
81604,note_on,10,0,4,,,,,,,,,4,,,,62,96
81605,note_on,10,0,2,,,,,,,,,1,,,,70,97
81605,note_on,0,0,2,,,,,,,,,1,,,,79,97
81605,note_on,64,0,9,,,,,,,,,13,,,,50,0
81606,note_on,15,0,8,,,,,,,,,12,,,,58,108
81606,note_on,10,0,5,,,,,,,,,5,,,,62,96
81607,note_on,64,0,10,,,,,,,,,14,,,,38,0
81610,note_on,5,0,9,,,,,,,,,13,,,,43,99
81611,note_on,10,0,3,,,,,,,,,3,,,,55,97
81612,note_on,5,0,10,,,,,,,,,14,,,,31,93
81641,note_on,39,0,7,,,,,,,,,11,,,,67,0
81645,note_on,39,0,8,,,,,,,,,12,,,,58,0
81662,note_on,21,0,7,,,,,,,,,11,,,,62,101
81662,note_on,0,0,7,,,,,,,,,11,,,,70,101
81666,note_on,21,0,8,,,,,,,,,12,,,,67,99
81701,note_on,39,0,7,,,,,,,,,11,,,,70,0
81701,note_on,0,0,7,,,,,,,,,11,,,,62,0
81705,note_on,39,0,8,,,,,,,,,12,,,,67,0
81722,note_on,21,0,7,,,,,,,,,11,,,,70,110
81722,note_on,0,0,7,,,,,,,,,11,,,,62,110
81726,note_on,21,0,8,,,,,,,,,12,,,,67,108
81761,note_on,0,0,7,,,,,,,,,11,,,,70,0
81761,note_on,39,0,7,,,,,,,,,11,,,,62,0
81765,note_on,39,0,8,,,,,,,,,12,,,,67,0
81765,note_on,165,0,6,,,,,,,,,10,,,,70,0
81780,note_on,15,0,6,,,,,,,,,10,,,,74,110
81782,note_on,21,0,7,,,,,,,,,11,,,,70,101
81782,note_on,0,0,7,,,,,,,,,11,,,,62,101
81786,note_on,21,0,8,,,,,,,,,12,,,,67,99
81815,note_on,35,0,6,,,,,,,,,10,,,,74,0
81821,note_on,0,0,7,,,,,,,,,11,,,,70,0
81821,note_on,39,0,7,,,,,,,,,11,,,,62,0
81825,note_on,39,0,8,,,,,,,,,12,,,,67,0
81840,note_on,25,0,6,,,,,,,,,10,,,,79,110
81840,set_tempo,240,1,0,,,,,,261438,,,,,,,,
81842,note_on,21,0,7,,,,,,,,,11,,,,70,110
81842,note_on,0,0,7,,,,,,,,,11,,,,62,110
81845,note_on,235,0,9,,,,,,,,,13,,,,43,0
81846,note_on,21,0,8,,,,,,,,,12,,,,67,108
81847,note_on,235,0,10,,,,,,,,,14,,,,31,0
81881,note_on,0,0,7,,,,,,,,,11,,,,70,0
81881,note_on,39,0,7,,,,,,,,,11,,,,62,0
81885,note_on,39,0,8,,,,,,,,,12,,,,67,0
81902,note_on,21,0,7,,,,,,,,,11,,,,62,101
81902,note_on,0,0,7,,,,,,,,,11,,,,70,101
81906,note_on,21,0,8,,,,,,,,,12,,,,67,99
81911,note_on,71,0,6,,,,,,,,,10,,,,79,0
81941,note_on,0,0,7,,,,,,,,,11,,,,62,0
81941,note_on,39,0,7,,,,,,,,,11,,,,70,0
81945,note_on,39,0,8,,,,,,,,,12,,,,67,0
81960,note_on,49,0,6,,,,,,,,,10,,,,82,110
81962,note_on,0,0,7,,,,,,,,,11,,,,62,110
81962,note_on,21,0,7,,,,,,,,,11,,,,70,110
81966,note_on,21,0,8,,,,,,,,,12,,,,67,108
82001,note_on,39,0,7,,,,,,,,,11,,,,62,0
82001,note_on,0,0,7,,,,,,,,,11,,,,70,0
82005,note_on,39,0,8,,,,,,,,,12,,,,67,0
82022,note_on,0,0,7,,,,,,,,,11,,,,70,101
82022,note_on,21,0,7,,,,,,,,,11,,,,62,101
82026,note_on,21,0,8,,,,,,,,,12,,,,67,99
82031,note_on,71,0,6,,,,,,,,,10,,,,82,0
82061,note_on,0,0,7,,,,,,,,,11,,,,62,0
82061,note_on,39,0,7,,,,,,,,,11,,,,70,0
82065,note_on,39,0,8,,,,,,,,,12,,,,67,0
82073,note_on,470,0,1,,,,,,,,,0,,,,82,0
82074,note_on,470,0,4,,,,,,,,,4,,,,62,0
82075,note_on,470,0,2,,,,,,,,,1,,,,79,0
82075,note_on,0,0,2,,,,,,,,,1,,,,70,0
82076,note_on,470,0,5,,,,,,,,,5,,,,62,0
82080,note_on,49,0,6,,,,,,,,,10,,,,83,110
82080,set_tempo,240,1,0,,,,,,272727,,,,,,,,
82081,note_on,470,0,3,,,,,,,,,3,,,,55,0
82082,note_on,21,0,7,,,,,,,,,11,,,,71,110
82082,note_on,0,0,7,,,,,,,,,11,,,,62,110
82083,note_on,10,0,1,,,,,,,,,0,,,,83,97
82084,note_on,10,0,4,,,,,,,,,4,,,,62,96
82085,note_on,0,0,2,,,,,,,,,1,,,,80,97
82085,note_on,10,0,2,,,,,,,,,1,,,,71,97
82086,note_on,21,0,8,,,,,,,,,12,,,,68,108
82086,note_on,10,0,5,,,,,,,,,5,,,,62,96
82090,note_on,245,0,9,,,,,,,,,13,,,,53,99
82091,note_on,10,0,3,,,,,,,,,3,,,,53,97
82092,note_on,245,0,10,,,,,,,,,14,,,,41,93
82121,note_on,39,0,7,,,,,,,,,11,,,,62,0
82121,note_on,0,0,7,,,,,,,,,11,,,,71,0
82125,note_on,39,0,8,,,,,,,,,12,,,,68,0
82142,note_on,21,0,7,,,,,,,,,11,,,,71,101
82142,note_on,0,0,7,,,,,,,,,11,,,,62,101
82146,note_on,21,0,8,,,,,,,,,12,,,,68,99
82181,note_on,39,0,7,,,,,,,,,11,,,,62,0
82181,note_on,0,0,7,,,,,,,,,11,,,,71,0
82185,note_on,39,0,8,,,,,,,,,12,,,,68,0
82202,note_on,21,0,7,,,,,,,,,11,,,,62,110
82202,note_on,0,0,7,,,,,,,,,11,,,,71,110
82206,note_on,21,0,8,,,,,,,,,12,,,,68,108
82241,note_on,39,0,7,,,,,,,,,11,,,,71,0
82241,note_on,0,0,7,,,,,,,,,11,,,,62,0
82245,note_on,39,0,8,,,,,,,,,12,,,,68,0
82262,note_on,21,0,7,,,,,,,,,11,,,,71,101
82262,note_on,0,0,7,,,,,,,,,11,,,,62,101
82265,note_on,175,0,9,,,,,,,,,13,,,,53,0
82266,note_on,21,0,8,,,,,,,,,12,,,,68,99
82267,note_on,175,0,10,,,,,,,,,14,,,,41,0
82270,note_on,5,0,9,,,,,,,,,13,,,,59,99
82272,note_on,5,0,10,,,,,,,,,14,,,,47,93
82290,note_on,210,0,6,,,,,,,,,10,,,,83,0
82301,note_on,39,0,7,,,,,,,,,11,,,,62,0
82301,note_on,0,0,7,,,,,,,,,11,,,,71,0
82305,note_on,39,0,8,,,,,,,,,12,,,,68,0
82309,note_on,39,0,9,,,,,,,,,13,,,,59,0
82311,note_on,39,0,10,,,,,,,,,14,,,,47,0
82320,set_tempo,240,1,0,,,,,,261438,,,,,,,,
82320,note_on,30,0,6,,,,,,,,,10,,,,71,110
82322,note_on,21,0,7,,,,,,,,,11,,,,62,110
82322,note_on,0,0,7,,,,,,,,,11,,,,71,110
82326,note_on,21,0,8,,,,,,,,,12,,,,68,108
82330,note_on,21,0,9,,,,,,,,,13,,,,62,99
82332,note_on,21,0,10,,,,,,,,,14,,,,50,93
82361,note_on,39,0,7,,,,,,,,,11,,,,71,0
82361,note_on,0,0,7,,,,,,,,,11,,,,62,0
82365,note_on,39,0,8,,,,,,,,,12,,,,68,0
82382,note_on,0,0,7,,,,,,,,,11,,,,62,101
82382,note_on,21,0,7,,,,,,,,,11,,,,71,101
82386,note_on,21,0,8,,,,,,,,,12,,,,68,99
82421,note_on,39,0,7,,,,,,,,,11,,,,62,0
82421,note_on,0,0,7,,,,,,,,,11,,,,71,0
82425,note_on,39,0,8,,,,,,,,,12,,,,68,0
82442,note_on,21,0,7,,,,,,,,,11,,,,62,110
82442,note_on,0,0,7,,,,,,,,,11,,,,71,110
82445,note_on,115,0,9,,,,,,,,,13,,,,62,0
82446,note_on,21,0,8,,,,,,,,,12,,,,65,108
82447,note_on,115,0,10,,,,,,,,,14,,,,50,0
82450,note_on,5,0,9,,,,,,,,,13,,,,65,99
82452,note_on,5,0,10,,,,,,,,,14,,,,53,93
82481,note_on,39,0,7,,,,,,,,,11,,,,71,0
82481,note_on,0,0,7,,,,,,,,,11,,,,62,0
82485,note_on,39,0,8,,,,,,,,,12,,,,65,0
82502,note_on,0,0,7,,,,,,,,,11,,,,71,101
82502,note_on,21,0,7,,,,,,,,,11,,,,62,101
82506,note_on,21,0,8,,,,,,,,,12,,,,65,99
82530,note_on,210,0,6,,,,,,,,,10,,,,71,0
82541,note_on,39,0,7,,,,,,,,,11,,,,71,0
82541,note_on,0,0,7,,,,,,,,,11,,,,62,0
82545,note_on,39,0,8,,,,,,,,,12,,,,65,0
82553,note_on,470,0,1,,,,,,,,,0,,,,83,0
82554,note_on,470,0,4,,,,,,,,,4,,,,62,0
82555,note_on,470,0,2,,,,,,,,,1,,,,80,0
82555,note_on,0,0,2,,,,,,,,,1,,,,71,0
82556,note_on,470,0,5,,,,,,,,,5,,,,62,0
82560,set_tempo,240,1,0,,,,,,272727,,,,,,,,
82560,note_on,30,0,6,,,,,,,,,10,,,,72,110
82561,note_on,470,0,3,,,,,,,,,3,,,,53,0
82562,note_on,0,0,7,,,,,,,,,11,,,,72,110
82562,note_on,21,0,7,,,,,,,,,11,,,,67,110
82563,note_on,10,0,1,,,,,,,,,0,,,,84,97
82564,note_on,10,0,4,,,,,,,,,4,,,,60,96
82565,note_on,0,0,2,,,,,,,,,1,,,,79,97
82565,note_on,10,0,2,,,,,,,,,1,,,,72,97
82565,note_on,115,0,9,,,,,,,,,13,,,,65,0
82566,note_on,21,0,8,,,,,,,,,12,,,,64,108
82566,note_on,10,0,5,,,,,,,,,5,,,,60,96
82567,note_on,115,0,10,,,,,,,,,14,,,,53,0
82570,note_on,5,0,9,,,,,,,,,13,,,,64,99
82571,note_on,10,0,3,,,,,,,,,3,,,,52,97
82572,note_on,5,0,10,,,,,,,,,14,,,,52,93
82601,note_on,0,0,7,,,,,,,,,11,,,,67,0
82601,note_on,39,0,7,,,,,,,,,11,,,,72,0
82605,note_on,39,0,8,,,,,,,,,12,,,,64,0
82622,note_on,0,0,7,,,,,,,,,11,,,,67,101
82622,note_on,21,0,7,,,,,,,,,11,,,,72,101
82626,note_on,21,0,8,,,,,,,,,12,,,,64,99
82661,note_on,0,0,7,,,,,,,,,11,,,,72,0
82661,note_on,39,0,7,,,,,,,,,11,,,,67,0
82665,note_on,39,0,8,,,,,,,,,12,,,,64,0
82682,note_on,21,0,7,,,,,,,,,11,,,,67,110
82682,note_on,0,0,7,,,,,,,,,11,,,,72,110
82686,note_on,21,0,8,,,,,,,,,12,,,,64,108
82721,note_on,39,0,7,,,,,,,,,11,,,,72,0
82721,note_on,0,0,7,,,,,,,,,11,,,,67,0
82725,note_on,165,0,6,,,,,,,,,10,,,,72,0
82725,note_on,39,0,8,,,,,,,,,12,,,,64,0
82740,note_on,15,0,6,,,,,,,,,10,,,,76,110
82742,note_on,21,0,7,,,,,,,,,11,,,,72,101
82742,note_on,0,0,7,,,,,,,,,11,,,,67,101
82746,note_on,21,0,8,,,,,,,,,12,,,,64,99
82775,note_on,35,0,6,,,,,,,,,10,,,,76,0
82781,note_on,39,0,7,,,,,,,,,11,,,,67,0
82781,note_on,0,0,7,,,,,,,,,11,,,,72,0
82785,note_on,39,0,8,,,,,,,,,12,,,,64,0
82800,set_tempo,240,1,0,,,,,,261438,,,,,,,,
82800,note_on,25,0,6,,,,,,,,,10,,,,79,110
82802,note_on,0,0,7,,,,,,,,,11,,,,67,110
82802,note_on,21,0,7,,,,,,,,,11,,,,72,110
82805,note_on,235,0,9,,,,,,,,,13,,,,64,0
82806,note_on,21,0,8,,,,,,,,,12,,,,64,108
82807,note_on,235,0,10,,,,,,,,,14,,,,52,0
82810,note_on,5,0,9,,,,,,,,,13,,,,52,99
82812,note_on,5,0,10,,,,,,,,,14,,,,40,93
82841,note_on,39,0,7,,,,,,,,,11,,,,67,0
82841,note_on,0,0,7,,,,,,,,,11,,,,72,0
82845,note_on,39,0,8,,,,,,,,,12,,,,64,0
82862,note_on,21,0,7,,,,,,,,,11,,,,72,101
82862,note_on,0,0,7,,,,,,,,,11,,,,67,101
82866,note_on,21,0,8,,,,,,,,,12,,,,64,99
82870,note_on,70,0,6,,,,,,,,,10,,,,79,0
82901,note_on,0,0,7,,,,,,,,,11,,,,72,0
82901,note_on,39,0,7,,,,,,,,,11,,,,67,0
82905,note_on,39,0,8,,,,,,,,,12,,,,64,0
82920,note_on,50,0,6,,,,,,,,,10,,,,84,110
82922,note_on,0,0,7,,,,,,,,,11,,,,72,110
82922,note_on,21,0,7,,,,,,,,,11,,,,67,110
82926,note_on,21,0,8,,,,,,,,,12,,,,64,108
82961,note_on,39,0,7,,,,,,,,,11,,,,72,0
82961,note_on,0,0,7,,,,,,,,,11,,,,67,0
82965,note_on,39,0,8,,,,,,,,,12,,,,64,0
82982,note_on,0,0,7,,,,,,,,,11,,,,67,101
82982,note_on,21,0,7,,,,,,,,,11,,,,72,101
82986,note_on,21,0,8,,,,,,,,,12,,,,64,99
82990,note_on,70,0,6,,,,,,,,,10,,,,84,0
83021,note_on,0,0,7,,,,,,,,,11,,,,72,0
83021,note_on,39,0,7,,,,,,,,,11,,,,67,0
83025,note_on,39,0,8,,,,,,,,,12,,,,64,0
83033,note_on,470,0,1,,,,,,,,,0,,,,84,0
83034,note_on,470,0,4,,,,,,,,,4,,,,60,0
83035,note_on,0,0,2,,,,,,,,,1,,,,72,0
83035,note_on,470,0,2,,,,,,,,,1,,,,79,0
83036,note_on,470,0,5,,,,,,,,,5,,,,60,0
83040,set_tempo,240,1,0,,,,,,272727,,,,,,,,
83040,note_on,50,0,6,,,,,,,,,10,,,,81,110
83041,note_on,470,0,3,,,,,,,,,3,,,,52,0
83042,note_on,0,0,7,,,,,,,,,11,,,,66,110
83042,note_on,21,0,7,,,,,,,,,11,,,,69,110
83043,note_on,10,0,1,,,,,,,,,0,,,,81,97
83044,note_on,10,0,4,,,,,,,,,4,,,,60,96
83045,note_on,235,0,9,,,,,,,,,13,,,,52,0
83045,note_on,0,0,2,,,,,,,,,1,,,,78,97
83045,note_on,10,0,2,,,,,,,,,1,,,,69,97
83046,note_on,21,0,8,,,,,,,,,12,,,,63,108
83046,note_on,10,0,5,,,,,,,,,5,,,,60,96
83047,note_on,235,0,10,,,,,,,,,14,,,,40,0
83050,note_on,5,0,9,,,,,,,,,13,,,,51,99
83051,note_on,10,0,3,,,,,,,,,3,,,,51,97
83052,note_on,5,0,10,,,,,,,,,14,,,,39,93
83081,note_on,39,0,7,,,,,,,,,11,,,,66,0
83081,note_on,0,0,7,,,,,,,,,11,,,,69,0
83085,note_on,39,0,8,,,,,,,,,12,,,,63,0
83102,note_on,0,0,7,,,,,,,,,11,,,,69,101
83102,note_on,21,0,7,,,,,,,,,11,,,,66,101
83106,note_on,21,0,8,,,,,,,,,12,,,,63,99
83141,note_on,39,0,7,,,,,,,,,11,,,,69,0
83141,note_on,0,0,7,,,,,,,,,11,,,,66,0
83145,note_on,39,0,8,,,,,,,,,12,,,,63,0
83162,note_on,0,0,7,,,,,,,,,11,,,,66,110
83162,note_on,21,0,7,,,,,,,,,11,,,,69,110
83166,note_on,21,0,8,,,,,,,,,12,,,,63,108
83201,note_on,0,0,7,,,,,,,,,11,,,,69,0
83201,note_on,39,0,7,,,,,,,,,11,,,,66,0
83205,note_on,39,0,8,,,,,,,,,12,,,,63,0
83222,note_on,0,0,7,,,,,,,,,11,,,,66,101
83222,note_on,21,0,7,,,,,,,,,11,,,,69,101
83225,note_on,175,0,9,,,,,,,,,13,,,,51,0
83226,note_on,21,0,8,,,,,,,,,12,,,,63,99
83227,note_on,175,0,10,,,,,,,,,14,,,,39,0
83230,note_on,5,0,9,,,,,,,,,13,,,,57,99
83232,note_on,5,0,10,,,,,,,,,14,,,,45,93
83250,note_on,210,0,6,,,,,,,,,10,,,,81,0
83261,note_on,39,0,7,,,,,,,,,11,,,,66,0
83261,note_on,0,0,7,,,,,,,,,11,,,,69,0
83265,note_on,39,0,8,,,,,,,,,12,,,,63,0
83269,note_on,39,0,9,,,,,,,,,13,,,,57,0
83271,note_on,39,0,10,,,,,,,,,14,,,,45,0
83280,note_on,30,0,6,,,,,,,,,10,,,,69,110
83280,set_tempo,240,1,0,,,,,,261438,,,,,,,,
83282,note_on,0,0,7,,,,,,,,,11,,,,69,110
83282,note_on,21,0,7,,,,,,,,,11,,,,66,110
83286,note_on,21,0,8,,,,,,,,,12,,,,63,108
83290,note_on,21,0,9,,,,,,,,,13,,,,60,99
83292,note_on,21,0,10,,,,,,,,,14,,,,48,93
83321,note_on,0,0,7,,,,,,,,,11,,,,66,0
83321,note_on,39,0,7,,,,,,,,,11,,,,69,0
83325,note_on,39,0,8,,,,,,,,,12,,,,63,0
83342,note_on,21,0,7,,,,,,,,,11,,,,69,101
83342,note_on,0,0,7,,,,,,,,,11,,,,66,101
83346,note_on,21,0,8,,,,,,,,,12,,,,63,99
83381,note_on,39,0,7,,,,,,,,,11,,,,66,0
83381,note_on,0,0,7,,,,,,,,,11,,,,69,0
83385,note_on,39,0,8,,,,,,,,,12,,,,63,0
83402,note_on,21,0,7,,,,,,,,,11,,,,66,110
83402,note_on,0,0,7,,,,,,,,,11,,,,69,110
83405,note_on,115,0,9,,,,,,,,,13,,,,60,0
83406,note_on,21,0,8,,,,,,,,,12,,,,63,108
83407,note_on,115,0,10,,,,,,,,,14,,,,48,0
83410,note_on,5,0,9,,,,,,,,,13,,,,63,99
83412,note_on,5,0,10,,,,,,,,,14,,,,51,93
83441,note_on,0,0,7,,,,,,,,,11,,,,66,0
83441,note_on,39,0,7,,,,,,,,,11,,,,69,0
83445,note_on,39,0,8,,,,,,,,,12,,,,63,0
83462,note_on,21,0,7,,,,,,,,,11,,,,66,101
83462,note_on,0,0,7,,,,,,,,,11,,,,69,101
83466,note_on,21,0,8,,,,,,,,,12,,,,63,99
83490,note_on,210,0,6,,,,,,,,,10,,,,69,0
83501,note_on,39,0,7,,,,,,,,,11,,,,69,0
83501,note_on,0,0,7,,,,,,,,,11,,,,66,0
83505,note_on,39,0,8,,,,,,,,,12,,,,63,0
83513,note_on,470,0,1,,,,,,,,,0,,,,81,0
83514,note_on,470,0,4,,,,,,,,,4,,,,60,0
83515,note_on,0,0,2,,,,,,,,,1,,,,69,0
83515,note_on,470,0,2,,,,,,,,,1,,,,78,0
83516,note_on,470,0,5,,,,,,,,,5,,,,60,0
83520,set_tempo,240,1,0,,,,,,272727,,,,,,,,
83520,note_on,30,0,6,,,,,,,,,10,,,,70,110
83521,note_on,470,0,3,,,,,,,,,3,,,,51,0
83522,note_on,21,0,7,,,,,,,,,11,,,,65,110
83522,note_on,0,0,7,,,,,,,,,11,,,,70,110
83523,note_on,10,0,1,,,,,,,,,0,,,,82,97
83524,note_on,10,0,4,,,,,,,,,4,,,,65,96
83525,note_on,115,0,9,,,,,,,,,13,,,,63,0
83525,note_on,0,0,2,,,,,,,,,1,,,,70,97
83525,note_on,10,0,2,,,,,,,,,1,,,,77,97
83526,note_on,10,0,5,,,,,,,,,5,,,,58,96
83526,note_on,21,0,8,,,,,,,,,12,,,,62,108
83527,note_on,115,0,10,,,,,,,,,14,,,,51,0
83530,note_on,5,0,9,,,,,,,,,13,,,,62,99
83531,note_on,10,0,3,,,,,,,,,3,,,,50,97
83532,note_on,5,0,10,,,,,,,,,14,,,,50,93
83561,note_on,39,0,7,,,,,,,,,11,,,,70,0
83561,note_on,0,0,7,,,,,,,,,11,,,,65,0
83565,note_on,39,0,8,,,,,,,,,12,,,,62,0
83582,note_on,0,0,7,,,,,,,,,11,,,,70,101
83582,note_on,21,0,7,,,,,,,,,11,,,,65,101
83586,note_on,21,0,8,,,,,,,,,12,,,,62,99
83621,note_on,0,0,7,,,,,,,,,11,,,,65,0
83621,note_on,39,0,7,,,,,,,,,11,,,,70,0
83625,note_on,39,0,8,,,,,,,,,12,,,,62,0
83642,note_on,0,0,7,,,,,,,,,11,,,,65,110
83642,note_on,21,0,7,,,,,,,,,11,,,,70,110
83646,note_on,21,0,8,,,,,,,,,12,,,,62,108
83681,note_on,0,0,7,,,,,,,,,11,,,,70,0
83681,note_on,39,0,7,,,,,,,,,11,,,,65,0
83685,note_on,165,0,6,,,,,,,,,10,,,,70,0
83685,note_on,39,0,8,,,,,,,,,12,,,,62,0
83700,note_on,15,0,6,,,,,,,,,10,,,,74,110
83702,note_on,21,0,7,,,,,,,,,11,,,,70,101
83702,note_on,0,0,7,,,,,,,,,11,,,,65,101
83706,note_on,21,0,8,,,,,,,,,12,,,,62,99
83735,note_on,35,0,6,,,,,,,,,10,,,,74,0
83741,note_on,39,0,7,,,,,,,,,11,,,,65,0
83741,note_on,0,0,7,,,,,,,,,11,,,,70,0
83745,note_on,39,0,8,,,,,,,,,12,,,,62,0
83760,note_on,25,0,6,,,,,,,,,10,,,,77,110
83760,set_tempo,240,1,0,,,,,,261438,,,,,,,,
83762,note_on,0,0,7,,,,,,,,,11,,,,65,110
83762,note_on,21,0,7,,,,,,,,,11,,,,70,110
83765,note_on,235,0,9,,,,,,,,,13,,,,62,0
83766,note_on,21,0,8,,,,,,,,,12,,,,62,108
83767,note_on,235,0,10,,,,,,,,,14,,,,50,0
83770,note_on,5,0,9,,,,,,,,,13,,,,50,99
83772,note_on,5,0,10,,,,,,,,,14,,,,38,93
83801,note_on,39,0,7,,,,,,,,,11,,,,65,0
83801,note_on,0,0,7,,,,,,,,,11,,,,70,0
83805,note_on,39,0,8,,,,,,,,,12,,,,62,0
83822,note_on,21,0,7,,,,,,,,,11,,,,70,101
83822,note_on,0,0,7,,,,,,,,,11,,,,65,101
83826,note_on,21,0,8,,,,,,,,,12,,,,62,99
83830,note_on,70,0,6,,,,,,,,,10,,,,77,0
83861,note_on,0,0,7,,,,,,,,,11,,,,70,0
83861,note_on,39,0,7,,,,,,,,,11,,,,65,0
83865,note_on,39,0,8,,,,,,,,,12,,,,62,0
83880,note_on,50,0,6,,,,,,,,,10,,,,82,110
83882,note_on,21,0,7,,,,,,,,,11,,,,65,110
83882,note_on,0,0,7,,,,,,,,,11,,,,70,110
83886,note_on,21,0,8,,,,,,,,,12,,,,62,108
83921,note_on,39,0,7,,,,,,,,,11,,,,70,0
83921,note_on,0,0,7,,,,,,,,,11,,,,65,0
83925,note_on,39,0,8,,,,,,,,,12,,,,62,0
83942,note_on,21,0,7,,,,,,,,,11,,,,65,101
83942,note_on,0,0,7,,,,,,,,,11,,,,70,101
83946,note_on,21,0,8,,,,,,,,,12,,,,62,99
83950,note_on,70,0,6,,,,,,,,,10,,,,82,0
83981,note_on,39,0,7,,,,,,,,,11,,,,70,0
83981,note_on,0,0,7,,,,,,,,,11,,,,65,0
83985,note_on,39,0,8,,,,,,,,,12,,,,62,0
83993,note_on,470,0,1,,,,,,,,,0,,,,82,0
83994,note_on,470,0,4,,,,,,,,,4,,,,65,0
83995,note_on,470,0,2,,,,,,,,,1,,,,70,0
83995,note_on,0,0,2,,,,,,,,,1,,,,77,0
83996,note_on,470,0,5,,,,,,,,,5,,,,58,0
84000,note_on,50,0,6,,,,,,,,,10,,,,83,110
84000,set_tempo,240,1,0,,,,,,272727,,,,,,,,
84001,note_on,470,0,3,,,,,,,,,3,,,,50,0
84002,note_on,21,0,7,,,,,,,,,11,,,,65,110
84002,note_on,0,0,7,,,,,,,,,11,,,,71,110
84003,note_on,10,0,1,,,,,,,,,0,,,,83,97
84004,note_on,10,0,4,,,,,,,,,4,,,,65,96
84005,note_on,10,0,2,,,,,,,,,1,,,,65,110
84005,note_on,0,0,2,,,,,,,,,1,,,,77,110
84005,note_on,235,0,9,,,,,,,,,13,,,,50,0
84006,note_on,10,0,5,,,,,,,,,5,,,,53,96
84006,note_on,21,0,8,,,,,,,,,12,,,,61,108
84007,note_on,235,0,10,,,,,,,,,14,,,,38,0
84010,note_on,5,0,9,,,,,,,,,13,,,,49,99
84011,note_on,10,0,3,,,,,,,,,3,,,,49,97
84012,note_on,5,0,10,,,,,,,,,14,,,,37,93
84041,note_on,39,0,7,,,,,,,,,11,,,,71,0
84041,note_on,0,0,7,,,,,,,,,11,,,,65,0
84045,note_on,39,0,8,,,,,,,,,12,,,,61,0
84062,note_on,21,0,7,,,,,,,,,11,,,,71,101
84062,note_on,0,0,7,,,,,,,,,11,,,,65,101
84066,note_on,21,0,8,,,,,,,,,12,,,,61,99
84101,note_on,0,0,7,,,,,,,,,11,,,,71,0
84101,note_on,39,0,7,,,,,,,,,11,,,,65,0
84105,note_on,39,0,8,,,,,,,,,12,,,,61,0
84122,note_on,21,0,7,,,,,,,,,11,,,,71,110
84122,note_on,0,0,7,,,,,,,,,11,,,,65,110
84126,note_on,21,0,8,,,,,,,,,12,,,,61,108
84161,note_on,39,0,7,,,,,,,,,11,,,,65,0
84161,note_on,0,0,7,,,,,,,,,11,,,,71,0
84165,note_on,39,0,8,,,,,,,,,12,,,,61,0
84175,note_on,170,0,2,,,,,,,,,1,,,,77,0
84175,note_on,0,0,2,,,,,,,,,1,,,,65,0
84182,note_on,0,0,7,,,,,,,,,11,,,,71,101
84182,note_on,21,0,7,,,,,,,,,11,,,,65,101
84185,note_on,175,0,9,,,,,,,,,13,,,,49,0
84185,note_on,10,0,2,,,,,,,,,1,,,,67,110
84185,note_on,0,0,2,,,,,,,,,1,,,,79,110
84186,note_on,21,0,8,,,,,,,,,12,,,,61,99
84187,note_on,175,0,10,,,,,,,,,14,,,,37,0
84190,note_on,5,0,9,,,,,,,,,13,,,,53,99
84192,note_on,5,0,10,,,,,,,,,14,,,,41,93
84210,note_on,210,0,6,,,,,,,,,10,,,,83,0
84221,note_on,0,0,7,,,,,,,,,11,,,,65,0
84221,note_on,39,0,7,,,,,,,,,11,,,,71,0
84225,note_on,39,0,8,,,,,,,,,12,,,,61,0
84229,note_on,39,0,9,,,,,,,,,13,,,,53,0
84231,note_on,39,0,10,,,,,,,,,14,,,,41,0
84235,note_on,0,0,2,,,,,,,,,1,,,,67,0
84235,note_on,50,0,2,,,,,,,,,1,,,,79,0
84240,note_on,30,0,6,,,,,,,,,10,,,,71,110
84240,set_tempo,240,1,0,,,,,,261438,,,,,,,,
84242,note_on,21,0,7,,,,,,,,,11,,,,71,110
84242,note_on,0,0,7,,,,,,,,,11,,,,65,110
84245,note_on,10,0,2,,,,,,,,,1,,,,80,110
84245,note_on,0,0,2,,,,,,,,,1,,,,68,110
84246,note_on,21,0,8,,,,,,,,,12,,,,61,108
84250,note_on,21,0,9,,,,,,,,,13,,,,56,99
84252,note_on,21,0,10,,,,,,,,,14,,,,44,93
84281,note_on,39,0,7,,,,,,,,,11,,,,65,0
84281,note_on,0,0,7,,,,,,,,,11,,,,71,0
84285,note_on,39,0,8,,,,,,,,,12,,,,61,0
84302,note_on,0,0,7,,,,,,,,,11,,,,71,101
84302,note_on,21,0,7,,,,,,,,,11,,,,65,101
84305,note_on,60,0,2,,,,,,,,,1,,,,68,0
84305,note_on,0,0,2,,,,,,,,,1,,,,80,0
84306,note_on,21,0,8,,,,,,,,,12,,,,61,99
84341,note_on,0,0,7,,,,,,,,,11,,,,65,0
84341,note_on,39,0,7,,,,,,,,,11,,,,71,0
84345,note_on,39,0,8,,,,,,,,,12,,,,61,0
84362,note_on,0,0,7,,,,,,,,,11,,,,65,110
84362,note_on,21,0,7,,,,,,,,,11,,,,71,110
84365,note_on,60,0,2,,,,,,,,,1,,,,65,110
84365,note_on,115,0,9,,,,,,,,,13,,,,56,0
84365,note_on,0,0,2,,,,,,,,,1,,,,77,110
84366,note_on,21,0,8,,,,,,,,,12,,,,61,108
84367,note_on,115,0,10,,,,,,,,,14,,,,44,0
84370,note_on,5,0,9,,,,,,,,,13,,,,61,99
84372,note_on,5,0,10,,,,,,,,,14,,,,49,93
84401,note_on,0,0,7,,,,,,,,,11,,,,71,0
84401,note_on,39,0,7,,,,,,,,,11,,,,65,0
84405,note_on,39,0,8,,,,,,,,,12,,,,61,0
84422,note_on,21,0,7,,,,,,,,,11,,,,65,101
84422,note_on,0,0,7,,,,,,,,,11,,,,71,101
84425,note_on,0,0,2,,,,,,,,,1,,,,65,0
84425,note_on,60,0,2,,,,,,,,,1,,,,77,0
84426,note_on,21,0,8,,,,,,,,,12,,,,61,99
84450,note_on,210,0,6,,,,,,,,,10,,,,71,0
84461,note_on,39,0,7,,,,,,,,,11,,,,71,0
84461,note_on,0,0,7,,,,,,,,,11,,,,65,0
84465,note_on,39,0,8,,,,,,,,,12,,,,61,0
84473,note_on,470,0,1,,,,,,,,,0,,,,83,0
84474,note_on,470,0,4,,,,,,,,,4,,,,65,0
84476,note_on,470,0,5,,,,,,,,,5,,,,53,0
84480,set_tempo,240,1,0,,,,,,272727,,,,,,,,
84480,note_on,30,0,6,,,,,,,,,10,,,,72,110
84481,note_on,470,0,3,,,,,,,,,3,,,,49,0
84482,note_on,0,0,7,,,,,,,,,11,,,,72,110
84482,note_on,21,0,7,,,,,,,,,11,,,,64,110
84483,note_on,10,0,1,,,,,,,,,0,,,,84,97
84484,note_on,10,0,4,,,,,,,,,4,,,,60,96
84485,note_on,60,0,2,,,,,,,,,1,,,,76,97
84485,note_on,0,0,2,,,,,,,,,1,,,,72,97
84485,note_on,115,0,9,,,,,,,,,13,,,,61,0
84486,note_on,21,0,8,,,,,,,,,12,,,,60,108
84486,note_on,10,0,5,,,,,,,,,5,,,,60,96
84487,note_on,115,0,10,,,,,,,,,14,,,,49,0
84490,note_on,5,0,9,,,,,,,,,13,,,,60,99
84491,note_on,10,0,3,,,,,,,,,3,,,,48,97
84492,note_on,5,0,10,,,,,,,,,14,,,,48,93
84521,note_on,0,0,7,,,,,,,,,11,,,,64,0
84521,note_on,39,0,7,,,,,,,,,11,,,,72,0
84525,note_on,39,0,8,,,,,,,,,12,,,,60,0
84542,note_on,0,0,7,,,,,,,,,11,,,,64,101
84542,note_on,21,0,7,,,,,,,,,11,,,,72,101
84546,note_on,21,0,8,,,,,,,,,12,,,,60,99
84581,note_on,0,0,7,,,,,,,,,11,,,,72,0
84581,note_on,39,0,7,,,,,,,,,11,,,,64,0
84585,note_on,39,0,8,,,,,,,,,12,,,,60,0
84602,note_on,0,0,7,,,,,,,,,11,,,,72,110
84602,note_on,21,0,7,,,,,,,,,11,,,,64,110
84606,note_on,21,0,8,,,,,,,,,12,,,,60,108
84641,note_on,0,0,7,,,,,,,,,11,,,,64,0
84641,note_on,39,0,7,,,,,,,,,11,,,,72,0
84645,note_on,39,0,8,,,,,,,,,12,,,,60,0
84645,note_on,165,0,6,,,,,,,,,10,,,,72,0
84660,note_on,15,0,6,,,,,,,,,10,,,,76,110
84662,note_on,21,0,7,,,,,,,,,11,,,,64,101
84662,note_on,0,0,7,,,,,,,,,11,,,,72,101
84666,note_on,21,0,8,,,,,,,,,12,,,,60,99
84695,note_on,35,0,6,,,,,,,,,10,,,,76,0
84701,note_on,0,0,7,,,,,,,,,11,,,,64,0
84701,note_on,39,0,7,,,,,,,,,11,,,,72,0
84705,note_on,39,0,8,,,,,,,,,12,,,,60,0
84720,note_on,25,0,6,,,,,,,,,10,,,,79,110
84720,set_tempo,240,1,0,,,,,,261438,,,,,,,,
84722,note_on,0,0,7,,,,,,,,,11,,,,64,110
84722,note_on,21,0,7,,,,,,,,,11,,,,72,110
84725,note_on,235,0,9,,,,,,,,,13,,,,60,0
84726,note_on,21,0,8,,,,,,,,,12,,,,60,108
84727,note_on,235,0,10,,,,,,,,,14,,,,48,0
84730,note_on,5,0,9,,,,,,,,,13,,,,48,99
84732,note_on,5,0,10,,,,,,,,,14,,,,36,93
84761,note_on,39,0,7,,,,,,,,,11,,,,64,0
84761,note_on,0,0,7,,,,,,,,,11,,,,72,0
84765,note_on,39,0,8,,,,,,,,,12,,,,60,0
84782,note_on,0,0,7,,,,,,,,,11,,,,64,101
84782,note_on,21,0,7,,,,,,,,,11,,,,72,101
84786,note_on,21,0,8,,,,,,,,,12,,,,60,99
84790,note_on,70,0,6,,,,,,,,,10,,,,79,0
84821,note_on,39,0,7,,,,,,,,,11,,,,64,0
84821,note_on,0,0,7,,,,,,,,,11,,,,72,0
84825,note_on,39,0,8,,,,,,,,,12,,,,60,0
84840,note_on,50,0,6,,,,,,,,,10,,,,84,110
84842,note_on,0,0,7,,,,,,,,,11,,,,64,110
84842,note_on,21,0,7,,,,,,,,,11,,,,72,110
84846,note_on,21,0,8,,,,,,,,,12,,,,60,108
84881,note_on,39,0,7,,,,,,,,,11,,,,64,0
84881,note_on,0,0,7,,,,,,,,,11,,,,72,0
84885,note_on,39,0,8,,,,,,,,,12,,,,60,0
84902,note_on,21,0,7,,,,,,,,,11,,,,64,101
84902,note_on,0,0,7,,,,,,,,,11,,,,72,101
84906,note_on,21,0,8,,,,,,,,,12,,,,60,99
84910,note_on,70,0,6,,,,,,,,,10,,,,84,0
84941,note_on,0,0,7,,,,,,,,,11,,,,64,0
84941,note_on,39,0,7,,,,,,,,,11,,,,72,0
84945,note_on,39,0,8,,,,,,,,,12,,,,60,0
84953,note_on,470,0,1,,,,,,,,,0,,,,84,0
84954,note_on,470,0,4,,,,,,,,,4,,,,60,0
84955,note_on,0,0,2,,,,,,,,,1,,,,76,0
84955,note_on,470,0,2,,,,,,,,,1,,,,72,0
84956,note_on,470,0,5,,,,,,,,,5,,,,60,0
84960,note_on,50,0,6,,,,,,,,,10,,,,89,110
84960,set_tempo,240,1,0,,,,,,272727,,,,,,,,
84961,note_on,470,0,3,,,,,,,,,3,,,,48,0
84962,note_on,0,0,7,,,,,,,,,11,,,,65,110
84962,note_on,21,0,7,,,,,,,,,11,,,,71,110
84963,note_on,10,0,1,,,,,,,,,0,,,,89,97
84964,note_on,10,0,4,,,,,,,,,4,,,,65,96
84965,note_on,10,0,2,,,,,,,,,1,,,,77,97
84965,note_on,235,0,9,,,,,,,,,13,,,,48,0
84965,note_on,0,0,2,,,,,,,,,1,,,,71,97
84966,note_on,10,0,5,,,,,,,,,5,,,,53,96
84966,note_on,21,0,8,,,,,,,,,12,,,,61,108
84967,note_on,235,0,10,,,,,,,,,14,,,,36,0
84970,note_on,5,0,9,,,,,,,,,13,,,,49,99
84971,note_on,10,0,3,,,,,,,,,3,,,,49,97
84972,note_on,5,0,10,,,,,,,,,14,,,,37,93
85001,note_on,0,0,7,,,,,,,,,11,,,,71,0
85001,note_on,39,0,7,,,,,,,,,11,,,,65,0
85005,note_on,39,0,8,,,,,,,,,12,,,,61,0
85022,note_on,0,0,7,,,,,,,,,11,,,,71,101
85022,note_on,21,0,7,,,,,,,,,11,,,,65,101
85026,note_on,21,0,8,,,,,,,,,12,,,,61,99
85061,note_on,0,0,7,,,,,,,,,11,,,,65,0
85061,note_on,39,0,7,,,,,,,,,11,,,,71,0
85065,note_on,39,0,8,,,,,,,,,12,,,,61,0
85082,note_on,21,0,7,,,,,,,,,11,,,,65,110
85082,note_on,0,0,7,,,,,,,,,11,,,,71,110
85086,note_on,21,0,8,,,,,,,,,12,,,,61,108
85121,note_on,0,0,7,,,,,,,,,11,,,,65,0
85121,note_on,39,0,7,,,,,,,,,11,,,,71,0
85125,note_on,39,0,8,,,,,,,,,12,,,,61,0
85142,note_on,0,0,7,,,,,,,,,11,,,,71,101
85142,note_on,21,0,7,,,,,,,,,11,,,,65,101
85145,note_on,175,0,9,,,,,,,,,13,,,,49,0
85146,note_on,21,0,8,,,,,,,,,12,,,,61,99
85147,note_on,175,0,10,,,,,,,,,14,,,,37,0
85150,note_on,5,0,9,,,,,,,,,13,,,,53,99
85152,note_on,5,0,10,,,,,,,,,14,,,,41,93
85170,note_on,210,0,6,,,,,,,,,10,,,,89,0
85181,note_on,39,0,7,,,,,,,,,11,,,,71,0
85181,note_on,0,0,7,,,,,,,,,11,,,,65,0
85185,note_on,39,0,8,,,,,,,,,12,,,,61,0
85189,note_on,39,0,9,,,,,,,,,13,,,,53,0
85191,note_on,39,0,10,,,,,,,,,14,,,,41,0
85193,note_on,230,0,1,,,,,,,,,0,,,,89,0
85200,note_on,30,0,6,,,,,,,,,10,,,,83,110
85200,set_tempo,240,1,0,,,,,,261438,,,,,,,,
85202,note_on,0,0,7,,,,,,,,,11,,,,65,110
85202,note_on,21,0,7,,,,,,,,,11,,,,71,110
85203,note_on,10,0,1,,,,,,,,,0,,,,83,97
85206,note_on,21,0,8,,,,,,,,,12,,,,61,108
85210,note_on,21,0,9,,,,,,,,,13,,,,56,99
85212,note_on,21,0,10,,,,,,,,,14,,,,44,93
85241,note_on,0,0,7,,,,,,,,,11,,,,71,0
85241,note_on,39,0,7,,,,,,,,,11,,,,65,0
85245,note_on,39,0,8,,,,,,,,,12,,,,61,0
85262,note_on,21,0,7,,,,,,,,,11,,,,65,101
85262,note_on,0,0,7,,,,,,,,,11,,,,71,101
85266,note_on,21,0,8,,,,,,,,,12,,,,61,99
85301,note_on,39,0,7,,,,,,,,,11,,,,71,0
85301,note_on,0,0,7,,,,,,,,,11,,,,65,0
85305,note_on,39,0,8,,,,,,,,,12,,,,61,0
85322,note_on,21,0,7,,,,,,,,,11,,,,71,110
85322,note_on,0,0,7,,,,,,,,,11,,,,65,110
85325,note_on,115,0,9,,,,,,,,,13,,,,56,0
85326,note_on,21,0,8,,,,,,,,,12,,,,61,108
85327,note_on,115,0,10,,,,,,,,,14,,,,44,0
85330,note_on,5,0,9,,,,,,,,,13,,,,61,99
85332,note_on,5,0,10,,,,,,,,,14,,,,49,93
85361,note_on,0,0,7,,,,,,,,,11,,,,71,0
85361,note_on,39,0,7,,,,,,,,,11,,,,65,0
85365,note_on,39,0,8,,,,,,,,,12,,,,61,0
85382,note_on,21,0,7,,,,,,,,,11,,,,65,101
85382,note_on,0,0,7,,,,,,,,,11,,,,71,101
85386,note_on,21,0,8,,,,,,,,,12,,,,61,99
85410,note_on,210,0,6,,,,,,,,,10,,,,83,0
85421,note_on,39,0,7,,,,,,,,,11,,,,71,0
85421,note_on,0,0,7,,,,,,,,,11,,,,65,0
85425,note_on,39,0,8,,,,,,,,,12,,,,61,0
85433,note_on,230,0,1,,,,,,,,,0,,,,83,0
85434,note_on,470,0,4,,,,,,,,,4,,,,65,0
85435,note_on,0,0,2,,,,,,,,,1,,,,77,0
85435,note_on,470,0,2,,,,,,,,,1,,,,71,0
85436,note_on,470,0,5,,,,,,,,,5,,,,53,0
85440,note_on,30,0,6,,,,,,,,,10,,,,84,95
85440,note_on,0,0,6,,,,,,,,,10,,,,76,95
85440,set_tempo,240,1,0,,,,,,272727,,,,,,,,
85441,note_on,470,0,3,,,,,,,,,3,,,,49,0
85442,note_on,0,0,7,,,,,,,,,11,,,,64,110
85442,note_on,21,0,7,,,,,,,,,11,,,,72,110
85443,note_on,10,0,1,,,,,,,,,0,,,,84,97
85444,note_on,10,0,4,,,,,,,,,4,,,,60,96
85445,note_on,10,0,2,,,,,,,,,1,,,,76,97
85445,note_on,115,0,9,,,,,,,,,13,,,,61,0
85445,note_on,0,0,2,,,,,,,,,1,,,,72,97
85446,note_on,10,0,5,,,,,,,,,5,,,,60,96
85446,note_on,21,0,8,,,,,,,,,12,,,,60,108
85447,note_on,115,0,10,,,,,,,,,14,,,,49,0
85450,note_on,5,0,9,,,,,,,,,13,,,,60,99
85451,note_on,10,0,3,,,,,,,,,3,,,,48,97
85452,note_on,5,0,10,,,,,,,,,14,,,,48,93
85590,note_on,150,0,6,,,,,,,,,10,,,,76,0
85590,note_on,0,0,6,,,,,,,,,10,,,,84,0
85602,note_on,0,0,7,,,,,,,,,11,,,,72,0
85602,note_on,160,0,7,,,,,,,,,11,,,,64,0
85606,note_on,160,0,8,,,,,,,,,12,,,,60,0
85610,note_on,160,0,9,,,,,,,,,13,,,,60,0
85612,note_on,160,0,10,,,,,,,,,14,,,,48,0
85620,note_on,30,0,6,,,,,,,,,10,,,,76,95
85620,note_on,0,0,6,,,,,,,,,10,,,,84,95
85622,note_on,20,0,7,,,,,,,,,11,,,,64,110
85622,note_on,0,0,7,,,,,,,,,11,,,,72,110
85626,note_on,20,0,8,,,,,,,,,12,,,,60,108
85630,note_on,20,0,9,,,,,,,,,13,,,,48,99
85632,note_on,20,0,10,,,,,,,,,14,,,,36,93
85650,note_on,30,0,6,,,,,,,,,10,,,,84,0
85650,note_on,0,0,6,,,,,,,,,10,,,,76,0
85662,note_on,0,0,7,,,,,,,,,11,,,,64,0
85662,note_on,40,0,7,,,,,,,,,11,,,,72,0
85666,note_on,40,0,8,,,,,,,,,12,,,,60,0
85670,note_on,40,0,9,,,,,,,,,13,,,,48,0
85672,note_on,40,0,10,,,,,,,,,14,,,,36,0
85673,note_on,230,0,1,,,,,,,,,0,,,,84,0
85674,note_on,230,0,4,,,,,,,,,4,,,,60,0
85675,note_on,0,0,2,,,,,,,,,1,,,,76,0
85675,note_on,230,0,2,,,,,,,,,1,,,,72,0
85676,note_on,230,0,5,,,,,,,,,5,,,,60,0
85680,note_on,0,0,6,,,,,,,,,10,,,,77,95
85680,note_on,30,0,6,,,,,,,,,10,,,,83,95
85680,set_tempo,240,1,0,,,,,,261438,,,,,,,,
85681,note_on,230,0,3,,,,,,,,,3,,,,48,0
85682,note_on,20,0,7,,,,,,,,,11,,,,65,110
85682,note_on,0,0,7,,,,,,,,,11,,,,71,110
85683,note_on,10,0,1,,,,,,,,,0,,,,91,97
85684,note_on,10,0,4,,,,,,,,,4,,,,65,96
85685,note_on,0,0,2,,,,,,,,,1,,,,67,97
85685,note_on,10,0,2,,,,,,,,,1,,,,79,97
85686,note_on,10,0,5,,,,,,,,,5,,,,53,96
85686,note_on,20,0,8,,,,,,,,,12,,,,61,108
85690,note_on,20,0,9,,,,,,,,,13,,,,49,99
85691,note_on,10,0,3,,,,,,,,,3,,,,49,97
85692,note_on,20,0,10,,,,,,,,,14,,,,37,93
85744,note_on,0,0,6,,,,,,,,,10,,,,83,0
85744,note_on,64,0,6,,,,,,,,,10,,,,77,0
85756,note_on,74,0,7,,,,,,,,,11,,,,71,0
85756,note_on,0,0,7,,,,,,,,,11,,,,65,0
85760,note_on,74,0,8,,,,,,,,,12,,,,61,0
85764,note_on,74,0,9,,,,,,,,,13,,,,49,0
85766,note_on,74,0,10,,,,,,,,,14,,,,37,0
85800,note_on,56,0,6,,,,,,,,,10,,,,77,95
85800,note_on,0,0,6,,,,,,,,,10,,,,83,95
85802,note_on,0,0,7,,,,,,,,,11,,,,71,110
85802,note_on,46,0,7,,,,,,,,,11,,,,65,110
85806,note_on,46,0,8,,,,,,,,,12,,,,61,108
85810,note_on,46,0,9,,,,,,,,,13,,,,49,99
85812,note_on,46,0,10,,,,,,,,,14,,,,37,93
85864,note_on,0,0,6,,,,,,,,,10,,,,77,0
85864,note_on,64,0,6,,,,,,,,,10,,,,83,0
85876,note_on,0,0,7,,,,,,,,,11,,,,65,0
85876,note_on,74,0,7,,,,,,,,,11,,,,71,0
85880,note_on,74,0,8,,,,,,,,,12,,,,61,0
85884,note_on,74,0,9,,,,,,,,,13,,,,49,0
85886,note_on,74,0,10,,,,,,,,,14,,,,37,0
85914,note_on,230,0,4,,,,,,,,,4,,,,65,0
85916,note_on,230,0,5,,,,,,,,,5,,,,53,0
85920,set_tempo,240,1,0,,,,,,272727,,,,,,,,
85920,note_on,56,0,6,,,,,,,,,10,,,,84,95
85920,note_on,0,0,6,,,,,,,,,10,,,,76,95
85921,note_on,230,0,3,,,,,,,,,3,,,,49,0
85922,note_on,0,0,7,,,,,,,,,11,,,,72,110
85922,note_on,46,0,7,,,,,,,,,11,,,,64,110
85924,note_on,10,0,4,,,,,,,,,4,,,,60,96
85926,note_on,46,0,8,,,,,,,,,12,,,,60,108
85926,note_on,10,0,5,,,,,,,,,5,,,,60,96
85930,note_on,46,0,9,,,,,,,,,13,,,,48,99
85931,note_on,10,0,3,,,,,,,,,3,,,,48,97
85932,note_on,46,0,10,,,,,,,,,14,,,,36,93
86060,note_on,0,0,6,,,,,,,,,10,,,,84,0
86060,note_on,140,0,6,,,,,,,,,10,,,,76,0
86072,note_on,0,0,7,,,,,,,,,11,,,,64,0
86072,note_on,150,0,7,,,,,,,,,11,,,,72,0
86076,note_on,150,0,8,,,,,,,,,12,,,,60,0
86080,note_on,150,0,9,,,,,,,,,13,,,,48,0
86082,note_on,150,0,10,,,,,,,,,14,,,,36,0
86100,note_on,40,0,6,,,,,,,,,10,,,,84,95
86100,note_on,0,0,6,,,,,,,,,10,,,,76,95
86102,note_on,30,0,7,,,,,,,,,11,,,,64,110
86102,note_on,0,0,7,,,,,,,,,11,,,,72,110
86106,note_on,30,0,8,,,,,,,,,12,,,,60,108
86110,note_on,30,0,9,,,,,,,,,13,,,,48,99
86112,note_on,30,0,10,,,,,,,,,14,,,,36,93
86130,note_on,0,0,6,,,,,,,,,10,,,,84,0
86130,note_on,30,0,6,,,,,,,,,10,,,,76,0
86142,note_on,40,0,7,,,,,,,,,11,,,,72,0
86142,note_on,0,0,7,,,,,,,,,11,,,,64,0
86146,note_on,40,0,8,,,,,,,,,12,,,,60,0
86150,note_on,40,0,9,,,,,,,,,13,,,,48,0
86152,note_on,40,0,10,,,,,,,,,14,,,,36,0
86154,note_on,230,0,4,,,,,,,,,4,,,,60,0
86156,note_on,230,0,5,,,,,,,,,5,,,,60,0
86160,note_on,0,0,6,,,,,,,,,10,,,,77,95
86160,note_on,30,0,6,,,,,,,,,10,,,,83,95
86160,set_tempo,240,1,0,,,,,,261438,,,,,,,,
86161,note_on,230,0,3,,,,,,,,,3,,,,48,0
86162,note_on,0,0,7,,,,,,,,,11,,,,65,110
86162,note_on,20,0,7,,,,,,,,,11,,,,71,110
86164,note_on,10,0,4,,,,,,,,,4,,,,65,96
86166,note_on,20,0,8,,,,,,,,,12,,,,61,108
86166,note_on,10,0,5,,,,,,,,,5,,,,53,96
86170,note_on,20,0,9,,,,,,,,,13,,,,49,99
86171,note_on,10,0,3,,,,,,,,,3,,,,49,97
86172,note_on,20,0,10,,,,,,,,,14,,,,37,93
86224,note_on,0,0,6,,,,,,,,,10,,,,83,0
86224,note_on,64,0,6,,,,,,,,,10,,,,77,0
86236,note_on,0,0,7,,,,,,,,,11,,,,71,0
86236,note_on,74,0,7,,,,,,,,,11,,,,65,0
86240,note_on,74,0,8,,,,,,,,,12,,,,61,0
86244,note_on,74,0,9,,,,,,,,,13,,,,49,0
86246,note_on,74,0,10,,,,,,,,,14,,,,37,0
86280,note_on,0,0,6,,,,,,,,,10,,,,77,95
86280,note_on,56,0,6,,,,,,,,,10,,,,83,95
86282,note_on,0,0,7,,,,,,,,,11,,,,65,110
86282,note_on,46,0,7,,,,,,,,,11,,,,71,110
86286,note_on,46,0,8,,,,,,,,,12,,,,61,108
86290,note_on,46,0,9,,,,,,,,,13,,,,49,99
86292,note_on,46,0,10,,,,,,,,,14,,,,37,93
86344,note_on,0,0,6,,,,,,,,,10,,,,83,0
86344,note_on,64,0,6,,,,,,,,,10,,,,77,0
86356,note_on,0,0,7,,,,,,,,,11,,,,71,0
86356,note_on,74,0,7,,,,,,,,,11,,,,65,0
86360,note_on,74,0,8,,,,,,,,,12,,,,61,0
86364,note_on,74,0,9,,,,,,,,,13,,,,49,0
86366,note_on,74,0,10,,,,,,,,,14,,,,37,0
86394,note_on,230,0,4,,,,,,,,,4,,,,65,0
86396,note_on,230,0,5,,,,,,,,,5,,,,53,0
86400,note_on,56,0,6,,,,,,,,,10,,,,84,95
86400,note_on,0,0,6,,,,,,,,,10,,,,76,95
86400,set_tempo,240,1,0,,,,,,272727,,,,,,,,
86401,note_on,230,0,3,,,,,,,,,3,,,,49,0
86402,note_on,46,0,7,,,,,,,,,11,,,,64,110
86402,note_on,0,0,7,,,,,,,,,11,,,,72,110
86404,note_on,10,0,4,,,,,,,,,4,,,,60,96
86406,note_on,10,0,5,,,,,,,,,5,,,,60,96
86406,note_on,46,0,8,,,,,,,,,12,,,,60,108
86410,note_on,46,0,9,,,,,,,,,13,,,,48,99
86411,note_on,10,0,3,,,,,,,,,3,,,,48,97
86412,note_on,46,0,10,,,,,,,,,14,,,,36,93
86463,note_on,780,0,1,,,,,,,,,0,,,,91,0
86465,note_on,0,0,2,,,,,,,,,1,,,,79,0
86465,note_on,780,0,2,,,,,,,,,1,,,,67,0
86485,note_on,0,0,6,,,,,,,,,10,,,,84,0
86485,note_on,85,0,6,,,,,,,,,10,,,,76,0
86497,note_on,95,0,7,,,,,,,,,11,,,,72,0
86497,note_on,0,0,7,,,,,,,,,11,,,,64,0
86501,note_on,95,0,8,,,,,,,,,12,,,,60,0
86505,note_on,95,0,9,,,,,,,,,13,,,,48,0
86507,note_on,95,0,10,,,,,,,,,14,,,,36,0
86509,note_on,105,0,4,,,,,,,,,4,,,,60,0
86511,note_on,105,0,5,,,,,,,,,5,,,,60,0
86516,note_on,105,0,3,,,,,,,,,3,,,,48,0
86520,note_on,35,0,6,,,,,,,,,10,,,,60,110
86522,note_on,25,0,7,,,,,,,,,11,,,,60,110
86523,note_on,60,0,1,,,,,,,,,0,,,,84,97
86524,note_on,15,0,4,,,,,,,,,4,,,,60,96
86525,note_on,60,0,2,,,,,,,,,1,,,,72,97
86526,note_on,25,0,8,,,,,,,,,12,,,,48,108
86526,note_on,15,0,5,,,,,,,,,5,,,,60,96
86530,note_on,25,0,9,,,,,,,,,13,,,,60,99
86531,note_on,15,0,3,,,,,,,,,3,,,,48,97
86532,note_on,25,0,10,,,,,,,,,14,,,,48,93
86557,note_on,37,0,6,,,,,,,,,10,,,,60,0
86559,note_on,37,0,7,,,,,,,,,11,,,,60,0
86563,note_on,37,0,8,,,,,,,,,12,,,,48,0
86566,note_on,43,0,1,,,,,,,,,0,,,,84,0
86567,note_on,43,0,4,,,,,,,,,4,,,,60,0
86567,note_on,37,0,9,,,,,,,,,13,,,,60,0
86568,note_on,43,0,2,,,,,,,,,1,,,,72,0
86569,note_on,43,0,5,,,,,,,,,5,,,,60,0
86569,note_on,37,0,10,,,,,,,,,14,,,,48,0
86574,note_on,43,0,3,,,,,,,,,3,,,,48,0
86580,note_on,23,0,6,,,,,,,,,10,,,,60,110
86582,note_on,23,0,7,,,,,,,,,11,,,,60,110
86583,note_on,17,0,1,,,,,,,,,0,,,,84,97
86584,note_on,17,0,4,,,,,,,,,4,,,,60,96
86585,note_on,17,0,2,,,,,,,,,1,,,,72,97
86586,note_on,23,0,8,,,,,,,,,12,,,,48,108
86586,note_on,17,0,5,,,,,,,,,5,,,,60,96
86590,note_on,23,0,9,,,,,,,,,13,,,,60,99
86591,note_on,17,0,3,,,,,,,,,3,,,,48,97
86592,note_on,23,0,10,,,,,,,,,14,,,,48,93
86617,note_on,37,0,6,,,,,,,,,10,,,,60,0
86619,note_on,37,0,7,,,,,,,,,11,,,,60,0
86623,note_on,37,0,8,,,,,,,,,12,,,,48,0
86626,note_on,43,0,1,,,,,,,,,0,,,,84,0
86627,note_on,37,0,9,,,,,,,,,13,,,,60,0
86627,note_on,43,0,4,,,,,,,,,4,,,,60,0
86628,note_on,43,0,2,,,,,,,,,1,,,,72,0
86629,note_on,37,0,10,,,,,,,,,14,,,,48,0
86629,note_on,43,0,5,,,,,,,,,5,,,,60,0
86634,note_on,43,0,3,,,,,,,,,3,,,,48,0
86640,note_on,23,0,6,,,,,,,,,10,,,,60,110
86640,set_tempo,240,1,0,,,,,,261438,,,,,,,,
86642,note_on,23,0,7,,,,,,,,,11,,,,60,110
86643,note_on,17,0,1,,,,,,,,,0,,,,84,97
86644,note_on,17,0,4,,,,,,,,,4,,,,60,96
86645,note_on,17,0,2,,,,,,,,,1,,,,72,97
86646,note_on,17,0,5,,,,,,,,,5,,,,60,96
86646,note_on,23,0,8,,,,,,,,,12,,,,48,108
86650,note_on,23,0,9,,,,,,,,,13,,,,60,99
86651,note_on,17,0,3,,,,,,,,,3,,,,48,97
86652,note_on,23,0,10,,,,,,,,,14,,,,48,93
86725,note_on,85,0,6,,,,,,,,,10,,,,60,0
86727,note_on,85,0,7,,,,,,,,,11,,,,60,0
86728,note_on,85,0,1,,,,,,,,,0,,,,84,0
86729,note_on,85,0,4,,,,,,,,,4,,,,60,0
86730,note_on,85,0,2,,,,,,,,,1,,,,72,0
86731,note_on,85,0,8,,,,,,,,,12,,,,48,0
86731,note_on,85,0,5,,,,,,,,,5,,,,60,0
86735,note_on,85,0,9,,,,,,,,,13,,,,60,0
86736,note_on,85,0,3,,,,,,,,,3,,,,48,0
86737,note_on,85,0,10,,,,,,,,,14,,,,48,0
86760,note_on,35,0,6,,,,,,,,,10,,,,60,110
86762,note_on,35,0,7,,,,,,,,,11,,,,60,110
86763,note_on,35,0,1,,,,,,,,,0,,,,84,97
86764,note_on,35,0,4,,,,,,,,,4,,,,60,96
86765,note_on,35,0,2,,,,,,,,,1,,,,72,97
86766,note_on,35,0,5,,,,,,,,,5,,,,60,96
86766,note_on,35,0,8,,,,,,,,,12,,,,48,108
86770,note_on,35,0,9,,,,,,,,,13,,,,60,99
86771,note_on,35,0,3,,,,,,,,,3,,,,48,97
86772,note_on,35,0,10,,,,,,,,,14,,,,48,93
86845,note_on,85,0,6,,,,,,,,,10,,,,60,0
86847,note_on,85,0,7,,,,,,,,,11,,,,60,0
86848,note_on,85,0,1,,,,,,,,,0,,,,84,0
86849,note_on,85,0,4,,,,,,,,,4,,,,60,0
86850,note_on,85,0,2,,,,,,,,,1,,,,72,0
86851,note_on,85,0,8,,,,,,,,,12,,,,48,0
86851,note_on,85,0,5,,,,,,,,,5,,,,60,0
86855,note_on,85,0,9,,,,,,,,,13,,,,60,0
86856,note_on,85,0,3,,,,,,,,,3,,,,48,0
86857,note_on,85,0,10,,,,,,,,,14,,,,48,0
86880,note_on,35,0,6,,,,,,,,,10,,,,60,88
86880,set_tempo,240,1,0,,,,,,272727,,,,,,,,
86882,note_on,35,0,7,,,,,,,,,11,,,,60,88
86883,note_on,35,0,1,,,,,,,,,0,,,,84,77
86884,note_on,35,0,4,,,,,,,,,4,,,,60,76
86885,note_on,35,0,2,,,,,,,,,1,,,,72,77
86886,note_on,35,0,5,,,,,,,,,5,,,,60,76
86886,note_on,35,0,8,,,,,,,,,12,,,,48,86
86890,note_on,35,0,9,,,,,,,,,13,,,,60,77
86891,note_on,35,0,3,,,,,,,,,3,,,,48,77
86892,note_on,35,0,10,,,,,,,,,14,,,,48,71
87000,control_change,120,0,6,,,,,,,,,10,11,79,,,
87002,control_change,120,0,7,,,,,,,,,11,11,79,,,
87006,control_change,120,0,8,,,,,,,,,12,11,79,,,
87010,control_change,120,0,9,,,,,,,,,13,11,79,,,
87012,control_change,120,0,10,,,,,,,,,14,11,79,,,
87023,control_change,23,0,6,,,,,,,,,10,11,75,,,
87025,control_change,23,0,7,,,,,,,,,11,11,75,,,
87029,control_change,23,0,8,,,,,,,,,12,11,75,,,
87033,control_change,23,0,9,,,,,,,,,13,11,75,,,
87035,control_change,23,0,10,,,,,,,,,14,11,75,,,
87047,control_change,24,0,6,,,,,,,,,10,11,71,,,
87049,control_change,24,0,7,,,,,,,,,11,11,71,,,
87053,control_change,24,0,8,,,,,,,,,12,11,71,,,
87057,control_change,24,0,9,,,,,,,,,13,11,71,,,
87059,control_change,24,0,10,,,,,,,,,14,11,71,,,
87059,control_change,12,0,6,,,,,,,,,10,11,68,,,
87061,control_change,12,0,7,,,,,,,,,11,11,68,,,
87065,control_change,12,0,8,,,,,,,,,12,11,68,,,
87069,control_change,12,0,9,,,,,,,,,13,11,68,,,
87071,control_change,12,0,10,,,,,,,,,14,11,68,,,
87083,control_change,24,0,6,,,,,,,,,10,11,64,,,
87085,control_change,24,0,7,,,,,,,,,11,11,64,,,
87089,control_change,24,0,8,,,,,,,,,12,11,64,,,
87093,control_change,24,0,9,,,,,,,,,13,11,64,,,
87095,control_change,24,0,10,,,,,,,,,14,11,64,,,
87107,control_change,24,0,6,,,,,,,,,10,11,60,,,
87109,control_change,24,0,7,,,,,,,,,11,11,60,,,
87113,control_change,24,0,8,,,,,,,,,12,11,60,,,
87115,note_on,8,0,6,,,,,,,,,10,,,,60,0
87117,control_change,24,0,9,,,,,,,,,13,11,60,,,
87117,note_on,8,0,7,,,,,,,,,11,,,,60,0
87118,note_on,235,0,1,,,,,,,,,0,,,,84,0
87119,note_on,235,0,4,,,,,,,,,4,,,,60,0
87119,control_change,4,0,6,,,,,,,,,10,11,57,,,
87119,control_change,24,0,10,,,,,,,,,14,11,60,,,
87120,set_tempo,240,1,0,,,,,,288462,,,,,,,,
87120,note_on,235,0,2,,,,,,,,,1,,,,72,0
87121,control_change,4,0,7,,,,,,,,,11,11,57,,,
87121,note_on,8,0,8,,,,,,,,,12,,,,48,0
87121,note_on,235,0,5,,,,,,,,,5,,,,60,0
87125,note_on,8,0,9,,,,,,,,,13,,,,60,0
87125,control_change,4,0,8,,,,,,,,,12,11,57,,,
87126,note_on,235,0,3,,,,,,,,,3,,,,48,0
87127,note_on,8,0,10,,,,,,,,,14,,,,48,0
87129,control_change,4,0,9,,,,,,,,,13,11,57,,,
87131,control_change,4,0,10,,,,,,,,,14,11,57,,,
87360,note_on,0,0,6,,,,,,,,,10,,,,81,100
87360,control_change,241,0,6,,,,,,,,,10,11,22,,,
87360,set_tempo,240,1,0,,,,,,289157,,,,,,,,
87362,control_change,241,0,7,,,,,,,,,11,11,22,,,
87362,note_on,0,0,7,,,,,,,,,11,,,,69,80
87366,note_on,0,0,8,,,,,,,,,12,,,,57,98
87366,control_change,241,0,8,,,,,,,,,12,11,22,,,
87369,control_change,9,0,6,,,,,,,,,10,11,25,,,
87370,note_on,0,0,9,,,,,,,,,13,,,,53,89
87370,control_change,241,0,9,,,,,,,,,13,11,22,,,
87371,control_change,9,0,7,,,,,,,,,11,11,25,,,
87372,control_change,241,0,10,,,,,,,,,14,11,22,,,
87372,note_on,0,0,10,,,,,,,,,14,,,,41,83
87375,control_change,9,0,8,,,,,,,,,12,11,25,,,
87378,control_change,9,0,6,,,,,,,,,10,11,28,,,
87379,control_change,9,0,9,,,,,,,,,13,11,25,,,
87380,control_change,9,0,7,,,,,,,,,11,11,28,,,
87381,control_change,9,0,10,,,,,,,,,14,11,25,,,
87384,control_change,9,0,8,,,,,,,,,12,11,28,,,
87387,control_change,9,0,6,,,,,,,,,10,11,31,,,
87388,control_change,9,0,9,,,,,,,,,13,11,28,,,
87389,control_change,9,0,7,,,,,,,,,11,11,31,,,
87390,control_change,9,0,10,,,,,,,,,14,11,28,,,
87393,control_change,9,0,8,,,,,,,,,12,11,31,,,
87397,control_change,9,0,9,,,,,,,,,13,11,31,,,
87399,control_change,9,0,10,,,,,,,,,14,11,31,,,
87402,control_change,15,0,6,,,,,,,,,10,11,34,,,
87404,control_change,15,0,7,,,,,,,,,11,11,34,,,
87408,control_change,15,0,8,,,,,,,,,12,11,34,,,
87412,control_change,15,0,9,,,,,,,,,13,11,34,,,
87414,control_change,15,0,10,,,,,,,,,14,11,34,,,
87420,control_change,18,0,6,,,,,,,,,10,11,37,,,
87422,control_change,18,0,7,,,,,,,,,11,11,37,,,
87426,control_change,18,0,8,,,,,,,,,12,11,37,,,
87430,control_change,18,0,9,,,,,,,,,13,11,37,,,
87432,control_change,18,0,10,,,,,,,,,14,11,37,,,
87438,control_change,18,0,6,,,,,,,,,10,11,40,,,
87440,control_change,18,0,7,,,,,,,,,11,11,40,,,
87444,control_change,18,0,8,,,,,,,,,12,11,40,,,
87448,control_change,18,0,9,,,,,,,,,13,11,40,,,
87450,control_change,18,0,10,,,,,,,,,14,11,40,,,
87456,control_change,18,0,6,,,,,,,,,10,11,43,,,
87458,control_change,18,0,7,,,,,,,,,11,11,43,,,
87462,control_change,18,0,8,,,,,,,,,12,11,43,,,
87466,control_change,18,0,9,,,,,,,,,13,11,43,,,
87468,control_change,18,0,10,,,,,,,,,14,11,43,,,
87474,control_change,18,0,6,,,,,,,,,10,11,46,,,
87476,control_change,18,0,7,,,,,,,,,11,11,46,,,
87480,control_change,18,0,8,,,,,,,,,12,11,46,,,
87484,control_change,18,0,9,,,,,,,,,13,11,46,,,
87486,control_change,18,0,10,,,,,,,,,14,11,46,,,
87600,note_on,126,0,6,,,,,,,,,10,,,,81,0
87600,note_on,0,0,6,,,,,,,,,10,,,,79,100
87600,set_tempo,240,1,0,,,,,,281030,,,,,,,,
87602,note_on,126,0,7,,,,,,,,,11,,,,69,0
87602,note_on,0,0,7,,,,,,,,,11,,,,67,80
87606,note_on,126,0,8,,,,,,,,,12,,,,57,0
87606,note_on,0,0,8,,,,,,,,,12,,,,58,98
87610,note_on,0,0,9,,,,,,,,,13,,,,55,89
87610,note_on,126,0,9,,,,,,,,,13,,,,53,0
87612,note_on,126,0,10,,,,,,,,,14,,,,41,0
87612,note_on,0,0,10,,,,,,,,,14,,,,43,83
87780,note_on,180,0,6,,,,,,,,,10,,,,79,0
87780,note_on,0,0,6,,,,,,,,,10,,,,76,100
87782,note_on,180,0,7,,,,,,,,,11,,,,67,0
87782,note_on,0,0,7,,,,,,,,,11,,,,64,80
87819,note_on,39,0,6,,,,,,,,,10,,,,76,0
87821,note_on,39,0,7,,,,,,,,,11,,,,64,0
87840,note_on,21,0,6,,,,,,,,,10,,,,76,100
87840,set_tempo,240,1,0,,,,,,289157,,,,,,,,
87842,note_on,21,0,7,,,,,,,,,11,,,,64,80
87846,note_on,240,0,8,,,,,,,,,12,,,,58,0
87846,note_on,0,0,8,,,,,,,,,12,,,,60,98
87850,note_on,0,0,9,,,,,,,,,13,,,,57,89
87850,note_on,240,0,9,,,,,,,,,13,,,,55,0
87852,note_on,240,0,10,,,,,,,,,14,,,,43,0
87852,note_on,0,0,10,,,,,,,,,14,,,,45,83
87960,note_on,120,0,6,,,,,,,,,10,,,,76,0
87960,note_on,0,0,6,,,,,,,,,10,,,,77,100
87962,note_on,120,0,7,,,,,,,,,11,,,,64,0
87962,note_on,0,0,7,,,,,,,,,11,,,,65,80
88075,note_on,115,0,6,,,,,,,,,10,,,,77,0
88077,note_on,115,0,7,,,,,,,,,11,,,,65,0
88080,set_tempo,240,1,0,,,,,,281030,,,,,,,,
88080,note_on,5,0,6,,,,,,,,,10,,,,72,88
88082,note_on,5,0,7,,,,,,,,,11,,,,60,70
88086,note_on,240,0,8,,,,,,,,,12,,,,60,0
88090,note_on,240,0,9,,,,,,,,,13,,,,57,0
88092,note_on,240,0,10,,,,,,,,,14,,,,45,0
88260,control_change,180,0,6,,,,,,,,,10,11,47,,,
88262,control_change,180,0,7,,,,,,,,,11,11,47,,,
88268,control_change,8,0,6,,,,,,,,,10,11,44,,,
88270,control_change,8,0,7,,,,,,,,,11,11,44,,,
88276,control_change,8,0,6,,,,,,,,,10,11,41,,,
88278,control_change,8,0,7,,,,,,,,,11,11,41,,,
88284,control_change,8,0,6,,,,,,,,,10,11,38,,,
88286,control_change,8,0,7,,,,,,,,,11,11,38,,,
88292,control_change,8,0,6,,,,,,,,,10,11,35,,,
88294,control_change,8,0,7,,,,,,,,,11,11,35,,,
88300,note_on,8,0,6,,,,,,,,,10,,,,72,0
88300,control_change,0,0,6,,,,,,,,,10,11,32,,,
88302,control_change,0,0,7,,,,,,,,,11,11,32,,,
88302,note_on,8,0,7,,,,,,,,,11,,,,60,0
88320,set_tempo,240,1,0,,,,,,289157,,,,,,,,
88320,note_on,20,0,6,,,,,,,,,10,,,,74,90
88322,note_on,20,0,7,,,,,,,,,11,,,,62,72
88326,note_on,240,0,8,,,,,,,,,12,,,,62,88
88330,note_on,240,0,9,,,,,,,,,13,,,,58,66
88332,note_on,240,0,10,,,,,,,,,14,,,,46,60
88380,note_on,60,0,6,,,,,,,,,10,,,,74,0
88382,note_on,60,0,7,,,,,,,,,11,,,,62,0
88386,note_on,60,0,8,,,,,,,,,12,,,,62,0
88390,note_on,60,0,9,,,,,,,,,13,,,,58,0
88392,note_on,60,0,10,,,,,,,,,14,,,,46,0
88440,note_on,60,0,6,,,,,,,,,10,,,,74,92
88442,note_on,60,0,7,,,,,,,,,11,,,,62,73
88446,note_on,60,0,8,,,,,,,,,12,,,,62,90
88450,note_on,60,0,9,,,,,,,,,13,,,,58,69
88452,note_on,60,0,10,,,,,,,,,14,,,,46,63
88500,note_on,60,0,6,,,,,,,,,10,,,,74,0
88502,note_on,60,0,7,,,,,,,,,11,,,,62,0
88506,note_on,60,0,8,,,,,,,,,12,,,,62,0
88510,note_on,60,0,9,,,,,,,,,13,,,,58,0
88512,note_on,60,0,10,,,,,,,,,14,,,,46,0
88560,set_tempo,240,1,0,,,,,,281030,,,,,,,,
88560,note_on,60,0,6,,,,,,,,,10,,,,78,97
88562,note_on,60,0,7,,,,,,,,,11,,,,66,77
88566,note_on,60,0,8,,,,,,,,,12,,,,63,95
88570,note_on,60,0,9,,,,,,,,,13,,,,60,72
88572,note_on,60,0,10,,,,,,,,,14,,,,48,66
88620,note_on,60,0,6,,,,,,,,,10,,,,78,0
88622,note_on,60,0,7,,,,,,,,,11,,,,66,0
88626,note_on,60,0,8,,,,,,,,,12,,,,63,0
88630,note_on,60,0,9,,,,,,,,,13,,,,60,0
88632,note_on,60,0,10,,,,,,,,,14,,,,48,0
88680,note_on,60,0,6,,,,,,,,,10,,,,78,101
88682,note_on,60,0,7,,,,,,,,,11,,,,66,80
88686,note_on,60,0,8,,,,,,,,,12,,,,63,99
88690,note_on,60,0,9,,,,,,,,,13,,,,60,76
88692,note_on,60,0,10,,,,,,,,,14,,,,48,70
88740,note_on,60,0,6,,,,,,,,,10,,,,78,0
88742,note_on,60,0,7,,,,,,,,,11,,,,66,0
88746,note_on,60,0,8,,,,,,,,,12,,,,63,0
88750,note_on,60,0,9,,,,,,,,,13,,,,60,0
88752,note_on,60,0,10,,,,,,,,,14,,,,48,0
88800,set_tempo,240,1,0,,,,,,289157,,,,,,,,
88800,note_on,60,0,6,,,,,,,,,10,,,,81,105
88802,note_on,60,0,7,,,,,,,,,11,,,,69,84
88806,note_on,60,0,8,,,,,,,,,12,,,,62,103
88810,note_on,60,0,9,,,,,,,,,13,,,,58,80
88812,note_on,60,0,10,,,,,,,,,14,,,,46,74
88815,note_on,15,0,6,,,,,,,,,10,,,,81,0
88815,note_on,0,0,6,,,,,,,,,10,,,,79,105
88817,note_on,15,0,7,,,,,,,,,11,,,,69,0
88817,note_on,0,0,7,,,,,,,,,11,,,,67,84
88860,note_on,45,0,6,,,,,,,,,10,,,,79,0
88860,note_on,0,0,6,,,,,,,,,10,,,,78,106
88862,note_on,0,0,7,,,,,,,,,11,,,,66,84
88862,note_on,45,0,7,,,,,,,,,11,,,,67,0
88920,note_on,60,0,6,,,,,,,,,10,,,,78,0
88920,note_on,0,0,6,,,,,,,,,10,,,,79,107
88922,note_on,60,0,7,,,,,,,,,11,,,,66,0
88922,note_on,0,0,7,,,,,,,,,11,,,,67,85
88980,note_on,60,0,6,,,,,,,,,10,,,,79,0
88980,note_on,0,0,6,,,,,,,,,10,,,,81,108
88982,note_on,0,0,7,,,,,,,,,11,,,,69,86
88982,note_on,60,0,7,,,,,,,,,11,,,,67,0
88986,note_on,180,0,8,,,,,,,,,12,,,,62,0
88986,note_on,0,0,8,,,,,,,,,12,,,,60,106
88990,note_on,0,0,9,,,,,,,,,13,,,,57,83
88990,note_on,180,0,9,,,,,,,,,13,,,,58,0
88992,note_on,0,0,10,,,,,,,,,14,,,,45,77
88992,note_on,180,0,10,,,,,,,,,14,,,,46,0
89040,note_on,0,0,6,,,,,,,,,10,,,,82,97
89040,set_tempo,240,1,0,,,,,,281030,,,,,,,,
89040,note_on,60,0,6,,,,,,,,,10,,,,81,0
89042,note_on,0,0,7,,,,,,,,,11,,,,70,77
89042,note_on,60,0,7,,,,,,,,,11,,,,69,0
89046,note_on,0,0,8,,,,,,,,,12,,,,58,95
89046,note_on,60,0,8,,,,,,,,,12,,,,60,0
89050,note_on,0,0,9,,,,,,,,,13,,,,55,72
89050,note_on,60,0,9,,,,,,,,,13,,,,57,0
89052,note_on,0,0,10,,,,,,,,,14,,,,43,66
89052,note_on,60,0,10,,,,,,,,,14,,,,45,0
89160,note_on,120,0,6,,,,,,,,,10,,,,82,0
89162,note_on,120,0,7,,,,,,,,,11,,,,70,0
89166,note_on,120,0,8,,,,,,,,,12,,,,58,0
89170,note_on,120,0,9,,,,,,,,,13,,,,55,0
89172,note_on,120,0,10,,,,,,,,,14,,,,43,0
89280,note_on,0,0,6,,,,,,,,,10,,,,82,110
89280,set_tempo,240,1,0,,,,,,289157,,,,,,,,
89280,control_change,120,0,6,,,,,,,,,10,11,32,,,
89282,note_on,0,0,7,,,,,,,,,11,,,,70,88
89282,control_change,120,0,7,,,,,,,,,11,11,32,,,
89286,note_on,120,0,8,,,,,,,,,12,,,,58,108
89290,note_on,120,0,9,,,,,,,,,13,,,,55,99
89292,note_on,120,0,10,,,,,,,,,14,,,,43,93
89296,control_change,16,0,6,,,,,,,,,10,11,34,,,
89298,control_change,16,0,7,,,,,,,,,11,11,34,,,
89312,control_change,16,0,6,,,,,,,,,10,11,36,,,
89314,control_change,16,0,7,,,,,,,,,11,11,36,,,
89328,control_change,16,0,6,,,,,,,,,10,11,38,,,
89330,control_change,16,0,7,,,,,,,,,11,11,38,,,
89344,control_change,16,0,6,,,,,,,,,10,11,40,,,
89346,control_change,16,0,7,,,,,,,,,11,11,40,,,
89360,control_change,16,0,6,,,,,,,,,10,11,42,,,
89362,control_change,16,0,7,,,,,,,,,11,11,42,,,
89376,control_change,16,0,6,,,,,,,,,10,11,44,,,
89378,control_change,16,0,7,,,,,,,,,11,11,44,,,
89392,control_change,16,0,6,,,,,,,,,10,11,46,,,
89394,control_change,16,0,7,,,,,,,,,11,11,46,,,
89520,set_tempo,240,1,0,,,,,,281030,,,,,,,,
89520,note_on,128,0,6,,,,,,,,,10,,,,82,0
89520,note_on,0,0,6,,,,,,,,,10,,,,81,110
89522,note_on,0,0,7,,,,,,,,,11,,,,69,88
89522,note_on,128,0,7,,,,,,,,,11,,,,70,0
89526,note_on,0,0,8,,,,,,,,,12,,,,60,108
89526,note_on,240,0,8,,,,,,,,,12,,,,58,0
89530,note_on,0,0,9,,,,,,,,,13,,,,57,99
89530,note_on,240,0,9,,,,,,,,,13,,,,55,0
89532,note_on,0,0,10,,,,,,,,,14,,,,45,93
89532,note_on,240,0,10,,,,,,,,,14,,,,43,0
89700,note_on,0,0,6,,,,,,,,,10,,,,78,110
89700,note_on,180,0,6,,,,,,,,,10,,,,81,0
89702,note_on,0,0,7,,,,,,,,,11,,,,66,88
89702,note_on,180,0,7,,,,,,,,,11,,,,69,0
89739,note_on,39,0,6,,,,,,,,,10,,,,78,0
89741,note_on,39,0,7,,,,,,,,,11,,,,66,0
89760,note_on,21,0,6,,,,,,,,,10,,,,78,100
89760,set_tempo,240,1,0,,,,,,289157,,,,,,,,
89762,note_on,21,0,7,,,,,,,,,11,,,,66,80
89766,note_on,240,0,8,,,,,,,,,12,,,,60,0
89766,note_on,0,0,8,,,,,,,,,12,,,,62,108
89770,note_on,240,0,9,,,,,,,,,13,,,,57,0
89770,note_on,0,0,9,,,,,,,,,13,,,,58,99
89772,note_on,240,0,10,,,,,,,,,14,,,,45,0
89772,note_on,0,0,10,,,,,,,,,14,,,,46,93
89880,note_on,120,0,6,,,,,,,,,10,,,,78,0
89880,note_on,0,0,6,,,,,,,,,10,,,,79,102
89882,note_on,0,0,7,,,,,,,,,11,,,,67,81
89882,note_on,120,0,7,,,,,,,,,11,,,,66,0
90000,set_tempo,240,1,0,,,,,,281030,,,,,,,,
90000,note_on,120,0,6,,,,,,,,,10,,,,79,0
90000,note_on,0,0,6,,,,,,,,,10,,,,82,105
90002,note_on,120,0,7,,,,,,,,,11,,,,67,0
90002,note_on,0,0,7,,,,,,,,,11,,,,70,84
90006,note_on,240,0,8,,,,,,,,,12,,,,62,0
90010,note_on,240,0,9,,,,,,,,,13,,,,58,0
90012,note_on,240,0,10,,,,,,,,,14,,,,46,0
90120,note_on,120,0,6,,,,,,,,,10,,,,82,0
90120,control_change,0,0,6,,,,,,,,,10,11,46,,,
90120,note_on,0,0,6,,,,,,,,,10,,,,86,107
90122,note_on,0,0,7,,,,,,,,,11,,,,74,85
90122,note_on,120,0,7,,,,,,,,,11,,,,70,0
90122,control_change,0,0,7,,,,,,,,,11,11,46,,,
90137,control_change,17,0,6,,,,,,,,,10,11,44,,,
90139,control_change,17,0,7,,,,,,,,,11,11,44,,,
90154,control_change,17,0,6,,,,,,,,,10,11,42,,,
90156,control_change,17,0,7,,,,,,,,,11,11,42,,,
90171,control_change,17,0,6,,,,,,,,,10,11,40,,,
90173,control_change,17,0,7,,,,,,,,,11,11,40,,,
90188,control_change,17,0,6,,,,,,,,,10,11,38,,,
90190,control_change,17,0,7,,,,,,,,,11,11,38,,,
90205,control_change,17,0,6,,,,,,,,,10,11,36,,,
90207,control_change,17,0,7,,,,,,,,,11,11,36,,,
90222,control_change,17,0,6,,,,,,,,,10,11,34,,,
90224,control_change,17,0,7,,,,,,,,,11,11,34,,,
90235,note_on,13,0,6,,,,,,,,,10,,,,86,0
90237,note_on,13,0,7,,,,,,,,,11,,,,74,0
90240,control_change,5,0,6,,,,,,,,,10,11,32,,,
90240,note_on,0,0,6,,,,,,,,,10,,,,77,104
90240,set_tempo,240,1,0,,,,,,289157,,,,,,,,
90242,control_change,5,0,7,,,,,,,,,11,11,32,,,
90242,note_on,0,0,7,,,,,,,,,11,,,,65,83
90246,note_on,240,0,8,,,,,,,,,12,,,,57,102
90250,note_on,240,0,9,,,,,,,,,13,,,,60,79
90252,note_on,240,0,10,,,,,,,,,14,,,,48,73
90256,control_change,16,0,6,,,,,,,,,10,11,33,,,
90258,control_change,16,0,7,,,,,,,,,11,11,33,,,
90272,control_change,16,0,6,,,,,,,,,10,11,34,,,
90274,control_change,16,0,7,,,,,,,,,11,11,34,,,
90288,control_change,16,0,6,,,,,,,,,10,11,35,,,
90290,control_change,16,0,7,,,,,,,,,11,11,35,,,
90304,control_change,16,0,6,,,,,,,,,10,11,36,,,
90306,control_change,16,0,7,,,,,,,,,11,11,36,,,
90318,note_on,14,0,6,,,,,,,,,10,,,,77,0
90320,control_change,2,0,6,,,,,,,,,10,11,37,,,
90320,note_on,14,0,7,,,,,,,,,11,,,,65,0
90322,control_change,2,0,7,,,,,,,,,11,11,37,,,
90324,note_on,78,0,8,,,,,,,,,12,,,,57,0
90328,note_on,78,0,9,,,,,,,,,13,,,,60,0
90330,note_on,78,0,10,,,,,,,,,14,,,,48,0
90336,control_change,16,0,6,,,,,,,,,10,11,38,,,
90338,control_change,16,0,7,,,,,,,,,11,11,38,,,
90352,control_change,16,0,6,,,,,,,,,10,11,39,,,
90354,control_change,16,0,7,,,,,,,,,11,11,39,,,
90360,note_on,8,0,6,,,,,,,,,10,,,,77,105
90362,note_on,8,0,7,,,,,,,,,11,,,,65,84
90366,note_on,42,0,8,,,,,,,,,12,,,,57,103
90368,control_change,8,0,6,,,,,,,,,10,11,40,,,
90370,control_change,8,0,7,,,,,,,,,11,11,40,,,
90370,note_on,42,0,9,,,,,,,,,13,,,,60,80
90372,note_on,42,0,10,,,,,,,,,14,,,,48,74
90384,control_change,16,0,6,,,,,,,,,10,11,41,,,
90386,control_change,16,0,7,,,,,,,,,11,11,41,,,
90400,control_change,16,0,6,,,,,,,,,10,11,42,,,
90402,control_change,16,0,7,,,,,,,,,11,11,42,,,
90416,control_change,16,0,6,,,,,,,,,10,11,43,,,
90418,control_change,16,0,7,,,,,,,,,11,11,43,,,
90432,control_change,16,0,6,,,,,,,,,10,11,44,,,
90434,control_change,16,0,7,,,,,,,,,11,11,44,,,
90438,note_on,6,0,6,,,,,,,,,10,,,,77,0
90440,note_on,6,0,7,,,,,,,,,11,,,,65,0
90444,note_on,78,0,8,,,,,,,,,12,,,,57,0
90448,note_on,78,0,9,,,,,,,,,13,,,,60,0
90448,control_change,10,0,6,,,,,,,,,10,11,45,,,
90450,control_change,10,0,7,,,,,,,,,11,11,45,,,
90450,note_on,78,0,10,,,,,,,,,14,,,,48,0
90464,control_change,16,0,6,,,,,,,,,10,11,46,,,
90466,control_change,16,0,7,,,,,,,,,11,11,46,,,
90480,note_on,0,0,6,,,,,,,,,10,,,,81,106
90480,control_change,16,0,6,,,,,,,,,10,11,47,,,
90480,set_tempo,240,1,0,,,,,,281030,,,,,,,,
90482,control_change,16,0,7,,,,,,,,,11,11,47,,,
90482,note_on,0,0,7,,,,,,,,,11,,,,69,84
90486,note_on,42,0,8,,,,,,,,,12,,,,58,104
90490,note_on,42,0,9,,,,,,,,,13,,,,48,81
90492,note_on,42,0,10,,,,,,,,,14,,,,36,75
90495,note_on,0,0,6,,,,,,,,,10,,,,79,106
90495,note_on,15,0,6,,,,,,,,,10,,,,81,0
90497,note_on,0,0,7,,,,,,,,,11,,,,67,84
90497,note_on,15,0,7,,,,,,,,,11,,,,69,0
90540,note_on,0,0,6,,,,,,,,,10,,,,77,107
90540,note_on,45,0,6,,,,,,,,,10,,,,79,0
90542,note_on,0,0,7,,,,,,,,,11,,,,65,85
90542,note_on,45,0,7,,,,,,,,,11,,,,67,0
90546,note_on,60,0,8,,,,,,,,,12,,,,58,0
90546,note_on,0,0,8,,,,,,,,,12,,,,57,105
90600,note_on,0,0,6,,,,,,,,,10,,,,79,107
90600,note_on,60,0,6,,,,,,,,,10,,,,77,0
90602,note_on,60,0,7,,,,,,,,,11,,,,65,0
90602,note_on,0,0,7,,,,,,,,,11,,,,67,85
90605,note_on,115,0,9,,,,,,,,,13,,,,48,0
90606,note_on,60,0,8,,,,,,,,,12,,,,57,0
90606,note_on,0,0,8,,,,,,,,,12,,,,58,105
90607,note_on,115,0,10,,,,,,,,,14,,,,36,0
90610,note_on,5,0,9,,,,,,,,,13,,,,48,82
90612,note_on,5,0,10,,,,,,,,,14,,,,36,76
90650,set_tempo,170,1,0,,,,,,318302,,,,,,,,
90660,note_on,60,0,6,,,,,,,,,10,,,,79,0
90660,note_on,0,0,6,,,,,,,,,10,,,,81,86
90662,note_on,0,0,7,,,,,,,,,11,,,,69,68
90662,note_on,60,0,7,,,,,,,,,11,,,,67,0
90666,note_on,60,0,8,,,,,,,,,12,,,,58,0
90666,note_on,0,0,8,,,,,,,,,12,,,,60,84
90720,note_on,0,0,6,,,,,,,,,10,,,,77,86
90720,set_tempo,70,1,0,,,,,,289157,,,,,,,,
90720,note_on,60,0,6,,,,,,,,,10,,,,81,0
90722,note_on,60,0,7,,,,,,,,,11,,,,69,0
90722,note_on,0,0,7,,,,,,,,,11,,,,65,68
90725,note_on,115,0,9,,,,,,,,,13,,,,48,0
90726,note_on,0,0,8,,,,,,,,,12,,,,57,84
90726,note_on,60,0,8,,,,,,,,,12,,,,60,0
90727,note_on,115,0,10,,,,,,,,,14,,,,36,0
90730,note_on,5,0,9,,,,,,,,,13,,,,53,63
90732,note_on,5,0,10,,,,,,,,,14,,,,41,57
90840,note_on,120,0,6,,,,,,,,,10,,,,77,0
90842,note_on,120,0,7,,,,,,,,,11,,,,65,0
90843,control_change,3725,0,1,,,,,,,,,0,11,57,,,
90843,note_on,0,0,1,,,,,,,,,0,,,,71,97
90846,note_on,120,0,8,,,,,,,,,12,,,,57,0
90850,note_on,120,0,9,,,,,,,,,13,,,,53,0
90851,note_on,0,0,3,,,,,,,,,3,,,,59,97
90851,control_change,3725,0,3,,,,,,,,,3,11,47,,,
90852,note_on,120,0,10,,,,,,,,,14,,,,41,0
90903,note_on,0,0,1,,,,,,,,,0,,,,72,97
90903,note_on,60,0,1,,,,,,,,,0,,,,71,0
90911,note_on,0,0,3,,,,,,,,,3,,,,60,97
90911,note_on,60,0,3,,,,,,,,,3,,,,59,0
90960,set_tempo,240,1,0,,,,,,281030,,,,,,,,
90963,note_on,60,0,1,,,,,,,,,0,,,,72,0
90963,note_on,0,0,1,,,,,,,,,0,,,,74,99
90971,note_on,60,0,3,,,,,,,,,3,,,,60,0
90971,note_on,0,0,3,,,,,,,,,3,,,,62,99
91023,note_on,0,0,1,,,,,,,,,0,,,,76,101
91023,note_on,60,0,1,,,,,,,,,0,,,,74,0
91031,note_on,60,0,3,,,,,,,,,3,,,,62,0
91031,note_on,0,0,3,,,,,,,,,3,,,,64,101
91083,note_on,0,0,1,,,,,,,,,0,,,,77,102
91083,note_on,60,0,1,,,,,,,,,0,,,,76,0
91091,note_on,60,0,3,,,,,,,,,3,,,,64,0
91091,note_on,0,0,3,,,,,,,,,3,,,,65,102
91143,note_on,0,0,1,,,,,,,,,0,,,,79,103
91143,note_on,60,0,1,,,,,,,,,0,,,,77,0
91151,note_on,60,0,3,,,,,,,,,3,,,,65,0
91151,note_on,0,0,3,,,,,,,,,3,,,,67,103
91200,set_tempo,240,1,0,,,,,,289157,,,,,,,,
91203,control_change,0,0,1,,,,,,,,,0,11,57,,,
91203,note_on,0,0,1,,,,,,,,,0,,,,81,105
91203,note_on,60,0,1,,,,,,,,,0,,,,79,0
91205,control_change,4085,0,2,,,,,,,,,1,11,57,,,
91205,note_on,0,0,2,,,,,,,,,1,,,,69,105
91206,note_on,0,0,8,,,,,,,,,12,,,,57,108
91206,control_change,360,0,8,,,,,,,,,12,11,27,,,
91210,note_on,0,0,9,,,,,,,,,13,,,,53,99
91210,control_change,360,0,9,,,,,,,,,13,11,27,,,
91211,note_on,60,0,3,,,,,,,,,3,,,,67,0
91211,note_on,0,0,3,,,,,,,,,3,,,,65,105
91212,control_change,360,0,10,,,,,,,,,14,11,27,,,
91212,note_on,0,0,10,,,,,,,,,14,,,,41,93
91230,control_change,24,0,8,,,,,,,,,12,11,29,,,
91234,control_change,24,0,9,,,,,,,,,13,11,29,,,
91236,control_change,24,0,10,,,,,,,,,14,11,29,,,
91254,control_change,24,0,8,,,,,,,,,12,11,31,,,
91258,control_change,24,0,9,,,,,,,,,13,11,31,,,
91260,control_change,24,0,10,,,,,,,,,14,11,31,,,
91278,control_change,24,0,8,,,,,,,,,12,11,33,,,
91282,control_change,24,0,9,,,,,,,,,13,11,33,,,
91284,control_change,24,0,10,,,,,,,,,14,11,33,,,
91302,control_change,24,0,8,,,,,,,,,12,11,35,,,
91306,control_change,24,0,9,,,,,,,,,13,11,35,,,
91308,control_change,24,0,10,,,,,,,,,14,11,35,,,
91326,control_change,24,0,8,,,,,,,,,12,11,37,,,
91330,control_change,24,0,9,,,,,,,,,13,11,37,,,
91332,control_change,24,0,10,,,,,,,,,14,11,37,,,
91350,control_change,24,0,8,,,,,,,,,12,11,39,,,
91354,control_change,24,0,9,,,,,,,,,13,11,39,,,
91356,control_change,24,0,10,,,,,,,,,14,11,39,,,
91374,control_change,24,0,8,,,,,,,,,12,11,41,,,
91378,control_change,24,0,9,,,,,,,,,13,11,41,,,
91380,control_change,24,0,10,,,,,,,,,14,11,41,,,
91398,control_change,24,0,8,,,,,,,,,12,11,43,,,
91402,control_change,24,0,9,,,,,,,,,13,11,43,,,
91404,control_change,24,0,10,,,,,,,,,14,11,43,,,
91422,control_change,24,0,8,,,,,,,,,12,11,45,,,
91426,control_change,24,0,9,,,,,,,,,13,11,45,,,
91428,control_change,24,0,10,,,,,,,,,14,11,45,,,
91440,set_tempo,240,1,0,,,,,,281030,,,,,,,,
91443,note_on,240,0,1,,,,,,,,,0,,,,81,0
91443,note_on,0,0,1,,,,,,,,,0,,,,79,97
91445,note_on,0,0,2,,,,,,,,,1,,,,67,97
91445,note_on,240,0,2,,,,,,,,,1,,,,69,0
91446,control_change,0,0,8,,,,,,,,,12,11,47,,,
91446,note_on,24,0,8,,,,,,,,,12,,,,57,0
91446,note_on,0,0,8,,,,,,,,,12,,,,58,108
91450,note_on,0,0,9,,,,,,,,,13,,,,55,99
91450,control_change,0,0,9,,,,,,,,,13,11,47,,,
91450,note_on,24,0,9,,,,,,,,,13,,,,53,0
91451,note_on,240,0,3,,,,,,,,,3,,,,65,0
91451,note_on,0,0,3,,,,,,,,,3,,,,61,97
91452,note_on,0,0,10,,,,,,,,,14,,,,43,93
91452,control_change,0,0,10,,,,,,,,,14,11,47,,,
91452,note_on,24,0,10,,,,,,,,,14,,,,41,0
91623,note_on,180,0,1,,,,,,,,,0,,,,79,0
91623,note_on,0,0,1,,,,,,,,,0,,,,76,97
91625,note_on,0,0,2,,,,,,,,,1,,,,64,97
91625,note_on,180,0,2,,,,,,,,,1,,,,67,0
91673,note_on,50,0,1,,,,,,,,,0,,,,76,0
91675,note_on,50,0,2,,,,,,,,,1,,,,64,0
91680,set_tempo,240,1,0,,,,,,289157,,,,,,,,
91683,note_on,10,0,1,,,,,,,,,0,,,,76,97
91685,note_on,10,0,2,,,,,,,,,1,,,,64,97
91686,note_on,0,0,8,,,,,,,,,12,,,,60,108
91686,note_on,240,0,8,,,,,,,,,12,,,,58,0
91690,note_on,0,0,9,,,,,,,,,13,,,,57,99
91690,note_on,240,0,9,,,,,,,,,13,,,,55,0
91691,note_on,0,0,3,,,,,,,,,3,,,,60,97
91691,note_on,240,0,3,,,,,,,,,3,,,,61,0
91692,note_on,0,0,10,,,,,,,,,14,,,,45,93
91692,note_on,240,0,10,,,,,,,,,14,,,,43,0
91800,control_change,960,0,6,,,,,,,,,10,11,42,,,
91800,note_on,0,0,6,,,,,,,,,10,,,,84,102
91802,note_on,0,0,7,,,,,,,,,11,,,,72,81
91802,control_change,960,0,7,,,,,,,,,11,11,42,,,
91803,note_on,120,0,1,,,,,,,,,0,,,,76,0
91803,note_on,0,0,1,,,,,,,,,0,,,,77,97
91804,control_change,4,0,6,,,,,,,,,10,11,45,,,
91805,note_on,0,0,2,,,,,,,,,1,,,,65,97
91805,note_on,120,0,2,,,,,,,,,1,,,,64,0
91806,control_change,4,0,7,,,,,,,,,11,11,45,,,
91808,control_change,4,0,6,,,,,,,,,10,11,48,,,
91810,control_change,4,0,7,,,,,,,,,11,11,48,,,
91813,control_change,5,0,6,,,,,,,,,10,11,51,,,
91815,control_change,5,0,7,,,,,,,,,11,11,51,,,
91817,control_change,4,0,6,,,,,,,,,10,11,54,,,
91819,control_change,4,0,7,,,,,,,,,11,11,54,,,
91821,control_change,4,0,6,,,,,,,,,10,11,57,,,
91823,control_change,4,0,7,,,,,,,,,11,11,57,,,
91826,control_change,5,0,6,,,,,,,,,10,11,60,,,
91828,control_change,5,0,7,,,,,,,,,11,11,60,,,
91920,set_tempo,240,1,0,,,,,,281030,,,,,,,,
91920,control_change,94,0,6,,,,,,,,,10,11,62,,,
91922,control_change,94,0,7,,,,,,,,,11,11,62,,,
91923,note_on,120,0,1,,,,,,,,,0,,,,77,0
91923,note_on,0,0,1,,,,,,,,,0,,,,72,97
91925,note_on,120,0,2,,,,,,,,,1,,,,65,0
91925,note_on,0,0,2,,,,,,,,,1,,,,60,97
91926,note_on,240,0,8,,,,,,,,,12,,,,60,0
91930,note_on,240,0,9,,,,,,,,,13,,,,57,0
91931,note_on,240,0,3,,,,,,,,,3,,,,60,0
91932,note_on,240,0,10,,,,,,,,,14,,,,45,0
91943,control_change,23,0,6,,,,,,,,,10,11,60,,,
91945,control_change,23,0,7,,,,,,,,,11,11,60,,,
91967,control_change,24,0,6,,,,,,,,,10,11,58,,,
91969,control_change,24,0,7,,,,,,,,,11,11,58,,,
91991,control_change,24,0,6,,,,,,,,,10,11,56,,,
91993,control_change,24,0,7,,,,,,,,,11,11,56,,,
92015,control_change,24,0,6,,,,,,,,,10,11,54,,,
92017,control_change,24,0,7,,,,,,,,,11,11,54,,,
92039,control_change,24,0,6,,,,,,,,,10,11,52,,,
92040,note_on,0,0,6,,,,,,,,,10,,,,82,102
92040,note_on,1,0,6,,,,,,,,,10,,,,84,0
92041,control_change,24,0,7,,,,,,,,,11,11,52,,,
92042,note_on,0,0,7,,,,,,,,,11,,,,70,81
92042,note_on,1,0,7,,,,,,,,,11,,,,72,0
92063,control_change,140,0,1,,,,,,,,,0,11,57,,,
92063,control_change,23,0,6,,,,,,,,,10,11,50,,,
92065,control_change,140,0,2,,,,,,,,,1,11,57,,,
92065,control_change,23,0,7,,,,,,,,,11,11,50,,,
92082,control_change,19,0,1,,,,,,,,,0,11,54,,,
92084,control_change,19,0,2,,,,,,,,,1,11,54,,,
92087,control_change,24,0,6,,,,,,,,,10,11,48,,,
92089,control_change,24,0,7,,,,,,,,,11,11,48,,,
92100,note_on,13,0,6,,,,,,,,,10,,,,82,0
92100,note_on,0,0,6,,,,,,,,,10,,,,81,102
92102,note_on,13,0,7,,,,,,,,,11,,,,70,0
92102,control_change,20,0,1,,,,,,,,,0,11,51,,,
92102,note_on,0,0,7,,,,,,,,,11,,,,69,81
92104,control_change,20,0,2,,,,,,,,,1,11,51,,,
92122,control_change,20,0,1,,,,,,,,,0,11,48,,,
92124,control_change,20,0,2,,,,,,,,,1,11,48,,,
92139,note_on,39,0,6,,,,,,,,,10,,,,81,0
92141,note_on,39,0,7,,,,,,,,,11,,,,69,0
92142,control_change,20,0,1,,,,,,,,,0,11,45,,,
92144,control_change,20,0,2,,,,,,,,,1,11,45,,,
92160,note_on,21,0,6,,,,,,,,,10,,,,79,72
92160,set_tempo,240,1,0,,,,,,289157,,,,,,,,
92162,control_change,20,0,1,,,,,,,,,0,11,42,,,
92162,note_on,21,0,7,,,,,,,,,11,,,,67,57
92163,control_change,0,0,1,,,,,,,,,0,11,57,,,
92163,note_on,0,0,1,,,,,,,,,0,,,,74,87
92163,note_on,1,0,1,,,,,,,,,0,,,,72,0
92164,control_change,20,0,2,,,,,,,,,1,11,42,,,
92165,control_change,0,0,2,,,,,,,,,1,11,57,,,
92165,note_on,1,0,2,,,,,,,,,1,,,,60,0
92165,note_on,0,0,2,,,,,,,,,1,,,,62,87
92166,note_on,240,0,8,,,,,,,,,12,,,,62,108
92170,note_on,240,0,9,,,,,,,,,13,,,,58,84
92172,note_on,240,0,10,,,,,,,,,14,,,,46,78
92223,note_on,60,0,1,,,,,,,,,0,,,,74,0
92225,note_on,60,0,2,,,,,,,,,1,,,,62,0
92226,note_on,60,0,8,,,,,,,,,12,,,,62,0
92230,note_on,60,0,9,,,,,,,,,13,,,,58,0
92232,note_on,60,0,10,,,,,,,,,14,,,,46,0
92280,note_on,120,0,6,,,,,,,,,10,,,,79,0
92282,note_on,120,0,7,,,,,,,,,11,,,,67,0
92283,note_on,60,0,1,,,,,,,,,0,,,,74,88
92285,note_on,60,0,2,,,,,,,,,1,,,,62,88
92286,note_on,60,0,8,,,,,,,,,12,,,,62,108
92290,note_on,60,0,9,,,,,,,,,13,,,,58,84
92292,note_on,60,0,10,,,,,,,,,14,,,,46,78
92343,note_on,60,0,1,,,,,,,,,0,,,,74,0
92345,note_on,60,0,2,,,,,,,,,1,,,,62,0
92346,note_on,60,0,8,,,,,,,,,12,,,,62,0
92350,note_on,60,0,9,,,,,,,,,13,,,,58,0
92352,note_on,60,0,10,,,,,,,,,14,,,,46,0
92400,set_tempo,240,1,0,,,,,,281030,,,,,,,,
92403,note_on,60,0,1,,,,,,,,,0,,,,78,90
92405,note_on,60,0,2,,,,,,,,,1,,,,66,90
92406,note_on,60,0,8,,,,,,,,,12,,,,63,108
92410,note_on,60,0,9,,,,,,,,,13,,,,60,84
92412,note_on,60,0,10,,,,,,,,,14,,,,48,78
92463,note_on,60,0,1,,,,,,,,,0,,,,78,0
92465,note_on,60,0,2,,,,,,,,,1,,,,66,0
92466,note_on,60,0,8,,,,,,,,,12,,,,63,0
92470,note_on,60,0,9,,,,,,,,,13,,,,60,0
92472,note_on,60,0,10,,,,,,,,,14,,,,48,0
92523,note_on,60,0,1,,,,,,,,,0,,,,78,92
92525,note_on,60,0,2,,,,,,,,,1,,,,66,92
92526,note_on,60,0,8,,,,,,,,,12,,,,63,108
92530,note_on,60,0,9,,,,,,,,,13,,,,60,84
92532,note_on,60,0,10,,,,,,,,,14,,,,48,78
92583,note_on,60,0,1,,,,,,,,,0,,,,78,0
92585,note_on,60,0,2,,,,,,,,,1,,,,66,0
92586,note_on,60,0,8,,,,,,,,,12,,,,63,0
92590,note_on,60,0,9,,,,,,,,,13,,,,60,0
92592,note_on,60,0,10,,,,,,,,,14,,,,48,0
92640,set_tempo,240,1,0,,,,,,289157,,,,,,,,
92643,note_on,60,0,1,,,,,,,,,0,,,,81,93
92645,note_on,60,0,2,,,,,,,,,1,,,,69,93
92646,note_on,60,0,8,,,,,,,,,12,,,,62,108
92650,note_on,60,0,9,,,,,,,,,13,,,,58,84
92652,note_on,60,0,10,,,,,,,,,14,,,,46,78
92658,note_on,0,0,1,,,,,,,,,0,,,,79,93
92658,note_on,15,0,1,,,,,,,,,0,,,,81,0
92660,note_on,0,0,2,,,,,,,,,1,,,,67,93
92660,note_on,15,0,2,,,,,,,,,1,,,,69,0
92703,note_on,0,0,1,,,,,,,,,0,,,,78,94
92703,note_on,45,0,1,,,,,,,,,0,,,,79,0
92705,note_on,0,0,2,,,,,,,,,1,,,,66,94
92705,note_on,45,0,2,,,,,,,,,1,,,,67,0
92763,note_on,0,0,1,,,,,,,,,0,,,,79,95
92763,note_on,60,0,1,,,,,,,,,0,,,,78,0
92765,note_on,0,0,2,,,,,,,,,1,,,,67,95
92765,note_on,60,0,2,,,,,,,,,1,,,,66,0
92823,note_on,0,0,1,,,,,,,,,0,,,,81,96
92823,note_on,60,0,1,,,,,,,,,0,,,,79,0
92825,note_on,60,0,2,,,,,,,,,1,,,,67,0
92825,note_on,0,0,2,,,,,,,,,1,,,,69,96
92826,note_on,180,0,8,,,,,,,,,12,,,,62,0
92826,note_on,0,0,8,,,,,,,,,12,,,,60,108
92830,note_on,0,0,9,,,,,,,,,13,,,,57,84
92830,note_on,180,0,9,,,,,,,,,13,,,,58,0
92832,note_on,180,0,10,,,,,,,,,14,,,,46,0
92832,note_on,0,0,10,,,,,,,,,14,,,,45,78
92880,set_tempo,240,1,0,,,,,,281030,,,,,,,,
92880,note_on,600,0,6,,,,,,,,,10,,,,81,90
92882,note_on,600,0,7,,,,,,,,,11,,,,69,72
92883,note_on,60,0,1,,,,,,,,,0,,,,81,0
92883,note_on,0,0,1,,,,,,,,,0,,,,82,85
92885,note_on,60,0,2,,,,,,,,,1,,,,69,0
92885,note_on,0,0,2,,,,,,,,,1,,,,70,85
92886,note_on,0,0,8,,,,,,,,,12,,,,58,108
92886,note_on,60,0,8,,,,,,,,,12,,,,60,0
92890,note_on,0,0,9,,,,,,,,,13,,,,55,84
92890,note_on,60,0,9,,,,,,,,,13,,,,57,0
92891,note_on,960,0,3,,,,,,,,,3,,,,55,97
92892,note_on,60,0,10,,,,,,,,,14,,,,45,0
92892,note_on,0,0,10,,,,,,,,,14,,,,43,78
92895,note_on,0,0,6,,,,,,,,,10,,,,79,90
92895,note_on,15,0,6,,,,,,,,,10,,,,81,0
92897,note_on,15,0,7,,,,,,,,,11,,,,69,0
92897,note_on,0,0,7,,,,,,,,,11,,,,67,72
92940,note_on,45,0,6,,,,,,,,,10,,,,79,0
92940,note_on,0,0,6,,,,,,,,,10,,,,78,90
92942,note_on,0,0,7,,,,,,,,,11,,,,66,72
92942,note_on,45,0,7,,,,,,,,,11,,,,67,0
92951,note_on,60,0,3,,,,,,,,,3,,,,55,0
92951,note_on,0,0,3,,,,,,,,,3,,,,54,97
93000,note_on,0,0,6,,,,,,,,,10,,,,79,90
93000,note_on,60,0,6,,,,,,,,,10,,,,78,0
93002,note_on,0,0,7,,,,,,,,,11,,,,67,72
93002,note_on,60,0,7,,,,,,,,,11,,,,66,0
93003,note_on,120,0,1,,,,,,,,,0,,,,82,0
93005,note_on,120,0,2,,,,,,,,,1,,,,70,0
93006,note_on,120,0,8,,,,,,,,,12,,,,58,0
93010,note_on,120,0,9,,,,,,,,,13,,,,55,0
93011,note_on,60,0,3,,,,,,,,,3,,,,54,0
93011,note_on,0,0,3,,,,,,,,,3,,,,55,97
93012,note_on,120,0,10,,,,,,,,,14,,,,43,0
93060,note_on,0,0,6,,,,,,,,,10,,,,81,90
93060,note_on,60,0,6,,,,,,,,,10,,,,79,0
93062,note_on,0,0,7,,,,,,,,,11,,,,69,72
93062,note_on,60,0,7,,,,,,,,,11,,,,67,0
93071,note_on,60,0,3,,,,,,,,,3,,,,55,0
93071,note_on,0,0,3,,,,,,,,,3,,,,57,97
93120,note_on,60,0,6,,,,,,,,,10,,,,81,0
93120,note_on,0,0,6,,,,,,,,,10,,,,82,74
93120,set_tempo,240,1,0,,,,,,289157,,,,,,,,
93122,note_on,60,0,7,,,,,,,,,11,,,,69,0
93122,note_on,0,0,7,,,,,,,,,11,,,,70,59
93123,note_on,120,0,1,,,,,,,,,0,,,,82,97
93125,note_on,120,0,2,,,,,,,,,1,,,,70,97
93126,note_on,120,0,8,,,,,,,,,12,,,,58,108
93130,note_on,120,0,9,,,,,,,,,13,,,,55,99
93131,note_on,0,0,3,,,,,,,,,3,,,,58,97
93131,note_on,60,0,3,,,,,,,,,3,,,,57,0
93132,note_on,120,0,10,,,,,,,,,14,,,,43,93
93240,note_on,120,0,6,,,,,,,,,10,,,,82,0
93242,note_on,120,0,7,,,,,,,,,11,,,,70,0
93360,set_tempo,240,1,0,,,,,,281030,,,,,,,,
93363,note_on,0,0,1,,,,,,,,,0,,,,81,97
93363,note_on,240,0,1,,,,,,,,,0,,,,82,0
93365,note_on,240,0,2,,,,,,,,,1,,,,70,0
93365,note_on,0,0,2,,,,,,,,,1,,,,69,97
93366,note_on,0,0,8,,,,,,,,,12,,,,60,108
93366,note_on,240,0,8,,,,,,,,,12,,,,58,0
93370,note_on,240,0,9,,,,,,,,,13,,,,55,0
93370,note_on,0,0,9,,,,,,,,,13,,,,57,99
93371,note_on,240,0,3,,,,,,,,,3,,,,58,0
93371,note_on,0,0,3,,,,,,,,,3,,,,63,97
93372,note_on,0,0,10,,,,,,,,,14,,,,45,93
93372,note_on,240,0,10,,,,,,,,,14,,,,43,0
93543,note_on,0,0,1,,,,,,,,,0,,,,78,97
93543,note_on,180,0,1,,,,,,,,,0,,,,81,0
93545,note_on,180,0,2,,,,,,,,,1,,,,69,0
93545,note_on,0,0,2,,,,,,,,,1,,,,66,97
93593,note_on,50,0,1,,,,,,,,,0,,,,78,0
93595,note_on,50,0,2,,,,,,,,,1,,,,66,0
93600,set_tempo,240,1,0,,,,,,289157,,,,,,,,
93603,note_on,10,0,1,,,,,,,,,0,,,,78,97
93605,note_on,10,0,2,,,,,,,,,1,,,,66,97
93606,note_on,0,0,8,,,,,,,,,12,,,,62,108
93606,note_on,240,0,8,,,,,,,,,12,,,,60,0
93610,note_on,240,0,9,,,,,,,,,13,,,,57,0
93610,note_on,0,0,9,,,,,,,,,13,,,,58,99
93611,note_on,240,0,3,,,,,,,,,3,,,,63,0
93611,note_on,0,0,3,,,,,,,,,3,,,,62,97
93612,note_on,0,0,10,,,,,,,,,14,,,,46,93
93612,note_on,240,0,10,,,,,,,,,14,,,,45,0
93720,note_on,0,0,6,,,,,,,,,10,,,,86,102
93720,control_change,480,0,6,,,,,,,,,10,11,42,,,
93722,control_change,480,0,7,,,,,,,,,11,11,42,,,
93722,note_on,0,0,7,,,,,,,,,11,,,,74,81
93723,note_on,0,0,1,,,,,,,,,0,,,,79,97
93723,note_on,120,0,1,,,,,,,,,0,,,,78,0
93724,control_change,4,0,6,,,,,,,,,10,11,45,,,
93725,note_on,120,0,2,,,,,,,,,1,,,,66,0
93725,note_on,0,0,2,,,,,,,,,1,,,,67,97
93726,control_change,4,0,7,,,,,,,,,11,11,45,,,
93728,control_change,4,0,6,,,,,,,,,10,11,48,,,
93730,control_change,4,0,7,,,,,,,,,11,11,48,,,
93733,control_change,5,0,6,,,,,,,,,10,11,51,,,
93735,control_change,5,0,7,,,,,,,,,11,11,51,,,
93737,control_change,4,0,6,,,,,,,,,10,11,54,,,
93739,control_change,4,0,7,,,,,,,,,11,11,54,,,
93741,control_change,4,0,6,,,,,,,,,10,11,57,,,
93743,control_change,4,0,7,,,,,,,,,11,11,57,,,
93746,control_change,5,0,6,,,,,,,,,10,11,60,,,
93748,control_change,5,0,7,,,,,,,,,11,11,60,,,
93840,control_change,94,0,6,,,,,,,,,10,11,62,,,
93840,set_tempo,240,1,0,,,,,,281030,,,,,,,,
93842,control_change,94,0,7,,,,,,,,,11,11,62,,,
93843,note_on,120,0,1,,,,,,,,,0,,,,79,0
93843,note_on,0,0,1,,,,,,,,,0,,,,82,97
93845,note_on,0,0,2,,,,,,,,,1,,,,70,97
93845,note_on,120,0,2,,,,,,,,,1,,,,67,0
93846,note_on,240,0,8,,,,,,,,,12,,,,62,0
93850,note_on,240,0,9,,,,,,,,,13,,,,58,0
93851,note_on,240,0,3,,,,,,,,,3,,,,62,0
93852,note_on,240,0,10,,,,,,,,,14,,,,46,0
93867,control_change,27,0,6,,,,,,,,,10,11,60,,,
93869,control_change,27,0,7,,,,,,,,,11,11,60,,,
93895,control_change,28,0,6,,,,,,,,,10,11,58,,,
93897,control_change,28,0,7,,,,,,,,,11,11,58,,,
93923,control_change,28,0,6,,,,,,,,,10,11,56,,,
93925,control_change,28,0,7,,,,,,,,,11,11,56,,,
93951,control_change,28,0,6,,,,,,,,,10,11,54,,,
93953,control_change,28,0,7,,,,,,,,,11,11,54,,,
93960,note_on,9,0,6,,,,,,,,,10,,,,86,0
93960,note_on,0,0,6,,,,,,,,,10,,,,82,102
93962,note_on,0,0,7,,,,,,,,,11,,,,70,81
93962,note_on,9,0,7,,,,,,,,,11,,,,74,0
93963,note_on,120,0,1,,,,,,,,,0,,,,82,0
93963,note_on,0,0,1,,,,,,,,,0,,,,86,97
93965,note_on,120,0,2,,,,,,,,,1,,,,70,0
93965,note_on,0,0,2,,,,,,,,,1,,,,74,97
93979,control_change,19,0,6,,,,,,,,,10,11,52,,,
93981,control_change,19,0,7,,,,,,,,,11,11,52,,,
94007,control_change,28,0,6,,,,,,,,,10,11,50,,,
94009,control_change,28,0,7,,,,,,,,,11,11,50,,,
94020,note_on,0,0,6,,,,,,,,,10,,,,79,102
94020,note_on,13,0,6,,,,,,,,,10,,,,82,0
94022,note_on,0,0,7,,,,,,,,,11,,,,67,81
94022,note_on,13,0,7,,,,,,,,,11,,,,70,0
94035,control_change,15,0,6,,,,,,,,,10,11,48,,,
94037,control_change,15,0,7,,,,,,,,,11,11,48,,,
94059,note_on,24,0,6,,,,,,,,,10,,,,79,0
94061,note_on,24,0,7,,,,,,,,,11,,,,67,0
94080,set_tempo,240,1,0,,,,,,289157,,,,,,,,
94080,note_on,21,0,6,,,,,,,,,10,,,,77,102
94082,note_on,21,0,7,,,,,,,,,11,,,,65,81
94083,note_on,0,0,1,,,,,,,,,0,,,,77,97
94083,note_on,120,0,1,,,,,,,,,0,,,,86,0
94085,note_on,0,0,2,,,,,,,,,1,,,,65,97
94085,note_on,120,0,2,,,,,,,,,1,,,,74,0
94086,note_on,240,0,8,,,,,,,,,12,,,,57,108
94090,note_on,240,0,9,,,,,,,,,13,,,,60,99
94092,note_on,240,0,10,,,,,,,,,14,,,,48,93
94183,note_on,100,0,1,,,,,,,,,0,,,,77,0
94185,note_on,100,0,2,,,,,,,,,1,,,,65,0
94200,note_on,120,0,6,,,,,,,,,10,,,,77,0
94201,note_on,115,0,8,,,,,,,,,12,,,,57,0
94202,note_on,120,0,7,,,,,,,,,11,,,,65,0
94203,note_on,20,0,1,,,,,,,,,0,,,,77,97
94205,note_on,115,0,9,,,,,,,,,13,,,,60,0
94205,note_on,20,0,2,,,,,,,,,1,,,,65,97
94206,note_on,5,0,8,,,,,,,,,12,,,,57,108
94207,note_on,115,0,10,,,,,,,,,14,,,,48,0
94210,note_on,5,0,9,,,,,,,,,13,,,,60,99
94212,note_on,5,0,10,,,,,,,,,14,,,,48,93
94303,note_on,100,0,1,,,,,,,,,0,,,,77,0
94305,note_on,100,0,2,,,,,,,,,1,,,,65,0
94320,note_on,120,0,6,,,,,,,,,10,,,,76,94
94320,set_tempo,240,1,0,,,,,,281030,,,,,,,,
94321,note_on,115,0,8,,,,,,,,,12,,,,57,0
94322,note_on,120,0,7,,,,,,,,,11,,,,64,75
94323,note_on,20,0,1,,,,,,,,,0,,,,81,97
94325,note_on,20,0,2,,,,,,,,,1,,,,69,97
94325,note_on,115,0,9,,,,,,,,,13,,,,60,0
94326,note_on,5,0,8,,,,,,,,,12,,,,58,108
94327,note_on,115,0,10,,,,,,,,,14,,,,48,0
94330,note_on,5,0,9,,,,,,,,,13,,,,48,99
94332,note_on,5,0,10,,,,,,,,,14,,,,36,93
94338,note_on,15,0,1,,,,,,,,,0,,,,81,0
94338,note_on,0,0,1,,,,,,,,,0,,,,79,97
94340,note_on,0,0,2,,,,,,,,,1,,,,67,97
94340,note_on,15,0,2,,,,,,,,,1,,,,69,0
94383,note_on,0,0,1,,,,,,,,,0,,,,77,97
94383,note_on,45,0,1,,,,,,,,,0,,,,79,0
94385,note_on,0,0,2,,,,,,,,,1,,,,65,97
94385,note_on,45,0,2,,,,,,,,,1,,,,67,0
94386,note_on,0,0,8,,,,,,,,,12,,,,57,108
94386,note_on,60,0,8,,,,,,,,,12,,,,58,0
94440,note_on,120,0,6,,,,,,,,,10,,,,76,0
94442,note_on,120,0,7,,,,,,,,,11,,,,64,0
94443,note_on,0,0,1,,,,,,,,,0,,,,79,97
94443,note_on,60,0,1,,,,,,,,,0,,,,77,0
94445,note_on,0,0,2,,,,,,,,,1,,,,67,97
94445,note_on,60,0,2,,,,,,,,,1,,,,65,0
94445,note_on,115,0,9,,,,,,,,,13,,,,48,0
94446,note_on,0,0,8,,,,,,,,,12,,,,58,108
94446,note_on,60,0,8,,,,,,,,,12,,,,57,0
94447,note_on,115,0,10,,,,,,,,,14,,,,36,0
94450,note_on,5,0,9,,,,,,,,,13,,,,48,99
94452,note_on,5,0,10,,,,,,,,,14,,,,36,93
94500,set_tempo,180,1,0,,,,,,338028,,,,,,,,
94503,note_on,60,0,1,,,,,,,,,0,,,,79,0
94503,note_on,0,0,1,,,,,,,,,0,,,,81,97
94505,note_on,60,0,2,,,,,,,,,1,,,,67,0
94505,note_on,0,0,2,,,,,,,,,1,,,,69,97
94506,note_on,0,0,8,,,,,,,,,12,,,,60,108
94506,note_on,60,0,8,,,,,,,,,12,,,,58,0
94560,note_on,0,0,6,,,,,,,,,10,,,,77,82
94560,control_change,120,0,6,,,,,,,,,10,11,42,,,
94560,set_tempo,60,1,0,,,,,,285714,,,,,,,,
94562,control_change,120,0,7,,,,,,,,,11,11,42,,,
94562,note_on,0,0,7,,,,,,,,,11,,,,65,65
94563,note_on,0,0,1,,,,,,,,,0,,,,77,73
94563,note_on,60,0,1,,,,,,,,,0,,,,81,0
94565,note_on,115,0,9,,,,,,,,,13,,,,48,0
94565,note_on,0,0,2,,,,,,,,,1,,,,65,73
94565,note_on,60,0,2,,,,,,,,,1,,,,69,0
94566,note_on,60,0,8,,,,,,,,,12,,,,60,0
94566,note_on,0,0,8,,,,,,,,,12,,,,56,98
94566,control_change,0,0,8,,,,,,,,,12,11,42,,,
94567,note_on,115,0,10,,,,,,,,,14,,,,36,0
94570,control_change,5,0,9,,,,,,,,,13,11,42,,,
94570,note_on,0,0,9,,,,,,,,,13,,,,49,89
94572,control_change,5,0,10,,,,,,,,,14,11,42,,,
94572,note_on,0,0,10,,,,,,,,,14,,,,37,83
94620,note_on,60,0,6,,,,,,,,,10,,,,77,0
94622,note_on,60,0,7,,,,,,,,,11,,,,65,0
94680,note_on,60,0,6,,,,,,,,,10,,,,77,105
94682,note_on,60,0,7,,,,,,,,,11,,,,65,84
94683,note_on,120,0,1,,,,,,,,,0,,,,77,0
94685,note_on,120,0,2,,,,,,,,,1,,,,65,0
94740,note_on,60,0,6,,,,,,,,,10,,,,77,0
94742,note_on,60,0,7,,,,,,,,,11,,,,65,0
94800,set_tempo,240,1,0,,,,,,272727,,,,,,,,
94800,note_on,60,0,6,,,,,,,,,10,,,,80,110
94802,note_on,60,0,7,,,,,,,,,11,,,,68,88
94805,note_on,0,0,2,,,,,,,,,1,,,,80,97
94805,note_on,0,0,2,,,,,,,,,1,,,,68,97
94805,control_change,120,0,2,,,,,,,,,1,11,27,,,
94806,note_on,0,0,8,,,,,,,,,12,,,,63,108
94806,note_on,240,0,8,,,,,,,,,12,,,,56,0
94810,note_on,240,0,9,,,,,,,,,13,,,,49,0
94810,note_on,0,0,9,,,,,,,,,13,,,,48,99
94812,note_on,0,0,10,,,,,,,,,14,,,,36,93
94812,note_on,240,0,10,,,,,,,,,14,,,,37,0
94815,note_on,15,0,6,,,,,,,,,10,,,,80,0
94815,note_on,0,0,6,,,,,,,,,10,,,,78,110
94817,note_on,15,0,7,,,,,,,,,11,,,,68,0
94817,note_on,0,0,7,,,,,,,,,11,,,,66,88
94821,control_change,16,0,2,,,,,,,,,1,11,28,,,
94837,control_change,16,0,2,,,,,,,,,1,11,29,,,
94853,control_change,16,0,2,,,,,,,,,1,11,30,,,
94860,note_on,45,0,6,,,,,,,,,10,,,,78,0
94860,note_on,0,0,6,,,,,,,,,10,,,,77,110
94862,note_on,45,0,7,,,,,,,,,11,,,,66,0
94862,note_on,0,0,7,,,,,,,,,11,,,,65,88
94869,control_change,16,0,2,,,,,,,,,1,11,31,,,
94885,control_change,16,0,2,,,,,,,,,1,11,32,,,
94901,control_change,16,0,2,,,,,,,,,1,11,33,,,
94917,control_change,16,0,2,,,,,,,,,1,11,34,,,
94920,note_on,0,0,6,,,,,,,,,10,,,,78,110
94920,note_on,60,0,6,,,,,,,,,10,,,,77,0
94922,note_on,60,0,7,,,,,,,,,11,,,,65,0
94922,note_on,0,0,7,,,,,,,,,11,,,,66,88
94933,control_change,16,0,2,,,,,,,,,1,11,35,,,
94949,control_change,16,0,2,,,,,,,,,1,11,36,,,
94965,control_change,16,0,2,,,,,,,,,1,11,37,,,
94980,note_on,60,0,6,,,,,,,,,10,,,,78,0
94980,note_on,0,0,6,,,,,,,,,10,,,,80,110
94981,control_change,16,0,2,,,,,,,,,1,11,38,,,
94982,note_on,60,0,7,,,,,,,,,11,,,,66,0
94982,note_on,0,0,7,,,,,,,,,11,,,,68,88
94997,control_change,16,0,2,,,,,,,,,1,11,39,,,
95013,control_change,16,0,2,,,,,,,,,1,11,40,,,
95019,note_on,39,0,6,,,,,,,,,10,,,,80,0
95021,note_on,39,0,7,,,,,,,,,11,,,,68,0
95029,control_change,16,0,2,,,,,,,,,1,11,41,,,
95040,note_on,21,0,6,,,,,,,,,10,,,,77,110
95040,set_tempo,240,1,0,,,,,,285714,,,,,,,,
95042,note_on,21,0,7,,,,,,,,,11,,,,65,88
95045,control_change,16,0,2,,,,,,,,,1,11,42,,,
95046,note_on,0,0,8,,,,,,,,,12,,,,65,108
95046,note_on,240,0,8,,,,,,,,,12,,,,63,0
95050,note_on,240,0,9,,,,,,,,,13,,,,48,0
95050,note_on,0,0,9,,,,,,,,,13,,,,49,99
95052,note_on,0,0,10,,,,,,,,,14,,,,37,93
95052,note_on,240,0,10,,,,,,,,,14,,,,36,0
95100,note_on,60,0,6,,,,,,,,,10,,,,77,0
95102,note_on,60,0,7,,,,,,,,,11,,,,65,0
95160,note_on,60,0,6,,,,,,,,,10,,,,77,110
95162,note_on,60,0,7,,,,,,,,,11,,,,65,88
95220,note_on,60,0,6,,,,,,,,,10,,,,77,0
95222,note_on,60,0,7,,,,,,,,,11,,,,65,0
95280,set_tempo,240,1,0,,,,,,272727,,,,,,,,
95280,note_on,60,0,6,,,,,,,,,10,,,,80,110
95282,note_on,60,0,7,,,,,,,,,11,,,,68,88
95286,note_on,240,0,8,,,,,,,,,12,,,,65,0
95286,note_on,0,0,8,,,,,,,,,12,,,,63,108
95290,note_on,240,0,9,,,,,,,,,13,,,,49,0
95290,note_on,0,0,9,,,,,,,,,13,,,,48,99
95292,note_on,240,0,10,,,,,,,,,14,,,,37,0
95292,note_on,0,0,10,,,,,,,,,14,,,,36,93
95295,note_on,15,0,6,,,,,,,,,10,,,,80,0
95295,note_on,0,0,6,,,,,,,,,10,,,,78,110
95297,note_on,15,0,7,,,,,,,,,11,,,,68,0
95297,note_on,0,0,7,,,,,,,,,11,,,,66,88
95340,note_on,0,0,6,,,,,,,,,10,,,,77,110
95340,note_on,45,0,6,,,,,,,,,10,,,,78,0
95342,note_on,0,0,7,,,,,,,,,11,,,,65,88
95342,note_on,45,0,7,,,,,,,,,11,,,,66,0
95400,note_on,60,0,6,,,,,,,,,10,,,,77,0
95400,note_on,0,0,6,,,,,,,,,10,,,,78,110
95402,note_on,60,0,7,,,,,,,,,11,,,,65,0
95402,note_on,0,0,7,,,,,,,,,11,,,,66,88
95460,note_on,60,0,6,,,,,,,,,10,,,,78,0
95460,note_on,0,0,6,,,,,,,,,10,,,,80,110
95462,note_on,60,0,7,,,,,,,,,11,,,,66,0
95462,note_on,0,0,7,,,,,,,,,11,,,,68,88
95499,note_on,39,0,6,,,,,,,,,10,,,,80,0
95501,note_on,39,0,7,,,,,,,,,11,,,,68,0
95520,set_tempo,240,1,0,,,,,,282353,,,,,,,,
95520,control_change,21,0,6,,,,,,,,,10,11,42,,,
95520,note_on,0,0,6,,,,,,,,,10,,,,77,110
95522,control_change,21,0,7,,,,,,,,,11,11,42,,,
95522,note_on,0,0,7,,,,,,,,,11,,,,65,88
95526,note_on,240,0,8,,,,,,,,,12,,,,63,0
95526,note_on,0,0,8,,,,,,,,,12,,,,65,108
95526,control_change,0,0,8,,,,,,,,,12,11,42,,,
95530,note_on,0,0,9,,,,,,,,,13,,,,49,99
95530,control_change,0,0,9,,,,,,,,,13,11,42,,,
95530,note_on,240,0,9,,,,,,,,,13,,,,48,0
95532,note_on,0,0,10,,,,,,,,,14,,,,37,93
95532,note_on,240,0,10,,,,,,,,,14,,,,36,0
95532,control_change,0,0,10,,,,,,,,,14,11,42,,,
95544,control_change,24,0,6,,,,,,,,,10,11,40,,,
95546,control_change,24,0,7,,,,,,,,,11,11,40,,,
95550,control_change,24,0,8,,,,,,,,,12,11,40,,,
95554,control_change,24,0,9,,,,,,,,,13,11,40,,,
95556,control_change,24,0,10,,,,,,,,,14,11,40,,,
95565,note_on,15,0,8,,,,,,,,,12,,,,65,0
95568,control_change,24,0,6,,,,,,,,,10,11,38,,,
95569,note_on,15,0,9,,,,,,,,,13,,,,49,0
95570,control_change,24,0,7,,,,,,,,,11,11,38,,,
95571,note_on,15,0,10,,,,,,,,,14,,,,37,0
95574,control_change,9,0,8,,,,,,,,,12,11,38,,,
95578,control_change,9,0,9,,,,,,,,,13,11,38,,,
95580,control_change,9,0,10,,,,,,,,,14,11,38,,,
95586,note_on,12,0,8,,,,,,,,,12,,,,65,99
95587,note_on,19,0,6,,,,,,,,,10,,,,77,0
95589,note_on,19,0,7,,,,,,,,,11,,,,65,0
95590,note_on,12,0,9,,,,,,,,,13,,,,49,90
95592,control_change,5,0,6,,,,,,,,,10,11,36,,,
95592,note_on,12,0,10,,,,,,,,,14,,,,37,84
95594,control_change,5,0,7,,,,,,,,,11,11,36,,,
95598,control_change,12,0,8,,,,,,,,,12,11,36,,,
95602,control_change,12,0,9,,,,,,,,,13,11,36,,,
95604,control_change,12,0,10,,,,,,,,,14,11,36,,,
95616,control_change,24,0,6,,,,,,,,,10,11,34,,,
95618,control_change,24,0,7,,,,,,,,,11,11,34,,,
95622,control_change,24,0,8,,,,,,,,,12,11,34,,,
95625,note_on,3,0,8,,,,,,,,,12,,,,65,0
95626,control_change,24,0,9,,,,,,,,,13,11,34,,,
95628,control_change,24,0,10,,,,,,,,,14,11,34,,,
95629,note_on,3,0,9,,,,,,,,,13,,,,49,0
95631,note_on,3,0,10,,,,,,,,,14,,,,37,0
95640,control_change,24,0,6,,,,,,,,,10,11,32,,,
95640,note_on,0,0,6,,,,,,,,,10,,,,77,110
95642,control_change,24,0,7,,,,,,,,,11,11,32,,,
95642,note_on,0,0,7,,,,,,,,,11,,,,65,88
95646,note_on,0,0,8,,,,,,,,,12,,,,65,108
95646,control_change,21,0,8,,,,,,,,,12,11,32,,,
95650,note_on,0,0,9,,,,,,,,,13,,,,49,99
95650,control_change,21,0,9,,,,,,,,,13,11,32,,,
95652,note_on,0,0,10,,,,,,,,,14,,,,37,93
95652,control_change,21,0,10,,,,,,,,,14,11,32,,,
95657,control_change,17,0,6,,,,,,,,,10,11,33,,,
95659,control_change,17,0,7,,,,,,,,,11,11,33,,,
95663,control_change,17,0,8,,,,,,,,,12,11,33,,,
95667,control_change,17,0,9,,,,,,,,,13,11,33,,,
95669,control_change,17,0,10,,,,,,,,,14,11,33,,,
95674,control_change,17,0,6,,,,,,,,,10,11,34,,,
95676,control_change,17,0,7,,,,,,,,,11,11,34,,,
95680,control_change,17,0,8,,,,,,,,,12,11,34,,,
95684,control_change,17,0,9,,,,,,,,,13,11,34,,,
95685,note_on,5,0,8,,,,,,,,,12,,,,65,0
95686,control_change,17,0,10,,,,,,,,,14,11,34,,,
95689,note_on,5,0,9,,,,,,,,,13,,,,49,0
95691,note_on,5,0,10,,,,,,,,,14,,,,37,0
95692,control_change,18,0,6,,,,,,,,,10,11,35,,,
95694,control_change,18,0,7,,,,,,,,,11,11,35,,,
95698,control_change,13,0,8,,,,,,,,,12,11,35,,,
95702,control_change,13,0,9,,,,,,,,,13,11,35,,,
95704,control_change,13,0,10,,,,,,,,,14,11,35,,,
95706,note_on,8,0,8,,,,,,,,,12,,,,65,99
95707,note_on,15,0,6,,,,,,,,,10,,,,77,0
95709,note_on,15,0,7,,,,,,,,,11,,,,65,0
95709,control_change,2,0,6,,,,,,,,,10,11,36,,,
95710,note_on,8,0,9,,,,,,,,,13,,,,49,90
95711,control_change,2,0,7,,,,,,,,,11,11,36,,,
95712,note_on,8,0,10,,,,,,,,,14,,,,37,84
95715,control_change,9,0,8,,,,,,,,,12,11,36,,,
95719,control_change,9,0,9,,,,,,,,,13,11,36,,,
95721,control_change,9,0,10,,,,,,,,,14,11,36,,,
95727,control_change,18,0,6,,,,,,,,,10,11,37,,,
95729,control_change,18,0,7,,,,,,,,,11,11,37,,,
95733,control_change,18,0,8,,,,,,,,,12,11,37,,,
95737,control_change,18,0,9,,,,,,,,,13,11,37,,,
95739,control_change,18,0,10,,,,,,,,,14,11,37,,,
95744,control_change,17,0,6,,,,,,,,,10,11,38,,,
95745,note_on,12,0,8,,,,,,,,,12,,,,65,0
95746,control_change,17,0,7,,,,,,,,,11,11,38,,,
95749,note_on,12,0,9,,,,,,,,,13,,,,49,0
95750,control_change,5,0,8,,,,,,,,,12,11,38,,,
95751,note_on,12,0,10,,,,,,,,,14,,,,37,0
95754,control_change,5,0,9,,,,,,,,,13,11,38,,,
95756,control_change,5,0,10,,,,,,,,,14,11,38,,,
95760,note_on,16,0,6,,,,,,,,,10,,,,81,110
95760,set_tempo,240,1,0,,,,,,269663,,,,,,,,
95762,control_change,2,0,6,,,,,,,,,10,11,39,,,
95762,note_on,16,0,7,,,,,,,,,11,,,,69,88
95763,note_on,0,0,1,,,,,,,,,0,,,,81,97
95763,control_change,1080,0,1,,,,,,,,,0,11,42,,,
95764,control_change,2,0,7,,,,,,,,,11,11,39,,,
95764,control_change,8645,0,4,,,,,,,,,4,11,47,,,
95764,note_on,0,0,4,,,,,,,,,4,,,,65,96
95765,note_on,0,0,2,,,,,,,,,1,,,,68,0
95765,note_on,0,0,2,,,,,,,,,1,,,,81,97
95765,note_on,0,0,2,,,,,,,,,1,,,,69,97
95765,control_change,0,0,2,,,,,,,,,1,11,42,,,
95765,note_on,720,0,2,,,,,,,,,1,,,,80,0
95766,note_on,0,0,5,,,,,,,,,5,,,,53,96
95766,note_on,16,0,8,,,,,,,,,12,,,,65,108
95766,control_change,8645,0,5,,,,,,,,,5,11,47,,,
95768,control_change,2,0,8,,,,,,,,,12,11,39,,,
95770,note_on,16,0,9,,,,,,,,,13,,,,49,99
95771,control_change,1920,0,3,,,,,,,,,3,11,47,,,
95771,note_on,0,0,3,,,,,,,,,3,,,,49,97
95772,control_change,2,0,9,,,,,,,,,13,11,39,,,
95772,note_on,16,0,10,,,,,,,,,14,,,,37,93
95774,control_change,2,0,10,,,,,,,,,14,11,39,,,
95779,control_change,17,0,6,,,,,,,,,10,11,40,,,
95781,control_change,17,0,7,,,,,,,,,11,11,40,,,
95781,control_change,18,0,1,,,,,,,,,0,11,43,,,
95783,control_change,18,0,2,,,,,,,,,1,11,43,,,
95785,control_change,17,0,8,,,,,,,,,12,11,40,,,
95789,control_change,17,0,9,,,,,,,,,13,11,40,,,
95791,control_change,17,0,10,,,,,,,,,14,11,40,,,
95797,control_change,18,0,6,,,,,,,,,10,11,41,,,
95799,control_change,18,0,7,,,,,,,,,11,11,41,,,
95800,control_change,19,0,1,,,,,,,,,0,11,44,,,
95802,control_change,19,0,2,,,,,,,,,1,11,44,,,
95803,control_change,18,0,8,,,,,,,,,12,11,41,,,
95805,note_on,2,0,8,,,,,,,,,12,,,,65,0
95807,control_change,18,0,9,,,,,,,,,13,11,41,,,
95809,note_on,2,0,9,,,,,,,,,13,,,,49,0
95809,control_change,18,0,10,,,,,,,,,14,11,41,,,
95811,note_on,2,0,10,,,,,,,,,14,,,,37,0
95814,control_change,17,0,6,,,,,,,,,10,11,42,,,
95816,control_change,17,0,7,,,,,,,,,11,11,42,,,
95819,control_change,19,0,1,,,,,,,,,0,11,45,,,
95820,control_change,15,0,8,,,,,,,,,12,11,42,,,
95821,control_change,19,0,2,,,,,,,,,1,11,45,,,
95824,control_change,15,0,9,,,,,,,,,13,11,42,,,
95826,control_change,15,0,10,,,,,,,,,14,11,42,,,
95826,note_on,6,0,8,,,,,,,,,12,,,,65,99
95827,note_on,13,0,6,,,,,,,,,10,,,,81,0
95829,note_on,13,0,7,,,,,,,,,11,,,,69,0
95830,note_on,6,0,9,,,,,,,,,13,,,,49,90
95832,note_on,6,0,10,,,,,,,,,14,,,,37,84
95832,control_change,5,0,6,,,,,,,,,10,11,43,,,
95834,control_change,5,0,7,,,,,,,,,11,11,43,,,
95837,control_change,18,0,1,,,,,,,,,0,11,46,,,
95838,control_change,12,0,8,,,,,,,,,12,11,43,,,
95839,control_change,18,0,2,,,,,,,,,1,11,46,,,
95842,control_change,12,0,9,,,,,,,,,13,11,43,,,
95844,control_change,12,0,10,,,,,,,,,14,11,43,,,
95849,control_change,17,0,6,,,,,,,,,10,11,44,,,
95851,control_change,17,0,7,,,,,,,,,11,11,44,,,
95855,control_change,17,0,8,,,,,,,,,12,11,44,,,
95856,control_change,19,0,1,,,,,,,,,0,11,47,,,
95858,control_change,19,0,2,,,,,,,,,1,11,47,,,
95859,control_change,17,0,9,,,,,,,,,13,11,44,,,
95861,control_change,17,0,10,,,,,,,,,14,11,44,,,
95865,note_on,10,0,8,,,,,,,,,12,,,,65,0
95866,control_change,17,0,6,,,,,,,,,10,11,45,,,
95868,control_change,17,0,7,,,,,,,,,11,11,45,,,
95869,note_on,10,0,9,,,,,,,,,13,,,,49,0
95871,note_on,10,0,10,,,,,,,,,14,,,,37,0
95872,control_change,7,0,8,,,,,,,,,12,11,45,,,
95875,control_change,19,0,1,,,,,,,,,0,11,48,,,
95876,control_change,7,0,9,,,,,,,,,13,11,45,,,
95877,control_change,19,0,2,,,,,,,,,1,11,48,,,
95878,control_change,7,0,10,,,,,,,,,14,11,45,,,
95880,note_on,14,0,6,,,,,,,,,10,,,,81,110
95882,note_on,14,0,7,,,,,,,,,11,,,,69,88
95884,control_change,4,0,6,,,,,,,,,10,11,46,,,
95886,control_change,4,0,7,,,,,,,,,11,11,46,,,
95886,note_on,14,0,8,,,,,,,,,12,,,,65,108
95890,control_change,4,0,8,,,,,,,,,12,11,46,,,
95890,note_on,14,0,9,,,,,,,,,13,,,,49,99
95892,note_on,14,0,10,,,,,,,,,14,,,,37,93
95893,control_change,18,0,1,,,,,,,,,0,11,49,,,
95894,control_change,4,0,9,,,,,,,,,13,11,46,,,
95895,control_change,18,0,2,,,,,,,,,1,11,49,,,
95896,control_change,4,0,10,,,,,,,,,14,11,46,,,
95901,control_change,17,0,6,,,,,,,,,10,11,47,,,
95903,control_change,17,0,7,,,,,,,,,11,11,47,,,
95907,control_change,17,0,8,,,,,,,,,12,11,47,,,
95911,control_change,17,0,9,,,,,,,,,13,11,47,,,
95912,control_change,19,0,1,,,,,,,,,0,11,50,,,
95913,control_change,17,0,10,,,,,,,,,14,11,47,,,
95914,control_change,19,0,2,,,,,,,,,1,11,50,,,
95919,control_change,18,0,6,,,,,,,,,10,11,48,,,
95921,control_change,18,0,7,,,,,,,,,11,11,48,,,
95925,note_on,18,0,8,,,,,,,,,12,,,,65,0
95925,control_change,0,0,8,,,,,,,,,12,11,48,,,
95929,note_on,18,0,9,,,,,,,,,13,,,,49,0
95929,control_change,0,0,9,,,,,,,,,13,11,48,,,
95931,control_change,19,0,1,,,,,,,,,0,11,51,,,
95931,control_change,0,0,10,,,,,,,,,14,11,48,,,
95931,note_on,18,0,10,,,,,,,,,14,,,,37,0
95933,control_change,19,0,2,,,,,,,,,1,11,51,,,
95936,control_change,17,0,6,,,,,,,,,10,11,49,,,
95938,control_change,17,0,7,,,,,,,,,11,11,49,,,
95942,control_change,17,0,8,,,,,,,,,12,11,49,,,
95946,note_on,4,0,8,,,,,,,,,12,,,,65,99
95946,control_change,17,0,9,,,,,,,,,13,11,49,,,
95947,note_on,11,0,6,,,,,,,,,10,,,,81,0
95948,control_change,17,0,10,,,,,,,,,14,11,49,,,
95949,control_change,18,0,1,,,,,,,,,0,11,52,,,
95949,note_on,11,0,7,,,,,,,,,11,,,,69,0
95950,note_on,4,0,9,,,,,,,,,13,,,,49,90
95951,control_change,18,0,2,,,,,,,,,1,11,52,,,
95952,note_on,4,0,10,,,,,,,,,14,,,,37,84
95954,control_change,7,0,6,,,,,,,,,10,11,50,,,
95956,control_change,7,0,7,,,,,,,,,11,11,50,,,
95960,control_change,14,0,8,,,,,,,,,12,11,50,,,
95964,control_change,14,0,9,,,,,,,,,13,11,50,,,
95966,control_change,14,0,10,,,,,,,,,14,11,50,,,
95968,control_change,19,0,1,,,,,,,,,0,11,53,,,
95970,control_change,19,0,2,,,,,,,,,1,11,53,,,
95971,control_change,17,0,6,,,,,,,,,10,11,51,,,
95973,control_change,17,0,7,,,,,,,,,11,11,51,,,
95977,control_change,17,0,8,,,,,,,,,12,11,51,,,
95981,control_change,17,0,9,,,,,,,,,13,11,51,,,
95983,control_change,17,0,10,,,,,,,,,14,11,51,,,
95985,note_on,8,0,8,,,,,,,,,12,,,,65,0
95987,control_change,19,0,1,,,,,,,,,0,11,54,,,
95989,note_on,8,0,9,,,,,,,,,13,,,,49,0
95989,control_change,18,0,6,,,,,,,,,10,11,52,,,
95989,control_change,19,0,2,,,,,,,,,1,11,54,,,
95991,control_change,18,0,7,,,,,,,,,11,11,52,,,
95991,note_on,8,0,10,,,,,,,,,14,,,,37,0
95995,control_change,10,0,8,,,,,,,,,12,11,52,,,
95999,control_change,10,0,9,,,,,,,,,13,11,52,,,
96000,note_on,11,0,6,,,,,,,,,10,,,,82,110
96000,set_tempo,240,1,0,,,,,,278422,,,,,,,,
96001,control_change,10,0,10,,,,,,,,,14,11,52,,,
96002,note_on,11,0,7,,,,,,,,,11,,,,70,88
96003,note_on,16,0,1,,,,,,,,,0,,,,81,0
96003,note_on,0,0,1,,,,,,,,,0,,,,82,97
96004,control_change,240,0,4,,,,,,,,,4,11,47,,,
96005,control_change,2,0,1,,,,,,,,,0,11,55,,,
96005,note_on,0,0,2,,,,,,,,,1,,,,82,97
96005,note_on,0,0,2,,,,,,,,,1,,,,70,97
96005,note_on,0,0,2,,,,,,,,,1,,,,81,0
96005,note_on,16,0,2,,,,,,,,,1,,,,69,0
96006,control_change,6,0,6,,,,,,,,,10,11,53,,,
96006,control_change,240,0,5,,,,,,,,,5,11,47,,,
96006,note_on,11,0,8,,,,,,,,,12,,,,65,108
96007,control_change,2,0,2,,,,,,,,,1,11,55,,,
96008,control_change,6,0,7,,,,,,,,,11,11,53,,,
96010,note_on,11,0,9,,,,,,,,,13,,,,49,99
96011,control_change,240,0,3,,,,,,,,,3,11,47,,,
96012,note_on,11,0,10,,,,,,,,,14,,,,37,93
96012,control_change,6,0,8,,,,,,,,,12,11,53,,,
96016,control_change,6,0,9,,,,,,,,,13,11,53,,,
96018,control_change,6,0,10,,,,,,,,,14,11,53,,,
96019,control_change,15,0,4,,,,,,,,,4,11,48,,,
96021,control_change,15,0,5,,,,,,,,,5,11,48,,,
96024,control_change,19,0,1,,,,,,,,,0,11,56,,,
96024,control_change,18,0,6,,,,,,,,,10,11,54,,,
96026,control_change,15,0,3,,,,,,,,,3,11,48,,,
96026,control_change,18,0,7,,,,,,,,,11,11,54,,,
96026,control_change,19,0,2,,,,,,,,,1,11,56,,,
96030,control_change,18,0,8,,,,,,,,,12,11,54,,,
96034,control_change,15,0,4,,,,,,,,,4,11,49,,,
96034,control_change,18,0,9,,,,,,,,,13,11,54,,,
96036,control_change,18,0,10,,,,,,,,,14,11,54,,,
96036,control_change,15,0,5,,,,,,,,,5,11,49,,,
96041,control_change,17,0,6,,,,,,,,,10,11,55,,,
96041,control_change,15,0,3,,,,,,,,,3,11,49,,,
96043,control_change,19,0,1,,,,,,,,,0,11,57,,,
96043,control_change,17,0,7,,,,,,,,,11,11,55,,,
96045,note_on,15,0,8,,,,,,,,,12,,,,65,0
96045,control_change,19,0,2,,,,,,,,,1,11,57,,,
96047,control_change,2,0,8,,,,,,,,,12,11,55,,,
96049,note_on,15,0,9,,,,,,,,,13,,,,49,0
96049,control_change,15,0,4,,,,,,,,,4,11,50,,,
96051,control_change,2,0,9,,,,,,,,,13,11,55,,,
96051,control_change,15,0,5,,,,,,,,,5,11,50,,,
96051,note_on,15,0,10,,,,,,,,,14,,,,37,0
96053,control_change,2,0,10,,,,,,,,,14,11,55,,,
96056,control_change,15,0,3,,,,,,,,,3,11,50,,,
96058,control_change,17,0,6,,,,,,,,,10,11,56,,,
96060,control_change,17,0,7,,,,,,,,,11,11,56,,,
96061,control_change,18,0,1,,,,,,,,,0,11,58,,,
96063,control_change,18,0,2,,,,,,,,,1,11,58,,,
96064,control_change,15,0,4,,,,,,,,,4,11,51,,,
96064,control_change,17,0,8,,,,,,,,,12,11,56,,,
96066,note_on,2,0,8,,,,,,,,,12,,,,65,99
96066,control_change,15,0,5,,,,,,,,,5,11,51,,,
96067,note_on,9,0,6,,,,,,,,,10,,,,82,0
96068,control_change,17,0,9,,,,,,,,,13,11,56,,,
96069,note_on,9,0,7,,,,,,,,,11,,,,70,0
96070,note_on,2,0,9,,,,,,,,,13,,,,49,90
96070,control_change,17,0,10,,,,,,,,,14,11,56,,,
96071,control_change,15,0,3,,,,,,,,,3,11,51,,,
96072,note_on,2,0,10,,,,,,,,,14,,,,37,84
96076,control_change,9,0,6,,,,,,,,,10,11,57,,,
96078,control_change,9,0,7,,,,,,,,,11,11,57,,,
96079,control_change,15,0,4,,,,,,,,,4,11,52,,,
96080,control_change,19,0,1,,,,,,,,,0,11,59,,,
96081,control_change,15,0,5,,,,,,,,,5,11,52,,,
96082,control_change,19,0,2,,,,,,,,,1,11,59,,,
96082,control_change,16,0,8,,,,,,,,,12,11,57,,,
96086,control_change,16,0,9,,,,,,,,,13,11,57,,,
96086,control_change,15,0,3,,,,,,,,,3,11,52,,,
96088,control_change,16,0,10,,,,,,,,,14,11,57,,,
96093,control_change,17,0,6,,,,,,,,,10,11,58,,,
96094,control_change,15,0,4,,,,,,,,,4,11,53,,,
96095,control_change,17,0,7,,,,,,,,,11,11,58,,,
96096,control_change,15,0,5,,,,,,,,,5,11,53,,,
96099,control_change,17,0,8,,,,,,,,,12,11,58,,,
96099,control_change,19,0,1,,,,,,,,,0,11,60,,,
96101,control_change,15,0,3,,,,,,,,,3,11,53,,,
96101,control_change,19,0,2,,,,,,,,,1,11,60,,,
96103,control_change,17,0,9,,,,,,,,,13,11,58,,,
96105,note_on,6,0,8,,,,,,,,,12,,,,65,0
96105,control_change,17,0,10,,,,,,,,,14,11,58,,,
96109,note_on,6,0,9,,,,,,,,,13,,,,49,0
96109,control_change,15,0,4,,,,,,,,,4,11,54,,,
96111,control_change,15,0,5,,,,,,,,,5,11,54,,,
96111,control_change,18,0,6,,,,,,,,,10,11,59,,,
96111,note_on,6,0,10,,,,,,,,,14,,,,37,0
96113,control_change,18,0,7,,,,,,,,,11,11,59,,,
96116,control_change,15,0,3,,,,,,,,,3,11,54,,,
96117,control_change,12,0,8,,,,,,,,,12,11,59,,,
96117,control_change,18,0,1,,,,,,,,,0,11,61,,,
96119,control_change,18,0,2,,,,,,,,,1,11,61,,,
96120,note_on,9,0,6,,,,,,,,,10,,,,82,110
96121,control_change,12,0,9,,,,,,,,,13,11,59,,,
96122,note_on,9,0,7,,,,,,,,,11,,,,70,88
96123,control_change,12,0,10,,,,,,,,,14,11,59,,,
96124,control_change,15,0,4,,,,,,,,,4,11,55,,,
96126,control_change,15,0,5,,,,,,,,,5,11,55,,,
96126,note_on,9,0,8,,,,,,,,,12,,,,65,108
96128,control_change,8,0,6,,,,,,,,,10,11,60,,,
96130,note_on,9,0,9,,,,,,,,,13,,,,49,99
96130,control_change,8,0,7,,,,,,,,,11,11,60,,,
96131,control_change,15,0,3,,,,,,,,,3,11,55,,,
96132,note_on,9,0,10,,,,,,,,,14,,,,37,93
96134,control_change,8,0,8,,,,,,,,,12,11,60,,,
96136,control_change,19,0,1,,,,,,,,,0,11,62,,,
96138,control_change,8,0,9,,,,,,,,,13,11,60,,,
96138,control_change,19,0,2,,,,,,,,,1,11,62,,,
96139,control_change,15,0,4,,,,,,,,,4,11,56,,,
96140,control_change,8,0,10,,,,,,,,,14,11,60,,,
96141,control_change,15,0,5,,,,,,,,,5,11,56,,,
96146,control_change,18,0,6,,,,,,,,,10,11,61,,,
96146,control_change,15,0,3,,,,,,,,,3,11,56,,,
96148,control_change,18,0,7,,,,,,,,,11,11,61,,,
96152,control_change,18,0,8,,,,,,,,,12,11,61,,,
96154,control_change,15,0,4,,,,,,,,,4,11,57,,,
96155,control_change,19,0,1,,,,,,,,,0,11,62,,,
96156,control_change,15,0,5,,,,,,,,,5,11,57,,,
96156,control_change,18,0,9,,,,,,,,,13,11,61,,,
96157,control_change,19,0,2,,,,,,,,,1,11,62,,,
96158,control_change,18,0,10,,,,,,,,,14,11,61,,,
96161,control_change,15,0,3,,,,,,,,,3,11,57,,,
96163,control_change,17,0,6,,,,,,,,,10,11,62,,,
96165,note_on,13,0,8,,,,,,,,,12,,,,65,0
96165,control_change,17,0,7,,,,,,,,,11,11,62,,,
96169,control_change,15,0,4,,,,,,,,,4,11,58,,,
96169,control_change,4,0,8,,,,,,,,,12,11,62,,,
96169,note_on,13,0,9,,,,,,,,,13,,,,49,0
96171,note_on,13,0,10,,,,,,,,,14,,,,37,0
96171,control_change,15,0,5,,,,,,,,,5,11,58,,,
96173,control_change,18,0,1,,,,,,,,,0,11,63,,,
96173,control_change,4,0,9,,,,,,,,,13,11,62,,,
96175,control_change,4,0,10,,,,,,,,,14,11,62,,,
96175,control_change,18,0,2,,,,,,,,,1,11,63,,,
96176,control_change,15,0,3,,,,,,,,,3,11,58,,,
96181,control_change,18,0,6,,,,,,,,,10,11,62,,,
96183,control_change,18,0,7,,,,,,,,,11,11,62,,,
96184,control_change,15,0,4,,,,,,,,,4,11,59,,,
96186,control_change,15,0,5,,,,,,,,,5,11,59,,,
96186,note_on,17,0,8,,,,,,,,,12,,,,65,99
96187,note_on,6,0,6,,,,,,,,,10,,,,82,0
96187,control_change,1,0,8,,,,,,,,,12,11,62,,,
96189,note_on,6,0,7,,,,,,,,,11,,,,70,0
96190,note_on,17,0,9,,,,,,,,,13,,,,49,90
96191,control_change,15,0,3,,,,,,,,,3,11,59,,,
96191,control_change,1,0,9,,,,,,,,,13,11,62,,,
96192,control_change,19,0,1,,,,,,,,,0,11,64,,,
96192,note_on,17,0,10,,,,,,,,,14,,,,37,84
96193,control_change,1,0,10,,,,,,,,,14,11,62,,,
96194,control_change,19,0,2,,,,,,,,,1,11,64,,,
96198,control_change,11,0,6,,,,,,,,,10,11,63,,,
96199,control_change,15,0,4,,,,,,,,,4,11,60,,,
96200,control_change,11,0,7,,,,,,,,,11,11,63,,,
96201,control_change,15,0,5,,,,,,,,,5,11,60,,,
96204,control_change,17,0,8,,,,,,,,,12,11,63,,,
96206,control_change,15,0,3,,,,,,,,,3,11,60,,,
96208,control_change,17,0,9,,,,,,,,,13,11,63,,,
96210,control_change,17,0,10,,,,,,,,,14,11,63,,,
96211,control_change,19,0,1,,,,,,,,,0,11,64,,,
96213,control_change,19,0,2,,,,,,,,,1,11,64,,,
96214,control_change,15,0,4,,,,,,,,,4,11,61,,,
96216,control_change,18,0,6,,,,,,,,,10,11,64,,,
96216,control_change,15,0,5,,,,,,,,,5,11,61,,,
96218,control_change,18,0,7,,,,,,,,,11,11,64,,,
96221,control_change,15,0,3,,,,,,,,,3,11,61,,,
96222,control_change,18,0,8,,,,,,,,,12,11,64,,,
96225,note_on,3,0,8,,,,,,,,,12,,,,65,0
96226,control_change,18,0,9,,,,,,,,,13,11,64,,,
96228,control_change,18,0,10,,,,,,,,,14,11,64,,,
96229,control_change,18,0,1,,,,,,,,,0,11,65,,,
96229,note_on,3,0,9,,,,,,,,,13,,,,49,0
96229,control_change,15,0,4,,,,,,,,,4,11,62,,,
96231,note_on,3,0,10,,,,,,,,,14,,,,37,0
96231,control_change,18,0,2,,,,,,,,,1,11,65,,,
96231,control_change,15,0,5,,,,,,,,,5,11,62,,,
96233,control_change,17,0,6,,,,,,,,,10,11,64,,,
96235,control_change,17,0,7,,,,,,,,,11,11,64,,,
96236,control_change,15,0,3,,,,,,,,,3,11,62,,,
96239,control_change,14,0,8,,,,,,,,,12,11,64,,,
96240,set_tempo,240,1,0,,,,,,267857,,,,,,,,
96240,note_on,7,0,6,,,,,,,,,10,,,,83,110
96242,note_on,7,0,7,,,,,,,,,11,,,,71,88
96243,note_on,14,0,1,,,,,,,,,0,,,,82,0
96243,control_change,14,0,9,,,,,,,,,13,11,64,,,
96243,note_on,0,0,1,,,,,,,,,0,,,,83,97
96244,control_change,15,0,4,,,,,,,,,4,11,62,,,
96245,control_change,14,0,10,,,,,,,,,14,11,64,,,
96245,note_on,0,0,2,,,,,,,,,1,,,,83,97
96245,note_on,0,0,2,,,,,,,,,1,,,,71,97
96245,note_on,0,0,2,,,,,,,,,1,,,,70,0
96245,note_on,14,0,2,,,,,,,,,1,,,,82,0
96246,note_on,7,0,8,,,,,,,,,12,,,,68,108
96246,control_change,15,0,5,,,,,,,,,5,11,62,,,
96248,control_change,5,0,1,,,,,,,,,0,11,66,,,
96250,control_change,10,0,6,,,,,,,,,10,11,65,,,
96250,control_change,5,0,2,,,,,,,,,1,11,66,,,
96250,note_on,7,0,9,,,,,,,,,13,,,,49,99
96251,control_change,15,0,3,,,,,,,,,3,11,62,,,
96252,control_change,10,0,7,,,,,,,,,11,11,65,,,
96252,note_on,7,0,10,,,,,,,,,14,,,,37,93
96256,control_change,10,0,8,,,,,,,,,12,11,65,,,
96259,control_change,15,0,4,,,,,,,,,4,11,63,,,
96260,control_change,10,0,9,,,,,,,,,13,11,65,,,
96261,control_change,15,0,5,,,,,,,,,5,11,63,,,
96262,control_change,10,0,10,,,,,,,,,14,11,65,,,
96266,control_change,15,0,3,,,,,,,,,3,11,63,,,
96267,control_change,19,0,1,,,,,,,,,0,11,66,,,
96268,control_change,18,0,6,,,,,,,,,10,11,66,,,
96269,control_change,19,0,2,,,,,,,,,1,11,66,,,
96270,control_change,18,0,7,,,,,,,,,11,11,66,,,
96274,control_change,18,0,8,,,,,,,,,12,11,66,,,
96274,control_change,15,0,4,,,,,,,,,4,11,64,,,
96276,control_change,15,0,5,,,,,,,,,5,11,64,,,
96278,control_change,18,0,9,,,,,,,,,13,11,66,,,
96280,control_change,18,0,10,,,,,,,,,14,11,66,,,
96281,control_change,15,0,3,,,,,,,,,3,11,64,,,
96285,control_change,17,0,6,,,,,,,,,10,11,66,,,
96285,note_on,11,0,8,,,,,,,,,12,,,,68,0
96285,control_change,18,0,1,,,,,,,,,0,11,67,,,
96287,control_change,17,0,7,,,,,,,,,11,11,66,,,
96287,control_change,18,0,2,,,,,,,,,1,11,67,,,
96289,control_change,15,0,4,,,,,,,,,4,11,64,,,
96289,note_on,11,0,9,,,,,,,,,13,,,,49,0
96291,note_on,11,0,10,,,,,,,,,14,,,,37,0
96291,control_change,15,0,5,,,,,,,,,5,11,64,,,
96291,control_change,6,0,8,,,,,,,,,12,11,66,,,
96295,control_change,6,0,9,,,,,,,,,13,11,66,,,
96296,control_change,15,0,3,,,,,,,,,3,11,64,,,
96297,control_change,6,0,10,,,,,,,,,14,11,66,,,
96303,control_change,18,0,6,,,,,,,,,10,11,67,,,
96304,control_change,15,0,4,,,,,,,,,4,11,65,,,
96304,control_change,19,0,1,,,,,,,,,0,11,68,,,
96305,control_change,18,0,7,,,,,,,,,11,11,67,,,
96306,control_change,19,0,2,,,,,,,,,1,11,68,,,
96306,note_on,15,0,8,,,,,,,,,12,,,,68,99
96306,control_change,15,0,5,,,,,,,,,5,11,65,,,
96307,note_on,4,0,6,,,,,,,,,10,,,,83,0
96309,control_change,3,0,8,,,,,,,,,12,11,67,,,
96309,note_on,4,0,7,,,,,,,,,11,,,,71,0
96310,note_on,15,0,9,,,,,,,,,13,,,,49,90
96311,control_change,15,0,3,,,,,,,,,3,11,65,,,
96312,note_on,15,0,10,,,,,,,,,14,,,,37,84
96313,control_change,3,0,9,,,,,,,,,13,11,67,,,
96315,control_change,3,0,10,,,,,,,,,14,11,67,,,
96319,control_change,15,0,4,,,,,,,,,4,11,66,,,
96320,control_change,13,0,6,,,,,,,,,10,11,68,,,
96321,control_change,15,0,5,,,,,,,,,5,11,66,,,
96322,control_change,13,0,7,,,,,,,,,11,11,68,,,
96323,control_change,19,0,1,,,,,,,,,0,11,68,,,
96325,control_change,19,0,2,,,,,,,,,1,11,68,,,
96326,control_change,17,0,8,,,,,,,,,12,11,68,,,
96326,control_change,15,0,3,,,,,,,,,3,11,66,,,
96330,control_change,17,0,9,,,,,,,,,13,11,68,,,
96332,control_change,17,0,10,,,,,,,,,14,11,68,,,
96334,control_change,15,0,4,,,,,,,,,4,11,66,,,
96336,control_change,15,0,5,,,,,,,,,5,11,66,,,
96338,control_change,18,0,6,,,,,,,,,10,11,68,,,
96340,control_change,18,0,7,,,,,,,,,11,11,68,,,
96341,control_change,18,0,1,,,,,,,,,0,11,69,,,
96341,control_change,15,0,3,,,,,,,,,3,11,66,,,
96343,control_change,18,0,2,,,,,,,,,1,11,69,,,
96344,control_change,18,0,8,,,,,,,,,12,11,68,,,
96345,note_on,1,0,8,,,,,,,,,12,,,,68,0
96348,control_change,18,0,9,,,,,,,,,13,11,68,,,
96349,control_change,15,0,4,,,,,,,,,4,11,67,,,
96349,note_on,1,0,9,,,,,,,,,13,,,,49,0
96350,control_change,18,0,10,,,,,,,,,14,11,68,,,
96351,note_on,1,0,10,,,,,,,,,14,,,,37,0
96351,control_change,15,0,5,,,,,,,,,5,11,67,,,
96355,control_change,17,0,6,,,,,,,,,10,11,69,,,
96356,control_change,15,0,3,,,,,,,,,3,11,67,,,
96357,control_change,17,0,7,,,,,,,,,11,11,69,,,
96360,note_on,5,0,6,,,,,,,,,10,,,,83,110
96360,control_change,19,0,1,,,,,,,,,0,11,70,,,
96361,control_change,16,0,8,,,,,,,,,12,11,69,,,
96362,note_on,5,0,7,,,,,,,,,11,,,,71,88
96362,control_change,19,0,2,,,,,,,,,1,11,70,,,
96364,control_change,15,0,4,,,,,,,,,4,11,68,,,
96365,control_change,16,0,9,,,,,,,,,13,11,69,,,
96366,control_change,15,0,5,,,,,,,,,5,11,68,,,
96366,note_on,5,0,8,,,,,,,,,12,,,,68,108
96367,control_change,16,0,10,,,,,,,,,14,11,69,,,
96370,note_on,5,0,9,,,,,,,,,13,,,,49,99
96371,control_change,15,0,3,,,,,,,,,3,11,68,,,
96372,note_on,5,0,10,,,,,,,,,14,,,,37,93
96373,control_change,13,0,6,,,,,,,,,10,11,70,,,
96375,control_change,13,0,7,,,,,,,,,11,11,70,,,
96379,control_change,15,0,4,,,,,,,,,4,11,68,,,
96379,control_change,13,0,8,,,,,,,,,12,11,70,,,
96379,control_change,19,0,1,,,,,,,,,0,11,71,,,
96381,control_change,15,0,5,,,,,,,,,5,11,68,,,
96381,control_change,19,0,2,,,,,,,,,1,11,71,,,
96383,control_change,13,0,9,,,,,,,,,13,11,70,,,
96385,control_change,13,0,10,,,,,,,,,14,11,70,,,
96386,control_change,15,0,3,,,,,,,,,3,11,68,,,
96390,control_change,17,0,6,,,,,,,,,10,11,71,,,
96392,control_change,17,0,7,,,,,,,,,11,11,71,,,
96394,control_change,15,0,4,,,,,,,,,4,11,69,,,
96396,control_change,17,0,8,,,,,,,,,12,11,71,,,
96396,control_change,15,0,5,,,,,,,,,5,11,69,,,
96397,control_change,18,0,1,,,,,,,,,0,11,71,,,
96399,control_change,18,0,2,,,,,,,,,1,11,71,,,
96400,control_change,17,0,9,,,,,,,,,13,11,71,,,
96401,control_change,15,0,3,,,,,,,,,3,11,69,,,
96402,control_change,17,0,10,,,,,,,,,14,11,71,,,
96405,note_on,9,0,8,,,,,,,,,12,,,,68,0
96408,control_change,18,0,6,,,,,,,,,10,11,71,,,
96409,control_change,15,0,4,,,,,,,,,4,11,70,,,
96409,note_on,9,0,9,,,,,,,,,13,,,,49,0
96410,control_change,18,0,7,,,,,,,,,11,11,71,,,
96411,note_on,9,0,10,,,,,,,,,14,,,,37,0
96411,control_change,15,0,5,,,,,,,,,5,11,70,,,
96414,control_change,9,0,8,,,,,,,,,12,11,71,,,
96416,control_change,15,0,3,,,,,,,,,3,11,70,,,
96416,control_change,19,0,1,,,,,,,,,0,11,72,,,
96418,control_change,19,0,2,,,,,,,,,1,11,72,,,
96418,control_change,9,0,9,,,,,,,,,13,11,71,,,
96420,control_change,9,0,10,,,,,,,,,14,11,71,,,
96424,control_change,15,0,4,,,,,,,,,4,11,71,,,
96425,control_change,17,0,6,,,,,,,,,10,11,72,,,
96426,control_change,15,0,5,,,,,,,,,5,11,71,,,
96426,note_on,12,0,8,,,,,,,,,12,,,,68,99
96427,control_change,17,0,7,,,,,,,,,11,11,72,,,
96427,note_on,2,0,6,,,,,,,,,10,,,,83,0
96429,note_on,2,0,7,,,,,,,,,11,,,,71,0
96430,note_on,12,0,9,,,,,,,,,13,,,,49,90
96431,control_change,5,0,8,,,,,,,,,12,11,72,,,
96431,control_change,15,0,3,,,,,,,,,3,11,71,,,
96432,note_on,12,0,10,,,,,,,,,14,,,,37,84
96435,control_change,19,0,1,,,,,,,,,0,11,73,,,
96435,control_change,5,0,9,,,,,,,,,13,11,72,,,
96437,control_change,5,0,10,,,,,,,,,14,11,72,,,
96437,control_change,19,0,2,,,,,,,,,1,11,73,,,
96439,control_change,15,0,4,,,,,,,,,4,11,71,,,
96441,control_change,15,0,5,,,,,,,,,5,11,71,,,
96442,control_change,15,0,6,,,,,,,,,10,11,73,,,
96444,control_change,15,0,7,,,,,,,,,11,11,73,,,
96446,control_change,15,0,3,,,,,,,,,3,11,71,,,
96448,control_change,17,0,8,,,,,,,,,12,11,73,,,
96452,control_change,17,0,9,,,,,,,,,13,11,73,,,
96453,control_change,18,0,1,,,,,,,,,0,11,73,,,
96454,control_change,17,0,10,,,,,,,,,14,11,73,,,
96454,control_change,15,0,4,,,,,,,,,4,11,72,,,
96455,control_change,18,0,2,,,,,,,,,1,11,73,,,
96456,control_change,15,0,5,,,,,,,,,5,11,72,,,
96460,control_change,18,0,6,,,,,,,,,10,11,73,,,
96461,control_change,15,0,3,,,,,,,,,3,11,72,,,
96462,control_change,18,0,7,,,,,,,,,11,11,73,,,
96465,note_on,17,0,8,,,,,,,,,12,,,,68,0
96466,control_change,1,0,8,,,,,,,,,12,11,73,,,
96469,control_change,15,0,4,,,,,,,,,4,11,73,,,
96469,note_on,17,0,9,,,,,,,,,13,,,,49,0
96470,control_change,1,0,9,,,,,,,,,13,11,73,,,
96471,note_on,17,0,10,,,,,,,,,14,,,,37,0
96471,control_change,15,0,5,,,,,,,,,5,11,73,,,
96472,control_change,1,0,10,,,,,,,,,14,11,73,,,
96472,control_change,19,0,1,,,,,,,,,0,11,74,,,
96474,control_change,19,0,2,,,,,,,,,1,11,74,,,
96476,control_change,15,0,3,,,,,,,,,3,11,73,,,
96477,control_change,17,0,6,,,,,,,,,10,11,74,,,
96479,control_change,17,0,7,,,,,,,,,11,11,74,,,
96480,note_on,3,0,6,,,,,,,,,10,,,,84,110
96480,set_tempo,240,1,0,,,,,,277136,,,,,,,,
96482,note_on,3,0,7,,,,,,,,,11,,,,72,88
96483,note_on,0,0,1,,,,,,,,,0,,,,84,97
96483,note_on,11,0,1,,,,,,,,,0,,,,83,0
96483,control_change,17,0,8,,,,,,,,,12,11,74,,,
96484,control_change,15,0,4,,,,,,,,,4,11,73,,,
96485,note_on,11,0,2,,,,,,,,,1,,,,83,0
96485,note_on,0,0,2,,,,,,,,,1,,,,71,0
96485,note_on,0,0,2,,,,,,,,,1,,,,81,97
96485,note_on,0,0,2,,,,,,,,,1,,,,72,97
96486,control_change,15,0,5,,,,,,,,,5,11,73,,,
96486,note_on,3,0,8,,,,,,,,,12,,,,69,108
96487,control_change,17,0,9,,,,,,,,,13,11,74,,,
96489,control_change,17,0,10,,,,,,,,,14,11,74,,,
96490,note_on,3,0,9,,,,,,,,,13,,,,48,99
96491,control_change,0,0,3,,,,,,,,,3,11,73,,,
96491,note_on,0,0,3,,,,,,,,,3,,,,48,97
96491,note_on,15,0,3,,,,,,,,,3,,,,49,0
96491,control_change,8,0,1,,,,,,,,,0,11,75,,,
96492,note_on,3,0,10,,,,,,,,,14,,,,36,93
96493,control_change,8,0,2,,,,,,,,,1,11,75,,,
96495,control_change,15,0,6,,,,,,,,,10,11,75,,,
96497,control_change,15,0,7,,,,,,,,,11,11,75,,,
96499,control_change,15,0,4,,,,,,,,,4,11,74,,,
96501,control_change,15,0,8,,,,,,,,,12,11,75,,,
96501,control_change,15,0,5,,,,,,,,,5,11,74,,,
96505,control_change,15,0,9,,,,,,,,,13,11,75,,,
96506,control_change,15,0,3,,,,,,,,,3,11,74,,,
96507,control_change,15,0,10,,,,,,,,,14,11,75,,,
96509,control_change,18,0,1,,,,,,,,,0,11,75,,,
96511,control_change,18,0,2,,,,,,,,,1,11,75,,,
96512,control_change,17,0,6,,,,,,,,,10,11,75,,,
96514,control_change,15,0,4,,,,,,,,,4,11,75,,,
96514,control_change,17,0,7,,,,,,,,,11,11,75,,,
96516,control_change,15,0,5,,,,,,,,,5,11,75,,,
96518,control_change,17,0,8,,,,,,,,,12,11,75,,,
96521,control_change,15,0,3,,,,,,,,,3,11,75,,,
96522,control_change,17,0,9,,,,,,,,,13,11,75,,,
96524,control_change,17,0,10,,,,,,,,,14,11,75,,,
96528,control_change,19,0,1,,,,,,,,,0,11,76,,,
96529,control_change,15,0,4,,,,,,,,,4,11,75,,,
96530,control_change,18,0,6,,,,,,,,,10,11,76,,,
96530,control_change,19,0,2,,,,,,,,,1,11,76,,,
96531,control_change,15,0,5,,,,,,,,,5,11,75,,,
96532,control_change,18,0,7,,,,,,,,,11,11,76,,,
96536,control_change,15,0,3,,,,,,,,,3,11,75,,,
96536,control_change,18,0,8,,,,,,,,,12,11,76,,,
96540,control_change,18,0,9,,,,,,,,,13,11,76,,,
96542,control_change,18,0,10,,,,,,,,,14,11,76,,,
96544,control_change,15,0,4,,,,,,,,,4,11,76,,,
96546,control_change,15,0,5,,,,,,,,,5,11,76,,,
96547,control_change,0,0,6,,,,,,,,,10,11,77,,,
96547,note_on,17,0,6,,,,,,,,,10,,,,84,0
96547,control_change,19,0,1,,,,,,,,,0,11,77,,,
96549,control_change,19,0,2,,,,,,,,,1,11,77,,,
96549,control_change,0,0,7,,,,,,,,,11,11,77,,,
96549,note_on,17,0,7,,,,,,,,,11,,,,72,0
96551,control_change,15,0,3,,,,,,,,,3,11,76,,,
96553,control_change,17,0,8,,,,,,,,,12,11,77,,,
96557,control_change,17,0,9,,,,,,,,,13,11,77,,,
96559,control_change,15,0,4,,,,,,,,,4,11,77,,,
96559,control_change,17,0,10,,,,,,,,,14,11,77,,,
96561,control_change,15,0,5,,,,,,,,,5,11,77,,,
96565,control_change,18,0,6,,,,,,,,,10,11,77,,,
96565,control_change,18,0,1,,,,,,,,,0,11,77,,,
96566,control_change,15,0,3,,,,,,,,,3,11,77,,,
96567,control_change,18,0,2,,,,,,,,,1,11,77,,,
96567,control_change,18,0,7,,,,,,,,,11,11,77,,,
96571,control_change,18,0,8,,,,,,,,,12,11,77,,,
96574,control_change,15,0,4,,,,,,,,,4,11,77,,,
96575,control_change,18,0,9,,,,,,,,,13,11,77,,,
96576,control_change,15,0,5,,,,,,,,,5,11,77,,,
96577,control_change,18,0,10,,,,,,,,,14,11,77,,,
96581,control_change,15,0,3,,,,,,,,,3,11,77,,,
96582,control_change,17,0,6,,,,,,,,,10,11,78,,,
96584,control_change,17,0,7,,,,,,,,,11,11,78,,,
96584,control_change,19,0,1,,,,,,,,,0,11,78,,,
96586,control_change,19,0,2,,,,,,,,,1,11,78,,,
96588,control_change,17,0,8,,,,,,,,,12,11,78,,,
96589,control_change,15,0,4,,,,,,,,,4,11,78,,,
96591,control_change,15,0,5,,,,,,,,,5,11,78,,,
96592,control_change,17,0,9,,,,,,,,,13,11,78,,,
96594,control_change,17,0,10,,,,,,,,,14,11,78,,,
96596,control_change,15,0,3,,,,,,,,,3,11,78,,,
96598,note_on,14,0,1,,,,,,,,,0,,,,84,0
96600,control_change,18,0,6,,,,,,,,,10,11,79,,,
96600,note_on,14,0,2,,,,,,,,,1,,,,81,0
96600,note_on,0,0,2,,,,,,,,,1,,,,72,0
96600,note_on,0,0,6,,,,,,,,,10,,,,89,125
96601,note_on,13,0,8,,,,,,,,,12,,,,69,0
96602,note_on,0,0,7,,,,,,,,,11,,,,69,100
96602,note_on,0,0,7,,,,,,,,,11,,,,77,100
96602,control_change,18,0,7,,,,,,,,,11,11,79,,,
96603,control_change,5,0,1,,,,,,,,,0,11,79,,,
96603,note_on,0,0,1,,,,,,,,,0,,,,89,110
96604,note_on,15,0,4,,,,,,,,,4,,,,65,0
96604,control_change,0,0,4,,,,,,,,,4,11,79,,,
96604,note_on,0,0,4,,,,,,,,,4,,,,60,109
96605,note_on,0,0,2,,,,,,,,,1,,,,77,110
96605,note_on,0,0,2,,,,,,,,,1,,,,81,110
96605,control_change,5,0,2,,,,,,,,,1,11,79,,,
96605,note_on,13,0,9,,,,,,,,,13,,,,48,0
96606,note_on,15,0,5,,,,,,,,,5,,,,53,0
96606,note_on,0,0,8,,,,,,,,,12,,,,69,123
96606,note_on,0,0,8,,,,,,,,,12,,,,65,123
96606,note_on,10,0,3,,,,,,,,,3,,,,48,0
96606,control_change,0,0,5,,,,,,,,,5,11,79,,,
96606,note_on,0,0,5,,,,,,,,,5,,,,60,109
96606,control_change,5,0,8,,,,,,,,,12,11,79,,,
96607,note_on,13,0,10,,,,,,,,,14,,,,36,0
96610,control_change,5,0,9,,,,,,,,,13,11,79,,,
96610,note_on,0,0,9,,,,,,,,,13,,,,60,114
96611,note_on,0,0,3,,,,,,,,,3,,,,60,110
96611,control_change,5,0,3,,,,,,,,,3,11,79,,,
96611,note_on,0,0,3,,,,,,,,,3,,,,48,110
96612,note_on,0,0,10,,,,,,,,,14,,,,48,108
96612,control_change,5,0,10,,,,,,,,,14,11,79,,,
96660,control_change,60,0,6,,,,,,,,,10,11,79,,,
96662,control_change,60,0,7,,,,,,,,,11,11,79,,,
96663,control_change,60,0,1,,,,,,,,,0,11,79,,,
96664,control_change,60,0,4,,,,,,,,,4,11,79,,,
96665,control_change,60,0,2,,,,,,,,,1,11,79,,,
96666,control_change,60,0,8,,,,,,,,,12,11,79,,,
96666,control_change,60,0,5,,,,,,,,,5,11,79,,,
96670,control_change,60,0,9,,,,,,,,,13,11,79,,,
96671,control_change,60,0,3,,,,,,,,,3,11,79,,,
96672,control_change,60,0,10,,,,,,,,,14,11,79,,,
96682,control_change,22,0,6,,,,,,,,,10,11,77,,,
96684,control_change,22,0,7,,,,,,,,,11,11,77,,,
96685,control_change,22,0,1,,,,,,,,,0,11,77,,,
96686,control_change,22,0,4,,,,,,,,,4,11,77,,,
96687,control_change,22,0,2,,,,,,,,,1,11,77,,,
96688,control_change,22,0,8,,,,,,,,,12,11,77,,,
96688,control_change,22,0,5,,,,,,,,,5,11,77,,,
96692,control_change,22,0,9,,,,,,,,,13,11,77,,,
96693,control_change,22,0,3,,,,,,,,,3,11,77,,,
96694,control_change,22,0,10,,,,,,,,,14,11,77,,,
96697,control_change,15,0,6,,,,,,,,,10,11,75,,,
96699,control_change,15,0,7,,,,,,,,,11,11,75,,,
96700,control_change,15,0,1,,,,,,,,,0,11,75,,,
96701,control_change,15,0,4,,,,,,,,,4,11,75,,,
96702,control_change,15,0,2,,,,,,,,,1,11,75,,,
96703,control_change,15,0,5,,,,,,,,,5,11,75,,,
96703,control_change,15,0,8,,,,,,,,,12,11,75,,,
96707,control_change,15,0,9,,,,,,,,,13,11,75,,,
96708,control_change,15,0,3,,,,,,,,,3,11,75,,,
96709,control_change,15,0,10,,,,,,,,,14,11,75,,,
96712,control_change,15,0,6,,,,,,,,,10,11,74,,,
96714,control_change,15,0,7,,,,,,,,,11,11,74,,,
96715,control_change,15,0,1,,,,,,,,,0,11,74,,,
96716,control_change,15,0,4,,,,,,,,,4,11,74,,,
96717,control_change,15,0,2,,,,,,,,,1,11,74,,,
96718,control_change,15,0,8,,,,,,,,,12,11,74,,,
96718,control_change,15,0,5,,,,,,,,,5,11,74,,,
96720,set_tempo,240,1,0,,,,,,265487,,,,,,,,
96722,control_change,15,0,9,,,,,,,,,13,11,74,,,
96723,control_change,15,0,3,,,,,,,,,3,11,74,,,
96724,control_change,15,0,10,,,,,,,,,14,11,74,,,
96727,control_change,15,0,6,,,,,,,,,10,11,73,,,
96729,control_change,15,0,7,,,,,,,,,11,11,73,,,
96730,control_change,15,0,1,,,,,,,,,0,11,73,,,
96731,control_change,15,0,4,,,,,,,,,4,11,73,,,
96732,control_change,15,0,2,,,,,,,,,1,11,73,,,
96733,control_change,15,0,5,,,,,,,,,5,11,73,,,
96733,control_change,15,0,8,,,,,,,,,12,11,73,,,
96737,control_change,15,0,9,,,,,,,,,13,11,73,,,
96738,control_change,15,0,3,,,,,,,,,3,11,73,,,
96739,control_change,15,0,10,,,,,,,,,14,11,73,,,
96749,control_change,22,0,6,,,,,,,,,10,11,71,,,
96751,control_change,22,0,7,,,,,,,,,11,11,71,,,
96752,control_change,22,0,1,,,,,,,,,0,11,71,,,
96753,control_change,22,0,4,,,,,,,,,4,11,71,,,
96754,control_change,22,0,2,,,,,,,,,1,11,71,,,
96755,control_change,22,0,5,,,,,,,,,5,11,71,,,
96755,control_change,22,0,8,,,,,,,,,12,11,71,,,
96759,control_change,22,0,9,,,,,,,,,13,11,71,,,
96760,control_change,22,0,3,,,,,,,,,3,11,71,,,
96761,control_change,22,0,10,,,,,,,,,14,11,71,,,
96764,control_change,15,0,6,,,,,,,,,10,11,69,,,
96766,control_change,15,0,7,,,,,,,,,11,11,69,,,
96767,control_change,15,0,1,,,,,,,,,0,11,69,,,
96768,control_change,15,0,4,,,,,,,,,4,11,69,,,
96769,control_change,15,0,2,,,,,,,,,1,11,69,,,
96770,control_change,15,0,5,,,,,,,,,5,11,69,,,
96770,control_change,15,0,8,,,,,,,,,12,11,69,,,
96774,control_change,15,0,9,,,,,,,,,13,11,69,,,
96775,control_change,15,0,3,,,,,,,,,3,11,69,,,
96776,control_change,15,0,10,,,,,,,,,14,11,69,,,
96779,control_change,15,0,6,,,,,,,,,10,11,68,,,
96781,control_change,15,0,7,,,,,,,,,11,11,68,,,
96782,control_change,15,0,1,,,,,,,,,0,11,68,,,
96783,control_change,15,0,4,,,,,,,,,4,11,68,,,
96784,control_change,15,0,2,,,,,,,,,1,11,68,,,
96785,control_change,15,0,8,,,,,,,,,12,11,68,,,
96785,control_change,15,0,5,,,,,,,,,5,11,68,,,
96789,control_change,15,0,9,,,,,,,,,13,11,68,,,
96790,control_change,15,0,3,,,,,,,,,3,11,68,,,
96791,control_change,15,0,10,,,,,,,,,14,11,68,,,
96794,control_change,15,0,6,,,,,,,,,10,11,66,,,
96796,control_change,15,0,7,,,,,,,,,11,11,66,,,
96797,control_change,15,0,1,,,,,,,,,0,11,66,,,
96798,control_change,15,0,4,,,,,,,,,4,11,66,,,
96799,control_change,15,0,2,,,,,,,,,1,11,66,,,
96800,control_change,15,0,8,,,,,,,,,12,11,66,,,
96800,control_change,15,0,5,,,,,,,,,5,11,66,,,
96804,control_change,15,0,9,,,,,,,,,13,11,66,,,
96805,control_change,15,0,3,,,,,,,,,3,11,66,,,
96806,control_change,15,0,10,,,,,,,,,14,11,66,,,
96809,control_change,15,0,6,,,,,,,,,10,11,65,,,
96811,control_change,15,0,7,,,,,,,,,11,11,65,,,
96812,control_change,15,0,1,,,,,,,,,0,11,65,,,
96813,control_change,15,0,4,,,,,,,,,4,11,65,,,
96814,control_change,15,0,2,,,,,,,,,1,11,65,,,
96815,control_change,15,0,8,,,,,,,,,12,11,65,,,
96815,control_change,15,0,5,,,,,,,,,5,11,65,,,
96819,control_change,15,0,9,,,,,,,,,13,11,65,,,
96820,control_change,15,0,3,,,,,,,,,3,11,65,,,
96821,control_change,15,0,10,,,,,,,,,14,11,65,,,
96823,control_change,14,0,6,,,,,,,,,10,11,69,,,
96825,control_change,14,0,7,,,,,,,,,11,11,69,,,
96826,control_change,14,0,1,,,,,,,,,0,11,69,,,
96827,control_change,14,0,4,,,,,,,,,4,11,69,,,
96828,control_change,14,0,2,,,,,,,,,1,11,69,,,
96829,control_change,14,0,5,,,,,,,,,5,11,69,,,
96829,control_change,14,0,8,,,,,,,,,12,11,69,,,
96833,control_change,14,0,9,,,,,,,,,13,11,69,,,
96834,control_change,14,0,3,,,,,,,,,3,11,69,,,
96835,control_change,14,0,10,,,,,,,,,14,11,69,,,
96835,note_on,12,0,6,,,,,,,,,10,,,,89,0
96836,control_change,1,0,6,,,,,,,,,10,11,73,,,
96837,note_on,0,0,7,,,,,,,,,11,,,,69,0
96837,note_on,12,0,7,,,,,,,,,11,,,,77,0
96838,control_change,1,0,7,,,,,,,,,11,11,73,,,
96838,note_on,12,0,1,,,,,,,,,0,,,,89,0
96839,control_change,1,0,1,,,,,,,,,0,11,73,,,
96839,note_on,12,0,4,,,,,,,,,4,,,,60,0
96840,control_change,1,0,4,,,,,,,,,4,11,73,,,
96840,note_on,4,0,6,,,,,,,,,10,,,,84,110
96840,note_on,12,0,2,,,,,,,,,1,,,,77,0
96840,note_on,0,0,2,,,,,,,,,1,,,,81,0
96841,note_on,12,0,8,,,,,,,,,12,,,,69,0
96841,note_on,12,0,5,,,,,,,,,5,,,,60,0
96841,control_change,1,0,2,,,,,,,,,1,11,73,,,
96841,note_on,0,0,8,,,,,,,,,12,,,,65,0
96842,control_change,1,0,5,,,,,,,,,5,11,73,,,
96842,control_change,1,0,8,,,,,,,,,12,11,73,,,
96842,note_on,4,0,7,,,,,,,,,11,,,,72,88
96843,note_on,4,0,1,,,,,,,,,0,,,,84,110
96844,note_on,4,0,4,,,,,,,,,4,,,,60,96
96845,note_on,12,0,9,,,,,,,,,13,,,,60,0
96845,note_on,4,0,2,,,,,,,,,1,,,,77,97
96845,note_on,0,0,2,,,,,,,,,1,,,,81,97
96846,note_on,4,0,8,,,,,,,,,12,,,,60,108
96846,control_change,1,0,9,,,,,,,,,13,11,73,,,
96846,note_on,4,0,5,,,,,,,,,5,,,,60,96
96846,note_on,0,0,3,,,,,,,,,3,,,,48,0
96846,note_on,12,0,3,,,,,,,,,3,,,,60,0
96847,note_on,12,0,10,,,,,,,,,14,,,,48,0
96847,control_change,1,0,3,,,,,,,,,3,11,73,,,
96848,control_change,1,0,10,,,,,,,,,14,11,73,,,
96849,control_change,9,0,6,,,,,,,,,10,11,77,,,
96850,note_on,4,0,9,,,,,,,,,13,,,,57,99
96851,note_on,4,0,3,,,,,,,,,3,,,,57,97
96851,note_on,0,0,3,,,,,,,,,3,,,,45,97
96851,control_change,9,0,7,,,,,,,,,11,11,77,,,
96852,note_on,4,0,10,,,,,,,,,14,,,,45,93
96852,control_change,9,0,1,,,,,,,,,0,11,77,,,
96853,control_change,9,0,4,,,,,,,,,4,11,77,,,
96854,control_change,9,0,2,,,,,,,,,1,11,77,,,
96855,control_change,9,0,5,,,,,,,,,5,11,77,,,
96855,control_change,9,0,8,,,,,,,,,12,11,77,,,
96859,control_change,9,0,9,,,,,,,,,13,11,77,,,
96860,control_change,9,0,3,,,,,,,,,3,11,77,,,
96861,control_change,9,0,10,,,,,,,,,14,11,77,,,
96900,note_on,0,0,6,,,,,,,,,10,,,,81,110
96900,note_on,51,0,6,,,,,,,,,10,,,,84,0
96902,note_on,0,0,7,,,,,,,,,11,,,,69,88
96902,note_on,51,0,7,,,,,,,,,11,,,,72,0
96903,note_on,51,0,1,,,,,,,,,0,,,,84,0
96903,note_on,0,0,1,,,,,,,,,0,,,,81,110
96939,note_on,39,0,6,,,,,,,,,10,,,,81,0
96941,note_on,39,0,7,,,,,,,,,11,,,,69,0
96954,note_on,101,0,4,,,,,,,,,4,,,,60,0
96955,note_on,0,0,2,,,,,,,,,1,,,,77,0
96955,note_on,101,0,2,,,,,,,,,1,,,,81,0
96956,note_on,101,0,5,,,,,,,,,5,,,,60,0
96958,note_on,55,0,1,,,,,,,,,0,,,,81,0
96960,set_tempo,240,1,0,,,,,,274600,,,,,,,,
96960,note_on,21,0,6,,,,,,,,,10,,,,79,110
96961,note_on,106,0,8,,,,,,,,,12,,,,60,0
96961,note_on,0,0,3,,,,,,,,,3,,,,57,0
96961,note_on,101,0,3,,,,,,,,,3,,,,45,0
96962,note_on,21,0,7,,,,,,,,,11,,,,67,88
96963,note_on,5,0,1,,,,,,,,,0,,,,79,97
96964,note_on,10,0,4,,,,,,,,,4,,,,62,96
96965,note_on,106,0,9,,,,,,,,,13,,,,57,0
96965,note_on,10,0,2,,,,,,,,,1,,,,77,97
96965,note_on,0,0,2,,,,,,,,,1,,,,79,97
96966,note_on,5,0,8,,,,,,,,,12,,,,62,108
96966,note_on,10,0,5,,,,,,,,,5,,,,58,96
96967,note_on,106,0,10,,,,,,,,,14,,,,45,0
96970,note_on,5,0,9,,,,,,,,,13,,,,58,99
96971,note_on,10,0,3,,,,,,,,,3,,,,58,97
96971,note_on,0,0,3,,,,,,,,,3,,,,46,97
96972,note_on,5,0,10,,,,,,,,,14,,,,46,93
97020,note_on,0,0,6,,,,,,,,,10,,,,81,110
97020,note_on,60,0,6,,,,,,,,,10,,,,79,0
97022,note_on,60,0,7,,,,,,,,,11,,,,67,0
97022,note_on,0,0,7,,,,,,,,,11,,,,69,88
97059,note_on,39,0,6,,,,,,,,,10,,,,81,0
97061,note_on,39,0,7,,,,,,,,,11,,,,69,0
97073,note_on,110,0,1,,,,,,,,,0,,,,79,0
97074,note_on,110,0,4,,,,,,,,,4,,,,62,0
97075,note_on,110,0,2,,,,,,,,,1,,,,79,0
97075,note_on,0,0,2,,,,,,,,,1,,,,77,0
97076,note_on,110,0,5,,,,,,,,,5,,,,58,0
97080,note_on,21,0,6,,,,,,,,,10,,,,82,110
97081,note_on,110,0,3,,,,,,,,,3,,,,46,0
97081,note_on,0,0,3,,,,,,,,,3,,,,58,0
97081,note_on,115,0,8,,,,,,,,,12,,,,62,0
97082,note_on,21,0,7,,,,,,,,,11,,,,70,88
97083,note_on,10,0,1,,,,,,,,,0,,,,79,97
97084,note_on,10,0,4,,,,,,,,,4,,,,62,96
97085,note_on,0,0,2,,,,,,,,,1,,,,79,97
97085,note_on,115,0,9,,,,,,,,,13,,,,58,0
97085,note_on,10,0,2,,,,,,,,,1,,,,77,97
97086,note_on,10,0,5,,,,,,,,,5,,,,58,96
97086,note_on,5,0,8,,,,,,,,,12,,,,62,108
97087,note_on,115,0,10,,,,,,,,,14,,,,46,0
97090,note_on,5,0,9,,,,,,,,,13,,,,58,99
97091,note_on,10,0,3,,,,,,,,,3,,,,46,97
97091,note_on,0,0,3,,,,,,,,,3,,,,58,97
97092,note_on,5,0,10,,,,,,,,,14,,,,46,93
97115,note_on,35,0,6,,,,,,,,,10,,,,82,0
97117,note_on,35,0,7,,,,,,,,,11,,,,70,0
97140,note_on,25,0,6,,,,,,,,,10,,,,86,110
97142,note_on,25,0,7,,,,,,,,,11,,,,74,88
97175,note_on,35,0,6,,,,,,,,,10,,,,86,0
97177,note_on,35,0,7,,,,,,,,,11,,,,74,0
97193,note_on,110,0,1,,,,,,,,,0,,,,79,0
97194,note_on,110,0,4,,,,,,,,,4,,,,62,0
97195,note_on,0,0,2,,,,,,,,,1,,,,77,0
97195,note_on,110,0,2,,,,,,,,,1,,,,79,0
97196,note_on,110,0,5,,,,,,,,,5,,,,58,0
97200,set_tempo,240,1,0,,,,,,264901,,,,,,,,
97200,note_on,25,0,6,,,,,,,,,10,,,,84,110
97201,note_on,0,0,3,,,,,,,,,3,,,,46,0
97201,note_on,115,0,8,,,,,,,,,12,,,,62,0
97201,note_on,110,0,3,,,,,,,,,3,,,,58,0
97202,note_on,25,0,7,,,,,,,,,11,,,,72,88
97203,note_on,10,0,1,,,,,,,,,0,,,,84,97
97204,note_on,10,0,4,,,,,,,,,4,,,,60,96
97205,note_on,115,0,9,,,,,,,,,13,,,,58,0
97205,note_on,0,0,2,,,,,,,,,1,,,,76,97
97205,note_on,10,0,2,,,,,,,,,1,,,,79,97
97206,note_on,10,0,5,,,,,,,,,5,,,,60,96
97206,note_on,5,0,8,,,,,,,,,12,,,,64,108
97207,note_on,115,0,10,,,,,,,,,14,,,,46,0
97210,note_on,5,0,9,,,,,,,,,13,,,,60,99
97211,note_on,0,0,3,,,,,,,,,3,,,,60,97
97211,note_on,10,0,3,,,,,,,,,3,,,,48,97
97212,note_on,5,0,10,,,,,,,,,14,,,,48,93
97260,note_on,0,0,6,,,,,,,,,10,,,,82,110
97260,note_on,60,0,6,,,,,,,,,10,,,,84,0
97262,note_on,60,0,7,,,,,,,,,11,,,,72,0
97262,note_on,0,0,7,,,,,,,,,11,,,,70,88
97299,note_on,39,0,6,,,,,,,,,10,,,,82,0
97301,note_on,39,0,7,,,,,,,,,11,,,,70,0
97313,note_on,110,0,1,,,,,,,,,0,,,,84,0
97314,note_on,110,0,4,,,,,,,,,4,,,,60,0
97315,note_on,0,0,2,,,,,,,,,1,,,,79,0
97315,note_on,110,0,2,,,,,,,,,1,,,,76,0
97316,note_on,110,0,5,,,,,,,,,5,,,,60,0
97320,note_on,21,0,6,,,,,,,,,10,,,,81,110
97321,note_on,0,0,3,,,,,,,,,3,,,,48,0
97321,note_on,110,0,3,,,,,,,,,3,,,,60,0
97321,note_on,115,0,8,,,,,,,,,12,,,,64,0
97322,note_on,21,0,7,,,,,,,,,11,,,,69,88
97323,note_on,10,0,1,,,,,,,,,0,,,,84,97
97324,note_on,10,0,4,,,,,,,,,4,,,,60,96
97325,note_on,115,0,9,,,,,,,,,13,,,,60,0
97325,note_on,10,0,2,,,,,,,,,1,,,,79,97
97325,note_on,0,0,2,,,,,,,,,1,,,,76,97
97326,note_on,5,0,8,,,,,,,,,12,,,,64,108
97326,note_on,10,0,5,,,,,,,,,5,,,,60,96
97327,note_on,115,0,10,,,,,,,,,14,,,,48,0
97330,note_on,5,0,9,,,,,,,,,13,,,,60,99
97331,note_on,10,0,3,,,,,,,,,3,,,,60,97
97331,note_on,0,0,3,,,,,,,,,3,,,,48,97
97332,note_on,5,0,10,,,,,,,,,14,,,,48,93
97355,note_on,35,0,6,,,,,,,,,10,,,,81,0
97357,note_on,35,0,7,,,,,,,,,11,,,,69,0
97380,control_change,25,0,6,,,,,,,,,10,11,79,,,
97380,note_on,0,0,6,,,,,,,,,10,,,,79,110
97380,set_tempo,180,1,0,,,,,,330579,,,,,,,,
97382,note_on,0,0,7,,,,,,,,,11,,,,67,88
97382,control_change,25,0,7,,,,,,,,,11,11,79,,,
97383,control_change,60,0,1,,,,,,,,,0,11,79,,,
97384,control_change,60,0,4,,,,,,,,,4,11,79,,,
97385,control_change,60,0,2,,,,,,,,,1,11,79,,,
97386,control_change,60,0,8,,,,,,,,,12,11,79,,,
97386,control_change,60,0,5,,,,,,,,,5,11,79,,,
97388,control_change,8,0,6,,,,,,,,,10,11,75,,,
97390,control_change,60,0,9,,,,,,,,,13,11,79,,,
97390,control_change,8,0,7,,,,,,,,,11,11,75,,,
97391,control_change,60,0,3,,,,,,,,,3,11,79,,,
97392,control_change,9,0,1,,,,,,,,,0,11,75,,,
97392,control_change,60,0,10,,,,,,,,,14,11,79,,,
97393,control_change,9,0,4,,,,,,,,,4,11,75,,,
97394,control_change,9,0,2,,,,,,,,,1,11,75,,,
97394,control_change,8,0,8,,,,,,,,,12,11,75,,,
97395,control_change,9,0,5,,,,,,,,,5,11,75,,,
97396,control_change,8,0,6,,,,,,,,,10,11,71,,,
97398,control_change,8,0,9,,,,,,,,,13,11,75,,,
97398,control_change,8,0,7,,,,,,,,,11,11,71,,,
97400,control_change,8,0,10,,,,,,,,,14,11,75,,,
97400,control_change,4,0,6,,,,,,,,,10,11,68,,,
97400,control_change,9,0,3,,,,,,,,,3,11,75,,,
97401,control_change,9,0,1,,,,,,,,,0,11,71,,,
97402,control_change,4,0,7,,,,,,,,,11,11,68,,,
97402,control_change,9,0,4,,,,,,,,,4,11,71,,,
97402,control_change,8,0,8,,,,,,,,,12,11,71,,,
97403,control_change,9,0,2,,,,,,,,,1,11,71,,,
97404,control_change,9,0,5,,,,,,,,,5,11,71,,,
97405,control_change,4,0,1,,,,,,,,,0,11,68,,,
97406,control_change,4,0,8,,,,,,,,,12,11,68,,,
97406,control_change,4,0,4,,,,,,,,,4,11,68,,,
97406,control_change,8,0,9,,,,,,,,,13,11,71,,,
97407,control_change,4,0,2,,,,,,,,,1,11,68,,,
97408,control_change,8,0,10,,,,,,,,,14,11,71,,,
97408,control_change,8,0,6,,,,,,,,,10,11,64,,,
97408,control_change,4,0,5,,,,,,,,,5,11,68,,,
97409,control_change,9,0,3,,,,,,,,,3,11,71,,,
97410,control_change,8,0,7,,,,,,,,,11,11,64,,,
97410,control_change,4,0,9,,,,,,,,,13,11,68,,,
97412,control_change,4,0,10,,,,,,,,,14,11,68,,,
97413,control_change,4,0,3,,,,,,,,,3,11,68,,,
97414,control_change,9,0,1,,,,,,,,,0,11,64,,,
97414,control_change,8,0,8,,,,,,,,,12,11,64,,,
97415,note_on,7,0,6,,,,,,,,,10,,,,79,0
97415,control_change,9,0,4,,,,,,,,,4,11,64,,,
97416,control_change,9,0,2,,,,,,,,,1,11,64,,,
97416,control_change,1,0,6,,,,,,,,,10,11,60,,,
97417,note_on,7,0,7,,,,,,,,,11,,,,67,0
97417,control_change,9,0,5,,,,,,,,,5,11,64,,,
97418,control_change,1,0,7,,,,,,,,,11,11,60,,,
97418,control_change,8,0,9,,,,,,,,,13,11,64,,,
97420,control_change,8,0,10,,,,,,,,,14,11,64,,,
97420,control_change,4,0,6,,,,,,,,,10,11,57,,,
97422,control_change,4,0,7,,,,,,,,,11,11,57,,,
97422,control_change,8,0,8,,,,,,,,,12,11,60,,,
97422,control_change,9,0,3,,,,,,,,,3,11,64,,,
97423,control_change,9,0,1,,,,,,,,,0,11,60,,,
97424,control_change,4,0,6,,,,,,,,,10,11,54,,,
97424,control_change,9,0,4,,,,,,,,,4,11,60,,,
97425,control_change,9,0,2,,,,,,,,,1,11,60,,,
97426,control_change,4,0,7,,,,,,,,,11,11,54,,,
97426,control_change,9,0,5,,,,,,,,,5,11,60,,,
97426,control_change,8,0,9,,,,,,,,,13,11,60,,,
97426,control_change,4,0,8,,,,,,,,,12,11,57,,,
97428,control_change,5,0,1,,,,,,,,,0,11,57,,,
97428,control_change,4,0,6,,,,,,,,,10,11,51,,,
97428,control_change,8,0,10,,,,,,,,,14,11,60,,,
97429,control_change,5,0,4,,,,,,,,,4,11,57,,,
97430,control_change,5,0,2,,,,,,,,,1,11,57,,,
97430,control_change,4,0,8,,,,,,,,,12,11,54,,,
97430,control_change,4,0,7,,,,,,,,,11,11,51,,,
97430,control_change,4,0,9,,,,,,,,,13,11,57,,,
97431,control_change,9,0,3,,,,,,,,,3,11,60,,,
97431,control_change,5,0,5,,,,,,,,,5,11,57,,,
97432,control_change,4,0,6,,,,,,,,,10,11,48,,,
97432,control_change,4,0,1,,,,,,,,,0,11,54,,,
97432,control_change,4,0,10,,,,,,,,,14,11,57,,,
97433,note_on,1,0,1,,,,,,,,,0,,,,84,0
97433,control_change,4,0,4,,,,,,,,,4,11,54,,,
97434,control_change,4,0,8,,,,,,,,,12,11,51,,,
97434,control_change,4,0,9,,,,,,,,,13,11,54,,,
97434,note_on,1,0,4,,,,,,,,,4,,,,60,0
97434,control_change,4,0,7,,,,,,,,,11,11,48,,,
97434,control_change,4,0,2,,,,,,,,,1,11,54,,,
97435,note_on,1,0,2,,,,,,,,,1,,,,76,0
97435,note_on,0,0,2,,,,,,,,,1,,,,79,0
97435,control_change,4,0,5,,,,,,,,,5,11,54,,,
97436,control_change,4,0,10,,,,,,,,,14,11,54,,,
97436,note_on,1,0,5,,,,,,,,,5,,,,60,0
97436,control_change,5,0,3,,,,,,,,,3,11,57,,,
97436,control_change,4,0,6,,,,,,,,,10,11,45,,,
97437,control_change,4,0,1,,,,,,,,,0,11,51,,,
97438,control_change,4,0,8,,,,,,,,,12,11,48,,,
97438,control_change,4,0,4,,,,,,,,,4,11,51,,,
97438,control_change,4,0,7,,,,,,,,,11,11,45,,,
97438,control_change,4,0,9,,,,,,,,,13,11,51,,,
97439,control_change,4,0,2,,,,,,,,,1,11,51,,,
97440,set_tempo,60,1,0,,,,,,285714,,,,,,,,
97440,control_change,4,0,5,,,,,,,,,5,11,51,,,
97440,control_change,4,0,10,,,,,,,,,14,11,51,,,
97440,control_change,4,0,6,,,,,,,,,10,11,42,,,
97440,note_on,0,0,6,,,,,,,,,10,,,,77,110
97440,control_change,4,0,3,,,,,,,,,3,11,54,,,
97441,note_on,0,0,3,,,,,,,,,3,,,,60,0
97441,note_on,3,0,8,,,,,,,,,12,,,,64,0
97441,note_on,1,0,3,,,,,,,,,3,,,,48,0
97441,control_change,4,0,1,,,,,,,,,0,11,48,,,
97442,control_change,4,0,7,,,,,,,,,11,11,42,,,
97442,note_on,0,0,7,,,,,,,,,11,,,,65,88
97442,control_change,4,0,9,,,,,,,,,13,11,48,,,
97442,control_change,4,0,4,,,,,,,,,4,11,48,,,
97442,control_change,1,0,8,,,,,,,,,12,11,45,,,
97443,control_change,4,0,2,,,,,,,,,1,11,48,,,
97443,note_on,2,0,1,,,,,,,,,0,,,,77,97
97444,note_on,2,0,4,,,,,,,,,4,,,,53,96
97444,control_change,4,0,5,,,,,,,,,5,11,48,,,
97444,control_change,4,0,10,,,,,,,,,14,11,48,,,
97445,control_change,4,0,3,,,,,,,,,3,11,51,,,
97445,note_on,3,0,9,,,,,,,,,13,,,,60,0
97445,note_on,2,0,2,,,,,,,,,1,,,,77,97
97446,note_on,2,0,5,,,,,,,,,5,,,,53,96
97446,control_change,1,0,9,,,,,,,,,13,11,45,,,
97446,control_change,4,0,8,,,,,,,,,12,11,42,,,
97446,note_on,0,0,8,,,,,,,,,12,,,,65,108
97447,note_on,3,0,10,,,,,,,,,14,,,,48,0
97448,control_change,1,0,10,,,,,,,,,14,11,45,,,
97449,control_change,4,0,3,,,,,,,,,3,11,48,,,
97450,note_on,0,0,9,,,,,,,,,13,,,,49,99
97450,control_change,4,0,9,,,,,,,,,13,11,42,,,
97451,note_on,2,0,3,,,,,,,,,3,,,,53,97
97452,note_on,0,0,10,,,,,,,,,14,,,,37,93
97452,control_change,4,0,10,,,,,,,,,14,11,42,,,
97500,note_on,60,0,6,,,,,,,,,10,,,,77,0
97502,note_on,60,0,7,,,,,,,,,11,,,,65,0
97558,note_on,115,0,1,,,,,,,,,0,,,,77,0
97559,note_on,115,0,4,,,,,,,,,4,,,,53,0
97560,note_on,60,0,6,,,,,,,,,10,,,,77,110
97560,note_on,115,0,2,,,,,,,,,1,,,,77,0
97561,note_on,115,0,5,,,,,,,,,5,,,,53,0
97562,note_on,60,0,7,,,,,,,,,11,,,,65,88
97566,note_on,115,0,3,,,,,,,,,3,,,,53,0
97620,note_on,60,0,6,,,,,,,,,10,,,,77,0
97622,note_on,60,0,7,,,,,,,,,11,,,,65,0
97680,set_tempo,240,1,0,,,,,,272727,,,,,,,,
97680,note_on,60,0,6,,,,,,,,,10,,,,80,110
97682,note_on,60,0,7,,,,,,,,,11,,,,68,88
97685,note_on,0,0,2,,,,,,,,,1,,,,68,97
97685,control_change,125,0,2,,,,,,,,,1,11,27,,,
97685,note_on,0,0,2,,,,,,,,,1,,,,80,97
97686,note_on,240,0,8,,,,,,,,,12,,,,65,0
97686,note_on,0,0,8,,,,,,,,,12,,,,63,108
97690,note_on,240,0,9,,,,,,,,,13,,,,49,0
97690,note_on,0,0,9,,,,,,,,,13,,,,48,99
97692,note_on,0,0,10,,,,,,,,,14,,,,36,93
97692,note_on,240,0,10,,,,,,,,,14,,,,37,0
97695,note_on,0,0,6,,,,,,,,,10,,,,78,110
97695,note_on,15,0,6,,,,,,,,,10,,,,80,0
97697,note_on,0,0,7,,,,,,,,,11,,,,66,88
97697,note_on,15,0,7,,,,,,,,,11,,,,68,0
97701,control_change,16,0,2,,,,,,,,,1,11,28,,,
97717,control_change,16,0,2,,,,,,,,,1,11,29,,,
97733,control_change,16,0,2,,,,,,,,,1,11,30,,,
97740,note_on,45,0,6,,,,,,,,,10,,,,78,0
97740,note_on,0,0,6,,,,,,,,,10,,,,77,110
97742,note_on,0,0,7,,,,,,,,,11,,,,65,88
97742,note_on,45,0,7,,,,,,,,,11,,,,66,0
97749,control_change,16,0,2,,,,,,,,,1,11,31,,,
97765,control_change,16,0,2,,,,,,,,,1,11,32,,,
97781,control_change,16,0,2,,,,,,,,,1,11,33,,,
97797,control_change,16,0,2,,,,,,,,,1,11,34,,,
97800,note_on,60,0,6,,,,,,,,,10,,,,77,0
97800,note_on,0,0,6,,,,,,,,,10,,,,78,110
97802,note_on,60,0,7,,,,,,,,,11,,,,65,0
97802,note_on,0,0,7,,,,,,,,,11,,,,66,88
97813,control_change,16,0,2,,,,,,,,,1,11,35,,,
97829,control_change,16,0,2,,,,,,,,,1,11,36,,,
97845,control_change,16,0,2,,,,,,,,,1,11,37,,,
97860,note_on,60,0,6,,,,,,,,,10,,,,78,0
97860,note_on,0,0,6,,,,,,,,,10,,,,80,110
97861,control_change,16,0,2,,,,,,,,,1,11,38,,,
97862,note_on,60,0,7,,,,,,,,,11,,,,66,0
97862,note_on,0,0,7,,,,,,,,,11,,,,68,88
97877,control_change,16,0,2,,,,,,,,,1,11,39,,,
97893,control_change,16,0,2,,,,,,,,,1,11,40,,,
97899,note_on,39,0,6,,,,,,,,,10,,,,80,0
97901,note_on,39,0,7,,,,,,,,,11,,,,68,0
97909,control_change,16,0,2,,,,,,,,,1,11,41,,,
97920,note_on,21,0,6,,,,,,,,,10,,,,77,110
97920,set_tempo,240,1,0,,,,,,285714,,,,,,,,
97922,note_on,21,0,7,,,,,,,,,11,,,,65,88
97925,control_change,16,0,2,,,,,,,,,1,11,42,,,
97926,note_on,240,0,8,,,,,,,,,12,,,,63,0
97926,note_on,0,0,8,,,,,,,,,12,,,,65,108
97930,note_on,240,0,9,,,,,,,,,13,,,,48,0
97930,note_on,0,0,9,,,,,,,,,13,,,,49,99
97932,note_on,0,0,10,,,,,,,,,14,,,,37,93
97932,note_on,240,0,10,,,,,,,,,14,,,,36,0
97980,note_on,60,0,6,,,,,,,,,10,,,,77,0
97982,note_on,60,0,7,,,,,,,,,11,,,,65,0
98040,note_on,60,0,6,,,,,,,,,10,,,,77,110
98042,note_on,60,0,7,,,,,,,,,11,,,,65,88
98100,note_on,60,0,6,,,,,,,,,10,,,,77,0
98102,note_on,60,0,7,,,,,,,,,11,,,,65,0
98160,note_on,60,0,6,,,,,,,,,10,,,,80,110
98160,set_tempo,240,1,0,,,,,,272727,,,,,,,,
98162,note_on,60,0,7,,,,,,,,,11,,,,68,88
98166,note_on,240,0,8,,,,,,,,,12,,,,65,0
98166,note_on,0,0,8,,,,,,,,,12,,,,63,108
98170,note_on,240,0,9,,,,,,,,,13,,,,49,0
98170,note_on,0,0,9,,,,,,,,,13,,,,48,99
98172,note_on,0,0,10,,,,,,,,,14,,,,36,93
98172,note_on,240,0,10,,,,,,,,,14,,,,37,0
98175,note_on,15,0,6,,,,,,,,,10,,,,80,0
98175,note_on,0,0,6,,,,,,,,,10,,,,78,110
98177,note_on,0,0,7,,,,,,,,,11,,,,66,88
98177,note_on,15,0,7,,,,,,,,,11,,,,68,0
98220,note_on,0,0,6,,,,,,,,,10,,,,77,110
98220,note_on,45,0,6,,,,,,,,,10,,,,78,0
98222,note_on,45,0,7,,,,,,,,,11,,,,66,0
98222,note_on,0,0,7,,,,,,,,,11,,,,65,88
98280,note_on,60,0,6,,,,,,,,,10,,,,77,0
98280,note_on,0,0,6,,,,,,,,,10,,,,78,110
98282,note_on,60,0,7,,,,,,,,,11,,,,65,0
98282,note_on,0,0,7,,,,,,,,,11,,,,66,88
98340,note_on,60,0,6,,,,,,,,,10,,,,78,0
98340,note_on,0,0,6,,,,,,,,,10,,,,80,110
98342,note_on,60,0,7,,,,,,,,,11,,,,66,0
98342,note_on,0,0,7,,,,,,,,,11,,,,68,88
98400,note_on,0,0,6,,,,,,,,,10,,,,77,110
98400,note_on,60,0,6,,,,,,,,,10,,,,80,0
98400,set_tempo,240,1,0,,,,,,282353,,,,,,,,
98400,control_change,0,0,6,,,,,,,,,10,11,42,,,
98402,control_change,0,0,7,,,,,,,,,11,11,42,,,
98402,note_on,60,0,7,,,,,,,,,11,,,,68,0
98402,note_on,0,0,7,,,,,,,,,11,,,,65,88
98406,note_on,0,0,8,,,,,,,,,12,,,,65,108
98406,control_change,0,0,8,,,,,,,,,12,11,42,,,
98406,note_on,240,0,8,,,,,,,,,12,,,,63,0
98410,control_change,0,0,9,,,,,,,,,13,11,42,,,
98410,note_on,0,0,9,,,,,,,,,13,,,,49,99
98410,note_on,240,0,9,,,,,,,,,13,,,,48,0
98412,note_on,240,0,10,,,,,,,,,14,,,,36,0
98412,note_on,0,0,10,,,,,,,,,14,,,,37,93
98412,control_change,0,0,10,,,,,,,,,14,11,42,,,
98424,control_change,24,0,6,,,,,,,,,10,11,40,,,
98426,control_change,24,0,7,,,,,,,,,11,11,40,,,
98430,control_change,24,0,8,,,,,,,,,12,11,40,,,
98434,control_change,24,0,9,,,,,,,,,13,11,40,,,
98436,control_change,24,0,10,,,,,,,,,14,11,40,,,
98445,note_on,15,0,8,,,,,,,,,12,,,,65,0
98448,control_change,24,0,6,,,,,,,,,10,11,38,,,
98449,note_on,15,0,9,,,,,,,,,13,,,,49,0
98450,control_change,24,0,7,,,,,,,,,11,11,38,,,
98451,note_on,15,0,10,,,,,,,,,14,,,,37,0
98454,control_change,9,0,8,,,,,,,,,12,11,38,,,
98458,control_change,9,0,9,,,,,,,,,13,11,38,,,
98460,control_change,9,0,10,,,,,,,,,14,11,38,,,
98466,note_on,12,0,8,,,,,,,,,12,,,,65,99
98467,note_on,19,0,6,,,,,,,,,10,,,,77,0
98469,note_on,19,0,7,,,,,,,,,11,,,,65,0
98470,note_on,12,0,9,,,,,,,,,13,,,,49,90
98472,control_change,5,0,6,,,,,,,,,10,11,36,,,
98472,note_on,12,0,10,,,,,,,,,14,,,,37,84
98474,control_change,5,0,7,,,,,,,,,11,11,36,,,
98478,control_change,12,0,8,,,,,,,,,12,11,36,,,
98482,control_change,12,0,9,,,,,,,,,13,11,36,,,
98484,control_change,12,0,10,,,,,,,,,14,11,36,,,
98496,control_change,24,0,6,,,,,,,,,10,11,34,,,
98498,control_change,24,0,7,,,,,,,,,11,11,34,,,
98502,control_change,24,0,8,,,,,,,,,12,11,34,,,
98505,note_on,3,0,8,,,,,,,,,12,,,,65,0
98506,control_change,24,0,9,,,,,,,,,13,11,34,,,
98508,control_change,24,0,10,,,,,,,,,14,11,34,,,
98509,note_on,3,0,9,,,,,,,,,13,,,,49,0
98511,note_on,3,0,10,,,,,,,,,14,,,,37,0
98520,control_change,24,0,6,,,,,,,,,10,11,32,,,
98520,note_on,0,0,6,,,,,,,,,10,,,,77,110
98522,note_on,0,0,7,,,,,,,,,11,,,,65,88
98522,control_change,24,0,7,,,,,,,,,11,11,32,,,
98526,note_on,0,0,8,,,,,,,,,12,,,,65,108
98526,control_change,21,0,8,,,,,,,,,12,11,32,,,
98530,control_change,21,0,9,,,,,,,,,13,11,32,,,
98530,note_on,0,0,9,,,,,,,,,13,,,,49,99
98532,control_change,21,0,10,,,,,,,,,14,11,32,,,
98532,note_on,0,0,10,,,,,,,,,14,,,,37,93
98535,control_change,15,0,6,,,,,,,,,10,11,33,,,
98537,control_change,15,0,7,,,,,,,,,11,11,33,,,
98541,control_change,15,0,8,,,,,,,,,12,11,33,,,
98545,control_change,15,0,9,,,,,,,,,13,11,33,,,
98547,control_change,15,0,10,,,,,,,,,14,11,33,,,
98550,control_change,15,0,6,,,,,,,,,10,11,34,,,
98552,control_change,15,0,7,,,,,,,,,11,11,34,,,
98556,control_change,15,0,8,,,,,,,,,12,11,34,,,
98560,control_change,15,0,9,,,,,,,,,13,11,34,,,
98562,control_change,15,0,10,,,,,,,,,14,11,34,,,
98565,control_change,15,0,6,,,,,,,,,10,11,35,,,
98565,note_on,9,0,8,,,,,,,,,12,,,,65,0
98567,control_change,15,0,7,,,,,,,,,11,11,35,,,
98569,note_on,9,0,9,,,,,,,,,13,,,,49,0
98571,control_change,6,0,8,,,,,,,,,12,11,35,,,
98571,note_on,9,0,10,,,,,,,,,14,,,,37,0
98575,control_change,6,0,9,,,,,,,,,13,11,35,,,
98577,control_change,6,0,10,,,,,,,,,14,11,35,,,
98581,control_change,16,0,6,,,,,,,,,10,11,36,,,
98583,control_change,16,0,7,,,,,,,,,11,11,36,,,
98586,note_on,15,0,8,,,,,,,,,12,,,,65,99
98587,control_change,1,0,8,,,,,,,,,12,11,36,,,
98587,note_on,6,0,6,,,,,,,,,10,,,,77,0
98589,note_on,6,0,7,,,,,,,,,11,,,,65,0
98590,note_on,15,0,9,,,,,,,,,13,,,,49,90
98591,control_change,1,0,9,,,,,,,,,13,11,36,,,
98592,note_on,15,0,10,,,,,,,,,14,,,,37,84
98593,control_change,1,0,10,,,,,,,,,14,11,36,,,
98596,control_change,9,0,6,,,,,,,,,10,11,37,,,
98598,control_change,9,0,7,,,,,,,,,11,11,37,,,
98602,control_change,15,0,8,,,,,,,,,12,11,37,,,
98606,control_change,15,0,9,,,,,,,,,13,11,37,,,
98608,control_change,15,0,10,,,,,,,,,14,11,37,,,
98611,control_change,15,0,6,,,,,,,,,10,11,38,,,
98613,control_change,15,0,7,,,,,,,,,11,11,38,,,
98617,control_change,15,0,8,,,,,,,,,12,11,38,,,
98621,control_change,15,0,9,,,,,,,,,13,11,38,,,
98623,control_change,15,0,10,,,,,,,,,14,11,38,,,
98625,note_on,8,0,8,,,,,,,,,12,,,,65,0
98626,control_change,15,0,6,,,,,,,,,10,11,39,,,
98628,control_change,15,0,7,,,,,,,,,11,11,39,,,
98629,note_on,8,0,9,,,,,,,,,13,,,,49,0
98631,note_on,8,0,10,,,,,,,,,14,,,,37,0
98632,control_change,7,0,8,,,,,,,,,12,11,39,,,
98636,control_change,7,0,9,,,,,,,,,13,11,39,,,
98638,control_change,7,0,10,,,,,,,,,14,11,39,,,
98640,set_tempo,240,1,0,,,,,,269663,,,,,,,,
98640,note_on,14,0,6,,,,,,,,,10,,,,81,110
98642,note_on,14,0,7,,,,,,,,,11,,,,69,88
98642,control_change,2,0,6,,,,,,,,,10,11,40,,,
98643,note_on,0,0,1,,,,,,,,,0,,,,81,97
98643,control_change,1085,0,1,,,,,,,,,0,11,42,,,
98644,control_change,2,0,7,,,,,,,,,11,11,40,,,
98644,note_on,0,0,4,,,,,,,,,4,,,,65,96
98644,control_change,1085,0,4,,,,,,,,,4,11,47,,,
98645,note_on,0,0,2,,,,,,,,,1,,,,80,0
98645,note_on,720,0,2,,,,,,,,,1,,,,68,0
98645,note_on,0,0,2,,,,,,,,,1,,,,81,97
98645,control_change,0,0,2,,,,,,,,,1,11,42,,,
98645,note_on,0,0,2,,,,,,,,,1,,,,69,97
98646,control_change,1085,0,5,,,,,,,,,5,11,47,,,
98646,note_on,14,0,8,,,,,,,,,12,,,,65,108
98646,note_on,0,0,5,,,,,,,,,5,,,,53,96
98648,control_change,2,0,8,,,,,,,,,12,11,40,,,
98650,note_on,14,0,9,,,,,,,,,13,,,,49,99
98651,control_change,1085,0,3,,,,,,,,,3,11,47,,,
98651,note_on,0,0,3,,,,,,,,,3,,,,49,97
98652,note_on,14,0,10,,,,,,,,,14,,,,37,93
98652,control_change,2,0,9,,,,,,,,,13,11,40,,,
98654,control_change,2,0,10,,,,,,,,,14,11,40,,,
98657,control_change,15,0,6,,,,,,,,,10,11,41,,,
98659,control_change,15,0,7,,,,,,,,,11,11,41,,,
98661,control_change,18,0,1,,,,,,,,,0,11,43,,,
98663,control_change,18,0,2,,,,,,,,,1,11,43,,,
98663,control_change,15,0,8,,,,,,,,,12,11,41,,,
98667,control_change,15,0,9,,,,,,,,,13,11,41,,,
98669,control_change,15,0,10,,,,,,,,,14,11,41,,,
98672,control_change,15,0,6,,,,,,,,,10,11,42,,,
98674,control_change,15,0,7,,,,,,,,,11,11,42,,,
98678,control_change,15,0,8,,,,,,,,,12,11,42,,,
98680,control_change,19,0,1,,,,,,,,,0,11,44,,,
98682,control_change,19,0,2,,,,,,,,,1,11,44,,,
98682,control_change,15,0,9,,,,,,,,,13,11,42,,,
98684,control_change,15,0,10,,,,,,,,,14,11,42,,,
98685,note_on,7,0,8,,,,,,,,,12,,,,65,0
98688,control_change,16,0,6,,,,,,,,,10,11,43,,,
98689,note_on,7,0,9,,,,,,,,,13,,,,49,0
98690,control_change,16,0,7,,,,,,,,,11,11,43,,,
98691,note_on,7,0,10,,,,,,,,,14,,,,37,0
98694,control_change,9,0,8,,,,,,,,,12,11,43,,,
98698,control_change,9,0,9,,,,,,,,,13,11,43,,,
98699,control_change,19,0,1,,,,,,,,,0,11,45,,,
98700,control_change,9,0,10,,,,,,,,,14,11,43,,,
98701,control_change,19,0,2,,,,,,,,,1,11,45,,,
98703,control_change,15,0,6,,,,,,,,,10,11,44,,,
98705,control_change,15,0,7,,,,,,,,,11,11,44,,,
98706,note_on,12,0,8,,,,,,,,,12,,,,65,99
98707,note_on,4,0,6,,,,,,,,,10,,,,81,0
98709,note_on,4,0,7,,,,,,,,,11,,,,69,0
98709,control_change,3,0,8,,,,,,,,,12,11,44,,,
98710,note_on,12,0,9,,,,,,,,,13,,,,49,90
98712,note_on,12,0,10,,,,,,,,,14,,,,37,84
98713,control_change,3,0,9,,,,,,,,,13,11,44,,,
98715,control_change,3,0,10,,,,,,,,,14,11,44,,,
98717,control_change,18,0,1,,,,,,,,,0,11,46,,,
98718,control_change,11,0,6,,,,,,,,,10,11,45,,,
98719,control_change,18,0,2,,,,,,,,,1,11,46,,,
98720,control_change,11,0,7,,,,,,,,,11,11,45,,,
98724,control_change,15,0,8,,,,,,,,,12,11,45,,,
98728,control_change,15,0,9,,,,,,,,,13,11,45,,,
98730,control_change,15,0,10,,,,,,,,,14,11,45,,,
98733,control_change,15,0,6,,,,,,,,,10,11,46,,,
98735,control_change,15,0,7,,,,,,,,,11,11,46,,,
98736,control_change,19,0,1,,,,,,,,,0,11,47,,,
98738,control_change,19,0,2,,,,,,,,,1,11,47,,,
98739,control_change,15,0,8,,,,,,,,,12,11,46,,,
98743,control_change,15,0,9,,,,,,,,,13,11,46,,,
98745,note_on,6,0,8,,,,,,,,,12,,,,65,0
98745,control_change,15,0,10,,,,,,,,,14,11,46,,,
98749,control_change,16,0,6,,,,,,,,,10,11,47,,,
98749,note_on,6,0,9,,,,,,,,,13,,,,49,0
98751,note_on,6,0,10,,,,,,,,,14,,,,37,0
98751,control_change,16,0,7,,,,,,,,,11,11,47,,,
98755,control_change,19,0,1,,,,,,,,,0,11,48,,,
98755,control_change,10,0,8,,,,,,,,,12,11,47,,,
98757,control_change,19,0,2,,,,,,,,,1,11,48,,,
98759,control_change,10,0,9,,,,,,,,,13,11,47,,,
98760,note_on,11,0,6,,,,,,,,,10,,,,81,110
98761,control_change,10,0,10,,,,,,,,,14,11,47,,,
98762,note_on,11,0,7,,,,,,,,,11,,,,69,88
98764,control_change,4,0,6,,,,,,,,,10,11,48,,,
98766,note_on,11,0,8,,,,,,,,,12,,,,65,108
98766,control_change,4,0,7,,,,,,,,,11,11,48,,,
98770,control_change,4,0,8,,,,,,,,,12,11,48,,,
98770,note_on,11,0,9,,,,,,,,,13,,,,49,99
98772,note_on,11,0,10,,,,,,,,,14,,,,37,93
98773,control_change,18,0,1,,,,,,,,,0,11,49,,,
98774,control_change,4,0,9,,,,,,,,,13,11,48,,,
98775,control_change,18,0,2,,,,,,,,,1,11,49,,,
98776,control_change,4,0,10,,,,,,,,,14,11,48,,,
98779,control_change,15,0,6,,,,,,,,,10,11,49,,,
98781,control_change,15,0,7,,,,,,,,,11,11,49,,,
98785,control_change,15,0,8,,,,,,,,,12,11,49,,,
98789,control_change,15,0,9,,,,,,,,,13,11,49,,,
98791,control_change,15,0,10,,,,,,,,,14,11,49,,,
98792,control_change,19,0,1,,,,,,,,,0,11,50,,,
98794,control_change,19,0,2,,,,,,,,,1,11,50,,,
98794,control_change,15,0,6,,,,,,,,,10,11,50,,,
98796,control_change,15,0,7,,,,,,,,,11,11,50,,,
98800,control_change,15,0,8,,,,,,,,,12,11,50,,,
98804,control_change,15,0,9,,,,,,,,,13,11,50,,,
98805,note_on,5,0,8,,,,,,,,,12,,,,65,0
98806,control_change,15,0,10,,,,,,,,,14,11,50,,,
98809,note_on,5,0,9,,,,,,,,,13,,,,49,0
98810,control_change,16,0,6,,,,,,,,,10,11,51,,,
98811,note_on,5,0,10,,,,,,,,,14,,,,37,0
98811,control_change,19,0,1,,,,,,,,,0,11,51,,,
98812,control_change,16,0,7,,,,,,,,,11,11,51,,,
98813,control_change,19,0,2,,,,,,,,,1,11,51,,,
98816,control_change,11,0,8,,,,,,,,,12,11,51,,,
98820,control_change,11,0,9,,,,,,,,,13,11,51,,,
98822,control_change,11,0,10,,,,,,,,,14,11,51,,,
98825,control_change,15,0,6,,,,,,,,,10,11,52,,,
98826,note_on,10,0,8,,,,,,,,,12,,,,65,99
98827,note_on,2,0,6,,,,,,,,,10,,,,81,0
98827,control_change,15,0,7,,,,,,,,,11,11,52,,,
98829,note_on,2,0,7,,,,,,,,,11,,,,69,0
98829,control_change,18,0,1,,,,,,,,,0,11,52,,,
98830,note_on,10,0,9,,,,,,,,,13,,,,49,90
98831,control_change,5,0,8,,,,,,,,,12,11,52,,,
98831,control_change,18,0,2,,,,,,,,,1,11,52,,,
98832,note_on,10,0,10,,,,,,,,,14,,,,37,84
98835,control_change,5,0,9,,,,,,,,,13,11,52,,,
98837,control_change,5,0,10,,,,,,,,,14,11,52,,,
98840,control_change,13,0,6,,,,,,,,,10,11,53,,,
98842,control_change,13,0,7,,,,,,,,,11,11,53,,,
98846,control_change,15,0,8,,,,,,,,,12,11,53,,,
98848,control_change,19,0,1,,,,,,,,,0,11,53,,,
98850,control_change,15,0,9,,,,,,,,,13,11,53,,,
98850,control_change,19,0,2,,,,,,,,,1,11,53,,,
98852,control_change,15,0,10,,,,,,,,,14,11,53,,,
98856,control_change,16,0,6,,,,,,,,,10,11,54,,,
98858,control_change,16,0,7,,,,,,,,,11,11,54,,,
98862,control_change,16,0,8,,,,,,,,,12,11,54,,,
98865,note_on,3,0,8,,,,,,,,,12,,,,65,0
98866,control_change,16,0,9,,,,,,,,,13,11,54,,,
98867,control_change,19,0,1,,,,,,,,,0,11,54,,,
98868,control_change,16,0,10,,,,,,,,,14,11,54,,,
98869,note_on,3,0,9,,,,,,,,,13,,,,49,0
98869,control_change,19,0,2,,,,,,,,,1,11,54,,,
98871,control_change,15,0,6,,,,,,,,,10,11,55,,,
98871,note_on,3,0,10,,,,,,,,,14,,,,37,0
98873,control_change,15,0,7,,,,,,,,,11,11,55,,,
98877,control_change,12,0,8,,,,,,,,,12,11,55,,,
98880,set_tempo,240,1,0,,,,,,278422,,,,,,,,
98880,note_on,9,0,6,,,,,,,,,10,,,,82,110
98881,control_change,12,0,9,,,,,,,,,13,11,55,,,
98882,note_on,9,0,7,,,,,,,,,11,,,,70,88
98883,note_on,0,0,1,,,,,,,,,0,,,,82,97
98883,control_change,12,0,10,,,,,,,,,14,11,55,,,
98883,note_on,16,0,1,,,,,,,,,0,,,,81,0
98884,control_change,240,0,4,,,,,,,,,4,11,47,,,
98885,note_on,0,0,2,,,,,,,,,1,,,,69,0
98885,note_on,16,0,2,,,,,,,,,1,,,,81,0
98885,control_change,2,0,1,,,,,,,,,0,11,55,,,
98885,note_on,0,0,2,,,,,,,,,1,,,,82,97
98885,note_on,0,0,2,,,,,,,,,1,,,,70,97
98886,control_change,6,0,6,,,,,,,,,10,11,56,,,
98886,control_change,240,0,5,,,,,,,,,5,11,47,,,
98886,note_on,9,0,8,,,,,,,,,12,,,,65,108
98887,control_change,2,0,2,,,,,,,,,1,11,55,,,
98888,control_change,6,0,7,,,,,,,,,11,11,56,,,
98890,note_on,9,0,9,,,,,,,,,13,,,,49,99
98891,control_change,240,0,3,,,,,,,,,3,11,47,,,
98892,control_change,6,0,8,,,,,,,,,12,11,56,,,
98892,note_on,9,0,10,,,,,,,,,14,,,,37,93
98896,control_change,6,0,9,,,,,,,,,13,11,56,,,
98898,control_change,6,0,10,,,,,,,,,14,11,56,,,
98899,control_change,15,0,4,,,,,,,,,4,11,48,,,
98901,control_change,15,0,6,,,,,,,,,10,11,57,,,
98901,control_change,15,0,5,,,,,,,,,5,11,48,,,
98903,control_change,15,0,7,,,,,,,,,11,11,57,,,
98904,control_change,19,0,1,,,,,,,,,0,11,56,,,
98906,control_change,15,0,3,,,,,,,,,3,11,48,,,
98906,control_change,19,0,2,,,,,,,,,1,11,56,,,
98907,control_change,15,0,8,,,,,,,,,12,11,57,,,
98911,control_change,15,0,9,,,,,,,,,13,11,57,,,
98913,control_change,15,0,10,,,,,,,,,14,11,57,,,
98914,control_change,15,0,4,,,,,,,,,4,11,49,,,
98916,control_change,15,0,5,,,,,,,,,5,11,49,,,
98917,control_change,16,0,6,,,,,,,,,10,11,58,,,
98919,control_change,16,0,7,,,,,,,,,11,11,58,,,
98921,control_change,15,0,3,,,,,,,,,3,11,49,,,
98923,control_change,19,0,1,,,,,,,,,0,11,57,,,
98923,control_change,16,0,8,,,,,,,,,12,11,58,,,
98925,note_on,2,0,8,,,,,,,,,12,,,,65,0
98925,control_change,19,0,2,,,,,,,,,1,11,57,,,
98927,control_change,16,0,9,,,,,,,,,13,11,58,,,
98929,control_change,15,0,4,,,,,,,,,4,11,50,,,
98929,note_on,2,0,9,,,,,,,,,13,,,,49,0
98929,control_change,16,0,10,,,,,,,,,14,11,58,,,
98931,control_change,15,0,5,,,,,,,,,5,11,50,,,
98931,note_on,2,0,10,,,,,,,,,14,,,,37,0
98932,control_change,15,0,6,,,,,,,,,10,11,59,,,
98934,control_change,15,0,7,,,,,,,,,11,11,59,,,
98936,control_change,15,0,3,,,,,,,,,3,11,50,,,
98938,control_change,13,0,8,,,,,,,,,12,11,59,,,
98941,control_change,18,0,1,,,,,,,,,0,11,58,,,
98942,control_change,13,0,9,,,,,,,,,13,11,59,,,
98943,control_change,18,0,2,,,,,,,,,1,11,58,,,
98944,control_change,15,0,4,,,,,,,,,4,11,51,,,
98944,control_change,13,0,10,,,,,,,,,14,11,59,,,
98946,control_change,15,0,5,,,,,,,,,5,11,51,,,
98946,note_on,8,0,8,,,,,,,,,12,,,,65,99
98947,note_on,15,0,6,,,,,,,,,10,,,,82,0
98947,control_change,0,0,6,,,,,,,,,10,11,60,,,
98949,control_change,0,0,7,,,,,,,,,11,11,60,,,
98949,note_on,15,0,7,,,,,,,,,11,,,,70,0
98950,note_on,8,0,9,,,,,,,,,13,,,,49,90
98951,control_change,15,0,3,,,,,,,,,3,11,51,,,
98952,note_on,8,0,10,,,,,,,,,14,,,,37,84
98953,control_change,7,0,8,,,,,,,,,12,11,60,,,
98957,control_change,7,0,9,,,,,,,,,13,11,60,,,
98959,control_change,15,0,4,,,,,,,,,4,11,52,,,
98959,control_change,7,0,10,,,,,,,,,14,11,60,,,
98960,control_change,19,0,1,,,,,,,,,0,11,59,,,
98961,control_change,15,0,5,,,,,,,,,5,11,52,,,
98962,control_change,19,0,2,,,,,,,,,1,11,59,,,
98962,control_change,15,0,6,,,,,,,,,10,11,61,,,
98964,control_change,15,0,7,,,,,,,,,11,11,61,,,
98966,control_change,15,0,3,,,,,,,,,3,11,52,,,
98968,control_change,15,0,8,,,,,,,,,12,11,61,,,
98972,control_change,15,0,9,,,,,,,,,13,11,61,,,
98974,control_change,15,0,4,,,,,,,,,4,11,53,,,
98974,control_change,15,0,10,,,,,,,,,14,11,61,,,
98976,control_change,15,0,5,,,,,,,,,5,11,53,,,
98978,control_change,16,0,6,,,,,,,,,10,11,62,,,
98979,control_change,19,0,1,,,,,,,,,0,11,60,,,
98980,control_change,16,0,7,,,,,,,,,11,11,62,,,
98981,control_change,15,0,3,,,,,,,,,3,11,53,,,
98981,control_change,19,0,2,,,,,,,,,1,11,60,,,
98984,control_change,16,0,8,,,,,,,,,12,11,62,,,
98985,note_on,1,0,8,,,,,,,,,12,,,,65,0
98988,control_change,16,0,9,,,,,,,,,13,11,62,,,
98989,note_on,1,0,9,,,,,,,,,13,,,,49,0
98989,control_change,15,0,4,,,,,,,,,4,11,54,,,
98990,control_change,16,0,10,,,,,,,,,14,11,62,,,
98991,control_change,15,0,5,,,,,,,,,5,11,54,,,
98991,note_on,1,0,10,,,,,,,,,14,,,,37,0
98993,control_change,15,0,6,,,,,,,,,10,11,62,,,
98995,control_change,15,0,7,,,,,,,,,11,11,62,,,
98996,control_change,15,0,3,,,,,,,,,3,11,54,,,
98997,control_change,18,0,1,,,,,,,,,0,11,61,,,
98999,control_change,14,0,8,,,,,,,,,12,11,62,,,
98999,control_change,18,0,2,,,,,,,,,1,11,61,,,
99000,note_on,7,0,6,,,,,,,,,10,,,,82,110
99002,note_on,7,0,7,,,,,,,,,11,,,,70,88
99003,control_change,14,0,9,,,,,,,,,13,11,62,,,
99004,control_change,15,0,4,,,,,,,,,4,11,55,,,
99005,control_change,14,0,10,,,,,,,,,14,11,62,,,
99006,note_on,7,0,8,,,,,,,,,12,,,,65,108
99006,control_change,15,0,5,,,,,,,,,5,11,55,,,
99008,control_change,8,0,6,,,,,,,,,10,11,63,,,
99010,note_on,7,0,9,,,,,,,,,13,,,,49,99
99010,control_change,8,0,7,,,,,,,,,11,11,63,,,
99011,control_change,15,0,3,,,,,,,,,3,11,55,,,
99012,note_on,7,0,10,,,,,,,,,14,,,,37,93
99014,control_change,8,0,8,,,,,,,,,12,11,63,,,
99016,control_change,19,0,1,,,,,,,,,0,11,62,,,
99018,control_change,8,0,9,,,,,,,,,13,11,63,,,
99018,control_change,19,0,2,,,,,,,,,1,11,62,,,
99019,control_change,15,0,4,,,,,,,,,4,11,56,,,
99020,control_change,8,0,10,,,,,,,,,14,11,63,,,
99021,control_change,15,0,5,,,,,,,,,5,11,56,,,
99024,control_change,16,0,6,,,,,,,,,10,11,64,,,
99026,control_change,15,0,3,,,,,,,,,3,11,56,,,
99026,control_change,16,0,7,,,,,,,,,11,11,64,,,
99030,control_change,16,0,8,,,,,,,,,12,11,64,,,
99034,control_change,16,0,9,,,,,,,,,13,11,64,,,
99034,control_change,15,0,4,,,,,,,,,4,11,57,,,
99035,control_change,19,0,1,,,,,,,,,0,11,62,,,
99036,control_change,15,0,5,,,,,,,,,5,11,57,,,
99036,control_change,16,0,10,,,,,,,,,14,11,64,,,
99037,control_change,19,0,2,,,,,,,,,1,11,62,,,
99039,control_change,15,0,6,,,,,,,,,10,11,64,,,
99041,control_change,15,0,7,,,,,,,,,11,11,64,,,
99041,control_change,15,0,3,,,,,,,,,3,11,57,,,
99045,note_on,15,0,8,,,,,,,,,12,,,,65,0
99045,control_change,0,0,8,,,,,,,,,12,11,64,,,
99049,control_change,0,0,9,,,,,,,,,13,11,64,,,
99049,note_on,15,0,9,,,,,,,,,13,,,,49,0
99049,control_change,15,0,4,,,,,,,,,4,11,58,,,
99051,control_change,15,0,5,,,,,,,,,5,11,58,,,
99051,control_change,0,0,10,,,,,,,,,14,11,64,,,
99051,note_on,15,0,10,,,,,,,,,14,,,,37,0
99053,control_change,18,0,1,,,,,,,,,0,11,63,,,
99054,control_change,15,0,6,,,,,,,,,10,11,65,,,
99055,control_change,18,0,2,,,,,,,,,1,11,63,,,
99056,control_change,15,0,3,,,,,,,,,3,11,58,,,
99056,control_change,15,0,7,,,,,,,,,11,11,65,,,
99060,control_change,15,0,8,,,,,,,,,12,11,65,,,
99064,control_change,15,0,4,,,,,,,,,4,11,59,,,
99064,control_change,15,0,9,,,,,,,,,13,11,65,,,
99066,control_change,15,0,5,,,,,,,,,5,11,59,,,
99066,control_change,15,0,10,,,,,,,,,14,11,65,,,
99066,note_on,6,0,8,,,,,,,,,12,,,,65,99
99067,note_on,13,0,6,,,,,,,,,10,,,,82,0
99069,control_change,2,0,6,,,,,,,,,10,11,66,,,
99069,note_on,13,0,7,,,,,,,,,11,,,,70,0
99070,note_on,6,0,9,,,,,,,,,13,,,,49,90
99071,control_change,15,0,3,,,,,,,,,3,11,59,,,
99071,control_change,2,0,7,,,,,,,,,11,11,66,,,
99072,note_on,6,0,10,,,,,,,,,14,,,,37,84
99072,control_change,19,0,1,,,,,,,,,0,11,64,,,
99074,control_change,19,0,2,,,,,,,,,1,11,64,,,
99075,control_change,9,0,8,,,,,,,,,12,11,66,,,
99079,control_change,15,0,4,,,,,,,,,4,11,60,,,
99079,control_change,9,0,9,,,,,,,,,13,11,66,,,
99081,control_change,15,0,5,,,,,,,,,5,11,60,,,
99081,control_change,9,0,10,,,,,,,,,14,11,66,,,
99085,control_change,16,0,6,,,,,,,,,10,11,66,,,
99086,control_change,15,0,3,,,,,,,,,3,11,60,,,
99087,control_change,16,0,7,,,,,,,,,11,11,66,,,
99091,control_change,19,0,1,,,,,,,,,0,11,64,,,
99091,control_change,16,0,8,,,,,,,,,12,11,66,,,
99093,control_change,19,0,2,,,,,,,,,1,11,64,,,
99094,control_change,15,0,4,,,,,,,,,4,11,61,,,
99095,control_change,16,0,9,,,,,,,,,13,11,66,,,
99096,control_change,15,0,5,,,,,,,,,5,11,61,,,
99097,control_change,16,0,10,,,,,,,,,14,11,66,,,
99100,control_change,15,0,6,,,,,,,,,10,11,67,,,
99101,control_change,15,0,3,,,,,,,,,3,11,61,,,
99102,control_change,15,0,7,,,,,,,,,11,11,67,,,
99105,note_on,14,0,8,,,,,,,,,12,,,,65,0
99106,control_change,1,0,8,,,,,,,,,12,11,67,,,
99109,control_change,15,0,4,,,,,,,,,4,11,62,,,
99109,note_on,14,0,9,,,,,,,,,13,,,,49,0
99109,control_change,18,0,1,,,,,,,,,0,11,65,,,
99110,control_change,1,0,9,,,,,,,,,13,11,67,,,
99111,control_change,18,0,2,,,,,,,,,1,11,65,,,
99111,note_on,14,0,10,,,,,,,,,14,,,,37,0
99111,control_change,15,0,5,,,,,,,,,5,11,62,,,
99112,control_change,1,0,10,,,,,,,,,14,11,67,,,
99115,control_change,15,0,6,,,,,,,,,10,11,68,,,
99116,control_change,15,0,3,,,,,,,,,3,11,62,,,
99117,control_change,15,0,7,,,,,,,,,11,11,68,,,
99120,note_on,5,0,6,,,,,,,,,10,,,,83,110
99120,set_tempo,240,1,0,,,,,,267857,,,,,,,,
99121,control_change,15,0,8,,,,,,,,,12,11,68,,,
99122,note_on,5,0,7,,,,,,,,,11,,,,71,88
99123,note_on,14,0,1,,,,,,,,,0,,,,82,0
99123,note_on,0,0,1,,,,,,,,,0,,,,83,97
99124,control_change,15,0,4,,,,,,,,,4,11,62,,,
99125,control_change,15,0,9,,,,,,,,,13,11,68,,,
99125,note_on,0,0,2,,,,,,,,,1,,,,70,0
99125,note_on,0,0,2,,,,,,,,,1,,,,83,97
99125,note_on,0,0,2,,,,,,,,,1,,,,71,97
99125,note_on,14,0,2,,,,,,,,,1,,,,82,0
99126,control_change,15,0,5,,,,,,,,,5,11,62,,,
99126,note_on,5,0,8,,,,,,,,,12,,,,68,108
99127,control_change,15,0,10,,,,,,,,,14,11,68,,,
99128,control_change,5,0,1,,,,,,,,,0,11,66,,,
99130,control_change,5,0,2,,,,,,,,,1,11,66,,,
99130,control_change,10,0,6,,,,,,,,,10,11,68,,,
99130,note_on,5,0,9,,,,,,,,,13,,,,49,99
99131,control_change,15,0,3,,,,,,,,,3,11,62,,,
99132,note_on,5,0,10,,,,,,,,,14,,,,37,93
99132,control_change,10,0,7,,,,,,,,,11,11,68,,,
99136,control_change,10,0,8,,,,,,,,,12,11,68,,,
99139,control_change,15,0,4,,,,,,,,,4,11,63,,,
99140,control_change,10,0,9,,,,,,,,,13,11,68,,,
99141,control_change,15,0,5,,,,,,,,,5,11,63,,,
99142,control_change,10,0,10,,,,,,,,,14,11,68,,,
99146,control_change,16,0,6,,,,,,,,,10,11,69,,,
99146,control_change,15,0,3,,,,,,,,,3,11,63,,,
99147,control_change,19,0,1,,,,,,,,,0,11,66,,,
99148,control_change,16,0,7,,,,,,,,,11,11,69,,,
99149,control_change,19,0,2,,,,,,,,,1,11,66,,,
99152,control_change,16,0,8,,,,,,,,,12,11,69,,,
99154,control_change,15,0,4,,,,,,,,,4,11,64,,,
99156,control_change,15,0,5,,,,,,,,,5,11,64,,,
99156,control_change,16,0,9,,,,,,,,,13,11,69,,,
99158,control_change,16,0,10,,,,,,,,,14,11,69,,,
99161,control_change,15,0,6,,,,,,,,,10,11,70,,,
99161,control_change,15,0,3,,,,,,,,,3,11,64,,,
99163,control_change,15,0,7,,,,,,,,,11,11,70,,,
99165,note_on,13,0,8,,,,,,,,,12,,,,68,0
99165,control_change,18,0,1,,,,,,,,,0,11,67,,,
99167,control_change,18,0,2,,,,,,,,,1,11,67,,,
99167,control_change,2,0,8,,,,,,,,,12,11,70,,,
99169,note_on,13,0,9,,,,,,,,,13,,,,49,0
99169,control_change,15,0,4,,,,,,,,,4,11,64,,,
99171,control_change,2,0,9,,,,,,,,,13,11,70,,,
99171,note_on,13,0,10,,,,,,,,,14,,,,37,0
99171,control_change,15,0,5,,,,,,,,,5,11,64,,,
99173,control_change,2,0,10,,,,,,,,,14,11,70,,,
99176,control_change,15,0,3,,,,,,,,,3,11,64,,,
99176,control_change,15,0,6,,,,,,,,,10,11,71,,,
99178,control_change,15,0,7,,,,,,,,,11,11,71,,,
99182,control_change,15,0,8,,,,,,,,,12,11,71,,,
99184,control_change,15,0,4,,,,,,,,,4,11,65,,,
99184,control_change,19,0,1,,,,,,,,,0,11,68,,,
99186,control_change,19,0,2,,,,,,,,,1,11,68,,,
99186,note_on,4,0,8,,,,,,,,,12,,,,68,99
99186,control_change,15,0,5,,,,,,,,,5,11,65,,,
99186,control_change,15,0,9,,,,,,,,,13,11,71,,,
99187,note_on,11,0,6,,,,,,,,,10,,,,83,0
99188,control_change,15,0,10,,,,,,,,,14,11,71,,,
99189,note_on,11,0,7,,,,,,,,,11,,,,71,0
99190,note_on,4,0,9,,,,,,,,,13,,,,49,90
99191,control_change,15,0,3,,,,,,,,,3,11,65,,,
99192,control_change,5,0,6,,,,,,,,,10,11,71,,,
99192,note_on,4,0,10,,,,,,,,,14,,,,37,84
99194,control_change,5,0,7,,,,,,,,,11,11,71,,,
99198,control_change,12,0,8,,,,,,,,,12,11,71,,,
99199,control_change,15,0,4,,,,,,,,,4,11,66,,,
99201,control_change,15,0,5,,,,,,,,,5,11,66,,,
99202,control_change,12,0,9,,,,,,,,,13,11,71,,,
99203,control_change,19,0,1,,,,,,,,,0,11,68,,,
99204,control_change,12,0,10,,,,,,,,,14,11,71,,,
99205,control_change,19,0,2,,,,,,,,,1,11,68,,,
99206,control_change,15,0,3,,,,,,,,,3,11,66,,,
99207,control_change,15,0,6,,,,,,,,,10,11,72,,,
99209,control_change,15,0,7,,,,,,,,,11,11,72,,,
99213,control_change,15,0,8,,,,,,,,,12,11,72,,,
99214,control_change,15,0,4,,,,,,,,,4,11,66,,,
99216,control_change,15,0,5,,,,,,,,,5,11,66,,,
99217,control_change,15,0,9,,,,,,,,,13,11,72,,,
99219,control_change,15,0,10,,,,,,,,,14,11,72,,,
99221,control_change,15,0,3,,,,,,,,,3,11,66,,,
99221,control_change,18,0,1,,,,,,,,,0,11,69,,,
99222,control_change,15,0,6,,,,,,,,,10,11,73,,,
99223,control_change,18,0,2,,,,,,,,,1,11,69,,,
99224,control_change,15,0,7,,,,,,,,,11,11,73,,,
99225,note_on,12,0,8,,,,,,,,,12,,,,68,0
99228,control_change,3,0,8,,,,,,,,,12,11,73,,,
99229,note_on,12,0,9,,,,,,,,,13,,,,49,0
99229,control_change,15,0,4,,,,,,,,,4,11,67,,,
99231,note_on,12,0,10,,,,,,,,,14,,,,37,0
99231,control_change,15,0,5,,,,,,,,,5,11,67,,,
99232,control_change,3,0,9,,,,,,,,,13,11,73,,,
99234,control_change,3,0,10,,,,,,,,,14,11,73,,,
99236,control_change,15,0,3,,,,,,,,,3,11,67,,,
99237,control_change,15,0,6,,,,,,,,,10,11,73,,,
99239,control_change,15,0,7,,,,,,,,,11,11,73,,,
99240,control_change,19,0,1,,,,,,,,,0,11,70,,,
99240,note_on,3,0,6,,,,,,,,,10,,,,83,110
99242,note_on,3,0,7,,,,,,,,,11,,,,71,88
99242,control_change,19,0,2,,,,,,,,,1,11,70,,,
99243,control_change,15,0,8,,,,,,,,,12,11,73,,,
99244,control_change,15,0,4,,,,,,,,,4,11,68,,,
99246,note_on,3,0,8,,,,,,,,,12,,,,68,108
99246,control_change,15,0,5,,,,,,,,,5,11,68,,,
99247,control_change,15,0,9,,,,,,,,,13,11,73,,,
99249,control_change,15,0,10,,,,,,,,,14,11,73,,,
99250,note_on,3,0,9,,,,,,,,,13,,,,49,99
99251,control_change,15,0,3,,,,,,,,,3,11,68,,,
99252,note_on,3,0,10,,,,,,,,,14,,,,37,93
99253,control_change,13,0,6,,,,,,,,,10,11,74,,,
99255,control_change,13,0,7,,,,,,,,,11,11,74,,,
99259,control_change,19,0,1,,,,,,,,,0,11,71,,,
99259,control_change,15,0,4,,,,,,,,,4,11,68,,,
99259,control_change,13,0,8,,,,,,,,,12,11,74,,,
99261,control_change,15,0,5,,,,,,,,,5,11,68,,,
99261,control_change,19,0,2,,,,,,,,,1,11,71,,,
99263,control_change,13,0,9,,,,,,,,,13,11,74,,,
99265,control_change,13,0,10,,,,,,,,,14,11,74,,,
99266,control_change,15,0,3,,,,,,,,,3,11,68,,,
99268,control_change,15,0,6,,,,,,,,,10,11,75,,,
99270,control_change,15,0,7,,,,,,,,,11,11,75,,,
99274,control_change,15,0,8,,,,,,,,,12,11,75,,,
99274,control_change,15,0,4,,,,,,,,,4,11,69,,,
99276,control_change,15,0,5,,,,,,,,,5,11,69,,,
99277,control_change,18,0,1,,,,,,,,,0,11,71,,,
99278,control_change,15,0,9,,,,,,,,,13,11,75,,,
99279,control_change,18,0,2,,,,,,,,,1,11,71,,,
99280,control_change,15,0,10,,,,,,,,,14,11,75,,,
99281,control_change,15,0,3,,,,,,,,,3,11,69,,,
99283,control_change,15,0,6,,,,,,,,,10,11,75,,,
99285,control_change,15,0,7,,,,,,,,,11,11,75,,,
99285,note_on,11,0,8,,,,,,,,,12,,,,68,0
99289,control_change,4,0,8,,,,,,,,,12,11,75,,,
99289,note_on,11,0,9,,,,,,,,,13,,,,49,0
99289,control_change,15,0,4,,,,,,,,,4,11,70,,,
99291,note_on,11,0,10,,,,,,,,,14,,,,37,0
99291,control_change,15,0,5,,,,,,,,,5,11,70,,,
99293,control_change,4,0,9,,,,,,,,,13,11,75,,,
99295,control_change,4,0,10,,,,,,,,,14,11,75,,,
99296,control_change,19,0,1,,,,,,,,,0,11,72,,,
99296,control_change,15,0,3,,,,,,,,,3,11,70,,,
99298,control_change,15,0,6,,,,,,,,,10,11,76,,,
99298,control_change,19,0,2,,,,,,,,,1,11,72,,,
99300,control_change,15,0,7,,,,,,,,,11,11,76,,,
99304,control_change,15,0,4,,,,,,,,,4,11,71,,,
99304,control_change,15,0,8,,,,,,,,,12,11,76,,,
99306,note_on,2,0,8,,,,,,,,,12,,,,68,99
99306,control_change,15,0,5,,,,,,,,,5,11,71,,,
99307,note_on,9,0,6,,,,,,,,,10,,,,83,0
99308,control_change,15,0,9,,,,,,,,,13,11,76,,,
99309,note_on,9,0,7,,,,,,,,,11,,,,71,0
99310,control_change,15,0,10,,,,,,,,,14,11,76,,,
99310,note_on,2,0,9,,,,,,,,,13,,,,49,90
99311,control_change,15,0,3,,,,,,,,,3,11,71,,,
99312,note_on,2,0,10,,,,,,,,,14,,,,37,84
99314,control_change,7,0,6,,,,,,,,,10,11,77,,,
99315,control_change,19,0,1,,,,,,,,,0,11,73,,,
99316,control_change,7,0,7,,,,,,,,,11,11,77,,,
99317,control_change,19,0,2,,,,,,,,,1,11,73,,,
99319,control_change,15,0,4,,,,,,,,,4,11,71,,,
99320,control_change,14,0,8,,,,,,,,,12,11,77,,,
99321,control_change,15,0,5,,,,,,,,,5,11,71,,,
99324,control_change,14,0,9,,,,,,,,,13,11,77,,,
99326,control_change,15,0,3,,,,,,,,,3,11,71,,,
99326,control_change,14,0,10,,,,,,,,,14,11,77,,,
99329,control_change,15,0,6,,,,,,,,,10,11,77,,,
99331,control_change,15,0,7,,,,,,,,,11,11,77,,,
99333,control_change,18,0,1,,,,,,,,,0,11,73,,,
99334,control_change,15,0,4,,,,,,,,,4,11,72,,,
99335,control_change,18,0,2,,,,,,,,,1,11,73,,,
99335,control_change,15,0,8,,,,,,,,,12,11,77,,,
99336,control_change,15,0,5,,,,,,,,,5,11,72,,,
99339,control_change,15,0,9,,,,,,,,,13,11,77,,,
99341,control_change,15,0,3,,,,,,,,,3,11,72,,,
99341,control_change,15,0,10,,,,,,,,,14,11,77,,,
99344,control_change,15,0,6,,,,,,,,,10,11,78,,,
99345,note_on,10,0,8,,,,,,,,,12,,,,68,0
99346,control_change,15,0,7,,,,,,,,,11,11,78,,,
99349,note_on,10,0,9,,,,,,,,,13,,,,49,0
99349,control_change,15,0,4,,,,,,,,,4,11,73,,,
99350,control_change,5,0,8,,,,,,,,,12,11,78,,,
99351,control_change,15,0,5,,,,,,,,,5,11,73,,,
99351,note_on,10,0,10,,,,,,,,,14,,,,37,0
99352,control_change,19,0,1,,,,,,,,,0,11,74,,,
99354,control_change,19,0,2,,,,,,,,,1,11,74,,,
99354,control_change,5,0,9,,,,,,,,,13,11,78,,,
99356,control_change,5,0,10,,,,,,,,,14,11,78,,,
99356,control_change,15,0,3,,,,,,,,,3,11,73,,,
99360,note_on,0,0,6,,,,,,,,,10,,,,84,110
99360,set_tempo,240,1,0,,,,,,277136,,,,,,,,
99360,control_change,16,0,6,,,,,,,,,10,11,79,,,
99362,control_change,16,0,7,,,,,,,,,11,11,79,,,
99362,note_on,0,0,7,,,,,,,,,11,,,,72,88
99363,note_on,11,0,1,,,,,,,,,0,,,,83,0
99363,note_on,0,0,1,,,,,,,,,0,,,,84,97
99364,control_change,15,0,4,,,,,,,,,4,11,73,,,
99365,note_on,0,0,2,,,,,,,,,1,,,,72,97
99365,note_on,0,0,2,,,,,,,,,1,,,,71,0
99365,note_on,0,0,2,,,,,,,,,1,,,,81,97
99365,note_on,11,0,2,,,,,,,,,1,,,,83,0
99366,control_change,15,0,5,,,,,,,,,5,11,73,,,
99366,note_on,0,0,8,,,,,,,,,12,,,,69,108
99366,control_change,16,0,8,,,,,,,,,12,11,79,,,
99368,control_change,8,0,6,,,,,,,,,10,11,75,,,
99370,control_change,8,0,7,,,,,,,,,11,11,75,,,
99370,control_change,16,0,9,,,,,,,,,13,11,79,,,
99370,note_on,0,0,9,,,,,,,,,13,,,,48,99
99371,note_on,15,0,3,,,,,,,,,3,,,,49,0
99371,control_change,8,0,1,,,,,,,,,0,11,75,,,
99371,note_on,0,0,3,,,,,,,,,3,,,,48,97
99371,control_change,0,0,3,,,,,,,,,3,11,73,,,
99372,control_change,16,0,10,,,,,,,,,14,11,79,,,
99372,note_on,0,0,10,,,,,,,,,14,,,,36,93
99373,control_change,8,0,2,,,,,,,,,1,11,75,,,
99374,control_change,8,0,8,,,,,,,,,12,11,75,,,
99378,control_change,8,0,9,,,,,,,,,13,11,75,,,
99379,control_change,15,0,4,,,,,,,,,4,11,74,,,
99380,control_change,8,0,10,,,,,,,,,14,11,75,,,
99381,control_change,15,0,5,,,,,,,,,5,11,74,,,
99386,control_change,18,0,6,,,,,,,,,10,11,75,,,
99386,control_change,15,0,3,,,,,,,,,3,11,74,,,
99388,control_change,18,0,7,,,,,,,,,11,11,75,,,
99389,control_change,18,0,1,,,,,,,,,0,11,75,,,
99391,control_change,18,0,2,,,,,,,,,1,11,75,,,
99392,control_change,18,0,8,,,,,,,,,12,11,75,,,
99394,control_change,15,0,4,,,,,,,,,4,11,75,,,
99396,control_change,15,0,5,,,,,,,,,5,11,75,,,
99396,control_change,18,0,9,,,,,,,,,13,11,75,,,
99398,control_change,18,0,10,,,,,,,,,14,11,75,,,
99401,control_change,15,0,3,,,,,,,,,3,11,75,,,
99405,control_change,19,0,6,,,,,,,,,10,11,76,,,
99407,control_change,19,0,7,,,,,,,,,11,11,76,,,
99408,control_change,19,0,1,,,,,,,,,0,11,76,,,
99409,control_change,15,0,4,,,,,,,,,4,11,75,,,
99410,control_change,19,0,2,,,,,,,,,1,11,76,,,
99411,control_change,15,0,5,,,,,,,,,5,11,75,,,
99411,control_change,19,0,8,,,,,,,,,12,11,76,,,
99415,control_change,19,0,9,,,,,,,,,13,11,76,,,
99416,control_change,15,0,3,,,,,,,,,3,11,75,,,
99417,control_change,19,0,10,,,,,,,,,14,11,76,,,
99424,control_change,15,0,4,,,,,,,,,4,11,76,,,
99424,control_change,19,0,6,,,,,,,,,10,11,77,,,
99426,control_change,15,0,5,,,,,,,,,5,11,76,,,
99426,control_change,19,0,7,,,,,,,,,11,11,77,,,
99427,control_change,19,0,1,,,,,,,,,0,11,77,,,
99427,note_on,3,0,6,,,,,,,,,10,,,,84,0
99429,note_on,3,0,7,,,,,,,,,11,,,,72,0
99429,control_change,19,0,2,,,,,,,,,1,11,77,,,
99430,control_change,19,0,8,,,,,,,,,12,11,77,,,
99431,control_change,15,0,3,,,,,,,,,3,11,76,,,
99434,control_change,19,0,9,,,,,,,,,13,11,77,,,
99436,control_change,19,0,10,,,,,,,,,14,11,77,,,
99439,control_change,15,0,4,,,,,,,,,4,11,77,,,
99441,control_change,15,0,5,,,,,,,,,5,11,77,,,
99442,control_change,15,0,6,,,,,,,,,10,11,77,,,
99444,control_change,15,0,7,,,,,,,,,11,11,77,,,
99445,control_change,18,0,1,,,,,,,,,0,11,77,,,
99446,control_change,15,0,3,,,,,,,,,3,11,77,,,
99447,control_change,18,0,2,,,,,,,,,1,11,77,,,
99448,control_change,18,0,8,,,,,,,,,12,11,77,,,
99452,control_change,18,0,9,,,,,,,,,13,11,77,,,
99454,control_change,18,0,10,,,,,,,,,14,11,77,,,
99454,control_change,15,0,4,,,,,,,,,4,11,77,,,
99456,control_change,15,0,5,,,,,,,,,5,11,77,,,
99461,control_change,19,0,6,,,,,,,,,10,11,78,,,
99461,control_change,15,0,3,,,,,,,,,3,11,77,,,
99463,control_change,19,0,7,,,,,,,,,11,11,78,,,
99464,control_change,19,0,1,,,,,,,,,0,11,78,,,
99466,control_change,19,0,2,,,,,,,,,1,11,78,,,
99467,control_change,19,0,8,,,,,,,,,12,11,78,,,
99469,control_change,15,0,4,,,,,,,,,4,11,78,,,
99471,control_change,19,0,9,,,,,,,,,13,11,78,,,
99471,control_change,15,0,5,,,,,,,,,5,11,78,,,
99473,control_change,19,0,10,,,,,,,,,14,11,78,,,
99476,control_change,15,0,3,,,,,,,,,3,11,78,,,
99478,note_on,14,0,1,,,,,,,,,0,,,,84,0
99480,note_on,14,0,2,,,,,,,,,1,,,,81,0
99480,control_change,19,0,6,,,,,,,,,10,11,79,,,
99480,note_on,0,0,6,,,,,,,,,10,,,,89,125
99480,note_on,0,0,2,,,,,,,,,1,,,,72,0
99481,note_on,14,0,8,,,,,,,,,12,,,,69,0
99482,note_on,0,0,7,,,,,,,,,11,,,,77,100
99482,control_change,19,0,7,,,,,,,,,11,11,79,,,
99482,note_on,0,0,7,,,,,,,,,11,,,,69,100
99483,control_change,5,0,1,,,,,,,,,0,11,79,,,
99483,note_on,0,0,1,,,,,,,,,0,,,,89,110
99484,note_on,0,0,4,,,,,,,,,4,,,,60,109
99484,note_on,15,0,4,,,,,,,,,4,,,,65,0
99484,control_change,0,0,4,,,,,,,,,4,11,79,,,
99485,note_on,0,0,2,,,,,,,,,1,,,,81,110
99485,note_on,14,0,9,,,,,,,,,13,,,,48,0
99485,control_change,5,0,2,,,,,,,,,1,11,79,,,
99485,note_on,0,0,2,,,,,,,,,1,,,,77,110
99486,note_on,0,0,8,,,,,,,,,12,,,,69,123
99486,note_on,0,0,8,,,,,,,,,12,,,,65,123
99486,note_on,10,0,3,,,,,,,,,3,,,,48,0
99486,note_on,15,0,5,,,,,,,,,5,,,,53,0
99486,control_change,0,0,5,,,,,,,,,5,11,79,,,
99486,note_on,0,0,5,,,,,,,,,5,,,,60,109
99486,control_change,5,0,8,,,,,,,,,12,11,79,,,
99487,note_on,14,0,10,,,,,,,,,14,,,,36,0
99490,note_on,0,0,9,,,,,,,,,13,,,,60,114
99490,control_change,5,0,9,,,,,,,,,13,11,79,,,
99491,note_on,0,0,3,,,,,,,,,3,,,,60,110
99491,note_on,0,0,3,,,,,,,,,3,,,,48,110
99491,control_change,5,0,3,,,,,,,,,3,11,79,,,
99492,note_on,0,0,10,,,,,,,,,14,,,,48,108
99492,control_change,5,0,10,,,,,,,,,14,11,79,,,
99540,control_change,60,0,6,,,,,,,,,10,11,79,,,
99542,control_change,60,0,7,,,,,,,,,11,11,79,,,
99543,control_change,60,0,1,,,,,,,,,0,11,79,,,
99544,control_change,60,0,4,,,,,,,,,4,11,79,,,
99545,control_change,60,0,2,,,,,,,,,1,11,79,,,
99546,control_change,60,0,8,,,,,,,,,12,11,79,,,
99546,control_change,60,0,5,,,,,,,,,5,11,79,,,
99550,control_change,60,0,9,,,,,,,,,13,11,79,,,
99551,control_change,60,0,3,,,,,,,,,3,11,79,,,
99552,control_change,60,0,10,,,,,,,,,14,11,79,,,
99562,control_change,22,0,6,,,,,,,,,10,11,77,,,
99564,control_change,22,0,7,,,,,,,,,11,11,77,,,
99565,control_change,22,0,1,,,,,,,,,0,11,77,,,
99566,control_change,22,0,4,,,,,,,,,4,11,77,,,
99567,control_change,22,0,2,,,,,,,,,1,11,77,,,
99568,control_change,22,0,8,,,,,,,,,12,11,77,,,
99568,control_change,22,0,5,,,,,,,,,5,11,77,,,
99572,control_change,22,0,9,,,,,,,,,13,11,77,,,
99573,control_change,22,0,3,,,,,,,,,3,11,77,,,
99574,control_change,22,0,10,,,,,,,,,14,11,77,,,
99577,control_change,15,0,6,,,,,,,,,10,11,75,,,
99579,control_change,15,0,7,,,,,,,,,11,11,75,,,
99580,control_change,15,0,1,,,,,,,,,0,11,75,,,
99581,control_change,15,0,4,,,,,,,,,4,11,75,,,
99582,control_change,15,0,2,,,,,,,,,1,11,75,,,
99583,control_change,15,0,5,,,,,,,,,5,11,75,,,
99583,control_change,15,0,8,,,,,,,,,12,11,75,,,
99587,control_change,15,0,9,,,,,,,,,13,11,75,,,
99588,control_change,15,0,3,,,,,,,,,3,11,75,,,
99589,control_change,15,0,10,,,,,,,,,14,11,75,,,
99592,control_change,15,0,6,,,,,,,,,10,11,74,,,
99594,control_change,15,0,7,,,,,,,,,11,11,74,,,
99595,control_change,15,0,1,,,,,,,,,0,11,74,,,
99596,control_change,15,0,4,,,,,,,,,4,11,74,,,
99597,control_change,15,0,2,,,,,,,,,1,11,74,,,
99598,control_change,15,0,5,,,,,,,,,5,11,74,,,
99598,control_change,15,0,8,,,,,,,,,12,11,74,,,
99600,set_tempo,240,1,0,,,,,,265487,,,,,,,,
99602,control_change,15,0,9,,,,,,,,,13,11,74,,,
99603,control_change,15,0,3,,,,,,,,,3,11,74,,,
99604,control_change,15,0,10,,,,,,,,,14,11,74,,,
99607,control_change,15,0,6,,,,,,,,,10,11,73,,,
99609,control_change,15,0,7,,,,,,,,,11,11,73,,,
99610,control_change,15,0,1,,,,,,,,,0,11,73,,,
99611,control_change,15,0,4,,,,,,,,,4,11,73,,,
99612,control_change,15,0,2,,,,,,,,,1,11,73,,,
99613,control_change,15,0,5,,,,,,,,,5,11,73,,,
99613,control_change,15,0,8,,,,,,,,,12,11,73,,,
99617,control_change,15,0,9,,,,,,,,,13,11,73,,,
99618,control_change,15,0,3,,,,,,,,,3,11,73,,,
99619,control_change,15,0,10,,,,,,,,,14,11,73,,,
99629,control_change,22,0,6,,,,,,,,,10,11,71,,,
99631,control_change,22,0,7,,,,,,,,,11,11,71,,,
99632,control_change,22,0,1,,,,,,,,,0,11,71,,,
99633,control_change,22,0,4,,,,,,,,,4,11,71,,,
99634,control_change,22,0,2,,,,,,,,,1,11,71,,,
99635,control_change,22,0,8,,,,,,,,,12,11,71,,,
99635,control_change,22,0,5,,,,,,,,,5,11,71,,,
99639,control_change,22,0,9,,,,,,,,,13,11,71,,,
99640,control_change,22,0,3,,,,,,,,,3,11,71,,,
99641,control_change,22,0,10,,,,,,,,,14,11,71,,,
99644,control_change,15,0,6,,,,,,,,,10,11,69,,,
99646,control_change,15,0,7,,,,,,,,,11,11,69,,,
99647,control_change,15,0,1,,,,,,,,,0,11,69,,,
99648,control_change,15,0,4,,,,,,,,,4,11,69,,,
99649,control_change,15,0,2,,,,,,,,,1,11,69,,,
99650,control_change,15,0,5,,,,,,,,,5,11,69,,,
99650,control_change,15,0,8,,,,,,,,,12,11,69,,,
99654,control_change,15,0,9,,,,,,,,,13,11,69,,,
99655,control_change,15,0,3,,,,,,,,,3,11,69,,,
99656,control_change,15,0,10,,,,,,,,,14,11,69,,,
99659,control_change,15,0,6,,,,,,,,,10,11,68,,,
99661,control_change,15,0,7,,,,,,,,,11,11,68,,,
99662,control_change,15,0,1,,,,,,,,,0,11,68,,,
99663,control_change,15,0,4,,,,,,,,,4,11,68,,,
99664,control_change,15,0,2,,,,,,,,,1,11,68,,,
99665,control_change,15,0,5,,,,,,,,,5,11,68,,,
99665,control_change,15,0,8,,,,,,,,,12,11,68,,,
99669,control_change,15,0,9,,,,,,,,,13,11,68,,,
99670,control_change,15,0,3,,,,,,,,,3,11,68,,,
99671,control_change,15,0,10,,,,,,,,,14,11,68,,,
99674,control_change,15,0,6,,,,,,,,,10,11,66,,,
99676,control_change,15,0,7,,,,,,,,,11,11,66,,,
99677,control_change,15,0,1,,,,,,,,,0,11,66,,,
99678,control_change,15,0,4,,,,,,,,,4,11,66,,,
99679,control_change,15,0,2,,,,,,,,,1,11,66,,,
99680,control_change,15,0,8,,,,,,,,,12,11,66,,,
99680,control_change,15,0,5,,,,,,,,,5,11,66,,,
99684,control_change,15,0,9,,,,,,,,,13,11,66,,,
99685,control_change,15,0,3,,,,,,,,,3,11,66,,,
99686,control_change,15,0,10,,,,,,,,,14,11,66,,,
99689,control_change,15,0,6,,,,,,,,,10,11,65,,,
99691,control_change,15,0,7,,,,,,,,,11,11,65,,,
99692,control_change,15,0,1,,,,,,,,,0,11,65,,,
99693,control_change,15,0,4,,,,,,,,,4,11,65,,,
99694,control_change,15,0,2,,,,,,,,,1,11,65,,,
99695,control_change,15,0,8,,,,,,,,,12,11,65,,,
99695,control_change,15,0,5,,,,,,,,,5,11,65,,,
99699,control_change,15,0,9,,,,,,,,,13,11,65,,,
99700,control_change,15,0,3,,,,,,,,,3,11,65,,,
99701,control_change,15,0,10,,,,,,,,,14,11,65,,,
99703,control_change,14,0,6,,,,,,,,,10,11,69,,,
99705,control_change,14,0,7,,,,,,,,,11,11,69,,,
99706,control_change,14,0,1,,,,,,,,,0,11,69,,,
99707,control_change,14,0,4,,,,,,,,,4,11,69,,,
99708,control_change,14,0,2,,,,,,,,,1,11,69,,,
99709,control_change,14,0,8,,,,,,,,,12,11,69,,,
99709,control_change,14,0,5,,,,,,,,,5,11,69,,,
99713,control_change,14,0,9,,,,,,,,,13,11,69,,,
99714,control_change,14,0,3,,,,,,,,,3,11,69,,,
99715,note_on,12,0,6,,,,,,,,,10,,,,89,0
99715,control_change,14,0,10,,,,,,,,,14,11,69,,,
99716,control_change,1,0,6,,,,,,,,,10,11,73,,,
99717,note_on,12,0,7,,,,,,,,,11,,,,77,0
99717,note_on,0,0,7,,,,,,,,,11,,,,69,0
99718,note_on,12,0,1,,,,,,,,,0,,,,89,0
99718,control_change,1,0,7,,,,,,,,,11,11,73,,,
99719,note_on,12,0,4,,,,,,,,,4,,,,60,0
99719,control_change,1,0,1,,,,,,,,,0,11,73,,,
99720,control_change,1,0,4,,,,,,,,,4,11,73,,,
99720,note_on,0,0,2,,,,,,,,,1,,,,81,0
99720,note_on,12,0,2,,,,,,,,,1,,,,77,0
99720,note_on,4,0,6,,,,,,,,,10,,,,84,110
99721,note_on,12,0,8,,,,,,,,,12,,,,65,0
99721,note_on,0,0,8,,,,,,,,,12,,,,69,0
99721,control_change,1,0,2,,,,,,,,,1,11,73,,,
99721,note_on,12,0,5,,,,,,,,,5,,,,60,0
99722,control_change,1,0,8,,,,,,,,,12,11,73,,,
99722,control_change,1,0,5,,,,,,,,,5,11,73,,,
99722,note_on,4,0,7,,,,,,,,,11,,,,72,88
99723,note_on,4,0,1,,,,,,,,,0,,,,84,110
99724,note_on,4,0,4,,,,,,,,,4,,,,60,96
99725,note_on,4,0,2,,,,,,,,,1,,,,81,97
99725,note_on,12,0,9,,,,,,,,,13,,,,60,0
99725,note_on,0,0,2,,,,,,,,,1,,,,77,97
99726,note_on,4,0,5,,,,,,,,,5,,,,60,96
99726,control_change,1,0,9,,,,,,,,,13,11,73,,,
99726,note_on,12,0,3,,,,,,,,,3,,,,60,0
99726,note_on,0,0,3,,,,,,,,,3,,,,48,0
99726,note_on,4,0,8,,,,,,,,,12,,,,60,108
99727,note_on,12,0,10,,,,,,,,,14,,,,48,0
99727,control_change,1,0,3,,,,,,,,,3,11,73,,,
99728,control_change,1,0,10,,,,,,,,,14,11,73,,,
99729,control_change,9,0,6,,,,,,,,,10,11,77,,,
99730,note_on,4,0,9,,,,,,,,,13,,,,57,99
99731,note_on,0,0,3,,,,,,,,,3,,,,45,97
99731,control_change,9,0,7,,,,,,,,,11,11,77,,,
99731,note_on,4,0,3,,,,,,,,,3,,,,57,97
99732,note_on,4,0,10,,,,,,,,,14,,,,45,93
99732,control_change,9,0,1,,,,,,,,,0,11,77,,,
99733,control_change,9,0,4,,,,,,,,,4,11,77,,,
99734,control_change,9,0,2,,,,,,,,,1,11,77,,,
99735,control_change,9,0,5,,,,,,,,,5,11,77,,,
99735,control_change,9,0,8,,,,,,,,,12,11,77,,,
99739,control_change,9,0,9,,,,,,,,,13,11,77,,,
99740,control_change,9,0,3,,,,,,,,,3,11,77,,,
99741,control_change,9,0,10,,,,,,,,,14,11,77,,,
99780,note_on,0,0,6,,,,,,,,,10,,,,81,110
99780,note_on,51,0,6,,,,,,,,,10,,,,84,0
99782,note_on,0,0,7,,,,,,,,,11,,,,69,88
99782,note_on,51,0,7,,,,,,,,,11,,,,72,0
99783,note_on,0,0,1,,,,,,,,,0,,,,81,110
99783,note_on,51,0,1,,,,,,,,,0,,,,84,0
99819,note_on,39,0,6,,,,,,,,,10,,,,81,0
99821,note_on,39,0,7,,,,,,,,,11,,,,69,0
99834,note_on,101,0,4,,,,,,,,,4,,,,60,0
99835,note_on,0,0,2,,,,,,,,,1,,,,81,0
99835,note_on,101,0,2,,,,,,,,,1,,,,77,0
99836,note_on,101,0,5,,,,,,,,,5,,,,60,0
99838,note_on,55,0,1,,,,,,,,,0,,,,81,0
99840,note_on,21,0,6,,,,,,,,,10,,,,79,110
99840,set_tempo,240,1,0,,,,,,274600,,,,,,,,
99841,note_on,0,0,3,,,,,,,,,3,,,,57,0
99841,note_on,101,0,3,,,,,,,,,3,,,,45,0
99841,note_on,106,0,8,,,,,,,,,12,,,,60,0
99842,note_on,21,0,7,,,,,,,,,11,,,,67,88
99843,note_on,5,0,1,,,,,,,,,0,,,,79,97
99844,note_on,10,0,4,,,,,,,,,4,,,,62,96
99845,note_on,106,0,9,,,,,,,,,13,,,,57,0
99845,note_on,0,0,2,,,,,,,,,1,,,,77,97
99845,note_on,10,0,2,,,,,,,,,1,,,,79,97
99846,note_on,10,0,5,,,,,,,,,5,,,,58,96
99846,note_on,5,0,8,,,,,,,,,12,,,,62,108
99847,note_on,106,0,10,,,,,,,,,14,,,,45,0
99850,note_on,5,0,9,,,,,,,,,13,,,,58,99
99851,note_on,0,0,3,,,,,,,,,3,,,,58,97
99851,note_on,10,0,3,,,,,,,,,3,,,,46,97
99852,note_on,5,0,10,,,,,,,,,14,,,,46,93
99900,note_on,60,0,6,,,,,,,,,10,,,,79,0
99900,note_on,0,0,6,,,,,,,,,10,,,,81,110
99902,note_on,0,0,7,,,,,,,,,11,,,,69,88
99902,note_on,60,0,7,,,,,,,,,11,,,,67,0
99939,note_on,39,0,6,,,,,,,,,10,,,,81,0
99941,note_on,39,0,7,,,,,,,,,11,,,,69,0
99953,note_on,110,0,1,,,,,,,,,0,,,,79,0
99954,note_on,110,0,4,,,,,,,,,4,,,,62,0
99955,note_on,110,0,2,,,,,,,,,1,,,,77,0
99955,note_on,0,0,2,,,,,,,,,1,,,,79,0
99956,note_on,110,0,5,,,,,,,,,5,,,,58,0
99960,note_on,21,0,6,,,,,,,,,10,,,,82,110
99961,note_on,110,0,3,,,,,,,,,3,,,,58,0
99961,note_on,0,0,3,,,,,,,,,3,,,,46,0
99961,note_on,115,0,8,,,,,,,,,12,,,,62,0
99962,note_on,21,0,7,,,,,,,,,11,,,,70,88
99963,note_on,10,0,1,,,,,,,,,0,,,,79,97
99964,note_on,10,0,4,,,,,,,,,4,,,,62,96
99965,note_on,10,0,2,,,,,,,,,1,,,,77,97
99965,note_on,115,0,9,,,,,,,,,13,,,,58,0
99965,note_on,0,0,2,,,,,,,,,1,,,,79,97
99966,note_on,5,0,8,,,,,,,,,12,,,,62,108
99966,note_on,10,0,5,,,,,,,,,5,,,,58,96
99967,note_on,115,0,10,,,,,,,,,14,,,,46,0
99970,note_on,5,0,9,,,,,,,,,13,,,,58,99
99971,note_on,10,0,3,,,,,,,,,3,,,,58,97
99971,note_on,0,0,3,,,,,,,,,3,,,,46,97
99972,note_on,5,0,10,,,,,,,,,14,,,,46,93
99995,note_on,35,0,6,,,,,,,,,10,,,,82,0
99997,note_on,35,0,7,,,,,,,,,11,,,,70,0
100020,note_on,25,0,6,,,,,,,,,10,,,,86,110
100022,note_on,25,0,7,,,,,,,,,11,,,,74,88
100055,note_on,35,0,6,,,,,,,,,10,,,,86,0
100057,note_on,35,0,7,,,,,,,,,11,,,,74,0
100073,note_on,110,0,1,,,,,,,,,0,,,,79,0
100074,note_on,110,0,4,,,,,,,,,4,,,,62,0
100075,note_on,0,0,2,,,,,,,,,1,,,,77,0
100075,note_on,110,0,2,,,,,,,,,1,,,,79,0
100076,note_on,110,0,5,,,,,,,,,5,,,,58,0
100080,note_on,25,0,6,,,,,,,,,10,,,,84,110
100080,set_tempo,240,1,0,,,,,,264901,,,,,,,,
100081,note_on,0,0,3,,,,,,,,,3,,,,58,0
100081,note_on,110,0,3,,,,,,,,,3,,,,46,0
100081,note_on,115,0,8,,,,,,,,,12,,,,62,0
100082,note_on,25,0,7,,,,,,,,,11,,,,72,88
100083,note_on,10,0,1,,,,,,,,,0,,,,84,97
100084,note_on,10,0,4,,,,,,,,,4,,,,60,96
100085,note_on,115,0,9,,,,,,,,,13,,,,58,0
100085,note_on,0,0,2,,,,,,,,,1,,,,76,97
100085,note_on,10,0,2,,,,,,,,,1,,,,84,97
100086,note_on,10,0,5,,,,,,,,,5,,,,60,96
100086,note_on,5,0,8,,,,,,,,,12,,,,64,108
100087,note_on,115,0,10,,,,,,,,,14,,,,46,0
100090,note_on,5,0,9,,,,,,,,,13,,,,60,99
100091,note_on,10,0,3,,,,,,,,,3,,,,48,97
100091,note_on,0,0,3,,,,,,,,,3,,,,60,97
100092,note_on,5,0,10,,,,,,,,,14,,,,48,93
100140,note_on,60,0,6,,,,,,,,,10,,,,84,0
100140,note_on,0,0,6,,,,,,,,,10,,,,82,110
100142,note_on,0,0,7,,,,,,,,,11,,,,70,88
100142,note_on,60,0,7,,,,,,,,,11,,,,72,0
100179,note_on,39,0,6,,,,,,,,,10,,,,82,0
100181,note_on,39,0,7,,,,,,,,,11,,,,70,0
100193,note_on,110,0,1,,,,,,,,,0,,,,84,0
100194,note_on,110,0,4,,,,,,,,,4,,,,60,0
100195,note_on,110,0,2,,,,,,,,,1,,,,76,0
100195,note_on,0,0,2,,,,,,,,,1,,,,84,0
100196,note_on,110,0,5,,,,,,,,,5,,,,60,0
100200,note_on,21,0,6,,,,,,,,,10,,,,81,110
100201,note_on,115,0,8,,,,,,,,,12,,,,64,0
100201,note_on,110,0,3,,,,,,,,,3,,,,60,0
100201,note_on,0,0,3,,,,,,,,,3,,,,48,0
100202,note_on,21,0,7,,,,,,,,,11,,,,69,88
100203,note_on,10,0,1,,,,,,,,,0,,,,84,97
100204,note_on,10,0,4,,,,,,,,,4,,,,60,96
100205,note_on,0,0,2,,,,,,,,,1,,,,84,97
100205,note_on,10,0,2,,,,,,,,,1,,,,76,97
100205,note_on,115,0,9,,,,,,,,,13,,,,60,0
100206,note_on,10,0,5,,,,,,,,,5,,,,60,96
100206,note_on,5,0,8,,,,,,,,,12,,,,64,108
100207,note_on,115,0,10,,,,,,,,,14,,,,48,0
100210,note_on,5,0,9,,,,,,,,,13,,,,60,99
100211,note_on,10,0,3,,,,,,,,,3,,,,60,97
100211,note_on,0,0,3,,,,,,,,,3,,,,48,97
100212,note_on,5,0,10,,,,,,,,,14,,,,48,93
100235,note_on,35,0,6,,,,,,,,,10,,,,81,0
100237,note_on,35,0,7,,,,,,,,,11,,,,69,0
100260,set_tempo,180,1,0,,,,,,330579,,,,,,,,
100260,note_on,25,0,6,,,,,,,,,10,,,,79,110
100262,note_on,25,0,7,,,,,,,,,11,,,,67,88
100295,note_on,35,0,6,,,,,,,,,10,,,,79,0
100297,note_on,35,0,7,,,,,,,,,11,,,,67,0
100313,note_on,110,0,1,,,,,,,,,0,,,,84,0
100314,note_on,110,0,4,,,,,,,,,4,,,,60,0
100315,note_on,0,0,2,,,,,,,,,1,,,,76,0
100315,note_on,110,0,2,,,,,,,,,1,,,,84,0
100316,note_on,110,0,5,,,,,,,,,5,,,,60,0
100320,control_change,25,0,6,,,,,,,,,10,11,79,,,
100320,note_on,0,0,6,,,,,,,,,10,,,,77,110
100320,set_tempo,60,1,0,,,,,,272727,,,,,,,,
100321,note_on,110,0,3,,,,,,,,,3,,,,48,0
100321,note_on,115,0,8,,,,,,,,,12,,,,64,0
100321,note_on,0,0,3,,,,,,,,,3,,,,60,0
100322,control_change,25,0,7,,,,,,,,,11,11,79,,,
100322,note_on,0,0,7,,,,,,,,,11,,,,69,110
100323,note_on,0,0,1,,,,,,,,,0,,,,89,97
100323,control_change,10,0,1,,,,,,,,,0,11,89,,,
100324,control_change,10,0,4,,,,,,,,,4,11,89,,,
100324,note_on,0,0,4,,,,,,,,,4,,,,65,96
100325,control_change,10,0,2,,,,,,,,,1,11,89,,,
100325,note_on,0,0,2,,,,,,,,,1,,,,69,97
100325,note_on,115,0,9,,,,,,,,,13,,,,60,0
100325,note_on,0,0,2,,,,,,,,,1,,,,81,97
100326,note_on,0,0,8,,,,,,,,,12,,,,65,108
100326,control_change,10,0,5,,,,,,,,,5,11,89,,,
100326,control_change,5,0,8,,,,,,,,,12,11,79,,,
100326,note_on,0,0,5,,,,,,,,,5,,,,53,96
100327,note_on,115,0,10,,,,,,,,,14,,,,48,0
100330,control_change,5,0,9,,,,,,,,,13,11,79,,,
100330,note_on,0,0,9,,,,,,,,,13,,,,53,99
100331,note_on,0,0,3,,,,,,,,,3,,,,53,97
100331,control_change,10,0,3,,,,,,,,,3,11,89,,,
100332,control_change,5,0,10,,,,,,,,,14,11,79,,,
100332,note_on,0,0,10,,,,,,,,,14,,,,41,93
100344,control_change,24,0,6,,,,,,,,,10,11,83,,,
100346,control_change,24,0,7,,,,,,,,,11,11,83,,,
100350,control_change,24,0,8,,,,,,,,,12,11,83,,,
100354,control_change,24,0,9,,,,,,,,,13,11,83,,,
100356,control_change,24,0,10,,,,,,,,,14,11,83,,,
100359,note_on,15,0,6,,,,,,,,,10,,,,77,0
100361,note_on,15,0,7,,,,,,,,,11,,,,69,0
100365,note_on,15,0,8,,,,,,,,,12,,,,65,0
100368,control_change,9,0,6,,,,,,,,,10,11,87,,,
100370,control_change,9,0,7,,,,,,,,,11,11,87,,,
100374,control_change,9,0,8,,,,,,,,,12,11,87,,,
100378,control_change,24,0,9,,,,,,,,,13,11,87,,,
100380,note_on,12,0,6,,,,,,,,,10,,,,77,101
100380,control_change,24,0,10,,,,,,,,,14,11,87,,,
100382,note_on,12,0,7,,,,,,,,,11,,,,69,101
100386,note_on,12,0,8,,,,,,,,,12,,,,53,99
100419,note_on,39,0,6,,,,,,,,,10,,,,77,0
100421,note_on,39,0,7,,,,,,,,,11,,,,69,0
100425,note_on,39,0,8,,,,,,,,,12,,,,53,0
100440,note_on,21,0,6,,,,,,,,,10,,,,77,110
100442,note_on,21,0,7,,,,,,,,,11,,,,69,110
100446,note_on,21,0,8,,,,,,,,,12,,,,53,108
100479,note_on,39,0,6,,,,,,,,,10,,,,77,0
100481,note_on,39,0,7,,,,,,,,,11,,,,69,0
100485,note_on,39,0,8,,,,,,,,,12,,,,53,0
100500,note_on,21,0,6,,,,,,,,,10,,,,77,101
100502,note_on,21,0,7,,,,,,,,,11,,,,69,101
100506,note_on,21,0,8,,,,,,,,,12,,,,53,99
100539,note_on,39,0,6,,,,,,,,,10,,,,77,0
100541,note_on,39,0,7,,,,,,,,,11,,,,69,0
100545,note_on,39,0,8,,,,,,,,,12,,,,53,0
100554,note_on,230,0,4,,,,,,,,,4,,,,65,0
100556,note_on,230,0,5,,,,,,,,,5,,,,53,0
100558,note_on,235,0,1,,,,,,,,,0,,,,89,0
100560,set_tempo,240,1,0,,,,,,261438,,,,,,,,
100560,note_on,0,0,2,,,,,,,,,1,,,,81,0
100560,note_on,235,0,2,,,,,,,,,1,,,,69,0
100560,note_on,21,0,6,,,,,,,,,10,,,,77,110
100561,note_on,230,0,3,,,,,,,,,3,,,,53,0
100562,note_on,21,0,7,,,,,,,,,11,,,,70,110
100563,note_on,5,0,1,,,,,,,,,0,,,,89,97
100564,note_on,10,0,4,,,,,,,,,4,,,,65,96
100565,note_on,187,0,9,,,,,,,,,13,,,,53,0
100565,note_on,0,0,2,,,,,,,,,1,,,,70,97
100565,note_on,5,0,2,,,,,,,,,1,,,,82,97
100566,note_on,10,0,5,,,,,,,,,5,,,,53,96
100566,note_on,21,0,8,,,,,,,,,12,,,,55,108
100567,note_on,187,0,10,,,,,,,,,14,,,,41,0
100570,note_on,5,0,9,,,,,,,,,13,,,,55,99
100571,note_on,10,0,3,,,,,,,,,3,,,,55,97
100572,note_on,5,0,10,,,,,,,,,14,,,,43,93
100599,note_on,39,0,6,,,,,,,,,10,,,,77,0
100601,note_on,39,0,7,,,,,,,,,11,,,,70,0
100605,note_on,39,0,8,,,,,,,,,12,,,,55,0
100620,note_on,21,0,6,,,,,,,,,10,,,,77,101
100622,note_on,21,0,7,,,,,,,,,11,,,,70,101
100626,note_on,21,0,8,,,,,,,,,12,,,,55,99
100659,note_on,39,0,6,,,,,,,,,10,,,,77,0
100661,note_on,39,0,7,,,,,,,,,11,,,,70,0
100665,note_on,39,0,8,,,,,,,,,12,,,,55,0
100680,note_on,21,0,6,,,,,,,,,10,,,,77,110
100682,note_on,21,0,7,,,,,,,,,11,,,,70,110
100686,note_on,21,0,8,,,,,,,,,12,,,,55,108
100719,note_on,39,0,6,,,,,,,,,10,,,,77,0
100721,note_on,39,0,7,,,,,,,,,11,,,,70,0
100725,note_on,39,0,8,,,,,,,,,12,,,,55,0
100740,note_on,21,0,6,,,,,,,,,10,,,,77,101
100742,note_on,21,0,7,,,,,,,,,11,,,,70,101
100746,note_on,21,0,8,,,,,,,,,12,,,,55,99
100779,note_on,39,0,6,,,,,,,,,10,,,,77,0
100781,note_on,39,0,7,,,,,,,,,11,,,,70,0
100785,note_on,39,0,8,,,,,,,,,12,,,,55,0
100794,note_on,230,0,4,,,,,,,,,4,,,,65,0
100796,note_on,230,0,5,,,,,,,,,5,,,,53,0
100798,note_on,235,0,1,,,,,,,,,0,,,,89,0
100800,set_tempo,240,1,0,,,,,,272727,,,,,,,,
100800,note_on,21,0,6,,,,,,,,,10,,,,77,110
100800,note_on,0,0,2,,,,,,,,,1,,,,82,0
100800,note_on,235,0,2,,,,,,,,,1,,,,70,0
100801,note_on,230,0,3,,,,,,,,,3,,,,55,0
100802,note_on,21,0,7,,,,,,,,,11,,,,71,110
100803,note_on,5,0,1,,,,,,,,,0,,,,89,97
100804,note_on,10,0,4,,,,,,,,,4,,,,65,96
100805,note_on,0,0,2,,,,,,,,,1,,,,83,97
100805,note_on,5,0,2,,,,,,,,,1,,,,71,97
100805,note_on,235,0,9,,,,,,,,,13,,,,55,0
100806,note_on,10,0,5,,,,,,,,,5,,,,53,96
100806,note_on,21,0,8,,,,,,,,,12,,,,56,108
100807,note_on,235,0,10,,,,,,,,,14,,,,43,0
100810,note_on,5,0,9,,,,,,,,,13,,,,56,99
100811,note_on,10,0,3,,,,,,,,,3,,,,56,97
100812,note_on,5,0,10,,,,,,,,,14,,,,44,93
100839,note_on,39,0,6,,,,,,,,,10,,,,77,0
100841,note_on,39,0,7,,,,,,,,,11,,,,71,0
100845,note_on,39,0,8,,,,,,,,,12,,,,56,0
100860,note_on,21,0,6,,,,,,,,,10,,,,77,101
100862,note_on,21,0,7,,,,,,,,,11,,,,71,101
100866,note_on,21,0,8,,,,,,,,,12,,,,56,99
100899,note_on,39,0,6,,,,,,,,,10,,,,77,0
100901,note_on,39,0,7,,,,,,,,,11,,,,71,0
100905,note_on,39,0,8,,,,,,,,,12,,,,56,0
100920,note_on,21,0,6,,,,,,,,,10,,,,77,110
100922,note_on,21,0,7,,,,,,,,,11,,,,71,110
100926,note_on,21,0,8,,,,,,,,,12,,,,56,108
100959,note_on,39,0,6,,,,,,,,,10,,,,77,0
100961,note_on,39,0,7,,,,,,,,,11,,,,71,0
100965,note_on,39,0,8,,,,,,,,,12,,,,56,0
100980,note_on,21,0,6,,,,,,,,,10,,,,77,101
100982,note_on,21,0,7,,,,,,,,,11,,,,71,101
100986,note_on,21,0,8,,,,,,,,,12,,,,56,99
101019,note_on,39,0,6,,,,,,,,,10,,,,77,0
101021,note_on,39,0,7,,,,,,,,,11,,,,71,0
101025,note_on,39,0,8,,,,,,,,,12,,,,56,0
101034,note_on,230,0,4,,,,,,,,,4,,,,65,0
101036,note_on,230,0,5,,,,,,,,,5,,,,53,0
101038,note_on,235,0,1,,,,,,,,,0,,,,89,0
101040,note_on,0,0,2,,,,,,,,,1,,,,71,0
101040,set_tempo,240,1,0,,,,,,261438,,,,,,,,
101040,note_on,235,0,2,,,,,,,,,1,,,,83,0
101040,note_on,21,0,6,,,,,,,,,10,,,,77,110
101041,note_on,230,0,3,,,,,,,,,3,,,,56,0
101042,note_on,21,0,7,,,,,,,,,11,,,,72,110
101043,note_on,5,0,1,,,,,,,,,0,,,,89,97
101044,note_on,10,0,4,,,,,,,,,4,,,,65,96
101045,note_on,0,0,2,,,,,,,,,1,,,,72,97
101045,note_on,5,0,2,,,,,,,,,1,,,,84,97
101045,note_on,235,0,9,,,,,,,,,13,,,,56,0
101046,note_on,10,0,5,,,,,,,,,5,,,,53,96
101046,note_on,21,0,8,,,,,,,,,12,,,,57,108
101047,note_on,235,0,10,,,,,,,,,14,,,,44,0
101050,note_on,5,0,9,,,,,,,,,13,,,,57,99
101051,note_on,10,0,3,,,,,,,,,3,,,,57,97
101052,note_on,5,0,10,,,,,,,,,14,,,,45,93
101079,note_on,39,0,6,,,,,,,,,10,,,,77,0
101081,note_on,39,0,7,,,,,,,,,11,,,,72,0
101085,note_on,39,0,8,,,,,,,,,12,,,,57,0
101100,note_on,21,0,6,,,,,,,,,10,,,,77,101
101102,note_on,21,0,7,,,,,,,,,11,,,,72,101
101106,note_on,21,0,8,,,,,,,,,12,,,,57,99
101139,note_on,39,0,6,,,,,,,,,10,,,,77,0
101141,note_on,39,0,7,,,,,,,,,11,,,,72,0
101145,note_on,39,0,8,,,,,,,,,12,,,,57,0
101160,note_on,21,0,6,,,,,,,,,10,,,,77,110
101162,note_on,21,0,7,,,,,,,,,11,,,,72,110
101166,note_on,21,0,8,,,,,,,,,12,,,,57,108
101199,note_on,39,0,6,,,,,,,,,10,,,,77,0
101201,note_on,39,0,7,,,,,,,,,11,,,,72,0
101205,note_on,39,0,8,,,,,,,,,12,,,,57,0
101220,note_on,21,0,6,,,,,,,,,10,,,,77,101
101222,note_on,21,0,7,,,,,,,,,11,,,,72,101
101226,note_on,21,0,8,,,,,,,,,12,,,,57,99
101259,note_on,39,0,6,,,,,,,,,10,,,,77,0
101261,note_on,39,0,7,,,,,,,,,11,,,,72,0
101265,note_on,39,0,8,,,,,,,,,12,,,,57,0
101274,note_on,230,0,4,,,,,,,,,4,,,,65,0
101276,note_on,230,0,5,,,,,,,,,5,,,,53,0
101278,note_on,235,0,1,,,,,,,,,0,,,,89,0
101280,note_on,21,0,6,,,,,,,,,10,,,,77,110
101280,note_on,0,0,2,,,,,,,,,1,,,,84,0
101280,note_on,235,0,2,,,,,,,,,1,,,,72,0
101280,set_tempo,240,1,0,,,,,,272727,,,,,,,,
101281,note_on,230,0,3,,,,,,,,,3,,,,57,0
101282,note_on,21,0,7,,,,,,,,,11,,,,73,110
101283,note_on,5,0,1,,,,,,,,,0,,,,89,97
101284,note_on,10,0,4,,,,,,,,,4,,,,65,96
101285,note_on,5,0,2,,,,,,,,,1,,,,85,97
101285,note_on,235,0,9,,,,,,,,,13,,,,57,0
101285,note_on,0,0,2,,,,,,,,,1,,,,73,97
101286,note_on,10,0,5,,,,,,,,,5,,,,53,96
101286,note_on,21,0,8,,,,,,,,,12,,,,58,108
101287,note_on,235,0,10,,,,,,,,,14,,,,45,0
101290,note_on,5,0,9,,,,,,,,,13,,,,58,99
101291,note_on,10,0,3,,,,,,,,,3,,,,58,97
101292,note_on,5,0,10,,,,,,,,,14,,,,46,93
101319,note_on,39,0,6,,,,,,,,,10,,,,77,0
101321,note_on,39,0,7,,,,,,,,,11,,,,73,0
101325,note_on,39,0,8,,,,,,,,,12,,,,58,0
101340,note_on,21,0,6,,,,,,,,,10,,,,77,101
101342,note_on,21,0,7,,,,,,,,,11,,,,73,101
101346,note_on,21,0,8,,,,,,,,,12,,,,58,99
101379,note_on,39,0,6,,,,,,,,,10,,,,77,0
101381,note_on,39,0,7,,,,,,,,,11,,,,73,0
101385,note_on,39,0,8,,,,,,,,,12,,,,58,0
101400,note_on,21,0,6,,,,,,,,,10,,,,77,110
101402,note_on,21,0,7,,,,,,,,,11,,,,73,110
101406,note_on,21,0,8,,,,,,,,,12,,,,58,108
101439,note_on,39,0,6,,,,,,,,,10,,,,77,0
101441,note_on,39,0,7,,,,,,,,,11,,,,73,0
101445,note_on,39,0,8,,,,,,,,,12,,,,58,0
101460,note_on,21,0,6,,,,,,,,,10,,,,77,101
101462,note_on,21,0,7,,,,,,,,,11,,,,73,101
101466,note_on,21,0,8,,,,,,,,,12,,,,58,99
101499,note_on,39,0,6,,,,,,,,,10,,,,77,0
101501,note_on,39,0,7,,,,,,,,,11,,,,73,0
101505,note_on,39,0,8,,,,,,,,,12,,,,58,0
101514,note_on,230,0,4,,,,,,,,,4,,,,65,0
101516,note_on,230,0,5,,,,,,,,,5,,,,53,0
101518,note_on,235,0,1,,,,,,,,,0,,,,89,0
101520,note_on,235,0,2,,,,,,,,,1,,,,73,0
101520,set_tempo,240,1,0,,,,,,261438,,,,,,,,
101520,note_on,21,0,6,,,,,,,,,10,,,,77,110
101520,note_on,0,0,2,,,,,,,,,1,,,,85,0
101521,note_on,230,0,3,,,,,,,,,3,,,,58,0
101522,note_on,21,0,7,,,,,,,,,11,,,,69,110
101523,note_on,5,0,1,,,,,,,,,0,,,,89,97
101524,note_on,10,0,4,,,,,,,,,4,,,,65,96
101525,note_on,5,0,2,,,,,,,,,1,,,,81,97
101525,note_on,235,0,9,,,,,,,,,13,,,,58,0
101525,note_on,0,0,2,,,,,,,,,1,,,,69,97
101526,note_on,10,0,5,,,,,,,,,5,,,,53,96
101526,note_on,21,0,8,,,,,,,,,12,,,,63,108
101527,note_on,235,0,10,,,,,,,,,14,,,,46,0
101530,note_on,5,0,9,,,,,,,,,13,,,,60,99
101531,note_on,10,0,3,,,,,,,,,3,,,,60,97
101532,note_on,5,0,10,,,,,,,,,14,,,,48,93
101559,note_on,39,0,6,,,,,,,,,10,,,,77,0
101561,note_on,39,0,7,,,,,,,,,11,,,,69,0
101565,note_on,39,0,8,,,,,,,,,12,,,,63,0
101580,note_on,21,0,6,,,,,,,,,10,,,,77,101
101582,note_on,21,0,7,,,,,,,,,11,,,,69,101
101586,note_on,21,0,8,,,,,,,,,12,,,,63,99
101619,note_on,39,0,6,,,,,,,,,10,,,,77,0
101621,note_on,39,0,7,,,,,,,,,11,,,,69,0
101625,note_on,39,0,8,,,,,,,,,12,,,,63,0
101640,note_on,21,0,6,,,,,,,,,10,,,,77,110
101642,note_on,21,0,7,,,,,,,,,11,,,,69,110
101646,note_on,21,0,8,,,,,,,,,12,,,,63,108
101679,note_on,39,0,6,,,,,,,,,10,,,,77,0
101681,note_on,39,0,7,,,,,,,,,11,,,,69,0
101685,note_on,39,0,8,,,,,,,,,12,,,,63,0
101700,note_on,21,0,6,,,,,,,,,10,,,,77,101
101702,note_on,21,0,7,,,,,,,,,11,,,,69,101
101706,note_on,21,0,8,,,,,,,,,12,,,,63,99
101739,note_on,39,0,6,,,,,,,,,10,,,,77,0
101741,note_on,39,0,7,,,,,,,,,11,,,,69,0
101745,note_on,39,0,8,,,,,,,,,12,,,,63,0
101754,note_on,230,0,4,,,,,,,,,4,,,,65,0
101756,note_on,230,0,5,,,,,,,,,5,,,,53,0
101758,note_on,235,0,1,,,,,,,,,0,,,,89,0
101760,set_tempo,240,1,0,,,,,,272727,,,,,,,,
101760,note_on,235,0,2,,,,,,,,,1,,,,69,0
101760,note_on,0,0,2,,,,,,,,,1,,,,81,0
101760,note_on,21,0,6,,,,,,,,,10,,,,77,110
101761,note_on,230,0,3,,,,,,,,,3,,,,60,0
101762,note_on,21,0,7,,,,,,,,,11,,,,70,110
101763,note_on,5,0,1,,,,,,,,,0,,,,89,97
101764,note_on,10,0,4,,,,,,,,,4,,,,65,96
101765,note_on,5,0,2,,,,,,,,,1,,,,70,97
101765,note_on,0,0,2,,,,,,,,,1,,,,82,97
101765,note_on,235,0,9,,,,,,,,,13,,,,60,0
101766,note_on,21,0,8,,,,,,,,,12,,,,61,108
101766,note_on,10,0,5,,,,,,,,,5,,,,53,96
101767,note_on,235,0,10,,,,,,,,,14,,,,48,0
101770,note_on,5,0,9,,,,,,,,,13,,,,61,99
101771,note_on,10,0,3,,,,,,,,,3,,,,61,97
101772,note_on,5,0,10,,,,,,,,,14,,,,49,93
101799,note_on,39,0,6,,,,,,,,,10,,,,77,0
101801,note_on,39,0,7,,,,,,,,,11,,,,70,0
101805,note_on,39,0,8,,,,,,,,,12,,,,61,0
101820,note_on,21,0,6,,,,,,,,,10,,,,77,101
101822,note_on,21,0,7,,,,,,,,,11,,,,70,101
101826,note_on,21,0,8,,,,,,,,,12,,,,61,99
101859,note_on,39,0,6,,,,,,,,,10,,,,77,0
101861,note_on,39,0,7,,,,,,,,,11,,,,70,0
101865,note_on,39,0,8,,,,,,,,,12,,,,61,0
101880,note_on,21,0,6,,,,,,,,,10,,,,77,110
101882,note_on,21,0,7,,,,,,,,,11,,,,70,110
101886,note_on,21,0,8,,,,,,,,,12,,,,61,108
101919,note_on,39,0,6,,,,,,,,,10,,,,77,0
101921,note_on,39,0,7,,,,,,,,,11,,,,70,0
101925,note_on,39,0,8,,,,,,,,,12,,,,61,0
101940,note_on,21,0,6,,,,,,,,,10,,,,77,101
101942,note_on,21,0,7,,,,,,,,,11,,,,70,101
101946,note_on,21,0,8,,,,,,,,,12,,,,61,99
101979,note_on,39,0,6,,,,,,,,,10,,,,77,0
101981,note_on,39,0,7,,,,,,,,,11,,,,70,0
101985,note_on,39,0,8,,,,,,,,,12,,,,61,0
101994,note_on,230,0,4,,,,,,,,,4,,,,65,0
101996,note_on,230,0,5,,,,,,,,,5,,,,53,0
101998,note_on,235,0,1,,,,,,,,,0,,,,89,0
102000,set_tempo,240,1,0,,,,,,261438,,,,,,,,
102000,note_on,235,0,2,,,,,,,,,1,,,,82,0
102000,note_on,21,0,6,,,,,,,,,10,,,,77,110
102000,note_on,0,0,2,,,,,,,,,1,,,,70,0
102001,note_on,230,0,3,,,,,,,,,3,,,,61,0
102002,note_on,21,0,7,,,,,,,,,11,,,,71,110
102003,note_on,5,0,1,,,,,,,,,0,,,,89,97
102004,note_on,10,0,4,,,,,,,,,4,,,,65,96
102005,note_on,235,0,9,,,,,,,,,13,,,,61,0
102005,note_on,0,0,2,,,,,,,,,1,,,,83,97
102005,note_on,5,0,2,,,,,,,,,1,,,,77,97
102006,note_on,21,0,8,,,,,,,,,12,,,,68,108
102006,note_on,10,0,5,,,,,,,,,5,,,,53,96
102007,note_on,235,0,10,,,,,,,,,14,,,,49,0
102010,note_on,5,0,9,,,,,,,,,13,,,,62,99
102011,note_on,10,0,3,,,,,,,,,3,,,,62,97
102012,note_on,5,0,10,,,,,,,,,14,,,,50,93
102039,note_on,39,0,6,,,,,,,,,10,,,,77,0
102041,note_on,39,0,7,,,,,,,,,11,,,,71,0
102045,note_on,39,0,8,,,,,,,,,12,,,,68,0
102060,note_on,21,0,6,,,,,,,,,10,,,,77,101
102062,note_on,21,0,7,,,,,,,,,11,,,,71,101
102066,note_on,21,0,8,,,,,,,,,12,,,,68,99
102099,note_on,39,0,6,,,,,,,,,10,,,,77,0
102101,note_on,39,0,7,,,,,,,,,11,,,,71,0
102105,note_on,39,0,8,,,,,,,,,12,,,,68,0
102120,control_change,21,0,6,,,,,,,,,10,11,89,,,
102120,note_on,0,0,6,,,,,,,,,10,,,,77,110
102122,control_change,21,0,7,,,,,,,,,11,11,89,,,
102122,note_on,0,0,7,,,,,,,,,11,,,,71,110
102123,control_change,120,0,1,,,,,,,,,0,11,89,,,
102125,control_change,120,0,2,,,,,,,,,1,11,89,,,
102126,note_on,0,0,8,,,,,,,,,12,,,,68,108
102126,control_change,21,0,8,,,,,,,,,12,11,89,,,
102130,control_change,120,0,9,,,,,,,,,13,11,89,,,
102131,control_change,120,0,3,,,,,,,,,3,11,89,,,
102132,control_change,120,0,10,,,,,,,,,14,11,89,,,
102133,control_change,13,0,6,,,,,,,,,10,11,85,,,
102135,control_change,13,0,7,,,,,,,,,11,11,85,,,
102139,control_change,13,0,8,,,,,,,,,12,11,85,,,
102139,control_change,16,0,1,,,,,,,,,0,11,85,,,
102141,control_change,16,0,2,,,,,,,,,1,11,85,,,
102143,control_change,13,0,9,,,,,,,,,13,11,85,,,
102144,control_change,13,0,3,,,,,,,,,3,11,85,,,
102145,control_change,13,0,10,,,,,,,,,14,11,85,,,
102146,control_change,13,0,6,,,,,,,,,10,11,81,,,
102148,control_change,13,0,7,,,,,,,,,11,11,81,,,
102152,control_change,13,0,8,,,,,,,,,12,11,81,,,
102155,control_change,16,0,1,,,,,,,,,0,11,81,,,
102156,control_change,13,0,9,,,,,,,,,13,11,81,,,
102157,control_change,13,0,3,,,,,,,,,3,11,81,,,
102157,control_change,16,0,2,,,,,,,,,1,11,81,,,
102158,control_change,13,0,10,,,,,,,,,14,11,81,,,
102159,note_on,13,0,6,,,,,,,,,10,,,,77,0
102159,control_change,0,0,6,,,,,,,,,10,11,77,,,
102161,note_on,13,0,7,,,,,,,,,11,,,,71,0
102161,control_change,0,0,7,,,,,,,,,11,11,77,,,
102165,control_change,0,0,8,,,,,,,,,12,11,77,,,
102165,note_on,13,0,8,,,,,,,,,12,,,,68,0
102169,control_change,13,0,9,,,,,,,,,13,11,77,,,
102170,control_change,13,0,3,,,,,,,,,3,11,77,,,
102171,control_change,13,0,10,,,,,,,,,14,11,77,,,
102171,control_change,16,0,1,,,,,,,,,0,11,77,,,
102172,control_change,13,0,6,,,,,,,,,10,11,73,,,
102173,control_change,16,0,2,,,,,,,,,1,11,77,,,
102174,control_change,13,0,7,,,,,,,,,11,11,73,,,
102178,control_change,13,0,8,,,,,,,,,12,11,73,,,
102180,set_tempo,180,1,0,,,,,,314136,,,,,,,,
102180,note_on,8,0,6,,,,,,,,,10,,,,77,101
102182,control_change,13,0,9,,,,,,,,,13,11,73,,,
102182,note_on,8,0,7,,,,,,,,,11,,,,71,101
102183,control_change,13,0,3,,,,,,,,,3,11,73,,,
102184,control_change,13,0,10,,,,,,,,,14,11,73,,,
102185,control_change,5,0,6,,,,,,,,,10,11,68,,,
102186,note_on,8,0,8,,,,,,,,,12,,,,68,99
102187,control_change,5,0,7,,,,,,,,,11,11,68,,,
102187,control_change,16,0,1,,,,,,,,,0,11,73,,,
102189,control_change,16,0,2,,,,,,,,,1,11,73,,,
102191,control_change,5,0,8,,,,,,,,,12,11,68,,,
102195,control_change,13,0,9,,,,,,,,,13,11,68,,,
102196,control_change,13,0,3,,,,,,,,,3,11,68,,,
102197,control_change,13,0,10,,,,,,,,,14,11,68,,,
102198,control_change,13,0,6,,,,,,,,,10,11,64,,,
102200,control_change,13,0,7,,,,,,,,,11,11,64,,,
102203,control_change,16,0,1,,,,,,,,,0,11,68,,,
102204,control_change,13,0,8,,,,,,,,,12,11,64,,,
102205,control_change,16,0,2,,,,,,,,,1,11,68,,,
102208,control_change,13,0,9,,,,,,,,,13,11,64,,,
102209,control_change,13,0,3,,,,,,,,,3,11,64,,,
102210,control_change,13,0,10,,,,,,,,,14,11,64,,,
102211,control_change,13,0,6,,,,,,,,,10,11,60,,,
102213,control_change,13,0,7,,,,,,,,,11,11,60,,,
102217,control_change,13,0,8,,,,,,,,,12,11,60,,,
102218,control_change,7,0,6,,,,,,,,,10,11,57,,,
102219,note_on,1,0,6,,,,,,,,,10,,,,77,0
102219,control_change,16,0,1,,,,,,,,,0,11,64,,,
102220,control_change,7,0,7,,,,,,,,,11,11,57,,,
102221,control_change,16,0,2,,,,,,,,,1,11,64,,,
102221,control_change,13,0,9,,,,,,,,,13,11,60,,,
102221,note_on,1,0,7,,,,,,,,,11,,,,71,0
102222,control_change,13,0,3,,,,,,,,,3,11,60,,,
102223,control_change,13,0,10,,,,,,,,,14,11,60,,,
102224,control_change,7,0,8,,,,,,,,,12,11,57,,,
102224,control_change,5,0,6,,,,,,,,,10,11,54,,,
102225,note_on,1,0,8,,,,,,,,,12,,,,68,0
102226,control_change,5,0,7,,,,,,,,,11,11,54,,,
102228,control_change,7,0,9,,,,,,,,,13,11,57,,,
102229,control_change,7,0,3,,,,,,,,,3,11,57,,,
102230,control_change,5,0,8,,,,,,,,,12,11,54,,,
102230,control_change,7,0,10,,,,,,,,,14,11,57,,,
102231,control_change,7,0,6,,,,,,,,,10,11,51,,,
102233,control_change,7,0,7,,,,,,,,,11,11,51,,,
102234,note_on,230,0,4,,,,,,,,,4,,,,65,0
102234,control_change,6,0,9,,,,,,,,,13,11,54,,,
102235,control_change,16,0,1,,,,,,,,,0,11,60,,,
102235,control_change,6,0,3,,,,,,,,,3,11,54,,,
102236,control_change,6,0,10,,,,,,,,,14,11,54,,,
102236,note_on,230,0,5,,,,,,,,,5,,,,53,0
102237,control_change,16,0,2,,,,,,,,,1,11,60,,,
102237,control_change,6,0,6,,,,,,,,,10,11,48,,,
102237,control_change,7,0,8,,,,,,,,,12,11,51,,,
102238,note_on,3,0,1,,,,,,,,,0,,,,89,0
102239,control_change,6,0,7,,,,,,,,,11,11,48,,,
102240,set_tempo,60,1,0,,,,,,279720,,,,,,,,
102240,note_on,3,0,2,,,,,,,,,1,,,,83,0
102240,note_on,3,0,6,,,,,,,,,10,,,,75,110
102240,note_on,0,0,2,,,,,,,,,1,,,,77,0
102241,control_change,7,0,9,,,,,,,,,13,11,51,,,
102241,note_on,6,0,3,,,,,,,,,3,,,,62,0
102242,note_on,3,0,7,,,,,,,,,11,,,,72,110
102242,control_change,1,0,3,,,,,,,,,3,11,51,,,
102243,control_change,7,0,10,,,,,,,,,14,11,51,,,
102243,control_change,6,0,8,,,,,,,,,12,11,48,,,
102243,control_change,5,0,1,,,,,,,,,0,11,57,,,
102243,note_on,0,0,1,,,,,,,,,0,,,,87,97
102245,note_on,4,0,9,,,,,,,,,13,,,,62,0
102245,note_on,0,0,2,,,,,,,,,1,,,,75,97
102245,note_on,0,0,2,,,,,,,,,1,,,,84,97
102245,control_change,5,0,2,,,,,,,,,1,11,57,,,
102246,note_on,3,0,8,,,,,,,,,12,,,,68,108
102247,note_on,4,0,10,,,,,,,,,14,,,,50,0
102247,control_change,2,0,9,,,,,,,,,13,11,48,,,
102248,control_change,6,0,3,,,,,,,,,3,11,48,,,
102249,control_change,2,0,10,,,,,,,,,14,11,48,,,
102250,note_on,3,0,9,,,,,,,,,13,,,,63,99
102251,note_on,3,0,3,,,,,,,,,3,,,,51,97
102252,note_on,3,0,10,,,,,,,,,14,,,,51,93
102279,note_on,39,0,6,,,,,,,,,10,,,,75,0
102281,note_on,39,0,7,,,,,,,,,11,,,,72,0
102285,note_on,39,0,8,,,,,,,,,12,,,,68,0
102300,note_on,21,0,6,,,,,,,,,10,,,,75,101
102302,note_on,21,0,7,,,,,,,,,11,,,,72,101
102306,note_on,21,0,8,,,,,,,,,12,,,,68,99
102339,note_on,39,0,6,,,,,,,,,10,,,,75,0
102341,note_on,39,0,7,,,,,,,,,11,,,,72,0
102345,note_on,39,0,8,,,,,,,,,12,,,,68,0
102360,note_on,21,0,6,,,,,,,,,10,,,,75,110
102362,note_on,21,0,7,,,,,,,,,11,,,,72,110
102366,note_on,21,0,8,,,,,,,,,12,,,,68,108
102399,note_on,39,0,6,,,,,,,,,10,,,,75,0
102401,note_on,39,0,7,,,,,,,,,11,,,,72,0
102405,note_on,39,0,8,,,,,,,,,12,,,,68,0
102420,note_on,21,0,6,,,,,,,,,10,,,,75,101
102422,note_on,21,0,7,,,,,,,,,11,,,,72,101
102426,note_on,21,0,8,,,,,,,,,12,,,,68,99
102459,note_on,39,0,6,,,,,,,,,10,,,,75,0
102461,note_on,39,0,7,,,,,,,,,11,,,,72,0
102465,note_on,39,0,8,,,,,,,,,12,,,,68,0
102480,note_on,21,0,6,,,,,,,,,10,,,,73,110
102480,set_tempo,240,1,0,,,,,,268456,,,,,,,,
102482,note_on,21,0,7,,,,,,,,,11,,,,70,110
102483,note_on,0,0,1,,,,,,,,,0,,,,85,97
102483,note_on,240,0,1,,,,,,,,,0,,,,87,0
102485,note_on,240,0,2,,,,,,,,,1,,,,75,0
102485,note_on,0,0,2,,,,,,,,,1,,,,84,0
102485,note_on,0,0,2,,,,,,,,,1,,,,82,97
102485,note_on,0,0,2,,,,,,,,,1,,,,73,97
102486,note_on,21,0,8,,,,,,,,,12,,,,67,108
102490,note_on,0,0,9,,,,,,,,,13,,,,64,99
102490,note_on,240,0,9,,,,,,,,,13,,,,63,0
102491,note_on,0,0,3,,,,,,,,,3,,,,52,97
102491,note_on,240,0,3,,,,,,,,,3,,,,51,0
102492,note_on,240,0,10,,,,,,,,,14,,,,51,0
102492,note_on,0,0,10,,,,,,,,,14,,,,52,93
102519,note_on,39,0,6,,,,,,,,,10,,,,73,0
102521,note_on,39,0,7,,,,,,,,,11,,,,70,0
102525,note_on,39,0,8,,,,,,,,,12,,,,67,0
102540,note_on,21,0,6,,,,,,,,,10,,,,73,101
102542,note_on,21,0,7,,,,,,,,,11,,,,70,101
102546,note_on,21,0,8,,,,,,,,,12,,,,67,99
102579,note_on,39,0,6,,,,,,,,,10,,,,73,0
102581,note_on,39,0,7,,,,,,,,,11,,,,70,0
102585,note_on,39,0,8,,,,,,,,,12,,,,67,0
102600,note_on,21,0,6,,,,,,,,,10,,,,73,110
102602,note_on,21,0,7,,,,,,,,,11,,,,70,110
102606,note_on,21,0,8,,,,,,,,,12,,,,67,108
102639,note_on,39,0,6,,,,,,,,,10,,,,73,0
102641,note_on,39,0,7,,,,,,,,,11,,,,70,0
102645,note_on,39,0,8,,,,,,,,,12,,,,67,0
102660,note_on,21,0,6,,,,,,,,,10,,,,73,101
102662,note_on,21,0,7,,,,,,,,,11,,,,70,101
102666,note_on,21,0,8,,,,,,,,,12,,,,67,99
102699,note_on,39,0,6,,,,,,,,,10,,,,73,0
102701,note_on,39,0,7,,,,,,,,,11,,,,70,0
102705,note_on,39,0,8,,,,,,,,,12,,,,67,0
102720,note_on,21,0,6,,,,,,,,,10,,,,72,110
102720,set_tempo,240,1,0,,,,,,279720,,,,,,,,
102722,note_on,21,0,7,,,,,,,,,11,,,,68,110
102723,note_on,240,0,1,,,,,,,,,0,,,,85,0
102723,note_on,0,0,1,,,,,,,,,0,,,,84,97
102725,note_on,240,0,2,,,,,,,,,1,,,,82,0
102725,note_on,0,0,2,,,,,,,,,1,,,,73,0
102725,note_on,0,0,2,,,,,,,,,1,,,,72,97
102725,note_on,0,0,2,,,,,,,,,1,,,,80,97
102726,note_on,21,0,8,,,,,,,,,12,,,,68,108
102730,note_on,240,0,9,,,,,,,,,13,,,,64,0
102730,note_on,0,0,9,,,,,,,,,13,,,,65,99
102731,note_on,0,0,3,,,,,,,,,3,,,,53,97
102731,note_on,240,0,3,,,,,,,,,3,,,,52,0
102732,note_on,0,0,10,,,,,,,,,14,,,,53,93
102732,note_on,240,0,10,,,,,,,,,14,,,,52,0
102759,note_on,39,0,6,,,,,,,,,10,,,,72,0
102761,note_on,39,0,7,,,,,,,,,11,,,,68,0
102765,note_on,39,0,8,,,,,,,,,12,,,,68,0
102780,note_on,21,0,6,,,,,,,,,10,,,,72,101
102782,note_on,21,0,7,,,,,,,,,11,,,,68,101
102786,note_on,21,0,8,,,,,,,,,12,,,,68,99
102819,note_on,39,0,6,,,,,,,,,10,,,,72,0
102821,note_on,39,0,7,,,,,,,,,11,,,,68,0
102825,note_on,39,0,8,,,,,,,,,12,,,,68,0
102840,note_on,21,0,6,,,,,,,,,10,,,,72,110
102842,note_on,21,0,7,,,,,,,,,11,,,,68,110
102846,note_on,21,0,8,,,,,,,,,12,,,,68,108
102879,note_on,39,0,6,,,,,,,,,10,,,,72,0
102881,note_on,39,0,7,,,,,,,,,11,,,,68,0
102885,note_on,39,0,8,,,,,,,,,12,,,,68,0
102900,note_on,21,0,6,,,,,,,,,10,,,,72,101
102902,note_on,21,0,7,,,,,,,,,11,,,,68,101
102906,note_on,21,0,8,,,,,,,,,12,,,,68,99
102939,note_on,39,0,6,,,,,,,,,10,,,,72,0
102941,note_on,39,0,7,,,,,,,,,11,,,,68,0
102945,note_on,39,0,8,,,,,,,,,12,,,,68,0
102960,note_on,21,0,6,,,,,,,,,10,,,,70,110
102960,set_tempo,240,1,0,,,,,,268456,,,,,,,,
102962,note_on,21,0,7,,,,,,,,,11,,,,67,110
102963,note_on,240,0,1,,,,,,,,,0,,,,84,0
102963,note_on,0,0,1,,,,,,,,,0,,,,82,97
102965,note_on,0,0,2,,,,,,,,,1,,,,70,97
102965,note_on,240,0,2,,,,,,,,,1,,,,80,0
102965,note_on,0,0,2,,,,,,,,,1,,,,72,0
102965,note_on,0,0,2,,,,,,,,,1,,,,79,97
102966,note_on,21,0,8,,,,,,,,,12,,,,61,108
102970,note_on,240,0,9,,,,,,,,,13,,,,65,0
102970,note_on,0,0,9,,,,,,,,,13,,,,58,99
102971,note_on,0,0,3,,,,,,,,,3,,,,46,97
102971,note_on,0,0,3,,,,,,,,,3,,,,58,97
102971,note_on,240,0,3,,,,,,,,,3,,,,53,0
102972,note_on,0,0,10,,,,,,,,,14,,,,46,93
102972,note_on,240,0,10,,,,,,,,,14,,,,53,0
102999,note_on,39,0,6,,,,,,,,,10,,,,70,0
103001,note_on,39,0,7,,,,,,,,,11,,,,67,0
103005,note_on,39,0,8,,,,,,,,,12,,,,61,0
103020,note_on,21,0,6,,,,,,,,,10,,,,70,101
103022,note_on,21,0,7,,,,,,,,,11,,,,67,101
103026,note_on,21,0,8,,,,,,,,,12,,,,61,99
103059,note_on,39,0,6,,,,,,,,,10,,,,70,0
103061,note_on,39,0,7,,,,,,,,,11,,,,67,0
103065,note_on,39,0,8,,,,,,,,,12,,,,61,0
103080,note_on,21,0,6,,,,,,,,,10,,,,70,110
103082,note_on,21,0,7,,,,,,,,,11,,,,67,110
103086,note_on,21,0,8,,,,,,,,,12,,,,61,108
103119,note_on,39,0,6,,,,,,,,,10,,,,70,0
103121,note_on,39,0,7,,,,,,,,,11,,,,67,0
103125,note_on,39,0,8,,,,,,,,,12,,,,61,0
103140,note_on,21,0,6,,,,,,,,,10,,,,70,101
103142,note_on,21,0,7,,,,,,,,,11,,,,67,101
103146,note_on,21,0,8,,,,,,,,,12,,,,61,99
103179,note_on,39,0,6,,,,,,,,,10,,,,70,0
103181,note_on,39,0,7,,,,,,,,,11,,,,67,0
103185,note_on,39,0,8,,,,,,,,,12,,,,61,0
103200,note_on,21,0,6,,,,,,,,,10,,,,69,110
103200,set_tempo,240,1,0,,,,,,279720,,,,,,,,
103202,note_on,21,0,7,,,,,,,,,11,,,,65,110
103203,note_on,240,0,1,,,,,,,,,0,,,,82,0
103203,control_change,0,0,1,,,,,,,,,0,11,65,,,
103203,note_on,0,0,1,,,,,,,,,0,,,,81,110
103204,note_on,0,0,4,,,,,,,,,4,,,,60,109
103204,control_change,970,0,4,,,,,,,,,4,11,47,,,
103205,note_on,240,0,2,,,,,,,,,1,,,,70,0
103205,note_on,0,0,2,,,,,,,,,1,,,,79,0
103205,note_on,0,0,2,,,,,,,,,1,,,,72,110
103205,control_change,0,0,2,,,,,,,,,1,11,65,,,
103206,control_change,970,0,5,,,,,,,,,5,11,47,,,
103206,note_on,21,0,8,,,,,,,,,12,,,,60,108
103206,note_on,0,0,5,,,,,,,,,5,,,,60,109
103210,note_on,240,0,9,,,,,,,,,13,,,,58,0
103210,note_on,0,0,9,,,,,,,,,13,,,,60,99
103211,note_on,0,0,3,,,,,,,,,3,,,,48,97
103211,note_on,240,0,3,,,,,,,,,3,,,,46,0
103211,note_on,0,0,3,,,,,,,,,3,,,,60,97
103211,note_on,0,0,3,,,,,,,,,3,,,,58,0
103212,note_on,240,0,10,,,,,,,,,14,,,,46,0
103212,note_on,0,0,10,,,,,,,,,14,,,,48,93
103239,note_on,39,0,6,,,,,,,,,10,,,,69,0
103241,note_on,39,0,7,,,,,,,,,11,,,,65,0
103245,control_change,42,0,1,,,,,,,,,0,11,64,,,
103245,note_on,39,0,8,,,,,,,,,12,,,,60,0
103247,control_change,42,0,2,,,,,,,,,1,11,64,,,
103260,note_on,21,0,6,,,,,,,,,10,,,,69,101
103262,note_on,21,0,7,,,,,,,,,11,,,,65,101
103266,note_on,21,0,8,,,,,,,,,12,,,,60,99
103287,control_change,42,0,1,,,,,,,,,0,11,64,,,
103289,control_change,42,0,2,,,,,,,,,1,11,64,,,
103299,note_on,39,0,6,,,,,,,,,10,,,,69,0
103301,note_on,39,0,7,,,,,,,,,11,,,,65,0
103305,note_on,39,0,8,,,,,,,,,12,,,,60,0
103320,note_on,21,0,6,,,,,,,,,10,,,,69,110
103322,note_on,21,0,7,,,,,,,,,11,,,,65,110
103323,note_on,36,0,1,,,,,,,,,0,,,,81,0
103323,note_on,0,0,1,,,,,,,,,0,,,,84,97
103326,note_on,21,0,8,,,,,,,,,12,,,,60,108
103329,control_change,6,0,1,,,,,,,,,0,11,63,,,
103331,control_change,42,0,2,,,,,,,,,1,11,63,,,
103359,note_on,39,0,6,,,,,,,,,10,,,,69,0
103361,note_on,39,0,7,,,,,,,,,11,,,,65,0
103365,note_on,39,0,8,,,,,,,,,12,,,,60,0
103371,control_change,42,0,1,,,,,,,,,0,11,62,,,
103373,control_change,42,0,2,,,,,,,,,1,11,62,,,
103380,note_on,21,0,6,,,,,,,,,10,,,,69,101
103382,note_on,21,0,7,,,,,,,,,11,,,,65,101
103386,note_on,21,0,8,,,,,,,,,12,,,,60,99
103413,control_change,42,0,1,,,,,,,,,0,11,62,,,
103415,control_change,42,0,2,,,,,,,,,1,11,62,,,
103419,note_on,39,0,6,,,,,,,,,10,,,,69,0
103421,note_on,39,0,7,,,,,,,,,11,,,,65,0
103425,note_on,39,0,8,,,,,,,,,12,,,,60,0
103440,note_on,21,0,6,,,,,,,,,10,,,,68,110
103440,set_tempo,240,1,0,,,,,,268456,,,,,,,,
103442,note_on,21,0,7,,,,,,,,,11,,,,65,110
103443,note_on,30,0,1,,,,,,,,,0,,,,84,0
103443,note_on,0,0,1,,,,,,,,,0,,,,82,97
103445,note_on,30,0,2,,,,,,,,,1,,,,72,0
103445,note_on,0,0,2,,,,,,,,,1,,,,70,97
103446,note_on,21,0,8,,,,,,,,,12,,,,60,108
103455,control_change,12,0,1,,,,,,,,,0,11,61,,,
103457,control_change,12,0,2,,,,,,,,,1,11,61,,,
103479,note_on,39,0,6,,,,,,,,,10,,,,68,0
103481,note_on,39,0,7,,,,,,,,,11,,,,65,0
103485,note_on,39,0,8,,,,,,,,,12,,,,60,0
103497,control_change,42,0,1,,,,,,,,,0,11,60,,,
103499,control_change,42,0,2,,,,,,,,,1,11,60,,,
103500,note_on,21,0,6,,,,,,,,,10,,,,68,101
103502,note_on,21,0,7,,,,,,,,,11,,,,65,101
103503,note_on,0,0,1,,,,,,,,,0,,,,80,97
103503,note_on,6,0,1,,,,,,,,,0,,,,82,0
103505,note_on,0,0,2,,,,,,,,,1,,,,68,97
103505,note_on,6,0,2,,,,,,,,,1,,,,70,0
103506,note_on,21,0,8,,,,,,,,,12,,,,60,99
103539,control_change,36,0,1,,,,,,,,,0,11,59,,,
103539,note_on,39,0,6,,,,,,,,,10,,,,68,0
103541,control_change,36,0,2,,,,,,,,,1,11,59,,,
103541,note_on,39,0,7,,,,,,,,,11,,,,65,0
103545,note_on,39,0,8,,,,,,,,,12,,,,60,0
103560,note_on,21,0,6,,,,,,,,,10,,,,68,110
103562,note_on,21,0,7,,,,,,,,,11,,,,65,110
103563,note_on,24,0,1,,,,,,,,,0,,,,80,0
103563,note_on,0,0,1,,,,,,,,,0,,,,79,97
103565,note_on,0,0,2,,,,,,,,,1,,,,67,97
103565,note_on,24,0,2,,,,,,,,,1,,,,68,0
103566,note_on,21,0,8,,,,,,,,,12,,,,60,108
103581,control_change,18,0,1,,,,,,,,,0,11,58,,,
103583,control_change,18,0,2,,,,,,,,,1,11,58,,,
103599,note_on,39,0,6,,,,,,,,,10,,,,68,0
103601,note_on,39,0,7,,,,,,,,,11,,,,65,0
103605,note_on,39,0,8,,,,,,,,,12,,,,60,0
103620,note_on,21,0,6,,,,,,,,,10,,,,68,101
103622,note_on,21,0,7,,,,,,,,,11,,,,65,101
103623,note_on,42,0,1,,,,,,,,,0,,,,79,0
103623,note_on,0,0,1,,,,,,,,,0,,,,77,97
103623,control_change,0,0,1,,,,,,,,,0,11,57,,,
103625,note_on,42,0,2,,,,,,,,,1,,,,67,0
103625,note_on,0,0,2,,,,,,,,,1,,,,65,97
103625,control_change,0,0,2,,,,,,,,,1,11,57,,,
103626,note_on,21,0,8,,,,,,,,,12,,,,60,99
103659,note_on,39,0,6,,,,,,,,,10,,,,68,0
103661,note_on,39,0,7,,,,,,,,,11,,,,65,0
103665,note_on,39,0,8,,,,,,,,,12,,,,60,0
103680,set_tempo,240,1,0,,,,,,279720,,,,,,,,
103680,note_on,21,0,6,,,,,,,,,10,,,,67,110
103682,note_on,21,0,7,,,,,,,,,11,,,,65,110
103683,note_on,0,0,1,,,,,,,,,0,,,,82,110
103683,control_change,0,0,1,,,,,,,,,0,11,65,,,
103683,note_on,60,0,1,,,,,,,,,0,,,,77,0
103685,note_on,0,0,2,,,,,,,,,1,,,,70,110
103685,control_change,0,0,2,,,,,,,,,1,11,65,,,
103685,note_on,60,0,2,,,,,,,,,1,,,,65,0
103686,note_on,21,0,8,,,,,,,,,12,,,,60,108
103690,note_on,0,0,9,,,,,,,,,13,,,,48,99
103690,note_on,480,0,9,,,,,,,,,13,,,,60,0
103692,note_on,480,0,10,,,,,,,,,14,,,,48,0
103692,note_on,0,0,10,,,,,,,,,14,,,,36,93
103719,note_on,39,0,6,,,,,,,,,10,,,,67,0
103721,note_on,39,0,7,,,,,,,,,11,,,,65,0
103725,note_on,39,0,8,,,,,,,,,12,,,,60,0
103725,control_change,42,0,1,,,,,,,,,0,11,64,,,
103727,control_change,42,0,2,,,,,,,,,1,11,64,,,
103740,note_on,21,0,6,,,,,,,,,10,,,,67,101
103742,note_on,21,0,7,,,,,,,,,11,,,,65,101
103746,note_on,21,0,8,,,,,,,,,12,,,,60,99
103767,control_change,42,0,1,,,,,,,,,0,11,64,,,
103769,control_change,42,0,2,,,,,,,,,1,11,64,,,
103779,note_on,39,0,6,,,,,,,,,10,,,,67,0
103781,note_on,39,0,7,,,,,,,,,11,,,,65,0
103785,note_on,39,0,8,,,,,,,,,12,,,,60,0
103800,note_on,21,0,6,,,,,,,,,10,,,,67,110
103802,note_on,21,0,7,,,,,,,,,11,,,,65,110
103806,note_on,21,0,8,,,,,,,,,12,,,,60,108
103809,control_change,42,0,1,,,,,,,,,0,11,63,,,
103811,control_change,42,0,2,,,,,,,,,1,11,63,,,
103839,note_on,39,0,6,,,,,,,,,10,,,,67,0
103841,note_on,39,0,7,,,,,,,,,11,,,,65,0
103845,note_on,39,0,8,,,,,,,,,12,,,,60,0
103851,control_change,42,0,1,,,,,,,,,0,11,62,,,
103853,control_change,42,0,2,,,,,,,,,1,11,62,,,
103860,note_on,21,0,6,,,,,,,,,10,,,,67,101
103862,note_on,21,0,7,,,,,,,,,11,,,,65,101
103866,note_on,21,0,8,,,,,,,,,12,,,,60,99
103893,control_change,42,0,1,,,,,,,,,0,11,62,,,
103895,control_change,42,0,2,,,,,,,,,1,11,62,,,
103899,note_on,39,0,6,,,,,,,,,10,,,,67,0
103901,note_on,39,0,7,,,,,,,,,11,,,,65,0
103905,note_on,39,0,8,,,,,,,,,12,,,,60,0
103920,note_on,21,0,6,,,,,,,,,10,,,,72,110
103920,set_tempo,240,1,0,,,,,,268456,,,,,,,,
103922,note_on,21,0,7,,,,,,,,,11,,,,64,110
103923,note_on,30,0,1,,,,,,,,,0,,,,82,0
103923,note_on,0,0,1,,,,,,,,,0,,,,80,97
103925,note_on,0,0,2,,,,,,,,,1,,,,68,97
103925,note_on,30,0,2,,,,,,,,,1,,,,70,0
103926,note_on,21,0,8,,,,,,,,,12,,,,60,108
103935,control_change,12,0,1,,,,,,,,,0,11,61,,,
103937,control_change,12,0,2,,,,,,,,,1,11,61,,,
103959,note_on,39,0,6,,,,,,,,,10,,,,72,0
103961,note_on,39,0,7,,,,,,,,,11,,,,64,0
103965,note_on,39,0,8,,,,,,,,,12,,,,60,0
103977,control_change,42,0,1,,,,,,,,,0,11,60,,,
103979,control_change,42,0,2,,,,,,,,,1,11,60,,,
103980,note_on,21,0,6,,,,,,,,,10,,,,72,101
103982,note_on,21,0,7,,,,,,,,,11,,,,64,101
103983,note_on,6,0,1,,,,,,,,,0,,,,80,0
103983,note_on,0,0,1,,,,,,,,,0,,,,79,97
103985,note_on,0,0,2,,,,,,,,,1,,,,67,97
103985,note_on,6,0,2,,,,,,,,,1,,,,68,0
103986,note_on,21,0,8,,,,,,,,,12,,,,60,99
104019,control_change,36,0,1,,,,,,,,,0,11,59,,,
104019,note_on,39,0,6,,,,,,,,,10,,,,72,0
104021,note_on,39,0,7,,,,,,,,,11,,,,64,0
104021,control_change,36,0,2,,,,,,,,,1,11,59,,,
104025,note_on,39,0,8,,,,,,,,,12,,,,60,0
104040,note_on,21,0,6,,,,,,,,,10,,,,72,110
104042,note_on,21,0,7,,,,,,,,,11,,,,64,110
104043,note_on,24,0,1,,,,,,,,,0,,,,79,0
104043,note_on,0,0,1,,,,,,,,,0,,,,77,97
104045,note_on,24,0,2,,,,,,,,,1,,,,67,0
104045,note_on,0,0,2,,,,,,,,,1,,,,65,97
104046,note_on,21,0,8,,,,,,,,,12,,,,60,108
104061,control_change,18,0,1,,,,,,,,,0,11,58,,,
104063,control_change,18,0,2,,,,,,,,,1,11,58,,,
104079,note_on,39,0,6,,,,,,,,,10,,,,72,0
104081,note_on,39,0,7,,,,,,,,,11,,,,64,0
104085,note_on,39,0,8,,,,,,,,,12,,,,60,0
104100,note_on,21,0,6,,,,,,,,,10,,,,72,101
104102,note_on,21,0,7,,,,,,,,,11,,,,64,101
104103,control_change,0,0,1,,,,,,,,,0,11,57,,,
104103,note_on,0,0,1,,,,,,,,,0,,,,76,97
104103,note_on,42,0,1,,,,,,,,,0,,,,77,0
104105,note_on,0,0,2,,,,,,,,,1,,,,64,97
104105,control_change,0,0,2,,,,,,,,,1,11,57,,,
104105,note_on,42,0,2,,,,,,,,,1,,,,65,0
104106,note_on,21,0,8,,,,,,,,,12,,,,60,99
104139,note_on,39,0,6,,,,,,,,,10,,,,72,0
104141,note_on,39,0,7,,,,,,,,,11,,,,64,0
104145,note_on,39,0,8,,,,,,,,,12,,,,60,0
104160,set_tempo,240,1,0,,,,,,272727,,,,,,,,
104160,control_change,21,0,6,,,,,,,,,10,11,65,,,
104160,note_on,0,0,6,,,,,,,,,10,,,,77,110
104162,note_on,0,0,7,,,,,,,,,11,,,,65,110
104162,control_change,21,0,7,,,,,,,,,11,11,65,,,
104162,note_on,0,0,7,,,,,,,,,11,,,,69,110
104163,note_on,0,0,1,,,,,,,,,0,,,,77,97
104163,note_on,60,0,1,,,,,,,,,0,,,,76,0
104163,control_change,0,0,1,,,,,,,,,0,11,89,,,
104164,note_on,960,0,4,,,,,,,,,4,,,,60,0
104164,control_change,0,0,4,,,,,,,,,4,11,89,,,
104164,note_on,0,0,4,,,,,,,,,4,,,,65,96
104165,note_on,0,0,2,,,,,,,,,1,,,,65,97
104165,control_change,0,0,2,,,,,,,,,1,11,89,,,
104165,note_on,60,0,2,,,,,,,,,1,,,,64,0
104166,note_on,960,0,5,,,,,,,,,5,,,,60,0
104166,control_change,0,0,5,,,,,,,,,5,11,89,,,
104166,control_change,21,0,8,,,,,,,,,12,11,65,,,
104166,note_on,0,0,8,,,,,,,,,12,,,,53,108
104166,note_on,0,0,5,,,,,,,,,5,,,,53,96
104170,note_on,0,0,9,,,,,,,,,13,,,,53,99
104170,control_change,0,0,9,,,,,,,,,13,11,65,,,
104170,note_on,480,0,9,,,,,,,,,13,,,,48,0
104170,control_change,10,0,6,,,,,,,,,10,11,69,,,
104171,note_on,0,0,3,,,,,,,,,3,,,,48,0
104171,control_change,0,0,3,,,,,,,,,3,11,89,,,
104171,note_on,960,0,3,,,,,,,,,3,,,,60,0
104171,note_on,0,0,3,,,,,,,,,3,,,,53,97
104172,note_on,480,0,10,,,,,,,,,14,,,,36,0
104172,control_change,10,0,7,,,,,,,,,11,11,69,,,
104172,control_change,0,0,10,,,,,,,,,14,11,65,,,
104172,note_on,0,0,10,,,,,,,,,14,,,,41,93
104176,control_change,10,0,8,,,,,,,,,12,11,69,,,
104180,control_change,10,0,6,,,,,,,,,10,11,73,,,
104180,control_change,10,0,9,,,,,,,,,13,11,69,,,
104182,control_change,10,0,7,,,,,,,,,11,11,73,,,
104182,control_change,10,0,10,,,,,,,,,14,11,69,,,
104186,control_change,10,0,8,,,,,,,,,12,11,73,,,
104190,control_change,10,0,9,,,,,,,,,13,11,73,,,
104190,control_change,10,0,6,,,,,,,,,10,11,77,,,
104192,control_change,10,0,10,,,,,,,,,14,11,73,,,
104192,control_change,10,0,7,,,,,,,,,11,11,77,,,
104196,control_change,10,0,8,,,,,,,,,12,11,77,,,
104196,control_change,6,0,6,,,,,,,,,10,11,80,,,
104198,control_change,6,0,7,,,,,,,,,11,11,80,,,
104200,control_change,10,0,9,,,,,,,,,13,11,77,,,
104202,control_change,6,0,8,,,,,,,,,12,11,80,,,
104202,control_change,10,0,10,,,,,,,,,14,11,77,,,
104206,control_change,10,0,6,,,,,,,,,10,11,84,,,
104206,control_change,6,0,9,,,,,,,,,13,11,80,,,
104208,control_change,6,0,10,,,,,,,,,14,11,80,,,
104208,control_change,10,0,7,,,,,,,,,11,11,84,,,
104212,control_change,10,0,8,,,,,,,,,12,11,84,,,
104216,control_change,10,0,6,,,,,,,,,10,11,88,,,
104216,control_change,10,0,9,,,,,,,,,13,11,84,,,
104218,control_change,10,0,10,,,,,,,,,14,11,84,,,
104218,control_change,10,0,7,,,,,,,,,11,11,88,,,
104222,control_change,10,0,8,,,,,,,,,12,11,88,,,
104226,control_change,10,0,9,,,,,,,,,13,11,88,,,
104228,control_change,10,0,10,,,,,,,,,14,11,88,,,
104295,note_on,79,0,6,,,,,,,,,10,,,,77,0
104297,note_on,79,0,7,,,,,,,,,11,,,,65,0
104297,note_on,0,0,7,,,,,,,,,11,,,,69,0
104301,note_on,79,0,8,,,,,,,,,12,,,,53,0
104305,note_on,79,0,9,,,,,,,,,13,,,,53,0
104307,note_on,79,0,10,,,,,,,,,14,,,,41,0
104333,note_on,170,0,1,,,,,,,,,0,,,,77,0
104334,note_on,170,0,4,,,,,,,,,4,,,,65,0
104335,note_on,170,0,2,,,,,,,,,1,,,,65,0
104336,note_on,170,0,5,,,,,,,,,5,,,,53,0
104340,note_on,45,0,6,,,,,,,,,10,,,,77,110
104341,note_on,170,0,3,,,,,,,,,3,,,,53,0
104342,note_on,45,0,7,,,,,,,,,11,,,,69,110
104343,note_on,10,0,1,,,,,,,,,0,,,,89,97
104344,note_on,10,0,4,,,,,,,,,4,,,,65,96
104345,note_on,0,0,2,,,,,,,,,1,,,,69,97
104345,note_on,10,0,2,,,,,,,,,1,,,,81,97
104346,note_on,45,0,8,,,,,,,,,12,,,,53,108
104346,note_on,10,0,5,,,,,,,,,5,,,,53,96
104350,note_on,45,0,9,,,,,,,,,13,,,,53,99
104351,note_on,10,0,3,,,,,,,,,3,,,,53,97
104352,note_on,45,0,10,,,,,,,,,14,,,,41,93
104375,note_on,35,0,6,,,,,,,,,10,,,,77,0
104377,note_on,35,0,7,,,,,,,,,11,,,,69,0
104381,note_on,35,0,8,,,,,,,,,12,,,,53,0
104385,note_on,35,0,9,,,,,,,,,13,,,,53,0
104387,note_on,35,0,10,,,,,,,,,14,,,,41,0
104393,note_on,50,0,1,,,,,,,,,0,,,,89,0
104394,note_on,50,0,4,,,,,,,,,4,,,,65,0
104395,note_on,50,0,2,,,,,,,,,1,,,,69,0
104395,note_on,0,0,2,,,,,,,,,1,,,,81,0
104396,note_on,50,0,5,,,,,,,,,5,,,,53,0
104400,set_tempo,240,1,0,,,,,,261438,,,,,,,,
104400,note_on,25,0,6,,,,,,,,,10,,,,77,110
104401,note_on,50,0,3,,,,,,,,,3,,,,53,0
104402,note_on,25,0,7,,,,,,,,,11,,,,70,110
104403,note_on,10,0,1,,,,,,,,,0,,,,89,97
104404,note_on,10,0,4,,,,,,,,,4,,,,65,96
104405,note_on,0,0,2,,,,,,,,,1,,,,82,97
104405,note_on,10,0,2,,,,,,,,,1,,,,70,97
104406,note_on,25,0,8,,,,,,,,,12,,,,55,108
104406,note_on,10,0,5,,,,,,,,,5,,,,53,96
104410,note_on,25,0,9,,,,,,,,,13,,,,55,99
104411,note_on,10,0,3,,,,,,,,,3,,,,55,97
104412,note_on,25,0,10,,,,,,,,,14,,,,43,93
104535,note_on,135,0,6,,,,,,,,,10,,,,77,0
104537,note_on,135,0,7,,,,,,,,,11,,,,70,0
104541,note_on,135,0,8,,,,,,,,,12,,,,55,0
104545,note_on,135,0,9,,,,,,,,,13,,,,55,0
104547,note_on,135,0,10,,,,,,,,,14,,,,43,0
104573,note_on,170,0,1,,,,,,,,,0,,,,89,0
104574,note_on,170,0,4,,,,,,,,,4,,,,65,0
104575,note_on,0,0,2,,,,,,,,,1,,,,70,0
104575,note_on,170,0,2,,,,,,,,,1,,,,82,0
104576,note_on,170,0,5,,,,,,,,,5,,,,53,0
104580,note_on,45,0,6,,,,,,,,,10,,,,77,110
104581,note_on,170,0,3,,,,,,,,,3,,,,55,0
104582,note_on,45,0,7,,,,,,,,,11,,,,70,110
104583,note_on,10,0,1,,,,,,,,,0,,,,89,97
104584,note_on,10,0,4,,,,,,,,,4,,,,65,96
104585,note_on,0,0,2,,,,,,,,,1,,,,82,97
104585,note_on,10,0,2,,,,,,,,,1,,,,70,97
104586,note_on,10,0,5,,,,,,,,,5,,,,53,96
104586,note_on,45,0,8,,,,,,,,,12,,,,55,108
104590,note_on,45,0,9,,,,,,,,,13,,,,55,99
104591,note_on,10,0,3,,,,,,,,,3,,,,55,97
104592,note_on,45,0,10,,,,,,,,,14,,,,43,93
104615,note_on,35,0,6,,,,,,,,,10,,,,77,0
104617,note_on,35,0,7,,,,,,,,,11,,,,70,0
104621,note_on,35,0,8,,,,,,,,,12,,,,55,0
104625,note_on,35,0,9,,,,,,,,,13,,,,55,0
104627,note_on,35,0,10,,,,,,,,,14,,,,43,0
104633,note_on,50,0,1,,,,,,,,,0,,,,89,0
104634,note_on,50,0,4,,,,,,,,,4,,,,65,0
104635,note_on,50,0,2,,,,,,,,,1,,,,82,0
104635,note_on,0,0,2,,,,,,,,,1,,,,70,0
104636,note_on,50,0,5,,,,,,,,,5,,,,53,0
104640,note_on,25,0,6,,,,,,,,,10,,,,77,110
104640,set_tempo,240,1,0,,,,,,272727,,,,,,,,
104641,note_on,50,0,3,,,,,,,,,3,,,,55,0
104642,note_on,25,0,7,,,,,,,,,11,,,,71,110
104643,note_on,10,0,1,,,,,,,,,0,,,,89,97
104644,note_on,10,0,4,,,,,,,,,4,,,,65,96
104645,note_on,10,0,2,,,,,,,,,1,,,,83,97
104645,note_on,0,0,2,,,,,,,,,1,,,,71,97
104646,note_on,25,0,8,,,,,,,,,12,,,,56,108
104646,note_on,10,0,5,,,,,,,,,5,,,,53,96
104650,note_on,25,0,9,,,,,,,,,13,,,,56,99
104651,note_on,10,0,3,,,,,,,,,3,,,,56,97
104652,note_on,25,0,10,,,,,,,,,14,,,,44,93
104775,note_on,135,0,6,,,,,,,,,10,,,,77,0
104777,note_on,135,0,7,,,,,,,,,11,,,,71,0
104781,note_on,135,0,8,,,,,,,,,12,,,,56,0
104785,note_on,135,0,9,,,,,,,,,13,,,,56,0
104787,note_on,135,0,10,,,,,,,,,14,,,,44,0
104813,note_on,170,0,1,,,,,,,,,0,,,,89,0
104814,note_on,170,0,4,,,,,,,,,4,,,,65,0
104815,note_on,170,0,2,,,,,,,,,1,,,,71,0
104815,note_on,0,0,2,,,,,,,,,1,,,,83,0
104816,note_on,170,0,5,,,,,,,,,5,,,,53,0
104820,note_on,45,0,6,,,,,,,,,10,,,,77,110
104821,note_on,170,0,3,,,,,,,,,3,,,,56,0
104822,note_on,45,0,7,,,,,,,,,11,,,,71,110
104823,note_on,10,0,1,,,,,,,,,0,,,,89,97
104824,note_on,10,0,4,,,,,,,,,4,,,,65,96
104825,note_on,10,0,2,,,,,,,,,1,,,,83,97
104825,note_on,0,0,2,,,,,,,,,1,,,,71,97
104826,note_on,10,0,5,,,,,,,,,5,,,,53,96
104826,note_on,45,0,8,,,,,,,,,12,,,,56,108
104830,note_on,45,0,9,,,,,,,,,13,,,,56,99
104831,note_on,10,0,3,,,,,,,,,3,,,,56,97
104832,note_on,45,0,10,,,,,,,,,14,,,,44,93
104855,note_on,35,0,6,,,,,,,,,10,,,,77,0
104857,note_on,35,0,7,,,,,,,,,11,,,,71,0
104861,note_on,35,0,8,,,,,,,,,12,,,,56,0
104865,note_on,35,0,9,,,,,,,,,13,,,,56,0
104867,note_on,35,0,10,,,,,,,,,14,,,,44,0
104873,note_on,50,0,1,,,,,,,,,0,,,,89,0
104874,note_on,50,0,4,,,,,,,,,4,,,,65,0
104875,note_on,0,0,2,,,,,,,,,1,,,,83,0
104875,note_on,50,0,2,,,,,,,,,1,,,,71,0
104876,note_on,50,0,5,,,,,,,,,5,,,,53,0
104880,note_on,25,0,6,,,,,,,,,10,,,,77,110
104880,set_tempo,240,1,0,,,,,,261438,,,,,,,,
104881,note_on,50,0,3,,,,,,,,,3,,,,56,0
104882,note_on,25,0,7,,,,,,,,,11,,,,72,110
104883,note_on,10,0,1,,,,,,,,,0,,,,89,97
104884,note_on,10,0,4,,,,,,,,,4,,,,65,96
104885,note_on,0,0,2,,,,,,,,,1,,,,72,97
104885,note_on,10,0,2,,,,,,,,,1,,,,84,97
104886,note_on,25,0,8,,,,,,,,,12,,,,57,108
104886,note_on,10,0,5,,,,,,,,,5,,,,53,96
104890,note_on,25,0,9,,,,,,,,,13,,,,57,99
104891,note_on,10,0,3,,,,,,,,,3,,,,57,97
104892,note_on,25,0,10,,,,,,,,,14,,,,45,93
105015,note_on,135,0,6,,,,,,,,,10,,,,77,0
105017,note_on,135,0,7,,,,,,,,,11,,,,72,0
105021,note_on,135,0,8,,,,,,,,,12,,,,57,0
105025,note_on,135,0,9,,,,,,,,,13,,,,57,0
105027,note_on,135,0,10,,,,,,,,,14,,,,45,0
105053,note_on,170,0,1,,,,,,,,,0,,,,89,0
105054,note_on,170,0,4,,,,,,,,,4,,,,65,0
105055,note_on,0,0,2,,,,,,,,,1,,,,84,0
105055,note_on,170,0,2,,,,,,,,,1,,,,72,0
105056,note_on,170,0,5,,,,,,,,,5,,,,53,0
105060,note_on,45,0,6,,,,,,,,,10,,,,77,110
105061,note_on,170,0,3,,,,,,,,,3,,,,57,0
105062,note_on,45,0,7,,,,,,,,,11,,,,72,110
105063,note_on,10,0,1,,,,,,,,,0,,,,89,97
105064,note_on,10,0,4,,,,,,,,,4,,,,65,96
105065,note_on,10,0,2,,,,,,,,,1,,,,72,97
105065,note_on,0,0,2,,,,,,,,,1,,,,84,97
105066,note_on,45,0,8,,,,,,,,,12,,,,57,108
105066,note_on,10,0,5,,,,,,,,,5,,,,53,96
105070,note_on,45,0,9,,,,,,,,,13,,,,57,99
105071,note_on,10,0,3,,,,,,,,,3,,,,57,97
105072,note_on,45,0,10,,,,,,,,,14,,,,45,93
105095,note_on,35,0,6,,,,,,,,,10,,,,77,0
105097,note_on,35,0,7,,,,,,,,,11,,,,72,0
105101,note_on,35,0,8,,,,,,,,,12,,,,57,0
105105,note_on,35,0,9,,,,,,,,,13,,,,57,0
105107,note_on,35,0,10,,,,,,,,,14,,,,45,0
105113,note_on,50,0,1,,,,,,,,,0,,,,89,0
105114,note_on,50,0,4,,,,,,,,,4,,,,65,0
105115,note_on,50,0,2,,,,,,,,,1,,,,84,0
105115,note_on,0,0,2,,,,,,,,,1,,,,72,0
105116,note_on,50,0,5,,,,,,,,,5,,,,53,0
105120,note_on,25,0,6,,,,,,,,,10,,,,77,110
105120,set_tempo,240,1,0,,,,,,272727,,,,,,,,
105121,note_on,50,0,3,,,,,,,,,3,,,,57,0
105122,note_on,25,0,7,,,,,,,,,11,,,,73,110
105123,note_on,10,0,1,,,,,,,,,0,,,,89,97
105124,note_on,10,0,4,,,,,,,,,4,,,,65,96
105125,note_on,10,0,2,,,,,,,,,1,,,,85,97
105125,note_on,0,0,2,,,,,,,,,1,,,,73,97
105126,note_on,10,0,5,,,,,,,,,5,,,,53,96
105126,note_on,25,0,8,,,,,,,,,12,,,,58,108
105130,note_on,25,0,9,,,,,,,,,13,,,,58,99
105131,note_on,10,0,3,,,,,,,,,3,,,,58,97
105132,note_on,25,0,10,,,,,,,,,14,,,,46,93
105255,note_on,135,0,6,,,,,,,,,10,,,,77,0
105257,note_on,135,0,7,,,,,,,,,11,,,,73,0
105261,note_on,135,0,8,,,,,,,,,12,,,,58,0
105265,note_on,135,0,9,,,,,,,,,13,,,,58,0
105267,note_on,135,0,10,,,,,,,,,14,,,,46,0
105293,note_on,170,0,1,,,,,,,,,0,,,,89,0
105294,note_on,170,0,4,,,,,,,,,4,,,,65,0
105295,note_on,170,0,2,,,,,,,,,1,,,,73,0
105295,note_on,0,0,2,,,,,,,,,1,,,,85,0
105296,note_on,170,0,5,,,,,,,,,5,,,,53,0
105300,note_on,45,0,6,,,,,,,,,10,,,,77,110
105301,note_on,170,0,3,,,,,,,,,3,,,,58,0
105302,note_on,45,0,7,,,,,,,,,11,,,,73,110
105303,note_on,10,0,1,,,,,,,,,0,,,,89,97
105304,note_on,10,0,4,,,,,,,,,4,,,,65,96
105305,note_on,10,0,2,,,,,,,,,1,,,,73,97
105305,note_on,0,0,2,,,,,,,,,1,,,,85,97
105306,note_on,45,0,8,,,,,,,,,12,,,,58,108
105306,note_on,10,0,5,,,,,,,,,5,,,,53,96
105310,note_on,45,0,9,,,,,,,,,13,,,,58,99
105311,note_on,10,0,3,,,,,,,,,3,,,,58,97
105312,note_on,45,0,10,,,,,,,,,14,,,,46,93
105335,note_on,35,0,6,,,,,,,,,10,,,,77,0
105337,note_on,35,0,7,,,,,,,,,11,,,,73,0
105341,note_on,35,0,8,,,,,,,,,12,,,,58,0
105345,note_on,35,0,9,,,,,,,,,13,,,,58,0
105347,note_on,35,0,10,,,,,,,,,14,,,,46,0
105353,note_on,50,0,1,,,,,,,,,0,,,,89,0
105354,note_on,50,0,4,,,,,,,,,4,,,,65,0
105355,note_on,50,0,2,,,,,,,,,1,,,,85,0
105355,note_on,0,0,2,,,,,,,,,1,,,,73,0
105356,note_on,50,0,5,,,,,,,,,5,,,,53,0
105360,note_on,25,0,6,,,,,,,,,10,,,,77,110
105360,set_tempo,240,1,0,,,,,,261438,,,,,,,,
105361,note_on,50,0,3,,,,,,,,,3,,,,58,0
105362,note_on,25,0,7,,,,,,,,,11,,,,69,110
105363,note_on,10,0,1,,,,,,,,,0,,,,89,97
105364,note_on,10,0,4,,,,,,,,,4,,,,65,96
105365,note_on,10,0,2,,,,,,,,,1,,,,69,97
105365,note_on,0,0,2,,,,,,,,,1,,,,81,97
105366,note_on,25,0,8,,,,,,,,,12,,,,60,108
105366,note_on,10,0,5,,,,,,,,,5,,,,53,96
105370,note_on,25,0,9,,,,,,,,,13,,,,60,99
105371,note_on,10,0,3,,,,,,,,,3,,,,60,97
105372,note_on,25,0,10,,,,,,,,,14,,,,48,93
105495,note_on,135,0,6,,,,,,,,,10,,,,77,0
105497,note_on,135,0,7,,,,,,,,,11,,,,69,0
105501,note_on,135,0,8,,,,,,,,,12,,,,60,0
105505,note_on,135,0,9,,,,,,,,,13,,,,60,0
105507,note_on,135,0,10,,,,,,,,,14,,,,48,0
105533,note_on,170,0,1,,,,,,,,,0,,,,89,0
105534,note_on,170,0,4,,,,,,,,,4,,,,65,0
105535,note_on,170,0,2,,,,,,,,,1,,,,81,0
105535,note_on,0,0,2,,,,,,,,,1,,,,69,0
105536,note_on,170,0,5,,,,,,,,,5,,,,53,0
105540,note_on,45,0,6,,,,,,,,,10,,,,77,110
105541,note_on,170,0,3,,,,,,,,,3,,,,60,0
105542,note_on,45,0,7,,,,,,,,,11,,,,69,110
105543,note_on,10,0,1,,,,,,,,,0,,,,89,97
105544,note_on,10,0,4,,,,,,,,,4,,,,65,96
105545,note_on,0,0,2,,,,,,,,,1,,,,81,97
105545,note_on,10,0,2,,,,,,,,,1,,,,69,97
105546,note_on,10,0,5,,,,,,,,,5,,,,53,96
105546,note_on,45,0,8,,,,,,,,,12,,,,60,108
105550,note_on,45,0,9,,,,,,,,,13,,,,60,99
105551,note_on,10,0,3,,,,,,,,,3,,,,60,97
105552,note_on,45,0,10,,,,,,,,,14,,,,48,93
105575,note_on,35,0,6,,,,,,,,,10,,,,77,0
105577,note_on,35,0,7,,,,,,,,,11,,,,69,0
105581,note_on,35,0,8,,,,,,,,,12,,,,60,0
105585,note_on,35,0,9,,,,,,,,,13,,,,60,0
105587,note_on,35,0,10,,,,,,,,,14,,,,48,0
105593,note_on,50,0,1,,,,,,,,,0,,,,89,0
105594,note_on,50,0,4,,,,,,,,,4,,,,65,0
105595,note_on,50,0,2,,,,,,,,,1,,,,81,0
105595,note_on,0,0,2,,,,,,,,,1,,,,69,0
105596,note_on,50,0,5,,,,,,,,,5,,,,53,0
105600,set_tempo,240,1,0,,,,,,272727,,,,,,,,
105600,note_on,25,0,6,,,,,,,,,10,,,,77,110
105601,note_on,50,0,3,,,,,,,,,3,,,,60,0
105602,note_on,25,0,7,,,,,,,,,11,,,,70,110
105603,note_on,10,0,1,,,,,,,,,0,,,,89,97
105604,note_on,10,0,4,,,,,,,,,4,,,,65,96
105605,note_on,10,0,2,,,,,,,,,1,,,,70,97
105605,note_on,0,0,2,,,,,,,,,1,,,,82,97
105606,note_on,10,0,5,,,,,,,,,5,,,,53,96
105606,note_on,25,0,8,,,,,,,,,12,,,,61,108
105610,note_on,25,0,9,,,,,,,,,13,,,,61,99
105611,note_on,10,0,3,,,,,,,,,3,,,,61,97
105612,note_on,25,0,10,,,,,,,,,14,,,,49,93
105735,note_on,135,0,6,,,,,,,,,10,,,,77,0
105737,note_on,135,0,7,,,,,,,,,11,,,,70,0
105741,note_on,135,0,8,,,,,,,,,12,,,,61,0
105745,note_on,135,0,9,,,,,,,,,13,,,,61,0
105747,note_on,135,0,10,,,,,,,,,14,,,,49,0
105773,note_on,170,0,1,,,,,,,,,0,,,,89,0
105774,note_on,170,0,4,,,,,,,,,4,,,,65,0
105775,note_on,170,0,2,,,,,,,,,1,,,,82,0
105775,note_on,0,0,2,,,,,,,,,1,,,,70,0
105776,note_on,170,0,5,,,,,,,,,5,,,,53,0
105780,note_on,45,0,6,,,,,,,,,10,,,,77,110
105781,note_on,170,0,3,,,,,,,,,3,,,,61,0
105782,note_on,45,0,7,,,,,,,,,11,,,,70,110
105783,note_on,10,0,1,,,,,,,,,0,,,,89,97
105784,note_on,10,0,4,,,,,,,,,4,,,,65,96
105785,note_on,0,0,2,,,,,,,,,1,,,,82,97
105785,note_on,10,0,2,,,,,,,,,1,,,,70,97
105786,note_on,45,0,8,,,,,,,,,12,,,,61,108
105786,note_on,10,0,5,,,,,,,,,5,,,,53,96
105790,note_on,45,0,9,,,,,,,,,13,,,,61,99
105791,note_on,10,0,3,,,,,,,,,3,,,,61,97
105792,note_on,45,0,10,,,,,,,,,14,,,,49,93
105815,note_on,35,0,6,,,,,,,,,10,,,,77,0
105817,note_on,35,0,7,,,,,,,,,11,,,,70,0
105821,note_on,35,0,8,,,,,,,,,12,,,,61,0
105825,note_on,35,0,9,,,,,,,,,13,,,,61,0
105827,note_on,35,0,10,,,,,,,,,14,,,,49,0
105833,note_on,50,0,1,,,,,,,,,0,,,,89,0
105834,note_on,50,0,4,,,,,,,,,4,,,,65,0
105835,note_on,0,0,2,,,,,,,,,1,,,,70,0
105835,note_on,50,0,2,,,,,,,,,1,,,,82,0
105836,note_on,50,0,5,,,,,,,,,5,,,,53,0
105840,set_tempo,240,1,0,,,,,,261438,,,,,,,,
105840,note_on,25,0,6,,,,,,,,,10,,,,77,110
105841,note_on,50,0,3,,,,,,,,,3,,,,61,0
105842,note_on,25,0,7,,,,,,,,,11,,,,71,110
105843,note_on,10,0,1,,,,,,,,,0,,,,89,97
105844,note_on,10,0,4,,,,,,,,,4,,,,65,96
105845,note_on,0,0,2,,,,,,,,,1,,,,71,97
105845,note_on,10,0,2,,,,,,,,,1,,,,83,97
105846,note_on,25,0,8,,,,,,,,,12,,,,62,108
105846,note_on,10,0,5,,,,,,,,,5,,,,53,96
105850,note_on,25,0,9,,,,,,,,,13,,,,62,99
105851,note_on,10,0,3,,,,,,,,,3,,,,62,97
105852,note_on,25,0,10,,,,,,,,,14,,,,50,93
105960,control_change,120,0,6,,,,,,,,,10,11,89,,,
105962,control_change,120,0,7,,,,,,,,,11,11,89,,,
105963,control_change,120,0,1,,,,,,,,,0,11,89,,,
105965,control_change,120,0,2,,,,,,,,,1,11,89,,,
105966,control_change,120,0,8,,,,,,,,,12,11,89,,,
105970,control_change,120,0,9,,,,,,,,,13,11,89,,,
105971,control_change,120,0,3,,,,,,,,,3,11,89,,,
105972,control_change,12,0,6,,,,,,,,,10,11,85,,,
105972,control_change,120,0,10,,,,,,,,,14,11,89,,,
105974,control_change,12,0,7,,,,,,,,,11,11,85,,,
105975,note_on,3,0,6,,,,,,,,,10,,,,77,0
105977,note_on,3,0,7,,,,,,,,,11,,,,71,0
105978,control_change,15,0,1,,,,,,,,,0,11,85,,,
105978,control_change,12,0,8,,,,,,,,,12,11,85,,,
105980,control_change,15,0,2,,,,,,,,,1,11,85,,,
105981,note_on,3,0,8,,,,,,,,,12,,,,62,0
105982,control_change,12,0,9,,,,,,,,,13,11,85,,,
105983,control_change,12,0,3,,,,,,,,,3,11,85,,,
105984,control_change,12,0,10,,,,,,,,,14,11,85,,,
105985,control_change,10,0,6,,,,,,,,,10,11,81,,,
105985,note_on,3,0,9,,,,,,,,,13,,,,62,0
105987,note_on,3,0,10,,,,,,,,,14,,,,50,0
105987,control_change,10,0,7,,,,,,,,,11,11,81,,,
105991,control_change,10,0,8,,,,,,,,,12,11,81,,,
105994,control_change,16,0,1,,,,,,,,,0,11,81,,,
105995,control_change,10,0,9,,,,,,,,,13,11,81,,,
105996,control_change,13,0,3,,,,,,,,,3,11,81,,,
105996,control_change,16,0,2,,,,,,,,,1,11,81,,,
105997,control_change,10,0,10,,,,,,,,,14,11,81,,,
105998,control_change,13,0,6,,,,,,,,,10,11,77,,,
106000,control_change,13,0,7,,,,,,,,,11,11,77,,,
106004,control_change,13,0,8,,,,,,,,,12,11,77,,,
106008,control_change,13,0,9,,,,,,,,,13,11,77,,,
106009,control_change,13,0,3,,,,,,,,,3,11,77,,,
106010,control_change,13,0,10,,,,,,,,,14,11,77,,,
106010,control_change,16,0,1,,,,,,,,,0,11,77,,,
106011,control_change,13,0,6,,,,,,,,,10,11,73,,,
106012,control_change,16,0,2,,,,,,,,,1,11,77,,,
106013,note_on,3,0,1,,,,,,,,,0,,,,89,0
106013,control_change,13,0,7,,,,,,,,,11,11,73,,,
106015,note_on,3,0,2,,,,,,,,,1,,,,71,0
106015,note_on,0,0,2,,,,,,,,,1,,,,83,0
106017,control_change,13,0,8,,,,,,,,,12,11,73,,,
106020,note_on,9,0,6,,,,,,,,,10,,,,77,110
106020,set_tempo,180,1,0,,,,,,314136,,,,,,,,
106021,control_change,13,0,9,,,,,,,,,13,11,73,,,
106021,note_on,12,0,3,,,,,,,,,3,,,,62,0
106022,control_change,1,0,3,,,,,,,,,3,11,73,,,
106022,note_on,9,0,7,,,,,,,,,11,,,,71,110
106023,control_change,13,0,10,,,,,,,,,14,11,73,,,
106023,note_on,10,0,1,,,,,,,,,0,,,,89,97
106024,control_change,4,0,6,,,,,,,,,10,11,68,,,
106025,note_on,10,0,2,,,,,,,,,1,,,,83,97
106025,note_on,0,0,2,,,,,,,,,1,,,,71,97
106026,note_on,9,0,8,,,,,,,,,12,,,,62,108
106026,control_change,3,0,1,,,,,,,,,0,11,73,,,
106026,control_change,4,0,7,,,,,,,,,11,11,68,,,
106028,control_change,3,0,2,,,,,,,,,1,11,73,,,
106030,note_on,9,0,9,,,,,,,,,13,,,,62,99
106030,control_change,4,0,8,,,,,,,,,12,11,68,,,
106031,note_on,9,0,3,,,,,,,,,3,,,,62,97
106032,note_on,9,0,10,,,,,,,,,14,,,,50,93
106034,control_change,4,0,9,,,,,,,,,13,11,68,,,
106035,control_change,4,0,3,,,,,,,,,3,11,68,,,
106036,control_change,4,0,10,,,,,,,,,14,11,68,,,
106037,control_change,13,0,6,,,,,,,,,10,11,64,,,
106039,control_change,13,0,7,,,,,,,,,11,11,64,,,
106042,control_change,16,0,1,,,,,,,,,0,11,68,,,
106043,control_change,13,0,8,,,,,,,,,12,11,64,,,
106044,control_change,16,0,2,,,,,,,,,1,11,68,,,
106047,control_change,13,0,9,,,,,,,,,13,11,64,,,
106048,control_change,13,0,3,,,,,,,,,3,11,64,,,
106049,control_change,13,0,10,,,,,,,,,14,11,64,,,
106050,note_on,13,0,6,,,,,,,,,10,,,,77,0
106050,control_change,0,0,6,,,,,,,,,10,11,60,,,
106052,control_change,0,0,7,,,,,,,,,11,11,60,,,
106052,note_on,13,0,7,,,,,,,,,11,,,,71,0
106056,note_on,13,0,8,,,,,,,,,12,,,,62,0
106056,control_change,0,0,8,,,,,,,,,12,11,60,,,
106057,control_change,7,0,6,,,,,,,,,10,11,57,,,
106058,control_change,16,0,1,,,,,,,,,0,11,64,,,
106059,control_change,7,0,7,,,,,,,,,11,11,57,,,
106060,control_change,16,0,2,,,,,,,,,1,11,64,,,
106060,control_change,13,0,9,,,,,,,,,13,11,60,,,
106061,control_change,13,0,3,,,,,,,,,3,11,60,,,
106062,control_change,13,0,10,,,,,,,,,14,11,60,,,
106063,control_change,7,0,8,,,,,,,,,12,11,57,,,
106063,control_change,6,0,6,,,,,,,,,10,11,54,,,
106065,control_change,6,0,7,,,,,,,,,11,11,54,,,
106065,note_on,5,0,9,,,,,,,,,13,,,,62,0
106067,control_change,2,0,9,,,,,,,,,13,11,57,,,
106067,note_on,5,0,10,,,,,,,,,14,,,,50,0
106068,control_change,7,0,3,,,,,,,,,3,11,57,,,
106069,control_change,6,0,8,,,,,,,,,12,11,54,,,
106069,control_change,2,0,10,,,,,,,,,14,11,57,,,
106070,control_change,7,0,6,,,,,,,,,10,11,51,,,
106072,control_change,7,0,7,,,,,,,,,11,11,51,,,
106073,control_change,6,0,9,,,,,,,,,13,11,54,,,
106073,note_on,15,0,1,,,,,,,,,0,,,,89,0
106074,control_change,1,0,1,,,,,,,,,0,11,60,,,
106074,control_change,6,0,3,,,,,,,,,3,11,54,,,
106075,control_change,6,0,10,,,,,,,,,14,11,54,,,
106075,note_on,15,0,2,,,,,,,,,1,,,,71,0
106075,note_on,0,0,2,,,,,,,,,1,,,,83,0
106076,control_change,7,0,8,,,,,,,,,12,11,51,,,
106076,control_change,1,0,2,,,,,,,,,1,11,60,,,
106076,control_change,6,0,6,,,,,,,,,10,11,48,,,
106078,control_change,6,0,7,,,,,,,,,11,11,48,,,
106080,note_on,4,0,6,,,,,,,,,10,,,,75,110
106080,control_change,7,0,9,,,,,,,,,13,11,51,,,
106080,set_tempo,60,1,0,,,,,,279720,,,,,,,,
106081,note_on,7,0,3,,,,,,,,,3,,,,62,0
106081,control_change,0,0,3,,,,,,,,,3,11,51,,,
106082,control_change,8,0,1,,,,,,,,,0,11,57,,,
106082,control_change,6,0,8,,,,,,,,,12,11,48,,,
106082,control_change,7,0,10,,,,,,,,,14,11,51,,,
106082,note_on,4,0,7,,,,,,,,,11,,,,72,110
106083,note_on,1,0,1,,,,,,,,,0,,,,87,97
106084,note_on,240,0,4,,,,,,,,,4,,,,65,0
106084,control_change,8,0,2,,,,,,,,,1,11,57,,,
106085,note_on,1,0,2,,,,,,,,,1,,,,75,97
106085,note_on,0,0,2,,,,,,,,,1,,,,84,97
106086,note_on,240,0,5,,,,,,,,,5,,,,53,0
106086,note_on,4,0,8,,,,,,,,,12,,,,63,108
106086,control_change,6,0,9,,,,,,,,,13,11,48,,,
106087,control_change,6,0,3,,,,,,,,,3,11,48,,,
106088,control_change,6,0,10,,,,,,,,,14,11,48,,,
106090,note_on,4,0,9,,,,,,,,,13,,,,63,99
106091,note_on,4,0,3,,,,,,,,,3,,,,51,97
106092,note_on,4,0,10,,,,,,,,,14,,,,51,93
106119,note_on,39,0,6,,,,,,,,,10,,,,75,0
106121,note_on,39,0,7,,,,,,,,,11,,,,72,0
106125,note_on,39,0,8,,,,,,,,,12,,,,63,0
106140,note_on,21,0,6,,,,,,,,,10,,,,75,101
106142,note_on,21,0,7,,,,,,,,,11,,,,72,101
106146,note_on,21,0,8,,,,,,,,,12,,,,63,99
106179,note_on,39,0,6,,,,,,,,,10,,,,75,0
106181,note_on,39,0,7,,,,,,,,,11,,,,72,0
106185,note_on,39,0,8,,,,,,,,,12,,,,63,0
106200,note_on,21,0,6,,,,,,,,,10,,,,75,110
106202,note_on,21,0,7,,,,,,,,,11,,,,72,110
106206,note_on,21,0,8,,,,,,,,,12,,,,63,108
106239,note_on,39,0,6,,,,,,,,,10,,,,75,0
106241,note_on,39,0,7,,,,,,,,,11,,,,72,0
106245,note_on,39,0,8,,,,,,,,,12,,,,63,0
106260,note_on,21,0,6,,,,,,,,,10,,,,75,101
106262,note_on,21,0,7,,,,,,,,,11,,,,72,101
106266,note_on,21,0,8,,,,,,,,,12,,,,63,99
106299,note_on,39,0,6,,,,,,,,,10,,,,75,0
106301,note_on,39,0,7,,,,,,,,,11,,,,72,0
106305,note_on,39,0,8,,,,,,,,,12,,,,63,0
106320,set_tempo,240,1,0,,,,,,268456,,,,,,,,
106320,note_on,21,0,6,,,,,,,,,10,,,,73,110
106322,note_on,21,0,7,,,,,,,,,11,,,,70,110
106323,note_on,0,0,1,,,,,,,,,0,,,,85,97
106323,note_on,240,0,1,,,,,,,,,0,,,,87,0
106325,note_on,240,0,2,,,,,,,,,1,,,,84,0
106325,note_on,0,0,2,,,,,,,,,1,,,,75,0
106325,note_on,0,0,2,,,,,,,,,1,,,,82,97
106325,note_on,0,0,2,,,,,,,,,1,,,,73,97
106326,note_on,21,0,8,,,,,,,,,12,,,,67,108
106330,note_on,240,0,9,,,,,,,,,13,,,,63,0
106330,note_on,0,0,9,,,,,,,,,13,,,,64,99
106331,note_on,240,0,3,,,,,,,,,3,,,,51,0
106331,note_on,0,0,3,,,,,,,,,3,,,,52,97
106332,note_on,0,0,10,,,,,,,,,14,,,,52,93
106332,note_on,240,0,10,,,,,,,,,14,,,,51,0
106359,note_on,39,0,6,,,,,,,,,10,,,,73,0
106361,note_on,39,0,7,,,,,,,,,11,,,,70,0
106365,note_on,39,0,8,,,,,,,,,12,,,,67,0
106380,note_on,21,0,6,,,,,,,,,10,,,,73,101
106382,note_on,21,0,7,,,,,,,,,11,,,,70,101
106386,note_on,21,0,8,,,,,,,,,12,,,,67,99
106419,note_on,39,0,6,,,,,,,,,10,,,,73,0
106421,note_on,39,0,7,,,,,,,,,11,,,,70,0
106425,note_on,39,0,8,,,,,,,,,12,,,,67,0
106440,note_on,21,0,6,,,,,,,,,10,,,,73,110
106442,note_on,21,0,7,,,,,,,,,11,,,,70,110
106446,note_on,21,0,8,,,,,,,,,12,,,,67,108
106479,note_on,39,0,6,,,,,,,,,10,,,,73,0
106481,note_on,39,0,7,,,,,,,,,11,,,,70,0
106485,note_on,39,0,8,,,,,,,,,12,,,,67,0
106500,note_on,21,0,6,,,,,,,,,10,,,,73,101
106502,note_on,21,0,7,,,,,,,,,11,,,,70,101
106506,note_on,21,0,8,,,,,,,,,12,,,,67,99
106539,note_on,39,0,6,,,,,,,,,10,,,,73,0
106541,note_on,39,0,7,,,,,,,,,11,,,,70,0
106545,note_on,39,0,8,,,,,,,,,12,,,,67,0
106560,set_tempo,240,1,0,,,,,,279720,,,,,,,,
106560,note_on,21,0,6,,,,,,,,,10,,,,72,110
106562,note_on,21,0,7,,,,,,,,,11,,,,68,110
106563,note_on,240,0,1,,,,,,,,,0,,,,85,0
106563,note_on,0,0,1,,,,,,,,,0,,,,84,97
106565,note_on,240,0,2,,,,,,,,,1,,,,73,0
106565,note_on,0,0,2,,,,,,,,,1,,,,82,0
106565,note_on,0,0,2,,,,,,,,,1,,,,80,97
106565,note_on,0,0,2,,,,,,,,,1,,,,72,97
106566,note_on,21,0,8,,,,,,,,,12,,,,68,108
106570,note_on,0,0,9,,,,,,,,,13,,,,65,99
106570,note_on,240,0,9,,,,,,,,,13,,,,64,0
106571,note_on,0,0,3,,,,,,,,,3,,,,53,97
106571,note_on,240,0,3,,,,,,,,,3,,,,52,0
106572,note_on,0,0,10,,,,,,,,,14,,,,53,93
106572,note_on,240,0,10,,,,,,,,,14,,,,52,0
106599,note_on,39,0,6,,,,,,,,,10,,,,72,0
106601,note_on,39,0,7,,,,,,,,,11,,,,68,0
106605,note_on,39,0,8,,,,,,,,,12,,,,68,0
106620,note_on,21,0,6,,,,,,,,,10,,,,72,101
106622,note_on,21,0,7,,,,,,,,,11,,,,68,101
106626,note_on,21,0,8,,,,,,,,,12,,,,68,99
106659,note_on,39,0,6,,,,,,,,,10,,,,72,0
106661,note_on,39,0,7,,,,,,,,,11,,,,68,0
106665,note_on,39,0,8,,,,,,,,,12,,,,68,0
106680,note_on,21,0,6,,,,,,,,,10,,,,72,110
106682,note_on,21,0,7,,,,,,,,,11,,,,68,110
106686,note_on,21,0,8,,,,,,,,,12,,,,68,108
106719,note_on,39,0,6,,,,,,,,,10,,,,72,0
106721,note_on,39,0,7,,,,,,,,,11,,,,68,0
106725,note_on,39,0,8,,,,,,,,,12,,,,68,0
106740,note_on,21,0,6,,,,,,,,,10,,,,72,101
106742,note_on,21,0,7,,,,,,,,,11,,,,68,101
106746,note_on,21,0,8,,,,,,,,,12,,,,68,99
106779,note_on,39,0,6,,,,,,,,,10,,,,72,0
106781,note_on,39,0,7,,,,,,,,,11,,,,68,0
106785,note_on,39,0,8,,,,,,,,,12,,,,68,0
106800,note_on,21,0,6,,,,,,,,,10,,,,70,110
106800,set_tempo,240,1,0,,,,,,268456,,,,,,,,
106802,note_on,21,0,7,,,,,,,,,11,,,,67,110
106803,note_on,240,0,1,,,,,,,,,0,,,,84,0
106803,note_on,0,0,1,,,,,,,,,0,,,,82,97
106805,note_on,0,0,2,,,,,,,,,1,,,,79,97
106805,note_on,0,0,2,,,,,,,,,1,,,,80,0
106805,note_on,240,0,2,,,,,,,,,1,,,,72,0
106805,note_on,0,0,2,,,,,,,,,1,,,,70,97
106806,note_on,21,0,8,,,,,,,,,12,,,,61,108
106810,note_on,240,0,9,,,,,,,,,13,,,,65,0
106810,note_on,0,0,9,,,,,,,,,13,,,,58,99
106811,note_on,0,0,3,,,,,,,,,3,,,,58,97
106811,note_on,0,0,3,,,,,,,,,3,,,,46,97
106811,note_on,240,0,3,,,,,,,,,3,,,,53,0
106812,note_on,0,0,10,,,,,,,,,14,,,,46,93
106812,note_on,240,0,10,,,,,,,,,14,,,,53,0
106839,note_on,39,0,6,,,,,,,,,10,,,,70,0
106841,note_on,39,0,7,,,,,,,,,11,,,,67,0
106845,note_on,39,0,8,,,,,,,,,12,,,,61,0
106860,note_on,21,0,6,,,,,,,,,10,,,,70,101
106862,note_on,21,0,7,,,,,,,,,11,,,,67,101
106866,note_on,21,0,8,,,,,,,,,12,,,,61,99
106899,note_on,39,0,6,,,,,,,,,10,,,,70,0
106901,note_on,39,0,7,,,,,,,,,11,,,,67,0
106905,note_on,39,0,8,,,,,,,,,12,,,,61,0
106920,note_on,21,0,6,,,,,,,,,10,,,,70,110
106922,note_on,21,0,7,,,,,,,,,11,,,,67,110
106926,note_on,21,0,8,,,,,,,,,12,,,,61,108
106959,note_on,39,0,6,,,,,,,,,10,,,,70,0
106961,note_on,39,0,7,,,,,,,,,11,,,,67,0
106965,note_on,39,0,8,,,,,,,,,12,,,,61,0
106980,note_on,21,0,6,,,,,,,,,10,,,,70,101
106982,note_on,21,0,7,,,,,,,,,11,,,,67,101
106986,note_on,21,0,8,,,,,,,,,12,,,,61,99
107019,note_on,39,0,6,,,,,,,,,10,,,,70,0
107021,note_on,39,0,7,,,,,,,,,11,,,,67,0
107025,note_on,39,0,8,,,,,,,,,12,,,,61,0
107040,set_tempo,240,1,0,,,,,,279720,,,,,,,,
107040,note_on,21,0,6,,,,,,,,,10,,,,69,110
107042,note_on,21,0,7,,,,,,,,,11,,,,65,110
107043,note_on,0,0,1,,,,,,,,,0,,,,81,110
107043,control_change,0,0,1,,,,,,,,,0,11,65,,,
107043,note_on,240,0,1,,,,,,,,,0,,,,82,0
107044,control_change,960,0,4,,,,,,,,,4,11,47,,,
107044,note_on,0,0,4,,,,,,,,,4,,,,60,109
107045,note_on,240,0,2,,,,,,,,,1,,,,79,0
107045,note_on,0,0,2,,,,,,,,,1,,,,72,110
107045,note_on,0,0,2,,,,,,,,,1,,,,70,0
107045,control_change,0,0,2,,,,,,,,,1,11,65,,,
107045,note_on,235,0,9,,,,,,,,,13,,,,58,0
107046,note_on,21,0,8,,,,,,,,,12,,,,60,108
107046,note_on,0,0,5,,,,,,,,,5,,,,60,109
107046,control_change,960,0,5,,,,,,,,,5,11,47,,,
107047,note_on,235,0,10,,,,,,,,,14,,,,46,0
107050,note_on,5,0,9,,,,,,,,,13,,,,60,114
107051,note_on,0,0,3,,,,,,,,,3,,,,48,110
107051,note_on,0,0,3,,,,,,,,,3,,,,60,110
107051,note_on,0,0,3,,,,,,,,,3,,,,46,0
107051,note_on,240,0,3,,,,,,,,,3,,,,58,0
107052,note_on,5,0,10,,,,,,,,,14,,,,48,108
107079,note_on,39,0,6,,,,,,,,,10,,,,69,0
107081,note_on,39,0,7,,,,,,,,,11,,,,65,0
107085,control_change,42,0,1,,,,,,,,,0,11,64,,,
107085,note_on,39,0,8,,,,,,,,,12,,,,60,0
107087,control_change,42,0,2,,,,,,,,,1,11,64,,,
107100,note_on,21,0,6,,,,,,,,,10,,,,69,101
107102,note_on,21,0,7,,,,,,,,,11,,,,65,101
107106,note_on,21,0,8,,,,,,,,,12,,,,60,99
107127,control_change,42,0,1,,,,,,,,,0,11,64,,,
107129,control_change,42,0,2,,,,,,,,,1,11,64,,,
107139,note_on,39,0,6,,,,,,,,,10,,,,69,0
107141,note_on,39,0,7,,,,,,,,,11,,,,65,0
107145,note_on,39,0,8,,,,,,,,,12,,,,60,0
107160,note_on,21,0,6,,,,,,,,,10,,,,69,110
107162,note_on,21,0,7,,,,,,,,,11,,,,65,110
107163,note_on,36,0,1,,,,,,,,,0,,,,81,0
107163,note_on,0,0,1,,,,,,,,,0,,,,84,97
107166,note_on,21,0,8,,,,,,,,,12,,,,60,108
107169,control_change,6,0,1,,,,,,,,,0,11,63,,,
107171,control_change,42,0,2,,,,,,,,,1,11,63,,,
107199,note_on,39,0,6,,,,,,,,,10,,,,69,0
107201,note_on,39,0,7,,,,,,,,,11,,,,65,0
107205,note_on,39,0,8,,,,,,,,,12,,,,60,0
107211,control_change,42,0,1,,,,,,,,,0,11,62,,,
107213,control_change,42,0,2,,,,,,,,,1,11,62,,,
107220,note_on,21,0,6,,,,,,,,,10,,,,69,101
107222,note_on,21,0,7,,,,,,,,,11,,,,65,101
107226,note_on,21,0,8,,,,,,,,,12,,,,60,99
107253,control_change,42,0,1,,,,,,,,,0,11,62,,,
107255,control_change,42,0,2,,,,,,,,,1,11,62,,,
107259,note_on,39,0,6,,,,,,,,,10,,,,69,0
107261,note_on,39,0,7,,,,,,,,,11,,,,65,0
107265,note_on,39,0,8,,,,,,,,,12,,,,60,0
107280,set_tempo,240,1,0,,,,,,268456,,,,,,,,
107280,note_on,21,0,6,,,,,,,,,10,,,,68,110
107282,note_on,21,0,7,,,,,,,,,11,,,,65,110
107283,note_on,0,0,1,,,,,,,,,0,,,,82,97
107283,note_on,30,0,1,,,,,,,,,0,,,,84,0
107285,note_on,0,0,2,,,,,,,,,1,,,,70,97
107285,note_on,30,0,2,,,,,,,,,1,,,,72,0
107286,note_on,21,0,8,,,,,,,,,12,,,,60,108
107295,control_change,12,0,1,,,,,,,,,0,11,61,,,
107297,control_change,12,0,2,,,,,,,,,1,11,61,,,
107319,note_on,39,0,6,,,,,,,,,10,,,,68,0
107321,note_on,39,0,7,,,,,,,,,11,,,,65,0
107325,note_on,39,0,8,,,,,,,,,12,,,,60,0
107337,control_change,42,0,1,,,,,,,,,0,11,60,,,
107339,control_change,42,0,2,,,,,,,,,1,11,60,,,
107340,note_on,21,0,6,,,,,,,,,10,,,,68,101
107342,note_on,21,0,7,,,,,,,,,11,,,,65,101
107343,note_on,0,0,1,,,,,,,,,0,,,,80,97
107343,note_on,6,0,1,,,,,,,,,0,,,,82,0
107345,note_on,6,0,2,,,,,,,,,1,,,,70,0
107345,note_on,0,0,2,,,,,,,,,1,,,,68,97
107346,note_on,21,0,8,,,,,,,,,12,,,,60,99
107379,control_change,36,0,1,,,,,,,,,0,11,59,,,
107379,note_on,39,0,6,,,,,,,,,10,,,,68,0
107381,note_on,39,0,7,,,,,,,,,11,,,,65,0
107381,control_change,36,0,2,,,,,,,,,1,11,59,,,
107385,note_on,39,0,8,,,,,,,,,12,,,,60,0
107400,note_on,21,0,6,,,,,,,,,10,,,,68,110
107402,note_on,21,0,7,,,,,,,,,11,,,,65,110
107403,note_on,24,0,1,,,,,,,,,0,,,,80,0
107403,note_on,0,0,1,,,,,,,,,0,,,,79,97
107405,note_on,0,0,2,,,,,,,,,1,,,,67,97
107405,note_on,24,0,2,,,,,,,,,1,,,,68,0
107406,note_on,21,0,8,,,,,,,,,12,,,,60,108
107421,control_change,18,0,1,,,,,,,,,0,11,58,,,
107423,control_change,18,0,2,,,,,,,,,1,11,58,,,
107439,note_on,39,0,6,,,,,,,,,10,,,,68,0
107441,note_on,39,0,7,,,,,,,,,11,,,,65,0
107445,note_on,39,0,8,,,,,,,,,12,,,,60,0
107460,note_on,21,0,6,,,,,,,,,10,,,,68,101
107462,note_on,21,0,7,,,,,,,,,11,,,,65,101
107463,note_on,42,0,1,,,,,,,,,0,,,,79,0
107463,control_change,0,0,1,,,,,,,,,0,11,57,,,
107463,note_on,0,0,1,,,,,,,,,0,,,,77,97
107465,note_on,42,0,2,,,,,,,,,1,,,,67,0
107465,control_change,0,0,2,,,,,,,,,1,11,57,,,
107465,note_on,0,0,2,,,,,,,,,1,,,,65,97
107466,note_on,21,0,8,,,,,,,,,12,,,,60,99
107499,note_on,39,0,6,,,,,,,,,10,,,,68,0
107501,note_on,39,0,7,,,,,,,,,11,,,,65,0
107505,note_on,39,0,8,,,,,,,,,12,,,,60,0
107520,set_tempo,240,1,0,,,,,,279720,,,,,,,,
107520,note_on,21,0,6,,,,,,,,,10,,,,67,110
107522,note_on,21,0,7,,,,,,,,,11,,,,65,110
107523,note_on,0,0,1,,,,,,,,,0,,,,82,110
107523,control_change,0,0,1,,,,,,,,,0,11,65,,,
107523,note_on,60,0,1,,,,,,,,,0,,,,77,0
107525,control_change,0,0,2,,,,,,,,,1,11,65,,,
107525,note_on,0,0,2,,,,,,,,,1,,,,70,110
107525,note_on,60,0,2,,,,,,,,,1,,,,65,0
107526,note_on,21,0,8,,,,,,,,,12,,,,60,108
107559,note_on,39,0,6,,,,,,,,,10,,,,67,0
107561,note_on,39,0,7,,,,,,,,,11,,,,65,0
107565,note_on,39,0,8,,,,,,,,,12,,,,60,0
107565,control_change,42,0,1,,,,,,,,,0,11,64,,,
107567,control_change,42,0,2,,,,,,,,,1,11,64,,,
107580,note_on,21,0,6,,,,,,,,,10,,,,67,101
107582,note_on,21,0,7,,,,,,,,,11,,,,65,101
107586,note_on,21,0,8,,,,,,,,,12,,,,60,99
107607,control_change,42,0,1,,,,,,,,,0,11,64,,,
107609,control_change,42,0,2,,,,,,,,,1,11,64,,,
107619,note_on,39,0,6,,,,,,,,,10,,,,67,0
107621,note_on,39,0,7,,,,,,,,,11,,,,65,0
107625,note_on,39,0,8,,,,,,,,,12,,,,60,0
107640,note_on,21,0,6,,,,,,,,,10,,,,67,110
107642,note_on,21,0,7,,,,,,,,,11,,,,65,110
107646,note_on,21,0,8,,,,,,,,,12,,,,60,108
107649,control_change,42,0,1,,,,,,,,,0,11,63,,,
107651,control_change,42,0,2,,,,,,,,,1,11,63,,,
107679,note_on,39,0,6,,,,,,,,,10,,,,67,0
107681,note_on,39,0,7,,,,,,,,,11,,,,65,0
107685,note_on,39,0,8,,,,,,,,,12,,,,60,0
107691,control_change,42,0,1,,,,,,,,,0,11,62,,,
107693,control_change,42,0,2,,,,,,,,,1,11,62,,,
107700,note_on,21,0,6,,,,,,,,,10,,,,67,101
107702,note_on,21,0,7,,,,,,,,,11,,,,65,101
107706,note_on,21,0,8,,,,,,,,,12,,,,60,99
107733,control_change,42,0,1,,,,,,,,,0,11,62,,,
107735,control_change,42,0,2,,,,,,,,,1,11,62,,,
107739,note_on,39,0,6,,,,,,,,,10,,,,67,0
107741,note_on,39,0,7,,,,,,,,,11,,,,65,0
107745,note_on,39,0,8,,,,,,,,,12,,,,60,0
107760,set_tempo,240,1,0,,,,,,268456,,,,,,,,
107760,note_on,21,0,6,,,,,,,,,10,,,,72,110
107762,note_on,21,0,7,,,,,,,,,11,,,,64,110
107763,note_on,30,0,1,,,,,,,,,0,,,,82,0
107763,note_on,0,0,1,,,,,,,,,0,,,,80,97
107765,note_on,0,0,2,,,,,,,,,1,,,,68,97
107765,note_on,30,0,2,,,,,,,,,1,,,,70,0
107766,note_on,21,0,8,,,,,,,,,12,,,,60,108
107775,control_change,12,0,1,,,,,,,,,0,11,61,,,
107777,control_change,12,0,2,,,,,,,,,1,11,61,,,
107799,note_on,39,0,6,,,,,,,,,10,,,,72,0
107801,note_on,39,0,7,,,,,,,,,11,,,,64,0
107805,note_on,39,0,8,,,,,,,,,12,,,,60,0
107817,control_change,42,0,1,,,,,,,,,0,11,60,,,
107819,control_change,42,0,2,,,,,,,,,1,11,60,,,
107820,note_on,21,0,6,,,,,,,,,10,,,,72,101
107822,note_on,21,0,7,,,,,,,,,11,,,,64,101
107823,note_on,6,0,1,,,,,,,,,0,,,,80,0
107823,note_on,0,0,1,,,,,,,,,0,,,,79,97
107825,note_on,0,0,2,,,,,,,,,1,,,,67,97
107825,note_on,6,0,2,,,,,,,,,1,,,,68,0
107826,note_on,21,0,8,,,,,,,,,12,,,,60,99
107859,control_change,36,0,1,,,,,,,,,0,11,59,,,
107859,note_on,39,0,6,,,,,,,,,10,,,,72,0
107861,control_change,36,0,2,,,,,,,,,1,11,59,,,
107861,note_on,39,0,7,,,,,,,,,11,,,,64,0
107865,note_on,39,0,8,,,,,,,,,12,,,,60,0
107880,note_on,21,0,6,,,,,,,,,10,,,,72,110
107882,note_on,21,0,7,,,,,,,,,11,,,,64,110
107883,note_on,24,0,1,,,,,,,,,0,,,,79,0
107883,note_on,0,0,1,,,,,,,,,0,,,,77,97
107885,note_on,24,0,2,,,,,,,,,1,,,,67,0
107885,note_on,0,0,2,,,,,,,,,1,,,,65,97
107886,note_on,21,0,8,,,,,,,,,12,,,,60,108
107901,control_change,18,0,1,,,,,,,,,0,11,58,,,
107903,control_change,18,0,2,,,,,,,,,1,11,58,,,
107919,note_on,39,0,6,,,,,,,,,10,,,,72,0
107921,note_on,39,0,7,,,,,,,,,11,,,,64,0
107925,note_on,39,0,8,,,,,,,,,12,,,,60,0
107940,note_on,21,0,6,,,,,,,,,10,,,,72,101
107942,note_on,21,0,7,,,,,,,,,11,,,,64,101
107943,note_on,42,0,1,,,,,,,,,0,,,,77,0
107943,note_on,0,0,1,,,,,,,,,0,,,,76,97
107943,control_change,0,0,1,,,,,,,,,0,11,57,,,
107945,note_on,0,0,2,,,,,,,,,1,,,,64,97
107945,control_change,0,0,2,,,,,,,,,1,11,57,,,
107945,note_on,42,0,2,,,,,,,,,1,,,,65,0
107946,note_on,21,0,8,,,,,,,,,12,,,,60,99
107979,note_on,39,0,6,,,,,,,,,10,,,,72,0
107981,note_on,39,0,7,,,,,,,,,11,,,,64,0
107985,note_on,39,0,8,,,,,,,,,12,,,,60,0
108000,control_change,21,0,6,,,,,,,,,10,11,37,,,
108000,set_tempo,240,1,0,,,,,,275862,,,,,,,,
108000,note_on,0,0,6,,,,,,,,,10,,,,84,125
108002,control_change,21,0,7,,,,,,,,,11,11,37,,,
108002,note_on,0,0,7,,,,,,,,,11,,,,72,100
108003,note_on,60,0,1,,,,,,,,,0,,,,76,0
108003,note_on,0,0,1,,,,,,,,,0,,,,84,110
108004,note_on,960,0,4,,,,,,,,,4,,,,60,0
108004,note_on,0,0,4,,,,,,,,,4,,,,60,109
108005,note_on,0,0,2,,,,,,,,,1,,,,77,110
108005,note_on,60,0,2,,,,,,,,,1,,,,64,0
108005,note_on,0,0,2,,,,,,,,,1,,,,69,110
108006,note_on,21,0,8,,,,,,,,,12,,,,57,108
108006,note_on,960,0,5,,,,,,,,,5,,,,60,0
108006,note_on,0,0,5,,,,,,,,,5,,,,60,109
108010,note_on,0,0,9,,,,,,,,,13,,,,48,114
108010,note_on,960,0,9,,,,,,,,,13,,,,60,0
108011,note_on,0,0,3,,,,,,,,,3,,,,60,110
108011,note_on,0,0,3,,,,,,,,,3,,,,48,110
108011,note_on,0,0,3,,,,,,,,,3,,,,48,0
108011,note_on,960,0,3,,,,,,,,,3,,,,60,0
108012,note_on,0,0,10,,,,,,,,,14,,,,36,108
108012,note_on,960,0,10,,,,,,,,,14,,,,48,0
108020,control_change,20,0,6,,,,,,,,,10,11,40,,,
108022,control_change,20,0,7,,,,,,,,,11,11,40,,,
108040,control_change,20,0,6,,,,,,,,,10,11,43,,,
108042,control_change,20,0,7,,,,,,,,,11,11,43,,,
108060,control_change,20,0,6,,,,,,,,,10,11,46,,,
108062,control_change,20,0,7,,,,,,,,,11,11,46,,,
108080,control_change,20,0,6,,,,,,,,,10,11,49,,,
108082,control_change,20,0,7,,,,,,,,,11,11,49,,,
108100,control_change,20,0,6,,,,,,,,,10,11,52,,,
108102,control_change,20,0,7,,,,,,,,,11,11,52,,,
108120,control_change,20,0,6,,,,,,,,,10,11,55,,,
108122,control_change,20,0,7,,,,,,,,,11,11,55,,,
108149,control_change,29,0,6,,,,,,,,,10,11,53,,,
108151,control_change,29,0,7,,,,,,,,,11,11,53,,,
108164,control_change,15,0,6,,,,,,,,,10,11,52,,,
108166,control_change,15,0,7,,,,,,,,,11,11,52,,,
108179,control_change,15,0,6,,,,,,,,,10,11,51,,,
108181,control_change,15,0,7,,,,,,,,,11,11,51,,,
108194,control_change,15,0,6,,,,,,,,,10,11,50,,,
108196,control_change,15,0,7,,,,,,,,,11,11,50,,,
108209,control_change,15,0,6,,,,,,,,,10,11,49,,,
108211,control_change,15,0,7,,,,,,,,,11,11,49,,,
108224,control_change,15,0,6,,,,,,,,,10,11,48,,,
108226,control_change,15,0,7,,,,,,,,,11,11,48,,,
108239,control_change,15,0,6,,,,,,,,,10,11,47,,,
108240,set_tempo,240,1,0,,,,,,266667,,,,,,,,
108240,note_on,1,0,6,,,,,,,,,10,,,,84,0
108240,note_on,0,0,6,,,,,,,,,10,,,,82,110
108241,control_change,15,0,7,,,,,,,,,11,11,47,,,
108242,note_on,0,0,7,,,,,,,,,11,,,,70,88
108242,note_on,1,0,7,,,,,,,,,11,,,,72,0
108245,note_on,0,0,2,,,,,,,,,1,,,,68,110
108245,note_on,240,0,2,,,,,,,,,1,,,,69,0
108246,note_on,0,0,8,,,,,,,,,12,,,,56,108
108246,note_on,240,0,8,,,,,,,,,12,,,,57,0
108300,note_on,0,0,6,,,,,,,,,10,,,,80,110
108300,note_on,60,0,6,,,,,,,,,10,,,,82,0
108302,note_on,60,0,7,,,,,,,,,11,,,,70,0
108302,note_on,0,0,7,,,,,,,,,11,,,,68,88
108360,note_on,0,0,6,,,,,,,,,10,,,,79,110
108360,note_on,60,0,6,,,,,,,,,10,,,,80,0
108362,note_on,60,0,7,,,,,,,,,11,,,,68,0
108362,note_on,0,0,7,,,,,,,,,11,,,,67,88
108420,note_on,60,0,6,,,,,,,,,10,,,,79,0
108420,note_on,0,0,6,,,,,,,,,10,,,,77,110
108422,note_on,0,0,7,,,,,,,,,11,,,,65,88
108422,note_on,60,0,7,,,,,,,,,11,,,,67,0
108459,note_on,39,0,6,,,,,,,,,10,,,,77,0
108461,note_on,39,0,7,,,,,,,,,11,,,,65,0
108480,set_tempo,240,1,0,,,,,,275862,,,,,,,,
108480,control_change,21,0,6,,,,,,,,,10,11,37,,,
108480,note_on,0,0,6,,,,,,,,,10,,,,82,125
108482,control_change,21,0,7,,,,,,,,,11,11,37,,,
108482,note_on,0,0,7,,,,,,,,,11,,,,70,100
108485,note_on,240,0,2,,,,,,,,,1,,,,68,0
108485,note_on,0,0,2,,,,,,,,,1,,,,67,110
108486,note_on,240,0,8,,,,,,,,,12,,,,56,0
108486,note_on,0,0,8,,,,,,,,,12,,,,55,108
108500,control_change,20,0,6,,,,,,,,,10,11,40,,,
108502,control_change,20,0,7,,,,,,,,,11,11,40,,,
108520,control_change,20,0,6,,,,,,,,,10,11,43,,,
108522,control_change,20,0,7,,,,,,,,,11,11,43,,,
108540,control_change,20,0,6,,,,,,,,,10,11,46,,,
108542,control_change,20,0,7,,,,,,,,,11,11,46,,,
108560,control_change,20,0,6,,,,,,,,,10,11,49,,,
108562,control_change,20,0,7,,,,,,,,,11,11,49,,,
108580,control_change,20,0,6,,,,,,,,,10,11,52,,,
108582,control_change,20,0,7,,,,,,,,,11,11,52,,,
108600,control_change,20,0,6,,,,,,,,,10,11,55,,,
108602,control_change,20,0,7,,,,,,,,,11,11,55,,,
108629,control_change,29,0,6,,,,,,,,,10,11,53,,,
108631,control_change,29,0,7,,,,,,,,,11,11,53,,,
108644,control_change,15,0,6,,,,,,,,,10,11,52,,,
108646,control_change,15,0,7,,,,,,,,,11,11,52,,,
108659,control_change,15,0,6,,,,,,,,,10,11,51,,,
108661,control_change,15,0,7,,,,,,,,,11,11,51,,,
108674,control_change,15,0,6,,,,,,,,,10,11,50,,,
108676,control_change,15,0,7,,,,,,,,,11,11,50,,,
108689,control_change,15,0,6,,,,,,,,,10,11,49,,,
108691,control_change,15,0,7,,,,,,,,,11,11,49,,,
108704,control_change,15,0,6,,,,,,,,,10,11,48,,,
108706,control_change,15,0,7,,,,,,,,,11,11,48,,,
108719,control_change,15,0,6,,,,,,,,,10,11,47,,,
108720,note_on,1,0,6,,,,,,,,,10,,,,82,0
108720,set_tempo,240,1,0,,,,,,266667,,,,,,,,
108720,note_on,0,0,6,,,,,,,,,10,,,,80,110
108721,control_change,15,0,7,,,,,,,,,11,11,47,,,
108722,note_on,1,0,7,,,,,,,,,11,,,,70,0
108722,note_on,0,0,7,,,,,,,,,11,,,,68,88
108725,note_on,240,0,2,,,,,,,,,1,,,,67,0
108725,note_on,0,0,2,,,,,,,,,1,,,,76,110
108725,note_on,0,0,2,,,,,,,,,1,,,,70,110
108725,note_on,0,0,2,,,,,,,,,1,,,,77,0
108726,note_on,240,0,8,,,,,,,,,12,,,,55,0
108726,note_on,0,0,8,,,,,,,,,12,,,,58,108
108780,note_on,0,0,6,,,,,,,,,10,,,,79,110
108780,note_on,60,0,6,,,,,,,,,10,,,,80,0
108782,note_on,0,0,7,,,,,,,,,11,,,,67,88
108782,note_on,60,0,7,,,,,,,,,11,,,,68,0
108840,note_on,0,0,6,,,,,,,,,10,,,,77,110
108840,note_on,60,0,6,,,,,,,,,10,,,,79,0
108842,note_on,0,0,7,,,,,,,,,11,,,,65,88
108842,note_on,60,0,7,,,,,,,,,11,,,,67,0
108900,note_on,60,0,6,,,,,,,,,10,,,,77,0
108900,note_on,0,0,6,,,,,,,,,10,,,,76,110
108902,note_on,0,0,7,,,,,,,,,11,,,,64,88
108902,note_on,60,0,7,,,,,,,,,11,,,,65,0
108939,note_on,39,0,6,,,,,,,,,10,,,,76,0
108941,note_on,39,0,7,,,,,,,,,11,,,,64,0
108960,note_on,0,0,6,,,,,,,,,10,,,,77,110
108960,control_change,21,0,6,,,,,,,,,10,11,65,,,
108960,set_tempo,240,1,0,,,,,,272727,,,,,,,,
108962,note_on,0,0,7,,,,,,,,,11,,,,65,110
108962,control_change,21,0,7,,,,,,,,,11,11,65,,,
108963,note_on,960,0,1,,,,,,,,,0,,,,84,0
108963,control_change,0,0,1,,,,,,,,,0,11,79,,,
108963,note_on,0,0,1,,,,,,,,,0,,,,89,110
108964,note_on,960,0,4,,,,,,,,,4,,,,60,0
108964,note_on,0,0,4,,,,,,,,,4,,,,60,109
108964,control_change,0,0,4,,,,,,,,,4,11,79,,,
108965,note_on,0,0,2,,,,,,,,,1,,,,76,0
108965,note_on,0,0,2,,,,,,,,,1,,,,69,110
108965,control_change,0,0,2,,,,,,,,,1,11,79,,,
108965,note_on,240,0,2,,,,,,,,,1,,,,70,0
108965,note_on,0,0,2,,,,,,,,,1,,,,77,110
108966,control_change,0,0,5,,,,,,,,,5,11,79,,,
108966,note_on,960,0,5,,,,,,,,,5,,,,60,0
108966,note_on,0,0,5,,,,,,,,,5,,,,53,109
108966,note_on,240,0,8,,,,,,,,,12,,,,58,0
108966,note_on,0,0,8,,,,,,,,,12,,,,57,108
108966,control_change,0,0,8,,,,,,,,,12,11,65,,,
108970,note_on,0,0,9,,,,,,,,,13,,,,53,99
108970,control_change,0,0,9,,,,,,,,,13,11,65,,,
108970,note_on,960,0,9,,,,,,,,,13,,,,48,0
108971,note_on,960,0,3,,,,,,,,,3,,,,60,0
108971,note_on,0,0,3,,,,,,,,,3,,,,48,0
108971,note_on,0,0,3,,,,,,,,,3,,,,41,110
108971,note_on,0,0,3,,,,,,,,,3,,,,53,110
108971,control_change,0,0,3,,,,,,,,,3,11,79,,,
108972,control_change,0,0,10,,,,,,,,,14,11,65,,,
108972,note_on,960,0,10,,,,,,,,,14,,,,36,0
108972,note_on,0,0,10,,,,,,,,,14,,,,41,93
108978,control_change,18,0,6,,,,,,,,,10,11,69,,,
108980,control_change,18,0,7,,,,,,,,,11,11,69,,,
108984,control_change,18,0,8,,,,,,,,,12,11,69,,,
108988,control_change,18,0,9,,,,,,,,,13,11,69,,,
108990,control_change,18,0,10,,,,,,,,,14,11,69,,,
108996,control_change,18,0,6,,,,,,,,,10,11,73,,,
108998,control_change,18,0,7,,,,,,,,,11,11,73,,,
109002,control_change,18,0,8,,,,,,,,,12,11,73,,,
109006,control_change,18,0,9,,,,,,,,,13,11,73,,,
109008,control_change,18,0,10,,,,,,,,,14,11,73,,,
109014,control_change,18,0,6,,,,,,,,,10,11,77,,,
109016,control_change,18,0,7,,,,,,,,,11,11,77,,,
109020,control_change,18,0,8,,,,,,,,,12,11,77,,,
109024,control_change,18,0,9,,,,,,,,,13,11,77,,,
109026,control_change,18,0,10,,,,,,,,,14,11,77,,,
109075,note_on,61,0,6,,,,,,,,,10,,,,77,0
109077,note_on,61,0,7,,,,,,,,,11,,,,65,0
109080,note_on,5,0,6,,,,,,,,,10,,,,77,110
109082,note_on,5,0,7,,,,,,,,,11,,,,65,110
109083,note_on,120,0,1,,,,,,,,,0,,,,89,0
109084,note_on,120,0,4,,,,,,,,,4,,,,60,0
109085,note_on,0,0,2,,,,,,,,,1,,,,69,0
109085,note_on,120,0,2,,,,,,,,,1,,,,77,0
109086,note_on,120,0,5,,,,,,,,,5,,,,53,0
109086,note_on,66,0,8,,,,,,,,,12,,,,57,0
109090,note_on,66,0,9,,,,,,,,,13,,,,53,0
109091,note_on,120,0,3,,,,,,,,,3,,,,53,0
109091,note_on,0,0,3,,,,,,,,,3,,,,41,0
109092,note_on,66,0,10,,,,,,,,,14,,,,41,0
109140,note_on,0,0,6,,,,,,,,,10,,,,81,110
109140,note_on,60,0,6,,,,,,,,,10,,,,77,0
109142,note_on,0,0,7,,,,,,,,,11,,,,69,110
109142,note_on,60,0,7,,,,,,,,,11,,,,65,0
109179,note_on,39,0,6,,,,,,,,,10,,,,81,0
109181,note_on,39,0,7,,,,,,,,,11,,,,69,0
109200,note_on,21,0,6,,,,,,,,,10,,,,84,110
109200,set_tempo,240,1,0,,,,,,261438,,,,,,,,
109202,note_on,21,0,7,,,,,,,,,11,,,,72,110
109203,note_on,120,0,1,,,,,,,,,0,,,,88,110
109204,note_on,120,0,4,,,,,,,,,4,,,,60,109
109205,note_on,0,0,2,,,,,,,,,1,,,,79,110
109205,note_on,120,0,2,,,,,,,,,1,,,,76,110
109206,note_on,0,0,8,,,,,,,,,12,,,,55,108
109206,note_on,120,0,5,,,,,,,,,5,,,,60,109
109206,note_on,120,0,8,,,,,,,,,12,,,,64,108
109210,note_on,120,0,9,,,,,,,,,13,,,,48,99
109211,note_on,120,0,3,,,,,,,,,3,,,,60,110
109211,note_on,0,0,3,,,,,,,,,3,,,,48,110
109212,note_on,120,0,10,,,,,,,,,14,,,,36,93
109260,note_on,60,0,6,,,,,,,,,10,,,,84,0
109262,note_on,60,0,7,,,,,,,,,11,,,,72,0
109320,note_on,60,0,6,,,,,,,,,10,,,,84,110
109322,note_on,60,0,7,,,,,,,,,11,,,,72,110
109323,note_on,120,0,1,,,,,,,,,0,,,,88,0
109324,note_on,120,0,4,,,,,,,,,4,,,,60,0
109325,note_on,120,0,2,,,,,,,,,1,,,,79,0
109325,note_on,0,0,2,,,,,,,,,1,,,,76,0
109326,note_on,120,0,5,,,,,,,,,5,,,,60,0
109326,note_on,0,0,8,,,,,,,,,12,,,,64,0
109326,note_on,120,0,8,,,,,,,,,12,,,,55,0
109330,note_on,120,0,9,,,,,,,,,13,,,,48,0
109331,note_on,120,0,3,,,,,,,,,3,,,,48,0
109331,note_on,0,0,3,,,,,,,,,3,,,,60,0
109332,note_on,120,0,10,,,,,,,,,14,,,,36,0
109380,note_on,60,0,6,,,,,,,,,10,,,,84,0
109382,note_on,60,0,7,,,,,,,,,11,,,,72,0
109440,set_tempo,240,1,0,,,,,,272727,,,,,,,,
109443,note_on,120,0,1,,,,,,,,,0,,,,89,110
109444,note_on,120,0,4,,,,,,,,,4,,,,60,109
109445,note_on,0,0,2,,,,,,,,,1,,,,77,110
109445,note_on,120,0,2,,,,,,,,,1,,,,81,110
109446,note_on,0,0,8,,,,,,,,,12,,,,65,108
109446,note_on,120,0,8,,,,,,,,,12,,,,57,108
109446,note_on,120,0,5,,,,,,,,,5,,,,53,109
109450,note_on,120,0,9,,,,,,,,,13,,,,53,99
109451,note_on,120,0,3,,,,,,,,,3,,,,41,110
109451,note_on,0,0,3,,,,,,,,,3,,,,53,110
109452,note_on,120,0,10,,,,,,,,,14,,,,41,93
109560,note_on,180,0,6,,,,,,,,,10,,,,77,110
109562,note_on,180,0,7,,,,,,,,,11,,,,65,110
109563,note_on,120,0,1,,,,,,,,,0,,,,89,0
109564,note_on,120,0,4,,,,,,,,,4,,,,60,0
109565,note_on,0,0,2,,,,,,,,,1,,,,81,0
109565,note_on,120,0,2,,,,,,,,,1,,,,77,0
109566,note_on,120,0,8,,,,,,,,,12,,,,65,0
109566,note_on,0,0,8,,,,,,,,,12,,,,57,0
109566,note_on,120,0,5,,,,,,,,,5,,,,53,0
109570,note_on,120,0,9,,,,,,,,,13,,,,53,0
109571,note_on,0,0,3,,,,,,,,,3,,,,41,0
109571,note_on,120,0,3,,,,,,,,,3,,,,53,0
109572,note_on,120,0,10,,,,,,,,,14,,,,41,0
109620,note_on,0,0,6,,,,,,,,,10,,,,81,110
109620,note_on,60,0,6,,,,,,,,,10,,,,77,0
109622,note_on,0,0,7,,,,,,,,,11,,,,69,110
109622,note_on,60,0,7,,,,,,,,,11,,,,65,0
109659,note_on,39,0,6,,,,,,,,,10,,,,81,0
109661,note_on,39,0,7,,,,,,,,,11,,,,69,0
109680,set_tempo,240,1,0,,,,,,261438,,,,,,,,
109680,note_on,21,0,6,,,,,,,,,10,,,,84,110
109682,note_on,21,0,7,,,,,,,,,11,,,,72,110
109683,note_on,120,0,1,,,,,,,,,0,,,,88,110
109684,note_on,120,0,4,,,,,,,,,4,,,,60,109
109685,note_on,120,0,2,,,,,,,,,1,,,,79,110
109685,note_on,0,0,2,,,,,,,,,1,,,,76,110
109686,note_on,120,0,8,,,,,,,,,12,,,,55,108
109686,note_on,0,0,8,,,,,,,,,12,,,,64,108
109686,note_on,120,0,5,,,,,,,,,5,,,,60,109
109690,note_on,120,0,9,,,,,,,,,13,,,,48,99
109691,note_on,0,0,3,,,,,,,,,3,,,,60,110
109691,note_on,120,0,3,,,,,,,,,3,,,,48,110
109692,note_on,120,0,10,,,,,,,,,14,,,,36,93
109740,note_on,60,0,6,,,,,,,,,10,,,,84,0
109742,note_on,60,0,7,,,,,,,,,11,,,,72,0
109800,note_on,60,0,6,,,,,,,,,10,,,,84,110
109802,note_on,60,0,7,,,,,,,,,11,,,,72,110
109803,note_on,120,0,1,,,,,,,,,0,,,,88,0
109804,note_on,120,0,4,,,,,,,,,4,,,,60,0
109805,note_on,120,0,2,,,,,,,,,1,,,,76,0
109805,note_on,0,0,2,,,,,,,,,1,,,,79,0
109806,note_on,120,0,8,,,,,,,,,12,,,,64,0
109806,note_on,0,0,8,,,,,,,,,12,,,,55,0
109806,note_on,120,0,5,,,,,,,,,5,,,,60,0
109810,note_on,120,0,9,,,,,,,,,13,,,,48,0
109811,note_on,120,0,3,,,,,,,,,3,,,,60,0
109811,note_on,0,0,3,,,,,,,,,3,,,,48,0
109812,note_on,120,0,10,,,,,,,,,14,,,,36,0
109860,note_on,60,0,6,,,,,,,,,10,,,,84,0
109862,note_on,60,0,7,,,,,,,,,11,,,,72,0
109920,set_tempo,240,1,0,,,,,,272727,,,,,,,,
109920,note_on,60,0,6,,,,,,,,,10,,,,77,110
109922,note_on,60,0,7,,,,,,,,,11,,,,65,110
109923,note_on,120,0,1,,,,,,,,,0,,,,89,110
109924,note_on,120,0,4,,,,,,,,,4,,,,60,109
109925,note_on,0,0,2,,,,,,,,,1,,,,77,110
109925,note_on,120,0,2,,,,,,,,,1,,,,81,110
109926,note_on,0,0,8,,,,,,,,,12,,,,57,108
109926,note_on,120,0,8,,,,,,,,,12,,,,65,108
109926,note_on,120,0,5,,,,,,,,,5,,,,60,109
109930,note_on,120,0,9,,,,,,,,,13,,,,53,99
109931,note_on,120,0,3,,,,,,,,,3,,,,53,110
109932,note_on,120,0,10,,,,,,,,,14,,,,41,93
109980,note_on,60,0,6,,,,,,,,,10,,,,77,0
109980,note_on,0,0,6,,,,,,,,,10,,,,81,110
109982,note_on,60,0,7,,,,,,,,,11,,,,65,0
109982,note_on,0,0,7,,,,,,,,,11,,,,69,110
110018,note_on,95,0,1,,,,,,,,,0,,,,89,0
110019,note_on,95,0,4,,,,,,,,,4,,,,60,0
110019,note_on,39,0,6,,,,,,,,,10,,,,81,0
110020,note_on,0,0,2,,,,,,,,,1,,,,81,0
110020,note_on,95,0,2,,,,,,,,,1,,,,77,0
110021,note_on,39,0,7,,,,,,,,,11,,,,69,0
110021,note_on,95,0,5,,,,,,,,,5,,,,60,0
110026,note_on,95,0,3,,,,,,,,,3,,,,53,0
110040,note_on,21,0,6,,,,,,,,,10,,,,84,110
110041,note_on,0,0,8,,,,,,,,,12,,,,65,0
110041,note_on,115,0,8,,,,,,,,,12,,,,57,0
110042,note_on,21,0,7,,,,,,,,,11,,,,72,110
110043,note_on,25,0,1,,,,,,,,,0,,,,88,110
110044,note_on,25,0,4,,,,,,,,,4,,,,60,109
110045,note_on,0,0,2,,,,,,,,,1,,,,76,110
110045,note_on,115,0,9,,,,,,,,,13,,,,53,0
110045,note_on,25,0,2,,,,,,,,,1,,,,79,110
110046,note_on,25,0,5,,,,,,,,,5,,,,60,109
110046,note_on,0,0,8,,,,,,,,,12,,,,64,108
110046,note_on,5,0,8,,,,,,,,,12,,,,55,108
110047,note_on,115,0,10,,,,,,,,,14,,,,41,0
110050,note_on,5,0,9,,,,,,,,,13,,,,48,99
110051,note_on,25,0,3,,,,,,,,,3,,,,48,110
110052,note_on,5,0,10,,,,,,,,,14,,,,36,93
110070,note_on,30,0,6,,,,,,,,,10,,,,84,0
110072,note_on,30,0,7,,,,,,,,,11,,,,72,0
110100,note_on,30,0,6,,,,,,,,,10,,,,84,110
110102,note_on,30,0,7,,,,,,,,,11,,,,72,110
110130,note_on,30,0,6,,,,,,,,,10,,,,84,0
110132,note_on,30,0,7,,,,,,,,,11,,,,72,0
110138,note_on,95,0,1,,,,,,,,,0,,,,88,0
110139,note_on,95,0,4,,,,,,,,,4,,,,60,0
110140,note_on,95,0,2,,,,,,,,,1,,,,76,0
110140,note_on,0,0,2,,,,,,,,,1,,,,79,0
110141,note_on,95,0,5,,,,,,,,,5,,,,60,0
110146,note_on,95,0,3,,,,,,,,,3,,,,48,0
110160,set_tempo,240,1,0,,,,,,261438,,,,,,,,
110160,note_on,30,0,6,,,,,,,,,10,,,,77,110
110161,note_on,115,0,8,,,,,,,,,12,,,,64,0
110161,note_on,0,0,8,,,,,,,,,12,,,,55,0
110162,note_on,30,0,7,,,,,,,,,11,,,,65,110
110163,note_on,25,0,1,,,,,,,,,0,,,,89,110
110164,note_on,25,0,4,,,,,,,,,4,,,,60,109
110165,note_on,115,0,9,,,,,,,,,13,,,,48,0
110165,note_on,25,0,2,,,,,,,,,1,,,,81,110
110165,note_on,0,0,2,,,,,,,,,1,,,,77,110
110166,note_on,25,0,5,,,,,,,,,5,,,,60,109
110166,note_on,5,0,8,,,,,,,,,12,,,,65,108
110166,note_on,0,0,8,,,,,,,,,12,,,,57,108
110167,note_on,115,0,10,,,,,,,,,14,,,,36,0
110170,note_on,5,0,9,,,,,,,,,13,,,,53,99
110171,note_on,25,0,3,,,,,,,,,3,,,,53,110
110172,note_on,5,0,10,,,,,,,,,14,,,,41,93
110220,note_on,60,0,6,,,,,,,,,10,,,,77,0
110220,note_on,0,0,6,,,,,,,,,10,,,,81,110
110222,note_on,60,0,7,,,,,,,,,11,,,,65,0
110222,note_on,0,0,7,,,,,,,,,11,,,,69,110
110258,note_on,95,0,1,,,,,,,,,0,,,,89,0
110259,note_on,39,0,6,,,,,,,,,10,,,,81,0
110259,note_on,95,0,4,,,,,,,,,4,,,,60,0
110260,note_on,95,0,2,,,,,,,,,1,,,,77,0
110260,note_on,0,0,2,,,,,,,,,1,,,,81,0
110261,note_on,95,0,5,,,,,,,,,5,,,,60,0
110261,note_on,39,0,7,,,,,,,,,11,,,,69,0
110266,note_on,95,0,3,,,,,,,,,3,,,,53,0
110280,note_on,21,0,6,,,,,,,,,10,,,,84,110
110281,note_on,0,0,8,,,,,,,,,12,,,,65,0
110281,note_on,115,0,8,,,,,,,,,12,,,,57,0
110282,note_on,21,0,7,,,,,,,,,11,,,,72,110
110283,note_on,25,0,1,,,,,,,,,0,,,,88,110
110284,note_on,25,0,4,,,,,,,,,4,,,,60,109
110285,note_on,0,0,2,,,,,,,,,1,,,,76,110
110285,note_on,25,0,2,,,,,,,,,1,,,,79,110
110285,note_on,115,0,9,,,,,,,,,13,,,,53,0
110286,note_on,0,0,8,,,,,,,,,12,,,,55,108
110286,note_on,25,0,5,,,,,,,,,5,,,,60,109
110286,note_on,5,0,8,,,,,,,,,12,,,,64,108
110287,note_on,115,0,10,,,,,,,,,14,,,,41,0
110290,note_on,5,0,9,,,,,,,,,13,,,,48,99
110291,note_on,25,0,3,,,,,,,,,3,,,,48,110
110292,note_on,5,0,10,,,,,,,,,14,,,,36,93
110310,note_on,30,0,6,,,,,,,,,10,,,,84,0
110312,note_on,30,0,7,,,,,,,,,11,,,,72,0
110340,note_on,30,0,6,,,,,,,,,10,,,,84,110
110342,note_on,30,0,7,,,,,,,,,11,,,,72,110
110370,note_on,30,0,6,,,,,,,,,10,,,,84,0
110372,note_on,30,0,7,,,,,,,,,11,,,,72,0
110378,note_on,95,0,1,,,,,,,,,0,,,,88,0
110379,note_on,95,0,4,,,,,,,,,4,,,,60,0
110380,note_on,95,0,2,,,,,,,,,1,,,,76,0
110380,note_on,0,0,2,,,,,,,,,1,,,,79,0
110381,note_on,95,0,5,,,,,,,,,5,,,,60,0
110386,note_on,95,0,3,,,,,,,,,3,,,,48,0
110400,note_on,30,0,6,,,,,,,,,10,,,,77,110
110400,set_tempo,240,1,0,,,,,,272727,,,,,,,,
110401,note_on,115,0,8,,,,,,,,,12,,,,55,0
110401,note_on,0,0,8,,,,,,,,,12,,,,64,0
110402,note_on,30,0,7,,,,,,,,,11,,,,65,110
110403,note_on,25,0,1,,,,,,,,,0,,,,89,110
110404,note_on,25,0,4,,,,,,,,,4,,,,60,109
110405,note_on,25,0,2,,,,,,,,,1,,,,81,110
110405,note_on,0,0,2,,,,,,,,,1,,,,77,110
110405,note_on,115,0,9,,,,,,,,,13,,,,48,0
110406,note_on,0,0,8,,,,,,,,,12,,,,57,108
110406,note_on,5,0,8,,,,,,,,,12,,,,65,108
110406,note_on,25,0,5,,,,,,,,,5,,,,60,109
110407,note_on,115,0,10,,,,,,,,,14,,,,36,0
110410,note_on,5,0,9,,,,,,,,,13,,,,53,99
110411,note_on,25,0,3,,,,,,,,,3,,,,53,110
110412,note_on,5,0,10,,,,,,,,,14,,,,41,93
110460,note_on,0,0,6,,,,,,,,,10,,,,81,110
110460,note_on,60,0,6,,,,,,,,,10,,,,77,0
110462,note_on,0,0,7,,,,,,,,,11,,,,69,110
110462,note_on,60,0,7,,,,,,,,,11,,,,65,0
110498,note_on,95,0,1,,,,,,,,,0,,,,89,0
110499,note_on,39,0,6,,,,,,,,,10,,,,81,0
110499,note_on,95,0,4,,,,,,,,,4,,,,60,0
110500,note_on,0,0,2,,,,,,,,,1,,,,81,0
110500,note_on,95,0,2,,,,,,,,,1,,,,77,0
110501,note_on,95,0,5,,,,,,,,,5,,,,60,0
110501,note_on,39,0,7,,,,,,,,,11,,,,69,0
110506,note_on,95,0,3,,,,,,,,,3,,,,53,0
110520,note_on,21,0,6,,,,,,,,,10,,,,84,110
110521,note_on,0,0,8,,,,,,,,,12,,,,65,0
110521,note_on,115,0,8,,,,,,,,,12,,,,57,0
110522,note_on,21,0,7,,,,,,,,,11,,,,72,110
110523,note_on,25,0,1,,,,,,,,,0,,,,88,110
110524,note_on,25,0,4,,,,,,,,,4,,,,60,109
110525,note_on,0,0,2,,,,,,,,,1,,,,76,110
110525,note_on,25,0,2,,,,,,,,,1,,,,79,110
110525,note_on,115,0,9,,,,,,,,,13,,,,53,0
110526,note_on,0,0,8,,,,,,,,,12,,,,55,108
110526,note_on,5,0,8,,,,,,,,,12,,,,64,108
110526,note_on,25,0,5,,,,,,,,,5,,,,60,109
110527,note_on,115,0,10,,,,,,,,,14,,,,41,0
110530,note_on,5,0,9,,,,,,,,,13,,,,48,99
110531,note_on,25,0,3,,,,,,,,,3,,,,48,110
110532,note_on,5,0,10,,,,,,,,,14,,,,36,93
110550,note_on,30,0,6,,,,,,,,,10,,,,84,0
110552,note_on,30,0,7,,,,,,,,,11,,,,72,0
110580,note_on,30,0,6,,,,,,,,,10,,,,84,110
110582,note_on,30,0,7,,,,,,,,,11,,,,72,110
110610,note_on,30,0,6,,,,,,,,,10,,,,84,0
110612,note_on,30,0,7,,,,,,,,,11,,,,72,0
110618,note_on,95,0,1,,,,,,,,,0,,,,88,0
110619,note_on,95,0,4,,,,,,,,,4,,,,60,0
110620,note_on,95,0,2,,,,,,,,,1,,,,76,0
110620,note_on,0,0,2,,,,,,,,,1,,,,79,0
110621,note_on,95,0,5,,,,,,,,,5,,,,60,0
110626,note_on,95,0,3,,,,,,,,,3,,,,48,0
110640,set_tempo,240,1,0,,,,,,261438,,,,,,,,
110640,note_on,30,0,6,,,,,,,,,10,,,,77,110
110641,note_on,0,0,8,,,,,,,,,12,,,,64,0
110641,note_on,115,0,8,,,,,,,,,12,,,,55,0
110642,note_on,30,0,7,,,,,,,,,11,,,,65,110
110643,note_on,25,0,1,,,,,,,,,0,,,,89,110
110644,note_on,25,0,4,,,,,,,,,4,,,,60,109
110645,note_on,0,0,2,,,,,,,,,1,,,,77,110
110645,note_on,115,0,9,,,,,,,,,13,,,,48,0
110645,note_on,25,0,2,,,,,,,,,1,,,,81,110
110646,note_on,25,0,5,,,,,,,,,5,,,,60,109
110646,note_on,5,0,8,,,,,,,,,12,,,,65,108
110646,note_on,0,0,8,,,,,,,,,12,,,,57,108
110647,note_on,115,0,10,,,,,,,,,14,,,,36,0
110650,note_on,5,0,9,,,,,,,,,13,,,,53,99
110651,note_on,25,0,3,,,,,,,,,3,,,,53,110
110652,note_on,5,0,10,,,,,,,,,14,,,,41,93
110700,note_on,60,0,6,,,,,,,,,10,,,,77,0
110700,note_on,0,0,6,,,,,,,,,10,,,,81,110
110702,note_on,0,0,7,,,,,,,,,11,,,,69,110
110702,note_on,60,0,7,,,,,,,,,11,,,,65,0
110738,note_on,95,0,1,,,,,,,,,0,,,,89,0
110739,note_on,95,0,4,,,,,,,,,4,,,,60,0
110739,note_on,39,0,6,,,,,,,,,10,,,,81,0
110740,note_on,0,0,2,,,,,,,,,1,,,,81,0
110740,note_on,95,0,2,,,,,,,,,1,,,,77,0
110741,note_on,95,0,5,,,,,,,,,5,,,,60,0
110741,note_on,39,0,7,,,,,,,,,11,,,,69,0
110746,note_on,95,0,3,,,,,,,,,3,,,,53,0
110760,note_on,21,0,6,,,,,,,,,10,,,,84,110
110761,note_on,0,0,8,,,,,,,,,12,,,,65,0
110761,note_on,115,0,8,,,,,,,,,12,,,,57,0
110762,note_on,21,0,7,,,,,,,,,11,,,,72,110
110763,note_on,25,0,1,,,,,,,,,0,,,,88,110
110764,note_on,25,0,4,,,,,,,,,4,,,,60,109
110765,note_on,0,0,2,,,,,,,,,1,,,,79,110
110765,note_on,25,0,2,,,,,,,,,1,,,,76,110
110765,note_on,115,0,9,,,,,,,,,13,,,,53,0
110766,note_on,25,0,5,,,,,,,,,5,,,,60,109
110766,note_on,5,0,8,,,,,,,,,12,,,,64,108
110766,note_on,0,0,8,,,,,,,,,12,,,,55,108
110767,note_on,115,0,10,,,,,,,,,14,,,,41,0
110770,note_on,5,0,9,,,,,,,,,13,,,,48,99
110771,note_on,25,0,3,,,,,,,,,3,,,,48,110
110772,note_on,5,0,10,,,,,,,,,14,,,,36,93
110790,note_on,30,0,6,,,,,,,,,10,,,,84,0
110792,note_on,30,0,7,,,,,,,,,11,,,,72,0
110820,set_tempo,180,1,0,,,,,,317460,,,,,,,,
110820,note_on,30,0,6,,,,,,,,,10,,,,84,110
110822,note_on,30,0,7,,,,,,,,,11,,,,72,110
110850,note_on,30,0,6,,,,,,,,,10,,,,84,0
110852,note_on,30,0,7,,,,,,,,,11,,,,72,0
110858,note_on,95,0,1,,,,,,,,,0,,,,88,0
110859,note_on,95,0,4,,,,,,,,,4,,,,60,0
110860,note_on,95,0,2,,,,,,,,,1,,,,79,0
110860,note_on,0,0,2,,,,,,,,,1,,,,76,0
110861,note_on,95,0,5,,,,,,,,,5,,,,60,0
110866,note_on,95,0,3,,,,,,,,,3,,,,48,0
110880,note_on,30,0,6,,,,,,,,,10,,,,67,125
110880,set_tempo,60,1,0,,,,,,272727,,,,,,,,
110881,note_on,115,0,8,,,,,,,,,12,,,,55,0
110881,note_on,0,0,8,,,,,,,,,12,,,,64,0
110882,note_on,30,0,7,,,,,,,,,11,,,,55,125
110883,control_change,25,0,1,,,,,,,,,0,11,79,,,
110883,note_on,0,0,1,,,,,,,,,0,,,,88,110
110884,note_on,0,0,4,,,,,,,,,4,,,,53,109
110884,control_change,25,0,4,,,,,,,,,4,11,79,,,
110885,note_on,0,0,2,,,,,,,,,1,,,,79,110
110885,note_on,0,0,2,,,,,,,,,1,,,,70,110
110885,control_change,25,0,2,,,,,,,,,1,11,79,,,
110885,note_on,115,0,9,,,,,,,,,13,,,,48,0
110886,note_on,0,0,5,,,,,,,,,5,,,,41,109
110886,control_change,25,0,5,,,,,,,,,5,11,79,,,
110886,note_on,5,0,8,,,,,,,,,12,,,,61,123
110886,note_on,0,0,8,,,,,,,,,12,,,,58,123
110887,note_on,115,0,10,,,,,,,,,14,,,,36,0
110890,note_on,5,0,9,,,,,,,,,13,,,,41,114
110891,note_on,0,0,3,,,,,,,,,3,,,,61,110
110891,note_on,0,0,3,,,,,,,,,3,,,,53,110
110891,control_change,25,0,3,,,,,,,,,3,11,79,,,
110892,note_on,5,0,10,,,,,,,,,14,,,,29,108
110919,note_on,39,0,6,,,,,,,,,10,,,,67,0
110921,note_on,39,0,7,,,,,,,,,11,,,,55,0
110925,note_on,39,0,8,,,,,,,,,12,,,,58,0
110925,note_on,0,0,8,,,,,,,,,12,,,,61,0
110929,note_on,39,0,9,,,,,,,,,13,,,,41,0
110931,note_on,39,0,10,,,,,,,,,14,,,,29,0
110940,note_on,21,0,6,,,,,,,,,10,,,,67,101
110942,note_on,21,0,7,,,,,,,,,11,,,,55,101
110946,note_on,0,0,8,,,,,,,,,12,,,,58,99
110946,note_on,21,0,8,,,,,,,,,12,,,,61,99
110950,note_on,21,0,9,,,,,,,,,13,,,,41,90
110952,note_on,21,0,10,,,,,,,,,14,,,,29,84
110979,note_on,39,0,6,,,,,,,,,10,,,,67,0
110981,note_on,39,0,7,,,,,,,,,11,,,,55,0
110985,note_on,39,0,8,,,,,,,,,12,,,,58,0
110985,note_on,0,0,8,,,,,,,,,12,,,,61,0
110989,note_on,39,0,9,,,,,,,,,13,,,,41,0
110991,note_on,39,0,10,,,,,,,,,14,,,,29,0
111000,note_on,21,0,6,,,,,,,,,10,,,,70,111
111002,note_on,21,0,7,,,,,,,,,11,,,,58,111
111006,note_on,0,0,8,,,,,,,,,12,,,,61,109
111006,note_on,21,0,8,,,,,,,,,12,,,,58,109
111010,note_on,21,0,9,,,,,,,,,13,,,,41,100
111012,note_on,21,0,10,,,,,,,,,14,,,,29,94
111039,note_on,39,0,6,,,,,,,,,10,,,,70,0
111041,note_on,39,0,7,,,,,,,,,11,,,,58,0
111045,note_on,0,0,8,,,,,,,,,12,,,,58,0
111045,note_on,39,0,8,,,,,,,,,12,,,,61,0
111049,note_on,39,0,9,,,,,,,,,13,,,,41,0
111051,note_on,39,0,10,,,,,,,,,14,,,,29,0
111060,note_on,21,0,6,,,,,,,,,10,,,,70,103
111062,note_on,21,0,7,,,,,,,,,11,,,,58,103
111066,note_on,21,0,8,,,,,,,,,12,,,,58,101
111066,note_on,0,0,8,,,,,,,,,12,,,,61,101
111070,note_on,21,0,9,,,,,,,,,13,,,,41,92
111072,note_on,21,0,10,,,,,,,,,14,,,,29,86
111099,note_on,39,0,6,,,,,,,,,10,,,,70,0
111101,note_on,39,0,7,,,,,,,,,11,,,,58,0
111105,note_on,0,0,8,,,,,,,,,12,,,,58,0
111105,note_on,39,0,8,,,,,,,,,12,,,,61,0
111109,note_on,39,0,9,,,,,,,,,13,,,,41,0
111111,note_on,39,0,10,,,,,,,,,14,,,,29,0
111120,set_tempo,240,1,0,,,,,,261438,,,,,,,,
111120,note_on,21,0,6,,,,,,,,,10,,,,73,113
111122,note_on,21,0,7,,,,,,,,,11,,,,61,113
111126,note_on,0,0,8,,,,,,,,,12,,,,58,111
111126,note_on,21,0,8,,,,,,,,,12,,,,61,111
111130,note_on,21,0,9,,,,,,,,,13,,,,41,102
111132,note_on,21,0,10,,,,,,,,,14,,,,29,96
111159,note_on,39,0,6,,,,,,,,,10,,,,73,0
111161,note_on,39,0,7,,,,,,,,,11,,,,61,0
111165,note_on,39,0,8,,,,,,,,,12,,,,58,0
111165,note_on,0,0,8,,,,,,,,,12,,,,61,0
111169,note_on,39,0,9,,,,,,,,,13,,,,41,0
111171,note_on,39,0,10,,,,,,,,,14,,,,29,0
111180,note_on,21,0,6,,,,,,,,,10,,,,73,104
111182,note_on,21,0,7,,,,,,,,,11,,,,61,104
111186,note_on,0,0,8,,,,,,,,,12,,,,58,102
111186,note_on,21,0,8,,,,,,,,,12,,,,61,102
111190,note_on,21,0,9,,,,,,,,,13,,,,41,93
111192,note_on,21,0,10,,,,,,,,,14,,,,29,87
111219,note_on,39,0,6,,,,,,,,,10,,,,73,0
111221,note_on,39,0,7,,,,,,,,,11,,,,61,0
111225,note_on,39,0,8,,,,,,,,,12,,,,58,0
111225,note_on,0,0,8,,,,,,,,,12,,,,61,0
111229,note_on,39,0,9,,,,,,,,,13,,,,41,0
111231,note_on,39,0,10,,,,,,,,,14,,,,29,0
111240,note_on,21,0,6,,,,,,,,,10,,,,76,115
111242,note_on,21,0,7,,,,,,,,,11,,,,64,115
111246,note_on,0,0,8,,,,,,,,,12,,,,61,113
111246,note_on,21,0,8,,,,,,,,,12,,,,58,113
111250,note_on,21,0,9,,,,,,,,,13,,,,41,104
111252,note_on,21,0,10,,,,,,,,,14,,,,29,98
111279,note_on,39,0,6,,,,,,,,,10,,,,76,0
111281,note_on,39,0,7,,,,,,,,,11,,,,64,0
111285,note_on,0,0,8,,,,,,,,,12,,,,58,0
111285,note_on,39,0,8,,,,,,,,,12,,,,61,0
111289,note_on,39,0,9,,,,,,,,,13,,,,41,0
111291,note_on,39,0,10,,,,,,,,,14,,,,29,0
111300,note_on,21,0,6,,,,,,,,,10,,,,76,105
111302,note_on,21,0,7,,,,,,,,,11,,,,64,105
111306,note_on,21,0,8,,,,,,,,,12,,,,58,103
111306,note_on,0,0,8,,,,,,,,,12,,,,61,103
111310,note_on,21,0,9,,,,,,,,,13,,,,41,94
111312,note_on,21,0,10,,,,,,,,,14,,,,29,88
111339,note_on,39,0,6,,,,,,,,,10,,,,76,0
111341,note_on,39,0,7,,,,,,,,,11,,,,64,0
111345,note_on,39,0,8,,,,,,,,,12,,,,61,0
111345,note_on,0,0,8,,,,,,,,,12,,,,58,0
111349,note_on,39,0,9,,,,,,,,,13,,,,41,0
111351,note_on,39,0,10,,,,,,,,,14,,,,29,0
111360,set_tempo,240,1,0,,,,,,272727,,,,,,,,
111360,note_on,21,0,6,,,,,,,,,10,,,,79,116
111362,note_on,21,0,7,,,,,,,,,11,,,,67,116
111366,note_on,21,0,8,,,,,,,,,12,,,,61,114
111366,note_on,0,0,8,,,,,,,,,12,,,,58,114
111370,note_on,21,0,9,,,,,,,,,13,,,,41,105
111372,note_on,21,0,10,,,,,,,,,14,,,,29,99
111399,note_on,39,0,6,,,,,,,,,10,,,,79,0
111401,note_on,39,0,7,,,,,,,,,11,,,,67,0
111405,note_on,0,0,8,,,,,,,,,12,,,,61,0
111405,note_on,39,0,8,,,,,,,,,12,,,,58,0
111409,note_on,39,0,9,,,,,,,,,13,,,,41,0
111411,note_on,39,0,10,,,,,,,,,14,,,,29,0
111420,note_on,21,0,6,,,,,,,,,10,,,,79,107
111422,note_on,21,0,7,,,,,,,,,11,,,,67,107
111426,note_on,0,0,8,,,,,,,,,12,,,,61,105
111426,note_on,21,0,8,,,,,,,,,12,,,,58,105
111430,note_on,21,0,9,,,,,,,,,13,,,,41,96
111432,note_on,21,0,10,,,,,,,,,14,,,,29,90
111459,note_on,39,0,6,,,,,,,,,10,,,,79,0
111461,note_on,39,0,7,,,,,,,,,11,,,,67,0
111465,note_on,0,0,8,,,,,,,,,12,,,,58,0
111465,note_on,39,0,8,,,,,,,,,12,,,,61,0
111469,note_on,39,0,9,,,,,,,,,13,,,,41,0
111471,note_on,39,0,10,,,,,,,,,14,,,,29,0
111480,note_on,21,0,6,,,,,,,,,10,,,,82,118
111482,note_on,21,0,7,,,,,,,,,11,,,,70,118
111486,note_on,0,0,8,,,,,,,,,12,,,,61,116
111486,note_on,21,0,8,,,,,,,,,12,,,,58,116
111490,note_on,21,0,9,,,,,,,,,13,,,,41,107
111492,note_on,21,0,10,,,,,,,,,14,,,,29,101
111519,note_on,39,0,6,,,,,,,,,10,,,,82,0
111521,note_on,39,0,7,,,,,,,,,11,,,,70,0
111525,note_on,39,0,8,,,,,,,,,12,,,,61,0
111525,note_on,0,0,8,,,,,,,,,12,,,,58,0
111529,note_on,39,0,9,,,,,,,,,13,,,,41,0
111531,note_on,39,0,10,,,,,,,,,14,,,,29,0
111540,note_on,21,0,6,,,,,,,,,10,,,,82,109
111542,note_on,21,0,7,,,,,,,,,11,,,,70,109
111546,note_on,21,0,8,,,,,,,,,12,,,,58,107
111546,note_on,0,0,8,,,,,,,,,12,,,,61,107
111550,note_on,21,0,9,,,,,,,,,13,,,,41,98
111552,note_on,21,0,10,,,,,,,,,14,,,,29,92
111579,note_on,39,0,6,,,,,,,,,10,,,,82,0
111581,note_on,39,0,7,,,,,,,,,11,,,,70,0
111585,note_on,0,0,8,,,,,,,,,12,,,,58,0
111585,note_on,39,0,8,,,,,,,,,12,,,,61,0
111589,note_on,39,0,9,,,,,,,,,13,,,,41,0
111591,note_on,39,0,10,,,,,,,,,14,,,,29,0
111600,note_on,21,0,6,,,,,,,,,10,,,,85,120
111600,set_tempo,240,1,0,,,,,,261438,,,,,,,,
111602,note_on,21,0,7,,,,,,,,,11,,,,73,120
111606,note_on,0,0,8,,,,,,,,,12,,,,61,118
111606,note_on,21,0,8,,,,,,,,,12,,,,58,118
111610,note_on,21,0,9,,,,,,,,,13,,,,41,109
111612,note_on,21,0,10,,,,,,,,,14,,,,29,103
111639,note_on,39,0,6,,,,,,,,,10,,,,85,0
111641,note_on,39,0,7,,,,,,,,,11,,,,73,0
111645,note_on,39,0,8,,,,,,,,,12,,,,61,0
111645,note_on,0,0,8,,,,,,,,,12,,,,58,0
111649,note_on,39,0,9,,,,,,,,,13,,,,41,0
111651,note_on,39,0,10,,,,,,,,,14,,,,29,0
111660,note_on,21,0,6,,,,,,,,,10,,,,85,110
111662,note_on,21,0,7,,,,,,,,,11,,,,73,110
111666,note_on,0,0,8,,,,,,,,,12,,,,58,108
111666,note_on,21,0,8,,,,,,,,,12,,,,61,108
111670,note_on,21,0,9,,,,,,,,,13,,,,41,99
111672,note_on,21,0,10,,,,,,,,,14,,,,29,93
111699,note_on,39,0,6,,,,,,,,,10,,,,85,0
111701,note_on,39,0,7,,,,,,,,,11,,,,73,0
111705,note_on,0,0,8,,,,,,,,,12,,,,61,0
111705,note_on,39,0,8,,,,,,,,,12,,,,58,0
111709,note_on,39,0,9,,,,,,,,,13,,,,41,0
111711,note_on,39,0,10,,,,,,,,,14,,,,29,0
111720,note_on,21,0,6,,,,,,,,,10,,,,88,121
111722,note_on,21,0,7,,,,,,,,,11,,,,76,121
111726,note_on,0,0,8,,,,,,,,,12,,,,58,119
111726,note_on,21,0,8,,,,,,,,,12,,,,61,119
111730,note_on,21,0,9,,,,,,,,,13,,,,41,110
111732,note_on,21,0,10,,,,,,,,,14,,,,29,104
111759,note_on,39,0,6,,,,,,,,,10,,,,88,0
111761,note_on,39,0,7,,,,,,,,,11,,,,76,0
111765,note_on,39,0,8,,,,,,,,,12,,,,58,0
111765,note_on,0,0,8,,,,,,,,,12,,,,61,0
111769,note_on,39,0,9,,,,,,,,,13,,,,41,0
111771,note_on,39,0,10,,,,,,,,,14,,,,29,0
111780,note_on,21,0,6,,,,,,,,,10,,,,88,112
111782,note_on,21,0,7,,,,,,,,,11,,,,76,112
111786,note_on,0,0,8,,,,,,,,,12,,,,61,110
111786,note_on,21,0,8,,,,,,,,,12,,,,58,110
111790,note_on,21,0,9,,,,,,,,,13,,,,41,101
111792,note_on,21,0,10,,,,,,,,,14,,,,29,95
111819,note_on,39,0,6,,,,,,,,,10,,,,88,0
111821,note_on,39,0,7,,,,,,,,,11,,,,76,0
111825,note_on,39,0,8,,,,,,,,,12,,,,61,0
111825,note_on,0,0,8,,,,,,,,,12,,,,58,0
111829,note_on,39,0,9,,,,,,,,,13,,,,41,0
111831,note_on,39,0,10,,,,,,,,,14,,,,29,0
111840,note_on,21,0,6,,,,,,,,,10,,,,89,113
111840,set_tempo,240,1,0,,,,,,285714,,,,,,,,
111842,note_on,21,0,7,,,,,,,,,11,,,,77,113
111843,note_on,960,0,1,,,,,,,,,0,,,,88,0
111843,note_on,0,0,1,,,,,,,,,0,,,,89,110
111845,note_on,0,0,2,,,,,,,,,1,,,,77,110
111845,note_on,0,0,2,,,,,,,,,1,,,,69,110
111845,note_on,960,0,2,,,,,,,,,1,,,,79,0
111845,note_on,0,0,2,,,,,,,,,1,,,,70,0
111846,note_on,21,0,8,,,,,,,,,12,,,,57,111
111846,note_on,0,0,8,,,,,,,,,12,,,,60,111
111850,note_on,21,0,9,,,,,,,,,13,,,,41,102
111851,note_on,960,0,3,,,,,,,,,3,,,,60,110
111852,note_on,21,0,10,,,,,,,,,14,,,,29,96
111854,note_on,3,0,3,,,,,,,,,3,,,,61,0
111960,note_on,120,0,6,,,,,,,,,10,,,,89,0
111962,note_on,120,0,7,,,,,,,,,11,,,,77,0
111963,note_on,120,0,1,,,,,,,,,0,,,,89,0
111964,note_on,1080,0,4,,,,,,,,,4,,,,53,0
111965,note_on,120,0,2,,,,,,,,,1,,,,69,0
111965,note_on,0,0,2,,,,,,,,,1,,,,77,0
111966,note_on,0,0,8,,,,,,,,,12,,,,57,0
111966,note_on,120,0,8,,,,,,,,,12,,,,60,0
111966,note_on,1080,0,5,,,,,,,,,5,,,,41,0
111970,note_on,120,0,9,,,,,,,,,13,,,,41,0
111971,note_on,117,0,3,,,,,,,,,3,,,,60,0
111971,note_on,0,0,3,,,,,,,,,3,,,,53,0
111972,note_on,120,0,10,,,,,,,,,14,,,,29,0
112070,set_tempo,230,1,0,,,,,,281030,,,,,,,,
112080,note_on,0,0,6,,,,,,,,,10,,,,81,95
112080,note_on,0,0,6,,,,,,,,,10,,,,72,95
112080,note_on,120,0,6,,,,,,,,,10,,,,65,95
112082,note_on,0,0,7,,,,,,,,,11,,,,65,95
112082,note_on,120,0,7,,,,,,,,,11,,,,72,95
112082,note_on,0,0,7,,,,,,,,,11,,,,81,95
112083,note_on,120,0,1,,,,,,,,,0,,,,93,110
112084,note_on,120,0,4,,,,,,,,,4,,,,53,109
112085,note_on,120,0,2,,,,,,,,,1,,,,81,110
112085,note_on,0,0,2,,,,,,,,,1,,,,72,110
112086,note_on,0,0,8,,,,,,,,,12,,,,60,108
112086,note_on,120,0,8,,,,,,,,,12,,,,69,108
112086,note_on,120,0,5,,,,,,,,,5,,,,41,109
112086,note_on,0,0,8,,,,,,,,,12,,,,53,108
112090,note_on,120,0,9,,,,,,,,,13,,,,53,99
112091,note_on,120,0,3,,,,,,,,,3,,,,53,110
112092,note_on,120,0,10,,,,,,,,,14,,,,41,93
112200,note_on,120,0,6,,,,,,,,,10,,,,81,0
112200,note_on,0,0,6,,,,,,,,,10,,,,72,0
112200,note_on,0,0,6,,,,,,,,,10,,,,65,0
112202,note_on,0,0,7,,,,,,,,,11,,,,72,0
112202,note_on,120,0,7,,,,,,,,,11,,,,65,0
112202,note_on,0,0,7,,,,,,,,,11,,,,81,0
112203,note_on,120,0,1,,,,,,,,,0,,,,93,0
112204,note_on,120,0,4,,,,,,,,,4,,,,53,0
112205,note_on,0,0,2,,,,,,,,,1,,,,81,0
112205,note_on,120,0,2,,,,,,,,,1,,,,72,0
112206,note_on,120,0,5,,,,,,,,,5,,,,41,0
112206,note_on,120,0,8,,,,,,,,,12,,,,60,0
112206,note_on,0,0,8,,,,,,,,,12,,,,69,0
112206,note_on,0,0,8,,,,,,,,,12,,,,53,0
112210,note_on,120,0,9,,,,,,,,,13,,,,53,0
112211,note_on,120,0,3,,,,,,,,,3,,,,53,0
112212,note_on,120,0,10,,,,,,,,,14,,,,41,0
112320,set_tempo,250,1,0,,,,,,299252,,,,,,,,
112320,note_on,120,0,6,,,,,,,,,10,,,,65,94
112320,note_on,0,0,6,,,,,,,,,10,,,,57,94
112322,note_on,120,0,7,,,,,,,,,11,,,,57,94
112322,note_on,0,0,7,,,,,,,,,11,,,,65,94
112323,note_on,120,0,1,,,,,,,,,0,,,,89,93
112324,note_on,120,0,4,,,,,,,,,4,,,,53,92
112325,note_on,120,0,2,,,,,,,,,1,,,,69,93
112325,note_on,0,0,2,,,,,,,,,1,,,,77,93
112326,note_on,120,0,5,,,,,,,,,5,,,,41,92
112326,note_on,120,0,8,,,,,,,,,12,,,,53,92
112330,note_on,120,0,9,,,,,,,,,13,,,,41,83
112331,note_on,120,0,3,,,,,,,,,3,,,,53,93
112331,note_on,0,0,3,,,,,,,,,3,,,,41,93
112332,note_on,120,0,10,,,,,,,,,14,,,,29,77
112440,note_on,0,0,6,,,,,,,,,10,,,,65,0
112440,note_on,120,0,6,,,,,,,,,10,,,,57,0
112442,note_on,0,0,7,,,,,,,,,11,,,,57,0
112442,note_on,120,0,7,,,,,,,,,11,,,,65,0
112443,note_on,120,0,1,,,,,,,,,0,,,,89,0
112444,note_on,120,0,4,,,,,,,,,4,,,,53,0
112445,note_on,120,0,2,,,,,,,,,1,,,,77,0
112445,note_on,0,0,2,,,,,,,,,1,,,,69,0
112446,note_on,120,0,8,,,,,,,,,12,,,,53,0
112446,note_on,120,0,5,,,,,,,,,5,,,,41,0
112450,note_on,120,0,9,,,,,,,,,13,,,,41,0
112451,note_on,120,0,3,,,,,,,,,3,,,,41,0
112451,note_on,0,0,3,,,,,,,,,3,,,,53,0
112452,note_on,120,0,10,,,,,,,,,14,,,,29,0
112800,set_tempo,480,1,0,,,,,,272727,,,,,,,,
112802,control_change,360,0,7,,,,,,,,,11,11,17,,,
112802,note_on,0,0,7,,,,,,,,,11,,,,65,110
112806,note_on,0,0,8,,,,,,,,,12,,,,61,108
112806,control_change,360,0,8,,,,,,,,,12,11,17,,,
112810,control_change,360,0,9,,,,,,,,,13,11,17,,,
112810,note_on,0,0,9,,,,,,,,,13,,,,61,99
112812,control_change,360,0,10,,,,,,,,,14,11,17,,,
112812,note_on,0,0,10,,,,,,,,,14,,,,49,93
112823,control_change,21,0,7,,,,,,,,,11,11,19,,,
112827,control_change,21,0,8,,,,,,,,,12,11,19,,,
112831,control_change,21,0,9,,,,,,,,,13,11,19,,,
112833,control_change,21,0,10,,,,,,,,,14,11,19,,,
112844,control_change,21,0,7,,,,,,,,,11,11,22,,,
112848,control_change,21,0,8,,,,,,,,,12,11,22,,,
112852,control_change,21,0,9,,,,,,,,,13,11,22,,,
112854,control_change,21,0,10,,,,,,,,,14,11,22,,,
112865,control_change,21,0,7,,,,,,,,,11,11,25,,,
112869,control_change,21,0,8,,,,,,,,,12,11,25,,,
112873,control_change,21,0,9,,,,,,,,,13,11,25,,,
112875,control_change,21,0,10,,,,,,,,,14,11,25,,,
112887,control_change,22,0,7,,,,,,,,,11,11,28,,,
112891,control_change,22,0,8,,,,,,,,,12,11,28,,,
112895,control_change,22,0,9,,,,,,,,,13,11,28,,,
112897,control_change,22,0,10,,,,,,,,,14,11,28,,,
112908,control_change,21,0,7,,,,,,,,,11,11,31,,,
112912,control_change,21,0,8,,,,,,,,,12,11,31,,,
112916,control_change,21,0,9,,,,,,,,,13,11,31,,,
112918,control_change,21,0,10,,,,,,,,,14,11,31,,,
112923,control_change,480,0,1,,,,,,,,,0,11,47,,,
112923,note_on,0,0,1,,,,,,,,,0,,,,77,97
112929,control_change,21,0,7,,,,,,,,,11,11,34,,,
112933,control_change,21,0,8,,,,,,,,,12,11,34,,,
112937,control_change,21,0,9,,,,,,,,,13,11,34,,,
112939,control_change,21,0,10,,,,,,,,,14,11,34,,,
112950,control_change,21,0,7,,,,,,,,,11,11,37,,,
112954,control_change,21,0,8,,,,,,,,,12,11,37,,,
112958,control_change,21,0,9,,,,,,,,,13,11,37,,,
112960,control_change,21,0,10,,,,,,,,,14,11,37,,,
112983,note_on,0,0,1,,,,,,,,,0,,,,80,97
112983,note_on,60,0,1,,,,,,,,,0,,,,77,0
113040,set_tempo,240,1,0,,,,,,270270,,,,,,,,
113043,note_on,60,0,1,,,,,,,,,0,,,,80,0
113043,note_on,0,0,1,,,,,,,,,0,,,,85,97
113103,note_on,60,0,1,,,,,,,,,0,,,,85,0
113163,note_on,60,0,1,,,,,,,,,0,,,,85,97
113223,note_on,60,0,1,,,,,,,,,0,,,,85,0
113280,note_on,322,0,9,,,,,,,,,13,,,,61,0
113280,set_tempo,240,1,0,,,,,,283019,,,,,,,,
113282,note_on,322,0,10,,,,,,,,,14,,,,49,0
113283,note_on,60,0,1,,,,,,,,,0,,,,85,97
113290,note_on,10,0,9,,,,,,,,,13,,,,58,99
113292,note_on,10,0,10,,,,,,,,,14,,,,46,93
113405,note_on,0,0,2,,,,,,,,,1,,,,73,97
113405,control_change,960,0,2,,,,,,,,,1,11,47,,,
113465,note_on,60,0,2,,,,,,,,,1,,,,73,0
113465,note_on,0,0,2,,,,,,,,,1,,,,77,97
113520,set_tempo,240,1,0,,,,,,270270,,,,,,,,
113525,note_on,60,0,2,,,,,,,,,1,,,,77,0
113525,note_on,0,0,2,,,,,,,,,1,,,,82,97
113585,note_on,60,0,2,,,,,,,,,1,,,,82,0
113645,note_on,60,0,2,,,,,,,,,1,,,,82,97
113705,note_on,60,0,2,,,,,,,,,1,,,,82,0
113752,note_on,802,0,7,,,,,,,,,11,,,,65,0
113760,note_on,470,0,9,,,,,,,,,13,,,,58,0
113760,set_tempo,240,1,0,,,,,,283019,,,,,,,,
113762,note_on,10,0,7,,,,,,,,,11,,,,63,110
113762,note_on,470,0,10,,,,,,,,,14,,,,46,0
113765,note_on,60,0,2,,,,,,,,,1,,,,82,97
113770,note_on,10,0,9,,,,,,,,,13,,,,54,99
113772,note_on,10,0,10,,,,,,,,,14,,,,42,93
113880,note_on,0,0,6,,,,,,,,,10,,,,78,110
113880,control_change,1440,0,6,,,,,,,,,10,11,47,,,
113904,note_on,24,0,6,,,,,,,,,10,,,,78,0
113940,note_on,36,0,6,,,,,,,,,10,,,,80,110
113964,note_on,24,0,6,,,,,,,,,10,,,,80,0
114000,note_on,36,0,6,,,,,,,,,10,,,,82,110
114000,set_tempo,240,1,0,,,,,,270270,,,,,,,,
114024,note_on,24,0,6,,,,,,,,,10,,,,82,0
114060,note_on,36,0,6,,,,,,,,,10,,,,80,110
114084,note_on,24,0,6,,,,,,,,,10,,,,80,0
114120,note_on,36,0,6,,,,,,,,,10,,,,78,110
114144,note_on,24,0,6,,,,,,,,,10,,,,78,0
114180,note_on,36,0,6,,,,,,,,,10,,,,77,110
114204,note_on,24,0,6,,,,,,,,,10,,,,77,0
114236,note_on,1282,0,8,,,,,,,,,12,,,,61,0
114240,set_tempo,240,1,0,,,,,,283019,,,,,,,,
114240,note_on,36,0,6,,,,,,,,,10,,,,75,110
114243,note_on,960,0,1,,,,,,,,,0,,,,85,0
114243,note_on,0,0,1,,,,,,,,,0,,,,84,97
114245,note_on,0,0,2,,,,,,,,,1,,,,80,97
114245,note_on,480,0,2,,,,,,,,,1,,,,82,0
114246,note_on,10,0,8,,,,,,,,,12,,,,60,108
114250,note_on,0,0,9,,,,,,,,,13,,,,56,99
114250,note_on,480,0,9,,,,,,,,,13,,,,54,0
114252,note_on,480,0,10,,,,,,,,,14,,,,42,0
114252,note_on,0,0,10,,,,,,,,,14,,,,44,93
114264,note_on,24,0,6,,,,,,,,,10,,,,75,0
114300,note_on,36,0,6,,,,,,,,,10,,,,73,110
114324,note_on,24,0,6,,,,,,,,,10,,,,73,0
114360,note_on,36,0,6,,,,,,,,,10,,,,72,110
114384,note_on,24,0,6,,,,,,,,,10,,,,72,0
114420,note_on,36,0,6,,,,,,,,,10,,,,70,110
114444,note_on,24,0,6,,,,,,,,,10,,,,70,0
114480,set_tempo,240,1,0,,,,,,270270,,,,,,,,
114480,note_on,36,0,6,,,,,,,,,10,,,,68,110
114483,note_on,240,0,1,,,,,,,,,0,,,,84,0
114483,note_on,0,0,1,,,,,,,,,0,,,,87,97
114485,note_on,240,0,2,,,,,,,,,1,,,,80,0
114485,note_on,0,0,2,,,,,,,,,1,,,,78,97
114504,note_on,24,0,6,,,,,,,,,10,,,,68,0
114540,note_on,36,0,6,,,,,,,,,10,,,,66,110
114564,note_on,24,0,6,,,,,,,,,10,,,,66,0
114600,note_on,36,0,6,,,,,,,,,10,,,,65,110
114624,note_on,24,0,6,,,,,,,,,10,,,,65,0
114660,note_on,36,0,6,,,,,,,,,10,,,,63,110
114660,set_tempo,180,1,0,,,,,,299252,,,,,,,,
114684,note_on,24,0,6,,,,,,,,,10,,,,63,0
114712,note_on,950,0,7,,,,,,,,,11,,,,63,0
114716,note_on,470,0,8,,,,,,,,,12,,,,60,0
114720,set_tempo,60,1,0,,,,,,283019,,,,,,,,
114720,note_on,470,0,9,,,,,,,,,13,,,,56,0
114720,note_on,36,0,6,,,,,,,,,10,,,,61,77
114722,control_change,10,0,7,,,,,,,,,11,11,17,,,
114722,note_on,470,0,10,,,,,,,,,14,,,,44,0
114722,note_on,0,0,7,,,,,,,,,11,,,,61,110
114723,note_on,240,0,1,,,,,,,,,0,,,,87,0
114723,note_on,0,0,1,,,,,,,,,0,,,,85,97
114725,note_on,240,0,2,,,,,,,,,1,,,,78,0
114725,note_on,0,0,2,,,,,,,,,1,,,,77,97
114726,note_on,0,0,8,,,,,,,,,12,,,,61,108
114726,control_change,10,0,8,,,,,,,,,12,11,17,,,
114730,note_on,0,0,9,,,,,,,,,13,,,,58,99
114730,control_change,10,0,9,,,,,,,,,13,11,17,,,
114731,note_on,0,0,3,,,,,,,,,3,,,,58,97
114731,control_change,2280,0,3,,,,,,,,,3,11,37,,,
114731,note_on,0,0,3,,,,,,,,,3,,,,61,97
114732,control_change,10,0,10,,,,,,,,,14,11,17,,,
114732,note_on,0,0,10,,,,,,,,,14,,,,46,93
114743,control_change,21,0,7,,,,,,,,,11,11,19,,,
114747,control_change,21,0,8,,,,,,,,,12,11,19,,,
114751,control_change,21,0,9,,,,,,,,,13,11,19,,,
114753,control_change,21,0,10,,,,,,,,,14,11,19,,,
114764,control_change,21,0,7,,,,,,,,,11,11,22,,,
114768,control_change,21,0,8,,,,,,,,,12,11,22,,,
114772,control_change,21,0,9,,,,,,,,,13,11,22,,,
114774,control_change,21,0,10,,,,,,,,,14,11,22,,,
114785,control_change,21,0,7,,,,,,,,,11,11,25,,,
114789,control_change,21,0,8,,,,,,,,,12,11,25,,,
114793,control_change,21,0,9,,,,,,,,,13,11,25,,,
114795,control_change,21,0,10,,,,,,,,,14,11,25,,,
114807,control_change,22,0,7,,,,,,,,,11,11,28,,,
114811,control_change,22,0,8,,,,,,,,,12,11,28,,,
114815,control_change,22,0,9,,,,,,,,,13,11,28,,,
114817,control_change,22,0,10,,,,,,,,,14,11,28,,,
114828,control_change,21,0,7,,,,,,,,,11,11,31,,,
114832,control_change,21,0,8,,,,,,,,,12,11,31,,,
114836,control_change,21,0,9,,,,,,,,,13,11,31,,,
114838,control_change,21,0,10,,,,,,,,,14,11,31,,,
114840,note_on,120,0,6,,,,,,,,,10,,,,61,0
114843,note_on,0,0,1,,,,,,,,,0,,,,73,97
114843,note_on,120,0,1,,,,,,,,,0,,,,85,0
114845,note_on,120,0,2,,,,,,,,,1,,,,77,0
114849,control_change,21,0,7,,,,,,,,,11,11,34,,,
114853,control_change,21,0,8,,,,,,,,,12,11,34,,,
114857,control_change,21,0,9,,,,,,,,,13,11,34,,,
114859,control_change,21,0,10,,,,,,,,,14,11,34,,,
114870,control_change,21,0,7,,,,,,,,,11,11,37,,,
114874,control_change,21,0,8,,,,,,,,,12,11,37,,,
114878,control_change,21,0,9,,,,,,,,,13,11,37,,,
114880,control_change,21,0,10,,,,,,,,,14,11,37,,,
114903,note_on,0,0,1,,,,,,,,,0,,,,77,97
114903,note_on,60,0,1,,,,,,,,,0,,,,73,0
114960,set_tempo,240,1,0,,,,,,270270,,,,,,,,
114963,note_on,0,0,1,,,,,,,,,0,,,,82,97
114963,note_on,60,0,1,,,,,,,,,0,,,,77,0
115023,note_on,60,0,1,,,,,,,,,0,,,,82,0
115083,note_on,60,0,1,,,,,,,,,0,,,,82,97
115143,note_on,60,0,1,,,,,,,,,0,,,,82,0
115196,note_on,322,0,8,,,,,,,,,12,,,,61,0
115200,set_tempo,240,1,0,,,,,,283019,,,,,,,,
115203,note_on,60,0,1,,,,,,,,,0,,,,82,97
115206,note_on,10,0,8,,,,,,,,,12,,,,58,108
115210,note_on,332,0,9,,,,,,,,,13,,,,58,0
115210,note_on,0,0,9,,,,,,,,,13,,,,54,99
115212,note_on,332,0,10,,,,,,,,,14,,,,46,0
115212,note_on,0,0,10,,,,,,,,,14,,,,42,93
115325,note_on,480,0,2,,,,,,,,,1,,,,70,97
115385,note_on,0,0,2,,,,,,,,,1,,,,73,97
115385,note_on,60,0,2,,,,,,,,,1,,,,70,0
115440,set_tempo,240,1,0,,,,,,270270,,,,,,,,
115445,note_on,60,0,2,,,,,,,,,1,,,,73,0
115445,note_on,0,0,2,,,,,,,,,1,,,,78,97
115505,note_on,60,0,2,,,,,,,,,1,,,,78,0
115565,note_on,60,0,2,,,,,,,,,1,,,,78,97
115625,note_on,60,0,2,,,,,,,,,1,,,,78,0
115672,note_on,802,0,7,,,,,,,,,11,,,,61,0
115680,set_tempo,240,1,0,,,,,,283019,,,,,,,,
115680,note_on,470,0,9,,,,,,,,,13,,,,54,0
115682,note_on,10,0,7,,,,,,,,,11,,,,60,110
115682,note_on,470,0,10,,,,,,,,,14,,,,42,0
115685,note_on,60,0,2,,,,,,,,,1,,,,78,97
115690,note_on,10,0,9,,,,,,,,,13,,,,51,99
115691,note_on,0,0,3,,,,,,,,,3,,,,66,97
115691,note_on,960,0,3,,,,,,,,,3,,,,61,0
115692,note_on,10,0,10,,,,,,,,,14,,,,39,93
115800,note_on,960,0,6,,,,,,,,,10,,,,75,110
115824,note_on,24,0,6,,,,,,,,,10,,,,75,0
115860,note_on,36,0,6,,,,,,,,,10,,,,77,110
115884,note_on,24,0,6,,,,,,,,,10,,,,77,0
115920,note_on,36,0,6,,,,,,,,,10,,,,78,110
115920,set_tempo,240,1,0,,,,,,270270,,,,,,,,
115944,note_on,24,0,6,,,,,,,,,10,,,,78,0
115980,note_on,36,0,6,,,,,,,,,10,,,,77,110
116004,note_on,24,0,6,,,,,,,,,10,,,,77,0
116040,note_on,36,0,6,,,,,,,,,10,,,,75,110
116064,note_on,24,0,6,,,,,,,,,10,,,,75,0
116100,note_on,36,0,6,,,,,,,,,10,,,,73,110
116124,note_on,24,0,6,,,,,,,,,10,,,,73,0
116156,note_on,950,0,8,,,,,,,,,12,,,,58,0
116160,set_tempo,240,1,0,,,,,,283019,,,,,,,,
116160,note_on,36,0,6,,,,,,,,,10,,,,72,110
116163,note_on,0,0,1,,,,,,,,,0,,,,81,97
116163,note_on,960,0,1,,,,,,,,,0,,,,82,0
116165,note_on,0,0,2,,,,,,,,,1,,,,77,97
116165,note_on,480,0,2,,,,,,,,,1,,,,78,0
116166,note_on,10,0,8,,,,,,,,,12,,,,57,108
116170,note_on,0,0,9,,,,,,,,,13,,,,53,99
116170,note_on,480,0,9,,,,,,,,,13,,,,51,0
116171,note_on,480,0,3,,,,,,,,,3,,,,66,0
116171,note_on,0,0,3,,,,,,,,,3,,,,58,0
116171,note_on,0,0,3,,,,,,,,,3,,,,57,97
116171,note_on,0,0,3,,,,,,,,,3,,,,65,97
116172,note_on,0,0,10,,,,,,,,,14,,,,41,93
116172,note_on,480,0,10,,,,,,,,,14,,,,39,0
116184,note_on,24,0,6,,,,,,,,,10,,,,72,0
116220,note_on,36,0,6,,,,,,,,,10,,,,70,110
116244,note_on,24,0,6,,,,,,,,,10,,,,70,0
116280,note_on,36,0,6,,,,,,,,,10,,,,69,110
116304,note_on,24,0,6,,,,,,,,,10,,,,69,0
116340,note_on,36,0,6,,,,,,,,,10,,,,66,110
116364,note_on,24,0,6,,,,,,,,,10,,,,66,0
116400,note_on,36,0,6,,,,,,,,,10,,,,65,110
116400,set_tempo,240,1,0,,,,,,270270,,,,,,,,
116403,note_on,240,0,1,,,,,,,,,0,,,,81,0
116403,note_on,0,0,1,,,,,,,,,0,,,,84,97
116405,note_on,0,0,2,,,,,,,,,1,,,,75,97
116405,note_on,240,0,2,,,,,,,,,1,,,,77,0
116411,note_on,0,0,3,,,,,,,,,3,,,,63,97
116411,note_on,240,0,3,,,,,,,,,3,,,,65,0
116424,note_on,24,0,6,,,,,,,,,10,,,,65,0
116460,note_on,36,0,6,,,,,,,,,10,,,,63,110
116484,note_on,24,0,6,,,,,,,,,10,,,,63,0
116520,note_on,36,0,6,,,,,,,,,10,,,,61,110
116544,note_on,24,0,6,,,,,,,,,10,,,,61,0
116580,note_on,36,0,6,,,,,,,,,10,,,,60,110
116580,set_tempo,180,1,0,,,,,,299252,,,,,,,,
116604,note_on,24,0,6,,,,,,,,,10,,,,60,0
116632,note_on,950,0,7,,,,,,,,,11,,,,60,0
116636,note_on,470,0,8,,,,,,,,,12,,,,57,0
116640,set_tempo,60,1,0,,,,,,283019,,,,,,,,
116640,note_on,470,0,9,,,,,,,,,13,,,,53,0
116640,note_on,36,0,6,,,,,,,,,10,,,,58,77
116642,note_on,470,0,10,,,,,,,,,14,,,,41,0
116642,note_on,0,0,7,,,,,,,,,11,,,,58,110
116642,control_change,10,0,7,,,,,,,,,11,11,37,,,
116643,note_on,0,0,1,,,,,,,,,0,,,,82,97
116643,note_on,240,0,1,,,,,,,,,0,,,,84,0
116645,note_on,240,0,2,,,,,,,,,1,,,,75,0
116645,note_on,0,0,2,,,,,,,,,1,,,,73,97
116646,control_change,10,0,8,,,,,,,,,12,11,37,,,
116646,note_on,0,0,8,,,,,,,,,12,,,,58,108
116650,control_change,10,0,9,,,,,,,,,13,11,37,,,
116650,note_on,0,0,9,,,,,,,,,13,,,,54,99
116651,note_on,240,0,3,,,,,,,,,3,,,,63,0
116651,note_on,0,0,3,,,,,,,,,3,,,,61,97
116651,note_on,0,0,3,,,,,,,,,3,,,,57,0
116651,note_on,0,0,3,,,,,,,,,3,,,,58,97
116652,note_on,0,0,10,,,,,,,,,14,,,,42,93
116652,control_change,10,0,10,,,,,,,,,14,11,37,,,
116690,control_change,48,0,7,,,,,,,,,11,11,36,,,
116694,control_change,48,0,8,,,,,,,,,12,11,36,,,
116698,control_change,48,0,9,,,,,,,,,13,11,36,,,
116700,control_change,48,0,10,,,,,,,,,14,11,36,,,
116738,control_change,48,0,7,,,,,,,,,11,11,35,,,
116742,control_change,48,0,8,,,,,,,,,12,11,35,,,
116746,control_change,48,0,9,,,,,,,,,13,11,35,,,
116748,control_change,48,0,10,,,,,,,,,14,11,35,,,
116760,note_on,120,0,6,,,,,,,,,10,,,,58,0
116763,note_on,120,0,1,,,,,,,,,0,,,,82,0
116763,note_on,0,0,1,,,,,,,,,0,,,,70,97
116765,note_on,120,0,2,,,,,,,,,1,,,,73,0
116771,note_on,120,0,3,,,,,,,,,3,,,,58,0
116771,note_on,0,0,3,,,,,,,,,3,,,,61,0
116786,control_change,48,0,7,,,,,,,,,11,11,34,,,
116790,control_change,48,0,8,,,,,,,,,12,11,34,,,
116794,control_change,48,0,9,,,,,,,,,13,11,34,,,
116796,control_change,48,0,10,,,,,,,,,14,11,34,,,
116823,note_on,60,0,1,,,,,,,,,0,,,,70,0
116823,note_on,0,0,1,,,,,,,,,0,,,,73,97
116834,control_change,48,0,7,,,,,,,,,11,11,33,,,
116838,control_change,48,0,8,,,,,,,,,12,11,33,,,
116842,control_change,48,0,9,,,,,,,,,13,11,33,,,
116844,control_change,48,0,10,,,,,,,,,14,11,33,,,
116880,set_tempo,240,1,0,,,,,,270270,,,,,,,,
116882,control_change,48,0,7,,,,,,,,,11,11,32,,,
116883,note_on,0,0,1,,,,,,,,,0,,,,78,97
116883,note_on,60,0,1,,,,,,,,,0,,,,73,0
116886,control_change,48,0,8,,,,,,,,,12,11,32,,,
116890,control_change,48,0,9,,,,,,,,,13,11,32,,,
116892,control_change,48,0,10,,,,,,,,,14,11,32,,,
116930,control_change,48,0,7,,,,,,,,,11,11,31,,,
116934,control_change,48,0,8,,,,,,,,,12,11,31,,,
116938,control_change,48,0,9,,,,,,,,,13,11,31,,,
116940,control_change,48,0,10,,,,,,,,,14,11,31,,,
116943,note_on,60,0,1,,,,,,,,,0,,,,78,0
116978,control_change,48,0,7,,,,,,,,,11,11,30,,,
116982,control_change,48,0,8,,,,,,,,,12,11,30,,,
116986,control_change,48,0,9,,,,,,,,,13,11,30,,,
116988,control_change,48,0,10,,,,,,,,,14,11,30,,,
117003,note_on,60,0,1,,,,,,,,,0,,,,78,97
117026,control_change,48,0,7,,,,,,,,,11,11,29,,,
117030,control_change,48,0,8,,,,,,,,,12,11,29,,,
117034,control_change,48,0,9,,,,,,,,,13,11,29,,,
117036,control_change,48,0,10,,,,,,,,,14,11,29,,,
117063,note_on,60,0,1,,,,,,,,,0,,,,78,0
117074,control_change,48,0,7,,,,,,,,,11,11,28,,,
117078,control_change,48,0,8,,,,,,,,,12,11,28,,,
117082,control_change,48,0,9,,,,,,,,,13,11,28,,,
117084,control_change,48,0,10,,,,,,,,,14,11,28,,,
117116,note_on,38,0,8,,,,,,,,,12,,,,58,0
117120,set_tempo,240,1,0,,,,,,283019,,,,,,,,
117122,control_change,48,0,7,,,,,,,,,11,11,27,,,
117123,note_on,60,0,1,,,,,,,,,0,,,,78,97
117126,control_change,10,0,8,,,,,,,,,12,11,27,,,
117126,note_on,0,0,8,,,,,,,,,12,,,,54,108
117130,note_on,48,0,9,,,,,,,,,13,,,,54,0
117130,control_change,0,0,9,,,,,,,,,13,11,27,,,
117130,note_on,0,0,9,,,,,,,,,13,,,,51,99
117132,control_change,0,0,10,,,,,,,,,14,11,27,,,
117132,note_on,0,0,10,,,,,,,,,14,,,,39,93
117132,note_on,48,0,10,,,,,,,,,14,,,,42,0
117245,note_on,480,0,2,,,,,,,,,1,,,,66,97
117305,note_on,60,0,2,,,,,,,,,1,,,,66,0
117305,note_on,0,0,2,,,,,,,,,1,,,,70,97
117360,set_tempo,240,1,0,,,,,,270270,,,,,,,,
117365,note_on,60,0,2,,,,,,,,,1,,,,70,0
117365,note_on,0,0,2,,,,,,,,,1,,,,75,97
117425,note_on,60,0,2,,,,,,,,,1,,,,75,0
117485,note_on,60,0,2,,,,,,,,,1,,,,75,97
117545,note_on,60,0,2,,,,,,,,,1,,,,75,0
117592,note_on,470,0,7,,,,,,,,,11,,,,58,0
117600,note_on,470,0,9,,,,,,,,,13,,,,51,0
117600,set_tempo,240,1,0,,,,,,283019,,,,,,,,
117602,note_on,470,0,10,,,,,,,,,14,,,,39,0
117602,note_on,10,0,7,,,,,,,,,11,,,,56,110
117605,note_on,60,0,2,,,,,,,,,1,,,,75,97
117610,note_on,10,0,9,,,,,,,,,13,,,,47,99
117612,note_on,10,0,10,,,,,,,,,14,,,,35,93
117720,note_on,960,0,6,,,,,,,,,10,,,,71,100
117744,note_on,24,0,6,,,,,,,,,10,,,,71,0
117780,note_on,36,0,6,,,,,,,,,10,,,,73,105
117804,note_on,24,0,6,,,,,,,,,10,,,,73,0
117840,note_on,36,0,6,,,,,,,,,10,,,,75,110
117840,set_tempo,240,1,0,,,,,,270270,,,,,,,,
117864,note_on,24,0,6,,,,,,,,,10,,,,75,0
117900,note_on,36,0,6,,,,,,,,,10,,,,73,110
117924,note_on,24,0,6,,,,,,,,,10,,,,73,0
117960,note_on,36,0,6,,,,,,,,,10,,,,71,110
117984,note_on,24,0,6,,,,,,,,,10,,,,71,0
118020,note_on,36,0,6,,,,,,,,,10,,,,70,110
118044,note_on,24,0,6,,,,,,,,,10,,,,70,0
118080,set_tempo,240,1,0,,,,,,283019,,,,,,,,
118080,note_on,36,0,6,,,,,,,,,10,,,,68,110
118083,note_on,0,0,1,,,,,,,,,0,,,,77,97
118083,note_on,960,0,1,,,,,,,,,0,,,,78,0
118085,note_on,480,0,2,,,,,,,,,1,,,,75,0
118085,note_on,0,0,2,,,,,,,,,1,,,,73,97
118086,note_on,0,0,8,,,,,,,,,12,,,,53,108
118086,note_on,960,0,8,,,,,,,,,12,,,,54,0
118090,note_on,480,0,9,,,,,,,,,13,,,,47,0
118090,note_on,0,0,9,,,,,,,,,13,,,,49,99
118092,note_on,480,0,10,,,,,,,,,14,,,,35,0
118092,note_on,0,0,10,,,,,,,,,14,,,,37,93
118104,note_on,24,0,6,,,,,,,,,10,,,,68,0
118140,note_on,36,0,6,,,,,,,,,10,,,,66,110
118164,note_on,24,0,6,,,,,,,,,10,,,,66,0
118200,note_on,36,0,6,,,,,,,,,10,,,,65,110
118224,note_on,24,0,6,,,,,,,,,10,,,,65,0
118260,note_on,36,0,6,,,,,,,,,10,,,,63,110
118284,note_on,24,0,6,,,,,,,,,10,,,,63,0
118320,note_on,36,0,6,,,,,,,,,10,,,,61,110
118320,set_tempo,240,1,0,,,,,,270270,,,,,,,,
118323,note_on,0,0,1,,,,,,,,,0,,,,80,97
118323,note_on,240,0,1,,,,,,,,,0,,,,77,0
118325,note_on,240,0,2,,,,,,,,,1,,,,73,0
118325,note_on,0,0,2,,,,,,,,,1,,,,71,97
118344,note_on,24,0,6,,,,,,,,,10,,,,61,0
118380,note_on,36,0,6,,,,,,,,,10,,,,63,110
118404,note_on,24,0,6,,,,,,,,,10,,,,63,0
118440,note_on,36,0,6,,,,,,,,,10,,,,61,110
118464,note_on,24,0,6,,,,,,,,,10,,,,61,0
118500,set_tempo,180,1,0,,,,,,299252,,,,,,,,
118500,note_on,36,0,6,,,,,,,,,10,,,,59,110
118524,note_on,24,0,6,,,,,,,,,10,,,,59,0
118552,note_on,950,0,7,,,,,,,,,11,,,,56,0
118556,note_on,470,0,8,,,,,,,,,12,,,,53,0
118560,set_tempo,60,1,0,,,,,,283019,,,,,,,,
118560,note_on,470,0,9,,,,,,,,,13,,,,49,0
118560,note_on,36,0,6,,,,,,,,,10,,,,58,77
118562,note_on,10,0,7,,,,,,,,,11,,,,58,110
118562,note_on,470,0,10,,,,,,,,,14,,,,37,0
118563,note_on,240,0,1,,,,,,,,,0,,,,80,0
118563,note_on,0,0,1,,,,,,,,,0,,,,78,97
118565,note_on,240,0,2,,,,,,,,,1,,,,71,0
118565,note_on,0,0,2,,,,,,,,,1,,,,70,97
118566,note_on,10,0,8,,,,,,,,,12,,,,54,108
118570,note_on,10,0,9,,,,,,,,,13,,,,51,99
118571,note_on,0,0,3,,,,,,,,,3,,,,54,97
118571,note_on,1800,0,3,,,,,,,,,3,,,,51,97
118572,note_on,10,0,10,,,,,,,,,14,,,,39,93
118680,note_on,120,0,6,,,,,,,,,10,,,,58,0
118683,note_on,120,0,1,,,,,,,,,0,,,,78,0
118685,note_on,0,0,2,,,,,,,,,1,,,,66,97
118685,note_on,120,0,2,,,,,,,,,1,,,,70,0
118745,note_on,60,0,2,,,,,,,,,1,,,,66,0
118745,note_on,0,0,2,,,,,,,,,1,,,,70,97
118800,set_tempo,240,1,0,,,,,,270270,,,,,,,,
118805,note_on,60,0,2,,,,,,,,,1,,,,70,0
118805,note_on,0,0,2,,,,,,,,,1,,,,75,97
118865,note_on,60,0,2,,,,,,,,,1,,,,75,0
118925,note_on,60,0,2,,,,,,,,,1,,,,75,97
118985,note_on,60,0,2,,,,,,,,,1,,,,75,0
119036,note_on,470,0,8,,,,,,,,,12,,,,54,0
119040,set_tempo,240,1,0,,,,,,283019,,,,,,,,
119042,note_on,0,0,7,,,,,,,,,11,,,,66,110
119042,note_on,480,0,7,,,,,,,,,11,,,,58,0
119045,note_on,60,0,2,,,,,,,,,1,,,,75,97
119046,note_on,10,0,8,,,,,,,,,12,,,,63,108
119050,note_on,0,0,9,,,,,,,,,13,,,,47,99
119050,note_on,480,0,9,,,,,,,,,13,,,,51,0
119052,note_on,0,0,10,,,,,,,,,14,,,,35,93
119052,note_on,480,0,10,,,,,,,,,14,,,,39,0
119163,note_on,480,0,1,,,,,,,,,0,,,,75,97
119223,note_on,0,0,1,,,,,,,,,0,,,,78,97
119223,note_on,60,0,1,,,,,,,,,0,,,,75,0
119280,set_tempo,240,1,0,,,,,,270270,,,,,,,,
119283,note_on,60,0,1,,,,,,,,,0,,,,78,0
119283,note_on,0,0,1,,,,,,,,,0,,,,83,97
119343,note_on,60,0,1,,,,,,,,,0,,,,83,0
119403,note_on,60,0,1,,,,,,,,,0,,,,83,97
119463,note_on,60,0,1,,,,,,,,,0,,,,83,0
119512,note_on,470,0,7,,,,,,,,,11,,,,66,0
119520,note_on,470,0,9,,,,,,,,,13,,,,47,0
119520,set_tempo,240,1,0,,,,,,283019,,,,,,,,
119522,note_on,470,0,10,,,,,,,,,14,,,,35,0
119522,note_on,10,0,7,,,,,,,,,11,,,,65,110
119523,note_on,60,0,1,,,,,,,,,0,,,,83,97
119530,note_on,10,0,9,,,,,,,,,13,,,,44,99
119531,note_on,960,0,3,,,,,,,,,3,,,,54,0
119531,note_on,0,0,3,,,,,,,,,3,,,,59,97
119532,note_on,10,0,10,,,,,,,,,14,,,,32,93
119640,note_on,960,0,6,,,,,,,,,10,,,,80,100
119664,note_on,24,0,6,,,,,,,,,10,,,,80,0
119700,note_on,36,0,6,,,,,,,,,10,,,,82,105
119724,note_on,24,0,6,,,,,,,,,10,,,,82,0
119760,set_tempo,240,1,0,,,,,,270270,,,,,,,,
119760,note_on,36,0,6,,,,,,,,,10,,,,83,110
119784,note_on,24,0,6,,,,,,,,,10,,,,83,0
119820,note_on,36,0,6,,,,,,,,,10,,,,82,110
119844,note_on,24,0,6,,,,,,,,,10,,,,82,0
119880,note_on,36,0,6,,,,,,,,,10,,,,80,110
119904,note_on,24,0,6,,,,,,,,,10,,,,80,0
119940,note_on,36,0,6,,,,,,,,,10,,,,78,110
119964,note_on,24,0,6,,,,,,,,,10,,,,78,0
119996,note_on,950,0,8,,,,,,,,,12,,,,63,0
120000,set_tempo,240,1,0,,,,,,283019,,,,,,,,
120000,note_on,36,0,6,,,,,,,,,10,,,,77,110
120002,control_change,480,0,7,,,,,,,,,11,11,27,,,
120003,note_on,480,0,1,,,,,,,,,0,,,,83,0
120003,note_on,0,0,1,,,,,,,,,0,,,,82,97
120005,note_on,960,0,2,,,,,,,,,1,,,,75,0
120005,note_on,0,0,2,,,,,,,,,1,,,,74,97
120006,note_on,0,0,8,,,,,,,,,12,,,,62,108
120006,control_change,10,0,8,,,,,,,,,12,11,27,,,
120010,control_change,0,0,9,,,,,,,,,13,11,27,,,
120010,note_on,0,0,9,,,,,,,,,13,,,,46,99
120010,note_on,480,0,9,,,,,,,,,13,,,,44,0
120011,note_on,0,0,3,,,,,,,,,3,,,,51,0
120011,note_on,0,0,3,,,,,,,,,3,,,,58,97
120011,note_on,0,0,3,,,,,,,,,3,,,,50,97
120011,note_on,480,0,3,,,,,,,,,3,,,,59,0
120012,note_on,480,0,10,,,,,,,,,14,,,,32,0
120012,control_change,0,0,10,,,,,,,,,14,11,27,,,
120012,note_on,0,0,10,,,,,,,,,14,,,,34,93
120024,note_on,24,0,6,,,,,,,,,10,,,,77,0
120049,control_change,47,0,7,,,,,,,,,11,11,28,,,
120053,control_change,47,0,8,,,,,,,,,12,11,28,,,
120057,control_change,47,0,9,,,,,,,,,13,11,28,,,
120059,control_change,47,0,10,,,,,,,,,14,11,28,,,
120060,note_on,36,0,6,,,,,,,,,10,,,,75,110
120084,note_on,24,0,6,,,,,,,,,10,,,,75,0
120097,control_change,48,0,7,,,,,,,,,11,11,29,,,
120101,control_change,48,0,8,,,,,,,,,12,11,29,,,
120105,control_change,48,0,9,,,,,,,,,13,11,29,,,
120107,control_change,48,0,10,,,,,,,,,14,11,29,,,
120120,note_on,36,0,6,,,,,,,,,10,,,,74,110
120144,note_on,24,0,6,,,,,,,,,10,,,,74,0
120145,control_change,48,0,7,,,,,,,,,11,11,30,,,
120149,control_change,48,0,8,,,,,,,,,12,11,30,,,
120153,control_change,48,0,9,,,,,,,,,13,11,30,,,
120155,control_change,48,0,10,,,,,,,,,14,11,30,,,
120180,note_on,36,0,6,,,,,,,,,10,,,,71,110
120193,control_change,48,0,7,,,,,,,,,11,11,31,,,
120197,control_change,48,0,8,,,,,,,,,12,11,31,,,
120201,control_change,48,0,9,,,,,,,,,13,11,31,,,
120203,control_change,48,0,10,,,,,,,,,14,11,31,,,
120204,note_on,24,0,6,,,,,,,,,10,,,,71,0
120240,note_on,36,0,6,,,,,,,,,10,,,,70,110
120240,set_tempo,240,1,0,,,,,,270270,,,,,,,,
120241,control_change,48,0,7,,,,,,,,,11,11,32,,,
120243,note_on,0,0,1,,,,,,,,,0,,,,80,97
120243,note_on,240,0,1,,,,,,,,,0,,,,82,0
120245,note_on,240,0,2,,,,,,,,,1,,,,74,0
120245,control_change,48,0,8,,,,,,,,,12,11,32,,,
120245,note_on,0,0,2,,,,,,,,,1,,,,77,97
120249,control_change,48,0,9,,,,,,,,,13,11,32,,,
120251,control_change,48,0,10,,,,,,,,,14,11,32,,,
120264,note_on,24,0,6,,,,,,,,,10,,,,70,0
120289,control_change,48,0,7,,,,,,,,,11,11,33,,,
120293,control_change,48,0,8,,,,,,,,,12,11,33,,,
120297,control_change,48,0,9,,,,,,,,,13,11,33,,,
120299,control_change,48,0,10,,,,,,,,,14,11,33,,,
120300,note_on,36,0,6,,,,,,,,,10,,,,68,110
120324,note_on,24,0,6,,,,,,,,,10,,,,68,0
120337,control_change,48,0,7,,,,,,,,,11,11,34,,,
120341,control_change,48,0,8,,,,,,,,,12,11,34,,,
120345,control_change,48,0,9,,,,,,,,,13,11,34,,,
120347,control_change,48,0,10,,,,,,,,,14,11,34,,,
120360,note_on,36,0,6,,,,,,,,,10,,,,66,110
120384,note_on,24,0,6,,,,,,,,,10,,,,66,0
120385,control_change,48,0,7,,,,,,,,,11,11,35,,,
120389,control_change,48,0,8,,,,,,,,,12,11,35,,,
120393,control_change,48,0,9,,,,,,,,,13,11,35,,,
120395,control_change,48,0,10,,,,,,,,,14,11,35,,,
120420,note_on,36,0,6,,,,,,,,,10,,,,65,110
120420,set_tempo,180,1,0,,,,,,299252,,,,,,,,
120433,control_change,48,0,7,,,,,,,,,11,11,36,,,
120437,control_change,48,0,8,,,,,,,,,12,11,36,,,
120441,control_change,48,0,9,,,,,,,,,13,11,36,,,
120443,control_change,48,0,10,,,,,,,,,14,11,36,,,
120444,note_on,24,0,6,,,,,,,,,10,,,,65,0
120472,note_on,39,0,7,,,,,,,,,11,,,,65,0
120476,note_on,39,0,8,,,,,,,,,12,,,,62,0
120480,note_on,36,0,6,,,,,,,,,10,,,,63,97
120480,note_on,39,0,9,,,,,,,,,13,,,,46,0
120480,set_tempo,60,1,0,,,,,,283019,,,,,,,,
120481,control_change,9,0,7,,,,,,,,,11,11,37,,,
120482,note_on,1,0,7,,,,,,,,,11,,,,63,110
120482,note_on,39,0,10,,,,,,,,,14,,,,34,0
120483,note_on,0,0,1,,,,,,,,,0,,,,78,97
120483,note_on,240,0,1,,,,,,,,,0,,,,80,0
120485,control_change,9,0,8,,,,,,,,,12,11,37,,,
120485,note_on,0,0,2,,,,,,,,,1,,,,75,97
120485,note_on,240,0,2,,,,,,,,,1,,,,77,0
120486,note_on,1,0,8,,,,,,,,,12,,,,63,108
120489,control_change,9,0,9,,,,,,,,,13,11,37,,,
120490,note_on,1,0,9,,,,,,,,,13,,,,51,99
120491,note_on,0,0,3,,,,,,,,,3,,,,50,0
120491,note_on,0,0,3,,,,,,,,,3,,,,51,97
120491,note_on,480,0,3,,,,,,,,,3,,,,58,0
120491,control_change,9,0,10,,,,,,,,,14,11,37,,,
120492,note_on,1,0,10,,,,,,,,,14,,,,39,93
120580,note_on,100,0,6,,,,,,,,,10,,,,63,0
120582,note_on,100,0,7,,,,,,,,,11,,,,63,0
120586,note_on,100,0,8,,,,,,,,,12,,,,63,0
120588,note_on,105,0,1,,,,,,,,,0,,,,78,0
120590,note_on,105,0,2,,,,,,,,,1,,,,75,0
120590,note_on,100,0,9,,,,,,,,,13,,,,51,0
120591,note_on,100,0,3,,,,,,,,,3,,,,51,0
120592,note_on,100,0,10,,,,,,,,,14,,,,39,0
120600,note_on,0,0,6,,,,,,,,,10,,,,63,110
120600,control_change,20,0,6,,,,,,,,,10,11,65,,,
120602,note_on,0,0,7,,,,,,,,,11,,,,63,110
120602,control_change,20,0,7,,,,,,,,,11,11,65,,,
120606,note_on,0,0,8,,,,,,,,,12,,,,63,108
120606,control_change,20,0,8,,,,,,,,,12,11,65,,,
120610,note_on,0,0,9,,,,,,,,,13,,,,51,99
120610,control_change,20,0,9,,,,,,,,,13,11,65,,,
120611,note_on,0,0,3,,,,,,,,,3,,,,51,97
120611,control_change,20,0,3,,,,,,,,,3,11,79,,,
120612,control_change,20,0,10,,,,,,,,,14,11,65,,,
120612,note_on,0,0,10,,,,,,,,,14,,,,39,93
120618,control_change,18,0,6,,,,,,,,,10,11,69,,,
120620,control_change,18,0,7,,,,,,,,,11,11,69,,,
120624,control_change,18,0,8,,,,,,,,,12,11,69,,,
120628,control_change,18,0,9,,,,,,,,,13,11,69,,,
120630,control_change,18,0,10,,,,,,,,,14,11,69,,,
120636,control_change,18,0,6,,,,,,,,,10,11,73,,,
120638,control_change,18,0,7,,,,,,,,,11,11,73,,,
120642,control_change,18,0,8,,,,,,,,,12,11,73,,,
120646,control_change,18,0,9,,,,,,,,,13,11,73,,,
120648,control_change,18,0,10,,,,,,,,,14,11,73,,,
120654,control_change,18,0,6,,,,,,,,,10,11,77,,,
120656,control_change,18,0,7,,,,,,,,,11,11,77,,,
120660,control_change,18,0,8,,,,,,,,,12,11,77,,,
120660,note_on,0,0,6,,,,,,,,,10,,,,66,110
120660,note_on,6,0,6,,,,,,,,,10,,,,63,0
120662,note_on,0,0,7,,,,,,,,,11,,,,66,110
120662,note_on,6,0,7,,,,,,,,,11,,,,63,0
120664,control_change,18,0,9,,,,,,,,,13,11,77,,,
120666,control_change,18,0,10,,,,,,,,,14,11,77,,,
120666,note_on,6,0,8,,,,,,,,,12,,,,63,0
120666,note_on,0,0,8,,,,,,,,,12,,,,66,108
120670,note_on,6,0,9,,,,,,,,,13,,,,51,0
120670,note_on,0,0,9,,,,,,,,,13,,,,54,99
120671,note_on,0,0,3,,,,,,,,,3,,,,54,97
120671,note_on,60,0,3,,,,,,,,,3,,,,51,0
120672,note_on,6,0,10,,,,,,,,,14,,,,39,0
120672,note_on,0,0,10,,,,,,,,,14,,,,42,93
120720,note_on,0,0,6,,,,,,,,,10,,,,70,110
120720,note_on,60,0,6,,,,,,,,,10,,,,66,0
120720,set_tempo,240,1,0,,,,,,270270,,,,,,,,
120722,note_on,60,0,7,,,,,,,,,11,,,,66,0
120722,note_on,0,0,7,,,,,,,,,11,,,,70,110
120726,note_on,0,0,8,,,,,,,,,12,,,,70,108
120726,note_on,60,0,8,,,,,,,,,12,,,,66,0
120730,note_on,0,0,9,,,,,,,,,13,,,,58,99
120730,note_on,60,0,9,,,,,,,,,13,,,,54,0
120731,note_on,60,0,3,,,,,,,,,3,,,,54,0
120731,note_on,0,0,3,,,,,,,,,3,,,,58,97
120732,note_on,60,0,10,,,,,,,,,14,,,,42,0
120732,note_on,0,0,10,,,,,,,,,14,,,,46,93
120780,note_on,60,0,6,,,,,,,,,10,,,,70,0
120782,note_on,60,0,7,,,,,,,,,11,,,,70,0
120786,note_on,60,0,8,,,,,,,,,12,,,,70,0
120790,note_on,60,0,9,,,,,,,,,13,,,,58,0
120791,note_on,60,0,3,,,,,,,,,3,,,,58,0
120792,note_on,60,0,10,,,,,,,,,14,,,,46,0
120840,note_on,60,0,6,,,,,,,,,10,,,,77,110
120840,note_on,0,0,6,,,,,,,,,10,,,,70,110
120842,note_on,0,0,7,,,,,,,,,11,,,,65,110
120842,note_on,60,0,7,,,,,,,,,11,,,,74,110
120843,note_on,0,0,1,,,,,,,,,0,,,,89,97
120843,control_change,255,0,1,,,,,,,,,0,11,79,,,
120844,note_on,0,0,4,,,,,,,,,4,,,,58,96
120844,control_change,8400,0,4,,,,,,,,,4,11,79,,,
120845,note_on,0,0,2,,,,,,,,,1,,,,77,97
120845,control_change,255,0,2,,,,,,,,,1,11,79,,,
120845,note_on,0,0,2,,,,,,,,,1,,,,74,97
120846,control_change,8400,0,5,,,,,,,,,5,11,79,,,
120846,note_on,0,0,5,,,,,,,,,5,,,,46,96
120846,note_on,60,0,8,,,,,,,,,12,,,,58,108
120850,note_on,60,0,9,,,,,,,,,13,,,,46,99
120851,note_on,60,0,3,,,,,,,,,3,,,,46,97
120852,note_on,60,0,10,,,,,,,,,14,,,,34,93
120900,note_on,60,0,6,,,,,,,,,10,,,,70,0
120900,note_on,0,0,6,,,,,,,,,10,,,,77,0
120902,note_on,0,0,7,,,,,,,,,11,,,,74,0
120902,note_on,60,0,7,,,,,,,,,11,,,,65,0
120906,note_on,60,0,8,,,,,,,,,12,,,,58,0
120910,note_on,60,0,9,,,,,,,,,13,,,,46,0
120911,note_on,60,0,3,,,,,,,,,3,,,,46,0
120912,note_on,60,0,10,,,,,,,,,14,,,,34,0
120938,note_on,95,0,1,,,,,,,,,0,,,,89,0
120939,note_on,95,0,4,,,,,,,,,4,,,,58,0
120940,note_on,0,0,2,,,,,,,,,1,,,,74,0
120940,note_on,95,0,2,,,,,,,,,1,,,,77,0
120941,note_on,95,0,5,,,,,,,,,5,,,,46,0
120960,note_on,0,0,6,,,,,,,,,10,,,,78,110
120960,note_on,60,0,6,,,,,,,,,10,,,,70,110
120960,set_tempo,240,1,0,,,,,,283019,,,,,,,,
120962,note_on,60,0,7,,,,,,,,,11,,,,75,110
120962,note_on,0,0,7,,,,,,,,,11,,,,66,110
120963,note_on,25,0,1,,,,,,,,,0,,,,90,97
120964,note_on,25,0,4,,,,,,,,,4,,,,58,96
120965,note_on,25,0,2,,,,,,,,,1,,,,75,97
120965,note_on,0,0,2,,,,,,,,,1,,,,78,97
120966,note_on,25,0,5,,,,,,,,,5,,,,46,96
120966,note_on,60,0,8,,,,,,,,,12,,,,63,108
120970,note_on,60,0,9,,,,,,,,,13,,,,51,99
120971,note_on,60,0,3,,,,,,,,,3,,,,51,97
120972,note_on,60,0,10,,,,,,,,,14,,,,39,93
121020,note_on,60,0,6,,,,,,,,,10,,,,78,0
121020,note_on,0,0,6,,,,,,,,,10,,,,70,0
121022,note_on,60,0,7,,,,,,,,,11,,,,66,0
121022,note_on,0,0,7,,,,,,,,,11,,,,75,0
121026,note_on,60,0,8,,,,,,,,,12,,,,63,0
121030,note_on,60,0,9,,,,,,,,,13,,,,51,0
121031,note_on,60,0,3,,,,,,,,,3,,,,51,0
121032,note_on,60,0,10,,,,,,,,,14,,,,39,0
121080,note_on,60,0,6,,,,,,,,,10,,,,63,110
121082,note_on,60,0,7,,,,,,,,,11,,,,63,110
121083,note_on,120,0,1,,,,,,,,,0,,,,90,0
121084,note_on,120,0,4,,,,,,,,,4,,,,58,0
121085,note_on,120,0,2,,,,,,,,,1,,,,78,0
121085,note_on,0,0,2,,,,,,,,,1,,,,75,0
121086,note_on,120,0,5,,,,,,,,,5,,,,46,0
121086,note_on,60,0,8,,,,,,,,,12,,,,63,108
121090,note_on,60,0,9,,,,,,,,,13,,,,51,99
121091,note_on,60,0,3,,,,,,,,,3,,,,51,97
121092,note_on,60,0,10,,,,,,,,,14,,,,39,93
121140,note_on,0,0,6,,,,,,,,,10,,,,66,110
121140,note_on,60,0,6,,,,,,,,,10,,,,63,0
121142,note_on,0,0,7,,,,,,,,,11,,,,66,110
121142,note_on,60,0,7,,,,,,,,,11,,,,63,0
121146,note_on,0,0,8,,,,,,,,,12,,,,66,108
121146,note_on,60,0,8,,,,,,,,,12,,,,63,0
121150,note_on,60,0,9,,,,,,,,,13,,,,51,0
121150,note_on,0,0,9,,,,,,,,,13,,,,54,99
121151,note_on,0,0,3,,,,,,,,,3,,,,54,97
121151,note_on,60,0,3,,,,,,,,,3,,,,51,0
121152,note_on,60,0,10,,,,,,,,,14,,,,39,0
121152,note_on,0,0,10,,,,,,,,,14,,,,42,93
121200,set_tempo,240,1,0,,,,,,270270,,,,,,,,
121200,note_on,60,0,6,,,,,,,,,10,,,,66,0
121200,note_on,0,0,6,,,,,,,,,10,,,,70,110
121202,note_on,0,0,7,,,,,,,,,11,,,,70,110
121202,note_on,60,0,7,,,,,,,,,11,,,,66,0
121206,note_on,0,0,8,,,,,,,,,12,,,,70,108
121206,note_on,60,0,8,,,,,,,,,12,,,,66,0
121210,note_on,0,0,9,,,,,,,,,13,,,,58,99
121210,note_on,60,0,9,,,,,,,,,13,,,,54,0
121211,note_on,0,0,3,,,,,,,,,3,,,,58,97
121211,note_on,60,0,3,,,,,,,,,3,,,,54,0
121212,note_on,60,0,10,,,,,,,,,14,,,,42,0
121212,note_on,0,0,10,,,,,,,,,14,,,,46,93
121260,note_on,60,0,6,,,,,,,,,10,,,,70,0
121262,note_on,60,0,7,,,,,,,,,11,,,,70,0
121266,note_on,60,0,8,,,,,,,,,12,,,,70,0
121270,note_on,60,0,9,,,,,,,,,13,,,,58,0
121271,note_on,60,0,3,,,,,,,,,3,,,,58,0
121272,note_on,60,0,10,,,,,,,,,14,,,,46,0
121320,note_on,60,0,6,,,,,,,,,10,,,,77,110
121320,note_on,0,0,6,,,,,,,,,10,,,,70,110
121322,note_on,0,0,7,,,,,,,,,11,,,,70,110
121322,note_on,60,0,7,,,,,,,,,11,,,,77,110
121323,note_on,240,0,1,,,,,,,,,0,,,,89,97
121324,note_on,240,0,4,,,,,,,,,4,,,,58,96
121325,note_on,240,0,2,,,,,,,,,1,,,,77,97
121325,note_on,0,0,2,,,,,,,,,1,,,,70,97
121326,note_on,60,0,8,,,,,,,,,12,,,,62,108
121326,note_on,240,0,5,,,,,,,,,5,,,,58,96
121330,note_on,60,0,9,,,,,,,,,13,,,,50,99
121331,note_on,60,0,3,,,,,,,,,3,,,,50,97
121332,note_on,60,0,10,,,,,,,,,14,,,,38,93
121380,note_on,0,0,6,,,,,,,,,10,,,,77,0
121380,note_on,60,0,6,,,,,,,,,10,,,,70,0
121382,note_on,60,0,7,,,,,,,,,11,,,,70,0
121382,note_on,0,0,7,,,,,,,,,11,,,,77,0
121386,note_on,60,0,8,,,,,,,,,12,,,,62,0
121390,note_on,60,0,9,,,,,,,,,13,,,,50,0
121391,note_on,60,0,3,,,,,,,,,3,,,,50,0
121392,note_on,60,0,10,,,,,,,,,14,,,,38,0
121440,note_on,60,0,6,,,,,,,,,10,,,,70,110
121440,note_on,0,0,6,,,,,,,,,10,,,,78,110
121440,set_tempo,240,1,0,,,,,,283019,,,,,,,,
121442,note_on,0,0,7,,,,,,,,,11,,,,78,110
121442,note_on,60,0,7,,,,,,,,,11,,,,70,110
121443,note_on,120,0,1,,,,,,,,,0,,,,89,0
121443,note_on,0,0,1,,,,,,,,,0,,,,90,97
121444,note_on,120,0,4,,,,,,,,,4,,,,58,0
121444,note_on,0,0,4,,,,,,,,,4,,,,58,96
121445,note_on,0,0,2,,,,,,,,,1,,,,78,97
121445,note_on,0,0,2,,,,,,,,,1,,,,77,0
121445,note_on,120,0,2,,,,,,,,,1,,,,70,0
121445,note_on,0,0,2,,,,,,,,,1,,,,70,97
121446,note_on,120,0,5,,,,,,,,,5,,,,58,0
121446,note_on,60,0,8,,,,,,,,,12,,,,63,108
121446,note_on,0,0,5,,,,,,,,,5,,,,58,96
121450,note_on,60,0,9,,,,,,,,,13,,,,51,99
121451,note_on,60,0,3,,,,,,,,,3,,,,51,97
121452,note_on,60,0,10,,,,,,,,,14,,,,39,93
121500,note_on,60,0,6,,,,,,,,,10,,,,78,0
121500,note_on,0,0,6,,,,,,,,,10,,,,70,0
121502,note_on,60,0,7,,,,,,,,,11,,,,78,0
121502,note_on,0,0,7,,,,,,,,,11,,,,70,0
121506,note_on,60,0,8,,,,,,,,,12,,,,63,0
121510,note_on,60,0,9,,,,,,,,,13,,,,51,0
121511,note_on,60,0,3,,,,,,,,,3,,,,51,0
121512,note_on,60,0,10,,,,,,,,,14,,,,39,0
121538,note_on,95,0,1,,,,,,,,,0,,,,90,0
121539,note_on,95,0,4,,,,,,,,,4,,,,58,0
121540,note_on,95,0,2,,,,,,,,,1,,,,70,0
121540,note_on,0,0,2,,,,,,,,,1,,,,78,0
121541,note_on,95,0,5,,,,,,,,,5,,,,58,0
121560,note_on,60,0,6,,,,,,,,,10,,,,70,110
121560,note_on,0,0,6,,,,,,,,,10,,,,77,110
121562,note_on,0,0,7,,,,,,,,,11,,,,77,110
121562,note_on,60,0,7,,,,,,,,,11,,,,70,110
121563,note_on,25,0,1,,,,,,,,,0,,,,89,97
121564,note_on,25,0,4,,,,,,,,,4,,,,58,96
121565,note_on,25,0,2,,,,,,,,,1,,,,70,97
121565,note_on,0,0,2,,,,,,,,,1,,,,77,97
121566,note_on,25,0,5,,,,,,,,,5,,,,58,96
121566,note_on,60,0,8,,,,,,,,,12,,,,62,108
121570,note_on,60,0,9,,,,,,,,,13,,,,50,99
121571,note_on,60,0,3,,,,,,,,,3,,,,50,97
121572,note_on,60,0,10,,,,,,,,,14,,,,38,93
121620,note_on,0,0,6,,,,,,,,,10,,,,70,0
121620,note_on,60,0,6,,,,,,,,,10,,,,77,0
121622,note_on,60,0,7,,,,,,,,,11,,,,77,0
121622,note_on,0,0,7,,,,,,,,,11,,,,70,0
121626,note_on,60,0,8,,,,,,,,,12,,,,62,0
121630,note_on,60,0,9,,,,,,,,,13,,,,50,0
121631,note_on,60,0,3,,,,,,,,,3,,,,50,0
121632,note_on,60,0,10,,,,,,,,,14,,,,38,0
121658,note_on,95,0,1,,,,,,,,,0,,,,89,0
121659,note_on,95,0,4,,,,,,,,,4,,,,58,0
121660,note_on,0,0,2,,,,,,,,,1,,,,70,0
121660,note_on,95,0,2,,,,,,,,,1,,,,77,0
121661,note_on,95,0,5,,,,,,,,,5,,,,58,0
121680,note_on,60,0,6,,,,,,,,,10,,,,78,110
121680,note_on,0,0,6,,,,,,,,,10,,,,70,110
121680,set_tempo,240,1,0,,,,,,270270,,,,,,,,
121682,note_on,0,0,7,,,,,,,,,11,,,,70,110
121682,note_on,60,0,7,,,,,,,,,11,,,,78,110
121683,note_on,25,0,1,,,,,,,,,0,,,,90,97
121684,note_on,25,0,4,,,,,,,,,4,,,,58,96
121685,note_on,25,0,2,,,,,,,,,1,,,,78,97
121685,note_on,0,0,2,,,,,,,,,1,,,,70,97
121686,note_on,60,0,8,,,,,,,,,12,,,,63,108
121686,note_on,25,0,5,,,,,,,,,5,,,,58,96
121690,note_on,60,0,9,,,,,,,,,13,,,,51,99
121691,note_on,60,0,3,,,,,,,,,3,,,,51,97
121692,note_on,60,0,10,,,,,,,,,14,,,,39,93
121740,note_on,0,0,6,,,,,,,,,10,,,,78,0
121740,note_on,60,0,6,,,,,,,,,10,,,,70,0
121742,note_on,60,0,7,,,,,,,,,11,,,,70,0
121742,note_on,0,0,7,,,,,,,,,11,,,,78,0
121746,note_on,60,0,8,,,,,,,,,12,,,,63,0
121750,note_on,60,0,9,,,,,,,,,13,,,,51,0
121751,note_on,60,0,3,,,,,,,,,3,,,,51,0
121752,note_on,60,0,10,,,,,,,,,14,,,,39,0
121778,note_on,95,0,1,,,,,,,,,0,,,,90,0
121779,note_on,95,0,4,,,,,,,,,4,,,,58,0
121780,note_on,0,0,2,,,,,,,,,1,,,,78,0
121780,note_on,95,0,2,,,,,,,,,1,,,,70,0
121781,note_on,95,0,5,,,,,,,,,5,,,,58,0
121800,note_on,60,0,6,,,,,,,,,10,,,,77,110
121800,note_on,0,0,6,,,,,,,,,10,,,,70,110
121802,note_on,0,0,7,,,,,,,,,11,,,,77,110
121802,note_on,60,0,7,,,,,,,,,11,,,,70,110
121803,note_on,25,0,1,,,,,,,,,0,,,,89,97
121804,note_on,25,0,4,,,,,,,,,4,,,,58,96
121805,note_on,0,0,2,,,,,,,,,1,,,,77,97
121805,note_on,25,0,2,,,,,,,,,1,,,,70,97
121806,note_on,60,0,8,,,,,,,,,12,,,,61,108
121806,note_on,25,0,5,,,,,,,,,5,,,,58,96
121810,note_on,60,0,9,,,,,,,,,13,,,,49,99
121811,note_on,60,0,3,,,,,,,,,3,,,,49,97
121812,note_on,60,0,10,,,,,,,,,14,,,,37,93
121860,note_on,0,0,6,,,,,,,,,10,,,,77,0
121860,note_on,60,0,6,,,,,,,,,10,,,,70,0
121862,note_on,0,0,7,,,,,,,,,11,,,,70,0
121862,note_on,60,0,7,,,,,,,,,11,,,,77,0
121866,note_on,60,0,8,,,,,,,,,12,,,,61,0
121870,note_on,60,0,9,,,,,,,,,13,,,,49,0
121871,note_on,60,0,3,,,,,,,,,3,,,,49,0
121872,note_on,60,0,10,,,,,,,,,14,,,,37,0
121898,note_on,95,0,1,,,,,,,,,0,,,,89,0
121899,note_on,95,0,4,,,,,,,,,4,,,,58,0
121900,note_on,95,0,2,,,,,,,,,1,,,,77,0
121900,note_on,0,0,2,,,,,,,,,1,,,,70,0
121901,note_on,95,0,5,,,,,,,,,5,,,,58,0
121920,note_on,60,0,6,,,,,,,,,10,,,,70,110
121920,set_tempo,240,1,0,,,,,,283019,,,,,,,,
121920,note_on,0,0,6,,,,,,,,,10,,,,76,110
121922,note_on,0,0,7,,,,,,,,,11,,,,70,110
121922,note_on,60,0,7,,,,,,,,,11,,,,76,110
121923,note_on,25,0,1,,,,,,,,,0,,,,88,97
121924,note_on,25,0,4,,,,,,,,,4,,,,60,96
121925,note_on,0,0,2,,,,,,,,,1,,,,76,97
121925,note_on,25,0,2,,,,,,,,,1,,,,70,97
121926,note_on,25,0,5,,,,,,,,,5,,,,58,96
121926,note_on,60,0,8,,,,,,,,,12,,,,60,108
121930,note_on,60,0,9,,,,,,,,,13,,,,48,99
121931,note_on,60,0,3,,,,,,,,,3,,,,48,97
121932,note_on,60,0,10,,,,,,,,,14,,,,36,93
121980,note_on,0,0,6,,,,,,,,,10,,,,70,0
121980,note_on,60,0,6,,,,,,,,,10,,,,76,0
121982,note_on,60,0,7,,,,,,,,,11,,,,70,0
121982,note_on,0,0,7,,,,,,,,,11,,,,76,0
121986,note_on,60,0,8,,,,,,,,,12,,,,60,0
121990,note_on,60,0,9,,,,,,,,,13,,,,48,0
121991,note_on,60,0,3,,,,,,,,,3,,,,48,0
121992,note_on,60,0,10,,,,,,,,,14,,,,36,0
122040,control_change,60,0,6,,,,,,,,,10,11,65,,,
122040,note_on,0,0,6,,,,,,,,,10,,,,76,110
122042,control_change,60,0,7,,,,,,,,,11,11,65,,,
122042,note_on,0,0,7,,,,,,,,,11,,,,64,110
122043,note_on,120,0,1,,,,,,,,,0,,,,88,0
122044,note_on,120,0,4,,,,,,,,,4,,,,60,0
122045,note_on,0,0,2,,,,,,,,,1,,,,70,0
122045,note_on,120,0,2,,,,,,,,,1,,,,76,0
122046,control_change,60,0,8,,,,,,,,,12,11,65,,,
122046,note_on,0,0,8,,,,,,,,,12,,,,64,108
122046,note_on,120,0,5,,,,,,,,,5,,,,58,0
122058,control_change,18,0,6,,,,,,,,,10,11,67,,,
122060,control_change,18,0,7,,,,,,,,,11,11,67,,,
122064,control_change,18,0,8,,,,,,,,,12,11,67,,,
122076,control_change,18,0,6,,,,,,,,,10,11,69,,,
122078,control_change,18,0,7,,,,,,,,,11,11,69,,,
122082,control_change,18,0,8,,,,,,,,,12,11,69,,,
122094,control_change,18,0,6,,,,,,,,,10,11,71,,,
122096,control_change,18,0,7,,,,,,,,,11,11,71,,,
122100,control_change,18,0,8,,,,,,,,,12,11,71,,,
122100,note_on,6,0,6,,,,,,,,,10,,,,76,0
122100,note_on,0,0,6,,,,,,,,,10,,,,79,110
122102,note_on,0,0,7,,,,,,,,,11,,,,67,110
122102,note_on,6,0,7,,,,,,,,,11,,,,64,0
122106,note_on,0,0,8,,,,,,,,,12,,,,67,108
122106,note_on,6,0,8,,,,,,,,,12,,,,64,0
122112,control_change,12,0,6,,,,,,,,,10,11,73,,,
122114,control_change,12,0,7,,,,,,,,,11,11,73,,,
122118,control_change,12,0,8,,,,,,,,,12,11,73,,,
122130,control_change,18,0,6,,,,,,,,,10,11,75,,,
122132,control_change,18,0,7,,,,,,,,,11,11,75,,,
122136,control_change,18,0,8,,,,,,,,,12,11,75,,,
122148,control_change,18,0,6,,,,,,,,,10,11,77,,,
122150,control_change,18,0,7,,,,,,,,,11,11,77,,,
122154,control_change,18,0,8,,,,,,,,,12,11,77,,,
122160,note_on,12,0,6,,,,,,,,,10,,,,79,0
122160,note_on,0,0,6,,,,,,,,,10,,,,84,110
122160,set_tempo,240,1,0,,,,,,270270,,,,,,,,
122162,note_on,12,0,7,,,,,,,,,11,,,,67,0
122162,note_on,0,0,7,,,,,,,,,11,,,,72,110
122166,note_on,0,0,8,,,,,,,,,12,,,,72,108
122166,note_on,12,0,8,,,,,,,,,12,,,,67,0
122220,note_on,60,0,6,,,,,,,,,10,,,,84,0
122222,note_on,60,0,7,,,,,,,,,11,,,,72,0
122226,note_on,60,0,8,,,,,,,,,12,,,,72,0
122280,note_on,60,0,6,,,,,,,,,10,,,,67,110
122280,note_on,0,0,6,,,,,,,,,10,,,,77,110
122282,note_on,0,0,7,,,,,,,,,11,,,,70,110
122282,note_on,60,0,7,,,,,,,,,11,,,,67,110
122283,note_on,240,0,1,,,,,,,,,0,,,,89,97
122284,note_on,240,0,4,,,,,,,,,4,,,,65,96
122285,note_on,240,0,2,,,,,,,,,1,,,,67,97
122285,note_on,0,0,2,,,,,,,,,1,,,,77,97
122286,note_on,60,0,8,,,,,,,,,12,,,,61,108
122286,note_on,240,0,5,,,,,,,,,5,,,,58,96
122290,note_on,300,0,9,,,,,,,,,13,,,,49,99
122291,note_on,300,0,3,,,,,,,,,3,,,,49,97
122292,note_on,300,0,10,,,,,,,,,14,,,,37,93
122340,note_on,60,0,6,,,,,,,,,10,,,,77,0
122340,note_on,0,0,6,,,,,,,,,10,,,,67,0
122342,note_on,0,0,7,,,,,,,,,11,,,,67,0
122342,note_on,60,0,7,,,,,,,,,11,,,,70,0
122346,note_on,60,0,8,,,,,,,,,12,,,,61,0
122350,note_on,60,0,9,,,,,,,,,13,,,,49,0
122351,note_on,60,0,3,,,,,,,,,3,,,,49,0
122352,note_on,60,0,10,,,,,,,,,14,,,,37,0
122378,note_on,95,0,1,,,,,,,,,0,,,,89,0
122379,note_on,95,0,4,,,,,,,,,4,,,,65,0
122380,note_on,0,0,2,,,,,,,,,1,,,,67,0
122380,note_on,95,0,2,,,,,,,,,1,,,,77,0
122381,note_on,95,0,5,,,,,,,,,5,,,,58,0
122400,set_tempo,240,1,0,,,,,,283019,,,,,,,,
122400,note_on,0,0,6,,,,,,,,,10,,,,67,110
122400,note_on,60,0,6,,,,,,,,,10,,,,76,110
122402,note_on,60,0,7,,,,,,,,,11,,,,67,110
122402,note_on,0,0,7,,,,,,,,,11,,,,70,110
122403,note_on,25,0,1,,,,,,,,,0,,,,88,97
122404,note_on,25,0,4,,,,,,,,,4,,,,60,96
122405,note_on,0,0,2,,,,,,,,,1,,,,76,97
122405,note_on,25,0,2,,,,,,,,,1,,,,67,97
122406,note_on,25,0,5,,,,,,,,,5,,,,58,96
122406,note_on,60,0,8,,,,,,,,,12,,,,60,108
122410,note_on,60,0,9,,,,,,,,,13,,,,48,99
122411,note_on,60,0,3,,,,,,,,,3,,,,48,97
122412,note_on,60,0,10,,,,,,,,,14,,,,36,93
122460,note_on,60,0,6,,,,,,,,,10,,,,67,0
122460,note_on,0,0,6,,,,,,,,,10,,,,76,0
122462,note_on,0,0,7,,,,,,,,,11,,,,67,0
122462,note_on,60,0,7,,,,,,,,,11,,,,70,0
122466,note_on,60,0,8,,,,,,,,,12,,,,60,0
122470,note_on,60,0,9,,,,,,,,,13,,,,48,0
122471,note_on,60,0,3,,,,,,,,,3,,,,48,0
122472,note_on,60,0,10,,,,,,,,,14,,,,36,0
122520,note_on,0,0,6,,,,,,,,,10,,,,76,110
122520,control_change,60,0,6,,,,,,,,,10,11,65,,,
122522,control_change,60,0,7,,,,,,,,,11,11,65,,,
122522,note_on,0,0,7,,,,,,,,,11,,,,64,110
122523,note_on,120,0,1,,,,,,,,,0,,,,88,0
122524,note_on,120,0,4,,,,,,,,,4,,,,60,0
122525,note_on,0,0,2,,,,,,,,,1,,,,67,0
122525,note_on,120,0,2,,,,,,,,,1,,,,76,0
122526,note_on,120,0,5,,,,,,,,,5,,,,58,0
122526,control_change,60,0,8,,,,,,,,,12,11,65,,,
122526,note_on,0,0,8,,,,,,,,,12,,,,64,108
122538,control_change,18,0,6,,,,,,,,,10,11,67,,,
122540,control_change,18,0,7,,,,,,,,,11,11,67,,,
122544,control_change,18,0,8,,,,,,,,,12,11,67,,,
122556,control_change,18,0,6,,,,,,,,,10,11,69,,,
122558,control_change,18,0,7,,,,,,,,,11,11,69,,,
122562,control_change,18,0,8,,,,,,,,,12,11,69,,,
122574,control_change,18,0,6,,,,,,,,,10,11,71,,,
122576,control_change,18,0,7,,,,,,,,,11,11,71,,,
122580,note_on,6,0,6,,,,,,,,,10,,,,76,0
122580,note_on,0,0,6,,,,,,,,,10,,,,79,110
122580,control_change,18,0,8,,,,,,,,,12,11,71,,,
122582,note_on,0,0,7,,,,,,,,,11,,,,67,110
122582,note_on,6,0,7,,,,,,,,,11,,,,64,0
122586,note_on,6,0,8,,,,,,,,,12,,,,64,0
122586,note_on,0,0,8,,,,,,,,,12,,,,67,108
122592,control_change,12,0,6,,,,,,,,,10,11,73,,,
122594,control_change,12,0,7,,,,,,,,,11,11,73,,,
122598,control_change,12,0,8,,,,,,,,,12,11,73,,,
122610,control_change,18,0,6,,,,,,,,,10,11,75,,,
122612,control_change,18,0,7,,,,,,,,,11,11,75,,,
122616,control_change,18,0,8,,,,,,,,,12,11,75,,,
122628,control_change,18,0,6,,,,,,,,,10,11,77,,,
122630,control_change,18,0,7,,,,,,,,,11,11,77,,,
122634,control_change,18,0,8,,,,,,,,,12,11,77,,,
122640,set_tempo,240,1,0,,,,,,270270,,,,,,,,
122640,note_on,12,0,6,,,,,,,,,10,,,,79,0
122640,note_on,0,0,6,,,,,,,,,10,,,,84,110
122642,note_on,0,0,7,,,,,,,,,11,,,,72,110
122642,note_on,12,0,7,,,,,,,,,11,,,,67,0
122646,note_on,12,0,8,,,,,,,,,12,,,,67,0
122646,note_on,0,0,8,,,,,,,,,12,,,,72,108
122700,note_on,60,0,6,,,,,,,,,10,,,,84,0
122702,note_on,60,0,7,,,,,,,,,11,,,,72,0
122706,note_on,60,0,8,,,,,,,,,12,,,,72,0
122760,note_on,60,0,6,,,,,,,,,10,,,,67,110
122760,note_on,0,0,6,,,,,,,,,10,,,,77,110
122762,note_on,0,0,7,,,,,,,,,11,,,,70,110
122762,note_on,60,0,7,,,,,,,,,11,,,,67,110
122763,note_on,240,0,1,,,,,,,,,0,,,,89,97
122764,note_on,240,0,4,,,,,,,,,4,,,,65,96
122765,note_on,0,0,2,,,,,,,,,1,,,,67,97
122765,note_on,240,0,2,,,,,,,,,1,,,,77,97
122766,note_on,60,0,8,,,,,,,,,12,,,,61,108
122766,note_on,240,0,5,,,,,,,,,5,,,,58,96
122770,note_on,300,0,9,,,,,,,,,13,,,,49,99
122771,note_on,300,0,3,,,,,,,,,3,,,,49,97
122772,note_on,300,0,10,,,,,,,,,14,,,,37,93
122820,note_on,0,0,6,,,,,,,,,10,,,,67,0
122820,note_on,60,0,6,,,,,,,,,10,,,,77,0
122822,note_on,0,0,7,,,,,,,,,11,,,,67,0
122822,note_on,60,0,7,,,,,,,,,11,,,,70,0
122826,note_on,60,0,8,,,,,,,,,12,,,,61,0
122830,note_on,60,0,9,,,,,,,,,13,,,,49,0
122831,note_on,60,0,3,,,,,,,,,3,,,,49,0
122832,note_on,60,0,10,,,,,,,,,14,,,,37,0
122858,note_on,95,0,1,,,,,,,,,0,,,,89,0
122859,note_on,95,0,4,,,,,,,,,4,,,,65,0
122860,note_on,0,0,2,,,,,,,,,1,,,,77,0
122860,note_on,95,0,2,,,,,,,,,1,,,,67,0
122861,note_on,95,0,5,,,,,,,,,5,,,,58,0
122880,note_on,60,0,6,,,,,,,,,10,,,,67,110
122880,note_on,0,0,6,,,,,,,,,10,,,,76,110
122880,set_tempo,240,1,0,,,,,,283019,,,,,,,,
122882,note_on,0,0,7,,,,,,,,,11,,,,70,110
122882,note_on,60,0,7,,,,,,,,,11,,,,67,110
122883,note_on,25,0,1,,,,,,,,,0,,,,88,97
122884,note_on,25,0,4,,,,,,,,,4,,,,60,96
122885,note_on,25,0,2,,,,,,,,,1,,,,76,97
122885,note_on,0,0,2,,,,,,,,,1,,,,67,97
122886,note_on,25,0,5,,,,,,,,,5,,,,60,96
122886,note_on,60,0,8,,,,,,,,,12,,,,60,108
122890,note_on,60,0,9,,,,,,,,,13,,,,48,99
122891,note_on,60,0,3,,,,,,,,,3,,,,48,97
122892,note_on,60,0,10,,,,,,,,,14,,,,36,93
122940,note_on,0,0,6,,,,,,,,,10,,,,67,0
122940,note_on,60,0,6,,,,,,,,,10,,,,76,0
122942,note_on,60,0,7,,,,,,,,,11,,,,70,0
122942,note_on,0,0,7,,,,,,,,,11,,,,67,0
122946,note_on,60,0,8,,,,,,,,,12,,,,60,0
122950,note_on,60,0,9,,,,,,,,,13,,,,48,0
122951,note_on,60,0,3,,,,,,,,,3,,,,48,0
122952,note_on,60,0,10,,,,,,,,,14,,,,36,0
122978,note_on,95,0,1,,,,,,,,,0,,,,88,0
122979,note_on,95,0,4,,,,,,,,,4,,,,60,0
122980,note_on,0,0,2,,,,,,,,,1,,,,76,0
122980,note_on,95,0,2,,,,,,,,,1,,,,67,0
122981,note_on,95,0,5,,,,,,,,,5,,,,60,0
123000,note_on,0,0,6,,,,,,,,,10,,,,76,110
123000,note_on,60,0,6,,,,,,,,,10,,,,67,110
123002,note_on,60,0,7,,,,,,,,,11,,,,72,110
123002,note_on,0,0,7,,,,,,,,,11,,,,64,110
123003,note_on,25,0,1,,,,,,,,,0,,,,88,97
123004,note_on,25,0,4,,,,,,,,,4,,,,60,96
123005,note_on,0,0,2,,,,,,,,,1,,,,76,97
123005,note_on,25,0,2,,,,,,,,,1,,,,67,97
123006,note_on,25,0,5,,,,,,,,,5,,,,60,96
123006,note_on,60,0,8,,,,,,,,,12,,,,58,108
123010,note_on,60,0,9,,,,,,,,,13,,,,58,99
123011,note_on,60,0,3,,,,,,,,,3,,,,58,97
123012,note_on,60,0,10,,,,,,,,,14,,,,46,93
123060,note_on,60,0,6,,,,,,,,,10,,,,76,0
123060,note_on,0,0,6,,,,,,,,,10,,,,67,0
123062,note_on,0,0,7,,,,,,,,,11,,,,72,0
123062,note_on,60,0,7,,,,,,,,,11,,,,64,0
123066,note_on,60,0,8,,,,,,,,,12,,,,58,0
123070,note_on,60,0,9,,,,,,,,,13,,,,58,0
123071,note_on,60,0,3,,,,,,,,,3,,,,58,0
123072,note_on,60,0,10,,,,,,,,,14,,,,46,0
123098,note_on,95,0,1,,,,,,,,,0,,,,88,0
123099,note_on,95,0,4,,,,,,,,,4,,,,60,0
123100,note_on,0,0,2,,,,,,,,,1,,,,67,0
123100,note_on,95,0,2,,,,,,,,,1,,,,76,0
123101,note_on,95,0,5,,,,,,,,,5,,,,60,0
123120,note_on,0,0,6,,,,,,,,,10,,,,68,110
123120,note_on,60,0,6,,,,,,,,,10,,,,77,110
123120,set_tempo,240,1,0,,,,,,270270,,,,,,,,
123122,note_on,0,0,7,,,,,,,,,11,,,,72,110
123122,note_on,60,0,7,,,,,,,,,11,,,,65,110
123123,note_on,25,0,1,,,,,,,,,0,,,,89,97
123124,note_on,25,0,4,,,,,,,,,4,,,,60,96
123125,note_on,0,0,2,,,,,,,,,1,,,,77,97
123125,note_on,25,0,2,,,,,,,,,1,,,,68,97
123126,note_on,25,0,5,,,,,,,,,5,,,,60,96
123126,note_on,60,0,8,,,,,,,,,12,,,,56,108
123130,note_on,60,0,9,,,,,,,,,13,,,,56,99
123131,note_on,60,0,3,,,,,,,,,3,,,,56,97
123132,note_on,60,0,10,,,,,,,,,14,,,,44,93
123180,note_on,60,0,6,,,,,,,,,10,,,,68,0
123180,note_on,0,0,6,,,,,,,,,10,,,,77,0
123182,note_on,60,0,7,,,,,,,,,11,,,,72,0
123182,note_on,0,0,7,,,,,,,,,11,,,,65,0
123186,note_on,60,0,8,,,,,,,,,12,,,,56,0
123190,note_on,60,0,9,,,,,,,,,13,,,,56,0
123191,note_on,60,0,3,,,,,,,,,3,,,,56,0
123192,note_on,60,0,10,,,,,,,,,14,,,,44,0
123218,note_on,95,0,1,,,,,,,,,0,,,,89,0
123219,note_on,95,0,4,,,,,,,,,4,,,,60,0
123220,note_on,95,0,2,,,,,,,,,1,,,,77,0
123220,note_on,0,0,2,,,,,,,,,1,,,,68,0
123221,note_on,95,0,5,,,,,,,,,5,,,,60,0
123240,note_on,60,0,6,,,,,,,,,10,,,,70,110
123240,note_on,0,0,6,,,,,,,,,10,,,,79,110
123242,note_on,0,0,7,,,,,,,,,11,,,,67,110
123242,note_on,60,0,7,,,,,,,,,11,,,,76,110
123243,note_on,25,0,1,,,,,,,,,0,,,,91,97
123244,note_on,25,0,4,,,,,,,,,4,,,,60,96
123245,note_on,0,0,2,,,,,,,,,1,,,,70,97
123245,note_on,25,0,2,,,,,,,,,1,,,,79,97
123246,note_on,25,0,5,,,,,,,,,5,,,,60,96
123246,note_on,60,0,8,,,,,,,,,12,,,,55,108
123250,note_on,60,0,9,,,,,,,,,13,,,,55,99
123251,note_on,60,0,3,,,,,,,,,3,,,,55,97
123252,note_on,60,0,10,,,,,,,,,14,,,,43,93
123300,note_on,0,0,6,,,,,,,,,10,,,,70,0
123300,note_on,60,0,6,,,,,,,,,10,,,,79,0
123302,note_on,60,0,7,,,,,,,,,11,,,,67,0
123302,note_on,0,0,7,,,,,,,,,11,,,,76,0
123306,note_on,60,0,8,,,,,,,,,12,,,,55,0
123310,note_on,60,0,9,,,,,,,,,13,,,,55,0
123311,note_on,60,0,3,,,,,,,,,3,,,,55,0
123312,note_on,60,0,10,,,,,,,,,14,,,,43,0
123338,note_on,95,0,1,,,,,,,,,0,,,,91,0
123339,note_on,95,0,4,,,,,,,,,4,,,,60,0
123340,note_on,95,0,2,,,,,,,,,1,,,,70,0
123340,note_on,0,0,2,,,,,,,,,1,,,,79,0
123341,note_on,95,0,5,,,,,,,,,5,,,,60,0
123360,note_on,0,0,6,,,,,,,,,10,,,,80,110
123360,set_tempo,240,1,0,,,,,,283019,,,,,,,,
123360,note_on,60,0,6,,,,,,,,,10,,,,72,110
123362,note_on,60,0,7,,,,,,,,,11,,,,72,110
123362,note_on,0,0,7,,,,,,,,,11,,,,77,110
123363,note_on,25,0,1,,,,,,,,,0,,,,92,97
123364,note_on,25,0,4,,,,,,,,,4,,,,60,96
123365,note_on,0,0,2,,,,,,,,,1,,,,80,97
123365,note_on,25,0,2,,,,,,,,,1,,,,72,97
123366,note_on,60,0,8,,,,,,,,,12,,,,53,108
123366,note_on,25,0,5,,,,,,,,,5,,,,60,96
123370,note_on,60,0,9,,,,,,,,,13,,,,53,99
123371,note_on,60,0,3,,,,,,,,,3,,,,53,97
123372,note_on,60,0,10,,,,,,,,,14,,,,41,93
123420,note_on,60,0,6,,,,,,,,,10,,,,80,0
123420,note_on,0,0,6,,,,,,,,,10,,,,72,0
123422,note_on,0,0,7,,,,,,,,,11,,,,72,0
123422,note_on,60,0,7,,,,,,,,,11,,,,77,0
123426,note_on,60,0,8,,,,,,,,,12,,,,53,0
123430,note_on,60,0,9,,,,,,,,,13,,,,53,0
123431,note_on,60,0,3,,,,,,,,,3,,,,53,0
123432,note_on,60,0,10,,,,,,,,,14,,,,41,0
123480,note_on,0,0,6,,,,,,,,,10,,,,68,110
123480,control_change,60,0,6,,,,,,,,,10,11,65,,,
123482,note_on,0,0,7,,,,,,,,,11,,,,68,110
123482,control_change,60,0,7,,,,,,,,,11,11,65,,,
123483,note_on,120,0,1,,,,,,,,,0,,,,92,0
123484,note_on,120,0,4,,,,,,,,,4,,,,60,0
123485,note_on,120,0,2,,,,,,,,,1,,,,80,0
123485,note_on,0,0,2,,,,,,,,,1,,,,72,0
123486,control_change,60,0,8,,,,,,,,,12,11,65,,,
123486,note_on,0,0,8,,,,,,,,,12,,,,56,108
123486,note_on,120,0,5,,,,,,,,,5,,,,60,0
123498,control_change,18,0,6,,,,,,,,,10,11,67,,,
123500,control_change,18,0,7,,,,,,,,,11,11,67,,,
123504,control_change,18,0,8,,,,,,,,,12,11,67,,,
123516,control_change,18,0,6,,,,,,,,,10,11,69,,,
123518,control_change,18,0,7,,,,,,,,,11,11,69,,,
123522,control_change,18,0,8,,,,,,,,,12,11,69,,,
123534,control_change,18,0,6,,,,,,,,,10,11,71,,,
123536,control_change,18,0,7,,,,,,,,,11,11,71,,,
123540,note_on,6,0,6,,,,,,,,,10,,,,68,0
123540,control_change,18,0,8,,,,,,,,,12,11,71,,,
123540,note_on,0,0,6,,,,,,,,,10,,,,72,110
123542,note_on,6,0,7,,,,,,,,,11,,,,68,0
123542,note_on,0,0,7,,,,,,,,,11,,,,72,110
123546,note_on,6,0,8,,,,,,,,,12,,,,56,0
123546,note_on,0,0,8,,,,,,,,,12,,,,60,108
123552,control_change,12,0,6,,,,,,,,,10,11,73,,,
123554,control_change,12,0,7,,,,,,,,,11,11,73,,,
123558,control_change,12,0,8,,,,,,,,,12,11,73,,,
123570,control_change,18,0,6,,,,,,,,,10,11,75,,,
123572,control_change,18,0,7,,,,,,,,,11,11,75,,,
123576,control_change,18,0,8,,,,,,,,,12,11,75,,,
123588,control_change,18,0,6,,,,,,,,,10,11,77,,,
123590,control_change,18,0,7,,,,,,,,,11,11,77,,,
123594,control_change,18,0,8,,,,,,,,,12,11,77,,,
123600,note_on,12,0,6,,,,,,,,,10,,,,72,0
123600,note_on,0,0,6,,,,,,,,,10,,,,77,110
123600,set_tempo,240,1,0,,,,,,270270,,,,,,,,
123602,note_on,12,0,7,,,,,,,,,11,,,,72,0
123602,note_on,0,0,7,,,,,,,,,11,,,,77,110
123606,note_on,12,0,8,,,,,,,,,12,,,,60,0
123606,note_on,0,0,8,,,,,,,,,12,,,,65,108
123660,note_on,60,0,6,,,,,,,,,10,,,,77,0
123662,note_on,60,0,7,,,,,,,,,11,,,,77,0
123666,note_on,60,0,8,,,,,,,,,12,,,,65,0
123720,note_on,60,0,6,,,,,,,,,10,,,,77,110
123722,note_on,60,0,7,,,,,,,,,11,,,,65,110
123723,note_on,240,0,1,,,,,,,,,0,,,,77,97
123725,note_on,240,0,2,,,,,,,,,1,,,,65,97
123780,note_on,0,0,6,,,,,,,,,10,,,,80,110
123780,note_on,60,0,6,,,,,,,,,10,,,,77,0
123782,note_on,60,0,7,,,,,,,,,11,,,,65,0
123782,note_on,0,0,7,,,,,,,,,11,,,,68,110
123783,note_on,0,0,1,,,,,,,,,0,,,,80,97
123783,note_on,60,0,1,,,,,,,,,0,,,,77,0
123785,note_on,60,0,2,,,,,,,,,1,,,,65,0
123785,note_on,0,0,2,,,,,,,,,1,,,,68,97
123840,set_tempo,240,1,0,,,,,,279720,,,,,,,,
123840,note_on,60,0,6,,,,,,,,,10,,,,80,0
123840,control_change,0,0,6,,,,,,,,,10,11,86,,,
123840,note_on,0,0,6,,,,,,,,,10,,,,85,110
123842,control_change,0,0,7,,,,,,,,,11,11,86,,,
123842,note_on,60,0,7,,,,,,,,,11,,,,68,0
123842,note_on,0,0,7,,,,,,,,,11,,,,73,110
123843,note_on,60,0,1,,,,,,,,,0,,,,80,0
123843,control_change,0,0,1,,,,,,,,,0,11,86,,,
123843,note_on,0,0,1,,,,,,,,,0,,,,85,97
123844,control_change,360,0,4,,,,,,,,,4,11,86,,,
123844,note_on,0,0,4,,,,,,,,,4,,,,65,96
123845,control_change,0,0,2,,,,,,,,,1,11,86,,,
123845,note_on,60,0,2,,,,,,,,,1,,,,68,0
123845,note_on,0,0,2,,,,,,,,,1,,,,68,97
123845,note_on,0,0,2,,,,,,,,,1,,,,73,97
123846,note_on,0,0,8,,,,,,,,,12,,,,65,108
123846,control_change,180,0,8,,,,,,,,,12,11,86,,,
123846,control_change,360,0,5,,,,,,,,,5,11,86,,,
123846,note_on,0,0,5,,,,,,,,,5,,,,65,96
123850,note_on,0,0,9,,,,,,,,,13,,,,53,99
123850,control_change,420,0,9,,,,,,,,,13,11,86,,,
123851,control_change,420,0,3,,,,,,,,,3,11,86,,,
123851,note_on,0,0,3,,,,,,,,,3,,,,53,97
123852,control_change,420,0,10,,,,,,,,,14,11,86,,,
123852,note_on,0,0,10,,,,,,,,,14,,,,41,93
123858,control_change,18,0,6,,,,,,,,,10,11,84,,,
123860,control_change,18,0,7,,,,,,,,,11,11,84,,,
123861,control_change,18,0,1,,,,,,,,,0,11,84,,,
123862,control_change,18,0,4,,,,,,,,,4,11,84,,,
123863,control_change,18,0,2,,,,,,,,,1,11,84,,,
123864,control_change,18,0,5,,,,,,,,,5,11,84,,,
123864,control_change,18,0,8,,,,,,,,,12,11,84,,,
123868,control_change,18,0,9,,,,,,,,,13,11,84,,,
123869,control_change,18,0,3,,,,,,,,,3,11,84,,,
123870,control_change,18,0,10,,,,,,,,,14,11,84,,,
123876,control_change,18,0,6,,,,,,,,,10,11,84,,,
123878,control_change,18,0,7,,,,,,,,,11,11,84,,,
123879,control_change,18,0,1,,,,,,,,,0,11,84,,,
123880,control_change,18,0,4,,,,,,,,,4,11,83,,,
123881,control_change,18,0,2,,,,,,,,,1,11,84,,,
123882,control_change,18,0,8,,,,,,,,,12,11,84,,,
123882,control_change,18,0,5,,,,,,,,,5,11,83,,,
123886,control_change,18,0,9,,,,,,,,,13,11,84,,,
123887,control_change,18,0,3,,,,,,,,,3,11,84,,,
123888,control_change,18,0,10,,,,,,,,,14,11,84,,,
123894,control_change,18,0,6,,,,,,,,,10,11,82,,,
123896,control_change,18,0,7,,,,,,,,,11,11,82,,,
123897,control_change,18,0,1,,,,,,,,,0,11,82,,,
123898,control_change,18,0,4,,,,,,,,,4,11,82,,,
123899,control_change,18,0,2,,,,,,,,,1,11,82,,,
123900,control_change,18,0,5,,,,,,,,,5,11,82,,,
123900,control_change,18,0,8,,,,,,,,,12,11,82,,,
123904,control_change,18,0,9,,,,,,,,,13,11,82,,,
123905,control_change,18,0,3,,,,,,,,,3,11,82,,,
123906,control_change,18,0,10,,,,,,,,,14,11,82,,,
123912,control_change,18,0,6,,,,,,,,,10,11,82,,,
123914,control_change,18,0,7,,,,,,,,,11,11,82,,,
123915,control_change,18,0,1,,,,,,,,,0,11,82,,,
123916,control_change,18,0,4,,,,,,,,,4,11,80,,,
123917,control_change,18,0,2,,,,,,,,,1,11,82,,,
123918,control_change,18,0,8,,,,,,,,,12,11,82,,,
123918,control_change,18,0,5,,,,,,,,,5,11,80,,,
123922,control_change,18,0,9,,,,,,,,,13,11,82,,,
123923,control_change,18,0,3,,,,,,,,,3,11,82,,,
123924,control_change,18,0,10,,,,,,,,,14,11,82,,,
123930,control_change,18,0,6,,,,,,,,,10,11,80,,,
123932,control_change,18,0,7,,,,,,,,,11,11,80,,,
123933,control_change,18,0,1,,,,,,,,,0,11,80,,,
123934,control_change,18,0,4,,,,,,,,,4,11,79,,,
123935,control_change,18,0,2,,,,,,,,,1,11,80,,,
123936,control_change,18,0,5,,,,,,,,,5,11,79,,,
123936,control_change,18,0,8,,,,,,,,,12,11,80,,,
123940,control_change,18,0,9,,,,,,,,,13,11,80,,,
123941,control_change,18,0,3,,,,,,,,,3,11,80,,,
123942,control_change,18,0,10,,,,,,,,,14,11,80,,,
123948,control_change,18,0,6,,,,,,,,,10,11,80,,,
123950,control_change,18,0,7,,,,,,,,,11,11,80,,,
123951,control_change,18,0,1,,,,,,,,,0,11,80,,,
123953,control_change,18,0,2,,,,,,,,,1,11,80,,,
123954,control_change,18,0,8,,,,,,,,,12,11,80,,,
123958,control_change,18,0,9,,,,,,,,,13,11,80,,,
123959,control_change,18,0,3,,,,,,,,,3,11,80,,,
123960,control_change,18,0,10,,,,,,,,,14,11,80,,,
123966,note_on,0,0,8,,,,,,,,,12,,,,63,108
123966,note_on,12,0,8,,,,,,,,,12,,,,65,0
123970,note_on,0,0,9,,,,,,,,,13,,,,51,99
123970,note_on,12,0,9,,,,,,,,,13,,,,53,0
123971,note_on,0,0,3,,,,,,,,,3,,,,51,97
123971,note_on,12,0,3,,,,,,,,,3,,,,53,0
123972,note_on,12,0,10,,,,,,,,,14,,,,41,0
123972,note_on,0,0,10,,,,,,,,,14,,,,39,93
124026,note_on,60,0,8,,,,,,,,,12,,,,63,0
124026,note_on,0,0,8,,,,,,,,,12,,,,65,108
124030,note_on,0,0,9,,,,,,,,,13,,,,53,99
124030,note_on,60,0,9,,,,,,,,,13,,,,51,0
124031,note_on,0,0,3,,,,,,,,,3,,,,53,97
124031,note_on,60,0,3,,,,,,,,,3,,,,51,0
124032,note_on,60,0,10,,,,,,,,,14,,,,39,0
124032,note_on,0,0,10,,,,,,,,,14,,,,41,93
124050,note_on,102,0,6,,,,,,,,,10,,,,85,0
124052,note_on,102,0,7,,,,,,,,,11,,,,73,0
124065,note_on,39,0,8,,,,,,,,,12,,,,65,0
124069,note_on,39,0,9,,,,,,,,,13,,,,53,0
124071,note_on,39,0,10,,,,,,,,,14,,,,41,0
124073,note_on,122,0,1,,,,,,,,,0,,,,85,0
124075,note_on,0,0,2,,,,,,,,,1,,,,68,0
124075,note_on,122,0,2,,,,,,,,,1,,,,73,0
124079,note_on,145,0,4,,,,,,,,,4,,,,65,0
124080,control_change,30,0,6,,,,,,,,,10,11,86,,,
124080,note_on,0,0,6,,,,,,,,,10,,,,85,110
124080,set_tempo,240,1,0,,,,,,265487,,,,,,,,
124081,note_on,50,0,3,,,,,,,,,3,,,,53,0
124081,note_on,145,0,5,,,,,,,,,5,,,,65,0
124082,note_on,0,0,7,,,,,,,,,11,,,,82,110
124082,note_on,0,0,7,,,,,,,,,11,,,,73,110
124082,control_change,30,0,7,,,,,,,,,11,11,86,,,
124083,note_on,0,0,1,,,,,,,,,0,,,,85,97
124083,control_change,10,0,1,,,,,,,,,0,11,86,,,
124084,control_change,5,0,4,,,,,,,,,4,11,86,,,
124084,note_on,0,0,4,,,,,,,,,4,,,,63,96
124085,note_on,0,0,2,,,,,,,,,1,,,,70,97
124085,control_change,10,0,2,,,,,,,,,1,11,86,,,
124085,note_on,0,0,2,,,,,,,,,1,,,,73,97
124086,control_change,5,0,5,,,,,,,,,5,11,86,,,
124086,note_on,0,0,5,,,,,,,,,5,,,,63,96
124086,note_on,0,0,8,,,,,,,,,12,,,,67,108
124086,control_change,21,0,8,,,,,,,,,12,11,86,,,
124090,note_on,0,0,9,,,,,,,,,13,,,,55,99
124090,control_change,21,0,9,,,,,,,,,13,11,86,,,
124091,control_change,10,0,3,,,,,,,,,3,11,86,,,
124091,note_on,0,0,3,,,,,,,,,3,,,,55,97
124092,control_change,21,0,10,,,,,,,,,14,11,86,,,
124092,note_on,0,0,10,,,,,,,,,14,,,,43,93
124098,control_change,18,0,6,,,,,,,,,10,11,84,,,
124100,control_change,18,0,7,,,,,,,,,11,11,84,,,
124101,control_change,18,0,1,,,,,,,,,0,11,84,,,
124102,control_change,18,0,4,,,,,,,,,4,11,84,,,
124103,control_change,18,0,2,,,,,,,,,1,11,84,,,
124104,control_change,18,0,8,,,,,,,,,12,11,84,,,
124104,control_change,18,0,5,,,,,,,,,5,11,84,,,
124108,control_change,18,0,9,,,,,,,,,13,11,84,,,
124109,control_change,18,0,3,,,,,,,,,3,11,84,,,
124110,control_change,18,0,10,,,,,,,,,14,11,84,,,
124116,control_change,18,0,6,,,,,,,,,10,11,84,,,
124118,control_change,18,0,7,,,,,,,,,11,11,84,,,
124119,control_change,18,0,1,,,,,,,,,0,11,84,,,
124120,control_change,18,0,4,,,,,,,,,4,11,83,,,
124121,control_change,18,0,2,,,,,,,,,1,11,84,,,
124122,control_change,18,0,8,,,,,,,,,12,11,84,,,
124122,control_change,18,0,5,,,,,,,,,5,11,83,,,
124126,control_change,18,0,9,,,,,,,,,13,11,84,,,
124127,control_change,18,0,3,,,,,,,,,3,11,84,,,
124128,control_change,18,0,10,,,,,,,,,14,11,84,,,
124134,control_change,18,0,6,,,,,,,,,10,11,82,,,
124136,control_change,18,0,7,,,,,,,,,11,11,82,,,
124137,control_change,18,0,1,,,,,,,,,0,11,82,,,
124138,control_change,18,0,4,,,,,,,,,4,11,82,,,
124139,control_change,18,0,2,,,,,,,,,1,11,82,,,
124140,control_change,18,0,5,,,,,,,,,5,11,82,,,
124140,control_change,18,0,8,,,,,,,,,12,11,82,,,
124144,control_change,18,0,9,,,,,,,,,13,11,82,,,
124145,control_change,18,0,3,,,,,,,,,3,11,82,,,
124146,control_change,18,0,10,,,,,,,,,14,11,82,,,
124152,control_change,18,0,6,,,,,,,,,10,11,82,,,
124154,control_change,18,0,7,,,,,,,,,11,11,82,,,
124155,control_change,18,0,1,,,,,,,,,0,11,82,,,
124156,control_change,18,0,4,,,,,,,,,4,11,80,,,
124157,control_change,18,0,2,,,,,,,,,1,11,82,,,
124158,control_change,18,0,5,,,,,,,,,5,11,80,,,
124158,control_change,18,0,8,,,,,,,,,12,11,82,,,
124162,control_change,18,0,9,,,,,,,,,13,11,82,,,
124163,control_change,18,0,3,,,,,,,,,3,11,82,,,
124164,control_change,18,0,10,,,,,,,,,14,11,82,,,
124170,control_change,18,0,6,,,,,,,,,10,11,80,,,
124172,control_change,18,0,7,,,,,,,,,11,11,80,,,
124173,control_change,18,0,1,,,,,,,,,0,11,80,,,
124174,control_change,18,0,4,,,,,,,,,4,11,79,,,
124175,control_change,18,0,2,,,,,,,,,1,11,80,,,
124176,control_change,18,0,5,,,,,,,,,5,11,79,,,
124176,control_change,18,0,8,,,,,,,,,12,11,80,,,
124180,control_change,18,0,9,,,,,,,,,13,11,80,,,
124181,control_change,18,0,3,,,,,,,,,3,11,80,,,
124182,control_change,18,0,10,,,,,,,,,14,11,80,,,
124188,control_change,18,0,6,,,,,,,,,10,11,80,,,
124190,control_change,18,0,7,,,,,,,,,11,11,80,,,
124191,control_change,18,0,1,,,,,,,,,0,11,80,,,
124193,control_change,18,0,2,,,,,,,,,1,11,80,,,
124194,control_change,18,0,8,,,,,,,,,12,11,80,,,
124198,control_change,18,0,9,,,,,,,,,13,11,80,,,
124199,control_change,18,0,3,,,,,,,,,3,11,80,,,
124200,control_change,18,0,10,,,,,,,,,14,11,80,,,
124206,note_on,0,0,8,,,,,,,,,12,,,,65,108
124206,note_on,12,0,8,,,,,,,,,12,,,,67,0
124210,note_on,12,0,9,,,,,,,,,13,,,,55,0
124210,note_on,0,0,9,,,,,,,,,13,,,,53,99
124211,note_on,0,0,3,,,,,,,,,3,,,,53,97
124211,note_on,12,0,3,,,,,,,,,3,,,,55,0
124212,note_on,0,0,10,,,,,,,,,14,,,,41,93
124212,note_on,12,0,10,,,,,,,,,14,,,,43,0
124266,note_on,60,0,8,,,,,,,,,12,,,,65,0
124266,note_on,0,0,8,,,,,,,,,12,,,,67,108
124270,note_on,0,0,9,,,,,,,,,13,,,,55,99
124270,note_on,60,0,9,,,,,,,,,13,,,,53,0
124271,note_on,0,0,3,,,,,,,,,3,,,,55,97
124271,note_on,60,0,3,,,,,,,,,3,,,,53,0
124272,note_on,0,0,10,,,,,,,,,14,,,,43,93
124272,note_on,60,0,10,,,,,,,,,14,,,,41,0
124290,note_on,102,0,6,,,,,,,,,10,,,,85,0
124292,note_on,0,0,7,,,,,,,,,11,,,,73,0
124292,note_on,102,0,7,,,,,,,,,11,,,,82,0
124305,note_on,39,0,8,,,,,,,,,12,,,,67,0
124309,note_on,39,0,9,,,,,,,,,13,,,,55,0
124311,note_on,39,0,10,,,,,,,,,14,,,,43,0
124313,note_on,122,0,1,,,,,,,,,0,,,,85,0
124315,note_on,122,0,2,,,,,,,,,1,,,,73,0
124315,note_on,0,0,2,,,,,,,,,1,,,,70,0
124319,note_on,145,0,4,,,,,,,,,4,,,,63,0
124320,set_tempo,240,1,0,,,,,,279720,,,,,,,,
124320,note_on,30,0,6,,,,,,,,,10,,,,85,125
124321,note_on,145,0,5,,,,,,,,,5,,,,63,0
124321,note_on,50,0,3,,,,,,,,,3,,,,55,0
124322,note_on,30,0,7,,,,,,,,,11,,,,82,125
124323,note_on,10,0,1,,,,,,,,,0,,,,85,110
124324,note_on,5,0,4,,,,,,,,,4,,,,63,96
124325,note_on,0,0,2,,,,,,,,,1,,,,70,110
124325,note_on,10,0,2,,,,,,,,,1,,,,73,110
124326,note_on,21,0,8,,,,,,,,,12,,,,68,123
124326,note_on,5,0,5,,,,,,,,,5,,,,63,96
124330,note_on,21,0,9,,,,,,,,,13,,,,56,114
124331,note_on,10,0,3,,,,,,,,,3,,,,56,110
124332,note_on,21,0,10,,,,,,,,,14,,,,44,108
124555,note_on,235,0,6,,,,,,,,,10,,,,85,0
124557,note_on,235,0,7,,,,,,,,,11,,,,82,0
124558,note_on,235,0,1,,,,,,,,,0,,,,85,0
124560,note_on,5,0,6,,,,,,,,,10,,,,84,95
124560,note_on,0,0,2,,,,,,,,,1,,,,73,0
124560,set_tempo,240,1,0,,,,,,265487,,,,,,,,
124560,note_on,235,0,2,,,,,,,,,1,,,,70,0
124562,note_on,5,0,7,,,,,,,,,11,,,,80,95
124563,note_on,5,0,1,,,,,,,,,0,,,,84,97
124565,note_on,5,0,2,,,,,,,,,1,,,,68,97
124565,note_on,0,0,2,,,,,,,,,1,,,,72,97
124655,note_on,95,0,6,,,,,,,,,10,,,,84,0
124657,note_on,95,0,7,,,,,,,,,11,,,,80,0
124658,note_on,95,0,1,,,,,,,,,0,,,,84,0
124660,note_on,0,0,2,,,,,,,,,1,,,,68,0
124660,note_on,95,0,2,,,,,,,,,1,,,,72,0
124676,note_on,350,0,8,,,,,,,,,12,,,,68,0
124679,note_on,355,0,4,,,,,,,,,4,,,,63,0
124680,note_on,350,0,9,,,,,,,,,13,,,,56,0
124680,note_on,25,0,6,,,,,,,,,10,,,,80,78
124681,note_on,350,0,3,,,,,,,,,3,,,,56,0
124681,note_on,355,0,5,,,,,,,,,5,,,,63,0
124682,note_on,350,0,10,,,,,,,,,14,,,,44,0
124682,note_on,25,0,7,,,,,,,,,11,,,,75,78
124683,note_on,25,0,1,,,,,,,,,0,,,,80,97
124685,note_on,25,0,2,,,,,,,,,1,,,,75,97
124686,note_on,10,0,8,,,,,,,,,12,,,,60,93
124690,note_on,10,0,9,,,,,,,,,13,,,,48,84
124691,note_on,10,0,3,,,,,,,,,3,,,,48,97
124692,note_on,10,0,10,,,,,,,,,14,,,,36,78
124775,note_on,95,0,6,,,,,,,,,10,,,,80,0
124777,note_on,95,0,7,,,,,,,,,11,,,,75,0
124778,note_on,95,0,1,,,,,,,,,0,,,,80,0
124780,note_on,95,0,2,,,,,,,,,1,,,,75,0
124796,note_on,110,0,8,,,,,,,,,12,,,,60,0
124800,note_on,110,0,9,,,,,,,,,13,,,,48,0
124800,note_on,0,0,6,,,,,,,,,10,,,,82,110
124800,control_change,25,0,6,,,,,,,,,10,11,86,,,
124800,set_tempo,240,1,0,,,,,,279720,,,,,,,,
124801,note_on,110,0,3,,,,,,,,,3,,,,48,0
124802,note_on,0,0,7,,,,,,,,,11,,,,77,110
124802,note_on,110,0,10,,,,,,,,,14,,,,36,0
124802,control_change,25,0,7,,,,,,,,,11,11,86,,,
124803,control_change,25,0,1,,,,,,,,,0,11,86,,,
124803,note_on,0,0,1,,,,,,,,,0,,,,82,97
124804,note_on,0,0,4,,,,,,,,,4,,,,65,96
124804,control_change,125,0,4,,,,,,,,,4,11,86,,,
124805,note_on,0,0,2,,,,,,,,,1,,,,77,97
124805,control_change,25,0,2,,,,,,,,,1,11,86,,,
124805,note_on,0,0,2,,,,,,,,,1,,,,73,97
124806,control_change,10,0,8,,,,,,,,,12,11,86,,,
124806,note_on,0,0,8,,,,,,,,,12,,,,61,108
124806,note_on,0,0,5,,,,,,,,,5,,,,58,96
124806,control_change,125,0,5,,,,,,,,,5,11,86,,,
124810,control_change,10,0,9,,,,,,,,,13,11,86,,,
124810,note_on,0,0,9,,,,,,,,,13,,,,49,99
124811,control_change,10,0,3,,,,,,,,,3,11,86,,,
124811,note_on,0,0,3,,,,,,,,,3,,,,49,97
124812,control_change,10,0,10,,,,,,,,,14,11,86,,,
124812,note_on,0,0,10,,,,,,,,,14,,,,37,93
124818,control_change,18,0,6,,,,,,,,,10,11,84,,,
124820,control_change,18,0,7,,,,,,,,,11,11,84,,,
124821,control_change,18,0,1,,,,,,,,,0,11,84,,,
124822,control_change,18,0,4,,,,,,,,,4,11,84,,,
124823,control_change,18,0,2,,,,,,,,,1,11,84,,,
124824,control_change,18,0,8,,,,,,,,,12,11,84,,,
124824,control_change,18,0,5,,,,,,,,,5,11,84,,,
124828,control_change,18,0,9,,,,,,,,,13,11,84,,,
124829,control_change,18,0,3,,,,,,,,,3,11,84,,,
124830,control_change,18,0,10,,,,,,,,,14,11,84,,,
124836,control_change,18,0,6,,,,,,,,,10,11,84,,,
124838,control_change,18,0,7,,,,,,,,,11,11,84,,,
124839,control_change,18,0,1,,,,,,,,,0,11,84,,,
124840,control_change,18,0,4,,,,,,,,,4,11,83,,,
124841,control_change,18,0,2,,,,,,,,,1,11,84,,,
124842,control_change,18,0,8,,,,,,,,,12,11,84,,,
124842,control_change,18,0,5,,,,,,,,,5,11,83,,,
124846,control_change,18,0,9,,,,,,,,,13,11,84,,,
124847,control_change,18,0,3,,,,,,,,,3,11,84,,,
124848,control_change,18,0,10,,,,,,,,,14,11,84,,,
124854,control_change,18,0,6,,,,,,,,,10,11,82,,,
124856,control_change,18,0,7,,,,,,,,,11,11,82,,,
124857,control_change,18,0,1,,,,,,,,,0,11,82,,,
124858,control_change,18,0,4,,,,,,,,,4,11,82,,,
124859,control_change,18,0,2,,,,,,,,,1,11,82,,,
124860,control_change,18,0,8,,,,,,,,,12,11,82,,,
124860,control_change,18,0,5,,,,,,,,,5,11,82,,,
124864,control_change,18,0,9,,,,,,,,,13,11,82,,,
124865,control_change,18,0,3,,,,,,,,,3,11,82,,,
124866,control_change,18,0,10,,,,,,,,,14,11,82,,,
124872,control_change,18,0,6,,,,,,,,,10,11,82,,,
124874,control_change,18,0,7,,,,,,,,,11,11,82,,,
124875,control_change,18,0,1,,,,,,,,,0,11,82,,,
124876,control_change,18,0,4,,,,,,,,,4,11,80,,,
124877,control_change,18,0,2,,,,,,,,,1,11,82,,,
124878,control_change,18,0,5,,,,,,,,,5,11,80,,,
124878,control_change,18,0,8,,,,,,,,,12,11,82,,,
124882,control_change,18,0,9,,,,,,,,,13,11,82,,,
124883,control_change,18,0,3,,,,,,,,,3,11,82,,,
124884,control_change,18,0,10,,,,,,,,,14,11,82,,,
124890,control_change,18,0,6,,,,,,,,,10,11,80,,,
124892,control_change,18,0,7,,,,,,,,,11,11,80,,,
124893,control_change,18,0,1,,,,,,,,,0,11,80,,,
124894,control_change,18,0,4,,,,,,,,,4,11,79,,,
124895,control_change,18,0,2,,,,,,,,,1,11,80,,,
124896,control_change,18,0,5,,,,,,,,,5,11,79,,,
124896,control_change,18,0,8,,,,,,,,,12,11,80,,,
124900,control_change,18,0,9,,,,,,,,,13,11,80,,,
124901,control_change,18,0,3,,,,,,,,,3,11,80,,,
124902,control_change,18,0,10,,,,,,,,,14,11,80,,,
124908,control_change,18,0,6,,,,,,,,,10,11,80,,,
124910,control_change,18,0,7,,,,,,,,,11,11,80,,,
124911,control_change,18,0,1,,,,,,,,,0,11,80,,,
124913,control_change,18,0,2,,,,,,,,,1,11,80,,,
124914,control_change,18,0,8,,,,,,,,,12,11,80,,,
124918,control_change,18,0,9,,,,,,,,,13,11,80,,,
124919,control_change,18,0,3,,,,,,,,,3,11,80,,,
124920,control_change,18,0,10,,,,,,,,,14,11,80,,,
124926,note_on,12,0,8,,,,,,,,,12,,,,61,0
124926,note_on,0,0,8,,,,,,,,,12,,,,60,108
124930,note_on,12,0,9,,,,,,,,,13,,,,49,0
124930,note_on,0,0,9,,,,,,,,,13,,,,48,99
124931,note_on,0,0,3,,,,,,,,,3,,,,48,97
124931,note_on,12,0,3,,,,,,,,,3,,,,49,0
124932,note_on,12,0,10,,,,,,,,,14,,,,37,0
124932,note_on,0,0,10,,,,,,,,,14,,,,36,93
124986,note_on,60,0,8,,,,,,,,,12,,,,60,0
124986,note_on,0,0,8,,,,,,,,,12,,,,62,108
124990,note_on,60,0,9,,,,,,,,,13,,,,48,0
124990,note_on,0,0,9,,,,,,,,,13,,,,50,99
124991,note_on,60,0,3,,,,,,,,,3,,,,48,0
124991,note_on,0,0,3,,,,,,,,,3,,,,50,97
124992,note_on,0,0,10,,,,,,,,,14,,,,38,93
124992,note_on,60,0,10,,,,,,,,,14,,,,36,0
125010,note_on,102,0,6,,,,,,,,,10,,,,82,0
125012,note_on,102,0,7,,,,,,,,,11,,,,77,0
125025,note_on,39,0,8,,,,,,,,,12,,,,62,0
125029,note_on,39,0,9,,,,,,,,,13,,,,50,0
125031,note_on,39,0,10,,,,,,,,,14,,,,38,0
125033,note_on,122,0,1,,,,,,,,,0,,,,82,0
125035,note_on,0,0,2,,,,,,,,,1,,,,73,0
125035,note_on,122,0,2,,,,,,,,,1,,,,77,0
125039,note_on,145,0,4,,,,,,,,,4,,,,65,0
125040,note_on,0,0,6,,,,,,,,,10,,,,82,110
125040,control_change,30,0,6,,,,,,,,,10,11,86,,,
125040,set_tempo,240,1,0,,,,,,265487,,,,,,,,
125041,note_on,50,0,3,,,,,,,,,3,,,,50,0
125041,note_on,145,0,5,,,,,,,,,5,,,,58,0
125042,note_on,0,0,7,,,,,,,,,11,,,,72,110
125042,control_change,30,0,7,,,,,,,,,11,11,86,,,
125042,note_on,0,0,7,,,,,,,,,11,,,,79,110
125043,note_on,0,0,1,,,,,,,,,0,,,,82,97
125043,control_change,10,0,1,,,,,,,,,0,11,86,,,
125044,control_change,5,0,4,,,,,,,,,4,11,86,,,
125044,note_on,0,0,4,,,,,,,,,4,,,,60,96
125045,note_on,0,0,2,,,,,,,,,1,,,,73,97
125045,control_change,10,0,2,,,,,,,,,1,11,86,,,
125045,note_on,0,0,2,,,,,,,,,1,,,,77,97
125046,note_on,0,0,5,,,,,,,,,5,,,,60,96
125046,control_change,21,0,8,,,,,,,,,12,11,86,,,
125046,control_change,5,0,5,,,,,,,,,5,11,86,,,
125046,note_on,0,0,8,,,,,,,,,12,,,,64,108
125050,note_on,0,0,9,,,,,,,,,13,,,,52,99
125050,control_change,21,0,9,,,,,,,,,13,11,86,,,
125051,note_on,0,0,3,,,,,,,,,3,,,,52,97
125051,control_change,10,0,3,,,,,,,,,3,11,86,,,
125052,control_change,21,0,10,,,,,,,,,14,11,86,,,
125052,note_on,0,0,10,,,,,,,,,14,,,,40,93
125058,control_change,18,0,6,,,,,,,,,10,11,84,,,
125060,control_change,18,0,7,,,,,,,,,11,11,84,,,
125061,control_change,18,0,1,,,,,,,,,0,11,84,,,
125062,control_change,18,0,4,,,,,,,,,4,11,84,,,
125063,control_change,18,0,2,,,,,,,,,1,11,84,,,
125064,control_change,18,0,8,,,,,,,,,12,11,84,,,
125064,control_change,18,0,5,,,,,,,,,5,11,84,,,
125068,control_change,18,0,9,,,,,,,,,13,11,84,,,
125069,control_change,18,0,3,,,,,,,,,3,11,84,,,
125070,control_change,18,0,10,,,,,,,,,14,11,84,,,
125076,control_change,18,0,6,,,,,,,,,10,11,84,,,
125078,control_change,18,0,7,,,,,,,,,11,11,84,,,
125079,control_change,18,0,1,,,,,,,,,0,11,84,,,
125080,control_change,18,0,4,,,,,,,,,4,11,83,,,
125081,control_change,18,0,2,,,,,,,,,1,11,84,,,
125082,control_change,18,0,8,,,,,,,,,12,11,84,,,
125082,control_change,18,0,5,,,,,,,,,5,11,83,,,
125086,control_change,18,0,9,,,,,,,,,13,11,84,,,
125087,control_change,18,0,3,,,,,,,,,3,11,84,,,
125088,control_change,18,0,10,,,,,,,,,14,11,84,,,
125094,control_change,18,0,6,,,,,,,,,10,11,82,,,
125096,control_change,18,0,7,,,,,,,,,11,11,82,,,
125097,control_change,18,0,1,,,,,,,,,0,11,82,,,
125098,control_change,18,0,4,,,,,,,,,4,11,82,,,
125099,control_change,18,0,2,,,,,,,,,1,11,82,,,
125100,control_change,18,0,8,,,,,,,,,12,11,82,,,
125100,control_change,18,0,5,,,,,,,,,5,11,82,,,
125104,control_change,18,0,9,,,,,,,,,13,11,82,,,
125105,control_change,18,0,3,,,,,,,,,3,11,82,,,
125106,control_change,18,0,10,,,,,,,,,14,11,82,,,
125112,control_change,18,0,6,,,,,,,,,10,11,82,,,
125114,control_change,18,0,7,,,,,,,,,11,11,82,,,
125115,control_change,18,0,1,,,,,,,,,0,11,82,,,
125116,control_change,18,0,4,,,,,,,,,4,11,80,,,
125117,control_change,18,0,2,,,,,,,,,1,11,82,,,
125118,control_change,18,0,5,,,,,,,,,5,11,80,,,
125118,control_change,18,0,8,,,,,,,,,12,11,82,,,
125122,control_change,18,0,9,,,,,,,,,13,11,82,,,
125123,control_change,18,0,3,,,,,,,,,3,11,82,,,
125124,control_change,18,0,10,,,,,,,,,14,11,82,,,
125130,control_change,18,0,6,,,,,,,,,10,11,80,,,
125132,control_change,18,0,7,,,,,,,,,11,11,80,,,
125133,control_change,18,0,1,,,,,,,,,0,11,80,,,
125134,control_change,18,0,4,,,,,,,,,4,11,79,,,
125135,control_change,18,0,2,,,,,,,,,1,11,80,,,
125136,control_change,18,0,5,,,,,,,,,5,11,79,,,
125136,control_change,18,0,8,,,,,,,,,12,11,80,,,
125140,control_change,18,0,9,,,,,,,,,13,11,80,,,
125141,control_change,18,0,3,,,,,,,,,3,11,80,,,
125142,control_change,18,0,10,,,,,,,,,14,11,80,,,
125148,control_change,18,0,6,,,,,,,,,10,11,80,,,
125150,control_change,18,0,7,,,,,,,,,11,11,80,,,
125151,control_change,18,0,1,,,,,,,,,0,11,80,,,
125153,control_change,18,0,2,,,,,,,,,1,11,80,,,
125154,control_change,18,0,8,,,,,,,,,12,11,80,,,
125158,control_change,18,0,9,,,,,,,,,13,11,80,,,
125159,control_change,18,0,3,,,,,,,,,3,11,80,,,
125160,control_change,18,0,10,,,,,,,,,14,11,80,,,
125166,note_on,0,0,8,,,,,,,,,12,,,,62,108
125166,note_on,12,0,8,,,,,,,,,12,,,,64,0
125170,note_on,12,0,9,,,,,,,,,13,,,,52,0
125170,note_on,0,0,9,,,,,,,,,13,,,,50,99
125171,note_on,12,0,3,,,,,,,,,3,,,,52,0
125171,note_on,0,0,3,,,,,,,,,3,,,,50,97
125172,note_on,0,0,10,,,,,,,,,14,,,,38,93
125172,note_on,12,0,10,,,,,,,,,14,,,,40,0
125226,note_on,0,0,8,,,,,,,,,12,,,,64,108
125226,note_on,60,0,8,,,,,,,,,12,,,,62,0
125230,note_on,60,0,9,,,,,,,,,13,,,,50,0
125230,note_on,0,0,9,,,,,,,,,13,,,,52,99
125231,note_on,60,0,3,,,,,,,,,3,,,,50,0
125231,note_on,0,0,3,,,,,,,,,3,,,,52,97
125232,note_on,0,0,10,,,,,,,,,14,,,,40,93
125232,note_on,60,0,10,,,,,,,,,14,,,,38,0
125250,note_on,102,0,6,,,,,,,,,10,,,,82,0
125252,note_on,0,0,7,,,,,,,,,11,,,,79,0
125252,note_on,102,0,7,,,,,,,,,11,,,,72,0
125265,note_on,39,0,8,,,,,,,,,12,,,,64,0
125269,note_on,39,0,9,,,,,,,,,13,,,,52,0
125271,note_on,39,0,10,,,,,,,,,14,,,,40,0
125273,note_on,122,0,1,,,,,,,,,0,,,,82,0
125275,note_on,0,0,2,,,,,,,,,1,,,,77,0
125275,note_on,122,0,2,,,,,,,,,1,,,,73,0
125279,note_on,145,0,4,,,,,,,,,4,,,,60,0
125280,set_tempo,240,1,0,,,,,,279720,,,,,,,,
125280,note_on,30,0,6,,,,,,,,,10,,,,82,125
125281,note_on,145,0,5,,,,,,,,,5,,,,60,0
125281,note_on,50,0,3,,,,,,,,,3,,,,52,0
125282,note_on,30,0,7,,,,,,,,,11,,,,79,125
125283,note_on,10,0,1,,,,,,,,,0,,,,82,110
125284,note_on,5,0,4,,,,,,,,,4,,,,60,96
125285,note_on,0,0,2,,,,,,,,,1,,,,72,110
125285,note_on,10,0,2,,,,,,,,,1,,,,79,110
125286,note_on,5,0,5,,,,,,,,,5,,,,60,96
125286,note_on,21,0,8,,,,,,,,,12,,,,65,123
125290,note_on,21,0,9,,,,,,,,,13,,,,53,114
125291,note_on,10,0,3,,,,,,,,,3,,,,53,110
125292,note_on,21,0,10,,,,,,,,,14,,,,41,108
125515,note_on,235,0,6,,,,,,,,,10,,,,82,0
125517,note_on,235,0,7,,,,,,,,,11,,,,79,0
125518,note_on,235,0,1,,,,,,,,,0,,,,82,0
125520,note_on,5,0,6,,,,,,,,,10,,,,80,95
125520,note_on,235,0,2,,,,,,,,,1,,,,79,0
125520,set_tempo,240,1,0,,,,,,265487,,,,,,,,
125522,note_on,5,0,7,,,,,,,,,11,,,,77,95
125523,note_on,5,0,1,,,,,,,,,0,,,,80,97
125525,note_on,5,0,2,,,,,,,,,1,,,,77,97
125615,note_on,95,0,6,,,,,,,,,10,,,,80,0
125617,note_on,95,0,7,,,,,,,,,11,,,,77,0
125618,note_on,95,0,1,,,,,,,,,0,,,,80,0
125620,note_on,95,0,2,,,,,,,,,1,,,,77,0
125636,note_on,350,0,8,,,,,,,,,12,,,,65,0
125639,note_on,355,0,4,,,,,,,,,4,,,,60,0
125640,note_on,350,0,9,,,,,,,,,13,,,,53,0
125640,note_on,25,0,6,,,,,,,,,10,,,,77,78
125640,note_on,20,0,2,,,,,,,,,1,,,,72,0
125641,note_on,355,0,5,,,,,,,,,5,,,,60,0
125641,note_on,350,0,3,,,,,,,,,3,,,,53,0
125642,note_on,350,0,10,,,,,,,,,14,,,,41,0
125642,note_on,25,0,7,,,,,,,,,11,,,,72,78
125643,note_on,25,0,1,,,,,,,,,0,,,,77,97
125645,note_on,5,0,2,,,,,,,,,1,,,,72,97
125646,note_on,10,0,8,,,,,,,,,12,,,,57,93
125650,note_on,10,0,9,,,,,,,,,13,,,,45,84
125651,note_on,10,0,3,,,,,,,,,3,,,,45,97
125652,note_on,10,0,10,,,,,,,,,14,,,,33,78
125735,note_on,95,0,6,,,,,,,,,10,,,,77,0
125737,note_on,95,0,7,,,,,,,,,11,,,,72,0
125738,note_on,95,0,1,,,,,,,,,0,,,,77,0
125740,note_on,95,0,2,,,,,,,,,1,,,,72,0
125756,note_on,110,0,8,,,,,,,,,12,,,,57,0
125760,note_on,0,0,6,,,,,,,,,10,,,,78,110
125760,control_change,25,0,6,,,,,,,,,10,11,86,,,
125760,set_tempo,240,1,0,,,,,,279720,,,,,,,,
125760,note_on,110,0,9,,,,,,,,,13,,,,45,0
125761,note_on,110,0,3,,,,,,,,,3,,,,45,0
125762,control_change,25,0,7,,,,,,,,,11,11,86,,,
125762,note_on,0,0,7,,,,,,,,,11,,,,73,110
125762,note_on,110,0,10,,,,,,,,,14,,,,33,0
125763,control_change,25,0,1,,,,,,,,,0,11,86,,,
125763,note_on,0,0,1,,,,,,,,,0,,,,78,97
125765,control_change,25,0,2,,,,,,,,,1,11,86,,,
125765,note_on,0,0,2,,,,,,,,,1,,,,70,97
125765,note_on,0,0,2,,,,,,,,,1,,,,73,97
125766,note_on,0,0,8,,,,,,,,,12,,,,58,108
125766,control_change,10,0,8,,,,,,,,,12,11,86,,,
125770,note_on,0,0,9,,,,,,,,,13,,,,46,99
125770,control_change,10,0,9,,,,,,,,,13,11,86,,,
125771,note_on,0,0,3,,,,,,,,,3,,,,46,97
125771,control_change,10,0,3,,,,,,,,,3,11,86,,,
125772,control_change,10,0,10,,,,,,,,,14,11,86,,,
125772,note_on,0,0,10,,,,,,,,,14,,,,34,93
125778,control_change,18,0,6,,,,,,,,,10,11,84,,,
125780,control_change,18,0,7,,,,,,,,,11,11,84,,,
125781,control_change,18,0,1,,,,,,,,,0,11,84,,,
125783,control_change,18,0,2,,,,,,,,,1,11,84,,,
125784,control_change,18,0,8,,,,,,,,,12,11,84,,,
125788,control_change,18,0,9,,,,,,,,,13,11,84,,,
125789,control_change,18,0,3,,,,,,,,,3,11,84,,,
125790,control_change,18,0,10,,,,,,,,,14,11,84,,,
125796,control_change,18,0,6,,,,,,,,,10,11,84,,,
125798,control_change,18,0,7,,,,,,,,,11,11,84,,,
125799,control_change,18,0,1,,,,,,,,,0,11,84,,,
125801,control_change,18,0,2,,,,,,,,,1,11,84,,,
125802,control_change,18,0,8,,,,,,,,,12,11,84,,,
125806,control_change,18,0,9,,,,,,,,,13,11,84,,,
125807,control_change,18,0,3,,,,,,,,,3,11,84,,,
125808,control_change,18,0,10,,,,,,,,,14,11,84,,,
125814,control_change,18,0,6,,,,,,,,,10,11,82,,,
125816,control_change,18,0,7,,,,,,,,,11,11,82,,,
125817,control_change,18,0,1,,,,,,,,,0,11,82,,,
125819,control_change,18,0,2,,,,,,,,,1,11,82,,,
125820,control_change,18,0,8,,,,,,,,,12,11,82,,,
125824,control_change,18,0,9,,,,,,,,,13,11,82,,,
125825,control_change,18,0,3,,,,,,,,,3,11,82,,,
125826,control_change,18,0,10,,,,,,,,,14,11,82,,,
125832,control_change,18,0,6,,,,,,,,,10,11,82,,,
125834,control_change,18,0,7,,,,,,,,,11,11,82,,,
125835,control_change,18,0,1,,,,,,,,,0,11,82,,,
125837,control_change,18,0,2,,,,,,,,,1,11,82,,,
125838,control_change,18,0,8,,,,,,,,,12,11,82,,,
125842,control_change,18,0,9,,,,,,,,,13,11,82,,,
125843,control_change,18,0,3,,,,,,,,,3,11,82,,,
125844,control_change,18,0,10,,,,,,,,,14,11,82,,,
125850,control_change,18,0,6,,,,,,,,,10,11,80,,,
125852,control_change,18,0,7,,,,,,,,,11,11,80,,,
125853,control_change,18,0,1,,,,,,,,,0,11,80,,,
125855,control_change,18,0,2,,,,,,,,,1,11,80,,,
125856,control_change,18,0,8,,,,,,,,,12,11,80,,,
125860,control_change,18,0,9,,,,,,,,,13,11,80,,,
125861,control_change,18,0,3,,,,,,,,,3,11,80,,,
125862,control_change,18,0,10,,,,,,,,,14,11,80,,,
125868,control_change,18,0,6,,,,,,,,,10,11,80,,,
125870,control_change,18,0,7,,,,,,,,,11,11,80,,,
125871,control_change,18,0,1,,,,,,,,,0,11,80,,,
125873,control_change,18,0,2,,,,,,,,,1,11,80,,,
125874,control_change,18,0,8,,,,,,,,,12,11,80,,,
125878,control_change,18,0,9,,,,,,,,,13,11,80,,,
125879,control_change,18,0,3,,,,,,,,,3,11,80,,,
125880,control_change,18,0,10,,,,,,,,,14,11,80,,,
125886,note_on,0,0,8,,,,,,,,,12,,,,56,108
125886,note_on,12,0,8,,,,,,,,,12,,,,58,0
125890,note_on,0,0,9,,,,,,,,,13,,,,44,99
125890,note_on,12,0,9,,,,,,,,,13,,,,46,0
125891,note_on,12,0,3,,,,,,,,,3,,,,46,0
125891,note_on,0,0,3,,,,,,,,,3,,,,44,97
125892,note_on,12,0,10,,,,,,,,,14,,,,34,0
125892,note_on,0,0,10,,,,,,,,,14,,,,32,93
125946,note_on,0,0,8,,,,,,,,,12,,,,58,108
125946,note_on,60,0,8,,,,,,,,,12,,,,56,0
125950,note_on,0,0,9,,,,,,,,,13,,,,46,99
125950,note_on,60,0,9,,,,,,,,,13,,,,44,0
125951,note_on,60,0,3,,,,,,,,,3,,,,44,0
125951,note_on,0,0,3,,,,,,,,,3,,,,46,97
125952,note_on,60,0,10,,,,,,,,,14,,,,32,0
125952,note_on,0,0,10,,,,,,,,,14,,,,34,93
125970,note_on,102,0,6,,,,,,,,,10,,,,78,0
125972,note_on,102,0,7,,,,,,,,,11,,,,73,0
125985,note_on,39,0,8,,,,,,,,,12,,,,58,0
125989,note_on,39,0,9,,,,,,,,,13,,,,46,0
125991,note_on,39,0,10,,,,,,,,,14,,,,34,0
125993,note_on,122,0,1,,,,,,,,,0,,,,78,0
125995,note_on,0,0,2,,,,,,,,,1,,,,73,0
125995,note_on,122,0,2,,,,,,,,,1,,,,70,0
126000,control_change,30,0,6,,,,,,,,,10,11,86,,,
126000,note_on,0,0,6,,,,,,,,,10,,,,78,110
126000,set_tempo,240,1,0,,,,,,265487,,,,,,,,
126001,note_on,50,0,3,,,,,,,,,3,,,,46,0
126002,control_change,30,0,7,,,,,,,,,11,11,86,,,
126002,note_on,0,0,7,,,,,,,,,11,,,,75,110
126003,control_change,10,0,1,,,,,,,,,0,11,86,,,
126003,note_on,0,0,1,,,,,,,,,0,,,,78,97
126005,control_change,10,0,2,,,,,,,,,1,11,86,,,
126005,note_on,0,0,2,,,,,,,,,1,,,,68,97
126005,note_on,0,0,2,,,,,,,,,1,,,,75,97
126006,control_change,21,0,8,,,,,,,,,12,11,86,,,
126006,note_on,0,0,8,,,,,,,,,12,,,,60,108
126010,control_change,21,0,9,,,,,,,,,13,11,86,,,
126010,note_on,0,0,9,,,,,,,,,13,,,,48,99
126011,note_on,0,0,3,,,,,,,,,3,,,,48,97
126011,control_change,10,0,3,,,,,,,,,3,11,86,,,
126012,note_on,0,0,10,,,,,,,,,14,,,,36,93
126012,control_change,21,0,10,,,,,,,,,14,11,86,,,
126018,control_change,18,0,6,,,,,,,,,10,11,84,,,
126020,control_change,18,0,7,,,,,,,,,11,11,84,,,
126021,control_change,18,0,1,,,,,,,,,0,11,84,,,
126023,control_change,18,0,2,,,,,,,,,1,11,84,,,
126024,control_change,18,0,8,,,,,,,,,12,11,84,,,
126028,control_change,18,0,9,,,,,,,,,13,11,84,,,
126029,control_change,18,0,3,,,,,,,,,3,11,84,,,
126030,control_change,18,0,10,,,,,,,,,14,11,84,,,
126036,control_change,18,0,6,,,,,,,,,10,11,84,,,
126038,control_change,18,0,7,,,,,,,,,11,11,84,,,
126039,control_change,18,0,1,,,,,,,,,0,11,84,,,
126041,control_change,18,0,2,,,,,,,,,1,11,84,,,
126042,control_change,18,0,8,,,,,,,,,12,11,84,,,
126046,control_change,18,0,9,,,,,,,,,13,11,84,,,
126047,control_change,18,0,3,,,,,,,,,3,11,84,,,
126048,control_change,18,0,10,,,,,,,,,14,11,84,,,
126054,control_change,18,0,6,,,,,,,,,10,11,82,,,
126056,control_change,18,0,7,,,,,,,,,11,11,82,,,
126057,control_change,18,0,1,,,,,,,,,0,11,82,,,
126059,control_change,18,0,2,,,,,,,,,1,11,82,,,
126060,control_change,18,0,8,,,,,,,,,12,11,82,,,
126064,control_change,18,0,9,,,,,,,,,13,11,82,,,
126065,control_change,18,0,3,,,,,,,,,3,11,82,,,
126066,control_change,18,0,10,,,,,,,,,14,11,82,,,
126072,control_change,18,0,6,,,,,,,,,10,11,82,,,
126074,control_change,18,0,7,,,,,,,,,11,11,82,,,
126075,control_change,18,0,1,,,,,,,,,0,11,82,,,
126077,control_change,18,0,2,,,,,,,,,1,11,82,,,
126078,control_change,18,0,8,,,,,,,,,12,11,82,,,
126082,control_change,18,0,9,,,,,,,,,13,11,82,,,
126083,control_change,18,0,3,,,,,,,,,3,11,82,,,
126084,control_change,18,0,10,,,,,,,,,14,11,82,,,
126090,control_change,18,0,6,,,,,,,,,10,11,80,,,
126092,control_change,18,0,7,,,,,,,,,11,11,80,,,
126093,control_change,18,0,1,,,,,,,,,0,11,80,,,
126095,control_change,18,0,2,,,,,,,,,1,11,80,,,
126096,control_change,18,0,8,,,,,,,,,12,11,80,,,
126100,control_change,18,0,9,,,,,,,,,13,11,80,,,
126101,control_change,18,0,3,,,,,,,,,3,11,80,,,
126102,control_change,18,0,10,,,,,,,,,14,11,80,,,
126108,control_change,18,0,6,,,,,,,,,10,11,80,,,
126110,control_change,18,0,7,,,,,,,,,11,11,80,,,
126111,control_change,18,0,1,,,,,,,,,0,11,80,,,
126113,control_change,18,0,2,,,,,,,,,1,11,80,,,
126114,control_change,18,0,8,,,,,,,,,12,11,80,,,
126118,control_change,18,0,9,,,,,,,,,13,11,80,,,
126119,control_change,18,0,3,,,,,,,,,3,11,80,,,
126120,control_change,18,0,10,,,,,,,,,14,11,80,,,
126126,note_on,0,0,8,,,,,,,,,12,,,,58,108
126126,note_on,12,0,8,,,,,,,,,12,,,,60,0
126130,note_on,0,0,9,,,,,,,,,13,,,,46,99
126130,note_on,12,0,9,,,,,,,,,13,,,,48,0
126131,note_on,0,0,3,,,,,,,,,3,,,,46,97
126131,note_on,12,0,3,,,,,,,,,3,,,,48,0
126132,note_on,0,0,10,,,,,,,,,14,,,,34,93
126132,note_on,12,0,10,,,,,,,,,14,,,,36,0
126186,note_on,60,0,8,,,,,,,,,12,,,,58,0
126186,note_on,0,0,8,,,,,,,,,12,,,,60,108
126190,note_on,0,0,9,,,,,,,,,13,,,,48,99
126190,note_on,60,0,9,,,,,,,,,13,,,,46,0
126191,note_on,60,0,3,,,,,,,,,3,,,,46,0
126191,note_on,0,0,3,,,,,,,,,3,,,,48,97
126192,note_on,60,0,10,,,,,,,,,14,,,,34,0
126192,note_on,0,0,10,,,,,,,,,14,,,,36,93
126210,note_on,102,0,6,,,,,,,,,10,,,,78,0
126212,note_on,102,0,7,,,,,,,,,11,,,,75,0
126233,note_on,122,0,1,,,,,,,,,0,,,,78,0
126235,note_on,122,0,2,,,,,,,,,1,,,,68,0
126235,note_on,0,0,2,,,,,,,,,1,,,,75,0
126240,note_on,30,0,6,,,,,,,,,10,,,,78,125
126240,set_tempo,240,1,0,,,,,,279720,,,,,,,,
126241,note_on,55,0,8,,,,,,,,,12,,,,60,0
126242,note_on,30,0,7,,,,,,,,,11,,,,75,125
126243,note_on,10,0,1,,,,,,,,,0,,,,78,110
126245,note_on,0,0,2,,,,,,,,,1,,,,75,110
126245,note_on,55,0,9,,,,,,,,,13,,,,48,0
126245,note_on,10,0,2,,,,,,,,,1,,,,68,110
126246,note_on,55,0,3,,,,,,,,,3,,,,48,0
126246,note_on,5,0,8,,,,,,,,,12,,,,61,123
126247,note_on,55,0,10,,,,,,,,,14,,,,36,0
126250,note_on,5,0,9,,,,,,,,,13,,,,49,114
126251,note_on,5,0,3,,,,,,,,,3,,,,49,110
126252,note_on,5,0,10,,,,,,,,,14,,,,37,108
126475,note_on,235,0,6,,,,,,,,,10,,,,78,0
126477,note_on,235,0,7,,,,,,,,,11,,,,75,0
126478,note_on,235,0,1,,,,,,,,,0,,,,78,0
126480,note_on,5,0,6,,,,,,,,,10,,,,77,95
126480,set_tempo,240,1,0,,,,,,265487,,,,,,,,
126480,note_on,235,0,2,,,,,,,,,1,,,,75,0
126482,note_on,5,0,7,,,,,,,,,11,,,,73,95
126483,note_on,5,0,1,,,,,,,,,0,,,,77,97
126485,note_on,5,0,2,,,,,,,,,1,,,,73,97
126540,control_change,60,0,6,,,,,,,,,10,11,79,,,
126542,control_change,60,0,7,,,,,,,,,11,11,79,,,
126543,control_change,60,0,1,,,,,,,,,0,11,79,,,
126545,control_change,60,0,2,,,,,,,,,1,11,79,,,
126546,control_change,300,0,8,,,,,,,,,12,11,79,,,
126550,control_change,300,0,9,,,,,,,,,13,11,79,,,
126551,control_change,11,0,6,,,,,,,,,10,11,75,,,
126551,control_change,300,0,3,,,,,,,,,3,11,79,,,
126552,control_change,300,0,10,,,,,,,,,14,11,79,,,
126553,control_change,11,0,7,,,,,,,,,11,11,75,,,
126554,control_change,11,0,1,,,,,,,,,0,11,75,,,
126556,control_change,11,0,2,,,,,,,,,1,11,75,,,
126557,control_change,11,0,8,,,,,,,,,12,11,75,,,
126561,control_change,11,0,9,,,,,,,,,13,11,75,,,
126562,control_change,11,0,3,,,,,,,,,3,11,75,,,
126563,control_change,12,0,6,,,,,,,,,10,11,71,,,
126563,control_change,11,0,10,,,,,,,,,14,11,75,,,
126565,control_change,12,0,7,,,,,,,,,11,11,71,,,
126566,control_change,12,0,1,,,,,,,,,0,11,71,,,
126568,control_change,12,0,2,,,,,,,,,1,11,71,,,
126569,control_change,6,0,6,,,,,,,,,10,11,68,,,
126569,control_change,12,0,8,,,,,,,,,12,11,71,,,
126571,control_change,6,0,7,,,,,,,,,11,11,68,,,
126572,control_change,6,0,1,,,,,,,,,0,11,68,,,
126573,control_change,12,0,9,,,,,,,,,13,11,71,,,
126574,note_on,5,0,6,,,,,,,,,10,,,,77,0
126574,control_change,12,0,3,,,,,,,,,3,11,71,,,
126574,control_change,6,0,2,,,,,,,,,1,11,68,,,
126575,control_change,12,0,10,,,,,,,,,14,11,71,,,
126575,control_change,6,0,8,,,,,,,,,12,11,68,,,
126576,note_on,5,0,7,,,,,,,,,11,,,,73,0
126579,control_change,6,0,9,,,,,,,,,13,11,68,,,
126580,control_change,6,0,3,,,,,,,,,3,11,68,,,
126581,control_change,6,0,10,,,,,,,,,14,11,68,,,
126581,control_change,7,0,6,,,,,,,,,10,11,64,,,
126583,control_change,7,0,7,,,,,,,,,11,11,64,,,
126584,control_change,12,0,1,,,,,,,,,0,11,64,,,
126586,control_change,12,0,2,,,,,,,,,1,11,64,,,
126587,control_change,12,0,8,,,,,,,,,12,11,64,,,
126590,note_on,3,0,8,,,,,,,,,12,,,,61,0
126591,control_change,12,0,9,,,,,,,,,13,11,64,,,
126592,control_change,12,0,3,,,,,,,,,3,11,64,,,
126593,note_on,9,0,1,,,,,,,,,0,,,,77,0
126593,control_change,12,0,6,,,,,,,,,10,11,60,,,
126593,control_change,12,0,10,,,,,,,,,14,11,64,,,
126594,note_on,3,0,9,,,,,,,,,13,,,,49,0
126595,control_change,12,0,7,,,,,,,,,11,11,60,,,
126595,note_on,9,0,2,,,,,,,,,1,,,,73,0
126596,control_change,3,0,1,,,,,,,,,0,11,60,,,
126596,note_on,3,0,10,,,,,,,,,14,,,,37,0
126598,control_change,3,0,2,,,,,,,,,1,11,60,,,
126599,control_change,9,0,8,,,,,,,,,12,11,60,,,
126599,control_change,6,0,6,,,,,,,,,10,11,57,,,
126600,set_tempo,120,1,0,,,,,,273349,,,,,,,,
126600,note_on,1,0,6,,,,,,,,,10,,,,66,80
126600,note_on,2,0,2,,,,,,,,,1,,,,68,0
126601,note_on,9,0,3,,,,,,,,,3,,,,49,0
126601,control_change,6,0,7,,,,,,,,,11,11,57,,,
126602,note_on,1,0,7,,,,,,,,,11,,,,63,80
126602,control_change,6,0,1,,,,,,,,,0,11,57,,,
126603,control_change,9,0,9,,,,,,,,,13,11,60,,,
126603,control_change,1,0,1,,,,,,,,,0,11,47,,,
126604,control_change,3,0,3,,,,,,,,,3,11,60,,,
126604,control_change,4,0,2,,,,,,,,,1,11,57,,,
126605,control_change,6,0,8,,,,,,,,,12,11,57,,,
126605,note_on,0,0,2,,,,,,,,,1,,,,68,97
126605,control_change,1,0,2,,,,,,,,,1,11,47,,,
126605,control_change,9,0,10,,,,,,,,,14,11,60,,,
126606,control_change,1,0,8,,,,,,,,,12,11,47,,,
126606,note_on,0,0,8,,,,,,,,,12,,,,58,108
126609,control_change,6,0,9,,,,,,,,,13,11,57,,,
126610,control_change,6,0,3,,,,,,,,,3,11,57,,,
126610,note_on,0,0,9,,,,,,,,,13,,,,46,71
126610,control_change,1,0,9,,,,,,,,,13,11,47,,,
126611,note_on,0,0,3,,,,,,,,,3,,,,56,110
126611,note_on,0,0,3,,,,,,,,,3,,,,46,97
126611,control_change,6,0,10,,,,,,,,,14,11,57,,,
126611,control_change,1,0,3,,,,,,,,,3,11,47,,,
126612,note_on,0,0,10,,,,,,,,,14,,,,34,65
126612,control_change,1,0,10,,,,,,,,,14,11,47,,,
126661,note_on,55,0,8,,,,,,,,,12,,,,58,0
126665,note_on,55,0,9,,,,,,,,,13,,,,46,0
126666,note_on,55,0,3,,,,,,,,,3,,,,46,0
126666,note_on,5,0,8,,,,,,,,,12,,,,60,108
126667,note_on,55,0,10,,,,,,,,,14,,,,34,0
126670,note_on,5,0,9,,,,,,,,,13,,,,48,71
126671,note_on,5,0,3,,,,,,,,,3,,,,48,97
126672,note_on,5,0,10,,,,,,,,,14,,,,36,65
126679,note_on,79,0,6,,,,,,,,,10,,,,66,0
126681,note_on,79,0,7,,,,,,,,,11,,,,63,0
126720,set_tempo,120,1,0,,,,,,286396,,,,,,,,
126720,note_on,41,0,6,,,,,,,,,10,,,,66,77
126722,note_on,41,0,7,,,,,,,,,11,,,,63,77
126726,note_on,60,0,8,,,,,,,,,12,,,,60,0
126726,note_on,0,0,8,,,,,,,,,12,,,,61,108
126730,note_on,60,0,9,,,,,,,,,13,,,,48,0
126730,note_on,0,0,9,,,,,,,,,13,,,,49,71
126731,note_on,0,0,3,,,,,,,,,3,,,,49,97
126731,note_on,60,0,3,,,,,,,,,3,,,,48,0
126732,note_on,60,0,10,,,,,,,,,14,,,,36,0
126732,note_on,0,0,10,,,,,,,,,14,,,,37,65
126960,set_tempo,240,1,0,,,,,,272727,,,,,,,,
126960,note_on,0,0,6,,,,,,,,,10,,,,65,77
126960,note_on,240,0,6,,,,,,,,,10,,,,66,0
126962,note_on,240,0,7,,,,,,,,,11,,,,63,0
126962,note_on,0,0,7,,,,,,,,,11,,,,61,77
127059,note_on,99,0,6,,,,,,,,,10,,,,65,0
127061,note_on,99,0,7,,,,,,,,,11,,,,61,0
127075,note_on,349,0,8,,,,,,,,,12,,,,61,0
127080,note_on,475,0,2,,,,,,,,,1,,,,68,0
127080,note_on,21,0,6,,,,,,,,,10,,,,78,78
127082,note_on,21,0,7,,,,,,,,,11,,,,75,78
127083,note_on,480,0,1,,,,,,,,,0,,,,80,110
127085,note_on,5,0,2,,,,,,,,,1,,,,68,110
127086,note_on,355,0,3,,,,,,,,,3,,,,56,0
127086,note_on,11,0,8,,,,,,,,,12,,,,58,108
127090,note_on,360,0,9,,,,,,,,,13,,,,49,0
127091,note_on,5,0,3,,,,,,,,,3,,,,49,0
127091,note_on,0,0,3,,,,,,,,,3,,,,58,97
127092,note_on,360,0,10,,,,,,,,,14,,,,37,0
127146,note_on,0,0,8,,,,,,,,,12,,,,60,108
127146,note_on,60,0,8,,,,,,,,,12,,,,58,0
127151,note_on,0,0,3,,,,,,,,,3,,,,60,97
127151,note_on,60,0,3,,,,,,,,,3,,,,58,0
127164,note_on,84,0,6,,,,,,,,,10,,,,78,0
127166,note_on,84,0,7,,,,,,,,,11,,,,75,0
127200,set_tempo,240,1,0,,,,,,285714,,,,,,,,
127200,note_on,36,0,6,,,,,,,,,10,,,,78,92
127202,note_on,36,0,7,,,,,,,,,11,,,,75,92
127206,note_on,0,0,8,,,,,,,,,12,,,,61,108
127206,note_on,60,0,8,,,,,,,,,12,,,,60,0
127211,note_on,60,0,3,,,,,,,,,3,,,,60,0
127211,note_on,0,0,3,,,,,,,,,3,,,,61,97
127440,set_tempo,240,1,0,,,,,,272727,,,,,,,,
127440,note_on,240,0,6,,,,,,,,,10,,,,78,0
127440,note_on,0,0,6,,,,,,,,,10,,,,77,79
127442,note_on,0,0,7,,,,,,,,,11,,,,73,79
127442,note_on,240,0,7,,,,,,,,,11,,,,75,0
127539,note_on,99,0,6,,,,,,,,,10,,,,77,0
127541,note_on,99,0,7,,,,,,,,,11,,,,73,0
127555,note_on,349,0,8,,,,,,,,,12,,,,61,0
127560,note_on,21,0,6,,,,,,,,,10,,,,68,80
127562,note_on,21,0,7,,,,,,,,,11,,,,65,80
127563,note_on,480,0,1,,,,,,,,,0,,,,80,0
127565,note_on,480,0,2,,,,,,,,,1,,,,68,0
127565,note_on,0,0,2,,,,,,,,,1,,,,70,97
127566,note_on,11,0,8,,,,,,,,,12,,,,48,108
127570,note_on,480,0,9,,,,,,,,,13,,,,48,71
127571,note_on,0,0,3,,,,,,,,,3,,,,58,110
127571,note_on,360,0,3,,,,,,,,,3,,,,61,0
127571,note_on,0,0,3,,,,,,,,,3,,,,48,97
127572,note_on,480,0,10,,,,,,,,,14,,,,36,65
127626,note_on,0,0,8,,,,,,,,,12,,,,50,108
127626,note_on,60,0,8,,,,,,,,,12,,,,48,0
127630,note_on,60,0,9,,,,,,,,,13,,,,48,0
127630,note_on,0,0,9,,,,,,,,,13,,,,50,71
127631,note_on,0,0,3,,,,,,,,,3,,,,50,97
127631,note_on,60,0,3,,,,,,,,,3,,,,48,0
127632,note_on,0,0,10,,,,,,,,,14,,,,38,65
127632,note_on,60,0,10,,,,,,,,,14,,,,36,0
127644,note_on,84,0,6,,,,,,,,,10,,,,68,0
127646,note_on,84,0,7,,,,,,,,,11,,,,65,0
127680,set_tempo,240,1,0,,,,,,285714,,,,,,,,
127680,note_on,36,0,6,,,,,,,,,10,,,,68,80
127682,note_on,36,0,7,,,,,,,,,11,,,,65,80
127686,note_on,0,0,8,,,,,,,,,12,,,,51,108
127686,note_on,60,0,8,,,,,,,,,12,,,,50,0
127690,note_on,0,0,9,,,,,,,,,13,,,,51,71
127690,note_on,60,0,9,,,,,,,,,13,,,,50,0
127691,note_on,60,0,3,,,,,,,,,3,,,,50,0
127691,note_on,0,0,3,,,,,,,,,3,,,,51,97
127692,note_on,60,0,10,,,,,,,,,14,,,,38,0
127692,note_on,0,0,10,,,,,,,,,14,,,,39,65
127920,note_on,240,0,6,,,,,,,,,10,,,,68,0
127920,note_on,0,0,6,,,,,,,,,10,,,,66,81
127920,set_tempo,240,1,0,,,,,,272727,,,,,,,,
127922,note_on,0,0,7,,,,,,,,,11,,,,63,81
127922,note_on,240,0,7,,,,,,,,,11,,,,65,0
128019,note_on,99,0,6,,,,,,,,,10,,,,66,0
128021,note_on,99,0,7,,,,,,,,,11,,,,63,0
128035,note_on,349,0,8,,,,,,,,,12,,,,51,0
128040,note_on,21,0,6,,,,,,,,,10,,,,80,82
128042,note_on,21,0,7,,,,,,,,,11,,,,77,82
128043,note_on,480,0,1,,,,,,,,,0,,,,82,110
128045,note_on,480,0,2,,,,,,,,,1,,,,70,0
128045,note_on,0,0,2,,,,,,,,,1,,,,70,110
128046,note_on,11,0,8,,,,,,,,,12,,,,60,108
128050,note_on,360,0,9,,,,,,,,,13,,,,51,0
128051,note_on,0,0,3,,,,,,,,,3,,,,58,0
128051,note_on,360,0,3,,,,,,,,,3,,,,51,0
128051,note_on,0,0,3,,,,,,,,,3,,,,60,97
128052,note_on,360,0,10,,,,,,,,,14,,,,39,0
128106,note_on,60,0,8,,,,,,,,,12,,,,60,0
128106,note_on,0,0,8,,,,,,,,,12,,,,62,108
128111,note_on,60,0,3,,,,,,,,,3,,,,60,0
128111,note_on,0,0,3,,,,,,,,,3,,,,62,97
128124,note_on,84,0,6,,,,,,,,,10,,,,80,0
128126,note_on,84,0,7,,,,,,,,,11,,,,77,0
128160,set_tempo,240,1,0,,,,,,285714,,,,,,,,
128160,note_on,36,0,6,,,,,,,,,10,,,,80,92
128162,note_on,36,0,7,,,,,,,,,11,,,,77,92
128166,note_on,0,0,8,,,,,,,,,12,,,,63,108
128166,note_on,60,0,8,,,,,,,,,12,,,,62,0
128171,note_on,0,0,3,,,,,,,,,3,,,,63,97
128171,note_on,60,0,3,,,,,,,,,3,,,,62,0
128400,note_on,0,0,6,,,,,,,,,10,,,,78,83
128400,set_tempo,240,1,0,,,,,,276498,,,,,,,,
128400,note_on,240,0,6,,,,,,,,,10,,,,80,0
128402,note_on,0,0,7,,,,,,,,,11,,,,75,83
128402,note_on,240,0,7,,,,,,,,,11,,,,77,0
128499,note_on,99,0,6,,,,,,,,,10,,,,78,0
128501,note_on,99,0,7,,,,,,,,,11,,,,75,0
128515,note_on,349,0,8,,,,,,,,,12,,,,63,0
128520,note_on,21,0,6,,,,,,,,,10,,,,71,83
128522,note_on,21,0,7,,,,,,,,,11,,,,68,83
128523,note_on,480,0,1,,,,,,,,,0,,,,82,0
128525,note_on,0,0,2,,,,,,,,,1,,,,73,97
128525,note_on,480,0,2,,,,,,,,,1,,,,70,0
128526,note_on,11,0,8,,,,,,,,,12,,,,51,108
128530,note_on,480,0,9,,,,,,,,,13,,,,51,71
128531,note_on,0,0,3,,,,,,,,,3,,,,61,110
128531,note_on,0,0,3,,,,,,,,,3,,,,51,97
128531,note_on,360,0,3,,,,,,,,,3,,,,63,0
128532,note_on,480,0,10,,,,,,,,,14,,,,39,65
128586,note_on,60,0,8,,,,,,,,,12,,,,51,0
128586,note_on,0,0,8,,,,,,,,,12,,,,53,108
128590,note_on,0,0,9,,,,,,,,,13,,,,53,71
128590,note_on,60,0,9,,,,,,,,,13,,,,51,0
128591,note_on,60,0,3,,,,,,,,,3,,,,51,0
128591,note_on,0,0,3,,,,,,,,,3,,,,53,97
128592,note_on,60,0,10,,,,,,,,,14,,,,39,0
128592,note_on,0,0,10,,,,,,,,,14,,,,41,65
128604,note_on,84,0,6,,,,,,,,,10,,,,71,0
128606,note_on,84,0,7,,,,,,,,,11,,,,68,0
128640,set_tempo,240,1,0,,,,,,285714,,,,,,,,
128640,note_on,36,0,6,,,,,,,,,10,,,,71,84
128642,note_on,36,0,7,,,,,,,,,11,,,,68,84
128646,note_on,60,0,8,,,,,,,,,12,,,,53,0
128646,note_on,0,0,8,,,,,,,,,12,,,,54,108
128650,note_on,0,0,9,,,,,,,,,13,,,,54,71
128650,note_on,60,0,9,,,,,,,,,13,,,,53,0
128651,note_on,60,0,3,,,,,,,,,3,,,,53,0
128651,note_on,0,0,3,,,,,,,,,3,,,,54,97
128652,note_on,60,0,10,,,,,,,,,14,,,,41,0
128652,note_on,0,0,10,,,,,,,,,14,,,,42,65
128880,note_on,240,0,6,,,,,,,,,10,,,,71,0
128880,set_tempo,240,1,0,,,,,,277778,,,,,,,,
128880,note_on,0,0,6,,,,,,,,,10,,,,70,85
128882,note_on,240,0,7,,,,,,,,,11,,,,68,0
128882,note_on,0,0,7,,,,,,,,,11,,,,66,85
128979,note_on,99,0,6,,,,,,,,,10,,,,70,0
128981,note_on,99,0,7,,,,,,,,,11,,,,66,0
128995,note_on,349,0,8,,,,,,,,,12,,,,54,0
129000,note_on,21,0,6,,,,,,,,,10,,,,83,85
129002,note_on,21,0,7,,,,,,,,,11,,,,80,85
129003,note_on,480,0,1,,,,,,,,,0,,,,85,110
129005,note_on,0,0,2,,,,,,,,,1,,,,73,110
129005,note_on,480,0,2,,,,,,,,,1,,,,73,0
129006,note_on,11,0,8,,,,,,,,,12,,,,63,108
129010,note_on,360,0,9,,,,,,,,,13,,,,54,0
129011,note_on,0,0,3,,,,,,,,,3,,,,63,97
129011,note_on,0,0,3,,,,,,,,,3,,,,61,0
129011,note_on,360,0,3,,,,,,,,,3,,,,54,0
129012,note_on,360,0,10,,,,,,,,,14,,,,42,0
129066,note_on,60,0,8,,,,,,,,,12,,,,63,0
129066,note_on,0,0,8,,,,,,,,,12,,,,65,108
129071,note_on,0,0,3,,,,,,,,,3,,,,65,97
129071,note_on,60,0,3,,,,,,,,,3,,,,63,0
129084,note_on,84,0,6,,,,,,,,,10,,,,83,0
129086,note_on,84,0,7,,,,,,,,,11,,,,80,0
129120,set_tempo,240,1,0,,,,,,289157,,,,,,,,
129120,note_on,36,0,6,,,,,,,,,10,,,,83,95
129122,note_on,36,0,7,,,,,,,,,11,,,,80,95
129126,note_on,0,0,8,,,,,,,,,12,,,,66,108
129126,note_on,60,0,8,,,,,,,,,12,,,,65,0
129131,note_on,0,0,3,,,,,,,,,3,,,,66,97
129131,note_on,60,0,3,,,,,,,,,3,,,,65,0
129360,set_tempo,240,1,0,,,,,,282353,,,,,,,,
129360,note_on,0,0,6,,,,,,,,,10,,,,82,87
129360,note_on,240,0,6,,,,,,,,,10,,,,83,0
129362,note_on,240,0,7,,,,,,,,,11,,,,80,0
129362,note_on,0,0,7,,,,,,,,,11,,,,78,87
129459,note_on,99,0,6,,,,,,,,,10,,,,82,0
129461,note_on,99,0,7,,,,,,,,,11,,,,78,0
129475,note_on,349,0,8,,,,,,,,,12,,,,66,0
129480,set_tempo,120,1,0,,,,,,352941,,,,,,,,
129480,note_on,21,0,6,,,,,,,,,10,,,,73,65
129482,note_on,21,0,7,,,,,,,,,11,,,,71,65
129483,note_on,480,0,1,,,,,,,,,0,,,,85,0
129485,note_on,480,0,2,,,,,,,,,1,,,,73,0
129486,note_on,11,0,8,,,,,,,,,12,,,,65,93
129491,note_on,360,0,3,,,,,,,,,3,,,,66,0
129510,set_tempo,30,1,0,,,,,,296296,,,,,,,,
129564,note_on,84,0,6,,,,,,,,,10,,,,73,0
129566,note_on,84,0,7,,,,,,,,,11,,,,71,0
129595,note_on,109,0,8,,,,,,,,,12,,,,65,0
129600,set_tempo,90,1,0,,,,,,289157,,,,,,,,
129600,control_change,36,0,6,,,,,,,,,10,11,47,,,
129600,note_on,0,0,6,,,,,,,,,10,,,,73,91
129602,control_change,36,0,7,,,,,,,,,11,11,47,,,
129602,note_on,0,0,7,,,,,,,,,11,,,,71,91
129606,note_on,0,0,8,,,,,,,,,12,,,,65,79
129606,control_change,11,0,8,,,,,,,,,12,11,47,,,
129779,control_change,179,0,6,,,,,,,,,10,11,46,,,
129781,control_change,179,0,7,,,,,,,,,11,11,46,,,
129785,control_change,179,0,8,,,,,,,,,12,11,46,,,
129840,set_tempo,240,1,0,,,,,,282353,,,,,,,,
129842,note_on,61,0,7,,,,,,,,,11,,,,71,0
129842,note_on,0,0,7,,,,,,,,,11,,,,70,78
129846,note_on,61,0,8,,,,,,,,,12,,,,65,0
129846,note_on,0,0,8,,,,,,,,,12,,,,66,76
129949,note_on,170,0,6,,,,,,,,,10,,,,73,0
129951,note_on,109,0,7,,,,,,,,,11,,,,70,0
129955,note_on,109,0,8,,,,,,,,,12,,,,66,0
129959,control_change,10,0,6,,,,,,,,,10,11,45,,,
129960,set_tempo,120,1,0,,,,,,352941,,,,,,,,
129960,note_on,1,0,6,,,,,,,,,10,,,,73,75
129961,control_change,10,0,7,,,,,,,,,11,11,45,,,
129962,note_on,1,0,7,,,,,,,,,11,,,,71,75
129965,control_change,10,0,8,,,,,,,,,12,11,45,,,
129966,note_on,1,0,8,,,,,,,,,12,,,,65,73
129990,set_tempo,30,1,0,,,,,,296296,,,,,,,,
130054,note_on,94,0,6,,,,,,,,,10,,,,73,0
130056,note_on,94,0,7,,,,,,,,,11,,,,71,0
130075,note_on,109,0,8,,,,,,,,,12,,,,65,0
130080,set_tempo,90,1,0,,,,,,287770,,,,,,,,
130080,note_on,26,0,6,,,,,,,,,10,,,,73,83
130082,note_on,26,0,7,,,,,,,,,11,,,,71,83
130086,note_on,11,0,8,,,,,,,,,12,,,,65,72
130139,control_change,59,0,6,,,,,,,,,10,11,44,,,
130141,control_change,59,0,7,,,,,,,,,11,11,44,,,
130145,control_change,59,0,8,,,,,,,,,12,11,44,,,
130319,control_change,180,0,6,,,,,,,,,10,11,43,,,
130320,set_tempo,240,1,0,,,,,,283019,,,,,,,,
130321,control_change,180,0,7,,,,,,,,,11,11,43,,,
130322,note_on,0,0,7,,,,,,,,,11,,,,70,70
130322,note_on,1,0,7,,,,,,,,,11,,,,71,0
130325,control_change,180,0,8,,,,,,,,,12,11,43,,,
130326,note_on,1,0,8,,,,,,,,,12,,,,65,0
130326,note_on,0,0,8,,,,,,,,,12,,,,66,68
130429,note_on,110,0,6,,,,,,,,,10,,,,73,0
130431,note_on,109,0,7,,,,,,,,,11,,,,70,0
130435,note_on,109,0,8,,,,,,,,,12,,,,66,0
130440,note_on,11,0,6,,,,,,,,,10,,,,74,67
130440,set_tempo,120,1,0,,,,,,352941,,,,,,,,
130442,note_on,11,0,7,,,,,,,,,11,,,,68,67
130443,note_on,960,0,1,,,,,,,,,0,,,,83,97
130446,note_on,11,0,8,,,,,,,,,12,,,,65,65
130470,set_tempo,30,1,0,,,,,,315789,,,,,,,,
130499,control_change,59,0,6,,,,,,,,,10,11,42,,,
130501,control_change,59,0,7,,,,,,,,,11,11,42,,,
130505,control_change,59,0,8,,,,,,,,,12,11,42,,,
130534,note_on,35,0,6,,,,,,,,,10,,,,74,0
130536,note_on,35,0,7,,,,,,,,,11,,,,68,0
130555,note_on,50,0,8,,,,,,,,,12,,,,65,0
130560,set_tempo,90,1,0,,,,,,306905,,,,,,,,
130560,note_on,26,0,6,,,,,,,,,10,,,,74,74
130562,note_on,26,0,7,,,,,,,,,11,,,,68,74
130563,note_on,120,0,1,,,,,,,,,0,,,,83,0
130563,note_on,0,0,1,,,,,,,,,0,,,,83,97
130566,note_on,11,0,8,,,,,,,,,12,,,,65,64
130679,control_change,119,0,6,,,,,,,,,10,11,41,,,
130681,control_change,119,0,7,,,,,,,,,11,11,41,,,
130685,control_change,119,0,8,,,,,,,,,12,11,41,,,
130800,set_tempo,240,1,0,,,,,,299252,,,,,,,,
130800,note_on,121,0,6,,,,,,,,,10,,,,74,0
130800,note_on,0,0,6,,,,,,,,,10,,,,75,62
130802,note_on,121,0,7,,,,,,,,,11,,,,68,0
130802,note_on,0,0,7,,,,,,,,,11,,,,70,62
130803,note_on,240,0,1,,,,,,,,,0,,,,83,0
130803,note_on,0,0,1,,,,,,,,,0,,,,82,97
130806,note_on,0,0,8,,,,,,,,,12,,,,66,60
130806,note_on,121,0,8,,,,,,,,,12,,,,65,0
130859,control_change,59,0,6,,,,,,,,,10,11,40,,,
130861,control_change,59,0,7,,,,,,,,,11,11,40,,,
130865,control_change,59,0,8,,,,,,,,,12,11,40,,,
130909,note_on,50,0,6,,,,,,,,,10,,,,75,0
130911,note_on,50,0,7,,,,,,,,,11,,,,70,0
130915,note_on,50,0,8,,,,,,,,,12,,,,66,0
130920,set_tempo,120,1,0,,,,,,352941,,,,,,,,
130920,note_on,11,0,6,,,,,,,,,10,,,,74,61
130922,note_on,11,0,7,,,,,,,,,11,,,,68,61
130923,note_on,120,0,1,,,,,,,,,0,,,,82,0
130923,note_on,0,0,1,,,,,,,,,0,,,,83,97
130926,note_on,11,0,8,,,,,,,,,12,,,,65,59
130950,set_tempo,30,1,0,,,,,,315789,,,,,,,,
131014,note_on,94,0,6,,,,,,,,,10,,,,74,0
131016,note_on,94,0,7,,,,,,,,,11,,,,68,0
131035,note_on,109,0,8,,,,,,,,,12,,,,65,0
131039,control_change,25,0,6,,,,,,,,,10,11,39,,,
131040,set_tempo,90,1,0,,,,,,310881,,,,,,,,
131040,note_on,1,0,6,,,,,,,,,10,,,,74,58
131041,control_change,25,0,7,,,,,,,,,11,11,39,,,
131042,note_on,1,0,7,,,,,,,,,11,,,,68,58
131043,note_on,0,0,1,,,,,,,,,0,,,,83,97
131043,note_on,120,0,1,,,,,,,,,0,,,,83,0
131045,control_change,10,0,8,,,,,,,,,12,11,39,,,
131046,note_on,1,0,8,,,,,,,,,12,,,,65,56
131219,control_change,179,0,6,,,,,,,,,10,11,38,,,
131221,control_change,179,0,7,,,,,,,,,11,11,38,,,
131225,control_change,179,0,8,,,,,,,,,12,11,38,,,
131280,note_on,61,0,6,,,,,,,,,10,,,,74,0
131280,note_on,0,0,6,,,,,,,,,10,,,,75,55
131280,set_tempo,240,1,0,,,,,,318302,,,,,,,,
131282,note_on,0,0,7,,,,,,,,,11,,,,70,55
131282,note_on,61,0,7,,,,,,,,,11,,,,68,0
131283,note_on,240,0,1,,,,,,,,,0,,,,83,0
131283,note_on,0,0,1,,,,,,,,,0,,,,82,97
131286,note_on,0,0,8,,,,,,,,,12,,,,66,53
131286,note_on,61,0,8,,,,,,,,,12,,,,65,0
131389,note_on,109,0,6,,,,,,,,,10,,,,75,0
131391,note_on,109,0,7,,,,,,,,,11,,,,70,0
131395,note_on,109,0,8,,,,,,,,,12,,,,66,0
131400,note_on,0,0,6,,,,,,,,,10,,,,87,110
131400,set_tempo,120,1,0,,,,,,359281,,,,,,,,
131400,control_change,11,0,6,,,,,,,,,10,11,65,,,
131402,note_on,0,0,7,,,,,,,,,11,,,,82,110
131402,control_change,11,0,7,,,,,,,,,11,11,65,,,
131403,note_on,0,0,1,,,,,,,,,0,,,,87,97
131403,control_change,0,0,1,,,,,,,,,0,11,79,,,
131403,note_on,120,0,1,,,,,,,,,0,,,,82,0
131404,control_change,5765,0,4,,,,,,,,,4,11,79,,,
131404,note_on,0,0,4,,,,,,,,,4,,,,58,96
131405,control_change,1920,0,2,,,,,,,,,1,11,79,,,
131405,note_on,0,0,2,,,,,,,,,1,,,,78,97
131405,note_on,0,0,2,,,,,,,,,1,,,,82,97
131406,control_change,5765,0,5,,,,,,,,,5,11,79,,,
131406,note_on,0,0,5,,,,,,,,,5,,,,46,96
131406,note_on,0,0,8,,,,,,,,,12,,,,78,108
131406,control_change,11,0,8,,,,,,,,,12,11,65,,,
131410,control_change,2400,0,9,,,,,,,,,13,11,65,,,
131410,note_on,0,0,9,,,,,,,,,13,,,,46,99
131411,note_on,0,0,3,,,,,,,,,3,,,,46,97
131411,note_on,0,0,3,,,,,,,,,3,,,,58,97
131411,control_change,1920,0,3,,,,,,,,,3,11,79,,,
131412,control_change,2400,0,10,,,,,,,,,14,11,65,,,
131412,note_on,0,0,10,,,,,,,,,14,,,,34,93
131418,control_change,18,0,6,,,,,,,,,10,11,69,,,
131420,control_change,18,0,7,,,,,,,,,11,11,69,,,
131424,control_change,18,0,8,,,,,,,,,12,11,69,,,
131428,control_change,18,0,9,,,,,,,,,13,11,69,,,
131430,control_change,18,0,10,,,,,,,,,14,11,69,,,
131430,set_tempo,30,1,0,,,,,,331492,,,,,,,,
131436,control_change,18,0,6,,,,,,,,,10,11,73,,,
131438,control_change,18,0,7,,,,,,,,,11,11,73,,,
131442,control_change,18,0,8,,,,,,,,,12,11,73,,,
131446,control_change,18,0,9,,,,,,,,,13,11,73,,,
131448,control_change,18,0,10,,,,,,,,,14,11,73,,,
131454,control_change,18,0,6,,,,,,,,,10,11,77,,,
131456,control_change,18,0,7,,,,,,,,,11,11,77,,,
131460,control_change,18,0,8,,,,,,,,,12,11,77,,,
131464,control_change,18,0,9,,,,,,,,,13,11,77,,,
131466,control_change,18,0,10,,,,,,,,,14,11,77,,,
131484,note_on,30,0,6,,,,,,,,,10,,,,87,0
131486,note_on,30,0,7,,,,,,,,,11,,,,82,0
131499,note_on,95,0,4,,,,,,,,,4,,,,58,0
131500,note_on,95,0,2,,,,,,,,,1,,,,82,0
131500,note_on,0,0,2,,,,,,,,,1,,,,78,0
131501,note_on,95,0,5,,,,,,,,,5,,,,46,0
131505,note_on,45,0,8,,,,,,,,,12,,,,78,0
131506,note_on,0,0,3,,,,,,,,,3,,,,58,0
131506,note_on,95,0,3,,,,,,,,,3,,,,46,0
131509,note_on,45,0,9,,,,,,,,,13,,,,46,0
131511,note_on,45,0,10,,,,,,,,,14,,,,34,0
131518,note_on,115,0,1,,,,,,,,,0,,,,87,0
131520,note_on,36,0,6,,,,,,,,,10,,,,87,110
131520,set_tempo,90,1,0,,,,,,302267,,,,,,,,
131522,note_on,36,0,7,,,,,,,,,11,,,,80,110
131523,note_on,5,0,1,,,,,,,,,0,,,,87,97
131524,note_on,25,0,4,,,,,,,,,4,,,,58,96
131525,note_on,25,0,2,,,,,,,,,1,,,,80,97
131525,note_on,0,0,2,,,,,,,,,1,,,,77,97
131526,note_on,21,0,8,,,,,,,,,12,,,,77,108
131526,note_on,25,0,5,,,,,,,,,5,,,,46,96
131530,note_on,21,0,9,,,,,,,,,13,,,,46,99
131531,note_on,0,0,3,,,,,,,,,3,,,,46,97
131531,note_on,25,0,3,,,,,,,,,3,,,,58,97
131532,note_on,21,0,10,,,,,,,,,14,,,,34,93
131760,set_tempo,240,1,0,,,,,,287770,,,,,,,,
131760,note_on,240,0,6,,,,,,,,,10,,,,87,0
131760,note_on,0,0,6,,,,,,,,,10,,,,86,110
131763,note_on,0,0,1,,,,,,,,,0,,,,86,97
131763,note_on,240,0,1,,,,,,,,,0,,,,87,0
131859,note_on,99,0,6,,,,,,,,,10,,,,86,0
131871,note_on,349,0,7,,,,,,,,,11,,,,80,0
131875,note_on,349,0,8,,,,,,,,,12,,,,77,0
131878,note_on,115,0,1,,,,,,,,,0,,,,86,0
131879,note_on,355,0,4,,,,,,,,,4,,,,58,0
131879,note_on,349,0,9,,,,,,,,,13,,,,46,0
131880,control_change,21,0,6,,,,,,,,,10,11,65,,,
131880,note_on,355,0,2,,,,,,,,,1,,,,77,0
131880,note_on,0,0,2,,,,,,,,,1,,,,80,0
131880,set_tempo,120,1,0,,,,,,352941,,,,,,,,
131880,note_on,0,0,6,,,,,,,,,10,,,,83,110
131881,note_on,355,0,5,,,,,,,,,5,,,,46,0
131881,note_on,349,0,10,,,,,,,,,14,,,,34,0
131882,control_change,11,0,7,,,,,,,,,11,11,65,,,
131882,note_on,0,0,7,,,,,,,,,11,,,,78,110
131883,note_on,5,0,1,,,,,,,,,0,,,,83,97
131884,note_on,5,0,4,,,,,,,,,4,,,,58,96
131885,note_on,0,0,2,,,,,,,,,1,,,,78,97
131885,note_on,5,0,2,,,,,,,,,1,,,,75,97
131886,control_change,11,0,8,,,,,,,,,12,11,65,,,
131886,note_on,0,0,8,,,,,,,,,12,,,,75,108
131886,note_on,0,0,3,,,,,,,,,3,,,,58,0
131886,note_on,355,0,3,,,,,,,,,3,,,,46,0
131886,note_on,5,0,5,,,,,,,,,5,,,,46,96
131890,note_on,0,0,9,,,,,,,,,13,,,,46,99
131890,control_change,11,0,9,,,,,,,,,13,11,65,,,
131891,note_on,0,0,3,,,,,,,,,3,,,,58,97
131891,note_on,5,0,3,,,,,,,,,3,,,,46,97
131892,control_change,11,0,10,,,,,,,,,14,11,65,,,
131892,note_on,0,0,10,,,,,,,,,14,,,,34,93
131898,control_change,18,0,6,,,,,,,,,10,11,69,,,
131900,control_change,18,0,7,,,,,,,,,11,11,69,,,
131904,control_change,18,0,8,,,,,,,,,12,11,69,,,
131908,control_change,18,0,9,,,,,,,,,13,11,69,,,
131910,control_change,18,0,10,,,,,,,,,14,11,69,,,
131910,set_tempo,30,1,0,,,,,,304569,,,,,,,,
131916,control_change,18,0,6,,,,,,,,,10,11,73,,,
131918,control_change,18,0,7,,,,,,,,,11,11,73,,,
131922,control_change,18,0,8,,,,,,,,,12,11,73,,,
131926,control_change,18,0,9,,,,,,,,,13,11,73,,,
131928,control_change,18,0,10,,,,,,,,,14,11,73,,,
131934,control_change,18,0,6,,,,,,,,,10,11,77,,,
131936,control_change,18,0,7,,,,,,,,,11,11,77,,,
131940,control_change,18,0,8,,,,,,,,,12,11,77,,,
131944,control_change,18,0,9,,,,,,,,,13,11,77,,,
131946,control_change,18,0,10,,,,,,,,,14,11,77,,,
131964,note_on,30,0,6,,,,,,,,,10,,,,83,0
131966,note_on,30,0,7,,,,,,,,,11,,,,78,0
131979,note_on,95,0,4,,,,,,,,,4,,,,58,0
131980,note_on,95,0,2,,,,,,,,,1,,,,78,0
131980,note_on,0,0,2,,,,,,,,,1,,,,75,0
131981,note_on,95,0,5,,,,,,,,,5,,,,46,0
131985,note_on,45,0,8,,,,,,,,,12,,,,75,0
131986,note_on,95,0,3,,,,,,,,,3,,,,58,0
131986,note_on,0,0,3,,,,,,,,,3,,,,46,0
131989,note_on,45,0,9,,,,,,,,,13,,,,46,0
131991,note_on,45,0,10,,,,,,,,,14,,,,34,0
131998,note_on,115,0,1,,,,,,,,,0,,,,83,0
132000,note_on,36,0,6,,,,,,,,,10,,,,83,110
132000,set_tempo,90,1,0,,,,,,294118,,,,,,,,
132002,note_on,36,0,7,,,,,,,,,11,,,,77,110
132003,note_on,5,0,1,,,,,,,,,0,,,,83,97
132004,note_on,25,0,4,,,,,,,,,4,,,,58,96
132005,note_on,25,0,2,,,,,,,,,1,,,,77,97
132005,note_on,0,0,2,,,,,,,,,1,,,,74,97
132006,note_on,21,0,8,,,,,,,,,12,,,,74,108
132006,note_on,25,0,5,,,,,,,,,5,,,,46,96
132010,note_on,21,0,9,,,,,,,,,13,,,,46,99
132011,note_on,25,0,3,,,,,,,,,3,,,,46,97
132011,note_on,0,0,3,,,,,,,,,3,,,,58,97
132012,note_on,21,0,10,,,,,,,,,14,,,,34,93
132240,note_on,240,0,6,,,,,,,,,10,,,,83,0
132240,note_on,0,0,6,,,,,,,,,10,,,,82,110
132240,set_tempo,240,1,0,,,,,,285714,,,,,,,,
132243,note_on,240,0,1,,,,,,,,,0,,,,83,0
132243,note_on,0,0,1,,,,,,,,,0,,,,82,97
132339,note_on,99,0,6,,,,,,,,,10,,,,82,0
132351,note_on,349,0,7,,,,,,,,,11,,,,77,0
132355,note_on,349,0,8,,,,,,,,,12,,,,74,0
132358,note_on,115,0,1,,,,,,,,,0,,,,82,0
132359,note_on,349,0,9,,,,,,,,,13,,,,46,0
132359,note_on,355,0,4,,,,,,,,,4,,,,58,0
132360,set_tempo,120,1,0,,,,,,352941,,,,,,,,
132360,control_change,21,0,6,,,,,,,,,10,11,65,,,
132360,note_on,0,0,6,,,,,,,,,10,,,,80,110
132360,note_on,0,0,2,,,,,,,,,1,,,,77,0
132360,note_on,355,0,2,,,,,,,,,1,,,,74,0
132361,note_on,355,0,5,,,,,,,,,5,,,,46,0
132361,note_on,349,0,10,,,,,,,,,14,,,,34,0
132362,control_change,11,0,7,,,,,,,,,11,11,65,,,
132362,note_on,0,0,7,,,,,,,,,11,,,,75,110
132363,note_on,5,0,1,,,,,,,,,0,,,,80,97
132364,note_on,5,0,4,,,,,,,,,4,,,,58,96
132365,note_on,5,0,2,,,,,,,,,1,,,,75,97
132365,note_on,0,0,2,,,,,,,,,1,,,,71,97
132366,note_on,0,0,3,,,,,,,,,3,,,,46,0
132366,control_change,11,0,8,,,,,,,,,12,11,65,,,
132366,note_on,0,0,8,,,,,,,,,12,,,,71,108
132366,note_on,355,0,3,,,,,,,,,3,,,,58,0
132366,note_on,5,0,5,,,,,,,,,5,,,,46,96
132370,note_on,0,0,9,,,,,,,,,13,,,,46,99
132370,control_change,11,0,9,,,,,,,,,13,11,65,,,
132371,note_on,0,0,3,,,,,,,,,3,,,,58,97
132371,note_on,5,0,3,,,,,,,,,3,,,,46,97
132372,note_on,0,0,10,,,,,,,,,14,,,,34,93
132372,control_change,11,0,10,,,,,,,,,14,11,65,,,
132378,control_change,18,0,6,,,,,,,,,10,11,69,,,
132380,control_change,18,0,7,,,,,,,,,11,11,69,,,
132384,control_change,18,0,8,,,,,,,,,12,11,69,,,
132388,control_change,18,0,9,,,,,,,,,13,11,69,,,
132390,set_tempo,30,1,0,,,,,,301508,,,,,,,,
132390,control_change,18,0,10,,,,,,,,,14,11,69,,,
132396,control_change,18,0,6,,,,,,,,,10,11,73,,,
132398,control_change,18,0,7,,,,,,,,,11,11,73,,,
132402,control_change,18,0,8,,,,,,,,,12,11,73,,,
132406,control_change,18,0,9,,,,,,,,,13,11,73,,,
132408,control_change,18,0,10,,,,,,,,,14,11,73,,,
132414,control_change,18,0,6,,,,,,,,,10,11,77,,,
132416,control_change,18,0,7,,,,,,,,,11,11,77,,,
132420,control_change,18,0,8,,,,,,,,,12,11,77,,,
132424,control_change,18,0,9,,,,,,,,,13,11,77,,,
132426,control_change,18,0,10,,,,,,,,,14,11,77,,,
132444,note_on,30,0,6,,,,,,,,,10,,,,80,0
132446,note_on,30,0,7,,,,,,,,,11,,,,75,0
132459,note_on,95,0,4,,,,,,,,,4,,,,58,0
132460,note_on,0,0,2,,,,,,,,,1,,,,75,0
132460,note_on,95,0,2,,,,,,,,,1,,,,71,0
132461,note_on,95,0,5,,,,,,,,,5,,,,46,0
132465,note_on,45,0,8,,,,,,,,,12,,,,71,0
132466,note_on,95,0,3,,,,,,,,,3,,,,58,0
132466,note_on,0,0,3,,,,,,,,,3,,,,46,0
132469,note_on,45,0,9,,,,,,,,,13,,,,46,0
132471,note_on,45,0,10,,,,,,,,,14,,,,34,0
132478,note_on,115,0,1,,,,,,,,,0,,,,80,0
132480,set_tempo,90,1,0,,,,,,291971,,,,,,,,
132480,note_on,36,0,6,,,,,,,,,10,,,,80,110
132482,note_on,36,0,7,,,,,,,,,11,,,,74,110
132483,note_on,5,0,1,,,,,,,,,0,,,,80,97
132484,note_on,25,0,4,,,,,,,,,4,,,,58,96
132485,note_on,25,0,2,,,,,,,,,1,,,,74,97
132485,note_on,0,0,2,,,,,,,,,1,,,,70,97
132486,note_on,21,0,8,,,,,,,,,12,,,,70,108
132486,note_on,25,0,5,,,,,,,,,5,,,,46,96
132490,note_on,21,0,9,,,,,,,,,13,,,,46,99
132491,note_on,0,0,3,,,,,,,,,3,,,,46,97
132491,note_on,25,0,3,,,,,,,,,3,,,,58,97
132492,note_on,21,0,10,,,,,,,,,14,,,,34,93
132720,note_on,240,0,6,,,,,,,,,10,,,,80,0
132720,note_on,0,0,6,,,,,,,,,10,,,,78,110
132720,set_tempo,240,1,0,,,,,,282353,,,,,,,,
132723,note_on,0,0,1,,,,,,,,,0,,,,78,97
132723,note_on,240,0,1,,,,,,,,,0,,,,80,0
132819,note_on,99,0,6,,,,,,,,,10,,,,78,0
132831,note_on,349,0,7,,,,,,,,,11,,,,74,0
132835,note_on,349,0,8,,,,,,,,,12,,,,70,0
132838,note_on,115,0,1,,,,,,,,,0,,,,78,0
132839,note_on,355,0,4,,,,,,,,,4,,,,58,0
132839,note_on,349,0,9,,,,,,,,,13,,,,46,0
132840,note_on,355,0,2,,,,,,,,,1,,,,70,0
132840,note_on,0,0,2,,,,,,,,,1,,,,74,0
132840,control_change,21,0,6,,,,,,,,,10,11,65,,,
132840,note_on,0,0,6,,,,,,,,,10,,,,77,110
132840,set_tempo,120,1,0,,,,,,352941,,,,,,,,
132841,note_on,349,0,10,,,,,,,,,14,,,,34,0
132841,note_on,355,0,5,,,,,,,,,5,,,,46,0
132842,note_on,0,0,7,,,,,,,,,11,,,,71,110
132842,control_change,11,0,7,,,,,,,,,11,11,65,,,
132843,note_on,5,0,1,,,,,,,,,0,,,,77,97
132844,note_on,5,0,4,,,,,,,,,4,,,,58,96
132845,note_on,0,0,2,,,,,,,,,1,,,,71,97
132845,note_on,5,0,2,,,,,,,,,1,,,,68,97
132846,note_on,5,0,5,,,,,,,,,5,,,,46,96
132846,note_on,0,0,3,,,,,,,,,3,,,,58,0
132846,note_on,355,0,3,,,,,,,,,3,,,,46,0
132846,note_on,0,0,8,,,,,,,,,12,,,,68,108
132846,control_change,11,0,8,,,,,,,,,12,11,65,,,
132850,control_change,11,0,9,,,,,,,,,13,11,65,,,
132850,note_on,0,0,9,,,,,,,,,13,,,,46,99
132851,note_on,0,0,3,,,,,,,,,3,,,,46,97
132851,note_on,5,0,3,,,,,,,,,3,,,,58,97
132852,note_on,0,0,10,,,,,,,,,14,,,,34,93
132852,control_change,11,0,10,,,,,,,,,14,11,65,,,
132858,control_change,18,0,6,,,,,,,,,10,11,69,,,
132860,control_change,18,0,7,,,,,,,,,11,11,69,,,
132864,control_change,18,0,8,,,,,,,,,12,11,69,,,
132868,control_change,18,0,9,,,,,,,,,13,11,69,,,
132870,set_tempo,30,1,0,,,,,,296296,,,,,,,,
132870,control_change,18,0,10,,,,,,,,,14,11,69,,,
132876,control_change,18,0,6,,,,,,,,,10,11,73,,,
132878,control_change,18,0,7,,,,,,,,,11,11,73,,,
132882,control_change,18,0,8,,,,,,,,,12,11,73,,,
132886,control_change,18,0,9,,,,,,,,,13,11,73,,,
132888,control_change,18,0,10,,,,,,,,,14,11,73,,,
132894,control_change,18,0,6,,,,,,,,,10,11,77,,,
132896,control_change,18,0,7,,,,,,,,,11,11,77,,,
132900,control_change,18,0,8,,,,,,,,,12,11,77,,,
132904,control_change,18,0,9,,,,,,,,,13,11,77,,,
132906,control_change,18,0,10,,,,,,,,,14,11,77,,,
132924,note_on,30,0,6,,,,,,,,,10,,,,77,0
132926,note_on,30,0,7,,,,,,,,,11,,,,71,0
132939,note_on,95,0,4,,,,,,,,,4,,,,58,0
132940,note_on,0,0,2,,,,,,,,,1,,,,68,0
132940,note_on,95,0,2,,,,,,,,,1,,,,71,0
132941,note_on,95,0,5,,,,,,,,,5,,,,46,0
132945,note_on,45,0,8,,,,,,,,,12,,,,68,0
132946,note_on,0,0,3,,,,,,,,,3,,,,58,0
132946,note_on,95,0,3,,,,,,,,,3,,,,46,0
132949,note_on,45,0,9,,,,,,,,,13,,,,46,0
132951,note_on,45,0,10,,,,,,,,,14,,,,34,0
132958,note_on,115,0,1,,,,,,,,,0,,,,77,0
132960,note_on,36,0,6,,,,,,,,,10,,,,77,110
132960,set_tempo,90,1,0,,,,,,291262,,,,,,,,
132962,note_on,36,0,7,,,,,,,,,11,,,,74,110
132963,note_on,5,0,1,,,,,,,,,0,,,,77,97
132964,note_on,25,0,4,,,,,,,,,4,,,,58,96
132965,note_on,25,0,2,,,,,,,,,1,,,,68,97
132965,note_on,0,0,2,,,,,,,,,1,,,,74,97
132966,note_on,25,0,5,,,,,,,,,5,,,,46,96
132966,note_on,21,0,8,,,,,,,,,12,,,,68,108
132970,note_on,21,0,9,,,,,,,,,13,,,,46,99
132971,note_on,0,0,3,,,,,,,,,3,,,,46,97
132971,note_on,25,0,3,,,,,,,,,3,,,,58,97
132972,note_on,21,0,10,,,,,,,,,14,,,,34,93
133200,note_on,235,0,2,,,,,,,,,1,,,,74,0
133200,note_on,0,0,2,,,,,,,,,1,,,,68,0
133200,note_on,240,0,6,,,,,,,,,10,,,,77,0
133200,note_on,0,0,6,,,,,,,,,10,,,,75,110
133200,set_tempo,240,1,0,,,,,,283688,,,,,,,,
133202,note_on,0,0,7,,,,,,,,,11,,,,75,110
133202,note_on,240,0,7,,,,,,,,,11,,,,74,0
133203,note_on,0,0,1,,,,,,,,,0,,,,75,97
133203,note_on,240,0,1,,,,,,,,,0,,,,77,0
133205,note_on,5,0,2,,,,,,,,,1,,,,75,97
133205,note_on,0,0,2,,,,,,,,,1,,,,66,97
133206,note_on,0,0,8,,,,,,,,,12,,,,66,108
133206,note_on,240,0,8,,,,,,,,,12,,,,68,0
133260,control_change,60,0,6,,,,,,,,,10,11,79,,,
133260,set_tempo,60,1,0,,,,,,436364,,,,,,,,
133262,control_change,60,0,7,,,,,,,,,11,11,79,,,
133266,control_change,60,0,8,,,,,,,,,12,11,79,,,
133270,control_change,300,0,9,,,,,,,,,13,11,79,,,
133272,control_change,300,0,10,,,,,,,,,14,11,79,,,
133274,control_change,14,0,6,,,,,,,,,10,11,75,,,
133276,control_change,14,0,7,,,,,,,,,11,11,75,,,
133280,control_change,14,0,8,,,,,,,,,12,11,75,,,
133284,control_change,14,0,9,,,,,,,,,13,11,75,,,
133286,control_change,14,0,10,,,,,,,,,14,11,75,,,
133292,control_change,18,0,6,,,,,,,,,10,11,71,,,
133294,control_change,18,0,7,,,,,,,,,11,11,71,,,
133298,control_change,18,0,8,,,,,,,,,12,11,71,,,
133299,note_on,7,0,6,,,,,,,,,10,,,,75,0
133300,control_change,1,0,6,,,,,,,,,10,11,68,,,
133301,note_on,7,0,7,,,,,,,,,11,,,,75,0
133302,control_change,1,0,7,,,,,,,,,11,11,68,,,
133302,control_change,18,0,9,,,,,,,,,13,11,71,,,
133304,control_change,18,0,10,,,,,,,,,14,11,71,,,
133305,note_on,7,0,8,,,,,,,,,12,,,,66,0
133306,control_change,1,0,8,,,,,,,,,12,11,68,,,
133310,control_change,8,0,9,,,,,,,,,13,11,68,,,
133312,control_change,8,0,10,,,,,,,,,14,11,68,,,
133315,control_change,15,0,6,,,,,,,,,10,11,64,,,
133317,control_change,15,0,7,,,,,,,,,11,11,64,,,
133318,control_change,3,0,6,,,,,,,,,10,11,61,,,
133318,note_on,115,0,1,,,,,,,,,0,,,,75,0
133319,note_on,9,0,9,,,,,,,,,13,,,,46,0
133319,note_on,355,0,4,,,,,,,,,4,,,,58,0
133320,note_on,0,0,2,,,,,,,,,1,,,,75,0
133320,set_tempo,60,1,0,,,,,,288462,,,,,,,,
133320,note_on,2,0,6,,,,,,,,,10,,,,75,120
133320,control_change,3,0,7,,,,,,,,,11,11,61,,,
133320,note_on,115,0,2,,,,,,,,,1,,,,66,0
133321,control_change,15,0,8,,,,,,,,,12,11,64,,,
133321,note_on,9,0,10,,,,,,,,,14,,,,34,0
133321,note_on,355,0,5,,,,,,,,,5,,,,46,0
133321,control_change,1,0,6,,,,,,,,,10,11,57,,,
133322,note_on,2,0,7,,,,,,,,,11,,,,66,120
133323,control_change,1,0,7,,,,,,,,,11,11,57,,,
133324,control_change,3,0,6,,,,,,,,,10,11,53,,,
133324,control_change,3,0,8,,,,,,,,,12,11,61,,,
133325,control_change,6,0,9,,,,,,,,,13,11,64,,,
133326,note_on,0,0,3,,,,,,,,,3,,,,58,0
133326,note_on,355,0,3,,,,,,,,,3,,,,46,0
133326,control_change,3,0,7,,,,,,,,,11,11,53,,,
133326,note_on,2,0,8,,,,,,,,,12,,,,63,118
133327,control_change,6,0,10,,,,,,,,,14,11,64,,,
133327,control_change,1,0,8,,,,,,,,,12,11,57,,,
133327,control_change,3,0,6,,,,,,,,,10,11,49,,,
133328,control_change,3,0,9,,,,,,,,,13,11,61,,,
133329,control_change,3,0,7,,,,,,,,,11,11,49,,,
133330,note_on,2,0,9,,,,,,,,,13,,,,46,109
133330,control_change,3,0,8,,,,,,,,,12,11,53,,,
133330,control_change,3,0,10,,,,,,,,,14,11,61,,,
133331,control_change,1,0,9,,,,,,,,,13,11,57,,,
133332,note_on,2,0,10,,,,,,,,,14,,,,34,103
133333,control_change,1,0,10,,,,,,,,,14,11,57,,,
133333,control_change,3,0,8,,,,,,,,,12,11,49,,,
133334,control_change,3,0,9,,,,,,,,,13,11,53,,,
133336,control_change,3,0,10,,,,,,,,,14,11,53,,,
133337,control_change,3,0,9,,,,,,,,,13,11,49,,,
133339,control_change,3,0,10,,,,,,,,,14,11,49,,,
133404,note_on,77,0,6,,,,,,,,,10,,,,75,0
133406,note_on,77,0,7,,,,,,,,,11,,,,66,0
133425,note_on,92,0,8,,,,,,,,,12,,,,63,0
133429,note_on,92,0,9,,,,,,,,,13,,,,46,0
133431,note_on,92,0,10,,,,,,,,,14,,,,34,0
133440,note_on,36,0,6,,,,,,,,,10,,,,75,110
133440,set_tempo,120,1,0,,,,,,289157,,,,,,,,
133442,note_on,36,0,7,,,,,,,,,11,,,,66,110
133446,note_on,21,0,8,,,,,,,,,12,,,,63,108
133450,note_on,21,0,9,,,,,,,,,13,,,,47,99
133452,note_on,21,0,10,,,,,,,,,14,,,,35,93
133680,note_on,0,0,6,,,,,,,,,10,,,,73,110
133680,note_on,240,0,6,,,,,,,,,10,,,,75,0
133680,set_tempo,240,1,0,,,,,,282353,,,,,,,,
133784,note_on,104,0,6,,,,,,,,,10,,,,73,0
133800,set_tempo,120,1,0,,,,,,352941,,,,,,,,
133800,note_on,16,0,6,,,,,,,,,10,,,,71,110
133830,set_tempo,30,1,0,,,,,,296296,,,,,,,,
133889,note_on,89,0,6,,,,,,,,,10,,,,71,0
133920,note_on,31,0,6,,,,,,,,,10,,,,71,125
133920,set_tempo,90,1,0,,,,,,289157,,,,,,,,
134160,set_tempo,240,1,0,,,,,,282353,,,,,,,,
134160,note_on,0,0,6,,,,,,,,,10,,,,70,110
134160,note_on,240,0,6,,,,,,,,,10,,,,71,0
134264,note_on,104,0,6,,,,,,,,,10,,,,70,0
134277,note_on,835,0,7,,,,,,,,,11,,,,66,0
134280,note_on,16,0,6,,,,,,,,,10,,,,69,110
134280,set_tempo,120,1,0,,,,,,352941,,,,,,,,
134281,note_on,835,0,8,,,,,,,,,12,,,,63,0
134282,note_on,5,0,7,,,,,,,,,11,,,,63,110
134286,note_on,5,0,8,,,,,,,,,12,,,,51,108
134310,set_tempo,30,1,0,,,,,,296296,,,,,,,,
134369,note_on,89,0,6,,,,,,,,,10,,,,69,0
134371,note_on,89,0,7,,,,,,,,,11,,,,63,0
134390,note_on,104,0,8,,,,,,,,,12,,,,51,0
134400,set_tempo,90,1,0,,,,,,289157,,,,,,,,
134400,note_on,31,0,6,,,,,,,,,10,,,,69,125
134402,note_on,31,0,7,,,,,,,,,11,,,,63,125
134405,note_on,955,0,9,,,,,,,,,13,,,,47,0
134406,note_on,16,0,8,,,,,,,,,12,,,,51,108
134407,note_on,955,0,10,,,,,,,,,14,,,,35,0
134410,note_on,5,0,9,,,,,,,,,13,,,,47,99
134412,note_on,5,0,10,,,,,,,,,14,,,,35,93
134640,note_on,0,0,6,,,,,,,,,10,,,,70,88
134640,note_on,240,0,6,,,,,,,,,10,,,,69,0
134640,set_tempo,240,1,0,,,,,,282353,,,,,,,,
134642,note_on,0,0,7,,,,,,,,,11,,,,62,88
134642,note_on,240,0,7,,,,,,,,,11,,,,63,0
134646,note_on,240,0,8,,,,,,,,,12,,,,51,0
134646,note_on,0,0,8,,,,,,,,,12,,,,53,86
134650,note_on,0,0,9,,,,,,,,,13,,,,46,77
134650,note_on,240,0,9,,,,,,,,,13,,,,47,0
134652,note_on,240,0,10,,,,,,,,,14,,,,35,0
134652,note_on,0,0,10,,,,,,,,,14,,,,34,71
134760,note_on,120,0,6,,,,,,,,,10,,,,70,0
134760,set_tempo,120,1,0,,,,,,352941,,,,,,,,
134762,note_on,120,0,7,,,,,,,,,11,,,,62,0
134763,note_on,0,0,1,,,,,,,,,0,,,,82,88
134763,control_change,1445,0,1,,,,,,,,,0,11,37,,,
134765,note_on,0,0,2,,,,,,,,,1,,,,65,88
134765,note_on,0,0,2,,,,,,,,,1,,,,74,88
134765,control_change,1445,0,2,,,,,,,,,1,11,37,,,
134766,note_on,120,0,8,,,,,,,,,12,,,,53,0
134770,note_on,120,0,9,,,,,,,,,13,,,,46,0
134771,note_on,0,0,3,,,,,,,,,3,,,,58,88
134771,control_change,1445,0,3,,,,,,,,,3,11,37,,,
134772,note_on,120,0,10,,,,,,,,,14,,,,34,0
134781,control_change,18,0,1,,,,,,,,,0,11,40,,,
134783,control_change,18,0,2,,,,,,,,,1,11,40,,,
134789,control_change,18,0,3,,,,,,,,,3,11,40,,,
134790,set_tempo,30,1,0,,,,,,308483,,,,,,,,
134799,control_change,18,0,1,,,,,,,,,0,11,43,,,
134801,control_change,18,0,2,,,,,,,,,1,11,43,,,
134807,control_change,18,0,3,,,,,,,,,3,11,43,,,
134817,control_change,18,0,1,,,,,,,,,0,11,46,,,
134819,control_change,18,0,2,,,,,,,,,1,11,46,,,
134825,control_change,18,0,3,,,,,,,,,3,11,46,,,
134858,note_on,41,0,1,,,,,,,,,0,,,,82,0
134860,note_on,0,0,2,,,,,,,,,1,,,,74,0
134860,note_on,41,0,2,,,,,,,,,1,,,,65,0
134871,note_on,46,0,3,,,,,,,,,3,,,,58,0
134880,set_tempo,90,1,0,,,,,,289157,,,,,,,,
134883,note_on,25,0,1,,,,,,,,,0,,,,82,97
134885,note_on,25,0,2,,,,,,,,,1,,,,65,97
134885,note_on,0,0,2,,,,,,,,,1,,,,74,97
134891,note_on,20,0,3,,,,,,,,,3,,,,58,97
135120,set_tempo,240,1,0,,,,,,282353,,,,,,,,
135123,note_on,0,0,1,,,,,,,,,0,,,,81,97
135123,note_on,240,0,1,,,,,,,,,0,,,,82,0
135125,note_on,0,0,2,,,,,,,,,1,,,,63,97
135125,note_on,240,0,2,,,,,,,,,1,,,,74,0
135125,note_on,0,0,2,,,,,,,,,1,,,,65,0
135125,note_on,0,0,2,,,,,,,,,1,,,,75,97
135131,note_on,240,0,3,,,,,,,,,3,,,,58,0
135131,note_on,0,0,3,,,,,,,,,3,,,,59,97
135240,note_on,0,0,6,,,,,,,,,10,,,,69,110
135240,set_tempo,120,1,0,,,,,,352941,,,,,,,,
135240,control_change,480,0,6,,,,,,,,,10,11,37,,,
135242,note_on,0,0,7,,,,,,,,,11,,,,63,110
135242,control_change,480,0,7,,,,,,,,,11,11,37,,,
135243,note_on,120,0,1,,,,,,,,,0,,,,81,0
135245,note_on,120,0,2,,,,,,,,,1,,,,63,0
135245,note_on,0,0,2,,,,,,,,,1,,,,75,0
135246,note_on,0,0,8,,,,,,,,,12,,,,51,108
135246,control_change,480,0,8,,,,,,,,,12,11,37,,,
135250,control_change,480,0,9,,,,,,,,,13,11,37,,,
135250,note_on,0,0,9,,,,,,,,,13,,,,47,99
135251,note_on,120,0,3,,,,,,,,,3,,,,59,0
135252,control_change,480,0,10,,,,,,,,,14,11,37,,,
135252,note_on,0,0,10,,,,,,,,,14,,,,35,93
135270,set_tempo,30,1,0,,,,,,296296,,,,,,,,
135329,note_on,89,0,6,,,,,,,,,10,,,,69,0
135331,note_on,89,0,7,,,,,,,,,11,,,,63,0
135350,note_on,104,0,8,,,,,,,,,12,,,,51,0
135354,note_on,104,0,9,,,,,,,,,13,,,,47,0
135356,note_on,104,0,10,,,,,,,,,14,,,,35,0
135360,set_tempo,90,1,0,,,,,,289157,,,,,,,,
135360,note_on,31,0,6,,,,,,,,,10,,,,69,125
135362,note_on,31,0,7,,,,,,,,,11,,,,63,125
135366,note_on,16,0,8,,,,,,,,,12,,,,51,108
135370,note_on,16,0,9,,,,,,,,,13,,,,47,99
135372,note_on,16,0,10,,,,,,,,,14,,,,35,93
135600,note_on,0,0,6,,,,,,,,,10,,,,70,88
135600,set_tempo,240,1,0,,,,,,282353,,,,,,,,
135600,note_on,240,0,6,,,,,,,,,10,,,,69,0
135602,note_on,240,0,7,,,,,,,,,11,,,,63,0
135602,note_on,0,0,7,,,,,,,,,11,,,,62,88
135606,note_on,240,0,8,,,,,,,,,12,,,,51,0
135606,note_on,0,0,8,,,,,,,,,12,,,,53,86
135610,note_on,0,0,9,,,,,,,,,13,,,,46,77
135610,note_on,240,0,9,,,,,,,,,13,,,,47,0
135612,note_on,0,0,10,,,,,,,,,14,,,,34,71
135612,note_on,240,0,10,,,,,,,,,14,,,,35,0
135720,note_on,120,0,6,,,,,,,,,10,,,,70,0
135720,set_tempo,120,1,0,,,,,,352941,,,,,,,,
135722,note_on,120,0,7,,,,,,,,,11,,,,62,0
135723,control_change,480,0,1,,,,,,,,,0,11,37,,,
135723,note_on,0,0,1,,,,,,,,,0,,,,82,88
135725,control_change,480,0,2,,,,,,,,,1,11,37,,,
135725,note_on,0,0,2,,,,,,,,,1,,,,74,88
135725,note_on,0,0,2,,,,,,,,,1,,,,65,88
135726,note_on,120,0,8,,,,,,,,,12,,,,53,0
135730,note_on,120,0,9,,,,,,,,,13,,,,46,0
135731,note_on,0,0,3,,,,,,,,,3,,,,58,88
135731,control_change,480,0,3,,,,,,,,,3,11,37,,,
135732,note_on,120,0,10,,,,,,,,,14,,,,34,0
135750,set_tempo,30,1,0,,,,,,311688,,,,,,,,
135818,note_on,95,0,1,,,,,,,,,0,,,,82,0
135820,note_on,0,0,2,,,,,,,,,1,,,,74,0
135820,note_on,95,0,2,,,,,,,,,1,,,,65,0
135831,note_on,100,0,3,,,,,,,,,3,,,,58,0
135840,set_tempo,90,1,0,,,,,,289157,,,,,,,,
135843,note_on,25,0,1,,,,,,,,,0,,,,82,97
135845,note_on,0,0,2,,,,,,,,,1,,,,74,97
135845,note_on,25,0,2,,,,,,,,,1,,,,65,97
135851,note_on,20,0,3,,,,,,,,,3,,,,58,97
136080,set_tempo,240,1,0,,,,,,282353,,,,,,,,
136083,note_on,240,0,1,,,,,,,,,0,,,,82,0
136083,note_on,0,0,1,,,,,,,,,0,,,,81,97
136085,note_on,0,0,2,,,,,,,,,1,,,,75,97
136085,note_on,0,0,2,,,,,,,,,1,,,,65,0
136085,note_on,240,0,2,,,,,,,,,1,,,,74,0
136085,note_on,0,0,2,,,,,,,,,1,,,,63,97
136091,note_on,0,0,3,,,,,,,,,3,,,,59,97
136091,note_on,240,0,3,,,,,,,,,3,,,,58,0
136200,note_on,480,0,6,,,,,,,,,10,,,,69,110
136200,set_tempo,120,1,0,,,,,,352941,,,,,,,,
136202,note_on,480,0,7,,,,,,,,,11,,,,63,110
136203,note_on,120,0,1,,,,,,,,,0,,,,81,0
136205,note_on,120,0,2,,,,,,,,,1,,,,63,0
136205,note_on,0,0,2,,,,,,,,,1,,,,75,0
136206,note_on,480,0,8,,,,,,,,,12,,,,51,108
136210,note_on,480,0,9,,,,,,,,,13,,,,47,99
136211,note_on,120,0,3,,,,,,,,,3,,,,59,0
136212,note_on,480,0,10,,,,,,,,,14,,,,35,93
136230,set_tempo,30,1,0,,,,,,296296,,,,,,,,
136289,note_on,89,0,6,,,,,,,,,10,,,,69,0
136291,note_on,89,0,7,,,,,,,,,11,,,,63,0
136310,note_on,104,0,8,,,,,,,,,12,,,,51,0
136314,note_on,104,0,9,,,,,,,,,13,,,,47,0
136316,note_on,104,0,10,,,,,,,,,14,,,,35,0
136320,control_change,31,0,6,,,,,,,,,10,11,52,,,
136320,note_on,0,0,6,,,,,,,,,10,,,,69,110
136320,set_tempo,90,1,0,,,,,,291262,,,,,,,,
136322,note_on,0,0,7,,,,,,,,,11,,,,63,110
136322,control_change,31,0,7,,,,,,,,,11,11,52,,,
136326,note_on,0,0,8,,,,,,,,,12,,,,51,108
136326,control_change,16,0,8,,,,,,,,,12,11,52,,,
136330,control_change,16,0,9,,,,,,,,,13,11,52,,,
136330,note_on,0,0,9,,,,,,,,,13,,,,47,99
136332,control_change,16,0,10,,,,,,,,,14,11,52,,,
136332,note_on,0,0,10,,,,,,,,,14,,,,35,93
136348,control_change,28,0,6,,,,,,,,,10,11,54,,,
136350,control_change,28,0,7,,,,,,,,,11,11,54,,,
136354,control_change,28,0,8,,,,,,,,,12,11,54,,,
136358,control_change,28,0,9,,,,,,,,,13,11,54,,,
136360,control_change,28,0,10,,,,,,,,,14,11,54,,,
136363,control_change,15,0,6,,,,,,,,,10,11,55,,,
136365,control_change,15,0,7,,,,,,,,,11,11,55,,,
136369,control_change,15,0,8,,,,,,,,,12,11,55,,,
136373,control_change,15,0,9,,,,,,,,,13,11,55,,,
136375,control_change,15,0,10,,,,,,,,,14,11,55,,,
136392,control_change,29,0,6,,,,,,,,,10,11,57,,,
136394,control_change,29,0,7,,,,,,,,,11,11,57,,,
136398,control_change,29,0,8,,,,,,,,,12,11,57,,,
136402,control_change,29,0,9,,,,,,,,,13,11,57,,,
136404,control_change,29,0,10,,,,,,,,,14,11,57,,,
136408,control_change,16,0,6,,,,,,,,,10,11,55,,,
136410,control_change,16,0,7,,,,,,,,,11,11,55,,,
136414,control_change,16,0,8,,,,,,,,,12,11,55,,,
136418,control_change,16,0,9,,,,,,,,,13,11,55,,,
136420,control_change,16,0,10,,,,,,,,,14,11,55,,,
136425,control_change,17,0,6,,,,,,,,,10,11,53,,,
136427,control_change,17,0,7,,,,,,,,,11,11,53,,,
136431,control_change,17,0,8,,,,,,,,,12,11,53,,,
136435,control_change,17,0,9,,,,,,,,,13,11,53,,,
136437,control_change,17,0,10,,,,,,,,,14,11,53,,,
136442,control_change,17,0,6,,,,,,,,,10,11,51,,,
136444,control_change,17,0,7,,,,,,,,,11,11,51,,,
136448,control_change,17,0,8,,,,,,,,,12,11,51,,,
136452,control_change,17,0,9,,,,,,,,,13,11,51,,,
136454,control_change,17,0,10,,,,,,,,,14,11,51,,,
136459,control_change,17,0,6,,,,,,,,,10,11,49,,,
136461,control_change,17,0,7,,,,,,,,,11,11,49,,,
136465,control_change,17,0,8,,,,,,,,,12,11,49,,,
136469,control_change,17,0,9,,,,,,,,,13,11,49,,,
136471,control_change,17,0,10,,,,,,,,,14,11,49,,,
136476,control_change,17,0,6,,,,,,,,,10,11,47,,,
136478,control_change,17,0,7,,,,,,,,,11,11,47,,,
136482,control_change,17,0,8,,,,,,,,,12,11,47,,,
136486,control_change,17,0,9,,,,,,,,,13,11,47,,,
136488,control_change,17,0,10,,,,,,,,,14,11,47,,,
136492,control_change,16,0,6,,,,,,,,,10,11,45,,,
136494,control_change,16,0,7,,,,,,,,,11,11,45,,,
136498,control_change,16,0,8,,,,,,,,,12,11,45,,,
136502,control_change,16,0,9,,,,,,,,,13,11,45,,,
136504,control_change,16,0,10,,,,,,,,,14,11,45,,,
136509,control_change,17,0,6,,,,,,,,,10,11,43,,,
136511,control_change,17,0,7,,,,,,,,,11,11,43,,,
136515,control_change,17,0,8,,,,,,,,,12,11,43,,,
136519,control_change,17,0,9,,,,,,,,,13,11,43,,,
136521,control_change,17,0,10,,,,,,,,,14,11,43,,,
136526,control_change,17,0,6,,,,,,,,,10,11,41,,,
136528,control_change,17,0,7,,,,,,,,,11,11,41,,,
136532,control_change,17,0,8,,,,,,,,,12,11,41,,,
136536,control_change,17,0,9,,,,,,,,,13,11,41,,,
136538,control_change,17,0,10,,,,,,,,,14,11,41,,,
136543,control_change,17,0,6,,,,,,,,,10,11,39,,,
136545,control_change,17,0,7,,,,,,,,,11,11,39,,,
136549,control_change,17,0,8,,,,,,,,,12,11,39,,,
136553,control_change,17,0,9,,,,,,,,,13,11,39,,,
136555,control_change,17,0,10,,,,,,,,,14,11,39,,,
136560,control_change,17,0,6,,,,,,,,,10,11,37,,,
136560,set_tempo,240,1,0,,,,,,283688,,,,,,,,
136562,control_change,17,0,7,,,,,,,,,11,11,37,,,
136566,control_change,17,0,8,,,,,,,,,12,11,37,,,
136570,control_change,17,0,9,,,,,,,,,13,11,37,,,
136572,control_change,17,0,10,,,,,,,,,14,11,37,,,
136680,set_tempo,120,1,0,,,,,,316623,,,,,,,,
136683,control_change,480,0,1,,,,,,,,,0,11,37,,,
136683,note_on,0,0,1,,,,,,,,,0,,,,87,97
136685,control_change,480,0,2,,,,,,,,,1,11,37,,,
136685,note_on,0,0,2,,,,,,,,,1,,,,75,97
136691,control_change,480,0,3,,,,,,,,,3,11,37,,,
136691,note_on,0,0,3,,,,,,,,,3,,,,59,97
136719,control_change,36,0,1,,,,,,,,,0,11,38,,,
136721,control_change,36,0,2,,,,,,,,,1,11,38,,,
136727,control_change,36,0,3,,,,,,,,,3,11,38,,,
136755,control_change,36,0,1,,,,,,,,,0,11,39,,,
136757,control_change,36,0,2,,,,,,,,,1,11,39,,,
136763,control_change,36,0,3,,,,,,,,,3,11,39,,,
136783,note_on,28,0,1,,,,,,,,,0,,,,87,0
136785,note_on,28,0,2,,,,,,,,,1,,,,75,0
136791,control_change,8,0,1,,,,,,,,,0,11,40,,,
136791,note_on,28,0,3,,,,,,,,,3,,,,59,0
136793,control_change,8,0,2,,,,,,,,,1,11,40,,,
136799,control_change,8,0,3,,,,,,,,,3,11,40,,,
136800,set_tempo,120,1,0,,,,,,299252,,,,,,,,
136803,note_on,12,0,1,,,,,,,,,0,,,,90,110
136805,note_on,12,0,2,,,,,,,,,1,,,,78,110
136811,note_on,12,0,3,,,,,,,,,3,,,,63,110
136827,control_change,24,0,1,,,,,,,,,0,11,41,,,
136829,control_change,24,0,2,,,,,,,,,1,11,41,,,
136835,control_change,24,0,3,,,,,,,,,3,11,41,,,
136863,control_change,36,0,1,,,,,,,,,0,11,42,,,
136865,control_change,36,0,2,,,,,,,,,1,11,42,,,
136871,control_change,36,0,3,,,,,,,,,3,11,42,,,
136899,control_change,36,0,1,,,,,,,,,0,11,43,,,
136901,control_change,36,0,2,,,,,,,,,1,11,43,,,
136907,control_change,36,0,3,,,,,,,,,3,11,43,,,
136935,control_change,36,0,1,,,,,,,,,0,11,44,,,
136937,control_change,36,0,2,,,,,,,,,1,11,44,,,
136943,control_change,36,0,3,,,,,,,,,3,11,44,,,
136971,control_change,36,0,1,,,,,,,,,0,11,45,,,
136973,control_change,36,0,2,,,,,,,,,1,11,45,,,
136979,control_change,36,0,3,,,,,,,,,3,11,45,,,
137007,control_change,36,0,1,,,,,,,,,0,11,46,,,
137009,control_change,36,0,2,,,,,,,,,1,11,46,,,
137015,control_change,36,0,3,,,,,,,,,3,11,46,,,
137040,set_tempo,240,1,0,,,,,,289855,,,,,,,,
137043,control_change,0,0,1,,,,,,,,,0,11,47,,,
137043,note_on,36,0,1,,,,,,,,,0,,,,90,0
137043,note_on,0,0,1,,,,,,,,,0,,,,89,97
137045,note_on,0,0,2,,,,,,,,,1,,,,77,97
137045,note_on,36,0,2,,,,,,,,,1,,,,78,0
137045,control_change,0,0,2,,,,,,,,,1,11,47,,,
137051,control_change,0,0,3,,,,,,,,,3,11,47,,,
137051,note_on,0,0,3,,,,,,,,,3,,,,65,97
137051,note_on,36,0,3,,,,,,,,,3,,,,63,0
137163,note_on,120,0,1,,,,,,,,,0,,,,89,0
137163,note_on,0,0,1,,,,,,,,,0,,,,87,97
137165,note_on,120,0,2,,,,,,,,,1,,,,77,0
137165,note_on,0,0,2,,,,,,,,,1,,,,75,97
137171,note_on,120,0,3,,,,,,,,,3,,,,65,0
137171,note_on,0,0,3,,,,,,,,,3,,,,66,97
137275,note_on,715,0,6,,,,,,,,,10,,,,69,0
137277,note_on,715,0,7,,,,,,,,,11,,,,63,0
137280,set_tempo,240,1,0,,,,,,304569,,,,,,,,
137280,note_on,5,0,6,,,,,,,,,10,,,,70,88
137281,note_on,715,0,8,,,,,,,,,12,,,,51,0
137282,note_on,5,0,7,,,,,,,,,11,,,,62,88
137283,note_on,120,0,1,,,,,,,,,0,,,,87,0
137283,note_on,0,0,1,,,,,,,,,0,,,,86,97
137283,control_change,0,0,1,,,,,,,,,0,11,47,,,
137284,control_change,3965,0,4,,,,,,,,,4,11,37,,,
137284,note_on,0,0,4,,,,,,,,,4,,,,58,96
137285,note_on,0,0,2,,,,,,,,,1,,,,70,97
137285,control_change,0,0,2,,,,,,,,,1,11,47,,,
137285,note_on,0,0,2,,,,,,,,,1,,,,74,97
137285,note_on,120,0,2,,,,,,,,,1,,,,75,0
137285,note_on,715,0,9,,,,,,,,,13,,,,47,0
137286,note_on,5,0,8,,,,,,,,,12,,,,53,86
137286,note_on,0,0,5,,,,,,,,,5,,,,46,96
137286,control_change,3965,0,5,,,,,,,,,5,11,37,,,
137287,note_on,715,0,10,,,,,,,,,14,,,,35,0
137290,note_on,5,0,9,,,,,,,,,13,,,,46,77
137291,note_on,120,0,3,,,,,,,,,3,,,,66,0
137291,control_change,0,0,3,,,,,,,,,3,11,47,,,
137291,note_on,0,0,3,,,,,,,,,3,,,,58,97
137292,note_on,5,0,10,,,,,,,,,14,,,,34,71
137340,control_change,60,0,6,,,,,,,,,10,11,37,,,
137342,control_change,60,0,7,,,,,,,,,11,11,37,,,
137346,control_change,60,0,8,,,,,,,,,12,11,37,,,
137350,control_change,60,0,9,,,,,,,,,13,11,37,,,
137352,control_change,60,0,10,,,,,,,,,14,11,37,,,
137363,control_change,23,0,6,,,,,,,,,10,11,35,,,
137365,control_change,23,0,7,,,,,,,,,11,11,35,,,
137369,control_change,23,0,8,,,,,,,,,12,11,35,,,
137373,control_change,23,0,9,,,,,,,,,13,11,35,,,
137375,control_change,23,0,10,,,,,,,,,14,11,35,,,
137379,control_change,96,0,1,,,,,,,,,0,11,46,,,
137381,control_change,96,0,2,,,,,,,,,1,11,46,,,
137387,control_change,24,0,6,,,,,,,,,10,11,33,,,
137387,control_change,96,0,3,,,,,,,,,3,11,46,,,
137389,control_change,24,0,7,,,,,,,,,11,11,33,,,
137393,control_change,24,0,8,,,,,,,,,12,11,33,,,
137395,note_on,8,0,6,,,,,,,,,10,,,,70,0
137397,control_change,24,0,9,,,,,,,,,13,11,33,,,
137397,note_on,8,0,7,,,,,,,,,11,,,,62,0
137399,control_change,24,0,10,,,,,,,,,14,11,33,,,
137401,note_on,8,0,8,,,,,,,,,12,,,,53,0
137405,note_on,8,0,9,,,,,,,,,13,,,,46,0
137407,note_on,8,0,10,,,,,,,,,14,,,,34,0
137475,control_change,96,0,1,,,,,,,,,0,11,45,,,
137477,control_change,96,0,2,,,,,,,,,1,11,45,,,
137483,control_change,96,0,3,,,,,,,,,3,11,45,,,
137520,set_tempo,240,1,0,,,,,,297767,,,,,,,,
137523,note_on,0,0,1,,,,,,,,,0,,,,84,97
137523,note_on,48,0,1,,,,,,,,,0,,,,86,0
137525,note_on,0,0,2,,,,,,,,,1,,,,80,97
137525,note_on,0,0,2,,,,,,,,,1,,,,72,97
137525,note_on,48,0,2,,,,,,,,,1,,,,74,0
137525,note_on,0,0,2,,,,,,,,,1,,,,70,0
137531,note_on,0,0,3,,,,,,,,,3,,,,56,97
137531,note_on,0,0,3,,,,,,,,,3,,,,60,97
137531,note_on,48,0,3,,,,,,,,,3,,,,58,0
137571,control_change,48,0,1,,,,,,,,,0,11,44,,,
137573,control_change,48,0,2,,,,,,,,,1,11,44,,,
137579,control_change,48,0,3,,,,,,,,,3,11,44,,,
137667,control_change,96,0,1,,,,,,,,,0,11,43,,,
137669,control_change,96,0,2,,,,,,,,,1,11,43,,,
137675,control_change,96,0,3,,,,,,,,,3,11,43,,,
137763,note_on,0,0,1,,,,,,,,,0,,,,82,97
137763,control_change,0,0,1,,,,,,,,,0,11,42,,,
137763,note_on,96,0,1,,,,,,,,,0,,,,84,0
137765,note_on,96,0,2,,,,,,,,,1,,,,80,0
137765,control_change,0,0,2,,,,,,,,,1,11,42,,,
137765,note_on,0,0,2,,,,,,,,,1,,,,72,0
137765,note_on,0,0,2,,,,,,,,,1,,,,70,97
137765,note_on,0,0,2,,,,,,,,,1,,,,79,97
137771,control_change,0,0,3,,,,,,,,,3,11,42,,,
137771,note_on,0,0,3,,,,,,,,,3,,,,55,97
137771,note_on,0,0,3,,,,,,,,,3,,,,58,97
137771,note_on,0,0,3,,,,,,,,,3,,,,60,0
137771,note_on,96,0,3,,,,,,,,,3,,,,56,0
137859,control_change,96,0,1,,,,,,,,,0,11,41,,,
137861,control_change,96,0,2,,,,,,,,,1,11,41,,,
137867,control_change,96,0,3,,,,,,,,,3,11,41,,,
137955,control_change,96,0,1,,,,,,,,,0,11,40,,,
137957,control_change,96,0,2,,,,,,,,,1,11,40,,,
137963,control_change,96,0,3,,,,,,,,,3,11,40,,,
138000,set_tempo,480,1,0,,,,,,289157,,,,,,,,
138003,note_on,0,0,1,,,,,,,,,0,,,,86,97
138003,note_on,48,0,1,,,,,,,,,0,,,,82,0
138005,note_on,0,0,2,,,,,,,,,1,,,,70,0
138005,note_on,48,0,2,,,,,,,,,1,,,,79,0
138005,note_on,0,0,2,,,,,,,,,1,,,,68,97
138005,note_on,0,0,2,,,,,,,,,1,,,,80,97
138011,note_on,0,0,3,,,,,,,,,3,,,,56,97
138011,note_on,48,0,3,,,,,,,,,3,,,,55,0
138011,note_on,0,0,3,,,,,,,,,3,,,,58,0
138011,note_on,0,0,3,,,,,,,,,3,,,,53,97
138051,control_change,48,0,1,,,,,,,,,0,11,39,,,
138053,control_change,48,0,2,,,,,,,,,1,11,39,,,
138059,control_change,48,0,3,,,,,,,,,3,11,39,,,
138147,control_change,96,0,1,,,,,,,,,0,11,38,,,
138149,control_change,96,0,2,,,,,,,,,1,11,38,,,
138155,control_change,96,0,3,,,,,,,,,3,11,38,,,
138240,set_tempo,240,1,0,,,,,,272727,,,,,,,,
138240,note_on,0,0,6,,,,,,,,,10,,,,75,75
138240,control_change,845,0,6,,,,,,,,,10,11,43,,,
138242,control_change,845,0,7,,,,,,,,,11,11,43,,,
138242,note_on,0,0,7,,,,,,,,,11,,,,63,51
138243,control_change,0,0,1,,,,,,,,,0,11,37,,,
138243,note_on,0,0,1,,,,,,,,,0,,,,87,79
138243,note_on,96,0,1,,,,,,,,,0,,,,86,0
138244,note_on,960,0,4,,,,,,,,,4,,,,58,0
138245,control_change,0,0,2,,,,,,,,,1,11,37,,,
138245,note_on,0,0,2,,,,,,,,,1,,,,67,79
138245,note_on,0,0,2,,,,,,,,,1,,,,79,79
138245,note_on,0,0,2,,,,,,,,,1,,,,80,0
138245,note_on,96,0,2,,,,,,,,,1,,,,68,0
138246,note_on,0,0,8,,,,,,,,,12,,,,63,108
138246,note_on,0,0,8,,,,,,,,,12,,,,67,108
138246,control_change,845,0,8,,,,,,,,,12,11,22,,,
138246,note_on,960,0,5,,,,,,,,,5,,,,46,0
138250,control_change,845,0,9,,,,,,,,,13,11,22,,,
138250,note_on,0,0,9,,,,,,,,,13,,,,51,99
138251,note_on,0,0,3,,,,,,,,,3,,,,53,0
138251,note_on,0,0,3,,,,,,,,,3,,,,55,79
138251,note_on,0,0,3,,,,,,,,,3,,,,51,79
138251,control_change,0,0,3,,,,,,,,,3,11,37,,,
138251,note_on,96,0,3,,,,,,,,,3,,,,56,0
138252,control_change,845,0,10,,,,,,,,,14,11,22,,,
138252,note_on,0,0,10,,,,,,,,,14,,,,39,93
138259,control_change,19,0,6,,,,,,,,,10,11,46,,,
138261,control_change,19,0,7,,,,,,,,,11,11,46,,,
138261,control_change,15,0,8,,,,,,,,,12,11,24,,,
138265,control_change,15,0,9,,,,,,,,,13,11,24,,,
138267,control_change,15,0,10,,,,,,,,,14,11,24,,,
138276,control_change,15,0,8,,,,,,,,,12,11,26,,,
138279,control_change,20,0,6,,,,,,,,,10,11,49,,,
138280,control_change,15,0,9,,,,,,,,,13,11,26,,,
138281,control_change,20,0,7,,,,,,,,,11,11,49,,,
138282,control_change,15,0,10,,,,,,,,,14,11,26,,,
138285,note_on,0,0,8,,,,,,,,,12,,,,67,0
138285,note_on,9,0,8,,,,,,,,,12,,,,63,0
138291,control_change,6,0,8,,,,,,,,,12,11,28,,,
138295,control_change,15,0,9,,,,,,,,,13,11,28,,,
138297,control_change,15,0,10,,,,,,,,,14,11,28,,,
138299,control_change,20,0,6,,,,,,,,,10,11,46,,,
138301,control_change,20,0,7,,,,,,,,,11,11,46,,,
138306,control_change,15,0,8,,,,,,,,,12,11,31,,,
138306,note_on,0,0,8,,,,,,,,,12,,,,67,99
138306,note_on,0,0,8,,,,,,,,,12,,,,63,99
138310,control_change,15,0,9,,,,,,,,,13,11,31,,,
138312,control_change,15,0,10,,,,,,,,,14,11,31,,,
138345,note_on,39,0,8,,,,,,,,,12,,,,63,0
138345,note_on,0,0,8,,,,,,,,,12,,,,67,0
138348,control_change,49,0,6,,,,,,,,,10,11,47,,,
138350,control_change,49,0,7,,,,,,,,,11,11,47,,,
138363,note_on,120,0,1,,,,,,,,,0,,,,87,0
138365,note_on,120,0,2,,,,,,,,,1,,,,67,0
138365,note_on,0,0,2,,,,,,,,,1,,,,79,0
138366,note_on,21,0,8,,,,,,,,,12,,,,63,108
138366,note_on,0,0,8,,,,,,,,,12,,,,67,108
138371,note_on,120,0,3,,,,,,,,,3,,,,51,0
138371,note_on,0,0,3,,,,,,,,,3,,,,55,0
138384,control_change,36,0,6,,,,,,,,,10,11,48,,,
138386,control_change,36,0,7,,,,,,,,,11,11,48,,,
138405,note_on,39,0,8,,,,,,,,,12,,,,67,0
138405,note_on,0,0,8,,,,,,,,,12,,,,63,0
138420,note_on,36,0,6,,,,,,,,,10,,,,75,0
138420,control_change,0,0,6,,,,,,,,,10,11,49,,,
138420,note_on,0,0,6,,,,,,,,,10,,,,79,82
138422,note_on,36,0,7,,,,,,,,,11,,,,63,0
138422,note_on,0,0,7,,,,,,,,,11,,,,67,56
138422,control_change,0,0,7,,,,,,,,,11,11,49,,,
138426,note_on,21,0,8,,,,,,,,,12,,,,67,99
138426,note_on,0,0,8,,,,,,,,,12,,,,63,99
138434,control_change,8,0,8,,,,,,,,,12,11,33,,,
138438,control_change,18,0,6,,,,,,,,,10,11,52,,,
138438,control_change,128,0,9,,,,,,,,,13,11,33,,,
138440,control_change,18,0,7,,,,,,,,,11,11,52,,,
138440,control_change,128,0,10,,,,,,,,,14,11,33,,,
138456,control_change,18,0,6,,,,,,,,,10,11,55,,,
138458,control_change,18,0,7,,,,,,,,,11,11,55,,,
138459,note_on,3,0,6,,,,,,,,,10,,,,79,0
138461,note_on,3,0,7,,,,,,,,,11,,,,67,0
138465,note_on,0,0,8,,,,,,,,,12,,,,67,0
138465,note_on,31,0,8,,,,,,,,,12,,,,63,0
138474,control_change,15,0,6,,,,,,,,,10,11,58,,,
138476,control_change,15,0,7,,,,,,,,,11,11,58,,,
138480,note_on,6,0,6,,,,,,,,,10,,,,82,74
138480,set_tempo,240,1,0,,,,,,261438,,,,,,,,
138482,note_on,6,0,7,,,,,,,,,11,,,,70,51
138486,note_on,0,0,8,,,,,,,,,12,,,,63,108
138486,note_on,21,0,8,,,,,,,,,12,,,,67,108
138490,note_on,52,0,9,,,,,,,,,13,,,,51,0
138492,control_change,12,0,6,,,,,,,,,10,11,60,,,
138492,note_on,52,0,10,,,,,,,,,14,,,,39,0
138494,control_change,12,0,7,,,,,,,,,11,11,60,,,
138510,control_change,18,0,6,,,,,,,,,10,11,62,,,
138512,control_change,18,0,7,,,,,,,,,11,11,62,,,
138525,note_on,0,0,8,,,,,,,,,12,,,,67,0
138525,note_on,39,0,8,,,,,,,,,12,,,,63,0
138528,control_change,18,0,6,,,,,,,,,10,11,63,,,
138530,control_change,18,0,7,,,,,,,,,11,11,63,,,
138540,note_on,12,0,6,,,,,,,,,10,,,,82,0
138542,note_on,12,0,7,,,,,,,,,11,,,,70,0
138546,note_on,0,0,8,,,,,,,,,12,,,,63,99
138546,note_on,21,0,8,,,,,,,,,12,,,,67,99
138546,control_change,6,0,6,,,,,,,,,10,11,64,,,
138548,control_change,6,0,7,,,,,,,,,11,11,64,,,
138563,control_change,17,0,8,,,,,,,,,12,11,34,,,
138564,control_change,18,0,6,,,,,,,,,10,11,66,,,
138566,control_change,18,0,7,,,,,,,,,11,11,66,,,
138567,control_change,77,0,9,,,,,,,,,13,11,34,,,
138569,control_change,77,0,10,,,,,,,,,14,11,34,,,
138582,control_change,18,0,6,,,,,,,,,10,11,67,,,
138584,control_change,18,0,7,,,,,,,,,11,11,67,,,
138585,note_on,22,0,8,,,,,,,,,12,,,,63,0
138585,note_on,0,0,8,,,,,,,,,12,,,,67,0
138600,control_change,18,0,6,,,,,,,,,10,11,68,,,
138600,note_on,0,0,6,,,,,,,,,10,,,,82,74
138602,control_change,18,0,7,,,,,,,,,11,11,68,,,
138602,note_on,0,0,7,,,,,,,,,11,,,,70,51
138606,note_on,21,0,8,,,,,,,,,12,,,,67,108
138606,note_on,0,0,8,,,,,,,,,12,,,,63,108
138645,note_on,39,0,8,,,,,,,,,12,,,,63,0
138645,note_on,0,0,8,,,,,,,,,12,,,,67,0
138660,note_on,60,0,6,,,,,,,,,10,,,,82,0
138662,note_on,60,0,7,,,,,,,,,11,,,,70,0
138666,note_on,21,0,8,,,,,,,,,12,,,,63,99
138666,note_on,0,0,8,,,,,,,,,12,,,,67,99
138691,control_change,25,0,8,,,,,,,,,12,11,36,,,
138695,control_change,128,0,9,,,,,,,,,13,11,36,,,
138697,control_change,128,0,10,,,,,,,,,14,11,36,,,
138705,note_on,14,0,8,,,,,,,,,12,,,,67,0
138705,note_on,0,0,8,,,,,,,,,12,,,,63,0
138720,set_tempo,240,1,0,,,,,,272727,,,,,,,,
138720,control_change,60,0,6,,,,,,,,,10,11,68,,,
138720,note_on,0,0,6,,,,,,,,,10,,,,82,76
138722,note_on,0,0,7,,,,,,,,,11,,,,70,52
138722,control_change,60,0,7,,,,,,,,,11,11,68,,,
138726,note_on,0,0,8,,,,,,,,,12,,,,67,108
138726,note_on,21,0,8,,,,,,,,,12,,,,63,108
138730,note_on,35,0,9,,,,,,,,,13,,,,51,99
138732,note_on,35,0,10,,,,,,,,,14,,,,39,93
138744,control_change,24,0,6,,,,,,,,,10,11,67,,,
138746,control_change,24,0,7,,,,,,,,,11,11,67,,,
138765,note_on,0,0,8,,,,,,,,,12,,,,63,0
138765,note_on,39,0,8,,,,,,,,,12,,,,67,0
138768,control_change,24,0,6,,,,,,,,,10,11,66,,,
138770,control_change,24,0,7,,,,,,,,,11,11,66,,,
138786,note_on,21,0,8,,,,,,,,,12,,,,67,99
138786,note_on,0,0,8,,,,,,,,,12,,,,63,99
138792,control_change,24,0,6,,,,,,,,,10,11,64,,,
138794,control_change,24,0,7,,,,,,,,,11,11,64,,,
138816,control_change,24,0,6,,,,,,,,,10,11,63,,,
138818,control_change,24,0,7,,,,,,,,,11,11,63,,,
138820,control_change,34,0,8,,,,,,,,,12,11,37,,,
138824,control_change,94,0,9,,,,,,,,,13,11,37,,,
138825,note_on,5,0,8,,,,,,,,,12,,,,63,0
138825,note_on,0,0,8,,,,,,,,,12,,,,67,0
138826,control_change,94,0,10,,,,,,,,,14,11,37,,,
138840,control_change,24,0,6,,,,,,,,,10,11,62,,,
138842,control_change,24,0,7,,,,,,,,,11,11,62,,,
138846,note_on,21,0,8,,,,,,,,,12,,,,63,108
138846,note_on,0,0,8,,,,,,,,,12,,,,67,108
138864,control_change,24,0,6,,,,,,,,,10,11,60,,,
138866,control_change,24,0,7,,,,,,,,,11,11,60,,,
138885,note_on,39,0,8,,,,,,,,,12,,,,67,0
138885,note_on,0,0,8,,,,,,,,,12,,,,63,0
138888,control_change,24,0,6,,,,,,,,,10,11,58,,,
138890,control_change,24,0,7,,,,,,,,,11,11,58,,,
138906,note_on,0,0,8,,,,,,,,,12,,,,63,99
138906,note_on,21,0,8,,,,,,,,,12,,,,67,99
138910,note_on,0,0,9,,,,,,,,,13,,,,55,99
138910,note_on,86,0,9,,,,,,,,,13,,,,51,0
138912,control_change,24,0,6,,,,,,,,,10,11,55,,,
138912,note_on,86,0,10,,,,,,,,,14,,,,39,0
138912,note_on,0,0,10,,,,,,,,,14,,,,43,93
138914,control_change,24,0,7,,,,,,,,,11,11,55,,,
138936,control_change,24,0,6,,,,,,,,,10,11,52,,,
138938,control_change,24,0,7,,,,,,,,,11,11,52,,,
138945,note_on,39,0,8,,,,,,,,,12,,,,63,0
138945,note_on,0,0,8,,,,,,,,,12,,,,67,0
138948,control_change,3,0,8,,,,,,,,,12,11,39,,,
138949,note_on,39,0,9,,,,,,,,,13,,,,55,0
138951,note_on,39,0,10,,,,,,,,,14,,,,43,0
138952,control_change,3,0,9,,,,,,,,,13,11,39,,,
138954,control_change,3,0,10,,,,,,,,,14,11,39,,,
138960,set_tempo,240,1,0,,,,,,261438,,,,,,,,
138960,control_change,0,0,6,,,,,,,,,10,11,49,,,
138960,note_on,24,0,6,,,,,,,,,10,,,,82,0
138962,note_on,24,0,7,,,,,,,,,11,,,,70,0
138962,control_change,0,0,7,,,,,,,,,11,11,49,,,
138966,note_on,18,0,8,,,,,,,,,12,,,,67,108
138966,note_on,0,0,8,,,,,,,,,12,,,,63,108
138970,note_on,18,0,9,,,,,,,,,13,,,,58,99
138972,note_on,18,0,10,,,,,,,,,14,,,,46,93
139005,note_on,39,0,8,,,,,,,,,12,,,,63,0
139005,note_on,0,0,8,,,,,,,,,12,,,,67,0
139026,note_on,21,0,8,,,,,,,,,12,,,,63,99
139026,note_on,0,0,8,,,,,,,,,12,,,,67,99
139030,note_on,60,0,9,,,,,,,,,13,,,,58,0
139032,note_on,60,0,10,,,,,,,,,14,,,,46,0
139065,note_on,39,0,8,,,,,,,,,12,,,,67,0
139065,note_on,0,0,8,,,,,,,,,12,,,,63,0
139077,control_change,12,0,8,,,,,,,,,12,11,40,,,
139081,control_change,51,0,9,,,,,,,,,13,11,40,,,
139083,control_change,51,0,10,,,,,,,,,14,11,40,,,
139086,note_on,0,0,8,,,,,,,,,12,,,,67,108
139086,note_on,9,0,8,,,,,,,,,12,,,,63,108
139090,note_on,9,0,9,,,,,,,,,13,,,,58,99
139092,note_on,9,0,10,,,,,,,,,14,,,,46,93
139125,note_on,39,0,8,,,,,,,,,12,,,,67,0
139125,note_on,0,0,8,,,,,,,,,12,,,,63,0
139146,note_on,0,0,8,,,,,,,,,12,,,,63,99
139146,note_on,21,0,8,,,,,,,,,12,,,,67,99
139150,note_on,60,0,9,,,,,,,,,13,,,,58,0
139152,note_on,60,0,10,,,,,,,,,14,,,,46,0
139185,note_on,39,0,8,,,,,,,,,12,,,,63,0
139185,note_on,0,0,8,,,,,,,,,12,,,,67,0
139200,note_on,0,0,6,,,,,,,,,10,,,,74,82
139200,control_change,240,0,6,,,,,,,,,10,11,58,,,
139200,set_tempo,240,1,0,,,,,,272727,,,,,,,,
139202,note_on,0,0,7,,,,,,,,,11,,,,62,56
139202,control_change,240,0,7,,,,,,,,,11,11,58,,,
139206,note_on,0,0,8,,,,,,,,,12,,,,62,108
139206,note_on,0,0,8,,,,,,,,,12,,,,65,108
139206,control_change,21,0,8,,,,,,,,,12,11,42,,,
139210,control_change,60,0,9,,,,,,,,,13,11,42,,,
139210,note_on,0,0,9,,,,,,,,,13,,,,58,99
139212,control_change,60,0,10,,,,,,,,,14,11,42,,,
139212,note_on,0,0,10,,,,,,,,,14,,,,46,93
139219,control_change,19,0,6,,,,,,,,,10,11,57,,,
139221,control_change,19,0,7,,,,,,,,,11,11,57,,,
139239,control_change,20,0,6,,,,,,,,,10,11,56,,,
139241,control_change,20,0,7,,,,,,,,,11,11,56,,,
139245,note_on,0,0,8,,,,,,,,,12,,,,65,0
139245,note_on,39,0,8,,,,,,,,,12,,,,62,0
139259,control_change,20,0,6,,,,,,,,,10,11,55,,,
139261,control_change,20,0,7,,,,,,,,,11,11,55,,,
139266,note_on,0,0,8,,,,,,,,,12,,,,65,99
139266,note_on,21,0,8,,,,,,,,,12,,,,62,99
139272,control_change,13,0,6,,,,,,,,,10,11,58,,,
139274,control_change,13,0,7,,,,,,,,,11,11,58,,,
139296,control_change,24,0,6,,,,,,,,,10,11,60,,,
139298,control_change,24,0,7,,,,,,,,,11,11,60,,,
139305,note_on,0,0,8,,,,,,,,,12,,,,62,0
139305,note_on,39,0,8,,,,,,,,,12,,,,65,0
139320,control_change,24,0,6,,,,,,,,,10,11,62,,,
139322,control_change,24,0,7,,,,,,,,,11,11,62,,,
139326,note_on,0,0,8,,,,,,,,,12,,,,62,108
139326,note_on,21,0,8,,,,,,,,,12,,,,65,108
139344,control_change,24,0,6,,,,,,,,,10,11,63,,,
139346,control_change,24,0,7,,,,,,,,,11,11,63,,,
139365,note_on,39,0,8,,,,,,,,,12,,,,62,0
139365,note_on,0,0,8,,,,,,,,,12,,,,65,0
139368,control_change,24,0,6,,,,,,,,,10,11,64,,,
139370,control_change,24,0,7,,,,,,,,,11,11,64,,,
139380,note_on,0,0,6,,,,,,,,,10,,,,77,82
139380,note_on,12,0,6,,,,,,,,,10,,,,74,0
139382,note_on,0,0,7,,,,,,,,,11,,,,65,56
139382,note_on,12,0,7,,,,,,,,,11,,,,62,0
139386,note_on,21,0,8,,,,,,,,,12,,,,65,99
139386,note_on,0,0,8,,,,,,,,,12,,,,62,99
139392,control_change,12,0,6,,,,,,,,,10,11,66,,,
139394,control_change,12,0,7,,,,,,,,,11,11,66,,,
139416,control_change,24,0,6,,,,,,,,,10,11,67,,,
139418,control_change,24,0,7,,,,,,,,,11,11,67,,,
139419,note_on,3,0,6,,,,,,,,,10,,,,77,0
139421,note_on,3,0,7,,,,,,,,,11,,,,65,0
139425,note_on,39,0,8,,,,,,,,,12,,,,62,0
139425,note_on,0,0,8,,,,,,,,,12,,,,65,0
139440,control_change,21,0,6,,,,,,,,,10,11,68,,,
139440,set_tempo,240,1,0,,,,,,261438,,,,,,,,
139440,note_on,0,0,6,,,,,,,,,10,,,,82,74
139442,control_change,21,0,7,,,,,,,,,11,11,68,,,
139442,note_on,0,0,7,,,,,,,,,11,,,,70,51
139446,note_on,21,0,8,,,,,,,,,12,,,,65,108
139446,note_on,0,0,8,,,,,,,,,12,,,,62,108
139450,note_on,240,0,9,,,,,,,,,13,,,,58,0
139452,note_on,240,0,10,,,,,,,,,14,,,,46,0
139485,note_on,0,0,8,,,,,,,,,12,,,,65,0
139485,note_on,39,0,8,,,,,,,,,12,,,,62,0
139500,note_on,60,0,6,,,,,,,,,10,,,,82,0
139502,note_on,60,0,7,,,,,,,,,11,,,,70,0
139506,note_on,21,0,8,,,,,,,,,12,,,,62,99
139506,note_on,0,0,8,,,,,,,,,12,,,,65,99
139545,note_on,0,0,8,,,,,,,,,12,,,,62,0
139545,note_on,39,0,8,,,,,,,,,12,,,,65,0
139560,note_on,60,0,6,,,,,,,,,10,,,,82,74
139562,note_on,60,0,7,,,,,,,,,11,,,,70,51
139566,note_on,21,0,8,,,,,,,,,12,,,,62,108
139566,note_on,0,0,8,,,,,,,,,12,,,,65,108
139605,note_on,0,0,8,,,,,,,,,12,,,,62,0
139605,note_on,39,0,8,,,,,,,,,12,,,,65,0
139620,note_on,60,0,6,,,,,,,,,10,,,,82,0
139622,note_on,60,0,7,,,,,,,,,11,,,,70,0
139626,note_on,0,0,8,,,,,,,,,12,,,,62,99
139626,note_on,21,0,8,,,,,,,,,12,,,,65,99
139665,note_on,39,0,8,,,,,,,,,12,,,,62,0
139665,note_on,0,0,8,,,,,,,,,12,,,,65,0
139680,set_tempo,240,1,0,,,,,,272727,,,,,,,,
139680,note_on,0,0,6,,,,,,,,,10,,,,82,76
139680,control_change,60,0,6,,,,,,,,,10,11,68,,,
139682,control_change,60,0,7,,,,,,,,,11,11,68,,,
139682,note_on,0,0,7,,,,,,,,,11,,,,70,52
139686,note_on,21,0,8,,,,,,,,,12,,,,62,108
139686,note_on,0,0,8,,,,,,,,,12,,,,65,108
139690,note_on,240,0,9,,,,,,,,,13,,,,50,99
139692,note_on,240,0,10,,,,,,,,,14,,,,38,93
139704,control_change,24,0,6,,,,,,,,,10,11,67,,,
139706,control_change,24,0,7,,,,,,,,,11,11,67,,,
139725,note_on,39,0,8,,,,,,,,,12,,,,65,0
139725,note_on,0,0,8,,,,,,,,,12,,,,62,0
139728,control_change,24,0,6,,,,,,,,,10,11,66,,,
139730,control_change,24,0,7,,,,,,,,,11,11,66,,,
139746,note_on,0,0,8,,,,,,,,,12,,,,65,99
139746,note_on,21,0,8,,,,,,,,,12,,,,62,99
139752,control_change,24,0,6,,,,,,,,,10,11,64,,,
139754,control_change,24,0,7,,,,,,,,,11,11,64,,,
139776,control_change,24,0,6,,,,,,,,,10,11,63,,,
139778,control_change,24,0,7,,,,,,,,,11,11,63,,,
139785,note_on,39,0,8,,,,,,,,,12,,,,65,0
139785,note_on,0,0,8,,,,,,,,,12,,,,62,0
139800,control_change,24,0,6,,,,,,,,,10,11,62,,,
139802,control_change,24,0,7,,,,,,,,,11,11,62,,,
139806,note_on,21,0,8,,,,,,,,,12,,,,62,108
139806,note_on,0,0,8,,,,,,,,,12,,,,65,108
139824,control_change,24,0,6,,,,,,,,,10,11,60,,,
139826,control_change,24,0,7,,,,,,,,,11,11,60,,,
139845,note_on,39,0,8,,,,,,,,,12,,,,65,0
139845,note_on,0,0,8,,,,,,,,,12,,,,62,0
139848,control_change,24,0,6,,,,,,,,,10,11,58,,,
139850,control_change,24,0,7,,,,,,,,,11,11,58,,,
139866,note_on,21,0,8,,,,,,,,,12,,,,65,99
139866,note_on,0,0,8,,,,,,,,,12,,,,62,99
139870,note_on,180,0,9,,,,,,,,,13,,,,50,0
139870,note_on,0,0,9,,,,,,,,,13,,,,53,99
139872,control_change,24,0,6,,,,,,,,,10,11,55,,,
139872,note_on,180,0,10,,,,,,,,,14,,,,38,0
139872,note_on,0,0,10,,,,,,,,,14,,,,41,93
139874,control_change,24,0,7,,,,,,,,,11,11,55,,,
139896,control_change,24,0,6,,,,,,,,,10,11,52,,,
139898,control_change,24,0,7,,,,,,,,,11,11,52,,,
139905,note_on,39,0,8,,,,,,,,,12,,,,62,0
139905,note_on,0,0,8,,,,,,,,,12,,,,65,0
139909,note_on,39,0,9,,,,,,,,,13,,,,53,0
139911,note_on,39,0,10,,,,,,,,,14,,,,41,0
139920,note_on,24,0,6,,,,,,,,,10,,,,82,0
139920,control_change,0,0,6,,,,,,,,,10,11,49,,,
139920,set_tempo,240,1,0,,,,,,261438,,,,,,,,
139922,note_on,24,0,7,,,,,,,,,11,,,,70,0
139922,control_change,0,0,7,,,,,,,,,11,11,49,,,
139926,note_on,0,0,8,,,,,,,,,12,,,,65,108
139926,note_on,21,0,8,,,,,,,,,12,,,,62,108
139930,note_on,21,0,9,,,,,,,,,13,,,,58,99
139932,note_on,21,0,10,,,,,,,,,14,,,,46,93
139965,note_on,0,0,8,,,,,,,,,12,,,,62,0
139965,note_on,39,0,8,,,,,,,,,12,,,,65,0
139986,note_on,21,0,8,,,,,,,,,12,,,,62,99
139986,note_on,0,0,8,,,,,,,,,12,,,,65,99
139990,note_on,60,0,9,,,,,,,,,13,,,,58,0
139992,note_on,60,0,10,,,,,,,,,14,,,,46,0
140025,note_on,0,0,8,,,,,,,,,12,,,,62,0
140025,note_on,39,0,8,,,,,,,,,12,,,,65,0
140046,note_on,0,0,8,,,,,,,,,12,,,,62,108
140046,note_on,21,0,8,,,,,,,,,12,,,,65,108
140050,note_on,60,0,9,,,,,,,,,13,,,,58,99
140052,note_on,60,0,10,,,,,,,,,14,,,,46,93
140085,note_on,0,0,8,,,,,,,,,12,,,,65,0
140085,note_on,39,0,8,,,,,,,,,12,,,,62,0
140106,note_on,0,0,8,,,,,,,,,12,,,,65,99
140106,note_on,21,0,8,,,,,,,,,12,,,,62,99
140110,note_on,60,0,9,,,,,,,,,13,,,,58,0
140112,note_on,60,0,10,,,,,,,,,14,,,,46,0
140145,note_on,0,0,8,,,,,,,,,12,,,,62,0
140145,note_on,39,0,8,,,,,,,,,12,,,,65,0
140160,note_on,0,0,6,,,,,,,,,10,,,,80,82
140160,control_change,240,0,6,,,,,,,,,10,11,58,,,
140160,set_tempo,240,1,0,,,,,,272727,,,,,,,,
140162,note_on,0,0,7,,,,,,,,,11,,,,68,56
140162,control_change,240,0,7,,,,,,,,,11,11,58,,,
140166,note_on,0,0,8,,,,,,,,,12,,,,60,108
140166,note_on,21,0,8,,,,,,,,,12,,,,63,108
140170,note_on,60,0,9,,,,,,,,,13,,,,48,99
140172,note_on,60,0,10,,,,,,,,,14,,,,36,93
140179,control_change,19,0,6,,,,,,,,,10,11,57,,,
140181,control_change,19,0,7,,,,,,,,,11,11,57,,,
140199,control_change,20,0,6,,,,,,,,,10,11,56,,,
140201,control_change,20,0,7,,,,,,,,,11,11,56,,,
140205,note_on,39,0,8,,,,,,,,,12,,,,60,0
140205,note_on,0,0,8,,,,,,,,,12,,,,63,0
140219,control_change,20,0,6,,,,,,,,,10,11,55,,,
140221,control_change,20,0,7,,,,,,,,,11,11,55,,,
140226,note_on,0,0,8,,,,,,,,,12,,,,60,99
140226,note_on,21,0,8,,,,,,,,,12,,,,63,99
140232,control_change,13,0,6,,,,,,,,,10,11,58,,,
140234,control_change,13,0,7,,,,,,,,,11,11,58,,,
140256,control_change,24,0,6,,,,,,,,,10,11,60,,,
140258,control_change,24,0,7,,,,,,,,,11,11,60,,,
140265,note_on,39,0,8,,,,,,,,,12,,,,60,0
140265,note_on,0,0,8,,,,,,,,,12,,,,63,0
140280,control_change,24,0,6,,,,,,,,,10,11,62,,,
140282,control_change,24,0,7,,,,,,,,,11,11,62,,,
140286,note_on,0,0,8,,,,,,,,,12,,,,63,108
140286,note_on,21,0,8,,,,,,,,,12,,,,60,108
140304,control_change,24,0,6,,,,,,,,,10,11,63,,,
140306,control_change,24,0,7,,,,,,,,,11,11,63,,,
140325,note_on,0,0,8,,,,,,,,,12,,,,60,0
140325,note_on,39,0,8,,,,,,,,,12,,,,63,0
140328,control_change,24,0,6,,,,,,,,,10,11,64,,,
140330,control_change,24,0,7,,,,,,,,,11,11,64,,,
140340,note_on,0,0,6,,,,,,,,,10,,,,84,82
140340,note_on,12,0,6,,,,,,,,,10,,,,80,0
140342,note_on,12,0,7,,,,,,,,,11,,,,68,0
140342,note_on,0,0,7,,,,,,,,,11,,,,72,56
140346,note_on,0,0,8,,,,,,,,,12,,,,63,99
140346,note_on,21,0,8,,,,,,,,,12,,,,60,99
140352,control_change,12,0,6,,,,,,,,,10,11,66,,,
140354,control_change,12,0,7,,,,,,,,,11,11,66,,,
140376,control_change,24,0,6,,,,,,,,,10,11,67,,,
140378,control_change,24,0,7,,,,,,,,,11,11,67,,,
140379,note_on,3,0,6,,,,,,,,,10,,,,84,0
140381,note_on,3,0,7,,,,,,,,,11,,,,72,0
140385,note_on,39,0,8,,,,,,,,,12,,,,63,0
140385,note_on,0,0,8,,,,,,,,,12,,,,60,0
140400,set_tempo,240,1,0,,,,,,261438,,,,,,,,
140400,control_change,21,0,6,,,,,,,,,10,11,68,,,
140400,note_on,0,0,6,,,,,,,,,10,,,,87,74
140402,note_on,0,0,7,,,,,,,,,11,,,,75,51
140402,control_change,21,0,7,,,,,,,,,11,11,68,,,
140406,note_on,21,0,8,,,,,,,,,12,,,,60,108
140406,note_on,0,0,8,,,,,,,,,12,,,,63,108
140410,note_on,240,0,9,,,,,,,,,13,,,,48,0
140412,note_on,240,0,10,,,,,,,,,14,,,,36,0
140445,note_on,0,0,8,,,,,,,,,12,,,,60,0
140445,note_on,39,0,8,,,,,,,,,12,,,,63,0
140460,note_on,60,0,6,,,,,,,,,10,,,,87,0
140462,note_on,60,0,7,,,,,,,,,11,,,,75,0
140466,note_on,0,0,8,,,,,,,,,12,,,,60,99
140466,note_on,21,0,8,,,,,,,,,12,,,,63,99
140505,note_on,39,0,8,,,,,,,,,12,,,,60,0
140505,note_on,0,0,8,,,,,,,,,12,,,,63,0
140520,note_on,60,0,6,,,,,,,,,10,,,,87,74
140522,note_on,60,0,7,,,,,,,,,11,,,,75,51
140526,note_on,21,0,8,,,,,,,,,12,,,,63,108
140526,note_on,0,0,8,,,,,,,,,12,,,,60,108
140565,note_on,39,0,8,,,,,,,,,12,,,,60,0
140565,note_on,0,0,8,,,,,,,,,12,,,,63,0
140580,note_on,60,0,6,,,,,,,,,10,,,,87,0
140582,note_on,60,0,7,,,,,,,,,11,,,,75,0
140586,note_on,21,0,8,,,,,,,,,12,,,,60,99
140586,note_on,0,0,8,,,,,,,,,12,,,,63,99
140625,note_on,39,0,8,,,,,,,,,12,,,,63,0
140625,note_on,0,0,8,,,,,,,,,12,,,,60,0
140640,set_tempo,240,1,0,,,,,,272727,,,,,,,,
140640,control_change,60,0,6,,,,,,,,,10,11,68,,,
140640,note_on,0,0,6,,,,,,,,,10,,,,87,76
140642,control_change,60,0,7,,,,,,,,,11,11,68,,,
140642,note_on,0,0,7,,,,,,,,,11,,,,75,52
140646,note_on,21,0,8,,,,,,,,,12,,,,63,108
140646,note_on,0,0,8,,,,,,,,,12,,,,60,108
140650,note_on,240,0,9,,,,,,,,,13,,,,48,99
140652,note_on,240,0,10,,,,,,,,,14,,,,36,93
140664,control_change,24,0,6,,,,,,,,,10,11,67,,,
140666,control_change,24,0,7,,,,,,,,,11,11,67,,,
140685,note_on,39,0,8,,,,,,,,,12,,,,60,0
140685,note_on,0,0,8,,,,,,,,,12,,,,63,0
140688,control_change,24,0,6,,,,,,,,,10,11,66,,,
140690,control_change,24,0,7,,,,,,,,,11,11,66,,,
140706,note_on,0,0,8,,,,,,,,,12,,,,63,99
140706,note_on,21,0,8,,,,,,,,,12,,,,60,99
140712,control_change,24,0,6,,,,,,,,,10,11,64,,,
140714,control_change,24,0,7,,,,,,,,,11,11,64,,,
140736,control_change,24,0,6,,,,,,,,,10,11,63,,,
140738,control_change,24,0,7,,,,,,,,,11,11,63,,,
140745,note_on,39,0,8,,,,,,,,,12,,,,63,0
140745,note_on,0,0,8,,,,,,,,,12,,,,60,0
140760,control_change,24,0,6,,,,,,,,,10,11,62,,,
140762,control_change,24,0,7,,,,,,,,,11,11,62,,,
140766,note_on,0,0,8,,,,,,,,,12,,,,60,108
140766,note_on,21,0,8,,,,,,,,,12,,,,63,108
140784,control_change,24,0,6,,,,,,,,,10,11,60,,,
140786,control_change,24,0,7,,,,,,,,,11,11,60,,,
140805,note_on,39,0,8,,,,,,,,,12,,,,60,0
140805,note_on,0,0,8,,,,,,,,,12,,,,63,0
140808,control_change,24,0,6,,,,,,,,,10,11,58,,,
140810,control_change,24,0,7,,,,,,,,,11,11,58,,,
140826,note_on,0,0,8,,,,,,,,,12,,,,63,99
140826,note_on,21,0,8,,,,,,,,,12,,,,60,99
140830,note_on,180,0,9,,,,,,,,,13,,,,48,0
140830,note_on,0,0,9,,,,,,,,,13,,,,51,99
140832,note_on,0,0,10,,,,,,,,,14,,,,39,93
140832,control_change,24,0,6,,,,,,,,,10,11,55,,,
140832,note_on,180,0,10,,,,,,,,,14,,,,36,0
140834,control_change,24,0,7,,,,,,,,,11,11,55,,,
140856,control_change,24,0,6,,,,,,,,,10,11,52,,,
140858,control_change,24,0,7,,,,,,,,,11,11,52,,,
140865,note_on,0,0,8,,,,,,,,,12,,,,60,0
140865,note_on,39,0,8,,,,,,,,,12,,,,63,0
140869,note_on,39,0,9,,,,,,,,,13,,,,51,0
140871,note_on,39,0,10,,,,,,,,,14,,,,39,0
140880,note_on,0,0,6,,,,,,,,,10,,,,86,82
140880,set_tempo,240,1,0,,,,,,261438,,,,,,,,
140880,note_on,24,0,6,,,,,,,,,10,,,,87,0
140880,control_change,0,0,6,,,,,,,,,10,11,49,,,
140882,control_change,0,0,7,,,,,,,,,11,11,49,,,
140882,note_on,24,0,7,,,,,,,,,11,,,,75,0
140882,note_on,0,0,7,,,,,,,,,11,,,,74,56
140886,note_on,0,0,8,,,,,,,,,12,,,,60,108
140886,note_on,21,0,8,,,,,,,,,12,,,,63,108
140890,note_on,21,0,9,,,,,,,,,13,,,,56,99
140892,note_on,21,0,10,,,,,,,,,14,,,,44,93
140925,note_on,39,0,8,,,,,,,,,12,,,,60,0
140925,note_on,0,0,8,,,,,,,,,12,,,,63,0
140940,note_on,60,0,6,,,,,,,,,10,,,,86,0
140940,note_on,0,0,6,,,,,,,,,10,,,,84,82
140942,note_on,60,0,7,,,,,,,,,11,,,,74,0
140942,note_on,0,0,7,,,,,,,,,11,,,,72,56
140946,note_on,21,0,8,,,,,,,,,12,,,,63,99
140946,note_on,0,0,8,,,,,,,,,12,,,,60,99
140950,note_on,60,0,9,,,,,,,,,13,,,,56,0
140952,note_on,60,0,10,,,,,,,,,14,,,,44,0
140985,note_on,0,0,8,,,,,,,,,12,,,,63,0
140985,note_on,39,0,8,,,,,,,,,12,,,,60,0
141000,note_on,60,0,6,,,,,,,,,10,,,,84,0
141000,note_on,0,0,6,,,,,,,,,10,,,,82,82
141002,note_on,60,0,7,,,,,,,,,11,,,,72,0
141002,note_on,0,0,7,,,,,,,,,11,,,,70,56
141006,note_on,21,0,8,,,,,,,,,12,,,,60,108
141006,note_on,0,0,8,,,,,,,,,12,,,,63,108
141010,note_on,60,0,9,,,,,,,,,13,,,,56,99
141012,note_on,60,0,10,,,,,,,,,14,,,,44,93
141045,note_on,0,0,8,,,,,,,,,12,,,,60,0
141045,note_on,39,0,8,,,,,,,,,12,,,,63,0
141060,note_on,0,0,6,,,,,,,,,10,,,,80,82
141060,note_on,60,0,6,,,,,,,,,10,,,,82,0
141062,note_on,60,0,7,,,,,,,,,11,,,,70,0
141062,note_on,0,0,7,,,,,,,,,11,,,,68,56
141066,note_on,21,0,8,,,,,,,,,12,,,,60,99
141066,note_on,0,0,8,,,,,,,,,12,,,,63,99
141070,note_on,60,0,9,,,,,,,,,13,,,,56,0
141072,note_on,60,0,10,,,,,,,,,14,,,,44,0
141099,note_on,39,0,6,,,,,,,,,10,,,,80,0
141101,note_on,39,0,7,,,,,,,,,11,,,,68,0
141105,note_on,39,0,8,,,,,,,,,12,,,,63,0
141105,note_on,0,0,8,,,,,,,,,12,,,,60,0
141120,control_change,21,0,6,,,,,,,,,10,11,58,,,
141120,note_on,0,0,6,,,,,,,,,10,,,,79,82
141120,set_tempo,240,1,0,,,,,,272727,,,,,,,,
141122,control_change,21,0,7,,,,,,,,,11,11,58,,,
141122,note_on,0,0,7,,,,,,,,,11,,,,67,56
141126,note_on,0,0,8,,,,,,,,,12,,,,63,108
141126,note_on,21,0,8,,,,,,,,,12,,,,58,108
141130,note_on,60,0,9,,,,,,,,,13,,,,46,99
141132,note_on,60,0,10,,,,,,,,,14,,,,34,93
141139,control_change,19,0,6,,,,,,,,,10,11,57,,,
141141,control_change,19,0,7,,,,,,,,,11,11,57,,,
141159,control_change,20,0,6,,,,,,,,,10,11,56,,,
141161,control_change,20,0,7,,,,,,,,,11,11,56,,,
141165,note_on,0,0,8,,,,,,,,,12,,,,58,0
141165,note_on,39,0,8,,,,,,,,,12,,,,63,0
141179,control_change,20,0,6,,,,,,,,,10,11,55,,,
141181,control_change,20,0,7,,,,,,,,,11,11,55,,,
141186,note_on,0,0,8,,,,,,,,,12,,,,58,99
141186,note_on,21,0,8,,,,,,,,,12,,,,63,99
141192,control_change,13,0,6,,,,,,,,,10,11,58,,,
141194,control_change,13,0,7,,,,,,,,,11,11,58,,,
141216,control_change,24,0,6,,,,,,,,,10,11,60,,,
141218,control_change,24,0,7,,,,,,,,,11,11,60,,,
141225,note_on,0,0,8,,,,,,,,,12,,,,63,0
141225,note_on,39,0,8,,,,,,,,,12,,,,58,0
141240,control_change,24,0,6,,,,,,,,,10,11,62,,,
141242,control_change,24,0,7,,,,,,,,,11,11,62,,,
141246,note_on,0,0,8,,,,,,,,,12,,,,63,108
141246,note_on,21,0,8,,,,,,,,,12,,,,58,108
141264,control_change,24,0,6,,,,,,,,,10,11,63,,,
141266,control_change,24,0,7,,,,,,,,,11,11,63,,,
141285,note_on,0,0,8,,,,,,,,,12,,,,58,0
141285,note_on,39,0,8,,,,,,,,,12,,,,63,0
141288,control_change,24,0,6,,,,,,,,,10,11,64,,,
141290,control_change,24,0,7,,,,,,,,,11,11,64,,,
141300,note_on,12,0,6,,,,,,,,,10,,,,79,0
141300,note_on,0,0,6,,,,,,,,,10,,,,82,82
141302,note_on,0,0,7,,,,,,,,,11,,,,70,56
141302,note_on,12,0,7,,,,,,,,,11,,,,67,0
141306,note_on,21,0,8,,,,,,,,,12,,,,63,99
141306,note_on,0,0,8,,,,,,,,,12,,,,58,99
141312,control_change,12,0,6,,,,,,,,,10,11,66,,,
141314,control_change,12,0,7,,,,,,,,,11,11,66,,,
141336,control_change,24,0,6,,,,,,,,,10,11,67,,,
141338,control_change,24,0,7,,,,,,,,,11,11,67,,,
141339,note_on,3,0,6,,,,,,,,,10,,,,82,0
141341,note_on,3,0,7,,,,,,,,,11,,,,70,0
141345,note_on,39,0,8,,,,,,,,,12,,,,58,0
141345,note_on,0,0,8,,,,,,,,,12,,,,63,0
141360,note_on,0,0,6,,,,,,,,,10,,,,87,74
141360,control_change,21,0,6,,,,,,,,,10,11,68,,,
141360,set_tempo,240,1,0,,,,,,261438,,,,,,,,
141362,note_on,0,0,7,,,,,,,,,11,,,,75,51
141362,control_change,21,0,7,,,,,,,,,11,11,68,,,
141366,note_on,21,0,8,,,,,,,,,12,,,,67,108
141366,note_on,0,0,8,,,,,,,,,12,,,,58,108
141370,note_on,240,0,9,,,,,,,,,13,,,,46,0
141372,note_on,240,0,10,,,,,,,,,14,,,,34,0
141405,note_on,39,0,8,,,,,,,,,12,,,,58,0
141405,note_on,0,0,8,,,,,,,,,12,,,,67,0
141420,note_on,60,0,6,,,,,,,,,10,,,,87,0
141422,note_on,60,0,7,,,,,,,,,11,,,,75,0
141426,note_on,0,0,8,,,,,,,,,12,,,,67,99
141426,note_on,21,0,8,,,,,,,,,12,,,,58,99
141465,note_on,0,0,8,,,,,,,,,12,,,,58,0
141465,note_on,39,0,8,,,,,,,,,12,,,,67,0
141480,note_on,60,0,6,,,,,,,,,10,,,,87,74
141482,note_on,60,0,7,,,,,,,,,11,,,,75,51
141486,note_on,21,0,8,,,,,,,,,12,,,,58,108
141486,note_on,0,0,8,,,,,,,,,12,,,,67,108
141525,note_on,39,0,8,,,,,,,,,12,,,,67,0
141525,note_on,0,0,8,,,,,,,,,12,,,,58,0
141540,note_on,60,0,6,,,,,,,,,10,,,,87,0
141542,note_on,60,0,7,,,,,,,,,11,,,,75,0
141546,note_on,0,0,8,,,,,,,,,12,,,,67,99
141546,note_on,21,0,8,,,,,,,,,12,,,,58,99
141585,note_on,0,0,8,,,,,,,,,12,,,,58,0
141585,note_on,39,0,8,,,,,,,,,12,,,,67,0
141600,note_on,0,0,6,,,,,,,,,10,,,,87,76
141600,set_tempo,240,1,0,,,,,,272727,,,,,,,,
141600,control_change,60,0,6,,,,,,,,,10,11,68,,,
141602,control_change,60,0,7,,,,,,,,,11,11,68,,,
141602,note_on,0,0,7,,,,,,,,,11,,,,75,52
141606,note_on,21,0,8,,,,,,,,,12,,,,67,108
141606,note_on,0,0,8,,,,,,,,,12,,,,58,108
141610,note_on,240,0,9,,,,,,,,,13,,,,46,99
141612,note_on,240,0,10,,,,,,,,,14,,,,34,93
141618,control_change,18,0,6,,,,,,,,,10,11,67,,,
141620,control_change,18,0,7,,,,,,,,,11,11,67,,,
141636,control_change,18,0,6,,,,,,,,,10,11,66,,,
141638,control_change,18,0,7,,,,,,,,,11,11,66,,,
141645,note_on,39,0,8,,,,,,,,,12,,,,58,0
141645,note_on,0,0,8,,,,,,,,,12,,,,67,0
141654,control_change,18,0,6,,,,,,,,,10,11,64,,,
141656,control_change,18,0,7,,,,,,,,,11,11,64,,,
141666,note_on,21,0,8,,,,,,,,,12,,,,58,99
141666,note_on,0,0,8,,,,,,,,,12,,,,67,99
141672,control_change,18,0,6,,,,,,,,,10,11,63,,,
141674,control_change,18,0,7,,,,,,,,,11,11,63,,,
141690,control_change,18,0,6,,,,,,,,,10,11,62,,,
141692,control_change,18,0,7,,,,,,,,,11,11,62,,,
141705,note_on,39,0,8,,,,,,,,,12,,,,67,0
141705,note_on,0,0,8,,,,,,,,,12,,,,58,0
141708,control_change,18,0,6,,,,,,,,,10,11,60,,,
141710,control_change,18,0,7,,,,,,,,,11,11,60,,,
141726,note_on,0,0,8,,,,,,,,,12,,,,67,108
141726,note_on,21,0,8,,,,,,,,,12,,,,58,108
141726,control_change,18,0,6,,,,,,,,,10,11,58,,,
141728,control_change,18,0,7,,,,,,,,,11,11,58,,,
141744,control_change,18,0,6,,,,,,,,,10,11,55,,,
141746,control_change,18,0,7,,,,,,,,,11,11,55,,,
141762,control_change,18,0,6,,,,,,,,,10,11,52,,,
141764,control_change,18,0,7,,,,,,,,,11,11,52,,,
141765,note_on,0,0,8,,,,,,,,,12,,,,58,0
141765,note_on,39,0,8,,,,,,,,,12,,,,67,0
141780,note_on,0,0,6,,,,,,,,,10,,,,86,82
141780,control_change,0,0,6,,,,,,,,,10,11,49,,,
141780,note_on,18,0,6,,,,,,,,,10,,,,87,0
141782,note_on,0,0,7,,,,,,,,,11,,,,74,56
141782,control_change,0,0,7,,,,,,,,,11,11,49,,,
141782,note_on,18,0,7,,,,,,,,,11,,,,75,0
141786,note_on,21,0,8,,,,,,,,,12,,,,58,99
141786,note_on,0,0,8,,,,,,,,,12,,,,67,99
141790,note_on,180,0,9,,,,,,,,,13,,,,46,0
141790,note_on,0,0,9,,,,,,,,,13,,,,51,99
141792,note_on,0,0,10,,,,,,,,,14,,,,39,93
141792,note_on,180,0,10,,,,,,,,,14,,,,34,0
141825,note_on,39,0,8,,,,,,,,,12,,,,67,0
141825,note_on,0,0,8,,,,,,,,,12,,,,58,0
141829,note_on,39,0,9,,,,,,,,,13,,,,51,0
141831,note_on,39,0,10,,,,,,,,,14,,,,39,0
141840,set_tempo,240,1,0,,,,,,261438,,,,,,,,
141840,note_on,60,0,6,,,,,,,,,10,,,,86,0
141840,note_on,0,0,6,,,,,,,,,10,,,,84,82
141842,note_on,60,0,7,,,,,,,,,11,,,,74,0
141842,note_on,0,0,7,,,,,,,,,11,,,,72,56
141846,note_on,21,0,8,,,,,,,,,12,,,,58,108
141846,note_on,0,0,8,,,,,,,,,12,,,,63,108
141850,note_on,21,0,9,,,,,,,,,13,,,,55,99
141852,note_on,21,0,10,,,,,,,,,14,,,,43,93
141885,note_on,0,0,8,,,,,,,,,12,,,,58,0
141885,note_on,39,0,8,,,,,,,,,12,,,,63,0
141900,note_on,60,0,6,,,,,,,,,10,,,,84,0
141900,note_on,0,0,6,,,,,,,,,10,,,,82,82
141902,note_on,60,0,7,,,,,,,,,11,,,,72,0
141902,note_on,0,0,7,,,,,,,,,11,,,,70,56
141906,note_on,0,0,8,,,,,,,,,12,,,,58,99
141906,note_on,21,0,8,,,,,,,,,12,,,,63,99
141910,note_on,60,0,9,,,,,,,,,13,,,,55,0
141912,note_on,60,0,10,,,,,,,,,14,,,,43,0
141945,note_on,0,0,8,,,,,,,,,12,,,,63,0
141945,note_on,39,0,8,,,,,,,,,12,,,,58,0
141960,note_on,0,0,6,,,,,,,,,10,,,,80,82
141960,note_on,60,0,6,,,,,,,,,10,,,,82,0
141962,note_on,0,0,7,,,,,,,,,11,,,,68,56
141962,note_on,60,0,7,,,,,,,,,11,,,,70,0
141966,note_on,0,0,8,,,,,,,,,12,,,,58,108
141966,note_on,21,0,8,,,,,,,,,12,,,,63,108
141970,note_on,60,0,9,,,,,,,,,13,,,,55,99
141972,note_on,60,0,10,,,,,,,,,14,,,,43,93
142005,note_on,0,0,8,,,,,,,,,12,,,,63,0
142005,note_on,39,0,8,,,,,,,,,12,,,,58,0
142020,note_on,60,0,6,,,,,,,,,10,,,,80,0
142020,note_on,0,0,6,,,,,,,,,10,,,,79,82
142022,note_on,60,0,7,,,,,,,,,11,,,,68,0
142022,note_on,0,0,7,,,,,,,,,11,,,,67,56
142026,note_on,0,0,8,,,,,,,,,12,,,,58,99
142026,note_on,21,0,8,,,,,,,,,12,,,,63,99
142030,note_on,60,0,9,,,,,,,,,13,,,,55,0
142032,note_on,60,0,10,,,,,,,,,14,,,,43,0
142059,note_on,39,0,6,,,,,,,,,10,,,,79,0
142061,note_on,39,0,7,,,,,,,,,11,,,,67,0
142065,note_on,39,0,8,,,,,,,,,12,,,,58,0
142065,note_on,0,0,8,,,,,,,,,12,,,,63,0
142080,control_change,21,0,6,,,,,,,,,10,11,58,,,
142080,set_tempo,240,1,0,,,,,,272727,,,,,,,,
142080,note_on,0,0,6,,,,,,,,,10,,,,77,82
142082,control_change,21,0,7,,,,,,,,,11,11,58,,,
142082,note_on,0,0,7,,,,,,,,,11,,,,65,56
142086,control_change,21,0,8,,,,,,,,,12,11,42,,,
142086,note_on,0,0,8,,,,,,,,,12,,,,60,108
142090,control_change,60,0,9,,,,,,,,,13,11,42,,,
142090,note_on,0,0,9,,,,,,,,,13,,,,56,99
142092,control_change,60,0,10,,,,,,,,,14,11,42,,,
142092,note_on,0,0,10,,,,,,,,,14,,,,44,93
142099,control_change,19,0,6,,,,,,,,,10,11,57,,,
142101,control_change,19,0,7,,,,,,,,,11,11,57,,,
142119,control_change,20,0,6,,,,,,,,,10,11,56,,,
142121,control_change,20,0,7,,,,,,,,,11,11,56,,,
142122,control_change,36,0,8,,,,,,,,,12,11,43,,,
142125,note_on,3,0,8,,,,,,,,,12,,,,60,0
142126,control_change,36,0,9,,,,,,,,,13,11,43,,,
142128,control_change,36,0,10,,,,,,,,,14,11,43,,,
142139,control_change,20,0,6,,,,,,,,,10,11,55,,,
142141,control_change,20,0,7,,,,,,,,,11,11,55,,,
142146,note_on,21,0,8,,,,,,,,,12,,,,60,99
142152,control_change,13,0,6,,,,,,,,,10,11,58,,,
142154,control_change,13,0,7,,,,,,,,,11,11,58,,,
142158,control_change,12,0,8,,,,,,,,,12,11,45,,,
142162,control_change,36,0,9,,,,,,,,,13,11,45,,,
142164,control_change,36,0,10,,,,,,,,,14,11,45,,,
142176,control_change,24,0,6,,,,,,,,,10,11,60,,,
142178,control_change,24,0,7,,,,,,,,,11,11,60,,,
142185,note_on,27,0,8,,,,,,,,,12,,,,60,0
142194,control_change,9,0,8,,,,,,,,,12,11,46,,,
142198,control_change,36,0,9,,,,,,,,,13,11,46,,,
142200,control_change,24,0,6,,,,,,,,,10,11,62,,,
142200,control_change,36,0,10,,,,,,,,,14,11,46,,,
142202,control_change,24,0,7,,,,,,,,,11,11,62,,,
142206,note_on,12,0,8,,,,,,,,,12,,,,60,108
142224,control_change,24,0,6,,,,,,,,,10,11,63,,,
142226,control_change,24,0,7,,,,,,,,,11,11,63,,,
142230,control_change,24,0,8,,,,,,,,,12,11,48,,,
142234,control_change,36,0,9,,,,,,,,,13,11,48,,,
142236,control_change,36,0,10,,,,,,,,,14,11,48,,,
142245,note_on,15,0,8,,,,,,,,,12,,,,60,0
142248,control_change,24,0,6,,,,,,,,,10,11,64,,,
142250,control_change,24,0,7,,,,,,,,,11,11,64,,,
142260,note_on,12,0,6,,,,,,,,,10,,,,77,0
142260,note_on,0,0,6,,,,,,,,,10,,,,80,82
142262,note_on,12,0,7,,,,,,,,,11,,,,65,0
142262,note_on,0,0,7,,,,,,,,,11,,,,68,56
142266,note_on,0,0,8,,,,,,,,,12,,,,60,99
142266,control_change,21,0,8,,,,,,,,,12,11,49,,,
142270,control_change,36,0,9,,,,,,,,,13,11,49,,,
142272,control_change,36,0,10,,,,,,,,,14,11,49,,,
142272,control_change,12,0,6,,,,,,,,,10,11,66,,,
142274,control_change,12,0,7,,,,,,,,,11,11,66,,,
142296,control_change,24,0,6,,,,,,,,,10,11,67,,,
142298,control_change,24,0,7,,,,,,,,,11,11,67,,,
142299,note_on,3,0,6,,,,,,,,,10,,,,80,0
142301,note_on,3,0,7,,,,,,,,,11,,,,68,0
142302,control_change,36,0,8,,,,,,,,,12,11,51,,,
142305,note_on,3,0,8,,,,,,,,,12,,,,60,0
142306,control_change,36,0,9,,,,,,,,,13,11,51,,,
142308,control_change,36,0,10,,,,,,,,,14,11,51,,,
142320,note_on,0,0,6,,,,,,,,,10,,,,84,74
142320,set_tempo,240,1,0,,,,,,261438,,,,,,,,
142320,control_change,21,0,6,,,,,,,,,10,11,68,,,
142322,note_on,0,0,7,,,,,,,,,11,,,,72,51
142322,control_change,21,0,7,,,,,,,,,11,11,68,,,
142326,note_on,21,0,8,,,,,,,,,12,,,,62,108
142338,control_change,12,0,8,,,,,,,,,12,11,52,,,
142342,control_change,36,0,9,,,,,,,,,13,11,52,,,
142344,control_change,36,0,10,,,,,,,,,14,11,52,,,
142365,note_on,27,0,8,,,,,,,,,12,,,,62,0
142374,control_change,9,0,8,,,,,,,,,12,11,54,,,
142378,control_change,36,0,9,,,,,,,,,13,11,54,,,
142380,control_change,36,0,10,,,,,,,,,14,11,54,,,
142380,note_on,60,0,6,,,,,,,,,10,,,,84,0
142382,note_on,60,0,7,,,,,,,,,11,,,,72,0
142386,note_on,12,0,8,,,,,,,,,12,,,,62,99
142410,control_change,24,0,8,,,,,,,,,12,11,55,,,
142414,control_change,36,0,9,,,,,,,,,13,11,55,,,
142416,control_change,36,0,10,,,,,,,,,14,11,55,,,
142425,note_on,15,0,8,,,,,,,,,12,,,,62,0
142440,note_on,60,0,6,,,,,,,,,10,,,,84,74
142442,note_on,60,0,7,,,,,,,,,11,,,,72,51
142446,control_change,21,0,8,,,,,,,,,12,11,57,,,
142446,note_on,0,0,8,,,,,,,,,12,,,,62,108
142450,control_change,36,0,9,,,,,,,,,13,11,57,,,
142452,control_change,36,0,10,,,,,,,,,14,11,57,,,
142482,control_change,36,0,8,,,,,,,,,12,11,58,,,
142485,note_on,3,0,8,,,,,,,,,12,,,,62,0
142486,control_change,36,0,9,,,,,,,,,13,11,58,,,
142488,control_change,36,0,10,,,,,,,,,14,11,58,,,
142500,note_on,60,0,6,,,,,,,,,10,,,,84,0
142502,note_on,60,0,7,,,,,,,,,11,,,,72,0
142506,note_on,21,0,8,,,,,,,,,12,,,,62,99
142518,control_change,12,0,8,,,,,,,,,12,11,59,,,
142522,control_change,36,0,9,,,,,,,,,13,11,59,,,
142524,control_change,36,0,10,,,,,,,,,14,11,59,,,
142545,note_on,27,0,8,,,,,,,,,12,,,,62,0
142554,control_change,9,0,8,,,,,,,,,12,11,60,,,
142558,control_change,36,0,9,,,,,,,,,13,11,60,,,
142560,note_on,0,0,6,,,,,,,,,10,,,,82,76
142560,control_change,60,0,6,,,,,,,,,10,11,68,,,
142560,set_tempo,240,1,0,,,,,,272727,,,,,,,,
142560,control_change,36,0,10,,,,,,,,,14,11,60,,,
142562,note_on,0,0,7,,,,,,,,,11,,,,70,52
142562,control_change,60,0,7,,,,,,,,,11,11,68,,,
142566,note_on,12,0,8,,,,,,,,,12,,,,63,108
142570,note_on,0,0,9,,,,,,,,,13,,,,55,99
142570,note_on,12,0,9,,,,,,,,,13,,,,56,0
142572,note_on,0,0,10,,,,,,,,,14,,,,43,93
142572,note_on,12,0,10,,,,,,,,,14,,,,44,0
142584,control_change,24,0,6,,,,,,,,,10,11,67,,,
142586,control_change,24,0,7,,,,,,,,,11,11,67,,,
142598,control_change,32,0,8,,,,,,,,,12,11,61,,,
142602,control_change,32,0,9,,,,,,,,,13,11,61,,,
142604,control_change,32,0,10,,,,,,,,,14,11,61,,,
142605,note_on,7,0,8,,,,,,,,,12,,,,63,0
142608,control_change,24,0,6,,,,,,,,,10,11,66,,,
142610,control_change,24,0,7,,,,,,,,,11,11,66,,,
142626,note_on,21,0,8,,,,,,,,,12,,,,63,99
142630,control_change,4,0,8,,,,,,,,,12,11,60,,,
142632,control_change,24,0,6,,,,,,,,,10,11,64,,,
142634,control_change,24,0,7,,,,,,,,,11,11,64,,,
142634,control_change,32,0,9,,,,,,,,,13,11,60,,,
142636,control_change,32,0,10,,,,,,,,,14,11,60,,,
142656,control_change,24,0,6,,,,,,,,,10,11,63,,,
142658,control_change,24,0,7,,,,,,,,,11,11,63,,,
142662,control_change,32,0,8,,,,,,,,,12,11,59,,,
142665,note_on,3,0,8,,,,,,,,,12,,,,63,0
142666,control_change,32,0,9,,,,,,,,,13,11,59,,,
142668,control_change,32,0,10,,,,,,,,,14,11,59,,,
142680,control_change,24,0,6,,,,,,,,,10,11,62,,,
142682,control_change,24,0,7,,,,,,,,,11,11,62,,,
142686,note_on,21,0,8,,,,,,,,,12,,,,63,108
142694,control_change,8,0,8,,,,,,,,,12,11,58,,,
142698,control_change,32,0,9,,,,,,,,,13,11,58,,,
142700,control_change,32,0,10,,,,,,,,,14,11,58,,,
142704,control_change,24,0,6,,,,,,,,,10,11,60,,,
142706,control_change,24,0,7,,,,,,,,,11,11,60,,,
142725,note_on,31,0,8,,,,,,,,,12,,,,63,0
142726,control_change,1,0,8,,,,,,,,,12,11,57,,,
142728,control_change,24,0,6,,,,,,,,,10,11,58,,,
142730,control_change,32,0,9,,,,,,,,,13,11,57,,,
142730,control_change,24,0,7,,,,,,,,,11,11,58,,,
142732,control_change,32,0,10,,,,,,,,,14,11,57,,,
142746,note_on,20,0,8,,,,,,,,,12,,,,63,99
142752,control_change,24,0,6,,,,,,,,,10,11,55,,,
142754,control_change,24,0,7,,,,,,,,,11,11,55,,,
142758,control_change,12,0,8,,,,,,,,,12,11,55,,,
142762,control_change,32,0,9,,,,,,,,,13,11,55,,,
142764,control_change,32,0,10,,,,,,,,,14,11,55,,,
142776,control_change,24,0,6,,,,,,,,,10,11,52,,,
142778,control_change,24,0,7,,,,,,,,,11,11,52,,,
142785,note_on,27,0,8,,,,,,,,,12,,,,63,0
142790,control_change,5,0,8,,,,,,,,,12,11,54,,,
142794,control_change,32,0,9,,,,,,,,,13,11,54,,,
142796,control_change,32,0,10,,,,,,,,,14,11,54,,,
142800,note_on,0,0,6,,,,,,,,,10,,,,80,82
142800,set_tempo,240,1,0,,,,,,261438,,,,,,,,
142800,control_change,0,0,6,,,,,,,,,10,11,49,,,
142800,note_on,24,0,6,,,,,,,,,10,,,,82,0
142802,note_on,24,0,7,,,,,,,,,11,,,,70,0
142802,control_change,0,0,7,,,,,,,,,11,11,49,,,
142802,note_on,0,0,7,,,,,,,,,11,,,,68,56
142806,note_on,16,0,8,,,,,,,,,12,,,,58,108
142822,control_change,16,0,8,,,,,,,,,12,11,52,,,
142826,control_change,32,0,9,,,,,,,,,13,11,52,,,
142828,control_change,32,0,10,,,,,,,,,14,11,52,,,
142845,note_on,23,0,8,,,,,,,,,12,,,,58,0
142854,control_change,9,0,8,,,,,,,,,12,11,51,,,
142858,control_change,32,0,9,,,,,,,,,13,11,51,,,
142860,note_on,60,0,6,,,,,,,,,10,,,,80,0
142860,note_on,0,0,6,,,,,,,,,10,,,,79,82
142860,control_change,32,0,10,,,,,,,,,14,11,51,,,
142862,note_on,0,0,7,,,,,,,,,11,,,,67,56
142862,note_on,60,0,7,,,,,,,,,11,,,,68,0
142866,note_on,12,0,8,,,,,,,,,12,,,,58,99
142886,control_change,20,0,8,,,,,,,,,12,11,49,,,
142890,control_change,32,0,9,,,,,,,,,13,11,49,,,
142892,control_change,32,0,10,,,,,,,,,14,11,49,,,
142905,note_on,19,0,8,,,,,,,,,12,,,,58,0
142918,control_change,13,0,8,,,,,,,,,12,11,48,,,
142920,note_on,0,0,6,,,,,,,,,10,,,,77,82
142920,note_on,60,0,6,,,,,,,,,10,,,,79,0
142922,note_on,60,0,7,,,,,,,,,11,,,,67,0
142922,control_change,32,0,9,,,,,,,,,13,11,48,,,
142922,note_on,0,0,7,,,,,,,,,11,,,,65,56
142924,control_change,32,0,10,,,,,,,,,14,11,48,,,
142926,note_on,8,0,8,,,,,,,,,12,,,,58,108
142950,control_change,24,0,8,,,,,,,,,12,11,46,,,
142954,control_change,32,0,9,,,,,,,,,13,11,46,,,
142956,control_change,32,0,10,,,,,,,,,14,11,46,,,
142965,note_on,15,0,8,,,,,,,,,12,,,,58,0
142980,note_on,60,0,6,,,,,,,,,10,,,,77,0
142980,note_on,0,0,6,,,,,,,,,10,,,,75,82
142982,control_change,17,0,8,,,,,,,,,12,11,45,,,
142982,note_on,0,0,7,,,,,,,,,11,,,,63,56
142982,note_on,60,0,7,,,,,,,,,11,,,,65,0
142986,control_change,32,0,9,,,,,,,,,13,11,45,,,
142986,note_on,4,0,8,,,,,,,,,12,,,,58,99
142988,control_change,32,0,10,,,,,,,,,14,11,45,,,
143014,control_change,28,0,8,,,,,,,,,12,11,43,,,
143018,control_change,32,0,9,,,,,,,,,13,11,43,,,
143019,note_on,39,0,6,,,,,,,,,10,,,,75,0
143020,control_change,32,0,10,,,,,,,,,14,11,43,,,
143021,note_on,39,0,7,,,,,,,,,11,,,,63,0
143025,note_on,11,0,8,,,,,,,,,12,,,,58,0
143040,control_change,21,0,6,,,,,,,,,10,11,58,,,
143040,set_tempo,240,1,0,,,,,,272727,,,,,,,,
143040,note_on,0,0,6,,,,,,,,,10,,,,77,82
143042,control_change,21,0,7,,,,,,,,,11,11,58,,,
143042,note_on,0,0,7,,,,,,,,,11,,,,65,56
143045,note_on,27,0,9,,,,,,,,,13,,,,55,0
143046,control_change,21,0,8,,,,,,,,,12,11,42,,,
143046,note_on,0,0,8,,,,,,,,,12,,,,60,108
143047,note_on,27,0,10,,,,,,,,,14,,,,43,0
143050,note_on,0,0,9,,,,,,,,,13,,,,56,99
143050,control_change,5,0,9,,,,,,,,,13,11,42,,,
143052,note_on,0,0,10,,,,,,,,,14,,,,44,93
143052,control_change,5,0,10,,,,,,,,,14,11,42,,,
143059,control_change,19,0,6,,,,,,,,,10,11,57,,,
143061,control_change,19,0,7,,,,,,,,,11,11,57,,,
143078,control_change,32,0,8,,,,,,,,,12,11,43,,,
143079,control_change,20,0,6,,,,,,,,,10,11,56,,,
143081,control_change,20,0,7,,,,,,,,,11,11,56,,,
143082,control_change,32,0,9,,,,,,,,,13,11,43,,,
143084,control_change,32,0,10,,,,,,,,,14,11,43,,,
143085,note_on,7,0,8,,,,,,,,,12,,,,60,0
143099,control_change,20,0,6,,,,,,,,,10,11,55,,,
143101,control_change,20,0,7,,,,,,,,,11,11,55,,,
143106,note_on,21,0,8,,,,,,,,,12,,,,60,99
143110,control_change,4,0,8,,,,,,,,,12,11,45,,,
143112,control_change,13,0,6,,,,,,,,,10,11,58,,,
143114,control_change,13,0,7,,,,,,,,,11,11,58,,,
143114,control_change,32,0,9,,,,,,,,,13,11,45,,,
143116,control_change,32,0,10,,,,,,,,,14,11,45,,,
143136,control_change,24,0,6,,,,,,,,,10,11,60,,,
143138,control_change,24,0,7,,,,,,,,,11,11,60,,,
143142,control_change,32,0,8,,,,,,,,,12,11,46,,,
143145,note_on,3,0,8,,,,,,,,,12,,,,60,0
143146,control_change,32,0,9,,,,,,,,,13,11,46,,,
143148,control_change,32,0,10,,,,,,,,,14,11,46,,,
143160,control_change,24,0,6,,,,,,,,,10,11,62,,,
143162,control_change,24,0,7,,,,,,,,,11,11,62,,,
143166,note_on,21,0,8,,,,,,,,,12,,,,60,108
143174,control_change,8,0,8,,,,,,,,,12,11,48,,,
143178,control_change,32,0,9,,,,,,,,,13,11,48,,,
143180,control_change,32,0,10,,,,,,,,,14,11,48,,,
143184,control_change,24,0,6,,,,,,,,,10,11,63,,,
143186,control_change,24,0,7,,,,,,,,,11,11,63,,,
143205,note_on,31,0,8,,,,,,,,,12,,,,60,0
143206,control_change,1,0,8,,,,,,,,,12,11,49,,,
143208,control_change,24,0,6,,,,,,,,,10,11,64,,,
143210,control_change,24,0,7,,,,,,,,,11,11,64,,,
143210,control_change,32,0,9,,,,,,,,,13,11,49,,,
143212,control_change,32,0,10,,,,,,,,,14,11,49,,,
143220,note_on,12,0,6,,,,,,,,,10,,,,77,0
143220,note_on,0,0,6,,,,,,,,,10,,,,80,82
143222,note_on,12,0,7,,,,,,,,,11,,,,65,0
143222,note_on,0,0,7,,,,,,,,,11,,,,68,56
143226,note_on,20,0,8,,,,,,,,,12,,,,60,99
143232,control_change,12,0,6,,,,,,,,,10,11,66,,,
143234,control_change,12,0,7,,,,,,,,,11,11,66,,,
143238,control_change,12,0,8,,,,,,,,,12,11,51,,,
143242,control_change,32,0,9,,,,,,,,,13,11,51,,,
143244,control_change,32,0,10,,,,,,,,,14,11,51,,,
143256,control_change,24,0,6,,,,,,,,,10,11,67,,,
143258,control_change,24,0,7,,,,,,,,,11,11,67,,,
143259,note_on,3,0,6,,,,,,,,,10,,,,80,0
143261,note_on,3,0,7,,,,,,,,,11,,,,68,0
143265,note_on,27,0,8,,,,,,,,,12,,,,60,0
143270,control_change,5,0,8,,,,,,,,,12,11,52,,,
143274,control_change,32,0,9,,,,,,,,,13,11,52,,,
143276,control_change,32,0,10,,,,,,,,,14,11,52,,,
143280,control_change,21,0,6,,,,,,,,,10,11,68,,,
143280,set_tempo,240,1,0,,,,,,261438,,,,,,,,
143280,note_on,0,0,6,,,,,,,,,10,,,,84,74
143282,control_change,21,0,7,,,,,,,,,11,11,68,,,
143282,note_on,0,0,7,,,,,,,,,11,,,,72,51
143286,note_on,16,0,8,,,,,,,,,12,,,,62,108
143302,control_change,16,0,8,,,,,,,,,12,11,54,,,
143306,control_change,32,0,9,,,,,,,,,13,11,54,,,
143308,control_change,32,0,10,,,,,,,,,14,11,54,,,
143325,note_on,23,0,8,,,,,,,,,12,,,,62,0
143334,control_change,9,0,8,,,,,,,,,12,11,55,,,
143338,control_change,32,0,9,,,,,,,,,13,11,55,,,
143340,note_on,60,0,6,,,,,,,,,10,,,,84,0
143340,control_change,32,0,10,,,,,,,,,14,11,55,,,
143342,note_on,60,0,7,,,,,,,,,11,,,,72,0
143346,note_on,12,0,8,,,,,,,,,12,,,,62,99
143366,control_change,20,0,8,,,,,,,,,12,11,57,,,
143370,control_change,32,0,9,,,,,,,,,13,11,57,,,
143372,control_change,32,0,10,,,,,,,,,14,11,57,,,
143385,note_on,19,0,8,,,,,,,,,12,,,,62,0
143398,control_change,13,0,8,,,,,,,,,12,11,58,,,
143400,note_on,60,0,6,,,,,,,,,10,,,,84,74
143402,control_change,32,0,9,,,,,,,,,13,11,58,,,
143402,note_on,60,0,7,,,,,,,,,11,,,,72,51
143404,control_change,32,0,10,,,,,,,,,14,11,58,,,
143406,note_on,8,0,8,,,,,,,,,12,,,,62,108
143430,control_change,24,0,8,,,,,,,,,12,11,59,,,
143434,control_change,32,0,9,,,,,,,,,13,11,59,,,
143436,control_change,32,0,10,,,,,,,,,14,11,59,,,
143445,note_on,15,0,8,,,,,,,,,12,,,,62,0
143460,note_on,60,0,6,,,,,,,,,10,,,,84,0
143462,control_change,17,0,8,,,,,,,,,12,11,60,,,
143462,note_on,60,0,7,,,,,,,,,11,,,,72,0
143466,control_change,32,0,9,,,,,,,,,13,11,60,,,
143466,note_on,4,0,8,,,,,,,,,12,,,,62,99
143468,control_change,32,0,10,,,,,,,,,14,11,60,,,
143494,control_change,28,0,8,,,,,,,,,12,11,61,,,
143498,control_change,32,0,9,,,,,,,,,13,11,61,,,
143500,control_change,32,0,10,,,,,,,,,14,11,61,,,
143505,note_on,11,0,8,,,,,,,,,12,,,,62,0
143520,set_tempo,240,1,0,,,,,,272727,,,,,,,,
143520,note_on,0,0,6,,,,,,,,,10,,,,82,76
143520,control_change,60,0,6,,,,,,,,,10,11,68,,,
143522,note_on,0,0,7,,,,,,,,,11,,,,70,52
143522,control_change,60,0,7,,,,,,,,,11,11,68,,,
143526,control_change,21,0,8,,,,,,,,,12,11,62,,,
143526,note_on,0,0,8,,,,,,,,,12,,,,63,108
143530,note_on,32,0,9,,,,,,,,,13,,,,56,0
143530,control_change,0,0,9,,,,,,,,,13,11,62,,,
143530,note_on,0,0,9,,,,,,,,,13,,,,55,99
143532,note_on,32,0,10,,,,,,,,,14,,,,44,0
143532,note_on,0,0,10,,,,,,,,,14,,,,43,93
143532,control_change,0,0,10,,,,,,,,,14,11,62,,,
143544,control_change,24,0,6,,,,,,,,,10,11,67,,,
143546,control_change,24,0,7,,,,,,,,,11,11,67,,,
143558,control_change,32,0,8,,,,,,,,,12,11,61,,,
143562,control_change,32,0,9,,,,,,,,,13,11,61,,,
143564,control_change,32,0,10,,,,,,,,,14,11,61,,,
143565,note_on,7,0,8,,,,,,,,,12,,,,63,0
143568,control_change,24,0,6,,,,,,,,,10,11,66,,,
143570,control_change,24,0,7,,,,,,,,,11,11,66,,,
143586,note_on,21,0,8,,,,,,,,,12,,,,63,99
143590,control_change,4,0,8,,,,,,,,,12,11,60,,,
143592,control_change,24,0,6,,,,,,,,,10,11,64,,,
143594,control_change,24,0,7,,,,,,,,,11,11,64,,,
143594,control_change,32,0,9,,,,,,,,,13,11,60,,,
143596,control_change,32,0,10,,,,,,,,,14,11,60,,,
143616,control_change,24,0,6,,,,,,,,,10,11,63,,,
143618,control_change,24,0,7,,,,,,,,,11,11,63,,,
143622,control_change,32,0,8,,,,,,,,,12,11,59,,,
143625,note_on,3,0,8,,,,,,,,,12,,,,63,0
143626,control_change,32,0,9,,,,,,,,,13,11,59,,,
143628,control_change,32,0,10,,,,,,,,,14,11,59,,,
143640,control_change,24,0,6,,,,,,,,,10,11,62,,,
143642,control_change,24,0,7,,,,,,,,,11,11,62,,,
143646,note_on,21,0,8,,,,,,,,,12,,,,63,108
143654,control_change,8,0,8,,,,,,,,,12,11,58,,,
143658,control_change,32,0,9,,,,,,,,,13,11,58,,,
143660,control_change,32,0,10,,,,,,,,,14,11,58,,,
143664,control_change,24,0,6,,,,,,,,,10,11,60,,,
143666,control_change,24,0,7,,,,,,,,,11,11,60,,,
143685,note_on,31,0,8,,,,,,,,,12,,,,63,0
143686,control_change,1,0,8,,,,,,,,,12,11,57,,,
143688,control_change,24,0,6,,,,,,,,,10,11,58,,,
143690,control_change,32,0,9,,,,,,,,,13,11,57,,,
143690,control_change,24,0,7,,,,,,,,,11,11,58,,,
143692,control_change,32,0,10,,,,,,,,,14,11,57,,,
143706,note_on,20,0,8,,,,,,,,,12,,,,63,99
143712,control_change,24,0,6,,,,,,,,,10,11,55,,,
143714,control_change,24,0,7,,,,,,,,,11,11,55,,,
143718,control_change,12,0,8,,,,,,,,,12,11,55,,,
143722,control_change,32,0,9,,,,,,,,,13,11,55,,,
143724,control_change,32,0,10,,,,,,,,,14,11,55,,,
143736,control_change,24,0,6,,,,,,,,,10,11,52,,,
143738,control_change,24,0,7,,,,,,,,,11,11,52,,,
143745,note_on,27,0,8,,,,,,,,,12,,,,63,0
143750,control_change,5,0,8,,,,,,,,,12,11,54,,,
143754,control_change,32,0,9,,,,,,,,,13,11,54,,,
143756,control_change,32,0,10,,,,,,,,,14,11,54,,,
143760,note_on,0,0,6,,,,,,,,,10,,,,80,82
143760,set_tempo,240,1,0,,,,,,261438,,,,,,,,
143760,note_on,24,0,6,,,,,,,,,10,,,,82,0
143760,control_change,0,0,6,,,,,,,,,10,11,49,,,
143762,control_change,0,0,7,,,,,,,,,11,11,49,,,
143762,note_on,24,0,7,,,,,,,,,11,,,,70,0
143762,note_on,0,0,7,,,,,,,,,11,,,,68,56
143766,note_on,16,0,8,,,,,,,,,12,,,,63,108
143782,control_change,16,0,8,,,,,,,,,12,11,52,,,
143786,control_change,32,0,9,,,,,,,,,13,11,52,,,
143788,control_change,32,0,10,,,,,,,,,14,11,52,,,
143805,note_on,23,0,8,,,,,,,,,12,,,,63,0
143814,control_change,9,0,8,,,,,,,,,12,11,51,,,
143818,control_change,32,0,9,,,,,,,,,13,11,51,,,
143820,control_change,32,0,10,,,,,,,,,14,11,51,,,
143820,note_on,60,0,6,,,,,,,,,10,,,,80,0
143820,note_on,0,0,6,,,,,,,,,10,,,,79,82
143822,note_on,60,0,7,,,,,,,,,11,,,,68,0
143822,note_on,0,0,7,,,,,,,,,11,,,,67,56
143826,note_on,12,0,8,,,,,,,,,12,,,,63,99
143846,control_change,20,0,8,,,,,,,,,12,11,49,,,
143850,control_change,32,0,9,,,,,,,,,13,11,49,,,
143852,control_change,32,0,10,,,,,,,,,14,11,49,,,
143865,note_on,19,0,8,,,,,,,,,12,,,,63,0
143878,control_change,13,0,8,,,,,,,,,12,11,48,,,
143880,note_on,0,0,6,,,,,,,,,10,,,,77,82
143880,note_on,60,0,6,,,,,,,,,10,,,,79,0
143882,control_change,32,0,9,,,,,,,,,13,11,48,,,
143882,note_on,0,0,7,,,,,,,,,11,,,,65,56
143882,note_on,60,0,7,,,,,,,,,11,,,,67,0
143884,control_change,32,0,10,,,,,,,,,14,11,48,,,
143886,note_on,8,0,8,,,,,,,,,12,,,,63,108
143910,control_change,24,0,8,,,,,,,,,12,11,46,,,
143914,control_change,32,0,9,,,,,,,,,13,11,46,,,
143916,control_change,32,0,10,,,,,,,,,14,11,46,,,
143925,note_on,15,0,8,,,,,,,,,12,,,,63,0
143940,note_on,0,0,6,,,,,,,,,10,,,,75,82
143940,note_on,60,0,6,,,,,,,,,10,,,,77,0
143942,control_change,17,0,8,,,,,,,,,12,11,45,,,
143942,note_on,60,0,7,,,,,,,,,11,,,,65,0
143942,note_on,0,0,7,,,,,,,,,11,,,,63,56
143946,note_on,4,0,8,,,,,,,,,12,,,,63,99
143946,control_change,32,0,9,,,,,,,,,13,11,45,,,
143948,control_change,32,0,10,,,,,,,,,14,11,45,,,
143974,control_change,28,0,8,,,,,,,,,12,11,43,,,
143978,control_change,32,0,9,,,,,,,,,13,11,43,,,
143979,note_on,39,0,6,,,,,,,,,10,,,,75,0
143980,control_change,32,0,10,,,,,,,,,14,11,43,,,
143981,note_on,39,0,7,,,,,,,,,11,,,,63,0
143985,note_on,11,0,8,,,,,,,,,12,,,,63,0
144000,note_on,0,0,6,,,,,,,,,10,,,,82,110
144000,control_change,0,0,6,,,,,,,,,10,11,42,,,
144000,control_change,21,0,6,,,,,,,,,10,11,49,,,
144000,set_tempo,240,1,0,,,,,,272727,,,,,,,,
144002,note_on,0,0,7,,,,,,,,,11,,,,70,76
144002,control_change,0,0,7,,,,,,,,,11,11,42,,,
144002,control_change,21,0,7,,,,,,,,,11,11,49,,,
144005,note_on,27,0,9,,,,,,,,,13,,,,55,0
144006,note_on,0,0,8,,,,,,,,,12,,,,63,108
144006,control_change,21,0,8,,,,,,,,,12,11,42,,,
144007,note_on,27,0,10,,,,,,,,,14,,,,43,0
144010,note_on,0,0,9,,,,,,,,,13,,,,60,99
144010,control_change,5,0,9,,,,,,,,,13,11,42,,,
144012,note_on,0,0,10,,,,,,,,,14,,,,48,93
144012,control_change,5,0,10,,,,,,,,,14,11,42,,,
144045,note_on,39,0,8,,,,,,,,,12,,,,63,0
144066,note_on,21,0,8,,,,,,,,,12,,,,63,99
144105,note_on,39,0,8,,,,,,,,,12,,,,63,0
144120,note_on,0,0,6,,,,,,,,,10,,,,80,110
144120,note_on,120,0,6,,,,,,,,,10,,,,82,0
144122,note_on,120,0,7,,,,,,,,,11,,,,70,0
144122,note_on,0,0,7,,,,,,,,,11,,,,68,76
144126,note_on,21,0,8,,,,,,,,,12,,,,63,108
144165,note_on,39,0,8,,,,,,,,,12,,,,63,0
144180,note_on,60,0,6,,,,,,,,,10,,,,80,0
144182,note_on,60,0,7,,,,,,,,,11,,,,68,0
144186,note_on,21,0,8,,,,,,,,,12,,,,63,99
144225,note_on,39,0,8,,,,,,,,,12,,,,63,0
144240,note_on,60,0,6,,,,,,,,,10,,,,80,110
144240,set_tempo,240,1,0,,,,,,263736,,,,,,,,
144242,note_on,60,0,7,,,,,,,,,11,,,,68,76
144245,note_on,235,0,9,,,,,,,,,13,,,,60,0
144245,note_on,0,0,2,,,,,,,,,1,,,,63,97
144245,note_on,0,0,2,,,,,,,,,1,,,,75,97
144245,control_change,5880,0,2,,,,,,,,,1,11,32,,,
144246,note_on,21,0,8,,,,,,,,,12,,,,63,108
144247,note_on,235,0,10,,,,,,,,,14,,,,48,0
144250,note_on,5,0,9,,,,,,,,,13,,,,58,99
144252,note_on,5,0,10,,,,,,,,,14,,,,46,93
144269,control_change,24,0,2,,,,,,,,,1,11,33,,,
144285,note_on,39,0,8,,,,,,,,,12,,,,63,0
144293,control_change,24,0,2,,,,,,,,,1,11,34,,,
144306,note_on,21,0,8,,,,,,,,,12,,,,63,99
144317,control_change,24,0,2,,,,,,,,,1,11,35,,,
144341,control_change,24,0,2,,,,,,,,,1,11,36,,,
144345,note_on,39,0,8,,,,,,,,,12,,,,63,0
144360,note_on,0,0,6,,,,,,,,,10,,,,79,110
144360,note_on,120,0,6,,,,,,,,,10,,,,80,0
144362,note_on,120,0,7,,,,,,,,,11,,,,68,0
144362,note_on,0,0,7,,,,,,,,,11,,,,67,76
144365,control_change,24,0,2,,,,,,,,,1,11,37,,,
144366,note_on,21,0,8,,,,,,,,,12,,,,63,108
144389,control_change,24,0,2,,,,,,,,,1,11,38,,,
144405,note_on,39,0,8,,,,,,,,,12,,,,63,0
144413,control_change,24,0,2,,,,,,,,,1,11,39,,,
144420,note_on,60,0,6,,,,,,,,,10,,,,79,0
144422,note_on,60,0,7,,,,,,,,,11,,,,67,0
144426,note_on,21,0,8,,,,,,,,,12,,,,63,99
144437,control_change,24,0,2,,,,,,,,,1,11,40,,,
144461,control_change,24,0,2,,,,,,,,,1,11,41,,,
144465,note_on,39,0,8,,,,,,,,,12,,,,63,0
144480,note_on,60,0,6,,,,,,,,,10,,,,79,110
144480,set_tempo,240,1,0,,,,,,275229,,,,,,,,
144482,note_on,60,0,7,,,,,,,,,11,,,,67,76
144485,note_on,235,0,9,,,,,,,,,13,,,,58,0
144485,control_change,24,0,2,,,,,,,,,1,11,42,,,
144486,note_on,21,0,8,,,,,,,,,12,,,,63,108
144487,note_on,235,0,10,,,,,,,,,14,,,,46,0
144490,note_on,5,0,9,,,,,,,,,13,,,,56,99
144492,note_on,5,0,10,,,,,,,,,14,,,,44,93
144509,control_change,24,0,2,,,,,,,,,1,11,43,,,
144525,note_on,39,0,8,,,,,,,,,12,,,,63,0
144533,control_change,24,0,2,,,,,,,,,1,11,44,,,
144546,note_on,21,0,8,,,,,,,,,12,,,,63,99
144557,control_change,24,0,2,,,,,,,,,1,11,45,,,
144581,control_change,24,0,2,,,,,,,,,1,11,46,,,
144585,note_on,39,0,8,,,,,,,,,12,,,,63,0
144600,note_on,120,0,6,,,,,,,,,10,,,,79,0
144600,note_on,0,0,6,,,,,,,,,10,,,,77,110
144602,note_on,120,0,7,,,,,,,,,11,,,,67,0
144602,note_on,0,0,7,,,,,,,,,11,,,,65,76
144605,control_change,24,0,2,,,,,,,,,1,11,47,,,
144606,note_on,21,0,8,,,,,,,,,12,,,,63,108
144629,control_change,24,0,2,,,,,,,,,1,11,48,,,
144645,note_on,39,0,8,,,,,,,,,12,,,,63,0
144653,control_change,24,0,2,,,,,,,,,1,11,49,,,
144660,note_on,60,0,6,,,,,,,,,10,,,,77,0
144662,note_on,60,0,7,,,,,,,,,11,,,,65,0
144666,note_on,21,0,8,,,,,,,,,12,,,,63,99
144677,control_change,24,0,2,,,,,,,,,1,11,50,,,
144701,control_change,24,0,2,,,,,,,,,1,11,51,,,
144705,note_on,39,0,8,,,,,,,,,12,,,,63,0
144720,set_tempo,240,1,0,,,,,,266667,,,,,,,,
144720,note_on,60,0,6,,,,,,,,,10,,,,77,110
144722,note_on,60,0,7,,,,,,,,,11,,,,65,76
144725,note_on,235,0,9,,,,,,,,,13,,,,56,0
144725,control_change,24,0,2,,,,,,,,,1,11,52,,,
144726,note_on,21,0,8,,,,,,,,,12,,,,63,108
144727,note_on,235,0,10,,,,,,,,,14,,,,44,0
144730,note_on,5,0,9,,,,,,,,,13,,,,57,99
144732,note_on,5,0,10,,,,,,,,,14,,,,45,93
144765,note_on,39,0,8,,,,,,,,,12,,,,63,0
144786,note_on,21,0,8,,,,,,,,,12,,,,63,99
144825,note_on,39,0,8,,,,,,,,,12,,,,63,0
144840,note_on,0,0,6,,,,,,,,,10,,,,78,110
144840,note_on,120,0,6,,,,,,,,,10,,,,77,0
144842,note_on,120,0,7,,,,,,,,,11,,,,65,0
144842,note_on,0,0,7,,,,,,,,,11,,,,66,76
144846,note_on,21,0,8,,,,,,,,,12,,,,63,108
144885,note_on,39,0,8,,,,,,,,,12,,,,63,0
144900,note_on,60,0,6,,,,,,,,,10,,,,78,0
144902,note_on,60,0,7,,,,,,,,,11,,,,66,0
144906,note_on,21,0,8,,,,,,,,,12,,,,63,99
144945,note_on,39,0,8,,,,,,,,,12,,,,63,0
144960,note_on,60,0,6,,,,,,,,,10,,,,77,97
144960,set_tempo,240,1,0,,,,,,278422,,,,,,,,
144962,note_on,60,0,7,,,,,,,,,11,,,,65,66
144964,control_change,6720,0,4,,,,,,,,,4,11,42,,,
144964,note_on,0,0,4,,,,,,,,,4,,,,58,96
144965,note_on,235,0,9,,,,,,,,,13,,,,57,0
144965,note_on,0,0,2,,,,,,,,,1,,,,65,88
144965,note_on,0,0,2,,,,,,,,,1,,,,75,0
144965,note_on,240,0,2,,,,,,,,,1,,,,63,0
144965,note_on,0,0,2,,,,,,,,,1,,,,74,88
144966,note_on,21,0,8,,,,,,,,,12,,,,62,108
144966,note_on,0,0,5,,,,,,,,,5,,,,46,96
144966,control_change,6720,0,5,,,,,,,,,5,11,42,,,
144967,note_on,235,0,10,,,,,,,,,14,,,,45,0
144970,note_on,5,0,9,,,,,,,,,13,,,,58,99
144972,note_on,5,0,10,,,,,,,,,14,,,,46,93
145005,note_on,39,0,8,,,,,,,,,12,,,,62,0
145026,note_on,21,0,8,,,,,,,,,12,,,,58,99
145059,control_change,95,0,4,,,,,,,,,4,11,43,,,
145061,control_change,95,0,5,,,,,,,,,5,11,43,,,
145065,note_on,39,0,8,,,,,,,,,12,,,,58,0
145086,note_on,21,0,8,,,,,,,,,12,,,,58,108
145125,note_on,39,0,8,,,,,,,,,12,,,,58,0
145146,note_on,21,0,8,,,,,,,,,12,,,,58,99
145155,control_change,96,0,4,,,,,,,,,4,11,44,,,
145157,control_change,96,0,5,,,,,,,,,5,11,44,,,
145185,note_on,39,0,8,,,,,,,,,12,,,,58,0
145200,note_on,240,0,6,,,,,,,,,10,,,,77,0
145200,set_tempo,240,1,0,,,,,,268456,,,,,,,,
145202,note_on,240,0,7,,,,,,,,,11,,,,65,0
145203,control_change,6840,0,1,,,,,,,,,0,11,47,,,
145203,note_on,0,0,1,,,,,,,,,0,,,,84,88
145205,note_on,0,0,2,,,,,,,,,1,,,,80,88
145205,note_on,0,0,2,,,,,,,,,1,,,,72,88
145205,note_on,0,0,2,,,,,,,,,1,,,,65,0
145205,note_on,240,0,2,,,,,,,,,1,,,,74,0
145206,note_on,21,0,8,,,,,,,,,12,,,,58,108
145210,note_on,240,0,9,,,,,,,,,13,,,,58,0
145211,note_on,0,0,3,,,,,,,,,3,,,,60,97
145211,note_on,0,0,3,,,,,,,,,3,,,,56,97
145211,control_change,6840,0,3,,,,,,,,,3,11,47,,,
145212,note_on,240,0,10,,,,,,,,,14,,,,46,0
145227,control_change,24,0,1,,,,,,,,,0,11,48,,,
145235,control_change,24,0,3,,,,,,,,,3,11,48,,,
145245,note_on,39,0,8,,,,,,,,,12,,,,58,0
145251,control_change,24,0,1,,,,,,,,,0,11,49,,,
145251,control_change,96,0,4,,,,,,,,,4,11,45,,,
145253,control_change,96,0,5,,,,,,,,,5,11,45,,,
145259,control_change,24,0,3,,,,,,,,,3,11,49,,,
145266,note_on,21,0,8,,,,,,,,,12,,,,58,99
145275,control_change,24,0,1,,,,,,,,,0,11,50,,,
145283,control_change,24,0,3,,,,,,,,,3,11,50,,,
145299,control_change,24,0,1,,,,,,,,,0,11,51,,,
145305,note_on,39,0,8,,,,,,,,,12,,,,58,0
145307,control_change,24,0,3,,,,,,,,,3,11,51,,,
145323,control_change,24,0,1,,,,,,,,,0,11,52,,,
145326,note_on,21,0,8,,,,,,,,,12,,,,58,108
145331,control_change,24,0,3,,,,,,,,,3,11,52,,,
145347,control_change,96,0,4,,,,,,,,,4,11,46,,,
145347,control_change,24,0,1,,,,,,,,,0,11,53,,,
145349,control_change,96,0,5,,,,,,,,,5,11,46,,,
145355,control_change,24,0,3,,,,,,,,,3,11,53,,,
145365,note_on,39,0,8,,,,,,,,,12,,,,58,0
145371,control_change,24,0,1,,,,,,,,,0,11,54,,,
145379,control_change,24,0,3,,,,,,,,,3,11,54,,,
145386,note_on,21,0,8,,,,,,,,,12,,,,58,99
145395,control_change,24,0,1,,,,,,,,,0,11,55,,,
145403,control_change,24,0,3,,,,,,,,,3,11,55,,,
145419,control_change,24,0,1,,,,,,,,,0,11,56,,,
145425,note_on,39,0,8,,,,,,,,,12,,,,58,0
145427,control_change,24,0,3,,,,,,,,,3,11,56,,,
145440,set_tempo,240,1,0,,,,,,279720,,,,,,,,
145443,note_on,0,0,1,,,,,,,,,0,,,,82,84
145443,control_change,0,0,1,,,,,,,,,0,11,57,,,
145443,note_on,24,0,1,,,,,,,,,0,,,,84,0
145443,control_change,96,0,4,,,,,,,,,4,11,47,,,
145445,control_change,96,0,5,,,,,,,,,5,11,47,,,
145445,note_on,0,0,2,,,,,,,,,1,,,,70,84
145445,note_on,240,0,2,,,,,,,,,1,,,,80,0
145445,note_on,0,0,2,,,,,,,,,1,,,,72,0
145445,note_on,0,0,2,,,,,,,,,1,,,,79,84
145446,note_on,21,0,8,,,,,,,,,12,,,,58,108
145451,note_on,24,0,3,,,,,,,,,3,,,,60,0
145451,note_on,0,0,3,,,,,,,,,3,,,,56,0
145451,note_on,0,0,3,,,,,,,,,3,,,,55,93
145451,control_change,0,0,3,,,,,,,,,3,11,57,,,
145451,note_on,0,0,3,,,,,,,,,3,,,,58,93
145485,note_on,39,0,8,,,,,,,,,12,,,,58,0
145506,note_on,21,0,8,,,,,,,,,12,,,,58,99
145539,control_change,96,0,4,,,,,,,,,4,11,48,,,
145541,control_change,96,0,5,,,,,,,,,5,11,48,,,
145545,note_on,39,0,8,,,,,,,,,12,,,,58,0
145566,note_on,21,0,8,,,,,,,,,12,,,,58,108
145605,note_on,39,0,8,,,,,,,,,12,,,,58,0
145626,note_on,21,0,8,,,,,,,,,12,,,,58,99
145635,control_change,96,0,4,,,,,,,,,4,11,49,,,
145637,control_change,96,0,5,,,,,,,,,5,11,49,,,
145665,note_on,39,0,8,,,,,,,,,12,,,,58,0
145680,set_tempo,240,1,0,,,,,,261438,,,,,,,,
145683,note_on,0,0,1,,,,,,,,,0,,,,86,80
145683,note_on,240,0,1,,,,,,,,,0,,,,82,0
145685,note_on,0,0,2,,,,,,,,,1,,,,80,80
145685,note_on,0,0,2,,,,,,,,,1,,,,77,80
145685,note_on,240,0,2,,,,,,,,,1,,,,70,0
145685,note_on,0,0,2,,,,,,,,,1,,,,79,0
145686,note_on,21,0,8,,,,,,,,,12,,,,58,108
145691,note_on,0,0,3,,,,,,,,,3,,,,56,89
145691,note_on,0,0,3,,,,,,,,,3,,,,53,89
145691,note_on,0,0,3,,,,,,,,,3,,,,55,0
145691,note_on,240,0,3,,,,,,,,,3,,,,58,0
145725,note_on,39,0,8,,,,,,,,,12,,,,58,0
145731,control_change,96,0,4,,,,,,,,,4,11,50,,,
145733,control_change,96,0,5,,,,,,,,,5,11,50,,,
145746,note_on,21,0,8,,,,,,,,,12,,,,58,99
145785,note_on,39,0,8,,,,,,,,,12,,,,58,0
145806,note_on,21,0,8,,,,,,,,,12,,,,58,108
145827,control_change,96,0,4,,,,,,,,,4,11,51,,,
145829,control_change,96,0,5,,,,,,,,,5,11,51,,,
145845,note_on,39,0,8,,,,,,,,,12,,,,58,0
145866,note_on,21,0,8,,,,,,,,,12,,,,58,99
145905,note_on,39,0,8,,,,,,,,,12,,,,58,0
145920,note_on,0,0,6,,,,,,,,,10,,,,75,79
145920,control_change,720,0,6,,,,,,,,,10,11,65,,,
145920,set_tempo,240,1,0,,,,,,272727,,,,,,,,
145922,control_change,720,0,7,,,,,,,,,11,11,65,,,
145922,note_on,0,0,7,,,,,,,,,11,,,,63,63
145923,control_change,96,0,4,,,,,,,,,4,11,52,,,
145923,note_on,0,0,1,,,,,,,,,0,,,,87,52
145923,note_on,240,0,1,,,,,,,,,0,,,,86,0
145925,note_on,240,0,2,,,,,,,,,1,,,,80,0
145925,note_on,0,0,2,,,,,,,,,1,,,,77,0
145925,note_on,0,0,2,,,,,,,,,1,,,,79,52
145925,note_on,0,0,2,,,,,,,,,1,,,,75,52
145925,control_change,96,0,5,,,,,,,,,5,11,52,,,
145926,note_on,0,0,8,,,,,,,,,12,,,,67,108
145926,note_on,0,0,8,,,,,,,,,12,,,,58,108
145926,control_change,21,0,8,,,,,,,,,12,11,34,,,
145930,note_on,0,0,9,,,,,,,,,13,,,,51,99
145930,control_change,720,0,9,,,,,,,,,13,11,34,,,
145931,note_on,0,0,3,,,,,,,,,3,,,,51,57
145931,note_on,0,0,3,,,,,,,,,3,,,,55,57
145931,note_on,240,0,3,,,,,,,,,3,,,,56,0
145931,note_on,0,0,3,,,,,,,,,3,,,,53,0
145932,note_on,0,0,10,,,,,,,,,14,,,,39,93
145932,control_change,720,0,10,,,,,,,,,14,11,34,,,
145937,control_change,17,0,6,,,,,,,,,10,11,63,,,
145939,control_change,17,0,7,,,,,,,,,11,11,63,,,
145941,control_change,15,0,8,,,,,,,,,12,11,37,,,
145945,control_change,15,0,9,,,,,,,,,13,11,37,,,
145947,control_change,15,0,10,,,,,,,,,14,11,37,,,
145955,control_change,18,0,6,,,,,,,,,10,11,61,,,
145956,control_change,15,0,8,,,,,,,,,12,11,40,,,
145957,control_change,18,0,7,,,,,,,,,11,11,61,,,
145960,control_change,15,0,9,,,,,,,,,13,11,40,,,
145962,control_change,15,0,10,,,,,,,,,14,11,40,,,
145965,note_on,9,0,8,,,,,,,,,12,,,,58,0
145965,note_on,0,0,8,,,,,,,,,12,,,,67,0
145971,control_change,6,0,8,,,,,,,,,12,11,43,,,
145973,control_change,18,0,6,,,,,,,,,10,11,58,,,
145975,control_change,15,0,9,,,,,,,,,13,11,43,,,
145975,control_change,18,0,7,,,,,,,,,11,11,58,,,
145977,control_change,15,0,10,,,,,,,,,14,11,43,,,
145986,note_on,0,0,8,,,,,,,,,12,,,,58,99
145986,note_on,0,0,8,,,,,,,,,12,,,,67,99
145986,control_change,15,0,8,,,,,,,,,12,11,46,,,
145990,control_change,15,0,9,,,,,,,,,13,11,46,,,
145992,control_change,15,0,10,,,,,,,,,14,11,46,,,
146025,note_on,39,0,8,,,,,,,,,12,,,,58,0
146025,note_on,0,0,8,,,,,,,,,12,,,,67,0
146043,note_on,120,0,1,,,,,,,,,0,,,,87,0
146044,note_on,121,0,4,,,,,,,,,4,,,,58,0
146045,note_on,120,0,2,,,,,,,,,1,,,,75,0
146045,note_on,0,0,2,,,,,,,,,1,,,,79,0
146046,note_on,0,0,8,,,,,,,,,12,,,,67,108
146046,note_on,21,0,8,,,,,,,,,12,,,,58,108
146046,note_on,121,0,5,,,,,,,,,5,,,,46,0
146051,note_on,120,0,3,,,,,,,,,3,,,,51,0
146051,note_on,0,0,3,,,,,,,,,3,,,,55,0
146085,note_on,0,0,8,,,,,,,,,12,,,,58,0
146085,note_on,39,0,8,,,,,,,,,12,,,,67,0
146100,note_on,127,0,6,,,,,,,,,10,,,,75,0
146100,note_on,0,0,6,,,,,,,,,10,,,,79,97
146102,note_on,0,0,7,,,,,,,,,11,,,,67,77
146102,note_on,127,0,7,,,,,,,,,11,,,,63,0
146106,note_on,21,0,8,,,,,,,,,12,,,,67,99
146106,note_on,0,0,8,,,,,,,,,12,,,,58,99
146114,control_change,8,0,8,,,,,,,,,12,11,48,,,
146118,control_change,128,0,9,,,,,,,,,13,11,48,,,
146120,control_change,128,0,10,,,,,,,,,14,11,48,,,
146139,note_on,39,0,6,,,,,,,,,10,,,,79,0
146141,note_on,39,0,7,,,,,,,,,11,,,,67,0
146145,note_on,0,0,8,,,,,,,,,12,,,,67,0
146145,note_on,31,0,8,,,,,,,,,12,,,,58,0
146160,set_tempo,240,1,0,,,,,,261438,,,,,,,,
146160,note_on,21,0,6,,,,,,,,,10,,,,82,97
146162,note_on,21,0,7,,,,,,,,,11,,,,70,77
146166,note_on,21,0,8,,,,,,,,,12,,,,58,108
146166,note_on,0,0,8,,,,,,,,,12,,,,67,108
146170,note_on,52,0,9,,,,,,,,,13,,,,51,0
146172,note_on,52,0,10,,,,,,,,,14,,,,39,0
146205,note_on,39,0,8,,,,,,,,,12,,,,67,0
146205,note_on,0,0,8,,,,,,,,,12,,,,58,0
146220,note_on,60,0,6,,,,,,,,,10,,,,82,0
146222,note_on,60,0,7,,,,,,,,,11,,,,70,0
146226,note_on,0,0,8,,,,,,,,,12,,,,58,99
146226,note_on,21,0,8,,,,,,,,,12,,,,67,99
146243,control_change,17,0,8,,,,,,,,,12,11,49,,,
146247,control_change,77,0,9,,,,,,,,,13,11,49,,,
146249,control_change,77,0,10,,,,,,,,,14,11,49,,,
146265,note_on,0,0,8,,,,,,,,,12,,,,67,0
146265,note_on,22,0,8,,,,,,,,,12,,,,58,0
146280,note_on,60,0,6,,,,,,,,,10,,,,82,98
146282,note_on,60,0,7,,,,,,,,,11,,,,70,78
146286,note_on,21,0,8,,,,,,,,,12,,,,67,108
146286,note_on,0,0,8,,,,,,,,,12,,,,58,108
146325,note_on,39,0,8,,,,,,,,,12,,,,58,0
146325,note_on,0,0,8,,,,,,,,,12,,,,67,0
146340,note_on,60,0,6,,,,,,,,,10,,,,82,0
146342,note_on,60,0,7,,,,,,,,,11,,,,70,0
146346,note_on,0,0,8,,,,,,,,,12,,,,67,99
146346,note_on,21,0,8,,,,,,,,,12,,,,58,99
146371,control_change,25,0,8,,,,,,,,,12,11,51,,,
146375,control_change,128,0,9,,,,,,,,,13,11,51,,,
146377,control_change,128,0,10,,,,,,,,,14,11,51,,,
146385,note_on,0,0,8,,,,,,,,,12,,,,58,0
146385,note_on,14,0,8,,,,,,,,,12,,,,67,0
146400,set_tempo,240,1,0,,,,,,272727,,,,,,,,
146400,note_on,60,0,6,,,,,,,,,10,,,,82,77
146402,note_on,60,0,7,,,,,,,,,11,,,,70,61
146403,note_on,0,0,1,,,,,,,,,0,,,,82,120
146403,control_change,360,0,1,,,,,,,,,0,11,40,,,
146405,note_on,0,0,2,,,,,,,,,1,,,,79,97
146405,note_on,0,0,2,,,,,,,,,1,,,,70,97
146405,control_change,360,0,2,,,,,,,,,1,11,40,,,
146406,note_on,0,0,8,,,,,,,,,12,,,,67,108
146406,note_on,21,0,8,,,,,,,,,12,,,,58,108
146410,note_on,35,0,9,,,,,,,,,13,,,,51,99
146411,control_change,360,0,3,,,,,,,,,3,11,40,,,
146411,note_on,0,0,3,,,,,,,,,3,,,,51,97
146412,note_on,35,0,10,,,,,,,,,14,,,,39,93
146413,control_change,10,0,1,,,,,,,,,0,11,43,,,
146422,control_change,17,0,2,,,,,,,,,1,11,42,,,
146424,control_change,11,0,1,,,,,,,,,0,11,46,,,
146428,control_change,17,0,3,,,,,,,,,3,11,42,,,
146434,control_change,10,0,1,,,,,,,,,0,11,49,,,
146439,control_change,17,0,2,,,,,,,,,1,11,44,,,
146445,control_change,17,0,3,,,,,,,,,3,11,44,,,
146445,control_change,11,0,1,,,,,,,,,0,11,52,,,
146445,note_on,39,0,8,,,,,,,,,12,,,,67,0
146445,note_on,0,0,8,,,,,,,,,12,,,,58,0
146455,control_change,10,0,1,,,,,,,,,0,11,55,,,
146456,control_change,17,0,2,,,,,,,,,1,11,46,,,
146462,control_change,17,0,3,,,,,,,,,3,11,46,,,
146466,note_on,21,0,8,,,,,,,,,12,,,,67,99
146466,note_on,0,0,8,,,,,,,,,12,,,,58,99
146500,control_change,34,0,8,,,,,,,,,12,11,52,,,
146504,control_change,94,0,9,,,,,,,,,13,11,52,,,
146505,note_on,0,0,8,,,,,,,,,12,,,,67,0
146505,note_on,5,0,8,,,,,,,,,12,,,,58,0
146506,control_change,94,0,10,,,,,,,,,14,11,52,,,
146526,note_on,21,0,8,,,,,,,,,12,,,,67,108
146526,note_on,0,0,8,,,,,,,,,12,,,,58,108
146565,note_on,0,0,8,,,,,,,,,12,,,,67,0
146565,note_on,39,0,8,,,,,,,,,12,,,,58,0
146586,note_on,0,0,8,,,,,,,,,12,,,,58,99
146586,note_on,21,0,8,,,,,,,,,12,,,,67,99
146590,note_on,86,0,9,,,,,,,,,13,,,,51,0
146590,note_on,0,0,9,,,,,,,,,13,,,,55,99
146592,note_on,0,0,10,,,,,,,,,14,,,,43,93
146592,note_on,86,0,10,,,,,,,,,14,,,,39,0
146625,note_on,39,0,8,,,,,,,,,12,,,,58,0
146625,note_on,0,0,8,,,,,,,,,12,,,,67,0
146628,control_change,3,0,8,,,,,,,,,12,11,54,,,
146629,note_on,39,0,9,,,,,,,,,13,,,,55,0
146631,note_on,39,0,10,,,,,,,,,14,,,,43,0
146632,control_change,3,0,9,,,,,,,,,13,11,54,,,
146634,control_change,3,0,10,,,,,,,,,14,11,54,,,
146640,note_on,240,0,6,,,,,,,,,10,,,,82,0
146640,set_tempo,240,1,0,,,,,,261438,,,,,,,,
146642,note_on,240,0,7,,,,,,,,,11,,,,70,0
146643,note_on,0,0,1,,,,,,,,,0,,,,80,110
146643,note_on,188,0,1,,,,,,,,,0,,,,82,0
146646,note_on,0,0,8,,,,,,,,,12,,,,67,108
146646,note_on,18,0,8,,,,,,,,,12,,,,58,108
146650,note_on,18,0,9,,,,,,,,,13,,,,58,99
146652,note_on,18,0,10,,,,,,,,,14,,,,46,93
146685,note_on,39,0,8,,,,,,,,,12,,,,67,0
146685,note_on,0,0,8,,,,,,,,,12,,,,58,0
146703,note_on,0,0,1,,,,,,,,,0,,,,79,110
146703,note_on,60,0,1,,,,,,,,,0,,,,80,0
146706,note_on,21,0,8,,,,,,,,,12,,,,67,99
146706,note_on,0,0,8,,,,,,,,,12,,,,58,99
146710,note_on,60,0,9,,,,,,,,,13,,,,58,0
146712,note_on,60,0,10,,,,,,,,,14,,,,46,0
146745,note_on,0,0,8,,,,,,,,,12,,,,67,0
146745,note_on,39,0,8,,,,,,,,,12,,,,58,0
146757,control_change,12,0,8,,,,,,,,,12,11,55,,,
146761,control_change,51,0,9,,,,,,,,,13,11,55,,,
146763,note_on,60,0,1,,,,,,,,,0,,,,79,0
146763,note_on,0,0,1,,,,,,,,,0,,,,77,110
146763,control_change,51,0,10,,,,,,,,,14,11,55,,,
146766,note_on,0,0,8,,,,,,,,,12,,,,58,108
146766,note_on,9,0,8,,,,,,,,,12,,,,67,108
146770,note_on,9,0,9,,,,,,,,,13,,,,58,99
146772,note_on,9,0,10,,,,,,,,,14,,,,46,93
146805,note_on,0,0,8,,,,,,,,,12,,,,67,0
146805,note_on,39,0,8,,,,,,,,,12,,,,58,0
146823,note_on,60,0,1,,,,,,,,,0,,,,77,0
146823,note_on,0,0,1,,,,,,,,,0,,,,75,110
146826,note_on,21,0,8,,,,,,,,,12,,,,67,99
146826,note_on,0,0,8,,,,,,,,,12,,,,58,99
146830,note_on,60,0,9,,,,,,,,,13,,,,58,0
146832,note_on,60,0,10,,,,,,,,,14,,,,46,0
146865,note_on,39,0,8,,,,,,,,,12,,,,58,0
146865,note_on,0,0,8,,,,,,,,,12,,,,67,0
146880,control_change,240,0,6,,,,,,,,,10,11,65,,,
146880,set_tempo,240,1,0,,,,,,272727,,,,,,,,
146880,note_on,0,0,6,,,,,,,,,10,,,,74,94
146882,control_change,240,0,7,,,,,,,,,11,11,65,,,
146882,note_on,0,0,7,,,,,,,,,11,,,,62,75
146883,note_on,0,0,1,,,,,,,,,0,,,,74,110
146883,note_on,60,0,1,,,,,,,,,0,,,,75,0
146885,note_on,429,0,2,,,,,,,,,1,,,,79,0
146885,note_on,0,0,2,,,,,,,,,1,,,,77,97
146886,note_on,0,0,8,,,,,,,,,12,,,,58,108
146886,note_on,0,0,8,,,,,,,,,12,,,,65,108
146886,control_change,21,0,8,,,,,,,,,12,11,57,,,
146890,note_on,0,0,9,,,,,,,,,13,,,,58,99
146890,control_change,60,0,9,,,,,,,,,13,11,57,,,
146891,note_on,429,0,3,,,,,,,,,3,,,,51,0
146891,note_on,0,0,3,,,,,,,,,3,,,,50,97
146892,note_on,0,0,10,,,,,,,,,14,,,,46,93
146892,control_change,60,0,10,,,,,,,,,14,11,57,,,
146897,control_change,17,0,6,,,,,,,,,10,11,63,,,
146899,control_change,17,0,7,,,,,,,,,11,11,63,,,
146915,control_change,18,0,6,,,,,,,,,10,11,61,,,
146917,control_change,18,0,7,,,,,,,,,11,11,61,,,
146925,note_on,39,0,8,,,,,,,,,12,,,,65,0
146925,note_on,0,0,8,,,,,,,,,12,,,,58,0
146933,control_change,18,0,6,,,,,,,,,10,11,58,,,
146935,control_change,18,0,7,,,,,,,,,11,11,58,,,
146946,note_on,0,0,8,,,,,,,,,12,,,,65,99
146946,note_on,21,0,8,,,,,,,,,12,,,,58,99
146985,note_on,0,0,8,,,,,,,,,12,,,,58,0
146985,note_on,39,0,8,,,,,,,,,12,,,,65,0
147003,note_on,120,0,1,,,,,,,,,0,,,,74,0
147006,note_on,0,0,8,,,,,,,,,12,,,,65,108
147006,note_on,21,0,8,,,,,,,,,12,,,,58,108
147045,note_on,0,0,8,,,,,,,,,12,,,,58,0
147045,note_on,39,0,8,,,,,,,,,12,,,,65,0
147060,note_on,0,0,6,,,,,,,,,10,,,,77,100
147060,note_on,127,0,6,,,,,,,,,10,,,,74,0
147062,note_on,127,0,7,,,,,,,,,11,,,,62,0
147062,note_on,0,0,7,,,,,,,,,11,,,,65,80
147066,note_on,0,0,8,,,,,,,,,12,,,,58,99
147066,note_on,21,0,8,,,,,,,,,12,,,,65,99
147099,note_on,39,0,6,,,,,,,,,10,,,,77,0
147101,note_on,39,0,7,,,,,,,,,11,,,,65,0
147105,note_on,39,0,8,,,,,,,,,12,,,,58,0
147105,note_on,0,0,8,,,,,,,,,12,,,,65,0
147120,note_on,21,0,6,,,,,,,,,10,,,,82,100
147120,set_tempo,240,1,0,,,,,,261438,,,,,,,,
147122,note_on,21,0,7,,,,,,,,,11,,,,70,80
147126,note_on,21,0,8,,,,,,,,,12,,,,65,108
147126,note_on,0,0,8,,,,,,,,,12,,,,58,108
147130,note_on,240,0,9,,,,,,,,,13,,,,58,0
147132,note_on,240,0,10,,,,,,,,,14,,,,46,0
147165,note_on,39,0,8,,,,,,,,,12,,,,58,0
147165,note_on,0,0,8,,,,,,,,,12,,,,65,0
147180,note_on,60,0,6,,,,,,,,,10,,,,82,0
147182,note_on,60,0,7,,,,,,,,,11,,,,70,0
147186,note_on,21,0,8,,,,,,,,,12,,,,58,99
147186,note_on,0,0,8,,,,,,,,,12,,,,65,99
147225,note_on,39,0,8,,,,,,,,,12,,,,65,0
147225,note_on,0,0,8,,,,,,,,,12,,,,58,0
147240,note_on,60,0,6,,,,,,,,,10,,,,82,100
147242,note_on,60,0,7,,,,,,,,,11,,,,70,80
147246,note_on,21,0,8,,,,,,,,,12,,,,58,108
147246,note_on,0,0,8,,,,,,,,,12,,,,65,108
147285,note_on,0,0,8,,,,,,,,,12,,,,58,0
147285,note_on,39,0,8,,,,,,,,,12,,,,65,0
147300,note_on,60,0,6,,,,,,,,,10,,,,82,0
147302,note_on,60,0,7,,,,,,,,,11,,,,70,0
147306,note_on,0,0,8,,,,,,,,,12,,,,58,99
147306,note_on,21,0,8,,,,,,,,,12,,,,65,99
147345,note_on,39,0,8,,,,,,,,,12,,,,58,0
147345,note_on,0,0,8,,,,,,,,,12,,,,65,0
147360,set_tempo,240,1,0,,,,,,272727,,,,,,,,
147360,note_on,60,0,6,,,,,,,,,10,,,,82,80
147362,note_on,60,0,7,,,,,,,,,11,,,,70,63
147363,note_on,0,0,1,,,,,,,,,0,,,,89,120
147363,control_change,360,0,1,,,,,,,,,0,11,64,,,
147366,note_on,21,0,8,,,,,,,,,12,,,,65,108
147366,note_on,0,0,8,,,,,,,,,12,,,,58,108
147370,note_on,240,0,9,,,,,,,,,13,,,,50,99
147371,note_on,0,0,3,,,,,,,,,3,,,,62,97
147371,note_on,480,0,3,,,,,,,,,3,,,,50,0
147372,note_on,240,0,10,,,,,,,,,14,,,,38,93
147405,note_on,39,0,8,,,,,,,,,12,,,,58,0
147405,note_on,0,0,8,,,,,,,,,12,,,,65,0
147426,note_on,21,0,8,,,,,,,,,12,,,,58,99
147426,note_on,0,0,8,,,,,,,,,12,,,,65,99
147465,note_on,0,0,8,,,,,,,,,12,,,,58,0
147465,note_on,39,0,8,,,,,,,,,12,,,,65,0
147486,note_on,21,0,8,,,,,,,,,12,,,,58,108
147486,note_on,0,0,8,,,,,,,,,12,,,,65,108
147525,note_on,39,0,8,,,,,,,,,12,,,,65,0
147525,note_on,0,0,8,,,,,,,,,12,,,,58,0
147546,note_on,21,0,8,,,,,,,,,12,,,,65,99
147546,note_on,0,0,8,,,,,,,,,12,,,,58,99
147550,note_on,180,0,9,,,,,,,,,13,,,,50,0
147550,note_on,0,0,9,,,,,,,,,13,,,,53,99
147552,note_on,0,0,10,,,,,,,,,14,,,,41,93
147552,note_on,180,0,10,,,,,,,,,14,,,,38,0
147585,note_on,39,0,8,,,,,,,,,12,,,,58,0
147585,note_on,0,0,8,,,,,,,,,12,,,,65,0
147589,note_on,39,0,9,,,,,,,,,13,,,,53,0
147591,note_on,39,0,10,,,,,,,,,14,,,,41,0
147600,set_tempo,240,1,0,,,,,,261438,,,,,,,,
147600,note_on,240,0,6,,,,,,,,,10,,,,82,0
147602,note_on,240,0,7,,,,,,,,,11,,,,70,0
147603,note_on,0,0,1,,,,,,,,,0,,,,87,110
147603,note_on,240,0,1,,,,,,,,,0,,,,89,0
147606,note_on,21,0,8,,,,,,,,,12,,,,65,108
147606,note_on,0,0,8,,,,,,,,,12,,,,58,108
147610,note_on,21,0,9,,,,,,,,,13,,,,58,99
147612,note_on,21,0,10,,,,,,,,,14,,,,46,93
147645,note_on,0,0,8,,,,,,,,,12,,,,65,0
147645,note_on,39,0,8,,,,,,,,,12,,,,58,0
147663,note_on,0,0,1,,,,,,,,,0,,,,86,110
147663,note_on,60,0,1,,,,,,,,,0,,,,87,0
147666,note_on,21,0,8,,,,,,,,,12,,,,58,99
147666,note_on,0,0,8,,,,,,,,,12,,,,65,99
147670,note_on,60,0,9,,,,,,,,,13,,,,58,0
147672,note_on,60,0,10,,,,,,,,,14,,,,46,0
147705,note_on,39,0,8,,,,,,,,,12,,,,65,0
147705,note_on,0,0,8,,,,,,,,,12,,,,58,0
147723,note_on,60,0,1,,,,,,,,,0,,,,86,0
147723,note_on,0,0,1,,,,,,,,,0,,,,84,110
147726,note_on,0,0,8,,,,,,,,,12,,,,58,108
147726,note_on,21,0,8,,,,,,,,,12,,,,65,108
147730,note_on,60,0,9,,,,,,,,,13,,,,58,99
147732,note_on,60,0,10,,,,,,,,,14,,,,46,93
147765,note_on,0,0,8,,,,,,,,,12,,,,65,0
147765,note_on,39,0,8,,,,,,,,,12,,,,58,0
147783,note_on,0,0,1,,,,,,,,,0,,,,82,110
147783,note_on,60,0,1,,,,,,,,,0,,,,84,0
147786,note_on,0,0,8,,,,,,,,,12,,,,58,99
147786,note_on,21,0,8,,,,,,,,,12,,,,65,99
147790,note_on,60,0,9,,,,,,,,,13,,,,58,0
147792,note_on,60,0,10,,,,,,,,,14,,,,46,0
147825,note_on,0,0,8,,,,,,,,,12,,,,65,0
147825,note_on,39,0,8,,,,,,,,,12,,,,58,0
147840,note_on,0,0,6,,,,,,,,,10,,,,80,97
147840,control_change,240,0,6,,,,,,,,,10,11,65,,,
147840,set_tempo,240,1,0,,,,,,272727,,,,,,,,
147842,control_change,240,0,7,,,,,,,,,11,11,65,,,
147842,note_on,0,0,7,,,,,,,,,11,,,,68,77
147843,note_on,0,0,1,,,,,,,,,0,,,,80,110
147843,note_on,60,0,1,,,,,,,,,0,,,,82,0
147845,note_on,0,0,2,,,,,,,,,1,,,,63,97
147845,note_on,0,0,2,,,,,,,,,1,,,,70,0
147845,note_on,960,0,2,,,,,,,,,1,,,,77,0
147845,note_on,0,0,2,,,,,,,,,1,,,,75,97
147846,note_on,21,0,8,,,,,,,,,12,,,,63,108
147846,note_on,0,0,8,,,,,,,,,12,,,,60,108
147850,note_on,60,0,9,,,,,,,,,13,,,,48,99
147851,note_on,0,0,3,,,,,,,,,3,,,,60,97
147851,note_on,480,0,3,,,,,,,,,3,,,,62,0
147852,note_on,60,0,10,,,,,,,,,14,,,,36,93
147857,control_change,17,0,6,,,,,,,,,10,11,63,,,
147859,control_change,17,0,7,,,,,,,,,11,11,63,,,
147875,control_change,18,0,6,,,,,,,,,10,11,61,,,
147877,control_change,18,0,7,,,,,,,,,11,11,61,,,
147885,note_on,0,0,8,,,,,,,,,12,,,,63,0
147885,note_on,39,0,8,,,,,,,,,12,,,,60,0
147893,control_change,18,0,6,,,,,,,,,10,11,58,,,
147895,control_change,18,0,7,,,,,,,,,11,11,58,,,
147906,note_on,0,0,8,,,,,,,,,12,,,,60,99
147906,note_on,21,0,8,,,,,,,,,12,,,,63,99
147945,note_on,39,0,8,,,,,,,,,12,,,,60,0
147945,note_on,0,0,8,,,,,,,,,12,,,,63,0
147963,note_on,120,0,1,,,,,,,,,0,,,,80,0
147966,note_on,0,0,8,,,,,,,,,12,,,,60,108
147966,note_on,21,0,8,,,,,,,,,12,,,,63,108
148005,note_on,39,0,8,,,,,,,,,12,,,,60,0
148005,note_on,0,0,8,,,,,,,,,12,,,,63,0
148020,note_on,0,0,6,,,,,,,,,10,,,,84,103
148020,note_on,127,0,6,,,,,,,,,10,,,,80,0
148022,note_on,0,0,7,,,,,,,,,11,,,,72,82
148022,note_on,127,0,7,,,,,,,,,11,,,,68,0
148026,note_on,0,0,8,,,,,,,,,12,,,,63,99
148026,note_on,21,0,8,,,,,,,,,12,,,,60,99
148059,note_on,39,0,6,,,,,,,,,10,,,,84,0
148061,note_on,39,0,7,,,,,,,,,11,,,,72,0
148065,note_on,0,0,8,,,,,,,,,12,,,,60,0
148065,note_on,39,0,8,,,,,,,,,12,,,,63,0
148080,note_on,21,0,6,,,,,,,,,10,,,,87,103
148080,set_tempo,240,1,0,,,,,,261438,,,,,,,,
148082,note_on,21,0,7,,,,,,,,,11,,,,75,82
148086,note_on,21,0,8,,,,,,,,,12,,,,60,108
148086,note_on,0,0,8,,,,,,,,,12,,,,63,108
148090,note_on,240,0,9,,,,,,,,,13,,,,48,0
148092,note_on,240,0,10,,,,,,,,,14,,,,36,0
148125,note_on,0,0,8,,,,,,,,,12,,,,60,0
148125,note_on,39,0,8,,,,,,,,,12,,,,63,0
148140,note_on,60,0,6,,,,,,,,,10,,,,87,0
148142,note_on,60,0,7,,,,,,,,,11,,,,75,0
148146,note_on,0,0,8,,,,,,,,,12,,,,63,99
148146,note_on,21,0,8,,,,,,,,,12,,,,60,99
148185,note_on,0,0,8,,,,,,,,,12,,,,60,0
148185,note_on,39,0,8,,,,,,,,,12,,,,63,0
148200,note_on,60,0,6,,,,,,,,,10,,,,87,103
148202,note_on,60,0,7,,,,,,,,,11,,,,75,82
148206,note_on,0,0,8,,,,,,,,,12,,,,60,108
148206,note_on,21,0,8,,,,,,,,,12,,,,63,108
148245,note_on,0,0,8,,,,,,,,,12,,,,63,0
148245,note_on,39,0,8,,,,,,,,,12,,,,60,0
148260,note_on,60,0,6,,,,,,,,,10,,,,87,0
148262,note_on,60,0,7,,,,,,,,,11,,,,75,0
148266,note_on,21,0,8,,,,,,,,,12,,,,63,99
148266,note_on,0,0,8,,,,,,,,,12,,,,60,99
148305,note_on,39,0,8,,,,,,,,,12,,,,60,0
148305,note_on,0,0,8,,,,,,,,,12,,,,63,0
148320,set_tempo,240,1,0,,,,,,272727,,,,,,,,
148320,control_change,60,0,6,,,,,,,,,10,11,65,,,
148320,note_on,0,0,6,,,,,,,,,10,,,,87,91
148322,note_on,0,0,7,,,,,,,,,11,,,,75,72
148322,control_change,60,0,7,,,,,,,,,11,11,65,,,
148323,note_on,360,0,1,,,,,,,,,0,,,,87,110
148325,note_on,480,0,2,,,,,,,,,1,,,,63,0
148325,note_on,0,0,2,,,,,,,,,1,,,,68,97
148326,note_on,21,0,8,,,,,,,,,12,,,,63,108
148326,note_on,0,0,8,,,,,,,,,12,,,,60,108
148330,note_on,240,0,9,,,,,,,,,13,,,,48,99
148332,note_on,240,0,10,,,,,,,,,14,,,,36,93
148337,control_change,17,0,6,,,,,,,,,10,11,63,,,
148339,control_change,17,0,7,,,,,,,,,11,11,63,,,
148355,control_change,18,0,6,,,,,,,,,10,11,61,,,
148357,control_change,18,0,7,,,,,,,,,11,11,61,,,
148365,note_on,0,0,8,,,,,,,,,12,,,,63,0
148365,note_on,39,0,8,,,,,,,,,12,,,,60,0
148373,control_change,18,0,6,,,,,,,,,10,11,58,,,
148375,control_change,18,0,7,,,,,,,,,11,11,58,,,
148386,note_on,0,0,8,,,,,,,,,12,,,,63,99
148386,note_on,21,0,8,,,,,,,,,12,,,,60,99
148425,note_on,39,0,8,,,,,,,,,12,,,,63,0
148425,note_on,0,0,8,,,,,,,,,12,,,,60,0
148446,note_on,21,0,8,,,,,,,,,12,,,,63,108
148446,note_on,0,0,8,,,,,,,,,12,,,,60,108
148485,note_on,0,0,8,,,,,,,,,12,,,,63,0
148485,note_on,39,0,8,,,,,,,,,12,,,,60,0
148506,note_on,21,0,8,,,,,,,,,12,,,,60,99
148506,note_on,0,0,8,,,,,,,,,12,,,,63,99
148510,note_on,0,0,9,,,,,,,,,13,,,,51,99
148510,note_on,180,0,9,,,,,,,,,13,,,,48,0
148512,note_on,180,0,10,,,,,,,,,14,,,,36,0
148512,note_on,0,0,10,,,,,,,,,14,,,,39,93
148545,note_on,39,0,8,,,,,,,,,12,,,,63,0
148545,note_on,0,0,8,,,,,,,,,12,,,,60,0
148549,note_on,39,0,9,,,,,,,,,13,,,,51,0
148551,note_on,39,0,10,,,,,,,,,14,,,,39,0
148560,note_on,0,0,6,,,,,,,,,10,,,,86,104
148560,note_on,187,0,6,,,,,,,,,10,,,,87,0
148560,set_tempo,240,1,0,,,,,,261438,,,,,,,,
148562,note_on,0,0,7,,,,,,,,,11,,,,74,83
148562,note_on,187,0,7,,,,,,,,,11,,,,75,0
148563,note_on,240,0,1,,,,,,,,,0,,,,87,0
148563,note_on,0,0,1,,,,,,,,,0,,,,86,110
148566,note_on,0,0,8,,,,,,,,,12,,,,60,108
148566,note_on,21,0,8,,,,,,,,,12,,,,63,108
148570,note_on,21,0,9,,,,,,,,,13,,,,56,99
148572,note_on,21,0,10,,,,,,,,,14,,,,44,93
148605,note_on,39,0,8,,,,,,,,,12,,,,60,0
148605,note_on,0,0,8,,,,,,,,,12,,,,63,0
148620,note_on,60,0,6,,,,,,,,,10,,,,86,0
148620,note_on,0,0,6,,,,,,,,,10,,,,84,105
148622,note_on,0,0,7,,,,,,,,,11,,,,72,84
148622,note_on,60,0,7,,,,,,,,,11,,,,74,0
148623,note_on,60,0,1,,,,,,,,,0,,,,86,0
148623,note_on,0,0,1,,,,,,,,,0,,,,84,110
148626,note_on,0,0,8,,,,,,,,,12,,,,63,99
148626,note_on,21,0,8,,,,,,,,,12,,,,60,99
148630,note_on,60,0,9,,,,,,,,,13,,,,56,0
148632,note_on,60,0,10,,,,,,,,,14,,,,44,0
148665,note_on,0,0,8,,,,,,,,,12,,,,60,0
148665,note_on,39,0,8,,,,,,,,,12,,,,63,0
148680,note_on,0,0,6,,,,,,,,,10,,,,82,105
148680,note_on,60,0,6,,,,,,,,,10,,,,84,0
148682,note_on,60,0,7,,,,,,,,,11,,,,72,0
148682,note_on,0,0,7,,,,,,,,,11,,,,70,84
148683,note_on,0,0,1,,,,,,,,,0,,,,82,110
148683,note_on,60,0,1,,,,,,,,,0,,,,84,0
148686,note_on,0,0,8,,,,,,,,,12,,,,60,108
148686,note_on,21,0,8,,,,,,,,,12,,,,63,108
148690,note_on,60,0,9,,,,,,,,,13,,,,56,99
148692,note_on,60,0,10,,,,,,,,,14,,,,44,93
148725,note_on,0,0,8,,,,,,,,,12,,,,63,0
148725,note_on,39,0,8,,,,,,,,,12,,,,60,0
148740,note_on,60,0,6,,,,,,,,,10,,,,82,0
148740,note_on,0,0,6,,,,,,,,,10,,,,80,105
148742,note_on,0,0,7,,,,,,,,,11,,,,68,84
148742,note_on,60,0,7,,,,,,,,,11,,,,70,0
148743,note_on,60,0,1,,,,,,,,,0,,,,82,0
148743,note_on,0,0,1,,,,,,,,,0,,,,80,110
148746,note_on,21,0,8,,,,,,,,,12,,,,63,99
148746,note_on,0,0,8,,,,,,,,,12,,,,60,99
148750,note_on,60,0,9,,,,,,,,,13,,,,56,0
148752,note_on,60,0,10,,,,,,,,,14,,,,44,0
148779,note_on,39,0,6,,,,,,,,,10,,,,80,0
148781,note_on,39,0,7,,,,,,,,,11,,,,68,0
148785,note_on,0,0,8,,,,,,,,,12,,,,63,0
148785,note_on,39,0,8,,,,,,,,,12,,,,60,0
148798,note_on,55,0,1,,,,,,,,,0,,,,80,0
148800,set_tempo,240,1,0,,,,,,272727,,,,,,,,
148800,control_change,21,0,6,,,,,,,,,10,11,65,,,
148800,note_on,0,0,6,,,,,,,,,10,,,,79,105
148802,note_on,0,0,7,,,,,,,,,11,,,,67,84
148802,control_change,21,0,7,,,,,,,,,11,11,65,,,
148803,note_on,5,0,1,,,,,,,,,0,,,,79,110
148805,note_on,480,0,2,,,,,,,,,1,,,,68,0
148805,note_on,0,0,2,,,,,,,,,1,,,,67,97
148806,note_on,0,0,8,,,,,,,,,12,,,,63,108
148806,note_on,21,0,8,,,,,,,,,12,,,,58,108
148810,note_on,60,0,9,,,,,,,,,13,,,,46,99
148811,note_on,0,0,3,,,,,,,,,3,,,,58,97
148811,note_on,960,0,3,,,,,,,,,3,,,,60,0
148812,note_on,60,0,10,,,,,,,,,14,,,,34,93
148817,control_change,17,0,6,,,,,,,,,10,11,63,,,
148819,control_change,17,0,7,,,,,,,,,11,11,63,,,
148835,control_change,18,0,6,,,,,,,,,10,11,61,,,
148837,control_change,18,0,7,,,,,,,,,11,11,61,,,
148845,note_on,39,0,8,,,,,,,,,12,,,,63,0
148845,note_on,0,0,8,,,,,,,,,12,,,,58,0
148853,control_change,18,0,6,,,,,,,,,10,11,58,,,
148855,control_change,18,0,7,,,,,,,,,11,11,58,,,
148866,note_on,21,0,8,,,,,,,,,12,,,,63,99
148866,note_on,0,0,8,,,,,,,,,12,,,,58,99
148905,note_on,39,0,8,,,,,,,,,12,,,,58,0
148905,note_on,0,0,8,,,,,,,,,12,,,,63,0
148923,note_on,120,0,1,,,,,,,,,0,,,,79,0
148926,note_on,21,0,8,,,,,,,,,12,,,,63,108
148926,note_on,0,0,8,,,,,,,,,12,,,,58,108
148965,note_on,39,0,8,,,,,,,,,12,,,,58,0
148965,note_on,0,0,8,,,,,,,,,12,,,,63,0
148980,note_on,0,0,6,,,,,,,,,10,,,,82,106
148980,note_on,127,0,6,,,,,,,,,10,,,,79,0
148982,note_on,127,0,7,,,,,,,,,11,,,,67,0
148982,note_on,0,0,7,,,,,,,,,11,,,,70,84
148986,note_on,0,0,8,,,,,,,,,12,,,,63,99
148986,note_on,21,0,8,,,,,,,,,12,,,,58,99
149019,note_on,39,0,6,,,,,,,,,10,,,,82,0
149021,note_on,39,0,7,,,,,,,,,11,,,,70,0
149025,note_on,39,0,8,,,,,,,,,12,,,,63,0
149025,note_on,0,0,8,,,,,,,,,12,,,,58,0
149040,note_on,21,0,6,,,,,,,,,10,,,,87,106
149040,set_tempo,240,1,0,,,,,,261438,,,,,,,,
149042,note_on,21,0,7,,,,,,,,,11,,,,75,84
149046,note_on,0,0,8,,,,,,,,,12,,,,58,108
149046,note_on,21,0,8,,,,,,,,,12,,,,63,108
149050,note_on,240,0,9,,,,,,,,,13,,,,46,0
149052,note_on,240,0,10,,,,,,,,,14,,,,34,0
149085,note_on,0,0,8,,,,,,,,,12,,,,63,0
149085,note_on,39,0,8,,,,,,,,,12,,,,58,0
149100,note_on,60,0,6,,,,,,,,,10,,,,87,0
149102,note_on,60,0,7,,,,,,,,,11,,,,75,0
149106,note_on,0,0,8,,,,,,,,,12,,,,58,99
149106,note_on,21,0,8,,,,,,,,,12,,,,63,99
149145,note_on,0,0,8,,,,,,,,,12,,,,63,0
149145,note_on,39,0,8,,,,,,,,,12,,,,58,0
149160,note_on,60,0,6,,,,,,,,,10,,,,87,106
149162,note_on,60,0,7,,,,,,,,,11,,,,75,84
149166,note_on,21,0,8,,,,,,,,,12,,,,63,108
149166,note_on,0,0,8,,,,,,,,,12,,,,58,108
149205,note_on,39,0,8,,,,,,,,,12,,,,58,0
149205,note_on,0,0,8,,,,,,,,,12,,,,63,0
149220,note_on,60,0,6,,,,,,,,,10,,,,87,0
149222,note_on,60,0,7,,,,,,,,,11,,,,75,0
149226,note_on,21,0,8,,,,,,,,,12,,,,58,99
149226,note_on,0,0,8,,,,,,,,,12,,,,63,99
149265,note_on,0,0,8,,,,,,,,,12,,,,58,0
149265,note_on,39,0,8,,,,,,,,,12,,,,63,0
149280,set_tempo,240,1,0,,,,,,272727,,,,,,,,
149280,note_on,60,0,6,,,,,,,,,10,,,,87,94
149282,note_on,60,0,7,,,,,,,,,11,,,,75,75
149283,note_on,360,0,1,,,,,,,,,0,,,,87,110
149286,note_on,0,0,8,,,,,,,,,12,,,,58,108
149286,note_on,21,0,8,,,,,,,,,12,,,,67,108
149290,note_on,240,0,9,,,,,,,,,13,,,,46,99
149292,note_on,240,0,10,,,,,,,,,14,,,,34,93
149325,note_on,0,0,8,,,,,,,,,12,,,,67,0
149325,note_on,39,0,8,,,,,,,,,12,,,,58,0
149346,note_on,21,0,8,,,,,,,,,12,,,,58,99
149346,note_on,0,0,8,,,,,,,,,12,,,,67,99
149385,note_on,0,0,8,,,,,,,,,12,,,,58,0
149385,note_on,39,0,8,,,,,,,,,12,,,,67,0
149406,note_on,0,0,8,,,,,,,,,12,,,,58,108
149406,note_on,21,0,8,,,,,,,,,12,,,,67,108
149445,note_on,0,0,8,,,,,,,,,12,,,,67,0
149445,note_on,39,0,8,,,,,,,,,12,,,,58,0
149460,note_on,0,0,6,,,,,,,,,10,,,,86,107
149460,note_on,180,0,6,,,,,,,,,10,,,,87,0
149462,note_on,0,0,7,,,,,,,,,11,,,,74,85
149462,note_on,180,0,7,,,,,,,,,11,,,,75,0
149463,note_on,180,0,1,,,,,,,,,0,,,,87,0
149463,note_on,0,0,1,,,,,,,,,0,,,,86,110
149466,note_on,0,0,8,,,,,,,,,12,,,,58,99
149466,note_on,21,0,8,,,,,,,,,12,,,,67,99
149470,note_on,0,0,9,,,,,,,,,13,,,,51,99
149470,note_on,180,0,9,,,,,,,,,13,,,,46,0
149472,note_on,180,0,10,,,,,,,,,14,,,,34,0
149472,note_on,0,0,10,,,,,,,,,14,,,,39,93
149505,note_on,39,0,8,,,,,,,,,12,,,,58,0
149505,note_on,0,0,8,,,,,,,,,12,,,,67,0
149509,note_on,39,0,9,,,,,,,,,13,,,,51,0
149511,note_on,39,0,10,,,,,,,,,14,,,,39,0
149520,note_on,0,0,6,,,,,,,,,10,,,,84,107
149520,note_on,60,0,6,,,,,,,,,10,,,,86,0
149520,set_tempo,240,1,0,,,,,,261438,,,,,,,,
149522,note_on,60,0,7,,,,,,,,,11,,,,74,0
149522,note_on,0,0,7,,,,,,,,,11,,,,72,85
149523,note_on,60,0,1,,,,,,,,,0,,,,86,0
149523,note_on,0,0,1,,,,,,,,,0,,,,84,110
149526,note_on,0,0,8,,,,,,,,,12,,,,58,108
149526,note_on,21,0,8,,,,,,,,,12,,,,67,108
149530,note_on,21,0,9,,,,,,,,,13,,,,55,99
149532,note_on,21,0,10,,,,,,,,,14,,,,43,93
149565,note_on,39,0,8,,,,,,,,,12,,,,58,0
149565,note_on,0,0,8,,,,,,,,,12,,,,67,0
149580,note_on,0,0,6,,,,,,,,,10,,,,82,108
149580,note_on,60,0,6,,,,,,,,,10,,,,84,0
149582,note_on,0,0,7,,,,,,,,,11,,,,70,86
149582,note_on,60,0,7,,,,,,,,,11,,,,72,0
149583,note_on,60,0,1,,,,,,,,,0,,,,84,0
149583,note_on,0,0,1,,,,,,,,,0,,,,82,110
149586,note_on,21,0,8,,,,,,,,,12,,,,67,99
149586,note_on,0,0,8,,,,,,,,,12,,,,58,99
149590,note_on,60,0,9,,,,,,,,,13,,,,55,0
149592,note_on,60,0,10,,,,,,,,,14,,,,43,0
149625,note_on,39,0,8,,,,,,,,,12,,,,58,0
149625,note_on,0,0,8,,,,,,,,,12,,,,67,0
149640,note_on,60,0,6,,,,,,,,,10,,,,82,0
149640,note_on,0,0,6,,,,,,,,,10,,,,80,108
149642,note_on,60,0,7,,,,,,,,,11,,,,70,0
149642,note_on,0,0,7,,,,,,,,,11,,,,68,86
149643,note_on,0,0,1,,,,,,,,,0,,,,80,110
149643,note_on,60,0,1,,,,,,,,,0,,,,82,0
149646,note_on,21,0,8,,,,,,,,,12,,,,58,108
149646,note_on,0,0,8,,,,,,,,,12,,,,67,108
149650,note_on,60,0,9,,,,,,,,,13,,,,55,99
149652,note_on,60,0,10,,,,,,,,,14,,,,43,93
149685,note_on,39,0,8,,,,,,,,,12,,,,67,0
149685,note_on,0,0,8,,,,,,,,,12,,,,58,0
149700,note_on,0,0,6,,,,,,,,,10,,,,79,108
149700,note_on,60,0,6,,,,,,,,,10,,,,80,0
149702,note_on,0,0,7,,,,,,,,,11,,,,67,86
149702,note_on,60,0,7,,,,,,,,,11,,,,68,0
149703,note_on,60,0,1,,,,,,,,,0,,,,80,0
149703,note_on,0,0,1,,,,,,,,,0,,,,79,110
149706,note_on,21,0,8,,,,,,,,,12,,,,58,99
149706,note_on,0,0,8,,,,,,,,,12,,,,67,99
149710,note_on,60,0,9,,,,,,,,,13,,,,55,0
149712,note_on,60,0,10,,,,,,,,,14,,,,43,0
149739,note_on,39,0,6,,,,,,,,,10,,,,79,0
149741,note_on,39,0,7,,,,,,,,,11,,,,67,0
149745,note_on,0,0,8,,,,,,,,,12,,,,58,0
149745,note_on,39,0,8,,,,,,,,,12,,,,67,0
149758,note_on,55,0,1,,,,,,,,,0,,,,79,0
149760,control_change,21,0,6,,,,,,,,,10,11,65,,,
149760,note_on,0,0,6,,,,,,,,,10,,,,77,108
149760,set_tempo,240,1,0,,,,,,272727,,,,,,,,
149762,control_change,21,0,7,,,,,,,,,11,11,65,,,
149762,note_on,0,0,7,,,,,,,,,11,,,,65,86
149763,note_on,5,0,1,,,,,,,,,0,,,,77,110
149765,note_on,0,0,2,,,,,,,,,1,,,,75,0
149765,note_on,960,0,2,,,,,,,,,1,,,,67,0
149765,note_on,0,0,2,,,,,,,,,1,,,,65,97
149765,note_on,0,0,2,,,,,,,,,1,,,,72,97
149766,control_change,21,0,8,,,,,,,,,12,11,57,,,
149766,note_on,0,0,8,,,,,,,,,12,,,,60,108
149770,control_change,60,0,9,,,,,,,,,13,11,57,,,
149770,note_on,0,0,9,,,,,,,,,13,,,,44,99
149771,note_on,0,0,3,,,,,,,,,3,,,,60,97
149771,note_on,0,0,3,,,,,,,,,3,,,,56,97
149771,note_on,960,0,3,,,,,,,,,3,,,,58,0
149772,note_on,0,0,10,,,,,,,,,14,,,,32,93
149772,control_change,60,0,10,,,,,,,,,14,11,57,,,
149777,control_change,17,0,6,,,,,,,,,10,11,63,,,
149779,control_change,17,0,7,,,,,,,,,11,11,63,,,
149795,control_change,18,0,6,,,,,,,,,10,11,61,,,
149797,control_change,18,0,7,,,,,,,,,11,11,61,,,
149798,control_change,32,0,8,,,,,,,,,12,11,58,,,
149802,control_change,32,0,9,,,,,,,,,13,11,58,,,
149804,control_change,32,0,10,,,,,,,,,14,11,58,,,
149805,note_on,7,0,8,,,,,,,,,12,,,,60,0
149813,control_change,18,0,6,,,,,,,,,10,11,58,,,
149815,control_change,18,0,7,,,,,,,,,11,11,58,,,
149826,note_on,21,0,8,,,,,,,,,12,,,,60,99
149830,control_change,4,0,8,,,,,,,,,12,11,59,,,
149834,control_change,32,0,9,,,,,,,,,13,11,59,,,
149836,control_change,32,0,10,,,,,,,,,14,11,59,,,
149856,control_change,43,0,6,,,,,,,,,10,11,60,,,
149858,control_change,43,0,7,,,,,,,,,11,11,60,,,
149862,control_change,32,0,8,,,,,,,,,12,11,60,,,
149865,note_on,3,0,8,,,,,,,,,12,,,,60,0
149866,control_change,32,0,9,,,,,,,,,13,11,60,,,
149868,control_change,32,0,10,,,,,,,,,14,11,60,,,
149883,note_on,120,0,1,,,,,,,,,0,,,,77,0
149885,note_on,120,0,2,,,,,,,,,1,,,,65,0
149885,note_on,0,0,2,,,,,,,,,1,,,,72,0
149886,note_on,21,0,8,,,,,,,,,12,,,,60,108
149888,control_change,32,0,6,,,,,,,,,10,11,61,,,
149890,control_change,32,0,7,,,,,,,,,11,11,61,,,
149894,control_change,8,0,8,,,,,,,,,12,11,61,,,
149898,control_change,32,0,9,,,,,,,,,13,11,61,,,
149900,control_change,32,0,10,,,,,,,,,14,11,61,,,
149920,control_change,32,0,6,,,,,,,,,10,11,62,,,
149922,control_change,32,0,7,,,,,,,,,11,11,62,,,
149925,note_on,31,0,8,,,,,,,,,12,,,,60,0
149926,control_change,1,0,8,,,,,,,,,12,11,62,,,
149930,control_change,32,0,9,,,,,,,,,13,11,62,,,
149932,control_change,32,0,10,,,,,,,,,14,11,62,,,
149940,note_on,0,0,6,,,,,,,,,10,,,,80,109
149940,note_on,20,0,6,,,,,,,,,10,,,,77,0
149942,note_on,20,0,7,,,,,,,,,11,,,,65,0
149942,note_on,0,0,7,,,,,,,,,11,,,,68,87
149946,note_on,20,0,8,,,,,,,,,12,,,,60,99
149952,control_change,12,0,6,,,,,,,,,10,11,62,,,
149954,control_change,12,0,7,,,,,,,,,11,11,62,,,
149958,control_change,12,0,8,,,,,,,,,12,11,62,,,
149962,control_change,32,0,9,,,,,,,,,13,11,62,,,
149964,control_change,32,0,10,,,,,,,,,14,11,62,,,
149979,note_on,27,0,6,,,,,,,,,10,,,,80,0
149981,note_on,27,0,7,,,,,,,,,11,,,,68,0
149984,control_change,5,0,6,,,,,,,,,10,11,63,,,
149985,note_on,27,0,8,,,,,,,,,12,,,,60,0
149986,control_change,5,0,7,,,,,,,,,11,11,63,,,
149990,control_change,5,0,8,,,,,,,,,12,11,63,,,
149994,control_change,32,0,9,,,,,,,,,13,11,63,,,
149996,control_change,32,0,10,,,,,,,,,14,11,63,,,
150000,set_tempo,240,1,0,,,,,,261438,,,,,,,,
150000,note_on,16,0,6,,,,,,,,,10,,,,84,109
150002,note_on,16,0,7,,,,,,,,,11,,,,72,87
150006,note_on,16,0,8,,,,,,,,,12,,,,60,108
150016,control_change,16,0,6,,,,,,,,,10,11,64,,,
150018,control_change,16,0,7,,,,,,,,,11,11,64,,,
150022,control_change,16,0,8,,,,,,,,,12,11,64,,,
150026,control_change,32,0,9,,,,,,,,,13,11,64,,,
150028,control_change,32,0,10,,,,,,,,,14,11,64,,,
150045,note_on,23,0,8,,,,,,,,,12,,,,60,0
150048,control_change,32,0,6,,,,,,,,,10,11,64,,,
150050,control_change,32,0,7,,,,,,,,,11,11,64,,,
150054,control_change,9,0,8,,,,,,,,,12,11,64,,,
150058,control_change,32,0,9,,,,,,,,,13,11,64,,,
150060,control_change,32,0,10,,,,,,,,,14,11,64,,,
150060,note_on,12,0,6,,,,,,,,,10,,,,84,0
150062,note_on,12,0,7,,,,,,,,,11,,,,72,0
150066,note_on,12,0,8,,,,,,,,,12,,,,60,99
150080,control_change,20,0,6,,,,,,,,,10,11,65,,,
150082,control_change,20,0,7,,,,,,,,,11,11,65,,,
150086,control_change,20,0,8,,,,,,,,,12,11,65,,,
150090,control_change,32,0,9,,,,,,,,,13,11,65,,,
150092,control_change,32,0,10,,,,,,,,,14,11,65,,,
150105,note_on,19,0,8,,,,,,,,,12,,,,60,0
150112,control_change,32,0,6,,,,,,,,,10,11,66,,,
150114,control_change,32,0,7,,,,,,,,,11,11,66,,,
150118,control_change,13,0,8,,,,,,,,,12,11,66,,,
150120,note_on,8,0,6,,,,,,,,,10,,,,84,109
150122,control_change,32,0,9,,,,,,,,,13,11,66,,,
150122,note_on,8,0,7,,,,,,,,,11,,,,72,87
150124,control_change,32,0,10,,,,,,,,,14,11,66,,,
150126,note_on,8,0,8,,,,,,,,,12,,,,60,108
150144,control_change,24,0,6,,,,,,,,,10,11,66,,,
150146,control_change,24,0,7,,,,,,,,,11,11,66,,,
150150,control_change,24,0,8,,,,,,,,,12,11,66,,,
150154,control_change,32,0,9,,,,,,,,,13,11,66,,,
150156,control_change,32,0,10,,,,,,,,,14,11,66,,,
150165,note_on,15,0,8,,,,,,,,,12,,,,60,0
150176,control_change,32,0,6,,,,,,,,,10,11,67,,,
150178,control_change,32,0,7,,,,,,,,,11,11,67,,,
150180,note_on,4,0,6,,,,,,,,,10,,,,84,0
150182,control_change,17,0,8,,,,,,,,,12,11,67,,,
150182,note_on,4,0,7,,,,,,,,,11,,,,72,0
150186,note_on,4,0,8,,,,,,,,,12,,,,60,99
150186,control_change,32,0,9,,,,,,,,,13,11,67,,,
150188,control_change,32,0,10,,,,,,,,,14,11,67,,,
150208,control_change,28,0,6,,,,,,,,,10,11,68,,,
150210,control_change,28,0,7,,,,,,,,,11,11,68,,,
150214,control_change,28,0,8,,,,,,,,,12,11,68,,,
150218,control_change,32,0,9,,,,,,,,,13,11,68,,,
150220,control_change,32,0,10,,,,,,,,,14,11,68,,,
150225,note_on,11,0,8,,,,,,,,,12,,,,60,0
150240,set_tempo,240,1,0,,,,,,272727,,,,,,,,
150240,control_change,32,0,6,,,,,,,,,10,11,68,,,
150240,note_on,0,0,6,,,,,,,,,10,,,,84,110
150242,note_on,0,0,7,,,,,,,,,11,,,,72,88
150242,control_change,32,0,7,,,,,,,,,11,11,68,,,
150243,note_on,360,0,1,,,,,,,,,0,,,,89,110
150245,note_on,360,0,2,,,,,,,,,1,,,,77,97
150245,note_on,27,0,9,,,,,,,,,13,,,,44,0
150246,note_on,0,0,8,,,,,,,,,12,,,,60,108
150246,control_change,21,0,8,,,,,,,,,12,11,68,,,
150247,note_on,27,0,10,,,,,,,,,14,,,,32,0
150250,note_on,0,0,9,,,,,,,,,13,,,,56,99
150250,control_change,5,0,9,,,,,,,,,13,11,68,,,
150252,note_on,0,0,10,,,,,,,,,14,,,,44,93
150252,control_change,5,0,10,,,,,,,,,14,11,68,,,
150272,control_change,32,0,6,,,,,,,,,10,11,68,,,
150274,control_change,32,0,7,,,,,,,,,11,11,68,,,
150278,control_change,32,0,8,,,,,,,,,12,11,68,,,
150282,control_change,32,0,9,,,,,,,,,13,11,68,,,
150284,control_change,32,0,10,,,,,,,,,14,11,68,,,
150285,note_on,7,0,8,,,,,,,,,12,,,,60,0
150304,control_change,32,0,6,,,,,,,,,10,11,67,,,
150306,control_change,32,0,7,,,,,,,,,11,11,67,,,
150306,note_on,21,0,8,,,,,,,,,12,,,,60,99
150310,control_change,4,0,8,,,,,,,,,12,11,67,,,
150314,control_change,32,0,9,,,,,,,,,13,11,67,,,
150316,control_change,32,0,10,,,,,,,,,14,11,67,,,
150336,control_change,32,0,6,,,,,,,,,10,11,66,,,
150338,control_change,32,0,7,,,,,,,,,11,11,66,,,
150342,control_change,32,0,8,,,,,,,,,12,11,66,,,
150345,note_on,3,0,8,,,,,,,,,12,,,,60,0
150346,control_change,32,0,9,,,,,,,,,13,11,66,,,
150348,control_change,32,0,10,,,,,,,,,14,11,66,,,
150366,note_on,21,0,8,,,,,,,,,12,,,,60,108
150368,control_change,32,0,6,,,,,,,,,10,11,66,,,
150370,control_change,32,0,7,,,,,,,,,11,11,66,,,
150374,control_change,8,0,8,,,,,,,,,12,11,66,,,
150378,control_change,32,0,9,,,,,,,,,13,11,66,,,
150380,control_change,32,0,10,,,,,,,,,14,11,66,,,
150400,control_change,32,0,6,,,,,,,,,10,11,65,,,
150402,control_change,32,0,7,,,,,,,,,11,11,65,,,
150405,note_on,31,0,8,,,,,,,,,12,,,,60,0
150406,control_change,1,0,8,,,,,,,,,12,11,65,,,
150410,control_change,32,0,9,,,,,,,,,13,11,65,,,
150412,control_change,32,0,10,,,,,,,,,14,11,65,,,
150426,note_on,20,0,8,,,,,,,,,12,,,,60,99
150432,control_change,32,0,6,,,,,,,,,10,11,64,,,
150434,control_change,32,0,7,,,,,,,,,11,11,64,,,
150438,control_change,12,0,8,,,,,,,,,12,11,64,,,
150442,control_change,32,0,9,,,,,,,,,13,11,64,,,
150444,control_change,32,0,10,,,,,,,,,14,11,64,,,
150464,control_change,32,0,6,,,,,,,,,10,11,64,,,
150465,note_on,27,0,8,,,,,,,,,12,,,,60,0
150466,control_change,32,0,7,,,,,,,,,11,11,64,,,
150470,control_change,5,0,8,,,,,,,,,12,11,64,,,
150474,control_change,32,0,9,,,,,,,,,13,11,64,,,
150476,control_change,32,0,10,,,,,,,,,14,11,64,,,
150480,note_on,16,0,6,,,,,,,,,10,,,,84,0
150480,note_on,0,0,6,,,,,,,,,10,,,,83,110
150480,set_tempo,240,1,0,,,,,,261438,,,,,,,,
150482,note_on,16,0,7,,,,,,,,,11,,,,72,0
150482,note_on,0,0,7,,,,,,,,,11,,,,71,88
150486,note_on,16,0,8,,,,,,,,,12,,,,62,108
150491,note_on,0,0,3,,,,,,,,,3,,,,62,97
150491,note_on,720,0,3,,,,,,,,,3,,,,60,0
150496,control_change,16,0,6,,,,,,,,,10,11,63,,,
150498,control_change,16,0,7,,,,,,,,,11,11,63,,,
150502,control_change,16,0,8,,,,,,,,,12,11,63,,,
150506,control_change,32,0,9,,,,,,,,,13,11,63,,,
150508,control_change,32,0,10,,,,,,,,,14,11,63,,,
150525,note_on,23,0,8,,,,,,,,,12,,,,62,0
150528,control_change,32,0,6,,,,,,,,,10,11,62,,,
150530,control_change,32,0,7,,,,,,,,,11,11,62,,,
150534,control_change,9,0,8,,,,,,,,,12,11,62,,,
150538,control_change,32,0,9,,,,,,,,,13,11,62,,,
150540,control_change,32,0,10,,,,,,,,,14,11,62,,,
150546,note_on,12,0,8,,,,,,,,,12,,,,62,99
150560,control_change,32,0,6,,,,,,,,,10,11,62,,,
150562,control_change,32,0,7,,,,,,,,,11,11,62,,,
150566,control_change,20,0,8,,,,,,,,,12,11,62,,,
150570,control_change,32,0,9,,,,,,,,,13,11,62,,,
150572,control_change,32,0,10,,,,,,,,,14,11,62,,,
150585,note_on,19,0,8,,,,,,,,,12,,,,62,0
150592,control_change,32,0,6,,,,,,,,,10,11,61,,,
150594,control_change,32,0,7,,,,,,,,,11,11,61,,,
150598,control_change,13,0,8,,,,,,,,,12,11,61,,,
150602,control_change,32,0,9,,,,,,,,,13,11,61,,,
150603,note_on,0,0,1,,,,,,,,,0,,,,87,110
150603,note_on,360,0,1,,,,,,,,,0,,,,89,0
150604,control_change,32,0,10,,,,,,,,,14,11,61,,,
150605,note_on,0,0,2,,,,,,,,,1,,,,75,97
150605,note_on,360,0,2,,,,,,,,,1,,,,77,0
150606,note_on,8,0,8,,,,,,,,,12,,,,62,108
150611,note_on,120,0,3,,,,,,,,,3,,,,62,0
150611,note_on,0,0,3,,,,,,,,,3,,,,63,97
150624,control_change,32,0,6,,,,,,,,,10,11,60,,,
150626,control_change,32,0,7,,,,,,,,,11,11,60,,,
150630,control_change,24,0,8,,,,,,,,,12,11,60,,,
150634,control_change,32,0,9,,,,,,,,,13,11,60,,,
150636,control_change,32,0,10,,,,,,,,,14,11,60,,,
150645,note_on,15,0,8,,,,,,,,,12,,,,62,0
150656,control_change,32,0,6,,,,,,,,,10,11,59,,,
150658,control_change,32,0,7,,,,,,,,,11,11,59,,,
150662,control_change,17,0,8,,,,,,,,,12,11,59,,,
150663,note_on,0,0,1,,,,,,,,,0,,,,86,110
150663,note_on,60,0,1,,,,,,,,,0,,,,87,0
150665,note_on,60,0,2,,,,,,,,,1,,,,75,0
150665,note_on,0,0,2,,,,,,,,,1,,,,74,97
150666,note_on,4,0,8,,,,,,,,,12,,,,62,99
150666,control_change,32,0,9,,,,,,,,,13,11,59,,,
150668,control_change,32,0,10,,,,,,,,,14,11,59,,,
150671,note_on,0,0,3,,,,,,,,,3,,,,65,97
150671,note_on,60,0,3,,,,,,,,,3,,,,63,0
150688,control_change,32,0,6,,,,,,,,,10,11,58,,,
150690,control_change,32,0,7,,,,,,,,,11,11,58,,,
150694,control_change,28,0,8,,,,,,,,,12,11,58,,,
150698,control_change,32,0,9,,,,,,,,,13,11,58,,,
150700,control_change,32,0,10,,,,,,,,,14,11,58,,,
150705,note_on,11,0,8,,,,,,,,,12,,,,62,0
150715,note_on,27,0,6,,,,,,,,,10,,,,83,0
150717,note_on,27,0,7,,,,,,,,,11,,,,71,0
150720,note_on,0,0,6,,,,,,,,,10,,,,82,110
150720,set_tempo,240,1,0,,,,,,272727,,,,,,,,
150720,control_change,5,0,6,,,,,,,,,10,11,57,,,
150722,control_change,5,0,7,,,,,,,,,11,11,57,,,
150722,note_on,0,0,7,,,,,,,,,11,,,,70,88
150723,note_on,0,0,1,,,,,,,,,0,,,,87,110
150723,note_on,60,0,1,,,,,,,,,0,,,,86,0
150725,note_on,0,0,2,,,,,,,,,1,,,,75,97
150725,note_on,60,0,2,,,,,,,,,1,,,,74,0
150725,note_on,0,0,2,,,,,,,,,1,,,,70,97
150725,note_on,27,0,9,,,,,,,,,13,,,,56,0
150726,control_change,21,0,8,,,,,,,,,12,11,57,,,
150726,note_on,0,0,8,,,,,,,,,12,,,,63,108
150727,note_on,27,0,10,,,,,,,,,14,,,,44,0
150730,control_change,5,0,9,,,,,,,,,13,11,57,,,
150730,note_on,0,0,9,,,,,,,,,13,,,,55,99
150731,note_on,0,0,3,,,,,,,,,3,,,,56,0
150731,note_on,60,0,3,,,,,,,,,3,,,,65,0
150731,note_on,0,0,3,,,,,,,,,3,,,,63,97
150731,note_on,0,0,3,,,,,,,,,3,,,,55,97
150732,control_change,5,0,10,,,,,,,,,14,11,57,,,
150732,note_on,0,0,10,,,,,,,,,14,,,,43,93
150765,note_on,39,0,8,,,,,,,,,12,,,,63,0
150786,note_on,21,0,8,,,,,,,,,12,,,,63,99
150825,note_on,39,0,8,,,,,,,,,12,,,,63,0
150846,note_on,21,0,8,,,,,,,,,12,,,,63,108
150885,note_on,39,0,8,,,,,,,,,12,,,,63,0
150906,note_on,21,0,8,,,,,,,,,12,,,,63,99
150945,note_on,39,0,8,,,,,,,,,12,,,,63,0
150960,set_tempo,240,1,0,,,,,,261438,,,,,,,,
150962,note_on,0,0,7,,,,,,,,,11,,,,74,88
150962,note_on,240,0,7,,,,,,,,,11,,,,70,0
150963,note_on,240,0,1,,,,,,,,,0,,,,87,0
150963,note_on,0,0,1,,,,,,,,,0,,,,86,110
150965,note_on,240,0,2,,,,,,,,,1,,,,75,0
150965,note_on,0,0,2,,,,,,,,,1,,,,74,97
150965,note_on,235,0,9,,,,,,,,,13,,,,55,0
150966,note_on,21,0,8,,,,,,,,,12,,,,60,108
150967,note_on,235,0,10,,,,,,,,,14,,,,43,0
150970,note_on,5,0,9,,,,,,,,,13,,,,56,99
150971,note_on,0,0,3,,,,,,,,,3,,,,56,97
150971,note_on,0,0,3,,,,,,,,,3,,,,55,0
150971,note_on,240,0,3,,,,,,,,,3,,,,63,0
150972,note_on,5,0,10,,,,,,,,,14,,,,44,93
151005,note_on,39,0,8,,,,,,,,,12,,,,60,0
151020,note_on,0,0,6,,,,,,,,,10,,,,80,110
151020,note_on,300,0,6,,,,,,,,,10,,,,82,0
151022,note_on,60,0,7,,,,,,,,,11,,,,74,0
151022,note_on,0,0,7,,,,,,,,,11,,,,72,88
151023,note_on,60,0,1,,,,,,,,,0,,,,86,0
151023,note_on,0,0,1,,,,,,,,,0,,,,84,110
151025,note_on,0,0,2,,,,,,,,,1,,,,72,97
151025,note_on,0,0,2,,,,,,,,,1,,,,68,97
151025,note_on,60,0,2,,,,,,,,,1,,,,74,0
151025,note_on,0,0,2,,,,,,,,,1,,,,70,0
151026,note_on,21,0,8,,,,,,,,,12,,,,60,99
151065,note_on,39,0,8,,,,,,,,,12,,,,60,0
151080,note_on,60,0,6,,,,,,,,,10,,,,80,0
151080,note_on,0,0,6,,,,,,,,,10,,,,79,110
151082,note_on,60,0,7,,,,,,,,,11,,,,72,0
151082,note_on,0,0,7,,,,,,,,,11,,,,70,88
151083,note_on,0,0,1,,,,,,,,,0,,,,82,110
151083,note_on,60,0,1,,,,,,,,,0,,,,84,0
151085,note_on,60,0,2,,,,,,,,,1,,,,68,0
151085,note_on,0,0,2,,,,,,,,,1,,,,72,0
151085,note_on,0,0,2,,,,,,,,,1,,,,67,97
151085,note_on,0,0,2,,,,,,,,,1,,,,70,97
151086,note_on,21,0,8,,,,,,,,,12,,,,60,108
151125,note_on,39,0,8,,,,,,,,,12,,,,60,0
151140,note_on,60,0,6,,,,,,,,,10,,,,79,0
151140,note_on,0,0,6,,,,,,,,,10,,,,77,110
151142,note_on,0,0,7,,,,,,,,,11,,,,68,88
151142,note_on,60,0,7,,,,,,,,,11,,,,70,0
151143,note_on,0,0,1,,,,,,,,,0,,,,80,110
151143,note_on,60,0,1,,,,,,,,,0,,,,82,0
151145,note_on,0,0,2,,,,,,,,,1,,,,68,97
151145,note_on,0,0,2,,,,,,,,,1,,,,67,0
151145,note_on,0,0,2,,,,,,,,,1,,,,65,97
151145,note_on,60,0,2,,,,,,,,,1,,,,70,0
151146,note_on,21,0,8,,,,,,,,,12,,,,60,99
151179,note_on,39,0,6,,,,,,,,,10,,,,77,0
151181,note_on,39,0,7,,,,,,,,,11,,,,68,0
151185,note_on,39,0,8,,,,,,,,,12,,,,60,0
151200,note_on,21,0,6,,,,,,,,,10,,,,75,110
151200,set_tempo,240,1,0,,,,,,272727,,,,,,,,
151202,note_on,21,0,7,,,,,,,,,11,,,,67,88
151203,note_on,0,0,1,,,,,,,,,0,,,,79,110
151203,note_on,60,0,1,,,,,,,,,0,,,,80,0
151205,note_on,235,0,9,,,,,,,,,13,,,,56,0
151205,note_on,60,0,2,,,,,,,,,1,,,,68,0
151205,note_on,0,0,2,,,,,,,,,1,,,,65,0
151205,note_on,0,0,2,,,,,,,,,1,,,,67,97
151205,note_on,0,0,2,,,,,,,,,1,,,,63,97
151206,note_on,21,0,8,,,,,,,,,12,,,,58,108
151207,note_on,235,0,10,,,,,,,,,14,,,,44,0
151210,note_on,5,0,9,,,,,,,,,13,,,,58,99
151211,note_on,0,0,3,,,,,,,,,3,,,,58,97
151211,note_on,240,0,3,,,,,,,,,3,,,,56,0
151212,note_on,5,0,10,,,,,,,,,14,,,,46,93
151245,note_on,39,0,8,,,,,,,,,12,,,,58,0
151266,note_on,21,0,8,,,,,,,,,12,,,,58,99
151305,note_on,39,0,8,,,,,,,,,12,,,,58,0
151326,note_on,21,0,8,,,,,,,,,12,,,,58,108
151365,note_on,39,0,8,,,,,,,,,12,,,,58,0
151386,note_on,21,0,8,,,,,,,,,12,,,,58,99
151425,note_on,39,0,8,,,,,,,,,12,,,,58,0
151440,set_tempo,240,1,0,,,,,,261438,,,,,,,,
151440,note_on,240,0,6,,,,,,,,,10,,,,75,0
151440,note_on,0,0,6,,,,,,,,,10,,,,74,97
151442,note_on,0,0,7,,,,,,,,,11,,,,65,77
151442,note_on,240,0,7,,,,,,,,,11,,,,67,0
151443,note_on,240,0,1,,,,,,,,,0,,,,79,0
151443,note_on,0,0,1,,,,,,,,,0,,,,77,110
151445,note_on,240,0,2,,,,,,,,,1,,,,63,0
151445,note_on,0,0,2,,,,,,,,,1,,,,67,0
151445,note_on,235,0,9,,,,,,,,,13,,,,58,0
151445,note_on,0,0,2,,,,,,,,,1,,,,62,97
151445,note_on,0,0,2,,,,,,,,,1,,,,65,97
151446,note_on,21,0,8,,,,,,,,,12,,,,58,108
151447,note_on,235,0,10,,,,,,,,,14,,,,46,0
151450,note_on,5,0,9,,,,,,,,,13,,,,46,99
151452,note_on,5,0,10,,,,,,,,,14,,,,34,93
151485,note_on,39,0,8,,,,,,,,,12,,,,58,0
151506,note_on,21,0,8,,,,,,,,,12,,,,58,99
151545,note_on,39,0,8,,,,,,,,,12,,,,58,0
151566,note_on,21,0,8,,,,,,,,,12,,,,58,108
151605,note_on,39,0,8,,,,,,,,,12,,,,58,0
151625,note_on,185,0,6,,,,,,,,,10,,,,74,0
151626,note_on,21,0,8,,,,,,,,,12,,,,58,99
151627,note_on,185,0,7,,,,,,,,,11,,,,65,0
151665,note_on,39,0,8,,,,,,,,,12,,,,58,0
151680,note_on,0,0,6,,,,,,,,,10,,,,77,110
151680,control_change,55,0,6,,,,,,,,,10,11,65,,,
151680,set_tempo,240,1,0,,,,,,272727,,,,,,,,
151682,control_change,55,0,7,,,,,,,,,11,11,65,,,
151682,note_on,0,0,7,,,,,,,,,11,,,,65,88
151683,note_on,240,0,1,,,,,,,,,0,,,,77,0
151685,note_on,0,0,2,,,,,,,,,1,,,,65,0
151685,note_on,235,0,9,,,,,,,,,13,,,,46,0
151685,note_on,240,0,2,,,,,,,,,1,,,,62,0
151686,control_change,21,0,8,,,,,,,,,12,11,57,,,
151686,note_on,0,0,8,,,,,,,,,12,,,,62,108
151687,note_on,235,0,10,,,,,,,,,14,,,,34,0
151690,note_on,0,0,9,,,,,,,,,13,,,,44,99
151690,control_change,5,0,9,,,,,,,,,13,11,57,,,
151691,note_on,0,0,3,,,,,,,,,3,,,,60,97
151691,note_on,0,0,3,,,,,,,,,3,,,,56,97
151691,note_on,480,0,3,,,,,,,,,3,,,,58,0
151692,control_change,5,0,10,,,,,,,,,14,11,57,,,
151692,note_on,0,0,10,,,,,,,,,14,,,,32,93
151697,control_change,17,0,6,,,,,,,,,10,11,63,,,
151699,control_change,17,0,7,,,,,,,,,11,11,63,,,
151715,control_change,18,0,6,,,,,,,,,10,11,61,,,
151717,control_change,18,0,7,,,,,,,,,11,11,61,,,
151718,control_change,32,0,8,,,,,,,,,12,11,58,,,
151722,control_change,32,0,9,,,,,,,,,13,11,58,,,
151724,control_change,32,0,10,,,,,,,,,14,11,58,,,
151725,note_on,7,0,8,,,,,,,,,12,,,,62,0
151733,control_change,18,0,6,,,,,,,,,10,11,58,,,
151735,control_change,18,0,7,,,,,,,,,11,11,58,,,
151746,note_on,21,0,8,,,,,,,,,12,,,,62,99
151750,control_change,4,0,8,,,,,,,,,12,11,59,,,
151754,control_change,32,0,9,,,,,,,,,13,11,59,,,
151756,control_change,32,0,10,,,,,,,,,14,11,59,,,
151776,control_change,43,0,6,,,,,,,,,10,11,60,,,
151778,control_change,43,0,7,,,,,,,,,11,11,60,,,
151782,control_change,32,0,8,,,,,,,,,12,11,60,,,
151785,note_on,3,0,8,,,,,,,,,12,,,,62,0
151786,control_change,32,0,9,,,,,,,,,13,11,60,,,
151788,control_change,32,0,10,,,,,,,,,14,11,60,,,
151806,note_on,21,0,8,,,,,,,,,12,,,,62,108
151808,control_change,32,0,6,,,,,,,,,10,11,61,,,
151810,control_change,32,0,7,,,,,,,,,11,11,61,,,
151814,control_change,8,0,8,,,,,,,,,12,11,61,,,
151818,control_change,32,0,9,,,,,,,,,13,11,61,,,
151820,control_change,32,0,10,,,,,,,,,14,11,61,,,
151840,control_change,32,0,6,,,,,,,,,10,11,62,,,
151842,control_change,32,0,7,,,,,,,,,11,11,62,,,
151845,note_on,31,0,8,,,,,,,,,12,,,,62,0
151846,control_change,1,0,8,,,,,,,,,12,11,62,,,
151850,control_change,32,0,9,,,,,,,,,13,11,62,,,
151852,control_change,32,0,10,,,,,,,,,14,11,62,,,
151860,note_on,0,0,6,,,,,,,,,10,,,,80,110
151860,note_on,20,0,6,,,,,,,,,10,,,,77,0
151862,note_on,20,0,7,,,,,,,,,11,,,,65,0
151862,note_on,0,0,7,,,,,,,,,11,,,,68,88
151866,note_on,20,0,8,,,,,,,,,12,,,,62,99
151872,control_change,12,0,6,,,,,,,,,10,11,62,,,
151874,control_change,12,0,7,,,,,,,,,11,11,62,,,
151878,control_change,12,0,8,,,,,,,,,12,11,62,,,
151882,control_change,32,0,9,,,,,,,,,13,11,62,,,
151884,control_change,32,0,10,,,,,,,,,14,11,62,,,
151899,note_on,27,0,6,,,,,,,,,10,,,,80,0
151901,note_on,27,0,7,,,,,,,,,11,,,,68,0
151904,control_change,5,0,6,,,,,,,,,10,11,63,,,
151905,note_on,27,0,8,,,,,,,,,12,,,,62,0
151906,control_change,5,0,7,,,,,,,,,11,11,63,,,
151910,control_change,5,0,8,,,,,,,,,12,11,63,,,
151914,control_change,32,0,9,,,,,,,,,13,11,63,,,
151916,control_change,32,0,10,,,,,,,,,14,11,63,,,
151920,set_tempo,240,1,0,,,,,,261438,,,,,,,,
151920,note_on,16,0,6,,,,,,,,,10,,,,84,110
151922,note_on,16,0,7,,,,,,,,,11,,,,72,88
151926,note_on,16,0,8,,,,,,,,,12,,,,62,108
151936,control_change,16,0,6,,,,,,,,,10,11,64,,,
151938,control_change,16,0,7,,,,,,,,,11,11,64,,,
151942,control_change,16,0,8,,,,,,,,,12,11,64,,,
151946,control_change,32,0,9,,,,,,,,,13,11,64,,,
151948,control_change,32,0,10,,,,,,,,,14,11,64,,,
151965,note_on,23,0,8,,,,,,,,,12,,,,62,0
151968,control_change,32,0,6,,,,,,,,,10,11,64,,,
151970,control_change,32,0,7,,,,,,,,,11,11,64,,,
151974,control_change,9,0,8,,,,,,,,,12,11,64,,,
151978,control_change,32,0,9,,,,,,,,,13,11,64,,,
151980,control_change,32,0,10,,,,,,,,,14,11,64,,,
151980,note_on,12,0,6,,,,,,,,,10,,,,84,0
151982,note_on,12,0,7,,,,,,,,,11,,,,72,0
151986,note_on,12,0,8,,,,,,,,,12,,,,62,99
152000,control_change,20,0,6,,,,,,,,,10,11,65,,,
152002,control_change,20,0,7,,,,,,,,,11,11,65,,,
152006,control_change,20,0,8,,,,,,,,,12,11,65,,,
152010,control_change,32,0,9,,,,,,,,,13,11,65,,,
152012,control_change,32,0,10,,,,,,,,,14,11,65,,,
152025,note_on,19,0,8,,,,,,,,,12,,,,62,0
152032,control_change,32,0,6,,,,,,,,,10,11,66,,,
152034,control_change,32,0,7,,,,,,,,,11,11,66,,,
152038,control_change,13,0,8,,,,,,,,,12,11,66,,,
152040,note_on,8,0,6,,,,,,,,,10,,,,84,110
152042,control_change,32,0,9,,,,,,,,,13,11,66,,,
152042,note_on,8,0,7,,,,,,,,,11,,,,72,88
152044,control_change,32,0,10,,,,,,,,,14,11,66,,,
152046,note_on,8,0,8,,,,,,,,,12,,,,62,108
152064,control_change,24,0,6,,,,,,,,,10,11,66,,,
152066,control_change,24,0,7,,,,,,,,,11,11,66,,,
152070,control_change,24,0,8,,,,,,,,,12,11,66,,,
152074,control_change,32,0,9,,,,,,,,,13,11,66,,,
152076,control_change,32,0,10,,,,,,,,,14,11,66,,,
152085,note_on,15,0,8,,,,,,,,,12,,,,62,0
152096,control_change,32,0,6,,,,,,,,,10,11,67,,,
152098,control_change,32,0,7,,,,,,,,,11,11,67,,,
152100,note_on,4,0,6,,,,,,,,,10,,,,84,0
152102,control_change,17,0,8,,,,,,,,,12,11,67,,,
152102,note_on,4,0,7,,,,,,,,,11,,,,72,0
152106,control_change,32,0,9,,,,,,,,,13,11,67,,,
152106,note_on,4,0,8,,,,,,,,,12,,,,62,99
152108,control_change,32,0,10,,,,,,,,,14,11,67,,,
152128,control_change,28,0,6,,,,,,,,,10,11,68,,,
152130,control_change,28,0,7,,,,,,,,,11,11,68,,,
152134,control_change,28,0,8,,,,,,,,,12,11,68,,,
152138,control_change,32,0,9,,,,,,,,,13,11,68,,,
152140,control_change,32,0,10,,,,,,,,,14,11,68,,,
152145,note_on,11,0,8,,,,,,,,,12,,,,62,0
152160,note_on,0,0,6,,,,,,,,,10,,,,84,110
152160,set_tempo,240,1,0,,,,,,272727,,,,,,,,
152160,control_change,32,0,6,,,,,,,,,10,11,68,,,
152162,control_change,32,0,7,,,,,,,,,11,11,68,,,
152162,note_on,0,0,7,,,,,,,,,11,,,,72,88
152163,note_on,480,0,1,,,,,,,,,0,,,,89,97
152165,note_on,27,0,9,,,,,,,,,13,,,,44,0
152165,note_on,480,0,2,,,,,,,,,1,,,,77,97
152166,control_change,21,0,8,,,,,,,,,12,11,68,,,
152166,note_on,0,0,8,,,,,,,,,12,,,,62,108
152167,note_on,27,0,10,,,,,,,,,14,,,,32,0
152170,control_change,5,0,9,,,,,,,,,13,11,68,,,
152170,note_on,0,0,9,,,,,,,,,13,,,,56,99
152172,note_on,0,0,10,,,,,,,,,14,,,,44,93
152172,control_change,5,0,10,,,,,,,,,14,11,68,,,
152192,control_change,32,0,6,,,,,,,,,10,11,68,,,
152194,control_change,32,0,7,,,,,,,,,11,11,68,,,
152198,control_change,32,0,8,,,,,,,,,12,11,68,,,
152202,control_change,32,0,9,,,,,,,,,13,11,68,,,
152204,control_change,32,0,10,,,,,,,,,14,11,68,,,
152205,note_on,7,0,8,,,,,,,,,12,,,,62,0
152224,control_change,32,0,6,,,,,,,,,10,11,67,,,
152226,note_on,21,0,8,,,,,,,,,12,,,,62,99
152226,control_change,32,0,7,,,,,,,,,11,11,67,,,
152230,control_change,4,0,8,,,,,,,,,12,11,67,,,
152234,control_change,32,0,9,,,,,,,,,13,11,67,,,
152236,control_change,32,0,10,,,,,,,,,14,11,67,,,
152256,control_change,32,0,6,,,,,,,,,10,11,66,,,
152258,control_change,32,0,7,,,,,,,,,11,11,66,,,
152262,control_change,32,0,8,,,,,,,,,12,11,66,,,
152265,note_on,3,0,8,,,,,,,,,12,,,,62,0
152266,control_change,32,0,9,,,,,,,,,13,11,66,,,
152268,control_change,32,0,10,,,,,,,,,14,11,66,,,
152286,note_on,21,0,8,,,,,,,,,12,,,,62,108
152288,control_change,32,0,6,,,,,,,,,10,11,66,,,
152290,control_change,32,0,7,,,,,,,,,11,11,66,,,
152294,control_change,8,0,8,,,,,,,,,12,11,66,,,
152298,control_change,32,0,9,,,,,,,,,13,11,66,,,
152300,control_change,32,0,10,,,,,,,,,14,11,66,,,
152320,control_change,32,0,6,,,,,,,,,10,11,65,,,
152322,control_change,32,0,7,,,,,,,,,11,11,65,,,
152325,note_on,31,0,8,,,,,,,,,12,,,,62,0
152326,control_change,1,0,8,,,,,,,,,12,11,65,,,
152330,control_change,32,0,9,,,,,,,,,13,11,65,,,
152332,control_change,32,0,10,,,,,,,,,14,11,65,,,
152346,note_on,20,0,8,,,,,,,,,12,,,,62,99
152352,control_change,32,0,6,,,,,,,,,10,11,64,,,
152354,control_change,32,0,7,,,,,,,,,11,11,64,,,
152358,control_change,12,0,8,,,,,,,,,12,11,64,,,
152362,control_change,32,0,9,,,,,,,,,13,11,64,,,
152364,control_change,32,0,10,,,,,,,,,14,11,64,,,
152384,control_change,32,0,6,,,,,,,,,10,11,64,,,
152385,note_on,27,0,8,,,,,,,,,12,,,,62,0
152386,control_change,32,0,7,,,,,,,,,11,11,64,,,
152390,control_change,5,0,8,,,,,,,,,12,11,64,,,
152394,control_change,32,0,9,,,,,,,,,13,11,64,,,
152396,control_change,32,0,10,,,,,,,,,14,11,64,,,
152400,note_on,0,0,6,,,,,,,,,10,,,,83,110
152400,set_tempo,240,1,0,,,,,,261438,,,,,,,,
152400,note_on,16,0,6,,,,,,,,,10,,,,84,0
152402,note_on,16,0,7,,,,,,,,,11,,,,72,0
152402,note_on,0,0,7,,,,,,,,,11,,,,71,88
152406,note_on,16,0,8,,,,,,,,,12,,,,62,108
152411,note_on,0,0,3,,,,,,,,,3,,,,62,97
152411,note_on,720,0,3,,,,,,,,,3,,,,60,0
152416,control_change,16,0,6,,,,,,,,,10,11,63,,,
152418,control_change,16,0,7,,,,,,,,,11,11,63,,,
152422,control_change,16,0,8,,,,,,,,,12,11,63,,,
152426,control_change,32,0,9,,,,,,,,,13,11,63,,,
152428,control_change,32,0,10,,,,,,,,,14,11,63,,,
152445,note_on,23,0,8,,,,,,,,,12,,,,62,0
152448,control_change,32,0,6,,,,,,,,,10,11,62,,,
152450,control_change,32,0,7,,,,,,,,,11,11,62,,,
152454,control_change,9,0,8,,,,,,,,,12,11,62,,,
152458,control_change,32,0,9,,,,,,,,,13,11,62,,,
152460,control_change,32,0,10,,,,,,,,,14,11,62,,,
152466,note_on,12,0,8,,,,,,,,,12,,,,62,99
152480,control_change,32,0,6,,,,,,,,,10,11,62,,,
152482,control_change,32,0,7,,,,,,,,,11,11,62,,,
152486,control_change,20,0,8,,,,,,,,,12,11,62,,,
152490,control_change,32,0,9,,,,,,,,,13,11,62,,,
152492,control_change,32,0,10,,,,,,,,,14,11,62,,,
152505,note_on,19,0,8,,,,,,,,,12,,,,62,0
152512,control_change,32,0,6,,,,,,,,,10,11,61,,,
152514,control_change,32,0,7,,,,,,,,,11,11,61,,,
152518,control_change,13,0,8,,,,,,,,,12,11,61,,,
152522,control_change,32,0,9,,,,,,,,,13,11,61,,,
152523,note_on,0,0,1,,,,,,,,,0,,,,87,97
152523,note_on,360,0,1,,,,,,,,,0,,,,89,0
152524,control_change,32,0,10,,,,,,,,,14,11,61,,,
152525,note_on,0,0,2,,,,,,,,,1,,,,75,97
152525,note_on,360,0,2,,,,,,,,,1,,,,77,0
152526,note_on,8,0,8,,,,,,,,,12,,,,62,108
152531,note_on,120,0,3,,,,,,,,,3,,,,62,0
152531,note_on,0,0,3,,,,,,,,,3,,,,63,97
152544,control_change,32,0,6,,,,,,,,,10,11,60,,,
152546,control_change,32,0,7,,,,,,,,,11,11,60,,,
152550,control_change,24,0,8,,,,,,,,,12,11,60,,,
152554,control_change,32,0,9,,,,,,,,,13,11,60,,,
152556,control_change,32,0,10,,,,,,,,,14,11,60,,,
152565,note_on,15,0,8,,,,,,,,,12,,,,62,0
152576,control_change,32,0,6,,,,,,,,,10,11,59,,,
152578,control_change,32,0,7,,,,,,,,,11,11,59,,,
152582,control_change,17,0,8,,,,,,,,,12,11,59,,,
152583,note_on,60,0,1,,,,,,,,,0,,,,87,0
152583,note_on,0,0,1,,,,,,,,,0,,,,86,97
152585,note_on,60,0,2,,,,,,,,,1,,,,75,0
152585,note_on,0,0,2,,,,,,,,,1,,,,74,97
152586,control_change,32,0,9,,,,,,,,,13,11,59,,,
152586,note_on,4,0,8,,,,,,,,,12,,,,62,99
152588,control_change,32,0,10,,,,,,,,,14,11,59,,,
152591,note_on,60,0,3,,,,,,,,,3,,,,63,0
152591,note_on,0,0,3,,,,,,,,,3,,,,65,97
152608,control_change,32,0,6,,,,,,,,,10,11,58,,,
152610,control_change,32,0,7,,,,,,,,,11,11,58,,,
152614,control_change,28,0,8,,,,,,,,,12,11,58,,,
152618,control_change,32,0,9,,,,,,,,,13,11,58,,,
152620,control_change,32,0,10,,,,,,,,,14,11,58,,,
152625,note_on,11,0,8,,,,,,,,,12,,,,62,0
152635,note_on,27,0,6,,,,,,,,,10,,,,83,0
152637,note_on,27,0,7,,,,,,,,,11,,,,71,0
152640,set_tempo,240,1,0,,,,,,272727,,,,,,,,
152640,control_change,5,0,6,,,,,,,,,10,11,57,,,
152640,note_on,0,0,6,,,,,,,,,10,,,,82,110
152642,control_change,5,0,7,,,,,,,,,11,11,57,,,
152642,note_on,0,0,7,,,,,,,,,11,,,,70,88
152643,note_on,60,0,1,,,,,,,,,0,,,,86,0
152643,note_on,0,0,1,,,,,,,,,0,,,,87,97
152645,note_on,0,0,2,,,,,,,,,1,,,,70,97
152645,note_on,0,0,2,,,,,,,,,1,,,,75,97
152645,note_on,27,0,9,,,,,,,,,13,,,,56,0
152645,note_on,60,0,2,,,,,,,,,1,,,,74,0
152646,note_on,0,0,8,,,,,,,,,12,,,,63,108
152646,control_change,21,0,8,,,,,,,,,12,11,57,,,
152647,note_on,27,0,10,,,,,,,,,14,,,,44,0
152650,control_change,5,0,9,,,,,,,,,13,11,57,,,
152650,note_on,0,0,9,,,,,,,,,13,,,,55,99
152651,note_on,60,0,3,,,,,,,,,3,,,,65,0
152651,note_on,0,0,3,,,,,,,,,3,,,,56,0
152651,note_on,0,0,3,,,,,,,,,3,,,,55,97
152651,note_on,0,0,3,,,,,,,,,3,,,,63,97
152652,note_on,0,0,10,,,,,,,,,14,,,,43,93
152652,control_change,5,0,10,,,,,,,,,14,11,57,,,
152685,note_on,39,0,8,,,,,,,,,12,,,,63,0
152706,note_on,21,0,8,,,,,,,,,12,,,,63,99
152745,note_on,39,0,8,,,,,,,,,12,,,,63,0
152766,note_on,21,0,8,,,,,,,,,12,,,,63,108
152805,note_on,39,0,8,,,,,,,,,12,,,,63,0
152826,note_on,21,0,8,,,,,,,,,12,,,,63,99
152865,note_on,39,0,8,,,,,,,,,12,,,,63,0
152880,set_tempo,240,1,0,,,,,,261438,,,,,,,,
152882,note_on,240,0,7,,,,,,,,,11,,,,70,0
152882,note_on,0,0,7,,,,,,,,,11,,,,74,88
152883,note_on,240,0,1,,,,,,,,,0,,,,87,0
152883,note_on,0,0,1,,,,,,,,,0,,,,86,97
152885,note_on,0,0,2,,,,,,,,,1,,,,74,97
152885,note_on,240,0,2,,,,,,,,,1,,,,75,0
152885,note_on,235,0,9,,,,,,,,,13,,,,55,0
152886,note_on,21,0,8,,,,,,,,,12,,,,60,108
152887,note_on,235,0,10,,,,,,,,,14,,,,43,0
152890,note_on,5,0,9,,,,,,,,,13,,,,56,99
152891,note_on,0,0,3,,,,,,,,,3,,,,55,0
152891,note_on,240,0,3,,,,,,,,,3,,,,63,0
152891,note_on,0,0,3,,,,,,,,,3,,,,56,97
152892,note_on,5,0,10,,,,,,,,,14,,,,44,93
152925,note_on,39,0,8,,,,,,,,,12,,,,60,0
152940,note_on,0,0,6,,,,,,,,,10,,,,80,110
152940,note_on,300,0,6,,,,,,,,,10,,,,82,0
152942,note_on,0,0,7,,,,,,,,,11,,,,72,88
152942,note_on,60,0,7,,,,,,,,,11,,,,74,0
152943,note_on,0,0,1,,,,,,,,,0,,,,84,97
152943,note_on,60,0,1,,,,,,,,,0,,,,86,0
152945,note_on,0,0,2,,,,,,,,,1,,,,70,0
152945,note_on,0,0,2,,,,,,,,,1,,,,72,97
152945,note_on,0,0,2,,,,,,,,,1,,,,68,97
152945,note_on,60,0,2,,,,,,,,,1,,,,74,0
152946,note_on,21,0,8,,,,,,,,,12,,,,60,99
152985,note_on,39,0,8,,,,,,,,,12,,,,60,0
153000,note_on,0,0,6,,,,,,,,,10,,,,79,110
153000,note_on,60,0,6,,,,,,,,,10,,,,80,0
153002,note_on,60,0,7,,,,,,,,,11,,,,72,0
153002,note_on,0,0,7,,,,,,,,,11,,,,70,88
153003,note_on,0,0,1,,,,,,,,,0,,,,82,97
153003,note_on,60,0,1,,,,,,,,,0,,,,84,0
153005,note_on,0,0,2,,,,,,,,,1,,,,67,97
153005,note_on,60,0,2,,,,,,,,,1,,,,68,0
153005,note_on,0,0,2,,,,,,,,,1,,,,72,0
153005,note_on,0,0,2,,,,,,,,,1,,,,70,97
153006,note_on,21,0,8,,,,,,,,,12,,,,60,108
153045,note_on,39,0,8,,,,,,,,,12,,,,60,0
153060,note_on,0,0,6,,,,,,,,,10,,,,77,110
153060,note_on,60,0,6,,,,,,,,,10,,,,79,0
153062,note_on,0,0,7,,,,,,,,,11,,,,68,88
153062,note_on,60,0,7,,,,,,,,,11,,,,70,0
153063,note_on,60,0,1,,,,,,,,,0,,,,82,0
153063,note_on,0,0,1,,,,,,,,,0,,,,80,97
153065,note_on,0,0,2,,,,,,,,,1,,,,70,0
153065,note_on,0,0,2,,,,,,,,,1,,,,65,97
153065,note_on,0,0,2,,,,,,,,,1,,,,68,97
153065,note_on,60,0,2,,,,,,,,,1,,,,67,0
153066,note_on,21,0,8,,,,,,,,,12,,,,60,99
153099,note_on,39,0,6,,,,,,,,,10,,,,77,0
153101,note_on,39,0,7,,,,,,,,,11,,,,68,0
153105,note_on,39,0,8,,,,,,,,,12,,,,60,0
153120,note_on,21,0,6,,,,,,,,,10,,,,75,110
153120,set_tempo,240,1,0,,,,,,272727,,,,,,,,
153122,note_on,21,0,7,,,,,,,,,11,,,,67,88
153123,note_on,60,0,1,,,,,,,,,0,,,,80,0
153123,note_on,0,0,1,,,,,,,,,0,,,,79,97
153125,note_on,0,0,2,,,,,,,,,1,,,,63,97
153125,note_on,0,0,2,,,,,,,,,1,,,,65,0
153125,note_on,60,0,2,,,,,,,,,1,,,,68,0
153125,note_on,235,0,9,,,,,,,,,13,,,,56,0
153125,note_on,0,0,2,,,,,,,,,1,,,,67,97
153126,note_on,21,0,8,,,,,,,,,12,,,,58,108
153127,note_on,235,0,10,,,,,,,,,14,,,,44,0
153130,note_on,5,0,9,,,,,,,,,13,,,,58,99
153131,note_on,0,0,3,,,,,,,,,3,,,,58,97
153131,note_on,240,0,3,,,,,,,,,3,,,,56,0
153132,note_on,5,0,10,,,,,,,,,14,,,,46,93
153165,note_on,39,0,8,,,,,,,,,12,,,,58,0
153186,note_on,21,0,8,,,,,,,,,12,,,,58,99
153225,note_on,39,0,8,,,,,,,,,12,,,,58,0
153246,note_on,21,0,8,,,,,,,,,12,,,,58,108
153285,note_on,39,0,8,,,,,,,,,12,,,,58,0
153306,note_on,21,0,8,,,,,,,,,12,,,,58,99
153345,note_on,39,0,8,,,,,,,,,12,,,,58,0
153360,note_on,0,0,6,,,,,,,,,10,,,,74,97
153360,note_on,240,0,6,,,,,,,,,10,,,,75,0
153360,set_tempo,240,1,0,,,,,,261438,,,,,,,,
153362,note_on,0,0,7,,,,,,,,,11,,,,65,77
153362,note_on,240,0,7,,,,,,,,,11,,,,67,0
153363,note_on,0,0,1,,,,,,,,,0,,,,77,97
153363,note_on,240,0,1,,,,,,,,,0,,,,79,0
153365,note_on,0,0,2,,,,,,,,,1,,,,65,97
153365,note_on,0,0,2,,,,,,,,,1,,,,62,97
153365,note_on,240,0,2,,,,,,,,,1,,,,63,0
153365,note_on,0,0,2,,,,,,,,,1,,,,67,0
153366,note_on,21,0,8,,,,,,,,,12,,,,58,108
153405,note_on,39,0,8,,,,,,,,,12,,,,58,0
153426,note_on,21,0,8,,,,,,,,,12,,,,58,99
153465,note_on,39,0,8,,,,,,,,,12,,,,58,0
153486,note_on,21,0,8,,,,,,,,,12,,,,58,108
153525,note_on,39,0,8,,,,,,,,,12,,,,58,0
153545,note_on,185,0,6,,,,,,,,,10,,,,74,0
153546,note_on,21,0,8,,,,,,,,,12,,,,58,99
153547,note_on,185,0,7,,,,,,,,,11,,,,65,0
153585,note_on,39,0,8,,,,,,,,,12,,,,58,0
153600,note_on,0,0,6,,,,,,,,,10,,,,75,110
153600,note_on,0,0,6,,,,,,,,,10,,,,63,110
153600,set_tempo,240,1,0,,,,,,267261,,,,,,,,
153600,control_change,55,0,6,,,,,,,,,10,11,65,,,
153602,note_on,0,0,7,,,,,,,,,11,,,,63,110
153602,note_on,0,0,7,,,,,,,,,11,,,,55,110
153602,control_change,55,0,7,,,,,,,,,11,11,65,,,
153603,control_change,0,0,1,,,,,,,,,0,11,79,,,
153603,note_on,0,0,1,,,,,,,,,0,,,,75,97
153603,note_on,240,0,1,,,,,,,,,0,,,,77,0
153604,control_change,7560,0,4,,,,,,,,,4,11,79,,,
153604,note_on,0,0,4,,,,,,,,,4,,,,63,100
153605,control_change,0,0,2,,,,,,,,,1,11,79,,,
153605,note_on,0,0,2,,,,,,,,,1,,,,75,97
153605,note_on,0,0,2,,,,,,,,,1,,,,67,97
153605,note_on,0,0,2,,,,,,,,,1,,,,62,0
153605,note_on,240,0,2,,,,,,,,,1,,,,65,0
153605,note_on,475,0,9,,,,,,,,,13,,,,58,0
153606,control_change,7560,0,5,,,,,,,,,5,11,79,,,
153606,control_change,21,0,8,,,,,,,,,12,11,65,,,
153606,note_on,0,0,8,,,,,,,,,12,,,,63,108
153606,note_on,0,0,8,,,,,,,,,12,,,,55,108
153606,note_on,0,0,5,,,,,,,,,5,,,,58,100
153607,note_on,475,0,10,,,,,,,,,14,,,,46,0
153610,control_change,5,0,9,,,,,,,,,13,11,65,,,
153610,note_on,0,0,9,,,,,,,,,13,,,,51,99
153611,note_on,480,0,3,,,,,,,,,3,,,,58,0
153611,note_on,0,0,3,,,,,,,,,3,,,,51,97
153611,control_change,0,0,3,,,,,,,,,3,11,79,,,
153612,note_on,0,0,10,,,,,,,,,14,,,,39,93
153612,control_change,5,0,10,,,,,,,,,14,11,65,,,
153618,control_change,18,0,6,,,,,,,,,10,11,69,,,
153620,control_change,18,0,7,,,,,,,,,11,11,69,,,
153624,control_change,18,0,8,,,,,,,,,12,11,69,,,
153628,control_change,18,0,9,,,,,,,,,13,11,69,,,
153630,control_change,18,0,10,,,,,,,,,14,11,69,,,
153636,note_on,0,0,7,,,,,,,,,11,,,,63,0
153636,control_change,18,0,6,,,,,,,,,10,11,73,,,
153636,note_on,16,0,7,,,,,,,,,11,,,,55,0
153638,control_change,2,0,7,,,,,,,,,11,11,73,,,
153640,note_on,0,0,8,,,,,,,,,12,,,,63,0
153640,note_on,16,0,8,,,,,,,,,12,,,,55,0
153642,control_change,2,0,8,,,,,,,,,12,11,73,,,
153646,control_change,18,0,9,,,,,,,,,13,11,73,,,
153648,control_change,18,0,10,,,,,,,,,14,11,73,,,
153649,note_on,3,0,9,,,,,,,,,13,,,,51,0
153651,note_on,3,0,10,,,,,,,,,14,,,,39,0
153654,control_change,18,0,6,,,,,,,,,10,11,77,,,
153656,control_change,18,0,7,,,,,,,,,11,11,77,,,
153660,control_change,18,0,8,,,,,,,,,12,11,77,,,
153662,note_on,0,0,7,,,,,,,,,11,,,,63,101
153662,note_on,6,0,7,,,,,,,,,11,,,,55,101
153664,control_change,15,0,9,,,,,,,,,13,11,77,,,
153666,control_change,15,0,10,,,,,,,,,14,11,77,,,
153666,note_on,6,0,8,,,,,,,,,12,,,,63,99
153666,note_on,0,0,8,,,,,,,,,12,,,,55,99
153670,note_on,6,0,9,,,,,,,,,13,,,,51,90
153672,note_on,6,0,10,,,,,,,,,14,,,,39,84
153696,note_on,0,0,7,,,,,,,,,11,,,,55,0
153696,note_on,34,0,7,,,,,,,,,11,,,,63,0
153700,note_on,0,0,8,,,,,,,,,12,,,,63,0
153700,note_on,34,0,8,,,,,,,,,12,,,,55,0
153709,note_on,39,0,9,,,,,,,,,13,,,,51,0
153711,note_on,39,0,10,,,,,,,,,14,,,,39,0
153722,note_on,0,0,7,,,,,,,,,11,,,,63,110
153722,note_on,26,0,7,,,,,,,,,11,,,,55,110
153726,note_on,26,0,8,,,,,,,,,12,,,,63,108
153726,note_on,0,0,8,,,,,,,,,12,,,,55,108
153730,note_on,21,0,9,,,,,,,,,13,,,,51,99
153732,note_on,21,0,10,,,,,,,,,14,,,,39,93
153756,note_on,0,0,7,,,,,,,,,11,,,,55,0
153756,note_on,34,0,7,,,,,,,,,11,,,,63,0
153760,note_on,34,0,8,,,,,,,,,12,,,,55,0
153760,note_on,0,0,8,,,,,,,,,12,,,,63,0
153769,note_on,39,0,9,,,,,,,,,13,,,,51,0
153771,note_on,39,0,10,,,,,,,,,14,,,,39,0
153775,note_on,0,0,6,,,,,,,,,10,,,,63,0
153775,note_on,121,0,6,,,,,,,,,10,,,,75,0
153778,note_on,175,0,1,,,,,,,,,0,,,,75,0
153780,note_on,5,0,6,,,,,,,,,10,,,,67,110
153782,note_on,26,0,7,,,,,,,,,11,,,,55,101
153782,note_on,0,0,7,,,,,,,,,11,,,,63,101
153783,note_on,5,0,1,,,,,,,,,0,,,,79,97
153786,note_on,26,0,8,,,,,,,,,12,,,,63,99
153786,note_on,0,0,8,,,,,,,,,12,,,,55,99
153790,note_on,21,0,9,,,,,,,,,13,,,,51,90
153792,note_on,21,0,10,,,,,,,,,14,,,,39,84
153815,note_on,35,0,6,,,,,,,,,10,,,,67,0
153816,note_on,34,0,7,,,,,,,,,11,,,,63,0
153816,note_on,0,0,7,,,,,,,,,11,,,,55,0
153820,note_on,0,0,8,,,,,,,,,12,,,,63,0
153820,note_on,34,0,8,,,,,,,,,12,,,,55,0
153829,note_on,39,0,9,,,,,,,,,13,,,,51,0
153831,note_on,39,0,10,,,,,,,,,14,,,,39,0
153838,note_on,55,0,1,,,,,,,,,0,,,,79,0
153840,note_on,25,0,6,,,,,,,,,10,,,,70,110
153840,set_tempo,240,1,0,,,,,,254777,,,,,,,,
153842,note_on,26,0,7,,,,,,,,,11,,,,63,110
153842,note_on,0,0,7,,,,,,,,,11,,,,55,110
153843,note_on,5,0,1,,,,,,,,,0,,,,82,97
153846,note_on,0,0,8,,,,,,,,,12,,,,55,108
153846,note_on,26,0,8,,,,,,,,,12,,,,63,108
153850,note_on,21,0,9,,,,,,,,,13,,,,51,99
153852,note_on,21,0,10,,,,,,,,,14,,,,39,93
153876,note_on,34,0,7,,,,,,,,,11,,,,55,0
153876,note_on,0,0,7,,,,,,,,,11,,,,63,0
153880,note_on,0,0,8,,,,,,,,,12,,,,63,0
153880,note_on,34,0,8,,,,,,,,,12,,,,55,0
153888,note_on,48,0,6,,,,,,,,,10,,,,70,0
153889,note_on,39,0,9,,,,,,,,,13,,,,51,0
153891,note_on,39,0,10,,,,,,,,,14,,,,39,0
153902,note_on,26,0,7,,,,,,,,,11,,,,55,101
153902,note_on,0,0,7,,,,,,,,,11,,,,63,101
153903,note_on,60,0,1,,,,,,,,,0,,,,82,0
153906,note_on,0,0,8,,,,,,,,,12,,,,55,99
153906,note_on,26,0,8,,,,,,,,,12,,,,63,99
153910,note_on,21,0,9,,,,,,,,,13,,,,51,90
153912,note_on,21,0,10,,,,,,,,,14,,,,39,84
153936,note_on,0,0,7,,,,,,,,,11,,,,55,0
153936,note_on,34,0,7,,,,,,,,,11,,,,63,0
153940,note_on,0,0,8,,,,,,,,,12,,,,63,0
153940,note_on,34,0,8,,,,,,,,,12,,,,55,0
153949,note_on,39,0,9,,,,,,,,,13,,,,51,0
153951,note_on,39,0,10,,,,,,,,,14,,,,39,0
153960,note_on,72,0,6,,,,,,,,,10,,,,74,110
153962,note_on,26,0,7,,,,,,,,,11,,,,66,110
153963,note_on,60,0,1,,,,,,,,,0,,,,86,97
153964,note_on,360,0,4,,,,,,,,,4,,,,63,0
153965,note_on,360,0,2,,,,,,,,,1,,,,75,0
153965,note_on,0,0,2,,,,,,,,,1,,,,67,0
153965,note_on,0,0,2,,,,,,,,,1,,,,74,97
153965,note_on,0,0,2,,,,,,,,,1,,,,66,97
153966,note_on,26,0,8,,,,,,,,,12,,,,62,108
153966,note_on,360,0,5,,,,,,,,,5,,,,58,0
153970,note_on,21,0,9,,,,,,,,,13,,,,51,99
153972,note_on,21,0,10,,,,,,,,,14,,,,39,93
153996,note_on,34,0,7,,,,,,,,,11,,,,66,0
154000,note_on,34,0,8,,,,,,,,,12,,,,62,0
154008,note_on,48,0,6,,,,,,,,,10,,,,74,0
154009,note_on,39,0,9,,,,,,,,,13,,,,51,0
154011,note_on,39,0,10,,,,,,,,,14,,,,39,0
154022,note_on,26,0,7,,,,,,,,,11,,,,66,101
154023,note_on,60,0,1,,,,,,,,,0,,,,86,0
154025,note_on,0,0,2,,,,,,,,,1,,,,74,0
154025,note_on,60,0,2,,,,,,,,,1,,,,66,0
154026,note_on,26,0,8,,,,,,,,,12,,,,62,99
154030,note_on,21,0,9,,,,,,,,,13,,,,51,90
154032,note_on,21,0,10,,,,,,,,,14,,,,39,84
154056,note_on,34,0,7,,,,,,,,,11,,,,66,0
154060,note_on,34,0,8,,,,,,,,,12,,,,62,0
154069,note_on,39,0,9,,,,,,,,,13,,,,51,0
154071,note_on,39,0,10,,,,,,,,,14,,,,39,0
154080,set_tempo,240,1,0,,,,,,263736,,,,,,,,
154080,note_on,72,0,6,,,,,,,,,10,,,,75,110
154082,note_on,26,0,7,,,,,,,,,11,,,,67,110
154083,note_on,60,0,1,,,,,,,,,0,,,,87,97
154085,note_on,0,0,2,,,,,,,,,1,,,,67,97
154085,note_on,60,0,2,,,,,,,,,1,,,,75,97
154086,note_on,26,0,8,,,,,,,,,12,,,,63,108
154090,note_on,21,0,9,,,,,,,,,13,,,,51,99
154092,note_on,21,0,10,,,,,,,,,14,,,,39,93
154116,note_on,34,0,7,,,,,,,,,11,,,,67,0
154120,note_on,34,0,8,,,,,,,,,12,,,,63,0
154129,note_on,39,0,9,,,,,,,,,13,,,,51,0
154131,note_on,39,0,10,,,,,,,,,14,,,,39,0
154140,note_on,60,0,6,,,,,,,,,10,,,,75,0
154142,note_on,26,0,7,,,,,,,,,11,,,,67,101
154143,note_on,60,0,1,,,,,,,,,0,,,,87,0
154145,note_on,60,0,2,,,,,,,,,1,,,,67,0
154145,note_on,0,0,2,,,,,,,,,1,,,,75,0
154146,note_on,26,0,8,,,,,,,,,12,,,,63,99
154150,note_on,21,0,9,,,,,,,,,13,,,,51,90
154152,note_on,21,0,10,,,,,,,,,14,,,,39,84
154176,note_on,34,0,7,,,,,,,,,11,,,,67,0
154180,note_on,34,0,8,,,,,,,,,12,,,,63,0
154189,note_on,39,0,9,,,,,,,,,13,,,,51,0
154191,note_on,39,0,10,,,,,,,,,14,,,,39,0
154200,note_on,60,0,6,,,,,,,,,10,,,,78,110
154202,note_on,26,0,7,,,,,,,,,11,,,,74,110
154203,note_on,60,0,1,,,,,,,,,0,,,,90,97
154205,note_on,60,0,2,,,,,,,,,1,,,,78,97
154205,note_on,0,0,2,,,,,,,,,1,,,,74,97
154206,note_on,26,0,8,,,,,,,,,12,,,,66,108
154210,note_on,21,0,9,,,,,,,,,13,,,,51,99
154212,note_on,21,0,10,,,,,,,,,14,,,,39,93
154236,note_on,34,0,7,,,,,,,,,11,,,,74,0
154240,note_on,34,0,8,,,,,,,,,12,,,,66,0
154249,note_on,39,0,9,,,,,,,,,13,,,,51,0
154251,note_on,39,0,10,,,,,,,,,14,,,,39,0
154260,note_on,60,0,6,,,,,,,,,10,,,,78,0
154262,note_on,26,0,7,,,,,,,,,11,,,,74,101
154263,note_on,60,0,1,,,,,,,,,0,,,,90,0
154265,note_on,60,0,2,,,,,,,,,1,,,,74,0
154265,note_on,0,0,2,,,,,,,,,1,,,,78,0
154266,note_on,26,0,8,,,,,,,,,12,,,,66,99
154270,note_on,21,0,9,,,,,,,,,13,,,,51,90
154272,note_on,21,0,10,,,,,,,,,14,,,,39,84
154296,note_on,34,0,7,,,,,,,,,11,,,,74,0
154300,note_on,34,0,8,,,,,,,,,12,,,,66,0
154309,note_on,39,0,9,,,,,,,,,13,,,,51,0
154311,note_on,39,0,10,,,,,,,,,14,,,,39,0
154320,set_tempo,240,1,0,,,,,,254777,,,,,,,,
154320,note_on,60,0,6,,,,,,,,,10,,,,79,110
154322,note_on,26,0,7,,,,,,,,,11,,,,75,110
154323,note_on,60,0,1,,,,,,,,,0,,,,91,97
154325,note_on,0,0,2,,,,,,,,,1,,,,79,97
154325,note_on,60,0,2,,,,,,,,,1,,,,75,97
154326,note_on,26,0,8,,,,,,,,,12,,,,67,108
154330,note_on,21,0,9,,,,,,,,,13,,,,51,99
154332,note_on,21,0,10,,,,,,,,,14,,,,39,93
154356,note_on,34,0,7,,,,,,,,,11,,,,75,0
154360,note_on,34,0,8,,,,,,,,,12,,,,67,0
154369,note_on,39,0,9,,,,,,,,,13,,,,51,0
154371,note_on,39,0,10,,,,,,,,,14,,,,39,0
154380,note_on,60,0,6,,,,,,,,,10,,,,79,0
154382,note_on,26,0,7,,,,,,,,,11,,,,75,101
154383,note_on,60,0,1,,,,,,,,,0,,,,91,0
154385,note_on,0,0,2,,,,,,,,,1,,,,75,0
154385,note_on,60,0,2,,,,,,,,,1,,,,79,0
154386,note_on,26,0,8,,,,,,,,,12,,,,67,99
154390,note_on,21,0,9,,,,,,,,,13,,,,51,90
154392,note_on,21,0,10,,,,,,,,,14,,,,39,84
154416,note_on,34,0,7,,,,,,,,,11,,,,75,0
154420,note_on,34,0,8,,,,,,,,,12,,,,67,0
154429,note_on,39,0,9,,,,,,,,,13,,,,51,0
154431,note_on,39,0,10,,,,,,,,,14,,,,39,0
154440,note_on,60,0,6,,,,,,,,,10,,,,81,110
154442,note_on,26,0,7,,,,,,,,,11,,,,78,110
154443,note_on,60,0,1,,,,,,,,,0,,,,81,97
154445,note_on,60,0,2,,,,,,,,,1,,,,78,97
154445,note_on,0,0,2,,,,,,,,,1,,,,81,97
154446,note_on,26,0,8,,,,,,,,,12,,,,69,108
154450,note_on,21,0,9,,,,,,,,,13,,,,51,99
154452,note_on,21,0,10,,,,,,,,,14,,,,39,93
154476,note_on,34,0,7,,,,,,,,,11,,,,78,0
154480,note_on,34,0,8,,,,,,,,,12,,,,69,0
154489,note_on,39,0,9,,,,,,,,,13,,,,51,0
154491,note_on,39,0,10,,,,,,,,,14,,,,39,0
154500,note_on,60,0,6,,,,,,,,,10,,,,81,0
154502,note_on,26,0,7,,,,,,,,,11,,,,78,101
154503,note_on,60,0,1,,,,,,,,,0,,,,81,0
154505,note_on,60,0,2,,,,,,,,,1,,,,81,0
154505,note_on,0,0,2,,,,,,,,,1,,,,78,0
154506,note_on,26,0,8,,,,,,,,,12,,,,69,99
154510,note_on,21,0,9,,,,,,,,,13,,,,51,90
154512,note_on,21,0,10,,,,,,,,,14,,,,39,84
154536,note_on,34,0,7,,,,,,,,,11,,,,78,0
154540,note_on,34,0,8,,,,,,,,,12,,,,69,0
154549,note_on,39,0,9,,,,,,,,,13,,,,51,0
154551,note_on,39,0,10,,,,,,,,,14,,,,39,0
154560,set_tempo,240,1,0,,,,,,263736,,,,,,,,
154560,note_on,60,0,6,,,,,,,,,10,,,,82,110
154562,note_on,0,0,7,,,,,,,,,11,,,,70,110
154562,note_on,26,0,7,,,,,,,,,11,,,,79,110
154563,note_on,60,0,1,,,,,,,,,0,,,,82,97
154564,note_on,600,0,4,,,,,,,,,4,,,,58,88
154565,note_on,60,0,2,,,,,,,,,1,,,,79,97
154565,note_on,0,0,2,,,,,,,,,1,,,,82,97
154566,note_on,26,0,8,,,,,,,,,12,,,,70,108
154566,note_on,0,0,8,,,,,,,,,12,,,,67,108
154566,note_on,600,0,5,,,,,,,,,5,,,,46,88
154570,note_on,21,0,9,,,,,,,,,13,,,,39,99
154571,note_on,960,0,3,,,,,,,,,3,,,,51,0
154571,note_on,0,0,3,,,,,,,,,3,,,,39,97
154572,note_on,21,0,10,,,,,,,,,14,,,,27,93
154594,note_on,34,0,6,,,,,,,,,10,,,,82,0
154596,note_on,0,0,7,,,,,,,,,11,,,,79,0
154596,note_on,34,0,7,,,,,,,,,11,,,,70,0
154600,note_on,34,0,8,,,,,,,,,12,,,,67,0
154600,note_on,0,0,8,,,,,,,,,12,,,,70,0
154620,note_on,26,0,6,,,,,,,,,10,,,,82,101
154622,note_on,26,0,7,,,,,,,,,11,,,,79,101
154622,note_on,0,0,7,,,,,,,,,11,,,,70,101
154626,note_on,26,0,8,,,,,,,,,12,,,,67,99
154626,note_on,0,0,8,,,,,,,,,12,,,,70,99
154654,note_on,34,0,6,,,,,,,,,10,,,,82,0
154656,note_on,34,0,7,,,,,,,,,11,,,,70,0
154656,note_on,0,0,7,,,,,,,,,11,,,,79,0
154660,note_on,34,0,8,,,,,,,,,12,,,,70,0
154660,note_on,0,0,8,,,,,,,,,12,,,,67,0
154680,note_on,26,0,6,,,,,,,,,10,,,,82,110
154682,note_on,26,0,7,,,,,,,,,11,,,,70,110
154682,note_on,0,0,7,,,,,,,,,11,,,,79,110
154686,note_on,26,0,8,,,,,,,,,12,,,,70,108
154686,note_on,0,0,8,,,,,,,,,12,,,,67,108
154714,note_on,34,0,6,,,,,,,,,10,,,,82,0
154716,note_on,34,0,7,,,,,,,,,11,,,,79,0
154716,note_on,0,0,7,,,,,,,,,11,,,,70,0
154720,note_on,34,0,8,,,,,,,,,12,,,,67,0
154720,note_on,0,0,8,,,,,,,,,12,,,,70,0
154740,note_on,26,0,6,,,,,,,,,10,,,,82,101
154742,note_on,0,0,7,,,,,,,,,11,,,,79,101
154742,note_on,26,0,7,,,,,,,,,11,,,,70,101
154745,note_on,175,0,9,,,,,,,,,13,,,,39,0
154746,note_on,26,0,8,,,,,,,,,12,,,,70,99
154746,note_on,0,0,8,,,,,,,,,12,,,,67,99
154746,note_on,175,0,3,,,,,,,,,3,,,,39,0
154747,note_on,175,0,10,,,,,,,,,14,,,,27,0
154750,note_on,5,0,9,,,,,,,,,13,,,,43,99
154751,note_on,5,0,3,,,,,,,,,3,,,,43,97
154752,note_on,5,0,10,,,,,,,,,14,,,,31,93
154774,note_on,34,0,6,,,,,,,,,10,,,,82,0
154776,note_on,0,0,7,,,,,,,,,11,,,,70,0
154776,note_on,34,0,7,,,,,,,,,11,,,,79,0
154780,note_on,0,0,8,,,,,,,,,12,,,,70,0
154780,note_on,34,0,8,,,,,,,,,12,,,,67,0
154789,note_on,39,0,9,,,,,,,,,13,,,,43,0
154791,note_on,39,0,10,,,,,,,,,14,,,,31,0
154800,note_on,26,0,6,,,,,,,,,10,,,,82,110
154800,set_tempo,240,1,0,,,,,,254777,,,,,,,,
154802,note_on,0,0,7,,,,,,,,,11,,,,79,110
154802,note_on,26,0,7,,,,,,,,,11,,,,70,110
154806,note_on,0,0,8,,,,,,,,,12,,,,70,108
154806,note_on,26,0,8,,,,,,,,,12,,,,67,108
154806,note_on,55,0,3,,,,,,,,,3,,,,43,0
154810,note_on,21,0,9,,,,,,,,,13,,,,46,99
154811,note_on,5,0,3,,,,,,,,,3,,,,46,97
154812,note_on,21,0,10,,,,,,,,,14,,,,34,93
154834,note_on,34,0,6,,,,,,,,,10,,,,82,0
154836,note_on,34,0,7,,,,,,,,,11,,,,79,0
154836,note_on,0,0,7,,,,,,,,,11,,,,70,0
154840,note_on,34,0,8,,,,,,,,,12,,,,70,0
154840,note_on,0,0,8,,,,,,,,,12,,,,67,0
154860,note_on,26,0,6,,,,,,,,,10,,,,82,101
154862,note_on,26,0,7,,,,,,,,,11,,,,79,101
154862,note_on,0,0,7,,,,,,,,,11,,,,70,101
154866,note_on,26,0,8,,,,,,,,,12,,,,67,99
154866,note_on,0,0,8,,,,,,,,,12,,,,70,99
154870,note_on,60,0,9,,,,,,,,,13,,,,46,0
154871,note_on,60,0,3,,,,,,,,,3,,,,46,0
154872,note_on,60,0,10,,,,,,,,,14,,,,34,0
154894,note_on,34,0,6,,,,,,,,,10,,,,82,0
154896,note_on,0,0,7,,,,,,,,,11,,,,79,0
154896,note_on,34,0,7,,,,,,,,,11,,,,70,0
154900,note_on,34,0,8,,,,,,,,,12,,,,70,0
154900,note_on,0,0,8,,,,,,,,,12,,,,67,0
154920,note_on,26,0,6,,,,,,,,,10,,,,82,110
154922,note_on,0,0,7,,,,,,,,,11,,,,70,110
154922,note_on,26,0,7,,,,,,,,,11,,,,79,110
154926,note_on,26,0,8,,,,,,,,,12,,,,70,108
154926,note_on,0,0,8,,,,,,,,,12,,,,67,108
154930,note_on,60,0,9,,,,,,,,,13,,,,50,99
154931,note_on,60,0,3,,,,,,,,,3,,,,50,97
154932,note_on,60,0,10,,,,,,,,,14,,,,38,93
154954,note_on,34,0,6,,,,,,,,,10,,,,82,0
154956,note_on,34,0,7,,,,,,,,,11,,,,70,0
154956,note_on,0,0,7,,,,,,,,,11,,,,79,0
154960,note_on,0,0,8,,,,,,,,,12,,,,70,0
154960,note_on,34,0,8,,,,,,,,,12,,,,67,0
154980,note_on,26,0,6,,,,,,,,,10,,,,82,101
154982,note_on,0,0,7,,,,,,,,,11,,,,70,101
154982,note_on,26,0,7,,,,,,,,,11,,,,79,101
154986,note_on,26,0,8,,,,,,,,,12,,,,67,99
154986,note_on,0,0,8,,,,,,,,,12,,,,70,99
154990,note_on,60,0,9,,,,,,,,,13,,,,50,0
154991,note_on,60,0,3,,,,,,,,,3,,,,50,0
154992,note_on,60,0,10,,,,,,,,,14,,,,38,0
155014,note_on,34,0,6,,,,,,,,,10,,,,82,0
155016,note_on,34,0,7,,,,,,,,,11,,,,70,0
155016,note_on,0,0,7,,,,,,,,,11,,,,79,0
155020,note_on,34,0,8,,,,,,,,,12,,,,70,0
155020,note_on,0,0,8,,,,,,,,,12,,,,67,0
155040,set_tempo,240,1,0,,,,,,263736,,,,,,,,
155040,note_on,26,0,6,,,,,,,,,10,,,,82,110
155042,note_on,26,0,7,,,,,,,,,11,,,,70,110
155042,note_on,0,0,7,,,,,,,,,11,,,,79,110
155046,note_on,26,0,8,,,,,,,,,12,,,,67,108
155046,note_on,0,0,8,,,,,,,,,12,,,,70,108
155050,note_on,60,0,9,,,,,,,,,13,,,,51,99
155051,note_on,60,0,3,,,,,,,,,3,,,,51,97
155052,note_on,60,0,10,,,,,,,,,14,,,,39,93
155074,note_on,34,0,6,,,,,,,,,10,,,,82,0
155076,note_on,0,0,7,,,,,,,,,11,,,,70,0
155076,note_on,34,0,7,,,,,,,,,11,,,,79,0
155080,note_on,0,0,8,,,,,,,,,12,,,,67,0
155080,note_on,34,0,8,,,,,,,,,12,,,,70,0
155100,note_on,26,0,6,,,,,,,,,10,,,,82,101
155102,note_on,0,0,7,,,,,,,,,11,,,,79,101
155102,note_on,26,0,7,,,,,,,,,11,,,,70,101
155106,note_on,0,0,8,,,,,,,,,12,,,,70,99
155106,note_on,26,0,8,,,,,,,,,12,,,,67,99
155110,note_on,60,0,9,,,,,,,,,13,,,,51,0
155111,note_on,60,0,3,,,,,,,,,3,,,,51,0
155112,note_on,60,0,10,,,,,,,,,14,,,,39,0
155134,note_on,34,0,6,,,,,,,,,10,,,,82,0
155136,note_on,0,0,7,,,,,,,,,11,,,,70,0
155136,note_on,34,0,7,,,,,,,,,11,,,,79,0
155140,note_on,34,0,8,,,,,,,,,12,,,,70,0
155140,note_on,0,0,8,,,,,,,,,12,,,,67,0
155160,note_on,26,0,6,,,,,,,,,10,,,,82,110
155162,note_on,26,0,7,,,,,,,,,11,,,,79,110
155162,note_on,0,0,7,,,,,,,,,11,,,,70,110
155166,note_on,0,0,8,,,,,,,,,12,,,,67,108
155166,note_on,26,0,8,,,,,,,,,12,,,,70,108
155170,note_on,60,0,9,,,,,,,,,13,,,,54,99
155171,note_on,60,0,3,,,,,,,,,3,,,,54,97
155172,note_on,60,0,10,,,,,,,,,14,,,,42,93
155194,note_on,34,0,6,,,,,,,,,10,,,,82,0
155196,note_on,34,0,7,,,,,,,,,11,,,,70,0
155196,note_on,0,0,7,,,,,,,,,11,,,,79,0
155200,note_on,0,0,8,,,,,,,,,12,,,,70,0
155200,note_on,34,0,8,,,,,,,,,12,,,,67,0
155220,note_on,26,0,6,,,,,,,,,10,,,,82,101
155222,note_on,26,0,7,,,,,,,,,11,,,,70,101
155222,note_on,0,0,7,,,,,,,,,11,,,,79,101
155226,note_on,26,0,8,,,,,,,,,12,,,,67,99
155226,note_on,0,0,8,,,,,,,,,12,,,,70,99
155230,note_on,60,0,9,,,,,,,,,13,,,,54,0
155231,note_on,60,0,3,,,,,,,,,3,,,,54,0
155232,note_on,60,0,10,,,,,,,,,14,,,,42,0
155254,note_on,34,0,6,,,,,,,,,10,,,,82,0
155256,note_on,34,0,7,,,,,,,,,11,,,,79,0
155256,note_on,0,0,7,,,,,,,,,11,,,,70,0
155260,note_on,0,0,8,,,,,,,,,12,,,,67,0
155260,note_on,34,0,8,,,,,,,,,12,,,,70,0
155280,note_on,26,0,6,,,,,,,,,10,,,,82,110
155280,set_tempo,240,1,0,,,,,,254777,,,,,,,,
155282,note_on,0,0,7,,,,,,,,,11,,,,79,110
155282,note_on,26,0,7,,,,,,,,,11,,,,70,110
155286,note_on,26,0,8,,,,,,,,,12,,,,67,108
155286,note_on,0,0,8,,,,,,,,,12,,,,70,108
155290,note_on,60,0,9,,,,,,,,,13,,,,55,99
155291,note_on,60,0,3,,,,,,,,,3,,,,55,97
155292,note_on,60,0,10,,,,,,,,,14,,,,43,93
155314,note_on,34,0,6,,,,,,,,,10,,,,82,0
155316,note_on,0,0,7,,,,,,,,,11,,,,70,0
155316,note_on,34,0,7,,,,,,,,,11,,,,79,0
155320,note_on,34,0,8,,,,,,,,,12,,,,70,0
155320,note_on,0,0,8,,,,,,,,,12,,,,67,0
155340,note_on,26,0,6,,,,,,,,,10,,,,82,101
155342,note_on,0,0,7,,,,,,,,,11,,,,70,101
155342,note_on,26,0,7,,,,,,,,,11,,,,79,101
155346,note_on,0,0,8,,,,,,,,,12,,,,70,99
155346,note_on,26,0,8,,,,,,,,,12,,,,67,99
155350,note_on,60,0,9,,,,,,,,,13,,,,55,0
155351,note_on,60,0,3,,,,,,,,,3,,,,55,0
155352,note_on,60,0,10,,,,,,,,,14,,,,43,0
155374,note_on,34,0,6,,,,,,,,,10,,,,82,0
155376,note_on,0,0,7,,,,,,,,,11,,,,79,0
155376,note_on,34,0,7,,,,,,,,,11,,,,70,0
155380,note_on,0,0,8,,,,,,,,,12,,,,67,0
155380,note_on,34,0,8,,,,,,,,,12,,,,70,0
155400,note_on,26,0,6,,,,,,,,,10,,,,82,110
155402,note_on,26,0,7,,,,,,,,,11,,,,70,110
155402,note_on,0,0,7,,,,,,,,,11,,,,79,110
155406,note_on,26,0,8,,,,,,,,,12,,,,70,108
155406,note_on,0,0,8,,,,,,,,,12,,,,67,108
155410,note_on,60,0,9,,,,,,,,,13,,,,58,99
155411,note_on,60,0,3,,,,,,,,,3,,,,58,97
155412,note_on,60,0,10,,,,,,,,,14,,,,46,93
155434,note_on,34,0,6,,,,,,,,,10,,,,82,0
155436,note_on,34,0,7,,,,,,,,,11,,,,79,0
155436,note_on,0,0,7,,,,,,,,,11,,,,70,0
155440,note_on,0,0,8,,,,,,,,,12,,,,70,0
155440,note_on,34,0,8,,,,,,,,,12,,,,67,0
155460,note_on,26,0,6,,,,,,,,,10,,,,82,101
155462,note_on,0,0,7,,,,,,,,,11,,,,79,101
155462,note_on,26,0,7,,,,,,,,,11,,,,70,101
155466,note_on,0,0,8,,,,,,,,,12,,,,67,99
155466,note_on,26,0,8,,,,,,,,,12,,,,70,99
155470,note_on,60,0,9,,,,,,,,,13,,,,58,0
155471,note_on,60,0,3,,,,,,,,,3,,,,58,0
155472,note_on,60,0,10,,,,,,,,,14,,,,46,0
155494,note_on,34,0,6,,,,,,,,,10,,,,82,0
155496,note_on,0,0,7,,,,,,,,,11,,,,70,0
155496,note_on,34,0,7,,,,,,,,,11,,,,79,0
155500,note_on,34,0,8,,,,,,,,,12,,,,67,0
155500,note_on,0,0,8,,,,,,,,,12,,,,70,0
155519,note_on,955,0,4,,,,,,,,,4,,,,58,0
155520,note_on,26,0,6,,,,,,,,,10,,,,80,110
155520,set_tempo,240,1,0,,,,,,263736,,,,,,,,
155521,note_on,955,0,5,,,,,,,,,5,,,,46,0
155522,note_on,26,0,7,,,,,,,,,11,,,,74,110
155522,note_on,0,0,7,,,,,,,,,11,,,,65,110
155523,note_on,0,0,1,,,,,,,,,0,,,,92,97
155523,note_on,960,0,1,,,,,,,,,0,,,,82,0
155524,note_on,5,0,4,,,,,,,,,4,,,,58,88
155525,note_on,0,0,2,,,,,,,,,1,,,,74,97
155525,note_on,960,0,2,,,,,,,,,1,,,,82,0
155525,note_on,0,0,2,,,,,,,,,1,,,,79,0
155525,note_on,0,0,2,,,,,,,,,1,,,,77,97
155526,note_on,5,0,5,,,,,,,,,5,,,,46,88
155526,note_on,26,0,8,,,,,,,,,12,,,,70,108
155530,note_on,60,0,9,,,,,,,,,13,,,,46,99
155531,note_on,60,0,3,,,,,,,,,3,,,,46,97
155532,note_on,60,0,10,,,,,,,,,14,,,,34,93
155651,note_on,131,0,6,,,,,,,,,10,,,,80,0
155653,note_on,131,0,7,,,,,,,,,11,,,,65,0
155653,note_on,0,0,7,,,,,,,,,11,,,,74,0
155688,note_on,165,0,1,,,,,,,,,0,,,,92,0
155690,note_on,0,0,2,,,,,,,,,1,,,,74,0
155690,note_on,165,0,2,,,,,,,,,1,,,,77,0
155700,note_on,49,0,6,,,,,,,,,10,,,,79,110
155702,note_on,49,0,7,,,,,,,,,11,,,,75,110
155703,note_on,15,0,1,,,,,,,,,0,,,,91,97
155705,note_on,0,0,2,,,,,,,,,1,,,,75,97
155705,note_on,15,0,2,,,,,,,,,1,,,,79,97
155735,note_on,35,0,6,,,,,,,,,10,,,,79,0
155737,note_on,35,0,7,,,,,,,,,11,,,,75,0
155748,note_on,45,0,1,,,,,,,,,0,,,,91,0
155749,note_on,225,0,4,,,,,,,,,4,,,,58,0
155750,note_on,0,0,2,,,,,,,,,1,,,,79,0
155750,note_on,45,0,2,,,,,,,,,1,,,,75,0
155751,note_on,225,0,5,,,,,,,,,5,,,,46,0
155756,note_on,225,0,3,,,,,,,,,3,,,,46,0
155760,set_tempo,240,1,0,,,,,,254777,,,,,,,,
155760,note_on,25,0,6,,,,,,,,,10,,,,77,110
155761,note_on,235,0,8,,,,,,,,,12,,,,70,0
155762,note_on,25,0,7,,,,,,,,,11,,,,72,110
155763,note_on,15,0,1,,,,,,,,,0,,,,89,97
155764,note_on,15,0,4,,,,,,,,,4,,,,58,88
155765,note_on,235,0,9,,,,,,,,,13,,,,46,0
155765,note_on,15,0,2,,,,,,,,,1,,,,80,97
155765,note_on,0,0,2,,,,,,,,,1,,,,84,97
155766,note_on,5,0,8,,,,,,,,,12,,,,68,108
155766,note_on,15,0,5,,,,,,,,,5,,,,46,88
155767,note_on,235,0,10,,,,,,,,,14,,,,34,0
155770,note_on,5,0,9,,,,,,,,,13,,,,46,99
155771,note_on,15,0,3,,,,,,,,,3,,,,46,97
155772,note_on,5,0,10,,,,,,,,,14,,,,34,93
155891,note_on,131,0,6,,,,,,,,,10,,,,77,0
155893,note_on,131,0,7,,,,,,,,,11,,,,72,0
155906,note_on,140,0,8,,,,,,,,,12,,,,68,0
155928,note_on,165,0,1,,,,,,,,,0,,,,89,0
155930,note_on,165,0,2,,,,,,,,,1,,,,84,0
155930,note_on,0,0,2,,,,,,,,,1,,,,80,0
155940,note_on,49,0,6,,,,,,,,,10,,,,75,110
155942,note_on,49,0,7,,,,,,,,,11,,,,70,110
155943,note_on,15,0,1,,,,,,,,,0,,,,87,97
155945,note_on,0,0,2,,,,,,,,,1,,,,79,97
155945,note_on,15,0,2,,,,,,,,,1,,,,82,97
155946,note_on,40,0,8,,,,,,,,,12,,,,67,108
155975,note_on,35,0,6,,,,,,,,,10,,,,75,0
155977,note_on,35,0,7,,,,,,,,,11,,,,70,0
155988,note_on,45,0,1,,,,,,,,,0,,,,87,0
155989,note_on,225,0,4,,,,,,,,,4,,,,58,0
155990,note_on,0,0,2,,,,,,,,,1,,,,82,0
155990,note_on,45,0,2,,,,,,,,,1,,,,79,0
155991,note_on,225,0,5,,,,,,,,,5,,,,46,0
155991,note_on,45,0,8,,,,,,,,,12,,,,67,0
155996,note_on,225,0,3,,,,,,,,,3,,,,46,0
156000,set_tempo,240,1,0,,,,,,263736,,,,,,,,
156000,note_on,25,0,6,,,,,,,,,10,,,,74,110
156002,note_on,25,0,7,,,,,,,,,11,,,,68,110
156003,note_on,15,0,1,,,,,,,,,0,,,,86,97
156004,note_on,15,0,4,,,,,,,,,4,,,,58,88
156005,note_on,15,0,2,,,,,,,,,1,,,,77,97
156005,note_on,0,0,2,,,,,,,,,1,,,,80,97
156005,note_on,235,0,9,,,,,,,,,13,,,,46,0
156006,note_on,15,0,8,,,,,,,,,12,,,,65,108
156006,note_on,15,0,5,,,,,,,,,5,,,,46,88
156007,note_on,235,0,10,,,,,,,,,14,,,,34,0
156010,note_on,5,0,9,,,,,,,,,13,,,,46,99
156011,note_on,15,0,3,,,,,,,,,3,,,,46,97
156012,note_on,5,0,10,,,,,,,,,14,,,,34,93
156131,note_on,131,0,6,,,,,,,,,10,,,,74,0
156133,note_on,131,0,7,,,,,,,,,11,,,,68,0
156146,note_on,140,0,8,,,,,,,,,12,,,,65,0
156168,note_on,165,0,1,,,,,,,,,0,,,,86,0
156170,note_on,165,0,2,,,,,,,,,1,,,,80,0
156170,note_on,0,0,2,,,,,,,,,1,,,,77,0
156180,note_on,49,0,6,,,,,,,,,10,,,,72,110
156182,note_on,49,0,7,,,,,,,,,11,,,,67,110
156183,note_on,15,0,1,,,,,,,,,0,,,,84,97
156185,note_on,15,0,2,,,,,,,,,1,,,,75,97
156185,note_on,0,0,2,,,,,,,,,1,,,,79,97
156186,note_on,40,0,8,,,,,,,,,12,,,,63,108
156215,note_on,35,0,6,,,,,,,,,10,,,,72,0
156217,note_on,35,0,7,,,,,,,,,11,,,,67,0
156228,note_on,45,0,1,,,,,,,,,0,,,,84,0
156229,note_on,225,0,4,,,,,,,,,4,,,,58,0
156230,note_on,45,0,2,,,,,,,,,1,,,,79,0
156230,note_on,0,0,2,,,,,,,,,1,,,,75,0
156231,note_on,45,0,8,,,,,,,,,12,,,,63,0
156231,note_on,225,0,5,,,,,,,,,5,,,,46,0
156236,note_on,225,0,3,,,,,,,,,3,,,,46,0
156240,note_on,25,0,6,,,,,,,,,10,,,,70,110
156240,set_tempo,240,1,0,,,,,,254777,,,,,,,,
156242,note_on,25,0,7,,,,,,,,,11,,,,65,110
156243,note_on,15,0,1,,,,,,,,,0,,,,82,97
156244,note_on,15,0,4,,,,,,,,,4,,,,58,88
156245,note_on,15,0,2,,,,,,,,,1,,,,74,97
156245,note_on,0,0,2,,,,,,,,,1,,,,77,97
156245,note_on,235,0,9,,,,,,,,,13,,,,46,0
156246,note_on,15,0,8,,,,,,,,,12,,,,62,108
156246,note_on,15,0,5,,,,,,,,,5,,,,46,88
156247,note_on,235,0,10,,,,,,,,,14,,,,34,0
156250,note_on,5,0,9,,,,,,,,,13,,,,46,99
156251,note_on,15,0,3,,,,,,,,,3,,,,46,97
156252,note_on,5,0,10,,,,,,,,,14,,,,34,93
156371,note_on,131,0,6,,,,,,,,,10,,,,70,0
156373,note_on,131,0,7,,,,,,,,,11,,,,65,0
156386,note_on,140,0,8,,,,,,,,,12,,,,62,0
156408,note_on,165,0,1,,,,,,,,,0,,,,82,0
156410,note_on,165,0,2,,,,,,,,,1,,,,77,0
156410,note_on,0,0,2,,,,,,,,,1,,,,74,0
156420,note_on,49,0,6,,,,,,,,,10,,,,62,110
156422,note_on,49,0,7,,,,,,,,,11,,,,56,110
156423,note_on,15,0,1,,,,,,,,,0,,,,74,97
156425,note_on,15,0,2,,,,,,,,,1,,,,68,97
156425,note_on,0,0,2,,,,,,,,,1,,,,77,97
156426,note_on,40,0,8,,,,,,,,,12,,,,60,108
156455,note_on,35,0,6,,,,,,,,,10,,,,62,0
156457,note_on,35,0,7,,,,,,,,,11,,,,56,0
156468,note_on,45,0,1,,,,,,,,,0,,,,74,0
156469,note_on,225,0,4,,,,,,,,,4,,,,58,0
156470,note_on,45,0,2,,,,,,,,,1,,,,77,0
156470,note_on,0,0,2,,,,,,,,,1,,,,68,0
156471,note_on,225,0,5,,,,,,,,,5,,,,46,0
156471,note_on,45,0,8,,,,,,,,,12,,,,60,0
156476,note_on,225,0,3,,,,,,,,,3,,,,46,0
156480,note_on,25,0,6,,,,,,,,,10,,,,63,110
156480,set_tempo,240,1,0,,,,,,263736,,,,,,,,
156482,note_on,0,0,7,,,,,,,,,11,,,,63,110
156482,note_on,25,0,7,,,,,,,,,11,,,,55,110
156483,note_on,15,0,1,,,,,,,,,0,,,,75,97
156484,note_on,15,0,4,,,,,,,,,4,,,,58,88
156485,note_on,235,0,9,,,,,,,,,13,,,,46,0
156485,note_on,15,0,2,,,,,,,,,1,,,,75,97
156485,note_on,0,0,2,,,,,,,,,1,,,,67,97
156486,note_on,0,0,8,,,,,,,,,12,,,,63,108
156486,note_on,15,0,5,,,,,,,,,5,,,,46,88
156486,note_on,15,0,8,,,,,,,,,12,,,,55,108
156487,note_on,235,0,10,,,,,,,,,14,,,,34,0
156490,note_on,5,0,9,,,,,,,,,13,,,,51,99
156491,note_on,15,0,3,,,,,,,,,3,,,,51,97
156492,note_on,5,0,10,,,,,,,,,14,,,,39,93
156516,note_on,0,0,7,,,,,,,,,11,,,,55,0
156516,note_on,34,0,7,,,,,,,,,11,,,,63,0
156526,note_on,40,0,8,,,,,,,,,12,,,,63,0
156526,note_on,0,0,8,,,,,,,,,12,,,,55,0
156529,note_on,39,0,9,,,,,,,,,13,,,,51,0
156531,note_on,39,0,10,,,,,,,,,14,,,,39,0
156542,note_on,26,0,7,,,,,,,,,11,,,,63,92
156542,note_on,0,0,7,,,,,,,,,11,,,,55,92
156546,note_on,20,0,8,,,,,,,,,12,,,,63,90
156546,note_on,0,0,8,,,,,,,,,12,,,,55,90
156550,note_on,21,0,9,,,,,,,,,13,,,,51,81
156552,note_on,21,0,10,,,,,,,,,14,,,,39,75
156576,note_on,34,0,7,,,,,,,,,11,,,,55,0
156576,note_on,0,0,7,,,,,,,,,11,,,,63,0
156586,note_on,0,0,8,,,,,,,,,12,,,,63,0
156586,note_on,40,0,8,,,,,,,,,12,,,,55,0
156589,note_on,39,0,9,,,,,,,,,13,,,,51,0
156591,note_on,39,0,10,,,,,,,,,14,,,,39,0
156602,note_on,26,0,7,,,,,,,,,11,,,,63,110
156602,note_on,0,0,7,,,,,,,,,11,,,,55,110
156606,note_on,20,0,8,,,,,,,,,12,,,,55,108
156606,note_on,0,0,8,,,,,,,,,12,,,,63,108
156610,note_on,21,0,9,,,,,,,,,13,,,,51,99
156612,note_on,21,0,10,,,,,,,,,14,,,,39,93
156636,note_on,34,0,7,,,,,,,,,11,,,,55,0
156636,note_on,0,0,7,,,,,,,,,11,,,,63,0
156646,note_on,0,0,8,,,,,,,,,12,,,,55,0
156646,note_on,40,0,8,,,,,,,,,12,,,,63,0
156649,note_on,39,0,9,,,,,,,,,13,,,,51,0
156651,note_on,39,0,10,,,,,,,,,14,,,,39,0
156655,note_on,175,0,6,,,,,,,,,10,,,,63,0
156658,note_on,175,0,1,,,,,,,,,0,,,,75,0
156660,note_on,5,0,6,,,,,,,,,10,,,,67,110
156662,note_on,0,0,7,,,,,,,,,11,,,,55,92
156662,note_on,26,0,7,,,,,,,,,11,,,,63,92
156663,note_on,5,0,1,,,,,,,,,0,,,,79,97
156666,note_on,20,0,8,,,,,,,,,12,,,,55,90
156666,note_on,0,0,8,,,,,,,,,12,,,,63,90
156670,note_on,21,0,9,,,,,,,,,13,,,,51,81
156672,note_on,21,0,10,,,,,,,,,14,,,,39,75
156696,note_on,0,0,7,,,,,,,,,11,,,,63,0
156696,note_on,34,0,7,,,,,,,,,11,,,,55,0
156699,note_on,39,0,6,,,,,,,,,10,,,,67,0
156706,note_on,0,0,8,,,,,,,,,12,,,,55,0
156706,note_on,40,0,8,,,,,,,,,12,,,,63,0
156709,note_on,39,0,9,,,,,,,,,13,,,,51,0
156711,note_on,39,0,10,,,,,,,,,14,,,,39,0
156718,note_on,55,0,1,,,,,,,,,0,,,,79,0
156720,set_tempo,240,1,0,,,,,,254777,,,,,,,,
156720,note_on,21,0,6,,,,,,,,,10,,,,70,110
156722,note_on,0,0,7,,,,,,,,,11,,,,63,110
156722,note_on,26,0,7,,,,,,,,,11,,,,55,110
156723,note_on,5,0,1,,,,,,,,,0,,,,82,97
156726,note_on,20,0,8,,,,,,,,,12,,,,55,108
156726,note_on,0,0,8,,,,,,,,,12,,,,63,108
156730,note_on,21,0,9,,,,,,,,,13,,,,51,99
156732,note_on,21,0,10,,,,,,,,,14,,,,39,93
156756,note_on,34,0,7,,,,,,,,,11,,,,63,0
156756,note_on,0,0,7,,,,,,,,,11,,,,55,0
156766,note_on,0,0,8,,,,,,,,,12,,,,55,0
156766,note_on,40,0,8,,,,,,,,,12,,,,63,0
156769,note_on,39,0,9,,,,,,,,,13,,,,51,0
156771,note_on,39,0,10,,,,,,,,,14,,,,39,0
156780,note_on,60,0,6,,,,,,,,,10,,,,70,0
156782,note_on,26,0,7,,,,,,,,,11,,,,55,92
156782,note_on,0,0,7,,,,,,,,,11,,,,63,92
156783,note_on,60,0,1,,,,,,,,,0,,,,82,0
156786,note_on,0,0,8,,,,,,,,,12,,,,63,90
156786,note_on,20,0,8,,,,,,,,,12,,,,55,90
156790,note_on,21,0,9,,,,,,,,,13,,,,51,81
156792,note_on,21,0,10,,,,,,,,,14,,,,39,75
156816,note_on,34,0,7,,,,,,,,,11,,,,63,0
156816,note_on,0,0,7,,,,,,,,,11,,,,55,0
156826,note_on,0,0,8,,,,,,,,,12,,,,55,0
156826,note_on,40,0,8,,,,,,,,,12,,,,63,0
156829,note_on,39,0,9,,,,,,,,,13,,,,51,0
156831,note_on,39,0,10,,,,,,,,,14,,,,39,0
156840,note_on,60,0,6,,,,,,,,,10,,,,74,110
156842,note_on,26,0,7,,,,,,,,,11,,,,66,110
156843,note_on,60,0,1,,,,,,,,,0,,,,86,97
156844,note_on,360,0,4,,,,,,,,,4,,,,58,0
156845,note_on,0,0,2,,,,,,,,,1,,,,75,0
156845,note_on,360,0,2,,,,,,,,,1,,,,67,0
156845,note_on,0,0,2,,,,,,,,,1,,,,66,97
156845,note_on,0,0,2,,,,,,,,,1,,,,74,97
156846,note_on,360,0,5,,,,,,,,,5,,,,46,0
156846,note_on,20,0,8,,,,,,,,,12,,,,62,108
156850,note_on,21,0,9,,,,,,,,,13,,,,51,99
156852,note_on,21,0,10,,,,,,,,,14,,,,39,93
156876,note_on,34,0,7,,,,,,,,,11,,,,66,0
156886,note_on,40,0,8,,,,,,,,,12,,,,62,0
156889,note_on,39,0,9,,,,,,,,,13,,,,51,0
156891,note_on,39,0,10,,,,,,,,,14,,,,39,0
156900,note_on,60,0,6,,,,,,,,,10,,,,74,0
156902,note_on,26,0,7,,,,,,,,,11,,,,66,92
156903,note_on,60,0,1,,,,,,,,,0,,,,86,0
156906,note_on,20,0,8,,,,,,,,,12,,,,62,90
156910,note_on,21,0,9,,,,,,,,,13,,,,51,81
156912,note_on,21,0,10,,,,,,,,,14,,,,39,75
156936,note_on,34,0,7,,,,,,,,,11,,,,66,0
156946,note_on,40,0,8,,,,,,,,,12,,,,62,0
156949,note_on,39,0,9,,,,,,,,,13,,,,51,0
156951,note_on,39,0,10,,,,,,,,,14,,,,39,0
156960,set_tempo,240,1,0,,,,,,263736,,,,,,,,
156960,note_on,60,0,6,,,,,,,,,10,,,,75,110
156962,note_on,26,0,7,,,,,,,,,11,,,,67,110
156963,note_on,60,0,1,,,,,,,,,0,,,,87,97
156965,note_on,0,0,2,,,,,,,,,1,,,,66,0
156965,note_on,120,0,2,,,,,,,,,1,,,,74,0
156965,note_on,0,0,2,,,,,,,,,1,,,,75,97
156965,note_on,0,0,2,,,,,,,,,1,,,,67,97
156966,note_on,20,0,8,,,,,,,,,12,,,,63,108
156970,note_on,21,0,9,,,,,,,,,13,,,,51,99
156972,note_on,21,0,10,,,,,,,,,14,,,,39,93
156996,note_on,34,0,7,,,,,,,,,11,,,,67,0
157006,note_on,40,0,8,,,,,,,,,12,,,,63,0
157009,note_on,39,0,9,,,,,,,,,13,,,,51,0
157011,note_on,39,0,10,,,,,,,,,14,,,,39,0
157020,note_on,60,0,6,,,,,,,,,10,,,,75,0
157022,note_on,26,0,7,,,,,,,,,11,,,,67,92
157023,note_on,60,0,1,,,,,,,,,0,,,,87,0
157025,note_on,60,0,2,,,,,,,,,1,,,,67,0
157025,note_on,0,0,2,,,,,,,,,1,,,,75,0
157026,note_on,20,0,8,,,,,,,,,12,,,,63,90
157030,note_on,21,0,9,,,,,,,,,13,,,,51,81
157032,note_on,21,0,10,,,,,,,,,14,,,,39,75
157056,note_on,34,0,7,,,,,,,,,11,,,,67,0
157066,note_on,40,0,8,,,,,,,,,12,,,,63,0
157069,note_on,39,0,9,,,,,,,,,13,,,,51,0
157071,note_on,39,0,10,,,,,,,,,14,,,,39,0
157080,note_on,60,0,6,,,,,,,,,10,,,,78,110
157082,note_on,26,0,7,,,,,,,,,11,,,,74,110
157083,note_on,60,0,1,,,,,,,,,0,,,,90,97
157085,note_on,0,0,2,,,,,,,,,1,,,,74,97
157085,note_on,60,0,2,,,,,,,,,1,,,,78,97
157086,note_on,20,0,8,,,,,,,,,12,,,,66,108
157090,note_on,21,0,9,,,,,,,,,13,,,,51,99
157092,note_on,21,0,10,,,,,,,,,14,,,,39,93
157116,note_on,34,0,7,,,,,,,,,11,,,,74,0
157126,note_on,40,0,8,,,,,,,,,12,,,,66,0
157129,note_on,39,0,9,,,,,,,,,13,,,,51,0
157131,note_on,39,0,10,,,,,,,,,14,,,,39,0
157140,note_on,60,0,6,,,,,,,,,10,,,,78,0
157142,note_on,26,0,7,,,,,,,,,11,,,,74,92
157143,note_on,60,0,1,,,,,,,,,0,,,,90,0
157145,note_on,0,0,2,,,,,,,,,1,,,,78,0
157145,note_on,60,0,2,,,,,,,,,1,,,,74,0
157146,note_on,20,0,8,,,,,,,,,12,,,,66,90
157150,note_on,21,0,9,,,,,,,,,13,,,,51,81
157152,note_on,21,0,10,,,,,,,,,14,,,,39,75
157176,note_on,34,0,7,,,,,,,,,11,,,,74,0
157186,note_on,40,0,8,,,,,,,,,12,,,,66,0
157189,note_on,39,0,9,,,,,,,,,13,,,,51,0
157191,note_on,39,0,10,,,,,,,,,14,,,,39,0
157200,note_on,60,0,6,,,,,,,,,10,,,,79,110
157200,set_tempo,240,1,0,,,,,,254777,,,,,,,,
157202,note_on,26,0,7,,,,,,,,,11,,,,75,110
157203,note_on,60,0,1,,,,,,,,,0,,,,91,97
157205,note_on,0,0,2,,,,,,,,,1,,,,75,97
157205,note_on,60,0,2,,,,,,,,,1,,,,79,97
157206,note_on,20,0,8,,,,,,,,,12,,,,67,108
157210,note_on,21,0,9,,,,,,,,,13,,,,51,99
157212,note_on,21,0,10,,,,,,,,,14,,,,39,93
157236,note_on,34,0,7,,,,,,,,,11,,,,75,0
157246,note_on,40,0,8,,,,,,,,,12,,,,67,0
157249,note_on,39,0,9,,,,,,,,,13,,,,51,0
157251,note_on,39,0,10,,,,,,,,,14,,,,39,0
157260,note_on,60,0,6,,,,,,,,,10,,,,79,0
157262,note_on,26,0,7,,,,,,,,,11,,,,75,92
157263,note_on,60,0,1,,,,,,,,,0,,,,91,0
157265,note_on,60,0,2,,,,,,,,,1,,,,75,0
157265,note_on,0,0,2,,,,,,,,,1,,,,79,0
157266,note_on,20,0,8,,,,,,,,,12,,,,67,90
157270,note_on,21,0,9,,,,,,,,,13,,,,51,81
157272,note_on,21,0,10,,,,,,,,,14,,,,39,75
157296,note_on,34,0,7,,,,,,,,,11,,,,75,0
157306,note_on,40,0,8,,,,,,,,,12,,,,67,0
157309,note_on,39,0,9,,,,,,,,,13,,,,51,0
157311,note_on,39,0,10,,,,,,,,,14,,,,39,0
157320,note_on,60,0,6,,,,,,,,,10,,,,81,110
157322,note_on,26,0,7,,,,,,,,,11,,,,78,110
157323,note_on,60,0,1,,,,,,,,,0,,,,81,97
157325,note_on,60,0,2,,,,,,,,,1,,,,81,97
157325,note_on,0,0,2,,,,,,,,,1,,,,78,97
157326,note_on,20,0,8,,,,,,,,,12,,,,69,108
157330,note_on,21,0,9,,,,,,,,,13,,,,51,99
157332,note_on,21,0,10,,,,,,,,,14,,,,39,93
157356,note_on,34,0,7,,,,,,,,,11,,,,78,0
157366,note_on,40,0,8,,,,,,,,,12,,,,69,0
157369,note_on,39,0,9,,,,,,,,,13,,,,51,0
157371,note_on,39,0,10,,,,,,,,,14,,,,39,0
157380,note_on,60,0,6,,,,,,,,,10,,,,81,0
157382,note_on,26,0,7,,,,,,,,,11,,,,78,92
157383,note_on,60,0,1,,,,,,,,,0,,,,81,0
157385,note_on,60,0,2,,,,,,,,,1,,,,78,0
157385,note_on,0,0,2,,,,,,,,,1,,,,81,0
157386,note_on,20,0,8,,,,,,,,,12,,,,69,90
157390,note_on,21,0,9,,,,,,,,,13,,,,51,81
157392,note_on,21,0,10,,,,,,,,,14,,,,39,75
157416,note_on,34,0,7,,,,,,,,,11,,,,78,0
157426,note_on,40,0,8,,,,,,,,,12,,,,69,0
157429,note_on,39,0,9,,,,,,,,,13,,,,51,0
157431,note_on,39,0,10,,,,,,,,,14,,,,39,0
157440,note_on,60,0,6,,,,,,,,,10,,,,82,110
157440,set_tempo,240,1,0,,,,,,263736,,,,,,,,
157442,note_on,26,0,7,,,,,,,,,11,,,,79,110
157442,note_on,0,0,7,,,,,,,,,11,,,,70,110
157443,note_on,60,0,1,,,,,,,,,0,,,,82,97
157444,note_on,600,0,4,,,,,,,,,4,,,,58,88
157445,note_on,0,0,2,,,,,,,,,1,,,,79,97
157445,note_on,60,0,2,,,,,,,,,1,,,,82,97
157446,note_on,0,0,8,,,,,,,,,12,,,,70,108
157446,note_on,20,0,8,,,,,,,,,12,,,,67,108
157446,note_on,600,0,5,,,,,,,,,5,,,,46,88
157450,note_on,21,0,9,,,,,,,,,13,,,,39,99
157451,note_on,960,0,3,,,,,,,,,3,,,,51,0
157451,note_on,0,0,3,,,,,,,,,3,,,,39,97
157452,note_on,21,0,10,,,,,,,,,14,,,,27,93
157474,note_on,34,0,6,,,,,,,,,10,,,,82,0
157476,note_on,0,0,7,,,,,,,,,11,,,,79,0
157476,note_on,34,0,7,,,,,,,,,11,,,,70,0
157486,note_on,0,0,8,,,,,,,,,12,,,,67,0
157486,note_on,40,0,8,,,,,,,,,12,,,,70,0
157500,note_on,26,0,6,,,,,,,,,10,,,,82,92
157502,note_on,26,0,7,,,,,,,,,11,,,,79,92
157502,note_on,0,0,7,,,,,,,,,11,,,,70,92
157506,note_on,0,0,8,,,,,,,,,12,,,,67,90
157506,note_on,20,0,8,,,,,,,,,12,,,,70,90
157534,note_on,34,0,6,,,,,,,,,10,,,,82,0
157536,note_on,34,0,7,,,,,,,,,11,,,,70,0
157536,note_on,0,0,7,,,,,,,,,11,,,,79,0
157546,note_on,40,0,8,,,,,,,,,12,,,,67,0
157546,note_on,0,0,8,,,,,,,,,12,,,,70,0
157560,note_on,26,0,6,,,,,,,,,10,,,,82,110
157562,note_on,26,0,7,,,,,,,,,11,,,,79,110
157562,note_on,0,0,7,,,,,,,,,11,,,,70,110
157566,note_on,0,0,8,,,,,,,,,12,,,,67,108
157566,note_on,20,0,8,,,,,,,,,12,,,,70,108
157594,note_on,34,0,6,,,,,,,,,10,,,,82,0
157596,note_on,34,0,7,,,,,,,,,11,,,,70,0
157596,note_on,0,0,7,,,,,,,,,11,,,,79,0
157606,note_on,0,0,8,,,,,,,,,12,,,,70,0
157606,note_on,40,0,8,,,,,,,,,12,,,,67,0
157616,note_on,165,0,3,,,,,,,,,3,,,,39,0
157620,note_on,26,0,6,,,,,,,,,10,,,,82,92
157622,note_on,26,0,7,,,,,,,,,11,,,,79,92
157622,note_on,0,0,7,,,,,,,,,11,,,,70,92
157625,note_on,175,0,9,,,,,,,,,13,,,,39,0
157626,note_on,20,0,8,,,,,,,,,12,,,,70,90
157626,note_on,0,0,8,,,,,,,,,12,,,,67,90
157627,note_on,175,0,10,,,,,,,,,14,,,,27,0
157630,note_on,5,0,9,,,,,,,,,13,,,,43,99
157631,note_on,15,0,3,,,,,,,,,3,,,,43,97
157632,note_on,5,0,10,,,,,,,,,14,,,,31,93
157654,note_on,34,0,6,,,,,,,,,10,,,,82,0
157656,note_on,0,0,7,,,,,,,,,11,,,,79,0
157656,note_on,34,0,7,,,,,,,,,11,,,,70,0
157666,note_on,40,0,8,,,,,,,,,12,,,,67,0
157666,note_on,0,0,8,,,,,,,,,12,,,,70,0
157669,note_on,39,0,9,,,,,,,,,13,,,,43,0
157671,note_on,39,0,10,,,,,,,,,14,,,,31,0
157676,note_on,45,0,3,,,,,,,,,3,,,,43,0
157680,note_on,26,0,6,,,,,,,,,10,,,,82,110
157680,set_tempo,240,1,0,,,,,,254777,,,,,,,,
157682,note_on,0,0,7,,,,,,,,,11,,,,70,110
157682,note_on,26,0,7,,,,,,,,,11,,,,79,110
157686,note_on,20,0,8,,,,,,,,,12,,,,67,108
157686,note_on,0,0,8,,,,,,,,,12,,,,70,108
157690,note_on,21,0,9,,,,,,,,,13,,,,46,99
157691,note_on,15,0,3,,,,,,,,,3,,,,46,97
157692,note_on,21,0,10,,,,,,,,,14,,,,34,93
157714,note_on,34,0,6,,,,,,,,,10,,,,82,0
157716,note_on,0,0,7,,,,,,,,,11,,,,79,0
157716,note_on,34,0,7,,,,,,,,,11,,,,70,0
157726,note_on,0,0,8,,,,,,,,,12,,,,67,0
157726,note_on,40,0,8,,,,,,,,,12,,,,70,0
157740,note_on,26,0,6,,,,,,,,,10,,,,82,92
157741,note_on,50,0,3,,,,,,,,,3,,,,46,0
157742,note_on,0,0,7,,,,,,,,,11,,,,79,92
157742,note_on,26,0,7,,,,,,,,,11,,,,70,92
157746,note_on,0,0,8,,,,,,,,,12,,,,67,90
157746,note_on,20,0,8,,,,,,,,,12,,,,70,90
157750,note_on,60,0,9,,,,,,,,,13,,,,46,0
157752,note_on,60,0,10,,,,,,,,,14,,,,34,0
157774,note_on,34,0,6,,,,,,,,,10,,,,82,0
157776,note_on,0,0,7,,,,,,,,,11,,,,70,0
157776,note_on,34,0,7,,,,,,,,,11,,,,79,0
157786,note_on,40,0,8,,,,,,,,,12,,,,67,0
157786,note_on,0,0,8,,,,,,,,,12,,,,70,0
157800,note_on,26,0,6,,,,,,,,,10,,,,82,110
157802,note_on,26,0,7,,,,,,,,,11,,,,79,110
157802,note_on,0,0,7,,,,,,,,,11,,,,70,110
157806,note_on,20,0,8,,,,,,,,,12,,,,67,108
157806,note_on,0,0,8,,,,,,,,,12,,,,70,108
157810,note_on,60,0,9,,,,,,,,,13,,,,50,99
157811,note_on,70,0,3,,,,,,,,,3,,,,50,97
157812,note_on,60,0,10,,,,,,,,,14,,,,38,93
157834,note_on,34,0,6,,,,,,,,,10,,,,82,0
157836,note_on,34,0,7,,,,,,,,,11,,,,70,0
157836,note_on,0,0,7,,,,,,,,,11,,,,79,0
157846,note_on,0,0,8,,,,,,,,,12,,,,67,0
157846,note_on,40,0,8,,,,,,,,,12,,,,70,0
157860,note_on,26,0,6,,,,,,,,,10,,,,82,92
157862,note_on,26,0,7,,,,,,,,,11,,,,79,92
157862,note_on,0,0,7,,,,,,,,,11,,,,70,92
157866,note_on,0,0,8,,,,,,,,,12,,,,70,90
157866,note_on,20,0,8,,,,,,,,,12,,,,67,90
157870,note_on,60,0,9,,,,,,,,,13,,,,50,0
157871,note_on,60,0,3,,,,,,,,,3,,,,50,0
157872,note_on,60,0,10,,,,,,,,,14,,,,38,0
157894,note_on,34,0,6,,,,,,,,,10,,,,82,0
157896,note_on,34,0,7,,,,,,,,,11,,,,70,0
157896,note_on,0,0,7,,,,,,,,,11,,,,79,0
157906,note_on,40,0,8,,,,,,,,,12,,,,70,0
157906,note_on,0,0,8,,,,,,,,,12,,,,67,0
157920,set_tempo,240,1,0,,,,,,263736,,,,,,,,
157920,note_on,26,0,6,,,,,,,,,10,,,,82,110
157922,note_on,26,0,7,,,,,,,,,11,,,,70,110
157922,note_on,0,0,7,,,,,,,,,11,,,,79,110
157926,note_on,20,0,8,,,,,,,,,12,,,,67,108
157926,note_on,0,0,8,,,,,,,,,12,,,,70,108
157930,note_on,60,0,9,,,,,,,,,13,,,,51,99
157931,note_on,60,0,3,,,,,,,,,3,,,,51,97
157932,note_on,60,0,10,,,,,,,,,14,,,,39,93
157954,note_on,34,0,6,,,,,,,,,10,,,,82,0
157956,note_on,0,0,7,,,,,,,,,11,,,,70,0
157956,note_on,34,0,7,,,,,,,,,11,,,,79,0
157966,note_on,40,0,8,,,,,,,,,12,,,,70,0
157966,note_on,0,0,8,,,,,,,,,12,,,,67,0
157980,note_on,26,0,6,,,,,,,,,10,,,,82,92
157982,note_on,26,0,7,,,,,,,,,11,,,,70,92
157982,note_on,0,0,7,,,,,,,,,11,,,,79,92
157986,note_on,20,0,8,,,,,,,,,12,,,,67,90
157986,note_on,0,0,8,,,,,,,,,12,,,,70,90
157990,note_on,60,0,9,,,,,,,,,13,,,,51,0
157991,note_on,60,0,3,,,,,,,,,3,,,,51,0
157992,note_on,60,0,10,,,,,,,,,14,,,,39,0
158014,note_on,34,0,6,,,,,,,,,10,,,,82,0
158016,note_on,34,0,7,,,,,,,,,11,,,,79,0
158016,note_on,0,0,7,,,,,,,,,11,,,,70,0
158026,note_on,40,0,8,,,,,,,,,12,,,,70,0
158026,note_on,0,0,8,,,,,,,,,12,,,,67,0
158040,note_on,26,0,6,,,,,,,,,10,,,,82,110
158042,note_on,26,0,7,,,,,,,,,11,,,,79,110
158042,note_on,0,0,7,,,,,,,,,11,,,,70,110
158046,note_on,20,0,8,,,,,,,,,12,,,,67,108
158046,note_on,0,0,8,,,,,,,,,12,,,,70,108
158050,note_on,60,0,9,,,,,,,,,13,,,,54,99
158051,note_on,60,0,3,,,,,,,,,3,,,,54,97
158052,note_on,60,0,10,,,,,,,,,14,,,,42,93
158074,note_on,34,0,6,,,,,,,,,10,,,,82,0
158076,note_on,34,0,7,,,,,,,,,11,,,,70,0
158076,note_on,0,0,7,,,,,,,,,11,,,,79,0
158086,note_on,40,0,8,,,,,,,,,12,,,,70,0
158086,note_on,0,0,8,,,,,,,,,12,,,,67,0
158100,note_on,26,0,6,,,,,,,,,10,,,,82,92
158102,note_on,26,0,7,,,,,,,,,11,,,,70,92
158102,note_on,0,0,7,,,,,,,,,11,,,,79,92
158106,note_on,0,0,8,,,,,,,,,12,,,,67,90
158106,note_on,20,0,8,,,,,,,,,12,,,,70,90
158110,note_on,60,0,9,,,,,,,,,13,,,,54,0
158111,note_on,60,0,3,,,,,,,,,3,,,,54,0
158112,note_on,60,0,10,,,,,,,,,14,,,,42,0
158134,note_on,34,0,6,,,,,,,,,10,,,,82,0
158136,note_on,34,0,7,,,,,,,,,11,,,,79,0
158136,note_on,0,0,7,,,,,,,,,11,,,,70,0
158146,note_on,0,0,8,,,,,,,,,12,,,,70,0
158146,note_on,40,0,8,,,,,,,,,12,,,,67,0
158160,set_tempo,240,1,0,,,,,,254777,,,,,,,,
158160,note_on,26,0,6,,,,,,,,,10,,,,82,110
158162,note_on,0,0,7,,,,,,,,,11,,,,79,110
158162,note_on,26,0,7,,,,,,,,,11,,,,70,110
158166,note_on,0,0,8,,,,,,,,,12,,,,67,108
158166,note_on,20,0,8,,,,,,,,,12,,,,70,108
158170,note_on,60,0,9,,,,,,,,,13,,,,55,99
158171,note_on,60,0,3,,,,,,,,,3,,,,55,97
158172,note_on,60,0,10,,,,,,,,,14,,,,43,93
158194,note_on,34,0,6,,,,,,,,,10,,,,82,0
158196,note_on,0,0,7,,,,,,,,,11,,,,70,0
158196,note_on,34,0,7,,,,,,,,,11,,,,79,0
158206,note_on,0,0,8,,,,,,,,,12,,,,70,0
158206,note_on,40,0,8,,,,,,,,,12,,,,67,0
158220,note_on,26,0,6,,,,,,,,,10,,,,82,92
158222,note_on,0,0,7,,,,,,,,,11,,,,70,92
158222,note_on,26,0,7,,,,,,,,,11,,,,79,92
158226,note_on,20,0,8,,,,,,,,,12,,,,67,90
158226,note_on,0,0,8,,,,,,,,,12,,,,70,90
158230,note_on,60,0,9,,,,,,,,,13,,,,55,0
158231,note_on,60,0,3,,,,,,,,,3,,,,55,0
158232,note_on,60,0,10,,,,,,,,,14,,,,43,0
158254,note_on,34,0,6,,,,,,,,,10,,,,82,0
158256,note_on,34,0,7,,,,,,,,,11,,,,70,0
158256,note_on,0,0,7,,,,,,,,,11,,,,79,0
158266,note_on,40,0,8,,,,,,,,,12,,,,70,0
158266,note_on,0,0,8,,,,,,,,,12,,,,67,0
158280,note_on,26,0,6,,,,,,,,,10,,,,82,110
158282,note_on,26,0,7,,,,,,,,,11,,,,79,110
158282,note_on,0,0,7,,,,,,,,,11,,,,70,110
158286,note_on,0,0,8,,,,,,,,,12,,,,70,108
158286,note_on,20,0,8,,,,,,,,,12,,,,67,108
158290,note_on,60,0,9,,,,,,,,,13,,,,58,99
158291,note_on,60,0,3,,,,,,,,,3,,,,58,97
158292,note_on,60,0,10,,,,,,,,,14,,,,46,93
158314,note_on,34,0,6,,,,,,,,,10,,,,82,0
158316,note_on,34,0,7,,,,,,,,,11,,,,70,0
158316,note_on,0,0,7,,,,,,,,,11,,,,79,0
158326,note_on,0,0,8,,,,,,,,,12,,,,67,0
158326,note_on,40,0,8,,,,,,,,,12,,,,70,0
158340,note_on,26,0,6,,,,,,,,,10,,,,82,92
158342,note_on,26,0,7,,,,,,,,,11,,,,79,92
158342,note_on,0,0,7,,,,,,,,,11,,,,70,92
158346,note_on,20,0,8,,,,,,,,,12,,,,67,90
158346,note_on,0,0,8,,,,,,,,,12,,,,70,90
158350,note_on,60,0,9,,,,,,,,,13,,,,58,0
158351,note_on,60,0,3,,,,,,,,,3,,,,58,0
158352,note_on,60,0,10,,,,,,,,,14,,,,46,0
158374,note_on,34,0,6,,,,,,,,,10,,,,82,0
158376,note_on,0,0,7,,,,,,,,,11,,,,79,0
158376,note_on,34,0,7,,,,,,,,,11,,,,70,0
158386,note_on,40,0,8,,,,,,,,,12,,,,70,0
158386,note_on,0,0,8,,,,,,,,,12,,,,67,0
158399,note_on,955,0,4,,,,,,,,,4,,,,58,0
158400,set_tempo,240,1,0,,,,,,263736,,,,,,,,
158400,note_on,26,0,6,,,,,,,,,10,,,,83,110
158401,note_on,955,0,5,,,,,,,,,5,,,,46,0
158402,note_on,26,0,7,,,,,,,,,11,,,,77,110
158403,note_on,0,0,1,,,,,,,,,0,,,,83,97
158403,note_on,960,0,1,,,,,,,,,0,,,,82,0
158405,note_on,960,0,2,,,,,,,,,1,,,,79,0
158405,note_on,0,0,2,,,,,,,,,1,,,,77,97
158405,note_on,0,0,2,,,,,,,,,1,,,,82,0
158405,note_on,0,0,2,,,,,,,,,1,,,,80,97
158406,note_on,20,0,8,,,,,,,,,12,,,,74,108
158410,note_on,60,0,9,,,,,,,,,13,,,,43,99
158411,note_on,60,0,3,,,,,,,,,3,,,,43,97
158411,note_on,0,0,3,,,,,,,,,3,,,,55,97
158412,note_on,60,0,10,,,,,,,,,14,,,,31,93
158525,note_on,125,0,6,,,,,,,,,10,,,,83,0
158527,note_on,125,0,7,,,,,,,,,11,,,,77,0
158531,note_on,125,0,8,,,,,,,,,12,,,,74,0
158553,note_on,150,0,1,,,,,,,,,0,,,,83,0
158555,note_on,0,0,2,,,,,,,,,1,,,,77,0
158555,note_on,150,0,2,,,,,,,,,1,,,,80,0
158580,note_on,55,0,6,,,,,,,,,10,,,,84,110
158582,note_on,55,0,7,,,,,,,,,11,,,,79,110
158583,note_on,30,0,1,,,,,,,,,0,,,,84,97
158585,note_on,30,0,2,,,,,,,,,1,,,,79,97
158585,note_on,0,0,2,,,,,,,,,1,,,,75,97
158586,note_on,55,0,8,,,,,,,,,12,,,,75,108
158610,note_on,30,0,6,,,,,,,,,10,,,,84,0
158612,note_on,30,0,7,,,,,,,,,11,,,,79,0
158616,note_on,30,0,8,,,,,,,,,12,,,,75,0
158628,note_on,45,0,1,,,,,,,,,0,,,,84,0
158630,note_on,45,0,2,,,,,,,,,1,,,,75,0
158630,note_on,0,0,2,,,,,,,,,1,,,,79,0
158636,note_on,225,0,3,,,,,,,,,3,,,,55,0
158636,note_on,0,0,3,,,,,,,,,3,,,,43,0
158640,note_on,30,0,6,,,,,,,,,10,,,,86,110
158640,set_tempo,240,1,0,,,,,,254777,,,,,,,,
158642,note_on,30,0,7,,,,,,,,,11,,,,80,110
158643,note_on,15,0,1,,,,,,,,,0,,,,86,97
158645,note_on,235,0,9,,,,,,,,,13,,,,43,0
158645,note_on,15,0,2,,,,,,,,,1,,,,80,97
158645,note_on,0,0,2,,,,,,,,,1,,,,77,97
158646,note_on,30,0,8,,,,,,,,,12,,,,77,108
158647,note_on,235,0,10,,,,,,,,,14,,,,31,0
158650,note_on,5,0,9,,,,,,,,,13,,,,43,99
158651,note_on,15,0,3,,,,,,,,,3,,,,55,97
158651,note_on,0,0,3,,,,,,,,,3,,,,43,97
158652,note_on,5,0,10,,,,,,,,,14,,,,31,93
158765,note_on,125,0,6,,,,,,,,,10,,,,86,0
158767,note_on,125,0,7,,,,,,,,,11,,,,80,0
158771,note_on,125,0,8,,,,,,,,,12,,,,77,0
158793,note_on,150,0,1,,,,,,,,,0,,,,86,0
158795,note_on,150,0,2,,,,,,,,,1,,,,77,0
158795,note_on,0,0,2,,,,,,,,,1,,,,80,0
158820,note_on,55,0,6,,,,,,,,,10,,,,84,110
158822,note_on,55,0,7,,,,,,,,,11,,,,79,110
158823,note_on,30,0,1,,,,,,,,,0,,,,84,97
158825,note_on,30,0,2,,,,,,,,,1,,,,75,97
158825,note_on,0,0,2,,,,,,,,,1,,,,79,97
158826,note_on,55,0,8,,,,,,,,,12,,,,75,108
158850,note_on,30,0,6,,,,,,,,,10,,,,84,0
158852,note_on,30,0,7,,,,,,,,,11,,,,79,0
158856,note_on,30,0,8,,,,,,,,,12,,,,75,0
158868,note_on,45,0,1,,,,,,,,,0,,,,84,0
158870,note_on,0,0,2,,,,,,,,,1,,,,75,0
158870,note_on,45,0,2,,,,,,,,,1,,,,79,0
158876,note_on,225,0,3,,,,,,,,,3,,,,43,0
158876,note_on,0,0,3,,,,,,,,,3,,,,55,0
158880,set_tempo,240,1,0,,,,,,263736,,,,,,,,
158880,note_on,30,0,6,,,,,,,,,10,,,,83,110
158882,note_on,30,0,7,,,,,,,,,11,,,,77,110
158883,note_on,15,0,1,,,,,,,,,0,,,,83,97
158885,note_on,0,0,2,,,,,,,,,1,,,,74,97
158885,note_on,15,0,2,,,,,,,,,1,,,,77,97
158885,note_on,235,0,9,,,,,,,,,13,,,,43,0
158886,note_on,30,0,8,,,,,,,,,12,,,,74,108
158887,note_on,235,0,10,,,,,,,,,14,,,,31,0
158890,note_on,5,0,9,,,,,,,,,13,,,,43,99
158891,note_on,0,0,3,,,,,,,,,3,,,,55,97
158891,note_on,15,0,3,,,,,,,,,3,,,,43,97
158892,note_on,5,0,10,,,,,,,,,14,,,,31,93
159005,note_on,125,0,6,,,,,,,,,10,,,,83,0
159007,note_on,125,0,7,,,,,,,,,11,,,,77,0
159011,note_on,125,0,8,,,,,,,,,12,,,,74,0
159033,note_on,150,0,1,,,,,,,,,0,,,,83,0
159035,note_on,150,0,2,,,,,,,,,1,,,,74,0
159035,note_on,0,0,2,,,,,,,,,1,,,,77,0
159060,note_on,55,0,6,,,,,,,,,10,,,,80,110
159062,note_on,55,0,7,,,,,,,,,11,,,,75,110
159063,note_on,30,0,1,,,,,,,,,0,,,,80,97
159065,note_on,0,0,2,,,,,,,,,1,,,,75,97
159065,note_on,30,0,2,,,,,,,,,1,,,,72,97
159066,note_on,55,0,8,,,,,,,,,12,,,,72,108
159090,note_on,30,0,6,,,,,,,,,10,,,,80,0
159092,note_on,30,0,7,,,,,,,,,11,,,,75,0
159096,note_on,30,0,8,,,,,,,,,12,,,,72,0
159108,note_on,45,0,1,,,,,,,,,0,,,,80,0
159110,note_on,0,0,2,,,,,,,,,1,,,,72,0
159110,note_on,45,0,2,,,,,,,,,1,,,,75,0
159116,note_on,225,0,3,,,,,,,,,3,,,,55,0
159116,note_on,0,0,3,,,,,,,,,3,,,,43,0
159120,set_tempo,240,1,0,,,,,,254777,,,,,,,,
159120,note_on,30,0,6,,,,,,,,,10,,,,79,110
159122,note_on,30,0,7,,,,,,,,,11,,,,74,110
159123,note_on,15,0,1,,,,,,,,,0,,,,79,97
159125,note_on,15,0,2,,,,,,,,,1,,,,74,97
159125,note_on,0,0,2,,,,,,,,,1,,,,71,97
159125,note_on,235,0,9,,,,,,,,,13,,,,43,0
159126,note_on,30,0,8,,,,,,,,,12,,,,71,108
159127,note_on,235,0,10,,,,,,,,,14,,,,31,0
159130,note_on,5,0,9,,,,,,,,,13,,,,43,99
159131,note_on,0,0,3,,,,,,,,,3,,,,43,97
159131,note_on,15,0,3,,,,,,,,,3,,,,55,97
159132,note_on,5,0,10,,,,,,,,,14,,,,31,93
159245,note_on,125,0,6,,,,,,,,,10,,,,79,0
159247,note_on,125,0,7,,,,,,,,,11,,,,74,0
159251,note_on,125,0,8,,,,,,,,,12,,,,71,0
159273,note_on,150,0,1,,,,,,,,,0,,,,79,0
159275,note_on,0,0,2,,,,,,,,,1,,,,74,0
159275,note_on,150,0,2,,,,,,,,,1,,,,71,0
159300,note_on,55,0,6,,,,,,,,,10,,,,77,110
159302,note_on,55,0,7,,,,,,,,,11,,,,71,110
159303,note_on,30,0,1,,,,,,,,,0,,,,77,97
159305,note_on,0,0,2,,,,,,,,,1,,,,71,97
159305,note_on,30,0,2,,,,,,,,,1,,,,74,97
159306,note_on,55,0,8,,,,,,,,,12,,,,74,108
159330,note_on,30,0,6,,,,,,,,,10,,,,77,0
159332,note_on,30,0,7,,,,,,,,,11,,,,71,0
159336,note_on,30,0,8,,,,,,,,,12,,,,74,0
159348,note_on,45,0,1,,,,,,,,,0,,,,77,0
159350,note_on,45,0,2,,,,,,,,,1,,,,71,0
159350,note_on,0,0,2,,,,,,,,,1,,,,74,0
159356,note_on,225,0,3,,,,,,,,,3,,,,43,0
159356,note_on,0,0,3,,,,,,,,,3,,,,55,0
159360,note_on,30,0,6,,,,,,,,,10,,,,75,110
159360,set_tempo,240,1,0,,,,,,263736,,,,,,,,
159362,note_on,30,0,7,,,,,,,,,11,,,,72,110
159363,note_on,15,0,1,,,,,,,,,0,,,,75,97
159365,note_on,0,0,2,,,,,,,,,1,,,,75,97
159365,note_on,15,0,2,,,,,,,,,1,,,,72,97
159365,note_on,235,0,9,,,,,,,,,13,,,,43,0
159366,note_on,30,0,8,,,,,,,,,12,,,,72,108
159367,note_on,235,0,10,,,,,,,,,14,,,,31,0
159370,note_on,5,0,9,,,,,,,,,13,,,,48,99
159371,note_on,15,0,3,,,,,,,,,3,,,,48,97
159372,note_on,5,0,10,,,,,,,,,14,,,,36,93
159485,note_on,125,0,6,,,,,,,,,10,,,,75,0
159487,note_on,125,0,7,,,,,,,,,11,,,,72,0
159491,note_on,125,0,8,,,,,,,,,12,,,,72,0
159513,note_on,150,0,1,,,,,,,,,0,,,,75,0
159515,note_on,0,0,2,,,,,,,,,1,,,,72,0
159515,note_on,150,0,2,,,,,,,,,1,,,,75,0
159540,note_on,55,0,6,,,,,,,,,10,,,,84,110
159542,note_on,55,0,7,,,,,,,,,11,,,,75,110
159543,note_on,30,0,1,,,,,,,,,0,,,,84,97
159545,note_on,30,0,2,,,,,,,,,1,,,,72,97
159545,note_on,0,0,2,,,,,,,,,1,,,,75,97
159546,note_on,55,0,8,,,,,,,,,12,,,,72,108
159570,note_on,30,0,6,,,,,,,,,10,,,,84,0
159572,note_on,30,0,7,,,,,,,,,11,,,,75,0
159576,note_on,30,0,8,,,,,,,,,12,,,,72,0
159588,note_on,45,0,1,,,,,,,,,0,,,,84,0
159590,note_on,45,0,2,,,,,,,,,1,,,,75,0
159590,note_on,0,0,2,,,,,,,,,1,,,,72,0
159596,note_on,225,0,3,,,,,,,,,3,,,,48,0
159600,note_on,30,0,6,,,,,,,,,10,,,,82,110
159600,set_tempo,240,1,0,,,,,,254777,,,,,,,,
159602,note_on,30,0,7,,,,,,,,,11,,,,73,110
159603,note_on,15,0,1,,,,,,,,,0,,,,82,97
159604,note_on,1205,0,4,,,,,,,,,4,,,,63,88
159605,note_on,235,0,9,,,,,,,,,13,,,,48,0
159605,note_on,15,0,2,,,,,,,,,1,,,,73,97
159605,note_on,0,0,2,,,,,,,,,1,,,,79,97
159606,note_on,30,0,8,,,,,,,,,12,,,,67,108
159606,note_on,1205,0,5,,,,,,,,,5,,,,63,88
159607,note_on,235,0,10,,,,,,,,,14,,,,36,0
159610,note_on,5,0,9,,,,,,,,,13,,,,51,99
159611,note_on,15,0,3,,,,,,,,,3,,,,51,97
159612,note_on,5,0,10,,,,,,,,,14,,,,39,93
159725,note_on,125,0,6,,,,,,,,,10,,,,82,0
159727,note_on,125,0,7,,,,,,,,,11,,,,73,0
159731,note_on,125,0,8,,,,,,,,,12,,,,67,0
159753,note_on,150,0,1,,,,,,,,,0,,,,82,0
159755,note_on,150,0,2,,,,,,,,,1,,,,79,0
159755,note_on,0,0,2,,,,,,,,,1,,,,73,0
159780,note_on,55,0,6,,,,,,,,,10,,,,80,110
159782,note_on,55,0,7,,,,,,,,,11,,,,72,110
159783,note_on,30,0,1,,,,,,,,,0,,,,80,97
159785,note_on,30,0,2,,,,,,,,,1,,,,80,97
159785,note_on,0,0,2,,,,,,,,,1,,,,72,97
159786,note_on,55,0,8,,,,,,,,,12,,,,68,108
159810,note_on,30,0,6,,,,,,,,,10,,,,80,0
159812,note_on,30,0,7,,,,,,,,,11,,,,72,0
159816,note_on,30,0,8,,,,,,,,,12,,,,68,0
159828,note_on,45,0,1,,,,,,,,,0,,,,80,0
159829,note_on,225,0,4,,,,,,,,,4,,,,63,0
159830,note_on,45,0,2,,,,,,,,,1,,,,72,0
159830,note_on,0,0,2,,,,,,,,,1,,,,80,0
159831,note_on,225,0,5,,,,,,,,,5,,,,63,0
159836,note_on,225,0,3,,,,,,,,,3,,,,51,0
159840,note_on,30,0,6,,,,,,,,,10,,,,79,110
159840,set_tempo,240,1,0,,,,,,263736,,,,,,,,
159842,note_on,30,0,7,,,,,,,,,11,,,,73,110
159843,note_on,15,0,1,,,,,,,,,0,,,,79,97
159844,note_on,15,0,4,,,,,,,,,4,,,,63,88
159845,note_on,235,0,9,,,,,,,,,13,,,,51,0
159845,note_on,15,0,2,,,,,,,,,1,,,,70,97
159845,note_on,0,0,2,,,,,,,,,1,,,,73,97
159846,note_on,15,0,5,,,,,,,,,5,,,,63,88
159846,note_on,30,0,8,,,,,,,,,12,,,,70,108
159847,note_on,235,0,10,,,,,,,,,14,,,,39,0
159850,note_on,5,0,9,,,,,,,,,13,,,,51,99
159851,note_on,15,0,3,,,,,,,,,3,,,,51,97
159852,note_on,5,0,10,,,,,,,,,14,,,,39,93
159965,note_on,125,0,6,,,,,,,,,10,,,,79,0
159967,note_on,125,0,7,,,,,,,,,11,,,,73,0
159971,note_on,125,0,8,,,,,,,,,12,,,,70,0
159993,note_on,150,0,1,,,,,,,,,0,,,,79,0
159995,note_on,0,0,2,,,,,,,,,1,,,,70,0
159995,note_on,150,0,2,,,,,,,,,1,,,,73,0
160020,note_on,55,0,6,,,,,,,,,10,,,,77,110
160022,note_on,55,0,7,,,,,,,,,11,,,,72,110
160023,note_on,30,0,1,,,,,,,,,0,,,,77,97
160025,note_on,30,0,2,,,,,,,,,1,,,,72,97
160025,note_on,0,0,2,,,,,,,,,1,,,,68,97
160026,note_on,55,0,8,,,,,,,,,12,,,,68,108
160050,note_on,30,0,6,,,,,,,,,10,,,,77,0
160052,note_on,30,0,7,,,,,,,,,11,,,,72,0
160056,note_on,30,0,8,,,,,,,,,12,,,,68,0
160068,note_on,45,0,1,,,,,,,,,0,,,,77,0
160069,note_on,225,0,4,,,,,,,,,4,,,,63,0
160070,note_on,0,0,2,,,,,,,,,1,,,,72,0
160070,note_on,45,0,2,,,,,,,,,1,,,,68,0
160071,note_on,225,0,5,,,,,,,,,5,,,,63,0
160076,note_on,225,0,3,,,,,,,,,3,,,,51,0
160080,set_tempo,240,1,0,,,,,,254777,,,,,,,,
160080,note_on,30,0,6,,,,,,,,,10,,,,75,110
160082,note_on,30,0,7,,,,,,,,,11,,,,70,110
160083,note_on,15,0,1,,,,,,,,,0,,,,75,97
160084,note_on,15,0,4,,,,,,,,,4,,,,63,88
160085,note_on,0,0,2,,,,,,,,,1,,,,67,97
160085,note_on,235,0,9,,,,,,,,,13,,,,51,0
160085,note_on,15,0,2,,,,,,,,,1,,,,70,97
160086,note_on,30,0,8,,,,,,,,,12,,,,67,108
160086,note_on,15,0,5,,,,,,,,,5,,,,63,88
160087,note_on,235,0,10,,,,,,,,,14,,,,39,0
160090,note_on,5,0,9,,,,,,,,,13,,,,51,99
160091,note_on,15,0,3,,,,,,,,,3,,,,51,97
160092,note_on,5,0,10,,,,,,,,,14,,,,39,93
160205,note_on,125,0,6,,,,,,,,,10,,,,75,0
160207,note_on,125,0,7,,,,,,,,,11,,,,70,0
160211,note_on,125,0,8,,,,,,,,,12,,,,67,0
160233,note_on,150,0,1,,,,,,,,,0,,,,75,0
160235,note_on,150,0,2,,,,,,,,,1,,,,67,0
160235,note_on,0,0,2,,,,,,,,,1,,,,70,0
160260,note_on,55,0,6,,,,,,,,,10,,,,73,110
160262,note_on,55,0,7,,,,,,,,,11,,,,67,110
160263,note_on,30,0,1,,,,,,,,,0,,,,67,97
160265,note_on,30,0,2,,,,,,,,,1,,,,70,97
160265,note_on,0,0,2,,,,,,,,,1,,,,74,97
160266,note_on,55,0,8,,,,,,,,,12,,,,70,108
160290,note_on,30,0,6,,,,,,,,,10,,,,73,0
160292,note_on,30,0,7,,,,,,,,,11,,,,67,0
160296,note_on,30,0,8,,,,,,,,,12,,,,70,0
160308,note_on,45,0,1,,,,,,,,,0,,,,67,0
160309,note_on,225,0,4,,,,,,,,,4,,,,63,0
160310,note_on,45,0,2,,,,,,,,,1,,,,74,0
160310,note_on,0,0,2,,,,,,,,,1,,,,70,0
160311,note_on,225,0,5,,,,,,,,,5,,,,63,0
160316,note_on,225,0,3,,,,,,,,,3,,,,51,0
160320,note_on,30,0,6,,,,,,,,,10,,,,72,95
160320,set_tempo,240,1,0,,,,,,263736,,,,,,,,
160322,note_on,30,0,7,,,,,,,,,11,,,,60,110
160322,note_on,0,0,7,,,,,,,,,11,,,,68,110
160323,note_on,15,0,1,,,,,,,,,0,,,,68,97
160324,note_on,15,0,4,,,,,,,,,4,,,,63,88
160325,note_on,15,0,2,,,,,,,,,1,,,,68,97
160325,note_on,235,0,9,,,,,,,,,13,,,,51,0
160326,note_on,15,0,5,,,,,,,,,5,,,,63,88
160326,note_on,30,0,8,,,,,,,,,12,,,,68,108
160327,note_on,235,0,10,,,,,,,,,14,,,,39,0
160330,note_on,5,0,9,,,,,,,,,13,,,,44,99
160331,note_on,15,0,3,,,,,,,,,3,,,,44,97
160332,note_on,5,0,10,,,,,,,,,14,,,,32,93
160361,note_on,0,0,7,,,,,,,,,11,,,,60,0
160361,note_on,39,0,7,,,,,,,,,11,,,,68,0
160365,note_on,39,0,8,,,,,,,,,12,,,,68,0
160382,note_on,0,0,7,,,,,,,,,11,,,,68,101
160382,note_on,21,0,7,,,,,,,,,11,,,,60,101
160386,note_on,21,0,8,,,,,,,,,12,,,,63,99
160421,note_on,39,0,7,,,,,,,,,11,,,,68,0
160421,note_on,0,0,7,,,,,,,,,11,,,,60,0
160425,note_on,39,0,8,,,,,,,,,12,,,,63,0
160440,note_on,120,0,6,,,,,,,,,10,,,,72,0
160442,note_on,0,0,7,,,,,,,,,11,,,,60,110
160442,note_on,21,0,7,,,,,,,,,11,,,,68,110
160444,note_on,120,0,4,,,,,,,,,4,,,,63,0
160446,note_on,120,0,5,,,,,,,,,5,,,,63,0
160446,note_on,21,0,8,,,,,,,,,12,,,,63,108
160450,note_on,120,0,9,,,,,,,,,13,,,,44,0
160451,note_on,120,0,3,,,,,,,,,3,,,,44,0
160452,note_on,120,0,10,,,,,,,,,14,,,,32,0
160481,note_on,39,0,7,,,,,,,,,11,,,,60,0
160481,note_on,0,0,7,,,,,,,,,11,,,,68,0
160485,note_on,39,0,8,,,,,,,,,12,,,,63,0
160498,note_on,175,0,1,,,,,,,,,0,,,,68,0
160500,note_on,175,0,2,,,,,,,,,1,,,,68,0
160502,note_on,21,0,7,,,,,,,,,11,,,,68,101
160502,note_on,0,0,7,,,,,,,,,11,,,,60,101
160503,note_on,5,0,1,,,,,,,,,0,,,,72,97
160505,note_on,5,0,2,,,,,,,,,1,,,,72,97
160506,note_on,21,0,8,,,,,,,,,12,,,,63,99
160541,note_on,0,0,7,,,,,,,,,11,,,,68,0
160541,note_on,39,0,7,,,,,,,,,11,,,,60,0
160545,note_on,39,0,8,,,,,,,,,12,,,,63,0
160558,note_on,55,0,1,,,,,,,,,0,,,,72,0
160560,note_on,55,0,2,,,,,,,,,1,,,,72,0
160560,set_tempo,240,1,0,,,,,,254777,,,,,,,,
160562,note_on,0,0,7,,,,,,,,,11,,,,60,110
160562,note_on,21,0,7,,,,,,,,,11,,,,68,110
160563,note_on,5,0,1,,,,,,,,,0,,,,75,97
160565,note_on,5,0,2,,,,,,,,,1,,,,75,97
160566,note_on,21,0,8,,,,,,,,,12,,,,63,108
160601,note_on,0,0,7,,,,,,,,,11,,,,68,0
160601,note_on,39,0,7,,,,,,,,,11,,,,60,0
160605,note_on,39,0,8,,,,,,,,,12,,,,63,0
160622,note_on,0,0,7,,,,,,,,,11,,,,68,101
160622,note_on,21,0,7,,,,,,,,,11,,,,60,101
160623,note_on,60,0,1,,,,,,,,,0,,,,75,0
160625,note_on,60,0,2,,,,,,,,,1,,,,75,0
160626,note_on,21,0,8,,,,,,,,,12,,,,63,99
160661,note_on,39,0,7,,,,,,,,,11,,,,68,0
160661,note_on,0,0,7,,,,,,,,,11,,,,60,0
160665,note_on,39,0,8,,,,,,,,,12,,,,63,0
160682,note_on,21,0,7,,,,,,,,,11,,,,60,110
160682,note_on,0,0,7,,,,,,,,,11,,,,68,110
160683,note_on,60,0,1,,,,,,,,,0,,,,79,97
160685,note_on,60,0,2,,,,,,,,,1,,,,67,97
160686,note_on,21,0,8,,,,,,,,,12,,,,63,108
160721,note_on,0,0,7,,,,,,,,,11,,,,60,0
160721,note_on,39,0,7,,,,,,,,,11,,,,68,0
160725,note_on,39,0,8,,,,,,,,,12,,,,63,0
160742,note_on,0,0,7,,,,,,,,,11,,,,60,101
160742,note_on,21,0,7,,,,,,,,,11,,,,68,101
160743,note_on,60,0,1,,,,,,,,,0,,,,79,0
160745,note_on,60,0,2,,,,,,,,,1,,,,67,0
160746,note_on,21,0,8,,,,,,,,,12,,,,63,99
160781,note_on,39,0,7,,,,,,,,,11,,,,60,0
160781,note_on,0,0,7,,,,,,,,,11,,,,68,0
160785,note_on,39,0,8,,,,,,,,,12,,,,63,0
160800,set_tempo,240,1,0,,,,,,263736,,,,,,,,
160802,note_on,0,0,7,,,,,,,,,11,,,,68,110
160802,note_on,21,0,7,,,,,,,,,11,,,,60,110
160803,note_on,60,0,1,,,,,,,,,0,,,,80,97
160805,note_on,60,0,2,,,,,,,,,1,,,,68,97
160806,note_on,21,0,8,,,,,,,,,12,,,,63,108
160841,note_on,39,0,7,,,,,,,,,11,,,,68,0
160841,note_on,0,0,7,,,,,,,,,11,,,,60,0
160845,note_on,39,0,8,,,,,,,,,12,,,,63,0
160862,note_on,0,0,7,,,,,,,,,11,,,,68,101
160862,note_on,21,0,7,,,,,,,,,11,,,,60,101
160863,note_on,60,0,1,,,,,,,,,0,,,,80,0
160865,note_on,60,0,2,,,,,,,,,1,,,,68,0
160866,note_on,21,0,8,,,,,,,,,12,,,,63,99
160901,note_on,0,0,7,,,,,,,,,11,,,,60,0
160901,note_on,39,0,7,,,,,,,,,11,,,,68,0
160905,note_on,39,0,8,,,,,,,,,12,,,,63,0
160922,note_on,21,0,7,,,,,,,,,11,,,,68,110
160922,note_on,0,0,7,,,,,,,,,11,,,,60,110
160923,note_on,60,0,1,,,,,,,,,0,,,,82,97
160925,note_on,60,0,2,,,,,,,,,1,,,,70,97
160926,note_on,21,0,8,,,,,,,,,12,,,,63,108
160961,note_on,39,0,7,,,,,,,,,11,,,,60,0
160961,note_on,0,0,7,,,,,,,,,11,,,,68,0
160965,note_on,39,0,8,,,,,,,,,12,,,,63,0
160982,note_on,21,0,7,,,,,,,,,11,,,,68,101
160982,note_on,0,0,7,,,,,,,,,11,,,,60,101
160983,note_on,60,0,1,,,,,,,,,0,,,,82,0
160985,note_on,60,0,2,,,,,,,,,1,,,,70,0
160986,note_on,21,0,8,,,,,,,,,12,,,,63,99
161021,note_on,39,0,7,,,,,,,,,11,,,,60,0
161021,note_on,0,0,7,,,,,,,,,11,,,,68,0
161025,note_on,39,0,8,,,,,,,,,12,,,,63,0
161040,set_tempo,240,1,0,,,,,,254777,,,,,,,,
161042,note_on,21,0,7,,,,,,,,,11,,,,68,110
161042,note_on,0,0,7,,,,,,,,,11,,,,60,110
161043,note_on,60,0,1,,,,,,,,,0,,,,84,97
161045,note_on,60,0,2,,,,,,,,,1,,,,72,97
161046,note_on,21,0,8,,,,,,,,,12,,,,63,108
161081,note_on,0,0,7,,,,,,,,,11,,,,68,0
161081,note_on,39,0,7,,,,,,,,,11,,,,60,0
161085,note_on,39,0,8,,,,,,,,,12,,,,63,0
161102,note_on,0,0,7,,,,,,,,,11,,,,60,101
161102,note_on,21,0,7,,,,,,,,,11,,,,68,101
161103,note_on,60,0,1,,,,,,,,,0,,,,84,0
161105,note_on,60,0,2,,,,,,,,,1,,,,72,0
161106,note_on,21,0,8,,,,,,,,,12,,,,63,99
161141,note_on,39,0,7,,,,,,,,,11,,,,60,0
161141,note_on,0,0,7,,,,,,,,,11,,,,68,0
161145,note_on,39,0,8,,,,,,,,,12,,,,63,0
161160,note_on,720,0,6,,,,,,,,,10,,,,58,110
161162,note_on,0,0,7,,,,,,,,,11,,,,68,110
161162,note_on,21,0,7,,,,,,,,,11,,,,58,110
161163,note_on,60,0,1,,,,,,,,,0,,,,86,97
161164,note_on,720,0,4,,,,,,,,,4,,,,58,88
161165,note_on,60,0,2,,,,,,,,,1,,,,74,97
161166,note_on,21,0,8,,,,,,,,,12,,,,65,108
161166,note_on,720,0,5,,,,,,,,,5,,,,46,88
161170,note_on,720,0,9,,,,,,,,,13,,,,46,99
161171,note_on,720,0,3,,,,,,,,,3,,,,46,97
161172,note_on,720,0,10,,,,,,,,,14,,,,34,93
161201,note_on,39,0,7,,,,,,,,,11,,,,68,0
161201,note_on,0,0,7,,,,,,,,,11,,,,58,0
161205,note_on,39,0,8,,,,,,,,,12,,,,65,0
161222,note_on,21,0,7,,,,,,,,,11,,,,58,101
161222,note_on,0,0,7,,,,,,,,,11,,,,68,101
161223,note_on,60,0,1,,,,,,,,,0,,,,86,0
161225,note_on,60,0,2,,,,,,,,,1,,,,74,0
161226,note_on,21,0,8,,,,,,,,,12,,,,65,99
161261,note_on,0,0,7,,,,,,,,,11,,,,58,0
161261,note_on,39,0,7,,,,,,,,,11,,,,68,0
161265,note_on,39,0,8,,,,,,,,,12,,,,65,0
161275,note_on,115,0,6,,,,,,,,,10,,,,58,0
161279,note_on,115,0,4,,,,,,,,,4,,,,58,0
161280,note_on,5,0,6,,,,,,,,,10,,,,63,110
161280,set_tempo,240,1,0,,,,,,263736,,,,,,,,
161281,note_on,115,0,5,,,,,,,,,5,,,,46,0
161282,note_on,21,0,7,,,,,,,,,11,,,,66,110
161282,note_on,0,0,7,,,,,,,,,11,,,,58,110
161283,note_on,60,0,1,,,,,,,,,0,,,,87,97
161284,note_on,5,0,4,,,,,,,,,4,,,,58,88
161285,note_on,60,0,2,,,,,,,,,1,,,,75,97
161285,note_on,115,0,9,,,,,,,,,13,,,,46,0
161286,note_on,115,0,3,,,,,,,,,3,,,,46,0
161286,note_on,5,0,5,,,,,,,,,5,,,,46,88
161286,note_on,21,0,8,,,,,,,,,12,,,,63,108
161287,note_on,115,0,10,,,,,,,,,14,,,,34,0
161290,note_on,5,0,9,,,,,,,,,13,,,,39,99
161291,note_on,5,0,3,,,,,,,,,3,,,,39,97
161292,note_on,5,0,10,,,,,,,,,14,,,,27,93
161321,note_on,0,0,7,,,,,,,,,11,,,,66,0
161321,note_on,39,0,7,,,,,,,,,11,,,,58,0
161325,note_on,39,0,8,,,,,,,,,12,,,,63,0
161342,note_on,21,0,7,,,,,,,,,11,,,,58,101
161342,note_on,0,0,7,,,,,,,,,11,,,,66,101
161346,note_on,21,0,8,,,,,,,,,12,,,,63,99
161381,note_on,0,0,7,,,,,,,,,11,,,,58,0
161381,note_on,39,0,7,,,,,,,,,11,,,,66,0
161385,note_on,39,0,8,,,,,,,,,12,,,,63,0
161402,note_on,0,0,7,,,,,,,,,11,,,,66,110
161402,note_on,21,0,7,,,,,,,,,11,,,,58,110
161406,note_on,21,0,8,,,,,,,,,12,,,,63,108
161441,note_on,0,0,7,,,,,,,,,11,,,,58,0
161441,note_on,39,0,7,,,,,,,,,11,,,,66,0
161445,note_on,39,0,8,,,,,,,,,12,,,,63,0
161455,note_on,175,0,6,,,,,,,,,10,,,,63,0
161460,note_on,5,0,6,,,,,,,,,10,,,,66,110
161462,note_on,0,0,7,,,,,,,,,11,,,,58,101
161462,note_on,21,0,7,,,,,,,,,11,,,,66,101
161465,note_on,175,0,9,,,,,,,,,13,,,,39,0
161466,note_on,21,0,8,,,,,,,,,12,,,,63,99
161466,note_on,175,0,3,,,,,,,,,3,,,,39,0
161467,note_on,175,0,10,,,,,,,,,14,,,,27,0
161470,note_on,5,0,9,,,,,,,,,13,,,,42,99
161471,note_on,5,0,3,,,,,,,,,3,,,,42,97
161472,note_on,5,0,10,,,,,,,,,14,,,,30,93
161499,note_on,39,0,6,,,,,,,,,10,,,,66,0
161501,note_on,0,0,7,,,,,,,,,11,,,,66,0
161501,note_on,39,0,7,,,,,,,,,11,,,,58,0
161505,note_on,39,0,8,,,,,,,,,12,,,,63,0
161509,note_on,39,0,9,,,,,,,,,13,,,,42,0
161511,note_on,39,0,10,,,,,,,,,14,,,,30,0
161520,set_tempo,240,1,0,,,,,,254777,,,,,,,,
161520,note_on,21,0,6,,,,,,,,,10,,,,70,110
161522,note_on,21,0,7,,,,,,,,,11,,,,58,110
161522,note_on,0,0,7,,,,,,,,,11,,,,66,110
161523,note_on,240,0,1,,,,,,,,,0,,,,87,0
161524,note_on,240,0,4,,,,,,,,,4,,,,58,0
161525,note_on,240,0,2,,,,,,,,,1,,,,75,0
161526,note_on,55,0,3,,,,,,,,,3,,,,42,0
161526,note_on,21,0,8,,,,,,,,,12,,,,63,108
161526,note_on,240,0,5,,,,,,,,,5,,,,46,0
161530,note_on,21,0,9,,,,,,,,,13,,,,46,99
161531,note_on,5,0,3,,,,,,,,,3,,,,46,97
161532,note_on,21,0,10,,,,,,,,,14,,,,34,93
161561,note_on,0,0,7,,,,,,,,,11,,,,58,0
161561,note_on,39,0,7,,,,,,,,,11,,,,66,0
161565,note_on,39,0,8,,,,,,,,,12,,,,63,0
161580,note_on,60,0,6,,,,,,,,,10,,,,70,0
161582,note_on,21,0,7,,,,,,,,,11,,,,66,101
161582,note_on,0,0,7,,,,,,,,,11,,,,58,101
161586,note_on,21,0,8,,,,,,,,,12,,,,63,99
161590,note_on,60,0,9,,,,,,,,,13,,,,46,0
161591,note_on,60,0,3,,,,,,,,,3,,,,46,0
161592,note_on,60,0,10,,,,,,,,,14,,,,34,0
161621,note_on,39,0,7,,,,,,,,,11,,,,58,0
161621,note_on,0,0,7,,,,,,,,,11,,,,66,0
161625,note_on,39,0,8,,,,,,,,,12,,,,63,0
161640,note_on,60,0,6,,,,,,,,,10,,,,74,110
161642,note_on,21,0,7,,,,,,,,,11,,,,58,110
161642,note_on,0,0,7,,,,,,,,,11,,,,66,110
161646,note_on,21,0,8,,,,,,,,,12,,,,63,108
161650,note_on,60,0,9,,,,,,,,,13,,,,50,99
161651,note_on,60,0,3,,,,,,,,,3,,,,50,97
161652,note_on,60,0,10,,,,,,,,,14,,,,38,93
161681,note_on,0,0,7,,,,,,,,,11,,,,58,0
161681,note_on,39,0,7,,,,,,,,,11,,,,66,0
161685,note_on,39,0,8,,,,,,,,,12,,,,63,0
161700,note_on,60,0,6,,,,,,,,,10,,,,74,0
161702,note_on,0,0,7,,,,,,,,,11,,,,66,101
161702,note_on,21,0,7,,,,,,,,,11,,,,58,101
161706,note_on,21,0,8,,,,,,,,,12,,,,63,99
161710,note_on,60,0,9,,,,,,,,,13,,,,50,0
161711,note_on,60,0,3,,,,,,,,,3,,,,50,0
161712,note_on,60,0,10,,,,,,,,,14,,,,38,0
161741,note_on,0,0,7,,,,,,,,,11,,,,58,0
161741,note_on,39,0,7,,,,,,,,,11,,,,66,0
161745,note_on,39,0,8,,,,,,,,,12,,,,63,0
161760,note_on,60,0,6,,,,,,,,,10,,,,75,110
161760,set_tempo,240,1,0,,,,,,263736,,,,,,,,
161762,note_on,0,0,7,,,,,,,,,11,,,,58,110
161762,note_on,21,0,7,,,,,,,,,11,,,,66,110
161766,note_on,21,0,8,,,,,,,,,12,,,,63,108
161770,note_on,60,0,9,,,,,,,,,13,,,,51,99
161771,note_on,60,0,3,,,,,,,,,3,,,,51,97
161772,note_on,60,0,10,,,,,,,,,14,,,,39,93
161801,note_on,39,0,7,,,,,,,,,11,,,,58,0
161801,note_on,0,0,7,,,,,,,,,11,,,,66,0
161805,note_on,39,0,8,,,,,,,,,12,,,,63,0
161820,note_on,60,0,6,,,,,,,,,10,,,,75,0
161822,note_on,21,0,7,,,,,,,,,11,,,,66,101
161822,note_on,0,0,7,,,,,,,,,11,,,,58,101
161826,note_on,21,0,8,,,,,,,,,12,,,,63,99
161830,note_on,60,0,9,,,,,,,,,13,,,,51,0
161831,note_on,60,0,3,,,,,,,,,3,,,,51,0
161832,note_on,60,0,10,,,,,,,,,14,,,,39,0
161861,note_on,39,0,7,,,,,,,,,11,,,,58,0
161861,note_on,0,0,7,,,,,,,,,11,,,,66,0
161865,note_on,39,0,8,,,,,,,,,12,,,,63,0
161880,note_on,60,0,6,,,,,,,,,10,,,,77,110
161882,note_on,21,0,7,,,,,,,,,11,,,,66,110
161882,note_on,0,0,7,,,,,,,,,11,,,,58,110
161886,note_on,21,0,8,,,,,,,,,12,,,,63,108
161890,note_on,60,0,9,,,,,,,,,13,,,,53,99
161891,note_on,60,0,3,,,,,,,,,3,,,,53,97
161892,note_on,60,0,10,,,,,,,,,14,,,,41,93
161921,note_on,0,0,7,,,,,,,,,11,,,,66,0
161921,note_on,39,0,7,,,,,,,,,11,,,,58,0
161925,note_on,39,0,8,,,,,,,,,12,,,,63,0
161940,note_on,60,0,6,,,,,,,,,10,,,,77,0
161942,note_on,0,0,7,,,,,,,,,11,,,,66,101
161942,note_on,21,0,7,,,,,,,,,11,,,,58,101
161946,note_on,21,0,8,,,,,,,,,12,,,,63,99
161950,note_on,60,0,9,,,,,,,,,13,,,,53,0
161951,note_on,60,0,3,,,,,,,,,3,,,,53,0
161952,note_on,60,0,10,,,,,,,,,14,,,,41,0
161981,note_on,0,0,7,,,,,,,,,11,,,,58,0
161981,note_on,39,0,7,,,,,,,,,11,,,,66,0
161985,note_on,39,0,8,,,,,,,,,12,,,,63,0
162000,note_on,60,0,6,,,,,,,,,10,,,,78,110
162000,set_tempo,240,1,0,,,,,,254777,,,,,,,,
162002,note_on,21,0,7,,,,,,,,,11,,,,66,110
162002,note_on,0,0,7,,,,,,,,,11,,,,58,110
162006,note_on,21,0,8,,,,,,,,,12,,,,63,108
162010,note_on,60,0,9,,,,,,,,,13,,,,54,99
162011,note_on,60,0,3,,,,,,,,,3,,,,54,97
162012,note_on,60,0,10,,,,,,,,,14,,,,42,93
162041,note_on,39,0,7,,,,,,,,,11,,,,58,0
162041,note_on,0,0,7,,,,,,,,,11,,,,66,0
162045,note_on,39,0,8,,,,,,,,,12,,,,63,0
162060,note_on,60,0,6,,,,,,,,,10,,,,78,0
162062,note_on,21,0,7,,,,,,,,,11,,,,58,101
162062,note_on,0,0,7,,,,,,,,,11,,,,66,101
162066,note_on,21,0,8,,,,,,,,,12,,,,63,99
162070,note_on,60,0,9,,,,,,,,,13,,,,54,0
162071,note_on,60,0,3,,,,,,,,,3,,,,54,0
162072,note_on,60,0,10,,,,,,,,,14,,,,42,0
162101,note_on,39,0,7,,,,,,,,,11,,,,66,0
162101,note_on,0,0,7,,,,,,,,,11,,,,58,0
162105,note_on,39,0,8,,,,,,,,,12,,,,63,0
162120,note_on,60,0,6,,,,,,,,,10,,,,81,110
162122,note_on,0,0,7,,,,,,,,,11,,,,63,110
162122,note_on,21,0,7,,,,,,,,,11,,,,72,110
162123,note_on,600,0,1,,,,,,,,,0,,,,65,97
162124,note_on,600,0,4,,,,,,,,,4,,,,65,88
162125,note_on,600,0,2,,,,,,,,,1,,,,65,97
162126,note_on,600,0,5,,,,,,,,,5,,,,53,88
162126,note_on,21,0,8,,,,,,,,,12,,,,65,108
162130,note_on,60,0,9,,,,,,,,,13,,,,57,99
162131,note_on,60,0,3,,,,,,,,,3,,,,57,97
162132,note_on,60,0,10,,,,,,,,,14,,,,45,93
162161,note_on,0,0,7,,,,,,,,,11,,,,72,0
162161,note_on,39,0,7,,,,,,,,,11,,,,63,0
162165,note_on,39,0,8,,,,,,,,,12,,,,65,0
162180,note_on,60,0,6,,,,,,,,,10,,,,81,0
162182,note_on,0,0,7,,,,,,,,,11,,,,72,101
162182,note_on,21,0,7,,,,,,,,,11,,,,63,101
162186,note_on,21,0,8,,,,,,,,,12,,,,65,99
162190,note_on,60,0,9,,,,,,,,,13,,,,57,0
162191,note_on,60,0,3,,,,,,,,,3,,,,57,0
162192,note_on,60,0,10,,,,,,,,,14,,,,45,0
162221,note_on,0,0,7,,,,,,,,,11,,,,63,0
162221,note_on,39,0,7,,,,,,,,,11,,,,72,0
162225,note_on,39,0,8,,,,,,,,,12,,,,65,0
162238,note_on,115,0,1,,,,,,,,,0,,,,65,0
162239,note_on,115,0,4,,,,,,,,,4,,,,65,0
162240,note_on,115,0,2,,,,,,,,,1,,,,65,0
162240,note_on,60,0,6,,,,,,,,,10,,,,82,110
162240,set_tempo,240,1,0,,,,,,263736,,,,,,,,
162241,note_on,115,0,5,,,,,,,,,5,,,,53,0
162242,note_on,21,0,7,,,,,,,,,11,,,,61,110
162242,note_on,0,0,7,,,,,,,,,11,,,,70,110
162243,note_on,5,0,1,,,,,,,,,0,,,,70,97
162244,note_on,5,0,4,,,,,,,,,4,,,,65,88
162245,note_on,5,0,2,,,,,,,,,1,,,,70,97
162246,note_on,21,0,8,,,,,,,,,12,,,,65,108
162246,note_on,5,0,5,,,,,,,,,5,,,,53,88
162250,note_on,60,0,9,,,,,,,,,13,,,,58,99
162251,note_on,60,0,3,,,,,,,,,3,,,,58,97
162252,note_on,60,0,10,,,,,,,,,14,,,,46,93
162281,note_on,0,0,7,,,,,,,,,11,,,,61,0
162281,note_on,39,0,7,,,,,,,,,11,,,,70,0
162285,note_on,39,0,8,,,,,,,,,12,,,,65,0
162302,note_on,0,0,7,,,,,,,,,11,,,,61,101
162302,note_on,21,0,7,,,,,,,,,11,,,,70,101
162306,note_on,21,0,8,,,,,,,,,12,,,,65,99
162341,note_on,39,0,7,,,,,,,,,11,,,,61,0
162341,note_on,0,0,7,,,,,,,,,11,,,,70,0
162345,note_on,39,0,8,,,,,,,,,12,,,,65,0
162362,note_on,21,0,7,,,,,,,,,11,,,,61,110
162362,note_on,0,0,7,,,,,,,,,11,,,,70,110
162366,note_on,21,0,8,,,,,,,,,12,,,,65,108
162401,note_on,39,0,7,,,,,,,,,11,,,,70,0
162401,note_on,0,0,7,,,,,,,,,11,,,,61,0
162405,note_on,39,0,8,,,,,,,,,12,,,,65,0
162418,note_on,175,0,1,,,,,,,,,0,,,,70,0
162420,note_on,175,0,2,,,,,,,,,1,,,,70,0
162422,note_on,0,0,7,,,,,,,,,11,,,,70,101
162422,note_on,21,0,7,,,,,,,,,11,,,,61,101
162423,note_on,5,0,1,,,,,,,,,0,,,,73,97
162425,note_on,5,0,2,,,,,,,,,1,,,,73,97
162426,note_on,21,0,8,,,,,,,,,12,,,,65,99
162461,note_on,0,0,7,,,,,,,,,11,,,,61,0
162461,note_on,39,0,7,,,,,,,,,11,,,,70,0
162465,note_on,39,0,8,,,,,,,,,12,,,,65,0
162478,note_on,55,0,1,,,,,,,,,0,,,,73,0
162480,note_on,240,0,6,,,,,,,,,10,,,,82,0
162480,note_on,55,0,2,,,,,,,,,1,,,,73,0
162480,set_tempo,240,1,0,,,,,,254777,,,,,,,,
162482,note_on,21,0,7,,,,,,,,,11,,,,70,110
162482,note_on,0,0,7,,,,,,,,,11,,,,61,110
162483,note_on,5,0,1,,,,,,,,,0,,,,77,97
162484,note_on,240,0,4,,,,,,,,,4,,,,65,0
162485,note_on,5,0,2,,,,,,,,,1,,,,77,97
162486,note_on,21,0,8,,,,,,,,,12,,,,65,108
162486,note_on,240,0,5,,,,,,,,,5,,,,53,0
162490,note_on,240,0,9,,,,,,,,,13,,,,58,0
162491,note_on,240,0,3,,,,,,,,,3,,,,58,0
162492,note_on,240,0,10,,,,,,,,,14,,,,46,0
162521,note_on,0,0,7,,,,,,,,,11,,,,70,0
162521,note_on,39,0,7,,,,,,,,,11,,,,61,0
162525,note_on,39,0,8,,,,,,,,,12,,,,65,0
162542,note_on,0,0,7,,,,,,,,,11,,,,61,101
162542,note_on,21,0,7,,,,,,,,,11,,,,70,101
162543,note_on,60,0,1,,,,,,,,,0,,,,77,0
162545,note_on,60,0,2,,,,,,,,,1,,,,77,0
162546,note_on,21,0,8,,,,,,,,,12,,,,65,99
162581,note_on,39,0,7,,,,,,,,,11,,,,61,0
162581,note_on,0,0,7,,,,,,,,,11,,,,70,0
162585,note_on,39,0,8,,,,,,,,,12,,,,65,0
162602,note_on,21,0,7,,,,,,,,,11,,,,61,110
162602,note_on,0,0,7,,,,,,,,,11,,,,70,110
162603,note_on,60,0,1,,,,,,,,,0,,,,81,97
162605,note_on,60,0,2,,,,,,,,,1,,,,69,97
162606,note_on,21,0,8,,,,,,,,,12,,,,65,108
162641,note_on,0,0,7,,,,,,,,,11,,,,61,0
162641,note_on,39,0,7,,,,,,,,,11,,,,70,0
162645,note_on,39,0,8,,,,,,,,,12,,,,65,0
162662,note_on,0,0,7,,,,,,,,,11,,,,70,101
162662,note_on,21,0,7,,,,,,,,,11,,,,61,101
162663,note_on,60,0,1,,,,,,,,,0,,,,81,0
162665,note_on,60,0,2,,,,,,,,,1,,,,69,0
162666,note_on,21,0,8,,,,,,,,,12,,,,65,99
162701,note_on,0,0,7,,,,,,,,,11,,,,61,0
162701,note_on,39,0,7,,,,,,,,,11,,,,70,0
162705,note_on,39,0,8,,,,,,,,,12,,,,65,0
162720,set_tempo,240,1,0,,,,,,263736,,,,,,,,
162722,note_on,21,0,7,,,,,,,,,11,,,,70,110
162722,note_on,0,0,7,,,,,,,,,11,,,,61,110
162723,note_on,60,0,1,,,,,,,,,0,,,,82,97
162725,note_on,60,0,2,,,,,,,,,1,,,,70,97
162726,note_on,21,0,8,,,,,,,,,12,,,,65,108
162761,note_on,39,0,7,,,,,,,,,11,,,,61,0
162761,note_on,0,0,7,,,,,,,,,11,,,,70,0
162765,note_on,39,0,8,,,,,,,,,12,,,,65,0
162782,note_on,21,0,7,,,,,,,,,11,,,,70,101
162782,note_on,0,0,7,,,,,,,,,11,,,,61,101
162783,note_on,60,0,1,,,,,,,,,0,,,,82,0
162785,note_on,60,0,2,,,,,,,,,1,,,,70,0
162786,note_on,21,0,8,,,,,,,,,12,,,,65,99
162821,note_on,0,0,7,,,,,,,,,11,,,,70,0
162821,note_on,39,0,7,,,,,,,,,11,,,,61,0
162825,note_on,39,0,8,,,,,,,,,12,,,,65,0
162842,note_on,0,0,7,,,,,,,,,11,,,,61,110
162842,note_on,21,0,7,,,,,,,,,11,,,,70,110
162843,note_on,60,0,1,,,,,,,,,0,,,,84,97
162845,note_on,60,0,2,,,,,,,,,1,,,,72,97
162846,note_on,21,0,8,,,,,,,,,12,,,,65,108
162881,note_on,0,0,7,,,,,,,,,11,,,,70,0
162881,note_on,39,0,7,,,,,,,,,11,,,,61,0
162885,note_on,39,0,8,,,,,,,,,12,,,,65,0
162902,note_on,21,0,7,,,,,,,,,11,,,,70,101
162902,note_on,0,0,7,,,,,,,,,11,,,,61,101
162903,note_on,60,0,1,,,,,,,,,0,,,,84,0
162905,note_on,60,0,2,,,,,,,,,1,,,,72,0
162906,note_on,21,0,8,,,,,,,,,12,,,,65,99
162941,note_on,0,0,7,,,,,,,,,11,,,,70,0
162941,note_on,39,0,7,,,,,,,,,11,,,,61,0
162945,note_on,39,0,8,,,,,,,,,12,,,,65,0
162960,set_tempo,240,1,0,,,,,,254777,,,,,,,,
162962,note_on,0,0,7,,,,,,,,,11,,,,61,110
162962,note_on,21,0,7,,,,,,,,,11,,,,70,110
162963,note_on,60,0,1,,,,,,,,,0,,,,85,97
162965,note_on,60,0,2,,,,,,,,,1,,,,73,97
162966,note_on,21,0,8,,,,,,,,,12,,,,65,108
163001,note_on,0,0,7,,,,,,,,,11,,,,70,0
163001,note_on,39,0,7,,,,,,,,,11,,,,61,0
163005,note_on,39,0,8,,,,,,,,,12,,,,65,0
163022,note_on,21,0,7,,,,,,,,,11,,,,70,101
163022,note_on,0,0,7,,,,,,,,,11,,,,61,101
163023,note_on,60,0,1,,,,,,,,,0,,,,85,0
163025,note_on,60,0,2,,,,,,,,,1,,,,73,0
163026,note_on,21,0,8,,,,,,,,,12,,,,65,99
163061,note_on,39,0,7,,,,,,,,,11,,,,61,0
163061,note_on,0,0,7,,,,,,,,,11,,,,70,0
163065,note_on,39,0,8,,,,,,,,,12,,,,65,0
163080,note_on,600,0,6,,,,,,,,,10,,,,60,110
163082,note_on,21,0,7,,,,,,,,,11,,,,67,110
163082,note_on,0,0,7,,,,,,,,,11,,,,70,110
163083,note_on,60,0,1,,,,,,,,,0,,,,88,97
163084,note_on,600,0,4,,,,,,,,,4,,,,60,88
163085,note_on,60,0,2,,,,,,,,,1,,,,76,97
163086,note_on,21,0,8,,,,,,,,,12,,,,64,108
163086,note_on,600,0,5,,,,,,,,,5,,,,60,88
163090,note_on,600,0,9,,,,,,,,,13,,,,48,99
163091,note_on,600,0,3,,,,,,,,,3,,,,48,97
163092,note_on,600,0,10,,,,,,,,,14,,,,36,93
163121,note_on,0,0,7,,,,,,,,,11,,,,67,0
163121,note_on,39,0,7,,,,,,,,,11,,,,70,0
163125,note_on,39,0,8,,,,,,,,,12,,,,64,0
163142,note_on,0,0,7,,,,,,,,,11,,,,67,101
163142,note_on,21,0,7,,,,,,,,,11,,,,70,101
163143,note_on,60,0,1,,,,,,,,,0,,,,88,0
163145,note_on,60,0,2,,,,,,,,,1,,,,76,0
163146,note_on,21,0,8,,,,,,,,,12,,,,64,99
163181,note_on,39,0,7,,,,,,,,,11,,,,67,0
163181,note_on,0,0,7,,,,,,,,,11,,,,70,0
163185,note_on,39,0,8,,,,,,,,,12,,,,64,0
163195,note_on,115,0,6,,,,,,,,,10,,,,60,0
163199,note_on,115,0,4,,,,,,,,,4,,,,60,0
163200,set_tempo,240,1,0,,,,,,263736,,,,,,,,
163200,note_on,5,0,6,,,,,,,,,10,,,,65,110
163201,note_on,115,0,5,,,,,,,,,5,,,,60,0
163202,note_on,0,0,7,,,,,,,,,11,,,,60,110
163202,note_on,21,0,7,,,,,,,,,11,,,,68,110
163203,note_on,60,0,1,,,,,,,,,0,,,,89,97
163204,note_on,5,0,4,,,,,,,,,4,,,,60,88
163205,note_on,115,0,9,,,,,,,,,13,,,,48,0
163205,note_on,60,0,2,,,,,,,,,1,,,,77,97
163206,note_on,21,0,8,,,,,,,,,12,,,,65,108
163206,note_on,115,0,3,,,,,,,,,3,,,,48,0
163206,note_on,5,0,5,,,,,,,,,5,,,,53,88
163207,note_on,115,0,10,,,,,,,,,14,,,,36,0
163210,note_on,5,0,9,,,,,,,,,13,,,,41,99
163211,note_on,5,0,3,,,,,,,,,3,,,,41,97
163212,note_on,5,0,10,,,,,,,,,14,,,,29,93
163241,note_on,39,0,7,,,,,,,,,11,,,,60,0
163241,note_on,0,0,7,,,,,,,,,11,,,,68,0
163245,note_on,39,0,8,,,,,,,,,12,,,,65,0
163262,note_on,21,0,7,,,,,,,,,11,,,,68,101
163262,note_on,0,0,7,,,,,,,,,11,,,,60,101
163266,note_on,21,0,8,,,,,,,,,12,,,,65,99
163301,note_on,39,0,7,,,,,,,,,11,,,,60,0
163301,note_on,0,0,7,,,,,,,,,11,,,,68,0
163305,note_on,39,0,8,,,,,,,,,12,,,,65,0
163322,note_on,0,0,7,,,,,,,,,11,,,,68,110
163322,note_on,21,0,7,,,,,,,,,11,,,,60,110
163326,note_on,21,0,8,,,,,,,,,12,,,,65,108
163361,note_on,39,0,7,,,,,,,,,11,,,,68,0
163361,note_on,0,0,7,,,,,,,,,11,,,,60,0
163365,note_on,39,0,8,,,,,,,,,12,,,,65,0
163375,note_on,175,0,6,,,,,,,,,10,,,,65,0
163380,note_on,5,0,6,,,,,,,,,10,,,,68,110
163382,note_on,0,0,7,,,,,,,,,11,,,,68,101
163382,note_on,21,0,7,,,,,,,,,11,,,,60,101
163385,note_on,175,0,9,,,,,,,,,13,,,,41,0
163386,note_on,175,0,3,,,,,,,,,3,,,,41,0
163386,note_on,21,0,8,,,,,,,,,12,,,,65,99
163387,note_on,175,0,10,,,,,,,,,14,,,,29,0
163390,note_on,5,0,9,,,,,,,,,13,,,,44,99
163391,note_on,5,0,3,,,,,,,,,3,,,,44,97
163392,note_on,5,0,10,,,,,,,,,14,,,,32,93
163419,note_on,39,0,6,,,,,,,,,10,,,,68,0
163421,note_on,39,0,7,,,,,,,,,11,,,,68,0
163421,note_on,0,0,7,,,,,,,,,11,,,,60,0
163425,note_on,39,0,8,,,,,,,,,12,,,,65,0
163429,note_on,39,0,9,,,,,,,,,13,,,,44,0
163431,note_on,39,0,10,,,,,,,,,14,,,,32,0
163440,set_tempo,240,1,0,,,,,,254777,,,,,,,,
163440,note_on,21,0,6,,,,,,,,,10,,,,72,110
163442,note_on,21,0,7,,,,,,,,,11,,,,60,110
163442,note_on,0,0,7,,,,,,,,,11,,,,68,110
163443,note_on,240,0,1,,,,,,,,,0,,,,89,0
163444,note_on,240,0,4,,,,,,,,,4,,,,60,0
163445,note_on,240,0,2,,,,,,,,,1,,,,77,0
163446,note_on,21,0,8,,,,,,,,,12,,,,65,108
163446,note_on,55,0,3,,,,,,,,,3,,,,44,0
163446,note_on,240,0,5,,,,,,,,,5,,,,53,0
163450,note_on,21,0,9,,,,,,,,,13,,,,48,99
163451,note_on,5,0,3,,,,,,,,,3,,,,48,97
163452,note_on,21,0,10,,,,,,,,,14,,,,36,93
163481,note_on,0,0,7,,,,,,,,,11,,,,60,0
163481,note_on,39,0,7,,,,,,,,,11,,,,68,0
163485,note_on,39,0,8,,,,,,,,,12,,,,65,0
163500,note_on,60,0,6,,,,,,,,,10,,,,72,0
163502,note_on,0,0,7,,,,,,,,,11,,,,68,101
163502,note_on,21,0,7,,,,,,,,,11,,,,60,101
163506,note_on,21,0,8,,,,,,,,,12,,,,65,99
163510,note_on,60,0,9,,,,,,,,,13,,,,48,0
163511,note_on,60,0,3,,,,,,,,,3,,,,48,0
163512,note_on,60,0,10,,,,,,,,,14,,,,36,0
163541,note_on,39,0,7,,,,,,,,,11,,,,68,0
163541,note_on,0,0,7,,,,,,,,,11,,,,60,0
163545,note_on,39,0,8,,,,,,,,,12,,,,65,0
163560,note_on,60,0,6,,,,,,,,,10,,,,76,110
163562,note_on,21,0,7,,,,,,,,,11,,,,68,110
163562,note_on,0,0,7,,,,,,,,,11,,,,60,110
163566,note_on,21,0,8,,,,,,,,,12,,,,65,108
163570,note_on,60,0,9,,,,,,,,,13,,,,52,99
163571,note_on,60,0,3,,,,,,,,,3,,,,52,97
163572,note_on,60,0,10,,,,,,,,,14,,,,40,93
163601,note_on,0,0,7,,,,,,,,,11,,,,68,0
163601,note_on,39,0,7,,,,,,,,,11,,,,60,0
163605,note_on,39,0,8,,,,,,,,,12,,,,65,0
163620,note_on,60,0,6,,,,,,,,,10,,,,76,0
163622,note_on,21,0,7,,,,,,,,,11,,,,60,101
163622,note_on,0,0,7,,,,,,,,,11,,,,68,101
163626,note_on,21,0,8,,,,,,,,,12,,,,65,99
163630,note_on,60,0,9,,,,,,,,,13,,,,52,0
163631,note_on,60,0,3,,,,,,,,,3,,,,52,0
163632,note_on,60,0,10,,,,,,,,,14,,,,40,0
163661,note_on,0,0,7,,,,,,,,,11,,,,60,0
163661,note_on,39,0,7,,,,,,,,,11,,,,68,0
163665,note_on,39,0,8,,,,,,,,,12,,,,65,0
163680,note_on,60,0,6,,,,,,,,,10,,,,77,110
163680,set_tempo,240,1,0,,,,,,263736,,,,,,,,
163682,note_on,0,0,7,,,,,,,,,11,,,,60,110
163682,note_on,21,0,7,,,,,,,,,11,,,,68,110
163686,note_on,21,0,8,,,,,,,,,12,,,,65,108
163690,note_on,60,0,9,,,,,,,,,13,,,,53,99
163691,note_on,60,0,3,,,,,,,,,3,,,,53,97
163692,note_on,60,0,10,,,,,,,,,14,,,,41,93
163721,note_on,0,0,7,,,,,,,,,11,,,,68,0
163721,note_on,39,0,7,,,,,,,,,11,,,,60,0
163725,note_on,39,0,8,,,,,,,,,12,,,,65,0
163740,note_on,60,0,6,,,,,,,,,10,,,,77,0
163742,note_on,0,0,7,,,,,,,,,11,,,,68,101
163742,note_on,21,0,7,,,,,,,,,11,,,,60,101
163746,note_on,21,0,8,,,,,,,,,12,,,,65,99
163750,note_on,60,0,9,,,,,,,,,13,,,,53,0
163751,note_on,60,0,3,,,,,,,,,3,,,,53,0
163752,note_on,60,0,10,,,,,,,,,14,,,,41,0
163781,note_on,39,0,7,,,,,,,,,11,,,,68,0
163781,note_on,0,0,7,,,,,,,,,11,,,,60,0
163785,note_on,39,0,8,,,,,,,,,12,,,,65,0
163800,note_on,60,0,6,,,,,,,,,10,,,,79,110
163802,note_on,21,0,7,,,,,,,,,11,,,,60,110
163802,note_on,0,0,7,,,,,,,,,11,,,,68,110
163806,note_on,21,0,8,,,,,,,,,12,,,,65,108
163810,note_on,60,0,9,,,,,,,,,13,,,,55,99
163811,note_on,60,0,3,,,,,,,,,3,,,,55,97
163812,note_on,60,0,10,,,,,,,,,14,,,,43,93
163841,note_on,0,0,7,,,,,,,,,11,,,,60,0
163841,note_on,39,0,7,,,,,,,,,11,,,,68,0
163845,note_on,39,0,8,,,,,,,,,12,,,,65,0
163860,note_on,60,0,6,,,,,,,,,10,,,,79,0
163862,note_on,21,0,7,,,,,,,,,11,,,,60,101
163862,note_on,0,0,7,,,,,,,,,11,,,,68,101
163866,note_on,21,0,8,,,,,,,,,12,,,,65,99
163870,note_on,60,0,9,,,,,,,,,13,,,,55,0
163871,note_on,60,0,3,,,,,,,,,3,,,,55,0
163872,note_on,60,0,10,,,,,,,,,14,,,,43,0
163901,note_on,39,0,7,,,,,,,,,11,,,,68,0
163901,note_on,0,0,7,,,,,,,,,11,,,,60,0
163905,note_on,39,0,8,,,,,,,,,12,,,,65,0
163920,set_tempo,240,1,0,,,,,,254777,,,,,,,,
163920,note_on,60,0,6,,,,,,,,,10,,,,80,110
163922,note_on,21,0,7,,,,,,,,,11,,,,68,110
163922,note_on,0,0,7,,,,,,,,,11,,,,60,110
163926,note_on,21,0,8,,,,,,,,,12,,,,65,108
163930,note_on,60,0,9,,,,,,,,,13,,,,56,99
163931,note_on,60,0,3,,,,,,,,,3,,,,56,97
163932,note_on,60,0,10,,,,,,,,,14,,,,44,93
163961,note_on,0,0,7,,,,,,,,,11,,,,68,0
163961,note_on,39,0,7,,,,,,,,,11,,,,60,0
163965,note_on,39,0,8,,,,,,,,,12,,,,65,0
163980,note_on,60,0,6,,,,,,,,,10,,,,80,0
163982,note_on,0,0,7,,,,,,,,,11,,,,60,101
163982,note_on,21,0,7,,,,,,,,,11,,,,68,101
163986,note_on,21,0,8,,,,,,,,,12,,,,65,99
163990,note_on,60,0,9,,,,,,,,,13,,,,56,0
163991,note_on,60,0,3,,,,,,,,,3,,,,56,0
163992,note_on,60,0,10,,,,,,,,,14,,,,44,0
164021,note_on,0,0,7,,,,,,,,,11,,,,68,0
164021,note_on,39,0,7,,,,,,,,,11,,,,60,0
164025,note_on,39,0,8,,,,,,,,,12,,,,65,0
164040,note_on,60,0,6,,,,,,,,,10,,,,83,110
164042,note_on,0,0,7,,,,,,,,,11,,,,74,110
164042,note_on,21,0,7,,,,,,,,,11,,,,65,110
164043,note_on,600,0,1,,,,,,,,,0,,,,67,97
164044,note_on,600,0,4,,,,,,,,,4,,,,65,88
164045,note_on,600,0,2,,,,,,,,,1,,,,67,97
164046,note_on,21,0,8,,,,,,,,,12,,,,67,108
164046,note_on,600,0,5,,,,,,,,,5,,,,62,88
164050,note_on,60,0,9,,,,,,,,,13,,,,59,99
164051,note_on,60,0,3,,,,,,,,,3,,,,59,97
164052,note_on,60,0,10,,,,,,,,,14,,,,47,93
164081,note_on,0,0,7,,,,,,,,,11,,,,65,0
164081,note_on,39,0,7,,,,,,,,,11,,,,74,0
164085,note_on,39,0,8,,,,,,,,,12,,,,67,0
164100,note_on,60,0,6,,,,,,,,,10,,,,83,0
164102,note_on,0,0,7,,,,,,,,,11,,,,65,101
164102,note_on,21,0,7,,,,,,,,,11,,,,74,101
164106,note_on,21,0,8,,,,,,,,,12,,,,67,99
164110,note_on,60,0,9,,,,,,,,,13,,,,59,0
164111,note_on,60,0,3,,,,,,,,,3,,,,59,0
164112,note_on,60,0,10,,,,,,,,,14,,,,47,0
164141,note_on,39,0,7,,,,,,,,,11,,,,65,0
164141,note_on,0,0,7,,,,,,,,,11,,,,74,0
164145,note_on,39,0,8,,,,,,,,,12,,,,67,0
164158,note_on,115,0,1,,,,,,,,,0,,,,67,0
164159,note_on,115,0,4,,,,,,,,,4,,,,65,0
164160,set_tempo,240,1,0,,,,,,263736,,,,,,,,
164160,note_on,115,0,2,,,,,,,,,1,,,,67,0
164160,note_on,60,0,6,,,,,,,,,10,,,,84,110
164161,note_on,115,0,5,,,,,,,,,5,,,,62,0
164162,note_on,21,0,7,,,,,,,,,11,,,,63,110
164162,note_on,0,0,7,,,,,,,,,11,,,,72,110
164163,note_on,5,0,1,,,,,,,,,0,,,,72,97
164164,note_on,5,0,4,,,,,,,,,4,,,,63,88
164165,note_on,5,0,2,,,,,,,,,1,,,,72,97
164166,note_on,21,0,8,,,,,,,,,12,,,,67,108
164166,note_on,5,0,5,,,,,,,,,5,,,,60,88
164170,note_on,60,0,9,,,,,,,,,13,,,,60,99
164171,note_on,60,0,3,,,,,,,,,3,,,,60,97
164172,note_on,60,0,10,,,,,,,,,14,,,,48,93
164201,note_on,0,0,7,,,,,,,,,11,,,,63,0
164201,note_on,39,0,7,,,,,,,,,11,,,,72,0
164205,note_on,39,0,8,,,,,,,,,12,,,,67,0
164222,note_on,21,0,7,,,,,,,,,11,,,,63,101
164222,note_on,0,0,7,,,,,,,,,11,,,,72,101
164226,note_on,21,0,8,,,,,,,,,12,,,,67,99
164261,note_on,39,0,7,,,,,,,,,11,,,,72,0
164261,note_on,0,0,7,,,,,,,,,11,,,,63,0
164265,note_on,39,0,8,,,,,,,,,12,,,,67,0
164282,note_on,21,0,7,,,,,,,,,11,,,,72,110
164282,note_on,0,0,7,,,,,,,,,11,,,,63,110
164286,note_on,21,0,8,,,,,,,,,12,,,,67,108
164321,note_on,0,0,7,,,,,,,,,11,,,,72,0
164321,note_on,39,0,7,,,,,,,,,11,,,,63,0
164325,note_on,39,0,8,,,,,,,,,12,,,,67,0
164338,note_on,175,0,1,,,,,,,,,0,,,,72,0
164340,note_on,175,0,2,,,,,,,,,1,,,,72,0
164342,note_on,0,0,7,,,,,,,,,11,,,,63,101
164342,note_on,21,0,7,,,,,,,,,11,,,,72,101
164343,note_on,5,0,1,,,,,,,,,0,,,,75,97
164345,note_on,5,0,2,,,,,,,,,1,,,,75,97
164346,note_on,21,0,8,,,,,,,,,12,,,,67,99
164381,note_on,0,0,7,,,,,,,,,11,,,,72,0
164381,note_on,39,0,7,,,,,,,,,11,,,,63,0
164385,note_on,39,0,8,,,,,,,,,12,,,,67,0
164398,note_on,55,0,1,,,,,,,,,0,,,,75,0
164400,note_on,240,0,6,,,,,,,,,10,,,,84,0
164400,note_on,55,0,2,,,,,,,,,1,,,,75,0
164400,set_tempo,240,1,0,,,,,,254777,,,,,,,,
164402,note_on,21,0,7,,,,,,,,,11,,,,63,110
164402,note_on,0,0,7,,,,,,,,,11,,,,72,110
164403,note_on,5,0,1,,,,,,,,,0,,,,79,97
164404,note_on,240,0,4,,,,,,,,,4,,,,63,0
164405,note_on,5,0,2,,,,,,,,,1,,,,79,97
164406,note_on,21,0,8,,,,,,,,,12,,,,67,108
164406,note_on,240,0,5,,,,,,,,,5,,,,60,0
164410,note_on,240,0,9,,,,,,,,,13,,,,60,0
164411,note_on,240,0,3,,,,,,,,,3,,,,60,0
164412,note_on,240,0,10,,,,,,,,,14,,,,48,0
164441,note_on,39,0,7,,,,,,,,,11,,,,72,0
164441,note_on,0,0,7,,,,,,,,,11,,,,63,0
164445,note_on,39,0,8,,,,,,,,,12,,,,67,0
164462,note_on,0,0,7,,,,,,,,,11,,,,72,101
164462,note_on,21,0,7,,,,,,,,,11,,,,63,101
164463,note_on,60,0,1,,,,,,,,,0,,,,79,0
164465,note_on,60,0,2,,,,,,,,,1,,,,79,0
164466,note_on,21,0,8,,,,,,,,,12,,,,67,99
164501,note_on,0,0,7,,,,,,,,,11,,,,63,0
164501,note_on,39,0,7,,,,,,,,,11,,,,72,0
164505,note_on,39,0,8,,,,,,,,,12,,,,67,0
164522,note_on,0,0,7,,,,,,,,,11,,,,72,110
164522,note_on,21,0,7,,,,,,,,,11,,,,63,110
164523,note_on,60,0,1,,,,,,,,,0,,,,83,97
164525,note_on,60,0,2,,,,,,,,,1,,,,71,97
164526,note_on,21,0,8,,,,,,,,,12,,,,67,108
164561,note_on,39,0,7,,,,,,,,,11,,,,72,0
164561,note_on,0,0,7,,,,,,,,,11,,,,63,0
164565,note_on,39,0,8,,,,,,,,,12,,,,67,0
164582,note_on,21,0,7,,,,,,,,,11,,,,63,101
164582,note_on,0,0,7,,,,,,,,,11,,,,72,101
164583,note_on,60,0,1,,,,,,,,,0,,,,83,0
164585,note_on,60,0,2,,,,,,,,,1,,,,71,0
164586,note_on,21,0,8,,,,,,,,,12,,,,67,99
164621,note_on,39,0,7,,,,,,,,,11,,,,72,0
164621,note_on,0,0,7,,,,,,,,,11,,,,63,0
164625,note_on,39,0,8,,,,,,,,,12,,,,67,0
164640,set_tempo,240,1,0,,,,,,263736,,,,,,,,
164642,note_on,21,0,7,,,,,,,,,11,,,,63,110
164642,note_on,0,0,7,,,,,,,,,11,,,,72,110
164643,note_on,60,0,1,,,,,,,,,0,,,,84,97
164645,note_on,60,0,2,,,,,,,,,1,,,,72,97
164646,note_on,21,0,8,,,,,,,,,12,,,,67,108
164681,note_on,39,0,7,,,,,,,,,11,,,,72,0
164681,note_on,0,0,7,,,,,,,,,11,,,,63,0
164685,note_on,39,0,8,,,,,,,,,12,,,,67,0
164702,note_on,21,0,7,,,,,,,,,11,,,,72,101
164702,note_on,0,0,7,,,,,,,,,11,,,,63,101
164703,note_on,60,0,1,,,,,,,,,0,,,,84,0
164705,note_on,60,0,2,,,,,,,,,1,,,,72,0
164706,note_on,21,0,8,,,,,,,,,12,,,,67,99
164741,note_on,0,0,7,,,,,,,,,11,,,,72,0
164741,note_on,39,0,7,,,,,,,,,11,,,,63,0
164745,note_on,39,0,8,,,,,,,,,12,,,,67,0
164762,note_on,21,0,7,,,,,,,,,11,,,,63,110
164762,note_on,0,0,7,,,,,,,,,11,,,,72,110
164763,note_on,60,0,1,,,,,,,,,0,,,,86,97
164765,note_on,60,0,2,,,,,,,,,1,,,,74,97
164766,note_on,21,0,8,,,,,,,,,12,,,,67,108
164801,note_on,0,0,7,,,,,,,,,11,,,,63,0
164801,note_on,39,0,7,,,,,,,,,11,,,,72,0
164805,note_on,39,0,8,,,,,,,,,12,,,,67,0
164822,note_on,21,0,7,,,,,,,,,11,,,,72,101
164822,note_on,0,0,7,,,,,,,,,11,,,,63,101
164823,note_on,60,0,1,,,,,,,,,0,,,,86,0
164825,note_on,60,0,2,,,,,,,,,1,,,,74,0
164826,note_on,21,0,8,,,,,,,,,12,,,,67,99
164861,note_on,39,0,7,,,,,,,,,11,,,,63,0
164861,note_on,0,0,7,,,,,,,,,11,,,,72,0
164865,note_on,39,0,8,,,,,,,,,12,,,,67,0
164880,set_tempo,240,1,0,,,,,,254777,,,,,,,,
164882,note_on,0,0,7,,,,,,,,,11,,,,63,110
164882,note_on,21,0,7,,,,,,,,,11,,,,72,110
164883,note_on,60,0,1,,,,,,,,,0,,,,87,97
164885,note_on,60,0,2,,,,,,,,,1,,,,75,97
164886,note_on,21,0,8,,,,,,,,,12,,,,67,108
164921,note_on,39,0,7,,,,,,,,,11,,,,63,0
164921,note_on,0,0,7,,,,,,,,,11,,,,72,0
164925,note_on,39,0,8,,,,,,,,,12,,,,67,0
164942,note_on,21,0,7,,,,,,,,,11,,,,72,101
164942,note_on,0,0,7,,,,,,,,,11,,,,63,101
164943,note_on,60,0,1,,,,,,,,,0,,,,87,0
164945,note_on,60,0,2,,,,,,,,,1,,,,75,0
164946,note_on,21,0,8,,,,,,,,,12,,,,67,99
164981,note_on,0,0,7,,,,,,,,,11,,,,72,0
164981,note_on,39,0,7,,,,,,,,,11,,,,63,0
164985,note_on,39,0,8,,,,,,,,,12,,,,67,0
165000,note_on,600,0,6,,,,,,,,,10,,,,66,110
165002,note_on,21,0,7,,,,,,,,,11,,,,72,110
165002,note_on,0,0,7,,,,,,,,,11,,,,63,110
165003,note_on,60,0,1,,,,,,,,,0,,,,84,97
165004,note_on,600,0,4,,,,,,,,,4,,,,63,88
165005,note_on,60,0,2,,,,,,,,,1,,,,75,97
165005,note_on,0,0,2,,,,,,,,,1,,,,72,97
165006,note_on,21,0,8,,,,,,,,,12,,,,70,108
165006,note_on,600,0,5,,,,,,,,,5,,,,60,88
165010,note_on,600,0,9,,,,,,,,,13,,,,54,99
165011,note_on,600,0,3,,,,,,,,,3,,,,54,97
165012,note_on,600,0,10,,,,,,,,,14,,,,42,93
165041,note_on,0,0,7,,,,,,,,,11,,,,72,0
165041,note_on,39,0,7,,,,,,,,,11,,,,63,0
165045,note_on,39,0,8,,,,,,,,,12,,,,70,0
165062,note_on,0,0,7,,,,,,,,,11,,,,72,101
165062,note_on,21,0,7,,,,,,,,,11,,,,63,101
165063,note_on,60,0,1,,,,,,,,,0,,,,84,0
165065,note_on,0,0,2,,,,,,,,,1,,,,75,0
165065,note_on,60,0,2,,,,,,,,,1,,,,72,0
165066,note_on,21,0,8,,,,,,,,,12,,,,70,99
165101,note_on,39,0,7,,,,,,,,,11,,,,72,0
165101,note_on,0,0,7,,,,,,,,,11,,,,63,0
165105,note_on,39,0,8,,,,,,,,,12,,,,70,0
165115,note_on,115,0,6,,,,,,,,,10,,,,66,0
165119,note_on,115,0,4,,,,,,,,,4,,,,63,0
165120,note_on,5,0,6,,,,,,,,,10,,,,65,110
165120,set_tempo,240,1,0,,,,,,263736,,,,,,,,
165121,note_on,115,0,5,,,,,,,,,5,,,,60,0
165122,note_on,21,0,7,,,,,,,,,11,,,,63,110
165122,note_on,0,0,7,,,,,,,,,11,,,,72,110
165123,note_on,60,0,1,,,,,,,,,0,,,,81,97
165124,note_on,5,0,4,,,,,,,,,4,,,,63,88
165125,note_on,115,0,9,,,,,,,,,13,,,,54,0
165125,note_on,0,0,2,,,,,,,,,1,,,,72,97
165125,note_on,60,0,2,,,,,,,,,1,,,,75,97
165126,note_on,21,0,8,,,,,,,,,12,,,,69,108
165126,note_on,115,0,3,,,,,,,,,3,,,,54,0
165126,note_on,5,0,5,,,,,,,,,5,,,,60,88
165127,note_on,115,0,10,,,,,,,,,14,,,,42,0
165130,note_on,5,0,9,,,,,,,,,13,,,,53,99
165131,note_on,5,0,3,,,,,,,,,3,,,,53,97
165132,note_on,5,0,10,,,,,,,,,14,,,,41,93
165295,note_on,175,0,6,,,,,,,,,10,,,,65,0
165300,note_on,5,0,6,,,,,,,,,10,,,,60,110
165305,note_on,175,0,9,,,,,,,,,13,,,,53,0
165306,note_on,175,0,3,,,,,,,,,3,,,,53,0
165307,note_on,175,0,10,,,,,,,,,14,,,,41,0
165310,note_on,5,0,9,,,,,,,,,13,,,,48,99
165311,note_on,5,0,3,,,,,,,,,3,,,,48,97
165312,note_on,5,0,10,,,,,,,,,14,,,,36,93
165339,note_on,39,0,6,,,,,,,,,10,,,,60,0
165349,note_on,39,0,9,,,,,,,,,13,,,,48,0
165351,note_on,39,0,10,,,,,,,,,14,,,,36,0
165360,note_on,21,0,6,,,,,,,,,10,,,,57,110
165360,set_tempo,240,1,0,,,,,,254777,,,,,,,,
165362,note_on,240,0,7,,,,,,,,,11,,,,72,0
165362,note_on,0,0,7,,,,,,,,,11,,,,63,0
165363,control_change,0,0,1,,,,,,,,,0,11,86,,,
165363,note_on,0,0,1,,,,,,,,,0,,,,84,110
165363,note_on,240,0,1,,,,,,,,,0,,,,81,0
165364,note_on,240,0,4,,,,,,,,,4,,,,63,0
165365,note_on,240,0,2,,,,,,,,,1,,,,72,0
165365,note_on,0,0,2,,,,,,,,,1,,,,72,110
165365,control_change,0,0,2,,,,,,,,,1,11,86,,,
165365,note_on,0,0,2,,,,,,,,,1,,,,75,0
165366,note_on,240,0,5,,,,,,,,,5,,,,60,0
165366,note_on,240,0,8,,,,,,,,,12,,,,69,0
165366,note_on,55,0,3,,,,,,,,,3,,,,48,0
165370,note_on,21,0,9,,,,,,,,,13,,,,45,99
165371,note_on,5,0,3,,,,,,,,,3,,,,45,97
165372,note_on,21,0,10,,,,,,,,,14,,,,33,93
165381,control_change,18,0,1,,,,,,,,,0,11,82,,,
165383,control_change,18,0,2,,,,,,,,,1,11,82,,,
165399,control_change,18,0,1,,,,,,,,,0,11,77,,,
165401,control_change,18,0,2,,,,,,,,,1,11,77,,,
165417,control_change,18,0,1,,,,,,,,,0,11,73,,,
165419,control_change,18,0,2,,,,,,,,,1,11,73,,,
165435,control_change,18,0,1,,,,,,,,,0,11,69,,,
165437,control_change,18,0,2,,,,,,,,,1,11,69,,,
165453,control_change,18,0,1,,,,,,,,,0,11,65,,,
165455,control_change,18,0,2,,,,,,,,,1,11,65,,,
165471,control_change,18,0,1,,,,,,,,,0,11,61,,,
165473,control_change,18,0,2,,,,,,,,,1,11,61,,,
165475,note_on,115,0,6,,,,,,,,,10,,,,57,0
165480,control_change,9,0,1,,,,,,,,,0,11,58,,,
165480,note_on,0,0,6,,,,,,,,,10,,,,70,110
165480,note_on,5,0,6,,,,,,,,,10,,,,76,110
165482,control_change,9,0,2,,,,,,,,,1,11,58,,,
165482,note_on,0,0,7,,,,,,,,,11,,,,70,110
165482,note_on,120,0,7,,,,,,,,,11,,,,76,110
165484,note_on,120,0,4,,,,,,,,,4,,,,60,96
165485,note_on,115,0,9,,,,,,,,,13,,,,45,0
165486,note_on,120,0,8,,,,,,,,,12,,,,54,108
165486,note_on,115,0,3,,,,,,,,,3,,,,45,0
165486,note_on,120,0,5,,,,,,,,,5,,,,60,96
165487,note_on,115,0,10,,,,,,,,,14,,,,33,0
165490,note_on,5,0,9,,,,,,,,,13,,,,54,99
165491,note_on,5,0,3,,,,,,,,,3,,,,54,97
165492,note_on,5,0,10,,,,,,,,,14,,,,42,93
165544,note_on,0,0,6,,,,,,,,,10,,,,76,0
165544,note_on,64,0,6,,,,,,,,,10,,,,70,0
165546,note_on,64,0,7,,,,,,,,,11,,,,70,0
165546,note_on,0,0,7,,,,,,,,,11,,,,76,0
165550,note_on,64,0,8,,,,,,,,,12,,,,54,0
165554,note_on,64,0,9,,,,,,,,,13,,,,54,0
165556,note_on,64,0,10,,,,,,,,,14,,,,42,0
165584,note_on,100,0,4,,,,,,,,,4,,,,60,0
165586,note_on,95,0,3,,,,,,,,,3,,,,54,0
165586,note_on,100,0,5,,,,,,,,,5,,,,60,0
165600,note_on,0,0,6,,,,,,,,,10,,,,77,110
165600,note_on,56,0,6,,,,,,,,,10,,,,69,110
165600,set_tempo,240,1,0,,,,,,263736,,,,,,,,
165602,note_on,56,0,7,,,,,,,,,11,,,,77,110
165602,note_on,0,0,7,,,,,,,,,11,,,,69,110
165604,note_on,20,0,4,,,,,,,,,4,,,,60,96
165606,note_on,56,0,8,,,,,,,,,12,,,,53,108
165606,note_on,20,0,5,,,,,,,,,5,,,,60,96
165610,note_on,56,0,9,,,,,,,,,13,,,,53,99
165611,note_on,25,0,3,,,,,,,,,3,,,,53,97
165612,note_on,56,0,10,,,,,,,,,14,,,,41,93
165664,note_on,64,0,6,,,,,,,,,10,,,,77,0
165664,note_on,0,0,6,,,,,,,,,10,,,,69,0
165666,note_on,0,0,7,,,,,,,,,11,,,,77,0
165666,note_on,64,0,7,,,,,,,,,11,,,,69,0
165670,note_on,64,0,8,,,,,,,,,12,,,,53,0
165674,note_on,64,0,9,,,,,,,,,13,,,,53,0
165676,note_on,64,0,10,,,,,,,,,14,,,,41,0
165704,note_on,100,0,4,,,,,,,,,4,,,,60,0
165706,note_on,95,0,3,,,,,,,,,3,,,,53,0
165706,note_on,100,0,5,,,,,,,,,5,,,,60,0
165720,note_on,0,0,6,,,,,,,,,10,,,,70,110
165720,note_on,56,0,6,,,,,,,,,10,,,,76,110
165722,note_on,0,0,7,,,,,,,,,11,,,,70,110
165722,note_on,56,0,7,,,,,,,,,11,,,,76,110
165724,note_on,20,0,4,,,,,,,,,4,,,,60,96
165726,note_on,20,0,5,,,,,,,,,5,,,,60,96
165726,note_on,56,0,8,,,,,,,,,12,,,,54,108
165730,note_on,56,0,9,,,,,,,,,13,,,,54,99
165731,note_on,25,0,3,,,,,,,,,3,,,,54,97
165732,note_on,56,0,10,,,,,,,,,14,,,,42,93
165784,note_on,0,0,6,,,,,,,,,10,,,,76,0
165784,note_on,64,0,6,,,,,,,,,10,,,,70,0
165786,note_on,0,0,7,,,,,,,,,11,,,,76,0
165786,note_on,64,0,7,,,,,,,,,11,,,,70,0
165790,note_on,64,0,8,,,,,,,,,12,,,,54,0
165794,note_on,64,0,9,,,,,,,,,13,,,,54,0
165796,note_on,64,0,10,,,,,,,,,14,,,,42,0
165824,note_on,100,0,4,,,,,,,,,4,,,,60,0
165826,note_on,95,0,3,,,,,,,,,3,,,,54,0
165826,note_on,100,0,5,,,,,,,,,5,,,,60,0
165840,set_tempo,240,1,0,,,,,,254777,,,,,,,,
165840,note_on,56,0,6,,,,,,,,,10,,,,69,110
165840,note_on,0,0,6,,,,,,,,,10,,,,77,110
165842,note_on,0,0,7,,,,,,,,,11,,,,69,110
165842,note_on,56,0,7,,,,,,,,,11,,,,77,110
165844,note_on,20,0,4,,,,,,,,,4,,,,60,96
165846,note_on,56,0,8,,,,,,,,,12,,,,53,108
165846,note_on,20,0,5,,,,,,,,,5,,,,60,96
165850,note_on,56,0,9,,,,,,,,,13,,,,53,99
165851,note_on,25,0,3,,,,,,,,,3,,,,53,97
165852,note_on,56,0,10,,,,,,,,,14,,,,41,93
165904,note_on,64,0,6,,,,,,,,,10,,,,77,0
165904,note_on,0,0,6,,,,,,,,,10,,,,69,0
165906,note_on,64,0,7,,,,,,,,,11,,,,69,0
165906,note_on,0,0,7,,,,,,,,,11,,,,77,0
165910,note_on,64,0,8,,,,,,,,,12,,,,53,0
165914,note_on,64,0,9,,,,,,,,,13,,,,53,0
165916,note_on,64,0,10,,,,,,,,,14,,,,41,0
165944,note_on,100,0,4,,,,,,,,,4,,,,60,0
165946,note_on,95,0,3,,,,,,,,,3,,,,53,0
165946,note_on,100,0,5,,,,,,,,,5,,,,60,0
165960,note_on,56,0,6,,,,,,,,,10,,,,70,110
165960,note_on,0,0,6,,,,,,,,,10,,,,76,110
165962,note_on,56,0,7,,,,,,,,,11,,,,76,110
165962,note_on,0,0,7,,,,,,,,,11,,,,70,110
165964,note_on,20,0,4,,,,,,,,,4,,,,60,96
165966,note_on,56,0,8,,,,,,,,,12,,,,54,108
165966,note_on,20,0,5,,,,,,,,,5,,,,60,96
165970,note_on,56,0,9,,,,,,,,,13,,,,54,99
165971,note_on,25,0,3,,,,,,,,,3,,,,54,97
165972,note_on,56,0,10,,,,,,,,,14,,,,42,93
166024,note_on,0,0,6,,,,,,,,,10,,,,70,0
166024,note_on,64,0,6,,,,,,,,,10,,,,76,0
166026,note_on,0,0,7,,,,,,,,,11,,,,76,0
166026,note_on,64,0,7,,,,,,,,,11,,,,70,0
166030,note_on,64,0,8,,,,,,,,,12,,,,54,0
166034,note_on,64,0,9,,,,,,,,,13,,,,54,0
166036,note_on,64,0,10,,,,,,,,,14,,,,42,0
166064,note_on,100,0,4,,,,,,,,,4,,,,60,0
166066,note_on,100,0,5,,,,,,,,,5,,,,60,0
166066,note_on,95,0,3,,,,,,,,,3,,,,54,0
166080,set_tempo,240,1,0,,,,,,268456,,,,,,,,
166080,note_on,0,0,6,,,,,,,,,10,,,,77,110
166080,note_on,56,0,6,,,,,,,,,10,,,,69,110
166082,note_on,56,0,7,,,,,,,,,11,,,,77,110
166082,note_on,0,0,7,,,,,,,,,11,,,,69,110
166084,note_on,20,0,4,,,,,,,,,4,,,,60,96
166086,note_on,20,0,5,,,,,,,,,5,,,,60,96
166086,note_on,56,0,8,,,,,,,,,12,,,,53,108
166090,note_on,56,0,9,,,,,,,,,13,,,,53,99
166091,note_on,25,0,3,,,,,,,,,3,,,,53,97
166092,note_on,56,0,10,,,,,,,,,14,,,,41,93
166159,note_on,79,0,6,,,,,,,,,10,,,,77,0
166159,note_on,0,0,6,,,,,,,,,10,,,,69,0
166161,note_on,0,0,7,,,,,,,,,11,,,,77,0
166161,note_on,79,0,7,,,,,,,,,11,,,,69,0
166165,note_on,79,0,8,,,,,,,,,12,,,,53,0
166169,note_on,79,0,9,,,,,,,,,13,,,,53,0
166171,note_on,79,0,10,,,,,,,,,14,,,,41,0
166199,note_on,115,0,4,,,,,,,,,4,,,,60,0
166200,note_on,41,0,6,,,,,,,,,10,,,,65,110
166201,note_on,115,0,5,,,,,,,,,5,,,,60,0
166201,note_on,110,0,3,,,,,,,,,3,,,,53,0
166202,note_on,41,0,7,,,,,,,,,11,,,,65,110
166203,control_change,0,0,1,,,,,,,,,0,11,79,,,
166203,note_on,723,0,1,,,,,,,,,0,,,,84,0
166203,note_on,0,0,1,,,,,,,,,0,,,,89,97
166203,note_on,0,0,1,,,,,,,,,0,,,,77,97
166204,note_on,5,0,4,,,,,,,,,4,,,,53,96
166205,control_change,0,0,2,,,,,,,,,1,11,79,,,
166205,note_on,0,0,2,,,,,,,,,1,,,,65,97
166205,note_on,723,0,2,,,,,,,,,1,,,,72,0
166206,note_on,41,0,8,,,,,,,,,12,,,,53,108
166206,note_on,5,0,5,,,,,,,,,5,,,,53,96
166210,note_on,41,0,9,,,,,,,,,13,,,,41,99
166211,note_on,10,0,3,,,,,,,,,3,,,,41,97
166212,note_on,41,0,10,,,,,,,,,14,,,,29,93
166225,note_on,25,0,6,,,,,,,,,10,,,,65,0
166227,note_on,25,0,7,,,,,,,,,11,,,,65,0
166231,note_on,25,0,8,,,,,,,,,12,,,,53,0
166235,note_on,25,0,9,,,,,,,,,13,,,,41,0
166237,note_on,25,0,10,,,,,,,,,14,,,,29,0
166243,note_on,40,0,1,,,,,,,,,0,,,,89,0
166243,note_on,0,0,1,,,,,,,,,0,,,,77,0
166245,note_on,40,0,2,,,,,,,,,1,,,,65,0
166249,note_on,45,0,4,,,,,,,,,4,,,,53,0
166251,note_on,45,0,5,,,,,,,,,5,,,,53,0
166251,note_on,40,0,3,,,,,,,,,3,,,,41,0
166260,note_on,35,0,6,,,,,,,,,10,,,,65,110
166262,note_on,35,0,7,,,,,,,,,11,,,,65,110
166263,note_on,20,0,1,,,,,,,,,0,,,,77,97
166263,note_on,0,0,1,,,,,,,,,0,,,,89,97
166264,note_on,15,0,4,,,,,,,,,4,,,,53,96
166265,note_on,20,0,2,,,,,,,,,1,,,,65,97
166266,note_on,35,0,8,,,,,,,,,12,,,,53,108
166266,note_on,15,0,5,,,,,,,,,5,,,,53,96
166270,note_on,35,0,9,,,,,,,,,13,,,,41,99
166271,note_on,20,0,3,,,,,,,,,3,,,,41,97
166272,note_on,35,0,10,,,,,,,,,14,,,,29,93
166285,note_on,25,0,6,,,,,,,,,10,,,,65,0
166287,note_on,25,0,7,,,,,,,,,11,,,,65,0
166291,note_on,25,0,8,,,,,,,,,12,,,,53,0
166295,note_on,25,0,9,,,,,,,,,13,,,,41,0
166297,note_on,25,0,10,,,,,,,,,14,,,,29,0
166303,note_on,40,0,1,,,,,,,,,0,,,,89,0
166303,note_on,0,0,1,,,,,,,,,0,,,,77,0
166305,note_on,40,0,2,,,,,,,,,1,,,,65,0
166309,note_on,45,0,4,,,,,,,,,4,,,,53,0
166311,note_on,40,0,3,,,,,,,,,3,,,,41,0
166311,note_on,45,0,5,,,,,,,,,5,,,,53,0
166320,set_tempo,240,1,0,,,,,,259740,,,,,,,,
166320,note_on,35,0,6,,,,,,,,,10,,,,65,110
166322,note_on,35,0,7,,,,,,,,,11,,,,65,110
166323,note_on,20,0,1,,,,,,,,,0,,,,77,97
166323,note_on,0,0,1,,,,,,,,,0,,,,89,97
166324,note_on,15,0,4,,,,,,,,,4,,,,53,96
166325,note_on,20,0,2,,,,,,,,,1,,,,65,97
166326,note_on,15,0,5,,,,,,,,,5,,,,53,96
166326,note_on,35,0,8,,,,,,,,,12,,,,53,108
166330,note_on,35,0,9,,,,,,,,,13,,,,41,99
166331,note_on,20,0,3,,,,,,,,,3,,,,41,97
166332,note_on,35,0,10,,,,,,,,,14,,,,29,93
166404,note_on,72,0,10,,,,,,,,,14,,,,29,0
166405,note_on,85,0,6,,,,,,,,,10,,,,65,0
166407,note_on,85,0,7,,,,,,,,,11,,,,65,0
166408,note_on,0,0,1,,,,,,,,,0,,,,77,0
166408,note_on,85,0,1,,,,,,,,,0,,,,89,0
166410,note_on,85,0,2,,,,,,,,,1,,,,65,0
166411,note_on,85,0,8,,,,,,,,,12,,,,53,0
166413,note_on,89,0,4,,,,,,,,,4,,,,53,0
166415,note_on,85,0,9,,,,,,,,,13,,,,41,0
166415,note_on,89,0,5,,,,,,,,,5,,,,53,0
166416,note_on,85,0,3,,,,,,,,,3,,,,41,0
166440,note_on,35,0,6,,,,,,,,,10,,,,65,110
166442,note_on,35,0,7,,,,,,,,,11,,,,65,110
166443,note_on,0,0,1,,,,,,,,,0,,,,77,97
166443,note_on,35,0,1,,,,,,,,,0,,,,89,97
166444,note_on,31,0,4,,,,,,,,,4,,,,53,96
166445,note_on,35,0,2,,,,,,,,,1,,,,65,97
166446,note_on,31,0,5,,,,,,,,,5,,,,53,96
166446,note_on,35,0,8,,,,,,,,,12,,,,53,108
166450,note_on,35,0,9,,,,,,,,,13,,,,41,99
166451,note_on,35,0,3,,,,,,,,,3,,,,41,97
166452,note_on,48,0,10,,,,,,,,,14,,,,29,93
166524,note_on,72,0,10,,,,,,,,,14,,,,29,0
166525,note_on,85,0,6,,,,,,,,,10,,,,65,0
166527,note_on,85,0,7,,,,,,,,,11,,,,65,0
166528,note_on,0,0,1,,,,,,,,,0,,,,89,0
166528,note_on,85,0,1,,,,,,,,,0,,,,77,0
166530,note_on,85,0,2,,,,,,,,,1,,,,65,0
166531,note_on,85,0,8,,,,,,,,,12,,,,53,0
166533,note_on,89,0,4,,,,,,,,,4,,,,53,0
166535,note_on,85,0,9,,,,,,,,,13,,,,41,0
166535,note_on,89,0,5,,,,,,,,,5,,,,53,0
166536,note_on,85,0,3,,,,,,,,,3,,,,41,0
166560,set_tempo,240,1,0,,,,,,267261,,,,,,,,
166560,note_on,35,0,6,,,,,,,,,10,,,,65,88
166562,note_on,35,0,7,,,,,,,,,11,,,,65,88
166563,note_on,35,0,1,,,,,,,,,0,,,,89,77
166563,note_on,0,0,1,,,,,,,,,0,,,,77,77
166564,note_on,31,0,4,,,,,,,,,4,,,,53,75
166565,note_on,35,0,2,,,,,,,,,1,,,,65,77
166566,note_on,31,0,5,,,,,,,,,5,,,,53,75
166566,note_on,35,0,8,,,,,,,,,12,,,,53,86
166570,note_on,35,0,9,,,,,,,,,13,,,,41,77
166571,note_on,35,0,3,,,,,,,,,3,,,,41,77
166572,note_on,48,0,10,,,,,,,,,14,,,,29,71
166684,note_on,120,0,4,,,,,,,,,4,,,,53,0
166686,note_on,120,0,5,,,,,,,,,5,,,,53,0
166710,control_change,150,0,6,,,,,,,,,10,11,79,,,
166712,control_change,150,0,7,,,,,,,,,11,11,79,,,
166716,control_change,150,0,8,,,,,,,,,12,11,79,,,
166720,control_change,150,0,9,,,,,,,,,13,11,79,,,
166722,control_change,150,0,10,,,,,,,,,14,11,79,,,
166727,control_change,17,0,6,,,,,,,,,10,11,75,,,
166729,control_change,17,0,7,,,,,,,,,11,11,75,,,
166733,control_change,17,0,8,,,,,,,,,12,11,75,,,
166737,control_change,17,0,9,,,,,,,,,13,11,75,,,
166739,control_change,17,0,10,,,,,,,,,14,11,75,,,
166745,control_change,18,0,6,,,,,,,,,10,11,71,,,
166747,control_change,18,0,7,,,,,,,,,11,11,71,,,
166751,control_change,18,0,8,,,,,,,,,12,11,71,,,
166754,control_change,9,0,6,,,,,,,,,10,11,68,,,
166755,control_change,18,0,9,,,,,,,,,13,11,71,,,
166756,control_change,9,0,7,,,,,,,,,11,11,68,,,
166757,control_change,18,0,10,,,,,,,,,14,11,71,,,
166760,control_change,9,0,8,,,,,,,,,12,11,68,,,
166764,control_change,9,0,9,,,,,,,,,13,11,68,,,
166766,control_change,9,0,10,,,,,,,,,14,11,68,,,
166772,control_change,18,0,6,,,,,,,,,10,11,64,,,
166774,control_change,18,0,7,,,,,,,,,11,11,64,,,
166778,control_change,18,0,8,,,,,,,,,12,11,64,,,
166782,control_change,18,0,9,,,,,,,,,13,11,64,,,
166784,control_change,18,0,10,,,,,,,,,14,11,64,,,
166790,control_change,18,0,6,,,,,,,,,10,11,60,,,
166792,control_change,18,0,7,,,,,,,,,11,11,60,,,
166796,control_change,18,0,8,,,,,,,,,12,11,60,,,
166799,control_change,9,0,6,,,,,,,,,10,11,57,,,
166800,note_on,1,0,6,,,,,,,,,10,,,,65,0
166800,set_tempo,240,1,0,,,,,,272727,,,,,,,,
166800,control_change,18,0,9,,,,,,,,,13,11,60,,,
166801,control_change,9,0,7,,,,,,,,,11,11,57,,,
166802,control_change,18,0,10,,,,,,,,,14,11,60,,,
166802,note_on,1,0,7,,,,,,,,,11,,,,65,0
166803,note_on,0,0,1,,,,,,,,,0,,,,89,0
166803,note_on,240,0,1,,,,,,,,,0,,,,77,0
166805,note_on,240,0,2,,,,,,,,,1,,,,65,0
166805,control_change,9,0,8,,,,,,,,,12,11,57,,,
166806,note_on,1,0,8,,,,,,,,,12,,,,53,0
166809,control_change,9,0,9,,,,,,,,,13,11,57,,,
166810,note_on,1,0,9,,,,,,,,,13,,,,41,0
166811,control_change,9,0,10,,,,,,,,,14,11,57,,,
166811,note_on,240,0,3,,,,,,,,,3,,,,41,0
166812,note_on,1,0,10,,,,,,,,,14,,,,29,0
167040,control_change,240,0,6,,,,,,,,,10,11,27,,,
167040,note_on,0,0,6,,,,,,,,,10,,,,74,110
167040,set_tempo,240,1,0,,,,,,289157,,,,,,,,
167042,control_change,240,0,7,,,,,,,,,11,11,27,,,
167042,note_on,0,0,7,,,,,,,,,11,,,,62,88
167046,control_change,240,0,8,,,,,,,,,12,11,27,,,
167046,note_on,0,0,8,,,,,,,,,12,,,,50,108
167050,control_change,240,0,9,,,,,,,,,13,11,27,,,
167050,note_on,0,0,9,,,,,,,,,13,,,,46,99
167052,note_on,0,0,10,,,,,,,,,14,,,,34,93
167052,control_change,240,0,10,,,,,,,,,14,11,27,,,
167053,control_change,13,0,6,,,,,,,,,10,11,30,,,
167055,control_change,13,0,7,,,,,,,,,11,11,30,,,
167059,control_change,13,0,8,,,,,,,,,12,11,30,,,
167063,control_change,13,0,9,,,,,,,,,13,11,30,,,
167065,control_change,13,0,10,,,,,,,,,14,11,30,,,
167067,control_change,14,0,6,,,,,,,,,10,11,33,,,
167069,control_change,14,0,7,,,,,,,,,11,11,33,,,
167073,control_change,14,0,8,,,,,,,,,12,11,33,,,
167077,control_change,14,0,9,,,,,,,,,13,11,33,,,
167079,control_change,14,0,10,,,,,,,,,14,11,33,,,
167080,control_change,13,0,6,,,,,,,,,10,11,36,,,
167082,control_change,13,0,7,,,,,,,,,11,11,36,,,
167086,control_change,13,0,8,,,,,,,,,12,11,36,,,
167090,control_change,13,0,9,,,,,,,,,13,11,36,,,
167092,control_change,13,0,10,,,,,,,,,14,11,36,,,
167094,control_change,14,0,6,,,,,,,,,10,11,39,,,
167096,control_change,14,0,7,,,,,,,,,11,11,39,,,
167100,control_change,14,0,8,,,,,,,,,12,11,39,,,
167104,control_change,14,0,9,,,,,,,,,13,11,39,,,
167106,control_change,14,0,10,,,,,,,,,14,11,39,,,
167107,control_change,13,0,6,,,,,,,,,10,11,42,,,
167109,control_change,13,0,7,,,,,,,,,11,11,42,,,
167113,control_change,13,0,8,,,,,,,,,12,11,42,,,
167117,control_change,13,0,9,,,,,,,,,13,11,42,,,
167119,control_change,13,0,10,,,,,,,,,14,11,42,,,
167121,control_change,14,0,6,,,,,,,,,10,11,45,,,
167123,control_change,14,0,7,,,,,,,,,11,11,45,,,
167127,control_change,14,0,8,,,,,,,,,12,11,45,,,
167131,control_change,14,0,9,,,,,,,,,13,11,45,,,
167133,control_change,14,0,10,,,,,,,,,14,11,45,,,
167280,note_on,0,0,6,,,,,,,,,10,,,,72,110
167280,set_tempo,240,1,0,,,,,,281030,,,,,,,,
167280,note_on,159,0,6,,,,,,,,,10,,,,74,0
167282,note_on,0,0,7,,,,,,,,,11,,,,60,88
167282,note_on,159,0,7,,,,,,,,,11,,,,62,0
167286,note_on,0,0,8,,,,,,,,,12,,,,51,108
167286,note_on,159,0,8,,,,,,,,,12,,,,50,0
167290,note_on,0,0,9,,,,,,,,,13,,,,48,99
167290,note_on,159,0,9,,,,,,,,,13,,,,46,0
167292,note_on,159,0,10,,,,,,,,,14,,,,34,0
167292,note_on,0,0,10,,,,,,,,,14,,,,36,93
167460,note_on,0,0,6,,,,,,,,,10,,,,69,110
167460,note_on,180,0,6,,,,,,,,,10,,,,72,0
167462,note_on,0,0,7,,,,,,,,,11,,,,57,88
167462,note_on,180,0,7,,,,,,,,,11,,,,60,0
167499,note_on,39,0,6,,,,,,,,,10,,,,69,0
167501,note_on,39,0,7,,,,,,,,,11,,,,57,0
167520,note_on,21,0,6,,,,,,,,,10,,,,69,110
167520,set_tempo,240,1,0,,,,,,289157,,,,,,,,
167521,note_on,235,0,8,,,,,,,,,12,,,,51,0
167522,note_on,21,0,7,,,,,,,,,11,,,,57,88
167525,note_on,235,0,9,,,,,,,,,13,,,,48,0
167526,note_on,5,0,8,,,,,,,,,12,,,,53,108
167527,note_on,235,0,10,,,,,,,,,14,,,,36,0
167530,note_on,5,0,9,,,,,,,,,13,,,,50,99
167532,note_on,5,0,10,,,,,,,,,14,,,,38,93
167640,note_on,0,0,6,,,,,,,,,10,,,,70,110
167640,note_on,120,0,6,,,,,,,,,10,,,,69,0
167642,note_on,120,0,7,,,,,,,,,11,,,,57,0
167642,note_on,0,0,7,,,,,,,,,11,,,,58,88
167755,note_on,115,0,6,,,,,,,,,10,,,,70,0
167757,note_on,115,0,7,,,,,,,,,11,,,,58,0
167760,note_on,5,0,6,,,,,,,,,10,,,,65,97
167760,set_tempo,240,1,0,,,,,,281030,,,,,,,,
167762,note_on,5,0,7,,,,,,,,,11,,,,53,77
167766,note_on,240,0,8,,,,,,,,,12,,,,53,0
167770,note_on,240,0,9,,,,,,,,,13,,,,50,0
167772,note_on,240,0,10,,,,,,,,,14,,,,38,0
167995,note_on,235,0,6,,,,,,,,,10,,,,65,0
167997,note_on,235,0,7,,,,,,,,,11,,,,53,0
168000,control_change,5,0,6,,,,,,,,,10,11,32,,,
168000,note_on,0,0,6,,,,,,,,,10,,,,67,85
168000,set_tempo,240,1,0,,,,,,289157,,,,,,,,
168002,control_change,5,0,7,,,,,,,,,11,11,32,,,
168002,note_on,0,0,7,,,,,,,,,11,,,,55,68
168006,control_change,240,0,8,,,,,,,,,12,11,32,,,
168006,note_on,0,0,8,,,,,,,,,12,,,,55,83
168010,note_on,0,0,9,,,,,,,,,13,,,,51,62
168010,control_change,240,0,9,,,,,,,,,13,11,32,,,
168012,note_on,0,0,10,,,,,,,,,14,,,,39,56
168012,control_change,240,0,10,,,,,,,,,14,11,32,,,
168012,control_change,12,0,6,,,,,,,,,10,11,35,,,
168014,control_change,12,0,7,,,,,,,,,11,11,35,,,
168018,control_change,12,0,8,,,,,,,,,12,11,35,,,
168022,control_change,12,0,9,,,,,,,,,13,11,35,,,
168024,control_change,12,0,10,,,,,,,,,14,11,35,,,
168024,control_change,12,0,6,,,,,,,,,10,11,38,,,
168026,control_change,12,0,7,,,,,,,,,11,11,38,,,
168030,control_change,12,0,8,,,,,,,,,12,11,38,,,
168034,control_change,12,0,9,,,,,,,,,13,11,38,,,
168036,control_change,12,0,6,,,,,,,,,10,11,41,,,
168036,control_change,12,0,10,,,,,,,,,14,11,38,,,
168038,control_change,12,0,7,,,,,,,,,11,11,41,,,
168042,control_change,12,0,8,,,,,,,,,12,11,41,,,
168046,control_change,12,0,9,,,,,,,,,13,11,41,,,
168048,control_change,12,0,6,,,,,,,,,10,11,44,,,
168048,control_change,12,0,10,,,,,,,,,14,11,41,,,
168050,control_change,12,0,7,,,,,,,,,11,11,44,,,
168054,control_change,12,0,8,,,,,,,,,12,11,44,,,
168058,control_change,12,0,9,,,,,,,,,13,11,44,,,
168060,control_change,12,0,10,,,,,,,,,14,11,44,,,
168060,control_change,12,0,6,,,,,,,,,10,11,47,,,
168062,control_change,12,0,7,,,,,,,,,11,11,47,,,
168066,control_change,12,0,8,,,,,,,,,12,11,47,,,
168070,control_change,12,0,9,,,,,,,,,13,11,47,,,
168072,control_change,12,0,10,,,,,,,,,14,11,47,,,
168074,note_on,14,0,6,,,,,,,,,10,,,,67,0
168076,note_on,14,0,7,,,,,,,,,11,,,,55,0
168080,note_on,14,0,8,,,,,,,,,12,,,,55,0
168084,note_on,14,0,9,,,,,,,,,13,,,,51,0
168086,note_on,14,0,10,,,,,,,,,14,,,,39,0
168120,note_on,46,0,6,,,,,,,,,10,,,,67,91
168122,note_on,46,0,7,,,,,,,,,11,,,,55,72
168126,note_on,46,0,8,,,,,,,,,12,,,,55,89
168130,note_on,46,0,9,,,,,,,,,13,,,,51,67
168132,note_on,46,0,10,,,,,,,,,14,,,,39,61
168194,note_on,74,0,6,,,,,,,,,10,,,,67,0
168196,note_on,74,0,7,,,,,,,,,11,,,,55,0
168200,note_on,74,0,8,,,,,,,,,12,,,,55,0
168204,note_on,74,0,9,,,,,,,,,13,,,,51,0
168206,note_on,74,0,10,,,,,,,,,14,,,,39,0
168240,note_on,46,0,6,,,,,,,,,10,,,,71,97
168240,set_tempo,240,1,0,,,,,,281030,,,,,,,,
168242,note_on,46,0,7,,,,,,,,,11,,,,59,77
168246,note_on,46,0,8,,,,,,,,,12,,,,56,95
168250,note_on,46,0,9,,,,,,,,,13,,,,53,72
168252,note_on,46,0,10,,,,,,,,,14,,,,41,66
168314,note_on,74,0,6,,,,,,,,,10,,,,71,0
168316,note_on,74,0,7,,,,,,,,,11,,,,59,0
168320,note_on,74,0,8,,,,,,,,,12,,,,56,0
168324,note_on,74,0,9,,,,,,,,,13,,,,53,0
168326,note_on,74,0,10,,,,,,,,,14,,,,41,0
168360,note_on,46,0,6,,,,,,,,,10,,,,71,104
168362,note_on,46,0,7,,,,,,,,,11,,,,59,83
168366,note_on,46,0,8,,,,,,,,,12,,,,56,102
168370,note_on,46,0,9,,,,,,,,,13,,,,53,79
168372,note_on,46,0,10,,,,,,,,,14,,,,41,73
168434,note_on,74,0,6,,,,,,,,,10,,,,71,0
168436,note_on,74,0,7,,,,,,,,,11,,,,59,0
168440,note_on,74,0,8,,,,,,,,,12,,,,56,0
168444,note_on,74,0,9,,,,,,,,,13,,,,53,0
168446,note_on,74,0,10,,,,,,,,,14,,,,41,0
168480,set_tempo,240,1,0,,,,,,289157,,,,,,,,
168480,note_on,46,0,6,,,,,,,,,10,,,,74,105
168482,note_on,46,0,7,,,,,,,,,11,,,,62,84
168486,note_on,46,0,8,,,,,,,,,12,,,,55,103
168490,note_on,46,0,9,,,,,,,,,13,,,,51,80
168492,note_on,46,0,10,,,,,,,,,14,,,,39,74
168495,note_on,15,0,6,,,,,,,,,10,,,,74,0
168495,note_on,0,0,6,,,,,,,,,10,,,,72,105
168497,note_on,15,0,7,,,,,,,,,11,,,,62,0
168497,note_on,0,0,7,,,,,,,,,11,,,,60,84
168540,note_on,45,0,6,,,,,,,,,10,,,,72,0
168540,note_on,0,0,6,,,,,,,,,10,,,,71,106
168542,note_on,0,0,7,,,,,,,,,11,,,,59,84
168542,note_on,45,0,7,,,,,,,,,11,,,,60,0
168600,note_on,60,0,6,,,,,,,,,10,,,,71,0
168600,note_on,0,0,6,,,,,,,,,10,,,,72,107
168602,note_on,0,0,7,,,,,,,,,11,,,,60,85
168602,note_on,60,0,7,,,,,,,,,11,,,,59,0
168660,note_on,60,0,6,,,,,,,,,10,,,,72,0
168660,note_on,0,0,6,,,,,,,,,10,,,,74,108
168662,note_on,0,0,7,,,,,,,,,11,,,,62,86
168662,note_on,60,0,7,,,,,,,,,11,,,,60,0
168666,note_on,0,0,8,,,,,,,,,12,,,,53,106
168666,note_on,180,0,8,,,,,,,,,12,,,,55,0
168670,note_on,0,0,9,,,,,,,,,13,,,,50,83
168670,note_on,180,0,9,,,,,,,,,13,,,,51,0
168672,note_on,0,0,10,,,,,,,,,14,,,,38,77
168672,note_on,180,0,10,,,,,,,,,14,,,,39,0
168720,set_tempo,240,1,0,,,,,,281030,,,,,,,,
168720,note_on,0,0,6,,,,,,,,,10,,,,75,92
168720,note_on,60,0,6,,,,,,,,,10,,,,74,0
168722,note_on,0,0,7,,,,,,,,,11,,,,63,73
168722,note_on,60,0,7,,,,,,,,,11,,,,62,0
168726,note_on,0,0,8,,,,,,,,,12,,,,51,103
168726,note_on,60,0,8,,,,,,,,,12,,,,53,0
168730,note_on,0,0,9,,,,,,,,,13,,,,48,79
168730,note_on,60,0,9,,,,,,,,,13,,,,50,0
168732,note_on,60,0,10,,,,,,,,,14,,,,38,0
168732,note_on,0,0,10,,,,,,,,,14,,,,36,73
168840,note_on,120,0,6,,,,,,,,,10,,,,75,0
168842,note_on,120,0,7,,,,,,,,,11,,,,63,0
168846,note_on,120,0,8,,,,,,,,,12,,,,51,0
168850,note_on,120,0,9,,,,,,,,,13,,,,48,0
168852,note_on,120,0,10,,,,,,,,,14,,,,36,0
168960,control_change,120,0,6,,,,,,,,,10,11,32,,,
168960,note_on,0,0,6,,,,,,,,,10,,,,75,110
168960,set_tempo,240,1,0,,,,,,289157,,,,,,,,
168962,control_change,120,0,7,,,,,,,,,11,11,32,,,
168962,note_on,0,0,7,,,,,,,,,11,,,,63,88
168966,control_change,120,0,8,,,,,,,,,12,11,32,,,
168966,note_on,0,0,8,,,,,,,,,12,,,,51,108
168970,note_on,0,0,9,,,,,,,,,13,,,,48,99
168970,control_change,120,0,9,,,,,,,,,13,11,32,,,
168972,note_on,0,0,10,,,,,,,,,14,,,,36,93
168972,control_change,120,0,10,,,,,,,,,14,11,32,,,
168972,control_change,12,0,6,,,,,,,,,10,11,35,,,
168974,control_change,12,0,7,,,,,,,,,11,11,35,,,
168978,control_change,12,0,8,,,,,,,,,12,11,35,,,
168982,control_change,12,0,9,,,,,,,,,13,11,35,,,
168984,control_change,12,0,10,,,,,,,,,14,11,35,,,
168984,control_change,12,0,6,,,,,,,,,10,11,38,,,
168986,control_change,12,0,7,,,,,,,,,11,11,38,,,
168990,control_change,12,0,8,,,,,,,,,12,11,38,,,
168994,control_change,12,0,9,,,,,,,,,13,11,38,,,
168996,control_change,12,0,10,,,,,,,,,14,11,38,,,
168996,control_change,12,0,6,,,,,,,,,10,11,41,,,
168998,control_change,12,0,7,,,,,,,,,11,11,41,,,
169002,control_change,12,0,8,,,,,,,,,12,11,41,,,
169006,control_change,12,0,9,,,,,,,,,13,11,41,,,
169008,control_change,12,0,10,,,,,,,,,14,11,41,,,
169008,control_change,12,0,6,,,,,,,,,10,11,44,,,
169010,control_change,12,0,7,,,,,,,,,11,11,44,,,
169014,control_change,12,0,8,,,,,,,,,12,11,44,,,
169018,control_change,12,0,9,,,,,,,,,13,11,44,,,
169020,control_change,12,0,10,,,,,,,,,14,11,44,,,
169020,control_change,12,0,6,,,,,,,,,10,11,47,,,
169022,control_change,12,0,7,,,,,,,,,11,11,47,,,
169026,control_change,12,0,8,,,,,,,,,12,11,47,,,
169030,control_change,12,0,9,,,,,,,,,13,11,47,,,
169032,control_change,12,0,10,,,,,,,,,14,11,47,,,
169200,note_on,0,0,6,,,,,,,,,10,,,,74,110
169200,note_on,180,0,6,,,,,,,,,10,,,,75,0
169200,set_tempo,240,1,0,,,,,,281030,,,,,,,,
169202,note_on,180,0,7,,,,,,,,,11,,,,63,0
169202,note_on,0,0,7,,,,,,,,,11,,,,62,88
169206,note_on,180,0,8,,,,,,,,,12,,,,51,0
169206,note_on,0,0,8,,,,,,,,,12,,,,53,108
169210,note_on,180,0,9,,,,,,,,,13,,,,48,0
169210,note_on,0,0,9,,,,,,,,,13,,,,50,99
169212,note_on,180,0,10,,,,,,,,,14,,,,36,0
169212,note_on,0,0,10,,,,,,,,,14,,,,38,93
169380,note_on,0,0,6,,,,,,,,,10,,,,71,110
169380,note_on,180,0,6,,,,,,,,,10,,,,74,0
169382,note_on,180,0,7,,,,,,,,,11,,,,62,0
169382,note_on,0,0,7,,,,,,,,,11,,,,59,88
169419,note_on,39,0,6,,,,,,,,,10,,,,71,0
169421,note_on,39,0,7,,,,,,,,,11,,,,59,0
169440,note_on,21,0,6,,,,,,,,,10,,,,71,110
169440,set_tempo,240,1,0,,,,,,289157,,,,,,,,
169441,note_on,235,0,8,,,,,,,,,12,,,,53,0
169442,note_on,21,0,7,,,,,,,,,11,,,,59,88
169445,note_on,235,0,9,,,,,,,,,13,,,,50,0
169446,note_on,5,0,8,,,,,,,,,12,,,,55,108
169447,note_on,235,0,10,,,,,,,,,14,,,,38,0
169450,note_on,5,0,9,,,,,,,,,13,,,,51,99
169452,note_on,5,0,10,,,,,,,,,14,,,,39,93
169560,note_on,120,0,6,,,,,,,,,10,,,,71,0
169560,note_on,0,0,6,,,,,,,,,10,,,,72,110
169562,note_on,120,0,7,,,,,,,,,11,,,,59,0
169562,note_on,0,0,7,,,,,,,,,11,,,,60,88
169680,set_tempo,240,1,0,,,,,,281030,,,,,,,,
169680,note_on,120,0,6,,,,,,,,,10,,,,72,0
169680,note_on,0,0,6,,,,,,,,,10,,,,75,110
169682,note_on,120,0,7,,,,,,,,,11,,,,60,0
169682,note_on,0,0,7,,,,,,,,,11,,,,63,88
169686,note_on,240,0,8,,,,,,,,,12,,,,55,0
169690,note_on,240,0,9,,,,,,,,,13,,,,51,0
169692,note_on,240,0,10,,,,,,,,,14,,,,39,0
169800,note_on,0,0,6,,,,,,,,,10,,,,79,88
169800,note_on,120,0,6,,,,,,,,,10,,,,75,0
169802,note_on,0,0,7,,,,,,,,,11,,,,67,70
169802,note_on,120,0,7,,,,,,,,,11,,,,63,0
169915,note_on,115,0,6,,,,,,,,,10,,,,79,0
169917,note_on,115,0,7,,,,,,,,,11,,,,67,0
169920,note_on,5,0,6,,,,,,,,,10,,,,70,104
169920,set_tempo,240,1,0,,,,,,289157,,,,,,,,
169922,note_on,5,0,7,,,,,,,,,11,,,,58,83
169926,control_change,240,0,8,,,,,,,,,12,11,32,,,
169926,note_on,0,0,8,,,,,,,,,12,,,,50,102
169930,control_change,240,0,9,,,,,,,,,13,11,32,,,
169930,note_on,0,0,9,,,,,,,,,13,,,,53,79
169932,control_change,240,0,10,,,,,,,,,14,11,32,,,
169932,note_on,0,0,10,,,,,,,,,14,,,,41,73
169938,control_change,12,0,8,,,,,,,,,12,11,35,,,
169942,control_change,12,0,9,,,,,,,,,13,11,35,,,
169944,control_change,12,0,10,,,,,,,,,14,11,35,,,
169950,control_change,12,0,8,,,,,,,,,12,11,38,,,
169954,control_change,12,0,9,,,,,,,,,13,11,38,,,
169956,control_change,12,0,10,,,,,,,,,14,11,38,,,
169962,control_change,12,0,8,,,,,,,,,12,11,41,,,
169966,control_change,12,0,9,,,,,,,,,13,11,41,,,
169968,control_change,12,0,10,,,,,,,,,14,11,41,,,
169974,control_change,12,0,8,,,,,,,,,12,11,44,,,
169978,control_change,12,0,9,,,,,,,,,13,11,44,,,
169980,control_change,12,0,10,,,,,,,,,14,11,44,,,
169986,control_change,12,0,8,,,,,,,,,12,11,47,,,
169990,control_change,12,0,9,,,,,,,,,13,11,47,,,
169992,control_change,12,0,10,,,,,,,,,14,11,47,,,
170010,note_on,90,0,6,,,,,,,,,10,,,,70,0
170012,note_on,90,0,7,,,,,,,,,11,,,,58,0
170016,note_on,30,0,8,,,,,,,,,12,,,,50,0
170020,note_on,30,0,9,,,,,,,,,13,,,,53,0
170022,note_on,30,0,10,,,,,,,,,14,,,,41,0
170040,note_on,30,0,6,,,,,,,,,10,,,,70,105
170042,note_on,30,0,7,,,,,,,,,11,,,,58,84
170046,note_on,30,0,8,,,,,,,,,12,,,,50,103
170050,note_on,30,0,9,,,,,,,,,13,,,,53,80
170052,note_on,30,0,10,,,,,,,,,14,,,,41,74
170130,note_on,90,0,6,,,,,,,,,10,,,,70,0
170132,note_on,90,0,7,,,,,,,,,11,,,,58,0
170136,note_on,90,0,8,,,,,,,,,12,,,,50,0
170140,note_on,90,0,9,,,,,,,,,13,,,,53,0
170142,note_on,90,0,10,,,,,,,,,14,,,,41,0
170160,note_on,30,0,6,,,,,,,,,10,,,,74,106
170160,set_tempo,240,1,0,,,,,,281030,,,,,,,,
170162,note_on,30,0,7,,,,,,,,,11,,,,62,84
170166,note_on,30,0,8,,,,,,,,,12,,,,51,104
170170,note_on,30,0,9,,,,,,,,,13,,,,41,81
170172,note_on,30,0,10,,,,,,,,,14,,,,29,75
170175,note_on,0,0,6,,,,,,,,,10,,,,72,106
170175,note_on,15,0,6,,,,,,,,,10,,,,74,0
170177,note_on,0,0,7,,,,,,,,,11,,,,60,84
170177,note_on,15,0,7,,,,,,,,,11,,,,62,0
170220,note_on,0,0,6,,,,,,,,,10,,,,70,107
170220,note_on,45,0,6,,,,,,,,,10,,,,72,0
170222,note_on,0,0,7,,,,,,,,,11,,,,58,85
170222,note_on,45,0,7,,,,,,,,,11,,,,60,0
170256,note_on,90,0,8,,,,,,,,,12,,,,51,0
170260,note_on,90,0,9,,,,,,,,,13,,,,41,0
170262,note_on,90,0,10,,,,,,,,,14,,,,29,0
170280,note_on,60,0,6,,,,,,,,,10,,,,70,0
170280,note_on,0,0,6,,,,,,,,,10,,,,72,107
170282,note_on,0,0,7,,,,,,,,,11,,,,60,85
170282,note_on,60,0,7,,,,,,,,,11,,,,58,0
170286,note_on,30,0,8,,,,,,,,,12,,,,51,105
170290,note_on,30,0,9,,,,,,,,,13,,,,41,82
170292,note_on,30,0,10,,,,,,,,,14,,,,29,76
170330,set_tempo,170,1,0,,,,,,318302,,,,,,,,
170340,note_on,0,0,6,,,,,,,,,10,,,,74,94
170340,note_on,60,0,6,,,,,,,,,10,,,,72,0
170342,note_on,0,0,7,,,,,,,,,11,,,,62,75
170342,note_on,60,0,7,,,,,,,,,11,,,,60,0
170376,note_on,90,0,8,,,,,,,,,12,,,,51,0
170380,note_on,90,0,9,,,,,,,,,13,,,,41,0
170382,note_on,90,0,10,,,,,,,,,14,,,,29,0
170400,note_on,60,0,6,,,,,,,,,10,,,,74,0
170400,set_tempo,70,1,0,,,,,,289157,,,,,,,,
170400,note_on,0,0,6,,,,,,,,,10,,,,70,92
170402,note_on,60,0,7,,,,,,,,,11,,,,62,0
170402,note_on,0,0,7,,,,,,,,,11,,,,58,73
170406,note_on,30,0,8,,,,,,,,,12,,,,50,90
170410,note_on,30,0,9,,,,,,,,,13,,,,46,68
170412,note_on,30,0,10,,,,,,,,,14,,,,34,62
170520,note_on,120,0,6,,,,,,,,,10,,,,70,0
170522,note_on,120,0,7,,,,,,,,,11,,,,58,0
170523,note_on,0,0,1,,,,,,,,,0,,,,76,97
170523,control_change,3720,0,1,,,,,,,,,0,11,42,,,
170525,note_on,0,0,2,,,,,,,,,1,,,,64,97
170525,control_change,3720,0,2,,,,,,,,,1,11,42,,,
170526,note_on,120,0,8,,,,,,,,,12,,,,50,0
170530,note_on,120,0,9,,,,,,,,,13,,,,46,0
170532,note_on,120,0,10,,,,,,,,,14,,,,34,0
170559,control_change,36,0,1,,,,,,,,,0,11,43,,,
170561,control_change,36,0,2,,,,,,,,,1,11,43,,,
170583,note_on,0,0,1,,,,,,,,,0,,,,77,97
170583,note_on,24,0,1,,,,,,,,,0,,,,76,0
170585,note_on,24,0,2,,,,,,,,,1,,,,64,0
170585,note_on,0,0,2,,,,,,,,,1,,,,65,97
170595,control_change,12,0,1,,,,,,,,,0,11,44,,,
170597,control_change,12,0,2,,,,,,,,,1,11,44,,,
170631,control_change,36,0,1,,,,,,,,,0,11,45,,,
170633,control_change,36,0,2,,,,,,,,,1,11,45,,,
170640,set_tempo,240,1,0,,,,,,281030,,,,,,,,
170643,note_on,0,0,1,,,,,,,,,0,,,,79,97
170643,note_on,12,0,1,,,,,,,,,0,,,,77,0
170645,note_on,0,0,2,,,,,,,,,1,,,,67,97
170645,note_on,12,0,2,,,,,,,,,1,,,,65,0
170667,control_change,24,0,1,,,,,,,,,0,11,46,,,
170669,control_change,24,0,2,,,,,,,,,1,11,46,,,
170703,note_on,0,0,1,,,,,,,,,0,,,,81,97
170703,control_change,0,0,1,,,,,,,,,0,11,47,,,
170703,note_on,36,0,1,,,,,,,,,0,,,,79,0
170705,note_on,36,0,2,,,,,,,,,1,,,,67,0
170705,note_on,0,0,2,,,,,,,,,1,,,,69,97
170705,control_change,0,0,2,,,,,,,,,1,11,47,,,
170739,control_change,36,0,1,,,,,,,,,0,11,48,,,
170741,control_change,36,0,2,,,,,,,,,1,11,48,,,
170763,note_on,0,0,1,,,,,,,,,0,,,,82,97
170763,note_on,24,0,1,,,,,,,,,0,,,,81,0
170765,note_on,0,0,2,,,,,,,,,1,,,,70,97
170765,note_on,24,0,2,,,,,,,,,1,,,,69,0
170775,control_change,12,0,1,,,,,,,,,0,11,49,,,
170777,control_change,12,0,2,,,,,,,,,1,11,49,,,
170811,control_change,36,0,1,,,,,,,,,0,11,50,,,
170813,control_change,36,0,2,,,,,,,,,1,11,50,,,
170823,note_on,12,0,1,,,,,,,,,0,,,,82,0
170823,note_on,0,0,1,,,,,,,,,0,,,,84,97
170825,note_on,12,0,2,,,,,,,,,1,,,,70,0
170825,note_on,0,0,2,,,,,,,,,1,,,,72,97
170847,control_change,24,0,1,,,,,,,,,0,11,51,,,
170849,control_change,24,0,2,,,,,,,,,1,11,51,,,
170878,note_on,31,0,1,,,,,,,,,0,,,,84,0
170880,note_on,31,0,2,,,,,,,,,1,,,,72,0
170880,set_tempo,240,1,0,,,,,,289157,,,,,,,,
170883,control_change,5,0,1,,,,,,,,,0,11,52,,,
170883,note_on,0,0,1,,,,,,,,,0,,,,86,97
170885,control_change,5,0,2,,,,,,,,,1,11,52,,,
170885,note_on,0,0,2,,,,,,,,,1,,,,74,97
170886,control_change,360,0,8,,,,,,,,,12,11,32,,,
170886,note_on,0,0,8,,,,,,,,,12,,,,62,108
170890,control_change,360,0,9,,,,,,,,,13,11,32,,,
170890,note_on,0,0,9,,,,,,,,,13,,,,58,99
170891,control_change,4080,0,3,,,,,,,,,3,11,47,,,
170891,note_on,0,0,3,,,,,,,,,3,,,,70,97
170892,note_on,0,0,10,,,,,,,,,14,,,,46,93
170892,control_change,360,0,10,,,,,,,,,14,11,32,,,
170902,control_change,16,0,8,,,,,,,,,12,11,33,,,
170906,control_change,16,0,9,,,,,,,,,13,11,33,,,
170908,control_change,16,0,10,,,,,,,,,14,11,33,,,
170918,control_change,16,0,8,,,,,,,,,12,11,34,,,
170922,control_change,16,0,9,,,,,,,,,13,11,34,,,
170924,control_change,16,0,10,,,,,,,,,14,11,34,,,
170934,control_change,16,0,8,,,,,,,,,12,11,35,,,
170938,control_change,16,0,9,,,,,,,,,13,11,35,,,
170940,control_change,16,0,10,,,,,,,,,14,11,35,,,
170950,control_change,16,0,8,,,,,,,,,12,11,36,,,
170954,control_change,16,0,9,,,,,,,,,13,11,36,,,
170956,control_change,16,0,10,,,,,,,,,14,11,36,,,
170966,control_change,16,0,8,,,,,,,,,12,11,37,,,
170970,control_change,16,0,9,,,,,,,,,13,11,37,,,
170972,control_change,16,0,10,,,,,,,,,14,11,37,,,
170982,control_change,16,0,8,,,,,,,,,12,11,38,,,
170986,control_change,16,0,9,,,,,,,,,13,11,38,,,
170988,control_change,16,0,10,,,,,,,,,14,11,38,,,
170998,control_change,16,0,8,,,,,,,,,12,11,39,,,
171002,control_change,16,0,9,,,,,,,,,13,11,39,,,
171004,control_change,16,0,10,,,,,,,,,14,11,39,,,
171014,control_change,16,0,8,,,,,,,,,12,11,40,,,
171018,control_change,16,0,9,,,,,,,,,13,11,40,,,
171020,control_change,16,0,10,,,,,,,,,14,11,40,,,
171030,control_change,16,0,8,,,,,,,,,12,11,41,,,
171034,control_change,16,0,9,,,,,,,,,13,11,41,,,
171036,control_change,16,0,10,,,,,,,,,14,11,41,,,
171046,control_change,16,0,8,,,,,,,,,12,11,42,,,
171050,control_change,16,0,9,,,,,,,,,13,11,42,,,
171052,control_change,16,0,10,,,,,,,,,14,11,42,,,
171062,control_change,16,0,8,,,,,,,,,12,11,43,,,
171066,control_change,16,0,9,,,,,,,,,13,11,43,,,
171068,control_change,16,0,10,,,,,,,,,14,11,43,,,
171078,control_change,16,0,8,,,,,,,,,12,11,44,,,
171082,control_change,16,0,9,,,,,,,,,13,11,44,,,
171084,control_change,16,0,10,,,,,,,,,14,11,44,,,
171094,control_change,16,0,8,,,,,,,,,12,11,45,,,
171098,control_change,16,0,9,,,,,,,,,13,11,45,,,
171100,control_change,16,0,10,,,,,,,,,14,11,45,,,
171110,control_change,16,0,8,,,,,,,,,12,11,46,,,
171114,control_change,16,0,9,,,,,,,,,13,11,46,,,
171116,control_change,16,0,10,,,,,,,,,14,11,46,,,
171120,set_tempo,240,1,0,,,,,,281030,,,,,,,,
171123,note_on,0,0,1,,,,,,,,,0,,,,84,97
171123,note_on,240,0,1,,,,,,,,,0,,,,86,0
171125,note_on,0,0,2,,,,,,,,,1,,,,72,97
171125,note_on,240,0,2,,,,,,,,,1,,,,74,0
171126,control_change,0,0,8,,,,,,,,,12,11,47,,,
171126,note_on,16,0,8,,,,,,,,,12,,,,62,0
171126,note_on,0,0,8,,,,,,,,,12,,,,63,108
171130,control_change,0,0,9,,,,,,,,,13,11,47,,,
171130,note_on,0,0,9,,,,,,,,,13,,,,60,99
171130,note_on,16,0,9,,,,,,,,,13,,,,58,0
171131,note_on,240,0,3,,,,,,,,,3,,,,70,0
171131,note_on,0,0,3,,,,,,,,,3,,,,66,97
171132,note_on,16,0,10,,,,,,,,,14,,,,46,0
171132,control_change,0,0,10,,,,,,,,,14,11,47,,,
171132,note_on,0,0,10,,,,,,,,,14,,,,48,93
171303,note_on,180,0,1,,,,,,,,,0,,,,84,0
171303,note_on,0,0,1,,,,,,,,,0,,,,81,97
171305,note_on,180,0,2,,,,,,,,,1,,,,72,0
171305,note_on,0,0,2,,,,,,,,,1,,,,69,97
171353,note_on,50,0,1,,,,,,,,,0,,,,81,0
171355,note_on,50,0,2,,,,,,,,,1,,,,69,0
171360,set_tempo,240,1,0,,,,,,289157,,,,,,,,
171363,note_on,10,0,1,,,,,,,,,0,,,,81,97
171365,note_on,10,0,2,,,,,,,,,1,,,,69,97
171366,note_on,0,0,8,,,,,,,,,12,,,,65,108
171366,note_on,240,0,8,,,,,,,,,12,,,,63,0
171370,note_on,0,0,9,,,,,,,,,13,,,,62,99
171370,note_on,240,0,9,,,,,,,,,13,,,,60,0
171371,note_on,240,0,3,,,,,,,,,3,,,,66,0
171371,note_on,0,0,3,,,,,,,,,3,,,,65,97
171372,note_on,240,0,10,,,,,,,,,14,,,,48,0
171372,note_on,0,0,10,,,,,,,,,14,,,,50,93
171480,control_change,960,0,6,,,,,,,,,10,11,42,,,
171480,note_on,0,0,6,,,,,,,,,10,,,,77,107
171482,control_change,960,0,7,,,,,,,,,11,11,42,,,
171482,note_on,0,0,7,,,,,,,,,11,,,,65,85
171483,note_on,120,0,1,,,,,,,,,0,,,,81,0
171483,note_on,0,0,1,,,,,,,,,0,,,,82,97
171484,control_change,4,0,6,,,,,,,,,10,11,45,,,
171485,note_on,0,0,2,,,,,,,,,1,,,,70,97
171485,note_on,120,0,2,,,,,,,,,1,,,,69,0
171486,control_change,4,0,7,,,,,,,,,11,11,45,,,
171488,control_change,4,0,6,,,,,,,,,10,11,48,,,
171490,control_change,4,0,7,,,,,,,,,11,11,48,,,
171493,control_change,5,0,6,,,,,,,,,10,11,51,,,
171495,control_change,5,0,7,,,,,,,,,11,11,51,,,
171497,control_change,4,0,6,,,,,,,,,10,11,54,,,
171499,control_change,4,0,7,,,,,,,,,11,11,54,,,
171501,control_change,4,0,6,,,,,,,,,10,11,57,,,
171503,control_change,4,0,7,,,,,,,,,11,11,57,,,
171506,control_change,5,0,6,,,,,,,,,10,11,60,,,
171508,control_change,5,0,7,,,,,,,,,11,11,60,,,
171600,control_change,94,0,6,,,,,,,,,10,11,62,,,
171600,set_tempo,240,1,0,,,,,,281030,,,,,,,,
171602,control_change,94,0,7,,,,,,,,,11,11,62,,,
171603,note_on,0,0,1,,,,,,,,,0,,,,77,97
171603,note_on,120,0,1,,,,,,,,,0,,,,82,0
171605,note_on,0,0,2,,,,,,,,,1,,,,65,97
171605,note_on,120,0,2,,,,,,,,,1,,,,70,0
171606,note_on,240,0,8,,,,,,,,,12,,,,65,0
171610,note_on,240,0,9,,,,,,,,,13,,,,62,0
171611,note_on,240,0,3,,,,,,,,,3,,,,65,0
171612,note_on,240,0,10,,,,,,,,,14,,,,50,0
171623,control_change,23,0,6,,,,,,,,,10,11,60,,,
171625,control_change,23,0,7,,,,,,,,,11,11,60,,,
171647,control_change,24,0,6,,,,,,,,,10,11,58,,,
171649,control_change,24,0,7,,,,,,,,,11,11,58,,,
171671,control_change,24,0,6,,,,,,,,,10,11,56,,,
171673,control_change,24,0,7,,,,,,,,,11,11,56,,,
171695,control_change,24,0,6,,,,,,,,,10,11,54,,,
171697,control_change,24,0,7,,,,,,,,,11,11,54,,,
171719,control_change,24,0,6,,,,,,,,,10,11,52,,,
171720,note_on,0,0,6,,,,,,,,,10,,,,75,107
171720,note_on,1,0,6,,,,,,,,,10,,,,77,0
171721,control_change,24,0,7,,,,,,,,,11,11,52,,,
171722,note_on,1,0,7,,,,,,,,,11,,,,65,0
171722,note_on,0,0,7,,,,,,,,,11,,,,63,85
171743,control_change,23,0,6,,,,,,,,,10,11,50,,,
171745,control_change,23,0,7,,,,,,,,,11,11,50,,,
171767,control_change,24,0,6,,,,,,,,,10,11,48,,,
171769,control_change,24,0,7,,,,,,,,,11,11,48,,,
171780,note_on,13,0,6,,,,,,,,,10,,,,75,0
171780,note_on,0,0,6,,,,,,,,,10,,,,74,107
171782,note_on,13,0,7,,,,,,,,,11,,,,63,0
171782,note_on,0,0,7,,,,,,,,,11,,,,62,85
171819,note_on,39,0,6,,,,,,,,,10,,,,74,0
171821,note_on,39,0,7,,,,,,,,,11,,,,62,0
171838,note_on,235,0,1,,,,,,,,,0,,,,77,0
171840,note_on,21,0,6,,,,,,,,,10,,,,72,85
171840,set_tempo,240,1,0,,,,,,289157,,,,,,,,
171840,note_on,235,0,2,,,,,,,,,1,,,,65,0
171842,note_on,21,0,7,,,,,,,,,11,,,,60,68
171843,note_on,5,0,1,,,,,,,,,0,,,,79,87
171845,note_on,5,0,2,,,,,,,,,1,,,,67,87
171846,note_on,240,0,8,,,,,,,,,12,,,,67,108
171850,note_on,240,0,9,,,,,,,,,13,,,,63,84
171852,note_on,240,0,10,,,,,,,,,14,,,,51,78
171933,note_on,90,0,1,,,,,,,,,0,,,,79,0
171935,note_on,90,0,2,,,,,,,,,1,,,,67,0
171941,note_on,95,0,8,,,,,,,,,12,,,,67,0
171945,note_on,95,0,9,,,,,,,,,13,,,,63,0
171947,note_on,95,0,10,,,,,,,,,14,,,,51,0
171960,note_on,120,0,6,,,,,,,,,10,,,,72,0
171962,note_on,120,0,7,,,,,,,,,11,,,,60,0
171963,note_on,30,0,1,,,,,,,,,0,,,,79,88
171965,note_on,30,0,2,,,,,,,,,1,,,,67,88
171966,note_on,25,0,8,,,,,,,,,12,,,,67,108
171970,note_on,25,0,9,,,,,,,,,13,,,,63,84
171972,note_on,25,0,10,,,,,,,,,14,,,,51,78
172053,note_on,90,0,1,,,,,,,,,0,,,,79,0
172055,note_on,90,0,2,,,,,,,,,1,,,,67,0
172061,note_on,95,0,8,,,,,,,,,12,,,,67,0
172065,note_on,95,0,9,,,,,,,,,13,,,,63,0
172067,note_on,95,0,10,,,,,,,,,14,,,,51,0
172080,set_tempo,240,1,0,,,,,,281030,,,,,,,,
172083,note_on,30,0,1,,,,,,,,,0,,,,83,90
172085,note_on,30,0,2,,,,,,,,,1,,,,71,90
172086,note_on,25,0,8,,,,,,,,,12,,,,68,108
172090,note_on,25,0,9,,,,,,,,,13,,,,65,84
172092,note_on,25,0,10,,,,,,,,,14,,,,53,78
172173,note_on,90,0,1,,,,,,,,,0,,,,83,0
172175,note_on,90,0,2,,,,,,,,,1,,,,71,0
172181,note_on,95,0,8,,,,,,,,,12,,,,68,0
172185,note_on,95,0,9,,,,,,,,,13,,,,65,0
172187,note_on,95,0,10,,,,,,,,,14,,,,53,0
172203,note_on,30,0,1,,,,,,,,,0,,,,83,92
172205,note_on,30,0,2,,,,,,,,,1,,,,71,92
172206,note_on,25,0,8,,,,,,,,,12,,,,68,108
172210,note_on,25,0,9,,,,,,,,,13,,,,65,84
172212,note_on,25,0,10,,,,,,,,,14,,,,53,78
172293,note_on,90,0,1,,,,,,,,,0,,,,83,0
172295,note_on,90,0,2,,,,,,,,,1,,,,71,0
172301,note_on,95,0,8,,,,,,,,,12,,,,68,0
172305,note_on,95,0,9,,,,,,,,,13,,,,65,0
172307,note_on,95,0,10,,,,,,,,,14,,,,53,0
172320,set_tempo,240,1,0,,,,,,289157,,,,,,,,
172323,note_on,30,0,1,,,,,,,,,0,,,,86,93
172325,note_on,30,0,2,,,,,,,,,1,,,,74,93
172326,note_on,25,0,8,,,,,,,,,12,,,,67,108
172330,note_on,25,0,9,,,,,,,,,13,,,,63,84
172332,note_on,25,0,10,,,,,,,,,14,,,,51,78
172338,note_on,0,0,1,,,,,,,,,0,,,,84,93
172338,note_on,15,0,1,,,,,,,,,0,,,,86,0
172340,note_on,0,0,2,,,,,,,,,1,,,,72,93
172340,note_on,15,0,2,,,,,,,,,1,,,,74,0
172383,note_on,0,0,1,,,,,,,,,0,,,,83,94
172383,note_on,45,0,1,,,,,,,,,0,,,,84,0
172385,note_on,45,0,2,,,,,,,,,1,,,,72,0
172385,note_on,0,0,2,,,,,,,,,1,,,,71,94
172443,note_on,0,0,1,,,,,,,,,0,,,,84,95
172443,note_on,60,0,1,,,,,,,,,0,,,,83,0
172445,note_on,0,0,2,,,,,,,,,1,,,,72,95
172445,note_on,60,0,2,,,,,,,,,1,,,,71,0
172503,note_on,0,0,1,,,,,,,,,0,,,,86,96
172503,note_on,60,0,1,,,,,,,,,0,,,,84,0
172505,note_on,60,0,2,,,,,,,,,1,,,,72,0
172505,note_on,0,0,2,,,,,,,,,1,,,,74,96
172506,note_on,0,0,8,,,,,,,,,12,,,,65,108
172506,note_on,180,0,8,,,,,,,,,12,,,,67,0
172510,note_on,180,0,9,,,,,,,,,13,,,,63,0
172510,note_on,0,0,9,,,,,,,,,13,,,,62,84
172512,note_on,0,0,10,,,,,,,,,14,,,,50,78
172512,note_on,180,0,10,,,,,,,,,14,,,,51,0
172560,note_on,600,0,6,,,,,,,,,10,,,,72,110
172560,set_tempo,240,1,0,,,,,,281030,,,,,,,,
172562,note_on,600,0,7,,,,,,,,,11,,,,60,88
172563,note_on,0,0,1,,,,,,,,,0,,,,87,97
172563,note_on,60,0,1,,,,,,,,,0,,,,86,0
172565,note_on,60,0,2,,,,,,,,,1,,,,74,0
172565,note_on,0,0,2,,,,,,,,,1,,,,75,97
172566,note_on,0,0,8,,,,,,,,,12,,,,63,108
172566,note_on,60,0,8,,,,,,,,,12,,,,65,0
172570,note_on,0,0,9,,,,,,,,,13,,,,60,84
172570,note_on,60,0,9,,,,,,,,,13,,,,62,0
172571,note_on,960,0,3,,,,,,,,,3,,,,60,97
172572,note_on,0,0,10,,,,,,,,,14,,,,48,78
172572,note_on,60,0,10,,,,,,,,,14,,,,50,0
172620,note_on,0,0,6,,,,,,,,,10,,,,71,110
172620,note_on,60,0,6,,,,,,,,,10,,,,72,0
172622,note_on,60,0,7,,,,,,,,,11,,,,60,0
172622,note_on,0,0,7,,,,,,,,,11,,,,59,88
172631,note_on,0,0,3,,,,,,,,,3,,,,59,97
172631,note_on,60,0,3,,,,,,,,,3,,,,60,0
172680,note_on,0,0,6,,,,,,,,,10,,,,72,110
172680,note_on,60,0,6,,,,,,,,,10,,,,71,0
172682,note_on,0,0,7,,,,,,,,,11,,,,60,88
172682,note_on,60,0,7,,,,,,,,,11,,,,59,0
172683,note_on,120,0,1,,,,,,,,,0,,,,87,0
172685,note_on,120,0,2,,,,,,,,,1,,,,75,0
172686,note_on,120,0,8,,,,,,,,,12,,,,63,0
172690,note_on,120,0,9,,,,,,,,,13,,,,60,0
172691,note_on,0,0,3,,,,,,,,,3,,,,60,97
172691,note_on,60,0,3,,,,,,,,,3,,,,59,0
172692,note_on,120,0,10,,,,,,,,,14,,,,48,0
172740,note_on,60,0,6,,,,,,,,,10,,,,72,0
172740,note_on,0,0,6,,,,,,,,,10,,,,74,110
172742,note_on,0,0,7,,,,,,,,,11,,,,62,88
172742,note_on,60,0,7,,,,,,,,,11,,,,60,0
172751,note_on,0,0,3,,,,,,,,,3,,,,62,97
172751,note_on,60,0,3,,,,,,,,,3,,,,60,0
172779,note_on,39,0,6,,,,,,,,,10,,,,74,0
172781,note_on,39,0,7,,,,,,,,,11,,,,62,0
172800,note_on,21,0,6,,,,,,,,,10,,,,75,79
172800,set_tempo,240,1,0,,,,,,289157,,,,,,,,
172802,note_on,21,0,7,,,,,,,,,11,,,,63,63
172803,note_on,120,0,1,,,,,,,,,0,,,,87,97
172805,note_on,120,0,2,,,,,,,,,1,,,,75,97
172806,note_on,55,0,3,,,,,,,,,3,,,,62,0
172806,note_on,120,0,8,,,,,,,,,12,,,,63,108
172810,note_on,120,0,9,,,,,,,,,13,,,,60,99
172811,note_on,5,0,3,,,,,,,,,3,,,,63,97
172812,note_on,120,0,10,,,,,,,,,14,,,,48,93
172920,note_on,120,0,6,,,,,,,,,10,,,,75,0
172922,note_on,120,0,7,,,,,,,,,11,,,,63,0
173040,set_tempo,240,1,0,,,,,,281030,,,,,,,,
173043,note_on,240,0,1,,,,,,,,,0,,,,87,0
173043,note_on,0,0,1,,,,,,,,,0,,,,86,97
173045,note_on,0,0,2,,,,,,,,,1,,,,74,97
173045,note_on,240,0,2,,,,,,,,,1,,,,75,0
173046,note_on,240,0,8,,,,,,,,,12,,,,63,0
173046,note_on,0,0,8,,,,,,,,,12,,,,65,108
173050,note_on,240,0,9,,,,,,,,,13,,,,60,0
173050,note_on,0,0,9,,,,,,,,,13,,,,62,99
173051,note_on,240,0,3,,,,,,,,,3,,,,63,0
173051,note_on,0,0,3,,,,,,,,,3,,,,68,97
173052,note_on,0,0,10,,,,,,,,,14,,,,50,93
173052,note_on,240,0,10,,,,,,,,,14,,,,48,0
173223,note_on,180,0,1,,,,,,,,,0,,,,86,0
173223,note_on,0,0,1,,,,,,,,,0,,,,83,97
173225,note_on,180,0,2,,,,,,,,,1,,,,74,0
173225,note_on,0,0,2,,,,,,,,,1,,,,71,97
173273,note_on,50,0,1,,,,,,,,,0,,,,83,0
173275,note_on,50,0,2,,,,,,,,,1,,,,71,0
173280,set_tempo,240,1,0,,,,,,289157,,,,,,,,
173281,note_on,235,0,8,,,,,,,,,12,,,,65,0
173283,note_on,10,0,1,,,,,,,,,0,,,,83,97
173285,note_on,10,0,2,,,,,,,,,1,,,,71,97
173285,note_on,235,0,9,,,,,,,,,13,,,,62,0
173286,note_on,5,0,8,,,,,,,,,12,,,,67,108
173286,note_on,235,0,3,,,,,,,,,3,,,,68,0
173287,note_on,235,0,10,,,,,,,,,14,,,,50,0
173290,note_on,5,0,9,,,,,,,,,13,,,,63,99
173291,note_on,5,0,3,,,,,,,,,3,,,,67,97
173292,note_on,5,0,10,,,,,,,,,14,,,,51,93
173400,control_change,480,0,6,,,,,,,,,10,11,42,,,
173400,note_on,0,0,6,,,,,,,,,10,,,,79,107
173402,note_on,0,0,7,,,,,,,,,11,,,,67,85
173402,control_change,480,0,7,,,,,,,,,11,11,42,,,
173403,note_on,120,0,1,,,,,,,,,0,,,,83,0
173403,note_on,0,0,1,,,,,,,,,0,,,,84,97
173404,control_change,4,0,6,,,,,,,,,10,11,45,,,
173405,note_on,120,0,2,,,,,,,,,1,,,,71,0
173405,note_on,0,0,2,,,,,,,,,1,,,,72,97
173406,control_change,4,0,7,,,,,,,,,11,11,45,,,
173408,control_change,4,0,6,,,,,,,,,10,11,48,,,
173410,control_change,4,0,7,,,,,,,,,11,11,48,,,
173413,control_change,5,0,6,,,,,,,,,10,11,51,,,
173415,control_change,5,0,7,,,,,,,,,11,11,51,,,
173417,control_change,4,0,6,,,,,,,,,10,11,54,,,
173419,control_change,4,0,7,,,,,,,,,11,11,54,,,
173421,control_change,4,0,6,,,,,,,,,10,11,57,,,
173423,control_change,4,0,7,,,,,,,,,11,11,57,,,
173426,control_change,5,0,6,,,,,,,,,10,11,60,,,
173428,control_change,5,0,7,,,,,,,,,11,11,60,,,
173520,set_tempo,240,1,0,,,,,,281030,,,,,,,,
173520,control_change,94,0,6,,,,,,,,,10,11,62,,,
173522,control_change,94,0,7,,,,,,,,,11,11,62,,,
173523,note_on,120,0,1,,,,,,,,,0,,,,84,0
173523,note_on,0,0,1,,,,,,,,,0,,,,87,97
173525,note_on,0,0,2,,,,,,,,,1,,,,75,97
173525,note_on,120,0,2,,,,,,,,,1,,,,72,0
173526,note_on,240,0,8,,,,,,,,,12,,,,67,0
173530,note_on,240,0,9,,,,,,,,,13,,,,63,0
173531,note_on,240,0,3,,,,,,,,,3,,,,67,0
173532,note_on,240,0,10,,,,,,,,,14,,,,51,0
173543,control_change,23,0,6,,,,,,,,,10,11,60,,,
173545,control_change,23,0,7,,,,,,,,,11,11,60,,,
173567,control_change,24,0,6,,,,,,,,,10,11,58,,,
173569,control_change,24,0,7,,,,,,,,,11,11,58,,,
173591,control_change,24,0,6,,,,,,,,,10,11,56,,,
173593,control_change,24,0,7,,,,,,,,,11,11,56,,,
173615,control_change,24,0,6,,,,,,,,,10,11,54,,,
173617,control_change,24,0,7,,,,,,,,,11,11,54,,,
173639,control_change,24,0,6,,,,,,,,,10,11,52,,,
173640,note_on,1,0,6,,,,,,,,,10,,,,79,0
173640,note_on,0,0,6,,,,,,,,,10,,,,75,107
173641,control_change,24,0,7,,,,,,,,,11,11,52,,,
173642,note_on,0,0,7,,,,,,,,,11,,,,63,85
173642,note_on,1,0,7,,,,,,,,,11,,,,67,0
173643,note_on,120,0,1,,,,,,,,,0,,,,87,0
173643,note_on,0,0,1,,,,,,,,,0,,,,91,97
173645,note_on,0,0,2,,,,,,,,,1,,,,79,97
173645,note_on,120,0,2,,,,,,,,,1,,,,75,0
173663,control_change,23,0,6,,,,,,,,,10,11,50,,,
173665,control_change,23,0,7,,,,,,,,,11,11,50,,,
173687,control_change,24,0,6,,,,,,,,,10,11,48,,,
173689,control_change,24,0,7,,,,,,,,,11,11,48,,,
173700,note_on,0,0,6,,,,,,,,,10,,,,72,107
173700,note_on,13,0,6,,,,,,,,,10,,,,75,0
173702,note_on,13,0,7,,,,,,,,,11,,,,63,0
173702,note_on,0,0,7,,,,,,,,,11,,,,60,85
173739,note_on,39,0,6,,,,,,,,,10,,,,72,0
173741,note_on,39,0,7,,,,,,,,,11,,,,60,0
173758,note_on,115,0,1,,,,,,,,,0,,,,91,0
173760,note_on,115,0,2,,,,,,,,,1,,,,79,0
173760,set_tempo,240,1,0,,,,,,289157,,,,,,,,
173760,note_on,21,0,6,,,,,,,,,10,,,,70,85
173762,note_on,21,0,7,,,,,,,,,11,,,,58,68
173763,note_on,5,0,1,,,,,,,,,0,,,,82,97
173765,note_on,5,0,2,,,,,,,,,1,,,,70,97
173766,note_on,240,0,8,,,,,,,,,12,,,,62,108
173770,note_on,240,0,9,,,,,,,,,13,,,,65,99
173772,note_on,240,0,10,,,,,,,,,14,,,,53,93
173863,note_on,100,0,1,,,,,,,,,0,,,,82,0
173865,note_on,100,0,2,,,,,,,,,1,,,,70,0
173880,note_on,120,0,6,,,,,,,,,10,,,,70,0
173881,note_on,115,0,8,,,,,,,,,12,,,,62,0
173882,note_on,120,0,7,,,,,,,,,11,,,,58,0
173883,note_on,20,0,1,,,,,,,,,0,,,,82,97
173885,note_on,20,0,2,,,,,,,,,1,,,,70,97
173885,note_on,115,0,9,,,,,,,,,13,,,,65,0
173886,note_on,5,0,8,,,,,,,,,12,,,,62,108
173887,note_on,115,0,10,,,,,,,,,14,,,,53,0
173890,note_on,5,0,9,,,,,,,,,13,,,,65,99
173892,note_on,5,0,10,,,,,,,,,14,,,,53,93
173983,note_on,100,0,1,,,,,,,,,0,,,,82,0
173985,note_on,100,0,2,,,,,,,,,1,,,,70,0
174000,set_tempo,240,1,0,,,,,,281030,,,,,,,,
174000,note_on,120,0,6,,,,,,,,,10,,,,69,102
174001,note_on,115,0,8,,,,,,,,,12,,,,62,0
174002,note_on,120,0,7,,,,,,,,,11,,,,57,81
174003,note_on,20,0,1,,,,,,,,,0,,,,86,97
174005,note_on,115,0,9,,,,,,,,,13,,,,65,0
174005,note_on,20,0,2,,,,,,,,,1,,,,74,97
174006,note_on,5,0,8,,,,,,,,,12,,,,63,108
174007,note_on,115,0,10,,,,,,,,,14,,,,53,0
174010,note_on,5,0,9,,,,,,,,,13,,,,53,99
174012,note_on,5,0,10,,,,,,,,,14,,,,41,93
174018,note_on,0,0,1,,,,,,,,,0,,,,84,97
174018,note_on,15,0,1,,,,,,,,,0,,,,86,0
174020,note_on,15,0,2,,,,,,,,,1,,,,74,0
174020,note_on,0,0,2,,,,,,,,,1,,,,72,97
174063,note_on,0,0,1,,,,,,,,,0,,,,82,97
174063,note_on,45,0,1,,,,,,,,,0,,,,84,0
174065,note_on,45,0,2,,,,,,,,,1,,,,72,0
174065,note_on,0,0,2,,,,,,,,,1,,,,70,97
174066,note_on,0,0,8,,,,,,,,,12,,,,62,108
174066,note_on,60,0,8,,,,,,,,,12,,,,63,0
174120,note_on,120,0,6,,,,,,,,,10,,,,69,0
174122,note_on,120,0,7,,,,,,,,,11,,,,57,0
174123,note_on,60,0,1,,,,,,,,,0,,,,82,0
174123,note_on,0,0,1,,,,,,,,,0,,,,84,97
174125,note_on,60,0,2,,,,,,,,,1,,,,70,0
174125,note_on,115,0,9,,,,,,,,,13,,,,53,0
174125,note_on,0,0,2,,,,,,,,,1,,,,72,97
174126,note_on,60,0,8,,,,,,,,,12,,,,62,0
174126,note_on,0,0,8,,,,,,,,,12,,,,63,108
174127,note_on,115,0,10,,,,,,,,,14,,,,41,0
174130,note_on,5,0,9,,,,,,,,,13,,,,53,99
174132,note_on,5,0,10,,,,,,,,,14,,,,41,93
174180,set_tempo,180,1,0,,,,,,338028,,,,,,,,
174183,note_on,60,0,1,,,,,,,,,0,,,,84,0
174183,note_on,0,0,1,,,,,,,,,0,,,,86,97
174185,note_on,60,0,2,,,,,,,,,1,,,,72,0
174185,note_on,0,0,2,,,,,,,,,1,,,,74,97
174186,note_on,60,0,8,,,,,,,,,12,,,,63,0
174186,note_on,0,0,8,,,,,,,,,12,,,,65,108
174225,note_on,39,0,8,,,,,,,,,12,,,,65,0
174240,set_tempo,60,1,0,,,,,,285714,,,,,,,,
174240,control_change,120,0,6,,,,,,,,,10,11,42,,,
174240,note_on,0,0,6,,,,,,,,,10,,,,70,92
174242,note_on,0,0,7,,,,,,,,,11,,,,58,73
174242,control_change,120,0,7,,,,,,,,,11,11,42,,,
174243,note_on,0,0,1,,,,,,,,,0,,,,82,97
174243,note_on,60,0,1,,,,,,,,,0,,,,86,0
174245,control_change,0,0,2,,,,,,,,,1,11,42,,,
174245,note_on,115,0,9,,,,,,,,,13,,,,53,0
174245,note_on,60,0,2,,,,,,,,,1,,,,74,0
174245,note_on,0,0,2,,,,,,,,,1,,,,70,97
174246,note_on,0,0,8,,,,,,,,,12,,,,61,98
174246,control_change,21,0,8,,,,,,,,,12,11,42,,,
174247,note_on,115,0,10,,,,,,,,,14,,,,41,0
174250,note_on,0,0,9,,,,,,,,,13,,,,54,89
174250,control_change,5,0,9,,,,,,,,,13,11,42,,,
174252,control_change,5,0,10,,,,,,,,,14,11,42,,,
174252,note_on,0,0,10,,,,,,,,,14,,,,42,83
174334,note_on,94,0,6,,,,,,,,,10,,,,70,0
174336,note_on,94,0,7,,,,,,,,,11,,,,58,0
174360,note_on,26,0,6,,,,,,,,,10,,,,70,105
174362,note_on,26,0,7,,,,,,,,,11,,,,58,84
174363,note_on,120,0,1,,,,,,,,,0,,,,82,0
174365,note_on,120,0,2,,,,,,,,,1,,,,70,0
174454,note_on,94,0,6,,,,,,,,,10,,,,70,0
174456,note_on,94,0,7,,,,,,,,,11,,,,58,0
174480,set_tempo,240,1,0,,,,,,272727,,,,,,,,
174480,note_on,26,0,6,,,,,,,,,10,,,,73,110
174481,note_on,235,0,8,,,,,,,,,12,,,,61,0
174482,note_on,26,0,7,,,,,,,,,11,,,,61,88
174485,note_on,120,0,2,,,,,,,,,1,,,,61,97
174485,note_on,0,0,2,,,,,,,,,1,,,,73,97
174486,note_on,5,0,8,,,,,,,,,12,,,,56,108
174490,note_on,240,0,9,,,,,,,,,13,,,,54,0
174490,note_on,0,0,9,,,,,,,,,13,,,,53,99
174492,note_on,0,0,10,,,,,,,,,14,,,,41,93
174492,note_on,240,0,10,,,,,,,,,14,,,,42,0
174495,note_on,15,0,6,,,,,,,,,10,,,,73,0
174495,note_on,0,0,6,,,,,,,,,10,,,,71,110
174497,note_on,15,0,7,,,,,,,,,11,,,,61,0
174497,note_on,0,0,7,,,,,,,,,11,,,,59,88
174540,note_on,0,0,6,,,,,,,,,10,,,,70,110
174540,note_on,45,0,6,,,,,,,,,10,,,,71,0
174542,note_on,45,0,7,,,,,,,,,11,,,,59,0
174542,note_on,0,0,7,,,,,,,,,11,,,,58,88
174600,note_on,0,0,6,,,,,,,,,10,,,,71,110
174600,note_on,60,0,6,,,,,,,,,10,,,,70,0
174602,note_on,60,0,7,,,,,,,,,11,,,,58,0
174602,note_on,0,0,7,,,,,,,,,11,,,,59,88
174660,note_on,60,0,6,,,,,,,,,10,,,,71,0
174660,note_on,0,0,6,,,,,,,,,10,,,,73,110
174662,note_on,60,0,7,,,,,,,,,11,,,,59,0
174662,note_on,0,0,7,,,,,,,,,11,,,,61,88
174699,note_on,39,0,6,,,,,,,,,10,,,,73,0
174701,note_on,39,0,7,,,,,,,,,11,,,,61,0
174720,note_on,21,0,6,,,,,,,,,10,,,,70,110
174720,set_tempo,240,1,0,,,,,,285714,,,,,,,,
174722,note_on,21,0,7,,,,,,,,,11,,,,58,88
174725,control_change,240,0,2,,,,,,,,,1,11,42,,,
174725,note_on,235,0,9,,,,,,,,,13,,,,53,0
174726,note_on,240,0,8,,,,,,,,,12,,,,56,0
174726,note_on,0,0,8,,,,,,,,,12,,,,58,108
174727,note_on,235,0,10,,,,,,,,,14,,,,41,0
174730,note_on,5,0,9,,,,,,,,,13,,,,54,99
174732,note_on,5,0,10,,,,,,,,,14,,,,42,93
174749,control_change,24,0,2,,,,,,,,,1,11,43,,,
174773,control_change,24,0,2,,,,,,,,,1,11,44,,,
174797,control_change,24,0,2,,,,,,,,,1,11,45,,,
174814,note_on,94,0,6,,,,,,,,,10,,,,70,0
174816,note_on,94,0,7,,,,,,,,,11,,,,58,0
174821,control_change,24,0,2,,,,,,,,,1,11,46,,,
174840,note_on,26,0,6,,,,,,,,,10,,,,70,110
174842,note_on,26,0,7,,,,,,,,,11,,,,58,88
174845,control_change,24,0,2,,,,,,,,,1,11,47,,,
174869,control_change,24,0,2,,,,,,,,,1,11,48,,,
174893,control_change,24,0,2,,,,,,,,,1,11,49,,,
174917,control_change,24,0,2,,,,,,,,,1,11,50,,,
174934,note_on,94,0,6,,,,,,,,,10,,,,70,0
174936,note_on,94,0,7,,,,,,,,,11,,,,58,0
174941,control_change,24,0,2,,,,,,,,,1,11,51,,,
174960,set_tempo,240,1,0,,,,,,272727,,,,,,,,
174960,note_on,26,0,6,,,,,,,,,10,,,,73,110
174962,note_on,26,0,7,,,,,,,,,11,,,,61,88
174965,control_change,24,0,2,,,,,,,,,1,11,52,,,
174966,note_on,0,0,8,,,,,,,,,12,,,,56,108
174966,note_on,240,0,8,,,,,,,,,12,,,,58,0
174970,note_on,240,0,9,,,,,,,,,13,,,,54,0
174970,note_on,0,0,9,,,,,,,,,13,,,,53,99
174972,note_on,240,0,10,,,,,,,,,14,,,,42,0
174972,note_on,0,0,10,,,,,,,,,14,,,,41,93
174975,note_on,0,0,6,,,,,,,,,10,,,,71,110
174975,note_on,15,0,6,,,,,,,,,10,,,,73,0
174977,note_on,0,0,7,,,,,,,,,11,,,,59,88
174977,note_on,15,0,7,,,,,,,,,11,,,,61,0
174989,control_change,24,0,2,,,,,,,,,1,11,53,,,
175013,control_change,24,0,2,,,,,,,,,1,11,54,,,
175020,note_on,0,0,6,,,,,,,,,10,,,,70,110
175020,note_on,45,0,6,,,,,,,,,10,,,,71,0
175022,note_on,45,0,7,,,,,,,,,11,,,,59,0
175022,note_on,0,0,7,,,,,,,,,11,,,,58,88
175037,control_change,24,0,2,,,,,,,,,1,11,55,,,
175061,control_change,24,0,2,,,,,,,,,1,11,56,,,
175080,note_on,0,0,6,,,,,,,,,10,,,,71,110
175080,note_on,60,0,6,,,,,,,,,10,,,,70,0
175082,note_on,60,0,7,,,,,,,,,11,,,,58,0
175082,note_on,0,0,7,,,,,,,,,11,,,,59,88
175085,control_change,24,0,2,,,,,,,,,1,11,57,,,
175109,control_change,24,0,2,,,,,,,,,1,11,58,,,
175133,control_change,24,0,2,,,,,,,,,1,11,59,,,
175140,note_on,0,0,6,,,,,,,,,10,,,,73,110
175140,note_on,60,0,6,,,,,,,,,10,,,,71,0
175142,note_on,0,0,7,,,,,,,,,11,,,,61,88
175142,note_on,60,0,7,,,,,,,,,11,,,,59,0
175157,control_change,24,0,2,,,,,,,,,1,11,60,,,
175179,note_on,39,0,6,,,,,,,,,10,,,,73,0
175181,note_on,39,0,7,,,,,,,,,11,,,,61,0
175181,control_change,24,0,2,,,,,,,,,1,11,61,,,
175200,note_on,21,0,6,,,,,,,,,10,,,,70,110
175200,set_tempo,240,1,0,,,,,,282353,,,,,,,,
175202,note_on,21,0,7,,,,,,,,,11,,,,58,88
175205,control_change,24,0,2,,,,,,,,,1,11,62,,,
175205,note_on,235,0,9,,,,,,,,,13,,,,53,0
175206,note_on,0,0,8,,,,,,,,,12,,,,58,108
175206,note_on,240,0,8,,,,,,,,,12,,,,56,0
175207,note_on,235,0,10,,,,,,,,,14,,,,41,0
175210,note_on,5,0,9,,,,,,,,,13,,,,54,99
175212,note_on,5,0,10,,,,,,,,,14,,,,42,93
175245,note_on,39,0,8,,,,,,,,,12,,,,58,0
175249,note_on,39,0,9,,,,,,,,,13,,,,54,0
175251,note_on,39,0,10,,,,,,,,,14,,,,42,0
175266,note_on,21,0,8,,,,,,,,,12,,,,58,99
175270,note_on,21,0,9,,,,,,,,,13,,,,54,90
175272,note_on,21,0,10,,,,,,,,,14,,,,42,84
175294,note_on,94,0,6,,,,,,,,,10,,,,70,0
175296,note_on,94,0,7,,,,,,,,,11,,,,58,0
175305,note_on,39,0,8,,,,,,,,,12,,,,58,0
175309,note_on,39,0,9,,,,,,,,,13,,,,54,0
175311,note_on,39,0,10,,,,,,,,,14,,,,42,0
175320,note_on,26,0,6,,,,,,,,,10,,,,70,110
175322,note_on,26,0,7,,,,,,,,,11,,,,58,88
175326,note_on,21,0,8,,,,,,,,,12,,,,58,108
175330,note_on,21,0,9,,,,,,,,,13,,,,54,99
175332,note_on,21,0,10,,,,,,,,,14,,,,42,93
175365,note_on,39,0,8,,,,,,,,,12,,,,58,0
175369,note_on,39,0,9,,,,,,,,,13,,,,54,0
175371,note_on,39,0,10,,,,,,,,,14,,,,42,0
175386,note_on,21,0,8,,,,,,,,,12,,,,58,99
175390,note_on,21,0,9,,,,,,,,,13,,,,54,90
175392,note_on,21,0,10,,,,,,,,,14,,,,42,84
175414,note_on,94,0,6,,,,,,,,,10,,,,70,0
175416,note_on,94,0,7,,,,,,,,,11,,,,58,0
175425,note_on,39,0,8,,,,,,,,,12,,,,58,0
175429,note_on,39,0,9,,,,,,,,,13,,,,54,0
175431,note_on,39,0,10,,,,,,,,,14,,,,42,0
175440,control_change,26,0,6,,,,,,,,,10,11,42,,,
175440,note_on,235,0,2,,,,,,,,,1,,,,73,0
175440,note_on,0,0,2,,,,,,,,,1,,,,61,0
175440,set_tempo,240,1,0,,,,,,269663,,,,,,,,
175440,note_on,0,0,6,,,,,,,,,10,,,,74,110
175442,control_change,26,0,7,,,,,,,,,11,11,42,,,
175442,note_on,0,0,7,,,,,,,,,11,,,,62,88
175443,control_change,1080,0,1,,,,,,,,,0,11,62,,,
175443,note_on,0,0,1,,,,,,,,,0,,,,86,97
175444,note_on,0,0,4,,,,,,,,,4,,,,58,96
175444,control_change,8760,0,4,,,,,,,,,4,11,47,,,
175445,note_on,0,0,2,,,,,,,,,1,,,,62,97
175445,note_on,0,0,2,,,,,,,,,1,,,,74,97
175445,control_change,5,0,2,,,,,,,,,1,11,62,,,
175446,note_on,0,0,8,,,,,,,,,12,,,,58,108
175446,control_change,8760,0,5,,,,,,,,,5,11,47,,,
175446,note_on,0,0,5,,,,,,,,,5,,,,46,96
175446,control_change,21,0,8,,,,,,,,,12,11,42,,,
175450,note_on,0,0,9,,,,,,,,,13,,,,54,99
175450,control_change,21,0,9,,,,,,,,,13,11,42,,,
175451,note_on,0,0,3,,,,,,,,,3,,,,54,97
175451,control_change,1920,0,3,,,,,,,,,3,11,62,,,
175452,control_change,21,0,10,,,,,,,,,14,11,42,,,
175452,note_on,0,0,10,,,,,,,,,14,,,,42,93
175456,control_change,16,0,6,,,,,,,,,10,11,43,,,
175458,control_change,16,0,7,,,,,,,,,11,11,43,,,
175461,control_change,17,0,4,,,,,,,,,4,11,48,,,
175462,control_change,16,0,8,,,,,,,,,12,11,43,,,
175463,control_change,17,0,5,,,,,,,,,5,11,48,,,
175466,control_change,16,0,9,,,,,,,,,13,11,43,,,
175468,control_change,16,0,10,,,,,,,,,14,11,43,,,
175471,control_change,28,0,1,,,,,,,,,0,11,62,,,
175472,control_change,16,0,6,,,,,,,,,10,11,44,,,
175473,control_change,28,0,2,,,,,,,,,1,11,62,,,
175474,control_change,16,0,7,,,,,,,,,11,11,44,,,
175478,control_change,16,0,8,,,,,,,,,12,11,44,,,
175479,control_change,18,0,4,,,,,,,,,4,11,49,,,
175479,control_change,28,0,3,,,,,,,,,3,11,62,,,
175481,control_change,18,0,5,,,,,,,,,5,11,49,,,
175482,control_change,16,0,9,,,,,,,,,13,11,44,,,
175484,control_change,16,0,10,,,,,,,,,14,11,44,,,
175485,note_on,7,0,8,,,,,,,,,12,,,,58,0
175488,control_change,16,0,6,,,,,,,,,10,11,45,,,
175489,note_on,7,0,9,,,,,,,,,13,,,,54,0
175490,control_change,16,0,7,,,,,,,,,11,11,45,,,
175491,note_on,7,0,10,,,,,,,,,14,,,,42,0
175494,control_change,9,0,8,,,,,,,,,12,11,45,,,
175497,control_change,18,0,4,,,,,,,,,4,11,50,,,
175498,control_change,9,0,9,,,,,,,,,13,11,45,,,
175499,control_change,18,0,5,,,,,,,,,5,11,50,,,
175500,control_change,29,0,1,,,,,,,,,0,11,63,,,
175500,note_on,12,0,6,,,,,,,,,10,,,,74,0
175500,control_change,9,0,10,,,,,,,,,14,11,45,,,
175502,control_change,29,0,2,,,,,,,,,1,11,63,,,
175502,note_on,12,0,7,,,,,,,,,11,,,,62,0
175504,control_change,4,0,6,,,,,,,,,10,11,46,,,
175506,note_on,12,0,8,,,,,,,,,12,,,,58,99
175506,control_change,4,0,7,,,,,,,,,11,11,46,,,
175508,control_change,29,0,3,,,,,,,,,3,11,63,,,
175510,control_change,4,0,8,,,,,,,,,12,11,46,,,
175510,note_on,12,0,9,,,,,,,,,13,,,,54,90
175512,note_on,12,0,10,,,,,,,,,14,,,,42,84
175514,control_change,4,0,9,,,,,,,,,13,11,46,,,
175515,control_change,18,0,4,,,,,,,,,4,11,51,,,
175516,control_change,4,0,10,,,,,,,,,14,11,46,,,
175517,control_change,18,0,5,,,,,,,,,5,11,51,,,
175520,control_change,16,0,6,,,,,,,,,10,11,47,,,
175522,control_change,16,0,7,,,,,,,,,11,11,47,,,
175526,control_change,16,0,8,,,,,,,,,12,11,47,,,
175529,control_change,29,0,1,,,,,,,,,0,11,64,,,
175530,control_change,16,0,9,,,,,,,,,13,11,47,,,
175531,control_change,29,0,2,,,,,,,,,1,11,64,,,
175532,control_change,16,0,10,,,,,,,,,14,11,47,,,
175533,control_change,18,0,4,,,,,,,,,4,11,52,,,
175535,control_change,18,0,5,,,,,,,,,5,11,52,,,
175536,control_change,16,0,6,,,,,,,,,10,11,48,,,
175537,control_change,29,0,3,,,,,,,,,3,11,64,,,
175538,control_change,16,0,7,,,,,,,,,11,11,48,,,
175542,control_change,16,0,8,,,,,,,,,12,11,48,,,
175545,note_on,3,0,8,,,,,,,,,12,,,,58,0
175546,control_change,16,0,9,,,,,,,,,13,11,48,,,
175548,control_change,16,0,10,,,,,,,,,14,11,48,,,
175549,note_on,3,0,9,,,,,,,,,13,,,,54,0
175551,note_on,3,0,10,,,,,,,,,14,,,,42,0
175551,control_change,18,0,4,,,,,,,,,4,11,53,,,
175552,control_change,16,0,6,,,,,,,,,10,11,49,,,
175553,control_change,18,0,5,,,,,,,,,5,11,53,,,
175554,control_change,16,0,7,,,,,,,,,11,11,49,,,
175558,control_change,13,0,8,,,,,,,,,12,11,49,,,
175558,control_change,29,0,1,,,,,,,,,0,11,64,,,
175560,note_on,8,0,6,,,,,,,,,10,,,,74,110
175560,control_change,29,0,2,,,,,,,,,1,11,64,,,
175562,control_change,13,0,9,,,,,,,,,13,11,49,,,
175562,note_on,8,0,7,,,,,,,,,11,,,,62,88
175564,control_change,13,0,10,,,,,,,,,14,11,49,,,
175566,note_on,8,0,8,,,,,,,,,12,,,,58,108
175566,control_change,29,0,3,,,,,,,,,3,11,64,,,
175568,control_change,8,0,6,,,,,,,,,10,11,50,,,
175569,control_change,18,0,4,,,,,,,,,4,11,54,,,
175570,note_on,8,0,9,,,,,,,,,13,,,,54,99
175570,control_change,8,0,7,,,,,,,,,11,11,50,,,
175571,control_change,18,0,5,,,,,,,,,5,11,54,,,
175572,note_on,8,0,10,,,,,,,,,14,,,,42,93
175574,control_change,8,0,8,,,,,,,,,12,11,50,,,
175578,control_change,8,0,9,,,,,,,,,13,11,50,,,
175580,control_change,8,0,10,,,,,,,,,14,11,50,,,
175584,control_change,16,0,6,,,,,,,,,10,11,51,,,
175586,control_change,16,0,7,,,,,,,,,11,11,51,,,
175587,control_change,18,0,4,,,,,,,,,4,11,55,,,
175587,control_change,29,0,1,,,,,,,,,0,11,65,,,
175589,control_change,18,0,5,,,,,,,,,5,11,55,,,
175589,control_change,29,0,2,,,,,,,,,1,11,65,,,
175590,control_change,16,0,8,,,,,,,,,12,11,51,,,
175594,control_change,16,0,9,,,,,,,,,13,11,51,,,
175595,control_change,29,0,3,,,,,,,,,3,11,65,,,
175596,control_change,16,0,10,,,,,,,,,14,11,51,,,
175600,control_change,16,0,6,,,,,,,,,10,11,52,,,
175602,control_change,16,0,7,,,,,,,,,11,11,52,,,
175605,note_on,15,0,8,,,,,,,,,12,,,,58,0
175605,control_change,18,0,4,,,,,,,,,4,11,56,,,
175606,control_change,1,0,8,,,,,,,,,12,11,52,,,
175607,control_change,18,0,5,,,,,,,,,5,11,56,,,
175609,note_on,15,0,9,,,,,,,,,13,,,,54,0
175610,control_change,1,0,9,,,,,,,,,13,11,52,,,
175611,note_on,15,0,10,,,,,,,,,14,,,,42,0
175612,control_change,1,0,10,,,,,,,,,14,11,52,,,
175615,control_change,28,0,1,,,,,,,,,0,11,66,,,
175616,control_change,16,0,6,,,,,,,,,10,11,53,,,
175617,control_change,28,0,2,,,,,,,,,1,11,66,,,
175618,control_change,16,0,7,,,,,,,,,11,11,53,,,
175620,note_on,4,0,6,,,,,,,,,10,,,,74,0
175622,control_change,16,0,8,,,,,,,,,12,11,53,,,
175622,note_on,4,0,7,,,,,,,,,11,,,,62,0
175623,control_change,28,0,3,,,,,,,,,3,11,66,,,
175623,control_change,18,0,4,,,,,,,,,4,11,57,,,
175625,control_change,18,0,5,,,,,,,,,5,11,57,,,
175626,control_change,16,0,9,,,,,,,,,13,11,53,,,
175626,note_on,4,0,8,,,,,,,,,12,,,,58,99
175628,control_change,16,0,10,,,,,,,,,14,11,53,,,
175630,note_on,4,0,9,,,,,,,,,13,,,,54,90
175632,control_change,12,0,6,,,,,,,,,10,11,54,,,
175632,note_on,4,0,10,,,,,,,,,14,,,,42,84
175634,control_change,12,0,7,,,,,,,,,11,11,54,,,
175638,control_change,12,0,8,,,,,,,,,12,11,54,,,
175641,control_change,18,0,4,,,,,,,,,4,11,58,,,
175642,control_change,12,0,9,,,,,,,,,13,11,54,,,
175643,control_change,18,0,5,,,,,,,,,5,11,58,,,
175644,control_change,12,0,10,,,,,,,,,14,11,54,,,
175644,control_change,29,0,1,,,,,,,,,0,11,66,,,
175646,control_change,29,0,2,,,,,,,,,1,11,66,,,
175648,control_change,16,0,6,,,,,,,,,10,11,55,,,
175650,control_change,16,0,7,,,,,,,,,11,11,55,,,
175652,control_change,29,0,3,,,,,,,,,3,11,66,,,
175654,control_change,16,0,8,,,,,,,,,12,11,55,,,
175658,control_change,16,0,9,,,,,,,,,13,11,55,,,
175659,control_change,18,0,4,,,,,,,,,4,11,59,,,
175660,control_change,16,0,10,,,,,,,,,14,11,55,,,
175661,control_change,18,0,5,,,,,,,,,5,11,59,,,
175664,control_change,16,0,6,,,,,,,,,10,11,56,,,
175665,note_on,11,0,8,,,,,,,,,12,,,,58,0
175666,control_change,16,0,7,,,,,,,,,11,11,56,,,
175669,note_on,11,0,9,,,,,,,,,13,,,,54,0
175670,control_change,5,0,8,,,,,,,,,12,11,56,,,
175671,note_on,11,0,10,,,,,,,,,14,,,,42,0
175673,control_change,29,0,1,,,,,,,,,0,11,67,,,
175674,control_change,5,0,9,,,,,,,,,13,11,56,,,
175675,control_change,29,0,2,,,,,,,,,1,11,67,,,
175676,control_change,5,0,10,,,,,,,,,14,11,56,,,
175677,control_change,18,0,4,,,,,,,,,4,11,60,,,
175679,control_change,18,0,5,,,,,,,,,5,11,60,,,
175680,note_on,0,0,6,,,,,,,,,10,,,,75,110
175680,control_change,16,0,6,,,,,,,,,10,11,57,,,
175680,set_tempo,240,1,0,,,,,,278422,,,,,,,,
175681,control_change,29,0,3,,,,,,,,,3,11,67,,,
175682,control_change,16,0,7,,,,,,,,,11,11,57,,,
175682,note_on,0,0,7,,,,,,,,,11,,,,63,88
175683,note_on,0,0,1,,,,,,,,,0,,,,87,97
175683,note_on,10,0,1,,,,,,,,,0,,,,86,0
175685,note_on,0,0,2,,,,,,,,,1,,,,63,97
175685,note_on,0,0,2,,,,,,,,,1,,,,74,0
175685,note_on,0,0,2,,,,,,,,,1,,,,75,97
175685,note_on,10,0,2,,,,,,,,,1,,,,62,0
175686,note_on,0,0,8,,,,,,,,,12,,,,58,108
175686,control_change,16,0,8,,,,,,,,,12,11,57,,,
175690,note_on,0,0,9,,,,,,,,,13,,,,54,99
175690,control_change,16,0,9,,,,,,,,,13,11,57,,,
175692,control_change,16,0,10,,,,,,,,,14,11,57,,,
175692,note_on,0,0,10,,,,,,,,,14,,,,42,93
175695,control_change,18,0,4,,,,,,,,,4,11,61,,,
175696,control_change,16,0,6,,,,,,,,,10,11,58,,,
175697,control_change,18,0,5,,,,,,,,,5,11,61,,,
175698,control_change,16,0,7,,,,,,,,,11,11,58,,,
175702,control_change,19,0,1,,,,,,,,,0,11,68,,,
175702,control_change,16,0,8,,,,,,,,,12,11,58,,,
175704,control_change,19,0,2,,,,,,,,,1,11,68,,,
175706,control_change,16,0,9,,,,,,,,,13,11,58,,,
175708,control_change,16,0,10,,,,,,,,,14,11,58,,,
175710,control_change,29,0,3,,,,,,,,,3,11,68,,,
175712,control_change,16,0,6,,,,,,,,,10,11,59,,,
175713,control_change,18,0,4,,,,,,,,,4,11,62,,,
175714,control_change,16,0,7,,,,,,,,,11,11,59,,,
175715,control_change,18,0,5,,,,,,,,,5,11,62,,,
175718,control_change,16,0,8,,,,,,,,,12,11,59,,,
175722,control_change,16,0,9,,,,,,,,,13,11,59,,,
175724,control_change,16,0,10,,,,,,,,,14,11,59,,,
175726,note_on,8,0,8,,,,,,,,,12,,,,58,0
175728,control_change,16,0,6,,,,,,,,,10,11,60,,,
175730,note_on,8,0,9,,,,,,,,,13,,,,54,0
175730,control_change,16,0,7,,,,,,,,,11,11,60,,,
175731,control_change,29,0,1,,,,,,,,,0,11,68,,,
175731,control_change,18,0,4,,,,,,,,,4,11,62,,,
175732,note_on,8,0,10,,,,,,,,,14,,,,42,0
175733,control_change,29,0,2,,,,,,,,,1,11,68,,,
175733,control_change,18,0,5,,,,,,,,,5,11,62,,,
175734,control_change,8,0,8,,,,,,,,,12,11,60,,,
175738,control_change,8,0,9,,,,,,,,,13,11,60,,,
175739,control_change,29,0,3,,,,,,,,,3,11,68,,,
175740,control_change,8,0,10,,,,,,,,,14,11,60,,,
175740,note_on,12,0,6,,,,,,,,,10,,,,75,0
175742,note_on,12,0,7,,,,,,,,,11,,,,63,0
175744,control_change,4,0,6,,,,,,,,,10,11,61,,,
175746,note_on,12,0,8,,,,,,,,,12,,,,58,99
175746,control_change,4,0,7,,,,,,,,,11,11,61,,,
175749,control_change,18,0,4,,,,,,,,,4,11,63,,,
175750,control_change,4,0,8,,,,,,,,,12,11,61,,,
175750,note_on,12,0,9,,,,,,,,,13,,,,54,90
175751,control_change,18,0,5,,,,,,,,,5,11,63,,,
175752,note_on,12,0,10,,,,,,,,,14,,,,42,84
175754,control_change,4,0,9,,,,,,,,,13,11,61,,,
175756,control_change,4,0,10,,,,,,,,,14,11,61,,,
175759,control_change,28,0,1,,,,,,,,,0,11,69,,,
175760,control_change,16,0,6,,,,,,,,,10,11,62,,,
175761,control_change,28,0,2,,,,,,,,,1,11,69,,,
175762,control_change,16,0,7,,,,,,,,,11,11,62,,,
175766,control_change,16,0,8,,,,,,,,,12,11,62,,,
175767,control_change,28,0,3,,,,,,,,,3,11,69,,,
175767,control_change,18,0,4,,,,,,,,,4,11,64,,,
175769,control_change,18,0,5,,,,,,,,,5,11,64,,,
175770,control_change,16,0,9,,,,,,,,,13,11,62,,,
175772,control_change,16,0,10,,,,,,,,,14,11,62,,,
175776,control_change,16,0,6,,,,,,,,,10,11,62,,,
175778,control_change,16,0,7,,,,,,,,,11,11,62,,,
175782,control_change,16,0,8,,,,,,,,,12,11,62,,,
175785,control_change,18,0,4,,,,,,,,,4,11,64,,,
175786,note_on,4,0,8,,,,,,,,,12,,,,58,0
175786,control_change,16,0,9,,,,,,,,,13,11,62,,,
175787,control_change,18,0,5,,,,,,,,,5,11,64,,,
175788,control_change,29,0,1,,,,,,,,,0,11,70,,,
175788,control_change,16,0,10,,,,,,,,,14,11,62,,,
175790,control_change,29,0,2,,,,,,,,,1,11,70,,,
175790,note_on,4,0,9,,,,,,,,,13,,,,54,0
175792,note_on,4,0,10,,,,,,,,,14,,,,42,0
175792,control_change,16,0,6,,,,,,,,,10,11,63,,,
175794,control_change,16,0,7,,,,,,,,,11,11,63,,,
175796,control_change,29,0,3,,,,,,,,,3,11,70,,,
175798,control_change,12,0,8,,,,,,,,,12,11,63,,,
175800,note_on,8,0,6,,,,,,,,,10,,,,75,110
175802,control_change,12,0,9,,,,,,,,,13,11,63,,,
175802,note_on,8,0,7,,,,,,,,,11,,,,63,88
175803,control_change,18,0,4,,,,,,,,,4,11,65,,,
175804,control_change,12,0,10,,,,,,,,,14,11,63,,,
175805,control_change,18,0,5,,,,,,,,,5,11,65,,,
175806,note_on,8,0,8,,,,,,,,,12,,,,58,108
175808,control_change,8,0,6,,,,,,,,,10,11,64,,,
175810,note_on,8,0,9,,,,,,,,,13,,,,54,99
175810,control_change,8,0,7,,,,,,,,,11,11,64,,,
175812,note_on,8,0,10,,,,,,,,,14,,,,42,93
175814,control_change,8,0,8,,,,,,,,,12,11,64,,,
175817,control_change,29,0,1,,,,,,,,,0,11,71,,,
175818,control_change,8,0,9,,,,,,,,,13,11,64,,,
175819,control_change,29,0,2,,,,,,,,,1,11,71,,,
175820,control_change,8,0,10,,,,,,,,,14,11,64,,,
175821,control_change,18,0,4,,,,,,,,,4,11,66,,,
175823,control_change,18,0,5,,,,,,,,,5,11,66,,,
175824,control_change,16,0,6,,,,,,,,,10,11,64,,,
175825,control_change,29,0,3,,,,,,,,,3,11,71,,,
175826,control_change,16,0,7,,,,,,,,,11,11,64,,,
175830,control_change,16,0,8,,,,,,,,,12,11,64,,,
175834,control_change,16,0,9,,,,,,,,,13,11,64,,,
175836,control_change,16,0,10,,,,,,,,,14,11,64,,,
175839,control_change,18,0,4,,,,,,,,,4,11,66,,,
175840,control_change,16,0,6,,,,,,,,,10,11,65,,,
175841,control_change,18,0,5,,,,,,,,,5,11,66,,,
175842,control_change,16,0,7,,,,,,,,,11,11,65,,,
175846,note_on,16,0,8,,,,,,,,,12,,,,58,0
175846,control_change,29,0,1,,,,,,,,,0,11,71,,,
175846,control_change,0,0,8,,,,,,,,,12,11,65,,,
175848,control_change,29,0,2,,,,,,,,,1,11,71,,,
175850,control_change,0,0,9,,,,,,,,,13,11,65,,,
175850,note_on,16,0,9,,,,,,,,,13,,,,54,0
175852,control_change,0,0,10,,,,,,,,,14,11,65,,,
175852,note_on,16,0,10,,,,,,,,,14,,,,42,0
175854,control_change,29,0,3,,,,,,,,,3,11,71,,,
175856,control_change,16,0,6,,,,,,,,,10,11,66,,,
175857,control_change,18,0,4,,,,,,,,,4,11,67,,,
175858,control_change,16,0,7,,,,,,,,,11,11,66,,,
175859,control_change,18,0,5,,,,,,,,,5,11,67,,,
175860,note_on,4,0,6,,,,,,,,,10,,,,75,0
175862,note_on,4,0,7,,,,,,,,,11,,,,63,0
175862,control_change,16,0,8,,,,,,,,,12,11,66,,,
175866,control_change,16,0,9,,,,,,,,,13,11,66,,,
175866,note_on,4,0,8,,,,,,,,,12,,,,58,99
175868,control_change,16,0,10,,,,,,,,,14,11,66,,,
175870,note_on,4,0,9,,,,,,,,,13,,,,54,90
175872,note_on,4,0,10,,,,,,,,,14,,,,42,84
175872,control_change,12,0,6,,,,,,,,,10,11,66,,,
175874,control_change,12,0,7,,,,,,,,,11,11,66,,,
175875,control_change,29,0,1,,,,,,,,,0,11,72,,,
175875,control_change,18,0,4,,,,,,,,,4,11,68,,,
175877,control_change,18,0,5,,,,,,,,,5,11,68,,,
175877,control_change,29,0,2,,,,,,,,,1,11,72,,,
175878,control_change,12,0,8,,,,,,,,,12,11,66,,,
175882,control_change,12,0,9,,,,,,,,,13,11,66,,,
175883,control_change,29,0,3,,,,,,,,,3,11,72,,,
175884,control_change,12,0,10,,,,,,,,,14,11,66,,,
175888,control_change,16,0,6,,,,,,,,,10,11,67,,,
175890,control_change,16,0,7,,,,,,,,,11,11,67,,,
175893,control_change,18,0,4,,,,,,,,,4,11,68,,,
175894,control_change,16,0,8,,,,,,,,,12,11,67,,,
175895,control_change,18,0,5,,,,,,,,,5,11,68,,,
175898,control_change,16,0,9,,,,,,,,,13,11,67,,,
175900,control_change,16,0,10,,,,,,,,,14,11,67,,,
175903,control_change,28,0,1,,,,,,,,,0,11,73,,,
175904,control_change,16,0,6,,,,,,,,,10,11,68,,,
175905,control_change,28,0,2,,,,,,,,,1,11,73,,,
175906,note_on,12,0,8,,,,,,,,,12,,,,58,0
175906,control_change,16,0,7,,,,,,,,,11,11,68,,,
175910,control_change,4,0,8,,,,,,,,,12,11,68,,,
175910,note_on,12,0,9,,,,,,,,,13,,,,54,0
175911,control_change,18,0,4,,,,,,,,,4,11,69,,,
175911,control_change,28,0,3,,,,,,,,,3,11,73,,,
175912,note_on,12,0,10,,,,,,,,,14,,,,42,0
175913,control_change,18,0,5,,,,,,,,,5,11,69,,,
175914,control_change,4,0,9,,,,,,,,,13,11,68,,,
175916,control_change,4,0,10,,,,,,,,,14,11,68,,,
175920,note_on,0,0,6,,,,,,,,,10,,,,76,110
175920,control_change,16,0,6,,,,,,,,,10,11,68,,,
175920,set_tempo,240,1,0,,,,,,267857,,,,,,,,
175922,note_on,0,0,7,,,,,,,,,11,,,,64,88
175922,control_change,16,0,7,,,,,,,,,11,11,68,,,
175923,note_on,20,0,1,,,,,,,,,0,,,,87,0
175923,note_on,0,0,1,,,,,,,,,0,,,,89,97
175925,note_on,0,0,2,,,,,,,,,1,,,,73,97
175925,note_on,0,0,2,,,,,,,,,1,,,,76,97
175925,note_on,20,0,2,,,,,,,,,1,,,,75,0
175925,note_on,0,0,2,,,,,,,,,1,,,,63,0
175926,note_on,0,0,8,,,,,,,,,12,,,,61,108
175926,control_change,16,0,8,,,,,,,,,12,11,68,,,
175929,control_change,18,0,4,,,,,,,,,4,11,70,,,
175930,control_change,16,0,9,,,,,,,,,13,11,68,,,
175930,note_on,0,0,9,,,,,,,,,13,,,,54,99
175931,control_change,18,0,5,,,,,,,,,5,11,70,,,
175932,control_change,16,0,10,,,,,,,,,14,11,68,,,
175932,note_on,0,0,10,,,,,,,,,14,,,,42,93
175932,control_change,9,0,1,,,,,,,,,0,11,73,,,
175934,control_change,9,0,2,,,,,,,,,1,11,73,,,
175936,control_change,16,0,6,,,,,,,,,10,11,69,,,
175938,control_change,16,0,7,,,,,,,,,11,11,69,,,
175940,control_change,29,0,3,,,,,,,,,3,11,73,,,
175942,control_change,16,0,8,,,,,,,,,12,11,69,,,
175946,control_change,16,0,9,,,,,,,,,13,11,69,,,
175947,control_change,18,0,4,,,,,,,,,4,11,71,,,
175948,control_change,16,0,10,,,,,,,,,14,11,69,,,
175949,control_change,18,0,5,,,,,,,,,5,11,71,,,
175952,control_change,16,0,6,,,,,,,,,10,11,70,,,
175954,control_change,16,0,7,,,,,,,,,11,11,70,,,
175958,control_change,16,0,8,,,,,,,,,12,11,70,,,
175961,control_change,29,0,1,,,,,,,,,0,11,74,,,
175962,control_change,16,0,9,,,,,,,,,13,11,70,,,
175963,control_change,29,0,2,,,,,,,,,1,11,74,,,
175964,control_change,16,0,10,,,,,,,,,14,11,70,,,
175965,control_change,18,0,4,,,,,,,,,4,11,71,,,
175966,note_on,8,0,8,,,,,,,,,12,,,,61,0
175967,control_change,18,0,5,,,,,,,,,5,11,71,,,
175968,control_change,16,0,6,,,,,,,,,10,11,71,,,
175969,control_change,29,0,3,,,,,,,,,3,11,74,,,
175970,note_on,8,0,9,,,,,,,,,13,,,,54,0
175970,control_change,16,0,7,,,,,,,,,11,11,71,,,
175972,note_on,8,0,10,,,,,,,,,14,,,,42,0
175974,control_change,8,0,8,,,,,,,,,12,11,71,,,
175978,control_change,8,0,9,,,,,,,,,13,11,71,,,
175980,control_change,8,0,10,,,,,,,,,14,11,71,,,
175980,note_on,12,0,6,,,,,,,,,10,,,,76,0
175982,note_on,12,0,7,,,,,,,,,11,,,,64,0
175983,control_change,18,0,4,,,,,,,,,4,11,72,,,
175984,control_change,4,0,6,,,,,,,,,10,11,71,,,
175985,control_change,18,0,5,,,,,,,,,5,11,72,,,
175986,control_change,4,0,7,,,,,,,,,11,11,71,,,
175986,note_on,12,0,8,,,,,,,,,12,,,,61,99
175990,note_on,12,0,9,,,,,,,,,13,,,,54,90
175990,control_change,4,0,8,,,,,,,,,12,11,71,,,
175990,control_change,29,0,1,,,,,,,,,0,11,75,,,
175992,note_on,12,0,10,,,,,,,,,14,,,,42,84
175992,control_change,29,0,2,,,,,,,,,1,11,75,,,
175994,control_change,4,0,9,,,,,,,,,13,11,71,,,
175996,control_change,4,0,10,,,,,,,,,14,11,71,,,
175998,control_change,29,0,3,,,,,,,,,3,11,75,,,
176000,control_change,16,0,6,,,,,,,,,10,11,72,,,
176001,control_change,18,0,4,,,,,,,,,4,11,73,,,
176002,control_change,16,0,7,,,,,,,,,11,11,72,,,
176003,control_change,18,0,5,,,,,,,,,5,11,73,,,
176006,control_change,16,0,8,,,,,,,,,12,11,72,,,
176010,control_change,16,0,9,,,,,,,,,13,11,72,,,
176012,control_change,16,0,10,,,,,,,,,14,11,72,,,
176016,control_change,16,0,6,,,,,,,,,10,11,73,,,
176018,control_change,16,0,7,,,,,,,,,11,11,73,,,
176019,control_change,29,0,1,,,,,,,,,0,11,75,,,
176019,control_change,18,0,4,,,,,,,,,4,11,73,,,
176021,control_change,29,0,2,,,,,,,,,1,11,75,,,
176021,control_change,18,0,5,,,,,,,,,5,11,73,,,
176022,control_change,16,0,8,,,,,,,,,12,11,73,,,
176026,note_on,4,0,8,,,,,,,,,12,,,,61,0
176026,control_change,16,0,9,,,,,,,,,13,11,73,,,
176027,control_change,29,0,3,,,,,,,,,3,11,75,,,
176028,control_change,16,0,10,,,,,,,,,14,11,73,,,
176030,note_on,4,0,9,,,,,,,,,13,,,,54,0
176032,control_change,16,0,6,,,,,,,,,10,11,73,,,
176032,note_on,4,0,10,,,,,,,,,14,,,,42,0
176034,control_change,16,0,7,,,,,,,,,11,11,73,,,
176037,control_change,18,0,4,,,,,,,,,4,11,74,,,
176038,control_change,12,0,8,,,,,,,,,12,11,73,,,
176039,control_change,18,0,5,,,,,,,,,5,11,74,,,
176040,note_on,8,0,6,,,,,,,,,10,,,,76,110
176042,control_change,12,0,9,,,,,,,,,13,11,73,,,
176042,note_on,8,0,7,,,,,,,,,11,,,,64,88
176044,control_change,12,0,10,,,,,,,,,14,11,73,,,
176046,note_on,8,0,8,,,,,,,,,12,,,,61,108
176047,control_change,28,0,1,,,,,,,,,0,11,76,,,
176048,control_change,8,0,6,,,,,,,,,10,11,74,,,
176049,control_change,28,0,2,,,,,,,,,1,11,76,,,
176050,control_change,8,0,7,,,,,,,,,11,11,74,,,
176050,note_on,8,0,9,,,,,,,,,13,,,,54,99
176052,note_on,8,0,10,,,,,,,,,14,,,,42,93
176054,control_change,8,0,8,,,,,,,,,12,11,74,,,
176055,control_change,28,0,3,,,,,,,,,3,11,76,,,
176055,control_change,18,0,4,,,,,,,,,4,11,75,,,
176057,control_change,18,0,5,,,,,,,,,5,11,75,,,
176058,control_change,8,0,9,,,,,,,,,13,11,74,,,
176060,control_change,8,0,10,,,,,,,,,14,11,74,,,
176064,control_change,16,0,6,,,,,,,,,10,11,75,,,
176066,control_change,16,0,7,,,,,,,,,11,11,75,,,
176070,control_change,16,0,8,,,,,,,,,12,11,75,,,
176073,control_change,18,0,4,,,,,,,,,4,11,75,,,
176074,control_change,16,0,9,,,,,,,,,13,11,75,,,
176075,control_change,18,0,5,,,,,,,,,5,11,75,,,
176076,control_change,16,0,10,,,,,,,,,14,11,75,,,
176076,control_change,29,0,1,,,,,,,,,0,11,77,,,
176078,control_change,29,0,2,,,,,,,,,1,11,77,,,
176080,control_change,16,0,6,,,,,,,,,10,11,75,,,
176082,control_change,16,0,7,,,,,,,,,11,11,75,,,
176084,control_change,29,0,3,,,,,,,,,3,11,77,,,
176086,note_on,16,0,8,,,,,,,,,12,,,,61,0
176086,control_change,0,0,8,,,,,,,,,12,11,75,,,
176090,control_change,0,0,9,,,,,,,,,13,11,75,,,
176090,note_on,16,0,9,,,,,,,,,13,,,,54,0
176091,control_change,18,0,4,,,,,,,,,4,11,76,,,
176092,note_on,16,0,10,,,,,,,,,14,,,,42,0
176092,control_change,0,0,10,,,,,,,,,14,11,75,,,
176093,control_change,18,0,5,,,,,,,,,5,11,76,,,
176096,control_change,16,0,6,,,,,,,,,10,11,76,,,
176098,control_change,16,0,7,,,,,,,,,11,11,76,,,
176100,note_on,4,0,6,,,,,,,,,10,,,,76,0
176102,control_change,16,0,8,,,,,,,,,12,11,76,,,
176102,note_on,4,0,7,,,,,,,,,11,,,,64,0
176105,control_change,29,0,1,,,,,,,,,0,11,77,,,
176106,control_change,16,0,9,,,,,,,,,13,11,76,,,
176106,note_on,4,0,8,,,,,,,,,12,,,,61,99
176107,control_change,29,0,2,,,,,,,,,1,11,77,,,
176108,control_change,16,0,10,,,,,,,,,14,11,76,,,
176109,control_change,18,0,4,,,,,,,,,4,11,77,,,
176110,note_on,4,0,9,,,,,,,,,13,,,,54,90
176111,control_change,18,0,5,,,,,,,,,5,11,77,,,
176112,control_change,12,0,6,,,,,,,,,10,11,77,,,
176112,note_on,4,0,10,,,,,,,,,14,,,,42,84
176113,control_change,29,0,3,,,,,,,,,3,11,77,,,
176114,control_change,12,0,7,,,,,,,,,11,11,77,,,
176118,control_change,12,0,8,,,,,,,,,12,11,77,,,
176122,control_change,12,0,9,,,,,,,,,13,11,77,,,
176124,control_change,12,0,10,,,,,,,,,14,11,77,,,
176127,control_change,18,0,4,,,,,,,,,4,11,77,,,
176128,control_change,16,0,6,,,,,,,,,10,11,77,,,
176129,control_change,18,0,5,,,,,,,,,5,11,77,,,
176130,control_change,16,0,7,,,,,,,,,11,11,77,,,
176134,control_change,29,0,1,,,,,,,,,0,11,78,,,
176134,control_change,16,0,8,,,,,,,,,12,11,77,,,
176136,control_change,29,0,2,,,,,,,,,1,11,78,,,
176138,control_change,16,0,9,,,,,,,,,13,11,77,,,
176140,control_change,16,0,10,,,,,,,,,14,11,77,,,
176142,control_change,29,0,3,,,,,,,,,3,11,78,,,
176144,control_change,16,0,6,,,,,,,,,10,11,78,,,
176145,control_change,18,0,4,,,,,,,,,4,11,78,,,
176146,control_change,16,0,7,,,,,,,,,11,11,78,,,
176146,note_on,12,0,8,,,,,,,,,12,,,,61,0
176147,control_change,18,0,5,,,,,,,,,5,11,78,,,
176150,control_change,4,0,8,,,,,,,,,12,11,78,,,
176150,note_on,12,0,9,,,,,,,,,13,,,,54,0
176152,note_on,12,0,10,,,,,,,,,14,,,,42,0
176154,control_change,4,0,9,,,,,,,,,13,11,78,,,
176156,control_change,4,0,10,,,,,,,,,14,11,78,,,
176158,note_on,24,0,1,,,,,,,,,0,,,,89,0
176160,note_on,24,0,2,,,,,,,,,1,,,,73,0
176160,control_change,16,0,6,,,,,,,,,10,11,79,,,
176160,note_on,0,0,6,,,,,,,,,10,,,,77,110
176160,set_tempo,240,1,0,,,,,,277136,,,,,,,,
176160,note_on,0,0,2,,,,,,,,,1,,,,76,0
176162,note_on,0,0,7,,,,,,,,,11,,,,65,88
176162,control_change,16,0,7,,,,,,,,,11,11,79,,,
176163,control_change,5,0,1,,,,,,,,,0,11,79,,,
176163,control_change,18,0,4,,,,,,,,,4,11,79,,,
176163,note_on,0,0,1,,,,,,,,,0,,,,89,97
176165,control_change,5,0,2,,,,,,,,,1,11,79,,,
176165,note_on,0,0,2,,,,,,,,,1,,,,77,97
176165,note_on,0,0,2,,,,,,,,,1,,,,74,97
176165,control_change,18,0,5,,,,,,,,,5,11,79,,,
176166,control_change,16,0,8,,,,,,,,,12,11,79,,,
176166,note_on,24,0,3,,,,,,,,,3,,,,54,0
176166,note_on,0,0,8,,,,,,,,,12,,,,62,108
176170,control_change,16,0,9,,,,,,,,,13,11,79,,,
176170,note_on,0,0,9,,,,,,,,,13,,,,53,99
176171,note_on,0,0,3,,,,,,,,,3,,,,53,97
176171,control_change,5,0,3,,,,,,,,,3,11,79,,,
176172,note_on,0,0,10,,,,,,,,,14,,,,41,93
176172,control_change,16,0,10,,,,,,,,,14,11,79,,,
176254,note_on,94,0,6,,,,,,,,,10,,,,77,0
176256,note_on,94,0,7,,,,,,,,,11,,,,65,0
176260,note_on,94,0,8,,,,,,,,,12,,,,62,0
176264,note_on,94,0,9,,,,,,,,,13,,,,53,0
176266,note_on,94,0,10,,,,,,,,,14,,,,41,0
176278,note_on,115,0,1,,,,,,,,,0,,,,89,0
176279,note_on,116,0,4,,,,,,,,,4,,,,58,0
176280,control_change,26,0,6,,,,,,,,,10,11,79,,,
176280,note_on,0,0,6,,,,,,,,,10,,,,82,125
176280,note_on,115,0,2,,,,,,,,,1,,,,74,0
176280,note_on,0,0,2,,,,,,,,,1,,,,77,0
176281,note_on,116,0,5,,,,,,,,,5,,,,46,0
176282,control_change,26,0,7,,,,,,,,,11,11,79,,,
176282,note_on,0,0,7,,,,,,,,,11,,,,70,100
176283,note_on,0,0,1,,,,,,,,,0,,,,82,110
176283,control_change,5,0,1,,,,,,,,,0,11,79,,,
176284,control_change,5,0,4,,,,,,,,,4,11,79,,,
176284,note_on,0,0,4,,,,,,,,,4,,,,58,109
176285,note_on,0,0,2,,,,,,,,,1,,,,74,110
176285,note_on,0,0,2,,,,,,,,,1,,,,82,110
176285,control_change,5,0,2,,,,,,,,,1,11,79,,,
176286,note_on,0,0,8,,,,,,,,,12,,,,62,123
176286,note_on,0,0,8,,,,,,,,,12,,,,70,123
176286,control_change,26,0,8,,,,,,,,,12,11,79,,,
176286,note_on,0,0,5,,,,,,,,,5,,,,50,109
176286,control_change,5,0,5,,,,,,,,,5,11,79,,,
176286,note_on,115,0,3,,,,,,,,,3,,,,53,0
176290,control_change,26,0,9,,,,,,,,,13,11,79,,,
176290,note_on,0,0,9,,,,,,,,,13,,,,53,114
176291,control_change,5,0,3,,,,,,,,,3,11,79,,,
176291,note_on,0,0,3,,,,,,,,,3,,,,53,110
176292,note_on,0,0,10,,,,,,,,,14,,,,41,108
176292,control_change,26,0,10,,,,,,,,,14,11,79,,,
176340,control_change,60,0,6,,,,,,,,,10,11,79,,,
176342,control_change,60,0,7,,,,,,,,,11,11,79,,,
176343,control_change,60,0,1,,,,,,,,,0,11,79,,,
176344,control_change,60,0,4,,,,,,,,,4,11,79,,,
176345,control_change,60,0,2,,,,,,,,,1,11,79,,,
176346,control_change,60,0,8,,,,,,,,,12,11,79,,,
176346,control_change,60,0,5,,,,,,,,,5,11,79,,,
176350,control_change,60,0,9,,,,,,,,,13,11,79,,,
176351,control_change,60,0,3,,,,,,,,,3,11,79,,,
176352,control_change,60,0,10,,,,,,,,,14,11,79,,,
176362,control_change,22,0,6,,,,,,,,,10,11,77,,,
176364,control_change,22,0,7,,,,,,,,,11,11,77,,,
176365,control_change,22,0,1,,,,,,,,,0,11,77,,,
176366,control_change,22,0,4,,,,,,,,,4,11,77,,,
176367,control_change,22,0,2,,,,,,,,,1,11,77,,,
176368,control_change,22,0,8,,,,,,,,,12,11,77,,,
176368,control_change,22,0,5,,,,,,,,,5,11,77,,,
176372,control_change,22,0,9,,,,,,,,,13,11,77,,,
176373,control_change,22,0,3,,,,,,,,,3,11,77,,,
176374,control_change,22,0,10,,,,,,,,,14,11,77,,,
176377,control_change,15,0,6,,,,,,,,,10,11,75,,,
176379,control_change,15,0,7,,,,,,,,,11,11,75,,,
176380,control_change,15,0,1,,,,,,,,,0,11,75,,,
176381,control_change,15,0,4,,,,,,,,,4,11,75,,,
176382,control_change,15,0,2,,,,,,,,,1,11,75,,,
176383,control_change,15,0,5,,,,,,,,,5,11,75,,,
176383,control_change,15,0,8,,,,,,,,,12,11,75,,,
176387,control_change,15,0,9,,,,,,,,,13,11,75,,,
176388,control_change,15,0,3,,,,,,,,,3,11,75,,,
176389,control_change,15,0,10,,,,,,,,,14,11,75,,,
176392,control_change,15,0,6,,,,,,,,,10,11,74,,,
176394,control_change,15,0,7,,,,,,,,,11,11,74,,,
176395,control_change,15,0,1,,,,,,,,,0,11,74,,,
176396,control_change,15,0,4,,,,,,,,,4,11,74,,,
176397,control_change,15,0,2,,,,,,,,,1,11,74,,,
176398,control_change,15,0,8,,,,,,,,,12,11,74,,,
176398,control_change,15,0,5,,,,,,,,,5,11,74,,,
176400,set_tempo,240,1,0,,,,,,265487,,,,,,,,
176402,control_change,15,0,9,,,,,,,,,13,11,74,,,
176403,control_change,15,0,3,,,,,,,,,3,11,74,,,
176404,control_change,15,0,10,,,,,,,,,14,11,74,,,
176407,control_change,15,0,6,,,,,,,,,10,11,73,,,
176409,control_change,15,0,7,,,,,,,,,11,11,73,,,
176410,control_change,15,0,1,,,,,,,,,0,11,73,,,
176411,control_change,15,0,4,,,,,,,,,4,11,73,,,
176412,control_change,15,0,2,,,,,,,,,1,11,73,,,
176413,control_change,15,0,5,,,,,,,,,5,11,73,,,
176413,control_change,15,0,8,,,,,,,,,12,11,73,,,
176417,control_change,15,0,9,,,,,,,,,13,11,73,,,
176418,control_change,15,0,3,,,,,,,,,3,11,73,,,
176419,control_change,15,0,10,,,,,,,,,14,11,73,,,
176429,control_change,22,0,6,,,,,,,,,10,11,71,,,
176431,control_change,22,0,7,,,,,,,,,11,11,71,,,
176432,control_change,22,0,1,,,,,,,,,0,11,71,,,
176433,control_change,22,0,4,,,,,,,,,4,11,71,,,
176434,control_change,22,0,2,,,,,,,,,1,11,71,,,
176435,control_change,22,0,5,,,,,,,,,5,11,71,,,
176435,control_change,22,0,8,,,,,,,,,12,11,71,,,
176439,control_change,22,0,9,,,,,,,,,13,11,71,,,
176440,control_change,22,0,3,,,,,,,,,3,11,71,,,
176441,control_change,22,0,10,,,,,,,,,14,11,71,,,
176444,control_change,15,0,6,,,,,,,,,10,11,69,,,
176446,control_change,15,0,7,,,,,,,,,11,11,69,,,
176447,control_change,15,0,1,,,,,,,,,0,11,69,,,
176448,control_change,15,0,4,,,,,,,,,4,11,69,,,
176449,control_change,15,0,2,,,,,,,,,1,11,69,,,
176450,control_change,15,0,5,,,,,,,,,5,11,69,,,
176450,control_change,15,0,8,,,,,,,,,12,11,69,,,
176454,control_change,15,0,9,,,,,,,,,13,11,69,,,
176455,control_change,15,0,3,,,,,,,,,3,11,69,,,
176456,control_change,15,0,10,,,,,,,,,14,11,69,,,
176459,control_change,15,0,6,,,,,,,,,10,11,68,,,
176461,control_change,15,0,7,,,,,,,,,11,11,68,,,
176462,control_change,15,0,1,,,,,,,,,0,11,68,,,
176463,control_change,15,0,4,,,,,,,,,4,11,68,,,
176464,control_change,15,0,2,,,,,,,,,1,11,68,,,
176465,control_change,15,0,8,,,,,,,,,12,11,68,,,
176465,control_change,15,0,5,,,,,,,,,5,11,68,,,
176469,control_change,15,0,9,,,,,,,,,13,11,68,,,
176470,control_change,15,0,3,,,,,,,,,3,11,68,,,
176471,control_change,15,0,10,,,,,,,,,14,11,68,,,
176474,control_change,15,0,6,,,,,,,,,10,11,66,,,
176476,control_change,15,0,7,,,,,,,,,11,11,66,,,
176477,control_change,15,0,1,,,,,,,,,0,11,66,,,
176478,control_change,15,0,4,,,,,,,,,4,11,66,,,
176479,control_change,15,0,2,,,,,,,,,1,11,66,,,
176480,control_change,15,0,8,,,,,,,,,12,11,66,,,
176480,control_change,15,0,5,,,,,,,,,5,11,66,,,
176484,control_change,15,0,9,,,,,,,,,13,11,66,,,
176485,control_change,15,0,3,,,,,,,,,3,11,66,,,
176486,control_change,15,0,10,,,,,,,,,14,11,66,,,
176489,control_change,15,0,6,,,,,,,,,10,11,65,,,
176491,control_change,15,0,7,,,,,,,,,11,11,65,,,
176492,control_change,15,0,1,,,,,,,,,0,11,65,,,
176493,control_change,15,0,4,,,,,,,,,4,11,65,,,
176494,control_change,15,0,2,,,,,,,,,1,11,65,,,
176495,control_change,15,0,5,,,,,,,,,5,11,65,,,
176495,control_change,15,0,8,,,,,,,,,12,11,65,,,
176499,control_change,15,0,9,,,,,,,,,13,11,65,,,
176500,control_change,15,0,3,,,,,,,,,3,11,65,,,
176501,control_change,15,0,10,,,,,,,,,14,11,65,,,
176503,control_change,14,0,6,,,,,,,,,10,11,69,,,
176505,control_change,14,0,7,,,,,,,,,11,11,69,,,
176506,control_change,14,0,1,,,,,,,,,0,11,69,,,
176507,control_change,14,0,4,,,,,,,,,4,11,69,,,
176508,control_change,14,0,2,,,,,,,,,1,11,69,,,
176509,control_change,14,0,5,,,,,,,,,5,11,69,,,
176509,control_change,14,0,8,,,,,,,,,12,11,69,,,
176513,control_change,14,0,9,,,,,,,,,13,11,69,,,
176514,control_change,14,0,3,,,,,,,,,3,11,69,,,
176515,control_change,14,0,10,,,,,,,,,14,11,69,,,
176515,note_on,12,0,6,,,,,,,,,10,,,,82,0
176516,control_change,1,0,6,,,,,,,,,10,11,73,,,
176517,note_on,12,0,7,,,,,,,,,11,,,,70,0
176518,note_on,12,0,1,,,,,,,,,0,,,,82,0
176518,control_change,1,0,7,,,,,,,,,11,11,73,,,
176519,control_change,1,0,1,,,,,,,,,0,11,73,,,
176519,note_on,12,0,4,,,,,,,,,4,,,,58,0
176520,note_on,4,0,6,,,,,,,,,10,,,,77,110
176520,note_on,12,0,2,,,,,,,,,1,,,,82,0
176520,note_on,0,0,2,,,,,,,,,1,,,,74,0
176520,control_change,1,0,4,,,,,,,,,4,11,73,,,
176521,note_on,0,0,8,,,,,,,,,12,,,,62,0
176521,control_change,1,0,2,,,,,,,,,1,11,73,,,
176521,note_on,12,0,8,,,,,,,,,12,,,,70,0
176521,note_on,12,0,5,,,,,,,,,5,,,,50,0
176522,note_on,4,0,7,,,,,,,,,11,,,,65,88
176522,control_change,1,0,8,,,,,,,,,12,11,73,,,
176522,control_change,1,0,5,,,,,,,,,5,11,73,,,
176523,note_on,4,0,1,,,,,,,,,0,,,,86,97
176524,note_on,4,0,4,,,,,,,,,4,,,,62,96
176525,note_on,4,0,2,,,,,,,,,1,,,,70,97
176525,note_on,0,0,2,,,,,,,,,1,,,,74,97
176525,note_on,12,0,9,,,,,,,,,13,,,,53,0
176526,note_on,12,0,3,,,,,,,,,3,,,,53,0
176526,control_change,1,0,9,,,,,,,,,13,11,73,,,
176526,note_on,4,0,5,,,,,,,,,5,,,,58,96
176526,note_on,4,0,8,,,,,,,,,12,,,,58,108
176527,note_on,12,0,10,,,,,,,,,14,,,,41,0
176527,control_change,1,0,3,,,,,,,,,3,11,73,,,
176528,control_change,1,0,10,,,,,,,,,14,11,73,,,
176529,control_change,9,0,6,,,,,,,,,10,11,77,,,
176530,note_on,4,0,9,,,,,,,,,13,,,,50,99
176531,note_on,4,0,3,,,,,,,,,3,,,,50,97
176531,control_change,9,0,7,,,,,,,,,11,11,77,,,
176532,note_on,4,0,10,,,,,,,,,14,,,,38,93
176532,control_change,9,0,1,,,,,,,,,0,11,77,,,
176533,control_change,9,0,4,,,,,,,,,4,11,77,,,
176534,control_change,9,0,2,,,,,,,,,1,11,77,,,
176535,control_change,9,0,5,,,,,,,,,5,11,77,,,
176535,control_change,9,0,8,,,,,,,,,12,11,77,,,
176539,control_change,9,0,9,,,,,,,,,13,11,77,,,
176540,control_change,9,0,3,,,,,,,,,3,11,77,,,
176541,control_change,9,0,10,,,,,,,,,14,11,77,,,
176580,note_on,51,0,6,,,,,,,,,10,,,,77,0
176580,note_on,0,0,6,,,,,,,,,10,,,,74,110
176582,note_on,0,0,7,,,,,,,,,11,,,,62,88
176582,note_on,51,0,7,,,,,,,,,11,,,,65,0
176619,note_on,39,0,6,,,,,,,,,10,,,,74,0
176621,note_on,39,0,7,,,,,,,,,11,,,,62,0
176638,note_on,106,0,1,,,,,,,,,0,,,,86,0
176639,note_on,106,0,4,,,,,,,,,4,,,,62,0
176640,set_tempo,240,1,0,,,,,,274600,,,,,,,,
176640,note_on,0,0,2,,,,,,,,,1,,,,70,0
176640,note_on,21,0,6,,,,,,,,,10,,,,72,110
176640,note_on,106,0,2,,,,,,,,,1,,,,74,0
176641,note_on,106,0,8,,,,,,,,,12,,,,58,0
176641,note_on,106,0,5,,,,,,,,,5,,,,58,0
176642,note_on,21,0,7,,,,,,,,,11,,,,60,88
176643,note_on,5,0,1,,,,,,,,,0,,,,84,97
176644,note_on,5,0,4,,,,,,,,,4,,,,60,96
176645,note_on,5,0,2,,,,,,,,,1,,,,70,97
176645,note_on,106,0,9,,,,,,,,,13,,,,50,0
176645,note_on,0,0,2,,,,,,,,,1,,,,72,97
176646,note_on,106,0,3,,,,,,,,,3,,,,50,0
176646,note_on,5,0,8,,,,,,,,,12,,,,55,108
176646,note_on,5,0,5,,,,,,,,,5,,,,58,96
176647,note_on,106,0,10,,,,,,,,,14,,,,38,0
176650,note_on,5,0,9,,,,,,,,,13,,,,51,99
176651,note_on,5,0,3,,,,,,,,,3,,,,51,97
176652,note_on,5,0,10,,,,,,,,,14,,,,39,93
176700,note_on,60,0,6,,,,,,,,,10,,,,72,0
176700,note_on,0,0,6,,,,,,,,,10,,,,74,110
176702,note_on,60,0,7,,,,,,,,,11,,,,60,0
176702,note_on,0,0,7,,,,,,,,,11,,,,62,88
176703,note_on,60,0,1,,,,,,,,,0,,,,84,0
176704,note_on,60,0,4,,,,,,,,,4,,,,60,0
176705,note_on,0,0,2,,,,,,,,,1,,,,70,0
176705,note_on,60,0,2,,,,,,,,,1,,,,72,0
176706,note_on,60,0,5,,,,,,,,,5,,,,58,0
176706,note_on,60,0,8,,,,,,,,,12,,,,55,0
176710,note_on,60,0,9,,,,,,,,,13,,,,51,0
176711,note_on,60,0,3,,,,,,,,,3,,,,51,0
176712,note_on,60,0,10,,,,,,,,,14,,,,39,0
176739,note_on,39,0,6,,,,,,,,,10,,,,74,0
176741,note_on,39,0,7,,,,,,,,,11,,,,62,0
176760,note_on,21,0,6,,,,,,,,,10,,,,75,110
176762,note_on,21,0,7,,,,,,,,,11,,,,63,88
176763,note_on,60,0,1,,,,,,,,,0,,,,84,97
176764,note_on,60,0,4,,,,,,,,,4,,,,60,96
176765,note_on,0,0,2,,,,,,,,,1,,,,72,97
176765,note_on,60,0,2,,,,,,,,,1,,,,70,97
176766,note_on,60,0,8,,,,,,,,,12,,,,55,108
176766,note_on,60,0,5,,,,,,,,,5,,,,58,96
176770,note_on,60,0,9,,,,,,,,,13,,,,51,99
176771,note_on,60,0,3,,,,,,,,,3,,,,51,97
176772,note_on,60,0,10,,,,,,,,,14,,,,39,93
176795,note_on,35,0,6,,,,,,,,,10,,,,75,0
176797,note_on,35,0,7,,,,,,,,,11,,,,63,0
176820,note_on,25,0,6,,,,,,,,,10,,,,79,110
176822,note_on,25,0,7,,,,,,,,,11,,,,67,88
176823,note_on,60,0,1,,,,,,,,,0,,,,84,0
176824,note_on,60,0,4,,,,,,,,,4,,,,60,0
176825,note_on,60,0,2,,,,,,,,,1,,,,72,0
176825,note_on,0,0,2,,,,,,,,,1,,,,70,0
176826,note_on,60,0,8,,,,,,,,,12,,,,55,0
176826,note_on,60,0,5,,,,,,,,,5,,,,58,0
176830,note_on,60,0,9,,,,,,,,,13,,,,51,0
176831,note_on,60,0,3,,,,,,,,,3,,,,51,0
176832,note_on,60,0,10,,,,,,,,,14,,,,39,0
176855,note_on,35,0,6,,,,,,,,,10,,,,79,0
176857,note_on,35,0,7,,,,,,,,,11,,,,67,0
176880,set_tempo,240,1,0,,,,,,264901,,,,,,,,
176880,note_on,25,0,6,,,,,,,,,10,,,,77,110
176882,note_on,25,0,7,,,,,,,,,11,,,,65,88
176883,note_on,60,0,1,,,,,,,,,0,,,,89,97
176884,note_on,60,0,4,,,,,,,,,4,,,,65,96
176885,note_on,60,0,2,,,,,,,,,1,,,,69,97
176885,note_on,0,0,2,,,,,,,,,1,,,,77,97
176886,note_on,60,0,8,,,,,,,,,12,,,,57,108
176886,note_on,60,0,5,,,,,,,,,5,,,,53,96
176890,note_on,60,0,9,,,,,,,,,13,,,,53,99
176891,note_on,60,0,3,,,,,,,,,3,,,,53,97
176892,note_on,60,0,10,,,,,,,,,14,,,,41,93
176940,note_on,60,0,6,,,,,,,,,10,,,,77,0
176940,note_on,0,0,6,,,,,,,,,10,,,,75,110
176942,note_on,0,0,7,,,,,,,,,11,,,,63,88
176942,note_on,60,0,7,,,,,,,,,11,,,,65,0
176943,note_on,60,0,1,,,,,,,,,0,,,,89,0
176944,note_on,60,0,4,,,,,,,,,4,,,,65,0
176945,note_on,0,0,2,,,,,,,,,1,,,,69,0
176945,note_on,60,0,2,,,,,,,,,1,,,,77,0
176946,note_on,60,0,5,,,,,,,,,5,,,,53,0
176946,note_on,60,0,8,,,,,,,,,12,,,,57,0
176950,note_on,60,0,9,,,,,,,,,13,,,,53,0
176951,note_on,60,0,3,,,,,,,,,3,,,,53,0
176952,note_on,60,0,10,,,,,,,,,14,,,,41,0
176979,note_on,39,0,6,,,,,,,,,10,,,,75,0
176981,note_on,39,0,7,,,,,,,,,11,,,,63,0
177000,note_on,21,0,6,,,,,,,,,10,,,,74,110
177002,note_on,21,0,7,,,,,,,,,11,,,,62,88
177003,note_on,60,0,1,,,,,,,,,0,,,,89,97
177004,note_on,60,0,4,,,,,,,,,4,,,,65,96
177005,note_on,0,0,2,,,,,,,,,1,,,,69,97
177005,note_on,60,0,2,,,,,,,,,1,,,,77,97
177006,note_on,60,0,5,,,,,,,,,5,,,,53,96
177006,note_on,60,0,8,,,,,,,,,12,,,,57,108
177010,note_on,60,0,9,,,,,,,,,13,,,,53,99
177011,note_on,60,0,3,,,,,,,,,3,,,,53,97
177012,note_on,60,0,10,,,,,,,,,14,,,,41,93
177035,note_on,35,0,6,,,,,,,,,10,,,,74,0
177037,note_on,35,0,7,,,,,,,,,11,,,,62,0
177060,note_on,0,0,6,,,,,,,,,10,,,,72,110
177060,set_tempo,180,1,0,,,,,,330579,,,,,,,,
177060,control_change,25,0,6,,,,,,,,,10,11,79,,,
177062,control_change,25,0,7,,,,,,,,,11,11,79,,,
177062,note_on,0,0,7,,,,,,,,,11,,,,60,88
177063,note_on,60,0,1,,,,,,,,,0,,,,89,0
177064,note_on,60,0,4,,,,,,,,,4,,,,65,0
177065,note_on,60,0,2,,,,,,,,,1,,,,69,0
177065,note_on,0,0,2,,,,,,,,,1,,,,77,0
177066,note_on,60,0,5,,,,,,,,,5,,,,53,0
177066,control_change,0,0,8,,,,,,,,,12,11,79,,,
177066,note_on,60,0,8,,,,,,,,,12,,,,57,0
177070,control_change,10,0,6,,,,,,,,,10,11,75,,,
177070,note_on,60,0,9,,,,,,,,,13,,,,53,0
177070,control_change,0,0,9,,,,,,,,,13,11,79,,,
177071,note_on,60,0,3,,,,,,,,,3,,,,53,0
177072,control_change,0,0,10,,,,,,,,,14,11,79,,,
177072,note_on,60,0,10,,,,,,,,,14,,,,41,0
177072,control_change,10,0,7,,,,,,,,,11,11,75,,,
177076,control_change,10,0,8,,,,,,,,,12,11,75,,,
177080,control_change,10,0,9,,,,,,,,,13,11,75,,,
177081,control_change,11,0,6,,,,,,,,,10,11,71,,,
177082,control_change,10,0,10,,,,,,,,,14,11,75,,,
177083,control_change,11,0,7,,,,,,,,,11,11,71,,,
177087,control_change,11,0,8,,,,,,,,,12,11,71,,,
177087,control_change,6,0,6,,,,,,,,,10,11,68,,,
177089,control_change,6,0,7,,,,,,,,,11,11,68,,,
177091,control_change,11,0,9,,,,,,,,,13,11,71,,,
177093,control_change,6,0,8,,,,,,,,,12,11,68,,,
177093,control_change,11,0,10,,,,,,,,,14,11,71,,,
177095,note_on,8,0,6,,,,,,,,,10,,,,72,0
177097,control_change,2,0,6,,,,,,,,,10,11,64,,,
177097,control_change,6,0,9,,,,,,,,,13,11,68,,,
177097,note_on,8,0,7,,,,,,,,,11,,,,60,0
177099,control_change,6,0,10,,,,,,,,,14,11,68,,,
177099,control_change,2,0,7,,,,,,,,,11,11,64,,,
177103,control_change,10,0,8,,,,,,,,,12,11,64,,,
177107,control_change,10,0,9,,,,,,,,,13,11,64,,,
177108,control_change,11,0,6,,,,,,,,,10,11,60,,,
177109,control_change,10,0,10,,,,,,,,,14,11,64,,,
177110,control_change,11,0,7,,,,,,,,,11,11,60,,,
177114,control_change,11,0,8,,,,,,,,,12,11,60,,,
177114,control_change,6,0,6,,,,,,,,,10,11,57,,,
177116,control_change,6,0,7,,,,,,,,,11,11,57,,,
177118,control_change,11,0,9,,,,,,,,,13,11,60,,,
177120,control_change,6,0,8,,,,,,,,,12,11,57,,,
177120,set_tempo,60,1,0,,,,,,285714,,,,,,,,
177120,note_on,6,0,6,,,,,,,,,10,,,,70,110
177120,control_change,11,0,10,,,,,,,,,14,11,60,,,
177122,note_on,6,0,7,,,,,,,,,11,,,,58,88
177123,note_on,0,0,1,,,,,,,,,0,,,,82,97
177123,control_change,60,0,1,,,,,,,,,0,11,42,,,
177124,note_on,0,0,4,,,,,,,,,4,,,,58,96
177124,control_change,6,0,9,,,,,,,,,13,11,57,,,
177124,control_change,60,0,4,,,,,,,,,4,11,42,,,
177125,note_on,0,0,2,,,,,,,,,1,,,,73,97
177125,control_change,60,0,2,,,,,,,,,1,11,42,,,
177125,note_on,0,0,2,,,,,,,,,1,,,,61,97
177126,note_on,0,0,5,,,,,,,,,5,,,,58,96
177126,control_change,60,0,5,,,,,,,,,5,11,42,,,
177126,control_change,6,0,10,,,,,,,,,14,11,57,,,
177126,note_on,6,0,8,,,,,,,,,12,,,,58,108
177129,control_change,9,0,6,,,,,,,,,10,11,54,,,
177130,note_on,6,0,9,,,,,,,,,13,,,,54,99
177131,control_change,60,0,3,,,,,,,,,3,11,42,,,
177131,control_change,9,0,7,,,,,,,,,11,11,54,,,
177131,note_on,0,0,3,,,,,,,,,3,,,,54,97
177132,note_on,6,0,10,,,,,,,,,14,,,,42,93
177135,control_change,9,0,8,,,,,,,,,12,11,54,,,
177138,control_change,9,0,6,,,,,,,,,10,11,51,,,
177139,control_change,9,0,9,,,,,,,,,13,11,54,,,
177140,control_change,9,0,7,,,,,,,,,11,11,51,,,
177141,control_change,9,0,10,,,,,,,,,14,11,54,,,
177144,control_change,9,0,8,,,,,,,,,12,11,51,,,
177147,control_change,9,0,6,,,,,,,,,10,11,48,,,
177148,control_change,9,0,9,,,,,,,,,13,11,51,,,
177149,control_change,9,0,7,,,,,,,,,11,11,48,,,
177150,control_change,9,0,10,,,,,,,,,14,11,51,,,
177153,control_change,9,0,8,,,,,,,,,12,11,48,,,
177156,control_change,9,0,6,,,,,,,,,10,11,45,,,
177157,control_change,9,0,9,,,,,,,,,13,11,48,,,
177158,control_change,9,0,7,,,,,,,,,11,11,45,,,
177159,control_change,9,0,10,,,,,,,,,14,11,48,,,
177162,control_change,9,0,8,,,,,,,,,12,11,45,,,
177165,control_change,9,0,6,,,,,,,,,10,11,42,,,
177166,control_change,9,0,9,,,,,,,,,13,11,45,,,
177167,control_change,9,0,7,,,,,,,,,11,11,42,,,
177168,control_change,9,0,10,,,,,,,,,14,11,45,,,
177171,control_change,9,0,8,,,,,,,,,12,11,42,,,
177175,control_change,9,0,9,,,,,,,,,13,11,42,,,
177177,control_change,9,0,10,,,,,,,,,14,11,42,,,
177214,note_on,49,0,6,,,,,,,,,10,,,,70,0
177216,note_on,49,0,7,,,,,,,,,11,,,,58,0
177240,note_on,26,0,6,,,,,,,,,10,,,,70,110
177242,note_on,26,0,7,,,,,,,,,11,,,,58,88
177243,note_on,120,0,1,,,,,,,,,0,,,,82,0
177244,note_on,120,0,4,,,,,,,,,4,,,,58,0
177246,note_on,120,0,5,,,,,,,,,5,,,,58,0
177251,note_on,120,0,3,,,,,,,,,3,,,,54,0
177334,note_on,94,0,6,,,,,,,,,10,,,,70,0
177336,note_on,94,0,7,,,,,,,,,11,,,,58,0
177360,note_on,26,0,6,,,,,,,,,10,,,,73,110
177360,set_tempo,240,1,0,,,,,,272727,,,,,,,,
177362,note_on,26,0,7,,,,,,,,,11,,,,61,88
177366,note_on,195,0,8,,,,,,,,,12,,,,58,0
177366,note_on,0,0,8,,,,,,,,,12,,,,56,108
177370,note_on,0,0,9,,,,,,,,,13,,,,53,99
177370,note_on,195,0,9,,,,,,,,,13,,,,54,0
177372,note_on,0,0,10,,,,,,,,,14,,,,41,93
177372,note_on,195,0,10,,,,,,,,,14,,,,42,0
177375,note_on,0,0,6,,,,,,,,,10,,,,71,110
177375,note_on,15,0,6,,,,,,,,,10,,,,73,0
177377,note_on,0,0,7,,,,,,,,,11,,,,59,88
177377,note_on,15,0,7,,,,,,,,,11,,,,61,0
177420,note_on,0,0,6,,,,,,,,,10,,,,70,110
177420,note_on,45,0,6,,,,,,,,,10,,,,71,0
177422,note_on,0,0,7,,,,,,,,,11,,,,58,88
177422,note_on,45,0,7,,,,,,,,,11,,,,59,0
177480,note_on,0,0,6,,,,,,,,,10,,,,71,110
177480,note_on,60,0,6,,,,,,,,,10,,,,70,0
177482,note_on,60,0,7,,,,,,,,,11,,,,58,0
177482,note_on,0,0,7,,,,,,,,,11,,,,59,88
177540,note_on,60,0,6,,,,,,,,,10,,,,71,0
177540,note_on,0,0,6,,,,,,,,,10,,,,73,110
177542,note_on,0,0,7,,,,,,,,,11,,,,61,88
177542,note_on,60,0,7,,,,,,,,,11,,,,59,0
177579,note_on,39,0,6,,,,,,,,,10,,,,73,0
177581,note_on,39,0,7,,,,,,,,,11,,,,61,0
177600,note_on,21,0,6,,,,,,,,,10,,,,70,110
177600,set_tempo,240,1,0,,,,,,285714,,,,,,,,
177601,note_on,235,0,8,,,,,,,,,12,,,,56,0
177602,note_on,21,0,7,,,,,,,,,11,,,,58,88
177605,control_change,480,0,2,,,,,,,,,1,11,47,,,
177605,note_on,235,0,9,,,,,,,,,13,,,,53,0
177606,note_on,5,0,8,,,,,,,,,12,,,,58,108
177607,note_on,235,0,10,,,,,,,,,14,,,,41,0
177610,note_on,5,0,9,,,,,,,,,13,,,,54,99
177612,note_on,5,0,10,,,,,,,,,14,,,,42,93
177653,control_change,48,0,2,,,,,,,,,1,11,48,,,
177694,note_on,94,0,6,,,,,,,,,10,,,,70,0
177696,note_on,94,0,7,,,,,,,,,11,,,,58,0
177701,control_change,48,0,2,,,,,,,,,1,11,49,,,
177720,note_on,26,0,6,,,,,,,,,10,,,,70,110
177722,note_on,26,0,7,,,,,,,,,11,,,,58,88
177749,control_change,48,0,2,,,,,,,,,1,11,50,,,
177797,control_change,48,0,2,,,,,,,,,1,11,51,,,
177814,note_on,94,0,6,,,,,,,,,10,,,,70,0
177816,note_on,94,0,7,,,,,,,,,11,,,,58,0
177840,set_tempo,240,1,0,,,,,,272727,,,,,,,,
177840,note_on,26,0,6,,,,,,,,,10,,,,73,110
177842,note_on,26,0,7,,,,,,,,,11,,,,61,88
177845,control_change,48,0,2,,,,,,,,,1,11,52,,,
177846,note_on,240,0,8,,,,,,,,,12,,,,58,0
177846,note_on,0,0,8,,,,,,,,,12,,,,56,108
177850,note_on,240,0,9,,,,,,,,,13,,,,54,0
177850,note_on,0,0,9,,,,,,,,,13,,,,53,99
177852,note_on,0,0,10,,,,,,,,,14,,,,41,93
177852,note_on,240,0,10,,,,,,,,,14,,,,42,0
177855,note_on,15,0,6,,,,,,,,,10,,,,73,0
177855,note_on,0,0,6,,,,,,,,,10,,,,71,110
177857,note_on,0,0,7,,,,,,,,,11,,,,59,88
177857,note_on,15,0,7,,,,,,,,,11,,,,61,0
177893,control_change,48,0,2,,,,,,,,,1,11,53,,,
177900,note_on,45,0,6,,,,,,,,,10,,,,71,0
177900,note_on,0,0,6,,,,,,,,,10,,,,70,110
177902,note_on,45,0,7,,,,,,,,,11,,,,59,0
177902,note_on,0,0,7,,,,,,,,,11,,,,58,88
177941,control_change,48,0,2,,,,,,,,,1,11,54,,,
177960,note_on,60,0,6,,,,,,,,,10,,,,70,0
177960,note_on,0,0,6,,,,,,,,,10,,,,71,110
177962,note_on,0,0,7,,,,,,,,,11,,,,59,88
177962,note_on,60,0,7,,,,,,,,,11,,,,58,0
177989,control_change,48,0,2,,,,,,,,,1,11,55,,,
178020,note_on,0,0,6,,,,,,,,,10,,,,73,110
178020,note_on,60,0,6,,,,,,,,,10,,,,71,0
178022,note_on,60,0,7,,,,,,,,,11,,,,59,0
178022,note_on,0,0,7,,,,,,,,,11,,,,61,88
178037,control_change,48,0,2,,,,,,,,,1,11,56,,,
178080,note_on,0,0,6,,,,,,,,,10,,,,70,110
178080,set_tempo,240,1,0,,,,,,282353,,,,,,,,
178080,note_on,60,0,6,,,,,,,,,10,,,,73,0
178081,note_on,235,0,8,,,,,,,,,12,,,,56,0
178082,note_on,0,0,7,,,,,,,,,11,,,,58,88
178082,note_on,60,0,7,,,,,,,,,11,,,,61,0
178085,control_change,48,0,2,,,,,,,,,1,11,57,,,
178085,note_on,235,0,9,,,,,,,,,13,,,,53,0
178086,note_on,5,0,8,,,,,,,,,12,,,,58,108
178087,note_on,235,0,10,,,,,,,,,14,,,,41,0
178090,note_on,5,0,9,,,,,,,,,13,,,,54,99
178092,note_on,5,0,10,,,,,,,,,14,,,,42,93
178125,note_on,39,0,8,,,,,,,,,12,,,,58,0
178129,note_on,39,0,9,,,,,,,,,13,,,,54,0
178131,note_on,39,0,10,,,,,,,,,14,,,,42,0
178146,note_on,21,0,8,,,,,,,,,12,,,,58,99
178150,note_on,21,0,9,,,,,,,,,13,,,,54,90
178152,note_on,21,0,10,,,,,,,,,14,,,,42,84
178174,note_on,94,0,6,,,,,,,,,10,,,,70,0
178176,note_on,94,0,7,,,,,,,,,11,,,,58,0
178185,note_on,39,0,8,,,,,,,,,12,,,,58,0
178189,note_on,39,0,9,,,,,,,,,13,,,,54,0
178191,note_on,39,0,10,,,,,,,,,14,,,,42,0
178200,note_on,26,0,6,,,,,,,,,10,,,,70,110
178202,note_on,26,0,7,,,,,,,,,11,,,,58,88
178206,note_on,21,0,8,,,,,,,,,12,,,,58,108
178210,note_on,21,0,9,,,,,,,,,13,,,,54,99
178212,note_on,21,0,10,,,,,,,,,14,,,,42,93
178245,note_on,39,0,8,,,,,,,,,12,,,,58,0
178249,note_on,39,0,9,,,,,,,,,13,,,,54,0
178251,note_on,39,0,10,,,,,,,,,14,,,,42,0
178266,note_on,21,0,8,,,,,,,,,12,,,,58,99
178270,note_on,21,0,9,,,,,,,,,13,,,,54,90
178272,note_on,21,0,10,,,,,,,,,14,,,,42,84
178294,note_on,94,0,6,,,,,,,,,10,,,,70,0
178296,note_on,94,0,7,,,,,,,,,11,,,,58,0
178305,note_on,39,0,8,,,,,,,,,12,,,,58,0
178309,note_on,39,0,9,,,,,,,,,13,,,,54,0
178311,note_on,39,0,10,,,,,,,,,14,,,,42,0
178320,set_tempo,240,1,0,,,,,,269663,,,,,,,,
178320,control_change,26,0,6,,,,,,,,,10,11,42,,,
178320,note_on,0,0,6,,,,,,,,,10,,,,74,110
178320,note_on,0,0,2,,,,,,,,,1,,,,61,0
178320,note_on,235,0,2,,,,,,,,,1,,,,73,0
178322,control_change,26,0,7,,,,,,,,,11,11,42,,,
178322,note_on,0,0,7,,,,,,,,,11,,,,62,88
178323,control_change,1080,0,1,,,,,,,,,0,11,62,,,
178323,note_on,0,0,1,,,,,,,,,0,,,,86,97
178324,control_change,1080,0,4,,,,,,,,,4,11,47,,,
178324,note_on,0,0,4,,,,,,,,,4,,,,58,96
178325,note_on,0,0,2,,,,,,,,,1,,,,74,97
178325,control_change,5,0,2,,,,,,,,,1,11,62,,,
178325,note_on,0,0,2,,,,,,,,,1,,,,62,97
178326,note_on,0,0,5,,,,,,,,,5,,,,46,96
178326,control_change,1080,0,5,,,,,,,,,5,11,47,,,
178326,note_on,0,0,8,,,,,,,,,12,,,,58,108
178326,control_change,21,0,8,,,,,,,,,12,11,42,,,
178330,note_on,0,0,9,,,,,,,,,13,,,,54,99
178330,control_change,21,0,9,,,,,,,,,13,11,42,,,
178331,control_change,1080,0,3,,,,,,,,,3,11,62,,,
178331,note_on,0,0,3,,,,,,,,,3,,,,54,97
178332,control_change,21,0,10,,,,,,,,,14,11,42,,,
178332,note_on,0,0,10,,,,,,,,,14,,,,42,93
178336,control_change,16,0,6,,,,,,,,,10,11,43,,,
178338,control_change,16,0,7,,,,,,,,,11,11,43,,,
178341,control_change,17,0,4,,,,,,,,,4,11,48,,,
178342,control_change,16,0,8,,,,,,,,,12,11,43,,,
178343,control_change,17,0,5,,,,,,,,,5,11,48,,,
178346,control_change,16,0,9,,,,,,,,,13,11,43,,,
178348,control_change,16,0,10,,,,,,,,,14,11,43,,,
178351,control_change,28,0,1,,,,,,,,,0,11,62,,,
178352,control_change,16,0,6,,,,,,,,,10,11,44,,,
178353,control_change,28,0,2,,,,,,,,,1,11,62,,,
178354,control_change,16,0,7,,,,,,,,,11,11,44,,,
178358,control_change,16,0,8,,,,,,,,,12,11,44,,,
178359,control_change,28,0,3,,,,,,,,,3,11,62,,,
178359,control_change,18,0,4,,,,,,,,,4,11,49,,,
178361,control_change,18,0,5,,,,,,,,,5,11,49,,,
178362,control_change,16,0,9,,,,,,,,,13,11,44,,,
178364,control_change,16,0,10,,,,,,,,,14,11,44,,,
178365,note_on,7,0,8,,,,,,,,,12,,,,58,0
178368,control_change,16,0,6,,,,,,,,,10,11,45,,,
178369,note_on,7,0,9,,,,,,,,,13,,,,54,0
178370,control_change,16,0,7,,,,,,,,,11,11,45,,,
178371,note_on,7,0,10,,,,,,,,,14,,,,42,0
178374,control_change,9,0,8,,,,,,,,,12,11,45,,,
178377,control_change,18,0,4,,,,,,,,,4,11,50,,,
178378,control_change,9,0,9,,,,,,,,,13,11,45,,,
178379,control_change,18,0,5,,,,,,,,,5,11,50,,,
178380,control_change,29,0,1,,,,,,,,,0,11,63,,,
178380,control_change,9,0,10,,,,,,,,,14,11,45,,,
178380,note_on,12,0,6,,,,,,,,,10,,,,74,0
178382,note_on,12,0,7,,,,,,,,,11,,,,62,0
178382,control_change,29,0,2,,,,,,,,,1,11,63,,,
178384,control_change,4,0,6,,,,,,,,,10,11,46,,,
178386,control_change,4,0,7,,,,,,,,,11,11,46,,,
178386,note_on,12,0,8,,,,,,,,,12,,,,58,99
178388,control_change,29,0,3,,,,,,,,,3,11,63,,,
178390,note_on,12,0,9,,,,,,,,,13,,,,54,90
178390,control_change,4,0,8,,,,,,,,,12,11,46,,,
178392,note_on,12,0,10,,,,,,,,,14,,,,42,84
178394,control_change,4,0,9,,,,,,,,,13,11,46,,,
178395,control_change,18,0,4,,,,,,,,,4,11,51,,,
178396,control_change,4,0,10,,,,,,,,,14,11,46,,,
178397,control_change,18,0,5,,,,,,,,,5,11,51,,,
178400,control_change,16,0,6,,,,,,,,,10,11,47,,,
178402,control_change,16,0,7,,,,,,,,,11,11,47,,,
178406,control_change,16,0,8,,,,,,,,,12,11,47,,,
178409,control_change,29,0,1,,,,,,,,,0,11,64,,,
178410,control_change,16,0,9,,,,,,,,,13,11,47,,,
178411,control_change,29,0,2,,,,,,,,,1,11,64,,,
178412,control_change,16,0,10,,,,,,,,,14,11,47,,,
178413,control_change,18,0,4,,,,,,,,,4,11,52,,,
178415,control_change,18,0,5,,,,,,,,,5,11,52,,,
178416,control_change,16,0,6,,,,,,,,,10,11,48,,,
178417,control_change,29,0,3,,,,,,,,,3,11,64,,,
178418,control_change,16,0,7,,,,,,,,,11,11,48,,,
178422,control_change,16,0,8,,,,,,,,,12,11,48,,,
178425,note_on,3,0,8,,,,,,,,,12,,,,58,0
178426,control_change,16,0,9,,,,,,,,,13,11,48,,,
178428,control_change,16,0,10,,,,,,,,,14,11,48,,,
178429,note_on,3,0,9,,,,,,,,,13,,,,54,0
178431,control_change,18,0,4,,,,,,,,,4,11,53,,,
178431,note_on,3,0,10,,,,,,,,,14,,,,42,0
178432,control_change,16,0,6,,,,,,,,,10,11,49,,,
178433,control_change,18,0,5,,,,,,,,,5,11,53,,,
178434,control_change,16,0,7,,,,,,,,,11,11,49,,,
178438,control_change,13,0,8,,,,,,,,,12,11,49,,,
178438,control_change,29,0,1,,,,,,,,,0,11,64,,,
178440,control_change,29,0,2,,,,,,,,,1,11,64,,,
178440,note_on,8,0,6,,,,,,,,,10,,,,74,110
178442,note_on,8,0,7,,,,,,,,,11,,,,62,88
178442,control_change,13,0,9,,,,,,,,,13,11,49,,,
178444,control_change,13,0,10,,,,,,,,,14,11,49,,,
178446,note_on,8,0,8,,,,,,,,,12,,,,58,108
178446,control_change,29,0,3,,,,,,,,,3,11,64,,,
178448,control_change,8,0,6,,,,,,,,,10,11,50,,,
178449,control_change,18,0,4,,,,,,,,,4,11,54,,,
178450,note_on,8,0,9,,,,,,,,,13,,,,54,99
178450,control_change,8,0,7,,,,,,,,,11,11,50,,,
178451,control_change,18,0,5,,,,,,,,,5,11,54,,,
178452,note_on,8,0,10,,,,,,,,,14,,,,42,93
178454,control_change,8,0,8,,,,,,,,,12,11,50,,,
178458,control_change,8,0,9,,,,,,,,,13,11,50,,,
178460,control_change,8,0,10,,,,,,,,,14,11,50,,,
178464,control_change,16,0,6,,,,,,,,,10,11,51,,,
178466,control_change,16,0,7,,,,,,,,,11,11,51,,,
178467,control_change,18,0,4,,,,,,,,,4,11,55,,,
178467,control_change,29,0,1,,,,,,,,,0,11,65,,,
178469,control_change,29,0,2,,,,,,,,,1,11,65,,,
178469,control_change,18,0,5,,,,,,,,,5,11,55,,,
178470,control_change,16,0,8,,,,,,,,,12,11,51,,,
178474,control_change,16,0,9,,,,,,,,,13,11,51,,,
178475,control_change,29,0,3,,,,,,,,,3,11,65,,,
178476,control_change,16,0,10,,,,,,,,,14,11,51,,,
178480,control_change,16,0,6,,,,,,,,,10,11,52,,,
178482,control_change,16,0,7,,,,,,,,,11,11,52,,,
178485,control_change,18,0,4,,,,,,,,,4,11,56,,,
178485,note_on,15,0,8,,,,,,,,,12,,,,58,0
178486,control_change,1,0,8,,,,,,,,,12,11,52,,,
178487,control_change,18,0,5,,,,,,,,,5,11,56,,,
178489,note_on,15,0,9,,,,,,,,,13,,,,54,0
178490,control_change,1,0,9,,,,,,,,,13,11,52,,,
178491,note_on,15,0,10,,,,,,,,,14,,,,42,0
178492,control_change,1,0,10,,,,,,,,,14,11,52,,,
178495,control_change,28,0,1,,,,,,,,,0,11,66,,,
178496,control_change,16,0,6,,,,,,,,,10,11,53,,,
178497,control_change,28,0,2,,,,,,,,,1,11,66,,,
178498,control_change,16,0,7,,,,,,,,,11,11,53,,,
178500,note_on,4,0,6,,,,,,,,,10,,,,74,0
178502,control_change,16,0,8,,,,,,,,,12,11,53,,,
178502,note_on,4,0,7,,,,,,,,,11,,,,62,0
178503,control_change,28,0,3,,,,,,,,,3,11,66,,,
178503,control_change,18,0,4,,,,,,,,,4,11,57,,,
178505,control_change,18,0,5,,,,,,,,,5,11,57,,,
178506,note_on,4,0,8,,,,,,,,,12,,,,58,99
178506,control_change,16,0,9,,,,,,,,,13,11,53,,,
178508,control_change,16,0,10,,,,,,,,,14,11,53,,,
178510,note_on,4,0,9,,,,,,,,,13,,,,54,90
178512,control_change,12,0,6,,,,,,,,,10,11,54,,,
178512,note_on,4,0,10,,,,,,,,,14,,,,42,84
178514,control_change,12,0,7,,,,,,,,,11,11,54,,,
178518,control_change,12,0,8,,,,,,,,,12,11,54,,,
178521,control_change,18,0,4,,,,,,,,,4,11,58,,,
178522,control_change,12,0,9,,,,,,,,,13,11,54,,,
178523,control_change,18,0,5,,,,,,,,,5,11,58,,,
178524,control_change,12,0,10,,,,,,,,,14,11,54,,,
178524,control_change,29,0,1,,,,,,,,,0,11,66,,,
178526,control_change,29,0,2,,,,,,,,,1,11,66,,,
178528,control_change,16,0,6,,,,,,,,,10,11,55,,,
178530,control_change,16,0,7,,,,,,,,,11,11,55,,,
178532,control_change,29,0,3,,,,,,,,,3,11,66,,,
178534,control_change,16,0,8,,,,,,,,,12,11,55,,,
178538,control_change,16,0,9,,,,,,,,,13,11,55,,,
178539,control_change,18,0,4,,,,,,,,,4,11,59,,,
178540,control_change,16,0,10,,,,,,,,,14,11,55,,,
178541,control_change,18,0,5,,,,,,,,,5,11,59,,,
178544,control_change,16,0,6,,,,,,,,,10,11,56,,,
178545,note_on,11,0,8,,,,,,,,,12,,,,58,0
178546,control_change,16,0,7,,,,,,,,,11,11,56,,,
178549,note_on,11,0,9,,,,,,,,,13,,,,54,0
178550,control_change,5,0,8,,,,,,,,,12,11,56,,,
178551,note_on,11,0,10,,,,,,,,,14,,,,42,0
178553,control_change,29,0,1,,,,,,,,,0,11,67,,,
178554,control_change,5,0,9,,,,,,,,,13,11,56,,,
178555,control_change,29,0,2,,,,,,,,,1,11,67,,,
178556,control_change,5,0,10,,,,,,,,,14,11,56,,,
178557,control_change,18,0,4,,,,,,,,,4,11,60,,,
178559,control_change,18,0,5,,,,,,,,,5,11,60,,,
178560,set_tempo,240,1,0,,,,,,278422,,,,,,,,
178560,control_change,16,0,6,,,,,,,,,10,11,57,,,
178560,note_on,0,0,6,,,,,,,,,10,,,,75,110
178561,control_change,29,0,3,,,,,,,,,3,11,67,,,
178562,note_on,0,0,7,,,,,,,,,11,,,,63,88
178562,control_change,16,0,7,,,,,,,,,11,11,57,,,
178563,note_on,10,0,1,,,,,,,,,0,,,,86,0
178563,note_on,0,0,1,,,,,,,,,0,,,,87,97
178565,note_on,0,0,2,,,,,,,,,1,,,,75,97
178565,note_on,10,0,2,,,,,,,,,1,,,,62,0
178565,note_on,0,0,2,,,,,,,,,1,,,,74,0
178565,note_on,0,0,2,,,,,,,,,1,,,,63,97
178566,note_on,0,0,8,,,,,,,,,12,,,,58,108
178566,control_change,16,0,8,,,,,,,,,12,11,57,,,
178570,control_change,16,0,9,,,,,,,,,13,11,57,,,
178570,note_on,0,0,9,,,,,,,,,13,,,,54,99
178572,note_on,0,0,10,,,,,,,,,14,,,,42,93
178572,control_change,16,0,10,,,,,,,,,14,11,57,,,
178575,control_change,18,0,4,,,,,,,,,4,11,61,,,
178576,control_change,16,0,6,,,,,,,,,10,11,58,,,
178577,control_change,18,0,5,,,,,,,,,5,11,61,,,
178578,control_change,16,0,7,,,,,,,,,11,11,58,,,
178582,control_change,16,0,8,,,,,,,,,12,11,58,,,
178582,control_change,19,0,1,,,,,,,,,0,11,68,,,
178584,control_change,19,0,2,,,,,,,,,1,11,68,,,
178586,control_change,16,0,9,,,,,,,,,13,11,58,,,
178588,control_change,16,0,10,,,,,,,,,14,11,58,,,
178590,control_change,29,0,3,,,,,,,,,3,11,68,,,
178592,control_change,16,0,6,,,,,,,,,10,11,59,,,
178593,control_change,18,0,4,,,,,,,,,4,11,62,,,
178594,control_change,16,0,7,,,,,,,,,11,11,59,,,
178595,control_change,18,0,5,,,,,,,,,5,11,62,,,
178598,control_change,16,0,8,,,,,,,,,12,11,59,,,
178602,control_change,16,0,9,,,,,,,,,13,11,59,,,
178604,control_change,16,0,10,,,,,,,,,14,11,59,,,
178605,note_on,7,0,8,,,,,,,,,12,,,,58,0
178608,control_change,16,0,6,,,,,,,,,10,11,60,,,
178609,note_on,7,0,9,,,,,,,,,13,,,,54,0
178610,control_change,16,0,7,,,,,,,,,11,11,60,,,
178611,note_on,7,0,10,,,,,,,,,14,,,,42,0
178611,control_change,29,0,1,,,,,,,,,0,11,68,,,
178611,control_change,18,0,4,,,,,,,,,4,11,62,,,
178613,control_change,18,0,5,,,,,,,,,5,11,62,,,
178613,control_change,29,0,2,,,,,,,,,1,11,68,,,
178614,control_change,9,0,8,,,,,,,,,12,11,60,,,
178618,control_change,9,0,9,,,,,,,,,13,11,60,,,
178619,control_change,29,0,3,,,,,,,,,3,11,68,,,
178620,control_change,9,0,10,,,,,,,,,14,11,60,,,
178620,note_on,12,0,6,,,,,,,,,10,,,,75,0
178622,note_on,12,0,7,,,,,,,,,11,,,,63,0
178624,control_change,4,0,6,,,,,,,,,10,11,61,,,
178626,control_change,4,0,7,,,,,,,,,11,11,61,,,
178626,note_on,12,0,8,,,,,,,,,12,,,,58,99
178629,control_change,18,0,4,,,,,,,,,4,11,63,,,
178630,note_on,12,0,9,,,,,,,,,13,,,,54,90
178630,control_change,4,0,8,,,,,,,,,12,11,61,,,
178631,control_change,18,0,5,,,,,,,,,5,11,63,,,
178632,note_on,12,0,10,,,,,,,,,14,,,,42,84
178634,control_change,4,0,9,,,,,,,,,13,11,61,,,
178636,control_change,4,0,10,,,,,,,,,14,11,61,,,
178639,control_change,28,0,1,,,,,,,,,0,11,69,,,
178640,control_change,16,0,6,,,,,,,,,10,11,62,,,
178641,control_change,28,0,2,,,,,,,,,1,11,69,,,
178642,control_change,16,0,7,,,,,,,,,11,11,62,,,
178646,control_change,16,0,8,,,,,,,,,12,11,62,,,
178647,control_change,28,0,3,,,,,,,,,3,11,69,,,
178647,control_change,18,0,4,,,,,,,,,4,11,64,,,
178649,control_change,18,0,5,,,,,,,,,5,11,64,,,
178650,control_change,16,0,9,,,,,,,,,13,11,62,,,
178652,control_change,16,0,10,,,,,,,,,14,11,62,,,
178656,control_change,16,0,6,,,,,,,,,10,11,62,,,
178658,control_change,16,0,7,,,,,,,,,11,11,62,,,
178662,control_change,16,0,8,,,,,,,,,12,11,62,,,
178665,control_change,18,0,4,,,,,,,,,4,11,64,,,
178665,note_on,3,0,8,,,,,,,,,12,,,,58,0
178666,control_change,16,0,9,,,,,,,,,13,11,62,,,
178667,control_change,18,0,5,,,,,,,,,5,11,64,,,
178668,control_change,29,0,1,,,,,,,,,0,11,70,,,
178668,control_change,16,0,10,,,,,,,,,14,11,62,,,
178669,note_on,3,0,9,,,,,,,,,13,,,,54,0
178670,control_change,29,0,2,,,,,,,,,1,11,70,,,
178671,note_on,3,0,10,,,,,,,,,14,,,,42,0
178672,control_change,16,0,6,,,,,,,,,10,11,63,,,
178674,control_change,16,0,7,,,,,,,,,11,11,63,,,
178676,control_change,29,0,3,,,,,,,,,3,11,70,,,
178678,control_change,13,0,8,,,,,,,,,12,11,63,,,
178680,note_on,8,0,6,,,,,,,,,10,,,,75,110
178682,control_change,13,0,9,,,,,,,,,13,11,63,,,
178682,note_on,8,0,7,,,,,,,,,11,,,,63,88
178683,control_change,18,0,4,,,,,,,,,4,11,65,,,
178684,control_change,13,0,10,,,,,,,,,14,11,63,,,
178685,control_change,18,0,5,,,,,,,,,5,11,65,,,
178686,note_on,8,0,8,,,,,,,,,12,,,,58,108
178688,control_change,8,0,6,,,,,,,,,10,11,64,,,
178690,note_on,8,0,9,,,,,,,,,13,,,,54,99
178690,control_change,8,0,7,,,,,,,,,11,11,64,,,
178692,note_on,8,0,10,,,,,,,,,14,,,,42,93
178694,control_change,8,0,8,,,,,,,,,12,11,64,,,
178697,control_change,29,0,1,,,,,,,,,0,11,71,,,
178698,control_change,8,0,9,,,,,,,,,13,11,64,,,
178699,control_change,29,0,2,,,,,,,,,1,11,71,,,
178700,control_change,8,0,10,,,,,,,,,14,11,64,,,
178701,control_change,18,0,4,,,,,,,,,4,11,66,,,
178703,control_change,18,0,5,,,,,,,,,5,11,66,,,
178704,control_change,16,0,6,,,,,,,,,10,11,64,,,
178705,control_change,29,0,3,,,,,,,,,3,11,71,,,
178706,control_change,16,0,7,,,,,,,,,11,11,64,,,
178710,control_change,16,0,8,,,,,,,,,12,11,64,,,
178714,control_change,16,0,9,,,,,,,,,13,11,64,,,
178716,control_change,16,0,10,,,,,,,,,14,11,64,,,
178719,control_change,18,0,4,,,,,,,,,4,11,66,,,
178720,control_change,16,0,6,,,,,,,,,10,11,65,,,
178721,control_change,18,0,5,,,,,,,,,5,11,66,,,
178722,control_change,16,0,7,,,,,,,,,11,11,65,,,
178725,note_on,15,0,8,,,,,,,,,12,,,,58,0
178726,control_change,1,0,8,,,,,,,,,12,11,65,,,
178726,control_change,29,0,1,,,,,,,,,0,11,71,,,
178728,control_change,29,0,2,,,,,,,,,1,11,71,,,
178729,note_on,15,0,9,,,,,,,,,13,,,,54,0
178730,control_change,1,0,9,,,,,,,,,13,11,65,,,
178731,note_on,15,0,10,,,,,,,,,14,,,,42,0
178732,control_change,1,0,10,,,,,,,,,14,11,65,,,
178734,control_change,29,0,3,,,,,,,,,3,11,71,,,
178736,control_change,16,0,6,,,,,,,,,10,11,66,,,
178737,control_change,18,0,4,,,,,,,,,4,11,67,,,
178738,control_change,16,0,7,,,,,,,,,11,11,66,,,
178739,control_change,18,0,5,,,,,,,,,5,11,67,,,
178740,note_on,4,0,6,,,,,,,,,10,,,,75,0
178742,note_on,4,0,7,,,,,,,,,11,,,,63,0
178742,control_change,16,0,8,,,,,,,,,12,11,66,,,
178746,control_change,16,0,9,,,,,,,,,13,11,66,,,
178746,note_on,4,0,8,,,,,,,,,12,,,,58,99
178748,control_change,16,0,10,,,,,,,,,14,11,66,,,
178750,note_on,4,0,9,,,,,,,,,13,,,,54,90
178752,note_on,4,0,10,,,,,,,,,14,,,,42,84
178752,control_change,12,0,6,,,,,,,,,10,11,66,,,
178754,control_change,12,0,7,,,,,,,,,11,11,66,,,
178755,control_change,29,0,1,,,,,,,,,0,11,72,,,
178755,control_change,18,0,4,,,,,,,,,4,11,68,,,
178757,control_change,18,0,5,,,,,,,,,5,11,68,,,
178757,control_change,29,0,2,,,,,,,,,1,11,72,,,
178758,control_change,12,0,8,,,,,,,,,12,11,66,,,
178762,control_change,12,0,9,,,,,,,,,13,11,66,,,
178763,control_change,29,0,3,,,,,,,,,3,11,72,,,
178764,control_change,12,0,10,,,,,,,,,14,11,66,,,
178768,control_change,16,0,6,,,,,,,,,10,11,67,,,
178770,control_change,16,0,7,,,,,,,,,11,11,67,,,
178773,control_change,18,0,4,,,,,,,,,4,11,68,,,
178774,control_change,16,0,8,,,,,,,,,12,11,67,,,
178775,control_change,18,0,5,,,,,,,,,5,11,68,,,
178778,control_change,16,0,9,,,,,,,,,13,11,67,,,
178780,control_change,16,0,10,,,,,,,,,14,11,67,,,
178783,control_change,28,0,1,,,,,,,,,0,11,73,,,
178784,control_change,16,0,6,,,,,,,,,10,11,68,,,
178785,control_change,28,0,2,,,,,,,,,1,11,73,,,
178785,note_on,11,0,8,,,,,,,,,12,,,,58,0
178786,control_change,16,0,7,,,,,,,,,11,11,68,,,
178789,note_on,11,0,9,,,,,,,,,13,,,,54,0
178790,control_change,5,0,8,,,,,,,,,12,11,68,,,
178791,control_change,18,0,4,,,,,,,,,4,11,69,,,
178791,control_change,28,0,3,,,,,,,,,3,11,73,,,
178791,note_on,11,0,10,,,,,,,,,14,,,,42,0
178793,control_change,18,0,5,,,,,,,,,5,11,69,,,
178794,control_change,5,0,9,,,,,,,,,13,11,68,,,
178796,control_change,5,0,10,,,,,,,,,14,11,68,,,
178800,set_tempo,240,1,0,,,,,,267857,,,,,,,,
178800,note_on,0,0,6,,,,,,,,,10,,,,76,110
178800,control_change,16,0,6,,,,,,,,,10,11,68,,,
178802,note_on,0,0,7,,,,,,,,,11,,,,64,88
178802,control_change,16,0,7,,,,,,,,,11,11,68,,,
178803,note_on,20,0,1,,,,,,,,,0,,,,87,0
178803,note_on,0,0,1,,,,,,,,,0,,,,89,97
178805,note_on,20,0,2,,,,,,,,,1,,,,63,0
178805,note_on,0,0,2,,,,,,,,,1,,,,75,0
178805,note_on,0,0,2,,,,,,,,,1,,,,76,97
178805,note_on,0,0,2,,,,,,,,,1,,,,73,97
178806,note_on,0,0,8,,,,,,,,,12,,,,61,108
178806,control_change,16,0,8,,,,,,,,,12,11,68,,,
178809,control_change,18,0,4,,,,,,,,,4,11,70,,,
178810,note_on,0,0,9,,,,,,,,,13,,,,54,99
178810,control_change,16,0,9,,,,,,,,,13,11,68,,,
178811,control_change,18,0,5,,,,,,,,,5,11,70,,,
178812,control_change,16,0,10,,,,,,,,,14,11,68,,,
178812,note_on,0,0,10,,,,,,,,,14,,,,42,93
178812,control_change,9,0,1,,,,,,,,,0,11,73,,,
178814,control_change,9,0,2,,,,,,,,,1,11,73,,,
178816,control_change,16,0,6,,,,,,,,,10,11,69,,,
178818,control_change,16,0,7,,,,,,,,,11,11,69,,,
178820,control_change,29,0,3,,,,,,,,,3,11,73,,,
178822,control_change,16,0,8,,,,,,,,,12,11,69,,,
178826,control_change,16,0,9,,,,,,,,,13,11,69,,,
178827,control_change,18,0,4,,,,,,,,,4,11,71,,,
178828,control_change,16,0,10,,,,,,,,,14,11,69,,,
178829,control_change,18,0,5,,,,,,,,,5,11,71,,,
178832,control_change,16,0,6,,,,,,,,,10,11,70,,,
178834,control_change,16,0,7,,,,,,,,,11,11,70,,,
178838,control_change,16,0,8,,,,,,,,,12,11,70,,,
178841,control_change,29,0,1,,,,,,,,,0,11,74,,,
178842,control_change,16,0,9,,,,,,,,,13,11,70,,,
178843,control_change,29,0,2,,,,,,,,,1,11,74,,,
178844,control_change,16,0,10,,,,,,,,,14,11,70,,,
178845,control_change,18,0,4,,,,,,,,,4,11,71,,,
178845,note_on,7,0,8,,,,,,,,,12,,,,61,0
178847,control_change,18,0,5,,,,,,,,,5,11,71,,,
178848,control_change,16,0,6,,,,,,,,,10,11,71,,,
178849,note_on,7,0,9,,,,,,,,,13,,,,54,0
178849,control_change,29,0,3,,,,,,,,,3,11,74,,,
178850,control_change,16,0,7,,,,,,,,,11,11,71,,,
178851,note_on,7,0,10,,,,,,,,,14,,,,42,0
178854,control_change,9,0,8,,,,,,,,,12,11,71,,,
178858,control_change,9,0,9,,,,,,,,,13,11,71,,,
178860,control_change,9,0,10,,,,,,,,,14,11,71,,,
178860,note_on,12,0,6,,,,,,,,,10,,,,76,0
178862,note_on,12,0,7,,,,,,,,,11,,,,64,0
178863,control_change,18,0,4,,,,,,,,,4,11,72,,,
178864,control_change,4,0,6,,,,,,,,,10,11,71,,,
178865,control_change,18,0,5,,,,,,,,,5,11,72,,,
178866,control_change,4,0,7,,,,,,,,,11,11,71,,,
178866,note_on,12,0,8,,,,,,,,,12,,,,61,99
178870,control_change,29,0,1,,,,,,,,,0,11,75,,,
178870,note_on,12,0,9,,,,,,,,,13,,,,54,90
178870,control_change,4,0,8,,,,,,,,,12,11,71,,,
178872,control_change,29,0,2,,,,,,,,,1,11,75,,,
178872,note_on,12,0,10,,,,,,,,,14,,,,42,84
178874,control_change,4,0,9,,,,,,,,,13,11,71,,,
178876,control_change,4,0,10,,,,,,,,,14,11,71,,,
178878,control_change,29,0,3,,,,,,,,,3,11,75,,,
178880,control_change,16,0,6,,,,,,,,,10,11,72,,,
178881,control_change,18,0,4,,,,,,,,,4,11,73,,,
178882,control_change,16,0,7,,,,,,,,,11,11,72,,,
178883,control_change,18,0,5,,,,,,,,,5,11,73,,,
178886,control_change,16,0,8,,,,,,,,,12,11,72,,,
178890,control_change,16,0,9,,,,,,,,,13,11,72,,,
178892,control_change,16,0,10,,,,,,,,,14,11,72,,,
178896,control_change,16,0,6,,,,,,,,,10,11,73,,,
178898,control_change,16,0,7,,,,,,,,,11,11,73,,,
178899,control_change,18,0,4,,,,,,,,,4,11,73,,,
178899,control_change,29,0,1,,,,,,,,,0,11,75,,,
178901,control_change,18,0,5,,,,,,,,,5,11,73,,,
178901,control_change,29,0,2,,,,,,,,,1,11,75,,,
178902,control_change,16,0,8,,,,,,,,,12,11,73,,,
178905,note_on,3,0,8,,,,,,,,,12,,,,61,0
178906,control_change,16,0,9,,,,,,,,,13,11,73,,,
178907,control_change,29,0,3,,,,,,,,,3,11,75,,,
178908,control_change,16,0,10,,,,,,,,,14,11,73,,,
178909,note_on,3,0,9,,,,,,,,,13,,,,54,0
178911,note_on,3,0,10,,,,,,,,,14,,,,42,0
178912,control_change,16,0,6,,,,,,,,,10,11,73,,,
178914,control_change,16,0,7,,,,,,,,,11,11,73,,,
178917,control_change,18,0,4,,,,,,,,,4,11,74,,,
178918,control_change,13,0,8,,,,,,,,,12,11,73,,,
178919,control_change,18,0,5,,,,,,,,,5,11,74,,,
178920,note_on,8,0,6,,,,,,,,,10,,,,76,110
178922,control_change,13,0,9,,,,,,,,,13,11,73,,,
178922,note_on,8,0,7,,,,,,,,,11,,,,64,88
178924,control_change,13,0,10,,,,,,,,,14,11,73,,,
178926,note_on,8,0,8,,,,,,,,,12,,,,61,108
178927,control_change,28,0,1,,,,,,,,,0,11,76,,,
178928,control_change,8,0,6,,,,,,,,,10,11,74,,,
178929,control_change,28,0,2,,,,,,,,,1,11,76,,,
178930,control_change,8,0,7,,,,,,,,,11,11,74,,,
178930,note_on,8,0,9,,,,,,,,,13,,,,54,99
178932,note_on,8,0,10,,,,,,,,,14,,,,42,93
178934,control_change,8,0,8,,,,,,,,,12,11,74,,,
178935,control_change,18,0,4,,,,,,,,,4,11,75,,,
178935,control_change,28,0,3,,,,,,,,,3,11,76,,,
178937,control_change,18,0,5,,,,,,,,,5,11,75,,,
178938,control_change,8,0,9,,,,,,,,,13,11,74,,,
178940,control_change,8,0,10,,,,,,,,,14,11,74,,,
178944,control_change,16,0,6,,,,,,,,,10,11,75,,,
178946,control_change,16,0,7,,,,,,,,,11,11,75,,,
178950,control_change,16,0,8,,,,,,,,,12,11,75,,,
178953,control_change,18,0,4,,,,,,,,,4,11,75,,,
178954,control_change,16,0,9,,,,,,,,,13,11,75,,,
178955,control_change,18,0,5,,,,,,,,,5,11,75,,,
178956,control_change,29,0,1,,,,,,,,,0,11,77,,,
178956,control_change,16,0,10,,,,,,,,,14,11,75,,,
178958,control_change,29,0,2,,,,,,,,,1,11,77,,,
178960,control_change,16,0,6,,,,,,,,,10,11,75,,,
178962,control_change,16,0,7,,,,,,,,,11,11,75,,,
178964,control_change,29,0,3,,,,,,,,,3,11,77,,,
178965,note_on,15,0,8,,,,,,,,,12,,,,61,0
178966,control_change,1,0,8,,,,,,,,,12,11,75,,,
178969,note_on,15,0,9,,,,,,,,,13,,,,54,0
178970,control_change,1,0,9,,,,,,,,,13,11,75,,,
178971,note_on,15,0,10,,,,,,,,,14,,,,42,0
178971,control_change,18,0,4,,,,,,,,,4,11,76,,,
178972,control_change,1,0,10,,,,,,,,,14,11,75,,,
178973,control_change,18,0,5,,,,,,,,,5,11,76,,,
178976,control_change,16,0,6,,,,,,,,,10,11,76,,,
178978,control_change,16,0,7,,,,,,,,,11,11,76,,,
178980,note_on,4,0,6,,,,,,,,,10,,,,76,0
178982,note_on,4,0,7,,,,,,,,,11,,,,64,0
178982,control_change,16,0,8,,,,,,,,,12,11,76,,,
178985,control_change,29,0,1,,,,,,,,,0,11,77,,,
178986,control_change,16,0,9,,,,,,,,,13,11,76,,,
178986,note_on,4,0,8,,,,,,,,,12,,,,61,99
178987,control_change,29,0,2,,,,,,,,,1,11,77,,,
178988,control_change,16,0,10,,,,,,,,,14,11,76,,,
178989,control_change,18,0,4,,,,,,,,,4,11,77,,,
178990,note_on,4,0,9,,,,,,,,,13,,,,54,90
178991,control_change,18,0,5,,,,,,,,,5,11,77,,,
178992,note_on,4,0,10,,,,,,,,,14,,,,42,84
178992,control_change,12,0,6,,,,,,,,,10,11,77,,,
178993,control_change,29,0,3,,,,,,,,,3,11,77,,,
178994,control_change,12,0,7,,,,,,,,,11,11,77,,,
178998,control_change,12,0,8,,,,,,,,,12,11,77,,,
179002,control_change,12,0,9,,,,,,,,,13,11,77,,,
179004,control_change,12,0,10,,,,,,,,,14,11,77,,,
179007,control_change,18,0,4,,,,,,,,,4,11,77,,,
179008,control_change,16,0,6,,,,,,,,,10,11,77,,,
179009,control_change,18,0,5,,,,,,,,,5,11,77,,,
179010,control_change,16,0,7,,,,,,,,,11,11,77,,,
179014,control_change,29,0,1,,,,,,,,,0,11,78,,,
179014,control_change,16,0,8,,,,,,,,,12,11,77,,,
179016,control_change,29,0,2,,,,,,,,,1,11,78,,,
179018,control_change,16,0,9,,,,,,,,,13,11,77,,,
179020,control_change,16,0,10,,,,,,,,,14,11,77,,,
179022,control_change,29,0,3,,,,,,,,,3,11,78,,,
179024,control_change,16,0,6,,,,,,,,,10,11,78,,,
179025,control_change,18,0,4,,,,,,,,,4,11,78,,,
179025,note_on,11,0,8,,,,,,,,,12,,,,61,0
179026,control_change,16,0,7,,,,,,,,,11,11,78,,,
179027,control_change,18,0,5,,,,,,,,,5,11,78,,,
179029,note_on,11,0,9,,,,,,,,,13,,,,54,0
179030,control_change,5,0,8,,,,,,,,,12,11,78,,,
179031,note_on,11,0,10,,,,,,,,,14,,,,42,0
179034,control_change,5,0,9,,,,,,,,,13,11,78,,,
179036,control_change,5,0,10,,,,,,,,,14,11,78,,,
179038,note_on,24,0,1,,,,,,,,,0,,,,89,0
179039,note_on,14,0,4,,,,,,,,,4,,,,58,0
179040,note_on,24,0,2,,,,,,,,,1,,,,73,0
179040,note_on,0,0,2,,,,,,,,,1,,,,76,0
179040,set_tempo,240,1,0,,,,,,277136,,,,,,,,
179040,control_change,16,0,6,,,,,,,,,10,11,79,,,
179040,note_on,0,0,6,,,,,,,,,10,,,,77,110
179041,note_on,14,0,5,,,,,,,,,5,,,,46,0
179042,control_change,16,0,7,,,,,,,,,11,11,79,,,
179042,note_on,0,0,7,,,,,,,,,11,,,,65,88
179043,note_on,0,0,1,,,,,,,,,0,,,,89,97
179043,control_change,5,0,1,,,,,,,,,0,11,79,,,
179043,control_change,4,0,4,,,,,,,,,4,11,79,,,
179044,note_on,1,0,4,,,,,,,,,4,,,,62,96
179045,note_on,0,0,2,,,,,,,,,1,,,,77,97
179045,control_change,4,0,5,,,,,,,,,5,11,79,,,
179045,note_on,0,0,2,,,,,,,,,1,,,,74,97
179045,control_change,5,0,2,,,,,,,,,1,11,79,,,
179046,note_on,1,0,5,,,,,,,,,5,,,,58,96
179046,control_change,16,0,8,,,,,,,,,12,11,79,,,
179046,note_on,0,0,8,,,,,,,,,12,,,,62,108
179046,note_on,24,0,3,,,,,,,,,3,,,,54,0
179050,note_on,0,0,9,,,,,,,,,13,,,,53,99
179050,control_change,16,0,9,,,,,,,,,13,11,79,,,
179051,note_on,0,0,3,,,,,,,,,3,,,,53,97
179051,control_change,5,0,3,,,,,,,,,3,11,79,,,
179052,control_change,16,0,10,,,,,,,,,14,11,79,,,
179052,note_on,0,0,10,,,,,,,,,14,,,,41,93
179134,note_on,94,0,6,,,,,,,,,10,,,,77,0
179136,note_on,94,0,7,,,,,,,,,11,,,,65,0
179140,note_on,94,0,8,,,,,,,,,12,,,,62,0
179144,note_on,94,0,9,,,,,,,,,13,,,,53,0
179146,note_on,94,0,10,,,,,,,,,14,,,,41,0
179153,note_on,110,0,1,,,,,,,,,0,,,,89,0
179154,note_on,110,0,4,,,,,,,,,4,,,,62,0
179155,note_on,0,0,2,,,,,,,,,1,,,,77,0
179155,note_on,110,0,2,,,,,,,,,1,,,,74,0
179156,note_on,110,0,5,,,,,,,,,5,,,,58,0
179160,note_on,0,0,6,,,,,,,,,10,,,,74,125
179160,note_on,0,0,6,,,,,,,,,10,,,,82,125
179160,control_change,26,0,6,,,,,,,,,10,11,79,,,
179161,note_on,110,0,3,,,,,,,,,3,,,,53,0
179162,control_change,26,0,7,,,,,,,,,11,11,79,,,
179162,note_on,0,0,7,,,,,,,,,11,,,,62,100
179162,note_on,0,0,7,,,,,,,,,11,,,,70,100
179163,note_on,0,0,1,,,,,,,,,0,,,,82,110
179163,control_change,10,0,1,,,,,,,,,0,11,79,,,
179164,note_on,0,0,4,,,,,,,,,4,,,,62,109
179164,control_change,10,0,4,,,,,,,,,4,11,79,,,
179165,control_change,10,0,2,,,,,,,,,1,11,79,,,
179165,note_on,0,0,2,,,,,,,,,1,,,,82,110
179165,note_on,0,0,2,,,,,,,,,1,,,,74,110
179166,note_on,0,0,8,,,,,,,,,12,,,,62,123
179166,control_change,26,0,8,,,,,,,,,12,11,79,,,
179166,note_on,0,0,8,,,,,,,,,12,,,,58,123
179166,note_on,0,0,5,,,,,,,,,5,,,,58,109
179166,control_change,10,0,5,,,,,,,,,5,11,79,,,
179170,note_on,0,0,9,,,,,,,,,13,,,,53,114
179170,control_change,26,0,9,,,,,,,,,13,11,79,,,
179171,control_change,10,0,3,,,,,,,,,3,11,79,,,
179171,note_on,0,0,3,,,,,,,,,3,,,,53,110
179172,note_on,0,0,10,,,,,,,,,14,,,,41,108
179172,control_change,26,0,10,,,,,,,,,14,11,79,,,
179220,control_change,60,0,6,,,,,,,,,10,11,79,,,
179222,control_change,60,0,7,,,,,,,,,11,11,79,,,
179223,control_change,60,0,1,,,,,,,,,0,11,79,,,
179224,control_change,60,0,4,,,,,,,,,4,11,79,,,
179225,control_change,60,0,2,,,,,,,,,1,11,79,,,
179226,control_change,60,0,5,,,,,,,,,5,11,79,,,
179226,control_change,60,0,8,,,,,,,,,12,11,79,,,
179230,control_change,60,0,9,,,,,,,,,13,11,79,,,
179231,control_change,60,0,3,,,,,,,,,3,11,79,,,
179232,control_change,60,0,10,,,,,,,,,14,11,79,,,
179242,control_change,22,0,6,,,,,,,,,10,11,77,,,
179244,control_change,22,0,7,,,,,,,,,11,11,77,,,
179245,control_change,22,0,1,,,,,,,,,0,11,77,,,
179246,control_change,22,0,4,,,,,,,,,4,11,77,,,
179247,control_change,22,0,2,,,,,,,,,1,11,77,,,
179248,control_change,22,0,8,,,,,,,,,12,11,77,,,
179248,control_change,22,0,5,,,,,,,,,5,11,77,,,
179252,control_change,22,0,9,,,,,,,,,13,11,77,,,
179253,control_change,22,0,3,,,,,,,,,3,11,77,,,
179254,control_change,22,0,10,,,,,,,,,14,11,77,,,
179257,control_change,15,0,6,,,,,,,,,10,11,75,,,
179259,control_change,15,0,7,,,,,,,,,11,11,75,,,
179260,control_change,15,0,1,,,,,,,,,0,11,75,,,
179261,control_change,15,0,4,,,,,,,,,4,11,75,,,
179262,control_change,15,0,2,,,,,,,,,1,11,75,,,
179263,control_change,15,0,5,,,,,,,,,5,11,75,,,
179263,control_change,15,0,8,,,,,,,,,12,11,75,,,
179267,control_change,15,0,9,,,,,,,,,13,11,75,,,
179268,control_change,15,0,3,,,,,,,,,3,11,75,,,
179269,control_change,15,0,10,,,,,,,,,14,11,75,,,
179272,control_change,15,0,6,,,,,,,,,10,11,74,,,
179274,control_change,15,0,7,,,,,,,,,11,11,74,,,
179275,control_change,15,0,1,,,,,,,,,0,11,74,,,
179276,control_change,15,0,4,,,,,,,,,4,11,74,,,
179277,control_change,15,0,2,,,,,,,,,1,11,74,,,
179278,control_change,15,0,5,,,,,,,,,5,11,74,,,
179278,control_change,15,0,8,,,,,,,,,12,11,74,,,
179280,set_tempo,240,1,0,,,,,,265487,,,,,,,,
179282,control_change,15,0,9,,,,,,,,,13,11,74,,,
179283,control_change,15,0,3,,,,,,,,,3,11,74,,,
179284,control_change,15,0,10,,,,,,,,,14,11,74,,,
179287,control_change,15,0,6,,,,,,,,,10,11,73,,,
179289,control_change,15,0,7,,,,,,,,,11,11,73,,,
179290,control_change,15,0,1,,,,,,,,,0,11,73,,,
179291,control_change,15,0,4,,,,,,,,,4,11,73,,,
179292,control_change,15,0,2,,,,,,,,,1,11,73,,,
179293,control_change,15,0,8,,,,,,,,,12,11,73,,,
179293,control_change,15,0,5,,,,,,,,,5,11,73,,,
179297,control_change,15,0,9,,,,,,,,,13,11,73,,,
179298,control_change,15,0,3,,,,,,,,,3,11,73,,,
179299,control_change,15,0,10,,,,,,,,,14,11,73,,,
179309,control_change,22,0,6,,,,,,,,,10,11,71,,,
179311,control_change,22,0,7,,,,,,,,,11,11,71,,,
179312,control_change,22,0,1,,,,,,,,,0,11,71,,,
179313,control_change,22,0,4,,,,,,,,,4,11,71,,,
179314,control_change,22,0,2,,,,,,,,,1,11,71,,,
179315,control_change,22,0,5,,,,,,,,,5,11,71,,,
179315,control_change,22,0,8,,,,,,,,,12,11,71,,,
179319,control_change,22,0,9,,,,,,,,,13,11,71,,,
179320,control_change,22,0,3,,,,,,,,,3,11,71,,,
179321,control_change,22,0,10,,,,,,,,,14,11,71,,,
179324,control_change,15,0,6,,,,,,,,,10,11,69,,,
179326,control_change,15,0,7,,,,,,,,,11,11,69,,,
179327,control_change,15,0,1,,,,,,,,,0,11,69,,,
179328,control_change,15,0,4,,,,,,,,,4,11,69,,,
179329,control_change,15,0,2,,,,,,,,,1,11,69,,,
179330,control_change,15,0,5,,,,,,,,,5,11,69,,,
179330,control_change,15,0,8,,,,,,,,,12,11,69,,,
179334,control_change,15,0,9,,,,,,,,,13,11,69,,,
179335,control_change,15,0,3,,,,,,,,,3,11,69,,,
179336,control_change,15,0,10,,,,,,,,,14,11,69,,,
179339,control_change,15,0,6,,,,,,,,,10,11,68,,,
179341,control_change,15,0,7,,,,,,,,,11,11,68,,,
179342,control_change,15,0,1,,,,,,,,,0,11,68,,,
179343,control_change,15,0,4,,,,,,,,,4,11,68,,,
179344,control_change,15,0,2,,,,,,,,,1,11,68,,,
179345,control_change,15,0,8,,,,,,,,,12,11,68,,,
179345,control_change,15,0,5,,,,,,,,,5,11,68,,,
179349,control_change,15,0,9,,,,,,,,,13,11,68,,,
179350,control_change,15,0,3,,,,,,,,,3,11,68,,,
179351,control_change,15,0,10,,,,,,,,,14,11,68,,,
179354,control_change,15,0,6,,,,,,,,,10,11,66,,,
179356,control_change,15,0,7,,,,,,,,,11,11,66,,,
179357,control_change,15,0,1,,,,,,,,,0,11,66,,,
179358,control_change,15,0,4,,,,,,,,,4,11,66,,,
179359,control_change,15,0,2,,,,,,,,,1,11,66,,,
179360,control_change,15,0,8,,,,,,,,,12,11,66,,,
179360,control_change,15,0,5,,,,,,,,,5,11,66,,,
179364,control_change,15,0,9,,,,,,,,,13,11,66,,,
179365,control_change,15,0,3,,,,,,,,,3,11,66,,,
179366,control_change,15,0,10,,,,,,,,,14,11,66,,,
179369,control_change,15,0,6,,,,,,,,,10,11,65,,,
179371,control_change,15,0,7,,,,,,,,,11,11,65,,,
179372,control_change,15,0,1,,,,,,,,,0,11,65,,,
179373,control_change,15,0,4,,,,,,,,,4,11,65,,,
179374,control_change,15,0,2,,,,,,,,,1,11,65,,,
179375,control_change,15,0,8,,,,,,,,,12,11,65,,,
179375,control_change,15,0,5,,,,,,,,,5,11,65,,,
179379,control_change,15,0,9,,,,,,,,,13,11,65,,,
179380,control_change,15,0,3,,,,,,,,,3,11,65,,,
179381,control_change,15,0,10,,,,,,,,,14,11,65,,,
179383,control_change,14,0,6,,,,,,,,,10,11,69,,,
179385,control_change,14,0,7,,,,,,,,,11,11,69,,,
179386,control_change,14,0,1,,,,,,,,,0,11,69,,,
179387,control_change,14,0,4,,,,,,,,,4,11,69,,,
179388,control_change,14,0,2,,,,,,,,,1,11,69,,,
179389,control_change,14,0,8,,,,,,,,,12,11,69,,,
179389,control_change,14,0,5,,,,,,,,,5,11,69,,,
179393,note_on,7,0,1,,,,,,,,,0,,,,82,0
179393,control_change,14,0,9,,,,,,,,,13,11,69,,,
179394,note_on,7,0,4,,,,,,,,,4,,,,62,0
179394,control_change,14,0,3,,,,,,,,,3,11,69,,,
179395,note_on,7,0,2,,,,,,,,,1,,,,74,0
179395,note_on,0,0,6,,,,,,,,,10,,,,74,0
179395,control_change,14,0,10,,,,,,,,,14,11,69,,,
179395,note_on,12,0,6,,,,,,,,,10,,,,82,0
179395,note_on,0,0,2,,,,,,,,,1,,,,82,0
179396,note_on,7,0,5,,,,,,,,,5,,,,58,0
179396,control_change,1,0,6,,,,,,,,,10,11,73,,,
179397,note_on,12,0,7,,,,,,,,,11,,,,70,0
179397,note_on,0,0,7,,,,,,,,,11,,,,62,0
179398,control_change,1,0,7,,,,,,,,,11,11,73,,,
179399,control_change,6,0,1,,,,,,,,,0,11,73,,,
179400,control_change,6,0,4,,,,,,,,,4,11,73,,,
179400,note_on,4,0,6,,,,,,,,,10,,,,77,110
179401,note_on,7,0,3,,,,,,,,,3,,,,53,0
179401,note_on,12,0,8,,,,,,,,,12,,,,62,0
179401,control_change,6,0,2,,,,,,,,,1,11,73,,,
179401,note_on,0,0,8,,,,,,,,,12,,,,58,0
179402,control_change,1,0,8,,,,,,,,,12,11,73,,,
179402,note_on,4,0,7,,,,,,,,,11,,,,65,88
179402,control_change,6,0,5,,,,,,,,,5,11,73,,,
179403,note_on,4,0,1,,,,,,,,,0,,,,86,97
179404,note_on,4,0,4,,,,,,,,,4,,,,62,96
179405,note_on,12,0,9,,,,,,,,,13,,,,53,0
179405,note_on,4,0,2,,,,,,,,,1,,,,74,97
179405,note_on,0,0,2,,,,,,,,,1,,,,70,97
179406,note_on,4,0,5,,,,,,,,,5,,,,58,96
179406,control_change,1,0,9,,,,,,,,,13,11,73,,,
179406,note_on,4,0,8,,,,,,,,,12,,,,53,108
179407,note_on,12,0,10,,,,,,,,,14,,,,41,0
179407,control_change,6,0,3,,,,,,,,,3,11,73,,,
179408,control_change,1,0,10,,,,,,,,,14,11,73,,,
179409,control_change,9,0,6,,,,,,,,,10,11,77,,,
179410,note_on,4,0,9,,,,,,,,,13,,,,50,99
179411,note_on,4,0,3,,,,,,,,,3,,,,50,97
179411,control_change,9,0,7,,,,,,,,,11,11,77,,,
179412,note_on,4,0,10,,,,,,,,,14,,,,38,93
179412,control_change,9,0,1,,,,,,,,,0,11,77,,,
179413,control_change,9,0,4,,,,,,,,,4,11,77,,,
179414,control_change,9,0,2,,,,,,,,,1,11,77,,,
179415,control_change,9,0,5,,,,,,,,,5,11,77,,,
179415,control_change,9,0,8,,,,,,,,,12,11,77,,,
179419,control_change,9,0,9,,,,,,,,,13,11,77,,,
179420,control_change,9,0,3,,,,,,,,,3,11,77,,,
179421,control_change,9,0,10,,,,,,,,,14,11,77,,,
179460,note_on,0,0,6,,,,,,,,,10,,,,74,110
179460,note_on,51,0,6,,,,,,,,,10,,,,77,0
179462,note_on,0,0,7,,,,,,,,,11,,,,62,88
179462,note_on,51,0,7,,,,,,,,,11,,,,65,0
179499,note_on,39,0,6,,,,,,,,,10,,,,74,0
179501,note_on,39,0,7,,,,,,,,,11,,,,62,0
179513,note_on,101,0,1,,,,,,,,,0,,,,86,0
179514,note_on,101,0,4,,,,,,,,,4,,,,62,0
179515,note_on,0,0,2,,,,,,,,,1,,,,74,0
179515,note_on,101,0,2,,,,,,,,,1,,,,70,0
179516,note_on,101,0,5,,,,,,,,,5,,,,58,0
179520,note_on,21,0,6,,,,,,,,,10,,,,72,110
179520,set_tempo,240,1,0,,,,,,274600,,,,,,,,
179521,note_on,106,0,8,,,,,,,,,12,,,,53,0
179521,note_on,101,0,3,,,,,,,,,3,,,,50,0
179522,note_on,21,0,7,,,,,,,,,11,,,,60,88
179523,note_on,10,0,1,,,,,,,,,0,,,,84,97
179524,note_on,10,0,4,,,,,,,,,4,,,,60,96
179525,note_on,106,0,9,,,,,,,,,13,,,,50,0
179525,note_on,10,0,2,,,,,,,,,1,,,,72,97
179525,note_on,0,0,2,,,,,,,,,1,,,,70,97
179526,note_on,5,0,8,,,,,,,,,12,,,,55,108
179526,note_on,10,0,5,,,,,,,,,5,,,,58,96
179527,note_on,106,0,10,,,,,,,,,14,,,,38,0
179530,note_on,5,0,9,,,,,,,,,13,,,,51,99
179531,note_on,10,0,3,,,,,,,,,3,,,,51,97
179532,note_on,5,0,10,,,,,,,,,14,,,,39,93
179580,note_on,60,0,6,,,,,,,,,10,,,,72,0
179580,note_on,0,0,6,,,,,,,,,10,,,,74,110
179582,note_on,60,0,7,,,,,,,,,11,,,,60,0
179582,note_on,0,0,7,,,,,,,,,11,,,,62,88
179583,note_on,60,0,1,,,,,,,,,0,,,,84,0
179584,note_on,60,0,4,,,,,,,,,4,,,,60,0
179585,note_on,0,0,2,,,,,,,,,1,,,,72,0
179585,note_on,60,0,2,,,,,,,,,1,,,,70,0
179586,note_on,60,0,8,,,,,,,,,12,,,,55,0
179586,note_on,60,0,5,,,,,,,,,5,,,,58,0
179590,note_on,60,0,9,,,,,,,,,13,,,,51,0
179591,note_on,60,0,3,,,,,,,,,3,,,,51,0
179619,note_on,39,0,6,,,,,,,,,10,,,,74,0
179621,note_on,39,0,7,,,,,,,,,11,,,,62,0
179622,note_on,90,0,10,,,,,,,,,14,,,,39,0
179640,note_on,21,0,6,,,,,,,,,10,,,,75,110
179642,note_on,21,0,7,,,,,,,,,11,,,,63,88
179643,note_on,60,0,1,,,,,,,,,0,,,,84,97
179644,note_on,60,0,4,,,,,,,,,4,,,,60,96
179645,note_on,60,0,2,,,,,,,,,1,,,,70,97
179645,note_on,0,0,2,,,,,,,,,1,,,,72,97
179646,note_on,60,0,5,,,,,,,,,5,,,,58,96
179646,note_on,60,0,8,,,,,,,,,12,,,,55,108
179650,note_on,60,0,9,,,,,,,,,13,,,,51,99
179651,note_on,60,0,3,,,,,,,,,3,,,,51,97
179652,note_on,30,0,10,,,,,,,,,14,,,,39,93
179675,note_on,35,0,6,,,,,,,,,10,,,,75,0
179677,note_on,35,0,7,,,,,,,,,11,,,,63,0
179700,note_on,25,0,6,,,,,,,,,10,,,,79,110
179702,note_on,25,0,7,,,,,,,,,11,,,,67,88
179703,note_on,60,0,1,,,,,,,,,0,,,,84,0
179704,note_on,60,0,4,,,,,,,,,4,,,,60,0
179705,note_on,60,0,2,,,,,,,,,1,,,,72,0
179705,note_on,0,0,2,,,,,,,,,1,,,,70,0
179706,note_on,60,0,8,,,,,,,,,12,,,,55,0
179706,note_on,60,0,5,,,,,,,,,5,,,,58,0
179710,note_on,60,0,9,,,,,,,,,13,,,,51,0
179711,note_on,60,0,3,,,,,,,,,3,,,,51,0
179735,note_on,35,0,6,,,,,,,,,10,,,,79,0
179737,note_on,35,0,7,,,,,,,,,11,,,,67,0
179742,note_on,90,0,10,,,,,,,,,14,,,,39,0
179760,note_on,25,0,6,,,,,,,,,10,,,,77,110
179760,set_tempo,240,1,0,,,,,,264901,,,,,,,,
179762,note_on,25,0,7,,,,,,,,,11,,,,65,88
179763,note_on,60,0,1,,,,,,,,,0,,,,89,97
179764,note_on,60,0,4,,,,,,,,,4,,,,65,96
179765,note_on,0,0,2,,,,,,,,,1,,,,77,97
179765,note_on,60,0,2,,,,,,,,,1,,,,69,97
179766,note_on,60,0,8,,,,,,,,,12,,,,57,108
179766,note_on,60,0,5,,,,,,,,,5,,,,53,96
179770,note_on,60,0,9,,,,,,,,,13,,,,53,99
179771,note_on,60,0,3,,,,,,,,,3,,,,53,97
179772,note_on,30,0,10,,,,,,,,,14,,,,41,93
179820,note_on,0,0,6,,,,,,,,,10,,,,75,110
179820,note_on,60,0,6,,,,,,,,,10,,,,77,0
179822,note_on,0,0,7,,,,,,,,,11,,,,63,88
179822,note_on,60,0,7,,,,,,,,,11,,,,65,0
179823,note_on,60,0,1,,,,,,,,,0,,,,89,0
179824,note_on,60,0,4,,,,,,,,,4,,,,65,0
179825,note_on,0,0,2,,,,,,,,,1,,,,69,0
179825,note_on,60,0,2,,,,,,,,,1,,,,77,0
179826,note_on,60,0,5,,,,,,,,,5,,,,53,0
179826,note_on,60,0,8,,,,,,,,,12,,,,57,0
179830,note_on,60,0,9,,,,,,,,,13,,,,53,0
179831,note_on,60,0,3,,,,,,,,,3,,,,53,0
179859,note_on,39,0,6,,,,,,,,,10,,,,75,0
179861,note_on,39,0,7,,,,,,,,,11,,,,63,0
179862,note_on,90,0,10,,,,,,,,,14,,,,41,0
179880,note_on,21,0,6,,,,,,,,,10,,,,74,110
179882,note_on,21,0,7,,,,,,,,,11,,,,62,88
179883,note_on,60,0,1,,,,,,,,,0,,,,89,97
179884,note_on,60,0,4,,,,,,,,,4,,,,65,96
179885,note_on,60,0,2,,,,,,,,,1,,,,69,97
179885,note_on,0,0,2,,,,,,,,,1,,,,77,97
179886,note_on,60,0,8,,,,,,,,,12,,,,57,108
179886,note_on,60,0,5,,,,,,,,,5,,,,53,96
179890,note_on,60,0,9,,,,,,,,,13,,,,53,99
179891,note_on,60,0,3,,,,,,,,,3,,,,53,97
179892,note_on,30,0,10,,,,,,,,,14,,,,41,93
179915,note_on,35,0,6,,,,,,,,,10,,,,74,0
179917,note_on,35,0,7,,,,,,,,,11,,,,62,0
179940,set_tempo,180,1,0,,,,,,330579,,,,,,,,
179940,note_on,25,0,6,,,,,,,,,10,,,,72,110
179942,note_on,25,0,7,,,,,,,,,11,,,,60,88
179943,note_on,60,0,1,,,,,,,,,0,,,,89,0
179944,note_on,60,0,4,,,,,,,,,4,,,,65,0
179945,note_on,0,0,2,,,,,,,,,1,,,,69,0
179945,note_on,60,0,2,,,,,,,,,1,,,,77,0
179946,note_on,60,0,8,,,,,,,,,12,,,,57,0
179946,note_on,60,0,5,,,,,,,,,5,,,,53,0
179950,note_on,60,0,9,,,,,,,,,13,,,,53,0
179951,note_on,60,0,3,,,,,,,,,3,,,,53,0
179975,note_on,35,0,6,,,,,,,,,10,,,,72,0
179977,note_on,35,0,7,,,,,,,,,11,,,,60,0
179982,note_on,90,0,10,,,,,,,,,14,,,,41,0
180000,set_tempo,60,1,0,,,,,,272727,,,,,,,,
180000,note_on,0,0,6,,,,,,,,,10,,,,70,102
180000,control_change,25,0,6,,,,,,,,,10,11,79,,,
180002,note_on,0,0,7,,,,,,,,,11,,,,62,102
180002,control_change,25,0,7,,,,,,,,,11,11,79,,,
180003,note_on,0,0,1,,,,,,,,,0,,,,86,77
180003,control_change,60,0,1,,,,,,,,,0,11,79,,,
180004,control_change,60,0,4,,,,,,,,,4,11,79,,,
180004,note_on,0,0,4,,,,,,,,,4,,,,58,75
180005,note_on,0,0,2,,,,,,,,,1,,,,82,77
180005,control_change,60,0,2,,,,,,,,,1,11,79,,,
180005,note_on,0,0,2,,,,,,,,,1,,,,74,77
180006,note_on,0,0,8,,,,,,,,,12,,,,58,100
180006,control_change,60,0,8,,,,,,,,,12,11,79,,,
180006,note_on,0,0,5,,,,,,,,,5,,,,46,75
180006,control_change,60,0,5,,,,,,,,,5,11,79,,,
180010,note_on,0,0,9,,,,,,,,,13,,,,46,77
180010,control_change,60,0,9,,,,,,,,,13,11,79,,,
180011,control_change,60,0,3,,,,,,,,,3,11,79,,,
180011,note_on,0,0,3,,,,,,,,,3,,,,46,77
180012,note_on,0,0,10,,,,,,,,,14,,,,34,71
180012,control_change,30,0,10,,,,,,,,,14,11,79,,,
180024,control_change,24,0,6,,,,,,,,,10,11,80,,,
180026,control_change,24,0,7,,,,,,,,,11,11,80,,,
180027,control_change,24,0,1,,,,,,,,,0,11,80,,,
180028,control_change,24,0,4,,,,,,,,,4,11,80,,,
180029,control_change,24,0,2,,,,,,,,,1,11,80,,,
180030,control_change,24,0,8,,,,,,,,,12,11,80,,,
180030,control_change,24,0,5,,,,,,,,,5,11,80,,,
180034,control_change,24,0,9,,,,,,,,,13,11,80,,,
180035,control_change,24,0,3,,,,,,,,,3,11,80,,,
180036,control_change,24,0,10,,,,,,,,,14,11,80,,,
180039,note_on,15,0,6,,,,,,,,,10,,,,70,0
180041,note_on,15,0,7,,,,,,,,,11,,,,62,0
180045,note_on,15,0,8,,,,,,,,,12,,,,58,0
180048,control_change,9,0,6,,,,,,,,,10,11,82,,,
180050,control_change,9,0,7,,,,,,,,,11,11,82,,,
180051,control_change,24,0,1,,,,,,,,,0,11,82,,,
180052,control_change,24,0,4,,,,,,,,,4,11,82,,,
180053,control_change,24,0,2,,,,,,,,,1,11,82,,,
180054,control_change,9,0,8,,,,,,,,,12,11,82,,,
180054,control_change,24,0,5,,,,,,,,,5,11,82,,,
180058,control_change,24,0,9,,,,,,,,,13,11,82,,,
180059,control_change,24,0,3,,,,,,,,,3,11,82,,,
180060,control_change,24,0,10,,,,,,,,,14,11,82,,,
180060,note_on,0,0,6,,,,,,,,,10,,,,82,80
180060,note_on,12,0,6,,,,,,,,,10,,,,70,80
180062,note_on,12,0,7,,,,,,,,,11,,,,74,80
180066,note_on,12,0,8,,,,,,,,,12,,,,58,78
180072,control_change,12,0,6,,,,,,,,,10,11,83,,,
180074,control_change,12,0,7,,,,,,,,,11,11,83,,,
180075,control_change,24,0,1,,,,,,,,,0,11,83,,,
180076,control_change,24,0,4,,,,,,,,,4,11,83,,,
180077,control_change,24,0,2,,,,,,,,,1,11,83,,,
180078,control_change,12,0,8,,,,,,,,,12,11,83,,,
180078,control_change,24,0,5,,,,,,,,,5,11,83,,,
180082,control_change,24,0,9,,,,,,,,,13,11,83,,,
180083,control_change,24,0,3,,,,,,,,,3,11,83,,,
180084,control_change,24,0,10,,,,,,,,,14,11,83,,,
180096,control_change,24,0,6,,,,,,,,,10,11,84,,,
180098,control_change,24,0,7,,,,,,,,,11,11,84,,,
180099,note_on,3,0,6,,,,,,,,,10,,,,82,0
180099,note_on,0,0,6,,,,,,,,,10,,,,70,0
180099,control_change,24,0,1,,,,,,,,,0,11,84,,,
180100,control_change,24,0,4,,,,,,,,,4,11,84,,,
180101,control_change,24,0,2,,,,,,,,,1,11,84,,,
180101,note_on,3,0,7,,,,,,,,,11,,,,74,0
180102,control_change,24,0,8,,,,,,,,,12,11,84,,,
180102,control_change,24,0,5,,,,,,,,,5,11,84,,,
180105,note_on,3,0,8,,,,,,,,,12,,,,58,0
180106,control_change,24,0,9,,,,,,,,,13,11,84,,,
180107,control_change,24,0,3,,,,,,,,,3,11,84,,,
180108,control_change,24,0,10,,,,,,,,,14,11,84,,,
180120,note_on,0,0,6,,,,,,,,,10,,,,82,90
180120,control_change,21,0,6,,,,,,,,,10,11,86,,,
180120,note_on,0,0,6,,,,,,,,,10,,,,70,90
180122,note_on,0,0,7,,,,,,,,,11,,,,74,90
180122,control_change,21,0,7,,,,,,,,,11,11,86,,,
180123,control_change,24,0,1,,,,,,,,,0,11,86,,,
180124,control_change,24,0,4,,,,,,,,,4,11,86,,,
180125,control_change,24,0,2,,,,,,,,,1,11,86,,,
180126,control_change,21,0,8,,,,,,,,,12,11,86,,,
180126,control_change,24,0,5,,,,,,,,,5,11,86,,,
180126,note_on,0,0,8,,,,,,,,,12,,,,58,88
180130,control_change,24,0,9,,,,,,,,,13,11,86,,,
180131,control_change,24,0,3,,,,,,,,,3,11,86,,,
180132,control_change,24,0,10,,,,,,,,,14,11,86,,,
180144,control_change,24,0,6,,,,,,,,,10,11,87,,,
180146,control_change,24,0,7,,,,,,,,,11,11,87,,,
180147,control_change,24,0,1,,,,,,,,,0,11,87,,,
180148,control_change,24,0,4,,,,,,,,,4,11,87,,,
180149,control_change,24,0,2,,,,,,,,,1,11,87,,,
180150,control_change,24,0,5,,,,,,,,,5,11,87,,,
180150,control_change,24,0,8,,,,,,,,,12,11,87,,,
180154,control_change,24,0,9,,,,,,,,,13,11,87,,,
180155,control_change,24,0,3,,,,,,,,,3,11,87,,,
180156,control_change,24,0,10,,,,,,,,,14,11,87,,,
180159,note_on,15,0,6,,,,,,,,,10,,,,82,0
180159,note_on,0,0,6,,,,,,,,,10,,,,70,0
180161,note_on,15,0,7,,,,,,,,,11,,,,74,0
180165,note_on,15,0,8,,,,,,,,,12,,,,58,0
180168,control_change,9,0,6,,,,,,,,,10,11,89,,,
180170,control_change,9,0,7,,,,,,,,,11,11,89,,,
180171,control_change,24,0,1,,,,,,,,,0,11,89,,,
180172,control_change,24,0,4,,,,,,,,,4,11,89,,,
180173,control_change,24,0,2,,,,,,,,,1,11,89,,,
180174,control_change,24,0,5,,,,,,,,,5,11,89,,,
180174,control_change,9,0,8,,,,,,,,,12,11,89,,,
180178,control_change,24,0,9,,,,,,,,,13,11,89,,,
180179,control_change,24,0,3,,,,,,,,,3,11,89,,,
180180,control_change,24,0,10,,,,,,,,,14,11,89,,,
180180,note_on,0,0,6,,,,,,,,,10,,,,70,83
180180,note_on,12,0,6,,,,,,,,,10,,,,82,83
180182,note_on,12,0,7,,,,,,,,,11,,,,74,83
180186,note_on,12,0,8,,,,,,,,,12,,,,58,81
180219,note_on,0,0,6,,,,,,,,,10,,,,82,0
180219,note_on,39,0,6,,,,,,,,,10,,,,70,0
180221,note_on,39,0,7,,,,,,,,,11,,,,74,0
180225,note_on,39,0,8,,,,,,,,,12,,,,58,0
180228,note_on,57,0,1,,,,,,,,,0,,,,86,0
180229,note_on,57,0,4,,,,,,,,,4,,,,58,0
180230,note_on,57,0,2,,,,,,,,,1,,,,74,0
180230,note_on,0,0,2,,,,,,,,,1,,,,82,0
180231,note_on,57,0,5,,,,,,,,,5,,,,46,0
180236,note_on,57,0,3,,,,,,,,,3,,,,46,0
180240,note_on,0,0,6,,,,,,,,,10,,,,82,86
180240,note_on,0,0,6,,,,,,,,,10,,,,70,86
180240,control_change,21,0,6,,,,,,,,,10,11,95,,,
180240,set_tempo,240,1,0,,,,,,261438,,,,,,,,
180242,control_change,21,0,7,,,,,,,,,11,11,95,,,
180242,note_on,0,0,7,,,,,,,,,11,,,,75,86
180243,control_change,15,0,1,,,,,,,,,0,11,95,,,
180243,note_on,0,0,1,,,,,,,,,0,,,,87,76
180244,control_change,15,0,4,,,,,,,,,4,11,95,,,
180244,note_on,0,0,4,,,,,,,,,4,,,,58,74
180245,note_on,67,0,9,,,,,,,,,13,,,,46,0
180245,control_change,15,0,2,,,,,,,,,1,11,95,,,
180245,note_on,0,0,2,,,,,,,,,1,,,,75,76
180245,note_on,0,0,2,,,,,,,,,1,,,,82,76
180246,note_on,0,0,5,,,,,,,,,5,,,,46,74
180246,control_change,15,0,5,,,,,,,,,5,11,95,,,
180246,control_change,21,0,8,,,,,,,,,12,11,95,,,
180246,note_on,0,0,8,,,,,,,,,12,,,,60,84
180247,control_change,7,0,6,,,,,,,,,10,11,99,,,
180247,note_on,67,0,10,,,,,,,,,14,,,,34,0
180249,control_change,7,0,7,,,,,,,,,11,11,99,,,
180250,control_change,5,0,9,,,,,,,,,13,11,95,,,
180250,control_change,7,0,1,,,,,,,,,0,11,99,,,
180250,note_on,0,0,9,,,,,,,,,13,,,,48,76
180251,note_on,0,0,3,,,,,,,,,3,,,,48,76
180251,control_change,7,0,4,,,,,,,,,4,11,99,,,
180251,control_change,15,0,3,,,,,,,,,3,11,95,,,
180252,note_on,0,0,10,,,,,,,,,14,,,,36,70
180252,control_change,5,0,10,,,,,,,,,14,11,95,,,
180252,control_change,7,0,2,,,,,,,,,1,11,99,,,
180253,control_change,7,0,5,,,,,,,,,5,11,99,,,
180253,control_change,7,0,8,,,,,,,,,12,11,99,,,
180257,control_change,7,0,9,,,,,,,,,13,11,99,,,
180258,control_change,7,0,3,,,,,,,,,3,11,99,,,
180259,control_change,7,0,10,,,,,,,,,14,11,99,,,
180270,control_change,23,0,6,,,,,,,,,10,11,100,,,
180272,control_change,23,0,7,,,,,,,,,11,11,100,,,
180273,control_change,23,0,1,,,,,,,,,0,11,100,,,
180274,control_change,23,0,4,,,,,,,,,4,11,100,,,
180275,control_change,23,0,2,,,,,,,,,1,11,100,,,
180276,control_change,23,0,8,,,,,,,,,12,11,100,,,
180276,control_change,23,0,5,,,,,,,,,5,11,100,,,
180279,note_on,0,0,6,,,,,,,,,10,,,,70,0
180279,note_on,9,0,6,,,,,,,,,10,,,,82,0
180280,control_change,23,0,9,,,,,,,,,13,11,100,,,
180281,control_change,23,0,3,,,,,,,,,3,11,100,,,
180281,note_on,9,0,7,,,,,,,,,11,,,,75,0
180282,control_change,23,0,10,,,,,,,,,14,11,100,,,
180285,note_on,9,0,8,,,,,,,,,12,,,,60,0
180288,control_change,9,0,6,,,,,,,,,10,11,98,,,
180290,control_change,9,0,7,,,,,,,,,11,11,98,,,
180291,control_change,18,0,1,,,,,,,,,0,11,98,,,
180292,control_change,18,0,4,,,,,,,,,4,11,98,,,
180293,control_change,18,0,2,,,,,,,,,1,11,98,,,
180294,control_change,18,0,5,,,,,,,,,5,11,98,,,
180294,control_change,9,0,8,,,,,,,,,12,11,98,,,
180298,control_change,18,0,9,,,,,,,,,13,11,98,,,
180299,control_change,18,0,3,,,,,,,,,3,11,98,,,
180300,control_change,18,0,10,,,,,,,,,14,11,98,,,
180300,note_on,12,0,6,,,,,,,,,10,,,,70,80
180300,note_on,0,0,6,,,,,,,,,10,,,,82,80
180302,note_on,12,0,7,,,,,,,,,11,,,,75,80
180306,note_on,12,0,8,,,,,,,,,12,,,,60,78
180306,control_change,6,0,6,,,,,,,,,10,11,95,,,
180308,control_change,6,0,7,,,,,,,,,11,11,95,,,
180309,control_change,18,0,1,,,,,,,,,0,11,95,,,
180310,control_change,18,0,4,,,,,,,,,4,11,95,,,
180311,control_change,18,0,2,,,,,,,,,1,11,95,,,
180312,control_change,18,0,5,,,,,,,,,5,11,95,,,
180312,control_change,6,0,8,,,,,,,,,12,11,95,,,
180316,control_change,18,0,9,,,,,,,,,13,11,95,,,
180317,control_change,18,0,3,,,,,,,,,3,11,95,,,
180318,control_change,18,0,10,,,,,,,,,14,11,95,,,
180324,control_change,18,0,6,,,,,,,,,10,11,93,,,
180326,control_change,18,0,7,,,,,,,,,11,11,93,,,
180327,control_change,18,0,1,,,,,,,,,0,11,93,,,
180328,control_change,18,0,4,,,,,,,,,4,11,93,,,
180329,control_change,18,0,2,,,,,,,,,1,11,93,,,
180330,control_change,18,0,8,,,,,,,,,12,11,93,,,
180330,control_change,18,0,5,,,,,,,,,5,11,93,,,
180334,control_change,18,0,9,,,,,,,,,13,11,93,,,
180335,control_change,18,0,3,,,,,,,,,3,11,93,,,
180336,control_change,18,0,10,,,,,,,,,14,11,93,,,
180339,note_on,0,0,6,,,,,,,,,10,,,,70,0
180339,note_on,15,0,6,,,,,,,,,10,,,,82,0
180341,note_on,15,0,7,,,,,,,,,11,,,,75,0
180342,control_change,3,0,6,,,,,,,,,10,11,91,,,
180344,control_change,3,0,7,,,,,,,,,11,11,91,,,
180345,control_change,18,0,1,,,,,,,,,0,11,91,,,
180345,note_on,15,0,8,,,,,,,,,12,,,,60,0
180346,control_change,18,0,4,,,,,,,,,4,11,91,,,
180347,control_change,18,0,2,,,,,,,,,1,11,91,,,
180348,control_change,18,0,5,,,,,,,,,5,11,91,,,
180348,control_change,3,0,8,,,,,,,,,12,11,91,,,
180352,control_change,18,0,9,,,,,,,,,13,11,91,,,
180353,control_change,18,0,3,,,,,,,,,3,11,91,,,
180354,control_change,18,0,10,,,,,,,,,14,11,91,,,
180360,note_on,0,0,6,,,,,,,,,10,,,,70,90
180360,control_change,18,0,6,,,,,,,,,10,11,89,,,
180360,note_on,0,0,6,,,,,,,,,10,,,,82,90
180362,note_on,0,0,7,,,,,,,,,11,,,,75,90
180362,control_change,18,0,7,,,,,,,,,11,11,89,,,
180363,control_change,18,0,1,,,,,,,,,0,11,89,,,
180364,control_change,18,0,4,,,,,,,,,4,11,89,,,
180365,control_change,18,0,2,,,,,,,,,1,11,89,,,
180366,note_on,0,0,8,,,,,,,,,12,,,,60,88
180366,control_change,18,0,5,,,,,,,,,5,11,89,,,
180366,control_change,18,0,8,,,,,,,,,12,11,89,,,
180370,control_change,18,0,9,,,,,,,,,13,11,89,,,
180371,control_change,18,0,3,,,,,,,,,3,11,89,,,
180372,control_change,18,0,10,,,,,,,,,14,11,89,,,
180399,note_on,0,0,6,,,,,,,,,10,,,,70,0
180399,note_on,39,0,6,,,,,,,,,10,,,,82,0
180401,note_on,39,0,7,,,,,,,,,11,,,,75,0
180405,note_on,39,0,8,,,,,,,,,12,,,,60,0
180420,note_on,0,0,6,,,,,,,,,10,,,,70,83
180420,note_on,21,0,6,,,,,,,,,10,,,,82,83
180422,note_on,21,0,7,,,,,,,,,11,,,,75,83
180426,note_on,21,0,8,,,,,,,,,12,,,,60,81
180459,note_on,39,0,6,,,,,,,,,10,,,,70,0
180459,note_on,0,0,6,,,,,,,,,10,,,,82,0
180461,note_on,39,0,7,,,,,,,,,11,,,,75,0
180465,note_on,39,0,8,,,,,,,,,12,,,,60,0
180468,note_on,105,0,1,,,,,,,,,0,,,,87,0
180469,note_on,105,0,4,,,,,,,,,4,,,,58,0
180470,note_on,0,0,2,,,,,,,,,1,,,,75,0
180470,note_on,105,0,2,,,,,,,,,1,,,,82,0
180471,note_on,105,0,5,,,,,,,,,5,,,,46,0
180476,note_on,105,0,3,,,,,,,,,3,,,,48,0
180480,set_tempo,240,1,0,,,,,,272727,,,,,,,,
180480,note_on,0,0,6,,,,,,,,,10,,,,70,94
180480,note_on,0,0,6,,,,,,,,,10,,,,82,94
180480,control_change,21,0,6,,,,,,,,,10,11,95,,,
180482,note_on,0,0,7,,,,,,,,,11,,,,76,94
180482,control_change,21,0,7,,,,,,,,,11,11,95,,,
180483,control_change,15,0,1,,,,,,,,,0,11,95,,,
180483,note_on,0,0,1,,,,,,,,,0,,,,88,83
180484,note_on,0,0,4,,,,,,,,,4,,,,58,81
180484,control_change,15,0,4,,,,,,,,,4,11,95,,,
180485,note_on,0,0,2,,,,,,,,,1,,,,76,83
180485,note_on,115,0,9,,,,,,,,,13,,,,48,0
180485,note_on,0,0,2,,,,,,,,,1,,,,82,83
180485,control_change,15,0,2,,,,,,,,,1,11,95,,,
180486,note_on,0,0,8,,,,,,,,,12,,,,61,92
180486,control_change,15,0,5,,,,,,,,,5,11,95,,,
180486,note_on,0,0,5,,,,,,,,,5,,,,46,81
180486,control_change,21,0,8,,,,,,,,,12,11,95,,,
180487,note_on,115,0,10,,,,,,,,,14,,,,36,0
180487,control_change,7,0,6,,,,,,,,,10,11,99,,,
180489,control_change,7,0,7,,,,,,,,,11,11,99,,,
180490,control_change,7,0,1,,,,,,,,,0,11,99,,,
180490,control_change,5,0,9,,,,,,,,,13,11,95,,,
180490,note_on,0,0,9,,,,,,,,,13,,,,49,83
180491,note_on,0,0,3,,,,,,,,,3,,,,49,83
180491,control_change,7,0,4,,,,,,,,,4,11,99,,,
180491,control_change,15,0,3,,,,,,,,,3,11,95,,,
180492,control_change,7,0,2,,,,,,,,,1,11,99,,,
180492,control_change,5,0,10,,,,,,,,,14,11,95,,,
180492,note_on,0,0,10,,,,,,,,,14,,,,37,77
180493,control_change,7,0,5,,,,,,,,,5,11,99,,,
180493,control_change,7,0,8,,,,,,,,,12,11,99,,,
180497,control_change,7,0,9,,,,,,,,,13,11,99,,,
180498,control_change,7,0,3,,,,,,,,,3,11,99,,,
180499,control_change,7,0,10,,,,,,,,,14,11,99,,,
180510,control_change,23,0,6,,,,,,,,,10,11,100,,,
180512,control_change,23,0,7,,,,,,,,,11,11,100,,,
180513,control_change,23,0,1,,,,,,,,,0,11,100,,,
180514,control_change,23,0,4,,,,,,,,,4,11,100,,,
180515,control_change,23,0,2,,,,,,,,,1,11,100,,,
180516,control_change,23,0,5,,,,,,,,,5,11,100,,,
180516,control_change,23,0,8,,,,,,,,,12,11,100,,,
180519,note_on,9,0,6,,,,,,,,,10,,,,70,0
180519,note_on,0,0,6,,,,,,,,,10,,,,82,0
180520,control_change,23,0,9,,,,,,,,,13,11,100,,,
180521,control_change,23,0,3,,,,,,,,,3,11,100,,,
180521,note_on,9,0,7,,,,,,,,,11,,,,76,0
180522,control_change,23,0,10,,,,,,,,,14,11,100,,,
180525,note_on,9,0,8,,,,,,,,,12,,,,61,0
180528,control_change,9,0,6,,,,,,,,,10,11,98,,,
180530,control_change,9,0,7,,,,,,,,,11,11,98,,,
180531,control_change,18,0,1,,,,,,,,,0,11,98,,,
180532,control_change,18,0,4,,,,,,,,,4,11,98,,,
180533,control_change,18,0,2,,,,,,,,,1,11,98,,,
180534,control_change,9,0,8,,,,,,,,,12,11,98,,,
180534,control_change,18,0,5,,,,,,,,,5,11,98,,,
180538,control_change,18,0,9,,,,,,,,,13,11,98,,,
180539,control_change,18,0,3,,,,,,,,,3,11,98,,,
180540,note_on,0,0,6,,,,,,,,,10,,,,82,86
180540,note_on,12,0,6,,,,,,,,,10,,,,70,86
180540,control_change,18,0,10,,,,,,,,,14,11,98,,,
180542,note_on,12,0,7,,,,,,,,,11,,,,76,86
180546,control_change,6,0,6,,,,,,,,,10,11,95,,,
180546,note_on,12,0,8,,,,,,,,,12,,,,61,84
180548,control_change,6,0,7,,,,,,,,,11,11,95,,,
180549,control_change,18,0,1,,,,,,,,,0,11,95,,,
180550,control_change,18,0,4,,,,,,,,,4,11,95,,,
180551,control_change,18,0,2,,,,,,,,,1,11,95,,,
180552,control_change,18,0,5,,,,,,,,,5,11,95,,,
180552,control_change,6,0,8,,,,,,,,,12,11,95,,,
180556,control_change,18,0,9,,,,,,,,,13,11,95,,,
180557,control_change,18,0,3,,,,,,,,,3,11,95,,,
180558,control_change,18,0,10,,,,,,,,,14,11,95,,,
180564,control_change,18,0,6,,,,,,,,,10,11,93,,,
180566,control_change,18,0,7,,,,,,,,,11,11,93,,,
180567,control_change,18,0,1,,,,,,,,,0,11,93,,,
180568,control_change,18,0,4,,,,,,,,,4,11,93,,,
180569,control_change,18,0,2,,,,,,,,,1,11,93,,,
180570,control_change,18,0,8,,,,,,,,,12,11,93,,,
180570,control_change,18,0,5,,,,,,,,,5,11,93,,,
180574,control_change,18,0,9,,,,,,,,,13,11,93,,,
180575,control_change,18,0,3,,,,,,,,,3,11,93,,,
180576,control_change,18,0,10,,,,,,,,,14,11,93,,,
180579,note_on,15,0,6,,,,,,,,,10,,,,82,0
180579,note_on,0,0,6,,,,,,,,,10,,,,70,0
180581,note_on,15,0,7,,,,,,,,,11,,,,76,0
180582,control_change,3,0,6,,,,,,,,,10,11,91,,,
180584,control_change,3,0,7,,,,,,,,,11,11,91,,,
180585,control_change,18,0,1,,,,,,,,,0,11,91,,,
180585,note_on,15,0,8,,,,,,,,,12,,,,61,0
180586,control_change,18,0,4,,,,,,,,,4,11,91,,,
180587,control_change,18,0,2,,,,,,,,,1,11,91,,,
180588,control_change,3,0,8,,,,,,,,,12,11,91,,,
180588,control_change,18,0,5,,,,,,,,,5,11,91,,,
180592,control_change,18,0,9,,,,,,,,,13,11,91,,,
180593,control_change,18,0,3,,,,,,,,,3,11,91,,,
180594,control_change,18,0,10,,,,,,,,,14,11,91,,,
180600,note_on,0,0,6,,,,,,,,,10,,,,70,94
180600,control_change,18,0,6,,,,,,,,,10,11,89,,,
180600,note_on,0,0,6,,,,,,,,,10,,,,82,94
180602,note_on,0,0,7,,,,,,,,,11,,,,76,94
180602,control_change,18,0,7,,,,,,,,,11,11,89,,,
180603,control_change,18,0,1,,,,,,,,,0,11,89,,,
180604,control_change,18,0,4,,,,,,,,,4,11,89,,,
180605,control_change,18,0,2,,,,,,,,,1,11,89,,,
180606,note_on,0,0,8,,,,,,,,,12,,,,61,92
180606,control_change,18,0,5,,,,,,,,,5,11,89,,,
180606,control_change,18,0,8,,,,,,,,,12,11,89,,,
180610,control_change,18,0,9,,,,,,,,,13,11,89,,,
180611,control_change,18,0,3,,,,,,,,,3,11,89,,,
180612,control_change,18,0,10,,,,,,,,,14,11,89,,,
180639,note_on,0,0,6,,,,,,,,,10,,,,82,0
180639,note_on,39,0,6,,,,,,,,,10,,,,70,0
180641,note_on,39,0,7,,,,,,,,,11,,,,76,0
180645,note_on,39,0,8,,,,,,,,,12,,,,61,0
180660,note_on,0,0,6,,,,,,,,,10,,,,70,86
180660,note_on,21,0,6,,,,,,,,,10,,,,82,86
180662,note_on,21,0,7,,,,,,,,,11,,,,76,86
180666,note_on,21,0,8,,,,,,,,,12,,,,61,84
180699,note_on,39,0,6,,,,,,,,,10,,,,70,0
180699,note_on,0,0,6,,,,,,,,,10,,,,82,0
180701,note_on,39,0,7,,,,,,,,,11,,,,76,0
180705,note_on,39,0,8,,,,,,,,,12,,,,61,0
180708,note_on,105,0,1,,,,,,,,,0,,,,88,0
180709,note_on,105,0,4,,,,,,,,,4,,,,58,0
180710,note_on,105,0,2,,,,,,,,,1,,,,76,0
180710,note_on,0,0,2,,,,,,,,,1,,,,82,0
180711,note_on,105,0,5,,,,,,,,,5,,,,46,0
180716,note_on,105,0,3,,,,,,,,,3,,,,49,0
180720,set_tempo,240,1,0,,,,,,261438,,,,,,,,
180720,note_on,0,0,6,,,,,,,,,10,,,,82,94
180720,control_change,21,0,6,,,,,,,,,10,11,95,,,
180720,note_on,0,0,6,,,,,,,,,10,,,,70,94
180722,control_change,21,0,7,,,,,,,,,11,11,95,,,
180722,note_on,0,0,7,,,,,,,,,11,,,,77,94
180723,control_change,15,0,1,,,,,,,,,0,11,95,,,
180723,note_on,0,0,1,,,,,,,,,0,,,,89,83
180724,control_change,15,0,4,,,,,,,,,4,11,95,,,
180724,note_on,0,0,4,,,,,,,,,4,,,,58,81
180725,note_on,0,0,2,,,,,,,,,1,,,,82,83
180725,note_on,0,0,2,,,,,,,,,1,,,,77,83
180725,note_on,115,0,9,,,,,,,,,13,,,,49,0
180725,control_change,15,0,2,,,,,,,,,1,11,95,,,
180726,control_change,21,0,8,,,,,,,,,12,11,95,,,
180726,control_change,15,0,5,,,,,,,,,5,11,95,,,
180726,note_on,0,0,5,,,,,,,,,5,,,,46,81
180726,note_on,0,0,8,,,,,,,,,12,,,,62,92
180727,note_on,115,0,10,,,,,,,,,14,,,,37,0
180727,control_change,7,0,6,,,,,,,,,10,11,99,,,
180729,control_change,7,0,7,,,,,,,,,11,11,99,,,
180730,control_change,5,0,9,,,,,,,,,13,11,95,,,
180730,note_on,0,0,9,,,,,,,,,13,,,,50,83
180730,control_change,7,0,1,,,,,,,,,0,11,99,,,
180731,control_change,7,0,4,,,,,,,,,4,11,99,,,
180731,control_change,15,0,3,,,,,,,,,3,11,95,,,
180731,note_on,0,0,3,,,,,,,,,3,,,,50,83
180732,note_on,0,0,10,,,,,,,,,14,,,,38,77
180732,control_change,7,0,2,,,,,,,,,1,11,99,,,
180732,control_change,5,0,10,,,,,,,,,14,11,95,,,
180733,control_change,7,0,5,,,,,,,,,5,11,99,,,
180733,control_change,7,0,8,,,,,,,,,12,11,99,,,
180737,control_change,7,0,9,,,,,,,,,13,11,99,,,
180738,control_change,7,0,3,,,,,,,,,3,11,99,,,
180739,control_change,7,0,10,,,,,,,,,14,11,99,,,
180750,control_change,23,0,6,,,,,,,,,10,11,100,,,
180752,control_change,23,0,7,,,,,,,,,11,11,100,,,
180753,control_change,23,0,1,,,,,,,,,0,11,100,,,
180754,control_change,23,0,4,,,,,,,,,4,11,100,,,
180755,control_change,23,0,2,,,,,,,,,1,11,100,,,
180756,control_change,23,0,5,,,,,,,,,5,11,100,,,
180756,control_change,23,0,8,,,,,,,,,12,11,100,,,
180759,note_on,9,0,6,,,,,,,,,10,,,,70,0
180759,note_on,0,0,6,,,,,,,,,10,,,,82,0
180760,control_change,23,0,9,,,,,,,,,13,11,100,,,
180761,note_on,9,0,7,,,,,,,,,11,,,,77,0
180761,control_change,23,0,3,,,,,,,,,3,11,100,,,
180762,control_change,23,0,10,,,,,,,,,14,11,100,,,
180765,note_on,9,0,8,,,,,,,,,12,,,,62,0
180768,control_change,9,0,6,,,,,,,,,10,11,98,,,
180770,control_change,9,0,7,,,,,,,,,11,11,98,,,
180771,control_change,18,0,1,,,,,,,,,0,11,98,,,
180772,control_change,18,0,4,,,,,,,,,4,11,98,,,
180773,control_change,18,0,2,,,,,,,,,1,11,98,,,
180774,control_change,9,0,8,,,,,,,,,12,11,98,,,
180774,control_change,18,0,5,,,,,,,,,5,11,98,,,
180778,control_change,18,0,9,,,,,,,,,13,11,98,,,
180779,control_change,18,0,3,,,,,,,,,3,11,98,,,
180780,note_on,0,0,6,,,,,,,,,10,,,,82,86
180780,note_on,12,0,6,,,,,,,,,10,,,,70,86
180780,control_change,18,0,10,,,,,,,,,14,11,98,,,
180782,note_on,12,0,7,,,,,,,,,11,,,,77,86
180786,control_change,6,0,6,,,,,,,,,10,11,95,,,
180786,note_on,12,0,8,,,,,,,,,12,,,,62,84
180788,control_change,6,0,7,,,,,,,,,11,11,95,,,
180789,control_change,18,0,1,,,,,,,,,0,11,95,,,
180790,control_change,18,0,4,,,,,,,,,4,11,95,,,
180791,control_change,18,0,2,,,,,,,,,1,11,95,,,
180792,control_change,6,0,8,,,,,,,,,12,11,95,,,
180792,control_change,18,0,5,,,,,,,,,5,11,95,,,
180796,control_change,18,0,9,,,,,,,,,13,11,95,,,
180797,control_change,18,0,3,,,,,,,,,3,11,95,,,
180798,control_change,18,0,10,,,,,,,,,14,11,95,,,
180804,control_change,18,0,6,,,,,,,,,10,11,93,,,
180806,control_change,18,0,7,,,,,,,,,11,11,93,,,
180807,control_change,18,0,1,,,,,,,,,0,11,93,,,
180808,control_change,18,0,4,,,,,,,,,4,11,93,,,
180809,control_change,18,0,2,,,,,,,,,1,11,93,,,
180810,control_change,18,0,5,,,,,,,,,5,11,93,,,
180810,control_change,18,0,8,,,,,,,,,12,11,93,,,
180814,control_change,18,0,9,,,,,,,,,13,11,93,,,
180815,control_change,18,0,3,,,,,,,,,3,11,93,,,
180816,control_change,18,0,10,,,,,,,,,14,11,93,,,
180819,note_on,0,0,6,,,,,,,,,10,,,,70,0
180819,note_on,15,0,6,,,,,,,,,10,,,,82,0
180821,note_on,15,0,7,,,,,,,,,11,,,,77,0
180822,control_change,3,0,6,,,,,,,,,10,11,91,,,
180824,control_change,3,0,7,,,,,,,,,11,11,91,,,
180825,note_on,15,0,8,,,,,,,,,12,,,,62,0
180825,control_change,18,0,1,,,,,,,,,0,11,91,,,
180826,control_change,18,0,4,,,,,,,,,4,11,91,,,
180827,control_change,18,0,2,,,,,,,,,1,11,91,,,
180828,control_change,18,0,5,,,,,,,,,5,11,91,,,
180828,control_change,3,0,8,,,,,,,,,12,11,91,,,
180832,control_change,18,0,9,,,,,,,,,13,11,91,,,
180833,control_change,18,0,3,,,,,,,,,3,11,91,,,
180834,control_change,18,0,10,,,,,,,,,14,11,91,,,
180840,note_on,0,0,6,,,,,,,,,10,,,,70,94
180840,note_on,0,0,6,,,,,,,,,10,,,,82,94
180840,control_change,18,0,6,,,,,,,,,10,11,89,,,
180842,note_on,0,0,7,,,,,,,,,11,,,,77,94
180842,control_change,18,0,7,,,,,,,,,11,11,89,,,
180843,control_change,18,0,1,,,,,,,,,0,11,89,,,
180844,control_change,18,0,4,,,,,,,,,4,11,89,,,
180845,control_change,18,0,2,,,,,,,,,1,11,89,,,
180846,note_on,0,0,8,,,,,,,,,12,,,,62,92
180846,control_change,18,0,8,,,,,,,,,12,11,89,,,
180846,control_change,18,0,5,,,,,,,,,5,11,89,,,
180850,control_change,18,0,9,,,,,,,,,13,11,89,,,
180851,control_change,18,0,3,,,,,,,,,3,11,89,,,
180852,control_change,18,0,10,,,,,,,,,14,11,89,,,
180879,note_on,39,0,6,,,,,,,,,10,,,,70,0
180879,note_on,0,0,6,,,,,,,,,10,,,,82,0
180881,note_on,39,0,7,,,,,,,,,11,,,,77,0
180885,note_on,39,0,8,,,,,,,,,12,,,,62,0
180900,note_on,21,0,6,,,,,,,,,10,,,,82,86
180900,note_on,0,0,6,,,,,,,,,10,,,,70,86
180902,note_on,21,0,7,,,,,,,,,11,,,,77,86
180906,note_on,21,0,8,,,,,,,,,12,,,,62,84
180939,note_on,0,0,6,,,,,,,,,10,,,,82,0
180939,note_on,39,0,6,,,,,,,,,10,,,,70,0
180941,note_on,39,0,7,,,,,,,,,11,,,,77,0
180945,note_on,39,0,8,,,,,,,,,12,,,,62,0
180948,note_on,105,0,1,,,,,,,,,0,,,,89,0
180949,note_on,105,0,4,,,,,,,,,4,,,,58,0
180950,note_on,0,0,2,,,,,,,,,1,,,,77,0
180950,note_on,105,0,2,,,,,,,,,1,,,,82,0
180951,note_on,105,0,5,,,,,,,,,5,,,,46,0
180956,note_on,105,0,3,,,,,,,,,3,,,,50,0
180960,note_on,0,0,6,,,,,,,,,10,,,,70,94
180960,note_on,0,0,6,,,,,,,,,10,,,,82,94
180960,control_change,21,0,6,,,,,,,,,10,11,95,,,
180960,set_tempo,240,1,0,,,,,,272727,,,,,,,,
180962,control_change,21,0,7,,,,,,,,,11,11,95,,,
180962,note_on,0,0,7,,,,,,,,,11,,,,78,94
180963,note_on,0,0,1,,,,,,,,,0,,,,90,83
180963,control_change,15,0,1,,,,,,,,,0,11,95,,,
180964,control_change,15,0,4,,,,,,,,,4,11,95,,,
180964,note_on,0,0,4,,,,,,,,,4,,,,58,81
180965,note_on,115,0,9,,,,,,,,,13,,,,50,0
180965,control_change,15,0,2,,,,,,,,,1,11,95,,,
180965,note_on,0,0,2,,,,,,,,,1,,,,78,83
180965,note_on,0,0,2,,,,,,,,,1,,,,82,83
180966,note_on,0,0,8,,,,,,,,,12,,,,63,92
180966,control_change,15,0,5,,,,,,,,,5,11,95,,,
180966,control_change,21,0,8,,,,,,,,,12,11,95,,,
180966,note_on,0,0,5,,,,,,,,,5,,,,46,81
180967,note_on,115,0,10,,,,,,,,,14,,,,38,0
180967,control_change,7,0,6,,,,,,,,,10,11,99,,,
180969,control_change,7,0,7,,,,,,,,,11,11,99,,,
180970,control_change,5,0,9,,,,,,,,,13,11,95,,,
180970,control_change,7,0,1,,,,,,,,,0,11,99,,,
180970,note_on,0,0,9,,,,,,,,,13,,,,51,83
180971,control_change,7,0,4,,,,,,,,,4,11,99,,,
180971,note_on,0,0,3,,,,,,,,,3,,,,51,83
180971,control_change,15,0,3,,,,,,,,,3,11,95,,,
180972,note_on,0,0,10,,,,,,,,,14,,,,39,77
180972,control_change,5,0,10,,,,,,,,,14,11,95,,,
180972,control_change,7,0,2,,,,,,,,,1,11,99,,,
180973,control_change,7,0,5,,,,,,,,,5,11,99,,,
180973,control_change,7,0,8,,,,,,,,,12,11,99,,,
180977,control_change,7,0,9,,,,,,,,,13,11,99,,,
180978,control_change,7,0,3,,,,,,,,,3,11,99,,,
180979,control_change,7,0,10,,,,,,,,,14,11,99,,,
180990,control_change,23,0,6,,,,,,,,,10,11,100,,,
180992,control_change,23,0,7,,,,,,,,,11,11,100,,,
180993,control_change,23,0,1,,,,,,,,,0,11,100,,,
180994,control_change,23,0,4,,,,,,,,,4,11,100,,,
180995,control_change,23,0,2,,,,,,,,,1,11,100,,,
180996,control_change,23,0,5,,,,,,,,,5,11,100,,,
180996,control_change,23,0,8,,,,,,,,,12,11,100,,,
180999,note_on,0,0,6,,,,,,,,,10,,,,82,0
180999,note_on,9,0,6,,,,,,,,,10,,,,70,0
181000,control_change,23,0,9,,,,,,,,,13,11,100,,,
181001,note_on,9,0,7,,,,,,,,,11,,,,78,0
181001,control_change,23,0,3,,,,,,,,,3,11,100,,,
181002,control_change,23,0,10,,,,,,,,,14,11,100,,,
181005,note_on,9,0,8,,,,,,,,,12,,,,63,0
181008,control_change,9,0,6,,,,,,,,,10,11,98,,,
181010,control_change,9,0,7,,,,,,,,,11,11,98,,,
181011,control_change,18,0,1,,,,,,,,,0,11,98,,,
181012,control_change,18,0,4,,,,,,,,,4,11,98,,,
181013,control_change,18,0,2,,,,,,,,,1,11,98,,,
181014,control_change,9,0,8,,,,,,,,,12,11,98,,,
181014,control_change,18,0,5,,,,,,,,,5,11,98,,,
181018,control_change,18,0,9,,,,,,,,,13,11,98,,,
181019,control_change,18,0,3,,,,,,,,,3,11,98,,,
181020,control_change,18,0,10,,,,,,,,,14,11,98,,,
181020,note_on,12,0,6,,,,,,,,,10,,,,82,86
181020,note_on,0,0,6,,,,,,,,,10,,,,70,86
181022,note_on,12,0,7,,,,,,,,,11,,,,78,86
181026,control_change,6,0,6,,,,,,,,,10,11,95,,,
181026,note_on,12,0,8,,,,,,,,,12,,,,63,84
181028,control_change,6,0,7,,,,,,,,,11,11,95,,,
181029,control_change,18,0,1,,,,,,,,,0,11,95,,,
181030,control_change,18,0,4,,,,,,,,,4,11,95,,,
181031,control_change,18,0,2,,,,,,,,,1,11,95,,,
181032,control_change,6,0,8,,,,,,,,,12,11,95,,,
181032,control_change,18,0,5,,,,,,,,,5,11,95,,,
181036,control_change,18,0,9,,,,,,,,,13,11,95,,,
181037,control_change,18,0,3,,,,,,,,,3,11,95,,,
181038,control_change,18,0,10,,,,,,,,,14,11,95,,,
181044,control_change,18,0,6,,,,,,,,,10,11,93,,,
181046,control_change,18,0,7,,,,,,,,,11,11,93,,,
181047,control_change,18,0,1,,,,,,,,,0,11,93,,,
181048,control_change,18,0,4,,,,,,,,,4,11,93,,,
181049,control_change,18,0,2,,,,,,,,,1,11,93,,,
181050,control_change,18,0,5,,,,,,,,,5,11,93,,,
181050,control_change,18,0,8,,,,,,,,,12,11,93,,,
181054,control_change,18,0,9,,,,,,,,,13,11,93,,,
181055,control_change,18,0,3,,,,,,,,,3,11,93,,,
181056,control_change,18,0,10,,,,,,,,,14,11,93,,,
181059,note_on,15,0,6,,,,,,,,,10,,,,70,0
181059,note_on,0,0,6,,,,,,,,,10,,,,82,0
181061,note_on,15,0,7,,,,,,,,,11,,,,78,0
181062,control_change,3,0,6,,,,,,,,,10,11,91,,,
181064,control_change,3,0,7,,,,,,,,,11,11,91,,,
181065,control_change,18,0,1,,,,,,,,,0,11,91,,,
181065,note_on,15,0,8,,,,,,,,,12,,,,63,0
181066,control_change,18,0,4,,,,,,,,,4,11,91,,,
181067,control_change,18,0,2,,,,,,,,,1,11,91,,,
181068,control_change,3,0,8,,,,,,,,,12,11,91,,,
181068,control_change,18,0,5,,,,,,,,,5,11,91,,,
181072,control_change,18,0,9,,,,,,,,,13,11,91,,,
181073,control_change,18,0,3,,,,,,,,,3,11,91,,,
181074,control_change,18,0,10,,,,,,,,,14,11,91,,,
181080,control_change,18,0,6,,,,,,,,,10,11,89,,,
181080,note_on,0,0,6,,,,,,,,,10,,,,82,94
181080,note_on,0,0,6,,,,,,,,,10,,,,70,94
181082,note_on,0,0,7,,,,,,,,,11,,,,78,94
181082,control_change,18,0,7,,,,,,,,,11,11,89,,,
181083,control_change,18,0,1,,,,,,,,,0,11,89,,,
181084,control_change,18,0,4,,,,,,,,,4,11,89,,,
181085,control_change,18,0,2,,,,,,,,,1,11,89,,,
181086,control_change,18,0,5,,,,,,,,,5,11,89,,,
181086,control_change,18,0,8,,,,,,,,,12,11,89,,,
181086,note_on,0,0,8,,,,,,,,,12,,,,63,92
181090,control_change,18,0,9,,,,,,,,,13,11,89,,,
181091,control_change,18,0,3,,,,,,,,,3,11,89,,,
181092,control_change,18,0,10,,,,,,,,,14,11,89,,,
181119,note_on,0,0,6,,,,,,,,,10,,,,82,0
181119,note_on,39,0,6,,,,,,,,,10,,,,70,0
181121,note_on,39,0,7,,,,,,,,,11,,,,78,0
181125,note_on,39,0,8,,,,,,,,,12,,,,63,0
181140,note_on,21,0,6,,,,,,,,,10,,,,82,86
181140,note_on,0,0,6,,,,,,,,,10,,,,70,86
181142,note_on,21,0,7,,,,,,,,,11,,,,78,86
181146,note_on,21,0,8,,,,,,,,,12,,,,63,84
181179,note_on,0,0,6,,,,,,,,,10,,,,82,0
181179,note_on,39,0,6,,,,,,,,,10,,,,70,0
181181,note_on,39,0,7,,,,,,,,,11,,,,78,0
181185,note_on,39,0,8,,,,,,,,,12,,,,63,0
181188,note_on,105,0,1,,,,,,,,,0,,,,90,0
181189,note_on,105,0,4,,,,,,,,,4,,,,58,0
181190,note_on,105,0,2,,,,,,,,,1,,,,82,0
181190,note_on,0,0,2,,,,,,,,,1,,,,78,0
181191,note_on,105,0,5,,,,,,,,,5,,,,46,0
181196,note_on,105,0,3,,,,,,,,,3,,,,51,0
181200,note_on,0,0,6,,,,,,,,,10,,,,82,94
181200,note_on,0,0,6,,,,,,,,,10,,,,70,94
181200,control_change,21,0,6,,,,,,,,,10,11,95,,,
181200,set_tempo,240,1,0,,,,,,261438,,,,,,,,
181202,control_change,21,0,7,,,,,,,,,11,11,95,,,
181202,note_on,0,0,7,,,,,,,,,11,,,,74,94
181203,note_on,0,0,1,,,,,,,,,0,,,,86,83
181203,control_change,15,0,1,,,,,,,,,0,11,95,,,
181204,control_change,15,0,4,,,,,,,,,4,11,95,,,
181204,note_on,0,0,4,,,,,,,,,4,,,,58,81
181205,control_change,15,0,2,,,,,,,,,1,11,95,,,
181205,note_on,0,0,2,,,,,,,,,1,,,,74,83
181205,note_on,0,0,2,,,,,,,,,1,,,,82,83
181205,note_on,115,0,9,,,,,,,,,13,,,,51,0
181206,note_on,0,0,5,,,,,,,,,5,,,,46,81
181206,control_change,21,0,8,,,,,,,,,12,11,95,,,
181206,note_on,0,0,8,,,,,,,,,12,,,,65,92
181206,control_change,15,0,5,,,,,,,,,5,11,95,,,
181207,control_change,7,0,6,,,,,,,,,10,11,99,,,
181207,note_on,115,0,10,,,,,,,,,14,,,,39,0
181209,control_change,7,0,7,,,,,,,,,11,11,99,,,
181210,control_change,7,0,1,,,,,,,,,0,11,99,,,
181210,control_change,5,0,9,,,,,,,,,13,11,95,,,
181210,note_on,0,0,9,,,,,,,,,13,,,,53,83
181211,control_change,15,0,3,,,,,,,,,3,11,95,,,
181211,control_change,7,0,4,,,,,,,,,4,11,99,,,
181211,note_on,0,0,3,,,,,,,,,3,,,,53,83
181212,control_change,5,0,10,,,,,,,,,14,11,95,,,
181212,control_change,7,0,2,,,,,,,,,1,11,99,,,
181212,note_on,0,0,10,,,,,,,,,14,,,,41,77
181213,control_change,7,0,8,,,,,,,,,12,11,99,,,
181213,control_change,7,0,5,,,,,,,,,5,11,99,,,
181217,control_change,7,0,9,,,,,,,,,13,11,99,,,
181218,control_change,7,0,3,,,,,,,,,3,11,99,,,
181219,control_change,7,0,10,,,,,,,,,14,11,99,,,
181230,control_change,23,0,6,,,,,,,,,10,11,100,,,
181232,control_change,23,0,7,,,,,,,,,11,11,100,,,
181233,control_change,23,0,1,,,,,,,,,0,11,100,,,
181234,control_change,23,0,4,,,,,,,,,4,11,100,,,
181235,control_change,23,0,2,,,,,,,,,1,11,100,,,
181236,control_change,23,0,8,,,,,,,,,12,11,100,,,
181236,control_change,23,0,5,,,,,,,,,5,11,100,,,
181239,note_on,9,0,6,,,,,,,,,10,,,,82,0
181239,note_on,0,0,6,,,,,,,,,10,,,,70,0
181240,control_change,23,0,9,,,,,,,,,13,11,100,,,
181241,control_change,23,0,3,,,,,,,,,3,11,100,,,
181241,note_on,9,0,7,,,,,,,,,11,,,,74,0
181242,control_change,23,0,10,,,,,,,,,14,11,100,,,
181245,note_on,9,0,8,,,,,,,,,12,,,,65,0
181248,control_change,9,0,6,,,,,,,,,10,11,98,,,
181250,control_change,9,0,7,,,,,,,,,11,11,98,,,
181251,control_change,18,0,1,,,,,,,,,0,11,98,,,
181252,control_change,18,0,4,,,,,,,,,4,11,98,,,
181253,control_change,18,0,2,,,,,,,,,1,11,98,,,
181254,control_change,18,0,5,,,,,,,,,5,11,98,,,
181254,control_change,9,0,8,,,,,,,,,12,11,98,,,
181258,control_change,18,0,9,,,,,,,,,13,11,98,,,
181259,control_change,18,0,3,,,,,,,,,3,11,98,,,
181260,note_on,12,0,6,,,,,,,,,10,,,,82,86
181260,note_on,0,0,6,,,,,,,,,10,,,,70,86
181260,control_change,18,0,10,,,,,,,,,14,11,98,,,
181262,note_on,12,0,7,,,,,,,,,11,,,,74,86
181266,control_change,6,0,6,,,,,,,,,10,11,95,,,
181266,note_on,12,0,8,,,,,,,,,12,,,,65,84
181268,control_change,6,0,7,,,,,,,,,11,11,95,,,
181269,control_change,18,0,1,,,,,,,,,0,11,95,,,
181270,control_change,18,0,4,,,,,,,,,4,11,95,,,
181271,control_change,18,0,2,,,,,,,,,1,11,95,,,
181272,control_change,18,0,5,,,,,,,,,5,11,95,,,
181272,control_change,6,0,8,,,,,,,,,12,11,95,,,
181276,control_change,18,0,9,,,,,,,,,13,11,95,,,
181277,control_change,18,0,3,,,,,,,,,3,11,95,,,
181278,control_change,18,0,10,,,,,,,,,14,11,95,,,
181284,control_change,18,0,6,,,,,,,,,10,11,93,,,
181286,control_change,18,0,7,,,,,,,,,11,11,93,,,
181287,control_change,18,0,1,,,,,,,,,0,11,93,,,
181288,control_change,18,0,4,,,,,,,,,4,11,93,,,
181289,control_change,18,0,2,,,,,,,,,1,11,93,,,
181290,control_change,18,0,8,,,,,,,,,12,11,93,,,
181290,control_change,18,0,5,,,,,,,,,5,11,93,,,
181294,control_change,18,0,9,,,,,,,,,13,11,93,,,
181295,control_change,18,0,3,,,,,,,,,3,11,93,,,
181296,control_change,18,0,10,,,,,,,,,14,11,93,,,
181299,note_on,15,0,6,,,,,,,,,10,,,,70,0
181299,note_on,0,0,6,,,,,,,,,10,,,,82,0
181301,note_on,15,0,7,,,,,,,,,11,,,,74,0
181302,control_change,3,0,6,,,,,,,,,10,11,91,,,
181304,control_change,3,0,7,,,,,,,,,11,11,91,,,
181305,note_on,15,0,8,,,,,,,,,12,,,,65,0
181305,control_change,18,0,1,,,,,,,,,0,11,91,,,
181306,control_change,18,0,4,,,,,,,,,4,11,91,,,
181307,control_change,18,0,2,,,,,,,,,1,11,91,,,
181308,control_change,3,0,8,,,,,,,,,12,11,91,,,
181308,control_change,18,0,5,,,,,,,,,5,11,91,,,
181312,control_change,18,0,9,,,,,,,,,13,11,91,,,
181313,control_change,18,0,3,,,,,,,,,3,11,91,,,
181314,control_change,18,0,10,,,,,,,,,14,11,91,,,
181320,note_on,0,0,6,,,,,,,,,10,,,,70,94
181320,control_change,18,0,6,,,,,,,,,10,11,89,,,
181320,note_on,0,0,6,,,,,,,,,10,,,,82,94
181322,control_change,18,0,7,,,,,,,,,11,11,89,,,
181322,note_on,0,0,7,,,,,,,,,11,,,,74,94
181323,control_change,18,0,1,,,,,,,,,0,11,89,,,
181324,control_change,18,0,4,,,,,,,,,4,11,89,,,
181325,control_change,18,0,2,,,,,,,,,1,11,89,,,
181326,control_change,18,0,8,,,,,,,,,12,11,89,,,
181326,note_on,0,0,8,,,,,,,,,12,,,,65,92
181326,control_change,18,0,5,,,,,,,,,5,11,89,,,
181330,control_change,18,0,9,,,,,,,,,13,11,89,,,
181331,control_change,18,0,3,,,,,,,,,3,11,89,,,
181332,control_change,18,0,10,,,,,,,,,14,11,89,,,
181359,note_on,0,0,6,,,,,,,,,10,,,,70,0
181359,note_on,39,0,6,,,,,,,,,10,,,,82,0
181361,note_on,39,0,7,,,,,,,,,11,,,,74,0
181365,note_on,39,0,8,,,,,,,,,12,,,,65,0
181380,note_on,21,0,6,,,,,,,,,10,,,,70,86
181380,note_on,0,0,6,,,,,,,,,10,,,,82,86
181382,note_on,21,0,7,,,,,,,,,11,,,,74,86
181386,note_on,21,0,8,,,,,,,,,12,,,,65,84
181419,note_on,39,0,6,,,,,,,,,10,,,,82,0
181419,note_on,0,0,6,,,,,,,,,10,,,,70,0
181421,note_on,39,0,7,,,,,,,,,11,,,,74,0
181425,note_on,39,0,8,,,,,,,,,12,,,,65,0
181428,note_on,105,0,1,,,,,,,,,0,,,,86,0
181429,note_on,105,0,4,,,,,,,,,4,,,,58,0
181430,note_on,105,0,2,,,,,,,,,1,,,,82,0
181430,note_on,0,0,2,,,,,,,,,1,,,,74,0
181431,note_on,105,0,5,,,,,,,,,5,,,,46,0
181436,note_on,105,0,3,,,,,,,,,3,,,,53,0
181440,note_on,0,0,6,,,,,,,,,10,,,,70,94
181440,control_change,21,0,6,,,,,,,,,10,11,95,,,
181440,note_on,0,0,6,,,,,,,,,10,,,,82,94
181440,set_tempo,240,1,0,,,,,,272727,,,,,,,,
181442,note_on,0,0,7,,,,,,,,,11,,,,75,94
181442,control_change,21,0,7,,,,,,,,,11,11,95,,,
181443,control_change,15,0,1,,,,,,,,,0,11,95,,,
181443,note_on,0,0,1,,,,,,,,,0,,,,87,83
181444,note_on,0,0,4,,,,,,,,,4,,,,58,81
181444,control_change,15,0,4,,,,,,,,,4,11,95,,,
181445,control_change,15,0,2,,,,,,,,,1,11,95,,,
181445,note_on,0,0,2,,,,,,,,,1,,,,82,83
181445,note_on,0,0,2,,,,,,,,,1,,,,75,83
181445,note_on,115,0,9,,,,,,,,,13,,,,53,0
181446,control_change,15,0,5,,,,,,,,,5,11,95,,,
181446,note_on,0,0,5,,,,,,,,,5,,,,46,81
181446,control_change,21,0,8,,,,,,,,,12,11,95,,,
181446,note_on,0,0,8,,,,,,,,,12,,,,66,92
181447,note_on,115,0,10,,,,,,,,,14,,,,41,0
181447,control_change,7,0,6,,,,,,,,,10,11,99,,,
181449,control_change,7,0,7,,,,,,,,,11,11,99,,,
181450,control_change,7,0,1,,,,,,,,,0,11,99,,,
181450,note_on,0,0,9,,,,,,,,,13,,,,54,83
181450,control_change,5,0,9,,,,,,,,,13,11,95,,,
181451,control_change,15,0,3,,,,,,,,,3,11,95,,,
181451,control_change,7,0,4,,,,,,,,,4,11,99,,,
181451,note_on,0,0,3,,,,,,,,,3,,,,54,83
181452,control_change,7,0,2,,,,,,,,,1,11,99,,,
181452,control_change,5,0,10,,,,,,,,,14,11,95,,,
181452,note_on,0,0,10,,,,,,,,,14,,,,42,77
181453,control_change,7,0,5,,,,,,,,,5,11,99,,,
181453,control_change,7,0,8,,,,,,,,,12,11,99,,,
181457,control_change,7,0,9,,,,,,,,,13,11,99,,,
181458,control_change,7,0,3,,,,,,,,,3,11,99,,,
181459,control_change,7,0,10,,,,,,,,,14,11,99,,,
181470,control_change,23,0,6,,,,,,,,,10,11,100,,,
181472,control_change,23,0,7,,,,,,,,,11,11,100,,,
181473,control_change,23,0,1,,,,,,,,,0,11,100,,,
181474,control_change,23,0,4,,,,,,,,,4,11,100,,,
181475,control_change,23,0,2,,,,,,,,,1,11,100,,,
181476,control_change,23,0,5,,,,,,,,,5,11,100,,,
181476,control_change,23,0,8,,,,,,,,,12,11,100,,,
181479,note_on,9,0,6,,,,,,,,,10,,,,70,0
181479,note_on,0,0,6,,,,,,,,,10,,,,82,0
181480,control_change,23,0,9,,,,,,,,,13,11,100,,,
181481,note_on,9,0,7,,,,,,,,,11,,,,75,0
181481,control_change,23,0,3,,,,,,,,,3,11,100,,,
181482,control_change,23,0,10,,,,,,,,,14,11,100,,,
181485,note_on,9,0,8,,,,,,,,,12,,,,66,0
181488,control_change,9,0,6,,,,,,,,,10,11,98,,,
181490,control_change,9,0,7,,,,,,,,,11,11,98,,,
181491,control_change,18,0,1,,,,,,,,,0,11,98,,,
181492,control_change,18,0,4,,,,,,,,,4,11,98,,,
181493,control_change,18,0,2,,,,,,,,,1,11,98,,,
181494,control_change,18,0,5,,,,,,,,,5,11,98,,,
181494,control_change,9,0,8,,,,,,,,,12,11,98,,,
181498,control_change,18,0,9,,,,,,,,,13,11,98,,,
181499,control_change,18,0,3,,,,,,,,,3,11,98,,,
181500,note_on,0,0,6,,,,,,,,,10,,,,82,86
181500,note_on,12,0,6,,,,,,,,,10,,,,70,86
181500,control_change,18,0,10,,,,,,,,,14,11,98,,,
181502,note_on,12,0,7,,,,,,,,,11,,,,75,86
181506,control_change,6,0,6,,,,,,,,,10,11,95,,,
181506,note_on,12,0,8,,,,,,,,,12,,,,66,84
181508,control_change,6,0,7,,,,,,,,,11,11,95,,,
181509,control_change,18,0,1,,,,,,,,,0,11,95,,,
181510,control_change,18,0,4,,,,,,,,,4,11,95,,,
181511,control_change,18,0,2,,,,,,,,,1,11,95,,,
181512,control_change,6,0,8,,,,,,,,,12,11,95,,,
181512,control_change,18,0,5,,,,,,,,,5,11,95,,,
181516,control_change,18,0,9,,,,,,,,,13,11,95,,,
181517,control_change,18,0,3,,,,,,,,,3,11,95,,,
181518,control_change,18,0,10,,,,,,,,,14,11,95,,,
181524,control_change,18,0,6,,,,,,,,,10,11,93,,,
181526,control_change,18,0,7,,,,,,,,,11,11,93,,,
181527,control_change,18,0,1,,,,,,,,,0,11,93,,,
181528,control_change,18,0,4,,,,,,,,,4,11,93,,,
181529,control_change,18,0,2,,,,,,,,,1,11,93,,,
181530,control_change,18,0,8,,,,,,,,,12,11,93,,,
181530,control_change,18,0,5,,,,,,,,,5,11,93,,,
181534,control_change,18,0,9,,,,,,,,,13,11,93,,,
181535,control_change,18,0,3,,,,,,,,,3,11,93,,,
181536,control_change,18,0,10,,,,,,,,,14,11,93,,,
181539,note_on,15,0,6,,,,,,,,,10,,,,82,0
181539,note_on,0,0,6,,,,,,,,,10,,,,70,0
181541,note_on,15,0,7,,,,,,,,,11,,,,75,0
181542,control_change,3,0,6,,,,,,,,,10,11,91,,,
181544,control_change,3,0,7,,,,,,,,,11,11,91,,,
181545,note_on,15,0,8,,,,,,,,,12,,,,66,0
181545,control_change,18,0,1,,,,,,,,,0,11,91,,,
181546,control_change,18,0,4,,,,,,,,,4,11,91,,,
181547,control_change,18,0,2,,,,,,,,,1,11,91,,,
181548,control_change,18,0,5,,,,,,,,,5,11,91,,,
181548,control_change,3,0,8,,,,,,,,,12,11,91,,,
181552,control_change,18,0,9,,,,,,,,,13,11,91,,,
181553,control_change,18,0,3,,,,,,,,,3,11,91,,,
181554,control_change,18,0,10,,,,,,,,,14,11,91,,,
181560,note_on,0,0,6,,,,,,,,,10,,,,70,94
181560,control_change,18,0,6,,,,,,,,,10,11,89,,,
181560,note_on,0,0,6,,,,,,,,,10,,,,82,94
181562,control_change,18,0,7,,,,,,,,,11,11,89,,,
181562,note_on,0,0,7,,,,,,,,,11,,,,75,94
181563,control_change,18,0,1,,,,,,,,,0,11,89,,,
181564,control_change,18,0,4,,,,,,,,,4,11,89,,,
181565,control_change,18,0,2,,,,,,,,,1,11,89,,,
181566,control_change,18,0,5,,,,,,,,,5,11,89,,,
181566,control_change,18,0,8,,,,,,,,,12,11,89,,,
181566,note_on,0,0,8,,,,,,,,,12,,,,66,92
181570,control_change,18,0,9,,,,,,,,,13,11,89,,,
181571,control_change,18,0,3,,,,,,,,,3,11,89,,,
181572,control_change,18,0,10,,,,,,,,,14,11,89,,,
181599,note_on,39,0,6,,,,,,,,,10,,,,82,0
181599,note_on,0,0,6,,,,,,,,,10,,,,70,0
181601,note_on,39,0,7,,,,,,,,,11,,,,75,0
181605,note_on,39,0,8,,,,,,,,,12,,,,66,0
181620,note_on,0,0,6,,,,,,,,,10,,,,70,86
181620,note_on,21,0,6,,,,,,,,,10,,,,82,86
181622,note_on,21,0,7,,,,,,,,,11,,,,75,86
181626,note_on,21,0,8,,,,,,,,,12,,,,66,84
181659,note_on,0,0,6,,,,,,,,,10,,,,82,0
181659,note_on,39,0,6,,,,,,,,,10,,,,70,0
181661,note_on,39,0,7,,,,,,,,,11,,,,75,0
181665,note_on,39,0,8,,,,,,,,,12,,,,66,0
181668,note_on,105,0,1,,,,,,,,,0,,,,87,0
181669,note_on,105,0,4,,,,,,,,,4,,,,58,0
181670,note_on,0,0,2,,,,,,,,,1,,,,75,0
181670,note_on,105,0,2,,,,,,,,,1,,,,82,0
181671,note_on,105,0,5,,,,,,,,,5,,,,46,0
181676,note_on,105,0,3,,,,,,,,,3,,,,54,0
181680,note_on,0,0,6,,,,,,,,,10,,,,82,94
181680,note_on,0,0,6,,,,,,,,,10,,,,70,94
181680,control_change,21,0,6,,,,,,,,,10,11,95,,,
181680,set_tempo,240,1,0,,,,,,261438,,,,,,,,
181682,note_on,0,0,7,,,,,,,,,11,,,,76,94
181682,control_change,21,0,7,,,,,,,,,11,11,95,,,
181683,note_on,0,0,1,,,,,,,,,0,,,,88,83
181683,control_change,15,0,1,,,,,,,,,0,11,95,,,
181684,control_change,15,0,4,,,,,,,,,4,11,95,,,
181684,note_on,0,0,4,,,,,,,,,4,,,,58,81
181685,control_change,15,0,2,,,,,,,,,1,11,95,,,
181685,note_on,115,0,9,,,,,,,,,13,,,,54,0
181685,note_on,0,0,2,,,,,,,,,1,,,,76,83
181685,note_on,0,0,2,,,,,,,,,1,,,,82,83
181686,control_change,21,0,8,,,,,,,,,12,11,95,,,
181686,note_on,0,0,8,,,,,,,,,12,,,,67,92
181686,note_on,0,0,5,,,,,,,,,5,,,,46,81
181686,control_change,15,0,5,,,,,,,,,5,11,95,,,
181687,note_on,115,0,10,,,,,,,,,14,,,,42,0
181687,control_change,7,0,6,,,,,,,,,10,11,99,,,
181689,control_change,7,0,7,,,,,,,,,11,11,99,,,
181690,control_change,5,0,9,,,,,,,,,13,11,95,,,
181690,note_on,0,0,9,,,,,,,,,13,,,,55,83
181690,control_change,7,0,1,,,,,,,,,0,11,99,,,
181691,control_change,7,0,4,,,,,,,,,4,11,99,,,
181691,control_change,15,0,3,,,,,,,,,3,11,95,,,
181691,note_on,0,0,3,,,,,,,,,3,,,,55,83
181692,note_on,0,0,10,,,,,,,,,14,,,,43,77
181692,control_change,7,0,2,,,,,,,,,1,11,99,,,
181692,control_change,5,0,10,,,,,,,,,14,11,95,,,
181693,control_change,7,0,8,,,,,,,,,12,11,99,,,
181693,control_change,7,0,5,,,,,,,,,5,11,99,,,
181697,control_change,7,0,9,,,,,,,,,13,11,99,,,
181698,control_change,7,0,3,,,,,,,,,3,11,99,,,
181699,control_change,7,0,10,,,,,,,,,14,11,99,,,
181710,control_change,23,0,6,,,,,,,,,10,11,100,,,
181712,control_change,23,0,7,,,,,,,,,11,11,100,,,
181713,control_change,23,0,1,,,,,,,,,0,11,100,,,
181714,control_change,23,0,4,,,,,,,,,4,11,100,,,
181715,control_change,23,0,2,,,,,,,,,1,11,100,,,
181716,control_change,23,0,8,,,,,,,,,12,11,100,,,
181716,control_change,23,0,5,,,,,,,,,5,11,100,,,
181719,note_on,0,0,6,,,,,,,,,10,,,,70,0
181719,note_on,9,0,6,,,,,,,,,10,,,,82,0
181720,control_change,23,0,9,,,,,,,,,13,11,100,,,
181721,note_on,9,0,7,,,,,,,,,11,,,,76,0
181721,control_change,23,0,3,,,,,,,,,3,11,100,,,
181722,control_change,23,0,10,,,,,,,,,14,11,100,,,
181725,note_on,9,0,8,,,,,,,,,12,,,,67,0
181728,control_change,9,0,6,,,,,,,,,10,11,98,,,
181730,control_change,9,0,7,,,,,,,,,11,11,98,,,
181731,control_change,18,0,1,,,,,,,,,0,11,98,,,
181732,control_change,18,0,4,,,,,,,,,4,11,98,,,
181733,control_change,18,0,2,,,,,,,,,1,11,98,,,
181734,control_change,18,0,5,,,,,,,,,5,11,98,,,
181734,control_change,9,0,8,,,,,,,,,12,11,98,,,
181738,control_change,18,0,9,,,,,,,,,13,11,98,,,
181739,control_change,18,0,3,,,,,,,,,3,11,98,,,
181740,note_on,0,0,6,,,,,,,,,10,,,,82,86
181740,control_change,18,0,10,,,,,,,,,14,11,98,,,
181740,note_on,12,0,6,,,,,,,,,10,,,,70,86
181742,note_on,12,0,7,,,,,,,,,11,,,,76,86
181746,note_on,12,0,8,,,,,,,,,12,,,,67,84
181746,control_change,6,0,6,,,,,,,,,10,11,95,,,
181748,control_change,6,0,7,,,,,,,,,11,11,95,,,
181749,control_change,18,0,1,,,,,,,,,0,11,95,,,
181750,control_change,18,0,4,,,,,,,,,4,11,95,,,
181751,control_change,18,0,2,,,,,,,,,1,11,95,,,
181752,control_change,18,0,5,,,,,,,,,5,11,95,,,
181752,control_change,6,0,8,,,,,,,,,12,11,95,,,
181756,control_change,18,0,9,,,,,,,,,13,11,95,,,
181757,control_change,18,0,3,,,,,,,,,3,11,95,,,
181758,control_change,18,0,10,,,,,,,,,14,11,95,,,
181764,control_change,18,0,6,,,,,,,,,10,11,93,,,
181766,control_change,18,0,7,,,,,,,,,11,11,93,,,
181767,control_change,18,0,1,,,,,,,,,0,11,93,,,
181768,control_change,18,0,4,,,,,,,,,4,11,93,,,
181769,control_change,18,0,2,,,,,,,,,1,11,93,,,
181770,control_change,18,0,8,,,,,,,,,12,11,93,,,
181770,control_change,18,0,5,,,,,,,,,5,11,93,,,
181774,control_change,18,0,9,,,,,,,,,13,11,93,,,
181775,control_change,18,0,3,,,,,,,,,3,11,93,,,
181776,control_change,18,0,10,,,,,,,,,14,11,93,,,
181779,note_on,0,0,6,,,,,,,,,10,,,,70,0
181779,note_on,15,0,6,,,,,,,,,10,,,,82,0
181781,note_on,15,0,7,,,,,,,,,11,,,,76,0
181782,control_change,3,0,6,,,,,,,,,10,11,91,,,
181784,control_change,3,0,7,,,,,,,,,11,11,91,,,
181785,note_on,15,0,8,,,,,,,,,12,,,,67,0
181785,control_change,18,0,1,,,,,,,,,0,11,91,,,
181786,control_change,18,0,4,,,,,,,,,4,11,91,,,
181787,control_change,18,0,2,,,,,,,,,1,11,91,,,
181788,control_change,3,0,8,,,,,,,,,12,11,91,,,
181788,control_change,18,0,5,,,,,,,,,5,11,91,,,
181792,control_change,18,0,9,,,,,,,,,13,11,91,,,
181793,control_change,18,0,3,,,,,,,,,3,11,91,,,
181794,control_change,18,0,10,,,,,,,,,14,11,91,,,
181800,control_change,18,0,6,,,,,,,,,10,11,89,,,
181800,note_on,0,0,6,,,,,,,,,10,,,,70,94
181800,note_on,0,0,6,,,,,,,,,10,,,,82,94
181802,control_change,18,0,7,,,,,,,,,11,11,89,,,
181802,note_on,0,0,7,,,,,,,,,11,,,,76,94
181803,control_change,18,0,1,,,,,,,,,0,11,89,,,
181804,control_change,18,0,4,,,,,,,,,4,11,89,,,
181805,control_change,18,0,2,,,,,,,,,1,11,89,,,
181806,control_change,18,0,8,,,,,,,,,12,11,89,,,
181806,note_on,0,0,8,,,,,,,,,12,,,,67,92
181806,control_change,18,0,5,,,,,,,,,5,11,89,,,
181810,control_change,18,0,9,,,,,,,,,13,11,89,,,
181811,control_change,18,0,3,,,,,,,,,3,11,89,,,
181812,control_change,18,0,10,,,,,,,,,14,11,89,,,
181839,note_on,39,0,6,,,,,,,,,10,,,,82,0
181839,note_on,0,0,6,,,,,,,,,10,,,,70,0
181841,note_on,39,0,7,,,,,,,,,11,,,,76,0
181845,note_on,39,0,8,,,,,,,,,12,,,,67,0
181860,control_change,21,0,6,,,,,,,,,10,11,89,,,
181860,set_tempo,180,1,0,,,,,,338028,,,,,,,,
181860,note_on,0,0,6,,,,,,,,,10,,,,70,86
181860,note_on,0,0,6,,,,,,,,,10,,,,82,86
181862,note_on,0,0,7,,,,,,,,,11,,,,76,86
181862,control_change,21,0,7,,,,,,,,,11,11,89,,,
181863,control_change,60,0,1,,,,,,,,,0,11,89,,,
181864,control_change,60,0,4,,,,,,,,,4,11,89,,,
181865,control_change,60,0,2,,,,,,,,,1,11,89,,,
181866,control_change,60,0,5,,,,,,,,,5,11,89,,,
181866,control_change,21,0,8,,,,,,,,,12,11,89,,,
181866,note_on,0,0,8,,,,,,,,,12,,,,67,84
181868,control_change,8,0,6,,,,,,,,,10,11,85,,,
181870,control_change,8,0,7,,,,,,,,,11,11,85,,,
181870,control_change,60,0,9,,,,,,,,,13,11,89,,,
181871,control_change,60,0,3,,,,,,,,,3,11,89,,,
181871,control_change,8,0,1,,,,,,,,,0,11,85,,,
181872,control_change,8,0,4,,,,,,,,,4,11,85,,,
181872,control_change,60,0,10,,,,,,,,,14,11,89,,,
181873,control_change,8,0,2,,,,,,,,,1,11,85,,,
181874,control_change,8,0,8,,,,,,,,,12,11,85,,,
181874,control_change,8,0,5,,,,,,,,,5,11,85,,,
181876,control_change,8,0,6,,,,,,,,,10,11,81,,,
181878,control_change,8,0,9,,,,,,,,,13,11,85,,,
181878,control_change,8,0,7,,,,,,,,,11,11,81,,,
181879,control_change,8,0,1,,,,,,,,,0,11,81,,,
181879,control_change,8,0,3,,,,,,,,,3,11,85,,,
181880,control_change,8,0,4,,,,,,,,,4,11,81,,,
181880,control_change,8,0,10,,,,,,,,,14,11,85,,,
181881,control_change,8,0,2,,,,,,,,,1,11,81,,,
181882,control_change,8,0,5,,,,,,,,,5,11,81,,,
181882,control_change,8,0,8,,,,,,,,,12,11,81,,,
181885,control_change,9,0,6,,,,,,,,,10,11,77,,,
181886,control_change,8,0,9,,,,,,,,,13,11,81,,,
181887,control_change,8,0,3,,,,,,,,,3,11,81,,,
181887,control_change,9,0,7,,,,,,,,,11,11,77,,,
181888,control_change,8,0,10,,,,,,,,,14,11,81,,,
181888,control_change,9,0,1,,,,,,,,,0,11,77,,,
181889,control_change,9,0,4,,,,,,,,,4,11,77,,,
181890,control_change,9,0,2,,,,,,,,,1,11,77,,,
181891,control_change,9,0,8,,,,,,,,,12,11,77,,,
181891,control_change,9,0,5,,,,,,,,,5,11,77,,,
181893,control_change,8,0,6,,,,,,,,,10,11,73,,,
181895,control_change,9,0,9,,,,,,,,,13,11,77,,,
181895,control_change,8,0,7,,,,,,,,,11,11,73,,,
181896,control_change,9,0,3,,,,,,,,,3,11,77,,,
181896,control_change,8,0,1,,,,,,,,,0,11,73,,,
181897,control_change,9,0,10,,,,,,,,,14,11,77,,,
181897,control_change,8,0,4,,,,,,,,,4,11,73,,,
181898,control_change,8,0,2,,,,,,,,,1,11,73,,,
181899,note_on,0,0,6,,,,,,,,,10,,,,82,0
181899,control_change,8,0,8,,,,,,,,,12,11,73,,,
181899,control_change,8,0,5,,,,,,,,,5,11,73,,,
181899,note_on,6,0,6,,,,,,,,,10,,,,70,0
181901,note_on,6,0,7,,,,,,,,,11,,,,76,0
181902,control_change,3,0,6,,,,,,,,,10,11,68,,,
181903,control_change,8,0,9,,,,,,,,,13,11,73,,,
181904,control_change,3,0,7,,,,,,,,,11,11,68,,,
181904,control_change,8,0,3,,,,,,,,,3,11,73,,,
181905,control_change,8,0,10,,,,,,,,,14,11,73,,,
181905,control_change,9,0,1,,,,,,,,,0,11,68,,,
181905,note_on,6,0,8,,,,,,,,,12,,,,67,0
181906,control_change,9,0,4,,,,,,,,,4,11,68,,,
181907,control_change,9,0,2,,,,,,,,,1,11,68,,,
181908,note_on,3,0,1,,,,,,,,,0,,,,88,0
181908,control_change,3,0,8,,,,,,,,,12,11,68,,,
181908,control_change,9,0,5,,,,,,,,,5,11,68,,,
181909,note_on,3,0,4,,,,,,,,,4,,,,58,0
181910,control_change,8,0,6,,,,,,,,,10,11,64,,,
181910,note_on,3,0,2,,,,,,,,,1,,,,82,0
181910,note_on,0,0,2,,,,,,,,,1,,,,76,0
181911,note_on,3,0,5,,,,,,,,,5,,,,46,0
181912,control_change,9,0,9,,,,,,,,,13,11,68,,,
181912,control_change,8,0,7,,,,,,,,,11,11,64,,,
181913,control_change,5,0,1,,,,,,,,,0,11,64,,,
181913,control_change,9,0,3,,,,,,,,,3,11,68,,,
181914,control_change,9,0,10,,,,,,,,,14,11,68,,,
181914,control_change,5,0,4,,,,,,,,,4,11,64,,,
181915,control_change,5,0,2,,,,,,,,,1,11,64,,,
181916,control_change,8,0,8,,,,,,,,,12,11,64,,,
181916,control_change,5,0,5,,,,,,,,,5,11,64,,,
181916,note_on,3,0,3,,,,,,,,,3,,,,55,0
181919,control_change,9,0,6,,,,,,,,,10,11,60,,,
181920,control_change,8,0,9,,,,,,,,,13,11,64,,,
181920,note_on,1,0,6,,,,,,,,,10,,,,80,110
181920,set_tempo,60,1,0,,,,,,279720,,,,,,,,
181921,control_change,5,0,3,,,,,,,,,3,11,64,,,
181921,control_change,9,0,7,,,,,,,,,11,11,60,,,
181922,control_change,9,0,1,,,,,,,,,0,11,60,,,
181922,control_change,8,0,10,,,,,,,,,14,11,64,,,
181922,note_on,1,0,7,,,,,,,,,11,,,,77,110
181923,control_change,9,0,4,,,,,,,,,4,11,60,,,
181923,note_on,1,0,1,,,,,,,,,0,,,,92,97
181924,control_change,9,0,2,,,,,,,,,1,11,60,,,
181925,note_on,0,0,2,,,,,,,,,1,,,,77,97
181925,note_on,1,0,2,,,,,,,,,1,,,,80,97
181925,note_on,5,0,9,,,,,,,,,13,,,,55,0
181925,control_change,9,0,5,,,,,,,,,5,11,60,,,
181925,control_change,9,0,8,,,,,,,,,12,11,60,,,
181926,note_on,1,0,8,,,,,,,,,12,,,,68,108
181927,note_on,5,0,10,,,,,,,,,14,,,,43,0
181929,control_change,4,0,9,,,,,,,,,13,11,60,,,
181930,note_on,1,0,9,,,,,,,,,13,,,,56,99
181930,control_change,10,0,6,,,,,,,,,10,11,57,,,
181930,control_change,9,0,3,,,,,,,,,3,11,60,,,
181931,control_change,4,0,10,,,,,,,,,14,11,60,,,
181931,note_on,0,0,3,,,,,,,,,3,,,,56,97
181931,note_on,1,0,3,,,,,,,,,3,,,,62,97
181932,note_on,1,0,10,,,,,,,,,14,,,,44,93
181932,control_change,10,0,7,,,,,,,,,11,11,57,,,
181933,control_change,10,0,1,,,,,,,,,0,11,57,,,
181935,control_change,10,0,2,,,,,,,,,1,11,57,,,
181936,control_change,10,0,8,,,,,,,,,12,11,57,,,
181940,control_change,10,0,6,,,,,,,,,10,11,54,,,
181940,control_change,10,0,9,,,,,,,,,13,11,57,,,
181941,control_change,10,0,3,,,,,,,,,3,11,57,,,
181942,control_change,10,0,7,,,,,,,,,11,11,54,,,
181942,control_change,10,0,10,,,,,,,,,14,11,57,,,
181943,control_change,10,0,1,,,,,,,,,0,11,54,,,
181945,control_change,10,0,2,,,,,,,,,1,11,54,,,
181946,control_change,10,0,8,,,,,,,,,12,11,54,,,
181950,control_change,10,0,9,,,,,,,,,13,11,54,,,
181951,control_change,11,0,6,,,,,,,,,10,11,51,,,
181951,control_change,10,0,3,,,,,,,,,3,11,54,,,
181952,control_change,10,0,10,,,,,,,,,14,11,54,,,
181953,control_change,11,0,7,,,,,,,,,11,11,51,,,
181954,control_change,11,0,1,,,,,,,,,0,11,51,,,
181956,control_change,11,0,2,,,,,,,,,1,11,51,,,
181957,control_change,11,0,8,,,,,,,,,12,11,51,,,
181959,note_on,8,0,6,,,,,,,,,10,,,,80,0
181961,control_change,11,0,9,,,,,,,,,13,11,51,,,
181961,note_on,8,0,7,,,,,,,,,11,,,,77,0
181961,control_change,2,0,6,,,,,,,,,10,11,48,,,
181962,control_change,11,0,3,,,,,,,,,3,11,51,,,
181963,control_change,2,0,7,,,,,,,,,11,11,48,,,
181963,control_change,11,0,10,,,,,,,,,14,11,51,,,
181964,control_change,10,0,1,,,,,,,,,0,11,48,,,
181965,note_on,8,0,8,,,,,,,,,12,,,,68,0
181966,control_change,10,0,2,,,,,,,,,1,11,48,,,
181967,control_change,2,0,8,,,,,,,,,12,11,48,,,
181971,control_change,10,0,9,,,,,,,,,13,11,48,,,
181972,control_change,10,0,3,,,,,,,,,3,11,48,,,
181973,control_change,10,0,10,,,,,,,,,14,11,48,,,
181980,note_on,19,0,6,,,,,,,,,10,,,,80,101
181982,note_on,19,0,7,,,,,,,,,11,,,,77,101
181986,note_on,19,0,8,,,,,,,,,12,,,,68,99
182019,note_on,39,0,6,,,,,,,,,10,,,,80,0
182021,note_on,39,0,7,,,,,,,,,11,,,,77,0
182025,note_on,39,0,8,,,,,,,,,12,,,,68,0
182040,note_on,21,0,6,,,,,,,,,10,,,,80,110
182042,note_on,21,0,7,,,,,,,,,11,,,,77,110
182046,note_on,21,0,8,,,,,,,,,12,,,,68,108
182079,note_on,39,0,6,,,,,,,,,10,,,,80,0
182081,note_on,39,0,7,,,,,,,,,11,,,,77,0
182085,note_on,39,0,8,,,,,,,,,12,,,,68,0
182100,note_on,21,0,6,,,,,,,,,10,,,,80,101
182102,note_on,21,0,7,,,,,,,,,11,,,,77,101
182106,note_on,21,0,8,,,,,,,,,12,,,,68,99
182139,note_on,39,0,6,,,,,,,,,10,,,,80,0
182141,note_on,39,0,7,,,,,,,,,11,,,,77,0
182145,note_on,39,0,8,,,,,,,,,12,,,,68,0
182160,set_tempo,240,1,0,,,,,,268456,,,,,,,,
182160,note_on,21,0,6,,,,,,,,,10,,,,78,110
182162,note_on,21,0,7,,,,,,,,,11,,,,75,110
182163,note_on,199,0,1,,,,,,,,,0,,,,92,0
182163,note_on,0,0,1,,,,,,,,,0,,,,90,97
182165,note_on,0,0,2,,,,,,,,,1,,,,78,97
182165,note_on,0,0,2,,,,,,,,,1,,,,80,0
182165,note_on,199,0,2,,,,,,,,,1,,,,77,0
182165,note_on,0,0,2,,,,,,,,,1,,,,75,97
182166,note_on,21,0,8,,,,,,,,,12,,,,72,108
182170,note_on,199,0,9,,,,,,,,,13,,,,56,0
182170,note_on,0,0,9,,,,,,,,,13,,,,57,99
182171,note_on,0,0,3,,,,,,,,,3,,,,57,97
182171,note_on,0,0,3,,,,,,,,,3,,,,60,97
182171,note_on,199,0,3,,,,,,,,,3,,,,56,0
182171,note_on,0,0,3,,,,,,,,,3,,,,62,0
182172,note_on,199,0,10,,,,,,,,,14,,,,44,0
182172,note_on,0,0,10,,,,,,,,,14,,,,45,93
182199,note_on,39,0,6,,,,,,,,,10,,,,78,0
182201,note_on,39,0,7,,,,,,,,,11,,,,75,0
182205,note_on,39,0,8,,,,,,,,,12,,,,72,0
182220,note_on,21,0,6,,,,,,,,,10,,,,78,101
182222,note_on,21,0,7,,,,,,,,,11,,,,75,101
182226,note_on,21,0,8,,,,,,,,,12,,,,72,99
182259,note_on,39,0,6,,,,,,,,,10,,,,78,0
182261,note_on,39,0,7,,,,,,,,,11,,,,75,0
182265,note_on,39,0,8,,,,,,,,,12,,,,72,0
182280,note_on,21,0,6,,,,,,,,,10,,,,78,110
182282,note_on,21,0,7,,,,,,,,,11,,,,75,110
182286,note_on,21,0,8,,,,,,,,,12,,,,72,108
182319,note_on,39,0,6,,,,,,,,,10,,,,78,0
182321,note_on,39,0,7,,,,,,,,,11,,,,75,0
182325,note_on,39,0,8,,,,,,,,,12,,,,72,0
182340,note_on,21,0,6,,,,,,,,,10,,,,78,101
182342,note_on,21,0,7,,,,,,,,,11,,,,75,101
182346,note_on,21,0,8,,,,,,,,,12,,,,72,99
182379,note_on,39,0,6,,,,,,,,,10,,,,78,0
182381,note_on,39,0,7,,,,,,,,,11,,,,75,0
182385,note_on,39,0,8,,,,,,,,,12,,,,72,0
182400,note_on,21,0,6,,,,,,,,,10,,,,77,110
182400,set_tempo,240,1,0,,,,,,279720,,,,,,,,
182402,note_on,21,0,7,,,,,,,,,11,,,,73,110
182403,note_on,0,0,1,,,,,,,,,0,,,,89,97
182403,note_on,240,0,1,,,,,,,,,0,,,,90,0
182405,note_on,240,0,2,,,,,,,,,1,,,,78,0
182405,note_on,0,0,2,,,,,,,,,1,,,,75,0
182405,note_on,0,0,2,,,,,,,,,1,,,,77,97
182405,note_on,0,0,2,,,,,,,,,1,,,,73,97
182406,note_on,21,0,8,,,,,,,,,12,,,,73,108
182410,note_on,0,0,9,,,,,,,,,13,,,,58,99
182410,note_on,240,0,9,,,,,,,,,13,,,,57,0
182411,note_on,0,0,3,,,,,,,,,3,,,,58,97
182411,note_on,240,0,3,,,,,,,,,3,,,,57,0
182411,note_on,0,0,3,,,,,,,,,3,,,,60,0
182411,note_on,0,0,3,,,,,,,,,3,,,,61,97
182412,note_on,0,0,10,,,,,,,,,14,,,,46,93
182412,note_on,240,0,10,,,,,,,,,14,,,,45,0
182439,note_on,39,0,6,,,,,,,,,10,,,,77,0
182441,note_on,39,0,7,,,,,,,,,11,,,,73,0
182445,note_on,39,0,8,,,,,,,,,12,,,,73,0
182460,note_on,21,0,6,,,,,,,,,10,,,,77,101
182462,note_on,21,0,7,,,,,,,,,11,,,,73,101
182466,note_on,21,0,8,,,,,,,,,12,,,,73,99
182499,note_on,39,0,6,,,,,,,,,10,,,,77,0
182501,note_on,39,0,7,,,,,,,,,11,,,,73,0
182505,note_on,39,0,8,,,,,,,,,12,,,,73,0
182520,note_on,21,0,6,,,,,,,,,10,,,,77,110
182522,note_on,21,0,7,,,,,,,,,11,,,,73,110
182526,note_on,21,0,8,,,,,,,,,12,,,,73,108
182559,note_on,39,0,6,,,,,,,,,10,,,,77,0
182561,note_on,39,0,7,,,,,,,,,11,,,,73,0
182565,note_on,39,0,8,,,,,,,,,12,,,,73,0
182580,note_on,21,0,6,,,,,,,,,10,,,,77,101
182582,note_on,21,0,7,,,,,,,,,11,,,,73,101
182586,note_on,21,0,8,,,,,,,,,12,,,,73,99
182619,note_on,39,0,6,,,,,,,,,10,,,,77,0
182621,note_on,39,0,7,,,,,,,,,11,,,,73,0
182625,note_on,39,0,8,,,,,,,,,12,,,,73,0
182640,set_tempo,240,1,0,,,,,,268456,,,,,,,,
182640,note_on,21,0,6,,,,,,,,,10,,,,75,110
182642,note_on,21,0,7,,,,,,,,,11,,,,72,110
182643,note_on,0,0,1,,,,,,,,,0,,,,87,97
182643,note_on,240,0,1,,,,,,,,,0,,,,89,0
182645,note_on,0,0,2,,,,,,,,,1,,,,75,97
182645,note_on,0,0,2,,,,,,,,,1,,,,72,97
182645,note_on,0,0,2,,,,,,,,,1,,,,77,0
182645,note_on,240,0,2,,,,,,,,,1,,,,73,0
182646,note_on,21,0,8,,,,,,,,,12,,,,66,108
182650,note_on,240,0,9,,,,,,,,,13,,,,58,0
182650,note_on,0,0,9,,,,,,,,,13,,,,51,99
182651,note_on,0,0,3,,,,,,,,,3,,,,51,97
182651,note_on,0,0,3,,,,,,,,,3,,,,61,0
182651,note_on,240,0,3,,,,,,,,,3,,,,58,0
182652,note_on,0,0,10,,,,,,,,,14,,,,39,93
182652,note_on,240,0,10,,,,,,,,,14,,,,46,0
182679,note_on,39,0,6,,,,,,,,,10,,,,75,0
182681,note_on,39,0,7,,,,,,,,,11,,,,72,0
182685,note_on,39,0,8,,,,,,,,,12,,,,66,0
182700,note_on,21,0,6,,,,,,,,,10,,,,75,101
182702,note_on,21,0,7,,,,,,,,,11,,,,72,101
182706,note_on,21,0,8,,,,,,,,,12,,,,66,99
182739,note_on,39,0,6,,,,,,,,,10,,,,75,0
182741,note_on,39,0,7,,,,,,,,,11,,,,72,0
182745,note_on,39,0,8,,,,,,,,,12,,,,66,0
182760,note_on,21,0,6,,,,,,,,,10,,,,75,110
182762,note_on,21,0,7,,,,,,,,,11,,,,72,110
182766,note_on,21,0,8,,,,,,,,,12,,,,66,108
182799,note_on,39,0,6,,,,,,,,,10,,,,75,0
182801,note_on,39,0,7,,,,,,,,,11,,,,72,0
182805,note_on,39,0,8,,,,,,,,,12,,,,66,0
182820,note_on,21,0,6,,,,,,,,,10,,,,75,101
182822,note_on,21,0,7,,,,,,,,,11,,,,72,101
182826,note_on,21,0,8,,,,,,,,,12,,,,66,99
182859,note_on,39,0,6,,,,,,,,,10,,,,75,0
182861,note_on,39,0,7,,,,,,,,,11,,,,72,0
182865,note_on,39,0,8,,,,,,,,,12,,,,66,0
182878,note_on,235,0,1,,,,,,,,,0,,,,87,0
182880,set_tempo,240,1,0,,,,,,279720,,,,,,,,
182880,note_on,0,0,2,,,,,,,,,1,,,,72,0
182880,note_on,235,0,2,,,,,,,,,1,,,,75,0
182880,note_on,21,0,6,,,,,,,,,10,,,,74,110
182882,note_on,21,0,7,,,,,,,,,11,,,,70,110
182883,note_on,5,0,1,,,,,,,,,0,,,,86,110
182884,control_change,961,0,4,,,,,,,,,4,11,47,,,
182884,note_on,0,0,4,,,,,,,,,4,,,,53,109
182885,note_on,5,0,2,,,,,,,,,1,,,,74,110
182885,note_on,235,0,9,,,,,,,,,13,,,,51,0
182886,control_change,961,0,5,,,,,,,,,5,11,47,,,
182886,note_on,0,0,5,,,,,,,,,5,,,,41,93
182886,note_on,235,0,3,,,,,,,,,3,,,,51,0
182886,note_on,21,0,8,,,,,,,,,12,,,,65,108
182887,note_on,235,0,10,,,,,,,,,14,,,,39,0
182890,note_on,5,0,9,,,,,,,,,13,,,,53,114
182891,note_on,5,0,3,,,,,,,,,3,,,,53,97
182892,note_on,5,0,10,,,,,,,,,14,,,,41,108
182919,note_on,39,0,6,,,,,,,,,10,,,,74,0
182921,note_on,39,0,7,,,,,,,,,11,,,,70,0
182925,note_on,39,0,8,,,,,,,,,12,,,,65,0
182940,note_on,21,0,6,,,,,,,,,10,,,,74,101
182942,note_on,21,0,7,,,,,,,,,11,,,,70,101
182946,note_on,21,0,8,,,,,,,,,12,,,,65,99
182979,note_on,39,0,6,,,,,,,,,10,,,,74,0
182981,note_on,39,0,7,,,,,,,,,11,,,,70,0
182985,note_on,39,0,8,,,,,,,,,12,,,,65,0
183000,note_on,21,0,6,,,,,,,,,10,,,,74,110
183002,note_on,21,0,7,,,,,,,,,11,,,,70,110
183003,note_on,120,0,1,,,,,,,,,0,,,,86,0
183003,note_on,0,0,1,,,,,,,,,0,,,,89,97
183005,note_on,0,0,2,,,,,,,,,1,,,,77,97
183005,note_on,120,0,2,,,,,,,,,1,,,,74,0
183006,note_on,21,0,8,,,,,,,,,12,,,,65,108
183039,note_on,39,0,6,,,,,,,,,10,,,,74,0
183041,note_on,39,0,7,,,,,,,,,11,,,,70,0
183045,note_on,39,0,8,,,,,,,,,12,,,,65,0
183060,note_on,21,0,6,,,,,,,,,10,,,,74,101
183062,note_on,21,0,7,,,,,,,,,11,,,,70,101
183066,note_on,21,0,8,,,,,,,,,12,,,,65,99
183099,note_on,39,0,6,,,,,,,,,10,,,,74,0
183101,note_on,39,0,7,,,,,,,,,11,,,,70,0
183105,note_on,39,0,8,,,,,,,,,12,,,,65,0
183120,set_tempo,240,1,0,,,,,,268456,,,,,,,,
183120,note_on,21,0,6,,,,,,,,,10,,,,73,110
183122,note_on,21,0,7,,,,,,,,,11,,,,70,110
183123,note_on,0,0,1,,,,,,,,,0,,,,87,97
183123,note_on,120,0,1,,,,,,,,,0,,,,89,0
183125,note_on,0,0,2,,,,,,,,,1,,,,75,97
183125,note_on,120,0,2,,,,,,,,,1,,,,77,0
183126,note_on,21,0,8,,,,,,,,,12,,,,65,108
183159,note_on,39,0,6,,,,,,,,,10,,,,73,0
183161,note_on,39,0,7,,,,,,,,,11,,,,70,0
183165,note_on,39,0,8,,,,,,,,,12,,,,65,0
183180,note_on,21,0,6,,,,,,,,,10,,,,73,101
183182,note_on,21,0,7,,,,,,,,,11,,,,70,101
183183,note_on,60,0,1,,,,,,,,,0,,,,87,0
183183,note_on,0,0,1,,,,,,,,,0,,,,85,97
183185,note_on,60,0,2,,,,,,,,,1,,,,75,0
183185,note_on,0,0,2,,,,,,,,,1,,,,73,97
183186,note_on,21,0,8,,,,,,,,,12,,,,65,99
183219,note_on,39,0,6,,,,,,,,,10,,,,73,0
183221,note_on,39,0,7,,,,,,,,,11,,,,70,0
183225,note_on,39,0,8,,,,,,,,,12,,,,65,0
183240,note_on,21,0,6,,,,,,,,,10,,,,73,110
183242,note_on,21,0,7,,,,,,,,,11,,,,70,110
183243,note_on,60,0,1,,,,,,,,,0,,,,85,0
183243,note_on,0,0,1,,,,,,,,,0,,,,84,97
183245,note_on,60,0,2,,,,,,,,,1,,,,73,0
183245,note_on,0,0,2,,,,,,,,,1,,,,72,97
183246,note_on,21,0,8,,,,,,,,,12,,,,65,108
183279,note_on,39,0,6,,,,,,,,,10,,,,73,0
183281,note_on,39,0,7,,,,,,,,,11,,,,70,0
183285,note_on,39,0,8,,,,,,,,,12,,,,65,0
183300,note_on,21,0,6,,,,,,,,,10,,,,73,101
183302,note_on,21,0,7,,,,,,,,,11,,,,70,101
183303,note_on,0,0,1,,,,,,,,,0,,,,82,97
183303,note_on,60,0,1,,,,,,,,,0,,,,84,0
183305,note_on,60,0,2,,,,,,,,,1,,,,72,0
183305,note_on,0,0,2,,,,,,,,,1,,,,70,97
183306,note_on,21,0,8,,,,,,,,,12,,,,65,99
183339,note_on,39,0,6,,,,,,,,,10,,,,73,0
183341,note_on,39,0,7,,,,,,,,,11,,,,70,0
183345,note_on,39,0,8,,,,,,,,,12,,,,65,0
183358,note_on,55,0,1,,,,,,,,,0,,,,82,0
183360,set_tempo,240,1,0,,,,,,279720,,,,,,,,
183360,note_on,55,0,2,,,,,,,,,1,,,,70,0
183360,note_on,21,0,6,,,,,,,,,10,,,,72,110
183362,note_on,21,0,7,,,,,,,,,11,,,,70,110
183363,note_on,5,0,1,,,,,,,,,0,,,,87,110
183365,note_on,475,0,9,,,,,,,,,13,,,,53,0
183365,note_on,5,0,2,,,,,,,,,1,,,,75,110
183366,note_on,21,0,8,,,,,,,,,12,,,,65,108
183367,note_on,475,0,10,,,,,,,,,14,,,,41,0
183370,note_on,5,0,9,,,,,,,,,13,,,,41,99
183372,note_on,5,0,10,,,,,,,,,14,,,,29,93
183399,note_on,39,0,6,,,,,,,,,10,,,,72,0
183401,note_on,39,0,7,,,,,,,,,11,,,,70,0
183405,note_on,39,0,8,,,,,,,,,12,,,,65,0
183420,note_on,21,0,6,,,,,,,,,10,,,,72,101
183422,note_on,21,0,7,,,,,,,,,11,,,,70,101
183426,note_on,21,0,8,,,,,,,,,12,,,,65,99
183459,note_on,39,0,6,,,,,,,,,10,,,,72,0
183461,note_on,39,0,7,,,,,,,,,11,,,,70,0
183465,note_on,39,0,8,,,,,,,,,12,,,,65,0
183480,note_on,21,0,6,,,,,,,,,10,,,,72,110
183482,note_on,21,0,7,,,,,,,,,11,,,,70,110
183486,note_on,21,0,8,,,,,,,,,12,,,,65,108
183519,note_on,39,0,6,,,,,,,,,10,,,,72,0
183521,note_on,39,0,7,,,,,,,,,11,,,,70,0
183525,note_on,39,0,8,,,,,,,,,12,,,,65,0
183540,note_on,21,0,6,,,,,,,,,10,,,,72,101
183542,note_on,21,0,7,,,,,,,,,11,,,,70,101
183546,note_on,21,0,8,,,,,,,,,12,,,,65,99
183579,note_on,39,0,6,,,,,,,,,10,,,,72,0
183581,note_on,39,0,7,,,,,,,,,11,,,,70,0
183585,note_on,39,0,8,,,,,,,,,12,,,,65,0
183600,note_on,21,0,6,,,,,,,,,10,,,,77,110
183600,set_tempo,240,1,0,,,,,,268456,,,,,,,,
183602,note_on,21,0,7,,,,,,,,,11,,,,69,110
183603,note_on,240,0,1,,,,,,,,,0,,,,87,0
183603,note_on,0,0,1,,,,,,,,,0,,,,85,97
183605,note_on,240,0,2,,,,,,,,,1,,,,75,0
183605,note_on,0,0,2,,,,,,,,,1,,,,73,97
183606,note_on,21,0,8,,,,,,,,,12,,,,65,108
183639,note_on,39,0,6,,,,,,,,,10,,,,77,0
183641,note_on,39,0,7,,,,,,,,,11,,,,69,0
183645,note_on,39,0,8,,,,,,,,,12,,,,65,0
183660,note_on,21,0,6,,,,,,,,,10,,,,77,101
183662,note_on,21,0,7,,,,,,,,,11,,,,69,101
183663,note_on,0,0,1,,,,,,,,,0,,,,84,97
183663,note_on,60,0,1,,,,,,,,,0,,,,85,0
183665,note_on,0,0,2,,,,,,,,,1,,,,72,97
183665,note_on,60,0,2,,,,,,,,,1,,,,73,0
183666,note_on,21,0,8,,,,,,,,,12,,,,65,99
183699,note_on,39,0,6,,,,,,,,,10,,,,77,0
183701,note_on,39,0,7,,,,,,,,,11,,,,69,0
183705,note_on,39,0,8,,,,,,,,,12,,,,65,0
183720,note_on,21,0,6,,,,,,,,,10,,,,77,110
183722,note_on,21,0,7,,,,,,,,,11,,,,69,110
183723,note_on,60,0,1,,,,,,,,,0,,,,84,0
183723,note_on,0,0,1,,,,,,,,,0,,,,82,97
183725,note_on,0,0,2,,,,,,,,,1,,,,70,97
183725,note_on,60,0,2,,,,,,,,,1,,,,72,0
183726,note_on,21,0,8,,,,,,,,,12,,,,65,108
183759,note_on,39,0,6,,,,,,,,,10,,,,77,0
183761,note_on,39,0,7,,,,,,,,,11,,,,69,0
183765,note_on,39,0,8,,,,,,,,,12,,,,65,0
183780,note_on,21,0,6,,,,,,,,,10,,,,77,101
183782,note_on,21,0,7,,,,,,,,,11,,,,69,101
183783,note_on,60,0,1,,,,,,,,,0,,,,82,0
183783,note_on,0,0,1,,,,,,,,,0,,,,81,97
183785,note_on,0,0,2,,,,,,,,,1,,,,69,97
183785,note_on,60,0,2,,,,,,,,,1,,,,70,0
183786,note_on,21,0,8,,,,,,,,,12,,,,65,99
183810,set_tempo,210,1,0,,,,,,321716,,,,,,,,
183819,note_on,39,0,6,,,,,,,,,10,,,,77,0
183821,note_on,39,0,7,,,,,,,,,11,,,,69,0
183825,note_on,39,0,8,,,,,,,,,12,,,,65,0
183838,note_on,55,0,1,,,,,,,,,0,,,,81,0
183840,control_change,21,0,6,,,,,,,,,10,11,65,,,
183840,note_on,0,0,6,,,,,,,,,10,,,,70,102
183840,note_on,0,0,6,,,,,,,,,10,,,,82,102
183840,set_tempo,30,1,0,,,,,,272727,,,,,,,,
183840,note_on,55,0,2,,,,,,,,,1,,,,69,0
183842,control_change,21,0,7,,,,,,,,,11,11,65,,,
183842,note_on,0,0,7,,,,,,,,,11,,,,74,102
183843,note_on,0,0,1,,,,,,,,,0,,,,86,90
183843,control_change,5,0,1,,,,,,,,,0,11,65,,,
183844,note_on,0,0,4,,,,,,,,,4,,,,58,88
183844,control_change,4,0,6,,,,,,,,,10,11,69,,,
183844,control_change,0,0,4,,,,,,,,,4,11,65,,,
183844,note_on,960,0,4,,,,,,,,,4,,,,53,0
183845,note_on,475,0,9,,,,,,,,,13,,,,41,0
183845,note_on,0,0,2,,,,,,,,,1,,,,74,90
183845,note_on,0,0,2,,,,,,,,,1,,,,82,90
183845,control_change,5,0,2,,,,,,,,,1,11,65,,,
183846,note_on,0,0,8,,,,,,,,,12,,,,58,100
183846,note_on,0,0,5,,,,,,,,,5,,,,46,88
183846,note_on,955,0,3,,,,,,,,,3,,,,53,0
183846,control_change,4,0,7,,,,,,,,,11,11,69,,,
183846,control_change,21,0,8,,,,,,,,,12,11,65,,,
183846,control_change,0,0,5,,,,,,,,,5,11,65,,,
183846,note_on,960,0,5,,,,,,,,,5,,,,41,0
183847,note_on,475,0,10,,,,,,,,,14,,,,29,0
183847,control_change,4,0,1,,,,,,,,,0,11,69,,,
183847,control_change,3,0,6,,,,,,,,,10,11,72,,,
183848,control_change,4,0,4,,,,,,,,,4,11,69,,,
183849,control_change,4,0,2,,,,,,,,,1,11,69,,,
183849,control_change,3,0,7,,,,,,,,,11,11,72,,,
183850,control_change,3,0,6,,,,,,,,,10,11,75,,,
183850,control_change,5,0,9,,,,,,,,,13,11,65,,,
183850,control_change,4,0,5,,,,,,,,,5,11,69,,,
183850,note_on,0,0,9,,,,,,,,,13,,,,46,91
183850,control_change,4,0,8,,,,,,,,,12,11,69,,,
183850,control_change,3,0,1,,,,,,,,,0,11,72,,,
183851,control_change,5,0,3,,,,,,,,,3,11,65,,,
183851,note_on,0,0,3,,,,,,,,,3,,,,46,90
183851,control_change,3,0,4,,,,,,,,,4,11,72,,,
183852,control_change,5,0,10,,,,,,,,,14,11,65,,,
183852,note_on,0,0,10,,,,,,,,,14,,,,34,85
183852,control_change,3,0,7,,,,,,,,,11,11,75,,,
183852,control_change,3,0,2,,,,,,,,,1,11,72,,,
183853,control_change,3,0,1,,,,,,,,,0,11,75,,,
183853,control_change,3,0,5,,,,,,,,,5,11,72,,,
183853,control_change,3,0,8,,,,,,,,,12,11,72,,,
183854,control_change,4,0,9,,,,,,,,,13,11,69,,,
183854,control_change,3,0,4,,,,,,,,,4,11,75,,,
183855,control_change,4,0,3,,,,,,,,,3,11,69,,,
183855,control_change,3,0,2,,,,,,,,,1,11,75,,,
183856,control_change,4,0,10,,,,,,,,,14,11,69,,,
183856,control_change,3,0,5,,,,,,,,,5,11,75,,,
183856,control_change,6,0,6,,,,,,,,,10,11,80,,,
183856,control_change,3,0,8,,,,,,,,,12,11,75,,,
183857,control_change,3,0,9,,,,,,,,,13,11,72,,,
183858,control_change,3,0,3,,,,,,,,,3,11,72,,,
183858,control_change,6,0,7,,,,,,,,,11,11,80,,,
183859,control_change,3,0,10,,,,,,,,,14,11,72,,,
183859,control_change,3,0,6,,,,,,,,,10,11,83,,,
183859,control_change,6,0,1,,,,,,,,,0,11,80,,,
183860,control_change,6,0,4,,,,,,,,,4,11,80,,,
183860,control_change,3,0,9,,,,,,,,,13,11,75,,,
183861,control_change,3,0,3,,,,,,,,,3,11,75,,,
183861,control_change,6,0,2,,,,,,,,,1,11,80,,,
183861,control_change,3,0,7,,,,,,,,,11,11,83,,,
183862,control_change,3,0,10,,,,,,,,,14,11,75,,,
183862,control_change,6,0,5,,,,,,,,,5,11,80,,,
183862,control_change,3,0,6,,,,,,,,,10,11,86,,,
183862,control_change,6,0,8,,,,,,,,,12,11,80,,,
183862,control_change,3,0,1,,,,,,,,,0,11,83,,,
183863,control_change,3,0,4,,,,,,,,,4,11,83,,,
183864,control_change,3,0,7,,,,,,,,,11,11,86,,,
183864,control_change,3,0,2,,,,,,,,,1,11,83,,,
183865,control_change,3,0,5,,,,,,,,,5,11,83,,,
183865,control_change,3,0,8,,,,,,,,,12,11,83,,,
183865,control_change,3,0,1,,,,,,,,,0,11,86,,,
183866,control_change,3,0,4,,,,,,,,,4,11,86,,,
183866,control_change,6,0,9,,,,,,,,,13,11,80,,,
183867,control_change,6,0,3,,,,,,,,,3,11,80,,,
183867,control_change,3,0,2,,,,,,,,,1,11,86,,,
183868,control_change,6,0,10,,,,,,,,,14,11,80,,,
183868,control_change,3,0,8,,,,,,,,,12,11,86,,,
183868,control_change,3,0,5,,,,,,,,,5,11,86,,,
183869,control_change,3,0,9,,,,,,,,,13,11,83,,,
183870,control_change,3,0,3,,,,,,,,,3,11,83,,,
183871,control_change,3,0,10,,,,,,,,,14,11,83,,,
183872,control_change,3,0,9,,,,,,,,,13,11,86,,,
183873,control_change,3,0,3,,,,,,,,,3,11,86,,,
183874,control_change,3,0,10,,,,,,,,,14,11,86,,,
183879,control_change,17,0,6,,,,,,,,,10,11,84,,,
183881,control_change,17,0,7,,,,,,,,,11,11,84,,,
183882,control_change,17,0,1,,,,,,,,,0,11,84,,,
183883,control_change,17,0,4,,,,,,,,,4,11,84,,,
183884,control_change,17,0,2,,,,,,,,,1,11,84,,,
183885,control_change,17,0,5,,,,,,,,,5,11,84,,,
183885,control_change,17,0,8,,,,,,,,,12,11,84,,,
183889,control_change,17,0,9,,,,,,,,,13,11,84,,,
183890,control_change,17,0,3,,,,,,,,,3,11,84,,,
183891,control_change,17,0,10,,,,,,,,,14,11,84,,,
183897,control_change,18,0,6,,,,,,,,,10,11,80,,,
183899,control_change,18,0,7,,,,,,,,,11,11,80,,,
183900,control_change,18,0,1,,,,,,,,,0,11,80,,,
183901,control_change,18,0,4,,,,,,,,,4,11,80,,,
183902,control_change,18,0,2,,,,,,,,,1,11,80,,,
183903,control_change,18,0,8,,,,,,,,,12,11,80,,,
183903,control_change,18,0,5,,,,,,,,,5,11,80,,,
183907,control_change,18,0,9,,,,,,,,,13,11,80,,,
183908,control_change,18,0,3,,,,,,,,,3,11,80,,,
183909,control_change,18,0,10,,,,,,,,,14,11,80,,,
183975,note_on,78,0,6,,,,,,,,,10,,,,82,0
183975,note_on,0,0,6,,,,,,,,,10,,,,70,0
183977,note_on,78,0,7,,,,,,,,,11,,,,74,0
183981,note_on,78,0,8,,,,,,,,,12,,,,58,0
183985,note_on,78,0,9,,,,,,,,,13,,,,46,0
183987,note_on,78,0,10,,,,,,,,,14,,,,34,0
184003,note_on,103,0,1,,,,,,,,,0,,,,86,0
184004,note_on,103,0,4,,,,,,,,,4,,,,58,0
184005,note_on,103,0,2,,,,,,,,,1,,,,74,0
184005,note_on,0,0,2,,,,,,,,,1,,,,82,0
184006,note_on,103,0,5,,,,,,,,,5,,,,46,0
184011,note_on,103,0,3,,,,,,,,,3,,,,46,0
184020,note_on,0,0,6,,,,,,,,,10,,,,70,110
184020,note_on,45,0,6,,,,,,,,,10,,,,82,110
184022,note_on,45,0,7,,,,,,,,,11,,,,74,110
184023,note_on,20,0,1,,,,,,,,,0,,,,86,97
184024,note_on,20,0,4,,,,,,,,,4,,,,58,96
184025,note_on,20,0,2,,,,,,,,,1,,,,74,97
184025,note_on,0,0,2,,,,,,,,,1,,,,82,97
184026,note_on,45,0,8,,,,,,,,,12,,,,58,108
184026,note_on,20,0,5,,,,,,,,,5,,,,46,96
184030,note_on,45,0,9,,,,,,,,,13,,,,46,99
184031,note_on,20,0,3,,,,,,,,,3,,,,46,97
184032,note_on,45,0,10,,,,,,,,,14,,,,34,93
184055,note_on,0,0,6,,,,,,,,,10,,,,82,0
184055,note_on,35,0,6,,,,,,,,,10,,,,70,0
184057,note_on,35,0,7,,,,,,,,,11,,,,74,0
184061,note_on,35,0,8,,,,,,,,,12,,,,58,0
184063,note_on,40,0,1,,,,,,,,,0,,,,86,0
184064,note_on,40,0,4,,,,,,,,,4,,,,58,0
184065,note_on,40,0,2,,,,,,,,,1,,,,82,0
184065,note_on,0,0,2,,,,,,,,,1,,,,74,0
184065,note_on,35,0,9,,,,,,,,,13,,,,46,0
184066,note_on,40,0,5,,,,,,,,,5,,,,46,0
184067,note_on,35,0,10,,,,,,,,,14,,,,34,0
184071,note_on,40,0,3,,,,,,,,,3,,,,46,0
184080,note_on,0,0,6,,,,,,,,,10,,,,82,102
184080,note_on,0,0,6,,,,,,,,,10,,,,70,102
184080,set_tempo,240,1,0,,,,,,261438,,,,,,,,
184080,control_change,25,0,6,,,,,,,,,10,11,84,,,
184082,control_change,25,0,7,,,,,,,,,11,11,84,,,
184082,note_on,0,0,7,,,,,,,,,11,,,,75,102
184083,control_change,20,0,1,,,,,,,,,0,11,84,,,
184083,note_on,0,0,1,,,,,,,,,0,,,,87,90
184084,note_on,0,0,4,,,,,,,,,4,,,,58,88
184084,control_change,20,0,4,,,,,,,,,4,11,84,,,
184085,control_change,20,0,2,,,,,,,,,1,11,84,,,
184085,control_change,5,0,6,,,,,,,,,10,11,88,,,
184085,note_on,0,0,2,,,,,,,,,1,,,,82,90
184085,note_on,0,0,2,,,,,,,,,1,,,,75,90
184086,note_on,0,0,5,,,,,,,,,5,,,,46,88
184086,control_change,25,0,8,,,,,,,,,12,11,84,,,
184086,note_on,0,0,8,,,,,,,,,12,,,,60,100
184086,control_change,20,0,5,,,,,,,,,5,11,84,,,
184087,control_change,5,0,7,,,,,,,,,11,11,88,,,
184088,control_change,5,0,1,,,,,,,,,0,11,88,,,
184089,control_change,5,0,4,,,,,,,,,4,11,88,,,
184090,control_change,25,0,9,,,,,,,,,13,11,84,,,
184090,note_on,0,0,9,,,,,,,,,13,,,,48,91
184090,control_change,5,0,2,,,,,,,,,1,11,88,,,
184091,control_change,5,0,8,,,,,,,,,12,11,88,,,
184091,control_change,5,0,5,,,,,,,,,5,11,88,,,
184091,note_on,0,0,3,,,,,,,,,3,,,,48,90
184091,control_change,20,0,3,,,,,,,,,3,11,84,,,
184092,note_on,0,0,10,,,,,,,,,14,,,,36,85
184092,control_change,25,0,10,,,,,,,,,14,11,84,,,
184095,control_change,5,0,9,,,,,,,,,13,11,88,,,
184096,control_change,5,0,3,,,,,,,,,3,11,88,,,
184097,control_change,5,0,10,,,,,,,,,14,11,88,,,
184101,control_change,16,0,6,,,,,,,,,10,11,88,,,
184103,control_change,16,0,7,,,,,,,,,11,11,88,,,
184104,control_change,16,0,1,,,,,,,,,0,11,88,,,
184105,control_change,16,0,4,,,,,,,,,4,11,88,,,
184106,control_change,16,0,2,,,,,,,,,1,11,88,,,
184107,control_change,16,0,5,,,,,,,,,5,11,88,,,
184107,control_change,16,0,8,,,,,,,,,12,11,88,,,
184111,control_change,16,0,9,,,,,,,,,13,11,88,,,
184112,control_change,16,0,3,,,,,,,,,3,11,88,,,
184113,control_change,16,0,10,,,,,,,,,14,11,88,,,
184119,control_change,18,0,6,,,,,,,,,10,11,84,,,
184121,control_change,18,0,7,,,,,,,,,11,11,84,,,
184122,control_change,18,0,1,,,,,,,,,0,11,84,,,
184123,control_change,18,0,4,,,,,,,,,4,11,84,,,
184124,control_change,18,0,2,,,,,,,,,1,11,84,,,
184125,control_change,18,0,5,,,,,,,,,5,11,84,,,
184125,control_change,18,0,8,,,,,,,,,12,11,84,,,
184129,control_change,18,0,9,,,,,,,,,13,11,84,,,
184130,control_change,18,0,3,,,,,,,,,3,11,84,,,
184131,control_change,18,0,10,,,,,,,,,14,11,84,,,
184137,control_change,18,0,6,,,,,,,,,10,11,80,,,
184139,control_change,18,0,7,,,,,,,,,11,11,80,,,
184140,control_change,18,0,1,,,,,,,,,0,11,80,,,
184141,control_change,18,0,4,,,,,,,,,4,11,80,,,
184142,control_change,18,0,2,,,,,,,,,1,11,80,,,
184143,control_change,18,0,8,,,,,,,,,12,11,80,,,
184143,control_change,18,0,5,,,,,,,,,5,11,80,,,
184147,control_change,18,0,9,,,,,,,,,13,11,80,,,
184148,control_change,18,0,3,,,,,,,,,3,11,80,,,
184149,control_change,18,0,10,,,,,,,,,14,11,80,,,
184215,note_on,78,0,6,,,,,,,,,10,,,,82,0
184215,note_on,0,0,6,,,,,,,,,10,,,,70,0
184217,note_on,78,0,7,,,,,,,,,11,,,,75,0
184221,note_on,78,0,8,,,,,,,,,12,,,,60,0
184225,note_on,78,0,9,,,,,,,,,13,,,,48,0
184227,note_on,78,0,10,,,,,,,,,14,,,,36,0
184243,note_on,103,0,1,,,,,,,,,0,,,,87,0
184244,note_on,103,0,4,,,,,,,,,4,,,,58,0
184245,note_on,103,0,2,,,,,,,,,1,,,,75,0
184245,note_on,0,0,2,,,,,,,,,1,,,,82,0
184246,note_on,103,0,5,,,,,,,,,5,,,,46,0
184251,note_on,103,0,3,,,,,,,,,3,,,,48,0
184260,note_on,45,0,6,,,,,,,,,10,,,,70,110
184260,note_on,0,0,6,,,,,,,,,10,,,,82,110
184262,note_on,45,0,7,,,,,,,,,11,,,,75,110
184263,note_on,20,0,1,,,,,,,,,0,,,,87,97
184264,note_on,20,0,4,,,,,,,,,4,,,,58,96
184265,note_on,20,0,2,,,,,,,,,1,,,,82,97
184265,note_on,0,0,2,,,,,,,,,1,,,,75,97
184266,note_on,20,0,5,,,,,,,,,5,,,,46,96
184266,note_on,45,0,8,,,,,,,,,12,,,,60,108
184270,note_on,45,0,9,,,,,,,,,13,,,,48,99
184271,note_on,20,0,3,,,,,,,,,3,,,,48,97
184272,note_on,45,0,10,,,,,,,,,14,,,,36,93
184295,note_on,35,0,6,,,,,,,,,10,,,,82,0
184295,note_on,0,0,6,,,,,,,,,10,,,,70,0
184297,note_on,35,0,7,,,,,,,,,11,,,,75,0
184301,note_on,35,0,8,,,,,,,,,12,,,,60,0
184303,note_on,40,0,1,,,,,,,,,0,,,,87,0
184304,note_on,40,0,4,,,,,,,,,4,,,,58,0
184305,note_on,0,0,2,,,,,,,,,1,,,,82,0
184305,note_on,40,0,2,,,,,,,,,1,,,,75,0
184305,note_on,35,0,9,,,,,,,,,13,,,,48,0
184306,note_on,40,0,5,,,,,,,,,5,,,,46,0
184307,note_on,35,0,10,,,,,,,,,14,,,,36,0
184311,note_on,40,0,3,,,,,,,,,3,,,,48,0
184320,set_tempo,240,1,0,,,,,,272727,,,,,,,,
184320,note_on,0,0,6,,,,,,,,,10,,,,70,102
184320,note_on,0,0,6,,,,,,,,,10,,,,82,102
184320,control_change,25,0,6,,,,,,,,,10,11,84,,,
184322,note_on,0,0,7,,,,,,,,,11,,,,76,102
184322,control_change,25,0,7,,,,,,,,,11,11,84,,,
184323,control_change,20,0,1,,,,,,,,,0,11,84,,,
184323,note_on,0,0,1,,,,,,,,,0,,,,87,90
184324,note_on,0,0,4,,,,,,,,,4,,,,58,88
184324,control_change,20,0,4,,,,,,,,,4,11,84,,,
184325,control_change,20,0,2,,,,,,,,,1,11,84,,,
184325,note_on,0,0,2,,,,,,,,,1,,,,76,90
184325,note_on,0,0,2,,,,,,,,,1,,,,82,90
184325,control_change,5,0,6,,,,,,,,,10,11,88,,,
184326,note_on,0,0,5,,,,,,,,,5,,,,46,88
184326,note_on,0,0,8,,,,,,,,,12,,,,61,100
184326,control_change,25,0,8,,,,,,,,,12,11,84,,,
184326,control_change,20,0,5,,,,,,,,,5,11,84,,,
184327,control_change,5,0,7,,,,,,,,,11,11,88,,,
184328,control_change,5,0,1,,,,,,,,,0,11,88,,,
184329,control_change,5,0,4,,,,,,,,,4,11,88,,,
184330,control_change,25,0,9,,,,,,,,,13,11,84,,,
184330,note_on,0,0,9,,,,,,,,,13,,,,49,91
184330,control_change,5,0,2,,,,,,,,,1,11,88,,,
184331,note_on,0,0,3,,,,,,,,,3,,,,49,90
184331,control_change,5,0,8,,,,,,,,,12,11,88,,,
184331,control_change,20,0,3,,,,,,,,,3,11,84,,,
184331,control_change,5,0,5,,,,,,,,,5,11,88,,,
184332,control_change,25,0,10,,,,,,,,,14,11,84,,,
184332,note_on,0,0,10,,,,,,,,,14,,,,37,85
184335,control_change,5,0,9,,,,,,,,,13,11,88,,,
184336,control_change,5,0,3,,,,,,,,,3,11,88,,,
184337,control_change,5,0,10,,,,,,,,,14,11,88,,,
184341,control_change,16,0,6,,,,,,,,,10,11,88,,,
184343,control_change,16,0,7,,,,,,,,,11,11,88,,,
184344,control_change,16,0,1,,,,,,,,,0,11,88,,,
184345,control_change,16,0,4,,,,,,,,,4,11,88,,,
184346,control_change,16,0,2,,,,,,,,,1,11,88,,,
184347,control_change,16,0,8,,,,,,,,,12,11,88,,,
184347,control_change,16,0,5,,,,,,,,,5,11,88,,,
184351,control_change,16,0,9,,,,,,,,,13,11,88,,,
184352,control_change,16,0,3,,,,,,,,,3,11,88,,,
184353,control_change,16,0,10,,,,,,,,,14,11,88,,,
184359,control_change,18,0,6,,,,,,,,,10,11,84,,,
184361,control_change,18,0,7,,,,,,,,,11,11,84,,,
184362,control_change,18,0,1,,,,,,,,,0,11,84,,,
184363,control_change,18,0,4,,,,,,,,,4,11,84,,,
184364,control_change,18,0,2,,,,,,,,,1,11,84,,,
184365,control_change,18,0,8,,,,,,,,,12,11,84,,,
184365,control_change,18,0,5,,,,,,,,,5,11,84,,,
184369,control_change,18,0,9,,,,,,,,,13,11,84,,,
184370,control_change,18,0,3,,,,,,,,,3,11,84,,,
184371,control_change,18,0,10,,,,,,,,,14,11,84,,,
184377,control_change,18,0,6,,,,,,,,,10,11,80,,,
184379,control_change,18,0,7,,,,,,,,,11,11,80,,,
184380,control_change,18,0,1,,,,,,,,,0,11,80,,,
184381,control_change,18,0,4,,,,,,,,,4,11,80,,,
184382,control_change,18,0,2,,,,,,,,,1,11,80,,,
184383,control_change,18,0,8,,,,,,,,,12,11,80,,,
184383,control_change,18,0,5,,,,,,,,,5,11,80,,,
184387,control_change,18,0,9,,,,,,,,,13,11,80,,,
184388,control_change,18,0,3,,,,,,,,,3,11,80,,,
184389,control_change,18,0,10,,,,,,,,,14,11,80,,,
184455,note_on,0,0,6,,,,,,,,,10,,,,70,0
184455,note_on,78,0,6,,,,,,,,,10,,,,82,0
184457,note_on,78,0,7,,,,,,,,,11,,,,76,0
184461,note_on,78,0,8,,,,,,,,,12,,,,61,0
184465,note_on,78,0,9,,,,,,,,,13,,,,49,0
184467,note_on,78,0,10,,,,,,,,,14,,,,37,0
184483,note_on,103,0,1,,,,,,,,,0,,,,87,0
184484,note_on,103,0,4,,,,,,,,,4,,,,58,0
184485,note_on,0,0,2,,,,,,,,,1,,,,76,0
184485,note_on,103,0,2,,,,,,,,,1,,,,82,0
184486,note_on,103,0,5,,,,,,,,,5,,,,46,0
184491,note_on,103,0,3,,,,,,,,,3,,,,49,0
184500,note_on,45,0,6,,,,,,,,,10,,,,70,110
184500,note_on,0,0,6,,,,,,,,,10,,,,82,110
184502,note_on,45,0,7,,,,,,,,,11,,,,76,110
184503,note_on,20,0,1,,,,,,,,,0,,,,87,97
184504,note_on,20,0,4,,,,,,,,,4,,,,58,96
184505,note_on,20,0,2,,,,,,,,,1,,,,76,97
184505,note_on,0,0,2,,,,,,,,,1,,,,82,97
184506,note_on,45,0,8,,,,,,,,,12,,,,61,108
184506,note_on,20,0,5,,,,,,,,,5,,,,46,96
184510,note_on,45,0,9,,,,,,,,,13,,,,49,99
184511,note_on,20,0,3,,,,,,,,,3,,,,49,97
184512,note_on,45,0,10,,,,,,,,,14,,,,37,93
184535,note_on,35,0,6,,,,,,,,,10,,,,82,0
184535,note_on,0,0,6,,,,,,,,,10,,,,70,0
184537,note_on,35,0,7,,,,,,,,,11,,,,76,0
184541,note_on,35,0,8,,,,,,,,,12,,,,61,0
184543,note_on,40,0,1,,,,,,,,,0,,,,87,0
184544,note_on,40,0,4,,,,,,,,,4,,,,58,0
184545,note_on,0,0,2,,,,,,,,,1,,,,76,0
184545,note_on,35,0,9,,,,,,,,,13,,,,49,0
184545,note_on,40,0,2,,,,,,,,,1,,,,82,0
184546,note_on,40,0,5,,,,,,,,,5,,,,46,0
184547,note_on,35,0,10,,,,,,,,,14,,,,37,0
184551,note_on,40,0,3,,,,,,,,,3,,,,49,0
184560,set_tempo,240,1,0,,,,,,261438,,,,,,,,
184560,note_on,0,0,6,,,,,,,,,10,,,,70,102
184560,control_change,25,0,6,,,,,,,,,10,11,84,,,
184560,note_on,0,0,6,,,,,,,,,10,,,,82,102
184562,control_change,25,0,7,,,,,,,,,11,11,84,,,
184562,note_on,0,0,7,,,,,,,,,11,,,,77,102
184563,note_on,0,0,1,,,,,,,,,0,,,,89,90
184563,control_change,20,0,1,,,,,,,,,0,11,84,,,
184564,note_on,0,0,4,,,,,,,,,4,,,,58,88
184564,control_change,20,0,4,,,,,,,,,4,11,84,,,
184565,note_on,0,0,2,,,,,,,,,1,,,,77,90
184565,control_change,5,0,6,,,,,,,,,10,11,88,,,
184565,control_change,20,0,2,,,,,,,,,1,11,84,,,
184565,note_on,0,0,2,,,,,,,,,1,,,,82,90
184566,control_change,20,0,5,,,,,,,,,5,11,84,,,
184566,note_on,0,0,5,,,,,,,,,5,,,,46,88
184566,note_on,0,0,8,,,,,,,,,12,,,,62,100
184566,control_change,25,0,8,,,,,,,,,12,11,84,,,
184567,control_change,5,0,7,,,,,,,,,11,11,88,,,
184568,control_change,5,0,1,,,,,,,,,0,11,88,,,
184569,control_change,5,0,4,,,,,,,,,4,11,88,,,
184570,control_change,25,0,9,,,,,,,,,13,11,84,,,
184570,note_on,0,0,9,,,,,,,,,13,,,,50,91
184570,control_change,5,0,2,,,,,,,,,1,11,88,,,
184571,control_change,5,0,8,,,,,,,,,12,11,88,,,
184571,control_change,5,0,5,,,,,,,,,5,11,88,,,
184571,note_on,0,0,3,,,,,,,,,3,,,,50,90
184571,control_change,20,0,3,,,,,,,,,3,11,84,,,
184572,note_on,0,0,10,,,,,,,,,14,,,,38,85
184572,control_change,25,0,10,,,,,,,,,14,11,84,,,
184575,control_change,5,0,9,,,,,,,,,13,11,88,,,
184576,control_change,5,0,3,,,,,,,,,3,11,88,,,
184577,control_change,5,0,10,,,,,,,,,14,11,88,,,
184581,control_change,16,0,6,,,,,,,,,10,11,88,,,
184583,control_change,16,0,7,,,,,,,,,11,11,88,,,
184584,control_change,16,0,1,,,,,,,,,0,11,88,,,
184585,control_change,16,0,4,,,,,,,,,4,11,88,,,
184586,control_change,16,0,2,,,,,,,,,1,11,88,,,
184587,control_change,16,0,5,,,,,,,,,5,11,88,,,
184587,control_change,16,0,8,,,,,,,,,12,11,88,,,
184591,control_change,16,0,9,,,,,,,,,13,11,88,,,
184592,control_change,16,0,3,,,,,,,,,3,11,88,,,
184593,control_change,16,0,10,,,,,,,,,14,11,88,,,
184599,control_change,18,0,6,,,,,,,,,10,11,84,,,
184601,control_change,18,0,7,,,,,,,,,11,11,84,,,
184602,control_change,18,0,1,,,,,,,,,0,11,84,,,
184603,control_change,18,0,4,,,,,,,,,4,11,84,,,
184604,control_change,18,0,2,,,,,,,,,1,11,84,,,
184605,control_change,18,0,8,,,,,,,,,12,11,84,,,
184605,control_change,18,0,5,,,,,,,,,5,11,84,,,
184609,control_change,18,0,9,,,,,,,,,13,11,84,,,
184610,control_change,18,0,3,,,,,,,,,3,11,84,,,
184611,control_change,18,0,10,,,,,,,,,14,11,84,,,
184617,control_change,18,0,6,,,,,,,,,10,11,80,,,
184619,control_change,18,0,7,,,,,,,,,11,11,80,,,
184620,control_change,18,0,1,,,,,,,,,0,11,80,,,
184621,control_change,18,0,4,,,,,,,,,4,11,80,,,
184622,control_change,18,0,2,,,,,,,,,1,11,80,,,
184623,control_change,18,0,5,,,,,,,,,5,11,80,,,
184623,control_change,18,0,8,,,,,,,,,12,11,80,,,
184627,control_change,18,0,9,,,,,,,,,13,11,80,,,
184628,control_change,18,0,3,,,,,,,,,3,11,80,,,
184629,control_change,18,0,10,,,,,,,,,14,11,80,,,
184695,note_on,0,0,6,,,,,,,,,10,,,,82,0
184695,note_on,78,0,6,,,,,,,,,10,,,,70,0
184697,note_on,78,0,7,,,,,,,,,11,,,,77,0
184701,note_on,78,0,8,,,,,,,,,12,,,,62,0
184705,note_on,78,0,9,,,,,,,,,13,,,,50,0
184707,note_on,78,0,10,,,,,,,,,14,,,,38,0
184723,note_on,103,0,1,,,,,,,,,0,,,,89,0
184724,note_on,103,0,4,,,,,,,,,4,,,,58,0
184725,note_on,103,0,2,,,,,,,,,1,,,,77,0
184725,note_on,0,0,2,,,,,,,,,1,,,,82,0
184726,note_on,103,0,5,,,,,,,,,5,,,,46,0
184731,note_on,103,0,3,,,,,,,,,3,,,,50,0
184740,note_on,45,0,6,,,,,,,,,10,,,,70,110
184740,note_on,0,0,6,,,,,,,,,10,,,,82,110
184742,note_on,45,0,7,,,,,,,,,11,,,,77,110
184743,note_on,20,0,1,,,,,,,,,0,,,,89,97
184744,note_on,20,0,4,,,,,,,,,4,,,,58,96
184745,note_on,0,0,2,,,,,,,,,1,,,,77,97
184745,note_on,20,0,2,,,,,,,,,1,,,,82,97
184746,note_on,45,0,8,,,,,,,,,12,,,,62,108
184746,note_on,20,0,5,,,,,,,,,5,,,,46,96
184750,note_on,45,0,9,,,,,,,,,13,,,,50,99
184751,note_on,20,0,3,,,,,,,,,3,,,,50,97
184752,note_on,45,0,10,,,,,,,,,14,,,,38,93
184775,note_on,0,0,6,,,,,,,,,10,,,,70,0
184775,note_on,35,0,6,,,,,,,,,10,,,,82,0
184777,note_on,35,0,7,,,,,,,,,11,,,,77,0
184781,note_on,35,0,8,,,,,,,,,12,,,,62,0
184783,note_on,40,0,1,,,,,,,,,0,,,,89,0
184784,note_on,40,0,4,,,,,,,,,4,,,,58,0
184785,note_on,0,0,2,,,,,,,,,1,,,,82,0
184785,note_on,35,0,9,,,,,,,,,13,,,,50,0
184785,note_on,40,0,2,,,,,,,,,1,,,,77,0
184786,note_on,40,0,5,,,,,,,,,5,,,,46,0
184787,note_on,35,0,10,,,,,,,,,14,,,,38,0
184791,note_on,40,0,3,,,,,,,,,3,,,,50,0
184800,note_on,0,0,6,,,,,,,,,10,,,,82,102
184800,note_on,0,0,6,,,,,,,,,10,,,,70,102
184800,set_tempo,240,1,0,,,,,,272727,,,,,,,,
184800,control_change,25,0,6,,,,,,,,,10,11,84,,,
184802,note_on,0,0,7,,,,,,,,,11,,,,78,102
184802,control_change,25,0,7,,,,,,,,,11,11,84,,,
184803,control_change,20,0,1,,,,,,,,,0,11,84,,,
184803,note_on,0,0,1,,,,,,,,,0,,,,89,90
184804,note_on,0,0,4,,,,,,,,,4,,,,58,88
184804,control_change,20,0,4,,,,,,,,,4,11,84,,,
184805,note_on,0,0,2,,,,,,,,,1,,,,78,90
184805,note_on,0,0,2,,,,,,,,,1,,,,82,90
184805,control_change,20,0,2,,,,,,,,,1,11,84,,,
184805,control_change,5,0,6,,,,,,,,,10,11,88,,,
184806,note_on,0,0,5,,,,,,,,,5,,,,46,88
184806,control_change,25,0,8,,,,,,,,,12,11,84,,,
184806,note_on,0,0,8,,,,,,,,,12,,,,63,100
184806,control_change,20,0,5,,,,,,,,,5,11,84,,,
184807,control_change,5,0,7,,,,,,,,,11,11,88,,,
184808,control_change,5,0,1,,,,,,,,,0,11,88,,,
184809,control_change,5,0,4,,,,,,,,,4,11,88,,,
184810,note_on,0,0,9,,,,,,,,,13,,,,51,91
184810,control_change,25,0,9,,,,,,,,,13,11,84,,,
184810,control_change,5,0,2,,,,,,,,,1,11,88,,,
184811,control_change,5,0,8,,,,,,,,,12,11,88,,,
184811,control_change,5,0,5,,,,,,,,,5,11,88,,,
184811,control_change,20,0,3,,,,,,,,,3,11,84,,,
184811,note_on,0,0,3,,,,,,,,,3,,,,51,90
184812,control_change,25,0,10,,,,,,,,,14,11,84,,,
184812,note_on,0,0,10,,,,,,,,,14,,,,39,85
184815,control_change,5,0,9,,,,,,,,,13,11,88,,,
184816,control_change,5,0,3,,,,,,,,,3,11,88,,,
184817,control_change,5,0,10,,,,,,,,,14,11,88,,,
184821,control_change,16,0,6,,,,,,,,,10,11,88,,,
184823,control_change,16,0,7,,,,,,,,,11,11,88,,,
184824,control_change,16,0,1,,,,,,,,,0,11,88,,,
184825,control_change,16,0,4,,,,,,,,,4,11,88,,,
184826,control_change,16,0,2,,,,,,,,,1,11,88,,,
184827,control_change,16,0,8,,,,,,,,,12,11,88,,,
184827,control_change,16,0,5,,,,,,,,,5,11,88,,,
184831,control_change,16,0,9,,,,,,,,,13,11,88,,,
184832,control_change,16,0,3,,,,,,,,,3,11,88,,,
184833,control_change,16,0,10,,,,,,,,,14,11,88,,,
184839,control_change,18,0,6,,,,,,,,,10,11,84,,,
184841,control_change,18,0,7,,,,,,,,,11,11,84,,,
184842,control_change,18,0,1,,,,,,,,,0,11,84,,,
184843,control_change,18,0,4,,,,,,,,,4,11,84,,,
184844,control_change,18,0,2,,,,,,,,,1,11,84,,,
184845,control_change,18,0,5,,,,,,,,,5,11,84,,,
184845,control_change,18,0,8,,,,,,,,,12,11,84,,,
184849,control_change,18,0,9,,,,,,,,,13,11,84,,,
184850,control_change,18,0,3,,,,,,,,,3,11,84,,,
184851,control_change,18,0,10,,,,,,,,,14,11,84,,,
184857,control_change,18,0,6,,,,,,,,,10,11,80,,,
184859,control_change,18,0,7,,,,,,,,,11,11,80,,,
184860,control_change,18,0,1,,,,,,,,,0,11,80,,,
184861,control_change,18,0,4,,,,,,,,,4,11,80,,,
184862,control_change,18,0,2,,,,,,,,,1,11,80,,,
184863,control_change,18,0,8,,,,,,,,,12,11,80,,,
184863,control_change,18,0,5,,,,,,,,,5,11,80,,,
184867,control_change,18,0,9,,,,,,,,,13,11,80,,,
184868,control_change,18,0,3,,,,,,,,,3,11,80,,,
184869,control_change,18,0,10,,,,,,,,,14,11,80,,,
184935,note_on,0,0,6,,,,,,,,,10,,,,82,0
184935,note_on,78,0,6,,,,,,,,,10,,,,70,0
184937,note_on,78,0,7,,,,,,,,,11,,,,78,0
184941,note_on,78,0,8,,,,,,,,,12,,,,63,0
184945,note_on,78,0,9,,,,,,,,,13,,,,51,0
184947,note_on,78,0,10,,,,,,,,,14,,,,39,0
184963,note_on,103,0,1,,,,,,,,,0,,,,89,0
184964,note_on,103,0,4,,,,,,,,,4,,,,58,0
184965,note_on,0,0,2,,,,,,,,,1,,,,78,0
184965,note_on,103,0,2,,,,,,,,,1,,,,82,0
184966,note_on,103,0,5,,,,,,,,,5,,,,46,0
184971,note_on,103,0,3,,,,,,,,,3,,,,51,0
184980,note_on,45,0,6,,,,,,,,,10,,,,82,110
184980,note_on,0,0,6,,,,,,,,,10,,,,70,110
184982,note_on,45,0,7,,,,,,,,,11,,,,78,110
184983,note_on,20,0,1,,,,,,,,,0,,,,89,97
184984,note_on,20,0,4,,,,,,,,,4,,,,58,96
184985,note_on,20,0,2,,,,,,,,,1,,,,78,97
184985,note_on,0,0,2,,,,,,,,,1,,,,82,97
184986,note_on,45,0,8,,,,,,,,,12,,,,63,108
184986,note_on,20,0,5,,,,,,,,,5,,,,46,96
184990,note_on,45,0,9,,,,,,,,,13,,,,51,99
184991,note_on,20,0,3,,,,,,,,,3,,,,51,97
184992,note_on,45,0,10,,,,,,,,,14,,,,39,93
185015,note_on,35,0,6,,,,,,,,,10,,,,70,0
185015,note_on,0,0,6,,,,,,,,,10,,,,82,0
185017,note_on,35,0,7,,,,,,,,,11,,,,78,0
185021,note_on,35,0,8,,,,,,,,,12,,,,63,0
185023,note_on,40,0,1,,,,,,,,,0,,,,89,0
185024,note_on,40,0,4,,,,,,,,,4,,,,58,0
185025,note_on,0,0,2,,,,,,,,,1,,,,78,0
185025,note_on,40,0,2,,,,,,,,,1,,,,82,0
185025,note_on,35,0,9,,,,,,,,,13,,,,51,0
185026,note_on,40,0,5,,,,,,,,,5,,,,46,0
185027,note_on,35,0,10,,,,,,,,,14,,,,39,0
185031,note_on,40,0,3,,,,,,,,,3,,,,51,0
185040,note_on,0,0,6,,,,,,,,,10,,,,70,102
185040,note_on,0,0,6,,,,,,,,,10,,,,82,102
185040,control_change,25,0,6,,,,,,,,,10,11,84,,,
185040,set_tempo,240,1,0,,,,,,261438,,,,,,,,
185042,control_change,25,0,7,,,,,,,,,11,11,84,,,
185042,note_on,0,0,7,,,,,,,,,11,,,,74,102
185043,control_change,20,0,1,,,,,,,,,0,11,84,,,
185043,note_on,0,0,1,,,,,,,,,0,,,,86,90
185044,control_change,20,0,4,,,,,,,,,4,11,84,,,
185044,note_on,0,0,4,,,,,,,,,4,,,,58,88
185045,control_change,5,0,6,,,,,,,,,10,11,88,,,
185045,control_change,20,0,2,,,,,,,,,1,11,84,,,
185045,note_on,0,0,2,,,,,,,,,1,,,,74,90
185045,note_on,0,0,2,,,,,,,,,1,,,,82,90
185046,note_on,0,0,5,,,,,,,,,5,,,,46,88
185046,control_change,25,0,8,,,,,,,,,12,11,84,,,
185046,control_change,20,0,5,,,,,,,,,5,11,84,,,
185046,note_on,0,0,8,,,,,,,,,12,,,,65,100
185047,control_change,5,0,7,,,,,,,,,11,11,88,,,
185048,control_change,5,0,1,,,,,,,,,0,11,88,,,
185049,control_change,5,0,4,,,,,,,,,4,11,88,,,
185050,note_on,0,0,9,,,,,,,,,13,,,,53,91
185050,control_change,5,0,2,,,,,,,,,1,11,88,,,
185050,control_change,25,0,9,,,,,,,,,13,11,84,,,
185051,control_change,5,0,8,,,,,,,,,12,11,88,,,
185051,control_change,5,0,5,,,,,,,,,5,11,88,,,
185051,note_on,0,0,3,,,,,,,,,3,,,,53,90
185051,control_change,20,0,3,,,,,,,,,3,11,84,,,
185052,note_on,0,0,10,,,,,,,,,14,,,,41,85
185052,control_change,25,0,10,,,,,,,,,14,11,84,,,
185055,control_change,5,0,9,,,,,,,,,13,11,88,,,
185056,control_change,5,0,3,,,,,,,,,3,11,88,,,
185057,control_change,5,0,10,,,,,,,,,14,11,88,,,
185061,control_change,16,0,6,,,,,,,,,10,11,88,,,
185063,control_change,16,0,7,,,,,,,,,11,11,88,,,
185064,control_change,16,0,1,,,,,,,,,0,11,88,,,
185065,control_change,16,0,4,,,,,,,,,4,11,88,,,
185066,control_change,16,0,2,,,,,,,,,1,11,88,,,
185067,control_change,16,0,5,,,,,,,,,5,11,88,,,
185067,control_change,16,0,8,,,,,,,,,12,11,88,,,
185071,control_change,16,0,9,,,,,,,,,13,11,88,,,
185072,control_change,16,0,3,,,,,,,,,3,11,88,,,
185073,control_change,16,0,10,,,,,,,,,14,11,88,,,
185079,control_change,18,0,6,,,,,,,,,10,11,84,,,
185081,control_change,18,0,7,,,,,,,,,11,11,84,,,
185082,control_change,18,0,1,,,,,,,,,0,11,84,,,
185083,control_change,18,0,4,,,,,,,,,4,11,84,,,
185084,control_change,18,0,2,,,,,,,,,1,11,84,,,
185085,control_change,18,0,8,,,,,,,,,12,11,84,,,
185085,control_change,18,0,5,,,,,,,,,5,11,84,,,
185089,control_change,18,0,9,,,,,,,,,13,11,84,,,
185090,control_change,18,0,3,,,,,,,,,3,11,84,,,
185091,control_change,18,0,10,,,,,,,,,14,11,84,,,
185097,control_change,18,0,6,,,,,,,,,10,11,80,,,
185099,control_change,18,0,7,,,,,,,,,11,11,80,,,
185100,control_change,18,0,1,,,,,,,,,0,11,80,,,
185101,control_change,18,0,4,,,,,,,,,4,11,80,,,
185102,control_change,18,0,2,,,,,,,,,1,11,80,,,
185103,control_change,18,0,8,,,,,,,,,12,11,80,,,
185103,control_change,18,0,5,,,,,,,,,5,11,80,,,
185107,control_change,18,0,9,,,,,,,,,13,11,80,,,
185108,control_change,18,0,3,,,,,,,,,3,11,80,,,
185109,control_change,18,0,10,,,,,,,,,14,11,80,,,
185175,note_on,78,0,6,,,,,,,,,10,,,,70,0
185175,note_on,0,0,6,,,,,,,,,10,,,,82,0
185177,note_on,78,0,7,,,,,,,,,11,,,,74,0
185181,note_on,78,0,8,,,,,,,,,12,,,,65,0
185185,note_on,78,0,9,,,,,,,,,13,,,,53,0
185187,note_on,78,0,10,,,,,,,,,14,,,,41,0
185203,note_on,103,0,1,,,,,,,,,0,,,,86,0
185204,note_on,103,0,4,,,,,,,,,4,,,,58,0
185205,note_on,103,0,2,,,,,,,,,1,,,,74,0
185205,note_on,0,0,2,,,,,,,,,1,,,,82,0
185206,note_on,103,0,5,,,,,,,,,5,,,,46,0
185211,note_on,103,0,3,,,,,,,,,3,,,,53,0
185220,note_on,45,0,6,,,,,,,,,10,,,,70,110
185220,note_on,0,0,6,,,,,,,,,10,,,,82,110
185222,note_on,45,0,7,,,,,,,,,11,,,,74,110
185223,note_on,20,0,1,,,,,,,,,0,,,,86,97
185224,note_on,20,0,4,,,,,,,,,4,,,,58,96
185225,note_on,20,0,2,,,,,,,,,1,,,,74,97
185225,note_on,0,0,2,,,,,,,,,1,,,,82,97
185226,note_on,45,0,8,,,,,,,,,12,,,,65,108
185226,note_on,20,0,5,,,,,,,,,5,,,,46,96
185230,note_on,45,0,9,,,,,,,,,13,,,,53,99
185231,note_on,20,0,3,,,,,,,,,3,,,,53,97
185232,note_on,45,0,10,,,,,,,,,14,,,,41,93
185255,note_on,0,0,6,,,,,,,,,10,,,,70,0
185255,note_on,35,0,6,,,,,,,,,10,,,,82,0
185257,note_on,35,0,7,,,,,,,,,11,,,,74,0
185261,note_on,35,0,8,,,,,,,,,12,,,,65,0
185263,note_on,40,0,1,,,,,,,,,0,,,,86,0
185264,note_on,40,0,4,,,,,,,,,4,,,,58,0
185265,note_on,0,0,2,,,,,,,,,1,,,,74,0
185265,note_on,40,0,2,,,,,,,,,1,,,,82,0
185265,note_on,35,0,9,,,,,,,,,13,,,,53,0
185266,note_on,40,0,5,,,,,,,,,5,,,,46,0
185267,note_on,35,0,10,,,,,,,,,14,,,,41,0
185271,note_on,40,0,3,,,,,,,,,3,,,,53,0
185280,control_change,25,0,6,,,,,,,,,10,11,84,,,
185280,note_on,0,0,6,,,,,,,,,10,,,,70,102
185280,note_on,0,0,6,,,,,,,,,10,,,,82,102
185280,set_tempo,240,1,0,,,,,,272727,,,,,,,,
185282,note_on,0,0,7,,,,,,,,,11,,,,75,102
185282,control_change,25,0,7,,,,,,,,,11,11,84,,,
185283,control_change,20,0,1,,,,,,,,,0,11,84,,,
185283,note_on,0,0,1,,,,,,,,,0,,,,87,90
185284,note_on,0,0,4,,,,,,,,,4,,,,58,88
185284,control_change,20,0,4,,,,,,,,,4,11,84,,,
185285,note_on,0,0,2,,,,,,,,,1,,,,75,90
185285,note_on,0,0,2,,,,,,,,,1,,,,82,90
185285,control_change,20,0,2,,,,,,,,,1,11,84,,,
185285,control_change,5,0,6,,,,,,,,,10,11,88,,,
185286,control_change,25,0,8,,,,,,,,,12,11,84,,,
185286,note_on,0,0,8,,,,,,,,,12,,,,66,100
185286,note_on,0,0,5,,,,,,,,,5,,,,46,88
185286,control_change,20,0,5,,,,,,,,,5,11,84,,,
185287,control_change,5,0,7,,,,,,,,,11,11,88,,,
185288,control_change,5,0,1,,,,,,,,,0,11,88,,,
185289,control_change,5,0,4,,,,,,,,,4,11,88,,,
185290,control_change,5,0,2,,,,,,,,,1,11,88,,,
185290,control_change,25,0,9,,,,,,,,,13,11,84,,,
185290,note_on,0,0,9,,,,,,,,,13,,,,54,91
185291,control_change,5,0,8,,,,,,,,,12,11,88,,,
185291,control_change,5,0,5,,,,,,,,,5,11,88,,,
185291,note_on,0,0,3,,,,,,,,,3,,,,54,90
185291,control_change,20,0,3,,,,,,,,,3,11,84,,,
185292,control_change,25,0,10,,,,,,,,,14,11,84,,,
185292,note_on,0,0,10,,,,,,,,,14,,,,42,85
185295,control_change,5,0,9,,,,,,,,,13,11,88,,,
185296,control_change,5,0,3,,,,,,,,,3,11,88,,,
185297,control_change,5,0,10,,,,,,,,,14,11,88,,,
185301,control_change,16,0,6,,,,,,,,,10,11,88,,,
185303,control_change,16,0,7,,,,,,,,,11,11,88,,,
185304,control_change,16,0,1,,,,,,,,,0,11,88,,,
185305,control_change,16,0,4,,,,,,,,,4,11,88,,,
185306,control_change,16,0,2,,,,,,,,,1,11,88,,,
185307,control_change,16,0,8,,,,,,,,,12,11,88,,,
185307,control_change,16,0,5,,,,,,,,,5,11,88,,,
185311,control_change,16,0,9,,,,,,,,,13,11,88,,,
185312,control_change,16,0,3,,,,,,,,,3,11,88,,,
185313,control_change,16,0,10,,,,,,,,,14,11,88,,,
185319,control_change,18,0,6,,,,,,,,,10,11,84,,,
185321,control_change,18,0,7,,,,,,,,,11,11,84,,,
185322,control_change,18,0,1,,,,,,,,,0,11,84,,,
185323,control_change,18,0,4,,,,,,,,,4,11,84,,,
185324,control_change,18,0,2,,,,,,,,,1,11,84,,,
185325,control_change,18,0,8,,,,,,,,,12,11,84,,,
185325,control_change,18,0,5,,,,,,,,,5,11,84,,,
185329,control_change,18,0,9,,,,,,,,,13,11,84,,,
185330,control_change,18,0,3,,,,,,,,,3,11,84,,,
185331,control_change,18,0,10,,,,,,,,,14,11,84,,,
185337,control_change,18,0,6,,,,,,,,,10,11,80,,,
185339,control_change,18,0,7,,,,,,,,,11,11,80,,,
185340,control_change,18,0,1,,,,,,,,,0,11,80,,,
185341,control_change,18,0,4,,,,,,,,,4,11,80,,,
185342,control_change,18,0,2,,,,,,,,,1,11,80,,,
185343,control_change,18,0,5,,,,,,,,,5,11,80,,,
185343,control_change,18,0,8,,,,,,,,,12,11,80,,,
185347,control_change,18,0,9,,,,,,,,,13,11,80,,,
185348,control_change,18,0,3,,,,,,,,,3,11,80,,,
185349,control_change,18,0,10,,,,,,,,,14,11,80,,,
185415,note_on,0,0,6,,,,,,,,,10,,,,70,0
185415,note_on,78,0,6,,,,,,,,,10,,,,82,0
185417,note_on,78,0,7,,,,,,,,,11,,,,75,0
185421,note_on,78,0,8,,,,,,,,,12,,,,66,0
185425,note_on,78,0,9,,,,,,,,,13,,,,54,0
185427,note_on,78,0,10,,,,,,,,,14,,,,42,0
185443,note_on,103,0,1,,,,,,,,,0,,,,87,0
185444,note_on,103,0,4,,,,,,,,,4,,,,58,0
185445,note_on,0,0,2,,,,,,,,,1,,,,82,0
185445,note_on,103,0,2,,,,,,,,,1,,,,75,0
185446,note_on,103,0,5,,,,,,,,,5,,,,46,0
185451,note_on,103,0,3,,,,,,,,,3,,,,54,0
185460,note_on,45,0,6,,,,,,,,,10,,,,70,110
185460,note_on,0,0,6,,,,,,,,,10,,,,82,110
185462,note_on,45,0,7,,,,,,,,,11,,,,75,110
185463,note_on,20,0,1,,,,,,,,,0,,,,87,97
185464,note_on,20,0,4,,,,,,,,,4,,,,58,96
185465,note_on,20,0,2,,,,,,,,,1,,,,75,97
185465,note_on,0,0,2,,,,,,,,,1,,,,82,97
185466,note_on,20,0,5,,,,,,,,,5,,,,46,96
185466,note_on,45,0,8,,,,,,,,,12,,,,66,108
185470,note_on,45,0,9,,,,,,,,,13,,,,54,99
185471,note_on,20,0,3,,,,,,,,,3,,,,54,97
185472,note_on,45,0,10,,,,,,,,,14,,,,42,93
185495,note_on,35,0,6,,,,,,,,,10,,,,82,0
185495,note_on,0,0,6,,,,,,,,,10,,,,70,0
185497,note_on,35,0,7,,,,,,,,,11,,,,75,0
185501,note_on,35,0,8,,,,,,,,,12,,,,66,0
185503,note_on,40,0,1,,,,,,,,,0,,,,87,0
185504,note_on,40,0,4,,,,,,,,,4,,,,58,0
185505,note_on,0,0,2,,,,,,,,,1,,,,75,0
185505,note_on,35,0,9,,,,,,,,,13,,,,54,0
185505,note_on,40,0,2,,,,,,,,,1,,,,82,0
185506,note_on,40,0,5,,,,,,,,,5,,,,46,0
185507,note_on,35,0,10,,,,,,,,,14,,,,42,0
185511,note_on,40,0,3,,,,,,,,,3,,,,54,0
185520,control_change,25,0,6,,,,,,,,,10,11,84,,,
185520,note_on,0,0,6,,,,,,,,,10,,,,82,102
185520,note_on,0,0,6,,,,,,,,,10,,,,70,102
185520,set_tempo,240,1,0,,,,,,261438,,,,,,,,
185522,control_change,25,0,7,,,,,,,,,11,11,84,,,
185522,note_on,0,0,7,,,,,,,,,11,,,,76,102
185523,control_change,20,0,1,,,,,,,,,0,11,84,,,
185523,note_on,0,0,1,,,,,,,,,0,,,,87,90
185524,note_on,0,0,4,,,,,,,,,4,,,,58,88
185524,control_change,20,0,4,,,,,,,,,4,11,84,,,
185525,control_change,5,0,6,,,,,,,,,10,11,88,,,
185525,note_on,0,0,2,,,,,,,,,1,,,,76,90
185525,control_change,20,0,2,,,,,,,,,1,11,84,,,
185525,note_on,0,0,2,,,,,,,,,1,,,,82,90
185526,note_on,0,0,8,,,,,,,,,12,,,,67,100
185526,control_change,25,0,8,,,,,,,,,12,11,84,,,
185526,note_on,0,0,5,,,,,,,,,5,,,,46,88
185526,control_change,20,0,5,,,,,,,,,5,11,84,,,
185527,control_change,5,0,7,,,,,,,,,11,11,88,,,
185528,control_change,5,0,1,,,,,,,,,0,11,88,,,
185529,control_change,5,0,4,,,,,,,,,4,11,88,,,
185530,control_change,5,0,2,,,,,,,,,1,11,88,,,
185530,control_change,25,0,9,,,,,,,,,13,11,84,,,
185530,note_on,0,0,9,,,,,,,,,13,,,,55,91
185531,note_on,0,0,3,,,,,,,,,3,,,,55,90
185531,control_change,20,0,3,,,,,,,,,3,11,84,,,
185531,control_change,5,0,8,,,,,,,,,12,11,88,,,
185531,control_change,5,0,5,,,,,,,,,5,11,88,,,
185532,control_change,25,0,10,,,,,,,,,14,11,84,,,
185532,note_on,0,0,10,,,,,,,,,14,,,,43,85
185535,control_change,5,0,9,,,,,,,,,13,11,88,,,
185536,control_change,5,0,3,,,,,,,,,3,11,88,,,
185537,control_change,5,0,10,,,,,,,,,14,11,88,,,
185541,control_change,16,0,6,,,,,,,,,10,11,88,,,
185543,control_change,16,0,7,,,,,,,,,11,11,88,,,
185544,control_change,16,0,1,,,,,,,,,0,11,88,,,
185545,control_change,16,0,4,,,,,,,,,4,11,88,,,
185546,control_change,16,0,2,,,,,,,,,1,11,88,,,
185547,control_change,16,0,5,,,,,,,,,5,11,88,,,
185547,control_change,16,0,8,,,,,,,,,12,11,88,,,
185551,control_change,16,0,9,,,,,,,,,13,11,88,,,
185552,control_change,16,0,3,,,,,,,,,3,11,88,,,
185553,control_change,16,0,10,,,,,,,,,14,11,88,,,
185559,control_change,18,0,6,,,,,,,,,10,11,84,,,
185561,control_change,18,0,7,,,,,,,,,11,11,84,,,
185562,control_change,18,0,1,,,,,,,,,0,11,84,,,
185563,control_change,18,0,4,,,,,,,,,4,11,84,,,
185564,control_change,18,0,2,,,,,,,,,1,11,84,,,
185565,control_change,18,0,5,,,,,,,,,5,11,84,,,
185565,control_change,18,0,8,,,,,,,,,12,11,84,,,
185569,control_change,18,0,9,,,,,,,,,13,11,84,,,
185570,control_change,18,0,3,,,,,,,,,3,11,84,,,
185571,control_change,18,0,10,,,,,,,,,14,11,84,,,
185577,control_change,18,0,6,,,,,,,,,10,11,80,,,
185579,control_change,18,0,7,,,,,,,,,11,11,80,,,
185580,control_change,18,0,1,,,,,,,,,0,11,80,,,
185581,control_change,18,0,4,,,,,,,,,4,11,80,,,
185582,control_change,18,0,2,,,,,,,,,1,11,80,,,
185583,control_change,18,0,5,,,,,,,,,5,11,80,,,
185583,control_change,18,0,8,,,,,,,,,12,11,80,,,
185587,control_change,18,0,9,,,,,,,,,13,11,80,,,
185588,control_change,18,0,3,,,,,,,,,3,11,80,,,
185589,control_change,18,0,10,,,,,,,,,14,11,80,,,
185655,note_on,0,0,6,,,,,,,,,10,,,,82,0
185655,note_on,78,0,6,,,,,,,,,10,,,,70,0
185657,note_on,78,0,7,,,,,,,,,11,,,,76,0
185661,note_on,78,0,8,,,,,,,,,12,,,,67,0
185665,note_on,78,0,9,,,,,,,,,13,,,,55,0
185667,note_on,78,0,10,,,,,,,,,14,,,,43,0
185683,note_on,103,0,1,,,,,,,,,0,,,,87,0
185684,note_on,103,0,4,,,,,,,,,4,,,,58,0
185685,note_on,0,0,2,,,,,,,,,1,,,,76,0
185685,note_on,103,0,2,,,,,,,,,1,,,,82,0
185686,note_on,103,0,5,,,,,,,,,5,,,,46,0
185691,note_on,103,0,3,,,,,,,,,3,,,,55,0
185700,note_on,0,0,6,,,,,,,,,10,,,,70,102
185700,set_tempo,180,1,0,,,,,,347826,,,,,,,,
185700,control_change,45,0,6,,,,,,,,,10,11,79,,,
185700,note_on,0,0,6,,,,,,,,,10,,,,82,102
185702,control_change,45,0,7,,,,,,,,,11,11,79,,,
185702,note_on,0,0,7,,,,,,,,,11,,,,76,102
185703,note_on,0,0,1,,,,,,,,,0,,,,87,90
185703,control_change,20,0,1,,,,,,,,,0,11,79,,,
185704,note_on,0,0,4,,,,,,,,,4,,,,58,88
185704,control_change,20,0,4,,,,,,,,,4,11,79,,,
185705,note_on,0,0,2,,,,,,,,,1,,,,76,90
185705,control_change,20,0,2,,,,,,,,,1,11,79,,,
185705,note_on,0,0,2,,,,,,,,,1,,,,82,90
185706,note_on,0,0,5,,,,,,,,,5,,,,46,88
185706,control_change,20,0,5,,,,,,,,,5,11,79,,,
185706,note_on,0,0,8,,,,,,,,,12,,,,67,100
185706,control_change,45,0,8,,,,,,,,,12,11,79,,,
185710,control_change,45,0,9,,,,,,,,,13,11,79,,,
185710,note_on,0,0,9,,,,,,,,,13,,,,55,91
185711,note_on,0,0,3,,,,,,,,,3,,,,55,90
185711,control_change,20,0,3,,,,,,,,,3,11,79,,,
185712,note_on,0,0,10,,,,,,,,,14,,,,43,85
185712,control_change,45,0,10,,,,,,,,,14,11,79,,,
185714,control_change,14,0,6,,,,,,,,,10,11,75,,,
185716,control_change,14,0,7,,,,,,,,,11,11,75,,,
185717,control_change,14,0,1,,,,,,,,,0,11,75,,,
185719,control_change,14,0,2,,,,,,,,,1,11,75,,,
185720,control_change,14,0,8,,,,,,,,,12,11,75,,,
185724,control_change,14,0,9,,,,,,,,,13,11,75,,,
185725,control_change,14,0,3,,,,,,,,,3,11,75,,,
185726,control_change,14,0,10,,,,,,,,,14,11,75,,,
185728,control_change,14,0,6,,,,,,,,,10,11,71,,,
185730,control_change,14,0,7,,,,,,,,,11,11,71,,,
185731,control_change,14,0,1,,,,,,,,,0,11,71,,,
185733,control_change,14,0,2,,,,,,,,,1,11,71,,,
185734,control_change,14,0,8,,,,,,,,,12,11,71,,,
185735,note_on,7,0,6,,,,,,,,,10,,,,70,0
185735,note_on,0,0,6,,,,,,,,,10,,,,82,0
185736,control_change,1,0,6,,,,,,,,,10,11,68,,,
185737,note_on,7,0,7,,,,,,,,,11,,,,76,0
185738,control_change,14,0,9,,,,,,,,,13,11,71,,,
185738,control_change,1,0,7,,,,,,,,,11,11,68,,,
185739,control_change,14,0,3,,,,,,,,,3,11,71,,,
185739,control_change,8,0,1,,,,,,,,,0,11,68,,,
185740,control_change,14,0,10,,,,,,,,,14,11,71,,,
185741,control_change,8,0,2,,,,,,,,,1,11,68,,,
185741,note_on,7,0,8,,,,,,,,,12,,,,67,0
185742,control_change,1,0,8,,,,,,,,,12,11,68,,,
185743,note_on,4,0,1,,,,,,,,,0,,,,87,0
185744,note_on,40,0,4,,,,,,,,,4,,,,58,0
185745,note_on,7,0,9,,,,,,,,,13,,,,55,0
185745,note_on,4,0,2,,,,,,,,,1,,,,82,0
185745,note_on,0,0,2,,,,,,,,,1,,,,76,0
185746,note_on,40,0,5,,,,,,,,,5,,,,46,0
185746,control_change,1,0,9,,,,,,,,,13,11,68,,,
185747,control_change,8,0,3,,,,,,,,,3,11,68,,,
185747,note_on,7,0,10,,,,,,,,,14,,,,43,0
185748,control_change,1,0,10,,,,,,,,,14,11,68,,,
185750,control_change,14,0,6,,,,,,,,,10,11,64,,,
185751,note_on,4,0,3,,,,,,,,,3,,,,55,0
185752,control_change,14,0,7,,,,,,,,,11,11,64,,,
185753,control_change,10,0,1,,,,,,,,,0,11,64,,,
185755,control_change,10,0,2,,,,,,,,,1,11,64,,,
185756,control_change,14,0,8,,,,,,,,,12,11,64,,,
185760,control_change,14,0,9,,,,,,,,,13,11,64,,,
185760,note_on,10,0,6,,,,,,,,,10,,,,80,110
185760,set_tempo,60,1,0,,,,,,279720,,,,,,,,
185761,control_change,10,0,3,,,,,,,,,3,11,64,,,
185762,note_on,10,0,7,,,,,,,,,11,,,,77,110
185762,control_change,14,0,10,,,,,,,,,14,11,64,,,
185763,note_on,10,0,1,,,,,,,,,0,,,,89,97
185765,note_on,10,0,2,,,,,,,,,1,,,,77,97
185765,note_on,0,0,2,,,,,,,,,1,,,,80,97
185766,note_on,10,0,8,,,,,,,,,12,,,,68,108
185766,control_change,6,0,6,,,,,,,,,10,11,60,,,
185768,control_change,6,0,7,,,,,,,,,11,11,60,,,
185769,control_change,6,0,1,,,,,,,,,0,11,60,,,
185770,note_on,10,0,9,,,,,,,,,13,,,,56,99
185771,note_on,10,0,3,,,,,,,,,3,,,,56,97
185771,control_change,6,0,2,,,,,,,,,1,11,60,,,
185771,note_on,0,0,3,,,,,,,,,3,,,,61,97
185772,control_change,6,0,8,,,,,,,,,12,11,60,,,
185772,note_on,10,0,10,,,,,,,,,14,,,,44,93
185775,control_change,9,0,6,,,,,,,,,10,11,57,,,
185776,control_change,6,0,9,,,,,,,,,13,11,60,,,
185777,control_change,9,0,7,,,,,,,,,11,11,57,,,
185777,control_change,6,0,3,,,,,,,,,3,11,60,,,
185778,control_change,6,0,10,,,,,,,,,14,11,60,,,
185778,control_change,9,0,1,,,,,,,,,0,11,57,,,
185780,control_change,9,0,2,,,,,,,,,1,11,57,,,
185781,control_change,9,0,8,,,,,,,,,12,11,57,,,
185784,control_change,9,0,6,,,,,,,,,10,11,54,,,
185785,control_change,9,0,9,,,,,,,,,13,11,57,,,
185786,control_change,9,0,7,,,,,,,,,11,11,54,,,
185786,control_change,9,0,3,,,,,,,,,3,11,57,,,
185787,control_change,9,0,1,,,,,,,,,0,11,54,,,
185787,control_change,9,0,10,,,,,,,,,14,11,57,,,
185789,control_change,9,0,2,,,,,,,,,1,11,54,,,
185790,control_change,9,0,8,,,,,,,,,12,11,54,,,
185793,control_change,9,0,6,,,,,,,,,10,11,51,,,
185794,control_change,9,0,9,,,,,,,,,13,11,54,,,
185795,control_change,9,0,3,,,,,,,,,3,11,54,,,
185795,control_change,9,0,7,,,,,,,,,11,11,51,,,
185796,control_change,9,0,1,,,,,,,,,0,11,51,,,
185796,control_change,9,0,10,,,,,,,,,14,11,54,,,
185798,control_change,9,0,2,,,,,,,,,1,11,51,,,
185799,control_change,9,0,8,,,,,,,,,12,11,51,,,
185799,note_on,6,0,6,,,,,,,,,10,,,,80,0
185801,note_on,6,0,7,,,,,,,,,11,,,,77,0
185802,control_change,3,0,6,,,,,,,,,10,11,48,,,
185803,control_change,9,0,9,,,,,,,,,13,11,51,,,
185804,control_change,3,0,7,,,,,,,,,11,11,48,,,
185804,control_change,9,0,3,,,,,,,,,3,11,51,,,
185805,note_on,6,0,8,,,,,,,,,12,,,,68,0
185805,control_change,9,0,10,,,,,,,,,14,11,51,,,
185805,control_change,9,0,1,,,,,,,,,0,11,48,,,
185807,control_change,9,0,2,,,,,,,,,1,11,48,,,
185808,control_change,3,0,8,,,,,,,,,12,11,48,,,
185812,control_change,9,0,9,,,,,,,,,13,11,48,,,
185813,control_change,9,0,3,,,,,,,,,3,11,48,,,
185814,control_change,9,0,10,,,,,,,,,14,11,48,,,
185820,note_on,18,0,6,,,,,,,,,10,,,,80,101
185822,note_on,18,0,7,,,,,,,,,11,,,,77,101
185826,note_on,18,0,8,,,,,,,,,12,,,,68,99
185859,note_on,39,0,6,,,,,,,,,10,,,,80,0
185861,note_on,39,0,7,,,,,,,,,11,,,,77,0
185865,note_on,39,0,8,,,,,,,,,12,,,,68,0
185880,note_on,21,0,6,,,,,,,,,10,,,,80,110
185882,note_on,21,0,7,,,,,,,,,11,,,,77,110
185886,note_on,21,0,8,,,,,,,,,12,,,,68,108
185919,note_on,39,0,6,,,,,,,,,10,,,,80,0
185921,note_on,39,0,7,,,,,,,,,11,,,,77,0
185925,note_on,39,0,8,,,,,,,,,12,,,,68,0
185940,note_on,21,0,6,,,,,,,,,10,,,,80,101
185942,note_on,21,0,7,,,,,,,,,11,,,,77,101
185946,note_on,21,0,8,,,,,,,,,12,,,,68,99
185979,note_on,39,0,6,,,,,,,,,10,,,,80,0
185981,note_on,39,0,7,,,,,,,,,11,,,,77,0
185985,note_on,39,0,8,,,,,,,,,12,,,,68,0
186000,note_on,21,0,6,,,,,,,,,10,,,,78,110
186000,set_tempo,240,1,0,,,,,,268456,,,,,,,,
186002,note_on,21,0,7,,,,,,,,,11,,,,75,110
186003,note_on,198,0,1,,,,,,,,,0,,,,89,0
186003,note_on,0,0,1,,,,,,,,,0,,,,90,97
186005,note_on,0,0,2,,,,,,,,,1,,,,78,97
186005,note_on,0,0,2,,,,,,,,,1,,,,75,97
186005,note_on,0,0,2,,,,,,,,,1,,,,77,0
186005,note_on,198,0,2,,,,,,,,,1,,,,80,0
186006,note_on,21,0,8,,,,,,,,,12,,,,72,108
186010,note_on,198,0,9,,,,,,,,,13,,,,56,0
186010,note_on,0,0,9,,,,,,,,,13,,,,57,99
186011,note_on,198,0,3,,,,,,,,,3,,,,61,0
186011,note_on,0,0,3,,,,,,,,,3,,,,56,0
186011,note_on,0,0,3,,,,,,,,,3,,,,60,97
186011,note_on,0,0,3,,,,,,,,,3,,,,57,97
186012,note_on,198,0,10,,,,,,,,,14,,,,44,0
186012,note_on,0,0,10,,,,,,,,,14,,,,45,93
186039,note_on,39,0,6,,,,,,,,,10,,,,78,0
186041,note_on,39,0,7,,,,,,,,,11,,,,75,0
186045,note_on,39,0,8,,,,,,,,,12,,,,72,0
186060,note_on,21,0,6,,,,,,,,,10,,,,78,101
186062,note_on,21,0,7,,,,,,,,,11,,,,75,101
186066,note_on,21,0,8,,,,,,,,,12,,,,72,99
186099,note_on,39,0,6,,,,,,,,,10,,,,78,0
186101,note_on,39,0,7,,,,,,,,,11,,,,75,0
186105,note_on,39,0,8,,,,,,,,,12,,,,72,0
186120,note_on,21,0,6,,,,,,,,,10,,,,78,110
186122,note_on,21,0,7,,,,,,,,,11,,,,75,110
186126,note_on,21,0,8,,,,,,,,,12,,,,72,108
186159,note_on,39,0,6,,,,,,,,,10,,,,78,0
186161,note_on,39,0,7,,,,,,,,,11,,,,75,0
186165,note_on,39,0,8,,,,,,,,,12,,,,72,0
186180,note_on,21,0,6,,,,,,,,,10,,,,78,101
186182,note_on,21,0,7,,,,,,,,,11,,,,75,101
186186,note_on,21,0,8,,,,,,,,,12,,,,72,99
186219,note_on,39,0,6,,,,,,,,,10,,,,78,0
186221,note_on,39,0,7,,,,,,,,,11,,,,75,0
186225,note_on,39,0,8,,,,,,,,,12,,,,72,0
186240,note_on,21,0,6,,,,,,,,,10,,,,77,110
186240,set_tempo,240,1,0,,,,,,279720,,,,,,,,
186242,note_on,21,0,7,,,,,,,,,11,,,,73,110
186243,note_on,0,0,1,,,,,,,,,0,,,,89,97
186243,note_on,240,0,1,,,,,,,,,0,,,,90,0
186245,note_on,0,0,2,,,,,,,,,1,,,,77,97
186245,note_on,0,0,2,,,,,,,,,1,,,,73,97
186245,note_on,0,0,2,,,,,,,,,1,,,,75,0
186245,note_on,240,0,2,,,,,,,,,1,,,,78,0
186246,note_on,21,0,8,,,,,,,,,12,,,,73,108
186250,note_on,0,0,9,,,,,,,,,13,,,,58,99
186250,note_on,240,0,9,,,,,,,,,13,,,,57,0
186251,note_on,240,0,3,,,,,,,,,3,,,,57,0
186251,note_on,0,0,3,,,,,,,,,3,,,,60,0
186251,note_on,0,0,3,,,,,,,,,3,,,,58,97
186251,note_on,0,0,3,,,,,,,,,3,,,,61,97
186252,note_on,0,0,10,,,,,,,,,14,,,,46,93
186252,note_on,240,0,10,,,,,,,,,14,,,,45,0
186279,note_on,39,0,6,,,,,,,,,10,,,,77,0
186281,note_on,39,0,7,,,,,,,,,11,,,,73,0
186285,note_on,39,0,8,,,,,,,,,12,,,,73,0
186300,note_on,21,0,6,,,,,,,,,10,,,,77,101
186302,note_on,21,0,7,,,,,,,,,11,,,,73,101
186306,note_on,21,0,8,,,,,,,,,12,,,,73,99
186339,note_on,39,0,6,,,,,,,,,10,,,,77,0
186341,note_on,39,0,7,,,,,,,,,11,,,,73,0
186345,note_on,39,0,8,,,,,,,,,12,,,,73,0
186360,note_on,21,0,6,,,,,,,,,10,,,,77,110
186362,note_on,21,0,7,,,,,,,,,11,,,,73,110
186366,note_on,21,0,8,,,,,,,,,12,,,,73,108
186399,note_on,39,0,6,,,,,,,,,10,,,,77,0
186401,note_on,39,0,7,,,,,,,,,11,,,,73,0
186405,note_on,39,0,8,,,,,,,,,12,,,,73,0
186420,note_on,21,0,6,,,,,,,,,10,,,,77,101
186422,note_on,21,0,7,,,,,,,,,11,,,,73,101
186426,note_on,21,0,8,,,,,,,,,12,,,,73,99
186459,note_on,39,0,6,,,,,,,,,10,,,,77,0
186461,note_on,39,0,7,,,,,,,,,11,,,,73,0
186465,note_on,39,0,8,,,,,,,,,12,,,,73,0
186480,note_on,21,0,6,,,,,,,,,10,,,,75,110
186480,set_tempo,240,1,0,,,,,,268456,,,,,,,,
186482,note_on,21,0,7,,,,,,,,,11,,,,72,110
186483,note_on,240,0,1,,,,,,,,,0,,,,89,0
186483,note_on,0,0,1,,,,,,,,,0,,,,87,97
186485,note_on,240,0,2,,,,,,,,,1,,,,77,0
186485,note_on,0,0,2,,,,,,,,,1,,,,73,0
186485,note_on,0,0,2,,,,,,,,,1,,,,72,97
186485,note_on,0,0,2,,,,,,,,,1,,,,75,97
186486,note_on,21,0,8,,,,,,,,,12,,,,66,108
186490,note_on,0,0,9,,,,,,,,,13,,,,51,99
186490,note_on,240,0,9,,,,,,,,,13,,,,58,0
186491,note_on,0,0,3,,,,,,,,,3,,,,61,0
186491,note_on,240,0,3,,,,,,,,,3,,,,58,0
186491,note_on,0,0,3,,,,,,,,,3,,,,51,97
186492,note_on,0,0,10,,,,,,,,,14,,,,39,93
186492,note_on,240,0,10,,,,,,,,,14,,,,46,0
186519,note_on,39,0,6,,,,,,,,,10,,,,75,0
186521,note_on,39,0,7,,,,,,,,,11,,,,72,0
186525,note_on,39,0,8,,,,,,,,,12,,,,66,0
186540,note_on,21,0,6,,,,,,,,,10,,,,75,101
186542,note_on,21,0,7,,,,,,,,,11,,,,72,101
186546,note_on,21,0,8,,,,,,,,,12,,,,66,99
186579,note_on,39,0,6,,,,,,,,,10,,,,75,0
186581,note_on,39,0,7,,,,,,,,,11,,,,72,0
186585,note_on,39,0,8,,,,,,,,,12,,,,66,0
186600,note_on,21,0,6,,,,,,,,,10,,,,75,110
186602,note_on,21,0,7,,,,,,,,,11,,,,72,110
186606,note_on,21,0,8,,,,,,,,,12,,,,66,108
186639,note_on,39,0,6,,,,,,,,,10,,,,75,0
186641,note_on,39,0,7,,,,,,,,,11,,,,72,0
186645,note_on,39,0,8,,,,,,,,,12,,,,66,0
186660,note_on,21,0,6,,,,,,,,,10,,,,75,101
186662,note_on,21,0,7,,,,,,,,,11,,,,72,101
186666,note_on,21,0,8,,,,,,,,,12,,,,66,99
186699,note_on,39,0,6,,,,,,,,,10,,,,75,0
186701,note_on,39,0,7,,,,,,,,,11,,,,72,0
186705,note_on,39,0,8,,,,,,,,,12,,,,66,0
186718,note_on,235,0,1,,,,,,,,,0,,,,87,0
186720,note_on,0,0,2,,,,,,,,,1,,,,72,0
186720,set_tempo,240,1,0,,,,,,279720,,,,,,,,
186720,note_on,235,0,2,,,,,,,,,1,,,,75,0
186720,note_on,21,0,6,,,,,,,,,10,,,,74,110
186722,note_on,21,0,7,,,,,,,,,11,,,,70,110
186723,note_on,5,0,1,,,,,,,,,0,,,,86,110
186724,note_on,0,0,4,,,,,,,,,4,,,,65,109
186724,control_change,980,0,4,,,,,,,,,4,11,47,,,
186725,note_on,5,0,2,,,,,,,,,1,,,,74,110
186725,note_on,235,0,9,,,,,,,,,13,,,,51,0
186726,control_change,980,0,5,,,,,,,,,5,11,47,,,
186726,note_on,0,0,5,,,,,,,,,5,,,,53,109
186726,note_on,235,0,3,,,,,,,,,3,,,,51,0
186726,note_on,21,0,8,,,,,,,,,12,,,,65,108
186727,note_on,235,0,10,,,,,,,,,14,,,,39,0
186730,note_on,5,0,9,,,,,,,,,13,,,,53,99
186731,note_on,5,0,3,,,,,,,,,3,,,,53,97
186732,note_on,5,0,10,,,,,,,,,14,,,,41,93
186759,note_on,39,0,6,,,,,,,,,10,,,,74,0
186761,note_on,39,0,7,,,,,,,,,11,,,,70,0
186765,note_on,39,0,8,,,,,,,,,12,,,,65,0
186780,note_on,21,0,6,,,,,,,,,10,,,,74,101
186782,note_on,21,0,7,,,,,,,,,11,,,,70,101
186786,note_on,21,0,8,,,,,,,,,12,,,,65,99
186819,note_on,39,0,6,,,,,,,,,10,,,,74,0
186821,note_on,39,0,7,,,,,,,,,11,,,,70,0
186825,note_on,39,0,8,,,,,,,,,12,,,,65,0
186840,note_on,21,0,6,,,,,,,,,10,,,,74,110
186842,note_on,21,0,7,,,,,,,,,11,,,,70,110
186843,note_on,120,0,1,,,,,,,,,0,,,,86,0
186843,note_on,0,0,1,,,,,,,,,0,,,,89,97
186845,note_on,120,0,2,,,,,,,,,1,,,,74,0
186845,note_on,0,0,2,,,,,,,,,1,,,,77,97
186846,note_on,21,0,8,,,,,,,,,12,,,,65,108
186879,note_on,39,0,6,,,,,,,,,10,,,,74,0
186881,note_on,39,0,7,,,,,,,,,11,,,,70,0
186885,note_on,39,0,8,,,,,,,,,12,,,,65,0
186900,note_on,21,0,6,,,,,,,,,10,,,,74,101
186902,note_on,21,0,7,,,,,,,,,11,,,,70,101
186906,note_on,21,0,8,,,,,,,,,12,,,,65,99
186939,note_on,39,0,6,,,,,,,,,10,,,,74,0
186941,note_on,39,0,7,,,,,,,,,11,,,,70,0
186945,note_on,39,0,8,,,,,,,,,12,,,,65,0
186960,set_tempo,240,1,0,,,,,,268456,,,,,,,,
186960,note_on,21,0,6,,,,,,,,,10,,,,73,110
186962,note_on,21,0,7,,,,,,,,,11,,,,70,110
186963,note_on,120,0,1,,,,,,,,,0,,,,89,0
186963,note_on,0,0,1,,,,,,,,,0,,,,87,97
186965,note_on,0,0,2,,,,,,,,,1,,,,75,97
186965,note_on,120,0,2,,,,,,,,,1,,,,77,0
186966,note_on,21,0,8,,,,,,,,,12,,,,65,108
186999,note_on,39,0,6,,,,,,,,,10,,,,73,0
187001,note_on,39,0,7,,,,,,,,,11,,,,70,0
187005,note_on,39,0,8,,,,,,,,,12,,,,65,0
187020,note_on,21,0,6,,,,,,,,,10,,,,73,101
187022,note_on,21,0,7,,,,,,,,,11,,,,70,101
187023,note_on,0,0,1,,,,,,,,,0,,,,85,97
187023,note_on,60,0,1,,,,,,,,,0,,,,87,0
187025,note_on,0,0,2,,,,,,,,,1,,,,73,97
187025,note_on,60,0,2,,,,,,,,,1,,,,75,0
187026,note_on,21,0,8,,,,,,,,,12,,,,65,99
187059,note_on,39,0,6,,,,,,,,,10,,,,73,0
187061,note_on,39,0,7,,,,,,,,,11,,,,70,0
187065,note_on,39,0,8,,,,,,,,,12,,,,65,0
187080,note_on,21,0,6,,,,,,,,,10,,,,73,110
187082,note_on,21,0,7,,,,,,,,,11,,,,70,110
187083,note_on,60,0,1,,,,,,,,,0,,,,85,0
187083,note_on,0,0,1,,,,,,,,,0,,,,84,97
187085,note_on,0,0,2,,,,,,,,,1,,,,72,97
187085,note_on,60,0,2,,,,,,,,,1,,,,73,0
187086,note_on,21,0,8,,,,,,,,,12,,,,65,108
187119,note_on,39,0,6,,,,,,,,,10,,,,73,0
187121,note_on,39,0,7,,,,,,,,,11,,,,70,0
187125,note_on,39,0,8,,,,,,,,,12,,,,65,0
187140,note_on,21,0,6,,,,,,,,,10,,,,73,101
187142,note_on,21,0,7,,,,,,,,,11,,,,70,101
187143,note_on,0,0,1,,,,,,,,,0,,,,82,97
187143,note_on,60,0,1,,,,,,,,,0,,,,84,0
187145,note_on,0,0,2,,,,,,,,,1,,,,70,97
187145,note_on,60,0,2,,,,,,,,,1,,,,72,0
187146,note_on,21,0,8,,,,,,,,,12,,,,65,99
187179,note_on,39,0,6,,,,,,,,,10,,,,73,0
187181,note_on,39,0,7,,,,,,,,,11,,,,70,0
187185,note_on,39,0,8,,,,,,,,,12,,,,65,0
187198,note_on,55,0,1,,,,,,,,,0,,,,82,0
187200,note_on,21,0,6,,,,,,,,,10,,,,72,110
187200,set_tempo,240,1,0,,,,,,279720,,,,,,,,
187200,note_on,55,0,2,,,,,,,,,1,,,,70,0
187202,note_on,21,0,7,,,,,,,,,11,,,,70,110
187203,note_on,5,0,1,,,,,,,,,0,,,,87,110
187205,note_on,5,0,2,,,,,,,,,1,,,,75,110
187206,note_on,21,0,8,,,,,,,,,12,,,,65,108
187239,note_on,39,0,6,,,,,,,,,10,,,,72,0
187241,note_on,39,0,7,,,,,,,,,11,,,,70,0
187245,note_on,39,0,8,,,,,,,,,12,,,,65,0
187260,note_on,21,0,6,,,,,,,,,10,,,,72,101
187262,note_on,21,0,7,,,,,,,,,11,,,,70,101
187266,note_on,21,0,8,,,,,,,,,12,,,,65,99
187299,note_on,39,0,6,,,,,,,,,10,,,,72,0
187301,note_on,39,0,7,,,,,,,,,11,,,,70,0
187305,note_on,39,0,8,,,,,,,,,12,,,,65,0
187320,note_on,21,0,6,,,,,,,,,10,,,,72,110
187322,note_on,21,0,7,,,,,,,,,11,,,,70,110
187326,note_on,21,0,8,,,,,,,,,12,,,,65,108
187359,note_on,39,0,6,,,,,,,,,10,,,,72,0
187361,note_on,39,0,7,,,,,,,,,11,,,,70,0
187365,note_on,39,0,8,,,,,,,,,12,,,,65,0
187380,note_on,21,0,6,,,,,,,,,10,,,,72,101
187382,note_on,21,0,7,,,,,,,,,11,,,,70,101
187386,note_on,21,0,8,,,,,,,,,12,,,,65,99
187419,note_on,39,0,6,,,,,,,,,10,,,,72,0
187421,note_on,39,0,7,,,,,,,,,11,,,,70,0
187425,note_on,39,0,8,,,,,,,,,12,,,,65,0
187440,set_tempo,240,1,0,,,,,,268456,,,,,,,,
187440,note_on,21,0,6,,,,,,,,,10,,,,77,110
187442,note_on,21,0,7,,,,,,,,,11,,,,69,110
187443,note_on,0,0,1,,,,,,,,,0,,,,85,97
187443,note_on,240,0,1,,,,,,,,,0,,,,87,0
187445,note_on,240,0,2,,,,,,,,,1,,,,75,0
187445,note_on,0,0,2,,,,,,,,,1,,,,73,97
187446,note_on,21,0,8,,,,,,,,,12,,,,65,108
187479,note_on,39,0,6,,,,,,,,,10,,,,77,0
187481,note_on,39,0,7,,,,,,,,,11,,,,69,0
187485,note_on,39,0,8,,,,,,,,,12,,,,65,0
187500,note_on,21,0,6,,,,,,,,,10,,,,77,101
187502,note_on,21,0,7,,,,,,,,,11,,,,69,101
187503,note_on,60,0,1,,,,,,,,,0,,,,85,0
187503,note_on,0,0,1,,,,,,,,,0,,,,84,97
187505,note_on,60,0,2,,,,,,,,,1,,,,73,0
187505,note_on,0,0,2,,,,,,,,,1,,,,72,97
187506,note_on,21,0,8,,,,,,,,,12,,,,65,99
187539,note_on,39,0,6,,,,,,,,,10,,,,77,0
187541,note_on,39,0,7,,,,,,,,,11,,,,69,0
187545,note_on,39,0,8,,,,,,,,,12,,,,65,0
187560,note_on,21,0,6,,,,,,,,,10,,,,77,110
187562,note_on,21,0,7,,,,,,,,,11,,,,69,110
187563,note_on,60,0,1,,,,,,,,,0,,,,84,0
187563,note_on,0,0,1,,,,,,,,,0,,,,82,97
187565,note_on,0,0,2,,,,,,,,,1,,,,70,97
187565,note_on,60,0,2,,,,,,,,,1,,,,72,0
187566,note_on,21,0,8,,,,,,,,,12,,,,65,108
187599,note_on,39,0,6,,,,,,,,,10,,,,77,0
187601,note_on,39,0,7,,,,,,,,,11,,,,69,0
187605,note_on,39,0,8,,,,,,,,,12,,,,65,0
187620,note_on,21,0,6,,,,,,,,,10,,,,77,101
187622,note_on,21,0,7,,,,,,,,,11,,,,69,101
187623,note_on,0,0,1,,,,,,,,,0,,,,81,97
187623,note_on,60,0,1,,,,,,,,,0,,,,82,0
187625,note_on,60,0,2,,,,,,,,,1,,,,70,0
187625,note_on,0,0,2,,,,,,,,,1,,,,69,97
187626,note_on,21,0,8,,,,,,,,,12,,,,65,99
187659,note_on,39,0,6,,,,,,,,,10,,,,77,0
187661,note_on,39,0,7,,,,,,,,,11,,,,69,0
187665,note_on,39,0,8,,,,,,,,,12,,,,65,0
187678,note_on,55,0,1,,,,,,,,,0,,,,81,0
187679,note_on,955,0,4,,,,,,,,,4,,,,65,0
187680,note_on,55,0,2,,,,,,,,,1,,,,69,0
187680,set_tempo,240,1,0,,,,,,275862,,,,,,,,
187680,note_on,21,0,6,,,,,,,,,10,,,,77,125
187681,note_on,955,0,5,,,,,,,,,5,,,,53,0
187682,note_on,21,0,7,,,,,,,,,11,,,,65,125
187683,note_on,5,0,1,,,,,,,,,0,,,,89,110
187684,note_on,5,0,4,,,,,,,,,4,,,,53,109
187685,note_on,0,0,2,,,,,,,,,1,,,,74,110
187685,note_on,5,0,2,,,,,,,,,1,,,,70,110
187685,note_on,955,0,9,,,,,,,,,13,,,,53,0
187686,note_on,21,0,8,,,,,,,,,12,,,,62,108
187686,note_on,5,0,5,,,,,,,,,5,,,,41,93
187686,note_on,955,0,3,,,,,,,,,3,,,,53,0
187687,note_on,955,0,10,,,,,,,,,14,,,,41,0
187690,note_on,5,0,9,,,,,,,,,13,,,,41,114
187691,note_on,5,0,3,,,,,,,,,3,,,,41,110
187691,note_on,0,0,3,,,,,,,,,3,,,,53,110
187692,note_on,5,0,10,,,,,,,,,14,,,,29,108
187725,note_on,39,0,8,,,,,,,,,12,,,,62,0
187746,note_on,21,0,8,,,,,,,,,12,,,,62,99
187785,note_on,39,0,8,,,,,,,,,12,,,,62,0
187806,note_on,21,0,8,,,,,,,,,12,,,,62,108
187845,note_on,39,0,8,,,,,,,,,12,,,,62,0
187866,note_on,21,0,8,,,,,,,,,12,,,,62,99
187905,note_on,39,0,8,,,,,,,,,12,,,,62,0
187920,note_on,240,0,6,,,,,,,,,10,,,,77,0
187920,set_tempo,240,1,0,,,,,,266667,,,,,,,,
187920,note_on,0,0,6,,,,,,,,,10,,,,75,110
187922,note_on,240,0,7,,,,,,,,,11,,,,65,0
187922,note_on,0,0,7,,,,,,,,,11,,,,63,110
187925,note_on,0,0,2,,,,,,,,,1,,,,73,110
187925,note_on,240,0,2,,,,,,,,,1,,,,74,0
187926,note_on,21,0,8,,,,,,,,,12,,,,61,108
187965,note_on,39,0,8,,,,,,,,,12,,,,61,0
187980,note_on,0,0,6,,,,,,,,,10,,,,73,110
187980,note_on,60,0,6,,,,,,,,,10,,,,75,0
187982,note_on,60,0,7,,,,,,,,,11,,,,63,0
187982,note_on,0,0,7,,,,,,,,,11,,,,61,110
187986,note_on,21,0,8,,,,,,,,,12,,,,61,99
188025,note_on,39,0,8,,,,,,,,,12,,,,61,0
188040,note_on,0,0,6,,,,,,,,,10,,,,72,110
188040,note_on,60,0,6,,,,,,,,,10,,,,73,0
188042,note_on,0,0,7,,,,,,,,,11,,,,60,110
188042,note_on,60,0,7,,,,,,,,,11,,,,61,0
188046,note_on,21,0,8,,,,,,,,,12,,,,61,108
188085,note_on,39,0,8,,,,,,,,,12,,,,61,0
188100,note_on,0,0,6,,,,,,,,,10,,,,70,110
188100,note_on,60,0,6,,,,,,,,,10,,,,72,0
188102,note_on,60,0,7,,,,,,,,,11,,,,60,0
188102,note_on,0,0,7,,,,,,,,,11,,,,58,110
188106,note_on,21,0,8,,,,,,,,,12,,,,61,99
188139,note_on,39,0,6,,,,,,,,,10,,,,70,0
188141,note_on,39,0,7,,,,,,,,,11,,,,58,0
188145,note_on,39,0,8,,,,,,,,,12,,,,61,0
188160,note_on,21,0,6,,,,,,,,,10,,,,75,125
188160,set_tempo,240,1,0,,,,,,275862,,,,,,,,
188162,note_on,21,0,7,,,,,,,,,11,,,,63,125
188165,note_on,240,0,2,,,,,,,,,1,,,,73,0
188165,note_on,0,0,2,,,,,,,,,1,,,,72,110
188166,note_on,21,0,8,,,,,,,,,12,,,,60,108
188205,note_on,39,0,8,,,,,,,,,12,,,,60,0
188226,note_on,21,0,8,,,,,,,,,12,,,,60,99
188265,note_on,39,0,8,,,,,,,,,12,,,,60,0
188286,note_on,21,0,8,,,,,,,,,12,,,,60,108
188325,note_on,39,0,8,,,,,,,,,12,,,,60,0
188346,note_on,21,0,8,,,,,,,,,12,,,,60,99
188385,note_on,39,0,8,,,,,,,,,12,,,,60,0
188400,note_on,240,0,6,,,,,,,,,10,,,,75,0
188400,note_on,0,0,6,,,,,,,,,10,,,,73,110
188400,set_tempo,240,1,0,,,,,,266667,,,,,,,,
188402,note_on,240,0,7,,,,,,,,,11,,,,63,0
188402,note_on,0,0,7,,,,,,,,,11,,,,61,110
188405,note_on,240,0,2,,,,,,,,,1,,,,72,0
188405,note_on,0,0,2,,,,,,,,,1,,,,77,110
188405,note_on,0,0,2,,,,,,,,,1,,,,69,110
188405,note_on,0,0,2,,,,,,,,,1,,,,70,0
188406,note_on,21,0,8,,,,,,,,,12,,,,63,108
188445,note_on,39,0,8,,,,,,,,,12,,,,63,0
188460,note_on,0,0,6,,,,,,,,,10,,,,72,110
188460,note_on,60,0,6,,,,,,,,,10,,,,73,0
188462,note_on,0,0,7,,,,,,,,,11,,,,60,110
188462,note_on,60,0,7,,,,,,,,,11,,,,61,0
188466,note_on,21,0,8,,,,,,,,,12,,,,63,99
188505,note_on,39,0,8,,,,,,,,,12,,,,63,0
188520,note_on,0,0,6,,,,,,,,,10,,,,70,110
188520,note_on,60,0,6,,,,,,,,,10,,,,72,0
188522,note_on,0,0,7,,,,,,,,,11,,,,58,110
188522,note_on,60,0,7,,,,,,,,,11,,,,60,0
188526,note_on,21,0,8,,,,,,,,,12,,,,63,108
188565,note_on,39,0,8,,,,,,,,,12,,,,63,0
188580,note_on,0,0,6,,,,,,,,,10,,,,69,110
188580,note_on,60,0,6,,,,,,,,,10,,,,70,0
188580,set_tempo,180,1,0,,,,,,301508,,,,,,,,
188582,note_on,0,0,7,,,,,,,,,11,,,,57,110
188582,note_on,60,0,7,,,,,,,,,11,,,,58,0
188586,note_on,21,0,8,,,,,,,,,12,,,,63,99
188619,note_on,39,0,6,,,,,,,,,10,,,,69,0
188621,note_on,39,0,7,,,,,,,,,11,,,,57,0
188625,note_on,39,0,8,,,,,,,,,12,,,,63,0
188638,note_on,955,0,1,,,,,,,,,0,,,,89,0
188639,note_on,955,0,4,,,,,,,,,4,,,,53,0
188640,note_on,235,0,2,,,,,,,,,1,,,,77,0
188640,set_tempo,60,1,0,,,,,,273973,,,,,,,,
188640,note_on,21,0,6,,,,,,,,,10,,,,70,110
188640,note_on,0,0,2,,,,,,,,,1,,,,69,0
188641,note_on,955,0,5,,,,,,,,,5,,,,41,0
188642,note_on,21,0,7,,,,,,,,,11,,,,58,110
188643,note_on,5,0,1,,,,,,,,,0,,,,82,83
188644,note_on,5,0,4,,,,,,,,,4,,,,58,82
188645,note_on,955,0,9,,,,,,,,,13,,,,41,0
188645,note_on,5,0,2,,,,,,,,,1,,,,70,83
188646,note_on,5,0,5,,,,,,,,,5,,,,46,82
188646,note_on,0,0,3,,,,,,,,,3,,,,41,0
188646,note_on,21,0,8,,,,,,,,,12,,,,62,108
188646,note_on,955,0,3,,,,,,,,,3,,,,53,0
188647,note_on,955,0,10,,,,,,,,,14,,,,29,0
188650,note_on,5,0,9,,,,,,,,,13,,,,46,99
188651,note_on,5,0,3,,,,,,,,,3,,,,46,83
188651,note_on,0,0,3,,,,,,,,,3,,,,58,83
188652,note_on,5,0,10,,,,,,,,,14,,,,34,93
188755,note_on,115,0,6,,,,,,,,,10,,,,70,0
188757,note_on,115,0,7,,,,,,,,,11,,,,58,0
188758,note_on,115,0,1,,,,,,,,,0,,,,82,0
188760,note_on,0,0,6,,,,,,,,,10,,,,62,110
188760,note_on,115,0,2,,,,,,,,,1,,,,70,0
188760,control_change,5,0,6,,,,,,,,,10,11,65,,,
188761,note_on,115,0,8,,,,,,,,,12,,,,62,0
188762,control_change,5,0,7,,,,,,,,,11,11,65,,,
188762,note_on,0,0,7,,,,,,,,,11,,,,62,110
188763,note_on,0,0,1,,,,,,,,,0,,,,62,97
188763,control_change,5,0,1,,,,,,,,,0,11,65,,,
188764,note_on,120,0,4,,,,,,,,,4,,,,58,0
188765,note_on,115,0,9,,,,,,,,,13,,,,46,0
188765,control_change,5,0,2,,,,,,,,,1,11,65,,,
188765,note_on,0,0,2,,,,,,,,,1,,,,62,97
188766,note_on,0,0,8,,,,,,,,,12,,,,50,108
188766,control_change,5,0,8,,,,,,,,,12,11,65,,,
188766,note_on,0,0,3,,,,,,,,,3,,,,46,0
188766,note_on,115,0,3,,,,,,,,,3,,,,58,0
188766,note_on,120,0,5,,,,,,,,,5,,,,46,0
188767,note_on,115,0,10,,,,,,,,,14,,,,34,0
188770,control_change,5,0,9,,,,,,,,,13,11,65,,,
188770,note_on,0,0,9,,,,,,,,,13,,,,38,99
188771,control_change,5,0,3,,,,,,,,,3,11,65,,,
188771,note_on,0,0,3,,,,,,,,,3,,,,50,97
188772,control_change,5,0,10,,,,,,,,,14,11,65,,,
188772,note_on,0,0,10,,,,,,,,,14,,,,26,93
188778,control_change,18,0,6,,,,,,,,,10,11,69,,,
188780,control_change,18,0,7,,,,,,,,,11,11,69,,,
188781,control_change,18,0,1,,,,,,,,,0,11,69,,,
188783,control_change,18,0,2,,,,,,,,,1,11,69,,,
188784,control_change,18,0,8,,,,,,,,,12,11,69,,,
188788,control_change,18,0,9,,,,,,,,,13,11,69,,,
188789,control_change,18,0,3,,,,,,,,,3,11,69,,,
188790,control_change,18,0,10,,,,,,,,,14,11,69,,,
188796,control_change,18,0,6,,,,,,,,,10,11,73,,,
188798,control_change,18,0,7,,,,,,,,,11,11,73,,,
188799,note_on,3,0,6,,,,,,,,,10,,,,62,0
188799,control_change,18,0,1,,,,,,,,,0,11,73,,,
188801,note_on,3,0,7,,,,,,,,,11,,,,62,0
188801,control_change,18,0,2,,,,,,,,,1,11,73,,,
188802,control_change,18,0,8,,,,,,,,,12,11,73,,,
188805,note_on,3,0,8,,,,,,,,,12,,,,50,0
188806,control_change,18,0,9,,,,,,,,,13,11,73,,,
188807,control_change,18,0,3,,,,,,,,,3,11,73,,,
188808,control_change,18,0,10,,,,,,,,,14,11,73,,,
188809,note_on,3,0,9,,,,,,,,,13,,,,38,0
188811,note_on,3,0,10,,,,,,,,,14,,,,26,0
188813,note_on,14,0,1,,,,,,,,,0,,,,62,0
188814,control_change,15,0,6,,,,,,,,,10,11,77,,,
188815,note_on,14,0,2,,,,,,,,,1,,,,62,0
188816,control_change,15,0,7,,,,,,,,,11,11,77,,,
188817,control_change,4,0,1,,,,,,,,,0,11,77,,,
188819,control_change,4,0,2,,,,,,,,,1,11,77,,,
188820,note_on,6,0,6,,,,,,,,,10,,,,63,111
188820,control_change,15,0,8,,,,,,,,,12,11,77,,,
188821,note_on,14,0,3,,,,,,,,,3,,,,50,0
188822,note_on,6,0,7,,,,,,,,,11,,,,63,111
188823,note_on,6,0,1,,,,,,,,,0,,,,63,97
188824,control_change,15,0,9,,,,,,,,,13,11,77,,,
188825,note_on,6,0,2,,,,,,,,,1,,,,63,97
188825,control_change,4,0,3,,,,,,,,,3,11,77,,,
188826,control_change,15,0,10,,,,,,,,,14,11,77,,,
188826,note_on,6,0,8,,,,,,,,,12,,,,51,109
188830,note_on,6,0,9,,,,,,,,,13,,,,39,100
188831,note_on,6,0,3,,,,,,,,,3,,,,51,97
188832,note_on,6,0,10,,,,,,,,,14,,,,27,94
188859,note_on,39,0,6,,,,,,,,,10,,,,63,0
188861,note_on,39,0,7,,,,,,,,,11,,,,63,0
188865,note_on,39,0,8,,,,,,,,,12,,,,51,0
188869,note_on,39,0,9,,,,,,,,,13,,,,39,0
188871,note_on,39,0,10,,,,,,,,,14,,,,27,0
188873,note_on,50,0,1,,,,,,,,,0,,,,63,0
188875,note_on,50,0,2,,,,,,,,,1,,,,63,0
188880,set_tempo,240,1,0,,,,,,265487,,,,,,,,
188880,note_on,21,0,6,,,,,,,,,10,,,,64,112
188881,note_on,50,0,3,,,,,,,,,3,,,,51,0
188882,note_on,21,0,7,,,,,,,,,11,,,,64,112
188883,note_on,10,0,1,,,,,,,,,0,,,,64,98
188885,note_on,10,0,2,,,,,,,,,1,,,,64,98
188886,note_on,21,0,8,,,,,,,,,12,,,,52,110
188890,note_on,21,0,9,,,,,,,,,13,,,,40,101
188891,note_on,10,0,3,,,,,,,,,3,,,,52,98
188892,note_on,21,0,10,,,,,,,,,14,,,,28,95
188919,note_on,39,0,6,,,,,,,,,10,,,,64,0
188921,note_on,39,0,7,,,,,,,,,11,,,,64,0
188925,note_on,39,0,8,,,,,,,,,12,,,,52,0
188929,note_on,39,0,9,,,,,,,,,13,,,,40,0
188931,note_on,39,0,10,,,,,,,,,14,,,,28,0
188933,note_on,50,0,1,,,,,,,,,0,,,,64,0
188935,note_on,50,0,2,,,,,,,,,1,,,,64,0
188940,note_on,21,0,6,,,,,,,,,10,,,,65,113
188941,note_on,50,0,3,,,,,,,,,3,,,,52,0
188942,note_on,21,0,7,,,,,,,,,11,,,,65,113
188943,note_on,10,0,1,,,,,,,,,0,,,,65,99
188945,note_on,10,0,2,,,,,,,,,1,,,,65,99
188946,note_on,21,0,8,,,,,,,,,12,,,,53,111
188950,note_on,21,0,9,,,,,,,,,13,,,,41,102
188951,note_on,10,0,3,,,,,,,,,3,,,,53,99
188952,note_on,21,0,10,,,,,,,,,14,,,,29,96
188979,note_on,39,0,6,,,,,,,,,10,,,,65,0
188981,note_on,39,0,7,,,,,,,,,11,,,,65,0
188985,note_on,39,0,8,,,,,,,,,12,,,,53,0
188989,note_on,39,0,9,,,,,,,,,13,,,,41,0
188991,note_on,39,0,10,,,,,,,,,14,,,,29,0
188993,note_on,50,0,1,,,,,,,,,0,,,,65,0
188995,note_on,50,0,2,,,,,,,,,1,,,,65,0
189000,note_on,21,0,6,,,,,,,,,10,,,,67,114
189001,note_on,50,0,3,,,,,,,,,3,,,,53,0
189002,note_on,21,0,7,,,,,,,,,11,,,,67,114
189003,note_on,10,0,1,,,,,,,,,0,,,,67,100
189005,note_on,10,0,2,,,,,,,,,1,,,,67,100
189006,note_on,21,0,8,,,,,,,,,12,,,,55,112
189010,note_on,21,0,9,,,,,,,,,13,,,,43,103
189011,note_on,10,0,3,,,,,,,,,3,,,,55,100
189012,note_on,21,0,10,,,,,,,,,14,,,,31,97
189039,note_on,39,0,6,,,,,,,,,10,,,,67,0
189041,note_on,39,0,7,,,,,,,,,11,,,,67,0
189045,note_on,39,0,8,,,,,,,,,12,,,,55,0
189049,note_on,39,0,9,,,,,,,,,13,,,,43,0
189051,note_on,39,0,10,,,,,,,,,14,,,,31,0
189053,note_on,50,0,1,,,,,,,,,0,,,,67,0
189055,note_on,50,0,2,,,,,,,,,1,,,,67,0
189060,note_on,21,0,6,,,,,,,,,10,,,,69,115
189061,note_on,50,0,3,,,,,,,,,3,,,,55,0
189062,note_on,21,0,7,,,,,,,,,11,,,,69,115
189063,note_on,10,0,1,,,,,,,,,0,,,,69,101
189065,note_on,10,0,2,,,,,,,,,1,,,,69,101
189066,note_on,21,0,8,,,,,,,,,12,,,,57,113
189070,note_on,21,0,9,,,,,,,,,13,,,,45,104
189071,note_on,10,0,3,,,,,,,,,3,,,,57,101
189072,note_on,21,0,10,,,,,,,,,14,,,,33,98
189099,note_on,39,0,6,,,,,,,,,10,,,,69,0
189101,note_on,39,0,7,,,,,,,,,11,,,,69,0
189105,note_on,39,0,8,,,,,,,,,12,,,,57,0
189109,note_on,39,0,9,,,,,,,,,13,,,,45,0
189111,note_on,39,0,10,,,,,,,,,14,,,,33,0
189113,note_on,50,0,1,,,,,,,,,0,,,,69,0
189115,note_on,50,0,2,,,,,,,,,1,,,,69,0
189120,set_tempo,240,1,0,,,,,,272109,,,,,,,,
189120,note_on,21,0,6,,,,,,,,,10,,,,70,116
189121,note_on,50,0,3,,,,,,,,,3,,,,57,0
189122,note_on,21,0,7,,,,,,,,,11,,,,70,116
189123,note_on,10,0,1,,,,,,,,,0,,,,70,102
189125,note_on,10,0,2,,,,,,,,,1,,,,70,102
189126,note_on,21,0,8,,,,,,,,,12,,,,58,114
189130,note_on,21,0,9,,,,,,,,,13,,,,46,105
189131,note_on,10,0,3,,,,,,,,,3,,,,58,102
189132,note_on,21,0,10,,,,,,,,,14,,,,34,99
189159,note_on,39,0,6,,,,,,,,,10,,,,70,0
189161,note_on,39,0,7,,,,,,,,,11,,,,70,0
189165,note_on,39,0,8,,,,,,,,,12,,,,58,0
189169,note_on,39,0,9,,,,,,,,,13,,,,46,0
189171,note_on,39,0,10,,,,,,,,,14,,,,34,0
189173,note_on,50,0,1,,,,,,,,,0,,,,70,0
189175,note_on,50,0,2,,,,,,,,,1,,,,70,0
189180,note_on,21,0,6,,,,,,,,,10,,,,72,117
189181,note_on,50,0,3,,,,,,,,,3,,,,58,0
189182,note_on,21,0,7,,,,,,,,,11,,,,72,117
189183,note_on,10,0,1,,,,,,,,,0,,,,72,103
189185,note_on,10,0,2,,,,,,,,,1,,,,72,103
189186,note_on,21,0,8,,,,,,,,,12,,,,60,115
189190,note_on,21,0,9,,,,,,,,,13,,,,48,106
189191,note_on,10,0,3,,,,,,,,,3,,,,60,103
189192,note_on,21,0,10,,,,,,,,,14,,,,36,100
189219,note_on,39,0,6,,,,,,,,,10,,,,72,0
189221,note_on,39,0,7,,,,,,,,,11,,,,72,0
189225,note_on,39,0,8,,,,,,,,,12,,,,60,0
189229,note_on,39,0,9,,,,,,,,,13,,,,48,0
189231,note_on,39,0,10,,,,,,,,,14,,,,36,0
189233,note_on,50,0,1,,,,,,,,,0,,,,72,0
189235,note_on,50,0,2,,,,,,,,,1,,,,72,0
189240,note_on,21,0,6,,,,,,,,,10,,,,74,118
189241,note_on,50,0,3,,,,,,,,,3,,,,60,0
189242,note_on,21,0,7,,,,,,,,,11,,,,74,118
189243,note_on,10,0,1,,,,,,,,,0,,,,74,103
189245,note_on,10,0,2,,,,,,,,,1,,,,74,103
189246,note_on,21,0,8,,,,,,,,,12,,,,62,116
189250,note_on,21,0,9,,,,,,,,,13,,,,50,107
189251,note_on,10,0,3,,,,,,,,,3,,,,62,103
189252,note_on,21,0,10,,,,,,,,,14,,,,38,101
189279,note_on,39,0,6,,,,,,,,,10,,,,74,0
189281,note_on,39,0,7,,,,,,,,,11,,,,74,0
189285,note_on,39,0,8,,,,,,,,,12,,,,62,0
189289,note_on,39,0,9,,,,,,,,,13,,,,50,0
189291,note_on,39,0,10,,,,,,,,,14,,,,38,0
189293,note_on,50,0,1,,,,,,,,,0,,,,74,0
189295,note_on,50,0,2,,,,,,,,,1,,,,74,0
189300,note_on,21,0,6,,,,,,,,,10,,,,75,119
189301,note_on,50,0,3,,,,,,,,,3,,,,62,0
189302,note_on,21,0,7,,,,,,,,,11,,,,75,119
189303,note_on,10,0,1,,,,,,,,,0,,,,75,104
189305,note_on,10,0,2,,,,,,,,,1,,,,75,104
189306,note_on,21,0,8,,,,,,,,,12,,,,63,117
189310,note_on,21,0,9,,,,,,,,,13,,,,51,108
189311,note_on,10,0,3,,,,,,,,,3,,,,63,104
189312,note_on,21,0,10,,,,,,,,,14,,,,39,102
189339,note_on,39,0,6,,,,,,,,,10,,,,75,0
189341,note_on,39,0,7,,,,,,,,,11,,,,75,0
189345,note_on,39,0,8,,,,,,,,,12,,,,63,0
189349,note_on,39,0,9,,,,,,,,,13,,,,51,0
189351,note_on,39,0,10,,,,,,,,,14,,,,39,0
189353,note_on,50,0,1,,,,,,,,,0,,,,75,0
189355,note_on,50,0,2,,,,,,,,,1,,,,75,0
189360,set_tempo,240,1,0,,,,,,262582,,,,,,,,
189360,note_on,21,0,6,,,,,,,,,10,,,,77,120
189361,note_on,50,0,3,,,,,,,,,3,,,,63,0
189362,note_on,21,0,7,,,,,,,,,11,,,,77,120
189363,note_on,10,0,1,,,,,,,,,0,,,,77,105
189365,note_on,10,0,2,,,,,,,,,1,,,,77,105
189366,note_on,21,0,8,,,,,,,,,12,,,,65,118
189370,note_on,21,0,9,,,,,,,,,13,,,,53,109
189371,note_on,10,0,3,,,,,,,,,3,,,,65,105
189372,note_on,21,0,10,,,,,,,,,14,,,,41,103
189399,note_on,39,0,6,,,,,,,,,10,,,,77,0
189401,note_on,39,0,7,,,,,,,,,11,,,,77,0
189405,note_on,39,0,8,,,,,,,,,12,,,,65,0
189409,note_on,39,0,9,,,,,,,,,13,,,,53,0
189411,note_on,39,0,10,,,,,,,,,14,,,,41,0
189413,note_on,50,0,1,,,,,,,,,0,,,,77,0
189415,note_on,50,0,2,,,,,,,,,1,,,,77,0
189420,note_on,21,0,6,,,,,,,,,10,,,,79,121
189421,note_on,50,0,3,,,,,,,,,3,,,,65,0
189422,note_on,21,0,7,,,,,,,,,11,,,,79,121
189423,note_on,10,0,1,,,,,,,,,0,,,,79,106
189425,note_on,10,0,2,,,,,,,,,1,,,,79,106
189426,note_on,21,0,8,,,,,,,,,12,,,,67,119
189430,note_on,21,0,9,,,,,,,,,13,,,,55,110
189431,note_on,10,0,3,,,,,,,,,3,,,,67,106
189432,note_on,21,0,10,,,,,,,,,14,,,,43,104
189459,note_on,39,0,6,,,,,,,,,10,,,,79,0
189461,note_on,39,0,7,,,,,,,,,11,,,,79,0
189465,note_on,39,0,8,,,,,,,,,12,,,,67,0
189469,note_on,39,0,9,,,,,,,,,13,,,,55,0
189471,note_on,39,0,10,,,,,,,,,14,,,,43,0
189473,note_on,50,0,1,,,,,,,,,0,,,,79,0
189475,note_on,50,0,2,,,,,,,,,1,,,,79,0
189480,note_on,21,0,6,,,,,,,,,10,,,,81,122
189481,note_on,50,0,3,,,,,,,,,3,,,,67,0
189482,note_on,21,0,7,,,,,,,,,11,,,,81,122
189483,note_on,10,0,1,,,,,,,,,0,,,,81,107
189485,note_on,10,0,2,,,,,,,,,1,,,,81,107
189486,note_on,21,0,8,,,,,,,,,12,,,,69,120
189490,note_on,21,0,9,,,,,,,,,13,,,,57,111
189491,note_on,10,0,3,,,,,,,,,3,,,,69,107
189492,note_on,21,0,10,,,,,,,,,14,,,,45,105
189519,note_on,39,0,6,,,,,,,,,10,,,,81,0
189521,note_on,39,0,7,,,,,,,,,11,,,,81,0
189525,note_on,39,0,8,,,,,,,,,12,,,,69,0
189529,note_on,39,0,9,,,,,,,,,13,,,,57,0
189531,note_on,39,0,10,,,,,,,,,14,,,,45,0
189533,note_on,50,0,1,,,,,,,,,0,,,,81,0
189535,note_on,50,0,2,,,,,,,,,1,,,,81,0
189540,note_on,21,0,6,,,,,,,,,10,,,,82,123
189541,note_on,50,0,3,,,,,,,,,3,,,,69,0
189542,note_on,21,0,7,,,,,,,,,11,,,,82,123
189543,note_on,10,0,1,,,,,,,,,0,,,,82,108
189545,note_on,10,0,2,,,,,,,,,1,,,,82,108
189546,note_on,21,0,8,,,,,,,,,12,,,,70,121
189550,note_on,21,0,9,,,,,,,,,13,,,,58,112
189551,note_on,10,0,3,,,,,,,,,3,,,,70,108
189552,note_on,21,0,10,,,,,,,,,14,,,,46,106
189579,note_on,39,0,6,,,,,,,,,10,,,,82,0
189581,note_on,39,0,7,,,,,,,,,11,,,,82,0
189585,note_on,39,0,8,,,,,,,,,12,,,,70,0
189589,note_on,39,0,9,,,,,,,,,13,,,,58,0
189591,note_on,39,0,10,,,,,,,,,14,,,,46,0
189593,note_on,50,0,1,,,,,,,,,0,,,,82,0
189595,note_on,50,0,2,,,,,,,,,1,,,,82,0
189600,set_tempo,240,1,0,,,,,,267261,,,,,,,,
189600,note_on,0,0,6,,,,,,,,,10,,,,83,125
189600,note_on,21,0,6,,,,,,,,,10,,,,74,125
189601,note_on,50,0,3,,,,,,,,,3,,,,70,0
189602,note_on,21,0,7,,,,,,,,,11,,,,77,125
189603,note_on,10,0,1,,,,,,,,,0,,,,83,97
189604,control_change,840,0,4,,,,,,,,,4,11,79,,,
189604,note_on,0,0,4,,,,,,,,,4,,,,62,100
189605,note_on,0,0,2,,,,,,,,,1,,,,74,97
189605,note_on,10,0,2,,,,,,,,,1,,,,77,110
189606,note_on,21,0,8,,,,,,,,,12,,,,68,123
189606,note_on,0,0,5,,,,,,,,,5,,,,62,100
189606,control_change,840,0,5,,,,,,,,,5,11,79,,,
189610,note_on,21,0,9,,,,,,,,,13,,,,56,114
189611,note_on,10,0,3,,,,,,,,,3,,,,57,110
189612,note_on,21,0,10,,,,,,,,,14,,,,44,108
189639,note_on,39,0,6,,,,,,,,,10,,,,83,0
189639,note_on,0,0,6,,,,,,,,,10,,,,74,0
189641,note_on,39,0,7,,,,,,,,,11,,,,77,0
189645,note_on,39,0,8,,,,,,,,,12,,,,68,0
189649,note_on,39,0,9,,,,,,,,,13,,,,56,0
189651,note_on,39,0,10,,,,,,,,,14,,,,44,0
189660,note_on,21,0,6,,,,,,,,,10,,,,74,99
189660,note_on,0,0,6,,,,,,,,,10,,,,83,99
189662,note_on,21,0,7,,,,,,,,,11,,,,77,99
189666,note_on,21,0,8,,,,,,,,,12,,,,68,97
189670,note_on,21,0,9,,,,,,,,,13,,,,56,88
189672,note_on,21,0,10,,,,,,,,,14,,,,44,82
189699,note_on,39,0,6,,,,,,,,,10,,,,83,0
189699,note_on,0,0,6,,,,,,,,,10,,,,74,0
189701,note_on,39,0,7,,,,,,,,,11,,,,77,0
189705,note_on,39,0,8,,,,,,,,,12,,,,68,0
189709,note_on,39,0,9,,,,,,,,,13,,,,56,0
189711,note_on,39,0,10,,,,,,,,,14,,,,44,0
189720,note_on,21,0,6,,,,,,,,,10,,,,83,110
189720,note_on,0,0,6,,,,,,,,,10,,,,74,110
189722,note_on,21,0,7,,,,,,,,,11,,,,77,110
189726,note_on,21,0,8,,,,,,,,,12,,,,68,108
189730,note_on,21,0,9,,,,,,,,,13,,,,56,99
189732,note_on,21,0,10,,,,,,,,,14,,,,44,93
189759,note_on,39,0,6,,,,,,,,,10,,,,74,0
189759,note_on,0,0,6,,,,,,,,,10,,,,83,0
189761,note_on,39,0,7,,,,,,,,,11,,,,77,0
189765,note_on,39,0,8,,,,,,,,,12,,,,68,0
189769,note_on,39,0,9,,,,,,,,,13,,,,56,0
189771,note_on,39,0,10,,,,,,,,,14,,,,44,0
189780,note_on,21,0,6,,,,,,,,,10,,,,74,92
189780,note_on,0,0,6,,,,,,,,,10,,,,83,92
189782,note_on,21,0,7,,,,,,,,,11,,,,77,92
189786,note_on,21,0,8,,,,,,,,,12,,,,68,90
189790,note_on,21,0,9,,,,,,,,,13,,,,56,81
189792,note_on,21,0,10,,,,,,,,,14,,,,44,75
189819,note_on,39,0,6,,,,,,,,,10,,,,83,0
189819,note_on,0,0,6,,,,,,,,,10,,,,74,0
189821,note_on,39,0,7,,,,,,,,,11,,,,77,0
189825,note_on,39,0,8,,,,,,,,,12,,,,68,0
189829,note_on,39,0,9,,,,,,,,,13,,,,56,0
189831,note_on,39,0,10,,,,,,,,,14,,,,44,0
189840,note_on,21,0,6,,,,,,,,,10,,,,74,110
189840,set_tempo,240,1,0,,,,,,258621,,,,,,,,
189840,note_on,0,0,6,,,,,,,,,10,,,,83,110
189842,note_on,21,0,7,,,,,,,,,11,,,,79,110
189845,note_on,240,0,2,,,,,,,,,1,,,,77,0
189845,note_on,0,0,2,,,,,,,,,1,,,,79,97
189846,note_on,21,0,8,,,,,,,,,12,,,,67,108
189850,note_on,21,0,9,,,,,,,,,13,,,,55,99
189851,note_on,240,0,3,,,,,,,,,3,,,,57,0
189851,note_on,0,0,3,,,,,,,,,3,,,,55,97
189852,note_on,21,0,10,,,,,,,,,14,,,,43,93
189879,note_on,39,0,6,,,,,,,,,10,,,,83,0
189879,note_on,0,0,6,,,,,,,,,10,,,,74,0
189881,note_on,39,0,7,,,,,,,,,11,,,,79,0
189885,note_on,39,0,8,,,,,,,,,12,,,,67,0
189889,note_on,39,0,9,,,,,,,,,13,,,,55,0
189891,note_on,39,0,10,,,,,,,,,14,,,,43,0
189900,note_on,0,0,6,,,,,,,,,10,,,,83,92
189900,note_on,21,0,6,,,,,,,,,10,,,,74,92
189902,note_on,21,0,7,,,,,,,,,11,,,,79,92
189906,note_on,21,0,8,,,,,,,,,12,,,,67,90
189910,note_on,21,0,9,,,,,,,,,13,,,,55,81
189912,note_on,21,0,10,,,,,,,,,14,,,,43,75
189939,note_on,39,0,6,,,,,,,,,10,,,,83,0
189939,note_on,0,0,6,,,,,,,,,10,,,,74,0
189941,note_on,39,0,7,,,,,,,,,11,,,,79,0
189945,note_on,39,0,8,,,,,,,,,12,,,,67,0
189949,note_on,39,0,9,,,,,,,,,13,,,,55,0
189951,note_on,39,0,10,,,,,,,,,14,,,,43,0
189960,note_on,0,0,6,,,,,,,,,10,,,,83,110
189960,note_on,21,0,6,,,,,,,,,10,,,,74,110
189962,note_on,21,0,7,,,,,,,,,11,,,,80,110
189965,note_on,120,0,2,,,,,,,,,1,,,,79,0
189965,note_on,0,0,2,,,,,,,,,1,,,,81,97
189966,note_on,21,0,8,,,,,,,,,12,,,,65,108
189970,note_on,21,0,9,,,,,,,,,13,,,,53,99
189971,note_on,0,0,3,,,,,,,,,3,,,,53,97
189971,note_on,120,0,3,,,,,,,,,3,,,,55,0
189972,note_on,21,0,10,,,,,,,,,14,,,,41,93
189999,note_on,39,0,6,,,,,,,,,10,,,,83,0
189999,note_on,0,0,6,,,,,,,,,10,,,,74,0
190001,note_on,39,0,7,,,,,,,,,11,,,,80,0
190005,note_on,39,0,8,,,,,,,,,12,,,,65,0
190009,note_on,39,0,9,,,,,,,,,13,,,,53,0
190011,note_on,39,0,10,,,,,,,,,14,,,,41,0
190020,note_on,21,0,6,,,,,,,,,10,,,,83,92
190020,note_on,0,0,6,,,,,,,,,10,,,,74,92
190022,note_on,21,0,7,,,,,,,,,11,,,,80,92
190026,note_on,21,0,8,,,,,,,,,12,,,,65,90
190030,note_on,21,0,9,,,,,,,,,13,,,,53,81
190032,note_on,21,0,10,,,,,,,,,14,,,,41,75
190059,note_on,39,0,6,,,,,,,,,10,,,,74,0
190059,note_on,0,0,6,,,,,,,,,10,,,,83,0
190061,note_on,39,0,7,,,,,,,,,11,,,,80,0
190065,note_on,39,0,8,,,,,,,,,12,,,,65,0
190069,note_on,39,0,9,,,,,,,,,13,,,,53,0
190071,note_on,39,0,10,,,,,,,,,14,,,,41,0
190078,note_on,475,0,1,,,,,,,,,0,,,,83,0
190079,note_on,475,0,4,,,,,,,,,4,,,,62,0
190080,note_on,115,0,2,,,,,,,,,1,,,,81,0
190080,note_on,0,0,2,,,,,,,,,1,,,,74,0
190080,note_on,21,0,6,,,,,,,,,10,,,,84,110
190080,set_tempo,240,1,0,,,,,,265487,,,,,,,,
190081,note_on,475,0,5,,,,,,,,,5,,,,62,0
190082,note_on,21,0,7,,,,,,,,,11,,,,79,110
190083,note_on,5,0,1,,,,,,,,,0,,,,84,97
190084,note_on,5,0,4,,,,,,,,,4,,,,63,88
190085,note_on,5,0,2,,,,,,,,,1,,,,79,97
190085,note_on,0,0,2,,,,,,,,,1,,,,75,97
190086,note_on,21,0,8,,,,,,,,,12,,,,63,108
190086,note_on,5,0,5,,,,,,,,,5,,,,60,88
190086,note_on,115,0,3,,,,,,,,,3,,,,53,0
190090,note_on,21,0,9,,,,,,,,,13,,,,51,99
190091,note_on,5,0,3,,,,,,,,,3,,,,51,97
190092,note_on,21,0,10,,,,,,,,,14,,,,39,93
190119,note_on,39,0,6,,,,,,,,,10,,,,84,0
190121,note_on,39,0,7,,,,,,,,,11,,,,79,0
190125,note_on,39,0,8,,,,,,,,,12,,,,63,0
190129,note_on,39,0,9,,,,,,,,,13,,,,51,0
190131,note_on,39,0,10,,,,,,,,,14,,,,39,0
190140,note_on,21,0,6,,,,,,,,,10,,,,84,92
190142,note_on,21,0,7,,,,,,,,,11,,,,79,92
190146,note_on,21,0,8,,,,,,,,,12,,,,63,90
190150,note_on,21,0,9,,,,,,,,,13,,,,51,81
190152,note_on,21,0,10,,,,,,,,,14,,,,39,75
190179,note_on,39,0,6,,,,,,,,,10,,,,84,0
190181,note_on,39,0,7,,,,,,,,,11,,,,79,0
190185,note_on,39,0,8,,,,,,,,,12,,,,63,0
190189,note_on,39,0,9,,,,,,,,,13,,,,51,0
190191,note_on,39,0,10,,,,,,,,,14,,,,39,0
190200,note_on,21,0,6,,,,,,,,,10,,,,84,110
190202,note_on,21,0,7,,,,,,,,,11,,,,79,110
190206,note_on,21,0,8,,,,,,,,,12,,,,63,108
190210,note_on,21,0,9,,,,,,,,,13,,,,51,99
190212,note_on,21,0,10,,,,,,,,,14,,,,39,93
190239,note_on,39,0,6,,,,,,,,,10,,,,84,0
190241,note_on,39,0,7,,,,,,,,,11,,,,79,0
190245,note_on,39,0,8,,,,,,,,,12,,,,63,0
190249,note_on,39,0,9,,,,,,,,,13,,,,51,0
190251,note_on,39,0,10,,,,,,,,,14,,,,39,0
190260,note_on,21,0,6,,,,,,,,,10,,,,84,92
190262,note_on,21,0,7,,,,,,,,,11,,,,79,92
190266,note_on,21,0,8,,,,,,,,,12,,,,63,90
190270,note_on,21,0,9,,,,,,,,,13,,,,51,81
190272,note_on,21,0,10,,,,,,,,,14,,,,39,75
190299,note_on,39,0,6,,,,,,,,,10,,,,84,0
190301,note_on,39,0,7,,,,,,,,,11,,,,79,0
190305,note_on,39,0,8,,,,,,,,,12,,,,63,0
190309,note_on,39,0,9,,,,,,,,,13,,,,51,0
190311,note_on,39,0,10,,,,,,,,,14,,,,39,0
190320,note_on,21,0,6,,,,,,,,,10,,,,86,110
190320,set_tempo,240,1,0,,,,,,254777,,,,,,,,
190322,note_on,21,0,7,,,,,,,,,11,,,,83,110
190323,note_on,0,0,1,,,,,,,,,0,,,,86,97
190323,note_on,240,0,1,,,,,,,,,0,,,,84,0
190324,note_on,240,0,4,,,,,,,,,4,,,,63,0
190325,note_on,0,0,2,,,,,,,,,1,,,,83,97
190325,note_on,0,0,2,,,,,,,,,1,,,,77,97
190325,note_on,0,0,2,,,,,,,,,1,,,,79,0
190325,note_on,240,0,2,,,,,,,,,1,,,,75,0
190326,note_on,240,0,5,,,,,,,,,5,,,,60,0
190326,note_on,21,0,8,,,,,,,,,12,,,,62,108
190330,note_on,21,0,9,,,,,,,,,13,,,,50,99
190331,note_on,0,0,3,,,,,,,,,3,,,,50,97
190331,note_on,240,0,3,,,,,,,,,3,,,,51,0
190332,note_on,21,0,10,,,,,,,,,14,,,,38,93
190359,note_on,39,0,6,,,,,,,,,10,,,,86,0
190361,note_on,39,0,7,,,,,,,,,11,,,,83,0
190365,note_on,39,0,8,,,,,,,,,12,,,,62,0
190369,note_on,39,0,9,,,,,,,,,13,,,,50,0
190371,note_on,39,0,10,,,,,,,,,14,,,,38,0
190380,note_on,21,0,6,,,,,,,,,10,,,,86,92
190382,note_on,21,0,7,,,,,,,,,11,,,,83,92
190386,note_on,21,0,8,,,,,,,,,12,,,,62,90
190390,note_on,21,0,9,,,,,,,,,13,,,,50,81
190392,note_on,21,0,10,,,,,,,,,14,,,,38,75
190419,note_on,39,0,6,,,,,,,,,10,,,,86,0
190421,note_on,39,0,7,,,,,,,,,11,,,,83,0
190425,note_on,39,0,8,,,,,,,,,12,,,,62,0
190429,note_on,39,0,9,,,,,,,,,13,,,,50,0
190431,note_on,39,0,10,,,,,,,,,14,,,,38,0
190440,note_on,21,0,6,,,,,,,,,10,,,,87,110
190442,note_on,21,0,7,,,,,,,,,11,,,,84,110
190443,note_on,0,0,1,,,,,,,,,0,,,,87,97
190443,note_on,120,0,1,,,,,,,,,0,,,,86,0
190445,note_on,0,0,2,,,,,,,,,1,,,,79,97
190445,note_on,0,0,2,,,,,,,,,1,,,,77,0
190445,note_on,120,0,2,,,,,,,,,1,,,,83,0
190445,note_on,0,0,2,,,,,,,,,1,,,,84,97
190446,note_on,21,0,8,,,,,,,,,12,,,,60,108
190450,note_on,21,0,9,,,,,,,,,13,,,,48,99
190451,note_on,0,0,3,,,,,,,,,3,,,,48,97
190451,note_on,120,0,3,,,,,,,,,3,,,,50,0
190452,note_on,21,0,10,,,,,,,,,14,,,,36,93
190479,note_on,39,0,6,,,,,,,,,10,,,,87,0
190481,note_on,39,0,7,,,,,,,,,11,,,,84,0
190485,note_on,39,0,8,,,,,,,,,12,,,,60,0
190489,note_on,39,0,9,,,,,,,,,13,,,,48,0
190491,note_on,39,0,10,,,,,,,,,14,,,,36,0
190500,note_on,21,0,6,,,,,,,,,10,,,,87,92
190502,note_on,21,0,7,,,,,,,,,11,,,,84,92
190506,note_on,21,0,8,,,,,,,,,12,,,,60,90
190510,note_on,21,0,9,,,,,,,,,13,,,,48,81
190512,note_on,21,0,10,,,,,,,,,14,,,,36,75
190539,note_on,39,0,6,,,,,,,,,10,,,,87,0
190541,note_on,39,0,7,,,,,,,,,11,,,,84,0
190545,note_on,39,0,8,,,,,,,,,12,,,,60,0
190549,note_on,39,0,9,,,,,,,,,13,,,,48,0
190551,note_on,39,0,10,,,,,,,,,14,,,,36,0
190558,note_on,115,0,1,,,,,,,,,0,,,,87,0
190560,set_tempo,240,1,0,,,,,,263736,,,,,,,,
190560,note_on,115,0,2,,,,,,,,,1,,,,79,0
190560,note_on,0,0,2,,,,,,,,,1,,,,84,0
190560,note_on,21,0,6,,,,,,,,,10,,,,91,125
190562,note_on,21,0,7,,,,,,,,,11,,,,87,125
190563,note_on,5,0,1,,,,,,,,,0,,,,91,110
190564,note_on,240,0,4,,,,,,,,,4,,,,65,100
190565,note_on,5,0,2,,,,,,,,,1,,,,75,110
190565,note_on,0,0,2,,,,,,,,,1,,,,79,110
190566,note_on,21,0,8,,,,,,,,,12,,,,60,123
190566,note_on,0,0,8,,,,,,,,,12,,,,69,123
190566,note_on,115,0,3,,,,,,,,,3,,,,48,0
190566,note_on,240,0,5,,,,,,,,,5,,,,53,100
190570,note_on,21,0,9,,,,,,,,,13,,,,53,114
190571,note_on,5,0,3,,,,,,,,,3,,,,57,110
190571,note_on,0,0,3,,,,,,,,,3,,,,41,110
190572,note_on,21,0,10,,,,,,,,,14,,,,41,108
190599,note_on,39,0,6,,,,,,,,,10,,,,91,0
190601,note_on,39,0,7,,,,,,,,,11,,,,87,0
190605,note_on,0,0,8,,,,,,,,,12,,,,60,0
190605,note_on,39,0,8,,,,,,,,,12,,,,69,0
190609,note_on,39,0,9,,,,,,,,,13,,,,53,0
190611,note_on,39,0,10,,,,,,,,,14,,,,41,0
190620,note_on,21,0,6,,,,,,,,,10,,,,91,99
190622,note_on,21,0,7,,,,,,,,,11,,,,87,99
190626,note_on,0,0,8,,,,,,,,,12,,,,60,97
190626,note_on,21,0,8,,,,,,,,,12,,,,69,97
190630,note_on,21,0,9,,,,,,,,,13,,,,53,88
190632,note_on,21,0,10,,,,,,,,,14,,,,41,82
190659,note_on,39,0,6,,,,,,,,,10,,,,91,0
190661,note_on,39,0,7,,,,,,,,,11,,,,87,0
190665,note_on,39,0,8,,,,,,,,,12,,,,60,0
190665,note_on,0,0,8,,,,,,,,,12,,,,69,0
190669,note_on,39,0,9,,,,,,,,,13,,,,53,0
190671,note_on,39,0,10,,,,,,,,,14,,,,41,0
190680,note_on,21,0,6,,,,,,,,,10,,,,91,110
190682,note_on,21,0,7,,,,,,,,,11,,,,87,110
190686,note_on,21,0,8,,,,,,,,,12,,,,69,108
190686,note_on,0,0,8,,,,,,,,,12,,,,60,108
190690,note_on,21,0,9,,,,,,,,,13,,,,53,99
190692,note_on,21,0,10,,,,,,,,,14,,,,41,93
190719,note_on,39,0,6,,,,,,,,,10,,,,91,0
190721,note_on,39,0,7,,,,,,,,,11,,,,87,0
190725,note_on,0,0,8,,,,,,,,,12,,,,69,0
190725,note_on,39,0,8,,,,,,,,,12,,,,60,0
190729,note_on,39,0,9,,,,,,,,,13,,,,53,0
190731,note_on,39,0,10,,,,,,,,,14,,,,41,0
190740,note_on,21,0,6,,,,,,,,,10,,,,91,92
190742,note_on,21,0,7,,,,,,,,,11,,,,87,92
190746,note_on,0,0,8,,,,,,,,,12,,,,69,90
190746,note_on,21,0,8,,,,,,,,,12,,,,60,90
190750,note_on,21,0,9,,,,,,,,,13,,,,53,81
190752,note_on,21,0,10,,,,,,,,,14,,,,41,75
190779,note_on,39,0,6,,,,,,,,,10,,,,91,0
190781,note_on,39,0,7,,,,,,,,,11,,,,87,0
190785,note_on,0,0,8,,,,,,,,,12,,,,60,0
190785,note_on,39,0,8,,,,,,,,,12,,,,69,0
190789,note_on,39,0,9,,,,,,,,,13,,,,53,0
190791,note_on,39,0,10,,,,,,,,,14,,,,41,0
190800,note_on,21,0,6,,,,,,,,,10,,,,91,110
190800,set_tempo,240,1,0,,,,,,254777,,,,,,,,
190802,note_on,21,0,7,,,,,,,,,11,,,,87,110
190806,note_on,0,0,8,,,,,,,,,12,,,,60,108
190806,note_on,21,0,8,,,,,,,,,12,,,,69,108
190810,note_on,21,0,9,,,,,,,,,13,,,,53,99
190812,note_on,21,0,10,,,,,,,,,14,,,,41,93
190839,note_on,39,0,6,,,,,,,,,10,,,,91,0
190841,note_on,39,0,7,,,,,,,,,11,,,,87,0
190845,note_on,39,0,8,,,,,,,,,12,,,,60,0
190845,note_on,0,0,8,,,,,,,,,12,,,,69,0
190849,note_on,39,0,9,,,,,,,,,13,,,,53,0
190851,note_on,39,0,10,,,,,,,,,14,,,,41,0
190860,note_on,21,0,6,,,,,,,,,10,,,,91,92
190862,note_on,21,0,7,,,,,,,,,11,,,,87,92
190866,note_on,21,0,8,,,,,,,,,12,,,,69,90
190866,note_on,0,0,8,,,,,,,,,12,,,,60,90
190870,note_on,21,0,9,,,,,,,,,13,,,,53,81
190872,note_on,21,0,10,,,,,,,,,14,,,,41,75
190899,note_on,39,0,6,,,,,,,,,10,,,,91,0
190901,note_on,39,0,7,,,,,,,,,11,,,,87,0
190905,note_on,39,0,8,,,,,,,,,12,,,,60,0
190905,note_on,0,0,8,,,,,,,,,12,,,,69,0
190909,note_on,39,0,9,,,,,,,,,13,,,,53,0
190911,note_on,39,0,10,,,,,,,,,14,,,,41,0
190920,note_on,21,0,6,,,,,,,,,10,,,,91,110
190922,note_on,21,0,7,,,,,,,,,11,,,,87,110
190926,note_on,21,0,8,,,,,,,,,12,,,,69,108
190926,note_on,0,0,8,,,,,,,,,12,,,,60,108
190930,note_on,21,0,9,,,,,,,,,13,,,,53,99
190932,note_on,21,0,10,,,,,,,,,14,,,,41,93
190959,note_on,39,0,6,,,,,,,,,10,,,,91,0
190961,note_on,39,0,7,,,,,,,,,11,,,,87,0
190965,note_on,0,0,8,,,,,,,,,12,,,,69,0
190965,note_on,39,0,8,,,,,,,,,12,,,,60,0
190969,note_on,39,0,9,,,,,,,,,13,,,,53,0
190971,note_on,39,0,10,,,,,,,,,14,,,,41,0
190980,note_on,21,0,6,,,,,,,,,10,,,,91,92
190982,note_on,21,0,7,,,,,,,,,11,,,,87,92
190986,note_on,21,0,8,,,,,,,,,12,,,,69,90
190986,note_on,0,0,8,,,,,,,,,12,,,,60,90
190990,note_on,21,0,9,,,,,,,,,13,,,,53,81
190992,note_on,21,0,10,,,,,,,,,14,,,,41,75
191019,note_on,39,0,6,,,,,,,,,10,,,,91,0
191021,note_on,39,0,7,,,,,,,,,11,,,,87,0
191025,note_on,39,0,8,,,,,,,,,12,,,,60,0
191025,note_on,0,0,8,,,,,,,,,12,,,,69,0
191029,note_on,39,0,9,,,,,,,,,13,,,,53,0
191031,note_on,39,0,10,,,,,,,,,14,,,,41,0
191040,note_on,21,0,6,,,,,,,,,10,,,,91,110
191040,set_tempo,240,1,0,,,,,,263736,,,,,,,,
191042,note_on,21,0,7,,,,,,,,,11,,,,87,110
191046,note_on,0,0,8,,,,,,,,,12,,,,60,108
191046,note_on,21,0,8,,,,,,,,,12,,,,69,108
191050,note_on,21,0,9,,,,,,,,,13,,,,53,99
191052,note_on,21,0,10,,,,,,,,,14,,,,41,93
191079,note_on,39,0,6,,,,,,,,,10,,,,91,0
191081,note_on,39,0,7,,,,,,,,,11,,,,87,0
191085,note_on,39,0,8,,,,,,,,,12,,,,60,0
191085,note_on,0,0,8,,,,,,,,,12,,,,69,0
191089,note_on,39,0,9,,,,,,,,,13,,,,53,0
191091,note_on,39,0,10,,,,,,,,,14,,,,41,0
191100,note_on,21,0,6,,,,,,,,,10,,,,91,92
191102,note_on,21,0,7,,,,,,,,,11,,,,87,92
191106,note_on,21,0,8,,,,,,,,,12,,,,60,90
191106,note_on,0,0,8,,,,,,,,,12,,,,69,90
191110,note_on,21,0,9,,,,,,,,,13,,,,53,81
191112,note_on,21,0,10,,,,,,,,,14,,,,41,75
191139,note_on,39,0,6,,,,,,,,,10,,,,91,0
191141,note_on,39,0,7,,,,,,,,,11,,,,87,0
191145,note_on,0,0,8,,,,,,,,,12,,,,60,0
191145,note_on,39,0,8,,,,,,,,,12,,,,69,0
191149,note_on,39,0,9,,,,,,,,,13,,,,53,0
191151,note_on,39,0,10,,,,,,,,,14,,,,41,0
191160,note_on,21,0,6,,,,,,,,,10,,,,91,110
191162,note_on,21,0,7,,,,,,,,,11,,,,87,110
191166,note_on,0,0,8,,,,,,,,,12,,,,60,108
191166,note_on,21,0,8,,,,,,,,,12,,,,69,108
191170,note_on,21,0,9,,,,,,,,,13,,,,53,99
191172,note_on,21,0,10,,,,,,,,,14,,,,41,93
191199,note_on,39,0,6,,,,,,,,,10,,,,91,0
191201,note_on,39,0,7,,,,,,,,,11,,,,87,0
191205,note_on,0,0,8,,,,,,,,,12,,,,69,0
191205,note_on,39,0,8,,,,,,,,,12,,,,60,0
191209,note_on,39,0,9,,,,,,,,,13,,,,53,0
191211,note_on,39,0,10,,,,,,,,,14,,,,41,0
191220,note_on,21,0,6,,,,,,,,,10,,,,91,92
191222,note_on,21,0,7,,,,,,,,,11,,,,87,92
191226,note_on,0,0,8,,,,,,,,,12,,,,69,90
191226,note_on,21,0,8,,,,,,,,,12,,,,60,90
191230,note_on,21,0,9,,,,,,,,,13,,,,53,81
191232,note_on,21,0,10,,,,,,,,,14,,,,41,75
191259,note_on,39,0,6,,,,,,,,,10,,,,91,0
191261,note_on,39,0,7,,,,,,,,,11,,,,87,0
191265,note_on,39,0,8,,,,,,,,,12,,,,69,0
191265,note_on,0,0,8,,,,,,,,,12,,,,60,0
191269,note_on,39,0,9,,,,,,,,,13,,,,53,0
191271,note_on,39,0,10,,,,,,,,,14,,,,41,0
191280,set_tempo,240,1,0,,,,,,254777,,,,,,,,
191280,note_on,21,0,6,,,,,,,,,10,,,,89,110
191282,note_on,21,0,7,,,,,,,,,11,,,,86,110
191283,note_on,0,0,1,,,,,,,,,0,,,,89,97
191283,note_on,720,0,1,,,,,,,,,0,,,,91,0
191285,note_on,0,0,2,,,,,,,,,1,,,,74,97
191285,note_on,720,0,2,,,,,,,,,1,,,,79,0
191285,note_on,0,0,2,,,,,,,,,1,,,,77,97
191285,note_on,0,0,2,,,,,,,,,1,,,,75,0
191286,note_on,21,0,8,,,,,,,,,12,,,,69,108
191290,note_on,21,0,9,,,,,,,,,13,,,,53,99
191292,note_on,21,0,10,,,,,,,,,14,,,,41,93
191319,note_on,39,0,6,,,,,,,,,10,,,,89,0
191321,note_on,39,0,7,,,,,,,,,11,,,,86,0
191325,note_on,39,0,8,,,,,,,,,12,,,,69,0
191329,note_on,39,0,9,,,,,,,,,13,,,,53,0
191331,note_on,39,0,10,,,,,,,,,14,,,,41,0
191340,note_on,21,0,6,,,,,,,,,10,,,,89,92
191342,note_on,21,0,7,,,,,,,,,11,,,,86,92
191346,note_on,21,0,8,,,,,,,,,12,,,,69,90
191350,note_on,21,0,9,,,,,,,,,13,,,,53,81
191352,note_on,21,0,10,,,,,,,,,14,,,,41,75
191379,note_on,39,0,6,,,,,,,,,10,,,,89,0
191381,note_on,39,0,7,,,,,,,,,11,,,,86,0
191385,note_on,39,0,8,,,,,,,,,12,,,,69,0
191389,note_on,39,0,9,,,,,,,,,13,,,,53,0
191391,note_on,39,0,10,,,,,,,,,14,,,,41,0
191400,note_on,21,0,6,,,,,,,,,10,,,,87,110
191402,note_on,21,0,7,,,,,,,,,11,,,,84,110
191403,note_on,120,0,1,,,,,,,,,0,,,,89,0
191403,note_on,0,0,1,,,,,,,,,0,,,,87,97
191405,note_on,0,0,2,,,,,,,,,1,,,,72,97
191405,note_on,0,0,2,,,,,,,,,1,,,,75,97
191405,note_on,0,0,2,,,,,,,,,1,,,,77,0
191405,note_on,120,0,2,,,,,,,,,1,,,,74,0
191406,note_on,21,0,8,,,,,,,,,12,,,,69,108
191410,note_on,21,0,9,,,,,,,,,13,,,,53,99
191412,note_on,21,0,10,,,,,,,,,14,,,,41,93
191439,note_on,39,0,6,,,,,,,,,10,,,,87,0
191441,note_on,39,0,7,,,,,,,,,11,,,,84,0
191445,note_on,39,0,8,,,,,,,,,12,,,,69,0
191449,note_on,39,0,9,,,,,,,,,13,,,,53,0
191451,note_on,39,0,10,,,,,,,,,14,,,,41,0
191460,note_on,21,0,6,,,,,,,,,10,,,,87,92
191462,note_on,21,0,7,,,,,,,,,11,,,,84,92
191466,note_on,21,0,8,,,,,,,,,12,,,,69,90
191470,note_on,21,0,9,,,,,,,,,13,,,,53,81
191472,note_on,21,0,10,,,,,,,,,14,,,,41,75
191499,note_on,39,0,6,,,,,,,,,10,,,,87,0
191501,note_on,39,0,7,,,,,,,,,11,,,,84,0
191505,note_on,39,0,8,,,,,,,,,12,,,,69,0
191509,note_on,39,0,9,,,,,,,,,13,,,,53,0
191511,note_on,39,0,10,,,,,,,,,14,,,,41,0
191518,note_on,115,0,1,,,,,,,,,0,,,,87,0
191519,note_on,955,0,4,,,,,,,,,4,,,,65,0
191520,note_on,115,0,2,,,,,,,,,1,,,,72,0
191520,set_tempo,240,1,0,,,,,,263736,,,,,,,,
191520,note_on,21,0,6,,,,,,,,,10,,,,86,110
191520,note_on,0,0,2,,,,,,,,,1,,,,75,0
191521,note_on,955,0,5,,,,,,,,,5,,,,53,0
191522,note_on,21,0,7,,,,,,,,,11,,,,82,110
191523,note_on,5,0,1,,,,,,,,,0,,,,86,97
191524,note_on,5,0,4,,,,,,,,,4,,,,58,88
191525,note_on,5,0,2,,,,,,,,,1,,,,70,97
191525,note_on,0,0,2,,,,,,,,,1,,,,74,97
191526,note_on,0,0,3,,,,,,,,,3,,,,57,0
191526,note_on,955,0,3,,,,,,,,,3,,,,41,0
191526,note_on,5,0,5,,,,,,,,,5,,,,58,88
191526,note_on,21,0,8,,,,,,,,,12,,,,70,108
191530,note_on,21,0,9,,,,,,,,,13,,,,55,99
191531,note_on,5,0,3,,,,,,,,,3,,,,43,97
191531,note_on,0,0,3,,,,,,,,,3,,,,58,97
191532,note_on,21,0,10,,,,,,,,,14,,,,43,93
191559,note_on,39,0,6,,,,,,,,,10,,,,86,0
191561,note_on,39,0,7,,,,,,,,,11,,,,82,0
191565,note_on,39,0,8,,,,,,,,,12,,,,70,0
191569,note_on,39,0,9,,,,,,,,,13,,,,55,0
191571,note_on,39,0,10,,,,,,,,,14,,,,43,0
191580,note_on,21,0,6,,,,,,,,,10,,,,86,92
191582,note_on,21,0,7,,,,,,,,,11,,,,82,92
191586,note_on,21,0,8,,,,,,,,,12,,,,70,90
191590,note_on,21,0,9,,,,,,,,,13,,,,55,81
191592,note_on,21,0,10,,,,,,,,,14,,,,43,75
191619,note_on,39,0,6,,,,,,,,,10,,,,86,0
191621,note_on,39,0,7,,,,,,,,,11,,,,82,0
191625,note_on,39,0,8,,,,,,,,,12,,,,70,0
191629,note_on,39,0,9,,,,,,,,,13,,,,55,0
191631,note_on,39,0,10,,,,,,,,,14,,,,43,0
191640,note_on,21,0,6,,,,,,,,,10,,,,86,110
191642,note_on,21,0,7,,,,,,,,,11,,,,82,110
191646,note_on,21,0,8,,,,,,,,,12,,,,70,108
191650,note_on,21,0,9,,,,,,,,,13,,,,55,99
191652,note_on,21,0,10,,,,,,,,,14,,,,43,93
191679,note_on,39,0,6,,,,,,,,,10,,,,86,0
191681,note_on,39,0,7,,,,,,,,,11,,,,82,0
191685,note_on,39,0,8,,,,,,,,,12,,,,70,0
191689,note_on,39,0,9,,,,,,,,,13,,,,55,0
191691,note_on,39,0,10,,,,,,,,,14,,,,43,0
191700,note_on,21,0,6,,,,,,,,,10,,,,86,92
191702,note_on,21,0,7,,,,,,,,,11,,,,82,92
191706,note_on,21,0,8,,,,,,,,,12,,,,70,90
191710,note_on,21,0,9,,,,,,,,,13,,,,55,81
191712,note_on,21,0,10,,,,,,,,,14,,,,43,75
191739,note_on,39,0,6,,,,,,,,,10,,,,86,0
191741,note_on,39,0,7,,,,,,,,,11,,,,82,0
191745,note_on,39,0,8,,,,,,,,,12,,,,70,0
191749,note_on,39,0,9,,,,,,,,,13,,,,55,0
191751,note_on,39,0,10,,,,,,,,,14,,,,43,0
191753,note_on,230,0,1,,,,,,,,,0,,,,86,0
191754,note_on,230,0,4,,,,,,,,,4,,,,58,0
191755,note_on,230,0,2,,,,,,,,,1,,,,74,0
191755,note_on,0,0,2,,,,,,,,,1,,,,70,0
191756,note_on,230,0,5,,,,,,,,,5,,,,58,0
191760,set_tempo,240,1,0,,,,,,254777,,,,,,,,
191760,note_on,21,0,6,,,,,,,,,10,,,,87,110
191761,note_on,230,0,3,,,,,,,,,3,,,,58,0
191761,note_on,0,0,3,,,,,,,,,3,,,,43,0
191762,note_on,21,0,7,,,,,,,,,11,,,,84,110
191763,note_on,10,0,1,,,,,,,,,0,,,,87,97
191764,note_on,10,0,4,,,,,,,,,4,,,,63,88
191765,note_on,10,0,2,,,,,,,,,1,,,,72,97
191765,note_on,0,0,2,,,,,,,,,1,,,,75,97
191766,note_on,21,0,8,,,,,,,,,12,,,,63,108
191766,note_on,10,0,5,,,,,,,,,5,,,,60,88
191770,note_on,21,0,9,,,,,,,,,13,,,,51,99
191771,note_on,10,0,3,,,,,,,,,3,,,,51,97
191772,note_on,21,0,10,,,,,,,,,14,,,,39,93
191799,note_on,39,0,6,,,,,,,,,10,,,,87,0
191801,note_on,39,0,7,,,,,,,,,11,,,,84,0
191805,note_on,39,0,8,,,,,,,,,12,,,,63,0
191809,note_on,39,0,9,,,,,,,,,13,,,,51,0
191811,note_on,39,0,10,,,,,,,,,14,,,,39,0
191820,note_on,21,0,6,,,,,,,,,10,,,,87,92
191822,note_on,21,0,7,,,,,,,,,11,,,,84,92
191826,note_on,21,0,8,,,,,,,,,12,,,,63,90
191830,note_on,21,0,9,,,,,,,,,13,,,,51,81
191832,note_on,21,0,10,,,,,,,,,14,,,,39,75
191859,note_on,39,0,6,,,,,,,,,10,,,,87,0
191861,note_on,39,0,7,,,,,,,,,11,,,,84,0
191865,note_on,39,0,8,,,,,,,,,12,,,,63,0
191869,note_on,39,0,9,,,,,,,,,13,,,,51,0
191871,note_on,39,0,10,,,,,,,,,14,,,,39,0
191880,note_on,21,0,6,,,,,,,,,10,,,,87,110
191882,note_on,21,0,7,,,,,,,,,11,,,,84,110
191886,note_on,21,0,8,,,,,,,,,12,,,,63,108
191890,note_on,21,0,9,,,,,,,,,13,,,,51,99
191892,note_on,21,0,10,,,,,,,,,14,,,,39,93
191919,note_on,39,0,6,,,,,,,,,10,,,,87,0
191921,note_on,39,0,7,,,,,,,,,11,,,,84,0
191925,note_on,39,0,8,,,,,,,,,12,,,,63,0
191929,note_on,39,0,9,,,,,,,,,13,,,,51,0
191931,note_on,39,0,10,,,,,,,,,14,,,,39,0
191940,note_on,21,0,6,,,,,,,,,10,,,,87,92
191942,note_on,21,0,7,,,,,,,,,11,,,,84,92
191946,note_on,21,0,8,,,,,,,,,12,,,,63,90
191950,note_on,21,0,9,,,,,,,,,13,,,,51,81
191952,note_on,21,0,10,,,,,,,,,14,,,,39,75
191979,note_on,39,0,6,,,,,,,,,10,,,,87,0
191981,note_on,39,0,7,,,,,,,,,11,,,,84,0
191985,note_on,39,0,8,,,,,,,,,12,,,,63,0
191989,note_on,39,0,9,,,,,,,,,13,,,,51,0
191991,note_on,39,0,10,,,,,,,,,14,,,,39,0
191993,note_on,230,0,1,,,,,,,,,0,,,,87,0
191994,note_on,230,0,4,,,,,,,,,4,,,,63,0
191995,note_on,0,0,2,,,,,,,,,1,,,,72,0
191995,note_on,230,0,2,,,,,,,,,1,,,,75,0
191996,note_on,230,0,5,,,,,,,,,5,,,,60,0
192000,set_tempo,240,1,0,,,,,,263736,,,,,,,,
192000,note_on,21,0,6,,,,,,,,,10,,,,86,110
192001,note_on,230,0,3,,,,,,,,,3,,,,51,0
192002,note_on,21,0,7,,,,,,,,,11,,,,82,110
192003,note_on,10,0,1,,,,,,,,,0,,,,86,97
192004,note_on,10,0,4,,,,,,,,,4,,,,58,88
192005,note_on,0,0,2,,,,,,,,,1,,,,70,97
192005,note_on,10,0,2,,,,,,,,,1,,,,74,97
192006,note_on,21,0,8,,,,,,,,,12,,,,65,108
192006,note_on,10,0,5,,,,,,,,,5,,,,58,88
192010,note_on,21,0,9,,,,,,,,,13,,,,53,99
192011,note_on,10,0,3,,,,,,,,,3,,,,53,97
192012,note_on,21,0,10,,,,,,,,,14,,,,41,93
192039,note_on,39,0,6,,,,,,,,,10,,,,86,0
192041,note_on,39,0,7,,,,,,,,,11,,,,82,0
192045,note_on,39,0,8,,,,,,,,,12,,,,65,0
192049,note_on,39,0,9,,,,,,,,,13,,,,53,0
192051,note_on,39,0,10,,,,,,,,,14,,,,41,0
192060,note_on,21,0,6,,,,,,,,,10,,,,86,92
192062,note_on,21,0,7,,,,,,,,,11,,,,82,92
192066,note_on,21,0,8,,,,,,,,,12,,,,65,90
192070,note_on,21,0,9,,,,,,,,,13,,,,53,81
192072,note_on,21,0,10,,,,,,,,,14,,,,41,75
192099,note_on,39,0,6,,,,,,,,,10,,,,86,0
192101,note_on,39,0,7,,,,,,,,,11,,,,82,0
192105,note_on,39,0,8,,,,,,,,,12,,,,65,0
192109,note_on,39,0,9,,,,,,,,,13,,,,53,0
192111,note_on,39,0,10,,,,,,,,,14,,,,41,0
192120,note_on,21,0,6,,,,,,,,,10,,,,86,110
192122,note_on,21,0,7,,,,,,,,,11,,,,82,110
192126,note_on,21,0,8,,,,,,,,,12,,,,65,108
192130,note_on,21,0,9,,,,,,,,,13,,,,53,99
192132,note_on,21,0,10,,,,,,,,,14,,,,41,93
192159,note_on,39,0,6,,,,,,,,,10,,,,86,0
192161,note_on,39,0,7,,,,,,,,,11,,,,82,0
192165,note_on,39,0,8,,,,,,,,,12,,,,65,0
192169,note_on,39,0,9,,,,,,,,,13,,,,53,0
192171,note_on,39,0,10,,,,,,,,,14,,,,41,0
192180,note_on,21,0,6,,,,,,,,,10,,,,86,92
192182,note_on,21,0,7,,,,,,,,,11,,,,82,92
192186,note_on,21,0,8,,,,,,,,,12,,,,65,90
192190,note_on,21,0,9,,,,,,,,,13,,,,53,81
192192,note_on,21,0,10,,,,,,,,,14,,,,41,75
192219,note_on,39,0,6,,,,,,,,,10,,,,86,0
192221,note_on,39,0,7,,,,,,,,,11,,,,82,0
192225,note_on,39,0,8,,,,,,,,,12,,,,65,0
192229,note_on,39,0,9,,,,,,,,,13,,,,53,0
192231,note_on,39,0,10,,,,,,,,,14,,,,41,0
192233,note_on,230,0,1,,,,,,,,,0,,,,86,0
192234,note_on,230,0,4,,,,,,,,,4,,,,58,0
192235,note_on,0,0,2,,,,,,,,,1,,,,74,0
192235,note_on,230,0,2,,,,,,,,,1,,,,70,0
192236,note_on,230,0,5,,,,,,,,,5,,,,58,0
192240,note_on,21,0,6,,,,,,,,,10,,,,84,110
192240,set_tempo,240,1,0,,,,,,254777,,,,,,,,
192241,note_on,230,0,3,,,,,,,,,3,,,,53,0
192242,note_on,21,0,7,,,,,,,,,11,,,,81,110
192243,note_on,10,0,1,,,,,,,,,0,,,,84,97
192244,note_on,10,0,4,,,,,,,,,4,,,,60,88
192245,note_on,0,0,2,,,,,,,,,1,,,,69,97
192245,note_on,10,0,2,,,,,,,,,1,,,,72,97
192246,note_on,21,0,8,,,,,,,,,12,,,,65,108
192246,note_on,10,0,5,,,,,,,,,5,,,,53,88
192250,note_on,21,0,9,,,,,,,,,13,,,,41,99
192251,note_on,10,0,3,,,,,,,,,3,,,,53,97
192252,note_on,21,0,10,,,,,,,,,14,,,,29,93
192279,note_on,39,0,6,,,,,,,,,10,,,,84,0
192281,note_on,39,0,7,,,,,,,,,11,,,,81,0
192285,note_on,39,0,8,,,,,,,,,12,,,,65,0
192289,note_on,39,0,9,,,,,,,,,13,,,,41,0
192291,note_on,39,0,10,,,,,,,,,14,,,,29,0
192300,note_on,21,0,6,,,,,,,,,10,,,,84,92
192302,note_on,21,0,7,,,,,,,,,11,,,,81,92
192306,note_on,21,0,8,,,,,,,,,12,,,,65,90
192310,note_on,21,0,9,,,,,,,,,13,,,,41,81
192312,note_on,21,0,10,,,,,,,,,14,,,,29,75
192339,note_on,39,0,6,,,,,,,,,10,,,,84,0
192341,note_on,39,0,7,,,,,,,,,11,,,,81,0
192345,note_on,39,0,8,,,,,,,,,12,,,,65,0
192349,note_on,39,0,9,,,,,,,,,13,,,,41,0
192351,note_on,39,0,10,,,,,,,,,14,,,,29,0
192360,note_on,21,0,6,,,,,,,,,10,,,,84,110
192362,note_on,21,0,7,,,,,,,,,11,,,,81,110
192366,note_on,21,0,8,,,,,,,,,12,,,,65,108
192370,note_on,21,0,9,,,,,,,,,13,,,,41,99
192372,note_on,21,0,10,,,,,,,,,14,,,,29,93
192399,note_on,39,0,6,,,,,,,,,10,,,,84,0
192401,note_on,39,0,7,,,,,,,,,11,,,,81,0
192405,note_on,39,0,8,,,,,,,,,12,,,,65,0
192409,note_on,39,0,9,,,,,,,,,13,,,,41,0
192411,note_on,39,0,10,,,,,,,,,14,,,,29,0
192420,note_on,21,0,6,,,,,,,,,10,,,,84,92
192422,note_on,21,0,7,,,,,,,,,11,,,,81,92
192426,note_on,21,0,8,,,,,,,,,12,,,,65,90
192430,note_on,21,0,9,,,,,,,,,13,,,,41,81
192432,note_on,21,0,10,,,,,,,,,14,,,,29,75
192459,note_on,39,0,6,,,,,,,,,10,,,,84,0
192461,note_on,39,0,7,,,,,,,,,11,,,,81,0
192465,note_on,39,0,8,,,,,,,,,12,,,,65,0
192469,note_on,39,0,9,,,,,,,,,13,,,,41,0
192471,note_on,39,0,10,,,,,,,,,14,,,,29,0
192473,note_on,230,0,1,,,,,,,,,0,,,,84,0
192474,note_on,230,0,4,,,,,,,,,4,,,,60,0
192475,note_on,230,0,2,,,,,,,,,1,,,,69,0
192475,note_on,0,0,2,,,,,,,,,1,,,,72,0
192476,note_on,230,0,5,,,,,,,,,5,,,,53,0
192480,set_tempo,240,1,0,,,,,,283688,,,,,,,,
192480,note_on,21,0,6,,,,,,,,,10,,,,82,85
192481,note_on,230,0,3,,,,,,,,,3,,,,53,0
192482,note_on,21,0,7,,,,,,,,,11,,,,82,85
192483,note_on,10,0,1,,,,,,,,,0,,,,82,87
192484,note_on,10,0,4,,,,,,,,,4,,,,58,78
192485,note_on,10,0,2,,,,,,,,,1,,,,70,87
192486,note_on,21,0,8,,,,,,,,,12,,,,58,83
192486,note_on,10,0,5,,,,,,,,,5,,,,50,78
192490,note_on,21,0,9,,,,,,,,,13,,,,46,74
192491,note_on,10,0,3,,,,,,,,,3,,,,46,87
192492,note_on,21,0,10,,,,,,,,,14,,,,34,68
192595,note_on,115,0,6,,,,,,,,,10,,,,82,0
192597,note_on,115,0,7,,,,,,,,,11,,,,82,0
192598,note_on,115,0,1,,,,,,,,,0,,,,82,0
192600,note_on,115,0,2,,,,,,,,,1,,,,70,0
192600,set_tempo,120,1,0,,,,,,272109,,,,,,,,
192600,note_on,5,0,6,,,,,,,,,10,,,,62,110
192601,note_on,115,0,8,,,,,,,,,12,,,,58,0
192602,note_on,5,0,7,,,,,,,,,11,,,,62,110
192603,note_on,5,0,1,,,,,,,,,0,,,,62,97
192604,note_on,120,0,4,,,,,,,,,4,,,,58,0
192605,note_on,115,0,9,,,,,,,,,13,,,,46,0
192605,note_on,5,0,2,,,,,,,,,1,,,,62,97
192606,note_on,120,0,5,,,,,,,,,5,,,,50,0
192606,note_on,5,0,8,,,,,,,,,12,,,,50,108
192606,note_on,115,0,3,,,,,,,,,3,,,,46,0
192607,note_on,115,0,10,,,,,,,,,14,,,,34,0
192610,note_on,5,0,9,,,,,,,,,13,,,,38,99
192611,note_on,5,0,3,,,,,,,,,3,,,,50,97
192612,note_on,5,0,10,,,,,,,,,14,,,,26,93
192639,note_on,39,0,6,,,,,,,,,10,,,,62,0
192641,note_on,39,0,7,,,,,,,,,11,,,,62,0
192645,note_on,39,0,8,,,,,,,,,12,,,,50,0
192649,note_on,39,0,9,,,,,,,,,13,,,,38,0
192651,note_on,39,0,10,,,,,,,,,14,,,,26,0
192653,note_on,50,0,1,,,,,,,,,0,,,,62,0
192655,note_on,50,0,2,,,,,,,,,1,,,,62,0
192660,note_on,21,0,6,,,,,,,,,10,,,,63,111
192661,note_on,50,0,3,,,,,,,,,3,,,,50,0
192662,note_on,21,0,7,,,,,,,,,11,,,,63,111
192663,note_on,10,0,1,,,,,,,,,0,,,,63,97
192665,note_on,10,0,2,,,,,,,,,1,,,,63,97
192666,note_on,21,0,8,,,,,,,,,12,,,,51,109
192670,note_on,21,0,9,,,,,,,,,13,,,,39,100
192671,note_on,10,0,3,,,,,,,,,3,,,,51,97
192672,note_on,21,0,10,,,,,,,,,14,,,,27,94
192699,note_on,39,0,6,,,,,,,,,10,,,,63,0
192701,note_on,39,0,7,,,,,,,,,11,,,,63,0
192705,note_on,39,0,8,,,,,,,,,12,,,,51,0
192709,note_on,39,0,9,,,,,,,,,13,,,,39,0
192711,note_on,39,0,10,,,,,,,,,14,,,,27,0
192713,note_on,50,0,1,,,,,,,,,0,,,,63,0
192715,note_on,50,0,2,,,,,,,,,1,,,,63,0
192720,note_on,21,0,6,,,,,,,,,10,,,,64,112
192720,set_tempo,120,1,0,,,,,,259179,,,,,,,,
192721,note_on,50,0,3,,,,,,,,,3,,,,51,0
192722,note_on,21,0,7,,,,,,,,,11,,,,64,112
192723,note_on,10,0,1,,,,,,,,,0,,,,64,98
192725,note_on,10,0,2,,,,,,,,,1,,,,64,98
192726,note_on,21,0,8,,,,,,,,,12,,,,52,110
192730,note_on,21,0,9,,,,,,,,,13,,,,40,101
192731,note_on,10,0,3,,,,,,,,,3,,,,52,98
192732,note_on,21,0,10,,,,,,,,,14,,,,28,95
192759,note_on,39,0,6,,,,,,,,,10,,,,64,0
192761,note_on,39,0,7,,,,,,,,,11,,,,64,0
192765,note_on,39,0,8,,,,,,,,,12,,,,52,0
192769,note_on,39,0,9,,,,,,,,,13,,,,40,0
192771,note_on,39,0,10,,,,,,,,,14,,,,28,0
192773,note_on,50,0,1,,,,,,,,,0,,,,64,0
192775,note_on,50,0,2,,,,,,,,,1,,,,64,0
192780,note_on,21,0,6,,,,,,,,,10,,,,65,113
192781,note_on,50,0,3,,,,,,,,,3,,,,52,0
192782,note_on,21,0,7,,,,,,,,,11,,,,65,113
192783,note_on,10,0,1,,,,,,,,,0,,,,65,99
192785,note_on,10,0,2,,,,,,,,,1,,,,65,99
192786,note_on,21,0,8,,,,,,,,,12,,,,53,111
192790,note_on,21,0,9,,,,,,,,,13,,,,41,102
192791,note_on,10,0,3,,,,,,,,,3,,,,53,99
192792,note_on,21,0,10,,,,,,,,,14,,,,29,96
192819,note_on,39,0,6,,,,,,,,,10,,,,65,0
192821,note_on,39,0,7,,,,,,,,,11,,,,65,0
192825,note_on,39,0,8,,,,,,,,,12,,,,53,0
192829,note_on,39,0,9,,,,,,,,,13,,,,41,0
192831,note_on,39,0,10,,,,,,,,,14,,,,29,0
192833,note_on,50,0,1,,,,,,,,,0,,,,65,0
192835,note_on,50,0,2,,,,,,,,,1,,,,65,0
192840,note_on,21,0,6,,,,,,,,,10,,,,67,114
192841,note_on,50,0,3,,,,,,,,,3,,,,53,0
192842,note_on,21,0,7,,,,,,,,,11,,,,67,114
192843,note_on,10,0,1,,,,,,,,,0,,,,67,100
192845,note_on,10,0,2,,,,,,,,,1,,,,67,100
192846,note_on,21,0,8,,,,,,,,,12,,,,55,112
192850,note_on,21,0,9,,,,,,,,,13,,,,43,103
192851,note_on,10,0,3,,,,,,,,,3,,,,55,100
192852,note_on,21,0,10,,,,,,,,,14,,,,31,97
192879,note_on,39,0,6,,,,,,,,,10,,,,67,0
192881,note_on,39,0,7,,,,,,,,,11,,,,67,0
192885,note_on,39,0,8,,,,,,,,,12,,,,55,0
192889,note_on,39,0,9,,,,,,,,,13,,,,43,0
192891,note_on,39,0,10,,,,,,,,,14,,,,31,0
192893,note_on,50,0,1,,,,,,,,,0,,,,67,0
192895,note_on,50,0,2,,,,,,,,,1,,,,67,0
192900,note_on,21,0,6,,,,,,,,,10,,,,69,115
192901,note_on,50,0,3,,,,,,,,,3,,,,55,0
192902,note_on,21,0,7,,,,,,,,,11,,,,69,115
192903,note_on,10,0,1,,,,,,,,,0,,,,69,101
192905,note_on,10,0,2,,,,,,,,,1,,,,69,101
192906,note_on,21,0,8,,,,,,,,,12,,,,57,113
192910,note_on,21,0,9,,,,,,,,,13,,,,45,104
192911,note_on,10,0,3,,,,,,,,,3,,,,57,101
192912,note_on,21,0,10,,,,,,,,,14,,,,33,98
192939,note_on,39,0,6,,,,,,,,,10,,,,69,0
192941,note_on,39,0,7,,,,,,,,,11,,,,69,0
192945,note_on,39,0,8,,,,,,,,,12,,,,57,0
192949,note_on,39,0,9,,,,,,,,,13,,,,45,0
192951,note_on,39,0,10,,,,,,,,,14,,,,33,0
192953,note_on,50,0,1,,,,,,,,,0,,,,69,0
192955,note_on,50,0,2,,,,,,,,,1,,,,69,0
192960,note_on,21,0,6,,,,,,,,,10,,,,70,116
192960,set_tempo,240,1,0,,,,,,267261,,,,,,,,
192961,note_on,50,0,3,,,,,,,,,3,,,,57,0
192962,note_on,21,0,7,,,,,,,,,11,,,,70,116
192963,note_on,10,0,1,,,,,,,,,0,,,,70,102
192965,note_on,10,0,2,,,,,,,,,1,,,,70,102
192966,note_on,21,0,8,,,,,,,,,12,,,,58,114
192970,note_on,21,0,9,,,,,,,,,13,,,,46,105
192971,note_on,10,0,3,,,,,,,,,3,,,,58,102
192972,note_on,21,0,10,,,,,,,,,14,,,,34,99
192999,note_on,39,0,6,,,,,,,,,10,,,,70,0
193001,note_on,39,0,7,,,,,,,,,11,,,,70,0
193005,note_on,39,0,8,,,,,,,,,12,,,,58,0
193009,note_on,39,0,9,,,,,,,,,13,,,,46,0
193011,note_on,39,0,10,,,,,,,,,14,,,,34,0
193013,note_on,50,0,1,,,,,,,,,0,,,,70,0
193015,note_on,50,0,2,,,,,,,,,1,,,,70,0
193020,note_on,21,0,6,,,,,,,,,10,,,,72,117
193021,note_on,50,0,3,,,,,,,,,3,,,,58,0
193022,note_on,21,0,7,,,,,,,,,11,,,,72,117
193023,note_on,10,0,1,,,,,,,,,0,,,,72,103
193025,note_on,10,0,2,,,,,,,,,1,,,,72,103
193026,note_on,21,0,8,,,,,,,,,12,,,,60,115
193030,note_on,21,0,9,,,,,,,,,13,,,,48,106
193031,note_on,10,0,3,,,,,,,,,3,,,,60,103
193032,note_on,21,0,10,,,,,,,,,14,,,,36,100
193059,note_on,39,0,6,,,,,,,,,10,,,,72,0
193061,note_on,39,0,7,,,,,,,,,11,,,,72,0
193065,note_on,39,0,8,,,,,,,,,12,,,,60,0
193069,note_on,39,0,9,,,,,,,,,13,,,,48,0
193071,note_on,39,0,10,,,,,,,,,14,,,,36,0
193073,note_on,50,0,1,,,,,,,,,0,,,,72,0
193075,note_on,50,0,2,,,,,,,,,1,,,,72,0
193080,note_on,21,0,6,,,,,,,,,10,,,,74,118
193081,note_on,50,0,3,,,,,,,,,3,,,,60,0
193082,note_on,21,0,7,,,,,,,,,11,,,,74,118
193083,note_on,10,0,1,,,,,,,,,0,,,,74,103
193085,note_on,10,0,2,,,,,,,,,1,,,,74,103
193086,note_on,21,0,8,,,,,,,,,12,,,,62,116
193090,note_on,21,0,9,,,,,,,,,13,,,,50,107
193091,note_on,10,0,3,,,,,,,,,3,,,,62,103
193092,note_on,21,0,10,,,,,,,,,14,,,,38,101
193119,note_on,39,0,6,,,,,,,,,10,,,,74,0
193121,note_on,39,0,7,,,,,,,,,11,,,,74,0
193125,note_on,39,0,8,,,,,,,,,12,,,,62,0
193129,note_on,39,0,9,,,,,,,,,13,,,,50,0
193131,note_on,39,0,10,,,,,,,,,14,,,,38,0
193133,note_on,50,0,1,,,,,,,,,0,,,,74,0
193135,note_on,50,0,2,,,,,,,,,1,,,,74,0
193140,note_on,21,0,6,,,,,,,,,10,,,,75,119
193141,note_on,50,0,3,,,,,,,,,3,,,,62,0
193142,note_on,21,0,7,,,,,,,,,11,,,,75,119
193143,note_on,10,0,1,,,,,,,,,0,,,,75,104
193145,note_on,10,0,2,,,,,,,,,1,,,,75,104
193146,note_on,21,0,8,,,,,,,,,12,,,,63,117
193150,note_on,21,0,9,,,,,,,,,13,,,,51,108
193151,note_on,10,0,3,,,,,,,,,3,,,,63,104
193152,note_on,21,0,10,,,,,,,,,14,,,,39,102
193179,note_on,39,0,6,,,,,,,,,10,,,,75,0
193181,note_on,39,0,7,,,,,,,,,11,,,,75,0
193185,note_on,39,0,8,,,,,,,,,12,,,,63,0
193189,note_on,39,0,9,,,,,,,,,13,,,,51,0
193191,note_on,39,0,10,,,,,,,,,14,,,,39,0
193193,note_on,50,0,1,,,,,,,,,0,,,,75,0
193195,note_on,50,0,2,,,,,,,,,1,,,,75,0
193200,set_tempo,240,1,0,,,,,,256959,,,,,,,,
193200,note_on,21,0,6,,,,,,,,,10,,,,77,120
193201,note_on,50,0,3,,,,,,,,,3,,,,63,0
193202,note_on,21,0,7,,,,,,,,,11,,,,77,120
193203,note_on,10,0,1,,,,,,,,,0,,,,77,105
193205,note_on,10,0,2,,,,,,,,,1,,,,77,105
193206,note_on,21,0,8,,,,,,,,,12,,,,65,118
193210,note_on,21,0,9,,,,,,,,,13,,,,53,109
193211,note_on,10,0,3,,,,,,,,,3,,,,65,105
193212,note_on,21,0,10,,,,,,,,,14,,,,41,103
193239,note_on,39,0,6,,,,,,,,,10,,,,77,0
193241,note_on,39,0,7,,,,,,,,,11,,,,77,0
193245,note_on,39,0,8,,,,,,,,,12,,,,65,0
193249,note_on,39,0,9,,,,,,,,,13,,,,53,0
193251,note_on,39,0,10,,,,,,,,,14,,,,41,0
193253,note_on,50,0,1,,,,,,,,,0,,,,77,0
193255,note_on,50,0,2,,,,,,,,,1,,,,77,0
193260,note_on,21,0,6,,,,,,,,,10,,,,79,121
193261,note_on,50,0,3,,,,,,,,,3,,,,65,0
193262,note_on,21,0,7,,,,,,,,,11,,,,79,121
193263,note_on,10,0,1,,,,,,,,,0,,,,79,106
193265,note_on,10,0,2,,,,,,,,,1,,,,79,106
193266,note_on,21,0,8,,,,,,,,,12,,,,67,119
193270,note_on,21,0,9,,,,,,,,,13,,,,55,110
193271,note_on,10,0,3,,,,,,,,,3,,,,67,106
193272,note_on,21,0,10,,,,,,,,,14,,,,43,104
193299,note_on,39,0,6,,,,,,,,,10,,,,79,0
193301,note_on,39,0,7,,,,,,,,,11,,,,79,0
193305,note_on,39,0,8,,,,,,,,,12,,,,67,0
193309,note_on,39,0,9,,,,,,,,,13,,,,55,0
193311,note_on,39,0,10,,,,,,,,,14,,,,43,0
193313,note_on,50,0,1,,,,,,,,,0,,,,79,0
193315,note_on,50,0,2,,,,,,,,,1,,,,79,0
193320,note_on,21,0,6,,,,,,,,,10,,,,81,122
193321,note_on,50,0,3,,,,,,,,,3,,,,67,0
193322,note_on,21,0,7,,,,,,,,,11,,,,81,122
193323,note_on,10,0,1,,,,,,,,,0,,,,81,107
193325,note_on,10,0,2,,,,,,,,,1,,,,81,107
193326,note_on,21,0,8,,,,,,,,,12,,,,69,120
193330,note_on,21,0,9,,,,,,,,,13,,,,57,111
193331,note_on,10,0,3,,,,,,,,,3,,,,69,107
193332,note_on,21,0,10,,,,,,,,,14,,,,45,105
193359,note_on,39,0,6,,,,,,,,,10,,,,81,0
193361,note_on,39,0,7,,,,,,,,,11,,,,81,0
193365,note_on,39,0,8,,,,,,,,,12,,,,69,0
193369,note_on,39,0,9,,,,,,,,,13,,,,57,0
193371,note_on,39,0,10,,,,,,,,,14,,,,45,0
193373,note_on,50,0,1,,,,,,,,,0,,,,81,0
193375,note_on,50,0,2,,,,,,,,,1,,,,81,0
193380,note_on,21,0,6,,,,,,,,,10,,,,82,123
193381,note_on,50,0,3,,,,,,,,,3,,,,69,0
193382,note_on,21,0,7,,,,,,,,,11,,,,82,123
193383,note_on,10,0,1,,,,,,,,,0,,,,82,108
193385,note_on,10,0,2,,,,,,,,,1,,,,82,108
193386,note_on,21,0,8,,,,,,,,,12,,,,70,121
193390,note_on,21,0,9,,,,,,,,,13,,,,58,112
193391,note_on,10,0,3,,,,,,,,,3,,,,70,108
193392,note_on,21,0,10,,,,,,,,,14,,,,46,106
193419,note_on,39,0,6,,,,,,,,,10,,,,82,0
193421,note_on,39,0,7,,,,,,,,,11,,,,82,0
193425,note_on,39,0,8,,,,,,,,,12,,,,70,0
193429,note_on,39,0,9,,,,,,,,,13,,,,58,0
193431,note_on,39,0,10,,,,,,,,,14,,,,46,0
193433,note_on,50,0,1,,,,,,,,,0,,,,82,0
193435,note_on,50,0,2,,,,,,,,,1,,,,82,0
193440,set_tempo,240,1,0,,,,,,263736,,,,,,,,
193440,note_on,0,0,6,,,,,,,,,10,,,,74,125
193440,note_on,21,0,6,,,,,,,,,10,,,,83,125
193441,note_on,50,0,3,,,,,,,,,3,,,,70,0
193442,note_on,21,0,7,,,,,,,,,11,,,,77,125
193443,note_on,10,0,1,,,,,,,,,0,,,,83,97
193444,note_on,840,0,4,,,,,,,,,4,,,,62,100
193445,note_on,10,0,2,,,,,,,,,1,,,,74,97
193445,note_on,0,0,2,,,,,,,,,1,,,,77,110
193446,note_on,21,0,8,,,,,,,,,12,,,,68,123
193446,note_on,840,0,5,,,,,,,,,5,,,,62,100
193450,note_on,21,0,9,,,,,,,,,13,,,,56,114
193451,note_on,10,0,3,,,,,,,,,3,,,,57,110
193452,note_on,21,0,10,,,,,,,,,14,,,,44,108
193479,note_on,0,0,6,,,,,,,,,10,,,,83,0
193479,note_on,39,0,6,,,,,,,,,10,,,,74,0
193481,note_on,39,0,7,,,,,,,,,11,,,,77,0
193485,note_on,39,0,8,,,,,,,,,12,,,,68,0
193489,note_on,39,0,9,,,,,,,,,13,,,,56,0
193491,note_on,39,0,10,,,,,,,,,14,,,,44,0
193500,note_on,0,0,6,,,,,,,,,10,,,,83,108
193500,note_on,21,0,6,,,,,,,,,10,,,,74,108
193502,note_on,21,0,7,,,,,,,,,11,,,,77,108
193506,note_on,21,0,8,,,,,,,,,12,,,,68,106
193510,note_on,21,0,9,,,,,,,,,13,,,,56,97
193512,note_on,21,0,10,,,,,,,,,14,,,,44,91
193539,note_on,39,0,6,,,,,,,,,10,,,,83,0
193539,note_on,0,0,6,,,,,,,,,10,,,,74,0
193541,note_on,39,0,7,,,,,,,,,11,,,,77,0
193545,note_on,39,0,8,,,,,,,,,12,,,,68,0
193549,note_on,39,0,9,,,,,,,,,13,,,,56,0
193551,note_on,39,0,10,,,,,,,,,14,,,,44,0
193560,note_on,21,0,6,,,,,,,,,10,,,,74,110
193560,note_on,0,0,6,,,,,,,,,10,,,,83,110
193562,note_on,21,0,7,,,,,,,,,11,,,,77,110
193566,note_on,21,0,8,,,,,,,,,12,,,,68,108
193570,note_on,21,0,9,,,,,,,,,13,,,,56,99
193572,note_on,21,0,10,,,,,,,,,14,,,,44,93
193599,note_on,0,0,6,,,,,,,,,10,,,,74,0
193599,note_on,39,0,6,,,,,,,,,10,,,,83,0
193601,note_on,39,0,7,,,,,,,,,11,,,,77,0
193605,note_on,39,0,8,,,,,,,,,12,,,,68,0
193609,note_on,39,0,9,,,,,,,,,13,,,,56,0
193611,note_on,39,0,10,,,,,,,,,14,,,,44,0
193620,note_on,21,0,6,,,,,,,,,10,,,,74,101
193620,note_on,0,0,6,,,,,,,,,10,,,,83,101
193622,note_on,21,0,7,,,,,,,,,11,,,,77,101
193626,note_on,21,0,8,,,,,,,,,12,,,,68,99
193630,note_on,21,0,9,,,,,,,,,13,,,,56,90
193632,note_on,21,0,10,,,,,,,,,14,,,,44,84
193659,note_on,39,0,6,,,,,,,,,10,,,,83,0
193659,note_on,0,0,6,,,,,,,,,10,,,,74,0
193661,note_on,39,0,7,,,,,,,,,11,,,,77,0
193665,note_on,39,0,8,,,,,,,,,12,,,,68,0
193669,note_on,39,0,9,,,,,,,,,13,,,,56,0
193671,note_on,39,0,10,,,,,,,,,14,,,,44,0
193680,set_tempo,240,1,0,,,,,,254777,,,,,,,,
193680,note_on,0,0,6,,,,,,,,,10,,,,83,110
193680,note_on,21,0,6,,,,,,,,,10,,,,74,110
193682,note_on,21,0,7,,,,,,,,,11,,,,79,110
193685,note_on,240,0,2,,,,,,,,,1,,,,77,0
193685,note_on,0,0,2,,,,,,,,,1,,,,79,97
193686,note_on,21,0,8,,,,,,,,,12,,,,67,108
193690,note_on,21,0,9,,,,,,,,,13,,,,55,99
193691,note_on,0,0,3,,,,,,,,,3,,,,55,97
193691,note_on,240,0,3,,,,,,,,,3,,,,57,0
193692,note_on,21,0,10,,,,,,,,,14,,,,43,93
193719,note_on,39,0,6,,,,,,,,,10,,,,83,0
193719,note_on,0,0,6,,,,,,,,,10,,,,74,0
193721,note_on,39,0,7,,,,,,,,,11,,,,79,0
193725,note_on,39,0,8,,,,,,,,,12,,,,67,0
193729,note_on,39,0,9,,,,,,,,,13,,,,55,0
193731,note_on,39,0,10,,,,,,,,,14,,,,43,0
193740,note_on,21,0,6,,,,,,,,,10,,,,74,101
193740,note_on,0,0,6,,,,,,,,,10,,,,83,101
193742,note_on,21,0,7,,,,,,,,,11,,,,79,101
193746,note_on,21,0,8,,,,,,,,,12,,,,67,99
193750,note_on,21,0,9,,,,,,,,,13,,,,55,90
193752,note_on,21,0,10,,,,,,,,,14,,,,43,84
193779,note_on,39,0,6,,,,,,,,,10,,,,83,0
193779,note_on,0,0,6,,,,,,,,,10,,,,74,0
193781,note_on,39,0,7,,,,,,,,,11,,,,79,0
193785,note_on,39,0,8,,,,,,,,,12,,,,67,0
193789,note_on,39,0,9,,,,,,,,,13,,,,55,0
193791,note_on,39,0,10,,,,,,,,,14,,,,43,0
193800,note_on,0,0,6,,,,,,,,,10,,,,74,110
193800,note_on,21,0,6,,,,,,,,,10,,,,83,110
193802,note_on,21,0,7,,,,,,,,,11,,,,80,110
193805,note_on,120,0,2,,,,,,,,,1,,,,79,0
193805,note_on,0,0,2,,,,,,,,,1,,,,81,97
193806,note_on,21,0,8,,,,,,,,,12,,,,65,108
193810,note_on,21,0,9,,,,,,,,,13,,,,53,99
193811,note_on,120,0,3,,,,,,,,,3,,,,55,0
193811,note_on,0,0,3,,,,,,,,,3,,,,53,97
193812,note_on,21,0,10,,,,,,,,,14,,,,41,93
193839,note_on,39,0,6,,,,,,,,,10,,,,74,0
193839,note_on,0,0,6,,,,,,,,,10,,,,83,0
193841,note_on,39,0,7,,,,,,,,,11,,,,80,0
193845,note_on,39,0,8,,,,,,,,,12,,,,65,0
193849,note_on,39,0,9,,,,,,,,,13,,,,53,0
193851,note_on,39,0,10,,,,,,,,,14,,,,41,0
193860,note_on,0,0,6,,,,,,,,,10,,,,83,101
193860,note_on,21,0,6,,,,,,,,,10,,,,74,101
193862,note_on,21,0,7,,,,,,,,,11,,,,80,101
193866,note_on,21,0,8,,,,,,,,,12,,,,65,99
193870,note_on,21,0,9,,,,,,,,,13,,,,53,90
193872,note_on,21,0,10,,,,,,,,,14,,,,41,84
193899,note_on,39,0,6,,,,,,,,,10,,,,83,0
193899,note_on,0,0,6,,,,,,,,,10,,,,74,0
193901,note_on,39,0,7,,,,,,,,,11,,,,80,0
193905,note_on,39,0,8,,,,,,,,,12,,,,65,0
193909,note_on,39,0,9,,,,,,,,,13,,,,53,0
193911,note_on,39,0,10,,,,,,,,,14,,,,41,0
193919,note_on,475,0,4,,,,,,,,,4,,,,62,0
193920,note_on,115,0,2,,,,,,,,,1,,,,81,0
193920,set_tempo,240,1,0,,,,,,263736,,,,,,,,
193920,note_on,21,0,6,,,,,,,,,10,,,,84,110
193921,note_on,475,0,5,,,,,,,,,5,,,,62,0
193922,note_on,21,0,7,,,,,,,,,11,,,,79,110
193923,note_on,0,0,1,,,,,,,,,0,,,,84,97
193923,note_on,480,0,1,,,,,,,,,0,,,,83,0
193924,note_on,5,0,4,,,,,,,,,4,,,,63,88
193925,note_on,5,0,2,,,,,,,,,1,,,,74,0
193925,note_on,0,0,2,,,,,,,,,1,,,,79,97
193925,note_on,0,0,2,,,,,,,,,1,,,,75,97
193926,note_on,21,0,8,,,,,,,,,12,,,,63,108
193926,note_on,115,0,3,,,,,,,,,3,,,,53,0
193926,note_on,5,0,5,,,,,,,,,5,,,,60,88
193930,note_on,21,0,9,,,,,,,,,13,,,,51,99
193931,note_on,5,0,3,,,,,,,,,3,,,,51,97
193932,note_on,21,0,10,,,,,,,,,14,,,,39,93
193959,note_on,39,0,6,,,,,,,,,10,,,,84,0
193961,note_on,39,0,7,,,,,,,,,11,,,,79,0
193965,note_on,39,0,8,,,,,,,,,12,,,,63,0
193969,note_on,39,0,9,,,,,,,,,13,,,,51,0
193971,note_on,39,0,10,,,,,,,,,14,,,,39,0
193980,note_on,21,0,6,,,,,,,,,10,,,,84,101
193982,note_on,21,0,7,,,,,,,,,11,,,,79,101
193986,note_on,21,0,8,,,,,,,,,12,,,,63,99
193990,note_on,21,0,9,,,,,,,,,13,,,,51,90
193992,note_on,21,0,10,,,,,,,,,14,,,,39,84
194019,note_on,39,0,6,,,,,,,,,10,,,,84,0
194021,note_on,39,0,7,,,,,,,,,11,,,,79,0
194025,note_on,39,0,8,,,,,,,,,12,,,,63,0
194029,note_on,39,0,9,,,,,,,,,13,,,,51,0
194031,note_on,39,0,10,,,,,,,,,14,,,,39,0
194040,note_on,21,0,6,,,,,,,,,10,,,,84,110
194042,note_on,21,0,7,,,,,,,,,11,,,,79,110
194046,note_on,21,0,8,,,,,,,,,12,,,,63,108
194050,note_on,21,0,9,,,,,,,,,13,,,,51,99
194052,note_on,21,0,10,,,,,,,,,14,,,,39,93
194079,note_on,39,0,6,,,,,,,,,10,,,,84,0
194081,note_on,39,0,7,,,,,,,,,11,,,,79,0
194085,note_on,39,0,8,,,,,,,,,12,,,,63,0
194089,note_on,39,0,9,,,,,,,,,13,,,,51,0
194091,note_on,39,0,10,,,,,,,,,14,,,,39,0
194100,note_on,21,0,6,,,,,,,,,10,,,,84,101
194102,note_on,21,0,7,,,,,,,,,11,,,,79,101
194106,note_on,21,0,8,,,,,,,,,12,,,,63,99
194110,note_on,21,0,9,,,,,,,,,13,,,,51,90
194112,note_on,21,0,10,,,,,,,,,14,,,,39,84
194139,note_on,39,0,6,,,,,,,,,10,,,,84,0
194141,note_on,39,0,7,,,,,,,,,11,,,,79,0
194145,note_on,39,0,8,,,,,,,,,12,,,,63,0
194149,note_on,39,0,9,,,,,,,,,13,,,,51,0
194151,note_on,39,0,10,,,,,,,,,14,,,,39,0
194160,note_on,21,0,6,,,,,,,,,10,,,,86,110
194160,set_tempo,240,1,0,,,,,,254777,,,,,,,,
194162,note_on,21,0,7,,,,,,,,,11,,,,83,110
194163,note_on,0,0,1,,,,,,,,,0,,,,86,97
194163,note_on,240,0,1,,,,,,,,,0,,,,84,0
194164,note_on,240,0,4,,,,,,,,,4,,,,63,0
194165,note_on,0,0,2,,,,,,,,,1,,,,77,97
194165,note_on,0,0,2,,,,,,,,,1,,,,83,97
194165,note_on,0,0,2,,,,,,,,,1,,,,79,0
194165,note_on,240,0,2,,,,,,,,,1,,,,75,0
194166,note_on,21,0,8,,,,,,,,,12,,,,62,108
194166,note_on,240,0,5,,,,,,,,,5,,,,60,0
194170,note_on,21,0,9,,,,,,,,,13,,,,50,99
194171,note_on,0,0,3,,,,,,,,,3,,,,50,97
194171,note_on,240,0,3,,,,,,,,,3,,,,51,0
194172,note_on,21,0,10,,,,,,,,,14,,,,38,93
194199,note_on,39,0,6,,,,,,,,,10,,,,86,0
194201,note_on,39,0,7,,,,,,,,,11,,,,83,0
194205,note_on,39,0,8,,,,,,,,,12,,,,62,0
194209,note_on,39,0,9,,,,,,,,,13,,,,50,0
194211,note_on,39,0,10,,,,,,,,,14,,,,38,0
194220,note_on,21,0,6,,,,,,,,,10,,,,86,101
194222,note_on,21,0,7,,,,,,,,,11,,,,83,101
194226,note_on,21,0,8,,,,,,,,,12,,,,62,99
194230,note_on,21,0,9,,,,,,,,,13,,,,50,90
194232,note_on,21,0,10,,,,,,,,,14,,,,38,84
194259,note_on,39,0,6,,,,,,,,,10,,,,86,0
194261,note_on,39,0,7,,,,,,,,,11,,,,83,0
194265,note_on,39,0,8,,,,,,,,,12,,,,62,0
194269,note_on,39,0,9,,,,,,,,,13,,,,50,0
194271,note_on,39,0,10,,,,,,,,,14,,,,38,0
194280,note_on,21,0,6,,,,,,,,,10,,,,87,110
194282,note_on,21,0,7,,,,,,,,,11,,,,84,110
194283,note_on,120,0,1,,,,,,,,,0,,,,86,0
194283,note_on,0,0,1,,,,,,,,,0,,,,87,97
194285,note_on,0,0,2,,,,,,,,,1,,,,79,97
194285,note_on,0,0,2,,,,,,,,,1,,,,84,97
194285,note_on,0,0,2,,,,,,,,,1,,,,83,0
194285,note_on,120,0,2,,,,,,,,,1,,,,77,0
194286,note_on,21,0,8,,,,,,,,,12,,,,60,108
194290,note_on,21,0,9,,,,,,,,,13,,,,48,99
194291,note_on,0,0,3,,,,,,,,,3,,,,48,97
194291,note_on,120,0,3,,,,,,,,,3,,,,50,0
194292,note_on,21,0,10,,,,,,,,,14,,,,36,93
194319,note_on,39,0,6,,,,,,,,,10,,,,87,0
194321,note_on,39,0,7,,,,,,,,,11,,,,84,0
194325,note_on,39,0,8,,,,,,,,,12,,,,60,0
194329,note_on,39,0,9,,,,,,,,,13,,,,48,0
194331,note_on,39,0,10,,,,,,,,,14,,,,36,0
194340,note_on,21,0,6,,,,,,,,,10,,,,87,101
194342,note_on,21,0,7,,,,,,,,,11,,,,84,101
194346,note_on,21,0,8,,,,,,,,,12,,,,60,99
194350,note_on,21,0,9,,,,,,,,,13,,,,48,90
194352,note_on,21,0,10,,,,,,,,,14,,,,36,84
194379,note_on,39,0,6,,,,,,,,,10,,,,87,0
194381,note_on,39,0,7,,,,,,,,,11,,,,84,0
194385,note_on,39,0,8,,,,,,,,,12,,,,60,0
194389,note_on,39,0,9,,,,,,,,,13,,,,48,0
194391,note_on,39,0,10,,,,,,,,,14,,,,36,0
194398,note_on,115,0,1,,,,,,,,,0,,,,87,0
194400,set_tempo,240,1,0,,,,,,263736,,,,,,,,
194400,note_on,21,0,6,,,,,,,,,10,,,,91,125
194400,note_on,0,0,2,,,,,,,,,1,,,,84,0
194400,note_on,115,0,2,,,,,,,,,1,,,,79,0
194402,note_on,21,0,7,,,,,,,,,11,,,,87,125
194403,note_on,5,0,1,,,,,,,,,0,,,,91,110
194404,note_on,240,0,4,,,,,,,,,4,,,,65,100
194405,note_on,0,0,2,,,,,,,,,1,,,,79,110
194405,note_on,5,0,2,,,,,,,,,1,,,,75,110
194406,note_on,240,0,5,,,,,,,,,5,,,,53,100
194406,note_on,115,0,3,,,,,,,,,3,,,,48,0
194406,note_on,0,0,8,,,,,,,,,12,,,,60,123
194406,note_on,21,0,8,,,,,,,,,12,,,,69,123
194410,note_on,21,0,9,,,,,,,,,13,,,,53,114
194411,note_on,0,0,3,,,,,,,,,3,,,,41,110
194411,note_on,5,0,3,,,,,,,,,3,,,,57,110
194412,note_on,21,0,10,,,,,,,,,14,,,,41,108
194439,note_on,39,0,6,,,,,,,,,10,,,,91,0
194441,note_on,39,0,7,,,,,,,,,11,,,,87,0
194445,note_on,0,0,8,,,,,,,,,12,,,,69,0
194445,note_on,39,0,8,,,,,,,,,12,,,,60,0
194449,note_on,39,0,9,,,,,,,,,13,,,,53,0
194451,note_on,39,0,10,,,,,,,,,14,,,,41,0
194460,note_on,21,0,6,,,,,,,,,10,,,,91,108
194462,note_on,21,0,7,,,,,,,,,11,,,,87,108
194466,note_on,21,0,8,,,,,,,,,12,,,,60,106
194466,note_on,0,0,8,,,,,,,,,12,,,,69,106
194470,note_on,21,0,9,,,,,,,,,13,,,,53,97
194472,note_on,21,0,10,,,,,,,,,14,,,,41,91
194499,note_on,39,0,6,,,,,,,,,10,,,,91,0
194501,note_on,39,0,7,,,,,,,,,11,,,,87,0
194505,note_on,39,0,8,,,,,,,,,12,,,,69,0
194505,note_on,0,0,8,,,,,,,,,12,,,,60,0
194509,note_on,39,0,9,,,,,,,,,13,,,,53,0
194511,note_on,39,0,10,,,,,,,,,14,,,,41,0
194520,note_on,21,0,6,,,,,,,,,10,,,,91,110
194522,note_on,21,0,7,,,,,,,,,11,,,,87,110
194526,note_on,0,0,8,,,,,,,,,12,,,,69,108
194526,note_on,21,0,8,,,,,,,,,12,,,,60,108
194530,note_on,21,0,9,,,,,,,,,13,,,,53,99
194532,note_on,21,0,10,,,,,,,,,14,,,,41,93
194559,note_on,39,0,6,,,,,,,,,10,,,,91,0
194561,note_on,39,0,7,,,,,,,,,11,,,,87,0
194565,note_on,39,0,8,,,,,,,,,12,,,,69,0
194565,note_on,0,0,8,,,,,,,,,12,,,,60,0
194569,note_on,39,0,9,,,,,,,,,13,,,,53,0
194571,note_on,39,0,10,,,,,,,,,14,,,,41,0
194580,note_on,21,0,6,,,,,,,,,10,,,,91,101
194582,note_on,21,0,7,,,,,,,,,11,,,,87,101
194586,note_on,0,0,8,,,,,,,,,12,,,,60,99
194586,note_on,21,0,8,,,,,,,,,12,,,,69,99
194590,note_on,21,0,9,,,,,,,,,13,,,,53,90
194592,note_on,21,0,10,,,,,,,,,14,,,,41,84
194619,note_on,39,0,6,,,,,,,,,10,,,,91,0
194621,note_on,39,0,7,,,,,,,,,11,,,,87,0
194625,note_on,0,0,8,,,,,,,,,12,,,,69,0
194625,note_on,39,0,8,,,,,,,,,12,,,,60,0
194629,note_on,39,0,9,,,,,,,,,13,,,,53,0
194631,note_on,39,0,10,,,,,,,,,14,,,,41,0
194640,set_tempo,240,1,0,,,,,,254777,,,,,,,,
194640,note_on,21,0,6,,,,,,,,,10,,,,91,110
194642,note_on,21,0,7,,,,,,,,,11,,,,87,110
194646,note_on,21,0,8,,,,,,,,,12,,,,60,108
194646,note_on,0,0,8,,,,,,,,,12,,,,69,108
194650,note_on,21,0,9,,,,,,,,,13,,,,53,99
194652,note_on,21,0,10,,,,,,,,,14,,,,41,93
194679,note_on,39,0,6,,,,,,,,,10,,,,91,0
194681,note_on,39,0,7,,,,,,,,,11,,,,87,0
194685,note_on,0,0,8,,,,,,,,,12,,,,60,0
194685,note_on,39,0,8,,,,,,,,,12,,,,69,0
194689,note_on,39,0,9,,,,,,,,,13,,,,53,0
194691,note_on,39,0,10,,,,,,,,,14,,,,41,0
194700,note_on,21,0,6,,,,,,,,,10,,,,91,101
194702,note_on,21,0,7,,,,,,,,,11,,,,87,101
194706,note_on,21,0,8,,,,,,,,,12,,,,69,99
194706,note_on,0,0,8,,,,,,,,,12,,,,60,99
194710,note_on,21,0,9,,,,,,,,,13,,,,53,90
194712,note_on,21,0,10,,,,,,,,,14,,,,41,84
194739,note_on,39,0,6,,,,,,,,,10,,,,91,0
194741,note_on,39,0,7,,,,,,,,,11,,,,87,0
194745,note_on,39,0,8,,,,,,,,,12,,,,60,0
194745,note_on,0,0,8,,,,,,,,,12,,,,69,0
194749,note_on,39,0,9,,,,,,,,,13,,,,53,0
194751,note_on,39,0,10,,,,,,,,,14,,,,41,0
194760,note_on,21,0,6,,,,,,,,,10,,,,91,110
194762,note_on,21,0,7,,,,,,,,,11,,,,87,110
194766,note_on,0,0,8,,,,,,,,,12,,,,69,108
194766,note_on,21,0,8,,,,,,,,,12,,,,60,108
194770,note_on,21,0,9,,,,,,,,,13,,,,53,99
194772,note_on,21,0,10,,,,,,,,,14,,,,41,93
194799,note_on,39,0,6,,,,,,,,,10,,,,91,0
194801,note_on,39,0,7,,,,,,,,,11,,,,87,0
194805,note_on,0,0,8,,,,,,,,,12,,,,60,0
194805,note_on,39,0,8,,,,,,,,,12,,,,69,0
194809,note_on,39,0,9,,,,,,,,,13,,,,53,0
194811,note_on,39,0,10,,,,,,,,,14,,,,41,0
194820,note_on,21,0,6,,,,,,,,,10,,,,91,101
194822,note_on,21,0,7,,,,,,,,,11,,,,87,101
194826,note_on,21,0,8,,,,,,,,,12,,,,60,99
194826,note_on,0,0,8,,,,,,,,,12,,,,69,99
194830,note_on,21,0,9,,,,,,,,,13,,,,53,90
194832,note_on,21,0,10,,,,,,,,,14,,,,41,84
194859,note_on,39,0,6,,,,,,,,,10,,,,91,0
194861,note_on,39,0,7,,,,,,,,,11,,,,87,0
194865,note_on,0,0,8,,,,,,,,,12,,,,60,0
194865,note_on,39,0,8,,,,,,,,,12,,,,69,0
194869,note_on,39,0,9,,,,,,,,,13,,,,53,0
194871,note_on,39,0,10,,,,,,,,,14,,,,41,0
194880,note_on,21,0,6,,,,,,,,,10,,,,91,110
194880,set_tempo,240,1,0,,,,,,263736,,,,,,,,
194882,note_on,21,0,7,,,,,,,,,11,,,,87,110
194886,note_on,0,0,8,,,,,,,,,12,,,,69,108
194886,note_on,21,0,8,,,,,,,,,12,,,,60,108
194890,note_on,21,0,9,,,,,,,,,13,,,,53,99
194892,note_on,21,0,10,,,,,,,,,14,,,,41,93
194919,note_on,39,0,6,,,,,,,,,10,,,,91,0
194921,note_on,39,0,7,,,,,,,,,11,,,,87,0
194925,note_on,0,0,8,,,,,,,,,12,,,,60,0
194925,note_on,39,0,8,,,,,,,,,12,,,,69,0
194929,note_on,39,0,9,,,,,,,,,13,,,,53,0
194931,note_on,39,0,10,,,,,,,,,14,,,,41,0
194940,note_on,21,0,6,,,,,,,,,10,,,,91,101
194942,note_on,21,0,7,,,,,,,,,11,,,,87,101
194946,note_on,0,0,8,,,,,,,,,12,,,,60,99
194946,note_on,21,0,8,,,,,,,,,12,,,,69,99
194950,note_on,21,0,9,,,,,,,,,13,,,,53,90
194952,note_on,21,0,10,,,,,,,,,14,,,,41,84
194979,note_on,39,0,6,,,,,,,,,10,,,,91,0
194981,note_on,39,0,7,,,,,,,,,11,,,,87,0
194985,note_on,0,0,8,,,,,,,,,12,,,,69,0
194985,note_on,39,0,8,,,,,,,,,12,,,,60,0
194989,note_on,39,0,9,,,,,,,,,13,,,,53,0
194991,note_on,39,0,10,,,,,,,,,14,,,,41,0
195000,note_on,21,0,6,,,,,,,,,10,,,,91,110
195002,note_on,21,0,7,,,,,,,,,11,,,,87,110
195006,note_on,21,0,8,,,,,,,,,12,,,,60,108
195006,note_on,0,0,8,,,,,,,,,12,,,,69,108
195010,note_on,21,0,9,,,,,,,,,13,,,,53,99
195012,note_on,21,0,10,,,,,,,,,14,,,,41,93
195039,note_on,39,0,6,,,,,,,,,10,,,,91,0
195041,note_on,39,0,7,,,,,,,,,11,,,,87,0
195045,note_on,39,0,8,,,,,,,,,12,,,,69,0
195045,note_on,0,0,8,,,,,,,,,12,,,,60,0
195049,note_on,39,0,9,,,,,,,,,13,,,,53,0
195051,note_on,39,0,10,,,,,,,,,14,,,,41,0
195060,note_on,21,0,6,,,,,,,,,10,,,,91,101
195062,note_on,21,0,7,,,,,,,,,11,,,,87,101
195066,note_on,21,0,8,,,,,,,,,12,,,,60,99
195066,note_on,0,0,8,,,,,,,,,12,,,,69,99
195070,note_on,21,0,9,,,,,,,,,13,,,,53,90
195072,note_on,21,0,10,,,,,,,,,14,,,,41,84
195099,note_on,39,0,6,,,,,,,,,10,,,,91,0
195101,note_on,39,0,7,,,,,,,,,11,,,,87,0
195105,note_on,0,0,8,,,,,,,,,12,,,,60,0
195105,note_on,39,0,8,,,,,,,,,12,,,,69,0
195109,note_on,39,0,9,,,,,,,,,13,,,,53,0
195111,note_on,39,0,10,,,,,,,,,14,,,,41,0
195120,set_tempo,240,1,0,,,,,,254777,,,,,,,,
195120,note_on,21,0,6,,,,,,,,,10,,,,89,110
195122,note_on,21,0,7,,,,,,,,,11,,,,86,110
195123,note_on,0,0,1,,,,,,,,,0,,,,89,97
195123,note_on,720,0,1,,,,,,,,,0,,,,91,0
195125,note_on,0,0,2,,,,,,,,,1,,,,74,97
195125,note_on,0,0,2,,,,,,,,,1,,,,75,0
195125,note_on,720,0,2,,,,,,,,,1,,,,79,0
195125,note_on,0,0,2,,,,,,,,,1,,,,77,97
195126,note_on,21,0,8,,,,,,,,,12,,,,69,108
195130,note_on,21,0,9,,,,,,,,,13,,,,53,99
195132,note_on,21,0,10,,,,,,,,,14,,,,41,93
195159,note_on,39,0,6,,,,,,,,,10,,,,89,0
195161,note_on,39,0,7,,,,,,,,,11,,,,86,0
195165,note_on,39,0,8,,,,,,,,,12,,,,69,0
195169,note_on,39,0,9,,,,,,,,,13,,,,53,0
195171,note_on,39,0,10,,,,,,,,,14,,,,41,0
195180,note_on,21,0,6,,,,,,,,,10,,,,89,101
195182,note_on,21,0,7,,,,,,,,,11,,,,86,101
195186,note_on,21,0,8,,,,,,,,,12,,,,69,99
195190,note_on,21,0,9,,,,,,,,,13,,,,53,90
195192,note_on,21,0,10,,,,,,,,,14,,,,41,84
195219,note_on,39,0,6,,,,,,,,,10,,,,89,0
195221,note_on,39,0,7,,,,,,,,,11,,,,86,0
195225,note_on,39,0,8,,,,,,,,,12,,,,69,0
195229,note_on,39,0,9,,,,,,,,,13,,,,53,0
195231,note_on,39,0,10,,,,,,,,,14,,,,41,0
195240,note_on,21,0,6,,,,,,,,,10,,,,87,110
195242,note_on,21,0,7,,,,,,,,,11,,,,84,110
195243,note_on,120,0,1,,,,,,,,,0,,,,89,0
195243,note_on,0,0,1,,,,,,,,,0,,,,87,97
195245,note_on,120,0,2,,,,,,,,,1,,,,77,0
195245,note_on,0,0,2,,,,,,,,,1,,,,74,0
195245,note_on,0,0,2,,,,,,,,,1,,,,72,97
195245,note_on,0,0,2,,,,,,,,,1,,,,75,97
195246,note_on,21,0,8,,,,,,,,,12,,,,69,108
195250,note_on,21,0,9,,,,,,,,,13,,,,53,99
195252,note_on,21,0,10,,,,,,,,,14,,,,41,93
195279,note_on,39,0,6,,,,,,,,,10,,,,87,0
195281,note_on,39,0,7,,,,,,,,,11,,,,84,0
195285,note_on,39,0,8,,,,,,,,,12,,,,69,0
195289,note_on,39,0,9,,,,,,,,,13,,,,53,0
195291,note_on,39,0,10,,,,,,,,,14,,,,41,0
195300,note_on,21,0,6,,,,,,,,,10,,,,87,101
195302,note_on,21,0,7,,,,,,,,,11,,,,84,101
195306,note_on,21,0,8,,,,,,,,,12,,,,69,99
195310,note_on,21,0,9,,,,,,,,,13,,,,53,90
195312,note_on,21,0,10,,,,,,,,,14,,,,41,84
195339,note_on,39,0,6,,,,,,,,,10,,,,87,0
195341,note_on,39,0,7,,,,,,,,,11,,,,84,0
195345,note_on,39,0,8,,,,,,,,,12,,,,69,0
195349,note_on,39,0,9,,,,,,,,,13,,,,53,0
195351,note_on,39,0,10,,,,,,,,,14,,,,41,0
195359,note_on,955,0,4,,,,,,,,,4,,,,65,0
195360,note_on,21,0,6,,,,,,,,,10,,,,86,110
195360,set_tempo,240,1,0,,,,,,263736,,,,,,,,
195361,note_on,955,0,5,,,,,,,,,5,,,,53,0
195362,note_on,21,0,7,,,,,,,,,11,,,,82,110
195363,note_on,0,0,1,,,,,,,,,0,,,,86,97
195363,note_on,120,0,1,,,,,,,,,0,,,,87,0
195364,note_on,5,0,4,,,,,,,,,4,,,,62,88
195365,note_on,120,0,2,,,,,,,,,1,,,,72,0
195365,note_on,0,0,2,,,,,,,,,1,,,,70,97
195365,note_on,0,0,2,,,,,,,,,1,,,,74,97
195365,note_on,0,0,2,,,,,,,,,1,,,,75,0
195366,note_on,21,0,8,,,,,,,,,12,,,,70,108
195366,note_on,5,0,5,,,,,,,,,5,,,,58,88
195370,note_on,21,0,9,,,,,,,,,13,,,,55,99
195371,note_on,0,0,3,,,,,,,,,3,,,,43,97
195371,note_on,0,0,3,,,,,,,,,3,,,,58,97
195371,note_on,0,0,3,,,,,,,,,3,,,,57,0
195371,note_on,960,0,3,,,,,,,,,3,,,,41,0
195372,note_on,21,0,10,,,,,,,,,14,,,,43,93
195399,note_on,39,0,6,,,,,,,,,10,,,,86,0
195401,note_on,39,0,7,,,,,,,,,11,,,,82,0
195405,note_on,39,0,8,,,,,,,,,12,,,,70,0
195409,note_on,39,0,9,,,,,,,,,13,,,,55,0
195411,note_on,39,0,10,,,,,,,,,14,,,,43,0
195420,note_on,21,0,6,,,,,,,,,10,,,,86,101
195422,note_on,21,0,7,,,,,,,,,11,,,,82,101
195426,note_on,21,0,8,,,,,,,,,12,,,,70,99
195430,note_on,21,0,9,,,,,,,,,13,,,,55,90
195432,note_on,21,0,10,,,,,,,,,14,,,,43,84
195459,note_on,39,0,6,,,,,,,,,10,,,,86,0
195461,note_on,39,0,7,,,,,,,,,11,,,,82,0
195465,note_on,39,0,8,,,,,,,,,12,,,,70,0
195469,note_on,39,0,9,,,,,,,,,13,,,,55,0
195471,note_on,39,0,10,,,,,,,,,14,,,,43,0
195480,note_on,21,0,6,,,,,,,,,10,,,,86,110
195482,note_on,21,0,7,,,,,,,,,11,,,,82,110
195486,note_on,21,0,8,,,,,,,,,12,,,,70,108
195490,note_on,21,0,9,,,,,,,,,13,,,,55,99
195492,note_on,21,0,10,,,,,,,,,14,,,,43,93
195519,note_on,39,0,6,,,,,,,,,10,,,,86,0
195521,note_on,39,0,7,,,,,,,,,11,,,,82,0
195525,note_on,39,0,8,,,,,,,,,12,,,,70,0
195529,note_on,39,0,9,,,,,,,,,13,,,,55,0
195531,note_on,39,0,10,,,,,,,,,14,,,,43,0
195540,note_on,21,0,6,,,,,,,,,10,,,,86,101
195542,note_on,21,0,7,,,,,,,,,11,,,,82,101
195546,note_on,21,0,8,,,,,,,,,12,,,,70,99
195550,note_on,21,0,9,,,,,,,,,13,,,,55,90
195552,note_on,21,0,10,,,,,,,,,14,,,,43,84
195579,note_on,39,0,6,,,,,,,,,10,,,,86,0
195581,note_on,39,0,7,,,,,,,,,11,,,,82,0
195585,note_on,39,0,8,,,,,,,,,12,,,,70,0
195589,note_on,39,0,9,,,,,,,,,13,,,,55,0
195591,note_on,39,0,10,,,,,,,,,14,,,,43,0
195593,note_on,230,0,1,,,,,,,,,0,,,,86,0
195594,note_on,230,0,4,,,,,,,,,4,,,,62,0
195595,note_on,0,0,2,,,,,,,,,1,,,,70,0
195595,note_on,230,0,2,,,,,,,,,1,,,,74,0
195596,note_on,230,0,5,,,,,,,,,5,,,,58,0
195600,note_on,21,0,6,,,,,,,,,10,,,,87,110
195600,set_tempo,240,1,0,,,,,,254777,,,,,,,,
195601,note_on,0,0,3,,,,,,,,,3,,,,58,0
195601,note_on,230,0,3,,,,,,,,,3,,,,43,0
195602,note_on,21,0,7,,,,,,,,,11,,,,84,110
195603,note_on,10,0,1,,,,,,,,,0,,,,87,97
195604,note_on,10,0,4,,,,,,,,,4,,,,63,88
195605,note_on,0,0,2,,,,,,,,,1,,,,72,97
195605,note_on,10,0,2,,,,,,,,,1,,,,75,97
195606,note_on,10,0,5,,,,,,,,,5,,,,60,88
195606,note_on,21,0,8,,,,,,,,,12,,,,63,108
195610,note_on,21,0,9,,,,,,,,,13,,,,51,99
195611,note_on,10,0,3,,,,,,,,,3,,,,51,97
195612,note_on,21,0,10,,,,,,,,,14,,,,39,93
195639,note_on,39,0,6,,,,,,,,,10,,,,87,0
195641,note_on,39,0,7,,,,,,,,,11,,,,84,0
195645,note_on,39,0,8,,,,,,,,,12,,,,63,0
195649,note_on,39,0,9,,,,,,,,,13,,,,51,0
195651,note_on,39,0,10,,,,,,,,,14,,,,39,0
195660,note_on,21,0,6,,,,,,,,,10,,,,87,101
195662,note_on,21,0,7,,,,,,,,,11,,,,84,101
195666,note_on,21,0,8,,,,,,,,,12,,,,63,99
195670,note_on,21,0,9,,,,,,,,,13,,,,51,90
195672,note_on,21,0,10,,,,,,,,,14,,,,39,84
195699,note_on,39,0,6,,,,,,,,,10,,,,87,0
195701,note_on,39,0,7,,,,,,,,,11,,,,84,0
195705,note_on,39,0,8,,,,,,,,,12,,,,63,0
195709,note_on,39,0,9,,,,,,,,,13,,,,51,0
195711,note_on,39,0,10,,,,,,,,,14,,,,39,0
195720,note_on,21,0,6,,,,,,,,,10,,,,87,110
195722,note_on,21,0,7,,,,,,,,,11,,,,84,110
195726,note_on,21,0,8,,,,,,,,,12,,,,63,108
195730,note_on,21,0,9,,,,,,,,,13,,,,51,99
195732,note_on,21,0,10,,,,,,,,,14,,,,39,93
195759,note_on,39,0,6,,,,,,,,,10,,,,87,0
195761,note_on,39,0,7,,,,,,,,,11,,,,84,0
195765,note_on,39,0,8,,,,,,,,,12,,,,63,0
195769,note_on,39,0,9,,,,,,,,,13,,,,51,0
195771,note_on,39,0,10,,,,,,,,,14,,,,39,0
195780,note_on,21,0,6,,,,,,,,,10,,,,87,101
195782,note_on,21,0,7,,,,,,,,,11,,,,84,101
195786,note_on,21,0,8,,,,,,,,,12,,,,63,99
195790,note_on,21,0,9,,,,,,,,,13,,,,51,90
195792,note_on,21,0,10,,,,,,,,,14,,,,39,84
195819,note_on,39,0,6,,,,,,,,,10,,,,87,0
195821,note_on,39,0,7,,,,,,,,,11,,,,84,0
195825,note_on,39,0,8,,,,,,,,,12,,,,63,0
195829,note_on,39,0,9,,,,,,,,,13,,,,51,0
195831,note_on,39,0,10,,,,,,,,,14,,,,39,0
195833,note_on,230,0,1,,,,,,,,,0,,,,87,0
195834,note_on,230,0,4,,,,,,,,,4,,,,63,0
195835,note_on,0,0,2,,,,,,,,,1,,,,75,0
195835,note_on,230,0,2,,,,,,,,,1,,,,72,0
195836,note_on,230,0,5,,,,,,,,,5,,,,60,0
195840,note_on,21,0,6,,,,,,,,,10,,,,86,110
195840,set_tempo,240,1,0,,,,,,263736,,,,,,,,
195841,note_on,230,0,3,,,,,,,,,3,,,,51,0
195842,note_on,21,0,7,,,,,,,,,11,,,,82,110
195843,note_on,10,0,1,,,,,,,,,0,,,,86,97
195844,note_on,10,0,4,,,,,,,,,4,,,,62,88
195845,note_on,10,0,2,,,,,,,,,1,,,,74,97
195845,note_on,0,0,2,,,,,,,,,1,,,,70,97
195846,note_on,21,0,8,,,,,,,,,12,,,,65,108
195846,note_on,10,0,5,,,,,,,,,5,,,,58,88
195850,note_on,21,0,9,,,,,,,,,13,,,,53,99
195851,note_on,10,0,3,,,,,,,,,3,,,,53,97
195852,note_on,21,0,10,,,,,,,,,14,,,,41,93
195879,note_on,39,0,6,,,,,,,,,10,,,,86,0
195881,note_on,39,0,7,,,,,,,,,11,,,,82,0
195885,note_on,39,0,8,,,,,,,,,12,,,,65,0
195889,note_on,39,0,9,,,,,,,,,13,,,,53,0
195891,note_on,39,0,10,,,,,,,,,14,,,,41,0
195900,note_on,21,0,6,,,,,,,,,10,,,,86,101
195902,note_on,21,0,7,,,,,,,,,11,,,,82,101
195906,note_on,21,0,8,,,,,,,,,12,,,,65,99
195910,note_on,21,0,9,,,,,,,,,13,,,,53,90
195912,note_on,21,0,10,,,,,,,,,14,,,,41,84
195939,note_on,39,0,6,,,,,,,,,10,,,,86,0
195941,note_on,39,0,7,,,,,,,,,11,,,,82,0
195945,note_on,39,0,8,,,,,,,,,12,,,,65,0
195949,note_on,39,0,9,,,,,,,,,13,,,,53,0
195951,note_on,39,0,10,,,,,,,,,14,,,,41,0
195960,note_on,21,0,6,,,,,,,,,10,,,,86,110
195962,note_on,21,0,7,,,,,,,,,11,,,,82,110
195966,note_on,21,0,8,,,,,,,,,12,,,,65,108
195970,note_on,21,0,9,,,,,,,,,13,,,,53,99
195972,note_on,21,0,10,,,,,,,,,14,,,,41,93
195999,note_on,39,0,6,,,,,,,,,10,,,,86,0
196001,note_on,39,0,7,,,,,,,,,11,,,,82,0
196005,note_on,39,0,8,,,,,,,,,12,,,,65,0
196009,note_on,39,0,9,,,,,,,,,13,,,,53,0
196011,note_on,39,0,10,,,,,,,,,14,,,,41,0
196020,note_on,21,0,6,,,,,,,,,10,,,,86,101
196022,note_on,21,0,7,,,,,,,,,11,,,,82,101
196026,note_on,21,0,8,,,,,,,,,12,,,,65,99
196030,note_on,21,0,9,,,,,,,,,13,,,,53,90
196032,note_on,21,0,10,,,,,,,,,14,,,,41,84
196059,note_on,39,0,6,,,,,,,,,10,,,,86,0
196061,note_on,39,0,7,,,,,,,,,11,,,,82,0
196065,note_on,39,0,8,,,,,,,,,12,,,,65,0
196069,note_on,39,0,9,,,,,,,,,13,,,,53,0
196071,note_on,39,0,10,,,,,,,,,14,,,,41,0
196073,note_on,230,0,1,,,,,,,,,0,,,,86,0
196074,note_on,230,0,4,,,,,,,,,4,,,,62,0
196075,note_on,230,0,2,,,,,,,,,1,,,,70,0
196075,note_on,0,0,2,,,,,,,,,1,,,,74,0
196076,note_on,230,0,5,,,,,,,,,5,,,,58,0
196080,note_on,21,0,6,,,,,,,,,10,,,,84,110
196080,set_tempo,240,1,0,,,,,,254777,,,,,,,,
196081,note_on,230,0,3,,,,,,,,,3,,,,53,0
196082,note_on,21,0,7,,,,,,,,,11,,,,81,110
196083,note_on,10,0,1,,,,,,,,,0,,,,84,97
196084,note_on,10,0,4,,,,,,,,,4,,,,60,88
196085,note_on,10,0,2,,,,,,,,,1,,,,72,97
196085,note_on,0,0,2,,,,,,,,,1,,,,69,97
196086,note_on,21,0,8,,,,,,,,,12,,,,65,108
196086,note_on,10,0,5,,,,,,,,,5,,,,53,88
196090,note_on,21,0,9,,,,,,,,,13,,,,41,99
196091,note_on,10,0,3,,,,,,,,,3,,,,53,97
196092,note_on,21,0,10,,,,,,,,,14,,,,29,93
196119,note_on,39,0,6,,,,,,,,,10,,,,84,0
196121,note_on,39,0,7,,,,,,,,,11,,,,81,0
196125,note_on,39,0,8,,,,,,,,,12,,,,65,0
196129,note_on,39,0,9,,,,,,,,,13,,,,41,0
196131,note_on,39,0,10,,,,,,,,,14,,,,29,0
196140,note_on,21,0,6,,,,,,,,,10,,,,84,101
196142,note_on,21,0,7,,,,,,,,,11,,,,81,101
196146,note_on,21,0,8,,,,,,,,,12,,,,65,99
196150,note_on,21,0,9,,,,,,,,,13,,,,41,90
196152,note_on,21,0,10,,,,,,,,,14,,,,29,84
196179,note_on,39,0,6,,,,,,,,,10,,,,84,0
196181,note_on,39,0,7,,,,,,,,,11,,,,81,0
196185,note_on,39,0,8,,,,,,,,,12,,,,65,0
196189,note_on,39,0,9,,,,,,,,,13,,,,41,0
196191,note_on,39,0,10,,,,,,,,,14,,,,29,0
196200,note_on,21,0,6,,,,,,,,,10,,,,84,110
196202,note_on,21,0,7,,,,,,,,,11,,,,81,110
196206,note_on,21,0,8,,,,,,,,,12,,,,65,108
196210,note_on,21,0,9,,,,,,,,,13,,,,41,99
196212,note_on,21,0,10,,,,,,,,,14,,,,29,93
196239,note_on,39,0,6,,,,,,,,,10,,,,84,0
196241,note_on,39,0,7,,,,,,,,,11,,,,81,0
196245,note_on,39,0,8,,,,,,,,,12,,,,65,0
196249,note_on,39,0,9,,,,,,,,,13,,,,41,0
196251,note_on,39,0,10,,,,,,,,,14,,,,29,0
196260,note_on,21,0,6,,,,,,,,,10,,,,84,101
196262,note_on,21,0,7,,,,,,,,,11,,,,81,101
196266,note_on,21,0,8,,,,,,,,,12,,,,65,99
196270,note_on,21,0,9,,,,,,,,,13,,,,41,90
196272,note_on,21,0,10,,,,,,,,,14,,,,29,84
196299,note_on,39,0,6,,,,,,,,,10,,,,84,0
196301,note_on,39,0,7,,,,,,,,,11,,,,81,0
196305,note_on,39,0,8,,,,,,,,,12,,,,65,0
196309,note_on,39,0,9,,,,,,,,,13,,,,41,0
196311,note_on,39,0,10,,,,,,,,,14,,,,29,0
196313,note_on,230,0,1,,,,,,,,,0,,,,84,0
196314,note_on,230,0,4,,,,,,,,,4,,,,60,0
196315,note_on,230,0,2,,,,,,,,,1,,,,69,0
196315,note_on,0,0,2,,,,,,,,,1,,,,72,0
196316,note_on,230,0,5,,,,,,,,,5,,,,53,0
196320,note_on,21,0,6,,,,,,,,,10,,,,82,85
196320,set_tempo,240,1,0,,,,,,263736,,,,,,,,
196321,note_on,230,0,3,,,,,,,,,3,,,,53,0
196322,note_on,21,0,7,,,,,,,,,11,,,,82,85
196323,note_on,10,0,1,,,,,,,,,0,,,,82,87
196324,note_on,10,0,4,,,,,,,,,4,,,,53,78
196325,note_on,10,0,2,,,,,,,,,1,,,,70,87
196326,note_on,10,0,5,,,,,,,,,5,,,,53,78
196326,note_on,21,0,8,,,,,,,,,12,,,,70,83
196326,note_on,0,0,8,,,,,,,,,12,,,,62,83
196330,note_on,21,0,9,,,,,,,,,13,,,,46,74
196331,note_on,10,0,3,,,,,,,,,3,,,,46,87
196332,note_on,21,0,10,,,,,,,,,14,,,,34,68
196430,note_on,110,0,6,,,,,,,,,10,,,,82,0
196432,note_on,110,0,7,,,,,,,,,11,,,,82,0
196436,note_on,110,0,8,,,,,,,,,12,,,,62,0
196436,note_on,0,0,8,,,,,,,,,12,,,,70,0
196438,note_on,115,0,1,,,,,,,,,0,,,,82,0
196440,note_on,110,0,9,,,,,,,,,13,,,,46,0
196440,note_on,10,0,6,,,,,,,,,10,,,,82,110
196440,note_on,115,0,2,,,,,,,,,1,,,,70,0
196442,note_on,10,0,7,,,,,,,,,11,,,,70,110
196442,note_on,110,0,10,,,,,,,,,14,,,,34,0
196444,note_on,120,0,4,,,,,,,,,4,,,,53,0
196446,note_on,120,0,5,,,,,,,,,5,,,,53,0
196446,note_on,115,0,3,,,,,,,,,3,,,,46,0
196500,note_on,60,0,6,,,,,,,,,10,,,,82,0
196500,note_on,0,0,6,,,,,,,,,10,,,,86,110
196502,note_on,60,0,7,,,,,,,,,11,,,,70,0
196502,note_on,0,0,7,,,,,,,,,11,,,,74,110
196539,note_on,39,0,6,,,,,,,,,10,,,,86,0
196541,note_on,39,0,7,,,,,,,,,11,,,,74,0
196560,note_on,21,0,6,,,,,,,,,10,,,,89,110
196560,set_tempo,240,1,0,,,,,,254777,,,,,,,,
196562,note_on,21,0,7,,,,,,,,,11,,,,77,110
196620,note_on,60,0,6,,,,,,,,,10,,,,89,0
196622,note_on,60,0,7,,,,,,,,,11,,,,77,0
196680,note_on,60,0,6,,,,,,,,,10,,,,89,110
196682,note_on,60,0,7,,,,,,,,,11,,,,77,110
196683,note_on,245,0,1,,,,,,,,,0,,,,84,97
196684,note_on,240,0,4,,,,,,,,,4,,,,60,96
196685,note_on,0,0,2,,,,,,,,,1,,,,72,97
196685,note_on,245,0,2,,,,,,,,,1,,,,81,97
196686,note_on,250,0,8,,,,,,,,,12,,,,60,108
196686,note_on,240,0,5,,,,,,,,,5,,,,53,96
196686,note_on,0,0,8,,,,,,,,,12,,,,69,108
196690,note_on,250,0,9,,,,,,,,,13,,,,53,99
196691,note_on,245,0,3,,,,,,,,,3,,,,53,97
196692,note_on,250,0,10,,,,,,,,,14,,,,41,93
196740,note_on,60,0,6,,,,,,,,,10,,,,89,0
196742,note_on,60,0,7,,,,,,,,,11,,,,77,0
196778,note_on,95,0,1,,,,,,,,,0,,,,84,0
196779,note_on,95,0,4,,,,,,,,,4,,,,60,0
196780,note_on,0,0,2,,,,,,,,,1,,,,81,0
196780,note_on,95,0,2,,,,,,,,,1,,,,72,0
196781,note_on,95,0,5,,,,,,,,,5,,,,53,0
196786,note_on,95,0,3,,,,,,,,,3,,,,53,0
196800,set_tempo,240,1,0,,,,,,263736,,,,,,,,
196801,note_on,115,0,8,,,,,,,,,12,,,,69,0
196801,note_on,0,0,8,,,,,,,,,12,,,,60,0
196803,note_on,25,0,1,,,,,,,,,0,,,,86,97
196804,note_on,25,0,4,,,,,,,,,4,,,,62,96
196805,note_on,115,0,9,,,,,,,,,13,,,,53,0
196805,note_on,25,0,2,,,,,,,,,1,,,,82,97
196805,note_on,0,0,2,,,,,,,,,1,,,,74,97
196806,note_on,25,0,5,,,,,,,,,5,,,,58,96
196806,note_on,5,0,8,,,,,,,,,12,,,,62,108
196806,note_on,0,0,8,,,,,,,,,12,,,,70,108
196807,note_on,115,0,10,,,,,,,,,14,,,,41,0
196810,note_on,5,0,9,,,,,,,,,13,,,,58,99
196811,note_on,25,0,3,,,,,,,,,3,,,,58,97
196812,note_on,5,0,10,,,,,,,,,14,,,,46,93
196920,note_on,180,0,6,,,,,,,,,10,,,,82,110
196921,note_on,0,0,8,,,,,,,,,12,,,,62,0
196921,note_on,115,0,8,,,,,,,,,12,,,,70,0
196922,note_on,180,0,7,,,,,,,,,11,,,,70,110
196923,note_on,120,0,1,,,,,,,,,0,,,,86,0
196924,note_on,120,0,4,,,,,,,,,4,,,,62,0
196925,note_on,115,0,9,,,,,,,,,13,,,,58,0
196925,note_on,0,0,2,,,,,,,,,1,,,,82,0
196925,note_on,120,0,2,,,,,,,,,1,,,,74,0
196926,note_on,120,0,5,,,,,,,,,5,,,,58,0
196926,note_on,115,0,3,,,,,,,,,3,,,,58,0
196927,note_on,115,0,10,,,,,,,,,14,,,,46,0
196980,note_on,60,0,6,,,,,,,,,10,,,,82,0
196980,note_on,0,0,6,,,,,,,,,10,,,,86,110
196982,note_on,0,0,7,,,,,,,,,11,,,,74,110
196982,note_on,60,0,7,,,,,,,,,11,,,,70,0
197019,note_on,39,0,6,,,,,,,,,10,,,,86,0
197021,note_on,39,0,7,,,,,,,,,11,,,,74,0
197040,set_tempo,240,1,0,,,,,,254777,,,,,,,,
197040,note_on,21,0,6,,,,,,,,,10,,,,89,110
197042,note_on,21,0,7,,,,,,,,,11,,,,77,110
197100,note_on,60,0,6,,,,,,,,,10,,,,89,0
197102,note_on,60,0,7,,,,,,,,,11,,,,77,0
197160,note_on,60,0,6,,,,,,,,,10,,,,89,110
197162,note_on,60,0,7,,,,,,,,,11,,,,77,110
197163,note_on,240,0,1,,,,,,,,,0,,,,84,97
197164,note_on,240,0,4,,,,,,,,,4,,,,60,96
197165,note_on,0,0,2,,,,,,,,,1,,,,72,97
197165,note_on,240,0,2,,,,,,,,,1,,,,81,97
197166,note_on,240,0,5,,,,,,,,,5,,,,53,96
197166,note_on,245,0,8,,,,,,,,,12,,,,69,108
197166,note_on,0,0,8,,,,,,,,,12,,,,60,108
197170,note_on,245,0,9,,,,,,,,,13,,,,53,99
197171,note_on,245,0,3,,,,,,,,,3,,,,53,97
197172,note_on,245,0,10,,,,,,,,,14,,,,41,93
197220,note_on,60,0,6,,,,,,,,,10,,,,89,0
197222,note_on,60,0,7,,,,,,,,,11,,,,77,0
197258,note_on,95,0,1,,,,,,,,,0,,,,84,0
197259,note_on,95,0,4,,,,,,,,,4,,,,60,0
197260,note_on,95,0,2,,,,,,,,,1,,,,72,0
197260,note_on,0,0,2,,,,,,,,,1,,,,81,0
197261,note_on,95,0,5,,,,,,,,,5,,,,53,0
197266,note_on,95,0,3,,,,,,,,,3,,,,53,0
197280,note_on,60,0,6,,,,,,,,,10,,,,82,110
197280,set_tempo,240,1,0,,,,,,263736,,,,,,,,
197281,note_on,115,0,8,,,,,,,,,12,,,,60,0
197281,note_on,0,0,8,,,,,,,,,12,,,,69,0
197282,note_on,60,0,7,,,,,,,,,11,,,,70,110
197283,note_on,25,0,1,,,,,,,,,0,,,,86,97
197284,note_on,25,0,4,,,,,,,,,4,,,,62,96
197285,note_on,25,0,2,,,,,,,,,1,,,,74,97
197285,note_on,0,0,2,,,,,,,,,1,,,,82,97
197285,note_on,115,0,9,,,,,,,,,13,,,,53,0
197286,note_on,5,0,8,,,,,,,,,12,,,,62,108
197286,note_on,0,0,8,,,,,,,,,12,,,,70,108
197286,note_on,25,0,5,,,,,,,,,5,,,,58,96
197287,note_on,115,0,10,,,,,,,,,14,,,,41,0
197290,note_on,5,0,9,,,,,,,,,13,,,,58,99
197291,note_on,25,0,3,,,,,,,,,3,,,,58,97
197292,note_on,5,0,10,,,,,,,,,14,,,,46,93
197340,note_on,60,0,6,,,,,,,,,10,,,,82,0
197340,note_on,0,0,6,,,,,,,,,10,,,,86,110
197342,note_on,60,0,7,,,,,,,,,11,,,,70,0
197342,note_on,0,0,7,,,,,,,,,11,,,,74,110
197378,note_on,95,0,1,,,,,,,,,0,,,,86,0
197379,note_on,39,0,6,,,,,,,,,10,,,,86,0
197379,note_on,95,0,4,,,,,,,,,4,,,,62,0
197380,note_on,0,0,2,,,,,,,,,1,,,,74,0
197380,note_on,95,0,2,,,,,,,,,1,,,,82,0
197381,note_on,39,0,7,,,,,,,,,11,,,,74,0
197381,note_on,95,0,5,,,,,,,,,5,,,,58,0
197386,note_on,95,0,3,,,,,,,,,3,,,,58,0
197400,note_on,21,0,6,,,,,,,,,10,,,,89,110
197401,note_on,115,0,8,,,,,,,,,12,,,,70,0
197401,note_on,0,0,8,,,,,,,,,12,,,,62,0
197402,note_on,21,0,7,,,,,,,,,11,,,,77,110
197403,note_on,25,0,1,,,,,,,,,0,,,,84,97
197404,note_on,25,0,4,,,,,,,,,4,,,,60,96
197405,note_on,25,0,2,,,,,,,,,1,,,,72,97
197405,note_on,115,0,9,,,,,,,,,13,,,,58,0
197405,note_on,0,0,2,,,,,,,,,1,,,,81,97
197406,note_on,5,0,8,,,,,,,,,12,,,,69,108
197406,note_on,0,0,8,,,,,,,,,12,,,,60,108
197406,note_on,25,0,5,,,,,,,,,5,,,,53,96
197407,note_on,115,0,10,,,,,,,,,14,,,,46,0
197410,note_on,5,0,9,,,,,,,,,13,,,,53,99
197411,note_on,25,0,3,,,,,,,,,3,,,,53,97
197412,note_on,5,0,10,,,,,,,,,14,,,,41,93
197430,note_on,30,0,6,,,,,,,,,10,,,,89,0
197432,note_on,30,0,7,,,,,,,,,11,,,,77,0
197460,note_on,30,0,6,,,,,,,,,10,,,,89,110
197462,note_on,30,0,7,,,,,,,,,11,,,,77,110
197490,note_on,30,0,6,,,,,,,,,10,,,,89,0
197492,note_on,30,0,7,,,,,,,,,11,,,,77,0
197498,note_on,95,0,1,,,,,,,,,0,,,,84,0
197499,note_on,95,0,4,,,,,,,,,4,,,,60,0
197500,note_on,95,0,2,,,,,,,,,1,,,,81,0
197500,note_on,0,0,2,,,,,,,,,1,,,,72,0
197501,note_on,95,0,5,,,,,,,,,5,,,,53,0
197506,note_on,95,0,3,,,,,,,,,3,,,,53,0
197520,set_tempo,240,1,0,,,,,,254777,,,,,,,,
197520,note_on,30,0,6,,,,,,,,,10,,,,82,110
197521,note_on,115,0,8,,,,,,,,,12,,,,60,0
197521,note_on,0,0,8,,,,,,,,,12,,,,69,0
197522,note_on,30,0,7,,,,,,,,,11,,,,70,110
197523,note_on,25,0,1,,,,,,,,,0,,,,86,97
197524,note_on,25,0,4,,,,,,,,,4,,,,62,96
197525,note_on,0,0,2,,,,,,,,,1,,,,74,97
197525,note_on,25,0,2,,,,,,,,,1,,,,82,97
197525,note_on,115,0,9,,,,,,,,,13,,,,53,0
197526,note_on,0,0,8,,,,,,,,,12,,,,70,108
197526,note_on,25,0,5,,,,,,,,,5,,,,58,96
197526,note_on,5,0,8,,,,,,,,,12,,,,62,108
197527,note_on,115,0,10,,,,,,,,,14,,,,41,0
197530,note_on,5,0,9,,,,,,,,,13,,,,58,99
197531,note_on,25,0,3,,,,,,,,,3,,,,58,97
197532,note_on,5,0,10,,,,,,,,,14,,,,46,93
197580,note_on,60,0,6,,,,,,,,,10,,,,82,0
197580,note_on,0,0,6,,,,,,,,,10,,,,86,110
197582,note_on,0,0,7,,,,,,,,,11,,,,74,110
197582,note_on,60,0,7,,,,,,,,,11,,,,70,0
197618,note_on,95,0,1,,,,,,,,,0,,,,86,0
197619,note_on,95,0,4,,,,,,,,,4,,,,62,0
197619,note_on,39,0,6,,,,,,,,,10,,,,86,0
197620,note_on,95,0,2,,,,,,,,,1,,,,74,0
197620,note_on,0,0,2,,,,,,,,,1,,,,82,0
197621,note_on,95,0,5,,,,,,,,,5,,,,58,0
197621,note_on,39,0,7,,,,,,,,,11,,,,74,0
197631,note_on,100,0,3,,,,,,,,,3,,,,58,0
197640,note_on,21,0,6,,,,,,,,,10,,,,89,110
197641,note_on,115,0,8,,,,,,,,,12,,,,70,0
197641,note_on,0,0,8,,,,,,,,,12,,,,62,0
197642,note_on,21,0,7,,,,,,,,,11,,,,77,110
197643,note_on,25,0,1,,,,,,,,,0,,,,84,97
197644,note_on,25,0,4,,,,,,,,,4,,,,60,96
197645,note_on,25,0,2,,,,,,,,,1,,,,81,97
197645,note_on,0,0,2,,,,,,,,,1,,,,72,97
197645,note_on,115,0,9,,,,,,,,,13,,,,58,0
197646,note_on,5,0,8,,,,,,,,,12,,,,69,108
197646,note_on,0,0,8,,,,,,,,,12,,,,60,108
197646,note_on,25,0,5,,,,,,,,,5,,,,53,96
197647,note_on,115,0,10,,,,,,,,,14,,,,46,0
197650,note_on,5,0,9,,,,,,,,,13,,,,53,99
197651,note_on,20,0,3,,,,,,,,,3,,,,53,97
197652,note_on,5,0,10,,,,,,,,,14,,,,41,93
197670,note_on,30,0,6,,,,,,,,,10,,,,89,0
197672,note_on,30,0,7,,,,,,,,,11,,,,77,0
197700,note_on,30,0,6,,,,,,,,,10,,,,89,110
197702,note_on,30,0,7,,,,,,,,,11,,,,77,110
197730,note_on,30,0,6,,,,,,,,,10,,,,89,0
197732,note_on,30,0,7,,,,,,,,,11,,,,77,0
197738,note_on,95,0,1,,,,,,,,,0,,,,84,0
197739,note_on,95,0,4,,,,,,,,,4,,,,60,0
197740,note_on,95,0,2,,,,,,,,,1,,,,72,0
197740,note_on,0,0,2,,,,,,,,,1,,,,81,0
197741,note_on,95,0,5,,,,,,,,,5,,,,53,0
197751,note_on,100,0,3,,,,,,,,,3,,,,53,0
197760,set_tempo,240,1,0,,,,,,263736,,,,,,,,
197760,note_on,30,0,6,,,,,,,,,10,,,,82,110
197761,note_on,115,0,8,,,,,,,,,12,,,,60,0
197761,note_on,0,0,8,,,,,,,,,12,,,,69,0
197762,note_on,30,0,7,,,,,,,,,11,,,,70,110
197763,note_on,25,0,1,,,,,,,,,0,,,,86,97
197764,note_on,25,0,4,,,,,,,,,4,,,,62,96
197765,note_on,115,0,9,,,,,,,,,13,,,,53,0
197765,note_on,0,0,2,,,,,,,,,1,,,,82,97
197765,note_on,25,0,2,,,,,,,,,1,,,,74,97
197766,note_on,5,0,8,,,,,,,,,12,,,,62,108
197766,note_on,25,0,5,,,,,,,,,5,,,,58,96
197766,note_on,0,0,8,,,,,,,,,12,,,,70,108
197767,note_on,115,0,10,,,,,,,,,14,,,,41,0
197770,note_on,5,0,9,,,,,,,,,13,,,,58,99
197771,note_on,20,0,3,,,,,,,,,3,,,,58,97
197772,note_on,5,0,10,,,,,,,,,14,,,,46,93
197820,note_on,0,0,6,,,,,,,,,10,,,,86,110
197820,note_on,60,0,6,,,,,,,,,10,,,,82,0
197822,note_on,60,0,7,,,,,,,,,11,,,,70,0
197822,note_on,0,0,7,,,,,,,,,11,,,,74,110
197858,note_on,95,0,1,,,,,,,,,0,,,,86,0
197859,note_on,39,0,6,,,,,,,,,10,,,,86,0
197859,note_on,95,0,4,,,,,,,,,4,,,,62,0
197860,note_on,95,0,2,,,,,,,,,1,,,,82,0
197860,note_on,0,0,2,,,,,,,,,1,,,,74,0
197861,note_on,39,0,7,,,,,,,,,11,,,,74,0
197861,note_on,95,0,5,,,,,,,,,5,,,,58,0
197871,note_on,100,0,3,,,,,,,,,3,,,,58,0
197880,note_on,21,0,6,,,,,,,,,10,,,,89,110
197881,note_on,115,0,8,,,,,,,,,12,,,,70,0
197881,note_on,0,0,8,,,,,,,,,12,,,,62,0
197882,note_on,21,0,7,,,,,,,,,11,,,,77,110
197883,note_on,25,0,1,,,,,,,,,0,,,,84,97
197884,note_on,25,0,4,,,,,,,,,4,,,,60,96
197885,note_on,115,0,9,,,,,,,,,13,,,,58,0
197885,note_on,25,0,2,,,,,,,,,1,,,,72,97
197885,note_on,0,0,2,,,,,,,,,1,,,,81,97
197886,note_on,5,0,8,,,,,,,,,12,,,,69,108
197886,note_on,25,0,5,,,,,,,,,5,,,,53,96
197886,note_on,0,0,8,,,,,,,,,12,,,,60,108
197887,note_on,115,0,10,,,,,,,,,14,,,,46,0
197890,note_on,5,0,9,,,,,,,,,13,,,,53,99
197891,note_on,20,0,3,,,,,,,,,3,,,,53,97
197892,note_on,5,0,10,,,,,,,,,14,,,,41,93
197910,note_on,30,0,6,,,,,,,,,10,,,,89,0
197912,note_on,30,0,7,,,,,,,,,11,,,,77,0
197940,note_on,30,0,6,,,,,,,,,10,,,,89,110
197942,note_on,30,0,7,,,,,,,,,11,,,,77,110
197970,note_on,30,0,6,,,,,,,,,10,,,,89,0
197972,note_on,30,0,7,,,,,,,,,11,,,,77,0
197978,note_on,95,0,1,,,,,,,,,0,,,,84,0
197979,note_on,95,0,4,,,,,,,,,4,,,,60,0
197980,note_on,95,0,2,,,,,,,,,1,,,,81,0
197980,note_on,0,0,2,,,,,,,,,1,,,,72,0
197981,note_on,95,0,5,,,,,,,,,5,,,,53,0
197991,note_on,100,0,3,,,,,,,,,3,,,,53,0
198000,note_on,30,0,6,,,,,,,,,10,,,,82,110
198000,set_tempo,240,1,0,,,,,,254777,,,,,,,,
198001,note_on,115,0,8,,,,,,,,,12,,,,60,0
198001,note_on,0,0,8,,,,,,,,,12,,,,69,0
198002,note_on,30,0,7,,,,,,,,,11,,,,70,110
198003,note_on,25,0,1,,,,,,,,,0,,,,86,97
198004,note_on,25,0,4,,,,,,,,,4,,,,62,96
198005,note_on,25,0,2,,,,,,,,,1,,,,74,97
198005,note_on,0,0,2,,,,,,,,,1,,,,82,97
198005,note_on,115,0,9,,,,,,,,,13,,,,53,0
198006,note_on,0,0,8,,,,,,,,,12,,,,70,108
198006,note_on,5,0,8,,,,,,,,,12,,,,62,108
198006,note_on,25,0,5,,,,,,,,,5,,,,58,96
198007,note_on,115,0,10,,,,,,,,,14,,,,41,0
198010,note_on,5,0,9,,,,,,,,,13,,,,58,99
198011,note_on,20,0,3,,,,,,,,,3,,,,58,97
198012,note_on,5,0,10,,,,,,,,,14,,,,46,93
198060,note_on,0,0,6,,,,,,,,,10,,,,86,110
198060,note_on,60,0,6,,,,,,,,,10,,,,82,0
198062,note_on,0,0,7,,,,,,,,,11,,,,74,110
198062,note_on,60,0,7,,,,,,,,,11,,,,70,0
198098,note_on,95,0,1,,,,,,,,,0,,,,86,0
198099,note_on,39,0,6,,,,,,,,,10,,,,86,0
198099,note_on,95,0,4,,,,,,,,,4,,,,62,0
198100,note_on,0,0,2,,,,,,,,,1,,,,74,0
198100,note_on,95,0,2,,,,,,,,,1,,,,82,0
198101,note_on,39,0,7,,,,,,,,,11,,,,74,0
198101,note_on,95,0,5,,,,,,,,,5,,,,58,0
198111,note_on,100,0,3,,,,,,,,,3,,,,58,0
198120,note_on,21,0,6,,,,,,,,,10,,,,89,110
198121,note_on,115,0,8,,,,,,,,,12,,,,70,0
198121,note_on,0,0,8,,,,,,,,,12,,,,62,0
198122,note_on,21,0,7,,,,,,,,,11,,,,77,110
198123,note_on,25,0,1,,,,,,,,,0,,,,84,97
198124,note_on,25,0,4,,,,,,,,,4,,,,60,96
198125,note_on,25,0,2,,,,,,,,,1,,,,72,97
198125,note_on,0,0,2,,,,,,,,,1,,,,81,97
198125,note_on,115,0,9,,,,,,,,,13,,,,58,0
198126,note_on,5,0,8,,,,,,,,,12,,,,69,108
198126,note_on,25,0,5,,,,,,,,,5,,,,53,96
198126,note_on,0,0,8,,,,,,,,,12,,,,60,108
198127,note_on,115,0,10,,,,,,,,,14,,,,46,0
198130,note_on,5,0,9,,,,,,,,,13,,,,53,99
198131,note_on,20,0,3,,,,,,,,,3,,,,53,97
198132,note_on,5,0,10,,,,,,,,,14,,,,41,93
198150,note_on,30,0,6,,,,,,,,,10,,,,89,0
198152,note_on,30,0,7,,,,,,,,,11,,,,77,0
198180,set_tempo,180,1,0,,,,,,325203,,,,,,,,
198180,note_on,30,0,6,,,,,,,,,10,,,,89,110
198182,note_on,30,0,7,,,,,,,,,11,,,,77,110
198210,note_on,30,0,6,,,,,,,,,10,,,,89,0
198212,note_on,30,0,7,,,,,,,,,11,,,,77,0
198218,note_on,95,0,1,,,,,,,,,0,,,,84,0
198219,note_on,95,0,4,,,,,,,,,4,,,,60,0
198220,note_on,0,0,2,,,,,,,,,1,,,,72,0
198220,note_on,95,0,2,,,,,,,,,1,,,,81,0
198221,note_on,95,0,5,,,,,,,,,5,,,,53,0
198231,note_on,100,0,3,,,,,,,,,3,,,,53,0
198240,set_tempo,60,1,0,,,,,,263736,,,,,,,,
198240,note_on,30,0,6,,,,,,,,,10,,,,72,97
198241,note_on,0,0,8,,,,,,,,,12,,,,69,0
198241,note_on,115,0,8,,,,,,,,,12,,,,60,0
198242,note_on,30,0,7,,,,,,,,,11,,,,60,97
198243,note_on,25,0,1,,,,,,,,,0,,,,93,92
198244,note_on,25,0,4,,,,,,,,,4,,,,58,104
198245,note_on,0,0,2,,,,,,,,,1,,,,84,92
198245,note_on,25,0,2,,,,,,,,,1,,,,75,92
198245,note_on,115,0,9,,,,,,,,,13,,,,53,0
198246,note_on,25,0,5,,,,,,,,,5,,,,46,104
198246,note_on,5,0,8,,,,,,,,,12,,,,66,95
198246,note_on,0,0,8,,,,,,,,,12,,,,63,95
198247,note_on,115,0,10,,,,,,,,,14,,,,41,0
198250,note_on,5,0,9,,,,,,,,,13,,,,46,86
198251,note_on,0,0,3,,,,,,,,,3,,,,63,92
198251,note_on,20,0,3,,,,,,,,,3,,,,66,92
198252,note_on,5,0,10,,,,,,,,,14,,,,34,80
198280,note_on,40,0,6,,,,,,,,,10,,,,72,0
198282,note_on,40,0,7,,,,,,,,,11,,,,60,0
198286,note_on,0,0,8,,,,,,,,,12,,,,66,0
198286,note_on,40,0,8,,,,,,,,,12,,,,63,0
198290,note_on,40,0,9,,,,,,,,,13,,,,46,0
198292,note_on,40,0,10,,,,,,,,,14,,,,34,0
198300,note_on,20,0,6,,,,,,,,,10,,,,72,87
198302,note_on,20,0,7,,,,,,,,,11,,,,60,87
198306,note_on,20,0,8,,,,,,,,,12,,,,63,85
198306,note_on,0,0,8,,,,,,,,,12,,,,66,85
198310,note_on,20,0,9,,,,,,,,,13,,,,46,76
198312,note_on,20,0,10,,,,,,,,,14,,,,34,70
198340,note_on,40,0,6,,,,,,,,,10,,,,72,0
198342,note_on,40,0,7,,,,,,,,,11,,,,60,0
198346,note_on,40,0,8,,,,,,,,,12,,,,66,0
198346,note_on,0,0,8,,,,,,,,,12,,,,63,0
198350,note_on,40,0,9,,,,,,,,,13,,,,46,0
198352,note_on,40,0,10,,,,,,,,,14,,,,34,0
198360,note_on,20,0,6,,,,,,,,,10,,,,75,90
198362,note_on,20,0,7,,,,,,,,,11,,,,63,90
198366,note_on,20,0,8,,,,,,,,,12,,,,66,88
198366,note_on,0,0,8,,,,,,,,,12,,,,63,88
198370,note_on,20,0,9,,,,,,,,,13,,,,46,79
198372,note_on,20,0,10,,,,,,,,,14,,,,34,73
198400,note_on,40,0,6,,,,,,,,,10,,,,75,0
198402,note_on,40,0,7,,,,,,,,,11,,,,63,0
198406,note_on,40,0,8,,,,,,,,,12,,,,63,0
198406,note_on,0,0,8,,,,,,,,,12,,,,66,0
198410,note_on,40,0,9,,,,,,,,,13,,,,46,0
198412,note_on,40,0,10,,,,,,,,,14,,,,34,0
198420,note_on,20,0,6,,,,,,,,,10,,,,75,87
198422,note_on,20,0,7,,,,,,,,,11,,,,63,87
198426,note_on,20,0,8,,,,,,,,,12,,,,66,85
198426,note_on,0,0,8,,,,,,,,,12,,,,63,85
198430,note_on,20,0,9,,,,,,,,,13,,,,46,76
198432,note_on,20,0,10,,,,,,,,,14,,,,34,70
198460,note_on,40,0,6,,,,,,,,,10,,,,75,0
198462,note_on,40,0,7,,,,,,,,,11,,,,63,0
198466,note_on,0,0,8,,,,,,,,,12,,,,66,0
198466,note_on,40,0,8,,,,,,,,,12,,,,63,0
198470,note_on,40,0,9,,,,,,,,,13,,,,46,0
198472,note_on,40,0,10,,,,,,,,,14,,,,34,0
198480,set_tempo,240,1,0,,,,,,254777,,,,,,,,
198480,note_on,20,0,6,,,,,,,,,10,,,,78,97
198482,note_on,20,0,7,,,,,,,,,11,,,,66,97
198486,note_on,0,0,8,,,,,,,,,12,,,,66,95
198486,note_on,20,0,8,,,,,,,,,12,,,,63,95
198490,note_on,20,0,9,,,,,,,,,13,,,,46,86
198492,note_on,20,0,10,,,,,,,,,14,,,,34,80
198520,note_on,40,0,6,,,,,,,,,10,,,,78,0
198522,note_on,40,0,7,,,,,,,,,11,,,,66,0
198526,note_on,40,0,8,,,,,,,,,12,,,,66,0
198526,note_on,0,0,8,,,,,,,,,12,,,,63,0
198530,note_on,40,0,9,,,,,,,,,13,,,,46,0
198532,note_on,40,0,10,,,,,,,,,14,,,,34,0
198540,note_on,20,0,6,,,,,,,,,10,,,,78,94
198542,note_on,20,0,7,,,,,,,,,11,,,,66,94
198546,note_on,20,0,8,,,,,,,,,12,,,,66,92
198546,note_on,0,0,8,,,,,,,,,12,,,,63,92
198550,note_on,20,0,9,,,,,,,,,13,,,,46,83
198552,note_on,20,0,10,,,,,,,,,14,,,,34,77
198580,note_on,40,0,6,,,,,,,,,10,,,,78,0
198582,note_on,40,0,7,,,,,,,,,11,,,,66,0
198586,note_on,0,0,8,,,,,,,,,12,,,,66,0
198586,note_on,40,0,8,,,,,,,,,12,,,,63,0
198590,note_on,40,0,9,,,,,,,,,13,,,,46,0
198592,note_on,40,0,10,,,,,,,,,14,,,,34,0
198600,note_on,20,0,6,,,,,,,,,10,,,,81,104
198602,note_on,20,0,7,,,,,,,,,11,,,,69,104
198606,note_on,0,0,8,,,,,,,,,12,,,,66,102
198606,note_on,20,0,8,,,,,,,,,12,,,,63,102
198610,note_on,20,0,9,,,,,,,,,13,,,,46,93
198612,note_on,20,0,10,,,,,,,,,14,,,,34,87
198640,note_on,40,0,6,,,,,,,,,10,,,,81,0
198642,note_on,40,0,7,,,,,,,,,11,,,,69,0
198646,note_on,0,0,8,,,,,,,,,12,,,,63,0
198646,note_on,40,0,8,,,,,,,,,12,,,,66,0
198650,note_on,40,0,9,,,,,,,,,13,,,,46,0
198652,note_on,40,0,10,,,,,,,,,14,,,,34,0
198660,note_on,20,0,6,,,,,,,,,10,,,,81,99
198662,note_on,20,0,7,,,,,,,,,11,,,,69,99
198666,note_on,0,0,8,,,,,,,,,12,,,,66,97
198666,note_on,20,0,8,,,,,,,,,12,,,,63,97
198670,note_on,20,0,9,,,,,,,,,13,,,,46,88
198672,note_on,20,0,10,,,,,,,,,14,,,,34,82
198700,note_on,40,0,6,,,,,,,,,10,,,,81,0
198702,note_on,40,0,7,,,,,,,,,11,,,,69,0
198706,note_on,40,0,8,,,,,,,,,12,,,,66,0
198706,note_on,0,0,8,,,,,,,,,12,,,,63,0
198710,note_on,40,0,9,,,,,,,,,13,,,,46,0
198712,note_on,40,0,10,,,,,,,,,14,,,,34,0
198720,note_on,20,0,6,,,,,,,,,10,,,,84,111
198720,set_tempo,240,1,0,,,,,,263736,,,,,,,,
198722,note_on,20,0,7,,,,,,,,,11,,,,72,111
198726,note_on,0,0,8,,,,,,,,,12,,,,63,109
198726,note_on,20,0,8,,,,,,,,,12,,,,66,109
198730,note_on,20,0,9,,,,,,,,,13,,,,46,100
198732,note_on,20,0,10,,,,,,,,,14,,,,34,94
198760,note_on,40,0,6,,,,,,,,,10,,,,84,0
198762,note_on,40,0,7,,,,,,,,,11,,,,72,0
198766,note_on,0,0,8,,,,,,,,,12,,,,66,0
198766,note_on,40,0,8,,,,,,,,,12,,,,63,0
198770,note_on,40,0,9,,,,,,,,,13,,,,46,0
198772,note_on,40,0,10,,,,,,,,,14,,,,34,0
198780,note_on,20,0,6,,,,,,,,,10,,,,84,105
198782,note_on,20,0,7,,,,,,,,,11,,,,72,105
198786,note_on,20,0,8,,,,,,,,,12,,,,63,103
198786,note_on,0,0,8,,,,,,,,,12,,,,66,103
198790,note_on,20,0,9,,,,,,,,,13,,,,46,94
198792,note_on,20,0,10,,,,,,,,,14,,,,34,88
198820,note_on,40,0,6,,,,,,,,,10,,,,84,0
198822,note_on,40,0,7,,,,,,,,,11,,,,72,0
198826,note_on,40,0,8,,,,,,,,,12,,,,66,0
198826,note_on,0,0,8,,,,,,,,,12,,,,63,0
198830,note_on,40,0,9,,,,,,,,,13,,,,46,0
198832,note_on,40,0,10,,,,,,,,,14,,,,34,0
198840,note_on,20,0,6,,,,,,,,,10,,,,87,113
198842,note_on,20,0,7,,,,,,,,,11,,,,75,113
198846,note_on,20,0,8,,,,,,,,,12,,,,63,111
198846,note_on,0,0,8,,,,,,,,,12,,,,66,111
198850,note_on,20,0,9,,,,,,,,,13,,,,46,102
198852,note_on,20,0,10,,,,,,,,,14,,,,34,96
198880,note_on,40,0,6,,,,,,,,,10,,,,87,0
198882,note_on,40,0,7,,,,,,,,,11,,,,75,0
198886,note_on,0,0,8,,,,,,,,,12,,,,63,0
198886,note_on,40,0,8,,,,,,,,,12,,,,66,0
198890,note_on,40,0,9,,,,,,,,,13,,,,46,0
198892,note_on,40,0,10,,,,,,,,,14,,,,34,0
198900,note_on,20,0,6,,,,,,,,,10,,,,87,107
198902,note_on,20,0,7,,,,,,,,,11,,,,75,107
198906,note_on,0,0,8,,,,,,,,,12,,,,66,105
198906,note_on,20,0,8,,,,,,,,,12,,,,63,105
198910,note_on,20,0,9,,,,,,,,,13,,,,46,96
198912,note_on,20,0,10,,,,,,,,,14,,,,34,90
198940,note_on,40,0,6,,,,,,,,,10,,,,87,0
198942,note_on,40,0,7,,,,,,,,,11,,,,75,0
198946,note_on,0,0,8,,,,,,,,,12,,,,63,0
198946,note_on,40,0,8,,,,,,,,,12,,,,66,0
198950,note_on,40,0,9,,,,,,,,,13,,,,46,0
198952,note_on,40,0,10,,,,,,,,,14,,,,34,0
198960,set_tempo,240,1,0,,,,,,254777,,,,,,,,
198960,note_on,20,0,6,,,,,,,,,10,,,,90,115
198962,note_on,20,0,7,,,,,,,,,11,,,,78,115
198966,note_on,0,0,8,,,,,,,,,12,,,,66,113
198966,note_on,20,0,8,,,,,,,,,12,,,,63,113
198970,note_on,20,0,9,,,,,,,,,13,,,,46,104
198972,note_on,20,0,10,,,,,,,,,14,,,,34,98
199000,note_on,40,0,6,,,,,,,,,10,,,,90,0
199002,note_on,40,0,7,,,,,,,,,11,,,,78,0
199006,note_on,0,0,8,,,,,,,,,12,,,,63,0
199006,note_on,40,0,8,,,,,,,,,12,,,,66,0
199010,note_on,40,0,9,,,,,,,,,13,,,,46,0
199012,note_on,40,0,10,,,,,,,,,14,,,,34,0
199020,note_on,20,0,6,,,,,,,,,10,,,,90,109
199022,note_on,20,0,7,,,,,,,,,11,,,,78,109
199026,note_on,20,0,8,,,,,,,,,12,,,,63,107
199026,note_on,0,0,8,,,,,,,,,12,,,,66,107
199030,note_on,20,0,9,,,,,,,,,13,,,,46,98
199032,note_on,20,0,10,,,,,,,,,14,,,,34,92
199060,note_on,40,0,6,,,,,,,,,10,,,,90,0
199062,note_on,40,0,7,,,,,,,,,11,,,,78,0
199066,note_on,40,0,8,,,,,,,,,12,,,,66,0
199066,note_on,0,0,8,,,,,,,,,12,,,,63,0
199070,note_on,40,0,9,,,,,,,,,13,,,,46,0
199072,note_on,40,0,10,,,,,,,,,14,,,,34,0
199080,note_on,20,0,6,,,,,,,,,10,,,,93,117
199082,note_on,20,0,7,,,,,,,,,11,,,,81,117
199086,note_on,20,0,8,,,,,,,,,12,,,,63,115
199086,note_on,0,0,8,,,,,,,,,12,,,,66,115
199090,note_on,20,0,9,,,,,,,,,13,,,,46,106
199092,note_on,20,0,10,,,,,,,,,14,,,,34,100
199120,note_on,40,0,6,,,,,,,,,10,,,,93,0
199122,note_on,40,0,7,,,,,,,,,11,,,,81,0
199126,note_on,40,0,8,,,,,,,,,12,,,,66,0
199126,note_on,0,0,8,,,,,,,,,12,,,,63,0
199130,note_on,40,0,9,,,,,,,,,13,,,,46,0
199132,note_on,40,0,10,,,,,,,,,14,,,,34,0
199140,set_tempo,180,1,0,,,,,,294118,,,,,,,,
199140,note_on,20,0,6,,,,,,,,,10,,,,93,111
199142,note_on,20,0,7,,,,,,,,,11,,,,81,111
199146,note_on,0,0,8,,,,,,,,,12,,,,66,109
199146,note_on,20,0,8,,,,,,,,,12,,,,63,109
199150,note_on,20,0,9,,,,,,,,,13,,,,46,100
199152,note_on,20,0,10,,,,,,,,,14,,,,34,94
199180,note_on,40,0,6,,,,,,,,,10,,,,93,0
199182,note_on,40,0,7,,,,,,,,,11,,,,81,0
199186,note_on,40,0,8,,,,,,,,,12,,,,66,0
199186,note_on,0,0,8,,,,,,,,,12,,,,63,0
199190,note_on,40,0,9,,,,,,,,,13,,,,46,0
199192,note_on,40,0,10,,,,,,,,,14,,,,34,0
199198,note_on,955,0,1,,,,,,,,,0,,,,93,0
199200,note_on,20,0,6,,,,,,,,,10,,,,94,113
199200,set_tempo,60,1,0,,,,,,302267,,,,,,,,
199200,note_on,955,0,2,,,,,,,,,1,,,,84,0
199200,note_on,0,0,2,,,,,,,,,1,,,,75,0
199202,note_on,20,0,7,,,,,,,,,11,,,,82,113
199203,note_on,5,0,1,,,,,,,,,0,,,,94,110
199205,note_on,5,0,2,,,,,,,,,1,,,,74,110
199205,note_on,0,0,2,,,,,,,,,1,,,,82,110
199206,note_on,955,0,3,,,,,,,,,3,,,,63,0
199206,note_on,0,0,3,,,,,,,,,3,,,,66,0
199206,note_on,0,0,8,,,,,,,,,12,,,,65,111
199206,note_on,20,0,8,,,,,,,,,12,,,,62,111
199210,note_on,20,0,9,,,,,,,,,13,,,,46,102
199211,note_on,0,0,3,,,,,,,,,3,,,,62,110
199211,note_on,5,0,3,,,,,,,,,3,,,,65,110
199212,note_on,20,0,10,,,,,,,,,14,,,,34,96
199320,note_on,120,0,6,,,,,,,,,10,,,,94,0
199322,note_on,120,0,7,,,,,,,,,11,,,,82,0
199323,note_on,120,0,1,,,,,,,,,0,,,,94,0
199324,note_on,1080,0,4,,,,,,,,,4,,,,58,0
199325,note_on,120,0,2,,,,,,,,,1,,,,82,0
199325,note_on,0,0,2,,,,,,,,,1,,,,74,0
199326,note_on,1080,0,5,,,,,,,,,5,,,,46,0
199326,note_on,120,0,8,,,,,,,,,12,,,,65,0
199326,note_on,0,0,8,,,,,,,,,12,,,,62,0
199330,note_on,120,0,9,,,,,,,,,13,,,,46,0
199331,note_on,0,0,3,,,,,,,,,3,,,,65,0
199331,note_on,120,0,3,,,,,,,,,3,,,,62,0
199332,note_on,120,0,10,,,,,,,,,14,,,,34,0
199440,set_tempo,240,1,0,,,,,,340909,,,,,,,,
199440,note_on,0,0,6,,,,,,,,,10,,,,70,95
199440,note_on,0,0,6,,,,,,,,,10,,,,62,95
199440,note_on,120,0,6,,,,,,,,,10,,,,82,95
199442,note_on,0,0,7,,,,,,,,,11,,,,82,95
199442,note_on,0,0,7,,,,,,,,,11,,,,70,95
199442,note_on,120,0,7,,,,,,,,,11,,,,62,95
199443,note_on,120,0,1,,,,,,,,,0,,,,86,97
199444,note_on,120,0,4,,,,,,,,,4,,,,58,96
199445,note_on,120,0,2,,,,,,,,,1,,,,82,97
199445,note_on,0,0,2,,,,,,,,,1,,,,74,97
199446,note_on,120,0,8,,,,,,,,,12,,,,58,93
199446,note_on,0,0,8,,,,,,,,,12,,,,70,93
199446,note_on,120,0,5,,,,,,,,,5,,,,46,96
199446,note_on,0,0,8,,,,,,,,,12,,,,65,93
199450,note_on,120,0,9,,,,,,,,,13,,,,58,99
199451,note_on,0,0,3,,,,,,,,,3,,,,58,97
199451,note_on,120,0,3,,,,,,,,,3,,,,46,97
199452,note_on,120,0,10,,,,,,,,,14,,,,46,93
199560,note_on,0,0,6,,,,,,,,,10,,,,82,0
199560,note_on,0,0,6,,,,,,,,,10,,,,62,0
199560,note_on,120,0,6,,,,,,,,,10,,,,70,0
199562,note_on,0,0,7,,,,,,,,,11,,,,62,0
199562,note_on,0,0,7,,,,,,,,,11,,,,70,0
199562,note_on,120,0,7,,,,,,,,,11,,,,82,0
199563,note_on,120,0,1,,,,,,,,,0,,,,86,0
199564,note_on,120,0,4,,,,,,,,,4,,,,58,0
199565,note_on,120,0,2,,,,,,,,,1,,,,74,0
199565,note_on,0,0,2,,,,,,,,,1,,,,82,0
199566,note_on,120,0,5,,,,,,,,,5,,,,46,0
199566,note_on,120,0,8,,,,,,,,,12,,,,70,0
199566,note_on,0,0,8,,,,,,,,,12,,,,65,0
199566,note_on,0,0,8,,,,,,,,,12,,,,58,0
199570,note_on,120,0,9,,,,,,,,,13,,,,58,0
199571,note_on,0,0,3,,,,,,,,,3,,,,46,0
199571,note_on,120,0,3,,,,,,,,,3,,,,58,0
199572,note_on,120,0,10,,,,,,,,,14,,,,46,0
199680,end_of_track,0,1,0,,,,,,,,,,,,,,
199680,note_on,120,0,6,,,,,,,,,10,,,,62,86
199680,note_on,0,0,6,,,,,,,,,10,,,,82,70
199680,note_on,0,0,6,,,,,,,,,10,,,,70,86
199680,set_tempo,240,1,0,,,,,,461538,,,,,,,,
199682,note_on,0,0,7,,,,,,,,,11,,,,70,86
199682,note_on,120,0,7,,,,,,,,,11,,,,62,86
199682,note_on,0,0,7,,,,,,,,,11,,,,82,70
199683,note_on,120,0,1,,,,,,,,,0,,,,82,88
199684,note_on,120,0,4,,,,,,,,,4,,,,58,86
199685,note_on,120,0,2,,,,,,,,,1,,,,82,88
199685,note_on,0,0,2,,,,,,,,,1,,,,74,88
199686,note_on,0,0,8,,,,,,,,,12,,,,58,84
199686,note_on,120,0,5,,,,,,,,,5,,,,46,86
199686,note_on,120,0,8,,,,,,,,,12,,,,70,84
199686,note_on,0,0,8,,,,,,,,,12,,,,65,84
199690,note_on,120,0,9,,,,,,,,,13,,,,46,89
199691,note_on,120,0,3,,,,,,,,,3,,,,58,88
199691,note_on,0,0,3,,,,,,,,,3,,,,46,88
199692,note_on,120,0,10,,,,,,,,,14,,,,34,83
199800,note_on,0,0,6,,,,,,,,,10,,,,82,0
199800,note_on,120,0,6,,,,,,,,,10,,,,70,0
199800,note_on,0,0,6,,,,,,,,,10,,,,62,0
199802,note_on,120,0,7,,,,,,,,,11,,,,70,0
199802,note_on,0,0,7,,,,,,,,,11,,,,82,0
199802,note_on,0,0,7,,,,,,,,,11,,,,62,0
199803,note_on,120,0,1,,,,,,,,,0,,,,82,0
199804,note_on,120,0,4,,,,,,,,,4,,,,58,0
199805,note_on,120,0,2,,,,,,,,,1,,,,74,0
199805,note_on,0,0,2,,,,,,,,,1,,,,82,0
199806,note_on,0,0,8,,,,,,,,,12,,,,70,0
199806,note_on,120,0,5,,,,,,,,,5,,,,46,0
199806,note_on,120,0,8,,,,,,,,,12,,,,65,0
199806,note_on,0,0,8,,,,,,,,,12,,,,58,0
199810,note_on,120,0,9,,,,,,,,,13,,,,46,0
199811,note_on,0,0,3,,,,,,,,,3,,,,58,0
199811,note_on,120,0,3,,,,,,,,,3,,,,46,0
199812,note_on,120,0,10,,,,,,,,,14,,,,34,0
200160,control_change,360,0,6,,,,,,,,,10,121,0,,,
200160,end_of_track,0,1,6,,,,,,,,,,,,,,
200162,control_change,360,0,7,,,,,,,,,11,121,0,,,
200162,end_of_track,0,1,7,,,,,,,,,,,,,,
200163,control_change,360,0,1,,,,,,,,,0,121,0,,,
200163,end_of_track,0,1,1,,,,,,,,,,,,,,
200164,end_of_track,0,1,4,,,,,,,,,,,,,,
200164,control_change,360,0,4,,,,,,,,,4,121,0,,,
200165,end_of_track,0,1,2,,,,,,,,,,,,,,
200165,control_change,360,0,2,,,,,,,,,1,121,0,,,
200166,end_of_track,0,1,5,,,,,,,,,,,,,,
200166,control_change,360,0,5,,,,,,,,,5,121,0,,,
200166,control_change,360,0,8,,,,,,,,,12,121,0,,,
200166,end_of_track,0,1,8,,,,,,,,,,,,,,
200170,end_of_track,0,1,9,,,,,,,,,,,,,,
200170,control_change,360,0,9,,,,,,,,,13,121,0,,,
200171,control_change,360,0,3,,,,,,,,,3,121,0,,,
200171,end_of_track,0,1,3,,,,,,,,,,,,,,
200172,end_of_track,0,1,10,,,,,,,,,,,,,,
200172,control_change,360,0,10,,,,,,,,,14,121,0,,,
