tick,type,time,meta,track,numerator,denominator,clocks_per_click,notated_32nd_notes_per_beat,key,tempo,port,program,channel,control,value,pitch,note,velocity
0,track_name,0,1,0,,,,,,,,,,,,,,
0,track_name,0,1,6,,,,,,,,,,,,,,
0,program_change,0,0,6,,,,,,,,60,5,,,,,
0,control_change,0,0,6,,,,,,,,,5,10,28,,,
0,midi_port,0,1,7,,,,,,,0,,,,,,,
0,track_name,0,1,7,,,,,,,,,,,,,,
0,program_change,0,0,7,,,,,,,,56,6,,,,,
0,control_change,0,0,7,,,,,,,,,6,10,77,,,
0,midi_port,0,1,8,,,,,,,0,,,,,,,
0,track_name,0,1,8,,,,,,,,,,,,,,
0,program_change,0,0,8,,,,,,,,57,7,,,,,
0,control_change,0,0,8,,,,,,,,,7,10,103,,,
0,track_name,0,1,20,,,,,,,,,,,,,,
0,midi_port,0,1,9,,,,,,,0,,,,,,,
0,track_name,0,1,9,,,,,,,,,,,,,,
0,program_change,0,0,9,,,,,,,,57,8,,,,,
0,midi_port,0,1,6,,,,,,,0,,,,,,,
0,control_change,0,0,9,,,,,,,,,8,10,123,,,
0,control_change,0,0,5,,,,,,,,,4,10,24,,,
0,track_name,0,1,5,,,,,,,,,,,,,,
0,program_change,0,0,1,,,,,,,,73,0,,,,,
0,control_change,0,0,1,,,,,,,,,0,10,52,,,
0,midi_port,0,1,2,,,,,,,0,,,,,,,
0,track_name,0,1,2,,,,,,,,,,,,,,
0,program_change,0,0,2,,,,,,,,68,1,,,,,
0,control_change,0,0,2,,,,,,,,,1,10,72,,,
0,midi_port,0,1,3,,,,,,,0,,,,,,,
0,track_name,0,1,3,,,,,,,,,,,,,,
0,program_change,0,0,3,,,,,,,,71,2,,,,,
0,control_change,0,0,3,,,,,,,,,2,10,65,,,
0,midi_port,0,1,4,,,,,,,0,,,,,,,
0,track_name,0,1,4,,,,,,,,,,,,,,
0,program_change,0,0,4,,,,,,,,70,3,,,,,
0,control_change,0,0,4,,,,,,,,,3,10,80,,,
0,midi_port,0,1,5,,,,,,,0,,,,,,,
0,program_change,0,0,5,,,,,,,,60,4,,,,,
0,midi_port,0,1,10,,,,,,,0,,,,,,,
0,track_name,0,1,10,,,,,,,,,,,,,,
0,program_change,0,0,10,,,,,,,,47,15,,,,,
0,program_change,0,0,15,,,,,,,,48,14,,,,,
0,control_change,0,0,15,,,,,,,,,14,10,127,,,
0,midi_port,0,1,16,,,,,,,0,,,,,,,
0,track_name,0,1,16,,,,,,,,,,,,,,
0,end_of_track,0,1,16,,,,,,,,,,,,,,
0,midi_port,0,1,17,,,,,,,0,,,,,,,
0,track_name,0,1,17,,,,,,,,,,,,,,
0,end_of_track,0,1,17,,,,,,,,,,,,,,
0,midi_port,0,1,18,,,,,,,0,,,,,,,
0,track_name,0,1,18,,,,,,,,,,,,,,
0,end_of_track,0,1,18,,,,,,,,,,,,,,
0,midi_port,0,1,19,,,,,,,0,,,,,,,
0,track_name,0,1,19,,,,,,,,,,,,,,
0,end_of_track,0,1,19,,,,,,,,,,,,,,
0,midi_port,0,1,20,,,,,,,0,,,,,,,
0,track_name,0,1,15,,,,,,,,,,,,,,
0,midi_port,0,1,15,,,,,,,0,,,,,,,
0,control_change,0,0,14,,,,,,,,,13,10,100,,,
0,program_change,0,0,14,,,,,,,,48,13,,,,,
0,control_change,0,0,10,,,,,,,,,15,10,97,,,
0,midi_port,0,1,11,,,,,,,0,,,,,,,
0,track_name,0,1,11,,,,,,,,,,,,,,
0,program_change,0,0,11,,,,,,,,48,10,,,,,
0,control_change,0,0,11,,,,,,,,,10,10,12,,,
0,control_change,0,0,11,,,,,,,,,10,121,0,,,
0,midi_port,0,1,12,,,,,,,0,,,,,,,
0,track_name,0,1,1,,,,,,,,,,,,,,
0,track_name,0,1,12,,,,,,,,,,,,,,
0,control_change,0,0,12,,,,,,,,,11,10,90,,,
0,midi_port,0,1,13,,,,,,,0,,,,,,,
0,track_name,0,1,13,,,,,,,,,,,,,,
0,program_change,0,0,13,,,,,,,,48,12,,,,,
0,control_change,0,0,13,,,,,,,,,12,10,40,,,
0,midi_port,0,1,14,,,,,,,0,,,,,,,
0,track_name,0,1,14,,,,,,,,,,,,,,
0,program_change,0,0,12,,,,,,,,48,11,,,,,
0,midi_port,0,1,1,,,,,,,0,,,,,,,
0,end_of_track,0,1,20,,,,,,,,,,,,,,
0,track_name,0,1,0,,,,,,,,,,,,,,
0,text,0,1,0,,,,,,,,,,,,,,
0,text,0,1,0,,,,,,,,,,,,,,
0,text,0,1,0,,,,,,,,,,,,,,
0,copyright,0,1,0,,,,,,,,,,,,,,
0,text,0,1,0,,,,,,,,,,,,,,
0,set_tempo,0,1,0,,,,,,250000,,,,,,,,
0,marker,0,1,0,,,,,,,,,,,,,,
0,text,0,1,0,,,,,,,,,,,,,,
0,text,0,1,0,,,,,,,,,,,,,,
0,text,0,1,0,,,,,,,,,,,,,,
0,text,0,1,0,,,,,,,,,,,,,,
0,text,0,1,0,,,,,,,,,,,,,,
0,text,0,1,0,,,,,,,,,,,,,,
0,text,0,1,0,,,,,,,,,,,,,,
0,text,0,1,0,,,,,,,,,,,,,,
0,text,0,1,0,,,,,,,,,,,,,,
0,text,0,1,0,,,,,,,,,,,,,,
0,text,0,1,0,,,,,,,,,,,,,,
0,text,0,1,0,,,,,,,,,,,,,,
0,text,0,1,0,,,,,,,,,,,,,,
0,key_signature,0,1,0,,,,,C,,,,,,,,,
0,text,0,1,0,,,,,,,,,,,,,,
0,text,0,1,0,,,,,,,,,,,,,,
0,time_signature,0,1,0,3,4,24,8,,,,,,,,,,
0,text,0,1,0,,,,,,,,,,,,,,
0,text,0,1,0,,,,,,,,,,,,,,
0,text,0,1,0,,,,,,,,,,,,,,
0,text,0,1,0,,,,,,,,,,,,,,
0,text,0,1,0,,,,,,,,,,,,,,
1,control_change,1,0,1,,,,,,,,,0,121,0,,,
2,control_change,2,0,7,,,,,,,,,6,121,0,,,
3,control_change,3,0,5,,,,,,,,,4,121,0,,,
3,control_change,3,0,12,,,,,,,,,11,121,0,,,
4,control_change,4,0,6,,,,,,,,,5,121,0,,,
4,control_change,4,0,2,,,,,,,,,1,121,0,,,
5,control_change,5,0,3,,,,,,,,,2,121,0,,,
5,program_change,5,0,11,,,,,,,,48,10,,,,,
6,program_change,5,0,1,,,,,,,,73,0,,,,,
7,control_change,7,0,8,,,,,,,,,7,121,0,,,
7,program_change,5,0,7,,,,,,,,56,6,,,,,
8,program_change,5,0,5,,,,,,,,60,4,,,,,
8,control_change,8,0,13,,,,,,,,,12,121,0,,,
8,program_change,5,0,12,,,,,,,,48,11,,,,,
9,control_change,9,0,4,,,,,,,,,3,121,0,,,
9,program_change,5,0,6,,,,,,,,60,5,,,,,
9,program_change,5,0,2,,,,,,,,68,1,,,,,
10,program_change,5,0,3,,,,,,,,71,2,,,,,
10,pitchwheel,5,0,11,,,,,,,,,10,,,300,,
11,pitchwheel,5,0,1,,,,,,,,,0,,,0,,
12,program_change,5,0,8,,,,,,,,57,7,,,,,
12,pitchwheel,5,0,7,,,,,,,,,6,,,0,,
12,control_change,12,0,14,,,,,,,,,13,121,0,,,
13,program_change,5,0,13,,,,,,,,50,12,,,,,
13,pitchwheel,5,0,5,,,,,,,,,4,,,150,,
13,control_change,13,0,9,,,,,,,,,8,121,0,,,
13,pitchwheel,5,0,12,,,,,,,,,11,,,-300,,
14,pitchwheel,5,0,6,,,,,,,,,5,,,-150,,
14,pitchwheel,5,0,2,,,,,,,,,1,,,0,,
14,program_change,5,0,4,,,,,,,,70,3,,,,,
14,control_change,14,0,15,,,,,,,,,14,121,0,,,
15,pitchwheel,5,0,3,,,,,,,,,2,,,0,,
15,control_change,5,0,11,,,,,,,,,10,11,83,,,
15,control_change,15,0,10,,,,,,,,,15,121,0,,,
16,control_change,5,0,1,,,,,,,,,0,11,47,,,
17,program_change,5,0,14,,,,,,,,48,13,,,,,
17,control_change,5,0,7,,,,,,,,,6,11,82,,,
17,pitchwheel,5,0,8,,,,,,,,,7,,,0,,
18,control_change,5,0,12,,,,,,,,,11,11,83,,,
18,program_change,5,0,9,,,,,,,,57,8,,,,,
18,control_change,5,0,5,,,,,,,,,4,11,47,,,
18,pitchwheel,5,0,13,,,,,,,,,12,,,300,,
19,pitchwheel,5,0,4,,,,,,,,,3,,,0,,
19,control_change,5,0,2,,,,,,,,,1,11,47,,,
19,program_change,5,0,15,,,,,,,,48,14,,,,,
19,control_change,5,0,6,,,,,,,,,5,11,47,,,
20,control_change,5,0,3,,,,,,,,,2,11,47,,,
20,control_change,5,0,11,,,,,,,,,10,7,127,,,
20,program_change,5,0,10,,,,,,,,47,15,,,,,
21,control_change,5,0,1,,,,,,,,,0,7,127,,,
22,pitchwheel,5,0,14,,,,,,,,,13,,,-300,,
22,control_change,5,0,8,,,,,,,,,7,11,82,,,
22,control_change,5,0,7,,,,,,,,,6,7,127,,,
23,control_change,5,0,5,,,,,,,,,4,7,127,,,
23,control_change,5,0,12,,,,,,,,,11,7,127,,,
23,control_change,5,0,13,,,,,,,,,12,11,83,,,
23,pitchwheel,5,0,9,,,,,,,,,8,,,0,,
24,pitchwheel,5,0,15,,,,,,,,,14,,,300,,
24,control_change,5,0,6,,,,,,,,,5,7,127,,,
24,control_change,5,0,2,,,,,,,,,1,7,127,,,
24,control_change,5,0,4,,,,,,,,,3,11,47,,,
25,control_change,5,0,3,,,,,,,,,2,7,127,,,
25,pitchwheel,5,0,10,,,,,,,,,15,,,0,,
25,control_change,5,0,11,,,,,,,,,10,91,64,,,
26,control_change,5,0,1,,,,,,,,,0,91,72,,,
27,control_change,5,0,14,,,,,,,,,13,11,83,,,
27,control_change,5,0,8,,,,,,,,,7,7,127,,,
27,control_change,5,0,7,,,,,,,,,6,91,106,,,
28,control_change,5,0,12,,,,,,,,,11,91,64,,,
28,control_change,5,0,9,,,,,,,,,8,11,82,,,
28,control_change,5,0,5,,,,,,,,,4,91,106,,,
28,control_change,5,0,13,,,,,,,,,12,7,127,,,
29,control_change,5,0,4,,,,,,,,,3,7,127,,,
29,control_change,5,0,15,,,,,,,,,14,11,83,,,
29,control_change,5,0,2,,,,,,,,,1,91,72,,,
29,control_change,5,0,6,,,,,,,,,5,91,106,,,
30,control_change,5,0,10,,,,,,,,,15,11,127,,,
30,control_change,5,0,3,,,,,,,,,2,91,72,,,
30,control_change,5,0,11,,,,,,,,,10,93,0,,,
31,control_change,5,0,1,,,,,,,,,0,93,0,,,
32,control_change,5,0,14,,,,,,,,,13,7,127,,,
32,control_change,5,0,7,,,,,,,,,6,93,0,,,
32,control_change,5,0,8,,,,,,,,,7,91,106,,,
33,control_change,5,0,13,,,,,,,,,12,91,42,,,
33,control_change,5,0,5,,,,,,,,,4,93,0,,,
33,control_change,5,0,9,,,,,,,,,8,7,127,,,
33,control_change,5,0,12,,,,,,,,,11,93,0,,,
34,control_change,5,0,4,,,,,,,,,3,91,89,,,
34,control_change,5,0,2,,,,,,,,,1,93,0,,,
34,control_change,5,0,15,,,,,,,,,14,7,127,,,
34,control_change,5,0,6,,,,,,,,,5,93,0,,,
35,control_change,5,0,3,,,,,,,,,2,93,0,,,
35,control_change,5,0,10,,,,,,,,,15,7,127,,,
37,control_change,5,0,8,,,,,,,,,7,93,0,,,
37,control_change,5,0,14,,,,,,,,,13,91,68,,,
38,control_change,5,0,13,,,,,,,,,12,93,0,,,
38,control_change,5,0,9,,,,,,,,,8,91,106,,,
39,control_change,5,0,15,,,,,,,,,14,91,93,,,
39,control_change,5,0,4,,,,,,,,,3,93,0,,,
40,control_change,5,0,10,,,,,,,,,15,91,119,,,
42,control_change,5,0,14,,,,,,,,,13,93,0,,,
43,control_change,5,0,9,,,,,,,,,8,93,0,,,
44,control_change,5,0,15,,,,,,,,,14,93,0,,,
45,control_change,5,0,10,,,,,,,,,15,93,0,,,
360,set_tempo,360,1,0,,,,,,254237,,,,,,,,
360,note_on,330,0,11,,,,,,,,,10,,,,55,112
363,note_on,330,0,12,,,,,,,,,11,,,,55,112
368,note_on,330,0,13,,,,,,,,,12,,,,55,112
372,note_on,330,0,14,,,,,,,,,13,,,,43,112
374,note_on,330,0,15,,,,,,,,,14,,,,31,112
390,note_on,30,0,11,,,,,,,,,10,,,,55,0
393,note_on,30,0,12,,,,,,,,,11,,,,55,0
398,note_on,30,0,13,,,,,,,,,12,,,,55,0
402,note_on,30,0,14,,,,,,,,,13,,,,43,0
404,note_on,30,0,15,,,,,,,,,14,,,,31,0
420,note_on,30,0,11,,,,,,,,,10,,,,55,112
423,note_on,30,0,12,,,,,,,,,11,,,,55,112
428,note_on,30,0,13,,,,,,,,,12,,,,55,112
432,note_on,30,0,14,,,,,,,,,13,,,,43,112
434,note_on,30,0,15,,,,,,,,,14,,,,31,112
450,note_on,30,0,11,,,,,,,,,10,,,,55,0
453,note_on,30,0,12,,,,,,,,,11,,,,55,0
458,note_on,30,0,13,,,,,,,,,12,,,,55,0
462,note_on,30,0,14,,,,,,,,,13,,,,43,0
464,note_on,30,0,15,,,,,,,,,14,,,,31,0
480,note_on,30,0,11,,,,,,,,,10,,,,57,112
480,set_tempo,120,1,0,,,,,,263158,,,,,,,,
483,note_on,30,0,12,,,,,,,,,11,,,,57,112
488,note_on,30,0,13,,,,,,,,,12,,,,57,112
492,note_on,30,0,14,,,,,,,,,13,,,,45,112
494,note_on,30,0,15,,,,,,,,,14,,,,33,112
510,note_on,30,0,11,,,,,,,,,10,,,,57,0
513,note_on,30,0,12,,,,,,,,,11,,,,57,0
518,note_on,30,0,13,,,,,,,,,12,,,,57,0
522,note_on,30,0,14,,,,,,,,,13,,,,45,0
524,note_on,30,0,15,,,,,,,,,14,,,,33,0
540,note_on,30,0,11,,,,,,,,,10,,,,55,112
543,note_on,30,0,12,,,,,,,,,11,,,,55,112
548,note_on,30,0,13,,,,,,,,,12,,,,55,112
552,note_on,30,0,14,,,,,,,,,13,,,,43,112
554,note_on,30,0,15,,,,,,,,,14,,,,31,112
570,note_on,30,0,11,,,,,,,,,10,,,,55,0
573,note_on,30,0,12,,,,,,,,,11,,,,55,0
578,note_on,30,0,13,,,,,,,,,12,,,,55,0
582,note_on,30,0,14,,,,,,,,,13,,,,43,0
584,note_on,30,0,15,,,,,,,,,14,,,,31,0
600,note_on,30,0,11,,,,,,,,,10,,,,57,112
600,set_tempo,120,1,0,,,,,,288462,,,,,,,,
603,note_on,30,0,12,,,,,,,,,11,,,,57,112
608,note_on,30,0,13,,,,,,,,,12,,,,57,112
612,note_on,30,0,14,,,,,,,,,13,,,,45,112
614,note_on,30,0,15,,,,,,,,,14,,,,33,112
630,note_on,30,0,11,,,,,,,,,10,,,,57,0
633,note_on,30,0,12,,,,,,,,,11,,,,57,0
638,note_on,30,0,13,,,,,,,,,12,,,,57,0
642,note_on,30,0,14,,,,,,,,,13,,,,45,0
644,note_on,30,0,15,,,,,,,,,14,,,,33,0
660,note_on,30,0,11,,,,,,,,,10,,,,55,112
663,note_on,30,0,12,,,,,,,,,11,,,,55,112
668,note_on,30,0,13,,,,,,,,,12,,,,55,112
672,note_on,30,0,14,,,,,,,,,13,,,,43,112
674,note_on,30,0,15,,,,,,,,,14,,,,31,112
690,note_on,30,0,11,,,,,,,,,10,,,,55,0
693,note_on,30,0,12,,,,,,,,,11,,,,55,0
698,note_on,30,0,13,,,,,,,,,12,,,,55,0
702,note_on,30,0,14,,,,,,,,,13,,,,43,0
704,note_on,30,0,15,,,,,,,,,14,,,,31,0
720,set_tempo,120,1,0,,,,,,258621,,,,,,,,
720,marker,0,1,0,,,,,,,,,,,,,,
720,note_on,30,0,11,,,,,,,,,10,,,,60,112
723,note_on,30,0,12,,,,,,,,,11,,,,60,112
728,note_on,30,0,13,,,,,,,,,12,,,,60,112
732,note_on,30,0,14,,,,,,,,,13,,,,48,112
734,note_on,30,0,15,,,,,,,,,14,,,,36,112
780,note_on,60,0,11,,,,,,,,,10,,,,60,0
783,note_on,60,0,12,,,,,,,,,11,,,,60,0
788,note_on,60,0,13,,,,,,,,,12,,,,60,0
792,note_on,60,0,14,,,,,,,,,13,,,,48,0
794,note_on,60,0,15,,,,,,,,,14,,,,36,0
840,note_on,60,0,11,,,,,,,,,10,,,,60,112
843,note_on,60,0,12,,,,,,,,,11,,,,60,112
848,note_on,60,0,13,,,,,,,,,12,,,,60,112
852,note_on,60,0,14,,,,,,,,,13,,,,48,112
854,note_on,60,0,15,,,,,,,,,14,,,,36,112
900,note_on,60,0,11,,,,,,,,,10,,,,60,0
903,note_on,60,0,12,,,,,,,,,11,,,,60,0
908,note_on,60,0,13,,,,,,,,,12,,,,60,0
912,note_on,60,0,14,,,,,,,,,13,,,,48,0
914,note_on,60,0,15,,,,,,,,,14,,,,36,0
960,note_on,60,0,11,,,,,,,,,10,,,,60,112
960,set_tempo,240,1,0,,,,,,288462,,,,,,,,
963,note_on,60,0,12,,,,,,,,,11,,,,60,112
968,note_on,60,0,13,,,,,,,,,12,,,,60,112
972,note_on,60,0,14,,,,,,,,,13,,,,48,112
974,note_on,60,0,15,,,,,,,,,14,,,,36,112
1020,note_on,60,0,11,,,,,,,,,10,,,,60,0
1023,note_on,60,0,12,,,,,,,,,11,,,,60,0
1028,note_on,60,0,13,,,,,,,,,12,,,,60,0
1032,note_on,60,0,14,,,,,,,,,13,,,,48,0
1034,note_on,60,0,15,,,,,,,,,14,,,,36,0
1080,set_tempo,120,1,0,,,,,,254237,,,,,,,,
1080,note_on,60,0,11,,,,,,,,,10,,,,59,112
1083,note_on,60,0,12,,,,,,,,,11,,,,59,112
1088,note_on,60,0,13,,,,,,,,,12,,,,59,112
1092,note_on,60,0,14,,,,,,,,,13,,,,47,112
1094,note_on,60,0,15,,,,,,,,,14,,,,35,112
1110,note_on,30,0,11,,,,,,,,,10,,,,59,0
1113,note_on,30,0,12,,,,,,,,,11,,,,59,0
1118,note_on,30,0,13,,,,,,,,,12,,,,59,0
1122,note_on,30,0,14,,,,,,,,,13,,,,47,0
1124,note_on,30,0,15,,,,,,,,,14,,,,35,0
1140,note_on,30,0,11,,,,,,,,,10,,,,60,112
1143,note_on,30,0,12,,,,,,,,,11,,,,60,112
1148,note_on,30,0,13,,,,,,,,,12,,,,60,112
1152,note_on,30,0,14,,,,,,,,,13,,,,48,112
1154,note_on,30,0,15,,,,,,,,,14,,,,36,112
1170,note_on,30,0,11,,,,,,,,,10,,,,60,0
1173,note_on,30,0,12,,,,,,,,,11,,,,60,0
1178,note_on,30,0,13,,,,,,,,,12,,,,60,0
1182,note_on,30,0,14,,,,,,,,,13,,,,48,0
1184,note_on,30,0,15,,,,,,,,,14,,,,36,0
1200,set_tempo,120,1,0,,,,,,263158,,,,,,,,
1200,note_on,30,0,11,,,,,,,,,10,,,,57,112
1203,note_on,30,0,12,,,,,,,,,11,,,,57,112
1208,note_on,30,0,13,,,,,,,,,12,,,,57,112
1212,note_on,30,0,14,,,,,,,,,13,,,,45,112
1214,note_on,30,0,15,,,,,,,,,14,,,,33,112
1230,note_on,30,0,11,,,,,,,,,10,,,,57,0
1233,note_on,30,0,12,,,,,,,,,11,,,,57,0
1238,note_on,30,0,13,,,,,,,,,12,,,,57,0
1242,note_on,30,0,14,,,,,,,,,13,,,,45,0
1244,note_on,30,0,15,,,,,,,,,14,,,,33,0
1260,note_on,30,0,11,,,,,,,,,10,,,,59,112
1263,note_on,30,0,12,,,,,,,,,11,,,,59,112
1268,note_on,30,0,13,,,,,,,,,12,,,,59,112
1272,note_on,30,0,14,,,,,,,,,13,,,,47,112
1274,note_on,30,0,15,,,,,,,,,14,,,,35,112
1290,note_on,30,0,11,,,,,,,,,10,,,,59,0
1293,note_on,30,0,12,,,,,,,,,11,,,,59,0
1298,note_on,30,0,13,,,,,,,,,12,,,,59,0
1302,note_on,30,0,14,,,,,,,,,13,,,,47,0
1304,note_on,30,0,15,,,,,,,,,14,,,,35,0
1320,set_tempo,120,1,0,,,,,,288462,,,,,,,,
1320,note_on,30,0,11,,,,,,,,,10,,,,60,112
1323,note_on,30,0,12,,,,,,,,,11,,,,60,112
1328,note_on,30,0,13,,,,,,,,,12,,,,60,112
1332,note_on,30,0,14,,,,,,,,,13,,,,48,112
1334,note_on,30,0,15,,,,,,,,,14,,,,36,112
1350,note_on,30,0,11,,,,,,,,,10,,,,60,0
1353,note_on,30,0,12,,,,,,,,,11,,,,60,0
1358,note_on,30,0,13,,,,,,,,,12,,,,60,0
1362,note_on,30,0,14,,,,,,,,,13,,,,48,0
1364,note_on,30,0,15,,,,,,,,,14,,,,36,0
1380,note_on,30,0,11,,,,,,,,,10,,,,62,112
1383,note_on,30,0,12,,,,,,,,,11,,,,62,112
1388,note_on,30,0,13,,,,,,,,,12,,,,62,112
1392,note_on,30,0,14,,,,,,,,,13,,,,50,112
1394,note_on,30,0,15,,,,,,,,,14,,,,38,112
1410,note_on,30,0,11,,,,,,,,,10,,,,62,0
1413,note_on,30,0,12,,,,,,,,,11,,,,62,0
1418,note_on,30,0,13,,,,,,,,,12,,,,62,0
1422,note_on,30,0,14,,,,,,,,,13,,,,50,0
1424,note_on,30,0,15,,,,,,,,,14,,,,38,0
1440,set_tempo,120,1,0,,,,,,254237,,,,,,,,
1440,note_on,0,0,11,,,,,,,,,10,,,,64,112
1440,control_change,30,0,11,,,,,,,,,10,11,112,,,
1443,control_change,30,0,12,,,,,,,,,11,11,112,,,
1443,note_on,0,0,12,,,,,,,,,11,,,,64,112
1446,control_change,6,0,11,,,,,,,,,10,11,109,,,
1448,note_on,0,0,13,,,,,,,,,12,,,,64,112
1448,control_change,30,0,13,,,,,,,,,12,11,112,,,
1449,control_change,6,0,12,,,,,,,,,11,11,109,,,
1452,note_on,0,0,14,,,,,,,,,13,,,,52,112
1452,control_change,6,0,11,,,,,,,,,10,11,106,,,
1452,control_change,30,0,14,,,,,,,,,13,11,112,,,
1454,note_on,0,0,15,,,,,,,,,14,,,,40,112
1454,control_change,30,0,15,,,,,,,,,14,11,112,,,
1454,control_change,6,0,13,,,,,,,,,12,11,109,,,
1455,control_change,6,0,12,,,,,,,,,11,11,106,,,
1458,control_change,6,0,14,,,,,,,,,13,11,109,,,
1458,control_change,6,0,11,,,,,,,,,10,11,103,,,
1460,control_change,6,0,15,,,,,,,,,14,11,109,,,
1460,control_change,6,0,13,,,,,,,,,12,11,106,,,
1461,control_change,6,0,12,,,,,,,,,11,11,103,,,
1464,control_change,6,0,11,,,,,,,,,10,11,100,,,
1464,control_change,6,0,14,,,,,,,,,13,11,106,,,
1466,control_change,6,0,13,,,,,,,,,12,11,103,,,
1466,control_change,6,0,15,,,,,,,,,14,11,106,,,
1467,control_change,6,0,12,,,,,,,,,11,11,100,,,
1470,control_change,6,0,11,,,,,,,,,10,11,97,,,
1470,control_change,6,0,14,,,,,,,,,13,11,103,,,
1472,control_change,6,0,15,,,,,,,,,14,11,103,,,
1472,control_change,6,0,13,,,,,,,,,12,11,100,,,
1473,control_change,6,0,12,,,,,,,,,11,11,97,,,
1476,control_change,6,0,11,,,,,,,,,10,11,94,,,
1476,control_change,6,0,14,,,,,,,,,13,11,100,,,
1478,control_change,6,0,15,,,,,,,,,14,11,100,,,
1478,control_change,6,0,13,,,,,,,,,12,11,97,,,
1479,control_change,6,0,12,,,,,,,,,11,11,94,,,
1482,control_change,6,0,11,,,,,,,,,10,11,91,,,
1482,control_change,6,0,14,,,,,,,,,13,11,97,,,
1484,control_change,6,0,15,,,,,,,,,14,11,97,,,
1484,control_change,6,0,13,,,,,,,,,12,11,94,,,
1485,control_change,6,0,12,,,,,,,,,11,11,91,,,
1488,control_change,6,0,11,,,,,,,,,10,11,88,,,
1488,control_change,6,0,14,,,,,,,,,13,11,94,,,
1490,control_change,6,0,15,,,,,,,,,14,11,94,,,
1490,control_change,6,0,13,,,,,,,,,12,11,91,,,
1491,control_change,6,0,12,,,,,,,,,11,11,88,,,
1494,control_change,6,0,14,,,,,,,,,13,11,91,,,
1496,control_change,6,0,15,,,,,,,,,14,11,91,,,
1496,control_change,6,0,13,,,,,,,,,12,11,88,,,
1500,control_change,6,0,14,,,,,,,,,13,11,88,,,
1500,control_change,12,0,11,,,,,,,,,10,11,83,,,
1502,control_change,6,0,15,,,,,,,,,14,11,88,,,
1503,control_change,12,0,12,,,,,,,,,11,11,83,,,
1508,control_change,12,0,13,,,,,,,,,12,11,83,,,
1512,control_change,12,0,14,,,,,,,,,13,11,83,,,
1514,control_change,12,0,15,,,,,,,,,14,11,83,,,
1560,set_tempo,120,1,0,,,,,,263158,,,,,,,,
1560,control_change,60,0,11,,,,,,,,,10,11,83,,,
1563,control_change,60,0,12,,,,,,,,,11,11,83,,,
1568,control_change,60,0,13,,,,,,,,,12,11,83,,,
1572,control_change,60,0,14,,,,,,,,,13,11,83,,,
1574,control_change,60,0,15,,,,,,,,,14,11,83,,,
1581,control_change,21,0,11,,,,,,,,,10,11,81,,,
1584,control_change,21,0,12,,,,,,,,,11,11,81,,,
1589,control_change,21,0,13,,,,,,,,,12,11,81,,,
1593,control_change,21,0,14,,,,,,,,,13,11,81,,,
1595,control_change,21,0,15,,,,,,,,,14,11,81,,,
1602,control_change,21,0,11,,,,,,,,,10,11,79,,,
1605,control_change,21,0,12,,,,,,,,,11,11,79,,,
1610,control_change,21,0,13,,,,,,,,,12,11,79,,,
1614,control_change,21,0,14,,,,,,,,,13,11,79,,,
1616,control_change,21,0,15,,,,,,,,,14,11,79,,,
1623,control_change,21,0,11,,,,,,,,,10,11,77,,,
1626,control_change,21,0,12,,,,,,,,,11,11,77,,,
1631,control_change,21,0,13,,,,,,,,,12,11,77,,,
1635,control_change,21,0,14,,,,,,,,,13,11,77,,,
1637,control_change,21,0,15,,,,,,,,,14,11,77,,,
1644,control_change,21,0,11,,,,,,,,,10,11,75,,,
1647,control_change,21,0,12,,,,,,,,,11,11,75,,,
1652,control_change,21,0,13,,,,,,,,,12,11,75,,,
1656,control_change,21,0,14,,,,,,,,,13,11,75,,,
1658,control_change,21,0,15,,,,,,,,,14,11,75,,,
1665,control_change,21,0,11,,,,,,,,,10,11,73,,,
1668,control_change,21,0,12,,,,,,,,,11,11,73,,,
1673,control_change,21,0,13,,,,,,,,,12,11,73,,,
1677,control_change,21,0,14,,,,,,,,,13,11,73,,,
1679,control_change,21,0,15,,,,,,,,,14,11,73,,,
1680,set_tempo,120,1,0,,,,,,307692,,,,,,,,
1686,control_change,21,0,11,,,,,,,,,10,11,72,,,
1689,control_change,21,0,12,,,,,,,,,11,11,72,,,
1694,control_change,21,0,13,,,,,,,,,12,11,72,,,
1698,control_change,21,0,14,,,,,,,,,13,11,72,,,
1700,control_change,21,0,15,,,,,,,,,14,11,72,,,
1707,control_change,21,0,11,,,,,,,,,10,11,70,,,
1710,control_change,21,0,12,,,,,,,,,11,11,70,,,
1715,control_change,21,0,13,,,,,,,,,12,11,70,,,
1719,control_change,21,0,14,,,,,,,,,13,11,70,,,
1721,control_change,21,0,15,,,,,,,,,14,11,70,,,
1728,control_change,21,0,11,,,,,,,,,10,11,68,,,
1731,control_change,21,0,12,,,,,,,,,11,11,68,,,
1736,control_change,21,0,13,,,,,,,,,12,11,68,,,
1740,control_change,21,0,14,,,,,,,,,13,11,68,,,
1742,control_change,21,0,15,,,,,,,,,14,11,68,,,
1749,control_change,21,0,11,,,,,,,,,10,11,66,,,
1752,control_change,21,0,12,,,,,,,,,11,11,66,,,
1757,control_change,21,0,13,,,,,,,,,12,11,66,,,
1761,control_change,21,0,14,,,,,,,,,13,11,66,,,
1763,control_change,21,0,15,,,,,,,,,14,11,66,,,
1770,control_change,21,0,11,,,,,,,,,10,11,64,,,
1772,note_on,2,0,11,,,,,,,,,10,,,,64,0
1773,control_change,21,0,12,,,,,,,,,11,11,64,,,
1775,note_on,2,0,12,,,,,,,,,11,,,,64,0
1778,control_change,21,0,13,,,,,,,,,12,11,64,,,
1780,note_on,2,0,13,,,,,,,,,12,,,,64,0
1782,control_change,21,0,14,,,,,,,,,13,11,64,,,
1784,note_on,2,0,14,,,,,,,,,13,,,,52,0
1784,control_change,21,0,15,,,,,,,,,14,11,64,,,
1786,note_on,2,0,15,,,,,,,,,14,,,,40,0
1800,set_tempo,120,1,0,,,,,,254237,,,,,,,,
1803,note_on,1770,0,5,,,,,,,,,4,,,,62,115
1804,note_on,1770,0,2,,,,,,,,,1,,,,79,100
1804,note_on,0,0,2,,,,,,,,,1,,,,71,115
1804,note_on,1770,0,6,,,,,,,,,5,,,,55,115
1824,note_on,20,0,2,,,,,,,,,1,,,,79,0
1864,note_on,40,0,2,,,,,,,,,1,,,,79,100
1884,note_on,20,0,2,,,,,,,,,1,,,,79,0
1920,set_tempo,120,1,0,,,,,,263158,,,,,,,,
1924,note_on,40,0,2,,,,,,,,,1,,,,81,100
1984,note_on,60,0,2,,,,,,,,,1,,,,81,0
1984,note_on,0,0,2,,,,,,,,,1,,,,79,100
2040,set_tempo,120,1,0,,,,,,288462,,,,,,,,
2044,note_on,60,0,2,,,,,,,,,1,,,,79,0
2044,note_on,0,0,2,,,,,,,,,1,,,,81,100
2104,note_on,60,0,2,,,,,,,,,1,,,,81,0
2104,note_on,0,0,2,,,,,,,,,1,,,,79,100
2160,set_tempo,120,1,0,,,,,,254237,,,,,,,,
2163,note_on,360,0,5,,,,,,,,,4,,,,62,0
2163,note_on,0,0,5,,,,,,,,,4,,,,64,100
2164,note_on,0,0,6,,,,,,,,,5,,,,60,100
2164,note_on,360,0,6,,,,,,,,,5,,,,55,0
2164,note_on,0,0,2,,,,,,,,,1,,,,76,100
2164,note_on,0,0,2,,,,,,,,,1,,,,72,100
2164,note_on,0,0,2,,,,,,,,,1,,,,71,0
2164,note_on,60,0,2,,,,,,,,,1,,,,79,0
2175,note_on,2130,0,10,,,,,,,,,15,,,,48,35
2203,note_on,40,0,5,,,,,,,,,4,,,,64,0
2204,note_on,40,0,2,,,,,,,,,1,,,,76,0
2204,note_on,0,0,2,,,,,,,,,1,,,,72,0
2204,note_on,40,0,6,,,,,,,,,5,,,,60,0
2205,note_on,30,0,10,,,,,,,,,15,,,,48,0
2235,note_on,30,0,10,,,,,,,,,15,,,,48,35
2265,note_on,30,0,10,,,,,,,,,15,,,,48,0
2280,set_tempo,120,1,0,,,,,,263158,,,,,,,,
2283,note_on,80,0,5,,,,,,,,,4,,,,64,100
2284,note_on,0,0,2,,,,,,,,,1,,,,76,100
2284,note_on,80,0,2,,,,,,,,,1,,,,72,100
2284,note_on,80,0,6,,,,,,,,,5,,,,55,100
2295,note_on,30,0,10,,,,,,,,,15,,,,43,35
2323,note_on,40,0,5,,,,,,,,,4,,,,64,0
2324,note_on,0,0,2,,,,,,,,,1,,,,72,0
2324,note_on,40,0,2,,,,,,,,,1,,,,76,0
2324,note_on,40,0,6,,,,,,,,,5,,,,55,0
2325,note_on,30,0,10,,,,,,,,,15,,,,43,0
2355,note_on,30,0,10,,,,,,,,,15,,,,48,35
2385,note_on,30,0,10,,,,,,,,,15,,,,48,0
2400,set_tempo,120,1,0,,,,,,288462,,,,,,,,
2403,note_on,80,0,5,,,,,,,,,4,,,,64,100
2404,note_on,80,0,6,,,,,,,,,5,,,,52,100
2404,note_on,80,0,2,,,,,,,,,1,,,,72,100
2404,note_on,0,0,2,,,,,,,,,1,,,,76,100
2415,note_on,30,0,10,,,,,,,,,15,,,,43,35
2443,note_on,40,0,5,,,,,,,,,4,,,,64,0
2444,note_on,40,0,6,,,,,,,,,5,,,,52,0
2444,note_on,0,0,2,,,,,,,,,1,,,,72,0
2444,note_on,40,0,2,,,,,,,,,1,,,,76,0
2445,note_on,30,0,10,,,,,,,,,15,,,,43,0
2475,note_on,30,0,10,,,,,,,,,15,,,,48,35
2505,note_on,30,0,10,,,,,,,,,15,,,,48,0
2520,set_tempo,120,1,0,,,,,,254237,,,,,,,,
2521,note_on,2490,0,1,,,,,,,,,0,,,,91,116
2523,note_on,80,0,5,,,,,,,,,4,,,,62,115
2524,note_on,80,0,6,,,,,,,,,5,,,,55,115
2524,note_on,80,0,2,,,,,,,,,1,,,,71,100
2524,note_on,0,0,2,,,,,,,,,1,,,,74,100
2535,note_on,30,0,10,,,,,,,,,15,,,,43,35
2551,note_on,30,0,1,,,,,,,,,0,,,,91,0
2581,note_on,30,0,1,,,,,,,,,0,,,,91,101
2584,note_on,60,0,2,,,,,,,,,1,,,,74,0
2584,note_on,0,0,2,,,,,,,,,1,,,,71,0
2595,note_on,60,0,10,,,,,,,,,15,,,,43,0
2611,note_on,30,0,1,,,,,,,,,0,,,,91,0
2640,set_tempo,120,1,0,,,,,,263158,,,,,,,,
2641,note_on,30,0,1,,,,,,,,,0,,,,93,101
2644,note_on,60,0,2,,,,,,,,,1,,,,74,100
2644,note_on,0,0,2,,,,,,,,,1,,,,71,100
2655,note_on,60,0,10,,,,,,,,,15,,,,43,35
2701,note_on,60,0,1,,,,,,,,,0,,,,93,0
2701,note_on,0,0,1,,,,,,,,,0,,,,91,101
2704,note_on,60,0,2,,,,,,,,,1,,,,71,0
2704,note_on,0,0,2,,,,,,,,,1,,,,74,0
2715,note_on,60,0,10,,,,,,,,,15,,,,43,0
2760,set_tempo,120,1,0,,,,,,288462,,,,,,,,
2761,note_on,0,0,1,,,,,,,,,0,,,,93,101
2761,note_on,60,0,1,,,,,,,,,0,,,,91,0
2764,note_on,60,0,2,,,,,,,,,1,,,,74,100
2764,note_on,0,0,2,,,,,,,,,1,,,,71,100
2775,note_on,60,0,10,,,,,,,,,15,,,,43,35
2793,note_on,270,0,5,,,,,,,,,4,,,,62,0
2794,note_on,270,0,6,,,,,,,,,5,,,,55,0
2821,note_on,0,0,1,,,,,,,,,0,,,,91,101
2821,note_on,60,0,1,,,,,,,,,0,,,,93,0
2824,note_on,60,0,2,,,,,,,,,1,,,,71,0
2824,note_on,0,0,2,,,,,,,,,1,,,,74,0
2835,note_on,60,0,10,,,,,,,,,15,,,,43,0
2880,set_tempo,120,1,0,,,,,,258621,,,,,,,,
2881,note_on,60,0,1,,,,,,,,,0,,,,91,0
2881,note_on,0,0,1,,,,,,,,,0,,,,88,101
2883,note_on,90,0,5,,,,,,,,,4,,,,64,100
2884,note_on,0,0,2,,,,,,,,,1,,,,72,100
2884,note_on,90,0,6,,,,,,,,,5,,,,60,100
2884,note_on,60,0,2,,,,,,,,,1,,,,76,100
2895,note_on,60,0,10,,,,,,,,,15,,,,48,35
2941,note_on,60,0,1,,,,,,,,,0,,,,88,0
2943,note_on,60,0,5,,,,,,,,,4,,,,64,0
2944,note_on,60,0,6,,,,,,,,,5,,,,60,0
3001,note_on,60,0,1,,,,,,,,,0,,,,88,101
3003,note_on,60,0,5,,,,,,,,,4,,,,64,100
3004,note_on,60,0,6,,,,,,,,,5,,,,55,100
3015,note_on,120,0,10,,,,,,,,,15,,,,48,0
3061,note_on,60,0,1,,,,,,,,,0,,,,88,0
3063,note_on,60,0,5,,,,,,,,,4,,,,64,0
3064,note_on,60,0,6,,,,,,,,,5,,,,55,0
3120,set_tempo,240,1,0,,,,,,288462,,,,,,,,
3121,note_on,60,0,1,,,,,,,,,0,,,,88,101
3123,note_on,60,0,5,,,,,,,,,4,,,,64,100
3124,note_on,60,0,6,,,,,,,,,5,,,,52,100
3181,note_on,60,0,1,,,,,,,,,0,,,,88,0
3183,note_on,60,0,5,,,,,,,,,4,,,,64,0
3184,note_on,60,0,6,,,,,,,,,5,,,,52,0
3240,set_tempo,120,1,0,,,,,,254237,,,,,,,,
3241,note_on,60,0,1,,,,,,,,,0,,,,86,101
3243,note_on,60,0,5,,,,,,,,,4,,,,62,115
3244,note_on,0,0,2,,,,,,,,,1,,,,71,100
3244,note_on,0,0,2,,,,,,,,,1,,,,77,100
3244,note_on,0,0,2,,,,,,,,,1,,,,76,0
3244,note_on,360,0,2,,,,,,,,,1,,,,72,0
3244,note_on,60,0,6,,,,,,,,,5,,,,55,115
3245,note_on,3210,0,3,,,,,,,,,2,,,,79,101
3245,note_on,0,0,3,,,,,,,,,2,,,,71,116
3275,note_on,30,0,3,,,,,,,,,2,,,,79,0
3301,note_on,60,0,1,,,,,,,,,0,,,,86,0
3304,note_on,0,0,2,,,,,,,,,1,,,,77,0
3304,note_on,60,0,2,,,,,,,,,1,,,,71,0
3305,note_on,30,0,3,,,,,,,,,2,,,,79,101
3335,note_on,30,0,3,,,,,,,,,2,,,,79,0
3360,set_tempo,120,1,0,,,,,,263158,,,,,,,,
3361,note_on,60,0,1,,,,,,,,,0,,,,86,101
3364,note_on,0,0,2,,,,,,,,,1,,,,71,100
3364,note_on,60,0,2,,,,,,,,,1,,,,77,100
3365,note_on,30,0,3,,,,,,,,,2,,,,81,101
3421,note_on,60,0,1,,,,,,,,,0,,,,86,0
3424,note_on,0,0,2,,,,,,,,,1,,,,77,0
3424,note_on,60,0,2,,,,,,,,,1,,,,71,0
3425,note_on,60,0,3,,,,,,,,,2,,,,81,0
3425,note_on,0,0,3,,,,,,,,,2,,,,79,101
3480,set_tempo,120,1,0,,,,,,288462,,,,,,,,
3481,note_on,60,0,1,,,,,,,,,0,,,,86,101
3484,note_on,60,0,2,,,,,,,,,1,,,,77,100
3484,note_on,0,0,2,,,,,,,,,1,,,,71,100
3485,note_on,0,0,3,,,,,,,,,2,,,,81,101
3485,note_on,60,0,3,,,,,,,,,2,,,,79,0
3541,note_on,60,0,1,,,,,,,,,0,,,,86,0
3544,note_on,0,0,2,,,,,,,,,1,,,,77,0
3544,note_on,60,0,2,,,,,,,,,1,,,,71,0
3545,note_on,60,0,3,,,,,,,,,2,,,,81,0
3545,note_on,0,0,3,,,,,,,,,2,,,,79,101
3600,set_tempo,120,1,0,,,,,,254237,,,,,,,,
3601,note_on,60,0,1,,,,,,,,,0,,,,88,101
3603,note_on,360,0,5,,,,,,,,,4,,,,62,0
3603,note_on,0,0,5,,,,,,,,,4,,,,64,100
3604,note_on,0,0,2,,,,,,,,,1,,,,76,100
3604,note_on,60,0,2,,,,,,,,,1,,,,72,100
3604,note_on,0,0,6,,,,,,,,,5,,,,60,100
3604,note_on,360,0,6,,,,,,,,,5,,,,55,0
3605,note_on,0,0,3,,,,,,,,,2,,,,72,101
3605,note_on,0,0,3,,,,,,,,,2,,,,71,0
3605,note_on,60,0,3,,,,,,,,,2,,,,79,0
3605,note_on,0,0,3,,,,,,,,,2,,,,76,101
3615,note_on,600,0,10,,,,,,,,,15,,,,48,35
3645,note_on,30,0,10,,,,,,,,,15,,,,48,0
3663,note_on,60,0,5,,,,,,,,,4,,,,64,0
3664,note_on,60,0,6,,,,,,,,,5,,,,60,0
3665,note_on,60,0,3,,,,,,,,,2,,,,76,0
3665,note_on,0,0,3,,,,,,,,,2,,,,72,0
3675,note_on,30,0,10,,,,,,,,,15,,,,48,35
3705,note_on,30,0,10,,,,,,,,,15,,,,48,0
3720,set_tempo,120,1,0,,,,,,263158,,,,,,,,
3723,note_on,60,0,5,,,,,,,,,4,,,,64,100
3724,note_on,60,0,6,,,,,,,,,5,,,,55,100
3725,note_on,60,0,3,,,,,,,,,2,,,,72,101
3725,note_on,0,0,3,,,,,,,,,2,,,,76,101
3735,note_on,30,0,10,,,,,,,,,15,,,,43,35
3765,note_on,30,0,10,,,,,,,,,15,,,,43,0
3783,note_on,60,0,5,,,,,,,,,4,,,,64,0
3784,note_on,60,0,6,,,,,,,,,5,,,,55,0
3785,note_on,60,0,3,,,,,,,,,2,,,,76,0
3785,note_on,0,0,3,,,,,,,,,2,,,,72,0
3795,note_on,30,0,10,,,,,,,,,15,,,,48,35
3825,note_on,30,0,10,,,,,,,,,15,,,,48,0
3840,set_tempo,120,1,0,,,,,,288462,,,,,,,,
3843,note_on,60,0,5,,,,,,,,,4,,,,64,100
3844,note_on,60,0,6,,,,,,,,,5,,,,60,100
3845,note_on,0,0,3,,,,,,,,,2,,,,76,101
3845,note_on,60,0,3,,,,,,,,,2,,,,72,101
3855,note_on,30,0,10,,,,,,,,,15,,,,43,35
3885,note_on,30,0,10,,,,,,,,,15,,,,43,0
3903,note_on,60,0,5,,,,,,,,,4,,,,64,0
3904,note_on,60,0,6,,,,,,,,,5,,,,60,0
3905,note_on,60,0,3,,,,,,,,,2,,,,76,0
3905,note_on,0,0,3,,,,,,,,,2,,,,72,0
3915,note_on,30,0,10,,,,,,,,,15,,,,48,35
3945,note_on,30,0,10,,,,,,,,,15,,,,48,0
3960,set_tempo,120,1,0,,,,,,254237,,,,,,,,
3961,note_on,0,0,1,,,,,,,,,0,,,,86,69
3961,note_on,0,0,1,,,,,,,,,0,,,,91,69
3961,note_on,360,0,1,,,,,,,,,0,,,,88,0
3963,note_on,60,0,5,,,,,,,,,4,,,,67,100
3964,note_on,60,0,6,,,,,,,,,5,,,,65,100
3964,note_on,360,0,2,,,,,,,,,1,,,,76,0
3964,note_on,0,0,2,,,,,,,,,1,,,,72,0
3964,note_on,0,0,2,,,,,,,,,1,,,,83,68
3964,note_on,0,0,2,,,,,,,,,1,,,,77,80
3965,note_on,60,0,3,,,,,,,,,2,,,,71,81
3965,note_on,0,0,3,,,,,,,,,2,,,,74,81
3969,control_change,3930,0,4,,,,,,,,,3,11,57,,,
3969,note_on,0,0,4,,,,,,,,,3,,,,55,127
3975,note_on,30,0,10,,,,,,,,,15,,,,43,35
3999,note_on,30,0,4,,,,,,,,,3,,,,55,0
4021,note_on,60,0,1,,,,,,,,,0,,,,86,0
4021,note_on,0,0,1,,,,,,,,,0,,,,91,0
4023,note_on,60,0,5,,,,,,,,,4,,,,67,0
4024,note_on,60,0,6,,,,,,,,,5,,,,65,0
4024,note_on,60,0,2,,,,,,,,,1,,,,77,0
4024,note_on,0,0,2,,,,,,,,,1,,,,83,0
4025,note_on,0,0,3,,,,,,,,,2,,,,71,0
4025,note_on,60,0,3,,,,,,,,,2,,,,74,0
4029,note_on,30,0,4,,,,,,,,,3,,,,55,120
4035,note_on,60,0,10,,,,,,,,,15,,,,43,0
4059,note_on,30,0,4,,,,,,,,,3,,,,55,0
4080,set_tempo,120,1,0,,,,,,263158,,,,,,,,
4081,note_on,60,0,1,,,,,,,,,0,,,,91,69
4081,note_on,0,0,1,,,,,,,,,0,,,,86,69
4083,note_on,60,0,5,,,,,,,,,4,,,,67,100
4084,note_on,60,0,6,,,,,,,,,5,,,,65,100
4084,note_on,60,0,2,,,,,,,,,1,,,,83,68
4084,note_on,0,0,2,,,,,,,,,1,,,,77,80
4085,note_on,0,0,3,,,,,,,,,2,,,,74,81
4085,note_on,60,0,3,,,,,,,,,2,,,,71,81
4089,note_on,30,0,4,,,,,,,,,3,,,,57,120
4095,note_on,60,0,10,,,,,,,,,15,,,,43,35
4141,note_on,60,0,1,,,,,,,,,0,,,,86,0
4141,note_on,0,0,1,,,,,,,,,0,,,,91,0
4143,note_on,60,0,5,,,,,,,,,4,,,,67,0
4144,note_on,60,0,2,,,,,,,,,1,,,,77,0
4144,note_on,60,0,6,,,,,,,,,5,,,,65,0
4144,note_on,0,0,2,,,,,,,,,1,,,,83,0
4145,note_on,60,0,3,,,,,,,,,2,,,,74,0
4145,note_on,0,0,3,,,,,,,,,2,,,,71,0
4149,note_on,60,0,4,,,,,,,,,3,,,,57,0
4149,note_on,0,0,4,,,,,,,,,3,,,,55,120
4155,note_on,60,0,10,,,,,,,,,15,,,,43,0
4200,set_tempo,120,1,0,,,,,,288462,,,,,,,,
4201,note_on,0,0,1,,,,,,,,,0,,,,86,69
4201,note_on,60,0,1,,,,,,,,,0,,,,91,69
4203,note_on,60,0,5,,,,,,,,,4,,,,67,100
4204,note_on,60,0,2,,,,,,,,,1,,,,83,68
4204,note_on,0,0,2,,,,,,,,,1,,,,77,80
4204,note_on,60,0,6,,,,,,,,,5,,,,65,100
4205,note_on,60,0,3,,,,,,,,,2,,,,71,81
4205,note_on,0,0,3,,,,,,,,,2,,,,74,81
4209,note_on,60,0,4,,,,,,,,,3,,,,55,0
4209,note_on,0,0,4,,,,,,,,,3,,,,57,120
4215,note_on,60,0,10,,,,,,,,,15,,,,43,35
4261,note_on,60,0,1,,,,,,,,,0,,,,86,0
4261,note_on,0,0,1,,,,,,,,,0,,,,91,0
4263,note_on,60,0,5,,,,,,,,,4,,,,67,0
4264,note_on,0,0,2,,,,,,,,,1,,,,83,0
4264,note_on,60,0,2,,,,,,,,,1,,,,77,0
4264,note_on,60,0,6,,,,,,,,,5,,,,65,0
4265,note_on,60,0,3,,,,,,,,,2,,,,74,0
4265,note_on,0,0,3,,,,,,,,,2,,,,71,0
4269,note_on,0,0,4,,,,,,,,,3,,,,55,120
4269,note_on,60,0,4,,,,,,,,,3,,,,57,0
4275,note_on,60,0,10,,,,,,,,,15,,,,43,0
4320,set_tempo,120,1,0,,,,,,254237,,,,,,,,
4321,note_on,0,0,1,,,,,,,,,0,,,,84,81
4321,note_on,60,0,1,,,,,,,,,0,,,,88,81
4323,note_on,60,0,5,,,,,,,,,4,,,,67,100
4324,note_on,0,0,2,,,,,,,,,1,,,,84,80
4324,note_on,60,0,2,,,,,,,,,1,,,,76,80
4324,note_on,60,0,6,,,,,,,,,5,,,,64,100
4325,note_on,0,0,3,,,,,,,,,2,,,,72,81
4325,note_on,60,0,3,,,,,,,,,2,,,,76,81
4329,note_on,0,0,4,,,,,,,,,3,,,,60,100
4329,note_on,60,0,4,,,,,,,,,3,,,,55,0
4335,note_on,60,0,10,,,,,,,,,15,,,,48,35
4389,note_on,60,0,4,,,,,,,,,3,,,,60,0
4440,set_tempo,120,1,0,,,,,,263158,,,,,,,,
4449,note_on,60,0,4,,,,,,,,,3,,,,60,100
4455,note_on,120,0,10,,,,,,,,,15,,,,48,0
4509,note_on,60,0,4,,,,,,,,,3,,,,60,0
4560,set_tempo,120,1,0,,,,,,352941,,,,,,,,
4569,note_on,60,0,4,,,,,,,,,3,,,,60,100
4629,note_on,60,0,4,,,,,,,,,3,,,,60,0
4638,note_on,0,0,1,,,,,,,,,0,,,,88,0
4638,note_on,317,0,1,,,,,,,,,0,,,,84,0
4640,note_on,317,0,5,,,,,,,,,4,,,,67,0
4641,note_on,317,0,2,,,,,,,,,1,,,,84,0
4641,note_on,317,0,6,,,,,,,,,5,,,,64,0
4641,note_on,0,0,2,,,,,,,,,1,,,,76,0
4642,note_on,317,0,3,,,,,,,,,2,,,,72,0
4642,note_on,0,0,3,,,,,,,,,2,,,,76,0
4680,set_tempo,120,1,0,,,,,,254237,,,,,,,,
4680,control_change,2908,0,11,,,,,,,,,10,11,83,,,
4680,note_on,0,0,11,,,,,,,,,10,,,,55,112
4683,control_change,2908,0,12,,,,,,,,,11,11,83,,,
4683,note_on,0,0,12,,,,,,,,,11,,,,55,112
4688,control_change,2908,0,13,,,,,,,,,12,11,83,,,
4688,note_on,0,0,13,,,,,,,,,12,,,,55,112
4692,control_change,2908,0,14,,,,,,,,,13,11,83,,,
4692,note_on,0,0,14,,,,,,,,,13,,,,43,112
4694,note_on,0,0,15,,,,,,,,,14,,,,31,112
4694,control_change,2908,0,15,,,,,,,,,14,11,83,,,
4710,note_on,30,0,11,,,,,,,,,10,,,,55,0
4713,note_on,30,0,12,,,,,,,,,11,,,,55,0
4718,note_on,30,0,13,,,,,,,,,12,,,,55,0
4722,note_on,30,0,14,,,,,,,,,13,,,,43,0
4724,note_on,30,0,15,,,,,,,,,14,,,,31,0
4740,note_on,30,0,11,,,,,,,,,10,,,,55,112
4743,note_on,30,0,12,,,,,,,,,11,,,,55,112
4748,note_on,30,0,13,,,,,,,,,12,,,,55,112
4752,note_on,30,0,14,,,,,,,,,13,,,,43,112
4754,note_on,30,0,15,,,,,,,,,14,,,,31,112
4770,note_on,30,0,11,,,,,,,,,10,,,,55,0
4773,note_on,30,0,12,,,,,,,,,11,,,,55,0
4778,note_on,30,0,13,,,,,,,,,12,,,,55,0
4782,note_on,30,0,14,,,,,,,,,13,,,,43,0
4784,note_on,30,0,15,,,,,,,,,14,,,,31,0
4800,set_tempo,120,1,0,,,,,,263158,,,,,,,,
4800,note_on,30,0,11,,,,,,,,,10,,,,57,112
4803,note_on,30,0,12,,,,,,,,,11,,,,57,112
4808,note_on,30,0,13,,,,,,,,,12,,,,57,112
4812,note_on,30,0,14,,,,,,,,,13,,,,45,112
4814,note_on,30,0,15,,,,,,,,,14,,,,33,112
4830,note_on,30,0,11,,,,,,,,,10,,,,57,0
4833,note_on,30,0,12,,,,,,,,,11,,,,57,0
4838,note_on,30,0,13,,,,,,,,,12,,,,57,0
4842,note_on,30,0,14,,,,,,,,,13,,,,45,0
4844,note_on,30,0,15,,,,,,,,,14,,,,33,0
4860,note_on,30,0,11,,,,,,,,,10,,,,55,112
4863,note_on,30,0,12,,,,,,,,,11,,,,55,112
4868,note_on,30,0,13,,,,,,,,,12,,,,55,112
4872,note_on,30,0,14,,,,,,,,,13,,,,43,112
4874,note_on,30,0,15,,,,,,,,,14,,,,31,112
4890,note_on,30,0,11,,,,,,,,,10,,,,55,0
4893,note_on,30,0,12,,,,,,,,,11,,,,55,0
4898,note_on,30,0,13,,,,,,,,,12,,,,55,0
4902,note_on,30,0,14,,,,,,,,,13,,,,43,0
4904,note_on,30,0,15,,,,,,,,,14,,,,31,0
4920,set_tempo,120,1,0,,,,,,288462,,,,,,,,
4920,note_on,30,0,11,,,,,,,,,10,,,,57,112
4923,note_on,30,0,12,,,,,,,,,11,,,,57,112
4928,note_on,30,0,13,,,,,,,,,12,,,,57,112
4932,note_on,30,0,14,,,,,,,,,13,,,,45,112
4934,note_on,30,0,15,,,,,,,,,14,,,,33,112
4950,note_on,30,0,11,,,,,,,,,10,,,,57,0
4953,note_on,30,0,12,,,,,,,,,11,,,,57,0
4958,note_on,30,0,13,,,,,,,,,12,,,,57,0
4962,note_on,30,0,14,,,,,,,,,13,,,,45,0
4964,note_on,30,0,15,,,,,,,,,14,,,,33,0
4980,note_on,30,0,11,,,,,,,,,10,,,,55,112
4983,note_on,30,0,12,,,,,,,,,11,,,,55,112
4988,note_on,30,0,13,,,,,,,,,12,,,,55,112
4992,note_on,30,0,14,,,,,,,,,13,,,,43,112
4994,note_on,30,0,15,,,,,,,,,14,,,,31,112
5010,note_on,30,0,11,,,,,,,,,10,,,,55,0
5013,note_on,30,0,12,,,,,,,,,11,,,,55,0
5018,note_on,30,0,13,,,,,,,,,12,,,,55,0
5022,note_on,30,0,14,,,,,,,,,13,,,,43,0
5024,note_on,30,0,15,,,,,,,,,14,,,,31,0
5040,set_tempo,120,1,0,,,,,,258621,,,,,,,,
5040,note_on,30,0,11,,,,,,,,,10,,,,60,112
5043,note_on,30,0,12,,,,,,,,,11,,,,60,112
5048,note_on,30,0,13,,,,,,,,,12,,,,60,112
5052,note_on,30,0,14,,,,,,,,,13,,,,48,112
5054,note_on,30,0,15,,,,,,,,,14,,,,36,112
5100,note_on,60,0,11,,,,,,,,,10,,,,60,0
5103,note_on,60,0,12,,,,,,,,,11,,,,60,0
5108,note_on,60,0,13,,,,,,,,,12,,,,60,0
5112,note_on,60,0,14,,,,,,,,,13,,,,48,0
5114,note_on,60,0,15,,,,,,,,,14,,,,36,0
5160,note_on,60,0,11,,,,,,,,,10,,,,60,112
5163,note_on,60,0,12,,,,,,,,,11,,,,60,112
5168,note_on,60,0,13,,,,,,,,,12,,,,60,112
5172,note_on,60,0,14,,,,,,,,,13,,,,48,112
5174,note_on,60,0,15,,,,,,,,,14,,,,36,112
5220,note_on,60,0,11,,,,,,,,,10,,,,60,0
5223,note_on,60,0,12,,,,,,,,,11,,,,60,0
5228,note_on,60,0,13,,,,,,,,,12,,,,60,0
5232,note_on,60,0,14,,,,,,,,,13,,,,48,0
5234,note_on,60,0,15,,,,,,,,,14,,,,36,0
5280,set_tempo,240,1,0,,,,,,288462,,,,,,,,
5280,note_on,60,0,11,,,,,,,,,10,,,,60,112
5283,note_on,60,0,12,,,,,,,,,11,,,,60,112
5288,note_on,60,0,13,,,,,,,,,12,,,,60,112
5292,note_on,60,0,14,,,,,,,,,13,,,,48,112
5294,note_on,60,0,15,,,,,,,,,14,,,,36,112
5340,note_on,60,0,11,,,,,,,,,10,,,,60,0
5343,note_on,60,0,12,,,,,,,,,11,,,,60,0
5348,note_on,60,0,13,,,,,,,,,12,,,,60,0
5352,note_on,60,0,14,,,,,,,,,13,,,,48,0
5354,note_on,60,0,15,,,,,,,,,14,,,,36,0
5400,set_tempo,120,1,0,,,,,,254237,,,,,,,,
5400,note_on,60,0,11,,,,,,,,,10,,,,62,112
5403,note_on,60,0,12,,,,,,,,,11,,,,62,112
5408,note_on,60,0,13,,,,,,,,,12,,,,62,112
5412,note_on,60,0,14,,,,,,,,,13,,,,50,112
5414,note_on,60,0,15,,,,,,,,,14,,,,38,112
5430,note_on,30,0,11,,,,,,,,,10,,,,62,0
5433,note_on,30,0,12,,,,,,,,,11,,,,62,0
5438,note_on,30,0,13,,,,,,,,,12,,,,62,0
5442,note_on,30,0,14,,,,,,,,,13,,,,50,0
5444,note_on,30,0,15,,,,,,,,,14,,,,38,0
5460,note_on,30,0,11,,,,,,,,,10,,,,64,112
5463,note_on,30,0,12,,,,,,,,,11,,,,64,112
5468,note_on,30,0,13,,,,,,,,,12,,,,64,112
5472,note_on,30,0,14,,,,,,,,,13,,,,52,112
5474,note_on,30,0,15,,,,,,,,,14,,,,40,112
5490,note_on,30,0,11,,,,,,,,,10,,,,64,0
5493,note_on,30,0,12,,,,,,,,,11,,,,64,0
5498,note_on,30,0,13,,,,,,,,,12,,,,64,0
5502,note_on,30,0,14,,,,,,,,,13,,,,52,0
5504,note_on,30,0,15,,,,,,,,,14,,,,40,0
5520,set_tempo,120,1,0,,,,,,263158,,,,,,,,
5520,note_on,30,0,11,,,,,,,,,10,,,,65,112
5523,note_on,30,0,12,,,,,,,,,11,,,,65,112
5528,note_on,30,0,13,,,,,,,,,12,,,,65,112
5532,note_on,30,0,14,,,,,,,,,13,,,,53,112
5534,note_on,30,0,15,,,,,,,,,14,,,,41,112
5550,note_on,30,0,11,,,,,,,,,10,,,,65,0
5553,note_on,30,0,12,,,,,,,,,11,,,,65,0
5558,note_on,30,0,13,,,,,,,,,12,,,,65,0
5562,note_on,30,0,14,,,,,,,,,13,,,,53,0
5564,note_on,30,0,15,,,,,,,,,14,,,,41,0
5580,note_on,30,0,11,,,,,,,,,10,,,,67,112
5583,note_on,30,0,12,,,,,,,,,11,,,,67,112
5588,note_on,30,0,13,,,,,,,,,12,,,,67,112
5592,note_on,30,0,14,,,,,,,,,13,,,,55,112
5594,note_on,30,0,15,,,,,,,,,14,,,,43,112
5610,note_on,30,0,11,,,,,,,,,10,,,,67,0
5613,note_on,30,0,12,,,,,,,,,11,,,,67,0
5618,note_on,30,0,13,,,,,,,,,12,,,,67,0
5622,note_on,30,0,14,,,,,,,,,13,,,,55,0
5624,note_on,30,0,15,,,,,,,,,14,,,,43,0
5640,set_tempo,120,1,0,,,,,,315789,,,,,,,,
5640,note_on,30,0,11,,,,,,,,,10,,,,69,112
5643,note_on,30,0,12,,,,,,,,,11,,,,69,112
5648,note_on,30,0,13,,,,,,,,,12,,,,69,112
5652,note_on,30,0,14,,,,,,,,,13,,,,57,112
5654,note_on,30,0,15,,,,,,,,,14,,,,45,112
5700,note_on,60,0,11,,,,,,,,,10,,,,69,0
5703,note_on,60,0,12,,,,,,,,,11,,,,69,0
5708,note_on,60,0,13,,,,,,,,,12,,,,69,0
5712,note_on,60,0,14,,,,,,,,,13,,,,57,0
5714,note_on,60,0,15,,,,,,,,,14,,,,45,0
5760,note_on,0,0,11,,,,,,,,,10,,,,64,112
5760,set_tempo,120,1,0,,,,,,254237,,,,,,,,
5760,control_change,60,0,11,,,,,,,,,10,11,112,,,
5763,control_change,60,0,12,,,,,,,,,11,11,112,,,
5763,note_on,0,0,12,,,,,,,,,11,,,,64,112
5766,control_change,6,0,11,,,,,,,,,10,11,109,,,
5768,note_on,0,0,13,,,,,,,,,12,,,,64,112
5768,control_change,60,0,13,,,,,,,,,12,11,112,,,
5769,control_change,6,0,12,,,,,,,,,11,11,109,,,
5772,control_change,6,0,11,,,,,,,,,10,11,106,,,
5772,note_on,0,0,14,,,,,,,,,13,,,,52,112
5772,control_change,60,0,14,,,,,,,,,13,11,112,,,
5774,control_change,6,0,13,,,,,,,,,12,11,109,,,
5774,note_on,0,0,15,,,,,,,,,14,,,,40,112
5774,control_change,60,0,15,,,,,,,,,14,11,112,,,
5775,control_change,6,0,12,,,,,,,,,11,11,106,,,
5778,control_change,6,0,11,,,,,,,,,10,11,103,,,
5778,control_change,6,0,14,,,,,,,,,13,11,109,,,
5780,control_change,6,0,15,,,,,,,,,14,11,109,,,
5780,control_change,6,0,13,,,,,,,,,12,11,106,,,
5781,control_change,6,0,12,,,,,,,,,11,11,103,,,
5784,control_change,6,0,11,,,,,,,,,10,11,100,,,
5784,control_change,6,0,14,,,,,,,,,13,11,106,,,
5786,control_change,6,0,15,,,,,,,,,14,11,106,,,
5786,control_change,6,0,13,,,,,,,,,12,11,103,,,
5787,control_change,6,0,12,,,,,,,,,11,11,100,,,
5790,control_change,6,0,11,,,,,,,,,10,11,97,,,
5790,control_change,6,0,14,,,,,,,,,13,11,103,,,
5792,control_change,6,0,13,,,,,,,,,12,11,100,,,
5792,control_change,6,0,15,,,,,,,,,14,11,103,,,
5793,control_change,6,0,12,,,,,,,,,11,11,97,,,
5796,control_change,6,0,11,,,,,,,,,10,11,94,,,
5796,control_change,6,0,14,,,,,,,,,13,11,100,,,
5798,control_change,6,0,15,,,,,,,,,14,11,100,,,
5798,control_change,6,0,13,,,,,,,,,12,11,97,,,
5799,control_change,6,0,12,,,,,,,,,11,11,94,,,
5802,control_change,6,0,11,,,,,,,,,10,11,91,,,
5802,control_change,6,0,14,,,,,,,,,13,11,97,,,
5804,control_change,6,0,13,,,,,,,,,12,11,94,,,
5804,control_change,6,0,15,,,,,,,,,14,11,97,,,
5805,control_change,6,0,12,,,,,,,,,11,11,91,,,
5808,control_change,6,0,11,,,,,,,,,10,11,88,,,
5808,control_change,6,0,14,,,,,,,,,13,11,94,,,
5810,control_change,6,0,13,,,,,,,,,12,11,91,,,
5810,control_change,6,0,15,,,,,,,,,14,11,94,,,
5811,control_change,6,0,12,,,,,,,,,11,11,88,,,
5814,control_change,6,0,14,,,,,,,,,13,11,91,,,
5816,control_change,6,0,15,,,,,,,,,14,11,91,,,
5816,control_change,6,0,13,,,,,,,,,12,11,88,,,
5820,control_change,12,0,11,,,,,,,,,10,11,83,,,
5820,control_change,6,0,14,,,,,,,,,13,11,88,,,
5822,control_change,6,0,15,,,,,,,,,14,11,88,,,
5823,control_change,12,0,12,,,,,,,,,11,11,83,,,
5828,control_change,12,0,13,,,,,,,,,12,11,83,,,
5832,control_change,12,0,14,,,,,,,,,13,11,83,,,
5834,control_change,12,0,15,,,,,,,,,14,11,83,,,
5880,set_tempo,120,1,0,,,,,,263158,,,,,,,,
5880,control_change,60,0,11,,,,,,,,,10,11,83,,,
5883,control_change,60,0,12,,,,,,,,,11,11,83,,,
5888,control_change,60,0,13,,,,,,,,,12,11,83,,,
5892,control_change,60,0,14,,,,,,,,,13,11,83,,,
5894,control_change,60,0,15,,,,,,,,,14,11,83,,,
5903,control_change,23,0,11,,,,,,,,,10,11,81,,,
5906,control_change,23,0,12,,,,,,,,,11,11,81,,,
5911,control_change,23,0,13,,,,,,,,,12,11,81,,,
5915,control_change,23,0,14,,,,,,,,,13,11,81,,,
5917,control_change,23,0,15,,,,,,,,,14,11,81,,,
5926,control_change,23,0,11,,,,,,,,,10,11,79,,,
5929,control_change,23,0,12,,,,,,,,,11,11,79,,,
5934,control_change,23,0,13,,,,,,,,,12,11,79,,,
5938,control_change,23,0,14,,,,,,,,,13,11,79,,,
5940,control_change,23,0,15,,,,,,,,,14,11,79,,,
5950,control_change,24,0,11,,,,,,,,,10,11,77,,,
5953,control_change,24,0,12,,,,,,,,,11,11,77,,,
5958,control_change,24,0,13,,,,,,,,,12,11,77,,,
5962,control_change,24,0,14,,,,,,,,,13,11,77,,,
5964,control_change,24,0,15,,,,,,,,,14,11,77,,,
5973,control_change,23,0,11,,,,,,,,,10,11,75,,,
5976,control_change,23,0,12,,,,,,,,,11,11,75,,,
5981,control_change,23,0,13,,,,,,,,,12,11,75,,,
5985,control_change,23,0,14,,,,,,,,,13,11,75,,,
5987,control_change,23,0,15,,,,,,,,,14,11,75,,,
5996,control_change,23,0,11,,,,,,,,,10,11,73,,,
5999,control_change,23,0,12,,,,,,,,,11,11,73,,,
6000,set_tempo,120,1,0,,,,,,306122,,,,,,,,
6004,control_change,23,0,13,,,,,,,,,12,11,73,,,
6008,control_change,23,0,14,,,,,,,,,13,11,73,,,
6010,control_change,23,0,15,,,,,,,,,14,11,73,,,
6020,control_change,24,0,11,,,,,,,,,10,11,71,,,
6023,control_change,24,0,12,,,,,,,,,11,11,71,,,
6028,control_change,24,0,13,,,,,,,,,12,11,71,,,
6032,control_change,24,0,14,,,,,,,,,13,11,71,,,
6034,control_change,24,0,15,,,,,,,,,14,11,71,,,
6043,control_change,23,0,11,,,,,,,,,10,11,69,,,
6046,control_change,23,0,12,,,,,,,,,11,11,69,,,
6051,control_change,23,0,13,,,,,,,,,12,11,69,,,
6055,control_change,23,0,14,,,,,,,,,13,11,69,,,
6057,control_change,23,0,15,,,,,,,,,14,11,69,,,
6066,control_change,23,0,11,,,,,,,,,10,11,67,,,
6069,control_change,23,0,12,,,,,,,,,11,11,67,,,
6074,control_change,23,0,13,,,,,,,,,12,11,67,,,
6078,control_change,23,0,14,,,,,,,,,13,11,67,,,
6080,control_change,23,0,15,,,,,,,,,14,11,67,,,
6090,control_change,24,0,11,,,,,,,,,10,11,65,,,
6092,note_on,2,0,11,,,,,,,,,10,,,,64,0
6093,control_change,24,0,12,,,,,,,,,11,11,65,,,
6095,note_on,2,0,12,,,,,,,,,11,,,,64,0
6098,control_change,24,0,13,,,,,,,,,12,11,65,,,
6100,note_on,2,0,13,,,,,,,,,12,,,,64,0
6102,control_change,24,0,14,,,,,,,,,13,11,65,,,
6104,control_change,24,0,15,,,,,,,,,14,11,65,,,
6104,note_on,2,0,14,,,,,,,,,13,,,,52,0
6106,note_on,2,0,15,,,,,,,,,14,,,,40,0
6120,set_tempo,120,1,0,,,,,,254237,,,,,,,,
6124,note_on,1483,0,2,,,,,,,,,1,,,,77,100
6124,note_on,0,0,2,,,,,,,,,1,,,,69,115
6129,note_on,0,0,4,,,,,,,,,3,,,,60,115
6129,note_on,1500,0,4,,,,,,,,,3,,,,53,115
6154,note_on,30,0,2,,,,,,,,,1,,,,77,0
6184,note_on,30,0,2,,,,,,,,,1,,,,77,100
6214,note_on,30,0,2,,,,,,,,,1,,,,77,0
6240,set_tempo,120,1,0,,,,,,263158,,,,,,,,
6244,note_on,30,0,2,,,,,,,,,1,,,,79,100
6304,note_on,60,0,2,,,,,,,,,1,,,,79,0
6304,note_on,0,0,2,,,,,,,,,1,,,,77,100
6360,set_tempo,120,1,0,,,,,,288462,,,,,,,,
6364,note_on,60,0,2,,,,,,,,,1,,,,77,0
6364,note_on,0,0,2,,,,,,,,,1,,,,79,100
6424,note_on,60,0,2,,,,,,,,,1,,,,79,0
6424,note_on,0,0,2,,,,,,,,,1,,,,77,100
6480,set_tempo,120,1,0,,,,,,258621,,,,,,,,
6484,note_on,60,0,2,,,,,,,,,1,,,,77,0
6484,note_on,0,0,2,,,,,,,,,1,,,,69,0
6484,note_on,0,0,2,,,,,,,,,1,,,,77,100
6484,note_on,0,0,2,,,,,,,,,1,,,,70,100
6489,note_on,0,0,4,,,,,,,,,3,,,,53,0
6489,note_on,0,0,4,,,,,,,,,3,,,,58,100
6489,note_on,0,0,4,,,,,,,,,3,,,,62,100
6489,note_on,360,0,4,,,,,,,,,3,,,,60,0
6492,note_on,0,0,14,,,,,,,,,13,,,,46,112
6492,control_change,388,0,14,,,,,,,,,13,11,50,,,
6522,note_on,30,0,14,,,,,,,,,13,,,,46,0
6544,note_on,0,0,2,,,,,,,,,1,,,,70,0
6544,note_on,60,0,2,,,,,,,,,1,,,,77,0
6549,note_on,0,0,4,,,,,,,,,3,,,,58,0
6549,note_on,60,0,4,,,,,,,,,3,,,,62,0
6552,note_on,30,0,14,,,,,,,,,13,,,,46,112
6582,note_on,30,0,14,,,,,,,,,13,,,,46,0
6604,note_on,0,0,2,,,,,,,,,1,,,,77,100
6604,note_on,60,0,2,,,,,,,,,1,,,,70,100
6609,note_on,60,0,4,,,,,,,,,3,,,,53,100
6609,note_on,0,0,4,,,,,,,,,3,,,,62,100
6612,note_on,30,0,14,,,,,,,,,13,,,,41,112
6642,note_on,30,0,14,,,,,,,,,13,,,,41,0
6664,note_on,60,0,2,,,,,,,,,1,,,,77,0
6664,note_on,0,0,2,,,,,,,,,1,,,,70,0
6669,note_on,0,0,4,,,,,,,,,3,,,,53,0
6669,note_on,60,0,4,,,,,,,,,3,,,,62,0
6672,note_on,30,0,14,,,,,,,,,13,,,,46,112
6702,note_on,30,0,14,,,,,,,,,13,,,,46,0
6720,set_tempo,240,1,0,,,,,,288462,,,,,,,,
6724,note_on,60,0,2,,,,,,,,,1,,,,70,100
6724,note_on,0,0,2,,,,,,,,,1,,,,77,100
6729,note_on,60,0,4,,,,,,,,,3,,,,50,100
6729,note_on,0,0,4,,,,,,,,,3,,,,62,100
6732,note_on,30,0,14,,,,,,,,,13,,,,41,112
6762,note_on,30,0,14,,,,,,,,,13,,,,41,0
6784,note_on,0,0,2,,,,,,,,,1,,,,70,0
6784,note_on,60,0,2,,,,,,,,,1,,,,77,0
6789,note_on,0,0,4,,,,,,,,,3,,,,50,0
6789,note_on,60,0,4,,,,,,,,,3,,,,62,0
6792,note_on,30,0,14,,,,,,,,,13,,,,46,112
6822,note_on,30,0,14,,,,,,,,,13,,,,46,0
6840,set_tempo,120,1,0,,,,,,254237,,,,,,,,
6841,note_on,2203,0,1,,,,,,,,,0,,,,89,101
6844,note_on,0,0,2,,,,,,,,,1,,,,77,100
6844,note_on,60,0,2,,,,,,,,,1,,,,69,100
6849,note_on,60,0,4,,,,,,,,,3,,,,53,115
6849,note_on,0,0,4,,,,,,,,,3,,,,60,115
6852,note_on,30,0,14,,,,,,,,,13,,,,41,112
6871,note_on,30,0,1,,,,,,,,,0,,,,89,0
6874,note_on,0,0,2,,,,,,,,,1,,,,75,100
6874,note_on,30,0,2,,,,,,,,,1,,,,77,0
6901,note_on,30,0,1,,,,,,,,,0,,,,89,101
6904,note_on,30,0,2,,,,,,,,,1,,,,75,0
6912,note_on,60,0,14,,,,,,,,,13,,,,41,0
6931,note_on,30,0,1,,,,,,,,,0,,,,89,0
6934,note_on,30,0,2,,,,,,,,,1,,,,69,0
6960,set_tempo,120,1,0,,,,,,263158,,,,,,,,
6961,note_on,30,0,1,,,,,,,,,0,,,,91,101
6964,note_on,0,0,2,,,,,,,,,1,,,,75,100
6964,note_on,30,0,2,,,,,,,,,1,,,,69,100
6972,note_on,60,0,14,,,,,,,,,13,,,,41,112
7021,note_on,0,0,1,,,,,,,,,0,,,,89,101
7021,note_on,60,0,1,,,,,,,,,0,,,,91,0
7024,note_on,60,0,2,,,,,,,,,1,,,,75,0
7024,note_on,0,0,2,,,,,,,,,1,,,,69,0
7032,note_on,60,0,14,,,,,,,,,13,,,,41,0
7080,set_tempo,120,1,0,,,,,,288462,,,,,,,,
7081,note_on,0,0,1,,,,,,,,,0,,,,91,101
7081,note_on,60,0,1,,,,,,,,,0,,,,89,0
7084,note_on,60,0,2,,,,,,,,,1,,,,69,100
7084,note_on,0,0,2,,,,,,,,,1,,,,75,100
7092,note_on,60,0,14,,,,,,,,,13,,,,41,112
7141,note_on,60,0,1,,,,,,,,,0,,,,91,0
7141,note_on,0,0,1,,,,,,,,,0,,,,89,101
7144,note_on,60,0,2,,,,,,,,,1,,,,75,0
7144,note_on,0,0,2,,,,,,,,,1,,,,69,0
7152,note_on,60,0,14,,,,,,,,,13,,,,41,0
7200,set_tempo,120,1,0,,,,,,258621,,,,,,,,
7201,note_on,60,0,1,,,,,,,,,0,,,,89,0
7201,note_on,0,0,1,,,,,,,,,0,,,,89,101
7204,note_on,60,0,2,,,,,,,,,1,,,,74,100
7204,note_on,0,0,2,,,,,,,,,1,,,,70,100
7209,note_on,0,0,4,,,,,,,,,3,,,,62,100
7209,note_on,0,0,4,,,,,,,,,3,,,,58,100
7209,note_on,0,0,4,,,,,,,,,3,,,,53,0
7209,note_on,360,0,4,,,,,,,,,3,,,,60,0
7212,note_on,60,0,14,,,,,,,,,13,,,,46,112
7269,note_on,0,0,4,,,,,,,,,3,,,,62,0
7269,note_on,60,0,4,,,,,,,,,3,,,,58,0
7321,note_on,0,0,1,,,,,,,,,0,,,,89,101
7321,note_on,120,0,1,,,,,,,,,0,,,,89,0
7329,note_on,0,0,4,,,,,,,,,3,,,,53,100
7329,note_on,60,0,4,,,,,,,,,3,,,,62,100
7332,note_on,120,0,14,,,,,,,,,13,,,,46,0
7389,note_on,0,0,4,,,,,,,,,3,,,,62,0
7389,note_on,60,0,4,,,,,,,,,3,,,,53,0
7440,set_tempo,240,1,0,,,,,,288462,,,,,,,,
7441,note_on,0,0,1,,,,,,,,,0,,,,89,101
7441,note_on,120,0,1,,,,,,,,,0,,,,89,0
7449,note_on,60,0,4,,,,,,,,,3,,,,62,100
7449,note_on,0,0,4,,,,,,,,,3,,,,50,100
7509,note_on,0,0,4,,,,,,,,,3,,,,62,0
7509,note_on,60,0,4,,,,,,,,,3,,,,50,0
7560,set_tempo,120,1,0,,,,,,254237,,,,,,,,
7561,note_on,0,0,1,,,,,,,,,0,,,,89,101
7561,note_on,120,0,1,,,,,,,,,0,,,,89,0
7564,note_on,0,0,2,,,,,,,,,1,,,,81,100
7564,note_on,0,0,2,,,,,,,,,1,,,,74,0
7564,note_on,360,0,2,,,,,,,,,1,,,,70,0
7564,note_on,0,0,2,,,,,,,,,1,,,,72,100
7565,note_on,2923,0,3,,,,,,,,,2,,,,69,116
7565,note_on,0,0,3,,,,,,,,,2,,,,77,101
7569,note_on,0,0,4,,,,,,,,,3,,,,60,115
7569,note_on,60,0,4,,,,,,,,,3,,,,53,115
7591,note_on,30,0,1,,,,,,,,,0,,,,89,0
7591,note_on,0,0,1,,,,,,,,,0,,,,87,101
7595,note_on,30,0,3,,,,,,,,,2,,,,77,0
7621,note_on,30,0,1,,,,,,,,,0,,,,87,0
7624,note_on,0,0,2,,,,,,,,,1,,,,72,0
7624,note_on,60,0,2,,,,,,,,,1,,,,81,0
7625,note_on,30,0,3,,,,,,,,,2,,,,77,101
7655,note_on,30,0,3,,,,,,,,,2,,,,77,0
7680,set_tempo,120,1,0,,,,,,263158,,,,,,,,
7681,note_on,60,0,1,,,,,,,,,0,,,,87,101
7684,note_on,60,0,2,,,,,,,,,1,,,,72,100
7684,note_on,0,0,2,,,,,,,,,1,,,,81,100
7685,note_on,30,0,3,,,,,,,,,2,,,,79,101
7741,note_on,60,0,1,,,,,,,,,0,,,,87,0
7744,note_on,0,0,2,,,,,,,,,1,,,,72,0
7744,note_on,60,0,2,,,,,,,,,1,,,,81,0
7745,note_on,0,0,3,,,,,,,,,2,,,,77,101
7745,note_on,60,0,3,,,,,,,,,2,,,,79,0
7800,set_tempo,120,1,0,,,,,,288462,,,,,,,,
7801,note_on,60,0,1,,,,,,,,,0,,,,87,101
7804,note_on,60,0,2,,,,,,,,,1,,,,72,100
7804,note_on,0,0,2,,,,,,,,,1,,,,81,100
7805,note_on,60,0,3,,,,,,,,,2,,,,77,0
7805,note_on,0,0,3,,,,,,,,,2,,,,79,101
7861,note_on,60,0,1,,,,,,,,,0,,,,87,0
7864,note_on,60,0,2,,,,,,,,,1,,,,81,0
7864,note_on,0,0,2,,,,,,,,,1,,,,72,0
7865,note_on,0,0,3,,,,,,,,,2,,,,77,101
7865,note_on,60,0,3,,,,,,,,,2,,,,79,0
7920,set_tempo,120,1,0,,,,,,258621,,,,,,,,
7921,note_on,60,0,1,,,,,,,,,0,,,,86,101
7924,note_on,60,0,2,,,,,,,,,1,,,,82,100
7924,note_on,0,0,2,,,,,,,,,1,,,,74,100
7925,note_on,60,0,3,,,,,,,,,2,,,,77,0
7925,note_on,0,0,3,,,,,,,,,2,,,,77,101
7925,note_on,0,0,3,,,,,,,,,2,,,,69,0
7925,note_on,0,0,3,,,,,,,,,2,,,,70,101
7929,note_on,0,0,4,,,,,,,,,3,,,,62,100
7929,note_on,0,0,4,,,,,,,,,3,,,,58,100
7929,note_on,360,0,4,,,,,,,,,3,,,,60,0
7929,note_on,0,0,4,,,,,,,,,3,,,,53,0
7932,note_on,600,0,14,,,,,,,,,13,,,,46,112
7962,note_on,30,0,14,,,,,,,,,13,,,,46,0
7985,note_on,60,0,3,,,,,,,,,2,,,,77,0
7985,note_on,0,0,3,,,,,,,,,2,,,,70,0
7989,note_on,60,0,4,,,,,,,,,3,,,,58,0
7989,note_on,0,0,4,,,,,,,,,3,,,,62,0
7992,note_on,30,0,14,,,,,,,,,13,,,,46,112
8022,note_on,30,0,14,,,,,,,,,13,,,,46,0
8045,note_on,60,0,3,,,,,,,,,2,,,,70,101
8045,note_on,0,0,3,,,,,,,,,2,,,,77,101
8049,note_on,60,0,4,,,,,,,,,3,,,,53,100
8049,note_on,0,0,4,,,,,,,,,3,,,,62,100
8052,note_on,30,0,14,,,,,,,,,13,,,,41,112
8082,note_on,30,0,14,,,,,,,,,13,,,,41,0
8105,note_on,60,0,3,,,,,,,,,2,,,,77,0
8105,note_on,0,0,3,,,,,,,,,2,,,,70,0
8109,note_on,60,0,4,,,,,,,,,3,,,,62,0
8109,note_on,0,0,4,,,,,,,,,3,,,,53,0
8112,note_on,30,0,14,,,,,,,,,13,,,,46,112
8142,note_on,30,0,14,,,,,,,,,13,,,,46,0
8160,set_tempo,240,1,0,,,,,,288462,,,,,,,,
8165,note_on,0,0,3,,,,,,,,,2,,,,77,101
8165,note_on,60,0,3,,,,,,,,,2,,,,70,101
8169,note_on,0,0,4,,,,,,,,,3,,,,62,100
8169,note_on,60,0,4,,,,,,,,,3,,,,50,100
8172,note_on,30,0,14,,,,,,,,,13,,,,41,112
8202,note_on,30,0,14,,,,,,,,,13,,,,41,0
8225,note_on,60,0,3,,,,,,,,,2,,,,77,0
8225,note_on,0,0,3,,,,,,,,,2,,,,70,0
8229,note_on,0,0,4,,,,,,,,,3,,,,50,0
8229,note_on,60,0,4,,,,,,,,,3,,,,62,0
8232,note_on,30,0,14,,,,,,,,,13,,,,46,112
8262,note_on,30,0,14,,,,,,,,,13,,,,46,0
8280,set_tempo,120,1,0,,,,,,254237,,,,,,,,
8280,control_change,2188,0,11,,,,,,,,,10,11,50,,,
8280,note_on,0,0,11,,,,,,,,,10,,,,65,127
8281,note_on,360,0,1,,,,,,,,,0,,,,86,0
8283,note_on,0,0,12,,,,,,,,,11,,,,65,127
8283,control_change,2188,0,12,,,,,,,,,11,11,50,,,
8284,note_on,0,0,2,,,,,,,,,1,,,,69,100
8284,note_on,0,0,2,,,,,,,,,1,,,,77,100
8284,note_on,360,0,2,,,,,,,,,1,,,,74,0
8284,note_on,0,0,2,,,,,,,,,1,,,,82,0
8285,note_on,60,0,3,,,,,,,,,2,,,,69,101
8285,note_on,0,0,3,,,,,,,,,2,,,,77,101
8287,program_change,2187,0,13,,,,,,,,48,12,,,,,
8288,note_on,0,0,13,,,,,,,,,12,,,,53,127
8288,control_change,1,0,13,,,,,,,,,12,11,50,,,
8289,note_on,60,0,4,,,,,,,,,3,,,,53,100
8289,note_on,0,0,4,,,,,,,,,3,,,,60,100
8292,note_on,0,0,14,,,,,,,,,13,,,,53,127
8292,control_change,30,0,14,,,,,,,,,13,11,50,,,
8294,control_change,2188,0,15,,,,,,,,,14,11,50,,,
8294,note_on,0,0,15,,,,,,,,,14,,,,41,127
8310,note_on,30,0,11,,,,,,,,,10,,,,65,0
8313,note_on,30,0,12,,,,,,,,,11,,,,65,0
8314,note_on,0,0,2,,,,,,,,,1,,,,75,100
8314,note_on,30,0,2,,,,,,,,,1,,,,77,0
8315,note_on,30,0,3,,,,,,,,,2,,,,77,0
8315,note_on,0,0,3,,,,,,,,,2,,,,75,101
8318,note_on,30,0,13,,,,,,,,,12,,,,53,0
8322,note_on,30,0,14,,,,,,,,,13,,,,53,0
8324,note_on,30,0,15,,,,,,,,,14,,,,41,0
8340,note_on,30,0,11,,,,,,,,,10,,,,65,112
8343,note_on,30,0,12,,,,,,,,,11,,,,65,112
8344,note_on,30,0,2,,,,,,,,,1,,,,69,0
8345,note_on,30,0,3,,,,,,,,,2,,,,69,0
8348,note_on,30,0,13,,,,,,,,,12,,,,53,112
8349,note_on,60,0,4,,,,,,,,,3,,,,60,0
8349,note_on,0,0,4,,,,,,,,,3,,,,53,0
8352,note_on,30,0,14,,,,,,,,,13,,,,53,112
8354,note_on,30,0,15,,,,,,,,,14,,,,41,112
8359,note_on,15,0,2,,,,,,,,,1,,,,75,0
8360,note_on,15,0,3,,,,,,,,,2,,,,75,0
8370,note_on,30,0,11,,,,,,,,,10,,,,65,0
8373,note_on,30,0,12,,,,,,,,,11,,,,65,0
8378,note_on,30,0,13,,,,,,,,,12,,,,53,0
8382,note_on,30,0,14,,,,,,,,,13,,,,53,0
8384,note_on,30,0,15,,,,,,,,,14,,,,41,0
8400,set_tempo,120,1,0,,,,,,263158,,,,,,,,
8400,note_on,30,0,11,,,,,,,,,10,,,,67,112
8403,note_on,30,0,12,,,,,,,,,11,,,,67,112
8404,note_on,45,0,2,,,,,,,,,1,,,,69,100
8404,note_on,0,0,2,,,,,,,,,1,,,,75,100
8405,note_on,45,0,3,,,,,,,,,2,,,,69,101
8405,note_on,0,0,3,,,,,,,,,2,,,,75,101
8408,note_on,30,0,13,,,,,,,,,12,,,,55,112
8409,note_on,0,0,4,,,,,,,,,3,,,,60,100
8409,note_on,60,0,4,,,,,,,,,3,,,,53,100
8412,note_on,30,0,14,,,,,,,,,13,,,,55,112
8414,note_on,30,0,15,,,,,,,,,14,,,,43,112
8430,note_on,30,0,11,,,,,,,,,10,,,,67,0
8433,note_on,30,0,12,,,,,,,,,11,,,,67,0
8438,note_on,30,0,13,,,,,,,,,12,,,,55,0
8442,note_on,30,0,14,,,,,,,,,13,,,,55,0
8444,note_on,30,0,15,,,,,,,,,14,,,,43,0
8460,note_on,30,0,11,,,,,,,,,10,,,,65,112
8463,note_on,30,0,12,,,,,,,,,11,,,,65,112
8464,note_on,60,0,2,,,,,,,,,1,,,,75,0
8464,note_on,0,0,2,,,,,,,,,1,,,,69,0
8465,note_on,60,0,3,,,,,,,,,2,,,,75,0
8465,note_on,0,0,3,,,,,,,,,2,,,,69,0
8468,note_on,30,0,13,,,,,,,,,12,,,,53,112
8469,note_on,0,0,4,,,,,,,,,3,,,,53,0
8469,note_on,60,0,4,,,,,,,,,3,,,,60,0
8472,note_on,30,0,14,,,,,,,,,13,,,,53,112
8474,note_on,30,0,15,,,,,,,,,14,,,,41,112
8490,note_on,30,0,11,,,,,,,,,10,,,,65,0
8493,note_on,30,0,12,,,,,,,,,11,,,,65,0
8498,note_on,30,0,13,,,,,,,,,12,,,,53,0
8502,note_on,30,0,14,,,,,,,,,13,,,,53,0
8504,note_on,30,0,15,,,,,,,,,14,,,,41,0
8520,set_tempo,120,1,0,,,,,,288462,,,,,,,,
8520,note_on,30,0,11,,,,,,,,,10,,,,67,112
8523,note_on,30,0,12,,,,,,,,,11,,,,67,112
8524,note_on,60,0,2,,,,,,,,,1,,,,69,100
8524,note_on,0,0,2,,,,,,,,,1,,,,75,100
8525,note_on,60,0,3,,,,,,,,,2,,,,69,101
8525,note_on,0,0,3,,,,,,,,,2,,,,75,101
8528,note_on,30,0,13,,,,,,,,,12,,,,55,112
8529,note_on,60,0,4,,,,,,,,,3,,,,53,100
8529,note_on,0,0,4,,,,,,,,,3,,,,60,100
8532,note_on,30,0,14,,,,,,,,,13,,,,55,112
8534,note_on,30,0,15,,,,,,,,,14,,,,43,112
8550,note_on,30,0,11,,,,,,,,,10,,,,67,0
8553,note_on,30,0,12,,,,,,,,,11,,,,67,0
8558,note_on,30,0,13,,,,,,,,,12,,,,55,0
8562,note_on,30,0,14,,,,,,,,,13,,,,55,0
8564,note_on,30,0,15,,,,,,,,,14,,,,43,0
8580,note_on,30,0,11,,,,,,,,,10,,,,65,112
8583,note_on,30,0,12,,,,,,,,,11,,,,65,112
8584,note_on,60,0,2,,,,,,,,,1,,,,75,0
8584,note_on,0,0,2,,,,,,,,,1,,,,69,0
8585,note_on,60,0,3,,,,,,,,,2,,,,75,0
8585,note_on,0,0,3,,,,,,,,,2,,,,69,0
8588,note_on,30,0,13,,,,,,,,,12,,,,53,112
8589,note_on,0,0,4,,,,,,,,,3,,,,53,0
8589,note_on,60,0,4,,,,,,,,,3,,,,60,0
8592,note_on,30,0,14,,,,,,,,,13,,,,53,112
8594,note_on,30,0,15,,,,,,,,,14,,,,41,112
8610,note_on,30,0,11,,,,,,,,,10,,,,65,0
8613,note_on,30,0,12,,,,,,,,,11,,,,65,0
8618,note_on,30,0,13,,,,,,,,,12,,,,53,0
8622,note_on,30,0,14,,,,,,,,,13,,,,53,0
8624,note_on,30,0,15,,,,,,,,,14,,,,41,0
8640,note_on,30,0,11,,,,,,,,,10,,,,66,127
8640,set_tempo,120,1,0,,,,,,265487,,,,,,,,
8643,note_on,30,0,12,,,,,,,,,11,,,,66,127
8644,note_on,0,0,2,,,,,,,,,1,,,,69,100
8644,note_on,60,0,2,,,,,,,,,1,,,,74,100
8645,note_on,0,0,3,,,,,,,,,2,,,,69,101
8645,note_on,60,0,3,,,,,,,,,2,,,,74,101
8648,note_on,30,0,13,,,,,,,,,12,,,,54,127
8649,note_on,60,0,4,,,,,,,,,3,,,,60,100
8649,note_on,0,0,4,,,,,,,,,3,,,,54,100
8652,note_on,30,0,14,,,,,,,,,13,,,,54,127
8654,note_on,30,0,15,,,,,,,,,14,,,,42,127
8670,note_on,30,0,11,,,,,,,,,10,,,,66,0
8673,note_on,30,0,12,,,,,,,,,11,,,,66,0
8678,note_on,30,0,13,,,,,,,,,12,,,,54,0
8682,note_on,30,0,14,,,,,,,,,13,,,,54,0
8684,note_on,30,0,15,,,,,,,,,14,,,,42,0
8700,note_on,30,0,11,,,,,,,,,10,,,,66,112
8703,note_on,30,0,12,,,,,,,,,11,,,,66,112
8708,note_on,30,0,13,,,,,,,,,12,,,,54,112
8712,note_on,30,0,14,,,,,,,,,13,,,,54,112
8714,note_on,30,0,15,,,,,,,,,14,,,,42,112
8730,note_on,30,0,11,,,,,,,,,10,,,,66,0
8733,note_on,30,0,12,,,,,,,,,11,,,,66,0
8738,note_on,30,0,13,,,,,,,,,12,,,,54,0
8742,note_on,30,0,14,,,,,,,,,13,,,,54,0
8744,note_on,30,0,15,,,,,,,,,14,,,,42,0
8760,note_on,30,0,11,,,,,,,,,10,,,,67,112
8763,note_on,30,0,12,,,,,,,,,11,,,,67,112
8768,note_on,30,0,13,,,,,,,,,12,,,,55,112
8772,note_on,30,0,14,,,,,,,,,13,,,,55,112
8774,note_on,30,0,15,,,,,,,,,14,,,,43,112
8790,note_on,30,0,11,,,,,,,,,10,,,,67,0
8793,note_on,30,0,12,,,,,,,,,11,,,,67,0
8798,note_on,30,0,13,,,,,,,,,12,,,,55,0
8802,note_on,30,0,14,,,,,,,,,13,,,,55,0
8804,note_on,30,0,15,,,,,,,,,14,,,,43,0
8820,note_on,30,0,11,,,,,,,,,10,,,,66,112
8823,note_on,30,0,12,,,,,,,,,11,,,,66,112
8828,note_on,30,0,13,,,,,,,,,12,,,,54,112
8832,note_on,30,0,14,,,,,,,,,13,,,,54,112
8834,note_on,30,0,15,,,,,,,,,14,,,,42,112
8850,note_on,30,0,11,,,,,,,,,10,,,,66,0
8853,note_on,30,0,12,,,,,,,,,11,,,,66,0
8858,note_on,30,0,13,,,,,,,,,12,,,,54,0
8862,note_on,30,0,14,,,,,,,,,13,,,,54,0
8864,note_on,30,0,15,,,,,,,,,14,,,,42,0
8880,set_tempo,240,1,0,,,,,,279070,,,,,,,,
8880,note_on,30,0,11,,,,,,,,,10,,,,67,112
8883,note_on,30,0,12,,,,,,,,,11,,,,67,112
8888,note_on,30,0,13,,,,,,,,,12,,,,55,112
8892,note_on,30,0,14,,,,,,,,,13,,,,55,112
8894,note_on,30,0,15,,,,,,,,,14,,,,43,112
8910,note_on,30,0,11,,,,,,,,,10,,,,67,0
8913,note_on,30,0,12,,,,,,,,,11,,,,67,0
8918,note_on,30,0,13,,,,,,,,,12,,,,55,0
8922,note_on,30,0,14,,,,,,,,,13,,,,55,0
8924,note_on,30,0,15,,,,,,,,,14,,,,43,0
8940,note_on,30,0,11,,,,,,,,,10,,,,66,112
8943,note_on,30,0,12,,,,,,,,,11,,,,66,112
8948,note_on,30,0,13,,,,,,,,,12,,,,54,112
8952,note_on,30,0,14,,,,,,,,,13,,,,54,112
8954,note_on,30,0,15,,,,,,,,,14,,,,42,112
8970,note_on,30,0,11,,,,,,,,,10,,,,66,0
8973,note_on,30,0,12,,,,,,,,,11,,,,66,0
8978,note_on,30,0,13,,,,,,,,,12,,,,54,0
8982,note_on,30,0,14,,,,,,,,,13,,,,54,0
8984,note_on,30,0,15,,,,,,,,,14,,,,42,0
9000,set_tempo,120,1,0,,,,,,265487,,,,,,,,
9000,note_on,0,0,11,,,,,,,,,10,,,,69,112
9000,control_change,30,0,11,,,,,,,,,10,11,50,,,
9001,control_change,720,0,1,,,,,,,,,0,11,42,,,
9003,note_on,0,0,12,,,,,,,,,11,,,,69,112
9003,control_change,30,0,12,,,,,,,,,11,11,50,,,
9004,note_on,360,0,2,,,,,,,,,1,,,,69,0
9004,note_on,0,0,2,,,,,,,,,1,,,,74,0
9004,note_on,0,0,2,,,,,,,,,1,,,,70,100
9004,control_change,0,0,2,,,,,,,,,1,11,42,,,
9004,note_on,0,0,2,,,,,,,,,1,,,,75,100
9005,control_change,0,0,3,,,,,,,,,2,11,42,,,
9005,note_on,0,0,3,,,,,,,,,2,,,,75,101
9005,note_on,0,0,3,,,,,,,,,2,,,,70,101
9005,note_on,360,0,3,,,,,,,,,2,,,,69,0
9005,note_on,0,0,3,,,,,,,,,2,,,,74,0
9008,note_on,0,0,13,,,,,,,,,12,,,,57,112
9008,control_change,30,0,13,,,,,,,,,12,11,50,,,
9009,control_change,0,0,4,,,,,,,,,3,11,42,,,
9009,note_on,0,0,4,,,,,,,,,3,,,,58,100
9009,note_on,0,0,4,,,,,,,,,3,,,,60,0
9009,note_on,0,0,4,,,,,,,,,3,,,,55,100
9009,note_on,360,0,4,,,,,,,,,3,,,,54,0
9012,control_change,30,0,14,,,,,,,,,13,11,50,,,
9012,note_on,0,0,14,,,,,,,,,13,,,,57,112
9014,control_change,30,0,15,,,,,,,,,14,11,50,,,
9014,note_on,0,0,15,,,,,,,,,14,,,,45,112
9020,control_change,20,0,11,,,,,,,,,10,11,51,,,
9021,control_change,20,0,1,,,,,,,,,0,11,43,,,
9023,control_change,20,0,12,,,,,,,,,11,11,51,,,
9024,control_change,20,0,2,,,,,,,,,1,11,43,,,
9025,control_change,20,0,3,,,,,,,,,2,11,43,,,
9028,control_change,20,0,13,,,,,,,,,12,11,51,,,
9029,control_change,20,0,4,,,,,,,,,3,11,43,,,
9030,note_on,10,0,11,,,,,,,,,10,,,,69,0
9032,control_change,20,0,14,,,,,,,,,13,11,51,,,
9033,note_on,10,0,12,,,,,,,,,11,,,,69,0
9034,control_change,20,0,15,,,,,,,,,14,11,51,,,
9038,note_on,10,0,13,,,,,,,,,12,,,,57,0
9041,control_change,11,0,11,,,,,,,,,10,11,52,,,
9042,control_change,21,0,1,,,,,,,,,0,11,44,,,
9042,note_on,10,0,14,,,,,,,,,13,,,,57,0
9044,control_change,11,0,12,,,,,,,,,11,11,52,,,
9044,note_on,10,0,15,,,,,,,,,14,,,,45,0
9045,control_change,21,0,2,,,,,,,,,1,11,44,,,
9046,control_change,21,0,3,,,,,,,,,2,11,44,,,
9049,control_change,11,0,13,,,,,,,,,12,11,52,,,
9050,control_change,21,0,4,,,,,,,,,3,11,44,,,
9053,control_change,11,0,14,,,,,,,,,13,11,52,,,
9055,control_change,11,0,15,,,,,,,,,14,11,52,,,
9060,note_on,19,0,11,,,,,,,,,10,,,,67,112
9061,control_change,1,0,11,,,,,,,,,10,11,53,,,
9062,control_change,20,0,1,,,,,,,,,0,11,45,,,
9063,note_on,19,0,12,,,,,,,,,11,,,,67,112
9064,note_on,19,0,2,,,,,,,,,1,,,,75,0
9064,note_on,0,0,2,,,,,,,,,1,,,,70,0
9064,control_change,1,0,12,,,,,,,,,11,11,53,,,
9065,note_on,19,0,3,,,,,,,,,2,,,,75,0
9065,control_change,1,0,2,,,,,,,,,1,11,45,,,
9065,note_on,0,0,3,,,,,,,,,2,,,,70,0
9066,control_change,1,0,3,,,,,,,,,2,11,45,,,
9068,note_on,19,0,13,,,,,,,,,12,,,,55,112
9069,note_on,19,0,4,,,,,,,,,3,,,,55,0
9069,control_change,1,0,13,,,,,,,,,12,11,53,,,
9069,note_on,0,0,4,,,,,,,,,3,,,,58,0
9070,control_change,1,0,4,,,,,,,,,3,11,45,,,
9072,note_on,19,0,14,,,,,,,,,13,,,,55,112
9073,control_change,1,0,14,,,,,,,,,13,11,53,,,
9074,note_on,19,0,15,,,,,,,,,14,,,,43,112
9075,control_change,1,0,15,,,,,,,,,14,11,53,,,
9082,control_change,21,0,11,,,,,,,,,10,11,54,,,
9083,control_change,21,0,1,,,,,,,,,0,11,46,,,
9085,control_change,21,0,12,,,,,,,,,11,11,54,,,
9086,control_change,21,0,2,,,,,,,,,1,11,46,,,
9087,control_change,21,0,3,,,,,,,,,2,11,46,,,
9090,note_on,8,0,11,,,,,,,,,10,,,,67,0
9090,control_change,21,0,13,,,,,,,,,12,11,54,,,
9091,control_change,21,0,4,,,,,,,,,3,11,46,,,
9093,note_on,8,0,12,,,,,,,,,11,,,,67,0
9094,control_change,21,0,14,,,,,,,,,13,11,54,,,
9096,control_change,21,0,15,,,,,,,,,14,11,54,,,
9098,note_on,8,0,13,,,,,,,,,12,,,,55,0
9102,note_on,8,0,14,,,,,,,,,13,,,,55,0
9102,control_change,12,0,11,,,,,,,,,10,11,55,,,
9103,control_change,20,0,1,,,,,,,,,0,11,47,,,
9104,note_on,8,0,15,,,,,,,,,14,,,,43,0
9105,control_change,12,0,12,,,,,,,,,11,11,55,,,
9106,control_change,20,0,2,,,,,,,,,1,11,47,,,
9107,control_change,20,0,3,,,,,,,,,2,11,47,,,
9110,control_change,12,0,13,,,,,,,,,12,11,55,,,
9111,control_change,20,0,4,,,,,,,,,3,11,47,,,
9114,control_change,12,0,14,,,,,,,,,13,11,55,,,
9116,control_change,12,0,15,,,,,,,,,14,11,55,,,
9120,note_on,18,0,11,,,,,,,,,10,,,,70,112
9123,control_change,3,0,11,,,,,,,,,10,11,56,,,
9123,note_on,18,0,12,,,,,,,,,11,,,,70,112
9124,note_on,0,0,2,,,,,,,,,1,,,,72,100
9124,note_on,18,0,2,,,,,,,,,1,,,,78,100
9124,control_change,21,0,1,,,,,,,,,0,11,48,,,
9125,note_on,0,0,3,,,,,,,,,2,,,,72,101
9125,note_on,18,0,3,,,,,,,,,2,,,,78,101
9126,control_change,3,0,12,,,,,,,,,11,11,56,,,
9127,control_change,3,0,2,,,,,,,,,1,11,48,,,
9128,control_change,3,0,3,,,,,,,,,2,11,48,,,
9128,note_on,18,0,13,,,,,,,,,12,,,,58,112
9129,note_on,18,0,4,,,,,,,,,3,,,,60,100
9129,note_on,0,0,4,,,,,,,,,3,,,,57,100
9131,control_change,3,0,13,,,,,,,,,12,11,56,,,
9132,note_on,18,0,14,,,,,,,,,13,,,,58,112
9132,control_change,3,0,4,,,,,,,,,3,11,48,,,
9134,note_on,18,0,15,,,,,,,,,14,,,,46,112
9135,control_change,3,0,14,,,,,,,,,13,11,56,,,
9137,control_change,3,0,15,,,,,,,,,14,11,56,,,
9144,control_change,21,0,11,,,,,,,,,10,11,57,,,
9145,control_change,21,0,1,,,,,,,,,0,11,49,,,
9147,control_change,21,0,12,,,,,,,,,11,11,57,,,
9148,control_change,21,0,2,,,,,,,,,1,11,49,,,
9149,control_change,21,0,3,,,,,,,,,2,11,49,,,
9150,note_on,6,0,11,,,,,,,,,10,,,,70,0
9152,control_change,21,0,13,,,,,,,,,12,11,57,,,
9153,control_change,21,0,4,,,,,,,,,3,11,49,,,
9153,note_on,6,0,12,,,,,,,,,11,,,,70,0
9156,control_change,21,0,14,,,,,,,,,13,11,57,,,
9158,note_on,6,0,13,,,,,,,,,12,,,,58,0
9158,control_change,21,0,15,,,,,,,,,14,11,57,,,
9162,note_on,6,0,14,,,,,,,,,13,,,,58,0
9164,control_change,14,0,11,,,,,,,,,10,11,57,,,
9164,note_on,6,0,15,,,,,,,,,14,,,,46,0
9165,control_change,20,0,1,,,,,,,,,0,11,50,,,
9167,control_change,14,0,12,,,,,,,,,11,11,57,,,
9168,control_change,20,0,2,,,,,,,,,1,11,50,,,
9169,control_change,20,0,3,,,,,,,,,2,11,50,,,
9172,control_change,14,0,13,,,,,,,,,12,11,57,,,
9173,control_change,20,0,4,,,,,,,,,3,11,50,,,
9176,control_change,14,0,14,,,,,,,,,13,11,57,,,
9178,control_change,14,0,15,,,,,,,,,14,11,57,,,
9180,note_on,16,0,11,,,,,,,,,10,,,,69,112
9183,note_on,16,0,12,,,,,,,,,11,,,,69,112
9184,note_on,0,0,2,,,,,,,,,1,,,,78,0
9184,note_on,16,0,2,,,,,,,,,1,,,,72,0
9185,note_on,0,0,3,,,,,,,,,2,,,,78,0
9185,control_change,5,0,11,,,,,,,,,10,11,58,,,
9185,note_on,16,0,3,,,,,,,,,2,,,,72,0
9186,control_change,21,0,1,,,,,,,,,0,11,51,,,
9188,control_change,5,0,12,,,,,,,,,11,11,58,,,
9188,note_on,16,0,13,,,,,,,,,12,,,,57,112
9189,control_change,5,0,2,,,,,,,,,1,11,51,,,
9189,note_on,16,0,4,,,,,,,,,3,,,,57,0
9189,note_on,0,0,4,,,,,,,,,3,,,,60,0
9190,control_change,5,0,3,,,,,,,,,2,11,51,,,
9192,note_on,16,0,14,,,,,,,,,13,,,,57,112
9193,control_change,5,0,13,,,,,,,,,12,11,58,,,
9194,control_change,5,0,4,,,,,,,,,3,11,51,,,
9194,note_on,16,0,15,,,,,,,,,14,,,,45,112
9197,control_change,5,0,14,,,,,,,,,13,11,58,,,
9199,control_change,5,0,15,,,,,,,,,14,11,58,,,
9205,control_change,20,0,11,,,,,,,,,10,11,59,,,
9206,control_change,20,0,1,,,,,,,,,0,11,52,,,
9208,control_change,20,0,12,,,,,,,,,11,11,59,,,
9209,control_change,20,0,2,,,,,,,,,1,11,52,,,
9210,note_on,5,0,11,,,,,,,,,10,,,,69,0
9210,control_change,20,0,3,,,,,,,,,2,11,52,,,
9213,control_change,20,0,13,,,,,,,,,12,11,59,,,
9213,note_on,5,0,12,,,,,,,,,11,,,,69,0
9214,control_change,20,0,4,,,,,,,,,3,11,52,,,
9217,control_change,20,0,14,,,,,,,,,13,11,59,,,
9218,note_on,5,0,13,,,,,,,,,12,,,,57,0
9219,control_change,20,0,15,,,,,,,,,14,11,59,,,
9222,note_on,5,0,14,,,,,,,,,13,,,,57,0
9224,note_on,5,0,15,,,,,,,,,14,,,,45,0
9226,control_change,16,0,11,,,,,,,,,10,11,60,,,
9227,control_change,21,0,1,,,,,,,,,0,11,52,,,
9229,control_change,16,0,12,,,,,,,,,11,11,60,,,
9230,control_change,21,0,2,,,,,,,,,1,11,52,,,
9231,control_change,21,0,3,,,,,,,,,2,11,52,,,
9234,control_change,16,0,13,,,,,,,,,12,11,60,,,
9235,control_change,21,0,4,,,,,,,,,3,11,53,,,
9238,control_change,16,0,14,,,,,,,,,13,11,60,,,
9240,note_on,14,0,11,,,,,,,,,10,,,,72,112
9240,set_tempo,240,1,0,,,,,,279070,,,,,,,,
9240,control_change,16,0,15,,,,,,,,,14,11,60,,,
9241,note_on,14,0,1,,,,,,,,,0,,,,79,101
9241,note_on,0,0,1,,,,,,,,,0,,,,74,101
9243,note_on,14,0,12,,,,,,,,,11,,,,72,112
9244,note_on,0,0,2,,,,,,,,,1,,,,74,100
9244,note_on,14,0,2,,,,,,,,,1,,,,79,100
9245,note_on,14,0,3,,,,,,,,,2,,,,79,101
9245,note_on,0,0,3,,,,,,,,,2,,,,74,101
9246,control_change,6,0,11,,,,,,,,,10,11,61,,,
9247,control_change,6,0,1,,,,,,,,,0,11,53,,,
9248,note_on,14,0,13,,,,,,,,,12,,,,60,112
9249,note_on,14,0,4,,,,,,,,,3,,,,62,100
9249,control_change,6,0,12,,,,,,,,,11,11,61,,,
9249,note_on,0,0,4,,,,,,,,,3,,,,58,100
9250,control_change,6,0,2,,,,,,,,,1,11,53,,,
9251,control_change,6,0,3,,,,,,,,,2,11,53,,,
9252,note_on,14,0,14,,,,,,,,,13,,,,60,112
9254,note_on,14,0,15,,,,,,,,,14,,,,48,112
9254,control_change,6,0,13,,,,,,,,,12,11,61,,,
9255,control_change,6,0,4,,,,,,,,,3,11,54,,,
9258,control_change,6,0,14,,,,,,,,,13,11,61,,,
9260,control_change,6,0,15,,,,,,,,,14,11,61,,,
9267,control_change,21,0,11,,,,,,,,,10,11,62,,,
9268,control_change,21,0,1,,,,,,,,,0,11,54,,,
9270,control_change,21,0,12,,,,,,,,,11,11,62,,,
9270,note_on,3,0,11,,,,,,,,,10,,,,72,0
9271,control_change,21,0,2,,,,,,,,,1,11,54,,,
9272,control_change,21,0,3,,,,,,,,,2,11,54,,,
9273,note_on,3,0,12,,,,,,,,,11,,,,72,0
9275,control_change,21,0,13,,,,,,,,,12,11,62,,,
9276,control_change,21,0,4,,,,,,,,,3,11,55,,,
9278,note_on,3,0,13,,,,,,,,,12,,,,60,0
9279,control_change,21,0,14,,,,,,,,,13,11,62,,,
9281,control_change,21,0,15,,,,,,,,,14,11,62,,,
9282,note_on,3,0,14,,,,,,,,,13,,,,60,0
9284,note_on,3,0,15,,,,,,,,,14,,,,48,0
9288,control_change,18,0,11,,,,,,,,,10,11,63,,,
9289,control_change,21,0,1,,,,,,,,,0,11,55,,,
9291,control_change,18,0,12,,,,,,,,,11,11,63,,,
9292,control_change,21,0,2,,,,,,,,,1,11,55,,,
9293,control_change,21,0,3,,,,,,,,,2,11,55,,,
9296,control_change,18,0,13,,,,,,,,,12,11,63,,,
9297,control_change,21,0,4,,,,,,,,,3,11,56,,,
9300,note_on,12,0,11,,,,,,,,,10,,,,70,112
9300,control_change,18,0,14,,,,,,,,,13,11,63,,,
9301,note_on,0,0,1,,,,,,,,,0,,,,79,0
9301,note_on,12,0,1,,,,,,,,,0,,,,74,0
9302,control_change,18,0,15,,,,,,,,,14,11,63,,,
9303,note_on,12,0,12,,,,,,,,,11,,,,70,112
9304,note_on,0,0,2,,,,,,,,,1,,,,79,0
9304,note_on,12,0,2,,,,,,,,,1,,,,74,0
9305,note_on,0,0,3,,,,,,,,,2,,,,79,0
9305,note_on,12,0,3,,,,,,,,,2,,,,74,0
9308,note_on,12,0,13,,,,,,,,,12,,,,58,112
9308,control_change,8,0,11,,,,,,,,,10,11,64,,,
9309,note_on,0,0,4,,,,,,,,,3,,,,62,0
9309,control_change,8,0,1,,,,,,,,,0,11,55,,,
9309,note_on,12,0,4,,,,,,,,,3,,,,58,0
9311,control_change,8,0,12,,,,,,,,,11,11,64,,,
9312,control_change,8,0,2,,,,,,,,,1,11,55,,,
9312,note_on,12,0,14,,,,,,,,,13,,,,58,112
9313,control_change,8,0,3,,,,,,,,,2,11,55,,,
9314,note_on,12,0,15,,,,,,,,,14,,,,46,112
9316,control_change,8,0,13,,,,,,,,,12,11,64,,,
9317,control_change,8,0,4,,,,,,,,,3,11,57,,,
9320,control_change,8,0,14,,,,,,,,,13,11,64,,,
9322,control_change,8,0,15,,,,,,,,,14,11,64,,,
9329,control_change,21,0,11,,,,,,,,,10,11,65,,,
9330,control_change,21,0,1,,,,,,,,,0,11,56,,,
9330,note_on,1,0,11,,,,,,,,,10,,,,70,0
9332,control_change,21,0,12,,,,,,,,,11,11,65,,,
9333,note_on,1,0,12,,,,,,,,,11,,,,70,0
9333,control_change,21,0,2,,,,,,,,,1,11,56,,,
9334,control_change,21,0,3,,,,,,,,,2,11,56,,,
9337,control_change,21,0,13,,,,,,,,,12,11,65,,,
9338,note_on,1,0,13,,,,,,,,,12,,,,58,0
9338,control_change,21,0,4,,,,,,,,,3,11,58,,,
9341,control_change,21,0,14,,,,,,,,,13,11,65,,,
9342,note_on,1,0,14,,,,,,,,,13,,,,58,0
9343,control_change,21,0,15,,,,,,,,,14,11,65,,,
9344,note_on,1,0,15,,,,,,,,,14,,,,46,0
9349,control_change,19,0,11,,,,,,,,,10,11,66,,,
9350,control_change,20,0,1,,,,,,,,,0,11,57,,,
9352,control_change,19,0,12,,,,,,,,,11,11,66,,,
9353,control_change,20,0,2,,,,,,,,,1,11,57,,,
9354,control_change,20,0,3,,,,,,,,,2,11,57,,,
9357,control_change,19,0,13,,,,,,,,,12,11,66,,,
9358,control_change,20,0,4,,,,,,,,,3,11,59,,,
9360,set_tempo,120,1,0,,,,,,265487,,,,,,,,
9360,note_on,11,0,11,,,,,,,,,10,,,,74,112
9361,note_on,0,0,1,,,,,,,,,0,,,,75,101
9361,control_change,19,0,14,,,,,,,,,13,11,66,,,
9361,note_on,11,0,1,,,,,,,,,0,,,,81,101
9363,control_change,19,0,15,,,,,,,,,14,11,66,,,
9363,note_on,11,0,12,,,,,,,,,11,,,,74,112
9364,note_on,11,0,2,,,,,,,,,1,,,,81,100
9364,note_on,0,0,2,,,,,,,,,1,,,,75,100
9365,note_on,11,0,3,,,,,,,,,2,,,,81,101
9365,note_on,0,0,3,,,,,,,,,2,,,,75,101
9368,note_on,11,0,13,,,,,,,,,12,,,,62,112
9369,note_on,0,0,4,,,,,,,,,3,,,,60,100
9369,note_on,11,0,4,,,,,,,,,3,,,,63,100
9370,control_change,10,0,11,,,,,,,,,10,11,67,,,
9371,control_change,10,0,1,,,,,,,,,0,11,58,,,
9372,note_on,11,0,14,,,,,,,,,13,,,,62,112
9373,control_change,10,0,12,,,,,,,,,11,11,67,,,
9374,note_on,11,0,15,,,,,,,,,14,,,,50,112
9374,control_change,10,0,2,,,,,,,,,1,11,58,,,
9375,control_change,10,0,3,,,,,,,,,2,11,58,,,
9378,control_change,10,0,13,,,,,,,,,12,11,67,,,
9379,control_change,10,0,4,,,,,,,,,3,11,60,,,
9382,control_change,10,0,14,,,,,,,,,13,11,67,,,
9384,control_change,10,0,15,,,,,,,,,14,11,67,,,
9390,note_on,20,0,11,,,,,,,,,10,,,,74,0
9390,control_change,0,0,11,,,,,,,,,10,11,68,,,
9391,control_change,20,0,1,,,,,,,,,0,11,58,,,
9393,control_change,0,0,12,,,,,,,,,11,11,68,,,
9393,note_on,20,0,12,,,,,,,,,11,,,,74,0
9394,control_change,20,0,2,,,,,,,,,1,11,58,,,
9395,control_change,20,0,3,,,,,,,,,2,11,58,,,
9398,control_change,0,0,13,,,,,,,,,12,11,68,,,
9398,note_on,20,0,13,,,,,,,,,12,,,,62,0
9399,control_change,20,0,4,,,,,,,,,3,11,61,,,
9402,control_change,0,0,14,,,,,,,,,13,11,68,,,
9402,note_on,20,0,14,,,,,,,,,13,,,,62,0
9404,control_change,0,0,15,,,,,,,,,14,11,68,,,
9404,note_on,20,0,15,,,,,,,,,14,,,,50,0
9411,control_change,21,0,11,,,,,,,,,10,11,69,,,
9412,control_change,21,0,1,,,,,,,,,0,11,59,,,
9414,control_change,21,0,12,,,,,,,,,11,11,69,,,
9415,control_change,21,0,2,,,,,,,,,1,11,59,,,
9416,control_change,21,0,3,,,,,,,,,2,11,59,,,
9419,control_change,21,0,13,,,,,,,,,12,11,69,,,
9420,note_on,9,0,11,,,,,,,,,10,,,,72,112
9420,control_change,21,0,4,,,,,,,,,3,11,62,,,
9421,note_on,9,0,1,,,,,,,,,0,,,,75,0
9421,note_on,0,0,1,,,,,,,,,0,,,,81,0
9423,note_on,9,0,12,,,,,,,,,11,,,,72,112
9423,control_change,21,0,14,,,,,,,,,13,11,69,,,
9424,note_on,9,0,2,,,,,,,,,1,,,,75,0
9424,note_on,0,0,2,,,,,,,,,1,,,,81,0
9425,note_on,9,0,3,,,,,,,,,2,,,,75,0
9425,note_on,0,0,3,,,,,,,,,2,,,,81,0
9425,control_change,21,0,15,,,,,,,,,14,11,69,,,
9428,note_on,9,0,13,,,,,,,,,12,,,,60,112
9429,note_on,9,0,4,,,,,,,,,3,,,,60,0
9429,note_on,0,0,4,,,,,,,,,3,,,,63,0
9432,note_on,9,0,14,,,,,,,,,13,,,,60,112
9432,control_change,12,0,11,,,,,,,,,10,11,70,,,
9433,control_change,12,0,1,,,,,,,,,0,11,60,,,
9434,note_on,9,0,15,,,,,,,,,14,,,,48,112
9435,control_change,12,0,12,,,,,,,,,11,11,70,,,
9436,control_change,12,0,2,,,,,,,,,1,11,60,,,
9437,control_change,12,0,3,,,,,,,,,2,11,60,,,
9440,control_change,12,0,13,,,,,,,,,12,11,70,,,
9441,control_change,12,0,4,,,,,,,,,3,11,63,,,
9444,control_change,12,0,14,,,,,,,,,13,11,70,,,
9446,control_change,12,0,15,,,,,,,,,14,11,70,,,
9450,note_on,18,0,11,,,,,,,,,10,,,,72,0
9452,control_change,2,0,11,,,,,,,,,10,11,71,,,
9453,control_change,20,0,1,,,,,,,,,0,11,61,,,
9453,note_on,18,0,12,,,,,,,,,11,,,,72,0
9455,control_change,2,0,12,,,,,,,,,11,11,71,,,
9456,control_change,20,0,2,,,,,,,,,1,11,61,,,
9457,control_change,20,0,3,,,,,,,,,2,11,61,,,
9458,note_on,18,0,13,,,,,,,,,12,,,,60,0
9460,control_change,2,0,13,,,,,,,,,12,11,71,,,
9461,control_change,20,0,4,,,,,,,,,3,11,64,,,
9462,note_on,18,0,14,,,,,,,,,13,,,,60,0
9464,control_change,2,0,14,,,,,,,,,13,11,71,,,
9464,note_on,18,0,15,,,,,,,,,14,,,,48,0
9466,control_change,2,0,15,,,,,,,,,14,11,71,,,
9473,control_change,21,0,11,,,,,,,,,10,11,72,,,
9474,control_change,21,0,1,,,,,,,,,0,11,61,,,
9476,control_change,21,0,12,,,,,,,,,11,11,72,,,
9477,control_change,21,0,2,,,,,,,,,1,11,61,,,
9478,control_change,21,0,3,,,,,,,,,2,11,61,,,
9480,note_on,7,0,11,,,,,,,,,10,,,,75,112
9481,control_change,21,0,13,,,,,,,,,12,11,72,,,
9481,note_on,0,0,1,,,,,,,,,0,,,,77,101
9481,note_on,7,0,1,,,,,,,,,0,,,,82,101
9482,control_change,21,0,4,,,,,,,,,3,11,65,,,
9483,note_on,7,0,12,,,,,,,,,11,,,,75,112
9484,note_on,0,0,2,,,,,,,,,1,,,,77,100
9484,note_on,7,0,2,,,,,,,,,1,,,,82,100
9485,note_on,0,0,3,,,,,,,,,2,,,,77,101
9485,control_change,21,0,14,,,,,,,,,13,11,72,,,
9485,note_on,7,0,3,,,,,,,,,2,,,,82,101
9487,control_change,21,0,15,,,,,,,,,14,11,72,,,
9488,note_on,7,0,13,,,,,,,,,12,,,,63,112
9489,note_on,0,0,4,,,,,,,,,3,,,,62,100
9489,note_on,7,0,4,,,,,,,,,3,,,,65,100
9492,note_on,7,0,14,,,,,,,,,13,,,,63,112
9493,control_change,13,0,11,,,,,,,,,10,11,72,,,
9494,note_on,7,0,15,,,,,,,,,14,,,,51,112
9494,control_change,13,0,1,,,,,,,,,0,11,62,,,
9496,control_change,13,0,12,,,,,,,,,11,11,72,,,
9497,control_change,13,0,2,,,,,,,,,1,11,62,,,
9498,control_change,13,0,3,,,,,,,,,2,11,62,,,
9501,control_change,13,0,13,,,,,,,,,12,11,72,,,
9502,control_change,13,0,4,,,,,,,,,3,11,66,,,
9505,control_change,13,0,14,,,,,,,,,13,11,72,,,
9507,control_change,13,0,15,,,,,,,,,14,11,72,,,
9510,note_on,17,0,11,,,,,,,,,10,,,,75,0
9513,note_on,17,0,12,,,,,,,,,11,,,,75,0
9514,control_change,4,0,11,,,,,,,,,10,11,73,,,
9515,control_change,21,0,1,,,,,,,,,0,11,63,,,
9517,control_change,4,0,12,,,,,,,,,11,11,73,,,
9518,note_on,17,0,13,,,,,,,,,12,,,,63,0
9518,control_change,21,0,2,,,,,,,,,1,11,63,,,
9519,control_change,21,0,3,,,,,,,,,2,11,63,,,
9522,control_change,4,0,13,,,,,,,,,12,11,73,,,
9522,note_on,17,0,14,,,,,,,,,13,,,,63,0
9523,control_change,21,0,4,,,,,,,,,3,11,67,,,
9524,note_on,17,0,15,,,,,,,,,14,,,,51,0
9526,control_change,4,0,14,,,,,,,,,13,11,73,,,
9528,control_change,4,0,15,,,,,,,,,14,11,73,,,
9534,control_change,20,0,11,,,,,,,,,10,11,74,,,
9535,control_change,20,0,1,,,,,,,,,0,11,64,,,
9537,control_change,20,0,12,,,,,,,,,11,11,74,,,
9538,control_change,20,0,2,,,,,,,,,1,11,64,,,
9539,control_change,20,0,3,,,,,,,,,2,11,64,,,
9540,note_on,6,0,11,,,,,,,,,10,,,,74,112
9541,note_on,0,0,1,,,,,,,,,0,,,,82,0
9541,note_on,6,0,1,,,,,,,,,0,,,,77,0
9542,control_change,20,0,13,,,,,,,,,12,11,74,,,
9543,control_change,20,0,4,,,,,,,,,3,11,68,,,
9543,note_on,6,0,12,,,,,,,,,11,,,,74,112
9544,note_on,0,0,2,,,,,,,,,1,,,,82,0
9544,note_on,6,0,2,,,,,,,,,1,,,,77,0
9545,note_on,6,0,3,,,,,,,,,2,,,,77,0
9545,note_on,0,0,3,,,,,,,,,2,,,,82,0
9546,control_change,20,0,14,,,,,,,,,13,11,74,,,
9548,note_on,6,0,13,,,,,,,,,12,,,,62,112
9548,control_change,20,0,15,,,,,,,,,14,11,74,,,
9549,note_on,0,0,4,,,,,,,,,3,,,,65,0
9549,note_on,6,0,4,,,,,,,,,3,,,,62,0
9552,note_on,6,0,14,,,,,,,,,13,,,,62,112
9554,note_on,6,0,15,,,,,,,,,14,,,,50,112
9555,control_change,15,0,11,,,,,,,,,10,11,75,,,
9556,control_change,15,0,1,,,,,,,,,0,11,64,,,
9558,control_change,15,0,12,,,,,,,,,11,11,75,,,
9559,control_change,15,0,2,,,,,,,,,1,11,64,,,
9560,control_change,15,0,3,,,,,,,,,2,11,64,,,
9563,control_change,15,0,13,,,,,,,,,12,11,75,,,
9564,control_change,15,0,4,,,,,,,,,3,11,69,,,
9567,control_change,15,0,14,,,,,,,,,13,11,75,,,
9569,control_change,15,0,15,,,,,,,,,14,11,75,,,
9570,note_on,15,0,11,,,,,,,,,10,,,,74,0
9573,note_on,15,0,12,,,,,,,,,11,,,,74,0
9576,control_change,6,0,11,,,,,,,,,10,11,76,,,
9577,control_change,21,0,1,,,,,,,,,0,11,65,,,
9578,note_on,15,0,13,,,,,,,,,12,,,,62,0
9579,control_change,6,0,12,,,,,,,,,11,11,76,,,
9580,control_change,21,0,2,,,,,,,,,1,11,65,,,
9581,control_change,21,0,3,,,,,,,,,2,11,65,,,
9582,note_on,15,0,14,,,,,,,,,13,,,,62,0
9584,note_on,15,0,15,,,,,,,,,14,,,,50,0
9584,control_change,6,0,13,,,,,,,,,12,11,76,,,
9585,control_change,21,0,4,,,,,,,,,3,11,70,,,
9588,control_change,6,0,14,,,,,,,,,13,11,76,,,
9590,control_change,6,0,15,,,,,,,,,14,11,76,,,
9596,control_change,20,0,11,,,,,,,,,10,11,77,,,
9597,control_change,20,0,1,,,,,,,,,0,11,66,,,
9599,control_change,20,0,12,,,,,,,,,11,11,77,,,
9600,control_change,20,0,2,,,,,,,,,1,11,66,,,
9600,set_tempo,240,1,0,,,,,,279070,,,,,,,,
9600,note_on,4,0,11,,,,,,,,,10,,,,77,112
9601,note_on,0,0,1,,,,,,,,,0,,,,82,101
9601,control_change,20,0,3,,,,,,,,,2,11,66,,,
9601,note_on,4,0,1,,,,,,,,,0,,,,85,101
9603,note_on,4,0,12,,,,,,,,,11,,,,77,112
9604,note_on,4,0,2,,,,,,,,,1,,,,73,100
9604,control_change,20,0,13,,,,,,,,,12,11,77,,,
9604,note_on,0,0,2,,,,,,,,,1,,,,79,100
9605,note_on,0,0,3,,,,,,,,,2,,,,79,101
9605,note_on,4,0,3,,,,,,,,,2,,,,82,101
9605,control_change,20,0,4,,,,,,,,,3,11,71,,,
9608,note_on,4,0,13,,,,,,,,,12,,,,65,112
9608,control_change,20,0,14,,,,,,,,,13,11,77,,,
9609,note_on,4,0,4,,,,,,,,,3,,,,67,100
9609,note_on,0,0,4,,,,,,,,,3,,,,63,100
9610,control_change,20,0,15,,,,,,,,,14,11,77,,,
9612,note_on,4,0,14,,,,,,,,,13,,,,65,112
9614,note_on,4,0,15,,,,,,,,,14,,,,53,112
9617,control_change,17,0,11,,,,,,,,,10,11,78,,,
9618,control_change,17,0,1,,,,,,,,,0,11,67,,,
9620,control_change,17,0,12,,,,,,,,,11,11,78,,,
9621,control_change,17,0,2,,,,,,,,,1,11,67,,,
9622,control_change,17,0,3,,,,,,,,,2,11,67,,,
9625,control_change,17,0,13,,,,,,,,,12,11,78,,,
9626,control_change,17,0,4,,,,,,,,,3,11,72,,,
9629,control_change,17,0,14,,,,,,,,,13,11,78,,,
9630,note_on,13,0,11,,,,,,,,,10,,,,77,0
9631,control_change,17,0,15,,,,,,,,,14,11,78,,,
9633,note_on,13,0,12,,,,,,,,,11,,,,77,0
9637,control_change,7,0,11,,,,,,,,,10,11,79,,,
9638,control_change,20,0,1,,,,,,,,,0,11,67,,,
9638,note_on,13,0,13,,,,,,,,,12,,,,65,0
9640,control_change,7,0,12,,,,,,,,,11,11,79,,,
9641,control_change,20,0,2,,,,,,,,,1,11,67,,,
9642,control_change,20,0,3,,,,,,,,,2,11,67,,,
9642,note_on,13,0,14,,,,,,,,,13,,,,65,0
9644,note_on,13,0,15,,,,,,,,,14,,,,53,0
9645,control_change,7,0,13,,,,,,,,,12,11,79,,,
9646,control_change,20,0,4,,,,,,,,,3,11,73,,,
9649,control_change,7,0,14,,,,,,,,,13,11,79,,,
9651,control_change,7,0,15,,,,,,,,,14,11,79,,,
9658,control_change,21,0,11,,,,,,,,,10,11,80,,,
9659,control_change,21,0,1,,,,,,,,,0,11,68,,,
9660,note_on,2,0,11,,,,,,,,,10,,,,75,112
9661,note_on,0,0,1,,,,,,,,,0,,,,85,0
9661,control_change,21,0,12,,,,,,,,,11,11,80,,,
9661,note_on,2,0,1,,,,,,,,,0,,,,82,0
9662,control_change,21,0,2,,,,,,,,,1,11,68,,,
9663,note_on,2,0,12,,,,,,,,,11,,,,75,112
9663,control_change,21,0,3,,,,,,,,,2,11,68,,,
9664,note_on,0,0,2,,,,,,,,,1,,,,73,0
9664,note_on,2,0,2,,,,,,,,,1,,,,79,0
9665,note_on,0,0,3,,,,,,,,,2,,,,82,0
9665,note_on,2,0,3,,,,,,,,,2,,,,79,0
9666,control_change,21,0,13,,,,,,,,,12,11,80,,,
9667,control_change,21,0,4,,,,,,,,,3,11,74,,,
9668,note_on,2,0,13,,,,,,,,,12,,,,63,112
9669,note_on,0,0,4,,,,,,,,,3,,,,67,0
9669,note_on,2,0,4,,,,,,,,,3,,,,63,0
9670,control_change,21,0,14,,,,,,,,,13,11,80,,,
9672,note_on,2,0,14,,,,,,,,,13,,,,63,112
9672,control_change,21,0,15,,,,,,,,,14,11,80,,,
9674,note_on,2,0,15,,,,,,,,,14,,,,51,112
9678,control_change,18,0,11,,,,,,,,,10,11,81,,,
9679,control_change,18,0,1,,,,,,,,,0,11,69,,,
9681,control_change,18,0,12,,,,,,,,,11,11,81,,,
9682,control_change,18,0,2,,,,,,,,,1,11,69,,,
9683,control_change,18,0,3,,,,,,,,,2,11,69,,,
9686,control_change,18,0,13,,,,,,,,,12,11,81,,,
9687,control_change,18,0,4,,,,,,,,,3,11,75,,,
9690,control_change,18,0,14,,,,,,,,,13,11,81,,,
9690,note_on,12,0,11,,,,,,,,,10,,,,75,0
9692,control_change,18,0,15,,,,,,,,,14,11,81,,,
9693,note_on,12,0,12,,,,,,,,,11,,,,75,0
9698,note_on,12,0,13,,,,,,,,,12,,,,63,0
9699,control_change,9,0,11,,,,,,,,,10,11,82,,,
9700,control_change,21,0,1,,,,,,,,,0,11,70,,,
9702,note_on,12,0,14,,,,,,,,,13,,,,63,0
9702,control_change,9,0,12,,,,,,,,,11,11,82,,,
9703,control_change,21,0,2,,,,,,,,,1,11,70,,,
9704,control_change,21,0,3,,,,,,,,,2,11,70,,,
9704,note_on,12,0,15,,,,,,,,,14,,,,51,0
9707,control_change,9,0,13,,,,,,,,,12,11,82,,,
9708,control_change,21,0,4,,,,,,,,,3,11,76,,,
9711,control_change,9,0,14,,,,,,,,,13,11,82,,,
9713,control_change,9,0,15,,,,,,,,,14,11,82,,,
9720,set_tempo,120,1,0,,,,,,265487,,,,,,,,
9720,control_change,21,0,11,,,,,,,,,10,11,83,,,
9720,note_on,0,0,11,,,,,,,,,10,,,,74,112
9721,note_on,0,0,1,,,,,,,,,0,,,,83,101
9721,note_on,0,0,1,,,,,,,,,0,,,,86,101
9721,control_change,21,0,1,,,,,,,,,0,11,70,,,
9722,control_change,9690,0,7,,,,,,,,,6,11,82,,,
9722,note_on,0,0,7,,,,,,,,,6,,,,74,112
9723,note_on,0,0,5,,,,,,,,,4,,,,62,100
9723,control_change,21,0,12,,,,,,,,,11,11,83,,,
9723,note_on,0,0,12,,,,,,,,,11,,,,74,112
9723,control_change,5083,0,5,,,,,,,,,4,11,82,,,
9724,note_on,0,0,2,,,,,,,,,1,,,,79,100
9724,note_on,0,0,2,,,,,,,,,1,,,,74,100
9724,control_change,21,0,2,,,,,,,,,1,11,70,,,
9724,control_change,5083,0,6,,,,,,,,,5,11,82,,,
9724,note_on,0,0,6,,,,,,,,,5,,,,62,100
9725,note_on,0,0,3,,,,,,,,,2,,,,79,101
9725,note_on,0,0,3,,,,,,,,,2,,,,83,101
9725,control_change,21,0,3,,,,,,,,,2,11,70,,,
9727,note_on,0,0,8,,,,,,,,,7,,,,62,110
9727,control_change,9690,0,8,,,,,,,,,7,11,82,,,
9727,note_on,0,0,8,,,,,,,,,7,,,,59,110
9728,note_on,0,0,13,,,,,,,,,12,,,,62,112
9728,control_change,21,0,13,,,,,,,,,12,11,83,,,
9729,control_change,21,0,4,,,,,,,,,3,11,77,,,
9729,note_on,0,0,4,,,,,,,,,3,,,,62,100
9732,control_change,21,0,14,,,,,,,,,13,11,83,,,
9732,note_on,0,0,14,,,,,,,,,13,,,,62,112
9733,note_on,0,0,9,,,,,,,,,8,,,,50,110
9733,control_change,9690,0,9,,,,,,,,,8,11,82,,,
9734,note_on,0,0,15,,,,,,,,,14,,,,50,112
9734,control_change,21,0,15,,,,,,,,,14,11,83,,,
9840,note_on,120,0,11,,,,,,,,,10,,,,74,0
9841,note_on,120,0,1,,,,,,,,,0,,,,83,0
9841,note_on,0,0,1,,,,,,,,,0,,,,86,0
9842,note_on,120,0,7,,,,,,,,,6,,,,74,0
9843,note_on,120,0,5,,,,,,,,,4,,,,62,0
9843,note_on,120,0,12,,,,,,,,,11,,,,74,0
9844,note_on,120,0,6,,,,,,,,,5,,,,62,0
9844,note_on,0,0,2,,,,,,,,,1,,,,74,0
9844,note_on,120,0,2,,,,,,,,,1,,,,79,0
9845,note_on,0,0,3,,,,,,,,,2,,,,83,0
9845,note_on,120,0,3,,,,,,,,,2,,,,79,0
9847,note_on,120,0,8,,,,,,,,,7,,,,59,0
9847,note_on,0,0,8,,,,,,,,,7,,,,62,0
9848,note_on,120,0,13,,,,,,,,,12,,,,62,0
9849,note_on,120,0,4,,,,,,,,,3,,,,62,0
9852,note_on,120,0,14,,,,,,,,,13,,,,62,0
9853,note_on,120,0,9,,,,,,,,,8,,,,50,0
9854,note_on,120,0,15,,,,,,,,,14,,,,50,0
9960,set_tempo,240,1,0,,,,,,295567,,,,,,,,
10080,set_tempo,120,1,0,,,,,,265487,,,,,,,,
10080,note_on,0,0,11,,,,,,,,,10,,,,78,112
10080,note_on,0,0,11,,,,,,,,,10,,,,69,112
10080,note_on,0,0,11,,,,,,,,,10,,,,62,112
10080,control_change,240,0,11,,,,,,,,,10,11,102,,,
10081,control_change,240,0,1,,,,,,,,,0,11,86,,,
10081,note_on,0,0,1,,,,,,,,,0,,,,84,101
10081,note_on,0,0,1,,,,,,,,,0,,,,90,101
10082,control_change,240,0,7,,,,,,,,,6,11,102,,,
10082,note_on,0,0,7,,,,,,,,,6,,,,74,112
10083,note_on,0,0,12,,,,,,,,,11,,,,69,112
10083,note_on,0,0,12,,,,,,,,,11,,,,78,112
10083,note_on,0,0,12,,,,,,,,,11,,,,62,112
10083,control_change,240,0,12,,,,,,,,,11,11,102,,,
10083,control_change,240,0,5,,,,,,,,,4,11,102,,,
10083,note_on,0,0,5,,,,,,,,,4,,,,62,100
10084,control_change,240,0,2,,,,,,,,,1,11,86,,,
10084,note_on,0,0,2,,,,,,,,,1,,,,81,100
10084,note_on,0,0,6,,,,,,,,,5,,,,62,100
10084,control_change,240,0,6,,,,,,,,,5,11,102,,,
10084,note_on,0,0,2,,,,,,,,,1,,,,78,100
10085,control_change,240,0,3,,,,,,,,,2,11,86,,,
10085,note_on,0,0,3,,,,,,,,,2,,,,78,101
10085,note_on,0,0,3,,,,,,,,,2,,,,72,101
10087,note_on,0,0,8,,,,,,,,,7,,,,60,110
10087,control_change,240,0,8,,,,,,,,,7,11,102,,,
10087,note_on,0,0,8,,,,,,,,,7,,,,66,110
10088,control_change,240,0,13,,,,,,,,,12,11,102,,,
10088,note_on,0,0,13,,,,,,,,,12,,,,62,112
10089,note_on,0,0,4,,,,,,,,,3,,,,62,100
10089,control_change,240,0,4,,,,,,,,,3,11,97,,,
10089,note_on,0,0,4,,,,,,,,,3,,,,50,100
10092,note_on,0,0,14,,,,,,,,,13,,,,50,112
10092,control_change,240,0,14,,,,,,,,,13,11,102,,,
10093,control_change,240,0,9,,,,,,,,,8,11,102,,,
10093,note_on,0,0,9,,,,,,,,,8,,,,50,110
10094,control_change,240,0,15,,,,,,,,,14,11,102,,,
10094,note_on,0,0,15,,,,,,,,,14,,,,50,112
10200,note_on,120,0,11,,,,,,,,,10,,,,78,0
10200,note_on,0,0,11,,,,,,,,,10,,,,69,0
10200,note_on,0,0,11,,,,,,,,,10,,,,62,0
10201,note_on,0,0,1,,,,,,,,,0,,,,90,0
10201,note_on,120,0,1,,,,,,,,,0,,,,84,0
10202,note_on,120,0,7,,,,,,,,,6,,,,74,0
10203,note_on,0,0,12,,,,,,,,,11,,,,69,0
10203,note_on,120,0,5,,,,,,,,,4,,,,62,0
10203,note_on,120,0,12,,,,,,,,,11,,,,78,0
10203,note_on,0,0,12,,,,,,,,,11,,,,62,0
10204,note_on,120,0,2,,,,,,,,,1,,,,78,0
10204,note_on,120,0,6,,,,,,,,,5,,,,62,0
10204,note_on,0,0,2,,,,,,,,,1,,,,81,0
10205,note_on,0,0,3,,,,,,,,,2,,,,72,0
10205,note_on,120,0,3,,,,,,,,,2,,,,78,0
10207,note_on,120,0,8,,,,,,,,,7,,,,60,0
10207,note_on,0,0,8,,,,,,,,,7,,,,66,0
10208,note_on,120,0,13,,,,,,,,,12,,,,62,0
10209,note_on,0,0,4,,,,,,,,,3,,,,50,0
10209,note_on,120,0,4,,,,,,,,,3,,,,62,0
10212,note_on,120,0,14,,,,,,,,,13,,,,50,0
10213,note_on,120,0,9,,,,,,,,,8,,,,50,0
10214,note_on,120,0,15,,,,,,,,,14,,,,50,0
10320,set_tempo,240,1,0,,,,,,295567,,,,,,,,
10440,note_on,0,0,11,,,,,,,,,10,,,,55,112
10440,note_on,240,0,11,,,,,,,,,10,,,,79,112
10440,note_on,0,0,11,,,,,,,,,10,,,,62,112
10440,set_tempo,120,1,0,,,,,,265487,,,,,,,,
10440,note_on,0,0,11,,,,,,,,,10,,,,71,112
10441,note_on,0,0,1,,,,,,,,,0,,,,83,101
10441,note_on,240,0,1,,,,,,,,,0,,,,91,101
10442,note_on,240,0,7,,,,,,,,,6,,,,67,112
10442,note_on,0,0,7,,,,,,,,,6,,,,74,112
10443,note_on,240,0,12,,,,,,,,,11,,,,79,112
10443,note_on,0,0,12,,,,,,,,,11,,,,55,112
10443,note_on,0,0,12,,,,,,,,,11,,,,62,112
10443,note_on,0,0,12,,,,,,,,,11,,,,71,112
10443,note_on,240,0,5,,,,,,,,,4,,,,62,100
10444,note_on,240,0,2,,,,,,,,,1,,,,83,100
10444,note_on,240,0,6,,,,,,,,,5,,,,55,100
10444,note_on,0,0,2,,,,,,,,,1,,,,79,100
10445,note_on,240,0,3,,,,,,,,,2,,,,79,101
10445,note_on,0,0,3,,,,,,,,,2,,,,71,101
10447,note_on,240,0,8,,,,,,,,,7,,,,59,110
10447,note_on,0,0,8,,,,,,,,,7,,,,67,110
10448,note_on,240,0,13,,,,,,,,,12,,,,55,112
10449,note_on,0,0,4,,,,,,,,,3,,,,55,100
10449,note_on,240,0,4,,,,,,,,,3,,,,59,100
10452,note_on,240,0,14,,,,,,,,,13,,,,55,112
10453,note_on,240,0,9,,,,,,,,,8,,,,43,110
10454,note_on,240,0,15,,,,,,,,,14,,,,43,112
10455,note_on,6000,0,10,,,,,,,,,15,,,,43,92
10475,note_on,30,0,3,,,,,,,,,2,,,,79,0
10479,note_on,30,0,4,,,,,,,,,3,,,,59,0
10505,note_on,30,0,3,,,,,,,,,2,,,,74,101
10509,note_on,30,0,4,,,,,,,,,3,,,,62,100
10560,note_on,0,0,11,,,,,,,,,10,,,,79,0
10560,note_on,120,0,11,,,,,,,,,10,,,,55,0
10560,note_on,0,0,11,,,,,,,,,10,,,,71,0
10560,note_on,0,0,11,,,,,,,,,10,,,,62,0
10561,note_on,120,0,1,,,,,,,,,0,,,,83,0
10561,note_on,0,0,1,,,,,,,,,0,,,,91,0
10562,note_on,0,0,7,,,,,,,,,6,,,,67,0
10562,note_on,120,0,7,,,,,,,,,6,,,,74,0
10563,note_on,120,0,12,,,,,,,,,11,,,,55,0
10563,note_on,0,0,12,,,,,,,,,11,,,,71,0
10563,note_on,0,0,12,,,,,,,,,11,,,,79,0
10563,note_on,0,0,12,,,,,,,,,11,,,,62,0
10563,note_on,120,0,5,,,,,,,,,4,,,,62,0
10564,note_on,0,0,2,,,,,,,,,1,,,,83,0
10564,note_on,120,0,6,,,,,,,,,5,,,,55,0
10564,note_on,120,0,2,,,,,,,,,1,,,,79,0
10565,note_on,0,0,3,,,,,,,,,2,,,,71,0
10565,note_on,0,0,3,,,,,,,,,2,,,,76,101
10565,control_change,0,0,3,,,,,,,,,2,11,47,,,
10565,note_on,60,0,3,,,,,,,,,2,,,,74,0
10567,note_on,0,0,8,,,,,,,,,7,,,,59,0
10567,note_on,120,0,8,,,,,,,,,7,,,,67,0
10568,note_on,120,0,13,,,,,,,,,12,,,,55,0
10569,note_on,0,0,4,,,,,,,,,3,,,,64,100
10569,control_change,0,0,4,,,,,,,,,3,11,47,,,
10569,note_on,60,0,4,,,,,,,,,3,,,,62,0
10569,note_on,0,0,4,,,,,,,,,3,,,,55,0
10572,note_on,120,0,14,,,,,,,,,13,,,,55,0
10573,note_on,120,0,9,,,,,,,,,8,,,,43,0
10574,note_on,120,0,15,,,,,,,,,14,,,,43,0
10575,note_on,120,0,10,,,,,,,,,15,,,,43,0
10625,note_on,60,0,3,,,,,,,,,2,,,,76,0
10625,note_on,0,0,3,,,,,,,,,2,,,,74,101
10629,note_on,60,0,4,,,,,,,,,3,,,,64,0
10629,note_on,0,0,4,,,,,,,,,3,,,,62,100
10680,set_tempo,240,1,0,,,,,,279070,,,,,,,,
10685,note_on,60,0,3,,,,,,,,,2,,,,74,0
10685,note_on,0,0,3,,,,,,,,,2,,,,76,101
10689,note_on,0,0,4,,,,,,,,,3,,,,64,100
10689,note_on,60,0,4,,,,,,,,,3,,,,62,0
10692,control_change,120,0,14,,,,,,,,,13,11,50,,,
10692,note_on,0,0,14,,,,,,,,,13,,,,47,112
10694,control_change,120,0,15,,,,,,,,,14,11,50,,,
10694,note_on,0,0,15,,,,,,,,,14,,,,35,112
10745,note_on,60,0,3,,,,,,,,,2,,,,76,0
10745,note_on,0,0,3,,,,,,,,,2,,,,74,101
10749,note_on,60,0,4,,,,,,,,,3,,,,64,0
10749,note_on,0,0,4,,,,,,,,,3,,,,62,100
10800,set_tempo,120,1,0,,,,,,264901,,,,,,,,
10805,note_on,0,0,3,,,,,,,,,2,,,,71,101
10805,note_on,0,0,3,,,,,,,,,2,,,,74,101
10805,note_on,60,0,3,,,,,,,,,2,,,,74,0
10809,note_on,60,0,4,,,,,,,,,3,,,,62,0
10809,note_on,0,0,4,,,,,,,,,3,,,,59,100
10809,note_on,0,0,4,,,,,,,,,3,,,,62,100
10812,note_on,0,0,14,,,,,,,,,13,,,,50,112
10812,note_on,120,0,14,,,,,,,,,13,,,,47,0
10814,note_on,0,0,15,,,,,,,,,14,,,,38,112
10814,note_on,120,0,15,,,,,,,,,14,,,,35,0
10865,note_on,60,0,3,,,,,,,,,2,,,,71,0
10865,note_on,0,0,3,,,,,,,,,2,,,,74,0
10869,note_on,60,0,4,,,,,,,,,3,,,,59,0
10869,note_on,0,0,4,,,,,,,,,3,,,,62,0
10872,note_on,60,0,14,,,,,,,,,13,,,,50,0
10874,note_on,60,0,15,,,,,,,,,14,,,,38,0
10920,set_tempo,120,1,0,,,,,,272727,,,,,,,,
10925,note_on,0,0,3,,,,,,,,,2,,,,74,101
10925,note_on,60,0,3,,,,,,,,,2,,,,71,101
10929,note_on,0,0,4,,,,,,,,,3,,,,59,100
10929,note_on,60,0,4,,,,,,,,,3,,,,62,100
10932,note_on,60,0,14,,,,,,,,,13,,,,47,112
10934,note_on,60,0,15,,,,,,,,,14,,,,35,112
10985,note_on,0,0,3,,,,,,,,,2,,,,71,0
10985,note_on,60,0,3,,,,,,,,,2,,,,74,0
10989,note_on,60,0,4,,,,,,,,,3,,,,59,0
10989,note_on,0,0,4,,,,,,,,,3,,,,62,0
10992,note_on,60,0,14,,,,,,,,,13,,,,47,0
10994,note_on,60,0,15,,,,,,,,,14,,,,35,0
11040,control_change,0,0,11,,,,,,,,,10,11,50,,,
11040,set_tempo,120,1,0,,,,,,300000,,,,,,,,
11040,note_on,480,0,11,,,,,,,,,10,,,,67,112
11045,note_on,60,0,3,,,,,,,,,2,,,,71,101
11045,note_on,0,0,3,,,,,,,,,2,,,,74,101
11049,note_on,0,0,4,,,,,,,,,3,,,,59,100
11049,note_on,60,0,4,,,,,,,,,3,,,,62,100
11052,note_on,60,0,14,,,,,,,,,13,,,,43,112
11054,note_on,60,0,15,,,,,,,,,14,,,,31,112
11080,note_on,0,0,11,,,,,,,,,10,,,,69,112
11080,note_on,40,0,11,,,,,,,,,10,,,,67,0
11105,note_on,60,0,3,,,,,,,,,2,,,,74,0
11105,note_on,0,0,3,,,,,,,,,2,,,,71,0
11109,note_on,0,0,4,,,,,,,,,3,,,,62,0
11109,note_on,60,0,4,,,,,,,,,3,,,,59,0
11112,note_on,60,0,14,,,,,,,,,13,,,,43,0
11114,note_on,60,0,15,,,,,,,,,14,,,,31,0
11120,note_on,40,0,11,,,,,,,,,10,,,,69,0
11120,note_on,0,0,11,,,,,,,,,10,,,,67,112
11160,control_change,0,0,11,,,,,,,,,10,11,73,,,
11160,note_on,0,0,11,,,,,,,,,10,,,,66,112
11160,note_on,40,0,11,,,,,,,,,10,,,,67,0
11160,set_tempo,120,1,0,,,,,,264901,,,,,,,,
11163,control_change,600,0,5,,,,,,,,,4,11,77,,,
11163,note_on,0,0,5,,,,,,,,,4,,,,62,100
11164,note_on,0,0,6,,,,,,,,,5,,,,62,100
11164,control_change,600,0,6,,,,,,,,,5,11,77,,,
11165,note_on,0,0,3,,,,,,,,,2,,,,72,116
11165,note_on,60,0,3,,,,,,,,,2,,,,74,116
11169,note_on,60,0,4,,,,,,,,,3,,,,62,115
11169,note_on,0,0,4,,,,,,,,,3,,,,60,115
11170,control_change,7,0,5,,,,,,,,,4,11,74,,,
11171,control_change,7,0,6,,,,,,,,,5,11,74,,,
11172,control_change,60,0,14,,,,,,,,,13,11,73,,,
11172,note_on,0,0,14,,,,,,,,,13,,,,50,112
11174,control_change,60,0,15,,,,,,,,,14,11,73,,,
11174,control_change,14,0,11,,,,,,,,,10,11,68,,,
11174,note_on,0,0,15,,,,,,,,,14,,,,38,112
11177,control_change,7,0,5,,,,,,,,,4,11,71,,,
11178,control_change,7,0,6,,,,,,,,,5,11,71,,,
11181,control_change,7,0,11,,,,,,,,,10,11,65,,,
11184,control_change,7,0,5,,,,,,,,,4,11,68,,,
11185,control_change,7,0,6,,,,,,,,,5,11,68,,,
11186,control_change,14,0,14,,,,,,,,,13,11,68,,,
11188,control_change,14,0,15,,,,,,,,,14,11,68,,,
11188,control_change,7,0,11,,,,,,,,,10,11,62,,,
11191,control_change,7,0,5,,,,,,,,,4,11,65,,,
11192,control_change,7,0,6,,,,,,,,,5,11,65,,,
11193,control_change,7,0,14,,,,,,,,,13,11,65,,,
11195,control_change,7,0,15,,,,,,,,,14,11,65,,,
11196,control_change,8,0,11,,,,,,,,,10,11,59,,,
11199,control_change,8,0,5,,,,,,,,,4,11,62,,,
11200,control_change,7,0,14,,,,,,,,,13,11,62,,,
11200,control_change,8,0,6,,,,,,,,,5,11,62,,,
11202,control_change,7,0,15,,,,,,,,,14,11,62,,,
11206,control_change,7,0,5,,,,,,,,,4,11,59,,,
11207,control_change,7,0,6,,,,,,,,,5,11,59,,,
11208,control_change,8,0,14,,,,,,,,,13,11,59,,,
11210,control_change,8,0,15,,,,,,,,,14,11,59,,,
11210,control_change,14,0,11,,,,,,,,,10,11,54,,,
11213,control_change,7,0,5,,,,,,,,,4,11,56,,,
11214,control_change,7,0,6,,,,,,,,,5,11,56,,,
11217,control_change,7,0,11,,,,,,,,,10,11,51,,,
11220,control_change,7,0,5,,,,,,,,,4,11,53,,,
11221,control_change,7,0,6,,,,,,,,,5,11,53,,,
11222,control_change,14,0,14,,,,,,,,,13,11,54,,,
11224,control_change,14,0,15,,,,,,,,,14,11,54,,,
11224,control_change,4,0,5,,,,,,,,,4,11,78,,,
11225,control_change,4,0,6,,,,,,,,,5,11,78,,,
11229,control_change,7,0,14,,,,,,,,,13,11,51,,,
11231,control_change,7,0,15,,,,,,,,,14,11,51,,,
11245,control_change,21,0,5,,,,,,,,,4,11,75,,,
11246,control_change,21,0,6,,,,,,,,,5,11,75,,,
11265,control_change,20,0,5,,,,,,,,,4,11,72,,,
11266,control_change,20,0,6,,,,,,,,,5,11,72,,,
11280,set_tempo,120,1,0,,,,,,272727,,,,,,,,
11286,control_change,21,0,5,,,,,,,,,4,11,69,,,
11287,control_change,21,0,6,,,,,,,,,5,11,69,,,
11292,note_on,63,0,14,,,,,,,,,13,,,,50,0
11294,note_on,63,0,15,,,,,,,,,14,,,,38,0
11307,control_change,21,0,5,,,,,,,,,4,11,66,,,
11308,control_change,21,0,6,,,,,,,,,5,11,66,,,
11327,control_change,20,0,5,,,,,,,,,4,11,63,,,
11328,control_change,20,0,6,,,,,,,,,5,11,63,,,
11348,control_change,21,0,5,,,,,,,,,4,11,60,,,
11349,control_change,21,0,6,,,,,,,,,5,11,60,,,
11368,control_change,20,0,5,,,,,,,,,4,11,57,,,
11369,control_change,20,0,6,,,,,,,,,5,11,57,,,
11389,control_change,21,0,5,,,,,,,,,4,11,54,,,
11390,control_change,21,0,6,,,,,,,,,5,11,54,,,
11400,set_tempo,120,1,0,,,,,,300000,,,,,,,,
11400,note_on,183,0,11,,,,,,,,,10,,,,66,0
11400,note_on,0,0,11,,,,,,,,,10,,,,69,112
11510,note_on,110,0,11,,,,,,,,,10,,,,69,0
11520,set_tempo,120,1,0,,,,,,264901,,,,,,,,
11520,note_on,10,0,11,,,,,,,,,10,,,,74,112
11640,set_tempo,120,1,0,,,,,,272727,,,,,,,,
11760,set_tempo,120,1,0,,,,,,300000,,,,,,,,
11760,note_on,240,0,11,,,,,,,,,10,,,,74,0
11760,note_on,0,0,11,,,,,,,,,10,,,,78,112
11870,note_on,110,0,11,,,,,,,,,10,,,,78,0
11880,note_on,10,0,11,,,,,,,,,10,,,,81,127
11880,set_tempo,120,1,0,,,,,,264901,,,,,,,,
11883,note_on,494,0,5,,,,,,,,,4,,,,62,0
11883,note_on,0,0,5,,,,,,,,,4,,,,62,115
11884,note_on,494,0,6,,,,,,,,,5,,,,62,0
11884,note_on,0,0,6,,,,,,,,,5,,,,62,115
11885,control_change,0,0,3,,,,,,,,,2,11,70,,,
11885,note_on,720,0,3,,,,,,,,,2,,,,72,0
11885,note_on,0,0,3,,,,,,,,,2,,,,74,0
11885,note_on,0,0,3,,,,,,,,,2,,,,74,101
11885,note_on,0,0,3,,,,,,,,,2,,,,72,101
11889,note_on,0,0,4,,,,,,,,,3,,,,57,115
11889,note_on,0,0,4,,,,,,,,,3,,,,62,115
11889,note_on,0,0,4,,,,,,,,,3,,,,62,0
11889,note_on,720,0,4,,,,,,,,,3,,,,60,0
11892,note_on,600,0,14,,,,,,,,,13,,,,54,127
11894,note_on,600,0,15,,,,,,,,,14,,,,38,112
11915,note_on,30,0,3,,,,,,,,,2,,,,74,0
11945,note_on,30,0,3,,,,,,,,,2,,,,74,101
11975,note_on,30,0,3,,,,,,,,,2,,,,74,0
12000,set_tempo,120,1,0,,,,,,272727,,,,,,,,
12003,control_change,1440,0,12,,,,,,,,,11,11,50,,,
12003,note_on,0,0,12,,,,,,,,,11,,,,72,127
12005,note_on,30,0,3,,,,,,,,,2,,,,76,101
12008,note_on,0,0,13,,,,,,,,,12,,,,66,127
12008,control_change,1440,0,13,,,,,,,,,12,11,50,,,
12014,note_on,120,0,15,,,,,,,,,14,,,,38,0
12065,note_on,0,0,3,,,,,,,,,2,,,,74,101
12065,note_on,60,0,3,,,,,,,,,2,,,,76,0
12120,note_on,240,0,11,,,,,,,,,10,,,,81,0
12120,set_tempo,120,1,0,,,,,,300000,,,,,,,,
12120,note_on,0,0,11,,,,,,,,,10,,,,78,112
12123,note_on,0,0,12,,,,,,,,,11,,,,62,112
12123,note_on,120,0,12,,,,,,,,,11,,,,72,0
12125,note_on,60,0,3,,,,,,,,,2,,,,74,0
12125,note_on,0,0,3,,,,,,,,,2,,,,76,101
12128,note_on,120,0,13,,,,,,,,,12,,,,66,0
12128,note_on,0,0,13,,,,,,,,,12,,,,62,112
12132,note_on,240,0,14,,,,,,,,,13,,,,54,0
12132,note_on,0,0,14,,,,,,,,,13,,,,57,112
12183,note_on,60,0,12,,,,,,,,,11,,,,62,0
12183,note_on,300,0,5,,,,,,,,,4,,,,62,0
12184,note_on,300,0,6,,,,,,,,,5,,,,62,0
12185,note_on,60,0,3,,,,,,,,,2,,,,76,0
12185,note_on,0,0,3,,,,,,,,,2,,,,74,101
12188,note_on,60,0,13,,,,,,,,,12,,,,62,0
12230,note_on,110,0,11,,,,,,,,,10,,,,78,0
12240,set_tempo,120,1,0,,,,,,264901,,,,,,,,
12240,note_on,10,0,11,,,,,,,,,10,,,,81,112
12243,note_on,60,0,5,,,,,,,,,4,,,,62,115
12244,note_on,60,0,6,,,,,,,,,5,,,,62,115
12245,note_on,0,0,3,,,,,,,,,2,,,,72,0
12245,note_on,0,0,3,,,,,,,,,2,,,,74,101
12245,note_on,60,0,3,,,,,,,,,2,,,,74,0
12245,note_on,0,0,3,,,,,,,,,2,,,,71,101
12249,note_on,0,0,4,,,,,,,,,3,,,,62,0
12249,note_on,0,0,4,,,,,,,,,3,,,,59,115
12249,note_on,0,0,4,,,,,,,,,3,,,,62,115
12249,note_on,360,0,4,,,,,,,,,3,,,,57,0
12252,note_on,0,0,14,,,,,,,,,13,,,,59,112
12252,note_on,120,0,14,,,,,,,,,13,,,,57,0
12254,note_on,240,0,15,,,,,,,,,14,,,,43,112
12300,note_on,60,0,11,,,,,,,,,10,,,,81,0
12300,note_on,0,0,11,,,,,,,,,10,,,,79,112
12305,note_on,60,0,3,,,,,,,,,2,,,,74,0
12305,note_on,0,0,3,,,,,,,,,2,,,,71,0
12360,set_tempo,120,1,0,,,,,,272727,,,,,,,,
12360,note_on,60,0,11,,,,,,,,,10,,,,79,0
12360,note_on,0,0,11,,,,,,,,,10,,,,78,112
12363,note_on,180,0,12,,,,,,,,,11,,,,71,127
12365,note_on,60,0,3,,,,,,,,,2,,,,71,101
12365,note_on,0,0,3,,,,,,,,,2,,,,74,101
12368,note_on,180,0,13,,,,,,,,,12,,,,67,127
12372,note_on,120,0,14,,,,,,,,,13,,,,59,0
12372,note_on,0,0,14,,,,,,,,,13,,,,62,112
12374,note_on,120,0,15,,,,,,,,,14,,,,43,0
12420,note_on,60,0,11,,,,,,,,,10,,,,78,0
12420,note_on,0,0,11,,,,,,,,,10,,,,76,112
12425,note_on,60,0,3,,,,,,,,,2,,,,74,0
12425,note_on,0,0,3,,,,,,,,,2,,,,71,0
12480,set_tempo,120,1,0,,,,,,300000,,,,,,,,
12480,note_on,0,0,11,,,,,,,,,10,,,,74,112
12480,note_on,60,0,11,,,,,,,,,10,,,,76,0
12483,note_on,0,0,12,,,,,,,,,11,,,,62,112
12483,note_on,120,0,12,,,,,,,,,11,,,,71,0
12485,note_on,60,0,3,,,,,,,,,2,,,,71,101
12485,note_on,0,0,3,,,,,,,,,2,,,,74,101
12488,note_on,0,0,13,,,,,,,,,12,,,,62,112
12488,note_on,120,0,13,,,,,,,,,12,,,,67,0
12492,note_on,0,0,14,,,,,,,,,13,,,,71,112
12492,note_on,120,0,14,,,,,,,,,13,,,,62,0
12543,note_on,60,0,12,,,,,,,,,11,,,,62,0
12543,note_on,300,0,5,,,,,,,,,4,,,,62,0
12544,note_on,300,0,6,,,,,,,,,5,,,,62,0
12545,note_on,0,0,3,,,,,,,,,2,,,,71,0
12545,note_on,60,0,3,,,,,,,,,2,,,,74,0
12548,note_on,60,0,13,,,,,,,,,12,,,,62,0
12590,note_on,110,0,11,,,,,,,,,10,,,,74,0
12600,set_tempo,120,1,0,,,,,,264901,,,,,,,,
12600,note_on,10,0,11,,,,,,,,,10,,,,74,112
12602,note_on,110,0,14,,,,,,,,,13,,,,71,0
12603,note_on,60,0,5,,,,,,,,,4,,,,62,115
12604,note_on,60,0,6,,,,,,,,,5,,,,62,115
12605,note_on,0,0,3,,,,,,,,,2,,,,69,101
12605,note_on,0,0,3,,,,,,,,,2,,,,74,101
12605,control_change,60,0,3,,,,,,,,,2,11,47,,,
12609,note_on,0,0,4,,,,,,,,,3,,,,62,0
12609,note_on,360,0,4,,,,,,,,,3,,,,59,0
12609,note_on,0,0,4,,,,,,,,,3,,,,60,100
12609,control_change,0,0,4,,,,,,,,,3,11,77,,,
12609,note_on,0,0,4,,,,,,,,,3,,,,62,100
12612,note_on,10,0,14,,,,,,,,,13,,,,69,127
12614,note_on,240,0,15,,,,,,,,,14,,,,38,112
12630,note_on,30,0,11,,,,,,,,,10,,,,74,0
12630,note_on,0,0,11,,,,,,,,,10,,,,72,112
12639,note_on,30,0,4,,,,,,,,,3,,,,62,0
12660,note_on,30,0,11,,,,,,,,,10,,,,72,0
12669,note_on,30,0,4,,,,,,,,,3,,,,62,100
12699,note_on,30,0,4,,,,,,,,,3,,,,62,0
12720,note_on,60,0,11,,,,,,,,,10,,,,72,112
12720,set_tempo,120,1,0,,,,,,272727,,,,,,,,
12723,note_on,180,0,12,,,,,,,,,11,,,,66,112
12728,note_on,180,0,13,,,,,,,,,12,,,,60,112
12729,note_on,30,0,4,,,,,,,,,3,,,,64,100
12734,note_on,120,0,15,,,,,,,,,14,,,,38,0
12780,note_on,60,0,11,,,,,,,,,10,,,,72,0
12789,note_on,60,0,4,,,,,,,,,3,,,,64,0
12789,note_on,0,0,4,,,,,,,,,3,,,,62,100
12840,set_tempo,120,1,0,,,,,,300000,,,,,,,,
12840,note_on,60,0,11,,,,,,,,,10,,,,72,112
12843,note_on,120,0,12,,,,,,,,,11,,,,66,0
12843,note_on,0,0,12,,,,,,,,,11,,,,62,112
12848,note_on,0,0,13,,,,,,,,,12,,,,62,112
12848,note_on,120,0,13,,,,,,,,,12,,,,60,0
12849,note_on,60,0,4,,,,,,,,,3,,,,62,0
12849,note_on,0,0,4,,,,,,,,,3,,,,64,100
12852,note_on,240,0,14,,,,,,,,,13,,,,69,0
12852,note_on,0,0,14,,,,,,,,,13,,,,66,112
12900,note_on,0,0,11,,,,,,,,,10,,,,74,112
12900,note_on,60,0,11,,,,,,,,,10,,,,72,0
12903,note_on,60,0,12,,,,,,,,,11,,,,62,0
12903,note_on,300,0,5,,,,,,,,,4,,,,62,0
12904,note_on,300,0,6,,,,,,,,,5,,,,62,0
12908,note_on,60,0,13,,,,,,,,,12,,,,62,0
12909,note_on,0,0,4,,,,,,,,,3,,,,62,100
12909,note_on,60,0,4,,,,,,,,,3,,,,64,0
12958,note_on,58,0,11,,,,,,,,,10,,,,74,0
12960,set_tempo,120,1,0,,,,,,264901,,,,,,,,
12960,note_on,2,0,11,,,,,,,,,10,,,,71,112
12962,note_on,110,0,14,,,,,,,,,13,,,,66,0
12963,note_on,60,0,5,,,,,,,,,4,,,,62,115
12964,note_on,60,0,6,,,,,,,,,5,,,,62,115
12965,note_on,360,0,3,,,,,,,,,2,,,,69,0
12965,note_on,0,0,3,,,,,,,,,2,,,,74,0
12965,note_on,0,0,3,,,,,,,,,2,,,,74,101
12965,note_on,0,0,3,,,,,,,,,2,,,,71,101
12969,note_on,0,0,4,,,,,,,,,3,,,,60,0
12969,note_on,0,0,4,,,,,,,,,3,,,,59,100
12969,note_on,0,0,4,,,,,,,,,3,,,,62,100
12969,note_on,60,0,4,,,,,,,,,3,,,,62,0
12972,note_on,10,0,14,,,,,,,,,13,,,,69,112
12974,note_on,240,0,15,,,,,,,,,14,,,,43,112
13029,note_on,0,0,4,,,,,,,,,3,,,,62,0
13029,note_on,60,0,4,,,,,,,,,3,,,,59,0
13032,note_on,0,0,14,,,,,,,,,13,,,,67,112
13032,note_on,60,0,14,,,,,,,,,13,,,,69,0
13080,note_on,120,0,11,,,,,,,,,10,,,,71,0
13080,note_on,0,0,11,,,,,,,,,10,,,,74,112
13080,set_tempo,120,1,0,,,,,,272727,,,,,,,,
13083,note_on,180,0,12,,,,,,,,,11,,,,67,112
13088,note_on,180,0,13,,,,,,,,,12,,,,59,112
13089,note_on,0,0,4,,,,,,,,,3,,,,59,100
13089,note_on,60,0,4,,,,,,,,,3,,,,62,100
13092,note_on,0,0,14,,,,,,,,,13,,,,66,112
13092,note_on,60,0,14,,,,,,,,,13,,,,67,0
13094,note_on,120,0,15,,,,,,,,,14,,,,43,0
13149,note_on,0,0,4,,,,,,,,,3,,,,62,0
13149,note_on,60,0,4,,,,,,,,,3,,,,59,0
13152,note_on,0,0,14,,,,,,,,,13,,,,64,112
13152,note_on,60,0,14,,,,,,,,,13,,,,66,0
13200,set_tempo,120,1,0,,,,,,300000,,,,,,,,
13200,note_on,0,0,11,,,,,,,,,10,,,,83,112
13200,note_on,120,0,11,,,,,,,,,10,,,,74,0
13203,note_on,0,0,12,,,,,,,,,11,,,,62,112
13203,note_on,120,0,12,,,,,,,,,11,,,,67,0
13208,note_on,0,0,13,,,,,,,,,12,,,,62,112
13208,note_on,120,0,13,,,,,,,,,12,,,,59,0
13209,note_on,60,0,4,,,,,,,,,3,,,,62,100
13209,note_on,0,0,4,,,,,,,,,3,,,,59,100
13212,note_on,0,0,14,,,,,,,,,13,,,,62,112
13212,note_on,60,0,14,,,,,,,,,13,,,,64,0
13263,note_on,60,0,12,,,,,,,,,11,,,,62,0
13263,note_on,300,0,5,,,,,,,,,4,,,,62,0
13264,note_on,300,0,6,,,,,,,,,5,,,,62,0
13268,note_on,60,0,13,,,,,,,,,12,,,,62,0
13269,note_on,0,0,4,,,,,,,,,3,,,,62,0
13269,note_on,60,0,4,,,,,,,,,3,,,,59,0
13310,note_on,110,0,11,,,,,,,,,10,,,,83,0
13320,note_on,10,0,11,,,,,,,,,10,,,,81,112
13320,set_tempo,120,1,0,,,,,,264901,,,,,,,,
13322,note_on,110,0,14,,,,,,,,,13,,,,62,0
13323,note_on,60,0,5,,,,,,,,,4,,,,62,115
13324,note_on,60,0,6,,,,,,,,,5,,,,62,115
13325,note_on,360,0,3,,,,,,,,,2,,,,71,0
13325,note_on,0,0,3,,,,,,,,,2,,,,74,0
13325,note_on,0,0,3,,,,,,,,,2,,,,74,101
13325,note_on,0,0,3,,,,,,,,,2,,,,72,101
13325,control_change,0,0,3,,,,,,,,,2,11,70,,,
13329,control_change,60,0,4,,,,,,,,,3,11,47,,,
13329,note_on,0,0,4,,,,,,,,,3,,,,62,100
13329,note_on,0,0,4,,,,,,,,,3,,,,57,100
13332,note_on,10,0,14,,,,,,,,,13,,,,62,112
13334,note_on,240,0,15,,,,,,,,,14,,,,38,112
13355,note_on,30,0,3,,,,,,,,,2,,,,74,0
13362,note_on,0,0,14,,,,,,,,,13,,,,60,112
13362,note_on,30,0,14,,,,,,,,,13,,,,62,0
13385,note_on,30,0,3,,,,,,,,,2,,,,74,101
13407,note_on,45,0,14,,,,,,,,,13,,,,60,0
13415,note_on,30,0,3,,,,,,,,,2,,,,74,0
13440,set_tempo,120,1,0,,,,,,272727,,,,,,,,
13443,note_on,180,0,12,,,,,,,,,11,,,,72,112
13445,note_on,30,0,3,,,,,,,,,2,,,,76,101
13448,note_on,180,0,13,,,,,,,,,12,,,,66,112
13452,note_on,45,0,14,,,,,,,,,13,,,,60,112
13454,note_on,120,0,15,,,,,,,,,14,,,,38,0
13505,note_on,60,0,3,,,,,,,,,2,,,,76,0
13505,note_on,0,0,3,,,,,,,,,2,,,,74,101
13542,note_on,90,0,14,,,,,,,,,13,,,,60,0
13560,note_on,240,0,11,,,,,,,,,10,,,,81,0
13560,note_on,0,0,11,,,,,,,,,10,,,,78,112
13560,set_tempo,120,1,0,,,,,,300000,,,,,,,,
13563,note_on,0,0,12,,,,,,,,,11,,,,62,112
13563,note_on,120,0,12,,,,,,,,,11,,,,72,0
13565,note_on,0,0,3,,,,,,,,,2,,,,76,101
13565,note_on,60,0,3,,,,,,,,,2,,,,74,0
13568,note_on,0,0,13,,,,,,,,,12,,,,62,112
13568,note_on,120,0,13,,,,,,,,,12,,,,66,0
13572,note_on,30,0,14,,,,,,,,,13,,,,60,112
13623,note_on,60,0,12,,,,,,,,,11,,,,62,0
13623,note_on,300,0,5,,,,,,,,,4,,,,62,0
13624,note_on,300,0,6,,,,,,,,,5,,,,62,0
13625,note_on,60,0,3,,,,,,,,,2,,,,76,0
13625,note_on,0,0,3,,,,,,,,,2,,,,74,101
13628,note_on,60,0,13,,,,,,,,,12,,,,62,0
13632,note_on,60,0,14,,,,,,,,,13,,,,60,0
13632,note_on,0,0,14,,,,,,,,,13,,,,62,112
13670,note_on,110,0,11,,,,,,,,,10,,,,78,0
13680,note_on,10,0,11,,,,,,,,,10,,,,81,112
13680,set_tempo,120,1,0,,,,,,264901,,,,,,,,
13683,note_on,60,0,5,,,,,,,,,4,,,,62,115
13684,note_on,60,0,6,,,,,,,,,5,,,,62,115
13685,note_on,0,0,3,,,,,,,,,2,,,,72,0
13685,note_on,0,0,3,,,,,,,,,2,,,,71,101
13685,note_on,0,0,3,,,,,,,,,2,,,,74,101
13685,note_on,60,0,3,,,,,,,,,2,,,,74,0
13689,note_on,360,0,4,,,,,,,,,3,,,,57,0
13689,note_on,0,0,4,,,,,,,,,3,,,,59,100
13689,note_on,0,0,4,,,,,,,,,3,,,,62,100
13689,note_on,0,0,4,,,,,,,,,3,,,,62,0
13690,note_on,58,0,14,,,,,,,,,13,,,,62,0
13692,note_on,2,0,14,,,,,,,,,13,,,,59,112
13694,note_on,240,0,15,,,,,,,,,14,,,,43,112
13740,note_on,0,0,11,,,,,,,,,10,,,,79,112
13740,note_on,60,0,11,,,,,,,,,10,,,,81,0
13745,note_on,0,0,3,,,,,,,,,2,,,,71,0
13745,note_on,60,0,3,,,,,,,,,2,,,,74,0
13800,note_on,60,0,11,,,,,,,,,10,,,,79,0
13800,set_tempo,120,1,0,,,,,,272727,,,,,,,,
13800,note_on,0,0,11,,,,,,,,,10,,,,78,112
13803,note_on,180,0,12,,,,,,,,,11,,,,71,112
13805,note_on,0,0,3,,,,,,,,,2,,,,74,101
13805,note_on,60,0,3,,,,,,,,,2,,,,71,101
13808,note_on,180,0,13,,,,,,,,,12,,,,67,112
13812,note_on,0,0,14,,,,,,,,,13,,,,62,112
13812,note_on,120,0,14,,,,,,,,,13,,,,59,0
13814,note_on,120,0,15,,,,,,,,,14,,,,43,0
13860,note_on,0,0,11,,,,,,,,,10,,,,76,112
13860,note_on,60,0,11,,,,,,,,,10,,,,78,0
13865,note_on,0,0,3,,,,,,,,,2,,,,71,0
13865,note_on,60,0,3,,,,,,,,,2,,,,74,0
13920,note_on,0,0,11,,,,,,,,,10,,,,74,112
13920,note_on,60,0,11,,,,,,,,,10,,,,76,0
13920,set_tempo,120,1,0,,,,,,300000,,,,,,,,
13923,note_on,120,0,12,,,,,,,,,11,,,,71,0
13923,note_on,0,0,12,,,,,,,,,11,,,,62,112
13925,note_on,0,0,3,,,,,,,,,2,,,,74,101
13925,note_on,60,0,3,,,,,,,,,2,,,,71,101
13928,note_on,120,0,13,,,,,,,,,12,,,,67,0
13928,note_on,0,0,13,,,,,,,,,12,,,,62,112
13932,note_on,120,0,14,,,,,,,,,13,,,,62,0
13932,note_on,0,0,14,,,,,,,,,13,,,,71,112
13983,note_on,60,0,12,,,,,,,,,11,,,,62,0
13983,note_on,300,0,5,,,,,,,,,4,,,,62,0
13984,note_on,300,0,6,,,,,,,,,5,,,,62,0
13985,note_on,60,0,3,,,,,,,,,2,,,,74,0
13985,note_on,0,0,3,,,,,,,,,2,,,,71,0
13988,note_on,60,0,13,,,,,,,,,12,,,,62,0
14030,note_on,110,0,11,,,,,,,,,10,,,,74,0
14040,set_tempo,120,1,0,,,,,,264901,,,,,,,,
14040,note_on,10,0,11,,,,,,,,,10,,,,74,112
14042,note_on,110,0,14,,,,,,,,,13,,,,71,0
14043,note_on,60,0,5,,,,,,,,,4,,,,62,115
14044,note_on,60,0,6,,,,,,,,,5,,,,62,115
14045,note_on,0,0,3,,,,,,,,,2,,,,69,101
14045,note_on,0,0,3,,,,,,,,,2,,,,74,101
14045,control_change,60,0,3,,,,,,,,,2,11,47,,,
14049,control_change,0,0,4,,,,,,,,,3,11,77,,,
14049,note_on,0,0,4,,,,,,,,,3,,,,62,0
14049,note_on,0,0,4,,,,,,,,,3,,,,60,100
14049,note_on,0,0,4,,,,,,,,,3,,,,62,100
14049,note_on,360,0,4,,,,,,,,,3,,,,59,0
14052,note_on,10,0,14,,,,,,,,,13,,,,69,127
14054,note_on,240,0,15,,,,,,,,,14,,,,38,112
14070,note_on,0,0,11,,,,,,,,,10,,,,72,112
14070,note_on,30,0,11,,,,,,,,,10,,,,74,0
14079,note_on,30,0,4,,,,,,,,,3,,,,62,0
14100,note_on,30,0,11,,,,,,,,,10,,,,72,0
14109,note_on,30,0,4,,,,,,,,,3,,,,62,100
14139,note_on,30,0,4,,,,,,,,,3,,,,62,0
14160,set_tempo,120,1,0,,,,,,272727,,,,,,,,
14160,note_on,60,0,11,,,,,,,,,10,,,,72,112
14163,note_on,180,0,12,,,,,,,,,11,,,,66,112
14168,note_on,180,0,13,,,,,,,,,12,,,,60,112
14169,note_on,30,0,4,,,,,,,,,3,,,,64,100
14174,note_on,120,0,15,,,,,,,,,14,,,,38,0
14220,note_on,60,0,11,,,,,,,,,10,,,,72,0
14229,note_on,60,0,4,,,,,,,,,3,,,,64,0
14229,note_on,0,0,4,,,,,,,,,3,,,,62,100
14280,set_tempo,120,1,0,,,,,,300000,,,,,,,,
14280,note_on,60,0,11,,,,,,,,,10,,,,72,112
14283,note_on,0,0,12,,,,,,,,,11,,,,62,112
14283,note_on,120,0,12,,,,,,,,,11,,,,66,0
14286,note_on,241,0,3,,,,,,,,,2,,,,69,0
14286,note_on,0,0,3,,,,,,,,,2,,,,74,0
14288,note_on,120,0,13,,,,,,,,,12,,,,60,0
14288,note_on,0,0,13,,,,,,,,,12,,,,62,112
14289,note_on,60,0,4,,,,,,,,,3,,,,62,0
14289,note_on,0,0,4,,,,,,,,,3,,,,64,100
14292,note_on,240,0,14,,,,,,,,,13,,,,69,0
14292,note_on,0,0,14,,,,,,,,,13,,,,66,112
14340,note_on,0,0,11,,,,,,,,,10,,,,74,112
14340,note_on,60,0,11,,,,,,,,,10,,,,72,0
14343,note_on,300,0,5,,,,,,,,,4,,,,62,0
14343,note_on,60,0,12,,,,,,,,,11,,,,62,0
14344,note_on,300,0,6,,,,,,,,,5,,,,62,0
14348,note_on,60,0,13,,,,,,,,,12,,,,62,0
14349,note_on,0,0,4,,,,,,,,,3,,,,62,100
14349,note_on,60,0,4,,,,,,,,,3,,,,64,0
14398,note_on,58,0,11,,,,,,,,,10,,,,74,0
14400,set_tempo,120,1,0,,,,,,264901,,,,,,,,
14400,note_on,2,0,11,,,,,,,,,10,,,,71,112
14402,note_on,110,0,14,,,,,,,,,13,,,,66,0
14403,note_on,60,0,5,,,,,,,,,4,,,,62,115
14404,note_on,60,0,6,,,,,,,,,5,,,,62,115
14405,note_on,119,0,3,,,,,,,,,2,,,,74,101
14405,note_on,0,0,3,,,,,,,,,2,,,,71,101
14409,note_on,0,0,4,,,,,,,,,3,,,,59,100
14409,note_on,0,0,4,,,,,,,,,3,,,,62,100
14409,note_on,0,0,4,,,,,,,,,3,,,,60,0
14409,note_on,60,0,4,,,,,,,,,3,,,,62,0
14412,note_on,10,0,14,,,,,,,,,13,,,,69,112
14414,note_on,240,0,15,,,,,,,,,14,,,,43,112
14469,note_on,0,0,4,,,,,,,,,3,,,,62,0
14469,note_on,60,0,4,,,,,,,,,3,,,,59,0
14472,note_on,0,0,14,,,,,,,,,13,,,,67,112
14472,note_on,60,0,14,,,,,,,,,13,,,,69,0
14520,note_on,0,0,11,,,,,,,,,10,,,,74,112
14520,set_tempo,120,1,0,,,,,,272727,,,,,,,,
14520,note_on,120,0,11,,,,,,,,,10,,,,71,0
14523,note_on,180,0,12,,,,,,,,,11,,,,67,112
14528,note_on,180,0,13,,,,,,,,,12,,,,59,112
14529,note_on,0,0,4,,,,,,,,,3,,,,59,100
14529,note_on,60,0,4,,,,,,,,,3,,,,62,100
14532,note_on,60,0,14,,,,,,,,,13,,,,67,0
14532,note_on,0,0,14,,,,,,,,,13,,,,66,112
14534,note_on,120,0,15,,,,,,,,,14,,,,43,0
14589,note_on,0,0,4,,,,,,,,,3,,,,62,0
14589,note_on,60,0,4,,,,,,,,,3,,,,59,0
14592,note_on,60,0,14,,,,,,,,,13,,,,66,0
14592,note_on,0,0,14,,,,,,,,,13,,,,64,112
14640,set_tempo,120,1,0,,,,,,333333,,,,,,,,
14640,note_on,120,0,11,,,,,,,,,10,,,,74,0
14640,note_on,0,0,11,,,,,,,,,10,,,,83,112
14643,note_on,0,0,12,,,,,,,,,11,,,,62,112
14643,note_on,120,0,12,,,,,,,,,11,,,,67,0
14648,note_on,0,0,13,,,,,,,,,12,,,,62,112
14648,note_on,120,0,13,,,,,,,,,12,,,,59,0
14649,note_on,0,0,4,,,,,,,,,3,,,,59,100
14649,note_on,60,0,4,,,,,,,,,3,,,,62,100
14652,note_on,60,0,14,,,,,,,,,13,,,,64,0
14652,note_on,0,0,14,,,,,,,,,13,,,,62,112
14703,note_on,60,0,12,,,,,,,,,11,,,,62,0
14703,note_on,300,0,5,,,,,,,,,4,,,,62,0
14704,note_on,300,0,6,,,,,,,,,5,,,,62,0
14708,note_on,60,0,13,,,,,,,,,12,,,,62,0
14709,note_on,0,0,4,,,,,,,,,3,,,,62,0
14709,note_on,60,0,4,,,,,,,,,3,,,,59,0
14750,note_on,110,0,11,,,,,,,,,10,,,,83,0
14760,control_change,10,0,11,,,,,,,,,10,11,27,,,
14760,note_on,0,0,11,,,,,,,,,10,,,,81,112
14760,set_tempo,120,1,0,,,,,,264901,,,,,,,,
14762,note_on,110,0,14,,,,,,,,,13,,,,62,0
14763,control_change,60,0,12,,,,,,,,,11,11,27,,,
14763,note_on,0,0,12,,,,,,,,,11,,,,81,112
14765,note_on,0,0,3,,,,,,,,,2,,,,74,101
14765,note_on,0,0,3,,,,,,,,,2,,,,72,101
14765,control_change,0,0,3,,,,,,,,,2,11,32,,,
14765,note_on,0,0,3,,,,,,,,,2,,,,74,0
14765,note_on,360,0,3,,,,,,,,,2,,,,71,0
14768,control_change,60,0,13,,,,,,,,,12,11,27,,,
14768,note_on,0,0,13,,,,,,,,,12,,,,69,112
14769,control_change,60,0,4,,,,,,,,,3,11,32,,,
14769,note_on,0,0,4,,,,,,,,,3,,,,60,100
14769,note_on,0,0,4,,,,,,,,,3,,,,62,100
14772,control_change,10,0,14,,,,,,,,,13,11,27,,,
14772,note_on,0,0,14,,,,,,,,,13,,,,57,112
14774,control_change,240,0,15,,,,,,,,,14,11,27,,,
14774,note_on,0,0,15,,,,,,,,,14,,,,45,112
14778,control_change,18,0,11,,,,,,,,,10,11,29,,,
14781,control_change,18,0,12,,,,,,,,,11,11,29,,,
14783,control_change,18,0,3,,,,,,,,,2,11,35,,,
14786,control_change,18,0,13,,,,,,,,,12,11,29,,,
14787,control_change,18,0,4,,,,,,,,,3,11,35,,,
14790,control_change,18,0,14,,,,,,,,,13,11,29,,,
14792,control_change,18,0,15,,,,,,,,,14,11,29,,,
14795,note_on,12,0,3,,,,,,,,,2,,,,74,0
14796,control_change,18,0,11,,,,,,,,,10,11,32,,,
14799,note_on,12,0,4,,,,,,,,,3,,,,62,0
14799,control_change,18,0,12,,,,,,,,,11,11,32,,,
14801,control_change,6,0,3,,,,,,,,,2,11,38,,,
14804,control_change,18,0,13,,,,,,,,,12,11,32,,,
14805,control_change,6,0,4,,,,,,,,,3,11,38,,,
14808,control_change,18,0,14,,,,,,,,,13,11,32,,,
14810,control_change,18,0,15,,,,,,,,,14,11,32,,,
14814,control_change,18,0,11,,,,,,,,,10,11,35,,,
14817,control_change,18,0,12,,,,,,,,,11,11,35,,,
14819,control_change,18,0,3,,,,,,,,,2,11,41,,,
14822,control_change,18,0,13,,,,,,,,,12,11,35,,,
14823,control_change,18,0,4,,,,,,,,,3,11,41,,,
14825,note_on,6,0,3,,,,,,,,,2,,,,74,101
14826,control_change,18,0,14,,,,,,,,,13,11,35,,,
14828,control_change,18,0,15,,,,,,,,,14,11,35,,,
14829,note_on,6,0,4,,,,,,,,,3,,,,62,100
14837,control_change,12,0,3,,,,,,,,,2,11,44,,,
14841,control_change,12,0,4,,,,,,,,,3,11,44,,,
14855,control_change,0,0,3,,,,,,,,,2,11,47,,,
14855,note_on,18,0,3,,,,,,,,,2,,,,74,0
14859,note_on,18,0,4,,,,,,,,,3,,,,62,0
14859,control_change,0,0,4,,,,,,,,,3,11,47,,,
14873,control_change,18,0,3,,,,,,,,,2,11,50,,,
14877,control_change,18,0,4,,,,,,,,,3,11,50,,,
14885,note_on,12,0,3,,,,,,,,,2,,,,76,101
14889,note_on,12,0,4,,,,,,,,,3,,,,64,100
14945,note_on,0,0,3,,,,,,,,,2,,,,74,101
14945,note_on,60,0,3,,,,,,,,,2,,,,76,0
14949,note_on,0,0,4,,,,,,,,,3,,,,62,100
14949,note_on,60,0,4,,,,,,,,,3,,,,64,0
15000,note_on,0,0,11,,,,,,,,,10,,,,78,112
15000,set_tempo,240,1,0,,,,,,292683,,,,,,,,
15000,note_on,186,0,11,,,,,,,,,10,,,,81,0
15003,note_on,186,0,12,,,,,,,,,11,,,,81,0
15003,note_on,0,0,12,,,,,,,,,11,,,,78,112
15005,note_on,0,0,3,,,,,,,,,2,,,,76,101
15005,note_on,60,0,3,,,,,,,,,2,,,,74,0
15008,note_on,0,0,13,,,,,,,,,12,,,,66,112
15008,note_on,186,0,13,,,,,,,,,12,,,,69,0
15009,note_on,0,0,4,,,,,,,,,3,,,,64,100
15009,note_on,60,0,4,,,,,,,,,3,,,,62,0
15012,note_on,186,0,14,,,,,,,,,13,,,,57,0
15012,note_on,0,0,14,,,,,,,,,13,,,,54,112
15014,note_on,0,0,15,,,,,,,,,14,,,,42,112
15014,note_on,186,0,15,,,,,,,,,14,,,,45,0
15065,note_on,60,0,3,,,,,,,,,2,,,,76,0
15065,note_on,0,0,3,,,,,,,,,2,,,,74,101
15069,note_on,0,0,4,,,,,,,,,3,,,,62,100
15069,note_on,60,0,4,,,,,,,,,3,,,,64,0
15120,note_on,120,0,11,,,,,,,,,10,,,,78,0
15120,set_tempo,120,1,0,,,,,,263736,,,,,,,,
15120,note_on,0,0,11,,,,,,,,,10,,,,74,112
15123,note_on,0,0,12,,,,,,,,,11,,,,74,112
15123,note_on,120,0,12,,,,,,,,,11,,,,78,0
15125,note_on,0,0,3,,,,,,,,,2,,,,72,0
15125,note_on,0,0,3,,,,,,,,,2,,,,72,101
15125,note_on,0,0,3,,,,,,,,,2,,,,74,101
15125,note_on,60,0,3,,,,,,,,,2,,,,74,0
15128,note_on,120,0,13,,,,,,,,,12,,,,66,0
15128,note_on,0,0,13,,,,,,,,,12,,,,62,112
15129,note_on,60,0,4,,,,,,,,,3,,,,62,0
15129,note_on,0,0,4,,,,,,,,,3,,,,60,0
15129,note_on,0,0,4,,,,,,,,,3,,,,60,100
15129,note_on,0,0,4,,,,,,,,,3,,,,62,100
15132,note_on,0,0,14,,,,,,,,,13,,,,50,112
15132,note_on,120,0,14,,,,,,,,,13,,,,54,0
15134,note_on,120,0,15,,,,,,,,,14,,,,42,0
15134,note_on,0,0,15,,,,,,,,,14,,,,38,112
15185,note_on,0,0,3,,,,,,,,,2,,,,74,0
15185,note_on,60,0,3,,,,,,,,,2,,,,72,0
15189,note_on,0,0,4,,,,,,,,,3,,,,62,0
15189,note_on,60,0,4,,,,,,,,,3,,,,60,0
15245,note_on,0,0,3,,,,,,,,,2,,,,72,101
15245,note_on,60,0,3,,,,,,,,,2,,,,74,101
15249,note_on,60,0,4,,,,,,,,,3,,,,62,100
15249,note_on,0,0,4,,,,,,,,,3,,,,60,100
15305,note_on,0,0,3,,,,,,,,,2,,,,74,0
15305,note_on,60,0,3,,,,,,,,,2,,,,72,0
15309,note_on,0,0,4,,,,,,,,,3,,,,62,0
15309,note_on,60,0,4,,,,,,,,,3,,,,60,0
15360,note_on,0,0,11,,,,,,,,,10,,,,69,112
15360,note_on,240,0,11,,,,,,,,,10,,,,74,0
15360,set_tempo,240,1,0,,,,,,292683,,,,,,,,
15363,note_on,0,0,12,,,,,,,,,11,,,,69,112
15363,note_on,240,0,12,,,,,,,,,11,,,,74,0
15365,note_on,60,0,3,,,,,,,,,2,,,,74,101
15365,note_on,0,0,3,,,,,,,,,2,,,,72,101
15368,note_on,240,0,13,,,,,,,,,12,,,,62,0
15368,note_on,0,0,13,,,,,,,,,12,,,,57,112
15369,note_on,0,0,4,,,,,,,,,3,,,,60,100
15369,note_on,60,0,4,,,,,,,,,3,,,,62,100
15372,note_on,240,0,14,,,,,,,,,13,,,,50,0
15372,note_on,0,0,14,,,,,,,,,13,,,,45,112
15374,note_on,0,0,15,,,,,,,,,14,,,,33,112
15374,note_on,240,0,15,,,,,,,,,14,,,,38,0
15425,note_on,60,0,3,,,,,,,,,2,,,,72,0
15425,note_on,0,0,3,,,,,,,,,2,,,,74,0
15429,note_on,0,0,4,,,,,,,,,3,,,,62,0
15429,note_on,60,0,4,,,,,,,,,3,,,,60,0
15470,note_on,110,0,11,,,,,,,,,10,,,,69,0
15473,note_on,110,0,12,,,,,,,,,11,,,,69,0
15478,note_on,110,0,13,,,,,,,,,12,,,,57,0
15480,note_on,10,0,11,,,,,,,,,10,,,,66,112
15480,set_tempo,120,1,0,,,,,,263736,,,,,,,,
15482,note_on,110,0,14,,,,,,,,,13,,,,45,0
15483,note_on,10,0,12,,,,,,,,,11,,,,66,112
15484,note_on,0,0,2,,,,,,,,,1,,,,72,100
15484,note_on,0,0,2,,,,,,,,,1,,,,74,100
15484,control_change,4920,0,2,,,,,,,,,1,11,47,,,
15484,note_on,110,0,15,,,,,,,,,14,,,,33,0
15485,note_on,60,0,3,,,,,,,,,2,,,,74,116
15485,note_on,0,0,3,,,,,,,,,2,,,,72,116
15488,note_on,10,0,13,,,,,,,,,12,,,,54,112
15489,note_on,0,0,4,,,,,,,,,3,,,,60,115
15489,note_on,60,0,4,,,,,,,,,3,,,,62,115
15492,note_on,10,0,14,,,,,,,,,13,,,,42,112
15494,note_on,10,0,15,,,,,,,,,14,,,,30,112
15514,note_on,30,0,2,,,,,,,,,1,,,,74,0
15544,note_on,30,0,2,,,,,,,,,1,,,,74,100
15574,note_on,30,0,2,,,,,,,,,1,,,,74,0
15600,note_on,120,0,11,,,,,,,,,10,,,,66,0
15600,note_on,0,0,11,,,,,,,,,10,,,,69,112
15603,note_on,120,0,12,,,,,,,,,11,,,,66,0
15603,note_on,0,0,12,,,,,,,,,11,,,,69,112
15604,note_on,30,0,2,,,,,,,,,1,,,,76,100
15608,note_on,0,0,13,,,,,,,,,12,,,,57,112
15608,note_on,120,0,13,,,,,,,,,12,,,,54,0
15612,note_on,120,0,14,,,,,,,,,13,,,,42,0
15612,note_on,0,0,14,,,,,,,,,13,,,,45,112
15614,note_on,0,0,15,,,,,,,,,14,,,,33,112
15614,note_on,120,0,15,,,,,,,,,14,,,,30,0
15664,note_on,60,0,2,,,,,,,,,1,,,,76,0
15664,note_on,0,0,2,,,,,,,,,1,,,,74,100
15720,note_on,120,0,11,,,,,,,,,10,,,,69,0
15720,note_on,0,0,11,,,,,,,,,10,,,,73,112
15720,set_tempo,240,1,0,,,,,,292683,,,,,,,,
15723,note_on,0,0,12,,,,,,,,,11,,,,73,112
15723,note_on,120,0,12,,,,,,,,,11,,,,69,0
15724,note_on,60,0,2,,,,,,,,,1,,,,74,0
15724,note_on,0,0,2,,,,,,,,,1,,,,76,100
15728,note_on,120,0,13,,,,,,,,,12,,,,57,0
15728,note_on,0,0,13,,,,,,,,,12,,,,61,112
15732,note_on,0,0,14,,,,,,,,,13,,,,49,112
15732,note_on,120,0,14,,,,,,,,,13,,,,45,0
15734,note_on,0,0,15,,,,,,,,,14,,,,37,112
15734,note_on,120,0,15,,,,,,,,,14,,,,33,0
15784,note_on,60,0,2,,,,,,,,,1,,,,76,0
15784,note_on,0,0,2,,,,,,,,,1,,,,74,100
15840,note_on,120,0,11,,,,,,,,,10,,,,73,0
15840,note_on,0,0,11,,,,,,,,,10,,,,74,112
15840,set_tempo,120,1,0,,,,,,263736,,,,,,,,
15843,note_on,0,0,12,,,,,,,,,11,,,,74,112
15843,note_on,120,0,12,,,,,,,,,11,,,,73,0
15844,note_on,60,0,2,,,,,,,,,1,,,,74,0
15844,note_on,0,0,2,,,,,,,,,1,,,,74,100
15844,note_on,0,0,2,,,,,,,,,1,,,,72,100
15844,note_on,0,0,2,,,,,,,,,1,,,,72,0
15845,note_on,0,0,3,,,,,,,,,2,,,,72,116
15845,note_on,0,0,3,,,,,,,,,2,,,,74,116
15845,note_on,360,0,3,,,,,,,,,2,,,,72,0
15845,note_on,0,0,3,,,,,,,,,2,,,,74,0
15848,note_on,120,0,13,,,,,,,,,12,,,,61,0
15848,note_on,0,0,13,,,,,,,,,12,,,,62,112
15849,note_on,0,0,4,,,,,,,,,3,,,,62,0
15849,note_on,360,0,4,,,,,,,,,3,,,,60,0
15849,note_on,0,0,4,,,,,,,,,3,,,,62,115
15849,note_on,0,0,4,,,,,,,,,3,,,,60,115
15852,note_on,0,0,14,,,,,,,,,13,,,,50,112
15852,note_on,120,0,14,,,,,,,,,13,,,,49,0
15854,note_on,0,0,15,,,,,,,,,14,,,,38,112
15854,note_on,120,0,15,,,,,,,,,14,,,,37,0
15904,note_on,60,0,2,,,,,,,,,1,,,,72,0
15904,note_on,0,0,2,,,,,,,,,1,,,,74,0
15960,note_on,0,0,11,,,,,,,,,10,,,,78,112
15960,note_on,120,0,11,,,,,,,,,10,,,,74,0
15963,note_on,0,0,12,,,,,,,,,11,,,,78,112
15963,note_on,120,0,12,,,,,,,,,11,,,,74,0
15964,note_on,0,0,2,,,,,,,,,1,,,,72,100
15964,note_on,60,0,2,,,,,,,,,1,,,,74,100
15968,note_on,0,0,13,,,,,,,,,12,,,,66,112
15968,note_on,120,0,13,,,,,,,,,12,,,,62,0
15972,note_on,120,0,14,,,,,,,,,13,,,,50,0
15972,note_on,0,0,14,,,,,,,,,13,,,,54,112
15974,note_on,0,0,15,,,,,,,,,14,,,,42,112
15974,note_on,120,0,15,,,,,,,,,14,,,,38,0
16024,note_on,0,0,2,,,,,,,,,1,,,,74,0
16024,note_on,60,0,2,,,,,,,,,1,,,,72,0
16080,note_on,0,0,11,,,,,,,,,10,,,,80,112
16080,note_on,120,0,11,,,,,,,,,10,,,,78,0
16080,set_tempo,240,1,0,,,,,,315789,,,,,,,,
16083,note_on,0,0,12,,,,,,,,,11,,,,80,112
16083,note_on,120,0,12,,,,,,,,,11,,,,78,0
16084,note_on,0,0,2,,,,,,,,,1,,,,74,100
16084,note_on,60,0,2,,,,,,,,,1,,,,72,100
16088,note_on,0,0,13,,,,,,,,,12,,,,68,112
16088,note_on,120,0,13,,,,,,,,,12,,,,66,0
16092,note_on,120,0,14,,,,,,,,,13,,,,54,0
16092,note_on,0,0,14,,,,,,,,,13,,,,56,112
16094,note_on,0,0,15,,,,,,,,,14,,,,44,112
16094,note_on,120,0,15,,,,,,,,,14,,,,42,0
16144,note_on,0,0,2,,,,,,,,,1,,,,72,0
16144,note_on,60,0,2,,,,,,,,,1,,,,74,0
16190,note_on,110,0,11,,,,,,,,,10,,,,80,0
16193,note_on,110,0,12,,,,,,,,,11,,,,80,0
16198,note_on,110,0,13,,,,,,,,,12,,,,68,0
16200,set_tempo,120,1,0,,,,,,260870,,,,,,,,
16200,note_on,0,0,11,,,,,,,,,10,,,,81,127
16200,control_change,10,0,11,,,,,,,,,10,11,36,,,
16201,control_change,5640,0,1,,,,,,,,,0,11,55,,,
16201,note_on,0,0,1,,,,,,,,,0,,,,81,101
16201,note_on,0,0,1,,,,,,,,,0,,,,78,101
16202,note_on,110,0,14,,,,,,,,,13,,,,56,0
16203,control_change,10,0,12,,,,,,,,,11,11,36,,,
16203,note_on,0,0,12,,,,,,,,,11,,,,81,127
16204,control_change,60,0,2,,,,,,,,,1,11,47,,,
16204,note_on,0,0,2,,,,,,,,,1,,,,78,115
16204,note_on,0,0,2,,,,,,,,,1,,,,69,115
16204,note_on,110,0,15,,,,,,,,,14,,,,44,0
16205,note_on,0,0,3,,,,,,,,,2,,,,73,116
16205,note_on,0,0,3,,,,,,,,,2,,,,72,0
16205,note_on,360,0,3,,,,,,,,,2,,,,74,0
16205,control_change,0,0,3,,,,,,,,,2,11,42,,,
16208,control_change,10,0,13,,,,,,,,,12,11,36,,,
16208,note_on,0,0,13,,,,,,,,,12,,,,69,127
16209,note_on,0,0,4,,,,,,,,,3,,,,61,115
16209,control_change,0,0,4,,,,,,,,,3,11,42,,,
16209,note_on,0,0,4,,,,,,,,,3,,,,62,0
16209,note_on,360,0,4,,,,,,,,,3,,,,60,0
16212,note_on,0,0,14,,,,,,,,,13,,,,57,127
16212,control_change,10,0,14,,,,,,,,,13,11,36,,,
16214,control_change,10,0,15,,,,,,,,,14,11,36,,,
16214,note_on,0,0,15,,,,,,,,,14,,,,45,127
16224,control_change,24,0,11,,,,,,,,,10,11,38,,,
16227,control_change,24,0,12,,,,,,,,,11,11,38,,,
16231,note_on,30,0,1,,,,,,,,,0,,,,81,0
16232,control_change,24,0,13,,,,,,,,,12,11,38,,,
16236,control_change,24,0,14,,,,,,,,,13,11,38,,,
16238,control_change,24,0,15,,,,,,,,,14,11,38,,,
16242,control_change,37,0,3,,,,,,,,,2,11,43,,,
16245,control_change,14,0,1,,,,,,,,,0,11,56,,,
16246,control_change,37,0,4,,,,,,,,,3,11,43,,,
16248,control_change,44,0,2,,,,,,,,,1,11,48,,,
16248,control_change,24,0,11,,,,,,,,,10,11,40,,,
16251,control_change,24,0,12,,,,,,,,,11,11,40,,,
16256,control_change,24,0,13,,,,,,,,,12,11,40,,,
16260,control_change,24,0,14,,,,,,,,,13,11,40,,,
16261,note_on,16,0,1,,,,,,,,,0,,,,81,101
16262,control_change,24,0,15,,,,,,,,,14,11,40,,,
16280,control_change,38,0,3,,,,,,,,,2,11,44,,,
16284,control_change,38,0,4,,,,,,,,,3,11,44,,,
16289,control_change,28,0,1,,,,,,,,,0,11,57,,,
16291,note_on,2,0,1,,,,,,,,,0,,,,81,0
16292,control_change,44,0,2,,,,,,,,,1,11,49,,,
16318,control_change,38,0,3,,,,,,,,,2,11,45,,,
16321,note_on,30,0,1,,,,,,,,,0,,,,83,101
16322,control_change,38,0,4,,,,,,,,,3,11,45,,,
16333,control_change,12,0,1,,,,,,,,,0,11,58,,,
16336,control_change,44,0,2,,,,,,,,,1,11,50,,,
16355,control_change,37,0,3,,,,,,,,,2,11,46,,,
16359,control_change,37,0,4,,,,,,,,,3,11,46,,,
16377,control_change,44,0,1,,,,,,,,,0,11,58,,,
16380,control_change,44,0,2,,,,,,,,,1,11,51,,,
16381,note_on,4,0,1,,,,,,,,,0,,,,83,0
16381,note_on,0,0,1,,,,,,,,,0,,,,81,101
16393,control_change,38,0,3,,,,,,,,,2,11,47,,,
16397,control_change,38,0,4,,,,,,,,,3,11,47,,,
16421,control_change,40,0,1,,,,,,,,,0,11,59,,,
16424,control_change,44,0,2,,,,,,,,,1,11,52,,,
16431,control_change,38,0,3,,,,,,,,,2,11,48,,,
16435,control_change,38,0,4,,,,,,,,,3,11,48,,,
16440,note_on,192,0,11,,,,,,,,,10,,,,81,0
16440,set_tempo,240,1,0,,,,,,288462,,,,,,,,
16440,note_on,0,0,11,,,,,,,,,10,,,,78,112
16441,note_on,20,0,1,,,,,,,,,0,,,,81,0
16441,note_on,0,0,1,,,,,,,,,0,,,,83,101
16443,note_on,0,0,12,,,,,,,,,11,,,,78,112
16443,note_on,192,0,12,,,,,,,,,11,,,,81,0
16448,note_on,192,0,13,,,,,,,,,12,,,,69,0
16448,note_on,0,0,13,,,,,,,,,12,,,,66,112
16452,note_on,192,0,14,,,,,,,,,13,,,,57,0
16452,note_on,0,0,14,,,,,,,,,13,,,,54,112
16454,note_on,192,0,15,,,,,,,,,14,,,,45,0
16454,note_on,0,0,15,,,,,,,,,14,,,,42,112
16465,control_change,24,0,1,,,,,,,,,0,11,60,,,
16468,control_change,44,0,2,,,,,,,,,1,11,52,,,
16469,control_change,38,0,3,,,,,,,,,2,11,49,,,
16473,control_change,38,0,4,,,,,,,,,3,11,49,,,
16501,note_on,0,0,1,,,,,,,,,0,,,,81,101
16501,note_on,36,0,1,,,,,,,,,0,,,,83,0
16506,control_change,37,0,3,,,,,,,,,2,11,50,,,
16509,control_change,8,0,1,,,,,,,,,0,11,61,,,
16510,control_change,37,0,4,,,,,,,,,3,11,50,,,
16512,control_change,44,0,2,,,,,,,,,1,11,53,,,
16544,control_change,38,0,3,,,,,,,,,2,11,51,,,
16548,control_change,38,0,4,,,,,,,,,3,11,51,,,
16553,control_change,44,0,1,,,,,,,,,0,11,61,,,
16556,control_change,44,0,2,,,,,,,,,1,11,54,,,
16560,note_on,0,0,11,,,,,,,,,10,,,,73,112
16560,control_change,0,0,11,,,,,,,,,10,11,41,,,
16560,set_tempo,120,1,0,,,,,,260870,,,,,,,,
16560,note_on,120,0,11,,,,,,,,,10,,,,78,0
16561,note_on,0,0,1,,,,,,,,,0,,,,78,101
16561,note_on,0,0,1,,,,,,,,,0,,,,81,101
16561,note_on,0,0,1,,,,,,,,,0,,,,78,0
16561,note_on,8,0,1,,,,,,,,,0,,,,81,0
16563,note_on,0,0,12,,,,,,,,,11,,,,73,112
16563,note_on,120,0,12,,,,,,,,,11,,,,78,0
16563,control_change,0,0,12,,,,,,,,,11,11,41,,,
16564,note_on,0,0,2,,,,,,,,,1,,,,69,115
16564,note_on,0,0,2,,,,,,,,,1,,,,78,115
16564,note_on,0,0,2,,,,,,,,,1,,,,78,0
16564,note_on,8,0,2,,,,,,,,,1,,,,69,0
16565,note_on,0,0,3,,,,,,,,,2,,,,73,116
16565,note_on,21,0,3,,,,,,,,,2,,,,73,0
16568,note_on,0,0,13,,,,,,,,,12,,,,61,112
16568,note_on,120,0,13,,,,,,,,,12,,,,66,0
16568,control_change,0,0,13,,,,,,,,,12,11,41,,,
16569,note_on,21,0,4,,,,,,,,,3,,,,61,0
16569,note_on,0,0,4,,,,,,,,,3,,,,66,100
16569,note_on,0,0,4,,,,,,,,,3,,,,61,100
16572,note_on,0,0,14,,,,,,,,,13,,,,49,112
16572,note_on,120,0,14,,,,,,,,,13,,,,54,0
16572,control_change,0,0,14,,,,,,,,,13,11,41,,,
16574,control_change,0,0,15,,,,,,,,,14,11,41,,,
16574,note_on,120,0,15,,,,,,,,,14,,,,42,0
16574,note_on,0,0,15,,,,,,,,,14,,,,37,112
16582,control_change,17,0,3,,,,,,,,,2,11,52,,,
16584,control_change,24,0,11,,,,,,,,,10,11,42,,,
16586,control_change,17,0,4,,,,,,,,,3,11,52,,,
16587,control_change,24,0,12,,,,,,,,,11,11,42,,,
16592,control_change,24,0,13,,,,,,,,,12,11,42,,,
16596,control_change,24,0,14,,,,,,,,,13,11,42,,,
16597,control_change,36,0,1,,,,,,,,,0,11,62,,,
16598,control_change,24,0,15,,,,,,,,,14,11,42,,,
16600,control_change,36,0,2,,,,,,,,,1,11,55,,,
16608,control_change,24,0,11,,,,,,,,,10,11,42,,,
16611,control_change,24,0,12,,,,,,,,,11,11,42,,,
16616,control_change,24,0,13,,,,,,,,,12,11,42,,,
16619,control_change,37,0,3,,,,,,,,,2,11,52,,,
16620,control_change,24,0,14,,,,,,,,,13,11,42,,,
16621,note_on,24,0,1,,,,,,,,,0,,,,78,0
16621,note_on,0,0,1,,,,,,,,,0,,,,81,0
16622,control_change,24,0,15,,,,,,,,,14,11,42,,,
16623,control_change,37,0,4,,,,,,,,,3,11,53,,,
16629,note_on,6,0,4,,,,,,,,,3,,,,61,0
16629,note_on,0,0,4,,,,,,,,,3,,,,66,0
16632,control_change,24,0,11,,,,,,,,,10,11,43,,,
16635,control_change,24,0,12,,,,,,,,,11,11,43,,,
16640,control_change,24,0,13,,,,,,,,,12,11,43,,,
16641,control_change,20,0,1,,,,,,,,,0,11,63,,,
16644,control_change,24,0,14,,,,,,,,,13,11,43,,,
16644,control_change,44,0,2,,,,,,,,,1,11,55,,,
16646,control_change,24,0,15,,,,,,,,,14,11,43,,,
16656,control_change,24,0,11,,,,,,,,,10,11,44,,,
16657,control_change,38,0,3,,,,,,,,,2,11,53,,,
16659,control_change,24,0,12,,,,,,,,,11,11,44,,,
16661,control_change,32,0,4,,,,,,,,,3,11,54,,,
16664,control_change,24,0,13,,,,,,,,,12,11,44,,,
16668,control_change,24,0,14,,,,,,,,,13,11,44,,,
16670,control_change,24,0,15,,,,,,,,,14,11,44,,,
16680,control_change,24,0,11,,,,,,,,,10,11,45,,,
16681,note_on,0,0,1,,,,,,,,,0,,,,78,101
16681,note_on,40,0,1,,,,,,,,,0,,,,81,101
16683,control_change,24,0,12,,,,,,,,,11,11,45,,,
16685,control_change,4,0,1,,,,,,,,,0,11,64,,,
16688,control_change,44,0,2,,,,,,,,,1,11,56,,,
16688,control_change,24,0,13,,,,,,,,,12,11,45,,,
16689,note_on,0,0,4,,,,,,,,,3,,,,61,100
16689,note_on,28,0,4,,,,,,,,,3,,,,66,100
16692,control_change,24,0,14,,,,,,,,,13,11,45,,,
16694,control_change,24,0,15,,,,,,,,,14,11,45,,,
16695,control_change,38,0,3,,,,,,,,,2,11,54,,,
16699,control_change,10,0,4,,,,,,,,,3,11,55,,,
16704,control_change,24,0,11,,,,,,,,,10,11,46,,,
16707,control_change,24,0,12,,,,,,,,,11,11,46,,,
16712,control_change,24,0,13,,,,,,,,,12,11,46,,,
16716,control_change,24,0,14,,,,,,,,,13,11,46,,,
16718,control_change,24,0,15,,,,,,,,,14,11,46,,,
16728,control_change,24,0,11,,,,,,,,,10,11,47,,,
16729,control_change,44,0,1,,,,,,,,,0,11,64,,,
16731,control_change,24,0,12,,,,,,,,,11,11,47,,,
16732,control_change,44,0,2,,,,,,,,,1,11,57,,,
16733,control_change,38,0,3,,,,,,,,,2,11,55,,,
16736,control_change,24,0,13,,,,,,,,,12,11,47,,,
16737,control_change,38,0,4,,,,,,,,,3,11,56,,,
16740,control_change,24,0,14,,,,,,,,,13,11,47,,,
16741,note_on,12,0,1,,,,,,,,,0,,,,78,0
16741,note_on,0,0,1,,,,,,,,,0,,,,81,0
16742,control_change,24,0,15,,,,,,,,,14,11,47,,,
16749,note_on,12,0,4,,,,,,,,,3,,,,61,0
16749,note_on,0,0,4,,,,,,,,,3,,,,66,0
16752,control_change,24,0,11,,,,,,,,,10,11,48,,,
16755,control_change,24,0,12,,,,,,,,,11,11,48,,,
16760,control_change,24,0,13,,,,,,,,,12,11,48,,,
16764,control_change,24,0,14,,,,,,,,,13,11,48,,,
16766,control_change,24,0,15,,,,,,,,,14,11,48,,,
16770,control_change,37,0,3,,,,,,,,,2,11,55,,,
16773,control_change,32,0,1,,,,,,,,,0,11,65,,,
16774,control_change,25,0,4,,,,,,,,,3,11,57,,,
16776,control_change,24,0,11,,,,,,,,,10,11,49,,,
16776,control_change,44,0,2,,,,,,,,,1,11,58,,,
16779,control_change,24,0,12,,,,,,,,,11,11,49,,,
16784,control_change,24,0,13,,,,,,,,,12,11,49,,,
16788,control_change,24,0,14,,,,,,,,,13,11,49,,,
16790,control_change,24,0,15,,,,,,,,,14,11,49,,,
16800,note_on,0,0,11,,,,,,,,,10,,,,69,112
16800,control_change,0,0,11,,,,,,,,,10,11,50,,,
16800,note_on,24,0,11,,,,,,,,,10,,,,73,0
16800,set_tempo,240,1,0,,,,,,288462,,,,,,,,
16801,note_on,28,0,1,,,,,,,,,0,,,,81,101
16801,note_on,0,0,1,,,,,,,,,0,,,,78,101
16803,control_change,0,0,12,,,,,,,,,11,11,50,,,
16803,note_on,0,0,12,,,,,,,,,11,,,,69,112
16803,note_on,24,0,12,,,,,,,,,11,,,,73,0
16808,note_on,24,0,13,,,,,,,,,12,,,,61,0
16808,control_change,0,0,13,,,,,,,,,12,11,50,,,
16808,control_change,38,0,3,,,,,,,,,2,11,56,,,
16808,note_on,0,0,13,,,,,,,,,12,,,,57,112
16809,note_on,35,0,4,,,,,,,,,3,,,,66,100
16809,note_on,0,0,4,,,,,,,,,3,,,,61,100
16812,control_change,3,0,4,,,,,,,,,3,11,58,,,
16812,control_change,0,0,14,,,,,,,,,13,11,50,,,
16812,note_on,24,0,14,,,,,,,,,13,,,,49,0
16812,note_on,0,0,14,,,,,,,,,13,,,,45,112
16814,note_on,0,0,15,,,,,,,,,14,,,,33,112
16814,control_change,0,0,15,,,,,,,,,14,11,50,,,
16814,note_on,24,0,15,,,,,,,,,14,,,,37,0
16817,control_change,16,0,1,,,,,,,,,0,11,66,,,
16820,control_change,44,0,2,,,,,,,,,1,11,58,,,
16824,control_change,24,0,11,,,,,,,,,10,11,51,,,
16827,control_change,24,0,12,,,,,,,,,11,11,51,,,
16832,control_change,24,0,13,,,,,,,,,12,11,51,,,
16836,control_change,24,0,14,,,,,,,,,13,11,51,,,
16838,control_change,24,0,15,,,,,,,,,14,11,51,,,
16846,control_change,38,0,3,,,,,,,,,2,11,57,,,
16848,control_change,24,0,11,,,,,,,,,10,11,52,,,
16850,control_change,38,0,4,,,,,,,,,3,11,59,,,
16851,control_change,24,0,12,,,,,,,,,11,11,52,,,
16856,control_change,24,0,13,,,,,,,,,12,11,52,,,
16860,control_change,24,0,14,,,,,,,,,13,11,52,,,
16861,note_on,44,0,1,,,,,,,,,0,,,,78,0
16861,note_on,0,0,1,,,,,,,,,0,,,,81,0
16861,control_change,0,0,1,,,,,,,,,0,11,67,,,
16862,control_change,24,0,15,,,,,,,,,14,11,52,,,
16864,control_change,44,0,2,,,,,,,,,1,11,59,,,
16869,note_on,0,0,4,,,,,,,,,3,,,,66,0
16869,note_on,19,0,4,,,,,,,,,3,,,,61,0
16872,control_change,24,0,11,,,,,,,,,10,11,53,,,
16875,control_change,24,0,12,,,,,,,,,11,11,53,,,
16880,control_change,24,0,13,,,,,,,,,12,11,53,,,
16883,control_change,37,0,3,,,,,,,,,2,11,58,,,
16884,control_change,24,0,14,,,,,,,,,13,11,53,,,
16886,control_change,24,0,15,,,,,,,,,14,11,53,,,
16887,control_change,18,0,4,,,,,,,,,3,11,60,,,
16896,control_change,24,0,11,,,,,,,,,10,11,54,,,
16899,control_change,24,0,12,,,,,,,,,11,11,54,,,
16904,control_change,24,0,13,,,,,,,,,12,11,54,,,
16905,control_change,44,0,1,,,,,,,,,0,11,67,,,
16908,control_change,44,0,2,,,,,,,,,1,11,60,,,
16908,control_change,24,0,14,,,,,,,,,13,11,54,,,
16910,note_on,14,0,11,,,,,,,,,10,,,,69,0
16910,control_change,24,0,15,,,,,,,,,14,11,54,,,
16913,note_on,14,0,12,,,,,,,,,11,,,,69,0
16918,note_on,14,0,13,,,,,,,,,12,,,,57,0
16920,set_tempo,120,1,0,,,,,,260870,,,,,,,,
16920,control_change,10,0,11,,,,,,,,,10,11,55,,,
16920,note_on,0,0,11,,,,,,,,,10,,,,66,112
16921,control_change,38,0,3,,,,,,,,,2,11,58,,,
16921,note_on,16,0,1,,,,,,,,,0,,,,81,101
16921,note_on,0,0,1,,,,,,,,,0,,,,78,101
16922,note_on,14,0,14,,,,,,,,,13,,,,45,0
16923,control_change,10,0,12,,,,,,,,,11,11,55,,,
16923,note_on,0,0,12,,,,,,,,,11,,,,66,112
16924,note_on,14,0,15,,,,,,,,,14,,,,33,0
16924,note_on,0,0,2,,,,,,,,,1,,,,78,0
16924,note_on,0,0,2,,,,,,,,,1,,,,78,100
16924,note_on,16,0,2,,,,,,,,,1,,,,69,0
16924,note_on,0,0,2,,,,,,,,,1,,,,81,100
16925,note_on,0,0,3,,,,,,,,,2,,,,73,116
16925,note_on,4,0,3,,,,,,,,,2,,,,73,0
16925,note_on,0,0,3,,,,,,,,,2,,,,69,116
16925,control_change,38,0,4,,,,,,,,,3,11,61,,,
16928,control_change,10,0,13,,,,,,,,,12,11,55,,,
16928,note_on,0,0,13,,,,,,,,,12,,,,54,112
16929,note_on,4,0,4,,,,,,,,,3,,,,66,100
16929,note_on,0,0,4,,,,,,,,,3,,,,61,100
16932,control_change,10,0,14,,,,,,,,,13,11,55,,,
16932,note_on,0,0,14,,,,,,,,,13,,,,42,112
16934,note_on,0,0,15,,,,,,,,,14,,,,30,112
16934,control_change,10,0,15,,,,,,,,,14,11,55,,,
16944,control_change,24,0,11,,,,,,,,,10,11,56,,,
16947,control_change,24,0,12,,,,,,,,,11,11,56,,,
16949,control_change,28,0,1,,,,,,,,,0,11,68,,,
16952,control_change,28,0,2,,,,,,,,,1,11,61,,,
16952,control_change,24,0,13,,,,,,,,,12,11,56,,,
16954,note_on,2,0,2,,,,,,,,,1,,,,81,0
16956,control_change,24,0,14,,,,,,,,,13,11,56,,,
16958,control_change,24,0,15,,,,,,,,,14,11,56,,,
16959,control_change,34,0,3,,,,,,,,,2,11,59,,,
16963,control_change,34,0,4,,,,,,,,,3,11,62,,,
16968,control_change,24,0,11,,,,,,,,,10,11,57,,,
16971,control_change,24,0,12,,,,,,,,,11,11,57,,,
16976,control_change,24,0,13,,,,,,,,,12,11,57,,,
16980,control_change,24,0,14,,,,,,,,,13,11,57,,,
16982,control_change,24,0,15,,,,,,,,,14,11,57,,,
16984,note_on,30,0,2,,,,,,,,,1,,,,81,100
16992,control_change,24,0,11,,,,,,,,,10,11,57,,,
16993,control_change,44,0,1,,,,,,,,,0,11,69,,,
16995,control_change,24,0,12,,,,,,,,,11,11,57,,,
16996,control_change,12,0,2,,,,,,,,,1,11,61,,,
16997,control_change,38,0,3,,,,,,,,,2,11,60,,,
17000,control_change,24,0,13,,,,,,,,,12,11,57,,,
17001,control_change,38,0,4,,,,,,,,,3,11,63,,,
17004,control_change,24,0,14,,,,,,,,,13,11,57,,,
17006,control_change,24,0,15,,,,,,,,,14,11,57,,,
17014,note_on,18,0,2,,,,,,,,,1,,,,81,0
17016,control_change,24,0,11,,,,,,,,,10,11,58,,,
17019,control_change,24,0,12,,,,,,,,,11,11,58,,,
17024,control_change,24,0,13,,,,,,,,,12,11,58,,,
17028,control_change,24,0,14,,,,,,,,,13,11,58,,,
17030,control_change,24,0,15,,,,,,,,,14,11,58,,,
17034,control_change,37,0,3,,,,,,,,,2,11,61,,,
17037,control_change,44,0,1,,,,,,,,,0,11,70,,,
17038,control_change,37,0,4,,,,,,,,,3,11,64,,,
17040,note_on,0,0,11,,,,,,,,,10,,,,69,112
17040,control_change,26,0,2,,,,,,,,,1,11,62,,,
17040,note_on,24,0,11,,,,,,,,,10,,,,66,0
17040,control_change,0,0,11,,,,,,,,,10,11,59,,,
17043,control_change,0,0,12,,,,,,,,,11,11,59,,,
17043,note_on,24,0,12,,,,,,,,,11,,,,66,0
17043,note_on,0,0,12,,,,,,,,,11,,,,69,112
17044,note_on,4,0,2,,,,,,,,,1,,,,83,100
17048,note_on,24,0,13,,,,,,,,,12,,,,54,0
17048,control_change,0,0,13,,,,,,,,,12,11,59,,,
17048,note_on,0,0,13,,,,,,,,,12,,,,57,112
17052,note_on,24,0,14,,,,,,,,,13,,,,42,0
17052,control_change,0,0,14,,,,,,,,,13,11,59,,,
17052,note_on,0,0,14,,,,,,,,,13,,,,45,112
17054,note_on,24,0,15,,,,,,,,,14,,,,30,0
17054,note_on,0,0,15,,,,,,,,,14,,,,33,112
17054,control_change,0,0,15,,,,,,,,,14,11,59,,,
17064,control_change,24,0,11,,,,,,,,,10,11,60,,,
17067,control_change,24,0,12,,,,,,,,,11,11,60,,,
17072,control_change,24,0,13,,,,,,,,,12,11,60,,,
17072,control_change,38,0,3,,,,,,,,,2,11,61,,,
17076,control_change,24,0,14,,,,,,,,,13,11,60,,,
17076,control_change,38,0,4,,,,,,,,,3,11,65,,,
17078,control_change,24,0,15,,,,,,,,,14,11,60,,,
17081,control_change,44,0,1,,,,,,,,,0,11,70,,,
17084,control_change,40,0,2,,,,,,,,,1,11,63,,,
17088,control_change,24,0,11,,,,,,,,,10,11,61,,,
17091,control_change,24,0,12,,,,,,,,,11,11,61,,,
17096,control_change,24,0,13,,,,,,,,,12,11,61,,,
17100,control_change,24,0,14,,,,,,,,,13,11,61,,,
17102,control_change,24,0,15,,,,,,,,,14,11,61,,,
17104,note_on,20,0,2,,,,,,,,,1,,,,83,0
17104,note_on,0,0,2,,,,,,,,,1,,,,81,100
17110,control_change,38,0,3,,,,,,,,,2,11,62,,,
17112,control_change,24,0,11,,,,,,,,,10,11,62,,,
17114,control_change,38,0,4,,,,,,,,,3,11,66,,,
17115,control_change,24,0,12,,,,,,,,,11,11,62,,,
17120,control_change,24,0,13,,,,,,,,,12,11,62,,,
17124,control_change,24,0,14,,,,,,,,,13,11,62,,,
17125,control_change,44,0,1,,,,,,,,,0,11,71,,,
17126,control_change,24,0,15,,,,,,,,,14,11,62,,,
17128,control_change,24,0,2,,,,,,,,,1,11,64,,,
17136,control_change,24,0,11,,,,,,,,,10,11,63,,,
17139,control_change,24,0,12,,,,,,,,,11,11,63,,,
17144,control_change,24,0,13,,,,,,,,,12,11,63,,,
17147,control_change,37,0,3,,,,,,,,,2,11,63,,,
17148,control_change,24,0,14,,,,,,,,,13,11,63,,,
17150,control_change,24,0,15,,,,,,,,,14,11,63,,,
17151,control_change,37,0,4,,,,,,,,,3,11,67,,,
17160,set_tempo,240,1,0,,,,,,288462,,,,,,,,
17160,note_on,0,0,11,,,,,,,,,10,,,,73,112
17160,note_on,24,0,11,,,,,,,,,10,,,,69,0
17160,control_change,0,0,11,,,,,,,,,10,11,64,,,
17163,control_change,0,0,12,,,,,,,,,11,11,64,,,
17163,note_on,24,0,12,,,,,,,,,11,,,,69,0
17163,note_on,0,0,12,,,,,,,,,11,,,,73,112
17164,note_on,36,0,2,,,,,,,,,1,,,,81,0
17164,note_on,0,0,2,,,,,,,,,1,,,,83,100
17168,note_on,0,0,13,,,,,,,,,12,,,,61,112
17168,control_change,0,0,13,,,,,,,,,12,11,64,,,
17168,note_on,24,0,13,,,,,,,,,12,,,,57,0
17169,control_change,44,0,1,,,,,,,,,0,11,72,,,
17172,control_change,8,0,2,,,,,,,,,1,11,64,,,
17172,note_on,24,0,14,,,,,,,,,13,,,,45,0
17172,control_change,0,0,14,,,,,,,,,13,11,64,,,
17172,note_on,0,0,14,,,,,,,,,13,,,,49,112
17174,note_on,24,0,15,,,,,,,,,14,,,,33,0
17174,control_change,0,0,15,,,,,,,,,14,11,64,,,
17174,note_on,0,0,15,,,,,,,,,14,,,,37,112
17184,control_change,24,0,11,,,,,,,,,10,11,65,,,
17185,control_change,38,0,3,,,,,,,,,2,11,64,,,
17187,control_change,24,0,12,,,,,,,,,11,11,65,,,
17189,control_change,38,0,4,,,,,,,,,3,11,68,,,
17192,control_change,24,0,13,,,,,,,,,12,11,65,,,
17196,control_change,24,0,14,,,,,,,,,13,11,65,,,
17198,control_change,24,0,15,,,,,,,,,14,11,65,,,
17208,control_change,24,0,11,,,,,,,,,10,11,66,,,
17211,control_change,24,0,12,,,,,,,,,11,11,66,,,
17213,control_change,44,0,1,,,,,,,,,0,11,73,,,
17216,control_change,44,0,2,,,,,,,,,1,11,65,,,
17216,control_change,24,0,13,,,,,,,,,12,11,66,,,
17220,control_change,24,0,14,,,,,,,,,13,11,66,,,
17222,control_change,24,0,15,,,,,,,,,14,11,66,,,
17223,control_change,38,0,3,,,,,,,,,2,11,64,,,
17224,note_on,0,0,2,,,,,,,,,1,,,,81,100
17224,note_on,8,0,2,,,,,,,,,1,,,,83,0
17227,control_change,38,0,4,,,,,,,,,3,11,69,,,
17232,control_change,24,0,11,,,,,,,,,10,11,67,,,
17235,control_change,24,0,12,,,,,,,,,11,11,67,,,
17240,control_change,24,0,13,,,,,,,,,12,11,67,,,
17244,control_change,24,0,14,,,,,,,,,13,11,67,,,
17246,control_change,24,0,15,,,,,,,,,14,11,67,,,
17256,control_change,24,0,11,,,,,,,,,10,11,68,,,
17257,control_change,44,0,1,,,,,,,,,0,11,73,,,
17259,control_change,24,0,12,,,,,,,,,11,11,68,,,
17260,control_change,36,0,2,,,,,,,,,1,11,66,,,
17261,control_change,38,0,3,,,,,,,,,2,11,65,,,
17264,control_change,24,0,13,,,,,,,,,12,11,68,,,
17265,control_change,38,0,4,,,,,,,,,3,11,70,,,
17268,control_change,24,0,14,,,,,,,,,13,11,68,,,
17270,control_change,24,0,15,,,,,,,,,14,11,68,,,
17280,note_on,24,0,11,,,,,,,,,10,,,,73,0
17280,set_tempo,120,1,0,,,,,,260870,,,,,,,,
17280,note_on,0,0,11,,,,,,,,,10,,,,78,112
17280,control_change,0,0,11,,,,,,,,,10,11,69,,,
17281,note_on,0,0,1,,,,,,,,,0,,,,81,116
17281,note_on,0,0,1,,,,,,,,,0,,,,81,0
17281,note_on,24,0,1,,,,,,,,,0,,,,78,0
17281,note_on,0,0,1,,,,,,,,,0,,,,78,116
17283,control_change,0,0,12,,,,,,,,,11,11,69,,,
17283,note_on,24,0,12,,,,,,,,,11,,,,73,0
17283,note_on,0,0,12,,,,,,,,,11,,,,78,112
17284,note_on,0,0,2,,,,,,,,,1,,,,78,0
17284,note_on,0,0,2,,,,,,,,,1,,,,78,100
17284,note_on,0,0,2,,,,,,,,,1,,,,81,100
17284,note_on,24,0,2,,,,,,,,,1,,,,81,0
17285,note_on,0,0,3,,,,,,,,,2,,,,73,116
17285,note_on,24,0,3,,,,,,,,,2,,,,73,0
17285,note_on,0,0,3,,,,,,,,,2,,,,69,0
17285,note_on,0,0,3,,,,,,,,,2,,,,69,116
17288,control_change,0,0,13,,,,,,,,,12,11,69,,,
17288,note_on,24,0,13,,,,,,,,,12,,,,61,0
17288,note_on,0,0,13,,,,,,,,,12,,,,66,112
17289,note_on,0,0,4,,,,,,,,,3,,,,66,100
17289,note_on,0,0,4,,,,,,,,,3,,,,66,0
17289,note_on,24,0,4,,,,,,,,,3,,,,61,0
17289,note_on,0,0,4,,,,,,,,,3,,,,61,100
17292,note_on,24,0,14,,,,,,,,,13,,,,49,0
17292,control_change,0,0,14,,,,,,,,,13,11,69,,,
17292,note_on,0,0,14,,,,,,,,,13,,,,54,112
17294,note_on,0,0,15,,,,,,,,,14,,,,42,112
17294,control_change,0,0,15,,,,,,,,,14,11,69,,,
17294,note_on,24,0,15,,,,,,,,,14,,,,37,0
17298,control_change,13,0,3,,,,,,,,,2,11,66,,,
17301,control_change,20,0,1,,,,,,,,,0,11,74,,,
17302,control_change,13,0,4,,,,,,,,,3,11,71,,,
17304,control_change,24,0,11,,,,,,,,,10,11,70,,,
17304,control_change,20,0,2,,,,,,,,,1,11,67,,,
17307,control_change,24,0,12,,,,,,,,,11,11,70,,,
17312,control_change,24,0,13,,,,,,,,,12,11,70,,,
17316,control_change,24,0,14,,,,,,,,,13,11,70,,,
17318,control_change,24,0,15,,,,,,,,,14,11,70,,,
17328,control_change,24,0,11,,,,,,,,,10,11,71,,,
17331,control_change,24,0,12,,,,,,,,,11,11,71,,,
17336,control_change,38,0,3,,,,,,,,,2,11,67,,,
17336,control_change,24,0,13,,,,,,,,,12,11,71,,,
17340,control_change,38,0,4,,,,,,,,,3,11,72,,,
17340,control_change,24,0,14,,,,,,,,,13,11,71,,,
17342,control_change,24,0,15,,,,,,,,,14,11,71,,,
17344,note_on,40,0,2,,,,,,,,,1,,,,78,0
17344,note_on,0,0,2,,,,,,,,,1,,,,81,0
17345,control_change,44,0,1,,,,,,,,,0,11,75,,,
17348,control_change,4,0,2,,,,,,,,,1,11,67,,,
17349,note_on,0,0,4,,,,,,,,,3,,,,66,0
17349,note_on,9,0,4,,,,,,,,,3,,,,61,0
17352,control_change,24,0,11,,,,,,,,,10,11,72,,,
17355,control_change,24,0,12,,,,,,,,,11,11,72,,,
17360,control_change,24,0,13,,,,,,,,,12,11,72,,,
17364,control_change,24,0,14,,,,,,,,,13,11,72,,,
17366,control_change,24,0,15,,,,,,,,,14,11,72,,,
17374,control_change,38,0,3,,,,,,,,,2,11,67,,,
17376,control_change,24,0,11,,,,,,,,,10,11,72,,,
17378,control_change,29,0,4,,,,,,,,,3,11,73,,,
17379,control_change,24,0,12,,,,,,,,,11,11,72,,,
17384,control_change,24,0,13,,,,,,,,,12,11,72,,,
17388,control_change,24,0,14,,,,,,,,,13,11,72,,,
17389,control_change,44,0,1,,,,,,,,,0,11,76,,,
17390,control_change,24,0,15,,,,,,,,,14,11,72,,,
17392,control_change,44,0,2,,,,,,,,,1,11,68,,,
17400,note_on,0,0,11,,,,,,,,,10,,,,81,112
17400,control_change,0,0,11,,,,,,,,,10,11,73,,,
17400,note_on,24,0,11,,,,,,,,,10,,,,78,0
17403,note_on,24,0,12,,,,,,,,,11,,,,78,0
17403,control_change,0,0,12,,,,,,,,,11,11,73,,,
17403,note_on,0,0,12,,,,,,,,,11,,,,81,112
17404,note_on,0,0,2,,,,,,,,,1,,,,78,100
17404,note_on,12,0,2,,,,,,,,,1,,,,81,100
17408,control_change,0,0,13,,,,,,,,,12,11,73,,,
17408,note_on,24,0,13,,,,,,,,,12,,,,66,0
17408,note_on,0,0,13,,,,,,,,,12,,,,69,112
17409,note_on,31,0,4,,,,,,,,,3,,,,66,100
17409,note_on,0,0,4,,,,,,,,,3,,,,61,100
17411,control_change,37,0,3,,,,,,,,,2,11,68,,,
17412,control_change,0,0,14,,,,,,,,,13,11,73,,,
17412,note_on,24,0,14,,,,,,,,,13,,,,54,0
17412,note_on,0,0,14,,,,,,,,,13,,,,57,112
17414,note_on,0,0,15,,,,,,,,,14,,,,45,112
17414,note_on,24,0,15,,,,,,,,,14,,,,42,0
17414,control_change,0,0,15,,,,,,,,,14,11,73,,,
17415,control_change,6,0,4,,,,,,,,,3,11,74,,,
17424,control_change,24,0,11,,,,,,,,,10,11,74,,,
17427,control_change,24,0,12,,,,,,,,,11,11,74,,,
17432,control_change,24,0,13,,,,,,,,,12,11,74,,,
17433,control_change,44,0,1,,,,,,,,,0,11,76,,,
17436,control_change,32,0,2,,,,,,,,,1,11,69,,,
17436,control_change,24,0,14,,,,,,,,,13,11,74,,,
17438,control_change,24,0,15,,,,,,,,,14,11,74,,,
17448,control_change,24,0,11,,,,,,,,,10,11,75,,,
17449,control_change,38,0,3,,,,,,,,,2,11,69,,,
17451,control_change,24,0,12,,,,,,,,,11,11,75,,,
17453,control_change,38,0,4,,,,,,,,,3,11,75,,,
17456,control_change,24,0,13,,,,,,,,,12,11,75,,,
17460,control_change,24,0,14,,,,,,,,,13,11,75,,,
17462,control_change,24,0,15,,,,,,,,,14,11,75,,,
17464,note_on,0,0,2,,,,,,,,,1,,,,81,0
17464,note_on,28,0,2,,,,,,,,,1,,,,78,0
17469,note_on,0,0,4,,,,,,,,,3,,,,66,0
17469,note_on,16,0,4,,,,,,,,,3,,,,61,0
17472,control_change,24,0,11,,,,,,,,,10,11,76,,,
17475,control_change,24,0,12,,,,,,,,,11,11,76,,,
17477,control_change,44,0,1,,,,,,,,,0,11,77,,,
17480,control_change,16,0,2,,,,,,,,,1,11,70,,,
17480,control_change,24,0,13,,,,,,,,,12,11,76,,,
17484,control_change,24,0,14,,,,,,,,,13,11,76,,,
17486,control_change,24,0,15,,,,,,,,,14,11,76,,,
17487,control_change,38,0,3,,,,,,,,,2,11,70,,,
17491,control_change,22,0,4,,,,,,,,,3,11,76,,,
17496,control_change,24,0,11,,,,,,,,,10,11,77,,,
17499,control_change,24,0,12,,,,,,,,,11,11,77,,,
17504,control_change,24,0,13,,,,,,,,,12,11,77,,,
17508,control_change,24,0,14,,,,,,,,,13,11,77,,,
17510,control_change,24,0,15,,,,,,,,,14,11,77,,,
17520,control_change,0,0,11,,,,,,,,,10,11,78,,,
17520,note_on,24,0,11,,,,,,,,,10,,,,81,0
17520,set_tempo,240,1,0,,,,,,300752,,,,,,,,
17520,note_on,0,0,11,,,,,,,,,10,,,,85,112
17521,control_change,44,0,1,,,,,,,,,0,11,78,,,
17523,note_on,0,0,12,,,,,,,,,11,,,,85,112
17523,control_change,0,0,12,,,,,,,,,11,11,78,,,
17523,note_on,24,0,12,,,,,,,,,11,,,,81,0
17524,note_on,0,0,2,,,,,,,,,1,,,,81,100
17524,control_change,44,0,2,,,,,,,,,1,11,70,,,
17524,note_on,0,0,2,,,,,,,,,1,,,,78,100
17525,control_change,38,0,3,,,,,,,,,2,11,70,,,
17528,note_on,24,0,13,,,,,,,,,12,,,,69,0
17528,note_on,0,0,13,,,,,,,,,12,,,,73,112
17528,control_change,0,0,13,,,,,,,,,12,11,78,,,
17529,control_change,38,0,4,,,,,,,,,3,11,77,,,
17529,note_on,0,0,4,,,,,,,,,3,,,,66,100
17529,note_on,0,0,4,,,,,,,,,3,,,,61,100
17532,note_on,24,0,14,,,,,,,,,13,,,,57,0
17532,note_on,0,0,14,,,,,,,,,13,,,,61,112
17532,control_change,0,0,14,,,,,,,,,13,11,78,,,
17534,note_on,24,0,15,,,,,,,,,14,,,,45,0
17534,note_on,0,0,15,,,,,,,,,14,,,,49,112
17534,control_change,0,0,15,,,,,,,,,14,11,78,,,
17544,control_change,24,0,11,,,,,,,,,10,11,79,,,
17547,control_change,24,0,12,,,,,,,,,11,11,79,,,
17552,control_change,24,0,13,,,,,,,,,12,11,79,,,
17556,control_change,24,0,14,,,,,,,,,13,11,79,,,
17558,control_change,24,0,15,,,,,,,,,14,11,79,,,
17568,control_change,24,0,11,,,,,,,,,10,11,80,,,
17571,control_change,24,0,12,,,,,,,,,11,11,80,,,
17576,control_change,24,0,13,,,,,,,,,12,11,80,,,
17580,control_change,24,0,14,,,,,,,,,13,11,80,,,
17582,control_change,24,0,15,,,,,,,,,14,11,80,,,
17584,note_on,0,0,2,,,,,,,,,1,,,,81,0
17584,note_on,60,0,2,,,,,,,,,1,,,,78,0
17589,note_on,0,0,4,,,,,,,,,3,,,,66,0
17589,note_on,60,0,4,,,,,,,,,3,,,,61,0
17592,control_change,24,0,11,,,,,,,,,10,11,81,,,
17595,control_change,24,0,12,,,,,,,,,11,11,81,,,
17600,control_change,24,0,13,,,,,,,,,12,11,81,,,
17604,control_change,24,0,14,,,,,,,,,13,11,81,,,
17606,control_change,24,0,15,,,,,,,,,14,11,81,,,
17616,control_change,24,0,11,,,,,,,,,10,11,82,,,
17619,control_change,24,0,12,,,,,,,,,11,11,82,,,
17624,control_change,24,0,13,,,,,,,,,12,11,82,,,
17628,control_change,24,0,14,,,,,,,,,13,11,82,,,
17630,note_on,14,0,11,,,,,,,,,10,,,,85,0
17630,control_change,24,0,15,,,,,,,,,14,11,82,,,
17633,note_on,14,0,12,,,,,,,,,11,,,,85,0
17638,note_on,14,0,13,,,,,,,,,12,,,,73,0
17640,control_change,10,0,11,,,,,,,,,10,11,83,,,
17640,note_on,0,0,11,,,,,,,,,10,,,,86,127
17640,set_tempo,120,1,0,,,,,,254237,,,,,,,,
17641,note_on,0,0,1,,,,,,,,,0,,,,78,101
17641,note_on,0,0,1,,,,,,,,,0,,,,81,101
17641,note_on,0,0,1,,,,,,,,,0,,,,81,0
17641,note_on,120,0,1,,,,,,,,,0,,,,78,0
17642,note_on,14,0,14,,,,,,,,,13,,,,61,0
17643,control_change,2940,0,5,,,,,,,,,4,11,82,,,
17643,control_change,10,0,12,,,,,,,,,11,11,83,,,
17643,note_on,0,0,12,,,,,,,,,11,,,,86,127
17643,note_on,0,0,5,,,,,,,,,4,,,,62,115
17644,control_change,0,0,6,,,,,,,,,5,11,82,,,
17644,note_on,2940,0,6,,,,,,,,,5,,,,62,115
17644,note_on,14,0,15,,,,,,,,,14,,,,49,0
17644,note_on,60,0,2,,,,,,,,,1,,,,81,115
17644,note_on,0,0,2,,,,,,,,,1,,,,78,115
17645,note_on,0,0,3,,,,,,,,,2,,,,69,0
17645,note_on,0,0,3,,,,,,,,,2,,,,69,101
17645,note_on,0,0,3,,,,,,,,,2,,,,78,116
17645,note_on,120,0,3,,,,,,,,,2,,,,73,0
17648,control_change,10,0,13,,,,,,,,,12,11,83,,,
17648,note_on,0,0,13,,,,,,,,,12,,,,74,127
17649,note_on,60,0,4,,,,,,,,,3,,,,66,115
17649,note_on,0,0,4,,,,,,,,,3,,,,57,115
17652,control_change,10,0,14,,,,,,,,,13,11,83,,,
17652,note_on,0,0,14,,,,,,,,,13,,,,62,127
17654,note_on,0,0,15,,,,,,,,,14,,,,50,127
17654,control_change,10,0,15,,,,,,,,,14,11,83,,,
17671,note_on,30,0,1,,,,,,,,,0,,,,81,0
17675,note_on,30,0,3,,,,,,,,,2,,,,69,0
17701,note_on,30,0,1,,,,,,,,,0,,,,81,101
17705,note_on,30,0,3,,,,,,,,,2,,,,69,101
17731,note_on,30,0,1,,,,,,,,,0,,,,81,0
17735,note_on,30,0,3,,,,,,,,,2,,,,69,0
17760,set_tempo,120,1,0,,,,,,263158,,,,,,,,
17761,note_on,30,0,1,,,,,,,,,0,,,,83,101
17765,note_on,30,0,3,,,,,,,,,2,,,,71,101
17821,note_on,60,0,1,,,,,,,,,0,,,,83,0
17821,note_on,0,0,1,,,,,,,,,0,,,,81,101
17825,note_on,60,0,3,,,,,,,,,2,,,,71,0
17825,note_on,0,0,3,,,,,,,,,2,,,,69,101
17880,note_on,240,0,11,,,,,,,,,10,,,,86,0
17880,set_tempo,120,1,0,,,,,,288462,,,,,,,,
17880,note_on,0,0,11,,,,,,,,,10,,,,81,112
17881,note_on,0,0,1,,,,,,,,,0,,,,83,101
17881,note_on,60,0,1,,,,,,,,,0,,,,81,0
17883,note_on,240,0,12,,,,,,,,,11,,,,86,0
17883,note_on,0,0,12,,,,,,,,,11,,,,81,112
17885,note_on,60,0,3,,,,,,,,,2,,,,69,0
17885,note_on,0,0,3,,,,,,,,,2,,,,71,101
17888,note_on,240,0,13,,,,,,,,,12,,,,74,0
17888,note_on,0,0,13,,,,,,,,,12,,,,69,112
17892,note_on,240,0,14,,,,,,,,,13,,,,62,0
17892,note_on,0,0,14,,,,,,,,,13,,,,57,112
17894,note_on,240,0,15,,,,,,,,,14,,,,50,0
17894,note_on,0,0,15,,,,,,,,,14,,,,45,112
17941,note_on,0,0,1,,,,,,,,,0,,,,81,101
17941,note_on,60,0,1,,,,,,,,,0,,,,83,0
17945,note_on,60,0,3,,,,,,,,,2,,,,71,0
17945,note_on,0,0,3,,,,,,,,,2,,,,69,101
17990,note_on,110,0,11,,,,,,,,,10,,,,81,0
17993,note_on,110,0,12,,,,,,,,,11,,,,81,0
17998,note_on,110,0,13,,,,,,,,,12,,,,69,0
18000,note_on,10,0,11,,,,,,,,,10,,,,78,127
18000,set_tempo,120,1,0,,,,,,254237,,,,,,,,
18001,note_on,60,0,1,,,,,,,,,0,,,,81,0
18001,note_on,0,0,1,,,,,,,,,0,,,,81,101
18001,note_on,0,0,1,,,,,,,,,0,,,,78,101
18001,note_on,0,0,1,,,,,,,,,0,,,,78,0
18002,note_on,110,0,14,,,,,,,,,13,,,,57,0
18003,note_on,10,0,12,,,,,,,,,11,,,,78,127
18003,note_on,360,0,5,,,,,,,,,4,,,,62,0
18003,note_on,0,0,5,,,,,,,,,4,,,,62,115
18004,note_on,360,0,2,,,,,,,,,1,,,,78,0
18004,note_on,110,0,15,,,,,,,,,14,,,,45,0
18004,note_on,0,0,2,,,,,,,,,1,,,,78,115
18004,note_on,0,0,2,,,,,,,,,1,,,,81,115
18004,note_on,0,0,2,,,,,,,,,1,,,,81,0
18004,note_on,0,0,6,,,,,,,,,5,,,,62,115
18004,note_on,360,0,6,,,,,,,,,5,,,,62,0
18005,note_on,60,0,3,,,,,,,,,2,,,,69,0
18005,note_on,0,0,3,,,,,,,,,2,,,,78,0
18005,note_on,0,0,3,,,,,,,,,2,,,,78,101
18005,note_on,0,0,3,,,,,,,,,2,,,,69,101
18008,note_on,10,0,13,,,,,,,,,12,,,,66,127
18009,note_on,360,0,4,,,,,,,,,3,,,,57,0
18009,note_on,0,0,4,,,,,,,,,3,,,,66,0
18009,note_on,0,0,4,,,,,,,,,3,,,,66,115
18009,note_on,0,0,4,,,,,,,,,3,,,,57,115
18012,note_on,10,0,14,,,,,,,,,13,,,,54,127
18014,note_on,10,0,15,,,,,,,,,14,,,,42,127
18061,note_on,0,0,1,,,,,,,,,0,,,,81,0
18061,note_on,60,0,1,,,,,,,,,0,,,,78,0
18065,note_on,0,0,3,,,,,,,,,2,,,,78,0
18065,note_on,60,0,3,,,,,,,,,2,,,,69,0
18120,set_tempo,120,1,0,,,,,,263158,,,,,,,,
18121,note_on,60,0,1,,,,,,,,,0,,,,81,101
18121,note_on,0,0,1,,,,,,,,,0,,,,78,101
18125,note_on,0,0,3,,,,,,,,,2,,,,69,101
18125,note_on,60,0,3,,,,,,,,,2,,,,78,101
18181,note_on,60,0,1,,,,,,,,,0,,,,78,0
18181,note_on,0,0,1,,,,,,,,,0,,,,81,0
18185,note_on,60,0,3,,,,,,,,,2,,,,69,0
18185,note_on,0,0,3,,,,,,,,,2,,,,78,0
18240,set_tempo,120,1,0,,,,,,288462,,,,,,,,
18240,note_on,240,0,11,,,,,,,,,10,,,,78,0
18240,note_on,0,0,11,,,,,,,,,10,,,,74,112
18241,note_on,60,0,1,,,,,,,,,0,,,,81,101
18241,note_on,0,0,1,,,,,,,,,0,,,,78,101
18243,note_on,240,0,12,,,,,,,,,11,,,,78,0
18243,note_on,0,0,12,,,,,,,,,11,,,,74,112
18245,note_on,60,0,3,,,,,,,,,2,,,,78,101
18245,note_on,0,0,3,,,,,,,,,2,,,,69,101
18248,note_on,0,0,13,,,,,,,,,12,,,,62,112
18248,note_on,240,0,13,,,,,,,,,12,,,,66,0
18252,note_on,0,0,14,,,,,,,,,13,,,,50,112
18252,note_on,240,0,14,,,,,,,,,13,,,,54,0
18254,note_on,240,0,15,,,,,,,,,14,,,,42,0
18254,note_on,0,0,15,,,,,,,,,14,,,,38,112
18301,note_on,0,0,1,,,,,,,,,0,,,,81,0
18301,note_on,60,0,1,,,,,,,,,0,,,,78,0
18305,note_on,60,0,3,,,,,,,,,2,,,,69,0
18305,note_on,0,0,3,,,,,,,,,2,,,,78,0
18350,note_on,110,0,11,,,,,,,,,10,,,,74,0
18353,note_on,110,0,12,,,,,,,,,11,,,,74,0
18358,note_on,110,0,13,,,,,,,,,12,,,,62,0
18360,note_on,10,0,11,,,,,,,,,10,,,,71,127
18360,set_tempo,120,1,0,,,,,,254237,,,,,,,,
18361,note_on,60,0,1,,,,,,,,,0,,,,86,101
18361,note_on,0,0,1,,,,,,,,,0,,,,83,101
18362,note_on,110,0,14,,,,,,,,,13,,,,50,0
18363,note_on,360,0,5,,,,,,,,,4,,,,62,0
18363,note_on,0,0,5,,,,,,,,,4,,,,62,115
18363,note_on,10,0,12,,,,,,,,,11,,,,71,127
18364,note_on,360,0,2,,,,,,,,,1,,,,78,0
18364,note_on,0,0,2,,,,,,,,,1,,,,74,100
18364,note_on,0,0,2,,,,,,,,,1,,,,78,115
18364,note_on,0,0,2,,,,,,,,,1,,,,81,0
18364,note_on,110,0,15,,,,,,,,,14,,,,38,0
18364,note_on,360,0,6,,,,,,,,,5,,,,62,0
18364,note_on,0,0,6,,,,,,,,,5,,,,62,115
18365,note_on,60,0,3,,,,,,,,,2,,,,74,101
18365,note_on,0,0,3,,,,,,,,,2,,,,78,116
18368,note_on,10,0,13,,,,,,,,,12,,,,59,127
18369,note_on,0,0,4,,,,,,,,,3,,,,59,115
18369,note_on,0,0,4,,,,,,,,,3,,,,66,115
18369,note_on,0,0,4,,,,,,,,,3,,,,66,0
18369,note_on,360,0,4,,,,,,,,,3,,,,57,0
18372,note_on,10,0,14,,,,,,,,,13,,,,47,127
18374,note_on,10,0,15,,,,,,,,,14,,,,35,127
18391,note_on,30,0,1,,,,,,,,,0,,,,86,0
18394,note_on,30,0,2,,,,,,,,,1,,,,74,0
18395,note_on,30,0,3,,,,,,,,,2,,,,74,0
18421,note_on,30,0,1,,,,,,,,,0,,,,86,101
18424,note_on,30,0,2,,,,,,,,,1,,,,74,100
18425,note_on,30,0,3,,,,,,,,,2,,,,74,101
18451,note_on,30,0,1,,,,,,,,,0,,,,86,0
18454,note_on,30,0,2,,,,,,,,,1,,,,74,0
18455,note_on,30,0,3,,,,,,,,,2,,,,74,0
18480,set_tempo,120,1,0,,,,,,263158,,,,,,,,
18481,note_on,30,0,1,,,,,,,,,0,,,,88,101
18484,note_on,30,0,2,,,,,,,,,1,,,,76,100
18485,note_on,30,0,3,,,,,,,,,2,,,,76,101
18541,note_on,0,0,1,,,,,,,,,0,,,,86,101
18541,note_on,60,0,1,,,,,,,,,0,,,,88,0
18544,note_on,0,0,2,,,,,,,,,1,,,,74,100
18544,note_on,60,0,2,,,,,,,,,1,,,,76,0
18545,note_on,60,0,3,,,,,,,,,2,,,,76,0
18545,note_on,0,0,3,,,,,,,,,2,,,,74,101
18600,set_tempo,120,1,0,,,,,,288462,,,,,,,,
18600,note_on,0,0,11,,,,,,,,,10,,,,66,112
18600,note_on,240,0,11,,,,,,,,,10,,,,71,0
18601,note_on,60,0,1,,,,,,,,,0,,,,86,0
18601,note_on,0,0,1,,,,,,,,,0,,,,88,101
18603,note_on,0,0,12,,,,,,,,,11,,,,66,112
18603,note_on,240,0,12,,,,,,,,,11,,,,71,0
18604,note_on,60,0,2,,,,,,,,,1,,,,74,0
18604,note_on,0,0,2,,,,,,,,,1,,,,76,100
18605,note_on,60,0,3,,,,,,,,,2,,,,74,0
18605,note_on,0,0,3,,,,,,,,,2,,,,76,101
18608,note_on,240,0,13,,,,,,,,,12,,,,59,0
18608,note_on,0,0,13,,,,,,,,,12,,,,66,112
18612,note_on,0,0,14,,,,,,,,,13,,,,54,112
18612,note_on,240,0,14,,,,,,,,,13,,,,47,0
18614,note_on,240,0,15,,,,,,,,,14,,,,35,0
18614,note_on,0,0,15,,,,,,,,,14,,,,42,112
18661,note_on,0,0,1,,,,,,,,,0,,,,86,101
18661,note_on,60,0,1,,,,,,,,,0,,,,88,0
18664,note_on,60,0,2,,,,,,,,,1,,,,76,0
18664,note_on,0,0,2,,,,,,,,,1,,,,74,100
18665,note_on,60,0,3,,,,,,,,,2,,,,76,0
18665,note_on,0,0,3,,,,,,,,,2,,,,74,101
18710,note_on,110,0,11,,,,,,,,,10,,,,66,0
18713,note_on,110,0,12,,,,,,,,,11,,,,66,0
18718,note_on,110,0,13,,,,,,,,,12,,,,66,0
18720,note_on,10,0,11,,,,,,,,,10,,,,62,127
18720,set_tempo,120,1,0,,,,,,254237,,,,,,,,
18721,note_on,0,0,1,,,,,,,,,0,,,,86,101
18721,note_on,0,0,1,,,,,,,,,0,,,,83,0
18721,note_on,60,0,1,,,,,,,,,0,,,,86,0
18721,note_on,0,0,1,,,,,,,,,0,,,,83,101
18722,note_on,110,0,14,,,,,,,,,13,,,,54,0
18723,note_on,360,0,5,,,,,,,,,4,,,,62,0
18723,note_on,0,0,5,,,,,,,,,4,,,,62,100
18723,note_on,10,0,12,,,,,,,,,11,,,,62,127
18724,note_on,110,0,15,,,,,,,,,14,,,,42,0
18724,note_on,360,0,6,,,,,,,,,5,,,,62,0
18724,note_on,60,0,2,,,,,,,,,1,,,,74,0
18724,note_on,0,0,2,,,,,,,,,1,,,,78,0
18724,note_on,0,0,2,,,,,,,,,1,,,,78,100
18724,note_on,0,0,6,,,,,,,,,5,,,,62,100
18724,note_on,0,0,2,,,,,,,,,1,,,,74,100
18725,note_on,0,0,3,,,,,,,,,2,,,,78,0
18725,note_on,60,0,3,,,,,,,,,2,,,,74,0
18725,note_on,0,0,3,,,,,,,,,2,,,,74,101
18725,note_on,0,0,3,,,,,,,,,2,,,,78,101
18728,note_on,10,0,13,,,,,,,,,12,,,,62,127
18729,note_on,0,0,4,,,,,,,,,3,,,,66,0
18729,note_on,360,0,4,,,,,,,,,3,,,,59,0
18729,note_on,0,0,4,,,,,,,,,3,,,,66,100
18729,note_on,0,0,4,,,,,,,,,3,,,,59,100
18732,note_on,10,0,14,,,,,,,,,13,,,,50,127
18734,note_on,10,0,15,,,,,,,,,14,,,,38,127
18781,note_on,0,0,1,,,,,,,,,0,,,,86,0
18781,note_on,60,0,1,,,,,,,,,0,,,,83,0
18783,note_on,60,0,5,,,,,,,,,4,,,,62,0
18784,note_on,0,0,2,,,,,,,,,1,,,,78,0
18784,note_on,60,0,6,,,,,,,,,5,,,,62,0
18784,note_on,60,0,2,,,,,,,,,1,,,,74,0
18785,note_on,0,0,3,,,,,,,,,2,,,,78,0
18785,note_on,60,0,3,,,,,,,,,2,,,,74,0
18789,note_on,0,0,4,,,,,,,,,3,,,,66,0
18789,note_on,60,0,4,,,,,,,,,3,,,,59,0
18840,set_tempo,120,1,0,,,,,,263158,,,,,,,,
18841,note_on,0,0,1,,,,,,,,,0,,,,83,101
18841,note_on,60,0,1,,,,,,,,,0,,,,86,101
18843,note_on,60,0,5,,,,,,,,,4,,,,62,100
18844,note_on,60,0,6,,,,,,,,,5,,,,62,100
18844,note_on,60,0,2,,,,,,,,,1,,,,78,100
18844,note_on,0,0,2,,,,,,,,,1,,,,74,100
18845,note_on,60,0,3,,,,,,,,,2,,,,78,101
18845,note_on,0,0,3,,,,,,,,,2,,,,74,101
18849,note_on,60,0,4,,,,,,,,,3,,,,66,100
18849,note_on,0,0,4,,,,,,,,,3,,,,59,100
18901,note_on,0,0,1,,,,,,,,,0,,,,86,0
18901,note_on,60,0,1,,,,,,,,,0,,,,83,0
18903,note_on,60,0,5,,,,,,,,,4,,,,62,0
18904,note_on,60,0,2,,,,,,,,,1,,,,74,0
18904,note_on,0,0,2,,,,,,,,,1,,,,78,0
18904,note_on,60,0,6,,,,,,,,,5,,,,62,0
18905,note_on,0,0,3,,,,,,,,,2,,,,78,0
18905,note_on,60,0,3,,,,,,,,,2,,,,74,0
18909,note_on,0,0,4,,,,,,,,,3,,,,66,0
18909,note_on,60,0,4,,,,,,,,,3,,,,59,0
18960,note_on,0,0,11,,,,,,,,,10,,,,59,112
18960,note_on,240,0,11,,,,,,,,,10,,,,62,0
18960,set_tempo,120,1,0,,,,,,288462,,,,,,,,
18961,note_on,60,0,1,,,,,,,,,0,,,,86,101
18961,note_on,0,0,1,,,,,,,,,0,,,,83,101
18963,note_on,60,0,5,,,,,,,,,4,,,,62,100
18963,note_on,0,0,12,,,,,,,,,11,,,,59,112
18963,note_on,240,0,12,,,,,,,,,11,,,,62,0
18964,note_on,60,0,6,,,,,,,,,5,,,,62,100
18964,note_on,60,0,2,,,,,,,,,1,,,,78,100
18964,note_on,0,0,2,,,,,,,,,1,,,,74,100
18965,note_on,60,0,3,,,,,,,,,2,,,,78,101
18965,note_on,0,0,3,,,,,,,,,2,,,,74,101
18968,note_on,240,0,13,,,,,,,,,12,,,,62,0
18968,note_on,0,0,13,,,,,,,,,12,,,,59,112
18969,note_on,0,0,4,,,,,,,,,3,,,,59,100
18969,note_on,60,0,4,,,,,,,,,3,,,,66,100
18972,note_on,0,0,14,,,,,,,,,13,,,,47,112
18972,note_on,240,0,14,,,,,,,,,13,,,,50,0
18974,note_on,0,0,15,,,,,,,,,14,,,,35,112
18974,note_on,240,0,15,,,,,,,,,14,,,,38,0
19021,note_on,0,0,1,,,,,,,,,0,,,,86,0
19021,note_on,60,0,1,,,,,,,,,0,,,,83,0
19023,note_on,60,0,5,,,,,,,,,4,,,,62,0
19024,note_on,60,0,6,,,,,,,,,5,,,,62,0
19024,note_on,60,0,2,,,,,,,,,1,,,,74,0
19024,note_on,0,0,2,,,,,,,,,1,,,,78,0
19025,note_on,0,0,3,,,,,,,,,2,,,,78,0
19025,note_on,60,0,3,,,,,,,,,2,,,,74,0
19029,note_on,60,0,4,,,,,,,,,3,,,,59,0
19029,note_on,0,0,4,,,,,,,,,3,,,,66,0
19070,note_on,110,0,11,,,,,,,,,10,,,,59,0
19073,note_on,110,0,12,,,,,,,,,11,,,,59,0
19078,note_on,110,0,13,,,,,,,,,12,,,,59,0
19080,set_tempo,120,1,0,,,,,,254237,,,,,,,,
19080,control_change,10,0,11,,,,,,,,,10,11,127,,,
19080,note_on,0,0,11,,,,,,,,,10,,,,55,112
19081,control_change,60,0,1,,,,,,,,,0,11,86,,,
19081,note_on,0,0,1,,,,,,,,,0,,,,86,116
19081,note_on,0,0,1,,,,,,,,,0,,,,83,116
19082,control_change,8520,0,7,,,,,,,,,6,11,102,,,
19082,note_on,0,0,7,,,,,,,,,6,,,,67,112
19082,note_on,110,0,14,,,,,,,,,13,,,,47,0
19083,control_change,60,0,5,,,,,,,,,4,11,102,,,
19083,control_change,10,0,12,,,,,,,,,11,11,127,,,
19083,note_on,0,0,12,,,,,,,,,11,,,,55,112
19083,note_on,0,0,5,,,,,,,,,4,,,,62,115
19084,note_on,110,0,15,,,,,,,,,14,,,,35,0
19084,control_change,60,0,2,,,,,,,,,1,11,86,,,
19084,note_on,0,0,2,,,,,,,,,1,,,,74,115
19084,control_change,60,0,6,,,,,,,,,5,11,102,,,
19084,note_on,0,0,6,,,,,,,,,5,,,,62,115
19084,note_on,0,0,2,,,,,,,,,1,,,,77,115
19085,control_change,60,0,3,,,,,,,,,2,11,86,,,
19085,note_on,0,0,3,,,,,,,,,2,,,,77,116
19085,note_on,0,0,3,,,,,,,,,2,,,,71,116
19085,control_change,5,0,11,,,,,,,,,10,11,124,,,
19087,note_on,0,0,8,,,,,,,,,7,,,,59,125
19087,note_on,0,0,8,,,,,,,,,7,,,,62,125
19087,program_change,9,0,13,,,,,,,,50,12,,,,,
19087,control_change,8520,0,8,,,,,,,,,7,11,102,,,
19088,control_change,5,0,12,,,,,,,,,11,11,124,,,
19088,control_change,1,0,13,,,,,,,,,12,11,127,,,
19088,note_on,0,0,13,,,,,,,,,12,,,,55,112
19089,note_on,0,0,4,,,,,,,,,3,,,,59,115
19089,note_on,0,0,4,,,,,,,,,3,,,,65,115
19089,control_change,60,0,4,,,,,,,,,3,11,97,,,
19090,control_change,5,0,11,,,,,,,,,10,11,121,,,
19092,note_on,0,0,14,,,,,,,,,13,,,,43,112
19092,control_change,10,0,14,,,,,,,,,13,11,127,,,
19093,control_change,5,0,12,,,,,,,,,11,11,121,,,
19093,control_change,5,0,13,,,,,,,,,12,11,124,,,
19093,control_change,8520,0,9,,,,,,,,,8,11,102,,,
19093,note_on,0,0,9,,,,,,,,,8,,,,55,125
19094,control_change,10,0,15,,,,,,,,,14,11,127,,,
19094,note_on,0,0,15,,,,,,,,,14,,,,31,112
19095,note_on,8520,0,10,,,,,,,,,15,,,,43,100
19096,control_change,6,0,11,,,,,,,,,10,11,118,,,
19097,control_change,5,0,14,,,,,,,,,13,11,124,,,
19098,control_change,5,0,13,,,,,,,,,12,11,121,,,
19099,control_change,5,0,15,,,,,,,,,14,11,124,,,
19099,control_change,6,0,12,,,,,,,,,11,11,118,,,
19101,control_change,5,0,11,,,,,,,,,10,11,115,,,
19102,control_change,5,0,14,,,,,,,,,13,11,121,,,
19104,control_change,6,0,13,,,,,,,,,12,11,118,,,
19104,control_change,5,0,15,,,,,,,,,14,11,121,,,
19104,control_change,5,0,12,,,,,,,,,11,11,115,,,
19107,control_change,6,0,11,,,,,,,,,10,11,112,,,
19108,control_change,6,0,14,,,,,,,,,13,11,118,,,
19109,control_change,5,0,13,,,,,,,,,12,11,115,,,
19110,control_change,6,0,12,,,,,,,,,11,11,112,,,
19110,note_on,3,0,11,,,,,,,,,10,,,,55,0
19110,control_change,6,0,15,,,,,,,,,14,11,118,,,
19112,control_change,2,0,11,,,,,,,,,10,11,109,,,
19113,note_on,3,0,12,,,,,,,,,11,,,,55,0
19113,control_change,5,0,14,,,,,,,,,13,11,115,,,
19115,control_change,6,0,13,,,,,,,,,12,11,112,,,
19115,control_change,2,0,12,,,,,,,,,11,11,109,,,
19115,control_change,5,0,15,,,,,,,,,14,11,115,,,
19117,control_change,5,0,11,,,,,,,,,10,11,106,,,
19118,note_on,3,0,13,,,,,,,,,12,,,,55,0
19119,control_change,6,0,14,,,,,,,,,13,11,112,,,
19120,control_change,2,0,13,,,,,,,,,12,11,109,,,
19120,control_change,5,0,12,,,,,,,,,11,11,106,,,
19121,control_change,6,0,15,,,,,,,,,14,11,112,,,
19122,note_on,3,0,14,,,,,,,,,13,,,,43,0
19123,control_change,6,0,11,,,,,,,,,10,11,103,,,
19124,note_on,3,0,15,,,,,,,,,14,,,,31,0
19124,control_change,2,0,14,,,,,,,,,13,11,109,,,
19125,control_change,5,0,13,,,,,,,,,12,11,106,,,
19126,control_change,2,0,15,,,,,,,,,14,11,109,,,
19126,control_change,6,0,12,,,,,,,,,11,11,103,,,
19129,control_change,5,0,14,,,,,,,,,13,11,106,,,
19131,control_change,5,0,15,,,,,,,,,14,11,106,,,
19131,control_change,6,0,13,,,,,,,,,12,11,103,,,
19135,control_change,6,0,14,,,,,,,,,13,11,103,,,
19137,control_change,6,0,15,,,,,,,,,14,11,103,,,
19140,note_on,17,0,11,,,,,,,,,10,,,,55,112
19143,note_on,17,0,12,,,,,,,,,11,,,,55,112
19148,note_on,17,0,13,,,,,,,,,12,,,,55,112
19152,note_on,17,0,14,,,,,,,,,13,,,,43,112
19154,note_on,17,0,15,,,,,,,,,14,,,,31,112
19170,note_on,30,0,11,,,,,,,,,10,,,,55,0
19173,note_on,30,0,12,,,,,,,,,11,,,,55,0
19178,note_on,30,0,13,,,,,,,,,12,,,,55,0
19182,note_on,30,0,14,,,,,,,,,13,,,,43,0
19184,note_on,30,0,15,,,,,,,,,14,,,,31,0
19200,note_on,30,0,11,,,,,,,,,10,,,,57,112
19200,set_tempo,120,1,0,,,,,,263158,,,,,,,,
19202,note_on,120,0,7,,,,,,,,,6,,,,67,0
19203,note_on,30,0,12,,,,,,,,,11,,,,57,112
19208,note_on,30,0,13,,,,,,,,,12,,,,57,112
19212,note_on,30,0,14,,,,,,,,,13,,,,45,112
19214,note_on,30,0,15,,,,,,,,,14,,,,33,112
19215,note_on,120,0,10,,,,,,,,,15,,,,43,0
19230,note_on,30,0,11,,,,,,,,,10,,,,57,0
19233,note_on,30,0,12,,,,,,,,,11,,,,57,0
19238,note_on,30,0,13,,,,,,,,,12,,,,57,0
19242,note_on,30,0,14,,,,,,,,,13,,,,45,0
19244,note_on,30,0,15,,,,,,,,,14,,,,33,0
19260,note_on,30,0,11,,,,,,,,,10,,,,55,112
19263,note_on,30,0,12,,,,,,,,,11,,,,55,112
19268,note_on,30,0,13,,,,,,,,,12,,,,55,112
19272,note_on,30,0,14,,,,,,,,,13,,,,43,112
19274,note_on,30,0,15,,,,,,,,,14,,,,31,112
19290,note_on,30,0,11,,,,,,,,,10,,,,55,0
19293,note_on,30,0,12,,,,,,,,,11,,,,55,0
19298,note_on,30,0,13,,,,,,,,,12,,,,55,0
19302,note_on,30,0,14,,,,,,,,,13,,,,43,0
19304,note_on,30,0,15,,,,,,,,,14,,,,31,0
19320,set_tempo,120,1,0,,,,,,288462,,,,,,,,
19320,note_on,30,0,11,,,,,,,,,10,,,,57,112
19323,note_on,30,0,12,,,,,,,,,11,,,,57,112
19328,note_on,30,0,13,,,,,,,,,12,,,,57,112
19332,note_on,30,0,14,,,,,,,,,13,,,,45,112
19334,note_on,30,0,15,,,,,,,,,14,,,,33,112
19350,note_on,30,0,11,,,,,,,,,10,,,,57,0
19353,note_on,30,0,12,,,,,,,,,11,,,,57,0
19358,note_on,30,0,13,,,,,,,,,12,,,,57,0
19362,note_on,30,0,14,,,,,,,,,13,,,,45,0
19364,note_on,30,0,15,,,,,,,,,14,,,,33,0
19380,note_on,30,0,11,,,,,,,,,10,,,,55,112
19383,note_on,30,0,12,,,,,,,,,11,,,,55,112
19388,note_on,30,0,13,,,,,,,,,12,,,,55,112
19392,note_on,30,0,14,,,,,,,,,13,,,,43,112
19394,note_on,30,0,15,,,,,,,,,14,,,,31,112
19410,note_on,30,0,11,,,,,,,,,10,,,,55,0
19413,note_on,30,0,12,,,,,,,,,11,,,,55,0
19418,note_on,30,0,13,,,,,,,,,12,,,,55,0
19422,note_on,30,0,14,,,,,,,,,13,,,,43,0
19424,note_on,30,0,15,,,,,,,,,14,,,,31,0
19440,set_tempo,120,1,0,,,,,,254237,,,,,,,,
19440,note_on,0,0,11,,,,,,,,,10,,,,61,112
19440,control_change,30,0,11,,,,,,,,,10,11,127,,,
19441,note_on,0,0,1,,,,,,,,,0,,,,88,116
19441,note_on,360,0,1,,,,,,,,,0,,,,83,0
19441,note_on,0,0,1,,,,,,,,,0,,,,86,0
19441,note_on,0,0,1,,,,,,,,,0,,,,82,116
19442,note_on,240,0,7,,,,,,,,,6,,,,67,112
19443,note_on,0,0,12,,,,,,,,,11,,,,61,112
19443,control_change,30,0,12,,,,,,,,,11,11,127,,,
19443,note_on,0,0,5,,,,,,,,,4,,,,67,115
19443,note_on,360,0,5,,,,,,,,,4,,,,62,0
19444,note_on,0,0,6,,,,,,,,,5,,,,55,115
19444,note_on,360,0,6,,,,,,,,,5,,,,62,0
19444,note_on,0,0,2,,,,,,,,,1,,,,76,115
19444,note_on,360,0,2,,,,,,,,,1,,,,74,0
19444,note_on,0,0,2,,,,,,,,,1,,,,77,0
19444,note_on,0,0,2,,,,,,,,,1,,,,79,115
19445,note_on,0,0,3,,,,,,,,,2,,,,76,116
19445,control_change,5,0,11,,,,,,,,,10,11,124,,,
19445,note_on,0,0,3,,,,,,,,,2,,,,70,116
19445,note_on,360,0,3,,,,,,,,,2,,,,71,0
19445,note_on,0,0,3,,,,,,,,,2,,,,77,0
19447,note_on,360,0,8,,,,,,,,,7,,,,62,0
19447,note_on,0,0,8,,,,,,,,,7,,,,59,0
19447,note_on,0,0,8,,,,,,,,,7,,,,64,125
19447,note_on,0,0,8,,,,,,,,,7,,,,58,125
19448,control_change,5,0,12,,,,,,,,,11,11,124,,,
19448,note_on,0,0,13,,,,,,,,,12,,,,61,112
19448,control_change,30,0,13,,,,,,,,,12,11,127,,,
19449,note_on,0,0,4,,,,,,,,,3,,,,65,0
19449,note_on,0,0,4,,,,,,,,,3,,,,58,115
19449,note_on,0,0,4,,,,,,,,,3,,,,64,115
19449,note_on,360,0,4,,,,,,,,,3,,,,59,0
19450,control_change,5,0,11,,,,,,,,,10,11,121,,,
19452,note_on,0,0,14,,,,,,,,,13,,,,49,112
19452,control_change,30,0,14,,,,,,,,,13,11,127,,,
19453,note_on,0,0,9,,,,,,,,,8,,,,49,125
19453,control_change,5,0,12,,,,,,,,,11,11,121,,,
19453,control_change,5,0,13,,,,,,,,,12,11,124,,,
19453,note_on,360,0,9,,,,,,,,,8,,,,55,0
19454,note_on,0,0,15,,,,,,,,,14,,,,37,112
19454,control_change,30,0,15,,,,,,,,,14,11,127,,,
19455,note_on,240,0,10,,,,,,,,,15,,,,43,100
19456,control_change,6,0,11,,,,,,,,,10,11,118,,,
19457,control_change,5,0,14,,,,,,,,,13,11,124,,,
19458,control_change,5,0,13,,,,,,,,,12,11,121,,,
19459,control_change,5,0,15,,,,,,,,,14,11,124,,,
19459,control_change,6,0,12,,,,,,,,,11,11,118,,,
19461,control_change,5,0,11,,,,,,,,,10,11,115,,,
19462,control_change,5,0,14,,,,,,,,,13,11,121,,,
19464,control_change,5,0,15,,,,,,,,,14,11,121,,,
19464,control_change,5,0,12,,,,,,,,,11,11,115,,,
19464,control_change,6,0,13,,,,,,,,,12,11,118,,,
19467,control_change,6,0,11,,,,,,,,,10,11,112,,,
19468,control_change,6,0,14,,,,,,,,,13,11,118,,,
19469,control_change,5,0,13,,,,,,,,,12,11,115,,,
19470,control_change,6,0,12,,,,,,,,,11,11,112,,,
19470,control_change,6,0,15,,,,,,,,,14,11,118,,,
19472,control_change,5,0,11,,,,,,,,,10,11,109,,,
19473,control_change,5,0,14,,,,,,,,,13,11,115,,,
19475,control_change,5,0,15,,,,,,,,,14,11,115,,,
19475,control_change,6,0,13,,,,,,,,,12,11,112,,,
19475,control_change,5,0,12,,,,,,,,,11,11,109,,,
19477,control_change,5,0,11,,,,,,,,,10,11,106,,,
19479,control_change,6,0,14,,,,,,,,,13,11,112,,,
19480,control_change,5,0,12,,,,,,,,,11,11,106,,,
19480,control_change,5,0,13,,,,,,,,,12,11,109,,,
19481,control_change,6,0,15,,,,,,,,,14,11,112,,,
19483,control_change,6,0,11,,,,,,,,,10,11,103,,,
19484,control_change,5,0,14,,,,,,,,,13,11,109,,,
19485,control_change,5,0,13,,,,,,,,,12,11,106,,,
19486,control_change,6,0,12,,,,,,,,,11,11,103,,,
19486,control_change,5,0,15,,,,,,,,,14,11,109,,,
19489,control_change,5,0,14,,,,,,,,,13,11,106,,,
19491,control_change,5,0,15,,,,,,,,,14,11,106,,,
19491,control_change,6,0,13,,,,,,,,,12,11,103,,,
19495,control_change,6,0,14,,,,,,,,,13,11,103,,,
19497,control_change,6,0,15,,,,,,,,,14,11,103,,,
19500,note_on,17,0,11,,,,,,,,,10,,,,61,0
19503,note_on,17,0,12,,,,,,,,,11,,,,61,0
19508,note_on,17,0,13,,,,,,,,,12,,,,61,0
19512,note_on,17,0,14,,,,,,,,,13,,,,49,0
19514,note_on,17,0,15,,,,,,,,,14,,,,37,0
19560,set_tempo,120,1,0,,,,,,263158,,,,,,,,
19560,note_on,60,0,11,,,,,,,,,10,,,,61,112
19562,note_on,120,0,7,,,,,,,,,6,,,,67,0
19563,note_on,60,0,12,,,,,,,,,11,,,,61,112
19568,note_on,60,0,13,,,,,,,,,12,,,,61,112
19572,note_on,60,0,14,,,,,,,,,13,,,,49,112
19574,note_on,60,0,15,,,,,,,,,14,,,,37,112
19575,note_on,120,0,10,,,,,,,,,15,,,,43,0
19620,note_on,60,0,11,,,,,,,,,10,,,,61,0
19623,note_on,60,0,12,,,,,,,,,11,,,,61,0
19628,note_on,60,0,13,,,,,,,,,12,,,,61,0
19632,note_on,60,0,14,,,,,,,,,13,,,,49,0
19634,note_on,60,0,15,,,,,,,,,14,,,,37,0
19680,note_on,60,0,11,,,,,,,,,10,,,,61,112
19680,set_tempo,120,1,0,,,,,,288462,,,,,,,,
19683,note_on,60,0,12,,,,,,,,,11,,,,61,112
19688,note_on,60,0,13,,,,,,,,,12,,,,61,112
19692,note_on,60,0,14,,,,,,,,,13,,,,49,112
19694,note_on,60,0,15,,,,,,,,,14,,,,37,112
19740,note_on,60,0,11,,,,,,,,,10,,,,61,0
19743,note_on,60,0,12,,,,,,,,,11,,,,61,0
19748,note_on,60,0,13,,,,,,,,,12,,,,61,0
19752,note_on,60,0,14,,,,,,,,,13,,,,49,0
19754,note_on,60,0,15,,,,,,,,,14,,,,37,0
19800,set_tempo,120,1,0,,,,,,254237,,,,,,,,
19800,control_change,60,0,11,,,,,,,,,10,11,127,,,
19800,note_on,0,0,11,,,,,,,,,10,,,,62,112
19801,note_on,0,0,1,,,,,,,,,0,,,,90,101
19801,note_on,0,0,1,,,,,,,,,0,,,,88,0
19801,note_on,360,0,1,,,,,,,,,0,,,,82,0
19801,note_on,0,0,1,,,,,,,,,0,,,,81,101
19802,note_on,240,0,7,,,,,,,,,6,,,,74,112
19803,note_on,360,0,5,,,,,,,,,4,,,,67,0
19803,note_on,0,0,5,,,,,,,,,4,,,,62,100
19803,note_on,0,0,12,,,,,,,,,11,,,,62,112
19803,control_change,60,0,12,,,,,,,,,11,11,127,,,
19804,note_on,360,0,2,,,,,,,,,1,,,,76,0
19804,note_on,0,0,2,,,,,,,,,1,,,,79,0
19804,note_on,0,0,2,,,,,,,,,1,,,,84,100
19804,note_on,0,0,2,,,,,,,,,1,,,,78,100
19804,note_on,0,0,6,,,,,,,,,5,,,,62,100
19804,note_on,360,0,6,,,,,,,,,5,,,,55,0
19805,note_on,0,0,3,,,,,,,,,2,,,,72,101
19805,note_on,0,0,3,,,,,,,,,2,,,,69,101
19805,control_change,5,0,11,,,,,,,,,10,11,124,,,
19805,note_on,360,0,3,,,,,,,,,2,,,,70,0
19805,note_on,0,0,3,,,,,,,,,2,,,,76,0
19807,note_on,360,0,8,,,,,,,,,7,,,,64,0
19807,note_on,0,0,8,,,,,,,,,7,,,,58,0
19807,note_on,0,0,8,,,,,,,,,7,,,,57,110
19807,note_on,0,0,8,,,,,,,,,7,,,,60,110
19808,note_on,0,0,13,,,,,,,,,12,,,,62,112
19808,control_change,60,0,13,,,,,,,,,12,11,127,,,
19808,control_change,5,0,12,,,,,,,,,11,11,124,,,
19809,note_on,0,0,4,,,,,,,,,3,,,,66,100
19809,note_on,0,0,4,,,,,,,,,3,,,,57,100
19809,note_on,0,0,4,,,,,,,,,3,,,,64,0
19809,note_on,360,0,4,,,,,,,,,3,,,,58,0
19810,control_change,5,0,11,,,,,,,,,10,11,121,,,
19812,control_change,60,0,14,,,,,,,,,13,11,127,,,
19812,note_on,0,0,14,,,,,,,,,13,,,,50,112
19813,control_change,5,0,12,,,,,,,,,11,11,121,,,
19813,note_on,360,0,9,,,,,,,,,8,,,,49,0
19813,note_on,0,0,9,,,,,,,,,8,,,,50,110
19813,control_change,5,0,13,,,,,,,,,12,11,124,,,
19814,note_on,0,0,15,,,,,,,,,14,,,,38,112
19814,control_change,60,0,15,,,,,,,,,14,11,127,,,
19816,control_change,6,0,11,,,,,,,,,10,11,118,,,
19817,control_change,5,0,14,,,,,,,,,13,11,124,,,
19818,control_change,5,0,13,,,,,,,,,12,11,121,,,
19819,control_change,5,0,15,,,,,,,,,14,11,124,,,
19819,control_change,6,0,12,,,,,,,,,11,11,118,,,
19821,control_change,5,0,11,,,,,,,,,10,11,115,,,
19822,control_change,5,0,14,,,,,,,,,13,11,121,,,
19824,control_change,5,0,15,,,,,,,,,14,11,121,,,
19824,control_change,5,0,12,,,,,,,,,11,11,115,,,
19824,control_change,6,0,13,,,,,,,,,12,11,118,,,
19827,control_change,6,0,11,,,,,,,,,10,11,112,,,
19828,control_change,6,0,14,,,,,,,,,13,11,118,,,
19829,control_change,5,0,13,,,,,,,,,12,11,115,,,
19830,note_on,3,0,11,,,,,,,,,10,,,,62,0
19830,control_change,6,0,15,,,,,,,,,14,11,118,,,
19830,control_change,6,0,12,,,,,,,,,11,11,112,,,
19832,control_change,2,0,11,,,,,,,,,10,11,109,,,
19833,note_on,3,0,12,,,,,,,,,11,,,,62,0
19833,control_change,5,0,14,,,,,,,,,13,11,115,,,
19835,control_change,5,0,15,,,,,,,,,14,11,115,,,
19835,control_change,6,0,13,,,,,,,,,12,11,112,,,
19835,control_change,2,0,12,,,,,,,,,11,11,109,,,
19837,control_change,5,0,11,,,,,,,,,10,11,106,,,
19838,note_on,3,0,13,,,,,,,,,12,,,,62,0
19839,control_change,6,0,14,,,,,,,,,13,11,112,,,
19840,control_change,2,0,13,,,,,,,,,12,11,109,,,
19840,control_change,5,0,12,,,,,,,,,11,11,106,,,
19841,control_change,6,0,15,,,,,,,,,14,11,112,,,
19842,note_on,3,0,14,,,,,,,,,13,,,,50,0
19843,control_change,6,0,11,,,,,,,,,10,11,103,,,
19844,control_change,2,0,14,,,,,,,,,13,11,109,,,
19844,note_on,3,0,15,,,,,,,,,14,,,,38,0
19845,control_change,5,0,13,,,,,,,,,12,11,106,,,
19846,control_change,6,0,12,,,,,,,,,11,11,103,,,
19846,control_change,2,0,15,,,,,,,,,14,11,109,,,
19849,control_change,5,0,14,,,,,,,,,13,11,106,,,
19851,control_change,6,0,13,,,,,,,,,12,11,103,,,
19851,control_change,5,0,15,,,,,,,,,14,11,106,,,
19855,control_change,6,0,14,,,,,,,,,13,11,103,,,
19857,control_change,6,0,15,,,,,,,,,14,11,103,,,
19860,note_on,17,0,11,,,,,,,,,10,,,,62,112
19862,note_on,60,0,7,,,,,,,,,6,,,,74,0
19863,note_on,17,0,12,,,,,,,,,11,,,,62,112
19863,note_on,60,0,5,,,,,,,,,4,,,,62,0
19864,note_on,60,0,6,,,,,,,,,5,,,,62,0
19867,note_on,0,0,8,,,,,,,,,7,,,,57,0
19867,note_on,60,0,8,,,,,,,,,7,,,,60,0
19868,note_on,17,0,13,,,,,,,,,12,,,,62,112
19872,note_on,17,0,14,,,,,,,,,13,,,,50,112
19873,note_on,60,0,9,,,,,,,,,8,,,,50,0
19874,note_on,17,0,15,,,,,,,,,14,,,,38,112
19881,note_on,0,0,1,,,,,,,,,0,,,,90,0
19881,note_on,80,0,1,,,,,,,,,0,,,,81,0
19884,note_on,0,0,2,,,,,,,,,1,,,,84,0
19884,note_on,80,0,2,,,,,,,,,1,,,,78,0
19885,note_on,80,0,3,,,,,,,,,2,,,,69,0
19885,note_on,0,0,3,,,,,,,,,2,,,,72,0
19889,note_on,0,0,4,,,,,,,,,3,,,,66,0
19889,note_on,80,0,4,,,,,,,,,3,,,,57,0
19890,note_on,30,0,11,,,,,,,,,10,,,,62,0
19893,note_on,30,0,12,,,,,,,,,11,,,,62,0
19898,note_on,30,0,13,,,,,,,,,12,,,,62,0
19902,note_on,30,0,14,,,,,,,,,13,,,,50,0
19904,note_on,30,0,15,,,,,,,,,14,,,,38,0
19920,set_tempo,120,1,0,,,,,,263158,,,,,,,,
19920,note_on,30,0,11,,,,,,,,,10,,,,64,112
19921,note_on,0,0,1,,,,,,,,,0,,,,81,101
19921,note_on,40,0,1,,,,,,,,,0,,,,90,101
19922,note_on,60,0,7,,,,,,,,,6,,,,74,112
19923,note_on,30,0,12,,,,,,,,,11,,,,64,112
19923,note_on,60,0,5,,,,,,,,,4,,,,62,100
19924,note_on,60,0,6,,,,,,,,,5,,,,62,100
19924,note_on,0,0,2,,,,,,,,,1,,,,78,100
19924,note_on,40,0,2,,,,,,,,,1,,,,84,100
19925,note_on,40,0,3,,,,,,,,,2,,,,72,101
19925,note_on,0,0,3,,,,,,,,,2,,,,69,101
19927,note_on,0,0,8,,,,,,,,,7,,,,57,110
19927,note_on,60,0,8,,,,,,,,,7,,,,60,110
19928,note_on,30,0,13,,,,,,,,,12,,,,64,112
19929,note_on,40,0,4,,,,,,,,,3,,,,66,100
19929,note_on,0,0,4,,,,,,,,,3,,,,57,100
19932,note_on,30,0,14,,,,,,,,,13,,,,52,112
19933,note_on,60,0,9,,,,,,,,,8,,,,50,110
19934,note_on,30,0,15,,,,,,,,,14,,,,40,112
19950,note_on,30,0,11,,,,,,,,,10,,,,64,0
19953,note_on,30,0,12,,,,,,,,,11,,,,64,0
19958,note_on,30,0,13,,,,,,,,,12,,,,64,0
19962,note_on,30,0,14,,,,,,,,,13,,,,52,0
19964,note_on,30,0,15,,,,,,,,,14,,,,40,0
19980,note_on,30,0,11,,,,,,,,,10,,,,62,112
19982,note_on,60,0,7,,,,,,,,,6,,,,74,0
19983,note_on,30,0,12,,,,,,,,,11,,,,62,112
19983,note_on,60,0,5,,,,,,,,,4,,,,62,0
19984,note_on,60,0,6,,,,,,,,,5,,,,62,0
19987,note_on,0,0,8,,,,,,,,,7,,,,60,0
19987,note_on,60,0,8,,,,,,,,,7,,,,57,0
19988,note_on,30,0,13,,,,,,,,,12,,,,62,112
19992,note_on,30,0,14,,,,,,,,,13,,,,50,112
19993,note_on,60,0,9,,,,,,,,,8,,,,50,0
19994,note_on,30,0,15,,,,,,,,,14,,,,38,112
20001,note_on,80,0,1,,,,,,,,,0,,,,81,0
20001,note_on,0,0,1,,,,,,,,,0,,,,90,0
20004,note_on,80,0,2,,,,,,,,,1,,,,78,0
20004,note_on,0,0,2,,,,,,,,,1,,,,84,0
20005,note_on,80,0,3,,,,,,,,,2,,,,69,0
20005,note_on,0,0,3,,,,,,,,,2,,,,72,0
20009,note_on,80,0,4,,,,,,,,,3,,,,57,0
20009,note_on,0,0,4,,,,,,,,,3,,,,66,0
20010,note_on,30,0,11,,,,,,,,,10,,,,62,0
20013,note_on,30,0,12,,,,,,,,,11,,,,62,0
20018,note_on,30,0,13,,,,,,,,,12,,,,62,0
20022,note_on,30,0,14,,,,,,,,,13,,,,50,0
20024,note_on,30,0,15,,,,,,,,,14,,,,38,0
20040,note_on,30,0,11,,,,,,,,,10,,,,64,112
20040,set_tempo,120,1,0,,,,,,288462,,,,,,,,
20041,note_on,0,0,1,,,,,,,,,0,,,,81,101
20041,note_on,40,0,1,,,,,,,,,0,,,,90,101
20042,note_on,60,0,7,,,,,,,,,6,,,,74,112
20043,note_on,30,0,12,,,,,,,,,11,,,,64,112
20043,note_on,60,0,5,,,,,,,,,4,,,,62,100
20044,note_on,60,0,6,,,,,,,,,5,,,,62,100
20044,note_on,0,0,2,,,,,,,,,1,,,,78,100
20044,note_on,40,0,2,,,,,,,,,1,,,,84,100
20045,note_on,40,0,3,,,,,,,,,2,,,,72,101
20045,note_on,0,0,3,,,,,,,,,2,,,,69,101
20047,note_on,60,0,8,,,,,,,,,7,,,,57,110
20047,note_on,0,0,8,,,,,,,,,7,,,,60,110
20048,note_on,30,0,13,,,,,,,,,12,,,,64,112
20049,note_on,0,0,4,,,,,,,,,3,,,,57,100
20049,note_on,40,0,4,,,,,,,,,3,,,,66,100
20052,note_on,30,0,14,,,,,,,,,13,,,,52,112
20053,note_on,60,0,9,,,,,,,,,8,,,,50,110
20054,note_on,30,0,15,,,,,,,,,14,,,,40,112
20070,note_on,30,0,11,,,,,,,,,10,,,,64,0
20073,note_on,30,0,12,,,,,,,,,11,,,,64,0
20078,note_on,30,0,13,,,,,,,,,12,,,,64,0
20082,note_on,30,0,14,,,,,,,,,13,,,,52,0
20084,note_on,30,0,15,,,,,,,,,14,,,,40,0
20100,note_on,30,0,11,,,,,,,,,10,,,,62,112
20102,note_on,60,0,7,,,,,,,,,6,,,,74,0
20103,note_on,30,0,12,,,,,,,,,11,,,,62,112
20103,note_on,60,0,5,,,,,,,,,4,,,,62,0
20104,note_on,60,0,6,,,,,,,,,5,,,,62,0
20107,note_on,0,0,8,,,,,,,,,7,,,,57,0
20107,note_on,60,0,8,,,,,,,,,7,,,,60,0
20108,note_on,30,0,13,,,,,,,,,12,,,,62,112
20112,note_on,30,0,14,,,,,,,,,13,,,,50,112
20113,note_on,60,0,9,,,,,,,,,8,,,,50,0
20114,note_on,30,0,15,,,,,,,,,14,,,,38,112
20121,note_on,80,0,1,,,,,,,,,0,,,,81,0
20121,note_on,0,0,1,,,,,,,,,0,,,,90,0
20124,note_on,80,0,2,,,,,,,,,1,,,,78,0
20124,note_on,0,0,2,,,,,,,,,1,,,,84,0
20125,note_on,0,0,3,,,,,,,,,2,,,,72,0
20125,note_on,80,0,3,,,,,,,,,2,,,,69,0
20129,note_on,0,0,4,,,,,,,,,3,,,,66,0
20129,note_on,80,0,4,,,,,,,,,3,,,,57,0
20130,note_on,30,0,11,,,,,,,,,10,,,,62,0
20133,note_on,30,0,12,,,,,,,,,11,,,,62,0
20138,note_on,30,0,13,,,,,,,,,12,,,,62,0
20142,note_on,30,0,14,,,,,,,,,13,,,,50,0
20144,note_on,30,0,15,,,,,,,,,14,,,,38,0
20160,set_tempo,120,1,0,,,,,,254237,,,,,,,,
20160,note_on,0,0,11,,,,,,,,,10,,,,67,112
20160,control_change,30,0,11,,,,,,,,,10,11,127,,,
20161,note_on,40,0,1,,,,,,,,,0,,,,91,101
20161,note_on,0,0,1,,,,,,,,,0,,,,83,101
20162,note_on,0,0,7,,,,,,,,,6,,,,67,112
20162,note_on,60,0,7,,,,,,,,,6,,,,74,112
20163,control_change,30,0,12,,,,,,,,,11,11,127,,,
20163,note_on,0,0,12,,,,,,,,,11,,,,67,112
20163,note_on,60,0,5,,,,,,,,,4,,,,67,100
20164,note_on,0,0,2,,,,,,,,,1,,,,79,100
20164,note_on,40,0,2,,,,,,,,,1,,,,83,100
20164,note_on,60,0,6,,,,,,,,,5,,,,55,100
20165,note_on,0,0,3,,,,,,,,,2,,,,71,101
20165,note_on,40,0,3,,,,,,,,,2,,,,67,101
20167,note_on,0,0,8,,,,,,,,,7,,,,59,110
20167,control_change,7,0,11,,,,,,,,,10,11,124,,,
20167,note_on,60,0,8,,,,,,,,,7,,,,55,110
20168,note_on,0,0,13,,,,,,,,,12,,,,67,112
20168,control_change,30,0,13,,,,,,,,,12,11,127,,,
20169,note_on,40,0,4,,,,,,,,,3,,,,67,100
20169,note_on,0,0,4,,,,,,,,,3,,,,59,100
20170,control_change,7,0,12,,,,,,,,,11,11,124,,,
20172,control_change,30,0,14,,,,,,,,,13,11,127,,,
20172,note_on,0,0,14,,,,,,,,,13,,,,55,112
20173,note_on,60,0,9,,,,,,,,,8,,,,43,110
20174,note_on,0,0,15,,,,,,,,,14,,,,43,112
20174,control_change,30,0,15,,,,,,,,,14,11,127,,,
20174,control_change,7,0,11,,,,,,,,,10,11,121,,,
20175,control_change,7,0,13,,,,,,,,,12,11,124,,,
20175,note_on,600,0,10,,,,,,,,,15,,,,43,100
20177,control_change,7,0,12,,,,,,,,,11,11,121,,,
20179,control_change,7,0,14,,,,,,,,,13,11,124,,,
20181,control_change,7,0,11,,,,,,,,,10,11,118,,,
20181,control_change,7,0,15,,,,,,,,,14,11,124,,,
20182,control_change,7,0,13,,,,,,,,,12,11,121,,,
20184,control_change,7,0,12,,,,,,,,,11,11,118,,,
20186,control_change,7,0,14,,,,,,,,,13,11,121,,,
20188,control_change,7,0,11,,,,,,,,,10,11,115,,,
20188,control_change,7,0,15,,,,,,,,,14,11,121,,,
20189,control_change,7,0,13,,,,,,,,,12,11,118,,,
20191,control_change,7,0,12,,,,,,,,,11,11,115,,,
20193,control_change,7,0,14,,,,,,,,,13,11,118,,,
20195,control_change,7,0,15,,,,,,,,,14,11,118,,,
20196,control_change,8,0,11,,,,,,,,,10,11,112,,,
20196,control_change,7,0,13,,,,,,,,,12,11,115,,,
20199,control_change,8,0,12,,,,,,,,,11,11,112,,,
20200,control_change,7,0,14,,,,,,,,,13,11,115,,,
20202,control_change,7,0,15,,,,,,,,,14,11,115,,,
20203,control_change,7,0,11,,,,,,,,,10,11,109,,,
20204,control_change,8,0,13,,,,,,,,,12,11,112,,,
20206,control_change,7,0,12,,,,,,,,,11,11,109,,,
20208,control_change,8,0,14,,,,,,,,,13,11,112,,,
20210,control_change,8,0,15,,,,,,,,,14,11,112,,,
20210,control_change,7,0,11,,,,,,,,,10,11,106,,,
20211,control_change,7,0,13,,,,,,,,,12,11,109,,,
20213,control_change,7,0,12,,,,,,,,,11,11,106,,,
20215,control_change,7,0,14,,,,,,,,,13,11,109,,,
20217,control_change,7,0,15,,,,,,,,,14,11,109,,,
20217,control_change,7,0,11,,,,,,,,,10,11,103,,,
20218,control_change,7,0,13,,,,,,,,,12,11,106,,,
20220,control_change,7,0,12,,,,,,,,,11,11,103,,,
20222,control_change,7,0,14,,,,,,,,,13,11,106,,,
20224,control_change,7,0,15,,,,,,,,,14,11,106,,,
20225,control_change,7,0,13,,,,,,,,,12,11,103,,,
20229,control_change,7,0,14,,,,,,,,,13,11,103,,,
20231,control_change,7,0,15,,,,,,,,,14,11,103,,,
20280,set_tempo,120,1,0,,,,,,263158,,,,,,,,
20280,note_on,63,0,11,,,,,,,,,10,,,,67,0
20281,note_on,0,0,1,,,,,,,,,0,,,,91,0
20281,note_on,120,0,1,,,,,,,,,0,,,,83,0
20282,note_on,120,0,7,,,,,,,,,6,,,,67,0
20282,note_on,0,0,7,,,,,,,,,6,,,,74,0
20283,note_on,120,0,5,,,,,,,,,4,,,,67,0
20283,note_on,63,0,12,,,,,,,,,11,,,,67,0
20284,note_on,120,0,6,,,,,,,,,5,,,,55,0
20284,note_on,120,0,2,,,,,,,,,1,,,,79,0
20284,note_on,0,0,2,,,,,,,,,1,,,,83,0
20285,note_on,120,0,3,,,,,,,,,2,,,,71,0
20285,note_on,0,0,3,,,,,,,,,2,,,,67,0
20287,note_on,0,0,8,,,,,,,,,7,,,,55,0
20287,note_on,120,0,8,,,,,,,,,7,,,,59,0
20288,note_on,63,0,13,,,,,,,,,12,,,,67,0
20289,note_on,0,0,4,,,,,,,,,3,,,,67,0
20289,note_on,120,0,4,,,,,,,,,3,,,,59,0
20292,note_on,63,0,14,,,,,,,,,13,,,,55,0
20293,note_on,120,0,9,,,,,,,,,8,,,,43,0
20294,note_on,63,0,15,,,,,,,,,14,,,,43,0
20295,note_on,120,0,10,,,,,,,,,15,,,,43,0
20400,set_tempo,120,1,0,,,,,,307692,,,,,,,,
20520,note_on,240,0,11,,,,,,,,,10,,,,55,112
20520,set_tempo,120,1,0,,,,,,254237,,,,,,,,
20520,control_change,0,0,11,,,,,,,,,10,11,83,,,
20521,control_change,240,0,1,,,,,,,,,0,11,47,,,
20522,control_change,240,0,7,,,,,,,,,6,11,82,,,
20523,control_change,240,0,5,,,,,,,,,4,11,47,,,
20523,control_change,0,0,12,,,,,,,,,11,11,83,,,
20523,note_on,240,0,12,,,,,,,,,11,,,,55,112
20524,control_change,240,0,6,,,,,,,,,5,11,47,,,
20524,control_change,240,0,2,,,,,,,,,1,11,47,,,
20525,control_change,240,0,3,,,,,,,,,2,11,47,,,
20527,control_change,240,0,8,,,,,,,,,7,11,82,,,
20528,control_change,0,0,13,,,,,,,,,12,11,83,,,
20528,note_on,240,0,13,,,,,,,,,12,,,,55,112
20529,control_change,240,0,4,,,,,,,,,3,11,47,,,
20532,note_on,240,0,14,,,,,,,,,13,,,,43,112
20532,control_change,0,0,14,,,,,,,,,13,11,83,,,
20533,control_change,240,0,9,,,,,,,,,8,11,82,,,
20534,note_on,240,0,15,,,,,,,,,14,,,,31,112
20534,control_change,0,0,15,,,,,,,,,14,11,83,,,
20550,note_on,30,0,11,,,,,,,,,10,,,,55,0
20553,note_on,30,0,12,,,,,,,,,11,,,,55,0
20558,note_on,30,0,13,,,,,,,,,12,,,,55,0
20562,note_on,30,0,14,,,,,,,,,13,,,,43,0
20564,note_on,30,0,15,,,,,,,,,14,,,,31,0
20580,note_on,30,0,11,,,,,,,,,10,,,,55,112
20583,note_on,30,0,12,,,,,,,,,11,,,,55,112
20588,note_on,30,0,13,,,,,,,,,12,,,,55,112
20592,note_on,30,0,14,,,,,,,,,13,,,,43,112
20594,note_on,30,0,15,,,,,,,,,14,,,,31,112
20610,note_on,30,0,11,,,,,,,,,10,,,,55,0
20613,note_on,30,0,12,,,,,,,,,11,,,,55,0
20618,note_on,30,0,13,,,,,,,,,12,,,,55,0
20622,note_on,30,0,14,,,,,,,,,13,,,,43,0
20624,note_on,30,0,15,,,,,,,,,14,,,,31,0
20640,set_tempo,120,1,0,,,,,,263158,,,,,,,,
20640,note_on,30,0,11,,,,,,,,,10,,,,57,112
20643,note_on,30,0,12,,,,,,,,,11,,,,57,112
20648,note_on,30,0,13,,,,,,,,,12,,,,57,112
20652,note_on,30,0,14,,,,,,,,,13,,,,45,112
20654,note_on,30,0,15,,,,,,,,,14,,,,33,112
20670,note_on,30,0,11,,,,,,,,,10,,,,57,0
20673,note_on,30,0,12,,,,,,,,,11,,,,57,0
20678,note_on,30,0,13,,,,,,,,,12,,,,57,0
20682,note_on,30,0,14,,,,,,,,,13,,,,45,0
20684,note_on,30,0,15,,,,,,,,,14,,,,33,0
20700,note_on,30,0,11,,,,,,,,,10,,,,55,112
20703,note_on,30,0,12,,,,,,,,,11,,,,55,112
20708,note_on,30,0,13,,,,,,,,,12,,,,55,112
20712,note_on,30,0,14,,,,,,,,,13,,,,43,112
20714,note_on,30,0,15,,,,,,,,,14,,,,31,112
20730,note_on,30,0,11,,,,,,,,,10,,,,55,0
20733,note_on,30,0,12,,,,,,,,,11,,,,55,0
20738,note_on,30,0,13,,,,,,,,,12,,,,55,0
20742,note_on,30,0,14,,,,,,,,,13,,,,43,0
20744,note_on,30,0,15,,,,,,,,,14,,,,31,0
20760,note_on,30,0,11,,,,,,,,,10,,,,57,112
20760,set_tempo,120,1,0,,,,,,288462,,,,,,,,
20763,note_on,30,0,12,,,,,,,,,11,,,,57,112
20768,note_on,30,0,13,,,,,,,,,12,,,,57,112
20772,note_on,30,0,14,,,,,,,,,13,,,,45,112
20774,note_on,30,0,15,,,,,,,,,14,,,,33,112
20790,note_on,30,0,11,,,,,,,,,10,,,,57,0
20793,note_on,30,0,12,,,,,,,,,11,,,,57,0
20798,note_on,30,0,13,,,,,,,,,12,,,,57,0
20802,note_on,30,0,14,,,,,,,,,13,,,,45,0
20804,note_on,30,0,15,,,,,,,,,14,,,,33,0
20820,note_on,30,0,11,,,,,,,,,10,,,,55,112
20823,note_on,30,0,12,,,,,,,,,11,,,,55,112
20828,note_on,30,0,13,,,,,,,,,12,,,,55,112
20832,note_on,30,0,14,,,,,,,,,13,,,,43,112
20834,note_on,30,0,15,,,,,,,,,14,,,,31,112
20850,note_on,30,0,11,,,,,,,,,10,,,,55,0
20853,note_on,30,0,12,,,,,,,,,11,,,,55,0
20858,note_on,30,0,13,,,,,,,,,12,,,,55,0
20862,note_on,30,0,14,,,,,,,,,13,,,,43,0
20864,note_on,30,0,15,,,,,,,,,14,,,,31,0
20880,note_on,30,0,11,,,,,,,,,10,,,,60,112
20880,set_tempo,120,1,0,,,,,,258621,,,,,,,,
20883,note_on,30,0,12,,,,,,,,,11,,,,60,112
20888,note_on,30,0,13,,,,,,,,,12,,,,60,112
20892,note_on,30,0,14,,,,,,,,,13,,,,48,112
20894,note_on,30,0,15,,,,,,,,,14,,,,36,112
20940,note_on,60,0,11,,,,,,,,,10,,,,60,0
20943,note_on,60,0,12,,,,,,,,,11,,,,60,0
20948,note_on,60,0,13,,,,,,,,,12,,,,60,0
20952,note_on,60,0,14,,,,,,,,,13,,,,48,0
20954,note_on,60,0,15,,,,,,,,,14,,,,36,0
21000,note_on,60,0,11,,,,,,,,,10,,,,60,112
21003,note_on,60,0,12,,,,,,,,,11,,,,60,112
21008,note_on,60,0,13,,,,,,,,,12,,,,60,112
21012,note_on,60,0,14,,,,,,,,,13,,,,48,112
21014,note_on,60,0,15,,,,,,,,,14,,,,36,112
21060,note_on,60,0,11,,,,,,,,,10,,,,60,0
21063,note_on,60,0,12,,,,,,,,,11,,,,60,0
21068,note_on,60,0,13,,,,,,,,,12,,,,60,0
21072,note_on,60,0,14,,,,,,,,,13,,,,48,0
21074,note_on,60,0,15,,,,,,,,,14,,,,36,0
21120,note_on,60,0,11,,,,,,,,,10,,,,60,112
21120,set_tempo,240,1,0,,,,,,288462,,,,,,,,
21123,note_on,60,0,12,,,,,,,,,11,,,,60,112
21128,note_on,60,0,13,,,,,,,,,12,,,,60,112
21132,note_on,60,0,14,,,,,,,,,13,,,,48,112
21134,note_on,60,0,15,,,,,,,,,14,,,,36,112
21180,note_on,60,0,11,,,,,,,,,10,,,,60,0
21183,note_on,60,0,12,,,,,,,,,11,,,,60,0
21188,note_on,60,0,13,,,,,,,,,12,,,,60,0
21192,note_on,60,0,14,,,,,,,,,13,,,,48,0
21194,note_on,60,0,15,,,,,,,,,14,,,,36,0
21240,set_tempo,120,1,0,,,,,,254237,,,,,,,,
21240,note_on,60,0,11,,,,,,,,,10,,,,59,112
21243,note_on,60,0,12,,,,,,,,,11,,,,59,112
21248,note_on,60,0,13,,,,,,,,,12,,,,59,112
21252,note_on,60,0,14,,,,,,,,,13,,,,47,112
21254,note_on,60,0,15,,,,,,,,,14,,,,35,112
21270,note_on,30,0,11,,,,,,,,,10,,,,59,0
21273,note_on,30,0,12,,,,,,,,,11,,,,59,0
21278,note_on,30,0,13,,,,,,,,,12,,,,59,0
21282,note_on,30,0,14,,,,,,,,,13,,,,47,0
21284,note_on,30,0,15,,,,,,,,,14,,,,35,0
21300,note_on,30,0,11,,,,,,,,,10,,,,60,112
21303,note_on,30,0,12,,,,,,,,,11,,,,60,112
21308,note_on,30,0,13,,,,,,,,,12,,,,60,112
21312,note_on,30,0,14,,,,,,,,,13,,,,48,112
21314,note_on,30,0,15,,,,,,,,,14,,,,36,112
21330,note_on,30,0,11,,,,,,,,,10,,,,60,0
21333,note_on,30,0,12,,,,,,,,,11,,,,60,0
21338,note_on,30,0,13,,,,,,,,,12,,,,60,0
21342,note_on,30,0,14,,,,,,,,,13,,,,48,0
21344,note_on,30,0,15,,,,,,,,,14,,,,36,0
21360,set_tempo,120,1,0,,,,,,263158,,,,,,,,
21360,note_on,30,0,11,,,,,,,,,10,,,,57,112
21363,note_on,30,0,12,,,,,,,,,11,,,,57,112
21368,note_on,30,0,13,,,,,,,,,12,,,,57,112
21372,note_on,30,0,14,,,,,,,,,13,,,,45,112
21374,note_on,30,0,15,,,,,,,,,14,,,,33,112
21390,note_on,30,0,11,,,,,,,,,10,,,,57,0
21393,note_on,30,0,12,,,,,,,,,11,,,,57,0
21398,note_on,30,0,13,,,,,,,,,12,,,,57,0
21402,note_on,30,0,14,,,,,,,,,13,,,,45,0
21404,note_on,30,0,15,,,,,,,,,14,,,,33,0
21420,note_on,30,0,11,,,,,,,,,10,,,,59,112
21423,note_on,30,0,12,,,,,,,,,11,,,,59,112
21428,note_on,30,0,13,,,,,,,,,12,,,,59,112
21432,note_on,30,0,14,,,,,,,,,13,,,,47,112
21434,note_on,30,0,15,,,,,,,,,14,,,,35,112
21450,note_on,30,0,11,,,,,,,,,10,,,,59,0
21453,note_on,30,0,12,,,,,,,,,11,,,,59,0
21458,note_on,30,0,13,,,,,,,,,12,,,,59,0
21462,note_on,30,0,14,,,,,,,,,13,,,,47,0
21464,note_on,30,0,15,,,,,,,,,14,,,,35,0
21480,set_tempo,120,1,0,,,,,,288462,,,,,,,,
21480,note_on,30,0,11,,,,,,,,,10,,,,60,112
21483,note_on,30,0,12,,,,,,,,,11,,,,60,112
21488,note_on,30,0,13,,,,,,,,,12,,,,60,112
21492,note_on,30,0,14,,,,,,,,,13,,,,48,112
21494,note_on,30,0,15,,,,,,,,,14,,,,36,112
21510,note_on,30,0,11,,,,,,,,,10,,,,60,0
21513,note_on,30,0,12,,,,,,,,,11,,,,60,0
21518,note_on,30,0,13,,,,,,,,,12,,,,60,0
21522,note_on,30,0,14,,,,,,,,,13,,,,48,0
21524,note_on,30,0,15,,,,,,,,,14,,,,36,0
21540,note_on,30,0,11,,,,,,,,,10,,,,62,112
21543,note_on,30,0,12,,,,,,,,,11,,,,62,112
21548,note_on,30,0,13,,,,,,,,,12,,,,62,112
21552,note_on,30,0,14,,,,,,,,,13,,,,50,112
21554,note_on,30,0,15,,,,,,,,,14,,,,38,112
21570,note_on,30,0,11,,,,,,,,,10,,,,62,0
21573,note_on,30,0,12,,,,,,,,,11,,,,62,0
21578,note_on,30,0,13,,,,,,,,,12,,,,62,0
21582,note_on,30,0,14,,,,,,,,,13,,,,50,0
21584,note_on,30,0,15,,,,,,,,,14,,,,38,0
21600,control_change,30,0,11,,,,,,,,,10,11,112,,,
21600,note_on,0,0,11,,,,,,,,,10,,,,64,112
21600,set_tempo,120,1,0,,,,,,254237,,,,,,,,
21603,control_change,30,0,12,,,,,,,,,11,11,112,,,
21603,note_on,0,0,12,,,,,,,,,11,,,,64,112
21606,control_change,6,0,11,,,,,,,,,10,11,109,,,
21608,control_change,30,0,13,,,,,,,,,12,11,112,,,
21608,note_on,0,0,13,,,,,,,,,12,,,,64,112
21609,control_change,6,0,12,,,,,,,,,11,11,109,,,
21612,note_on,0,0,14,,,,,,,,,13,,,,52,112
21612,control_change,30,0,14,,,,,,,,,13,11,112,,,
21612,control_change,6,0,11,,,,,,,,,10,11,106,,,
21614,note_on,30,0,15,,,,,,,,,14,,,,40,112
21614,control_change,0,0,15,,,,,,,,,14,11,112,,,
21614,control_change,6,0,13,,,,,,,,,12,11,109,,,
21615,control_change,6,0,12,,,,,,,,,11,11,106,,,
21618,control_change,6,0,11,,,,,,,,,10,11,103,,,
21618,control_change,6,0,14,,,,,,,,,13,11,109,,,
21620,control_change,6,0,15,,,,,,,,,14,11,109,,,
21620,control_change,6,0,13,,,,,,,,,12,11,106,,,
21621,control_change,6,0,12,,,,,,,,,11,11,103,,,
21624,control_change,6,0,14,,,,,,,,,13,11,106,,,
21624,control_change,6,0,11,,,,,,,,,10,11,100,,,
21626,control_change,6,0,15,,,,,,,,,14,11,106,,,
21626,control_change,6,0,13,,,,,,,,,12,11,103,,,
21627,control_change,6,0,12,,,,,,,,,11,11,100,,,
21630,control_change,6,0,14,,,,,,,,,13,11,103,,,
21630,control_change,6,0,11,,,,,,,,,10,11,97,,,
21632,control_change,6,0,15,,,,,,,,,14,11,103,,,
21632,control_change,6,0,13,,,,,,,,,12,11,100,,,
21633,control_change,6,0,12,,,,,,,,,11,11,97,,,
21636,control_change,6,0,11,,,,,,,,,10,11,94,,,
21636,control_change,6,0,14,,,,,,,,,13,11,100,,,
21638,control_change,6,0,13,,,,,,,,,12,11,97,,,
21638,control_change,6,0,15,,,,,,,,,14,11,100,,,
21639,control_change,6,0,12,,,,,,,,,11,11,94,,,
21642,control_change,6,0,14,,,,,,,,,13,11,97,,,
21642,control_change,6,0,11,,,,,,,,,10,11,91,,,
21644,control_change,6,0,13,,,,,,,,,12,11,94,,,
21644,control_change,6,0,15,,,,,,,,,14,11,97,,,
21645,control_change,6,0,12,,,,,,,,,11,11,91,,,
21648,control_change,6,0,11,,,,,,,,,10,11,88,,,
21648,control_change,6,0,14,,,,,,,,,13,11,94,,,
21650,control_change,6,0,15,,,,,,,,,14,11,94,,,
21650,control_change,6,0,13,,,,,,,,,12,11,91,,,
21651,control_change,6,0,12,,,,,,,,,11,11,88,,,
21654,control_change,6,0,14,,,,,,,,,13,11,91,,,
21656,control_change,6,0,15,,,,,,,,,14,11,91,,,
21656,control_change,6,0,13,,,,,,,,,12,11,88,,,
21660,control_change,12,0,11,,,,,,,,,10,11,83,,,
21660,control_change,6,0,14,,,,,,,,,13,11,88,,,
21662,control_change,6,0,15,,,,,,,,,14,11,88,,,
21663,control_change,12,0,12,,,,,,,,,11,11,83,,,
21668,control_change,12,0,13,,,,,,,,,12,11,83,,,
21672,control_change,12,0,14,,,,,,,,,13,11,83,,,
21674,control_change,12,0,15,,,,,,,,,14,11,83,,,
21720,set_tempo,120,1,0,,,,,,263158,,,,,,,,
21720,control_change,60,0,11,,,,,,,,,10,11,83,,,
21723,control_change,60,0,12,,,,,,,,,11,11,83,,,
21728,control_change,60,0,13,,,,,,,,,12,11,83,,,
21732,control_change,60,0,14,,,,,,,,,13,11,83,,,
21734,control_change,60,0,15,,,,,,,,,14,11,83,,,
21741,control_change,21,0,11,,,,,,,,,10,11,81,,,
21744,control_change,21,0,12,,,,,,,,,11,11,81,,,
21749,control_change,21,0,13,,,,,,,,,12,11,81,,,
21753,control_change,21,0,14,,,,,,,,,13,11,81,,,
21755,control_change,21,0,15,,,,,,,,,14,11,81,,,
21762,control_change,21,0,11,,,,,,,,,10,11,79,,,
21765,control_change,21,0,12,,,,,,,,,11,11,79,,,
21770,control_change,21,0,13,,,,,,,,,12,11,79,,,
21774,control_change,21,0,14,,,,,,,,,13,11,79,,,
21776,control_change,21,0,15,,,,,,,,,14,11,79,,,
21783,control_change,21,0,11,,,,,,,,,10,11,77,,,
21786,control_change,21,0,12,,,,,,,,,11,11,77,,,
21791,control_change,21,0,13,,,,,,,,,12,11,77,,,
21795,control_change,21,0,14,,,,,,,,,13,11,77,,,
21797,control_change,21,0,15,,,,,,,,,14,11,77,,,
21804,control_change,21,0,11,,,,,,,,,10,11,75,,,
21807,control_change,21,0,12,,,,,,,,,11,11,75,,,
21812,control_change,21,0,13,,,,,,,,,12,11,75,,,
21816,control_change,21,0,14,,,,,,,,,13,11,75,,,
21818,control_change,21,0,15,,,,,,,,,14,11,75,,,
21825,control_change,21,0,11,,,,,,,,,10,11,73,,,
21828,control_change,21,0,12,,,,,,,,,11,11,73,,,
21833,control_change,21,0,13,,,,,,,,,12,11,73,,,
21837,control_change,21,0,14,,,,,,,,,13,11,73,,,
21839,control_change,21,0,15,,,,,,,,,14,11,73,,,
21840,set_tempo,120,1,0,,,,,,307692,,,,,,,,
21846,control_change,21,0,11,,,,,,,,,10,11,72,,,
21849,control_change,21,0,12,,,,,,,,,11,11,72,,,
21854,control_change,21,0,13,,,,,,,,,12,11,72,,,
21858,control_change,21,0,14,,,,,,,,,13,11,72,,,
21860,control_change,21,0,15,,,,,,,,,14,11,72,,,
21867,control_change,21,0,11,,,,,,,,,10,11,70,,,
21870,control_change,21,0,12,,,,,,,,,11,11,70,,,
21875,control_change,21,0,13,,,,,,,,,12,11,70,,,
21879,control_change,21,0,14,,,,,,,,,13,11,70,,,
21881,control_change,21,0,15,,,,,,,,,14,11,70,,,
21888,control_change,21,0,11,,,,,,,,,10,11,68,,,
21891,control_change,21,0,12,,,,,,,,,11,11,68,,,
21896,control_change,21,0,13,,,,,,,,,12,11,68,,,
21900,control_change,21,0,14,,,,,,,,,13,11,68,,,
21902,control_change,21,0,15,,,,,,,,,14,11,68,,,
21909,control_change,21,0,11,,,,,,,,,10,11,66,,,
21912,control_change,21,0,12,,,,,,,,,11,11,66,,,
21917,control_change,21,0,13,,,,,,,,,12,11,66,,,
21921,control_change,21,0,14,,,,,,,,,13,11,66,,,
21923,control_change,21,0,15,,,,,,,,,14,11,66,,,
21930,control_change,21,0,11,,,,,,,,,10,11,64,,,
21932,note_on,2,0,11,,,,,,,,,10,,,,64,0
21933,control_change,21,0,12,,,,,,,,,11,11,64,,,
21935,note_on,2,0,12,,,,,,,,,11,,,,64,0
21938,control_change,21,0,13,,,,,,,,,12,11,64,,,
21940,note_on,2,0,13,,,,,,,,,12,,,,64,0
21942,control_change,21,0,14,,,,,,,,,13,11,64,,,
21944,control_change,21,0,15,,,,,,,,,14,11,64,,,
21944,note_on,2,0,14,,,,,,,,,13,,,,52,0
21946,note_on,2,0,15,,,,,,,,,14,,,,40,0
21960,set_tempo,120,1,0,,,,,,254237,,,,,,,,
21963,note_on,1440,0,5,,,,,,,,,4,,,,62,115
21964,note_on,0,0,2,,,,,,,,,1,,,,79,100
21964,note_on,1440,0,6,,,,,,,,,5,,,,55,115
21964,note_on,1440,0,2,,,,,,,,,1,,,,71,115
21984,note_on,20,0,2,,,,,,,,,1,,,,79,0
22024,note_on,40,0,2,,,,,,,,,1,,,,79,100
22044,note_on,20,0,2,,,,,,,,,1,,,,79,0
22080,set_tempo,120,1,0,,,,,,263158,,,,,,,,
22084,note_on,40,0,2,,,,,,,,,1,,,,81,100
22144,note_on,60,0,2,,,,,,,,,1,,,,81,0
22144,note_on,0,0,2,,,,,,,,,1,,,,79,100
22200,set_tempo,120,1,0,,,,,,288462,,,,,,,,
22204,note_on,60,0,2,,,,,,,,,1,,,,79,0
22204,note_on,0,0,2,,,,,,,,,1,,,,81,100
22264,note_on,0,0,2,,,,,,,,,1,,,,79,100
22264,note_on,60,0,2,,,,,,,,,1,,,,81,0
22320,set_tempo,120,1,0,,,,,,254237,,,,,,,,
22323,note_on,360,0,5,,,,,,,,,4,,,,62,0
22323,note_on,0,0,5,,,,,,,,,4,,,,64,100
22324,note_on,0,0,6,,,,,,,,,5,,,,60,100
22324,note_on,0,0,2,,,,,,,,,1,,,,76,100
22324,note_on,60,0,2,,,,,,,,,1,,,,79,0
22324,note_on,0,0,2,,,,,,,,,1,,,,71,0
22324,note_on,0,0,2,,,,,,,,,1,,,,72,100
22324,note_on,360,0,6,,,,,,,,,5,,,,55,0
22335,note_on,2040,0,10,,,,,,,,,15,,,,48,35
22363,note_on,40,0,5,,,,,,,,,4,,,,64,0
22364,note_on,40,0,6,,,,,,,,,5,,,,60,0
22364,note_on,0,0,2,,,,,,,,,1,,,,72,0
22364,note_on,40,0,2,,,,,,,,,1,,,,76,0
22365,note_on,30,0,10,,,,,,,,,15,,,,48,0
22395,note_on,30,0,10,,,,,,,,,15,,,,48,35
22425,note_on,30,0,10,,,,,,,,,15,,,,48,0
22440,set_tempo,120,1,0,,,,,,263158,,,,,,,,
22443,note_on,80,0,5,,,,,,,,,4,,,,64,100
22444,note_on,80,0,6,,,,,,,,,5,,,,55,100
22444,note_on,80,0,2,,,,,,,,,1,,,,72,100
22444,note_on,0,0,2,,,,,,,,,1,,,,76,100
22455,note_on,30,0,10,,,,,,,,,15,,,,43,35
22483,note_on,40,0,5,,,,,,,,,4,,,,64,0
22484,note_on,0,0,2,,,,,,,,,1,,,,72,0
22484,note_on,40,0,2,,,,,,,,,1,,,,76,0
22484,note_on,40,0,6,,,,,,,,,5,,,,55,0
22485,note_on,30,0,10,,,,,,,,,15,,,,43,0
22515,note_on,30,0,10,,,,,,,,,15,,,,48,35
22545,note_on,30,0,10,,,,,,,,,15,,,,48,0
22560,set_tempo,120,1,0,,,,,,288462,,,,,,,,
22563,note_on,80,0,5,,,,,,,,,4,,,,64,100
22564,note_on,80,0,2,,,,,,,,,1,,,,76,100
22564,note_on,80,0,6,,,,,,,,,5,,,,52,100
22564,note_on,0,0,2,,,,,,,,,1,,,,72,100
22575,note_on,30,0,10,,,,,,,,,15,,,,43,35
22603,note_on,40,0,5,,,,,,,,,4,,,,64,0
22604,note_on,40,0,6,,,,,,,,,5,,,,52,0
22604,note_on,40,0,2,,,,,,,,,1,,,,72,0
22604,note_on,0,0,2,,,,,,,,,1,,,,76,0
22605,note_on,30,0,10,,,,,,,,,15,,,,43,0
22635,note_on,30,0,10,,,,,,,,,15,,,,48,35
22665,note_on,30,0,10,,,,,,,,,15,,,,48,0
22680,set_tempo,120,1,0,,,,,,254237,,,,,,,,
22681,note_on,2160,0,1,,,,,,,,,0,,,,91,116
22683,note_on,80,0,5,,,,,,,,,4,,,,62,115
22684,note_on,80,0,2,,,,,,,,,1,,,,74,100
22684,note_on,0,0,2,,,,,,,,,1,,,,71,100
22684,note_on,80,0,6,,,,,,,,,5,,,,55,115
22695,note_on,30,0,10,,,,,,,,,15,,,,43,35
22711,note_on,30,0,1,,,,,,,,,0,,,,91,0
22741,note_on,30,0,1,,,,,,,,,0,,,,91,101
22744,note_on,60,0,2,,,,,,,,,1,,,,71,0
22744,note_on,0,0,2,,,,,,,,,1,,,,74,0
22755,note_on,60,0,10,,,,,,,,,15,,,,43,0
22771,note_on,30,0,1,,,,,,,,,0,,,,91,0
22800,set_tempo,120,1,0,,,,,,263158,,,,,,,,
22801,note_on,30,0,1,,,,,,,,,0,,,,93,101
22804,note_on,0,0,2,,,,,,,,,1,,,,74,100
22804,note_on,60,0,2,,,,,,,,,1,,,,71,100
22815,note_on,60,0,10,,,,,,,,,15,,,,43,35
22861,note_on,60,0,1,,,,,,,,,0,,,,93,0
22861,note_on,0,0,1,,,,,,,,,0,,,,91,101
22864,note_on,60,0,2,,,,,,,,,1,,,,74,0
22864,note_on,0,0,2,,,,,,,,,1,,,,71,0
22875,note_on,60,0,10,,,,,,,,,15,,,,43,0
22920,set_tempo,120,1,0,,,,,,288462,,,,,,,,
22921,note_on,60,0,1,,,,,,,,,0,,,,91,0
22921,note_on,0,0,1,,,,,,,,,0,,,,93,101
22924,note_on,60,0,2,,,,,,,,,1,,,,74,100
22924,note_on,0,0,2,,,,,,,,,1,,,,71,100
22935,note_on,60,0,10,,,,,,,,,15,,,,43,35
22953,note_on,270,0,5,,,,,,,,,4,,,,62,0
22954,note_on,270,0,6,,,,,,,,,5,,,,55,0
22981,note_on,60,0,1,,,,,,,,,0,,,,93,0
22981,note_on,0,0,1,,,,,,,,,0,,,,91,101
22984,note_on,0,0,2,,,,,,,,,1,,,,74,0
22984,note_on,60,0,2,,,,,,,,,1,,,,71,0
22995,note_on,60,0,10,,,,,,,,,15,,,,43,0
23040,set_tempo,120,1,0,,,,,,258621,,,,,,,,
23041,note_on,0,0,1,,,,,,,,,0,,,,88,101
23041,note_on,60,0,1,,,,,,,,,0,,,,91,0
23043,note_on,90,0,5,,,,,,,,,4,,,,64,100
23044,note_on,90,0,6,,,,,,,,,5,,,,60,100
23044,note_on,0,0,2,,,,,,,,,1,,,,72,100
23044,note_on,60,0,2,,,,,,,,,1,,,,76,100
23055,note_on,60,0,10,,,,,,,,,15,,,,48,35
23101,note_on,60,0,1,,,,,,,,,0,,,,88,0
23103,note_on,60,0,5,,,,,,,,,4,,,,64,0
23104,note_on,60,0,6,,,,,,,,,5,,,,60,0
23161,note_on,60,0,1,,,,,,,,,0,,,,88,101
23163,note_on,60,0,5,,,,,,,,,4,,,,64,100
23164,note_on,60,0,6,,,,,,,,,5,,,,55,100
23175,note_on,120,0,10,,,,,,,,,15,,,,48,0
23221,note_on,60,0,1,,,,,,,,,0,,,,88,0
23223,note_on,60,0,5,,,,,,,,,4,,,,64,0
23224,note_on,60,0,6,,,,,,,,,5,,,,55,0
23280,set_tempo,240,1,0,,,,,,288462,,,,,,,,
23281,note_on,60,0,1,,,,,,,,,0,,,,88,101
23283,note_on,60,0,5,,,,,,,,,4,,,,64,100
23284,note_on,60,0,6,,,,,,,,,5,,,,52,100
23341,note_on,60,0,1,,,,,,,,,0,,,,88,0
23343,note_on,60,0,5,,,,,,,,,4,,,,64,0
23344,note_on,60,0,6,,,,,,,,,5,,,,52,0
23400,set_tempo,120,1,0,,,,,,254237,,,,,,,,
23401,note_on,60,0,1,,,,,,,,,0,,,,86,101
23403,note_on,60,0,5,,,,,,,,,4,,,,62,115
23404,note_on,0,0,2,,,,,,,,,1,,,,77,100
23404,note_on,60,0,6,,,,,,,,,5,,,,55,115
23404,note_on,0,0,2,,,,,,,,,1,,,,76,0
23404,note_on,0,0,2,,,,,,,,,1,,,,71,100
23404,note_on,360,0,2,,,,,,,,,1,,,,72,0
23405,note_on,0,0,3,,,,,,,,,2,,,,71,116
23405,note_on,2880,0,3,,,,,,,,,2,,,,79,101
23435,note_on,30,0,3,,,,,,,,,2,,,,79,0
23461,note_on,60,0,1,,,,,,,,,0,,,,86,0
23464,note_on,0,0,2,,,,,,,,,1,,,,71,0
23464,note_on,60,0,2,,,,,,,,,1,,,,77,0
23465,note_on,30,0,3,,,,,,,,,2,,,,79,101
23495,note_on,30,0,3,,,,,,,,,2,,,,79,0
23520,set_tempo,120,1,0,,,,,,263158,,,,,,,,
23521,note_on,60,0,1,,,,,,,,,0,,,,86,101
23524,note_on,60,0,2,,,,,,,,,1,,,,71,100
23524,note_on,0,0,2,,,,,,,,,1,,,,77,100
23525,note_on,30,0,3,,,,,,,,,2,,,,81,101
23581,note_on,60,0,1,,,,,,,,,0,,,,86,0
23584,note_on,0,0,2,,,,,,,,,1,,,,71,0
23584,note_on,60,0,2,,,,,,,,,1,,,,77,0
23585,note_on,0,0,3,,,,,,,,,2,,,,79,101
23585,note_on,60,0,3,,,,,,,,,2,,,,81,0
23640,set_tempo,120,1,0,,,,,,288462,,,,,,,,
23641,note_on,60,0,1,,,,,,,,,0,,,,86,101
23644,note_on,60,0,2,,,,,,,,,1,,,,71,100
23644,note_on,0,0,2,,,,,,,,,1,,,,77,100
23645,note_on,60,0,3,,,,,,,,,2,,,,79,0
23645,note_on,0,0,3,,,,,,,,,2,,,,81,101
23701,note_on,60,0,1,,,,,,,,,0,,,,86,0
23704,note_on,0,0,2,,,,,,,,,1,,,,71,0
23704,note_on,60,0,2,,,,,,,,,1,,,,77,0
23705,note_on,0,0,3,,,,,,,,,2,,,,79,101
23705,note_on,60,0,3,,,,,,,,,2,,,,81,0
23760,set_tempo,120,1,0,,,,,,254237,,,,,,,,
23761,note_on,60,0,1,,,,,,,,,0,,,,88,101
23763,note_on,0,0,5,,,,,,,,,4,,,,64,100
23763,note_on,360,0,5,,,,,,,,,4,,,,62,0
23764,note_on,0,0,2,,,,,,,,,1,,,,76,100
23764,note_on,0,0,6,,,,,,,,,5,,,,60,100
23764,note_on,60,0,2,,,,,,,,,1,,,,72,100
23764,note_on,360,0,6,,,,,,,,,5,,,,55,0
23765,note_on,60,0,3,,,,,,,,,2,,,,79,0
23765,note_on,0,0,3,,,,,,,,,2,,,,76,101
23765,note_on,0,0,3,,,,,,,,,2,,,,72,101
23765,note_on,0,0,3,,,,,,,,,2,,,,71,0
23775,note_on,600,0,10,,,,,,,,,15,,,,48,35
23805,note_on,30,0,10,,,,,,,,,15,,,,48,0
23823,note_on,60,0,5,,,,,,,,,4,,,,64,0
23824,note_on,60,0,6,,,,,,,,,5,,,,60,0
23825,note_on,60,0,3,,,,,,,,,2,,,,72,0
23825,note_on,0,0,3,,,,,,,,,2,,,,76,0
23835,note_on,30,0,10,,,,,,,,,15,,,,48,35
23865,note_on,30,0,10,,,,,,,,,15,,,,48,0
23880,set_tempo,120,1,0,,,,,,263158,,,,,,,,
23883,note_on,60,0,5,,,,,,,,,4,,,,64,100
23884,note_on,60,0,6,,,,,,,,,5,,,,55,100
23885,note_on,0,0,3,,,,,,,,,2,,,,72,101
23885,note_on,60,0,3,,,,,,,,,2,,,,76,101
23895,note_on,30,0,10,,,,,,,,,15,,,,43,35
23925,note_on,30,0,10,,,,,,,,,15,,,,43,0
23943,note_on,60,0,5,,,,,,,,,4,,,,64,0
23944,note_on,60,0,6,,,,,,,,,5,,,,55,0
23945,note_on,60,0,3,,,,,,,,,2,,,,72,0
23945,note_on,0,0,3,,,,,,,,,2,,,,76,0
23955,note_on,30,0,10,,,,,,,,,15,,,,48,35
23985,note_on,30,0,10,,,,,,,,,15,,,,48,0
24000,set_tempo,120,1,0,,,,,,288462,,,,,,,,
24003,note_on,60,0,5,,,,,,,,,4,,,,64,100
24004,note_on,60,0,6,,,,,,,,,5,,,,60,100
24005,note_on,0,0,3,,,,,,,,,2,,,,76,101
24005,note_on,60,0,3,,,,,,,,,2,,,,72,101
24015,note_on,30,0,10,,,,,,,,,15,,,,43,35
24045,note_on,30,0,10,,,,,,,,,15,,,,43,0
24063,note_on,60,0,5,,,,,,,,,4,,,,64,0
24064,note_on,60,0,6,,,,,,,,,5,,,,60,0
24065,note_on,0,0,3,,,,,,,,,2,,,,72,0
24065,note_on,60,0,3,,,,,,,,,2,,,,76,0
24075,note_on,30,0,10,,,,,,,,,15,,,,48,35
24105,note_on,30,0,10,,,,,,,,,15,,,,48,0
24120,set_tempo,120,1,0,,,,,,254237,,,,,,,,
24121,note_on,0,0,1,,,,,,,,,0,,,,91,69
24121,note_on,0,0,1,,,,,,,,,0,,,,86,69
24121,note_on,360,0,1,,,,,,,,,0,,,,88,0
24123,note_on,60,0,5,,,,,,,,,4,,,,67,100
24124,note_on,0,0,2,,,,,,,,,1,,,,83,68
24124,note_on,0,0,2,,,,,,,,,1,,,,72,0
24124,note_on,360,0,2,,,,,,,,,1,,,,76,0
24124,note_on,60,0,6,,,,,,,,,5,,,,65,100
24124,note_on,0,0,2,,,,,,,,,1,,,,77,80
24125,note_on,60,0,3,,,,,,,,,2,,,,71,81
24125,note_on,0,0,3,,,,,,,,,2,,,,74,81
24129,note_on,3600,0,4,,,,,,,,,3,,,,55,127
24129,control_change,0,0,4,,,,,,,,,3,11,57,,,
24135,note_on,30,0,10,,,,,,,,,15,,,,43,35
24159,note_on,30,0,4,,,,,,,,,3,,,,55,0
24181,note_on,0,0,1,,,,,,,,,0,,,,91,0
24181,note_on,60,0,1,,,,,,,,,0,,,,86,0
24183,note_on,60,0,5,,,,,,,,,4,,,,67,0
24184,note_on,60,0,2,,,,,,,,,1,,,,77,0
24184,note_on,0,0,2,,,,,,,,,1,,,,83,0
24184,note_on,60,0,6,,,,,,,,,5,,,,65,0
24185,note_on,60,0,3,,,,,,,,,2,,,,74,0
24185,note_on,0,0,3,,,,,,,,,2,,,,71,0
24189,note_on,30,0,4,,,,,,,,,3,,,,55,120
24195,note_on,60,0,10,,,,,,,,,15,,,,43,0
24219,note_on,30,0,4,,,,,,,,,3,,,,55,0
24240,set_tempo,120,1,0,,,,,,263158,,,,,,,,
24241,note_on,0,0,1,,,,,,,,,0,,,,86,69
24241,note_on,60,0,1,,,,,,,,,0,,,,91,69
24243,note_on,60,0,5,,,,,,,,,4,,,,67,100
24244,note_on,60,0,6,,,,,,,,,5,,,,65,100
24244,note_on,0,0,2,,,,,,,,,1,,,,83,68
24244,note_on,60,0,2,,,,,,,,,1,,,,77,80
24245,note_on,0,0,3,,,,,,,,,2,,,,74,81
24245,note_on,60,0,3,,,,,,,,,2,,,,71,81
24249,note_on,30,0,4,,,,,,,,,3,,,,57,120
24255,note_on,60,0,10,,,,,,,,,15,,,,43,35
24301,note_on,60,0,1,,,,,,,,,0,,,,86,0
24301,note_on,0,0,1,,,,,,,,,0,,,,91,0
24303,note_on,60,0,5,,,,,,,,,4,,,,67,0
24304,note_on,0,0,2,,,,,,,,,1,,,,77,0
24304,note_on,60,0,6,,,,,,,,,5,,,,65,0
24304,note_on,60,0,2,,,,,,,,,1,,,,83,0
24305,note_on,0,0,3,,,,,,,,,2,,,,71,0
24305,note_on,60,0,3,,,,,,,,,2,,,,74,0
24309,note_on,0,0,4,,,,,,,,,3,,,,55,120
24309,note_on,60,0,4,,,,,,,,,3,,,,57,0
24315,note_on,60,0,10,,,,,,,,,15,,,,43,0
24360,set_tempo,120,1,0,,,,,,288462,,,,,,,,
24361,note_on,60,0,1,,,,,,,,,0,,,,86,69
24361,note_on,0,0,1,,,,,,,,,0,,,,91,69
24363,note_on,60,0,5,,,,,,,,,4,,,,67,100
24364,note_on,60,0,2,,,,,,,,,1,,,,77,80
24364,note_on,0,0,2,,,,,,,,,1,,,,83,68
24364,note_on,60,0,6,,,,,,,,,5,,,,65,100
24365,note_on,0,0,3,,,,,,,,,2,,,,71,81
24365,note_on,60,0,3,,,,,,,,,2,,,,74,81
24369,note_on,60,0,4,,,,,,,,,3,,,,55,0
24369,note_on,0,0,4,,,,,,,,,3,,,,57,120
24375,note_on,60,0,10,,,,,,,,,15,,,,43,35
24421,note_on,60,0,1,,,,,,,,,0,,,,91,0
24421,note_on,0,0,1,,,,,,,,,0,,,,86,0
24423,note_on,60,0,5,,,,,,,,,4,,,,67,0
24424,note_on,0,0,2,,,,,,,,,1,,,,77,0
24424,note_on,60,0,6,,,,,,,,,5,,,,65,0
24424,note_on,60,0,2,,,,,,,,,1,,,,83,0
24425,note_on,0,0,3,,,,,,,,,2,,,,74,0
24425,note_on,60,0,3,,,,,,,,,2,,,,71,0
24429,note_on,60,0,4,,,,,,,,,3,,,,57,0
24429,note_on,0,0,4,,,,,,,,,3,,,,55,120
24435,note_on,60,0,10,,,,,,,,,15,,,,43,0
24480,set_tempo,120,1,0,,,,,,254237,,,,,,,,
24481,note_on,60,0,1,,,,,,,,,0,,,,88,81
24481,note_on,0,0,1,,,,,,,,,0,,,,84,81
24483,note_on,60,0,5,,,,,,,,,4,,,,67,100
24484,note_on,0,0,2,,,,,,,,,1,,,,76,80
24484,note_on,60,0,2,,,,,,,,,1,,,,84,80
24484,note_on,60,0,6,,,,,,,,,5,,,,64,100
24485,note_on,0,0,3,,,,,,,,,2,,,,72,81
24485,note_on,60,0,3,,,,,,,,,2,,,,76,81
24489,note_on,60,0,4,,,,,,,,,3,,,,55,0
24489,note_on,0,0,4,,,,,,,,,3,,,,60,100
24495,note_on,60,0,10,,,,,,,,,15,,,,48,35
24549,note_on,60,0,4,,,,,,,,,3,,,,60,0
24600,set_tempo,120,1,0,,,,,,263158,,,,,,,,
24609,note_on,60,0,4,,,,,,,,,3,,,,60,100
24615,note_on,120,0,10,,,,,,,,,15,,,,48,0
24669,note_on,60,0,4,,,,,,,,,3,,,,60,0
24720,set_tempo,120,1,0,,,,,,352941,,,,,,,,
24729,note_on,60,0,4,,,,,,,,,3,,,,60,100
24789,note_on,60,0,4,,,,,,,,,3,,,,60,0
24798,note_on,317,0,1,,,,,,,,,0,,,,84,0
24798,note_on,0,0,1,,,,,,,,,0,,,,88,0
24800,note_on,317,0,5,,,,,,,,,4,,,,67,0
24801,note_on,317,0,6,,,,,,,,,5,,,,64,0
24801,note_on,0,0,2,,,,,,,,,1,,,,84,0
24801,note_on,317,0,2,,,,,,,,,1,,,,76,0
24802,note_on,0,0,3,,,,,,,,,2,,,,76,0
24802,note_on,317,0,3,,,,,,,,,2,,,,72,0
24840,note_on,2908,0,11,,,,,,,,,10,,,,55,112
24840,control_change,0,0,11,,,,,,,,,10,11,83,,,
24840,set_tempo,120,1,0,,,,,,254237,,,,,,,,
24843,note_on,2908,0,12,,,,,,,,,11,,,,55,112
24843,control_change,0,0,12,,,,,,,,,11,11,83,,,
24848,control_change,0,0,13,,,,,,,,,12,11,83,,,
24848,note_on,2908,0,13,,,,,,,,,12,,,,55,112
24852,control_change,2908,0,14,,,,,,,,,13,11,83,,,
24852,note_on,0,0,14,,,,,,,,,13,,,,43,112
24854,note_on,0,0,15,,,,,,,,,14,,,,31,112
24854,control_change,2908,0,15,,,,,,,,,14,11,83,,,
24870,note_on,30,0,11,,,,,,,,,10,,,,55,0
24873,note_on,30,0,12,,,,,,,,,11,,,,55,0
24878,note_on,30,0,13,,,,,,,,,12,,,,55,0
24882,note_on,30,0,14,,,,,,,,,13,,,,43,0
24884,note_on,30,0,15,,,,,,,,,14,,,,31,0
24900,note_on,30,0,11,,,,,,,,,10,,,,55,112
24903,note_on,30,0,12,,,,,,,,,11,,,,55,112
24908,note_on,30,0,13,,,,,,,,,12,,,,55,112
24912,note_on,30,0,14,,,,,,,,,13,,,,43,112
24914,note_on,30,0,15,,,,,,,,,14,,,,31,112
24930,note_on,30,0,11,,,,,,,,,10,,,,55,0
24933,note_on,30,0,12,,,,,,,,,11,,,,55,0
24938,note_on,30,0,13,,,,,,,,,12,,,,55,0
24942,note_on,30,0,14,,,,,,,,,13,,,,43,0
24944,note_on,30,0,15,,,,,,,,,14,,,,31,0
24960,note_on,30,0,11,,,,,,,,,10,,,,57,112
24960,set_tempo,120,1,0,,,,,,263158,,,,,,,,
24963,note_on,30,0,12,,,,,,,,,11,,,,57,112
24968,note_on,30,0,13,,,,,,,,,12,,,,57,112
24972,note_on,30,0,14,,,,,,,,,13,,,,45,112
24974,note_on,30,0,15,,,,,,,,,14,,,,33,112
24990,note_on,30,0,11,,,,,,,,,10,,,,57,0
24993,note_on,30,0,12,,,,,,,,,11,,,,57,0
24998,note_on,30,0,13,,,,,,,,,12,,,,57,0
25002,note_on,30,0,14,,,,,,,,,13,,,,45,0
25004,note_on,30,0,15,,,,,,,,,14,,,,33,0
25020,note_on,30,0,11,,,,,,,,,10,,,,55,112
25023,note_on,30,0,12,,,,,,,,,11,,,,55,112
25028,note_on,30,0,13,,,,,,,,,12,,,,55,112
25032,note_on,30,0,14,,,,,,,,,13,,,,43,112
25034,note_on,30,0,15,,,,,,,,,14,,,,31,112
25050,note_on,30,0,11,,,,,,,,,10,,,,55,0
25053,note_on,30,0,12,,,,,,,,,11,,,,55,0
25058,note_on,30,0,13,,,,,,,,,12,,,,55,0
25062,note_on,30,0,14,,,,,,,,,13,,,,43,0
25064,note_on,30,0,15,,,,,,,,,14,,,,31,0
25080,note_on,30,0,11,,,,,,,,,10,,,,57,112
25080,set_tempo,120,1,0,,,,,,288462,,,,,,,,
25083,note_on,30,0,12,,,,,,,,,11,,,,57,112
25088,note_on,30,0,13,,,,,,,,,12,,,,57,112
25092,note_on,30,0,14,,,,,,,,,13,,,,45,112
25094,note_on,30,0,15,,,,,,,,,14,,,,33,112
25110,note_on,30,0,11,,,,,,,,,10,,,,57,0
25113,note_on,30,0,12,,,,,,,,,11,,,,57,0
25118,note_on,30,0,13,,,,,,,,,12,,,,57,0
25122,note_on,30,0,14,,,,,,,,,13,,,,45,0
25124,note_on,30,0,15,,,,,,,,,14,,,,33,0
25140,note_on,30,0,11,,,,,,,,,10,,,,55,112
25143,note_on,30,0,12,,,,,,,,,11,,,,55,112
25148,note_on,30,0,13,,,,,,,,,12,,,,55,112
25152,note_on,30,0,14,,,,,,,,,13,,,,43,112
25154,note_on,30,0,15,,,,,,,,,14,,,,31,112
25170,note_on,30,0,11,,,,,,,,,10,,,,55,0
25173,note_on,30,0,12,,,,,,,,,11,,,,55,0
25178,note_on,30,0,13,,,,,,,,,12,,,,55,0
25182,note_on,30,0,14,,,,,,,,,13,,,,43,0
25184,note_on,30,0,15,,,,,,,,,14,,,,31,0
25200,set_tempo,120,1,0,,,,,,258621,,,,,,,,
25200,note_on,30,0,11,,,,,,,,,10,,,,60,112
25203,note_on,30,0,12,,,,,,,,,11,,,,60,112
25208,note_on,30,0,13,,,,,,,,,12,,,,60,112
25212,note_on,30,0,14,,,,,,,,,13,,,,48,112
25214,note_on,30,0,15,,,,,,,,,14,,,,36,112
25260,note_on,60,0,11,,,,,,,,,10,,,,60,0
25263,note_on,60,0,12,,,,,,,,,11,,,,60,0
25268,note_on,60,0,13,,,,,,,,,12,,,,60,0
25272,note_on,60,0,14,,,,,,,,,13,,,,48,0
25274,note_on,60,0,15,,,,,,,,,14,,,,36,0
25320,note_on,60,0,11,,,,,,,,,10,,,,60,112
25323,note_on,60,0,12,,,,,,,,,11,,,,60,112
25328,note_on,60,0,13,,,,,,,,,12,,,,60,112
25332,note_on,60,0,14,,,,,,,,,13,,,,48,112
25334,note_on,60,0,15,,,,,,,,,14,,,,36,112
25380,note_on,60,0,11,,,,,,,,,10,,,,60,0
25383,note_on,60,0,12,,,,,,,,,11,,,,60,0
25388,note_on,60,0,13,,,,,,,,,12,,,,60,0
25392,note_on,60,0,14,,,,,,,,,13,,,,48,0
25394,note_on,60,0,15,,,,,,,,,14,,,,36,0
25440,note_on,60,0,11,,,,,,,,,10,,,,60,112
25440,set_tempo,240,1,0,,,,,,288462,,,,,,,,
25443,note_on,60,0,12,,,,,,,,,11,,,,60,112
25448,note_on,60,0,13,,,,,,,,,12,,,,60,112
25452,note_on,60,0,14,,,,,,,,,13,,,,48,112
25454,note_on,60,0,15,,,,,,,,,14,,,,36,112
25500,note_on,60,0,11,,,,,,,,,10,,,,60,0
25503,note_on,60,0,12,,,,,,,,,11,,,,60,0
25508,note_on,60,0,13,,,,,,,,,12,,,,60,0
25512,note_on,60,0,14,,,,,,,,,13,,,,48,0
25514,note_on,60,0,15,,,,,,,,,14,,,,36,0
25560,note_on,60,0,11,,,,,,,,,10,,,,62,112
25560,set_tempo,120,1,0,,,,,,254237,,,,,,,,
25563,note_on,60,0,12,,,,,,,,,11,,,,62,112
25568,note_on,60,0,13,,,,,,,,,12,,,,62,112
25572,note_on,60,0,14,,,,,,,,,13,,,,50,112
25574,note_on,60,0,15,,,,,,,,,14,,,,38,112
25590,note_on,30,0,11,,,,,,,,,10,,,,62,0
25593,note_on,30,0,12,,,,,,,,,11,,,,62,0
25598,note_on,30,0,13,,,,,,,,,12,,,,62,0
25602,note_on,30,0,14,,,,,,,,,13,,,,50,0
25604,note_on,30,0,15,,,,,,,,,14,,,,38,0
25620,note_on,30,0,11,,,,,,,,,10,,,,64,112
25623,note_on,30,0,12,,,,,,,,,11,,,,64,112
25628,note_on,30,0,13,,,,,,,,,12,,,,64,112
25632,note_on,30,0,14,,,,,,,,,13,,,,52,112
25634,note_on,30,0,15,,,,,,,,,14,,,,40,112
25650,note_on,30,0,11,,,,,,,,,10,,,,64,0
25653,note_on,30,0,12,,,,,,,,,11,,,,64,0
25658,note_on,30,0,13,,,,,,,,,12,,,,64,0
25662,note_on,30,0,14,,,,,,,,,13,,,,52,0
25664,note_on,30,0,15,,,,,,,,,14,,,,40,0
25680,set_tempo,120,1,0,,,,,,263158,,,,,,,,
25680,note_on,30,0,11,,,,,,,,,10,,,,65,112
25683,note_on,30,0,12,,,,,,,,,11,,,,65,112
25688,note_on,30,0,13,,,,,,,,,12,,,,65,112
25692,note_on,30,0,14,,,,,,,,,13,,,,53,112
25694,note_on,30,0,15,,,,,,,,,14,,,,41,112
25710,note_on,30,0,11,,,,,,,,,10,,,,65,0
25713,note_on,30,0,12,,,,,,,,,11,,,,65,0
25718,note_on,30,0,13,,,,,,,,,12,,,,65,0
25722,note_on,30,0,14,,,,,,,,,13,,,,53,0
25724,note_on,30,0,15,,,,,,,,,14,,,,41,0
25740,note_on,30,0,11,,,,,,,,,10,,,,67,112
25743,note_on,30,0,12,,,,,,,,,11,,,,67,112
25748,note_on,30,0,13,,,,,,,,,12,,,,67,112
25752,note_on,30,0,14,,,,,,,,,13,,,,55,112
25754,note_on,30,0,15,,,,,,,,,14,,,,43,112
25770,note_on,30,0,11,,,,,,,,,10,,,,67,0
25773,note_on,30,0,12,,,,,,,,,11,,,,67,0
25778,note_on,30,0,13,,,,,,,,,12,,,,67,0
25782,note_on,30,0,14,,,,,,,,,13,,,,55,0
25784,note_on,30,0,15,,,,,,,,,14,,,,43,0
25800,note_on,30,0,11,,,,,,,,,10,,,,69,112
25800,set_tempo,120,1,0,,,,,,315789,,,,,,,,
25803,note_on,30,0,12,,,,,,,,,11,,,,69,112
25808,note_on,30,0,13,,,,,,,,,12,,,,69,112
25812,note_on,30,0,14,,,,,,,,,13,,,,57,112
25814,note_on,30,0,15,,,,,,,,,14,,,,45,112
25860,note_on,60,0,11,,,,,,,,,10,,,,69,0
25863,note_on,60,0,12,,,,,,,,,11,,,,69,0
25868,note_on,60,0,13,,,,,,,,,12,,,,69,0
25872,note_on,60,0,14,,,,,,,,,13,,,,57,0
25874,note_on,60,0,15,,,,,,,,,14,,,,45,0
25920,set_tempo,120,1,0,,,,,,254237,,,,,,,,
25920,note_on,0,0,11,,,,,,,,,10,,,,64,112
25920,control_change,60,0,11,,,,,,,,,10,11,112,,,
25923,control_change,60,0,12,,,,,,,,,11,11,112,,,
25923,note_on,0,0,12,,,,,,,,,11,,,,64,112
25926,control_change,6,0,11,,,,,,,,,10,11,109,,,
25928,note_on,60,0,13,,,,,,,,,12,,,,64,112
25928,control_change,0,0,13,,,,,,,,,12,11,112,,,
25929,control_change,6,0,12,,,,,,,,,11,11,109,,,
25932,control_change,6,0,11,,,,,,,,,10,11,106,,,
25932,control_change,60,0,14,,,,,,,,,13,11,112,,,
25932,note_on,0,0,14,,,,,,,,,13,,,,52,112
25934,control_change,6,0,13,,,,,,,,,12,11,109,,,
25934,note_on,0,0,15,,,,,,,,,14,,,,40,112
25934,control_change,60,0,15,,,,,,,,,14,11,112,,,
25935,control_change,6,0,12,,,,,,,,,11,11,106,,,
25938,control_change,6,0,11,,,,,,,,,10,11,103,,,
25938,control_change,6,0,14,,,,,,,,,13,11,109,,,
25940,control_change,6,0,13,,,,,,,,,12,11,106,,,
25940,control_change,6,0,15,,,,,,,,,14,11,109,,,
25941,control_change,6,0,12,,,,,,,,,11,11,103,,,
25944,control_change,6,0,11,,,,,,,,,10,11,100,,,
25944,control_change,6,0,14,,,,,,,,,13,11,106,,,
25946,control_change,6,0,15,,,,,,,,,14,11,106,,,
25946,control_change,6,0,13,,,,,,,,,12,11,103,,,
25947,control_change,6,0,12,,,,,,,,,11,11,100,,,
25950,control_change,6,0,11,,,,,,,,,10,11,97,,,
25950,control_change,6,0,14,,,,,,,,,13,11,103,,,
25952,control_change,6,0,13,,,,,,,,,12,11,100,,,
25952,control_change,6,0,15,,,,,,,,,14,11,103,,,
25953,control_change,6,0,12,,,,,,,,,11,11,97,,,
25956,control_change,6,0,14,,,,,,,,,13,11,100,,,
25956,control_change,6,0,11,,,,,,,,,10,11,94,,,
25958,control_change,6,0,15,,,,,,,,,14,11,100,,,
25958,control_change,6,0,13,,,,,,,,,12,11,97,,,
25959,control_change,6,0,12,,,,,,,,,11,11,94,,,
25962,control_change,6,0,14,,,,,,,,,13,11,97,,,
25962,control_change,6,0,11,,,,,,,,,10,11,91,,,
25964,control_change,6,0,15,,,,,,,,,14,11,97,,,
25964,control_change,6,0,13,,,,,,,,,12,11,94,,,
25965,control_change,6,0,12,,,,,,,,,11,11,91,,,
25968,control_change,6,0,14,,,,,,,,,13,11,94,,,
25968,control_change,6,0,11,,,,,,,,,10,11,88,,,
25970,control_change,6,0,15,,,,,,,,,14,11,94,,,
25970,control_change,6,0,13,,,,,,,,,12,11,91,,,
25971,control_change,6,0,12,,,,,,,,,11,11,88,,,
25974,control_change,6,0,14,,,,,,,,,13,11,91,,,
25976,control_change,6,0,13,,,,,,,,,12,11,88,,,
25976,control_change,6,0,15,,,,,,,,,14,11,91,,,
25980,control_change,12,0,11,,,,,,,,,10,11,83,,,
25980,control_change,6,0,14,,,,,,,,,13,11,88,,,
25982,control_change,6,0,15,,,,,,,,,14,11,88,,,
25983,control_change,12,0,12,,,,,,,,,11,11,83,,,
25988,control_change,12,0,13,,,,,,,,,12,11,83,,,
25992,control_change,12,0,14,,,,,,,,,13,11,83,,,
25994,control_change,12,0,15,,,,,,,,,14,11,83,,,
26040,control_change,60,0,11,,,,,,,,,10,11,83,,,
26040,set_tempo,120,1,0,,,,,,263158,,,,,,,,
26043,control_change,60,0,12,,,,,,,,,11,11,83,,,
26048,control_change,60,0,13,,,,,,,,,12,11,83,,,
26052,control_change,60,0,14,,,,,,,,,13,11,83,,,
26054,control_change,60,0,15,,,,,,,,,14,11,83,,,
26063,control_change,23,0,11,,,,,,,,,10,11,81,,,
26066,control_change,23,0,12,,,,,,,,,11,11,81,,,
26071,control_change,23,0,13,,,,,,,,,12,11,81,,,
26075,control_change,23,0,14,,,,,,,,,13,11,81,,,
26077,control_change,23,0,15,,,,,,,,,14,11,81,,,
26086,control_change,23,0,11,,,,,,,,,10,11,79,,,
26089,control_change,23,0,12,,,,,,,,,11,11,79,,,
26094,control_change,23,0,13,,,,,,,,,12,11,79,,,
26098,control_change,23,0,14,,,,,,,,,13,11,79,,,
26100,control_change,23,0,15,,,,,,,,,14,11,79,,,
26110,control_change,24,0,11,,,,,,,,,10,11,77,,,
26113,control_change,24,0,12,,,,,,,,,11,11,77,,,
26118,control_change,24,0,13,,,,,,,,,12,11,77,,,
26122,control_change,24,0,14,,,,,,,,,13,11,77,,,
26124,control_change,24,0,15,,,,,,,,,14,11,77,,,
26133,control_change,23,0,11,,,,,,,,,10,11,75,,,
26136,control_change,23,0,12,,,,,,,,,11,11,75,,,
26141,control_change,23,0,13,,,,,,,,,12,11,75,,,
26145,control_change,23,0,14,,,,,,,,,13,11,75,,,
26147,control_change,23,0,15,,,,,,,,,14,11,75,,,
26156,control_change,23,0,11,,,,,,,,,10,11,73,,,
26159,control_change,23,0,12,,,,,,,,,11,11,73,,,
26160,set_tempo,120,1,0,,,,,,306122,,,,,,,,
26164,control_change,23,0,13,,,,,,,,,12,11,73,,,
26168,control_change,23,0,14,,,,,,,,,13,11,73,,,
26170,control_change,23,0,15,,,,,,,,,14,11,73,,,
26180,control_change,24,0,11,,,,,,,,,10,11,71,,,
26183,control_change,24,0,12,,,,,,,,,11,11,71,,,
26188,control_change,24,0,13,,,,,,,,,12,11,71,,,
26192,control_change,24,0,14,,,,,,,,,13,11,71,,,
26194,control_change,24,0,15,,,,,,,,,14,11,71,,,
26203,control_change,23,0,11,,,,,,,,,10,11,69,,,
26206,control_change,23,0,12,,,,,,,,,11,11,69,,,
26211,control_change,23,0,13,,,,,,,,,12,11,69,,,
26215,control_change,23,0,14,,,,,,,,,13,11,69,,,
26217,control_change,23,0,15,,,,,,,,,14,11,69,,,
26226,control_change,23,0,11,,,,,,,,,10,11,67,,,
26229,control_change,23,0,12,,,,,,,,,11,11,67,,,
26234,control_change,23,0,13,,,,,,,,,12,11,67,,,
26238,control_change,23,0,14,,,,,,,,,13,11,67,,,
26240,control_change,23,0,15,,,,,,,,,14,11,67,,,
26250,control_change,24,0,11,,,,,,,,,10,11,65,,,
26252,note_on,2,0,11,,,,,,,,,10,,,,64,0
26253,control_change,24,0,12,,,,,,,,,11,11,65,,,
26255,note_on,2,0,12,,,,,,,,,11,,,,64,0
26258,control_change,24,0,13,,,,,,,,,12,11,65,,,
26260,note_on,2,0,13,,,,,,,,,12,,,,64,0
26262,control_change,24,0,14,,,,,,,,,13,11,65,,,
26264,control_change,24,0,15,,,,,,,,,14,11,65,,,
26264,note_on,2,0,14,,,,,,,,,13,,,,52,0
26266,note_on,2,0,15,,,,,,,,,14,,,,40,0
26280,set_tempo,120,1,0,,,,,,254237,,,,,,,,
26284,note_on,0,0,2,,,,,,,,,1,,,,69,115
26284,note_on,1483,0,2,,,,,,,,,1,,,,77,100
26289,note_on,0,0,4,,,,,,,,,3,,,,53,115
26289,note_on,1500,0,4,,,,,,,,,3,,,,60,115
26314,note_on,30,0,2,,,,,,,,,1,,,,77,0
26344,note_on,30,0,2,,,,,,,,,1,,,,77,100
26374,note_on,30,0,2,,,,,,,,,1,,,,77,0
26400,set_tempo,120,1,0,,,,,,263158,,,,,,,,
26404,note_on,30,0,2,,,,,,,,,1,,,,79,100
26464,note_on,0,0,2,,,,,,,,,1,,,,77,100
26464,note_on,60,0,2,,,,,,,,,1,,,,79,0
26520,set_tempo,120,1,0,,,,,,288462,,,,,,,,
26524,note_on,0,0,2,,,,,,,,,1,,,,79,100
26524,note_on,60,0,2,,,,,,,,,1,,,,77,0
26584,note_on,0,0,2,,,,,,,,,1,,,,77,100
26584,note_on,60,0,2,,,,,,,,,1,,,,79,0
26640,set_tempo,120,1,0,,,,,,258621,,,,,,,,
26644,note_on,60,0,2,,,,,,,,,1,,,,77,0
26644,note_on,0,0,2,,,,,,,,,1,,,,70,100
26644,note_on,0,0,2,,,,,,,,,1,,,,69,0
26644,note_on,0,0,2,,,,,,,,,1,,,,77,100
26649,note_on,360,0,4,,,,,,,,,3,,,,53,0
26649,note_on,0,0,4,,,,,,,,,3,,,,58,100
26649,note_on,0,0,4,,,,,,,,,3,,,,60,0
26649,note_on,0,0,4,,,,,,,,,3,,,,62,100
26652,note_on,388,0,14,,,,,,,,,13,,,,46,112
26652,control_change,0,0,14,,,,,,,,,13,11,50,,,
26682,note_on,30,0,14,,,,,,,,,13,,,,46,0
26704,note_on,0,0,2,,,,,,,,,1,,,,70,0
26704,note_on,60,0,2,,,,,,,,,1,,,,77,0
26709,note_on,60,0,4,,,,,,,,,3,,,,62,0
26709,note_on,0,0,4,,,,,,,,,3,,,,58,0
26712,note_on,30,0,14,,,,,,,,,13,,,,46,112
26742,note_on,30,0,14,,,,,,,,,13,,,,46,0
26764,note_on,60,0,2,,,,,,,,,1,,,,77,100
26764,note_on,0,0,2,,,,,,,,,1,,,,70,100
26769,note_on,0,0,4,,,,,,,,,3,,,,53,100
26769,note_on,60,0,4,,,,,,,,,3,,,,62,100
26772,note_on,30,0,14,,,,,,,,,13,,,,41,112
26802,note_on,30,0,14,,,,,,,,,13,,,,41,0
26824,note_on,0,0,2,,,,,,,,,1,,,,77,0
26824,note_on,60,0,2,,,,,,,,,1,,,,70,0
26829,note_on,60,0,4,,,,,,,,,3,,,,53,0
26829,note_on,0,0,4,,,,,,,,,3,,,,62,0
26832,note_on,30,0,14,,,,,,,,,13,,,,46,112
26862,note_on,30,0,14,,,,,,,,,13,,,,46,0
26880,set_tempo,240,1,0,,,,,,288462,,,,,,,,
26884,note_on,0,0,2,,,,,,,,,1,,,,70,100
26884,note_on,60,0,2,,,,,,,,,1,,,,77,100
26889,note_on,60,0,4,,,,,,,,,3,,,,50,100
26889,note_on,0,0,4,,,,,,,,,3,,,,62,100
26892,note_on,30,0,14,,,,,,,,,13,,,,41,112
26922,note_on,30,0,14,,,,,,,,,13,,,,41,0
26944,note_on,60,0,2,,,,,,,,,1,,,,70,0
26944,note_on,0,0,2,,,,,,,,,1,,,,77,0
26949,note_on,0,0,4,,,,,,,,,3,,,,50,0
26949,note_on,60,0,4,,,,,,,,,3,,,,62,0
26952,note_on,30,0,14,,,,,,,,,13,,,,46,112
26982,note_on,30,0,14,,,,,,,,,13,,,,46,0
27000,set_tempo,120,1,0,,,,,,254237,,,,,,,,
27001,note_on,2203,0,1,,,,,,,,,0,,,,89,101
27004,note_on,0,0,2,,,,,,,,,1,,,,69,100
27004,note_on,60,0,2,,,,,,,,,1,,,,77,100
27009,note_on,0,0,4,,,,,,,,,3,,,,60,115
27009,note_on,60,0,4,,,,,,,,,3,,,,53,115
27012,note_on,30,0,14,,,,,,,,,13,,,,41,112
27031,note_on,30,0,1,,,,,,,,,0,,,,89,0
27034,note_on,0,0,2,,,,,,,,,1,,,,75,100
27034,note_on,30,0,2,,,,,,,,,1,,,,77,0
27061,note_on,30,0,1,,,,,,,,,0,,,,89,101
27064,note_on,30,0,2,,,,,,,,,1,,,,75,0
27072,note_on,60,0,14,,,,,,,,,13,,,,41,0
27091,note_on,30,0,1,,,,,,,,,0,,,,89,0
27094,note_on,30,0,2,,,,,,,,,1,,,,69,0
27120,set_tempo,120,1,0,,,,,,263158,,,,,,,,
27121,note_on,30,0,1,,,,,,,,,0,,,,91,101
27124,note_on,0,0,2,,,,,,,,,1,,,,69,100
27124,note_on,30,0,2,,,,,,,,,1,,,,75,100
27132,note_on,60,0,14,,,,,,,,,13,,,,41,112
27181,note_on,0,0,1,,,,,,,,,0,,,,89,101
27181,note_on,60,0,1,,,,,,,,,0,,,,91,0
27184,note_on,0,0,2,,,,,,,,,1,,,,75,0
27184,note_on,60,0,2,,,,,,,,,1,,,,69,0
27192,note_on,60,0,14,,,,,,,,,13,,,,41,0
27240,set_tempo,120,1,0,,,,,,288462,,,,,,,,
27241,note_on,0,0,1,,,,,,,,,0,,,,91,101
27241,note_on,60,0,1,,,,,,,,,0,,,,89,0
27244,note_on,0,0,2,,,,,,,,,1,,,,69,100
27244,note_on,60,0,2,,,,,,,,,1,,,,75,100
27252,note_on,60,0,14,,,,,,,,,13,,,,41,112
27301,note_on,60,0,1,,,,,,,,,0,,,,91,0
27301,note_on,0,0,1,,,,,,,,,0,,,,89,101
27304,note_on,0,0,2,,,,,,,,,1,,,,75,0
27304,note_on,60,0,2,,,,,,,,,1,,,,69,0
27312,note_on,60,0,14,,,,,,,,,13,,,,41,0
27360,set_tempo,120,1,0,,,,,,258621,,,,,,,,
27361,note_on,60,0,1,,,,,,,,,0,,,,89,0
27361,note_on,0,0,1,,,,,,,,,0,,,,89,101
27364,note_on,0,0,2,,,,,,,,,1,,,,70,100
27364,note_on,60,0,2,,,,,,,,,1,,,,74,100
27369,note_on,0,0,4,,,,,,,,,3,,,,58,100
27369,note_on,0,0,4,,,,,,,,,3,,,,62,100
27369,note_on,0,0,4,,,,,,,,,3,,,,53,0
27369,note_on,360,0,4,,,,,,,,,3,,,,60,0
27372,note_on,60,0,14,,,,,,,,,13,,,,46,112
27429,note_on,0,0,4,,,,,,,,,3,,,,58,0
27429,note_on,60,0,4,,,,,,,,,3,,,,62,0
27481,note_on,0,0,1,,,,,,,,,0,,,,89,101
27481,note_on,120,0,1,,,,,,,,,0,,,,89,0
27489,note_on,60,0,4,,,,,,,,,3,,,,62,100
27489,note_on,0,0,4,,,,,,,,,3,,,,53,100
27492,note_on,120,0,14,,,,,,,,,13,,,,46,0
27549,note_on,60,0,4,,,,,,,,,3,,,,53,0
27549,note_on,0,0,4,,,,,,,,,3,,,,62,0
27600,set_tempo,240,1,0,,,,,,288462,,,,,,,,
27601,note_on,120,0,1,,,,,,,,,0,,,,89,0
27601,note_on,0,0,1,,,,,,,,,0,,,,89,101
27609,note_on,60,0,4,,,,,,,,,3,,,,50,100
27609,note_on,0,0,4,,,,,,,,,3,,,,62,100
27669,note_on,0,0,4,,,,,,,,,3,,,,50,0
27669,note_on,60,0,4,,,,,,,,,3,,,,62,0
27720,set_tempo,120,1,0,,,,,,254237,,,,,,,,
27721,note_on,120,0,1,,,,,,,,,0,,,,89,0
27721,note_on,0,0,1,,,,,,,,,0,,,,89,101
27724,note_on,0,0,2,,,,,,,,,1,,,,81,100
27724,note_on,360,0,2,,,,,,,,,1,,,,70,0
27724,note_on,0,0,2,,,,,,,,,1,,,,74,0
27724,note_on,0,0,2,,,,,,,,,1,,,,72,100
27725,note_on,0,0,3,,,,,,,,,2,,,,77,101
27725,note_on,2923,0,3,,,,,,,,,2,,,,69,116
27729,note_on,60,0,4,,,,,,,,,3,,,,53,115
27729,note_on,0,0,4,,,,,,,,,3,,,,60,115
27751,note_on,30,0,1,,,,,,,,,0,,,,89,0
27751,note_on,0,0,1,,,,,,,,,0,,,,87,101
27755,note_on,30,0,3,,,,,,,,,2,,,,77,0
27781,note_on,30,0,1,,,,,,,,,0,,,,87,0
27784,note_on,60,0,2,,,,,,,,,1,,,,81,0
27784,note_on,0,0,2,,,,,,,,,1,,,,72,0
27785,note_on,30,0,3,,,,,,,,,2,,,,77,101
27815,note_on,30,0,3,,,,,,,,,2,,,,77,0
27840,set_tempo,120,1,0,,,,,,263158,,,,,,,,
27841,note_on,60,0,1,,,,,,,,,0,,,,87,101
27844,note_on,60,0,2,,,,,,,,,1,,,,81,100
27844,note_on,0,0,2,,,,,,,,,1,,,,72,100
27845,note_on,30,0,3,,,,,,,,,2,,,,79,101
27901,note_on,60,0,1,,,,,,,,,0,,,,87,0
27904,note_on,60,0,2,,,,,,,,,1,,,,72,0
27904,note_on,0,0,2,,,,,,,,,1,,,,81,0
27905,note_on,60,0,3,,,,,,,,,2,,,,79,0
27905,note_on,0,0,3,,,,,,,,,2,,,,77,101
27960,set_tempo,120,1,0,,,,,,288462,,,,,,,,
27961,note_on,60,0,1,,,,,,,,,0,,,,87,101
27964,note_on,0,0,2,,,,,,,,,1,,,,72,100
27964,note_on,60,0,2,,,,,,,,,1,,,,81,100
27965,note_on,0,0,3,,,,,,,,,2,,,,79,101
27965,note_on,60,0,3,,,,,,,,,2,,,,77,0
28021,note_on,60,0,1,,,,,,,,,0,,,,87,0
28024,note_on,60,0,2,,,,,,,,,1,,,,72,0
28024,note_on,0,0,2,,,,,,,,,1,,,,81,0
28025,note_on,60,0,3,,,,,,,,,2,,,,79,0
28025,note_on,0,0,3,,,,,,,,,2,,,,77,101
28080,set_tempo,120,1,0,,,,,,258621,,,,,,,,
28081,note_on,60,0,1,,,,,,,,,0,,,,86,101
28084,note_on,0,0,2,,,,,,,,,1,,,,82,100
28084,note_on,60,0,2,,,,,,,,,1,,,,74,100
28085,note_on,0,0,3,,,,,,,,,2,,,,70,101
28085,note_on,0,0,3,,,,,,,,,2,,,,77,101
28085,note_on,0,0,3,,,,,,,,,2,,,,69,0
28085,note_on,60,0,3,,,,,,,,,2,,,,77,0
28089,note_on,360,0,4,,,,,,,,,3,,,,60,0
28089,note_on,0,0,4,,,,,,,,,3,,,,53,0
28089,note_on,0,0,4,,,,,,,,,3,,,,58,100
28089,note_on,0,0,4,,,,,,,,,3,,,,62,100
28092,note_on,600,0,14,,,,,,,,,13,,,,46,112
28122,note_on,30,0,14,,,,,,,,,13,,,,46,0
28145,note_on,60,0,3,,,,,,,,,2,,,,70,0
28145,note_on,0,0,3,,,,,,,,,2,,,,77,0
28149,note_on,60,0,4,,,,,,,,,3,,,,58,0
28149,note_on,0,0,4,,,,,,,,,3,,,,62,0
28152,note_on,30,0,14,,,,,,,,,13,,,,46,112
28182,note_on,30,0,14,,,,,,,,,13,,,,46,0
28205,note_on,0,0,3,,,,,,,,,2,,,,77,101
28205,note_on,60,0,3,,,,,,,,,2,,,,70,101
28209,note_on,60,0,4,,,,,,,,,3,,,,62,100
28209,note_on,0,0,4,,,,,,,,,3,,,,53,100
28212,note_on,30,0,14,,,,,,,,,13,,,,41,112
28242,note_on,30,0,14,,,,,,,,,13,,,,41,0
28265,note_on,0,0,3,,,,,,,,,2,,,,70,0
28265,note_on,60,0,3,,,,,,,,,2,,,,77,0
28269,note_on,60,0,4,,,,,,,,,3,,,,53,0
28269,note_on,0,0,4,,,,,,,,,3,,,,62,0
28272,note_on,30,0,14,,,,,,,,,13,,,,46,112
28302,note_on,30,0,14,,,,,,,,,13,,,,46,0
28320,set_tempo,240,1,0,,,,,,288462,,,,,,,,
28325,note_on,0,0,3,,,,,,,,,2,,,,77,101
28325,note_on,60,0,3,,,,,,,,,2,,,,70,101
28329,note_on,60,0,4,,,,,,,,,3,,,,50,100
28329,note_on,0,0,4,,,,,,,,,3,,,,62,100
28332,note_on,30,0,14,,,,,,,,,13,,,,41,112
28362,note_on,30,0,14,,,,,,,,,13,,,,41,0
28385,note_on,60,0,3,,,,,,,,,2,,,,77,0
28385,note_on,0,0,3,,,,,,,,,2,,,,70,0
28389,note_on,60,0,4,,,,,,,,,3,,,,62,0
28389,note_on,0,0,4,,,,,,,,,3,,,,50,0
28392,note_on,30,0,14,,,,,,,,,13,,,,46,112
28422,note_on,30,0,14,,,,,,,,,13,,,,46,0
28440,control_change,2188,0,11,,,,,,,,,10,11,50,,,
28440,note_on,0,0,11,,,,,,,,,10,,,,65,127
28440,set_tempo,120,1,0,,,,,,254237,,,,,,,,
28441,note_on,360,0,1,,,,,,,,,0,,,,86,0
28443,control_change,2188,0,12,,,,,,,,,11,11,50,,,
28443,note_on,0,0,12,,,,,,,,,11,,,,65,127
28444,note_on,360,0,2,,,,,,,,,1,,,,82,0
28444,note_on,0,0,2,,,,,,,,,1,,,,74,0
28444,note_on,0,0,2,,,,,,,,,1,,,,69,100
28444,note_on,0,0,2,,,,,,,,,1,,,,77,100
28445,note_on,60,0,3,,,,,,,,,2,,,,69,101
28445,note_on,0,0,3,,,,,,,,,2,,,,77,101
28447,program_change,2187,0,13,,,,,,,,48,12,,,,,
28448,note_on,1,0,13,,,,,,,,,12,,,,53,127
28448,control_change,0,0,13,,,,,,,,,12,11,50,,,
28449,note_on,60,0,4,,,,,,,,,3,,,,60,100
28449,note_on,0,0,4,,,,,,,,,3,,,,53,100
28452,note_on,30,0,14,,,,,,,,,13,,,,53,127
28452,control_change,0,0,14,,,,,,,,,13,11,50,,,
28454,control_change,2188,0,15,,,,,,,,,14,11,50,,,
28454,note_on,0,0,15,,,,,,,,,14,,,,41,127
28470,note_on,30,0,11,,,,,,,,,10,,,,65,0
28473,note_on,30,0,12,,,,,,,,,11,,,,65,0
28474,note_on,0,0,2,,,,,,,,,1,,,,75,100
28474,note_on,30,0,2,,,,,,,,,1,,,,77,0
28475,note_on,0,0,3,,,,,,,,,2,,,,75,101
28475,note_on,30,0,3,,,,,,,,,2,,,,77,0
28478,note_on,30,0,13,,,,,,,,,12,,,,53,0
28482,note_on,30,0,14,,,,,,,,,13,,,,53,0
28484,note_on,30,0,15,,,,,,,,,14,,,,41,0
28500,note_on,30,0,11,,,,,,,,,10,,,,65,112
28503,note_on,30,0,12,,,,,,,,,11,,,,65,112
28504,note_on,30,0,2,,,,,,,,,1,,,,69,0
28505,note_on,30,0,3,,,,,,,,,2,,,,69,0
28508,note_on,30,0,13,,,,,,,,,12,,,,53,112
28509,note_on,60,0,4,,,,,,,,,3,,,,53,0
28509,note_on,0,0,4,,,,,,,,,3,,,,60,0
28512,note_on,30,0,14,,,,,,,,,13,,,,53,112
28514,note_on,30,0,15,,,,,,,,,14,,,,41,112
28519,note_on,15,0,2,,,,,,,,,1,,,,75,0
28520,note_on,15,0,3,,,,,,,,,2,,,,75,0
28530,note_on,30,0,11,,,,,,,,,10,,,,65,0
28533,note_on,30,0,12,,,,,,,,,11,,,,65,0
28538,note_on,30,0,13,,,,,,,,,12,,,,53,0
28542,note_on,30,0,14,,,,,,,,,13,,,,53,0
28544,note_on,30,0,15,,,,,,,,,14,,,,41,0
28560,note_on,30,0,11,,,,,,,,,10,,,,67,112
28560,set_tempo,120,1,0,,,,,,263158,,,,,,,,
28563,note_on,30,0,12,,,,,,,,,11,,,,67,112
28564,note_on,0,0,2,,,,,,,,,1,,,,69,100
28564,note_on,45,0,2,,,,,,,,,1,,,,75,100
28565,note_on,45,0,3,,,,,,,,,2,,,,69,101
28565,note_on,0,0,3,,,,,,,,,2,,,,75,101
28568,note_on,30,0,13,,,,,,,,,12,,,,55,112
28569,note_on,60,0,4,,,,,,,,,3,,,,53,100
28569,note_on,0,0,4,,,,,,,,,3,,,,60,100
28572,note_on,30,0,14,,,,,,,,,13,,,,55,112
28574,note_on,30,0,15,,,,,,,,,14,,,,43,112
28590,note_on,30,0,11,,,,,,,,,10,,,,67,0
28593,note_on,30,0,12,,,,,,,,,11,,,,67,0
28598,note_on,30,0,13,,,,,,,,,12,,,,55,0
28602,note_on,30,0,14,,,,,,,,,13,,,,55,0
28604,note_on,30,0,15,,,,,,,,,14,,,,43,0
28620,note_on,30,0,11,,,,,,,,,10,,,,65,112
28623,note_on,30,0,12,,,,,,,,,11,,,,65,112
28624,note_on,60,0,2,,,,,,,,,1,,,,69,0
28624,note_on,0,0,2,,,,,,,,,1,,,,75,0
28625,note_on,0,0,3,,,,,,,,,2,,,,69,0
28625,note_on,60,0,3,,,,,,,,,2,,,,75,0
28628,note_on,30,0,13,,,,,,,,,12,,,,53,112
28629,note_on,0,0,4,,,,,,,,,3,,,,53,0
28629,note_on,60,0,4,,,,,,,,,3,,,,60,0
28632,note_on,30,0,14,,,,,,,,,13,,,,53,112
28634,note_on,30,0,15,,,,,,,,,14,,,,41,112
28650,note_on,30,0,11,,,,,,,,,10,,,,65,0
28653,note_on,30,0,12,,,,,,,,,11,,,,65,0
28658,note_on,30,0,13,,,,,,,,,12,,,,53,0
28662,note_on,30,0,14,,,,,,,,,13,,,,53,0
28664,note_on,30,0,15,,,,,,,,,14,,,,41,0
28680,set_tempo,120,1,0,,,,,,288462,,,,,,,,
28680,note_on,30,0,11,,,,,,,,,10,,,,67,112
28683,note_on,30,0,12,,,,,,,,,11,,,,67,112
28684,note_on,0,0,2,,,,,,,,,1,,,,75,100
28684,note_on,60,0,2,,,,,,,,,1,,,,69,100
28685,note_on,0,0,3,,,,,,,,,2,,,,69,101
28685,note_on,60,0,3,,,,,,,,,2,,,,75,101
28688,note_on,30,0,13,,,,,,,,,12,,,,55,112
28689,note_on,60,0,4,,,,,,,,,3,,,,53,100
28689,note_on,0,0,4,,,,,,,,,3,,,,60,100
28692,note_on,30,0,14,,,,,,,,,13,,,,55,112
28694,note_on,30,0,15,,,,,,,,,14,,,,43,112
28710,note_on,30,0,11,,,,,,,,,10,,,,67,0
28713,note_on,30,0,12,,,,,,,,,11,,,,67,0
28718,note_on,30,0,13,,,,,,,,,12,,,,55,0
28722,note_on,30,0,14,,,,,,,,,13,,,,55,0
28724,note_on,30,0,15,,,,,,,,,14,,,,43,0
28740,note_on,30,0,11,,,,,,,,,10,,,,65,112
28743,note_on,30,0,12,,,,,,,,,11,,,,65,112
28744,note_on,60,0,2,,,,,,,,,1,,,,75,0
28744,note_on,0,0,2,,,,,,,,,1,,,,69,0
28745,note_on,60,0,3,,,,,,,,,2,,,,69,0
28745,note_on,0,0,3,,,,,,,,,2,,,,75,0
28748,note_on,30,0,13,,,,,,,,,12,,,,53,112
28749,note_on,0,0,4,,,,,,,,,3,,,,53,0
28749,note_on,60,0,4,,,,,,,,,3,,,,60,0
28752,note_on,30,0,14,,,,,,,,,13,,,,53,112
28754,note_on,30,0,15,,,,,,,,,14,,,,41,112
28770,note_on,30,0,11,,,,,,,,,10,,,,65,0
28773,note_on,30,0,12,,,,,,,,,11,,,,65,0
28778,note_on,30,0,13,,,,,,,,,12,,,,53,0
28782,note_on,30,0,14,,,,,,,,,13,,,,53,0
28784,note_on,30,0,15,,,,,,,,,14,,,,41,0
28800,set_tempo,120,1,0,,,,,,265487,,,,,,,,
28800,note_on,30,0,11,,,,,,,,,10,,,,66,127
28803,note_on,30,0,12,,,,,,,,,11,,,,66,127
28804,note_on,60,0,2,,,,,,,,,1,,,,74,100
28804,note_on,0,0,2,,,,,,,,,1,,,,69,100
28805,note_on,60,0,3,,,,,,,,,2,,,,74,101
28805,note_on,0,0,3,,,,,,,,,2,,,,69,101
28808,note_on,30,0,13,,,,,,,,,12,,,,54,127
28809,note_on,0,0,4,,,,,,,,,3,,,,60,100
28809,note_on,60,0,4,,,,,,,,,3,,,,54,100
28812,note_on,30,0,14,,,,,,,,,13,,,,54,127
28814,note_on,30,0,15,,,,,,,,,14,,,,42,127
28830,note_on,30,0,11,,,,,,,,,10,,,,66,0
28833,note_on,30,0,12,,,,,,,,,11,,,,66,0
28838,note_on,30,0,13,,,,,,,,,12,,,,54,0
28842,note_on,30,0,14,,,,,,,,,13,,,,54,0
28844,note_on,30,0,15,,,,,,,,,14,,,,42,0
28860,note_on,30,0,11,,,,,,,,,10,,,,66,112
28863,note_on,30,0,12,,,,,,,,,11,,,,66,112
28868,note_on,30,0,13,,,,,,,,,12,,,,54,112
28872,note_on,30,0,14,,,,,,,,,13,,,,54,112
28874,note_on,30,0,15,,,,,,,,,14,,,,42,112
28890,note_on,30,0,11,,,,,,,,,10,,,,66,0
28893,note_on,30,0,12,,,,,,,,,11,,,,66,0
28898,note_on,30,0,13,,,,,,,,,12,,,,54,0
28902,note_on,30,0,14,,,,,,,,,13,,,,54,0
28904,note_on,30,0,15,,,,,,,,,14,,,,42,0
28920,note_on,30,0,11,,,,,,,,,10,,,,67,112
28923,note_on,30,0,12,,,,,,,,,11,,,,67,112
28928,note_on,30,0,13,,,,,,,,,12,,,,55,112
28932,note_on,30,0,14,,,,,,,,,13,,,,55,112
28934,note_on,30,0,15,,,,,,,,,14,,,,43,112
28950,note_on,30,0,11,,,,,,,,,10,,,,67,0
28953,note_on,30,0,12,,,,,,,,,11,,,,67,0
28958,note_on,30,0,13,,,,,,,,,12,,,,55,0
28962,note_on,30,0,14,,,,,,,,,13,,,,55,0
28964,note_on,30,0,15,,,,,,,,,14,,,,43,0
28980,note_on,30,0,11,,,,,,,,,10,,,,66,112
28983,note_on,30,0,12,,,,,,,,,11,,,,66,112
28988,note_on,30,0,13,,,,,,,,,12,,,,54,112
28992,note_on,30,0,14,,,,,,,,,13,,,,54,112
28994,note_on,30,0,15,,,,,,,,,14,,,,42,112
29010,note_on,30,0,11,,,,,,,,,10,,,,66,0
29013,note_on,30,0,12,,,,,,,,,11,,,,66,0
29018,note_on,30,0,13,,,,,,,,,12,,,,54,0
29022,note_on,30,0,14,,,,,,,,,13,,,,54,0
29024,note_on,30,0,15,,,,,,,,,14,,,,42,0
29040,set_tempo,240,1,0,,,,,,279070,,,,,,,,
29040,note_on,30,0,11,,,,,,,,,10,,,,67,112
29043,note_on,30,0,12,,,,,,,,,11,,,,67,112
29048,note_on,30,0,13,,,,,,,,,12,,,,55,112
29052,note_on,30,0,14,,,,,,,,,13,,,,55,112
29054,note_on,30,0,15,,,,,,,,,14,,,,43,112
29070,note_on,30,0,11,,,,,,,,,10,,,,67,0
29073,note_on,30,0,12,,,,,,,,,11,,,,67,0
29078,note_on,30,0,13,,,,,,,,,12,,,,55,0
29082,note_on,30,0,14,,,,,,,,,13,,,,55,0
29084,note_on,30,0,15,,,,,,,,,14,,,,43,0
29100,note_on,30,0,11,,,,,,,,,10,,,,66,112
29103,note_on,30,0,12,,,,,,,,,11,,,,66,112
29108,note_on,30,0,13,,,,,,,,,12,,,,54,112
29112,note_on,30,0,14,,,,,,,,,13,,,,54,112
29114,note_on,30,0,15,,,,,,,,,14,,,,42,112
29130,note_on,30,0,11,,,,,,,,,10,,,,66,0
29133,note_on,30,0,12,,,,,,,,,11,,,,66,0
29138,note_on,30,0,13,,,,,,,,,12,,,,54,0
29142,note_on,30,0,14,,,,,,,,,13,,,,54,0
29144,note_on,30,0,15,,,,,,,,,14,,,,42,0
29160,set_tempo,120,1,0,,,,,,265487,,,,,,,,
29160,control_change,0,0,11,,,,,,,,,10,11,50,,,
29160,note_on,30,0,11,,,,,,,,,10,,,,69,112
29161,control_change,720,0,1,,,,,,,,,0,11,42,,,
29163,control_change,0,0,12,,,,,,,,,11,11,50,,,
29163,note_on,30,0,12,,,,,,,,,11,,,,69,112
29164,note_on,0,0,2,,,,,,,,,1,,,,70,100
29164,note_on,0,0,2,,,,,,,,,1,,,,74,0
29164,note_on,360,0,2,,,,,,,,,1,,,,69,0
29164,note_on,0,0,2,,,,,,,,,1,,,,75,100
29164,control_change,0,0,2,,,,,,,,,1,11,42,,,
29165,note_on,360,0,3,,,,,,,,,2,,,,69,0
29165,note_on,0,0,3,,,,,,,,,2,,,,75,101
29165,note_on,0,0,3,,,,,,,,,2,,,,70,101
29165,note_on,0,0,3,,,,,,,,,2,,,,74,0
29165,control_change,0,0,3,,,,,,,,,2,11,42,,,
29168,control_change,30,0,13,,,,,,,,,12,11,50,,,
29168,note_on,0,0,13,,,,,,,,,12,,,,57,112
29169,control_change,0,0,4,,,,,,,,,3,11,42,,,
29169,note_on,0,0,4,,,,,,,,,3,,,,58,100
29169,note_on,0,0,4,,,,,,,,,3,,,,55,100
29169,note_on,0,0,4,,,,,,,,,3,,,,54,0
29169,note_on,360,0,4,,,,,,,,,3,,,,60,0
29172,control_change,30,0,14,,,,,,,,,13,11,50,,,
29172,note_on,0,0,14,,,,,,,,,13,,,,57,112
29174,control_change,0,0,15,,,,,,,,,14,11,50,,,
29174,note_on,30,0,15,,,,,,,,,14,,,,45,112
29180,control_change,20,0,11,,,,,,,,,10,11,51,,,
29181,control_change,20,0,1,,,,,,,,,0,11,43,,,
29183,control_change,20,0,12,,,,,,,,,11,11,51,,,
29184,control_change,20,0,2,,,,,,,,,1,11,43,,,
29185,control_change,20,0,3,,,,,,,,,2,11,43,,,
29188,control_change,20,0,13,,,,,,,,,12,11,51,,,
29189,control_change,20,0,4,,,,,,,,,3,11,43,,,
29190,note_on,10,0,11,,,,,,,,,10,,,,69,0
29192,control_change,20,0,14,,,,,,,,,13,11,51,,,
29193,note_on,10,0,12,,,,,,,,,11,,,,69,0
29194,control_change,20,0,15,,,,,,,,,14,11,51,,,
29198,note_on,10,0,13,,,,,,,,,12,,,,57,0
29201,control_change,11,0,11,,,,,,,,,10,11,52,,,
29202,control_change,21,0,1,,,,,,,,,0,11,44,,,
29202,note_on,10,0,14,,,,,,,,,13,,,,57,0
29204,note_on,10,0,15,,,,,,,,,14,,,,45,0
29204,control_change,11,0,12,,,,,,,,,11,11,52,,,
29205,control_change,21,0,2,,,,,,,,,1,11,44,,,
29206,control_change,21,0,3,,,,,,,,,2,11,44,,,
29209,control_change,11,0,13,,,,,,,,,12,11,52,,,
29210,control_change,21,0,4,,,,,,,,,3,11,44,,,
29213,control_change,11,0,14,,,,,,,,,13,11,52,,,
29215,control_change,11,0,15,,,,,,,,,14,11,52,,,
29220,note_on,19,0,11,,,,,,,,,10,,,,67,112
29221,control_change,1,0,11,,,,,,,,,10,11,53,,,
29222,control_change,20,0,1,,,,,,,,,0,11,45,,,
29223,note_on,19,0,12,,,,,,,,,11,,,,67,112
29224,note_on,19,0,2,,,,,,,,,1,,,,75,0
29224,note_on,0,0,2,,,,,,,,,1,,,,70,0
29224,control_change,1,0,12,,,,,,,,,11,11,53,,,
29225,note_on,19,0,3,,,,,,,,,2,,,,75,0
29225,note_on,0,0,3,,,,,,,,,2,,,,70,0
29225,control_change,1,0,2,,,,,,,,,1,11,45,,,
29226,control_change,1,0,3,,,,,,,,,2,11,45,,,
29228,note_on,19,0,13,,,,,,,,,12,,,,55,112
29229,note_on,0,0,4,,,,,,,,,3,,,,55,0
29229,note_on,19,0,4,,,,,,,,,3,,,,58,0
29229,control_change,1,0,13,,,,,,,,,12,11,53,,,
29230,control_change,1,0,4,,,,,,,,,3,11,45,,,
29232,note_on,19,0,14,,,,,,,,,13,,,,55,112
29233,control_change,1,0,14,,,,,,,,,13,11,53,,,
29234,note_on,19,0,15,,,,,,,,,14,,,,43,112
29235,control_change,1,0,15,,,,,,,,,14,11,53,,,
29242,control_change,21,0,11,,,,,,,,,10,11,54,,,
29243,control_change,21,0,1,,,,,,,,,0,11,46,,,
29245,control_change,21,0,12,,,,,,,,,11,11,54,,,
29246,control_change,21,0,2,,,,,,,,,1,11,46,,,
29247,control_change,21,0,3,,,,,,,,,2,11,46,,,
29250,note_on,8,0,11,,,,,,,,,10,,,,67,0
29250,control_change,21,0,13,,,,,,,,,12,11,54,,,
29251,control_change,21,0,4,,,,,,,,,3,11,46,,,
29253,note_on,8,0,12,,,,,,,,,11,,,,67,0
29254,control_change,21,0,14,,,,,,,,,13,11,54,,,
29256,control_change,21,0,15,,,,,,,,,14,11,54,,,
29258,note_on,8,0,13,,,,,,,,,12,,,,55,0
29262,note_on,8,0,14,,,,,,,,,13,,,,55,0
29262,control_change,12,0,11,,,,,,,,,10,11,55,,,
29263,control_change,20,0,1,,,,,,,,,0,11,47,,,
29264,note_on,8,0,15,,,,,,,,,14,,,,43,0
29265,control_change,12,0,12,,,,,,,,,11,11,55,,,
29266,control_change,20,0,2,,,,,,,,,1,11,47,,,
29267,control_change,20,0,3,,,,,,,,,2,11,47,,,
29270,control_change,12,0,13,,,,,,,,,12,11,55,,,
29271,control_change,20,0,4,,,,,,,,,3,11,47,,,
29274,control_change,12,0,14,,,,,,,,,13,11,55,,,
29276,control_change,12,0,15,,,,,,,,,14,11,55,,,
29280,note_on,18,0,11,,,,,,,,,10,,,,70,112
29283,note_on,18,0,12,,,,,,,,,11,,,,70,112
29283,control_change,3,0,11,,,,,,,,,10,11,56,,,
29284,note_on,0,0,2,,,,,,,,,1,,,,72,100
29284,note_on,18,0,2,,,,,,,,,1,,,,78,100
29284,control_change,21,0,1,,,,,,,,,0,11,48,,,
29285,note_on,0,0,3,,,,,,,,,2,,,,78,101
29285,note_on,18,0,3,,,,,,,,,2,,,,72,101
29286,control_change,3,0,12,,,,,,,,,11,11,56,,,
29287,control_change,3,0,2,,,,,,,,,1,11,48,,,
29288,note_on,18,0,13,,,,,,,,,12,,,,58,112
29288,control_change,3,0,3,,,,,,,,,2,11,48,,,
29289,note_on,18,0,4,,,,,,,,,3,,,,57,100
29289,note_on,0,0,4,,,,,,,,,3,,,,60,100
29291,control_change,3,0,13,,,,,,,,,12,11,56,,,
29292,note_on,18,0,14,,,,,,,,,13,,,,58,112
29292,control_change,3,0,4,,,,,,,,,3,11,48,,,
29294,note_on,18,0,15,,,,,,,,,14,,,,46,112
29295,control_change,3,0,14,,,,,,,,,13,11,56,,,
29297,control_change,3,0,15,,,,,,,,,14,11,56,,,
29304,control_change,21,0,11,,,,,,,,,10,11,57,,,
29305,control_change,21,0,1,,,,,,,,,0,11,49,,,
29307,control_change,21,0,12,,,,,,,,,11,11,57,,,
29308,control_change,21,0,2,,,,,,,,,1,11,49,,,
29309,control_change,21,0,3,,,,,,,,,2,11,49,,,
29310,note_on,6,0,11,,,,,,,,,10,,,,70,0
29312,control_change,21,0,13,,,,,,,,,12,11,57,,,
29313,note_on,6,0,12,,,,,,,,,11,,,,70,0
29313,control_change,21,0,4,,,,,,,,,3,11,49,,,
29316,control_change,21,0,14,,,,,,,,,13,11,57,,,
29318,control_change,21,0,15,,,,,,,,,14,11,57,,,
29318,note_on,6,0,13,,,,,,,,,12,,,,58,0
29322,note_on,6,0,14,,,,,,,,,13,,,,58,0
29324,control_change,14,0,11,,,,,,,,,10,11,57,,,
29324,note_on,6,0,15,,,,,,,,,14,,,,46,0
29325,control_change,20,0,1,,,,,,,,,0,11,50,,,
29327,control_change,14,0,12,,,,,,,,,11,11,57,,,
29328,control_change,20,0,2,,,,,,,,,1,11,50,,,
29329,control_change,20,0,3,,,,,,,,,2,11,50,,,
29332,control_change,14,0,13,,,,,,,,,12,11,57,,,
29333,control_change,20,0,4,,,,,,,,,3,11,50,,,
29336,control_change,14,0,14,,,,,,,,,13,11,57,,,
29338,control_change,14,0,15,,,,,,,,,14,11,57,,,
29340,note_on,16,0,11,,,,,,,,,10,,,,69,112
29343,note_on,16,0,12,,,,,,,,,11,,,,69,112
29344,note_on,0,0,2,,,,,,,,,1,,,,78,0
29344,note_on,16,0,2,,,,,,,,,1,,,,72,0
29345,control_change,5,0,11,,,,,,,,,10,11,58,,,
29345,note_on,16,0,3,,,,,,,,,2,,,,78,0
29345,note_on,0,0,3,,,,,,,,,2,,,,72,0
29346,control_change,21,0,1,,,,,,,,,0,11,51,,,
29348,control_change,5,0,12,,,,,,,,,11,11,58,,,
29348,note_on,16,0,13,,,,,,,,,12,,,,57,112
29349,note_on,0,0,4,,,,,,,,,3,,,,57,0
29349,control_change,5,0,2,,,,,,,,,1,11,51,,,
29349,note_on,16,0,4,,,,,,,,,3,,,,60,0
29350,control_change,5,0,3,,,,,,,,,2,11,51,,,
29352,note_on,16,0,14,,,,,,,,,13,,,,57,112
29353,control_change,5,0,13,,,,,,,,,12,11,58,,,
29354,note_on,16,0,15,,,,,,,,,14,,,,45,112
29354,control_change,5,0,4,,,,,,,,,3,11,51,,,
29357,control_change,5,0,14,,,,,,,,,13,11,58,,,
29359,control_change,5,0,15,,,,,,,,,14,11,58,,,
29365,control_change,20,0,11,,,,,,,,,10,11,59,,,
29366,control_change,20,0,1,,,,,,,,,0,11,52,,,
29368,control_change,20,0,12,,,,,,,,,11,11,59,,,
29369,control_change,20,0,2,,,,,,,,,1,11,52,,,
29370,note_on,5,0,11,,,,,,,,,10,,,,69,0
29370,control_change,20,0,3,,,,,,,,,2,11,52,,,
29373,note_on,5,0,12,,,,,,,,,11,,,,69,0
29373,control_change,20,0,13,,,,,,,,,12,11,59,,,
29374,control_change,20,0,4,,,,,,,,,3,11,52,,,
29377,control_change,20,0,14,,,,,,,,,13,11,59,,,
29378,note_on,5,0,13,,,,,,,,,12,,,,57,0
29379,control_change,20,0,15,,,,,,,,,14,11,59,,,
29382,note_on,5,0,14,,,,,,,,,13,,,,57,0
29384,note_on,5,0,15,,,,,,,,,14,,,,45,0
29386,control_change,16,0,11,,,,,,,,,10,11,60,,,
29387,control_change,21,0,1,,,,,,,,,0,11,52,,,
29389,control_change,16,0,12,,,,,,,,,11,11,60,,,
29390,control_change,21,0,2,,,,,,,,,1,11,52,,,
29391,control_change,21,0,3,,,,,,,,,2,11,52,,,
29394,control_change,16,0,13,,,,,,,,,12,11,60,,,
29395,control_change,21,0,4,,,,,,,,,3,11,53,,,
29398,control_change,16,0,14,,,,,,,,,13,11,60,,,
29400,note_on,14,0,11,,,,,,,,,10,,,,72,112
29400,control_change,16,0,15,,,,,,,,,14,11,60,,,
29400,set_tempo,240,1,0,,,,,,279070,,,,,,,,
29401,note_on,0,0,1,,,,,,,,,0,,,,74,101
29401,note_on,14,0,1,,,,,,,,,0,,,,79,101
29403,note_on,14,0,12,,,,,,,,,11,,,,72,112
29404,note_on,0,0,2,,,,,,,,,1,,,,74,100
29404,note_on,14,0,2,,,,,,,,,1,,,,79,100
29405,note_on,0,0,3,,,,,,,,,2,,,,74,101
29405,note_on,14,0,3,,,,,,,,,2,,,,79,101
29406,control_change,6,0,11,,,,,,,,,10,11,61,,,
29407,control_change,6,0,1,,,,,,,,,0,11,53,,,
29408,note_on,14,0,13,,,,,,,,,12,,,,60,112
29409,note_on,0,0,4,,,,,,,,,3,,,,58,100
29409,note_on,14,0,4,,,,,,,,,3,,,,62,100
29409,control_change,6,0,12,,,,,,,,,11,11,61,,,
29410,control_change,6,0,2,,,,,,,,,1,11,53,,,
29411,control_change,6,0,3,,,,,,,,,2,11,53,,,
29412,note_on,14,0,14,,,,,,,,,13,,,,60,112
29414,control_change,6,0,13,,,,,,,,,12,11,61,,,
29414,note_on,14,0,15,,,,,,,,,14,,,,48,112
29415,control_change,6,0,4,,,,,,,,,3,11,54,,,
29418,control_change,6,0,14,,,,,,,,,13,11,61,,,
29420,control_change,6,0,15,,,,,,,,,14,11,61,,,
29427,control_change,21,0,11,,,,,,,,,10,11,62,,,
29428,control_change,21,0,1,,,,,,,,,0,11,54,,,
29430,note_on,3,0,11,,,,,,,,,10,,,,72,0
29430,control_change,21,0,12,,,,,,,,,11,11,62,,,
29431,control_change,21,0,2,,,,,,,,,1,11,54,,,
29432,control_change,21,0,3,,,,,,,,,2,11,54,,,
29433,note_on,3,0,12,,,,,,,,,11,,,,72,0
29435,control_change,21,0,13,,,,,,,,,12,11,62,,,
29436,control_change,21,0,4,,,,,,,,,3,11,55,,,
29438,note_on,3,0,13,,,,,,,,,12,,,,60,0
29439,control_change,21,0,14,,,,,,,,,13,11,62,,,
29441,control_change,21,0,15,,,,,,,,,14,11,62,,,
29442,note_on,3,0,14,,,,,,,,,13,,,,60,0
29444,note_on,3,0,15,,,,,,,,,14,,,,48,0
29448,control_change,18,0,11,,,,,,,,,10,11,63,,,
29449,control_change,21,0,1,,,,,,,,,0,11,55,,,
29451,control_change,18,0,12,,,,,,,,,11,11,63,,,
29452,control_change,21,0,2,,,,,,,,,1,11,55,,,
29453,control_change,21,0,3,,,,,,,,,2,11,55,,,
29456,control_change,18,0,13,,,,,,,,,12,11,63,,,
29457,control_change,21,0,4,,,,,,,,,3,11,56,,,
29460,note_on,12,0,11,,,,,,,,,10,,,,70,112
29460,control_change,18,0,14,,,,,,,,,13,11,63,,,
29461,note_on,0,0,1,,,,,,,,,0,,,,79,0
29461,note_on,12,0,1,,,,,,,,,0,,,,74,0
29462,control_change,18,0,15,,,,,,,,,14,11,63,,,
29463,note_on,12,0,12,,,,,,,,,11,,,,70,112
29464,note_on,12,0,2,,,,,,,,,1,,,,74,0
29464,note_on,0,0,2,,,,,,,,,1,,,,79,0
29465,note_on,12,0,3,,,,,,,,,2,,,,74,0
29465,note_on,0,0,3,,,,,,,,,2,,,,79,0
29468,control_change,8,0,11,,,,,,,,,10,11,64,,,
29468,note_on,12,0,13,,,,,,,,,12,,,,58,112
29469,note_on,0,0,4,,,,,,,,,3,,,,62,0
29469,note_on,12,0,4,,,,,,,,,3,,,,58,0
29469,control_change,8,0,1,,,,,,,,,0,11,55,,,
29471,control_change,8,0,12,,,,,,,,,11,11,64,,,
29472,control_change,8,0,2,,,,,,,,,1,11,55,,,
29472,note_on,12,0,14,,,,,,,,,13,,,,58,112
29473,control_change,8,0,3,,,,,,,,,2,11,55,,,
29474,note_on,12,0,15,,,,,,,,,14,,,,46,112
29476,control_change,8,0,13,,,,,,,,,12,11,64,,,
29477,control_change,8,0,4,,,,,,,,,3,11,57,,,
29480,control_change,8,0,14,,,,,,,,,13,11,64,,,
29482,control_change,8,0,15,,,,,,,,,14,11,64,,,
29489,control_change,21,0,11,,,,,,,,,10,11,65,,,
29490,note_on,1,0,11,,,,,,,,,10,,,,70,0
29490,control_change,21,0,1,,,,,,,,,0,11,56,,,
29492,control_change,21,0,12,,,,,,,,,11,11,65,,,
29493,control_change,21,0,2,,,,,,,,,1,11,56,,,
29493,note_on,1,0,12,,,,,,,,,11,,,,70,0
29494,control_change,21,0,3,,,,,,,,,2,11,56,,,
29497,control_change,21,0,13,,,,,,,,,12,11,65,,,
29498,note_on,1,0,13,,,,,,,,,12,,,,58,0
29498,control_change,21,0,4,,,,,,,,,3,11,58,,,
29501,control_change,21,0,14,,,,,,,,,13,11,65,,,
29502,note_on,1,0,14,,,,,,,,,13,,,,58,0
29503,control_change,21,0,15,,,,,,,,,14,11,65,,,
29504,note_on,1,0,15,,,,,,,,,14,,,,46,0
29509,control_change,19,0,11,,,,,,,,,10,11,66,,,
29510,control_change,20,0,1,,,,,,,,,0,11,57,,,
29512,control_change,19,0,12,,,,,,,,,11,11,66,,,
29513,control_change,20,0,2,,,,,,,,,1,11,57,,,
29514,control_change,20,0,3,,,,,,,,,2,11,57,,,
29517,control_change,19,0,13,,,,,,,,,12,11,66,,,
29518,control_change,20,0,4,,,,,,,,,3,11,59,,,
29520,note_on,11,0,11,,,,,,,,,10,,,,74,112
29520,set_tempo,120,1,0,,,,,,265487,,,,,,,,
29521,control_change,19,0,14,,,,,,,,,13,11,66,,,
29521,note_on,0,0,1,,,,,,,,,0,,,,75,101
29521,note_on,11,0,1,,,,,,,,,0,,,,81,101
29523,note_on,11,0,12,,,,,,,,,11,,,,74,112
29523,control_change,19,0,15,,,,,,,,,14,11,66,,,
29524,note_on,0,0,2,,,,,,,,,1,,,,81,100
29524,note_on,11,0,2,,,,,,,,,1,,,,75,100
29525,note_on,0,0,3,,,,,,,,,2,,,,75,101
29525,note_on,11,0,3,,,,,,,,,2,,,,81,101
29528,note_on,11,0,13,,,,,,,,,12,,,,62,112
29529,note_on,0,0,4,,,,,,,,,3,,,,63,100
29529,note_on,11,0,4,,,,,,,,,3,,,,60,100
29530,control_change,10,0,11,,,,,,,,,10,11,67,,,
29531,control_change,10,0,1,,,,,,,,,0,11,58,,,
29532,note_on,11,0,14,,,,,,,,,13,,,,62,112
29533,control_change,10,0,12,,,,,,,,,11,11,67,,,
29534,note_on,11,0,15,,,,,,,,,14,,,,50,112
29534,control_change,10,0,2,,,,,,,,,1,11,58,,,
29535,control_change,10,0,3,,,,,,,,,2,11,58,,,
29538,control_change,10,0,13,,,,,,,,,12,11,67,,,
29539,control_change,10,0,4,,,,,,,,,3,11,60,,,
29542,control_change,10,0,14,,,,,,,,,13,11,67,,,
29544,control_change,10,0,15,,,,,,,,,14,11,67,,,
29550,control_change,0,0,11,,,,,,,,,10,11,68,,,
29550,note_on,20,0,11,,,,,,,,,10,,,,74,0
29551,control_change,20,0,1,,,,,,,,,0,11,58,,,
29553,control_change,0,0,12,,,,,,,,,11,11,68,,,
29553,note_on,20,0,12,,,,,,,,,11,,,,74,0
29554,control_change,20,0,2,,,,,,,,,1,11,58,,,
29555,control_change,20,0,3,,,,,,,,,2,11,58,,,
29558,control_change,0,0,13,,,,,,,,,12,11,68,,,
29558,note_on,20,0,13,,,,,,,,,12,,,,62,0
29559,control_change,20,0,4,,,,,,,,,3,11,61,,,
29562,note_on,20,0,14,,,,,,,,,13,,,,62,0
29562,control_change,0,0,14,,,,,,,,,13,11,68,,,
29564,control_change,0,0,15,,,,,,,,,14,11,68,,,
29564,note_on,20,0,15,,,,,,,,,14,,,,50,0
29571,control_change,21,0,11,,,,,,,,,10,11,69,,,
29572,control_change,21,0,1,,,,,,,,,0,11,59,,,
29574,control_change,21,0,12,,,,,,,,,11,11,69,,,
29575,control_change,21,0,2,,,,,,,,,1,11,59,,,
29576,control_change,21,0,3,,,,,,,,,2,11,59,,,
29579,control_change,21,0,13,,,,,,,,,12,11,69,,,
29580,note_on,9,0,11,,,,,,,,,10,,,,72,112
29580,control_change,21,0,4,,,,,,,,,3,11,62,,,
29581,note_on,9,0,1,,,,,,,,,0,,,,75,0
29581,note_on,0,0,1,,,,,,,,,0,,,,81,0
29583,note_on,9,0,12,,,,,,,,,11,,,,72,112
29583,control_change,21,0,14,,,,,,,,,13,11,69,,,
29584,note_on,9,0,2,,,,,,,,,1,,,,81,0
29584,note_on,0,0,2,,,,,,,,,1,,,,75,0
29585,note_on,0,0,3,,,,,,,,,2,,,,81,0
29585,note_on,9,0,3,,,,,,,,,2,,,,75,0
29585,control_change,21,0,15,,,,,,,,,14,11,69,,,
29588,note_on,9,0,13,,,,,,,,,12,,,,60,112
29589,note_on,0,0,4,,,,,,,,,3,,,,60,0
29589,note_on,9,0,4,,,,,,,,,3,,,,63,0
29592,control_change,12,0,11,,,,,,,,,10,11,70,,,
29592,note_on,9,0,14,,,,,,,,,13,,,,60,112
29593,control_change,12,0,1,,,,,,,,,0,11,60,,,
29594,note_on,9,0,15,,,,,,,,,14,,,,48,112
29595,control_change,12,0,12,,,,,,,,,11,11,70,,,
29596,control_change,12,0,2,,,,,,,,,1,11,60,,,
29597,control_change,12,0,3,,,,,,,,,2,11,60,,,
29600,control_change,12,0,13,,,,,,,,,12,11,70,,,
29601,control_change,12,0,4,,,,,,,,,3,11,63,,,
29604,control_change,12,0,14,,,,,,,,,13,11,70,,,
29606,control_change,12,0,15,,,,,,,,,14,11,70,,,
29610,note_on,18,0,11,,,,,,,,,10,,,,72,0
29612,control_change,2,0,11,,,,,,,,,10,11,71,,,
29613,note_on,18,0,12,,,,,,,,,11,,,,72,0
29613,control_change,20,0,1,,,,,,,,,0,11,61,,,
29615,control_change,2,0,12,,,,,,,,,11,11,71,,,
29616,control_change,20,0,2,,,,,,,,,1,11,61,,,
29617,control_change,20,0,3,,,,,,,,,2,11,61,,,
29618,note_on,18,0,13,,,,,,,,,12,,,,60,0
29620,control_change,2,0,13,,,,,,,,,12,11,71,,,
29621,control_change,20,0,4,,,,,,,,,3,11,64,,,
29622,note_on,18,0,14,,,,,,,,,13,,,,60,0
29624,control_change,2,0,14,,,,,,,,,13,11,71,,,
29624,note_on,18,0,15,,,,,,,,,14,,,,48,0
29626,control_change,2,0,15,,,,,,,,,14,11,71,,,
29633,control_change,21,0,11,,,,,,,,,10,11,72,,,
29634,control_change,21,0,1,,,,,,,,,0,11,61,,,
29636,control_change,21,0,12,,,,,,,,,11,11,72,,,
29637,control_change,21,0,2,,,,,,,,,1,11,61,,,
29638,control_change,21,0,3,,,,,,,,,2,11,61,,,
29640,note_on,7,0,11,,,,,,,,,10,,,,75,112
29641,note_on,7,0,1,,,,,,,,,0,,,,82,101
29641,control_change,21,0,13,,,,,,,,,12,11,72,,,
29641,note_on,0,0,1,,,,,,,,,0,,,,77,101
29642,control_change,21,0,4,,,,,,,,,3,11,65,,,
29643,note_on,7,0,12,,,,,,,,,11,,,,75,112
29644,note_on,0,0,2,,,,,,,,,1,,,,82,100
29644,note_on,7,0,2,,,,,,,,,1,,,,77,100
29645,control_change,21,0,14,,,,,,,,,13,11,72,,,
29645,note_on,7,0,3,,,,,,,,,2,,,,77,101
29645,note_on,0,0,3,,,,,,,,,2,,,,82,101
29647,control_change,21,0,15,,,,,,,,,14,11,72,,,
29648,note_on,7,0,13,,,,,,,,,12,,,,63,112
29649,note_on,7,0,4,,,,,,,,,3,,,,65,100
29649,note_on,0,0,4,,,,,,,,,3,,,,62,100
29652,note_on,7,0,14,,,,,,,,,13,,,,63,112
29653,control_change,13,0,11,,,,,,,,,10,11,72,,,
29654,note_on,7,0,15,,,,,,,,,14,,,,51,112
29654,control_change,13,0,1,,,,,,,,,0,11,62,,,
29656,control_change,13,0,12,,,,,,,,,11,11,72,,,
29657,control_change,13,0,2,,,,,,,,,1,11,62,,,
29658,control_change,13,0,3,,,,,,,,,2,11,62,,,
29661,control_change,13,0,13,,,,,,,,,12,11,72,,,
29662,control_change,13,0,4,,,,,,,,,3,11,66,,,
29665,control_change,13,0,14,,,,,,,,,13,11,72,,,
29667,control_change,13,0,15,,,,,,,,,14,11,72,,,
29670,note_on,17,0,11,,,,,,,,,10,,,,75,0
29673,note_on,17,0,12,,,,,,,,,11,,,,75,0
29674,control_change,4,0,11,,,,,,,,,10,11,73,,,
29675,control_change,21,0,1,,,,,,,,,0,11,63,,,
29677,control_change,4,0,12,,,,,,,,,11,11,73,,,
29678,control_change,21,0,2,,,,,,,,,1,11,63,,,
29678,note_on,17,0,13,,,,,,,,,12,,,,63,0
29679,control_change,21,0,3,,,,,,,,,2,11,63,,,
29682,control_change,4,0,13,,,,,,,,,12,11,73,,,
29682,note_on,17,0,14,,,,,,,,,13,,,,63,0
29683,control_change,21,0,4,,,,,,,,,3,11,67,,,
29684,note_on,17,0,15,,,,,,,,,14,,,,51,0
29686,control_change,4,0,14,,,,,,,,,13,11,73,,,
29688,control_change,4,0,15,,,,,,,,,14,11,73,,,
29694,control_change,20,0,11,,,,,,,,,10,11,74,,,
29695,control_change,20,0,1,,,,,,,,,0,11,64,,,
29697,control_change,20,0,12,,,,,,,,,11,11,74,,,
29698,control_change,20,0,2,,,,,,,,,1,11,64,,,
29699,control_change,20,0,3,,,,,,,,,2,11,64,,,
29700,note_on,6,0,11,,,,,,,,,10,,,,74,112
29701,note_on,6,0,1,,,,,,,,,0,,,,77,0
29701,note_on,0,0,1,,,,,,,,,0,,,,82,0
29702,control_change,20,0,13,,,,,,,,,12,11,74,,,
29703,note_on,6,0,12,,,,,,,,,11,,,,74,112
29703,control_change,20,0,4,,,,,,,,,3,11,68,,,
29704,note_on,6,0,2,,,,,,,,,1,,,,82,0
29704,note_on,0,0,2,,,,,,,,,1,,,,77,0
29705,note_on,6,0,3,,,,,,,,,2,,,,82,0
29705,note_on,0,0,3,,,,,,,,,2,,,,77,0
29706,control_change,20,0,14,,,,,,,,,13,11,74,,,
29708,note_on,6,0,13,,,,,,,,,12,,,,62,112
29708,control_change,20,0,15,,,,,,,,,14,11,74,,,
29709,note_on,6,0,4,,,,,,,,,3,,,,62,0
29709,note_on,0,0,4,,,,,,,,,3,,,,65,0
29712,note_on,6,0,14,,,,,,,,,13,,,,62,112
29714,note_on,6,0,15,,,,,,,,,14,,,,50,112
29715,control_change,15,0,11,,,,,,,,,10,11,75,,,
29716,control_change,15,0,1,,,,,,,,,0,11,64,,,
29718,control_change,15,0,12,,,,,,,,,11,11,75,,,
29719,control_change,15,0,2,,,,,,,,,1,11,64,,,
29720,control_change,15,0,3,,,,,,,,,2,11,64,,,
29723,control_change,15,0,13,,,,,,,,,12,11,75,,,
29724,control_change,15,0,4,,,,,,,,,3,11,69,,,
29727,control_change,15,0,14,,,,,,,,,13,11,75,,,
29729,control_change,15,0,15,,,,,,,,,14,11,75,,,
29730,note_on,15,0,11,,,,,,,,,10,,,,74,0
29733,note_on,15,0,12,,,,,,,,,11,,,,74,0
29736,control_change,6,0,11,,,,,,,,,10,11,76,,,
29737,control_change,21,0,1,,,,,,,,,0,11,65,,,
29738,note_on,15,0,13,,,,,,,,,12,,,,62,0
29739,control_change,6,0,12,,,,,,,,,11,11,76,,,
29740,control_change,21,0,2,,,,,,,,,1,11,65,,,
29741,control_change,21,0,3,,,,,,,,,2,11,65,,,
29742,note_on,15,0,14,,,,,,,,,13,,,,62,0
29744,control_change,6,0,13,,,,,,,,,12,11,76,,,
29744,note_on,15,0,15,,,,,,,,,14,,,,50,0
29745,control_change,21,0,4,,,,,,,,,3,11,70,,,
29748,control_change,6,0,14,,,,,,,,,13,11,76,,,
29750,control_change,6,0,15,,,,,,,,,14,11,76,,,
29756,control_change,20,0,11,,,,,,,,,10,11,77,,,
29757,control_change,20,0,1,,,,,,,,,0,11,66,,,
29759,control_change,20,0,12,,,,,,,,,11,11,77,,,
29760,note_on,4,0,11,,,,,,,,,10,,,,77,112
29760,set_tempo,240,1,0,,,,,,279070,,,,,,,,
29760,control_change,20,0,2,,,,,,,,,1,11,66,,,
29761,note_on,4,0,1,,,,,,,,,0,,,,85,101
29761,control_change,20,0,3,,,,,,,,,2,11,66,,,
29761,note_on,0,0,1,,,,,,,,,0,,,,82,101
29763,note_on,4,0,12,,,,,,,,,11,,,,77,112
29764,note_on,0,0,2,,,,,,,,,1,,,,73,100
29764,control_change,20,0,13,,,,,,,,,12,11,77,,,
29764,note_on,4,0,2,,,,,,,,,1,,,,79,100
29765,note_on,4,0,3,,,,,,,,,2,,,,79,101
29765,note_on,0,0,3,,,,,,,,,2,,,,82,101
29765,control_change,20,0,4,,,,,,,,,3,11,71,,,
29768,control_change,20,0,14,,,,,,,,,13,11,77,,,
29768,note_on,4,0,13,,,,,,,,,12,,,,65,112
29769,note_on,0,0,4,,,,,,,,,3,,,,63,100
29769,note_on,4,0,4,,,,,,,,,3,,,,67,100
29770,control_change,20,0,15,,,,,,,,,14,11,77,,,
29772,note_on,4,0,14,,,,,,,,,13,,,,65,112
29774,note_on,4,0,15,,,,,,,,,14,,,,53,112
29777,control_change,17,0,11,,,,,,,,,10,11,78,,,
29778,control_change,17,0,1,,,,,,,,,0,11,67,,,
29780,control_change,17,0,12,,,,,,,,,11,11,78,,,
29781,control_change,17,0,2,,,,,,,,,1,11,67,,,
29782,control_change,17,0,3,,,,,,,,,2,11,67,,,
29785,control_change,17,0,13,,,,,,,,,12,11,78,,,
29786,control_change,17,0,4,,,,,,,,,3,11,72,,,
29789,control_change,17,0,14,,,,,,,,,13,11,78,,,
29790,note_on,13,0,11,,,,,,,,,10,,,,77,0
29791,control_change,17,0,15,,,,,,,,,14,11,78,,,
29793,note_on,13,0,12,,,,,,,,,11,,,,77,0
29797,control_change,7,0,11,,,,,,,,,10,11,79,,,
29798,control_change,20,0,1,,,,,,,,,0,11,67,,,
29798,note_on,13,0,13,,,,,,,,,12,,,,65,0
29800,control_change,7,0,12,,,,,,,,,11,11,79,,,
29801,control_change,20,0,2,,,,,,,,,1,11,67,,,
29802,control_change,20,0,3,,,,,,,,,2,11,67,,,
29802,note_on,13,0,14,,,,,,,,,13,,,,65,0
29804,note_on,13,0,15,,,,,,,,,14,,,,53,0
29805,control_change,7,0,13,,,,,,,,,12,11,79,,,
29806,control_change,20,0,4,,,,,,,,,3,11,73,,,
29809,control_change,7,0,14,,,,,,,,,13,11,79,,,
29811,control_change,7,0,15,,,,,,,,,14,11,79,,,
29818,control_change,21,0,11,,,,,,,,,10,11,80,,,
29819,control_change,21,0,1,,,,,,,,,0,11,68,,,
29820,note_on,2,0,11,,,,,,,,,10,,,,75,112
29821,note_on,0,0,1,,,,,,,,,0,,,,85,0
29821,note_on,2,0,1,,,,,,,,,0,,,,82,0
29821,control_change,21,0,12,,,,,,,,,11,11,80,,,
29822,control_change,21,0,2,,,,,,,,,1,11,68,,,
29823,control_change,21,0,3,,,,,,,,,2,11,68,,,
29823,note_on,2,0,12,,,,,,,,,11,,,,75,112
29824,note_on,0,0,2,,,,,,,,,1,,,,79,0
29824,note_on,2,0,2,,,,,,,,,1,,,,73,0
29825,note_on,0,0,3,,,,,,,,,2,,,,79,0
29825,note_on,2,0,3,,,,,,,,,2,,,,82,0
29826,control_change,21,0,13,,,,,,,,,12,11,80,,,
29827,control_change,21,0,4,,,,,,,,,3,11,74,,,
29828,note_on,2,0,13,,,,,,,,,12,,,,63,112
29829,note_on,2,0,4,,,,,,,,,3,,,,63,0
29829,note_on,0,0,4,,,,,,,,,3,,,,67,0
29830,control_change,21,0,14,,,,,,,,,13,11,80,,,
29832,note_on,2,0,14,,,,,,,,,13,,,,63,112
29832,control_change,21,0,15,,,,,,,,,14,11,80,,,
29834,note_on,2,0,15,,,,,,,,,14,,,,51,112
29838,control_change,18,0,11,,,,,,,,,10,11,81,,,
29839,control_change,18,0,1,,,,,,,,,0,11,69,,,
29841,control_change,18,0,12,,,,,,,,,11,11,81,,,
29842,control_change,18,0,2,,,,,,,,,1,11,69,,,
29843,control_change,18,0,3,,,,,,,,,2,11,69,,,
29846,control_change,18,0,13,,,,,,,,,12,11,81,,,
29847,control_change,18,0,4,,,,,,,,,3,11,75,,,
29850,note_on,12,0,11,,,,,,,,,10,,,,75,0
29850,control_change,18,0,14,,,,,,,,,13,11,81,,,
29852,control_change,18,0,15,,,,,,,,,14,11,81,,,
29853,note_on,12,0,12,,,,,,,,,11,,,,75,0
29858,note_on,12,0,13,,,,,,,,,12,,,,63,0
29859,control_change,9,0,11,,,,,,,,,10,11,82,,,
29860,control_change,21,0,1,,,,,,,,,0,11,70,,,
29862,control_change,9,0,12,,,,,,,,,11,11,82,,,
29862,note_on,12,0,14,,,,,,,,,13,,,,63,0
29863,control_change,21,0,2,,,,,,,,,1,11,70,,,
29864,note_on,12,0,15,,,,,,,,,14,,,,51,0
29864,control_change,21,0,3,,,,,,,,,2,11,70,,,
29867,control_change,9,0,13,,,,,,,,,12,11,82,,,
29868,control_change,21,0,4,,,,,,,,,3,11,76,,,
29871,control_change,9,0,14,,,,,,,,,13,11,82,,,
29873,control_change,9,0,15,,,,,,,,,14,11,82,,,
29880,control_change,21,0,11,,,,,,,,,10,11,83,,,
29880,set_tempo,120,1,0,,,,,,265487,,,,,,,,
29880,note_on,0,0,11,,,,,,,,,10,,,,74,112
29881,control_change,21,0,1,,,,,,,,,0,11,70,,,
29881,note_on,0,0,1,,,,,,,,,0,,,,86,101
29881,note_on,0,0,1,,,,,,,,,0,,,,83,101
29882,note_on,0,0,7,,,,,,,,,6,,,,74,112
29882,control_change,9360,0,7,,,,,,,,,6,11,82,,,
29883,note_on,21,0,12,,,,,,,,,11,,,,74,112
29883,note_on,0,0,5,,,,,,,,,4,,,,62,100
29883,control_change,5083,0,5,,,,,,,,,4,11,82,,,
29883,control_change,0,0,12,,,,,,,,,11,11,83,,,
29884,note_on,0,0,6,,,,,,,,,5,,,,62,100
29884,control_change,5083,0,6,,,,,,,,,5,11,82,,,
29884,note_on,0,0,2,,,,,,,,,1,,,,79,100
29884,note_on,21,0,2,,,,,,,,,1,,,,74,100
29884,control_change,0,0,2,,,,,,,,,1,11,70,,,
29885,control_change,21,0,3,,,,,,,,,2,11,70,,,
29885,note_on,0,0,3,,,,,,,,,2,,,,79,101
29885,note_on,0,0,3,,,,,,,,,2,,,,83,101
29887,note_on,0,0,8,,,,,,,,,7,,,,62,110
29887,note_on,9360,0,8,,,,,,,,,7,,,,59,110
29887,control_change,0,0,8,,,,,,,,,7,11,82,,,
29888,control_change,0,0,13,,,,,,,,,12,11,83,,,
29888,note_on,21,0,13,,,,,,,,,12,,,,62,112
29889,control_change,21,0,4,,,,,,,,,3,11,77,,,
29889,note_on,0,0,4,,,,,,,,,3,,,,62,100
29892,control_change,0,0,14,,,,,,,,,13,11,83,,,
29892,note_on,21,0,14,,,,,,,,,13,,,,62,112
29893,control_change,9360,0,9,,,,,,,,,8,11,82,,,
29893,note_on,0,0,9,,,,,,,,,8,,,,50,110
29894,note_on,21,0,15,,,,,,,,,14,,,,50,112
29894,control_change,0,0,15,,,,,,,,,14,11,83,,,
30000,note_on,120,0,11,,,,,,,,,10,,,,74,0
30001,note_on,120,0,1,,,,,,,,,0,,,,83,0
30001,note_on,0,0,1,,,,,,,,,0,,,,86,0
30002,note_on,120,0,7,,,,,,,,,6,,,,74,0
30003,note_on,120,0,12,,,,,,,,,11,,,,74,0
30003,note_on,120,0,5,,,,,,,,,4,,,,62,0
30004,note_on,0,0,2,,,,,,,,,1,,,,74,0
30004,note_on,120,0,6,,,,,,,,,5,,,,62,0
30004,note_on,120,0,2,,,,,,,,,1,,,,79,0
30005,note_on,120,0,3,,,,,,,,,2,,,,79,0
30005,note_on,0,0,3,,,,,,,,,2,,,,83,0
30007,note_on,120,0,8,,,,,,,,,7,,,,62,0
30007,note_on,0,0,8,,,,,,,,,7,,,,59,0
30008,note_on,120,0,13,,,,,,,,,12,,,,62,0
30009,note_on,120,0,4,,,,,,,,,3,,,,62,0
30012,note_on,120,0,14,,,,,,,,,13,,,,62,0
30013,note_on,120,0,9,,,,,,,,,8,,,,50,0
30014,note_on,120,0,15,,,,,,,,,14,,,,50,0
30120,set_tempo,240,1,0,,,,,,295567,,,,,,,,
30240,set_tempo,120,1,0,,,,,,265487,,,,,,,,
30240,note_on,0,0,11,,,,,,,,,10,,,,69,112
30240,control_change,240,0,11,,,,,,,,,10,11,102,,,
30240,note_on,0,0,11,,,,,,,,,10,,,,78,112
30240,note_on,0,0,11,,,,,,,,,10,,,,62,112
30241,note_on,0,0,1,,,,,,,,,0,,,,90,101
30241,control_change,0,0,1,,,,,,,,,0,11,86,,,
30241,note_on,240,0,1,,,,,,,,,0,,,,84,101
30242,control_change,0,0,7,,,,,,,,,6,11,102,,,
30242,note_on,240,0,7,,,,,,,,,6,,,,74,112
30243,control_change,240,0,5,,,,,,,,,4,11,102,,,
30243,note_on,0,0,5,,,,,,,,,4,,,,62,100
30243,control_change,240,0,12,,,,,,,,,11,11,102,,,
30243,note_on,0,0,12,,,,,,,,,11,,,,62,112
30243,note_on,0,0,12,,,,,,,,,11,,,,69,112
30243,note_on,0,0,12,,,,,,,,,11,,,,78,112
30244,note_on,0,0,6,,,,,,,,,5,,,,62,100
30244,note_on,240,0,2,,,,,,,,,1,,,,81,100
30244,note_on,0,0,2,,,,,,,,,1,,,,78,100
30244,control_change,0,0,2,,,,,,,,,1,11,86,,,
30244,control_change,240,0,6,,,,,,,,,5,11,102,,,
30245,note_on,0,0,3,,,,,,,,,2,,,,78,101
30245,note_on,240,0,3,,,,,,,,,2,,,,72,101
30245,control_change,0,0,3,,,,,,,,,2,11,86,,,
30247,note_on,240,0,8,,,,,,,,,7,,,,60,110
30247,note_on,0,0,8,,,,,,,,,7,,,,66,110
30247,control_change,0,0,8,,,,,,,,,7,11,102,,,
30248,control_change,240,0,13,,,,,,,,,12,11,102,,,
30248,note_on,0,0,13,,,,,,,,,12,,,,62,112
30249,note_on,0,0,4,,,,,,,,,3,,,,62,100
30249,note_on,240,0,4,,,,,,,,,3,,,,50,100
30249,control_change,0,0,4,,,,,,,,,3,11,97,,,
30252,note_on,240,0,14,,,,,,,,,13,,,,50,112
30252,control_change,0,0,14,,,,,,,,,13,11,102,,,
30253,note_on,0,0,9,,,,,,,,,8,,,,50,110
30253,control_change,240,0,9,,,,,,,,,8,11,102,,,
30254,control_change,0,0,15,,,,,,,,,14,11,102,,,
30254,note_on,240,0,15,,,,,,,,,14,,,,50,112
30360,note_on,120,0,11,,,,,,,,,10,,,,78,0
30360,note_on,0,0,11,,,,,,,,,10,,,,62,0
30360,note_on,0,0,11,,,,,,,,,10,,,,69,0
30361,note_on,0,0,1,,,,,,,,,0,,,,84,0
30361,note_on,120,0,1,,,,,,,,,0,,,,90,0
30362,note_on,120,0,7,,,,,,,,,6,,,,74,0
30363,note_on,120,0,5,,,,,,,,,4,,,,62,0
30363,note_on,0,0,12,,,,,,,,,11,,,,62,0
30363,note_on,0,0,12,,,,,,,,,11,,,,69,0
30363,note_on,120,0,12,,,,,,,,,11,,,,78,0
30364,note_on,0,0,2,,,,,,,,,1,,,,81,0
30364,note_on,120,0,2,,,,,,,,,1,,,,78,0
30364,note_on,120,0,6,,,,,,,,,5,,,,62,0
30365,note_on,120,0,3,,,,,,,,,2,,,,78,0
30365,note_on,0,0,3,,,,,,,,,2,,,,72,0
30367,note_on,120,0,8,,,,,,,,,7,,,,66,0
30367,note_on,0,0,8,,,,,,,,,7,,,,60,0
30368,note_on,120,0,13,,,,,,,,,12,,,,62,0
30369,note_on,0,0,4,,,,,,,,,3,,,,50,0
30369,note_on,120,0,4,,,,,,,,,3,,,,62,0
30372,note_on,120,0,14,,,,,,,,,13,,,,50,0
30373,note_on,120,0,9,,,,,,,,,8,,,,50,0
30374,note_on,120,0,15,,,,,,,,,14,,,,50,0
30480,set_tempo,240,1,0,,,,,,295567,,,,,,,,
30600,note_on,0,0,11,,,,,,,,,10,,,,71,112
30600,note_on,0,0,11,,,,,,,,,10,,,,79,112
30600,note_on,0,0,11,,,,,,,,,10,,,,62,112
30600,note_on,240,0,11,,,,,,,,,10,,,,55,112
30600,set_tempo,120,1,0,,,,,,265487,,,,,,,,
30601,note_on,240,0,1,,,,,,,,,0,,,,91,101
30601,note_on,0,0,1,,,,,,,,,0,,,,83,101
30602,note_on,0,0,7,,,,,,,,,6,,,,74,112
30602,note_on,240,0,7,,,,,,,,,6,,,,67,112
30603,note_on,0,0,12,,,,,,,,,11,,,,55,112
30603,note_on,240,0,5,,,,,,,,,4,,,,62,100
30603,note_on,0,0,12,,,,,,,,,11,,,,62,112
30603,note_on,0,0,12,,,,,,,,,11,,,,79,112
30603,note_on,240,0,12,,,,,,,,,11,,,,71,112
30604,note_on,0,0,2,,,,,,,,,1,,,,83,100
30604,note_on,240,0,2,,,,,,,,,1,,,,79,100
30604,note_on,240,0,6,,,,,,,,,5,,,,55,100
30605,note_on,0,0,3,,,,,,,,,2,,,,71,101
30605,note_on,240,0,3,,,,,,,,,2,,,,79,101
30607,note_on,0,0,8,,,,,,,,,7,,,,67,110
30607,note_on,240,0,8,,,,,,,,,7,,,,59,110
30608,note_on,240,0,13,,,,,,,,,12,,,,55,112
30609,note_on,240,0,4,,,,,,,,,3,,,,59,100
30609,note_on,0,0,4,,,,,,,,,3,,,,55,100
30612,note_on,240,0,14,,,,,,,,,13,,,,55,112
30613,note_on,240,0,9,,,,,,,,,8,,,,43,110
30614,note_on,240,0,15,,,,,,,,,14,,,,43,112
30615,note_on,6000,0,10,,,,,,,,,15,,,,43,92
30635,note_on,30,0,3,,,,,,,,,2,,,,79,0
30639,note_on,30,0,4,,,,,,,,,3,,,,59,0
30665,note_on,30,0,3,,,,,,,,,2,,,,74,101
30669,note_on,30,0,4,,,,,,,,,3,,,,62,100
30720,note_on,0,0,11,,,,,,,,,10,,,,79,0
30720,note_on,0,0,11,,,,,,,,,10,,,,62,0
30720,note_on,0,0,11,,,,,,,,,10,,,,55,0
30720,note_on,120,0,11,,,,,,,,,10,,,,71,0
30721,note_on,120,0,1,,,,,,,,,0,,,,83,0
30721,note_on,0,0,1,,,,,,,,,0,,,,91,0
30722,note_on,0,0,7,,,,,,,,,6,,,,67,0
30722,note_on,120,0,7,,,,,,,,,6,,,,74,0
30723,note_on,0,0,12,,,,,,,,,11,,,,71,0
30723,note_on,120,0,5,,,,,,,,,4,,,,62,0
30723,note_on,120,0,12,,,,,,,,,11,,,,79,0
30723,note_on,0,0,12,,,,,,,,,11,,,,55,0
30723,note_on,0,0,12,,,,,,,,,11,,,,62,0
30724,note_on,120,0,6,,,,,,,,,5,,,,55,0
30724,note_on,0,0,2,,,,,,,,,1,,,,79,0
30724,note_on,120,0,2,,,,,,,,,1,,,,83,0
30725,note_on,60,0,3,,,,,,,,,2,,,,74,0
30725,note_on,0,0,3,,,,,,,,,2,,,,76,101
30725,note_on,0,0,3,,,,,,,,,2,,,,71,0
30725,control_change,0,0,3,,,,,,,,,2,11,47,,,
30727,note_on,120,0,8,,,,,,,,,7,,,,67,0
30727,note_on,0,0,8,,,,,,,,,7,,,,59,0
30728,note_on,120,0,13,,,,,,,,,12,,,,55,0
30729,note_on,60,0,4,,,,,,,,,3,,,,62,0
30729,control_change,0,0,4,,,,,,,,,3,11,47,,,
30729,note_on,0,0,4,,,,,,,,,3,,,,55,0
30729,note_on,0,0,4,,,,,,,,,3,,,,64,100
30732,note_on,120,0,14,,,,,,,,,13,,,,55,0
30733,note_on,120,0,9,,,,,,,,,8,,,,43,0
30734,note_on,120,0,15,,,,,,,,,14,,,,43,0
30735,note_on,120,0,10,,,,,,,,,15,,,,43,0
30785,note_on,60,0,3,,,,,,,,,2,,,,76,0
30785,note_on,0,0,3,,,,,,,,,2,,,,74,101
30789,note_on,60,0,4,,,,,,,,,3,,,,64,0
30789,note_on,0,0,4,,,,,,,,,3,,,,62,100
30840,set_tempo,240,1,0,,,,,,279070,,,,,,,,
30845,note_on,60,0,3,,,,,,,,,2,,,,74,0
30845,note_on,0,0,3,,,,,,,,,2,,,,76,101
30849,note_on,0,0,4,,,,,,,,,3,,,,64,100
30849,note_on,60,0,4,,,,,,,,,3,,,,62,0
30852,note_on,120,0,14,,,,,,,,,13,,,,47,112
30852,control_change,0,0,14,,,,,,,,,13,11,50,,,
30854,note_on,120,0,15,,,,,,,,,14,,,,35,112
30854,control_change,0,0,15,,,,,,,,,14,11,50,,,
30905,note_on,60,0,3,,,,,,,,,2,,,,76,0
30905,note_on,0,0,3,,,,,,,,,2,,,,74,101
30909,note_on,0,0,4,,,,,,,,,3,,,,62,100
30909,note_on,60,0,4,,,,,,,,,3,,,,64,0
30960,set_tempo,120,1,0,,,,,,264901,,,,,,,,
30965,note_on,0,0,3,,,,,,,,,2,,,,74,101
30965,note_on,0,0,3,,,,,,,,,2,,,,71,101
30965,note_on,60,0,3,,,,,,,,,2,,,,74,0
30969,note_on,60,0,4,,,,,,,,,3,,,,62,0
30969,note_on,0,0,4,,,,,,,,,3,,,,59,100
30969,note_on,0,0,4,,,,,,,,,3,,,,62,100
30972,note_on,0,0,14,,,,,,,,,13,,,,50,112
30972,note_on,120,0,14,,,,,,,,,13,,,,47,0
30974,note_on,120,0,15,,,,,,,,,14,,,,35,0
30974,note_on,0,0,15,,,,,,,,,14,,,,38,112
31025,note_on,0,0,3,,,,,,,,,2,,,,71,0
31025,note_on,60,0,3,,,,,,,,,2,,,,74,0
31029,note_on,60,0,4,,,,,,,,,3,,,,62,0
31029,note_on,0,0,4,,,,,,,,,3,,,,59,0
31032,note_on,60,0,14,,,,,,,,,13,,,,50,0
31034,note_on,60,0,15,,,,,,,,,14,,,,38,0
31080,set_tempo,120,1,0,,,,,,272727,,,,,,,,
31085,note_on,0,0,3,,,,,,,,,2,,,,71,101
31085,note_on,60,0,3,,,,,,,,,2,,,,74,101
31089,note_on,0,0,4,,,,,,,,,3,,,,59,100
31089,note_on,60,0,4,,,,,,,,,3,,,,62,100
31092,note_on,60,0,14,,,,,,,,,13,,,,47,112
31094,note_on,60,0,15,,,,,,,,,14,,,,35,112
31145,note_on,60,0,3,,,,,,,,,2,,,,71,0
31145,note_on,0,0,3,,,,,,,,,2,,,,74,0
31149,note_on,60,0,4,,,,,,,,,3,,,,59,0
31149,note_on,0,0,4,,,,,,,,,3,,,,62,0
31152,note_on,60,0,14,,,,,,,,,13,,,,47,0
31154,note_on,60,0,15,,,,,,,,,14,,,,35,0
31200,set_tempo,120,1,0,,,,,,300000,,,,,,,,
31200,note_on,480,0,11,,,,,,,,,10,,,,67,112
31200,control_change,0,0,11,,,,,,,,,10,11,50,,,
31205,note_on,0,0,3,,,,,,,,,2,,,,71,101
31205,note_on,60,0,3,,,,,,,,,2,,,,74,101
31209,note_on,60,0,4,,,,,,,,,3,,,,59,100
31209,note_on,0,0,4,,,,,,,,,3,,,,62,100
31212,note_on,60,0,14,,,,,,,,,13,,,,43,112
31214,note_on,60,0,15,,,,,,,,,14,,,,31,112
31240,note_on,0,0,11,,,,,,,,,10,,,,69,112
31240,note_on,40,0,11,,,,,,,,,10,,,,67,0
31265,note_on,60,0,3,,,,,,,,,2,,,,71,0
31265,note_on,0,0,3,,,,,,,,,2,,,,74,0
31269,note_on,60,0,4,,,,,,,,,3,,,,62,0
31269,note_on,0,0,4,,,,,,,,,3,,,,59,0
31272,note_on,60,0,14,,,,,,,,,13,,,,43,0
31274,note_on,60,0,15,,,,,,,,,14,,,,31,0
31280,note_on,40,0,11,,,,,,,,,10,,,,69,0
31280,note_on,0,0,11,,,,,,,,,10,,,,67,112
31320,note_on,40,0,11,,,,,,,,,10,,,,67,0
31320,set_tempo,120,1,0,,,,,,264901,,,,,,,,
31320,control_change,0,0,11,,,,,,,,,10,11,73,,,
31320,note_on,0,0,11,,,,,,,,,10,,,,66,112
31323,note_on,0,0,5,,,,,,,,,4,,,,62,100
31323,control_change,600,0,5,,,,,,,,,4,11,77,,,
31324,control_change,0,0,6,,,,,,,,,5,11,77,,,
31324,note_on,600,0,6,,,,,,,,,5,,,,62,100
31325,note_on,0,0,3,,,,,,,,,2,,,,72,116
31325,note_on,60,0,3,,,,,,,,,2,,,,74,116
31329,note_on,60,0,4,,,,,,,,,3,,,,62,115
31329,note_on,0,0,4,,,,,,,,,3,,,,60,115
31330,control_change,7,0,5,,,,,,,,,4,11,74,,,
31331,control_change,7,0,6,,,,,,,,,5,11,74,,,
31332,control_change,60,0,14,,,,,,,,,13,11,73,,,
31332,note_on,0,0,14,,,,,,,,,13,,,,50,112
31334,control_change,60,0,15,,,,,,,,,14,11,73,,,
31334,control_change,14,0,11,,,,,,,,,10,11,68,,,
31334,note_on,0,0,15,,,,,,,,,14,,,,38,112
31337,control_change,7,0,5,,,,,,,,,4,11,71,,,
31338,control_change,7,0,6,,,,,,,,,5,11,71,,,
31341,control_change,7,0,11,,,,,,,,,10,11,65,,,
31344,control_change,7,0,5,,,,,,,,,4,11,68,,,
31345,control_change,7,0,6,,,,,,,,,5,11,68,,,
31346,control_change,14,0,14,,,,,,,,,13,11,68,,,
31348,control_change,7,0,11,,,,,,,,,10,11,62,,,
31348,control_change,14,0,15,,,,,,,,,14,11,68,,,
31351,control_change,7,0,5,,,,,,,,,4,11,65,,,
31352,control_change,7,0,6,,,,,,,,,5,11,65,,,
31353,control_change,7,0,14,,,,,,,,,13,11,65,,,
31355,control_change,7,0,15,,,,,,,,,14,11,65,,,
31356,control_change,8,0,11,,,,,,,,,10,11,59,,,
31359,control_change,8,0,5,,,,,,,,,4,11,62,,,
31360,control_change,7,0,14,,,,,,,,,13,11,62,,,
31360,control_change,8,0,6,,,,,,,,,5,11,62,,,
31362,control_change,7,0,15,,,,,,,,,14,11,62,,,
31366,control_change,7,0,5,,,,,,,,,4,11,59,,,
31367,control_change,7,0,6,,,,,,,,,5,11,59,,,
31368,control_change,8,0,14,,,,,,,,,13,11,59,,,
31370,control_change,8,0,15,,,,,,,,,14,11,59,,,
31370,control_change,14,0,11,,,,,,,,,10,11,54,,,
31373,control_change,7,0,5,,,,,,,,,4,11,56,,,
31374,control_change,7,0,6,,,,,,,,,5,11,56,,,
31377,control_change,7,0,11,,,,,,,,,10,11,51,,,
31380,control_change,7,0,5,,,,,,,,,4,11,53,,,
31381,control_change,7,0,6,,,,,,,,,5,11,53,,,
31382,control_change,14,0,14,,,,,,,,,13,11,54,,,
31384,control_change,4,0,5,,,,,,,,,4,11,78,,,
31384,control_change,14,0,15,,,,,,,,,14,11,54,,,
31385,control_change,4,0,6,,,,,,,,,5,11,78,,,
31389,control_change,7,0,14,,,,,,,,,13,11,51,,,
31391,control_change,7,0,15,,,,,,,,,14,11,51,,,
31405,control_change,21,0,5,,,,,,,,,4,11,75,,,
31406,control_change,21,0,6,,,,,,,,,5,11,75,,,
31425,control_change,20,0,5,,,,,,,,,4,11,72,,,
31426,control_change,20,0,6,,,,,,,,,5,11,72,,,
31440,set_tempo,120,1,0,,,,,,272727,,,,,,,,
31446,control_change,21,0,5,,,,,,,,,4,11,69,,,
31447,control_change,21,0,6,,,,,,,,,5,11,69,,,
31452,note_on,63,0,14,,,,,,,,,13,,,,50,0
31454,note_on,63,0,15,,,,,,,,,14,,,,38,0
31467,control_change,21,0,5,,,,,,,,,4,11,66,,,
31468,control_change,21,0,6,,,,,,,,,5,11,66,,,
31487,control_change,20,0,5,,,,,,,,,4,11,63,,,
31488,control_change,20,0,6,,,,,,,,,5,11,63,,,
31508,control_change,21,0,5,,,,,,,,,4,11,60,,,
31509,control_change,21,0,6,,,,,,,,,5,11,60,,,
31528,control_change,20,0,5,,,,,,,,,4,11,57,,,
31529,control_change,20,0,6,,,,,,,,,5,11,57,,,
31549,control_change,21,0,5,,,,,,,,,4,11,54,,,
31550,control_change,21,0,6,,,,,,,,,5,11,54,,,
31560,note_on,183,0,11,,,,,,,,,10,,,,66,0
31560,set_tempo,120,1,0,,,,,,300000,,,,,,,,
31560,note_on,0,0,11,,,,,,,,,10,,,,69,112
31670,note_on,110,0,11,,,,,,,,,10,,,,69,0
31680,note_on,10,0,11,,,,,,,,,10,,,,74,112
31680,set_tempo,120,1,0,,,,,,264901,,,,,,,,
31800,set_tempo,120,1,0,,,,,,272727,,,,,,,,
31920,set_tempo,120,1,0,,,,,,300000,,,,,,,,
31920,note_on,240,0,11,,,,,,,,,10,,,,74,0
31920,note_on,0,0,11,,,,,,,,,10,,,,78,112
32030,note_on,110,0,11,,,,,,,,,10,,,,78,0
32040,set_tempo,120,1,0,,,,,,264901,,,,,,,,
32040,note_on,10,0,11,,,,,,,,,10,,,,81,127
32043,note_on,494,0,5,,,,,,,,,4,,,,62,0
32043,note_on,0,0,5,,,,,,,,,4,,,,62,115
32044,note_on,494,0,6,,,,,,,,,5,,,,62,0
32044,note_on,0,0,6,,,,,,,,,5,,,,62,115
32045,note_on,720,0,3,,,,,,,,,2,,,,72,0
32045,control_change,0,0,3,,,,,,,,,2,11,70,,,
32045,note_on,0,0,3,,,,,,,,,2,,,,72,101
32045,note_on,0,0,3,,,,,,,,,2,,,,74,101
32045,note_on,0,0,3,,,,,,,,,2,,,,74,0
32049,note_on,0,0,4,,,,,,,,,3,,,,57,115
32049,note_on,0,0,4,,,,,,,,,3,,,,62,115
32049,note_on,0,0,4,,,,,,,,,3,,,,62,0
32049,note_on,720,0,4,,,,,,,,,3,,,,60,0
32052,note_on,600,0,14,,,,,,,,,13,,,,54,127
32054,note_on,600,0,15,,,,,,,,,14,,,,38,112
32075,note_on,30,0,3,,,,,,,,,2,,,,74,0
32105,note_on,30,0,3,,,,,,,,,2,,,,74,101
32135,note_on,30,0,3,,,,,,,,,2,,,,74,0
32160,set_tempo,120,1,0,,,,,,272727,,,,,,,,
32163,note_on,1440,0,12,,,,,,,,,11,,,,72,127
32163,control_change,0,0,12,,,,,,,,,11,11,50,,,
32165,note_on,30,0,3,,,,,,,,,2,,,,76,101
32168,note_on,1440,0,13,,,,,,,,,12,,,,66,127
32168,control_change,0,0,13,,,,,,,,,12,11,50,,,
32174,note_on,120,0,15,,,,,,,,,14,,,,38,0
32225,note_on,0,0,3,,,,,,,,,2,,,,74,101
32225,note_on,60,0,3,,,,,,,,,2,,,,76,0
32280,set_tempo,120,1,0,,,,,,300000,,,,,,,,
32280,note_on,240,0,11,,,,,,,,,10,,,,81,0
32280,note_on,0,0,11,,,,,,,,,10,,,,78,112
32283,note_on,0,0,12,,,,,,,,,11,,,,62,112
32283,note_on,120,0,12,,,,,,,,,11,,,,72,0
32285,note_on,60,0,3,,,,,,,,,2,,,,74,0
32285,note_on,0,0,3,,,,,,,,,2,,,,76,101
32288,note_on,120,0,13,,,,,,,,,12,,,,66,0
32288,note_on,0,0,13,,,,,,,,,12,,,,62,112
32292,note_on,240,0,14,,,,,,,,,13,,,,54,0
32292,note_on,0,0,14,,,,,,,,,13,,,,57,112
32343,note_on,300,0,5,,,,,,,,,4,,,,62,0
32343,note_on,60,0,12,,,,,,,,,11,,,,62,0
32344,note_on,300,0,6,,,,,,,,,5,,,,62,0
32345,note_on,0,0,3,,,,,,,,,2,,,,74,101
32345,note_on,60,0,3,,,,,,,,,2,,,,76,0
32348,note_on,60,0,13,,,,,,,,,12,,,,62,0
32390,note_on,110,0,11,,,,,,,,,10,,,,78,0
32400,note_on,10,0,11,,,,,,,,,10,,,,81,112
32400,set_tempo,120,1,0,,,,,,264901,,,,,,,,
32403,note_on,60,0,5,,,,,,,,,4,,,,62,115
32404,note_on,60,0,6,,,,,,,,,5,,,,62,115
32405,note_on,0,0,3,,,,,,,,,2,,,,74,101
32405,note_on,0,0,3,,,,,,,,,2,,,,72,0
32405,note_on,60,0,3,,,,,,,,,2,,,,74,0
32405,note_on,0,0,3,,,,,,,,,2,,,,71,101
32409,note_on,0,0,4,,,,,,,,,3,,,,59,115
32409,note_on,0,0,4,,,,,,,,,3,,,,62,115
32409,note_on,0,0,4,,,,,,,,,3,,,,62,0
32409,note_on,360,0,4,,,,,,,,,3,,,,57,0
32412,note_on,0,0,14,,,,,,,,,13,,,,59,112
32412,note_on,120,0,14,,,,,,,,,13,,,,57,0
32414,note_on,240,0,15,,,,,,,,,14,,,,43,112
32460,note_on,0,0,11,,,,,,,,,10,,,,79,112
32460,note_on,60,0,11,,,,,,,,,10,,,,81,0
32465,note_on,0,0,3,,,,,,,,,2,,,,71,0
32465,note_on,60,0,3,,,,,,,,,2,,,,74,0
32520,set_tempo,120,1,0,,,,,,272727,,,,,,,,
32520,note_on,0,0,11,,,,,,,,,10,,,,78,112
32520,note_on,60,0,11,,,,,,,,,10,,,,79,0
32523,note_on,180,0,12,,,,,,,,,11,,,,71,127
32525,note_on,60,0,3,,,,,,,,,2,,,,71,101
32525,note_on,0,0,3,,,,,,,,,2,,,,74,101
32528,note_on,180,0,13,,,,,,,,,12,,,,67,127
32532,note_on,0,0,14,,,,,,,,,13,,,,62,112
32532,note_on,120,0,14,,,,,,,,,13,,,,59,0
32534,note_on,120,0,15,,,,,,,,,14,,,,43,0
32580,note_on,60,0,11,,,,,,,,,10,,,,78,0
32580,note_on,0,0,11,,,,,,,,,10,,,,76,112
32585,note_on,0,0,3,,,,,,,,,2,,,,71,0
32585,note_on,60,0,3,,,,,,,,,2,,,,74,0
32640,note_on,60,0,11,,,,,,,,,10,,,,76,0
32640,note_on,0,0,11,,,,,,,,,10,,,,74,112
32640,set_tempo,120,1,0,,,,,,300000,,,,,,,,
32643,note_on,120,0,12,,,,,,,,,11,,,,71,0
32643,note_on,0,0,12,,,,,,,,,11,,,,62,112
32645,note_on,60,0,3,,,,,,,,,2,,,,71,101
32645,note_on,0,0,3,,,,,,,,,2,,,,74,101
32648,note_on,120,0,13,,,,,,,,,12,,,,67,0
32648,note_on,0,0,13,,,,,,,,,12,,,,62,112
32652,note_on,0,0,14,,,,,,,,,13,,,,71,112
32652,note_on,120,0,14,,,,,,,,,13,,,,62,0
32703,note_on,60,0,12,,,,,,,,,11,,,,62,0
32703,note_on,300,0,5,,,,,,,,,4,,,,62,0
32704,note_on,300,0,6,,,,,,,,,5,,,,62,0
32705,note_on,0,0,3,,,,,,,,,2,,,,71,0
32705,note_on,60,0,3,,,,,,,,,2,,,,74,0
32708,note_on,60,0,13,,,,,,,,,12,,,,62,0
32750,note_on,110,0,11,,,,,,,,,10,,,,74,0
32760,note_on,10,0,11,,,,,,,,,10,,,,74,112
32760,set_tempo,120,1,0,,,,,,264901,,,,,,,,
32762,note_on,110,0,14,,,,,,,,,13,,,,71,0
32763,note_on,60,0,5,,,,,,,,,4,,,,62,115
32764,note_on,60,0,6,,,,,,,,,5,,,,62,115
32765,control_change,0,0,3,,,,,,,,,2,11,47,,,
32765,note_on,0,0,3,,,,,,,,,2,,,,69,101
32765,note_on,60,0,3,,,,,,,,,2,,,,74,101
32769,note_on,0,0,4,,,,,,,,,3,,,,60,100
32769,control_change,0,0,4,,,,,,,,,3,11,77,,,
32769,note_on,360,0,4,,,,,,,,,3,,,,62,0
32769,note_on,0,0,4,,,,,,,,,3,,,,62,100
32769,note_on,0,0,4,,,,,,,,,3,,,,59,0
32772,note_on,10,0,14,,,,,,,,,13,,,,69,127
32774,note_on,240,0,15,,,,,,,,,14,,,,38,112
32790,note_on,0,0,11,,,,,,,,,10,,,,72,112
32790,note_on,30,0,11,,,,,,,,,10,,,,74,0
32799,note_on,30,0,4,,,,,,,,,3,,,,62,0
32820,note_on,30,0,11,,,,,,,,,10,,,,72,0
32829,note_on,30,0,4,,,,,,,,,3,,,,62,100
32859,note_on,30,0,4,,,,,,,,,3,,,,62,0
32880,note_on,60,0,11,,,,,,,,,10,,,,72,112
32880,set_tempo,120,1,0,,,,,,272727,,,,,,,,
32883,note_on,180,0,12,,,,,,,,,11,,,,66,112
32888,note_on,180,0,13,,,,,,,,,12,,,,60,112
32889,note_on,30,0,4,,,,,,,,,3,,,,64,100
32894,note_on,120,0,15,,,,,,,,,14,,,,38,0
32940,note_on,60,0,11,,,,,,,,,10,,,,72,0
32949,note_on,60,0,4,,,,,,,,,3,,,,64,0
32949,note_on,0,0,4,,,,,,,,,3,,,,62,100
33000,set_tempo,120,1,0,,,,,,300000,,,,,,,,
33000,note_on,60,0,11,,,,,,,,,10,,,,72,112
33003,note_on,0,0,12,,,,,,,,,11,,,,62,112
33003,note_on,120,0,12,,,,,,,,,11,,,,66,0
33008,note_on,0,0,13,,,,,,,,,12,,,,62,112
33008,note_on,120,0,13,,,,,,,,,12,,,,60,0
33009,note_on,60,0,4,,,,,,,,,3,,,,62,0
33009,note_on,0,0,4,,,,,,,,,3,,,,64,100
33012,note_on,0,0,14,,,,,,,,,13,,,,66,112
33012,note_on,240,0,14,,,,,,,,,13,,,,69,0
33060,note_on,0,0,11,,,,,,,,,10,,,,74,112
33060,note_on,60,0,11,,,,,,,,,10,,,,72,0
33063,note_on,300,0,5,,,,,,,,,4,,,,62,0
33063,note_on,60,0,12,,,,,,,,,11,,,,62,0
33064,note_on,300,0,6,,,,,,,,,5,,,,62,0
33068,note_on,60,0,13,,,,,,,,,12,,,,62,0
33069,note_on,0,0,4,,,,,,,,,3,,,,62,100
33069,note_on,60,0,4,,,,,,,,,3,,,,64,0
33118,note_on,58,0,11,,,,,,,,,10,,,,74,0
33120,set_tempo,120,1,0,,,,,,264901,,,,,,,,
33120,note_on,2,0,11,,,,,,,,,10,,,,71,112
33122,note_on,110,0,14,,,,,,,,,13,,,,66,0
33123,note_on,60,0,5,,,,,,,,,4,,,,62,115
33124,note_on,60,0,6,,,,,,,,,5,,,,62,115
33125,note_on,0,0,3,,,,,,,,,2,,,,74,101
33125,note_on,0,0,3,,,,,,,,,2,,,,71,101
33125,note_on,0,0,3,,,,,,,,,2,,,,74,0
33125,note_on,360,0,3,,,,,,,,,2,,,,69,0
33129,note_on,60,0,4,,,,,,,,,3,,,,62,0
33129,note_on,0,0,4,,,,,,,,,3,,,,60,0
33129,note_on,0,0,4,,,,,,,,,3,,,,59,100
33129,note_on,0,0,4,,,,,,,,,3,,,,62,100
33132,note_on,10,0,14,,,,,,,,,13,,,,69,112
33134,note_on,240,0,15,,,,,,,,,14,,,,43,112
33189,note_on,0,0,4,,,,,,,,,3,,,,59,0
33189,note_on,60,0,4,,,,,,,,,3,,,,62,0
33192,note_on,60,0,14,,,,,,,,,13,,,,69,0
33192,note_on,0,0,14,,,,,,,,,13,,,,67,112
33240,note_on,0,0,11,,,,,,,,,10,,,,74,112
33240,note_on,120,0,11,,,,,,,,,10,,,,71,0
33240,set_tempo,120,1,0,,,,,,272727,,,,,,,,
33243,note_on,180,0,12,,,,,,,,,11,,,,67,112
33248,note_on,180,0,13,,,,,,,,,12,,,,59,112
33249,note_on,60,0,4,,,,,,,,,3,,,,59,100
33249,note_on,0,0,4,,,,,,,,,3,,,,62,100
33252,note_on,0,0,14,,,,,,,,,13,,,,66,112
33252,note_on,60,0,14,,,,,,,,,13,,,,67,0
33254,note_on,120,0,15,,,,,,,,,14,,,,43,0
33309,note_on,60,0,4,,,,,,,,,3,,,,62,0
33309,note_on,0,0,4,,,,,,,,,3,,,,59,0
33312,note_on,0,0,14,,,,,,,,,13,,,,64,112
33312,note_on,60,0,14,,,,,,,,,13,,,,66,0
33360,set_tempo,120,1,0,,,,,,300000,,,,,,,,
33360,note_on,120,0,11,,,,,,,,,10,,,,74,0
33360,note_on,0,0,11,,,,,,,,,10,,,,83,112
33363,note_on,0,0,12,,,,,,,,,11,,,,62,112
33363,note_on,120,0,12,,,,,,,,,11,,,,67,0
33368,note_on,120,0,13,,,,,,,,,12,,,,59,0
33368,note_on,0,0,13,,,,,,,,,12,,,,62,112
33369,note_on,0,0,4,,,,,,,,,3,,,,62,100
33369,note_on,60,0,4,,,,,,,,,3,,,,59,100
33372,note_on,0,0,14,,,,,,,,,13,,,,62,112
33372,note_on,60,0,14,,,,,,,,,13,,,,64,0
33423,note_on,300,0,5,,,,,,,,,4,,,,62,0
33423,note_on,60,0,12,,,,,,,,,11,,,,62,0
33424,note_on,300,0,6,,,,,,,,,5,,,,62,0
33428,note_on,60,0,13,,,,,,,,,12,,,,62,0
33429,note_on,0,0,4,,,,,,,,,3,,,,59,0
33429,note_on,60,0,4,,,,,,,,,3,,,,62,0
33470,note_on,110,0,11,,,,,,,,,10,,,,83,0
33480,note_on,10,0,11,,,,,,,,,10,,,,81,112
33480,set_tempo,120,1,0,,,,,,264901,,,,,,,,
33482,note_on,110,0,14,,,,,,,,,13,,,,62,0
33483,note_on,60,0,5,,,,,,,,,4,,,,62,115
33484,note_on,60,0,6,,,,,,,,,5,,,,62,115
33485,control_change,0,0,3,,,,,,,,,2,11,70,,,
33485,note_on,0,0,3,,,,,,,,,2,,,,72,101
33485,note_on,0,0,3,,,,,,,,,2,,,,74,101
33485,note_on,0,0,3,,,,,,,,,2,,,,74,0
33485,note_on,360,0,3,,,,,,,,,2,,,,71,0
33489,note_on,60,0,4,,,,,,,,,3,,,,62,100
33489,control_change,0,0,4,,,,,,,,,3,11,47,,,
33489,note_on,0,0,4,,,,,,,,,3,,,,57,100
33492,note_on,10,0,14,,,,,,,,,13,,,,62,112
33494,note_on,240,0,15,,,,,,,,,14,,,,38,112
33515,note_on,30,0,3,,,,,,,,,2,,,,74,0
33522,note_on,0,0,14,,,,,,,,,13,,,,60,112
33522,note_on,30,0,14,,,,,,,,,13,,,,62,0
33545,note_on,30,0,3,,,,,,,,,2,,,,74,101
33567,note_on,45,0,14,,,,,,,,,13,,,,60,0
33575,note_on,30,0,3,,,,,,,,,2,,,,74,0
33600,set_tempo,120,1,0,,,,,,272727,,,,,,,,
33603,note_on,180,0,12,,,,,,,,,11,,,,72,112
33605,note_on,30,0,3,,,,,,,,,2,,,,76,101
33608,note_on,180,0,13,,,,,,,,,12,,,,66,112
33612,note_on,45,0,14,,,,,,,,,13,,,,60,112
33614,note_on,120,0,15,,,,,,,,,14,,,,38,0
33665,note_on,0,0,3,,,,,,,,,2,,,,74,101
33665,note_on,60,0,3,,,,,,,,,2,,,,76,0
33702,note_on,90,0,14,,,,,,,,,13,,,,60,0
33720,note_on,240,0,11,,,,,,,,,10,,,,81,0
33720,set_tempo,120,1,0,,,,,,300000,,,,,,,,
33720,note_on,0,0,11,,,,,,,,,10,,,,78,112
33723,note_on,0,0,12,,,,,,,,,11,,,,62,112
33723,note_on,120,0,12,,,,,,,,,11,,,,72,0
33725,note_on,0,0,3,,,,,,,,,2,,,,76,101
33725,note_on,60,0,3,,,,,,,,,2,,,,74,0
33728,note_on,0,0,13,,,,,,,,,12,,,,62,112
33728,note_on,120,0,13,,,,,,,,,12,,,,66,0
33732,note_on,30,0,14,,,,,,,,,13,,,,60,112
33783,note_on,300,0,5,,,,,,,,,4,,,,62,0
33783,note_on,60,0,12,,,,,,,,,11,,,,62,0
33784,note_on,300,0,6,,,,,,,,,5,,,,62,0
33785,note_on,60,0,3,,,,,,,,,2,,,,76,0
33785,note_on,0,0,3,,,,,,,,,2,,,,74,101
33788,note_on,60,0,13,,,,,,,,,12,,,,62,0
33792,note_on,60,0,14,,,,,,,,,13,,,,60,0
33792,note_on,0,0,14,,,,,,,,,13,,,,62,112
33830,note_on,110,0,11,,,,,,,,,10,,,,78,0
33840,note_on,10,0,11,,,,,,,,,10,,,,81,112
33840,set_tempo,120,1,0,,,,,,264901,,,,,,,,
33843,note_on,60,0,5,,,,,,,,,4,,,,62,115
33844,note_on,60,0,6,,,,,,,,,5,,,,62,115
33845,note_on,0,0,3,,,,,,,,,2,,,,71,101
33845,note_on,60,0,3,,,,,,,,,2,,,,74,0
33845,note_on,0,0,3,,,,,,,,,2,,,,74,101
33845,note_on,0,0,3,,,,,,,,,2,,,,72,0
33849,note_on,0,0,4,,,,,,,,,3,,,,59,100
33849,note_on,0,0,4,,,,,,,,,3,,,,62,100
33849,note_on,0,0,4,,,,,,,,,3,,,,62,0
33849,note_on,360,0,4,,,,,,,,,3,,,,57,0
33850,note_on,58,0,14,,,,,,,,,13,,,,62,0
33852,note_on,2,0,14,,,,,,,,,13,,,,59,112
33854,note_on,240,0,15,,,,,,,,,14,,,,43,112
33900,note_on,60,0,11,,,,,,,,,10,,,,81,0
33900,note_on,0,0,11,,,,,,,,,10,,,,79,112
33905,note_on,60,0,3,,,,,,,,,2,,,,71,0
33905,note_on,0,0,3,,,,,,,,,2,,,,74,0
33960,note_on,0,0,11,,,,,,,,,10,,,,78,112
33960,note_on,60,0,11,,,,,,,,,10,,,,79,0
33960,set_tempo,120,1,0,,,,,,272727,,,,,,,,
33963,note_on,180,0,12,,,,,,,,,11,,,,71,112
33965,note_on,60,0,3,,,,,,,,,2,,,,74,101
33965,note_on,0,0,3,,,,,,,,,2,,,,71,101
33968,note_on,180,0,13,,,,,,,,,12,,,,67,112
33972,note_on,120,0,14,,,,,,,,,13,,,,59,0
33972,note_on,0,0,14,,,,,,,,,13,,,,62,112
33974,note_on,120,0,15,,,,,,,,,14,,,,43,0
34020,note_on,0,0,11,,,,,,,,,10,,,,76,112
34020,note_on,60,0,11,,,,,,,,,10,,,,78,0
34025,note_on,60,0,3,,,,,,,,,2,,,,71,0
34025,note_on,0,0,3,,,,,,,,,2,,,,74,0
34080,note_on,0,0,11,,,,,,,,,10,,,,74,112
34080,note_on,60,0,11,,,,,,,,,10,,,,76,0
34080,set_tempo,120,1,0,,,,,,300000,,,,,,,,
34083,note_on,120,0,12,,,,,,,,,11,,,,71,0
34083,note_on,0,0,12,,,,,,,,,11,,,,62,112
34085,note_on,60,0,3,,,,,,,,,2,,,,71,101
34085,note_on,0,0,3,,,,,,,,,2,,,,74,101
34088,note_on,0,0,13,,,,,,,,,12,,,,62,112
34088,note_on,120,0,13,,,,,,,,,12,,,,67,0
34092,note_on,0,0,14,,,,,,,,,13,,,,71,112
34092,note_on,120,0,14,,,,,,,,,13,,,,62,0
34143,note_on,300,0,5,,,,,,,,,4,,,,62,0
34143,note_on,60,0,12,,,,,,,,,11,,,,62,0
34144,note_on,300,0,6,,,,,,,,,5,,,,62,0
34145,note_on,0,0,3,,,,,,,,,2,,,,71,0
34145,note_on,60,0,3,,,,,,,,,2,,,,74,0
34148,note_on,60,0,13,,,,,,,,,12,,,,62,0
34190,note_on,110,0,11,,,,,,,,,10,,,,74,0
34200,note_on,10,0,11,,,,,,,,,10,,,,74,112
34200,set_tempo,120,1,0,,,,,,264901,,,,,,,,
34202,note_on,110,0,14,,,,,,,,,13,,,,71,0
34203,note_on,60,0,5,,,,,,,,,4,,,,62,115
34204,note_on,60,0,6,,,,,,,,,5,,,,62,115
34205,control_change,60,0,3,,,,,,,,,2,11,47,,,
34205,note_on,0,0,3,,,,,,,,,2,,,,69,101
34205,note_on,0,0,3,,,,,,,,,2,,,,74,101
34209,note_on,360,0,4,,,,,,,,,3,,,,59,0
34209,note_on,0,0,4,,,,,,,,,3,,,,62,0
34209,note_on,0,0,4,,,,,,,,,3,,,,60,100
34209,note_on,0,0,4,,,,,,,,,3,,,,62,100
34209,control_change,0,0,4,,,,,,,,,3,11,77,,,
34212,note_on,10,0,14,,,,,,,,,13,,,,69,127
34214,note_on,240,0,15,,,,,,,,,14,,,,38,112
34230,note_on,30,0,11,,,,,,,,,10,,,,74,0
34230,note_on,0,0,11,,,,,,,,,10,,,,72,112
34239,note_on,30,0,4,,,,,,,,,3,,,,62,0
34260,note_on,30,0,11,,,,,,,,,10,,,,72,0
34269,note_on,30,0,4,,,,,,,,,3,,,,62,100
34299,note_on,30,0,4,,,,,,,,,3,,,,62,0
34320,set_tempo,120,1,0,,,,,,272727,,,,,,,,
34320,note_on,60,0,11,,,,,,,,,10,,,,72,112
34323,note_on,180,0,12,,,,,,,,,11,,,,66,112
34328,note_on,180,0,13,,,,,,,,,12,,,,60,112
34329,note_on,30,0,4,,,,,,,,,3,,,,64,100
34334,note_on,120,0,15,,,,,,,,,14,,,,38,0
34380,note_on,60,0,11,,,,,,,,,10,,,,72,0
34389,note_on,60,0,4,,,,,,,,,3,,,,64,0
34389,note_on,0,0,4,,,,,,,,,3,,,,62,100
34440,note_on,60,0,11,,,,,,,,,10,,,,72,112
34440,set_tempo,120,1,0,,,,,,300000,,,,,,,,
34443,note_on,0,0,12,,,,,,,,,11,,,,62,112
34443,note_on,120,0,12,,,,,,,,,11,,,,66,0
34446,note_on,241,0,3,,,,,,,,,2,,,,69,0
34446,note_on,0,0,3,,,,,,,,,2,,,,74,0
34448,note_on,120,0,13,,,,,,,,,12,,,,60,0
34448,note_on,0,0,13,,,,,,,,,12,,,,62,112
34449,note_on,0,0,4,,,,,,,,,3,,,,64,100
34449,note_on,60,0,4,,,,,,,,,3,,,,62,0
34452,note_on,240,0,14,,,,,,,,,13,,,,69,0
34452,note_on,0,0,14,,,,,,,,,13,,,,66,112
34500,note_on,0,0,11,,,,,,,,,10,,,,74,112
34500,note_on,60,0,11,,,,,,,,,10,,,,72,0
34503,note_on,60,0,12,,,,,,,,,11,,,,62,0
34503,note_on,300,0,5,,,,,,,,,4,,,,62,0
34504,note_on,300,0,6,,,,,,,,,5,,,,62,0
34508,note_on,60,0,13,,,,,,,,,12,,,,62,0
34509,note_on,0,0,4,,,,,,,,,3,,,,62,100
34509,note_on,60,0,4,,,,,,,,,3,,,,64,0
34558,note_on,58,0,11,,,,,,,,,10,,,,74,0
34560,note_on,2,0,11,,,,,,,,,10,,,,71,112
34560,set_tempo,120,1,0,,,,,,264901,,,,,,,,
34562,note_on,110,0,14,,,,,,,,,13,,,,66,0
34563,note_on,60,0,5,,,,,,,,,4,,,,62,115
34564,note_on,60,0,6,,,,,,,,,5,,,,62,115
34565,note_on,119,0,3,,,,,,,,,2,,,,71,101
34565,note_on,0,0,3,,,,,,,,,2,,,,74,101
34569,note_on,60,0,4,,,,,,,,,3,,,,62,0
34569,note_on,0,0,4,,,,,,,,,3,,,,59,100
34569,note_on,0,0,4,,,,,,,,,3,,,,62,100
34569,note_on,0,0,4,,,,,,,,,3,,,,60,0
34572,note_on,10,0,14,,,,,,,,,13,,,,69,112
34574,note_on,240,0,15,,,,,,,,,14,,,,43,112
34629,note_on,0,0,4,,,,,,,,,3,,,,62,0
34629,note_on,60,0,4,,,,,,,,,3,,,,59,0
34632,note_on,0,0,14,,,,,,,,,13,,,,67,112
34632,note_on,60,0,14,,,,,,,,,13,,,,69,0
34680,note_on,0,0,11,,,,,,,,,10,,,,74,112
34680,note_on,120,0,11,,,,,,,,,10,,,,71,0
34680,set_tempo,120,1,0,,,,,,272727,,,,,,,,
34683,note_on,180,0,12,,,,,,,,,11,,,,67,112
34688,note_on,180,0,13,,,,,,,,,12,,,,59,112
34689,note_on,60,0,4,,,,,,,,,3,,,,59,100
34689,note_on,0,0,4,,,,,,,,,3,,,,62,100
34692,note_on,0,0,14,,,,,,,,,13,,,,66,112
34692,note_on,60,0,14,,,,,,,,,13,,,,67,0
34694,note_on,120,0,15,,,,,,,,,14,,,,43,0
34749,note_on,60,0,4,,,,,,,,,3,,,,62,0
34749,note_on,0,0,4,,,,,,,,,3,,,,59,0
34752,note_on,0,0,14,,,,,,,,,13,,,,64,112
34752,note_on,60,0,14,,,,,,,,,13,,,,66,0
34800,note_on,120,0,11,,,,,,,,,10,,,,74,0
34800,set_tempo,120,1,0,,,,,,333333,,,,,,,,
34800,note_on,0,0,11,,,,,,,,,10,,,,83,112
34803,note_on,120,0,12,,,,,,,,,11,,,,67,0
34803,note_on,0,0,12,,,,,,,,,11,,,,62,112
34808,note_on,120,0,13,,,,,,,,,12,,,,59,0
34808,note_on,0,0,13,,,,,,,,,12,,,,62,112
34809,note_on,0,0,4,,,,,,,,,3,,,,59,100
34809,note_on,60,0,4,,,,,,,,,3,,,,62,100
34812,note_on,0,0,14,,,,,,,,,13,,,,62,112
34812,note_on,60,0,14,,,,,,,,,13,,,,64,0
34863,note_on,60,0,12,,,,,,,,,11,,,,62,0
34863,note_on,300,0,5,,,,,,,,,4,,,,62,0
34864,note_on,300,0,6,,,,,,,,,5,,,,62,0
34868,note_on,60,0,13,,,,,,,,,12,,,,62,0
34869,note_on,60,0,4,,,,,,,,,3,,,,59,0
34869,note_on,0,0,4,,,,,,,,,3,,,,62,0
34910,note_on,110,0,11,,,,,,,,,10,,,,83,0
34920,note_on,0,0,11,,,,,,,,,10,,,,81,112
34920,control_change,10,0,11,,,,,,,,,10,11,27,,,
34920,set_tempo,120,1,0,,,,,,264901,,,,,,,,
34922,note_on,110,0,14,,,,,,,,,13,,,,62,0
34923,note_on,60,0,12,,,,,,,,,11,,,,81,112
34923,control_change,0,0,12,,,,,,,,,11,11,27,,,
34925,control_change,0,0,3,,,,,,,,,2,11,32,,,
34925,note_on,360,0,3,,,,,,,,,2,,,,74,0
34925,note_on,0,0,3,,,,,,,,,2,,,,71,0
34925,note_on,0,0,3,,,,,,,,,2,,,,74,101
34925,note_on,0,0,3,,,,,,,,,2,,,,72,101
34928,note_on,60,0,13,,,,,,,,,12,,,,69,112
34928,control_change,0,0,13,,,,,,,,,12,11,27,,,
34929,note_on,60,0,4,,,,,,,,,3,,,,60,100
34929,control_change,0,0,4,,,,,,,,,3,11,32,,,
34929,note_on,0,0,4,,,,,,,,,3,,,,62,100
34932,control_change,10,0,14,,,,,,,,,13,11,27,,,
34932,note_on,0,0,14,,,,,,,,,13,,,,57,112
34934,control_change,0,0,15,,,,,,,,,14,11,27,,,
34934,note_on,240,0,15,,,,,,,,,14,,,,45,112
34938,control_change,18,0,11,,,,,,,,,10,11,29,,,
34941,control_change,18,0,12,,,,,,,,,11,11,29,,,
34943,control_change,18,0,3,,,,,,,,,2,11,35,,,
34946,control_change,18,0,13,,,,,,,,,12,11,29,,,
34947,control_change,18,0,4,,,,,,,,,3,11,35,,,
34950,control_change,18,0,14,,,,,,,,,13,11,29,,,
34952,control_change,18,0,15,,,,,,,,,14,11,29,,,
34955,note_on,12,0,3,,,,,,,,,2,,,,74,0
34956,control_change,18,0,11,,,,,,,,,10,11,32,,,
34959,note_on,12,0,4,,,,,,,,,3,,,,62,0
34959,control_change,18,0,12,,,,,,,,,11,11,32,,,
34961,control_change,6,0,3,,,,,,,,,2,11,38,,,
34964,control_change,18,0,13,,,,,,,,,12,11,32,,,
34965,control_change,6,0,4,,,,,,,,,3,11,38,,,
34968,control_change,18,0,14,,,,,,,,,13,11,32,,,
34970,control_change,18,0,15,,,,,,,,,14,11,32,,,
34974,control_change,18,0,11,,,,,,,,,10,11,35,,,
34977,control_change,18,0,12,,,,,,,,,11,11,35,,,
34979,control_change,18,0,3,,,,,,,,,2,11,41,,,
34982,control_change,18,0,13,,,,,,,,,12,11,35,,,
34983,control_change,18,0,4,,,,,,,,,3,11,41,,,
34985,note_on,6,0,3,,,,,,,,,2,,,,74,101
34986,control_change,18,0,14,,,,,,,,,13,11,35,,,
34988,control_change,18,0,15,,,,,,,,,14,11,35,,,
34989,note_on,6,0,4,,,,,,,,,3,,,,62,100
34997,control_change,12,0,3,,,,,,,,,2,11,44,,,
35001,control_change,12,0,4,,,,,,,,,3,11,44,,,
35015,control_change,0,0,3,,,,,,,,,2,11,47,,,
35015,note_on,18,0,3,,,,,,,,,2,,,,74,0
35019,note_on,18,0,4,,,,,,,,,3,,,,62,0
35019,control_change,0,0,4,,,,,,,,,3,11,47,,,
35033,control_change,18,0,3,,,,,,,,,2,11,50,,,
35037,control_change,18,0,4,,,,,,,,,3,11,50,,,
35045,note_on,12,0,3,,,,,,,,,2,,,,76,101
35049,note_on,12,0,4,,,,,,,,,3,,,,64,100
35105,note_on,0,0,3,,,,,,,,,2,,,,74,101
35105,note_on,60,0,3,,,,,,,,,2,,,,76,0
35109,note_on,60,0,4,,,,,,,,,3,,,,64,0
35109,note_on,0,0,4,,,,,,,,,3,,,,62,100
35160,note_on,0,0,11,,,,,,,,,10,,,,78,112
35160,set_tempo,240,1,0,,,,,,292683,,,,,,,,
35160,note_on,186,0,11,,,,,,,,,10,,,,81,0
35163,note_on,186,0,12,,,,,,,,,11,,,,81,0
35163,note_on,0,0,12,,,,,,,,,11,,,,78,112
35165,note_on,0,0,3,,,,,,,,,2,,,,76,101
35165,note_on,60,0,3,,,,,,,,,2,,,,74,0
35168,note_on,186,0,13,,,,,,,,,12,,,,69,0
35168,note_on,0,0,13,,,,,,,,,12,,,,66,112
35169,note_on,0,0,4,,,,,,,,,3,,,,64,100
35169,note_on,60,0,4,,,,,,,,,3,,,,62,0
35172,note_on,0,0,14,,,,,,,,,13,,,,54,112
35172,note_on,186,0,14,,,,,,,,,13,,,,57,0
35174,note_on,186,0,15,,,,,,,,,14,,,,45,0
35174,note_on,0,0,15,,,,,,,,,14,,,,42,112
35225,note_on,0,0,3,,,,,,,,,2,,,,74,101
35225,note_on,60,0,3,,,,,,,,,2,,,,76,0
35229,note_on,0,0,4,,,,,,,,,3,,,,62,100
35229,note_on,60,0,4,,,,,,,,,3,,,,64,0
35280,set_tempo,120,1,0,,,,,,263736,,,,,,,,
35280,note_on,0,0,11,,,,,,,,,10,,,,74,112
35280,note_on,120,0,11,,,,,,,,,10,,,,78,0
35283,note_on,120,0,12,,,,,,,,,11,,,,78,0
35283,note_on,0,0,12,,,,,,,,,11,,,,74,112
35285,note_on,0,0,3,,,,,,,,,2,,,,72,0
35285,note_on,60,0,3,,,,,,,,,2,,,,74,0
35285,note_on,0,0,3,,,,,,,,,2,,,,74,101
35285,note_on,0,0,3,,,,,,,,,2,,,,72,101
35288,note_on,120,0,13,,,,,,,,,12,,,,66,0
35288,note_on,0,0,13,,,,,,,,,12,,,,62,112
35289,note_on,60,0,4,,,,,,,,,3,,,,62,0
35289,note_on,0,0,4,,,,,,,,,3,,,,60,0
35289,note_on,0,0,4,,,,,,,,,3,,,,62,100
35289,note_on,0,0,4,,,,,,,,,3,,,,60,100
35292,note_on,0,0,14,,,,,,,,,13,,,,50,112
35292,note_on,120,0,14,,,,,,,,,13,,,,54,0
35294,note_on,0,0,15,,,,,,,,,14,,,,38,112
35294,note_on,120,0,15,,,,,,,,,14,,,,42,0
35345,note_on,0,0,3,,,,,,,,,2,,,,74,0
35345,note_on,60,0,3,,,,,,,,,2,,,,72,0
35349,note_on,0,0,4,,,,,,,,,3,,,,62,0
35349,note_on,60,0,4,,,,,,,,,3,,,,60,0
35405,note_on,0,0,3,,,,,,,,,2,,,,74,101
35405,note_on,60,0,3,,,,,,,,,2,,,,72,101
35409,note_on,60,0,4,,,,,,,,,3,,,,60,100
35409,note_on,0,0,4,,,,,,,,,3,,,,62,100
35465,note_on,0,0,3,,,,,,,,,2,,,,72,0
35465,note_on,60,0,3,,,,,,,,,2,,,,74,0
35469,note_on,60,0,4,,,,,,,,,3,,,,62,0
35469,note_on,0,0,4,,,,,,,,,3,,,,60,0
35520,note_on,240,0,11,,,,,,,,,10,,,,74,0
35520,set_tempo,240,1,0,,,,,,292683,,,,,,,,
35520,note_on,0,0,11,,,,,,,,,10,,,,69,112
35523,note_on,0,0,12,,,,,,,,,11,,,,69,112
35523,note_on,240,0,12,,,,,,,,,11,,,,74,0
35525,note_on,0,0,3,,,,,,,,,2,,,,72,101
35525,note_on,60,0,3,,,,,,,,,2,,,,74,101
35528,note_on,240,0,13,,,,,,,,,12,,,,62,0
35528,note_on,0,0,13,,,,,,,,,12,,,,57,112
35529,note_on,0,0,4,,,,,,,,,3,,,,62,100
35529,note_on,60,0,4,,,,,,,,,3,,,,60,100
35532,note_on,240,0,14,,,,,,,,,13,,,,50,0
35532,note_on,0,0,14,,,,,,,,,13,,,,45,112
35534,note_on,0,0,15,,,,,,,,,14,,,,33,112
35534,note_on,240,0,15,,,,,,,,,14,,,,38,0
35585,note_on,0,0,3,,,,,,,,,2,,,,74,0
35585,note_on,60,0,3,,,,,,,,,2,,,,72,0
35589,note_on,60,0,4,,,,,,,,,3,,,,62,0
35589,note_on,0,0,4,,,,,,,,,3,,,,60,0
35630,note_on,110,0,11,,,,,,,,,10,,,,69,0
35633,note_on,110,0,12,,,,,,,,,11,,,,69,0
35638,note_on,110,0,13,,,,,,,,,12,,,,57,0
35640,note_on,10,0,11,,,,,,,,,10,,,,66,112
35640,set_tempo,120,1,0,,,,,,263736,,,,,,,,
35642,note_on,110,0,14,,,,,,,,,13,,,,45,0
35643,note_on,10,0,12,,,,,,,,,11,,,,66,112
35644,note_on,0,0,2,,,,,,,,,1,,,,72,100
35644,note_on,0,0,2,,,,,,,,,1,,,,74,100
35644,control_change,4920,0,2,,,,,,,,,1,11,47,,,
35644,note_on,110,0,15,,,,,,,,,14,,,,33,0
35645,note_on,0,0,3,,,,,,,,,2,,,,72,116
35645,note_on,60,0,3,,,,,,,,,2,,,,74,116
35648,note_on,10,0,13,,,,,,,,,12,,,,54,112
35649,note_on,0,0,4,,,,,,,,,3,,,,60,115
35649,note_on,60,0,4,,,,,,,,,3,,,,62,115
35652,note_on,10,0,14,,,,,,,,,13,,,,42,112
35654,note_on,10,0,15,,,,,,,,,14,,,,30,112
35674,note_on,30,0,2,,,,,,,,,1,,,,74,0
35704,note_on,30,0,2,,,,,,,,,1,,,,74,100
35734,note_on,30,0,2,,,,,,,,,1,,,,74,0
35760,note_on,120,0,11,,,,,,,,,10,,,,66,0
35760,note_on,0,0,11,,,,,,,,,10,,,,69,112
35763,note_on,0,0,12,,,,,,,,,11,,,,69,112
35763,note_on,120,0,12,,,,,,,,,11,,,,66,0
35764,note_on,30,0,2,,,,,,,,,1,,,,76,100
35768,note_on,120,0,13,,,,,,,,,12,,,,54,0
35768,note_on,0,0,13,,,,,,,,,12,,,,57,112
35772,note_on,120,0,14,,,,,,,,,13,,,,42,0
35772,note_on,0,0,14,,,,,,,,,13,,,,45,112
35774,note_on,120,0,15,,,,,,,,,14,,,,30,0
35774,note_on,0,0,15,,,,,,,,,14,,,,33,112
35824,note_on,60,0,2,,,,,,,,,1,,,,76,0
35824,note_on,0,0,2,,,,,,,,,1,,,,74,100
35880,note_on,0,0,11,,,,,,,,,10,,,,73,112
35880,note_on,120,0,11,,,,,,,,,10,,,,69,0
35880,set_tempo,240,1,0,,,,,,292683,,,,,,,,
35883,note_on,120,0,12,,,,,,,,,11,,,,69,0
35883,note_on,0,0,12,,,,,,,,,11,,,,73,112
35884,note_on,0,0,2,,,,,,,,,1,,,,76,100
35884,note_on,60,0,2,,,,,,,,,1,,,,74,0
35888,note_on,0,0,13,,,,,,,,,12,,,,61,112
35888,note_on,120,0,13,,,,,,,,,12,,,,57,0
35892,note_on,0,0,14,,,,,,,,,13,,,,49,112
35892,note_on,120,0,14,,,,,,,,,13,,,,45,0
35894,note_on,120,0,15,,,,,,,,,14,,,,33,0
35894,note_on,0,0,15,,,,,,,,,14,,,,37,112
35944,note_on,0,0,2,,,,,,,,,1,,,,74,100
35944,note_on,60,0,2,,,,,,,,,1,,,,76,0
36000,note_on,0,0,11,,,,,,,,,10,,,,74,112
36000,note_on,120,0,11,,,,,,,,,10,,,,73,0
36000,set_tempo,120,1,0,,,,,,263736,,,,,,,,
36003,note_on,120,0,12,,,,,,,,,11,,,,73,0
36003,note_on,0,0,12,,,,,,,,,11,,,,74,112
36004,note_on,0,0,2,,,,,,,,,1,,,,74,100
36004,note_on,0,0,2,,,,,,,,,1,,,,72,100
36004,note_on,0,0,2,,,,,,,,,1,,,,72,0
36004,note_on,60,0,2,,,,,,,,,1,,,,74,0
36005,note_on,0,0,3,,,,,,,,,2,,,,74,0
36005,note_on,0,0,3,,,,,,,,,2,,,,72,116
36005,note_on,0,0,3,,,,,,,,,2,,,,74,116
36005,note_on,360,0,3,,,,,,,,,2,,,,72,0
36008,note_on,120,0,13,,,,,,,,,12,,,,61,0
36008,note_on,0,0,13,,,,,,,,,12,,,,62,112
36009,note_on,360,0,4,,,,,,,,,3,,,,60,0
36009,note_on,0,0,4,,,,,,,,,3,,,,60,115
36009,note_on,0,0,4,,,,,,,,,3,,,,62,115
36009,note_on,0,0,4,,,,,,,,,3,,,,62,0
36012,note_on,120,0,14,,,,,,,,,13,,,,49,0
36012,note_on,0,0,14,,,,,,,,,13,,,,50,112
36014,note_on,0,0,15,,,,,,,,,14,,,,38,112
36014,note_on,120,0,15,,,,,,,,,14,,,,37,0
36064,note_on,0,0,2,,,,,,,,,1,,,,72,0
36064,note_on,60,0,2,,,,,,,,,1,,,,74,0
36120,note_on,0,0,11,,,,,,,,,10,,,,78,112
36120,note_on,120,0,11,,,,,,,,,10,,,,74,0
36123,note_on,120,0,12,,,,,,,,,11,,,,74,0
36123,note_on,0,0,12,,,,,,,,,11,,,,78,112
36124,note_on,60,0,2,,,,,,,,,1,,,,74,100
36124,note_on,0,0,2,,,,,,,,,1,,,,72,100
36128,note_on,120,0,13,,,,,,,,,12,,,,62,0
36128,note_on,0,0,13,,,,,,,,,12,,,,66,112
36132,note_on,0,0,14,,,,,,,,,13,,,,54,112
36132,note_on,120,0,14,,,,,,,,,13,,,,50,0
36134,note_on,120,0,15,,,,,,,,,14,,,,38,0
36134,note_on,0,0,15,,,,,,,,,14,,,,42,112
36184,note_on,60,0,2,,,,,,,,,1,,,,72,0
36184,note_on,0,0,2,,,,,,,,,1,,,,74,0
36240,set_tempo,240,1,0,,,,,,315789,,,,,,,,
36240,note_on,0,0,11,,,,,,,,,10,,,,80,112
36240,note_on,120,0,11,,,,,,,,,10,,,,78,0
36243,note_on,120,0,12,,,,,,,,,11,,,,78,0
36243,note_on,0,0,12,,,,,,,,,11,,,,80,112
36244,note_on,60,0,2,,,,,,,,,1,,,,72,100
36244,note_on,0,0,2,,,,,,,,,1,,,,74,100
36248,note_on,120,0,13,,,,,,,,,12,,,,66,0
36248,note_on,0,0,13,,,,,,,,,12,,,,68,112
36252,note_on,120,0,14,,,,,,,,,13,,,,54,0
36252,note_on,0,0,14,,,,,,,,,13,,,,56,112
36254,note_on,120,0,15,,,,,,,,,14,,,,42,0
36254,note_on,0,0,15,,,,,,,,,14,,,,44,112
36304,note_on,60,0,2,,,,,,,,,1,,,,74,0
36304,note_on,0,0,2,,,,,,,,,1,,,,72,0
36350,note_on,110,0,11,,,,,,,,,10,,,,80,0
36353,note_on,110,0,12,,,,,,,,,11,,,,80,0
36358,note_on,110,0,13,,,,,,,,,12,,,,68,0
36360,note_on,10,0,11,,,,,,,,,10,,,,81,127
36360,control_change,0,0,11,,,,,,,,,10,11,36,,,
36360,set_tempo,120,1,0,,,,,,260870,,,,,,,,
36361,note_on,0,0,1,,,,,,,,,0,,,,81,101
36361,control_change,5640,0,1,,,,,,,,,0,11,55,,,
36361,note_on,0,0,1,,,,,,,,,0,,,,78,101
36362,note_on,110,0,14,,,,,,,,,13,,,,56,0
36363,note_on,10,0,12,,,,,,,,,11,,,,81,127
36363,control_change,0,0,12,,,,,,,,,11,11,36,,,
36364,note_on,110,0,15,,,,,,,,,14,,,,44,0
36364,note_on,60,0,2,,,,,,,,,1,,,,78,115
36364,control_change,0,0,2,,,,,,,,,1,11,47,,,
36364,note_on,0,0,2,,,,,,,,,1,,,,69,115
36365,note_on,360,0,3,,,,,,,,,2,,,,74,0
36365,control_change,0,0,3,,,,,,,,,2,11,42,,,
36365,note_on,0,0,3,,,,,,,,,2,,,,73,116
36365,note_on,0,0,3,,,,,,,,,2,,,,72,0
36368,control_change,0,0,13,,,,,,,,,12,11,36,,,
36368,note_on,10,0,13,,,,,,,,,12,,,,69,127
36369,control_change,0,0,4,,,,,,,,,3,11,42,,,
36369,note_on,0,0,4,,,,,,,,,3,,,,61,115
36369,note_on,0,0,4,,,,,,,,,3,,,,62,0
36369,note_on,360,0,4,,,,,,,,,3,,,,60,0
36372,note_on,0,0,14,,,,,,,,,13,,,,57,127
36372,control_change,10,0,14,,,,,,,,,13,11,36,,,
36374,note_on,10,0,15,,,,,,,,,14,,,,45,127
36374,control_change,0,0,15,,,,,,,,,14,11,36,,,
36384,control_change,24,0,11,,,,,,,,,10,11,38,,,
36387,control_change,24,0,12,,,,,,,,,11,11,38,,,
36391,note_on,30,0,1,,,,,,,,,0,,,,81,0
36392,control_change,24,0,13,,,,,,,,,12,11,38,,,
36396,control_change,24,0,14,,,,,,,,,13,11,38,,,
36398,control_change,24,0,15,,,,,,,,,14,11,38,,,
36402,control_change,37,0,3,,,,,,,,,2,11,43,,,
36405,control_change,14,0,1,,,,,,,,,0,11,56,,,
36406,control_change,37,0,4,,,,,,,,,3,11,43,,,
36408,control_change,44,0,2,,,,,,,,,1,11,48,,,
36408,control_change,24,0,11,,,,,,,,,10,11,40,,,
36411,control_change,24,0,12,,,,,,,,,11,11,40,,,
36416,control_change,24,0,13,,,,,,,,,12,11,40,,,
36420,control_change,24,0,14,,,,,,,,,13,11,40,,,
36421,note_on,16,0,1,,,,,,,,,0,,,,81,101
36422,control_change,24,0,15,,,,,,,,,14,11,40,,,
36440,control_change,38,0,3,,,,,,,,,2,11,44,,,
36444,control_change,38,0,4,,,,,,,,,3,11,44,,,
36449,control_change,28,0,1,,,,,,,,,0,11,57,,,
36451,note_on,2,0,1,,,,,,,,,0,,,,81,0
36452,control_change,44,0,2,,,,,,,,,1,11,49,,,
36478,control_change,38,0,3,,,,,,,,,2,11,45,,,
36481,note_on,30,0,1,,,,,,,,,0,,,,83,101
36482,control_change,38,0,4,,,,,,,,,3,11,45,,,
36493,control_change,12,0,1,,,,,,,,,0,11,58,,,
36496,control_change,44,0,2,,,,,,,,,1,11,50,,,
36515,control_change,37,0,3,,,,,,,,,2,11,46,,,
36519,control_change,37,0,4,,,,,,,,,3,11,46,,,
36537,control_change,44,0,1,,,,,,,,,0,11,58,,,
36540,control_change,44,0,2,,,,,,,,,1,11,51,,,
36541,note_on,0,0,1,,,,,,,,,0,,,,81,101
36541,note_on,4,0,1,,,,,,,,,0,,,,83,0
36553,control_change,38,0,3,,,,,,,,,2,11,47,,,
36557,control_change,38,0,4,,,,,,,,,3,11,47,,,
36581,control_change,40,0,1,,,,,,,,,0,11,59,,,
36584,control_change,44,0,2,,,,,,,,,1,11,52,,,
36591,control_change,38,0,3,,,,,,,,,2,11,48,,,
36595,control_change,38,0,4,,,,,,,,,3,11,48,,,
36600,set_tempo,240,1,0,,,,,,288462,,,,,,,,
36600,note_on,192,0,11,,,,,,,,,10,,,,81,0
36600,note_on,0,0,11,,,,,,,,,10,,,,78,112
36601,note_on,0,0,1,,,,,,,,,0,,,,83,101
36601,note_on,20,0,1,,,,,,,,,0,,,,81,0
36603,note_on,192,0,12,,,,,,,,,11,,,,81,0
36603,note_on,0,0,12,,,,,,,,,11,,,,78,112
36608,note_on,0,0,13,,,,,,,,,12,,,,66,112
36608,note_on,192,0,13,,,,,,,,,12,,,,69,0
36612,note_on,0,0,14,,,,,,,,,13,,,,54,112
36612,note_on,192,0,14,,,,,,,,,13,,,,57,0
36614,note_on,192,0,15,,,,,,,,,14,,,,45,0
36614,note_on,0,0,15,,,,,,,,,14,,,,42,112
36625,control_change,24,0,1,,,,,,,,,0,11,60,,,
36628,control_change,44,0,2,,,,,,,,,1,11,52,,,
36629,control_change,38,0,3,,,,,,,,,2,11,49,,,
36633,control_change,38,0,4,,,,,,,,,3,11,49,,,
36661,note_on,0,0,1,,,,,,,,,0,,,,81,101
36661,note_on,36,0,1,,,,,,,,,0,,,,83,0
36666,control_change,37,0,3,,,,,,,,,2,11,50,,,
36669,control_change,8,0,1,,,,,,,,,0,11,61,,,
36670,control_change,37,0,4,,,,,,,,,3,11,50,,,
36672,control_change,44,0,2,,,,,,,,,1,11,53,,,
36704,control_change,38,0,3,,,,,,,,,2,11,51,,,
36708,control_change,38,0,4,,,,,,,,,3,11,51,,,
36713,control_change,44,0,1,,,,,,,,,0,11,61,,,
36716,control_change,44,0,2,,,,,,,,,1,11,54,,,
36720,set_tempo,120,1,0,,,,,,260870,,,,,,,,
36720,control_change,0,0,11,,,,,,,,,10,11,41,,,
36720,note_on,0,0,11,,,,,,,,,10,,,,73,112
36720,note_on,120,0,11,,,,,,,,,10,,,,78,0
36721,note_on,8,0,1,,,,,,,,,0,,,,81,0
36721,note_on,0,0,1,,,,,,,,,0,,,,81,101
36721,note_on,0,0,1,,,,,,,,,0,,,,78,101
36721,note_on,0,0,1,,,,,,,,,0,,,,78,0
36723,note_on,0,0,12,,,,,,,,,11,,,,73,112
36723,note_on,120,0,12,,,,,,,,,11,,,,78,0
36723,control_change,0,0,12,,,,,,,,,11,11,41,,,
36724,note_on,0,0,2,,,,,,,,,1,,,,69,115
36724,note_on,0,0,2,,,,,,,,,1,,,,78,115
36724,note_on,0,0,2,,,,,,,,,1,,,,78,0
36724,note_on,8,0,2,,,,,,,,,1,,,,69,0
36725,note_on,0,0,3,,,,,,,,,2,,,,73,116
36725,note_on,21,0,3,,,,,,,,,2,,,,73,0
36728,note_on,0,0,13,,,,,,,,,12,,,,61,112
36728,note_on,120,0,13,,,,,,,,,12,,,,66,0
36728,control_change,0,0,13,,,,,,,,,12,11,41,,,
36729,note_on,0,0,4,,,,,,,,,3,,,,61,100
36729,note_on,0,0,4,,,,,,,,,3,,,,66,100
36729,note_on,21,0,4,,,,,,,,,3,,,,61,0
36732,control_change,0,0,14,,,,,,,,,13,11,41,,,
36732,note_on,0,0,14,,,,,,,,,13,,,,49,112
36732,note_on,120,0,14,,,,,,,,,13,,,,54,0
36734,note_on,120,0,15,,,,,,,,,14,,,,42,0
36734,note_on,0,0,15,,,,,,,,,14,,,,37,112
36734,control_change,0,0,15,,,,,,,,,14,11,41,,,
36742,control_change,17,0,3,,,,,,,,,2,11,52,,,
36744,control_change,24,0,11,,,,,,,,,10,11,42,,,
36746,control_change,17,0,4,,,,,,,,,3,11,52,,,
36747,control_change,24,0,12,,,,,,,,,11,11,42,,,
36752,control_change,24,0,13,,,,,,,,,12,11,42,,,
36756,control_change,24,0,14,,,,,,,,,13,11,42,,,
36757,control_change,36,0,1,,,,,,,,,0,11,62,,,
36758,control_change,24,0,15,,,,,,,,,14,11,42,,,
36760,control_change,36,0,2,,,,,,,,,1,11,55,,,
36768,control_change,24,0,11,,,,,,,,,10,11,42,,,
36771,control_change,24,0,12,,,,,,,,,11,11,42,,,
36776,control_change,24,0,13,,,,,,,,,12,11,42,,,
36779,control_change,37,0,3,,,,,,,,,2,11,52,,,
36780,control_change,24,0,14,,,,,,,,,13,11,42,,,
36781,note_on,24,0,1,,,,,,,,,0,,,,78,0
36781,note_on,0,0,1,,,,,,,,,0,,,,81,0
36782,control_change,24,0,15,,,,,,,,,14,11,42,,,
36783,control_change,37,0,4,,,,,,,,,3,11,53,,,
36789,note_on,0,0,4,,,,,,,,,3,,,,66,0
36789,note_on,6,0,4,,,,,,,,,3,,,,61,0
36792,control_change,24,0,11,,,,,,,,,10,11,43,,,
36795,control_change,24,0,12,,,,,,,,,11,11,43,,,
36800,control_change,24,0,13,,,,,,,,,12,11,43,,,
36801,control_change,20,0,1,,,,,,,,,0,11,63,,,
36804,control_change,24,0,14,,,,,,,,,13,11,43,,,
36804,control_change,44,0,2,,,,,,,,,1,11,55,,,
36806,control_change,24,0,15,,,,,,,,,14,11,43,,,
36816,control_change,24,0,11,,,,,,,,,10,11,44,,,
36817,control_change,38,0,3,,,,,,,,,2,11,53,,,
36819,control_change,24,0,12,,,,,,,,,11,11,44,,,
36821,control_change,32,0,4,,,,,,,,,3,11,54,,,
36824,control_change,24,0,13,,,,,,,,,12,11,44,,,
36828,control_change,24,0,14,,,,,,,,,13,11,44,,,
36830,control_change,24,0,15,,,,,,,,,14,11,44,,,
36840,control_change,24,0,11,,,,,,,,,10,11,45,,,
36841,note_on,40,0,1,,,,,,,,,0,,,,81,101
36841,note_on,0,0,1,,,,,,,,,0,,,,78,101
36843,control_change,24,0,12,,,,,,,,,11,11,45,,,
36845,control_change,4,0,1,,,,,,,,,0,11,64,,,
36848,control_change,24,0,13,,,,,,,,,12,11,45,,,
36848,control_change,44,0,2,,,,,,,,,1,11,56,,,
36849,note_on,28,0,4,,,,,,,,,3,,,,66,100
36849,note_on,0,0,4,,,,,,,,,3,,,,61,100
36852,control_change,24,0,14,,,,,,,,,13,11,45,,,
36854,control_change,24,0,15,,,,,,,,,14,11,45,,,
36855,control_change,38,0,3,,,,,,,,,2,11,54,,,
36859,control_change,10,0,4,,,,,,,,,3,11,55,,,
36864,control_change,24,0,11,,,,,,,,,10,11,46,,,
36867,control_change,24,0,12,,,,,,,,,11,11,46,,,
36872,control_change,24,0,13,,,,,,,,,12,11,46,,,
36876,control_change,24,0,14,,,,,,,,,13,11,46,,,
36878,control_change,24,0,15,,,,,,,,,14,11,46,,,
36888,control_change,24,0,11,,,,,,,,,10,11,47,,,
36889,control_change,44,0,1,,,,,,,,,0,11,64,,,
36891,control_change,24,0,12,,,,,,,,,11,11,47,,,
36892,control_change,44,0,2,,,,,,,,,1,11,57,,,
36893,control_change,38,0,3,,,,,,,,,2,11,55,,,
36896,control_change,24,0,13,,,,,,,,,12,11,47,,,
36897,control_change,38,0,4,,,,,,,,,3,11,56,,,
36900,control_change,24,0,14,,,,,,,,,13,11,47,,,
36901,note_on,12,0,1,,,,,,,,,0,,,,78,0
36901,note_on,0,0,1,,,,,,,,,0,,,,81,0
36902,control_change,24,0,15,,,,,,,,,14,11,47,,,
36909,note_on,12,0,4,,,,,,,,,3,,,,61,0
36909,note_on,0,0,4,,,,,,,,,3,,,,66,0
36912,control_change,24,0,11,,,,,,,,,10,11,48,,,
36915,control_change,24,0,12,,,,,,,,,11,11,48,,,
36920,control_change,24,0,13,,,,,,,,,12,11,48,,,
36924,control_change,24,0,14,,,,,,,,,13,11,48,,,
36926,control_change,24,0,15,,,,,,,,,14,11,48,,,
36930,control_change,37,0,3,,,,,,,,,2,11,55,,,
36933,control_change,32,0,1,,,,,,,,,0,11,65,,,
36934,control_change,25,0,4,,,,,,,,,3,11,57,,,
36936,control_change,44,0,2,,,,,,,,,1,11,58,,,
36936,control_change,24,0,11,,,,,,,,,10,11,49,,,
36939,control_change,24,0,12,,,,,,,,,11,11,49,,,
36944,control_change,24,0,13,,,,,,,,,12,11,49,,,
36948,control_change,24,0,14,,,,,,,,,13,11,49,,,
36950,control_change,24,0,15,,,,,,,,,14,11,49,,,
36960,set_tempo,240,1,0,,,,,,288462,,,,,,,,
36960,note_on,24,0,11,,,,,,,,,10,,,,73,0
36960,note_on,0,0,11,,,,,,,,,10,,,,69,112
36960,control_change,0,0,11,,,,,,,,,10,11,50,,,
36961,note_on,0,0,1,,,,,,,,,0,,,,81,101
36961,note_on,28,0,1,,,,,,,,,0,,,,78,101
36963,note_on,24,0,12,,,,,,,,,11,,,,73,0
36963,control_change,0,0,12,,,,,,,,,11,11,50,,,
36963,note_on,0,0,12,,,,,,,,,11,,,,69,112
36968,note_on,0,0,13,,,,,,,,,12,,,,57,112
36968,control_change,0,0,13,,,,,,,,,12,11,50,,,
36968,control_change,38,0,3,,,,,,,,,2,11,56,,,
36968,note_on,24,0,13,,,,,,,,,12,,,,61,0
36969,note_on,35,0,4,,,,,,,,,3,,,,66,100
36969,note_on,0,0,4,,,,,,,,,3,,,,61,100
36972,note_on,24,0,14,,,,,,,,,13,,,,49,0
36972,note_on,0,0,14,,,,,,,,,13,,,,45,112
36972,control_change,0,0,14,,,,,,,,,13,11,50,,,
36972,control_change,3,0,4,,,,,,,,,3,11,58,,,
36974,control_change,0,0,15,,,,,,,,,14,11,50,,,
36974,note_on,0,0,15,,,,,,,,,14,,,,33,112
36974,note_on,24,0,15,,,,,,,,,14,,,,37,0
36977,control_change,16,0,1,,,,,,,,,0,11,66,,,
36980,control_change,44,0,2,,,,,,,,,1,11,58,,,
36984,control_change,24,0,11,,,,,,,,,10,11,51,,,
36987,control_change,24,0,12,,,,,,,,,11,11,51,,,
36992,control_change,24,0,13,,,,,,,,,12,11,51,,,
36996,control_change,24,0,14,,,,,,,,,13,11,51,,,
36998,control_change,24,0,15,,,,,,,,,14,11,51,,,
37006,control_change,38,0,3,,,,,,,,,2,11,57,,,
37008,control_change,24,0,11,,,,,,,,,10,11,52,,,
37010,control_change,38,0,4,,,,,,,,,3,11,59,,,
37011,control_change,24,0,12,,,,,,,,,11,11,52,,,
37016,control_change,24,0,13,,,,,,,,,12,11,52,,,
37020,control_change,24,0,14,,,,,,,,,13,11,52,,,
37021,note_on,44,0,1,,,,,,,,,0,,,,81,0
37021,note_on,0,0,1,,,,,,,,,0,,,,78,0
37021,control_change,0,0,1,,,,,,,,,0,11,67,,,
37022,control_change,24,0,15,,,,,,,,,14,11,52,,,
37024,control_change,44,0,2,,,,,,,,,1,11,59,,,
37029,note_on,0,0,4,,,,,,,,,3,,,,66,0
37029,note_on,19,0,4,,,,,,,,,3,,,,61,0
37032,control_change,24,0,11,,,,,,,,,10,11,53,,,
37035,control_change,24,0,12,,,,,,,,,11,11,53,,,
37040,control_change,24,0,13,,,,,,,,,12,11,53,,,
37043,control_change,37,0,3,,,,,,,,,2,11,58,,,
37044,control_change,24,0,14,,,,,,,,,13,11,53,,,
37046,control_change,24,0,15,,,,,,,,,14,11,53,,,
37047,control_change,18,0,4,,,,,,,,,3,11,60,,,
37056,control_change,24,0,11,,,,,,,,,10,11,54,,,
37059,control_change,24,0,12,,,,,,,,,11,11,54,,,
37064,control_change,24,0,13,,,,,,,,,12,11,54,,,
37065,control_change,44,0,1,,,,,,,,,0,11,67,,,
37068,control_change,24,0,14,,,,,,,,,13,11,54,,,
37068,control_change,44,0,2,,,,,,,,,1,11,60,,,
37070,control_change,24,0,15,,,,,,,,,14,11,54,,,
37070,note_on,14,0,11,,,,,,,,,10,,,,69,0
37073,note_on,14,0,12,,,,,,,,,11,,,,69,0
37078,note_on,14,0,13,,,,,,,,,12,,,,57,0
37080,control_change,10,0,11,,,,,,,,,10,11,55,,,
37080,note_on,0,0,11,,,,,,,,,10,,,,66,112
37080,set_tempo,120,1,0,,,,,,260870,,,,,,,,
37081,control_change,38,0,3,,,,,,,,,2,11,58,,,
37081,note_on,16,0,1,,,,,,,,,0,,,,78,101
37081,note_on,0,0,1,,,,,,,,,0,,,,81,101
37082,note_on,14,0,14,,,,,,,,,13,,,,45,0
37083,note_on,0,0,12,,,,,,,,,11,,,,66,112
37083,control_change,10,0,12,,,,,,,,,11,11,55,,,
37084,note_on,16,0,2,,,,,,,,,1,,,,69,0
37084,note_on,0,0,2,,,,,,,,,1,,,,81,100
37084,note_on,0,0,2,,,,,,,,,1,,,,78,100
37084,note_on,0,0,2,,,,,,,,,1,,,,78,0
37084,note_on,14,0,15,,,,,,,,,14,,,,33,0
37085,note_on,4,0,3,,,,,,,,,2,,,,73,0
37085,control_change,38,0,4,,,,,,,,,3,11,61,,,
37085,note_on,0,0,3,,,,,,,,,2,,,,69,116
37085,note_on,0,0,3,,,,,,,,,2,,,,73,116
37088,note_on,10,0,13,,,,,,,,,12,,,,54,112
37088,control_change,0,0,13,,,,,,,,,12,11,55,,,
37089,note_on,4,0,4,,,,,,,,,3,,,,61,100
37089,note_on,0,0,4,,,,,,,,,3,,,,66,100
37092,control_change,0,0,14,,,,,,,,,13,11,55,,,
37092,note_on,10,0,14,,,,,,,,,13,,,,42,112
37094,control_change,0,0,15,,,,,,,,,14,11,55,,,
37094,note_on,10,0,15,,,,,,,,,14,,,,30,112
37104,control_change,24,0,11,,,,,,,,,10,11,56,,,
37107,control_change,24,0,12,,,,,,,,,11,11,56,,,
37109,control_change,28,0,1,,,,,,,,,0,11,68,,,
37112,control_change,24,0,13,,,,,,,,,12,11,56,,,
37112,control_change,28,0,2,,,,,,,,,1,11,61,,,
37114,note_on,2,0,2,,,,,,,,,1,,,,81,0
37116,control_change,24,0,14,,,,,,,,,13,11,56,,,
37118,control_change,24,0,15,,,,,,,,,14,11,56,,,
37119,control_change,34,0,3,,,,,,,,,2,11,59,,,
37123,control_change,34,0,4,,,,,,,,,3,11,62,,,
37128,control_change,24,0,11,,,,,,,,,10,11,57,,,
37131,control_change,24,0,12,,,,,,,,,11,11,57,,,
37136,control_change,24,0,13,,,,,,,,,12,11,57,,,
37140,control_change,24,0,14,,,,,,,,,13,11,57,,,
37142,control_change,24,0,15,,,,,,,,,14,11,57,,,
37144,note_on,30,0,2,,,,,,,,,1,,,,81,100
37152,control_change,24,0,11,,,,,,,,,10,11,57,,,
37153,control_change,44,0,1,,,,,,,,,0,11,69,,,
37155,control_change,24,0,12,,,,,,,,,11,11,57,,,
37156,control_change,12,0,2,,,,,,,,,1,11,61,,,
37157,control_change,38,0,3,,,,,,,,,2,11,60,,,
37160,control_change,24,0,13,,,,,,,,,12,11,57,,,
37161,control_change,38,0,4,,,,,,,,,3,11,63,,,
37164,control_change,24,0,14,,,,,,,,,13,11,57,,,
37166,control_change,24,0,15,,,,,,,,,14,11,57,,,
37174,note_on,18,0,2,,,,,,,,,1,,,,81,0
37176,control_change,24,0,11,,,,,,,,,10,11,58,,,
37179,control_change,24,0,12,,,,,,,,,11,11,58,,,
37184,control_change,24,0,13,,,,,,,,,12,11,58,,,
37188,control_change,24,0,14,,,,,,,,,13,11,58,,,
37190,control_change,24,0,15,,,,,,,,,14,11,58,,,
37194,control_change,37,0,3,,,,,,,,,2,11,61,,,
37197,control_change,44,0,1,,,,,,,,,0,11,70,,,
37198,control_change,37,0,4,,,,,,,,,3,11,64,,,
37200,note_on,24,0,11,,,,,,,,,10,,,,66,0
37200,note_on,0,0,11,,,,,,,,,10,,,,69,112
37200,control_change,0,0,11,,,,,,,,,10,11,59,,,
37200,control_change,26,0,2,,,,,,,,,1,11,62,,,
37203,note_on,0,0,12,,,,,,,,,11,,,,69,112
37203,control_change,0,0,12,,,,,,,,,11,11,59,,,
37203,note_on,24,0,12,,,,,,,,,11,,,,66,0
37204,note_on,4,0,2,,,,,,,,,1,,,,83,100
37208,note_on,24,0,13,,,,,,,,,12,,,,54,0
37208,control_change,0,0,13,,,,,,,,,12,11,59,,,
37208,note_on,0,0,13,,,,,,,,,12,,,,57,112
37212,note_on,24,0,14,,,,,,,,,13,,,,42,0
37212,control_change,0,0,14,,,,,,,,,13,11,59,,,
37212,note_on,0,0,14,,,,,,,,,13,,,,45,112
37214,control_change,0,0,15,,,,,,,,,14,11,59,,,
37214,note_on,24,0,15,,,,,,,,,14,,,,30,0
37214,note_on,0,0,15,,,,,,,,,14,,,,33,112
37224,control_change,24,0,11,,,,,,,,,10,11,60,,,
37227,control_change,24,0,12,,,,,,,,,11,11,60,,,
37232,control_change,24,0,13,,,,,,,,,12,11,60,,,
37232,control_change,38,0,3,,,,,,,,,2,11,61,,,
37236,control_change,38,0,4,,,,,,,,,3,11,65,,,
37236,control_change,24,0,14,,,,,,,,,13,11,60,,,
37238,control_change,24,0,15,,,,,,,,,14,11,60,,,
37241,control_change,44,0,1,,,,,,,,,0,11,70,,,
37244,control_change,40,0,2,,,,,,,,,1,11,63,,,
37248,control_change,24,0,11,,,,,,,,,10,11,61,,,
37251,control_change,24,0,12,,,,,,,,,11,11,61,,,
37256,control_change,24,0,13,,,,,,,,,12,11,61,,,
37260,control_change,24,0,14,,,,,,,,,13,11,61,,,
37262,control_change,24,0,15,,,,,,,,,14,11,61,,,
37264,note_on,20,0,2,,,,,,,,,1,,,,83,0
37264,note_on,0,0,2,,,,,,,,,1,,,,81,100
37270,control_change,38,0,3,,,,,,,,,2,11,62,,,
37272,control_change,24,0,11,,,,,,,,,10,11,62,,,
37274,control_change,38,0,4,,,,,,,,,3,11,66,,,
37275,control_change,24,0,12,,,,,,,,,11,11,62,,,
37280,control_change,24,0,13,,,,,,,,,12,11,62,,,
37284,control_change,24,0,14,,,,,,,,,13,11,62,,,
37285,control_change,44,0,1,,,,,,,,,0,11,71,,,
37286,control_change,24,0,15,,,,,,,,,14,11,62,,,
37288,control_change,24,0,2,,,,,,,,,1,11,64,,,
37296,control_change,24,0,11,,,,,,,,,10,11,63,,,
37299,control_change,24,0,12,,,,,,,,,11,11,63,,,
37304,control_change,24,0,13,,,,,,,,,12,11,63,,,
37307,control_change,37,0,3,,,,,,,,,2,11,63,,,
37308,control_change,24,0,14,,,,,,,,,13,11,63,,,
37310,control_change,24,0,15,,,,,,,,,14,11,63,,,
37311,control_change,37,0,4,,,,,,,,,3,11,67,,,
37320,note_on,24,0,11,,,,,,,,,10,,,,69,0
37320,note_on,0,0,11,,,,,,,,,10,,,,73,112
37320,control_change,0,0,11,,,,,,,,,10,11,64,,,
37320,set_tempo,240,1,0,,,,,,288462,,,,,,,,
37323,control_change,0,0,12,,,,,,,,,11,11,64,,,
37323,note_on,0,0,12,,,,,,,,,11,,,,73,112
37323,note_on,24,0,12,,,,,,,,,11,,,,69,0
37324,note_on,36,0,2,,,,,,,,,1,,,,81,0
37324,note_on,0,0,2,,,,,,,,,1,,,,83,100
37328,note_on,0,0,13,,,,,,,,,12,,,,61,112
37328,note_on,24,0,13,,,,,,,,,12,,,,57,0
37328,control_change,0,0,13,,,,,,,,,12,11,64,,,
37329,control_change,44,0,1,,,,,,,,,0,11,72,,,
37332,control_change,8,0,2,,,,,,,,,1,11,64,,,
37332,note_on,24,0,14,,,,,,,,,13,,,,45,0
37332,control_change,0,0,14,,,,,,,,,13,11,64,,,
37332,note_on,0,0,14,,,,,,,,,13,,,,49,112
37334,note_on,0,0,15,,,,,,,,,14,,,,37,112
37334,note_on,24,0,15,,,,,,,,,14,,,,33,0
37334,control_change,0,0,15,,,,,,,,,14,11,64,,,
37344,control_change,24,0,11,,,,,,,,,10,11,65,,,
37345,control_change,38,0,3,,,,,,,,,2,11,64,,,
37347,control_change,24,0,12,,,,,,,,,11,11,65,,,
37349,control_change,38,0,4,,,,,,,,,3,11,68,,,
37352,control_change,24,0,13,,,,,,,,,12,11,65,,,
37356,control_change,24,0,14,,,,,,,,,13,11,65,,,
37358,control_change,24,0,15,,,,,,,,,14,11,65,,,
37368,control_change,24,0,11,,,,,,,,,10,11,66,,,
37371,control_change,24,0,12,,,,,,,,,11,11,66,,,
37373,control_change,44,0,1,,,,,,,,,0,11,73,,,
37376,control_change,44,0,2,,,,,,,,,1,11,65,,,
37376,control_change,24,0,13,,,,,,,,,12,11,66,,,
37380,control_change,24,0,14,,,,,,,,,13,11,66,,,
37382,control_change,24,0,15,,,,,,,,,14,11,66,,,
37383,control_change,38,0,3,,,,,,,,,2,11,64,,,
37384,note_on,8,0,2,,,,,,,,,1,,,,83,0
37384,note_on,0,0,2,,,,,,,,,1,,,,81,100
37387,control_change,38,0,4,,,,,,,,,3,11,69,,,
37392,control_change,24,0,11,,,,,,,,,10,11,67,,,
37395,control_change,24,0,12,,,,,,,,,11,11,67,,,
37400,control_change,24,0,13,,,,,,,,,12,11,67,,,
37404,control_change,24,0,14,,,,,,,,,13,11,67,,,
37406,control_change,24,0,15,,,,,,,,,14,11,67,,,
37416,control_change,24,0,11,,,,,,,,,10,11,68,,,
37417,control_change,44,0,1,,,,,,,,,0,11,73,,,
37419,control_change,24,0,12,,,,,,,,,11,11,68,,,
37420,control_change,36,0,2,,,,,,,,,1,11,66,,,
37421,control_change,38,0,3,,,,,,,,,2,11,65,,,
37424,control_change,24,0,13,,,,,,,,,12,11,68,,,
37425,control_change,38,0,4,,,,,,,,,3,11,70,,,
37428,control_change,24,0,14,,,,,,,,,13,11,68,,,
37430,control_change,24,0,15,,,,,,,,,14,11,68,,,
37440,set_tempo,120,1,0,,,,,,260870,,,,,,,,
37440,note_on,0,0,11,,,,,,,,,10,,,,78,112
37440,note_on,24,0,11,,,,,,,,,10,,,,73,0
37440,control_change,0,0,11,,,,,,,,,10,11,69,,,
37441,note_on,0,0,1,,,,,,,,,0,,,,78,0
37441,note_on,0,0,1,,,,,,,,,0,,,,78,116
37441,note_on,24,0,1,,,,,,,,,0,,,,81,0
37441,note_on,0,0,1,,,,,,,,,0,,,,81,116
37443,note_on,0,0,12,,,,,,,,,11,,,,78,112
37443,control_change,0,0,12,,,,,,,,,11,11,69,,,
37443,note_on,24,0,12,,,,,,,,,11,,,,73,0
37444,note_on,0,0,2,,,,,,,,,1,,,,78,0
37444,note_on,24,0,2,,,,,,,,,1,,,,81,0
37444,note_on,0,0,2,,,,,,,,,1,,,,78,100
37444,note_on,0,0,2,,,,,,,,,1,,,,81,100
37445,note_on,0,0,3,,,,,,,,,2,,,,73,116
37445,note_on,0,0,3,,,,,,,,,2,,,,69,116
37445,note_on,0,0,3,,,,,,,,,2,,,,69,0
37445,note_on,24,0,3,,,,,,,,,2,,,,73,0
37448,note_on,24,0,13,,,,,,,,,12,,,,61,0
37448,note_on,0,0,13,,,,,,,,,12,,,,66,112
37448,control_change,0,0,13,,,,,,,,,12,11,69,,,
37449,note_on,0,0,4,,,,,,,,,3,,,,61,0
37449,note_on,0,0,4,,,,,,,,,3,,,,66,100
37449,note_on,0,0,4,,,,,,,,,3,,,,61,100
37449,note_on,24,0,4,,,,,,,,,3,,,,66,0
37452,note_on,24,0,14,,,,,,,,,13,,,,49,0
37452,control_change,0,0,14,,,,,,,,,13,11,69,,,
37452,note_on,0,0,14,,,,,,,,,13,,,,54,112
37454,note_on,24,0,15,,,,,,,,,14,,,,37,0
37454,note_on,0,0,15,,,,,,,,,14,,,,42,112
37454,control_change,0,0,15,,,,,,,,,14,11,69,,,
37458,control_change,13,0,3,,,,,,,,,2,11,66,,,
37461,control_change,20,0,1,,,,,,,,,0,11,74,,,
37462,control_change,13,0,4,,,,,,,,,3,11,71,,,
37464,control_change,24,0,11,,,,,,,,,10,11,70,,,
37464,control_change,20,0,2,,,,,,,,,1,11,67,,,
37467,control_change,24,0,12,,,,,,,,,11,11,70,,,
37472,control_change,24,0,13,,,,,,,,,12,11,70,,,
37476,control_change,24,0,14,,,,,,,,,13,11,70,,,
37478,control_change,24,0,15,,,,,,,,,14,11,70,,,
37488,control_change,24,0,11,,,,,,,,,10,11,71,,,
37491,control_change,24,0,12,,,,,,,,,11,11,71,,,
37496,control_change,24,0,13,,,,,,,,,12,11,71,,,
37496,control_change,38,0,3,,,,,,,,,2,11,67,,,
37500,control_change,24,0,14,,,,,,,,,13,11,71,,,
37500,control_change,38,0,4,,,,,,,,,3,11,72,,,
37502,control_change,24,0,15,,,,,,,,,14,11,71,,,
37504,note_on,0,0,2,,,,,,,,,1,,,,81,0
37504,note_on,40,0,2,,,,,,,,,1,,,,78,0
37505,control_change,44,0,1,,,,,,,,,0,11,75,,,
37508,control_change,4,0,2,,,,,,,,,1,11,67,,,
37509,note_on,9,0,4,,,,,,,,,3,,,,61,0
37509,note_on,0,0,4,,,,,,,,,3,,,,66,0
37512,control_change,24,0,11,,,,,,,,,10,11,72,,,
37515,control_change,24,0,12,,,,,,,,,11,11,72,,,
37520,control_change,24,0,13,,,,,,,,,12,11,72,,,
37524,control_change,24,0,14,,,,,,,,,13,11,72,,,
37526,control_change,24,0,15,,,,,,,,,14,11,72,,,
37534,control_change,38,0,3,,,,,,,,,2,11,67,,,
37536,control_change,24,0,11,,,,,,,,,10,11,72,,,
37538,control_change,29,0,4,,,,,,,,,3,11,73,,,
37539,control_change,24,0,12,,,,,,,,,11,11,72,,,
37544,control_change,24,0,13,,,,,,,,,12,11,72,,,
37548,control_change,24,0,14,,,,,,,,,13,11,72,,,
37549,control_change,44,0,1,,,,,,,,,0,11,76,,,
37550,control_change,24,0,15,,,,,,,,,14,11,72,,,
37552,control_change,44,0,2,,,,,,,,,1,11,68,,,
37560,note_on,24,0,11,,,,,,,,,10,,,,78,0
37560,control_change,0,0,11,,,,,,,,,10,11,73,,,
37560,note_on,0,0,11,,,,,,,,,10,,,,81,112
37563,note_on,24,0,12,,,,,,,,,11,,,,78,0
37563,note_on,0,0,12,,,,,,,,,11,,,,81,112
37563,control_change,0,0,12,,,,,,,,,11,11,73,,,
37564,note_on,12,0,2,,,,,,,,,1,,,,81,100
37564,note_on,0,0,2,,,,,,,,,1,,,,78,100
37568,note_on,0,0,13,,,,,,,,,12,,,,69,112
37568,control_change,0,0,13,,,,,,,,,12,11,73,,,
37568,note_on,24,0,13,,,,,,,,,12,,,,66,0
37569,note_on,0,0,4,,,,,,,,,3,,,,66,100
37569,note_on,31,0,4,,,,,,,,,3,,,,61,100
37571,control_change,37,0,3,,,,,,,,,2,11,68,,,
37572,note_on,0,0,14,,,,,,,,,13,,,,57,112
37572,note_on,24,0,14,,,,,,,,,13,,,,54,0
37572,control_change,0,0,14,,,,,,,,,13,11,73,,,
37574,note_on,0,0,15,,,,,,,,,14,,,,45,112
37574,note_on,24,0,15,,,,,,,,,14,,,,42,0
37574,control_change,0,0,15,,,,,,,,,14,11,73,,,
37575,control_change,6,0,4,,,,,,,,,3,11,74,,,
37584,control_change,24,0,11,,,,,,,,,10,11,74,,,
37587,control_change,24,0,12,,,,,,,,,11,11,74,,,
37592,control_change,24,0,13,,,,,,,,,12,11,74,,,
37593,control_change,44,0,1,,,,,,,,,0,11,76,,,
37596,control_change,32,0,2,,,,,,,,,1,11,69,,,
37596,control_change,24,0,14,,,,,,,,,13,11,74,,,
37598,control_change,24,0,15,,,,,,,,,14,11,74,,,
37608,control_change,24,0,11,,,,,,,,,10,11,75,,,
37609,control_change,38,0,3,,,,,,,,,2,11,69,,,
37611,control_change,24,0,12,,,,,,,,,11,11,75,,,
37613,control_change,38,0,4,,,,,,,,,3,11,75,,,
37616,control_change,24,0,13,,,,,,,,,12,11,75,,,
37620,control_change,24,0,14,,,,,,,,,13,11,75,,,
37622,control_change,24,0,15,,,,,,,,,14,11,75,,,
37624,note_on,0,0,2,,,,,,,,,1,,,,81,0
37624,note_on,28,0,2,,,,,,,,,1,,,,78,0
37629,note_on,16,0,4,,,,,,,,,3,,,,66,0
37629,note_on,0,0,4,,,,,,,,,3,,,,61,0
37632,control_change,24,0,11,,,,,,,,,10,11,76,,,
37635,control_change,24,0,12,,,,,,,,,11,11,76,,,
37637,control_change,44,0,1,,,,,,,,,0,11,77,,,
37640,control_change,16,0,2,,,,,,,,,1,11,70,,,
37640,control_change,24,0,13,,,,,,,,,12,11,76,,,
37644,control_change,24,0,14,,,,,,,,,13,11,76,,,
37646,control_change,24,0,15,,,,,,,,,14,11,76,,,
37647,control_change,38,0,3,,,,,,,,,2,11,70,,,
37651,control_change,22,0,4,,,,,,,,,3,11,76,,,
37656,control_change,24,0,11,,,,,,,,,10,11,77,,,
37659,control_change,24,0,12,,,,,,,,,11,11,77,,,
37664,control_change,24,0,13,,,,,,,,,12,11,77,,,
37668,control_change,24,0,14,,,,,,,,,13,11,77,,,
37670,control_change,24,0,15,,,,,,,,,14,11,77,,,
37680,control_change,0,0,11,,,,,,,,,10,11,78,,,
37680,note_on,0,0,11,,,,,,,,,10,,,,85,112
37680,note_on,24,0,11,,,,,,,,,10,,,,81,0
37680,set_tempo,240,1,0,,,,,,300000,,,,,,,,
37681,control_change,44,0,1,,,,,,,,,0,11,78,,,
37683,note_on,24,0,12,,,,,,,,,11,,,,81,0
37683,control_change,0,0,12,,,,,,,,,11,11,78,,,
37683,note_on,0,0,12,,,,,,,,,11,,,,85,112
37684,control_change,44,0,2,,,,,,,,,1,11,70,,,
37684,note_on,0,0,2,,,,,,,,,1,,,,81,100
37684,note_on,0,0,2,,,,,,,,,1,,,,78,100
37685,control_change,38,0,3,,,,,,,,,2,11,70,,,
37688,control_change,0,0,13,,,,,,,,,12,11,78,,,
37688,note_on,0,0,13,,,,,,,,,12,,,,73,112
37688,note_on,24,0,13,,,,,,,,,12,,,,69,0
37689,control_change,0,0,4,,,,,,,,,3,11,77,,,
37689,note_on,0,0,4,,,,,,,,,3,,,,61,100
37689,note_on,38,0,4,,,,,,,,,3,,,,66,100
37692,note_on,24,0,14,,,,,,,,,13,,,,57,0
37692,note_on,0,0,14,,,,,,,,,13,,,,61,112
37692,control_change,0,0,14,,,,,,,,,13,11,78,,,
37694,note_on,24,0,15,,,,,,,,,14,,,,45,0
37694,note_on,0,0,15,,,,,,,,,14,,,,49,112
37694,control_change,0,0,15,,,,,,,,,14,11,78,,,
37704,control_change,24,0,11,,,,,,,,,10,11,79,,,
37707,control_change,24,0,12,,,,,,,,,11,11,79,,,
37712,control_change,24,0,13,,,,,,,,,12,11,79,,,
37716,control_change,24,0,14,,,,,,,,,13,11,79,,,
37718,control_change,24,0,15,,,,,,,,,14,11,79,,,
37728,control_change,24,0,11,,,,,,,,,10,11,80,,,
37731,control_change,24,0,12,,,,,,,,,11,11,80,,,
37736,control_change,24,0,13,,,,,,,,,12,11,80,,,
37740,control_change,24,0,14,,,,,,,,,13,11,80,,,
37742,control_change,24,0,15,,,,,,,,,14,11,80,,,
37744,note_on,60,0,2,,,,,,,,,1,,,,78,0
37744,note_on,0,0,2,,,,,,,,,1,,,,81,0
37749,note_on,0,0,4,,,,,,,,,3,,,,66,0
37749,note_on,60,0,4,,,,,,,,,3,,,,61,0
37752,control_change,24,0,11,,,,,,,,,10,11,81,,,
37755,control_change,24,0,12,,,,,,,,,11,11,81,,,
37760,control_change,24,0,13,,,,,,,,,12,11,81,,,
37764,control_change,24,0,14,,,,,,,,,13,11,81,,,
37766,control_change,24,0,15,,,,,,,,,14,11,81,,,
37776,control_change,24,0,11,,,,,,,,,10,11,82,,,
37779,control_change,24,0,12,,,,,,,,,11,11,82,,,
37784,control_change,24,0,13,,,,,,,,,12,11,82,,,
37788,control_change,24,0,14,,,,,,,,,13,11,82,,,
37790,note_on,14,0,11,,,,,,,,,10,,,,85,0
37790,control_change,24,0,15,,,,,,,,,14,11,82,,,
37793,note_on,14,0,12,,,,,,,,,11,,,,85,0
37798,note_on,14,0,13,,,,,,,,,12,,,,73,0
37800,control_change,10,0,11,,,,,,,,,10,11,83,,,
37800,note_on,0,0,11,,,,,,,,,10,,,,86,127
37800,set_tempo,120,1,0,,,,,,254237,,,,,,,,
37801,note_on,0,0,1,,,,,,,,,0,,,,81,101
37801,note_on,0,0,1,,,,,,,,,0,,,,81,0
37801,note_on,120,0,1,,,,,,,,,0,,,,78,0
37801,note_on,0,0,1,,,,,,,,,0,,,,78,101
37802,note_on,14,0,14,,,,,,,,,13,,,,61,0
37803,control_change,10,0,12,,,,,,,,,11,11,83,,,
37803,control_change,2940,0,5,,,,,,,,,4,11,82,,,
37803,note_on,0,0,5,,,,,,,,,4,,,,62,115
37803,note_on,0,0,12,,,,,,,,,11,,,,86,127
37804,note_on,60,0,2,,,,,,,,,1,,,,78,115
37804,note_on,0,0,2,,,,,,,,,1,,,,81,115
37804,control_change,0,0,6,,,,,,,,,5,11,82,,,
37804,note_on,14,0,15,,,,,,,,,14,,,,49,0
37804,note_on,2940,0,6,,,,,,,,,5,,,,62,115
37805,note_on,0,0,3,,,,,,,,,2,,,,69,0
37805,note_on,0,0,3,,,,,,,,,2,,,,78,116
37805,note_on,0,0,3,,,,,,,,,2,,,,69,101
37805,note_on,120,0,3,,,,,,,,,2,,,,73,0
37808,control_change,0,0,13,,,,,,,,,12,11,83,,,
37808,note_on,10,0,13,,,,,,,,,12,,,,74,127
37809,note_on,0,0,4,,,,,,,,,3,,,,66,115
37809,note_on,60,0,4,,,,,,,,,3,,,,57,115
37812,note_on,0,0,14,,,,,,,,,13,,,,62,127
37812,control_change,10,0,14,,,,,,,,,13,11,83,,,
37814,note_on,10,0,15,,,,,,,,,14,,,,50,127
37814,control_change,0,0,15,,,,,,,,,14,11,83,,,
37831,note_on,30,0,1,,,,,,,,,0,,,,81,0
37835,note_on,30,0,3,,,,,,,,,2,,,,69,0
37861,note_on,30,0,1,,,,,,,,,0,,,,81,101
37865,note_on,30,0,3,,,,,,,,,2,,,,69,101
37891,note_on,30,0,1,,,,,,,,,0,,,,81,0
37895,note_on,30,0,3,,,,,,,,,2,,,,69,0
37920,set_tempo,120,1,0,,,,,,263158,,,,,,,,
37921,note_on,30,0,1,,,,,,,,,0,,,,83,101
37925,note_on,30,0,3,,,,,,,,,2,,,,71,101
37981,note_on,60,0,1,,,,,,,,,0,,,,83,0
37981,note_on,0,0,1,,,,,,,,,0,,,,81,101
37985,note_on,60,0,3,,,,,,,,,2,,,,71,0
37985,note_on,0,0,3,,,,,,,,,2,,,,69,101
38040,note_on,0,0,11,,,,,,,,,10,,,,81,112
38040,set_tempo,120,1,0,,,,,,288462,,,,,,,,
38040,note_on,240,0,11,,,,,,,,,10,,,,86,0
38041,note_on,60,0,1,,,,,,,,,0,,,,81,0
38041,note_on,0,0,1,,,,,,,,,0,,,,83,101
38043,note_on,240,0,12,,,,,,,,,11,,,,86,0
38043,note_on,0,0,12,,,,,,,,,11,,,,81,112
38045,note_on,60,0,3,,,,,,,,,2,,,,69,0
38045,note_on,0,0,3,,,,,,,,,2,,,,71,101
38048,note_on,0,0,13,,,,,,,,,12,,,,69,112
38048,note_on,240,0,13,,,,,,,,,12,,,,74,0
38052,note_on,0,0,14,,,,,,,,,13,,,,57,112
38052,note_on,240,0,14,,,,,,,,,13,,,,62,0
38054,note_on,240,0,15,,,,,,,,,14,,,,50,0
38054,note_on,0,0,15,,,,,,,,,14,,,,45,112
38101,note_on,0,0,1,,,,,,,,,0,,,,81,101
38101,note_on,60,0,1,,,,,,,,,0,,,,83,0
38105,note_on,60,0,3,,,,,,,,,2,,,,71,0
38105,note_on,0,0,3,,,,,,,,,2,,,,69,101
38150,note_on,110,0,11,,,,,,,,,10,,,,81,0
38153,note_on,110,0,12,,,,,,,,,11,,,,81,0
38158,note_on,110,0,13,,,,,,,,,12,,,,69,0
38160,set_tempo,120,1,0,,,,,,254237,,,,,,,,
38160,note_on,10,0,11,,,,,,,,,10,,,,78,127
38161,note_on,0,0,1,,,,,,,,,0,,,,78,0
38161,note_on,60,0,1,,,,,,,,,0,,,,81,0
38161,note_on,0,0,1,,,,,,,,,0,,,,78,101
38161,note_on,0,0,1,,,,,,,,,0,,,,81,101
38162,note_on,110,0,14,,,,,,,,,13,,,,57,0
38163,note_on,360,0,5,,,,,,,,,4,,,,62,0
38163,note_on,10,0,12,,,,,,,,,11,,,,78,127
38163,note_on,0,0,5,,,,,,,,,4,,,,62,115
38164,note_on,360,0,6,,,,,,,,,5,,,,62,0
38164,note_on,0,0,2,,,,,,,,,1,,,,81,115
38164,note_on,0,0,6,,,,,,,,,5,,,,62,115
38164,note_on,110,0,15,,,,,,,,,14,,,,45,0
38164,note_on,0,0,2,,,,,,,,,1,,,,78,0
38164,note_on,360,0,2,,,,,,,,,1,,,,81,0
38164,note_on,0,0,2,,,,,,,,,1,,,,78,115
38165,note_on,60,0,3,,,,,,,,,2,,,,69,0
38165,note_on,0,0,3,,,,,,,,,2,,,,78,101
38165,note_on,0,0,3,,,,,,,,,2,,,,69,101
38165,note_on,0,0,3,,,,,,,,,2,,,,78,0
38168,note_on,10,0,13,,,,,,,,,12,,,,66,127
38169,note_on,360,0,4,,,,,,,,,3,,,,66,0
38169,note_on,0,0,4,,,,,,,,,3,,,,66,115
38169,note_on,0,0,4,,,,,,,,,3,,,,57,0
38169,note_on,0,0,4,,,,,,,,,3,,,,57,115
38172,note_on,10,0,14,,,,,,,,,13,,,,54,127
38174,note_on,10,0,15,,,,,,,,,14,,,,42,127
38221,note_on,0,0,1,,,,,,,,,0,,,,81,0
38221,note_on,60,0,1,,,,,,,,,0,,,,78,0
38225,note_on,60,0,3,,,,,,,,,2,,,,69,0
38225,note_on,0,0,3,,,,,,,,,2,,,,78,0
38280,set_tempo,120,1,0,,,,,,263158,,,,,,,,
38281,note_on,60,0,1,,,,,,,,,0,,,,78,101
38281,note_on,0,0,1,,,,,,,,,0,,,,81,101
38285,note_on,0,0,3,,,,,,,,,2,,,,69,101
38285,note_on,60,0,3,,,,,,,,,2,,,,78,101
38341,note_on,0,0,1,,,,,,,,,0,,,,78,0
38341,note_on,60,0,1,,,,,,,,,0,,,,81,0
38345,note_on,0,0,3,,,,,,,,,2,,,,78,0
38345,note_on,60,0,3,,,,,,,,,2,,,,69,0
38400,note_on,0,0,11,,,,,,,,,10,,,,74,112
38400,note_on,240,0,11,,,,,,,,,10,,,,78,0
38400,set_tempo,120,1,0,,,,,,288462,,,,,,,,
38401,note_on,60,0,1,,,,,,,,,0,,,,81,101
38401,note_on,0,0,1,,,,,,,,,0,,,,78,101
38403,note_on,0,0,12,,,,,,,,,11,,,,74,112
38403,note_on,240,0,12,,,,,,,,,11,,,,78,0
38405,note_on,0,0,3,,,,,,,,,2,,,,78,101
38405,note_on,60,0,3,,,,,,,,,2,,,,69,101
38408,note_on,240,0,13,,,,,,,,,12,,,,66,0
38408,note_on,0,0,13,,,,,,,,,12,,,,62,112
38412,note_on,0,0,14,,,,,,,,,13,,,,50,112
38412,note_on,240,0,14,,,,,,,,,13,,,,54,0
38414,note_on,0,0,15,,,,,,,,,14,,,,38,112
38414,note_on,240,0,15,,,,,,,,,14,,,,42,0
38461,note_on,60,0,1,,,,,,,,,0,,,,78,0
38461,note_on,0,0,1,,,,,,,,,0,,,,81,0
38465,note_on,60,0,3,,,,,,,,,2,,,,78,0
38465,note_on,0,0,3,,,,,,,,,2,,,,69,0
38510,note_on,110,0,11,,,,,,,,,10,,,,74,0
38513,note_on,110,0,12,,,,,,,,,11,,,,74,0
38518,note_on,110,0,13,,,,,,,,,12,,,,62,0
38520,set_tempo,120,1,0,,,,,,254237,,,,,,,,
38520,note_on,10,0,11,,,,,,,,,10,,,,71,127
38521,note_on,60,0,1,,,,,,,,,0,,,,83,101
38521,note_on,0,0,1,,,,,,,,,0,,,,86,101
38522,note_on,110,0,14,,,,,,,,,13,,,,50,0
38523,note_on,10,0,12,,,,,,,,,11,,,,71,127
38523,note_on,0,0,5,,,,,,,,,4,,,,62,115
38523,note_on,360,0,5,,,,,,,,,4,,,,62,0
38524,note_on,0,0,2,,,,,,,,,1,,,,78,115
38524,note_on,110,0,15,,,,,,,,,14,,,,38,0
38524,note_on,0,0,6,,,,,,,,,5,,,,62,115
38524,note_on,360,0,6,,,,,,,,,5,,,,62,0
38524,note_on,0,0,2,,,,,,,,,1,,,,81,0
38524,note_on,360,0,2,,,,,,,,,1,,,,78,0
38524,note_on,0,0,2,,,,,,,,,1,,,,74,100
38525,note_on,0,0,3,,,,,,,,,2,,,,78,116
38525,note_on,60,0,3,,,,,,,,,2,,,,74,101
38528,note_on,10,0,13,,,,,,,,,12,,,,59,127
38529,note_on,0,0,4,,,,,,,,,3,,,,59,115
38529,note_on,360,0,4,,,,,,,,,3,,,,66,0
38529,note_on,0,0,4,,,,,,,,,3,,,,66,115
38529,note_on,0,0,4,,,,,,,,,3,,,,57,0
38532,note_on,10,0,14,,,,,,,,,13,,,,47,127
38534,note_on,10,0,15,,,,,,,,,14,,,,35,127
38551,note_on,30,0,1,,,,,,,,,0,,,,86,0
38554,note_on,30,0,2,,,,,,,,,1,,,,74,0
38555,note_on,30,0,3,,,,,,,,,2,,,,74,0
38581,note_on,30,0,1,,,,,,,,,0,,,,86,101
38584,note_on,30,0,2,,,,,,,,,1,,,,74,100
38585,note_on,30,0,3,,,,,,,,,2,,,,74,101
38611,note_on,30,0,1,,,,,,,,,0,,,,86,0
38614,note_on,30,0,2,,,,,,,,,1,,,,74,0
38615,note_on,30,0,3,,,,,,,,,2,,,,74,0
38640,set_tempo,120,1,0,,,,,,263158,,,,,,,,
38641,note_on,30,0,1,,,,,,,,,0,,,,88,101
38644,note_on,30,0,2,,,,,,,,,1,,,,76,100
38645,note_on,30,0,3,,,,,,,,,2,,,,76,101
38701,note_on,0,0,1,,,,,,,,,0,,,,86,101
38701,note_on,60,0,1,,,,,,,,,0,,,,88,0
38704,note_on,0,0,2,,,,,,,,,1,,,,74,100
38704,note_on,60,0,2,,,,,,,,,1,,,,76,0
38705,note_on,0,0,3,,,,,,,,,2,,,,74,101
38705,note_on,60,0,3,,,,,,,,,2,,,,76,0
38760,set_tempo,120,1,0,,,,,,288462,,,,,,,,
38760,note_on,240,0,11,,,,,,,,,10,,,,71,0
38760,note_on,0,0,11,,,,,,,,,10,,,,66,112
38761,note_on,0,0,1,,,,,,,,,0,,,,88,101
38761,note_on,60,0,1,,,,,,,,,0,,,,86,0
38763,note_on,240,0,12,,,,,,,,,11,,,,71,0
38763,note_on,0,0,12,,,,,,,,,11,,,,66,112
38764,note_on,0,0,2,,,,,,,,,1,,,,76,100
38764,note_on,60,0,2,,,,,,,,,1,,,,74,0
38765,note_on,60,0,3,,,,,,,,,2,,,,74,0
38765,note_on,0,0,3,,,,,,,,,2,,,,76,101
38768,note_on,240,0,13,,,,,,,,,12,,,,59,0
38768,note_on,0,0,13,,,,,,,,,12,,,,66,112
38772,note_on,240,0,14,,,,,,,,,13,,,,47,0
38772,note_on,0,0,14,,,,,,,,,13,,,,54,112
38774,note_on,240,0,15,,,,,,,,,14,,,,35,0
38774,note_on,0,0,15,,,,,,,,,14,,,,42,112
38821,note_on,60,0,1,,,,,,,,,0,,,,88,0
38821,note_on,0,0,1,,,,,,,,,0,,,,86,101
38824,note_on,60,0,2,,,,,,,,,1,,,,76,0
38824,note_on,0,0,2,,,,,,,,,1,,,,74,100
38825,note_on,60,0,3,,,,,,,,,2,,,,76,0
38825,note_on,0,0,3,,,,,,,,,2,,,,74,101
38870,note_on,110,0,11,,,,,,,,,10,,,,66,0
38873,note_on,110,0,12,,,,,,,,,11,,,,66,0
38878,note_on,110,0,13,,,,,,,,,12,,,,66,0
38880,note_on,10,0,11,,,,,,,,,10,,,,62,127
38880,set_tempo,120,1,0,,,,,,254237,,,,,,,,
38881,note_on,60,0,1,,,,,,,,,0,,,,86,0
38881,note_on,0,0,1,,,,,,,,,0,,,,86,101
38881,note_on,0,0,1,,,,,,,,,0,,,,83,101
38881,note_on,0,0,1,,,,,,,,,0,,,,83,0
38882,note_on,110,0,14,,,,,,,,,13,,,,54,0
38883,note_on,0,0,5,,,,,,,,,4,,,,62,100
38883,note_on,360,0,5,,,,,,,,,4,,,,62,0
38883,note_on,10,0,12,,,,,,,,,11,,,,62,127
38884,note_on,0,0,2,,,,,,,,,1,,,,78,100
38884,note_on,0,0,2,,,,,,,,,1,,,,74,100
38884,note_on,0,0,6,,,,,,,,,5,,,,62,100
38884,note_on,360,0,6,,,,,,,,,5,,,,62,0
38884,note_on,60,0,2,,,,,,,,,1,,,,74,0
38884,note_on,110,0,15,,,,,,,,,14,,,,42,0
38884,note_on,0,0,2,,,,,,,,,1,,,,78,0
38885,note_on,0,0,3,,,,,,,,,2,,,,74,101
38885,note_on,0,0,3,,,,,,,,,2,,,,78,0
38885,note_on,0,0,3,,,,,,,,,2,,,,78,101
38885,note_on,60,0,3,,,,,,,,,2,,,,74,0
38888,note_on,10,0,13,,,,,,,,,12,,,,62,127
38889,note_on,0,0,4,,,,,,,,,3,,,,59,0
38889,note_on,0,0,4,,,,,,,,,3,,,,59,100
38889,note_on,0,0,4,,,,,,,,,3,,,,66,100
38889,note_on,360,0,4,,,,,,,,,3,,,,66,0
38892,note_on,10,0,14,,,,,,,,,13,,,,50,127
38894,note_on,10,0,15,,,,,,,,,14,,,,38,127
38941,note_on,0,0,1,,,,,,,,,0,,,,86,0
38941,note_on,60,0,1,,,,,,,,,0,,,,83,0
38943,note_on,60,0,5,,,,,,,,,4,,,,62,0
38944,note_on,60,0,2,,,,,,,,,1,,,,74,0
38944,note_on,0,0,2,,,,,,,,,1,,,,78,0
38944,note_on,60,0,6,,,,,,,,,5,,,,62,0
38945,note_on,60,0,3,,,,,,,,,2,,,,74,0
38945,note_on,0,0,3,,,,,,,,,2,,,,78,0
38949,note_on,0,0,4,,,,,,,,,3,,,,66,0
38949,note_on,60,0,4,,,,,,,,,3,,,,59,0
39000,set_tempo,120,1,0,,,,,,263158,,,,,,,,
39001,note_on,0,0,1,,,,,,,,,0,,,,83,101
39001,note_on,60,0,1,,,,,,,,,0,,,,86,101
39003,note_on,60,0,5,,,,,,,,,4,,,,62,100
39004,note_on,60,0,6,,,,,,,,,5,,,,62,100
39004,note_on,60,0,2,,,,,,,,,1,,,,78,100
39004,note_on,0,0,2,,,,,,,,,1,,,,74,100
39005,note_on,60,0,3,,,,,,,,,2,,,,74,101
39005,note_on,0,0,3,,,,,,,,,2,,,,78,101
39009,note_on,0,0,4,,,,,,,,,3,,,,59,100
39009,note_on,60,0,4,,,,,,,,,3,,,,66,100
39061,note_on,60,0,1,,,,,,,,,0,,,,83,0
39061,note_on,0,0,1,,,,,,,,,0,,,,86,0
39063,note_on,60,0,5,,,,,,,,,4,,,,62,0
39064,note_on,60,0,2,,,,,,,,,1,,,,74,0
39064,note_on,0,0,2,,,,,,,,,1,,,,78,0
39064,note_on,60,0,6,,,,,,,,,5,,,,62,0
39065,note_on,0,0,3,,,,,,,,,2,,,,74,0
39065,note_on,60,0,3,,,,,,,,,2,,,,78,0
39069,note_on,0,0,4,,,,,,,,,3,,,,66,0
39069,note_on,60,0,4,,,,,,,,,3,,,,59,0
39120,note_on,0,0,11,,,,,,,,,10,,,,59,112
39120,set_tempo,120,1,0,,,,,,288462,,,,,,,,
39120,note_on,240,0,11,,,,,,,,,10,,,,62,0
39121,note_on,60,0,1,,,,,,,,,0,,,,83,101
39121,note_on,0,0,1,,,,,,,,,0,,,,86,101
39123,note_on,60,0,5,,,,,,,,,4,,,,62,100
39123,note_on,0,0,12,,,,,,,,,11,,,,59,112
39123,note_on,240,0,12,,,,,,,,,11,,,,62,0
39124,note_on,60,0,6,,,,,,,,,5,,,,62,100
39124,note_on,0,0,2,,,,,,,,,1,,,,78,100
39124,note_on,60,0,2,,,,,,,,,1,,,,74,100
39125,note_on,60,0,3,,,,,,,,,2,,,,78,101
39125,note_on,0,0,3,,,,,,,,,2,,,,74,101
39128,note_on,0,0,13,,,,,,,,,12,,,,59,112
39128,note_on,240,0,13,,,,,,,,,12,,,,62,0
39129,note_on,60,0,4,,,,,,,,,3,,,,59,100
39129,note_on,0,0,4,,,,,,,,,3,,,,66,100
39132,note_on,0,0,14,,,,,,,,,13,,,,47,112
39132,note_on,240,0,14,,,,,,,,,13,,,,50,0
39134,note_on,0,0,15,,,,,,,,,14,,,,35,112
39134,note_on,240,0,15,,,,,,,,,14,,,,38,0
39181,note_on,60,0,1,,,,,,,,,0,,,,86,0
39181,note_on,0,0,1,,,,,,,,,0,,,,83,0
39183,note_on,60,0,5,,,,,,,,,4,,,,62,0
39184,note_on,60,0,6,,,,,,,,,5,,,,62,0
39184,note_on,60,0,2,,,,,,,,,1,,,,78,0
39184,note_on,0,0,2,,,,,,,,,1,,,,74,0
39185,note_on,60,0,3,,,,,,,,,2,,,,74,0
39185,note_on,0,0,3,,,,,,,,,2,,,,78,0
39189,note_on,0,0,4,,,,,,,,,3,,,,59,0
39189,note_on,60,0,4,,,,,,,,,3,,,,66,0
39230,note_on,110,0,11,,,,,,,,,10,,,,59,0
39233,note_on,110,0,12,,,,,,,,,11,,,,59,0
39238,note_on,110,0,13,,,,,,,,,12,,,,59,0
39240,control_change,0,0,11,,,,,,,,,10,11,127,,,
39240,note_on,10,0,11,,,,,,,,,10,,,,55,112
39240,set_tempo,120,1,0,,,,,,254237,,,,,,,,
39241,note_on,0,0,1,,,,,,,,,0,,,,86,116
39241,note_on,0,0,1,,,,,,,,,0,,,,83,116
39241,control_change,60,0,1,,,,,,,,,0,11,86,,,
39242,control_change,8520,0,7,,,,,,,,,6,11,102,,,
39242,note_on,110,0,14,,,,,,,,,13,,,,47,0
39242,note_on,0,0,7,,,,,,,,,6,,,,67,112
39243,note_on,0,0,12,,,,,,,,,11,,,,55,112
39243,control_change,10,0,12,,,,,,,,,11,11,127,,,
39243,note_on,0,0,5,,,,,,,,,4,,,,62,115
39243,control_change,60,0,5,,,,,,,,,4,11,102,,,
39244,note_on,0,0,2,,,,,,,,,1,,,,74,115
39244,note_on,0,0,2,,,,,,,,,1,,,,77,115
39244,control_change,60,0,2,,,,,,,,,1,11,86,,,
39244,note_on,110,0,15,,,,,,,,,14,,,,35,0
39244,note_on,60,0,6,,,,,,,,,5,,,,62,115
39244,control_change,0,0,6,,,,,,,,,5,11,102,,,
39245,note_on,0,0,3,,,,,,,,,2,,,,77,116
39245,note_on,0,0,3,,,,,,,,,2,,,,71,116
39245,control_change,5,0,11,,,,,,,,,10,11,124,,,
39245,control_change,60,0,3,,,,,,,,,2,11,86,,,
39247,note_on,0,0,8,,,,,,,,,7,,,,59,125
39247,program_change,9,0,13,,,,,,,,50,12,,,,,
39247,control_change,8520,0,8,,,,,,,,,7,11,102,,,
39247,note_on,0,0,8,,,,,,,,,7,,,,62,125
39248,control_change,0,0,13,,,,,,,,,12,11,127,,,
39248,note_on,1,0,13,,,,,,,,,12,,,,55,112
39248,control_change,5,0,12,,,,,,,,,11,11,124,,,
39249,control_change,0,0,4,,,,,,,,,3,11,97,,,
39249,note_on,60,0,4,,,,,,,,,3,,,,65,115
39249,note_on,0,0,4,,,,,,,,,3,,,,59,115
39250,control_change,5,0,11,,,,,,,,,10,11,121,,,
39252,note_on,10,0,14,,,,,,,,,13,,,,43,112
39252,control_change,0,0,14,,,,,,,,,13,11,127,,,
39253,note_on,0,0,9,,,,,,,,,8,,,,55,125
39253,control_change,5,0,12,,,,,,,,,11,11,121,,,
39253,control_change,5,0,13,,,,,,,,,12,11,124,,,
39253,control_change,8520,0,9,,,,,,,,,8,11,102,,,
39254,note_on,10,0,15,,,,,,,,,14,,,,31,112
39254,control_change,0,0,15,,,,,,,,,14,11,127,,,
39255,note_on,8520,0,10,,,,,,,,,15,,,,43,100
39256,control_change,6,0,11,,,,,,,,,10,11,118,,,
39257,control_change,5,0,14,,,,,,,,,13,11,124,,,
39258,control_change,5,0,13,,,,,,,,,12,11,121,,,
39259,control_change,5,0,15,,,,,,,,,14,11,124,,,
39259,control_change,6,0,12,,,,,,,,,11,11,118,,,
39261,control_change,5,0,11,,,,,,,,,10,11,115,,,
39262,control_change,5,0,14,,,,,,,,,13,11,121,,,
39264,control_change,5,0,15,,,,,,,,,14,11,121,,,
39264,control_change,6,0,13,,,,,,,,,12,11,118,,,
39264,control_change,5,0,12,,,,,,,,,11,11,115,,,
39267,control_change,6,0,11,,,,,,,,,10,11,112,,,
39268,control_change,6,0,14,,,,,,,,,13,11,118,,,
39269,control_change,5,0,13,,,,,,,,,12,11,115,,,
39270,control_change,6,0,12,,,,,,,,,11,11,112,,,
39270,control_change,6,0,15,,,,,,,,,14,11,118,,,
39270,note_on,3,0,11,,,,,,,,,10,,,,55,0
39272,control_change,2,0,11,,,,,,,,,10,11,109,,,
39273,control_change,5,0,14,,,,,,,,,13,11,115,,,
39273,note_on,3,0,12,,,,,,,,,11,,,,55,0
39275,control_change,2,0,12,,,,,,,,,11,11,109,,,
39275,control_change,6,0,13,,,,,,,,,12,11,112,,,
39275,control_change,5,0,15,,,,,,,,,14,11,115,,,
39277,control_change,5,0,11,,,,,,,,,10,11,106,,,
39278,note_on,3,0,13,,,,,,,,,12,,,,55,0
39279,control_change,6,0,14,,,,,,,,,13,11,112,,,
39280,control_change,2,0,13,,,,,,,,,12,11,109,,,
39280,control_change,5,0,12,,,,,,,,,11,11,106,,,
39281,control_change,6,0,15,,,,,,,,,14,11,112,,,
39282,note_on,3,0,14,,,,,,,,,13,,,,43,0
39283,control_change,6,0,11,,,,,,,,,10,11,103,,,
39284,note_on,3,0,15,,,,,,,,,14,,,,31,0
39284,control_change,2,0,14,,,,,,,,,13,11,109,,,
39285,control_change,5,0,13,,,,,,,,,12,11,106,,,
39286,control_change,6,0,12,,,,,,,,,11,11,103,,,
39286,control_change,2,0,15,,,,,,,,,14,11,109,,,
39289,control_change,5,0,14,,,,,,,,,13,11,106,,,
39291,control_change,5,0,15,,,,,,,,,14,11,106,,,
39291,control_change,6,0,13,,,,,,,,,12,11,103,,,
39295,control_change,6,0,14,,,,,,,,,13,11,103,,,
39297,control_change,6,0,15,,,,,,,,,14,11,103,,,
39300,note_on,17,0,11,,,,,,,,,10,,,,55,112
39303,note_on,17,0,12,,,,,,,,,11,,,,55,112
39308,note_on,17,0,13,,,,,,,,,12,,,,55,112
39312,note_on,17,0,14,,,,,,,,,13,,,,43,112
39314,note_on,17,0,15,,,,,,,,,14,,,,31,112
39330,note_on,30,0,11,,,,,,,,,10,,,,55,0
39333,note_on,30,0,12,,,,,,,,,11,,,,55,0
39338,note_on,30,0,13,,,,,,,,,12,,,,55,0
39342,note_on,30,0,14,,,,,,,,,13,,,,43,0
39344,note_on,30,0,15,,,,,,,,,14,,,,31,0
39360,set_tempo,120,1,0,,,,,,263158,,,,,,,,
39360,note_on,30,0,11,,,,,,,,,10,,,,57,112
39362,note_on,120,0,7,,,,,,,,,6,,,,67,0
39363,note_on,30,0,12,,,,,,,,,11,,,,57,112
39368,note_on,30,0,13,,,,,,,,,12,,,,57,112
39372,note_on,30,0,14,,,,,,,,,13,,,,45,112
39374,note_on,30,0,15,,,,,,,,,14,,,,33,112
39375,note_on,120,0,10,,,,,,,,,15,,,,43,0
39390,note_on,30,0,11,,,,,,,,,10,,,,57,0
39393,note_on,30,0,12,,,,,,,,,11,,,,57,0
39398,note_on,30,0,13,,,,,,,,,12,,,,57,0
39402,note_on,30,0,14,,,,,,,,,13,,,,45,0
39404,note_on,30,0,15,,,,,,,,,14,,,,33,0
39420,note_on,30,0,11,,,,,,,,,10,,,,55,112
39423,note_on,30,0,12,,,,,,,,,11,,,,55,112
39428,note_on,30,0,13,,,,,,,,,12,,,,55,112
39432,note_on,30,0,14,,,,,,,,,13,,,,43,112
39434,note_on,30,0,15,,,,,,,,,14,,,,31,112
39450,note_on,30,0,11,,,,,,,,,10,,,,55,0
39453,note_on,30,0,12,,,,,,,,,11,,,,55,0
39458,note_on,30,0,13,,,,,,,,,12,,,,55,0
39462,note_on,30,0,14,,,,,,,,,13,,,,43,0
39464,note_on,30,0,15,,,,,,,,,14,,,,31,0
39480,note_on,30,0,11,,,,,,,,,10,,,,57,112
39480,set_tempo,120,1,0,,,,,,288462,,,,,,,,
39483,note_on,30,0,12,,,,,,,,,11,,,,57,112
39488,note_on,30,0,13,,,,,,,,,12,,,,57,112
39492,note_on,30,0,14,,,,,,,,,13,,,,45,112
39494,note_on,30,0,15,,,,,,,,,14,,,,33,112
39510,note_on,30,0,11,,,,,,,,,10,,,,57,0
39513,note_on,30,0,12,,,,,,,,,11,,,,57,0
39518,note_on,30,0,13,,,,,,,,,12,,,,57,0
39522,note_on,30,0,14,,,,,,,,,13,,,,45,0
39524,note_on,30,0,15,,,,,,,,,14,,,,33,0
39540,note_on,30,0,11,,,,,,,,,10,,,,55,112
39543,note_on,30,0,12,,,,,,,,,11,,,,55,112
39548,note_on,30,0,13,,,,,,,,,12,,,,55,112
39552,note_on,30,0,14,,,,,,,,,13,,,,43,112
39554,note_on,30,0,15,,,,,,,,,14,,,,31,112
39570,note_on,30,0,11,,,,,,,,,10,,,,55,0
39573,note_on,30,0,12,,,,,,,,,11,,,,55,0
39578,note_on,30,0,13,,,,,,,,,12,,,,55,0
39582,note_on,30,0,14,,,,,,,,,13,,,,43,0
39584,note_on,30,0,15,,,,,,,,,14,,,,31,0
39600,control_change,0,0,11,,,,,,,,,10,11,127,,,
39600,note_on,30,0,11,,,,,,,,,10,,,,61,112
39600,set_tempo,120,1,0,,,,,,254237,,,,,,,,
39601,note_on,0,0,1,,,,,,,,,0,,,,82,116
39601,note_on,0,0,1,,,,,,,,,0,,,,86,0
39601,note_on,0,0,1,,,,,,,,,0,,,,88,116
39601,note_on,360,0,1,,,,,,,,,0,,,,83,0
39602,note_on,240,0,7,,,,,,,,,6,,,,67,112
39603,control_change,0,0,12,,,,,,,,,11,11,127,,,
39603,note_on,30,0,12,,,,,,,,,11,,,,61,112
39603,note_on,360,0,5,,,,,,,,,4,,,,62,0
39603,note_on,0,0,5,,,,,,,,,4,,,,67,115
39604,note_on,0,0,2,,,,,,,,,1,,,,77,0
39604,note_on,0,0,2,,,,,,,,,1,,,,76,115
39604,note_on,0,0,2,,,,,,,,,1,,,,79,115
39604,note_on,360,0,2,,,,,,,,,1,,,,74,0
39604,note_on,0,0,6,,,,,,,,,5,,,,55,115
39604,note_on,360,0,6,,,,,,,,,5,,,,62,0
39605,note_on,0,0,3,,,,,,,,,2,,,,76,116
39605,note_on,360,0,3,,,,,,,,,2,,,,71,0
39605,note_on,0,0,3,,,,,,,,,2,,,,77,0
39605,control_change,5,0,11,,,,,,,,,10,11,124,,,
39605,note_on,0,0,3,,,,,,,,,2,,,,70,116
39607,note_on,0,0,8,,,,,,,,,7,,,,59,0
39607,note_on,360,0,8,,,,,,,,,7,,,,62,0
39607,note_on,0,0,8,,,,,,,,,7,,,,58,125
39607,note_on,0,0,8,,,,,,,,,7,,,,64,125
39608,control_change,0,0,13,,,,,,,,,12,11,127,,,
39608,note_on,30,0,13,,,,,,,,,12,,,,61,112
39608,control_change,5,0,12,,,,,,,,,11,11,124,,,
39609,note_on,0,0,4,,,,,,,,,3,,,,64,115
39609,note_on,0,0,4,,,,,,,,,3,,,,58,115
39609,note_on,0,0,4,,,,,,,,,3,,,,65,0
39609,note_on,360,0,4,,,,,,,,,3,,,,59,0
39610,control_change,5,0,11,,,,,,,,,10,11,121,,,
39612,control_change,0,0,14,,,,,,,,,13,11,127,,,
39612,note_on,30,0,14,,,,,,,,,13,,,,49,112
39613,note_on,360,0,9,,,,,,,,,8,,,,55,0
39613,note_on,0,0,9,,,,,,,,,8,,,,49,125
39613,control_change,5,0,13,,,,,,,,,12,11,124,,,
39613,control_change,5,0,12,,,,,,,,,11,11,121,,,
39614,control_change,30,0,15,,,,,,,,,14,11,127,,,
39614,note_on,0,0,15,,,,,,,,,14,,,,37,112
39615,note_on,240,0,10,,,,,,,,,15,,,,43,100
39616,control_change,6,0,11,,,,,,,,,10,11,118,,,
39617,control_change,5,0,14,,,,,,,,,13,11,124,,,
39618,control_change,5,0,13,,,,,,,,,12,11,121,,,
39619,control_change,6,0,12,,,,,,,,,11,11,118,,,
39619,control_change,5,0,15,,,,,,,,,14,11,124,,,
39621,control_change,5,0,11,,,,,,,,,10,11,115,,,
39622,control_change,5,0,14,,,,,,,,,13,11,121,,,
39624,control_change,5,0,12,,,,,,,,,11,11,115,,,
39624,control_change,5,0,15,,,,,,,,,14,11,121,,,
39624,control_change,6,0,13,,,,,,,,,12,11,118,,,
39627,control_change,6,0,11,,,,,,,,,10,11,112,,,
39628,control_change,6,0,14,,,,,,,,,13,11,118,,,
39629,control_change,5,0,13,,,,,,,,,12,11,115,,,
39630,control_change,6,0,12,,,,,,,,,11,11,112,,,
39630,control_change,6,0,15,,,,,,,,,14,11,118,,,
39632,control_change,5,0,11,,,,,,,,,10,11,109,,,
39633,control_change,5,0,14,,,,,,,,,13,11,115,,,
39635,control_change,6,0,13,,,,,,,,,12,11,112,,,
39635,control_change,5,0,12,,,,,,,,,11,11,109,,,
39635,control_change,5,0,15,,,,,,,,,14,11,115,,,
39637,control_change,5,0,11,,,,,,,,,10,11,106,,,
39639,control_change,6,0,14,,,,,,,,,13,11,112,,,
39640,control_change,5,0,12,,,,,,,,,11,11,106,,,
39640,control_change,5,0,13,,,,,,,,,12,11,109,,,
39641,control_change,6,0,15,,,,,,,,,14,11,112,,,
39643,control_change,6,0,11,,,,,,,,,10,11,103,,,
39644,control_change,5,0,14,,,,,,,,,13,11,109,,,
39645,control_change,5,0,13,,,,,,,,,12,11,106,,,
39646,control_change,6,0,12,,,,,,,,,11,11,103,,,
39646,control_change,5,0,15,,,,,,,,,14,11,109,,,
39649,control_change,5,0,14,,,,,,,,,13,11,106,,,
39651,control_change,6,0,13,,,,,,,,,12,11,103,,,
39651,control_change,5,0,15,,,,,,,,,14,11,106,,,
39655,control_change,6,0,14,,,,,,,,,13,11,103,,,
39657,control_change,6,0,15,,,,,,,,,14,11,103,,,
39660,note_on,17,0,11,,,,,,,,,10,,,,61,0
39663,note_on,17,0,12,,,,,,,,,11,,,,61,0
39668,note_on,17,0,13,,,,,,,,,12,,,,61,0
39672,note_on,17,0,14,,,,,,,,,13,,,,49,0
39674,note_on,17,0,15,,,,,,,,,14,,,,37,0
39720,set_tempo,120,1,0,,,,,,263158,,,,,,,,
39720,note_on,60,0,11,,,,,,,,,10,,,,61,112
39722,note_on,120,0,7,,,,,,,,,6,,,,67,0
39723,note_on,60,0,12,,,,,,,,,11,,,,61,112
39728,note_on,60,0,13,,,,,,,,,12,,,,61,112
39732,note_on,60,0,14,,,,,,,,,13,,,,49,112
39734,note_on,60,0,15,,,,,,,,,14,,,,37,112
39735,note_on,120,0,10,,,,,,,,,15,,,,43,0
39780,note_on,60,0,11,,,,,,,,,10,,,,61,0
39783,note_on,60,0,12,,,,,,,,,11,,,,61,0
39788,note_on,60,0,13,,,,,,,,,12,,,,61,0
39792,note_on,60,0,14,,,,,,,,,13,,,,49,0
39794,note_on,60,0,15,,,,,,,,,14,,,,37,0
39840,note_on,60,0,11,,,,,,,,,10,,,,61,112
39840,set_tempo,120,1,0,,,,,,288462,,,,,,,,
39843,note_on,60,0,12,,,,,,,,,11,,,,61,112
39848,note_on,60,0,13,,,,,,,,,12,,,,61,112
39852,note_on,60,0,14,,,,,,,,,13,,,,49,112
39854,note_on,60,0,15,,,,,,,,,14,,,,37,112
39900,note_on,60,0,11,,,,,,,,,10,,,,61,0
39903,note_on,60,0,12,,,,,,,,,11,,,,61,0
39908,note_on,60,0,13,,,,,,,,,12,,,,61,0
39912,note_on,60,0,14,,,,,,,,,13,,,,49,0
39914,note_on,60,0,15,,,,,,,,,14,,,,37,0
39960,note_on,0,0,11,,,,,,,,,10,,,,62,112
39960,set_tempo,120,1,0,,,,,,254237,,,,,,,,
39960,control_change,60,0,11,,,,,,,,,10,11,127,,,
39961,note_on,0,0,1,,,,,,,,,0,,,,90,101
39961,note_on,0,0,1,,,,,,,,,0,,,,81,101
39961,note_on,360,0,1,,,,,,,,,0,,,,82,0
39961,note_on,0,0,1,,,,,,,,,0,,,,88,0
39962,note_on,240,0,7,,,,,,,,,6,,,,74,112
39963,note_on,0,0,5,,,,,,,,,4,,,,62,100
39963,note_on,360,0,5,,,,,,,,,4,,,,67,0
39963,control_change,60,0,12,,,,,,,,,11,11,127,,,
39963,note_on,0,0,12,,,,,,,,,11,,,,62,112
39964,note_on,0,0,6,,,,,,,,,5,,,,62,100
39964,note_on,360,0,6,,,,,,,,,5,,,,55,0
39964,note_on,0,0,2,,,,,,,,,1,,,,84,100
39964,note_on,360,0,2,,,,,,,,,1,,,,79,0
39964,note_on,0,0,2,,,,,,,,,1,,,,76,0
39964,note_on,0,0,2,,,,,,,,,1,,,,78,100
39965,control_change,5,0,11,,,,,,,,,10,11,124,,,
39965,note_on,0,0,3,,,,,,,,,2,,,,69,101
39965,note_on,360,0,3,,,,,,,,,2,,,,70,0
39965,note_on,0,0,3,,,,,,,,,2,,,,76,0
39965,note_on,0,0,3,,,,,,,,,2,,,,72,101
39967,note_on,0,0,8,,,,,,,,,7,,,,60,110
39967,note_on,0,0,8,,,,,,,,,7,,,,57,110
39967,note_on,0,0,8,,,,,,,,,7,,,,58,0
39967,note_on,360,0,8,,,,,,,,,7,,,,64,0
39968,control_change,60,0,13,,,,,,,,,12,11,127,,,
39968,control_change,5,0,12,,,,,,,,,11,11,124,,,
39968,note_on,0,0,13,,,,,,,,,12,,,,62,112
39969,note_on,0,0,4,,,,,,,,,3,,,,57,100
39969,note_on,0,0,4,,,,,,,,,3,,,,66,100
39969,note_on,0,0,4,,,,,,,,,3,,,,58,0
39969,note_on,360,0,4,,,,,,,,,3,,,,64,0
39970,control_change,5,0,11,,,,,,,,,10,11,121,,,
39972,control_change,60,0,14,,,,,,,,,13,11,127,,,
39972,note_on,0,0,14,,,,,,,,,13,,,,50,112
39973,note_on,360,0,9,,,,,,,,,8,,,,49,0
39973,control_change,5,0,12,,,,,,,,,11,11,121,,,
39973,control_change,5,0,13,,,,,,,,,12,11,124,,,
39973,note_on,0,0,9,,,,,,,,,8,,,,50,110
39974,note_on,60,0,15,,,,,,,,,14,,,,38,112
39974,control_change,0,0,15,,,,,,,,,14,11,127,,,
39976,control_change,6,0,11,,,,,,,,,10,11,118,,,
39977,control_change,5,0,14,,,,,,,,,13,11,124,,,
39978,control_change,5,0,13,,,,,,,,,12,11,121,,,
39979,control_change,5,0,15,,,,,,,,,14,11,124,,,
39979,control_change,6,0,12,,,,,,,,,11,11,118,,,
39981,control_change,5,0,11,,,,,,,,,10,11,115,,,
39982,control_change,5,0,14,,,,,,,,,13,11,121,,,
39984,control_change,5,0,15,,,,,,,,,14,11,121,,,
39984,control_change,6,0,13,,,,,,,,,12,11,118,,,
39984,control_change,5,0,12,,,,,,,,,11,11,115,,,
39987,control_change,6,0,11,,,,,,,,,10,11,112,,,
39988,control_change,6,0,14,,,,,,,,,13,11,118,,,
39989,control_change,5,0,13,,,,,,,,,12,11,115,,,
39990,control_change,6,0,12,,,,,,,,,11,11,112,,,
39990,control_change,6,0,15,,,,,,,,,14,11,118,,,
39990,note_on,3,0,11,,,,,,,,,10,,,,62,0
39992,control_change,2,0,11,,,,,,,,,10,11,109,,,
39993,control_change,5,0,14,,,,,,,,,13,11,115,,,
39993,note_on,3,0,12,,,,,,,,,11,,,,62,0
39995,control_change,6,0,13,,,,,,,,,12,11,112,,,
39995,control_change,5,0,15,,,,,,,,,14,11,115,,,
39995,control_change,2,0,12,,,,,,,,,11,11,109,,,
39997,control_change,5,0,11,,,,,,,,,10,11,106,,,
39998,note_on,3,0,13,,,,,,,,,12,,,,62,0
39999,control_change,6,0,14,,,,,,,,,13,11,112,,,
40000,control_change,5,0,12,,,,,,,,,11,11,106,,,
40000,control_change,2,0,13,,,,,,,,,12,11,109,,,
40001,control_change,6,0,15,,,,,,,,,14,11,112,,,
40002,note_on,3,0,14,,,,,,,,,13,,,,50,0
40003,control_change,6,0,11,,,,,,,,,10,11,103,,,
40004,note_on,3,0,15,,,,,,,,,14,,,,38,0
40004,control_change,2,0,14,,,,,,,,,13,11,109,,,
40005,control_change,5,0,13,,,,,,,,,12,11,106,,,
40006,control_change,6,0,12,,,,,,,,,11,11,103,,,
40006,control_change,2,0,15,,,,,,,,,14,11,109,,,
40009,control_change,5,0,14,,,,,,,,,13,11,106,,,
40011,control_change,6,0,13,,,,,,,,,12,11,103,,,
40011,control_change,5,0,15,,,,,,,,,14,11,106,,,
40015,control_change,6,0,14,,,,,,,,,13,11,103,,,
40017,control_change,6,0,15,,,,,,,,,14,11,103,,,
40020,note_on,17,0,11,,,,,,,,,10,,,,62,112
40022,note_on,60,0,7,,,,,,,,,6,,,,74,0
40023,note_on,60,0,5,,,,,,,,,4,,,,62,0
40023,note_on,17,0,12,,,,,,,,,11,,,,62,112
40024,note_on,60,0,6,,,,,,,,,5,,,,62,0
40027,note_on,0,0,8,,,,,,,,,7,,,,57,0
40027,note_on,60,0,8,,,,,,,,,7,,,,60,0
40028,note_on,17,0,13,,,,,,,,,12,,,,62,112
40032,note_on,17,0,14,,,,,,,,,13,,,,50,112
40033,note_on,60,0,9,,,,,,,,,8,,,,50,0
40034,note_on,17,0,15,,,,,,,,,14,,,,38,112
40041,note_on,0,0,1,,,,,,,,,0,,,,81,0
40041,note_on,80,0,1,,,,,,,,,0,,,,90,0
40044,note_on,80,0,2,,,,,,,,,1,,,,78,0
40044,note_on,0,0,2,,,,,,,,,1,,,,84,0
40045,note_on,80,0,3,,,,,,,,,2,,,,69,0
40045,note_on,0,0,3,,,,,,,,,2,,,,72,0
40049,note_on,80,0,4,,,,,,,,,3,,,,66,0
40049,note_on,0,0,4,,,,,,,,,3,,,,57,0
40050,note_on,30,0,11,,,,,,,,,10,,,,62,0
40053,note_on,30,0,12,,,,,,,,,11,,,,62,0
40058,note_on,30,0,13,,,,,,,,,12,,,,62,0
40062,note_on,30,0,14,,,,,,,,,13,,,,50,0
40064,note_on,30,0,15,,,,,,,,,14,,,,38,0
40080,set_tempo,120,1,0,,,,,,263158,,,,,,,,
40080,note_on,30,0,11,,,,,,,,,10,,,,64,112
40081,note_on,40,0,1,,,,,,,,,0,,,,90,101
40081,note_on,0,0,1,,,,,,,,,0,,,,81,101
40082,note_on,60,0,7,,,,,,,,,6,,,,74,112
40083,note_on,60,0,5,,,,,,,,,4,,,,62,100
40083,note_on,30,0,12,,,,,,,,,11,,,,64,112
40084,note_on,0,0,2,,,,,,,,,1,,,,84,100
40084,note_on,40,0,2,,,,,,,,,1,,,,78,100
40084,note_on,60,0,6,,,,,,,,,5,,,,62,100
40085,note_on,40,0,3,,,,,,,,,2,,,,69,101
40085,note_on,0,0,3,,,,,,,,,2,,,,72,101
40087,note_on,0,0,8,,,,,,,,,7,,,,57,110
40087,note_on,60,0,8,,,,,,,,,7,,,,60,110
40088,note_on,30,0,13,,,,,,,,,12,,,,64,112
40089,note_on,0,0,4,,,,,,,,,3,,,,66,100
40089,note_on,40,0,4,,,,,,,,,3,,,,57,100
40092,note_on,30,0,14,,,,,,,,,13,,,,52,112
40093,note_on,60,0,9,,,,,,,,,8,,,,50,110
40094,note_on,30,0,15,,,,,,,,,14,,,,40,112
40110,note_on,30,0,11,,,,,,,,,10,,,,64,0
40113,note_on,30,0,12,,,,,,,,,11,,,,64,0
40118,note_on,30,0,13,,,,,,,,,12,,,,64,0
40122,note_on,30,0,14,,,,,,,,,13,,,,52,0
40124,note_on,30,0,15,,,,,,,,,14,,,,40,0
40140,note_on,30,0,11,,,,,,,,,10,,,,62,112
40142,note_on,60,0,7,,,,,,,,,6,,,,74,0
40143,note_on,60,0,5,,,,,,,,,4,,,,62,0
40143,note_on,30,0,12,,,,,,,,,11,,,,62,112
40144,note_on,60,0,6,,,,,,,,,5,,,,62,0
40147,note_on,0,0,8,,,,,,,,,7,,,,60,0
40147,note_on,60,0,8,,,,,,,,,7,,,,57,0
40148,note_on,30,0,13,,,,,,,,,12,,,,62,112
40152,note_on,30,0,14,,,,,,,,,13,,,,50,112
40153,note_on,60,0,9,,,,,,,,,8,,,,50,0
40154,note_on,30,0,15,,,,,,,,,14,,,,38,112
40161,note_on,0,0,1,,,,,,,,,0,,,,90,0
40161,note_on,80,0,1,,,,,,,,,0,,,,81,0
40164,note_on,80,0,2,,,,,,,,,1,,,,84,0
40164,note_on,0,0,2,,,,,,,,,1,,,,78,0
40165,note_on,0,0,3,,,,,,,,,2,,,,69,0
40165,note_on,80,0,3,,,,,,,,,2,,,,72,0
40169,note_on,80,0,4,,,,,,,,,3,,,,66,0
40169,note_on,0,0,4,,,,,,,,,3,,,,57,0
40170,note_on,30,0,11,,,,,,,,,10,,,,62,0
40173,note_on,30,0,12,,,,,,,,,11,,,,62,0
40178,note_on,30,0,13,,,,,,,,,12,,,,62,0
40182,note_on,30,0,14,,,,,,,,,13,,,,50,0
40184,note_on,30,0,15,,,,,,,,,14,,,,38,0
40200,set_tempo,120,1,0,,,,,,288462,,,,,,,,
40200,note_on,30,0,11,,,,,,,,,10,,,,64,112
40201,note_on,0,0,1,,,,,,,,,0,,,,81,101
40201,note_on,40,0,1,,,,,,,,,0,,,,90,101
40202,note_on,60,0,7,,,,,,,,,6,,,,74,112
40203,note_on,60,0,5,,,,,,,,,4,,,,62,100
40203,note_on,30,0,12,,,,,,,,,11,,,,64,112
40204,note_on,40,0,2,,,,,,,,,1,,,,84,100
40204,note_on,60,0,6,,,,,,,,,5,,,,62,100
40204,note_on,0,0,2,,,,,,,,,1,,,,78,100
40205,note_on,0,0,3,,,,,,,,,2,,,,69,101
40205,note_on,40,0,3,,,,,,,,,2,,,,72,101
40207,note_on,60,0,8,,,,,,,,,7,,,,60,110
40207,note_on,0,0,8,,,,,,,,,7,,,,57,110
40208,note_on,30,0,13,,,,,,,,,12,,,,64,112
40209,note_on,0,0,4,,,,,,,,,3,,,,57,100
40209,note_on,40,0,4,,,,,,,,,3,,,,66,100
40212,note_on,30,0,14,,,,,,,,,13,,,,52,112
40213,note_on,60,0,9,,,,,,,,,8,,,,50,110
40214,note_on,30,0,15,,,,,,,,,14,,,,40,112
40230,note_on,30,0,11,,,,,,,,,10,,,,64,0
40233,note_on,30,0,12,,,,,,,,,11,,,,64,0
40238,note_on,30,0,13,,,,,,,,,12,,,,64,0
40242,note_on,30,0,14,,,,,,,,,13,,,,52,0
40244,note_on,30,0,15,,,,,,,,,14,,,,40,0
40260,note_on,30,0,11,,,,,,,,,10,,,,62,112
40262,note_on,60,0,7,,,,,,,,,6,,,,74,0
40263,note_on,30,0,12,,,,,,,,,11,,,,62,112
40263,note_on,60,0,5,,,,,,,,,4,,,,62,0
40264,note_on,60,0,6,,,,,,,,,5,,,,62,0
40267,note_on,0,0,8,,,,,,,,,7,,,,60,0
40267,note_on,60,0,8,,,,,,,,,7,,,,57,0
40268,note_on,30,0,13,,,,,,,,,12,,,,62,112
40272,note_on,30,0,14,,,,,,,,,13,,,,50,112
40273,note_on,60,0,9,,,,,,,,,8,,,,50,0
40274,note_on,30,0,15,,,,,,,,,14,,,,38,112
40281,note_on,0,0,1,,,,,,,,,0,,,,90,0
40281,note_on,80,0,1,,,,,,,,,0,,,,81,0
40284,note_on,80,0,2,,,,,,,,,1,,,,78,0
40284,note_on,0,0,2,,,,,,,,,1,,,,84,0
40285,note_on,80,0,3,,,,,,,,,2,,,,69,0
40285,note_on,0,0,3,,,,,,,,,2,,,,72,0
40289,note_on,80,0,4,,,,,,,,,3,,,,57,0
40289,note_on,0,0,4,,,,,,,,,3,,,,66,0
40290,note_on,30,0,11,,,,,,,,,10,,,,62,0
40293,note_on,30,0,12,,,,,,,,,11,,,,62,0
40298,note_on,30,0,13,,,,,,,,,12,,,,62,0
40302,note_on,30,0,14,,,,,,,,,13,,,,50,0
40304,note_on,30,0,15,,,,,,,,,14,,,,38,0
40320,note_on,0,0,11,,,,,,,,,10,,,,67,112
40320,control_change,30,0,11,,,,,,,,,10,11,127,,,
40320,set_tempo,120,1,0,,,,,,254237,,,,,,,,
40321,note_on,40,0,1,,,,,,,,,0,,,,83,101
40321,note_on,0,0,1,,,,,,,,,0,,,,91,101
40322,note_on,0,0,7,,,,,,,,,6,,,,74,112
40322,note_on,60,0,7,,,,,,,,,6,,,,67,112
40323,note_on,60,0,5,,,,,,,,,4,,,,67,100
40323,control_change,0,0,12,,,,,,,,,11,11,127,,,
40323,note_on,30,0,12,,,,,,,,,11,,,,67,112
40324,note_on,60,0,6,,,,,,,,,5,,,,55,100
40324,note_on,40,0,2,,,,,,,,,1,,,,83,100
40324,note_on,0,0,2,,,,,,,,,1,,,,79,100
40325,note_on,0,0,3,,,,,,,,,2,,,,71,101
40325,note_on,40,0,3,,,,,,,,,2,,,,67,101
40327,control_change,7,0,11,,,,,,,,,10,11,124,,,
40327,note_on,60,0,8,,,,,,,,,7,,,,55,110
40327,note_on,0,0,8,,,,,,,,,7,,,,59,110
40328,note_on,0,0,13,,,,,,,,,12,,,,67,112
40328,control_change,30,0,13,,,,,,,,,12,11,127,,,
40329,note_on,0,0,4,,,,,,,,,3,,,,59,100
40329,note_on,40,0,4,,,,,,,,,3,,,,67,100
40330,control_change,7,0,12,,,,,,,,,11,11,124,,,
40332,control_change,0,0,14,,,,,,,,,13,11,127,,,
40332,note_on,30,0,14,,,,,,,,,13,,,,55,112
40333,note_on,60,0,9,,,,,,,,,8,,,,43,110
40334,control_change,7,0,11,,,,,,,,,10,11,121,,,
40334,note_on,30,0,15,,,,,,,,,14,,,,43,112
40334,control_change,0,0,15,,,,,,,,,14,11,127,,,
40335,control_change,7,0,13,,,,,,,,,12,11,124,,,
40335,note_on,600,0,10,,,,,,,,,15,,,,43,100
40337,control_change,7,0,12,,,,,,,,,11,11,121,,,
40339,control_change,7,0,14,,,,,,,,,13,11,124,,,
40341,control_change,7,0,11,,,,,,,,,10,11,118,,,
40341,control_change,7,0,15,,,,,,,,,14,11,124,,,
40342,control_change,7,0,13,,,,,,,,,12,11,121,,,
40344,control_change,7,0,12,,,,,,,,,11,11,118,,,
40346,control_change,7,0,14,,,,,,,,,13,11,121,,,
40348,control_change,7,0,11,,,,,,,,,10,11,115,,,
40348,control_change,7,0,15,,,,,,,,,14,11,121,,,
40349,control_change,7,0,13,,,,,,,,,12,11,118,,,
40351,control_change,7,0,12,,,,,,,,,11,11,115,,,
40353,control_change,7,0,14,,,,,,,,,13,11,118,,,
40355,control_change,7,0,15,,,,,,,,,14,11,118,,,
40356,control_change,7,0,13,,,,,,,,,12,11,115,,,
40356,control_change,8,0,11,,,,,,,,,10,11,112,,,
40359,control_change,8,0,12,,,,,,,,,11,11,112,,,
40360,control_change,7,0,14,,,,,,,,,13,11,115,,,
40362,control_change,7,0,15,,,,,,,,,14,11,115,,,
40363,control_change,7,0,11,,,,,,,,,10,11,109,,,
40364,control_change,8,0,13,,,,,,,,,12,11,112,,,
40366,control_change,7,0,12,,,,,,,,,11,11,109,,,
40368,control_change,8,0,14,,,,,,,,,13,11,112,,,
40370,control_change,8,0,15,,,,,,,,,14,11,112,,,
40370,control_change,7,0,11,,,,,,,,,10,11,106,,,
40371,control_change,7,0,13,,,,,,,,,12,11,109,,,
40373,control_change,7,0,12,,,,,,,,,11,11,106,,,
40375,control_change,7,0,14,,,,,,,,,13,11,109,,,
40377,control_change,7,0,15,,,,,,,,,14,11,109,,,
40377,control_change,7,0,11,,,,,,,,,10,11,103,,,
40378,control_change,7,0,13,,,,,,,,,12,11,106,,,
40380,control_change,7,0,12,,,,,,,,,11,11,103,,,
40382,control_change,7,0,14,,,,,,,,,13,11,106,,,
40384,control_change,7,0,15,,,,,,,,,14,11,106,,,
40385,control_change,7,0,13,,,,,,,,,12,11,103,,,
40389,control_change,7,0,14,,,,,,,,,13,11,103,,,
40391,control_change,7,0,15,,,,,,,,,14,11,103,,,
40440,note_on,63,0,11,,,,,,,,,10,,,,67,0
40440,set_tempo,120,1,0,,,,,,263158,,,,,,,,
40441,note_on,0,0,1,,,,,,,,,0,,,,83,0
40441,note_on,120,0,1,,,,,,,,,0,,,,91,0
40442,note_on,120,0,7,,,,,,,,,6,,,,74,0
40442,note_on,0,0,7,,,,,,,,,6,,,,67,0
40443,note_on,63,0,12,,,,,,,,,11,,,,67,0
40443,note_on,120,0,5,,,,,,,,,4,,,,67,0
40444,note_on,120,0,2,,,,,,,,,1,,,,79,0
40444,note_on,0,0,2,,,,,,,,,1,,,,83,0
40444,note_on,120,0,6,,,,,,,,,5,,,,55,0
40445,note_on,0,0,3,,,,,,,,,2,,,,67,0
40445,note_on,120,0,3,,,,,,,,,2,,,,71,0
40447,note_on,120,0,8,,,,,,,,,7,,,,59,0
40447,note_on,0,0,8,,,,,,,,,7,,,,55,0
40448,note_on,63,0,13,,,,,,,,,12,,,,67,0
40449,note_on,120,0,4,,,,,,,,,3,,,,59,0
40449,note_on,0,0,4,,,,,,,,,3,,,,67,0
40452,note_on,63,0,14,,,,,,,,,13,,,,55,0
40453,note_on,120,0,9,,,,,,,,,8,,,,43,0
40454,note_on,63,0,15,,,,,,,,,14,,,,43,0
40455,note_on,120,0,10,,,,,,,,,15,,,,43,0
40560,set_tempo,120,1,0,,,,,,307692,,,,,,,,
40680,set_tempo,120,1,0,,,,,,254237,,,,,,,,
40680,control_change,0,0,11,,,,,,,,,10,11,102,,,
40680,note_on,240,0,11,,,,,,,,,10,,,,68,112
40681,note_on,0,0,1,,,,,,,,,0,,,,80,101
40681,control_change,0,0,1,,,,,,,,,0,11,86,,,
40681,note_on,240,0,1,,,,,,,,,0,,,,84,101
40682,note_on,240,0,7,,,,,,,,,6,,,,72,112
40682,control_change,0,0,7,,,,,,,,,6,11,102,,,
40683,note_on,0,0,12,,,,,,,,,11,,,,68,112
40683,control_change,240,0,12,,,,,,,,,11,11,102,,,
40683,control_change,240,0,5,,,,,,,,,4,11,102,,,
40683,note_on,0,0,5,,,,,,,,,4,,,,60,100
40684,note_on,240,0,2,,,,,,,,,1,,,,72,100
40684,control_change,240,0,6,,,,,,,,,5,11,102,,,
40684,note_on,0,0,6,,,,,,,,,5,,,,60,100
40684,note_on,0,0,2,,,,,,,,,1,,,,75,100
40684,control_change,0,0,2,,,,,,,,,1,11,86,,,
40685,note_on,240,0,3,,,,,,,,,2,,,,68,101
40685,note_on,0,0,3,,,,,,,,,2,,,,75,101
40685,control_change,0,0,3,,,,,,,,,2,11,86,,,
40687,control_change,240,0,8,,,,,,,,,7,11,102,,,
40687,note_on,0,0,8,,,,,,,,,7,,,,56,110
40688,control_change,240,0,13,,,,,,,,,12,11,102,,,
40688,note_on,0,0,13,,,,,,,,,12,,,,68,112
40689,note_on,0,0,4,,,,,,,,,3,,,,63,100
40689,note_on,0,0,4,,,,,,,,,3,,,,56,100
40689,control_change,240,0,4,,,,,,,,,3,11,97,,,
40692,control_change,240,0,14,,,,,,,,,13,11,102,,,
40692,note_on,0,0,14,,,,,,,,,13,,,,56,112
40693,control_change,0,0,9,,,,,,,,,8,11,102,,,
40693,note_on,240,0,9,,,,,,,,,8,,,,56,110
40694,note_on,240,0,15,,,,,,,,,14,,,,44,112
40694,control_change,0,0,15,,,,,,,,,14,11,102,,,
40695,note_on,240,0,10,,,,,,,,,15,,,,48,100
40710,note_on,30,0,11,,,,,,,,,10,,,,68,0
40713,note_on,30,0,12,,,,,,,,,11,,,,68,0
40718,note_on,30,0,13,,,,,,,,,12,,,,68,0
40722,note_on,30,0,14,,,,,,,,,13,,,,56,0
40724,note_on,30,0,15,,,,,,,,,14,,,,44,0
40740,note_on,30,0,11,,,,,,,,,10,,,,68,112
40743,note_on,30,0,12,,,,,,,,,11,,,,68,112
40748,note_on,30,0,13,,,,,,,,,12,,,,68,112
40752,note_on,30,0,14,,,,,,,,,13,,,,56,112
40754,note_on,30,0,15,,,,,,,,,14,,,,44,112
40770,note_on,30,0,11,,,,,,,,,10,,,,68,0
40773,note_on,30,0,12,,,,,,,,,11,,,,68,0
40778,note_on,30,0,13,,,,,,,,,12,,,,68,0
40782,note_on,30,0,14,,,,,,,,,13,,,,56,0
40784,note_on,30,0,15,,,,,,,,,14,,,,44,0
40800,set_tempo,120,1,0,,,,,,263158,,,,,,,,
40800,note_on,30,0,11,,,,,,,,,10,,,,70,112
40803,note_on,30,0,12,,,,,,,,,11,,,,70,112
40808,note_on,30,0,13,,,,,,,,,12,,,,70,112
40812,note_on,30,0,14,,,,,,,,,13,,,,58,112
40814,note_on,30,0,15,,,,,,,,,14,,,,46,112
40815,note_on,120,0,10,,,,,,,,,15,,,,48,0
40830,note_on,30,0,11,,,,,,,,,10,,,,70,0
40833,note_on,30,0,12,,,,,,,,,11,,,,70,0
40838,note_on,30,0,13,,,,,,,,,12,,,,70,0
40842,note_on,30,0,14,,,,,,,,,13,,,,58,0
40844,note_on,30,0,15,,,,,,,,,14,,,,46,0
40860,note_on,30,0,11,,,,,,,,,10,,,,68,112
40863,note_on,30,0,12,,,,,,,,,11,,,,68,112
40868,note_on,30,0,13,,,,,,,,,12,,,,68,112
40872,note_on,30,0,14,,,,,,,,,13,,,,56,112
40874,note_on,30,0,15,,,,,,,,,14,,,,44,112
40890,note_on,30,0,11,,,,,,,,,10,,,,68,0
40893,note_on,30,0,12,,,,,,,,,11,,,,68,0
40898,note_on,30,0,13,,,,,,,,,12,,,,68,0
40902,note_on,30,0,14,,,,,,,,,13,,,,56,0
40904,note_on,30,0,15,,,,,,,,,14,,,,44,0
40920,note_on,30,0,11,,,,,,,,,10,,,,70,112
40920,set_tempo,120,1,0,,,,,,288462,,,,,,,,
40923,note_on,30,0,12,,,,,,,,,11,,,,70,112
40927,note_on,240,0,8,,,,,,,,,7,,,,56,0
40928,note_on,30,0,13,,,,,,,,,12,,,,70,112
40932,note_on,30,0,14,,,,,,,,,13,,,,58,112
40933,note_on,240,0,9,,,,,,,,,8,,,,56,0
40934,note_on,30,0,15,,,,,,,,,14,,,,46,112
40950,note_on,30,0,11,,,,,,,,,10,,,,70,0
40953,note_on,30,0,12,,,,,,,,,11,,,,70,0
40958,note_on,30,0,13,,,,,,,,,12,,,,70,0
40962,note_on,30,0,14,,,,,,,,,13,,,,58,0
40964,note_on,30,0,15,,,,,,,,,14,,,,46,0
40980,note_on,30,0,11,,,,,,,,,10,,,,68,112
40983,note_on,30,0,12,,,,,,,,,11,,,,68,112
40988,note_on,30,0,13,,,,,,,,,12,,,,68,112
40992,note_on,30,0,14,,,,,,,,,13,,,,56,112
40994,note_on,30,0,15,,,,,,,,,14,,,,44,112
41010,note_on,30,0,11,,,,,,,,,10,,,,68,0
41013,note_on,30,0,12,,,,,,,,,11,,,,68,0
41018,note_on,30,0,13,,,,,,,,,12,,,,68,0
41022,note_on,30,0,14,,,,,,,,,13,,,,56,0
41024,note_on,30,0,15,,,,,,,,,14,,,,44,0
41031,note_on,350,0,1,,,,,,,,,0,,,,80,0
41031,note_on,0,0,1,,,,,,,,,0,,,,84,0
41032,note_on,350,0,7,,,,,,,,,6,,,,72,0
41033,note_on,350,0,5,,,,,,,,,4,,,,60,0
41034,note_on,350,0,2,,,,,,,,,1,,,,75,0
41034,note_on,0,0,2,,,,,,,,,1,,,,72,0
41034,note_on,350,0,6,,,,,,,,,5,,,,60,0
41035,note_on,350,0,3,,,,,,,,,2,,,,75,0
41035,note_on,0,0,3,,,,,,,,,2,,,,68,0
41039,note_on,0,0,4,,,,,,,,,3,,,,56,0
41039,note_on,350,0,4,,,,,,,,,3,,,,63,0
41040,set_tempo,120,1,0,,,,,,258621,,,,,,,,
41040,note_on,30,0,11,,,,,,,,,10,,,,72,112
41041,note_on,0,0,1,,,,,,,,,0,,,,84,116
41041,note_on,10,0,1,,,,,,,,,0,,,,80,116
41042,note_on,10,0,7,,,,,,,,,6,,,,72,127
41043,note_on,30,0,12,,,,,,,,,11,,,,72,112
41043,note_on,10,0,5,,,,,,,,,4,,,,60,115
41044,note_on,0,0,2,,,,,,,,,1,,,,75,115
41044,note_on,10,0,6,,,,,,,,,5,,,,60,115
41044,note_on,10,0,2,,,,,,,,,1,,,,72,115
41045,note_on,10,0,3,,,,,,,,,2,,,,75,116
41045,note_on,0,0,3,,,,,,,,,2,,,,68,116
41047,note_on,120,0,8,,,,,,,,,7,,,,60,125
41048,note_on,30,0,13,,,,,,,,,12,,,,72,112
41049,note_on,0,0,4,,,,,,,,,3,,,,56,115
41049,note_on,10,0,4,,,,,,,,,3,,,,63,115
41052,note_on,30,0,14,,,,,,,,,13,,,,60,112
41053,note_on,120,0,9,,,,,,,,,8,,,,60,125
41054,note_on,30,0,15,,,,,,,,,14,,,,48,112
41055,note_on,240,0,10,,,,,,,,,15,,,,48,100
41100,note_on,60,0,11,,,,,,,,,10,,,,72,0
41103,note_on,60,0,12,,,,,,,,,11,,,,72,0
41108,note_on,60,0,13,,,,,,,,,12,,,,72,0
41112,note_on,60,0,14,,,,,,,,,13,,,,60,0
41114,note_on,60,0,15,,,,,,,,,14,,,,48,0
41160,note_on,60,0,11,,,,,,,,,10,,,,72,112
41163,note_on,60,0,12,,,,,,,,,11,,,,72,112
41168,note_on,60,0,13,,,,,,,,,12,,,,72,112
41172,note_on,60,0,14,,,,,,,,,13,,,,60,112
41174,note_on,60,0,15,,,,,,,,,14,,,,48,112
41175,note_on,120,0,10,,,,,,,,,15,,,,48,0
41220,note_on,60,0,11,,,,,,,,,10,,,,72,0
41223,note_on,60,0,12,,,,,,,,,11,,,,72,0
41228,note_on,60,0,13,,,,,,,,,12,,,,72,0
41232,note_on,60,0,14,,,,,,,,,13,,,,60,0
41234,note_on,60,0,15,,,,,,,,,14,,,,48,0
41280,note_on,60,0,11,,,,,,,,,10,,,,72,112
41280,set_tempo,240,1,0,,,,,,288462,,,,,,,,
41283,note_on,60,0,12,,,,,,,,,11,,,,72,112
41287,note_on,240,0,8,,,,,,,,,7,,,,60,0
41288,note_on,60,0,13,,,,,,,,,12,,,,72,112
41292,note_on,60,0,14,,,,,,,,,13,,,,60,112
41293,note_on,240,0,9,,,,,,,,,8,,,,60,0
41294,note_on,60,0,15,,,,,,,,,14,,,,48,112
41340,note_on,60,0,11,,,,,,,,,10,,,,72,0
41343,note_on,60,0,12,,,,,,,,,11,,,,72,0
41348,note_on,60,0,13,,,,,,,,,12,,,,72,0
41352,note_on,60,0,14,,,,,,,,,13,,,,60,0
41354,note_on,60,0,15,,,,,,,,,14,,,,48,0
41391,note_on,350,0,1,,,,,,,,,0,,,,84,0
41391,note_on,0,0,1,,,,,,,,,0,,,,80,0
41392,note_on,350,0,7,,,,,,,,,6,,,,72,0
41393,note_on,350,0,5,,,,,,,,,4,,,,60,0
41394,note_on,350,0,6,,,,,,,,,5,,,,60,0
41394,note_on,350,0,2,,,,,,,,,1,,,,75,0
41394,note_on,0,0,2,,,,,,,,,1,,,,72,0
41395,note_on,0,0,3,,,,,,,,,2,,,,75,0
41395,note_on,350,0,3,,,,,,,,,2,,,,68,0
41399,note_on,0,0,4,,,,,,,,,3,,,,63,0
41399,note_on,350,0,4,,,,,,,,,3,,,,56,0
41400,set_tempo,120,1,0,,,,,,254237,,,,,,,,
41400,note_on,60,0,11,,,,,,,,,10,,,,63,112
41401,note_on,10,0,1,,,,,,,,,0,,,,84,116
41401,note_on,0,0,1,,,,,,,,,0,,,,80,116
41402,note_on,10,0,7,,,,,,,,,6,,,,72,127
41403,note_on,60,0,12,,,,,,,,,11,,,,63,112
41403,note_on,10,0,5,,,,,,,,,4,,,,60,115
41404,note_on,10,0,2,,,,,,,,,1,,,,75,115
41404,note_on,0,0,2,,,,,,,,,1,,,,72,115
41404,note_on,10,0,6,,,,,,,,,5,,,,60,115
41405,note_on,10,0,3,,,,,,,,,2,,,,68,116
41405,note_on,0,0,3,,,,,,,,,2,,,,75,116
41407,note_on,120,0,8,,,,,,,,,7,,,,51,125
41408,note_on,60,0,13,,,,,,,,,12,,,,63,112
41409,note_on,0,0,4,,,,,,,,,3,,,,63,115
41409,note_on,10,0,4,,,,,,,,,3,,,,56,115
41412,note_on,60,0,14,,,,,,,,,13,,,,51,112
41413,note_on,120,0,9,,,,,,,,,8,,,,51,125
41414,note_on,60,0,15,,,,,,,,,14,,,,39,112
41415,note_on,240,0,10,,,,,,,,,15,,,,48,100
41430,note_on,30,0,11,,,,,,,,,10,,,,63,0
41433,note_on,30,0,12,,,,,,,,,11,,,,63,0
41438,note_on,30,0,13,,,,,,,,,12,,,,63,0
41442,note_on,30,0,14,,,,,,,,,13,,,,51,0
41444,note_on,30,0,15,,,,,,,,,14,,,,39,0
41460,note_on,30,0,11,,,,,,,,,10,,,,63,112
41463,note_on,30,0,12,,,,,,,,,11,,,,63,112
41468,note_on,30,0,13,,,,,,,,,12,,,,63,112
41472,note_on,30,0,14,,,,,,,,,13,,,,51,112
41474,note_on,30,0,15,,,,,,,,,14,,,,39,112
41490,note_on,30,0,11,,,,,,,,,10,,,,63,0
41493,note_on,30,0,12,,,,,,,,,11,,,,63,0
41498,note_on,30,0,13,,,,,,,,,12,,,,63,0
41502,note_on,30,0,14,,,,,,,,,13,,,,51,0
41504,note_on,30,0,15,,,,,,,,,14,,,,39,0
41520,set_tempo,120,1,0,,,,,,263158,,,,,,,,
41520,note_on,30,0,11,,,,,,,,,10,,,,65,112
41523,note_on,30,0,12,,,,,,,,,11,,,,65,112
41528,note_on,30,0,13,,,,,,,,,12,,,,65,112
41532,note_on,30,0,14,,,,,,,,,13,,,,53,112
41534,note_on,30,0,15,,,,,,,,,14,,,,41,112
41535,note_on,120,0,10,,,,,,,,,15,,,,48,0
41550,note_on,30,0,11,,,,,,,,,10,,,,65,0
41553,note_on,30,0,12,,,,,,,,,11,,,,65,0
41558,note_on,30,0,13,,,,,,,,,12,,,,65,0
41562,note_on,30,0,14,,,,,,,,,13,,,,53,0
41564,note_on,30,0,15,,,,,,,,,14,,,,41,0
41580,note_on,30,0,11,,,,,,,,,10,,,,63,112
41583,note_on,30,0,12,,,,,,,,,11,,,,63,112
41588,note_on,30,0,13,,,,,,,,,12,,,,63,112
41592,note_on,30,0,14,,,,,,,,,13,,,,51,112
41594,note_on,30,0,15,,,,,,,,,14,,,,39,112
41610,note_on,30,0,11,,,,,,,,,10,,,,63,0
41613,note_on,30,0,12,,,,,,,,,11,,,,63,0
41618,note_on,30,0,13,,,,,,,,,12,,,,63,0
41622,note_on,30,0,14,,,,,,,,,13,,,,51,0
41624,note_on,30,0,15,,,,,,,,,14,,,,39,0
41640,set_tempo,120,1,0,,,,,,288462,,,,,,,,
41640,note_on,30,0,11,,,,,,,,,10,,,,65,112
41643,note_on,30,0,12,,,,,,,,,11,,,,65,112
41647,note_on,240,0,8,,,,,,,,,7,,,,51,0
41648,note_on,30,0,13,,,,,,,,,12,,,,65,112
41652,note_on,30,0,14,,,,,,,,,13,,,,53,112
41653,note_on,240,0,9,,,,,,,,,8,,,,51,0
41654,note_on,30,0,15,,,,,,,,,14,,,,41,112
41670,note_on,30,0,11,,,,,,,,,10,,,,65,0
41673,note_on,30,0,12,,,,,,,,,11,,,,65,0
41678,note_on,30,0,13,,,,,,,,,12,,,,65,0
41682,note_on,30,0,14,,,,,,,,,13,,,,53,0
41684,note_on,30,0,15,,,,,,,,,14,,,,41,0
41700,note_on,30,0,11,,,,,,,,,10,,,,63,112
41703,note_on,30,0,12,,,,,,,,,11,,,,63,112
41708,note_on,30,0,13,,,,,,,,,12,,,,63,112
41712,note_on,30,0,14,,,,,,,,,13,,,,51,112
41714,note_on,30,0,15,,,,,,,,,14,,,,39,112
41730,note_on,30,0,11,,,,,,,,,10,,,,63,0
41733,note_on,30,0,12,,,,,,,,,11,,,,63,0
41738,note_on,30,0,13,,,,,,,,,12,,,,63,0
41742,note_on,30,0,14,,,,,,,,,13,,,,51,0
41744,note_on,30,0,15,,,,,,,,,14,,,,39,0
41751,note_on,350,0,1,,,,,,,,,0,,,,80,0
41751,note_on,0,0,1,,,,,,,,,0,,,,84,0
41752,note_on,350,0,7,,,,,,,,,6,,,,72,0
41753,note_on,350,0,5,,,,,,,,,4,,,,60,0
41754,note_on,0,0,2,,,,,,,,,1,,,,75,0
41754,note_on,350,0,6,,,,,,,,,5,,,,60,0
41754,note_on,350,0,2,,,,,,,,,1,,,,72,0
41755,note_on,0,0,3,,,,,,,,,2,,,,68,0
41755,note_on,350,0,3,,,,,,,,,2,,,,75,0
41759,note_on,350,0,4,,,,,,,,,3,,,,63,0
41759,note_on,0,0,4,,,,,,,,,3,,,,56,0
41760,set_tempo,120,1,0,,,,,,258621,,,,,,,,
41760,note_on,30,0,11,,,,,,,,,10,,,,68,112
41761,note_on,0,0,1,,,,,,,,,0,,,,84,116
41761,note_on,10,0,1,,,,,,,,,0,,,,80,116
41762,note_on,10,0,7,,,,,,,,,6,,,,72,127
41763,note_on,10,0,5,,,,,,,,,4,,,,60,115
41763,note_on,30,0,12,,,,,,,,,11,,,,68,112
41764,note_on,10,0,6,,,,,,,,,5,,,,60,115
41764,note_on,0,0,2,,,,,,,,,1,,,,72,115
41764,note_on,10,0,2,,,,,,,,,1,,,,75,115
41765,note_on,0,0,3,,,,,,,,,2,,,,68,116
41765,note_on,10,0,3,,,,,,,,,2,,,,75,116
41767,note_on,120,0,8,,,,,,,,,7,,,,56,125
41768,note_on,30,0,13,,,,,,,,,12,,,,68,112
41769,note_on,10,0,4,,,,,,,,,3,,,,63,115
41769,note_on,0,0,4,,,,,,,,,3,,,,56,115
41772,note_on,30,0,14,,,,,,,,,13,,,,56,112
41773,note_on,120,0,9,,,,,,,,,8,,,,56,125
41774,note_on,30,0,15,,,,,,,,,14,,,,44,112
41775,note_on,240,0,10,,,,,,,,,15,,,,48,100
41820,note_on,60,0,11,,,,,,,,,10,,,,68,0
41823,note_on,60,0,12,,,,,,,,,11,,,,68,0
41828,note_on,60,0,13,,,,,,,,,12,,,,68,0
41832,note_on,60,0,14,,,,,,,,,13,,,,56,0
41834,note_on,60,0,15,,,,,,,,,14,,,,44,0
41880,note_on,60,0,11,,,,,,,,,10,,,,68,112
41883,note_on,60,0,12,,,,,,,,,11,,,,68,112
41888,note_on,60,0,13,,,,,,,,,12,,,,68,112
41892,note_on,60,0,14,,,,,,,,,13,,,,56,112
41894,note_on,60,0,15,,,,,,,,,14,,,,44,112
41895,note_on,120,0,10,,,,,,,,,15,,,,48,0
41940,note_on,60,0,11,,,,,,,,,10,,,,68,0
41943,note_on,60,0,12,,,,,,,,,11,,,,68,0
41948,note_on,60,0,13,,,,,,,,,12,,,,68,0
41952,note_on,60,0,14,,,,,,,,,13,,,,56,0
41954,note_on,60,0,15,,,,,,,,,14,,,,44,0
42000,set_tempo,240,1,0,,,,,,288462,,,,,,,,
42000,note_on,60,0,11,,,,,,,,,10,,,,68,112
42003,note_on,60,0,12,,,,,,,,,11,,,,68,112
42007,note_on,240,0,8,,,,,,,,,7,,,,56,0
42008,note_on,60,0,13,,,,,,,,,12,,,,68,112
42012,note_on,60,0,14,,,,,,,,,13,,,,56,112
42013,note_on,240,0,9,,,,,,,,,8,,,,56,0
42014,note_on,60,0,15,,,,,,,,,14,,,,44,112
42060,note_on,60,0,11,,,,,,,,,10,,,,68,0
42063,note_on,60,0,12,,,,,,,,,11,,,,68,0
42068,note_on,60,0,13,,,,,,,,,12,,,,68,0
42072,note_on,60,0,14,,,,,,,,,13,,,,56,0
42074,note_on,60,0,15,,,,,,,,,14,,,,44,0
42111,note_on,350,0,1,,,,,,,,,0,,,,84,0
42111,note_on,0,0,1,,,,,,,,,0,,,,80,0
42112,note_on,350,0,7,,,,,,,,,6,,,,72,0
42113,note_on,350,0,5,,,,,,,,,4,,,,60,0
42114,note_on,350,0,2,,,,,,,,,1,,,,72,0
42114,note_on,0,0,2,,,,,,,,,1,,,,75,0
42114,note_on,350,0,6,,,,,,,,,5,,,,60,0
42115,note_on,350,0,3,,,,,,,,,2,,,,68,0
42115,note_on,0,0,3,,,,,,,,,2,,,,75,0
42119,note_on,0,0,4,,,,,,,,,3,,,,63,0
42119,note_on,350,0,4,,,,,,,,,3,,,,56,0
42120,note_on,60,0,11,,,,,,,,,10,,,,60,112
42120,set_tempo,120,1,0,,,,,,254237,,,,,,,,
42121,note_on,0,0,1,,,,,,,,,0,,,,84,101
42121,note_on,10,0,1,,,,,,,,,0,,,,80,101
42122,note_on,10,0,7,,,,,,,,,6,,,,72,127
42123,note_on,60,0,12,,,,,,,,,11,,,,60,112
42123,note_on,10,0,5,,,,,,,,,4,,,,60,115
42124,note_on,0,0,2,,,,,,,,,1,,,,75,100
42124,note_on,10,0,2,,,,,,,,,1,,,,72,100
42124,note_on,10,0,6,,,,,,,,,5,,,,60,115
42125,note_on,10,0,3,,,,,,,,,2,,,,68,101
42125,note_on,0,0,3,,,,,,,,,2,,,,75,101
42127,note_on,0,0,8,,,,,,,,,7,,,,48,110
42127,note_on,120,0,8,,,,,,,,,7,,,,60,110
42128,note_on,60,0,13,,,,,,,,,12,,,,60,112
42129,note_on,10,0,4,,,,,,,,,3,,,,63,100
42129,note_on,0,0,4,,,,,,,,,3,,,,56,100
42132,note_on,60,0,14,,,,,,,,,13,,,,48,112
42133,note_on,120,0,9,,,,,,,,,8,,,,48,110
42134,note_on,60,0,15,,,,,,,,,14,,,,36,112
42135,note_on,240,0,10,,,,,,,,,15,,,,48,100
42150,note_on,30,0,11,,,,,,,,,10,,,,60,0
42153,note_on,30,0,12,,,,,,,,,11,,,,60,0
42158,note_on,30,0,13,,,,,,,,,12,,,,60,0
42162,note_on,30,0,14,,,,,,,,,13,,,,48,0
42164,note_on,30,0,15,,,,,,,,,14,,,,36,0
42180,note_on,30,0,11,,,,,,,,,10,,,,60,112
42183,note_on,30,0,12,,,,,,,,,11,,,,60,112
42188,note_on,30,0,13,,,,,,,,,12,,,,60,112
42192,note_on,30,0,14,,,,,,,,,13,,,,48,112
42194,note_on,30,0,15,,,,,,,,,14,,,,36,112
42210,note_on,30,0,11,,,,,,,,,10,,,,60,0
42213,note_on,30,0,12,,,,,,,,,11,,,,60,0
42218,note_on,30,0,13,,,,,,,,,12,,,,60,0
42222,note_on,30,0,14,,,,,,,,,13,,,,48,0
42224,note_on,30,0,15,,,,,,,,,14,,,,36,0
42240,set_tempo,120,1,0,,,,,,263158,,,,,,,,
42240,note_on,30,0,11,,,,,,,,,10,,,,61,112
42243,note_on,30,0,12,,,,,,,,,11,,,,61,112
42248,note_on,30,0,13,,,,,,,,,12,,,,61,112
42252,note_on,30,0,14,,,,,,,,,13,,,,49,112
42254,note_on,30,0,15,,,,,,,,,14,,,,37,112
42255,note_on,120,0,10,,,,,,,,,15,,,,48,0
42270,note_on,30,0,11,,,,,,,,,10,,,,61,0
42273,note_on,30,0,12,,,,,,,,,11,,,,61,0
42278,note_on,30,0,13,,,,,,,,,12,,,,61,0
42282,note_on,30,0,14,,,,,,,,,13,,,,49,0
42284,note_on,30,0,15,,,,,,,,,14,,,,37,0
42300,note_on,30,0,11,,,,,,,,,10,,,,60,112
42303,note_on,30,0,12,,,,,,,,,11,,,,60,112
42308,note_on,30,0,13,,,,,,,,,12,,,,60,112
42312,note_on,30,0,14,,,,,,,,,13,,,,48,112
42314,note_on,30,0,15,,,,,,,,,14,,,,36,112
42330,note_on,30,0,11,,,,,,,,,10,,,,60,0
42333,note_on,30,0,12,,,,,,,,,11,,,,60,0
42338,note_on,30,0,13,,,,,,,,,12,,,,60,0
42342,note_on,30,0,14,,,,,,,,,13,,,,48,0
42344,note_on,30,0,15,,,,,,,,,14,,,,36,0
42360,set_tempo,120,1,0,,,,,,288462,,,,,,,,
42360,note_on,30,0,11,,,,,,,,,10,,,,61,112
42363,note_on,30,0,12,,,,,,,,,11,,,,61,112
42367,note_on,0,0,8,,,,,,,,,7,,,,60,0
42367,note_on,240,0,8,,,,,,,,,7,,,,48,0
42368,note_on,30,0,13,,,,,,,,,12,,,,61,112
42372,note_on,30,0,14,,,,,,,,,13,,,,49,112
42373,note_on,240,0,9,,,,,,,,,8,,,,48,0
42374,note_on,30,0,15,,,,,,,,,14,,,,37,112
42390,note_on,30,0,11,,,,,,,,,10,,,,61,0
42393,note_on,30,0,12,,,,,,,,,11,,,,61,0
42398,note_on,30,0,13,,,,,,,,,12,,,,61,0
42402,note_on,30,0,14,,,,,,,,,13,,,,49,0
42404,note_on,30,0,15,,,,,,,,,14,,,,37,0
42420,note_on,30,0,11,,,,,,,,,10,,,,60,112
42423,note_on,30,0,12,,,,,,,,,11,,,,60,112
42428,note_on,30,0,13,,,,,,,,,12,,,,60,112
42432,note_on,30,0,14,,,,,,,,,13,,,,48,112
42434,note_on,30,0,15,,,,,,,,,14,,,,36,112
42450,note_on,30,0,11,,,,,,,,,10,,,,60,0
42453,note_on,30,0,12,,,,,,,,,11,,,,60,0
42458,note_on,30,0,13,,,,,,,,,12,,,,60,0
42462,note_on,30,0,14,,,,,,,,,13,,,,48,0
42464,note_on,30,0,15,,,,,,,,,14,,,,36,0
42471,note_on,0,0,1,,,,,,,,,0,,,,80,0
42471,note_on,350,0,1,,,,,,,,,0,,,,84,0
42472,note_on,350,0,7,,,,,,,,,6,,,,72,0
42473,note_on,350,0,5,,,,,,,,,4,,,,60,0
42474,note_on,350,0,2,,,,,,,,,1,,,,75,0
42474,note_on,0,0,2,,,,,,,,,1,,,,72,0
42474,note_on,350,0,6,,,,,,,,,5,,,,60,0
42475,note_on,350,0,3,,,,,,,,,2,,,,75,0
42475,note_on,0,0,3,,,,,,,,,2,,,,68,0
42479,note_on,0,0,4,,,,,,,,,3,,,,63,0
42479,note_on,350,0,4,,,,,,,,,3,,,,56,0
42480,note_on,30,0,11,,,,,,,,,10,,,,63,112
42480,set_tempo,120,1,0,,,,,,258621,,,,,,,,
42481,note_on,10,0,1,,,,,,,,,0,,,,80,101
42481,note_on,0,0,1,,,,,,,,,0,,,,84,101
42482,note_on,10,0,7,,,,,,,,,6,,,,72,112
42483,note_on,30,0,12,,,,,,,,,11,,,,63,112
42483,note_on,10,0,5,,,,,,,,,4,,,,60,115
42484,note_on,0,0,2,,,,,,,,,1,,,,72,100
42484,note_on,10,0,2,,,,,,,,,1,,,,75,100
42484,note_on,10,0,6,,,,,,,,,5,,,,60,115
42485,note_on,10,0,3,,,,,,,,,2,,,,75,101
42485,note_on,0,0,3,,,,,,,,,2,,,,68,101
42487,note_on,120,0,8,,,,,,,,,7,,,,63,110
42487,note_on,0,0,8,,,,,,,,,7,,,,51,110
42488,note_on,30,0,13,,,,,,,,,12,,,,63,112
42489,note_on,0,0,4,,,,,,,,,3,,,,63,100
42489,note_on,10,0,4,,,,,,,,,3,,,,56,100
42492,note_on,30,0,14,,,,,,,,,13,,,,51,112
42493,note_on,120,0,9,,,,,,,,,8,,,,51,110
42494,note_on,30,0,15,,,,,,,,,14,,,,39,112
42495,note_on,240,0,10,,,,,,,,,15,,,,48,100
42540,note_on,60,0,11,,,,,,,,,10,,,,63,0
42543,note_on,60,0,12,,,,,,,,,11,,,,63,0
42548,note_on,60,0,13,,,,,,,,,12,,,,63,0
42552,note_on,60,0,14,,,,,,,,,13,,,,51,0
42554,note_on,60,0,15,,,,,,,,,14,,,,39,0
42600,note_on,60,0,11,,,,,,,,,10,,,,63,112
42603,note_on,60,0,12,,,,,,,,,11,,,,63,112
42608,note_on,60,0,13,,,,,,,,,12,,,,63,112
42612,note_on,60,0,14,,,,,,,,,13,,,,51,112
42614,note_on,60,0,15,,,,,,,,,14,,,,39,112
42615,note_on,120,0,10,,,,,,,,,15,,,,48,0
42660,note_on,60,0,11,,,,,,,,,10,,,,63,0
42663,note_on,60,0,12,,,,,,,,,11,,,,63,0
42668,note_on,60,0,13,,,,,,,,,12,,,,63,0
42672,note_on,60,0,14,,,,,,,,,13,,,,51,0
42674,note_on,60,0,15,,,,,,,,,14,,,,39,0
42720,note_on,60,0,11,,,,,,,,,10,,,,63,112
42720,set_tempo,240,1,0,,,,,,288462,,,,,,,,
42723,note_on,60,0,12,,,,,,,,,11,,,,63,112
42727,note_on,0,0,8,,,,,,,,,7,,,,63,0
42727,note_on,240,0,8,,,,,,,,,7,,,,51,0
42728,note_on,60,0,13,,,,,,,,,12,,,,63,112
42732,note_on,60,0,14,,,,,,,,,13,,,,51,112
42733,note_on,240,0,9,,,,,,,,,8,,,,51,0
42734,note_on,60,0,15,,,,,,,,,14,,,,39,112
42780,note_on,60,0,11,,,,,,,,,10,,,,63,0
42783,note_on,60,0,12,,,,,,,,,11,,,,63,0
42788,note_on,60,0,13,,,,,,,,,12,,,,63,0
42792,note_on,60,0,14,,,,,,,,,13,,,,51,0
42794,note_on,60,0,15,,,,,,,,,14,,,,39,0
42831,note_on,0,0,1,,,,,,,,,0,,,,80,0
42831,note_on,350,0,1,,,,,,,,,0,,,,84,0
42832,note_on,350,0,7,,,,,,,,,6,,,,72,0
42833,note_on,350,0,5,,,,,,,,,4,,,,60,0
42834,note_on,350,0,6,,,,,,,,,5,,,,60,0
42834,note_on,0,0,2,,,,,,,,,1,,,,75,0
42834,note_on,350,0,2,,,,,,,,,1,,,,72,0
42835,note_on,350,0,3,,,,,,,,,2,,,,68,0
42835,note_on,0,0,3,,,,,,,,,2,,,,75,0
42839,note_on,350,0,4,,,,,,,,,3,,,,63,0
42839,note_on,0,0,4,,,,,,,,,3,,,,56,0
42840,note_on,60,0,11,,,,,,,,,10,,,,56,112
42840,set_tempo,120,1,0,,,,,,258621,,,,,,,,
42841,note_on,10,0,1,,,,,,,,,0,,,,84,101
42841,note_on,0,0,1,,,,,,,,,0,,,,80,101
42842,note_on,10,0,7,,,,,,,,,6,,,,72,112
42843,note_on,10,0,5,,,,,,,,,4,,,,60,115
42843,note_on,60,0,12,,,,,,,,,11,,,,56,112
42844,note_on,10,0,6,,,,,,,,,5,,,,60,115
42844,note_on,10,0,2,,,,,,,,,1,,,,72,100
42844,note_on,0,0,2,,,,,,,,,1,,,,75,100
42845,note_on,10,0,3,,,,,,,,,2,,,,68,101
42845,note_on,0,0,3,,,,,,,,,2,,,,75,101
42847,note_on,120,0,8,,,,,,,,,7,,,,56,110
42848,note_on,60,0,13,,,,,,,,,12,,,,56,112
42849,note_on,10,0,4,,,,,,,,,3,,,,63,100
42849,note_on,0,0,4,,,,,,,,,3,,,,56,100
42852,note_on,60,0,14,,,,,,,,,13,,,,44,112
42853,note_on,120,0,9,,,,,,,,,8,,,,44,110
42854,note_on,60,0,15,,,,,,,,,14,,,,32,112
42855,note_on,240,0,10,,,,,,,,,15,,,,48,100
42900,note_on,60,0,11,,,,,,,,,10,,,,56,0
42903,note_on,60,0,12,,,,,,,,,11,,,,56,0
42908,note_on,60,0,13,,,,,,,,,12,,,,56,0
42912,note_on,60,0,14,,,,,,,,,13,,,,44,0
42914,note_on,60,0,15,,,,,,,,,14,,,,32,0
42960,note_on,60,0,11,,,,,,,,,10,,,,60,112
42963,note_on,60,0,12,,,,,,,,,11,,,,60,112
42968,note_on,60,0,13,,,,,,,,,12,,,,60,112
42972,note_on,60,0,14,,,,,,,,,13,,,,48,112
42974,note_on,60,0,15,,,,,,,,,14,,,,36,112
42975,note_on,120,0,10,,,,,,,,,15,,,,48,0
43020,note_on,60,0,11,,,,,,,,,10,,,,60,0
43023,note_on,60,0,12,,,,,,,,,11,,,,60,0
43028,note_on,60,0,13,,,,,,,,,12,,,,60,0
43032,note_on,60,0,14,,,,,,,,,13,,,,48,0
43034,note_on,60,0,15,,,,,,,,,14,,,,36,0
43080,note_on,60,0,11,,,,,,,,,10,,,,63,112
43080,set_tempo,240,1,0,,,,,,288462,,,,,,,,
43083,note_on,60,0,12,,,,,,,,,11,,,,63,112
43087,note_on,240,0,8,,,,,,,,,7,,,,56,0
43088,note_on,60,0,13,,,,,,,,,12,,,,63,112
43092,note_on,60,0,14,,,,,,,,,13,,,,51,112
43093,note_on,240,0,9,,,,,,,,,8,,,,44,0
43094,note_on,60,0,15,,,,,,,,,14,,,,39,112
43140,note_on,60,0,11,,,,,,,,,10,,,,63,0
43143,note_on,60,0,12,,,,,,,,,11,,,,63,0
43148,note_on,60,0,13,,,,,,,,,12,,,,63,0
43152,note_on,60,0,14,,,,,,,,,13,,,,51,0
43154,note_on,60,0,15,,,,,,,,,14,,,,39,0
43191,note_on,350,0,1,,,,,,,,,0,,,,80,0
43191,note_on,0,0,1,,,,,,,,,0,,,,84,0
43192,note_on,350,0,7,,,,,,,,,6,,,,72,0
43193,note_on,350,0,5,,,,,,,,,4,,,,60,0
43194,note_on,350,0,2,,,,,,,,,1,,,,75,0
43194,note_on,0,0,2,,,,,,,,,1,,,,72,0
43194,note_on,350,0,6,,,,,,,,,5,,,,60,0
43195,note_on,350,0,3,,,,,,,,,2,,,,75,0
43195,note_on,0,0,3,,,,,,,,,2,,,,68,0
43199,note_on,0,0,4,,,,,,,,,3,,,,63,0
43199,note_on,350,0,4,,,,,,,,,3,,,,56,0
43200,set_tempo,120,1,0,,,,,,258621,,,,,,,,
43200,note_on,60,0,11,,,,,,,,,10,,,,68,112
43201,note_on,0,0,1,,,,,,,,,0,,,,80,101
43201,note_on,10,0,1,,,,,,,,,0,,,,84,101
43202,note_on,10,0,7,,,,,,,,,6,,,,72,112
43203,note_on,60,0,12,,,,,,,,,11,,,,68,112
43203,note_on,10,0,5,,,,,,,,,4,,,,60,115
43204,note_on,0,0,2,,,,,,,,,1,,,,72,100
43204,note_on,10,0,2,,,,,,,,,1,,,,75,100
43204,note_on,10,0,6,,,,,,,,,5,,,,60,115
43205,note_on,10,0,3,,,,,,,,,2,,,,68,101
43205,note_on,0,0,3,,,,,,,,,2,,,,75,101
43207,note_on,120,0,8,,,,,,,,,7,,,,60,110
43208,note_on,60,0,13,,,,,,,,,12,,,,68,112
43209,note_on,10,0,4,,,,,,,,,3,,,,63,100
43209,note_on,0,0,4,,,,,,,,,3,,,,56,100
43212,note_on,60,0,14,,,,,,,,,13,,,,56,112
43213,note_on,120,0,9,,,,,,,,,8,,,,48,110
43214,note_on,60,0,15,,,,,,,,,14,,,,44,112
43215,note_on,240,0,10,,,,,,,,,15,,,,48,100
43260,note_on,60,0,11,,,,,,,,,10,,,,68,0
43263,note_on,60,0,12,,,,,,,,,11,,,,68,0
43268,note_on,60,0,13,,,,,,,,,12,,,,68,0
43272,note_on,60,0,14,,,,,,,,,13,,,,56,0
43274,note_on,60,0,15,,,,,,,,,14,,,,44,0
43320,note_on,60,0,11,,,,,,,,,10,,,,70,112
43323,note_on,60,0,12,,,,,,,,,11,,,,70,112
43328,note_on,60,0,13,,,,,,,,,12,,,,70,112
43332,note_on,60,0,14,,,,,,,,,13,,,,58,112
43334,note_on,60,0,15,,,,,,,,,14,,,,46,112
43335,note_on,120,0,10,,,,,,,,,15,,,,48,0
43380,note_on,60,0,11,,,,,,,,,10,,,,70,0
43383,note_on,60,0,12,,,,,,,,,11,,,,70,0
43388,note_on,60,0,13,,,,,,,,,12,,,,70,0
43392,note_on,60,0,14,,,,,,,,,13,,,,58,0
43394,note_on,60,0,15,,,,,,,,,14,,,,46,0
43440,note_on,60,0,11,,,,,,,,,10,,,,72,112
43440,set_tempo,240,1,0,,,,,,288462,,,,,,,,
43443,note_on,60,0,12,,,,,,,,,11,,,,72,112
43447,note_on,240,0,8,,,,,,,,,7,,,,60,0
43448,note_on,60,0,13,,,,,,,,,12,,,,72,112
43452,note_on,60,0,14,,,,,,,,,13,,,,60,112
43453,note_on,240,0,9,,,,,,,,,8,,,,48,0
43454,note_on,60,0,15,,,,,,,,,14,,,,48,112
43500,note_on,60,0,11,,,,,,,,,10,,,,72,0
43503,note_on,60,0,12,,,,,,,,,11,,,,72,0
43508,note_on,60,0,13,,,,,,,,,12,,,,72,0
43512,note_on,60,0,14,,,,,,,,,13,,,,60,0
43514,note_on,60,0,15,,,,,,,,,14,,,,48,0
43551,note_on,0,0,1,,,,,,,,,0,,,,84,0
43551,note_on,350,0,1,,,,,,,,,0,,,,80,0
43552,note_on,350,0,7,,,,,,,,,6,,,,72,0
43553,note_on,350,0,5,,,,,,,,,4,,,,60,0
43554,note_on,350,0,6,,,,,,,,,5,,,,60,0
43554,note_on,0,0,2,,,,,,,,,1,,,,75,0
43554,note_on,350,0,2,,,,,,,,,1,,,,72,0
43555,note_on,0,0,3,,,,,,,,,2,,,,68,0
43555,note_on,350,0,3,,,,,,,,,2,,,,75,0
43559,note_on,0,0,4,,,,,,,,,3,,,,63,0
43559,note_on,350,0,4,,,,,,,,,3,,,,56,0
43560,note_on,60,0,11,,,,,,,,,10,,,,63,112
43560,control_change,0,0,11,,,,,,,,,10,11,122,,,
43560,set_tempo,120,1,0,,,,,,254237,,,,,,,,
43561,note_on,10,0,1,,,,,,,,,0,,,,82,101
43561,note_on,0,0,1,,,,,,,,,0,,,,85,101
43562,control_change,10,0,7,,,,,,,,,6,11,102,,,
43562,note_on,0,0,7,,,,,,,,,6,,,,67,112
43563,note_on,60,0,12,,,,,,,,,11,,,,63,112
43563,note_on,0,0,5,,,,,,,,,4,,,,55,100
43563,control_change,10,0,5,,,,,,,,,4,11,102,,,
43563,control_change,0,0,12,,,,,,,,,11,11,122,,,
43564,note_on,0,0,6,,,,,,,,,5,,,,55,100
43564,control_change,10,0,6,,,,,,,,,5,11,102,,,
43564,note_on,10,0,2,,,,,,,,,1,,,,70,100
43564,note_on,0,0,2,,,,,,,,,1,,,,73,100
43565,note_on,0,0,3,,,,,,,,,2,,,,73,101
43565,note_on,10,0,3,,,,,,,,,2,,,,70,101
43567,note_on,0,0,8,,,,,,,,,7,,,,63,125
43567,note_on,0,0,8,,,,,,,,,7,,,,51,125
43567,control_change,120,0,8,,,,,,,,,7,11,102,,,
43568,note_on,60,0,13,,,,,,,,,12,,,,63,112
43568,control_change,0,0,13,,,,,,,,,12,11,122,,,
43568,note_on,0,0,13,,,,,,,,,12,,,,67,112
43569,note_on,0,0,4,,,,,,,,,3,,,,67,115
43569,note_on,0,0,4,,,,,,,,,3,,,,63,115
43569,control_change,9,0,11,,,,,,,,,10,11,119,,,
43569,control_change,10,0,4,,,,,,,,,3,11,97,,,
43572,control_change,9,0,12,,,,,,,,,11,11,119,,,
43572,control_change,60,0,14,,,,,,,,,13,11,122,,,
43572,note_on,0,0,14,,,,,,,,,13,,,,51,112
43573,control_change,120,0,9,,,,,,,,,8,11,102,,,
43573,note_on,0,0,9,,,,,,,,,8,,,,51,125
43574,note_on,60,0,15,,,,,,,,,14,,,,39,112
43574,control_change,0,0,15,,,,,,,,,14,11,122,,,
43575,note_on,240,0,10,,,,,,,,,15,,,,43,100
43575,control_change,6,0,4,,,,,,,,,3,11,94,,,
43577,control_change,9,0,13,,,,,,,,,12,11,119,,,
43578,control_change,9,0,11,,,,,,,,,10,11,116,,,
43581,control_change,9,0,14,,,,,,,,,13,11,119,,,
43581,control_change,9,0,12,,,,,,,,,11,11,116,,,
43582,control_change,7,0,4,,,,,,,,,3,11,91,,,
43582,control_change,20,0,7,,,,,,,,,6,11,99,,,
43583,control_change,20,0,5,,,,,,,,,4,11,99,,,
43583,control_change,9,0,15,,,,,,,,,14,11,119,,,
43584,control_change,20,0,6,,,,,,,,,5,11,99,,,
43586,control_change,9,0,13,,,,,,,,,12,11,116,,,
43587,control_change,20,0,8,,,,,,,,,7,11,99,,,
43587,control_change,9,0,11,,,,,,,,,10,11,113,,,
43588,control_change,6,0,4,,,,,,,,,3,11,88,,,
43590,control_change,9,0,14,,,,,,,,,13,11,116,,,
43590,control_change,9,0,12,,,,,,,,,11,11,113,,,
43592,control_change,9,0,15,,,,,,,,,14,11,116,,,
43593,control_change,20,0,9,,,,,,,,,8,11,99,,,
43594,note_on,0,0,2,,,,,,,,,1,,,,70,0
43594,note_on,30,0,2,,,,,,,,,1,,,,73,0
43595,note_on,0,0,3,,,,,,,,,2,,,,70,0
43595,note_on,30,0,3,,,,,,,,,2,,,,73,0
43595,control_change,9,0,13,,,,,,,,,12,11,113,,,
43595,control_change,7,0,4,,,,,,,,,3,11,85,,,
43596,control_change,9,0,11,,,,,,,,,10,11,110,,,
43599,control_change,9,0,14,,,,,,,,,13,11,113,,,
43599,control_change,9,0,12,,,,,,,,,11,11,110,,,
43601,control_change,6,0,4,,,,,,,,,3,11,82,,,
43601,control_change,9,0,15,,,,,,,,,14,11,113,,,
43603,control_change,21,0,7,,,,,,,,,6,11,96,,,
43604,control_change,21,0,5,,,,,,,,,4,11,96,,,
43604,control_change,9,0,13,,,,,,,,,12,11,110,,,
43605,control_change,21,0,6,,,,,,,,,5,11,96,,,
43605,control_change,9,0,11,,,,,,,,,10,11,107,,,
43608,control_change,21,0,8,,,,,,,,,7,11,96,,,
43608,control_change,9,0,12,,,,,,,,,11,11,107,,,
43608,control_change,7,0,4,,,,,,,,,3,11,79,,,
43608,control_change,9,0,14,,,,,,,,,13,11,110,,,
43610,control_change,9,0,15,,,,,,,,,14,11,110,,,
43613,control_change,9,0,13,,,,,,,,,12,11,107,,,
43614,control_change,21,0,9,,,,,,,,,8,11,96,,,
43614,control_change,6,0,4,,,,,,,,,3,11,76,,,
43614,control_change,9,0,11,,,,,,,,,10,11,104,,,
43617,control_change,9,0,12,,,,,,,,,11,11,104,,,
43617,control_change,9,0,14,,,,,,,,,13,11,107,,,
43619,control_change,9,0,15,,,,,,,,,14,11,107,,,
43621,control_change,7,0,4,,,,,,,,,3,11,73,,,
43622,control_change,9,0,13,,,,,,,,,12,11,104,,,
43623,control_change,20,0,7,,,,,,,,,6,11,93,,,
43624,control_change,20,0,5,,,,,,,,,4,11,93,,,
43624,note_on,30,0,2,,,,,,,,,1,,,,73,100
43624,note_on,0,0,2,,,,,,,,,1,,,,70,100
43625,control_change,20,0,6,,,,,,,,,5,11,93,,,
43625,note_on,0,0,3,,,,,,,,,2,,,,73,101
43625,note_on,30,0,3,,,,,,,,,2,,,,70,101
43626,control_change,9,0,14,,,,,,,,,13,11,104,,,
43627,control_change,6,0,4,,,,,,,,,3,11,70,,,
43628,control_change,9,0,15,,,,,,,,,14,11,104,,,
43628,control_change,20,0,8,,,,,,,,,7,11,93,,,
43634,control_change,20,0,9,,,,,,,,,8,11,93,,,
43634,control_change,7,0,4,,,,,,,,,3,11,67,,,
43641,control_change,7,0,4,,,,,,,,,3,11,64,,,
43644,control_change,21,0,7,,,,,,,,,6,11,90,,,
43645,control_change,21,0,5,,,,,,,,,4,11,90,,,
43646,control_change,21,0,6,,,,,,,,,5,11,90,,,
43647,control_change,6,0,4,,,,,,,,,3,11,61,,,
43649,control_change,21,0,8,,,,,,,,,7,11,90,,,
43654,note_on,30,0,2,,,,,,,,,1,,,,70,0
43654,note_on,0,0,2,,,,,,,,,1,,,,73,0
43654,control_change,7,0,4,,,,,,,,,3,11,58,,,
43655,note_on,0,0,3,,,,,,,,,2,,,,70,0
43655,note_on,30,0,3,,,,,,,,,2,,,,73,0
43655,control_change,21,0,9,,,,,,,,,8,11,90,,,
43660,control_change,6,0,4,,,,,,,,,3,11,55,,,
43664,control_change,20,0,7,,,,,,,,,6,11,87,,,
43665,control_change,20,0,5,,,,,,,,,4,11,87,,,
43666,control_change,20,0,6,,,,,,,,,5,11,87,,,
43667,control_change,7,0,4,,,,,,,,,3,11,52,,,
43669,control_change,20,0,8,,,,,,,,,7,11,87,,,
43673,control_change,6,0,4,,,,,,,,,3,11,49,,,
43675,control_change,20,0,9,,,,,,,,,8,11,87,,,
43680,set_tempo,120,1,0,,,,,,263158,,,,,,,,
43680,control_change,66,0,11,,,,,,,,,10,11,83,,,
43683,control_change,66,0,12,,,,,,,,,11,11,83,,,
43684,control_change,0,0,2,,,,,,,,,1,11,47,,,
43684,note_on,30,0,2,,,,,,,,,1,,,,75,100
43684,note_on,0,0,2,,,,,,,,,1,,,,72,100
43685,control_change,21,0,7,,,,,,,,,6,11,84,,,
43685,control_change,0,0,3,,,,,,,,,2,11,47,,,
43685,note_on,0,0,3,,,,,,,,,2,,,,72,101
43685,note_on,30,0,3,,,,,,,,,2,,,,75,101
43686,control_change,21,0,5,,,,,,,,,4,11,84,,,
43687,control_change,21,0,6,,,,,,,,,5,11,84,,,
43688,control_change,66,0,13,,,,,,,,,12,11,83,,,
43689,control_change,16,0,4,,,,,,,,,3,11,47,,,
43690,control_change,21,0,8,,,,,,,,,7,11,84,,,
43692,control_change,66,0,14,,,,,,,,,13,11,83,,,
43694,control_change,66,0,15,,,,,,,,,14,11,83,,,
43695,note_on,120,0,10,,,,,,,,,15,,,,43,0
43696,control_change,21,0,9,,,,,,,,,8,11,84,,,
43703,control_change,23,0,11,,,,,,,,,10,11,81,,,
43706,control_change,21,0,7,,,,,,,,,6,11,81,,,
43706,control_change,23,0,12,,,,,,,,,11,11,81,,,
43707,control_change,21,0,5,,,,,,,,,4,11,81,,,
43708,control_change,21,0,6,,,,,,,,,5,11,81,,,
43711,control_change,23,0,13,,,,,,,,,12,11,81,,,
43711,control_change,21,0,8,,,,,,,,,7,11,81,,,
43715,control_change,23,0,14,,,,,,,,,13,11,81,,,
43717,control_change,23,0,15,,,,,,,,,14,11,81,,,
43717,control_change,21,0,9,,,,,,,,,8,11,81,,,
43726,control_change,20,0,7,,,,,,,,,6,11,78,,,
43727,control_change,20,0,5,,,,,,,,,4,11,78,,,
43727,control_change,24,0,11,,,,,,,,,10,11,79,,,
43728,control_change,20,0,6,,,,,,,,,5,11,78,,,
43730,control_change,24,0,12,,,,,,,,,11,11,79,,,
43731,control_change,20,0,8,,,,,,,,,7,11,78,,,
43735,control_change,24,0,13,,,,,,,,,12,11,79,,,
43737,control_change,20,0,9,,,,,,,,,8,11,78,,,
43739,control_change,24,0,14,,,,,,,,,13,11,79,,,
43741,control_change,24,0,15,,,,,,,,,14,11,79,,,
43744,note_on,0,0,2,,,,,,,,,1,,,,73,100
43744,note_on,0,0,2,,,,,,,,,1,,,,70,100
43744,note_on,0,0,2,,,,,,,,,1,,,,75,0
43744,note_on,60,0,2,,,,,,,,,1,,,,72,0
43745,note_on,0,0,3,,,,,,,,,2,,,,75,0
43745,note_on,0,0,3,,,,,,,,,2,,,,73,101
43745,note_on,60,0,3,,,,,,,,,2,,,,72,0
43745,note_on,0,0,3,,,,,,,,,2,,,,70,101
43747,control_change,21,0,7,,,,,,,,,6,11,75,,,
43748,control_change,21,0,5,,,,,,,,,4,11,75,,,
43749,control_change,21,0,6,,,,,,,,,5,11,75,,,
43751,control_change,24,0,11,,,,,,,,,10,11,77,,,
43752,control_change,21,0,8,,,,,,,,,7,11,75,,,
43754,control_change,24,0,12,,,,,,,,,11,11,77,,,
43758,control_change,21,0,9,,,,,,,,,8,11,75,,,
43759,control_change,24,0,13,,,,,,,,,12,11,77,,,
43763,control_change,24,0,14,,,,,,,,,13,11,77,,,
43765,control_change,24,0,15,,,,,,,,,14,11,77,,,
43767,control_change,20,0,7,,,,,,,,,6,11,72,,,
43768,control_change,20,0,5,,,,,,,,,4,11,72,,,
43769,control_change,20,0,6,,,,,,,,,5,11,72,,,
43772,control_change,20,0,8,,,,,,,,,7,11,72,,,
43775,control_change,24,0,11,,,,,,,,,10,11,75,,,
43778,control_change,20,0,9,,,,,,,,,8,11,72,,,
43778,control_change,24,0,12,,,,,,,,,11,11,75,,,
43783,control_change,24,0,13,,,,,,,,,12,11,75,,,
43787,control_change,24,0,14,,,,,,,,,13,11,75,,,
43788,control_change,21,0,7,,,,,,,,,6,11,69,,,
43789,control_change,21,0,5,,,,,,,,,4,11,69,,,
43789,control_change,24,0,15,,,,,,,,,14,11,75,,,
43790,control_change,21,0,6,,,,,,,,,5,11,69,,,
43793,control_change,21,0,8,,,,,,,,,7,11,69,,,
43799,control_change,24,0,11,,,,,,,,,10,11,73,,,
43799,control_change,21,0,9,,,,,,,,,8,11,69,,,
43800,note_on,1,0,11,,,,,,,,,10,,,,63,0
43800,set_tempo,120,1,0,,,,,,288462,,,,,,,,
43801,note_on,0,0,1,,,,,,,,,0,,,,82,0
43801,note_on,240,0,1,,,,,,,,,0,,,,85,0
43802,note_on,14,0,7,,,,,,,,,6,,,,67,0
43802,control_change,24,0,12,,,,,,,,,11,11,73,,,
43803,note_on,1,0,12,,,,,,,,,11,,,,63,0
43803,note_on,14,0,5,,,,,,,,,4,,,,55,0
43804,note_on,60,0,2,,,,,,,,,1,,,,73,0
43804,note_on,14,0,6,,,,,,,,,5,,,,55,0
43804,note_on,0,0,2,,,,,,,,,1,,,,72,100
43804,note_on,0,0,2,,,,,,,,,1,,,,75,100
43804,note_on,0,0,2,,,,,,,,,1,,,,70,0
43805,note_on,60,0,3,,,,,,,,,2,,,,70,0
43805,note_on,0,0,3,,,,,,,,,2,,,,73,0
43805,note_on,0,0,3,,,,,,,,,2,,,,75,101
43805,note_on,0,0,3,,,,,,,,,2,,,,72,101
43807,note_on,0,0,8,,,,,,,,,7,,,,51,0
43807,control_change,24,0,13,,,,,,,,,12,11,73,,,
43807,note_on,14,0,8,,,,,,,,,7,,,,63,0
43808,note_on,0,0,13,,,,,,,,,12,,,,63,0
43808,note_on,1,0,13,,,,,,,,,12,,,,67,0
43811,control_change,24,0,14,,,,,,,,,13,11,73,,,
43812,note_on,1,0,14,,,,,,,,,13,,,,51,0
43813,control_change,24,0,15,,,,,,,,,14,11,73,,,
43813,note_on,14,0,9,,,,,,,,,8,,,,51,0
43814,note_on,1,0,15,,,,,,,,,14,,,,39,0
43864,note_on,0,0,2,,,,,,,,,1,,,,70,100
43864,note_on,0,0,2,,,,,,,,,1,,,,73,100
43864,note_on,60,0,2,,,,,,,,,1,,,,72,0
43864,note_on,0,0,2,,,,,,,,,1,,,,75,0
43865,note_on,0,0,3,,,,,,,,,2,,,,73,101
43865,note_on,0,0,3,,,,,,,,,2,,,,75,0
43865,note_on,60,0,3,,,,,,,,,2,,,,72,0
43865,note_on,0,0,3,,,,,,,,,2,,,,70,101
43920,set_tempo,120,1,0,,,,,,254237,,,,,,,,
43924,note_on,0,0,2,,,,,,,,,1,,,,73,100
43924,note_on,0,0,2,,,,,,,,,1,,,,70,0
43924,note_on,60,0,2,,,,,,,,,1,,,,73,0
43924,note_on,0,0,2,,,,,,,,,1,,,,77,100
43925,note_on,60,0,3,,,,,,,,,2,,,,70,0
43925,note_on,0,0,3,,,,,,,,,2,,,,73,0
43925,note_on,0,0,3,,,,,,,,,2,,,,77,101
43925,note_on,0,0,3,,,,,,,,,2,,,,73,101
43927,program_change,119,0,13,,,,,,,,48,12,,,,,
43928,note_on,1,0,13,,,,,,,,,12,,,,63,112
43928,control_change,0,0,13,,,,,,,,,12,11,41,,,
43928,note_on,0,0,13,,,,,,,,,12,,,,67,112
43929,note_on,240,0,4,,,,,,,,,3,,,,67,0
43929,note_on,0,0,4,,,,,,,,,3,,,,63,0
43929,note_on,0,0,4,,,,,,,,,3,,,,63,100
43929,note_on,0,0,4,,,,,,,,,3,,,,67,100
43988,note_on,60,0,13,,,,,,,,,12,,,,67,0
43988,note_on,0,0,13,,,,,,,,,12,,,,63,0
44040,set_tempo,120,1,0,,,,,,263158,,,,,,,,
44044,note_on,0,0,2,,,,,,,,,1,,,,73,100
44044,note_on,0,0,2,,,,,,,,,1,,,,77,100
44044,note_on,0,0,2,,,,,,,,,1,,,,73,0
44044,note_on,120,0,2,,,,,,,,,1,,,,77,0
44045,note_on,0,0,3,,,,,,,,,2,,,,77,101
44045,note_on,0,0,3,,,,,,,,,2,,,,73,101
44045,note_on,0,0,3,,,,,,,,,2,,,,77,0
44045,note_on,120,0,3,,,,,,,,,2,,,,73,0
44048,note_on,0,0,13,,,,,,,,,12,,,,63,112
44048,note_on,60,0,13,,,,,,,,,12,,,,67,112
44049,note_on,120,0,4,,,,,,,,,3,,,,67,0
44049,note_on,0,0,4,,,,,,,,,3,,,,63,0
44049,note_on,0,0,4,,,,,,,,,3,,,,63,100
44049,note_on,0,0,4,,,,,,,,,3,,,,67,100
44108,note_on,0,0,13,,,,,,,,,12,,,,67,0
44108,note_on,60,0,13,,,,,,,,,12,,,,63,0
44160,set_tempo,120,1,0,,,,,,288462,,,,,,,,
44164,note_on,0,0,2,,,,,,,,,1,,,,73,0
44164,note_on,0,0,2,,,,,,,,,1,,,,73,100
44164,note_on,0,0,2,,,,,,,,,1,,,,77,100
44164,note_on,120,0,2,,,,,,,,,1,,,,77,0
44165,note_on,120,0,3,,,,,,,,,2,,,,77,0
44165,note_on,0,0,3,,,,,,,,,2,,,,73,0
44165,note_on,0,0,3,,,,,,,,,2,,,,73,101
44165,note_on,0,0,3,,,,,,,,,2,,,,77,101
44168,note_on,60,0,13,,,,,,,,,12,,,,67,112
44168,note_on,0,0,13,,,,,,,,,12,,,,63,112
44169,note_on,0,0,4,,,,,,,,,3,,,,67,100
44169,note_on,0,0,4,,,,,,,,,3,,,,63,100
44169,note_on,0,0,4,,,,,,,,,3,,,,63,0
44169,note_on,120,0,4,,,,,,,,,3,,,,67,0
44194,note_on,0,0,2,,,,,,,,,1,,,,82,100
44194,note_on,30,0,2,,,,,,,,,1,,,,77,0
44195,note_on,30,0,3,,,,,,,,,2,,,,77,0
44195,note_on,0,0,3,,,,,,,,,2,,,,82,101
44228,note_on,60,0,13,,,,,,,,,12,,,,63,0
44228,note_on,0,0,13,,,,,,,,,12,,,,67,0
44254,note_on,60,0,2,,,,,,,,,1,,,,82,0
44255,note_on,60,0,3,,,,,,,,,2,,,,82,0
44280,set_tempo,120,1,0,,,,,,254237,,,,,,,,
44284,note_on,30,0,2,,,,,,,,,1,,,,73,0
44284,note_on,0,0,2,,,,,,,,,1,,,,73,115
44284,note_on,0,0,2,,,,,,,,,1,,,,82,115
44285,note_on,0,0,3,,,,,,,,,2,,,,73,116
44285,note_on,0,0,3,,,,,,,,,2,,,,82,116
44285,note_on,30,0,3,,,,,,,,,2,,,,73,0
44288,note_on,60,0,13,,,,,,,,,12,,,,63,127
44288,note_on,0,0,13,,,,,,,,,12,,,,67,127
44289,note_on,120,0,4,,,,,,,,,3,,,,67,0
44289,note_on,0,0,4,,,,,,,,,3,,,,63,0
44289,note_on,0,0,4,,,,,,,,,3,,,,63,115
44289,note_on,0,0,4,,,,,,,,,3,,,,67,115
44400,set_tempo,120,1,0,,,,,,263158,,,,,,,,
44404,note_on,120,0,2,,,,,,,,,1,,,,82,0
44404,note_on,0,0,2,,,,,,,,,1,,,,73,0
44404,note_on,0,0,2,,,,,,,,,1,,,,80,100
44404,note_on,0,0,2,,,,,,,,,1,,,,72,100
44405,note_on,120,0,3,,,,,,,,,2,,,,73,0
44405,note_on,0,0,3,,,,,,,,,2,,,,72,101
44405,note_on,0,0,3,,,,,,,,,2,,,,82,0
44405,note_on,0,0,3,,,,,,,,,2,,,,80,101
44408,note_on,0,0,13,,,,,,,,,12,,,,68,112
44408,note_on,120,0,13,,,,,,,,,12,,,,67,0
44409,note_on,0,0,4,,,,,,,,,3,,,,68,100
44409,note_on,120,0,4,,,,,,,,,3,,,,67,0
44520,set_tempo,120,1,0,,,,,,288462,,,,,,,,
44524,note_on,0,0,2,,,,,,,,,1,,,,75,100
44524,note_on,0,0,2,,,,,,,,,1,,,,80,0
44524,note_on,120,0,2,,,,,,,,,1,,,,72,0
44524,note_on,0,0,2,,,,,,,,,1,,,,72,100
44525,note_on,0,0,3,,,,,,,,,2,,,,72,0
44525,note_on,0,0,3,,,,,,,,,2,,,,72,101
44525,note_on,0,0,3,,,,,,,,,2,,,,75,101
44525,note_on,120,0,3,,,,,,,,,2,,,,80,0
44528,note_on,120,0,13,,,,,,,,,12,,,,68,0
44528,note_on,0,0,13,,,,,,,,,12,,,,68,112
44528,note_on,0,0,13,,,,,,,,,12,,,,63,0
44528,note_on,0,0,13,,,,,,,,,12,,,,63,112
44529,note_on,120,0,4,,,,,,,,,3,,,,68,0
44529,note_on,0,0,4,,,,,,,,,3,,,,63,0
44529,note_on,0,0,4,,,,,,,,,3,,,,68,100
44529,note_on,0,0,4,,,,,,,,,3,,,,63,100
44588,note_on,60,0,13,,,,,,,,,12,,,,68,0
44640,set_tempo,120,1,0,,,,,,254237,,,,,,,,
44644,note_on,120,0,2,,,,,,,,,1,,,,72,0
44644,note_on,0,0,2,,,,,,,,,1,,,,75,0
44644,note_on,0,0,2,,,,,,,,,1,,,,72,100
44644,note_on,0,0,2,,,,,,,,,1,,,,75,100
44645,note_on,0,0,3,,,,,,,,,2,,,,72,101
44645,note_on,0,0,3,,,,,,,,,2,,,,75,101
44645,note_on,0,0,3,,,,,,,,,2,,,,72,0
44645,note_on,120,0,3,,,,,,,,,2,,,,75,0
44648,note_on,60,0,13,,,,,,,,,12,,,,63,0
44648,note_on,0,0,13,,,,,,,,,12,,,,67,112
44648,note_on,0,0,13,,,,,,,,,12,,,,63,112
44649,note_on,0,0,4,,,,,,,,,3,,,,63,100
44649,note_on,0,0,4,,,,,,,,,3,,,,67,100
44649,note_on,120,0,4,,,,,,,,,3,,,,63,0
44649,note_on,0,0,4,,,,,,,,,3,,,,68,0
44704,note_on,60,0,2,,,,,,,,,1,,,,75,0
44704,note_on,0,0,2,,,,,,,,,1,,,,72,0
44705,note_on,60,0,3,,,,,,,,,2,,,,72,0
44705,note_on,0,0,3,,,,,,,,,2,,,,75,0
44708,note_on,60,0,13,,,,,,,,,12,,,,63,0
44708,note_on,0,0,13,,,,,,,,,12,,,,67,0
44709,note_on,0,0,4,,,,,,,,,3,,,,63,0
44709,note_on,60,0,4,,,,,,,,,3,,,,67,0
44760,set_tempo,120,1,0,,,,,,263158,,,,,,,,
44764,note_on,60,0,2,,,,,,,,,1,,,,73,100
44764,note_on,0,0,2,,,,,,,,,1,,,,70,100
44765,note_on,0,0,3,,,,,,,,,2,,,,73,101
44765,note_on,60,0,3,,,,,,,,,2,,,,70,101
44768,note_on,0,0,13,,,,,,,,,12,,,,67,112
44768,note_on,60,0,13,,,,,,,,,12,,,,63,112
44769,note_on,0,0,4,,,,,,,,,3,,,,67,100
44769,note_on,60,0,4,,,,,,,,,3,,,,63,100
44824,note_on,0,0,2,,,,,,,,,1,,,,75,100
44824,note_on,60,0,2,,,,,,,,,1,,,,73,0
44825,note_on,0,0,3,,,,,,,,,2,,,,75,101
44825,note_on,60,0,3,,,,,,,,,2,,,,73,0
44828,note_on,60,0,13,,,,,,,,,12,,,,67,0
44828,note_on,0,0,13,,,,,,,,,12,,,,63,0
44880,set_tempo,120,1,0,,,,,,288462,,,,,,,,
44884,note_on,0,0,2,,,,,,,,,1,,,,70,0
44884,note_on,0,0,2,,,,,,,,,1,,,,70,100
44884,note_on,0,0,2,,,,,,,,,1,,,,77,100
44884,note_on,60,0,2,,,,,,,,,1,,,,75,0
44885,note_on,0,0,3,,,,,,,,,2,,,,70,101
44885,note_on,0,0,3,,,,,,,,,2,,,,77,101
44885,note_on,60,0,3,,,,,,,,,2,,,,75,0
44885,note_on,0,0,3,,,,,,,,,2,,,,70,0
44888,note_on,60,0,13,,,,,,,,,12,,,,63,112
44888,note_on,0,0,13,,,,,,,,,12,,,,67,112
44889,note_on,120,0,4,,,,,,,,,3,,,,67,0
44889,note_on,0,0,4,,,,,,,,,3,,,,63,0
44889,note_on,0,0,4,,,,,,,,,3,,,,63,100
44889,note_on,0,0,4,,,,,,,,,3,,,,67,100
44944,note_on,60,0,2,,,,,,,,,1,,,,77,0
44944,note_on,0,0,2,,,,,,,,,1,,,,75,100
44945,note_on,0,0,3,,,,,,,,,2,,,,75,101
44945,note_on,60,0,3,,,,,,,,,2,,,,77,0
44948,note_on,60,0,13,,,,,,,,,12,,,,67,0
44948,note_on,0,0,13,,,,,,,,,12,,,,63,0
45000,note_on,0,0,11,,,,,,,,,10,,,,56,112
45000,control_change,1200,0,11,,,,,,,,,10,11,50,,,
45000,set_tempo,120,1,0,,,,,,254237,,,,,,,,
45003,control_change,1200,0,12,,,,,,,,,11,11,50,,,
45003,note_on,0,0,12,,,,,,,,,11,,,,56,112
45004,note_on,0,0,2,,,,,,,,,1,,,,70,0
45004,note_on,0,0,2,,,,,,,,,1,,,,72,100
45004,note_on,0,0,2,,,,,,,,,1,,,,68,100
45004,note_on,60,0,2,,,,,,,,,1,,,,75,0
45005,note_on,0,0,3,,,,,,,,,2,,,,72,101
45005,note_on,0,0,3,,,,,,,,,2,,,,68,101
45005,note_on,0,0,3,,,,,,,,,2,,,,70,0
45005,note_on,60,0,3,,,,,,,,,2,,,,75,0
45007,program_change,59,0,13,,,,,,,,50,12,,,,,
45008,note_on,1,0,13,,,,,,,,,12,,,,56,112
45009,note_on,0,0,4,,,,,,,,,3,,,,63,0
45009,note_on,0,0,4,,,,,,,,,3,,,,68,100
45009,note_on,0,0,4,,,,,,,,,3,,,,63,100
45009,note_on,120,0,4,,,,,,,,,3,,,,67,0
45014,control_change,0,0,15,,,,,,,,,14,11,50,,,
45014,note_on,1200,0,15,,,,,,,,,14,,,,32,112
45030,note_on,30,0,11,,,,,,,,,10,,,,56,0
45033,note_on,30,0,12,,,,,,,,,11,,,,56,0
45038,note_on,30,0,13,,,,,,,,,12,,,,56,0
45044,note_on,30,0,15,,,,,,,,,14,,,,32,0
45060,note_on,30,0,11,,,,,,,,,10,,,,56,112
45063,note_on,30,0,12,,,,,,,,,11,,,,56,112
45068,note_on,30,0,13,,,,,,,,,12,,,,56,112
45074,note_on,30,0,15,,,,,,,,,14,,,,32,112
45090,note_on,30,0,11,,,,,,,,,10,,,,56,0
45093,note_on,30,0,12,,,,,,,,,11,,,,56,0
45098,note_on,30,0,13,,,,,,,,,12,,,,56,0
45104,note_on,30,0,15,,,,,,,,,14,,,,32,0
45120,note_on,30,0,11,,,,,,,,,10,,,,58,112
45120,set_tempo,120,1,0,,,,,,263158,,,,,,,,
45123,note_on,30,0,12,,,,,,,,,11,,,,58,112
45124,note_on,0,0,2,,,,,,,,,1,,,,72,0
45124,note_on,120,0,2,,,,,,,,,1,,,,68,0
45125,note_on,120,0,3,,,,,,,,,2,,,,72,0
45125,note_on,0,0,3,,,,,,,,,2,,,,68,0
45128,note_on,30,0,13,,,,,,,,,12,,,,58,112
45129,note_on,120,0,4,,,,,,,,,3,,,,63,0
45129,note_on,0,0,4,,,,,,,,,3,,,,68,0
45134,note_on,30,0,15,,,,,,,,,14,,,,34,112
45150,note_on,30,0,11,,,,,,,,,10,,,,58,0
45153,note_on,30,0,12,,,,,,,,,11,,,,58,0
45158,note_on,30,0,13,,,,,,,,,12,,,,58,0
45164,note_on,30,0,15,,,,,,,,,14,,,,34,0
45180,note_on,30,0,11,,,,,,,,,10,,,,56,112
45183,note_on,30,0,12,,,,,,,,,11,,,,56,112
45188,note_on,30,0,13,,,,,,,,,12,,,,56,112
45194,note_on,30,0,15,,,,,,,,,14,,,,32,112
45210,note_on,30,0,11,,,,,,,,,10,,,,56,0
45213,note_on,30,0,12,,,,,,,,,11,,,,56,0
45218,note_on,30,0,13,,,,,,,,,12,,,,56,0
45224,note_on,30,0,15,,,,,,,,,14,,,,32,0
45240,note_on,30,0,11,,,,,,,,,10,,,,58,112
45240,set_tempo,120,1,0,,,,,,288462,,,,,,,,
45243,note_on,30,0,12,,,,,,,,,11,,,,58,112
45248,note_on,30,0,13,,,,,,,,,12,,,,58,112
45254,note_on,30,0,15,,,,,,,,,14,,,,34,112
45270,note_on,30,0,11,,,,,,,,,10,,,,58,0
45273,note_on,30,0,12,,,,,,,,,11,,,,58,0
45278,note_on,30,0,13,,,,,,,,,12,,,,58,0
45284,note_on,30,0,15,,,,,,,,,14,,,,34,0
45300,note_on,30,0,11,,,,,,,,,10,,,,56,112
45303,note_on,30,0,12,,,,,,,,,11,,,,56,112
45308,note_on,30,0,13,,,,,,,,,12,,,,56,112
45314,note_on,30,0,15,,,,,,,,,14,,,,32,112
45330,note_on,30,0,11,,,,,,,,,10,,,,56,0
45333,note_on,30,0,12,,,,,,,,,11,,,,56,0
45338,note_on,30,0,13,,,,,,,,,12,,,,56,0
45344,note_on,30,0,15,,,,,,,,,14,,,,32,0
45360,set_tempo,120,1,0,,,,,,254237,,,,,,,,
45360,note_on,30,0,11,,,,,,,,,10,,,,56,112
45363,note_on,30,0,12,,,,,,,,,11,,,,56,112
45364,note_on,240,0,2,,,,,,,,,1,,,,80,115
45364,note_on,0,0,2,,,,,,,,,1,,,,77,115
45365,note_on,240,0,3,,,,,,,,,2,,,,77,116
45365,note_on,0,0,3,,,,,,,,,2,,,,80,116
45368,note_on,30,0,13,,,,,,,,,12,,,,56,112
45372,control_change,1560,0,14,,,,,,,,,13,11,59,,,
45372,note_on,0,0,14,,,,,,,,,13,,,,49,112
45374,note_on,30,0,15,,,,,,,,,14,,,,32,112
45480,set_tempo,120,1,0,,,,,,263158,,,,,,,,
45480,note_on,120,0,11,,,,,,,,,10,,,,56,0
45483,note_on,120,0,12,,,,,,,,,11,,,,56,0
45484,note_on,0,0,2,,,,,,,,,1,,,,80,0
45484,note_on,120,0,2,,,,,,,,,1,,,,77,0
45484,note_on,0,0,2,,,,,,,,,1,,,,79,100
45484,note_on,0,0,2,,,,,,,,,1,,,,76,100
45485,note_on,120,0,3,,,,,,,,,2,,,,80,0
45485,note_on,0,0,3,,,,,,,,,2,,,,76,101
45485,note_on,0,0,3,,,,,,,,,2,,,,79,101
45485,note_on,0,0,3,,,,,,,,,2,,,,77,0
45488,note_on,120,0,13,,,,,,,,,12,,,,56,0
45494,note_on,120,0,15,,,,,,,,,14,,,,32,0
45544,note_on,0,0,2,,,,,,,,,1,,,,79,0
45544,note_on,0,0,2,,,,,,,,,1,,,,80,100
45544,note_on,60,0,2,,,,,,,,,1,,,,76,0
45544,note_on,0,0,2,,,,,,,,,1,,,,77,100
45545,note_on,0,0,3,,,,,,,,,2,,,,80,101
45545,note_on,0,0,3,,,,,,,,,2,,,,77,101
45545,note_on,0,0,3,,,,,,,,,2,,,,79,0
45545,note_on,60,0,3,,,,,,,,,2,,,,76,0
45600,set_tempo,120,1,0,,,,,,288462,,,,,,,,
45604,note_on,0,0,2,,,,,,,,,1,,,,75,100
45604,note_on,0,0,2,,,,,,,,,1,,,,80,0
45604,note_on,0,0,2,,,,,,,,,1,,,,79,100
45604,note_on,60,0,2,,,,,,,,,1,,,,77,0
45605,note_on,0,0,3,,,,,,,,,2,,,,75,101
45605,note_on,60,0,3,,,,,,,,,2,,,,80,0
45605,note_on,0,0,3,,,,,,,,,2,,,,77,0
45605,note_on,0,0,3,,,,,,,,,2,,,,79,101
45612,note_on,240,0,14,,,,,,,,,13,,,,49,0
45612,note_on,0,0,14,,,,,,,,,13,,,,53,112
45664,note_on,60,0,2,,,,,,,,,1,,,,75,0
45664,note_on,0,0,2,,,,,,,,,1,,,,79,0
45664,note_on,0,0,2,,,,,,,,,1,,,,73,100
45664,note_on,0,0,2,,,,,,,,,1,,,,77,100
45665,note_on,0,0,3,,,,,,,,,2,,,,79,0
45665,note_on,60,0,3,,,,,,,,,2,,,,75,0
45665,note_on,0,0,3,,,,,,,,,2,,,,73,101
45665,note_on,0,0,3,,,,,,,,,2,,,,77,101
45720,set_tempo,120,1,0,,,,,,254237,,,,,,,,
45720,note_on,240,0,11,,,,,,,,,10,,,,56,112
45723,note_on,240,0,12,,,,,,,,,11,,,,56,112
45724,note_on,0,0,2,,,,,,,,,1,,,,72,100
45724,note_on,0,0,2,,,,,,,,,1,,,,75,100
45724,note_on,0,0,2,,,,,,,,,1,,,,73,0
45724,note_on,60,0,2,,,,,,,,,1,,,,77,0
45725,note_on,0,0,3,,,,,,,,,2,,,,77,0
45725,note_on,0,0,3,,,,,,,,,2,,,,75,101
45725,note_on,60,0,3,,,,,,,,,2,,,,73,0
45725,note_on,0,0,3,,,,,,,,,2,,,,72,101
45727,note_on,115,0,14,,,,,,,,,13,,,,53,0
45728,note_on,240,0,13,,,,,,,,,12,,,,56,112
45732,note_on,5,0,14,,,,,,,,,13,,,,56,127
45734,note_on,240,0,15,,,,,,,,,14,,,,32,112
45750,note_on,30,0,11,,,,,,,,,10,,,,56,0
45753,note_on,30,0,12,,,,,,,,,11,,,,56,0
45758,note_on,30,0,13,,,,,,,,,12,,,,56,0
45764,note_on,30,0,15,,,,,,,,,14,,,,32,0
45780,note_on,30,0,11,,,,,,,,,10,,,,56,112
45783,note_on,30,0,12,,,,,,,,,11,,,,56,112
45784,note_on,60,0,2,,,,,,,,,1,,,,72,0
45784,note_on,0,0,2,,,,,,,,,1,,,,75,0
45785,note_on,60,0,3,,,,,,,,,2,,,,72,0
45785,note_on,0,0,3,,,,,,,,,2,,,,75,0
45788,note_on,30,0,13,,,,,,,,,12,,,,56,112
45794,note_on,30,0,15,,,,,,,,,14,,,,32,112
45810,note_on,30,0,11,,,,,,,,,10,,,,56,0
45813,note_on,30,0,12,,,,,,,,,11,,,,56,0
45818,note_on,30,0,13,,,,,,,,,12,,,,56,0
45824,note_on,30,0,15,,,,,,,,,14,,,,32,0
45840,set_tempo,120,1,0,,,,,,263158,,,,,,,,
45840,note_on,30,0,11,,,,,,,,,10,,,,58,112
45843,note_on,30,0,12,,,,,,,,,11,,,,58,112
45844,note_on,60,0,2,,,,,,,,,1,,,,75,100
45844,note_on,0,0,2,,,,,,,,,1,,,,72,100
45845,note_on,0,0,3,,,,,,,,,2,,,,75,101
45845,note_on,60,0,3,,,,,,,,,2,,,,72,101
45848,note_on,30,0,13,,,,,,,,,12,,,,58,112
45854,note_on,30,0,15,,,,,,,,,14,,,,34,112
45870,note_on,30,0,11,,,,,,,,,10,,,,58,0
45873,note_on,30,0,12,,,,,,,,,11,,,,58,0
45878,note_on,30,0,13,,,,,,,,,12,,,,58,0
45884,note_on,30,0,15,,,,,,,,,14,,,,34,0
45900,note_on,30,0,11,,,,,,,,,10,,,,56,112
45903,note_on,30,0,12,,,,,,,,,11,,,,56,112
45904,note_on,0,0,2,,,,,,,,,1,,,,75,0
45904,note_on,60,0,2,,,,,,,,,1,,,,72,0
45905,note_on,0,0,3,,,,,,,,,2,,,,72,0
45905,note_on,60,0,3,,,,,,,,,2,,,,75,0
45908,note_on,30,0,13,,,,,,,,,12,,,,56,112
45914,note_on,30,0,15,,,,,,,,,14,,,,32,112
45930,note_on,30,0,11,,,,,,,,,10,,,,56,0
45933,note_on,30,0,12,,,,,,,,,11,,,,56,0
45938,note_on,30,0,13,,,,,,,,,12,,,,56,0
45944,note_on,30,0,15,,,,,,,,,14,,,,32,0
45960,set_tempo,120,1,0,,,,,,288462,,,,,,,,
45960,note_on,30,0,11,,,,,,,,,10,,,,58,112
45963,note_on,30,0,12,,,,,,,,,11,,,,58,112
45964,note_on,60,0,2,,,,,,,,,1,,,,72,100
45964,note_on,0,0,2,,,,,,,,,1,,,,68,100
45965,note_on,60,0,3,,,,,,,,,2,,,,68,101
45965,note_on,0,0,3,,,,,,,,,2,,,,72,101
45968,note_on,30,0,13,,,,,,,,,12,,,,58,112
45972,note_on,240,0,14,,,,,,,,,13,,,,56,0
45972,note_on,0,0,14,,,,,,,,,13,,,,60,112
45974,note_on,30,0,15,,,,,,,,,14,,,,34,112
45990,note_on,30,0,11,,,,,,,,,10,,,,58,0
45993,note_on,30,0,12,,,,,,,,,11,,,,58,0
45998,note_on,30,0,13,,,,,,,,,12,,,,58,0
46004,note_on,30,0,15,,,,,,,,,14,,,,34,0
46020,note_on,30,0,11,,,,,,,,,10,,,,56,112
46023,note_on,30,0,12,,,,,,,,,11,,,,56,112
46024,note_on,0,0,2,,,,,,,,,1,,,,72,0
46024,note_on,60,0,2,,,,,,,,,1,,,,68,0
46025,note_on,0,0,3,,,,,,,,,2,,,,68,0
46025,note_on,60,0,3,,,,,,,,,2,,,,72,0
46028,note_on,30,0,13,,,,,,,,,12,,,,56,112
46034,note_on,30,0,15,,,,,,,,,14,,,,32,112
46050,note_on,30,0,11,,,,,,,,,10,,,,56,0
46053,note_on,30,0,12,,,,,,,,,11,,,,56,0
46058,note_on,30,0,13,,,,,,,,,12,,,,56,0
46064,note_on,30,0,15,,,,,,,,,14,,,,32,0
46080,note_on,30,0,11,,,,,,,,,10,,,,56,112
46080,set_tempo,120,1,0,,,,,,254237,,,,,,,,
46083,note_on,30,0,12,,,,,,,,,11,,,,56,112
46084,note_on,0,0,2,,,,,,,,,1,,,,77,100
46084,note_on,60,0,2,,,,,,,,,1,,,,67,100
46085,note_on,0,0,3,,,,,,,,,2,,,,77,101
46085,note_on,60,0,3,,,,,,,,,2,,,,67,101
46087,note_on,115,0,14,,,,,,,,,13,,,,60,0
46088,note_on,30,0,13,,,,,,,,,12,,,,56,112
46092,note_on,5,0,14,,,,,,,,,13,,,,61,127
46094,note_on,30,0,15,,,,,,,,,14,,,,32,112
46200,note_on,120,0,11,,,,,,,,,10,,,,56,0
46200,set_tempo,120,1,0,,,,,,263158,,,,,,,,
46203,note_on,120,0,12,,,,,,,,,11,,,,56,0
46204,note_on,0,0,2,,,,,,,,,1,,,,71,100
46204,note_on,120,0,2,,,,,,,,,1,,,,77,0
46205,note_on,0,0,3,,,,,,,,,2,,,,71,101
46205,note_on,120,0,3,,,,,,,,,2,,,,77,0
46208,note_on,120,0,13,,,,,,,,,12,,,,56,0
46214,note_on,120,0,15,,,,,,,,,14,,,,32,0
46320,set_tempo,120,1,0,,,,,,288462,,,,,,,,
46324,note_on,0,0,2,,,,,,,,,1,,,,67,0
46324,note_on,0,0,2,,,,,,,,,1,,,,71,100
46324,note_on,120,0,2,,,,,,,,,1,,,,71,0
46324,note_on,0,0,2,,,,,,,,,1,,,,67,100
46325,note_on,0,0,3,,,,,,,,,2,,,,67,101
46325,note_on,120,0,3,,,,,,,,,2,,,,71,0
46325,note_on,0,0,3,,,,,,,,,2,,,,67,0
46325,note_on,0,0,3,,,,,,,,,2,,,,71,101
46332,note_on,240,0,14,,,,,,,,,13,,,,61,0
46332,note_on,0,0,14,,,,,,,,,13,,,,63,112
46440,note_on,240,0,11,,,,,,,,,10,,,,56,112
46440,set_tempo,120,1,0,,,,,,254237,,,,,,,,
46443,note_on,240,0,12,,,,,,,,,11,,,,56,112
46444,note_on,120,0,2,,,,,,,,,1,,,,67,0
46444,note_on,0,0,2,,,,,,,,,1,,,,68,115
46444,note_on,0,0,2,,,,,,,,,1,,,,72,115
46444,note_on,0,0,2,,,,,,,,,1,,,,71,0
46445,note_on,120,0,3,,,,,,,,,2,,,,67,0
46445,note_on,0,0,3,,,,,,,,,2,,,,71,0
46445,note_on,0,0,3,,,,,,,,,2,,,,72,116
46445,note_on,0,0,3,,,,,,,,,2,,,,68,116
46447,note_on,115,0,14,,,,,,,,,13,,,,63,0
46448,note_on,240,0,13,,,,,,,,,12,,,,56,112
46452,note_on,5,0,14,,,,,,,,,13,,,,60,127
46454,note_on,240,0,15,,,,,,,,,14,,,,32,112
46470,note_on,30,0,11,,,,,,,,,10,,,,56,0
46473,note_on,30,0,12,,,,,,,,,11,,,,56,0
46478,note_on,30,0,13,,,,,,,,,12,,,,56,0
46484,note_on,30,0,15,,,,,,,,,14,,,,32,0
46500,note_on,30,0,11,,,,,,,,,10,,,,56,112
46503,note_on,30,0,12,,,,,,,,,11,,,,56,112
46508,note_on,30,0,13,,,,,,,,,12,,,,56,112
46514,note_on,30,0,15,,,,,,,,,14,,,,32,112
46530,note_on,30,0,11,,,,,,,,,10,,,,56,0
46533,note_on,30,0,12,,,,,,,,,11,,,,56,0
46538,note_on,30,0,13,,,,,,,,,12,,,,56,0
46544,note_on,30,0,15,,,,,,,,,14,,,,32,0
46560,note_on,30,0,11,,,,,,,,,10,,,,58,112
46560,set_tempo,120,1,0,,,,,,263158,,,,,,,,
46563,note_on,30,0,12,,,,,,,,,11,,,,58,112
46564,note_on,0,0,2,,,,,,,,,1,,,,72,100
46564,note_on,0,0,2,,,,,,,,,1,,,,75,100
46564,note_on,120,0,2,,,,,,,,,1,,,,68,0
46564,note_on,0,0,2,,,,,,,,,1,,,,72,0
46565,note_on,0,0,3,,,,,,,,,2,,,,72,0
46565,note_on,120,0,3,,,,,,,,,2,,,,68,0
46565,note_on,0,0,3,,,,,,,,,2,,,,72,101
46565,note_on,0,0,3,,,,,,,,,2,,,,75,101
46568,note_on,30,0,13,,,,,,,,,12,,,,58,112
46574,note_on,30,0,15,,,,,,,,,14,,,,34,112
46590,note_on,30,0,11,,,,,,,,,10,,,,58,0
46593,note_on,30,0,12,,,,,,,,,11,,,,58,0
46598,note_on,30,0,13,,,,,,,,,12,,,,58,0
46604,note_on,30,0,15,,,,,,,,,14,,,,34,0
46620,note_on,30,0,11,,,,,,,,,10,,,,56,112
46623,note_on,30,0,12,,,,,,,,,11,,,,56,112
46628,note_on,30,0,13,,,,,,,,,12,,,,56,112
46634,note_on,30,0,15,,,,,,,,,14,,,,32,112
46650,note_on,30,0,11,,,,,,,,,10,,,,56,0
46653,note_on,30,0,12,,,,,,,,,11,,,,56,0
46658,note_on,30,0,13,,,,,,,,,12,,,,56,0
46664,note_on,30,0,15,,,,,,,,,14,,,,32,0
46680,note_on,30,0,11,,,,,,,,,10,,,,58,112
46680,set_tempo,120,1,0,,,,,,288462,,,,,,,,
46683,note_on,30,0,12,,,,,,,,,11,,,,58,112
46684,note_on,120,0,2,,,,,,,,,1,,,,72,0
46684,note_on,0,0,2,,,,,,,,,1,,,,72,100
46684,note_on,0,0,2,,,,,,,,,1,,,,75,0
46684,note_on,0,0,2,,,,,,,,,1,,,,75,100
46685,note_on,120,0,3,,,,,,,,,2,,,,75,0
46685,note_on,0,0,3,,,,,,,,,2,,,,72,0
46685,note_on,0,0,3,,,,,,,,,2,,,,72,101
46685,note_on,0,0,3,,,,,,,,,2,,,,75,101
46688,note_on,30,0,13,,,,,,,,,12,,,,58,112
46692,note_on,0,0,14,,,,,,,,,13,,,,56,112
46692,note_on,240,0,14,,,,,,,,,13,,,,60,0
46694,note_on,30,0,15,,,,,,,,,14,,,,34,112
46710,note_on,30,0,11,,,,,,,,,10,,,,58,0
46713,note_on,30,0,12,,,,,,,,,11,,,,58,0
46718,note_on,30,0,13,,,,,,,,,12,,,,58,0
46724,note_on,30,0,15,,,,,,,,,14,,,,34,0
46740,note_on,30,0,11,,,,,,,,,10,,,,56,112
46743,note_on,30,0,12,,,,,,,,,11,,,,56,112
46744,note_on,60,0,2,,,,,,,,,1,,,,72,0
46744,note_on,0,0,2,,,,,,,,,1,,,,75,0
46745,note_on,60,0,3,,,,,,,,,2,,,,75,0
46745,note_on,0,0,3,,,,,,,,,2,,,,72,0
46748,note_on,30,0,13,,,,,,,,,12,,,,56,112
46754,note_on,30,0,15,,,,,,,,,14,,,,32,112
46770,note_on,30,0,11,,,,,,,,,10,,,,56,0
46773,note_on,30,0,12,,,,,,,,,11,,,,56,0
46778,note_on,30,0,13,,,,,,,,,12,,,,56,0
46784,note_on,30,0,15,,,,,,,,,14,,,,32,0
46800,set_tempo,120,1,0,,,,,,254237,,,,,,,,
46800,note_on,30,0,11,,,,,,,,,10,,,,56,112
46803,note_on,30,0,12,,,,,,,,,11,,,,56,112
46804,note_on,0,0,2,,,,,,,,,1,,,,77,115
46804,note_on,60,0,2,,,,,,,,,1,,,,80,115
46805,note_on,0,0,3,,,,,,,,,2,,,,77,116
46805,note_on,60,0,3,,,,,,,,,2,,,,80,116
46807,note_on,115,0,14,,,,,,,,,13,,,,56,0
46808,note_on,30,0,13,,,,,,,,,12,,,,56,112
46809,note_on,1680,0,4,,,,,,,,,3,,,,68,115
46809,note_on,0,0,4,,,,,,,,,3,,,,65,115
46812,note_on,0,0,14,,,,,,,,,13,,,,49,127
46812,control_change,5,0,14,,,,,,,,,13,11,50,,,
46814,note_on,30,0,15,,,,,,,,,14,,,,32,112
46834,note_on,30,0,2,,,,,,,,,1,,,,77,0
46834,note_on,0,0,2,,,,,,,,,1,,,,80,0
46835,note_on,0,0,3,,,,,,,,,2,,,,80,0
46835,note_on,30,0,3,,,,,,,,,2,,,,77,0
46836,control_change,24,0,14,,,,,,,,,13,11,51,,,
46839,note_on,30,0,4,,,,,,,,,3,,,,65,0
46839,note_on,0,0,4,,,,,,,,,3,,,,68,0
46860,control_change,24,0,14,,,,,,,,,13,11,52,,,
46864,note_on,30,0,2,,,,,,,,,1,,,,80,100
46864,note_on,0,0,2,,,,,,,,,1,,,,77,100
46865,note_on,0,0,3,,,,,,,,,2,,,,80,101
46865,note_on,30,0,3,,,,,,,,,2,,,,77,101
46869,note_on,30,0,4,,,,,,,,,3,,,,68,100
46869,note_on,0,0,4,,,,,,,,,3,,,,65,100
46884,control_change,24,0,14,,,,,,,,,13,11,53,,,
46894,note_on,0,0,2,,,,,,,,,1,,,,80,0
46894,note_on,30,0,2,,,,,,,,,1,,,,77,0
46895,note_on,30,0,3,,,,,,,,,2,,,,80,0
46895,note_on,0,0,3,,,,,,,,,2,,,,77,0
46899,note_on,0,0,4,,,,,,,,,3,,,,68,0
46899,note_on,30,0,4,,,,,,,,,3,,,,65,0
46908,control_change,24,0,14,,,,,,,,,13,11,54,,,
46920,note_on,120,0,11,,,,,,,,,10,,,,56,0
46920,set_tempo,120,1,0,,,,,,263158,,,,,,,,
46923,note_on,120,0,12,,,,,,,,,11,,,,56,0
46924,note_on,30,0,2,,,,,,,,,1,,,,79,100
46924,note_on,0,0,2,,,,,,,,,1,,,,76,100
46925,note_on,30,0,3,,,,,,,,,2,,,,76,101
46925,note_on,0,0,3,,,,,,,,,2,,,,79,101
46928,note_on,120,0,13,,,,,,,,,12,,,,56,0
46929,note_on,0,0,4,,,,,,,,,3,,,,64,100
46929,note_on,30,0,4,,,,,,,,,3,,,,67,100
46932,control_change,0,0,14,,,,,,,,,13,11,55,,,
46932,note_on,24,0,14,,,,,,,,,13,,,,49,0
46932,note_on,0,0,14,,,,,,,,,13,,,,53,112
46934,note_on,120,0,15,,,,,,,,,14,,,,32,0
46956,control_change,24,0,14,,,,,,,,,13,11,56,,,
46980,control_change,24,0,14,,,,,,,,,13,11,57,,,
46984,note_on,0,0,2,,,,,,,,,1,,,,79,0
46984,note_on,0,0,2,,,,,,,,,1,,,,77,100
46984,note_on,0,0,2,,,,,,,,,1,,,,80,100
46984,note_on,60,0,2,,,,,,,,,1,,,,76,0
46985,note_on,60,0,3,,,,,,,,,2,,,,79,0
46985,note_on,0,0,3,,,,,,,,,2,,,,76,0
46985,note_on,0,0,3,,,,,,,,,2,,,,80,101
46985,note_on,0,0,3,,,,,,,,,2,,,,77,101
46989,note_on,0,0,4,,,,,,,,,3,,,,68,100
46989,note_on,60,0,4,,,,,,,,,3,,,,64,0
46989,note_on,0,0,4,,,,,,,,,3,,,,65,100
46989,note_on,0,0,4,,,,,,,,,3,,,,67,0
47004,control_change,24,0,14,,,,,,,,,13,11,57,,,
47028,control_change,24,0,14,,,,,,,,,13,11,58,,,
47040,set_tempo,120,1,0,,,,,,288462,,,,,,,,
47044,note_on,0,0,2,,,,,,,,,1,,,,79,100
47044,note_on,0,0,2,,,,,,,,,1,,,,77,0
47044,note_on,60,0,2,,,,,,,,,1,,,,80,0
47044,note_on,0,0,2,,,,,,,,,1,,,,75,100
47045,note_on,0,0,3,,,,,,,,,2,,,,75,101
47045,note_on,0,0,3,,,,,,,,,2,,,,80,0
47045,note_on,60,0,3,,,,,,,,,2,,,,77,0
47045,note_on,0,0,3,,,,,,,,,2,,,,79,101
47049,note_on,0,0,4,,,,,,,,,3,,,,67,100
47049,note_on,0,0,4,,,,,,,,,3,,,,68,0
47049,note_on,60,0,4,,,,,,,,,3,,,,65,0
47049,note_on,0,0,4,,,,,,,,,3,,,,63,100
47052,note_on,24,0,14,,,,,,,,,13,,,,53,0
47052,note_on,0,0,14,,,,,,,,,13,,,,55,112
47052,control_change,0,0,14,,,,,,,,,13,11,59,,,
47076,control_change,24,0,14,,,,,,,,,13,11,60,,,
47100,control_change,24,0,14,,,,,,,,,13,11,61,,,
47104,note_on,0,0,2,,,,,,,,,1,,,,79,0
47104,note_on,0,0,2,,,,,,,,,1,,,,77,100
47104,note_on,0,0,2,,,,,,,,,1,,,,73,100
47104,note_on,60,0,2,,,,,,,,,1,,,,75,0
47105,note_on,60,0,3,,,,,,,,,2,,,,79,0
47105,note_on,0,0,3,,,,,,,,,2,,,,73,101
47105,note_on,0,0,3,,,,,,,,,2,,,,77,101
47105,note_on,0,0,3,,,,,,,,,2,,,,75,0
47109,note_on,0,0,4,,,,,,,,,3,,,,65,100
47109,note_on,0,0,4,,,,,,,,,3,,,,61,100
47109,note_on,0,0,4,,,,,,,,,3,,,,67,0
47109,note_on,60,0,4,,,,,,,,,3,,,,63,0
47124,control_change,24,0,14,,,,,,,,,13,11,62,,,
47148,control_change,24,0,14,,,,,,,,,13,11,63,,,
47160,set_tempo,120,1,0,,,,,,254237,,,,,,,,
47160,note_on,240,0,11,,,,,,,,,10,,,,56,112
47163,note_on,240,0,12,,,,,,,,,11,,,,56,112
47164,note_on,0,0,2,,,,,,,,,1,,,,77,0
47164,note_on,0,0,2,,,,,,,,,1,,,,72,115
47164,note_on,60,0,2,,,,,,,,,1,,,,73,0
47164,note_on,0,0,2,,,,,,,,,1,,,,75,115
47165,note_on,0,0,3,,,,,,,,,2,,,,73,0
47165,note_on,0,0,3,,,,,,,,,2,,,,75,116
47165,note_on,0,0,3,,,,,,,,,2,,,,72,116
47165,note_on,60,0,3,,,,,,,,,2,,,,77,0
47167,note_on,19,0,14,,,,,,,,,13,,,,55,0
47168,note_on,240,0,13,,,,,,,,,12,,,,56,112
47169,note_on,0,0,4,,,,,,,,,3,,,,60,115
47169,note_on,0,0,4,,,,,,,,,3,,,,63,115
47169,note_on,0,0,4,,,,,,,,,3,,,,61,0
47169,note_on,60,0,4,,,,,,,,,3,,,,65,0
47172,control_change,5,0,14,,,,,,,,,13,11,64,,,
47172,note_on,0,0,14,,,,,,,,,13,,,,56,127
47174,note_on,240,0,15,,,,,,,,,14,,,,32,112
47190,note_on,30,0,11,,,,,,,,,10,,,,56,0
47193,note_on,30,0,12,,,,,,,,,11,,,,56,0
47196,control_change,24,0,14,,,,,,,,,13,11,65,,,
47198,note_on,30,0,13,,,,,,,,,12,,,,56,0
47204,note_on,30,0,15,,,,,,,,,14,,,,32,0
47220,control_change,24,0,14,,,,,,,,,13,11,66,,,
47220,note_on,30,0,11,,,,,,,,,10,,,,56,112
47223,note_on,30,0,12,,,,,,,,,11,,,,56,112
47224,note_on,0,0,2,,,,,,,,,1,,,,72,0
47224,note_on,60,0,2,,,,,,,,,1,,,,75,0
47225,note_on,0,0,3,,,,,,,,,2,,,,75,0
47225,note_on,60,0,3,,,,,,,,,2,,,,72,0
47228,note_on,30,0,13,,,,,,,,,12,,,,56,112
47229,note_on,0,0,4,,,,,,,,,3,,,,60,0
47229,note_on,60,0,4,,,,,,,,,3,,,,63,0
47234,note_on,30,0,15,,,,,,,,,14,,,,32,112
47244,control_change,24,0,14,,,,,,,,,13,11,67,,,
47250,note_on,30,0,11,,,,,,,,,10,,,,56,0
47253,note_on,30,0,12,,,,,,,,,11,,,,56,0
47258,note_on,30,0,13,,,,,,,,,12,,,,56,0
47264,note_on,30,0,15,,,,,,,,,14,,,,32,0
47268,control_change,24,0,14,,,,,,,,,13,11,68,,,
47280,note_on,30,0,11,,,,,,,,,10,,,,58,112
47280,set_tempo,120,1,0,,,,,,263158,,,,,,,,
47283,note_on,30,0,12,,,,,,,,,11,,,,58,112
47284,note_on,60,0,2,,,,,,,,,1,,,,75,100
47284,note_on,0,0,2,,,,,,,,,1,,,,72,100
47285,note_on,60,0,3,,,,,,,,,2,,,,72,101
47285,note_on,0,0,3,,,,,,,,,2,,,,75,101
47288,note_on,30,0,13,,,,,,,,,12,,,,58,112
47289,note_on,60,0,4,,,,,,,,,3,,,,63,100
47289,note_on,0,0,4,,,,,,,,,3,,,,60,100
47292,control_change,0,0,14,,,,,,,,,13,11,69,,,
47292,note_on,0,0,14,,,,,,,,,13,,,,58,112
47292,note_on,24,0,14,,,,,,,,,13,,,,56,0
47294,note_on,30,0,15,,,,,,,,,14,,,,34,112
47310,note_on,30,0,11,,,,,,,,,10,,,,58,0
47313,note_on,30,0,12,,,,,,,,,11,,,,58,0
47316,control_change,24,0,14,,,,,,,,,13,11,70,,,
47318,note_on,30,0,13,,,,,,,,,12,,,,58,0
47324,note_on,30,0,15,,,,,,,,,14,,,,34,0
47340,control_change,24,0,14,,,,,,,,,13,11,71,,,
47340,note_on,30,0,11,,,,,,,,,10,,,,56,112
47343,note_on,30,0,12,,,,,,,,,11,,,,56,112
47344,note_on,60,0,2,,,,,,,,,1,,,,72,0
47344,note_on,0,0,2,,,,,,,,,1,,,,75,0
47345,note_on,0,0,3,,,,,,,,,2,,,,72,0
47345,note_on,60,0,3,,,,,,,,,2,,,,75,0
47348,note_on,30,0,13,,,,,,,,,12,,,,56,112
47349,note_on,0,0,4,,,,,,,,,3,,,,63,0
47349,note_on,60,0,4,,,,,,,,,3,,,,60,0
47354,note_on,30,0,15,,,,,,,,,14,,,,32,112
47364,control_change,24,0,14,,,,,,,,,13,11,72,,,
47370,note_on,30,0,11,,,,,,,,,10,,,,56,0
47373,note_on,30,0,12,,,,,,,,,11,,,,56,0
47378,note_on,30,0,13,,,,,,,,,12,,,,56,0
47384,note_on,30,0,15,,,,,,,,,14,,,,32,0
47388,control_change,24,0,14,,,,,,,,,13,11,72,,,
47400,note_on,30,0,11,,,,,,,,,10,,,,58,112
47400,set_tempo,120,1,0,,,,,,288462,,,,,,,,
47403,note_on,30,0,12,,,,,,,,,11,,,,58,112
47404,note_on,0,0,2,,,,,,,,,1,,,,68,100
47404,note_on,60,0,2,,,,,,,,,1,,,,72,100
47405,note_on,0,0,3,,,,,,,,,2,,,,72,101
47405,note_on,60,0,3,,,,,,,,,2,,,,68,101
47408,note_on,30,0,13,,,,,,,,,12,,,,58,112
47409,note_on,0,0,4,,,,,,,,,3,,,,60,100
47409,note_on,60,0,4,,,,,,,,,3,,,,56,100
47412,note_on,0,0,14,,,,,,,,,13,,,,60,112
47412,control_change,0,0,14,,,,,,,,,13,11,73,,,
47412,note_on,24,0,14,,,,,,,,,13,,,,58,0
47414,note_on,30,0,15,,,,,,,,,14,,,,34,112
47430,note_on,30,0,11,,,,,,,,,10,,,,58,0
47433,note_on,30,0,12,,,,,,,,,11,,,,58,0
47436,control_change,24,0,14,,,,,,,,,13,11,74,,,
47438,note_on,30,0,13,,,,,,,,,12,,,,58,0
47444,note_on,30,0,15,,,,,,,,,14,,,,34,0
47460,note_on,30,0,11,,,,,,,,,10,,,,56,112
47460,control_change,24,0,14,,,,,,,,,13,11,75,,,
47463,note_on,30,0,12,,,,,,,,,11,,,,56,112
47464,note_on,0,0,2,,,,,,,,,1,,,,72,0
47464,note_on,60,0,2,,,,,,,,,1,,,,68,0
47465,note_on,0,0,3,,,,,,,,,2,,,,68,0
47465,note_on,60,0,3,,,,,,,,,2,,,,72,0
47468,note_on,30,0,13,,,,,,,,,12,,,,56,112
47469,note_on,0,0,4,,,,,,,,,3,,,,56,0
47469,note_on,60,0,4,,,,,,,,,3,,,,60,0
47474,note_on,30,0,15,,,,,,,,,14,,,,32,112
47484,control_change,24,0,14,,,,,,,,,13,11,76,,,
47490,note_on,30,0,11,,,,,,,,,10,,,,56,0
47493,note_on,30,0,12,,,,,,,,,11,,,,56,0
47498,note_on,30,0,13,,,,,,,,,12,,,,56,0
47504,note_on,30,0,15,,,,,,,,,14,,,,32,0
47508,control_change,24,0,14,,,,,,,,,13,11,77,,,
47520,set_tempo,120,1,0,,,,,,254237,,,,,,,,
47520,note_on,30,0,11,,,,,,,,,10,,,,56,112
47523,note_on,30,0,12,,,,,,,,,11,,,,56,112
47524,note_on,0,0,2,,,,,,,,,1,,,,77,100
47524,note_on,60,0,2,,,,,,,,,1,,,,67,100
47525,note_on,60,0,3,,,,,,,,,2,,,,67,101
47525,note_on,0,0,3,,,,,,,,,2,,,,77,101
47527,note_on,19,0,14,,,,,,,,,13,,,,60,0
47528,note_on,30,0,13,,,,,,,,,12,,,,56,112
47529,note_on,60,0,4,,,,,,,,,3,,,,55,100
47529,note_on,0,0,4,,,,,,,,,3,,,,65,100
47532,control_change,0,0,14,,,,,,,,,13,11,78,,,
47532,note_on,5,0,14,,,,,,,,,13,,,,61,127
47534,note_on,30,0,15,,,,,,,,,14,,,,32,112
47640,note_on,120,0,11,,,,,,,,,10,,,,56,0
47640,set_tempo,120,1,0,,,,,,263158,,,,,,,,
47643,note_on,120,0,12,,,,,,,,,11,,,,56,0
47644,note_on,120,0,2,,,,,,,,,1,,,,77,0
47644,note_on,0,0,2,,,,,,,,,1,,,,71,100
47645,note_on,120,0,3,,,,,,,,,2,,,,77,0
47645,note_on,0,0,3,,,,,,,,,2,,,,71,101
47648,note_on,120,0,13,,,,,,,,,12,,,,56,0
47649,note_on,120,0,4,,,,,,,,,3,,,,65,0
47649,note_on,0,0,4,,,,,,,,,3,,,,59,100
47652,note_on,0,0,14,,,,,,,,,13,,,,65,112
47652,note_on,120,0,14,,,,,,,,,13,,,,61,0
47654,note_on,120,0,15,,,,,,,,,14,,,,32,0
47760,set_tempo,120,1,0,,,,,,288462,,,,,,,,
47764,note_on,0,0,2,,,,,,,,,1,,,,67,100
47764,note_on,0,0,2,,,,,,,,,1,,,,67,0
47764,note_on,120,0,2,,,,,,,,,1,,,,71,0
47764,note_on,0,0,2,,,,,,,,,1,,,,71,100
47765,note_on,0,0,3,,,,,,,,,2,,,,67,0
47765,note_on,120,0,3,,,,,,,,,2,,,,71,0
47765,note_on,0,0,3,,,,,,,,,2,,,,67,101
47765,note_on,0,0,3,,,,,,,,,2,,,,71,101
47769,note_on,120,0,4,,,,,,,,,3,,,,59,0
47769,note_on,0,0,4,,,,,,,,,3,,,,59,100
47769,note_on,0,0,4,,,,,,,,,3,,,,55,100
47769,note_on,0,0,4,,,,,,,,,3,,,,55,0
47772,note_on,0,0,14,,,,,,,,,13,,,,63,112
47772,note_on,120,0,14,,,,,,,,,13,,,,65,0
47880,set_tempo,120,1,0,,,,,,254237,,,,,,,,
47880,note_on,240,0,11,,,,,,,,,10,,,,56,112
47883,note_on,240,0,12,,,,,,,,,11,,,,56,112
47884,note_on,120,0,2,,,,,,,,,1,,,,67,0
47884,note_on,0,0,2,,,,,,,,,1,,,,71,0
47884,note_on,0,0,2,,,,,,,,,1,,,,68,115
47884,note_on,0,0,2,,,,,,,,,1,,,,72,115
47885,note_on,120,0,3,,,,,,,,,2,,,,67,0
47885,note_on,0,0,3,,,,,,,,,2,,,,71,0
47885,note_on,0,0,3,,,,,,,,,2,,,,72,116
47885,note_on,0,0,3,,,,,,,,,2,,,,68,116
47887,note_on,115,0,14,,,,,,,,,13,,,,63,0
47888,note_on,240,0,13,,,,,,,,,12,,,,56,112
47889,note_on,0,0,4,,,,,,,,,3,,,,60,115
47889,note_on,0,0,4,,,,,,,,,3,,,,56,115
47889,note_on,120,0,4,,,,,,,,,3,,,,59,0
47889,note_on,0,0,4,,,,,,,,,3,,,,55,0
47892,note_on,5,0,14,,,,,,,,,13,,,,60,127
47894,note_on,240,0,15,,,,,,,,,14,,,,32,112
47910,note_on,30,0,11,,,,,,,,,10,,,,56,0
47913,note_on,30,0,12,,,,,,,,,11,,,,56,0
47918,note_on,30,0,13,,,,,,,,,12,,,,56,0
47924,note_on,30,0,15,,,,,,,,,14,,,,32,0
47940,note_on,30,0,11,,,,,,,,,10,,,,56,112
47943,note_on,30,0,12,,,,,,,,,11,,,,56,112
47948,note_on,30,0,13,,,,,,,,,12,,,,56,112
47954,note_on,30,0,15,,,,,,,,,14,,,,32,112
47970,note_on,30,0,11,,,,,,,,,10,,,,56,0
47973,note_on,30,0,12,,,,,,,,,11,,,,56,0
47978,note_on,30,0,13,,,,,,,,,12,,,,56,0
47984,note_on,30,0,15,,,,,,,,,14,,,,32,0
48000,note_on,30,0,11,,,,,,,,,10,,,,58,112
48000,set_tempo,120,1,0,,,,,,263158,,,,,,,,
48003,note_on,30,0,12,,,,,,,,,11,,,,58,112
48004,note_on,120,0,2,,,,,,,,,1,,,,72,0
48004,note_on,0,0,2,,,,,,,,,1,,,,68,0
48004,note_on,0,0,2,,,,,,,,,1,,,,72,100
48004,note_on,0,0,2,,,,,,,,,1,,,,75,100
48005,note_on,0,0,3,,,,,,,,,2,,,,72,0
48005,note_on,120,0,3,,,,,,,,,2,,,,68,0
48005,note_on,0,0,3,,,,,,,,,2,,,,75,101
48005,note_on,0,0,3,,,,,,,,,2,,,,72,101
48008,note_on,30,0,13,,,,,,,,,12,,,,58,112
48009,note_on,120,0,4,,,,,,,,,3,,,,56,0
48009,note_on,0,0,4,,,,,,,,,3,,,,63,100
48009,note_on,0,0,4,,,,,,,,,3,,,,60,100
48009,note_on,0,0,4,,,,,,,,,3,,,,60,0
48014,note_on,30,0,15,,,,,,,,,14,,,,34,112
48030,note_on,30,0,11,,,,,,,,,10,,,,58,0
48033,note_on,30,0,12,,,,,,,,,11,,,,58,0
48038,note_on,30,0,13,,,,,,,,,12,,,,58,0
48044,note_on,30,0,15,,,,,,,,,14,,,,34,0
48060,note_on,30,0,11,,,,,,,,,10,,,,56,112
48063,note_on,30,0,12,,,,,,,,,11,,,,56,112
48068,note_on,30,0,13,,,,,,,,,12,,,,56,112
48074,note_on,30,0,15,,,,,,,,,14,,,,32,112
48090,note_on,30,0,11,,,,,,,,,10,,,,56,0
48093,note_on,30,0,12,,,,,,,,,11,,,,56,0
48098,note_on,30,0,13,,,,,,,,,12,,,,56,0
48104,note_on,30,0,15,,,,,,,,,14,,,,32,0
48120,set_tempo,120,1,0,,,,,,315789,,,,,,,,
48120,note_on,30,0,11,,,,,,,,,10,,,,58,112
48123,note_on,30,0,12,,,,,,,,,11,,,,58,112
48124,note_on,0,0,2,,,,,,,,,1,,,,72,100
48124,note_on,120,0,2,,,,,,,,,1,,,,75,0
48124,note_on,0,0,2,,,,,,,,,1,,,,75,100
48124,note_on,0,0,2,,,,,,,,,1,,,,72,0
48125,note_on,0,0,3,,,,,,,,,2,,,,75,101
48125,note_on,0,0,3,,,,,,,,,2,,,,72,101
48125,note_on,120,0,3,,,,,,,,,2,,,,75,0
48125,note_on,0,0,3,,,,,,,,,2,,,,72,0
48128,note_on,30,0,13,,,,,,,,,12,,,,58,112
48129,note_on,0,0,4,,,,,,,,,3,,,,60,100
48129,note_on,0,0,4,,,,,,,,,3,,,,63,100
48129,note_on,0,0,4,,,,,,,,,3,,,,63,0
48129,note_on,120,0,4,,,,,,,,,3,,,,60,0
48132,note_on,0,0,14,,,,,,,,,13,,,,56,112
48132,note_on,240,0,14,,,,,,,,,13,,,,60,0
48134,note_on,30,0,15,,,,,,,,,14,,,,34,112
48150,note_on,30,0,11,,,,,,,,,10,,,,58,0
48153,note_on,30,0,12,,,,,,,,,11,,,,58,0
48158,note_on,30,0,13,,,,,,,,,12,,,,58,0
48164,note_on,30,0,15,,,,,,,,,14,,,,34,0
48180,note_on,30,0,11,,,,,,,,,10,,,,56,112
48183,note_on,30,0,12,,,,,,,,,11,,,,56,112
48184,note_on,60,0,2,,,,,,,,,1,,,,75,0
48184,note_on,0,0,2,,,,,,,,,1,,,,72,0
48185,note_on,60,0,3,,,,,,,,,2,,,,75,0
48185,note_on,0,0,3,,,,,,,,,2,,,,72,0
48188,note_on,30,0,13,,,,,,,,,12,,,,56,112
48189,note_on,60,0,4,,,,,,,,,3,,,,60,0
48189,note_on,0,0,4,,,,,,,,,3,,,,63,0
48194,note_on,30,0,15,,,,,,,,,14,,,,32,112
48210,note_on,30,0,11,,,,,,,,,10,,,,56,0
48213,note_on,30,0,12,,,,,,,,,11,,,,56,0
48218,note_on,30,0,13,,,,,,,,,12,,,,56,0
48224,note_on,30,0,15,,,,,,,,,14,,,,32,0
48240,note_on,0,0,11,,,,,,,,,10,,,,63,112
48240,set_tempo,120,1,0,,,,,,254237,,,,,,,,
48240,control_change,30,0,11,,,,,,,,,10,11,83,,,
48243,control_change,0,0,5,,,,,,,,,4,11,82,,,
48243,note_on,30,0,12,,,,,,,,,11,,,,63,112
48243,control_change,0,0,12,,,,,,,,,11,11,83,,,
48243,note_on,4440,0,5,,,,,,,,,4,,,,67,100
48244,note_on,0,0,2,,,,,,,,,1,,,,73,100
48244,note_on,0,0,2,,,,,,,,,1,,,,70,100
48244,control_change,60,0,2,,,,,,,,,1,11,70,,,
48245,control_change,0,0,3,,,,,,,,,2,11,70,,,
48245,note_on,0,0,3,,,,,,,,,2,,,,70,101
48245,note_on,60,0,3,,,,,,,,,2,,,,73,101
48247,note_on,115,0,14,,,,,,,,,13,,,,56,0
48248,control_change,30,0,13,,,,,,,,,12,11,83,,,
48248,note_on,0,0,13,,,,,,,,,12,,,,63,112
48249,control_change,60,0,4,,,,,,,,,3,11,77,,,
48249,note_on,0,0,4,,,,,,,,,3,,,,63,100
48252,note_on,0,0,14,,,,,,,,,13,,,,51,112
48252,control_change,5,0,14,,,,,,,,,13,11,83,,,
48254,note_on,0,0,15,,,,,,,,,14,,,,39,112
48254,control_change,30,0,15,,,,,,,,,14,11,83,,,
48274,note_on,0,0,2,,,,,,,,,1,,,,73,0
48274,note_on,30,0,2,,,,,,,,,1,,,,70,0
48275,note_on,30,0,3,,,,,,,,,2,,,,70,0
48275,note_on,0,0,3,,,,,,,,,2,,,,73,0
48304,note_on,30,0,2,,,,,,,,,1,,,,70,100
48304,note_on,0,0,2,,,,,,,,,1,,,,73,100
48305,note_on,0,0,3,,,,,,,,,2,,,,73,101
48305,note_on,30,0,3,,,,,,,,,2,,,,70,101
48334,note_on,30,0,2,,,,,,,,,1,,,,73,0
48334,note_on,0,0,2,,,,,,,,,1,,,,70,0
48335,note_on,30,0,3,,,,,,,,,2,,,,73,0
48335,note_on,0,0,3,,,,,,,,,2,,,,70,0
48360,set_tempo,120,1,0,,,,,,263158,,,,,,,,
48360,note_on,120,0,11,,,,,,,,,10,,,,63,0
48363,note_on,120,0,12,,,,,,,,,11,,,,63,0
48364,note_on,30,0,2,,,,,,,,,1,,,,72,100
48364,note_on,0,0,2,,,,,,,,,1,,,,75,100
48365,note_on,0,0,3,,,,,,,,,2,,,,72,101
48365,note_on,30,0,3,,,,,,,,,2,,,,75,101
48368,note_on,120,0,13,,,,,,,,,12,,,,63,0
48372,note_on,120,0,14,,,,,,,,,13,,,,51,0
48374,note_on,120,0,15,,,,,,,,,14,,,,39,0
48424,note_on,60,0,2,,,,,,,,,1,,,,75,0
48424,note_on,0,0,2,,,,,,,,,1,,,,72,0
48424,note_on,0,0,2,,,,,,,,,1,,,,70,100
48424,note_on,0,0,2,,,,,,,,,1,,,,73,100
48425,note_on,0,0,3,,,,,,,,,2,,,,75,0
48425,note_on,0,0,3,,,,,,,,,2,,,,73,101
48425,note_on,0,0,3,,,,,,,,,2,,,,70,101
48425,note_on,60,0,3,,,,,,,,,2,,,,72,0
48480,set_tempo,120,1,0,,,,,,288462,,,,,,,,
48484,note_on,60,0,2,,,,,,,,,1,,,,73,0
48484,note_on,0,0,2,,,,,,,,,1,,,,70,0
48484,note_on,0,0,2,,,,,,,,,1,,,,75,100
48484,note_on,0,0,2,,,,,,,,,1,,,,72,100
48485,note_on,0,0,3,,,,,,,,,2,,,,72,101
48485,note_on,0,0,3,,,,,,,,,2,,,,75,101
48485,note_on,0,0,3,,,,,,,,,2,,,,73,0
48485,note_on,60,0,3,,,,,,,,,2,,,,70,0
48544,note_on,60,0,2,,,,,,,,,1,,,,72,0
48544,note_on,0,0,2,,,,,,,,,1,,,,73,100
48544,note_on,0,0,2,,,,,,,,,1,,,,70,100
48544,note_on,0,0,2,,,,,,,,,1,,,,75,0
48545,note_on,60,0,3,,,,,,,,,2,,,,72,0
48545,note_on,0,0,3,,,,,,,,,2,,,,75,0
48545,note_on,0,0,3,,,,,,,,,2,,,,73,101
48545,note_on,0,0,3,,,,,,,,,2,,,,70,101
48600,set_tempo,120,1,0,,,,,,258621,,,,,,,,
48603,note_on,0,0,5,,,,,,,,,4,,,,67,100
48603,note_on,360,0,5,,,,,,,,,4,,,,67,0
48604,note_on,0,0,2,,,,,,,,,1,,,,73,0
48604,note_on,60,0,2,,,,,,,,,1,,,,70,0
48604,note_on,0,0,2,,,,,,,,,1,,,,77,100
48604,note_on,0,0,2,,,,,,,,,1,,,,73,100
48605,note_on,60,0,3,,,,,,,,,2,,,,70,0
48605,note_on,0,0,3,,,,,,,,,2,,,,73,0
48605,note_on,0,0,3,,,,,,,,,2,,,,77,101
48605,note_on,0,0,3,,,,,,,,,2,,,,73,101
48609,note_on,360,0,4,,,,,,,,,3,,,,63,0
48609,note_on,0,0,4,,,,,,,,,3,,,,63,100
48664,note_on,60,0,2,,,,,,,,,1,,,,77,0
48664,note_on,0,0,2,,,,,,,,,1,,,,73,0
48665,note_on,0,0,3,,,,,,,,,2,,,,77,0
48665,note_on,60,0,3,,,,,,,,,2,,,,73,0
48669,note_on,60,0,4,,,,,,,,,3,,,,63,0
48723,note_on,120,0,5,,,,,,,,,4,,,,67,0
48723,note_on,0,0,5,,,,,,,,,4,,,,67,100
48724,note_on,0,0,2,,,,,,,,,1,,,,77,100
48724,note_on,60,0,2,,,,,,,,,1,,,,73,100
48724,note_on,0,0,2,,,,,,,,,1,,,,73,100
48725,note_on,0,0,3,,,,,,,,,2,,,,77,101
48725,note_on,60,0,3,,,,,,,,,2,,,,73,101
48729,note_on,60,0,4,,,,,,,,,3,,,,63,100
48784,note_on,0,0,2,,,,,,,,,1,,,,77,0
48784,note_on,60,0,2,,,,,,,,,1,,,,73,0
48784,note_on,0,0,2,,,,,,,,,1,,,,73,0
48785,note_on,60,0,3,,,,,,,,,2,,,,77,0
48785,note_on,0,0,3,,,,,,,,,2,,,,73,0
48789,note_on,60,0,4,,,,,,,,,3,,,,63,0
48840,set_tempo,240,1,0,,,,,,288462,,,,,,,,
48841,note_on,5040,0,1,,,,,,,,,0,,,,73,101
48841,note_on,0,0,1,,,,,,,,,0,,,,82,101
48841,control_change,0,0,1,,,,,,,,,0,11,86,,,
48843,note_on,120,0,5,,,,,,,,,4,,,,67,0
48843,note_on,0,0,5,,,,,,,,,4,,,,67,100
48843,control_change,0,0,5,,,,,,,,,4,11,102,,,
48844,note_on,0,0,2,,,,,,,,,1,,,,82,100
48844,control_change,60,0,2,,,,,,,,,1,11,86,,,
48845,control_change,0,0,3,,,,,,,,,2,11,86,,,
48845,note_on,60,0,3,,,,,,,,,2,,,,73,101
48845,note_on,0,0,3,,,,,,,,,2,,,,82,101
48847,control_change,0,0,8,,,,,,,,,7,11,102,,,
48847,note_on,0,0,8,,,,,,,,,7,,,,63,110
48847,note_on,5040,0,8,,,,,,,,,7,,,,67,110
48848,control_change,7,0,1,,,,,,,,,0,11,83,,,
48849,note_on,0,0,4,,,,,,,,,3,,,,63,100
48849,control_change,60,0,4,,,,,,,,,3,11,97,,,
48850,control_change,7,0,5,,,,,,,,,4,11,99,,,
48851,control_change,7,0,2,,,,,,,,,1,11,83,,,
48852,control_change,7,0,3,,,,,,,,,2,11,83,,,
48854,control_change,7,0,8,,,,,,,,,7,11,99,,,
48856,control_change,7,0,4,,,,,,,,,3,11,94,,,
48858,control_change,8,0,5,,,,,,,,,4,11,96,,,
48862,control_change,8,0,8,,,,,,,,,7,11,96,,,
48863,control_change,15,0,1,,,,,,,,,0,11,79,,,
48864,control_change,8,0,4,,,,,,,,,3,11,91,,,
48865,control_change,7,0,5,,,,,,,,,4,11,93,,,
48866,control_change,15,0,2,,,,,,,,,1,11,79,,,
48867,control_change,15,0,3,,,,,,,,,2,11,79,,,
48869,control_change,7,0,8,,,,,,,,,7,11,93,,,
48871,control_change,7,0,4,,,,,,,,,3,11,88,,,
48871,control_change,8,0,1,,,,,,,,,0,11,76,,,
48873,control_change,8,0,5,,,,,,,,,4,11,90,,,
48874,control_change,8,0,2,,,,,,,,,1,11,76,,,
48875,control_change,8,0,3,,,,,,,,,2,11,76,,,
48877,control_change,8,0,8,,,,,,,,,7,11,90,,,
48879,control_change,8,0,4,,,,,,,,,3,11,85,,,
48880,control_change,7,0,5,,,,,,,,,4,11,87,,,
48884,control_change,7,0,8,,,,,,,,,7,11,87,,,
48886,control_change,7,0,4,,,,,,,,,3,11,82,,,
48886,control_change,15,0,1,,,,,,,,,0,11,72,,,
48888,control_change,8,0,5,,,,,,,,,4,11,84,,,
48889,control_change,15,0,2,,,,,,,,,1,11,72,,,
48890,control_change,15,0,3,,,,,,,,,2,11,72,,,
48892,control_change,8,0,8,,,,,,,,,7,11,84,,,
48894,control_change,8,0,4,,,,,,,,,3,11,79,,,
48901,note_on,0,0,1,,,,,,,,,0,,,,73,0
48901,note_on,15,0,1,,,,,,,,,0,,,,82,0
48904,note_on,15,0,2,,,,,,,,,1,,,,82,0
48905,note_on,15,0,3,,,,,,,,,2,,,,82,0
48905,note_on,0,0,3,,,,,,,,,2,,,,73,0
48909,note_on,15,0,4,,,,,,,,,3,,,,63,0
48960,note_on,600,0,11,,,,,,,,,10,,,,55,112
48960,set_tempo,120,1,0,,,,,,254237,,,,,,,,
48963,note_on,600,0,12,,,,,,,,,11,,,,55,112
48963,note_on,75,0,5,,,,,,,,,4,,,,67,0
48967,note_on,0,0,8,,,,,,,,,7,,,,67,0
48967,note_on,75,0,8,,,,,,,,,7,,,,63,0
48968,note_on,600,0,13,,,,,,,,,12,,,,55,112
48972,note_on,600,0,14,,,,,,,,,13,,,,43,112
48974,note_on,600,0,15,,,,,,,,,14,,,,31,112
48990,note_on,30,0,11,,,,,,,,,10,,,,55,0
48993,note_on,30,0,12,,,,,,,,,11,,,,55,0
48998,note_on,30,0,13,,,,,,,,,12,,,,55,0
49002,note_on,30,0,14,,,,,,,,,13,,,,43,0
49004,note_on,30,0,15,,,,,,,,,14,,,,31,0
49020,note_on,30,0,11,,,,,,,,,10,,,,55,112
49023,note_on,30,0,12,,,,,,,,,11,,,,55,112
49028,note_on,30,0,13,,,,,,,,,12,,,,55,112
49032,note_on,30,0,14,,,,,,,,,13,,,,43,112
49034,note_on,30,0,15,,,,,,,,,14,,,,31,112
49050,note_on,30,0,11,,,,,,,,,10,,,,55,0
49053,note_on,30,0,12,,,,,,,,,11,,,,55,0
49058,note_on,30,0,13,,,,,,,,,12,,,,55,0
49062,note_on,30,0,14,,,,,,,,,13,,,,43,0
49064,note_on,30,0,15,,,,,,,,,14,,,,31,0
49080,set_tempo,120,1,0,,,,,,263158,,,,,,,,
49080,note_on,30,0,11,,,,,,,,,10,,,,56,112
49083,note_on,30,0,12,,,,,,,,,11,,,,56,112
49088,note_on,30,0,13,,,,,,,,,12,,,,56,112
49092,note_on,30,0,14,,,,,,,,,13,,,,44,112
49094,note_on,30,0,15,,,,,,,,,14,,,,32,112
49110,note_on,30,0,11,,,,,,,,,10,,,,56,0
49113,note_on,30,0,12,,,,,,,,,11,,,,56,0
49118,note_on,30,0,13,,,,,,,,,12,,,,56,0
49122,note_on,30,0,14,,,,,,,,,13,,,,44,0
49124,note_on,30,0,15,,,,,,,,,14,,,,32,0
49140,note_on,30,0,11,,,,,,,,,10,,,,55,112
49143,note_on,30,0,12,,,,,,,,,11,,,,55,112
49148,note_on,30,0,13,,,,,,,,,12,,,,55,112
49152,note_on,30,0,14,,,,,,,,,13,,,,43,112
49154,note_on,30,0,15,,,,,,,,,14,,,,31,112
49170,note_on,30,0,11,,,,,,,,,10,,,,55,0
49173,note_on,30,0,12,,,,,,,,,11,,,,55,0
49178,note_on,30,0,13,,,,,,,,,12,,,,55,0
49182,note_on,30,0,14,,,,,,,,,13,,,,43,0
49184,note_on,30,0,15,,,,,,,,,14,,,,31,0
49200,set_tempo,120,1,0,,,,,,288462,,,,,,,,
49200,note_on,30,0,11,,,,,,,,,10,,,,56,112
49203,note_on,30,0,12,,,,,,,,,11,,,,56,112
49208,note_on,30,0,13,,,,,,,,,12,,,,56,112
49212,note_on,30,0,14,,,,,,,,,13,,,,44,112
49214,note_on,30,0,15,,,,,,,,,14,,,,32,112
49230,note_on,30,0,11,,,,,,,,,10,,,,56,0
49233,note_on,30,0,12,,,,,,,,,11,,,,56,0
49238,note_on,30,0,13,,,,,,,,,12,,,,56,0
49242,note_on,30,0,14,,,,,,,,,13,,,,44,0
49244,note_on,30,0,15,,,,,,,,,14,,,,32,0
49260,note_on,30,0,11,,,,,,,,,10,,,,55,112
49263,note_on,30,0,12,,,,,,,,,11,,,,55,112
49268,note_on,30,0,13,,,,,,,,,12,,,,55,112
49272,note_on,30,0,14,,,,,,,,,13,,,,43,112
49274,note_on,30,0,15,,,,,,,,,14,,,,31,112
49290,note_on,30,0,11,,,,,,,,,10,,,,55,0
49293,note_on,30,0,12,,,,,,,,,11,,,,55,0
49298,note_on,30,0,13,,,,,,,,,12,,,,55,0
49302,note_on,30,0,14,,,,,,,,,13,,,,43,0
49304,note_on,30,0,15,,,,,,,,,14,,,,31,0
49320,set_tempo,120,1,0,,,,,,258621,,,,,,,,
49320,note_on,30,0,11,,,,,,,,,10,,,,58,112
49323,note_on,30,0,12,,,,,,,,,11,,,,58,112
49328,note_on,30,0,13,,,,,,,,,12,,,,58,112
49332,note_on,30,0,14,,,,,,,,,13,,,,46,112
49334,note_on,30,0,15,,,,,,,,,14,,,,34,112
49380,note_on,60,0,11,,,,,,,,,10,,,,58,0
49383,note_on,60,0,12,,,,,,,,,11,,,,58,0
49388,note_on,60,0,13,,,,,,,,,12,,,,58,0
49392,note_on,60,0,14,,,,,,,,,13,,,,46,0
49394,note_on,60,0,15,,,,,,,,,14,,,,34,0
49440,note_on,60,0,11,,,,,,,,,10,,,,58,112
49443,note_on,60,0,12,,,,,,,,,11,,,,58,112
49448,note_on,60,0,13,,,,,,,,,12,,,,58,112
49452,note_on,60,0,14,,,,,,,,,13,,,,46,112
49454,note_on,60,0,15,,,,,,,,,14,,,,34,112
49500,note_on,60,0,11,,,,,,,,,10,,,,58,0
49503,note_on,60,0,12,,,,,,,,,11,,,,58,0
49508,note_on,60,0,13,,,,,,,,,12,,,,58,0
49512,note_on,60,0,14,,,,,,,,,13,,,,46,0
49514,note_on,60,0,15,,,,,,,,,14,,,,34,0
49560,note_on,0,0,11,,,,,,,,,10,,,,63,112
49560,control_change,60,0,11,,,,,,,,,10,11,102,,,
49560,set_tempo,240,1,0,,,,,,288462,,,,,,,,
49563,control_change,60,0,12,,,,,,,,,11,11,102,,,
49563,note_on,0,0,12,,,,,,,,,11,,,,63,112
49567,control_change,7,0,11,,,,,,,,,10,11,99,,,
49567,control_change,0,0,8,,,,,,,,,7,11,102,,,
49567,note_on,0,0,8,,,,,,,,,7,,,,51,110
49567,note_on,600,0,8,,,,,,,,,7,,,,63,110
49568,note_on,0,0,13,,,,,,,,,12,,,,63,112
49568,control_change,60,0,13,,,,,,,,,12,11,102,,,
49570,control_change,7,0,12,,,,,,,,,11,11,99,,,
49572,note_on,0,0,14,,,,,,,,,13,,,,51,112
49572,control_change,60,0,14,,,,,,,,,13,11,102,,,
49573,control_change,0,0,9,,,,,,,,,8,11,102,,,
49573,note_on,5760,0,9,,,,,,,,,8,,,,51,110
49574,control_change,7,0,8,,,,,,,,,7,11,99,,,
49574,control_change,0,0,15,,,,,,,,,14,11,102,,,
49574,note_on,60,0,15,,,,,,,,,14,,,,39,112
49575,control_change,7,0,13,,,,,,,,,12,11,99,,,
49575,control_change,8,0,11,,,,,,,,,10,11,96,,,
49578,control_change,8,0,12,,,,,,,,,11,11,96,,,
49579,control_change,7,0,14,,,,,,,,,13,11,99,,,
49580,control_change,7,0,9,,,,,,,,,8,11,99,,,
49581,control_change,7,0,15,,,,,,,,,14,11,99,,,
49582,control_change,8,0,8,,,,,,,,,7,11,96,,,
49582,control_change,7,0,11,,,,,,,,,10,11,93,,,
49583,control_change,8,0,13,,,,,,,,,12,11,96,,,
49585,control_change,7,0,12,,,,,,,,,11,11,93,,,
49587,control_change,8,0,14,,,,,,,,,13,11,96,,,
49588,control_change,8,0,9,,,,,,,,,8,11,96,,,
49589,control_change,7,0,8,,,,,,,,,7,11,93,,,
49589,control_change,8,0,15,,,,,,,,,14,11,96,,,
49590,control_change,7,0,13,,,,,,,,,12,11,93,,,
49590,control_change,8,0,11,,,,,,,,,10,11,90,,,
49593,control_change,8,0,12,,,,,,,,,11,11,90,,,
49594,control_change,7,0,14,,,,,,,,,13,11,93,,,
49595,control_change,7,0,9,,,,,,,,,8,11,93,,,
49596,control_change,7,0,15,,,,,,,,,14,11,93,,,
49597,control_change,8,0,8,,,,,,,,,7,11,90,,,
49597,control_change,7,0,11,,,,,,,,,10,11,87,,,
49598,control_change,8,0,13,,,,,,,,,12,11,90,,,
49600,control_change,7,0,12,,,,,,,,,11,11,87,,,
49602,control_change,8,0,14,,,,,,,,,13,11,90,,,
49603,control_change,8,0,9,,,,,,,,,8,11,90,,,
49604,control_change,7,0,8,,,,,,,,,7,11,87,,,
49604,control_change,8,0,15,,,,,,,,,14,11,90,,,
49605,control_change,7,0,13,,,,,,,,,12,11,87,,,
49609,control_change,7,0,14,,,,,,,,,13,11,87,,,
49610,control_change,7,0,9,,,,,,,,,8,11,87,,,
49611,control_change,7,0,15,,,,,,,,,14,11,87,,,
49612,control_change,8,0,8,,,,,,,,,7,11,84,,,
49618,control_change,8,0,9,,,,,,,,,8,11,84,,,
49620,note_on,23,0,11,,,,,,,,,10,,,,63,0
49623,note_on,23,0,12,,,,,,,,,11,,,,63,0
49628,note_on,23,0,13,,,,,,,,,12,,,,63,0
49632,note_on,23,0,14,,,,,,,,,13,,,,51,0
49634,note_on,23,0,15,,,,,,,,,14,,,,39,0
49680,set_tempo,120,1,0,,,,,,254237,,,,,,,,
49683,note_on,720,0,5,,,,,,,,,4,,,,67,100
49684,note_on,0,0,2,,,,,,,,,1,,,,73,100
49684,note_on,780,0,2,,,,,,,,,1,,,,70,100
49685,note_on,0,0,3,,,,,,,,,2,,,,73,101
49685,note_on,780,0,3,,,,,,,,,2,,,,70,101
49687,note_on,0,0,8,,,,,,,,,7,,,,63,0
49687,note_on,75,0,8,,,,,,,,,7,,,,51,0
49689,note_on,780,0,4,,,,,,,,,3,,,,63,100
49693,note_on,75,0,9,,,,,,,,,8,,,,51,0
49714,note_on,30,0,2,,,,,,,,,1,,,,73,0
49714,note_on,0,0,2,,,,,,,,,1,,,,70,0
49715,note_on,0,0,3,,,,,,,,,2,,,,70,0
49715,note_on,30,0,3,,,,,,,,,2,,,,73,0
49744,note_on,0,0,2,,,,,,,,,1,,,,70,100
49744,note_on,30,0,2,,,,,,,,,1,,,,73,100
49745,note_on,0,0,3,,,,,,,,,2,,,,70,101
49745,note_on,30,0,3,,,,,,,,,2,,,,73,101
49774,note_on,0,0,2,,,,,,,,,1,,,,73,0
49774,note_on,30,0,2,,,,,,,,,1,,,,70,0
49775,note_on,30,0,3,,,,,,,,,2,,,,70,0
49775,note_on,0,0,3,,,,,,,,,2,,,,73,0
49800,set_tempo,120,1,0,,,,,,263158,,,,,,,,
49804,note_on,30,0,2,,,,,,,,,1,,,,72,100
49804,note_on,0,0,2,,,,,,,,,1,,,,75,100
49805,note_on,30,0,3,,,,,,,,,2,,,,72,101
49805,note_on,0,0,3,,,,,,,,,2,,,,75,101
49864,note_on,0,0,2,,,,,,,,,1,,,,73,100
49864,note_on,60,0,2,,,,,,,,,1,,,,75,0
49864,note_on,0,0,2,,,,,,,,,1,,,,72,0
49864,note_on,0,0,2,,,,,,,,,1,,,,70,100
49865,note_on,0,0,3,,,,,,,,,2,,,,70,101
49865,note_on,0,0,3,,,,,,,,,2,,,,72,0
49865,note_on,60,0,3,,,,,,,,,2,,,,75,0
49865,note_on,0,0,3,,,,,,,,,2,,,,73,101
49920,set_tempo,120,1,0,,,,,,288462,,,,,,,,
49924,note_on,0,0,2,,,,,,,,,1,,,,72,100
49924,note_on,60,0,2,,,,,,,,,1,,,,73,0
49924,note_on,0,0,2,,,,,,,,,1,,,,70,0
49924,note_on,0,0,2,,,,,,,,,1,,,,75,100
49925,note_on,60,0,3,,,,,,,,,2,,,,73,0
49925,note_on,0,0,3,,,,,,,,,2,,,,75,101
49925,note_on,0,0,3,,,,,,,,,2,,,,70,0
49925,note_on,0,0,3,,,,,,,,,2,,,,72,101
49984,note_on,60,0,2,,,,,,,,,1,,,,72,0
49984,note_on,0,0,2,,,,,,,,,1,,,,75,0
49984,note_on,0,0,2,,,,,,,,,1,,,,70,100
49984,note_on,0,0,2,,,,,,,,,1,,,,73,100
49985,note_on,0,0,3,,,,,,,,,2,,,,73,101
49985,note_on,0,0,3,,,,,,,,,2,,,,70,101
49985,note_on,0,0,3,,,,,,,,,2,,,,75,0
49985,note_on,60,0,3,,,,,,,,,2,,,,72,0
50040,set_tempo,120,1,0,,,,,,258621,,,,,,,,
50043,note_on,360,0,5,,,,,,,,,4,,,,67,0
50043,note_on,0,0,5,,,,,,,,,4,,,,67,100
50044,note_on,60,0,2,,,,,,,,,1,,,,73,0
50044,note_on,0,0,2,,,,,,,,,1,,,,73,100
50044,note_on,0,0,2,,,,,,,,,1,,,,77,100
50044,note_on,0,0,2,,,,,,,,,1,,,,70,0
50045,note_on,60,0,3,,,,,,,,,2,,,,73,0
50045,note_on,0,0,3,,,,,,,,,2,,,,70,0
50045,note_on,0,0,3,,,,,,,,,2,,,,77,101
50045,note_on,0,0,3,,,,,,,,,2,,,,73,101
50049,note_on,0,0,4,,,,,,,,,3,,,,63,100
50049,note_on,360,0,4,,,,,,,,,3,,,,63,0
50104,note_on,0,0,2,,,,,,,,,1,,,,73,0
50104,note_on,60,0,2,,,,,,,,,1,,,,77,0
50105,note_on,0,0,3,,,,,,,,,2,,,,73,0
50105,note_on,60,0,3,,,,,,,,,2,,,,77,0
50109,note_on,60,0,4,,,,,,,,,3,,,,63,0
50163,note_on,120,0,5,,,,,,,,,4,,,,67,0
50163,note_on,0,0,5,,,,,,,,,4,,,,67,100
50164,note_on,0,0,2,,,,,,,,,1,,,,73,100
50164,note_on,60,0,2,,,,,,,,,1,,,,73,100
50164,note_on,0,0,2,,,,,,,,,1,,,,77,100
50165,note_on,60,0,3,,,,,,,,,2,,,,73,101
50165,note_on,0,0,3,,,,,,,,,2,,,,77,101
50169,note_on,60,0,4,,,,,,,,,3,,,,63,100
50224,note_on,60,0,2,,,,,,,,,1,,,,73,0
50224,note_on,0,0,2,,,,,,,,,1,,,,77,0
50224,note_on,0,0,2,,,,,,,,,1,,,,73,0
50225,note_on,60,0,3,,,,,,,,,2,,,,77,0
50225,note_on,0,0,3,,,,,,,,,2,,,,73,0
50229,note_on,60,0,4,,,,,,,,,3,,,,63,0
50280,set_tempo,240,1,0,,,,,,288462,,,,,,,,
50281,note_on,1380,0,1,,,,,,,,,0,,,,73,101
50281,control_change,0,0,1,,,,,,,,,0,11,86,,,
50281,note_on,0,0,1,,,,,,,,,0,,,,82,101
50283,control_change,0,0,5,,,,,,,,,4,11,102,,,
50283,note_on,120,0,5,,,,,,,,,4,,,,67,0
50283,note_on,0,0,5,,,,,,,,,4,,,,67,100
50284,note_on,0,0,2,,,,,,,,,1,,,,82,100
50284,control_change,60,0,2,,,,,,,,,1,11,86,,,
50285,note_on,60,0,3,,,,,,,,,2,,,,73,101
50285,note_on,0,0,3,,,,,,,,,2,,,,82,101
50285,control_change,0,0,3,,,,,,,,,2,11,86,,,
50287,control_change,0,0,8,,,,,,,,,7,11,102,,,
50287,note_on,0,0,8,,,,,,,,,7,,,,67,110
50287,note_on,600,0,8,,,,,,,,,7,,,,63,110
50288,control_change,7,0,1,,,,,,,,,0,11,83,,,
50289,note_on,0,0,4,,,,,,,,,3,,,,63,100
50289,control_change,60,0,4,,,,,,,,,3,11,97,,,
50290,control_change,7,0,5,,,,,,,,,4,11,99,,,
50291,control_change,7,0,2,,,,,,,,,1,11,83,,,
50292,control_change,7,0,3,,,,,,,,,2,11,83,,,
50294,control_change,7,0,8,,,,,,,,,7,11,99,,,
50296,control_change,7,0,4,,,,,,,,,3,11,94,,,
50298,control_change,8,0,5,,,,,,,,,4,11,96,,,
50302,control_change,8,0,8,,,,,,,,,7,11,96,,,
50303,control_change,15,0,1,,,,,,,,,0,11,79,,,
50304,control_change,8,0,4,,,,,,,,,3,11,91,,,
50305,control_change,7,0,5,,,,,,,,,4,11,93,,,
50306,control_change,15,0,2,,,,,,,,,1,11,79,,,
50307,control_change,15,0,3,,,,,,,,,2,11,79,,,
50309,control_change,7,0,8,,,,,,,,,7,11,93,,,
50311,control_change,8,0,1,,,,,,,,,0,11,76,,,
50311,control_change,7,0,4,,,,,,,,,3,11,88,,,
50313,control_change,8,0,5,,,,,,,,,4,11,90,,,
50314,control_change,8,0,2,,,,,,,,,1,11,76,,,
50315,control_change,8,0,3,,,,,,,,,2,11,76,,,
50317,control_change,8,0,8,,,,,,,,,7,11,90,,,
50319,control_change,8,0,4,,,,,,,,,3,11,85,,,
50320,control_change,7,0,5,,,,,,,,,4,11,87,,,
50324,control_change,7,0,8,,,,,,,,,7,11,87,,,
50326,control_change,15,0,1,,,,,,,,,0,11,72,,,
50326,control_change,7,0,4,,,,,,,,,3,11,82,,,
50328,control_change,8,0,5,,,,,,,,,4,11,84,,,
50329,control_change,15,0,2,,,,,,,,,1,11,72,,,
50330,control_change,15,0,3,,,,,,,,,2,11,72,,,
50332,control_change,8,0,8,,,,,,,,,7,11,84,,,
50334,control_change,8,0,4,,,,,,,,,3,11,79,,,
50341,note_on,15,0,1,,,,,,,,,0,,,,82,0
50341,note_on,0,0,1,,,,,,,,,0,,,,73,0
50344,note_on,15,0,2,,,,,,,,,1,,,,82,0
50345,note_on,0,0,3,,,,,,,,,2,,,,73,0
50345,note_on,15,0,3,,,,,,,,,2,,,,82,0
50349,note_on,15,0,4,,,,,,,,,3,,,,63,0
50400,note_on,780,0,11,,,,,,,,,10,,,,55,112
50400,set_tempo,120,1,0,,,,,,254237,,,,,,,,
50403,note_on,780,0,12,,,,,,,,,11,,,,55,112
50403,note_on,75,0,5,,,,,,,,,4,,,,67,0
50407,note_on,0,0,8,,,,,,,,,7,,,,63,0
50407,note_on,75,0,8,,,,,,,,,7,,,,67,0
50408,note_on,780,0,13,,,,,,,,,12,,,,55,112
50412,note_on,780,0,14,,,,,,,,,13,,,,43,112
50414,note_on,780,0,15,,,,,,,,,14,,,,31,112
50430,note_on,30,0,11,,,,,,,,,10,,,,55,0
50433,note_on,30,0,12,,,,,,,,,11,,,,55,0
50438,note_on,30,0,13,,,,,,,,,12,,,,55,0
50442,note_on,30,0,14,,,,,,,,,13,,,,43,0
50444,note_on,30,0,15,,,,,,,,,14,,,,31,0
50460,note_on,30,0,11,,,,,,,,,10,,,,55,112
50463,note_on,30,0,12,,,,,,,,,11,,,,55,112
50468,note_on,30,0,13,,,,,,,,,12,,,,55,112
50472,note_on,30,0,14,,,,,,,,,13,,,,43,112
50474,note_on,30,0,15,,,,,,,,,14,,,,31,112
50490,note_on,30,0,11,,,,,,,,,10,,,,55,0
50493,note_on,30,0,12,,,,,,,,,11,,,,55,0
50498,note_on,30,0,13,,,,,,,,,12,,,,55,0
50502,note_on,30,0,14,,,,,,,,,13,,,,43,0
50504,note_on,30,0,15,,,,,,,,,14,,,,31,0
50520,set_tempo,120,1,0,,,,,,263158,,,,,,,,
50520,note_on,30,0,11,,,,,,,,,10,,,,56,112
50523,note_on,30,0,12,,,,,,,,,11,,,,56,112
50528,note_on,30,0,13,,,,,,,,,12,,,,56,112
50532,note_on,30,0,14,,,,,,,,,13,,,,44,112
50534,note_on,30,0,15,,,,,,,,,14,,,,32,112
50550,note_on,30,0,11,,,,,,,,,10,,,,56,0
50553,note_on,30,0,12,,,,,,,,,11,,,,56,0
50558,note_on,30,0,13,,,,,,,,,12,,,,56,0
50562,note_on,30,0,14,,,,,,,,,13,,,,44,0
50564,note_on,30,0,15,,,,,,,,,14,,,,32,0
50580,note_on,30,0,11,,,,,,,,,10,,,,55,112
50583,note_on,30,0,12,,,,,,,,,11,,,,55,112
50588,note_on,30,0,13,,,,,,,,,12,,,,55,112
50592,note_on,30,0,14,,,,,,,,,13,,,,43,112
50594,note_on,30,0,15,,,,,,,,,14,,,,31,112
50610,note_on,30,0,11,,,,,,,,,10,,,,55,0
50613,note_on,30,0,12,,,,,,,,,11,,,,55,0
50618,note_on,30,0,13,,,,,,,,,12,,,,55,0
50622,note_on,30,0,14,,,,,,,,,13,,,,43,0
50624,note_on,30,0,15,,,,,,,,,14,,,,31,0
50640,note_on,30,0,11,,,,,,,,,10,,,,56,112
50640,set_tempo,120,1,0,,,,,,288462,,,,,,,,
50643,note_on,30,0,12,,,,,,,,,11,,,,56,112
50648,note_on,30,0,13,,,,,,,,,12,,,,56,112
50652,note_on,30,0,14,,,,,,,,,13,,,,44,112
50654,note_on,30,0,15,,,,,,,,,14,,,,32,112
50670,note_on,30,0,11,,,,,,,,,10,,,,56,0
50673,note_on,30,0,12,,,,,,,,,11,,,,56,0
50678,note_on,30,0,13,,,,,,,,,12,,,,56,0
50682,note_on,30,0,14,,,,,,,,,13,,,,44,0
50684,note_on,30,0,15,,,,,,,,,14,,,,32,0
50700,note_on,30,0,11,,,,,,,,,10,,,,55,112
50703,note_on,30,0,12,,,,,,,,,11,,,,55,112
50708,note_on,30,0,13,,,,,,,,,12,,,,55,112
50712,note_on,30,0,14,,,,,,,,,13,,,,43,112
50714,note_on,30,0,15,,,,,,,,,14,,,,31,112
50730,note_on,30,0,11,,,,,,,,,10,,,,55,0
50733,note_on,30,0,12,,,,,,,,,11,,,,55,0
50738,note_on,30,0,13,,,,,,,,,12,,,,55,0
50742,note_on,30,0,14,,,,,,,,,13,,,,43,0
50744,note_on,30,0,15,,,,,,,,,14,,,,31,0
50760,set_tempo,120,1,0,,,,,,258621,,,,,,,,
50760,note_on,30,0,11,,,,,,,,,10,,,,58,112
50763,note_on,30,0,12,,,,,,,,,11,,,,58,112
50768,note_on,30,0,13,,,,,,,,,12,,,,58,112
50772,note_on,30,0,14,,,,,,,,,13,,,,46,112
50774,note_on,30,0,15,,,,,,,,,14,,,,34,112
50820,note_on,60,0,11,,,,,,,,,10,,,,58,0
50823,note_on,60,0,12,,,,,,,,,11,,,,58,0
50828,note_on,60,0,13,,,,,,,,,12,,,,58,0
50832,note_on,60,0,14,,,,,,,,,13,,,,46,0
50834,note_on,60,0,15,,,,,,,,,14,,,,34,0
50880,note_on,60,0,11,,,,,,,,,10,,,,58,112
50883,note_on,60,0,12,,,,,,,,,11,,,,58,112
50888,note_on,60,0,13,,,,,,,,,12,,,,58,112
50892,note_on,60,0,14,,,,,,,,,13,,,,46,112
50894,note_on,60,0,15,,,,,,,,,14,,,,34,112
50940,note_on,60,0,11,,,,,,,,,10,,,,58,0
50943,note_on,60,0,12,,,,,,,,,11,,,,58,0
50948,note_on,60,0,13,,,,,,,,,12,,,,58,0
50952,note_on,60,0,14,,,,,,,,,13,,,,46,0
50954,note_on,60,0,15,,,,,,,,,14,,,,34,0
51000,note_on,0,0,11,,,,,,,,,10,,,,63,112
51000,set_tempo,240,1,0,,,,,,305344,,,,,,,,
51000,control_change,60,0,11,,,,,,,,,10,11,102,,,
51003,control_change,60,0,12,,,,,,,,,11,11,102,,,
51003,note_on,0,0,12,,,,,,,,,11,,,,63,112
51007,control_change,7,0,11,,,,,,,,,10,11,99,,,
51007,note_on,0,0,8,,,,,,,,,7,,,,51,110
51007,note_on,0,0,8,,,,,,,,,7,,,,63,110
51007,control_change,600,0,8,,,,,,,,,7,11,102,,,
51008,control_change,0,0,13,,,,,,,,,12,11,102,,,
51008,note_on,60,0,13,,,,,,,,,12,,,,63,112
51010,control_change,7,0,12,,,,,,,,,11,11,99,,,
51012,note_on,0,0,14,,,,,,,,,13,,,,51,112
51012,control_change,60,0,14,,,,,,,,,13,11,102,,,
51013,control_change,1320,0,9,,,,,,,,,8,11,102,,,
51013,note_on,0,0,9,,,,,,,,,8,,,,51,110
51014,control_change,7,0,8,,,,,,,,,7,11,99,,,
51014,note_on,60,0,15,,,,,,,,,14,,,,39,112
51014,control_change,0,0,15,,,,,,,,,14,11,102,,,
51015,control_change,7,0,13,,,,,,,,,12,11,99,,,
51015,control_change,8,0,11,,,,,,,,,10,11,96,,,
51018,control_change,8,0,12,,,,,,,,,11,11,96,,,
51019,control_change,7,0,14,,,,,,,,,13,11,99,,,
51020,control_change,7,0,9,,,,,,,,,8,11,99,,,
51021,control_change,7,0,15,,,,,,,,,14,11,99,,,
51022,control_change,7,0,11,,,,,,,,,10,11,93,,,
51022,control_change,8,0,8,,,,,,,,,7,11,96,,,
51023,control_change,8,0,13,,,,,,,,,12,11,96,,,
51025,control_change,7,0,12,,,,,,,,,11,11,93,,,
51027,control_change,8,0,14,,,,,,,,,13,11,96,,,
51028,control_change,8,0,9,,,,,,,,,8,11,96,,,
51029,control_change,8,0,15,,,,,,,,,14,11,96,,,
51029,control_change,7,0,8,,,,,,,,,7,11,93,,,
51030,control_change,7,0,13,,,,,,,,,12,11,93,,,
51030,control_change,8,0,11,,,,,,,,,10,11,90,,,
51033,control_change,8,0,12,,,,,,,,,11,11,90,,,
51034,control_change,7,0,14,,,,,,,,,13,11,93,,,
51035,control_change,7,0,9,,,,,,,,,8,11,93,,,
51036,control_change,7,0,15,,,,,,,,,14,11,93,,,
51037,control_change,7,0,11,,,,,,,,,10,11,87,,,
51037,control_change,8,0,8,,,,,,,,,7,11,90,,,
51038,control_change,8,0,13,,,,,,,,,12,11,90,,,
51040,control_change,7,0,12,,,,,,,,,11,11,87,,,
51042,control_change,8,0,14,,,,,,,,,13,11,90,,,
51043,control_change,8,0,9,,,,,,,,,8,11,90,,,
51044,control_change,8,0,15,,,,,,,,,14,11,90,,,
51044,control_change,7,0,8,,,,,,,,,7,11,87,,,
51045,control_change,7,0,13,,,,,,,,,12,11,87,,,
51049,control_change,7,0,14,,,,,,,,,13,11,87,,,
51050,control_change,7,0,9,,,,,,,,,8,11,87,,,
51051,control_change,7,0,15,,,,,,,,,14,11,87,,,
51052,control_change,8,0,8,,,,,,,,,7,11,84,,,
51058,control_change,8,0,9,,,,,,,,,8,11,84,,,
51060,note_on,23,0,11,,,,,,,,,10,,,,63,0
51063,note_on,23,0,12,,,,,,,,,11,,,,63,0
51068,note_on,23,0,13,,,,,,,,,12,,,,63,0
51072,note_on,23,0,14,,,,,,,,,13,,,,51,0
51074,note_on,23,0,15,,,,,,,,,14,,,,39,0
51120,set_tempo,120,1,0,,,,,,263158,,,,,,,,
51121,note_on,0,0,1,,,,,,,,,0,,,,73,101
51121,note_on,0,0,1,,,,,,,,,0,,,,77,101
51121,control_change,780,0,1,,,,,,,,,0,11,42,,,
51123,note_on,0,0,5,,,,,,,,,4,,,,67,100
51123,control_change,720,0,5,,,,,,,,,4,11,47,,,
51124,note_on,780,0,2,,,,,,,,,1,,,,73,100
51124,control_change,0,0,2,,,,,,,,,1,11,42,,,
51127,note_on,0,0,8,,,,,,,,,7,,,,63,0
51127,note_on,75,0,8,,,,,,,,,7,,,,51,0
51129,note_on,0,0,4,,,,,,,,,3,,,,67,100
51129,control_change,780,0,4,,,,,,,,,3,11,42,,,
51133,note_on,75,0,9,,,,,,,,,8,,,,51,0
51181,note_on,0,0,1,,,,,,,,,0,,,,73,0
51181,note_on,60,0,1,,,,,,,,,0,,,,77,0
51184,note_on,60,0,2,,,,,,,,,1,,,,73,0
51209,note_on,80,0,4,,,,,,,,,3,,,,67,0
51213,note_on,90,0,5,,,,,,,,,4,,,,67,0
51241,note_on,0,0,1,,,,,,,,,0,,,,73,101
51241,control_change,0,0,1,,,,,,,,,0,11,42,,,
51241,note_on,60,0,1,,,,,,,,,0,,,,77,101
51243,note_on,30,0,5,,,,,,,,,4,,,,67,100
51244,note_on,0,0,2,,,,,,,,,1,,,,73,100
51244,control_change,60,0,2,,,,,,,,,1,11,42,,,
51245,control_change,900,0,3,,,,,,,,,2,11,42,,,
51249,note_on,0,0,4,,,,,,,,,3,,,,67,100
51249,control_change,40,0,4,,,,,,,,,3,11,42,,,
51301,note_on,0,0,1,,,,,,,,,0,,,,77,0
51301,note_on,60,0,1,,,,,,,,,0,,,,73,0
51304,note_on,60,0,2,,,,,,,,,1,,,,73,0
51329,note_on,80,0,4,,,,,,,,,3,,,,67,0
51333,note_on,90,0,5,,,,,,,,,4,,,,67,0
51337,control_change,36,0,1,,,,,,,,,0,11,41,,,
51340,control_change,36,0,2,,,,,,,,,1,11,41,,,
51341,control_change,96,0,3,,,,,,,,,2,11,41,,,
51345,control_change,16,0,4,,,,,,,,,3,11,41,,,
51360,set_tempo,240,1,0,,,,,,288462,,,,,,,,
51361,note_on,0,0,1,,,,,,,,,0,,,,73,116
51361,note_on,24,0,1,,,,,,,,,0,,,,82,116
51363,note_on,30,0,5,,,,,,,,,4,,,,67,115
51364,note_on,24,0,2,,,,,,,,,1,,,,77,115
51369,note_on,24,0,4,,,,,,,,,3,,,,67,115
51421,note_on,60,0,1,,,,,,,,,0,,,,73,0
51421,note_on,0,0,1,,,,,,,,,0,,,,82,0
51424,note_on,60,0,2,,,,,,,,,1,,,,77,0
51433,control_change,12,0,1,,,,,,,,,0,11,40,,,
51436,control_change,12,0,2,,,,,,,,,1,11,40,,,
51437,control_change,96,0,3,,,,,,,,,2,11,40,,,
51441,control_change,72,0,4,,,,,,,,,3,11,40,,,
51449,note_on,8,0,4,,,,,,,,,3,,,,67,0
51453,note_on,90,0,5,,,,,,,,,4,,,,67,0
51480,set_tempo,120,1,0,,,,,,263158,,,,,,,,
51481,note_on,48,0,1,,,,,,,,,0,,,,77,101
51481,note_on,0,0,1,,,,,,,,,0,,,,73,101
51484,note_on,48,0,2,,,,,,,,,1,,,,73,100
51489,note_on,40,0,4,,,,,,,,,3,,,,67,100
51529,control_change,48,0,1,,,,,,,,,0,11,39,,,
51532,control_change,48,0,2,,,,,,,,,1,11,39,,,
51533,control_change,96,0,3,,,,,,,,,2,11,39,,,
51537,control_change,48,0,4,,,,,,,,,3,11,39,,,
51541,note_on,0,0,1,,,,,,,,,0,,,,77,0
51541,note_on,12,0,1,,,,,,,,,0,,,,73,0
51544,note_on,12,0,2,,,,,,,,,1,,,,73,0
51569,note_on,32,0,4,,,,,,,,,3,,,,67,0
51601,note_on,60,0,1,,,,,,,,,0,,,,73,101
51601,note_on,0,0,1,,,,,,,,,0,,,,77,101
51604,note_on,60,0,2,,,,,,,,,1,,,,73,100
51609,note_on,40,0,4,,,,,,,,,3,,,,67,100
51625,control_change,24,0,1,,,,,,,,,0,11,38,,,
51628,control_change,24,0,2,,,,,,,,,1,11,38,,,
51629,control_change,96,0,3,,,,,,,,,2,11,38,,,
51633,control_change,24,0,4,,,,,,,,,3,11,38,,,
51661,note_on,0,0,1,,,,,,,,,0,,,,73,0
51661,note_on,36,0,1,,,,,,,,,0,,,,77,0
51664,note_on,36,0,2,,,,,,,,,1,,,,73,0
51689,note_on,56,0,4,,,,,,,,,3,,,,67,0
51720,set_tempo,240,1,0,,,,,,288462,,,,,,,,
51721,control_change,0,0,1,,,,,,,,,0,11,37,,,
51721,note_on,60,0,1,,,,,,,,,0,,,,82,116
51721,note_on,0,0,1,,,,,,,,,0,,,,73,116
51724,note_on,0,0,2,,,,,,,,,1,,,,76,115
51724,control_change,60,0,2,,,,,,,,,1,11,37,,,
51725,control_change,96,0,3,,,,,,,,,2,11,37,,,
51729,control_change,0,0,4,,,,,,,,,3,11,37,,,
51729,note_on,40,0,4,,,,,,,,,3,,,,67,115
51781,note_on,0,0,1,,,,,,,,,0,,,,82,0
51781,note_on,60,0,1,,,,,,,,,0,,,,73,0
51784,note_on,60,0,2,,,,,,,,,1,,,,76,0
51809,note_on,80,0,4,,,,,,,,,3,,,,67,0
51817,control_change,36,0,1,,,,,,,,,0,11,36,,,
51820,control_change,36,0,2,,,,,,,,,1,11,36,,,
51821,control_change,96,0,3,,,,,,,,,2,11,36,,,
51825,control_change,16,0,4,,,,,,,,,3,11,36,,,
51840,set_tempo,120,1,0,,,,,,263158,,,,,,,,
51841,note_on,0,0,1,,,,,,,,,0,,,,73,101
51841,note_on,24,0,1,,,,,,,,,0,,,,77,101
51844,note_on,24,0,2,,,,,,,,,1,,,,73,100
51849,note_on,24,0,4,,,,,,,,,3,,,,67,100
51901,note_on,60,0,1,,,,,,,,,0,,,,73,0
51901,note_on,0,0,1,,,,,,,,,0,,,,77,0
51904,note_on,60,0,2,,,,,,,,,1,,,,73,0
51913,control_change,12,0,1,,,,,,,,,0,11,35,,,
51916,control_change,12,0,2,,,,,,,,,1,11,35,,,
51917,control_change,96,0,3,,,,,,,,,2,11,35,,,
51921,control_change,72,0,4,,,,,,,,,3,11,35,,,
51929,note_on,8,0,4,,,,,,,,,3,,,,67,0
51961,note_on,48,0,1,,,,,,,,,0,,,,73,101
51961,note_on,0,0,1,,,,,,,,,0,,,,77,101
51964,note_on,48,0,2,,,,,,,,,1,,,,73,100
51969,note_on,40,0,4,,,,,,,,,3,,,,67,100
52009,control_change,48,0,1,,,,,,,,,0,11,34,,,
52012,control_change,48,0,2,,,,,,,,,1,11,34,,,
52013,control_change,96,0,3,,,,,,,,,2,11,34,,,
52017,control_change,48,0,4,,,,,,,,,3,11,34,,,
52021,note_on,12,0,1,,,,,,,,,0,,,,77,0
52021,note_on,0,0,1,,,,,,,,,0,,,,73,0
52024,note_on,12,0,2,,,,,,,,,1,,,,73,0
52049,note_on,32,0,4,,,,,,,,,3,,,,67,0
52080,set_tempo,240,1,0,,,,,,304569,,,,,,,,
52081,note_on,60,0,1,,,,,,,,,0,,,,73,116
52081,note_on,0,0,1,,,,,,,,,0,,,,82,116
52084,note_on,60,0,2,,,,,,,,,1,,,,76,115
52089,note_on,40,0,4,,,,,,,,,3,,,,67,115
52105,control_change,24,0,1,,,,,,,,,0,11,33,,,
52108,control_change,24,0,2,,,,,,,,,1,11,33,,,
52109,control_change,96,0,3,,,,,,,,,2,11,33,,,
52113,control_change,24,0,4,,,,,,,,,3,11,33,,,
52141,note_on,0,0,1,,,,,,,,,0,,,,73,0
52141,note_on,36,0,1,,,,,,,,,0,,,,82,0
52144,note_on,36,0,2,,,,,,,,,1,,,,76,0
52169,note_on,56,0,4,,,,,,,,,3,,,,67,0
52200,set_tempo,120,1,0,,,,,,254237,,,,,,,,
52201,control_change,0,0,1,,,,,,,,,0,11,55,,,
52201,note_on,0,0,1,,,,,,,,,0,,,,73,101
52201,note_on,60,0,1,,,,,,,,,0,,,,82,101
52203,note_on,1140,0,12,,,,,,,,,11,,,,64,97
52203,control_change,0,0,12,,,,,,,,,11,11,41,,,
52204,control_change,60,0,2,,,,,,,,,1,11,32,,,
52205,control_change,0,0,3,,,,,,,,,2,11,32,,,
52205,note_on,96,0,3,,,,,,,,,2,,,,70,101
52207,program_change,1139,0,13,,,,,,,,48,12,,,,,
52208,note_on,1,0,13,,,,,,,,,12,,,,54,97
52208,control_change,0,0,13,,,,,,,,,12,11,41,,,
52209,note_on,0,0,4,,,,,,,,,3,,,,66,100
52209,note_on,40,0,4,,,,,,,,,3,,,,64,100
52209,control_change,0,0,4,,,,,,,,,3,11,32,,,
52212,note_on,1140,0,14,,,,,,,,,13,,,,54,112
52212,control_change,0,0,14,,,,,,,,,13,11,41,,,
52214,note_on,1140,0,15,,,,,,,,,14,,,,42,112
52214,control_change,0,0,15,,,,,,,,,14,11,41,,,
52229,control_change,24,0,3,,,,,,,,,2,11,34,,,
52233,control_change,24,0,4,,,,,,,,,3,11,34,,,
52253,control_change,24,0,3,,,,,,,,,2,11,36,,,
52257,control_change,24,0,4,,,,,,,,,3,11,36,,,
52263,note_on,60,0,12,,,,,,,,,11,,,,64,0
52268,note_on,60,0,13,,,,,,,,,12,,,,54,0
52277,control_change,24,0,3,,,,,,,,,2,11,38,,,
52281,control_change,24,0,4,,,,,,,,,3,11,38,,,
52301,control_change,24,0,3,,,,,,,,,2,11,40,,,
52305,control_change,24,0,4,,,,,,,,,3,11,40,,,
52320,set_tempo,120,1,0,,,,,,263158,,,,,,,,
52323,note_on,60,0,12,,,,,,,,,11,,,,64,97
52325,control_change,24,0,3,,,,,,,,,2,11,42,,,
52328,note_on,60,0,13,,,,,,,,,12,,,,54,97
52329,control_change,24,0,4,,,,,,,,,3,11,42,,,
52332,note_on,120,0,14,,,,,,,,,13,,,,54,0
52334,note_on,120,0,15,,,,,,,,,14,,,,42,0
52383,note_on,60,0,12,,,,,,,,,11,,,,64,0
52388,note_on,60,0,13,,,,,,,,,12,,,,54,0
52440,set_tempo,120,1,0,,,,,,288462,,,,,,,,
52443,note_on,60,0,12,,,,,,,,,11,,,,66,109
52448,note_on,60,0,13,,,,,,,,,12,,,,64,109
52503,note_on,60,0,12,,,,,,,,,11,,,,66,0
52508,note_on,60,0,13,,,,,,,,,12,,,,64,0
52555,note_on,230,0,3,,,,,,,,,2,,,,70,0
52559,note_on,230,0,4,,,,,,,,,3,,,,66,0
52559,note_on,0,0,4,,,,,,,,,3,,,,64,0
52560,set_tempo,120,1,0,,,,,,254237,,,,,,,,
52561,note_on,0,0,1,,,,,,,,,0,,,,82,0
52561,note_on,0,0,1,,,,,,,,,0,,,,75,101
52561,note_on,0,0,1,,,,,,,,,0,,,,83,101
52561,note_on,360,0,1,,,,,,,,,0,,,,73,0
52563,note_on,60,0,12,,,,,,,,,11,,,,63,97
52565,note_on,10,0,3,,,,,,,,,2,,,,71,101
52568,note_on,60,0,13,,,,,,,,,12,,,,54,97
52569,note_on,10,0,4,,,,,,,,,3,,,,66,100
52569,note_on,0,0,4,,,,,,,,,3,,,,63,100
52572,note_on,240,0,14,,,,,,,,,13,,,,54,112
52574,note_on,240,0,15,,,,,,,,,14,,,,42,112
52623,note_on,60,0,12,,,,,,,,,11,,,,63,0
52628,note_on,60,0,13,,,,,,,,,12,,,,54,0
52680,set_tempo,120,1,0,,,,,,263158,,,,,,,,
52681,note_on,0,0,1,,,,,,,,,0,,,,82,101
52681,note_on,120,0,1,,,,,,,,,0,,,,83,0
52683,note_on,60,0,12,,,,,,,,,11,,,,63,97
52688,note_on,60,0,13,,,,,,,,,12,,,,54,97
52692,note_on,120,0,14,,,,,,,,,13,,,,54,0
52694,note_on,120,0,15,,,,,,,,,14,,,,42,0
52743,note_on,60,0,12,,,,,,,,,11,,,,63,0
52748,note_on,60,0,13,,,,,,,,,12,,,,54,0
52800,set_tempo,120,1,0,,,,,,288462,,,,,,,,
52801,note_on,0,0,1,,,,,,,,,0,,,,80,101
52801,note_on,120,0,1,,,,,,,,,0,,,,82,0
52803,note_on,60,0,12,,,,,,,,,11,,,,66,109
52808,note_on,60,0,13,,,,,,,,,12,,,,63,109
52863,note_on,60,0,12,,,,,,,,,11,,,,66,0
52868,note_on,60,0,13,,,,,,,,,12,,,,63,0
52915,note_on,350,0,3,,,,,,,,,2,,,,71,0
52919,note_on,0,0,4,,,,,,,,,3,,,,66,0
52919,note_on,350,0,4,,,,,,,,,3,,,,63,0
52920,set_tempo,120,1,0,,,,,,254237,,,,,,,,
52921,note_on,0,0,1,,,,,,,,,0,,,,73,101
52921,note_on,0,0,1,,,,,,,,,0,,,,75,0
52921,note_on,120,0,1,,,,,,,,,0,,,,80,0
52921,note_on,0,0,1,,,,,,,,,0,,,,78,101
52923,note_on,60,0,12,,,,,,,,,11,,,,64,97
52925,note_on,10,0,3,,,,,,,,,2,,,,70,101
52928,note_on,60,0,13,,,,,,,,,12,,,,54,97
52929,note_on,10,0,4,,,,,,,,,3,,,,64,100
52929,note_on,0,0,4,,,,,,,,,3,,,,66,100
52932,note_on,240,0,14,,,,,,,,,13,,,,54,112
52934,note_on,240,0,15,,,,,,,,,14,,,,42,112
52983,note_on,60,0,12,,,,,,,,,11,,,,64,0
52988,note_on,60,0,13,,,,,,,,,12,,,,54,0
53040,set_tempo,120,1,0,,,,,,263158,,,,,,,,
53041,note_on,0,0,1,,,,,,,,,0,,,,76,101
53041,note_on,120,0,1,,,,,,,,,0,,,,78,0
53043,note_on,60,0,12,,,,,,,,,11,,,,64,97
53048,note_on,60,0,13,,,,,,,,,12,,,,54,97
53052,note_on,120,0,14,,,,,,,,,13,,,,54,0
53054,note_on,120,0,15,,,,,,,,,14,,,,42,0
53103,note_on,60,0,12,,,,,,,,,11,,,,64,0
53108,note_on,60,0,13,,,,,,,,,12,,,,54,0
53160,set_tempo,120,1,0,,,,,,288462,,,,,,,,
53161,note_on,0,0,1,,,,,,,,,0,,,,73,101
53161,note_on,120,0,1,,,,,,,,,0,,,,76,0
53163,note_on,60,0,12,,,,,,,,,11,,,,66,109
53168,note_on,60,0,13,,,,,,,,,12,,,,64,109
53223,note_on,60,0,12,,,,,,,,,11,,,,66,0
53228,note_on,60,0,13,,,,,,,,,12,,,,64,0
53275,note_on,350,0,3,,,,,,,,,2,,,,70,0
53279,note_on,0,0,4,,,,,,,,,3,,,,64,0
53279,note_on,350,0,4,,,,,,,,,3,,,,66,0
53280,set_tempo,120,1,0,,,,,,254237,,,,,,,,
53281,note_on,120,0,1,,,,,,,,,0,,,,73,0
53281,note_on,0,0,1,,,,,,,,,0,,,,75,101
53281,note_on,0,0,1,,,,,,,,,0,,,,73,0
53281,note_on,0,0,1,,,,,,,,,0,,,,78,101
53283,note_on,60,0,12,,,,,,,,,11,,,,63,97
53285,note_on,10,0,3,,,,,,,,,2,,,,71,101
53288,note_on,60,0,13,,,,,,,,,12,,,,54,97
53289,note_on,10,0,4,,,,,,,,,3,,,,63,100
53289,note_on,0,0,4,,,,,,,,,3,,,,66,100
53292,note_on,240,0,14,,,,,,,,,13,,,,54,112
53294,note_on,240,0,15,,,,,,,,,14,,,,42,112
53343,note_on,60,0,12,,,,,,,,,11,,,,63,0
53348,note_on,60,0,13,,,,,,,,,12,,,,54,0
53400,set_tempo,120,1,0,,,,,,263158,,,,,,,,
53403,note_on,60,0,12,,,,,,,,,11,,,,63,97
53408,note_on,60,0,13,,,,,,,,,12,,,,54,97
53412,note_on,120,0,14,,,,,,,,,13,,,,54,0
53414,note_on,120,0,15,,,,,,,,,14,,,,42,0
53463,note_on,60,0,12,,,,,,,,,11,,,,63,0
53468,note_on,60,0,13,,,,,,,,,12,,,,54,0
53520,set_tempo,120,1,0,,,,,,288462,,,,,,,,
53521,note_on,0,0,1,,,,,,,,,0,,,,75,101
53521,note_on,240,0,1,,,,,,,,,0,,,,78,0
53523,note_on,60,0,12,,,,,,,,,11,,,,66,109
53528,note_on,60,0,13,,,,,,,,,12,,,,63,109
53583,note_on,60,0,12,,,,,,,,,11,,,,66,0
53588,note_on,60,0,13,,,,,,,,,12,,,,63,0
53635,note_on,350,0,3,,,,,,,,,2,,,,71,0
53639,note_on,350,0,4,,,,,,,,,3,,,,66,0
53639,note_on,0,0,4,,,,,,,,,3,,,,63,0
53640,set_tempo,120,1,0,,,,,,254237,,,,,,,,
53641,note_on,120,0,1,,,,,,,,,0,,,,75,0
53641,note_on,0,0,1,,,,,,,,,0,,,,73,101
53641,note_on,0,0,1,,,,,,,,,0,,,,82,101
53641,note_on,0,0,1,,,,,,,,,0,,,,75,0
53643,note_on,60,0,12,,,,,,,,,11,,,,64,97
53645,note_on,10,0,3,,,,,,,,,2,,,,70,101
53648,note_on,60,0,13,,,,,,,,,12,,,,54,97
53649,note_on,0,0,4,,,,,,,,,3,,,,64,100
53649,note_on,10,0,4,,,,,,,,,3,,,,66,100
53652,note_on,240,0,14,,,,,,,,,13,,,,54,112
53654,note_on,240,0,15,,,,,,,,,14,,,,42,112
53703,note_on,60,0,12,,,,,,,,,11,,,,64,0
53708,note_on,60,0,13,,,,,,,,,12,,,,54,0
53760,set_tempo,120,1,0,,,,,,263158,,,,,,,,
53763,note_on,60,0,12,,,,,,,,,11,,,,64,97
53768,note_on,60,0,13,,,,,,,,,12,,,,54,97
53772,note_on,120,0,14,,,,,,,,,13,,,,54,0
53774,note_on,120,0,15,,,,,,,,,14,,,,42,0
53823,note_on,60,0,12,,,,,,,,,11,,,,64,0
53828,note_on,60,0,13,,,,,,,,,12,,,,54,0
53880,set_tempo,120,1,0,,,,,,288462,,,,,,,,
53883,note_on,60,0,12,,,,,,,,,11,,,,66,109
53888,note_on,60,0,13,,,,,,,,,12,,,,64,109
53943,note_on,60,0,12,,,,,,,,,11,,,,66,0
53948,note_on,60,0,13,,,,,,,,,12,,,,64,0
53995,note_on,350,0,3,,,,,,,,,2,,,,70,0
53999,note_on,350,0,4,,,,,,,,,3,,,,64,0
53999,note_on,0,0,4,,,,,,,,,3,,,,66,0
54000,set_tempo,120,1,0,,,,,,254237,,,,,,,,
54001,note_on,0,0,1,,,,,,,,,0,,,,75,101
54001,note_on,0,0,1,,,,,,,,,0,,,,83,101
54001,note_on,360,0,1,,,,,,,,,0,,,,82,0
54001,note_on,0,0,1,,,,,,,,,0,,,,73,0
54003,note_on,60,0,12,,,,,,,,,11,,,,63,97
54005,note_on,10,0,3,,,,,,,,,2,,,,71,101
54008,note_on,60,0,13,,,,,,,,,12,,,,54,97
54009,note_on,10,0,4,,,,,,,,,3,,,,63,100
54009,note_on,0,0,4,,,,,,,,,3,,,,66,100
54012,note_on,240,0,14,,,,,,,,,13,,,,54,112
54014,note_on,240,0,15,,,,,,,,,14,,,,42,112
54063,note_on,60,0,12,,,,,,,,,11,,,,63,0
54068,note_on,60,0,13,,,,,,,,,12,,,,54,0
54120,set_tempo,120,1,0,,,,,,263158,,,,,,,,
54121,note_on,0,0,1,,,,,,,,,0,,,,82,101
54121,note_on,120,0,1,,,,,,,,,0,,,,83,0
54123,note_on,60,0,12,,,,,,,,,11,,,,63,97
54128,note_on,60,0,13,,,,,,,,,12,,,,54,97
54132,note_on,120,0,14,,,,,,,,,13,,,,54,0
54134,note_on,120,0,15,,,,,,,,,14,,,,42,0
54183,note_on,60,0,12,,,,,,,,,11,,,,63,0
54188,note_on,60,0,13,,,,,,,,,12,,,,54,0
54240,set_tempo,120,1,0,,,,,,288462,,,,,,,,
54241,note_on,120,0,1,,,,,,,,,0,,,,82,0
54241,note_on,0,0,1,,,,,,,,,0,,,,80,101
54243,note_on,60,0,12,,,,,,,,,11,,,,66,109
54248,note_on,60,0,13,,,,,,,,,12,,,,63,109
54303,note_on,60,0,12,,,,,,,,,11,,,,66,0
54308,note_on,60,0,13,,,,,,,,,12,,,,63,0
54355,note_on,350,0,3,,,,,,,,,2,,,,71,0
54359,note_on,350,0,4,,,,,,,,,3,,,,66,0
54359,note_on,0,0,4,,,,,,,,,3,,,,63,0
54360,set_tempo,120,1,0,,,,,,254237,,,,,,,,
54361,note_on,120,0,1,,,,,,,,,0,,,,80,0
54361,note_on,0,0,1,,,,,,,,,0,,,,75,0
54361,note_on,0,0,1,,,,,,,,,0,,,,78,101
54361,note_on,0,0,1,,,,,,,,,0,,,,73,101
54363,note_on,60,0,12,,,,,,,,,11,,,,64,97
54365,note_on,10,0,3,,,,,,,,,2,,,,70,101
54368,note_on,60,0,13,,,,,,,,,12,,,,54,97
54369,note_on,0,0,4,,,,,,,,,3,,,,64,100
54369,note_on,10,0,4,,,,,,,,,3,,,,66,100
54372,note_on,240,0,14,,,,,,,,,13,,,,54,112
54374,note_on,240,0,15,,,,,,,,,14,,,,42,112
54423,note_on,60,0,12,,,,,,,,,11,,,,64,0
54428,note_on,60,0,13,,,,,,,,,12,,,,54,0
54480,set_tempo,120,1,0,,,,,,263158,,,,,,,,
54481,note_on,120,0,1,,,,,,,,,0,,,,78,0
54481,note_on,0,0,1,,,,,,,,,0,,,,76,101
54483,note_on,60,0,12,,,,,,,,,11,,,,64,97
54488,note_on,60,0,13,,,,,,,,,12,,,,54,97
54492,note_on,120,0,14,,,,,,,,,13,,,,54,0
54494,note_on,120,0,15,,,,,,,,,14,,,,42,0
54543,note_on,60,0,12,,,,,,,,,11,,,,64,0
54548,note_on,60,0,13,,,,,,,,,12,,,,54,0
54600,set_tempo,120,1,0,,,,,,288462,,,,,,,,
54601,note_on,0,0,1,,,,,,,,,0,,,,73,101
54601,note_on,120,0,1,,,,,,,,,0,,,,76,0
54603,note_on,60,0,12,,,,,,,,,11,,,,66,109
54608,note_on,60,0,13,,,,,,,,,12,,,,64,109
54663,note_on,60,0,12,,,,,,,,,11,,,,66,0
54668,note_on,60,0,13,,,,,,,,,12,,,,64,0
54715,note_on,350,0,3,,,,,,,,,2,,,,70,0
54719,note_on,0,0,4,,,,,,,,,3,,,,66,0
54719,note_on,350,0,4,,,,,,,,,3,,,,64,0
54720,set_tempo,120,1,0,,,,,,254237,,,,,,,,
54721,note_on,120,0,1,,,,,,,,,0,,,,73,0
54721,note_on,0,0,1,,,,,,,,,0,,,,73,0
54721,note_on,0,0,1,,,,,,,,,0,,,,78,101
54721,note_on,0,0,1,,,,,,,,,0,,,,75,101
54723,note_on,60,0,12,,,,,,,,,11,,,,63,97
54725,note_on,10,0,3,,,,,,,,,2,,,,71,101
54728,note_on,60,0,13,,,,,,,,,12,,,,54,97
54729,note_on,0,0,4,,,,,,,,,3,,,,63,100
54729,note_on,10,0,4,,,,,,,,,3,,,,66,100
54732,note_on,240,0,14,,,,,,,,,13,,,,54,112
54734,note_on,240,0,15,,,,,,,,,14,,,,42,112
54783,note_on,60,0,12,,,,,,,,,11,,,,63,0
54788,note_on,60,0,13,,,,,,,,,12,,,,54,0
54840,set_tempo,120,1,0,,,,,,263158,,,,,,,,
54843,note_on,60,0,12,,,,,,,,,11,,,,63,97
54848,note_on,60,0,13,,,,,,,,,12,,,,54,97
54852,note_on,120,0,14,,,,,,,,,13,,,,54,0
54854,note_on,120,0,15,,,,,,,,,14,,,,42,0
54903,note_on,60,0,12,,,,,,,,,11,,,,63,0
54908,note_on,60,0,13,,,,,,,,,12,,,,54,0
54960,set_tempo,120,1,0,,,,,,315789,,,,,,,,
54961,note_on,240,0,1,,,,,,,,,0,,,,78,0
54961,note_on,0,0,1,,,,,,,,,0,,,,75,101
54963,note_on,60,0,12,,,,,,,,,11,,,,66,109
54968,note_on,60,0,13,,,,,,,,,12,,,,63,109
55023,note_on,60,0,12,,,,,,,,,11,,,,66,0
55028,note_on,60,0,13,,,,,,,,,12,,,,63,0
55075,note_on,350,0,3,,,,,,,,,2,,,,71,0
55079,note_on,350,0,4,,,,,,,,,3,,,,63,0
55079,note_on,0,0,4,,,,,,,,,3,,,,66,0
55080,note_on,0,0,11,,,,,,,,,10,,,,83,112
55080,control_change,4020,0,11,,,,,,,,,10,11,41,,,
55080,set_tempo,120,1,0,,,,,,254237,,,,,,,,
55081,note_on,120,0,1,,,,,,,,,0,,,,75,0
55081,note_on,0,0,1,,,,,,,,,0,,,,75,0
55083,control_change,0,0,12,,,,,,,,,11,11,41,,,
55083,control_change,3630,0,5,,,,,,,,,4,11,37,,,
55083,note_on,60,0,12,,,,,,,,,11,,,,62,112
55084,note_on,0,0,2,,,,,,,,,1,,,,83,100
55084,control_change,2880,0,2,,,,,,,,,1,11,37,,,
55084,control_change,11280,0,6,,,,,,,,,5,11,37,,,
55085,note_on,10,0,3,,,,,,,,,2,,,,71,101
55085,control_change,0,0,3,,,,,,,,,2,11,32,,,
55085,note_on,0,0,3,,,,,,,,,2,,,,74,101
55088,control_change,0,0,13,,,,,,,,,12,11,41,,,
55088,note_on,60,0,13,,,,,,,,,12,,,,59,112
55089,note_on,10,0,4,,,,,,,,,3,,,,55,100
55089,note_on,0,0,4,,,,,,,,,3,,,,53,100
55089,control_change,0,0,4,,,,,,,,,3,11,32,,,
55092,control_change,240,0,14,,,,,,,,,13,11,41,,,
55092,note_on,0,0,14,,,,,,,,,13,,,,53,112
55094,control_change,240,0,15,,,,,,,,,14,11,41,,,
55094,note_on,0,0,15,,,,,,,,,14,,,,41,112
55107,control_change,27,0,11,,,,,,,,,10,11,42,,,
55120,control_change,36,0,2,,,,,,,,,1,11,38,,,
55127,control_change,42,0,3,,,,,,,,,2,11,33,,,
55127,control_change,44,0,5,,,,,,,,,4,11,38,,,
55127,control_change,44,0,12,,,,,,,,,11,11,42,,,
55128,control_change,44,0,6,,,,,,,,,5,11,38,,,
55131,control_change,42,0,4,,,,,,,,,3,11,33,,,
55132,control_change,44,0,13,,,,,,,,,12,11,42,,,
55135,control_change,28,0,11,,,,,,,,,10,11,42,,,
55136,control_change,44,0,14,,,,,,,,,13,11,42,,,
55138,control_change,44,0,15,,,,,,,,,14,11,42,,,
55143,note_on,16,0,12,,,,,,,,,11,,,,62,0
55148,note_on,16,0,13,,,,,,,,,12,,,,59,0
55156,control_change,36,0,2,,,,,,,,,1,11,39,,,
55163,control_change,28,0,11,,,,,,,,,10,11,43,,,
55169,control_change,42,0,3,,,,,,,,,2,11,34,,,
55171,control_change,28,0,12,,,,,,,,,11,11,42,,,
55171,control_change,44,0,5,,,,,,,,,4,11,39,,,
55172,control_change,44,0,6,,,,,,,,,5,11,39,,,
55173,control_change,42,0,4,,,,,,,,,3,11,34,,,
55176,control_change,28,0,13,,,,,,,,,12,11,42,,,
55180,control_change,44,0,14,,,,,,,,,13,11,42,,,
55182,control_change,44,0,15,,,,,,,,,14,11,42,,,
55190,control_change,27,0,11,,,,,,,,,10,11,44,,,
55192,control_change,36,0,2,,,,,,,,,1,11,40,,,
55200,set_tempo,120,1,0,,,,,,263158,,,,,,,,
55203,note_on,32,0,12,,,,,,,,,11,,,,62,112
55208,note_on,32,0,13,,,,,,,,,12,,,,59,112
55209,note_on,0,0,4,,,,,,,,,3,,,,53,100
55209,note_on,0,0,4,,,,,,,,,3,,,,55,0
55209,note_on,0,0,4,,,,,,,,,3,,,,55,100
55209,note_on,36,0,4,,,,,,,,,3,,,,53,0
55212,control_change,43,0,3,,,,,,,,,2,11,35,,,
55212,note_on,32,0,14,,,,,,,,,13,,,,53,0
55214,note_on,32,0,15,,,,,,,,,14,,,,41,0
55215,control_change,44,0,5,,,,,,,,,4,11,40,,,
55215,control_change,12,0,12,,,,,,,,,11,11,43,,,
55216,control_change,44,0,6,,,,,,,,,5,11,40,,,
55216,control_change,7,0,4,,,,,,,,,3,11,35,,,
55218,control_change,28,0,11,,,,,,,,,10,11,45,,,
55220,control_change,12,0,13,,,,,,,,,12,11,43,,,
55224,control_change,12,0,14,,,,,,,,,13,11,43,,,
55226,control_change,12,0,15,,,,,,,,,14,11,43,,,
55228,control_change,36,0,2,,,,,,,,,1,11,41,,,
55246,control_change,28,0,11,,,,,,,,,10,11,46,,,
55254,control_change,42,0,3,,,,,,,,,2,11,36,,,
55258,control_change,42,0,4,,,,,,,,,3,11,36,,,
55260,control_change,45,0,5,,,,,,,,,4,11,41,,,
55260,control_change,45,0,12,,,,,,,,,11,11,44,,,
55261,control_change,45,0,6,,,,,,,,,5,11,41,,,
55263,note_on,3,0,12,,,,,,,,,11,,,,62,0
55264,control_change,36,0,2,,,,,,,,,1,11,42,,,
55265,control_change,45,0,13,,,,,,,,,12,11,44,,,
55268,note_on,3,0,13,,,,,,,,,12,,,,59,0
55269,control_change,45,0,14,,,,,,,,,13,11,44,,,
55271,control_change,45,0,15,,,,,,,,,14,11,44,,,
55273,control_change,27,0,11,,,,,,,,,10,11,47,,,
55297,control_change,43,0,3,,,,,,,,,2,11,37,,,
55300,control_change,36,0,2,,,,,,,,,1,11,43,,,
55301,control_change,28,0,11,,,,,,,,,10,11,48,,,
55301,control_change,43,0,4,,,,,,,,,3,11,37,,,
55304,control_change,44,0,5,,,,,,,,,4,11,42,,,
55304,control_change,41,0,12,,,,,,,,,11,11,45,,,
55305,control_change,44,0,6,,,,,,,,,5,11,42,,,
55309,control_change,41,0,13,,,,,,,,,12,11,45,,,
55313,control_change,44,0,14,,,,,,,,,13,11,45,,,
55315,control_change,44,0,15,,,,,,,,,14,11,45,,,
55320,set_tempo,120,1,0,,,,,,288462,,,,,,,,
55323,note_on,19,0,12,,,,,,,,,11,,,,67,127
55328,note_on,19,0,13,,,,,,,,,12,,,,62,127
55329,control_change,28,0,11,,,,,,,,,10,11,49,,,
55329,note_on,0,0,4,,,,,,,,,3,,,,53,0
55329,note_on,0,0,4,,,,,,,,,3,,,,62,100
55329,note_on,0,0,4,,,,,,,,,3,,,,55,100
55329,note_on,28,0,4,,,,,,,,,3,,,,55,0
55336,control_change,36,0,2,,,,,,,,,1,11,44,,,
55339,control_change,42,0,3,,,,,,,,,2,11,38,,,
55343,control_change,14,0,4,,,,,,,,,3,11,38,,,
55348,control_change,44,0,5,,,,,,,,,4,11,43,,,
55348,control_change,25,0,12,,,,,,,,,11,11,46,,,
55349,control_change,44,0,6,,,,,,,,,5,11,43,,,
55353,control_change,25,0,13,,,,,,,,,12,11,46,,,
55356,control_change,27,0,11,,,,,,,,,10,11,50,,,
55357,control_change,44,0,14,,,,,,,,,13,11,46,,,
55359,control_change,44,0,15,,,,,,,,,14,11,46,,,
55372,control_change,36,0,2,,,,,,,,,1,11,45,,,
55382,control_change,43,0,3,,,,,,,,,2,11,39,,,
55383,note_on,35,0,12,,,,,,,,,11,,,,67,0
55384,control_change,28,0,11,,,,,,,,,10,11,51,,,
55386,control_change,43,0,4,,,,,,,,,3,11,39,,,
55388,note_on,35,0,13,,,,,,,,,12,,,,62,0
55393,control_change,10,0,12,,,,,,,,,11,11,47,,,
55393,control_change,45,0,5,,,,,,,,,4,11,44,,,
55394,control_change,45,0,6,,,,,,,,,5,11,44,,,
55398,control_change,10,0,13,,,,,,,,,12,11,47,,,
55402,control_change,45,0,14,,,,,,,,,13,11,47,,,
55404,control_change,45,0,15,,,,,,,,,14,11,47,,,
55408,control_change,36,0,2,,,,,,,,,1,11,46,,,
55412,control_change,28,0,11,,,,,,,,,10,11,52,,,
55424,control_change,42,0,3,,,,,,,,,2,11,40,,,
55428,control_change,42,0,4,,,,,,,,,3,11,40,,,
55435,note_on,0,0,3,,,,,,,,,2,,,,71,0
55435,note_on,11,0,3,,,,,,,,,2,,,,74,0
55437,control_change,44,0,12,,,,,,,,,11,11,48,,,
55437,control_change,44,0,5,,,,,,,,,4,11,45,,,
55438,control_change,44,0,6,,,,,,,,,5,11,45,,,
55440,set_tempo,120,1,0,,,,,,254237,,,,,,,,
55440,note_on,0,0,11,,,,,,,,,10,,,,84,112
55440,control_change,0,0,11,,,,,,,,,10,11,53,,,
55440,note_on,28,0,11,,,,,,,,,10,,,,83,0
55442,control_change,44,0,13,,,,,,,,,12,11,48,,,
55443,note_on,6,0,12,,,,,,,,,11,,,,64,112
55444,note_on,36,0,2,,,,,,,,,1,,,,83,0
55444,control_change,0,0,2,,,,,,,,,1,11,47,,,
55444,note_on,0,0,2,,,,,,,,,1,,,,84,100
55445,note_on,10,0,3,,,,,,,,,2,,,,76,101
55445,note_on,0,0,3,,,,,,,,,2,,,,72,101
55446,control_change,44,0,14,,,,,,,,,13,11,48,,,
55448,control_change,44,0,15,,,,,,,,,14,11,48,,,
55448,note_on,6,0,13,,,,,,,,,12,,,,60,112
55449,note_on,21,0,4,,,,,,,,,3,,,,62,0
55449,note_on,0,0,4,,,,,,,,,3,,,,55,100
55449,note_on,0,0,4,,,,,,,,,3,,,,52,100
55449,note_on,0,0,4,,,,,,,,,3,,,,55,0
55452,note_on,6,0,14,,,,,,,,,13,,,,52,112
55454,note_on,6,0,15,,,,,,,,,14,,,,40,112
55467,control_change,22,0,3,,,,,,,,,2,11,41,,,
55471,control_change,27,0,2,,,,,,,,,1,11,48,,,
55471,control_change,22,0,4,,,,,,,,,3,11,41,,,
55475,control_change,35,0,11,,,,,,,,,10,11,54,,,
55481,control_change,38,0,12,,,,,,,,,11,11,49,,,
55481,control_change,44,0,5,,,,,,,,,4,11,46,,,
55482,control_change,44,0,6,,,,,,,,,5,11,46,,,
55486,control_change,38,0,13,,,,,,,,,12,11,49,,,
55490,control_change,38,0,14,,,,,,,,,13,11,49,,,
55492,control_change,38,0,15,,,,,,,,,14,11,49,,,
55499,control_change,28,0,2,,,,,,,,,1,11,49,,,
55503,note_on,22,0,12,,,,,,,,,11,,,,64,0
55508,note_on,22,0,13,,,,,,,,,12,,,,60,0
55509,control_change,42,0,3,,,,,,,,,2,11,42,,,
55511,control_change,36,0,11,,,,,,,,,10,11,55,,,
55513,control_change,42,0,4,,,,,,,,,3,11,42,,,
55525,control_change,22,0,12,,,,,,,,,11,11,50,,,
55525,control_change,44,0,5,,,,,,,,,4,11,47,,,
55526,control_change,27,0,2,,,,,,,,,1,11,50,,,
55526,control_change,44,0,6,,,,,,,,,5,11,47,,,
55530,control_change,22,0,13,,,,,,,,,12,11,50,,,
55534,control_change,44,0,14,,,,,,,,,13,11,50,,,
55536,control_change,44,0,15,,,,,,,,,14,11,50,,,
55547,control_change,36,0,11,,,,,,,,,10,11,56,,,
55552,control_change,43,0,3,,,,,,,,,2,11,43,,,
55554,control_change,28,0,2,,,,,,,,,1,11,51,,,
55556,control_change,43,0,4,,,,,,,,,3,11,43,,,
55560,set_tempo,120,1,0,,,,,,263158,,,,,,,,
55560,note_on,13,0,11,,,,,,,,,10,,,,84,0
55560,note_on,0,0,11,,,,,,,,,10,,,,83,112
55563,note_on,38,0,12,,,,,,,,,11,,,,64,112
55564,note_on,10,0,2,,,,,,,,,1,,,,84,0
55564,note_on,0,0,2,,,,,,,,,1,,,,83,100
55568,note_on,38,0,13,,,,,,,,,12,,,,60,112
55569,note_on,13,0,4,,,,,,,,,3,,,,52,0
55569,note_on,0,0,4,,,,,,,,,3,,,,55,0
55569,note_on,0,0,4,,,,,,,,,3,,,,55,100
55569,note_on,0,0,4,,,,,,,,,3,,,,52,100
55570,control_change,7,0,12,,,,,,,,,11,11,51,,,
55570,control_change,45,0,5,,,,,,,,,4,11,48,,,
55571,control_change,45,0,6,,,,,,,,,5,11,48,,,
55572,note_on,38,0,14,,,,,,,,,13,,,,52,0
55574,note_on,38,0,15,,,,,,,,,14,,,,40,0
55575,control_change,7,0,13,,,,,,,,,12,11,51,,,
55579,control_change,7,0,14,,,,,,,,,13,11,51,,,
55581,control_change,7,0,15,,,,,,,,,14,11,51,,,
55582,control_change,18,0,2,,,,,,,,,1,11,52,,,
55583,control_change,23,0,11,,,,,,,,,10,11,57,,,
55594,control_change,42,0,3,,,,,,,,,2,11,44,,,
55598,control_change,29,0,4,,,,,,,,,3,11,44,,,
55609,control_change,27,0,2,,,,,,,,,1,11,52,,,
55614,control_change,44,0,5,,,,,,,,,4,11,49,,,
55614,control_change,44,0,12,,,,,,,,,11,11,52,,,
55615,control_change,44,0,6,,,,,,,,,5,11,49,,,
55619,control_change,44,0,13,,,,,,,,,12,11,52,,,
55619,control_change,36,0,11,,,,,,,,,10,11,57,,,
55623,control_change,44,0,14,,,,,,,,,13,11,52,,,
55623,note_on,9,0,12,,,,,,,,,11,,,,64,0
55625,control_change,44,0,15,,,,,,,,,14,11,52,,,
55628,note_on,9,0,13,,,,,,,,,12,,,,60,0
55637,control_change,43,0,3,,,,,,,,,2,11,45,,,
55637,control_change,28,0,2,,,,,,,,,1,11,53,,,
55641,control_change,43,0,4,,,,,,,,,3,11,45,,,
55655,control_change,36,0,11,,,,,,,,,10,11,58,,,
55658,control_change,35,0,12,,,,,,,,,11,11,53,,,
55658,control_change,44,0,5,,,,,,,,,4,11,50,,,
55659,control_change,44,0,6,,,,,,,,,5,11,50,,,
55663,control_change,35,0,13,,,,,,,,,12,11,53,,,
55664,control_change,27,0,2,,,,,,,,,1,11,54,,,
55667,control_change,44,0,14,,,,,,,,,13,11,53,,,
55669,control_change,44,0,15,,,,,,,,,14,11,53,,,
55679,control_change,42,0,3,,,,,,,,,2,11,46,,,
55680,note_on,0,0,11,,,,,,,,,10,,,,81,112
55680,note_on,25,0,11,,,,,,,,,10,,,,83,0
55680,set_tempo,120,1,0,,,,,,288462,,,,,,,,
55683,control_change,42,0,4,,,,,,,,,3,11,46,,,
55683,note_on,25,0,12,,,,,,,,,11,,,,67,127
55684,note_on,20,0,2,,,,,,,,,1,,,,83,0
55684,note_on,0,0,2,,,,,,,,,1,,,,81,100
55688,note_on,25,0,13,,,,,,,,,12,,,,64,127
55689,note_on,0,0,4,,,,,,,,,3,,,,55,100
55689,note_on,0,0,4,,,,,,,,,3,,,,60,100
55689,note_on,0,0,4,,,,,,,,,3,,,,55,0
55689,note_on,6,0,4,,,,,,,,,3,,,,52,0
55691,control_change,11,0,11,,,,,,,,,10,11,59,,,
55692,control_change,8,0,2,,,,,,,,,1,11,55,,,
55703,control_change,20,0,12,,,,,,,,,11,11,54,,,
55703,control_change,45,0,5,,,,,,,,,4,11,51,,,
55704,control_change,45,0,6,,,,,,,,,5,11,51,,,
55708,control_change,20,0,13,,,,,,,,,12,11,54,,,
55712,control_change,45,0,14,,,,,,,,,13,11,54,,,
55714,control_change,45,0,15,,,,,,,,,14,11,54,,,
55720,control_change,28,0,2,,,,,,,,,1,11,55,,,
55721,control_change,42,0,3,,,,,,,,,2,11,47,,,
55725,control_change,36,0,4,,,,,,,,,3,11,47,,,
55727,control_change,36,0,11,,,,,,,,,10,11,60,,,
55743,note_on,40,0,12,,,,,,,,,11,,,,67,0
55747,control_change,44,0,5,,,,,,,,,4,11,52,,,
55747,control_change,27,0,2,,,,,,,,,1,11,56,,,
55747,control_change,4,0,12,,,,,,,,,11,11,55,,,
55748,note_on,40,0,13,,,,,,,,,12,,,,64,0
55748,control_change,44,0,6,,,,,,,,,5,11,52,,,
55752,control_change,4,0,13,,,,,,,,,12,11,55,,,
55756,control_change,44,0,14,,,,,,,,,13,11,55,,,
55758,control_change,44,0,15,,,,,,,,,14,11,55,,,
55763,control_change,36,0,11,,,,,,,,,10,11,61,,,
55764,control_change,43,0,3,,,,,,,,,2,11,48,,,
55768,control_change,43,0,4,,,,,,,,,3,11,48,,,
55775,control_change,28,0,2,,,,,,,,,1,11,57,,,
55791,control_change,44,0,5,,,,,,,,,4,11,53,,,
55791,control_change,44,0,12,,,,,,,,,11,11,56,,,
55792,control_change,44,0,6,,,,,,,,,5,11,53,,,
55795,note_on,31,0,3,,,,,,,,,2,,,,72,0
55795,note_on,32,0,11,,,,,,,,,10,,,,81,0
55795,note_on,0,0,3,,,,,,,,,2,,,,76,0
55796,control_change,44,0,13,,,,,,,,,12,11,56,,,
55799,control_change,4,0,11,,,,,,,,,10,11,62,,,
55800,note_on,1,0,11,,,,,,,,,10,,,,79,112
55800,control_change,44,0,14,,,,,,,,,13,11,56,,,
55800,set_tempo,120,1,0,,,,,,254237,,,,,,,,
55802,control_change,44,0,15,,,,,,,,,14,11,56,,,
55803,note_on,12,0,12,,,,,,,,,11,,,,65,112
55803,note_on,12,0,5,,,,,,,,,4,,,,62,100
55803,control_change,28,0,2,,,,,,,,,1,11,58,,,
55804,note_on,1,0,2,,,,,,,,,1,,,,81,0
55804,note_on,12,0,6,,,,,,,,,5,,,,55,100
55804,note_on,0,0,2,,,,,,,,,1,,,,79,100
55805,note_on,0,0,3,,,,,,,,,2,,,,74,101
55805,note_on,10,0,3,,,,,,,,,2,,,,71,101
55806,control_change,1,0,3,,,,,,,,,2,11,49,,,
55808,note_on,12,0,13,,,,,,,,,12,,,,55,112
55809,note_on,0,0,4,,,,,,,,,3,,,,60,0
55809,note_on,0,0,4,,,,,,,,,3,,,,62,100
55809,note_on,0,0,4,,,,,,,,,3,,,,59,100
55809,note_on,41,0,4,,,,,,,,,3,,,,55,0
55810,control_change,1,0,4,,,,,,,,,3,11,49,,,
55812,note_on,12,0,14,,,,,,,,,13,,,,55,112
55814,note_on,12,0,15,,,,,,,,,14,,,,43,112
55835,control_change,32,0,5,,,,,,,,,4,11,54,,,
55835,control_change,32,0,12,,,,,,,,,11,11,57,,,
55836,control_change,32,0,6,,,,,,,,,5,11,54,,,
55840,control_change,32,0,13,,,,,,,,,12,11,57,,,
55844,control_change,32,0,14,,,,,,,,,13,11,57,,,
55846,control_change,32,0,15,,,,,,,,,14,11,57,,,
55849,control_change,43,0,3,,,,,,,,,2,11,50,,,
55853,control_change,43,0,4,,,,,,,,,3,11,50,,,
55856,control_change,52,0,2,,,,,,,,,1,11,58,,,
55863,note_on,28,0,12,,,,,,,,,11,,,,65,0
55865,control_change,65,0,11,,,,,,,,,10,11,64,,,
55868,note_on,28,0,13,,,,,,,,,12,,,,55,0
55880,control_change,45,0,5,,,,,,,,,4,11,55,,,
55880,control_change,17,0,12,,,,,,,,,11,11,57,,,
55881,control_change,45,0,6,,,,,,,,,5,11,55,,,
55885,control_change,17,0,13,,,,,,,,,12,11,57,,,
55889,control_change,45,0,14,,,,,,,,,13,11,57,,,
55891,control_change,42,0,3,,,,,,,,,2,11,51,,,
55891,control_change,45,0,15,,,,,,,,,14,11,57,,,
55895,control_change,42,0,4,,,,,,,,,3,11,51,,,
55912,control_change,56,0,2,,,,,,,,,1,11,59,,,
55917,control_change,52,0,11,,,,,,,,,10,11,65,,,
55920,note_on,0,0,11,,,,,,,,,10,,,,77,112
55920,note_on,3,0,11,,,,,,,,,10,,,,79,0
55920,set_tempo,120,1,0,,,,,,263158,,,,,,,,
55923,note_on,43,0,12,,,,,,,,,11,,,,65,112
55924,control_change,1,0,12,,,,,,,,,11,11,58,,,
55924,control_change,44,0,5,,,,,,,,,4,11,56,,,
55924,note_on,0,0,2,,,,,,,,,1,,,,77,100
55924,note_on,12,0,2,,,,,,,,,1,,,,79,0
55925,control_change,44,0,6,,,,,,,,,5,11,56,,,
55928,note_on,43,0,13,,,,,,,,,12,,,,55,112
55929,note_on,0,0,4,,,,,,,,,3,,,,59,100
55929,note_on,34,0,4,,,,,,,,,3,,,,62,0
55929,note_on,0,0,4,,,,,,,,,3,,,,59,0
55929,note_on,0,0,4,,,,,,,,,3,,,,62,100
55929,control_change,1,0,13,,,,,,,,,12,11,58,,,
55932,note_on,43,0,14,,,,,,,,,13,,,,55,0
55933,control_change,1,0,14,,,,,,,,,13,11,58,,,
55934,note_on,43,0,15,,,,,,,,,14,,,,43,0
55934,control_change,43,0,3,,,,,,,,,2,11,52,,,
55935,control_change,1,0,15,,,,,,,,,14,11,58,,,
55938,control_change,9,0,4,,,,,,,,,3,11,52,,,
55967,control_change,43,0,2,,,,,,,,,1,11,60,,,
55968,control_change,44,0,12,,,,,,,,,11,11,59,,,
55968,control_change,44,0,5,,,,,,,,,4,11,57,,,
55969,control_change,44,0,6,,,,,,,,,5,11,57,,,
55969,control_change,49,0,11,,,,,,,,,10,11,66,,,
55973,control_change,44,0,13,,,,,,,,,12,11,59,,,
55976,control_change,42,0,3,,,,,,,,,2,11,52,,,
55977,control_change,44,0,14,,,,,,,,,13,11,59,,,
55979,control_change,44,0,15,,,,,,,,,14,11,59,,,
55980,control_change,42,0,4,,,,,,,,,3,11,53,,,
55983,note_on,15,0,12,,,,,,,,,11,,,,65,0
55988,note_on,15,0,13,,,,,,,,,12,,,,55,0
56013,control_change,45,0,5,,,,,,,,,4,11,58,,,
56013,control_change,30,0,12,,,,,,,,,11,11,60,,,
56014,control_change,45,0,6,,,,,,,,,5,11,58,,,
56018,control_change,30,0,13,,,,,,,,,12,11,60,,,
56019,control_change,43,0,3,,,,,,,,,2,11,53,,,
56022,control_change,45,0,14,,,,,,,,,13,11,60,,,
56022,control_change,55,0,2,,,,,,,,,1,11,61,,,
56022,control_change,53,0,11,,,,,,,,,10,11,67,,,
56023,control_change,43,0,4,,,,,,,,,3,11,54,,,
56024,control_change,45,0,15,,,,,,,,,14,11,60,,,
56040,note_on,18,0,11,,,,,,,,,10,,,,77,0
56040,note_on,0,0,11,,,,,,,,,10,,,,74,112
56040,set_tempo,120,1,0,,,,,,288462,,,,,,,,
56043,note_on,30,0,12,,,,,,,,,11,,,,67,127
56044,note_on,22,0,2,,,,,,,,,1,,,,77,0
56044,note_on,0,0,2,,,,,,,,,1,,,,74,100
56048,note_on,30,0,13,,,,,,,,,12,,,,65,127
56049,note_on,0,0,4,,,,,,,,,3,,,,55,100
56049,note_on,0,0,4,,,,,,,,,3,,,,59,0
56049,note_on,26,0,4,,,,,,,,,3,,,,62,0
56057,control_change,14,0,12,,,,,,,,,11,11,61,,,
56057,control_change,44,0,5,,,,,,,,,4,11,59,,,
56058,control_change,44,0,6,,,,,,,,,5,11,59,,,
56061,control_change,42,0,3,,,,,,,,,2,11,54,,,
56062,control_change,14,0,13,,,,,,,,,12,11,61,,,
56065,control_change,16,0,4,,,,,,,,,3,11,55,,,
56066,control_change,44,0,14,,,,,,,,,13,11,61,,,
56068,control_change,44,0,15,,,,,,,,,14,11,61,,,
56074,control_change,34,0,11,,,,,,,,,10,11,68,,,
56077,control_change,33,0,2,,,,,,,,,1,11,61,,,
56101,control_change,44,0,5,,,,,,,,,4,11,60,,,
56101,control_change,44,0,12,,,,,,,,,11,11,62,,,
56102,control_change,44,0,6,,,,,,,,,5,11,60,,,
56103,note_on,2,0,12,,,,,,,,,11,,,,67,0
56104,control_change,43,0,3,,,,,,,,,2,11,55,,,
56106,control_change,44,0,13,,,,,,,,,12,11,62,,,
56108,note_on,2,0,13,,,,,,,,,12,,,,65,0
56108,control_change,43,0,4,,,,,,,,,3,11,56,,,
56110,control_change,44,0,14,,,,,,,,,13,11,62,,,
56112,control_change,44,0,15,,,,,,,,,14,11,62,,,
56126,control_change,52,0,11,,,,,,,,,10,11,69,,,
56132,control_change,55,0,2,,,,,,,,,1,11,62,,,
56146,control_change,42,0,3,,,,,,,,,2,11,55,,,
56146,control_change,43,0,12,,,,,,,,,11,11,63,,,
56146,control_change,45,0,5,,,,,,,,,4,11,61,,,
56147,control_change,45,0,6,,,,,,,,,5,11,61,,,
56150,control_change,42,0,4,,,,,,,,,3,11,57,,,
56151,control_change,43,0,13,,,,,,,,,12,11,63,,,
56155,note_on,29,0,11,,,,,,,,,10,,,,74,0
56155,control_change,45,0,14,,,,,,,,,13,11,63,,,
56155,note_on,9,0,3,,,,,,,,,2,,,,74,0
56155,note_on,0,0,3,,,,,,,,,2,,,,71,0
56157,control_change,45,0,15,,,,,,,,,14,11,63,,,
56160,set_tempo,120,1,0,,,,,,254237,,,,,,,,
56160,note_on,5,0,11,,,,,,,,,10,,,,79,112
56163,note_on,17,0,5,,,,,,,,,4,,,,62,0
56163,note_on,0,0,5,,,,,,,,,4,,,,64,100
56163,note_on,17,0,12,,,,,,,,,11,,,,64,112
56164,note_on,0,0,6,,,,,,,,,5,,,,60,100
56164,note_on,17,0,6,,,,,,,,,5,,,,55,0
56164,note_on,32,0,2,,,,,,,,,1,,,,74,0
56164,note_on,0,0,2,,,,,,,,,1,,,,79,100
56165,note_on,0,0,3,,,,,,,,,2,,,,76,101
56165,note_on,10,0,3,,,,,,,,,2,,,,72,101
56168,note_on,17,0,13,,,,,,,,,12,,,,55,112
56169,note_on,0,0,4,,,,,,,,,3,,,,64,100
56169,note_on,0,0,4,,,,,,,,,3,,,,60,100
56169,note_on,19,0,4,,,,,,,,,3,,,,55,0
56172,note_on,17,0,14,,,,,,,,,13,,,,48,112
56174,note_on,17,0,15,,,,,,,,,14,,,,36,112
56179,control_change,19,0,11,,,,,,,,,10,11,70,,,
56188,control_change,24,0,2,,,,,,,,,1,11,63,,,
56189,control_change,24,0,3,,,,,,,,,2,11,56,,,
56190,control_change,27,0,12,,,,,,,,,11,11,64,,,
56190,control_change,27,0,5,,,,,,,,,4,11,62,,,
56191,control_change,27,0,6,,,,,,,,,5,11,62,,,
56193,control_change,24,0,4,,,,,,,,,3,11,58,,,
56195,control_change,27,0,13,,,,,,,,,12,11,64,,,
56199,control_change,27,0,14,,,,,,,,,13,11,64,,,
56201,control_change,27,0,15,,,,,,,,,14,11,64,,,
56223,note_on,33,0,12,,,,,,,,,11,,,,64,0
56228,note_on,33,0,13,,,,,,,,,12,,,,55,0
56231,control_change,42,0,3,,,,,,,,,2,11,57,,,
56231,control_change,52,0,11,,,,,,,,,10,11,71,,,
56234,control_change,44,0,5,,,,,,,,,4,11,63,,,
56234,control_change,11,0,12,,,,,,,,,11,11,65,,,
56235,control_change,42,0,4,,,,,,,,,3,11,59,,,
56235,control_change,44,0,6,,,,,,,,,5,11,63,,,
56239,control_change,11,0,13,,,,,,,,,12,11,65,,,
56243,control_change,55,0,2,,,,,,,,,1,11,64,,,
56243,control_change,44,0,14,,,,,,,,,13,11,65,,,
56245,control_change,44,0,15,,,,,,,,,14,11,65,,,
56273,control_change,42,0,3,,,,,,,,,2,11,58,,,
56277,control_change,42,0,4,,,,,,,,,3,11,60,,,
56278,control_change,44,0,5,,,,,,,,,4,11,64,,,
56278,control_change,44,0,12,,,,,,,,,11,11,66,,,
56279,control_change,44,0,6,,,,,,,,,5,11,64,,,
56280,set_tempo,120,1,0,,,,,,263158,,,,,,,,
56283,note_on,5,0,12,,,,,,,,,11,,,,64,112
56283,control_change,52,0,11,,,,,,,,,10,11,72,,,
56283,control_change,44,0,13,,,,,,,,,12,11,66,,,
56287,control_change,44,0,14,,,,,,,,,13,11,66,,,
56288,note_on,5,0,13,,,,,,,,,12,,,,55,112
56289,note_on,0,0,4,,,,,,,,,3,,,,64,100
56289,note_on,0,0,4,,,,,,,,,3,,,,60,100
56289,note_on,0,0,4,,,,,,,,,3,,,,60,0
56289,note_on,12,0,4,,,,,,,,,3,,,,64,0
56289,control_change,44,0,15,,,,,,,,,14,11,66,,,
56292,note_on,5,0,14,,,,,,,,,13,,,,48,0
56294,note_on,5,0,15,,,,,,,,,14,,,,36,0
56298,control_change,55,0,2,,,,,,,,,1,11,64,,,
56316,control_change,43,0,3,,,,,,,,,2,11,58,,,
56320,control_change,31,0,4,,,,,,,,,3,11,61,,,
56323,control_change,40,0,12,,,,,,,,,11,11,67,,,
56323,control_change,45,0,5,,,,,,,,,4,11,65,,,
56324,control_change,45,0,6,,,,,,,,,5,11,65,,,
56328,control_change,40,0,13,,,,,,,,,12,11,67,,,
56332,control_change,40,0,14,,,,,,,,,13,11,67,,,
56334,control_change,40,0,15,,,,,,,,,14,11,67,,,
56336,control_change,53,0,11,,,,,,,,,10,11,72,,,
56343,note_on,20,0,12,,,,,,,,,11,,,,64,0
56348,note_on,20,0,13,,,,,,,,,12,,,,55,0
56353,control_change,55,0,2,,,,,,,,,1,11,65,,,
56358,control_change,42,0,3,,,,,,,,,2,11,59,,,
56362,control_change,42,0,4,,,,,,,,,3,11,62,,,
56367,control_change,24,0,12,,,,,,,,,11,11,68,,,
56367,control_change,44,0,5,,,,,,,,,4,11,66,,,
56368,control_change,44,0,6,,,,,,,,,5,11,66,,,
56372,control_change,24,0,13,,,,,,,,,12,11,68,,,
56376,control_change,44,0,14,,,,,,,,,13,11,68,,,
56378,control_change,44,0,15,,,,,,,,,14,11,68,,,
56388,control_change,52,0,11,,,,,,,,,10,11,73,,,
56400,note_on,0,0,11,,,,,,,,,10,,,,76,112
56400,set_tempo,120,1,0,,,,,,288462,,,,,,,,
56400,note_on,12,0,11,,,,,,,,,10,,,,79,0
56401,control_change,43,0,3,,,,,,,,,2,11,60,,,
56403,note_on,36,0,12,,,,,,,,,11,,,,67,127
56404,note_on,0,0,2,,,,,,,,,1,,,,76,100
56404,note_on,51,0,2,,,,,,,,,1,,,,79,0
56405,control_change,43,0,4,,,,,,,,,3,11,63,,,
56408,control_change,4,0,2,,,,,,,,,1,11,66,,,
56408,note_on,36,0,13,,,,,,,,,12,,,,64,127
56409,note_on,0,0,4,,,,,,,,,3,,,,55,100
56409,note_on,0,0,4,,,,,,,,,3,,,,60,0
56409,note_on,4,0,4,,,,,,,,,3,,,,64,0
56411,control_change,44,0,5,,,,,,,,,4,11,67,,,
56411,control_change,8,0,12,,,,,,,,,11,11,69,,,
56412,control_change,44,0,6,,,,,,,,,5,11,67,,,
56416,control_change,8,0,13,,,,,,,,,12,11,69,,,
56420,control_change,44,0,14,,,,,,,,,13,11,69,,,
56422,control_change,44,0,15,,,,,,,,,14,11,69,,,
56440,control_change,40,0,11,,,,,,,,,10,11,74,,,
56443,control_change,42,0,3,,,,,,,,,2,11,61,,,
56447,control_change,38,0,4,,,,,,,,,3,11,64,,,
56456,control_change,45,0,12,,,,,,,,,11,11,70,,,
56456,control_change,45,0,5,,,,,,,,,4,11,68,,,
56457,control_change,45,0,6,,,,,,,,,5,11,68,,,
56461,control_change,45,0,13,,,,,,,,,12,11,70,,,
56463,note_on,7,0,12,,,,,,,,,11,,,,67,0
56464,control_change,56,0,2,,,,,,,,,1,11,67,,,
56465,control_change,45,0,14,,,,,,,,,13,11,70,,,
56467,control_change,45,0,15,,,,,,,,,14,11,70,,,
56468,note_on,7,0,13,,,,,,,,,12,,,,64,0
56486,control_change,43,0,3,,,,,,,,,2,11,61,,,
56490,control_change,43,0,4,,,,,,,,,3,11,65,,,
56493,control_change,53,0,11,,,,,,,,,10,11,75,,,
56500,control_change,37,0,12,,,,,,,,,11,11,71,,,
56500,control_change,44,0,5,,,,,,,,,4,11,69,,,
56501,control_change,44,0,6,,,,,,,,,5,11,69,,,
56505,control_change,37,0,13,,,,,,,,,12,11,71,,,
56509,control_change,44,0,14,,,,,,,,,13,11,71,,,
56511,control_change,44,0,15,,,,,,,,,14,11,71,,,
56515,note_on,0,0,3,,,,,,,,,2,,,,72,0
56515,note_on,22,0,11,,,,,,,,,10,,,,76,0
56515,note_on,29,0,3,,,,,,,,,2,,,,76,0
56519,control_change,55,0,2,,,,,,,,,1,11,67,,,
56520,set_tempo,120,1,0,,,,,,254237,,,,,,,,
56520,note_on,5,0,11,,,,,,,,,10,,,,83,112
56523,note_on,23,0,12,,,,,,,,,11,,,,62,112
56523,note_on,23,0,5,,,,,,,,,4,,,,64,0
56524,note_on,5,0,2,,,,,,,,,1,,,,76,0
56524,note_on,0,0,2,,,,,,,,,1,,,,83,100
56524,note_on,23,0,6,,,,,,,,,5,,,,60,0
56525,note_on,0,0,3,,,,,,,,,2,,,,74,101
56525,note_on,10,0,3,,,,,,,,,2,,,,71,101
56528,control_change,3,0,3,,,,,,,,,2,11,62,,,
56528,note_on,23,0,13,,,,,,,,,12,,,,59,112
56529,note_on,0,0,4,,,,,,,,,3,,,,53,100
56529,note_on,39,0,4,,,,,,,,,3,,,,55,0
56529,note_on,0,0,4,,,,,,,,,3,,,,55,100
56532,control_change,3,0,4,,,,,,,,,3,11,66,,,
56532,note_on,23,0,14,,,,,,,,,13,,,,53,112
56534,note_on,23,0,15,,,,,,,,,14,,,,41,112
56544,control_change,21,0,12,,,,,,,,,11,11,72,,,
56544,control_change,21,0,5,,,,,,,,,4,11,70,,,
56545,control_change,21,0,6,,,,,,,,,5,11,70,,,
56545,control_change,25,0,11,,,,,,,,,10,11,76,,,
56549,control_change,21,0,13,,,,,,,,,12,11,72,,,
56553,control_change,21,0,14,,,,,,,,,13,11,72,,,
56555,control_change,21,0,15,,,,,,,,,14,11,72,,,
56571,control_change,43,0,3,,,,,,,,,2,11,63,,,
56574,control_change,50,0,2,,,,,,,,,1,11,68,,,
56575,control_change,43,0,4,,,,,,,,,3,11,67,,,
56583,note_on,39,0,12,,,,,,,,,11,,,,62,0
56588,note_on,39,0,13,,,,,,,,,12,,,,59,0
56588,control_change,44,0,5,,,,,,,,,4,11,71,,,
56588,control_change,5,0,12,,,,,,,,,11,11,72,,,
56589,control_change,44,0,6,,,,,,,,,5,11,71,,,
56593,control_change,5,0,13,,,,,,,,,12,11,72,,,
56597,control_change,44,0,14,,,,,,,,,13,11,72,,,
56598,control_change,53,0,11,,,,,,,,,10,11,77,,,
56599,control_change,44,0,15,,,,,,,,,14,11,72,,,
56613,control_change,42,0,3,,,,,,,,,2,11,64,,,
56617,control_change,42,0,4,,,,,,,,,3,11,68,,,
56629,control_change,55,0,2,,,,,,,,,1,11,69,,,
56633,control_change,45,0,12,,,,,,,,,11,11,73,,,
56633,control_change,45,0,5,,,,,,,,,4,11,72,,,
56634,control_change,45,0,6,,,,,,,,,5,11,72,,,
56638,control_change,45,0,13,,,,,,,,,12,11,73,,,
56640,set_tempo,120,1,0,,,,,,263158,,,,,,,,
56642,control_change,45,0,14,,,,,,,,,13,11,73,,,
56643,note_on,10,0,12,,,,,,,,,11,,,,62,112
56644,control_change,45,0,15,,,,,,,,,14,11,73,,,
56648,note_on,10,0,13,,,,,,,,,12,,,,59,112
56649,note_on,32,0,4,,,,,,,,,3,,,,55,0
56649,note_on,0,0,4,,,,,,,,,3,,,,53,0
56649,note_on,0,0,4,,,,,,,,,3,,,,53,100
56649,note_on,0,0,4,,,,,,,,,3,,,,55,100
56650,control_change,52,0,11,,,,,,,,,10,11,78,,,
56652,note_on,10,0,14,,,,,,,,,13,,,,53,0
56654,note_on,10,0,15,,,,,,,,,14,,,,41,0
56656,control_change,43,0,3,,,,,,,,,2,11,64,,,
56660,control_change,11,0,4,,,,,,,,,3,11,69,,,
56677,control_change,34,0,12,,,,,,,,,11,11,74,,,
56677,control_change,44,0,5,,,,,,,,,4,11,73,,,
56678,control_change,44,0,6,,,,,,,,,5,11,73,,,
56682,control_change,34,0,13,,,,,,,,,12,11,74,,,
56684,control_change,55,0,2,,,,,,,,,1,11,70,,,
56686,control_change,34,0,14,,,,,,,,,13,11,74,,,
56688,control_change,34,0,15,,,,,,,,,14,11,74,,,
56698,control_change,42,0,3,,,,,,,,,2,11,65,,,
56702,control_change,52,0,11,,,,,,,,,10,11,79,,,
56702,control_change,42,0,4,,,,,,,,,3,11,70,,,
56703,note_on,26,0,12,,,,,,,,,11,,,,62,0
56708,note_on,26,0,13,,,,,,,,,12,,,,59,0
56721,control_change,44,0,5,,,,,,,,,4,11,74,,,
56721,control_change,18,0,12,,,,,,,,,11,11,75,,,
56722,control_change,44,0,6,,,,,,,,,5,11,74,,,
56726,control_change,18,0,13,,,,,,,,,12,11,75,,,
56730,control_change,44,0,14,,,,,,,,,13,11,75,,,
56732,control_change,44,0,15,,,,,,,,,14,11,75,,,
56740,control_change,56,0,2,,,,,,,,,1,11,70,,,
56741,control_change,43,0,3,,,,,,,,,2,11,66,,,
56745,control_change,43,0,4,,,,,,,,,3,11,71,,,
56755,control_change,53,0,11,,,,,,,,,10,11,80,,,
56760,set_tempo,120,1,0,,,,,,288462,,,,,,,,
56763,note_on,42,0,12,,,,,,,,,11,,,,67,127
56766,control_change,3,0,12,,,,,,,,,11,11,76,,,
56766,control_change,45,0,5,,,,,,,,,4,11,75,,,
56767,control_change,45,0,6,,,,,,,,,5,11,75,,,
56768,note_on,42,0,13,,,,,,,,,12,,,,62,127
56769,note_on,0,0,4,,,,,,,,,3,,,,55,100
56769,note_on,0,0,4,,,,,,,,,3,,,,62,100
56769,note_on,0,0,4,,,,,,,,,3,,,,53,0
56769,note_on,24,0,4,,,,,,,,,3,,,,55,0
56771,control_change,3,0,13,,,,,,,,,12,11,76,,,
56775,control_change,45,0,14,,,,,,,,,13,11,76,,,
56777,control_change,45,0,15,,,,,,,,,14,11,76,,,
56783,control_change,42,0,3,,,,,,,,,2,11,67,,,
56787,control_change,18,0,4,,,,,,,,,3,11,72,,,
56795,control_change,55,0,2,,,,,,,,,1,11,71,,,
56807,control_change,52,0,11,,,,,,,,,10,11,81,,,
56810,control_change,44,0,12,,,,,,,,,11,11,77,,,
56810,control_change,44,0,5,,,,,,,,,4,11,76,,,
56811,control_change,44,0,6,,,,,,,,,5,11,76,,,
56815,control_change,44,0,13,,,,,,,,,12,11,77,,,
56819,control_change,44,0,14,,,,,,,,,13,11,77,,,
56821,control_change,44,0,15,,,,,,,,,14,11,77,,,
56823,note_on,13,0,12,,,,,,,,,11,,,,67,0
56825,control_change,42,0,3,,,,,,,,,2,11,67,,,
56828,note_on,13,0,13,,,,,,,,,12,,,,62,0
56829,control_change,42,0,4,,,,,,,,,3,11,73,,,
56850,control_change,55,0,2,,,,,,,,,1,11,72,,,
56854,control_change,31,0,12,,,,,,,,,11,11,78,,,
56854,control_change,44,0,5,,,,,,,,,4,11,77,,,
56855,control_change,44,0,6,,,,,,,,,5,11,77,,,
56859,control_change,52,0,11,,,,,,,,,10,11,82,,,
56859,control_change,31,0,13,,,,,,,,,12,11,78,,,
56863,control_change,44,0,14,,,,,,,,,13,11,78,,,
56865,control_change,44,0,15,,,,,,,,,14,11,78,,,
56868,control_change,43,0,3,,,,,,,,,2,11,68,,,
56872,control_change,43,0,4,,,,,,,,,3,11,74,,,
56875,note_on,7,0,3,,,,,,,,,2,,,,74,0
56875,note_on,0,0,3,,,,,,,,,2,,,,71,0
56880,set_tempo,120,1,0,,,,,,254237,,,,,,,,
56880,note_on,21,0,11,,,,,,,,,10,,,,83,0
56880,note_on,0,0,11,,,,,,,,,10,,,,84,112
56883,note_on,29,0,12,,,,,,,,,11,,,,64,112
56884,note_on,34,0,2,,,,,,,,,1,,,,83,0
56884,note_on,0,0,2,,,,,,,,,1,,,,84,100
56885,note_on,10,0,3,,,,,,,,,2,,,,72,101
56885,note_on,0,0,3,,,,,,,,,2,,,,76,101
56888,note_on,29,0,13,,,,,,,,,12,,,,60,112
56889,note_on,0,0,4,,,,,,,,,3,,,,52,100
56889,note_on,0,0,4,,,,,,,,,3,,,,55,100
56889,note_on,17,0,4,,,,,,,,,3,,,,55,0
56889,note_on,0,0,4,,,,,,,,,3,,,,62,0
56892,note_on,29,0,14,,,,,,,,,13,,,,52,112
56894,note_on,29,0,15,,,,,,,,,14,,,,40,112
56898,control_change,15,0,12,,,,,,,,,11,11,79,,,
56898,control_change,44,0,5,,,,,,,,,4,11,78,,,
56899,control_change,44,0,6,,,,,,,,,5,11,78,,,
56903,control_change,15,0,13,,,,,,,,,12,11,79,,,
56905,control_change,21,0,2,,,,,,,,,1,11,73,,,
56907,control_change,15,0,14,,,,,,,,,13,11,79,,,
56909,control_change,15,0,15,,,,,,,,,14,11,79,,,
56910,control_change,25,0,3,,,,,,,,,2,11,69,,,
56912,control_change,32,0,11,,,,,,,,,10,11,83,,,
56914,control_change,25,0,4,,,,,,,,,3,11,75,,,
56943,control_change,0,0,12,,,,,,,,,11,11,80,,,
56943,control_change,45,0,5,,,,,,,,,4,11,79,,,
56943,note_on,45,0,12,,,,,,,,,11,,,,64,0
56944,control_change,45,0,6,,,,,,,,,5,11,79,,,
56948,note_on,45,0,13,,,,,,,,,12,,,,60,0
56948,control_change,0,0,13,,,,,,,,,12,11,80,,,
56952,control_change,45,0,14,,,,,,,,,13,11,80,,,
56953,control_change,43,0,3,,,,,,,,,2,11,70,,,
56954,control_change,45,0,15,,,,,,,,,14,11,80,,,
56957,control_change,43,0,4,,,,,,,,,3,11,76,,,
56960,control_change,55,0,2,,,,,,,,,1,11,73,,,
56964,control_change,52,0,11,,,,,,,,,10,11,84,,,
56987,control_change,44,0,12,,,,,,,,,11,11,81,,,
56987,control_change,44,0,5,,,,,,,,,4,11,80,,,
56988,control_change,44,0,6,,,,,,,,,5,11,80,,,
56992,control_change,44,0,13,,,,,,,,,12,11,81,,,
56995,control_change,42,0,3,,,,,,,,,2,11,70,,,
56996,control_change,44,0,14,,,,,,,,,13,11,81,,,
56998,control_change,44,0,15,,,,,,,,,14,11,81,,,
56999,control_change,42,0,4,,,,,,,,,3,11,77,,,
57000,note_on,36,0,11,,,,,,,,,10,,,,84,0
57000,set_tempo,120,1,0,,,,,,263158,,,,,,,,
57000,note_on,0,0,11,,,,,,,,,10,,,,83,112
57003,note_on,16,0,12,,,,,,,,,11,,,,64,112
57004,note_on,44,0,2,,,,,,,,,1,,,,84,0
57004,note_on,0,0,2,,,,,,,,,1,,,,83,100
57008,note_on,16,0,13,,,,,,,,,12,,,,60,112
57009,note_on,10,0,4,,,,,,,,,3,,,,52,0
57009,note_on,0,0,4,,,,,,,,,3,,,,55,0
57009,note_on,0,0,4,,,,,,,,,3,,,,52,100
57009,note_on,0,0,4,,,,,,,,,3,,,,55,100
57012,note_on,16,0,14,,,,,,,,,13,,,,52,0
57014,note_on,16,0,15,,,,,,,,,14,,,,40,0
57016,control_change,16,0,11,,,,,,,,,10,11,85,,,
57016,control_change,12,0,2,,,,,,,,,1,11,74,,,
57031,control_change,44,0,5,,,,,,,,,4,11,81,,,
57031,control_change,28,0,12,,,,,,,,,11,11,82,,,
57032,control_change,44,0,6,,,,,,,,,5,11,81,,,
57036,control_change,28,0,13,,,,,,,,,12,11,82,,,
57038,control_change,43,0,3,,,,,,,,,2,11,71,,,
57040,control_change,28,0,14,,,,,,,,,13,11,82,,,
57042,control_change,28,0,15,,,,,,,,,14,11,82,,,
57042,control_change,33,0,4,,,,,,,,,3,11,78,,,
57063,note_on,32,0,12,,,,,,,,,11,,,,64,0
57068,note_on,32,0,13,,,,,,,,,12,,,,60,0
57069,control_change,53,0,11,,,,,,,,,10,11,86,,,
57071,control_change,55,0,2,,,,,,,,,1,11,75,,,
57076,control_change,13,0,12,,,,,,,,,11,11,83,,,
57076,control_change,45,0,5,,,,,,,,,4,11,82,,,
57077,control_change,45,0,6,,,,,,,,,5,11,82,,,
57080,control_change,42,0,3,,,,,,,,,2,11,72,,,
57081,control_change,13,0,13,,,,,,,,,12,11,83,,,
57084,control_change,42,0,4,,,,,,,,,3,11,79,,,
57085,control_change,45,0,14,,,,,,,,,13,11,83,,,
57087,control_change,45,0,15,,,,,,,,,14,11,83,,,
57120,note_on,51,0,11,,,,,,,,,10,,,,83,0
57120,control_change,44,0,12,,,,,,,,,11,11,84,,,
57120,set_tempo,120,1,0,,,,,,288462,,,,,,,,
57120,control_change,44,0,5,,,,,,,,,4,11,83,,,
57120,note_on,0,0,11,,,,,,,,,10,,,,81,112
57121,control_change,1,0,11,,,,,,,,,10,11,87,,,
57121,control_change,44,0,6,,,,,,,,,5,11,83,,,
57123,control_change,43,0,3,,,,,,,,,2,11,73,,,
57123,note_on,3,0,12,,,,,,,,,11,,,,67,127
57124,note_on,53,0,2,,,,,,,,,1,,,,83,0
57124,note_on,0,0,2,,,,,,,,,1,,,,81,100
57125,control_change,44,0,13,,,,,,,,,12,11,84,,,
57126,control_change,2,0,2,,,,,,,,,1,11,76,,,
57127,control_change,43,0,4,,,,,,,,,3,11,80,,,
57128,note_on,3,0,13,,,,,,,,,12,,,,64,127
57129,control_change,44,0,14,,,,,,,,,13,11,84,,,
57129,note_on,0,0,4,,,,,,,,,3,,,,60,100
57129,note_on,0,0,4,,,,,,,,,3,,,,52,0
57129,note_on,2,0,4,,,,,,,,,3,,,,55,0
57129,note_on,0,0,4,,,,,,,,,3,,,,55,100
57131,control_change,44,0,15,,,,,,,,,14,11,84,,,
57164,control_change,44,0,5,,,,,,,,,4,11,84,,,
57164,control_change,41,0,12,,,,,,,,,11,11,85,,,
57165,control_change,44,0,6,,,,,,,,,5,11,84,,,
57165,control_change,42,0,3,,,,,,,,,2,11,73,,,
57169,control_change,40,0,4,,,,,,,,,3,11,81,,,
57169,control_change,41,0,13,,,,,,,,,12,11,85,,,
57173,control_change,44,0,14,,,,,,,,,13,11,85,,,
57173,control_change,52,0,11,,,,,,,,,10,11,87,,,
57175,control_change,44,0,15,,,,,,,,,14,11,85,,,
57181,control_change,55,0,2,,,,,,,,,1,11,76,,,
57183,note_on,19,0,12,,,,,,,,,11,,,,67,0
57188,note_on,19,0,13,,,,,,,,,12,,,,64,0
57208,control_change,43,0,3,,,,,,,,,2,11,74,,,
57209,control_change,26,0,12,,,,,,,,,11,11,86,,,
57209,control_change,45,0,5,,,,,,,,,4,11,85,,,
57210,control_change,45,0,6,,,,,,,,,5,11,85,,,
57212,control_change,43,0,4,,,,,,,,,3,11,82,,,
57214,control_change,26,0,13,,,,,,,,,12,11,86,,,
57218,control_change,45,0,14,,,,,,,,,13,11,86,,,
57220,control_change,45,0,15,,,,,,,,,14,11,86,,,
57226,control_change,53,0,11,,,,,,,,,10,11,88,,,
57235,note_on,0,0,3,,,,,,,,,2,,,,72,0
57235,note_on,27,0,3,,,,,,,,,2,,,,76,0
57235,note_on,9,0,11,,,,,,,,,10,,,,81,0
57236,control_change,55,0,2,,,,,,,,,1,11,77,,,
57240,note_on,5,0,11,,,,,,,,,10,,,,79,112
57240,set_tempo,120,1,0,,,,,,254237,,,,,,,,
57243,note_on,34,0,5,,,,,,,,,4,,,,62,100
57243,note_on,34,0,12,,,,,,,,,11,,,,65,112
57244,note_on,8,0,2,,,,,,,,,1,,,,81,0
57244,note_on,0,0,2,,,,,,,,,1,,,,79,100
57244,note_on,34,0,6,,,,,,,,,5,,,,55,100
57245,note_on,10,0,3,,,,,,,,,2,,,,74,101
57245,note_on,0,0,3,,,,,,,,,2,,,,71,101
57248,note_on,34,0,13,,,,,,,,,12,,,,55,112
57249,note_on,0,0,4,,,,,,,,,3,,,,62,100
57249,note_on,0,0,4,,,,,,,,,3,,,,59,100
57249,note_on,0,0,4,,,,,,,,,3,,,,60,0
57249,note_on,37,0,4,,,,,,,,,3,,,,55,0
57250,control_change,5,0,3,,,,,,,,,2,11,75,,,
57252,note_on,34,0,14,,,,,,,,,13,,,,55,112
57253,control_change,10,0,5,,,,,,,,,4,11,86,,,
57253,control_change,10,0,12,,,,,,,,,11,11,87,,,
57254,control_change,5,0,4,,,,,,,,,3,11,83,,,
57254,control_change,10,0,6,,,,,,,,,5,11,86,,,
57254,note_on,34,0,15,,,,,,,,,14,,,,43,112
57258,control_change,10,0,13,,,,,,,,,12,11,87,,,
57262,control_change,10,0,14,,,,,,,,,13,11,87,,,
57264,control_change,10,0,15,,,,,,,,,14,11,87,,,
57278,control_change,38,0,11,,,,,,,,,10,11,89,,,
57292,control_change,48,0,2,,,,,,,,,1,11,78,,,
57293,control_change,43,0,3,,,,,,,,,2,11,76,,,
57297,control_change,44,0,12,,,,,,,,,11,11,87,,,
57297,control_change,44,0,5,,,,,,,,,4,11,87,,,
57297,control_change,43,0,4,,,,,,,,,3,11,84,,,
57298,control_change,44,0,6,,,,,,,,,5,11,87,,,
57302,control_change,44,0,13,,,,,,,,,12,11,87,,,
57303,note_on,6,0,12,,,,,,,,,11,,,,65,0
57306,control_change,44,0,14,,,,,,,,,13,11,87,,,
57308,control_change,44,0,15,,,,,,,,,14,11,87,,,
57308,note_on,6,0,13,,,,,,,,,12,,,,55,0
57330,control_change,52,0,11,,,,,,,,,10,11,90,,,
57335,control_change,42,0,3,,,,,,,,,2,11,76,,,
57339,control_change,42,0,4,,,,,,,,,3,11,85,,,
57341,control_change,44,0,5,,,,,,,,,4,11,88,,,
57341,control_change,38,0,12,,,,,,,,,11,11,88,,,
57342,control_change,44,0,6,,,,,,,,,5,11,88,,,
57346,control_change,38,0,13,,,,,,,,,12,11,88,,,
57347,control_change,55,0,2,,,,,,,,,1,11,79,,,
57350,control_change,44,0,14,,,,,,,,,13,11,88,,,
57352,control_change,44,0,15,,,,,,,,,14,11,88,,,
57360,set_tempo,120,1,0,,,,,,263158,,,,,,,,
57360,note_on,0,0,11,,,,,,,,,10,,,,77,112
57360,note_on,30,0,11,,,,,,,,,10,,,,79,0
57363,note_on,22,0,12,,,,,,,,,11,,,,65,112
57364,note_on,17,0,2,,,,,,,,,1,,,,79,0
57364,note_on,0,0,2,,,,,,,,,1,,,,77,100
57368,note_on,22,0,13,,,,,,,,,12,,,,55,112
57369,note_on,0,0,4,,,,,,,,,3,,,,59,100
57369,note_on,0,0,4,,,,,,,,,3,,,,62,100
57369,note_on,30,0,4,,,,,,,,,3,,,,62,0
57369,note_on,0,0,4,,,,,,,,,3,,,,59,0
57372,note_on,22,0,14,,,,,,,,,13,,,,55,0
57374,note_on,22,0,15,,,,,,,,,14,,,,43,0
57377,control_change,42,0,3,,,,,,,,,2,11,77,,,
57381,control_change,12,0,4,,,,,,,,,3,11,86,,,
57383,control_change,23,0,11,,,,,,,,,10,11,91,,,
57386,control_change,45,0,5,,,,,,,,,4,11,89,,,
57386,control_change,23,0,12,,,,,,,,,11,11,89,,,
57387,control_change,45,0,6,,,,,,,,,5,11,89,,,
57391,control_change,23,0,13,,,,,,,,,12,11,89,,,
57395,control_change,23,0,14,,,,,,,,,13,11,89,,,
57397,control_change,23,0,15,,,,,,,,,14,11,89,,,
57402,control_change,38,0,2,,,,,,,,,1,11,80,,,
57420,control_change,43,0,3,,,,,,,,,2,11,78,,,
57423,note_on,37,0,12,,,,,,,,,11,,,,65,0
57424,control_change,43,0,4,,,,,,,,,3,11,87,,,
57428,note_on,37,0,13,,,,,,,,,12,,,,55,0
57430,control_change,44,0,5,,,,,,,,,4,11,90,,,
57430,control_change,7,0,12,,,,,,,,,11,11,90,,,
57431,control_change,44,0,6,,,,,,,,,5,11,90,,,
57435,control_change,7,0,13,,,,,,,,,12,11,90,,,
57435,control_change,52,0,11,,,,,,,,,10,11,92,,,
57439,control_change,44,0,14,,,,,,,,,13,11,90,,,
57441,control_change,44,0,15,,,,,,,,,14,11,90,,,
57457,control_change,55,0,2,,,,,,,,,1,11,80,,,
57462,control_change,42,0,3,,,,,,,,,2,11,79,,,
57466,control_change,42,0,4,,,,,,,,,3,11,88,,,
57474,control_change,44,0,5,,,,,,,,,4,11,91,,,
57474,control_change,44,0,12,,,,,,,,,11,11,91,,,
57475,control_change,44,0,6,,,,,,,,,5,11,91,,,
57479,control_change,44,0,13,,,,,,,,,12,11,91,,,
57480,note_on,45,0,11,,,,,,,,,10,,,,77,0
57480,note_on,0,0,11,,,,,,,,,10,,,,74,112
57480,set_tempo,120,1,0,,,,,,288462,,,,,,,,
57483,note_on,9,0,12,,,,,,,,,11,,,,67,127
57483,control_change,44,0,14,,,,,,,,,13,11,91,,,
57484,note_on,27,0,2,,,,,,,,,1,,,,77,0
57484,note_on,0,0,2,,,,,,,,,1,,,,74,100
57485,control_change,44,0,15,,,,,,,,,14,11,91,,,
57487,control_change,7,0,11,,,,,,,,,10,11,93,,,
57488,note_on,9,0,13,,,,,,,,,12,,,,65,127
57489,note_on,0,0,4,,,,,,,,,3,,,,55,100
57489,note_on,23,0,4,,,,,,,,,3,,,,62,0
57489,note_on,0,0,4,,,,,,,,,3,,,,59,0
57505,control_change,43,0,3,,,,,,,,,2,11,80,,,
57509,control_change,20,0,4,,,,,,,,,3,11,89,,,
57512,control_change,28,0,2,,,,,,,,,1,11,81,,,
57519,control_change,45,0,5,,,,,,,,,4,11,92,,,
57519,control_change,36,0,12,,,,,,,,,11,11,92,,,
57520,control_change,45,0,6,,,,,,,,,5,11,92,,,
57524,control_change,36,0,13,,,,,,,,,12,11,92,,,
57528,control_change,45,0,14,,,,,,,,,13,11,92,,,
57530,control_change,45,0,15,,,,,,,,,14,11,92,,,
57540,control_change,53,0,11,,,,,,,,,10,11,94,,,
57543,note_on,24,0,12,,,,,,,,,11,,,,67,0
57547,control_change,42,0,3,,,,,,,,,2,11,80,,,
57548,note_on,24,0,13,,,,,,,,,12,,,,65,0
57551,control_change,42,0,4,,,,,,,,,3,11,90,,,
57563,control_change,44,0,5,,,,,,,,,4,11,93,,,
57563,control_change,20,0,12,,,,,,,,,11,11,93,,,
57564,control_change,44,0,6,,,,,,,,,5,11,93,,,
57568,control_change,20,0,13,,,,,,,,,12,11,93,,,
57568,control_change,56,0,2,,,,,,,,,1,11,82,,,
57572,control_change,44,0,14,,,,,,,,,13,11,93,,,
57574,control_change,44,0,15,,,,,,,,,14,11,93,,,
57590,control_change,43,0,3,,,,,,,,,2,11,81,,,
57592,control_change,52,0,11,,,,,,,,,10,11,95,,,
57594,control_change,43,0,4,,,,,,,,,3,11,91,,,
57595,note_on,5,0,3,,,,,,,,,2,,,,71,0
57595,note_on,3,0,11,,,,,,,,,10,,,,74,0
57595,note_on,0,0,3,,,,,,,,,2,,,,74,0
57600,note_on,5,0,11,,,,,,,,,10,,,,79,112
57600,set_tempo,120,1,0,,,,,,254237,,,,,,,,
57603,note_on,40,0,12,,,,,,,,,11,,,,64,112
57603,note_on,40,0,5,,,,,,,,,4,,,,62,0
57603,note_on,0,0,5,,,,,,,,,4,,,,64,100
57604,note_on,0,0,6,,,,,,,,,5,,,,60,100
57604,note_on,0,0,2,,,,,,,,,1,,,,79,100
57604,note_on,40,0,6,,,,,,,,,5,,,,55,0
57604,note_on,36,0,2,,,,,,,,,1,,,,74,0
57605,note_on,10,0,3,,,,,,,,,2,,,,72,101
57605,note_on,0,0,3,,,,,,,,,2,,,,76,101
57607,control_change,4,0,5,,,,,,,,,4,11,94,,,
57607,control_change,4,0,12,,,,,,,,,11,11,94,,,
57608,control_change,4,0,6,,,,,,,,,5,11,94,,,
57608,note_on,40,0,13,,,,,,,,,12,,,,55,112
57609,note_on,0,0,4,,,,,,,,,3,,,,64,100
57609,note_on,0,0,4,,,,,,,,,3,,,,60,100
57609,note_on,15,0,4,,,,,,,,,3,,,,55,0
57612,note_on,40,0,14,,,,,,,,,13,,,,48,112
57612,control_change,4,0,13,,,,,,,,,12,11,94,,,
57614,note_on,40,0,15,,,,,,,,,14,,,,36,112
57616,control_change,4,0,14,,,,,,,,,13,11,94,,,
57618,control_change,4,0,15,,,,,,,,,14,11,94,,,
57623,control_change,19,0,2,,,,,,,,,1,11,83,,,
57632,control_change,27,0,3,,,,,,,,,2,11,82,,,
57636,control_change,27,0,4,,,,,,,,,3,11,92,,,
57644,control_change,44,0,11,,,,,,,,,10,11,96,,,
57651,control_change,44,0,5,,,,,,,,,4,11,95,,,
57651,control_change,44,0,12,,,,,,,,,11,11,95,,,
57652,control_change,44,0,6,,,,,,,,,5,11,95,,,
57656,control_change,44,0,13,,,,,,,,,12,11,95,,,
57660,control_change,44,0,14,,,,,,,,,13,11,95,,,
57662,control_change,44,0,15,,,,,,,,,14,11,95,,,
57663,note_on,12,0,12,,,,,,,,,11,,,,64,0
57668,note_on,12,0,13,,,,,,,,,12,,,,55,0
57675,control_change,43,0,3,,,,,,,,,2,11,83,,,
57678,control_change,55,0,2,,,,,,,,,1,11,83,,,
57679,control_change,43,0,4,,,,,,,,,3,11,93,,,
57696,control_change,33,0,12,,,,,,,,,11,11,96,,,
57696,control_change,45,0,5,,,,,,,,,4,11,96,,,
57697,control_change,53,0,11,,,,,,,,,10,11,97,,,
57697,control_change,45,0,6,,,,,,,,,5,11,96,,,
57701,control_change,33,0,13,,,,,,,,,12,11,96,,,
57705,control_change,45,0,14,,,,,,,,,13,11,96,,,
57707,control_change,45,0,15,,,,,,,,,14,11,96,,,
57717,control_change,42,0,3,,,,,,,,,2,11,83,,,
57720,set_tempo,120,1,0,,,,,,263158,,,,,,,,
57721,control_change,42,0,4,,,,,,,,,3,11,94,,,
57723,note_on,27,0,12,,,,,,,,,11,,,,64,112
57728,note_on,27,0,13,,,,,,,,,12,,,,55,112
57729,note_on,0,0,4,,,,,,,,,3,,,,64,100
57729,note_on,8,0,4,,,,,,,,,3,,,,60,0
57729,note_on,0,0,4,,,,,,,,,3,,,,64,0
57729,note_on,0,0,4,,,,,,,,,3,,,,60,100
57732,note_on,27,0,14,,,,,,,,,13,,,,48,0
57733,control_change,55,0,2,,,,,,,,,1,11,84,,,
57734,note_on,27,0,15,,,,,,,,,14,,,,36,0
57740,control_change,44,0,5,,,,,,,,,4,11,97,,,
57740,control_change,17,0,12,,,,,,,,,11,11,97,,,
57741,control_change,44,0,6,,,,,,,,,5,11,97,,,
57745,control_change,17,0,13,,,,,,,,,12,11,97,,,
57749,control_change,52,0,11,,,,,,,,,10,11,98,,,
57749,control_change,17,0,14,,,,,,,,,13,11,97,,,
57751,control_change,17,0,15,,,,,,,,,14,11,97,,,
57760,control_change,43,0,3,,,,,,,,,2,11,84,,,
57764,control_change,35,0,4,,,,,,,,,3,11,95,,,
57783,note_on,43,0,12,,,,,,,,,11,,,,64,0
57784,control_change,44,0,5,,,,,,,,,4,11,98,,,
57784,control_change,1,0,12,,,,,,,,,11,11,98,,,
57785,control_change,44,0,6,,,,,,,,,5,11,98,,,
57788,control_change,55,0,2,,,,,,,,,1,11,85,,,
57788,note_on,43,0,13,,,,,,,,,12,,,,55,0
57789,control_change,1,0,13,,,,,,,,,12,11,98,,,
57793,control_change,44,0,14,,,,,,,,,13,11,98,,,
57795,control_change,44,0,15,,,,,,,,,14,11,98,,,
57801,control_change,52,0,11,,,,,,,,,10,11,99,,,
57802,control_change,42,0,3,,,,,,,,,2,11,85,,,
57806,control_change,42,0,4,,,,,,,,,3,11,96,,,
57829,control_change,45,0,5,,,,,,,,,4,11,99,,,
57829,control_change,45,0,12,,,,,,,,,11,11,99,,,
57830,control_change,45,0,6,,,,,,,,,5,11,99,,,
57834,control_change,45,0,13,,,,,,,,,12,11,99,,,
57838,control_change,45,0,14,,,,,,,,,13,11,99,,,
57840,set_tempo,120,1,0,,,,,,288462,,,,,,,,
57840,control_change,45,0,15,,,,,,,,,14,11,99,,,
57840,note_on,0,0,11,,,,,,,,,10,,,,76,112
57840,note_on,39,0,11,,,,,,,,,10,,,,79,0
57843,note_on,14,0,12,,,,,,,,,11,,,,67,127
57844,note_on,0,0,2,,,,,,,,,1,,,,76,100
57844,control_change,0,0,2,,,,,,,,,1,11,86,,,
57844,note_on,56,0,2,,,,,,,,,1,,,,79,0
57845,control_change,43,0,3,,,,,,,,,2,11,86,,,
57848,note_on,14,0,13,,,,,,,,,12,,,,64,127
57849,note_on,0,0,4,,,,,,,,,3,,,,55,100
57849,note_on,0,0,4,,,,,,,,,3,,,,64,0
57849,control_change,0,0,4,,,,,,,,,3,11,97,,,
57849,note_on,43,0,4,,,,,,,,,3,,,,60,0
57854,control_change,14,0,11,,,,,,,,,10,11,100,,,
57873,control_change,30,0,12,,,,,,,,,11,11,100,,,
57873,control_change,44,0,5,,,,,,,,,4,11,100,,,
57874,control_change,44,0,6,,,,,,,,,5,11,100,,,
57878,control_change,30,0,13,,,,,,,,,12,11,100,,,
57882,control_change,44,0,14,,,,,,,,,13,11,100,,,
57884,control_change,44,0,15,,,,,,,,,14,11,100,,,
57903,note_on,30,0,12,,,,,,,,,11,,,,67,0
57906,control_change,52,0,11,,,,,,,,,10,11,101,,,
57908,note_on,30,0,13,,,,,,,,,12,,,,64,0
57917,control_change,14,0,12,,,,,,,,,11,11,101,,,
57917,control_change,44,0,5,,,,,,,,,4,11,101,,,
57918,control_change,44,0,6,,,,,,,,,5,11,101,,,
57922,control_change,14,0,13,,,,,,,,,12,11,101,,,
57926,control_change,44,0,14,,,,,,,,,13,11,101,,,
57928,control_change,44,0,15,,,,,,,,,14,11,101,,,
57955,note_on,0,0,3,,,,,,,,,2,,,,72,0
57955,note_on,110,0,3,,,,,,,,,2,,,,76,0
57955,note_on,49,0,11,,,,,,,,,10,,,,76,0
57959,control_change,4,0,11,,,,,,,,,10,11,102,,,
57960,set_tempo,120,1,0,,,,,,262582,,,,,,,,
57960,note_on,1,0,11,,,,,,,,,10,,,,72,112
57960,control_change,0,0,11,,,,,,,,,10,11,122,,,
57962,note_on,14160,0,7,,,,,,,,,6,,,,60,112
57962,control_change,45,0,5,,,,,,,,,4,11,102,,,
57962,control_change,45,0,12,,,,,,,,,11,11,102,,,
57962,control_change,0,0,7,,,,,,,,,6,11,102,,,
57963,control_change,1,0,12,,,,,,,,,11,11,122,,,
57963,note_on,0,0,12,,,,,,,,,11,,,,72,112
57963,note_on,1,0,5,,,,,,,,,4,,,,64,0
57963,control_change,45,0,6,,,,,,,,,5,11,102,,,
57964,note_on,120,0,2,,,,,,,,,1,,,,76,0
57964,note_on,1,0,6,,,,,,,,,5,,,,60,0
57967,program_change,0,0,13,,,,,,,,50,12,,,,,
57967,control_change,45,0,13,,,,,,,,,12,11,102,,,
57968,note_on,1,0,13,,,,,,,,,12,,,,72,112
57968,control_change,0,0,13,,,,,,,,,12,11,122,,,
57969,control_change,9,0,11,,,,,,,,,10,11,119,,,
57969,note_on,120,0,4,,,,,,,,,3,,,,55,0
57971,control_change,45,0,14,,,,,,,,,13,11,102,,,
57972,control_change,9,0,12,,,,,,,,,11,11,119,,,
57972,control_change,0,0,14,,,,,,,,,13,11,122,,,
57972,note_on,1,0,14,,,,,,,,,13,,,,60,112
57973,control_change,45,0,15,,,,,,,,,14,11,102,,,
57974,control_change,1,0,15,,,,,,,,,14,11,122,,,
57974,note_on,0,0,15,,,,,,,,,14,,,,48,112
57975,note_on,14280,0,10,,,,,,,,,15,,,,48,71
57977,control_change,9,0,13,,,,,,,,,12,11,119,,,
57978,control_change,9,0,11,,,,,,,,,10,11,116,,,
57981,control_change,9,0,12,,,,,,,,,11,11,116,,,
57981,control_change,9,0,14,,,,,,,,,13,11,119,,,
57983,control_change,9,0,15,,,,,,,,,14,11,119,,,
57986,control_change,9,0,13,,,,,,,,,12,11,116,,,
57987,control_change,9,0,11,,,,,,,,,10,11,113,,,
57990,note_on,3,0,11,,,,,,,,,10,,,,72,0
57990,control_change,9,0,12,,,,,,,,,11,11,113,,,
57990,control_change,9,0,14,,,,,,,,,13,11,116,,,
57992,control_change,9,0,15,,,,,,,,,14,11,116,,,
57993,note_on,3,0,12,,,,,,,,,11,,,,72,0
57995,control_change,9,0,13,,,,,,,,,12,11,113,,,
57996,control_change,6,0,11,,,,,,,,,10,11,110,,,
57998,note_on,3,0,13,,,,,,,,,12,,,,72,0
57999,control_change,9,0,14,,,,,,,,,13,11,113,,,
57999,control_change,6,0,12,,,,,,,,,11,11,110,,,
58001,control_change,9,0,15,,,,,,,,,14,11,113,,,
58002,note_on,3,0,14,,,,,,,,,13,,,,60,0
58004,control_change,6,0,13,,,,,,,,,12,11,110,,,
58004,note_on,3,0,15,,,,,,,,,14,,,,48,0
58005,control_change,9,0,11,,,,,,,,,10,11,107,,,
58008,control_change,9,0,12,,,,,,,,,11,11,107,,,
58008,control_change,6,0,14,,,,,,,,,13,11,110,,,
58010,control_change,6,0,15,,,,,,,,,14,11,110,,,
58013,control_change,9,0,13,,,,,,,,,12,11,107,,,
58014,control_change,9,0,11,,,,,,,,,10,11,104,,,
58017,control_change,9,0,14,,,,,,,,,13,11,107,,,
58017,control_change,9,0,12,,,,,,,,,11,11,104,,,
58019,control_change,9,0,15,,,,,,,,,14,11,107,,,
58020,note_on,6,0,11,,,,,,,,,10,,,,72,112
58022,control_change,9,0,13,,,,,,,,,12,11,104,,,
58023,note_on,6,0,12,,,,,,,,,11,,,,72,112
58026,control_change,9,0,14,,,,,,,,,13,11,104,,,
58028,control_change,9,0,15,,,,,,,,,14,11,104,,,
58028,note_on,6,0,13,,,,,,,,,12,,,,72,112
58032,note_on,6,0,14,,,,,,,,,13,,,,60,112
58034,note_on,6,0,15,,,,,,,,,14,,,,48,112
58050,note_on,30,0,11,,,,,,,,,10,,,,72,0
58053,note_on,30,0,12,,,,,,,,,11,,,,72,0
58058,note_on,30,0,13,,,,,,,,,12,,,,72,0
58062,note_on,30,0,14,,,,,,,,,13,,,,60,0
58064,note_on,30,0,15,,,,,,,,,14,,,,48,0
58080,note_on,30,0,11,,,,,,,,,10,,,,73,112
58082,note_on,120,0,7,,,,,,,,,6,,,,60,0
58082,note_on,0,0,7,,,,,,,,,6,,,,60,112
58083,note_on,30,0,12,,,,,,,,,11,,,,73,112
58088,note_on,30,0,13,,,,,,,,,12,,,,73,112
58092,note_on,30,0,14,,,,,,,,,13,,,,61,112
58094,note_on,30,0,15,,,,,,,,,14,,,,49,112
58095,note_on,120,0,10,,,,,,,,,15,,,,48,0
58095,note_on,0,0,10,,,,,,,,,15,,,,48,71
58110,note_on,30,0,11,,,,,,,,,10,,,,73,0
58113,note_on,30,0,12,,,,,,,,,11,,,,73,0
58118,note_on,30,0,13,,,,,,,,,12,,,,73,0
58122,note_on,30,0,14,,,,,,,,,13,,,,61,0
58124,note_on,30,0,15,,,,,,,,,14,,,,49,0
58140,note_on,30,0,11,,,,,,,,,10,,,,72,112
58143,note_on,30,0,12,,,,,,,,,11,,,,72,112
58148,note_on,30,0,13,,,,,,,,,12,,,,72,112
58152,note_on,30,0,14,,,,,,,,,13,,,,60,112
58154,note_on,30,0,15,,,,,,,,,14,,,,48,112
58170,note_on,30,0,11,,,,,,,,,10,,,,72,0
58173,note_on,30,0,12,,,,,,,,,11,,,,72,0
58178,note_on,30,0,13,,,,,,,,,12,,,,72,0
58182,note_on,30,0,14,,,,,,,,,13,,,,60,0
58184,note_on,30,0,15,,,,,,,,,14,,,,48,0
58200,note_on,30,0,11,,,,,,,,,10,,,,73,112
58200,set_tempo,240,1,0,,,,,,280374,,,,,,,,
58201,control_change,0,0,1,,,,,,,,,0,11,101,,,
58201,note_on,0,0,1,,,,,,,,,0,,,,84,101
58201,note_on,3120,0,1,,,,,,,,,0,,,,88,101
58202,note_on,120,0,7,,,,,,,,,6,,,,60,0
58203,note_on,30,0,12,,,,,,,,,11,,,,73,112
58203,control_change,0,0,5,,,,,,,,,4,11,122,,,
58203,note_on,240,0,5,,,,,,,,,4,,,,55,100
58204,control_change,240,0,2,,,,,,,,,1,11,101,,,
58204,note_on,240,0,6,,,,,,,,,5,,,,48,100
58204,control_change,0,0,6,,,,,,,,,5,11,122,,,
58204,note_on,0,0,2,,,,,,,,,1,,,,79,100
58204,note_on,0,0,2,,,,,,,,,1,,,,76,100
58205,note_on,250,0,3,,,,,,,,,2,,,,72,101
58205,control_change,0,0,3,,,,,,,,,2,11,101,,,
58205,note_on,0,0,3,,,,,,,,,2,,,,67,101
58207,note_on,0,0,8,,,,,,,,,7,,,,64,110
58207,control_change,0,0,8,,,,,,,,,7,11,122,,,
58207,note_on,7080,0,8,,,,,,,,,7,,,,55,110
58208,control_change,7,0,1,,,,,,,,,0,11,98,,,
58208,note_on,30,0,13,,,,,,,,,12,,,,73,112
58209,control_change,240,0,4,,,,,,,,,3,11,117,,,
58209,note_on,0,0,4,,,,,,,,,3,,,,60,100
58209,note_on,0,0,4,,,,,,,,,3,,,,64,100
58210,control_change,7,0,5,,,,,,,,,4,11,119,,,
58211,control_change,7,0,6,,,,,,,,,5,11,119,,,
58211,control_change,7,0,2,,,,,,,,,1,11,98,,,
58212,control_change,7,0,3,,,,,,,,,2,11,98,,,
58212,note_on,30,0,14,,,,,,,,,13,,,,61,112
58213,control_change,7080,0,9,,,,,,,,,8,11,122,,,
58213,note_on,0,0,9,,,,,,,,,8,,,,48,110
58214,note_on,30,0,15,,,,,,,,,14,,,,49,112
58214,control_change,7,0,8,,,,,,,,,7,11,119,,,
58215,note_on,120,0,10,,,,,,,,,15,,,,48,0
58216,control_change,7,0,4,,,,,,,,,3,11,114,,,
58218,control_change,8,0,5,,,,,,,,,4,11,116,,,
58219,control_change,8,0,6,,,,,,,,,5,11,116,,,
58220,control_change,7,0,9,,,,,,,,,8,11,119,,,
58222,control_change,8,0,8,,,,,,,,,7,11,116,,,
58223,control_change,15,0,1,,,,,,,,,0,11,94,,,
58224,control_change,8,0,4,,,,,,,,,3,11,111,,,
58225,control_change,7,0,5,,,,,,,,,4,11,113,,,
58226,control_change,15,0,2,,,,,,,,,1,11,94,,,
58226,control_change,7,0,6,,,,,,,,,5,11,113,,,
58227,control_change,15,0,3,,,,,,,,,2,11,94,,,
58228,control_change,8,0,9,,,,,,,,,8,11,116,,,
58229,control_change,7,0,8,,,,,,,,,7,11,113,,,
58230,note_on,30,0,11,,,,,,,,,10,,,,73,0
58231,control_change,7,0,4,,,,,,,,,3,11,108,,,
58233,control_change,8,0,5,,,,,,,,,4,11,110,,,
58233,note_on,30,0,12,,,,,,,,,11,,,,73,0
58234,control_change,8,0,6,,,,,,,,,5,11,110,,,
58235,control_change,7,0,9,,,,,,,,,8,11,113,,,
58237,control_change,8,0,8,,,,,,,,,7,11,110,,,
58238,note_on,30,0,13,,,,,,,,,12,,,,73,0
58238,control_change,15,0,1,,,,,,,,,0,11,89,,,
58239,control_change,8,0,4,,,,,,,,,3,11,105,,,
58240,control_change,7,0,5,,,,,,,,,4,11,107,,,
58241,control_change,7,0,6,,,,,,,,,5,11,107,,,
58241,control_change,15,0,2,,,,,,,,,1,11,89,,,
58242,note_on,30,0,14,,,,,,,,,13,,,,61,0
58242,control_change,15,0,3,,,,,,,,,2,11,89,,,
58243,control_change,8,0,9,,,,,,,,,8,11,110,,,
58244,note_on,30,0,15,,,,,,,,,14,,,,49,0
58244,control_change,7,0,8,,,,,,,,,7,11,107,,,
58246,control_change,7,0,4,,,,,,,,,3,11,102,,,
58248,control_change,8,0,5,,,,,,,,,4,11,104,,,
58249,control_change,8,0,6,,,,,,,,,5,11,104,,,
58250,control_change,7,0,9,,,,,,,,,8,11,107,,,
58252,control_change,8,0,8,,,,,,,,,7,11,104,,,
58254,control_change,8,0,4,,,,,,,,,3,11,99,,,
58258,control_change,8,0,9,,,,,,,,,8,11,104,,,
58260,note_on,30,0,11,,,,,,,,,10,,,,72,112
58263,note_on,30,0,12,,,,,,,,,11,,,,72,112
58268,note_on,30,0,13,,,,,,,,,12,,,,72,112
58272,note_on,30,0,14,,,,,,,,,13,,,,60,112
58274,note_on,30,0,15,,,,,,,,,14,,,,48,112
58290,note_on,30,0,11,,,,,,,,,10,,,,72,0
58293,note_on,30,0,12,,,,,,,,,11,,,,72,0
58298,note_on,30,0,13,,,,,,,,,12,,,,72,0
58302,note_on,30,0,14,,,,,,,,,13,,,,60,0
58304,note_on,30,0,15,,,,,,,,,14,,,,48,0
58320,set_tempo,120,1,0,,,,,,265487,,,,,,,,
58320,control_change,30,0,11,,,,,,,,,10,11,122,,,
58320,note_on,0,0,11,,,,,,,,,10,,,,67,112
58321,note_on,0,0,1,,,,,,,,,0,,,,88,0
58321,note_on,83,0,1,,,,,,,,,0,,,,84,0
58322,note_on,120,0,7,,,,,,,,,6,,,,60,112
58323,note_on,75,0,5,,,,,,,,,4,,,,55,0
58323,note_on,0,0,12,,,,,,,,,11,,,,67,112
58323,control_change,30,0,12,,,,,,,,,11,11,122,,,
58324,note_on,83,0,2,,,,,,,,,1,,,,79,0
58324,note_on,0,0,2,,,,,,,,,1,,,,76,0
58324,note_on,75,0,6,,,,,,,,,5,,,,48,0
58325,note_on,83,0,3,,,,,,,,,2,,,,67,0
58325,note_on,0,0,3,,,,,,,,,2,,,,72,0
58327,note_on,0,0,8,,,,,,,,,7,,,,55,0
58327,note_on,75,0,8,,,,,,,,,7,,,,64,0
58328,note_on,30,0,13,,,,,,,,,12,,,,67,112
58328,control_change,0,0,13,,,,,,,,,12,11,122,,,
58329,note_on,75,0,4,,,,,,,,,3,,,,60,0
58329,note_on,0,0,4,,,,,,,,,3,,,,64,0
58329,control_change,9,0,11,,,,,,,,,10,11,119,,,
58332,control_change,9,0,12,,,,,,,,,11,11,119,,,
58332,note_on,0,0,14,,,,,,,,,13,,,,55,112
58332,control_change,30,0,14,,,,,,,,,13,11,122,,,
58333,note_on,75,0,9,,,,,,,,,8,,,,48,0
58334,note_on,30,0,15,,,,,,,,,14,,,,43,112
58334,control_change,0,0,15,,,,,,,,,14,11,122,,,
58335,note_on,120,0,10,,,,,,,,,15,,,,48,71
58337,control_change,9,0,13,,,,,,,,,12,11,119,,,
58338,control_change,9,0,11,,,,,,,,,10,11,116,,,
58341,control_change,9,0,14,,,,,,,,,13,11,119,,,
58341,control_change,9,0,12,,,,,,,,,11,11,116,,,
58343,control_change,9,0,15,,,,,,,,,14,11,119,,,
58346,control_change,9,0,13,,,,,,,,,12,11,116,,,
58347,control_change,9,0,11,,,,,,,,,10,11,113,,,
58350,control_change,9,0,12,,,,,,,,,11,11,113,,,
58350,control_change,9,0,14,,,,,,,,,13,11,116,,,
58350,note_on,3,0,11,,,,,,,,,10,,,,67,0
58352,control_change,9,0,15,,,,,,,,,14,11,116,,,
58353,note_on,3,0,12,,,,,,,,,11,,,,67,0
58355,control_change,9,0,13,,,,,,,,,12,11,113,,,
58356,control_change,6,0,11,,,,,,,,,10,11,110,,,
58358,note_on,3,0,13,,,,,,,,,12,,,,67,0
58359,control_change,6,0,12,,,,,,,,,11,11,110,,,
58359,control_change,9,0,14,,,,,,,,,13,11,113,,,
58361,control_change,9,0,15,,,,,,,,,14,11,113,,,
58362,note_on,3,0,14,,,,,,,,,13,,,,55,0
58364,control_change,6,0,13,,,,,,,,,12,11,110,,,
58364,note_on,3,0,15,,,,,,,,,14,,,,43,0
58365,control_change,9,0,11,,,,,,,,,10,11,107,,,
58368,control_change,9,0,12,,,,,,,,,11,11,107,,,
58368,control_change,6,0,14,,,,,,,,,13,11,110,,,
58370,control_change,6,0,15,,,,,,,,,14,11,110,,,
58373,control_change,9,0,13,,,,,,,,,12,11,107,,,
58374,control_change,9,0,11,,,,,,,,,10,11,104,,,
58377,control_change,9,0,14,,,,,,,,,13,11,107,,,
58377,control_change,9,0,12,,,,,,,,,11,11,104,,,
58379,control_change,9,0,15,,,,,,,,,14,11,107,,,
58380,note_on,6,0,11,,,,,,,,,10,,,,67,112
58382,control_change,9,0,13,,,,,,,,,12,11,104,,,
58383,note_on,6,0,12,,,,,,,,,11,,,,67,112
58386,control_change,9,0,14,,,,,,,,,13,11,104,,,
58388,note_on,6,0,13,,,,,,,,,12,,,,67,112
58388,control_change,9,0,15,,,,,,,,,14,11,104,,,
58392,note_on,6,0,14,,,,,,,,,13,,,,55,112
58394,note_on,6,0,15,,,,,,,,,14,,,,43,112
58410,note_on,30,0,11,,,,,,,,,10,,,,67,0
58413,note_on,30,0,12,,,,,,,,,11,,,,67,0
58418,note_on,30,0,13,,,,,,,,,12,,,,67,0
58422,note_on,30,0,14,,,,,,,,,13,,,,55,0
58424,note_on,30,0,15,,,,,,,,,14,,,,43,0
58440,note_on,30,0,11,,,,,,,,,10,,,,68,112
58442,note_on,0,0,7,,,,,,,,,6,,,,60,112
58442,note_on,120,0,7,,,,,,,,,6,,,,60,0
58443,note_on,30,0,12,,,,,,,,,11,,,,68,112
58448,note_on,30,0,13,,,,,,,,,12,,,,68,112
58452,note_on,30,0,14,,,,,,,,,13,,,,56,112
58454,note_on,30,0,15,,,,,,,,,14,,,,44,112
58455,note_on,0,0,10,,,,,,,,,15,,,,48,71
58455,note_on,120,0,10,,,,,,,,,15,,,,48,0
58470,note_on,30,0,11,,,,,,,,,10,,,,68,0
58473,note_on,30,0,12,,,,,,,,,11,,,,68,0
58478,note_on,30,0,13,,,,,,,,,12,,,,68,0
58482,note_on,30,0,14,,,,,,,,,13,,,,56,0
58484,note_on,30,0,15,,,,,,,,,14,,,,44,0
58500,note_on,30,0,11,,,,,,,,,10,,,,67,112
58503,note_on,30,0,12,,,,,,,,,11,,,,67,112
58508,note_on,30,0,13,,,,,,,,,12,,,,67,112
58512,note_on,30,0,14,,,,,,,,,13,,,,55,112
58514,note_on,30,0,15,,,,,,,,,14,,,,43,112
58530,note_on,30,0,11,,,,,,,,,10,,,,67,0
58533,note_on,30,0,12,,,,,,,,,11,,,,67,0
58538,note_on,30,0,13,,,,,,,,,12,,,,67,0
58542,note_on,30,0,14,,,,,,,,,13,,,,55,0
58544,note_on,30,0,15,,,,,,,,,14,,,,43,0
58560,note_on,30,0,11,,,,,,,,,10,,,,68,112
58560,set_tempo,240,1,0,,,,,,280374,,,,,,,,
58561,control_change,240,0,1,,,,,,,,,0,11,101,,,
58561,note_on,0,0,1,,,,,,,,,0,,,,84,101
58561,note_on,0,0,1,,,,,,,,,0,,,,88,101
58562,note_on,120,0,7,,,,,,,,,6,,,,60,0
58563,note_on,30,0,12,,,,,,,,,11,,,,68,112
58563,note_on,240,0,5,,,,,,,,,4,,,,55,100
58563,control_change,0,0,5,,,,,,,,,4,11,122,,,
58564,note_on,240,0,2,,,,,,,,,1,,,,76,100
58564,control_change,0,0,2,,,,,,,,,1,11,101,,,
58564,note_on,0,0,2,,,,,,,,,1,,,,79,100
58564,note_on,240,0,6,,,,,,,,,5,,,,48,100
58564,control_change,0,0,6,,,,,,,,,5,11,122,,,
58565,note_on,240,0,3,,,,,,,,,2,,,,72,101
58565,note_on,0,0,3,,,,,,,,,2,,,,67,101
58565,control_change,0,0,3,,,,,,,,,2,11,101,,,
58567,note_on,0,0,8,,,,,,,,,7,,,,55,110
58567,control_change,0,0,8,,,,,,,,,7,11,122,,,
58567,note_on,240,0,8,,,,,,,,,7,,,,64,110
58568,note_on,30,0,13,,,,,,,,,12,,,,68,112
58568,control_change,7,0,1,,,,,,,,,0,11,98,,,
58569,note_on,240,0,4,,,,,,,,,3,,,,64,100
58569,note_on,0,0,4,,,,,,,,,3,,,,60,100
58569,control_change,0,0,4,,,,,,,,,3,11,117,,,
58570,control_change,7,0,5,,,,,,,,,4,11,119,,,
58571,control_change,7,0,6,,,,,,,,,5,11,119,,,
58571,control_change,7,0,2,,,,,,,,,1,11,98,,,
58572,control_change,7,0,3,,,,,,,,,2,11,98,,,
58572,note_on,30,0,14,,,,,,,,,13,,,,56,112
58573,note_on,0,0,9,,,,,,,,,8,,,,48,110
58573,control_change,240,0,9,,,,,,,,,8,11,122,,,
58574,control_change,7,0,8,,,,,,,,,7,11,119,,,
58574,note_on,30,0,15,,,,,,,,,14,,,,44,112
58575,note_on,120,0,10,,,,,,,,,15,,,,48,0
58576,control_change,7,0,4,,,,,,,,,3,11,114,,,
58578,control_change,8,0,5,,,,,,,,,4,11,116,,,
58579,control_change,8,0,6,,,,,,,,,5,11,116,,,
58580,control_change,7,0,9,,,,,,,,,8,11,119,,,
58582,control_change,8,0,8,,,,,,,,,7,11,116,,,
58583,control_change,15,0,1,,,,,,,,,0,11,94,,,
58584,control_change,8,0,4,,,,,,,,,3,11,111,,,
58585,control_change,7,0,5,,,,,,,,,4,11,113,,,
58586,control_change,15,0,2,,,,,,,,,1,11,94,,,
58586,control_change,7,0,6,,,,,,,,,5,11,113,,,
58587,control_change,15,0,3,,,,,,,,,2,11,94,,,
58588,control_change,8,0,9,,,,,,,,,8,11,116,,,
58589,control_change,7,0,8,,,,,,,,,7,11,113,,,
58590,note_on,30,0,11,,,,,,,,,10,,,,68,0
58591,control_change,7,0,4,,,,,,,,,3,11,108,,,
58593,note_on,30,0,12,,,,,,,,,11,,,,68,0
58593,control_change,8,0,5,,,,,,,,,4,11,110,,,
58594,control_change,8,0,6,,,,,,,,,5,11,110,,,
58595,control_change,7,0,9,,,,,,,,,8,11,113,,,
58597,control_change,8,0,8,,,,,,,,,7,11,110,,,
58598,note_on,30,0,13,,,,,,,,,12,,,,68,0
58598,control_change,15,0,1,,,,,,,,,0,11,89,,,
58599,control_change,8,0,4,,,,,,,,,3,11,105,,,
58600,control_change,7,0,5,,,,,,,,,4,11,107,,,
58601,control_change,15,0,2,,,,,,,,,1,11,89,,,
58601,control_change,7,0,6,,,,,,,,,5,11,107,,,
58602,control_change,15,0,3,,,,,,,,,2,11,89,,,
58602,note_on,30,0,14,,,,,,,,,13,,,,56,0
58603,control_change,8,0,9,,,,,,,,,8,11,110,,,
58604,control_change,7,0,8,,,,,,,,,7,11,107,,,
58604,note_on,30,0,15,,,,,,,,,14,,,,44,0
58606,control_change,7,0,4,,,,,,,,,3,11,102,,,
58608,control_change,8,0,5,,,,,,,,,4,11,104,,,
58609,control_change,8,0,6,,,,,,,,,5,11,104,,,
58610,control_change,7,0,9,,,,,,,,,8,11,107,,,
58612,control_change,8,0,8,,,,,,,,,7,11,104,,,
58614,control_change,8,0,4,,,,,,,,,3,11,99,,,
58618,control_change,8,0,9,,,,,,,,,8,11,104,,,
58620,note_on,30,0,11,,,,,,,,,10,,,,67,112
58623,note_on,30,0,12,,,,,,,,,11,,,,67,112
58628,note_on,30,0,13,,,,,,,,,12,,,,67,112
58632,note_on,30,0,14,,,,,,,,,13,,,,55,112
58634,note_on,30,0,15,,,,,,,,,14,,,,43,112
58650,note_on,30,0,11,,,,,,,,,10,,,,67,0
58653,note_on,30,0,12,,,,,,,,,11,,,,67,0
58658,note_on,30,0,13,,,,,,,,,12,,,,67,0
58662,note_on,30,0,14,,,,,,,,,13,,,,55,0
58664,note_on,30,0,15,,,,,,,,,14,,,,43,0
58680,control_change,0,0,11,,,,,,,,,10,11,122,,,
58680,note_on,30,0,11,,,,,,,,,10,,,,64,112
58680,set_tempo,120,1,0,,,,,,265487,,,,,,,,
58681,note_on,83,0,1,,,,,,,,,0,,,,88,0
58681,note_on,0,0,1,,,,,,,,,0,,,,84,0
58682,note_on,120,0,7,,,,,,,,,6,,,,60,112
58683,note_on,0,0,12,,,,,,,,,11,,,,64,112
58683,note_on,75,0,5,,,,,,,,,4,,,,55,0
58683,control_change,30,0,12,,,,,,,,,11,11,122,,,
58684,note_on,0,0,2,,,,,,,,,1,,,,76,0
58684,note_on,83,0,2,,,,,,,,,1,,,,79,0
58684,note_on,75,0,6,,,,,,,,,5,,,,48,0
58685,note_on,0,0,3,,,,,,,,,2,,,,72,0
58685,note_on,83,0,3,,,,,,,,,2,,,,67,0
58687,note_on,75,0,8,,,,,,,,,7,,,,55,0
58687,note_on,0,0,8,,,,,,,,,7,,,,64,0
58688,note_on,30,0,13,,,,,,,,,12,,,,64,112
58688,control_change,0,0,13,,,,,,,,,12,11,122,,,
58689,control_change,9,0,11,,,,,,,,,10,11,119,,,
58689,note_on,0,0,4,,,,,,,,,3,,,,64,0
58689,note_on,75,0,4,,,,,,,,,3,,,,60,0
58692,note_on,30,0,14,,,,,,,,,13,,,,52,112
58692,control_change,0,0,14,,,,,,,,,13,11,122,,,
58692,control_change,9,0,12,,,,,,,,,11,11,119,,,
58693,note_on,75,0,9,,,,,,,,,8,,,,48,0
58694,note_on,0,0,15,,,,,,,,,14,,,,40,112
58694,control_change,30,0,15,,,,,,,,,14,11,122,,,
58695,note_on,120,0,10,,,,,,,,,15,,,,48,71
58697,control_change,9,0,13,,,,,,,,,12,11,119,,,
58698,control_change,9,0,11,,,,,,,,,10,11,116,,,
58701,control_change,9,0,12,,,,,,,,,11,11,116,,,
58701,control_change,9,0,14,,,,,,,,,13,11,119,,,
58703,control_change,9,0,15,,,,,,,,,14,11,119,,,
58706,control_change,9,0,13,,,,,,,,,12,11,116,,,
58707,control_change,9,0,11,,,,,,,,,10,11,113,,,
58710,control_change,9,0,14,,,,,,,,,13,11,116,,,
58710,control_change,9,0,12,,,,,,,,,11,11,113,,,
58710,note_on,3,0,11,,,,,,,,,10,,,,64,0
58712,control_change,9,0,15,,,,,,,,,14,11,116,,,
58713,note_on,3,0,12,,,,,,,,,11,,,,64,0
58715,control_change,9,0,13,,,,,,,,,12,11,113,,,
58716,control_change,6,0,11,,,,,,,,,10,11,110,,,
58718,note_on,3,0,13,,,,,,,,,12,,,,64,0
58719,control_change,9,0,14,,,,,,,,,13,11,113,,,
58719,control_change,6,0,12,,,,,,,,,11,11,110,,,
58721,control_change,9,0,15,,,,,,,,,14,11,113,,,
58722,note_on,3,0,14,,,,,,,,,13,,,,52,0
58724,control_change,6,0,13,,,,,,,,,12,11,110,,,
58724,note_on,3,0,15,,,,,,,,,14,,,,40,0
58725,control_change,9,0,11,,,,,,,,,10,11,107,,,
58728,control_change,6,0,14,,,,,,,,,13,11,110,,,
58728,control_change,9,0,12,,,,,,,,,11,11,107,,,
58730,control_change,6,0,15,,,,,,,,,14,11,110,,,
58733,control_change,9,0,13,,,,,,,,,12,11,107,,,
58734,control_change,9,0,11,,,,,,,,,10,11,104,,,
58737,control_change,9,0,12,,,,,,,,,11,11,104,,,
58737,control_change,9,0,14,,,,,,,,,13,11,107,,,
58739,control_change,9,0,15,,,,,,,,,14,11,107,,,
58740,note_on,6,0,11,,,,,,,,,10,,,,64,112
58742,control_change,9,0,13,,,,,,,,,12,11,104,,,
58743,note_on,6,0,12,,,,,,,,,11,,,,64,112
58746,control_change,9,0,14,,,,,,,,,13,11,104,,,
58748,control_change,9,0,15,,,,,,,,,14,11,104,,,
58748,note_on,6,0,13,,,,,,,,,12,,,,64,112
58752,note_on,6,0,14,,,,,,,,,13,,,,52,112
58754,note_on,6,0,15,,,,,,,,,14,,,,40,112
58770,note_on,30,0,11,,,,,,,,,10,,,,64,0
58773,note_on,30,0,12,,,,,,,,,11,,,,64,0
58778,note_on,30,0,13,,,,,,,,,12,,,,64,0
58782,note_on,30,0,14,,,,,,,,,13,,,,52,0
58784,note_on,30,0,15,,,,,,,,,14,,,,40,0
58800,note_on,30,0,11,,,,,,,,,10,,,,65,112
58802,note_on,0,0,7,,,,,,,,,6,,,,60,112
58802,note_on,120,0,7,,,,,,,,,6,,,,60,0
58803,note_on,30,0,12,,,,,,,,,11,,,,65,112
58808,note_on,30,0,13,,,,,,,,,12,,,,65,112
58812,note_on,30,0,14,,,,,,,,,13,,,,53,112
58814,note_on,30,0,15,,,,,,,,,14,,,,41,112
58815,note_on,0,0,10,,,,,,,,,15,,,,48,71
58815,note_on,120,0,10,,,,,,,,,15,,,,48,0
58830,note_on,30,0,11,,,,,,,,,10,,,,65,0
58833,note_on,30,0,12,,,,,,,,,11,,,,65,0
58838,note_on,30,0,13,,,,,,,,,12,,,,65,0
58842,note_on,30,0,14,,,,,,,,,13,,,,53,0
58844,note_on,30,0,15,,,,,,,,,14,,,,41,0
58860,note_on,30,0,11,,,,,,,,,10,,,,64,112
58863,note_on,30,0,12,,,,,,,,,11,,,,64,112
58868,note_on,30,0,13,,,,,,,,,12,,,,64,112
58872,note_on,30,0,14,,,,,,,,,13,,,,52,112
58874,note_on,30,0,15,,,,,,,,,14,,,,40,112
58890,note_on,30,0,11,,,,,,,,,10,,,,64,0
58893,note_on,30,0,12,,,,,,,,,11,,,,64,0
58898,note_on,30,0,13,,,,,,,,,12,,,,64,0
58902,note_on,30,0,14,,,,,,,,,13,,,,52,0
58904,note_on,30,0,15,,,,,,,,,14,,,,40,0
58920,set_tempo,240,1,0,,,,,,280374,,,,,,,,
58920,note_on,30,0,11,,,,,,,,,10,,,,65,112
58921,note_on,240,0,1,,,,,,,,,0,,,,88,101
58921,note_on,0,0,1,,,,,,,,,0,,,,84,101
58921,control_change,0,0,1,,,,,,,,,0,11,101,,,
58922,note_on,120,0,7,,,,,,,,,6,,,,60,0
58923,control_change,240,0,5,,,,,,,,,4,11,122,,,
58923,note_on,30,0,12,,,,,,,,,11,,,,65,112
58923,note_on,0,0,5,,,,,,,,,4,,,,55,100
58924,note_on,0,0,2,,,,,,,,,1,,,,76,100
58924,control_change,0,0,2,,,,,,,,,1,11,101,,,
58924,note_on,240,0,2,,,,,,,,,1,,,,79,100
58924,note_on,240,0,6,,,,,,,,,5,,,,48,100
58924,control_change,0,0,6,,,,,,,,,5,11,122,,,
58925,note_on,240,0,3,,,,,,,,,2,,,,67,101
58925,control_change,0,0,3,,,,,,,,,2,11,101,,,
58925,note_on,0,0,3,,,,,,,,,2,,,,72,101
58927,note_on,0,0,8,,,,,,,,,7,,,,64,110
58927,note_on,0,0,8,,,,,,,,,7,,,,55,110
58927,control_change,240,0,8,,,,,,,,,7,11,122,,,
58928,note_on,30,0,13,,,,,,,,,12,,,,65,112
58928,control_change,7,0,1,,,,,,,,,0,11,98,,,
58929,note_on,240,0,4,,,,,,,,,3,,,,60,100
58929,note_on,0,0,4,,,,,,,,,3,,,,64,100
58929,control_change,0,0,4,,,,,,,,,3,11,117,,,
58930,control_change,7,0,5,,,,,,,,,4,11,119,,,
58931,control_change,7,0,6,,,,,,,,,5,11,119,,,
58931,control_change,7,0,2,,,,,,,,,1,11,98,,,
58932,control_change,7,0,3,,,,,,,,,2,11,98,,,
58932,note_on,30,0,14,,,,,,,,,13,,,,53,112
58933,control_change,240,0,9,,,,,,,,,8,11,122,,,
58933,note_on,0,0,9,,,,,,,,,8,,,,48,110
58934,note_on,30,0,15,,,,,,,,,14,,,,41,112
58934,control_change,7,0,8,,,,,,,,,7,11,119,,,
58935,note_on,120,0,10,,,,,,,,,15,,,,48,0
58936,control_change,7,0,4,,,,,,,,,3,11,114,,,
58938,control_change,8,0,5,,,,,,,,,4,11,116,,,
58939,control_change,8,0,6,,,,,,,,,5,11,116,,,
58940,control_change,7,0,9,,,,,,,,,8,11,119,,,
58942,control_change,8,0,8,,,,,,,,,7,11,116,,,
58943,control_change,15,0,1,,,,,,,,,0,11,94,,,
58944,control_change,8,0,4,,,,,,,,,3,11,111,,,
58945,control_change,7,0,5,,,,,,,,,4,11,113,,,
58946,control_change,7,0,6,,,,,,,,,5,11,113,,,
58946,control_change,15,0,2,,,,,,,,,1,11,94,,,
58947,control_change,15,0,3,,,,,,,,,2,11,94,,,
58948,control_change,8,0,9,,,,,,,,,8,11,116,,,
58949,control_change,7,0,8,,,,,,,,,7,11,113,,,
58950,note_on,30,0,11,,,,,,,,,10,,,,65,0
58951,control_change,7,0,4,,,,,,,,,3,11,108,,,
58953,note_on,30,0,12,,,,,,,,,11,,,,65,0
58953,control_change,8,0,5,,,,,,,,,4,11,110,,,
58954,control_change,8,0,6,,,,,,,,,5,11,110,,,
58955,control_change,7,0,9,,,,,,,,,8,11,113,,,
58957,control_change,8,0,8,,,,,,,,,7,11,110,,,
58958,control_change,15,0,1,,,,,,,,,0,11,89,,,
58958,note_on,30,0,13,,,,,,,,,12,,,,65,0
58959,control_change,8,0,4,,,,,,,,,3,11,105,,,
58960,control_change,7,0,5,,,,,,,,,4,11,107,,,
58961,control_change,7,0,6,,,,,,,,,5,11,107,,,
58961,control_change,15,0,2,,,,,,,,,1,11,89,,,
58962,control_change,15,0,3,,,,,,,,,2,11,89,,,
58962,note_on,30,0,14,,,,,,,,,13,,,,53,0
58963,control_change,8,0,9,,,,,,,,,8,11,110,,,
58964,note_on,30,0,15,,,,,,,,,14,,,,41,0
58964,control_change,7,0,8,,,,,,,,,7,11,107,,,
58966,control_change,7,0,4,,,,,,,,,3,11,102,,,
58968,control_change,8,0,5,,,,,,,,,4,11,104,,,
58969,control_change,8,0,6,,,,,,,,,5,11,104,,,
58970,control_change,7,0,9,,,,,,,,,8,11,107,,,
58972,control_change,8,0,8,,,,,,,,,7,11,104,,,
58974,control_change,8,0,4,,,,,,,,,3,11,99,,,
58978,control_change,8,0,9,,,,,,,,,8,11,104,,,
58980,note_on,30,0,11,,,,,,,,,10,,,,64,112
58983,note_on,30,0,12,,,,,,,,,11,,,,64,112
58988,note_on,30,0,13,,,,,,,,,12,,,,64,112
58992,note_on,30,0,14,,,,,,,,,13,,,,52,112
58994,note_on,30,0,15,,,,,,,,,14,,,,40,112
59010,note_on,30,0,11,,,,,,,,,10,,,,64,0
59013,note_on,30,0,12,,,,,,,,,11,,,,64,0
59018,note_on,30,0,13,,,,,,,,,12,,,,64,0
59022,note_on,30,0,14,,,,,,,,,13,,,,52,0
59024,note_on,30,0,15,,,,,,,,,14,,,,40,0
59040,control_change,30,0,11,,,,,,,,,10,11,122,,,
59040,note_on,0,0,11,,,,,,,,,10,,,,60,112
59040,set_tempo,120,1,0,,,,,,265487,,,,,,,,
59041,note_on,83,0,1,,,,,,,,,0,,,,84,0
59041,note_on,0,0,1,,,,,,,,,0,,,,88,0
59042,note_on,120,0,7,,,,,,,,,6,,,,60,112
59043,note_on,30,0,12,,,,,,,,,11,,,,60,112
59043,control_change,0,0,12,,,,,,,,,11,11,122,,,
59043,note_on,75,0,5,,,,,,,,,4,,,,55,0
59044,note_on,0,0,2,,,,,,,,,1,,,,79,0
59044,note_on,83,0,2,,,,,,,,,1,,,,76,0
59044,note_on,75,0,6,,,,,,,,,5,,,,48,0
59045,note_on,83,0,3,,,,,,,,,2,,,,72,0
59045,note_on,0,0,3,,,,,,,,,2,,,,67,0
59047,note_on,0,0,8,,,,,,,,,7,,,,64,0
59047,note_on,75,0,8,,,,,,,,,7,,,,55,0
59048,note_on,30,0,13,,,,,,,,,12,,,,60,112
59048,control_change,0,0,13,,,,,,,,,12,11,122,,,
59049,note_on,75,0,4,,,,,,,,,3,,,,64,0
59049,control_change,9,0,11,,,,,,,,,10,11,119,,,
59049,note_on,0,0,4,,,,,,,,,3,,,,60,0
59052,control_change,30,0,14,,,,,,,,,13,11,122,,,
59052,note_on,0,0,14,,,,,,,,,13,,,,48,112
59052,control_change,9,0,12,,,,,,,,,11,11,119,,,
59053,note_on,75,0,9,,,,,,,,,8,,,,48,0
59054,control_change,30,0,15,,,,,,,,,14,11,122,,,
59054,note_on,0,0,15,,,,,,,,,14,,,,36,112
59055,note_on,120,0,10,,,,,,,,,15,,,,48,71
59057,control_change,9,0,13,,,,,,,,,12,11,119,,,
59058,control_change,9,0,11,,,,,,,,,10,11,116,,,
59061,control_change,9,0,14,,,,,,,,,13,11,119,,,
59061,control_change,9,0,12,,,,,,,,,11,11,116,,,
59063,control_change,9,0,15,,,,,,,,,14,11,119,,,
59066,control_change,9,0,13,,,,,,,,,12,11,116,,,
59067,control_change,9,0,11,,,,,,,,,10,11,113,,,
59070,control_change,9,0,12,,,,,,,,,11,11,113,,,
59070,note_on,3,0,11,,,,,,,,,10,,,,60,0
59070,control_change,9,0,14,,,,,,,,,13,11,116,,,
59072,control_change,9,0,15,,,,,,,,,14,11,116,,,
59073,note_on,3,0,12,,,,,,,,,11,,,,60,0
59075,control_change,9,0,13,,,,,,,,,12,11,113,,,
59076,control_change,6,0,11,,,,,,,,,10,11,110,,,
59078,note_on,3,0,13,,,,,,,,,12,,,,60,0
59079,control_change,9,0,14,,,,,,,,,13,11,113,,,
59079,control_change,6,0,12,,,,,,,,,11,11,110,,,
59081,control_change,9,0,15,,,,,,,,,14,11,113,,,
59082,note_on,3,0,14,,,,,,,,,13,,,,48,0
59084,note_on,3,0,15,,,,,,,,,14,,,,36,0
59084,control_change,6,0,13,,,,,,,,,12,11,110,,,
59085,control_change,9,0,11,,,,,,,,,10,11,107,,,
59088,control_change,6,0,14,,,,,,,,,13,11,110,,,
59088,control_change,9,0,12,,,,,,,,,11,11,107,,,
59090,control_change,6,0,15,,,,,,,,,14,11,110,,,
59093,control_change,9,0,13,,,,,,,,,12,11,107,,,
59094,control_change,9,0,11,,,,,,,,,10,11,104,,,
59097,control_change,9,0,14,,,,,,,,,13,11,107,,,
59097,control_change,9,0,12,,,,,,,,,11,11,104,,,
59099,control_change,9,0,15,,,,,,,,,14,11,107,,,
59100,note_on,6,0,11,,,,,,,,,10,,,,60,112
59102,control_change,9,0,13,,,,,,,,,12,11,104,,,
59103,note_on,6,0,12,,,,,,,,,11,,,,60,112
59106,control_change,9,0,14,,,,,,,,,13,11,104,,,
59108,control_change,9,0,15,,,,,,,,,14,11,104,,,
59108,note_on,6,0,13,,,,,,,,,12,,,,60,112
59112,note_on,6,0,14,,,,,,,,,13,,,,48,112
59114,note_on,6,0,15,,,,,,,,,14,,,,36,112
59130,note_on,30,0,11,,,,,,,,,10,,,,60,0
59133,note_on,30,0,12,,,,,,,,,11,,,,60,0
59138,note_on,30,0,13,,,,,,,,,12,,,,60,0
59142,note_on,30,0,14,,,,,,,,,13,,,,48,0
59144,note_on,30,0,15,,,,,,,,,14,,,,36,0
59160,note_on,30,0,11,,,,,,,,,10,,,,61,112
59162,note_on,0,0,7,,,,,,,,,6,,,,60,112
59162,note_on,120,0,7,,,,,,,,,6,,,,60,0
59163,note_on,30,0,12,,,,,,,,,11,,,,61,112
59168,note_on,30,0,13,,,,,,,,,12,,,,61,112
59172,note_on,30,0,14,,,,,,,,,13,,,,49,112
59174,note_on,30,0,15,,,,,,,,,14,,,,37,112
59175,note_on,0,0,10,,,,,,,,,15,,,,48,71
59175,note_on,120,0,10,,,,,,,,,15,,,,48,0
59190,note_on,30,0,11,,,,,,,,,10,,,,61,0
59193,note_on,30,0,12,,,,,,,,,11,,,,61,0
59198,note_on,30,0,13,,,,,,,,,12,,,,61,0
59202,note_on,30,0,14,,,,,,,,,13,,,,49,0
59204,note_on,30,0,15,,,,,,,,,14,,,,37,0
59220,note_on,30,0,11,,,,,,,,,10,,,,60,112
59223,note_on,30,0,12,,,,,,,,,11,,,,60,112
59228,note_on,30,0,13,,,,,,,,,12,,,,60,112
59232,note_on,30,0,14,,,,,,,,,13,,,,48,112
59234,note_on,30,0,15,,,,,,,,,14,,,,36,112
59250,note_on,30,0,11,,,,,,,,,10,,,,60,0
59253,note_on,30,0,12,,,,,,,,,11,,,,60,0
59258,note_on,30,0,13,,,,,,,,,12,,,,60,0
59262,note_on,30,0,14,,,,,,,,,13,,,,48,0
59264,note_on,30,0,15,,,,,,,,,14,,,,36,0
59280,note_on,30,0,11,,,,,,,,,10,,,,61,112
59280,set_tempo,240,1,0,,,,,,280374,,,,,,,,
59281,note_on,0,0,1,,,,,,,,,0,,,,88,101
59281,note_on,0,0,1,,,,,,,,,0,,,,84,101
59281,control_change,240,0,1,,,,,,,,,0,11,101,,,
59282,note_on,120,0,7,,,,,,,,,6,,,,60,0
59283,control_change,240,0,5,,,,,,,,,4,11,122,,,
59283,note_on,30,0,12,,,,,,,,,11,,,,61,112
59283,note_on,0,0,5,,,,,,,,,4,,,,55,100
59284,note_on,240,0,2,,,,,,,,,1,,,,79,100
59284,control_change,0,0,2,,,,,,,,,1,11,101,,,
59284,note_on,0,0,2,,,,,,,,,1,,,,76,100
59284,note_on,240,0,6,,,,,,,,,5,,,,48,100
59284,control_change,0,0,6,,,,,,,,,5,11,122,,,
59285,note_on,0,0,3,,,,,,,,,2,,,,67,101
59285,control_change,240,0,3,,,,,,,,,2,11,101,,,
59285,note_on,0,0,3,,,,,,,,,2,,,,72,101
59287,note_on,0,0,8,,,,,,,,,7,,,,64,110
59287,note_on,0,0,8,,,,,,,,,7,,,,55,110
59287,control_change,240,0,8,,,,,,,,,7,11,122,,,
59288,note_on,30,0,13,,,,,,,,,12,,,,61,112
59288,control_change,7,0,1,,,,,,,,,0,11,98,,,
59289,note_on,0,0,4,,,,,,,,,3,,,,60,100
59289,note_on,240,0,4,,,,,,,,,3,,,,64,100
59289,control_change,0,0,4,,,,,,,,,3,11,117,,,
59290,control_change,7,0,5,,,,,,,,,4,11,119,,,
59291,control_change,7,0,6,,,,,,,,,5,11,119,,,
59291,control_change,7,0,2,,,,,,,,,1,11,98,,,
59292,note_on,30,0,14,,,,,,,,,13,,,,49,112
59292,control_change,7,0,3,,,,,,,,,2,11,98,,,
59293,control_change,240,0,9,,,,,,,,,8,11,122,,,
59293,note_on,0,0,9,,,,,,,,,8,,,,48,110
59294,note_on,30,0,15,,,,,,,,,14,,,,37,112
59294,control_change,7,0,8,,,,,,,,,7,11,119,,,
59295,note_on,120,0,10,,,,,,,,,15,,,,48,0
59296,control_change,7,0,4,,,,,,,,,3,11,114,,,
59298,control_change,8,0,5,,,,,,,,,4,11,116,,,
59299,control_change,8,0,6,,,,,,,,,5,11,116,,,
59300,control_change,7,0,9,,,,,,,,,8,11,119,,,
59302,control_change,8,0,8,,,,,,,,,7,11,116,,,
59303,control_change,15,0,1,,,,,,,,,0,11,94,,,
59304,control_change,8,0,4,,,,,,,,,3,11,111,,,
59305,control_change,7,0,5,,,,,,,,,4,11,113,,,
59306,control_change,15,0,2,,,,,,,,,1,11,94,,,
59306,control_change,7,0,6,,,,,,,,,5,11,113,,,
59307,control_change,15,0,3,,,,,,,,,2,11,94,,,
59308,control_change,8,0,9,,,,,,,,,8,11,116,,,
59309,control_change,7,0,8,,,,,,,,,7,11,113,,,
59310,note_on,30,0,11,,,,,,,,,10,,,,61,0
59311,control_change,7,0,4,,,,,,,,,3,11,108,,,
59313,control_change,8,0,5,,,,,,,,,4,11,110,,,
59313,note_on,30,0,12,,,,,,,,,11,,,,61,0
59314,control_change,8,0,6,,,,,,,,,5,11,110,,,
59315,control_change,7,0,9,,,,,,,,,8,11,113,,,
59317,control_change,8,0,8,,,,,,,,,7,11,110,,,
59318,control_change,15,0,1,,,,,,,,,0,11,89,,,
59318,note_on,30,0,13,,,,,,,,,12,,,,61,0
59319,control_change,8,0,4,,,,,,,,,3,11,105,,,
59320,control_change,7,0,5,,,,,,,,,4,11,107,,,
59321,control_change,7,0,6,,,,,,,,,5,11,107,,,
59321,control_change,15,0,2,,,,,,,,,1,11,89,,,
59322,note_on,30,0,14,,,,,,,,,13,,,,49,0
59322,control_change,15,0,3,,,,,,,,,2,11,89,,,
59323,control_change,8,0,9,,,,,,,,,8,11,110,,,
59324,note_on,30,0,15,,,,,,,,,14,,,,37,0
59324,control_change,7,0,8,,,,,,,,,7,11,107,,,
59326,control_change,7,0,4,,,,,,,,,3,11,102,,,
59328,control_change,8,0,5,,,,,,,,,4,11,104,,,
59329,control_change,8,0,6,,,,,,,,,5,11,104,,,
59330,control_change,7,0,9,,,,,,,,,8,11,107,,,
59332,control_change,8,0,8,,,,,,,,,7,11,104,,,
59334,control_change,8,0,4,,,,,,,,,3,11,99,,,
59338,control_change,8,0,9,,,,,,,,,8,11,104,,,
59340,note_on,30,0,11,,,,,,,,,10,,,,60,112
59343,note_on,30,0,12,,,,,,,,,11,,,,60,112
59348,note_on,30,0,13,,,,,,,,,12,,,,60,112
59352,note_on,30,0,14,,,,,,,,,13,,,,48,112
59354,note_on,30,0,15,,,,,,,,,14,,,,36,112
59370,note_on,30,0,11,,,,,,,,,10,,,,60,0
59373,note_on,30,0,12,,,,,,,,,11,,,,60,0
59378,note_on,30,0,13,,,,,,,,,12,,,,60,0
59382,note_on,30,0,14,,,,,,,,,13,,,,48,0
59384,note_on,30,0,15,,,,,,,,,14,,,,36,0
59400,set_tempo,120,1,0,,,,,,265487,,,,,,,,
59400,control_change,0,0,11,,,,,,,,,10,11,122,,,
59400,note_on,30,0,11,,,,,,,,,10,,,,77,112
59401,note_on,0,0,1,,,,,,,,,0,,,,84,0
59401,note_on,83,0,1,,,,,,,,,0,,,,88,0
59402,note_on,0,0,7,,,,,,,,,6,,,,72,112
59402,note_on,120,0,7,,,,,,,,,6,,,,60,112
59403,control_change,0,0,12,,,,,,,,,11,11,122,,,
59403,note_on,75,0,5,,,,,,,,,4,,,,55,0
59403,note_on,30,0,12,,,,,,,,,11,,,,77,112
59404,note_on,75,0,6,,,,,,,,,5,,,,48,0
59404,note_on,83,0,2,,,,,,,,,1,,,,76,0
59404,note_on,0,0,2,,,,,,,,,1,,,,79,0
59405,note_on,0,0,3,,,,,,,,,2,,,,72,0
59405,note_on,83,0,3,,,,,,,,,2,,,,67,0
59407,note_on,0,0,8,,,,,,,,,7,,,,55,0
59407,note_on,75,0,8,,,,,,,,,7,,,,64,0
59408,control_change,30,0,13,,,,,,,,,12,11,122,,,
59408,note_on,0,0,13,,,,,,,,,12,,,,65,112
59409,note_on,75,0,4,,,,,,,,,3,,,,60,0
59409,control_change,9,0,11,,,,,,,,,10,11,119,,,
59409,note_on,0,0,4,,,,,,,,,3,,,,64,0
59412,control_change,9,0,12,,,,,,,,,11,11,119,,,
59412,note_on,30,0,14,,,,,,,,,13,,,,65,112
59412,control_change,0,0,14,,,,,,,,,13,11,122,,,
59413,note_on,75,0,9,,,,,,,,,8,,,,48,0
59414,note_on,0,0,15,,,,,,,,,14,,,,53,112
59414,control_change,30,0,15,,,,,,,,,14,11,122,,,
59415,note_on,120,0,10,,,,,,,,,15,,,,48,71
59417,control_change,9,0,13,,,,,,,,,12,11,119,,,
59418,control_change,9,0,11,,,,,,,,,10,11,116,,,
59421,control_change,9,0,14,,,,,,,,,13,11,119,,,
59421,control_change,9,0,12,,,,,,,,,11,11,116,,,
59423,control_change,9,0,15,,,,,,,,,14,11,119,,,
59426,control_change,9,0,13,,,,,,,,,12,11,116,,,
59427,control_change,9,0,11,,,,,,,,,10,11,113,,,
59430,note_on,3,0,11,,,,,,,,,10,,,,77,0
59430,control_change,9,0,14,,,,,,,,,13,11,116,,,
59430,control_change,9,0,12,,,,,,,,,11,11,113,,,
59432,control_change,9,0,15,,,,,,,,,14,11,116,,,
59433,note_on,3,0,12,,,,,,,,,11,,,,77,0
59435,control_change,9,0,13,,,,,,,,,12,11,113,,,
59436,control_change,6,0,11,,,,,,,,,10,11,110,,,
59438,note_on,3,0,13,,,,,,,,,12,,,,65,0
59439,control_change,9,0,14,,,,,,,,,13,11,113,,,
59439,control_change,6,0,12,,,,,,,,,11,11,110,,,
59441,control_change,9,0,15,,,,,,,,,14,11,113,,,
59442,note_on,3,0,14,,,,,,,,,13,,,,65,0
59444,note_on,3,0,15,,,,,,,,,14,,,,53,0
59444,control_change,6,0,13,,,,,,,,,12,11,110,,,
59445,control_change,9,0,11,,,,,,,,,10,11,107,,,
59448,control_change,9,0,12,,,,,,,,,11,11,107,,,
59448,control_change,6,0,14,,,,,,,,,13,11,110,,,
59450,control_change,6,0,15,,,,,,,,,14,11,110,,,
59453,control_change,9,0,13,,,,,,,,,12,11,107,,,
59454,control_change,9,0,11,,,,,,,,,10,11,104,,,
59457,control_change,9,0,12,,,,,,,,,11,11,104,,,
59457,control_change,9,0,14,,,,,,,,,13,11,107,,,
59459,control_change,9,0,15,,,,,,,,,14,11,107,,,
59460,note_on,6,0,11,,,,,,,,,10,,,,77,112
59462,control_change,9,0,13,,,,,,,,,12,11,104,,,
59463,note_on,6,0,12,,,,,,,,,11,,,,77,112
59466,control_change,9,0,14,,,,,,,,,13,11,104,,,
59468,note_on,6,0,13,,,,,,,,,12,,,,65,112
59468,control_change,9,0,15,,,,,,,,,14,11,104,,,
59472,note_on,6,0,14,,,,,,,,,13,,,,65,112
59474,note_on,6,0,15,,,,,,,,,14,,,,53,112
59490,note_on,30,0,11,,,,,,,,,10,,,,77,0
59493,note_on,30,0,12,,,,,,,,,11,,,,77,0
59498,note_on,30,0,13,,,,,,,,,12,,,,65,0
59502,note_on,30,0,14,,,,,,,,,13,,,,65,0
59504,note_on,30,0,15,,,,,,,,,14,,,,53,0
59520,note_on,30,0,11,,,,,,,,,10,,,,79,112
59522,note_on,0,0,7,,,,,,,,,6,,,,60,0
59522,note_on,120,0,7,,,,,,,,,6,,,,72,0
59522,note_on,0,0,7,,,,,,,,,6,,,,72,112
59522,note_on,0,0,7,,,,,,,,,6,,,,60,112
59523,note_on,30,0,12,,,,,,,,,11,,,,79,112
59528,note_on,30,0,13,,,,,,,,,12,,,,67,112
59532,note_on,30,0,14,,,,,,,,,13,,,,67,112
59534,note_on,30,0,15,,,,,,,,,14,,,,55,112
59535,note_on,120,0,10,,,,,,,,,15,,,,48,0
59535,note_on,0,0,10,,,,,,,,,15,,,,48,71
59550,note_on,30,0,11,,,,,,,,,10,,,,79,0
59553,note_on,30,0,12,,,,,,,,,11,,,,79,0
59558,note_on,30,0,13,,,,,,,,,12,,,,67,0
59562,note_on,30,0,14,,,,,,,,,13,,,,67,0
59564,note_on,30,0,15,,,,,,,,,14,,,,55,0
59580,note_on,30,0,11,,,,,,,,,10,,,,77,112
59583,note_on,30,0,12,,,,,,,,,11,,,,77,112
59588,note_on,30,0,13,,,,,,,,,12,,,,65,112
59592,note_on,30,0,14,,,,,,,,,13,,,,65,112
59594,note_on,30,0,15,,,,,,,,,14,,,,53,112
59610,note_on,30,0,11,,,,,,,,,10,,,,77,0
59613,note_on,30,0,12,,,,,,,,,11,,,,77,0
59618,note_on,30,0,13,,,,,,,,,12,,,,65,0
59622,note_on,30,0,14,,,,,,,,,13,,,,65,0
59624,note_on,30,0,15,,,,,,,,,14,,,,53,0
59640,set_tempo,240,1,0,,,,,,280374,,,,,,,,
59640,note_on,30,0,11,,,,,,,,,10,,,,79,112
59641,note_on,0,0,1,,,,,,,,,0,,,,84,101
59641,control_change,240,0,1,,,,,,,,,0,11,101,,,
59641,note_on,0,0,1,,,,,,,,,0,,,,89,101
59642,note_on,120,0,7,,,,,,,,,6,,,,60,0
59642,note_on,0,0,7,,,,,,,,,6,,,,72,0
59643,note_on,240,0,5,,,,,,,,,4,,,,60,100
59643,note_on,30,0,12,,,,,,,,,11,,,,79,112
59643,control_change,0,0,5,,,,,,,,,4,11,122,,,
59644,note_on,0,0,2,,,,,,,,,1,,,,77,100
59644,control_change,0,0,2,,,,,,,,,1,11,101,,,
59644,note_on,0,0,6,,,,,,,,,5,,,,48,100
59644,control_change,240,0,6,,,,,,,,,5,11,122,,,
59644,note_on,240,0,2,,,,,,,,,1,,,,80,100
59645,note_on,0,0,3,,,,,,,,,2,,,,72,101
59645,note_on,240,0,3,,,,,,,,,2,,,,68,101
59645,control_change,0,0,3,,,,,,,,,2,11,101,,,
59647,control_change,240,0,8,,,,,,,,,7,11,122,,,
59647,note_on,0,0,8,,,,,,,,,7,,,,65,110
59647,note_on,0,0,8,,,,,,,,,7,,,,56,110
59648,note_on,30,0,13,,,,,,,,,12,,,,67,112
59648,control_change,7,0,1,,,,,,,,,0,11,98,,,
59649,control_change,240,0,4,,,,,,,,,3,11,117,,,
59649,note_on,0,0,4,,,,,,,,,3,,,,56,100
59649,note_on,0,0,4,,,,,,,,,3,,,,65,100
59650,control_change,7,0,5,,,,,,,,,4,11,119,,,
59651,control_change,7,0,2,,,,,,,,,1,11,98,,,
59651,control_change,7,0,6,,,,,,,,,5,11,119,,,
59652,note_on,30,0,14,,,,,,,,,13,,,,67,112
59652,control_change,7,0,3,,,,,,,,,2,11,98,,,
59653,note_on,0,0,9,,,,,,,,,8,,,,48,110
59653,control_change,240,0,9,,,,,,,,,8,11,122,,,
59654,control_change,7,0,8,,,,,,,,,7,11,119,,,
59654,note_on,30,0,15,,,,,,,,,14,,,,55,112
59655,note_on,120,0,10,,,,,,,,,15,,,,48,0
59656,control_change,7,0,4,,,,,,,,,3,11,114,,,
59658,control_change,8,0,5,,,,,,,,,4,11,116,,,
59659,control_change,8,0,6,,,,,,,,,5,11,116,,,
59660,control_change,7,0,9,,,,,,,,,8,11,119,,,
59662,control_change,8,0,8,,,,,,,,,7,11,116,,,
59663,control_change,15,0,1,,,,,,,,,0,11,94,,,
59664,control_change,8,0,4,,,,,,,,,3,11,111,,,
59665,control_change,7,0,5,,,,,,,,,4,11,113,,,
59666,control_change,15,0,2,,,,,,,,,1,11,94,,,
59666,control_change,7,0,6,,,,,,,,,5,11,113,,,
59667,control_change,15,0,3,,,,,,,,,2,11,94,,,
59668,control_change,8,0,9,,,,,,,,,8,11,116,,,
59669,control_change,7,0,8,,,,,,,,,7,11,113,,,
59670,note_on,30,0,11,,,,,,,,,10,,,,79,0
59671,control_change,7,0,4,,,,,,,,,3,11,108,,,
59673,note_on,30,0,12,,,,,,,,,11,,,,79,0
59673,control_change,8,0,5,,,,,,,,,4,11,110,,,
59674,control_change,8,0,6,,,,,,,,,5,11,110,,,
59675,control_change,7,0,9,,,,,,,,,8,11,113,,,
59677,control_change,8,0,8,,,,,,,,,7,11,110,,,
59678,note_on,30,0,13,,,,,,,,,12,,,,67,0
59678,control_change,15,0,1,,,,,,,,,0,11,89,,,
59679,control_change,8,0,4,,,,,,,,,3,11,105,,,
59680,control_change,7,0,5,,,,,,,,,4,11,107,,,
59681,control_change,15,0,2,,,,,,,,,1,11,89,,,
59681,control_change,7,0,6,,,,,,,,,5,11,107,,,
59682,note_on,30,0,14,,,,,,,,,13,,,,67,0
59682,control_change,15,0,3,,,,,,,,,2,11,89,,,
59683,control_change,8,0,9,,,,,,,,,8,11,110,,,
59684,control_change,7,0,8,,,,,,,,,7,11,107,,,
59684,note_on,30,0,15,,,,,,,,,14,,,,55,0
59686,control_change,7,0,4,,,,,,,,,3,11,102,,,
59688,control_change,8,0,5,,,,,,,,,4,11,104,,,
59689,control_change,8,0,6,,,,,,,,,5,11,104,,,
59690,control_change,7,0,9,,,,,,,,,8,11,107,,,
59692,control_change,8,0,8,,,,,,,,,7,11,104,,,
59694,control_change,8,0,4,,,,,,,,,3,11,99,,,
59698,control_change,8,0,9,,,,,,,,,8,11,104,,,
59700,note_on,30,0,11,,,,,,,,,10,,,,77,112
59703,note_on,30,0,12,,,,,,,,,11,,,,77,112
59708,note_on,30,0,13,,,,,,,,,12,,,,65,112
59712,note_on,30,0,14,,,,,,,,,13,,,,65,112
59714,note_on,30,0,15,,,,,,,,,14,,,,53,112
59730,note_on,30,0,11,,,,,,,,,10,,,,77,0
59733,note_on,30,0,12,,,,,,,,,11,,,,77,0
59738,note_on,30,0,13,,,,,,,,,12,,,,65,0
59742,note_on,30,0,14,,,,,,,,,13,,,,65,0
59744,note_on,30,0,15,,,,,,,,,14,,,,53,0
59760,control_change,30,0,11,,,,,,,,,10,11,122,,,
59760,note_on,0,0,11,,,,,,,,,10,,,,72,112
59760,set_tempo,120,1,0,,,,,,265487,,,,,,,,
59761,note_on,83,0,1,,,,,,,,,0,,,,89,0
59761,note_on,0,0,1,,,,,,,,,0,,,,84,0
59762,note_on,0,0,7,,,,,,,,,6,,,,60,112
59762,note_on,120,0,7,,,,,,,,,6,,,,72,112
59763,note_on,75,0,5,,,,,,,,,4,,,,60,0
59763,control_change,30,0,12,,,,,,,,,11,11,122,,,
59763,note_on,0,0,12,,,,,,,,,11,,,,72,112
59764,note_on,75,0,6,,,,,,,,,5,,,,48,0
59764,note_on,0,0,2,,,,,,,,,1,,,,80,0
59764,note_on,83,0,2,,,,,,,,,1,,,,77,0
59765,note_on,83,0,3,,,,,,,,,2,,,,72,0
59765,note_on,0,0,3,,,,,,,,,2,,,,68,0
59767,note_on,75,0,8,,,,,,,,,7,,,,65,0
59767,note_on,0,0,8,,,,,,,,,7,,,,56,0
59768,note_on,30,0,13,,,,,,,,,12,,,,60,112
59768,control_change,0,0,13,,,,,,,,,12,11,122,,,
59769,note_on,75,0,4,,,,,,,,,3,,,,56,0
59769,control_change,9,0,11,,,,,,,,,10,11,119,,,
59769,note_on,0,0,4,,,,,,,,,3,,,,65,0
59772,control_change,9,0,12,,,,,,,,,11,11,119,,,
59772,control_change,30,0,14,,,,,,,,,13,11,122,,,
59772,note_on,0,0,14,,,,,,,,,13,,,,60,112
59773,note_on,75,0,9,,,,,,,,,8,,,,48,0
59774,control_change,30,0,15,,,,,,,,,14,11,122,,,
59774,note_on,0,0,15,,,,,,,,,14,,,,48,112
59775,note_on,120,0,10,,,,,,,,,15,,,,48,71
59777,control_change,9,0,13,,,,,,,,,12,11,119,,,
59778,control_change,9,0,11,,,,,,,,,10,11,116,,,
59781,control_change,9,0,12,,,,,,,,,11,11,116,,,
59781,control_change,9,0,14,,,,,,,,,13,11,119,,,
59783,control_change,9,0,15,,,,,,,,,14,11,119,,,
59786,control_change,9,0,13,,,,,,,,,12,11,116,,,
59787,control_change,9,0,11,,,,,,,,,10,11,113,,,
59790,control_change,9,0,14,,,,,,,,,13,11,116,,,
59790,control_change,9,0,12,,,,,,,,,11,11,113,,,
59790,note_on,3,0,11,,,,,,,,,10,,,,72,0
59792,control_change,9,0,15,,,,,,,,,14,11,116,,,
59793,note_on,3,0,12,,,,,,,,,11,,,,72,0
59795,control_change,9,0,13,,,,,,,,,12,11,113,,,
59796,control_change,6,0,11,,,,,,,,,10,11,110,,,
59798,note_on,3,0,13,,,,,,,,,12,,,,60,0
59799,control_change,6,0,12,,,,,,,,,11,11,110,,,
59799,control_change,9,0,14,,,,,,,,,13,11,113,,,
59801,control_change,9,0,15,,,,,,,,,14,11,113,,,
59802,note_on,3,0,14,,,,,,,,,13,,,,60,0
59804,control_change,6,0,13,,,,,,,,,12,11,110,,,
59804,note_on,3,0,15,,,,,,,,,14,,,,48,0
59805,control_change,9,0,11,,,,,,,,,10,11,107,,,
59808,control_change,9,0,12,,,,,,,,,11,11,107,,,
59808,control_change,6,0,14,,,,,,,,,13,11,110,,,
59810,control_change,6,0,15,,,,,,,,,14,11,110,,,
59813,control_change,9,0,13,,,,,,,,,12,11,107,,,
59814,control_change,9,0,11,,,,,,,,,10,11,104,,,
59817,control_change,9,0,12,,,,,,,,,11,11,104,,,
59817,control_change,9,0,14,,,,,,,,,13,11,107,,,
59819,control_change,9,0,15,,,,,,,,,14,11,107,,,
59820,note_on,6,0,11,,,,,,,,,10,,,,72,112
59822,control_change,9,0,13,,,,,,,,,12,11,104,,,
59823,note_on,6,0,12,,,,,,,,,11,,,,72,112
59826,control_change,9,0,14,,,,,,,,,13,11,104,,,
59828,note_on,6,0,13,,,,,,,,,12,,,,60,112
59828,control_change,9,0,15,,,,,,,,,14,11,104,,,
59832,note_on,6,0,14,,,,,,,,,13,,,,60,112
59834,note_on,6,0,15,,,,,,,,,14,,,,48,112
59850,note_on,30,0,11,,,,,,,,,10,,,,72,0
59853,note_on,30,0,12,,,,,,,,,11,,,,72,0
59858,note_on,30,0,13,,,,,,,,,12,,,,60,0
59862,note_on,30,0,14,,,,,,,,,13,,,,60,0
59864,note_on,30,0,15,,,,,,,,,14,,,,48,0
59880,note_on,30,0,11,,,,,,,,,10,,,,73,112
59882,note_on,120,0,7,,,,,,,,,6,,,,60,0
59882,note_on,0,0,7,,,,,,,,,6,,,,72,0
59882,note_on,0,0,7,,,,,,,,,6,,,,60,112
59882,note_on,0,0,7,,,,,,,,,6,,,,72,112
59883,note_on,30,0,12,,,,,,,,,11,,,,73,112
59888,note_on,30,0,13,,,,,,,,,12,,,,61,112
59892,note_on,30,0,14,,,,,,,,,13,,,,61,112
59894,note_on,30,0,15,,,,,,,,,14,,,,49,112
59895,note_on,0,0,10,,,,,,,,,15,,,,48,71
59895,note_on,120,0,10,,,,,,,,,15,,,,48,0
59910,note_on,30,0,11,,,,,,,,,10,,,,73,0
59913,note_on,30,0,12,,,,,,,,,11,,,,73,0
59918,note_on,30,0,13,,,,,,,,,12,,,,61,0
59922,note_on,30,0,14,,,,,,,,,13,,,,61,0
59924,note_on,30,0,15,,,,,,,,,14,,,,49,0
59940,note_on,30,0,11,,,,,,,,,10,,,,72,112
59943,note_on,30,0,12,,,,,,,,,11,,,,72,112
59948,note_on,30,0,13,,,,,,,,,12,,,,60,112
59952,note_on,30,0,14,,,,,,,,,13,,,,60,112
59954,note_on,30,0,15,,,,,,,,,14,,,,48,112
59970,note_on,30,0,11,,,,,,,,,10,,,,72,0
59973,note_on,30,0,12,,,,,,,,,11,,,,72,0
59978,note_on,30,0,13,,,,,,,,,12,,,,60,0
59982,note_on,30,0,14,,,,,,,,,13,,,,60,0
59984,note_on,30,0,15,,,,,,,,,14,,,,48,0
60000,note_on,30,0,11,,,,,,,,,10,,,,73,112
60000,set_tempo,240,1,0,,,,,,280374,,,,,,,,
60001,note_on,0,0,1,,,,,,,,,0,,,,84,101
60001,note_on,240,0,1,,,,,,,,,0,,,,89,101
60001,control_change,0,0,1,,,,,,,,,0,11,101,,,
60002,note_on,120,0,7,,,,,,,,,6,,,,72,0
60002,note_on,0,0,7,,,,,,,,,6,,,,60,0
60003,control_change,240,0,5,,,,,,,,,4,11,122,,,
60003,note_on,30,0,12,,,,,,,,,11,,,,73,112
60003,note_on,0,0,5,,,,,,,,,4,,,,60,100
60004,note_on,240,0,6,,,,,,,,,5,,,,48,100
60004,control_change,240,0,2,,,,,,,,,1,11,101,,,
60004,note_on,0,0,2,,,,,,,,,1,,,,80,100
60004,note_on,0,0,2,,,,,,,,,1,,,,77,100
60004,control_change,0,0,6,,,,,,,,,5,11,122,,,
60005,note_on,0,0,3,,,,,,,,,2,,,,72,101
60005,control_change,240,0,3,,,,,,,,,2,11,101,,,
60005,note_on,0,0,3,,,,,,,,,2,,,,68,101
60007,note_on,0,0,8,,,,,,,,,7,,,,65,110
60007,note_on,0,0,8,,,,,,,,,7,,,,56,110
60007,control_change,240,0,8,,,,,,,,,7,11,122,,,
60008,control_change,7,0,1,,,,,,,,,0,11,98,,,
60008,note_on,30,0,13,,,,,,,,,12,,,,61,112
60009,note_on,0,0,4,,,,,,,,,3,,,,65,100
60009,control_change,0,0,4,,,,,,,,,3,11,117,,,
60009,note_on,240,0,4,,,,,,,,,3,,,,56,100
60010,control_change,7,0,5,,,,,,,,,4,11,119,,,
60011,control_change,7,0,6,,,,,,,,,5,11,119,,,
60011,control_change,7,0,2,,,,,,,,,1,11,98,,,
60012,note_on,30,0,14,,,,,,,,,13,,,,61,112
60012,control_change,7,0,3,,,,,,,,,2,11,98,,,
60013,note_on,0,0,9,,,,,,,,,8,,,,48,110
60013,control_change,240,0,9,,,,,,,,,8,11,122,,,
60014,note_on,30,0,15,,,,,,,,,14,,,,49,112
60014,control_change,7,0,8,,,,,,,,,7,11,119,,,
60015,note_on,120,0,10,,,,,,,,,15,,,,48,0
60016,control_change,7,0,4,,,,,,,,,3,11,114,,,
60018,control_change,8,0,5,,,,,,,,,4,11,116,,,
60019,control_change,8,0,6,,,,,,,,,5,11,116,,,
60020,control_change,7,0,9,,,,,,,,,8,11,119,,,
60022,control_change,8,0,8,,,,,,,,,7,11,116,,,
60023,control_change,15,0,1,,,,,,,,,0,11,94,,,
60024,control_change,8,0,4,,,,,,,,,3,11,111,,,
60025,control_change,7,0,5,,,,,,,,,4,11,113,,,
60026,control_change,7,0,6,,,,,,,,,5,11,113,,,
60026,control_change,15,0,2,,,,,,,,,1,11,94,,,
60027,control_change,15,0,3,,,,,,,,,2,11,94,,,
60028,control_change,8,0,9,,,,,,,,,8,11,116,,,
60029,control_change,7,0,8,,,,,,,,,7,11,113,,,
60030,note_on,30,0,11,,,,,,,,,10,,,,73,0
60031,control_change,7,0,4,,,,,,,,,3,11,108,,,
60033,note_on,30,0,12,,,,,,,,,11,,,,73,0
60033,control_change,8,0,5,,,,,,,,,4,11,110,,,
60034,control_change,8,0,6,,,,,,,,,5,11,110,,,
60035,control_change,7,0,9,,,,,,,,,8,11,113,,,
60037,control_change,8,0,8,,,,,,,,,7,11,110,,,
60038,control_change,15,0,1,,,,,,,,,0,11,89,,,
60038,note_on,30,0,13,,,,,,,,,12,,,,61,0
60039,control_change,8,0,4,,,,,,,,,3,11,105,,,
60040,control_change,7,0,5,,,,,,,,,4,11,107,,,
60041,control_change,15,0,2,,,,,,,,,1,11,89,,,
60041,control_change,7,0,6,,,,,,,,,5,11,107,,,
60042,control_change,15,0,3,,,,,,,,,2,11,89,,,
60042,note_on,30,0,14,,,,,,,,,13,,,,61,0
60043,control_change,8,0,9,,,,,,,,,8,11,110,,,
60044,control_change,7,0,8,,,,,,,,,7,11,107,,,
60044,note_on,30,0,15,,,,,,,,,14,,,,49,0
60046,control_change,7,0,4,,,,,,,,,3,11,102,,,
60048,control_change,8,0,5,,,,,,,,,4,11,104,,,
60049,control_change,8,0,6,,,,,,,,,5,11,104,,,
60050,control_change,7,0,9,,,,,,,,,8,11,107,,,
60052,control_change,8,0,8,,,,,,,,,7,11,104,,,
60054,control_change,8,0,4,,,,,,,,,3,11,99,,,
60058,control_change,8,0,9,,,,,,,,,8,11,104,,,
60060,note_on,30,0,11,,,,,,,,,10,,,,72,112
60063,note_on,30,0,12,,,,,,,,,11,,,,72,112
60068,note_on,30,0,13,,,,,,,,,12,,,,60,112
60072,note_on,30,0,14,,,,,,,,,13,,,,60,112
60074,note_on,30,0,15,,,,,,,,,14,,,,48,112
60090,note_on,30,0,11,,,,,,,,,10,,,,72,0
60093,note_on,30,0,12,,,,,,,,,11,,,,72,0
60098,note_on,30,0,13,,,,,,,,,12,,,,60,0
60102,note_on,30,0,14,,,,,,,,,13,,,,60,0
60104,note_on,30,0,15,,,,,,,,,14,,,,48,0
60120,control_change,30,0,11,,,,,,,,,10,11,122,,,
60120,set_tempo,120,1,0,,,,,,265487,,,,,,,,
60120,note_on,0,0,11,,,,,,,,,10,,,,68,112
60121,note_on,83,0,1,,,,,,,,,0,,,,84,0
60121,note_on,0,0,1,,,,,,,,,0,,,,89,0
60122,note_on,0,0,7,,,,,,,,,6,,,,72,112
60122,note_on,120,0,7,,,,,,,,,6,,,,60,112
60123,control_change,0,0,12,,,,,,,,,11,11,122,,,
60123,note_on,75,0,5,,,,,,,,,4,,,,60,0
60123,note_on,30,0,12,,,,,,,,,11,,,,68,112
60124,note_on,83,0,2,,,,,,,,,1,,,,77,0
60124,note_on,0,0,2,,,,,,,,,1,,,,80,0
60124,note_on,75,0,6,,,,,,,,,5,,,,48,0
60125,note_on,83,0,3,,,,,,,,,2,,,,72,0
60125,note_on,0,0,3,,,,,,,,,2,,,,68,0
60127,note_on,75,0,8,,,,,,,,,7,,,,65,0
60127,note_on,0,0,8,,,,,,,,,7,,,,56,0
60128,note_on,0,0,13,,,,,,,,,12,,,,56,112
60128,control_change,30,0,13,,,,,,,,,12,11,122,,,
60129,note_on,0,0,4,,,,,,,,,3,,,,56,0
60129,note_on,75,0,4,,,,,,,,,3,,,,65,0
60129,control_change,9,0,11,,,,,,,,,10,11,119,,,
60132,control_change,0,0,14,,,,,,,,,13,11,122,,,
60132,note_on,30,0,14,,,,,,,,,13,,,,56,112
60132,control_change,9,0,12,,,,,,,,,11,11,119,,,
60133,note_on,75,0,9,,,,,,,,,8,,,,48,0
60134,control_change,0,0,15,,,,,,,,,14,11,122,,,
60134,note_on,30,0,15,,,,,,,,,14,,,,44,112
60135,note_on,120,0,10,,,,,,,,,15,,,,48,71
60137,control_change,9,0,13,,,,,,,,,12,11,119,,,
60138,control_change,9,0,11,,,,,,,,,10,11,116,,,
60141,control_change,9,0,12,,,,,,,,,11,11,116,,,
60141,control_change,9,0,14,,,,,,,,,13,11,119,,,
60143,control_change,9,0,15,,,,,,,,,14,11,119,,,
60146,control_change,9,0,13,,,,,,,,,12,11,116,,,
60147,control_change,9,0,11,,,,,,,,,10,11,113,,,
60150,note_on,3,0,11,,,,,,,,,10,,,,68,0
60150,control_change,9,0,14,,,,,,,,,13,11,116,,,
60150,control_change,9,0,12,,,,,,,,,11,11,113,,,
60152,control_change,9,0,15,,,,,,,,,14,11,116,,,
60153,note_on,3,0,12,,,,,,,,,11,,,,68,0
60155,control_change,9,0,13,,,,,,,,,12,11,113,,,
60156,control_change,6,0,11,,,,,,,,,10,11,110,,,
60158,note_on,3,0,13,,,,,,,,,12,,,,56,0
60159,control_change,6,0,12,,,,,,,,,11,11,110,,,
60159,control_change,9,0,14,,,,,,,,,13,11,113,,,
60161,control_change,9,0,15,,,,,,,,,14,11,113,,,
60162,note_on,3,0,14,,,,,,,,,13,,,,56,0
60164,control_change,6,0,13,,,,,,,,,12,11,110,,,
60164,note_on,3,0,15,,,,,,,,,14,,,,44,0
60165,control_change,9,0,11,,,,,,,,,10,11,107,,,
60168,control_change,6,0,14,,,,,,,,,13,11,110,,,
60168,control_change,9,0,12,,,,,,,,,11,11,107,,,
60170,control_change,6,0,15,,,,,,,,,14,11,110,,,
60173,control_change,9,0,13,,,,,,,,,12,11,107,,,
60174,control_change,9,0,11,,,,,,,,,10,11,104,,,
60177,control_change,9,0,12,,,,,,,,,11,11,104,,,
60177,control_change,9,0,14,,,,,,,,,13,11,107,,,
60179,control_change,9,0,15,,,,,,,,,14,11,107,,,
60180,note_on,6,0,11,,,,,,,,,10,,,,68,112
60182,control_change,9,0,13,,,,,,,,,12,11,104,,,
60183,note_on,6,0,12,,,,,,,,,11,,,,68,112
60186,control_change,9,0,14,,,,,,,,,13,11,104,,,
60188,note_on,6,0,13,,,,,,,,,12,,,,56,112
60188,control_change,9,0,15,,,,,,,,,14,11,104,,,
60192,note_on,6,0,14,,,,,,,,,13,,,,56,112
60194,note_on,6,0,15,,,,,,,,,14,,,,44,112
60210,note_on,30,0,11,,,,,,,,,10,,,,68,0
60213,note_on,30,0,12,,,,,,,,,11,,,,68,0
60218,note_on,30,0,13,,,,,,,,,12,,,,56,0
60222,note_on,30,0,14,,,,,,,,,13,,,,56,0
60224,note_on,30,0,15,,,,,,,,,14,,,,44,0
60240,note_on,30,0,11,,,,,,,,,10,,,,70,112
60242,note_on,120,0,7,,,,,,,,,6,,,,72,0
60242,note_on,0,0,7,,,,,,,,,6,,,,60,0
60242,note_on,0,0,7,,,,,,,,,6,,,,72,112
60242,note_on,0,0,7,,,,,,,,,6,,,,60,112
60243,note_on,30,0,12,,,,,,,,,11,,,,70,112
60248,note_on,30,0,13,,,,,,,,,12,,,,58,112
60252,note_on,30,0,14,,,,,,,,,13,,,,58,112
60254,note_on,30,0,15,,,,,,,,,14,,,,46,112
60255,note_on,120,0,10,,,,,,,,,15,,,,48,0
60255,note_on,0,0,10,,,,,,,,,15,,,,48,71
60270,note_on,30,0,11,,,,,,,,,10,,,,70,0
60273,note_on,30,0,12,,,,,,,,,11,,,,70,0
60278,note_on,30,0,13,,,,,,,,,12,,,,58,0
60282,note_on,30,0,14,,,,,,,,,13,,,,58,0
60284,note_on,30,0,15,,,,,,,,,14,,,,46,0
60300,note_on,30,0,11,,,,,,,,,10,,,,68,112
60303,note_on,30,0,12,,,,,,,,,11,,,,68,112
60308,note_on,30,0,13,,,,,,,,,12,,,,56,112
60312,note_on,30,0,14,,,,,,,,,13,,,,56,112
60314,note_on,30,0,15,,,,,,,,,14,,,,44,112
60330,note_on,30,0,11,,,,,,,,,10,,,,68,0
60333,note_on,30,0,12,,,,,,,,,11,,,,68,0
60338,note_on,30,0,13,,,,,,,,,12,,,,56,0
60342,note_on,30,0,14,,,,,,,,,13,,,,56,0
60344,note_on,30,0,15,,,,,,,,,14,,,,44,0
60360,set_tempo,240,1,0,,,,,,280374,,,,,,,,
60360,note_on,30,0,11,,,,,,,,,10,,,,70,112
60361,control_change,0,0,1,,,,,,,,,0,11,101,,,
60361,note_on,240,0,1,,,,,,,,,0,,,,89,101
60361,note_on,0,0,1,,,,,,,,,0,,,,84,101
60362,note_on,0,0,7,,,,,,,,,6,,,,72,0
60362,note_on,120,0,7,,,,,,,,,6,,,,60,0
60363,control_change,0,0,5,,,,,,,,,4,11,122,,,
60363,note_on,30,0,12,,,,,,,,,11,,,,70,112
60363,note_on,240,0,5,,,,,,,,,4,,,,60,100
60364,control_change,0,0,2,,,,,,,,,1,11,101,,,
60364,note_on,240,0,2,,,,,,,,,1,,,,80,100
60364,note_on,0,0,6,,,,,,,,,5,,,,48,100
60364,control_change,240,0,6,,,,,,,,,5,11,122,,,
60364,note_on,0,0,2,,,,,,,,,1,,,,77,100
60365,note_on,240,0,3,,,,,,,,,2,,,,68,101
60365,note_on,0,0,3,,,,,,,,,2,,,,72,101
60365,control_change,0,0,3,,,,,,,,,2,11,101,,,
60367,note_on,0,0,8,,,,,,,,,7,,,,65,110
60367,control_change,240,0,8,,,,,,,,,7,11,122,,,
60367,note_on,0,0,8,,,,,,,,,7,,,,56,110
60368,note_on,30,0,13,,,,,,,,,12,,,,58,112
60368,control_change,7,0,1,,,,,,,,,0,11,98,,,
60369,note_on,240,0,4,,,,,,,,,3,,,,65,100
60369,control_change,0,0,4,,,,,,,,,3,11,117,,,
60369,note_on,0,0,4,,,,,,,,,3,,,,56,100
60370,control_change,7,0,5,,,,,,,,,4,11,119,,,
60371,control_change,7,0,6,,,,,,,,,5,11,119,,,
60371,control_change,7,0,2,,,,,,,,,1,11,98,,,
60372,note_on,30,0,14,,,,,,,,,13,,,,58,112
60372,control_change,7,0,3,,,,,,,,,2,11,98,,,
60373,note_on,0,0,9,,,,,,,,,8,,,,48,110
60373,control_change,240,0,9,,,,,,,,,8,11,122,,,
60374,note_on,30,0,15,,,,,,,,,14,,,,46,112
60374,control_change,7,0,8,,,,,,,,,7,11,119,,,
60375,note_on,120,0,10,,,,,,,,,15,,,,48,0
60376,control_change,7,0,4,,,,,,,,,3,11,114,,,
60378,control_change,8,0,5,,,,,,,,,4,11,116,,,
60379,control_change,8,0,6,,,,,,,,,5,11,116,,,
60380,control_change,7,0,9,,,,,,,,,8,11,119,,,
60382,control_change,8,0,8,,,,,,,,,7,11,116,,,
60383,control_change,15,0,1,,,,,,,,,0,11,94,,,
60384,control_change,8,0,4,,,,,,,,,3,11,111,,,
60385,control_change,7,0,5,,,,,,,,,4,11,113,,,
60386,control_change,15,0,2,,,,,,,,,1,11,94,,,
60386,control_change,7,0,6,,,,,,,,,5,11,113,,,
60387,control_change,15,0,3,,,,,,,,,2,11,94,,,
60388,control_change,8,0,9,,,,,,,,,8,11,116,,,
60389,control_change,7,0,8,,,,,,,,,7,11,113,,,
60390,note_on,30,0,11,,,,,,,,,10,,,,70,0
60391,control_change,7,0,4,,,,,,,,,3,11,108,,,
60393,note_on,30,0,12,,,,,,,,,11,,,,70,0
60393,control_change,8,0,5,,,,,,,,,4,11,110,,,
60394,control_change,8,0,6,,,,,,,,,5,11,110,,,
60395,control_change,7,0,9,,,,,,,,,8,11,113,,,
60397,control_change,8,0,8,,,,,,,,,7,11,110,,,
60398,control_change,15,0,1,,,,,,,,,0,11,89,,,
60398,note_on,30,0,13,,,,,,,,,12,,,,58,0
60399,control_change,8,0,4,,,,,,,,,3,11,105,,,
60400,control_change,7,0,5,,,,,,,,,4,11,107,,,
60401,control_change,7,0,6,,,,,,,,,5,11,107,,,
60401,control_change,15,0,2,,,,,,,,,1,11,89,,,
60402,note_on,30,0,14,,,,,,,,,13,,,,58,0
60402,control_change,15,0,3,,,,,,,,,2,11,89,,,
60403,control_change,8,0,9,,,,,,,,,8,11,110,,,
60404,note_on,30,0,15,,,,,,,,,14,,,,46,0
60404,control_change,7,0,8,,,,,,,,,7,11,107,,,
60406,control_change,7,0,4,,,,,,,,,3,11,102,,,
60408,control_change,8,0,5,,,,,,,,,4,11,104,,,
60409,control_change,8,0,6,,,,,,,,,5,11,104,,,
60410,control_change,7,0,9,,,,,,,,,8,11,107,,,
60412,control_change,8,0,8,,,,,,,,,7,11,104,,,
60414,control_change,8,0,4,,,,,,,,,3,11,99,,,
60418,control_change,8,0,9,,,,,,,,,8,11,104,,,
60420,note_on,30,0,11,,,,,,,,,10,,,,68,112
60423,note_on,30,0,12,,,,,,,,,11,,,,68,112
60428,note_on,30,0,13,,,,,,,,,12,,,,56,112
60432,note_on,30,0,14,,,,,,,,,13,,,,56,112
60434,note_on,30,0,15,,,,,,,,,14,,,,44,112
60450,note_on,30,0,11,,,,,,,,,10,,,,68,0
60453,note_on,30,0,12,,,,,,,,,11,,,,68,0
60458,note_on,30,0,13,,,,,,,,,12,,,,56,0
60462,note_on,30,0,14,,,,,,,,,13,,,,56,0
60464,note_on,30,0,15,,,,,,,,,14,,,,44,0
60480,note_on,0,0,11,,,,,,,,,10,,,,65,112
60480,control_change,30,0,11,,,,,,,,,10,11,122,,,
60480,set_tempo,120,1,0,,,,,,265487,,,,,,,,
60481,note_on,83,0,1,,,,,,,,,0,,,,84,0
60481,note_on,0,0,1,,,,,,,,,0,,,,89,0
60482,note_on,120,0,7,,,,,,,,,6,,,,72,112
60482,note_on,0,0,7,,,,,,,,,6,,,,60,112
60483,control_change,30,0,12,,,,,,,,,11,11,122,,,
60483,note_on,0,0,12,,,,,,,,,11,,,,65,112
60483,note_on,75,0,5,,,,,,,,,4,,,,60,0
60484,note_on,0,0,2,,,,,,,,,1,,,,80,0
60484,note_on,83,0,2,,,,,,,,,1,,,,77,0
60484,note_on,75,0,6,,,,,,,,,5,,,,48,0
60485,note_on,0,0,3,,,,,,,,,2,,,,68,0
60485,note_on,83,0,3,,,,,,,,,2,,,,72,0
60487,note_on,75,0,8,,,,,,,,,7,,,,65,0
60487,note_on,0,0,8,,,,,,,,,7,,,,56,0
60488,control_change,30,0,13,,,,,,,,,12,11,122,,,
60488,note_on,0,0,13,,,,,,,,,12,,,,53,112
60489,note_on,75,0,4,,,,,,,,,3,,,,56,0
60489,note_on,0,0,4,,,,,,,,,3,,,,65,0
60489,control_change,9,0,11,,,,,,,,,10,11,119,,,
60492,control_change,9,0,12,,,,,,,,,11,11,119,,,
60492,control_change,0,0,14,,,,,,,,,13,11,122,,,
60492,note_on,30,0,14,,,,,,,,,13,,,,53,112
60493,note_on,75,0,9,,,,,,,,,8,,,,48,0
60494,control_change,30,0,15,,,,,,,,,14,11,122,,,
60494,note_on,0,0,15,,,,,,,,,14,,,,41,112
60495,note_on,120,0,10,,,,,,,,,15,,,,48,71
60497,control_change,9,0,13,,,,,,,,,12,11,119,,,
60498,control_change,9,0,11,,,,,,,,,10,11,116,,,
60501,control_change,9,0,14,,,,,,,,,13,11,119,,,
60501,control_change,9,0,12,,,,,,,,,11,11,116,,,
60503,control_change,9,0,15,,,,,,,,,14,11,119,,,
60506,control_change,9,0,13,,,,,,,,,12,11,116,,,
60507,control_change,9,0,11,,,,,,,,,10,11,113,,,
60510,control_change,9,0,12,,,,,,,,,11,11,113,,,
60510,control_change,9,0,14,,,,,,,,,13,11,116,,,
60510,note_on,3,0,11,,,,,,,,,10,,,,65,0
60512,control_change,9,0,15,,,,,,,,,14,11,116,,,
60513,note_on,3,0,12,,,,,,,,,11,,,,65,0
60515,control_change,9,0,13,,,,,,,,,12,11,113,,,
60516,control_change,6,0,11,,,,,,,,,10,11,110,,,
60518,note_on,3,0,13,,,,,,,,,12,,,,53,0
60519,control_change,6,0,12,,,,,,,,,11,11,110,,,
60519,control_change,9,0,14,,,,,,,,,13,11,113,,,
60521,control_change,9,0,15,,,,,,,,,14,11,113,,,
60522,note_on,3,0,14,,,,,,,,,13,,,,53,0
60524,note_on,3,0,15,,,,,,,,,14,,,,41,0
60524,control_change,6,0,13,,,,,,,,,12,11,110,,,
60525,control_change,9,0,11,,,,,,,,,10,11,107,,,
60528,control_change,6,0,14,,,,,,,,,13,11,110,,,
60528,control_change,9,0,12,,,,,,,,,11,11,107,,,
60530,control_change,6,0,15,,,,,,,,,14,11,110,,,
60533,control_change,9,0,13,,,,,,,,,12,11,107,,,
60534,control_change,9,0,11,,,,,,,,,10,11,104,,,
60537,control_change,9,0,14,,,,,,,,,13,11,107,,,
60537,control_change,9,0,12,,,,,,,,,11,11,104,,,
60539,control_change,9,0,15,,,,,,,,,14,11,107,,,
60540,note_on,6,0,11,,,,,,,,,10,,,,65,112
60542,control_change,9,0,13,,,,,,,,,12,11,104,,,
60543,note_on,6,0,12,,,,,,,,,11,,,,65,112
60546,control_change,9,0,14,,,,,,,,,13,11,104,,,
60548,control_change,9,0,15,,,,,,,,,14,11,104,,,
60548,note_on,6,0,13,,,,,,,,,12,,,,53,112
60552,note_on,6,0,14,,,,,,,,,13,,,,53,112
60554,note_on,6,0,15,,,,,,,,,14,,,,41,112
60570,note_on,30,0,11,,,,,,,,,10,,,,65,0
60573,note_on,30,0,12,,,,,,,,,11,,,,65,0
60578,note_on,30,0,13,,,,,,,,,12,,,,53,0
60582,note_on,30,0,14,,,,,,,,,13,,,,53,0
60584,note_on,30,0,15,,,,,,,,,14,,,,41,0
60600,note_on,30,0,11,,,,,,,,,10,,,,67,112
60602,note_on,0,0,7,,,,,,,,,6,,,,72,112
60602,note_on,0,0,7,,,,,,,,,6,,,,60,112
60602,note_on,0,0,7,,,,,,,,,6,,,,72,0
60602,note_on,120,0,7,,,,,,,,,6,,,,60,0
60603,note_on,30,0,12,,,,,,,,,11,,,,67,112
60608,note_on,30,0,13,,,,,,,,,12,,,,55,112
60612,note_on,30,0,14,,,,,,,,,13,,,,55,112
60614,note_on,30,0,15,,,,,,,,,14,,,,43,112
60615,note_on,120,0,10,,,,,,,,,15,,,,48,0
60615,note_on,0,0,10,,,,,,,,,15,,,,48,71
60630,note_on,30,0,11,,,,,,,,,10,,,,67,0
60633,note_on,30,0,12,,,,,,,,,11,,,,67,0
60638,note_on,30,0,13,,,,,,,,,12,,,,55,0
60642,note_on,30,0,14,,,,,,,,,13,,,,55,0
60644,note_on,30,0,15,,,,,,,,,14,,,,43,0
60660,note_on,30,0,11,,,,,,,,,10,,,,65,112
60663,note_on,30,0,12,,,,,,,,,11,,,,65,112
60668,note_on,30,0,13,,,,,,,,,12,,,,53,112
60672,note_on,30,0,14,,,,,,,,,13,,,,53,112
60674,note_on,30,0,15,,,,,,,,,14,,,,41,112
60690,note_on,30,0,11,,,,,,,,,10,,,,65,0
60693,note_on,30,0,12,,,,,,,,,11,,,,65,0
60698,note_on,30,0,13,,,,,,,,,12,,,,53,0
60702,note_on,30,0,14,,,,,,,,,13,,,,53,0
60704,note_on,30,0,15,,,,,,,,,14,,,,41,0
60720,note_on,30,0,11,,,,,,,,,10,,,,67,112
60720,set_tempo,240,1,0,,,,,,315789,,,,,,,,
60721,note_on,0,0,1,,,,,,,,,0,,,,84,101
60721,note_on,0,0,1,,,,,,,,,0,,,,89,101
60721,control_change,240,0,1,,,,,,,,,0,11,101,,,
60722,note_on,0,0,7,,,,,,,,,6,,,,60,0
60722,note_on,120,0,7,,,,,,,,,6,,,,72,0
60723,note_on,240,0,5,,,,,,,,,4,,,,60,100
60723,control_change,0,0,5,,,,,,,,,4,11,122,,,
60723,note_on,30,0,12,,,,,,,,,11,,,,67,112
60724,note_on,240,0,2,,,,,,,,,1,,,,80,100
60724,note_on,0,0,2,,,,,,,,,1,,,,77,100
60724,control_change,0,0,2,,,,,,,,,1,11,101,,,
60724,control_change,240,0,6,,,,,,,,,5,11,122,,,
60724,note_on,0,0,6,,,,,,,,,5,,,,48,100
60725,note_on,0,0,3,,,,,,,,,2,,,,68,101
60725,control_change,240,0,3,,,,,,,,,2,11,101,,,
60725,note_on,0,0,3,,,,,,,,,2,,,,72,101
60727,note_on,0,0,8,,,,,,,,,7,,,,65,110
60727,control_change,0,0,8,,,,,,,,,7,11,122,,,
60727,note_on,240,0,8,,,,,,,,,7,,,,56,110
60728,control_change,7,0,1,,,,,,,,,0,11,98,,,
60728,note_on,30,0,13,,,,,,,,,12,,,,55,112
60729,control_change,240,0,4,,,,,,,,,3,11,117,,,
60729,note_on,0,0,4,,,,,,,,,3,,,,56,100
60729,note_on,0,0,4,,,,,,,,,3,,,,65,100
60730,control_change,7,0,5,,,,,,,,,4,11,119,,,
60731,control_change,7,0,6,,,,,,,,,5,11,119,,,
60731,control_change,7,0,2,,,,,,,,,1,11,98,,,
60732,control_change,7,0,3,,,,,,,,,2,11,98,,,
60732,note_on,30,0,14,,,,,,,,,13,,,,55,112
60733,note_on,240,0,9,,,,,,,,,8,,,,48,110
60733,control_change,0,0,9,,,,,,,,,8,11,122,,,
60734,note_on,30,0,15,,,,,,,,,14,,,,43,112
60734,control_change,7,0,8,,,,,,,,,7,11,119,,,
60735,note_on,120,0,10,,,,,,,,,15,,,,48,0
60736,control_change,7,0,4,,,,,,,,,3,11,114,,,
60738,control_change,8,0,5,,,,,,,,,4,11,116,,,
60739,control_change,8,0,6,,,,,,,,,5,11,116,,,
60740,control_change,7,0,9,,,,,,,,,8,11,119,,,
60742,control_change,8,0,8,,,,,,,,,7,11,116,,,
60743,control_change,15,0,1,,,,,,,,,0,11,94,,,
60744,control_change,8,0,4,,,,,,,,,3,11,111,,,
60745,control_change,7,0,5,,,,,,,,,4,11,113,,,
60746,control_change,7,0,6,,,,,,,,,5,11,113,,,
60746,control_change,15,0,2,,,,,,,,,1,11,94,,,
60747,control_change,15,0,3,,,,,,,,,2,11,94,,,
60748,control_change,8,0,9,,,,,,,,,8,11,116,,,
60749,control_change,7,0,8,,,,,,,,,7,11,113,,,
60750,note_on,30,0,11,,,,,,,,,10,,,,67,0
60751,control_change,7,0,4,,,,,,,,,3,11,108,,,
60753,control_change,8,0,5,,,,,,,,,4,11,110,,,
60753,note_on,30,0,12,,,,,,,,,11,,,,67,0
60754,control_change,8,0,6,,,,,,,,,5,11,110,,,
60755,control_change,7,0,9,,,,,,,,,8,11,113,,,
60757,control_change,8,0,8,,,,,,,,,7,11,110,,,
60758,control_change,15,0,1,,,,,,,,,0,11,89,,,
60758,note_on,30,0,13,,,,,,,,,12,,,,55,0
60759,control_change,8,0,4,,,,,,,,,3,11,105,,,
60760,control_change,7,0,5,,,,,,,,,4,11,107,,,
60761,control_change,7,0,6,,,,,,,,,5,11,107,,,
60761,control_change,15,0,2,,,,,,,,,1,11,89,,,
60762,control_change,15,0,3,,,,,,,,,2,11,89,,,
60762,note_on,30,0,14,,,,,,,,,13,,,,55,0
60763,control_change,8,0,9,,,,,,,,,8,11,110,,,
60764,note_on,30,0,15,,,,,,,,,14,,,,43,0
60764,control_change,7,0,8,,,,,,,,,7,11,107,,,
60766,control_change,7,0,4,,,,,,,,,3,11,102,,,
60768,control_change,8,0,5,,,,,,,,,4,11,104,,,
60769,control_change,8,0,6,,,,,,,,,5,11,104,,,
60770,control_change,7,0,9,,,,,,,,,8,11,107,,,
60772,control_change,8,0,8,,,,,,,,,7,11,104,,,
60774,control_change,8,0,4,,,,,,,,,3,11,99,,,
60778,control_change,8,0,9,,,,,,,,,8,11,104,,,
60780,control_change,0,0,11,,,,,,,,,10,11,102,,,
60780,note_on,30,0,11,,,,,,,,,10,,,,65,112
60783,control_change,0,0,12,,,,,,,,,11,11,102,,,
60783,control_change,3,0,11,,,,,,,,,10,11,99,,,
60783,note_on,30,0,12,,,,,,,,,11,,,,65,112
60786,control_change,3,0,12,,,,,,,,,11,11,99,,,
60786,control_change,3,0,11,,,,,,,,,10,11,96,,,
60788,note_on,30,0,13,,,,,,,,,12,,,,53,112
60788,control_change,0,0,13,,,,,,,,,12,11,102,,,
60789,control_change,3,0,12,,,,,,,,,11,11,96,,,
60789,control_change,3,0,11,,,,,,,,,10,11,93,,,
60791,control_change,3,0,13,,,,,,,,,12,11,99,,,
60792,note_on,30,0,14,,,,,,,,,13,,,,53,112
60792,control_change,0,0,14,,,,,,,,,13,11,102,,,
60792,control_change,3,0,12,,,,,,,,,11,11,93,,,
60793,control_change,4,0,11,,,,,,,,,10,11,90,,,
60794,control_change,3,0,13,,,,,,,,,12,11,96,,,
60794,note_on,0,0,15,,,,,,,,,14,,,,41,112
60794,control_change,30,0,15,,,,,,,,,14,11,102,,,
60795,control_change,3,0,14,,,,,,,,,13,11,99,,,
60796,control_change,3,0,11,,,,,,,,,10,11,87,,,
60796,control_change,4,0,12,,,,,,,,,11,11,90,,,
60797,control_change,3,0,13,,,,,,,,,12,11,93,,,
60797,control_change,3,0,15,,,,,,,,,14,11,99,,,
60798,control_change,3,0,14,,,,,,,,,13,11,96,,,
60799,control_change,3,0,12,,,,,,,,,11,11,87,,,
60800,control_change,3,0,15,,,,,,,,,14,11,96,,,
60801,control_change,4,0,13,,,,,,,,,12,11,90,,,
60801,control_change,3,0,14,,,,,,,,,13,11,93,,,
60802,control_change,6,0,11,,,,,,,,,10,11,82,,,
60803,control_change,3,0,15,,,,,,,,,14,11,93,,,
60804,control_change,3,0,13,,,,,,,,,12,11,87,,,
60805,control_change,4,0,14,,,,,,,,,13,11,90,,,
60805,control_change,6,0,12,,,,,,,,,11,11,82,,,
60806,control_change,4,0,11,,,,,,,,,10,11,79,,,
60807,control_change,4,0,15,,,,,,,,,14,11,90,,,
60808,control_change,3,0,14,,,,,,,,,13,11,87,,,
60809,control_change,4,0,12,,,,,,,,,11,11,79,,,
60809,control_change,3,0,11,,,,,,,,,10,11,76,,,
60810,note_on,1,0,11,,,,,,,,,10,,,,65,0
60810,control_change,3,0,15,,,,,,,,,14,11,87,,,
60810,control_change,6,0,13,,,,,,,,,12,11,82,,,
60812,control_change,3,0,12,,,,,,,,,11,11,76,,,
60812,control_change,2,0,11,,,,,,,,,10,11,73,,,
60813,note_on,1,0,12,,,,,,,,,11,,,,65,0
60814,control_change,6,0,14,,,,,,,,,13,11,82,,,
60814,control_change,4,0,13,,,,,,,,,12,11,79,,,
60815,control_change,2,0,12,,,,,,,,,11,11,73,,,
60816,control_change,6,0,15,,,,,,,,,14,11,82,,,
60817,control_change,3,0,13,,,,,,,,,12,11,76,,,
60818,control_change,4,0,14,,,,,,,,,13,11,79,,,
60818,note_on,1,0,13,,,,,,,,,12,,,,53,0
60819,control_change,7,0,11,,,,,,,,,10,11,68,,,
60820,control_change,2,0,13,,,,,,,,,12,11,73,,,
60820,control_change,4,0,15,,,,,,,,,14,11,79,,,
60821,control_change,3,0,14,,,,,,,,,13,11,76,,,
60822,control_change,3,0,11,,,,,,,,,10,11,65,,,
60822,note_on,1,0,14,,,,,,,,,13,,,,53,0
60822,control_change,7,0,12,,,,,,,,,11,11,68,,,
60823,control_change,3,0,15,,,,,,,,,14,11,76,,,
60824,control_change,2,0,14,,,,,,,,,13,11,73,,,
60824,note_on,1,0,15,,,,,,,,,14,,,,41,0
60825,control_change,3,0,12,,,,,,,,,11,11,65,,,
60825,control_change,3,0,11,,,,,,,,,10,11,62,,,
60826,control_change,2,0,15,,,,,,,,,14,11,73,,,
60827,control_change,7,0,13,,,,,,,,,12,11,68,,,
60828,control_change,3,0,12,,,,,,,,,11,11,62,,,
60829,control_change,4,0,11,,,,,,,,,10,11,59,,,
60830,control_change,3,0,13,,,,,,,,,12,11,65,,,
60831,control_change,7,0,14,,,,,,,,,13,11,68,,,
60832,control_change,4,0,12,,,,,,,,,11,11,59,,,
60833,control_change,3,0,13,,,,,,,,,12,11,62,,,
60833,control_change,7,0,15,,,,,,,,,14,11,68,,,
60834,control_change,3,0,14,,,,,,,,,13,11,65,,,
60835,control_change,6,0,11,,,,,,,,,10,11,54,,,
60836,control_change,3,0,15,,,,,,,,,14,11,65,,,
60837,control_change,3,0,14,,,,,,,,,13,11,62,,,
60837,control_change,4,0,13,,,,,,,,,12,11,59,,,
60838,control_change,6,0,12,,,,,,,,,11,11,54,,,
60838,control_change,3,0,11,,,,,,,,,10,11,51,,,
60839,control_change,3,0,15,,,,,,,,,14,11,62,,,
60840,set_tempo,120,1,0,,,,,,254237,,,,,,,,
60840,note_on,0,0,11,,,,,,,,,10,,,,61,112
60840,control_change,2,0,11,,,,,,,,,10,11,45,,,
60841,control_change,4,0,14,,,,,,,,,13,11,59,,,
60841,note_on,83,0,1,,,,,,,,,0,,,,84,0
60841,note_on,0,0,1,,,,,,,,,0,,,,89,0
60841,control_change,3,0,12,,,,,,,,,11,11,51,,,
60843,control_change,4,0,15,,,,,,,,,14,11,59,,,
60843,control_change,6,0,13,,,,,,,,,12,11,54,,,
60843,note_on,2,0,12,,,,,,,,,11,,,,61,112
60843,control_change,0,0,12,,,,,,,,,11,11,45,,,
60843,note_on,75,0,5,,,,,,,,,4,,,,60,0
60844,control_change,0,0,2,,,,,,,,,1,11,32,,,
60844,note_on,0,0,2,,,,,,,,,1,,,,77,115
60844,note_on,0,0,2,,,,,,,,,1,,,,80,115
60844,note_on,0,0,2,,,,,,,,,1,,,,80,0
60844,note_on,83,0,2,,,,,,,,,1,,,,77,0
60844,note_on,75,0,6,,,,,,,,,5,,,,48,0
60845,note_on,83,0,3,,,,,,,,,2,,,,68,0
60845,control_change,0,0,3,,,,,,,,,2,11,32,,,
60845,note_on,0,0,3,,,,,,,,,2,,,,65,116
60845,note_on,0,0,3,,,,,,,,,2,,,,72,0
60845,note_on,0,0,3,,,,,,,,,2,,,,68,116
60846,control_change,3,0,13,,,,,,,,,12,11,51,,,
60847,control_change,6,0,14,,,,,,,,,13,11,54,,,
60847,note_on,0,0,8,,,,,,,,,7,,,,56,0
60847,note_on,75,0,8,,,,,,,,,7,,,,65,0
60848,control_change,2,0,13,,,,,,,,,12,11,45,,,
60848,note_on,0,0,13,,,,,,,,,12,,,,49,112
60849,control_change,6,0,15,,,,,,,,,14,11,54,,,
60849,note_on,0,0,4,,,,,,,,,3,,,,53,115
60849,note_on,75,0,4,,,,,,,,,3,,,,56,0
60849,note_on,0,0,4,,,,,,,,,3,,,,65,0
60849,note_on,0,0,4,,,,,,,,,3,,,,56,115
60849,control_change,0,0,4,,,,,,,,,3,11,32,,,
60850,control_change,3,0,14,,,,,,,,,13,11,51,,,
60852,control_change,3,0,15,,,,,,,,,14,11,51,,,
60852,control_change,2,0,14,,,,,,,,,13,11,45,,,
60852,note_on,0,0,14,,,,,,,,,13,,,,49,112
60853,note_on,75,0,9,,,,,,,,,8,,,,48,0
60854,control_change,2,0,15,,,,,,,,,14,11,45,,,
60854,note_on,0,0,15,,,,,,,,,14,,,,37,112
60862,control_change,18,0,2,,,,,,,,,1,11,35,,,
60863,control_change,18,0,3,,,,,,,,,2,11,35,,,
60867,control_change,18,0,4,,,,,,,,,3,11,35,,,
60878,control_change,38,0,11,,,,,,,,,10,11,45,,,
60880,control_change,18,0,2,,,,,,,,,1,11,38,,,
60881,control_change,18,0,3,,,,,,,,,2,11,38,,,
60881,control_change,38,0,12,,,,,,,,,11,11,45,,,
60885,control_change,18,0,4,,,,,,,,,3,11,38,,,
60886,control_change,38,0,13,,,,,,,,,12,11,45,,,
60890,control_change,38,0,14,,,,,,,,,13,11,45,,,
60892,control_change,38,0,15,,,,,,,,,14,11,45,,,
60898,control_change,18,0,2,,,,,,,,,1,11,41,,,
60899,control_change,18,0,3,,,,,,,,,2,11,41,,,
60903,control_change,18,0,4,,,,,,,,,3,11,41,,,
60916,control_change,18,0,2,,,,,,,,,1,11,44,,,
60916,control_change,38,0,11,,,,,,,,,10,11,46,,,
60917,control_change,18,0,3,,,,,,,,,2,11,44,,,
60919,control_change,38,0,12,,,,,,,,,11,11,46,,,
60921,control_change,18,0,4,,,,,,,,,3,11,44,,,
60924,control_change,38,0,13,,,,,,,,,12,11,46,,,
60928,control_change,38,0,14,,,,,,,,,13,11,46,,,
60930,control_change,38,0,15,,,,,,,,,14,11,46,,,
60934,control_change,18,0,2,,,,,,,,,1,11,47,,,
60935,control_change,18,0,3,,,,,,,,,2,11,47,,,
60939,control_change,18,0,4,,,,,,,,,3,11,47,,,
60952,control_change,18,0,2,,,,,,,,,1,11,50,,,
60953,control_change,18,0,3,,,,,,,,,2,11,50,,,
60955,control_change,39,0,11,,,,,,,,,10,11,47,,,
60957,control_change,18,0,4,,,,,,,,,3,11,50,,,
60958,control_change,39,0,12,,,,,,,,,11,11,47,,,
60960,set_tempo,120,1,0,,,,,,263158,,,,,,,,
60963,control_change,39,0,13,,,,,,,,,12,11,47,,,
60967,control_change,39,0,14,,,,,,,,,13,11,47,,,
60969,control_change,39,0,15,,,,,,,,,14,11,47,,,
60993,control_change,38,0,11,,,,,,,,,10,11,48,,,
60996,control_change,38,0,12,,,,,,,,,11,11,48,,,
61001,control_change,38,0,13,,,,,,,,,12,11,48,,,
61005,control_change,38,0,14,,,,,,,,,13,11,48,,,
61007,control_change,38,0,15,,,,,,,,,14,11,48,,,
61032,control_change,39,0,11,,,,,,,,,10,11,49,,,
61035,control_change,39,0,12,,,,,,,,,11,11,49,,,
61040,control_change,39,0,13,,,,,,,,,12,11,49,,,
61044,control_change,39,0,14,,,,,,,,,13,11,49,,,
61046,control_change,39,0,15,,,,,,,,,14,11,49,,,
61070,control_change,38,0,11,,,,,,,,,10,11,50,,,
61073,control_change,38,0,12,,,,,,,,,11,11,50,,,
61078,control_change,38,0,13,,,,,,,,,12,11,50,,,
61080,note_on,0,0,11,,,,,,,,,10,,,,65,112
61080,set_tempo,120,1,0,,,,,,288462,,,,,,,,
61080,note_on,10,0,11,,,,,,,,,10,,,,61,0
61082,control_change,38,0,14,,,,,,,,,13,11,50,,,
61083,note_on,0,0,12,,,,,,,,,11,,,,65,112
61083,note_on,10,0,12,,,,,,,,,11,,,,61,0
61084,control_change,38,0,15,,,,,,,,,14,11,50,,,
61085,note_on,133,0,2,,,,,,,,,1,,,,77,0
61085,note_on,0,0,2,,,,,,,,,1,,,,80,0
61086,note_on,0,0,3,,,,,,,,,2,,,,68,0
61086,note_on,133,0,3,,,,,,,,,2,,,,65,0
61088,note_on,0,0,13,,,,,,,,,12,,,,53,112
61088,note_on,10,0,13,,,,,,,,,12,,,,49,0
61090,note_on,0,0,4,,,,,,,,,3,,,,56,0
61090,note_on,133,0,4,,,,,,,,,3,,,,53,0
61092,note_on,10,0,14,,,,,,,,,13,,,,49,0
61092,note_on,0,0,14,,,,,,,,,13,,,,53,112
61094,note_on,10,0,15,,,,,,,,,14,,,,37,0
61094,note_on,0,0,15,,,,,,,,,14,,,,41,112
61108,control_change,28,0,11,,,,,,,,,10,11,50,,,
61111,control_change,28,0,12,,,,,,,,,11,11,50,,,
61116,control_change,28,0,13,,,,,,,,,12,11,50,,,
61120,control_change,28,0,14,,,,,,,,,13,11,50,,,
61122,control_change,28,0,15,,,,,,,,,14,11,50,,,
61147,control_change,39,0,11,,,,,,,,,10,11,51,,,
61150,control_change,39,0,12,,,,,,,,,11,11,51,,,
61155,control_change,39,0,13,,,,,,,,,12,11,51,,,
61159,control_change,39,0,14,,,,,,,,,13,11,51,,,
61161,control_change,39,0,15,,,,,,,,,14,11,51,,,
61185,control_change,38,0,11,,,,,,,,,10,11,52,,,
61188,control_change,38,0,12,,,,,,,,,11,11,52,,,
61190,note_on,5,0,11,,,,,,,,,10,,,,65,0
61193,note_on,5,0,12,,,,,,,,,11,,,,65,0
61193,control_change,38,0,13,,,,,,,,,12,11,52,,,
61197,control_change,38,0,14,,,,,,,,,13,11,52,,,
61198,note_on,5,0,13,,,,,,,,,12,,,,53,0
61199,control_change,38,0,15,,,,,,,,,14,11,52,,,
61200,set_tempo,120,1,0,,,,,,254237,,,,,,,,
61200,note_on,10,0,11,,,,,,,,,10,,,,68,112
61202,note_on,5,0,14,,,,,,,,,13,,,,53,0
61203,note_on,10,0,12,,,,,,,,,11,,,,68,112
61204,note_on,119,0,2,,,,,,,,,1,,,,77,115
61204,note_on,5,0,15,,,,,,,,,14,,,,41,0
61204,note_on,0,0,2,,,,,,,,,1,,,,80,115
61205,note_on,119,0,3,,,,,,,,,2,,,,65,116
61205,note_on,0,0,3,,,,,,,,,2,,,,68,116
61208,note_on,10,0,13,,,,,,,,,12,,,,56,112
61209,note_on,119,0,4,,,,,,,,,3,,,,56,115
61209,note_on,0,0,4,,,,,,,,,3,,,,53,115
61212,note_on,10,0,14,,,,,,,,,13,,,,56,112
61214,note_on,10,0,15,,,,,,,,,14,,,,44,112
61224,control_change,24,0,11,,,,,,,,,10,11,53,,,
61227,control_change,24,0,12,,,,,,,,,11,11,53,,,
61232,control_change,24,0,13,,,,,,,,,12,11,53,,,
61236,control_change,24,0,14,,,,,,,,,13,11,53,,,
61238,control_change,24,0,15,,,,,,,,,14,11,53,,,
61262,control_change,38,0,11,,,,,,,,,10,11,54,,,
61265,control_change,38,0,12,,,,,,,,,11,11,54,,,
61270,control_change,38,0,13,,,,,,,,,12,11,54,,,
61274,control_change,38,0,14,,,,,,,,,13,11,54,,,
61276,control_change,38,0,15,,,,,,,,,14,11,54,,,
61300,control_change,38,0,11,,,,,,,,,10,11,55,,,
61303,control_change,38,0,12,,,,,,,,,11,11,55,,,
61308,control_change,38,0,13,,,,,,,,,12,11,55,,,
61312,control_change,38,0,14,,,,,,,,,13,11,55,,,
61314,control_change,38,0,15,,,,,,,,,14,11,55,,,
61320,set_tempo,120,1,0,,,,,,263158,,,,,,,,
61339,control_change,39,0,11,,,,,,,,,10,11,55,,,
61342,control_change,39,0,12,,,,,,,,,11,11,55,,,
61347,control_change,39,0,13,,,,,,,,,12,11,55,,,
61351,control_change,39,0,14,,,,,,,,,13,11,55,,,
61353,control_change,39,0,15,,,,,,,,,14,11,55,,,
61377,control_change,38,0,11,,,,,,,,,10,11,56,,,
61380,control_change,38,0,12,,,,,,,,,11,11,56,,,
61385,control_change,38,0,13,,,,,,,,,12,11,56,,,
61389,control_change,38,0,14,,,,,,,,,13,11,56,,,
61391,control_change,38,0,15,,,,,,,,,14,11,56,,,
61416,control_change,39,0,11,,,,,,,,,10,11,57,,,
61419,control_change,39,0,12,,,,,,,,,11,11,57,,,
61424,control_change,39,0,13,,,,,,,,,12,11,57,,,
61428,control_change,39,0,14,,,,,,,,,13,11,57,,,
61430,control_change,39,0,15,,,,,,,,,14,11,57,,,
61440,note_on,24,0,11,,,,,,,,,10,,,,68,0
61440,set_tempo,120,1,0,,,,,,288462,,,,,,,,
61440,note_on,0,0,11,,,,,,,,,10,,,,73,112
61443,note_on,24,0,12,,,,,,,,,11,,,,68,0
61443,note_on,0,0,12,,,,,,,,,11,,,,73,112
61445,note_on,0,0,2,,,,,,,,,1,,,,77,0
61445,note_on,241,0,2,,,,,,,,,1,,,,80,0
61446,note_on,241,0,3,,,,,,,,,2,,,,68,0
61446,note_on,0,0,3,,,,,,,,,2,,,,65,0
61448,note_on,24,0,13,,,,,,,,,12,,,,56,0
61448,note_on,0,0,13,,,,,,,,,12,,,,61,112
61450,note_on,0,0,4,,,,,,,,,3,,,,56,0
61450,note_on,241,0,4,,,,,,,,,3,,,,53,0
61452,note_on,0,0,14,,,,,,,,,13,,,,61,112
61452,note_on,24,0,14,,,,,,,,,13,,,,56,0
61454,note_on,0,0,15,,,,,,,,,14,,,,49,112
61454,note_on,24,0,15,,,,,,,,,14,,,,44,0
61454,control_change,14,0,11,,,,,,,,,10,11,57,,,
61457,control_change,14,0,12,,,,,,,,,11,11,57,,,
61462,control_change,14,0,13,,,,,,,,,12,11,57,,,
61466,control_change,14,0,14,,,,,,,,,13,11,57,,,
61468,control_change,14,0,15,,,,,,,,,14,11,57,,,
61492,control_change,38,0,11,,,,,,,,,10,11,58,,,
61495,control_change,38,0,12,,,,,,,,,11,11,58,,,
61500,control_change,38,0,13,,,,,,,,,12,11,58,,,
61504,control_change,38,0,14,,,,,,,,,13,11,58,,,
61506,control_change,38,0,15,,,,,,,,,14,11,58,,,
61531,control_change,39,0,11,,,,,,,,,10,11,59,,,
61534,control_change,39,0,12,,,,,,,,,11,11,59,,,
61539,control_change,39,0,13,,,,,,,,,12,11,59,,,
61543,control_change,39,0,14,,,,,,,,,13,11,59,,,
61545,control_change,39,0,15,,,,,,,,,14,11,59,,,
61550,note_on,19,0,11,,,,,,,,,10,,,,73,0
61553,note_on,19,0,12,,,,,,,,,11,,,,73,0
61558,note_on,19,0,13,,,,,,,,,12,,,,61,0
61560,note_on,10,0,11,,,,,,,,,10,,,,77,112
61560,set_tempo,120,1,0,,,,,,254237,,,,,,,,
61562,note_on,19,0,14,,,,,,,,,13,,,,61,0
61563,note_on,10,0,12,,,,,,,,,11,,,,77,112
61564,note_on,0,0,2,,,,,,,,,1,,,,77,115
61564,note_on,19,0,15,,,,,,,,,14,,,,49,0
61564,note_on,119,0,2,,,,,,,,,1,,,,80,115
61565,note_on,119,0,3,,,,,,,,,2,,,,68,116
61565,note_on,0,0,3,,,,,,,,,2,,,,65,116
61568,note_on,10,0,13,,,,,,,,,12,,,,65,112
61569,control_change,9,0,11,,,,,,,,,10,11,59,,,
61569,note_on,0,0,4,,,,,,,,,3,,,,56,115
61569,note_on,119,0,4,,,,,,,,,3,,,,53,115
61572,control_change,9,0,12,,,,,,,,,11,11,59,,,
61572,note_on,10,0,14,,,,,,,,,13,,,,65,112
61574,note_on,10,0,15,,,,,,,,,14,,,,53,112
61577,control_change,9,0,13,,,,,,,,,12,11,59,,,
61581,control_change,9,0,14,,,,,,,,,13,11,59,,,
61583,control_change,9,0,15,,,,,,,,,14,11,59,,,
61608,control_change,39,0,11,,,,,,,,,10,11,60,,,
61611,control_change,39,0,12,,,,,,,,,11,11,60,,,
61616,control_change,39,0,13,,,,,,,,,12,11,60,,,
61620,control_change,39,0,14,,,,,,,,,13,11,60,,,
61622,control_change,39,0,15,,,,,,,,,14,11,60,,,
61646,control_change,38,0,11,,,,,,,,,10,11,61,,,
61649,control_change,38,0,12,,,,,,,,,11,11,61,,,
61654,control_change,38,0,13,,,,,,,,,12,11,61,,,
61658,control_change,38,0,14,,,,,,,,,13,11,61,,,
61660,control_change,38,0,15,,,,,,,,,14,11,61,,,
61680,set_tempo,120,1,0,,,,,,263158,,,,,,,,
61684,control_change,38,0,11,,,,,,,,,10,11,62,,,
61687,control_change,38,0,12,,,,,,,,,11,11,62,,,
61692,control_change,38,0,13,,,,,,,,,12,11,62,,,
61696,control_change,38,0,14,,,,,,,,,13,11,62,,,
61698,control_change,38,0,15,,,,,,,,,14,11,62,,,
61723,control_change,39,0,11,,,,,,,,,10,11,63,,,
61726,control_change,39,0,12,,,,,,,,,11,11,63,,,
61731,control_change,39,0,13,,,,,,,,,12,11,63,,,
61735,control_change,39,0,14,,,,,,,,,13,11,63,,,
61737,control_change,39,0,15,,,,,,,,,14,11,63,,,
61761,control_change,38,0,11,,,,,,,,,10,11,64,,,
61764,control_change,38,0,12,,,,,,,,,11,11,64,,,
61769,control_change,38,0,13,,,,,,,,,12,11,64,,,
61773,control_change,38,0,14,,,,,,,,,13,11,64,,,
61775,control_change,38,0,15,,,,,,,,,14,11,64,,,
61800,note_on,0,0,11,,,,,,,,,10,,,,80,112
61800,set_tempo,120,1,0,,,,,,288462,,,,,,,,
61800,control_change,0,0,11,,,,,,,,,10,11,64,,,
61800,note_on,39,0,11,,,,,,,,,10,,,,77,0
61803,note_on,39,0,12,,,,,,,,,11,,,,77,0
61803,control_change,0,0,12,,,,,,,,,11,11,64,,,
61803,note_on,0,0,12,,,,,,,,,11,,,,80,112
61805,note_on,0,0,2,,,,,,,,,1,,,,80,0
61805,note_on,241,0,2,,,,,,,,,1,,,,77,0
61806,note_on,0,0,3,,,,,,,,,2,,,,68,0
61806,note_on,241,0,3,,,,,,,,,2,,,,65,0
61808,note_on,39,0,13,,,,,,,,,12,,,,65,0
61808,control_change,0,0,13,,,,,,,,,12,11,64,,,
61808,note_on,0,0,13,,,,,,,,,12,,,,68,112
61810,note_on,241,0,4,,,,,,,,,3,,,,56,0
61810,note_on,0,0,4,,,,,,,,,3,,,,53,0
61812,note_on,0,0,14,,,,,,,,,13,,,,68,112
61812,control_change,0,0,14,,,,,,,,,13,11,64,,,
61812,note_on,39,0,14,,,,,,,,,13,,,,65,0
61814,control_change,0,0,15,,,,,,,,,14,11,64,,,
61814,note_on,0,0,15,,,,,,,,,14,,,,56,112
61814,note_on,39,0,15,,,,,,,,,14,,,,53,0
61910,note_on,110,0,11,,,,,,,,,10,,,,80,0
61913,note_on,110,0,12,,,,,,,,,11,,,,80,0
61918,note_on,110,0,13,,,,,,,,,12,,,,68,0
61920,control_change,10,0,11,,,,,,,,,10,11,60,,,
61920,note_on,0,0,11,,,,,,,,,10,,,,77,112
61920,set_tempo,120,1,0,,,,,,254237,,,,,,,,
61922,note_on,110,0,14,,,,,,,,,13,,,,68,0
61923,note_on,10,0,12,,,,,,,,,11,,,,77,112
61923,control_change,0,0,12,,,,,,,,,11,11,60,,,
61924,note_on,110,0,15,,,,,,,,,14,,,,56,0
61924,note_on,0,0,2,,,,,,,,,1,,,,77,115
61924,note_on,119,0,2,,,,,,,,,1,,,,80,115
61925,note_on,0,0,3,,,,,,,,,2,,,,68,116
61925,note_on,119,0,3,,,,,,,,,2,,,,65,116
61928,control_change,0,0,13,,,,,,,,,12,11,60,,,
61928,note_on,10,0,13,,,,,,,,,12,,,,65,112
61929,note_on,119,0,4,,,,,,,,,3,,,,56,115
61929,note_on,0,0,4,,,,,,,,,3,,,,53,115
61932,control_change,10,0,14,,,,,,,,,13,11,60,,,
61932,note_on,0,0,14,,,,,,,,,13,,,,65,112
61934,control_change,0,0,15,,,,,,,,,14,11,60,,,
61934,note_on,10,0,15,,,,,,,,,14,,,,53,112
61968,control_change,48,0,11,,,,,,,,,10,11,59,,,
61971,control_change,48,0,12,,,,,,,,,11,11,59,,,
61976,control_change,48,0,13,,,,,,,,,12,11,59,,,
61980,control_change,48,0,14,,,,,,,,,13,11,59,,,
61982,control_change,48,0,15,,,,,,,,,14,11,59,,,
62016,control_change,48,0,11,,,,,,,,,10,11,59,,,
62019,control_change,48,0,12,,,,,,,,,11,11,59,,,
62024,control_change,48,0,13,,,,,,,,,12,11,59,,,
62028,control_change,48,0,14,,,,,,,,,13,11,59,,,
62030,control_change,48,0,15,,,,,,,,,14,11,59,,,
62040,set_tempo,120,1,0,,,,,,263158,,,,,,,,
62064,control_change,48,0,11,,,,,,,,,10,11,58,,,
62067,control_change,48,0,12,,,,,,,,,11,11,58,,,
62072,control_change,48,0,13,,,,,,,,,12,11,58,,,
62076,control_change,48,0,14,,,,,,,,,13,11,58,,,
62078,control_change,48,0,15,,,,,,,,,14,11,58,,,
62112,control_change,48,0,11,,,,,,,,,10,11,57,,,
62115,control_change,48,0,12,,,,,,,,,11,11,57,,,
62120,control_change,48,0,13,,,,,,,,,12,11,57,,,
62124,control_change,48,0,14,,,,,,,,,13,11,57,,,
62126,control_change,48,0,15,,,,,,,,,14,11,57,,,
62160,set_tempo,120,1,0,,,,,,288462,,,,,,,,
62160,note_on,48,0,11,,,,,,,,,10,,,,77,0
62160,note_on,0,0,11,,,,,,,,,10,,,,73,112
62160,control_change,0,0,11,,,,,,,,,10,11,57,,,
62163,note_on,48,0,12,,,,,,,,,11,,,,77,0
62163,note_on,0,0,12,,,,,,,,,11,,,,73,112
62163,control_change,0,0,12,,,,,,,,,11,11,57,,,
62165,note_on,241,0,2,,,,,,,,,1,,,,77,0
62165,note_on,0,0,2,,,,,,,,,1,,,,80,0
62166,note_on,241,0,3,,,,,,,,,2,,,,68,0
62166,note_on,0,0,3,,,,,,,,,2,,,,65,0
62168,note_on,48,0,13,,,,,,,,,12,,,,65,0
62168,control_change,0,0,13,,,,,,,,,12,11,57,,,
62168,note_on,0,0,13,,,,,,,,,12,,,,61,112
62170,note_on,241,0,4,,,,,,,,,3,,,,53,0
62170,note_on,0,0,4,,,,,,,,,3,,,,56,0
62172,control_change,0,0,14,,,,,,,,,13,11,57,,,
62172,note_on,48,0,14,,,,,,,,,13,,,,65,0
62172,note_on,0,0,14,,,,,,,,,13,,,,61,112
62174,control_change,0,0,15,,,,,,,,,14,11,57,,,
62174,note_on,0,0,15,,,,,,,,,14,,,,49,112
62174,note_on,48,0,15,,,,,,,,,14,,,,53,0
62208,control_change,48,0,11,,,,,,,,,10,11,56,,,
62211,control_change,48,0,12,,,,,,,,,11,11,56,,,
62216,control_change,48,0,13,,,,,,,,,12,11,56,,,
62220,control_change,48,0,14,,,,,,,,,13,11,56,,,
62222,control_change,48,0,15,,,,,,,,,14,11,56,,,
62256,control_change,48,0,11,,,,,,,,,10,11,55,,,
62259,control_change,48,0,12,,,,,,,,,11,11,55,,,
62264,control_change,48,0,13,,,,,,,,,12,11,55,,,
62268,control_change,48,0,14,,,,,,,,,13,11,55,,,
62270,note_on,14,0,11,,,,,,,,,10,,,,73,0
62270,control_change,48,0,15,,,,,,,,,14,11,55,,,
62273,note_on,14,0,12,,,,,,,,,11,,,,73,0
62278,note_on,14,0,13,,,,,,,,,12,,,,61,0
62280,note_on,10,0,11,,,,,,,,,10,,,,68,112
62280,set_tempo,120,1,0,,,,,,254237,,,,,,,,
62282,note_on,14,0,14,,,,,,,,,13,,,,61,0
62283,note_on,10,0,12,,,,,,,,,11,,,,68,112
62284,note_on,0,0,2,,,,,,,,,1,,,,77,115
62284,control_change,119,0,2,,,,,,,,,1,11,59,,,
62284,note_on,14,0,15,,,,,,,,,14,,,,49,0
62284,note_on,0,0,2,,,,,,,,,1,,,,80,100
62285,note_on,119,0,3,,,,,,,,,2,,,,65,116
62285,note_on,0,0,3,,,,,,,,,2,,,,68,116
62288,note_on,10,0,13,,,,,,,,,12,,,,56,112
62289,control_change,0,0,4,,,,,,,,,3,11,62,,,
62289,note_on,0,0,4,,,,,,,,,3,,,,53,115
62289,note_on,119,0,4,,,,,,,,,3,,,,56,100
62292,note_on,10,0,14,,,,,,,,,13,,,,56,112
62294,note_on,10,0,15,,,,,,,,,14,,,,44,112
62304,control_change,24,0,11,,,,,,,,,10,11,55,,,
62307,control_change,24,0,12,,,,,,,,,11,11,55,,,
62312,control_change,24,0,13,,,,,,,,,12,11,55,,,
62314,note_on,30,0,2,,,,,,,,,1,,,,80,0
62316,control_change,24,0,14,,,,,,,,,13,11,55,,,
62318,control_change,24,0,15,,,,,,,,,14,11,55,,,
62319,note_on,30,0,4,,,,,,,,,3,,,,56,0
62344,note_on,30,0,2,,,,,,,,,1,,,,80,100
62349,note_on,30,0,4,,,,,,,,,3,,,,56,100
62352,control_change,48,0,11,,,,,,,,,10,11,54,,,
62355,control_change,48,0,12,,,,,,,,,11,11,54,,,
62360,control_change,48,0,13,,,,,,,,,12,11,54,,,
62364,control_change,48,0,14,,,,,,,,,13,11,54,,,
62366,control_change,48,0,15,,,,,,,,,14,11,54,,,
62374,note_on,30,0,2,,,,,,,,,1,,,,80,0
62379,note_on,30,0,4,,,,,,,,,3,,,,56,0
62400,set_tempo,120,1,0,,,,,,263158,,,,,,,,
62400,control_change,48,0,11,,,,,,,,,10,11,53,,,
62403,control_change,48,0,12,,,,,,,,,11,11,53,,,
62404,note_on,30,0,2,,,,,,,,,1,,,,82,100
62408,control_change,48,0,13,,,,,,,,,12,11,53,,,
62409,note_on,30,0,4,,,,,,,,,3,,,,58,100
62412,control_change,48,0,14,,,,,,,,,13,11,53,,,
62414,control_change,48,0,15,,,,,,,,,14,11,53,,,
62448,control_change,48,0,11,,,,,,,,,10,11,52,,,
62451,control_change,48,0,12,,,,,,,,,11,11,52,,,
62456,control_change,48,0,13,,,,,,,,,12,11,52,,,
62460,control_change,48,0,14,,,,,,,,,13,11,52,,,
62462,control_change,48,0,15,,,,,,,,,14,11,52,,,
62464,note_on,60,0,2,,,,,,,,,1,,,,82,0
62464,note_on,0,0,2,,,,,,,,,1,,,,80,100
62469,note_on,60,0,4,,,,,,,,,3,,,,58,0
62469,note_on,0,0,4,,,,,,,,,3,,,,56,100
62496,control_change,48,0,11,,,,,,,,,10,11,51,,,
62499,control_change,48,0,12,,,,,,,,,11,11,51,,,
62504,control_change,48,0,13,,,,,,,,,12,11,51,,,
62508,control_change,48,0,14,,,,,,,,,13,11,51,,,
62510,control_change,48,0,15,,,,,,,,,14,11,51,,,
62520,set_tempo,120,1,0,,,,,,288462,,,,,,,,
62520,note_on,0,0,11,,,,,,,,,10,,,,65,112
62520,note_on,24,0,11,,,,,,,,,10,,,,68,0
62523,note_on,24,0,12,,,,,,,,,11,,,,68,0
62523,note_on,0,0,12,,,,,,,,,11,,,,65,112
62524,note_on,60,0,2,,,,,,,,,1,,,,80,0
62524,note_on,0,0,2,,,,,,,,,1,,,,82,100
62528,note_on,24,0,13,,,,,,,,,12,,,,56,0
62528,note_on,0,0,13,,,,,,,,,12,,,,53,112
62529,note_on,60,0,4,,,,,,,,,3,,,,56,0
62529,note_on,0,0,4,,,,,,,,,3,,,,58,100
62532,note_on,24,0,14,,,,,,,,,13,,,,56,0
62532,note_on,0,0,14,,,,,,,,,13,,,,53,112
62534,note_on,24,0,15,,,,,,,,,14,,,,44,0
62534,note_on,0,0,15,,,,,,,,,14,,,,41,112
62544,control_change,24,0,11,,,,,,,,,10,11,50,,,
62547,control_change,24,0,12,,,,,,,,,11,11,50,,,
62552,control_change,24,0,13,,,,,,,,,12,11,50,,,
62556,control_change,24,0,14,,,,,,,,,13,11,50,,,
62558,control_change,24,0,15,,,,,,,,,14,11,50,,,
62584,note_on,60,0,2,,,,,,,,,1,,,,82,0
62584,note_on,0,0,2,,,,,,,,,1,,,,80,100
62589,note_on,60,0,4,,,,,,,,,3,,,,58,0
62589,note_on,0,0,4,,,,,,,,,3,,,,56,100
62592,control_change,48,0,11,,,,,,,,,10,11,50,,,
62595,control_change,48,0,12,,,,,,,,,11,11,50,,,
62600,control_change,48,0,13,,,,,,,,,12,11,50,,,
62604,control_change,48,0,14,,,,,,,,,13,11,50,,,
62606,control_change,48,0,15,,,,,,,,,14,11,50,,,
62630,note_on,38,0,11,,,,,,,,,10,,,,65,0
62633,note_on,38,0,12,,,,,,,,,11,,,,65,0
62638,note_on,38,0,13,,,,,,,,,12,,,,53,0
62640,control_change,10,0,11,,,,,,,,,10,11,49,,,
62640,note_on,0,0,11,,,,,,,,,10,,,,61,112
62640,set_tempo,120,1,0,,,,,,254237,,,,,,,,
62642,note_on,38,0,14,,,,,,,,,13,,,,53,0
62643,note_on,0,0,12,,,,,,,,,11,,,,61,112
62643,control_change,10,0,12,,,,,,,,,11,11,49,,,
62644,note_on,0,0,2,,,,,,,,,1,,,,77,0
62644,note_on,0,0,2,,,,,,,,,1,,,,80,115
62644,note_on,0,0,2,,,,,,,,,1,,,,77,115
62644,control_change,0,0,2,,,,,,,,,1,11,52,,,
62644,note_on,38,0,15,,,,,,,,,14,,,,41,0
62644,note_on,60,0,2,,,,,,,,,1,,,,80,0
62645,control_change,0,0,3,,,,,,,,,2,11,59,,,
62645,note_on,0,0,3,,,,,,,,,2,,,,68,101
62645,note_on,0,0,3,,,,,,,,,2,,,,65,116
62645,note_on,360,0,3,,,,,,,,,2,,,,68,0
62645,note_on,0,0,3,,,,,,,,,2,,,,65,0
62648,note_on,0,0,13,,,,,,,,,12,,,,49,112
62648,control_change,10,0,13,,,,,,,,,12,11,49,,,
62649,note_on,60,0,4,,,,,,,,,3,,,,56,0
62649,note_on,0,0,4,,,,,,,,,3,,,,53,0
62649,note_on,0,0,4,,,,,,,,,3,,,,53,115
62649,note_on,0,0,4,,,,,,,,,3,,,,56,115
62649,control_change,0,0,4,,,,,,,,,3,11,52,,,
62652,note_on,0,0,14,,,,,,,,,13,,,,49,112
62652,control_change,10,0,14,,,,,,,,,13,11,49,,,
62654,control_change,0,0,15,,,,,,,,,14,11,49,,,
62654,note_on,10,0,15,,,,,,,,,14,,,,37,112
62675,note_on,30,0,3,,,,,,,,,2,,,,68,0
62688,control_change,48,0,11,,,,,,,,,10,11,48,,,
62691,control_change,48,0,12,,,,,,,,,11,11,48,,,
62696,control_change,48,0,13,,,,,,,,,12,11,48,,,
62700,control_change,48,0,14,,,,,,,,,13,11,48,,,
62702,control_change,48,0,15,,,,,,,,,14,11,48,,,
62704,note_on,60,0,2,,,,,,,,,1,,,,77,0
62704,note_on,0,0,2,,,,,,,,,1,,,,80,0
62705,note_on,30,0,3,,,,,,,,,2,,,,68,101
62709,note_on,0,0,4,,,,,,,,,3,,,,53,0
62709,note_on,60,0,4,,,,,,,,,3,,,,56,0
62735,note_on,30,0,3,,,,,,,,,2,,,,68,0
62736,control_change,48,0,11,,,,,,,,,10,11,47,,,
62739,control_change,48,0,12,,,,,,,,,11,11,47,,,
62744,control_change,48,0,13,,,,,,,,,12,11,47,,,
62748,control_change,48,0,14,,,,,,,,,13,11,47,,,
62750,control_change,48,0,15,,,,,,,,,14,11,47,,,
62760,set_tempo,120,1,0,,,,,,263158,,,,,,,,
62764,note_on,0,0,2,,,,,,,,,1,,,,80,115
62764,note_on,60,0,2,,,,,,,,,1,,,,77,115
62765,note_on,30,0,3,,,,,,,,,2,,,,70,101
62769,note_on,60,0,4,,,,,,,,,3,,,,56,100
62769,note_on,0,0,4,,,,,,,,,3,,,,53,100
62784,control_change,48,0,11,,,,,,,,,10,11,46,,,
62787,control_change,48,0,12,,,,,,,,,11,11,46,,,
62792,control_change,48,0,13,,,,,,,,,12,11,46,,,
62796,control_change,48,0,14,,,,,,,,,13,11,46,,,
62798,control_change,48,0,15,,,,,,,,,14,11,46,,,
62824,note_on,60,0,2,,,,,,,,,1,,,,80,0
62824,note_on,0,0,2,,,,,,,,,1,,,,77,0
62825,note_on,0,0,3,,,,,,,,,2,,,,68,101
62825,note_on,60,0,3,,,,,,,,,2,,,,70,0
62829,note_on,60,0,4,,,,,,,,,3,,,,53,0
62829,note_on,0,0,4,,,,,,,,,3,,,,56,0
62832,control_change,48,0,11,,,,,,,,,10,11,45,,,
62835,control_change,48,0,12,,,,,,,,,11,11,45,,,
62840,control_change,48,0,13,,,,,,,,,12,11,45,,,
62844,control_change,48,0,14,,,,,,,,,13,11,45,,,
62846,control_change,48,0,15,,,,,,,,,14,11,45,,,
62880,control_change,0,0,11,,,,,,,,,10,11,45,,,
62880,note_on,48,0,11,,,,,,,,,10,,,,61,0
62880,note_on,0,0,11,,,,,,,,,10,,,,56,112
62880,set_tempo,120,1,0,,,,,,288462,,,,,,,,
62883,note_on,48,0,12,,,,,,,,,11,,,,61,0
62883,note_on,0,0,12,,,,,,,,,11,,,,56,112
62883,control_change,0,0,12,,,,,,,,,11,11,45,,,
62884,note_on,0,0,2,,,,,,,,,1,,,,80,115
62884,note_on,60,0,2,,,,,,,,,1,,,,77,115
62885,note_on,60,0,3,,,,,,,,,2,,,,68,0
62885,note_on,0,0,3,,,,,,,,,2,,,,70,101
62888,control_change,0,0,13,,,,,,,,,12,11,45,,,
62888,note_on,0,0,13,,,,,,,,,12,,,,56,112
62888,note_on,48,0,13,,,,,,,,,12,,,,49,0
62889,note_on,0,0,4,,,,,,,,,3,,,,56,100
62889,note_on,60,0,4,,,,,,,,,3,,,,53,100
62892,note_on,48,0,14,,,,,,,,,13,,,,49,0
62892,note_on,0,0,14,,,,,,,,,13,,,,44,112
62892,control_change,0,0,14,,,,,,,,,13,11,45,,,
62894,note_on,48,0,15,,,,,,,,,14,,,,37,0
62894,control_change,0,0,15,,,,,,,,,14,11,45,,,
62894,note_on,0,0,15,,,,,,,,,14,,,,32,112
62944,note_on,60,0,2,,,,,,,,,1,,,,80,0
62944,note_on,0,0,2,,,,,,,,,1,,,,77,0
62945,note_on,60,0,3,,,,,,,,,2,,,,70,0
62945,note_on,0,0,3,,,,,,,,,2,,,,68,101
62949,note_on,0,0,4,,,,,,,,,3,,,,53,0
62949,note_on,60,0,4,,,,,,,,,3,,,,56,0
62990,note_on,110,0,11,,,,,,,,,10,,,,56,0
62993,note_on,110,0,12,,,,,,,,,11,,,,56,0
62998,note_on,110,0,13,,,,,,,,,12,,,,56,0
63000,control_change,10,0,11,,,,,,,,,10,11,49,,,
63000,set_tempo,120,1,0,,,,,,254237,,,,,,,,
63000,note_on,0,0,11,,,,,,,,,10,,,,61,112
63002,note_on,110,0,14,,,,,,,,,13,,,,44,0
63003,control_change,10,0,12,,,,,,,,,11,11,49,,,
63003,note_on,0,0,12,,,,,,,,,11,,,,61,112
63004,control_change,60,0,2,,,,,,,,,1,11,37,,,
63004,note_on,0,0,2,,,,,,,,,1,,,,76,100
63004,note_on,0,0,2,,,,,,,,,1,,,,80,100
63004,note_on,110,0,15,,,,,,,,,14,,,,32,0
63005,note_on,0,0,3,,,,,,,,,2,,,,65,0
63005,control_change,0,0,3,,,,,,,,,2,11,37,,,
63005,note_on,60,0,3,,,,,,,,,2,,,,68,0
63005,note_on,0,0,3,,,,,,,,,2,,,,68,101
63005,note_on,0,0,3,,,,,,,,,2,,,,64,101
63008,note_on,0,0,13,,,,,,,,,12,,,,49,112
63008,control_change,10,0,13,,,,,,,,,12,11,49,,,
63009,note_on,0,0,4,,,,,,,,,3,,,,52,100
63009,note_on,60,0,4,,,,,,,,,3,,,,56,100
63009,control_change,0,0,4,,,,,,,,,3,11,37,,,
63012,control_change,0,0,14,,,,,,,,,13,11,49,,,
63012,note_on,10,0,14,,,,,,,,,13,,,,49,112
63014,control_change,0,0,15,,,,,,,,,14,11,49,,,
63014,note_on,10,0,15,,,,,,,,,14,,,,37,112
63022,control_change,18,0,2,,,,,,,,,1,11,40,,,
63023,control_change,18,0,3,,,,,,,,,2,11,40,,,
63027,control_change,18,0,4,,,,,,,,,3,11,40,,,
63038,control_change,38,0,11,,,,,,,,,10,11,50,,,
63040,control_change,18,0,2,,,,,,,,,1,11,43,,,
63041,control_change,38,0,12,,,,,,,,,11,11,50,,,
63041,control_change,18,0,3,,,,,,,,,2,11,43,,,
63045,control_change,18,0,4,,,,,,,,,3,11,43,,,
63046,control_change,38,0,13,,,,,,,,,12,11,50,,,
63050,control_change,38,0,14,,,,,,,,,13,11,50,,,
63052,control_change,38,0,15,,,,,,,,,14,11,50,,,
63058,control_change,18,0,2,,,,,,,,,1,11,46,,,
63059,control_change,18,0,3,,,,,,,,,2,11,46,,,
63063,control_change,18,0,4,,,,,,,,,3,11,46,,,
63076,control_change,38,0,11,,,,,,,,,10,11,50,,,
63076,control_change,18,0,2,,,,,,,,,1,11,49,,,
63077,control_change,18,0,3,,,,,,,,,2,11,49,,,
63079,control_change,38,0,12,,,,,,,,,11,11,50,,,
63081,control_change,18,0,4,,,,,,,,,3,11,49,,,
63084,control_change,38,0,13,,,,,,,,,12,11,50,,,
63088,control_change,38,0,14,,,,,,,,,13,11,50,,,
63090,control_change,38,0,15,,,,,,,,,14,11,50,,,
63094,control_change,18,0,2,,,,,,,,,1,11,52,,,
63095,control_change,18,0,3,,,,,,,,,2,11,52,,,
63099,control_change,18,0,4,,,,,,,,,3,11,52,,,
63112,control_change,18,0,2,,,,,,,,,1,11,54,,,
63113,control_change,18,0,3,,,,,,,,,2,11,54,,,
63115,control_change,39,0,11,,,,,,,,,10,11,51,,,
63117,control_change,18,0,4,,,,,,,,,3,11,55,,,
63118,control_change,39,0,12,,,,,,,,,11,11,51,,,
63120,set_tempo,120,1,0,,,,,,263158,,,,,,,,
63123,control_change,39,0,13,,,,,,,,,12,11,51,,,
63127,control_change,39,0,14,,,,,,,,,13,11,51,,,
63129,control_change,39,0,15,,,,,,,,,14,11,51,,,
63153,control_change,38,0,11,,,,,,,,,10,11,52,,,
63156,control_change,38,0,12,,,,,,,,,11,11,52,,,
63161,control_change,38,0,13,,,,,,,,,12,11,52,,,
63165,control_change,38,0,14,,,,,,,,,13,11,52,,,
63167,control_change,38,0,15,,,,,,,,,14,11,52,,,
63192,control_change,39,0,11,,,,,,,,,10,11,53,,,
63195,control_change,39,0,12,,,,,,,,,11,11,53,,,
63200,control_change,39,0,13,,,,,,,,,12,11,53,,,
63204,control_change,39,0,14,,,,,,,,,13,11,53,,,
63206,control_change,39,0,15,,,,,,,,,14,11,53,,,
63230,control_change,38,0,11,,,,,,,,,10,11,54,,,
63233,control_change,38,0,12,,,,,,,,,11,11,54,,,
63238,control_change,38,0,13,,,,,,,,,12,11,54,,,
63240,note_on,0,0,11,,,,,,,,,10,,,,64,112
63240,note_on,10,0,11,,,,,,,,,10,,,,61,0
63240,set_tempo,120,1,0,,,,,,288462,,,,,,,,
63242,control_change,38,0,14,,,,,,,,,13,11,54,,,
63243,note_on,10,0,12,,,,,,,,,11,,,,61,0
63243,note_on,0,0,12,,,,,,,,,11,,,,64,112
63244,control_change,38,0,15,,,,,,,,,14,11,54,,,
63245,note_on,0,0,2,,,,,,,,,1,,,,76,0
63245,note_on,133,0,2,,,,,,,,,1,,,,80,0
63246,note_on,133,0,3,,,,,,,,,2,,,,64,0
63246,note_on,0,0,3,,,,,,,,,2,,,,68,0
63248,note_on,10,0,13,,,,,,,,,12,,,,49,0
63248,note_on,0,0,13,,,,,,,,,12,,,,52,112
63250,note_on,0,0,4,,,,,,,,,3,,,,56,0
63250,note_on,133,0,4,,,,,,,,,3,,,,52,0
63252,note_on,10,0,14,,,,,,,,,13,,,,49,0
63252,note_on,0,0,14,,,,,,,,,13,,,,52,112
63254,note_on,0,0,15,,,,,,,,,14,,,,40,112
63254,note_on,10,0,15,,,,,,,,,14,,,,37,0
63268,control_change,28,0,11,,,,,,,,,10,11,55,,,
63271,control_change,28,0,12,,,,,,,,,11,11,55,,,
63276,control_change,28,0,13,,,,,,,,,12,11,55,,,
63280,control_change,28,0,14,,,,,,,,,13,11,55,,,
63282,control_change,28,0,15,,,,,,,,,14,11,55,,,
63307,control_change,39,0,11,,,,,,,,,10,11,55,,,
63310,control_change,39,0,12,,,,,,,,,11,11,55,,,
63315,control_change,39,0,13,,,,,,,,,12,11,55,,,
63319,control_change,39,0,14,,,,,,,,,13,11,55,,,
63321,control_change,39,0,15,,,,,,,,,14,11,55,,,
63345,control_change,38,0,11,,,,,,,,,10,11,56,,,
63348,control_change,38,0,12,,,,,,,,,11,11,56,,,
63350,note_on,5,0,11,,,,,,,,,10,,,,64,0
63353,control_change,38,0,13,,,,,,,,,12,11,56,,,
63353,note_on,5,0,12,,,,,,,,,11,,,,64,0
63357,control_change,38,0,14,,,,,,,,,13,11,56,,,
63358,note_on,5,0,13,,,,,,,,,12,,,,52,0
63359,control_change,38,0,15,,,,,,,,,14,11,56,,,
63360,set_tempo,120,1,0,,,,,,254237,,,,,,,,
63360,note_on,10,0,11,,,,,,,,,10,,,,68,112
63362,note_on,5,0,14,,,,,,,,,13,,,,52,0
63363,note_on,10,0,12,,,,,,,,,11,,,,68,112
63364,note_on,119,0,2,,,,,,,,,1,,,,76,100
63364,note_on,5,0,15,,,,,,,,,14,,,,40,0
63364,note_on,0,0,2,,,,,,,,,1,,,,80,100
63365,note_on,119,0,3,,,,,,,,,2,,,,64,101
63365,note_on,0,0,3,,,,,,,,,2,,,,68,101
63368,note_on,10,0,13,,,,,,,,,12,,,,56,112
63369,note_on,0,0,4,,,,,,,,,3,,,,56,100
63369,note_on,119,0,4,,,,,,,,,3,,,,52,100
63372,note_on,10,0,14,,,,,,,,,13,,,,56,112
63374,note_on,10,0,15,,,,,,,,,14,,,,44,112
63384,control_change,24,0,11,,,,,,,,,10,11,57,,,
63387,control_change,24,0,12,,,,,,,,,11,11,57,,,
63392,control_change,24,0,13,,,,,,,,,12,11,57,,,
63396,control_change,24,0,14,,,,,,,,,13,11,57,,,
63398,control_change,24,0,15,,,,,,,,,14,11,57,,,
63422,control_change,38,0,11,,,,,,,,,10,11,57,,,
63425,control_change,38,0,12,,,,,,,,,11,11,57,,,
63430,control_change,38,0,13,,,,,,,,,12,11,57,,,
63434,control_change,38,0,14,,,,,,,,,13,11,57,,,
63436,control_change,38,0,15,,,,,,,,,14,11,57,,,
63460,control_change,38,0,11,,,,,,,,,10,11,58,,,
63463,control_change,38,0,12,,,,,,,,,11,11,58,,,
63468,control_change,38,0,13,,,,,,,,,12,11,58,,,
63472,control_change,38,0,14,,,,,,,,,13,11,58,,,
63474,control_change,38,0,15,,,,,,,,,14,11,58,,,
63480,set_tempo,120,1,0,,,,,,263158,,,,,,,,
63499,control_change,39,0,11,,,,,,,,,10,11,59,,,
63502,control_change,39,0,12,,,,,,,,,11,11,59,,,
63507,control_change,39,0,13,,,,,,,,,12,11,59,,,
63511,control_change,39,0,14,,,,,,,,,13,11,59,,,
63513,control_change,39,0,15,,,,,,,,,14,11,59,,,
63537,control_change,38,0,11,,,,,,,,,10,11,59,,,
63540,control_change,38,0,12,,,,,,,,,11,11,59,,,
63545,control_change,38,0,13,,,,,,,,,12,11,59,,,
63549,control_change,38,0,14,,,,,,,,,13,11,59,,,
63551,control_change,38,0,15,,,,,,,,,14,11,59,,,
63576,control_change,39,0,11,,,,,,,,,10,11,60,,,
63579,control_change,39,0,12,,,,,,,,,11,11,60,,,
63584,control_change,39,0,13,,,,,,,,,12,11,60,,,
63588,control_change,39,0,14,,,,,,,,,13,11,60,,,
63590,control_change,39,0,15,,,,,,,,,14,11,60,,,
63600,note_on,0,0,11,,,,,,,,,10,,,,73,112
63600,set_tempo,120,1,0,,,,,,288462,,,,,,,,
63600,note_on,24,0,11,,,,,,,,,10,,,,68,0
63603,note_on,0,0,12,,,,,,,,,11,,,,73,112
63603,note_on,24,0,12,,,,,,,,,11,,,,68,0
63605,note_on,0,0,2,,,,,,,,,1,,,,76,0
63605,note_on,241,0,2,,,,,,,,,1,,,,80,0
63606,note_on,241,0,3,,,,,,,,,2,,,,68,0
63606,note_on,0,0,3,,,,,,,,,2,,,,64,0
63608,note_on,0,0,13,,,,,,,,,12,,,,61,112
63608,note_on,24,0,13,,,,,,,,,12,,,,56,0
63610,note_on,241,0,4,,,,,,,,,3,,,,56,0
63610,note_on,0,0,4,,,,,,,,,3,,,,52,0
63612,note_on,0,0,14,,,,,,,,,13,,,,61,112
63612,note_on,24,0,14,,,,,,,,,13,,,,56,0
63614,control_change,14,0,11,,,,,,,,,10,11,61,,,
63614,note_on,0,0,15,,,,,,,,,14,,,,49,112
63614,note_on,24,0,15,,,,,,,,,14,,,,44,0
63617,control_change,14,0,12,,,,,,,,,11,11,61,,,
63622,control_change,14,0,13,,,,,,,,,12,11,61,,,
63626,control_change,14,0,14,,,,,,,,,13,11,61,,,
63628,control_change,14,0,15,,,,,,,,,14,11,61,,,
63652,control_change,38,0,11,,,,,,,,,10,11,62,,,
63655,control_change,38,0,12,,,,,,,,,11,11,62,,,
63660,control_change,38,0,13,,,,,,,,,12,11,62,,,
63664,control_change,38,0,14,,,,,,,,,13,11,62,,,
63666,control_change,38,0,15,,,,,,,,,14,11,62,,,
63691,control_change,39,0,11,,,,,,,,,10,11,63,,,
63694,control_change,39,0,12,,,,,,,,,11,11,63,,,
63699,control_change,39,0,13,,,,,,,,,12,11,63,,,
63703,control_change,39,0,14,,,,,,,,,13,11,63,,,
63705,control_change,39,0,15,,,,,,,,,14,11,63,,,
63710,note_on,19,0,11,,,,,,,,,10,,,,73,0
63713,note_on,19,0,12,,,,,,,,,11,,,,73,0
63718,note_on,19,0,13,,,,,,,,,12,,,,61,0
63720,note_on,10,0,11,,,,,,,,,10,,,,76,112
63720,set_tempo,120,1,0,,,,,,254237,,,,,,,,
63722,note_on,19,0,14,,,,,,,,,13,,,,61,0
63723,note_on,10,0,12,,,,,,,,,11,,,,76,112
63724,note_on,19,0,15,,,,,,,,,14,,,,49,0
63724,note_on,0,0,2,,,,,,,,,1,,,,80,100
63724,note_on,119,0,2,,,,,,,,,1,,,,76,100
63725,note_on,0,0,3,,,,,,,,,2,,,,68,101
63725,note_on,119,0,3,,,,,,,,,2,,,,64,101
63728,note_on,10,0,13,,,,,,,,,12,,,,64,112
63729,note_on,119,0,4,,,,,,,,,3,,,,56,100
63729,control_change,9,0,11,,,,,,,,,10,11,64,,,
63729,note_on,0,0,4,,,,,,,,,3,,,,52,100
63732,control_change,9,0,12,,,,,,,,,11,11,64,,,
63732,note_on,10,0,14,,,,,,,,,13,,,,64,112
63734,note_on,10,0,15,,,,,,,,,14,,,,52,112
63737,control_change,9,0,13,,,,,,,,,12,11,64,,,
63741,control_change,9,0,14,,,,,,,,,13,11,64,,,
63743,control_change,9,0,15,,,,,,,,,14,11,64,,,
63768,control_change,39,0,11,,,,,,,,,10,11,64,,,
63771,control_change,39,0,12,,,,,,,,,11,11,64,,,
63776,control_change,39,0,13,,,,,,,,,12,11,64,,,
63780,control_change,39,0,14,,,,,,,,,13,11,64,,,
63782,control_change,39,0,15,,,,,,,,,14,11,64,,,
63806,control_change,38,0,11,,,,,,,,,10,11,65,,,
63809,control_change,38,0,12,,,,,,,,,11,11,65,,,
63814,control_change,38,0,13,,,,,,,,,12,11,65,,,
63818,control_change,38,0,14,,,,,,,,,13,11,65,,,
63820,control_change,38,0,15,,,,,,,,,14,11,65,,,
63840,set_tempo,120,1,0,,,,,,263158,,,,,,,,
63844,control_change,38,0,11,,,,,,,,,10,11,66,,,
63847,control_change,38,0,12,,,,,,,,,11,11,66,,,
63852,control_change,38,0,13,,,,,,,,,12,11,66,,,
63856,control_change,38,0,14,,,,,,,,,13,11,66,,,
63858,control_change,38,0,15,,,,,,,,,14,11,66,,,
63883,control_change,39,0,11,,,,,,,,,10,11,67,,,
63886,control_change,39,0,12,,,,,,,,,11,11,67,,,
63891,control_change,39,0,13,,,,,,,,,12,11,67,,,
63895,control_change,39,0,14,,,,,,,,,13,11,67,,,
63897,control_change,39,0,15,,,,,,,,,14,11,67,,,
63921,control_change,38,0,11,,,,,,,,,10,11,68,,,
63924,control_change,38,0,12,,,,,,,,,11,11,68,,,
63929,control_change,38,0,13,,,,,,,,,12,11,68,,,
63933,control_change,38,0,14,,,,,,,,,13,11,68,,,
63935,control_change,38,0,15,,,,,,,,,14,11,68,,,
63960,note_on,39,0,11,,,,,,,,,10,,,,76,0
63960,set_tempo,120,1,0,,,,,,288462,,,,,,,,
63960,control_change,0,0,11,,,,,,,,,10,11,69,,,
63960,note_on,0,0,11,,,,,,,,,10,,,,80,112
63963,control_change,0,0,12,,,,,,,,,11,11,69,,,
63963,note_on,39,0,12,,,,,,,,,11,,,,76,0
63963,note_on,0,0,12,,,,,,,,,11,,,,80,112
63965,note_on,241,0,2,,,,,,,,,1,,,,80,0
63965,note_on,0,0,2,,,,,,,,,1,,,,76,0
63966,note_on,0,0,3,,,,,,,,,2,,,,64,0
63966,note_on,241,0,3,,,,,,,,,2,,,,68,0
63968,control_change,0,0,13,,,,,,,,,12,11,69,,,
63968,note_on,0,0,13,,,,,,,,,12,,,,68,112
63968,note_on,39,0,13,,,,,,,,,12,,,,64,0
63970,note_on,0,0,4,,,,,,,,,3,,,,56,0
63970,note_on,241,0,4,,,,,,,,,3,,,,52,0
63972,note_on,39,0,14,,,,,,,,,13,,,,64,0
63972,note_on,0,0,14,,,,,,,,,13,,,,68,112
63972,control_change,0,0,14,,,,,,,,,13,11,69,,,
63974,note_on,0,0,15,,,,,,,,,14,,,,56,112
63974,control_change,0,0,15,,,,,,,,,14,11,69,,,
63974,note_on,39,0,15,,,,,,,,,14,,,,52,0
64070,note_on,110,0,11,,,,,,,,,10,,,,80,0
64073,note_on,110,0,12,,,,,,,,,11,,,,80,0
64078,note_on,110,0,13,,,,,,,,,12,,,,68,0
64080,set_tempo,120,1,0,,,,,,254237,,,,,,,,
64080,control_change,10,0,11,,,,,,,,,10,11,64,,,
64080,note_on,0,0,11,,,,,,,,,10,,,,76,112
64082,note_on,110,0,14,,,,,,,,,13,,,,68,0
64083,control_change,10,0,12,,,,,,,,,11,11,64,,,
64083,note_on,0,0,12,,,,,,,,,11,,,,76,112
64084,note_on,110,0,15,,,,,,,,,14,,,,56,0
64084,note_on,0,0,2,,,,,,,,,1,,,,80,100
64084,note_on,119,0,2,,,,,,,,,1,,,,76,100
64085,note_on,0,0,3,,,,,,,,,2,,,,64,101
64085,note_on,119,0,3,,,,,,,,,2,,,,68,101
64088,control_change,10,0,13,,,,,,,,,12,11,64,,,
64088,note_on,0,0,13,,,,,,,,,12,,,,64,112
64089,note_on,119,0,4,,,,,,,,,3,,,,52,100
64089,note_on,0,0,4,,,,,,,,,3,,,,56,100
64092,control_change,10,0,14,,,,,,,,,13,11,64,,,
64092,note_on,0,0,14,,,,,,,,,13,,,,64,112
64094,note_on,10,0,15,,,,,,,,,14,,,,52,112
64094,control_change,0,0,15,,,,,,,,,14,11,64,,,
64144,control_change,64,0,11,,,,,,,,,10,11,64,,,
64147,control_change,64,0,12,,,,,,,,,11,11,64,,,
64152,control_change,64,0,13,,,,,,,,,12,11,64,,,
64156,control_change,64,0,14,,,,,,,,,13,11,64,,,
64158,control_change,64,0,15,,,,,,,,,14,11,64,,,
64200,set_tempo,120,1,0,,,,,,263158,,,,,,,,
64208,control_change,64,0,11,,,,,,,,,10,11,63,,,
64211,control_change,64,0,12,,,,,,,,,11,11,63,,,
64216,control_change,64,0,13,,,,,,,,,12,11,63,,,
64220,control_change,64,0,14,,,,,,,,,13,11,63,,,
64222,control_change,64,0,15,,,,,,,,,14,11,63,,,
64272,control_change,64,0,11,,,,,,,,,10,11,62,,,
64275,control_change,64,0,12,,,,,,,,,11,11,62,,,
64280,control_change,64,0,13,,,,,,,,,12,11,62,,,
64284,control_change,64,0,14,,,,,,,,,13,11,62,,,
64286,control_change,64,0,15,,,,,,,,,14,11,62,,,
64320,set_tempo,120,1,0,,,,,,288462,,,,,,,,
64320,note_on,48,0,11,,,,,,,,,10,,,,76,0
64320,note_on,0,0,11,,,,,,,,,10,,,,73,112
64323,note_on,48,0,12,,,,,,,,,11,,,,76,0
64323,note_on,0,0,12,,,,,,,,,11,,,,73,112
64325,note_on,0,0,2,,,,,,,,,1,,,,76,0
64325,note_on,241,0,2,,,,,,,,,1,,,,80,0
64326,note_on,0,0,3,,,,,,,,,2,,,,68,0
64326,note_on,241,0,3,,,,,,,,,2,,,,64,0
64328,note_on,0,0,13,,,,,,,,,12,,,,61,112
64328,note_on,48,0,13,,,,,,,,,12,,,,64,0
64330,note_on,241,0,4,,,,,,,,,3,,,,56,0
64330,note_on,0,0,4,,,,,,,,,3,,,,52,0
64332,note_on,0,0,14,,,,,,,,,13,,,,61,112
64332,note_on,48,0,14,,,,,,,,,13,,,,64,0
64334,note_on,0,0,15,,,,,,,,,14,,,,49,112
64334,note_on,48,0,15,,,,,,,,,14,,,,52,0
64336,control_change,16,0,11,,,,,,,,,10,11,61,,,
64339,control_change,16,0,12,,,,,,,,,11,11,61,,,
64344,control_change,16,0,13,,,,,,,,,12,11,61,,,
64348,control_change,16,0,14,,,,,,,,,13,11,61,,,
64350,control_change,16,0,15,,,,,,,,,14,11,61,,,
64400,control_change,64,0,11,,,,,,,,,10,11,60,,,
64403,control_change,64,0,12,,,,,,,,,11,11,60,,,
64408,control_change,64,0,13,,,,,,,,,12,11,60,,,
64412,control_change,64,0,14,,,,,,,,,13,11,60,,,
64414,control_change,64,0,15,,,,,,,,,14,11,60,,,
64430,note_on,30,0,11,,,,,,,,,10,,,,73,0
64433,note_on,30,0,12,,,,,,,,,11,,,,73,0
64438,note_on,30,0,13,,,,,,,,,12,,,,61,0
64440,set_tempo,120,1,0,,,,,,254237,,,,,,,,
64440,note_on,10,0,11,,,,,,,,,10,,,,68,112
64442,note_on,30,0,14,,,,,,,,,13,,,,61,0
64443,note_on,10,0,12,,,,,,,,,11,,,,68,112
64444,note_on,0,0,2,,,,,,,,,1,,,,80,100
64444,note_on,0,0,2,,,,,,,,,1,,,,76,100
64444,control_change,119,0,2,,,,,,,,,1,11,63,,,
64444,note_on,30,0,15,,,,,,,,,14,,,,49,0
64445,note_on,0,0,3,,,,,,,,,2,,,,68,101
64445,note_on,119,0,3,,,,,,,,,2,,,,64,101
64448,note_on,10,0,13,,,,,,,,,12,,,,56,112
64449,note_on,0,0,4,,,,,,,,,3,,,,56,100
64449,note_on,119,0,4,,,,,,,,,3,,,,52,100
64452,note_on,10,0,14,,,,,,,,,13,,,,56,112
64454,note_on,10,0,15,,,,,,,,,14,,,,44,112
64464,control_change,24,0,11,,,,,,,,,10,11,59,,,
64467,control_change,24,0,12,,,,,,,,,11,11,59,,,
64472,control_change,24,0,13,,,,,,,,,12,11,59,,,
64474,note_on,30,0,2,,,,,,,,,1,,,,80,0
64476,control_change,24,0,14,,,,,,,,,13,11,59,,,
64478,control_change,24,0,15,,,,,,,,,14,11,59,,,
64504,note_on,30,0,2,,,,,,,,,1,,,,80,100
64528,control_change,64,0,11,,,,,,,,,10,11,59,,,
64531,control_change,64,0,12,,,,,,,,,11,11,59,,,
64534,note_on,30,0,2,,,,,,,,,1,,,,80,0
64536,control_change,64,0,13,,,,,,,,,12,11,59,,,
64540,control_change,64,0,14,,,,,,,,,13,11,59,,,
64542,control_change,64,0,15,,,,,,,,,14,11,59,,,
64560,set_tempo,120,1,0,,,,,,263158,,,,,,,,
64564,note_on,30,0,2,,,,,,,,,1,,,,81,100
64592,control_change,64,0,11,,,,,,,,,10,11,58,,,
64595,control_change,64,0,12,,,,,,,,,11,11,58,,,
64600,control_change,64,0,13,,,,,,,,,12,11,58,,,
64604,control_change,64,0,14,,,,,,,,,13,11,58,,,
64606,control_change,64,0,15,,,,,,,,,14,11,58,,,
64624,note_on,60,0,2,,,,,,,,,1,,,,81,0
64624,note_on,0,0,2,,,,,,,,,1,,,,80,100
64656,control_change,64,0,11,,,,,,,,,10,11,57,,,
64659,control_change,64,0,12,,,,,,,,,11,11,57,,,
64664,control_change,64,0,13,,,,,,,,,12,11,57,,,
64668,control_change,64,0,14,,,,,,,,,13,11,57,,,
64670,control_change,64,0,15,,,,,,,,,14,11,57,,,
64680,note_on,0,0,11,,,,,,,,,10,,,,64,112
64680,note_on,24,0,11,,,,,,,,,10,,,,68,0
64680,set_tempo,120,1,0,,,,,,288462,,,,,,,,
64683,note_on,24,0,12,,,,,,,,,11,,,,68,0
64683,note_on,0,0,12,,,,,,,,,11,,,,64,112
64684,note_on,60,0,2,,,,,,,,,1,,,,80,0
64684,note_on,0,0,2,,,,,,,,,1,,,,81,100
64688,note_on,24,0,13,,,,,,,,,12,,,,56,0
64688,note_on,0,0,13,,,,,,,,,12,,,,52,112
64692,note_on,0,0,14,,,,,,,,,13,,,,52,112
64692,note_on,24,0,14,,,,,,,,,13,,,,56,0
64694,note_on,24,0,15,,,,,,,,,14,,,,44,0
64694,note_on,0,0,15,,,,,,,,,14,,,,40,112
64720,control_change,40,0,11,,,,,,,,,10,11,57,,,
64723,control_change,40,0,12,,,,,,,,,11,11,57,,,
64728,control_change,40,0,13,,,,,,,,,12,11,57,,,
64732,control_change,40,0,14,,,,,,,,,13,11,57,,,
64734,control_change,40,0,15,,,,,,,,,14,11,57,,,
64744,note_on,60,0,2,,,,,,,,,1,,,,81,0
64744,note_on,0,0,2,,,,,,,,,1,,,,80,100
64784,control_change,64,0,11,,,,,,,,,10,11,56,,,
64787,control_change,64,0,12,,,,,,,,,11,11,56,,,
64790,note_on,6,0,11,,,,,,,,,10,,,,64,0
64792,control_change,64,0,13,,,,,,,,,12,11,56,,,
64793,note_on,6,0,12,,,,,,,,,11,,,,64,0
64796,control_change,64,0,14,,,,,,,,,13,11,56,,,
64798,control_change,64,0,15,,,,,,,,,14,11,56,,,
64798,note_on,6,0,13,,,,,,,,,12,,,,52,0
64800,set_tempo,120,1,0,,,,,,254237,,,,,,,,
64800,note_on,10,0,11,,,,,,,,,10,,,,61,112
64802,note_on,6,0,14,,,,,,,,,13,,,,52,0
64803,note_on,10,0,12,,,,,,,,,11,,,,61,112
64804,note_on,60,0,2,,,,,,,,,1,,,,80,0
64804,note_on,0,0,2,,,,,,,,,1,,,,76,0
64804,note_on,0,0,2,,,,,,,,,1,,,,76,100
64804,note_on,0,0,2,,,,,,,,,1,,,,80,100
64804,control_change,0,0,2,,,,,,,,,1,11,55,,,
64804,note_on,6,0,15,,,,,,,,,14,,,,40,0
64805,control_change,0,0,3,,,,,,,,,2,11,63,,,
64805,note_on,360,0,3,,,,,,,,,2,,,,68,0
64805,note_on,0,0,3,,,,,,,,,2,,,,64,0
64805,note_on,0,0,3,,,,,,,,,2,,,,68,101
64805,note_on,0,0,3,,,,,,,,,2,,,,64,101
64808,note_on,10,0,13,,,,,,,,,12,,,,49,112
64809,note_on,0,0,4,,,,,,,,,3,,,,52,100
64809,control_change,0,0,4,,,,,,,,,3,11,67,,,
64809,note_on,0,0,4,,,,,,,,,3,,,,56,100
64809,note_on,360,0,4,,,,,,,,,3,,,,56,0
64809,note_on,0,0,4,,,,,,,,,3,,,,52,0
64812,note_on,10,0,14,,,,,,,,,13,,,,49,112
64814,note_on,10,0,15,,,,,,,,,14,,,,37,112
64835,note_on,30,0,3,,,,,,,,,2,,,,68,0
64839,note_on,30,0,4,,,,,,,,,3,,,,56,0
64848,control_change,48,0,11,,,,,,,,,10,11,55,,,
64851,control_change,48,0,12,,,,,,,,,11,11,55,,,
64856,control_change,48,0,13,,,,,,,,,12,11,55,,,
64860,control_change,48,0,14,,,,,,,,,13,11,55,,,
64862,control_change,48,0,15,,,,,,,,,14,11,55,,,
64864,note_on,0,0,2,,,,,,,,,1,,,,76,0
64864,note_on,60,0,2,,,,,,,,,1,,,,80,0
64865,note_on,30,0,3,,,,,,,,,2,,,,68,101
64869,note_on,30,0,4,,,,,,,,,3,,,,56,100
64895,note_on,30,0,3,,,,,,,,,2,,,,68,0
64899,note_on,30,0,4,,,,,,,,,3,,,,56,0
64912,control_change,64,0,11,,,,,,,,,10,11,55,,,
64915,control_change,64,0,12,,,,,,,,,11,11,55,,,
64920,set_tempo,120,1,0,,,,,,263158,,,,,,,,
64920,control_change,64,0,13,,,,,,,,,12,11,55,,,
64924,note_on,0,0,2,,,,,,,,,1,,,,80,100
64924,note_on,60,0,2,,,,,,,,,1,,,,76,100
64924,control_change,64,0,14,,,,,,,,,13,11,55,,,
64925,note_on,30,0,3,,,,,,,,,2,,,,69,101
64926,control_change,64,0,15,,,,,,,,,14,11,55,,,
64929,note_on,30,0,4,,,,,,,,,3,,,,57,100
64976,control_change,64,0,11,,,,,,,,,10,11,54,,,
64979,control_change,64,0,12,,,,,,,,,11,11,54,,,
64984,control_change,64,0,13,,,,,,,,,12,11,54,,,
64984,note_on,0,0,2,,,,,,,,,1,,,,76,0
64984,note_on,60,0,2,,,,,,,,,1,,,,80,0
64985,note_on,0,0,3,,,,,,,,,2,,,,68,101
64985,note_on,60,0,3,,,,,,,,,2,,,,69,0
64988,control_change,64,0,14,,,,,,,,,13,11,54,,,
64989,note_on,0,0,4,,,,,,,,,3,,,,56,100
64989,note_on,60,0,4,,,,,,,,,3,,,,57,0
64990,control_change,64,0,15,,,,,,,,,14,11,54,,,
65040,note_on,64,0,11,,,,,,,,,10,,,,61,0
65040,note_on,0,0,11,,,,,,,,,10,,,,56,112
65040,set_tempo,120,1,0,,,,,,288462,,,,,,,,
65040,control_change,0,0,11,,,,,,,,,10,11,53,,,
65043,note_on,64,0,12,,,,,,,,,11,,,,61,0
65043,note_on,0,0,12,,,,,,,,,11,,,,56,112
65043,control_change,0,0,12,,,,,,,,,11,11,53,,,
65044,note_on,0,0,2,,,,,,,,,1,,,,76,100
65044,note_on,60,0,2,,,,,,,,,1,,,,80,100
65045,note_on,60,0,3,,,,,,,,,2,,,,68,0
65045,note_on,0,0,3,,,,,,,,,2,,,,69,101
65048,note_on,64,0,13,,,,,,,,,12,,,,49,0
65048,control_change,0,0,13,,,,,,,,,12,11,53,,,
65048,note_on,0,0,13,,,,,,,,,12,,,,56,112
65049,note_on,0,0,4,,,,,,,,,3,,,,57,100
65049,note_on,60,0,4,,,,,,,,,3,,,,56,0
65052,note_on,0,0,14,,,,,,,,,13,,,,44,112
65052,control_change,0,0,14,,,,,,,,,13,11,53,,,
65052,note_on,64,0,14,,,,,,,,,13,,,,49,0
65054,note_on,0,0,15,,,,,,,,,14,,,,32,112
65054,control_change,0,0,15,,,,,,,,,14,11,53,,,
65054,note_on,64,0,15,,,,,,,,,14,,,,37,0
65104,note_on,0,0,2,,,,,,,,,1,,,,80,0
65104,note_on,60,0,2,,,,,,,,,1,,,,76,0
65105,note_on,60,0,3,,,,,,,,,2,,,,69,0
65105,note_on,0,0,3,,,,,,,,,2,,,,68,101
65109,note_on,60,0,4,,,,,,,,,3,,,,57,0
65109,note_on,0,0,4,,,,,,,,,3,,,,56,100
65150,note_on,110,0,11,,,,,,,,,10,,,,56,0
65153,note_on,110,0,12,,,,,,,,,11,,,,56,0
65158,note_on,110,0,13,,,,,,,,,12,,,,56,0
65160,set_tempo,120,1,0,,,,,,254237,,,,,,,,
65160,control_change,0,0,11,,,,,,,,,10,11,55,,,
65160,note_on,10,0,11,,,,,,,,,10,,,,61,112
65161,note_on,0,0,1,,,,,,,,,0,,,,88,116
65161,control_change,4320,0,1,,,,,,,,,0,11,42,,,
65161,note_on,0,0,1,,,,,,,,,0,,,,85,116
65162,note_on,110,0,14,,,,,,,,,13,,,,44,0
65163,note_on,4320,0,5,,,,,,,,,4,,,,64,115
65163,control_change,0,0,5,,,,,,,,,4,11,67,,,
65163,control_change,0,0,12,,,,,,,,,11,11,55,,,
65163,note_on,10,0,12,,,,,,,,,11,,,,61,112
65164,note_on,60,0,2,,,,,,,,,1,,,,73,115
65164,note_on,4320,0,6,,,,,,,,,5,,,,64,115
65164,control_change,0,0,2,,,,,,,,,1,11,59,,,
65164,note_on,0,0,2,,,,,,,,,1,,,,81,115
65164,control_change,0,0,6,,,,,,,,,5,11,67,,,
65164,note_on,110,0,15,,,,,,,,,14,,,,32,0
65165,control_change,0,0,3,,,,,,,,,2,11,59,,,
65165,note_on,0,0,3,,,,,,,,,2,,,,64,116
65165,note_on,0,0,3,,,,,,,,,2,,,,69,116
65165,note_on,60,0,3,,,,,,,,,2,,,,68,0
65165,note_on,0,0,3,,,,,,,,,2,,,,64,0
65168,control_change,10,0,13,,,,,,,,,12,11,55,,,
65168,note_on,0,0,13,,,,,,,,,12,,,,49,112
65169,note_on,0,0,4,,,,,,,,,3,,,,52,0
65169,note_on,0,0,4,,,,,,,,,3,,,,57,115
65169,note_on,0,0,4,,,,,,,,,3,,,,52,115
65169,control_change,0,0,4,,,,,,,,,3,11,62,,,
65169,note_on,60,0,4,,,,,,,,,3,,,,56,0
65172,note_on,0,0,14,,,,,,,,,13,,,,49,112
65172,control_change,10,0,14,,,,,,,,,13,11,55,,,
65174,control_change,0,0,15,,,,,,,,,14,11,55,,,
65174,note_on,10,0,15,,,,,,,,,14,,,,37,112
65179,control_change,18,0,1,,,,,,,,,0,11,45,,,
65197,control_change,18,0,1,,,,,,,,,0,11,48,,,
65208,control_change,48,0,11,,,,,,,,,10,11,56,,,
65211,control_change,48,0,12,,,,,,,,,11,11,56,,,
65215,control_change,18,0,1,,,,,,,,,0,11,51,,,
65216,control_change,48,0,13,,,,,,,,,12,11,56,,,
65220,control_change,48,0,14,,,,,,,,,13,11,56,,,
65222,control_change,48,0,15,,,,,,,,,14,11,56,,,
65233,control_change,18,0,1,,,,,,,,,0,11,53,,,
65251,control_change,18,0,1,,,,,,,,,0,11,55,,,
65256,control_change,48,0,11,,,,,,,,,10,11,57,,,
65259,control_change,48,0,12,,,,,,,,,11,11,57,,,
65264,control_change,48,0,13,,,,,,,,,12,11,57,,,
65268,control_change,48,0,14,,,,,,,,,13,11,57,,,
65269,control_change,18,0,1,,,,,,,,,0,11,58,,,
65270,control_change,48,0,15,,,,,,,,,14,11,57,,,
65280,set_tempo,120,1,0,,,,,,263158,,,,,,,,
65304,control_change,48,0,11,,,,,,,,,10,11,57,,,
65307,control_change,48,0,12,,,,,,,,,11,11,57,,,
65312,control_change,48,0,13,,,,,,,,,12,11,57,,,
65316,control_change,48,0,14,,,,,,,,,13,11,57,,,
65318,control_change,48,0,15,,,,,,,,,14,11,57,,,
65352,control_change,48,0,11,,,,,,,,,10,11,58,,,
65355,control_change,48,0,12,,,,,,,,,11,11,58,,,
65360,control_change,48,0,13,,,,,,,,,12,11,58,,,
65364,control_change,48,0,14,,,,,,,,,13,11,58,,,
65366,control_change,48,0,15,,,,,,,,,14,11,58,,,
65400,set_tempo,120,1,0,,,,,,288462,,,,,,,,
65400,note_on,48,0,11,,,,,,,,,10,,,,61,0
65400,control_change,0,0,11,,,,,,,,,10,11,59,,,
65400,note_on,0,0,11,,,,,,,,,10,,,,64,112
65402,note_on,0,0,1,,,,,,,,,0,,,,85,0
65402,note_on,133,0,1,,,,,,,,,0,,,,88,0
65403,control_change,0,0,12,,,,,,,,,11,11,59,,,
65403,note_on,0,0,12,,,,,,,,,11,,,,64,112
65403,note_on,48,0,12,,,,,,,,,11,,,,61,0
65405,note_on,0,0,2,,,,,,,,,1,,,,73,0
65405,note_on,241,0,2,,,,,,,,,1,,,,81,0
65406,note_on,0,0,3,,,,,,,,,2,,,,64,0
65406,note_on,241,0,3,,,,,,,,,2,,,,69,0
65408,note_on,0,0,13,,,,,,,,,12,,,,52,112
65408,control_change,0,0,13,,,,,,,,,12,11,59,,,
65408,note_on,48,0,13,,,,,,,,,12,,,,49,0
65410,note_on,0,0,4,,,,,,,,,3,,,,57,0
65410,note_on,241,0,4,,,,,,,,,3,,,,52,0
65412,note_on,0,0,14,,,,,,,,,13,,,,52,112
65412,control_change,0,0,14,,,,,,,,,13,11,59,,,
65412,note_on,48,0,14,,,,,,,,,13,,,,49,0
65414,control_change,0,0,15,,,,,,,,,14,11,59,,,
65414,note_on,48,0,15,,,,,,,,,14,,,,37,0
65414,note_on,0,0,15,,,,,,,,,14,,,,40,112
65448,control_change,46,0,1,,,,,,,,,0,11,60,,,
65448,control_change,48,0,11,,,,,,,,,10,11,60,,,
65450,control_change,287,0,5,,,,,,,,,4,11,68,,,
65451,control_change,287,0,6,,,,,,,,,5,11,68,,,
65451,control_change,46,0,2,,,,,,,,,1,11,60,,,
65451,control_change,48,0,12,,,,,,,,,11,11,60,,,
65452,control_change,46,0,3,,,,,,,,,2,11,60,,,
65456,control_change,46,0,4,,,,,,,,,3,11,63,,,
65456,control_change,48,0,13,,,,,,,,,12,11,60,,,
65460,control_change,48,0,14,,,,,,,,,13,11,60,,,
65462,control_change,48,0,15,,,,,,,,,14,11,60,,,
65496,control_change,48,0,11,,,,,,,,,10,11,61,,,
65499,control_change,48,0,12,,,,,,,,,11,11,61,,,
65504,control_change,48,0,13,,,,,,,,,12,11,61,,,
65508,control_change,48,0,14,,,,,,,,,13,11,61,,,
65510,control_change,48,0,15,,,,,,,,,14,11,61,,,
65510,note_on,14,0,11,,,,,,,,,10,,,,64,0
65513,note_on,14,0,12,,,,,,,,,11,,,,64,0
65513,note_on,63,0,5,,,,,,,,,4,,,,64,0
65514,note_on,63,0,6,,,,,,,,,5,,,,64,0
65518,note_on,14,0,13,,,,,,,,,12,,,,52,0
65520,note_on,10,0,11,,,,,,,,,10,,,,69,112
65520,set_tempo,120,1,0,,,,,,254237,,,,,,,,
65521,note_on,0,0,1,,,,,,,,,0,,,,85,116
65521,note_on,73,0,1,,,,,,,,,0,,,,88,116
65522,note_on,14,0,14,,,,,,,,,13,,,,52,0
65523,note_on,10,0,5,,,,,,,,,4,,,,64,115
65523,note_on,10,0,12,,,,,,,,,11,,,,69,112
65524,note_on,0,0,2,,,,,,,,,1,,,,73,115
65524,note_on,73,0,2,,,,,,,,,1,,,,81,115
65524,note_on,10,0,6,,,,,,,,,5,,,,64,115
65524,note_on,14,0,15,,,,,,,,,14,,,,40,0
65525,note_on,73,0,3,,,,,,,,,2,,,,69,116
65525,note_on,0,0,3,,,,,,,,,2,,,,73,116
65528,note_on,10,0,13,,,,,,,,,12,,,,57,112
65529,note_on,0,0,4,,,,,,,,,3,,,,61,115
65529,note_on,73,0,4,,,,,,,,,3,,,,57,115
65532,note_on,10,0,14,,,,,,,,,13,,,,57,112
65534,note_on,10,0,15,,,,,,,,,14,,,,45,112
65544,control_change,24,0,11,,,,,,,,,10,11,62,,,
65547,control_change,24,0,12,,,,,,,,,11,11,62,,,
65552,control_change,24,0,13,,,,,,,,,12,11,62,,,
65556,control_change,24,0,14,,,,,,,,,13,11,62,,,
65558,control_change,24,0,15,,,,,,,,,14,11,62,,,
65592,control_change,48,0,11,,,,,,,,,10,11,63,,,
65595,control_change,48,0,12,,,,,,,,,11,11,63,,,
65600,control_change,48,0,13,,,,,,,,,12,11,63,,,
65604,control_change,48,0,14,,,,,,,,,13,11,63,,,
65606,control_change,48,0,15,,,,,,,,,14,11,63,,,
65640,set_tempo,120,1,0,,,,,,263158,,,,,,,,
65640,control_change,48,0,11,,,,,,,,,10,11,64,,,
65643,control_change,48,0,12,,,,,,,,,11,11,64,,,
65648,control_change,48,0,13,,,,,,,,,12,11,64,,,
65652,control_change,48,0,14,,,,,,,,,13,11,64,,,
65654,control_change,48,0,15,,,,,,,,,14,11,64,,,
65688,control_change,48,0,11,,,,,,,,,10,11,65,,,
65691,control_change,48,0,12,,,,,,,,,11,11,65,,,
65696,control_change,48,0,13,,,,,,,,,12,11,65,,,
65700,control_change,48,0,14,,,,,,,,,13,11,65,,,
65702,control_change,48,0,15,,,,,,,,,14,11,65,,,
65736,control_change,48,0,11,,,,,,,,,10,11,66,,,
65736,control_change,215,0,1,,,,,,,,,0,11,61,,,
65738,control_change,215,0,5,,,,,,,,,4,11,69,,,
65739,control_change,215,0,6,,,,,,,,,5,11,69,,,
65739,control_change,48,0,12,,,,,,,,,11,11,66,,,
65739,control_change,215,0,2,,,,,,,,,1,11,61,,,
65740,control_change,215,0,3,,,,,,,,,2,11,61,,,
65744,control_change,48,0,13,,,,,,,,,12,11,66,,,
65744,control_change,215,0,4,,,,,,,,,3,11,64,,,
65748,control_change,48,0,14,,,,,,,,,13,11,66,,,
65750,control_change,48,0,15,,,,,,,,,14,11,66,,,
65760,note_on,24,0,11,,,,,,,,,10,,,,69,0
65760,note_on,0,0,11,,,,,,,,,10,,,,73,112
65760,set_tempo,120,1,0,,,,,,288462,,,,,,,,
65762,note_on,0,0,1,,,,,,,,,0,,,,88,0
65762,note_on,26,0,1,,,,,,,,,0,,,,85,0
65763,note_on,0,0,12,,,,,,,,,11,,,,73,112
65763,note_on,24,0,12,,,,,,,,,11,,,,69,0
65765,note_on,0,0,2,,,,,,,,,1,,,,81,0
65765,note_on,26,0,2,,,,,,,,,1,,,,73,0
65766,note_on,26,0,3,,,,,,,,,2,,,,73,0
65766,note_on,0,0,3,,,,,,,,,2,,,,69,0
65768,note_on,24,0,13,,,,,,,,,12,,,,57,0
65768,note_on,0,0,13,,,,,,,,,12,,,,61,112
65770,note_on,26,0,4,,,,,,,,,3,,,,61,0
65770,note_on,0,0,4,,,,,,,,,3,,,,57,0
65772,note_on,0,0,14,,,,,,,,,13,,,,61,112
65772,note_on,24,0,14,,,,,,,,,13,,,,57,0
65774,note_on,24,0,15,,,,,,,,,14,,,,45,0
65774,note_on,0,0,15,,,,,,,,,14,,,,49,112
65784,control_change,24,0,11,,,,,,,,,10,11,67,,,
65787,control_change,24,0,12,,,,,,,,,11,11,67,,,
65792,control_change,24,0,13,,,,,,,,,12,11,67,,,
65796,control_change,24,0,14,,,,,,,,,13,11,67,,,
65798,control_change,24,0,15,,,,,,,,,14,11,67,,,
65832,control_change,48,0,11,,,,,,,,,10,11,68,,,
65835,control_change,48,0,12,,,,,,,,,11,11,68,,,
65840,control_change,48,0,13,,,,,,,,,12,11,68,,,
65844,control_change,48,0,14,,,,,,,,,13,11,68,,,
65846,control_change,48,0,15,,,,,,,,,14,11,68,,,
65870,note_on,38,0,11,,,,,,,,,10,,,,73,0
65873,note_on,135,0,5,,,,,,,,,4,,,,64,0
65873,note_on,38,0,12,,,,,,,,,11,,,,73,0
65874,note_on,135,0,6,,,,,,,,,5,,,,64,0
65878,note_on,38,0,13,,,,,,,,,12,,,,61,0
65880,set_tempo,120,1,0,,,,,,254237,,,,,,,,
65880,note_on,0,0,11,,,,,,,,,10,,,,76,112
65880,control_change,10,0,11,,,,,,,,,10,11,69,,,
65881,note_on,119,0,1,,,,,,,,,0,,,,88,116
65881,note_on,0,0,1,,,,,,,,,0,,,,85,116
65882,note_on,38,0,14,,,,,,,,,13,,,,61,0
65883,note_on,0,0,12,,,,,,,,,11,,,,76,112
65883,control_change,10,0,12,,,,,,,,,11,11,69,,,
65883,note_on,10,0,5,,,,,,,,,4,,,,64,115
65884,note_on,38,0,15,,,,,,,,,14,,,,49,0
65884,note_on,10,0,6,,,,,,,,,5,,,,64,115
65884,note_on,119,0,2,,,,,,,,,1,,,,81,115
65884,note_on,0,0,2,,,,,,,,,1,,,,73,115
65885,note_on,0,0,3,,,,,,,,,2,,,,69,116
65885,note_on,119,0,3,,,,,,,,,2,,,,73,116
65888,note_on,10,0,13,,,,,,,,,12,,,,64,112
65888,control_change,0,0,13,,,,,,,,,12,11,69,,,
65889,note_on,119,0,4,,,,,,,,,3,,,,57,115
65889,note_on,0,0,4,,,,,,,,,3,,,,61,115
65892,control_change,0,0,14,,,,,,,,,13,11,69,,,
65892,note_on,10,0,14,,,,,,,,,13,,,,64,112
65894,control_change,10,0,15,,,,,,,,,14,11,69,,,
65894,note_on,0,0,15,,,,,,,,,14,,,,52,112
65928,control_change,48,0,11,,,,,,,,,10,11,70,,,
65931,control_change,48,0,12,,,,,,,,,11,11,70,,,
65936,control_change,48,0,13,,,,,,,,,12,11,70,,,
65940,control_change,48,0,14,,,,,,,,,13,11,70,,,
65942,control_change,48,0,15,,,,,,,,,14,11,70,,,
65976,control_change,48,0,11,,,,,,,,,10,11,71,,,
65979,control_change,48,0,12,,,,,,,,,11,11,71,,,
65984,control_change,48,0,13,,,,,,,,,12,11,71,,,
65988,control_change,48,0,14,,,,,,,,,13,11,71,,,
65990,control_change,48,0,15,,,,,,,,,14,11,71,,,
66000,set_tempo,120,1,0,,,,,,263158,,,,,,,,
66024,control_change,48,0,11,,,,,,,,,10,11,72,,,
66024,control_change,143,0,1,,,,,,,,,0,11,61,,,
66026,control_change,143,0,5,,,,,,,,,4,11,70,,,
66027,control_change,143,0,6,,,,,,,,,5,11,70,,,
66027,control_change,48,0,12,,,,,,,,,11,11,72,,,
66027,control_change,143,0,2,,,,,,,,,1,11,61,,,
66028,control_change,143,0,3,,,,,,,,,2,11,61,,,
66032,control_change,143,0,4,,,,,,,,,3,11,65,,,
66032,control_change,48,0,13,,,,,,,,,12,11,72,,,
66036,control_change,48,0,14,,,,,,,,,13,11,72,,,
66038,control_change,48,0,15,,,,,,,,,14,11,72,,,
66072,control_change,48,0,11,,,,,,,,,10,11,72,,,
66075,control_change,48,0,12,,,,,,,,,11,11,72,,,
66080,control_change,48,0,13,,,,,,,,,12,11,72,,,
66084,control_change,48,0,14,,,,,,,,,13,11,72,,,
66086,control_change,48,0,15,,,,,,,,,14,11,72,,,
66120,note_on,48,0,11,,,,,,,,,10,,,,76,0
66120,control_change,0,0,11,,,,,,,,,10,11,73,,,
66120,note_on,0,0,11,,,,,,,,,10,,,,81,112
66120,set_tempo,120,1,0,,,,,,288462,,,,,,,,
66122,note_on,0,0,1,,,,,,,,,0,,,,88,0
66122,note_on,98,0,1,,,,,,,,,0,,,,85,0
66123,note_on,0,0,12,,,,,,,,,11,,,,81,112
66123,note_on,48,0,12,,,,,,,,,11,,,,76,0
66123,control_change,0,0,12,,,,,,,,,11,11,73,,,
66125,note_on,98,0,2,,,,,,,,,1,,,,73,0
66125,note_on,0,0,2,,,,,,,,,1,,,,81,0
66126,note_on,98,0,3,,,,,,,,,2,,,,69,0
66126,note_on,0,0,3,,,,,,,,,2,,,,73,0
66128,control_change,0,0,13,,,,,,,,,12,11,73,,,
66128,note_on,48,0,13,,,,,,,,,12,,,,64,0
66128,note_on,0,0,13,,,,,,,,,12,,,,69,112
66130,note_on,98,0,4,,,,,,,,,3,,,,61,0
66130,note_on,0,0,4,,,,,,,,,3,,,,57,0
66132,note_on,0,0,14,,,,,,,,,13,,,,69,112
66132,control_change,0,0,14,,,,,,,,,13,11,73,,,
66132,note_on,48,0,14,,,,,,,,,13,,,,64,0
66134,note_on,48,0,15,,,,,,,,,14,,,,52,0
66134,control_change,0,0,15,,,,,,,,,14,11,73,,,
66134,note_on,0,0,15,,,,,,,,,14,,,,57,112
66230,note_on,110,0,11,,,,,,,,,10,,,,81,0
66233,note_on,207,0,5,,,,,,,,,4,,,,64,0
66233,note_on,110,0,12,,,,,,,,,11,,,,81,0
66234,note_on,207,0,6,,,,,,,,,5,,,,64,0
66238,note_on,110,0,13,,,,,,,,,12,,,,69,0
66240,set_tempo,120,1,0,,,,,,254237,,,,,,,,
66240,control_change,10,0,11,,,,,,,,,10,11,73,,,
66240,note_on,0,0,11,,,,,,,,,10,,,,76,112
66241,note_on,119,0,1,,,,,,,,,0,,,,85,116
66241,note_on,0,0,1,,,,,,,,,0,,,,88,116
66242,note_on,110,0,14,,,,,,,,,13,,,,69,0
66243,note_on,10,0,12,,,,,,,,,11,,,,76,112
66243,note_on,10,0,5,,,,,,,,,4,,,,64,115
66243,control_change,0,0,12,,,,,,,,,11,11,73,,,
66244,note_on,10,0,6,,,,,,,,,5,,,,64,115
66244,note_on,0,0,2,,,,,,,,,1,,,,81,115
66244,note_on,119,0,2,,,,,,,,,1,,,,73,115
66244,note_on,110,0,15,,,,,,,,,14,,,,57,0
66245,note_on,119,0,3,,,,,,,,,2,,,,69,116
66245,note_on,0,0,3,,,,,,,,,2,,,,73,116
66248,control_change,0,0,13,,,,,,,,,12,11,73,,,
66248,note_on,10,0,13,,,,,,,,,12,,,,64,112
66249,note_on,119,0,4,,,,,,,,,3,,,,61,115
66249,note_on,0,0,4,,,,,,,,,3,,,,57,115
66252,control_change,0,0,14,,,,,,,,,13,11,73,,,
66252,note_on,10,0,14,,,,,,,,,13,,,,64,112
66254,note_on,10,0,15,,,,,,,,,14,,,,52,112
66254,control_change,0,0,15,,,,,,,,,14,11,73,,,
66312,control_change,71,0,1,,,,,,,,,0,11,62,,,
66314,control_change,71,0,5,,,,,,,,,4,11,71,,,
66315,control_change,71,0,2,,,,,,,,,1,11,62,,,
66315,control_change,71,0,6,,,,,,,,,5,11,71,,,
66316,control_change,71,0,3,,,,,,,,,2,11,62,,,
66320,control_change,71,0,4,,,,,,,,,3,11,66,,,
66320,control_change,80,0,11,,,,,,,,,10,11,72,,,
66323,control_change,80,0,12,,,,,,,,,11,11,72,,,
66328,control_change,80,0,13,,,,,,,,,12,11,72,,,
66332,control_change,80,0,14,,,,,,,,,13,11,72,,,
66334,control_change,80,0,15,,,,,,,,,14,11,72,,,
66360,set_tempo,120,1,0,,,,,,263158,,,,,,,,
66400,control_change,80,0,11,,,,,,,,,10,11,72,,,
66403,control_change,80,0,12,,,,,,,,,11,11,72,,,
66408,control_change,80,0,13,,,,,,,,,12,11,72,,,
66412,control_change,80,0,14,,,,,,,,,13,11,72,,,
66414,control_change,80,0,15,,,,,,,,,14,11,72,,,
66480,set_tempo,120,1,0,,,,,,288462,,,,,,,,
66480,note_on,80,0,11,,,,,,,,,10,,,,76,0
66480,control_change,0,0,11,,,,,,,,,10,11,71,,,
66480,note_on,0,0,11,,,,,,,,,10,,,,73,112
66482,note_on,170,0,1,,,,,,,,,0,,,,88,0
66482,note_on,0,0,1,,,,,,,,,0,,,,85,0
66483,note_on,0,0,12,,,,,,,,,11,,,,73,112
66483,control_change,0,0,12,,,,,,,,,11,11,71,,,
66483,note_on,80,0,12,,,,,,,,,11,,,,76,0
66485,note_on,0,0,2,,,,,,,,,1,,,,73,0
66485,note_on,170,0,2,,,,,,,,,1,,,,81,0
66486,note_on,0,0,3,,,,,,,,,2,,,,69,0
66486,note_on,170,0,3,,,,,,,,,2,,,,73,0
66488,note_on,0,0,13,,,,,,,,,12,,,,61,112
66488,control_change,0,0,13,,,,,,,,,12,11,71,,,
66488,note_on,80,0,13,,,,,,,,,12,,,,64,0
66490,note_on,0,0,4,,,,,,,,,3,,,,61,0
66490,note_on,170,0,4,,,,,,,,,3,,,,57,0
66492,note_on,80,0,14,,,,,,,,,13,,,,64,0
66492,control_change,0,0,14,,,,,,,,,13,11,71,,,
66492,note_on,0,0,14,,,,,,,,,13,,,,61,112
66494,note_on,80,0,15,,,,,,,,,14,,,,52,0
66494,note_on,0,0,15,,,,,,,,,14,,,,49,112
66494,control_change,0,0,15,,,,,,,,,14,11,71,,,
66560,control_change,80,0,11,,,,,,,,,10,11,70,,,
66563,control_change,80,0,12,,,,,,,,,11,11,70,,,
66568,control_change,80,0,13,,,,,,,,,12,11,70,,,
66572,control_change,80,0,14,,,,,,,,,13,11,70,,,
66574,control_change,80,0,15,,,,,,,,,14,11,70,,,
66590,note_on,30,0,11,,,,,,,,,10,,,,73,0
66593,note_on,30,0,12,,,,,,,,,11,,,,73,0
66593,note_on,279,0,5,,,,,,,,,4,,,,64,0
66594,note_on,279,0,6,,,,,,,,,5,,,,64,0
66598,note_on,30,0,13,,,,,,,,,12,,,,61,0
66600,set_tempo,120,1,0,,,,,,254237,,,,,,,,
66600,control_change,118,0,1,,,,,,,,,0,11,63,,,
66600,note_on,10,0,11,,,,,,,,,10,,,,69,112
66601,note_on,1,0,1,,,,,,,,,0,,,,88,101
66601,note_on,0,0,1,,,,,,,,,0,,,,85,101
66602,note_on,30,0,14,,,,,,,,,13,,,,61,0
66602,control_change,9,0,5,,,,,,,,,4,11,72,,,
66603,control_change,118,0,2,,,,,,,,,1,11,63,,,
66603,note_on,1,0,5,,,,,,,,,4,,,,64,100
66603,control_change,9,0,6,,,,,,,,,5,11,72,,,
66603,note_on,10,0,12,,,,,,,,,11,,,,69,112
66604,note_on,1,0,2,,,,,,,,,1,,,,73,100
66604,note_on,30,0,15,,,,,,,,,14,,,,49,0
66604,note_on,0,0,2,,,,,,,,,1,,,,76,100
66604,control_change,118,0,3,,,,,,,,,2,11,63,,,
66604,note_on,1,0,6,,,,,,,,,5,,,,64,100
66605,note_on,1,0,3,,,,,,,,,2,,,,73,101
66605,note_on,0,0,3,,,,,,,,,2,,,,69,101
66608,note_on,10,0,13,,,,,,,,,12,,,,57,112
66608,control_change,118,0,4,,,,,,,,,3,11,67,,,
66609,note_on,0,0,4,,,,,,,,,3,,,,57,100
66609,note_on,1,0,4,,,,,,,,,3,,,,61,100
66612,note_on,10,0,14,,,,,,,,,13,,,,57,112
66614,note_on,10,0,15,,,,,,,,,14,,,,45,112
66631,note_on,30,0,1,,,,,,,,,0,,,,85,0
66631,note_on,0,0,1,,,,,,,,,0,,,,88,0
66634,note_on,0,0,2,,,,,,,,,1,,,,73,0
66634,note_on,30,0,2,,,,,,,,,1,,,,76,0
66640,control_change,40,0,11,,,,,,,,,10,11,69,,,
66643,control_change,40,0,12,,,,,,,,,11,11,69,,,
66648,control_change,40,0,13,,,,,,,,,12,11,69,,,
66652,control_change,40,0,14,,,,,,,,,13,11,69,,,
66654,control_change,40,0,15,,,,,,,,,14,11,69,,,
66661,note_on,30,0,1,,,,,,,,,0,,,,88,101
66661,note_on,0,0,1,,,,,,,,,0,,,,85,101
66664,note_on,0,0,2,,,,,,,,,1,,,,76,100
66664,note_on,30,0,2,,,,,,,,,1,,,,73,100
66691,note_on,0,0,1,,,,,,,,,0,,,,88,0
66691,note_on,30,0,1,,,,,,,,,0,,,,85,0
66694,note_on,30,0,2,,,,,,,,,1,,,,76,0
66694,note_on,0,0,2,,,,,,,,,1,,,,73,0
66720,control_change,80,0,11,,,,,,,,,10,11,68,,,
66720,set_tempo,120,1,0,,,,,,263158,,,,,,,,
66721,note_on,0,0,1,,,,,,,,,0,,,,89,101
66721,note_on,30,0,1,,,,,,,,,0,,,,86,101
66723,control_change,80,0,12,,,,,,,,,11,11,68,,,
66724,note_on,0,0,2,,,,,,,,,1,,,,74,100
66724,note_on,30,0,2,,,,,,,,,1,,,,77,100
66728,control_change,80,0,13,,,,,,,,,12,11,68,,,
66732,control_change,80,0,14,,,,,,,,,13,11,68,,,
66734,control_change,80,0,15,,,,,,,,,14,11,68,,,
66781,note_on,0,0,1,,,,,,,,,0,,,,85,101
66781,note_on,60,0,1,,,,,,,,,0,,,,89,0
66781,note_on,0,0,1,,,,,,,,,0,,,,88,101
66781,note_on,0,0,1,,,,,,,,,0,,,,86,0
66784,note_on,0,0,2,,,,,,,,,1,,,,77,0
66784,note_on,60,0,2,,,,,,,,,1,,,,74,0
66784,note_on,0,0,2,,,,,,,,,1,,,,73,100
66784,note_on,0,0,2,,,,,,,,,1,,,,76,100
66800,control_change,80,0,11,,,,,,,,,10,11,67,,,
66803,control_change,80,0,12,,,,,,,,,11,11,67,,,
66808,control_change,80,0,13,,,,,,,,,12,11,67,,,
66812,control_change,80,0,14,,,,,,,,,13,11,67,,,
66814,control_change,80,0,15,,,,,,,,,14,11,67,,,
66840,note_on,40,0,11,,,,,,,,,10,,,,69,0
66840,note_on,0,0,11,,,,,,,,,10,,,,64,112
66840,set_tempo,120,1,0,,,,,,288462,,,,,,,,
66841,note_on,0,0,1,,,,,,,,,0,,,,89,101
66841,note_on,0,0,1,,,,,,,,,0,,,,86,101
66841,note_on,0,0,1,,,,,,,,,0,,,,88,0
66841,note_on,60,0,1,,,,,,,,,0,,,,85,0
66843,note_on,0,0,12,,,,,,,,,11,,,,64,112
66843,note_on,40,0,12,,,,,,,,,11,,,,69,0
66844,note_on,0,0,2,,,,,,,,,1,,,,76,0
66844,note_on,0,0,2,,,,,,,,,1,,,,77,100
66844,note_on,0,0,2,,,,,,,,,1,,,,74,100
66844,note_on,60,0,2,,,,,,,,,1,,,,73,0
66848,note_on,40,0,13,,,,,,,,,12,,,,57,0
66848,note_on,0,0,13,,,,,,,,,12,,,,52,112
66852,note_on,40,0,14,,,,,,,,,13,,,,57,0
66852,note_on,0,0,14,,,,,,,,,13,,,,52,112
66854,note_on,40,0,15,,,,,,,,,14,,,,45,0
66854,note_on,0,0,15,,,,,,,,,14,,,,40,112
66880,control_change,40,0,11,,,,,,,,,10,11,66,,,
66883,control_change,40,0,12,,,,,,,,,11,11,66,,,
66888,control_change,40,0,13,,,,,,,,,12,11,66,,,
66888,control_change,47,0,1,,,,,,,,,0,11,64,,,
66890,control_change,287,0,5,,,,,,,,,4,11,73,,,
66891,control_change,287,0,6,,,,,,,,,5,11,73,,,
66891,control_change,47,0,2,,,,,,,,,1,11,64,,,
66892,control_change,40,0,14,,,,,,,,,13,11,66,,,
66892,control_change,287,0,3,,,,,,,,,2,11,64,,,
66894,control_change,40,0,15,,,,,,,,,14,11,66,,,
66896,control_change,287,0,4,,,,,,,,,3,11,68,,,
66901,note_on,13,0,1,,,,,,,,,0,,,,89,0
66901,note_on,0,0,1,,,,,,,,,0,,,,86,0
66901,note_on,0,0,1,,,,,,,,,0,,,,85,101
66901,note_on,0,0,1,,,,,,,,,0,,,,88,101
66904,note_on,0,0,2,,,,,,,,,1,,,,76,100
66904,note_on,13,0,2,,,,,,,,,1,,,,77,0
66904,note_on,0,0,2,,,,,,,,,1,,,,74,0
66904,note_on,0,0,2,,,,,,,,,1,,,,73,100
66950,note_on,70,0,11,,,,,,,,,10,,,,64,0
66953,note_on,63,0,5,,,,,,,,,4,,,,64,0
66953,note_on,70,0,12,,,,,,,,,11,,,,64,0
66954,note_on,63,0,6,,,,,,,,,5,,,,64,0
66958,note_on,70,0,13,,,,,,,,,12,,,,52,0
66960,note_on,0,0,11,,,,,,,,,10,,,,61,112
66960,control_change,10,0,11,,,,,,,,,10,11,65,,,
66960,set_tempo,120,1,0,,,,,,254237,,,,,,,,
66961,note_on,60,0,1,,,,,,,,,0,,,,88,0
66961,note_on,0,0,1,,,,,,,,,0,,,,85,0
66961,note_on,0,0,1,,,,,,,,,0,,,,85,101
66961,note_on,0,0,1,,,,,,,,,0,,,,88,101
66962,note_on,70,0,14,,,,,,,,,13,,,,52,0
66963,note_on,0,0,12,,,,,,,,,11,,,,61,112
66963,control_change,10,0,12,,,,,,,,,11,11,65,,,
66963,note_on,10,0,5,,,,,,,,,4,,,,57,100
66964,note_on,10,0,6,,,,,,,,,5,,,,57,100
66964,note_on,70,0,15,,,,,,,,,14,,,,40,0
66964,note_on,0,0,2,,,,,,,,,1,,,,81,100
66964,note_on,60,0,2,,,,,,,,,1,,,,76,0
66964,note_on,0,0,2,,,,,,,,,1,,,,73,0
66964,note_on,0,0,2,,,,,,,,,1,,,,69,100
66965,note_on,73,0,3,,,,,,,,,2,,,,69,0
66965,note_on,0,0,3,,,,,,,,,2,,,,73,0
66965,note_on,0,0,3,,,,,,,,,2,,,,73,101
66965,note_on,0,0,3,,,,,,,,,2,,,,76,101
66968,control_change,10,0,13,,,,,,,,,12,11,65,,,
66968,note_on,0,0,13,,,,,,,,,12,,,,61,112
66969,note_on,73,0,4,,,,,,,,,3,,,,57,0
66969,note_on,0,0,4,,,,,,,,,3,,,,61,0
66969,note_on,0,0,4,,,,,,,,,3,,,,61,100
66969,note_on,0,0,4,,,,,,,,,3,,,,64,100
66972,control_change,0,0,14,,,,,,,,,13,11,65,,,
66972,note_on,10,0,14,,,,,,,,,13,,,,49,112
66974,control_change,10,0,15,,,,,,,,,14,11,65,,,
66974,note_on,0,0,15,,,,,,,,,14,,,,37,112
66995,note_on,30,0,3,,,,,,,,,2,,,,76,0
66995,note_on,0,0,3,,,,,,,,,2,,,,73,0
66999,note_on,0,0,4,,,,,,,,,3,,,,61,0
66999,note_on,30,0,4,,,,,,,,,3,,,,64,0
67021,note_on,60,0,1,,,,,,,,,0,,,,88,0
67021,note_on,0,0,1,,,,,,,,,0,,,,85,0
67024,note_on,0,0,2,,,,,,,,,1,,,,69,0
67024,note_on,60,0,2,,,,,,,,,1,,,,81,0
67025,note_on,30,0,3,,,,,,,,,2,,,,76,101
67025,note_on,0,0,3,,,,,,,,,2,,,,73,101
67029,note_on,30,0,4,,,,,,,,,3,,,,61,100
67029,note_on,0,0,4,,,,,,,,,3,,,,64,100
67040,control_change,80,0,11,,,,,,,,,10,11,64,,,
67043,control_change,80,0,12,,,,,,,,,11,11,64,,,
67048,control_change,80,0,13,,,,,,,,,12,11,64,,,
67052,control_change,80,0,14,,,,,,,,,13,11,64,,,
67054,control_change,80,0,15,,,,,,,,,14,11,64,,,
67055,note_on,0,0,3,,,,,,,,,2,,,,76,0
67055,note_on,30,0,3,,,,,,,,,2,,,,73,0
67059,note_on,0,0,4,,,,,,,,,3,,,,61,0
67059,note_on,30,0,4,,,,,,,,,3,,,,64,0
67073,note_on,110,0,5,,,,,,,,,4,,,,57,0
67074,note_on,110,0,6,,,,,,,,,5,,,,57,0
67080,set_tempo,120,1,0,,,,,,263158,,,,,,,,
67081,note_on,0,0,1,,,,,,,,,0,,,,85,101
67081,note_on,60,0,1,,,,,,,,,0,,,,88,101
67083,note_on,10,0,5,,,,,,,,,4,,,,57,100
67084,note_on,0,0,2,,,,,,,,,1,,,,81,100
67084,note_on,60,0,2,,,,,,,,,1,,,,69,100
67084,note_on,10,0,6,,,,,,,,,5,,,,57,100
67085,note_on,30,0,3,,,,,,,,,2,,,,74,101
67085,note_on,0,0,3,,,,,,,,,2,,,,77,101
67089,note_on,30,0,4,,,,,,,,,3,,,,62,100
67089,note_on,0,0,4,,,,,,,,,3,,,,65,100
67120,control_change,80,0,11,,,,,,,,,10,11,63,,,
67123,control_change,80,0,12,,,,,,,,,11,11,63,,,
67128,control_change,80,0,13,,,,,,,,,12,11,63,,,
67132,control_change,80,0,14,,,,,,,,,13,11,63,,,
67134,control_change,80,0,15,,,,,,,,,14,11,63,,,
67141,note_on,0,0,1,,,,,,,,,0,,,,88,0
67141,note_on,60,0,1,,,,,,,,,0,,,,85,0
67144,note_on,0,0,2,,,,,,,,,1,,,,69,0
67144,note_on,60,0,2,,,,,,,,,1,,,,81,0
67145,note_on,60,0,3,,,,,,,,,2,,,,77,0
67145,note_on,0,0,3,,,,,,,,,2,,,,74,0
67145,note_on,0,0,3,,,,,,,,,2,,,,73,101
67145,note_on,0,0,3,,,,,,,,,2,,,,76,101
67149,note_on,60,0,4,,,,,,,,,3,,,,65,0
67149,note_on,0,0,4,,,,,,,,,3,,,,62,0
67149,note_on,0,0,4,,,,,,,,,3,,,,61,100
67149,note_on,0,0,4,,,,,,,,,3,,,,64,100
67176,control_change,35,0,1,,,,,,,,,0,11,64,,,
67178,control_change,95,0,5,,,,,,,,,4,11,74,,,
67179,control_change,35,0,2,,,,,,,,,1,11,64,,,
67179,control_change,95,0,6,,,,,,,,,5,11,74,,,
67180,control_change,35,0,3,,,,,,,,,2,11,64,,,
67184,control_change,35,0,4,,,,,,,,,3,11,69,,,
67193,note_on,15,0,5,,,,,,,,,4,,,,57,0
67194,note_on,15,0,6,,,,,,,,,5,,,,57,0
67200,note_on,80,0,11,,,,,,,,,10,,,,61,0
67200,set_tempo,120,1,0,,,,,,288462,,,,,,,,
67200,control_change,0,0,11,,,,,,,,,10,11,62,,,
67200,note_on,0,0,11,,,,,,,,,10,,,,57,112
67201,note_on,0,0,1,,,,,,,,,0,,,,85,101
67201,note_on,25,0,1,,,,,,,,,0,,,,88,101
67203,note_on,10,0,5,,,,,,,,,4,,,,57,100
67203,note_on,80,0,12,,,,,,,,,11,,,,61,0
67203,control_change,0,0,12,,,,,,,,,11,11,62,,,
67203,note_on,0,0,12,,,,,,,,,11,,,,57,112
67204,note_on,10,0,6,,,,,,,,,5,,,,57,100
67204,note_on,25,0,2,,,,,,,,,1,,,,81,100
67204,note_on,0,0,2,,,,,,,,,1,,,,69,100
67205,note_on,0,0,3,,,,,,,,,2,,,,74,101
67205,note_on,0,0,3,,,,,,,,,2,,,,77,101
67205,note_on,25,0,3,,,,,,,,,2,,,,76,0
67205,note_on,0,0,3,,,,,,,,,2,,,,73,0
67208,control_change,0,0,13,,,,,,,,,12,11,62,,,
67208,note_on,0,0,13,,,,,,,,,12,,,,57,112
67208,note_on,80,0,13,,,,,,,,,12,,,,61,0
67209,note_on,0,0,4,,,,,,,,,3,,,,65,100
67209,note_on,0,0,4,,,,,,,,,3,,,,62,100
67209,note_on,0,0,4,,,,,,,,,3,,,,61,0
67209,note_on,25,0,4,,,,,,,,,3,,,,64,0
67212,note_on,80,0,14,,,,,,,,,13,,,,49,0
67212,control_change,0,0,14,,,,,,,,,13,11,62,,,
67212,note_on,0,0,14,,,,,,,,,13,,,,45,112
67214,note_on,80,0,15,,,,,,,,,14,,,,37,0
67214,note_on,0,0,15,,,,,,,,,14,,,,33,112
67214,control_change,0,0,15,,,,,,,,,14,11,62,,,
67216,control_change,16,0,11,,,,,,,,,10,11,62,,,
67219,control_change,16,0,12,,,,,,,,,11,11,62,,,
67224,control_change,16,0,13,,,,,,,,,12,11,62,,,
67228,control_change,16,0,14,,,,,,,,,13,11,62,,,
67230,control_change,16,0,15,,,,,,,,,14,11,62,,,
67261,note_on,60,0,1,,,,,,,,,0,,,,85,0
67261,note_on,0,0,1,,,,,,,,,0,,,,88,0
67264,note_on,60,0,2,,,,,,,,,1,,,,69,0
67264,note_on,0,0,2,,,,,,,,,1,,,,81,0
67265,note_on,0,0,3,,,,,,,,,2,,,,73,101
67265,note_on,0,0,3,,,,,,,,,2,,,,76,101
67265,note_on,0,0,3,,,,,,,,,2,,,,74,0
67265,note_on,60,0,3,,,,,,,,,2,,,,77,0
67269,note_on,60,0,4,,,,,,,,,3,,,,65,0
67269,note_on,0,0,4,,,,,,,,,3,,,,64,100
67269,note_on,0,0,4,,,,,,,,,3,,,,62,0
67269,note_on,0,0,4,,,,,,,,,3,,,,61,100
67310,note_on,94,0,11,,,,,,,,,10,,,,57,0
67313,note_on,110,0,5,,,,,,,,,4,,,,57,0
67313,note_on,94,0,12,,,,,,,,,11,,,,57,0
67314,note_on,110,0,6,,,,,,,,,5,,,,57,0
67318,note_on,94,0,13,,,,,,,,,12,,,,57,0
67319,control_change,9,0,11,,,,,,,,,10,11,63,,,
67320,set_tempo,120,1,0,,,,,,254237,,,,,,,,
67320,note_on,1,0,11,,,,,,,,,10,,,,62,112
67321,note_on,60,0,1,,,,,,,,,0,,,,89,101
67321,note_on,0,0,1,,,,,,,,,0,,,,86,101
67322,note_on,94,0,14,,,,,,,,,13,,,,45,0
67322,control_change,9,0,12,,,,,,,,,11,11,63,,,
67323,note_on,1,0,12,,,,,,,,,11,,,,62,112
67323,note_on,10,0,5,,,,,,,,,4,,,,57,100
67324,note_on,94,0,15,,,,,,,,,14,,,,33,0
67324,note_on,0,0,2,,,,,,,,,1,,,,81,100
67324,note_on,10,0,6,,,,,,,,,5,,,,57,100
67324,note_on,60,0,2,,,,,,,,,1,,,,77,100
67325,note_on,0,0,3,,,,,,,,,2,,,,76,0
67325,note_on,0,0,3,,,,,,,,,2,,,,74,101
67325,note_on,0,0,3,,,,,,,,,2,,,,77,101
67325,note_on,60,0,3,,,,,,,,,2,,,,73,0
67327,control_change,9,0,13,,,,,,,,,12,11,63,,,
67328,note_on,1,0,13,,,,,,,,,12,,,,50,112
67329,note_on,0,0,4,,,,,,,,,3,,,,61,0
67329,note_on,0,0,4,,,,,,,,,3,,,,62,100
67329,note_on,0,0,4,,,,,,,,,3,,,,65,100
67329,note_on,60,0,4,,,,,,,,,3,,,,64,0
67331,control_change,9,0,14,,,,,,,,,13,11,63,,,
67332,note_on,1,0,14,,,,,,,,,13,,,,50,112
67333,control_change,9,0,15,,,,,,,,,14,11,63,,,
67334,note_on,1,0,15,,,,,,,,,14,,,,38,112
67422,control_change,102,0,11,,,,,,,,,10,11,64,,,
67425,control_change,102,0,12,,,,,,,,,11,11,64,,,
67430,control_change,102,0,13,,,,,,,,,12,11,64,,,
67434,control_change,102,0,14,,,,,,,,,13,11,64,,,
67436,control_change,102,0,15,,,,,,,,,14,11,64,,,
67440,set_tempo,120,1,0,,,,,,263158,,,,,,,,
67464,control_change,143,0,1,,,,,,,,,0,11,65,,,
67466,control_change,143,0,5,,,,,,,,,4,11,75,,,
67467,control_change,143,0,2,,,,,,,,,1,11,65,,,
67467,control_change,143,0,6,,,,,,,,,5,11,75,,,
67468,control_change,143,0,3,,,,,,,,,2,11,65,,,
67472,control_change,143,0,4,,,,,,,,,3,11,70,,,
67525,control_change,103,0,11,,,,,,,,,10,11,65,,,
67528,control_change,103,0,12,,,,,,,,,11,11,65,,,
67533,control_change,103,0,13,,,,,,,,,12,11,65,,,
67537,control_change,103,0,14,,,,,,,,,13,11,65,,,
67539,control_change,103,0,15,,,,,,,,,14,11,65,,,
67560,set_tempo,120,1,0,,,,,,288462,,,,,,,,
67560,note_on,0,0,11,,,,,,,,,10,,,,65,112
67560,note_on,35,0,11,,,,,,,,,10,,,,62,0
67562,note_on,98,0,1,,,,,,,,,0,,,,86,0
67562,note_on,0,0,1,,,,,,,,,0,,,,89,0
67563,note_on,35,0,12,,,,,,,,,11,,,,62,0
67563,note_on,0,0,12,,,,,,,,,11,,,,65,112
67565,note_on,98,0,2,,,,,,,,,1,,,,81,0
67565,note_on,0,0,2,,,,,,,,,1,,,,77,0
67566,note_on,0,0,3,,,,,,,,,2,,,,77,0
67566,note_on,98,0,3,,,,,,,,,2,,,,74,0
67568,note_on,0,0,13,,,,,,,,,12,,,,53,112
67568,note_on,35,0,13,,,,,,,,,12,,,,50,0
67570,note_on,98,0,4,,,,,,,,,3,,,,65,0
67570,note_on,0,0,4,,,,,,,,,3,,,,62,0
67572,note_on,0,0,14,,,,,,,,,13,,,,53,112
67572,note_on,35,0,14,,,,,,,,,13,,,,50,0
67574,note_on,0,0,15,,,,,,,,,14,,,,41,112
67574,note_on,35,0,15,,,,,,,,,14,,,,38,0
67628,control_change,68,0,11,,,,,,,,,10,11,66,,,
67631,control_change,68,0,12,,,,,,,,,11,11,66,,,
67636,control_change,68,0,13,,,,,,,,,12,11,66,,,
67640,control_change,68,0,14,,,,,,,,,13,11,66,,,
67642,control_change,68,0,15,,,,,,,,,14,11,66,,,
67670,note_on,42,0,11,,,,,,,,,10,,,,65,0
67673,note_on,42,0,12,,,,,,,,,11,,,,65,0
67673,note_on,207,0,5,,,,,,,,,4,,,,57,0
67674,note_on,207,0,6,,,,,,,,,5,,,,57,0
67678,note_on,42,0,13,,,,,,,,,12,,,,53,0
67680,set_tempo,120,1,0,,,,,,254237,,,,,,,,
67680,note_on,10,0,11,,,,,,,,,10,,,,69,112
67681,note_on,0,0,1,,,,,,,,,0,,,,86,101
67681,note_on,119,0,1,,,,,,,,,0,,,,89,101
67682,note_on,42,0,14,,,,,,,,,13,,,,53,0
67683,note_on,10,0,12,,,,,,,,,11,,,,69,112
67683,note_on,10,0,5,,,,,,,,,4,,,,65,100
67684,note_on,119,0,2,,,,,,,,,1,,,,77,100
67684,note_on,0,0,2,,,,,,,,,1,,,,81,100
67684,note_on,10,0,6,,,,,,,,,5,,,,62,100
67684,note_on,42,0,15,,,,,,,,,14,,,,41,0
67685,note_on,119,0,3,,,,,,,,,2,,,,69,101
67685,note_on,0,0,3,,,,,,,,,2,,,,74,101
67688,note_on,10,0,13,,,,,,,,,12,,,,57,112
67689,note_on,0,0,4,,,,,,,,,3,,,,57,100
67689,note_on,119,0,4,,,,,,,,,3,,,,65,100
67692,note_on,10,0,14,,,,,,,,,13,,,,57,112
67694,note_on,10,0,15,,,,,,,,,14,,,,45,112
67730,control_change,50,0,11,,,,,,,,,10,11,67,,,
67733,control_change,50,0,12,,,,,,,,,11,11,67,,,
67738,control_change,50,0,13,,,,,,,,,12,11,67,,,
67742,control_change,50,0,14,,,,,,,,,13,11,67,,,
67744,control_change,50,0,15,,,,,,,,,14,11,67,,,
67752,control_change,71,0,1,,,,,,,,,0,11,66,,,
67754,control_change,71,0,5,,,,,,,,,4,11,76,,,
67755,control_change,71,0,2,,,,,,,,,1,11,66,,,
67755,control_change,71,0,6,,,,,,,,,5,11,76,,,
67756,control_change,71,0,3,,,,,,,,,2,11,66,,,
67760,control_change,71,0,4,,,,,,,,,3,11,71,,,
67800,set_tempo,120,1,0,,,,,,263158,,,,,,,,
67833,control_change,103,0,11,,,,,,,,,10,11,68,,,
67836,control_change,103,0,12,,,,,,,,,11,11,68,,,
67841,control_change,103,0,13,,,,,,,,,12,11,68,,,
67845,control_change,103,0,14,,,,,,,,,13,11,68,,,
67847,control_change,103,0,15,,,,,,,,,14,11,68,,,
67920,note_on,87,0,11,,,,,,,,,10,,,,69,0
67920,note_on,0,0,11,,,,,,,,,10,,,,74,112
67920,set_tempo,120,1,0,,,,,,288462,,,,,,,,
67922,note_on,0,0,1,,,,,,,,,0,,,,89,0
67922,note_on,170,0,1,,,,,,,,,0,,,,86,0
67923,note_on,87,0,12,,,,,,,,,11,,,,69,0
67923,note_on,0,0,12,,,,,,,,,11,,,,74,112
67925,note_on,0,0,2,,,,,,,,,1,,,,77,0
67925,note_on,170,0,2,,,,,,,,,1,,,,81,0
67926,note_on,0,0,3,,,,,,,,,2,,,,69,0
67926,note_on,170,0,3,,,,,,,,,2,,,,74,0
67928,note_on,87,0,13,,,,,,,,,12,,,,57,0
67928,note_on,0,0,13,,,,,,,,,12,,,,62,112
67930,note_on,0,0,4,,,,,,,,,3,,,,65,0
67930,note_on,170,0,4,,,,,,,,,3,,,,57,0
67932,note_on,87,0,14,,,,,,,,,13,,,,57,0
67932,note_on,0,0,14,,,,,,,,,13,,,,62,112
67934,note_on,87,0,15,,,,,,,,,14,,,,45,0
67934,note_on,0,0,15,,,,,,,,,14,,,,50,112
67936,control_change,16,0,11,,,,,,,,,10,11,69,,,
67939,control_change,16,0,12,,,,,,,,,11,11,69,,,
67944,control_change,16,0,13,,,,,,,,,12,11,69,,,
67948,control_change,16,0,14,,,,,,,,,13,11,69,,,
67950,control_change,16,0,15,,,,,,,,,14,11,69,,,
68030,note_on,94,0,11,,,,,,,,,10,,,,74,0
68033,note_on,94,0,12,,,,,,,,,11,,,,74,0
68033,note_on,279,0,5,,,,,,,,,4,,,,65,0
68034,note_on,279,0,6,,,,,,,,,5,,,,62,0
68038,note_on,94,0,13,,,,,,,,,12,,,,62,0
68039,control_change,9,0,11,,,,,,,,,10,11,70,,,
68040,note_on,1,0,11,,,,,,,,,10,,,,77,112
68040,control_change,118,0,1,,,,,,,,,0,11,67,,,
68040,set_tempo,120,1,0,,,,,,254237,,,,,,,,
68041,note_on,1,0,1,,,,,,,,,0,,,,89,101
68041,note_on,0,0,1,,,,,,,,,0,,,,86,101
68042,control_change,9,0,5,,,,,,,,,4,11,77,,,
68042,note_on,94,0,14,,,,,,,,,13,,,,62,0
68042,control_change,9,0,12,,,,,,,,,11,11,70,,,
68043,note_on,1,0,12,,,,,,,,,11,,,,77,112
68043,control_change,9,0,6,,,,,,,,,5,11,77,,,
68043,control_change,118,0,2,,,,,,,,,1,11,67,,,
68043,note_on,1,0,5,,,,,,,,,4,,,,65,100
68044,control_change,118,0,3,,,,,,,,,2,11,67,,,
68044,note_on,0,0,2,,,,,,,,,1,,,,77,100
68044,note_on,1,0,6,,,,,,,,,5,,,,62,100
68044,note_on,94,0,15,,,,,,,,,14,,,,50,0
68044,note_on,1,0,2,,,,,,,,,1,,,,81,100
68045,note_on,0,0,3,,,,,,,,,2,,,,74,101
68045,note_on,1,0,3,,,,,,,,,2,,,,69,101
68047,control_change,9,0,13,,,,,,,,,12,11,70,,,
68048,control_change,118,0,4,,,,,,,,,3,11,72,,,
68048,note_on,1,0,13,,,,,,,,,12,,,,65,112
68049,note_on,1,0,4,,,,,,,,,3,,,,65,100
68049,note_on,0,0,4,,,,,,,,,3,,,,57,100
68051,control_change,9,0,14,,,,,,,,,13,11,70,,,
68052,note_on,1,0,14,,,,,,,,,13,,,,65,112
68053,control_change,9,0,15,,,,,,,,,14,11,70,,,
68054,note_on,1,0,15,,,,,,,,,14,,,,53,112
68142,control_change,102,0,11,,,,,,,,,10,11,71,,,
68145,control_change,102,0,12,,,,,,,,,11,11,71,,,
68150,control_change,102,0,13,,,,,,,,,12,11,71,,,
68154,control_change,102,0,14,,,,,,,,,13,11,71,,,
68156,control_change,102,0,15,,,,,,,,,14,11,71,,,
68160,set_tempo,120,1,0,,,,,,263158,,,,,,,,
68245,control_change,103,0,11,,,,,,,,,10,11,72,,,
68248,control_change,103,0,12,,,,,,,,,11,11,72,,,
68253,control_change,103,0,13,,,,,,,,,12,11,72,,,
68257,control_change,103,0,14,,,,,,,,,13,11,72,,,
68259,control_change,103,0,15,,,,,,,,,14,11,72,,,
68280,note_on,0,0,11,,,,,,,,,10,,,,81,112
68280,set_tempo,120,1,0,,,,,,288462,,,,,,,,
68280,note_on,35,0,11,,,,,,,,,10,,,,77,0
68282,note_on,0,0,1,,,,,,,,,0,,,,89,0
68282,note_on,241,0,1,,,,,,,,,0,,,,86,0
68283,note_on,35,0,12,,,,,,,,,11,,,,77,0
68283,note_on,0,0,12,,,,,,,,,11,,,,81,112
68285,note_on,0,0,2,,,,,,,,,1,,,,81,0
68285,note_on,241,0,2,,,,,,,,,1,,,,77,0
68286,note_on,0,0,3,,,,,,,,,2,,,,69,0
68286,note_on,241,0,3,,,,,,,,,2,,,,74,0
68288,note_on,35,0,13,,,,,,,,,12,,,,65,0
68288,note_on,0,0,13,,,,,,,,,12,,,,69,112
68290,note_on,0,0,4,,,,,,,,,3,,,,65,0
68290,note_on,241,0,4,,,,,,,,,3,,,,57,0
68292,note_on,0,0,14,,,,,,,,,13,,,,69,112
68292,note_on,35,0,14,,,,,,,,,13,,,,65,0
68294,note_on,0,0,15,,,,,,,,,14,,,,57,112
68294,note_on,35,0,15,,,,,,,,,14,,,,53,0
68328,control_change,46,0,1,,,,,,,,,0,11,67,,,
68330,control_change,287,0,5,,,,,,,,,4,11,78,,,
68331,control_change,287,0,6,,,,,,,,,5,11,78,,,
68331,control_change,46,0,2,,,,,,,,,1,11,67,,,
68332,control_change,46,0,3,,,,,,,,,2,11,67,,,
68336,control_change,46,0,4,,,,,,,,,3,11,73,,,
68347,control_change,67,0,11,,,,,,,,,10,11,72,,,
68350,control_change,67,0,12,,,,,,,,,11,11,72,,,
68355,control_change,67,0,13,,,,,,,,,12,11,72,,,
68359,control_change,67,0,14,,,,,,,,,13,11,72,,,
68361,control_change,67,0,15,,,,,,,,,14,11,72,,,
68390,note_on,43,0,11,,,,,,,,,10,,,,81,0
68393,note_on,43,0,12,,,,,,,,,11,,,,81,0
68393,note_on,63,0,5,,,,,,,,,4,,,,65,0
68394,note_on,63,0,6,,,,,,,,,5,,,,62,0
68398,note_on,43,0,13,,,,,,,,,12,,,,69,0
68400,note_on,10,0,11,,,,,,,,,10,,,,77,112
68400,set_tempo,120,1,0,,,,,,254237,,,,,,,,
68401,note_on,0,0,1,,,,,,,,,0,,,,86,101
68401,note_on,73,0,1,,,,,,,,,0,,,,89,101
68402,note_on,43,0,14,,,,,,,,,13,,,,69,0
68403,note_on,10,0,12,,,,,,,,,11,,,,77,112
68403,note_on,10,0,5,,,,,,,,,4,,,,65,100
68404,note_on,43,0,15,,,,,,,,,14,,,,57,0
68404,note_on,73,0,2,,,,,,,,,1,,,,81,100
68404,note_on,0,0,2,,,,,,,,,1,,,,77,100
68404,note_on,10,0,6,,,,,,,,,5,,,,62,100
68405,note_on,0,0,3,,,,,,,,,2,,,,69,101
68405,note_on,73,0,3,,,,,,,,,2,,,,74,101
68408,note_on,10,0,13,,,,,,,,,12,,,,65,112
68409,note_on,0,0,4,,,,,,,,,3,,,,57,100
68409,note_on,73,0,4,,,,,,,,,3,,,,65,100
68412,note_on,10,0,14,,,,,,,,,13,,,,65,112
68414,note_on,10,0,15,,,,,,,,,14,,,,53,112
68450,control_change,50,0,11,,,,,,,,,10,11,73,,,
68453,control_change,50,0,12,,,,,,,,,11,11,73,,,
68458,control_change,50,0,13,,,,,,,,,12,11,73,,,
68462,control_change,50,0,14,,,,,,,,,13,11,73,,,
68464,control_change,50,0,15,,,,,,,,,14,11,73,,,
68520,set_tempo,120,1,0,,,,,,263158,,,,,,,,
68553,control_change,103,0,11,,,,,,,,,10,11,74,,,
68556,control_change,103,0,12,,,,,,,,,11,11,74,,,
68561,control_change,103,0,13,,,,,,,,,12,11,74,,,
68565,control_change,103,0,14,,,,,,,,,13,11,74,,,
68567,control_change,103,0,15,,,,,,,,,14,11,74,,,
68616,control_change,215,0,1,,,,,,,,,0,11,68,,,
68618,control_change,215,0,5,,,,,,,,,4,11,79,,,
68619,control_change,215,0,2,,,,,,,,,1,11,68,,,
68619,control_change,215,0,6,,,,,,,,,5,11,79,,,
68620,control_change,215,0,3,,,,,,,,,2,11,68,,,
68624,control_change,215,0,4,,,,,,,,,3,11,74,,,
68640,set_tempo,120,1,0,,,,,,288462,,,,,,,,
68640,note_on,87,0,11,,,,,,,,,10,,,,77,0
68640,note_on,0,0,11,,,,,,,,,10,,,,74,112
68642,note_on,26,0,1,,,,,,,,,0,,,,86,0
68642,note_on,0,0,1,,,,,,,,,0,,,,89,0
68643,note_on,87,0,12,,,,,,,,,11,,,,77,0
68643,note_on,0,0,12,,,,,,,,,11,,,,74,112
68645,note_on,0,0,2,,,,,,,,,1,,,,81,0
68645,note_on,26,0,2,,,,,,,,,1,,,,77,0
68646,note_on,0,0,3,,,,,,,,,2,,,,74,0
68646,note_on,26,0,3,,,,,,,,,2,,,,69,0
68648,note_on,0,0,13,,,,,,,,,12,,,,62,112
68648,note_on,87,0,13,,,,,,,,,12,,,,65,0
68650,note_on,0,0,4,,,,,,,,,3,,,,65,0
68650,note_on,26,0,4,,,,,,,,,3,,,,57,0
68652,note_on,87,0,14,,,,,,,,,13,,,,65,0
68652,note_on,0,0,14,,,,,,,,,13,,,,62,112
68654,note_on,0,0,15,,,,,,,,,14,,,,50,112
68654,note_on,87,0,15,,,,,,,,,14,,,,53,0
68656,control_change,16,0,11,,,,,,,,,10,11,75,,,
68659,control_change,16,0,12,,,,,,,,,11,11,75,,,
68664,control_change,16,0,13,,,,,,,,,12,11,75,,,
68668,control_change,16,0,14,,,,,,,,,13,11,75,,,
68670,control_change,16,0,15,,,,,,,,,14,11,75,,,
68750,note_on,94,0,11,,,,,,,,,10,,,,74,0
68753,note_on,135,0,5,,,,,,,,,4,,,,65,0
68753,note_on,94,0,12,,,,,,,,,11,,,,74,0
68754,note_on,135,0,6,,,,,,,,,5,,,,62,0
68758,note_on,94,0,13,,,,,,,,,12,,,,62,0
68759,control_change,9,0,11,,,,,,,,,10,11,76,,,
68760,note_on,1,0,11,,,,,,,,,10,,,,69,112
68760,set_tempo,120,1,0,,,,,,254237,,,,,,,,
68761,note_on,0,0,1,,,,,,,,,0,,,,89,101
68761,note_on,119,0,1,,,,,,,,,0,,,,86,101
68762,note_on,94,0,14,,,,,,,,,13,,,,62,0
68762,control_change,9,0,12,,,,,,,,,11,11,76,,,
68763,note_on,1,0,12,,,,,,,,,11,,,,69,112
68763,note_on,10,0,5,,,,,,,,,4,,,,65,100
68764,note_on,0,0,2,,,,,,,,,1,,,,81,100
68764,note_on,10,0,6,,,,,,,,,5,,,,62,100
68764,note_on,94,0,15,,,,,,,,,14,,,,50,0
68764,note_on,119,0,2,,,,,,,,,1,,,,77,100
68765,note_on,119,0,3,,,,,,,,,2,,,,74,101
68765,note_on,0,0,3,,,,,,,,,2,,,,69,101
68767,control_change,9,0,13,,,,,,,,,12,11,76,,,
68768,note_on,1,0,13,,,,,,,,,12,,,,57,112
68769,note_on,119,0,4,,,,,,,,,3,,,,65,100
68769,note_on,0,0,4,,,,,,,,,3,,,,57,100
68771,control_change,9,0,14,,,,,,,,,13,11,76,,,
68772,note_on,1,0,14,,,,,,,,,13,,,,57,112
68773,control_change,9,0,15,,,,,,,,,14,11,76,,,
68774,note_on,1,0,15,,,,,,,,,14,,,,45,112
68795,note_on,34,0,1,,,,,,,,,0,,,,89,0
68795,note_on,0,0,1,,,,,,,,,0,,,,86,0
68798,note_on,34,0,2,,,,,,,,,1,,,,77,0
68799,note_on,34,0,3,,,,,,,,,2,,,,74,0
68821,note_on,26,0,1,,,,,,,,,0,,,,89,101
68821,note_on,0,0,1,,,,,,,,,0,,,,86,101
68824,note_on,26,0,2,,,,,,,,,1,,,,77,100
68825,note_on,26,0,3,,,,,,,,,2,,,,74,101
68855,note_on,34,0,1,,,,,,,,,0,,,,86,0
68855,note_on,0,0,1,,,,,,,,,0,,,,89,0
68858,note_on,34,0,2,,,,,,,,,1,,,,77,0
68859,note_on,34,0,3,,,,,,,,,2,,,,74,0
68862,control_change,102,0,11,,,,,,,,,10,11,77,,,
68865,control_change,102,0,12,,,,,,,,,11,11,77,,,
68870,control_change,102,0,13,,,,,,,,,12,11,77,,,
68874,control_change,102,0,14,,,,,,,,,13,11,77,,,
68876,control_change,102,0,15,,,,,,,,,14,11,77,,,
68880,set_tempo,120,1,0,,,,,,263158,,,,,,,,
68881,note_on,26,0,1,,,,,,,,,0,,,,91,101
68881,note_on,0,0,1,,,,,,,,,0,,,,88,101
68884,note_on,26,0,2,,,,,,,,,1,,,,79,100
68885,note_on,26,0,3,,,,,,,,,2,,,,76,101
68904,control_change,23,0,1,,,,,,,,,0,11,69,,,
68906,control_change,143,0,5,,,,,,,,,4,11,80,,,
68907,control_change,23,0,2,,,,,,,,,1,11,69,,,
68907,control_change,143,0,6,,,,,,,,,5,11,80,,,
68908,control_change,23,0,3,,,,,,,,,2,11,69,,,
68912,control_change,143,0,4,,,,,,,,,3,11,75,,,
68941,note_on,0,0,1,,,,,,,,,0,,,,91,0
68941,note_on,0,0,1,,,,,,,,,0,,,,86,101
68941,note_on,37,0,1,,,,,,,,,0,,,,88,0
68941,note_on,0,0,1,,,,,,,,,0,,,,89,101
68944,note_on,0,0,2,,,,,,,,,1,,,,77,100
68944,note_on,37,0,2,,,,,,,,,1,,,,79,0
68945,note_on,0,0,3,,,,,,,,,2,,,,74,101
68945,note_on,37,0,3,,,,,,,,,2,,,,76,0
68964,control_change,102,0,11,,,,,,,,,10,11,78,,,
68967,control_change,102,0,12,,,,,,,,,11,11,78,,,
68972,control_change,102,0,13,,,,,,,,,12,11,78,,,
68976,control_change,102,0,14,,,,,,,,,13,11,78,,,
68978,control_change,102,0,15,,,,,,,,,14,11,78,,,
69000,note_on,36,0,11,,,,,,,,,10,,,,69,0
69000,set_tempo,120,1,0,,,,,,288462,,,,,,,,
69000,note_on,0,0,11,,,,,,,,,10,,,,65,112
69001,note_on,0,0,1,,,,,,,,,0,,,,91,101
69001,note_on,0,0,1,,,,,,,,,0,,,,88,101
69001,note_on,0,0,1,,,,,,,,,0,,,,86,0
69001,note_on,60,0,1,,,,,,,,,0,,,,89,0
69003,note_on,36,0,12,,,,,,,,,11,,,,69,0
69003,note_on,0,0,12,,,,,,,,,11,,,,65,112
69004,note_on,60,0,2,,,,,,,,,1,,,,77,0
69004,note_on,0,0,2,,,,,,,,,1,,,,79,100
69005,note_on,60,0,3,,,,,,,,,2,,,,74,0
69005,note_on,0,0,3,,,,,,,,,2,,,,76,101
69008,note_on,36,0,13,,,,,,,,,12,,,,57,0
69008,note_on,0,0,13,,,,,,,,,12,,,,53,112
69012,note_on,0,0,14,,,,,,,,,13,,,,53,112
69012,note_on,36,0,14,,,,,,,,,13,,,,57,0
69014,note_on,0,0,15,,,,,,,,,14,,,,41,112
69014,note_on,36,0,15,,,,,,,,,14,,,,45,0
69061,note_on,0,0,1,,,,,,,,,0,,,,88,0
69061,note_on,0,0,1,,,,,,,,,0,,,,89,101
69061,note_on,60,0,1,,,,,,,,,0,,,,91,0
69061,note_on,0,0,1,,,,,,,,,0,,,,86,101
69064,note_on,60,0,2,,,,,,,,,1,,,,79,0
69064,note_on,0,0,2,,,,,,,,,1,,,,77,100
69065,note_on,60,0,3,,,,,,,,,2,,,,76,0
69065,note_on,0,0,3,,,,,,,,,2,,,,74,101
69067,control_change,67,0,11,,,,,,,,,10,11,79,,,
69070,control_change,67,0,12,,,,,,,,,11,11,79,,,
69075,control_change,67,0,13,,,,,,,,,12,11,79,,,
69079,control_change,67,0,14,,,,,,,,,13,11,79,,,
69081,control_change,67,0,15,,,,,,,,,14,11,79,,,
69110,note_on,43,0,11,,,,,,,,,10,,,,65,0
69113,note_on,207,0,5,,,,,,,,,4,,,,65,0
69113,note_on,43,0,12,,,,,,,,,11,,,,65,0
69114,note_on,207,0,6,,,,,,,,,5,,,,62,0
69118,note_on,43,0,13,,,,,,,,,12,,,,53,0
69120,set_tempo,120,1,0,,,,,,254237,,,,,,,,
69120,note_on,10,0,11,,,,,,,,,10,,,,62,112
69121,note_on,0,0,1,,,,,,,,,0,,,,89,0
69121,note_on,60,0,1,,,,,,,,,0,,,,86,0
69121,note_on,0,0,1,,,,,,,,,0,,,,89,101
69121,note_on,0,0,1,,,,,,,,,0,,,,86,101
69122,note_on,43,0,14,,,,,,,,,13,,,,53,0
69123,note_on,10,0,5,,,,,,,,,4,,,,65,100
69123,note_on,10,0,12,,,,,,,,,11,,,,62,112
69124,note_on,0,0,2,,,,,,,,,1,,,,81,0
69124,note_on,0,0,2,,,,,,,,,1,,,,77,100
69124,note_on,0,0,2,,,,,,,,,1,,,,81,100
69124,note_on,43,0,15,,,,,,,,,14,,,,41,0
69124,note_on,10,0,6,,,,,,,,,5,,,,62,100
69124,note_on,60,0,2,,,,,,,,,1,,,,77,0
69125,note_on,0,0,3,,,,,,,,,2,,,,74,101
69125,note_on,0,0,3,,,,,,,,,2,,,,77,101
69125,note_on,0,0,3,,,,,,,,,2,,,,69,0
69125,note_on,60,0,3,,,,,,,,,2,,,,74,0
69127,program_change,9,0,13,,,,,,,,50,12,,,,,
69128,note_on,1,0,13,,,,,,,,,12,,,,62,112
69129,note_on,0,0,4,,,,,,,,,3,,,,65,100
69129,note_on,0,0,4,,,,,,,,,3,,,,62,100
69129,note_on,0,0,4,,,,,,,,,3,,,,65,0
69129,note_on,217,0,4,,,,,,,,,3,,,,57,0
69132,note_on,10,0,14,,,,,,,,,13,,,,50,112
69134,note_on,10,0,15,,,,,,,,,14,,,,38,112
69159,note_on,34,0,3,,,,,,,,,2,,,,74,0
69159,note_on,0,0,3,,,,,,,,,2,,,,77,0
69163,note_on,34,0,4,,,,,,,,,3,,,,62,0
69163,note_on,0,0,4,,,,,,,,,3,,,,65,0
69170,control_change,50,0,11,,,,,,,,,10,11,80,,,
69173,control_change,50,0,12,,,,,,,,,11,11,80,,,
69178,control_change,50,0,13,,,,,,,,,12,11,80,,,
69181,note_on,60,0,1,,,,,,,,,0,,,,89,0
69181,note_on,0,0,1,,,,,,,,,0,,,,86,0
69182,control_change,50,0,14,,,,,,,,,13,11,80,,,
69184,note_on,60,0,2,,,,,,,,,1,,,,81,0
69184,note_on,0,0,2,,,,,,,,,1,,,,77,0
69184,control_change,50,0,15,,,,,,,,,14,11,80,,,
69185,note_on,26,0,3,,,,,,,,,2,,,,77,101
69185,note_on,0,0,3,,,,,,,,,2,,,,74,101
69189,note_on,26,0,4,,,,,,,,,3,,,,65,100
69189,note_on,0,0,4,,,,,,,,,3,,,,62,100
69192,control_change,11,0,1,,,,,,,,,0,11,70,,,
69194,control_change,71,0,5,,,,,,,,,4,11,81,,,
69195,control_change,11,0,2,,,,,,,,,1,11,70,,,
69195,control_change,71,0,6,,,,,,,,,5,11,81,,,
69196,control_change,11,0,3,,,,,,,,,2,11,70,,,
69200,control_change,11,0,4,,,,,,,,,3,11,76,,,
69219,note_on,0,0,3,,,,,,,,,2,,,,77,0
69219,note_on,23,0,3,,,,,,,,,2,,,,74,0
69223,note_on,0,0,4,,,,,,,,,3,,,,65,0
69223,note_on,23,0,4,,,,,,,,,3,,,,62,0
69233,note_on,39,0,5,,,,,,,,,4,,,,65,0
69234,note_on,39,0,6,,,,,,,,,5,,,,62,0
69240,set_tempo,120,1,0,,,,,,263158,,,,,,,,
69241,note_on,0,0,1,,,,,,,,,0,,,,86,101
69241,note_on,49,0,1,,,,,,,,,0,,,,89,101
69243,note_on,10,0,5,,,,,,,,,4,,,,65,100
69244,note_on,49,0,2,,,,,,,,,1,,,,81,100
69244,note_on,0,0,2,,,,,,,,,1,,,,77,100
69244,note_on,10,0,6,,,,,,,,,5,,,,62,100
69245,note_on,0,0,3,,,,,,,,,2,,,,76,101
69245,note_on,26,0,3,,,,,,,,,2,,,,79,101
69249,note_on,0,0,4,,,,,,,,,3,,,,67,100
69249,note_on,26,0,4,,,,,,,,,3,,,,64,100
69273,control_change,103,0,11,,,,,,,,,10,11,81,,,
69276,control_change,103,0,12,,,,,,,,,11,11,81,,,
69281,control_change,103,0,13,,,,,,,,,12,11,81,,,
69285,control_change,103,0,14,,,,,,,,,13,11,81,,,
69287,control_change,103,0,15,,,,,,,,,14,11,81,,,
69301,note_on,60,0,1,,,,,,,,,0,,,,86,0
69301,note_on,0,0,1,,,,,,,,,0,,,,89,0
69304,note_on,60,0,2,,,,,,,,,1,,,,77,0
69304,note_on,0,0,2,,,,,,,,,1,,,,81,0
69305,note_on,0,0,3,,,,,,,,,2,,,,77,101
69305,note_on,60,0,3,,,,,,,,,2,,,,76,0
69305,note_on,0,0,3,,,,,,,,,2,,,,79,0
69305,note_on,0,0,3,,,,,,,,,2,,,,74,101
69309,note_on,0,0,4,,,,,,,,,3,,,,64,0
69309,note_on,0,0,4,,,,,,,,,3,,,,62,100
69309,note_on,60,0,4,,,,,,,,,3,,,,67,0
69309,note_on,0,0,4,,,,,,,,,3,,,,65,100
69353,note_on,110,0,5,,,,,,,,,4,,,,65,0
69354,note_on,110,0,6,,,,,,,,,5,,,,62,0
69360,note_on,87,0,11,,,,,,,,,10,,,,62,0
69360,set_tempo,120,1,0,,,,,,288462,,,,,,,,
69360,note_on,0,0,11,,,,,,,,,10,,,,57,112
69361,note_on,0,0,1,,,,,,,,,0,,,,89,101
69361,note_on,60,0,1,,,,,,,,,0,,,,86,101
69363,note_on,87,0,12,,,,,,,,,11,,,,62,0
69363,note_on,10,0,5,,,,,,,,,4,,,,65,100
69363,note_on,0,0,12,,,,,,,,,11,,,,57,112
69364,note_on,60,0,2,,,,,,,,,1,,,,77,100
69364,note_on,10,0,6,,,,,,,,,5,,,,62,100
69364,note_on,0,0,2,,,,,,,,,1,,,,81,100
69365,note_on,60,0,3,,,,,,,,,2,,,,74,0
69365,note_on,0,0,3,,,,,,,,,2,,,,77,0
69365,note_on,0,0,3,,,,,,,,,2,,,,76,101
69365,note_on,0,0,3,,,,,,,,,2,,,,79,101
69368,note_on,87,0,13,,,,,,,,,12,,,,62,0
69368,note_on,0,0,13,,,,,,,,,12,,,,57,112
69369,note_on,60,0,4,,,,,,,,,3,,,,62,0
69369,note_on,0,0,4,,,,,,,,,3,,,,65,0
69369,note_on,0,0,4,,,,,,,,,3,,,,67,100
69369,note_on,0,0,4,,,,,,,,,3,,,,64,100
69372,note_on,0,0,14,,,,,,,,,13,,,,45,112
69372,note_on,87,0,14,,,,,,,,,13,,,,50,0
69374,note_on,0,0,15,,,,,,,,,14,,,,33,112
69374,note_on,87,0,15,,,,,,,,,14,,,,38,0
69376,control_change,16,0,11,,,,,,,,,10,11,82,,,
69379,control_change,16,0,12,,,,,,,,,11,11,82,,,
69384,control_change,16,0,13,,,,,,,,,12,11,82,,,
69388,control_change,16,0,14,,,,,,,,,13,11,82,,,
69390,control_change,16,0,15,,,,,,,,,14,11,82,,,
69421,note_on,60,0,1,,,,,,,,,0,,,,89,0
69421,note_on,0,0,1,,,,,,,,,0,,,,86,0
69424,note_on,0,0,2,,,,,,,,,1,,,,77,0
69424,note_on,60,0,2,,,,,,,,,1,,,,81,0
69425,note_on,0,0,3,,,,,,,,,2,,,,79,0
69425,note_on,0,0,3,,,,,,,,,2,,,,77,101
69425,note_on,0,0,3,,,,,,,,,2,,,,74,101
69425,note_on,60,0,3,,,,,,,,,2,,,,76,0
69429,note_on,0,0,4,,,,,,,,,3,,,,65,100
69429,note_on,0,0,4,,,,,,,,,3,,,,64,0
69429,note_on,60,0,4,,,,,,,,,3,,,,67,0
69429,note_on,0,0,4,,,,,,,,,3,,,,62,100
69470,note_on,94,0,11,,,,,,,,,10,,,,57,0
69473,note_on,110,0,5,,,,,,,,,4,,,,65,0
69473,note_on,94,0,12,,,,,,,,,11,,,,57,0
69474,note_on,110,0,6,,,,,,,,,5,,,,62,0
69478,note_on,94,0,13,,,,,,,,,12,,,,57,0
69479,control_change,9,0,11,,,,,,,,,10,11,83,,,
69480,control_change,59,0,1,,,,,,,,,0,11,70,,,
69480,note_on,1,0,11,,,,,,,,,10,,,,55,112
69480,set_tempo,120,1,0,,,,,,254237,,,,,,,,
69481,note_on,1,0,1,,,,,,,,,0,,,,86,101
69481,note_on,0,0,1,,,,,,,,,0,,,,89,101
69482,note_on,8760,0,7,,,,,,,,,6,,,,67,112
69482,note_on,94,0,14,,,,,,,,,13,,,,45,0
69482,control_change,9,0,12,,,,,,,,,11,11,83,,,
69482,control_change,9,0,5,,,,,,,,,4,11,82,,,
69482,control_change,0,0,7,,,,,,,,,6,11,82,,,
69482,note_on,0,0,7,,,,,,,,,6,,,,55,112
69483,control_change,59,0,2,,,,,,,,,1,11,70,,,
69483,note_on,1,0,5,,,,,,,,,4,,,,65,100
69483,control_change,9,0,6,,,,,,,,,5,11,82,,,
69483,note_on,1,0,12,,,,,,,,,11,,,,55,112
69484,note_on,1,0,2,,,,,,,,,1,,,,83,100
69484,note_on,0,0,2,,,,,,,,,1,,,,77,100
69484,note_on,94,0,15,,,,,,,,,14,,,,33,0
69484,control_change,59,0,3,,,,,,,,,2,11,70,,,
69484,note_on,1,0,6,,,,,,,,,5,,,,62,100
69485,note_on,1,0,3,,,,,,,,,2,,,,74,0
69485,note_on,0,0,3,,,,,,,,,2,,,,77,0
69485,note_on,0,0,3,,,,,,,,,2,,,,71,101
69485,note_on,0,0,3,,,,,,,,,2,,,,74,101
69487,control_change,9,0,13,,,,,,,,,12,11,83,,,
69488,control_change,59,0,4,,,,,,,,,3,11,77,,,
69488,note_on,1,0,13,,,,,,,,,12,,,,55,112
69489,note_on,0,0,4,,,,,,,,,3,,,,55,100
69489,note_on,0,0,4,,,,,,,,,3,,,,59,100
69489,note_on,1,0,4,,,,,,,,,3,,,,62,0
69489,note_on,0,0,4,,,,,,,,,3,,,,65,0
69491,control_change,9,0,14,,,,,,,,,13,11,83,,,
69492,note_on,1,0,14,,,,,,,,,13,,,,43,112
69493,control_change,9,0,15,,,,,,,,,14,11,83,,,
69494,note_on,1,0,15,,,,,,,,,14,,,,31,112
69495,note_on,8760,0,10,,,,,,,,,15,,,,43,85
69551,control_change,71,0,11,,,,,,,,,10,11,84,,,
69554,control_change,71,0,12,,,,,,,,,11,11,84,,,
69559,control_change,71,0,13,,,,,,,,,12,11,84,,,
69563,control_change,71,0,14,,,,,,,,,13,11,84,,,
69565,control_change,71,0,15,,,,,,,,,14,11,84,,,
69600,set_tempo,120,1,0,,,,,,263158,,,,,,,,
69623,control_change,72,0,11,,,,,,,,,10,11,85,,,
69626,control_change,72,0,12,,,,,,,,,11,11,85,,,
69631,control_change,72,0,13,,,,,,,,,12,11,85,,,
69635,control_change,72,0,14,,,,,,,,,13,11,85,,,
69637,control_change,72,0,15,,,,,,,,,14,11,85,,,
69695,control_change,72,0,11,,,,,,,,,10,11,86,,,
69698,control_change,72,0,12,,,,,,,,,11,11,86,,,
69703,control_change,72,0,13,,,,,,,,,12,11,86,,,
69707,control_change,72,0,14,,,,,,,,,13,11,86,,,
69709,control_change,72,0,15,,,,,,,,,14,11,86,,,
69720,note_on,0,0,11,,,,,,,,,10,,,,59,112
69720,set_tempo,120,1,0,,,,,,288462,,,,,,,,
69720,note_on,25,0,11,,,,,,,,,10,,,,55,0
69722,note_on,241,0,1,,,,,,,,,0,,,,89,0
69722,note_on,0,0,1,,,,,,,,,0,,,,86,0
69723,note_on,25,0,12,,,,,,,,,11,,,,55,0
69723,note_on,0,0,12,,,,,,,,,11,,,,59,112
69725,note_on,0,0,2,,,,,,,,,1,,,,83,0
69725,note_on,241,0,2,,,,,,,,,1,,,,77,0
69726,note_on,241,0,3,,,,,,,,,2,,,,74,0
69726,note_on,0,0,3,,,,,,,,,2,,,,71,0
69728,note_on,0,0,13,,,,,,,,,12,,,,59,112
69728,note_on,25,0,13,,,,,,,,,12,,,,55,0
69730,note_on,241,0,4,,,,,,,,,3,,,,55,0
69730,note_on,0,0,4,,,,,,,,,3,,,,59,0
69732,note_on,0,0,14,,,,,,,,,13,,,,47,112
69732,note_on,25,0,14,,,,,,,,,13,,,,43,0
69734,note_on,25,0,15,,,,,,,,,14,,,,31,0
69734,note_on,0,0,15,,,,,,,,,14,,,,35,112
69735,note_on,240,0,10,,,,,,,,,15,,,,43,0
69767,control_change,47,0,11,,,,,,,,,10,11,87,,,
69770,control_change,47,0,12,,,,,,,,,11,11,87,,,
69775,control_change,47,0,13,,,,,,,,,12,11,87,,,
69779,control_change,47,0,14,,,,,,,,,13,11,87,,,
69781,control_change,47,0,15,,,,,,,,,14,11,87,,,
69830,note_on,63,0,11,,,,,,,,,10,,,,59,0
69832,note_on,350,0,7,,,,,,,,,6,,,,55,0
69832,note_on,0,0,7,,,,,,,,,6,,,,67,0
69833,note_on,63,0,12,,,,,,,,,11,,,,59,0
69833,note_on,350,0,5,,,,,,,,,4,,,,65,0
69834,note_on,350,0,6,,,,,,,,,5,,,,62,0
69838,note_on,63,0,13,,,,,,,,,12,,,,59,0
69839,control_change,9,0,11,,,,,,,,,10,11,87,,,
69840,note_on,1,0,11,,,,,,,,,10,,,,62,112
69840,set_tempo,120,1,0,,,,,,254237,,,,,,,,
69841,note_on,119,0,1,,,,,,,,,0,,,,89,101
69841,note_on,0,0,1,,,,,,,,,0,,,,86,101
69842,note_on,10,0,7,,,,,,,,,6,,,,67,112
69842,control_change,9,0,12,,,,,,,,,11,11,87,,,
69842,note_on,0,0,7,,,,,,,,,6,,,,55,112
69842,note_on,63,0,14,,,,,,,,,13,,,,47,0
69843,note_on,1,0,12,,,,,,,,,11,,,,62,112
69843,note_on,10,0,5,,,,,,,,,4,,,,65,100
69844,note_on,119,0,2,,,,,,,,,1,,,,83,100
69844,note_on,0,0,2,,,,,,,,,1,,,,77,100
69844,note_on,10,0,6,,,,,,,,,5,,,,62,100
69844,note_on,63,0,15,,,,,,,,,14,,,,35,0
69845,note_on,119,0,3,,,,,,,,,2,,,,71,101
69845,note_on,0,0,3,,,,,,,,,2,,,,74,101
69847,control_change,9,0,13,,,,,,,,,12,11,87,,,
69848,note_on,1,0,13,,,,,,,,,12,,,,62,112
69849,note_on,119,0,4,,,,,,,,,3,,,,59,100
69849,note_on,0,0,4,,,,,,,,,3,,,,55,100
69851,control_change,9,0,14,,,,,,,,,13,11,87,,,
69852,note_on,1,0,14,,,,,,,,,13,,,,50,112
69853,control_change,9,0,15,,,,,,,,,14,11,87,,,
69854,note_on,1,0,15,,,,,,,,,14,,,,38,112
69855,note_on,120,0,10,,,,,,,,,15,,,,43,85
69911,control_change,71,0,11,,,,,,,,,10,11,88,,,
69914,control_change,71,0,12,,,,,,,,,11,11,88,,,
69919,control_change,71,0,13,,,,,,,,,12,11,88,,,
69923,control_change,71,0,14,,,,,,,,,13,11,88,,,
69925,control_change,71,0,15,,,,,,,,,14,11,88,,,
69960,set_tempo,120,1,0,,,,,,263158,,,,,,,,
69983,control_change,72,0,11,,,,,,,,,10,11,89,,,
69986,control_change,72,0,12,,,,,,,,,11,11,89,,,
69991,control_change,72,0,13,,,,,,,,,12,11,89,,,
69995,control_change,72,0,14,,,,,,,,,13,11,89,,,
69997,control_change,72,0,15,,,,,,,,,14,11,89,,,
70055,control_change,72,0,11,,,,,,,,,10,11,90,,,
70058,control_change,72,0,12,,,,,,,,,11,11,90,,,
70063,control_change,72,0,13,,,,,,,,,12,11,90,,,
70067,control_change,72,0,14,,,,,,,,,13,11,90,,,
70069,control_change,72,0,15,,,,,,,,,14,11,90,,,
70080,set_tempo,120,1,0,,,,,,288462,,,,,,,,
70080,note_on,25,0,11,,,,,,,,,10,,,,62,0
70080,note_on,0,0,11,,,,,,,,,10,,,,67,112
70082,note_on,0,0,1,,,,,,,,,0,,,,89,0
70082,note_on,241,0,1,,,,,,,,,0,,,,86,0
70083,note_on,25,0,12,,,,,,,,,11,,,,62,0
70083,note_on,0,0,12,,,,,,,,,11,,,,67,112
70085,note_on,241,0,2,,,,,,,,,1,,,,77,0
70085,note_on,0,0,2,,,,,,,,,1,,,,83,0
70086,note_on,0,0,3,,,,,,,,,2,,,,71,0
70086,note_on,241,0,3,,,,,,,,,2,,,,74,0
70088,note_on,0,0,13,,,,,,,,,12,,,,67,112
70088,note_on,25,0,13,,,,,,,,,12,,,,62,0
70090,note_on,241,0,4,,,,,,,,,3,,,,55,0
70090,note_on,0,0,4,,,,,,,,,3,,,,59,0
70092,note_on,25,0,14,,,,,,,,,13,,,,50,0
70092,note_on,0,0,14,,,,,,,,,13,,,,55,112
70094,note_on,25,0,15,,,,,,,,,14,,,,38,0
70094,note_on,0,0,15,,,,,,,,,14,,,,43,112
70095,note_on,240,0,10,,,,,,,,,15,,,,43,0
70127,control_change,47,0,11,,,,,,,,,10,11,91,,,
70130,control_change,47,0,12,,,,,,,,,11,11,91,,,
70135,control_change,47,0,13,,,,,,,,,12,11,91,,,
70139,control_change,47,0,14,,,,,,,,,13,11,91,,,
70141,control_change,47,0,15,,,,,,,,,14,11,91,,,
70190,note_on,63,0,11,,,,,,,,,10,,,,67,0
70192,note_on,350,0,7,,,,,,,,,6,,,,55,0
70192,note_on,0,0,7,,,,,,,,,6,,,,67,0
70193,note_on,350,0,5,,,,,,,,,4,,,,65,0
70193,note_on,63,0,12,,,,,,,,,11,,,,67,0
70194,note_on,350,0,6,,,,,,,,,5,,,,62,0
70198,note_on,63,0,13,,,,,,,,,12,,,,67,0
70199,control_change,9,0,11,,,,,,,,,10,11,92,,,
70200,set_tempo,120,1,0,,,,,,254237,,,,,,,,
70200,note_on,1,0,11,,,,,,,,,10,,,,71,112
70201,note_on,119,0,1,,,,,,,,,0,,,,86,116
70201,control_change,0,0,1,,,,,,,,,0,11,86,,,
70201,note_on,0,0,1,,,,,,,,,0,,,,89,116
70202,control_change,9,0,12,,,,,,,,,11,11,92,,,
70202,note_on,63,0,14,,,,,,,,,13,,,,55,0
70202,note_on,0,0,7,,,,,,,,,6,,,,67,112
70202,note_on,10,0,7,,,,,,,,,6,,,,55,112
70203,note_on,10,0,5,,,,,,,,,4,,,,65,100
70203,note_on,1,0,12,,,,,,,,,11,,,,71,112
70203,control_change,0,0,5,,,,,,,,,4,11,92,,,
70204,note_on,10,0,6,,,,,,,,,5,,,,62,100
70204,control_change,0,0,2,,,,,,,,,1,11,86,,,
70204,note_on,0,0,2,,,,,,,,,1,,,,77,115
70204,note_on,63,0,15,,,,,,,,,14,,,,43,0
70204,control_change,0,0,6,,,,,,,,,5,11,92,,,
70204,note_on,119,0,2,,,,,,,,,1,,,,83,100
70205,control_change,119,0,3,,,,,,,,,2,11,86,,,
70205,note_on,0,0,3,,,,,,,,,2,,,,74,116
70205,note_on,0,0,3,,,,,,,,,2,,,,71,101
70207,control_change,9,0,13,,,,,,,,,12,11,92,,,
70208,note_on,1,0,13,,,,,,,,,12,,,,71,112
70209,control_change,0,0,4,,,,,,,,,3,11,87,,,
70209,note_on,0,0,4,,,,,,,,,3,,,,55,100
70209,note_on,119,0,4,,,,,,,,,3,,,,59,100
70211,control_change,9,0,14,,,,,,,,,13,11,92,,,
70212,note_on,1,0,14,,,,,,,,,13,,,,59,112
70213,control_change,9,0,15,,,,,,,,,14,11,92,,,
70214,note_on,1,0,15,,,,,,,,,14,,,,47,112
70215,note_on,120,0,10,,,,,,,,,15,,,,43,85
70235,note_on,0,0,1,,,,,,,,,0,,,,86,0
70235,note_on,34,0,1,,,,,,,,,0,,,,89,0
70238,note_on,34,0,2,,,,,,,,,1,,,,77,0
70239,note_on,34,0,3,,,,,,,,,2,,,,74,0
70261,note_on,0,0,1,,,,,,,,,0,,,,89,101
70261,note_on,26,0,1,,,,,,,,,0,,,,86,101
70264,note_on,26,0,2,,,,,,,,,1,,,,77,100
70265,note_on,26,0,3,,,,,,,,,2,,,,74,101
70271,control_change,71,0,11,,,,,,,,,10,11,93,,,
70274,control_change,71,0,12,,,,,,,,,11,11,93,,,
70279,control_change,71,0,13,,,,,,,,,12,11,93,,,
70283,control_change,71,0,14,,,,,,,,,13,11,93,,,
70285,control_change,71,0,15,,,,,,,,,14,11,93,,,
70295,note_on,34,0,1,,,,,,,,,0,,,,89,0
70295,note_on,0,0,1,,,,,,,,,0,,,,86,0
70298,note_on,34,0,2,,,,,,,,,1,,,,77,0
70299,note_on,34,0,3,,,,,,,,,2,,,,74,0
70320,set_tempo,120,1,0,,,,,,263158,,,,,,,,
70321,note_on,26,0,1,,,,,,,,,0,,,,87,101
70321,note_on,0,0,1,,,,,,,,,0,,,,91,101
70324,note_on,26,0,2,,,,,,,,,1,,,,79,100
70325,note_on,26,0,3,,,,,,,,,2,,,,75,101
70343,control_change,72,0,11,,,,,,,,,10,11,94,,,
70346,control_change,72,0,12,,,,,,,,,11,11,94,,,
70351,control_change,72,0,13,,,,,,,,,12,11,94,,,
70355,control_change,72,0,14,,,,,,,,,13,11,94,,,
70357,control_change,72,0,15,,,,,,,,,14,11,94,,,
70381,note_on,0,0,1,,,,,,,,,0,,,,89,101
70381,note_on,60,0,1,,,,,,,,,0,,,,91,0
70381,note_on,0,0,1,,,,,,,,,0,,,,87,0
70381,note_on,0,0,1,,,,,,,,,0,,,,86,101
70384,note_on,0,0,2,,,,,,,,,1,,,,77,100
70384,note_on,60,0,2,,,,,,,,,1,,,,79,0
70385,note_on,0,0,3,,,,,,,,,2,,,,74,101
70385,note_on,60,0,3,,,,,,,,,2,,,,75,0
70415,control_change,72,0,11,,,,,,,,,10,11,95,,,
70418,control_change,72,0,12,,,,,,,,,11,11,95,,,
70423,control_change,72,0,13,,,,,,,,,12,11,95,,,
70427,control_change,72,0,14,,,,,,,,,13,11,95,,,
70429,control_change,72,0,15,,,,,,,,,14,11,95,,,
70440,set_tempo,120,1,0,,,,,,288462,,,,,,,,
70440,note_on,25,0,11,,,,,,,,,10,,,,71,0
70440,note_on,0,0,11,,,,,,,,,10,,,,74,112
70441,note_on,0,0,1,,,,,,,,,0,,,,91,101
70441,note_on,0,0,1,,,,,,,,,0,,,,87,101
70441,note_on,0,0,1,,,,,,,,,0,,,,86,0
70441,note_on,60,0,1,,,,,,,,,0,,,,89,0
70443,note_on,25,0,12,,,,,,,,,11,,,,71,0
70443,note_on,0,0,12,,,,,,,,,11,,,,74,112
70444,note_on,60,0,2,,,,,,,,,1,,,,77,0
70444,note_on,0,0,2,,,,,,,,,1,,,,79,100
70445,note_on,60,0,3,,,,,,,,,2,,,,74,0
70445,note_on,0,0,3,,,,,,,,,2,,,,75,101
70448,note_on,25,0,13,,,,,,,,,12,,,,71,0
70448,note_on,0,0,13,,,,,,,,,12,,,,74,112
70452,note_on,0,0,14,,,,,,,,,13,,,,62,112
70452,note_on,25,0,14,,,,,,,,,13,,,,59,0
70454,note_on,25,0,15,,,,,,,,,14,,,,47,0
70454,note_on,0,0,15,,,,,,,,,14,,,,50,112
70455,note_on,240,0,10,,,,,,,,,15,,,,43,0
70487,control_change,47,0,11,,,,,,,,,10,11,96,,,
70490,control_change,47,0,12,,,,,,,,,11,11,96,,,
70495,control_change,47,0,13,,,,,,,,,12,11,96,,,
70499,control_change,47,0,14,,,,,,,,,13,11,96,,,
70501,note_on,0,0,1,,,,,,,,,0,,,,89,101
70501,note_on,60,0,1,,,,,,,,,0,,,,91,0
70501,control_change,47,0,15,,,,,,,,,14,11,96,,,
70501,note_on,0,0,1,,,,,,,,,0,,,,87,0
70501,note_on,0,0,1,,,,,,,,,0,,,,86,101
70504,note_on,60,0,2,,,,,,,,,1,,,,79,0
70504,note_on,0,0,2,,,,,,,,,1,,,,77,100
70505,note_on,0,0,3,,,,,,,,,2,,,,74,101
70505,note_on,60,0,3,,,,,,,,,2,,,,75,0
70550,note_on,63,0,11,,,,,,,,,10,,,,74,0
70552,note_on,350,0,7,,,,,,,,,6,,,,67,0
70552,note_on,0,0,7,,,,,,,,,6,,,,55,0
70553,note_on,350,0,5,,,,,,,,,4,,,,65,0
70553,note_on,63,0,12,,,,,,,,,11,,,,74,0
70554,note_on,350,0,6,,,,,,,,,5,,,,62,0
70558,note_on,63,0,13,,,,,,,,,12,,,,74,0
70559,control_change,9,0,11,,,,,,,,,10,11,97,,,
70560,set_tempo,120,1,0,,,,,,254237,,,,,,,,
70560,note_on,1,0,11,,,,,,,,,10,,,,79,112
70561,control_change,0,0,1,,,,,,,,,0,11,78,,,
70561,note_on,0,0,1,,,,,,,,,0,,,,89,101
70561,note_on,0,0,1,,,,,,,,,0,,,,89,0
70561,note_on,60,0,1,,,,,,,,,0,,,,86,0
70561,note_on,0,0,1,,,,,,,,,0,,,,86,101
70562,note_on,10,0,7,,,,,,,,,6,,,,67,112
70562,control_change,9,0,12,,,,,,,,,11,11,97,,,
70562,note_on,63,0,14,,,,,,,,,13,,,,62,0
70562,note_on,0,0,7,,,,,,,,,6,,,,55,112
70563,note_on,10,0,5,,,,,,,,,4,,,,65,100
70563,note_on,1,0,12,,,,,,,,,11,,,,79,112
70564,note_on,10,0,6,,,,,,,,,5,,,,62,100
70564,note_on,60,0,2,,,,,,,,,1,,,,77,0
70564,note_on,63,0,15,,,,,,,,,14,,,,50,0
70564,control_change,0,0,2,,,,,,,,,1,11,78,,,
70564,note_on,0,0,2,,,,,,,,,1,,,,83,0
70564,note_on,0,0,2,,,,,,,,,1,,,,83,100
70564,note_on,0,0,2,,,,,,,,,1,,,,77,100
70565,control_change,0,0,3,,,,,,,,,2,11,86,,,
70565,note_on,0,0,3,,,,,,,,,2,,,,71,0
70565,note_on,60,0,3,,,,,,,,,2,,,,74,0
70565,note_on,0,0,3,,,,,,,,,2,,,,74,101
70565,note_on,0,0,3,,,,,,,,,2,,,,77,101
70567,control_change,9,0,13,,,,,,,,,12,11,97,,,
70568,note_on,1,0,13,,,,,,,,,12,,,,79,112
70569,note_on,0,0,4,,,,,,,,,3,,,,62,100
70569,note_on,0,0,4,,,,,,,,,3,,,,65,100
70569,control_change,0,0,4,,,,,,,,,3,11,97,,,
70569,note_on,0,0,4,,,,,,,,,3,,,,59,0
70569,note_on,360,0,4,,,,,,,,,3,,,,55,0
70571,control_change,9,0,14,,,,,,,,,13,11,97,,,
70572,note_on,1,0,14,,,,,,,,,13,,,,67,112
70573,control_change,9,0,15,,,,,,,,,14,11,97,,,
70574,note_on,1,0,15,,,,,,,,,14,,,,55,112
70575,note_on,120,0,10,,,,,,,,,15,,,,43,85
70599,note_on,0,0,3,,,,,,,,,2,,,,74,0
70599,note_on,34,0,3,,,,,,,,,2,,,,77,0
70603,note_on,34,0,4,,,,,,,,,3,,,,65,0
70603,note_on,0,0,4,,,,,,,,,3,,,,62,0
70621,note_on,60,0,1,,,,,,,,,0,,,,86,0
70621,note_on,0,0,1,,,,,,,,,0,,,,89,0
70624,note_on,0,0,2,,,,,,,,,1,,,,83,0
70624,note_on,60,0,2,,,,,,,,,1,,,,77,0
70625,note_on,26,0,3,,,,,,,,,2,,,,74,101
70625,note_on,0,0,3,,,,,,,,,2,,,,77,101
70629,note_on,26,0,4,,,,,,,,,3,,,,65,100
70629,note_on,0,0,4,,,,,,,,,3,,,,62,100
70631,control_change,71,0,11,,,,,,,,,10,11,98,,,
70634,control_change,71,0,12,,,,,,,,,11,11,98,,,
70639,control_change,71,0,13,,,,,,,,,12,11,98,,,
70643,control_change,71,0,14,,,,,,,,,13,11,98,,,
70645,control_change,71,0,15,,,,,,,,,14,11,98,,,
70659,note_on,0,0,3,,,,,,,,,2,,,,74,0
70659,note_on,34,0,3,,,,,,,,,2,,,,77,0
70663,note_on,34,0,4,,,,,,,,,3,,,,62,0
70663,note_on,0,0,4,,,,,,,,,3,,,,65,0
70673,note_on,110,0,5,,,,,,,,,4,,,,65,0
70674,note_on,110,0,6,,,,,,,,,5,,,,62,0
70680,set_tempo,120,1,0,,,,,,263158,,,,,,,,
70681,note_on,60,0,1,,,,,,,,,0,,,,89,101
70681,note_on,0,0,1,,,,,,,,,0,,,,86,101
70683,note_on,10,0,5,,,,,,,,,4,,,,65,100
70684,note_on,10,0,6,,,,,,,,,5,,,,62,100
70684,note_on,0,0,2,,,,,,,,,1,,,,77,100
70684,note_on,60,0,2,,,,,,,,,1,,,,83,100
70685,note_on,26,0,3,,,,,,,,,2,,,,79,101
70685,note_on,0,0,3,,,,,,,,,2,,,,75,101
70689,note_on,0,0,4,,,,,,,,,3,,,,63,100
70689,note_on,26,0,4,,,,,,,,,3,,,,67,100
70703,control_change,72,0,11,,,,,,,,,10,11,99,,,
70706,control_change,72,0,12,,,,,,,,,11,11,99,,,
70711,control_change,72,0,13,,,,,,,,,12,11,99,,,
70715,control_change,72,0,14,,,,,,,,,13,11,99,,,
70717,control_change,72,0,15,,,,,,,,,14,11,99,,,
70741,note_on,0,0,1,,,,,,,,,0,,,,89,0
70741,note_on,60,0,1,,,,,,,,,0,,,,86,0
70744,note_on,60,0,2,,,,,,,,,1,,,,77,0
70744,note_on,0,0,2,,,,,,,,,1,,,,83,0
70745,note_on,0,0,3,,,,,,,,,2,,,,77,101
70745,note_on,60,0,3,,,,,,,,,2,,,,75,0
70745,note_on,0,0,3,,,,,,,,,2,,,,79,0
70745,note_on,0,0,3,,,,,,,,,2,,,,74,101
70749,note_on,60,0,4,,,,,,,,,3,,,,63,0
70749,note_on,0,0,4,,,,,,,,,3,,,,67,0
70749,note_on,0,0,4,,,,,,,,,3,,,,62,100
70749,note_on,0,0,4,,,,,,,,,3,,,,65,100
70775,control_change,72,0,11,,,,,,,,,10,11,100,,,
70778,control_change,72,0,12,,,,,,,,,11,11,100,,,
70783,control_change,72,0,13,,,,,,,,,12,11,100,,,
70787,control_change,72,0,14,,,,,,,,,13,11,100,,,
70789,control_change,72,0,15,,,,,,,,,14,11,100,,,
70793,note_on,110,0,5,,,,,,,,,4,,,,65,0
70794,note_on,110,0,6,,,,,,,,,5,,,,62,0
70800,note_on,25,0,11,,,,,,,,,10,,,,79,0
70800,note_on,0,0,11,,,,,,,,,10,,,,67,112
70800,set_tempo,120,1,0,,,,,,288462,,,,,,,,
70801,note_on,0,0,1,,,,,,,,,0,,,,89,101
70801,note_on,60,0,1,,,,,,,,,0,,,,86,101
70803,note_on,0,0,12,,,,,,,,,11,,,,67,112
70803,note_on,10,0,5,,,,,,,,,4,,,,65,100
70803,note_on,25,0,12,,,,,,,,,11,,,,79,0
70804,note_on,0,0,2,,,,,,,,,1,,,,77,100
70804,note_on,60,0,2,,,,,,,,,1,,,,83,100
70804,note_on,10,0,6,,,,,,,,,5,,,,62,100
70805,note_on,0,0,3,,,,,,,,,2,,,,75,101
70805,note_on,0,0,3,,,,,,,,,2,,,,77,0
70805,note_on,60,0,3,,,,,,,,,2,,,,74,0
70805,note_on,0,0,3,,,,,,,,,2,,,,79,101
70808,note_on,25,0,13,,,,,,,,,12,,,,79,0
70808,note_on,0,0,13,,,,,,,,,12,,,,67,112
70809,note_on,0,0,4,,,,,,,,,3,,,,62,0
70809,note_on,0,0,4,,,,,,,,,3,,,,67,100
70809,note_on,60,0,4,,,,,,,,,3,,,,65,0
70809,note_on,0,0,4,,,,,,,,,3,,,,63,100
70812,note_on,0,0,14,,,,,,,,,13,,,,55,112
70812,note_on,25,0,14,,,,,,,,,13,,,,67,0
70814,note_on,25,0,15,,,,,,,,,14,,,,55,0
70814,note_on,0,0,15,,,,,,,,,14,,,,43,112
70815,note_on,240,0,10,,,,,,,,,15,,,,43,0
70847,control_change,47,0,11,,,,,,,,,10,11,101,,,
70850,control_change,47,0,12,,,,,,,,,11,11,101,,,
70855,control_change,47,0,13,,,,,,,,,12,11,101,,,
70859,control_change,47,0,14,,,,,,,,,13,11,101,,,
70861,note_on,0,0,1,,,,,,,,,0,,,,86,0
70861,note_on,60,0,1,,,,,,,,,0,,,,89,0
70861,control_change,47,0,15,,,,,,,,,14,11,101,,,
70864,note_on,0,0,2,,,,,,,,,1,,,,83,0
70864,note_on,60,0,2,,,,,,,,,1,,,,77,0
70865,note_on,60,0,3,,,,,,,,,2,,,,75,0
70865,note_on,0,0,3,,,,,,,,,2,,,,79,0
70865,note_on,0,0,3,,,,,,,,,2,,,,77,101
70865,note_on,0,0,3,,,,,,,,,2,,,,74,101
70869,note_on,0,0,4,,,,,,,,,3,,,,62,100
70869,note_on,0,0,4,,,,,,,,,3,,,,65,100
70869,note_on,0,0,4,,,,,,,,,3,,,,67,0
70869,note_on,60,0,4,,,,,,,,,3,,,,63,0
70910,note_on,63,0,11,,,,,,,,,10,,,,67,0
70912,note_on,0,0,7,,,,,,,,,6,,,,67,0
70912,note_on,350,0,7,,,,,,,,,6,,,,55,0
70913,note_on,110,0,5,,,,,,,,,4,,,,65,0
70913,note_on,63,0,12,,,,,,,,,11,,,,67,0
70914,note_on,110,0,6,,,,,,,,,5,,,,62,0
70918,note_on,63,0,13,,,,,,,,,12,,,,67,0
70919,control_change,9,0,11,,,,,,,,,10,11,102,,,
70920,set_tempo,120,1,0,,,,,,254237,,,,,,,,
70920,note_on,1,0,11,,,,,,,,,10,,,,66,112
70921,note_on,0,0,1,,,,,,,,,0,,,,87,101
70921,control_change,60,0,1,,,,,,,,,0,11,86,,,
70921,note_on,0,0,1,,,,,,,,,0,,,,84,101
70922,note_on,10,0,7,,,,,,,,,6,,,,60,112
70922,note_on,63,0,14,,,,,,,,,13,,,,55,0
70922,note_on,0,0,7,,,,,,,,,6,,,,72,112
70922,control_change,9,0,12,,,,,,,,,11,11,102,,,
70923,note_on,1,0,12,,,,,,,,,11,,,,66,112
70923,control_change,10,0,5,,,,,,,,,4,11,102,,,
70923,note_on,0,0,5,,,,,,,,,4,,,,60,100
70924,note_on,0,0,6,,,,,,,,,5,,,,60,100
70924,control_change,10,0,6,,,,,,,,,5,11,102,,,
70924,note_on,63,0,15,,,,,,,,,14,,,,43,0
70924,control_change,0,0,2,,,,,,,,,1,11,86,,,
70924,note_on,60,0,2,,,,,,,,,1,,,,81,100
70924,note_on,0,0,2,,,,,,,,,1,,,,75,100
70925,control_change,0,0,3,,,,,,,,,2,11,86,,,
70925,note_on,60,0,3,,,,,,,,,2,,,,77,0
70925,note_on,0,0,3,,,,,,,,,2,,,,74,0
70925,note_on,0,0,3,,,,,,,,,2,,,,69,101
70925,note_on,0,0,3,,,,,,,,,2,,,,72,101
70927,note_on,0,0,8,,,,,,,,,7,,,,57,110
70927,note_on,10080,0,8,,,,,,,,,7,,,,63,110
70927,control_change,9,0,13,,,,,,,,,12,11,102,,,
70927,control_change,0,0,8,,,,,,,,,7,11,102,,,
70928,note_on,1,0,13,,,,,,,,,12,,,,66,112
70929,control_change,0,0,4,,,,,,,,,3,11,97,,,
70929,note_on,0,0,4,,,,,,,,,3,,,,63,100
70929,note_on,60,0,4,,,,,,,,,3,,,,62,0
70929,note_on,0,0,4,,,,,,,,,3,,,,65,0
70929,note_on,0,0,4,,,,,,,,,3,,,,57,100
70931,control_change,9,0,14,,,,,,,,,13,11,102,,,
70932,note_on,1,0,14,,,,,,,,,13,,,,54,112
70933,control_change,9,0,15,,,,,,,,,14,11,102,,,
70933,note_on,0,0,9,,,,,,,,,8,,,,54,110
70933,control_change,10080,0,9,,,,,,,,,8,11,102,,,
70934,note_on,1,0,15,,,,,,,,,14,,,,42,112
70935,note_on,120,0,10,,,,,,,,,15,,,,48,80
70981,note_on,60,0,1,,,,,,,,,0,,,,84,0
70981,note_on,0,0,1,,,,,,,,,0,,,,87,0
70984,note_on,0,0,2,,,,,,,,,1,,,,81,0
70984,note_on,60,0,2,,,,,,,,,1,,,,75,0
70985,note_on,0,0,3,,,,,,,,,2,,,,69,0
70985,note_on,60,0,3,,,,,,,,,2,,,,72,0
70989,note_on,0,0,4,,,,,,,,,3,,,,57,0
70989,note_on,60,0,4,,,,,,,,,3,,,,63,0
71032,note_on,0,0,7,,,,,,,,,6,,,,60,0
71032,note_on,110,0,7,,,,,,,,,6,,,,72,0
71033,note_on,110,0,5,,,,,,,,,4,,,,60,0
71034,note_on,110,0,6,,,,,,,,,5,,,,60,0
71040,set_tempo,120,1,0,,,,,,263158,,,,,,,,
71041,note_on,60,0,1,,,,,,,,,0,,,,87,101
71041,note_on,0,0,1,,,,,,,,,0,,,,84,101
71042,note_on,0,0,7,,,,,,,,,6,,,,60,112
71042,note_on,10,0,7,,,,,,,,,6,,,,72,112
71043,note_on,10,0,5,,,,,,,,,4,,,,60,100
71044,note_on,60,0,2,,,,,,,,,1,,,,81,100
71044,note_on,0,0,2,,,,,,,,,1,,,,75,100
71044,note_on,10,0,6,,,,,,,,,5,,,,60,100
71045,note_on,0,0,3,,,,,,,,,2,,,,72,101
71045,note_on,60,0,3,,,,,,,,,2,,,,69,101
71049,note_on,0,0,4,,,,,,,,,3,,,,57,100
71049,note_on,60,0,4,,,,,,,,,3,,,,63,100
71055,note_on,120,0,10,,,,,,,,,15,,,,48,0
71055,note_on,0,0,10,,,,,,,,,15,,,,48,82
71101,note_on,60,0,1,,,,,,,,,0,,,,84,0
71101,note_on,0,0,1,,,,,,,,,0,,,,87,0
71104,note_on,60,0,2,,,,,,,,,1,,,,75,0
71104,note_on,0,0,2,,,,,,,,,1,,,,81,0
71105,note_on,60,0,3,,,,,,,,,2,,,,72,0
71105,note_on,0,0,3,,,,,,,,,2,,,,69,0
71109,note_on,0,0,4,,,,,,,,,3,,,,63,0
71109,note_on,60,0,4,,,,,,,,,3,,,,57,0
71152,note_on,0,0,7,,,,,,,,,6,,,,72,0
71152,note_on,110,0,7,,,,,,,,,6,,,,60,0
71153,note_on,110,0,5,,,,,,,,,4,,,,60,0
71154,note_on,110,0,6,,,,,,,,,5,,,,60,0
71160,set_tempo,120,1,0,,,,,,288462,,,,,,,,
71160,note_on,240,0,11,,,,,,,,,10,,,,66,0
71160,note_on,0,0,11,,,,,,,,,10,,,,69,112
71161,note_on,60,0,1,,,,,,,,,0,,,,84,101
71161,note_on,0,0,1,,,,,,,,,0,,,,87,101
71162,note_on,0,0,7,,,,,,,,,6,,,,72,112
71162,note_on,10,0,7,,,,,,,,,6,,,,60,112
71163,note_on,240,0,12,,,,,,,,,11,,,,66,0
71163,note_on,0,0,12,,,,,,,,,11,,,,69,112
71163,note_on,10,0,5,,,,,,,,,4,,,,60,100
71164,note_on,60,0,2,,,,,,,,,1,,,,81,100
71164,note_on,10,0,6,,,,,,,,,5,,,,60,100
71164,note_on,0,0,2,,,,,,,,,1,,,,75,100
71165,note_on,0,0,3,,,,,,,,,2,,,,69,101
71165,note_on,60,0,3,,,,,,,,,2,,,,72,101
71168,note_on,240,0,13,,,,,,,,,12,,,,66,0
71168,note_on,0,0,13,,,,,,,,,12,,,,69,112
71169,note_on,60,0,4,,,,,,,,,3,,,,63,100
71169,note_on,0,0,4,,,,,,,,,3,,,,57,100
71172,note_on,240,0,14,,,,,,,,,13,,,,54,0
71172,note_on,0,0,14,,,,,,,,,13,,,,57,112
71174,note_on,240,0,15,,,,,,,,,14,,,,42,0
71174,note_on,0,0,15,,,,,,,,,14,,,,45,112
71175,note_on,120,0,10,,,,,,,,,15,,,,48,0
71175,note_on,0,0,10,,,,,,,,,15,,,,48,85
71221,note_on,60,0,1,,,,,,,,,0,,,,87,0
71221,note_on,0,0,1,,,,,,,,,0,,,,84,0
71224,note_on,0,0,2,,,,,,,,,1,,,,81,0
71224,note_on,60,0,2,,,,,,,,,1,,,,75,0
71225,note_on,0,0,3,,,,,,,,,2,,,,72,0
71225,note_on,60,0,3,,,,,,,,,2,,,,69,0
71229,note_on,0,0,4,,,,,,,,,3,,,,63,0
71229,note_on,60,0,4,,,,,,,,,3,,,,57,0
71270,note_on,110,0,11,,,,,,,,,10,,,,69,0
71272,note_on,0,0,7,,,,,,,,,6,,,,60,0
71272,note_on,110,0,7,,,,,,,,,6,,,,72,0
71273,note_on,110,0,5,,,,,,,,,4,,,,60,0
71273,note_on,110,0,12,,,,,,,,,11,,,,69,0
71274,note_on,110,0,6,,,,,,,,,5,,,,60,0
71277,note_on,350,0,8,,,,,,,,,7,,,,57,0
71277,note_on,0,0,8,,,,,,,,,7,,,,63,0
71278,note_on,110,0,13,,,,,,,,,12,,,,69,0
71280,set_tempo,120,1,0,,,,,,254237,,,,,,,,
71280,note_on,10,0,11,,,,,,,,,10,,,,72,112
71281,note_on,60,0,1,,,,,,,,,0,,,,87,101
71281,note_on,0,0,1,,,,,,,,,0,,,,84,101
71282,note_on,0,0,7,,,,,,,,,6,,,,60,112
71282,note_on,110,0,14,,,,,,,,,13,,,,57,0
71282,note_on,10,0,7,,,,,,,,,6,,,,72,112
71283,note_on,10,0,12,,,,,,,,,11,,,,72,112
71283,note_on,350,0,9,,,,,,,,,8,,,,54,0
71283,note_on,10,0,5,,,,,,,,,4,,,,60,100
71284,note_on,0,0,2,,,,,,,,,1,,,,81,100
71284,note_on,110,0,15,,,,,,,,,14,,,,45,0
71284,note_on,60,0,2,,,,,,,,,1,,,,75,100
71284,note_on,10,0,6,,,,,,,,,5,,,,48,100
71285,note_on,0,0,3,,,,,,,,,2,,,,69,101
71285,note_on,60,0,3,,,,,,,,,2,,,,72,101
71287,note_on,10,0,8,,,,,,,,,7,,,,57,110
71287,note_on,0,0,8,,,,,,,,,7,,,,63,110
71288,note_on,10,0,13,,,,,,,,,12,,,,72,112
71289,note_on,0,0,4,,,,,,,,,3,,,,63,100
71289,note_on,60,0,4,,,,,,,,,3,,,,57,100
71292,note_on,10,0,14,,,,,,,,,13,,,,60,112
71293,note_on,10,0,9,,,,,,,,,8,,,,54,110
71294,note_on,10,0,15,,,,,,,,,14,,,,48,112
71295,note_on,120,0,10,,,,,,,,,15,,,,48,0
71295,note_on,0,0,10,,,,,,,,,15,,,,48,88
71341,note_on,0,0,1,,,,,,,,,0,,,,87,0
71341,note_on,60,0,1,,,,,,,,,0,,,,84,0
71344,note_on,0,0,2,,,,,,,,,1,,,,75,0
71344,note_on,60,0,2,,,,,,,,,1,,,,81,0
71345,note_on,0,0,3,,,,,,,,,2,,,,72,0
71345,note_on,60,0,3,,,,,,,,,2,,,,69,0
71349,note_on,0,0,4,,,,,,,,,3,,,,57,0
71349,note_on,60,0,4,,,,,,,,,3,,,,63,0
71392,note_on,0,0,7,,,,,,,,,6,,,,72,0
71392,note_on,110,0,7,,,,,,,,,6,,,,60,0
71393,note_on,110,0,5,,,,,,,,,4,,,,60,0
71394,note_on,110,0,6,,,,,,,,,5,,,,48,0
71400,set_tempo,120,1,0,,,,,,263158,,,,,,,,
71401,note_on,60,0,1,,,,,,,,,0,,,,87,101
71401,note_on,0,0,1,,,,,,,,,0,,,,84,101
71402,note_on,10,0,7,,,,,,,,,6,,,,72,112
71402,note_on,0,0,7,,,,,,,,,6,,,,60,112
71403,note_on,10,0,5,,,,,,,,,4,,,,60,100
71404,note_on,60,0,2,,,,,,,,,1,,,,81,100
71404,note_on,10,0,6,,,,,,,,,5,,,,48,100
71404,note_on,0,0,2,,,,,,,,,1,,,,75,100
71405,note_on,0,0,3,,,,,,,,,2,,,,69,101
71405,note_on,60,0,3,,,,,,,,,2,,,,72,101
71409,note_on,60,0,4,,,,,,,,,3,,,,63,100
71409,note_on,0,0,4,,,,,,,,,3,,,,57,100
71415,note_on,120,0,10,,,,,,,,,15,,,,48,0
71415,note_on,0,0,10,,,,,,,,,15,,,,48,91
71461,note_on,0,0,1,,,,,,,,,0,,,,87,0
71461,note_on,60,0,1,,,,,,,,,0,,,,84,0
71464,note_on,0,0,2,,,,,,,,,1,,,,81,0
71464,note_on,60,0,2,,,,,,,,,1,,,,75,0
71465,note_on,0,0,3,,,,,,,,,2,,,,72,0
71465,note_on,60,0,3,,,,,,,,,2,,,,69,0
71469,note_on,60,0,4,,,,,,,,,3,,,,57,0
71469,note_on,0,0,4,,,,,,,,,3,,,,63,0
71512,note_on,110,0,7,,,,,,,,,6,,,,60,0
71512,note_on,0,0,7,,,,,,,,,6,,,,72,0
71513,note_on,110,0,5,,,,,,,,,4,,,,60,0
71514,note_on,110,0,6,,,,,,,,,5,,,,48,0
71520,note_on,240,0,11,,,,,,,,,10,,,,72,0
71520,note_on,0,0,11,,,,,,,,,10,,,,74,112
71520,set_tempo,120,1,0,,,,,,288462,,,,,,,,
71521,note_on,0,0,1,,,,,,,,,0,,,,84,101
71521,note_on,60,0,1,,,,,,,,,0,,,,87,101
71522,note_on,0,0,7,,,,,,,,,6,,,,60,112
71522,note_on,10,0,7,,,,,,,,,6,,,,72,112
71523,note_on,0,0,12,,,,,,,,,11,,,,74,112
71523,note_on,240,0,12,,,,,,,,,11,,,,72,0
71523,note_on,10,0,5,,,,,,,,,4,,,,60,100
71524,note_on,10,0,6,,,,,,,,,5,,,,48,100
71524,note_on,0,0,2,,,,,,,,,1,,,,81,100
71524,note_on,60,0,2,,,,,,,,,1,,,,75,100
71525,note_on,60,0,3,,,,,,,,,2,,,,72,101
71525,note_on,0,0,3,,,,,,,,,2,,,,69,101
71528,note_on,0,0,13,,,,,,,,,12,,,,74,112
71528,note_on,240,0,13,,,,,,,,,12,,,,72,0
71529,note_on,0,0,4,,,,,,,,,3,,,,57,100
71529,note_on,60,0,4,,,,,,,,,3,,,,63,100
71532,note_on,240,0,14,,,,,,,,,13,,,,60,0
71532,note_on,0,0,14,,,,,,,,,13,,,,62,112
71534,note_on,0,0,15,,,,,,,,,14,,,,50,112
71534,note_on,240,0,15,,,,,,,,,14,,,,48,0
71535,note_on,120,0,10,,,,,,,,,15,,,,48,0
71535,note_on,0,0,10,,,,,,,,,15,,,,48,94
71581,note_on,60,0,1,,,,,,,,,0,,,,84,0
71581,note_on,0,0,1,,,,,,,,,0,,,,87,0
71584,note_on,60,0,2,,,,,,,,,1,,,,81,0
71584,note_on,0,0,2,,,,,,,,,1,,,,75,0
71585,note_on,0,0,3,,,,,,,,,2,,,,72,0
71585,note_on,60,0,3,,,,,,,,,2,,,,69,0
71589,note_on,60,0,4,,,,,,,,,3,,,,57,0
71589,note_on,0,0,4,,,,,,,,,3,,,,63,0
71630,note_on,110,0,11,,,,,,,,,10,,,,74,0
71632,note_on,110,0,7,,,,,,,,,6,,,,60,0
71632,note_on,0,0,7,,,,,,,,,6,,,,72,0
71633,note_on,110,0,5,,,,,,,,,4,,,,60,0
71633,note_on,110,0,12,,,,,,,,,11,,,,74,0
71634,note_on,110,0,6,,,,,,,,,5,,,,48,0
71637,note_on,0,0,8,,,,,,,,,7,,,,57,0
71637,note_on,350,0,8,,,,,,,,,7,,,,63,0
71638,note_on,110,0,13,,,,,,,,,12,,,,74,0
71640,note_on,10,0,11,,,,,,,,,10,,,,75,112
71640,set_tempo,120,1,0,,,,,,254237,,,,,,,,
71641,note_on,60,0,1,,,,,,,,,0,,,,87,116
71641,note_on,0,0,1,,,,,,,,,0,,,,84,116
71641,control_change,0,0,1,,,,,,,,,0,11,93,,,
71642,note_on,0,0,7,,,,,,,,,6,,,,72,112
71642,note_on,10,0,7,,,,,,,,,6,,,,60,112
71642,note_on,110,0,14,,,,,,,,,13,,,,62,0
71643,note_on,10,0,12,,,,,,,,,11,,,,75,112
71643,note_on,350,0,9,,,,,,,,,8,,,,54,0
71643,note_on,10,0,5,,,,,,,,,4,,,,60,100
71644,note_on,0,0,2,,,,,,,,,1,,,,75,115
71644,note_on,0,0,2,,,,,,,,,1,,,,81,100
71644,control_change,60,0,2,,,,,,,,,1,11,93,,,
71644,note_on,110,0,15,,,,,,,,,14,,,,50,0
71644,note_on,10,0,6,,,,,,,,,5,,,,48,100
71645,note_on,60,0,3,,,,,,,,,2,,,,72,116
71645,control_change,0,0,3,,,,,,,,,2,11,93,,,
71645,note_on,0,0,3,,,,,,,,,2,,,,69,101
71647,note_on,10,0,8,,,,,,,,,7,,,,63,110
71647,note_on,0,0,8,,,,,,,,,7,,,,57,110
71648,note_on,10,0,13,,,,,,,,,12,,,,75,112
71649,note_on,60,0,4,,,,,,,,,3,,,,57,100
71649,note_on,0,0,4,,,,,,,,,3,,,,63,100
71652,note_on,10,0,14,,,,,,,,,13,,,,63,112
71653,note_on,10,0,9,,,,,,,,,8,,,,54,110
71654,note_on,10,0,15,,,,,,,,,14,,,,51,112
71655,note_on,120,0,10,,,,,,,,,15,,,,48,0
71655,note_on,0,0,10,,,,,,,,,15,,,,48,97
71671,note_on,30,0,1,,,,,,,,,0,,,,84,0
71671,note_on,0,0,1,,,,,,,,,0,,,,87,0
71674,note_on,30,0,2,,,,,,,,,1,,,,75,0
71675,note_on,30,0,3,,,,,,,,,2,,,,72,0
71701,note_on,30,0,1,,,,,,,,,0,,,,87,101
71701,note_on,0,0,1,,,,,,,,,0,,,,84,101
71704,note_on,30,0,2,,,,,,,,,1,,,,75,100
71705,note_on,0,0,3,,,,,,,,,2,,,,72,101
71705,note_on,30,0,3,,,,,,,,,2,,,,69,0
71709,note_on,60,0,4,,,,,,,,,3,,,,63,0
71709,note_on,0,0,4,,,,,,,,,3,,,,57,0
71731,note_on,0,0,1,,,,,,,,,0,,,,87,0
71731,note_on,30,0,1,,,,,,,,,0,,,,84,0
71734,note_on,30,0,2,,,,,,,,,1,,,,75,0
71735,note_on,30,0,3,,,,,,,,,2,,,,72,0
71752,note_on,0,0,7,,,,,,,,,6,,,,60,0
71752,note_on,110,0,7,,,,,,,,,6,,,,72,0
71753,note_on,110,0,5,,,,,,,,,4,,,,60,0
71754,note_on,110,0,6,,,,,,,,,5,,,,48,0
71760,set_tempo,120,1,0,,,,,,263158,,,,,,,,
71761,note_on,30,0,1,,,,,,,,,0,,,,89,101
71761,note_on,0,0,1,,,,,,,,,0,,,,86,101
71762,note_on,10,0,7,,,,,,,,,6,,,,72,112
71762,note_on,0,0,7,,,,,,,,,6,,,,60,112
71763,note_on,10,0,5,,,,,,,,,4,,,,60,100
71764,note_on,10,0,6,,,,,,,,,5,,,,48,100
71764,note_on,0,0,2,,,,,,,,,1,,,,81,100
71764,note_on,0,0,2,,,,,,,,,1,,,,77,100
71764,note_on,30,0,2,,,,,,,,,1,,,,81,0
71765,note_on,0,0,3,,,,,,,,,2,,,,69,101
71765,note_on,30,0,3,,,,,,,,,2,,,,74,101
71769,note_on,0,0,4,,,,,,,,,3,,,,57,100
71769,note_on,60,0,4,,,,,,,,,3,,,,63,100
71775,note_on,120,0,10,,,,,,,,,15,,,,48,0
71775,note_on,0,0,10,,,,,,,,,15,,,,48,100
71821,note_on,60,0,1,,,,,,,,,0,,,,86,0
71821,note_on,0,0,1,,,,,,,,,0,,,,89,0
71821,note_on,0,0,1,,,,,,,,,0,,,,84,101
71821,note_on,0,0,1,,,,,,,,,0,,,,87,101
71824,note_on,60,0,2,,,,,,,,,1,,,,77,0
71824,note_on,0,0,2,,,,,,,,,1,,,,75,100
71825,note_on,60,0,3,,,,,,,,,2,,,,74,0
71825,note_on,0,0,3,,,,,,,,,2,,,,72,101
71829,note_on,60,0,4,,,,,,,,,3,,,,57,0
71829,note_on,0,0,4,,,,,,,,,3,,,,63,0
71872,note_on,0,0,7,,,,,,,,,6,,,,72,0
71872,note_on,110,0,7,,,,,,,,,6,,,,60,0
71873,note_on,110,0,5,,,,,,,,,4,,,,60,0
71874,note_on,110,0,6,,,,,,,,,5,,,,48,0
71880,note_on,240,0,11,,,,,,,,,10,,,,75,0
71880,set_tempo,120,1,0,,,,,,288462,,,,,,,,
71880,note_on,0,0,11,,,,,,,,,10,,,,72,112
71881,note_on,0,0,1,,,,,,,,,0,,,,84,0
71881,note_on,0,0,1,,,,,,,,,0,,,,89,101
71881,note_on,0,0,1,,,,,,,,,0,,,,86,101
71881,note_on,60,0,1,,,,,,,,,0,,,,87,0
71882,note_on,0,0,7,,,,,,,,,6,,,,60,112
71882,note_on,10,0,7,,,,,,,,,6,,,,72,112
71883,note_on,0,0,12,,,,,,,,,11,,,,72,112
71883,note_on,240,0,12,,,,,,,,,11,,,,75,0
71883,note_on,10,0,5,,,,,,,,,4,,,,60,100
71884,note_on,10,0,6,,,,,,,,,5,,,,48,100
71884,note_on,60,0,2,,,,,,,,,1,,,,75,0
71884,note_on,0,0,2,,,,,,,,,1,,,,81,0
71884,note_on,0,0,2,,,,,,,,,1,,,,81,100
71884,note_on,0,0,2,,,,,,,,,1,,,,77,100
71885,note_on,0,0,3,,,,,,,,,2,,,,69,0
71885,note_on,0,0,3,,,,,,,,,2,,,,74,101
71885,note_on,60,0,3,,,,,,,,,2,,,,72,0
71885,note_on,0,0,3,,,,,,,,,2,,,,69,101
71888,note_on,0,0,13,,,,,,,,,12,,,,72,112
71888,note_on,240,0,13,,,,,,,,,12,,,,75,0
71889,note_on,0,0,4,,,,,,,,,3,,,,57,100
71889,note_on,60,0,4,,,,,,,,,3,,,,63,100
71892,note_on,0,0,14,,,,,,,,,13,,,,60,112
71892,note_on,240,0,14,,,,,,,,,13,,,,63,0
71894,note_on,240,0,15,,,,,,,,,14,,,,51,0
71894,note_on,0,0,15,,,,,,,,,14,,,,48,112
71895,note_on,0,0,10,,,,,,,,,15,,,,48,103
71895,note_on,120,0,10,,,,,,,,,15,,,,48,0
71941,note_on,0,0,1,,,,,,,,,0,,,,89,0
71941,note_on,0,0,1,,,,,,,,,0,,,,84,101
71941,note_on,60,0,1,,,,,,,,,0,,,,86,0
71941,note_on,0,0,1,,,,,,,,,0,,,,87,101
71944,note_on,0,0,2,,,,,,,,,1,,,,75,100
71944,note_on,60,0,2,,,,,,,,,1,,,,77,0
71945,note_on,60,0,3,,,,,,,,,2,,,,74,0
71945,note_on,0,0,3,,,,,,,,,2,,,,72,101
71949,note_on,60,0,4,,,,,,,,,3,,,,57,0
71949,note_on,0,0,4,,,,,,,,,3,,,,63,0
71990,note_on,110,0,11,,,,,,,,,10,,,,72,0
71992,note_on,110,0,7,,,,,,,,,6,,,,60,0
71992,note_on,0,0,7,,,,,,,,,6,,,,72,0
71993,note_on,110,0,5,,,,,,,,,4,,,,60,0
71993,note_on,110,0,12,,,,,,,,,11,,,,72,0
71994,note_on,110,0,6,,,,,,,,,5,,,,48,0
71997,note_on,350,0,8,,,,,,,,,7,,,,57,0
71997,note_on,0,0,8,,,,,,,,,7,,,,63,0
71998,note_on,110,0,13,,,,,,,,,12,,,,72,0
72000,note_on,10,0,11,,,,,,,,,10,,,,69,112
72000,set_tempo,120,1,0,,,,,,254237,,,,,,,,
72001,control_change,0,0,1,,,,,,,,,0,11,86,,,
72001,note_on,60,0,1,,,,,,,,,0,,,,84,0
72001,note_on,0,0,1,,,,,,,,,0,,,,84,101
72001,note_on,0,0,1,,,,,,,,,0,,,,87,0
72001,note_on,0,0,1,,,,,,,,,0,,,,87,101
72002,note_on,10,0,7,,,,,,,,,6,,,,60,112
72002,note_on,110,0,14,,,,,,,,,13,,,,60,0
72002,note_on,0,0,7,,,,,,,,,6,,,,72,112
72003,note_on,350,0,9,,,,,,,,,8,,,,54,0
72003,note_on,10,0,12,,,,,,,,,11,,,,69,112
72003,note_on,10,0,5,,,,,,,,,4,,,,60,100
72004,note_on,110,0,15,,,,,,,,,14,,,,48,0
72004,note_on,0,0,2,,,,,,,,,1,,,,81,100
72004,control_change,0,0,2,,,,,,,,,1,11,86,,,
72004,note_on,0,0,2,,,,,,,,,1,,,,75,100
72004,note_on,60,0,2,,,,,,,,,1,,,,75,0
72004,note_on,0,0,2,,,,,,,,,1,,,,81,0
72004,note_on,10,0,6,,,,,,,,,5,,,,48,100
72005,note_on,0,0,3,,,,,,,,,2,,,,75,101
72005,note_on,0,0,3,,,,,,,,,2,,,,72,101
72005,note_on,0,0,3,,,,,,,,,2,,,,69,0
72005,note_on,60,0,3,,,,,,,,,2,,,,72,0
72005,control_change,0,0,3,,,,,,,,,2,11,93,,,
72007,note_on,0,0,8,,,,,,,,,7,,,,57,110
72007,note_on,10,0,8,,,,,,,,,7,,,,63,110
72008,note_on,10,0,13,,,,,,,,,12,,,,69,112
72009,note_on,0,0,4,,,,,,,,,3,,,,63,100
72009,note_on,60,0,4,,,,,,,,,3,,,,60,100
72012,note_on,10,0,14,,,,,,,,,13,,,,57,112
72013,note_on,10,0,9,,,,,,,,,8,,,,54,110
72014,note_on,10,0,15,,,,,,,,,14,,,,45,112
72015,note_on,0,0,10,,,,,,,,,15,,,,48,106
72015,note_on,120,0,10,,,,,,,,,15,,,,48,0
72035,note_on,0,0,3,,,,,,,,,2,,,,72,0
72035,note_on,30,0,3,,,,,,,,,2,,,,75,0
72039,note_on,30,0,4,,,,,,,,,3,,,,63,0
72039,note_on,0,0,4,,,,,,,,,3,,,,60,0
72061,note_on,0,0,1,,,,,,,,,0,,,,87,0
72061,note_on,60,0,1,,,,,,,,,0,,,,84,0
72064,note_on,0,0,2,,,,,,,,,1,,,,75,0
72064,note_on,60,0,2,,,,,,,,,1,,,,81,0
72065,note_on,0,0,3,,,,,,,,,2,,,,75,101
72065,note_on,30,0,3,,,,,,,,,2,,,,72,101
72069,note_on,0,0,4,,,,,,,,,3,,,,60,100
72069,note_on,30,0,4,,,,,,,,,3,,,,63,100
72095,note_on,30,0,3,,,,,,,,,2,,,,75,0
72095,note_on,0,0,3,,,,,,,,,2,,,,72,0
72099,note_on,0,0,4,,,,,,,,,3,,,,63,0
72099,note_on,30,0,4,,,,,,,,,3,,,,60,0
72112,note_on,110,0,7,,,,,,,,,6,,,,72,0
72112,note_on,0,0,7,,,,,,,,,6,,,,60,0
72113,note_on,110,0,5,,,,,,,,,4,,,,60,0
72114,note_on,110,0,6,,,,,,,,,5,,,,48,0
72120,set_tempo,120,1,0,,,,,,263158,,,,,,,,
72121,note_on,0,0,1,,,,,,,,,0,,,,87,101
72121,note_on,60,0,1,,,,,,,,,0,,,,84,101
72122,note_on,0,0,7,,,,,,,,,6,,,,60,112
72122,note_on,10,0,7,,,,,,,,,6,,,,72,112
72123,note_on,10,0,5,,,,,,,,,4,,,,60,100
72124,note_on,0,0,2,,,,,,,,,1,,,,75,100
72124,note_on,10,0,6,,,,,,,,,5,,,,48,100
72124,note_on,60,0,2,,,,,,,,,1,,,,81,100
72125,note_on,30,0,3,,,,,,,,,2,,,,74,101
72125,note_on,0,0,3,,,,,,,,,2,,,,78,101
72129,note_on,30,0,4,,,,,,,,,3,,,,66,100
72129,note_on,0,0,4,,,,,,,,,3,,,,62,100
72135,note_on,120,0,10,,,,,,,,,15,,,,48,0
72135,note_on,0,0,10,,,,,,,,,15,,,,48,109
72181,note_on,60,0,1,,,,,,,,,0,,,,87,0
72181,note_on,0,0,1,,,,,,,,,0,,,,84,0
72184,note_on,60,0,2,,,,,,,,,1,,,,75,0
72184,note_on,0,0,2,,,,,,,,,1,,,,81,0
72185,note_on,60,0,3,,,,,,,,,2,,,,78,0
72185,note_on,0,0,3,,,,,,,,,2,,,,72,101
72185,note_on,0,0,3,,,,,,,,,2,,,,74,0
72185,note_on,0,0,3,,,,,,,,,2,,,,75,101
72189,note_on,0,0,4,,,,,,,,,3,,,,60,100
72189,note_on,0,0,4,,,,,,,,,3,,,,66,0
72189,note_on,60,0,4,,,,,,,,,3,,,,62,0
72189,note_on,0,0,4,,,,,,,,,3,,,,63,100
72232,note_on,110,0,7,,,,,,,,,6,,,,60,0
72232,note_on,0,0,7,,,,,,,,,6,,,,72,0
72233,note_on,110,0,5,,,,,,,,,4,,,,60,0
72234,note_on,110,0,6,,,,,,,,,5,,,,48,0
72240,note_on,240,0,11,,,,,,,,,10,,,,69,0
72240,note_on,0,0,11,,,,,,,,,10,,,,66,112
72240,set_tempo,120,1,0,,,,,,288462,,,,,,,,
72241,note_on,0,0,1,,,,,,,,,0,,,,84,101
72241,note_on,60,0,1,,,,,,,,,0,,,,87,101
72242,note_on,0,0,7,,,,,,,,,6,,,,60,112
72242,note_on,10,0,7,,,,,,,,,6,,,,72,112
72243,note_on,0,0,12,,,,,,,,,11,,,,66,112
72243,note_on,10,0,5,,,,,,,,,4,,,,60,100
72243,note_on,240,0,12,,,,,,,,,11,,,,69,0
72244,note_on,60,0,2,,,,,,,,,1,,,,75,100
72244,note_on,10,0,6,,,,,,,,,5,,,,48,100
72244,note_on,0,0,2,,,,,,,,,1,,,,81,100
72245,note_on,0,0,3,,,,,,,,,2,,,,78,101
72245,note_on,0,0,3,,,,,,,,,2,,,,74,101
72245,note_on,0,0,3,,,,,,,,,2,,,,72,0
72245,note_on,60,0,3,,,,,,,,,2,,,,75,0
72248,note_on,240,0,13,,,,,,,,,12,,,,69,0
72248,note_on,0,0,13,,,,,,,,,12,,,,66,112
72249,note_on,60,0,4,,,,,,,,,3,,,,63,0
72249,note_on,0,0,4,,,,,,,,,3,,,,66,100
72249,note_on,0,0,4,,,,,,,,,3,,,,60,0
72249,note_on,0,0,4,,,,,,,,,3,,,,62,100
72252,note_on,0,0,14,,,,,,,,,13,,,,54,112
72252,note_on,240,0,14,,,,,,,,,13,,,,57,0
72254,note_on,0,0,15,,,,,,,,,14,,,,42,112
72254,note_on,240,0,15,,,,,,,,,14,,,,45,0
72255,note_on,120,0,10,,,,,,,,,15,,,,48,0
72255,note_on,0,0,10,,,,,,,,,15,,,,48,112
72301,note_on,0,0,1,,,,,,,,,0,,,,87,0
72301,note_on,60,0,1,,,,,,,,,0,,,,84,0
72304,note_on,0,0,2,,,,,,,,,1,,,,75,0
72304,note_on,60,0,2,,,,,,,,,1,,,,81,0
72305,note_on,0,0,3,,,,,,,,,2,,,,78,0
72305,note_on,0,0,3,,,,,,,,,2,,,,72,101
72305,note_on,0,0,3,,,,,,,,,2,,,,75,101
72305,note_on,60,0,3,,,,,,,,,2,,,,74,0
72309,note_on,0,0,4,,,,,,,,,3,,,,62,0
72309,note_on,0,0,4,,,,,,,,,3,,,,60,100
72309,note_on,0,0,4,,,,,,,,,3,,,,63,100
72309,note_on,60,0,4,,,,,,,,,3,,,,66,0
72350,note_on,110,0,11,,,,,,,,,10,,,,66,0
72352,note_on,0,0,7,,,,,,,,,6,,,,72,0
72352,note_on,110,0,7,,,,,,,,,6,,,,60,0
72353,note_on,110,0,5,,,,,,,,,4,,,,60,0
72353,note_on,110,0,12,,,,,,,,,11,,,,66,0
72354,note_on,110,0,6,,,,,,,,,5,,,,48,0
72357,note_on,0,0,8,,,,,,,,,7,,,,63,0
72357,note_on,350,0,8,,,,,,,,,7,,,,57,0
72358,note_on,110,0,13,,,,,,,,,12,,,,66,0
72360,note_on,10,0,11,,,,,,,,,10,,,,67,112
72360,set_tempo,120,1,0,,,,,,254237,,,,,,,,
72361,note_on,0,0,1,,,,,,,,,0,,,,83,101
72361,note_on,60,0,1,,,,,,,,,0,,,,86,101
72362,note_on,10,0,7,,,,,,,,,6,,,,67,112
72362,note_on,0,0,7,,,,,,,,,6,,,,55,112
72362,note_on,110,0,14,,,,,,,,,13,,,,54,0
72363,note_on,10,0,5,,,,,,,,,4,,,,55,100
72363,note_on,10,0,12,,,,,,,,,11,,,,67,112
72363,note_on,350,0,9,,,,,,,,,8,,,,54,0
72364,note_on,110,0,15,,,,,,,,,14,,,,42,0
72364,note_on,60,0,2,,,,,,,,,1,,,,74,100
72364,note_on,0,0,2,,,,,,,,,1,,,,83,100
72364,note_on,10,0,6,,,,,,,,,5,,,,43,100
72365,note_on,60,0,3,,,,,,,,,2,,,,75,0
72365,note_on,0,0,3,,,,,,,,,2,,,,72,0
72365,note_on,0,0,3,,,,,,,,,2,,,,74,101
72365,note_on,0,0,3,,,,,,,,,2,,,,71,101
72365,control_change,0,0,3,,,,,,,,,2,11,86,,,
72367,note_on,10,0,8,,,,,,,,,7,,,,62,110
72367,note_on,0,0,8,,,,,,,,,7,,,,59,110
72368,note_on,10,0,13,,,,,,,,,12,,,,67,112
72369,control_change,0,0,4,,,,,,,,,3,11,97,,,
72369,note_on,0,0,4,,,,,,,,,3,,,,59,100
72369,note_on,0,0,4,,,,,,,,,3,,,,62,100
72369,note_on,60,0,4,,,,,,,,,3,,,,63,0
72369,note_on,0,0,4,,,,,,,,,3,,,,60,0
72372,note_on,10,0,14,,,,,,,,,13,,,,55,112
72373,note_on,10,0,9,,,,,,,,,8,,,,55,110
72374,note_on,10,0,15,,,,,,,,,14,,,,43,112
72375,note_on,0,0,10,,,,,,,,,15,,,,43,115
72375,note_on,120,0,10,,,,,,,,,15,,,,48,0
72390,note_on,30,0,11,,,,,,,,,10,,,,67,0
72393,note_on,30,0,12,,,,,,,,,11,,,,67,0
72398,note_on,30,0,13,,,,,,,,,12,,,,67,0
72402,note_on,30,0,14,,,,,,,,,13,,,,55,0
72404,note_on,30,0,15,,,,,,,,,14,,,,43,0
72420,note_on,30,0,11,,,,,,,,,10,,,,67,112
72423,note_on,30,0,12,,,,,,,,,11,,,,67,112
72428,note_on,30,0,13,,,,,,,,,12,,,,67,112
72432,note_on,30,0,14,,,,,,,,,13,,,,55,112
72434,note_on,30,0,15,,,,,,,,,14,,,,43,112
72450,note_on,30,0,11,,,,,,,,,10,,,,67,0
72453,note_on,30,0,12,,,,,,,,,11,,,,67,0
72458,note_on,30,0,13,,,,,,,,,12,,,,67,0
72462,note_on,30,0,14,,,,,,,,,13,,,,55,0
72464,note_on,30,0,15,,,,,,,,,14,,,,43,0
72480,set_tempo,120,1,0,,,,,,263158,,,,,,,,
72480,note_on,30,0,11,,,,,,,,,10,,,,69,112
72481,note_on,120,0,1,,,,,,,,,0,,,,83,0
72481,note_on,0,0,1,,,,,,,,,0,,,,86,0
72482,note_on,120,0,7,,,,,,,,,6,,,,55,0
72482,note_on,0,0,7,,,,,,,,,6,,,,67,0
72483,note_on,120,0,5,,,,,,,,,4,,,,55,0
72483,note_on,30,0,12,,,,,,,,,11,,,,69,112
72484,note_on,120,0,6,,,,,,,,,5,,,,43,0
72484,note_on,0,0,2,,,,,,,,,1,,,,74,0
72484,note_on,120,0,2,,,,,,,,,1,,,,83,0
72485,note_on,120,0,3,,,,,,,,,2,,,,71,0
72485,note_on,0,0,3,,,,,,,,,2,,,,74,0
72487,note_on,0,0,8,,,,,,,,,7,,,,62,0
72487,note_on,120,0,8,,,,,,,,,7,,,,59,0
72488,note_on,30,0,13,,,,,,,,,12,,,,69,112
72489,note_on,0,0,4,,,,,,,,,3,,,,62,0
72489,note_on,120,0,4,,,,,,,,,3,,,,59,0
72492,note_on,30,0,14,,,,,,,,,13,,,,57,112
72493,note_on,120,0,9,,,,,,,,,8,,,,55,0
72494,note_on,30,0,15,,,,,,,,,14,,,,45,112
72495,note_on,120,0,10,,,,,,,,,15,,,,43,0
72510,note_on,30,0,11,,,,,,,,,10,,,,69,0
72513,note_on,30,0,12,,,,,,,,,11,,,,69,0
72518,note_on,30,0,13,,,,,,,,,12,,,,69,0
72522,note_on,30,0,14,,,,,,,,,13,,,,57,0
72524,note_on,30,0,15,,,,,,,,,14,,,,45,0
72540,note_on,30,0,11,,,,,,,,,10,,,,67,112
72543,note_on,30,0,12,,,,,,,,,11,,,,67,112
72548,note_on,30,0,13,,,,,,,,,12,,,,67,112
72552,note_on,30,0,14,,,,,,,,,13,,,,55,112
72554,note_on,30,0,15,,,,,,,,,14,,,,43,112
72570,note_on,30,0,11,,,,,,,,,10,,,,67,0
72573,note_on,30,0,12,,,,,,,,,11,,,,67,0
72578,note_on,30,0,13,,,,,,,,,12,,,,67,0
72582,note_on,30,0,14,,,,,,,,,13,,,,55,0
72584,note_on,30,0,15,,,,,,,,,14,,,,43,0
72600,note_on,30,0,11,,,,,,,,,10,,,,69,112
72600,set_tempo,120,1,0,,,,,,288462,,,,,,,,
72603,note_on,30,0,12,,,,,,,,,11,,,,69,112
72608,note_on,30,0,13,,,,,,,,,12,,,,69,112
72612,note_on,30,0,14,,,,,,,,,13,,,,57,112
72614,note_on,30,0,15,,,,,,,,,14,,,,45,112
72630,note_on,30,0,11,,,,,,,,,10,,,,69,0
72633,note_on,30,0,12,,,,,,,,,11,,,,69,0
72638,note_on,30,0,13,,,,,,,,,12,,,,69,0
72642,note_on,30,0,14,,,,,,,,,13,,,,57,0
72644,note_on,30,0,15,,,,,,,,,14,,,,45,0
72660,note_on,30,0,11,,,,,,,,,10,,,,67,112
72663,note_on,30,0,12,,,,,,,,,11,,,,67,112
72668,note_on,30,0,13,,,,,,,,,12,,,,67,112
72672,note_on,30,0,14,,,,,,,,,13,,,,55,112
72674,note_on,30,0,15,,,,,,,,,14,,,,43,112
72690,note_on,30,0,11,,,,,,,,,10,,,,67,0
72693,note_on,30,0,12,,,,,,,,,11,,,,67,0
72698,note_on,30,0,13,,,,,,,,,12,,,,67,0
72702,note_on,30,0,14,,,,,,,,,13,,,,55,0
72704,note_on,30,0,15,,,,,,,,,14,,,,43,0
72720,note_on,30,0,11,,,,,,,,,10,,,,55,112
72720,set_tempo,120,1,0,,,,,,254237,,,,,,,,
72721,note_on,240,0,1,,,,,,,,,0,,,,93,116
72723,note_on,30,0,12,,,,,,,,,11,,,,55,112
72724,note_on,0,0,2,,,,,,,,,1,,,,81,115
72724,note_on,240,0,2,,,,,,,,,1,,,,72,115
72725,note_on,240,0,3,,,,,,,,,2,,,,72,116
72725,note_on,0,0,3,,,,,,,,,2,,,,81,116
72727,note_on,240,0,8,,,,,,,,,7,,,,62,110
72728,note_on,30,0,13,,,,,,,,,12,,,,55,112
72729,note_on,240,0,4,,,,,,,,,3,,,,66,115
72732,note_on,30,0,14,,,,,,,,,13,,,,43,112
72733,note_on,240,0,9,,,,,,,,,8,,,,55,110
72734,note_on,30,0,15,,,,,,,,,14,,,,31,112
72781,note_on,0,0,1,,,,,,,,,0,,,,91,101
72781,note_on,60,0,1,,,,,,,,,0,,,,93,0
72784,note_on,0,0,2,,,,,,,,,1,,,,79,100
72784,note_on,60,0,2,,,,,,,,,1,,,,81,0
72785,note_on,0,0,3,,,,,,,,,2,,,,79,101
72785,note_on,60,0,3,,,,,,,,,2,,,,81,0
72837,note_on,110,0,8,,,,,,,,,7,,,,62,0
72840,set_tempo,120,1,0,,,,,,263158,,,,,,,,
72840,note_on,120,0,11,,,,,,,,,10,,,,55,0
72841,note_on,60,0,1,,,,,,,,,0,,,,91,0
72841,note_on,0,0,1,,,,,,,,,0,,,,90,101
72843,note_on,110,0,9,,,,,,,,,8,,,,55,0
72843,note_on,120,0,12,,,,,,,,,11,,,,55,0
72844,note_on,0,0,2,,,,,,,,,1,,,,78,100
72844,note_on,0,0,2,,,,,,,,,1,,,,72,0
72844,note_on,60,0,2,,,,,,,,,1,,,,79,0
72844,note_on,0,0,2,,,,,,,,,1,,,,72,100
72845,note_on,0,0,3,,,,,,,,,2,,,,78,101
72845,note_on,60,0,3,,,,,,,,,2,,,,79,0
72845,note_on,0,0,3,,,,,,,,,2,,,,72,0
72845,note_on,0,0,3,,,,,,,,,2,,,,72,101
72847,note_on,10,0,8,,,,,,,,,7,,,,62,110
72848,note_on,120,0,13,,,,,,,,,12,,,,55,0
72849,note_on,0,0,4,,,,,,,,,3,,,,66,100
72849,note_on,120,0,4,,,,,,,,,3,,,,66,0
72852,note_on,120,0,14,,,,,,,,,13,,,,43,0
72853,note_on,10,0,9,,,,,,,,,8,,,,55,110
72854,note_on,120,0,15,,,,,,,,,14,,,,31,0
72901,note_on,0,0,1,,,,,,,,,0,,,,88,101
72901,note_on,60,0,1,,,,,,,,,0,,,,90,0
72904,note_on,0,0,2,,,,,,,,,1,,,,76,100
72904,note_on,60,0,2,,,,,,,,,1,,,,78,0
72905,note_on,0,0,3,,,,,,,,,2,,,,76,101
72905,note_on,60,0,3,,,,,,,,,2,,,,78,0
72957,note_on,110,0,8,,,,,,,,,7,,,,62,0
72960,set_tempo,120,1,0,,,,,,288462,,,,,,,,
72961,note_on,60,0,1,,,,,,,,,0,,,,88,0
72961,note_on,0,0,1,,,,,,,,,0,,,,86,101
72963,note_on,110,0,9,,,,,,,,,8,,,,55,0
72964,note_on,0,0,2,,,,,,,,,1,,,,72,100
72964,note_on,0,0,2,,,,,,,,,1,,,,72,0
72964,note_on,60,0,2,,,,,,,,,1,,,,76,0
72964,note_on,0,0,2,,,,,,,,,1,,,,74,100
72965,note_on,0,0,3,,,,,,,,,2,,,,72,0
72965,note_on,60,0,3,,,,,,,,,2,,,,76,0
72965,note_on,0,0,3,,,,,,,,,2,,,,74,101
72965,note_on,0,0,3,,,,,,,,,2,,,,72,101
72967,note_on,10,0,8,,,,,,,,,7,,,,62,110
72969,note_on,120,0,4,,,,,,,,,3,,,,66,0
72969,note_on,0,0,4,,,,,,,,,3,,,,66,100
72973,note_on,10,0,9,,,,,,,,,8,,,,55,110
73021,note_on,60,0,1,,,,,,,,,0,,,,86,0
73024,note_on,0,0,2,,,,,,,,,1,,,,72,0
73024,note_on,60,0,2,,,,,,,,,1,,,,74,0
73025,note_on,0,0,3,,,,,,,,,2,,,,74,0
73025,note_on,60,0,3,,,,,,,,,2,,,,72,0
73029,note_on,60,0,4,,,,,,,,,3,,,,66,0
73077,note_on,110,0,8,,,,,,,,,7,,,,62,0
73080,set_tempo,120,1,0,,,,,,254237,,,,,,,,
73080,control_change,0,0,11,,,,,,,,,10,11,122,,,
73080,note_on,240,0,11,,,,,,,,,10,,,,67,112
73081,note_on,60,0,1,,,,,,,,,0,,,,86,101
73082,note_on,0,0,7,,,,,,,,,6,,,,55,112
73082,note_on,600,0,7,,,,,,,,,6,,,,67,112
73083,note_on,110,0,9,,,,,,,,,8,,,,55,0
73083,control_change,0,0,12,,,,,,,,,11,11,122,,,
73083,note_on,240,0,12,,,,,,,,,11,,,,67,112
73083,note_on,600,0,5,,,,,,,,,4,,,,62,100
73084,note_on,600,0,6,,,,,,,,,5,,,,55,100
73084,note_on,60,0,2,,,,,,,,,1,,,,74,100
73084,note_on,0,0,2,,,,,,,,,1,,,,71,100
73085,note_on,60,0,3,,,,,,,,,2,,,,71,101
73085,note_on,0,0,3,,,,,,,,,2,,,,74,101
73087,note_on,10,0,8,,,,,,,,,7,,,,62,110
73088,control_change,8,0,11,,,,,,,,,10,11,119,,,
73088,control_change,240,0,13,,,,,,,,,12,11,122,,,
73088,note_on,0,0,13,,,,,,,,,12,,,,67,112
73089,note_on,60,0,4,,,,,,,,,3,,,,67,100
73091,control_change,8,0,12,,,,,,,,,11,11,119,,,
73092,control_change,0,0,14,,,,,,,,,13,11,122,,,
73092,note_on,240,0,14,,,,,,,,,13,,,,55,112
73093,note_on,10,0,9,,,,,,,,,8,,,,55,110
73094,note_on,240,0,15,,,,,,,,,14,,,,43,112
73094,control_change,0,0,15,,,,,,,,,14,11,122,,,
73095,note_on,600,0,10,,,,,,,,,15,,,,43,100
73096,control_change,8,0,13,,,,,,,,,12,11,119,,,
73097,control_change,9,0,11,,,,,,,,,10,11,116,,,
73100,control_change,8,0,14,,,,,,,,,13,11,119,,,
73100,control_change,9,0,12,,,,,,,,,11,11,116,,,
73102,control_change,8,0,15,,,,,,,,,14,11,119,,,
73105,control_change,9,0,13,,,,,,,,,12,11,116,,,
73106,control_change,9,0,11,,,,,,,,,10,11,113,,,
73109,control_change,9,0,12,,,,,,,,,11,11,113,,,
73109,control_change,9,0,14,,,,,,,,,13,11,116,,,
73110,note_on,4,0,11,,,,,,,,,10,,,,67,0
73111,control_change,9,0,15,,,,,,,,,14,11,116,,,
73113,note_on,4,0,12,,,,,,,,,11,,,,67,0
73114,control_change,9,0,13,,,,,,,,,12,11,113,,,
73115,control_change,5,0,11,,,,,,,,,10,11,110,,,
73118,control_change,5,0,12,,,,,,,,,11,11,110,,,
73118,control_change,9,0,14,,,,,,,,,13,11,113,,,
73118,note_on,4,0,13,,,,,,,,,12,,,,67,0
73120,control_change,9,0,15,,,,,,,,,14,11,113,,,
73122,note_on,4,0,14,,,,,,,,,13,,,,55,0
73123,control_change,5,0,13,,,,,,,,,12,11,110,,,
73124,control_change,9,0,11,,,,,,,,,10,11,107,,,
73124,note_on,4,0,15,,,,,,,,,14,,,,43,0
73127,control_change,9,0,12,,,,,,,,,11,11,107,,,
73127,control_change,5,0,14,,,,,,,,,13,11,110,,,
73129,control_change,5,0,15,,,,,,,,,14,11,110,,,
73132,control_change,9,0,13,,,,,,,,,12,11,107,,,
73133,control_change,9,0,11,,,,,,,,,10,11,104,,,
73136,control_change,9,0,12,,,,,,,,,11,11,104,,,
73136,control_change,9,0,14,,,,,,,,,13,11,107,,,
73138,control_change,9,0,15,,,,,,,,,14,11,107,,,
73140,note_on,7,0,11,,,,,,,,,10,,,,67,112
73141,note_on,60,0,1,,,,,,,,,0,,,,86,0
73141,control_change,9,0,13,,,,,,,,,12,11,104,,,
73143,note_on,7,0,12,,,,,,,,,11,,,,67,112
73144,note_on,0,0,2,,,,,,,,,1,,,,74,0
73144,note_on,60,0,2,,,,,,,,,1,,,,71,0
73145,control_change,9,0,14,,,,,,,,,13,11,104,,,
73145,note_on,60,0,3,,,,,,,,,2,,,,74,0
73145,note_on,0,0,3,,,,,,,,,2,,,,71,0
73147,control_change,9,0,15,,,,,,,,,14,11,104,,,
73148,note_on,7,0,13,,,,,,,,,12,,,,67,112
73149,note_on,60,0,4,,,,,,,,,3,,,,67,0
73152,note_on,7,0,14,,,,,,,,,13,,,,55,112
73154,note_on,7,0,15,,,,,,,,,14,,,,43,112
73170,note_on,30,0,11,,,,,,,,,10,,,,67,0
73173,note_on,30,0,12,,,,,,,,,11,,,,67,0
73178,note_on,30,0,13,,,,,,,,,12,,,,67,0
73182,note_on,30,0,14,,,,,,,,,13,,,,55,0
73184,note_on,30,0,15,,,,,,,,,14,,,,43,0
73193,note_on,110,0,5,,,,,,,,,4,,,,62,0
73194,note_on,110,0,6,,,,,,,,,5,,,,55,0
73200,set_tempo,120,1,0,,,,,,263158,,,,,,,,
73200,note_on,30,0,11,,,,,,,,,10,,,,69,112
73202,note_on,0,0,7,,,,,,,,,6,,,,67,0
73202,note_on,120,0,7,,,,,,,,,6,,,,55,0
73203,note_on,10,0,5,,,,,,,,,4,,,,62,100
73203,note_on,30,0,12,,,,,,,,,11,,,,69,112
73204,note_on,10,0,6,,,,,,,,,5,,,,55,100
73207,note_on,120,0,8,,,,,,,,,7,,,,62,0
73208,note_on,30,0,13,,,,,,,,,12,,,,69,112
73212,note_on,30,0,14,,,,,,,,,13,,,,57,112
73213,note_on,120,0,9,,,,,,,,,8,,,,55,0
73214,note_on,30,0,15,,,,,,,,,14,,,,45,112
73215,note_on,120,0,10,,,,,,,,,15,,,,43,0
73230,note_on,30,0,11,,,,,,,,,10,,,,69,0
73233,note_on,30,0,12,,,,,,,,,11,,,,69,0
73238,note_on,30,0,13,,,,,,,,,12,,,,69,0
73242,note_on,30,0,14,,,,,,,,,13,,,,57,0
73244,note_on,30,0,15,,,,,,,,,14,,,,45,0
73260,note_on,30,0,11,,,,,,,,,10,,,,67,112
73263,note_on,30,0,12,,,,,,,,,11,,,,67,112
73268,note_on,30,0,13,,,,,,,,,12,,,,67,112
73272,note_on,30,0,14,,,,,,,,,13,,,,55,112
73274,note_on,30,0,15,,,,,,,,,14,,,,43,112
73290,note_on,30,0,11,,,,,,,,,10,,,,67,0
73293,note_on,30,0,12,,,,,,,,,11,,,,67,0
73298,note_on,30,0,13,,,,,,,,,12,,,,67,0
73302,note_on,30,0,14,,,,,,,,,13,,,,55,0
73304,note_on,30,0,15,,,,,,,,,14,,,,43,0
73313,note_on,110,0,5,,,,,,,,,4,,,,62,0
73314,note_on,110,0,6,,,,,,,,,5,,,,55,0
73320,note_on,30,0,11,,,,,,,,,10,,,,69,112
73320,set_tempo,120,1,0,,,,,,288462,,,,,,,,
73323,note_on,10,0,5,,,,,,,,,4,,,,62,100
73323,note_on,30,0,12,,,,,,,,,11,,,,69,112
73324,note_on,10,0,6,,,,,,,,,5,,,,55,100
73328,note_on,30,0,13,,,,,,,,,12,,,,69,112
73332,note_on,30,0,14,,,,,,,,,13,,,,57,112
73334,note_on,30,0,15,,,,,,,,,14,,,,45,112
73350,note_on,30,0,11,,,,,,,,,10,,,,69,0
73353,note_on,30,0,12,,,,,,,,,11,,,,69,0
73358,note_on,30,0,13,,,,,,,,,12,,,,69,0
73362,note_on,30,0,14,,,,,,,,,13,,,,57,0
73364,note_on,30,0,15,,,,,,,,,14,,,,45,0
73380,note_on,30,0,11,,,,,,,,,10,,,,67,112
73383,note_on,30,0,12,,,,,,,,,11,,,,67,112
73388,note_on,30,0,13,,,,,,,,,12,,,,67,112
73392,note_on,30,0,14,,,,,,,,,13,,,,55,112
73394,note_on,30,0,15,,,,,,,,,14,,,,43,112
73410,note_on,30,0,11,,,,,,,,,10,,,,67,0
73413,note_on,30,0,12,,,,,,,,,11,,,,67,0
73418,note_on,30,0,13,,,,,,,,,12,,,,67,0
73422,note_on,30,0,14,,,,,,,,,13,,,,55,0
73424,note_on,30,0,15,,,,,,,,,14,,,,43,0
73433,note_on,110,0,5,,,,,,,,,4,,,,62,0
73434,note_on,110,0,6,,,,,,,,,5,,,,55,0
73440,note_on,30,0,11,,,,,,,,,10,,,,55,112
73440,set_tempo,120,1,0,,,,,,254237,,,,,,,,
73441,note_on,300,0,1,,,,,,,,,0,,,,93,116
73443,note_on,30,0,12,,,,,,,,,11,,,,55,112
73443,note_on,10,0,5,,,,,,,,,4,,,,62,100
73444,note_on,10,0,6,,,,,,,,,5,,,,55,100
73444,note_on,300,0,2,,,,,,,,,1,,,,72,115
73444,note_on,0,0,2,,,,,,,,,1,,,,81,115
73445,note_on,0,0,3,,,,,,,,,2,,,,81,116
73445,note_on,300,0,3,,,,,,,,,2,,,,72,116
73447,note_on,240,0,8,,,,,,,,,7,,,,62,110
73448,note_on,30,0,13,,,,,,,,,12,,,,55,112
73449,note_on,300,0,4,,,,,,,,,3,,,,66,115
73452,note_on,30,0,14,,,,,,,,,13,,,,43,112
73453,note_on,240,0,9,,,,,,,,,8,,,,55,110
73454,note_on,30,0,15,,,,,,,,,14,,,,31,112
73501,note_on,60,0,1,,,,,,,,,0,,,,93,0
73501,note_on,0,0,1,,,,,,,,,0,,,,91,101
73504,note_on,0,0,2,,,,,,,,,1,,,,79,100
73504,note_on,60,0,2,,,,,,,,,1,,,,81,0
73505,note_on,0,0,3,,,,,,,,,2,,,,79,101
73505,note_on,60,0,3,,,,,,,,,2,,,,81,0
73557,note_on,110,0,8,,,,,,,,,7,,,,62,0
73560,note_on,120,0,11,,,,,,,,,10,,,,55,0
73560,set_tempo,120,1,0,,,,,,263158,,,,,,,,
73561,note_on,0,0,1,,,,,,,,,0,,,,90,101
73561,note_on,60,0,1,,,,,,,,,0,,,,91,0
73563,note_on,110,0,9,,,,,,,,,8,,,,55,0
73563,note_on,120,0,5,,,,,,,,,4,,,,62,0
73563,note_on,120,0,12,,,,,,,,,11,,,,55,0
73564,note_on,60,0,2,,,,,,,,,1,,,,79,0
73564,note_on,0,0,2,,,,,,,,,1,,,,72,0
73564,note_on,0,0,2,,,,,,,,,1,,,,72,100
73564,note_on,0,0,2,,,,,,,,,1,,,,78,100
73564,note_on,120,0,6,,,,,,,,,5,,,,55,0
73565,note_on,60,0,3,,,,,,,,,2,,,,79,0
73565,note_on,0,0,3,,,,,,,,,2,,,,72,0
73565,note_on,0,0,3,,,,,,,,,2,,,,78,101
73565,note_on,0,0,3,,,,,,,,,2,,,,72,101
73567,note_on,10,0,8,,,,,,,,,7,,,,62,110
73568,note_on,120,0,13,,,,,,,,,12,,,,55,0
73569,note_on,0,0,4,,,,,,,,,3,,,,66,100
73569,note_on,120,0,4,,,,,,,,,3,,,,66,0
73572,note_on,120,0,14,,,,,,,,,13,,,,43,0
73573,note_on,10,0,9,,,,,,,,,8,,,,55,110
73574,note_on,120,0,15,,,,,,,,,14,,,,31,0
73621,note_on,0,0,1,,,,,,,,,0,,,,88,101
73621,note_on,60,0,1,,,,,,,,,0,,,,90,0
73624,note_on,60,0,2,,,,,,,,,1,,,,78,0
73624,note_on,0,0,2,,,,,,,,,1,,,,76,100
73625,note_on,0,0,3,,,,,,,,,2,,,,76,101
73625,note_on,60,0,3,,,,,,,,,2,,,,78,0
73677,note_on,110,0,8,,,,,,,,,7,,,,62,0
73680,set_tempo,120,1,0,,,,,,288462,,,,,,,,
73681,note_on,60,0,1,,,,,,,,,0,,,,88,0
73681,note_on,0,0,1,,,,,,,,,0,,,,86,101
73683,note_on,110,0,9,,,,,,,,,8,,,,55,0
73684,note_on,0,0,2,,,,,,,,,1,,,,72,100
73684,note_on,60,0,2,,,,,,,,,1,,,,76,0
73684,note_on,0,0,2,,,,,,,,,1,,,,72,0
73684,note_on,0,0,2,,,,,,,,,1,,,,74,100
73685,note_on,0,0,3,,,,,,,,,2,,,,72,0
73685,note_on,0,0,3,,,,,,,,,2,,,,74,101
73685,note_on,0,0,3,,,,,,,,,2,,,,72,101
73685,note_on,60,0,3,,,,,,,,,2,,,,76,0
73687,note_on,10,0,8,,,,,,,,,7,,,,62,110
73689,note_on,120,0,4,,,,,,,,,3,,,,66,0
73689,note_on,0,0,4,,,,,,,,,3,,,,66,100
73693,note_on,10,0,9,,,,,,,,,8,,,,55,110
73741,note_on,60,0,1,,,,,,,,,0,,,,86,0
73744,note_on,60,0,2,,,,,,,,,1,,,,74,0
73744,note_on,0,0,2,,,,,,,,,1,,,,72,0
73745,note_on,60,0,3,,,,,,,,,2,,,,74,0
73745,note_on,0,0,3,,,,,,,,,2,,,,72,0
73749,note_on,60,0,4,,,,,,,,,3,,,,66,0
73797,note_on,110,0,8,,,,,,,,,7,,,,62,0
73800,note_on,0,0,11,,,,,,,,,10,,,,55,112
73800,set_tempo,120,1,0,,,,,,254237,,,,,,,,
73800,control_change,240,0,11,,,,,,,,,10,11,122,,,
73801,note_on,60,0,1,,,,,,,,,0,,,,86,101
73802,note_on,600,0,7,,,,,,,,,6,,,,67,112
73802,note_on,0,0,7,,,,,,,,,6,,,,55,112
73803,note_on,240,0,5,,,,,,,,,4,,,,62,100
73803,note_on,110,0,9,,,,,,,,,8,,,,55,0
73803,note_on,240,0,12,,,,,,,,,11,,,,55,112
73803,control_change,0,0,12,,,,,,,,,11,11,122,,,
73804,note_on,0,0,2,,,,,,,,,1,,,,74,100
73804,note_on,60,0,2,,,,,,,,,1,,,,71,100
73804,note_on,240,0,6,,,,,,,,,5,,,,55,100
73805,note_on,0,0,3,,,,,,,,,2,,,,74,101
73805,note_on,60,0,3,,,,,,,,,2,,,,71,101
73807,note_on,10,0,8,,,,,,,,,7,,,,62,110
73808,note_on,240,0,13,,,,,,,,,12,,,,55,112
73808,control_change,8,0,11,,,,,,,,,10,11,119,,,
73808,control_change,0,0,13,,,,,,,,,12,11,122,,,
73809,note_on,60,0,4,,,,,,,,,3,,,,67,100
73811,control_change,8,0,12,,,,,,,,,11,11,119,,,
73812,note_on,0,0,14,,,,,,,,,13,,,,43,112
73812,control_change,240,0,14,,,,,,,,,13,11,122,,,
73813,note_on,10,0,9,,,,,,,,,8,,,,55,110
73814,control_change,0,0,15,,,,,,,,,14,11,122,,,
73814,note_on,240,0,15,,,,,,,,,14,,,,31,112
73815,note_on,600,0,10,,,,,,,,,15,,,,43,100
73816,control_change,8,0,13,,,,,,,,,12,11,119,,,
73817,control_change,9,0,11,,,,,,,,,10,11,116,,,
73820,control_change,9,0,12,,,,,,,,,11,11,116,,,
73820,control_change,8,0,14,,,,,,,,,13,11,119,,,
73822,control_change,8,0,15,,,,,,,,,14,11,119,,,
73825,control_change,9,0,13,,,,,,,,,12,11,116,,,
73826,control_change,9,0,11,,,,,,,,,10,11,113,,,
73829,control_change,9,0,14,,,,,,,,,13,11,116,,,
73829,control_change,9,0,12,,,,,,,,,11,11,113,,,
73830,note_on,4,0,11,,,,,,,,,10,,,,55,0
73831,control_change,9,0,15,,,,,,,,,14,11,116,,,
73833,note_on,4,0,12,,,,,,,,,11,,,,55,0
73834,control_change,9,0,13,,,,,,,,,12,11,113,,,
73835,control_change,5,0,11,,,,,,,,,10,11,110,,,
73838,control_change,9,0,14,,,,,,,,,13,11,113,,,
73838,control_change,5,0,12,,,,,,,,,11,11,110,,,
73838,note_on,4,0,13,,,,,,,,,12,,,,55,0
73840,control_change,9,0,15,,,,,,,,,14,11,113,,,
73842,note_on,4,0,14,,,,,,,,,13,,,,43,0
73843,control_change,5,0,13,,,,,,,,,12,11,110,,,
73844,control_change,9,0,11,,,,,,,,,10,11,107,,,
73844,note_on,4,0,15,,,,,,,,,14,,,,31,0
73847,control_change,5,0,14,,,,,,,,,13,11,110,,,
73847,control_change,9,0,12,,,,,,,,,11,11,107,,,
73849,control_change,5,0,15,,,,,,,,,14,11,110,,,
73852,control_change,9,0,13,,,,,,,,,12,11,107,,,
73853,control_change,9,0,11,,,,,,,,,10,11,104,,,
73856,control_change,9,0,14,,,,,,,,,13,11,107,,,
73856,control_change,9,0,12,,,,,,,,,11,11,104,,,
73858,control_change,9,0,15,,,,,,,,,14,11,107,,,
73860,note_on,7,0,11,,,,,,,,,10,,,,55,112
73861,control_change,9,0,13,,,,,,,,,12,11,104,,,
73861,note_on,60,0,1,,,,,,,,,0,,,,86,0
73863,note_on,7,0,12,,,,,,,,,11,,,,55,112
73864,note_on,60,0,2,,,,,,,,,1,,,,74,0
73864,note_on,0,0,2,,,,,,,,,1,,,,71,0
73865,control_change,9,0,14,,,,,,,,,13,11,104,,,
73865,note_on,60,0,3,,,,,,,,,2,,,,74,0
73865,note_on,0,0,3,,,,,,,,,2,,,,71,0
73867,control_change,9,0,15,,,,,,,,,14,11,104,,,
73868,note_on,7,0,13,,,,,,,,,12,,,,55,112
73869,note_on,60,0,4,,,,,,,,,3,,,,67,0
73872,note_on,7,0,14,,,,,,,,,13,,,,43,112
73874,note_on,7,0,15,,,,,,,,,14,,,,31,112
73890,note_on,30,0,11,,,,,,,,,10,,,,55,0
73893,note_on,30,0,12,,,,,,,,,11,,,,55,0
73898,note_on,30,0,13,,,,,,,,,12,,,,55,0
73902,note_on,30,0,14,,,,,,,,,13,,,,43,0
73904,note_on,30,0,15,,,,,,,,,14,,,,31,0
73913,note_on,110,0,5,,,,,,,,,4,,,,62,0
73914,note_on,110,0,6,,,,,,,,,5,,,,55,0
73920,set_tempo,120,1,0,,,,,,263158,,,,,,,,
73920,note_on,30,0,11,,,,,,,,,10,,,,57,112
73922,note_on,0,0,7,,,,,,,,,6,,,,67,0
73922,note_on,120,0,7,,,,,,,,,6,,,,55,0
73923,note_on,30,0,12,,,,,,,,,11,,,,57,112
73923,note_on,10,0,5,,,,,,,,,4,,,,62,100
73924,note_on,10,0,6,,,,,,,,,5,,,,55,100
73927,note_on,120,0,8,,,,,,,,,7,,,,62,0
73928,note_on,30,0,13,,,,,,,,,12,,,,57,112
73932,note_on,30,0,14,,,,,,,,,13,,,,45,112
73933,note_on,120,0,9,,,,,,,,,8,,,,55,0
73934,note_on,30,0,15,,,,,,,,,14,,,,33,112
73935,note_on,120,0,10,,,,,,,,,15,,,,43,0
73950,note_on,30,0,11,,,,,,,,,10,,,,57,0
73953,note_on,30,0,12,,,,,,,,,11,,,,57,0
73958,note_on,30,0,13,,,,,,,,,12,,,,57,0
73962,note_on,30,0,14,,,,,,,,,13,,,,45,0
73964,note_on,30,0,15,,,,,,,,,14,,,,33,0
73980,note_on,30,0,11,,,,,,,,,10,,,,55,112
73983,note_on,30,0,12,,,,,,,,,11,,,,55,112
73988,note_on,30,0,13,,,,,,,,,12,,,,55,112
73992,note_on,30,0,14,,,,,,,,,13,,,,43,112
73994,note_on,30,0,15,,,,,,,,,14,,,,31,112
74010,note_on,30,0,11,,,,,,,,,10,,,,55,0
74013,note_on,30,0,12,,,,,,,,,11,,,,55,0
74018,note_on,30,0,13,,,,,,,,,12,,,,55,0
74022,note_on,30,0,14,,,,,,,,,13,,,,43,0
74024,note_on,30,0,15,,,,,,,,,14,,,,31,0
74033,note_on,110,0,5,,,,,,,,,4,,,,62,0
74034,note_on,110,0,6,,,,,,,,,5,,,,55,0
74040,set_tempo,120,1,0,,,,,,288462,,,,,,,,
74040,note_on,30,0,11,,,,,,,,,10,,,,57,112
74043,note_on,30,0,12,,,,,,,,,11,,,,57,112
74043,note_on,10,0,5,,,,,,,,,4,,,,62,100
74044,note_on,10,0,6,,,,,,,,,5,,,,55,100
74048,note_on,30,0,13,,,,,,,,,12,,,,57,112
74052,note_on,30,0,14,,,,,,,,,13,,,,45,112
74054,note_on,30,0,15,,,,,,,,,14,,,,33,112
74070,note_on,30,0,11,,,,,,,,,10,,,,57,0
74073,note_on,30,0,12,,,,,,,,,11,,,,57,0
74078,note_on,30,0,13,,,,,,,,,12,,,,57,0
74082,note_on,30,0,14,,,,,,,,,13,,,,45,0
74084,note_on,30,0,15,,,,,,,,,14,,,,33,0
74100,note_on,30,0,11,,,,,,,,,10,,,,55,112
74103,note_on,30,0,12,,,,,,,,,11,,,,55,112
74108,note_on,30,0,13,,,,,,,,,12,,,,55,112
74112,note_on,30,0,14,,,,,,,,,13,,,,43,112
74114,note_on,30,0,15,,,,,,,,,14,,,,31,112
74130,note_on,30,0,11,,,,,,,,,10,,,,55,0
74133,note_on,30,0,12,,,,,,,,,11,,,,55,0
74138,note_on,30,0,13,,,,,,,,,12,,,,55,0
74142,note_on,30,0,14,,,,,,,,,13,,,,43,0
74144,note_on,30,0,15,,,,,,,,,14,,,,31,0
74153,note_on,110,0,5,,,,,,,,,4,,,,62,0
74154,note_on,110,0,6,,,,,,,,,5,,,,55,0
74160,note_on,30,0,11,,,,,,,,,10,,,,67,112
74160,set_tempo,120,1,0,,,,,,258621,,,,,,,,
74160,control_change,0,0,11,,,,,,,,,10,11,122,,,
74163,control_change,30,0,12,,,,,,,,,11,11,122,,,
74163,note_on,10,0,5,,,,,,,,,4,,,,62,100
74163,note_on,0,0,12,,,,,,,,,11,,,,67,112
74164,note_on,10,0,6,,,,,,,,,5,,,,55,100
74168,note_on,30,0,13,,,,,,,,,12,,,,67,112
74168,control_change,8,0,11,,,,,,,,,10,11,119,,,
74171,control_change,8,0,12,,,,,,,,,11,11,119,,,
74172,note_on,30,0,14,,,,,,,,,13,,,,55,112
74174,note_on,30,0,15,,,,,,,,,14,,,,43,112
74177,control_change,9,0,11,,,,,,,,,10,11,116,,,
74180,control_change,9,0,12,,,,,,,,,11,11,116,,,
74186,control_change,9,0,11,,,,,,,,,10,11,113,,,
74189,control_change,9,0,12,,,,,,,,,11,11,113,,,
74195,control_change,9,0,11,,,,,,,,,10,11,110,,,
74198,control_change,9,0,12,,,,,,,,,11,11,110,,,
74204,control_change,9,0,11,,,,,,,,,10,11,107,,,
74207,control_change,9,0,12,,,,,,,,,11,11,107,,,
74213,control_change,9,0,11,,,,,,,,,10,11,104,,,
74216,control_change,9,0,12,,,,,,,,,11,11,104,,,
74220,note_on,7,0,11,,,,,,,,,10,,,,67,0
74223,note_on,7,0,12,,,,,,,,,11,,,,67,0
74228,note_on,60,0,13,,,,,,,,,12,,,,67,0
74232,note_on,60,0,14,,,,,,,,,13,,,,55,0
74234,note_on,60,0,15,,,,,,,,,14,,,,43,0
74280,note_on,60,0,11,,,,,,,,,10,,,,67,112
74283,note_on,60,0,12,,,,,,,,,11,,,,67,112
74283,note_on,120,0,5,,,,,,,,,4,,,,62,0
74284,note_on,120,0,6,,,,,,,,,5,,,,55,0
74288,note_on,60,0,13,,,,,,,,,12,,,,67,112
74292,note_on,60,0,14,,,,,,,,,13,,,,55,112
74294,note_on,60,0,15,,,,,,,,,14,,,,43,112
74340,note_on,60,0,11,,,,,,,,,10,,,,67,0
74343,note_on,60,0,12,,,,,,,,,11,,,,67,0
74348,note_on,60,0,13,,,,,,,,,12,,,,67,0
74352,note_on,60,0,14,,,,,,,,,13,,,,55,0
74354,note_on,60,0,15,,,,,,,,,14,,,,43,0
74400,set_tempo,240,1,0,,,,,,288462,,,,,,,,
74400,note_on,60,0,11,,,,,,,,,10,,,,67,112
74403,note_on,60,0,12,,,,,,,,,11,,,,67,112
74408,note_on,60,0,13,,,,,,,,,12,,,,67,112
74412,note_on,60,0,14,,,,,,,,,13,,,,55,112
74414,note_on,60,0,15,,,,,,,,,14,,,,43,112
74460,note_on,60,0,11,,,,,,,,,10,,,,67,0
74463,note_on,60,0,12,,,,,,,,,11,,,,67,0
74468,note_on,60,0,13,,,,,,,,,12,,,,67,0
74472,note_on,60,0,14,,,,,,,,,13,,,,55,0
74474,note_on,60,0,15,,,,,,,,,14,,,,43,0
74520,set_tempo,120,1,0,,,,,,258621,,,,,,,,
74520,note_on,60,0,11,,,,,,,,,10,,,,79,112
74521,note_on,660,0,1,,,,,,,,,0,,,,91,101
74521,note_on,0,0,1,,,,,,,,,0,,,,79,101
74522,note_on,0,0,7,,,,,,,,,6,,,,55,112
74522,note_on,600,0,7,,,,,,,,,6,,,,67,112
74523,note_on,60,0,12,,,,,,,,,11,,,,79,112
74524,note_on,0,0,2,,,,,,,,,1,,,,79,100
74524,note_on,660,0,2,,,,,,,,,1,,,,67,100
74527,note_on,600,0,8,,,,,,,,,7,,,,67,110
74527,note_on,0,0,8,,,,,,,,,7,,,,55,110
74528,note_on,60,0,13,,,,,,,,,12,,,,67,112
74528,note_on,0,0,13,,,,,,,,,12,,,,55,112
74529,note_on,660,0,4,,,,,,,,,3,,,,43,100
74529,note_on,0,0,4,,,,,,,,,3,,,,55,100
74532,note_on,60,0,14,,,,,,,,,13,,,,43,112
74533,note_on,600,0,9,,,,,,,,,8,,,,43,110
74534,note_on,60,0,15,,,,,,,,,14,,,,31,112
74535,note_on,600,0,10,,,,,,,,,15,,,,43,100
74580,note_on,60,0,11,,,,,,,,,10,,,,79,0
74583,note_on,60,0,12,,,,,,,,,11,,,,79,0
74588,note_on,0,0,13,,,,,,,,,12,,,,67,0
74588,note_on,60,0,13,,,,,,,,,12,,,,55,0
74592,note_on,60,0,14,,,,,,,,,13,,,,43,0
74594,note_on,60,0,15,,,,,,,,,14,,,,31,0
74632,note_on,110,0,7,,,,,,,,,6,,,,55,0
74632,note_on,0,0,7,,,,,,,,,6,,,,67,0
74637,note_on,0,0,8,,,,,,,,,7,,,,67,0
74637,note_on,110,0,8,,,,,,,,,7,,,,55,0
74640,note_on,60,0,11,,,,,,,,,10,,,,79,112
74641,note_on,0,0,1,,,,,,,,,0,,,,91,0
74641,note_on,120,0,1,,,,,,,,,0,,,,79,0
74641,note_on,0,0,1,,,,,,,,,0,,,,91,101
74641,note_on,0,0,1,,,,,,,,,0,,,,79,101
74642,note_on,10,0,7,,,,,,,,,6,,,,67,112
74642,note_on,0,0,7,,,,,,,,,6,,,,55,112
74643,note_on,110,0,9,,,,,,,,,8,,,,43,0
74643,note_on,60,0,12,,,,,,,,,11,,,,79,112
74644,note_on,0,0,2,,,,,,,,,1,,,,79,100
74644,note_on,0,0,2,,,,,,,,,1,,,,67,100
74644,note_on,120,0,2,,,,,,,,,1,,,,79,0
74644,note_on,0,0,2,,,,,,,,,1,,,,67,0
74647,note_on,0,0,8,,,,,,,,,7,,,,55,110
74647,note_on,10,0,8,,,,,,,,,7,,,,67,110
74648,note_on,0,0,13,,,,,,,,,12,,,,55,112
74648,note_on,60,0,13,,,,,,,,,12,,,,67,112
74649,note_on,0,0,4,,,,,,,,,3,,,,43,100
74649,note_on,0,0,4,,,,,,,,,3,,,,43,0
74649,note_on,0,0,4,,,,,,,,,3,,,,55,100
74649,note_on,120,0,4,,,,,,,,,3,,,,55,0
74652,note_on,60,0,14,,,,,,,,,13,,,,43,112
74653,note_on,10,0,9,,,,,,,,,8,,,,43,110
74654,note_on,60,0,15,,,,,,,,,14,,,,31,112
74655,note_on,120,0,10,,,,,,,,,15,,,,43,0
74655,note_on,0,0,10,,,,,,,,,15,,,,43,100
74700,note_on,60,0,11,,,,,,,,,10,,,,79,0
74703,note_on,60,0,12,,,,,,,,,11,,,,79,0
74708,note_on,60,0,13,,,,,,,,,12,,,,55,0
74708,note_on,0,0,13,,,,,,,,,12,,,,67,0
74712,note_on,60,0,14,,,,,,,,,13,,,,43,0
74714,note_on,60,0,15,,,,,,,,,14,,,,31,0
74752,note_on,0,0,7,,,,,,,,,6,,,,67,0
74752,note_on,110,0,7,,,,,,,,,6,,,,55,0
74757,note_on,0,0,8,,,,,,,,,7,,,,67,0
74757,note_on,110,0,8,,,,,,,,,7,,,,55,0
74760,set_tempo,240,1,0,,,,,,288462,,,,,,,,
74760,note_on,60,0,11,,,,,,,,,10,,,,79,112
74761,note_on,120,0,1,,,,,,,,,0,,,,91,0
74761,note_on,0,0,1,,,,,,,,,0,,,,79,0
74761,note_on,0,0,1,,,,,,,,,0,,,,91,101
74761,note_on,0,0,1,,,,,,,,,0,,,,79,101
74762,note_on,10,0,7,,,,,,,,,6,,,,67,112
74762,note_on,0,0,7,,,,,,,,,6,,,,55,112
74763,note_on,110,0,9,,,,,,,,,8,,,,43,0
74763,note_on,60,0,12,,,,,,,,,11,,,,79,112
74764,note_on,0,0,2,,,,,,,,,1,,,,79,100
74764,note_on,0,0,2,,,,,,,,,1,,,,67,0
74764,note_on,120,0,2,,,,,,,,,1,,,,79,0
74764,note_on,0,0,2,,,,,,,,,1,,,,67,100
74767,note_on,0,0,8,,,,,,,,,7,,,,67,110
74767,note_on,10,0,8,,,,,,,,,7,,,,55,110
74768,note_on,60,0,13,,,,,,,,,12,,,,67,112
74768,note_on,0,0,13,,,,,,,,,12,,,,55,112
74769,note_on,120,0,4,,,,,,,,,3,,,,55,0
74769,note_on,0,0,4,,,,,,,,,3,,,,43,100
74769,note_on,0,0,4,,,,,,,,,3,,,,43,0
74769,note_on,0,0,4,,,,,,,,,3,,,,55,100
74772,note_on,60,0,14,,,,,,,,,13,,,,43,112
74773,note_on,10,0,9,,,,,,,,,8,,,,43,110
74774,note_on,60,0,15,,,,,,,,,14,,,,31,112
74775,note_on,120,0,10,,,,,,,,,15,,,,43,0
74775,note_on,0,0,10,,,,,,,,,15,,,,43,100
74820,note_on,60,0,11,,,,,,,,,10,,,,79,0
74823,note_on,60,0,12,,,,,,,,,11,,,,79,0
74828,note_on,60,0,13,,,,,,,,,12,,,,55,0
74828,note_on,0,0,13,,,,,,,,,12,,,,67,0
74832,note_on,60,0,14,,,,,,,,,13,,,,43,0
74834,note_on,60,0,15,,,,,,,,,14,,,,31,0
74872,note_on,110,0,7,,,,,,,,,6,,,,55,0
74872,note_on,0,0,7,,,,,,,,,6,,,,67,0
74877,note_on,0,0,8,,,,,,,,,7,,,,55,0
74877,note_on,110,0,8,,,,,,,,,7,,,,67,0
74880,set_tempo,120,1,0,,,,,,254237,,,,,,,,
74881,note_on,0,0,1,,,,,,,,,0,,,,79,0
74881,note_on,120,0,1,,,,,,,,,0,,,,91,0
74883,control_change,600,0,5,,,,,,,,,4,11,47,,,
74883,note_on,110,0,9,,,,,,,,,8,,,,43,0
74883,note_on,0,0,5,,,,,,,,,4,,,,67,115
74884,note_on,0,0,2,,,,,,,,,1,,,,67,0
74884,note_on,0,0,6,,,,,,,,,5,,,,55,115
74884,control_change,600,0,6,,,,,,,,,5,11,47,,,
74884,note_on,120,0,2,,,,,,,,,1,,,,79,0
74885,note_on,0,0,3,,,,,,,,,2,,,,79,116
74885,control_change,0,0,3,,,,,,,,,2,11,42,,,
74885,note_on,1020,0,3,,,,,,,,,2,,,,67,116
74889,note_on,0,0,4,,,,,,,,,3,,,,43,0
74889,note_on,120,0,4,,,,,,,,,3,,,,55,0
74895,note_on,120,0,10,,,,,,,,,15,,,,43,0
74943,note_on,60,0,5,,,,,,,,,4,,,,67,0
74944,note_on,60,0,6,,,,,,,,,5,,,,55,0
74945,note_on,0,0,3,,,,,,,,,2,,,,67,0
74945,note_on,60,0,3,,,,,,,,,2,,,,79,0
75000,set_tempo,120,1,0,,,,,,263158,,,,,,,,
75003,note_on,60,0,5,,,,,,,,,4,,,,67,100
75004,note_on,60,0,6,,,,,,,,,5,,,,55,100
75005,note_on,0,0,3,,,,,,,,,2,,,,67,101
75005,note_on,60,0,3,,,,,,,,,2,,,,79,101
75063,note_on,60,0,5,,,,,,,,,4,,,,67,0
75064,note_on,60,0,6,,,,,,,,,5,,,,55,0
75065,note_on,60,0,3,,,,,,,,,2,,,,67,0
75065,note_on,0,0,3,,,,,,,,,2,,,,79,0
75120,set_tempo,120,1,0,,,,,,308483,,,,,,,,
75123,note_on,60,0,5,,,,,,,,,4,,,,67,100
75124,note_on,60,0,6,,,,,,,,,5,,,,55,100
75125,note_on,0,0,3,,,,,,,,,2,,,,79,101
75125,note_on,60,0,3,,,,,,,,,2,,,,67,101
75183,note_on,60,0,5,,,,,,,,,4,,,,67,0
75184,note_on,60,0,6,,,,,,,,,5,,,,55,0
75185,note_on,0,0,3,,,,,,,,,2,,,,67,0
75185,note_on,60,0,3,,,,,,,,,2,,,,79,0
75240,set_tempo,120,1,0,,,,,,254237,,,,,,,,
75243,control_change,60,0,5,,,,,,,,,4,11,47,,,
75243,note_on,0,0,5,,,,,,,,,4,,,,65,100
75244,note_on,0,0,2,,,,,,,,,1,,,,65,100
75244,note_on,0,0,2,,,,,,,,,1,,,,67,115
75244,note_on,60,0,6,,,,,,,,,5,,,,62,100
75244,control_change,360,0,2,,,,,,,,,1,11,42,,,
75244,control_change,0,0,6,,,,,,,,,5,11,47,,,
75245,note_on,60,0,3,,,,,,,,,2,,,,67,116
75245,control_change,0,0,3,,,,,,,,,2,11,42,,,
75249,note_on,0,0,4,,,,,,,,,3,,,,55,100
75249,note_on,0,0,4,,,,,,,,,3,,,,59,100
75249,control_change,360,0,4,,,,,,,,,3,11,42,,,
75274,note_on,30,0,2,,,,,,,,,1,,,,67,0
75275,note_on,30,0,3,,,,,,,,,2,,,,67,0
75300,note_on,26,0,2,,,,,,,,,1,,,,67,100
75305,note_on,30,0,3,,,,,,,,,2,,,,67,101
75330,note_on,30,0,2,,,,,,,,,1,,,,67,0
75335,note_on,30,0,3,,,,,,,,,2,,,,67,0
75360,set_tempo,120,1,0,,,,,,263158,,,,,,,,
75364,note_on,34,0,2,,,,,,,,,1,,,,69,100
75365,note_on,30,0,3,,,,,,,,,2,,,,69,101
75424,note_on,0,0,2,,,,,,,,,1,,,,67,100
75424,note_on,60,0,2,,,,,,,,,1,,,,69,0
75425,note_on,0,0,3,,,,,,,,,2,,,,67,101
75425,note_on,60,0,3,,,,,,,,,2,,,,69,0
75480,set_tempo,120,1,0,,,,,,288462,,,,,,,,
75484,note_on,0,0,2,,,,,,,,,1,,,,69,100
75484,note_on,60,0,2,,,,,,,,,1,,,,67,0
75485,note_on,0,0,3,,,,,,,,,2,,,,69,101
75485,note_on,60,0,3,,,,,,,,,2,,,,67,0
75544,note_on,0,0,2,,,,,,,,,1,,,,67,100
75544,note_on,60,0,2,,,,,,,,,1,,,,69,0
75545,note_on,0,0,3,,,,,,,,,2,,,,67,101
75545,note_on,60,0,3,,,,,,,,,2,,,,69,0
75600,set_tempo,120,1,0,,,,,,258621,,,,,,,,
75603,note_on,360,0,5,,,,,,,,,4,,,,65,0
75603,note_on,0,0,5,,,,,,,,,4,,,,64,100
75604,note_on,60,0,2,,,,,,,,,1,,,,67,0
75604,note_on,0,0,6,,,,,,,,,5,,,,60,100
75604,note_on,360,0,6,,,,,,,,,5,,,,62,0
75604,note_on,0,0,2,,,,,,,,,1,,,,65,0
75604,note_on,0,0,2,,,,,,,,,1,,,,64,100
75604,note_on,0,0,2,,,,,,,,,1,,,,72,100
75605,note_on,0,0,3,,,,,,,,,2,,,,72,101
75605,note_on,60,0,3,,,,,,,,,2,,,,67,0
75609,note_on,0,0,4,,,,,,,,,3,,,,57,100
75609,note_on,0,0,4,,,,,,,,,3,,,,55,0
75609,note_on,0,0,4,,,,,,,,,3,,,,60,100
75609,note_on,360,0,4,,,,,,,,,3,,,,59,0
75663,note_on,60,0,5,,,,,,,,,4,,,,64,0
75664,note_on,0,0,2,,,,,,,,,1,,,,64,0
75664,note_on,60,0,2,,,,,,,,,1,,,,72,0
75664,note_on,60,0,6,,,,,,,,,5,,,,60,0
75665,note_on,60,0,3,,,,,,,,,2,,,,72,0
75669,note_on,60,0,4,,,,,,,,,3,,,,60,0
75669,note_on,0,0,4,,,,,,,,,3,,,,57,0
75723,note_on,60,0,5,,,,,,,,,4,,,,64,100
75724,note_on,60,0,6,,,,,,,,,5,,,,60,100
75724,note_on,0,0,2,,,,,,,,,1,,,,64,100
75724,note_on,60,0,2,,,,,,,,,1,,,,72,100
75725,note_on,60,0,3,,,,,,,,,2,,,,72,101
75729,note_on,60,0,4,,,,,,,,,3,,,,57,100
75783,note_on,60,0,5,,,,,,,,,4,,,,64,0
75784,note_on,60,0,2,,,,,,,,,1,,,,64,0
75784,note_on,60,0,6,,,,,,,,,5,,,,60,0
75784,note_on,0,0,2,,,,,,,,,1,,,,72,0
75785,note_on,60,0,3,,,,,,,,,2,,,,72,0
75789,note_on,60,0,4,,,,,,,,,3,,,,57,0
75840,set_tempo,240,1,0,,,,,,288462,,,,,,,,
75843,note_on,60,0,5,,,,,,,,,4,,,,64,100
75844,note_on,60,0,2,,,,,,,,,1,,,,64,100
75844,note_on,0,0,2,,,,,,,,,1,,,,72,100
75844,note_on,60,0,6,,,,,,,,,5,,,,60,100
75845,note_on,60,0,3,,,,,,,,,2,,,,72,101
75849,note_on,60,0,4,,,,,,,,,3,,,,57,100
75903,note_on,60,0,5,,,,,,,,,4,,,,64,0
75904,note_on,0,0,2,,,,,,,,,1,,,,64,0
75904,note_on,60,0,6,,,,,,,,,5,,,,60,0
75904,note_on,60,0,2,,,,,,,,,1,,,,72,0
75905,note_on,60,0,3,,,,,,,,,2,,,,72,0
75909,note_on,60,0,4,,,,,,,,,3,,,,57,0
75960,set_tempo,120,1,0,,,,,,254237,,,,,,,,
75963,note_on,60,0,5,,,,,,,,,4,,,,57,100
75964,note_on,60,0,6,,,,,,,,,5,,,,57,100
75964,note_on,0,0,2,,,,,,,,,1,,,,71,100
75964,note_on,60,0,2,,,,,,,,,1,,,,69,100
75965,note_on,60,0,3,,,,,,,,,2,,,,69,101
75965,note_on,0,0,3,,,,,,,,,2,,,,71,101
75969,note_on,60,0,4,,,,,,,,,3,,,,53,100
75994,note_on,30,0,2,,,,,,,,,1,,,,71,0
75995,note_on,30,0,3,,,,,,,,,2,,,,71,0
76023,note_on,60,0,5,,,,,,,,,4,,,,57,0
76024,note_on,60,0,6,,,,,,,,,5,,,,57,0
76024,note_on,30,0,2,,,,,,,,,1,,,,69,0
76024,note_on,0,0,2,,,,,,,,,1,,,,72,100
76025,note_on,30,0,3,,,,,,,,,2,,,,69,0
76025,note_on,0,0,3,,,,,,,,,2,,,,72,101
76029,note_on,60,0,4,,,,,,,,,3,,,,53,0
76054,note_on,30,0,2,,,,,,,,,1,,,,72,0
76055,note_on,30,0,3,,,,,,,,,2,,,,72,0
76080,set_tempo,120,1,0,,,,,,263158,,,,,,,,
76083,note_on,60,0,5,,,,,,,,,4,,,,57,100
76084,note_on,60,0,6,,,,,,,,,5,,,,57,100
76084,note_on,30,0,2,,,,,,,,,1,,,,69,100
76085,note_on,30,0,3,,,,,,,,,2,,,,69,101
76089,note_on,60,0,4,,,,,,,,,3,,,,53,100
76143,note_on,60,0,5,,,,,,,,,4,,,,57,0
76144,note_on,60,0,6,,,,,,,,,5,,,,57,0
76144,note_on,60,0,2,,,,,,,,,1,,,,69,0
76144,note_on,0,0,2,,,,,,,,,1,,,,71,100
76145,note_on,0,0,3,,,,,,,,,2,,,,71,101
76145,note_on,60,0,3,,,,,,,,,2,,,,69,0
76149,note_on,60,0,4,,,,,,,,,3,,,,53,0
76200,set_tempo,120,1,0,,,,,,288462,,,,,,,,
76203,note_on,60,0,5,,,,,,,,,4,,,,57,100
76204,note_on,0,0,2,,,,,,,,,1,,,,69,100
76204,note_on,60,0,2,,,,,,,,,1,,,,71,0
76204,note_on,0,0,2,,,,,,,,,1,,,,72,100
76204,note_on,60,0,6,,,,,,,,,5,,,,57,100
76205,note_on,60,0,3,,,,,,,,,2,,,,71,0
76205,note_on,0,0,3,,,,,,,,,2,,,,72,101
76205,note_on,0,0,3,,,,,,,,,2,,,,69,101
76209,note_on,0,0,4,,,,,,,,,3,,,,57,100
76209,note_on,60,0,4,,,,,,,,,3,,,,53,100
76263,note_on,60,0,5,,,,,,,,,4,,,,57,0
76264,note_on,0,0,2,,,,,,,,,1,,,,72,0
76264,note_on,60,0,2,,,,,,,,,1,,,,69,0
76264,note_on,60,0,6,,,,,,,,,5,,,,57,0
76264,note_on,0,0,2,,,,,,,,,1,,,,74,100
76265,note_on,0,0,3,,,,,,,,,2,,,,74,101
76265,note_on,0,0,3,,,,,,,,,2,,,,72,0
76265,note_on,60,0,3,,,,,,,,,2,,,,69,0
76269,note_on,0,0,4,,,,,,,,,3,,,,53,0
76269,note_on,60,0,4,,,,,,,,,3,,,,57,0
76320,set_tempo,120,1,0,,,,,,254237,,,,,,,,
76323,note_on,0,0,5,,,,,,,,,4,,,,64,100
76323,control_change,60,0,5,,,,,,,,,4,11,52,,,
76324,note_on,60,0,2,,,,,,,,,1,,,,74,0
76324,note_on,0,0,6,,,,,,,,,5,,,,52,100
76324,control_change,60,0,6,,,,,,,,,5,11,52,,,
76324,control_change,0,0,2,,,,,,,,,1,11,47,,,
76324,note_on,0,0,2,,,,,,,,,1,,,,76,100
76325,note_on,0,0,3,,,,,,,,,2,,,,76,101
76325,control_change,0,0,3,,,,,,,,,2,11,47,,,
76325,note_on,60,0,3,,,,,,,,,2,,,,74,0
76327,control_change,4,0,5,,,,,,,,,4,11,55,,,
76328,control_change,4,0,6,,,,,,,,,5,11,55,,,
76328,control_change,4,0,2,,,,,,,,,1,11,50,,,
76329,note_on,0,0,4,,,,,,,,,3,,,,52,100
76329,note_on,0,0,4,,,,,,,,,3,,,,59,100
76329,control_change,60,0,4,,,,,,,,,3,11,47,,,
76329,control_change,4,0,3,,,,,,,,,2,11,50,,,
76332,control_change,5,0,5,,,,,,,,,4,11,58,,,
76333,control_change,5,0,6,,,,,,,,,5,11,58,,,
76333,control_change,4,0,4,,,,,,,,,3,11,50,,,
76336,control_change,4,0,5,,,,,,,,,4,11,61,,,
76337,control_change,9,0,2,,,,,,,,,1,11,55,,,
76337,control_change,4,0,6,,,,,,,,,5,11,61,,,
76338,control_change,9,0,3,,,,,,,,,2,11,55,,,
76338,control_change,5,0,4,,,,,,,,,3,11,53,,,
76341,control_change,5,0,5,,,,,,,,,4,11,64,,,
76342,control_change,4,0,4,,,,,,,,,3,11,56,,,
76342,control_change,5,0,6,,,,,,,,,5,11,64,,,
76345,control_change,4,0,5,,,,,,,,,4,11,67,,,
76346,control_change,9,0,2,,,,,,,,,1,11,59,,,
76346,control_change,4,0,6,,,,,,,,,5,11,67,,,
76347,control_change,9,0,3,,,,,,,,,2,11,59,,,
76347,control_change,5,0,4,,,,,,,,,3,11,59,,,
76350,control_change,5,0,5,,,,,,,,,4,11,70,,,
76351,control_change,4,0,4,,,,,,,,,3,11,62,,,
76351,control_change,5,0,6,,,,,,,,,5,11,70,,,
76356,control_change,5,0,4,,,,,,,,,3,11,65,,,
76367,control_change,17,0,5,,,,,,,,,4,11,68,,,
76368,control_change,22,0,2,,,,,,,,,1,11,60,,,
76368,control_change,17,0,6,,,,,,,,,5,11,68,,,
76369,control_change,22,0,3,,,,,,,,,2,11,60,,,
76373,control_change,17,0,4,,,,,,,,,3,11,63,,,
76378,control_change,11,0,5,,,,,,,,,4,11,65,,,
76379,control_change,11,0,6,,,,,,,,,5,11,65,,,
76384,control_change,11,0,4,,,,,,,,,3,11,60,,,
76389,control_change,11,0,5,,,,,,,,,4,11,62,,,
76390,control_change,11,0,6,,,,,,,,,5,11,62,,,
76390,control_change,22,0,2,,,,,,,,,1,11,55,,,
76391,control_change,22,0,3,,,,,,,,,2,11,55,,,
76395,control_change,11,0,4,,,,,,,,,3,11,57,,,
76399,control_change,10,0,5,,,,,,,,,4,11,59,,,
76400,control_change,10,0,6,,,,,,,,,5,11,59,,,
76405,control_change,10,0,4,,,,,,,,,3,11,54,,,
76410,control_change,11,0,5,,,,,,,,,4,11,56,,,
76411,control_change,21,0,2,,,,,,,,,1,11,51,,,
76411,control_change,11,0,6,,,,,,,,,5,11,56,,,
76412,control_change,21,0,3,,,,,,,,,2,11,51,,,
76416,control_change,11,0,4,,,,,,,,,3,11,51,,,
76421,control_change,11,0,5,,,,,,,,,4,11,53,,,
76422,control_change,11,0,6,,,,,,,,,5,11,53,,,
76422,control_change,11,0,2,,,,,,,,,1,11,48,,,
76423,control_change,11,0,3,,,,,,,,,2,11,48,,,
76427,control_change,11,0,4,,,,,,,,,3,11,48,,,
76432,control_change,11,0,5,,,,,,,,,4,11,50,,,
76433,control_change,11,0,6,,,,,,,,,5,11,50,,,
76433,control_change,11,0,2,,,,,,,,,1,11,45,,,
76434,control_change,11,0,3,,,,,,,,,2,11,45,,,
76438,control_change,11,0,4,,,,,,,,,3,11,45,,,
76440,set_tempo,120,1,0,,,,,,263158,,,,,,,,
76443,control_change,11,0,5,,,,,,,,,4,11,47,,,
76444,control_change,11,0,2,,,,,,,,,1,11,42,,,
76444,control_change,11,0,6,,,,,,,,,5,11,47,,,
76445,control_change,11,0,3,,,,,,,,,2,11,42,,,
76449,control_change,11,0,4,,,,,,,,,3,11,42,,,
76560,set_tempo,120,1,0,,,,,,307692,,,,,,,,
76649,note_on,205,0,2,,,,,,,,,1,,,,76,0
76650,note_on,205,0,3,,,,,,,,,2,,,,76,0
76654,note_on,0,0,4,,,,,,,,,3,,,,59,0
76654,note_on,205,0,4,,,,,,,,,3,,,,52,0
76680,set_tempo,120,1,0,,,,,,254237,,,,,,,,
76680,note_on,0,0,11,,,,,,,,,10,,,,79,127
76680,control_change,1860,0,11,,,,,,,,,10,11,41,,,
76683,note_on,240,0,5,,,,,,,,,4,,,,64,0
76683,note_on,0,0,12,,,,,,,,,11,,,,71,112
76683,control_change,1860,0,12,,,,,,,,,11,11,41,,,
76684,note_on,240,0,6,,,,,,,,,5,,,,52,0
76710,note_on,30,0,11,,,,,,,,,10,,,,79,0
76740,note_on,30,0,11,,,,,,,,,10,,,,79,112
76743,note_on,60,0,12,,,,,,,,,11,,,,71,0
76770,note_on,30,0,11,,,,,,,,,10,,,,79,0
76800,set_tempo,120,1,0,,,,,,263158,,,,,,,,
76800,note_on,30,0,11,,,,,,,,,10,,,,81,112
76803,note_on,60,0,12,,,,,,,,,11,,,,71,112
76830,note_on,30,0,11,,,,,,,,,10,,,,81,0
76860,note_on,30,0,11,,,,,,,,,10,,,,79,112
76863,note_on,60,0,12,,,,,,,,,11,,,,71,0
76890,note_on,30,0,11,,,,,,,,,10,,,,79,0
76920,note_on,30,0,11,,,,,,,,,10,,,,81,112
76920,set_tempo,120,1,0,,,,,,288462,,,,,,,,
76923,note_on,60,0,12,,,,,,,,,11,,,,71,112
76950,note_on,30,0,11,,,,,,,,,10,,,,81,0
76980,note_on,30,0,11,,,,,,,,,10,,,,79,112
76983,note_on,60,0,12,,,,,,,,,11,,,,71,0
77010,note_on,30,0,11,,,,,,,,,10,,,,79,0
77040,set_tempo,120,1,0,,,,,,254237,,,,,,,,
77040,note_on,30,0,11,,,,,,,,,10,,,,76,112
77043,note_on,60,0,12,,,,,,,,,11,,,,72,127
77073,note_on,30,0,12,,,,,,,,,11,,,,72,0
77100,note_on,60,0,11,,,,,,,,,10,,,,76,0
77103,note_on,30,0,12,,,,,,,,,11,,,,72,112
77133,note_on,30,0,12,,,,,,,,,11,,,,72,0
77160,set_tempo,120,1,0,,,,,,263158,,,,,,,,
77160,note_on,60,0,11,,,,,,,,,10,,,,76,112
77163,note_on,30,0,12,,,,,,,,,11,,,,74,112
77193,note_on,30,0,12,,,,,,,,,11,,,,74,0
77220,note_on,60,0,11,,,,,,,,,10,,,,76,0
77223,note_on,30,0,12,,,,,,,,,11,,,,72,112
77253,note_on,30,0,12,,,,,,,,,11,,,,72,0
77280,note_on,60,0,11,,,,,,,,,10,,,,76,112
77280,set_tempo,120,1,0,,,,,,288462,,,,,,,,
77283,note_on,30,0,12,,,,,,,,,11,,,,74,112
77313,note_on,30,0,12,,,,,,,,,11,,,,74,0
77340,note_on,60,0,11,,,,,,,,,10,,,,76,0
77343,note_on,30,0,12,,,,,,,,,11,,,,72,112
77373,note_on,30,0,12,,,,,,,,,11,,,,72,0
77400,set_tempo,120,1,0,,,,,,254237,,,,,,,,
77400,note_on,60,0,11,,,,,,,,,10,,,,74,112
77403,note_on,30,0,12,,,,,,,,,11,,,,70,112
77407,program_change,2579,0,13,,,,,,,,48,12,,,,,
77408,control_change,1,0,13,,,,,,,,,12,11,41,,,
77408,note_on,0,0,13,,,,,,,,,12,,,,67,127
77438,note_on,30,0,13,,,,,,,,,12,,,,67,0
77460,note_on,60,0,11,,,,,,,,,10,,,,74,0
77463,note_on,60,0,12,,,,,,,,,11,,,,70,0
77468,note_on,30,0,13,,,,,,,,,12,,,,67,112
77498,note_on,30,0,13,,,,,,,,,12,,,,67,0
77520,set_tempo,120,1,0,,,,,,263158,,,,,,,,
77520,note_on,60,0,11,,,,,,,,,10,,,,74,112
77523,note_on,60,0,12,,,,,,,,,11,,,,70,112
77528,note_on,30,0,13,,,,,,,,,12,,,,69,112
77558,note_on,30,0,13,,,,,,,,,12,,,,69,0
77580,note_on,60,0,11,,,,,,,,,10,,,,74,0
77583,note_on,60,0,12,,,,,,,,,11,,,,70,0
77588,note_on,30,0,13,,,,,,,,,12,,,,67,112
77618,note_on,30,0,13,,,,,,,,,12,,,,67,0
77640,set_tempo,120,1,0,,,,,,288462,,,,,,,,
77640,note_on,60,0,11,,,,,,,,,10,,,,74,112
77643,note_on,60,0,12,,,,,,,,,11,,,,70,112
77648,note_on,30,0,13,,,,,,,,,12,,,,69,112
77678,note_on,30,0,13,,,,,,,,,12,,,,69,0
77700,note_on,60,0,11,,,,,,,,,10,,,,74,0
77703,note_on,60,0,12,,,,,,,,,11,,,,70,0
77708,note_on,30,0,13,,,,,,,,,12,,,,67,112
77738,note_on,30,0,13,,,,,,,,,12,,,,67,0
77760,set_tempo,120,1,0,,,,,,254237,,,,,,,,
77760,note_on,60,0,11,,,,,,,,,10,,,,73,112
77763,note_on,60,0,12,,,,,,,,,11,,,,69,112
77768,note_on,30,0,13,,,,,,,,,12,,,,64,112
77772,note_on,2940,0,14,,,,,,,,,13,,,,57,127
77772,control_change,0,0,14,,,,,,,,,13,11,41,,,
77802,note_on,30,0,14,,,,,,,,,13,,,,57,0
77828,note_on,60,0,13,,,,,,,,,12,,,,64,0
77832,note_on,30,0,14,,,,,,,,,13,,,,57,112
77862,note_on,30,0,14,,,,,,,,,13,,,,57,0
77880,set_tempo,120,1,0,,,,,,263158,,,,,,,,
77888,note_on,60,0,13,,,,,,,,,12,,,,64,112
77892,note_on,30,0,14,,,,,,,,,13,,,,59,112
77922,note_on,30,0,14,,,,,,,,,13,,,,59,0
77948,note_on,60,0,13,,,,,,,,,12,,,,64,0
77952,note_on,30,0,14,,,,,,,,,13,,,,57,112
77982,note_on,30,0,14,,,,,,,,,13,,,,57,0
78000,set_tempo,120,1,0,,,,,,288462,,,,,,,,
78008,note_on,60,0,13,,,,,,,,,12,,,,64,112
78012,note_on,30,0,14,,,,,,,,,13,,,,59,112
78042,note_on,30,0,14,,,,,,,,,13,,,,59,0
78068,note_on,60,0,13,,,,,,,,,12,,,,64,0
78072,note_on,30,0,14,,,,,,,,,13,,,,57,112
78102,note_on,30,0,14,,,,,,,,,13,,,,57,0
78120,set_tempo,120,1,0,,,,,,254237,,,,,,,,
78120,note_on,0,0,11,,,,,,,,,10,,,,74,112
78120,note_on,360,0,11,,,,,,,,,10,,,,73,0
78123,note_on,360,0,12,,,,,,,,,11,,,,69,0
78123,note_on,0,0,12,,,,,,,,,11,,,,65,112
78128,note_on,60,0,13,,,,,,,,,12,,,,62,112
78132,note_on,30,0,14,,,,,,,,,13,,,,50,127
78134,control_change,3300,0,15,,,,,,,,,14,11,41,,,
78134,note_on,0,0,15,,,,,,,,,14,,,,38,127
78162,note_on,30,0,14,,,,,,,,,13,,,,50,0
78164,note_on,30,0,15,,,,,,,,,14,,,,38,0
78180,note_on,60,0,11,,,,,,,,,10,,,,74,0
78192,note_on,30,0,14,,,,,,,,,13,,,,50,112
78194,note_on,30,0,15,,,,,,,,,14,,,,38,112
78222,note_on,30,0,14,,,,,,,,,13,,,,50,0
78224,note_on,30,0,15,,,,,,,,,14,,,,38,0
78240,note_on,60,0,11,,,,,,,,,10,,,,74,112
78240,set_tempo,120,1,0,,,,,,263158,,,,,,,,
78252,note_on,30,0,14,,,,,,,,,13,,,,52,112
78254,note_on,30,0,15,,,,,,,,,14,,,,40,112
78282,note_on,30,0,14,,,,,,,,,13,,,,52,0
78284,note_on,30,0,15,,,,,,,,,14,,,,40,0
78300,note_on,60,0,11,,,,,,,,,10,,,,74,0
78312,note_on,30,0,14,,,,,,,,,13,,,,50,112
78314,note_on,30,0,15,,,,,,,,,14,,,,38,112
78342,note_on,30,0,14,,,,,,,,,13,,,,50,0
78344,note_on,30,0,15,,,,,,,,,14,,,,38,0
78360,note_on,60,0,11,,,,,,,,,10,,,,74,112
78360,set_tempo,120,1,0,,,,,,288462,,,,,,,,
78372,note_on,30,0,14,,,,,,,,,13,,,,52,112
78374,note_on,30,0,15,,,,,,,,,14,,,,40,112
78402,note_on,30,0,14,,,,,,,,,13,,,,52,0
78404,note_on,30,0,15,,,,,,,,,14,,,,40,0
78420,note_on,60,0,11,,,,,,,,,10,,,,74,0
78432,note_on,30,0,14,,,,,,,,,13,,,,50,112
78434,note_on,30,0,15,,,,,,,,,14,,,,38,112
78462,note_on,30,0,14,,,,,,,,,13,,,,50,0
78464,note_on,30,0,15,,,,,,,,,14,,,,38,0
78480,note_on,60,0,11,,,,,,,,,10,,,,76,112
78480,set_tempo,120,1,0,,,,,,254237,,,,,,,,
78483,note_on,0,0,12,,,,,,,,,11,,,,68,127
78483,note_on,360,0,12,,,,,,,,,11,,,,65,0
78488,note_on,0,0,13,,,,,,,,,12,,,,62,112
78488,note_on,360,0,13,,,,,,,,,12,,,,62,0
78492,note_on,30,0,14,,,,,,,,,13,,,,46,112
78494,note_on,30,0,15,,,,,,,,,14,,,,34,112
78513,note_on,30,0,12,,,,,,,,,11,,,,68,0
78540,note_on,60,0,11,,,,,,,,,10,,,,76,0
78543,note_on,30,0,12,,,,,,,,,11,,,,68,112
78548,note_on,60,0,13,,,,,,,,,12,,,,62,0
78552,note_on,60,0,14,,,,,,,,,13,,,,46,0
78554,note_on,60,0,15,,,,,,,,,14,,,,34,0
78573,note_on,30,0,12,,,,,,,,,11,,,,68,0
78600,note_on,60,0,11,,,,,,,,,10,,,,76,112
78600,set_tempo,120,1,0,,,,,,263158,,,,,,,,
78603,note_on,30,0,12,,,,,,,,,11,,,,69,112
78608,note_on,60,0,13,,,,,,,,,12,,,,62,112
78612,note_on,60,0,14,,,,,,,,,13,,,,46,112
78614,note_on,60,0,15,,,,,,,,,14,,,,34,112
78633,note_on,30,0,12,,,,,,,,,11,,,,69,0
78660,note_on,60,0,11,,,,,,,,,10,,,,76,0
78663,note_on,30,0,12,,,,,,,,,11,,,,68,112
78668,note_on,60,0,13,,,,,,,,,12,,,,62,0
78672,note_on,60,0,14,,,,,,,,,13,,,,46,0
78674,note_on,60,0,15,,,,,,,,,14,,,,34,0
78693,note_on,30,0,12,,,,,,,,,11,,,,68,0
78720,set_tempo,120,1,0,,,,,,288462,,,,,,,,
78720,note_on,60,0,11,,,,,,,,,10,,,,76,112
78723,note_on,30,0,12,,,,,,,,,11,,,,69,112
78728,note_on,60,0,13,,,,,,,,,12,,,,62,112
78732,note_on,60,0,14,,,,,,,,,13,,,,46,112
78734,note_on,60,0,15,,,,,,,,,14,,,,34,112
78753,note_on,30,0,12,,,,,,,,,11,,,,69,0
78780,note_on,60,0,11,,,,,,,,,10,,,,76,0
78783,note_on,30,0,12,,,,,,,,,11,,,,68,112
78788,note_on,60,0,13,,,,,,,,,12,,,,62,0
78792,note_on,60,0,14,,,,,,,,,13,,,,46,0
78794,note_on,60,0,15,,,,,,,,,14,,,,34,0
78813,note_on,30,0,12,,,,,,,,,11,,,,68,0
78840,set_tempo,120,1,0,,,,,,254237,,,,,,,,
78840,note_on,60,0,11,,,,,,,,,10,,,,81,127
78843,note_on,30,0,12,,,,,,,,,11,,,,67,112
78848,note_on,60,0,13,,,,,,,,,12,,,,61,127
78852,note_on,60,0,14,,,,,,,,,13,,,,45,112
78854,note_on,60,0,15,,,,,,,,,14,,,,33,112
78870,note_on,30,0,11,,,,,,,,,10,,,,81,0
78878,note_on,30,0,13,,,,,,,,,12,,,,61,0
78900,note_on,30,0,11,,,,,,,,,10,,,,81,112
78903,note_on,60,0,12,,,,,,,,,11,,,,67,0
78908,note_on,30,0,13,,,,,,,,,12,,,,62,112
78912,note_on,60,0,14,,,,,,,,,13,,,,45,0
78914,note_on,60,0,15,,,,,,,,,14,,,,33,0
78930,note_on,30,0,11,,,,,,,,,10,,,,81,0
78938,note_on,30,0,13,,,,,,,,,12,,,,62,0
78960,note_on,30,0,11,,,,,,,,,10,,,,82,112
78960,set_tempo,120,1,0,,,,,,263158,,,,,,,,
78963,note_on,60,0,12,,,,,,,,,11,,,,67,112
78968,note_on,30,0,13,,,,,,,,,12,,,,61,112
78972,note_on,60,0,14,,,,,,,,,13,,,,45,112
78974,note_on,60,0,15,,,,,,,,,14,,,,33,112
78990,note_on,30,0,11,,,,,,,,,10,,,,82,0
78998,note_on,30,0,13,,,,,,,,,12,,,,61,0
79020,note_on,30,0,11,,,,,,,,,10,,,,81,112
79023,note_on,60,0,12,,,,,,,,,11,,,,67,0
79028,note_on,30,0,13,,,,,,,,,12,,,,62,112
79032,note_on,60,0,14,,,,,,,,,13,,,,45,0
79034,note_on,60,0,15,,,,,,,,,14,,,,33,0
79050,note_on,30,0,11,,,,,,,,,10,,,,81,0
79058,note_on,30,0,13,,,,,,,,,12,,,,62,0
79080,set_tempo,120,1,0,,,,,,288462,,,,,,,,
79080,note_on,30,0,11,,,,,,,,,10,,,,82,112
79083,note_on,60,0,12,,,,,,,,,11,,,,67,112
79088,note_on,30,0,13,,,,,,,,,12,,,,61,112
79092,note_on,60,0,14,,,,,,,,,13,,,,45,112
79094,note_on,60,0,15,,,,,,,,,14,,,,33,112
79110,note_on,30,0,11,,,,,,,,,10,,,,82,0
79118,note_on,30,0,13,,,,,,,,,12,,,,61,0
79140,note_on,30,0,11,,,,,,,,,10,,,,81,112
79143,note_on,60,0,12,,,,,,,,,11,,,,67,0
79148,note_on,30,0,13,,,,,,,,,12,,,,62,112
79152,note_on,60,0,14,,,,,,,,,13,,,,45,0
79154,note_on,60,0,15,,,,,,,,,14,,,,33,0
79170,note_on,30,0,11,,,,,,,,,10,,,,81,0
79178,note_on,30,0,13,,,,,,,,,12,,,,62,0
79200,set_tempo,120,1,0,,,,,,254237,,,,,,,,
79200,note_on,30,0,11,,,,,,,,,10,,,,86,112
79203,note_on,60,0,12,,,,,,,,,11,,,,65,112
79208,note_on,30,0,13,,,,,,,,,12,,,,62,112
79212,note_on,60,0,14,,,,,,,,,13,,,,38,112
79214,note_on,60,0,15,,,,,,,,,14,,,,26,112
79260,note_on,60,0,11,,,,,,,,,10,,,,86,0
79263,note_on,60,0,12,,,,,,,,,11,,,,65,0
79268,note_on,60,0,13,,,,,,,,,12,,,,62,0
79272,note_on,60,0,14,,,,,,,,,13,,,,38,0
79274,note_on,60,0,15,,,,,,,,,14,,,,26,0
79320,set_tempo,120,1,0,,,,,,263158,,,,,,,,
79320,note_on,60,0,11,,,,,,,,,10,,,,86,112
79380,note_on,60,0,11,,,,,,,,,10,,,,86,0
79440,set_tempo,120,1,0,,,,,,307692,,,,,,,,
79440,note_on,60,0,11,,,,,,,,,10,,,,86,112
79500,note_on,60,0,11,,,,,,,,,10,,,,86,0
79560,set_tempo,120,1,0,,,,,,254237,,,,,,,,
79561,note_on,4680,0,1,,,,,,,,,0,,,,79,116
79561,control_change,0,0,1,,,,,,,,,0,11,42,,,
79563,control_change,0,0,5,,,,,,,,,4,11,47,,,
79563,note_on,2880,0,5,,,,,,,,,4,,,,65,100
79564,control_change,2915,0,2,,,,,,,,,1,11,42,,,
79564,note_on,0,0,2,,,,,,,,,1,,,,65,100
79564,note_on,0,0,2,,,,,,,,,1,,,,67,115
79564,control_change,2880,0,6,,,,,,,,,5,11,47,,,
79564,note_on,0,0,6,,,,,,,,,5,,,,62,100
79565,note_on,2915,0,3,,,,,,,,,2,,,,67,116
79565,control_change,0,0,3,,,,,,,,,2,11,42,,,
79569,note_on,2915,0,4,,,,,,,,,3,,,,55,100
79569,control_change,0,0,4,,,,,,,,,3,11,42,,,
79569,note_on,0,0,4,,,,,,,,,3,,,,59,100
79591,note_on,30,0,1,,,,,,,,,0,,,,79,0
79594,note_on,30,0,2,,,,,,,,,1,,,,67,0
79595,note_on,30,0,3,,,,,,,,,2,,,,67,0
79621,note_on,30,0,1,,,,,,,,,0,,,,79,101
79624,note_on,30,0,2,,,,,,,,,1,,,,67,100
79625,note_on,30,0,3,,,,,,,,,2,,,,67,101
79651,note_on,30,0,1,,,,,,,,,0,,,,79,0
79654,note_on,30,0,2,,,,,,,,,1,,,,67,0
79655,note_on,30,0,3,,,,,,,,,2,,,,67,0
79680,set_tempo,120,1,0,,,,,,263158,,,,,,,,
79681,note_on,30,0,1,,,,,,,,,0,,,,81,101
79684,note_on,30,0,2,,,,,,,,,1,,,,69,100
79685,note_on,30,0,3,,,,,,,,,2,,,,69,101
79741,note_on,60,0,1,,,,,,,,,0,,,,81,0
79741,note_on,0,0,1,,,,,,,,,0,,,,79,101
79744,note_on,60,0,2,,,,,,,,,1,,,,69,0
79744,note_on,0,0,2,,,,,,,,,1,,,,67,100
79745,note_on,0,0,3,,,,,,,,,2,,,,67,101
79745,note_on,60,0,3,,,,,,,,,2,,,,69,0
79800,set_tempo,120,1,0,,,,,,288462,,,,,,,,
79801,note_on,0,0,1,,,,,,,,,0,,,,81,101
79801,note_on,60,0,1,,,,,,,,,0,,,,79,0
79804,note_on,0,0,2,,,,,,,,,1,,,,69,100
79804,note_on,60,0,2,,,,,,,,,1,,,,67,0
79805,note_on,60,0,3,,,,,,,,,2,,,,67,0
79805,note_on,0,0,3,,,,,,,,,2,,,,69,101
79834,note_on,30,0,2,,,,,,,,,1,,,,65,0
79861,note_on,0,0,1,,,,,,,,,0,,,,79,101
79861,note_on,60,0,1,,,,,,,,,0,,,,81,0
79864,note_on,30,0,2,,,,,,,,,1,,,,69,0
79864,note_on,0,0,2,,,,,,,,,1,,,,67,100
79865,note_on,60,0,3,,,,,,,,,2,,,,69,0
79865,note_on,0,0,3,,,,,,,,,2,,,,67,101
79920,set_tempo,120,1,0,,,,,,258621,,,,,,,,
79921,note_on,0,0,1,,,,,,,,,0,,,,84,101
79921,note_on,60,0,1,,,,,,,,,0,,,,79,0
79923,note_on,360,0,5,,,,,,,,,4,,,,65,0
79923,note_on,0,0,5,,,,,,,,,4,,,,64,100
79924,note_on,360,0,6,,,,,,,,,5,,,,62,0
79924,note_on,0,0,6,,,,,,,,,5,,,,60,100
79924,note_on,0,0,2,,,,,,,,,1,,,,64,100
79924,note_on,0,0,2,,,,,,,,,1,,,,72,100
79924,note_on,60,0,2,,,,,,,,,1,,,,67,0
79925,note_on,60,0,3,,,,,,,,,2,,,,67,0
79925,note_on,0,0,3,,,,,,,,,2,,,,72,101
79929,note_on,0,0,4,,,,,,,,,3,,,,55,0
79929,note_on,0,0,4,,,,,,,,,3,,,,57,100
79929,note_on,360,0,4,,,,,,,,,3,,,,59,0
79929,note_on,0,0,4,,,,,,,,,3,,,,60,100
79981,note_on,60,0,1,,,,,,,,,0,,,,84,0
79983,note_on,60,0,5,,,,,,,,,4,,,,64,0
79984,note_on,60,0,6,,,,,,,,,5,,,,60,0
79984,note_on,60,0,2,,,,,,,,,1,,,,72,0
79984,note_on,0,0,2,,,,,,,,,1,,,,64,0
79985,note_on,60,0,3,,,,,,,,,2,,,,72,0
79989,note_on,0,0,4,,,,,,,,,3,,,,57,0
79989,note_on,60,0,4,,,,,,,,,3,,,,60,0
80041,note_on,60,0,1,,,,,,,,,0,,,,84,101
80043,note_on,60,0,5,,,,,,,,,4,,,,64,100
80044,note_on,60,0,6,,,,,,,,,5,,,,60,100
80044,note_on,0,0,2,,,,,,,,,1,,,,64,100
80044,note_on,60,0,2,,,,,,,,,1,,,,72,100
80045,note_on,60,0,3,,,,,,,,,2,,,,72,101
80049,note_on,60,0,4,,,,,,,,,3,,,,57,100
80101,note_on,60,0,1,,,,,,,,,0,,,,84,0
80103,note_on,60,0,5,,,,,,,,,4,,,,64,0
80104,note_on,60,0,6,,,,,,,,,5,,,,60,0
80104,note_on,0,0,2,,,,,,,,,1,,,,72,0
80104,note_on,60,0,2,,,,,,,,,1,,,,64,0
80105,note_on,60,0,3,,,,,,,,,2,,,,72,0
80109,note_on,60,0,4,,,,,,,,,3,,,,57,0
80160,set_tempo,240,1,0,,,,,,288462,,,,,,,,
80161,note_on,60,0,1,,,,,,,,,0,,,,84,101
80163,note_on,60,0,5,,,,,,,,,4,,,,64,100
80164,note_on,60,0,2,,,,,,,,,1,,,,64,100
80164,note_on,0,0,2,,,,,,,,,1,,,,72,100
80164,note_on,60,0,6,,,,,,,,,5,,,,60,100
80165,note_on,60,0,3,,,,,,,,,2,,,,72,101
80169,note_on,60,0,4,,,,,,,,,3,,,,57,100
80221,note_on,60,0,1,,,,,,,,,0,,,,84,0
80223,note_on,60,0,5,,,,,,,,,4,,,,64,0
80224,note_on,0,0,2,,,,,,,,,1,,,,64,0
80224,note_on,60,0,2,,,,,,,,,1,,,,72,0
80224,note_on,60,0,6,,,,,,,,,5,,,,60,0
80225,note_on,60,0,3,,,,,,,,,2,,,,72,0
80229,note_on,60,0,4,,,,,,,,,3,,,,57,0
80280,set_tempo,120,1,0,,,,,,254237,,,,,,,,
80281,note_on,60,0,1,,,,,,,,,0,,,,86,101
80283,note_on,60,0,5,,,,,,,,,4,,,,62,100
80284,note_on,60,0,6,,,,,,,,,5,,,,57,100
80284,note_on,0,0,2,,,,,,,,,1,,,,69,100
80284,note_on,60,0,2,,,,,,,,,1,,,,74,100
80285,note_on,0,0,3,,,,,,,,,2,,,,74,101
80285,note_on,60,0,3,,,,,,,,,2,,,,69,101
80289,note_on,60,0,4,,,,,,,,,3,,,,53,100
80341,note_on,0,0,1,,,,,,,,,0,,,,88,101
80341,note_on,60,0,1,,,,,,,,,0,,,,86,0
80344,note_on,0,0,2,,,,,,,,,1,,,,76,100
80344,note_on,60,0,2,,,,,,,,,1,,,,74,0
80345,note_on,60,0,3,,,,,,,,,2,,,,74,0
80345,note_on,0,0,3,,,,,,,,,2,,,,76,101
80400,set_tempo,120,1,0,,,,,,263158,,,,,,,,
80401,note_on,60,0,1,,,,,,,,,0,,,,88,0
80401,note_on,0,0,1,,,,,,,,,0,,,,89,101
80404,note_on,0,0,2,,,,,,,,,1,,,,77,100
80404,note_on,60,0,2,,,,,,,,,1,,,,76,0
80405,note_on,0,0,3,,,,,,,,,2,,,,77,101
80405,note_on,60,0,3,,,,,,,,,2,,,,76,0
80461,note_on,0,0,1,,,,,,,,,0,,,,91,101
80461,note_on,60,0,1,,,,,,,,,0,,,,89,0
80464,note_on,60,0,2,,,,,,,,,1,,,,77,0
80464,note_on,0,0,2,,,,,,,,,1,,,,79,100
80465,note_on,0,0,3,,,,,,,,,2,,,,79,101
80465,note_on,60,0,3,,,,,,,,,2,,,,77,0
80520,set_tempo,120,1,0,,,,,,315789,,,,,,,,
80521,note_on,0,0,1,,,,,,,,,0,,,,93,101
80521,note_on,60,0,1,,,,,,,,,0,,,,91,0
80523,note_on,240,0,5,,,,,,,,,4,,,,62,0
80523,note_on,0,0,5,,,,,,,,,4,,,,65,100
80524,note_on,240,0,6,,,,,,,,,5,,,,57,0
80524,note_on,60,0,2,,,,,,,,,1,,,,79,0
80524,note_on,0,0,6,,,,,,,,,5,,,,62,100
80524,note_on,0,0,2,,,,,,,,,1,,,,69,100
80524,note_on,0,0,2,,,,,,,,,1,,,,81,100
80524,note_on,0,0,2,,,,,,,,,1,,,,69,0
80525,note_on,0,0,3,,,,,,,,,2,,,,81,101
80525,note_on,0,0,3,,,,,,,,,2,,,,69,101
80525,note_on,0,0,3,,,,,,,,,2,,,,69,0
80525,note_on,60,0,3,,,,,,,,,2,,,,79,0
80529,note_on,0,0,4,,,,,,,,,3,,,,50,100
80529,note_on,240,0,4,,,,,,,,,3,,,,53,0
80581,note_on,60,0,1,,,,,,,,,0,,,,93,0
80584,note_on,60,0,2,,,,,,,,,1,,,,81,0
80585,note_on,60,0,3,,,,,,,,,2,,,,81,0
80640,set_tempo,120,1,0,,,,,,254237,,,,,,,,
80641,note_on,0,0,1,,,,,,,,,0,,,,88,101
80641,control_change,60,0,1,,,,,,,,,0,11,47,,,
80643,control_change,0,0,5,,,,,,,,,4,11,52,,,
80643,note_on,0,0,5,,,,,,,,,4,,,,64,100
80643,note_on,120,0,5,,,,,,,,,4,,,,65,0
80644,note_on,0,0,6,,,,,,,,,5,,,,60,100
80644,control_change,0,0,6,,,,,,,,,5,11,52,,,
80644,note_on,120,0,6,,,,,,,,,5,,,,62,0
80644,control_change,0,0,2,,,,,,,,,1,11,47,,,
80644,note_on,0,0,2,,,,,,,,,1,,,,76,100
80644,note_on,60,0,2,,,,,,,,,1,,,,69,0
80645,note_on,60,0,3,,,,,,,,,2,,,,69,0
80645,note_on,0,0,3,,,,,,,,,2,,,,69,101
80645,note_on,0,0,3,,,,,,,,,2,,,,76,101
80645,control_change,0,0,3,,,,,,,,,2,11,47,,,
80645,control_change,4,0,1,,,,,,,,,0,11,50,,,
80647,control_change,4,0,5,,,,,,,,,4,11,55,,,
80648,control_change,4,0,6,,,,,,,,,5,11,55,,,
80648,control_change,4,0,2,,,,,,,,,1,11,50,,,
80649,note_on,120,0,4,,,,,,,,,3,,,,50,0
80649,control_change,0,0,4,,,,,,,,,3,11,47,,,
80649,note_on,0,0,4,,,,,,,,,3,,,,57,100
80649,control_change,4,0,3,,,,,,,,,2,11,50,,,
80652,control_change,5,0,5,,,,,,,,,4,11,58,,,
80653,control_change,5,0,6,,,,,,,,,5,11,58,,,
80653,control_change,4,0,4,,,,,,,,,3,11,50,,,
80654,control_change,9,0,1,,,,,,,,,0,11,55,,,
80656,control_change,4,0,5,,,,,,,,,4,11,61,,,
80657,control_change,4,0,6,,,,,,,,,5,11,61,,,
80657,control_change,9,0,2,,,,,,,,,1,11,55,,,
80658,control_change,5,0,4,,,,,,,,,3,11,53,,,
80658,control_change,9,0,3,,,,,,,,,2,11,55,,,
80661,control_change,5,0,5,,,,,,,,,4,11,64,,,
80662,control_change,5,0,6,,,,,,,,,5,11,64,,,
80662,control_change,4,0,4,,,,,,,,,3,11,56,,,
80663,control_change,9,0,1,,,,,,,,,0,11,59,,,
80665,control_change,4,0,5,,,,,,,,,4,11,67,,,
80666,control_change,4,0,6,,,,,,,,,5,11,67,,,
80666,control_change,9,0,2,,,,,,,,,1,11,59,,,
80667,control_change,9,0,3,,,,,,,,,2,11,59,,,
80667,control_change,5,0,4,,,,,,,,,3,11,59,,,
80670,control_change,5,0,5,,,,,,,,,4,11,70,,,
80671,control_change,5,0,6,,,,,,,,,5,11,70,,,
80671,control_change,4,0,4,,,,,,,,,3,11,62,,,
80676,control_change,5,0,4,,,,,,,,,3,11,65,,,
80685,control_change,22,0,1,,,,,,,,,0,11,60,,,
80687,control_change,17,0,5,,,,,,,,,4,11,68,,,
80688,control_change,17,0,6,,,,,,,,,5,11,68,,,
80688,control_change,22,0,2,,,,,,,,,1,11,60,,,
80689,control_change,22,0,3,,,,,,,,,2,11,60,,,
80693,control_change,17,0,4,,,,,,,,,3,11,63,,,
80698,control_change,11,0,5,,,,,,,,,4,11,65,,,
80699,control_change,11,0,6,,,,,,,,,5,11,65,,,
80704,control_change,11,0,4,,,,,,,,,3,11,60,,,
80707,control_change,22,0,1,,,,,,,,,0,11,55,,,
80709,control_change,11,0,5,,,,,,,,,4,11,62,,,
80710,control_change,11,0,6,,,,,,,,,5,11,62,,,
80710,control_change,22,0,2,,,,,,,,,1,11,55,,,
80711,control_change,22,0,3,,,,,,,,,2,11,55,,,
80715,control_change,11,0,4,,,,,,,,,3,11,57,,,
80719,control_change,10,0,5,,,,,,,,,4,11,59,,,
80720,control_change,10,0,6,,,,,,,,,5,11,59,,,
80725,control_change,10,0,4,,,,,,,,,3,11,54,,,
80728,control_change,21,0,1,,,,,,,,,0,11,51,,,
80730,control_change,11,0,5,,,,,,,,,4,11,56,,,
80731,control_change,11,0,6,,,,,,,,,5,11,56,,,
80731,control_change,21,0,2,,,,,,,,,1,11,51,,,
80732,control_change,21,0,3,,,,,,,,,2,11,51,,,
80736,control_change,11,0,4,,,,,,,,,3,11,51,,,
80739,control_change,11,0,1,,,,,,,,,0,11,48,,,
80741,control_change,11,0,5,,,,,,,,,4,11,53,,,
80742,control_change,11,0,2,,,,,,,,,1,11,48,,,
80742,control_change,11,0,6,,,,,,,,,5,11,53,,,
80743,control_change,11,0,3,,,,,,,,,2,11,48,,,
80747,control_change,11,0,4,,,,,,,,,3,11,48,,,
80750,control_change,11,0,1,,,,,,,,,0,11,45,,,
80752,control_change,11,0,5,,,,,,,,,4,11,50,,,
80753,control_change,11,0,2,,,,,,,,,1,11,45,,,
80753,control_change,11,0,6,,,,,,,,,5,11,50,,,
80754,control_change,11,0,3,,,,,,,,,2,11,45,,,
80758,control_change,11,0,4,,,,,,,,,3,11,45,,,
80760,set_tempo,120,1,0,,,,,,263158,,,,,,,,
80761,control_change,11,0,1,,,,,,,,,0,11,42,,,
80763,control_change,11,0,5,,,,,,,,,4,11,47,,,
80764,control_change,11,0,6,,,,,,,,,5,11,47,,,
80764,control_change,11,0,2,,,,,,,,,1,11,42,,,
80765,control_change,11,0,3,,,,,,,,,2,11,42,,,
80769,control_change,11,0,4,,,,,,,,,3,11,42,,,
80880,set_tempo,120,1,0,,,,,,307692,,,,,,,,
80976,note_on,215,0,1,,,,,,,,,0,,,,88,0
80979,note_on,215,0,2,,,,,,,,,1,,,,76,0
80980,note_on,215,0,3,,,,,,,,,2,,,,76,0
80980,note_on,0,0,3,,,,,,,,,2,,,,69,0
80984,note_on,215,0,4,,,,,,,,,3,,,,57,0
81000,note_on,1500,0,11,,,,,,,,,10,,,,77,127
81000,set_tempo,120,1,0,,,,,,254237,,,,,,,,
81003,note_on,1740,0,12,,,,,,,,,11,,,,69,112
81003,note_on,240,0,5,,,,,,,,,4,,,,64,0
81004,note_on,240,0,6,,,,,,,,,5,,,,60,0
81030,note_on,30,0,11,,,,,,,,,10,,,,77,0
81060,note_on,30,0,11,,,,,,,,,10,,,,77,112
81063,note_on,60,0,12,,,,,,,,,11,,,,69,0
81090,note_on,30,0,11,,,,,,,,,10,,,,77,0
81120,note_on,30,0,11,,,,,,,,,10,,,,79,112
81120,set_tempo,120,1,0,,,,,,263158,,,,,,,,
81123,note_on,60,0,12,,,,,,,,,11,,,,69,112
81150,note_on,30,0,11,,,,,,,,,10,,,,79,0
81180,note_on,30,0,11,,,,,,,,,10,,,,77,112
81183,note_on,60,0,12,,,,,,,,,11,,,,69,0
81210,note_on,30,0,11,,,,,,,,,10,,,,77,0
81240,set_tempo,120,1,0,,,,,,288462,,,,,,,,
81240,note_on,30,0,11,,,,,,,,,10,,,,79,112
81243,note_on,60,0,12,,,,,,,,,11,,,,69,112
81270,note_on,30,0,11,,,,,,,,,10,,,,79,0
81300,note_on,30,0,11,,,,,,,,,10,,,,77,112
81303,note_on,60,0,12,,,,,,,,,11,,,,69,0
81330,note_on,30,0,11,,,,,,,,,10,,,,77,0
81360,set_tempo,120,1,0,,,,,,254237,,,,,,,,
81360,note_on,30,0,11,,,,,,,,,10,,,,74,112
81363,note_on,60,0,12,,,,,,,,,11,,,,70,127
81393,note_on,30,0,12,,,,,,,,,11,,,,70,0
81420,note_on,60,0,11,,,,,,,,,10,,,,74,0
81423,note_on,30,0,12,,,,,,,,,11,,,,70,112
81453,note_on,30,0,12,,,,,,,,,11,,,,70,0
81480,note_on,60,0,11,,,,,,,,,10,,,,74,112
81480,set_tempo,120,1,0,,,,,,263158,,,,,,,,
81483,note_on,30,0,12,,,,,,,,,11,,,,72,112
81513,note_on,30,0,12,,,,,,,,,11,,,,72,0
81540,note_on,60,0,11,,,,,,,,,10,,,,74,0
81543,note_on,30,0,12,,,,,,,,,11,,,,70,112
81573,note_on,30,0,12,,,,,,,,,11,,,,70,0
81600,note_on,60,0,11,,,,,,,,,10,,,,74,112
81600,set_tempo,120,1,0,,,,,,288462,,,,,,,,
81603,note_on,30,0,12,,,,,,,,,11,,,,72,112
81633,note_on,30,0,12,,,,,,,,,11,,,,72,0
81660,note_on,60,0,11,,,,,,,,,10,,,,74,0
81663,note_on,30,0,12,,,,,,,,,11,,,,70,112
81693,note_on,30,0,12,,,,,,,,,11,,,,70,0
81720,note_on,60,0,11,,,,,,,,,10,,,,72,112
81720,set_tempo,120,1,0,,,,,,254237,,,,,,,,
81723,note_on,30,0,12,,,,,,,,,11,,,,68,112
81728,note_on,2460,0,13,,,,,,,,,12,,,,65,127
81758,note_on,30,0,13,,,,,,,,,12,,,,65,0
81780,note_on,60,0,11,,,,,,,,,10,,,,72,0
81783,note_on,60,0,12,,,,,,,,,11,,,,68,0
81788,note_on,30,0,13,,,,,,,,,12,,,,65,112
81818,note_on,30,0,13,,,,,,,,,12,,,,65,0
81840,note_on,60,0,11,,,,,,,,,10,,,,72,112
81840,set_tempo,120,1,0,,,,,,263158,,,,,,,,
81843,note_on,60,0,12,,,,,,,,,11,,,,68,112
81848,note_on,30,0,13,,,,,,,,,12,,,,67,112
81878,note_on,30,0,13,,,,,,,,,12,,,,67,0
81900,note_on,60,0,11,,,,,,,,,10,,,,72,0
81903,note_on,60,0,12,,,,,,,,,11,,,,68,0
81908,note_on,30,0,13,,,,,,,,,12,,,,65,112
81938,note_on,30,0,13,,,,,,,,,12,,,,65,0
81960,set_tempo,120,1,0,,,,,,288462,,,,,,,,
81960,note_on,60,0,11,,,,,,,,,10,,,,72,112
81963,note_on,60,0,12,,,,,,,,,11,,,,68,112
81968,note_on,30,0,13,,,,,,,,,12,,,,67,112
81998,note_on,30,0,13,,,,,,,,,12,,,,67,0
82020,note_on,60,0,11,,,,,,,,,10,,,,72,0
82023,note_on,60,0,12,,,,,,,,,11,,,,68,0
82028,note_on,30,0,13,,,,,,,,,12,,,,65,112
82058,note_on,30,0,13,,,,,,,,,12,,,,65,0
82080,note_on,60,0,11,,,,,,,,,10,,,,71,112
82080,set_tempo,120,1,0,,,,,,254237,,,,,,,,
82083,note_on,60,0,12,,,,,,,,,11,,,,67,112
82088,note_on,30,0,13,,,,,,,,,12,,,,62,112
82092,note_on,2820,0,14,,,,,,,,,13,,,,55,127
82122,note_on,30,0,14,,,,,,,,,13,,,,55,0
82148,note_on,60,0,13,,,,,,,,,12,,,,62,0
82152,note_on,30,0,14,,,,,,,,,13,,,,55,112
82182,note_on,30,0,14,,,,,,,,,13,,,,55,0
82200,set_tempo,120,1,0,,,,,,263158,,,,,,,,
82208,note_on,60,0,13,,,,,,,,,12,,,,62,112
82212,note_on,30,0,14,,,,,,,,,13,,,,56,112
82242,note_on,30,0,14,,,,,,,,,13,,,,56,0
82268,note_on,60,0,13,,,,,,,,,12,,,,62,0
82272,note_on,30,0,14,,,,,,,,,13,,,,55,112
82302,note_on,30,0,14,,,,,,,,,13,,,,55,0
82320,set_tempo,120,1,0,,,,,,288462,,,,,,,,
82328,note_on,60,0,13,,,,,,,,,12,,,,62,112
82332,note_on,30,0,14,,,,,,,,,13,,,,56,112
82362,note_on,30,0,14,,,,,,,,,13,,,,56,0
82388,note_on,60,0,13,,,,,,,,,12,,,,62,0
82392,note_on,30,0,14,,,,,,,,,13,,,,55,112
82422,note_on,30,0,14,,,,,,,,,13,,,,55,0
82440,set_tempo,120,1,0,,,,,,254237,,,,,,,,
82440,note_on,360,0,11,,,,,,,,,10,,,,71,0
82440,note_on,0,0,11,,,,,,,,,10,,,,72,112
82443,note_on,360,0,12,,,,,,,,,11,,,,67,0
82443,note_on,0,0,12,,,,,,,,,11,,,,63,112
82448,note_on,60,0,13,,,,,,,,,12,,,,60,112
82452,note_on,30,0,14,,,,,,,,,13,,,,48,127
82454,note_on,3180,0,15,,,,,,,,,14,,,,36,127
82482,note_on,30,0,14,,,,,,,,,13,,,,48,0
82484,note_on,30,0,15,,,,,,,,,14,,,,36,0
82500,note_on,60,0,11,,,,,,,,,10,,,,72,0
82512,note_on,30,0,14,,,,,,,,,13,,,,48,112
82514,note_on,30,0,15,,,,,,,,,14,,,,36,112
82542,note_on,30,0,14,,,,,,,,,13,,,,48,0
82544,note_on,30,0,15,,,,,,,,,14,,,,36,0
82560,note_on,60,0,11,,,,,,,,,10,,,,72,112
82560,set_tempo,120,1,0,,,,,,263158,,,,,,,,
82572,note_on,30,0,14,,,,,,,,,13,,,,50,112
82574,note_on,30,0,15,,,,,,,,,14,,,,38,112
82602,note_on,30,0,14,,,,,,,,,13,,,,50,0
82604,note_on,30,0,15,,,,,,,,,14,,,,38,0
82620,note_on,60,0,11,,,,,,,,,10,,,,72,0
82632,note_on,30,0,14,,,,,,,,,13,,,,48,112
82634,note_on,30,0,15,,,,,,,,,14,,,,36,112
82662,note_on,30,0,14,,,,,,,,,13,,,,48,0
82664,note_on,30,0,15,,,,,,,,,14,,,,36,0
82680,note_on,60,0,11,,,,,,,,,10,,,,72,112
82680,set_tempo,120,1,0,,,,,,288462,,,,,,,,
82692,note_on,30,0,14,,,,,,,,,13,,,,50,112
82694,note_on,30,0,15,,,,,,,,,14,,,,38,112
82722,note_on,30,0,14,,,,,,,,,13,,,,50,0
82724,note_on,30,0,15,,,,,,,,,14,,,,38,0
82740,note_on,60,0,11,,,,,,,,,10,,,,72,0
82752,note_on,30,0,14,,,,,,,,,13,,,,48,112
82754,note_on,30,0,15,,,,,,,,,14,,,,36,112
82782,note_on,30,0,14,,,,,,,,,13,,,,48,0
82784,note_on,30,0,15,,,,,,,,,14,,,,36,0
82800,set_tempo,120,1,0,,,,,,254237,,,,,,,,
82800,note_on,60,0,11,,,,,,,,,10,,,,74,112
82803,note_on,360,0,12,,,,,,,,,11,,,,63,0
82803,note_on,0,0,12,,,,,,,,,11,,,,66,127
82808,note_on,360,0,13,,,,,,,,,12,,,,60,0
82808,note_on,0,0,13,,,,,,,,,12,,,,60,112
82812,note_on,30,0,14,,,,,,,,,13,,,,44,112
82814,note_on,30,0,15,,,,,,,,,14,,,,32,112
82833,note_on,30,0,12,,,,,,,,,11,,,,66,0
82860,note_on,60,0,11,,,,,,,,,10,,,,74,0
82863,note_on,30,0,12,,,,,,,,,11,,,,66,112
82868,note_on,60,0,13,,,,,,,,,12,,,,60,0
82872,note_on,60,0,14,,,,,,,,,13,,,,44,0
82874,note_on,60,0,15,,,,,,,,,14,,,,32,0
82893,note_on,30,0,12,,,,,,,,,11,,,,66,0
82920,set_tempo,120,1,0,,,,,,263158,,,,,,,,
82920,note_on,60,0,11,,,,,,,,,10,,,,74,112
82923,note_on,30,0,12,,,,,,,,,11,,,,67,112
82928,note_on,60,0,13,,,,,,,,,12,,,,60,112
82932,note_on,60,0,14,,,,,,,,,13,,,,44,112
82934,note_on,60,0,15,,,,,,,,,14,,,,32,112
82953,note_on,30,0,12,,,,,,,,,11,,,,67,0
82980,note_on,60,0,11,,,,,,,,,10,,,,74,0
82983,note_on,30,0,12,,,,,,,,,11,,,,66,112
82988,note_on,60,0,13,,,,,,,,,12,,,,60,0
82992,note_on,60,0,14,,,,,,,,,13,,,,44,0
82994,note_on,60,0,15,,,,,,,,,14,,,,32,0
83013,note_on,30,0,12,,,,,,,,,11,,,,66,0
83040,note_on,60,0,11,,,,,,,,,10,,,,74,112
83040,set_tempo,120,1,0,,,,,,288462,,,,,,,,
83043,note_on,30,0,12,,,,,,,,,11,,,,67,112
83048,note_on,60,0,13,,,,,,,,,12,,,,60,112
83052,note_on,60,0,14,,,,,,,,,13,,,,44,112
83054,note_on,60,0,15,,,,,,,,,14,,,,32,112
83073,note_on,30,0,12,,,,,,,,,11,,,,67,0
83100,note_on,60,0,11,,,,,,,,,10,,,,74,0
83103,note_on,30,0,12,,,,,,,,,11,,,,66,112
83108,note_on,60,0,13,,,,,,,,,12,,,,60,0
83112,note_on,60,0,14,,,,,,,,,13,,,,44,0
83114,note_on,60,0,15,,,,,,,,,14,,,,32,0
83133,note_on,30,0,12,,,,,,,,,11,,,,66,0
83160,note_on,60,0,11,,,,,,,,,10,,,,79,127
83160,set_tempo,120,1,0,,,,,,254237,,,,,,,,
83163,note_on,30,0,12,,,,,,,,,11,,,,65,112
83168,note_on,60,0,13,,,,,,,,,12,,,,59,127
83172,note_on,60,0,14,,,,,,,,,13,,,,43,112
83174,note_on,60,0,15,,,,,,,,,14,,,,31,112
83190,note_on,30,0,11,,,,,,,,,10,,,,79,0
83198,note_on,30,0,13,,,,,,,,,12,,,,59,0
83220,note_on,30,0,11,,,,,,,,,10,,,,79,112
83223,note_on,60,0,12,,,,,,,,,11,,,,65,0
83228,note_on,30,0,13,,,,,,,,,12,,,,59,112
83232,note_on,60,0,14,,,,,,,,,13,,,,43,0
83234,note_on,60,0,15,,,,,,,,,14,,,,31,0
83250,note_on,30,0,11,,,,,,,,,10,,,,79,0
83258,note_on,30,0,13,,,,,,,,,12,,,,59,0
83280,note_on,30,0,11,,,,,,,,,10,,,,81,112
83280,set_tempo,120,1,0,,,,,,263158,,,,,,,,
83283,note_on,60,0,12,,,,,,,,,11,,,,65,112
83288,note_on,30,0,13,,,,,,,,,12,,,,60,112
83292,note_on,60,0,14,,,,,,,,,13,,,,43,112
83294,note_on,60,0,15,,,,,,,,,14,,,,31,112
83310,note_on,30,0,11,,,,,,,,,10,,,,81,0
83318,note_on,30,0,13,,,,,,,,,12,,,,60,0
83340,note_on,30,0,11,,,,,,,,,10,,,,79,112
83343,note_on,60,0,12,,,,,,,,,11,,,,65,0
83348,note_on,30,0,13,,,,,,,,,12,,,,59,112
83352,note_on,60,0,14,,,,,,,,,13,,,,43,0
83354,note_on,60,0,15,,,,,,,,,14,,,,31,0
83370,note_on,30,0,11,,,,,,,,,10,,,,79,0
83378,note_on,30,0,13,,,,,,,,,12,,,,59,0
83400,set_tempo,120,1,0,,,,,,288462,,,,,,,,
83400,note_on,30,0,11,,,,,,,,,10,,,,81,112
83403,note_on,60,0,12,,,,,,,,,11,,,,65,112
83408,note_on,30,0,13,,,,,,,,,12,,,,60,112
83412,note_on,60,0,14,,,,,,,,,13,,,,43,112
83414,note_on,60,0,15,,,,,,,,,14,,,,43,112
83430,note_on,30,0,11,,,,,,,,,10,,,,81,0
83438,note_on,30,0,13,,,,,,,,,12,,,,60,0
83460,note_on,30,0,11,,,,,,,,,10,,,,79,112
83463,note_on,60,0,12,,,,,,,,,11,,,,65,0
83468,note_on,30,0,13,,,,,,,,,12,,,,59,112
83472,note_on,60,0,14,,,,,,,,,13,,,,43,0
83474,note_on,60,0,15,,,,,,,,,14,,,,43,0
83490,note_on,30,0,11,,,,,,,,,10,,,,79,0
83498,note_on,30,0,13,,,,,,,,,12,,,,59,0
83520,note_on,30,0,11,,,,,,,,,10,,,,84,112
83520,set_tempo,120,1,0,,,,,,258621,,,,,,,,
83523,note_on,60,0,12,,,,,,,,,11,,,,64,112
83528,note_on,30,0,13,,,,,,,,,12,,,,60,112
83532,note_on,60,0,14,,,,,,,,,13,,,,36,112
83534,note_on,60,0,15,,,,,,,,,14,,,,36,112
83580,note_on,60,0,11,,,,,,,,,10,,,,84,0
83583,note_on,60,0,12,,,,,,,,,11,,,,64,0
83588,note_on,60,0,13,,,,,,,,,12,,,,60,0
83592,note_on,60,0,14,,,,,,,,,13,,,,36,0
83594,note_on,60,0,15,,,,,,,,,14,,,,36,0
83640,note_on,60,0,11,,,,,,,,,10,,,,84,112
83700,note_on,60,0,11,,,,,,,,,10,,,,84,0
83760,note_on,60,0,11,,,,,,,,,10,,,,84,112
83760,set_tempo,240,1,0,,,,,,288462,,,,,,,,
83820,note_on,60,0,11,,,,,,,,,10,,,,84,0
83880,set_tempo,120,1,0,,,,,,254237,,,,,,,,
83892,note_on,300,0,14,,,,,,,,,13,,,,60,127
83892,control_change,0,0,14,,,,,,,,,13,11,45,,,
83894,control_change,300,0,15,,,,,,,,,14,11,45,,,
83894,note_on,0,0,15,,,,,,,,,14,,,,48,127
83922,note_on,30,0,14,,,,,,,,,13,,,,60,0
83924,note_on,30,0,15,,,,,,,,,14,,,,48,0
83952,note_on,30,0,14,,,,,,,,,13,,,,60,112
83954,note_on,30,0,15,,,,,,,,,14,,,,48,112
83982,note_on,30,0,14,,,,,,,,,13,,,,60,0
83984,note_on,30,0,15,,,,,,,,,14,,,,48,0
84000,set_tempo,120,1,0,,,,,,263158,,,,,,,,
84012,note_on,30,0,14,,,,,,,,,13,,,,62,112
84014,note_on,30,0,15,,,,,,,,,14,,,,50,112
84042,note_on,30,0,14,,,,,,,,,13,,,,62,0
84044,note_on,30,0,15,,,,,,,,,14,,,,50,0
84072,note_on,30,0,14,,,,,,,,,13,,,,60,112
84074,note_on,30,0,15,,,,,,,,,14,,,,48,112
84102,note_on,30,0,14,,,,,,,,,13,,,,60,0
84104,note_on,30,0,15,,,,,,,,,14,,,,48,0
84120,set_tempo,120,1,0,,,,,,288462,,,,,,,,
84121,control_change,3145,0,1,,,,,,,,,0,11,42,,,
84121,note_on,0,0,1,,,,,,,,,0,,,,84,116
84121,note_on,0,0,1,,,,,,,,,0,,,,72,116
84124,control_change,3145,0,2,,,,,,,,,1,11,42,,,
84124,note_on,0,0,2,,,,,,,,,1,,,,72,115
84125,control_change,0,0,3,,,,,,,,,2,11,42,,,
84125,note_on,3145,0,3,,,,,,,,,2,,,,72,116
84129,control_change,0,0,4,,,,,,,,,3,11,42,,,
84129,note_on,3145,0,4,,,,,,,,,3,,,,60,115
84132,note_on,30,0,14,,,,,,,,,13,,,,62,112
84134,note_on,30,0,15,,,,,,,,,14,,,,50,112
84162,note_on,30,0,14,,,,,,,,,13,,,,62,0
84164,note_on,30,0,15,,,,,,,,,14,,,,50,0
84192,note_on,30,0,14,,,,,,,,,13,,,,60,112
84194,note_on,30,0,15,,,,,,,,,14,,,,48,112
84216,note_on,95,0,1,,,,,,,,,0,,,,72,0
84216,note_on,0,0,1,,,,,,,,,0,,,,84,0
84219,note_on,95,0,2,,,,,,,,,1,,,,72,0
84220,note_on,95,0,3,,,,,,,,,2,,,,72,0
84222,note_on,30,0,14,,,,,,,,,13,,,,60,0
84224,note_on,30,0,15,,,,,,,,,14,,,,48,0
84224,note_on,95,0,4,,,,,,,,,3,,,,60,0
84240,set_tempo,120,1,0,,,,,,254237,,,,,,,,
84240,control_change,420,0,11,,,,,,,,,10,11,45,,,
84240,note_on,0,0,11,,,,,,,,,10,,,,84,127
84252,note_on,30,0,14,,,,,,,,,13,,,,57,112
84254,note_on,30,0,15,,,,,,,,,14,,,,45,112
84270,note_on,30,0,11,,,,,,,,,10,,,,84,0
84300,note_on,30,0,11,,,,,,,,,10,,,,84,112
84312,note_on,60,0,14,,,,,,,,,13,,,,57,0
84314,note_on,60,0,15,,,,,,,,,14,,,,45,0
84330,note_on,30,0,11,,,,,,,,,10,,,,84,0
84360,note_on,30,0,11,,,,,,,,,10,,,,86,112
84360,set_tempo,120,1,0,,,,,,263158,,,,,,,,
84372,note_on,60,0,14,,,,,,,,,13,,,,57,112
84374,note_on,60,0,15,,,,,,,,,14,,,,45,112
84390,note_on,30,0,11,,,,,,,,,10,,,,86,0
84420,note_on,30,0,11,,,,,,,,,10,,,,84,112
84432,note_on,60,0,14,,,,,,,,,13,,,,57,0
84434,note_on,60,0,15,,,,,,,,,14,,,,45,0
84450,note_on,30,0,11,,,,,,,,,10,,,,84,0
84480,note_on,30,0,11,,,,,,,,,10,,,,86,112
84480,set_tempo,120,1,0,,,,,,288462,,,,,,,,
84481,note_on,0,0,1,,,,,,,,,0,,,,84,116
84481,note_on,265,0,1,,,,,,,,,0,,,,72,116
84484,note_on,265,0,2,,,,,,,,,1,,,,72,115
84485,note_on,265,0,3,,,,,,,,,2,,,,72,116
84489,note_on,265,0,4,,,,,,,,,3,,,,57,115
84489,note_on,0,0,4,,,,,,,,,3,,,,60,115
84492,note_on,60,0,14,,,,,,,,,13,,,,57,112
84494,note_on,60,0,15,,,,,,,,,14,,,,45,112
84510,note_on,30,0,11,,,,,,,,,10,,,,86,0
84540,note_on,30,0,11,,,,,,,,,10,,,,84,112
84552,note_on,60,0,14,,,,,,,,,13,,,,57,0
84554,note_on,60,0,15,,,,,,,,,14,,,,45,0
84570,note_on,30,0,11,,,,,,,,,10,,,,84,0
84576,note_on,0,0,1,,,,,,,,,0,,,,72,0
84576,note_on,95,0,1,,,,,,,,,0,,,,84,0
84579,note_on,95,0,2,,,,,,,,,1,,,,72,0
84580,note_on,95,0,3,,,,,,,,,2,,,,72,0
84584,note_on,95,0,4,,,,,,,,,3,,,,60,0
84584,note_on,0,0,4,,,,,,,,,3,,,,57,0
84600,note_on,30,0,11,,,,,,,,,10,,,,87,112
84600,set_tempo,120,1,0,,,,,,254237,,,,,,,,
84603,control_change,1020,0,12,,,,,,,,,11,11,45,,,
84603,note_on,0,0,12,,,,,,,,,11,,,,82,127
84612,note_on,60,0,14,,,,,,,,,13,,,,55,112
84614,note_on,60,0,15,,,,,,,,,14,,,,43,112
84633,note_on,30,0,12,,,,,,,,,11,,,,82,0
84660,note_on,60,0,11,,,,,,,,,10,,,,87,0
84663,note_on,30,0,12,,,,,,,,,11,,,,82,112
84672,note_on,60,0,14,,,,,,,,,13,,,,55,0
84674,note_on,60,0,15,,,,,,,,,14,,,,43,0
84693,note_on,30,0,12,,,,,,,,,11,,,,82,0
84720,set_tempo,120,1,0,,,,,,263158,,,,,,,,
84720,note_on,60,0,11,,,,,,,,,10,,,,87,112
84723,note_on,30,0,12,,,,,,,,,11,,,,84,112
84732,note_on,60,0,14,,,,,,,,,13,,,,55,112
84734,note_on,60,0,15,,,,,,,,,14,,,,43,112
84753,note_on,30,0,12,,,,,,,,,11,,,,84,0
84780,note_on,60,0,11,,,,,,,,,10,,,,87,0
84783,note_on,30,0,12,,,,,,,,,11,,,,82,112
84792,note_on,60,0,14,,,,,,,,,13,,,,55,0
84794,note_on,60,0,15,,,,,,,,,14,,,,43,0
84813,note_on,30,0,12,,,,,,,,,11,,,,82,0
84840,note_on,60,0,11,,,,,,,,,10,,,,87,112
84840,set_tempo,120,1,0,,,,,,288462,,,,,,,,
84841,note_on,265,0,1,,,,,,,,,0,,,,87,116
84841,note_on,0,0,1,,,,,,,,,0,,,,82,116
84843,note_on,30,0,12,,,,,,,,,11,,,,84,112
84844,note_on,0,0,2,,,,,,,,,1,,,,70,115
84844,note_on,265,0,2,,,,,,,,,1,,,,75,115
84845,note_on,0,0,3,,,,,,,,,2,,,,75,116
84845,note_on,265,0,3,,,,,,,,,2,,,,70,116
84849,note_on,0,0,4,,,,,,,,,3,,,,63,115
84849,note_on,265,0,4,,,,,,,,,3,,,,55,115
84852,note_on,60,0,14,,,,,,,,,13,,,,55,112
84854,note_on,60,0,15,,,,,,,,,14,,,,43,112
84873,note_on,30,0,12,,,,,,,,,11,,,,84,0
84900,note_on,60,0,11,,,,,,,,,10,,,,87,0
84903,note_on,30,0,12,,,,,,,,,11,,,,82,112
84912,note_on,60,0,14,,,,,,,,,13,,,,55,0
84914,note_on,60,0,15,,,,,,,,,14,,,,43,0
84933,note_on,30,0,12,,,,,,,,,11,,,,82,0
84936,note_on,0,0,1,,,,,,,,,0,,,,87,0
84936,note_on,95,0,1,,,,,,,,,0,,,,82,0
84939,note_on,95,0,2,,,,,,,,,1,,,,70,0
84939,note_on,0,0,2,,,,,,,,,1,,,,75,0
84940,note_on,95,0,3,,,,,,,,,2,,,,75,0
84940,note_on,0,0,3,,,,,,,,,2,,,,70,0
84944,note_on,95,0,4,,,,,,,,,3,,,,63,0
84944,note_on,0,0,4,,,,,,,,,3,,,,55,0
84960,set_tempo,120,1,0,,,,,,254237,,,,,,,,
84960,note_on,60,0,11,,,,,,,,,10,,,,86,112
84963,note_on,30,0,12,,,,,,,,,11,,,,81,112
84968,control_change,1380,0,13,,,,,,,,,12,11,45,,,
84968,note_on,0,0,13,,,,,,,,,12,,,,72,127
84972,note_on,60,0,14,,,,,,,,,13,,,,54,112
84974,note_on,60,0,15,,,,,,,,,14,,,,42,112
84998,note_on,30,0,13,,,,,,,,,12,,,,72,0
85020,note_on,60,0,11,,,,,,,,,10,,,,86,0
85023,note_on,60,0,12,,,,,,,,,11,,,,81,0
85028,note_on,30,0,13,,,,,,,,,12,,,,72,112
85058,note_on,30,0,13,,,,,,,,,12,,,,72,0
85080,note_on,60,0,11,,,,,,,,,10,,,,86,112
85080,set_tempo,120,1,0,,,,,,263158,,,,,,,,
85083,note_on,60,0,12,,,,,,,,,11,,,,81,112
85088,note_on,30,0,13,,,,,,,,,12,,,,74,112
85118,note_on,30,0,13,,,,,,,,,12,,,,74,0
85140,note_on,60,0,11,,,,,,,,,10,,,,86,0
85143,note_on,60,0,12,,,,,,,,,11,,,,81,0
85148,note_on,30,0,13,,,,,,,,,12,,,,72,112
85178,note_on,30,0,13,,,,,,,,,12,,,,72,0
85200,note_on,60,0,11,,,,,,,,,10,,,,86,112
85200,set_tempo,120,1,0,,,,,,288462,,,,,,,,
85201,note_on,0,0,1,,,,,,,,,0,,,,81,116
85201,note_on,265,0,1,,,,,,,,,0,,,,86,116
85203,note_on,60,0,12,,,,,,,,,11,,,,81,112
85204,note_on,0,0,2,,,,,,,,,1,,,,69,115
85204,note_on,265,0,2,,,,,,,,,1,,,,74,115
85205,note_on,265,0,3,,,,,,,,,2,,,,69,116
85205,note_on,0,0,3,,,,,,,,,2,,,,74,116
85208,note_on,30,0,13,,,,,,,,,12,,,,74,112
85209,note_on,265,0,4,,,,,,,,,3,,,,54,115
85209,note_on,0,0,4,,,,,,,,,3,,,,62,115
85238,note_on,30,0,13,,,,,,,,,12,,,,74,0
85260,note_on,60,0,11,,,,,,,,,10,,,,86,0
85263,note_on,60,0,12,,,,,,,,,11,,,,81,0
85268,note_on,30,0,13,,,,,,,,,12,,,,72,112
85296,note_on,95,0,1,,,,,,,,,0,,,,81,0
85296,note_on,0,0,1,,,,,,,,,0,,,,86,0
85298,note_on,30,0,13,,,,,,,,,12,,,,72,0
85299,note_on,0,0,2,,,,,,,,,1,,,,74,0
85299,note_on,95,0,2,,,,,,,,,1,,,,69,0
85300,note_on,0,0,3,,,,,,,,,2,,,,69,0
85300,note_on,95,0,3,,,,,,,,,2,,,,74,0
85304,note_on,95,0,4,,,,,,,,,3,,,,62,0
85304,note_on,0,0,4,,,,,,,,,3,,,,54,0
85320,set_tempo,120,1,0,,,,,,254237,,,,,,,,
85320,note_on,60,0,11,,,,,,,,,10,,,,91,112
85323,note_on,60,0,12,,,,,,,,,11,,,,79,112
85328,note_on,30,0,13,,,,,,,,,12,,,,70,112
85332,note_on,360,0,14,,,,,,,,,13,,,,54,0
85332,note_on,0,0,14,,,,,,,,,13,,,,58,127
85334,note_on,360,0,15,,,,,,,,,14,,,,42,0
85334,note_on,0,0,15,,,,,,,,,14,,,,46,127
85362,note_on,30,0,14,,,,,,,,,13,,,,58,0
85364,note_on,30,0,15,,,,,,,,,14,,,,46,0
85383,note_on,60,0,12,,,,,,,,,11,,,,79,0
85388,note_on,60,0,13,,,,,,,,,12,,,,70,0
85392,note_on,30,0,14,,,,,,,,,13,,,,58,112
85394,note_on,30,0,15,,,,,,,,,14,,,,46,112
85422,note_on,30,0,14,,,,,,,,,13,,,,58,0
85424,note_on,30,0,15,,,,,,,,,14,,,,46,0
85440,set_tempo,120,1,0,,,,,,263158,,,,,,,,
85443,note_on,60,0,12,,,,,,,,,11,,,,79,112
85448,note_on,60,0,13,,,,,,,,,12,,,,70,112
85452,note_on,30,0,14,,,,,,,,,13,,,,60,112
85454,note_on,30,0,15,,,,,,,,,14,,,,48,112
85482,note_on,30,0,14,,,,,,,,,13,,,,60,0
85484,note_on,30,0,15,,,,,,,,,14,,,,48,0
85503,note_on,60,0,12,,,,,,,,,11,,,,79,0
85508,note_on,60,0,13,,,,,,,,,12,,,,70,0
85512,note_on,30,0,14,,,,,,,,,13,,,,58,112
85514,note_on,30,0,15,,,,,,,,,14,,,,46,112
85542,note_on,30,0,14,,,,,,,,,13,,,,58,0
85544,note_on,30,0,15,,,,,,,,,14,,,,46,0
85560,set_tempo,120,1,0,,,,,,288462,,,,,,,,
85561,note_on,0,0,1,,,,,,,,,0,,,,79,116
85561,note_on,265,0,1,,,,,,,,,0,,,,91,116
85563,note_on,60,0,12,,,,,,,,,11,,,,79,112
85564,note_on,0,0,2,,,,,,,,,1,,,,79,115
85564,note_on,265,0,2,,,,,,,,,1,,,,67,115
85565,note_on,265,0,3,,,,,,,,,2,,,,67,116
85565,note_on,0,0,3,,,,,,,,,2,,,,79,116
85568,note_on,60,0,13,,,,,,,,,12,,,,70,112
85569,note_on,265,0,4,,,,,,,,,3,,,,58,115
85572,note_on,30,0,14,,,,,,,,,13,,,,60,112
85574,note_on,30,0,15,,,,,,,,,14,,,,48,112
85602,note_on,30,0,14,,,,,,,,,13,,,,60,0
85604,note_on,30,0,15,,,,,,,,,14,,,,48,0
85623,note_on,60,0,12,,,,,,,,,11,,,,79,0
85628,note_on,60,0,13,,,,,,,,,12,,,,70,0
85632,note_on,30,0,14,,,,,,,,,13,,,,58,112
85634,note_on,30,0,15,,,,,,,,,14,,,,46,112
85656,note_on,95,0,1,,,,,,,,,0,,,,79,0
85656,note_on,0,0,1,,,,,,,,,0,,,,91,0
85659,note_on,95,0,2,,,,,,,,,1,,,,79,0
85659,note_on,0,0,2,,,,,,,,,1,,,,67,0
85660,note_on,95,0,3,,,,,,,,,2,,,,79,0
85660,note_on,0,0,3,,,,,,,,,2,,,,67,0
85662,note_on,30,0,14,,,,,,,,,13,,,,58,0
85664,note_on,30,0,15,,,,,,,,,14,,,,46,0
85664,note_on,95,0,4,,,,,,,,,3,,,,58,0
85680,note_on,0,0,11,,,,,,,,,10,,,,82,127
85680,set_tempo,120,1,0,,,,,,254237,,,,,,,,
85680,note_on,360,0,11,,,,,,,,,10,,,,91,0
85683,note_on,60,0,12,,,,,,,,,11,,,,67,112
85692,note_on,30,0,14,,,,,,,,,13,,,,55,112
85694,note_on,30,0,15,,,,,,,,,14,,,,43,112
85710,note_on,30,0,11,,,,,,,,,10,,,,82,0
85740,note_on,30,0,11,,,,,,,,,10,,,,82,112
85752,note_on,60,0,14,,,,,,,,,13,,,,55,0
85754,note_on,60,0,15,,,,,,,,,14,,,,43,0
85770,note_on,30,0,11,,,,,,,,,10,,,,82,0
85800,note_on,30,0,11,,,,,,,,,10,,,,84,112
85800,set_tempo,120,1,0,,,,,,263158,,,,,,,,
85812,note_on,60,0,14,,,,,,,,,13,,,,55,112
85814,note_on,60,0,15,,,,,,,,,14,,,,43,112
85830,note_on,30,0,11,,,,,,,,,10,,,,84,0
85860,note_on,30,0,11,,,,,,,,,10,,,,82,112
85872,note_on,60,0,14,,,,,,,,,13,,,,55,0
85874,note_on,60,0,15,,,,,,,,,14,,,,43,0
85890,note_on,30,0,11,,,,,,,,,10,,,,82,0
85920,set_tempo,120,1,0,,,,,,288462,,,,,,,,
85920,note_on,30,0,11,,,,,,,,,10,,,,84,112
85921,note_on,265,0,1,,,,,,,,,0,,,,82,101
85921,note_on,0,0,1,,,,,,,,,0,,,,79,101
85924,note_on,265,0,2,,,,,,,,,1,,,,70,100
85924,note_on,0,0,2,,,,,,,,,1,,,,67,100
85925,note_on,265,0,3,,,,,,,,,2,,,,70,101
85925,note_on,0,0,3,,,,,,,,,2,,,,67,101
85929,note_on,265,0,4,,,,,,,,,3,,,,58,100
85929,note_on,0,0,4,,,,,,,,,3,,,,55,100
85932,note_on,60,0,14,,,,,,,,,13,,,,55,112
85934,note_on,60,0,15,,,,,,,,,14,,,,43,112
85950,note_on,30,0,11,,,,,,,,,10,,,,84,0
85980,note_on,30,0,11,,,,,,,,,10,,,,82,112
85992,note_on,60,0,14,,,,,,,,,13,,,,55,0
85994,note_on,60,0,15,,,,,,,,,14,,,,43,0
86010,note_on,30,0,11,,,,,,,,,10,,,,82,0
86016,note_on,95,0,1,,,,,,,,,0,,,,79,0
86016,note_on,0,0,1,,,,,,,,,0,,,,82,0
86019,note_on,0,0,2,,,,,,,,,1,,,,70,0
86019,note_on,95,0,2,,,,,,,,,1,,,,67,0
86020,note_on,95,0,3,,,,,,,,,2,,,,67,0
86020,note_on,0,0,3,,,,,,,,,2,,,,70,0
86024,note_on,0,0,4,,,,,,,,,3,,,,58,0
86024,note_on,95,0,4,,,,,,,,,3,,,,55,0
86040,set_tempo,120,1,0,,,,,,254237,,,,,,,,
86040,note_on,30,0,11,,,,,,,,,10,,,,85,112
86043,note_on,360,0,12,,,,,,,,,11,,,,67,0
86043,note_on,0,0,12,,,,,,,,,11,,,,80,127
86052,note_on,60,0,14,,,,,,,,,13,,,,53,112
86054,note_on,60,0,15,,,,,,,,,14,,,,41,112
86073,note_on,30,0,12,,,,,,,,,11,,,,80,0
86100,note_on,60,0,11,,,,,,,,,10,,,,85,0
86103,note_on,30,0,12,,,,,,,,,11,,,,80,112
86112,note_on,60,0,14,,,,,,,,,13,,,,53,0
86114,note_on,60,0,15,,,,,,,,,14,,,,41,0
86133,note_on,30,0,12,,,,,,,,,11,,,,80,0
86160,set_tempo,120,1,0,,,,,,263158,,,,,,,,
86160,note_on,60,0,11,,,,,,,,,10,,,,85,112
86163,note_on,30,0,12,,,,,,,,,11,,,,82,112
86172,note_on,60,0,14,,,,,,,,,13,,,,53,112
86174,note_on,60,0,15,,,,,,,,,14,,,,41,112
86193,note_on,30,0,12,,,,,,,,,11,,,,82,0
86220,note_on,60,0,11,,,,,,,,,10,,,,85,0
86223,note_on,30,0,12,,,,,,,,,11,,,,80,112
86232,note_on,60,0,14,,,,,,,,,13,,,,53,0
86234,note_on,60,0,15,,,,,,,,,14,,,,41,0
86253,note_on,30,0,12,,,,,,,,,11,,,,80,0
86280,note_on,60,0,11,,,,,,,,,10,,,,85,112
86280,set_tempo,120,1,0,,,,,,288462,,,,,,,,
86281,note_on,265,0,1,,,,,,,,,0,,,,85,101
86281,note_on,0,0,1,,,,,,,,,0,,,,80,101
86283,note_on,30,0,12,,,,,,,,,11,,,,82,112
86284,note_on,265,0,2,,,,,,,,,1,,,,68,100
86284,note_on,0,0,2,,,,,,,,,1,,,,73,100
86285,note_on,0,0,3,,,,,,,,,2,,,,73,101
86285,note_on,265,0,3,,,,,,,,,2,,,,68,101
86289,note_on,265,0,4,,,,,,,,,3,,,,53,100
86289,note_on,0,0,4,,,,,,,,,3,,,,61,100
86292,note_on,60,0,14,,,,,,,,,13,,,,53,112
86294,note_on,60,0,15,,,,,,,,,14,,,,41,112
86313,note_on,30,0,12,,,,,,,,,11,,,,82,0
86340,note_on,60,0,11,,,,,,,,,10,,,,85,0
86343,note_on,30,0,12,,,,,,,,,11,,,,80,112
86352,note_on,60,0,14,,,,,,,,,13,,,,53,0
86354,note_on,60,0,15,,,,,,,,,14,,,,41,0
86373,note_on,30,0,12,,,,,,,,,11,,,,80,0
86376,note_on,95,0,1,,,,,,,,,0,,,,80,0
86376,note_on,0,0,1,,,,,,,,,0,,,,85,0
86379,note_on,95,0,2,,,,,,,,,1,,,,73,0
86379,note_on,0,0,2,,,,,,,,,1,,,,68,0
86380,note_on,0,0,3,,,,,,,,,2,,,,68,0
86380,note_on,95,0,3,,,,,,,,,2,,,,73,0
86384,note_on,0,0,4,,,,,,,,,3,,,,53,0
86384,note_on,95,0,4,,,,,,,,,3,,,,61,0
86400,note_on,60,0,11,,,,,,,,,10,,,,84,112
86400,set_tempo,120,1,0,,,,,,254237,,,,,,,,
86403,note_on,30,0,12,,,,,,,,,11,,,,79,112
86408,note_on,780,0,13,,,,,,,,,12,,,,70,127
86412,note_on,60,0,14,,,,,,,,,13,,,,52,112
86414,note_on,60,0,15,,,,,,,,,14,,,,40,112
86438,note_on,30,0,13,,,,,,,,,12,,,,70,0
86460,note_on,60,0,11,,,,,,,,,10,,,,84,0
86463,note_on,60,0,12,,,,,,,,,11,,,,79,0
86468,note_on,30,0,13,,,,,,,,,12,,,,70,112
86498,note_on,30,0,13,,,,,,,,,12,,,,70,0
86520,note_on,60,0,11,,,,,,,,,10,,,,84,112
86520,set_tempo,120,1,0,,,,,,263158,,,,,,,,
86523,note_on,60,0,12,,,,,,,,,11,,,,79,112
86528,note_on,30,0,13,,,,,,,,,12,,,,72,112
86558,note_on,30,0,13,,,,,,,,,12,,,,72,0
86580,note_on,60,0,11,,,,,,,,,10,,,,84,0
86583,note_on,60,0,12,,,,,,,,,11,,,,79,0
86588,note_on,30,0,13,,,,,,,,,12,,,,70,112
86618,note_on,30,0,13,,,,,,,,,12,,,,70,0
86640,set_tempo,120,1,0,,,,,,288462,,,,,,,,
86640,note_on,60,0,11,,,,,,,,,10,,,,84,112
86641,note_on,0,0,1,,,,,,,,,0,,,,79,101
86641,note_on,265,0,1,,,,,,,,,0,,,,84,101
86643,note_on,60,0,12,,,,,,,,,11,,,,79,112
86644,note_on,0,0,2,,,,,,,,,1,,,,72,100
86644,note_on,265,0,2,,,,,,,,,1,,,,67,100
86645,note_on,265,0,3,,,,,,,,,2,,,,72,101
86645,note_on,0,0,3,,,,,,,,,2,,,,67,101
86648,note_on,30,0,13,,,,,,,,,12,,,,72,112
86649,note_on,0,0,4,,,,,,,,,3,,,,60,100
86649,note_on,265,0,4,,,,,,,,,3,,,,52,100
86678,note_on,30,0,13,,,,,,,,,12,,,,72,0
86700,note_on,60,0,11,,,,,,,,,10,,,,84,0
86703,note_on,60,0,12,,,,,,,,,11,,,,79,0
86708,note_on,30,0,13,,,,,,,,,12,,,,70,112
86736,note_on,95,0,1,,,,,,,,,0,,,,79,0
86736,note_on,0,0,1,,,,,,,,,0,,,,84,0
86738,note_on,30,0,13,,,,,,,,,12,,,,70,0
86739,note_on,0,0,2,,,,,,,,,1,,,,67,0
86739,note_on,95,0,2,,,,,,,,,1,,,,72,0
86740,note_on,95,0,3,,,,,,,,,2,,,,67,0
86740,note_on,0,0,3,,,,,,,,,2,,,,72,0
86744,note_on,95,0,4,,,,,,,,,3,,,,60,0
86744,note_on,0,0,4,,,,,,,,,3,,,,52,0
86760,note_on,0,0,11,,,,,,,,,10,,,,89,112
86760,control_change,60,0,11,,,,,,,,,10,11,45,,,
86760,set_tempo,120,1,0,,,,,,254237,,,,,,,,
86763,control_change,60,0,12,,,,,,,,,11,11,45,,,
86763,note_on,0,0,12,,,,,,,,,11,,,,77,112
86768,note_on,0,0,13,,,,,,,,,12,,,,68,112
86768,control_change,30,0,13,,,,,,,,,12,11,45,,,
86772,note_on,0,0,14,,,,,,,,,13,,,,53,127
86772,note_on,360,0,14,,,,,,,,,13,,,,52,0
86772,control_change,0,0,14,,,,,,,,,13,11,45,,,
86774,control_change,0,0,15,,,,,,,,,14,11,45,,,
86774,note_on,360,0,15,,,,,,,,,14,,,,40,0
86774,note_on,0,0,15,,,,,,,,,14,,,,41,127
86802,note_on,30,0,14,,,,,,,,,13,,,,53,0
86804,note_on,30,0,15,,,,,,,,,14,,,,41,0
86808,control_change,48,0,11,,,,,,,,,10,11,46,,,
86811,control_change,48,0,12,,,,,,,,,11,11,46,,,
86816,control_change,48,0,13,,,,,,,,,12,11,46,,,
86820,control_change,18,0,14,,,,,,,,,13,11,46,,,
86822,control_change,18,0,15,,,,,,,,,14,11,46,,,
86823,note_on,12,0,12,,,,,,,,,11,,,,77,0
86828,note_on,12,0,13,,,,,,,,,12,,,,68,0
86832,note_on,12,0,14,,,,,,,,,13,,,,53,112
86834,note_on,12,0,15,,,,,,,,,14,,,,41,112
86856,control_change,48,0,11,,,,,,,,,10,11,47,,,
86859,control_change,36,0,12,,,,,,,,,11,11,47,,,
86862,note_on,30,0,14,,,,,,,,,13,,,,53,0
86864,note_on,30,0,15,,,,,,,,,14,,,,41,0
86864,control_change,36,0,13,,,,,,,,,12,11,47,,,
86868,control_change,6,0,14,,,,,,,,,13,11,47,,,
86870,control_change,6,0,15,,,,,,,,,14,11,47,,,
86880,set_tempo,120,1,0,,,,,,263158,,,,,,,,
86883,note_on,24,0,12,,,,,,,,,11,,,,77,112
86888,note_on,24,0,13,,,,,,,,,12,,,,68,112
86892,note_on,24,0,14,,,,,,,,,13,,,,55,112
86894,note_on,24,0,15,,,,,,,,,14,,,,43,112
86904,control_change,48,0,11,,,,,,,,,10,11,48,,,
86907,control_change,24,0,12,,,,,,,,,11,11,48,,,
86912,control_change,24,0,13,,,,,,,,,12,11,48,,,
86916,control_change,24,0,14,,,,,,,,,13,11,48,,,
86918,control_change,24,0,15,,,,,,,,,14,11,48,,,
86922,note_on,6,0,14,,,,,,,,,13,,,,55,0
86924,note_on,6,0,15,,,,,,,,,14,,,,43,0
86943,note_on,36,0,12,,,,,,,,,11,,,,77,0
86948,note_on,36,0,13,,,,,,,,,12,,,,68,0
86952,note_on,30,0,14,,,,,,,,,13,,,,53,112
86952,control_change,48,0,11,,,,,,,,,10,11,49,,,
86954,note_on,30,0,15,,,,,,,,,14,,,,41,112
86955,control_change,12,0,12,,,,,,,,,11,11,49,,,
86960,control_change,12,0,13,,,,,,,,,12,11,49,,,
86964,control_change,12,0,14,,,,,,,,,13,11,49,,,
86966,control_change,12,0,15,,,,,,,,,14,11,49,,,
86982,note_on,18,0,14,,,,,,,,,13,,,,53,0
86984,note_on,18,0,15,,,,,,,,,14,,,,41,0
87000,set_tempo,120,1,0,,,,,,288462,,,,,,,,
87000,control_change,48,0,11,,,,,,,,,10,11,50,,,
87001,control_change,0,0,1,,,,,,,,,0,11,42,,,
87001,note_on,0,0,1,,,,,,,,,0,,,,89,101
87001,note_on,265,0,1,,,,,,,,,0,,,,77,101
87003,control_change,48,0,12,,,,,,,,,11,11,50,,,
87003,note_on,0,0,12,,,,,,,,,11,,,,77,112
87004,control_change,0,0,2,,,,,,,,,1,11,42,,,
87004,note_on,0,0,2,,,,,,,,,1,,,,77,100
87004,note_on,265,0,2,,,,,,,,,1,,,,65,100
87005,note_on,0,0,3,,,,,,,,,2,,,,77,101
87005,control_change,265,0,3,,,,,,,,,2,11,42,,,
87005,note_on,0,0,3,,,,,,,,,2,,,,65,101
87008,control_change,0,0,13,,,,,,,,,12,11,50,,,
87008,note_on,48,0,13,,,,,,,,,12,,,,68,112
87009,note_on,0,0,4,,,,,,,,,3,,,,53,100
87009,control_change,265,0,4,,,,,,,,,3,11,42,,,
87012,note_on,30,0,14,,,,,,,,,13,,,,55,112
87012,control_change,0,0,14,,,,,,,,,13,11,50,,,
87014,note_on,30,0,15,,,,,,,,,14,,,,43,112
87014,control_change,0,0,15,,,,,,,,,14,11,50,,,
87042,note_on,30,0,14,,,,,,,,,13,,,,55,0
87044,note_on,30,0,15,,,,,,,,,14,,,,43,0
87048,control_change,48,0,11,,,,,,,,,10,11,51,,,
87049,control_change,48,0,1,,,,,,,,,0,11,43,,,
87051,control_change,48,0,12,,,,,,,,,11,11,51,,,
87052,control_change,48,0,2,,,,,,,,,1,11,43,,,
87053,control_change,48,0,3,,,,,,,,,2,11,43,,,
87056,control_change,48,0,13,,,,,,,,,12,11,51,,,
87057,control_change,48,0,4,,,,,,,,,3,11,43,,,
87060,control_change,18,0,14,,,,,,,,,13,11,51,,,
87062,control_change,18,0,15,,,,,,,,,14,11,51,,,
87063,note_on,12,0,12,,,,,,,,,11,,,,77,0
87068,note_on,12,0,13,,,,,,,,,12,,,,68,0
87072,note_on,12,0,14,,,,,,,,,13,,,,53,112
87074,note_on,12,0,15,,,,,,,,,14,,,,41,112
87096,note_on,0,0,1,,,,,,,,,0,,,,77,0
87096,note_on,47,0,1,,,,,,,,,0,,,,89,0
87096,control_change,48,0,11,,,,,,,,,10,11,52,,,
87097,control_change,1,0,1,,,,,,,,,0,11,44,,,
87099,control_change,36,0,12,,,,,,,,,11,11,52,,,
87099,note_on,0,0,2,,,,,,,,,1,,,,65,0
87099,note_on,47,0,2,,,,,,,,,1,,,,77,0
87100,note_on,47,0,3,,,,,,,,,2,,,,65,0
87100,control_change,1,0,2,,,,,,,,,1,11,44,,,
87100,note_on,0,0,3,,,,,,,,,2,,,,77,0
87101,control_change,1,0,3,,,,,,,,,2,11,44,,,
87102,note_on,30,0,14,,,,,,,,,13,,,,53,0
87104,note_on,47,0,4,,,,,,,,,3,,,,53,0
87104,note_on,30,0,15,,,,,,,,,14,,,,41,0
87104,control_change,36,0,13,,,,,,,,,12,11,52,,,
87105,control_change,1,0,4,,,,,,,,,3,11,44,,,
87108,control_change,6,0,14,,,,,,,,,13,11,52,,,
87110,control_change,6,0,15,,,,,,,,,14,11,52,,,
87120,set_tempo,120,1,0,,,,,,254237,,,,,,,,
87120,note_on,24,0,11,,,,,,,,,10,,,,89,0
87120,note_on,0,0,11,,,,,,,,,10,,,,77,127
87123,note_on,24,0,12,,,,,,,,,11,,,,65,112
87132,note_on,24,0,14,,,,,,,,,13,,,,49,112
87134,note_on,24,0,15,,,,,,,,,14,,,,37,112
87144,control_change,24,0,11,,,,,,,,,10,11,53,,,
87145,control_change,48,0,1,,,,,,,,,0,11,45,,,
87147,control_change,24,0,12,,,,,,,,,11,11,53,,,
87148,control_change,48,0,2,,,,,,,,,1,11,45,,,
87149,control_change,48,0,3,,,,,,,,,2,11,45,,,
87150,note_on,6,0,11,,,,,,,,,10,,,,77,0
87152,control_change,48,0,13,,,,,,,,,12,11,53,,,
87153,control_change,48,0,4,,,,,,,,,3,11,45,,,
87156,control_change,24,0,14,,,,,,,,,13,11,53,,,
87158,control_change,24,0,15,,,,,,,,,14,11,53,,,
87180,note_on,30,0,11,,,,,,,,,10,,,,77,112
87192,control_change,12,0,11,,,,,,,,,10,11,54,,,
87192,note_on,36,0,14,,,,,,,,,13,,,,49,0
87193,control_change,48,0,1,,,,,,,,,0,11,46,,,
87194,note_on,36,0,15,,,,,,,,,14,,,,37,0
87195,control_change,48,0,12,,,,,,,,,11,11,54,,,
87196,control_change,48,0,2,,,,,,,,,1,11,46,,,
87197,control_change,48,0,3,,,,,,,,,2,11,46,,,
87200,control_change,48,0,13,,,,,,,,,12,11,54,,,
87201,control_change,48,0,4,,,,,,,,,3,11,46,,,
87204,control_change,12,0,14,,,,,,,,,13,11,54,,,
87206,control_change,12,0,15,,,,,,,,,14,11,54,,,
87210,note_on,18,0,11,,,,,,,,,10,,,,77,0
87240,control_change,30,0,11,,,,,,,,,10,11,55,,,
87240,note_on,0,0,11,,,,,,,,,10,,,,79,112
87240,set_tempo,120,1,0,,,,,,263158,,,,,,,,
87241,control_change,48,0,1,,,,,,,,,0,11,47,,,
87243,control_change,48,0,12,,,,,,,,,11,11,55,,,
87244,control_change,48,0,2,,,,,,,,,1,11,47,,,
87245,control_change,48,0,3,,,,,,,,,2,11,47,,,
87248,control_change,48,0,13,,,,,,,,,12,11,55,,,
87249,control_change,48,0,4,,,,,,,,,3,11,47,,,
87252,note_on,0,0,14,,,,,,,,,13,,,,49,112
87252,control_change,48,0,14,,,,,,,,,13,11,55,,,
87254,note_on,48,0,15,,,,,,,,,14,,,,37,112
87254,control_change,0,0,15,,,,,,,,,14,11,55,,,
87270,note_on,30,0,11,,,,,,,,,10,,,,79,0
87288,control_change,18,0,11,,,,,,,,,10,11,56,,,
87289,control_change,48,0,1,,,,,,,,,0,11,48,,,
87291,control_change,48,0,12,,,,,,,,,11,11,56,,,
87292,control_change,48,0,2,,,,,,,,,1,11,48,,,
87293,control_change,48,0,3,,,,,,,,,2,11,48,,,
87296,control_change,48,0,13,,,,,,,,,12,11,56,,,
87297,control_change,48,0,4,,,,,,,,,3,11,48,,,
87300,control_change,48,0,14,,,,,,,,,13,11,56,,,
87300,note_on,12,0,11,,,,,,,,,10,,,,77,112
87302,control_change,48,0,15,,,,,,,,,14,11,56,,,
87312,note_on,12,0,14,,,,,,,,,13,,,,49,0
87314,note_on,12,0,15,,,,,,,,,14,,,,37,0
87330,note_on,30,0,11,,,,,,,,,10,,,,77,0
87336,control_change,6,0,11,,,,,,,,,10,11,57,,,
87337,control_change,48,0,1,,,,,,,,,0,11,49,,,
87339,control_change,48,0,12,,,,,,,,,11,11,57,,,
87340,control_change,48,0,2,,,,,,,,,1,11,49,,,
87341,control_change,48,0,3,,,,,,,,,2,11,49,,,
87344,control_change,48,0,13,,,,,,,,,12,11,57,,,
87345,control_change,48,0,4,,,,,,,,,3,11,49,,,
87348,control_change,36,0,14,,,,,,,,,13,11,57,,,
87350,control_change,36,0,15,,,,,,,,,14,11,57,,,
87360,set_tempo,120,1,0,,,,,,288462,,,,,,,,
87360,note_on,24,0,11,,,,,,,,,10,,,,79,112
87361,note_on,24,0,1,,,,,,,,,0,,,,77,101
87364,note_on,24,0,2,,,,,,,,,1,,,,77,100
87365,note_on,24,0,3,,,,,,,,,2,,,,65,101
87369,note_on,24,0,4,,,,,,,,,3,,,,53,100
87369,note_on,0,0,4,,,,,,,,,3,,,,49,100
87372,note_on,24,0,14,,,,,,,,,13,,,,49,112
87374,note_on,24,0,15,,,,,,,,,14,,,,37,112
87384,control_change,24,0,11,,,,,,,,,10,11,57,,,
87385,control_change,24,0,1,,,,,,,,,0,11,50,,,
87387,control_change,48,0,12,,,,,,,,,11,11,57,,,
87388,control_change,24,0,2,,,,,,,,,1,11,50,,,
87389,control_change,24,0,3,,,,,,,,,2,11,50,,,
87390,note_on,6,0,11,,,,,,,,,10,,,,79,0
87392,control_change,48,0,13,,,,,,,,,12,11,57,,,
87393,control_change,24,0,4,,,,,,,,,3,11,50,,,
87396,control_change,24,0,14,,,,,,,,,13,11,57,,,
87398,control_change,24,0,15,,,,,,,,,14,11,57,,,
87420,note_on,30,0,11,,,,,,,,,10,,,,77,112
87432,control_change,12,0,11,,,,,,,,,10,11,58,,,
87432,note_on,36,0,14,,,,,,,,,13,,,,49,0
87433,control_change,48,0,1,,,,,,,,,0,11,51,,,
87434,note_on,36,0,15,,,,,,,,,14,,,,37,0
87435,control_change,48,0,12,,,,,,,,,11,11,58,,,
87436,control_change,48,0,2,,,,,,,,,1,11,51,,,
87437,control_change,48,0,3,,,,,,,,,2,11,51,,,
87440,control_change,48,0,13,,,,,,,,,12,11,58,,,
87441,control_change,48,0,4,,,,,,,,,3,11,51,,,
87444,control_change,12,0,14,,,,,,,,,13,11,58,,,
87446,control_change,12,0,15,,,,,,,,,14,11,58,,,
87450,note_on,18,0,11,,,,,,,,,10,,,,77,0
87456,note_on,23,0,1,,,,,,,,,0,,,,77,0
87459,note_on,23,0,2,,,,,,,,,1,,,,77,0
87460,note_on,23,0,3,,,,,,,,,2,,,,65,0
87464,note_on,23,0,4,,,,,,,,,3,,,,49,0
87464,note_on,0,0,4,,,,,,,,,3,,,,53,0
87480,note_on,30,0,11,,,,,,,,,10,,,,80,112
87480,control_change,0,0,11,,,,,,,,,10,11,59,,,
87480,set_tempo,120,1,0,,,,,,254237,,,,,,,,
87481,control_change,25,0,1,,,,,,,,,0,11,52,,,
87483,note_on,0,0,12,,,,,,,,,11,,,,75,127
87483,note_on,48,0,12,,,,,,,,,11,,,,65,0
87483,control_change,0,0,12,,,,,,,,,11,11,59,,,
87484,control_change,25,0,2,,,,,,,,,1,11,52,,,
87485,control_change,25,0,3,,,,,,,,,2,11,52,,,
87488,control_change,48,0,13,,,,,,,,,12,11,59,,,
87489,control_change,25,0,4,,,,,,,,,3,11,52,,,
87492,control_change,48,0,14,,,,,,,,,13,11,59,,,
87492,note_on,0,0,14,,,,,,,,,13,,,,48,112
87494,control_change,48,0,15,,,,,,,,,14,11,59,,,
87494,note_on,0,0,15,,,,,,,,,14,,,,36,112
87513,note_on,30,0,12,,,,,,,,,11,,,,75,0
87528,control_change,48,0,11,,,,,,,,,10,11,60,,,
87529,control_change,48,0,1,,,,,,,,,0,11,52,,,
87531,control_change,18,0,12,,,,,,,,,11,11,60,,,
87532,control_change,48,0,2,,,,,,,,,1,11,52,,,
87533,control_change,48,0,3,,,,,,,,,2,11,52,,,
87536,control_change,48,0,13,,,,,,,,,12,11,60,,,
87537,control_change,48,0,4,,,,,,,,,3,11,53,,,
87540,note_on,12,0,11,,,,,,,,,10,,,,80,0
87540,control_change,48,0,14,,,,,,,,,13,11,60,,,
87542,control_change,48,0,15,,,,,,,,,14,11,60,,,
87543,note_on,12,0,12,,,,,,,,,11,,,,75,112
87552,note_on,12,0,14,,,,,,,,,13,,,,48,0
87554,note_on,12,0,15,,,,,,,,,14,,,,36,0
87573,note_on,30,0,12,,,,,,,,,11,,,,75,0
87576,control_change,36,0,11,,,,,,,,,10,11,61,,,
87577,control_change,48,0,1,,,,,,,,,0,11,53,,,
87579,control_change,6,0,12,,,,,,,,,11,11,61,,,
87580,control_change,48,0,2,,,,,,,,,1,11,53,,,
87581,control_change,48,0,3,,,,,,,,,2,11,53,,,
87584,control_change,48,0,13,,,,,,,,,12,11,61,,,
87585,control_change,48,0,4,,,,,,,,,3,11,54,,,
87588,control_change,36,0,14,,,,,,,,,13,11,61,,,
87590,control_change,36,0,15,,,,,,,,,14,11,61,,,
87600,note_on,24,0,11,,,,,,,,,10,,,,80,112
87600,set_tempo,120,1,0,,,,,,263158,,,,,,,,
87603,note_on,24,0,12,,,,,,,,,11,,,,77,112
87612,note_on,24,0,14,,,,,,,,,13,,,,48,112
87614,note_on,24,0,15,,,,,,,,,14,,,,36,112
87624,control_change,24,0,11,,,,,,,,,10,11,62,,,
87625,control_change,48,0,1,,,,,,,,,0,11,54,,,
87627,control_change,24,0,12,,,,,,,,,11,11,62,,,
87628,control_change,48,0,2,,,,,,,,,1,11,54,,,
87629,control_change,48,0,3,,,,,,,,,2,11,54,,,
87632,control_change,48,0,13,,,,,,,,,12,11,62,,,
87633,note_on,6,0,12,,,,,,,,,11,,,,77,0
87633,control_change,48,0,4,,,,,,,,,3,11,55,,,
87636,control_change,24,0,14,,,,,,,,,13,11,62,,,
87638,control_change,24,0,15,,,,,,,,,14,11,62,,,
87660,note_on,36,0,11,,,,,,,,,10,,,,80,0
87663,note_on,30,0,12,,,,,,,,,11,,,,75,112
87672,control_change,12,0,11,,,,,,,,,10,11,63,,,
87672,note_on,36,0,14,,,,,,,,,13,,,,48,0
87673,control_change,48,0,1,,,,,,,,,0,11,55,,,
87674,note_on,36,0,15,,,,,,,,,14,,,,36,0
87675,control_change,12,0,12,,,,,,,,,11,11,63,,,
87676,control_change,48,0,2,,,,,,,,,1,11,55,,,
87677,control_change,48,0,3,,,,,,,,,2,11,55,,,
87680,control_change,48,0,13,,,,,,,,,12,11,63,,,
87681,control_change,48,0,4,,,,,,,,,3,11,56,,,
87684,control_change,12,0,14,,,,,,,,,13,11,63,,,
87686,control_change,12,0,15,,,,,,,,,14,11,63,,,
87693,note_on,18,0,12,,,,,,,,,11,,,,75,0
87720,note_on,48,0,11,,,,,,,,,10,,,,80,112
87720,control_change,0,0,11,,,,,,,,,10,11,64,,,
87720,set_tempo,120,1,0,,,,,,288462,,,,,,,,
87721,note_on,0,0,1,,,,,,,,,0,,,,75,101
87721,note_on,0,0,1,,,,,,,,,0,,,,80,101
87721,control_change,48,0,1,,,,,,,,,0,11,55,,,
87723,note_on,30,0,12,,,,,,,,,11,,,,77,112
87723,control_change,0,0,12,,,,,,,,,11,11,64,,,
87724,note_on,0,0,2,,,,,,,,,1,,,,80,100
87724,control_change,48,0,2,,,,,,,,,1,11,55,,,
87724,note_on,0,0,2,,,,,,,,,1,,,,75,100
87725,note_on,48,0,3,,,,,,,,,2,,,,68,101
87725,control_change,0,0,3,,,,,,,,,2,11,55,,,
87725,note_on,0,0,3,,,,,,,,,2,,,,63,101
87728,control_change,48,0,13,,,,,,,,,12,11,64,,,
87729,control_change,0,0,4,,,,,,,,,3,11,57,,,
87729,note_on,0,0,4,,,,,,,,,3,,,,48,100
87729,note_on,48,0,4,,,,,,,,,3,,,,56,100
87732,note_on,0,0,14,,,,,,,,,13,,,,48,112
87732,control_change,48,0,14,,,,,,,,,13,11,64,,,
87734,note_on,0,0,15,,,,,,,,,14,,,,36,112
87734,control_change,48,0,15,,,,,,,,,14,11,64,,,
87753,note_on,30,0,12,,,,,,,,,11,,,,77,0
87768,control_change,48,0,11,,,,,,,,,10,11,65,,,
87769,control_change,48,0,1,,,,,,,,,0,11,56,,,
87771,control_change,18,0,12,,,,,,,,,11,11,65,,,
87772,control_change,48,0,2,,,,,,,,,1,11,56,,,
87773,control_change,48,0,3,,,,,,,,,2,11,56,,,
87776,control_change,48,0,13,,,,,,,,,12,11,65,,,
87777,control_change,48,0,4,,,,,,,,,3,11,58,,,
87780,control_change,48,0,14,,,,,,,,,13,11,65,,,
87780,note_on,12,0,11,,,,,,,,,10,,,,80,0
87782,control_change,48,0,15,,,,,,,,,14,11,65,,,
87783,note_on,12,0,12,,,,,,,,,11,,,,75,112
87792,note_on,12,0,14,,,,,,,,,13,,,,48,0
87794,note_on,12,0,15,,,,,,,,,14,,,,36,0
87813,note_on,30,0,12,,,,,,,,,11,,,,75,0
87816,note_on,0,0,1,,,,,,,,,0,,,,80,0
87816,note_on,47,0,1,,,,,,,,,0,,,,75,0
87816,control_change,36,0,11,,,,,,,,,10,11,66,,,
87817,control_change,1,0,1,,,,,,,,,0,11,57,,,
87819,note_on,0,0,2,,,,,,,,,1,,,,80,0
87819,note_on,47,0,2,,,,,,,,,1,,,,75,0
87819,control_change,6,0,12,,,,,,,,,11,11,66,,,
87820,note_on,47,0,3,,,,,,,,,2,,,,63,0
87820,control_change,1,0,2,,,,,,,,,1,11,57,,,
87820,note_on,0,0,3,,,,,,,,,2,,,,68,0
87821,control_change,1,0,3,,,,,,,,,2,11,57,,,
87824,note_on,0,0,4,,,,,,,,,3,,,,56,0
87824,note_on,47,0,4,,,,,,,,,3,,,,48,0
87824,control_change,48,0,13,,,,,,,,,12,11,66,,,
87825,control_change,1,0,4,,,,,,,,,3,11,59,,,
87828,control_change,36,0,14,,,,,,,,,13,11,66,,,
87830,control_change,36,0,15,,,,,,,,,14,11,66,,,
87840,set_tempo,120,1,0,,,,,,254237,,,,,,,,
87840,note_on,24,0,11,,,,,,,,,10,,,,79,112
87843,note_on,24,0,12,,,,,,,,,11,,,,74,112
87848,note_on,24,0,13,,,,,,,,,12,,,,65,127
87852,note_on,24,0,14,,,,,,,,,13,,,,47,112
87854,note_on,24,0,15,,,,,,,,,14,,,,35,112
87864,control_change,24,0,11,,,,,,,,,10,11,67,,,
87865,control_change,48,0,1,,,,,,,,,0,11,58,,,
87867,control_change,24,0,12,,,,,,,,,11,11,67,,,
87868,control_change,48,0,2,,,,,,,,,1,11,58,,,
87869,control_change,48,0,3,,,,,,,,,2,11,58,,,
87872,control_change,24,0,13,,,,,,,,,12,11,67,,,
87873,control_change,48,0,4,,,,,,,,,3,11,60,,,
87876,control_change,24,0,14,,,,,,,,,13,11,67,,,
87878,note_on,6,0,13,,,,,,,,,12,,,,65,0
87878,control_change,24,0,15,,,,,,,,,14,11,67,,,
87900,note_on,36,0,11,,,,,,,,,10,,,,79,0
87903,note_on,36,0,12,,,,,,,,,11,,,,74,0
87908,note_on,30,0,13,,,,,,,,,12,,,,65,112
87912,control_change,12,0,11,,,,,,,,,10,11,68,,,
87913,control_change,48,0,1,,,,,,,,,0,11,58,,,
87915,control_change,12,0,12,,,,,,,,,11,11,68,,,
87916,control_change,48,0,2,,,,,,,,,1,11,58,,,
87917,control_change,48,0,3,,,,,,,,,2,11,58,,,
87920,control_change,12,0,13,,,,,,,,,12,11,68,,,
87921,control_change,48,0,4,,,,,,,,,3,11,61,,,
87924,control_change,48,0,14,,,,,,,,,13,11,68,,,
87926,control_change,48,0,15,,,,,,,,,14,11,68,,,
87938,note_on,18,0,13,,,,,,,,,12,,,,65,0
87960,note_on,0,0,11,,,,,,,,,10,,,,79,112
87960,control_change,48,0,11,,,,,,,,,10,11,69,,,
87960,set_tempo,120,1,0,,,,,,263158,,,,,,,,
87961,control_change,48,0,1,,,,,,,,,0,11,59,,,
87963,note_on,0,0,12,,,,,,,,,11,,,,74,112
87963,control_change,48,0,12,,,,,,,,,11,11,69,,,
87964,control_change,48,0,2,,,,,,,,,1,11,59,,,
87965,control_change,48,0,3,,,,,,,,,2,11,59,,,
87968,control_change,0,0,13,,,,,,,,,12,11,69,,,
87968,note_on,30,0,13,,,,,,,,,12,,,,67,112
87969,control_change,48,0,4,,,,,,,,,3,11,62,,,
87972,control_change,48,0,14,,,,,,,,,13,11,69,,,
87974,control_change,48,0,15,,,,,,,,,14,11,69,,,
87998,note_on,30,0,13,,,,,,,,,12,,,,67,0
88008,control_change,48,0,11,,,,,,,,,10,11,70,,,
88009,control_change,48,0,1,,,,,,,,,0,11,60,,,
88011,control_change,48,0,12,,,,,,,,,11,11,70,,,
88012,control_change,48,0,2,,,,,,,,,1,11,60,,,
88013,control_change,48,0,3,,,,,,,,,2,11,60,,,
88016,control_change,18,0,13,,,,,,,,,12,11,70,,,
88017,control_change,48,0,4,,,,,,,,,3,11,63,,,
88020,control_change,48,0,14,,,,,,,,,13,11,70,,,
88020,note_on,12,0,11,,,,,,,,,10,,,,79,0
88022,control_change,48,0,15,,,,,,,,,14,11,70,,,
88023,note_on,12,0,12,,,,,,,,,11,,,,74,0
88028,note_on,12,0,13,,,,,,,,,12,,,,65,112
88056,control_change,36,0,11,,,,,,,,,10,11,71,,,
88057,control_change,48,0,1,,,,,,,,,0,11,61,,,
88058,note_on,30,0,13,,,,,,,,,12,,,,65,0
88059,control_change,36,0,12,,,,,,,,,11,11,71,,,
88060,control_change,48,0,2,,,,,,,,,1,11,61,,,
88061,control_change,48,0,3,,,,,,,,,2,11,61,,,
88064,control_change,6,0,13,,,,,,,,,12,11,71,,,
88065,control_change,48,0,4,,,,,,,,,3,11,64,,,
88068,control_change,48,0,14,,,,,,,,,13,11,71,,,
88070,control_change,48,0,15,,,,,,,,,14,11,71,,,
88080,set_tempo,120,1,0,,,,,,288462,,,,,,,,
88080,note_on,24,0,11,,,,,,,,,10,,,,60,112
88081,note_on,0,0,1,,,,,,,,,0,,,,79,101
88081,note_on,24,0,1,,,,,,,,,0,,,,74,101
88083,note_on,24,0,12,,,,,,,,,11,,,,60,112
88084,note_on,24,0,2,,,,,,,,,1,,,,79,100
88084,note_on,0,0,2,,,,,,,,,1,,,,74,100
88085,note_on,0,0,3,,,,,,,,,2,,,,62,101
88085,note_on,24,0,3,,,,,,,,,2,,,,67,101
88087,program_change,23,0,13,,,,,,,,50,12,,,,,
88088,note_on,1,0,13,,,,,,,,,12,,,,60,112
88089,note_on,24,0,4,,,,,,,,,3,,,,47,100
88089,note_on,0,0,4,,,,,,,,,3,,,,55,100
88092,note_on,0,0,14,,,,,,,,,13,,,,48,112
88092,note_on,24,0,14,,,,,,,,,13,,,,47,0
88094,note_on,24,0,15,,,,,,,,,14,,,,35,0
88094,note_on,0,0,15,,,,,,,,,14,,,,36,112
88104,control_change,24,0,11,,,,,,,,,10,11,72,,,
88105,control_change,24,0,1,,,,,,,,,0,11,61,,,
88107,control_change,24,0,12,,,,,,,,,11,11,72,,,
88108,control_change,24,0,2,,,,,,,,,1,11,61,,,
88109,control_change,24,0,3,,,,,,,,,2,11,61,,,
88110,note_on,6,0,11,,,,,,,,,10,,,,60,0
88112,control_change,24,0,13,,,,,,,,,12,11,72,,,
88113,note_on,6,0,12,,,,,,,,,11,,,,60,0
88113,control_change,24,0,4,,,,,,,,,3,11,65,,,
88116,control_change,24,0,14,,,,,,,,,13,11,72,,,
88118,note_on,6,0,13,,,,,,,,,12,,,,60,0
88118,control_change,24,0,15,,,,,,,,,14,11,72,,,
88122,note_on,6,0,14,,,,,,,,,13,,,,48,0
88124,note_on,6,0,15,,,,,,,,,14,,,,36,0
88140,note_on,30,0,11,,,,,,,,,10,,,,59,112
88141,note_on,0,0,1,,,,,,,,,0,,,,74,0
88141,note_on,36,0,1,,,,,,,,,0,,,,79,0
88143,note_on,30,0,12,,,,,,,,,11,,,,59,112
88144,note_on,0,0,2,,,,,,,,,1,,,,79,0
88144,note_on,36,0,2,,,,,,,,,1,,,,74,0
88145,note_on,0,0,3,,,,,,,,,2,,,,67,0
88145,note_on,36,0,3,,,,,,,,,2,,,,62,0
88148,note_on,30,0,13,,,,,,,,,12,,,,59,112
88149,note_on,0,0,4,,,,,,,,,3,,,,47,0
88149,note_on,36,0,4,,,,,,,,,3,,,,55,0
88152,note_on,30,0,14,,,,,,,,,13,,,,47,112
88152,control_change,12,0,11,,,,,,,,,10,11,72,,,
88153,control_change,12,0,1,,,,,,,,,0,11,62,,,
88154,note_on,30,0,15,,,,,,,,,14,,,,35,112
88155,control_change,12,0,12,,,,,,,,,11,11,72,,,
88156,control_change,12,0,2,,,,,,,,,1,11,62,,,
88157,control_change,12,0,3,,,,,,,,,2,11,62,,,
88160,control_change,12,0,13,,,,,,,,,12,11,72,,,
88161,control_change,12,0,4,,,,,,,,,3,11,66,,,
88164,control_change,12,0,14,,,,,,,,,13,11,72,,,
88166,control_change,12,0,15,,,,,,,,,14,11,72,,,
88170,note_on,18,0,11,,,,,,,,,10,,,,59,0
88173,note_on,18,0,12,,,,,,,,,11,,,,59,0
88178,note_on,18,0,13,,,,,,,,,12,,,,59,0
88182,note_on,18,0,14,,,,,,,,,13,,,,47,0
88184,note_on,18,0,15,,,,,,,,,14,,,,35,0
88200,set_tempo,120,1,0,,,,,,265487,,,,,,,,
88200,note_on,30,0,11,,,,,,,,,10,,,,62,112
88200,control_change,0,0,11,,,,,,,,,10,11,73,,,
88201,note_on,0,0,1,,,,,,,,,0,,,,80,101
88201,note_on,0,0,1,,,,,,,,,0,,,,75,101
88201,control_change,48,0,1,,,,,,,,,0,11,63,,,
88203,note_on,30,0,12,,,,,,,,,11,,,,62,112
88203,control_change,0,0,12,,,,,,,,,11,11,73,,,
88204,control_change,0,0,2,,,,,,,,,1,11,63,,,
88204,note_on,0,0,2,,,,,,,,,1,,,,75,100
88204,note_on,48,0,2,,,,,,,,,1,,,,80,100
88205,control_change,0,0,3,,,,,,,,,2,11,63,,,
88205,note_on,0,0,3,,,,,,,,,2,,,,63,101
88205,note_on,48,0,3,,,,,,,,,2,,,,68,101
88208,control_change,30,0,13,,,,,,,,,12,11,73,,,
88208,note_on,0,0,13,,,,,,,,,12,,,,62,112
88209,note_on,0,0,4,,,,,,,,,3,,,,48,100
88209,control_change,0,0,4,,,,,,,,,3,11,67,,,
88209,note_on,48,0,4,,,,,,,,,3,,,,56,100
88212,note_on,0,0,14,,,,,,,,,13,,,,50,112
88212,control_change,30,0,14,,,,,,,,,13,11,73,,,
88214,control_change,30,0,15,,,,,,,,,14,11,73,,,
88214,note_on,0,0,15,,,,,,,,,14,,,,38,112
88230,note_on,30,0,11,,,,,,,,,10,,,,62,0
88233,note_on,30,0,12,,,,,,,,,11,,,,62,0
88238,note_on,30,0,13,,,,,,,,,12,,,,62,0
88242,note_on,30,0,14,,,,,,,,,13,,,,50,0
88244,note_on,30,0,15,,,,,,,,,14,,,,38,0
88248,control_change,18,0,11,,,,,,,,,10,11,74,,,
88249,control_change,48,0,1,,,,,,,,,0,11,64,,,
88251,control_change,18,0,12,,,,,,,,,11,11,74,,,
88252,control_change,48,0,2,,,,,,,,,1,11,64,,,
88253,control_change,48,0,3,,,,,,,,,2,11,64,,,
88256,control_change,18,0,13,,,,,,,,,12,11,74,,,
88257,control_change,48,0,4,,,,,,,,,3,11,68,,,
88260,note_on,12,0,11,,,,,,,,,10,,,,60,112
88260,control_change,18,0,14,,,,,,,,,13,11,74,,,
88261,note_on,12,0,1,,,,,,,,,0,,,,75,0
88261,note_on,0,0,1,,,,,,,,,0,,,,80,0
88262,control_change,18,0,15,,,,,,,,,14,11,74,,,
88263,note_on,12,0,12,,,,,,,,,11,,,,60,112
88264,note_on,0,0,2,,,,,,,,,1,,,,80,0
88264,note_on,12,0,2,,,,,,,,,1,,,,75,0
88265,note_on,12,0,3,,,,,,,,,2,,,,63,0
88265,note_on,0,0,3,,,,,,,,,2,,,,68,0
88268,note_on,12,0,13,,,,,,,,,12,,,,60,112
88269,note_on,12,0,4,,,,,,,,,3,,,,48,0
88269,note_on,0,0,4,,,,,,,,,3,,,,56,0
88272,note_on,12,0,14,,,,,,,,,13,,,,48,112
88274,note_on,12,0,15,,,,,,,,,14,,,,36,112
88290,note_on,30,0,11,,,,,,,,,10,,,,60,0
88293,note_on,30,0,12,,,,,,,,,11,,,,60,0
88296,control_change,6,0,11,,,,,,,,,10,11,75,,,
88297,control_change,36,0,1,,,,,,,,,0,11,64,,,
88298,note_on,30,0,13,,,,,,,,,12,,,,60,0
88299,control_change,6,0,12,,,,,,,,,11,11,75,,,
88300,control_change,36,0,2,,,,,,,,,1,11,64,,,
88301,control_change,36,0,3,,,,,,,,,2,11,64,,,
88302,note_on,30,0,14,,,,,,,,,13,,,,48,0
88304,control_change,6,0,13,,,,,,,,,12,11,75,,,
88304,note_on,30,0,15,,,,,,,,,14,,,,36,0
88305,control_change,36,0,4,,,,,,,,,3,11,69,,,
88308,control_change,6,0,14,,,,,,,,,13,11,75,,,
88310,control_change,6,0,15,,,,,,,,,14,11,75,,,
88320,note_on,24,0,11,,,,,,,,,10,,,,63,112
88321,note_on,24,0,1,,,,,,,,,0,,,,83,101
88321,note_on,0,0,1,,,,,,,,,0,,,,77,101
88323,note_on,24,0,12,,,,,,,,,11,,,,63,112
88324,note_on,0,0,2,,,,,,,,,1,,,,83,100
88324,note_on,24,0,2,,,,,,,,,1,,,,77,100
88325,note_on,24,0,3,,,,,,,,,2,,,,71,101
88325,note_on,0,0,3,,,,,,,,,2,,,,65,101
88328,note_on,24,0,13,,,,,,,,,12,,,,63,112
88329,note_on,24,0,4,,,,,,,,,3,,,,50,100
88329,note_on,0,0,4,,,,,,,,,3,,,,59,100
88332,note_on,24,0,14,,,,,,,,,13,,,,51,112
88334,note_on,24,0,15,,,,,,,,,14,,,,39,112
88344,control_change,24,0,11,,,,,,,,,10,11,76,,,
88345,control_change,24,0,1,,,,,,,,,0,11,65,,,
88347,control_change,24,0,12,,,,,,,,,11,11,76,,,
88348,control_change,24,0,2,,,,,,,,,1,11,65,,,
88349,control_change,24,0,3,,,,,,,,,2,11,65,,,
88350,note_on,6,0,11,,,,,,,,,10,,,,63,0
88352,control_change,24,0,13,,,,,,,,,12,11,76,,,
88353,control_change,24,0,4,,,,,,,,,3,11,70,,,
88353,note_on,6,0,12,,,,,,,,,11,,,,63,0
88356,control_change,24,0,14,,,,,,,,,13,11,76,,,
88358,control_change,24,0,15,,,,,,,,,14,11,76,,,
88358,note_on,6,0,13,,,,,,,,,12,,,,63,0
88362,note_on,6,0,14,,,,,,,,,13,,,,51,0
88364,note_on,6,0,15,,,,,,,,,14,,,,39,0
88380,note_on,30,0,11,,,,,,,,,10,,,,62,112
88381,note_on,36,0,1,,,,,,,,,0,,,,77,0
88381,note_on,0,0,1,,,,,,,,,0,,,,83,0
88383,note_on,30,0,12,,,,,,,,,11,,,,62,112
88384,note_on,0,0,2,,,,,,,,,1,,,,77,0
88384,note_on,36,0,2,,,,,,,,,1,,,,83,0
88385,note_on,36,0,3,,,,,,,,,2,,,,65,0
88385,note_on,0,0,3,,,,,,,,,2,,,,71,0
88388,note_on,30,0,13,,,,,,,,,12,,,,62,112
88389,note_on,0,0,4,,,,,,,,,3,,,,50,0
88389,note_on,36,0,4,,,,,,,,,3,,,,59,0
88392,control_change,12,0,11,,,,,,,,,10,11,77,,,
88392,note_on,30,0,14,,,,,,,,,13,,,,50,112
88393,control_change,12,0,1,,,,,,,,,0,11,66,,,
88394,note_on,30,0,15,,,,,,,,,14,,,,38,112
88395,control_change,12,0,12,,,,,,,,,11,11,77,,,
88396,control_change,12,0,2,,,,,,,,,1,11,66,,,
88397,control_change,12,0,3,,,,,,,,,2,11,66,,,
88400,control_change,12,0,13,,,,,,,,,12,11,77,,,
88401,control_change,12,0,4,,,,,,,,,3,11,71,,,
88404,control_change,12,0,14,,,,,,,,,13,11,77,,,
88406,control_change,12,0,15,,,,,,,,,14,11,77,,,
88410,note_on,18,0,11,,,,,,,,,10,,,,62,0
88413,note_on,18,0,12,,,,,,,,,11,,,,62,0
88418,note_on,18,0,13,,,,,,,,,12,,,,62,0
88422,note_on,18,0,14,,,,,,,,,13,,,,50,0
88424,note_on,18,0,15,,,,,,,,,14,,,,38,0
88440,set_tempo,240,1,0,,,,,,279070,,,,,,,,
88440,control_change,30,0,11,,,,,,,,,10,11,78,,,
88440,note_on,0,0,11,,,,,,,,,10,,,,65,112
88441,note_on,0,0,1,,,,,,,,,0,,,,84,101
88441,note_on,0,0,1,,,,,,,,,0,,,,79,101
88441,control_change,48,0,1,,,,,,,,,0,11,67,,,
88443,control_change,30,0,12,,,,,,,,,11,11,78,,,
88443,note_on,0,0,12,,,,,,,,,11,,,,65,112
88444,control_change,48,0,2,,,,,,,,,1,11,67,,,
88444,note_on,0,0,2,,,,,,,,,1,,,,84,100
88444,note_on,0,0,2,,,,,,,,,1,,,,79,100
88445,note_on,0,0,3,,,,,,,,,2,,,,67,101
88445,note_on,48,0,3,,,,,,,,,2,,,,72,101
88445,control_change,0,0,3,,,,,,,,,2,11,67,,,
88448,note_on,30,0,13,,,,,,,,,12,,,,65,112
88448,control_change,0,0,13,,,,,,,,,12,11,78,,,
88449,note_on,0,0,4,,,,,,,,,3,,,,60,100
88449,note_on,0,0,4,,,,,,,,,3,,,,51,100
88449,control_change,48,0,4,,,,,,,,,3,11,72,,,
88452,control_change,30,0,14,,,,,,,,,13,11,78,,,
88452,note_on,0,0,14,,,,,,,,,13,,,,53,112
88454,note_on,0,0,15,,,,,,,,,14,,,,41,112
88454,control_change,30,0,15,,,,,,,,,14,11,78,,,
88470,note_on,30,0,11,,,,,,,,,10,,,,65,0
88473,note_on,30,0,12,,,,,,,,,11,,,,65,0
88478,note_on,30,0,13,,,,,,,,,12,,,,65,0
88482,note_on,30,0,14,,,,,,,,,13,,,,53,0
88484,note_on,30,0,15,,,,,,,,,14,,,,41,0
88488,control_change,18,0,11,,,,,,,,,10,11,79,,,
88489,control_change,48,0,1,,,,,,,,,0,11,67,,,
88491,control_change,18,0,12,,,,,,,,,11,11,79,,,
88492,control_change,48,0,2,,,,,,,,,1,11,67,,,
88493,control_change,48,0,3,,,,,,,,,2,11,67,,,
88496,control_change,18,0,13,,,,,,,,,12,11,79,,,
88497,control_change,48,0,4,,,,,,,,,3,11,73,,,
88500,control_change,18,0,14,,,,,,,,,13,11,79,,,
88500,note_on,12,0,11,,,,,,,,,10,,,,63,112
88501,note_on,12,0,1,,,,,,,,,0,,,,84,0
88501,note_on,0,0,1,,,,,,,,,0,,,,79,0
88502,control_change,18,0,15,,,,,,,,,14,11,79,,,
88503,note_on,12,0,12,,,,,,,,,11,,,,63,112
88504,note_on,0,0,2,,,,,,,,,1,,,,79,0
88504,note_on,12,0,2,,,,,,,,,1,,,,84,0
88505,note_on,12,0,3,,,,,,,,,2,,,,67,0
88505,note_on,0,0,3,,,,,,,,,2,,,,72,0
88508,note_on,12,0,13,,,,,,,,,12,,,,63,112
88509,note_on,0,0,4,,,,,,,,,3,,,,60,0
88509,note_on,12,0,4,,,,,,,,,3,,,,51,0
88512,note_on,12,0,14,,,,,,,,,13,,,,51,112
88514,note_on,12,0,15,,,,,,,,,14,,,,39,112
88530,note_on,30,0,11,,,,,,,,,10,,,,63,0
88533,note_on,30,0,12,,,,,,,,,11,,,,63,0
88536,control_change,6,0,11,,,,,,,,,10,11,80,,,
88537,control_change,36,0,1,,,,,,,,,0,11,68,,,
88538,note_on,30,0,13,,,,,,,,,12,,,,63,0
88539,control_change,6,0,12,,,,,,,,,11,11,80,,,
88540,control_change,36,0,2,,,,,,,,,1,11,68,,,
88541,control_change,36,0,3,,,,,,,,,2,11,68,,,
88542,note_on,30,0,14,,,,,,,,,13,,,,51,0
88544,control_change,6,0,13,,,,,,,,,12,11,80,,,
88544,note_on,30,0,15,,,,,,,,,14,,,,39,0
88545,control_change,36,0,4,,,,,,,,,3,11,74,,,
88548,control_change,6,0,14,,,,,,,,,13,11,80,,,
88550,control_change,6,0,15,,,,,,,,,14,11,80,,,
88560,set_tempo,120,1,0,,,,,,265487,,,,,,,,
88560,note_on,24,0,11,,,,,,,,,10,,,,67,112
88561,note_on,0,0,1,,,,,,,,,0,,,,86,101
88561,note_on,24,0,1,,,,,,,,,0,,,,80,101
88563,note_on,24,0,12,,,,,,,,,11,,,,67,112
88564,note_on,24,0,2,,,,,,,,,1,,,,74,100
88564,note_on,0,0,2,,,,,,,,,1,,,,68,100
88565,note_on,24,0,3,,,,,,,,,2,,,,68,101
88565,note_on,0,0,3,,,,,,,,,2,,,,74,101
88568,note_on,24,0,13,,,,,,,,,12,,,,67,112
88569,note_on,24,0,4,,,,,,,,,3,,,,53,100
88569,note_on,0,0,4,,,,,,,,,3,,,,62,100
88572,note_on,24,0,14,,,,,,,,,13,,,,55,112
88574,note_on,24,0,15,,,,,,,,,14,,,,43,112
88584,control_change,24,0,11,,,,,,,,,10,11,81,,,
88585,control_change,24,0,1,,,,,,,,,0,11,69,,,
88587,control_change,24,0,12,,,,,,,,,11,11,81,,,
88588,control_change,24,0,2,,,,,,,,,1,11,69,,,
88589,control_change,24,0,3,,,,,,,,,2,11,69,,,
88590,note_on,6,0,11,,,,,,,,,10,,,,67,0
88592,control_change,24,0,13,,,,,,,,,12,11,81,,,
88593,control_change,24,0,4,,,,,,,,,3,11,75,,,
88593,note_on,6,0,12,,,,,,,,,11,,,,67,0
88596,control_change,24,0,14,,,,,,,,,13,11,81,,,
88598,control_change,24,0,15,,,,,,,,,14,11,81,,,
88598,note_on,6,0,13,,,,,,,,,12,,,,67,0
88602,note_on,6,0,14,,,,,,,,,13,,,,55,0
88604,note_on,6,0,15,,,,,,,,,14,,,,43,0
88620,note_on,30,0,11,,,,,,,,,10,,,,65,112
88621,note_on,36,0,1,,,,,,,,,0,,,,86,0
88621,note_on,0,0,1,,,,,,,,,0,,,,80,0
88623,note_on,30,0,12,,,,,,,,,11,,,,65,112
88624,note_on,36,0,2,,,,,,,,,1,,,,68,0
88624,note_on,0,0,2,,,,,,,,,1,,,,74,0
88625,note_on,36,0,3,,,,,,,,,2,,,,74,0
88625,note_on,0,0,3,,,,,,,,,2,,,,68,0
88628,note_on,30,0,13,,,,,,,,,12,,,,65,112
88629,note_on,0,0,4,,,,,,,,,3,,,,53,0
88629,note_on,36,0,4,,,,,,,,,3,,,,62,0
88632,control_change,12,0,11,,,,,,,,,10,11,82,,,
88632,note_on,30,0,14,,,,,,,,,13,,,,53,112
88633,control_change,12,0,1,,,,,,,,,0,11,70,,,
88634,note_on,30,0,15,,,,,,,,,14,,,,41,112
88635,control_change,12,0,12,,,,,,,,,11,11,82,,,
88636,control_change,12,0,2,,,,,,,,,1,11,70,,,
88637,control_change,12,0,3,,,,,,,,,2,11,70,,,
88640,control_change,12,0,13,,,,,,,,,12,11,82,,,
88641,control_change,12,0,4,,,,,,,,,3,11,76,,,
88644,control_change,12,0,14,,,,,,,,,13,11,82,,,
88646,control_change,12,0,15,,,,,,,,,14,11,82,,,
88650,note_on,18,0,11,,,,,,,,,10,,,,65,0
88653,note_on,18,0,12,,,,,,,,,11,,,,65,0
88658,note_on,18,0,13,,,,,,,,,12,,,,65,0
88662,note_on,18,0,14,,,,,,,,,13,,,,53,0
88664,note_on,18,0,15,,,,,,,,,14,,,,41,0
88680,note_on,0,0,11,,,,,,,,,10,,,,68,112
88680,control_change,30,0,11,,,,,,,,,10,11,83,,,
88681,note_on,48,0,1,,,,,,,,,0,,,,87,101
88681,note_on,0,0,1,,,,,,,,,0,,,,82,101
88681,control_change,0,0,1,,,,,,,,,0,11,70,,,
88683,note_on,0,0,12,,,,,,,,,11,,,,68,112
88683,control_change,30,0,12,,,,,,,,,11,11,83,,,
88684,note_on,48,0,2,,,,,,,,,1,,,,75,100
88684,control_change,0,0,2,,,,,,,,,1,11,70,,,
88684,note_on,0,0,2,,,,,,,,,1,,,,70,100
88685,note_on,0,0,3,,,,,,,,,2,,,,70,101
88685,note_on,0,0,3,,,,,,,,,2,,,,75,101
88685,control_change,48,0,3,,,,,,,,,2,11,70,,,
88688,control_change,0,0,13,,,,,,,,,12,11,83,,,
88688,note_on,30,0,13,,,,,,,,,12,,,,68,112
88689,control_change,48,0,4,,,,,,,,,3,11,77,,,
88689,note_on,0,0,4,,,,,,,,,3,,,,55,100
88689,note_on,0,0,4,,,,,,,,,3,,,,63,100
88692,note_on,0,0,14,,,,,,,,,13,,,,56,112
88692,control_change,30,0,14,,,,,,,,,13,11,83,,,
88694,note_on,0,0,15,,,,,,,,,14,,,,44,112
88694,control_change,30,0,15,,,,,,,,,14,11,83,,,
88710,note_on,30,0,11,,,,,,,,,10,,,,68,0
88713,note_on,30,0,12,,,,,,,,,11,,,,68,0
88718,note_on,30,0,13,,,,,,,,,12,,,,68,0
88722,note_on,30,0,14,,,,,,,,,13,,,,56,0
88724,note_on,30,0,15,,,,,,,,,14,,,,44,0
88728,control_change,18,0,11,,,,,,,,,10,11,84,,,
88729,control_change,48,0,1,,,,,,,,,0,11,71,,,
88731,control_change,18,0,12,,,,,,,,,11,11,84,,,
88732,control_change,48,0,2,,,,,,,,,1,11,71,,,
88733,control_change,48,0,3,,,,,,,,,2,11,71,,,
88736,control_change,18,0,13,,,,,,,,,12,11,84,,,
88737,control_change,48,0,4,,,,,,,,,3,11,78,,,
88740,note_on,12,0,11,,,,,,,,,10,,,,67,112
88740,control_change,18,0,14,,,,,,,,,13,11,84,,,
88741,note_on,12,0,1,,,,,,,,,0,,,,82,0
88741,note_on,0,0,1,,,,,,,,,0,,,,87,0
88742,control_change,18,0,15,,,,,,,,,14,11,84,,,
88743,note_on,12,0,12,,,,,,,,,11,,,,67,112
88744,note_on,12,0,2,,,,,,,,,1,,,,70,0
88744,note_on,0,0,2,,,,,,,,,1,,,,75,0
88745,note_on,0,0,3,,,,,,,,,2,,,,75,0
88745,note_on,12,0,3,,,,,,,,,2,,,,70,0
88748,note_on,12,0,13,,,,,,,,,12,,,,67,112
88749,note_on,12,0,4,,,,,,,,,3,,,,55,0
88749,note_on,0,0,4,,,,,,,,,3,,,,63,0
88752,note_on,12,0,14,,,,,,,,,13,,,,55,112
88754,note_on,12,0,15,,,,,,,,,14,,,,43,112
88770,note_on,30,0,11,,,,,,,,,10,,,,67,0
88773,note_on,30,0,12,,,,,,,,,11,,,,67,0
88776,control_change,6,0,11,,,,,,,,,10,11,85,,,
88777,control_change,36,0,1,,,,,,,,,0,11,72,,,
88778,note_on,30,0,13,,,,,,,,,12,,,,67,0
88779,control_change,6,0,12,,,,,,,,,11,11,85,,,
88780,control_change,36,0,2,,,,,,,,,1,11,72,,,
88781,control_change,36,0,3,,,,,,,,,2,11,72,,,
88782,note_on,30,0,14,,,,,,,,,13,,,,55,0
88784,note_on,30,0,15,,,,,,,,,14,,,,43,0
88784,control_change,6,0,13,,,,,,,,,12,11,85,,,
88785,control_change,36,0,4,,,,,,,,,3,11,79,,,
88788,control_change,6,0,14,,,,,,,,,13,11,85,,,
88790,control_change,6,0,15,,,,,,,,,14,11,85,,,
88800,set_tempo,240,1,0,,,,,,279070,,,,,,,,
88800,note_on,24,0,11,,,,,,,,,10,,,,70,112
88801,note_on,0,0,1,,,,,,,,,0,,,,87,101
88801,note_on,24,0,1,,,,,,,,,0,,,,90,101
88803,note_on,24,0,12,,,,,,,,,11,,,,70,112
88804,note_on,24,0,2,,,,,,,,,1,,,,72,100
88804,note_on,0,0,2,,,,,,,,,1,,,,78,100
88805,note_on,0,0,3,,,,,,,,,2,,,,75,101
88805,note_on,24,0,3,,,,,,,,,2,,,,66,101
88808,note_on,24,0,13,,,,,,,,,12,,,,70,112
88809,note_on,24,0,4,,,,,,,,,3,,,,56,100
88809,note_on,0,0,4,,,,,,,,,3,,,,66,100
88812,note_on,24,0,14,,,,,,,,,13,,,,58,112
88814,note_on,24,0,15,,,,,,,,,14,,,,46,112
88824,control_change,24,0,11,,,,,,,,,10,11,86,,,
88825,control_change,24,0,1,,,,,,,,,0,11,73,,,
88827,control_change,24,0,12,,,,,,,,,11,11,86,,,
88828,control_change,24,0,2,,,,,,,,,1,11,73,,,
88829,control_change,24,0,3,,,,,,,,,2,11,73,,,
88830,note_on,6,0,11,,,,,,,,,10,,,,70,0
88832,control_change,24,0,13,,,,,,,,,12,11,86,,,
88833,control_change,24,0,4,,,,,,,,,3,11,80,,,
88833,note_on,6,0,12,,,,,,,,,11,,,,70,0
88836,control_change,24,0,14,,,,,,,,,13,11,86,,,
88838,control_change,24,0,15,,,,,,,,,14,11,86,,,
88838,note_on,6,0,13,,,,,,,,,12,,,,70,0
88842,note_on,6,0,14,,,,,,,,,13,,,,58,0
88844,note_on,6,0,15,,,,,,,,,14,,,,46,0
88860,note_on,30,0,11,,,,,,,,,10,,,,68,112
88861,note_on,36,0,1,,,,,,,,,0,,,,87,0
88861,note_on,0,0,1,,,,,,,,,0,,,,90,0
88863,note_on,30,0,12,,,,,,,,,11,,,,68,112
88864,note_on,36,0,2,,,,,,,,,1,,,,78,0
88864,note_on,0,0,2,,,,,,,,,1,,,,72,0
88865,note_on,0,0,3,,,,,,,,,2,,,,66,0
88865,note_on,36,0,3,,,,,,,,,2,,,,75,0
88868,note_on,30,0,13,,,,,,,,,12,,,,68,112
88869,note_on,0,0,4,,,,,,,,,3,,,,56,0
88869,note_on,36,0,4,,,,,,,,,3,,,,66,0
88872,note_on,30,0,14,,,,,,,,,13,,,,56,112
88872,control_change,12,0,11,,,,,,,,,10,11,87,,,
88873,control_change,12,0,1,,,,,,,,,0,11,73,,,
88874,note_on,30,0,15,,,,,,,,,14,,,,44,112
88875,control_change,12,0,12,,,,,,,,,11,11,87,,,
88876,control_change,12,0,2,,,,,,,,,1,11,73,,,
88877,control_change,12,0,3,,,,,,,,,2,11,73,,,
88880,control_change,12,0,13,,,,,,,,,12,11,87,,,
88881,control_change,12,0,4,,,,,,,,,3,11,81,,,
88884,control_change,12,0,14,,,,,,,,,13,11,87,,,
88886,control_change,12,0,15,,,,,,,,,14,11,87,,,
88890,note_on,18,0,11,,,,,,,,,10,,,,68,0
88893,note_on,18,0,12,,,,,,,,,11,,,,68,0
88898,note_on,18,0,13,,,,,,,,,12,,,,68,0
88902,note_on,18,0,14,,,,,,,,,13,,,,56,0
88904,note_on,18,0,15,,,,,,,,,14,,,,44,0
88920,note_on,0,0,11,,,,,,,,,10,,,,67,112
88920,control_change,30,0,11,,,,,,,,,10,11,87,,,
88920,set_tempo,120,1,0,,,,,,265487,,,,,,,,
88921,note_on,48,0,1,,,,,,,,,0,,,,88,101
88921,control_change,0,0,1,,,,,,,,,0,11,74,,,
88921,note_on,0,0,1,,,,,,,,,0,,,,91,101
88922,control_change,0,0,7,,,,,,,,,6,11,87,,,
88922,note_on,14050,0,7,,,,,,,,,6,,,,67,112
88922,note_on,0,0,7,,,,,,,,,6,,,,55,112
88923,control_change,0,0,5,,,,,,,,,4,11,87,,,
88923,control_change,0,0,12,,,,,,,,,11,11,87,,,
88923,note_on,30,0,12,,,,,,,,,11,,,,67,112
88923,note_on,7920,0,5,,,,,,,,,4,,,,64,100
88924,control_change,0,0,6,,,,,,,,,5,11,87,,,
88924,control_change,0,0,2,,,,,,,,,1,11,74,,,
88924,note_on,0,0,2,,,,,,,,,1,,,,76,100
88924,note_on,7920,0,6,,,,,,,,,5,,,,60,100
88924,note_on,48,0,2,,,,,,,,,1,,,,79,100
88925,note_on,0,0,3,,,,,,,,,2,,,,67,101
88925,control_change,48,0,3,,,,,,,,,2,11,74,,,
88925,note_on,0,0,3,,,,,,,,,2,,,,72,101
88927,note_on,14050,0,8,,,,,,,,,7,,,,60,110
88927,control_change,0,0,8,,,,,,,,,7,11,87,,,
88927,note_on,0,0,8,,,,,,,,,7,,,,64,110
88928,note_on,30,0,13,,,,,,,,,12,,,,67,112
88928,control_change,0,0,13,,,,,,,,,12,11,87,,,
88929,control_change,0,0,4,,,,,,,,,3,11,82,,,
88929,note_on,0,0,4,,,,,,,,,3,,,,55,100
88929,note_on,48,0,4,,,,,,,,,3,,,,67,100
88932,note_on,0,0,14,,,,,,,,,13,,,,55,112
88932,control_change,30,0,14,,,,,,,,,13,11,87,,,
88933,control_change,14050,0,9,,,,,,,,,8,11,87,,,
88933,note_on,0,0,9,,,,,,,,,8,,,,55,110
88934,note_on,30,0,15,,,,,,,,,14,,,,43,112
88934,control_change,0,0,15,,,,,,,,,14,11,87,,,
88935,note_on,14040,0,10,,,,,,,,,15,,,,43,85
88980,note_on,60,0,11,,,,,,,,,10,,,,67,0
88983,note_on,60,0,12,,,,,,,,,11,,,,67,0
88988,note_on,60,0,13,,,,,,,,,12,,,,67,0
88992,note_on,60,0,14,,,,,,,,,13,,,,55,0
88994,note_on,60,0,15,,,,,,,,,14,,,,43,0
89041,note_on,120,0,1,,,,,,,,,0,,,,91,0
89041,note_on,0,0,1,,,,,,,,,0,,,,88,0
89042,note_on,120,0,7,,,,,,,,,6,,,,55,0
89042,note_on,0,0,7,,,,,,,,,6,,,,67,0
89043,note_on,120,0,5,,,,,,,,,4,,,,64,0
89044,note_on,120,0,6,,,,,,,,,5,,,,60,0
89044,note_on,120,0,2,,,,,,,,,1,,,,76,0
89044,note_on,0,0,2,,,,,,,,,1,,,,79,0
89045,note_on,120,0,3,,,,,,,,,2,,,,67,0
89045,note_on,0,0,3,,,,,,,,,2,,,,72,0
89047,note_on,120,0,8,,,,,,,,,7,,,,64,0
89047,note_on,0,0,8,,,,,,,,,7,,,,60,0
89049,note_on,120,0,4,,,,,,,,,3,,,,55,0
89049,note_on,0,0,4,,,,,,,,,3,,,,67,0
89053,note_on,120,0,9,,,,,,,,,8,,,,55,0
89055,note_on,120,0,10,,,,,,,,,15,,,,43,0
89160,set_tempo,240,1,0,,,,,,295567,,,,,,,,
89280,note_on,0,0,11,,,,,,,,,10,,,,67,112
89280,note_on,0,0,11,,,,,,,,,10,,,,83,112
89280,control_change,300,0,11,,,,,,,,,10,11,102,,,
89280,note_on,0,0,11,,,,,,,,,10,,,,74,112
89280,set_tempo,120,1,0,,,,,,265487,,,,,,,,
89281,note_on,0,0,1,,,,,,,,,0,,,,83,101
89281,note_on,0,0,1,,,,,,,,,0,,,,86,101
89281,control_change,240,0,1,,,,,,,,,0,11,86,,,
89282,control_change,0,0,7,,,,,,,,,6,11,102,,,
89282,note_on,240,0,7,,,,,,,,,6,,,,55,112
89282,note_on,0,0,7,,,,,,,,,6,,,,67,112
89283,control_change,240,0,5,,,,,,,,,4,11,102,,,
89283,note_on,0,0,12,,,,,,,,,11,,,,55,112
89283,note_on,300,0,12,,,,,,,,,11,,,,79,112
89283,control_change,0,0,12,,,,,,,,,11,11,102,,,
89283,note_on,0,0,12,,,,,,,,,11,,,,62,112
89283,note_on,0,0,5,,,,,,,,,4,,,,62,100
89283,note_on,0,0,12,,,,,,,,,11,,,,71,112
89284,control_change,240,0,6,,,,,,,,,5,11,102,,,
89284,control_change,240,0,2,,,,,,,,,1,11,86,,,
89284,note_on,0,0,2,,,,,,,,,1,,,,77,100
89284,note_on,0,0,2,,,,,,,,,1,,,,83,100
89284,note_on,0,0,6,,,,,,,,,5,,,,55,100
89285,control_change,0,0,3,,,,,,,,,2,11,86,,,
89285,note_on,0,0,3,,,,,,,,,2,,,,74,101
89285,note_on,240,0,3,,,,,,,,,2,,,,71,101
89287,note_on,0,0,8,,,,,,,,,7,,,,62,110
89287,control_change,0,0,8,,,,,,,,,7,11,102,,,
89287,note_on,240,0,8,,,,,,,,,7,,,,59,110
89288,note_on,0,0,13,,,,,,,,,12,,,,71,112
89288,control_change,0,0,13,,,,,,,,,12,11,102,,,
89288,note_on,300,0,13,,,,,,,,,12,,,,62,112
89288,note_on,0,0,13,,,,,,,,,12,,,,55,112
89289,control_change,240,0,4,,,,,,,,,3,11,97,,,
89289,note_on,0,0,4,,,,,,,,,3,,,,59,100
89289,note_on,0,0,4,,,,,,,,,3,,,,65,100
89292,control_change,0,0,14,,,,,,,,,13,11,102,,,
89292,note_on,300,0,14,,,,,,,,,13,,,,43,112
89293,control_change,240,0,9,,,,,,,,,8,11,102,,,
89293,note_on,0,0,9,,,,,,,,,8,,,,43,110
89294,control_change,300,0,15,,,,,,,,,14,11,102,,,
89294,note_on,0,0,15,,,,,,,,,14,,,,31,112
89295,note_on,240,0,10,,,,,,,,,15,,,,43,85
89400,note_on,0,0,11,,,,,,,,,10,,,,67,0
89400,note_on,120,0,11,,,,,,,,,10,,,,74,0
89400,note_on,0,0,11,,,,,,,,,10,,,,83,0
89401,note_on,120,0,1,,,,,,,,,0,,,,83,0
89401,note_on,0,0,1,,,,,,,,,0,,,,86,0
89402,note_on,120,0,7,,,,,,,,,6,,,,67,0
89402,note_on,0,0,7,,,,,,,,,6,,,,55,0
89403,note_on,120,0,5,,,,,,,,,4,,,,62,0
89403,note_on,120,0,12,,,,,,,,,11,,,,71,0
89403,note_on,0,0,12,,,,,,,,,11,,,,79,0
89403,note_on,0,0,12,,,,,,,,,11,,,,55,0
89403,note_on,0,0,12,,,,,,,,,11,,,,62,0
89404,note_on,120,0,6,,,,,,,,,5,,,,55,0
89404,note_on,0,0,2,,,,,,,,,1,,,,77,0
89404,note_on,120,0,2,,,,,,,,,1,,,,83,0
89405,note_on,0,0,3,,,,,,,,,2,,,,71,0
89405,note_on,120,0,3,,,,,,,,,2,,,,74,0
89407,note_on,0,0,8,,,,,,,,,7,,,,59,0
89407,note_on,120,0,8,,,,,,,,,7,,,,62,0
89408,note_on,120,0,13,,,,,,,,,12,,,,71,0
89408,note_on,0,0,13,,,,,,,,,12,,,,55,0
89408,note_on,0,0,13,,,,,,,,,12,,,,62,0
89409,note_on,120,0,4,,,,,,,,,3,,,,59,0
89409,note_on,0,0,4,,,,,,,,,3,,,,65,0
89412,note_on,120,0,14,,,,,,,,,13,,,,43,0
89413,note_on,120,0,9,,,,,,,,,8,,,,43,0
89414,note_on,120,0,15,,,,,,,,,14,,,,31,0
89415,note_on,120,0,10,,,,,,,,,15,,,,43,0
89520,set_tempo,240,1,0,,,,,,295567,,,,,,,,
89640,note_on,0,0,11,,,,,,,,,10,,,,84,112
89640,note_on,240,0,11,,,,,,,,,10,,,,76,112
89640,set_tempo,120,1,0,,,,,,263158,,,,,,,,
89640,note_on,0,0,11,,,,,,,,,10,,,,67,112
89641,note_on,0,0,1,,,,,,,,,0,,,,88,101
89641,note_on,240,0,1,,,,,,,,,0,,,,84,101
89642,note_on,240,0,7,,,,,,,,,6,,,,60,112
89642,note_on,0,0,7,,,,,,,,,6,,,,72,112
89643,note_on,240,0,12,,,,,,,,,11,,,,67,112
89643,note_on,0,0,12,,,,,,,,,11,,,,60,112
89643,note_on,0,0,12,,,,,,,,,11,,,,76,112
89643,note_on,240,0,5,,,,,,,,,4,,,,60,100
89644,note_on,240,0,2,,,,,,,,,1,,,,84,100
89644,note_on,240,0,6,,,,,,,,,5,,,,52,100
89644,note_on,0,0,2,,,,,,,,,1,,,,76,100
89645,note_on,240,0,3,,,,,,,,,2,,,,76,101
89645,note_on,0,0,3,,,,,,,,,2,,,,72,101
89647,note_on,0,0,8,,,,,,,,,7,,,,64,110
89647,note_on,240,0,8,,,,,,,,,7,,,,60,110
89648,note_on,240,0,13,,,,,,,,,12,,,,72,112
89648,note_on,0,0,13,,,,,,,,,12,,,,55,112
89648,note_on,0,0,13,,,,,,,,,12,,,,64,112
89648,note_on,0,0,13,,,,,,,,,12,,,,48,112
89649,note_on,0,0,4,,,,,,,,,3,,,,60,100
89649,note_on,240,0,4,,,,,,,,,3,,,,64,100
89652,note_on,240,0,14,,,,,,,,,13,,,,48,112
89653,note_on,240,0,9,,,,,,,,,8,,,,48,110
89654,note_on,240,0,15,,,,,,,,,14,,,,36,112
89655,note_on,240,0,10,,,,,,,,,15,,,,48,85
89674,note_on,30,0,2,,,,,,,,,1,,,,84,0
89675,note_on,30,0,3,,,,,,,,,2,,,,76,0
89704,control_change,30,0,2,,,,,,,,,1,11,47,,,
89704,note_on,0,0,2,,,,,,,,,1,,,,79,100
89705,note_on,0,0,3,,,,,,,,,2,,,,67,101
89705,control_change,30,0,3,,,,,,,,,2,11,47,,,
89734,note_on,30,0,2,,,,,,,,,1,,,,79,0
89735,note_on,30,0,3,,,,,,,,,2,,,,67,0
89760,note_on,120,0,11,,,,,,,,,10,,,,84,0
89760,note_on,0,0,11,,,,,,,,,10,,,,67,0
89760,note_on,0,0,11,,,,,,,,,10,,,,76,0
89761,note_on,120,0,1,,,,,,,,,0,,,,88,0
89761,note_on,0,0,1,,,,,,,,,0,,,,84,0
89762,note_on,0,0,7,,,,,,,,,6,,,,60,0
89762,note_on,120,0,7,,,,,,,,,6,,,,72,0
89763,note_on,120,0,5,,,,,,,,,4,,,,60,0
89763,note_on,120,0,12,,,,,,,,,11,,,,60,0
89763,note_on,0,0,12,,,,,,,,,11,,,,76,0
89763,note_on,0,0,12,,,,,,,,,11,,,,67,0
89764,note_on,0,0,2,,,,,,,,,1,,,,81,100
89764,note_on,120,0,6,,,,,,,,,5,,,,52,0
89764,note_on,30,0,2,,,,,,,,,1,,,,76,0
89765,note_on,30,0,3,,,,,,,,,2,,,,72,0
89765,note_on,0,0,3,,,,,,,,,2,,,,69,101
89767,note_on,0,0,8,,,,,,,,,7,,,,60,0
89767,note_on,120,0,8,,,,,,,,,7,,,,64,0
89768,note_on,120,0,13,,,,,,,,,12,,,,55,0
89768,note_on,0,0,13,,,,,,,,,12,,,,72,0
89768,note_on,0,0,13,,,,,,,,,12,,,,48,0
89768,note_on,0,0,13,,,,,,,,,12,,,,64,0
89769,note_on,0,0,4,,,,,,,,,3,,,,64,0
89769,note_on,120,0,4,,,,,,,,,3,,,,60,0
89772,note_on,120,0,14,,,,,,,,,13,,,,48,0
89773,note_on,120,0,9,,,,,,,,,8,,,,48,0
89774,note_on,120,0,15,,,,,,,,,14,,,,36,0
89775,note_on,120,0,10,,,,,,,,,15,,,,48,0
89824,note_on,0,0,2,,,,,,,,,1,,,,79,100
89824,note_on,60,0,2,,,,,,,,,1,,,,81,0
89825,note_on,0,0,3,,,,,,,,,2,,,,67,101
89825,note_on,60,0,3,,,,,,,,,2,,,,69,0
89880,set_tempo,240,1,0,,,,,,279070,,,,,,,,
89884,note_on,60,0,2,,,,,,,,,1,,,,79,0
89884,note_on,0,0,2,,,,,,,,,1,,,,81,100
89885,note_on,60,0,3,,,,,,,,,2,,,,67,0
89885,note_on,0,0,3,,,,,,,,,2,,,,69,101
89892,control_change,120,0,14,,,,,,,,,13,11,50,,,
89892,note_on,0,0,14,,,,,,,,,13,,,,52,112
89894,note_on,0,0,15,,,,,,,,,14,,,,40,112
89894,control_change,120,0,15,,,,,,,,,14,11,50,,,
89944,note_on,60,0,2,,,,,,,,,1,,,,81,0
89944,note_on,0,0,2,,,,,,,,,1,,,,79,100
89945,note_on,60,0,3,,,,,,,,,2,,,,69,0
89945,note_on,0,0,3,,,,,,,,,2,,,,67,101
89952,note_on,60,0,14,,,,,,,,,13,,,,52,0
89954,note_on,60,0,15,,,,,,,,,14,,,,40,0
90000,set_tempo,120,1,0,,,,,,264901,,,,,,,,
90004,note_on,60,0,2,,,,,,,,,1,,,,79,0
90004,note_on,0,0,2,,,,,,,,,1,,,,76,100
90004,note_on,0,0,2,,,,,,,,,1,,,,79,100
90005,note_on,60,0,3,,,,,,,,,2,,,,67,0
90005,note_on,0,0,3,,,,,,,,,2,,,,67,101
90009,control_change,240,0,4,,,,,,,,,3,11,47,,,
90009,note_on,0,0,4,,,,,,,,,3,,,,64,100
90012,note_on,60,0,14,,,,,,,,,13,,,,55,112
90014,note_on,60,0,15,,,,,,,,,14,,,,43,112
90064,note_on,60,0,2,,,,,,,,,1,,,,76,0
90064,note_on,0,0,2,,,,,,,,,1,,,,79,0
90065,note_on,60,0,3,,,,,,,,,2,,,,67,0
90069,note_on,60,0,4,,,,,,,,,3,,,,64,0
90072,note_on,60,0,14,,,,,,,,,13,,,,55,0
90074,note_on,60,0,15,,,,,,,,,14,,,,43,0
90120,set_tempo,120,1,0,,,,,,272727,,,,,,,,
90124,note_on,0,0,2,,,,,,,,,1,,,,79,100
90124,note_on,60,0,2,,,,,,,,,1,,,,76,100
90125,note_on,60,0,3,,,,,,,,,2,,,,67,101
90129,note_on,60,0,4,,,,,,,,,3,,,,64,100
90132,note_on,60,0,14,,,,,,,,,13,,,,52,112
90134,note_on,60,0,15,,,,,,,,,14,,,,40,112
90184,note_on,0,0,2,,,,,,,,,1,,,,76,0
90184,note_on,60,0,2,,,,,,,,,1,,,,79,0
90185,note_on,60,0,3,,,,,,,,,2,,,,67,0
90189,note_on,60,0,4,,,,,,,,,3,,,,64,0
90192,note_on,60,0,14,,,,,,,,,13,,,,52,0
90194,note_on,60,0,15,,,,,,,,,14,,,,40,0
90240,set_tempo,120,1,0,,,,,,300000,,,,,,,,
90240,control_change,0,0,11,,,,,,,,,10,11,50,,,
90240,note_on,480,0,11,,,,,,,,,10,,,,72,112
90244,note_on,0,0,2,,,,,,,,,1,,,,79,100
90244,note_on,60,0,2,,,,,,,,,1,,,,76,100
90245,note_on,60,0,3,,,,,,,,,2,,,,67,101
90249,note_on,60,0,4,,,,,,,,,3,,,,64,100
90252,note_on,60,0,14,,,,,,,,,13,,,,48,112
90254,note_on,60,0,15,,,,,,,,,14,,,,36,112
90280,note_on,0,0,11,,,,,,,,,10,,,,74,112
90280,note_on,40,0,11,,,,,,,,,10,,,,72,0
90304,note_on,0,0,2,,,,,,,,,1,,,,76,0
90304,note_on,60,0,2,,,,,,,,,1,,,,79,0
90305,note_on,60,0,3,,,,,,,,,2,,,,67,0
90309,note_on,60,0,4,,,,,,,,,3,,,,64,0
90312,note_on,60,0,14,,,,,,,,,13,,,,48,0
90314,note_on,60,0,15,,,,,,,,,14,,,,36,0
90320,note_on,40,0,11,,,,,,,,,10,,,,74,0
90320,note_on,0,0,11,,,,,,,,,10,,,,72,112
90360,set_tempo,120,1,0,,,,,,263158,,,,,,,,
90360,control_change,0,0,11,,,,,,,,,10,11,55,,,
90360,note_on,0,0,11,,,,,,,,,10,,,,71,112
90360,note_on,40,0,11,,,,,,,,,10,,,,72,0
90363,note_on,600,0,5,,,,,,,,,4,,,,67,100
90363,control_change,0,0,5,,,,,,,,,4,11,52,,,
90364,control_change,0,0,6,,,,,,,,,5,11,52,,,
90364,control_change,60,0,2,,,,,,,,,1,11,52,,,
90364,note_on,0,0,2,,,,,,,,,1,,,,77,100
90364,note_on,0,0,2,,,,,,,,,1,,,,79,100
90364,note_on,600,0,6,,,,,,,,,5,,,,55,100
90365,note_on,60,0,3,,,,,,,,,2,,,,67,101
90365,control_change,0,0,3,,,,,,,,,2,11,52,,,
90367,control_change,4,0,5,,,,,,,,,4,11,55,,,
90368,control_change,4,0,6,,,,,,,,,5,11,55,,,
90369,note_on,60,0,4,,,,,,,,,3,,,,65,100
90369,control_change,0,0,4,,,,,,,,,3,11,52,,,
90369,control_change,9,0,11,,,,,,,,,10,11,60,,,
90372,note_on,60,0,14,,,,,,,,,13,,,,55,112
90372,control_change,0,0,14,,,,,,,,,13,11,55,,,
90372,control_change,5,0,5,,,,,,,,,4,11,58,,,
90373,control_change,4,0,4,,,,,,,,,3,11,55,,,
90373,control_change,4,0,11,,,,,,,,,10,11,63,,,
90373,control_change,5,0,6,,,,,,,,,5,11,58,,,
90373,control_change,9,0,2,,,,,,,,,1,11,56,,,
90374,control_change,9,0,3,,,,,,,,,2,11,56,,,
90374,control_change,60,0,15,,,,,,,,,14,11,55,,,
90374,note_on,0,0,15,,,,,,,,,14,,,,43,112
90376,control_change,4,0,5,,,,,,,,,4,11,61,,,
90377,control_change,4,0,6,,,,,,,,,5,11,61,,,
90378,control_change,5,0,4,,,,,,,,,3,11,58,,,
90378,control_change,5,0,11,,,,,,,,,10,11,66,,,
90381,control_change,9,0,14,,,,,,,,,13,11,60,,,
90381,control_change,5,0,5,,,,,,,,,4,11,64,,,
90382,control_change,4,0,4,,,,,,,,,3,11,61,,,
90382,control_change,5,0,6,,,,,,,,,5,11,64,,,
90382,control_change,4,0,11,,,,,,,,,10,11,69,,,
90382,control_change,9,0,2,,,,,,,,,1,11,61,,,
90383,control_change,9,0,3,,,,,,,,,2,11,61,,,
90383,control_change,9,0,15,,,,,,,,,14,11,60,,,
90385,control_change,4,0,14,,,,,,,,,13,11,63,,,
90385,control_change,4,0,5,,,,,,,,,4,11,67,,,
90386,control_change,4,0,6,,,,,,,,,5,11,67,,,
90387,control_change,5,0,11,,,,,,,,,10,11,72,,,
90387,control_change,5,0,4,,,,,,,,,3,11,64,,,
90387,control_change,4,0,15,,,,,,,,,14,11,63,,,
90390,control_change,5,0,5,,,,,,,,,4,11,70,,,
90390,control_change,5,0,14,,,,,,,,,13,11,66,,,
90391,control_change,9,0,2,,,,,,,,,1,11,65,,,
90391,control_change,4,0,4,,,,,,,,,3,11,67,,,
90391,control_change,5,0,6,,,,,,,,,5,11,70,,,
90392,control_change,9,0,3,,,,,,,,,2,11,65,,,
90392,control_change,5,0,15,,,,,,,,,14,11,66,,,
90394,control_change,4,0,14,,,,,,,,,13,11,69,,,
90396,control_change,5,0,4,,,,,,,,,3,11,70,,,
90396,control_change,4,0,15,,,,,,,,,14,11,69,,,
90399,control_change,5,0,14,,,,,,,,,13,11,72,,,
90401,control_change,5,0,15,,,,,,,,,14,11,72,,,
90406,control_change,19,0,11,,,,,,,,,10,11,72,,,
90409,control_change,19,0,5,,,,,,,,,4,11,70,,,
90410,control_change,19,0,2,,,,,,,,,1,11,65,,,
90410,control_change,19,0,6,,,,,,,,,5,11,70,,,
90411,control_change,19,0,3,,,,,,,,,2,11,65,,,
90415,control_change,19,0,4,,,,,,,,,3,11,70,,,
90418,control_change,19,0,14,,,,,,,,,13,11,72,,,
90420,control_change,19,0,15,,,,,,,,,14,11,72,,,
90423,control_change,17,0,11,,,,,,,,,10,11,70,,,
90426,control_change,17,0,5,,,,,,,,,4,11,68,,,
90427,control_change,17,0,2,,,,,,,,,1,11,64,,,
90427,control_change,17,0,6,,,,,,,,,5,11,68,,,
90428,control_change,17,0,3,,,,,,,,,2,11,64,,,
90432,control_change,17,0,4,,,,,,,,,3,11,68,,,
90435,control_change,17,0,14,,,,,,,,,13,11,70,,,
90437,control_change,17,0,15,,,,,,,,,14,11,70,,,
90440,control_change,17,0,11,,,,,,,,,10,11,68,,,
90443,control_change,17,0,5,,,,,,,,,4,11,66,,,
90444,control_change,17,0,6,,,,,,,,,5,11,66,,,
90444,control_change,17,0,2,,,,,,,,,1,11,62,,,
90445,control_change,17,0,3,,,,,,,,,2,11,62,,,
90449,control_change,17,0,4,,,,,,,,,3,11,66,,,
90452,control_change,17,0,14,,,,,,,,,13,11,68,,,
90454,control_change,17,0,15,,,,,,,,,14,11,68,,,
90457,control_change,17,0,11,,,,,,,,,10,11,66,,,
90460,control_change,17,0,5,,,,,,,,,4,11,64,,,
90461,control_change,17,0,6,,,,,,,,,5,11,64,,,
90461,control_change,17,0,2,,,,,,,,,1,11,61,,,
90462,control_change,17,0,3,,,,,,,,,2,11,61,,,
90466,control_change,17,0,4,,,,,,,,,3,11,64,,,
90469,control_change,17,0,14,,,,,,,,,13,11,66,,,
90471,control_change,17,0,15,,,,,,,,,14,11,66,,,
90474,control_change,17,0,11,,,,,,,,,10,11,64,,,
90477,control_change,17,0,5,,,,,,,,,4,11,62,,,
90478,control_change,17,0,2,,,,,,,,,1,11,59,,,
90478,control_change,17,0,6,,,,,,,,,5,11,62,,,
90479,control_change,17,0,3,,,,,,,,,2,11,59,,,
90480,set_tempo,120,1,0,,,,,,272727,,,,,,,,
90483,control_change,17,0,4,,,,,,,,,3,11,62,,,
90486,control_change,17,0,14,,,,,,,,,13,11,64,,,
90488,control_change,17,0,15,,,,,,,,,14,11,64,,,
90490,control_change,16,0,11,,,,,,,,,10,11,62,,,
90492,note_on,6,0,14,,,,,,,,,13,,,,55,0
90493,control_change,16,0,5,,,,,,,,,4,11,60,,,
90494,control_change,16,0,2,,,,,,,,,1,11,58,,,
90494,control_change,16,0,6,,,,,,,,,5,11,60,,,
90494,note_on,6,0,15,,,,,,,,,14,,,,43,0
90495,control_change,16,0,3,,,,,,,,,2,11,58,,,
90499,control_change,16,0,4,,,,,,,,,3,11,60,,,
90502,control_change,10,0,14,,,,,,,,,13,11,62,,,
90504,control_change,10,0,15,,,,,,,,,14,11,62,,,
90507,control_change,17,0,11,,,,,,,,,10,11,60,,,
90510,control_change,17,0,5,,,,,,,,,4,11,58,,,
90511,control_change,17,0,2,,,,,,,,,1,11,56,,,
90511,control_change,17,0,6,,,,,,,,,5,11,58,,,
90512,control_change,17,0,3,,,,,,,,,2,11,56,,,
90516,control_change,17,0,4,,,,,,,,,3,11,58,,,
90519,control_change,17,0,14,,,,,,,,,13,11,60,,,
90521,control_change,17,0,15,,,,,,,,,14,11,60,,,
90524,control_change,17,0,11,,,,,,,,,10,11,58,,,
90527,control_change,17,0,5,,,,,,,,,4,11,56,,,
90528,control_change,17,0,2,,,,,,,,,1,11,55,,,
90528,control_change,17,0,6,,,,,,,,,5,11,56,,,
90529,control_change,17,0,3,,,,,,,,,2,11,55,,,
90533,control_change,17,0,4,,,,,,,,,3,11,56,,,
90536,control_change,17,0,14,,,,,,,,,13,11,58,,,
90538,control_change,17,0,15,,,,,,,,,14,11,58,,,
90541,control_change,17,0,11,,,,,,,,,10,11,57,,,
90544,control_change,17,0,5,,,,,,,,,4,11,54,,,
90545,control_change,17,0,6,,,,,,,,,5,11,54,,,
90545,control_change,17,0,2,,,,,,,,,1,11,53,,,
90546,control_change,17,0,3,,,,,,,,,2,11,53,,,
90550,control_change,17,0,4,,,,,,,,,3,11,54,,,
90553,control_change,17,0,14,,,,,,,,,13,11,57,,,
90555,control_change,17,0,15,,,,,,,,,14,11,57,,,
90558,control_change,17,0,11,,,,,,,,,10,11,55,,,
90561,control_change,17,0,5,,,,,,,,,4,11,52,,,
90562,control_change,17,0,6,,,,,,,,,5,11,52,,,
90562,control_change,17,0,2,,,,,,,,,1,11,52,,,
90563,control_change,17,0,3,,,,,,,,,2,11,52,,,
90567,control_change,17,0,4,,,,,,,,,3,11,52,,,
90570,control_change,17,0,14,,,,,,,,,13,11,55,,,
90572,control_change,17,0,15,,,,,,,,,14,11,55,,,
90574,control_change,16,0,11,,,,,,,,,10,11,53,,,
90577,control_change,16,0,5,,,,,,,,,4,11,50,,,
90578,control_change,16,0,2,,,,,,,,,1,11,50,,,
90578,control_change,16,0,6,,,,,,,,,5,11,50,,,
90579,control_change,16,0,3,,,,,,,,,2,11,50,,,
90583,control_change,16,0,4,,,,,,,,,3,11,50,,,
90586,control_change,16,0,14,,,,,,,,,13,11,53,,,
90588,control_change,16,0,15,,,,,,,,,14,11,53,,,
90591,control_change,17,0,11,,,,,,,,,10,11,51,,,
90594,control_change,17,0,5,,,,,,,,,4,11,48,,,
90595,control_change,17,0,6,,,,,,,,,5,11,48,,,
90595,control_change,17,0,2,,,,,,,,,1,11,48,,,
90596,control_change,17,0,3,,,,,,,,,2,11,48,,,
90600,note_on,9,0,11,,,,,,,,,10,,,,71,0
90600,note_on,0,0,11,,,,,,,,,10,,,,74,112
90600,control_change,17,0,4,,,,,,,,,3,11,48,,,
90600,set_tempo,120,1,0,,,,,,300000,,,,,,,,
90603,control_change,17,0,14,,,,,,,,,13,11,51,,,
90605,control_change,17,0,15,,,,,,,,,14,11,51,,,
90715,note_on,115,0,11,,,,,,,,,10,,,,74,0
90720,note_on,5,0,11,,,,,,,,,10,,,,79,112
90720,set_tempo,120,1,0,,,,,,264901,,,,,,,,
90840,set_tempo,120,1,0,,,,,,272727,,,,,,,,
90960,set_tempo,120,1,0,,,,,,300000,,,,,,,,
90960,note_on,240,0,11,,,,,,,,,10,,,,79,0
90960,note_on,0,0,11,,,,,,,,,10,,,,83,112
91075,note_on,115,0,11,,,,,,,,,10,,,,83,0
91080,set_tempo,120,1,0,,,,,,263158,,,,,,,,
91080,note_on,5,0,11,,,,,,,,,10,,,,86,127
91083,note_on,489,0,5,,,,,,,,,4,,,,67,0
91083,note_on,0,0,5,,,,,,,,,4,,,,67,115
91084,note_on,489,0,2,,,,,,,,,1,,,,79,0
91084,note_on,0,0,2,,,,,,,,,1,,,,79,115
91084,control_change,0,0,2,,,,,,,,,1,11,55,,,
91084,note_on,0,0,6,,,,,,,,,5,,,,55,115
91084,note_on,0,0,2,,,,,,,,,1,,,,77,100
91084,note_on,0,0,2,,,,,,,,,1,,,,77,0
91084,note_on,489,0,6,,,,,,,,,5,,,,55,0
91085,note_on,0,0,3,,,,,,,,,2,,,,67,101
91085,note_on,489,0,3,,,,,,,,,2,,,,67,0
91089,note_on,489,0,4,,,,,,,,,3,,,,65,0
91089,note_on,0,0,4,,,,,,,,,3,,,,62,100
91092,note_on,489,0,14,,,,,,,,,13,,,,47,127
91094,note_on,489,0,15,,,,,,,,,14,,,,35,112
91114,note_on,30,0,2,,,,,,,,,1,,,,79,0
91144,note_on,30,0,2,,,,,,,,,1,,,,79,100
91154,note_on,60,0,15,,,,,,,,,14,,,,35,0
91174,note_on,30,0,2,,,,,,,,,1,,,,79,0
91200,set_tempo,120,1,0,,,,,,272727,,,,,,,,
91203,note_on,0,0,12,,,,,,,,,11,,,,65,127
91203,control_change,1440,0,12,,,,,,,,,11,11,50,,,
91204,note_on,30,0,2,,,,,,,,,1,,,,81,100
91207,program_change,1439,0,13,,,,,,,,48,12,,,,,
91208,note_on,0,0,13,,,,,,,,,12,,,,59,127
91208,control_change,1,0,13,,,,,,,,,12,11,50,,,
91264,note_on,60,0,2,,,,,,,,,1,,,,81,0
91264,note_on,0,0,2,,,,,,,,,1,,,,79,100
91320,note_on,240,0,11,,,,,,,,,10,,,,86,0
91320,set_tempo,120,1,0,,,,,,300000,,,,,,,,
91320,note_on,0,0,11,,,,,,,,,10,,,,83,112
91323,note_on,120,0,12,,,,,,,,,11,,,,65,0
91323,note_on,0,0,12,,,,,,,,,11,,,,55,112
91324,note_on,60,0,2,,,,,,,,,1,,,,79,0
91324,note_on,0,0,2,,,,,,,,,1,,,,81,100
91328,note_on,120,0,13,,,,,,,,,12,,,,59,0
91328,note_on,0,0,13,,,,,,,,,12,,,,55,112
91332,note_on,0,0,14,,,,,,,,,13,,,,50,112
91332,note_on,240,0,14,,,,,,,,,13,,,,47,0
91382,note_on,299,0,5,,,,,,,,,4,,,,67,0
91383,note_on,60,0,12,,,,,,,,,11,,,,55,0
91383,note_on,299,0,6,,,,,,,,,5,,,,55,0
91384,note_on,0,0,2,,,,,,,,,1,,,,79,100
91384,note_on,60,0,2,,,,,,,,,1,,,,81,0
91388,note_on,60,0,13,,,,,,,,,12,,,,55,0
91435,note_on,115,0,11,,,,,,,,,10,,,,83,0
91440,note_on,5,0,11,,,,,,,,,10,,,,86,112
91440,set_tempo,120,1,0,,,,,,264901,,,,,,,,
91443,note_on,61,0,5,,,,,,,,,4,,,,67,115
91444,note_on,60,0,2,,,,,,,,,1,,,,79,0
91444,note_on,0,0,2,,,,,,,,,1,,,,76,100
91444,note_on,0,0,2,,,,,,,,,1,,,,77,0
91444,note_on,0,0,2,,,,,,,,,1,,,,79,100
91444,control_change,0,0,2,,,,,,,,,1,11,47,,,
91444,note_on,61,0,6,,,,,,,,,5,,,,55,115
91445,note_on,360,0,3,,,,,,,,,2,,,,67,0
91445,note_on,0,0,3,,,,,,,,,2,,,,67,101
91449,note_on,0,0,4,,,,,,,,,3,,,,64,100
91449,note_on,360,0,4,,,,,,,,,3,,,,62,0
91452,note_on,0,0,14,,,,,,,,,13,,,,52,112
91452,note_on,120,0,14,,,,,,,,,13,,,,50,0
91454,note_on,300,0,15,,,,,,,,,14,,,,36,112
91500,note_on,60,0,11,,,,,,,,,10,,,,86,0
91500,note_on,0,0,11,,,,,,,,,10,,,,84,112
91504,note_on,60,0,2,,,,,,,,,1,,,,79,0
91504,note_on,0,0,2,,,,,,,,,1,,,,76,0
91514,note_on,60,0,15,,,,,,,,,14,,,,36,0
91560,set_tempo,120,1,0,,,,,,272727,,,,,,,,
91560,note_on,60,0,11,,,,,,,,,10,,,,84,0
91560,note_on,0,0,11,,,,,,,,,10,,,,83,112
91563,note_on,180,0,12,,,,,,,,,11,,,,64,127
91564,note_on,60,0,2,,,,,,,,,1,,,,76,100
91564,note_on,0,0,2,,,,,,,,,1,,,,79,100
91568,note_on,180,0,13,,,,,,,,,12,,,,60,127
91572,note_on,120,0,14,,,,,,,,,13,,,,52,0
91572,note_on,0,0,14,,,,,,,,,13,,,,55,112
91620,note_on,0,0,11,,,,,,,,,10,,,,81,112
91620,note_on,60,0,11,,,,,,,,,10,,,,83,0
91624,note_on,60,0,2,,,,,,,,,1,,,,79,0
91624,note_on,0,0,2,,,,,,,,,1,,,,76,0
91680,note_on,60,0,11,,,,,,,,,10,,,,81,0
91680,set_tempo,120,1,0,,,,,,300000,,,,,,,,
91680,note_on,0,0,11,,,,,,,,,10,,,,79,112
91683,note_on,120,0,12,,,,,,,,,11,,,,64,0
91683,note_on,0,0,12,,,,,,,,,11,,,,55,112
91684,note_on,60,0,2,,,,,,,,,1,,,,76,100
91684,note_on,0,0,2,,,,,,,,,1,,,,79,100
91688,note_on,120,0,13,,,,,,,,,12,,,,60,0
91688,note_on,0,0,13,,,,,,,,,12,,,,55,112
91692,note_on,0,0,14,,,,,,,,,13,,,,64,112
91692,note_on,120,0,14,,,,,,,,,13,,,,55,0
91740,note_on,60,0,11,,,,,,,,,10,,,,79,0
91742,note_on,299,0,5,,,,,,,,,4,,,,67,0
91743,note_on,60,0,12,,,,,,,,,11,,,,55,0
91743,note_on,299,0,6,,,,,,,,,5,,,,55,0
91744,note_on,0,0,2,,,,,,,,,1,,,,76,0
91744,note_on,60,0,2,,,,,,,,,1,,,,79,0
91748,note_on,60,0,13,,,,,,,,,12,,,,55,0
91800,set_tempo,120,1,0,,,,,,263158,,,,,,,,
91800,note_on,60,0,11,,,,,,,,,10,,,,79,112
91803,note_on,61,0,5,,,,,,,,,4,,,,67,115
91804,note_on,60,0,2,,,,,,,,,1,,,,74,115
91804,note_on,61,0,6,,,,,,,,,5,,,,55,115
91804,note_on,0,0,2,,,,,,,,,1,,,,79,115
91805,note_on,0,0,3,,,,,,,,,2,,,,67,101
91805,control_change,0,0,3,,,,,,,,,2,11,55,,,
91805,note_on,360,0,3,,,,,,,,,2,,,,67,0
91807,note_on,115,0,14,,,,,,,,,13,,,,64,0
91809,note_on,360,0,4,,,,,,,,,3,,,,64,0
91809,note_on,0,0,4,,,,,,,,,3,,,,65,100
91812,note_on,5,0,14,,,,,,,,,13,,,,62,127
91814,note_on,300,0,15,,,,,,,,,14,,,,31,112
91830,note_on,30,0,11,,,,,,,,,10,,,,79,0
91830,note_on,0,0,11,,,,,,,,,10,,,,77,127
91835,note_on,30,0,3,,,,,,,,,2,,,,67,0
91865,note_on,30,0,3,,,,,,,,,2,,,,67,101
91870,note_on,40,0,11,,,,,,,,,10,,,,77,0
91874,note_on,60,0,15,,,,,,,,,14,,,,31,0
91895,note_on,30,0,3,,,,,,,,,2,,,,67,0
91920,set_tempo,120,1,0,,,,,,272727,,,,,,,,
91920,note_on,50,0,11,,,,,,,,,10,,,,77,112
91923,note_on,180,0,12,,,,,,,,,11,,,,71,127
91925,note_on,30,0,3,,,,,,,,,2,,,,69,101
91928,note_on,180,0,13,,,,,,,,,12,,,,65,127
91980,note_on,60,0,11,,,,,,,,,10,,,,77,0
91985,note_on,0,0,3,,,,,,,,,2,,,,67,101
91985,note_on,60,0,3,,,,,,,,,2,,,,69,0
92040,set_tempo,120,1,0,,,,,,300000,,,,,,,,
92040,note_on,60,0,11,,,,,,,,,10,,,,77,112
92043,note_on,0,0,12,,,,,,,,,11,,,,67,112
92043,note_on,120,0,12,,,,,,,,,11,,,,71,0
92045,note_on,60,0,3,,,,,,,,,2,,,,67,0
92045,note_on,0,0,3,,,,,,,,,2,,,,69,101
92048,note_on,120,0,13,,,,,,,,,12,,,,65,0
92048,note_on,0,0,13,,,,,,,,,12,,,,67,112
92052,note_on,0,0,14,,,,,,,,,13,,,,59,112
92052,note_on,240,0,14,,,,,,,,,13,,,,62,0
92100,note_on,0,0,11,,,,,,,,,10,,,,79,112
92100,note_on,60,0,11,,,,,,,,,10,,,,77,0
92102,note_on,299,0,5,,,,,,,,,4,,,,67,0
92103,note_on,299,0,6,,,,,,,,,5,,,,55,0
92103,note_on,60,0,12,,,,,,,,,11,,,,67,0
92105,note_on,0,0,3,,,,,,,,,2,,,,67,101
92105,note_on,60,0,3,,,,,,,,,2,,,,69,0
92108,note_on,60,0,13,,,,,,,,,12,,,,67,0
92160,note_on,60,0,11,,,,,,,,,10,,,,79,0
92160,note_on,0,0,11,,,,,,,,,10,,,,76,112
92160,set_tempo,120,1,0,,,,,,263158,,,,,,,,
92163,note_on,61,0,5,,,,,,,,,4,,,,67,115
92164,note_on,61,0,6,,,,,,,,,5,,,,55,115
92164,note_on,0,0,2,,,,,,,,,1,,,,74,0
92164,note_on,0,0,2,,,,,,,,,1,,,,79,100
92164,note_on,0,0,2,,,,,,,,,1,,,,76,100
92164,note_on,360,0,2,,,,,,,,,1,,,,79,0
92165,note_on,0,0,3,,,,,,,,,2,,,,67,101
92165,note_on,60,0,3,,,,,,,,,2,,,,67,0
92165,control_change,0,0,3,,,,,,,,,2,11,47,,,
92167,note_on,115,0,14,,,,,,,,,13,,,,59,0
92169,note_on,360,0,4,,,,,,,,,3,,,,65,0
92169,note_on,0,0,4,,,,,,,,,3,,,,64,100
92172,note_on,5,0,14,,,,,,,,,13,,,,62,112
92174,note_on,300,0,15,,,,,,,,,14,,,,36,112
92225,note_on,60,0,3,,,,,,,,,2,,,,67,0
92229,note_on,60,0,4,,,,,,,,,3,,,,64,0
92232,note_on,60,0,14,,,,,,,,,13,,,,62,0
92232,note_on,0,0,14,,,,,,,,,13,,,,60,112
92234,note_on,60,0,15,,,,,,,,,14,,,,36,0
92280,set_tempo,120,1,0,,,,,,272727,,,,,,,,
92280,note_on,0,0,11,,,,,,,,,10,,,,79,112
92280,note_on,120,0,11,,,,,,,,,10,,,,76,0
92283,note_on,180,0,12,,,,,,,,,11,,,,72,127
92285,note_on,60,0,3,,,,,,,,,2,,,,67,101
92288,note_on,180,0,13,,,,,,,,,12,,,,64,127
92289,note_on,60,0,4,,,,,,,,,3,,,,64,100
92292,note_on,60,0,14,,,,,,,,,13,,,,60,0
92292,note_on,0,0,14,,,,,,,,,13,,,,59,112
92345,note_on,60,0,3,,,,,,,,,2,,,,67,0
92349,note_on,60,0,4,,,,,,,,,3,,,,64,0
92352,note_on,60,0,14,,,,,,,,,13,,,,59,0
92352,note_on,0,0,14,,,,,,,,,13,,,,57,112
92400,note_on,0,0,11,,,,,,,,,10,,,,88,112
92400,set_tempo,120,1,0,,,,,,300000,,,,,,,,
92400,note_on,120,0,11,,,,,,,,,10,,,,79,0
92403,note_on,120,0,12,,,,,,,,,11,,,,72,0
92403,note_on,0,0,12,,,,,,,,,11,,,,67,112
92405,note_on,60,0,3,,,,,,,,,2,,,,67,101
92408,note_on,0,0,13,,,,,,,,,12,,,,67,112
92408,note_on,120,0,13,,,,,,,,,12,,,,64,0
92409,note_on,60,0,4,,,,,,,,,3,,,,64,100
92412,note_on,0,0,14,,,,,,,,,13,,,,55,112
92412,note_on,60,0,14,,,,,,,,,13,,,,57,0
92462,note_on,299,0,5,,,,,,,,,4,,,,67,0
92463,note_on,60,0,12,,,,,,,,,11,,,,67,0
92463,note_on,299,0,6,,,,,,,,,5,,,,55,0
92465,note_on,60,0,3,,,,,,,,,2,,,,67,0
92468,note_on,60,0,13,,,,,,,,,12,,,,67,0
92469,note_on,60,0,4,,,,,,,,,3,,,,64,0
92472,note_on,60,0,14,,,,,,,,,13,,,,55,0
92515,note_on,115,0,11,,,,,,,,,10,,,,88,0
92520,set_tempo,120,1,0,,,,,,263158,,,,,,,,
92520,note_on,5,0,11,,,,,,,,,10,,,,86,127
92523,note_on,61,0,5,,,,,,,,,4,,,,67,115
92524,note_on,360,0,2,,,,,,,,,1,,,,79,0
92524,control_change,0,0,2,,,,,,,,,1,11,55,,,
92524,note_on,61,0,6,,,,,,,,,5,,,,55,115
92524,note_on,0,0,2,,,,,,,,,1,,,,77,100
92524,note_on,0,0,2,,,,,,,,,1,,,,79,115
92524,note_on,0,0,2,,,,,,,,,1,,,,76,0
92525,note_on,60,0,3,,,,,,,,,2,,,,67,101
92529,note_on,60,0,4,,,,,,,,,3,,,,62,100
92532,note_on,60,0,14,,,,,,,,,13,,,,55,112
92534,note_on,300,0,15,,,,,,,,,14,,,,31,112
92554,note_on,30,0,2,,,,,,,,,1,,,,79,0
92562,note_on,0,0,14,,,,,,,,,13,,,,53,127
92562,note_on,30,0,14,,,,,,,,,13,,,,55,0
92584,note_on,30,0,2,,,,,,,,,1,,,,79,100
92594,note_on,60,0,15,,,,,,,,,14,,,,31,0
92602,note_on,40,0,14,,,,,,,,,13,,,,53,0
92614,note_on,30,0,2,,,,,,,,,1,,,,79,0
92640,set_tempo,120,1,0,,,,,,272727,,,,,,,,
92643,note_on,180,0,12,,,,,,,,,11,,,,65,127
92644,note_on,30,0,2,,,,,,,,,1,,,,81,100
92648,note_on,180,0,13,,,,,,,,,12,,,,59,127
92652,note_on,50,0,14,,,,,,,,,13,,,,53,112
92704,note_on,60,0,2,,,,,,,,,1,,,,81,0
92704,note_on,0,0,2,,,,,,,,,1,,,,79,100
92712,note_on,60,0,14,,,,,,,,,13,,,,53,0
92760,note_on,0,0,11,,,,,,,,,10,,,,83,112
92760,note_on,240,0,11,,,,,,,,,10,,,,86,0
92760,set_tempo,120,1,0,,,,,,300000,,,,,,,,
92763,note_on,0,0,12,,,,,,,,,11,,,,55,112
92763,note_on,120,0,12,,,,,,,,,11,,,,65,0
92764,note_on,60,0,2,,,,,,,,,1,,,,79,0
92764,note_on,0,0,2,,,,,,,,,1,,,,81,100
92768,note_on,120,0,13,,,,,,,,,12,,,,59,0
92768,note_on,0,0,13,,,,,,,,,12,,,,55,112
92772,note_on,60,0,14,,,,,,,,,13,,,,53,112
92822,note_on,299,0,5,,,,,,,,,4,,,,67,0
92823,note_on,299,0,6,,,,,,,,,5,,,,55,0
92823,note_on,60,0,12,,,,,,,,,11,,,,55,0
92824,note_on,60,0,2,,,,,,,,,1,,,,81,0
92824,note_on,0,0,2,,,,,,,,,1,,,,79,100
92828,note_on,60,0,13,,,,,,,,,12,,,,55,0
92832,note_on,60,0,14,,,,,,,,,13,,,,53,0
92832,note_on,0,0,14,,,,,,,,,13,,,,55,112
92875,note_on,115,0,11,,,,,,,,,10,,,,83,0
92880,note_on,5,0,11,,,,,,,,,10,,,,86,112
92880,set_tempo,120,1,0,,,,,,263158,,,,,,,,
92883,note_on,61,0,5,,,,,,,,,4,,,,67,115
92884,control_change,0,0,2,,,,,,,,,1,11,47,,,
92884,note_on,0,0,2,,,,,,,,,1,,,,79,100
92884,note_on,0,0,2,,,,,,,,,1,,,,76,100
92884,note_on,0,0,2,,,,,,,,,1,,,,77,0
92884,note_on,61,0,6,,,,,,,,,5,,,,55,115
92884,note_on,60,0,2,,,,,,,,,1,,,,79,0
92885,note_on,360,0,3,,,,,,,,,2,,,,67,0
92885,note_on,0,0,3,,,,,,,,,2,,,,67,101
92889,note_on,360,0,4,,,,,,,,,3,,,,62,0
92889,note_on,0,0,4,,,,,,,,,3,,,,64,100
92892,note_on,0,0,14,,,,,,,,,13,,,,52,112
92892,note_on,60,0,14,,,,,,,,,13,,,,55,0
92894,note_on,300,0,15,,,,,,,,,14,,,,36,112
92940,note_on,60,0,11,,,,,,,,,10,,,,86,0
92940,note_on,0,0,11,,,,,,,,,10,,,,84,112
92944,note_on,0,0,2,,,,,,,,,1,,,,76,0
92944,note_on,60,0,2,,,,,,,,,1,,,,79,0
92954,note_on,60,0,15,,,,,,,,,14,,,,36,0
93000,set_tempo,120,1,0,,,,,,272727,,,,,,,,
93000,note_on,0,0,11,,,,,,,,,10,,,,83,112
93000,note_on,60,0,11,,,,,,,,,10,,,,84,0
93003,note_on,180,0,12,,,,,,,,,11,,,,64,127
93004,note_on,0,0,2,,,,,,,,,1,,,,79,100
93004,note_on,60,0,2,,,,,,,,,1,,,,76,100
93008,note_on,180,0,13,,,,,,,,,12,,,,60,127
93012,note_on,120,0,14,,,,,,,,,13,,,,52,0
93012,note_on,0,0,14,,,,,,,,,13,,,,55,112
93060,note_on,60,0,11,,,,,,,,,10,,,,83,0
93060,note_on,0,0,11,,,,,,,,,10,,,,81,112
93064,note_on,60,0,2,,,,,,,,,1,,,,79,0
93064,note_on,0,0,2,,,,,,,,,1,,,,76,0
93120,note_on,60,0,11,,,,,,,,,10,,,,81,0
93120,note_on,0,0,11,,,,,,,,,10,,,,79,112
93120,set_tempo,120,1,0,,,,,,300000,,,,,,,,
93123,note_on,0,0,12,,,,,,,,,11,,,,55,112
93123,note_on,120,0,12,,,,,,,,,11,,,,64,0
93124,note_on,0,0,2,,,,,,,,,1,,,,76,100
93124,note_on,60,0,2,,,,,,,,,1,,,,79,100
93128,note_on,120,0,13,,,,,,,,,12,,,,60,0
93128,note_on,0,0,13,,,,,,,,,12,,,,55,112
93132,note_on,0,0,14,,,,,,,,,13,,,,64,112
93132,note_on,120,0,14,,,,,,,,,13,,,,55,0
93180,note_on,60,0,11,,,,,,,,,10,,,,79,0
93182,note_on,299,0,5,,,,,,,,,4,,,,67,0
93183,note_on,299,0,6,,,,,,,,,5,,,,55,0
93183,note_on,60,0,12,,,,,,,,,11,,,,55,0
93184,note_on,60,0,2,,,,,,,,,1,,,,76,0
93184,note_on,0,0,2,,,,,,,,,1,,,,79,0
93188,note_on,60,0,13,,,,,,,,,12,,,,55,0
93240,note_on,60,0,11,,,,,,,,,10,,,,79,112
93240,set_tempo,120,1,0,,,,,,264901,,,,,,,,
93243,note_on,61,0,5,,,,,,,,,4,,,,67,115
93244,note_on,61,0,6,,,,,,,,,5,,,,55,115
93244,note_on,0,0,2,,,,,,,,,1,,,,79,100
93244,note_on,60,0,2,,,,,,,,,1,,,,74,100
93245,control_change,0,0,3,,,,,,,,,2,11,55,,,
93245,note_on,0,0,3,,,,,,,,,2,,,,67,116
93245,note_on,360,0,3,,,,,,,,,2,,,,67,0
93247,note_on,115,0,14,,,,,,,,,13,,,,64,0
93249,note_on,0,0,4,,,,,,,,,3,,,,65,100
93249,note_on,360,0,4,,,,,,,,,3,,,,64,0
93252,note_on,5,0,14,,,,,,,,,13,,,,62,127
93254,note_on,300,0,15,,,,,,,,,14,,,,31,112
93270,note_on,0,0,11,,,,,,,,,10,,,,77,127
93270,note_on,30,0,11,,,,,,,,,10,,,,79,0
93275,note_on,30,0,3,,,,,,,,,2,,,,67,0
93305,note_on,30,0,3,,,,,,,,,2,,,,67,101
93310,note_on,40,0,11,,,,,,,,,10,,,,77,0
93314,note_on,60,0,15,,,,,,,,,14,,,,31,0
93335,note_on,30,0,3,,,,,,,,,2,,,,67,0
93360,note_on,50,0,11,,,,,,,,,10,,,,77,112
93360,set_tempo,120,1,0,,,,,,272727,,,,,,,,
93363,note_on,180,0,12,,,,,,,,,11,,,,71,127
93365,note_on,30,0,3,,,,,,,,,2,,,,69,101
93368,note_on,180,0,13,,,,,,,,,12,,,,65,127
93420,note_on,60,0,11,,,,,,,,,10,,,,77,0
93425,note_on,0,0,3,,,,,,,,,2,,,,67,101
93425,note_on,60,0,3,,,,,,,,,2,,,,69,0
93480,set_tempo,120,1,0,,,,,,300000,,,,,,,,
93480,note_on,60,0,11,,,,,,,,,10,,,,77,112
93483,note_on,120,0,12,,,,,,,,,11,,,,71,0
93483,note_on,0,0,12,,,,,,,,,11,,,,67,112
93485,note_on,0,0,3,,,,,,,,,2,,,,69,101
93485,note_on,60,0,3,,,,,,,,,2,,,,67,0
93488,note_on,120,0,13,,,,,,,,,12,,,,65,0
93488,note_on,0,0,13,,,,,,,,,12,,,,67,112
93492,note_on,0,0,14,,,,,,,,,13,,,,59,112
93492,note_on,240,0,14,,,,,,,,,13,,,,62,0
93540,note_on,60,0,11,,,,,,,,,10,,,,77,0
93540,note_on,0,0,11,,,,,,,,,10,,,,79,112
93542,note_on,299,0,5,,,,,,,,,4,,,,67,0
93543,note_on,299,0,6,,,,,,,,,5,,,,55,0
93543,note_on,60,0,12,,,,,,,,,11,,,,67,0
93545,note_on,0,0,3,,,,,,,,,2,,,,67,101
93545,note_on,60,0,3,,,,,,,,,2,,,,69,0
93548,note_on,60,0,13,,,,,,,,,12,,,,67,0
93600,note_on,0,0,11,,,,,,,,,10,,,,76,112
93600,note_on,60,0,11,,,,,,,,,10,,,,79,0
93600,set_tempo,120,1,0,,,,,,264901,,,,,,,,
93603,note_on,61,0,5,,,,,,,,,4,,,,67,115
93604,note_on,0,0,2,,,,,,,,,1,,,,74,0
93604,note_on,61,0,6,,,,,,,,,5,,,,55,115
93604,note_on,360,0,2,,,,,,,,,1,,,,79,0
93604,note_on,0,0,2,,,,,,,,,1,,,,79,100
93604,note_on,0,0,2,,,,,,,,,1,,,,76,100
93605,note_on,60,0,3,,,,,,,,,2,,,,67,0
93605,control_change,0,0,3,,,,,,,,,2,11,47,,,
93605,note_on,0,0,3,,,,,,,,,2,,,,67,101
93609,note_on,360,0,4,,,,,,,,,3,,,,65,0
93609,note_on,0,0,4,,,,,,,,,3,,,,64,100
93612,note_on,0,0,14,,,,,,,,,13,,,,62,112
93612,note_on,120,0,14,,,,,,,,,13,,,,59,0
93614,note_on,300,0,15,,,,,,,,,14,,,,36,112
93665,note_on,60,0,3,,,,,,,,,2,,,,67,0
93669,note_on,60,0,4,,,,,,,,,3,,,,64,0
93672,note_on,0,0,14,,,,,,,,,13,,,,60,112
93672,note_on,60,0,14,,,,,,,,,13,,,,62,0
93674,note_on,60,0,15,,,,,,,,,14,,,,36,0
93720,note_on,120,0,11,,,,,,,,,10,,,,76,0
93720,note_on,0,0,11,,,,,,,,,10,,,,79,112
93720,set_tempo,120,1,0,,,,,,272727,,,,,,,,
93723,note_on,180,0,12,,,,,,,,,11,,,,72,127
93725,note_on,60,0,3,,,,,,,,,2,,,,67,101
93728,note_on,180,0,13,,,,,,,,,12,,,,64,127
93729,note_on,60,0,4,,,,,,,,,3,,,,64,100
93732,note_on,60,0,14,,,,,,,,,13,,,,60,0
93732,note_on,0,0,14,,,,,,,,,13,,,,59,112
93785,note_on,60,0,3,,,,,,,,,2,,,,67,0
93789,note_on,60,0,4,,,,,,,,,3,,,,64,0
93792,note_on,0,0,14,,,,,,,,,13,,,,57,112
93792,note_on,60,0,14,,,,,,,,,13,,,,59,0
93840,set_tempo,120,1,0,,,,,,333333,,,,,,,,
93840,note_on,0,0,11,,,,,,,,,10,,,,76,112
93840,note_on,120,0,11,,,,,,,,,10,,,,79,0
93843,note_on,120,0,12,,,,,,,,,11,,,,72,0
93843,note_on,0,0,12,,,,,,,,,11,,,,67,112
93845,note_on,60,0,3,,,,,,,,,2,,,,67,101
93848,note_on,120,0,13,,,,,,,,,12,,,,64,0
93848,note_on,0,0,13,,,,,,,,,12,,,,67,112
93849,note_on,60,0,4,,,,,,,,,3,,,,64,100
93852,note_on,0,0,14,,,,,,,,,13,,,,55,112
93852,note_on,60,0,14,,,,,,,,,13,,,,57,0
93902,note_on,299,0,5,,,,,,,,,4,,,,67,0
93903,note_on,60,0,12,,,,,,,,,11,,,,67,0
93903,note_on,299,0,6,,,,,,,,,5,,,,55,0
93905,note_on,60,0,3,,,,,,,,,2,,,,67,0
93908,note_on,60,0,13,,,,,,,,,12,,,,67,0
93909,note_on,60,0,4,,,,,,,,,3,,,,64,0
93955,note_on,115,0,11,,,,,,,,,10,,,,76,0
93960,set_tempo,120,1,0,,,,,,264901,,,,,,,,
93960,note_on,5,0,11,,,,,,,,,10,,,,74,112
93960,control_change,0,0,11,,,,,,,,,10,11,36,,,
93963,note_on,60,0,12,,,,,,,,,11,,,,74,112
93963,control_change,0,0,12,,,,,,,,,11,11,36,,,
93964,note_on,0,0,2,,,,,,,,,1,,,,76,0
93964,note_on,360,0,2,,,,,,,,,1,,,,79,0
93965,note_on,60,0,3,,,,,,,,,2,,,,79,116
93965,note_on,0,0,3,,,,,,,,,2,,,,77,101
93965,control_change,0,0,3,,,,,,,,,2,11,55,,,
93967,program_change,59,0,13,,,,,,,,50,12,,,,,
93968,control_change,0,0,13,,,,,,,,,12,11,36,,,
93968,note_on,1,0,13,,,,,,,,,12,,,,74,112
93969,control_change,0,0,4,,,,,,,,,3,11,57,,,
93969,note_on,0,0,4,,,,,,,,,3,,,,67,115
93969,note_on,60,0,4,,,,,,,,,3,,,,65,100
93972,control_change,0,0,14,,,,,,,,,13,11,36,,,
93972,note_on,0,0,14,,,,,,,,,13,,,,62,112
93972,note_on,120,0,14,,,,,,,,,13,,,,55,0
93974,control_change,300,0,15,,,,,,,,,14,11,36,,,
93974,note_on,0,0,15,,,,,,,,,14,,,,50,112
93995,note_on,30,0,3,,,,,,,,,2,,,,79,0
93999,note_on,30,0,4,,,,,,,,,3,,,,67,0
94025,note_on,30,0,3,,,,,,,,,2,,,,79,101
94029,note_on,30,0,4,,,,,,,,,3,,,,67,100
94055,note_on,30,0,3,,,,,,,,,2,,,,79,0
94059,note_on,30,0,4,,,,,,,,,3,,,,67,0
94085,note_on,30,0,3,,,,,,,,,2,,,,81,101
94089,note_on,30,0,4,,,,,,,,,3,,,,69,100
94145,note_on,60,0,3,,,,,,,,,2,,,,81,0
94145,note_on,0,0,3,,,,,,,,,2,,,,79,101
94149,note_on,60,0,4,,,,,,,,,3,,,,69,0
94149,note_on,0,0,4,,,,,,,,,3,,,,67,100
94200,note_on,240,0,11,,,,,,,,,10,,,,74,0
94200,note_on,0,0,11,,,,,,,,,10,,,,71,112
94200,set_tempo,240,1,0,,,,,,292683,,,,,,,,
94203,note_on,0,0,12,,,,,,,,,11,,,,71,112
94203,note_on,240,0,12,,,,,,,,,11,,,,74,0
94205,note_on,0,0,3,,,,,,,,,2,,,,81,101
94205,note_on,60,0,3,,,,,,,,,2,,,,79,0
94208,note_on,240,0,13,,,,,,,,,12,,,,74,0
94208,note_on,0,0,13,,,,,,,,,12,,,,71,112
94209,note_on,0,0,4,,,,,,,,,3,,,,69,100
94209,note_on,60,0,4,,,,,,,,,3,,,,67,0
94212,note_on,240,0,14,,,,,,,,,13,,,,62,0
94212,note_on,0,0,14,,,,,,,,,13,,,,59,112
94214,note_on,0,0,15,,,,,,,,,14,,,,47,112
94214,note_on,240,0,15,,,,,,,,,14,,,,50,0
94265,note_on,0,0,3,,,,,,,,,2,,,,79,101
94265,note_on,60,0,3,,,,,,,,,2,,,,81,0
94269,note_on,0,0,4,,,,,,,,,3,,,,67,100
94269,note_on,60,0,4,,,,,,,,,3,,,,69,0
94320,set_tempo,120,1,0,,,,,,263736,,,,,,,,
94320,note_on,120,0,11,,,,,,,,,10,,,,71,0
94320,note_on,0,0,11,,,,,,,,,10,,,,67,112
94323,note_on,0,0,12,,,,,,,,,11,,,,67,112
94323,note_on,120,0,12,,,,,,,,,11,,,,71,0
94325,note_on,60,0,3,,,,,,,,,2,,,,79,0
94325,control_change,0,0,3,,,,,,,,,2,11,47,,,
94325,note_on,0,0,3,,,,,,,,,2,,,,77,101
94325,note_on,0,0,3,,,,,,,,,2,,,,79,101
94325,note_on,0,0,3,,,,,,,,,2,,,,77,0
94328,note_on,0,0,13,,,,,,,,,12,,,,67,112
94328,note_on,120,0,13,,,,,,,,,12,,,,71,0
94329,note_on,0,0,4,,,,,,,,,3,,,,65,0
94329,note_on,0,0,4,,,,,,,,,3,,,,67,100
94329,note_on,0,0,4,,,,,,,,,3,,,,65,100
94329,note_on,60,0,4,,,,,,,,,3,,,,67,0
94329,control_change,0,0,4,,,,,,,,,3,11,47,,,
94332,note_on,120,0,14,,,,,,,,,13,,,,59,0
94332,note_on,0,0,14,,,,,,,,,13,,,,55,112
94334,note_on,120,0,15,,,,,,,,,14,,,,47,0
94334,note_on,0,0,15,,,,,,,,,14,,,,43,112
94385,note_on,0,0,3,,,,,,,,,2,,,,77,0
94385,note_on,60,0,3,,,,,,,,,2,,,,79,0
94389,note_on,0,0,4,,,,,,,,,3,,,,65,0
94389,note_on,60,0,4,,,,,,,,,3,,,,67,0
94445,note_on,60,0,3,,,,,,,,,2,,,,77,101
94445,note_on,0,0,3,,,,,,,,,2,,,,79,101
94449,note_on,0,0,4,,,,,,,,,3,,,,65,100
94449,note_on,60,0,4,,,,,,,,,3,,,,67,100
94505,note_on,60,0,3,,,,,,,,,2,,,,79,0
94505,note_on,0,0,3,,,,,,,,,2,,,,77,0
94509,note_on,0,0,4,,,,,,,,,3,,,,67,0
94509,note_on,60,0,4,,,,,,,,,3,,,,65,0
94560,note_on,0,0,11,,,,,,,,,10,,,,62,112
94560,note_on,240,0,11,,,,,,,,,10,,,,67,0
94560,set_tempo,240,1,0,,,,,,292683,,,,,,,,
94563,note_on,0,0,12,,,,,,,,,11,,,,62,112
94563,note_on,240,0,12,,,,,,,,,11,,,,67,0
94565,note_on,60,0,3,,,,,,,,,2,,,,79,101
94565,note_on,0,0,3,,,,,,,,,2,,,,77,101
94568,note_on,0,0,13,,,,,,,,,12,,,,62,112
94568,note_on,240,0,13,,,,,,,,,12,,,,67,0
94569,note_on,60,0,4,,,,,,,,,3,,,,65,100
94569,note_on,0,0,4,,,,,,,,,3,,,,67,100
94572,note_on,240,0,14,,,,,,,,,13,,,,55,0
94572,note_on,0,0,14,,,,,,,,,13,,,,50,112
94574,note_on,240,0,15,,,,,,,,,14,,,,43,0
94574,note_on,0,0,15,,,,,,,,,14,,,,38,112
94625,note_on,0,0,3,,,,,,,,,2,,,,79,0
94625,note_on,60,0,3,,,,,,,,,2,,,,77,0
94629,note_on,0,0,4,,,,,,,,,3,,,,65,0
94629,note_on,60,0,4,,,,,,,,,3,,,,67,0
94670,note_on,110,0,11,,,,,,,,,10,,,,62,0
94673,note_on,110,0,12,,,,,,,,,11,,,,62,0
94678,note_on,110,0,13,,,,,,,,,12,,,,62,0
94680,note_on,10,0,11,,,,,,,,,10,,,,59,112
94680,set_tempo,120,1,0,,,,,,263736,,,,,,,,
94682,note_on,110,0,14,,,,,,,,,13,,,,50,0
94683,note_on,10,0,12,,,,,,,,,11,,,,59,112
94684,note_on,110,0,15,,,,,,,,,14,,,,38,0
94684,note_on,0,0,2,,,,,,,,,1,,,,77,100
94684,note_on,0,0,2,,,,,,,,,1,,,,79,100
94684,control_change,720,0,2,,,,,,,,,1,11,55,,,
94685,note_on,0,0,3,,,,,,,,,2,,,,77,116
94685,note_on,60,0,3,,,,,,,,,2,,,,79,116
94688,note_on,10,0,13,,,,,,,,,12,,,,59,112
94689,note_on,0,0,4,,,,,,,,,3,,,,65,115
94689,note_on,60,0,4,,,,,,,,,3,,,,67,115
94692,note_on,10,0,14,,,,,,,,,13,,,,47,112
94694,note_on,10,0,15,,,,,,,,,14,,,,35,112
94714,note_on,30,0,2,,,,,,,,,1,,,,79,0
94744,note_on,30,0,2,,,,,,,,,1,,,,79,100
94774,note_on,30,0,2,,,,,,,,,1,,,,79,0
94800,note_on,0,0,11,,,,,,,,,10,,,,62,112
94800,note_on,120,0,11,,,,,,,,,10,,,,59,0
94803,note_on,0,0,12,,,,,,,,,11,,,,62,112
94803,note_on,120,0,12,,,,,,,,,11,,,,59,0
94804,note_on,30,0,2,,,,,,,,,1,,,,81,100
94808,note_on,0,0,13,,,,,,,,,12,,,,62,112
94808,note_on,120,0,13,,,,,,,,,12,,,,59,0
94812,note_on,0,0,14,,,,,,,,,13,,,,50,112
94812,note_on,120,0,14,,,,,,,,,13,,,,47,0
94814,note_on,0,0,15,,,,,,,,,14,,,,38,112
94814,note_on,120,0,15,,,,,,,,,14,,,,35,0
94864,note_on,60,0,2,,,,,,,,,1,,,,81,0
94864,note_on,0,0,2,,,,,,,,,1,,,,79,100
94920,note_on,120,0,11,,,,,,,,,10,,,,62,0
94920,note_on,0,0,11,,,,,,,,,10,,,,66,112
94920,set_tempo,240,1,0,,,,,,292683,,,,,,,,
94923,note_on,120,0,12,,,,,,,,,11,,,,62,0
94923,note_on,0,0,12,,,,,,,,,11,,,,66,112
94924,note_on,0,0,2,,,,,,,,,1,,,,81,100
94924,note_on,60,0,2,,,,,,,,,1,,,,79,0
94928,note_on,120,0,13,,,,,,,,,12,,,,62,0
94928,note_on,0,0,13,,,,,,,,,12,,,,66,112
94932,note_on,0,0,14,,,,,,,,,13,,,,54,112
94932,note_on,120,0,14,,,,,,,,,13,,,,50,0
94934,note_on,0,0,15,,,,,,,,,14,,,,42,112
94934,note_on,120,0,15,,,,,,,,,14,,,,38,0
94984,note_on,60,0,2,,,,,,,,,1,,,,81,0
94984,note_on,0,0,2,,,,,,,,,1,,,,79,100
95040,note_on,0,0,11,,,,,,,,,10,,,,67,112
95040,set_tempo,120,1,0,,,,,,263736,,,,,,,,
95040,note_on,120,0,11,,,,,,,,,10,,,,66,0
95043,note_on,120,0,12,,,,,,,,,11,,,,66,0
95043,note_on,0,0,12,,,,,,,,,11,,,,67,112
95044,note_on,60,0,2,,,,,,,,,1,,,,79,0
95044,note_on,0,0,2,,,,,,,,,1,,,,79,100
95044,control_change,0,0,2,,,,,,,,,1,11,47,,,
95044,note_on,0,0,2,,,,,,,,,1,,,,77,100
95044,note_on,0,0,2,,,,,,,,,1,,,,77,0
95045,note_on,360,0,3,,,,,,,,,2,,,,77,0
95045,note_on,0,0,3,,,,,,,,,2,,,,79,0
95045,note_on,0,0,3,,,,,,,,,2,,,,77,116
95045,note_on,0,0,3,,,,,,,,,2,,,,79,116
95048,note_on,0,0,13,,,,,,,,,12,,,,67,112
95048,note_on,120,0,13,,,,,,,,,12,,,,66,0
95049,note_on,360,0,4,,,,,,,,,3,,,,65,0
95049,note_on,0,0,4,,,,,,,,,3,,,,67,0
95049,note_on,0,0,4,,,,,,,,,3,,,,67,115
95049,note_on,0,0,4,,,,,,,,,3,,,,65,115
95052,note_on,0,0,14,,,,,,,,,13,,,,55,112
95052,note_on,120,0,14,,,,,,,,,13,,,,54,0
95054,note_on,0,0,15,,,,,,,,,14,,,,43,112
95054,note_on,120,0,15,,,,,,,,,14,,,,42,0
95104,note_on,60,0,2,,,,,,,,,1,,,,79,0
95104,note_on,0,0,2,,,,,,,,,1,,,,77,0
95160,note_on,120,0,11,,,,,,,,,10,,,,67,0
95160,note_on,0,0,11,,,,,,,,,10,,,,71,112
95163,note_on,0,0,12,,,,,,,,,11,,,,71,112
95163,note_on,120,0,12,,,,,,,,,11,,,,67,0
95164,note_on,60,0,2,,,,,,,,,1,,,,79,100
95164,note_on,0,0,2,,,,,,,,,1,,,,77,100
95168,note_on,0,0,13,,,,,,,,,12,,,,71,112
95168,note_on,120,0,13,,,,,,,,,12,,,,67,0
95172,note_on,0,0,14,,,,,,,,,13,,,,59,112
95172,note_on,120,0,14,,,,,,,,,13,,,,55,0
95174,note_on,0,0,15,,,,,,,,,14,,,,47,112
95174,note_on,120,0,15,,,,,,,,,14,,,,43,0
95224,note_on,0,0,2,,,,,,,,,1,,,,79,0
95224,note_on,60,0,2,,,,,,,,,1,,,,77,0
95280,note_on,0,0,11,,,,,,,,,10,,,,73,112
95280,note_on,120,0,11,,,,,,,,,10,,,,71,0
95280,set_tempo,240,1,0,,,,,,315789,,,,,,,,
95283,note_on,120,0,12,,,,,,,,,11,,,,71,0
95283,note_on,0,0,12,,,,,,,,,11,,,,73,112
95284,note_on,0,0,2,,,,,,,,,1,,,,79,100
95284,note_on,60,0,2,,,,,,,,,1,,,,77,100
95288,note_on,120,0,13,,,,,,,,,12,,,,71,0
95288,note_on,0,0,13,,,,,,,,,12,,,,73,112
95292,note_on,0,0,14,,,,,,,,,13,,,,61,112
95292,note_on,120,0,14,,,,,,,,,13,,,,59,0
95294,note_on,120,0,15,,,,,,,,,14,,,,47,0
95294,note_on,0,0,15,,,,,,,,,14,,,,49,112
95344,note_on,0,0,2,,,,,,,,,1,,,,77,0
95344,note_on,60,0,2,,,,,,,,,1,,,,79,0
95390,note_on,110,0,11,,,,,,,,,10,,,,73,0
95393,note_on,110,0,12,,,,,,,,,11,,,,73,0
95398,note_on,110,0,13,,,,,,,,,12,,,,73,0
95400,note_on,10,0,11,,,,,,,,,10,,,,74,127
95400,control_change,0,0,11,,,,,,,,,10,11,36,,,
95400,set_tempo,120,1,0,,,,,,260870,,,,,,,,
95401,note_on,5640,0,1,,,,,,,,,0,,,,83,116
95401,note_on,0,0,1,,,,,,,,,0,,,,86,101
95401,control_change,0,0,1,,,,,,,,,0,11,37,,,
95402,note_on,110,0,14,,,,,,,,,13,,,,61,0
95403,note_on,0,0,12,,,,,,,,,11,,,,74,127
95403,control_change,10,0,12,,,,,,,,,11,11,36,,,
95404,control_change,0,0,2,,,,,,,,,1,11,37,,,
95404,note_on,60,0,2,,,,,,,,,1,,,,74,115
95404,note_on,0,0,2,,,,,,,,,1,,,,83,115
95404,note_on,110,0,15,,,,,,,,,14,,,,49,0
95405,note_on,0,0,3,,,,,,,,,2,,,,78,116
95405,control_change,0,0,3,,,,,,,,,2,11,37,,,
95405,note_on,0,0,3,,,,,,,,,2,,,,77,0
95405,note_on,360,0,3,,,,,,,,,2,,,,79,0
95408,note_on,0,0,13,,,,,,,,,12,,,,74,127
95408,control_change,10,0,13,,,,,,,,,12,11,36,,,
95409,note_on,0,0,4,,,,,,,,,3,,,,66,115
95409,note_on,360,0,4,,,,,,,,,3,,,,67,0
95409,note_on,0,0,4,,,,,,,,,3,,,,65,0
95409,control_change,0,0,4,,,,,,,,,3,11,37,,,
95412,note_on,10,0,14,,,,,,,,,13,,,,62,127
95412,control_change,0,0,14,,,,,,,,,13,11,36,,,
95414,control_change,10,0,15,,,,,,,,,14,11,36,,,
95414,note_on,0,0,15,,,,,,,,,14,,,,50,127
95431,note_on,30,0,1,,,,,,,,,0,,,,86,0
95448,control_change,48,0,11,,,,,,,,,10,11,37,,,
95451,control_change,48,0,12,,,,,,,,,11,11,37,,,
95456,control_change,48,0,13,,,,,,,,,12,11,37,,,
95460,control_change,48,0,14,,,,,,,,,13,11,37,,,
95461,note_on,30,0,1,,,,,,,,,0,,,,86,101
95461,control_change,0,0,1,,,,,,,,,0,11,38,,,
95462,control_change,48,0,15,,,,,,,,,14,11,37,,,
95464,control_change,60,0,2,,,,,,,,,1,11,38,,,
95465,control_change,60,0,3,,,,,,,,,2,11,38,,,
95469,control_change,60,0,4,,,,,,,,,3,11,38,,,
95491,note_on,30,0,1,,,,,,,,,0,,,,86,0
95496,control_change,48,0,11,,,,,,,,,10,11,38,,,
95499,control_change,48,0,12,,,,,,,,,11,11,38,,,
95504,control_change,48,0,13,,,,,,,,,12,11,38,,,
95508,control_change,48,0,14,,,,,,,,,13,11,38,,,
95510,control_change,48,0,15,,,,,,,,,14,11,38,,,
95521,note_on,30,0,1,,,,,,,,,0,,,,88,101
95522,control_change,1,0,1,,,,,,,,,0,11,39,,,
95525,control_change,61,0,2,,,,,,,,,1,11,39,,,
95526,control_change,61,0,3,,,,,,,,,2,11,39,,,
95530,control_change,61,0,4,,,,,,,,,3,11,39,,,
95544,control_change,48,0,11,,,,,,,,,10,11,39,,,
95547,control_change,48,0,12,,,,,,,,,11,11,39,,,
95552,control_change,48,0,13,,,,,,,,,12,11,39,,,
95556,control_change,48,0,14,,,,,,,,,13,11,39,,,
95558,control_change,48,0,15,,,,,,,,,14,11,39,,,
95581,note_on,59,0,1,,,,,,,,,0,,,,88,0
95581,note_on,0,0,1,,,,,,,,,0,,,,86,101
95583,control_change,2,0,1,,,,,,,,,0,11,40,,,
95586,control_change,61,0,2,,,,,,,,,1,11,40,,,
95587,control_change,61,0,3,,,,,,,,,2,11,40,,,
95591,control_change,61,0,4,,,,,,,,,3,11,40,,,
95592,control_change,48,0,11,,,,,,,,,10,11,40,,,
95595,control_change,48,0,12,,,,,,,,,11,11,40,,,
95600,control_change,48,0,13,,,,,,,,,12,11,40,,,
95604,control_change,48,0,14,,,,,,,,,13,11,40,,,
95606,control_change,48,0,15,,,,,,,,,14,11,40,,,
95640,note_on,48,0,11,,,,,,,,,10,,,,74,0
95640,note_on,0,0,11,,,,,,,,,10,,,,71,112
95640,control_change,0,0,11,,,,,,,,,10,11,41,,,
95640,set_tempo,240,1,0,,,,,,288462,,,,,,,,
95641,note_on,0,0,1,,,,,,,,,0,,,,88,101
95641,note_on,58,0,1,,,,,,,,,0,,,,86,0
95643,note_on,48,0,12,,,,,,,,,11,,,,74,0
95643,note_on,0,0,12,,,,,,,,,11,,,,71,112
95643,control_change,0,0,12,,,,,,,,,11,11,41,,,
95644,control_change,3,0,1,,,,,,,,,0,11,41,,,
95647,control_change,61,0,2,,,,,,,,,1,11,41,,,
95648,control_change,0,0,13,,,,,,,,,12,11,41,,,
95648,note_on,0,0,13,,,,,,,,,12,,,,71,112
95648,control_change,61,0,3,,,,,,,,,2,11,41,,,
95648,note_on,48,0,13,,,,,,,,,12,,,,74,0
95652,control_change,61,0,4,,,,,,,,,3,11,41,,,
95652,note_on,48,0,14,,,,,,,,,13,,,,62,0
95652,control_change,0,0,14,,,,,,,,,13,11,41,,,
95652,note_on,0,0,14,,,,,,,,,13,,,,59,112
95654,control_change,0,0,15,,,,,,,,,14,11,41,,,
95654,note_on,48,0,15,,,,,,,,,14,,,,50,0
95654,note_on,0,0,15,,,,,,,,,14,,,,47,112
95680,control_change,40,0,11,,,,,,,,,10,11,42,,,
95683,control_change,40,0,12,,,,,,,,,11,11,42,,,
95688,control_change,40,0,13,,,,,,,,,12,11,42,,,
95692,control_change,40,0,14,,,,,,,,,13,11,42,,,
95694,control_change,40,0,15,,,,,,,,,14,11,42,,,
95701,note_on,0,0,1,,,,,,,,,0,,,,86,101
95701,note_on,57,0,1,,,,,,,,,0,,,,88,0
95705,control_change,4,0,1,,,,,,,,,0,11,42,,,
95708,control_change,61,0,2,,,,,,,,,1,11,42,,,
95709,control_change,61,0,3,,,,,,,,,2,11,42,,,
95713,control_change,61,0,4,,,,,,,,,3,11,42,,,
95721,control_change,41,0,11,,,,,,,,,10,11,42,,,
95724,control_change,41,0,12,,,,,,,,,11,11,42,,,
95729,control_change,41,0,13,,,,,,,,,12,11,42,,,
95733,control_change,41,0,14,,,,,,,,,13,11,42,,,
95735,control_change,41,0,15,,,,,,,,,14,11,42,,,
95760,set_tempo,120,1,0,,,,,,260870,,,,,,,,
95760,note_on,0,0,11,,,,,,,,,10,,,,66,112
95760,note_on,39,0,11,,,,,,,,,10,,,,71,0
95761,control_change,1,0,11,,,,,,,,,10,11,43,,,
95761,note_on,0,0,1,,,,,,,,,0,,,,83,101
95761,note_on,0,0,1,,,,,,,,,0,,,,86,101
95761,note_on,0,0,1,,,,,,,,,0,,,,83,0
95761,note_on,56,0,1,,,,,,,,,0,,,,86,0
95763,note_on,39,0,12,,,,,,,,,11,,,,71,0
95763,note_on,0,0,12,,,,,,,,,11,,,,66,112
95764,note_on,0,0,2,,,,,,,,,1,,,,83,115
95764,note_on,0,0,2,,,,,,,,,1,,,,74,115
95764,note_on,0,0,2,,,,,,,,,1,,,,74,0
95764,note_on,56,0,2,,,,,,,,,1,,,,83,0
95764,control_change,1,0,12,,,,,,,,,11,11,43,,,
95765,note_on,0,0,3,,,,,,,,,2,,,,78,101
95765,note_on,56,0,3,,,,,,,,,2,,,,78,0
95765,note_on,0,0,3,,,,,,,,,2,,,,71,101
95766,control_change,5,0,1,,,,,,,,,0,11,43,,,
95768,note_on,0,0,13,,,,,,,,,12,,,,66,112
95768,note_on,39,0,13,,,,,,,,,12,,,,71,0
95769,note_on,0,0,4,,,,,,,,,3,,,,66,115
95769,note_on,0,0,4,,,,,,,,,3,,,,62,115
95769,note_on,56,0,4,,,,,,,,,3,,,,66,0
95769,control_change,1,0,13,,,,,,,,,12,11,43,,,
95769,control_change,5,0,2,,,,,,,,,1,11,43,,,
95770,control_change,5,0,3,,,,,,,,,2,11,43,,,
95772,note_on,0,0,14,,,,,,,,,13,,,,54,112
95772,note_on,39,0,14,,,,,,,,,13,,,,59,0
95773,control_change,1,0,14,,,,,,,,,13,11,43,,,
95774,control_change,5,0,4,,,,,,,,,3,11,43,,,
95774,note_on,0,0,15,,,,,,,,,14,,,,42,112
95774,note_on,39,0,15,,,,,,,,,14,,,,47,0
95775,control_change,1,0,15,,,,,,,,,14,11,43,,,
95802,control_change,41,0,11,,,,,,,,,10,11,44,,,
95805,control_change,41,0,12,,,,,,,,,11,11,44,,,
95810,control_change,41,0,13,,,,,,,,,12,11,44,,,
95814,control_change,41,0,14,,,,,,,,,13,11,44,,,
95816,control_change,41,0,15,,,,,,,,,14,11,44,,,
95821,note_on,0,0,1,,,,,,,,,0,,,,86,0
95821,note_on,55,0,1,,,,,,,,,0,,,,83,0
95827,control_change,6,0,1,,,,,,,,,0,11,44,,,
95829,note_on,0,0,4,,,,,,,,,3,,,,62,0
95829,note_on,55,0,4,,,,,,,,,3,,,,66,0
95830,control_change,61,0,2,,,,,,,,,1,11,44,,,
95831,control_change,61,0,3,,,,,,,,,2,11,44,,,
95835,control_change,6,0,4,,,,,,,,,3,11,44,,,
95843,control_change,41,0,11,,,,,,,,,10,11,45,,,
95846,control_change,41,0,12,,,,,,,,,11,11,45,,,
95851,control_change,41,0,13,,,,,,,,,12,11,45,,,
95855,control_change,41,0,14,,,,,,,,,13,11,45,,,
95857,control_change,41,0,15,,,,,,,,,14,11,45,,,
95881,note_on,54,0,1,,,,,,,,,0,,,,86,101
95881,note_on,0,0,1,,,,,,,,,0,,,,83,101
95883,control_change,40,0,11,,,,,,,,,10,11,46,,,
95886,control_change,40,0,12,,,,,,,,,11,11,46,,,
95888,control_change,7,0,1,,,,,,,,,0,11,45,,,
95889,note_on,0,0,4,,,,,,,,,3,,,,66,100
95889,note_on,54,0,4,,,,,,,,,3,,,,62,100
95891,control_change,61,0,2,,,,,,,,,1,11,45,,,
95891,control_change,40,0,13,,,,,,,,,12,11,46,,,
95892,control_change,61,0,3,,,,,,,,,2,11,45,,,
95895,control_change,40,0,14,,,,,,,,,13,11,46,,,
95896,control_change,7,0,4,,,,,,,,,3,11,45,,,
95897,control_change,40,0,15,,,,,,,,,14,11,46,,,
95924,control_change,41,0,11,,,,,,,,,10,11,47,,,
95927,control_change,41,0,12,,,,,,,,,11,11,47,,,
95932,control_change,41,0,13,,,,,,,,,12,11,47,,,
95936,control_change,41,0,14,,,,,,,,,13,11,47,,,
95938,control_change,41,0,15,,,,,,,,,14,11,47,,,
95941,note_on,53,0,1,,,,,,,,,0,,,,83,0
95941,note_on,0,0,1,,,,,,,,,0,,,,86,0
95949,note_on,0,0,4,,,,,,,,,3,,,,62,0
95949,note_on,53,0,4,,,,,,,,,3,,,,66,0
95949,control_change,8,0,1,,,,,,,,,0,11,46,,,
95952,control_change,61,0,2,,,,,,,,,1,11,46,,,
95953,control_change,61,0,3,,,,,,,,,2,11,46,,,
95957,control_change,8,0,4,,,,,,,,,3,11,46,,,
95964,control_change,40,0,11,,,,,,,,,10,11,48,,,
95967,control_change,40,0,12,,,,,,,,,11,11,48,,,
95972,control_change,40,0,13,,,,,,,,,12,11,48,,,
95976,control_change,40,0,14,,,,,,,,,13,11,48,,,
95978,control_change,40,0,15,,,,,,,,,14,11,48,,,
96000,note_on,36,0,11,,,,,,,,,10,,,,66,0
96000,set_tempo,240,1,0,,,,,,288462,,,,,,,,
96000,note_on,0,0,11,,,,,,,,,10,,,,62,112
96001,note_on,52,0,1,,,,,,,,,0,,,,83,101
96001,note_on,0,0,1,,,,,,,,,0,,,,86,101
96003,note_on,36,0,12,,,,,,,,,11,,,,66,0
96003,note_on,0,0,12,,,,,,,,,11,,,,62,112
96005,control_change,5,0,11,,,,,,,,,10,11,49,,,
96008,note_on,36,0,13,,,,,,,,,12,,,,66,0
96008,note_on,0,0,13,,,,,,,,,12,,,,62,112
96008,control_change,5,0,12,,,,,,,,,11,11,49,,,
96009,note_on,0,0,4,,,,,,,,,3,,,,62,100
96009,note_on,52,0,4,,,,,,,,,3,,,,66,100
96010,control_change,9,0,1,,,,,,,,,0,11,47,,,
96012,note_on,36,0,14,,,,,,,,,13,,,,54,0
96012,note_on,0,0,14,,,,,,,,,13,,,,50,112
96013,control_change,61,0,2,,,,,,,,,1,11,47,,,
96013,control_change,5,0,13,,,,,,,,,12,11,49,,,
96014,control_change,61,0,3,,,,,,,,,2,11,47,,,
96014,note_on,36,0,15,,,,,,,,,14,,,,42,0
96014,note_on,0,0,15,,,,,,,,,14,,,,38,112
96017,control_change,5,0,14,,,,,,,,,13,11,49,,,
96018,control_change,9,0,4,,,,,,,,,3,11,47,,,
96019,control_change,5,0,15,,,,,,,,,14,11,49,,,
96046,control_change,41,0,11,,,,,,,,,10,11,50,,,
96049,control_change,41,0,12,,,,,,,,,11,11,50,,,
96054,control_change,41,0,13,,,,,,,,,12,11,50,,,
96058,control_change,41,0,14,,,,,,,,,13,11,50,,,
96060,control_change,41,0,15,,,,,,,,,14,11,50,,,
96061,note_on,0,0,1,,,,,,,,,0,,,,83,0
96061,note_on,51,0,1,,,,,,,,,0,,,,86,0
96069,note_on,0,0,4,,,,,,,,,3,,,,66,0
96069,note_on,51,0,4,,,,,,,,,3,,,,62,0
96071,control_change,10,0,1,,,,,,,,,0,11,48,,,
96074,control_change,61,0,2,,,,,,,,,1,11,48,,,
96075,control_change,61,0,3,,,,,,,,,2,11,48,,,
96079,control_change,10,0,4,,,,,,,,,3,11,48,,,
96086,control_change,40,0,11,,,,,,,,,10,11,51,,,
96089,control_change,40,0,12,,,,,,,,,11,11,51,,,
96094,control_change,40,0,13,,,,,,,,,12,11,51,,,
96098,control_change,40,0,14,,,,,,,,,13,11,51,,,
96100,control_change,40,0,15,,,,,,,,,14,11,51,,,
96110,note_on,24,0,11,,,,,,,,,10,,,,62,0
96113,note_on,24,0,12,,,,,,,,,11,,,,62,0
96118,note_on,24,0,13,,,,,,,,,12,,,,62,0
96120,note_on,10,0,11,,,,,,,,,10,,,,59,112
96120,set_tempo,120,1,0,,,,,,260870,,,,,,,,
96121,note_on,0,0,1,,,,,,,,,0,,,,86,116
96121,note_on,50,0,1,,,,,,,,,0,,,,83,116
96122,note_on,24,0,14,,,,,,,,,13,,,,50,0
96123,note_on,10,0,12,,,,,,,,,11,,,,59,112
96124,note_on,50,0,2,,,,,,,,,1,,,,83,0
96124,note_on,0,0,2,,,,,,,,,1,,,,74,100
96124,note_on,0,0,2,,,,,,,,,1,,,,74,0
96124,note_on,0,0,2,,,,,,,,,1,,,,83,115
96124,note_on,24,0,15,,,,,,,,,14,,,,38,0
96125,note_on,0,0,3,,,,,,,,,2,,,,78,116
96125,note_on,0,0,3,,,,,,,,,2,,,,74,116
96125,note_on,0,0,3,,,,,,,,,2,,,,78,0
96125,note_on,50,0,3,,,,,,,,,2,,,,71,0
96127,control_change,7,0,11,,,,,,,,,10,11,52,,,
96128,note_on,10,0,13,,,,,,,,,12,,,,59,112
96129,note_on,50,0,4,,,,,,,,,3,,,,59,115
96129,note_on,0,0,4,,,,,,,,,3,,,,66,115
96130,control_change,7,0,12,,,,,,,,,11,11,52,,,
96132,control_change,11,0,1,,,,,,,,,0,11,49,,,
96132,note_on,10,0,14,,,,,,,,,13,,,,47,112
96134,note_on,10,0,15,,,,,,,,,14,,,,35,112
96135,control_change,7,0,13,,,,,,,,,12,11,52,,,
96135,control_change,11,0,2,,,,,,,,,1,11,49,,,
96136,control_change,11,0,3,,,,,,,,,2,11,49,,,
96139,control_change,7,0,14,,,,,,,,,13,11,52,,,
96140,control_change,11,0,4,,,,,,,,,3,11,49,,,
96141,control_change,7,0,15,,,,,,,,,14,11,52,,,
96154,note_on,19,0,2,,,,,,,,,1,,,,74,0
96168,control_change,41,0,11,,,,,,,,,10,11,53,,,
96171,control_change,41,0,12,,,,,,,,,11,11,53,,,
96176,control_change,41,0,13,,,,,,,,,12,11,53,,,
96180,control_change,41,0,14,,,,,,,,,13,11,53,,,
96182,control_change,41,0,15,,,,,,,,,14,11,53,,,
96184,note_on,30,0,2,,,,,,,,,1,,,,74,100
96193,control_change,61,0,1,,,,,,,,,0,11,50,,,
96196,control_change,12,0,2,,,,,,,,,1,11,50,,,
96197,control_change,61,0,3,,,,,,,,,2,11,50,,,
96201,control_change,61,0,4,,,,,,,,,3,11,50,,,
96208,control_change,40,0,11,,,,,,,,,10,11,54,,,
96211,control_change,40,0,12,,,,,,,,,11,11,54,,,
96214,note_on,18,0,2,,,,,,,,,1,,,,74,0
96216,control_change,40,0,13,,,,,,,,,12,11,54,,,
96220,control_change,40,0,14,,,,,,,,,13,11,54,,,
96222,control_change,40,0,15,,,,,,,,,14,11,54,,,
96240,note_on,0,0,11,,,,,,,,,10,,,,62,112
96240,note_on,32,0,11,,,,,,,,,10,,,,59,0
96243,note_on,32,0,12,,,,,,,,,11,,,,59,0
96243,note_on,0,0,12,,,,,,,,,11,,,,62,112
96244,note_on,30,0,2,,,,,,,,,1,,,,76,100
96248,note_on,32,0,13,,,,,,,,,12,,,,59,0
96248,note_on,0,0,13,,,,,,,,,12,,,,62,112
96249,control_change,9,0,11,,,,,,,,,10,11,55,,,
96252,note_on,0,0,14,,,,,,,,,13,,,,50,112
96252,note_on,32,0,14,,,,,,,,,13,,,,47,0
96252,control_change,9,0,12,,,,,,,,,11,11,55,,,
96253,control_change,60,0,1,,,,,,,,,0,11,51,,,
96254,note_on,32,0,15,,,,,,,,,14,,,,35,0
96254,note_on,0,0,15,,,,,,,,,14,,,,38,112
96256,control_change,12,0,2,,,,,,,,,1,11,51,,,
96257,control_change,9,0,13,,,,,,,,,12,11,55,,,
96257,control_change,60,0,3,,,,,,,,,2,11,51,,,
96261,control_change,60,0,4,,,,,,,,,3,11,51,,,
96261,control_change,9,0,14,,,,,,,,,13,11,55,,,
96263,control_change,9,0,15,,,,,,,,,14,11,55,,,
96289,control_change,40,0,11,,,,,,,,,10,11,56,,,
96292,control_change,40,0,12,,,,,,,,,11,11,56,,,
96297,control_change,40,0,13,,,,,,,,,12,11,56,,,
96301,control_change,40,0,14,,,,,,,,,13,11,56,,,
96303,control_change,40,0,15,,,,,,,,,14,11,56,,,
96304,note_on,48,0,2,,,,,,,,,1,,,,76,0
96304,note_on,0,0,2,,,,,,,,,1,,,,74,100
96314,control_change,61,0,1,,,,,,,,,0,11,52,,,
96317,control_change,13,0,2,,,,,,,,,1,11,52,,,
96318,control_change,61,0,3,,,,,,,,,2,11,52,,,
96322,control_change,61,0,4,,,,,,,,,3,11,52,,,
96330,control_change,41,0,11,,,,,,,,,10,11,57,,,
96333,control_change,41,0,12,,,,,,,,,11,11,57,,,
96338,control_change,41,0,13,,,,,,,,,12,11,57,,,
96342,control_change,41,0,14,,,,,,,,,13,11,57,,,
96344,control_change,41,0,15,,,,,,,,,14,11,57,,,
96360,note_on,30,0,11,,,,,,,,,10,,,,62,0
96360,note_on,0,0,11,,,,,,,,,10,,,,66,112
96360,set_tempo,240,1,0,,,,,,288462,,,,,,,,
96363,note_on,30,0,12,,,,,,,,,11,,,,62,0
96363,note_on,0,0,12,,,,,,,,,11,,,,66,112
96364,note_on,0,0,2,,,,,,,,,1,,,,76,100
96364,note_on,47,0,2,,,,,,,,,1,,,,74,0
96368,note_on,30,0,13,,,,,,,,,12,,,,62,0
96368,note_on,0,0,13,,,,,,,,,12,,,,66,112
96371,control_change,11,0,11,,,,,,,,,10,11,57,,,
96372,note_on,30,0,14,,,,,,,,,13,,,,50,0
96372,note_on,0,0,14,,,,,,,,,13,,,,54,112
96374,note_on,30,0,15,,,,,,,,,14,,,,38,0
96374,note_on,0,0,15,,,,,,,,,14,,,,42,112
96374,control_change,11,0,12,,,,,,,,,11,11,57,,,
96375,control_change,61,0,1,,,,,,,,,0,11,52,,,
96378,control_change,14,0,2,,,,,,,,,1,11,52,,,
96379,control_change,61,0,3,,,,,,,,,2,11,52,,,
96379,control_change,11,0,13,,,,,,,,,12,11,57,,,
96383,control_change,11,0,14,,,,,,,,,13,11,57,,,
96383,control_change,61,0,4,,,,,,,,,3,11,53,,,
96385,control_change,11,0,15,,,,,,,,,14,11,57,,,
96411,control_change,40,0,11,,,,,,,,,10,11,58,,,
96414,control_change,40,0,12,,,,,,,,,11,11,58,,,
96419,control_change,40,0,13,,,,,,,,,12,11,58,,,
96423,control_change,40,0,14,,,,,,,,,13,11,58,,,
96424,note_on,0,0,2,,,,,,,,,1,,,,74,100
96424,note_on,46,0,2,,,,,,,,,1,,,,76,0
96425,control_change,40,0,15,,,,,,,,,14,11,58,,,
96436,control_change,61,0,1,,,,,,,,,0,11,53,,,
96439,control_change,15,0,2,,,,,,,,,1,11,53,,,
96440,control_change,61,0,3,,,,,,,,,2,11,53,,,
96444,control_change,61,0,4,,,,,,,,,3,11,54,,,
96452,control_change,41,0,11,,,,,,,,,10,11,59,,,
96455,control_change,41,0,12,,,,,,,,,11,11,59,,,
96460,control_change,41,0,13,,,,,,,,,12,11,59,,,
96464,control_change,41,0,14,,,,,,,,,13,11,59,,,
96466,control_change,41,0,15,,,,,,,,,14,11,59,,,
96480,note_on,0,0,11,,,,,,,,,10,,,,71,112
96480,set_tempo,120,1,0,,,,,,260870,,,,,,,,
96480,note_on,28,0,11,,,,,,,,,10,,,,66,0
96481,note_on,0,0,1,,,,,,,,,0,,,,83,0
96481,note_on,0,0,1,,,,,,,,,0,,,,86,116
96481,note_on,45,0,1,,,,,,,,,0,,,,86,0
96481,note_on,0,0,1,,,,,,,,,0,,,,83,116
96483,note_on,0,0,12,,,,,,,,,11,,,,71,112
96483,note_on,28,0,12,,,,,,,,,11,,,,66,0
96484,note_on,0,0,2,,,,,,,,,1,,,,83,0
96484,note_on,45,0,2,,,,,,,,,1,,,,74,0
96484,note_on,0,0,2,,,,,,,,,1,,,,74,100
96484,note_on,0,0,2,,,,,,,,,1,,,,83,100
96485,note_on,0,0,3,,,,,,,,,2,,,,78,101
96485,note_on,0,0,3,,,,,,,,,2,,,,74,0
96485,note_on,0,0,3,,,,,,,,,2,,,,74,101
96485,note_on,45,0,3,,,,,,,,,2,,,,78,0
96488,note_on,0,0,13,,,,,,,,,12,,,,71,112
96488,note_on,28,0,13,,,,,,,,,12,,,,66,0
96489,note_on,45,0,4,,,,,,,,,3,,,,66,0
96489,note_on,0,0,4,,,,,,,,,3,,,,59,115
96489,note_on,0,0,4,,,,,,,,,3,,,,66,115
96489,note_on,0,0,4,,,,,,,,,3,,,,59,0
96492,control_change,12,0,11,,,,,,,,,10,11,60,,,
96492,note_on,0,0,14,,,,,,,,,13,,,,59,112
96492,note_on,28,0,14,,,,,,,,,13,,,,54,0
96494,note_on,28,0,15,,,,,,,,,14,,,,42,0
96494,note_on,0,0,15,,,,,,,,,14,,,,47,112
96495,control_change,12,0,12,,,,,,,,,11,11,60,,,
96497,control_change,16,0,1,,,,,,,,,0,11,54,,,
96500,control_change,12,0,13,,,,,,,,,12,11,60,,,
96500,control_change,16,0,2,,,,,,,,,1,11,54,,,
96501,control_change,16,0,3,,,,,,,,,2,11,54,,,
96504,control_change,12,0,14,,,,,,,,,13,11,60,,,
96505,control_change,16,0,4,,,,,,,,,3,11,55,,,
96506,control_change,12,0,15,,,,,,,,,14,11,60,,,
96533,control_change,41,0,11,,,,,,,,,10,11,61,,,
96536,control_change,41,0,12,,,,,,,,,11,11,61,,,
96541,control_change,41,0,13,,,,,,,,,12,11,61,,,
96544,note_on,44,0,2,,,,,,,,,1,,,,74,0
96544,note_on,0,0,2,,,,,,,,,1,,,,83,0
96545,control_change,41,0,14,,,,,,,,,13,11,61,,,
96545,note_on,44,0,3,,,,,,,,,2,,,,78,0
96545,note_on,0,0,3,,,,,,,,,2,,,,74,0
96547,control_change,41,0,15,,,,,,,,,14,11,61,,,
96558,control_change,61,0,1,,,,,,,,,0,11,55,,,
96561,control_change,17,0,2,,,,,,,,,1,11,55,,,
96562,control_change,17,0,3,,,,,,,,,2,11,55,,,
96566,control_change,61,0,4,,,,,,,,,3,11,56,,,
96574,control_change,41,0,11,,,,,,,,,10,11,62,,,
96577,control_change,41,0,12,,,,,,,,,11,11,62,,,
96582,control_change,41,0,13,,,,,,,,,12,11,62,,,
96586,control_change,41,0,14,,,,,,,,,13,11,62,,,
96588,control_change,41,0,15,,,,,,,,,14,11,62,,,
96600,note_on,0,0,11,,,,,,,,,10,,,,74,112
96600,note_on,26,0,11,,,,,,,,,10,,,,71,0
96603,note_on,0,0,12,,,,,,,,,11,,,,74,112
96603,note_on,26,0,12,,,,,,,,,11,,,,71,0
96604,note_on,43,0,2,,,,,,,,,1,,,,83,100
96604,note_on,0,0,2,,,,,,,,,1,,,,74,100
96605,note_on,0,0,3,,,,,,,,,2,,,,78,101
96605,note_on,43,0,3,,,,,,,,,2,,,,74,101
96608,note_on,26,0,13,,,,,,,,,12,,,,71,0
96608,note_on,0,0,13,,,,,,,,,12,,,,74,112
96612,note_on,26,0,14,,,,,,,,,13,,,,59,0
96612,note_on,0,0,14,,,,,,,,,13,,,,62,112
96614,control_change,14,0,11,,,,,,,,,10,11,63,,,
96614,note_on,26,0,15,,,,,,,,,14,,,,47,0
96614,note_on,0,0,15,,,,,,,,,14,,,,50,112
96617,control_change,14,0,12,,,,,,,,,11,11,63,,,
96619,control_change,61,0,1,,,,,,,,,0,11,55,,,
96622,control_change,18,0,2,,,,,,,,,1,11,55,,,
96622,control_change,14,0,13,,,,,,,,,12,11,63,,,
96623,control_change,18,0,3,,,,,,,,,2,11,55,,,
96626,control_change,14,0,14,,,,,,,,,13,11,63,,,
96627,control_change,61,0,4,,,,,,,,,3,11,57,,,
96628,control_change,14,0,15,,,,,,,,,14,11,63,,,
96655,control_change,41,0,11,,,,,,,,,10,11,64,,,
96658,control_change,41,0,12,,,,,,,,,11,11,64,,,
96663,control_change,41,0,13,,,,,,,,,12,11,64,,,
96664,note_on,42,0,2,,,,,,,,,1,,,,74,0
96664,note_on,0,0,2,,,,,,,,,1,,,,83,0
96665,note_on,0,0,3,,,,,,,,,2,,,,74,0
96665,note_on,42,0,3,,,,,,,,,2,,,,78,0
96667,control_change,41,0,14,,,,,,,,,13,11,64,,,
96669,control_change,41,0,15,,,,,,,,,14,11,64,,,
96680,control_change,61,0,1,,,,,,,,,0,11,56,,,
96683,control_change,19,0,2,,,,,,,,,1,11,56,,,
96684,control_change,19,0,3,,,,,,,,,2,11,56,,,
96688,control_change,61,0,4,,,,,,,,,3,11,58,,,
96696,control_change,41,0,11,,,,,,,,,10,11,65,,,
96699,control_change,41,0,12,,,,,,,,,11,11,65,,,
96704,control_change,41,0,13,,,,,,,,,12,11,65,,,
96708,control_change,41,0,14,,,,,,,,,13,11,65,,,
96710,control_change,41,0,15,,,,,,,,,14,11,65,,,
96720,note_on,0,0,11,,,,,,,,,10,,,,78,112
96720,note_on,24,0,11,,,,,,,,,10,,,,74,0
96720,set_tempo,240,1,0,,,,,,300000,,,,,,,,
96723,note_on,24,0,12,,,,,,,,,11,,,,74,0
96723,note_on,0,0,12,,,,,,,,,11,,,,78,112
96724,note_on,41,0,2,,,,,,,,,1,,,,74,100
96724,note_on,0,0,2,,,,,,,,,1,,,,83,100
96725,note_on,0,0,3,,,,,,,,,2,,,,74,101
96725,note_on,41,0,3,,,,,,,,,2,,,,78,101
96728,note_on,0,0,13,,,,,,,,,12,,,,66,112
96728,note_on,24,0,13,,,,,,,,,12,,,,74,0
96732,note_on,0,0,14,,,,,,,,,13,,,,66,112
96732,note_on,24,0,14,,,,,,,,,13,,,,62,0
96734,note_on,24,0,15,,,,,,,,,14,,,,50,0
96734,note_on,0,0,15,,,,,,,,,14,,,,54,112
96736,control_change,16,0,11,,,,,,,,,10,11,66,,,
96739,control_change,16,0,12,,,,,,,,,11,11,66,,,
96741,control_change,61,0,1,,,,,,,,,0,11,57,,,
96744,control_change,16,0,13,,,,,,,,,12,11,66,,,
96744,control_change,20,0,2,,,,,,,,,1,11,57,,,
96745,control_change,20,0,3,,,,,,,,,2,11,57,,,
96748,control_change,16,0,14,,,,,,,,,13,11,66,,,
96749,control_change,61,0,4,,,,,,,,,3,11,59,,,
96750,control_change,16,0,15,,,,,,,,,14,11,66,,,
96777,control_change,41,0,11,,,,,,,,,10,11,67,,,
96780,control_change,41,0,12,,,,,,,,,11,11,67,,,
96784,note_on,40,0,2,,,,,,,,,1,,,,83,0
96784,note_on,0,0,2,,,,,,,,,1,,,,74,0
96785,control_change,41,0,13,,,,,,,,,12,11,67,,,
96785,note_on,0,0,3,,,,,,,,,2,,,,78,0
96785,note_on,40,0,3,,,,,,,,,2,,,,74,0
96789,control_change,41,0,14,,,,,,,,,13,11,67,,,
96791,control_change,41,0,15,,,,,,,,,14,11,67,,,
96802,control_change,61,0,1,,,,,,,,,0,11,58,,,
96805,control_change,21,0,2,,,,,,,,,1,11,58,,,
96806,control_change,21,0,3,,,,,,,,,2,11,58,,,
96810,control_change,61,0,4,,,,,,,,,3,11,60,,,
96817,control_change,40,0,11,,,,,,,,,10,11,68,,,
96820,control_change,40,0,12,,,,,,,,,11,11,68,,,
96825,control_change,40,0,13,,,,,,,,,12,11,68,,,
96829,control_change,40,0,14,,,,,,,,,13,11,68,,,
96830,note_on,13,0,11,,,,,,,,,10,,,,78,0
96831,control_change,40,0,15,,,,,,,,,14,11,68,,,
96833,note_on,13,0,12,,,,,,,,,11,,,,78,0
96838,note_on,13,0,13,,,,,,,,,12,,,,66,0
96840,note_on,10,0,11,,,,,,,,,10,,,,79,127
96840,set_tempo,120,1,0,,,,,,259179,,,,,,,,
96841,note_on,39,0,1,,,,,,,,,0,,,,86,0
96841,note_on,0,0,1,,,,,,,,,0,,,,83,116
96841,note_on,0,0,1,,,,,,,,,0,,,,83,0
96841,note_on,0,0,1,,,,,,,,,0,,,,86,101
96842,note_on,13,0,14,,,,,,,,,13,,,,66,0
96843,note_on,2941,0,5,,,,,,,,,4,,,,67,115
96843,note_on,10,0,12,,,,,,,,,11,,,,79,127
96843,control_change,0,0,5,,,,,,,,,4,11,82,,,
96844,control_change,0,0,6,,,,,,,,,5,11,82,,,
96844,note_on,0,0,2,,,,,,,,,1,,,,74,115
96844,note_on,39,0,2,,,,,,,,,1,,,,83,115
96844,note_on,13,0,15,,,,,,,,,14,,,,54,0
96844,note_on,2941,0,6,,,,,,,,,5,,,,55,115
96845,note_on,39,0,3,,,,,,,,,2,,,,74,101
96845,note_on,0,0,3,,,,,,,,,2,,,,71,116
96848,note_on,10,0,13,,,,,,,,,12,,,,67,127
96849,note_on,0,0,4,,,,,,,,,3,,,,59,115
96849,note_on,0,0,4,,,,,,,,,3,,,,62,115
96849,note_on,0,0,4,,,,,,,,,3,,,,59,0
96849,note_on,39,0,4,,,,,,,,,3,,,,66,0
96852,note_on,10,0,14,,,,,,,,,13,,,,67,127
96854,note_on,10,0,15,,,,,,,,,14,,,,55,127
96858,control_change,18,0,11,,,,,,,,,10,11,69,,,
96861,control_change,18,0,12,,,,,,,,,11,11,69,,,
96863,control_change,22,0,1,,,,,,,,,0,11,58,,,
96866,control_change,22,0,2,,,,,,,,,1,11,58,,,
96866,control_change,18,0,13,,,,,,,,,12,11,69,,,
96867,control_change,22,0,3,,,,,,,,,2,11,58,,,
96870,control_change,18,0,14,,,,,,,,,13,11,69,,,
96871,note_on,8,0,1,,,,,,,,,0,,,,86,0
96871,control_change,22,0,4,,,,,,,,,3,11,61,,,
96872,control_change,18,0,15,,,,,,,,,14,11,69,,,
96875,note_on,8,0,3,,,,,,,,,2,,,,74,0
96899,control_change,41,0,11,,,,,,,,,10,11,70,,,
96901,note_on,30,0,1,,,,,,,,,0,,,,86,101
96902,control_change,41,0,12,,,,,,,,,11,11,70,,,
96905,note_on,30,0,3,,,,,,,,,2,,,,74,101
96907,control_change,41,0,13,,,,,,,,,12,11,70,,,
96911,control_change,41,0,14,,,,,,,,,13,11,70,,,
96913,control_change,41,0,15,,,,,,,,,14,11,70,,,
96915,control_change,72,0,5,,,,,,,,,4,11,83,,,
96916,control_change,72,0,6,,,,,,,,,5,11,83,,,
96924,control_change,23,0,1,,,,,,,,,0,11,59,,,
96927,control_change,61,0,2,,,,,,,,,1,11,59,,,
96928,control_change,23,0,3,,,,,,,,,2,11,59,,,
96931,note_on,7,0,1,,,,,,,,,0,,,,86,0
96932,control_change,61,0,4,,,,,,,,,3,11,62,,,
96935,note_on,7,0,3,,,,,,,,,2,,,,74,0
96939,control_change,40,0,11,,,,,,,,,10,11,71,,,
96942,control_change,40,0,12,,,,,,,,,11,11,71,,,
96947,control_change,40,0,13,,,,,,,,,12,11,71,,,
96951,control_change,40,0,14,,,,,,,,,13,11,71,,,
96953,control_change,40,0,15,,,,,,,,,14,11,71,,,
96961,note_on,30,0,1,,,,,,,,,0,,,,88,101
96965,note_on,30,0,3,,,,,,,,,2,,,,76,101
96980,control_change,41,0,11,,,,,,,,,10,11,72,,,
96983,control_change,41,0,12,,,,,,,,,11,11,72,,,
96985,control_change,24,0,1,,,,,,,,,0,11,60,,,
96987,control_change,72,0,5,,,,,,,,,4,11,84,,,
96988,control_change,72,0,6,,,,,,,,,5,11,84,,,
96988,control_change,61,0,2,,,,,,,,,1,11,60,,,
96988,control_change,41,0,13,,,,,,,,,12,11,72,,,
96989,control_change,24,0,3,,,,,,,,,2,11,60,,,
96992,control_change,41,0,14,,,,,,,,,13,11,72,,,
96993,control_change,61,0,4,,,,,,,,,3,11,63,,,
96994,control_change,41,0,15,,,,,,,,,14,11,72,,,
97020,control_change,40,0,11,,,,,,,,,10,11,72,,,
97021,note_on,36,0,1,,,,,,,,,0,,,,88,0
97021,note_on,0,0,1,,,,,,,,,0,,,,86,101
97023,control_change,40,0,12,,,,,,,,,11,11,72,,,
97025,note_on,0,0,3,,,,,,,,,2,,,,74,101
97025,note_on,36,0,3,,,,,,,,,2,,,,76,0
97028,control_change,40,0,13,,,,,,,,,12,11,72,,,
97032,control_change,40,0,14,,,,,,,,,13,11,72,,,
97034,control_change,40,0,15,,,,,,,,,14,11,72,,,
97045,control_change,24,0,1,,,,,,,,,0,11,61,,,
97048,control_change,60,0,2,,,,,,,,,1,11,61,,,
97049,control_change,24,0,3,,,,,,,,,2,11,61,,,
97053,control_change,60,0,4,,,,,,,,,3,11,64,,,
97059,control_change,72,0,5,,,,,,,,,4,11,85,,,
97060,control_change,72,0,6,,,,,,,,,5,11,85,,,
97061,control_change,41,0,11,,,,,,,,,10,11,73,,,
97064,control_change,41,0,12,,,,,,,,,11,11,73,,,
97069,control_change,41,0,13,,,,,,,,,12,11,73,,,
97073,control_change,41,0,14,,,,,,,,,13,11,73,,,
97075,control_change,41,0,15,,,,,,,,,14,11,73,,,
97080,note_on,0,0,11,,,,,,,,,10,,,,74,112
97080,note_on,19,0,11,,,,,,,,,10,,,,79,0
97080,set_tempo,240,1,0,,,,,,285714,,,,,,,,
97081,note_on,36,0,1,,,,,,,,,0,,,,86,0
97081,note_on,0,0,1,,,,,,,,,0,,,,88,101
97083,note_on,0,0,12,,,,,,,,,11,,,,74,112
97083,note_on,19,0,12,,,,,,,,,11,,,,79,0
97085,note_on,0,0,3,,,,,,,,,2,,,,76,101
97085,note_on,36,0,3,,,,,,,,,2,,,,74,0
97088,note_on,0,0,13,,,,,,,,,12,,,,62,112
97088,note_on,19,0,13,,,,,,,,,12,,,,67,0
97092,note_on,0,0,14,,,,,,,,,13,,,,62,112
97092,note_on,19,0,14,,,,,,,,,13,,,,67,0
97094,note_on,0,0,15,,,,,,,,,14,,,,50,112
97094,note_on,19,0,15,,,,,,,,,14,,,,55,0
97102,control_change,22,0,11,,,,,,,,,10,11,74,,,
97105,control_change,22,0,12,,,,,,,,,11,11,74,,,
97106,control_change,25,0,1,,,,,,,,,0,11,61,,,
97109,control_change,61,0,2,,,,,,,,,1,11,61,,,
97110,control_change,25,0,3,,,,,,,,,2,11,61,,,
97110,control_change,22,0,13,,,,,,,,,12,11,74,,,
97114,control_change,61,0,4,,,,,,,,,3,11,65,,,
97114,control_change,22,0,14,,,,,,,,,13,11,74,,,
97116,control_change,22,0,15,,,,,,,,,14,11,74,,,
97131,control_change,72,0,5,,,,,,,,,4,11,86,,,
97132,control_change,72,0,6,,,,,,,,,5,11,86,,,
97141,note_on,0,0,1,,,,,,,,,0,,,,86,101
97141,note_on,35,0,1,,,,,,,,,0,,,,88,0
97142,control_change,40,0,11,,,,,,,,,10,11,75,,,
97145,control_change,40,0,12,,,,,,,,,11,11,75,,,
97145,note_on,0,0,3,,,,,,,,,2,,,,74,101
97145,note_on,35,0,3,,,,,,,,,2,,,,76,0
97150,control_change,40,0,13,,,,,,,,,12,11,75,,,
97154,control_change,40,0,14,,,,,,,,,13,11,75,,,
97156,control_change,40,0,15,,,,,,,,,14,11,75,,,
97167,control_change,26,0,1,,,,,,,,,0,11,62,,,
97170,control_change,61,0,2,,,,,,,,,1,11,62,,,
97171,control_change,26,0,3,,,,,,,,,2,11,62,,,
97175,control_change,61,0,4,,,,,,,,,3,11,66,,,
97183,control_change,41,0,11,,,,,,,,,10,11,76,,,
97186,control_change,41,0,12,,,,,,,,,11,11,76,,,
97190,note_on,7,0,11,,,,,,,,,10,,,,74,0
97191,control_change,41,0,13,,,,,,,,,12,11,76,,,
97193,note_on,62,0,5,,,,,,,,,4,,,,67,0
97193,note_on,7,0,12,,,,,,,,,11,,,,74,0
97194,note_on,62,0,6,,,,,,,,,5,,,,55,0
97195,control_change,41,0,14,,,,,,,,,13,11,76,,,
97197,control_change,41,0,15,,,,,,,,,14,11,76,,,
97198,note_on,7,0,13,,,,,,,,,12,,,,62,0
97200,set_tempo,120,1,0,,,,,,259179,,,,,,,,
97200,note_on,10,0,11,,,,,,,,,10,,,,71,112
97201,note_on,34,0,1,,,,,,,,,0,,,,86,0
97201,note_on,0,0,1,,,,,,,,,0,,,,86,101
97201,note_on,0,0,1,,,,,,,,,0,,,,83,101
97201,note_on,0,0,1,,,,,,,,,0,,,,83,0
97202,note_on,7,0,14,,,,,,,,,13,,,,62,0
97203,note_on,0,0,5,,,,,,,,,4,,,,67,115
97203,control_change,10,0,5,,,,,,,,,4,11,87,,,
97203,note_on,10,0,12,,,,,,,,,11,,,,71,112
97204,control_change,10,0,6,,,,,,,,,5,11,87,,,
97204,note_on,7,0,15,,,,,,,,,14,,,,50,0
97204,note_on,0,0,6,,,,,,,,,5,,,,55,115
97204,note_on,0,0,2,,,,,,,,,1,,,,74,115
97204,note_on,0,0,2,,,,,,,,,1,,,,83,0
97204,note_on,0,0,2,,,,,,,,,1,,,,83,115
97204,note_on,34,0,2,,,,,,,,,1,,,,74,0
97205,note_on,0,0,3,,,,,,,,,2,,,,74,101
97205,note_on,0,0,3,,,,,,,,,2,,,,71,0
97205,note_on,0,0,3,,,,,,,,,2,,,,71,101
97205,note_on,34,0,3,,,,,,,,,2,,,,74,0
97208,note_on,10,0,13,,,,,,,,,12,,,,59,112
97209,note_on,0,0,4,,,,,,,,,3,,,,59,115
97209,note_on,0,0,4,,,,,,,,,3,,,,59,0
97209,note_on,34,0,4,,,,,,,,,3,,,,62,0
97209,note_on,0,0,4,,,,,,,,,3,,,,62,115
97212,note_on,10,0,14,,,,,,,,,13,,,,59,112
97214,note_on,10,0,15,,,,,,,,,14,,,,47,112
97224,control_change,24,0,11,,,,,,,,,10,11,77,,,
97227,control_change,24,0,12,,,,,,,,,11,11,77,,,
97228,control_change,27,0,1,,,,,,,,,0,11,63,,,
97231,control_change,27,0,2,,,,,,,,,1,11,63,,,
97232,control_change,27,0,3,,,,,,,,,2,11,63,,,
97232,control_change,24,0,13,,,,,,,,,12,11,77,,,
97236,control_change,27,0,4,,,,,,,,,3,11,67,,,
97236,control_change,24,0,14,,,,,,,,,13,11,77,,,
97238,control_change,24,0,15,,,,,,,,,14,11,77,,,
97261,note_on,33,0,1,,,,,,,,,0,,,,83,0
97261,note_on,0,0,1,,,,,,,,,0,,,,86,0
97264,control_change,40,0,11,,,,,,,,,10,11,78,,,
97265,note_on,0,0,3,,,,,,,,,2,,,,71,0
97265,note_on,33,0,3,,,,,,,,,2,,,,74,0
97267,control_change,40,0,12,,,,,,,,,11,11,78,,,
97272,control_change,40,0,13,,,,,,,,,12,11,78,,,
97275,control_change,72,0,5,,,,,,,,,4,11,88,,,
97276,control_change,40,0,14,,,,,,,,,13,11,78,,,
97276,control_change,72,0,6,,,,,,,,,5,11,88,,,
97278,control_change,40,0,15,,,,,,,,,14,11,78,,,
97289,control_change,28,0,1,,,,,,,,,0,11,64,,,
97292,control_change,61,0,2,,,,,,,,,1,11,64,,,
97293,control_change,28,0,3,,,,,,,,,2,11,64,,,
97297,control_change,61,0,4,,,,,,,,,3,11,68,,,
97305,control_change,41,0,11,,,,,,,,,10,11,79,,,
97308,control_change,41,0,12,,,,,,,,,11,11,79,,,
97313,control_change,41,0,13,,,,,,,,,12,11,79,,,
97317,control_change,41,0,14,,,,,,,,,13,11,79,,,
97319,control_change,41,0,15,,,,,,,,,14,11,79,,,
97321,note_on,0,0,1,,,,,,,,,0,,,,83,101
97321,note_on,32,0,1,,,,,,,,,0,,,,86,101
97325,note_on,32,0,3,,,,,,,,,2,,,,74,101
97325,note_on,0,0,3,,,,,,,,,2,,,,71,101
97345,control_change,40,0,11,,,,,,,,,10,11,80,,,
97347,control_change,72,0,5,,,,,,,,,4,11,89,,,
97348,control_change,72,0,6,,,,,,,,,5,11,89,,,
97348,control_change,40,0,12,,,,,,,,,11,11,80,,,
97350,control_change,29,0,1,,,,,,,,,0,11,64,,,
97353,control_change,61,0,2,,,,,,,,,1,11,64,,,
97353,control_change,40,0,13,,,,,,,,,12,11,80,,,
97354,control_change,29,0,3,,,,,,,,,2,11,64,,,
97357,control_change,40,0,14,,,,,,,,,13,11,80,,,
97358,control_change,61,0,4,,,,,,,,,3,11,69,,,
97359,control_change,40,0,15,,,,,,,,,14,11,80,,,
97381,note_on,31,0,1,,,,,,,,,0,,,,83,0
97381,note_on,0,0,1,,,,,,,,,0,,,,86,0
97385,note_on,31,0,3,,,,,,,,,2,,,,71,0
97385,note_on,0,0,3,,,,,,,,,2,,,,74,0
97386,control_change,41,0,11,,,,,,,,,10,11,81,,,
97389,control_change,41,0,12,,,,,,,,,11,11,81,,,
97394,control_change,41,0,13,,,,,,,,,12,11,81,,,
97398,control_change,41,0,14,,,,,,,,,13,11,81,,,
97400,control_change,41,0,15,,,,,,,,,14,11,81,,,
97411,control_change,30,0,1,,,,,,,,,0,11,65,,,
97414,control_change,61,0,2,,,,,,,,,1,11,65,,,
97415,control_change,30,0,3,,,,,,,,,2,11,65,,,
97419,control_change,61,0,4,,,,,,,,,3,11,70,,,
97419,control_change,72,0,5,,,,,,,,,4,11,90,,,
97420,control_change,72,0,6,,,,,,,,,5,11,90,,,
97427,control_change,41,0,11,,,,,,,,,10,11,82,,,
97430,control_change,41,0,12,,,,,,,,,11,11,82,,,
97435,control_change,41,0,13,,,,,,,,,12,11,82,,,
97439,control_change,41,0,14,,,,,,,,,13,11,82,,,
97440,set_tempo,240,1,0,,,,,,285714,,,,,,,,
97440,note_on,13,0,11,,,,,,,,,10,,,,71,0
97440,note_on,0,0,11,,,,,,,,,10,,,,67,112
97441,control_change,41,0,15,,,,,,,,,14,11,82,,,
97441,note_on,0,0,1,,,,,,,,,0,,,,86,101
97441,note_on,30,0,1,,,,,,,,,0,,,,83,101
97443,note_on,13,0,12,,,,,,,,,11,,,,71,0
97443,note_on,0,0,12,,,,,,,,,11,,,,67,112
97445,note_on,30,0,3,,,,,,,,,2,,,,71,101
97445,note_on,0,0,3,,,,,,,,,2,,,,74,101
97448,note_on,13,0,13,,,,,,,,,12,,,,59,0
97448,note_on,0,0,13,,,,,,,,,12,,,,55,112
97452,note_on,13,0,14,,,,,,,,,13,,,,59,0
97452,note_on,0,0,14,,,,,,,,,13,,,,55,112
97454,note_on,0,0,15,,,,,,,,,14,,,,43,112
97454,note_on,13,0,15,,,,,,,,,14,,,,47,0
97467,control_change,27,0,11,,,,,,,,,10,11,83,,,
97470,control_change,27,0,12,,,,,,,,,11,11,83,,,
97472,control_change,31,0,1,,,,,,,,,0,11,66,,,
97475,control_change,61,0,2,,,,,,,,,1,11,66,,,
97475,control_change,27,0,13,,,,,,,,,12,11,83,,,
97476,control_change,31,0,3,,,,,,,,,2,11,66,,,
97479,control_change,27,0,14,,,,,,,,,13,11,83,,,
97480,control_change,61,0,4,,,,,,,,,3,11,71,,,
97481,control_change,27,0,15,,,,,,,,,14,11,83,,,
97491,control_change,72,0,5,,,,,,,,,4,11,91,,,
97492,control_change,72,0,6,,,,,,,,,5,11,91,,,
97501,note_on,0,0,1,,,,,,,,,0,,,,83,0
97501,note_on,29,0,1,,,,,,,,,0,,,,86,0
97505,note_on,29,0,3,,,,,,,,,2,,,,74,0
97505,note_on,0,0,3,,,,,,,,,2,,,,71,0
97508,control_change,41,0,11,,,,,,,,,10,11,84,,,
97511,control_change,41,0,12,,,,,,,,,11,11,84,,,
97516,control_change,41,0,13,,,,,,,,,12,11,84,,,
97520,control_change,41,0,14,,,,,,,,,13,11,84,,,
97522,control_change,41,0,15,,,,,,,,,14,11,84,,,
97533,control_change,32,0,1,,,,,,,,,0,11,67,,,
97536,control_change,61,0,2,,,,,,,,,1,11,67,,,
97537,control_change,32,0,3,,,,,,,,,2,11,67,,,
97541,control_change,61,0,4,,,,,,,,,3,11,72,,,
97548,control_change,40,0,11,,,,,,,,,10,11,85,,,
97550,note_on,2,0,11,,,,,,,,,10,,,,67,0
97551,control_change,40,0,12,,,,,,,,,11,11,85,,,
97553,note_on,2,0,12,,,,,,,,,11,,,,67,0
97553,note_on,62,0,5,,,,,,,,,4,,,,67,0
97554,note_on,62,0,6,,,,,,,,,5,,,,55,0
97556,control_change,40,0,13,,,,,,,,,12,11,85,,,
97558,note_on,2,0,13,,,,,,,,,12,,,,55,0
97560,set_tempo,120,1,0,,,,,,259179,,,,,,,,
97560,control_change,40,0,14,,,,,,,,,13,11,85,,,
97560,note_on,10,0,11,,,,,,,,,10,,,,64,127
97561,note_on,0,0,1,,,,,,,,,0,,,,91,101
97561,note_on,28,0,1,,,,,,,,,0,,,,88,116
97562,note_on,2,0,14,,,,,,,,,13,,,,55,0
97562,control_change,40,0,15,,,,,,,,,14,11,85,,,
97563,note_on,10,0,12,,,,,,,,,11,,,,64,127
97563,note_on,10,0,5,,,,,,,,,4,,,,64,100
97563,control_change,0,0,5,,,,,,,,,4,11,92,,,
97564,control_change,10,0,6,,,,,,,,,5,11,92,,,
97564,note_on,28,0,2,,,,,,,,,1,,,,83,0
97564,note_on,0,0,2,,,,,,,,,1,,,,74,0
97564,note_on,0,0,2,,,,,,,,,1,,,,83,115
97564,note_on,0,0,2,,,,,,,,,1,,,,79,100
97564,note_on,2,0,15,,,,,,,,,14,,,,43,0
97564,note_on,0,0,6,,,,,,,,,5,,,,64,100
97565,note_on,28,0,3,,,,,,,,,2,,,,79,101
97565,note_on,0,0,3,,,,,,,,,2,,,,71,116
97568,note_on,10,0,13,,,,,,,,,12,,,,64,127
97569,note_on,28,0,4,,,,,,,,,3,,,,62,0
97569,note_on,0,0,4,,,,,,,,,3,,,,59,115
97569,note_on,0,0,4,,,,,,,,,3,,,,67,115
97569,note_on,0,0,4,,,,,,,,,3,,,,59,0
97572,note_on,10,0,14,,,,,,,,,13,,,,64,127
97574,note_on,10,0,15,,,,,,,,,14,,,,52,127
97589,control_change,29,0,11,,,,,,,,,10,11,86,,,
97591,note_on,30,0,1,,,,,,,,,0,,,,91,0
97592,control_change,29,0,12,,,,,,,,,11,11,86,,,
97594,control_change,3,0,1,,,,,,,,,0,11,67,,,
97594,note_on,30,0,2,,,,,,,,,1,,,,79,0
97595,note_on,30,0,3,,,,,,,,,2,,,,79,0
97597,control_change,29,0,13,,,,,,,,,12,11,86,,,
97597,control_change,3,0,2,,,,,,,,,1,11,67,,,
97598,control_change,3,0,3,,,,,,,,,2,11,67,,,
97601,control_change,29,0,14,,,,,,,,,13,11,86,,,
97602,control_change,33,0,4,,,,,,,,,3,11,73,,,
97603,control_change,29,0,15,,,,,,,,,14,11,86,,,
97621,note_on,27,0,1,,,,,,,,,0,,,,91,101
97624,note_on,27,0,2,,,,,,,,,1,,,,79,100
97625,note_on,27,0,3,,,,,,,,,2,,,,79,101
97630,control_change,41,0,11,,,,,,,,,10,11,87,,,
97633,control_change,41,0,12,,,,,,,,,11,11,87,,,
97635,control_change,72,0,5,,,,,,,,,4,11,93,,,
97636,control_change,72,0,6,,,,,,,,,5,11,93,,,
97638,control_change,41,0,13,,,,,,,,,12,11,87,,,
97642,control_change,41,0,14,,,,,,,,,13,11,87,,,
97644,control_change,41,0,15,,,,,,,,,14,11,87,,,
97651,note_on,30,0,1,,,,,,,,,0,,,,91,0
97655,note_on,30,0,3,,,,,,,,,2,,,,79,0
97655,control_change,4,0,1,,,,,,,,,0,11,68,,,
97658,control_change,34,0,2,,,,,,,,,1,11,68,,,
97659,control_change,4,0,3,,,,,,,,,2,11,68,,,
97663,control_change,61,0,4,,,,,,,,,3,11,74,,,
97670,control_change,40,0,11,,,,,,,,,10,11,87,,,
97673,control_change,40,0,12,,,,,,,,,11,11,87,,,
97678,control_change,40,0,13,,,,,,,,,12,11,87,,,
97681,note_on,26,0,1,,,,,,,,,0,,,,93,101
97682,control_change,40,0,14,,,,,,,,,13,11,87,,,
97684,control_change,40,0,15,,,,,,,,,14,11,87,,,
97684,note_on,26,0,2,,,,,,,,,1,,,,79,0
97684,note_on,0,0,2,,,,,,,,,1,,,,81,100
97685,note_on,26,0,3,,,,,,,,,2,,,,81,101
97707,control_change,72,0,5,,,,,,,,,4,11,94,,,
97708,control_change,72,0,6,,,,,,,,,5,11,94,,,
97711,control_change,41,0,11,,,,,,,,,10,11,88,,,
97714,control_change,41,0,12,,,,,,,,,11,11,88,,,
97716,control_change,35,0,1,,,,,,,,,0,11,69,,,
97719,control_change,35,0,2,,,,,,,,,1,11,69,,,
97719,control_change,41,0,13,,,,,,,,,12,11,88,,,
97720,control_change,35,0,3,,,,,,,,,2,11,69,,,
97723,control_change,41,0,14,,,,,,,,,13,11,88,,,
97724,control_change,61,0,4,,,,,,,,,3,11,75,,,
97725,control_change,41,0,15,,,,,,,,,14,11,88,,,
97741,note_on,0,0,1,,,,,,,,,0,,,,91,101
97741,note_on,25,0,1,,,,,,,,,0,,,,93,0
97744,note_on,25,0,2,,,,,,,,,1,,,,81,0
97744,note_on,0,0,2,,,,,,,,,1,,,,79,100
97745,note_on,0,0,3,,,,,,,,,2,,,,79,101
97745,note_on,25,0,3,,,,,,,,,2,,,,81,0
97752,control_change,41,0,11,,,,,,,,,10,11,89,,,
97755,control_change,41,0,12,,,,,,,,,11,11,89,,,
97760,control_change,41,0,13,,,,,,,,,12,11,89,,,
97764,control_change,41,0,14,,,,,,,,,13,11,89,,,
97766,control_change,41,0,15,,,,,,,,,14,11,89,,,
97777,control_change,36,0,1,,,,,,,,,0,11,70,,,
97779,control_change,72,0,5,,,,,,,,,4,11,95,,,
97780,control_change,36,0,2,,,,,,,,,1,11,70,,,
97780,control_change,72,0,6,,,,,,,,,5,11,95,,,
97781,control_change,36,0,3,,,,,,,,,2,11,70,,,
97785,control_change,61,0,4,,,,,,,,,3,11,76,,,
97792,control_change,40,0,11,,,,,,,,,10,11,90,,,
97795,control_change,40,0,12,,,,,,,,,11,11,90,,,
97800,note_on,0,0,11,,,,,,,,,10,,,,71,112
97800,note_on,8,0,11,,,,,,,,,10,,,,64,0
97800,control_change,40,0,13,,,,,,,,,12,11,90,,,
97800,set_tempo,240,1,0,,,,,,285714,,,,,,,,
97801,note_on,0,0,1,,,,,,,,,0,,,,93,101
97801,note_on,24,0,1,,,,,,,,,0,,,,91,0
97803,note_on,0,0,12,,,,,,,,,11,,,,71,112
97803,note_on,8,0,12,,,,,,,,,11,,,,64,0
97804,note_on,0,0,2,,,,,,,,,1,,,,81,100
97804,note_on,24,0,2,,,,,,,,,1,,,,79,0
97804,control_change,40,0,14,,,,,,,,,13,11,90,,,
97805,note_on,24,0,3,,,,,,,,,2,,,,79,0
97805,note_on,0,0,3,,,,,,,,,2,,,,81,101
97806,control_change,40,0,15,,,,,,,,,14,11,90,,,
97807,program_change,7,0,13,,,,,,,,48,12,,,,,
97808,note_on,0,0,13,,,,,,,,,12,,,,59,112
97808,note_on,1,0,13,,,,,,,,,12,,,,64,0
97812,note_on,0,0,14,,,,,,,,,13,,,,59,112
97812,note_on,8,0,14,,,,,,,,,13,,,,64,0
97814,note_on,0,0,15,,,,,,,,,14,,,,47,112
97814,note_on,8,0,15,,,,,,,,,14,,,,52,0
97833,control_change,33,0,11,,,,,,,,,10,11,91,,,
97836,control_change,33,0,12,,,,,,,,,11,11,91,,,
97837,control_change,36,0,1,,,,,,,,,0,11,70,,,
97840,control_change,36,0,2,,,,,,,,,1,11,70,,,
97841,control_change,36,0,3,,,,,,,,,2,11,70,,,
97841,control_change,33,0,13,,,,,,,,,12,11,91,,,
97845,control_change,60,0,4,,,,,,,,,3,11,77,,,
97845,control_change,33,0,14,,,,,,,,,13,11,91,,,
97847,control_change,33,0,15,,,,,,,,,14,11,91,,,
97851,control_change,72,0,5,,,,,,,,,4,11,96,,,
97852,control_change,72,0,6,,,,,,,,,5,11,96,,,
97861,note_on,24,0,1,,,,,,,,,0,,,,93,0
97861,note_on,0,0,1,,,,,,,,,0,,,,91,101
97864,note_on,0,0,2,,,,,,,,,1,,,,79,100
97864,note_on,24,0,2,,,,,,,,,1,,,,81,0
97865,note_on,24,0,3,,,,,,,,,2,,,,81,0
97865,note_on,0,0,3,,,,,,,,,2,,,,79,101
97873,control_change,40,0,11,,,,,,,,,10,11,92,,,
97876,control_change,40,0,12,,,,,,,,,11,11,92,,,
97881,control_change,40,0,13,,,,,,,,,12,11,92,,,
97885,control_change,40,0,14,,,,,,,,,13,11,92,,,
97887,control_change,40,0,15,,,,,,,,,14,11,92,,,
97898,control_change,37,0,1,,,,,,,,,0,11,71,,,
97901,control_change,37,0,2,,,,,,,,,1,11,71,,,
97902,control_change,37,0,3,,,,,,,,,2,11,71,,,
97906,control_change,61,0,4,,,,,,,,,3,11,78,,,
97910,note_on,37,0,11,,,,,,,,,10,,,,71,0
97913,note_on,62,0,5,,,,,,,,,4,,,,64,0
97913,note_on,37,0,12,,,,,,,,,11,,,,71,0
97914,control_change,4,0,11,,,,,,,,,10,11,93,,,
97914,note_on,62,0,6,,,,,,,,,5,,,,64,0
97917,control_change,4,0,12,,,,,,,,,11,11,93,,,
97918,note_on,37,0,13,,,,,,,,,12,,,,59,0
97920,set_tempo,120,1,0,,,,,,259179,,,,,,,,
97920,note_on,6,0,11,,,,,,,,,10,,,,67,112
97921,note_on,0,0,1,,,,,,,,,0,,,,88,101
97921,note_on,23,0,1,,,,,,,,,0,,,,91,0
97921,note_on,0,0,1,,,,,,,,,0,,,,88,0
97921,note_on,0,0,1,,,,,,,,,0,,,,91,101
97922,control_change,4,0,13,,,,,,,,,12,11,93,,,
97922,note_on,37,0,14,,,,,,,,,13,,,,59,0
97923,note_on,10,0,5,,,,,,,,,4,,,,64,100
97923,note_on,6,0,12,,,,,,,,,11,,,,67,112
97923,control_change,0,0,5,,,,,,,,,4,11,97,,,
97924,note_on,37,0,15,,,,,,,,,14,,,,47,0
97924,note_on,0,0,2,,,,,,,,,1,,,,83,100
97924,note_on,0,0,6,,,,,,,,,5,,,,64,100
97924,note_on,0,0,2,,,,,,,,,1,,,,83,0
97924,control_change,10,0,6,,,,,,,,,5,11,97,,,
97924,note_on,0,0,2,,,,,,,,,1,,,,79,100
97924,note_on,23,0,2,,,,,,,,,1,,,,79,0
97925,note_on,0,0,3,,,,,,,,,2,,,,71,101
97925,note_on,23,0,3,,,,,,,,,2,,,,79,0
97925,note_on,0,0,3,,,,,,,,,2,,,,71,0
97925,note_on,0,0,3,,,,,,,,,2,,,,79,101
97926,control_change,4,0,14,,,,,,,,,13,11,93,,,
97928,note_on,6,0,13,,,,,,,,,12,,,,55,112
97928,control_change,4,0,15,,,,,,,,,14,11,93,,,
97929,note_on,0,0,4,,,,,,,,,3,,,,59,100
97929,note_on,0,0,4,,,,,,,,,3,,,,67,100
97929,note_on,0,0,4,,,,,,,,,3,,,,59,0
97929,note_on,23,0,4,,,,,,,,,3,,,,67,0
97932,note_on,6,0,14,,,,,,,,,13,,,,55,112
97934,note_on,6,0,15,,,,,,,,,14,,,,43,112
97955,control_change,35,0,11,,,,,,,,,10,11,94,,,
97958,control_change,35,0,12,,,,,,,,,11,11,94,,,
97959,control_change,38,0,1,,,,,,,,,0,11,72,,,
97962,control_change,38,0,2,,,,,,,,,1,11,72,,,
97963,control_change,35,0,13,,,,,,,,,12,11,94,,,
97963,control_change,38,0,3,,,,,,,,,2,11,72,,,
97967,control_change,38,0,4,,,,,,,,,3,11,79,,,
97967,control_change,35,0,14,,,,,,,,,13,11,94,,,
97969,control_change,35,0,15,,,,,,,,,14,11,94,,,
97981,note_on,0,0,1,,,,,,,,,0,,,,91,0
97981,note_on,22,0,1,,,,,,,,,0,,,,88,0
97984,note_on,22,0,2,,,,,,,,,1,,,,79,0
97984,note_on,0,0,2,,,,,,,,,1,,,,83,0
97985,note_on,0,0,3,,,,,,,,,2,,,,71,0
97985,note_on,22,0,3,,,,,,,,,2,,,,79,0
97989,note_on,22,0,4,,,,,,,,,3,,,,59,0
97989,note_on,0,0,4,,,,,,,,,3,,,,67,0
97995,control_change,72,0,5,,,,,,,,,4,11,98,,,
97995,control_change,40,0,11,,,,,,,,,10,11,95,,,
97996,control_change,72,0,6,,,,,,,,,5,11,98,,,
97998,control_change,40,0,12,,,,,,,,,11,11,95,,,
98003,control_change,40,0,13,,,,,,,,,12,11,95,,,
98007,control_change,40,0,14,,,,,,,,,13,11,95,,,
98009,control_change,40,0,15,,,,,,,,,14,11,95,,,
98020,control_change,39,0,1,,,,,,,,,0,11,73,,,
98023,control_change,39,0,2,,,,,,,,,1,11,73,,,
98024,control_change,39,0,3,,,,,,,,,2,11,73,,,
98028,control_change,39,0,4,,,,,,,,,3,11,80,,,
98033,note_on,38,0,5,,,,,,,,,4,,,,64,0
98034,note_on,38,0,6,,,,,,,,,5,,,,64,0
98036,control_change,41,0,11,,,,,,,,,10,11,96,,,
98039,control_change,41,0,12,,,,,,,,,11,11,96,,,
98041,note_on,0,0,1,,,,,,,,,0,,,,88,101
98041,note_on,21,0,1,,,,,,,,,0,,,,91,101
98043,note_on,10,0,5,,,,,,,,,4,,,,64,100
98044,control_change,41,0,13,,,,,,,,,12,11,96,,,
98044,note_on,10,0,6,,,,,,,,,5,,,,64,100
98044,note_on,0,0,2,,,,,,,,,1,,,,79,100
98044,note_on,21,0,2,,,,,,,,,1,,,,83,100
98045,note_on,0,0,3,,,,,,,,,2,,,,71,101
98045,note_on,21,0,3,,,,,,,,,2,,,,79,101
98048,control_change,41,0,14,,,,,,,,,13,11,96,,,
98049,note_on,21,0,4,,,,,,,,,3,,,,67,100
98049,note_on,0,0,4,,,,,,,,,3,,,,59,100
98050,control_change,41,0,15,,,,,,,,,14,11,96,,,
98067,control_change,24,0,5,,,,,,,,,4,11,99,,,
98068,control_change,24,0,6,,,,,,,,,5,11,99,,,
98076,control_change,40,0,11,,,,,,,,,10,11,97,,,
98079,control_change,40,0,12,,,,,,,,,11,11,97,,,
98081,control_change,40,0,1,,,,,,,,,0,11,73,,,
98084,control_change,40,0,13,,,,,,,,,12,11,97,,,
98084,control_change,40,0,2,,,,,,,,,1,11,73,,,
98085,control_change,40,0,3,,,,,,,,,2,11,73,,,
98088,control_change,40,0,14,,,,,,,,,13,11,97,,,
98089,control_change,40,0,4,,,,,,,,,3,11,81,,,
98090,control_change,40,0,15,,,,,,,,,14,11,97,,,
98101,note_on,20,0,1,,,,,,,,,0,,,,88,0
98101,note_on,0,0,1,,,,,,,,,0,,,,91,0
98104,note_on,0,0,2,,,,,,,,,1,,,,83,0
98104,note_on,20,0,2,,,,,,,,,1,,,,79,0
98105,note_on,20,0,3,,,,,,,,,2,,,,71,0
98105,note_on,0,0,3,,,,,,,,,2,,,,79,0
98109,note_on,0,0,4,,,,,,,,,3,,,,67,0
98109,note_on,20,0,4,,,,,,,,,3,,,,59,0
98117,control_change,41,0,11,,,,,,,,,10,11,98,,,
98120,control_change,41,0,12,,,,,,,,,11,11,98,,,
98125,control_change,41,0,13,,,,,,,,,12,11,98,,,
98129,control_change,41,0,14,,,,,,,,,13,11,98,,,
98131,control_change,41,0,15,,,,,,,,,14,11,98,,,
98139,control_change,72,0,5,,,,,,,,,4,11,100,,,
98140,control_change,72,0,6,,,,,,,,,5,11,100,,,
98142,control_change,41,0,1,,,,,,,,,0,11,74,,,
98145,control_change,41,0,2,,,,,,,,,1,11,74,,,
98146,control_change,41,0,3,,,,,,,,,2,11,74,,,
98150,control_change,41,0,4,,,,,,,,,3,11,82,,,
98153,note_on,14,0,5,,,,,,,,,4,,,,64,0
98154,note_on,14,0,6,,,,,,,,,5,,,,64,0
98158,control_change,41,0,11,,,,,,,,,10,11,99,,,
98160,set_tempo,240,1,0,,,,,,285714,,,,,,,,
98160,note_on,2,0,11,,,,,,,,,10,,,,67,0
98160,note_on,0,0,11,,,,,,,,,10,,,,64,112
98161,note_on,19,0,1,,,,,,,,,0,,,,91,101
98161,note_on,0,0,1,,,,,,,,,0,,,,88,101
98161,control_change,41,0,12,,,,,,,,,11,11,99,,,
98163,note_on,0,0,12,,,,,,,,,11,,,,64,112
98163,note_on,2,0,12,,,,,,,,,11,,,,67,0
98163,note_on,10,0,5,,,,,,,,,4,,,,64,100
98164,note_on,10,0,6,,,,,,,,,5,,,,64,100
98164,note_on,19,0,2,,,,,,,,,1,,,,79,100
98164,note_on,0,0,2,,,,,,,,,1,,,,83,100
98165,note_on,19,0,3,,,,,,,,,2,,,,71,101
98165,note_on,0,0,3,,,,,,,,,2,,,,79,101
98166,control_change,41,0,13,,,,,,,,,12,11,99,,,
98168,note_on,0,0,13,,,,,,,,,12,,,,52,112
98168,note_on,2,0,13,,,,,,,,,12,,,,55,0
98169,note_on,0,0,4,,,,,,,,,3,,,,67,100
98169,note_on,19,0,4,,,,,,,,,3,,,,59,100
98170,control_change,41,0,14,,,,,,,,,13,11,99,,,
98172,control_change,41,0,15,,,,,,,,,14,11,99,,,
98172,note_on,2,0,14,,,,,,,,,13,,,,55,0
98172,note_on,0,0,14,,,,,,,,,13,,,,52,112
98174,note_on,2,0,15,,,,,,,,,14,,,,43,0
98174,note_on,0,0,15,,,,,,,,,14,,,,40,112
98198,control_change,38,0,11,,,,,,,,,10,11,100,,,
98201,control_change,38,0,12,,,,,,,,,11,11,100,,,
98203,control_change,42,0,1,,,,,,,,,0,11,75,,,
98206,control_change,38,0,13,,,,,,,,,12,11,100,,,
98206,control_change,42,0,2,,,,,,,,,1,11,75,,,
98207,control_change,42,0,3,,,,,,,,,2,11,75,,,
98210,control_change,38,0,14,,,,,,,,,13,11,100,,,
98211,control_change,48,0,5,,,,,,,,,4,11,101,,,
98211,control_change,42,0,4,,,,,,,,,3,11,83,,,
98212,control_change,38,0,15,,,,,,,,,14,11,100,,,
98212,control_change,48,0,6,,,,,,,,,5,11,101,,,
98221,note_on,0,0,1,,,,,,,,,0,,,,91,0
98221,note_on,18,0,1,,,,,,,,,0,,,,88,0
98224,note_on,0,0,2,,,,,,,,,1,,,,79,0
98224,note_on,18,0,2,,,,,,,,,1,,,,83,0
98225,note_on,0,0,3,,,,,,,,,2,,,,71,0
98225,note_on,18,0,3,,,,,,,,,2,,,,79,0
98229,note_on,0,0,4,,,,,,,,,3,,,,59,0
98229,note_on,18,0,4,,,,,,,,,3,,,,67,0
98239,control_change,41,0,11,,,,,,,,,10,11,101,,,
98242,control_change,41,0,12,,,,,,,,,11,11,101,,,
98247,control_change,41,0,13,,,,,,,,,12,11,101,,,
98251,control_change,41,0,14,,,,,,,,,13,11,101,,,
98253,control_change,41,0,15,,,,,,,,,14,11,101,,,
98264,control_change,43,0,1,,,,,,,,,0,11,76,,,
98267,control_change,43,0,2,,,,,,,,,1,11,76,,,
98268,control_change,43,0,3,,,,,,,,,2,11,76,,,
98270,note_on,31,0,11,,,,,,,,,10,,,,64,0
98272,control_change,43,0,4,,,,,,,,,3,11,84,,,
98273,note_on,31,0,12,,,,,,,,,11,,,,64,0
98273,note_on,62,0,5,,,,,,,,,4,,,,64,0
98274,note_on,62,0,6,,,,,,,,,5,,,,64,0
98278,note_on,31,0,13,,,,,,,,,12,,,,52,0
98280,note_on,0,0,11,,,,,,,,,10,,,,60,112
98280,set_tempo,120,1,0,,,,,,254237,,,,,,,,
98280,control_change,10,0,11,,,,,,,,,10,11,102,,,
98281,note_on,17,0,1,,,,,,,,,0,,,,91,101
98281,note_on,0,0,1,,,,,,,,,0,,,,88,101
98282,note_on,8520,0,7,,,,,,,,,6,,,,72,112
98282,note_on,31,0,14,,,,,,,,,13,,,,52,0
98282,control_change,0,0,7,,,,,,,,,6,11,102,,,
98282,note_on,0,0,7,,,,,,,,,6,,,,60,112
98283,note_on,10,0,5,,,,,,,,,4,,,,64,100
98283,note_on,10,0,12,,,,,,,,,11,,,,60,112
98283,control_change,0,0,12,,,,,,,,,11,11,102,,,
98283,control_change,0,0,5,,,,,,,,,4,11,102,,,
98284,note_on,31,0,15,,,,,,,,,14,,,,40,0
98284,note_on,17,0,2,,,,,,,,,1,,,,79,100
98284,note_on,0,0,2,,,,,,,,,1,,,,82,100
98284,note_on,10,0,6,,,,,,,,,5,,,,60,100
98284,control_change,0,0,6,,,,,,,,,5,11,102,,,
98285,note_on,0,0,3,,,,,,,,,2,,,,76,101
98285,note_on,17,0,3,,,,,,,,,2,,,,70,101
98287,note_on,8520,0,8,,,,,,,,,7,,,,64,110
98287,control_change,0,0,8,,,,,,,,,7,11,102,,,
98287,note_on,0,0,8,,,,,,,,,7,,,,55,110
98288,note_on,0,0,13,,,,,,,,,12,,,,48,112
98288,control_change,10,0,13,,,,,,,,,12,11,102,,,
98289,note_on,17,0,4,,,,,,,,,3,,,,58,100
98289,note_on,0,0,4,,,,,,,,,3,,,,67,100
98292,control_change,0,0,14,,,,,,,,,13,11,102,,,
98292,note_on,10,0,14,,,,,,,,,13,,,,48,112
98293,control_change,0,0,9,,,,,,,,,8,11,102,,,
98293,note_on,8520,0,9,,,,,,,,,8,,,,48,110
98294,note_on,0,0,15,,,,,,,,,14,,,,36,112
98294,control_change,10,0,15,,,,,,,,,14,11,102,,,
98295,note_on,8520,0,10,,,,,,,,,15,,,,48,100
98310,note_on,30,0,11,,,,,,,,,10,,,,60,0
98313,note_on,30,0,12,,,,,,,,,11,,,,60,0
98318,note_on,30,0,13,,,,,,,,,12,,,,48,0
98322,note_on,30,0,14,,,,,,,,,13,,,,48,0
98324,note_on,30,0,15,,,,,,,,,14,,,,36,0
98325,control_change,44,0,1,,,,,,,,,0,11,76,,,
98328,control_change,44,0,2,,,,,,,,,1,11,76,,,
98329,control_change,44,0,3,,,,,,,,,2,11,76,,,
98333,control_change,44,0,4,,,,,,,,,3,11,85,,,
98340,note_on,30,0,11,,,,,,,,,10,,,,60,112
98343,note_on,30,0,12,,,,,,,,,11,,,,60,112
98348,note_on,30,0,13,,,,,,,,,12,,,,48,112
98352,note_on,30,0,14,,,,,,,,,13,,,,48,112
98354,note_on,30,0,15,,,,,,,,,14,,,,36,112
98370,note_on,30,0,11,,,,,,,,,10,,,,60,0
98373,note_on,30,0,12,,,,,,,,,11,,,,60,0
98378,note_on,30,0,13,,,,,,,,,12,,,,48,0
98382,note_on,30,0,14,,,,,,,,,13,,,,48,0
98384,note_on,30,0,15,,,,,,,,,14,,,,36,0
98386,control_change,61,0,1,,,,,,,,,0,11,77,,,
98389,control_change,61,0,2,,,,,,,,,1,11,77,,,
98390,control_change,61,0,3,,,,,,,,,2,11,77,,,
98394,control_change,61,0,4,,,,,,,,,3,11,86,,,
98400,note_on,30,0,11,,,,,,,,,10,,,,62,112
98400,set_tempo,120,1,0,,,,,,263158,,,,,,,,
98402,note_on,0,0,7,,,,,,,,,6,,,,72,0
98402,note_on,120,0,7,,,,,,,,,6,,,,60,0
98403,note_on,30,0,12,,,,,,,,,11,,,,62,112
98408,note_on,30,0,13,,,,,,,,,12,,,,50,112
98412,note_on,30,0,14,,,,,,,,,13,,,,50,112
98414,note_on,30,0,15,,,,,,,,,14,,,,38,112
98415,note_on,120,0,10,,,,,,,,,15,,,,48,0
98430,note_on,30,0,11,,,,,,,,,10,,,,62,0
98433,note_on,30,0,12,,,,,,,,,11,,,,62,0
98438,note_on,30,0,13,,,,,,,,,12,,,,50,0
98442,note_on,30,0,14,,,,,,,,,13,,,,50,0
98444,note_on,30,0,15,,,,,,,,,14,,,,38,0
98447,control_change,61,0,1,,,,,,,,,0,11,78,,,
98450,control_change,61,0,2,,,,,,,,,1,11,78,,,
98451,control_change,61,0,3,,,,,,,,,2,11,78,,,
98455,control_change,61,0,4,,,,,,,,,3,11,87,,,
98460,note_on,30,0,11,,,,,,,,,10,,,,60,112
98463,note_on,30,0,12,,,,,,,,,11,,,,60,112
98468,note_on,30,0,13,,,,,,,,,12,,,,48,112
98472,note_on,30,0,14,,,,,,,,,13,,,,48,112
98474,note_on,30,0,15,,,,,,,,,14,,,,36,112
98490,note_on,30,0,11,,,,,,,,,10,,,,60,0
98493,note_on,30,0,12,,,,,,,,,11,,,,60,0
98498,note_on,30,0,13,,,,,,,,,12,,,,48,0
98502,note_on,30,0,14,,,,,,,,,13,,,,48,0
98504,note_on,30,0,15,,,,,,,,,14,,,,36,0
98508,control_change,61,0,1,,,,,,,,,0,11,79,,,
98511,control_change,61,0,2,,,,,,,,,1,11,79,,,
98512,control_change,61,0,3,,,,,,,,,2,11,79,,,
98516,control_change,61,0,4,,,,,,,,,3,11,88,,,
98520,note_on,30,0,11,,,,,,,,,10,,,,62,112
98520,set_tempo,120,1,0,,,,,,288462,,,,,,,,
98523,note_on,30,0,12,,,,,,,,,11,,,,62,112
98528,note_on,30,0,13,,,,,,,,,12,,,,50,112
98532,note_on,30,0,14,,,,,,,,,13,,,,50,112
98534,note_on,30,0,15,,,,,,,,,14,,,,38,112
98550,note_on,30,0,11,,,,,,,,,10,,,,62,0
98553,note_on,30,0,12,,,,,,,,,11,,,,62,0
98558,note_on,30,0,13,,,,,,,,,12,,,,50,0
98562,note_on,30,0,14,,,,,,,,,13,,,,50,0
98564,note_on,30,0,15,,,,,,,,,14,,,,38,0
98569,control_change,61,0,1,,,,,,,,,0,11,80,,,
98572,control_change,61,0,2,,,,,,,,,1,11,80,,,
98573,control_change,61,0,3,,,,,,,,,2,11,80,,,
98577,control_change,61,0,4,,,,,,,,,3,11,89,,,
98580,note_on,30,0,11,,,,,,,,,10,,,,60,112
98583,note_on,30,0,12,,,,,,,,,11,,,,60,112
98588,note_on,30,0,13,,,,,,,,,12,,,,48,112
98592,note_on,30,0,14,,,,,,,,,13,,,,48,112
98594,note_on,30,0,15,,,,,,,,,14,,,,36,112
98610,note_on,30,0,11,,,,,,,,,10,,,,60,0
98613,note_on,30,0,12,,,,,,,,,11,,,,60,0
98618,note_on,30,0,13,,,,,,,,,12,,,,48,0
98622,note_on,30,0,14,,,,,,,,,13,,,,48,0
98624,note_on,30,0,15,,,,,,,,,14,,,,36,0
98629,control_change,60,0,1,,,,,,,,,0,11,80,,,
98632,control_change,60,0,2,,,,,,,,,1,11,80,,,
98633,control_change,60,0,3,,,,,,,,,2,11,80,,,
98633,note_on,350,0,5,,,,,,,,,4,,,,64,0
98634,note_on,350,0,6,,,,,,,,,5,,,,60,0
98637,note_on,350,0,8,,,,,,,,,7,,,,55,0
98637,note_on,0,0,8,,,,,,,,,7,,,,64,0
98637,control_change,60,0,4,,,,,,,,,3,11,90,,,
98640,set_tempo,120,1,0,,,,,,254237,,,,,,,,
98640,note_on,30,0,11,,,,,,,,,10,,,,66,112
98641,note_on,12,0,1,,,,,,,,,0,,,,88,0
98641,note_on,0,0,1,,,,,,,,,0,,,,91,0
98641,note_on,0,0,1,,,,,,,,,0,,,,93,116
98641,note_on,0,0,1,,,,,,,,,0,,,,87,116
98642,note_on,0,0,7,,,,,,,,,6,,,,72,127
98642,note_on,240,0,7,,,,,,,,,6,,,,60,127
98643,note_on,10,0,5,,,,,,,,,4,,,,60,115
98643,note_on,350,0,9,,,,,,,,,8,,,,48,0
98643,note_on,30,0,12,,,,,,,,,11,,,,66,112
98644,note_on,10,0,6,,,,,,,,,5,,,,60,115
98644,note_on,0,0,2,,,,,,,,,1,,,,75,115
98644,note_on,0,0,2,,,,,,,,,1,,,,81,115
98644,note_on,0,0,2,,,,,,,,,1,,,,79,0
98644,note_on,12,0,2,,,,,,,,,1,,,,82,0
98645,note_on,12,0,3,,,,,,,,,2,,,,76,0
98645,note_on,0,0,3,,,,,,,,,2,,,,70,0
98645,note_on,0,0,3,,,,,,,,,2,,,,69,116
98645,note_on,0,0,3,,,,,,,,,2,,,,75,116
98647,note_on,0,0,8,,,,,,,,,7,,,,63,125
98647,note_on,10,0,8,,,,,,,,,7,,,,57,125
98648,note_on,30,0,13,,,,,,,,,12,,,,54,112
98649,note_on,12,0,4,,,,,,,,,3,,,,67,0
98649,note_on,0,0,4,,,,,,,,,3,,,,58,0
98649,note_on,0,0,4,,,,,,,,,3,,,,63,115
98649,note_on,0,0,4,,,,,,,,,3,,,,60,115
98652,note_on,30,0,14,,,,,,,,,13,,,,54,112
98653,note_on,10,0,9,,,,,,,,,8,,,,54,125
98654,note_on,30,0,15,,,,,,,,,14,,,,42,112
98655,note_on,240,0,10,,,,,,,,,15,,,,48,85
98685,note_on,0,0,10,,,,,,,,,15,,,,48,85
98685,note_on,30,0,10,,,,,,,,,15,,,,48,0
98690,control_change,49,0,1,,,,,,,,,0,11,81,,,
98693,control_change,49,0,2,,,,,,,,,1,11,81,,,
98694,control_change,49,0,3,,,,,,,,,2,11,81,,,
98698,control_change,49,0,4,,,,,,,,,3,11,91,,,
98700,note_on,60,0,11,,,,,,,,,10,,,,66,0
98703,note_on,60,0,12,,,,,,,,,11,,,,66,0
98708,note_on,60,0,13,,,,,,,,,12,,,,54,0
98712,note_on,60,0,14,,,,,,,,,13,,,,54,0
98714,note_on,60,0,15,,,,,,,,,14,,,,42,0
98715,note_on,0,0,10,,,,,,,,,15,,,,48,85
98715,note_on,30,0,10,,,,,,,,,15,,,,48,0
98745,note_on,30,0,10,,,,,,,,,15,,,,48,0
98745,note_on,0,0,10,,,,,,,,,15,,,,48,85
98751,control_change,61,0,1,,,,,,,,,0,11,82,,,
98754,control_change,61,0,2,,,,,,,,,1,11,82,,,
98755,control_change,61,0,3,,,,,,,,,2,11,82,,,
98759,control_change,61,0,4,,,,,,,,,3,11,92,,,
98760,set_tempo,120,1,0,,,,,,263158,,,,,,,,
98760,note_on,60,0,11,,,,,,,,,10,,,,66,112
98763,note_on,60,0,12,,,,,,,,,11,,,,66,112
98768,note_on,60,0,13,,,,,,,,,12,,,,54,112
98772,note_on,60,0,14,,,,,,,,,13,,,,54,112
98774,note_on,60,0,15,,,,,,,,,14,,,,42,112
98775,note_on,0,0,10,,,,,,,,,15,,,,48,85
98775,note_on,30,0,10,,,,,,,,,15,,,,48,0
98805,note_on,0,0,10,,,,,,,,,15,,,,48,85
98805,note_on,30,0,10,,,,,,,,,15,,,,48,0
98812,control_change,61,0,1,,,,,,,,,0,11,83,,,
98815,control_change,61,0,2,,,,,,,,,1,11,83,,,
98816,control_change,61,0,3,,,,,,,,,2,11,83,,,
98820,control_change,61,0,4,,,,,,,,,3,11,93,,,
98820,note_on,60,0,11,,,,,,,,,10,,,,66,0
98823,note_on,60,0,12,,,,,,,,,11,,,,66,0
98828,note_on,60,0,13,,,,,,,,,12,,,,54,0
98832,note_on,60,0,14,,,,,,,,,13,,,,54,0
98834,note_on,60,0,15,,,,,,,,,14,,,,42,0
98835,note_on,0,0,10,,,,,,,,,15,,,,48,85
98835,note_on,30,0,10,,,,,,,,,15,,,,48,0
98865,note_on,30,0,10,,,,,,,,,15,,,,48,0
98865,note_on,0,0,10,,,,,,,,,15,,,,48,85
98873,control_change,61,0,1,,,,,,,,,0,11,83,,,
98876,control_change,61,0,2,,,,,,,,,1,11,83,,,
98877,control_change,61,0,3,,,,,,,,,2,11,83,,,
98880,set_tempo,120,1,0,,,,,,288462,,,,,,,,
98880,note_on,60,0,11,,,,,,,,,10,,,,66,112
98881,control_change,61,0,4,,,,,,,,,3,11,94,,,
98883,note_on,60,0,12,,,,,,,,,11,,,,66,112
98888,note_on,60,0,13,,,,,,,,,12,,,,54,112
98892,note_on,60,0,14,,,,,,,,,13,,,,54,112
98894,note_on,60,0,15,,,,,,,,,14,,,,42,112
98895,note_on,30,0,10,,,,,,,,,15,,,,48,0
98895,note_on,0,0,10,,,,,,,,,15,,,,48,85
98925,note_on,30,0,10,,,,,,,,,15,,,,48,0
98925,note_on,0,0,10,,,,,,,,,15,,,,48,85
98934,control_change,61,0,1,,,,,,,,,0,11,84,,,
98937,control_change,61,0,2,,,,,,,,,1,11,84,,,
98938,control_change,61,0,3,,,,,,,,,2,11,84,,,
98940,note_on,60,0,11,,,,,,,,,10,,,,66,0
98942,control_change,61,0,4,,,,,,,,,3,11,95,,,
98943,note_on,60,0,12,,,,,,,,,11,,,,66,0
98948,note_on,60,0,13,,,,,,,,,12,,,,54,0
98952,note_on,60,0,14,,,,,,,,,13,,,,54,0
98954,note_on,60,0,15,,,,,,,,,14,,,,42,0
98955,note_on,0,0,10,,,,,,,,,15,,,,48,85
98955,note_on,30,0,10,,,,,,,,,15,,,,48,0
98985,note_on,0,0,10,,,,,,,,,15,,,,48,85
98985,note_on,30,0,10,,,,,,,,,15,,,,48,0
98992,note_on,350,0,7,,,,,,,,,6,,,,72,0
98992,note_on,0,0,7,,,,,,,,,6,,,,60,0
98993,note_on,350,0,5,,,,,,,,,4,,,,60,0
98994,note_on,350,0,6,,,,,,,,,5,,,,60,0
98995,control_change,61,0,1,,,,,,,,,0,11,85,,,
98997,note_on,0,0,8,,,,,,,,,7,,,,57,0
98997,note_on,350,0,8,,,,,,,,,7,,,,63,0
98998,control_change,61,0,2,,,,,,,,,1,11,85,,,
98999,control_change,61,0,3,,,,,,,,,2,11,85,,,
99000,note_on,60,0,11,,,,,,,,,10,,,,55,112
99000,set_tempo,120,1,0,,,,,,254237,,,,,,,,
99001,note_on,6,0,1,,,,,,,,,0,,,,87,0
99001,note_on,0,0,1,,,,,,,,,0,,,,77,101
99001,note_on,0,0,1,,,,,,,,,0,,,,83,101
99001,note_on,0,0,1,,,,,,,,,0,,,,93,0
99002,note_on,0,0,7,,,,,,,,,6,,,,67,112
99002,note_on,10,0,7,,,,,,,,,6,,,,55,112
99003,note_on,350,0,9,,,,,,,,,8,,,,54,0
99003,control_change,61,0,4,,,,,,,,,3,11,96,,,
99003,note_on,60,0,12,,,,,,,,,11,,,,55,112
99003,note_on,10,0,5,,,,,,,,,4,,,,65,100
99004,note_on,10,0,6,,,,,,,,,5,,,,62,100
99004,note_on,6,0,2,,,,,,,,,1,,,,75,0
99004,note_on,0,0,2,,,,,,,,,1,,,,81,0
99004,note_on,0,0,2,,,,,,,,,1,,,,74,100
99004,note_on,0,0,2,,,,,,,,,1,,,,83,100
99005,note_on,0,0,3,,,,,,,,,2,,,,74,101
99005,note_on,6,0,3,,,,,,,,,2,,,,75,0
99005,note_on,0,0,3,,,,,,,,,2,,,,71,101
99005,note_on,0,0,3,,,,,,,,,2,,,,69,0
99007,note_on,10,0,8,,,,,,,,,7,,,,62,110
99007,note_on,0,0,8,,,,,,,,,7,,,,59,110
99008,note_on,60,0,13,,,,,,,,,12,,,,55,112
99009,note_on,0,0,4,,,,,,,,,3,,,,60,0
99009,note_on,0,0,4,,,,,,,,,3,,,,59,100
99009,note_on,0,0,4,,,,,,,,,3,,,,62,100
99009,note_on,6,0,4,,,,,,,,,3,,,,63,0
99012,note_on,60,0,14,,,,,,,,,13,,,,55,112
99013,note_on,10,0,9,,,,,,,,,8,,,,55,110
99014,note_on,60,0,15,,,,,,,,,14,,,,43,112
99015,note_on,0,0,10,,,,,,,,,15,,,,43,100
99015,note_on,30,0,10,,,,,,,,,15,,,,48,0
99030,note_on,30,0,11,,,,,,,,,10,,,,55,0
99033,note_on,30,0,12,,,,,,,,,11,,,,55,0
99038,note_on,30,0,13,,,,,,,,,12,,,,55,0
99042,note_on,30,0,14,,,,,,,,,13,,,,55,0
99044,note_on,30,0,15,,,,,,,,,14,,,,43,0
99056,control_change,55,0,1,,,,,,,,,0,11,86,,,
99059,control_change,55,0,2,,,,,,,,,1,11,86,,,
99060,control_change,55,0,3,,,,,,,,,2,11,86,,,
99060,note_on,30,0,11,,,,,,,,,10,,,,55,112
99061,note_on,5,0,1,,,,,,,,,0,,,,77,0
99061,note_on,0,0,1,,,,,,,,,0,,,,83,0
99063,note_on,30,0,12,,,,,,,,,11,,,,55,112
99064,control_change,55,0,4,,,,,,,,,3,11,97,,,
99064,note_on,0,0,2,,,,,,,,,1,,,,74,0
99064,note_on,5,0,2,,,,,,,,,1,,,,83,0
99065,note_on,5,0,3,,,,,,,,,2,,,,71,0
99065,note_on,0,0,3,,,,,,,,,2,,,,74,0
99068,note_on,30,0,13,,,,,,,,,12,,,,55,112
99069,note_on,5,0,4,,,,,,,,,3,,,,59,0
99069,note_on,0,0,4,,,,,,,,,3,,,,62,0
99072,note_on,30,0,14,,,,,,,,,13,,,,55,112
99074,note_on,30,0,15,,,,,,,,,14,,,,43,112
99090,note_on,30,0,11,,,,,,,,,10,,,,55,0
99093,note_on,30,0,12,,,,,,,,,11,,,,55,0
99098,note_on,30,0,13,,,,,,,,,12,,,,55,0
99102,note_on,30,0,14,,,,,,,,,13,,,,55,0
99104,note_on,30,0,15,,,,,,,,,14,,,,43,0
99112,note_on,0,0,7,,,,,,,,,6,,,,55,0
99112,note_on,110,0,7,,,,,,,,,6,,,,67,0
99113,note_on,110,0,5,,,,,,,,,4,,,,65,0
99114,note_on,110,0,6,,,,,,,,,5,,,,62,0
99117,note_on,0,0,8,,,,,,,,,7,,,,62,0
99117,note_on,110,0,8,,,,,,,,,7,,,,59,0
99117,control_change,56,0,1,,,,,,,,,0,11,86,,,
99120,note_on,30,0,11,,,,,,,,,10,,,,57,112
99120,control_change,56,0,2,,,,,,,,,1,11,86,,,
99120,set_tempo,120,1,0,,,,,,263158,,,,,,,,
99121,note_on,0,0,1,,,,,,,,,0,,,,77,101
99121,note_on,4,0,1,,,,,,,,,0,,,,83,101
99121,control_change,56,0,3,,,,,,,,,2,11,86,,,
99122,note_on,0,0,7,,,,,,,,,6,,,,55,112
99122,note_on,10,0,7,,,,,,,,,6,,,,67,112
99123,note_on,10,0,5,,,,,,,,,4,,,,65,100
99123,note_on,110,0,9,,,,,,,,,8,,,,55,0
99123,note_on,30,0,12,,,,,,,,,11,,,,57,112
99124,note_on,10,0,6,,,,,,,,,5,,,,62,100
99124,note_on,0,0,2,,,,,,,,,1,,,,83,100
99124,note_on,4,0,2,,,,,,,,,1,,,,74,100
99125,control_change,56,0,4,,,,,,,,,3,11,98,,,
99125,note_on,0,0,3,,,,,,,,,2,,,,71,101
99125,note_on,4,0,3,,,,,,,,,2,,,,74,101
99127,note_on,10,0,8,,,,,,,,,7,,,,62,110
99127,note_on,0,0,8,,,,,,,,,7,,,,59,110
99128,note_on,30,0,13,,,,,,,,,12,,,,57,112
99129,note_on,4,0,4,,,,,,,,,3,,,,62,100
99129,note_on,0,0,4,,,,,,,,,3,,,,65,100
99132,note_on,30,0,14,,,,,,,,,13,,,,57,112
99133,note_on,10,0,9,,,,,,,,,8,,,,55,110
99134,note_on,30,0,15,,,,,,,,,14,,,,45,112
99135,note_on,0,0,10,,,,,,,,,15,,,,43,100
99135,note_on,120,0,10,,,,,,,,,15,,,,43,0
99150,note_on,30,0,11,,,,,,,,,10,,,,57,0
99153,note_on,30,0,12,,,,,,,,,11,,,,57,0
99158,note_on,30,0,13,,,,,,,,,12,,,,57,0
99162,note_on,30,0,14,,,,,,,,,13,,,,57,0
99164,note_on,30,0,15,,,,,,,,,14,,,,45,0
99178,control_change,57,0,1,,,,,,,,,0,11,87,,,
99180,note_on,30,0,11,,,,,,,,,10,,,,55,112
99181,note_on,3,0,1,,,,,,,,,0,,,,77,0
99181,control_change,57,0,2,,,,,,,,,1,11,87,,,
99181,note_on,0,0,1,,,,,,,,,0,,,,83,0
99182,control_change,57,0,3,,,,,,,,,2,11,87,,,
99183,note_on,30,0,12,,,,,,,,,11,,,,55,112
99184,note_on,3,0,2,,,,,,,,,1,,,,83,0
99184,note_on,0,0,2,,,,,,,,,1,,,,74,0
99185,note_on,3,0,3,,,,,,,,,2,,,,71,0
99185,note_on,0,0,3,,,,,,,,,2,,,,74,0
99186,control_change,57,0,4,,,,,,,,,3,11,99,,,
99188,note_on,30,0,13,,,,,,,,,12,,,,55,112
99189,note_on,3,0,4,,,,,,,,,3,,,,65,0
99189,note_on,0,0,4,,,,,,,,,3,,,,62,0
99192,note_on,30,0,14,,,,,,,,,13,,,,55,112
99194,note_on,30,0,15,,,,,,,,,14,,,,43,112
99210,note_on,30,0,11,,,,,,,,,10,,,,55,0
99213,note_on,30,0,12,,,,,,,,,11,,,,55,0
99218,note_on,30,0,13,,,,,,,,,12,,,,55,0
99222,note_on,30,0,14,,,,,,,,,13,,,,55,0
99224,note_on,30,0,15,,,,,,,,,14,,,,43,0
99232,note_on,110,0,7,,,,,,,,,6,,,,55,0
99232,note_on,0,0,7,,,,,,,,,6,,,,67,0
99233,note_on,110,0,5,,,,,,,,,4,,,,65,0
99234,note_on,110,0,6,,,,,,,,,5,,,,62,0
99237,note_on,0,0,8,,,,,,,,,7,,,,62,0
99237,note_on,110,0,8,,,,,,,,,7,,,,59,0
99239,control_change,58,0,1,,,,,,,,,0,11,88,,,
99240,set_tempo,120,1,0,,,,,,288462,,,,,,,,
99240,note_on,30,0,11,,,,,,,,,10,,,,57,112
99241,note_on,0,0,1,,,,,,,,,0,,,,77,101
99241,note_on,2,0,1,,,,,,,,,0,,,,83,101
99242,note_on,0,0,7,,,,,,,,,6,,,,55,112
99242,note_on,10,0,7,,,,,,,,,6,,,,67,112
99242,control_change,58,0,2,,,,,,,,,1,11,88,,,
99243,note_on,110,0,9,,,,,,,,,8,,,,55,0
99243,note_on,30,0,12,,,,,,,,,11,,,,57,112
99243,note_on,10,0,5,,,,,,,,,4,,,,65,100
99243,control_change,58,0,3,,,,,,,,,2,11,88,,,
99244,note_on,10,0,6,,,,,,,,,5,,,,62,100
99244,note_on,2,0,2,,,,,,,,,1,,,,74,100
99244,note_on,0,0,2,,,,,,,,,1,,,,83,100
99245,note_on,0,0,3,,,,,,,,,2,,,,74,101
99245,note_on,2,0,3,,,,,,,,,2,,,,71,101
99247,note_on,0,0,8,,,,,,,,,7,,,,59,110
99247,control_change,58,0,4,,,,,,,,,3,11,100,,,
99247,note_on,10,0,8,,,,,,,,,7,,,,62,110
99248,note_on,30,0,13,,,,,,,,,12,,,,57,112
99249,note_on,2,0,4,,,,,,,,,3,,,,65,100
99249,note_on,0,0,4,,,,,,,,,3,,,,62,100
99252,note_on,30,0,14,,,,,,,,,13,,,,57,112
99253,note_on,10,0,9,,,,,,,,,8,,,,55,110
99254,note_on,30,0,15,,,,,,,,,14,,,,45,112
99255,note_on,120,0,10,,,,,,,,,15,,,,43,0
99255,note_on,0,0,10,,,,,,,,,15,,,,43,100
99270,note_on,30,0,11,,,,,,,,,10,,,,57,0
99273,note_on,30,0,12,,,,,,,,,11,,,,57,0
99278,note_on,30,0,13,,,,,,,,,12,,,,57,0
99282,note_on,30,0,14,,,,,,,,,13,,,,57,0
99284,note_on,30,0,15,,,,,,,,,14,,,,45,0
99300,note_on,30,0,11,,,,,,,,,10,,,,55,112
99300,control_change,59,0,1,,,,,,,,,0,11,89,,,
99301,note_on,1,0,1,,,,,,,,,0,,,,77,0
99301,note_on,0,0,1,,,,,,,,,0,,,,83,0
99303,note_on,30,0,12,,,,,,,,,11,,,,55,112
99303,control_change,59,0,2,,,,,,,,,1,11,89,,,
99304,note_on,1,0,2,,,,,,,,,1,,,,83,0
99304,note_on,0,0,2,,,,,,,,,1,,,,74,0
99304,control_change,59,0,3,,,,,,,,,2,11,89,,,
99305,note_on,0,0,3,,,,,,,,,2,,,,71,0
99305,note_on,1,0,3,,,,,,,,,2,,,,74,0
99308,note_on,30,0,13,,,,,,,,,12,,,,55,112
99308,control_change,59,0,4,,,,,,,,,3,11,101,,,
99309,note_on,1,0,4,,,,,,,,,3,,,,62,0
99309,note_on,0,0,4,,,,,,,,,3,,,,65,0
99312,note_on,30,0,14,,,,,,,,,13,,,,55,112
99314,note_on,30,0,15,,,,,,,,,14,,,,43,112
99330,note_on,30,0,11,,,,,,,,,10,,,,55,0
99333,note_on,30,0,12,,,,,,,,,11,,,,55,0
99338,note_on,30,0,13,,,,,,,,,12,,,,55,0
99342,note_on,30,0,14,,,,,,,,,13,,,,55,0
99344,note_on,30,0,15,,,,,,,,,14,,,,43,0
99352,note_on,0,0,7,,,,,,,,,6,,,,67,0
99352,note_on,110,0,7,,,,,,,,,6,,,,55,0
99353,note_on,110,0,5,,,,,,,,,4,,,,65,0
99354,note_on,110,0,6,,,,,,,,,5,,,,62,0
99357,note_on,0,0,8,,,,,,,,,7,,,,62,0
99357,note_on,110,0,8,,,,,,,,,7,,,,59,0
99360,set_tempo,120,1,0,,,,,,254237,,,,,,,,
99360,note_on,30,0,11,,,,,,,,,10,,,,60,112
99361,control_change,0,0,1,,,,,,,,,0,11,86,,,
99361,note_on,60,0,1,,,,,,,,,0,,,,84,101
99361,note_on,0,0,1,,,,,,,,,0,,,,76,101
99362,note_on,10,0,7,,,,,,,,,6,,,,60,112
99362,note_on,0,0,7,,,,,,,,,6,,,,72,112
99363,note_on,10,0,5,,,,,,,,,4,,,,64,100
99363,note_on,30,0,12,,,,,,,,,11,,,,60,112
99363,note_on,110,0,9,,,,,,,,,8,,,,55,0
99364,note_on,0,0,2,,,,,,,,,1,,,,84,100
99364,note_on,60,0,2,,,,,,,,,1,,,,76,100
99364,note_on,10,0,6,,,,,,,,,5,,,,60,100
99364,control_change,0,0,2,,,,,,,,,1,11,86,,,
99365,note_on,60,0,3,,,,,,,,,2,,,,72,101
99365,note_on,0,0,3,,,,,,,,,2,,,,76,101
99365,control_change,0,0,3,,,,,,,,,2,11,86,,,
99367,note_on,0,0,8,,,,,,,,,7,,,,64,110
99367,note_on,10,0,8,,,,,,,,,7,,,,60,110
99368,note_on,30,0,13,,,,,,,,,12,,,,60,112
99369,note_on,0,0,4,,,,,,,,,3,,,,60,100
99369,note_on,60,0,4,,,,,,,,,3,,,,64,100
99369,control_change,0,0,4,,,,,,,,,3,11,97,,,
99372,note_on,30,0,14,,,,,,,,,13,,,,60,112
99373,note_on,10,0,9,,,,,,,,,8,,,,48,110
99374,note_on,30,0,15,,,,,,,,,14,,,,48,112
99375,note_on,0,0,10,,,,,,,,,15,,,,48,100
99375,note_on,120,0,10,,,,,,,,,15,,,,43,0
99420,note_on,60,0,11,,,,,,,,,10,,,,60,0
99423,note_on,60,0,12,,,,,,,,,11,,,,60,0
99428,note_on,60,0,13,,,,,,,,,12,,,,60,0
99432,note_on,60,0,14,,,,,,,,,13,,,,60,0
99434,note_on,60,0,15,,,,,,,,,14,,,,48,0
99480,note_on,60,0,11,,,,,,,,,10,,,,60,112
99480,set_tempo,120,1,0,,,,,,263158,,,,,,,,
99481,note_on,120,0,1,,,,,,,,,0,,,,76,0
99481,note_on,0,0,1,,,,,,,,,0,,,,84,0
99482,note_on,0,0,7,,,,,,,,,6,,,,60,0
99482,note_on,120,0,7,,,,,,,,,6,,,,72,0
99483,note_on,120,0,5,,,,,,,,,4,,,,64,0
99483,note_on,60,0,12,,,,,,,,,11,,,,60,112
99484,note_on,0,0,2,,,,,,,,,1,,,,76,0
99484,note_on,120,0,2,,,,,,,,,1,,,,84,0
99484,note_on,120,0,6,,,,,,,,,5,,,,60,0
99485,note_on,120,0,3,,,,,,,,,2,,,,76,0
99485,note_on,0,0,3,,,,,,,,,2,,,,72,0
99487,note_on,0,0,8,,,,,,,,,7,,,,60,0
99487,note_on,120,0,8,,,,,,,,,7,,,,64,0
99488,note_on,60,0,13,,,,,,,,,12,,,,60,112
99489,note_on,120,0,4,,,,,,,,,3,,,,60,0
99489,note_on,0,0,4,,,,,,,,,3,,,,64,0
99492,note_on,60,0,14,,,,,,,,,13,,,,60,112
99493,note_on,120,0,9,,,,,,,,,8,,,,48,0
99494,note_on,60,0,15,,,,,,,,,14,,,,48,112
99495,note_on,120,0,10,,,,,,,,,15,,,,48,0
99540,note_on,60,0,11,,,,,,,,,10,,,,60,0
99543,note_on,60,0,12,,,,,,,,,11,,,,60,0
99548,note_on,60,0,13,,,,,,,,,12,,,,60,0
99552,note_on,60,0,14,,,,,,,,,13,,,,60,0
99554,note_on,60,0,15,,,,,,,,,14,,,,48,0
99600,set_tempo,120,1,0,,,,,,307692,,,,,,,,
99600,note_on,60,0,11,,,,,,,,,10,,,,60,112
99603,note_on,60,0,12,,,,,,,,,11,,,,60,112
99608,note_on,60,0,13,,,,,,,,,12,,,,60,112
99612,note_on,60,0,14,,,,,,,,,13,,,,60,112
99614,note_on,60,0,15,,,,,,,,,14,,,,48,112
99660,note_on,60,0,11,,,,,,,,,10,,,,60,0
99663,note_on,60,0,12,,,,,,,,,11,,,,60,0
99668,note_on,60,0,13,,,,,,,,,12,,,,60,0
99672,note_on,60,0,14,,,,,,,,,13,,,,60,0
99674,note_on,60,0,15,,,,,,,,,14,,,,48,0
99720,set_tempo,120,1,0,,,,,,254237,,,,,,,,
99720,control_change,60,0,11,,,,,,,,,10,11,50,,,
99721,note_on,0,0,1,,,,,,,,,0,,,,84,116
99721,note_on,0,0,1,,,,,,,,,0,,,,81,116
99721,control_change,240,0,1,,,,,,,,,0,11,47,,,
99723,control_change,60,0,12,,,,,,,,,11,11,50,,,
99724,control_change,240,0,2,,,,,,,,,1,11,47,,,
99725,note_on,0,0,3,,,,,,,,,2,,,,72,116
99725,control_change,240,0,3,,,,,,,,,2,11,47,,,
99725,note_on,0,0,3,,,,,,,,,2,,,,69,116
99728,note_on,60,0,13,,,,,,,,,12,,,,60,112
99728,control_change,0,0,13,,,,,,,,,12,11,50,,,
99732,control_change,0,0,14,,,,,,,,,13,11,50,,,
99732,note_on,60,0,14,,,,,,,,,13,,,,53,112
99734,control_change,0,0,15,,,,,,,,,14,11,50,,,
99734,note_on,60,0,15,,,,,,,,,14,,,,36,112
99781,note_on,0,0,1,,,,,,,,,0,,,,81,0
99781,note_on,60,0,1,,,,,,,,,0,,,,84,0
99785,note_on,60,0,3,,,,,,,,,2,,,,72,0
99785,note_on,0,0,3,,,,,,,,,2,,,,69,0
99840,set_tempo,120,1,0,,,,,,263158,,,,,,,,
99841,note_on,60,0,1,,,,,,,,,0,,,,80,101
99841,note_on,0,0,1,,,,,,,,,0,,,,83,101
99845,note_on,60,0,3,,,,,,,,,2,,,,71,101
99845,note_on,0,0,3,,,,,,,,,2,,,,68,101
99848,note_on,120,0,13,,,,,,,,,12,,,,60,0
99854,note_on,120,0,15,,,,,,,,,14,,,,36,0
99901,note_on,0,0,1,,,,,,,,,0,,,,81,101
99901,note_on,0,0,1,,,,,,,,,0,,,,80,0
99901,note_on,0,0,1,,,,,,,,,0,,,,84,101
99901,note_on,60,0,1,,,,,,,,,0,,,,83,0
99905,note_on,60,0,3,,,,,,,,,2,,,,68,0
99905,note_on,0,0,3,,,,,,,,,2,,,,71,0
99905,note_on,0,0,3,,,,,,,,,2,,,,69,101
99905,note_on,0,0,3,,,,,,,,,2,,,,72,101
99960,set_tempo,120,1,0,,,,,,288462,,,,,,,,
99961,note_on,60,0,1,,,,,,,,,0,,,,81,0
99961,note_on,0,0,1,,,,,,,,,0,,,,84,0
99961,note_on,0,0,1,,,,,,,,,0,,,,83,101
99961,note_on,0,0,1,,,,,,,,,0,,,,79,101
99965,note_on,0,0,3,,,,,,,,,2,,,,71,101
99965,note_on,60,0,3,,,,,,,,,2,,,,72,0
99965,note_on,0,0,3,,,,,,,,,2,,,,69,0
99965,note_on,0,0,3,,,,,,,,,2,,,,67,101
99972,note_on,0,0,14,,,,,,,,,13,,,,57,112
99972,note_on,240,0,14,,,,,,,,,13,,,,53,0
100021,note_on,0,0,1,,,,,,,,,0,,,,83,0
100021,note_on,60,0,1,,,,,,,,,0,,,,79,0
100021,note_on,0,0,1,,,,,,,,,0,,,,81,101
100021,note_on,0,0,1,,,,,,,,,0,,,,77,101
100025,note_on,60,0,3,,,,,,,,,2,,,,71,0
100025,note_on,0,0,3,,,,,,,,,2,,,,67,0
100025,note_on,0,0,3,,,,,,,,,2,,,,69,101
100025,note_on,0,0,3,,,,,,,,,2,,,,65,101
100080,set_tempo,120,1,0,,,,,,254237,,,,,,,,
100081,note_on,60,0,1,,,,,,,,,0,,,,77,0
100081,note_on,0,0,1,,,,,,,,,0,,,,81,0
100081,note_on,0,0,1,,,,,,,,,0,,,,79,101
100081,note_on,0,0,1,,,,,,,,,0,,,,76,101
100085,note_on,0,0,3,,,,,,,,,2,,,,64,101
100085,note_on,0,0,3,,,,,,,,,2,,,,69,0
100085,note_on,0,0,3,,,,,,,,,2,,,,67,101
100085,note_on,60,0,3,,,,,,,,,2,,,,65,0
100087,note_on,115,0,14,,,,,,,,,13,,,,57,0
100092,note_on,5,0,14,,,,,,,,,13,,,,60,112
100095,note_on,600,0,10,,,,,,,,,15,,,,48,35
100155,note_on,60,0,10,,,,,,,,,15,,,,48,0
100155,note_on,0,0,10,,,,,,,,,15,,,,48,35
100200,set_tempo,120,1,0,,,,,,263158,,,,,,,,
100201,note_on,0,0,1,,,,,,,,,0,,,,79,101
100201,note_on,0,0,1,,,,,,,,,0,,,,79,0
100201,note_on,0,0,1,,,,,,,,,0,,,,76,101
100201,note_on,120,0,1,,,,,,,,,0,,,,76,0
100205,note_on,0,0,3,,,,,,,,,2,,,,64,101
100205,note_on,0,0,3,,,,,,,,,2,,,,64,0
100205,note_on,120,0,3,,,,,,,,,2,,,,67,0
100205,note_on,0,0,3,,,,,,,,,2,,,,67,101
100215,note_on,0,0,10,,,,,,,,,15,,,,43,35
100215,note_on,60,0,10,,,,,,,,,15,,,,48,0
100275,note_on,0,0,10,,,,,,,,,15,,,,48,35
100275,note_on,60,0,10,,,,,,,,,15,,,,43,0
100320,set_tempo,120,1,0,,,,,,288462,,,,,,,,
100321,note_on,0,0,1,,,,,,,,,0,,,,72,101
100321,note_on,0,0,1,,,,,,,,,0,,,,76,101
100321,note_on,0,0,1,,,,,,,,,0,,,,79,0
100321,note_on,120,0,1,,,,,,,,,0,,,,76,0
100325,note_on,0,0,3,,,,,,,,,2,,,,60,101
100325,note_on,0,0,3,,,,,,,,,2,,,,64,101
100325,note_on,0,0,3,,,,,,,,,2,,,,67,0
100325,note_on,120,0,3,,,,,,,,,2,,,,64,0
100332,note_on,240,0,14,,,,,,,,,13,,,,60,0
100332,note_on,0,0,14,,,,,,,,,13,,,,64,112
100335,note_on,60,0,10,,,,,,,,,15,,,,48,0
100335,note_on,0,0,10,,,,,,,,,15,,,,43,35
100381,note_on,60,0,1,,,,,,,,,0,,,,76,0
100381,note_on,0,0,1,,,,,,,,,0,,,,72,0
100385,note_on,60,0,3,,,,,,,,,2,,,,60,0
100385,note_on,0,0,3,,,,,,,,,2,,,,64,0
100395,note_on,0,0,10,,,,,,,,,15,,,,48,35
100395,note_on,60,0,10,,,,,,,,,15,,,,43,0
100440,set_tempo,120,1,0,,,,,,254237,,,,,,,,
100441,note_on,0,0,1,,,,,,,,,0,,,,71,116
100441,note_on,60,0,1,,,,,,,,,0,,,,81,101
100445,note_on,60,0,3,,,,,,,,,2,,,,59,116
100445,note_on,0,0,3,,,,,,,,,2,,,,69,101
100447,note_on,115,0,14,,,,,,,,,13,,,,64,0
100448,note_on,600,0,13,,,,,,,,,12,,,,55,112
100452,note_on,5,0,14,,,,,,,,,13,,,,65,112
100454,note_on,600,0,15,,,,,,,,,14,,,,31,112
100455,note_on,0,0,10,,,,,,,,,15,,,,43,35
100455,note_on,60,0,10,,,,,,,,,15,,,,48,0
100560,set_tempo,120,1,0,,,,,,263158,,,,,,,,
100561,note_on,120,0,1,,,,,,,,,0,,,,81,0
100561,note_on,0,0,1,,,,,,,,,0,,,,75,101
100565,note_on,0,0,3,,,,,,,,,2,,,,63,101
100565,note_on,120,0,3,,,,,,,,,2,,,,69,0
100568,note_on,120,0,13,,,,,,,,,12,,,,55,0
100574,note_on,120,0,15,,,,,,,,,14,,,,31,0
100575,note_on,0,0,10,,,,,,,,,15,,,,43,35
100575,note_on,120,0,10,,,,,,,,,15,,,,43,0
100680,set_tempo,120,1,0,,,,,,288462,,,,,,,,
100681,note_on,120,0,1,,,,,,,,,0,,,,75,0
100681,note_on,0,0,1,,,,,,,,,0,,,,75,101
100681,note_on,0,0,1,,,,,,,,,0,,,,71,101
100681,note_on,0,0,1,,,,,,,,,0,,,,71,0
100685,note_on,0,0,3,,,,,,,,,2,,,,59,101
100685,note_on,0,0,3,,,,,,,,,2,,,,59,0
100685,note_on,120,0,3,,,,,,,,,2,,,,63,0
100685,note_on,0,0,3,,,,,,,,,2,,,,63,101
100692,note_on,240,0,14,,,,,,,,,13,,,,65,0
100692,note_on,0,0,14,,,,,,,,,13,,,,67,112
100695,note_on,0,0,10,,,,,,,,,15,,,,43,35
100695,note_on,120,0,10,,,,,,,,,15,,,,43,0
100800,set_tempo,120,1,0,,,,,,254237,,,,,,,,
100800,note_on,1080,0,11,,,,,,,,,10,,,,60,112
100801,note_on,0,0,1,,,,,,,,,0,,,,72,116
100801,note_on,0,0,1,,,,,,,,,0,,,,76,116
100801,note_on,0,0,1,,,,,,,,,0,,,,71,0
100801,note_on,120,0,1,,,,,,,,,0,,,,75,0
100803,note_on,1080,0,12,,,,,,,,,11,,,,60,112
100805,note_on,0,0,3,,,,,,,,,2,,,,59,0
100805,note_on,0,0,3,,,,,,,,,2,,,,60,116
100805,note_on,0,0,3,,,,,,,,,2,,,,64,116
100805,note_on,120,0,3,,,,,,,,,2,,,,63,0
100807,note_on,115,0,14,,,,,,,,,13,,,,67,0
100808,note_on,240,0,13,,,,,,,,,12,,,,60,112
100812,note_on,5,0,14,,,,,,,,,13,,,,64,112
100814,note_on,240,0,15,,,,,,,,,14,,,,36,112
100815,note_on,0,0,10,,,,,,,,,15,,,,48,35
100815,note_on,120,0,10,,,,,,,,,15,,,,43,0
100830,note_on,30,0,11,,,,,,,,,10,,,,60,0
100833,note_on,30,0,12,,,,,,,,,11,,,,60,0
100838,note_on,30,0,13,,,,,,,,,12,,,,60,0
100844,note_on,30,0,15,,,,,,,,,14,,,,36,0
100860,note_on,30,0,11,,,,,,,,,10,,,,60,112
100861,note_on,60,0,1,,,,,,,,,0,,,,72,0
100861,note_on,0,0,1,,,,,,,,,0,,,,76,0
100863,note_on,30,0,12,,,,,,,,,11,,,,60,112
100865,note_on,60,0,3,,,,,,,,,2,,,,64,0
100865,note_on,0,0,3,,,,,,,,,2,,,,60,0
100868,note_on,30,0,13,,,,,,,,,12,,,,60,112
100874,note_on,30,0,15,,,,,,,,,14,,,,36,112
100890,note_on,30,0,11,,,,,,,,,10,,,,60,0
100893,note_on,30,0,12,,,,,,,,,11,,,,60,0
100898,note_on,30,0,13,,,,,,,,,12,,,,60,0
100904,note_on,30,0,15,,,,,,,,,14,,,,36,0
100920,set_tempo,120,1,0,,,,,,263158,,,,,,,,
100920,note_on,30,0,11,,,,,,,,,10,,,,62,112
100921,note_on,60,0,1,,,,,,,,,0,,,,79,101
100921,note_on,0,0,1,,,,,,,,,0,,,,76,101
100923,note_on,30,0,12,,,,,,,,,11,,,,62,112
100925,note_on,0,0,3,,,,,,,,,2,,,,67,101
100925,note_on,60,0,3,,,,,,,,,2,,,,64,101
100928,note_on,30,0,13,,,,,,,,,12,,,,62,112
100934,note_on,30,0,15,,,,,,,,,14,,,,38,112
100935,note_on,120,0,10,,,,,,,,,15,,,,48,0
100950,note_on,30,0,11,,,,,,,,,10,,,,62,0
100953,note_on,30,0,12,,,,,,,,,11,,,,62,0
100958,note_on,30,0,13,,,,,,,,,12,,,,62,0
100964,note_on,30,0,15,,,,,,,,,14,,,,38,0
100980,note_on,30,0,11,,,,,,,,,10,,,,60,112
100981,note_on,0,0,1,,,,,,,,,0,,,,79,0
100981,note_on,60,0,1,,,,,,,,,0,,,,76,0
100983,note_on,30,0,12,,,,,,,,,11,,,,60,112
100985,note_on,0,0,3,,,,,,,,,2,,,,64,0
100985,note_on,60,0,3,,,,,,,,,2,,,,67,0
100988,note_on,30,0,13,,,,,,,,,12,,,,60,112
100994,note_on,30,0,15,,,,,,,,,14,,,,36,112
101010,note_on,30,0,11,,,,,,,,,10,,,,60,0
101013,note_on,30,0,12,,,,,,,,,11,,,,60,0
101018,note_on,30,0,13,,,,,,,,,12,,,,60,0
101024,note_on,30,0,15,,,,,,,,,14,,,,36,0
101040,set_tempo,120,1,0,,,,,,288462,,,,,,,,
101040,note_on,30,0,11,,,,,,,,,10,,,,62,112
101041,note_on,0,0,1,,,,,,,,,0,,,,76,101
101041,note_on,60,0,1,,,,,,,,,0,,,,79,101
101043,note_on,30,0,12,,,,,,,,,11,,,,62,112
101045,note_on,60,0,3,,,,,,,,,2,,,,67,101
101045,note_on,0,0,3,,,,,,,,,2,,,,64,101
101048,note_on,30,0,13,,,,,,,,,12,,,,62,112
101052,note_on,0,0,14,,,,,,,,,13,,,,60,112
101052,note_on,240,0,14,,,,,,,,,13,,,,64,0
101054,note_on,30,0,15,,,,,,,,,14,,,,38,112
101070,note_on,30,0,11,,,,,,,,,10,,,,62,0
101073,note_on,30,0,12,,,,,,,,,11,,,,62,0
101078,note_on,30,0,13,,,,,,,,,12,,,,62,0
101084,note_on,30,0,15,,,,,,,,,14,,,,38,0
101100,note_on,30,0,11,,,,,,,,,10,,,,60,112
101101,note_on,0,0,1,,,,,,,,,0,,,,79,0
101101,note_on,60,0,1,,,,,,,,,0,,,,76,0
101103,note_on,30,0,12,,,,,,,,,11,,,,60,112
101105,note_on,0,0,3,,,,,,,,,2,,,,67,0
101105,note_on,60,0,3,,,,,,,,,2,,,,64,0
101108,note_on,30,0,13,,,,,,,,,12,,,,60,112
101114,note_on,30,0,15,,,,,,,,,14,,,,36,112
101130,note_on,30,0,11,,,,,,,,,10,,,,60,0
101133,note_on,30,0,12,,,,,,,,,11,,,,60,0
101138,note_on,30,0,13,,,,,,,,,12,,,,60,0
101144,note_on,30,0,15,,,,,,,,,14,,,,36,0
101160,set_tempo,120,1,0,,,,,,254237,,,,,,,,
101160,note_on,30,0,11,,,,,,,,,10,,,,60,112
101161,note_on,0,0,1,,,,,,,,,0,,,,81,116
101161,note_on,60,0,1,,,,,,,,,0,,,,84,116
101163,note_on,30,0,12,,,,,,,,,11,,,,60,112
101164,note_on,0,0,2,,,,,,,,,1,,,,81,115
101164,note_on,1440,0,2,,,,,,,,,1,,,,84,115
101165,note_on,0,0,3,,,,,,,,,2,,,,69,116
101165,note_on,60,0,3,,,,,,,,,2,,,,72,116
101167,note_on,115,0,14,,,,,,,,,13,,,,60,0
101168,note_on,30,0,13,,,,,,,,,12,,,,60,112
101172,control_change,5,0,14,,,,,,,,,13,11,50,,,
101172,note_on,0,0,14,,,,,,,,,13,,,,53,112
101174,note_on,30,0,15,,,,,,,,,14,,,,36,112
101191,note_on,0,0,1,,,,,,,,,0,,,,84,0
101191,note_on,30,0,1,,,,,,,,,0,,,,81,0
101194,note_on,30,0,2,,,,,,,,,1,,,,81,0
101194,note_on,0,0,2,,,,,,,,,1,,,,84,0
101195,note_on,30,0,3,,,,,,,,,2,,,,69,0
101195,note_on,0,0,3,,,,,,,,,2,,,,72,0
101208,control_change,36,0,14,,,,,,,,,13,11,51,,,
101221,note_on,0,0,1,,,,,,,,,0,,,,81,101
101221,note_on,30,0,1,,,,,,,,,0,,,,84,101
101224,note_on,30,0,2,,,,,,,,,1,,,,81,100
101224,note_on,0,0,2,,,,,,,,,1,,,,84,100
101225,note_on,0,0,3,,,,,,,,,2,,,,72,101
101225,note_on,30,0,3,,,,,,,,,2,,,,69,101
101244,control_change,36,0,14,,,,,,,,,13,11,52,,,
101251,note_on,30,0,1,,,,,,,,,0,,,,81,0
101251,note_on,0,0,1,,,,,,,,,0,,,,84,0
101254,note_on,0,0,2,,,,,,,,,1,,,,81,0
101254,note_on,30,0,2,,,,,,,,,1,,,,84,0
101255,note_on,0,0,3,,,,,,,,,2,,,,69,0
101255,note_on,30,0,3,,,,,,,,,2,,,,72,0
101280,note_on,120,0,11,,,,,,,,,10,,,,60,0
101280,control_change,36,0,14,,,,,,,,,13,11,53,,,
101280,set_tempo,120,1,0,,,,,,263158,,,,,,,,
101281,note_on,0,0,1,,,,,,,,,0,,,,83,101
101281,note_on,30,0,1,,,,,,,,,0,,,,80,101
101283,note_on,120,0,12,,,,,,,,,11,,,,60,0
101284,note_on,30,0,2,,,,,,,,,1,,,,83,100
101284,note_on,0,0,2,,,,,,,,,1,,,,80,100
101285,note_on,30,0,3,,,,,,,,,2,,,,71,101
101285,note_on,0,0,3,,,,,,,,,2,,,,68,101
101288,note_on,120,0,13,,,,,,,,,12,,,,60,0
101292,note_on,0,0,14,,,,,,,,,13,,,,57,112
101292,note_on,12,0,14,,,,,,,,,13,,,,53,0
101294,note_on,120,0,15,,,,,,,,,14,,,,36,0
101316,control_change,24,0,14,,,,,,,,,13,11,54,,,
101341,note_on,60,0,1,,,,,,,,,0,,,,83,0
101341,note_on,0,0,1,,,,,,,,,0,,,,84,101
101341,note_on,0,0,1,,,,,,,,,0,,,,81,101
101341,note_on,0,0,1,,,,,,,,,0,,,,80,0
101344,note_on,60,0,2,,,,,,,,,1,,,,80,0
101344,note_on,0,0,2,,,,,,,,,1,,,,83,0
101344,note_on,0,0,2,,,,,,,,,1,,,,81,100
101344,note_on,0,0,2,,,,,,,,,1,,,,84,100
101345,note_on,0,0,3,,,,,,,,,2,,,,72,101
101345,note_on,0,0,3,,,,,,,,,2,,,,69,101
101345,note_on,0,0,3,,,,,,,,,2,,,,71,0
101345,note_on,60,0,3,,,,,,,,,2,,,,68,0
101352,control_change,36,0,14,,,,,,,,,13,11,55,,,
101388,control_change,36,0,14,,,,,,,,,13,11,56,,,
101400,set_tempo,120,1,0,,,,,,288462,,,,,,,,
101401,note_on,60,0,1,,,,,,,,,0,,,,84,0
101401,note_on,0,0,1,,,,,,,,,0,,,,79,101
101401,note_on,0,0,1,,,,,,,,,0,,,,83,101
101401,note_on,0,0,1,,,,,,,,,0,,,,81,0
101404,note_on,0,0,2,,,,,,,,,1,,,,81,0
101404,note_on,0,0,2,,,,,,,,,1,,,,83,100
101404,note_on,0,0,2,,,,,,,,,1,,,,79,100
101404,note_on,60,0,2,,,,,,,,,1,,,,84,0
101405,note_on,60,0,3,,,,,,,,,2,,,,72,0
101405,note_on,0,0,3,,,,,,,,,2,,,,69,0
101405,note_on,0,0,3,,,,,,,,,2,,,,71,101
101405,note_on,0,0,3,,,,,,,,,2,,,,67,101
101412,note_on,0,0,14,,,,,,,,,13,,,,59,112
101412,note_on,24,0,14,,,,,,,,,13,,,,57,0
101424,control_change,12,0,14,,,,,,,,,13,11,57,,,
101460,control_change,36,0,14,,,,,,,,,13,11,57,,,
101461,note_on,60,0,1,,,,,,,,,0,,,,79,0
101461,note_on,0,0,1,,,,,,,,,0,,,,81,101
101461,note_on,0,0,1,,,,,,,,,0,,,,83,0
101461,note_on,0,0,1,,,,,,,,,0,,,,77,101
101464,note_on,60,0,2,,,,,,,,,1,,,,79,0
101464,note_on,0,0,2,,,,,,,,,1,,,,83,0
101464,note_on,0,0,2,,,,,,,,,1,,,,81,100
101464,note_on,0,0,2,,,,,,,,,1,,,,77,100
101465,note_on,60,0,3,,,,,,,,,2,,,,67,0
101465,note_on,0,0,3,,,,,,,,,2,,,,71,0
101465,note_on,0,0,3,,,,,,,,,2,,,,65,101
101465,note_on,0,0,3,,,,,,,,,2,,,,69,101
101496,control_change,36,0,14,,,,,,,,,13,11,58,,,
101520,set_tempo,120,1,0,,,,,,254237,,,,,,,,
101521,note_on,0,0,1,,,,,,,,,0,,,,76,101
101521,note_on,0,0,1,,,,,,,,,0,,,,79,101
101521,note_on,60,0,1,,,,,,,,,0,,,,77,0
101521,note_on,0,0,1,,,,,,,,,0,,,,81,0
101524,note_on,0,0,2,,,,,,,,,1,,,,81,0
101524,note_on,60,0,2,,,,,,,,,1,,,,77,0
101524,note_on,0,0,2,,,,,,,,,1,,,,76,100
101524,note_on,0,0,2,,,,,,,,,1,,,,79,100
101525,note_on,0,0,3,,,,,,,,,2,,,,67,101
101525,note_on,0,0,3,,,,,,,,,2,,,,65,0
101525,note_on,0,0,3,,,,,,,,,2,,,,64,101
101525,note_on,60,0,3,,,,,,,,,2,,,,69,0
101532,note_on,36,0,14,,,,,,,,,13,,,,59,0
101532,control_change,0,0,14,,,,,,,,,13,11,59,,,
101532,note_on,0,0,14,,,,,,,,,13,,,,60,112
101535,note_on,600,0,10,,,,,,,,,15,,,,48,35
101568,control_change,36,0,14,,,,,,,,,13,11,60,,,
101581,note_on,60,0,1,,,,,,,,,0,,,,79,0
101581,note_on,0,0,1,,,,,,,,,0,,,,76,0
101584,note_on,60,0,2,,,,,,,,,1,,,,76,0
101584,note_on,0,0,2,,,,,,,,,1,,,,79,0
101585,note_on,0,0,3,,,,,,,,,2,,,,67,0
101585,note_on,60,0,3,,,,,,,,,2,,,,64,0
101595,note_on,0,0,10,,,,,,,,,15,,,,48,35
101595,note_on,60,0,10,,,,,,,,,15,,,,48,0
101604,control_change,36,0,14,,,,,,,,,13,11,61,,,
101640,set_tempo,120,1,0,,,,,,263158,,,,,,,,
101640,control_change,36,0,14,,,,,,,,,13,11,62,,,
101641,note_on,0,0,1,,,,,,,,,0,,,,79,101
101641,note_on,60,0,1,,,,,,,,,0,,,,76,101
101644,note_on,60,0,2,,,,,,,,,1,,,,76,100
101644,note_on,0,0,2,,,,,,,,,1,,,,79,100
101645,note_on,60,0,3,,,,,,,,,2,,,,67,101
101645,note_on,0,0,3,,,,,,,,,2,,,,64,101
101652,note_on,12,0,14,,,,,,,,,13,,,,60,0
101652,note_on,0,0,14,,,,,,,,,13,,,,62,112
101655,note_on,0,0,10,,,,,,,,,15,,,,43,35
101655,note_on,60,0,10,,,,,,,,,15,,,,48,0
101676,control_change,24,0,14,,,,,,,,,13,11,63,,,
101701,note_on,0,0,1,,,,,,,,,0,,,,76,0
101701,note_on,60,0,1,,,,,,,,,0,,,,79,0
101704,note_on,60,0,2,,,,,,,,,1,,,,79,0
101704,note_on,0,0,2,,,,,,,,,1,,,,76,0
101705,note_on,60,0,3,,,,,,,,,2,,,,64,0
101705,note_on,0,0,3,,,,,,,,,2,,,,67,0
101712,control_change,36,0,14,,,,,,,,,13,11,64,,,
101715,note_on,60,0,10,,,,,,,,,15,,,,43,0
101715,note_on,0,0,10,,,,,,,,,15,,,,48,35
101748,control_change,36,0,14,,,,,,,,,13,11,65,,,
101760,set_tempo,120,1,0,,,,,,288462,,,,,,,,
101761,note_on,60,0,1,,,,,,,,,0,,,,76,101
101761,note_on,0,0,1,,,,,,,,,0,,,,72,101
101764,note_on,60,0,2,,,,,,,,,1,,,,76,100
101764,note_on,0,0,2,,,,,,,,,1,,,,72,100
101765,note_on,0,0,3,,,,,,,,,2,,,,64,101
101765,note_on,60,0,3,,,,,,,,,2,,,,60,101
101772,note_on,0,0,14,,,,,,,,,13,,,,64,112
101772,note_on,24,0,14,,,,,,,,,13,,,,62,0
101775,note_on,60,0,10,,,,,,,,,15,,,,48,0
101775,note_on,0,0,10,,,,,,,,,15,,,,43,35
101784,control_change,12,0,14,,,,,,,,,13,11,66,,,
101820,control_change,36,0,14,,,,,,,,,13,11,67,,,
101821,note_on,0,0,1,,,,,,,,,0,,,,76,0
101821,note_on,60,0,1,,,,,,,,,0,,,,72,0
101824,note_on,60,0,2,,,,,,,,,1,,,,72,0
101824,note_on,0,0,2,,,,,,,,,1,,,,76,0
101825,note_on,60,0,3,,,,,,,,,2,,,,64,0
101825,note_on,0,0,3,,,,,,,,,2,,,,60,0
101835,note_on,60,0,10,,,,,,,,,15,,,,43,0
101835,note_on,0,0,10,,,,,,,,,15,,,,48,35
101856,control_change,36,0,14,,,,,,,,,13,11,68,,,
101880,set_tempo,120,1,0,,,,,,254237,,,,,,,,
101881,note_on,0,0,1,,,,,,,,,0,,,,81,101
101881,note_on,60,0,1,,,,,,,,,0,,,,71,116
101884,note_on,0,0,2,,,,,,,,,1,,,,71,115
101884,note_on,60,0,2,,,,,,,,,1,,,,81,100
101885,note_on,0,0,3,,,,,,,,,2,,,,59,116
101885,note_on,60,0,3,,,,,,,,,2,,,,69,101
101887,note_on,31,0,14,,,,,,,,,13,,,,64,0
101888,note_on,600,0,13,,,,,,,,,12,,,,55,112
101892,control_change,0,0,14,,,,,,,,,13,11,69,,,
101892,note_on,5,0,14,,,,,,,,,13,,,,65,112
101894,note_on,600,0,15,,,,,,,,,14,,,,31,112
101895,note_on,0,0,10,,,,,,,,,15,,,,43,35
101895,note_on,60,0,10,,,,,,,,,15,,,,48,0
101910,control_change,18,0,14,,,,,,,,,13,11,68,,,
101928,control_change,18,0,14,,,,,,,,,13,11,67,,,
101946,control_change,18,0,14,,,,,,,,,13,11,66,,,
101964,control_change,18,0,14,,,,,,,,,13,11,65,,,
101982,control_change,18,0,14,,,,,,,,,13,11,64,,,
102000,set_tempo,120,1,0,,,,,,263158,,,,,,,,
102000,control_change,18,0,14,,,,,,,,,13,11,63,,,
102001,note_on,120,0,1,,,,,,,,,0,,,,81,0
102001,note_on,0,0,1,,,,,,,,,0,,,,75,101
102004,note_on,120,0,2,,,,,,,,,1,,,,81,0
102004,note_on,0,0,2,,,,,,,,,1,,,,75,100
102005,note_on,0,0,3,,,,,,,,,2,,,,63,101
102005,note_on,120,0,3,,,,,,,,,2,,,,69,0
102008,note_on,120,0,13,,,,,,,,,12,,,,55,0
102012,note_on,0,0,14,,,,,,,,,13,,,,69,112
102012,note_on,12,0,14,,,,,,,,,13,,,,65,0
102014,note_on,120,0,15,,,,,,,,,14,,,,31,0
102015,note_on,120,0,10,,,,,,,,,15,,,,43,0
102015,note_on,0,0,10,,,,,,,,,15,,,,43,35
102018,control_change,6,0,14,,,,,,,,,13,11,62,,,
102036,control_change,18,0,14,,,,,,,,,13,11,61,,,
102054,control_change,18,0,14,,,,,,,,,13,11,60,,,
102072,control_change,18,0,14,,,,,,,,,13,11,59,,,
102090,control_change,18,0,14,,,,,,,,,13,11,58,,,
102108,control_change,18,0,14,,,,,,,,,13,11,57,,,
102120,set_tempo,120,1,0,,,,,,288462,,,,,,,,
102121,note_on,120,0,1,,,,,,,,,0,,,,75,0
102121,note_on,0,0,1,,,,,,,,,0,,,,71,0
102121,note_on,0,0,1,,,,,,,,,0,,,,71,101
102121,note_on,0,0,1,,,,,,,,,0,,,,75,101
102124,note_on,0,0,2,,,,,,,,,1,,,,75,100
102124,note_on,0,0,2,,,,,,,,,1,,,,71,100
102124,note_on,120,0,2,,,,,,,,,1,,,,75,0
102124,note_on,0,0,2,,,,,,,,,1,,,,71,0
102125,note_on,120,0,3,,,,,,,,,2,,,,63,0
102125,note_on,0,0,3,,,,,,,,,2,,,,59,0
102125,note_on,0,0,3,,,,,,,,,2,,,,59,101
102125,note_on,0,0,3,,,,,,,,,2,,,,63,101
102126,control_change,18,0,14,,,,,,,,,13,11,57,,,
102132,note_on,6,0,14,,,,,,,,,13,,,,69,0
102132,note_on,0,0,14,,,,,,,,,13,,,,67,112
102135,note_on,0,0,10,,,,,,,,,15,,,,43,35
102135,note_on,120,0,10,,,,,,,,,15,,,,43,0
102144,control_change,12,0,14,,,,,,,,,13,11,56,,,
102162,control_change,18,0,14,,,,,,,,,13,11,55,,,
102180,control_change,18,0,14,,,,,,,,,13,11,54,,,
102181,note_on,60,0,1,,,,,,,,,0,,,,75,0
102184,note_on,60,0,2,,,,,,,,,1,,,,75,0
102185,note_on,60,0,3,,,,,,,,,2,,,,63,0
102190,note_on,10,0,14,,,,,,,,,13,,,,67,0
102198,control_change,8,0,14,,,,,,,,,13,11,53,,,
102216,control_change,18,0,14,,,,,,,,,13,11,52,,,
102234,control_change,18,0,14,,,,,,,,,13,11,51,,,
102240,note_on,960,0,11,,,,,,,,,10,,,,60,112
102240,set_tempo,120,1,0,,,,,,254237,,,,,,,,
102241,note_on,0,0,1,,,,,,,,,0,,,,72,116
102241,note_on,0,0,1,,,,,,,,,0,,,,76,116
102241,note_on,60,0,1,,,,,,,,,0,,,,71,0
102243,note_on,960,0,12,,,,,,,,,11,,,,60,112
102244,note_on,60,0,2,,,,,,,,,1,,,,71,0
102244,note_on,0,0,2,,,,,,,,,1,,,,76,115
102244,note_on,0,0,2,,,,,,,,,1,,,,72,115
102245,note_on,60,0,3,,,,,,,,,2,,,,59,0
102245,note_on,0,0,3,,,,,,,,,2,,,,60,116
102245,note_on,0,0,3,,,,,,,,,2,,,,64,116
102248,note_on,240,0,13,,,,,,,,,12,,,,60,112
102252,note_on,18,0,14,,,,,,,,,13,,,,64,112
102254,note_on,240,0,15,,,,,,,,,14,,,,36,112
102255,note_on,120,0,10,,,,,,,,,15,,,,43,0
102255,note_on,0,0,10,,,,,,,,,15,,,,48,35
102270,note_on,30,0,11,,,,,,,,,10,,,,60,0
102273,note_on,30,0,12,,,,,,,,,11,,,,60,0
102278,note_on,30,0,13,,,,,,,,,12,,,,60,0
102284,note_on,30,0,15,,,,,,,,,14,,,,36,0
102300,note_on,30,0,11,,,,,,,,,10,,,,60,112
102303,note_on,30,0,12,,,,,,,,,11,,,,60,112
102308,note_on,30,0,13,,,,,,,,,12,,,,60,112
102314,note_on,30,0,15,,,,,,,,,14,,,,36,112
102330,note_on,30,0,11,,,,,,,,,10,,,,60,0
102333,note_on,30,0,12,,,,,,,,,11,,,,60,0
102338,note_on,30,0,13,,,,,,,,,12,,,,60,0
102344,note_on,30,0,15,,,,,,,,,14,,,,36,0
102360,set_tempo,120,1,0,,,,,,263158,,,,,,,,
102360,note_on,30,0,11,,,,,,,,,10,,,,62,112
102361,note_on,0,0,1,,,,,,,,,0,,,,79,101
102361,note_on,120,0,1,,,,,,,,,0,,,,72,0
102361,note_on,0,0,1,,,,,,,,,0,,,,76,0
102361,note_on,0,0,1,,,,,,,,,0,,,,76,101
102363,note_on,30,0,12,,,,,,,,,11,,,,62,112
102364,note_on,0,0,2,,,,,,,,,1,,,,72,0
102364,note_on,0,0,2,,,,,,,,,1,,,,76,100
102364,note_on,0,0,2,,,,,,,,,1,,,,79,100
102364,note_on,120,0,2,,,,,,,,,1,,,,76,0
102365,note_on,120,0,3,,,,,,,,,2,,,,64,0
102365,note_on,0,0,3,,,,,,,,,2,,,,60,0
102365,note_on,0,0,3,,,,,,,,,2,,,,67,101
102365,note_on,0,0,3,,,,,,,,,2,,,,64,101
102368,note_on,30,0,13,,,,,,,,,12,,,,62,112
102374,note_on,30,0,15,,,,,,,,,14,,,,38,112
102375,note_on,120,0,10,,,,,,,,,15,,,,48,0
102390,note_on,30,0,11,,,,,,,,,10,,,,62,0
102393,note_on,30,0,12,,,,,,,,,11,,,,62,0
102398,note_on,30,0,13,,,,,,,,,12,,,,62,0
102404,note_on,30,0,15,,,,,,,,,14,,,,38,0
102420,note_on,30,0,11,,,,,,,,,10,,,,60,112
102423,note_on,30,0,12,,,,,,,,,11,,,,60,112
102428,note_on,30,0,13,,,,,,,,,12,,,,60,112
102434,note_on,30,0,15,,,,,,,,,14,,,,36,112
102450,note_on,30,0,11,,,,,,,,,10,,,,60,0
102453,note_on,30,0,12,,,,,,,,,11,,,,60,0
102458,note_on,30,0,13,,,,,,,,,12,,,,60,0
102464,note_on,30,0,15,,,,,,,,,14,,,,36,0
102480,set_tempo,120,1,0,,,,,,307692,,,,,,,,
102480,note_on,30,0,11,,,,,,,,,10,,,,62,112
102481,note_on,0,0,1,,,,,,,,,0,,,,79,101
102481,note_on,120,0,1,,,,,,,,,0,,,,76,0
102481,note_on,0,0,1,,,,,,,,,0,,,,76,101
102481,note_on,0,0,1,,,,,,,,,0,,,,79,0
102483,note_on,30,0,12,,,,,,,,,11,,,,62,112
102484,note_on,0,0,2,,,,,,,,,1,,,,76,100
102484,note_on,0,0,2,,,,,,,,,1,,,,79,0
102484,note_on,120,0,2,,,,,,,,,1,,,,76,0
102484,note_on,0,0,2,,,,,,,,,1,,,,79,100
102485,note_on,120,0,3,,,,,,,,,2,,,,64,0
102485,note_on,0,0,3,,,,,,,,,2,,,,67,0
102485,note_on,0,0,3,,,,,,,,,2,,,,64,101
102485,note_on,0,0,3,,,,,,,,,2,,,,67,101
102488,note_on,30,0,13,,,,,,,,,12,,,,62,112
102492,note_on,240,0,14,,,,,,,,,13,,,,64,0
102492,note_on,0,0,14,,,,,,,,,13,,,,60,112
102494,note_on,30,0,15,,,,,,,,,14,,,,38,112
102510,note_on,30,0,11,,,,,,,,,10,,,,62,0
102513,note_on,30,0,12,,,,,,,,,11,,,,62,0
102518,note_on,30,0,13,,,,,,,,,12,,,,62,0
102524,note_on,30,0,15,,,,,,,,,14,,,,38,0
102540,note_on,30,0,11,,,,,,,,,10,,,,60,112
102541,note_on,0,0,1,,,,,,,,,0,,,,79,0
102541,note_on,60,0,1,,,,,,,,,0,,,,76,0
102543,note_on,30,0,12,,,,,,,,,11,,,,60,112
102544,note_on,0,0,2,,,,,,,,,1,,,,79,0
102544,note_on,60,0,2,,,,,,,,,1,,,,76,0
102545,note_on,60,0,3,,,,,,,,,2,,,,67,0
102545,note_on,0,0,3,,,,,,,,,2,,,,64,0
102548,note_on,30,0,13,,,,,,,,,12,,,,60,112
102554,note_on,30,0,15,,,,,,,,,14,,,,36,112
102570,note_on,30,0,11,,,,,,,,,10,,,,60,0
102573,note_on,30,0,12,,,,,,,,,11,,,,60,0
102578,note_on,30,0,13,,,,,,,,,12,,,,60,0
102584,note_on,30,0,15,,,,,,,,,14,,,,36,0
102600,note_on,30,0,11,,,,,,,,,10,,,,72,112
102600,control_change,0,0,11,,,,,,,,,10,11,102,,,
102600,set_tempo,120,1,0,,,,,,254237,,,,,,,,
102601,note_on,0,0,1,,,,,,,,,0,,,,84,101
102601,control_change,0,0,1,,,,,,,,,0,11,86,,,
102601,note_on,60,0,1,,,,,,,,,0,,,,79,101
102602,control_change,3120,0,7,,,,,,,,,6,11,102,,,
102603,note_on,3120,0,5,,,,,,,,,4,,,,64,100
102603,control_change,0,0,5,,,,,,,,,4,11,102,,,
102603,note_on,30,0,12,,,,,,,,,11,,,,72,112
102603,control_change,0,0,12,,,,,,,,,11,11,102,,,
102604,control_change,3120,0,6,,,,,,,,,5,11,102,,,
102604,note_on,0,0,6,,,,,,,,,5,,,,60,100
102604,control_change,0,0,2,,,,,,,,,1,11,86,,,
102604,note_on,0,0,2,,,,,,,,,1,,,,72,100
102604,note_on,60,0,2,,,,,,,,,1,,,,76,100
102605,control_change,0,0,3,,,,,,,,,2,11,86,,,
102605,note_on,0,0,3,,,,,,,,,2,,,,72,101
102605,note_on,60,0,3,,,,,,,,,2,,,,67,101
102607,control_change,3120,0,8,,,,,,,,,7,11,102,,,
102607,program_change,29,0,13,,,,,,,,50,12,,,,,
102607,note_on,115,0,14,,,,,,,,,13,,,,60,0
102608,control_change,1,0,13,,,,,,,,,12,11,102,,,
102608,note_on,0,0,13,,,,,,,,,12,,,,72,112
102609,note_on,0,0,4,,,,,,,,,3,,,,60,100
102609,control_change,0,0,4,,,,,,,,,3,11,97,,,
102609,note_on,3120,0,4,,,,,,,,,3,,,,64,100
102612,note_on,0,0,14,,,,,,,,,13,,,,60,112
102612,control_change,5,0,14,,,,,,,,,13,11,102,,,
102613,control_change,3120,0,9,,,,,,,,,8,11,102,,,
102614,control_change,30,0,15,,,,,,,,,14,11,102,,,
102614,note_on,0,0,15,,,,,,,,,14,,,,48,112
102630,note_on,30,0,11,,,,,,,,,10,,,,72,0
102633,note_on,30,0,12,,,,,,,,,11,,,,72,0
102638,note_on,30,0,13,,,,,,,,,12,,,,72,0
102642,note_on,30,0,14,,,,,,,,,13,,,,60,0
102659,note_on,45,0,15,,,,,,,,,14,,,,48,0
102660,note_on,30,0,11,,,,,,,,,10,,,,72,112
102661,note_on,60,0,1,,,,,,,,,0,,,,84,0
102661,note_on,0,0,1,,,,,,,,,0,,,,79,0
102663,note_on,60,0,5,,,,,,,,,4,,,,64,0
102663,note_on,30,0,12,,,,,,,,,11,,,,72,112
102664,note_on,60,0,6,,,,,,,,,5,,,,60,0
102664,note_on,60,0,2,,,,,,,,,1,,,,72,0
102664,note_on,0,0,2,,,,,,,,,1,,,,76,0
102665,note_on,60,0,3,,,,,,,,,2,,,,72,0
102665,note_on,0,0,3,,,,,,,,,2,,,,67,0
102668,note_on,30,0,13,,,,,,,,,12,,,,72,112
102669,note_on,60,0,4,,,,,,,,,3,,,,60,0
102669,note_on,0,0,4,,,,,,,,,3,,,,64,0
102672,note_on,30,0,14,,,,,,,,,13,,,,60,112
102674,note_on,15,0,15,,,,,,,,,14,,,,48,112
102690,note_on,30,0,11,,,,,,,,,10,,,,72,0
102693,note_on,30,0,12,,,,,,,,,11,,,,72,0
102698,note_on,30,0,13,,,,,,,,,12,,,,72,0
102702,note_on,30,0,14,,,,,,,,,13,,,,60,0
102704,note_on,30,0,15,,,,,,,,,14,,,,48,0
102720,set_tempo,120,1,0,,,,,,263158,,,,,,,,
102720,note_on,30,0,11,,,,,,,,,10,,,,71,112
102721,note_on,60,0,1,,,,,,,,,0,,,,84,101
102721,note_on,0,0,1,,,,,,,,,0,,,,79,101
102723,note_on,30,0,12,,,,,,,,,11,,,,71,112
102723,note_on,60,0,5,,,,,,,,,4,,,,64,100
102724,note_on,0,0,2,,,,,,,,,1,,,,72,100
102724,note_on,60,0,2,,,,,,,,,1,,,,76,100
102724,note_on,60,0,6,,,,,,,,,5,,,,60,100
102725,note_on,0,0,3,,,,,,,,,2,,,,67,101
102725,note_on,60,0,3,,,,,,,,,2,,,,72,101
102728,note_on,30,0,13,,,,,,,,,12,,,,71,112
102729,note_on,0,0,4,,,,,,,,,3,,,,64,100
102729,note_on,60,0,4,,,,,,,,,3,,,,60,100
102732,note_on,30,0,14,,,,,,,,,13,,,,59,112
102734,note_on,30,0,15,,,,,,,,,14,,,,47,112
102750,note_on,30,0,11,,,,,,,,,10,,,,71,0
102753,note_on,30,0,12,,,,,,,,,11,,,,71,0
102758,note_on,30,0,13,,,,,,,,,12,,,,71,0
102762,note_on,30,0,14,,,,,,,,,13,,,,59,0
102764,note_on,30,0,15,,,,,,,,,14,,,,47,0
102780,note_on,30,0,11,,,,,,,,,10,,,,72,112
102781,note_on,60,0,1,,,,,,,,,0,,,,79,0
102781,note_on,0,0,1,,,,,,,,,0,,,,84,0
102783,note_on,30,0,12,,,,,,,,,11,,,,72,112
102783,note_on,60,0,5,,,,,,,,,4,,,,64,0
102784,note_on,0,0,2,,,,,,,,,1,,,,76,0
102784,note_on,60,0,6,,,,,,,,,5,,,,60,0
102784,note_on,60,0,2,,,,,,,,,1,,,,72,0
102785,note_on,0,0,3,,,,,,,,,2,,,,72,0
102785,note_on,60,0,3,,,,,,,,,2,,,,67,0
102788,note_on,30,0,13,,,,,,,,,12,,,,72,112
102789,note_on,60,0,4,,,,,,,,,3,,,,64,0
102789,note_on,0,0,4,,,,,,,,,3,,,,60,0
102792,note_on,30,0,14,,,,,,,,,13,,,,60,112
102794,note_on,30,0,15,,,,,,,,,14,,,,48,112
102810,note_on,30,0,11,,,,,,,,,10,,,,72,0
102813,note_on,30,0,12,,,,,,,,,11,,,,72,0
102818,note_on,30,0,13,,,,,,,,,12,,,,72,0
102822,note_on,30,0,14,,,,,,,,,13,,,,60,0
102824,note_on,30,0,15,,,,,,,,,14,,,,48,0
102840,set_tempo,120,1,0,,,,,,279070,,,,,,,,
102840,note_on,30,0,11,,,,,,,,,10,,,,71,112
102842,note_on,0,0,7,,,,,,,,,6,,,,60,112
102842,note_on,240,0,7,,,,,,,,,6,,,,72,112
102843,note_on,30,0,12,,,,,,,,,11,,,,71,112
102848,note_on,30,0,13,,,,,,,,,12,,,,71,112
102852,note_on,30,0,14,,,,,,,,,13,,,,59,112
102854,note_on,30,0,15,,,,,,,,,14,,,,47,112
102855,note_on,480,0,10,,,,,,,,,15,,,,48,100
102870,note_on,30,0,11,,,,,,,,,10,,,,71,0
102873,note_on,30,0,12,,,,,,,,,11,,,,71,0
102878,note_on,30,0,13,,,,,,,,,12,,,,71,0
102882,note_on,30,0,14,,,,,,,,,13,,,,59,0
102884,note_on,30,0,15,,,,,,,,,14,,,,47,0
102900,note_on,30,0,11,,,,,,,,,10,,,,69,112
102903,note_on,30,0,12,,,,,,,,,11,,,,69,112
102908,note_on,30,0,13,,,,,,,,,12,,,,69,112
102912,note_on,30,0,14,,,,,,,,,13,,,,57,112
102914,note_on,30,0,15,,,,,,,,,14,,,,45,112
102930,note_on,30,0,11,,,,,,,,,10,,,,69,0
102933,note_on,30,0,12,,,,,,,,,11,,,,69,0
102938,note_on,30,0,13,,,,,,,,,12,,,,69,0
102942,note_on,30,0,14,,,,,,,,,13,,,,57,0
102944,note_on,30,0,15,,,,,,,,,14,,,,45,0
102960,control_change,30,0,11,,,,,,,,,10,11,122,,,
102960,set_tempo,120,1,0,,,,,,254237,,,,,,,,
102960,note_on,0,0,11,,,,,,,,,10,,,,67,112
102961,note_on,180,0,1,,,,,,,,,0,,,,83,116
102961,note_on,0,0,1,,,,,,,,,0,,,,86,116
102962,note_on,120,0,7,,,,,,,,,6,,,,60,0
102962,note_on,0,0,7,,,,,,,,,6,,,,72,0
102963,control_change,30,0,12,,,,,,,,,11,11,122,,,
102963,note_on,180,0,5,,,,,,,,,4,,,,67,115
102963,note_on,0,0,12,,,,,,,,,11,,,,67,112
102964,note_on,180,0,2,,,,,,,,,1,,,,79,115
102964,control_change,4,0,11,,,,,,,,,10,11,119,,,
102964,note_on,0,0,2,,,,,,,,,1,,,,74,115
102964,note_on,180,0,6,,,,,,,,,5,,,,55,115
102965,note_on,180,0,3,,,,,,,,,2,,,,74,116
102965,note_on,0,0,3,,,,,,,,,2,,,,71,116
102967,control_change,4,0,12,,,,,,,,,11,11,119,,,
102968,note_on,30,0,13,,,,,,,,,12,,,,67,112
102968,control_change,0,0,13,,,,,,,,,12,11,122,,,
102969,note_on,0,0,4,,,,,,,,,3,,,,62,115
102969,note_on,180,0,4,,,,,,,,,3,,,,59,115
102969,control_change,5,0,11,,,,,,,,,10,11,116,,,
102972,control_change,4,0,13,,,,,,,,,12,11,119,,,
102972,control_change,5,0,12,,,,,,,,,11,11,116,,,
102972,control_change,30,0,14,,,,,,,,,13,11,122,,,
102972,note_on,0,0,14,,,,,,,,,13,,,,55,112
102973,control_change,4,0,11,,,,,,,,,10,11,113,,,
102974,note_on,0,0,15,,,,,,,,,14,,,,43,112
102974,control_change,30,0,15,,,,,,,,,14,11,122,,,
102975,note_on,120,0,10,,,,,,,,,15,,,,48,0
102976,control_change,4,0,14,,,,,,,,,13,11,119,,,
102976,control_change,4,0,12,,,,,,,,,11,11,113,,,
102977,control_change,5,0,13,,,,,,,,,12,11,116,,,
102978,control_change,5,0,11,,,,,,,,,10,11,110,,,
102978,control_change,4,0,15,,,,,,,,,14,11,119,,,
102981,control_change,5,0,14,,,,,,,,,13,11,116,,,
102981,control_change,4,0,13,,,,,,,,,12,11,113,,,
102981,control_change,5,0,12,,,,,,,,,11,11,110,,,
102982,control_change,4,0,11,,,,,,,,,10,11,107,,,
102983,control_change,5,0,15,,,,,,,,,14,11,116,,,
102985,control_change,4,0,12,,,,,,,,,11,11,107,,,
102985,control_change,4,0,14,,,,,,,,,13,11,113,,,
102986,control_change,5,0,13,,,,,,,,,12,11,110,,,
102987,control_change,4,0,15,,,,,,,,,14,11,113,,,
102987,control_change,5,0,11,,,,,,,,,10,11,104,,,
102990,note_on,3,0,11,,,,,,,,,10,,,,67,0
102990,control_change,5,0,14,,,,,,,,,13,11,110,,,
102990,control_change,5,0,12,,,,,,,,,11,11,104,,,
102990,control_change,4,0,13,,,,,,,,,12,11,107,,,
102992,control_change,5,0,15,,,,,,,,,14,11,110,,,
102993,note_on,3,0,12,,,,,,,,,11,,,,67,0
102994,control_change,4,0,14,,,,,,,,,13,11,107,,,
102995,control_change,5,0,13,,,,,,,,,12,11,104,,,
102996,control_change,4,0,15,,,,,,,,,14,11,107,,,
102998,note_on,3,0,13,,,,,,,,,12,,,,67,0
102999,control_change,5,0,14,,,,,,,,,13,11,104,,,
103001,control_change,5,0,15,,,,,,,,,14,11,104,,,
103002,note_on,3,0,14,,,,,,,,,13,,,,55,0
103004,note_on,3,0,15,,,,,,,,,14,,,,43,0
103020,note_on,30,0,11,,,,,,,,,10,,,,67,112
103021,note_on,60,0,1,,,,,,,,,0,,,,86,0
103021,note_on,0,0,1,,,,,,,,,0,,,,83,0
103023,note_on,30,0,12,,,,,,,,,11,,,,67,112
103023,note_on,60,0,5,,,,,,,,,4,,,,67,0
103024,note_on,60,0,6,,,,,,,,,5,,,,55,0
103024,note_on,60,0,2,,,,,,,,,1,,,,74,0
103024,note_on,0,0,2,,,,,,,,,1,,,,79,0
103025,note_on,0,0,3,,,,,,,,,2,,,,74,0
103025,note_on,60,0,3,,,,,,,,,2,,,,71,0
103028,note_on,30,0,13,,,,,,,,,12,,,,67,112
103029,note_on,0,0,4,,,,,,,,,3,,,,59,0
103029,note_on,60,0,4,,,,,,,,,3,,,,62,0
103032,note_on,30,0,14,,,,,,,,,13,,,,55,112
103034,note_on,30,0,15,,,,,,,,,14,,,,43,112
103050,note_on,30,0,11,,,,,,,,,10,,,,67,0
103053,note_on,30,0,12,,,,,,,,,11,,,,67,0
103058,note_on,30,0,13,,,,,,,,,12,,,,67,0
103062,note_on,30,0,14,,,,,,,,,13,,,,55,0
103064,note_on,30,0,15,,,,,,,,,14,,,,43,0
103080,set_tempo,120,1,0,,,,,,263158,,,,,,,,
103080,note_on,30,0,11,,,,,,,,,10,,,,66,112
103081,note_on,0,0,1,,,,,,,,,0,,,,86,101
103081,note_on,60,0,1,,,,,,,,,0,,,,82,101
103083,note_on,30,0,12,,,,,,,,,11,,,,66,112
103083,note_on,60,0,5,,,,,,,,,4,,,,67,100
103084,note_on,60,0,6,,,,,,,,,5,,,,55,100
103084,note_on,0,0,2,,,,,,,,,1,,,,74,100
103084,note_on,60,0,2,,,,,,,,,1,,,,79,100
103085,note_on,0,0,3,,,,,,,,,2,,,,74,101
103085,note_on,60,0,3,,,,,,,,,2,,,,70,101
103088,note_on,30,0,13,,,,,,,,,12,,,,66,112
103089,note_on,0,0,4,,,,,,,,,3,,,,62,100
103089,note_on,60,0,4,,,,,,,,,3,,,,58,100
103092,note_on,30,0,14,,,,,,,,,13,,,,54,112
103094,note_on,30,0,15,,,,,,,,,14,,,,42,112
103110,note_on,30,0,11,,,,,,,,,10,,,,66,0
103113,note_on,30,0,12,,,,,,,,,11,,,,66,0
103118,note_on,30,0,13,,,,,,,,,12,,,,66,0
103122,note_on,30,0,14,,,,,,,,,13,,,,54,0
103124,note_on,30,0,15,,,,,,,,,14,,,,42,0
103140,note_on,30,0,11,,,,,,,,,10,,,,67,112
103141,note_on,60,0,1,,,,,,,,,0,,,,86,0
103141,note_on,0,0,1,,,,,,,,,0,,,,82,0
103143,note_on,60,0,5,,,,,,,,,4,,,,67,0
103143,note_on,30,0,12,,,,,,,,,11,,,,67,112
103144,note_on,60,0,6,,,,,,,,,5,,,,55,0
103144,note_on,60,0,2,,,,,,,,,1,,,,74,0
103144,note_on,0,0,2,,,,,,,,,1,,,,79,0
103145,note_on,0,0,3,,,,,,,,,2,,,,70,0
103145,note_on,60,0,3,,,,,,,,,2,,,,74,0
103148,note_on,30,0,13,,,,,,,,,12,,,,67,112
103149,note_on,0,0,4,,,,,,,,,3,,,,58,0
103149,note_on,60,0,4,,,,,,,,,3,,,,62,0
103152,note_on,30,0,14,,,,,,,,,13,,,,55,112
103154,note_on,30,0,15,,,,,,,,,14,,,,43,112
103170,note_on,30,0,11,,,,,,,,,10,,,,67,0
103173,note_on,30,0,12,,,,,,,,,11,,,,67,0
103178,note_on,30,0,13,,,,,,,,,12,,,,67,0
103182,note_on,30,0,14,,,,,,,,,13,,,,55,0
103184,note_on,30,0,15,,,,,,,,,14,,,,43,0
103200,note_on,30,0,11,,,,,,,,,10,,,,65,112
103200,set_tempo,120,1,0,,,,,,279070,,,,,,,,
103202,note_on,0,0,7,,,,,,,,,6,,,,67,112
103202,note_on,240,0,7,,,,,,,,,6,,,,55,112
103203,note_on,30,0,12,,,,,,,,,11,,,,65,112
103208,note_on,30,0,13,,,,,,,,,12,,,,65,112
103212,note_on,30,0,14,,,,,,,,,13,,,,53,112
103214,note_on,30,0,15,,,,,,,,,14,,,,41,112
103215,note_on,240,0,10,,,,,,,,,15,,,,43,100
103230,note_on,30,0,11,,,,,,,,,10,,,,65,0
103233,note_on,30,0,12,,,,,,,,,11,,,,65,0
103238,note_on,30,0,13,,,,,,,,,12,,,,65,0
103242,note_on,30,0,14,,,,,,,,,13,,,,53,0
103244,note_on,30,0,15,,,,,,,,,14,,,,41,0
103260,note_on,30,0,11,,,,,,,,,10,,,,64,112
103263,note_on,30,0,12,,,,,,,,,11,,,,64,112
103268,note_on,30,0,13,,,,,,,,,12,,,,64,112
103272,note_on,30,0,14,,,,,,,,,13,,,,52,112
103274,note_on,30,0,15,,,,,,,,,14,,,,40,112
103290,note_on,30,0,11,,,,,,,,,10,,,,64,0
103293,note_on,30,0,12,,,,,,,,,11,,,,64,0
103298,note_on,30,0,13,,,,,,,,,12,,,,64,0
103302,note_on,30,0,14,,,,,,,,,13,,,,52,0
103304,note_on,30,0,15,,,,,,,,,14,,,,40,0
103320,note_on,30,0,11,,,,,,,,,10,,,,62,112
103320,control_change,0,0,11,,,,,,,,,10,11,122,,,
103320,set_tempo,120,1,0,,,,,,254237,,,,,,,,
103321,note_on,0,0,1,,,,,,,,,0,,,,86,116
103321,note_on,180,0,1,,,,,,,,,0,,,,81,116
103322,note_on,0,0,7,,,,,,,,,6,,,,55,0
103322,note_on,120,0,7,,,,,,,,,6,,,,67,0
103323,control_change,30,0,12,,,,,,,,,11,11,122,,,
103323,note_on,0,0,12,,,,,,,,,11,,,,62,112
103323,note_on,180,0,5,,,,,,,,,4,,,,62,115
103324,control_change,4,0,11,,,,,,,,,10,11,119,,,
103324,note_on,180,0,2,,,,,,,,,1,,,,74,115
103324,note_on,0,0,2,,,,,,,,,1,,,,78,115
103324,note_on,180,0,6,,,,,,,,,5,,,,62,115
103325,note_on,0,0,3,,,,,,,,,2,,,,69,116
103325,note_on,180,0,3,,,,,,,,,2,,,,74,116
103327,control_change,4,0,12,,,,,,,,,11,11,119,,,
103328,note_on,30,0,13,,,,,,,,,12,,,,62,112
103328,control_change,0,0,13,,,,,,,,,12,11,122,,,
103329,note_on,180,0,4,,,,,,,,,3,,,,57,115
103329,note_on,0,0,4,,,,,,,,,3,,,,66,115
103329,control_change,5,0,11,,,,,,,,,10,11,116,,,
103332,control_change,4,0,13,,,,,,,,,12,11,119,,,
103332,note_on,0,0,14,,,,,,,,,13,,,,50,112
103332,control_change,30,0,14,,,,,,,,,13,11,122,,,
103332,control_change,5,0,12,,,,,,,,,11,11,116,,,
103333,control_change,4,0,11,,,,,,,,,10,11,113,,,
103334,note_on,0,0,15,,,,,,,,,14,,,,38,112
103334,control_change,30,0,15,,,,,,,,,14,11,122,,,
103335,note_on,120,0,10,,,,,,,,,15,,,,43,0
103336,control_change,4,0,14,,,,,,,,,13,11,119,,,
103336,control_change,4,0,12,,,,,,,,,11,11,113,,,
103337,control_change,5,0,13,,,,,,,,,12,11,116,,,
103338,control_change,5,0,11,,,,,,,,,10,11,110,,,
103338,control_change,4,0,15,,,,,,,,,14,11,119,,,
103341,control_change,5,0,14,,,,,,,,,13,11,116,,,
103341,control_change,5,0,12,,,,,,,,,11,11,110,,,
103341,control_change,4,0,13,,,,,,,,,12,11,113,,,
103342,control_change,4,0,11,,,,,,,,,10,11,107,,,
103343,control_change,5,0,15,,,,,,,,,14,11,116,,,
103345,control_change,4,0,12,,,,,,,,,11,11,107,,,
103345,control_change,4,0,14,,,,,,,,,13,11,113,,,
103346,control_change,5,0,13,,,,,,,,,12,11,110,,,
103347,control_change,4,0,15,,,,,,,,,14,11,113,,,
103347,control_change,5,0,11,,,,,,,,,10,11,104,,,
103350,control_change,5,0,14,,,,,,,,,13,11,110,,,
103350,control_change,5,0,12,,,,,,,,,11,11,104,,,
103350,note_on,3,0,11,,,,,,,,,10,,,,62,0
103350,control_change,4,0,13,,,,,,,,,12,11,107,,,
103352,control_change,5,0,15,,,,,,,,,14,11,110,,,
103353,note_on,3,0,12,,,,,,,,,11,,,,62,0
103354,control_change,4,0,14,,,,,,,,,13,11,107,,,
103355,control_change,5,0,13,,,,,,,,,12,11,104,,,
103356,control_change,4,0,15,,,,,,,,,14,11,107,,,
103358,note_on,3,0,13,,,,,,,,,12,,,,62,0
103359,control_change,5,0,14,,,,,,,,,13,11,104,,,
103361,control_change,5,0,15,,,,,,,,,14,11,104,,,
103362,note_on,3,0,14,,,,,,,,,13,,,,50,0
103364,note_on,3,0,15,,,,,,,,,14,,,,38,0
103380,note_on,30,0,11,,,,,,,,,10,,,,62,112
103381,note_on,60,0,1,,,,,,,,,0,,,,86,0
103381,note_on,0,0,1,,,,,,,,,0,,,,81,0
103383,note_on,30,0,12,,,,,,,,,11,,,,62,112
103383,note_on,60,0,5,,,,,,,,,4,,,,62,0
103384,note_on,60,0,2,,,,,,,,,1,,,,78,0
103384,note_on,60,0,6,,,,,,,,,5,,,,62,0
103384,note_on,0,0,2,,,,,,,,,1,,,,74,0
103385,note_on,60,0,3,,,,,,,,,2,,,,69,0
103385,note_on,0,0,3,,,,,,,,,2,,,,74,0
103388,note_on,30,0,13,,,,,,,,,12,,,,62,112
103389,note_on,0,0,4,,,,,,,,,3,,,,57,0
103389,note_on,60,0,4,,,,,,,,,3,,,,66,0
103392,note_on,30,0,14,,,,,,,,,13,,,,50,112
103394,note_on,30,0,15,,,,,,,,,14,,,,38,112
103410,note_on,30,0,11,,,,,,,,,10,,,,62,0
103413,note_on,30,0,12,,,,,,,,,11,,,,62,0
103418,note_on,30,0,13,,,,,,,,,12,,,,62,0
103422,note_on,30,0,14,,,,,,,,,13,,,,50,0
103424,note_on,30,0,15,,,,,,,,,14,,,,38,0
103440,note_on,30,0,11,,,,,,,,,10,,,,61,112
103440,set_tempo,120,1,0,,,,,,263158,,,,,,,,
103441,note_on,0,0,1,,,,,,,,,0,,,,86,101
103441,note_on,60,0,1,,,,,,,,,0,,,,81,101
103443,note_on,30,0,12,,,,,,,,,11,,,,61,112
103443,note_on,60,0,5,,,,,,,,,4,,,,62,100
103444,note_on,60,0,6,,,,,,,,,5,,,,62,100
103444,note_on,60,0,2,,,,,,,,,1,,,,77,100
103444,note_on,0,0,2,,,,,,,,,1,,,,74,100
103445,note_on,60,0,3,,,,,,,,,2,,,,74,101
103445,note_on,0,0,3,,,,,,,,,2,,,,69,101
103448,note_on,30,0,13,,,,,,,,,12,,,,61,112
103449,note_on,60,0,4,,,,,,,,,3,,,,65,100
103449,note_on,0,0,4,,,,,,,,,3,,,,57,100
103452,note_on,30,0,14,,,,,,,,,13,,,,49,112
103454,note_on,30,0,15,,,,,,,,,14,,,,37,112
103470,note_on,30,0,11,,,,,,,,,10,,,,61,0
103473,note_on,30,0,12,,,,,,,,,11,,,,61,0
103478,note_on,30,0,13,,,,,,,,,12,,,,61,0
103482,note_on,30,0,14,,,,,,,,,13,,,,49,0
103484,note_on,30,0,15,,,,,,,,,14,,,,37,0
103500,note_on,30,0,11,,,,,,,,,10,,,,62,112
103501,note_on,0,0,1,,,,,,,,,0,,,,81,0
103501,note_on,60,0,1,,,,,,,,,0,,,,86,0
103503,note_on,30,0,12,,,,,,,,,11,,,,62,112
103503,note_on,60,0,5,,,,,,,,,4,,,,62,0
103504,note_on,60,0,2,,,,,,,,,1,,,,74,0
103504,note_on,60,0,6,,,,,,,,,5,,,,62,0
103504,note_on,0,0,2,,,,,,,,,1,,,,77,0
103505,note_on,0,0,3,,,,,,,,,2,,,,74,0
103505,note_on,60,0,3,,,,,,,,,2,,,,69,0
103508,note_on,30,0,13,,,,,,,,,12,,,,62,112
103509,note_on,0,0,4,,,,,,,,,3,,,,65,0
103509,note_on,60,0,4,,,,,,,,,3,,,,57,0
103512,note_on,30,0,14,,,,,,,,,13,,,,50,112
103514,note_on,30,0,15,,,,,,,,,14,,,,38,112
103530,note_on,30,0,11,,,,,,,,,10,,,,62,0
103533,note_on,30,0,12,,,,,,,,,11,,,,62,0
103538,note_on,30,0,13,,,,,,,,,12,,,,62,0
103542,note_on,30,0,14,,,,,,,,,13,,,,50,0
103544,note_on,30,0,15,,,,,,,,,14,,,,38,0
103560,set_tempo,120,1,0,,,,,,279070,,,,,,,,
103560,note_on,30,0,11,,,,,,,,,10,,,,60,112
103563,note_on,30,0,12,,,,,,,,,11,,,,60,112
103567,note_on,960,0,8,,,,,,,,,7,,,,50,110
103567,note_on,0,0,8,,,,,,,,,7,,,,62,110
103568,note_on,30,0,13,,,,,,,,,12,,,,60,112
103572,note_on,30,0,14,,,,,,,,,13,,,,48,112
103573,note_on,960,0,9,,,,,,,,,8,,,,50,110
103574,note_on,30,0,15,,,,,,,,,14,,,,36,112
103590,note_on,30,0,11,,,,,,,,,10,,,,60,0
103593,note_on,30,0,12,,,,,,,,,11,,,,60,0
103598,note_on,30,0,13,,,,,,,,,12,,,,60,0
103602,note_on,30,0,14,,,,,,,,,13,,,,48,0
103604,note_on,30,0,15,,,,,,,,,14,,,,36,0
103620,note_on,30,0,11,,,,,,,,,10,,,,59,112
103623,note_on,30,0,12,,,,,,,,,11,,,,59,112
103628,note_on,30,0,13,,,,,,,,,12,,,,59,112
103632,note_on,30,0,14,,,,,,,,,13,,,,47,112
103634,note_on,30,0,15,,,,,,,,,14,,,,35,112
103650,note_on,30,0,11,,,,,,,,,10,,,,59,0
103653,note_on,30,0,12,,,,,,,,,11,,,,59,0
103658,note_on,30,0,13,,,,,,,,,12,,,,59,0
103662,note_on,30,0,14,,,,,,,,,13,,,,47,0
103664,note_on,30,0,15,,,,,,,,,14,,,,35,0
103680,set_tempo,120,1,0,,,,,,254237,,,,,,,,
103680,note_on,0,0,11,,,,,,,,,10,,,,57,112
103680,control_change,30,0,11,,,,,,,,,10,11,122,,,
103681,note_on,0,0,1,,,,,,,,,0,,,,88,116
103681,note_on,180,0,1,,,,,,,,,0,,,,85,116
103683,note_on,180,0,5,,,,,,,,,4,,,,64,115
103683,control_change,0,0,12,,,,,,,,,11,11,122,,,
103683,note_on,30,0,12,,,,,,,,,11,,,,57,112
103684,note_on,180,0,2,,,,,,,,,1,,,,81,115
103684,note_on,180,0,6,,,,,,,,,5,,,,64,115
103684,note_on,0,0,2,,,,,,,,,1,,,,76,115
103684,control_change,4,0,11,,,,,,,,,10,11,119,,,
103685,note_on,0,0,3,,,,,,,,,2,,,,76,116
103685,note_on,180,0,3,,,,,,,,,2,,,,73,116
103687,note_on,0,0,8,,,,,,,,,7,,,,50,0
103687,control_change,4,0,12,,,,,,,,,11,11,119,,,
103687,note_on,120,0,8,,,,,,,,,7,,,,62,0
103688,note_on,0,0,13,,,,,,,,,12,,,,57,112
103688,control_change,30,0,13,,,,,,,,,12,11,122,,,
103689,control_change,5,0,11,,,,,,,,,10,11,116,,,
103689,note_on,180,0,4,,,,,,,,,3,,,,57,115
103689,note_on,0,0,4,,,,,,,,,3,,,,61,115
103692,control_change,0,0,14,,,,,,,,,13,11,122,,,
103692,control_change,5,0,12,,,,,,,,,11,11,116,,,
103692,note_on,30,0,14,,,,,,,,,13,,,,45,112
103692,control_change,4,0,13,,,,,,,,,12,11,119,,,
103693,note_on,120,0,9,,,,,,,,,8,,,,50,0
103693,control_change,4,0,11,,,,,,,,,10,11,113,,,
103694,note_on,0,0,15,,,,,,,,,14,,,,33,112
103694,control_change,30,0,15,,,,,,,,,14,11,122,,,
103696,control_change,4,0,14,,,,,,,,,13,11,119,,,
103696,control_change,4,0,12,,,,,,,,,11,11,113,,,
103697,control_change,5,0,13,,,,,,,,,12,11,116,,,
103698,control_change,4,0,15,,,,,,,,,14,11,119,,,
103698,control_change,5,0,11,,,,,,,,,10,11,110,,,
103701,control_change,5,0,14,,,,,,,,,13,11,116,,,
103701,control_change,4,0,13,,,,,,,,,12,11,113,,,
103701,control_change,5,0,12,,,,,,,,,11,11,110,,,
103702,control_change,4,0,11,,,,,,,,,10,11,107,,,
103703,control_change,5,0,15,,,,,,,,,14,11,116,,,
103705,control_change,4,0,12,,,,,,,,,11,11,107,,,
103705,control_change,4,0,14,,,,,,,,,13,11,113,,,
103706,control_change,5,0,13,,,,,,,,,12,11,110,,,
103707,control_change,4,0,15,,,,,,,,,14,11,113,,,
103707,control_change,5,0,11,,,,,,,,,10,11,104,,,
103710,control_change,5,0,12,,,,,,,,,11,11,104,,,
103710,note_on,3,0,11,,,,,,,,,10,,,,57,0
103710,control_change,5,0,14,,,,,,,,,13,11,110,,,
103710,control_change,4,0,13,,,,,,,,,12,11,107,,,
103712,control_change,5,0,15,,,,,,,,,14,11,110,,,
103713,note_on,3,0,12,,,,,,,,,11,,,,57,0
103714,control_change,4,0,14,,,,,,,,,13,11,107,,,
103715,control_change,5,0,13,,,,,,,,,12,11,104,,,
103716,control_change,4,0,15,,,,,,,,,14,11,107,,,
103718,note_on,3,0,13,,,,,,,,,12,,,,57,0
103719,control_change,5,0,14,,,,,,,,,13,11,104,,,
103721,control_change,5,0,15,,,,,,,,,14,11,104,,,
103722,note_on,3,0,14,,,,,,,,,13,,,,45,0
103724,note_on,3,0,15,,,,,,,,,14,,,,33,0
103740,note_on,30,0,11,,,,,,,,,10,,,,69,112
103741,note_on,0,0,1,,,,,,,,,0,,,,85,0
103741,note_on,60,0,1,,,,,,,,,0,,,,88,0
103743,note_on,30,0,12,,,,,,,,,11,,,,69,112
103743,note_on,60,0,5,,,,,,,,,4,,,,64,0
103744,note_on,60,0,6,,,,,,,,,5,,,,64,0
103744,note_on,0,0,2,,,,,,,,,1,,,,81,0
103744,note_on,60,0,2,,,,,,,,,1,,,,76,0
103745,note_on,0,0,3,,,,,,,,,2,,,,73,0
103745,note_on,60,0,3,,,,,,,,,2,,,,76,0
103748,note_on,30,0,13,,,,,,,,,12,,,,69,112
103749,note_on,0,0,4,,,,,,,,,3,,,,57,0
103749,note_on,60,0,4,,,,,,,,,3,,,,61,0
103752,note_on,30,0,14,,,,,,,,,13,,,,57,112
103754,note_on,30,0,15,,,,,,,,,14,,,,45,112
103770,note_on,30,0,11,,,,,,,,,10,,,,69,0
103773,note_on,30,0,12,,,,,,,,,11,,,,69,0
103778,note_on,30,0,13,,,,,,,,,12,,,,69,0
103782,note_on,30,0,14,,,,,,,,,13,,,,57,0
103784,note_on,30,0,15,,,,,,,,,14,,,,45,0
103800,note_on,30,0,11,,,,,,,,,10,,,,68,112
103800,set_tempo,120,1,0,,,,,,263158,,,,,,,,
103801,note_on,60,0,1,,,,,,,,,0,,,,88,101
103801,note_on,0,0,1,,,,,,,,,0,,,,84,101
103803,note_on,60,0,5,,,,,,,,,4,,,,64,100
103803,note_on,30,0,12,,,,,,,,,11,,,,68,112
103804,note_on,60,0,2,,,,,,,,,1,,,,76,100
103804,note_on,60,0,6,,,,,,,,,5,,,,64,100
103804,note_on,0,0,2,,,,,,,,,1,,,,81,100
103805,note_on,60,0,3,,,,,,,,,2,,,,72,101
103805,note_on,0,0,3,,,,,,,,,2,,,,76,101
103808,note_on,30,0,13,,,,,,,,,12,,,,68,112
103809,note_on,0,0,4,,,,,,,,,3,,,,60,100
103809,note_on,60,0,4,,,,,,,,,3,,,,57,100
103812,note_on,30,0,14,,,,,,,,,13,,,,56,112
103814,note_on,30,0,15,,,,,,,,,14,,,,44,112
103830,note_on,30,0,11,,,,,,,,,10,,,,68,0
103833,note_on,30,0,12,,,,,,,,,11,,,,68,0
103838,note_on,30,0,13,,,,,,,,,12,,,,68,0
103842,note_on,30,0,14,,,,,,,,,13,,,,56,0
103844,note_on,30,0,15,,,,,,,,,14,,,,44,0
103860,note_on,30,0,11,,,,,,,,,10,,,,69,112
103861,note_on,0,0,1,,,,,,,,,0,,,,88,0
103861,note_on,60,0,1,,,,,,,,,0,,,,84,0
103863,note_on,60,0,5,,,,,,,,,4,,,,64,0
103863,note_on,30,0,12,,,,,,,,,11,,,,69,112
103864,note_on,60,0,2,,,,,,,,,1,,,,81,0
103864,note_on,0,0,2,,,,,,,,,1,,,,76,0
103864,note_on,60,0,6,,,,,,,,,5,,,,64,0
103865,note_on,60,0,3,,,,,,,,,2,,,,76,0
103865,note_on,0,0,3,,,,,,,,,2,,,,72,0
103868,note_on,30,0,13,,,,,,,,,12,,,,69,112
103869,note_on,0,0,4,,,,,,,,,3,,,,57,0
103869,note_on,60,0,4,,,,,,,,,3,,,,60,0
103872,note_on,30,0,14,,,,,,,,,13,,,,57,112
103874,note_on,30,0,15,,,,,,,,,14,,,,45,112
103890,note_on,30,0,11,,,,,,,,,10,,,,69,0
103893,note_on,30,0,12,,,,,,,,,11,,,,69,0
103898,note_on,30,0,13,,,,,,,,,12,,,,69,0
103902,note_on,30,0,14,,,,,,,,,13,,,,57,0
103904,note_on,30,0,15,,,,,,,,,14,,,,45,0
103920,set_tempo,120,1,0,,,,,,279070,,,,,,,,
103920,note_on,30,0,11,,,,,,,,,10,,,,67,112
103923,note_on,30,0,12,,,,,,,,,11,,,,67,112
103927,note_on,240,0,8,,,,,,,,,7,,,,57,110
103928,note_on,30,0,13,,,,,,,,,12,,,,67,112
103932,note_on,30,0,14,,,,,,,,,13,,,,55,112
103933,note_on,240,0,9,,,,,,,,,8,,,,45,110
103934,note_on,30,0,15,,,,,,,,,14,,,,43,112
103950,note_on,30,0,11,,,,,,,,,10,,,,67,0
103953,note_on,30,0,12,,,,,,,,,11,,,,67,0
103958,note_on,30,0,13,,,,,,,,,12,,,,67,0
103962,note_on,30,0,14,,,,,,,,,13,,,,55,0
103964,note_on,30,0,15,,,,,,,,,14,,,,43,0
103980,note_on,30,0,11,,,,,,,,,10,,,,65,112
103983,note_on,30,0,12,,,,,,,,,11,,,,65,112
103988,note_on,30,0,13,,,,,,,,,12,,,,65,112
103992,note_on,30,0,14,,,,,,,,,13,,,,53,112
103994,note_on,30,0,15,,,,,,,,,14,,,,41,112
104010,note_on,30,0,11,,,,,,,,,10,,,,65,0
104013,note_on,30,0,12,,,,,,,,,11,,,,65,0
104018,note_on,30,0,13,,,,,,,,,12,,,,65,0
104022,note_on,30,0,14,,,,,,,,,13,,,,53,0
104024,note_on,30,0,15,,,,,,,,,14,,,,41,0
104040,set_tempo,120,1,0,,,,,,254237,,,,,,,,
104040,note_on,30,0,11,,,,,,,,,10,,,,64,112
104040,control_change,0,0,11,,,,,,,,,10,11,122,,,
104041,note_on,180,0,1,,,,,,,,,0,,,,83,116
104041,note_on,0,0,1,,,,,,,,,0,,,,88,116
104043,note_on,180,0,5,,,,,,,,,4,,,,64,115
104043,note_on,0,0,12,,,,,,,,,11,,,,64,112
104043,control_change,30,0,12,,,,,,,,,11,11,122,,,
104044,control_change,4,0,11,,,,,,,,,10,11,119,,,
104044,note_on,180,0,6,,,,,,,,,5,,,,52,115
104044,note_on,180,0,2,,,,,,,,,1,,,,76,115
104044,note_on,0,0,2,,,,,,,,,1,,,,80,115
104045,note_on,0,0,3,,,,,,,,,2,,,,68,116
104045,note_on,180,0,3,,,,,,,,,2,,,,71,116
104047,control_change,4,0,12,,,,,,,,,11,11,119,,,
104047,note_on,120,0,8,,,,,,,,,7,,,,57,0
104048,control_change,30,0,13,,,,,,,,,12,11,122,,,
104048,note_on,0,0,13,,,,,,,,,12,,,,64,112
104049,note_on,180,0,4,,,,,,,,,3,,,,59,115
104049,note_on,0,0,4,,,,,,,,,3,,,,56,115
104049,control_change,5,0,11,,,,,,,,,10,11,116,,,
104052,control_change,4,0,13,,,,,,,,,12,11,119,,,
104052,control_change,0,0,14,,,,,,,,,13,11,122,,,
104052,note_on,30,0,14,,,,,,,,,13,,,,52,112
104052,control_change,5,0,12,,,,,,,,,11,11,116,,,
104053,control_change,4,0,11,,,,,,,,,10,11,113,,,
104053,note_on,120,0,9,,,,,,,,,8,,,,45,0
104054,note_on,30,0,15,,,,,,,,,14,,,,40,112
104054,control_change,0,0,15,,,,,,,,,14,11,122,,,
104056,control_change,4,0,14,,,,,,,,,13,11,119,,,
104056,control_change,4,0,12,,,,,,,,,11,11,113,,,
104057,control_change,5,0,13,,,,,,,,,12,11,116,,,
104058,control_change,4,0,15,,,,,,,,,14,11,119,,,
104058,control_change,5,0,11,,,,,,,,,10,11,110,,,
104061,control_change,5,0,14,,,,,,,,,13,11,116,,,
104061,control_change,4,0,13,,,,,,,,,12,11,113,,,
104061,control_change,5,0,12,,,,,,,,,11,11,110,,,
104062,control_change,4,0,11,,,,,,,,,10,11,107,,,
104063,control_change,5,0,15,,,,,,,,,14,11,116,,,
104065,control_change,4,0,14,,,,,,,,,13,11,113,,,
104065,control_change,4,0,12,,,,,,,,,11,11,107,,,
104066,control_change,5,0,13,,,,,,,,,12,11,110,,,
104067,control_change,5,0,11,,,,,,,,,10,11,104,,,
104067,control_change,4,0,15,,,,,,,,,14,11,113,,,
104070,note_on,3,0,11,,,,,,,,,10,,,,64,0
104070,control_change,4,0,13,,,,,,,,,12,11,107,,,
104070,control_change,5,0,12,,,,,,,,,11,11,104,,,
104070,control_change,5,0,14,,,,,,,,,13,11,110,,,
104072,control_change,5,0,15,,,,,,,,,14,11,110,,,
104073,note_on,3,0,12,,,,,,,,,11,,,,64,0
104074,control_change,4,0,14,,,,,,,,,13,11,107,,,
104075,control_change,5,0,13,,,,,,,,,12,11,104,,,
104076,control_change,4,0,15,,,,,,,,,14,11,107,,,
104078,note_on,3,0,13,,,,,,,,,12,,,,64,0
104079,control_change,5,0,14,,,,,,,,,13,11,104,,,
104081,control_change,5,0,15,,,,,,,,,14,11,104,,,
104082,note_on,3,0,14,,,,,,,,,13,,,,52,0
104084,note_on,3,0,15,,,,,,,,,14,,,,40,0
104100,note_on,30,0,11,,,,,,,,,10,,,,64,112
104101,note_on,60,0,1,,,,,,,,,0,,,,88,0
104101,note_on,0,0,1,,,,,,,,,0,,,,83,0
104103,note_on,30,0,12,,,,,,,,,11,,,,64,112
104104,note_on,60,0,2,,,,,,,,,1,,,,80,0
104104,note_on,0,0,2,,,,,,,,,1,,,,76,0
104105,note_on,0,0,3,,,,,,,,,2,,,,71,0
104105,note_on,60,0,3,,,,,,,,,2,,,,68,0
104108,note_on,30,0,13,,,,,,,,,12,,,,64,112
104109,note_on,60,0,4,,,,,,,,,3,,,,56,0
104109,note_on,0,0,4,,,,,,,,,3,,,,59,0
104112,note_on,30,0,14,,,,,,,,,13,,,,52,112
104114,note_on,30,0,15,,,,,,,,,14,,,,40,112
104130,note_on,30,0,11,,,,,,,,,10,,,,64,0
104133,note_on,30,0,12,,,,,,,,,11,,,,64,0
104138,note_on,30,0,13,,,,,,,,,12,,,,64,0
104142,note_on,30,0,14,,,,,,,,,13,,,,52,0
104144,note_on,30,0,15,,,,,,,,,14,,,,40,0
104153,note_on,110,0,5,,,,,,,,,4,,,,64,0
104154,note_on,110,0,6,,,,,,,,,5,,,,52,0
104160,note_on,30,0,11,,,,,,,,,10,,,,65,112
104160,set_tempo,120,1,0,,,,,,263158,,,,,,,,
104161,note_on,60,0,1,,,,,,,,,0,,,,88,101
104161,note_on,0,0,1,,,,,,,,,0,,,,83,101
104163,note_on,10,0,5,,,,,,,,,4,,,,64,100
104163,note_on,30,0,12,,,,,,,,,11,,,,65,112
104164,note_on,0,0,2,,,,,,,,,1,,,,80,100
104164,note_on,60,0,2,,,,,,,,,1,,,,76,100
104164,note_on,10,0,6,,,,,,,,,5,,,,52,100
104165,note_on,60,0,3,,,,,,,,,2,,,,68,101
104165,note_on,0,0,3,,,,,,,,,2,,,,71,101
104168,note_on,30,0,13,,,,,,,,,12,,,,65,112
104169,note_on,0,0,4,,,,,,,,,3,,,,59,100
104169,note_on,60,0,4,,,,,,,,,3,,,,56,100
104172,note_on,30,0,14,,,,,,,,,13,,,,53,112
104174,note_on,30,0,15,,,,,,,,,14,,,,41,112
104190,note_on,30,0,11,,,,,,,,,10,,,,65,0
104193,note_on,30,0,12,,,,,,,,,11,,,,65,0
104198,note_on,30,0,13,,,,,,,,,12,,,,65,0
104202,note_on,30,0,14,,,,,,,,,13,,,,53,0
104204,note_on,30,0,15,,,,,,,,,14,,,,41,0
104220,note_on,30,0,11,,,,,,,,,10,,,,64,112
104221,note_on,60,0,1,,,,,,,,,0,,,,83,0
104221,note_on,0,0,1,,,,,,,,,0,,,,88,0
104223,note_on,30,0,12,,,,,,,,,11,,,,64,112
104224,note_on,60,0,2,,,,,,,,,1,,,,80,0
104224,note_on,0,0,2,,,,,,,,,1,,,,76,0
104225,note_on,0,0,3,,,,,,,,,2,,,,68,0
104225,note_on,60,0,3,,,,,,,,,2,,,,71,0
104228,note_on,30,0,13,,,,,,,,,12,,,,64,112
104229,note_on,0,0,4,,,,,,,,,3,,,,56,0
104229,note_on,60,0,4,,,,,,,,,3,,,,59,0
104232,note_on,30,0,14,,,,,,,,,13,,,,52,112
104234,note_on,30,0,15,,,,,,,,,14,,,,40,112
104250,note_on,30,0,11,,,,,,,,,10,,,,64,0
104253,note_on,30,0,12,,,,,,,,,11,,,,64,0
104258,note_on,30,0,13,,,,,,,,,12,,,,64,0
104262,note_on,30,0,14,,,,,,,,,13,,,,52,0
104264,note_on,30,0,15,,,,,,,,,14,,,,40,0
104273,note_on,110,0,5,,,,,,,,,4,,,,64,0
104274,note_on,110,0,6,,,,,,,,,5,,,,52,0
104280,set_tempo,120,1,0,,,,,,279070,,,,,,,,
104280,note_on,30,0,11,,,,,,,,,10,,,,65,112
104281,note_on,0,0,1,,,,,,,,,0,,,,83,101
104281,note_on,60,0,1,,,,,,,,,0,,,,88,101
104283,note_on,10,0,5,,,,,,,,,4,,,,64,100
104283,note_on,30,0,12,,,,,,,,,11,,,,65,112
104284,note_on,10,0,6,,,,,,,,,5,,,,52,100
104284,note_on,60,0,2,,,,,,,,,1,,,,80,100
104284,note_on,0,0,2,,,,,,,,,1,,,,76,100
104285,note_on,60,0,3,,,,,,,,,2,,,,71,101
104285,note_on,0,0,3,,,,,,,,,2,,,,68,101
104288,note_on,30,0,13,,,,,,,,,12,,,,65,112
104289,note_on,0,0,4,,,,,,,,,3,,,,59,100
104289,note_on,60,0,4,,,,,,,,,3,,,,56,100
104292,note_on,30,0,14,,,,,,,,,13,,,,53,112
104294,note_on,30,0,15,,,,,,,,,14,,,,41,112
104310,note_on,30,0,11,,,,,,,,,10,,,,65,0
104313,note_on,30,0,12,,,,,,,,,11,,,,65,0
104318,note_on,30,0,13,,,,,,,,,12,,,,65,0
104322,note_on,30,0,14,,,,,,,,,13,,,,53,0
104324,note_on,30,0,15,,,,,,,,,14,,,,41,0
104340,note_on,30,0,11,,,,,,,,,10,,,,64,112
104341,note_on,60,0,1,,,,,,,,,0,,,,83,0
104341,note_on,0,0,1,,,,,,,,,0,,,,88,0
104343,note_on,30,0,12,,,,,,,,,11,,,,64,112
104344,note_on,60,0,2,,,,,,,,,1,,,,76,0
104344,note_on,0,0,2,,,,,,,,,1,,,,80,0
104345,note_on,60,0,3,,,,,,,,,2,,,,68,0
104345,note_on,0,0,3,,,,,,,,,2,,,,71,0
104348,note_on,30,0,13,,,,,,,,,12,,,,64,112
104349,note_on,0,0,4,,,,,,,,,3,,,,56,0
104349,note_on,60,0,4,,,,,,,,,3,,,,59,0
104352,note_on,30,0,14,,,,,,,,,13,,,,52,112
104354,note_on,30,0,15,,,,,,,,,14,,,,40,112
104370,note_on,30,0,11,,,,,,,,,10,,,,64,0
104373,note_on,30,0,12,,,,,,,,,11,,,,64,0
104378,note_on,30,0,13,,,,,,,,,12,,,,64,0
104382,note_on,30,0,14,,,,,,,,,13,,,,52,0
104384,note_on,30,0,15,,,,,,,,,14,,,,40,0
104393,note_on,110,0,5,,,,,,,,,4,,,,64,0
104394,note_on,110,0,6,,,,,,,,,5,,,,52,0
104400,note_on,30,0,11,,,,,,,,,10,,,,55,112
104400,control_change,0,0,11,,,,,,,,,10,11,122,,,
104400,set_tempo,120,1,0,,,,,,254237,,,,,,,,
104401,note_on,0,0,1,,,,,,,,,0,,,,86,116
104401,note_on,60,0,1,,,,,,,,,0,,,,91,116
104402,note_on,0,0,7,,,,,,,,,6,,,,67,112
104402,note_on,1080,0,7,,,,,,,,,6,,,,55,112
104403,control_change,0,0,12,,,,,,,,,11,11,122,,,
104403,note_on,10,0,5,,,,,,,,,4,,,,67,115
104403,note_on,30,0,12,,,,,,,,,11,,,,55,112
104404,note_on,10,0,6,,,,,,,,,5,,,,55,115
104404,note_on,0,0,2,,,,,,,,,1,,,,77,115
104404,control_change,4,0,11,,,,,,,,,10,11,119,,,
104404,note_on,60,0,2,,,,,,,,,1,,,,83,115
104405,note_on,60,0,3,,,,,,,,,2,,,,71,116
104405,note_on,0,0,3,,,,,,,,,2,,,,79,116
104407,note_on,0,0,8,,,,,,,,,7,,,,59,110
104407,note_on,360,0,8,,,,,,,,,7,,,,62,110
104407,control_change,4,0,12,,,,,,,,,11,11,119,,,
104408,note_on,30,0,13,,,,,,,,,12,,,,55,112
104408,control_change,0,0,13,,,,,,,,,12,11,122,,,
104409,note_on,60,0,4,,,,,,,,,3,,,,65,115
104409,control_change,5,0,11,,,,,,,,,10,11,116,,,
104409,note_on,0,0,4,,,,,,,,,3,,,,62,115
104412,control_change,4,0,13,,,,,,,,,12,11,119,,,
104412,note_on,0,0,14,,,,,,,,,13,,,,43,112
104412,control_change,5,0,12,,,,,,,,,11,11,116,,,
104412,control_change,30,0,14,,,,,,,,,13,11,122,,,
104413,control_change,4,0,11,,,,,,,,,10,11,113,,,
104413,note_on,360,0,9,,,,,,,,,8,,,,55,110
104414,control_change,30,0,15,,,,,,,,,14,11,122,,,
104414,note_on,0,0,15,,,,,,,,,14,,,,31,112
104415,note_on,1080,0,10,,,,,,,,,15,,,,43,100
104416,control_change,4,0,12,,,,,,,,,11,11,113,,,
104416,control_change,4,0,14,,,,,,,,,13,11,119,,,
104417,control_change,5,0,13,,,,,,,,,12,11,116,,,
104418,control_change,4,0,15,,,,,,,,,14,11,119,,,
104418,control_change,5,0,11,,,,,,,,,10,11,110,,,
104421,control_change,4,0,13,,,,,,,,,12,11,113,,,
104421,control_change,5,0,12,,,,,,,,,11,11,110,,,
104421,control_change,5,0,14,,,,,,,,,13,11,116,,,
104422,control_change,4,0,11,,,,,,,,,10,11,107,,,
104423,control_change,5,0,15,,,,,,,,,14,11,116,,,
104425,control_change,4,0,14,,,,,,,,,13,11,113,,,
104425,control_change,4,0,12,,,,,,,,,11,11,107,,,
104426,control_change,5,0,13,,,,,,,,,12,11,110,,,
104427,control_change,4,0,15,,,,,,,,,14,11,113,,,
104427,control_change,5,0,11,,,,,,,,,10,11,104,,,
104430,note_on,3,0,11,,,,,,,,,10,,,,55,0
104430,control_change,5,0,12,,,,,,,,,11,11,104,,,
104430,control_change,4,0,13,,,,,,,,,12,11,107,,,
104430,control_change,5,0,14,,,,,,,,,13,11,110,,,
104432,control_change,5,0,15,,,,,,,,,14,11,110,,,
104433,note_on,3,0,12,,,,,,,,,11,,,,55,0
104434,control_change,4,0,14,,,,,,,,,13,11,107,,,
104435,control_change,5,0,13,,,,,,,,,12,11,104,,,
104436,control_change,4,0,15,,,,,,,,,14,11,107,,,
104438,note_on,3,0,13,,,,,,,,,12,,,,55,0
104439,control_change,5,0,14,,,,,,,,,13,11,104,,,
104441,control_change,5,0,15,,,,,,,,,14,11,104,,,
104442,note_on,3,0,14,,,,,,,,,13,,,,43,0
104444,note_on,3,0,15,,,,,,,,,14,,,,31,0
104460,note_on,30,0,11,,,,,,,,,10,,,,55,112
104461,note_on,60,0,1,,,,,,,,,0,,,,86,0
104461,note_on,0,0,1,,,,,,,,,0,,,,91,0
104463,note_on,30,0,12,,,,,,,,,11,,,,55,112
104464,note_on,0,0,2,,,,,,,,,1,,,,83,0
104464,note_on,60,0,2,,,,,,,,,1,,,,77,0
104465,note_on,0,0,3,,,,,,,,,2,,,,71,0
104465,note_on,60,0,3,,,,,,,,,2,,,,79,0
104468,note_on,30,0,13,,,,,,,,,12,,,,55,112
104469,note_on,60,0,4,,,,,,,,,3,,,,62,0
104469,note_on,0,0,4,,,,,,,,,3,,,,65,0
104472,note_on,30,0,14,,,,,,,,,13,,,,43,112
104474,note_on,30,0,15,,,,,,,,,14,,,,31,112
104490,note_on,30,0,11,,,,,,,,,10,,,,55,0
104493,note_on,30,0,12,,,,,,,,,11,,,,55,0
104498,note_on,30,0,13,,,,,,,,,12,,,,55,0
104502,note_on,30,0,14,,,,,,,,,13,,,,43,0
104504,note_on,30,0,15,,,,,,,,,14,,,,31,0
104512,note_on,110,0,7,,,,,,,,,6,,,,67,0
104512,note_on,0,0,7,,,,,,,,,6,,,,55,0
104513,note_on,110,0,5,,,,,,,,,4,,,,67,0
104514,note_on,110,0,6,,,,,,,,,5,,,,55,0
104517,note_on,0,0,8,,,,,,,,,7,,,,62,0
104517,note_on,110,0,8,,,,,,,,,7,,,,59,0
104520,set_tempo,120,1,0,,,,,,263158,,,,,,,,
104520,note_on,30,0,11,,,,,,,,,10,,,,57,112
104521,note_on,0,0,1,,,,,,,,,0,,,,86,101
104521,note_on,60,0,1,,,,,,,,,0,,,,91,101
104522,note_on,0,0,7,,,,,,,,,6,,,,55,112
104522,note_on,10,0,7,,,,,,,,,6,,,,67,112
104523,note_on,110,0,9,,,,,,,,,8,,,,55,0
104523,note_on,10,0,5,,,,,,,,,4,,,,67,100
104523,note_on,30,0,12,,,,,,,,,11,,,,57,112
104524,note_on,0,0,2,,,,,,,,,1,,,,77,100
104524,note_on,10,0,6,,,,,,,,,5,,,,55,100
104524,note_on,60,0,2,,,,,,,,,1,,,,83,100
104525,note_on,0,0,3,,,,,,,,,2,,,,79,101
104525,note_on,60,0,3,,,,,,,,,2,,,,71,101
104527,note_on,10,0,8,,,,,,,,,7,,,,59,110
104527,note_on,0,0,8,,,,,,,,,7,,,,62,110
104528,note_on,30,0,13,,,,,,,,,12,,,,57,112
104529,note_on,0,0,4,,,,,,,,,3,,,,62,100
104529,note_on,60,0,4,,,,,,,,,3,,,,65,100
104532,note_on,30,0,14,,,,,,,,,13,,,,45,112
104533,note_on,10,0,9,,,,,,,,,8,,,,55,110
104534,note_on,30,0,15,,,,,,,,,14,,,,33,112
104535,note_on,0,0,10,,,,,,,,,15,,,,43,100
104535,note_on,120,0,10,,,,,,,,,15,,,,43,0
104550,note_on,30,0,11,,,,,,,,,10,,,,57,0
104553,note_on,30,0,12,,,,,,,,,11,,,,57,0
104558,note_on,30,0,13,,,,,,,,,12,,,,57,0
104562,note_on,30,0,14,,,,,,,,,13,,,,45,0
104564,note_on,30,0,15,,,,,,,,,14,,,,33,0
104580,note_on,30,0,11,,,,,,,,,10,,,,55,112
104581,note_on,60,0,1,,,,,,,,,0,,,,86,0
104581,note_on,0,0,1,,,,,,,,,0,,,,91,0
104583,note_on,30,0,12,,,,,,,,,11,,,,55,112
104584,note_on,0,0,2,,,,,,,,,1,,,,83,0
104584,note_on,60,0,2,,,,,,,,,1,,,,77,0
104585,note_on,60,0,3,,,,,,,,,2,,,,79,0
104585,note_on,0,0,3,,,,,,,,,2,,,,71,0
104588,note_on,30,0,13,,,,,,,,,12,,,,55,112
104589,note_on,0,0,4,,,,,,,,,3,,,,65,0
104589,note_on,60,0,4,,,,,,,,,3,,,,62,0
104592,note_on,30,0,14,,,,,,,,,13,,,,43,112
104594,note_on,30,0,15,,,,,,,,,14,,,,31,112
104610,note_on,30,0,11,,,,,,,,,10,,,,55,0
104613,note_on,30,0,12,,,,,,,,,11,,,,55,0
104618,note_on,30,0,13,,,,,,,,,12,,,,55,0
104622,note_on,30,0,14,,,,,,,,,13,,,,43,0
104624,note_on,30,0,15,,,,,,,,,14,,,,31,0
104632,note_on,0,0,7,,,,,,,,,6,,,,67,0
104632,note_on,110,0,7,,,,,,,,,6,,,,55,0
104633,note_on,110,0,5,,,,,,,,,4,,,,67,0
104634,note_on,110,0,6,,,,,,,,,5,,,,55,0
104637,note_on,110,0,8,,,,,,,,,7,,,,62,0
104637,note_on,0,0,8,,,,,,,,,7,,,,59,0
104640,note_on,30,0,11,,,,,,,,,10,,,,57,112
104640,set_tempo,120,1,0,,,,,,279070,,,,,,,,
104641,note_on,60,0,1,,,,,,,,,0,,,,86,101
104641,note_on,0,0,1,,,,,,,,,0,,,,91,101
104642,note_on,10,0,7,,,,,,,,,6,,,,67,112
104642,note_on,0,0,7,,,,,,,,,6,,,,55,112
104643,note_on,30,0,12,,,,,,,,,11,,,,57,112
104643,note_on,10,0,5,,,,,,,,,4,,,,67,100
104643,note_on,110,0,9,,,,,,,,,8,,,,55,0
104644,note_on,0,0,2,,,,,,,,,1,,,,77,100
104644,note_on,10,0,6,,,,,,,,,5,,,,55,100
104644,note_on,60,0,2,,,,,,,,,1,,,,83,100
104645,note_on,60,0,3,,,,,,,,,2,,,,79,101
104645,note_on,0,0,3,,,,,,,,,2,,,,71,101
104647,note_on,0,0,8,,,,,,,,,7,,,,62,110
104647,note_on,10,0,8,,,,,,,,,7,,,,59,110
104648,note_on,30,0,13,,,,,,,,,12,,,,57,112
104649,note_on,60,0,4,,,,,,,,,3,,,,62,100
104649,note_on,0,0,4,,,,,,,,,3,,,,65,100
104652,note_on,30,0,14,,,,,,,,,13,,,,45,112
104653,note_on,10,0,9,,,,,,,,,8,,,,55,110
104654,note_on,30,0,15,,,,,,,,,14,,,,33,112
104655,note_on,0,0,10,,,,,,,,,15,,,,43,100
104655,note_on,120,0,10,,,,,,,,,15,,,,43,0
104670,note_on,30,0,11,,,,,,,,,10,,,,57,0
104673,note_on,30,0,12,,,,,,,,,11,,,,57,0
104678,note_on,30,0,13,,,,,,,,,12,,,,57,0
104682,note_on,30,0,14,,,,,,,,,13,,,,45,0
104684,note_on,30,0,15,,,,,,,,,14,,,,33,0
104700,note_on,30,0,11,,,,,,,,,10,,,,55,112
104701,note_on,60,0,1,,,,,,,,,0,,,,91,0
104701,note_on,0,0,1,,,,,,,,,0,,,,86,0
104703,note_on,30,0,12,,,,,,,,,11,,,,55,112
104704,note_on,60,0,2,,,,,,,,,1,,,,77,0
104704,note_on,0,0,2,,,,,,,,,1,,,,83,0
104705,note_on,0,0,3,,,,,,,,,2,,,,79,0
104705,note_on,60,0,3,,,,,,,,,2,,,,71,0
104708,note_on,30,0,13,,,,,,,,,12,,,,55,112
104709,note_on,0,0,4,,,,,,,,,3,,,,62,0
104709,note_on,60,0,4,,,,,,,,,3,,,,65,0
104712,note_on,30,0,14,,,,,,,,,13,,,,43,112
104714,note_on,30,0,15,,,,,,,,,14,,,,31,112
104730,note_on,30,0,11,,,,,,,,,10,,,,55,0
104733,note_on,30,0,12,,,,,,,,,11,,,,55,0
104738,note_on,30,0,13,,,,,,,,,12,,,,55,0
104742,note_on,30,0,14,,,,,,,,,13,,,,43,0
104744,note_on,30,0,15,,,,,,,,,14,,,,31,0
104752,note_on,0,0,7,,,,,,,,,6,,,,67,0
104752,note_on,110,0,7,,,,,,,,,6,,,,55,0
104753,note_on,110,0,5,,,,,,,,,4,,,,67,0
104754,note_on,110,0,6,,,,,,,,,5,,,,55,0
104757,note_on,110,0,8,,,,,,,,,7,,,,62,0
104757,note_on,0,0,8,,,,,,,,,7,,,,59,0
104760,set_tempo,120,1,0,,,,,,254237,,,,,,,,
104760,control_change,0,0,11,,,,,,,,,10,11,122,,,
104760,note_on,30,0,11,,,,,,,,,10,,,,60,112
104761,note_on,60,0,1,,,,,,,,,0,,,,84,101
104762,note_on,10,0,7,,,,,,,,,6,,,,72,112
104762,note_on,0,0,7,,,,,,,,,6,,,,60,112
104763,note_on,110,0,9,,,,,,,,,8,,,,55,0
104763,note_on,10,0,5,,,,,,,,,4,,,,64,100
104763,control_change,0,0,12,,,,,,,,,11,11,122,,,
104763,note_on,30,0,12,,,,,,,,,11,,,,60,112
104764,note_on,0,0,2,,,,,,,,,1,,,,84,100
104764,note_on,60,0,2,,,,,,,,,1,,,,76,100
104764,note_on,10,0,6,,,,,,,,,5,,,,60,100
104765,note_on,0,0,3,,,,,,,,,2,,,,72,101
104765,note_on,60,0,3,,,,,,,,,2,,,,76,101
104767,note_on,10,0,8,,,,,,,,,7,,,,60,110
104767,note_on,0,0,8,,,,,,,,,7,,,,64,110
104768,control_change,0,0,13,,,,,,,,,12,11,122,,,
104768,note_on,30,0,13,,,,,,,,,12,,,,60,112
104769,note_on,60,0,4,,,,,,,,,3,,,,60,100
104769,note_on,0,0,4,,,,,,,,,3,,,,64,100
104769,control_change,9,0,11,,,,,,,,,10,11,119,,,
104772,control_change,9,0,12,,,,,,,,,11,11,119,,,
104772,note_on,30,0,14,,,,,,,,,13,,,,48,112
104772,control_change,0,0,14,,,,,,,,,13,11,122,,,
104773,note_on,10,0,9,,,,,,,,,8,,,,48,110
104774,control_change,0,0,15,,,,,,,,,14,11,122,,,
104774,note_on,30,0,15,,,,,,,,,14,,,,36,112
104775,note_on,120,0,10,,,,,,,,,15,,,,43,0
104775,note_on,0,0,10,,,,,,,,,15,,,,48,100
104777,control_change,9,0,13,,,,,,,,,12,11,119,,,
104778,control_change,9,0,11,,,,,,,,,10,11,116,,,
104781,control_change,9,0,14,,,,,,,,,13,11,119,,,
104781,control_change,9,0,12,,,,,,,,,11,11,116,,,
104783,control_change,9,0,15,,,,,,,,,14,11,119,,,
104786,control_change,9,0,13,,,,,,,,,12,11,116,,,
104787,control_change,9,0,11,,,,,,,,,10,11,113,,,
104790,control_change,9,0,12,,,,,,,,,11,11,113,,,
104790,control_change,9,0,14,,,,,,,,,13,11,116,,,
104792,control_change,9,0,15,,,,,,,,,14,11,116,,,
104795,control_change,9,0,13,,,,,,,,,12,11,113,,,
104796,control_change,9,0,11,,,,,,,,,10,11,110,,,
104799,control_change,9,0,12,,,,,,,,,11,11,110,,,
104799,control_change,9,0,14,,,,,,,,,13,11,113,,,
104801,control_change,9,0,15,,,,,,,,,14,11,113,,,
104804,control_change,9,0,13,,,,,,,,,12,11,110,,,
104805,control_change,9,0,11,,,,,,,,,10,11,107,,,
104808,control_change,9,0,14,,,,,,,,,13,11,110,,,
104808,control_change,9,0,12,,,,,,,,,11,11,107,,,
104810,control_change,9,0,15,,,,,,,,,14,11,110,,,
104813,control_change,9,0,13,,,,,,,,,12,11,107,,,
104814,control_change,9,0,11,,,,,,,,,10,11,104,,,
104817,control_change,9,0,14,,,,,,,,,13,11,107,,,
104817,control_change,9,0,12,,,,,,,,,11,11,104,,,
104819,control_change,9,0,15,,,,,,,,,14,11,107,,,
104820,note_on,6,0,11,,,,,,,,,10,,,,60,0
104822,control_change,9,0,13,,,,,,,,,12,11,104,,,
104823,note_on,6,0,12,,,,,,,,,11,,,,60,0
104826,control_change,9,0,14,,,,,,,,,13,11,104,,,
104828,control_change,9,0,15,,,,,,,,,14,11,104,,,
104828,note_on,6,0,13,,,,,,,,,12,,,,60,0
104832,note_on,6,0,14,,,,,,,,,13,,,,48,0
104834,note_on,6,0,15,,,,,,,,,14,,,,36,0
104880,note_on,60,0,11,,,,,,,,,10,,,,60,112
104880,set_tempo,120,1,0,,,,,,263158,,,,,,,,
104881,note_on,120,0,1,,,,,,,,,0,,,,84,0
104882,note_on,120,0,7,,,,,,,,,6,,,,60,0
104882,note_on,0,0,7,,,,,,,,,6,,,,72,0
104883,note_on,60,0,12,,,,,,,,,11,,,,60,112
104883,note_on,120,0,5,,,,,,,,,4,,,,64,0
104884,note_on,120,0,2,,,,,,,,,1,,,,84,0
104884,note_on,0,0,2,,,,,,,,,1,,,,76,0
104884,note_on,120,0,6,,,,,,,,,5,,,,60,0
104885,note_on,0,0,3,,,,,,,,,2,,,,76,0
104885,note_on,120,0,3,,,,,,,,,2,,,,72,0
104887,note_on,120,0,8,,,,,,,,,7,,,,64,0
104887,note_on,0,0,8,,,,,,,,,7,,,,60,0
104888,note_on,60,0,13,,,,,,,,,12,,,,60,112
104889,note_on,120,0,4,,,,,,,,,3,,,,64,0
104889,note_on,0,0,4,,,,,,,,,3,,,,60,0
104892,note_on,60,0,14,,,,,,,,,13,,,,48,112
104893,note_on,120,0,9,,,,,,,,,8,,,,48,0
104894,note_on,60,0,15,,,,,,,,,14,,,,36,112
104895,note_on,120,0,10,,,,,,,,,15,,,,48,0
104940,note_on,60,0,11,,,,,,,,,10,,,,60,0
104943,note_on,60,0,12,,,,,,,,,11,,,,60,0
104948,note_on,60,0,13,,,,,,,,,12,,,,60,0
104952,note_on,60,0,14,,,,,,,,,13,,,,48,0
104954,note_on,60,0,15,,,,,,,,,14,,,,36,0
105000,note_on,60,0,11,,,,,,,,,10,,,,60,112
105000,set_tempo,120,1,0,,,,,,279070,,,,,,,,
105003,note_on,60,0,12,,,,,,,,,11,,,,60,112
105008,note_on,60,0,13,,,,,,,,,12,,,,60,112
105012,note_on,60,0,14,,,,,,,,,13,,,,48,112
105014,note_on,60,0,15,,,,,,,,,14,,,,36,112
105060,note_on,60,0,11,,,,,,,,,10,,,,60,0
105063,note_on,60,0,12,,,,,,,,,11,,,,60,0
105068,note_on,60,0,13,,,,,,,,,12,,,,60,0
105072,note_on,60,0,14,,,,,,,,,13,,,,48,0
105074,note_on,60,0,15,,,,,,,,,14,,,,36,0
105120,set_tempo,120,1,0,,,,,,258065,,,,,,,,
105121,note_on,240,0,1,,,,,,,,,0,,,,84,116
105122,note_on,240,0,7,,,,,,,,,6,,,,60,112
105122,note_on,0,0,7,,,,,,,,,6,,,,72,112
105123,note_on,240,0,5,,,,,,,,,4,,,,60,115
105124,note_on,240,0,2,,,,,,,,,1,,,,84,115
105124,note_on,0,0,2,,,,,,,,,1,,,,72,115
105124,note_on,240,0,6,,,,,,,,,5,,,,48,115
105125,note_on,240,0,3,,,,,,,,,2,,,,72,116
105127,note_on,240,0,8,,,,,,,,,7,,,,60,110
105129,note_on,0,0,4,,,,,,,,,3,,,,36,115
105129,note_on,240,0,4,,,,,,,,,3,,,,48,115
105133,note_on,240,0,9,,,,,,,,,8,,,,48,110
105135,note_on,240,0,10,,,,,,,,,15,,,,48,100
105181,note_on,60,0,1,,,,,,,,,0,,,,84,0
105184,note_on,60,0,2,,,,,,,,,1,,,,72,0
105184,note_on,0,0,2,,,,,,,,,1,,,,84,0
105185,note_on,60,0,3,,,,,,,,,2,,,,72,0
105189,note_on,0,0,4,,,,,,,,,3,,,,48,0
105189,note_on,60,0,4,,,,,,,,,3,,,,36,0
105232,note_on,110,0,7,,,,,,,,,6,,,,72,0
105232,note_on,0,0,7,,,,,,,,,6,,,,60,0
105233,note_on,110,0,5,,,,,,,,,4,,,,60,0
105234,note_on,110,0,6,,,,,,,,,5,,,,48,0
105237,note_on,110,0,8,,,,,,,,,7,,,,60,0
105240,set_tempo,120,1,0,,,,,,267261,,,,,,,,
105241,note_on,60,0,1,,,,,,,,,0,,,,84,101
105242,note_on,10,0,7,,,,,,,,,6,,,,60,112
105242,note_on,0,0,7,,,,,,,,,6,,,,72,112
105243,note_on,110,0,9,,,,,,,,,8,,,,48,0
105243,note_on,10,0,5,,,,,,,,,4,,,,60,100
105244,note_on,0,0,2,,,,,,,,,1,,,,84,100
105244,note_on,60,0,2,,,,,,,,,1,,,,72,100
105244,note_on,10,0,6,,,,,,,,,5,,,,48,100
105245,note_on,60,0,3,,,,,,,,,2,,,,72,101
105247,note_on,10,0,8,,,,,,,,,7,,,,60,110
105249,note_on,0,0,4,,,,,,,,,3,,,,48,100
105249,note_on,60,0,4,,,,,,,,,3,,,,36,100
105253,note_on,10,0,9,,,,,,,,,8,,,,48,110
105255,note_on,120,0,10,,,,,,,,,15,,,,48,0
105255,note_on,0,0,10,,,,,,,,,15,,,,48,100
105301,note_on,60,0,1,,,,,,,,,0,,,,84,0
105304,note_on,60,0,2,,,,,,,,,1,,,,84,0
105304,note_on,0,0,2,,,,,,,,,1,,,,72,0
105305,note_on,60,0,3,,,,,,,,,2,,,,72,0
105309,note_on,60,0,4,,,,,,,,,3,,,,48,0
105309,note_on,0,0,4,,,,,,,,,3,,,,36,0
105352,note_on,110,0,7,,,,,,,,,6,,,,72,0
105352,note_on,0,0,7,,,,,,,,,6,,,,60,0
105353,note_on,110,0,5,,,,,,,,,4,,,,60,0
105354,note_on,110,0,6,,,,,,,,,5,,,,48,0
105357,note_on,110,0,8,,,,,,,,,7,,,,60,0
105360,set_tempo,120,1,0,,,,,,288462,,,,,,,,
105361,note_on,60,0,1,,,,,,,,,0,,,,84,101
105362,note_on,0,0,7,,,,,,,,,6,,,,60,112
105362,note_on,10,0,7,,,,,,,,,6,,,,72,112
105363,note_on,110,0,9,,,,,,,,,8,,,,48,0
105363,note_on,10,0,5,,,,,,,,,4,,,,60,100
105364,note_on,60,0,2,,,,,,,,,1,,,,72,100
105364,note_on,0,0,2,,,,,,,,,1,,,,84,100
105364,note_on,10,0,6,,,,,,,,,5,,,,48,100
105365,note_on,60,0,3,,,,,,,,,2,,,,72,101
105367,note_on,10,0,8,,,,,,,,,7,,,,60,110
105369,note_on,60,0,4,,,,,,,,,3,,,,36,100
105369,note_on,0,0,4,,,,,,,,,3,,,,48,100
105373,note_on,10,0,9,,,,,,,,,8,,,,48,110
105375,note_on,120,0,10,,,,,,,,,15,,,,48,0
105375,note_on,0,0,10,,,,,,,,,15,,,,48,100
105421,note_on,60,0,1,,,,,,,,,0,,,,84,0
105424,note_on,60,0,2,,,,,,,,,1,,,,84,0
105424,note_on,0,0,2,,,,,,,,,1,,,,72,0
105425,note_on,60,0,3,,,,,,,,,2,,,,72,0
105429,note_on,60,0,4,,,,,,,,,3,,,,48,0
105429,note_on,0,0,4,,,,,,,,,3,,,,36,0
105472,note_on,0,0,7,,,,,,,,,6,,,,72,0
105472,note_on,110,0,7,,,,,,,,,6,,,,60,0
105473,note_on,110,0,5,,,,,,,,,4,,,,60,0
105474,note_on,110,0,6,,,,,,,,,5,,,,48,0
105477,note_on,110,0,8,,,,,,,,,7,,,,60,0
105480,control_change,0,0,11,,,,,,,,,10,11,122,,,
105480,note_on,0,0,11,,,,,,,,,10,,,,83,112
105480,note_on,0,0,11,,,,,,,,,10,,,,67,112
105480,set_tempo,120,1,0,,,,,,264317,,,,,,,,
105480,note_on,420,0,11,,,,,,,,,10,,,,74,112
105481,control_change,60,0,1,,,,,,,,,0,11,101,,,
105481,note_on,0,0,1,,,,,,,,,0,,,,91,101
105481,note_on,0,0,1,,,,,,,,,0,,,,83,101
105482,note_on,10,0,7,,,,,,,,,6,,,,67,112
105482,note_on,0,0,7,,,,,,,,,6,,,,55,112
105483,control_change,10,0,5,,,,,,,,,4,11,122,,,
105483,note_on,0,0,5,,,,,,,,,4,,,,62,100
105483,note_on,0,0,12,,,,,,,,,11,,,,62,112
105483,note_on,0,0,12,,,,,,,,,11,,,,79,112
105483,control_change,0,0,12,,,,,,,,,11,11,122,,,
105483,note_on,420,0,12,,,,,,,,,11,,,,55,112
105483,note_on,110,0,9,,,,,,,,,8,,,,48,0
105483,note_on,0,0,12,,,,,,,,,11,,,,71,112
105484,note_on,0,0,2,,,,,,,,,1,,,,74,100
105484,control_change,0,0,2,,,,,,,,,1,11,101,,,
105484,note_on,0,0,6,,,,,,,,,5,,,,55,100
105484,note_on,60,0,2,,,,,,,,,1,,,,83,100
105484,control_change,10,0,6,,,,,,,,,5,11,122,,,
105485,control_change,0,0,3,,,,,,,,,2,11,101,,,
105485,note_on,0,0,3,,,,,,,,,2,,,,74,101
105485,note_on,60,0,3,,,,,,,,,2,,,,71,101
105487,note_on,0,0,8,,,,,,,,,7,,,,59,110
105487,note_on,10,0,8,,,,,,,,,7,,,,62,110
105487,program_change,419,0,13,,,,,,,,48,12,,,,,
105488,control_change,1,0,13,,,,,,,,,12,11,122,,,
105488,note_on,0,0,13,,,,,,,,,12,,,,55,112
105488,note_on,0,0,13,,,,,,,,,12,,,,71,112
105488,note_on,0,0,13,,,,,,,,,12,,,,62,112
105489,note_on,0,0,4,,,,,,,,,3,,,,43,100
105489,control_change,9,0,11,,,,,,,,,10,11,119,,,
105489,control_change,0,0,4,,,,,,,,,3,11,117,,,
105489,note_on,60,0,4,,,,,,,,,3,,,,55,100
105490,control_change,9,0,1,,,,,,,,,0,11,98,,,
105492,note_on,0,0,14,,,,,,,,,13,,,,59,112
105492,note_on,0,0,14,,,,,,,,,13,,,,43,112
105492,control_change,9,0,5,,,,,,,,,4,11,119,,,
105492,control_change,0,0,14,,,,,,,,,13,11,122,,,
105492,note_on,420,0,14,,,,,,,,,13,,,,50,112
105492,control_change,9,0,12,,,,,,,,,11,11,119,,,
105493,control_change,9,0,2,,,,,,,,,1,11,98,,,
105493,note_on,10,0,9,,,,,,,,,8,,,,43,110
105493,control_change,9,0,6,,,,,,,,,5,11,119,,,
105494,control_change,9,0,3,,,,,,,,,2,11,98,,,
105494,note_on,0,0,15,,,,,,,,,14,,,,43,112
105494,control_change,420,0,15,,,,,,,,,14,11,122,,,
105495,note_on,0,0,10,,,,,,,,,15,,,,43,100
105495,note_on,120,0,10,,,,,,,,,15,,,,48,0
105497,control_change,9,0,13,,,,,,,,,12,11,119,,,
105498,control_change,9,0,4,,,,,,,,,3,11,114,,,
105498,control_change,9,0,11,,,,,,,,,10,11,116,,,
105501,control_change,9,0,14,,,,,,,,,13,11,119,,,
105501,control_change,9,0,5,,,,,,,,,4,11,116,,,
105501,control_change,9,0,12,,,,,,,,,11,11,116,,,
105502,control_change,9,0,6,,,,,,,,,5,11,116,,,
105503,control_change,9,0,15,,,,,,,,,14,11,119,,,
105506,control_change,9,0,13,,,,,,,,,12,11,116,,,
105507,control_change,9,0,4,,,,,,,,,3,11,111,,,
105507,control_change,9,0,11,,,,,,,,,10,11,113,,,
105508,control_change,18,0,1,,,,,,,,,0,11,94,,,
105510,control_change,9,0,12,,,,,,,,,11,11,113,,,
105510,control_change,9,0,14,,,,,,,,,13,11,116,,,
105510,control_change,9,0,5,,,,,,,,,4,11,113,,,
105511,control_change,18,0,2,,,,,,,,,1,11,94,,,
105511,control_change,9,0,6,,,,,,,,,5,11,113,,,
105512,control_change,18,0,3,,,,,,,,,2,11,94,,,
105512,control_change,9,0,15,,,,,,,,,14,11,116,,,
105515,control_change,9,0,13,,,,,,,,,12,11,113,,,
105516,control_change,9,0,4,,,,,,,,,3,11,108,,,
105516,control_change,9,0,11,,,,,,,,,10,11,110,,,
105519,control_change,9,0,5,,,,,,,,,4,11,110,,,
105519,control_change,9,0,14,,,,,,,,,13,11,113,,,
105519,control_change,9,0,12,,,,,,,,,11,11,110,,,
105520,control_change,9,0,6,,,,,,,,,5,11,110,,,
105521,control_change,9,0,15,,,,,,,,,14,11,113,,,
105524,control_change,9,0,13,,,,,,,,,12,11,110,,,
105525,control_change,9,0,11,,,,,,,,,10,11,107,,,
105525,control_change,9,0,4,,,,,,,,,3,11,105,,,
105526,control_change,18,0,1,,,,,,,,,0,11,89,,,
105528,control_change,9,0,5,,,,,,,,,4,11,107,,,
105528,control_change,9,0,12,,,,,,,,,11,11,107,,,
105528,control_change,9,0,14,,,,,,,,,13,11,110,,,
105529,control_change,18,0,2,,,,,,,,,1,11,89,,,
105529,control_change,9,0,6,,,,,,,,,5,11,107,,,
105530,control_change,18,0,3,,,,,,,,,2,11,89,,,
105530,control_change,9,0,15,,,,,,,,,14,11,110,,,
105533,control_change,9,0,13,,,,,,,,,12,11,107,,,
105534,control_change,9,0,11,,,,,,,,,10,11,104,,,
105534,control_change,9,0,4,,,,,,,,,3,11,102,,,
105537,control_change,9,0,14,,,,,,,,,13,11,107,,,
105537,control_change,9,0,12,,,,,,,,,11,11,104,,,
105537,control_change,9,0,5,,,,,,,,,4,11,104,,,
105538,control_change,9,0,6,,,,,,,,,5,11,104,,,
105539,control_change,9,0,15,,,,,,,,,14,11,107,,,
105542,control_change,9,0,13,,,,,,,,,12,11,104,,,
105543,control_change,9,0,4,,,,,,,,,3,11,99,,,
105546,control_change,9,0,14,,,,,,,,,13,11,104,,,
105548,control_change,9,0,15,,,,,,,,,14,11,104,,,
105600,note_on,66,0,11,,,,,,,,,10,,,,67,0
105600,note_on,0,0,11,,,,,,,,,10,,,,83,0
105600,note_on,0,0,11,,,,,,,,,10,,,,74,0
105601,note_on,0,0,1,,,,,,,,,0,,,,91,0
105601,note_on,75,0,1,,,,,,,,,0,,,,83,0
105602,note_on,0,0,7,,,,,,,,,6,,,,67,0
105602,note_on,120,0,7,,,,,,,,,6,,,,55,0
105603,note_on,0,0,12,,,,,,,,,11,,,,79,0
105603,note_on,66,0,5,,,,,,,,,4,,,,62,0
105603,note_on,0,0,12,,,,,,,,,11,,,,71,0
105603,note_on,66,0,12,,,,,,,,,11,,,,62,0
105603,note_on,0,0,12,,,,,,,,,11,,,,55,0
105604,note_on,75,0,2,,,,,,,,,1,,,,74,0
105604,note_on,0,0,2,,,,,,,,,1,,,,83,0
105604,note_on,66,0,6,,,,,,,,,5,,,,55,0
105605,note_on,75,0,3,,,,,,,,,2,,,,74,0
105605,note_on,0,0,3,,,,,,,,,2,,,,71,0
105607,note_on,0,0,8,,,,,,,,,7,,,,62,0
105607,note_on,120,0,8,,,,,,,,,7,,,,59,0
105608,note_on,0,0,13,,,,,,,,,12,,,,55,0
105608,note_on,0,0,13,,,,,,,,,12,,,,62,0
105608,note_on,66,0,13,,,,,,,,,12,,,,71,0
105609,note_on,0,0,4,,,,,,,,,3,,,,55,0
105609,note_on,66,0,4,,,,,,,,,3,,,,43,0
105612,note_on,0,0,14,,,,,,,,,13,,,,50,0
105612,note_on,66,0,14,,,,,,,,,13,,,,59,0
105612,note_on,0,0,14,,,,,,,,,13,,,,43,0
105613,note_on,120,0,9,,,,,,,,,8,,,,43,0
105614,note_on,66,0,15,,,,,,,,,14,,,,43,0
105615,note_on,120,0,10,,,,,,,,,15,,,,43,0
105720,set_tempo,240,1,0,,,,,,315789,,,,,,,,
105840,note_on,240,0,11,,,,,,,,,10,,,,84,112
105840,note_on,0,0,11,,,,,,,,,10,,,,67,112
105840,note_on,0,0,11,,,,,,,,,10,,,,76,112
105840,set_tempo,120,1,0,,,,,,272727,,,,,,,,
105840,control_change,0,0,11,,,,,,,,,10,11,122,,,
105841,note_on,0,0,1,,,,,,,,,0,,,,84,101
105841,control_change,240,0,1,,,,,,,,,0,11,101,,,
105842,note_on,240,0,7,,,,,,,,,6,,,,60,112
105843,note_on,0,0,12,,,,,,,,,11,,,,67,112
105843,note_on,0,0,12,,,,,,,,,11,,,,76,112
105843,note_on,0,0,12,,,,,,,,,11,,,,60,112
105843,control_change,240,0,12,,,,,,,,,11,11,122,,,
105843,note_on,240,0,5,,,,,,,,,4,,,,64,100
105843,control_change,0,0,5,,,,,,,,,4,11,122,,,
105844,control_change,0,0,2,,,,,,,,,1,11,101,,,
105844,note_on,0,0,2,,,,,,,,,1,,,,76,100
105844,note_on,0,0,6,,,,,,,,,5,,,,60,100
105844,control_change,240,0,6,,,,,,,,,5,11,122,,,
105844,note_on,240,0,2,,,,,,,,,1,,,,84,100
105845,note_on,0,0,3,,,,,,,,,2,,,,72,101
105845,note_on,240,0,3,,,,,,,,,2,,,,76,101
105845,control_change,0,0,3,,,,,,,,,2,11,101,,,
105847,note_on,240,0,8,,,,,,,,,7,,,,60,110
105847,note_on,0,0,8,,,,,,,,,7,,,,64,110
105848,note_on,240,0,13,,,,,,,,,12,,,,64,112
105848,note_on,0,0,13,,,,,,,,,12,,,,72,112
105848,control_change,0,0,13,,,,,,,,,12,11,122,,,
105848,note_on,0,0,13,,,,,,,,,12,,,,48,112
105848,note_on,0,0,13,,,,,,,,,12,,,,55,112
105849,note_on,0,0,4,,,,,,,,,3,,,,36,100
105849,note_on,0,0,4,,,,,,,,,3,,,,48,100
105849,control_change,240,0,4,,,,,,,,,3,11,117,,,
105849,control_change,9,0,11,,,,,,,,,10,11,119,,,
105850,control_change,9,0,1,,,,,,,,,0,11,98,,,
105852,note_on,240,0,14,,,,,,,,,13,,,,43,112
105852,control_change,9,0,5,,,,,,,,,4,11,119,,,
105852,control_change,9,0,12,,,,,,,,,11,11,119,,,
105852,note_on,0,0,14,,,,,,,,,13,,,,60,112
105852,note_on,0,0,14,,,,,,,,,13,,,,52,112
105852,control_change,0,0,14,,,,,,,,,13,11,122,,,
105852,note_on,0,0,14,,,,,,,,,13,,,,36,112
105853,control_change,9,0,2,,,,,,,,,1,11,98,,,
105853,control_change,9,0,6,,,,,,,,,5,11,119,,,
105853,note_on,240,0,9,,,,,,,,,8,,,,48,110
105854,control_change,9,0,3,,,,,,,,,2,11,98,,,
105854,control_change,0,0,15,,,,,,,,,14,11,122,,,
105854,note_on,240,0,15,,,,,,,,,14,,,,36,112
105855,note_on,240,0,10,,,,,,,,,15,,,,48,100
105857,control_change,9,0,13,,,,,,,,,12,11,119,,,
105858,control_change,9,0,11,,,,,,,,,10,11,116,,,
105858,control_change,9,0,4,,,,,,,,,3,11,114,,,
105861,control_change,9,0,5,,,,,,,,,4,11,116,,,
105861,control_change,9,0,12,,,,,,,,,11,11,116,,,
105861,control_change,9,0,14,,,,,,,,,13,11,119,,,
105862,control_change,9,0,6,,,,,,,,,5,11,116,,,
105863,control_change,9,0,15,,,,,,,,,14,11,119,,,
105866,control_change,9,0,13,,,,,,,,,12,11,116,,,
105867,control_change,9,0,4,,,,,,,,,3,11,111,,,
105867,control_change,9,0,11,,,,,,,,,10,11,113,,,
105868,control_change,18,0,1,,,,,,,,,0,11,94,,,
105870,control_change,9,0,5,,,,,,,,,4,11,113,,,
105870,control_change,9,0,12,,,,,,,,,11,11,113,,,
105870,control_change,9,0,14,,,,,,,,,13,11,116,,,
105871,control_change,18,0,2,,,,,,,,,1,11,94,,,
105871,control_change,9,0,6,,,,,,,,,5,11,113,,,
105872,control_change,18,0,3,,,,,,,,,2,11,94,,,
105872,control_change,9,0,15,,,,,,,,,14,11,116,,,
105875,control_change,9,0,13,,,,,,,,,12,11,113,,,
105876,control_change,9,0,11,,,,,,,,,10,11,110,,,
105876,control_change,9,0,4,,,,,,,,,3,11,108,,,
105879,control_change,9,0,5,,,,,,,,,4,11,110,,,
105879,control_change,9,0,14,,,,,,,,,13,11,113,,,
105879,control_change,9,0,12,,,,,,,,,11,11,110,,,
105880,control_change,9,0,6,,,,,,,,,5,11,110,,,
105881,control_change,9,0,15,,,,,,,,,14,11,113,,,
105884,control_change,9,0,13,,,,,,,,,12,11,110,,,
105885,control_change,9,0,11,,,,,,,,,10,11,107,,,
105885,control_change,9,0,4,,,,,,,,,3,11,105,,,
105886,control_change,18,0,1,,,,,,,,,0,11,89,,,
105888,control_change,9,0,5,,,,,,,,,4,11,107,,,
105888,control_change,9,0,12,,,,,,,,,11,11,107,,,
105888,control_change,9,0,14,,,,,,,,,13,11,110,,,
105889,control_change,9,0,6,,,,,,,,,5,11,107,,,
105889,control_change,18,0,2,,,,,,,,,1,11,89,,,
105890,control_change,18,0,3,,,,,,,,,2,11,89,,,
105890,control_change,9,0,15,,,,,,,,,14,11,110,,,
105893,control_change,9,0,13,,,,,,,,,12,11,107,,,
105894,control_change,9,0,11,,,,,,,,,10,11,104,,,
105894,control_change,9,0,4,,,,,,,,,3,11,102,,,
105897,control_change,9,0,5,,,,,,,,,4,11,104,,,
105897,control_change,9,0,14,,,,,,,,,13,11,107,,,
105897,control_change,9,0,12,,,,,,,,,11,11,104,,,
105898,control_change,9,0,6,,,,,,,,,5,11,104,,,
105899,control_change,9,0,15,,,,,,,,,14,11,107,,,
105902,control_change,9,0,13,,,,,,,,,12,11,104,,,
105903,control_change,9,0,4,,,,,,,,,3,11,99,,,
105906,control_change,9,0,14,,,,,,,,,13,11,104,,,
105908,control_change,9,0,15,,,,,,,,,14,11,104,,,
105960,note_on,0,0,11,,,,,,,,,10,,,,84,0
105960,note_on,66,0,11,,,,,,,,,10,,,,76,0
105960,note_on,0,0,11,,,,,,,,,10,,,,67,0
105961,note_on,75,0,1,,,,,,,,,0,,,,84,0
105962,note_on,120,0,7,,,,,,,,,6,,,,60,0
105963,note_on,0,0,12,,,,,,,,,11,,,,67,0
105963,note_on,66,0,12,,,,,,,,,11,,,,60,0
105963,note_on,66,0,5,,,,,,,,,4,,,,64,0
105963,note_on,0,0,12,,,,,,,,,11,,,,76,0
105964,note_on,0,0,2,,,,,,,,,1,,,,84,0
105964,note_on,75,0,2,,,,,,,,,1,,,,76,0
105964,note_on,66,0,6,,,,,,,,,5,,,,60,0
105965,note_on,0,0,3,,,,,,,,,2,,,,76,0
105965,note_on,75,0,3,,,,,,,,,2,,,,72,0
105967,note_on,0,0,8,,,,,,,,,7,,,,60,0
105967,note_on,120,0,8,,,,,,,,,7,,,,64,0
105968,note_on,66,0,13,,,,,,,,,12,,,,48,0
105968,note_on,0,0,13,,,,,,,,,12,,,,55,0
105968,note_on,0,0,13,,,,,,,,,12,,,,72,0
105968,note_on,0,0,13,,,,,,,,,12,,,,64,0
105969,note_on,0,0,4,,,,,,,,,3,,,,48,0
105969,note_on,66,0,4,,,,,,,,,3,,,,36,0
105972,note_on,66,0,14,,,,,,,,,13,,,,36,0
105972,note_on,0,0,14,,,,,,,,,13,,,,43,0
105972,note_on,0,0,14,,,,,,,,,13,,,,52,0
105972,note_on,0,0,14,,,,,,,,,13,,,,60,0
105973,note_on,120,0,9,,,,,,,,,8,,,,48,0
105974,note_on,66,0,15,,,,,,,,,14,,,,36,0
105975,note_on,120,0,10,,,,,,,,,15,,,,48,0
106080,set_tempo,240,1,0,,,,,,352941,,,,,,,,
106200,control_change,0,0,11,,,,,,,,,10,11,102,,,
106200,note_on,240,0,11,,,,,,,,,10,,,,68,112
106200,set_tempo,120,1,0,,,,,,254237,,,,,,,,
106201,control_change,240,0,1,,,,,,,,,0,11,86,,,
106201,note_on,0,0,1,,,,,,,,,0,,,,80,101
106201,note_on,0,0,1,,,,,,,,,0,,,,84,101
106202,control_change,240,0,7,,,,,,,,,6,11,102,,,
106202,note_on,0,0,7,,,,,,,,,6,,,,72,112
106203,control_change,0,0,12,,,,,,,,,11,11,102,,,
106203,control_change,0,0,5,,,,,,,,,4,11,102,,,
106203,note_on,240,0,12,,,,,,,,,11,,,,68,112
106203,note_on,240,0,5,,,,,,,,,4,,,,60,100
106204,note_on,0,0,2,,,,,,,,,1,,,,72,100
106204,control_change,0,0,6,,,,,,,,,5,11,102,,,
106204,control_change,0,0,2,,,,,,,,,1,11,86,,,
106204,note_on,240,0,6,,,,,,,,,5,,,,60,100
106204,note_on,240,0,2,,,,,,,,,1,,,,75,100
106205,note_on,240,0,3,,,,,,,,,2,,,,75,101
106205,note_on,0,0,3,,,,,,,,,2,,,,68,101
106205,control_change,0,0,3,,,,,,,,,2,11,86,,,
106207,note_on,0,0,8,,,,,,,,,7,,,,56,110
106207,control_change,240,0,8,,,,,,,,,7,11,102,,,
106207,program_change,239,0,13,,,,,,,,50,12,,,,,
106208,control_change,0,0,13,,,,,,,,,12,11,102,,,
106208,note_on,1,0,13,,,,,,,,,12,,,,68,112
106209,control_change,0,0,4,,,,,,,,,3,11,97,,,
106209,note_on,0,0,4,,,,,,,,,3,,,,63,100
106209,note_on,240,0,4,,,,,,,,,3,,,,56,100
106212,control_change,240,0,14,,,,,,,,,13,11,102,,,
106212,note_on,0,0,14,,,,,,,,,13,,,,56,112
106213,note_on,240,0,9,,,,,,,,,8,,,,56,110
106213,control_change,0,0,9,,,,,,,,,8,11,102,,,
106214,note_on,240,0,15,,,,,,,,,14,,,,44,112
106214,control_change,0,0,15,,,,,,,,,14,11,102,,,
106215,note_on,240,0,10,,,,,,,,,15,,,,48,100
106230,note_on,30,0,11,,,,,,,,,10,,,,68,0
106233,note_on,30,0,12,,,,,,,,,11,,,,68,0
106238,note_on,30,0,13,,,,,,,,,12,,,,68,0
106242,note_on,30,0,14,,,,,,,,,13,,,,56,0
106244,note_on,30,0,15,,,,,,,,,14,,,,44,0
106260,note_on,30,0,11,,,,,,,,,10,,,,68,112
106263,note_on,30,0,12,,,,,,,,,11,,,,68,112
106268,note_on,30,0,13,,,,,,,,,12,,,,68,112
106272,note_on,30,0,14,,,,,,,,,13,,,,56,112
106274,note_on,30,0,15,,,,,,,,,14,,,,44,112
106290,note_on,30,0,11,,,,,,,,,10,,,,68,0
106293,note_on,30,0,12,,,,,,,,,11,,,,68,0
106298,note_on,30,0,13,,,,,,,,,12,,,,68,0
106302,note_on,30,0,14,,,,,,,,,13,,,,56,0
106304,note_on,30,0,15,,,,,,,,,14,,,,44,0
106320,note_on,30,0,11,,,,,,,,,10,,,,70,112
106320,set_tempo,120,1,0,,,,,,263158,,,,,,,,
106323,note_on,30,0,12,,,,,,,,,11,,,,70,112
106328,note_on,30,0,13,,,,,,,,,12,,,,70,112
106332,note_on,30,0,14,,,,,,,,,13,,,,58,112
106334,note_on,30,0,15,,,,,,,,,14,,,,46,112
106335,note_on,120,0,10,,,,,,,,,15,,,,48,0
106350,note_on,30,0,11,,,,,,,,,10,,,,70,0
106353,note_on,30,0,12,,,,,,,,,11,,,,70,0
106358,note_on,30,0,13,,,,,,,,,12,,,,70,0
106362,note_on,30,0,14,,,,,,,,,13,,,,58,0
106364,note_on,30,0,15,,,,,,,,,14,,,,46,0
106380,note_on,30,0,11,,,,,,,,,10,,,,68,112
106383,note_on,30,0,12,,,,,,,,,11,,,,68,112
106388,note_on,30,0,13,,,,,,,,,12,,,,68,112
106392,note_on,30,0,14,,,,,,,,,13,,,,56,112
106394,note_on,30,0,15,,,,,,,,,14,,,,44,112
106410,note_on,30,0,11,,,,,,,,,10,,,,68,0
106413,note_on,30,0,12,,,,,,,,,11,,,,68,0
106418,note_on,30,0,13,,,,,,,,,12,,,,68,0
106422,note_on,30,0,14,,,,,,,,,13,,,,56,0
106424,note_on,30,0,15,,,,,,,,,14,,,,44,0
106440,set_tempo,120,1,0,,,,,,288462,,,,,,,,
106440,note_on,30,0,11,,,,,,,,,10,,,,70,112
106443,note_on,30,0,12,,,,,,,,,11,,,,70,112
106447,note_on,240,0,8,,,,,,,,,7,,,,56,0
106448,note_on,30,0,13,,,,,,,,,12,,,,70,112
106452,note_on,30,0,14,,,,,,,,,13,,,,58,112
106453,note_on,240,0,9,,,,,,,,,8,,,,56,0
106454,note_on,30,0,15,,,,,,,,,14,,,,46,112
106470,note_on,30,0,11,,,,,,,,,10,,,,70,0
106473,note_on,30,0,12,,,,,,,,,11,,,,70,0
106478,note_on,30,0,13,,,,,,,,,12,,,,70,0
106482,note_on,30,0,14,,,,,,,,,13,,,,58,0
106484,note_on,30,0,15,,,,,,,,,14,,,,46,0
106500,note_on,30,0,11,,,,,,,,,10,,,,68,112
106503,note_on,30,0,12,,,,,,,,,11,,,,68,112
106508,note_on,30,0,13,,,,,,,,,12,,,,68,112
106512,note_on,30,0,14,,,,,,,,,13,,,,56,112
106514,note_on,30,0,15,,,,,,,,,14,,,,44,112
106530,note_on,30,0,11,,,,,,,,,10,,,,68,0
106533,note_on,30,0,12,,,,,,,,,11,,,,68,0
106538,note_on,30,0,13,,,,,,,,,12,,,,68,0
106542,note_on,30,0,14,,,,,,,,,13,,,,56,0
106544,note_on,30,0,15,,,,,,,,,14,,,,44,0
106551,note_on,0,0,1,,,,,,,,,0,,,,80,0
106551,note_on,350,0,1,,,,,,,,,0,,,,84,0
106552,note_on,350,0,7,,,,,,,,,6,,,,72,0
106553,note_on,350,0,5,,,,,,,,,4,,,,60,0
106554,note_on,350,0,6,,,,,,,,,5,,,,60,0
106554,note_on,0,0,2,,,,,,,,,1,,,,75,0
106554,note_on,350,0,2,,,,,,,,,1,,,,72,0
106555,note_on,0,0,3,,,,,,,,,2,,,,75,0
106555,note_on,350,0,3,,,,,,,,,2,,,,68,0
106559,note_on,0,0,4,,,,,,,,,3,,,,56,0
106559,note_on,350,0,4,,,,,,,,,3,,,,63,0
106560,set_tempo,120,1,0,,,,,,258621,,,,,,,,
106560,note_on,30,0,11,,,,,,,,,10,,,,72,112
106561,note_on,0,0,1,,,,,,,,,0,,,,84,116
106561,note_on,10,0,1,,,,,,,,,0,,,,80,116
106562,note_on,10,0,7,,,,,,,,,6,,,,72,127
106563,note_on,30,0,12,,,,,,,,,11,,,,72,112
106563,note_on,10,0,5,,,,,,,,,4,,,,60,115
106564,note_on,10,0,2,,,,,,,,,1,,,,75,115
106564,note_on,0,0,2,,,,,,,,,1,,,,72,115
106564,note_on,10,0,6,,,,,,,,,5,,,,60,115
106565,note_on,10,0,3,,,,,,,,,2,,,,68,116
106565,note_on,0,0,3,,,,,,,,,2,,,,75,116
106567,note_on,120,0,8,,,,,,,,,7,,,,60,125
106568,note_on,30,0,13,,,,,,,,,12,,,,72,112
106569,note_on,0,0,4,,,,,,,,,3,,,,63,115
106569,note_on,10,0,4,,,,,,,,,3,,,,56,115
106572,note_on,30,0,14,,,,,,,,,13,,,,60,112
106573,note_on,120,0,9,,,,,,,,,8,,,,60,125
106574,note_on,30,0,15,,,,,,,,,14,,,,48,112
106575,note_on,240,0,10,,,,,,,,,15,,,,48,100
106620,note_on,60,0,11,,,,,,,,,10,,,,72,0
106623,note_on,60,0,12,,,,,,,,,11,,,,72,0
106628,note_on,60,0,13,,,,,,,,,12,,,,72,0
106632,note_on,60,0,14,,,,,,,,,13,,,,60,0
106634,note_on,60,0,15,,,,,,,,,14,,,,48,0
106680,note_on,60,0,11,,,,,,,,,10,,,,72,112
106683,note_on,60,0,12,,,,,,,,,11,,,,72,112
106688,note_on,60,0,13,,,,,,,,,12,,,,72,112
106692,note_on,60,0,14,,,,,,,,,13,,,,60,112
106694,note_on,60,0,15,,,,,,,,,14,,,,48,112
106695,note_on,120,0,10,,,,,,,,,15,,,,48,0
106740,note_on,60,0,11,,,,,,,,,10,,,,72,0
106743,note_on,60,0,12,,,,,,,,,11,,,,72,0
106748,note_on,60,0,13,,,,,,,,,12,,,,72,0
106752,note_on,60,0,14,,,,,,,,,13,,,,60,0
106754,note_on,60,0,15,,,,,,,,,14,,,,48,0
106800,note_on,60,0,11,,,,,,,,,10,,,,72,112
106800,set_tempo,240,1,0,,,,,,288462,,,,,,,,
106803,note_on,60,0,12,,,,,,,,,11,,,,72,112
106807,note_on,240,0,8,,,,,,,,,7,,,,60,0
106808,note_on,60,0,13,,,,,,,,,12,,,,72,112
106812,note_on,60,0,14,,,,,,,,,13,,,,60,112
106813,note_on,240,0,9,,,,,,,,,8,,,,60,0
106814,note_on,60,0,15,,,,,,,,,14,,,,48,112
106860,note_on,60,0,11,,,,,,,,,10,,,,72,0
106863,note_on,60,0,12,,,,,,,,,11,,,,72,0
106868,note_on,60,0,13,,,,,,,,,12,,,,72,0
106872,note_on,60,0,14,,,,,,,,,13,,,,60,0
106874,note_on,60,0,15,,,,,,,,,14,,,,48,0
106911,note_on,350,0,1,,,,,,,,,0,,,,84,0
106911,note_on,0,0,1,,,,,,,,,0,,,,80,0
106912,note_on,350,0,7,,,,,,,,,6,,,,72,0
106913,note_on,350,0,5,,,,,,,,,4,,,,60,0
106914,note_on,350,0,2,,,,,,,,,1,,,,72,0
106914,note_on,0,0,2,,,,,,,,,1,,,,75,0
106914,note_on,350,0,6,,,,,,,,,5,,,,60,0
106915,note_on,0,0,3,,,,,,,,,2,,,,68,0
106915,note_on,350,0,3,,,,,,,,,2,,,,75,0
106919,note_on,350,0,4,,,,,,,,,3,,,,63,0
106919,note_on,0,0,4,,,,,,,,,3,,,,56,0
106920,set_tempo,120,1,0,,,,,,254237,,,,,,,,
106920,note_on,60,0,11,,,,,,,,,10,,,,63,112
106921,note_on,10,0,1,,,,,,,,,0,,,,84,116
106921,note_on,0,0,1,,,,,,,,,0,,,,80,116
106922,note_on,10,0,7,,,,,,,,,6,,,,72,127
106923,note_on,60,0,12,,,,,,,,,11,,,,63,112
106923,note_on,10,0,5,,,,,,,,,4,,,,60,115
106924,note_on,0,0,2,,,,,,,,,1,,,,75,115
106924,note_on,10,0,2,,,,,,,,,1,,,,72,115
106924,note_on,10,0,6,,,,,,,,,5,,,,60,115
106925,note_on,0,0,3,,,,,,,,,2,,,,75,116
106925,note_on,10,0,3,,,,,,,,,2,,,,68,116
106927,note_on,120,0,8,,,,,,,,,7,,,,51,125
106928,note_on,60,0,13,,,,,,,,,12,,,,63,112
106929,note_on,10,0,4,,,,,,,,,3,,,,63,115
106929,note_on,0,0,4,,,,,,,,,3,,,,56,115
106932,note_on,60,0,14,,,,,,,,,13,,,,51,112
106933,note_on,120,0,9,,,,,,,,,8,,,,51,125
106934,note_on,60,0,15,,,,,,,,,14,,,,39,112
106935,note_on,240,0,10,,,,,,,,,15,,,,48,100
106950,note_on,30,0,11,,,,,,,,,10,,,,63,0
106953,note_on,30,0,12,,,,,,,,,11,,,,63,0
106958,note_on,30,0,13,,,,,,,,,12,,,,63,0
106962,note_on,30,0,14,,,,,,,,,13,,,,51,0
106964,note_on,30,0,15,,,,,,,,,14,,,,39,0
106980,note_on,30,0,11,,,,,,,,,10,,,,63,112
106983,note_on,30,0,12,,,,,,,,,11,,,,63,112
106988,note_on,30,0,13,,,,,,,,,12,,,,63,112
106992,note_on,30,0,14,,,,,,,,,13,,,,51,112
106994,note_on,30,0,15,,,,,,,,,14,,,,39,112
107010,note_on,30,0,11,,,,,,,,,10,,,,63,0
107013,note_on,30,0,12,,,,,,,,,11,,,,63,0
107018,note_on,30,0,13,,,,,,,,,12,,,,63,0
107022,note_on,30,0,14,,,,,,,,,13,,,,51,0
107024,note_on,30,0,15,,,,,,,,,14,,,,39,0
107040,note_on,30,0,11,,,,,,,,,10,,,,65,112
107040,set_tempo,120,1,0,,,,,,263158,,,,,,,,
107043,note_on,30,0,12,,,,,,,,,11,,,,65,112
107048,note_on,30,0,13,,,,,,,,,12,,,,65,112
107052,note_on,30,0,14,,,,,,,,,13,,,,53,112
107054,note_on,30,0,15,,,,,,,,,14,,,,41,112
107055,note_on,120,0,10,,,,,,,,,15,,,,48,0
107070,note_on,30,0,11,,,,,,,,,10,,,,65,0
107073,note_on,30,0,12,,,,,,,,,11,,,,65,0
107078,note_on,30,0,13,,,,,,,,,12,,,,65,0
107082,note_on,30,0,14,,,,,,,,,13,,,,53,0
107084,note_on,30,0,15,,,,,,,,,14,,,,41,0
107100,note_on,30,0,11,,,,,,,,,10,,,,63,112
107103,note_on,30,0,12,,,,,,,,,11,,,,63,112
107108,note_on,30,0,13,,,,,,,,,12,,,,63,112
107112,note_on,30,0,14,,,,,,,,,13,,,,51,112
107114,note_on,30,0,15,,,,,,,,,14,,,,39,112
107130,note_on,30,0,11,,,,,,,,,10,,,,63,0
107133,note_on,30,0,12,,,,,,,,,11,,,,63,0
107138,note_on,30,0,13,,,,,,,,,12,,,,63,0
107142,note_on,30,0,14,,,,,,,,,13,,,,51,0
107144,note_on,30,0,15,,,,,,,,,14,,,,39,0
107160,set_tempo,120,1,0,,,,,,288462,,,,,,,,
107160,note_on,30,0,11,,,,,,,,,10,,,,65,112
107163,note_on,30,0,12,,,,,,,,,11,,,,65,112
107167,note_on,240,0,8,,,,,,,,,7,,,,51,0
107168,note_on,30,0,13,,,,,,,,,12,,,,65,112
107172,note_on,30,0,14,,,,,,,,,13,,,,53,112
107173,note_on,240,0,9,,,,,,,,,8,,,,51,0
107174,note_on,30,0,15,,,,,,,,,14,,,,41,112
107190,note_on,30,0,11,,,,,,,,,10,,,,65,0
107193,note_on,30,0,12,,,,,,,,,11,,,,65,0
107198,note_on,30,0,13,,,,,,,,,12,,,,65,0
107202,note_on,30,0,14,,,,,,,,,13,,,,53,0
107204,note_on,30,0,15,,,,,,,,,14,,,,41,0
107220,note_on,30,0,11,,,,,,,,,10,,,,63,112
107223,note_on,30,0,12,,,,,,,,,11,,,,63,112
107228,note_on,30,0,13,,,,,,,,,12,,,,63,112
107232,note_on,30,0,14,,,,,,,,,13,,,,51,112
107234,note_on,30,0,15,,,,,,,,,14,,,,39,112
107250,note_on,30,0,11,,,,,,,,,10,,,,63,0
107253,note_on,30,0,12,,,,,,,,,11,,,,63,0
107258,note_on,30,0,13,,,,,,,,,12,,,,63,0
107262,note_on,30,0,14,,,,,,,,,13,,,,51,0
107264,note_on,30,0,15,,,,,,,,,14,,,,39,0
107271,note_on,350,0,1,,,,,,,,,0,,,,80,0
107271,note_on,0,0,1,,,,,,,,,0,,,,84,0
107272,note_on,350,0,7,,,,,,,,,6,,,,72,0
107273,note_on,350,0,5,,,,,,,,,4,,,,60,0
107274,note_on,350,0,2,,,,,,,,,1,,,,75,0
107274,note_on,350,0,6,,,,,,,,,5,,,,60,0
107274,note_on,0,0,2,,,,,,,,,1,,,,72,0
107275,note_on,0,0,3,,,,,,,,,2,,,,68,0
107275,note_on,350,0,3,,,,,,,,,2,,,,75,0
107279,note_on,0,0,4,,,,,,,,,3,,,,63,0
107279,note_on,350,0,4,,,,,,,,,3,,,,56,0
107280,note_on,30,0,11,,,,,,,,,10,,,,68,112
107280,set_tempo,120,1,0,,,,,,258621,,,,,,,,
107281,note_on,10,0,1,,,,,,,,,0,,,,84,116
107281,note_on,0,0,1,,,,,,,,,0,,,,80,116
107282,note_on,10,0,7,,,,,,,,,6,,,,72,127
107283,note_on,10,0,5,,,,,,,,,4,,,,60,115
107283,note_on,30,0,12,,,,,,,,,11,,,,68,112
107284,note_on,10,0,2,,,,,,,,,1,,,,72,115
107284,note_on,0,0,2,,,,,,,,,1,,,,75,115
107284,note_on,10,0,6,,,,,,,,,5,,,,60,115
107285,note_on,10,0,3,,,,,,,,,2,,,,75,116
107285,note_on,0,0,3,,,,,,,,,2,,,,68,116
107287,note_on,120,0,8,,,,,,,,,7,,,,56,125
107288,note_on,30,0,13,,,,,,,,,12,,,,68,112
107289,note_on,10,0,4,,,,,,,,,3,,,,63,115
107289,note_on,0,0,4,,,,,,,,,3,,,,56,115
107292,note_on,30,0,14,,,,,,,,,13,,,,56,112
107293,note_on,120,0,9,,,,,,,,,8,,,,56,125
107294,note_on,30,0,15,,,,,,,,,14,,,,44,112
107295,note_on,240,0,10,,,,,,,,,15,,,,48,100
107340,note_on,60,0,11,,,,,,,,,10,,,,68,0
107343,note_on,60,0,12,,,,,,,,,11,,,,68,0
107348,note_on,60,0,13,,,,,,,,,12,,,,68,0
107352,note_on,60,0,14,,,,,,,,,13,,,,56,0
107354,note_on,60,0,15,,,,,,,,,14,,,,44,0
107400,note_on,60,0,11,,,,,,,,,10,,,,68,112
107403,note_on,60,0,12,,,,,,,,,11,,,,68,112
107408,note_on,60,0,13,,,,,,,,,12,,,,68,112
107412,note_on,60,0,14,,,,,,,,,13,,,,56,112
107414,note_on,60,0,15,,,,,,,,,14,,,,44,112
107415,note_on,120,0,10,,,,,,,,,15,,,,48,0
107460,note_on,60,0,11,,,,,,,,,10,,,,68,0
107463,note_on,60,0,12,,,,,,,,,11,,,,68,0
107468,note_on,60,0,13,,,,,,,,,12,,,,68,0
107472,note_on,60,0,14,,,,,,,,,13,,,,56,0
107474,note_on,60,0,15,,,,,,,,,14,,,,44,0
107520,note_on,60,0,11,,,,,,,,,10,,,,68,112
107520,set_tempo,240,1,0,,,,,,288462,,,,,,,,
107523,note_on,60,0,12,,,,,,,,,11,,,,68,112
107527,note_on,240,0,8,,,,,,,,,7,,,,56,0
107528,note_on,60,0,13,,,,,,,,,12,,,,68,112
107532,note_on,60,0,14,,,,,,,,,13,,,,56,112
107533,note_on,240,0,9,,,,,,,,,8,,,,56,0
107534,note_on,60,0,15,,,,,,,,,14,,,,44,112
107580,note_on,60,0,11,,,,,,,,,10,,,,68,0
107583,note_on,60,0,12,,,,,,,,,11,,,,68,0
107588,note_on,60,0,13,,,,,,,,,12,,,,68,0
107592,note_on,60,0,14,,,,,,,,,13,,,,56,0
107594,note_on,60,0,15,,,,,,,,,14,,,,44,0
107631,note_on,0,0,1,,,,,,,,,0,,,,84,0
107631,note_on,350,0,1,,,,,,,,,0,,,,80,0
107632,note_on,350,0,7,,,,,,,,,6,,,,72,0
107633,note_on,350,0,5,,,,,,,,,4,,,,60,0
107634,note_on,350,0,6,,,,,,,,,5,,,,60,0
107634,note_on,350,0,2,,,,,,,,,1,,,,75,0
107634,note_on,0,0,2,,,,,,,,,1,,,,72,0
107635,note_on,0,0,3,,,,,,,,,2,,,,75,0
107635,note_on,350,0,3,,,,,,,,,2,,,,68,0
107639,note_on,0,0,4,,,,,,,,,3,,,,63,0
107639,note_on,350,0,4,,,,,,,,,3,,,,56,0
107640,note_on,60,0,11,,,,,,,,,10,,,,60,112
107640,set_tempo,120,1,0,,,,,,254237,,,,,,,,
107641,note_on,10,0,1,,,,,,,,,0,,,,84,101
107641,note_on,0,0,1,,,,,,,,,0,,,,80,101
107642,note_on,10,0,7,,,,,,,,,6,,,,72,127
107643,note_on,10,0,5,,,,,,,,,4,,,,60,115
107643,note_on,60,0,12,,,,,,,,,11,,,,60,112
107644,note_on,0,0,2,,,,,,,,,1,,,,75,100
107644,note_on,10,0,2,,,,,,,,,1,,,,72,100
107644,note_on,10,0,6,,,,,,,,,5,,,,60,115
107645,note_on,10,0,3,,,,,,,,,2,,,,68,101
107645,note_on,0,0,3,,,,,,,,,2,,,,75,101
107647,note_on,120,0,8,,,,,,,,,7,,,,60,110
107647,note_on,0,0,8,,,,,,,,,7,,,,48,110
107648,note_on,60,0,13,,,,,,,,,12,,,,60,112
107649,note_on,10,0,4,,,,,,,,,3,,,,63,100
107649,note_on,0,0,4,,,,,,,,,3,,,,56,100
107652,note_on,60,0,14,,,,,,,,,13,,,,48,112
107653,note_on,120,0,9,,,,,,,,,8,,,,48,110
107654,note_on,60,0,15,,,,,,,,,14,,,,36,112
107655,note_on,240,0,10,,,,,,,,,15,,,,48,100
107670,note_on,30,0,11,,,,,,,,,10,,,,60,0
107673,note_on,30,0,12,,,,,,,,,11,,,,60,0
107678,note_on,30,0,13,,,,,,,,,12,,,,60,0
107682,note_on,30,0,14,,,,,,,,,13,,,,48,0
107684,note_on,30,0,15,,,,,,,,,14,,,,36,0
107700,note_on,30,0,11,,,,,,,,,10,,,,60,112
107703,note_on,30,0,12,,,,,,,,,11,,,,60,112
107708,note_on,30,0,13,,,,,,,,,12,,,,60,112
107712,note_on,30,0,14,,,,,,,,,13,,,,48,112
107714,note_on,30,0,15,,,,,,,,,14,,,,36,112
107730,note_on,30,0,11,,,,,,,,,10,,,,60,0
107733,note_on,30,0,12,,,,,,,,,11,,,,60,0
107738,note_on,30,0,13,,,,,,,,,12,,,,60,0
107742,note_on,30,0,14,,,,,,,,,13,,,,48,0
107744,note_on,30,0,15,,,,,,,,,14,,,,36,0
107760,set_tempo,120,1,0,,,,,,263158,,,,,,,,
107760,note_on,30,0,11,,,,,,,,,10,,,,61,112
107763,note_on,30,0,12,,,,,,,,,11,,,,61,112
107768,note_on,30,0,13,,,,,,,,,12,,,,61,112
107772,note_on,30,0,14,,,,,,,,,13,,,,49,112
107774,note_on,30,0,15,,,,,,,,,14,,,,37,112
107775,note_on,120,0,10,,,,,,,,,15,,,,48,0
107790,note_on,30,0,11,,,,,,,,,10,,,,61,0
107793,note_on,30,0,12,,,,,,,,,11,,,,61,0
107798,note_on,30,0,13,,,,,,,,,12,,,,61,0
107802,note_on,30,0,14,,,,,,,,,13,,,,49,0
107804,note_on,30,0,15,,,,,,,,,14,,,,37,0
107820,note_on,30,0,11,,,,,,,,,10,,,,60,112
107823,note_on,30,0,12,,,,,,,,,11,,,,60,112
107828,note_on,30,0,13,,,,,,,,,12,,,,60,112
107832,note_on,30,0,14,,,,,,,,,13,,,,48,112
107834,note_on,30,0,15,,,,,,,,,14,,,,36,112
107850,note_on,30,0,11,,,,,,,,,10,,,,60,0
107853,note_on,30,0,12,,,,,,,,,11,,,,60,0
107858,note_on,30,0,13,,,,,,,,,12,,,,60,0
107862,note_on,30,0,14,,,,,,,,,13,,,,48,0
107864,note_on,30,0,15,,,,,,,,,14,,,,36,0
107880,note_on,30,0,11,,,,,,,,,10,,,,61,112
107880,set_tempo,120,1,0,,,,,,288462,,,,,,,,
107883,note_on,30,0,12,,,,,,,,,11,,,,61,112
107887,note_on,240,0,8,,,,,,,,,7,,,,48,0
107887,note_on,0,0,8,,,,,,,,,7,,,,60,0
107888,note_on,30,0,13,,,,,,,,,12,,,,61,112
107892,note_on,30,0,14,,,,,,,,,13,,,,49,112
107893,note_on,240,0,9,,,,,,,,,8,,,,48,0
107894,note_on,30,0,15,,,,,,,,,14,,,,37,112
107910,note_on,30,0,11,,,,,,,,,10,,,,61,0
107913,note_on,30,0,12,,,,,,,,,11,,,,61,0
107918,note_on,30,0,13,,,,,,,,,12,,,,61,0
107922,note_on,30,0,14,,,,,,,,,13,,,,49,0
107924,note_on,30,0,15,,,,,,,,,14,,,,37,0
107940,note_on,30,0,11,,,,,,,,,10,,,,60,112
107943,note_on,30,0,12,,,,,,,,,11,,,,60,112
107948,note_on,30,0,13,,,,,,,,,12,,,,60,112
107952,note_on,30,0,14,,,,,,,,,13,,,,48,112
107954,note_on,30,0,15,,,,,,,,,14,,,,36,112
107970,note_on,30,0,11,,,,,,,,,10,,,,60,0
107973,note_on,30,0,12,,,,,,,,,11,,,,60,0
107978,note_on,30,0,13,,,,,,,,,12,,,,60,0
107982,note_on,30,0,14,,,,,,,,,13,,,,48,0
107984,note_on,30,0,15,,,,,,,,,14,,,,36,0
107991,note_on,0,0,1,,,,,,,,,0,,,,84,0
107991,note_on,350,0,1,,,,,,,,,0,,,,80,0
107992,note_on,350,0,7,,,,,,,,,6,,,,72,0
107993,note_on,350,0,5,,,,,,,,,4,,,,60,0
107994,note_on,350,0,6,,,,,,,,,5,,,,60,0
107994,note_on,0,0,2,,,,,,,,,1,,,,72,0
107994,note_on,350,0,2,,,,,,,,,1,,,,75,0
107995,note_on,0,0,3,,,,,,,,,2,,,,68,0
107995,note_on,350,0,3,,,,,,,,,2,,,,75,0
107999,note_on,0,0,4,,,,,,,,,3,,,,63,0
107999,note_on,350,0,4,,,,,,,,,3,,,,56,0
108000,note_on,30,0,11,,,,,,,,,10,,,,63,112
108000,set_tempo,120,1,0,,,,,,258621,,,,,,,,
108001,note_on,10,0,1,,,,,,,,,0,,,,80,101
108001,note_on,0,0,1,,,,,,,,,0,,,,84,101
108002,note_on,10,0,7,,,,,,,,,6,,,,72,112
108003,note_on,10,0,5,,,,,,,,,4,,,,60,115
108003,note_on,30,0,12,,,,,,,,,11,,,,63,112
108004,note_on,0,0,2,,,,,,,,,1,,,,72,100
108004,note_on,10,0,6,,,,,,,,,5,,,,60,115
108004,note_on,10,0,2,,,,,,,,,1,,,,75,100
108005,note_on,10,0,3,,,,,,,,,2,,,,68,101
108005,note_on,0,0,3,,,,,,,,,2,,,,75,101
108007,note_on,120,0,8,,,,,,,,,7,,,,63,110
108007,note_on,0,0,8,,,,,,,,,7,,,,51,110
108008,note_on,30,0,13,,,,,,,,,12,,,,63,112
108009,note_on,10,0,4,,,,,,,,,3,,,,63,100
108009,note_on,0,0,4,,,,,,,,,3,,,,56,100
108012,note_on,30,0,14,,,,,,,,,13,,,,51,112
108013,note_on,120,0,9,,,,,,,,,8,,,,51,110
108014,note_on,30,0,15,,,,,,,,,14,,,,39,112
108015,note_on,240,0,10,,,,,,,,,15,,,,48,100
108060,note_on,60,0,11,,,,,,,,,10,,,,63,0
108063,note_on,60,0,12,,,,,,,,,11,,,,63,0
108068,note_on,60,0,13,,,,,,,,,12,,,,63,0
108072,note_on,60,0,14,,,,,,,,,13,,,,51,0
108074,note_on,60,0,15,,,,,,,,,14,,,,39,0
108120,note_on,60,0,11,,,,,,,,,10,,,,63,112
108123,note_on,60,0,12,,,,,,,,,11,,,,63,112
108128,note_on,60,0,13,,,,,,,,,12,,,,63,112
108132,note_on,60,0,14,,,,,,,,,13,,,,51,112
108134,note_on,60,0,15,,,,,,,,,14,,,,39,112
108135,note_on,120,0,10,,,,,,,,,15,,,,48,0
108180,note_on,60,0,11,,,,,,,,,10,,,,63,0
108183,note_on,60,0,12,,,,,,,,,11,,,,63,0
108188,note_on,60,0,13,,,,,,,,,12,,,,63,0
108192,note_on,60,0,14,,,,,,,,,13,,,,51,0
108194,note_on,60,0,15,,,,,,,,,14,,,,39,0
108240,set_tempo,240,1,0,,,,,,288462,,,,,,,,
108240,note_on,60,0,11,,,,,,,,,10,,,,63,112
108243,note_on,60,0,12,,,,,,,,,11,,,,63,112
108247,note_on,240,0,8,,,,,,,,,7,,,,51,0
108247,note_on,0,0,8,,,,,,,,,7,,,,63,0
108248,note_on,60,0,13,,,,,,,,,12,,,,63,112
108252,note_on,60,0,14,,,,,,,,,13,,,,51,112
108253,note_on,240,0,9,,,,,,,,,8,,,,51,0
108254,note_on,60,0,15,,,,,,,,,14,,,,39,112
108300,note_on,60,0,11,,,,,,,,,10,,,,63,0
108303,note_on,60,0,12,,,,,,,,,11,,,,63,0
108308,note_on,60,0,13,,,,,,,,,12,,,,63,0
108312,note_on,60,0,14,,,,,,,,,13,,,,51,0
108314,note_on,60,0,15,,,,,,,,,14,,,,39,0
108351,note_on,350,0,1,,,,,,,,,0,,,,84,0
108351,note_on,0,0,1,,,,,,,,,0,,,,80,0
108352,note_on,350,0,7,,,,,,,,,6,,,,72,0
108353,note_on,350,0,5,,,,,,,,,4,,,,60,0
108354,note_on,0,0,2,,,,,,,,,1,,,,75,0
108354,note_on,350,0,6,,,,,,,,,5,,,,60,0
108354,note_on,350,0,2,,,,,,,,,1,,,,72,0
108355,note_on,350,0,3,,,,,,,,,2,,,,75,0
108355,note_on,0,0,3,,,,,,,,,2,,,,68,0
108359,note_on,0,0,4,,,,,,,,,3,,,,63,0
108359,note_on,350,0,4,,,,,,,,,3,,,,56,0
108360,note_on,60,0,11,,,,,,,,,10,,,,56,112
108360,set_tempo,120,1,0,,,,,,258621,,,,,,,,
108361,note_on,10,0,1,,,,,,,,,0,,,,80,101
108361,note_on,0,0,1,,,,,,,,,0,,,,84,101
108362,note_on,10,0,7,,,,,,,,,6,,,,72,112
108363,note_on,60,0,12,,,,,,,,,11,,,,56,112
108363,note_on,10,0,5,,,,,,,,,4,,,,60,115
108364,note_on,10,0,6,,,,,,,,,5,,,,60,115
108364,note_on,10,0,2,,,,,,,,,1,,,,75,100
108364,note_on,0,0,2,,,,,,,,,1,,,,72,100
108365,note_on,0,0,3,,,,,,,,,2,,,,68,101
108365,note_on,10,0,3,,,,,,,,,2,,,,75,101
108367,note_on,120,0,8,,,,,,,,,7,,,,56,110
108368,note_on,60,0,13,,,,,,,,,12,,,,56,112
108369,note_on,10,0,4,,,,,,,,,3,,,,56,100
108369,note_on,0,0,4,,,,,,,,,3,,,,63,100
108372,note_on,60,0,14,,,,,,,,,13,,,,44,112
108373,note_on,120,0,9,,,,,,,,,8,,,,44,110
108374,note_on,60,0,15,,,,,,,,,14,,,,32,112
108375,note_on,240,0,10,,,,,,,,,15,,,,48,100
108420,note_on,60,0,11,,,,,,,,,10,,,,56,0
108423,note_on,60,0,12,,,,,,,,,11,,,,56,0
108428,note_on,60,0,13,,,,,,,,,12,,,,56,0
108432,note_on,60,0,14,,,,,,,,,13,,,,44,0
108434,note_on,60,0,15,,,,,,,,,14,,,,32,0
108480,note_on,60,0,11,,,,,,,,,10,,,,60,112
108483,note_on,60,0,12,,,,,,,,,11,,,,60,112
108488,note_on,60,0,13,,,,,,,,,12,,,,60,112
108492,note_on,60,0,14,,,,,,,,,13,,,,48,112
108494,note_on,60,0,15,,,,,,,,,14,,,,36,112
108495,note_on,120,0,10,,,,,,,,,15,,,,48,0
108540,note_on,60,0,11,,,,,,,,,10,,,,60,0
108543,note_on,60,0,12,,,,,,,,,11,,,,60,0
108548,note_on,60,0,13,,,,,,,,,12,,,,60,0
108552,note_on,60,0,14,,,,,,,,,13,,,,48,0
108554,note_on,60,0,15,,,,,,,,,14,,,,36,0
108600,note_on,60,0,11,,,,,,,,,10,,,,63,112
108600,set_tempo,240,1,0,,,,,,288462,,,,,,,,
108603,note_on,60,0,12,,,,,,,,,11,,,,63,112
108607,note_on,240,0,8,,,,,,,,,7,,,,56,0
108608,note_on,60,0,13,,,,,,,,,12,,,,63,112
108612,note_on,60,0,14,,,,,,,,,13,,,,51,112
108613,note_on,240,0,9,,,,,,,,,8,,,,44,0
108614,note_on,60,0,15,,,,,,,,,14,,,,39,112
108660,note_on,60,0,11,,,,,,,,,10,,,,63,0
108663,note_on,60,0,12,,,,,,,,,11,,,,63,0
108668,note_on,60,0,13,,,,,,,,,12,,,,63,0
108672,note_on,60,0,14,,,,,,,,,13,,,,51,0
108674,note_on,60,0,15,,,,,,,,,14,,,,39,0
108711,note_on,350,0,1,,,,,,,,,0,,,,84,0
108711,note_on,0,0,1,,,,,,,,,0,,,,80,0
108712,note_on,350,0,7,,,,,,,,,6,,,,72,0
108713,note_on,350,0,5,,,,,,,,,4,,,,60,0
108714,note_on,0,0,2,,,,,,,,,1,,,,75,0
108714,note_on,350,0,2,,,,,,,,,1,,,,72,0
108714,note_on,350,0,6,,,,,,,,,5,,,,60,0
108715,note_on,0,0,3,,,,,,,,,2,,,,75,0
108715,note_on,350,0,3,,,,,,,,,2,,,,68,0
108719,note_on,350,0,4,,,,,,,,,3,,,,63,0
108719,note_on,0,0,4,,,,,,,,,3,,,,56,0
108720,set_tempo,120,1,0,,,,,,258621,,,,,,,,
108720,note_on,60,0,11,,,,,,,,,10,,,,68,112
108721,note_on,10,0,1,,,,,,,,,0,,,,80,101
108721,note_on,0,0,1,,,,,,,,,0,,,,84,101
108722,note_on,10,0,7,,,,,,,,,6,,,,72,112
108723,note_on,60,0,12,,,,,,,,,11,,,,68,112
108723,note_on,10,0,5,,,,,,,,,4,,,,60,115
108724,note_on,10,0,6,,,,,,,,,5,,,,60,115
108724,note_on,0,0,2,,,,,,,,,1,,,,75,100
108724,note_on,10,0,2,,,,,,,,,1,,,,72,100
108725,note_on,0,0,3,,,,,,,,,2,,,,68,101
108725,note_on,10,0,3,,,,,,,,,2,,,,75,101
108727,note_on,120,0,8,,,,,,,,,7,,,,60,110
108728,note_on,60,0,13,,,,,,,,,12,,,,68,112
108729,note_on,10,0,4,,,,,,,,,3,,,,56,100
108729,note_on,0,0,4,,,,,,,,,3,,,,63,100
108732,note_on,60,0,14,,,,,,,,,13,,,,56,112
108733,note_on,120,0,9,,,,,,,,,8,,,,48,110
108734,note_on,60,0,15,,,,,,,,,14,,,,44,112
108735,note_on,240,0,10,,,,,,,,,15,,,,48,100
108780,note_on,60,0,11,,,,,,,,,10,,,,68,0
108783,note_on,60,0,12,,,,,,,,,11,,,,68,0
108788,note_on,60,0,13,,,,,,,,,12,,,,68,0
108792,note_on,60,0,14,,,,,,,,,13,,,,56,0
108794,note_on,60,0,15,,,,,,,,,14,,,,44,0
108840,note_on,60,0,11,,,,,,,,,10,,,,70,112
108843,note_on,60,0,12,,,,,,,,,11,,,,70,112
108848,note_on,60,0,13,,,,,,,,,12,,,,70,112
108852,note_on,60,0,14,,,,,,,,,13,,,,58,112
108854,note_on,60,0,15,,,,,,,,,14,,,,46,112
108855,note_on,120,0,10,,,,,,,,,15,,,,48,0
108900,note_on,60,0,11,,,,,,,,,10,,,,70,0
108903,note_on,60,0,12,,,,,,,,,11,,,,70,0
108908,note_on,60,0,13,,,,,,,,,12,,,,70,0
108912,note_on,60,0,14,,,,,,,,,13,,,,58,0
108914,note_on,60,0,15,,,,,,,,,14,,,,46,0
108960,set_tempo,240,1,0,,,,,,288462,,,,,,,,
108960,note_on,60,0,11,,,,,,,,,10,,,,72,112
108963,note_on,60,0,12,,,,,,,,,11,,,,72,112
108967,note_on,240,0,8,,,,,,,,,7,,,,60,0
108968,note_on,60,0,13,,,,,,,,,12,,,,72,112
108972,note_on,60,0,14,,,,,,,,,13,,,,60,112
108973,note_on,240,0,9,,,,,,,,,8,,,,48,0
108974,note_on,60,0,15,,,,,,,,,14,,,,48,112
109020,note_on,60,0,11,,,,,,,,,10,,,,72,0
109023,note_on,60,0,12,,,,,,,,,11,,,,72,0
109028,note_on,60,0,13,,,,,,,,,12,,,,72,0
109032,note_on,60,0,14,,,,,,,,,13,,,,60,0
109034,note_on,60,0,15,,,,,,,,,14,,,,48,0
109071,note_on,350,0,1,,,,,,,,,0,,,,84,0
109071,note_on,0,0,1,,,,,,,,,0,,,,80,0
109072,note_on,350,0,7,,,,,,,,,6,,,,72,0
109073,note_on,350,0,5,,,,,,,,,4,,,,60,0
109074,note_on,350,0,2,,,,,,,,,1,,,,75,0
109074,note_on,0,0,2,,,,,,,,,1,,,,72,0
109074,note_on,350,0,6,,,,,,,,,5,,,,60,0
109075,note_on,350,0,3,,,,,,,,,2,,,,68,0
109075,note_on,0,0,3,,,,,,,,,2,,,,75,0
109079,note_on,0,0,4,,,,,,,,,3,,,,56,0
109079,note_on,350,0,4,,,,,,,,,3,,,,63,0
109080,set_tempo,120,1,0,,,,,,254237,,,,,,,,
109080,control_change,60,0,11,,,,,,,,,10,11,122,,,
109080,note_on,0,0,11,,,,,,,,,10,,,,63,112
109081,note_on,10,0,1,,,,,,,,,0,,,,85,101
109081,note_on,0,0,1,,,,,,,,,0,,,,82,101
109082,control_change,0,0,7,,,,,,,,,6,11,102,,,
109082,note_on,10,0,7,,,,,,,,,6,,,,67,112
109083,control_change,10,0,5,,,,,,,,,4,11,102,,,
109083,note_on,60,0,12,,,,,,,,,11,,,,63,112
109083,control_change,0,0,12,,,,,,,,,11,11,122,,,
109083,note_on,0,0,5,,,,,,,,,4,,,,55,100
109084,note_on,0,0,2,,,,,,,,,1,,,,70,100
109084,note_on,10,0,2,,,,,,,,,1,,,,73,100
109084,control_change,10,0,6,,,,,,,,,5,11,102,,,
109084,note_on,0,0,6,,,,,,,,,5,,,,55,100
109085,note_on,10,0,3,,,,,,,,,2,,,,73,101
109085,note_on,0,0,3,,,,,,,,,2,,,,70,101
109087,note_on,0,0,8,,,,,,,,,7,,,,51,125
109087,note_on,0,0,8,,,,,,,,,7,,,,63,125
109087,control_change,120,0,8,,,,,,,,,7,11,102,,,
109088,control_change,0,0,13,,,,,,,,,12,11,122,,,
109088,note_on,0,0,13,,,,,,,,,12,,,,67,112
109088,note_on,60,0,13,,,,,,,,,12,,,,63,112
109089,control_change,9,0,11,,,,,,,,,10,11,119,,,
109089,control_change,10,0,4,,,,,,,,,3,11,97,,,
109089,note_on,0,0,4,,,,,,,,,3,,,,67,115
109089,note_on,0,0,4,,,,,,,,,3,,,,63,115
109092,note_on,0,0,14,,,,,,,,,13,,,,51,112
109092,control_change,60,0,14,,,,,,,,,13,11,122,,,
109092,control_change,9,0,12,,,,,,,,,11,11,119,,,
109093,control_change,120,0,9,,,,,,,,,8,11,102,,,
109093,note_on,0,0,9,,,,,,,,,8,,,,51,125
109094,note_on,0,0,15,,,,,,,,,14,,,,39,112
109094,control_change,60,0,15,,,,,,,,,14,11,122,,,
109095,control_change,6,0,4,,,,,,,,,3,11,94,,,
109095,note_on,240,0,10,,,,,,,,,15,,,,43,100
109097,control_change,9,0,13,,,,,,,,,12,11,119,,,
109098,control_change,9,0,11,,,,,,,,,10,11,116,,,
109101,control_change,9,0,14,,,,,,,,,13,11,119,,,
109101,control_change,9,0,12,,,,,,,,,11,11,116,,,
109102,control_change,20,0,7,,,,,,,,,6,11,99,,,
109102,control_change,7,0,4,,,,,,,,,3,11,91,,,
109103,control_change,20,0,5,,,,,,,,,4,11,99,,,
109103,control_change,9,0,15,,,,,,,,,14,11,119,,,
109104,control_change,20,0,6,,,,,,,,,5,11,99,,,
109106,control_change,9,0,13,,,,,,,,,12,11,116,,,
109107,control_change,9,0,11,,,,,,,,,10,11,113,,,
109107,control_change,20,0,8,,,,,,,,,7,11,99,,,
109108,control_change,6,0,4,,,,,,,,,3,11,88,,,
109110,control_change,9,0,12,,,,,,,,,11,11,113,,,
109110,control_change,9,0,14,,,,,,,,,13,11,116,,,
109112,control_change,9,0,15,,,,,,,,,14,11,116,,,
109113,control_change,20,0,9,,,,,,,,,8,11,99,,,
109114,note_on,30,0,2,,,,,,,,,1,,,,70,0
109114,note_on,0,0,2,,,,,,,,,1,,,,73,0
109115,note_on,0,0,3,,,,,,,,,2,,,,73,0
109115,control_change,7,0,4,,,,,,,,,3,11,85,,,
109115,note_on,30,0,3,,,,,,,,,2,,,,70,0
109115,control_change,9,0,13,,,,,,,,,12,11,113,,,
109116,control_change,9,0,11,,,,,,,,,10,11,110,,,
109119,control_change,9,0,14,,,,,,,,,13,11,113,,,
109119,control_change,9,0,12,,,,,,,,,11,11,110,,,
109121,control_change,9,0,15,,,,,,,,,14,11,113,,,
109121,control_change,6,0,4,,,,,,,,,3,11,82,,,
109123,control_change,21,0,7,,,,,,,,,6,11,96,,,
109124,control_change,21,0,5,,,,,,,,,4,11,96,,,
109124,control_change,9,0,13,,,,,,,,,12,11,110,,,
109125,control_change,21,0,6,,,,,,,,,5,11,96,,,
109125,control_change,9,0,11,,,,,,,,,10,11,107,,,
109128,control_change,7,0,4,,,,,,,,,3,11,79,,,
109128,control_change,9,0,14,,,,,,,,,13,11,110,,,
109128,control_change,9,0,12,,,,,,,,,11,11,107,,,
109128,control_change,21,0,8,,,,,,,,,7,11,96,,,
109130,control_change,9,0,15,,,,,,,,,14,11,110,,,
109133,control_change,9,0,13,,,,,,,,,12,11,107,,,
109134,control_change,6,0,4,,,,,,,,,3,11,76,,,
109134,control_change,21,0,9,,,,,,,,,8,11,96,,,
109134,control_change,9,0,11,,,,,,,,,10,11,104,,,
109137,control_change,9,0,12,,,,,,,,,11,11,104,,,
109137,control_change,9,0,14,,,,,,,,,13,11,107,,,
109139,control_change,9,0,15,,,,,,,,,14,11,107,,,
109141,control_change,7,0,4,,,,,,,,,3,11,73,,,
109142,control_change,9,0,13,,,,,,,,,12,11,104,,,
109143,control_change,20,0,7,,,,,,,,,6,11,93,,,
109144,note_on,0,0,2,,,,,,,,,1,,,,70,100
109144,note_on,30,0,2,,,,,,,,,1,,,,73,100
109144,control_change,20,0,5,,,,,,,,,4,11,93,,,
109145,control_change,20,0,6,,,,,,,,,5,11,93,,,
109145,note_on,0,0,3,,,,,,,,,2,,,,70,101
109145,note_on,30,0,3,,,,,,,,,2,,,,73,101
109146,control_change,9,0,14,,,,,,,,,13,11,104,,,
109147,control_change,6,0,4,,,,,,,,,3,11,70,,,
109148,control_change,9,0,15,,,,,,,,,14,11,104,,,
109148,control_change,20,0,8,,,,,,,,,7,11,93,,,
109154,control_change,7,0,4,,,,,,,,,3,11,67,,,
109154,control_change,20,0,9,,,,,,,,,8,11,93,,,
109161,control_change,7,0,4,,,,,,,,,3,11,64,,,
109164,control_change,21,0,7,,,,,,,,,6,11,90,,,
109165,control_change,21,0,5,,,,,,,,,4,11,90,,,
109166,control_change,21,0,6,,,,,,,,,5,11,90,,,
109167,control_change,6,0,4,,,,,,,,,3,11,61,,,
109169,control_change,21,0,8,,,,,,,,,7,11,90,,,
109174,note_on,0,0,2,,,,,,,,,1,,,,73,0
109174,note_on,30,0,2,,,,,,,,,1,,,,70,0
109174,control_change,7,0,4,,,,,,,,,3,11,58,,,
109175,note_on,0,0,3,,,,,,,,,2,,,,73,0
109175,control_change,21,0,9,,,,,,,,,8,11,90,,,
109175,note_on,30,0,3,,,,,,,,,2,,,,70,0
109180,control_change,6,0,4,,,,,,,,,3,11,55,,,
109184,control_change,20,0,7,,,,,,,,,6,11,87,,,
109185,control_change,20,0,5,,,,,,,,,4,11,87,,,
109186,control_change,20,0,6,,,,,,,,,5,11,87,,,
109187,control_change,7,0,4,,,,,,,,,3,11,52,,,
109189,control_change,20,0,8,,,,,,,,,7,11,87,,,
109193,control_change,6,0,4,,,,,,,,,3,11,49,,,
109195,control_change,20,0,9,,,,,,,,,8,11,87,,,
109200,set_tempo,120,1,0,,,,,,263158,,,,,,,,
109200,control_change,66,0,11,,,,,,,,,10,11,83,,,
109203,control_change,66,0,12,,,,,,,,,11,11,83,,,
109204,control_change,0,0,2,,,,,,,,,1,11,47,,,
109204,note_on,0,0,2,,,,,,,,,1,,,,72,100
109204,note_on,30,0,2,,,,,,,,,1,,,,75,100
109205,control_change,30,0,3,,,,,,,,,2,11,47,,,
109205,note_on,0,0,3,,,,,,,,,2,,,,75,101
109205,note_on,0,0,3,,,,,,,,,2,,,,72,101
109205,control_change,21,0,7,,,,,,,,,6,11,84,,,
109206,control_change,21,0,5,,,,,,,,,4,11,84,,,
109207,control_change,21,0,6,,,,,,,,,5,11,84,,,
109208,control_change,66,0,13,,,,,,,,,12,11,83,,,
109209,control_change,16,0,4,,,,,,,,,3,11,47,,,
109210,control_change,21,0,8,,,,,,,,,7,11,84,,,
109212,control_change,66,0,14,,,,,,,,,13,11,83,,,
109214,control_change,66,0,15,,,,,,,,,14,11,83,,,
109215,note_on,120,0,10,,,,,,,,,15,,,,43,0
109216,control_change,21,0,9,,,,,,,,,8,11,84,,,
109223,control_change,23,0,11,,,,,,,,,10,11,81,,,
109226,control_change,21,0,7,,,,,,,,,6,11,81,,,
109226,control_change,23,0,12,,,,,,,,,11,11,81,,,
109227,control_change,21,0,5,,,,,,,,,4,11,81,,,
109228,control_change,21,0,6,,,,,,,,,5,11,81,,,
109231,control_change,21,0,8,,,,,,,,,7,11,81,,,
109231,control_change,23,0,13,,,,,,,,,12,11,81,,,
109235,control_change,23,0,14,,,,,,,,,13,11,81,,,
109237,control_change,21,0,9,,,,,,,,,8,11,81,,,
109237,control_change,23,0,15,,,,,,,,,14,11,81,,,
109246,control_change,20,0,7,,,,,,,,,6,11,78,,,
109247,control_change,20,0,5,,,,,,,,,4,11,78,,,
109247,control_change,24,0,11,,,,,,,,,10,11,79,,,
109248,control_change,20,0,6,,,,,,,,,5,11,78,,,
109250,control_change,24,0,12,,,,,,,,,11,11,79,,,
109251,control_change,20,0,8,,,,,,,,,7,11,78,,,
109255,control_change,24,0,13,,,,,,,,,12,11,79,,,
109257,control_change,20,0,9,,,,,,,,,8,11,78,,,
109259,control_change,24,0,14,,,,,,,,,13,11,79,,,
109261,control_change,24,0,15,,,,,,,,,14,11,79,,,
109264,note_on,60,0,2,,,,,,,,,1,,,,72,0
109264,note_on,0,0,2,,,,,,,,,1,,,,75,0
109264,note_on,0,0,2,,,,,,,,,1,,,,73,100
109264,note_on,0,0,2,,,,,,,,,1,,,,70,100
109265,note_on,0,0,3,,,,,,,,,2,,,,73,101
109265,note_on,60,0,3,,,,,,,,,2,,,,72,0
109265,note_on,0,0,3,,,,,,,,,2,,,,70,101
109265,note_on,0,0,3,,,,,,,,,2,,,,75,0
109267,control_change,21,0,7,,,,,,,,,6,11,75,,,
109268,control_change,21,0,5,,,,,,,,,4,11,75,,,
109269,control_change,21,0,6,,,,,,,,,5,11,75,,,
109271,control_change,24,0,11,,,,,,,,,10,11,77,,,
109272,control_change,21,0,8,,,,,,,,,7,11,75,,,
109274,control_change,24,0,12,,,,,,,,,11,11,77,,,
109278,control_change,21,0,9,,,,,,,,,8,11,75,,,
109279,control_change,24,0,13,,,,,,,,,12,11,77,,,
109283,control_change,24,0,14,,,,,,,,,13,11,77,,,
109285,control_change,24,0,15,,,,,,,,,14,11,77,,,
109287,control_change,20,0,7,,,,,,,,,6,11,72,,,
109288,control_change,20,0,5,,,,,,,,,4,11,72,,,
109289,control_change,20,0,6,,,,,,,,,5,11,72,,,
109292,control_change,20,0,8,,,,,,,,,7,11,72,,,
109295,control_change,24,0,11,,,,,,,,,10,11,75,,,
109298,control_change,20,0,9,,,,,,,,,8,11,72,,,
109298,control_change,24,0,12,,,,,,,,,11,11,75,,,
109303,control_change,24,0,13,,,,,,,,,12,11,75,,,
109307,control_change,24,0,14,,,,,,,,,13,11,75,,,
109308,control_change,21,0,7,,,,,,,,,6,11,69,,,
109309,control_change,21,0,5,,,,,,,,,4,11,69,,,
109309,control_change,24,0,15,,,,,,,,,14,11,75,,,
109310,control_change,21,0,6,,,,,,,,,5,11,69,,,
109313,control_change,21,0,8,,,,,,,,,7,11,69,,,
109319,control_change,24,0,11,,,,,,,,,10,11,73,,,
109319,control_change,21,0,9,,,,,,,,,8,11,69,,,
109320,note_on,1,0,11,,,,,,,,,10,,,,63,0
109320,set_tempo,120,1,0,,,,,,288462,,,,,,,,
109321,note_on,0,0,1,,,,,,,,,0,,,,85,0
109321,note_on,240,0,1,,,,,,,,,0,,,,82,0
109322,note_on,14,0,7,,,,,,,,,6,,,,67,0
109322,control_change,24,0,12,,,,,,,,,11,11,73,,,
109323,note_on,14,0,5,,,,,,,,,4,,,,55,0
109323,note_on,1,0,12,,,,,,,,,11,,,,63,0
109324,note_on,0,0,2,,,,,,,,,1,,,,75,100
109324,note_on,60,0,2,,,,,,,,,1,,,,73,0
109324,note_on,0,0,2,,,,,,,,,1,,,,70,0
109324,note_on,0,0,2,,,,,,,,,1,,,,72,100
109324,note_on,14,0,6,,,,,,,,,5,,,,55,0
109325,note_on,60,0,3,,,,,,,,,2,,,,70,0
109325,note_on,0,0,3,,,,,,,,,2,,,,73,0
109325,note_on,0,0,3,,,,,,,,,2,,,,75,101
109325,note_on,0,0,3,,,,,,,,,2,,,,72,101
109327,note_on,0,0,8,,,,,,,,,7,,,,51,0
109327,control_change,24,0,13,,,,,,,,,12,11,73,,,
109327,note_on,14,0,8,,,,,,,,,7,,,,63,0
109328,note_on,0,0,13,,,,,,,,,12,,,,63,0
109328,note_on,1,0,13,,,,,,,,,12,,,,67,0
109331,control_change,24,0,14,,,,,,,,,13,11,73,,,
109332,note_on,1,0,14,,,,,,,,,13,,,,51,0
109333,note_on,14,0,9,,,,,,,,,8,,,,51,0
109333,control_change,24,0,15,,,,,,,,,14,11,73,,,
109334,note_on,1,0,15,,,,,,,,,14,,,,39,0
109384,note_on,0,0,2,,,,,,,,,1,,,,75,0
109384,note_on,0,0,2,,,,,,,,,1,,,,70,100
109384,note_on,0,0,2,,,,,,,,,1,,,,73,100
109384,note_on,60,0,2,,,,,,,,,1,,,,72,0
109385,note_on,0,0,3,,,,,,,,,2,,,,75,0
109385,note_on,60,0,3,,,,,,,,,2,,,,72,0
109385,note_on,0,0,3,,,,,,,,,2,,,,73,101
109385,note_on,0,0,3,,,,,,,,,2,,,,70,101
109440,set_tempo,120,1,0,,,,,,254237,,,,,,,,
109444,note_on,0,0,2,,,,,,,,,1,,,,73,100
109444,note_on,0,0,2,,,,,,,,,1,,,,73,0
109444,note_on,0,0,2,,,,,,,,,1,,,,77,100
109444,note_on,60,0,2,,,,,,,,,1,,,,70,0
109445,note_on,0,0,3,,,,,,,,,2,,,,73,101
109445,note_on,60,0,3,,,,,,,,,2,,,,73,0
109445,note_on,0,0,3,,,,,,,,,2,,,,70,0
109445,note_on,0,0,3,,,,,,,,,2,,,,77,101
109447,program_change,119,0,13,,,,,,,,48,12,,,,,
109448,control_change,1,0,13,,,,,,,,,12,11,41,,,
109448,note_on,0,0,13,,,,,,,,,12,,,,63,112
109448,note_on,0,0,13,,,,,,,,,12,,,,67,112
109449,note_on,0,0,4,,,,,,,,,3,,,,63,100
109449,note_on,0,0,4,,,,,,,,,3,,,,67,100
109449,note_on,0,0,4,,,,,,,,,3,,,,67,0
109449,note_on,240,0,4,,,,,,,,,3,,,,63,0
109508,note_on,0,0,13,,,,,,,,,12,,,,63,0
109508,note_on,60,0,13,,,,,,,,,12,,,,67,0
109560,set_tempo,120,1,0,,,,,,263158,,,,,,,,
109564,note_on,120,0,2,,,,,,,,,1,,,,73,0
109564,note_on,0,0,2,,,,,,,,,1,,,,77,0
109564,note_on,0,0,2,,,,,,,,,1,,,,77,100
109564,note_on,0,0,2,,,,,,,,,1,,,,73,100
109565,note_on,0,0,3,,,,,,,,,2,,,,73,101
109565,note_on,0,0,3,,,,,,,,,2,,,,73,0
109565,note_on,120,0,3,,,,,,,,,2,,,,77,0
109565,note_on,0,0,3,,,,,,,,,2,,,,77,101
109568,note_on,0,0,13,,,,,,,,,12,,,,63,112
109568,note_on,60,0,13,,,,,,,,,12,,,,67,112
109569,note_on,0,0,4,,,,,,,,,3,,,,67,100
109569,note_on,0,0,4,,,,,,,,,3,,,,63,100
109569,note_on,120,0,4,,,,,,,,,3,,,,63,0
109569,note_on,0,0,4,,,,,,,,,3,,,,67,0
109628,note_on,0,0,13,,,,,,,,,12,,,,67,0
109628,note_on,60,0,13,,,,,,,,,12,,,,63,0
109680,set_tempo,120,1,0,,,,,,288462,,,,,,,,
109684,note_on,120,0,2,,,,,,,,,1,,,,73,0
109684,note_on,0,0,2,,,,,,,,,1,,,,77,0
109684,note_on,0,0,2,,,,,,,,,1,,,,73,100
109684,note_on,0,0,2,,,,,,,,,1,,,,77,100
109685,note_on,0,0,3,,,,,,,,,2,,,,73,101
109685,note_on,0,0,3,,,,,,,,,2,,,,77,101
109685,note_on,0,0,3,,,,,,,,,2,,,,77,0
109685,note_on,120,0,3,,,,,,,,,2,,,,73,0
109688,note_on,60,0,13,,,,,,,,,12,,,,63,112
109688,note_on,0,0,13,,,,,,,,,12,,,,67,112
109689,note_on,0,0,4,,,,,,,,,3,,,,63,100
109689,note_on,0,0,4,,,,,,,,,3,,,,67,100
109689,note_on,0,0,4,,,,,,,,,3,,,,63,0
109689,note_on,120,0,4,,,,,,,,,3,,,,67,0
109714,note_on,30,0,2,,,,,,,,,1,,,,77,0
109714,note_on,0,0,2,,,,,,,,,1,,,,82,100
109715,note_on,0,0,3,,,,,,,,,2,,,,82,101
109715,note_on,30,0,3,,,,,,,,,2,,,,77,0
109748,note_on,60,0,13,,,,,,,,,12,,,,67,0
109748,note_on,0,0,13,,,,,,,,,12,,,,63,0
109774,note_on,60,0,2,,,,,,,,,1,,,,82,0
109775,note_on,60,0,3,,,,,,,,,2,,,,82,0
109800,set_tempo,120,1,0,,,,,,254237,,,,,,,,
109804,note_on,0,0,2,,,,,,,,,1,,,,82,115
109804,note_on,30,0,2,,,,,,,,,1,,,,73,0
109804,note_on,0,0,2,,,,,,,,,1,,,,73,115
109805,note_on,30,0,3,,,,,,,,,2,,,,73,0
109805,note_on,0,0,3,,,,,,,,,2,,,,73,116
109805,note_on,0,0,3,,,,,,,,,2,,,,82,116
109808,note_on,0,0,13,,,,,,,,,12,,,,63,127
109808,note_on,60,0,13,,,,,,,,,12,,,,67,127
109809,note_on,120,0,4,,,,,,,,,3,,,,63,0
109809,note_on,0,0,4,,,,,,,,,3,,,,67,0
109809,note_on,0,0,4,,,,,,,,,3,,,,63,115
109809,note_on,0,0,4,,,,,,,,,3,,,,67,115
109920,set_tempo,120,1,0,,,,,,263158,,,,,,,,
109924,note_on,0,0,2,,,,,,,,,1,,,,82,0
109924,note_on,0,0,2,,,,,,,,,1,,,,80,100
109924,note_on,120,0,2,,,,,,,,,1,,,,73,0
109924,note_on,0,0,2,,,,,,,,,1,,,,72,100
109925,note_on,0,0,3,,,,,,,,,2,,,,72,101
109925,note_on,0,0,3,,,,,,,,,2,,,,82,0
109925,note_on,120,0,3,,,,,,,,,2,,,,73,0
109925,note_on,0,0,3,,,,,,,,,2,,,,80,101
109928,note_on,120,0,13,,,,,,,,,12,,,,67,0
109928,note_on,0,0,13,,,,,,,,,12,,,,68,112
109929,note_on,0,0,4,,,,,,,,,3,,,,68,100
109929,note_on,120,0,4,,,,,,,,,3,,,,67,0
110040,set_tempo,120,1,0,,,,,,288462,,,,,,,,
110044,note_on,120,0,2,,,,,,,,,1,,,,72,0
110044,note_on,0,0,2,,,,,,,,,1,,,,80,0
110044,note_on,0,0,2,,,,,,,,,1,,,,75,100
110044,note_on,0,0,2,,,,,,,,,1,,,,72,100
110045,note_on,120,0,3,,,,,,,,,2,,,,72,0
110045,note_on,0,0,3,,,,,,,,,2,,,,80,0
110045,note_on,0,0,3,,,,,,,,,2,,,,75,101
110045,note_on,0,0,3,,,,,,,,,2,,,,72,101
110048,note_on,0,0,13,,,,,,,,,12,,,,68,112
110048,note_on,0,0,13,,,,,,,,,12,,,,63,112
110048,note_on,0,0,13,,,,,,,,,12,,,,63,0
110048,note_on,120,0,13,,,,,,,,,12,,,,68,0
110049,note_on,120,0,4,,,,,,,,,3,,,,68,0
110049,note_on,0,0,4,,,,,,,,,3,,,,63,100
110049,note_on,0,0,4,,,,,,,,,3,,,,63,0
110049,note_on,0,0,4,,,,,,,,,3,,,,68,100
110108,note_on,60,0,13,,,,,,,,,12,,,,68,0
110160,set_tempo,120,1,0,,,,,,254237,,,,,,,,
110164,note_on,120,0,2,,,,,,,,,1,,,,72,0
110164,note_on,0,0,2,,,,,,,,,1,,,,75,0
110164,note_on,0,0,2,,,,,,,,,1,,,,72,100
110164,note_on,0,0,2,,,,,,,,,1,,,,75,100
110165,note_on,0,0,3,,,,,,,,,2,,,,72,101
110165,note_on,120,0,3,,,,,,,,,2,,,,72,0
110165,note_on,0,0,3,,,,,,,,,2,,,,75,0
110165,note_on,0,0,3,,,,,,,,,2,,,,75,101
110168,note_on,0,0,13,,,,,,,,,12,,,,67,112
110168,note_on,0,0,13,,,,,,,,,12,,,,63,112
110168,note_on,60,0,13,,,,,,,,,12,,,,63,0
110169,note_on,120,0,4,,,,,,,,,3,,,,68,0
110169,note_on,0,0,4,,,,,,,,,3,,,,63,0
110169,note_on,0,0,4,,,,,,,,,3,,,,63,100
110169,note_on,0,0,4,,,,,,,,,3,,,,67,100
110224,note_on,60,0,2,,,,,,,,,1,,,,72,0
110224,note_on,0,0,2,,,,,,,,,1,,,,75,0
110225,note_on,0,0,3,,,,,,,,,2,,,,72,0
110225,note_on,60,0,3,,,,,,,,,2,,,,75,0
110228,note_on,60,0,13,,,,,,,,,12,,,,67,0
110228,note_on,0,0,13,,,,,,,,,12,,,,63,0
110229,note_on,0,0,4,,,,,,,,,3,,,,63,0
110229,note_on,60,0,4,,,,,,,,,3,,,,67,0
110280,set_tempo,120,1,0,,,,,,263158,,,,,,,,
110284,note_on,0,0,2,,,,,,,,,1,,,,73,100
110284,note_on,60,0,2,,,,,,,,,1,,,,70,100
110285,note_on,0,0,3,,,,,,,,,2,,,,73,101
110285,note_on,60,0,3,,,,,,,,,2,,,,70,101
110288,note_on,0,0,13,,,,,,,,,12,,,,63,112
110288,note_on,60,0,13,,,,,,,,,12,,,,67,112
110289,note_on,60,0,4,,,,,,,,,3,,,,63,100
110289,note_on,0,0,4,,,,,,,,,3,,,,67,100
110344,note_on,60,0,2,,,,,,,,,1,,,,73,0
110344,note_on,0,0,2,,,,,,,,,1,,,,75,100
110345,note_on,0,0,3,,,,,,,,,2,,,,75,101
110345,note_on,60,0,3,,,,,,,,,2,,,,73,0
110348,note_on,0,0,13,,,,,,,,,12,,,,67,0
110348,note_on,60,0,13,,,,,,,,,12,,,,63,0
110400,set_tempo,120,1,0,,,,,,288462,,,,,,,,
110404,note_on,60,0,2,,,,,,,,,1,,,,75,0
110404,note_on,0,0,2,,,,,,,,,1,,,,70,0
110404,note_on,0,0,2,,,,,,,,,1,,,,77,100
110404,note_on,0,0,2,,,,,,,,,1,,,,70,100
110405,note_on,0,0,3,,,,,,,,,2,,,,70,0
110405,note_on,0,0,3,,,,,,,,,2,,,,77,101
110405,note_on,60,0,3,,,,,,,,,2,,,,75,0
110405,note_on,0,0,3,,,,,,,,,2,,,,70,101
110408,note_on,0,0,13,,,,,,,,,12,,,,67,112
110408,note_on,60,0,13,,,,,,,,,12,,,,63,112
110409,note_on,0,0,4,,,,,,,,,3,,,,63,100
110409,note_on,0,0,4,,,,,,,,,3,,,,67,100
110409,note_on,0,0,4,,,,,,,,,3,,,,63,0
110409,note_on,120,0,4,,,,,,,,,3,,,,67,0
110464,note_on,0,0,2,,,,,,,,,1,,,,75,100
110464,note_on,60,0,2,,,,,,,,,1,,,,77,0
110465,note_on,0,0,3,,,,,,,,,2,,,,75,101
110465,note_on,60,0,3,,,,,,,,,2,,,,77,0
110468,note_on,0,0,13,,,,,,,,,12,,,,63,0
110468,note_on,60,0,13,,,,,,,,,12,,,,67,0
110520,set_tempo,120,1,0,,,,,,254237,,,,,,,,
110520,control_change,0,0,11,,,,,,,,,10,11,50,,,
110520,note_on,1200,0,11,,,,,,,,,10,,,,56,112
110523,note_on,1200,0,12,,,,,,,,,11,,,,56,112
110523,control_change,0,0,12,,,,,,,,,11,11,50,,,
110524,note_on,0,0,2,,,,,,,,,1,,,,70,0
110524,note_on,0,0,2,,,,,,,,,1,,,,68,100
110524,note_on,0,0,2,,,,,,,,,1,,,,72,100
110524,note_on,60,0,2,,,,,,,,,1,,,,75,0
110525,note_on,0,0,3,,,,,,,,,2,,,,70,0
110525,note_on,0,0,3,,,,,,,,,2,,,,72,101
110525,note_on,60,0,3,,,,,,,,,2,,,,75,0
110525,note_on,0,0,3,,,,,,,,,2,,,,68,101
110527,program_change,59,0,13,,,,,,,,50,12,,,,,
110528,note_on,1,0,13,,,,,,,,,12,,,,56,112
110529,note_on,0,0,4,,,,,,,,,3,,,,68,100
110529,note_on,0,0,4,,,,,,,,,3,,,,63,100
110529,note_on,0,0,4,,,,,,,,,3,,,,67,0
110529,note_on,120,0,4,,,,,,,,,3,,,,63,0
110534,note_on,0,0,15,,,,,,,,,14,,,,32,112
110534,control_change,1200,0,15,,,,,,,,,14,11,50,,,
110550,note_on,30,0,11,,,,,,,,,10,,,,56,0
110553,note_on,30,0,12,,,,,,,,,11,,,,56,0
110558,note_on,30,0,13,,,,,,,,,12,,,,56,0
110564,note_on,30,0,15,,,,,,,,,14,,,,32,0
110580,note_on,30,0,11,,,,,,,,,10,,,,56,112
110583,note_on,30,0,12,,,,,,,,,11,,,,56,112
110588,note_on,30,0,13,,,,,,,,,12,,,,56,112
110594,note_on,30,0,15,,,,,,,,,14,,,,32,112
110610,note_on,30,0,11,,,,,,,,,10,,,,56,0
110613,note_on,30,0,12,,,,,,,,,11,,,,56,0
110618,note_on,30,0,13,,,,,,,,,12,,,,56,0
110624,note_on,30,0,15,,,,,,,,,14,,,,32,0
110640,set_tempo,120,1,0,,,,,,263158,,,,,,,,
110640,note_on,30,0,11,,,,,,,,,10,,,,58,112
110643,note_on,30,0,12,,,,,,,,,11,,,,58,112
110644,note_on,120,0,2,,,,,,,,,1,,,,68,0
110644,note_on,0,0,2,,,,,,,,,1,,,,72,0
110645,note_on,120,0,3,,,,,,,,,2,,,,68,0
110645,note_on,0,0,3,,,,,,,,,2,,,,72,0
110648,note_on,30,0,13,,,,,,,,,12,,,,58,112
110649,note_on,120,0,4,,,,,,,,,3,,,,68,0
110649,note_on,0,0,4,,,,,,,,,3,,,,63,0
110654,note_on,30,0,15,,,,,,,,,14,,,,34,112
110670,note_on,30,0,11,,,,,,,,,10,,,,58,0
110673,note_on,30,0,12,,,,,,,,,11,,,,58,0
110678,note_on,30,0,13,,,,,,,,,12,,,,58,0
110684,note_on,30,0,15,,,,,,,,,14,,,,34,0
110700,note_on,30,0,11,,,,,,,,,10,,,,56,112
110703,note_on,30,0,12,,,,,,,,,11,,,,56,112
110708,note_on,30,0,13,,,,,,,,,12,,,,56,112
110714,note_on,30,0,15,,,,,,,,,14,,,,32,112
110730,note_on,30,0,11,,,,,,,,,10,,,,56,0
110733,note_on,30,0,12,,,,,,,,,11,,,,56,0
110738,note_on,30,0,13,,,,,,,,,12,,,,56,0
110744,note_on,30,0,15,,,,,,,,,14,,,,32,0
110760,set_tempo,120,1,0,,,,,,288462,,,,,,,,
110760,note_on,30,0,11,,,,,,,,,10,,,,58,112
110763,note_on,30,0,12,,,,,,,,,11,,,,58,112
110768,note_on,30,0,13,,,,,,,,,12,,,,58,112
110774,note_on,30,0,15,,,,,,,,,14,,,,34,112
110790,note_on,30,0,11,,,,,,,,,10,,,,58,0
110793,note_on,30,0,12,,,,,,,,,11,,,,58,0
110798,note_on,30,0,13,,,,,,,,,12,,,,58,0
110804,note_on,30,0,15,,,,,,,,,14,,,,34,0
110820,note_on,30,0,11,,,,,,,,,10,,,,56,112
110823,note_on,30,0,12,,,,,,,,,11,,,,56,112
110828,note_on,30,0,13,,,,,,,,,12,,,,56,112
110834,note_on,30,0,15,,,,,,,,,14,,,,32,112
110850,note_on,30,0,11,,,,,,,,,10,,,,56,0
110853,note_on,30,0,12,,,,,,,,,11,,,,56,0
110858,note_on,30,0,13,,,,,,,,,12,,,,56,0
110864,note_on,30,0,15,,,,,,,,,14,,,,32,0
110880,set_tempo,120,1,0,,,,,,254237,,,,,,,,
110880,note_on,30,0,11,,,,,,,,,10,,,,56,112
110883,note_on,30,0,12,,,,,,,,,11,,,,56,112
110884,note_on,0,0,2,,,,,,,,,1,,,,80,115
110884,note_on,240,0,2,,,,,,,,,1,,,,77,115
110885,note_on,0,0,3,,,,,,,,,2,,,,80,116
110885,note_on,240,0,3,,,,,,,,,2,,,,77,116
110888,note_on,30,0,13,,,,,,,,,12,,,,56,112
110892,control_change,1560,0,14,,,,,,,,,13,11,59,,,
110892,note_on,0,0,14,,,,,,,,,13,,,,49,112
110894,note_on,30,0,15,,,,,,,,,14,,,,32,112
111000,set_tempo,120,1,0,,,,,,263158,,,,,,,,
111000,note_on,120,0,11,,,,,,,,,10,,,,56,0
111003,note_on,120,0,12,,,,,,,,,11,,,,56,0
111004,note_on,120,0,2,,,,,,,,,1,,,,80,0
111004,note_on,0,0,2,,,,,,,,,1,,,,77,0
111004,note_on,0,0,2,,,,,,,,,1,,,,76,100
111004,note_on,0,0,2,,,,,,,,,1,,,,79,100
111005,note_on,0,0,3,,,,,,,,,2,,,,77,0
111005,note_on,0,0,3,,,,,,,,,2,,,,79,101
111005,note_on,120,0,3,,,,,,,,,2,,,,80,0
111005,note_on,0,0,3,,,,,,,,,2,,,,76,101
111008,note_on,120,0,13,,,,,,,,,12,,,,56,0
111014,note_on,120,0,15,,,,,,,,,14,,,,32,0
111064,note_on,0,0,2,,,,,,,,,1,,,,80,100
111064,note_on,0,0,2,,,,,,,,,1,,,,77,100
111064,note_on,0,0,2,,,,,,,,,1,,,,76,0
111064,note_on,60,0,2,,,,,,,,,1,,,,79,0
111065,note_on,0,0,3,,,,,,,,,2,,,,80,101
111065,note_on,0,0,3,,,,,,,,,2,,,,77,101
111065,note_on,0,0,3,,,,,,,,,2,,,,79,0
111065,note_on,60,0,3,,,,,,,,,2,,,,76,0
111120,set_tempo,120,1,0,,,,,,288462,,,,,,,,
111124,note_on,0,0,2,,,,,,,,,1,,,,75,100
111124,note_on,0,0,2,,,,,,,,,1,,,,79,100
111124,note_on,0,0,2,,,,,,,,,1,,,,77,0
111124,note_on,60,0,2,,,,,,,,,1,,,,80,0
111125,note_on,0,0,3,,,,,,,,,2,,,,75,101
111125,note_on,0,0,3,,,,,,,,,2,,,,79,101
111125,note_on,0,0,3,,,,,,,,,2,,,,77,0
111125,note_on,60,0,3,,,,,,,,,2,,,,80,0
111132,note_on,240,0,14,,,,,,,,,13,,,,49,0
111132,note_on,0,0,14,,,,,,,,,13,,,,53,112
111184,note_on,0,0,2,,,,,,,,,1,,,,77,100
111184,note_on,60,0,2,,,,,,,,,1,,,,75,0
111184,note_on,0,0,2,,,,,,,,,1,,,,79,0
111184,note_on,0,0,2,,,,,,,,,1,,,,73,100
111185,note_on,0,0,3,,,,,,,,,2,,,,73,101
111185,note_on,0,0,3,,,,,,,,,2,,,,77,101
111185,note_on,60,0,3,,,,,,,,,2,,,,75,0
111185,note_on,0,0,3,,,,,,,,,2,,,,79,0
111240,note_on,240,0,11,,,,,,,,,10,,,,56,112
111240,set_tempo,120,1,0,,,,,,254237,,,,,,,,
111243,note_on,240,0,12,,,,,,,,,11,,,,56,112
111244,note_on,0,0,2,,,,,,,,,1,,,,73,0
111244,note_on,0,0,2,,,,,,,,,1,,,,72,100
111244,note_on,0,0,2,,,,,,,,,1,,,,75,100
111244,note_on,60,0,2,,,,,,,,,1,,,,77,0
111245,note_on,0,0,3,,,,,,,,,2,,,,75,101
111245,note_on,0,0,3,,,,,,,,,2,,,,73,0
111245,note_on,0,0,3,,,,,,,,,2,,,,72,101
111245,note_on,60,0,3,,,,,,,,,2,,,,77,0
111247,note_on,115,0,14,,,,,,,,,13,,,,53,0
111248,note_on,240,0,13,,,,,,,,,12,,,,56,112
111252,note_on,5,0,14,,,,,,,,,13,,,,56,127
111254,note_on,240,0,15,,,,,,,,,14,,,,32,112
111270,note_on,30,0,11,,,,,,,,,10,,,,56,0
111273,note_on,30,0,12,,,,,,,,,11,,,,56,0
111278,note_on,30,0,13,,,,,,,,,12,,,,56,0
111284,note_on,30,0,15,,,,,,,,,14,,,,32,0
111300,note_on,30,0,11,,,,,,,,,10,,,,56,112
111303,note_on,30,0,12,,,,,,,,,11,,,,56,112
111304,note_on,0,0,2,,,,,,,,,1,,,,72,0
111304,note_on,60,0,2,,,,,,,,,1,,,,75,0
111305,note_on,60,0,3,,,,,,,,,2,,,,75,0
111305,note_on,0,0,3,,,,,,,,,2,,,,72,0
111308,note_on,30,0,13,,,,,,,,,12,,,,56,112
111314,note_on,30,0,15,,,,,,,,,14,,,,32,112
111330,note_on,30,0,11,,,,,,,,,10,,,,56,0
111333,note_on,30,0,12,,,,,,,,,11,,,,56,0
111338,note_on,30,0,13,,,,,,,,,12,,,,56,0
111344,note_on,30,0,15,,,,,,,,,14,,,,32,0
111360,set_tempo,120,1,0,,,,,,263158,,,,,,,,
111360,note_on,30,0,11,,,,,,,,,10,,,,58,112
111363,note_on,30,0,12,,,,,,,,,11,,,,58,112
111364,note_on,0,0,2,,,,,,,,,1,,,,75,100
111364,note_on,60,0,2,,,,,,,,,1,,,,72,100
111365,note_on,60,0,3,,,,,,,,,2,,,,75,101
111365,note_on,0,0,3,,,,,,,,,2,,,,72,101
111368,note_on,30,0,13,,,,,,,,,12,,,,58,112
111374,note_on,30,0,15,,,,,,,,,14,,,,34,112
111390,note_on,30,0,11,,,,,,,,,10,,,,58,0
111393,note_on,30,0,12,,,,,,,,,11,,,,58,0
111398,note_on,30,0,13,,,,,,,,,12,,,,58,0
111404,note_on,30,0,15,,,,,,,,,14,,,,34,0
111420,note_on,30,0,11,,,,,,,,,10,,,,56,112
111423,note_on,30,0,12,,,,,,,,,11,,,,56,112
111424,note_on,60,0,2,,,,,,,,,1,,,,75,0
111424,note_on,0,0,2,,,,,,,,,1,,,,72,0
111425,note_on,0,0,3,,,,,,,,,2,,,,75,0
111425,note_on,60,0,3,,,,,,,,,2,,,,72,0
111428,note_on,30,0,13,,,,,,,,,12,,,,56,112
111434,note_on,30,0,15,,,,,,,,,14,,,,32,112
111450,note_on,30,0,11,,,,,,,,,10,,,,56,0
111453,note_on,30,0,12,,,,,,,,,11,,,,56,0
111458,note_on,30,0,13,,,,,,,,,12,,,,56,0
111464,note_on,30,0,15,,,,,,,,,14,,,,32,0
111480,set_tempo,120,1,0,,,,,,288462,,,,,,,,
111480,note_on,30,0,11,,,,,,,,,10,,,,58,112
111483,note_on,30,0,12,,,,,,,,,11,,,,58,112
111484,note_on,60,0,2,,,,,,,,,1,,,,68,100
111484,note_on,0,0,2,,,,,,,,,1,,,,72,100
111485,note_on,60,0,3,,,,,,,,,2,,,,68,101
111485,note_on,0,0,3,,,,,,,,,2,,,,72,101
111488,note_on,30,0,13,,,,,,,,,12,,,,58,112
111492,note_on,240,0,14,,,,,,,,,13,,,,56,0
111492,note_on,0,0,14,,,,,,,,,13,,,,60,112
111494,note_on,30,0,15,,,,,,,,,14,,,,34,112
111510,note_on,30,0,11,,,,,,,,,10,,,,58,0
111513,note_on,30,0,12,,,,,,,,,11,,,,58,0
111518,note_on,30,0,13,,,,,,,,,12,,,,58,0
111524,note_on,30,0,15,,,,,,,,,14,,,,34,0
111540,note_on,30,0,11,,,,,,,,,10,,,,56,112
111543,note_on,30,0,12,,,,,,,,,11,,,,56,112
111544,note_on,60,0,2,,,,,,,,,1,,,,72,0
111544,note_on,0,0,2,,,,,,,,,1,,,,68,0
111545,note_on,60,0,3,,,,,,,,,2,,,,72,0
111545,note_on,0,0,3,,,,,,,,,2,,,,68,0
111548,note_on,30,0,13,,,,,,,,,12,,,,56,112
111554,note_on,30,0,15,,,,,,,,,14,,,,32,112
111570,note_on,30,0,11,,,,,,,,,10,,,,56,0
111573,note_on,30,0,12,,,,,,,,,11,,,,56,0
111578,note_on,30,0,13,,,,,,,,,12,,,,56,0
111584,note_on,30,0,15,,,,,,,,,14,,,,32,0
111600,note_on,30,0,11,,,,,,,,,10,,,,56,112
111600,set_tempo,120,1,0,,,,,,254237,,,,,,,,
111603,note_on,30,0,12,,,,,,,,,11,,,,56,112
111604,note_on,0,0,2,,,,,,,,,1,,,,77,100
111604,note_on,60,0,2,,,,,,,,,1,,,,67,100
111605,note_on,60,0,3,,,,,,,,,2,,,,67,101
111605,note_on,0,0,3,,,,,,,,,2,,,,77,101
111607,note_on,115,0,14,,,,,,,,,13,,,,60,0
111608,note_on,30,0,13,,,,,,,,,12,,,,56,112
111612,note_on,5,0,14,,,,,,,,,13,,,,61,127
111614,note_on,30,0,15,,,,,,,,,14,,,,32,112
111720,set_tempo,120,1,0,,,,,,263158,,,,,,,,
111720,note_on,120,0,11,,,,,,,,,10,,,,56,0
111723,note_on,120,0,12,,,,,,,,,11,,,,56,0
111724,note_on,120,0,2,,,,,,,,,1,,,,77,0
111724,note_on,0,0,2,,,,,,,,,1,,,,71,100
111725,note_on,120,0,3,,,,,,,,,2,,,,77,0
111725,note_on,0,0,3,,,,,,,,,2,,,,71,101
111728,note_on,120,0,13,,,,,,,,,12,,,,56,0
111734,note_on,120,0,15,,,,,,,,,14,,,,32,0
111840,set_tempo,120,1,0,,,,,,288462,,,,,,,,
111844,note_on,120,0,2,,,,,,,,,1,,,,71,0
111844,note_on,0,0,2,,,,,,,,,1,,,,67,0
111844,note_on,0,0,2,,,,,,,,,1,,,,67,100
111844,note_on,0,0,2,,,,,,,,,1,,,,71,100
111845,note_on,120,0,3,,,,,,,,,2,,,,71,0
111845,note_on,0,0,3,,,,,,,,,2,,,,67,101
111845,note_on,0,0,3,,,,,,,,,2,,,,67,0
111845,note_on,0,0,3,,,,,,,,,2,,,,71,101
111852,note_on,240,0,14,,,,,,,,,13,,,,61,0
111852,note_on,0,0,14,,,,,,,,,13,,,,63,112
111960,set_tempo,120,1,0,,,,,,254237,,,,,,,,
111960,note_on,240,0,11,,,,,,,,,10,,,,56,112
111963,note_on,240,0,12,,,,,,,,,11,,,,56,112
111964,note_on,120,0,2,,,,,,,,,1,,,,71,0
111964,note_on,0,0,2,,,,,,,,,1,,,,67,0
111964,note_on,0,0,2,,,,,,,,,1,,,,72,115
111964,note_on,0,0,2,,,,,,,,,1,,,,68,115
111965,note_on,0,0,3,,,,,,,,,2,,,,67,0
111965,note_on,0,0,3,,,,,,,,,2,,,,68,116
111965,note_on,0,0,3,,,,,,,,,2,,,,72,116
111965,note_on,120,0,3,,,,,,,,,2,,,,71,0
111967,note_on,115,0,14,,,,,,,,,13,,,,63,0
111968,note_on,240,0,13,,,,,,,,,12,,,,56,112
111972,note_on,5,0,14,,,,,,,,,13,,,,60,127
111974,note_on,240,0,15,,,,,,,,,14,,,,32,112
111990,note_on,30,0,11,,,,,,,,,10,,,,56,0
111993,note_on,30,0,12,,,,,,,,,11,,,,56,0
111998,note_on,30,0,13,,,,,,,,,12,,,,56,0
112004,note_on,30,0,15,,,,,,,,,14,,,,32,0
112020,note_on,30,0,11,,,,,,,,,10,,,,56,112
112023,note_on,30,0,12,,,,,,,,,11,,,,56,112
112028,note_on,30,0,13,,,,,,,,,12,,,,56,112
112034,note_on,30,0,15,,,,,,,,,14,,,,32,112
112050,note_on,30,0,11,,,,,,,,,10,,,,56,0
112053,note_on,30,0,12,,,,,,,,,11,,,,56,0
112058,note_on,30,0,13,,,,,,,,,12,,,,56,0
112064,note_on,30,0,15,,,,,,,,,14,,,,32,0
112080,note_on,30,0,11,,,,,,,,,10,,,,58,112
112080,set_tempo,120,1,0,,,,,,263158,,,,,,,,
112083,note_on,30,0,12,,,,,,,,,11,,,,58,112
112084,note_on,0,0,2,,,,,,,,,1,,,,75,100
112084,note_on,0,0,2,,,,,,,,,1,,,,72,0
112084,note_on,0,0,2,,,,,,,,,1,,,,72,100
112084,note_on,120,0,2,,,,,,,,,1,,,,68,0
112085,note_on,0,0,3,,,,,,,,,2,,,,72,101
112085,note_on,0,0,3,,,,,,,,,2,,,,75,101
112085,note_on,0,0,3,,,,,,,,,2,,,,68,0
112085,note_on,120,0,3,,,,,,,,,2,,,,72,0
112088,note_on,30,0,13,,,,,,,,,12,,,,58,112
112094,note_on,30,0,15,,,,,,,,,14,,,,34,112
112110,note_on,30,0,11,,,,,,,,,10,,,,58,0
112113,note_on,30,0,12,,,,,,,,,11,,,,58,0
112118,note_on,30,0,13,,,,,,,,,12,,,,58,0
112124,note_on,30,0,15,,,,,,,,,14,,,,34,0
112140,note_on,30,0,11,,,,,,,,,10,,,,56,112
112143,note_on,30,0,12,,,,,,,,,11,,,,56,112
112148,note_on,30,0,13,,,,,,,,,12,,,,56,112
112154,note_on,30,0,15,,,,,,,,,14,,,,32,112
112170,note_on,30,0,11,,,,,,,,,10,,,,56,0
112173,note_on,30,0,12,,,,,,,,,11,,,,56,0
112178,note_on,30,0,13,,,,,,,,,12,,,,56,0
112184,note_on,30,0,15,,,,,,,,,14,,,,32,0
112200,note_on,30,0,11,,,,,,,,,10,,,,58,112
112200,set_tempo,120,1,0,,,,,,288462,,,,,,,,
112203,note_on,30,0,12,,,,,,,,,11,,,,58,112
112204,note_on,120,0,2,,,,,,,,,1,,,,72,0
112204,note_on,0,0,2,,,,,,,,,1,,,,72,100
112204,note_on,0,0,2,,,,,,,,,1,,,,75,100
112204,note_on,0,0,2,,,,,,,,,1,,,,75,0
112205,note_on,120,0,3,,,,,,,,,2,,,,72,0
112205,note_on,0,0,3,,,,,,,,,2,,,,75,0
112205,note_on,0,0,3,,,,,,,,,2,,,,72,101
112205,note_on,0,0,3,,,,,,,,,2,,,,75,101
112208,note_on,30,0,13,,,,,,,,,12,,,,58,112
112212,note_on,240,0,14,,,,,,,,,13,,,,60,0
112212,note_on,0,0,14,,,,,,,,,13,,,,56,112
112214,note_on,30,0,15,,,,,,,,,14,,,,34,112
112230,note_on,30,0,11,,,,,,,,,10,,,,58,0
112233,note_on,30,0,12,,,,,,,,,11,,,,58,0
112238,note_on,30,0,13,,,,,,,,,12,,,,58,0
112244,note_on,30,0,15,,,,,,,,,14,,,,34,0
112260,note_on,30,0,11,,,,,,,,,10,,,,56,112
112263,note_on,30,0,12,,,,,,,,,11,,,,56,112
112264,note_on,0,0,2,,,,,,,,,1,,,,72,0
112264,note_on,60,0,2,,,,,,,,,1,,,,75,0
112265,note_on,60,0,3,,,,,,,,,2,,,,75,0
112265,note_on,0,0,3,,,,,,,,,2,,,,72,0
112268,note_on,30,0,13,,,,,,,,,12,,,,56,112
112274,note_on,30,0,15,,,,,,,,,14,,,,32,112
112290,note_on,30,0,11,,,,,,,,,10,,,,56,0
112293,note_on,30,0,12,,,,,,,,,11,,,,56,0
112298,note_on,30,0,13,,,,,,,,,12,,,,56,0
112304,note_on,30,0,15,,,,,,,,,14,,,,32,0
112320,set_tempo,120,1,0,,,,,,254237,,,,,,,,
112320,note_on,30,0,11,,,,,,,,,10,,,,56,112
112323,note_on,30,0,12,,,,,,,,,11,,,,56,112
112324,note_on,60,0,2,,,,,,,,,1,,,,77,115
112324,note_on,0,0,2,,,,,,,,,1,,,,80,115
112325,note_on,0,0,3,,,,,,,,,2,,,,77,116
112325,note_on,60,0,3,,,,,,,,,2,,,,80,116
112327,note_on,115,0,14,,,,,,,,,13,,,,56,0
112328,note_on,30,0,13,,,,,,,,,12,,,,56,112
112329,note_on,1680,0,4,,,,,,,,,3,,,,65,115
112329,note_on,0,0,4,,,,,,,,,3,,,,68,115
112332,note_on,0,0,14,,,,,,,,,13,,,,49,127
112332,control_change,5,0,14,,,,,,,,,13,11,50,,,
112334,note_on,30,0,15,,,,,,,,,14,,,,32,112
112354,note_on,30,0,2,,,,,,,,,1,,,,80,0
112354,note_on,0,0,2,,,,,,,,,1,,,,77,0
112355,note_on,30,0,3,,,,,,,,,2,,,,77,0
112355,note_on,0,0,3,,,,,,,,,2,,,,80,0
112356,control_change,24,0,14,,,,,,,,,13,11,51,,,
112359,note_on,0,0,4,,,,,,,,,3,,,,65,0
112359,note_on,30,0,4,,,,,,,,,3,,,,68,0
112380,control_change,24,0,14,,,,,,,,,13,11,52,,,
112384,note_on,0,0,2,,,,,,,,,1,,,,80,100
112384,note_on,30,0,2,,,,,,,,,1,,,,77,100
112385,note_on,30,0,3,,,,,,,,,2,,,,77,101
112385,note_on,0,0,3,,,,,,,,,2,,,,80,101
112389,note_on,0,0,4,,,,,,,,,3,,,,65,100
112389,note_on,30,0,4,,,,,,,,,3,,,,68,100
112404,control_change,24,0,14,,,,,,,,,13,11,53,,,
112414,note_on,0,0,2,,,,,,,,,1,,,,77,0
112414,note_on,30,0,2,,,,,,,,,1,,,,80,0
112415,note_on,30,0,3,,,,,,,,,2,,,,80,0
112415,note_on,0,0,3,,,,,,,,,2,,,,77,0
112419,note_on,30,0,4,,,,,,,,,3,,,,65,0
112419,note_on,0,0,4,,,,,,,,,3,,,,68,0
112428,control_change,24,0,14,,,,,,,,,13,11,54,,,
112440,set_tempo,120,1,0,,,,,,263158,,,,,,,,
112440,note_on,120,0,11,,,,,,,,,10,,,,56,0
112443,note_on,120,0,12,,,,,,,,,11,,,,56,0
112444,note_on,0,0,2,,,,,,,,,1,,,,76,100
112444,note_on,30,0,2,,,,,,,,,1,,,,79,100
112445,note_on,0,0,3,,,,,,,,,2,,,,76,101
112445,note_on,30,0,3,,,,,,,,,2,,,,79,101
112448,note_on,120,0,13,,,,,,,,,12,,,,56,0
112449,note_on,0,0,4,,,,,,,,,3,,,,64,100
112449,note_on,30,0,4,,,,,,,,,3,,,,67,100
112452,note_on,24,0,14,,,,,,,,,13,,,,49,0
112452,control_change,0,0,14,,,,,,,,,13,11,55,,,
112452,note_on,0,0,14,,,,,,,,,13,,,,53,112
112454,note_on,120,0,15,,,,,,,,,14,,,,32,0
112476,control_change,24,0,14,,,,,,,,,13,11,56,,,
112500,control_change,24,0,14,,,,,,,,,13,11,57,,,
112504,note_on,60,0,2,,,,,,,,,1,,,,76,0
112504,note_on,0,0,2,,,,,,,,,1,,,,80,100
112504,note_on,0,0,2,,,,,,,,,1,,,,79,0
112504,note_on,0,0,2,,,,,,,,,1,,,,77,100
112505,note_on,60,0,3,,,,,,,,,2,,,,76,0
112505,note_on,0,0,3,,,,,,,,,2,,,,79,0
112505,note_on,0,0,3,,,,,,,,,2,,,,80,101
112505,note_on,0,0,3,,,,,,,,,2,,,,77,101
112509,note_on,0,0,4,,,,,,,,,3,,,,68,100
112509,note_on,0,0,4,,,,,,,,,3,,,,65,100
112509,note_on,0,0,4,,,,,,,,,3,,,,67,0
112509,note_on,60,0,4,,,,,,,,,3,,,,64,0
112524,control_change,24,0,14,,,,,,,,,13,11,57,,,
112548,control_change,24,0,14,,,,,,,,,13,11,58,,,
112560,set_tempo,120,1,0,,,,,,288462,,,,,,,,
112564,note_on,0,0,2,,,,,,,,,1,,,,75,100
112564,note_on,0,0,2,,,,,,,,,1,,,,77,0
112564,note_on,60,0,2,,,,,,,,,1,,,,80,0
112564,note_on,0,0,2,,,,,,,,,1,,,,79,100
112565,note_on,0,0,3,,,,,,,,,2,,,,80,0
112565,note_on,0,0,3,,,,,,,,,2,,,,79,101
112565,note_on,0,0,3,,,,,,,,,2,,,,75,101
112565,note_on,60,0,3,,,,,,,,,2,,,,77,0
112569,note_on,0,0,4,,,,,,,,,3,,,,63,100
112569,note_on,60,0,4,,,,,,,,,3,,,,68,0
112569,note_on,0,0,4,,,,,,,,,3,,,,65,0
112569,note_on,0,0,4,,,,,,,,,3,,,,67,100
112572,note_on,0,0,14,,,,,,,,,13,,,,55,112
112572,control_change,0,0,14,,,,,,,,,13,11,59,,,
112572,note_on,24,0,14,,,,,,,,,13,,,,53,0
112596,control_change,24,0,14,,,,,,,,,13,11,60,,,
112620,control_change,24,0,14,,,,,,,,,13,11,61,,,
112624,note_on,0,0,2,,,,,,,,,1,,,,77,100
112624,note_on,0,0,2,,,,,,,,,1,,,,73,100
112624,note_on,0,0,2,,,,,,,,,1,,,,75,0
112624,note_on,60,0,2,,,,,,,,,1,,,,79,0
112625,note_on,60,0,3,,,,,,,,,2,,,,79,0
112625,note_on,0,0,3,,,,,,,,,2,,,,75,0
112625,note_on,0,0,3,,,,,,,,,2,,,,77,101
112625,note_on,0,0,3,,,,,,,,,2,,,,73,101
112629,note_on,0,0,4,,,,,,,,,3,,,,61,100
112629,note_on,0,0,4,,,,,,,,,3,,,,63,0
112629,note_on,60,0,4,,,,,,,,,3,,,,67,0
112629,note_on,0,0,4,,,,,,,,,3,,,,65,100
112644,control_change,24,0,14,,,,,,,,,13,11,62,,,
112668,control_change,24,0,14,,,,,,,,,13,11,63,,,
112680,set_tempo,120,1,0,,,,,,254237,,,,,,,,
112680,note_on,240,0,11,,,,,,,,,10,,,,56,112
112683,note_on,240,0,12,,,,,,,,,11,,,,56,112
112684,note_on,60,0,2,,,,,,,,,1,,,,77,0
112684,note_on,0,0,2,,,,,,,,,1,,,,73,0
112684,note_on,0,0,2,,,,,,,,,1,,,,75,115
112684,note_on,0,0,2,,,,,,,,,1,,,,72,115
112685,note_on,60,0,3,,,,,,,,,2,,,,77,0
112685,note_on,0,0,3,,,,,,,,,2,,,,73,0
112685,note_on,0,0,3,,,,,,,,,2,,,,75,116
112685,note_on,0,0,3,,,,,,,,,2,,,,72,116
112687,note_on,19,0,14,,,,,,,,,13,,,,55,0
112688,note_on,240,0,13,,,,,,,,,12,,,,56,112
112689,note_on,60,0,4,,,,,,,,,3,,,,61,0
112689,note_on,0,0,4,,,,,,,,,3,,,,65,0
112689,note_on,0,0,4,,,,,,,,,3,,,,60,115
112689,note_on,0,0,4,,,,,,,,,3,,,,63,115
112692,control_change,5,0,14,,,,,,,,,13,11,64,,,
112692,note_on,0,0,14,,,,,,,,,13,,,,56,127
112694,note_on,240,0,15,,,,,,,,,14,,,,32,112
112710,note_on,30,0,11,,,,,,,,,10,,,,56,0
112713,note_on,30,0,12,,,,,,,,,11,,,,56,0
112716,control_change,24,0,14,,,,,,,,,13,11,65,,,
112718,note_on,30,0,13,,,,,,,,,12,,,,56,0
112724,note_on,30,0,15,,,,,,,,,14,,,,32,0
112740,control_change,24,0,14,,,,,,,,,13,11,66,,,
112740,note_on,30,0,11,,,,,,,,,10,,,,56,112
112743,note_on,30,0,12,,,,,,,,,11,,,,56,112
112744,note_on,0,0,2,,,,,,,,,1,,,,75,0
112744,note_on,60,0,2,,,,,,,,,1,,,,72,0
112745,note_on,60,0,3,,,,,,,,,2,,,,72,0
112745,note_on,0,0,3,,,,,,,,,2,,,,75,0
112748,note_on,30,0,13,,,,,,,,,12,,,,56,112
112749,note_on,60,0,4,,,,,,,,,3,,,,63,0
112749,note_on,0,0,4,,,,,,,,,3,,,,60,0
112754,note_on,30,0,15,,,,,,,,,14,,,,32,112
112764,control_change,24,0,14,,,,,,,,,13,11,67,,,
112770,note_on,30,0,11,,,,,,,,,10,,,,56,0
112773,note_on,30,0,12,,,,,,,,,11,,,,56,0
112778,note_on,30,0,13,,,,,,,,,12,,,,56,0
112784,note_on,30,0,15,,,,,,,,,14,,,,32,0
112788,control_change,24,0,14,,,,,,,,,13,11,68,,,
112800,set_tempo,120,1,0,,,,,,263158,,,,,,,,
112800,note_on,30,0,11,,,,,,,,,10,,,,58,112
112803,note_on,30,0,12,,,,,,,,,11,,,,58,112
112804,note_on,0,0,2,,,,,,,,,1,,,,72,100
112804,note_on,60,0,2,,,,,,,,,1,,,,75,100
112805,note_on,60,0,3,,,,,,,,,2,,,,75,101
112805,note_on,0,0,3,,,,,,,,,2,,,,72,101
112808,note_on,30,0,13,,,,,,,,,12,,,,58,112
112809,note_on,0,0,4,,,,,,,,,3,,,,63,100
112809,note_on,60,0,4,,,,,,,,,3,,,,60,100
112812,note_on,0,0,14,,,,,,,,,13,,,,58,112
112812,control_change,0,0,14,,,,,,,,,13,11,69,,,
112812,note_on,24,0,14,,,,,,,,,13,,,,56,0
112814,note_on,30,0,15,,,,,,,,,14,,,,34,112
112830,note_on,30,0,11,,,,,,,,,10,,,,58,0
112833,note_on,30,0,12,,,,,,,,,11,,,,58,0
112836,control_change,24,0,14,,,,,,,,,13,11,70,,,
112838,note_on,30,0,13,,,,,,,,,12,,,,58,0
112844,note_on,30,0,15,,,,,,,,,14,,,,34,0
112860,note_on,30,0,11,,,,,,,,,10,,,,56,112
112860,control_change,24,0,14,,,,,,,,,13,11,71,,,
112863,note_on,30,0,12,,,,,,,,,11,,,,56,112
112864,note_on,0,0,2,,,,,,,,,1,,,,75,0
112864,note_on,60,0,2,,,,,,,,,1,,,,72,0
112865,note_on,0,0,3,,,,,,,,,2,,,,75,0
112865,note_on,60,0,3,,,,,,,,,2,,,,72,0
112868,note_on,30,0,13,,,,,,,,,12,,,,56,112
112869,note_on,60,0,4,,,,,,,,,3,,,,63,0
112869,note_on,0,0,4,,,,,,,,,3,,,,60,0
112874,note_on,30,0,15,,,,,,,,,14,,,,32,112
112884,control_change,24,0,14,,,,,,,,,13,11,72,,,
112890,note_on,30,0,11,,,,,,,,,10,,,,56,0
112893,note_on,30,0,12,,,,,,,,,11,,,,56,0
112898,note_on,30,0,13,,,,,,,,,12,,,,56,0
112904,note_on,30,0,15,,,,,,,,,14,,,,32,0
112908,control_change,24,0,14,,,,,,,,,13,11,72,,,
112920,set_tempo,120,1,0,,,,,,288462,,,,,,,,
112920,note_on,30,0,11,,,,,,,,,10,,,,58,112
112923,note_on,30,0,12,,,,,,,,,11,,,,58,112
112924,note_on,60,0,2,,,,,,,,,1,,,,72,100
112924,note_on,0,0,2,,,,,,,,,1,,,,68,100
112925,note_on,0,0,3,,,,,,,,,2,,,,68,101
112925,note_on,60,0,3,,,,,,,,,2,,,,72,101
112928,note_on,30,0,13,,,,,,,,,12,,,,58,112
112929,note_on,0,0,4,,,,,,,,,3,,,,60,100
112929,note_on,60,0,4,,,,,,,,,3,,,,56,100
112932,note_on,0,0,14,,,,,,,,,13,,,,60,112
112932,control_change,0,0,14,,,,,,,,,13,11,73,,,
112932,note_on,24,0,14,,,,,,,,,13,,,,58,0
112934,note_on,30,0,15,,,,,,,,,14,,,,34,112
112950,note_on,30,0,11,,,,,,,,,10,,,,58,0
112953,note_on,30,0,12,,,,,,,,,11,,,,58,0
112956,control_change,24,0,14,,,,,,,,,13,11,74,,,
112958,note_on,30,0,13,,,,,,,,,12,,,,58,0
112964,note_on,30,0,15,,,,,,,,,14,,,,34,0
112980,note_on,30,0,11,,,,,,,,,10,,,,56,112
112980,control_change,24,0,14,,,,,,,,,13,11,75,,,
112983,note_on,30,0,12,,,,,,,,,11,,,,56,112
112984,note_on,60,0,2,,,,,,,,,1,,,,68,0
112984,note_on,0,0,2,,,,,,,,,1,,,,72,0
112985,note_on,0,0,3,,,,,,,,,2,,,,72,0
112985,note_on,60,0,3,,,,,,,,,2,,,,68,0
112988,note_on,30,0,13,,,,,,,,,12,,,,56,112
112989,note_on,0,0,4,,,,,,,,,3,,,,56,0
112989,note_on,60,0,4,,,,,,,,,3,,,,60,0
112994,note_on,30,0,15,,,,,,,,,14,,,,32,112
113004,control_change,24,0,14,,,,,,,,,13,11,76,,,
113010,note_on,30,0,11,,,,,,,,,10,,,,56,0
113013,note_on,30,0,12,,,,,,,,,11,,,,56,0
113018,note_on,30,0,13,,,,,,,,,12,,,,56,0
113024,note_on,30,0,15,,,,,,,,,14,,,,32,0
113028,control_change,24,0,14,,,,,,,,,13,11,77,,,
113040,set_tempo,120,1,0,,,,,,254237,,,,,,,,
113040,note_on,30,0,11,,,,,,,,,10,,,,56,112
113043,note_on,30,0,12,,,,,,,,,11,,,,56,112
113044,note_on,0,0,2,,,,,,,,,1,,,,67,100
113044,note_on,60,0,2,,,,,,,,,1,,,,77,100
113045,note_on,60,0,3,,,,,,,,,2,,,,77,101
113045,note_on,0,0,3,,,,,,,,,2,,,,67,101
113047,note_on,19,0,14,,,,,,,,,13,,,,60,0
113048,note_on,30,0,13,,,,,,,,,12,,,,56,112
113049,note_on,60,0,4,,,,,,,,,3,,,,55,100
113049,note_on,0,0,4,,,,,,,,,3,,,,65,100
113052,control_change,5,0,14,,,,,,,,,13,11,78,,,
113052,note_on,0,0,14,,,,,,,,,13,,,,61,127
113054,note_on,30,0,15,,,,,,,,,14,,,,32,112
113160,set_tempo,120,1,0,,,,,,263158,,,,,,,,
113160,note_on,120,0,11,,,,,,,,,10,,,,56,0
113163,note_on,120,0,12,,,,,,,,,11,,,,56,0
113164,note_on,120,0,2,,,,,,,,,1,,,,77,0
113164,note_on,0,0,2,,,,,,,,,1,,,,71,100
113165,note_on,0,0,3,,,,,,,,,2,,,,71,101
113165,note_on,120,0,3,,,,,,,,,2,,,,77,0
113168,note_on,120,0,13,,,,,,,,,12,,,,56,0
113169,note_on,0,0,4,,,,,,,,,3,,,,59,100
113169,note_on,120,0,4,,,,,,,,,3,,,,65,0
113172,note_on,0,0,14,,,,,,,,,13,,,,65,112
113172,note_on,120,0,14,,,,,,,,,13,,,,61,0
113174,note_on,120,0,15,,,,,,,,,14,,,,32,0
113280,set_tempo,120,1,0,,,,,,288462,,,,,,,,
113284,note_on,120,0,2,,,,,,,,,1,,,,71,0
113284,note_on,0,0,2,,,,,,,,,1,,,,71,100
113284,note_on,0,0,2,,,,,,,,,1,,,,67,100
113284,note_on,0,0,2,,,,,,,,,1,,,,67,0
113285,note_on,0,0,3,,,,,,,,,2,,,,71,101
113285,note_on,0,0,3,,,,,,,,,2,,,,67,101
113285,note_on,0,0,3,,,,,,,,,2,,,,67,0
113285,note_on,120,0,3,,,,,,,,,2,,,,71,0
113289,note_on,0,0,4,,,,,,,,,3,,,,59,100
113289,note_on,120,0,4,,,,,,,,,3,,,,59,0
113289,note_on,0,0,4,,,,,,,,,3,,,,55,0
113289,note_on,0,0,4,,,,,,,,,3,,,,55,100
113292,note_on,0,0,14,,,,,,,,,13,,,,63,112
113292,note_on,120,0,14,,,,,,,,,13,,,,65,0
113400,note_on,240,0,11,,,,,,,,,10,,,,56,112
113400,set_tempo,120,1,0,,,,,,254237,,,,,,,,
113403,note_on,240,0,12,,,,,,,,,11,,,,56,112
113404,note_on,0,0,2,,,,,,,,,1,,,,68,115
113404,note_on,0,0,2,,,,,,,,,1,,,,71,0
113404,note_on,120,0,2,,,,,,,,,1,,,,67,0
113404,note_on,0,0,2,,,,,,,,,1,,,,72,115
113405,note_on,0,0,3,,,,,,,,,2,,,,71,0
113405,note_on,120,0,3,,,,,,,,,2,,,,67,0
113405,note_on,0,0,3,,,,,,,,,2,,,,68,116
113405,note_on,0,0,3,,,,,,,,,2,,,,72,116
113407,note_on,115,0,14,,,,,,,,,13,,,,63,0
113408,note_on,240,0,13,,,,,,,,,12,,,,56,112
113409,note_on,0,0,4,,,,,,,,,3,,,,55,0
113409,note_on,120,0,4,,,,,,,,,3,,,,59,0
113409,note_on,0,0,4,,,,,,,,,3,,,,56,115
113409,note_on,0,0,4,,,,,,,,,3,,,,60,115
113412,note_on,5,0,14,,,,,,,,,13,,,,60,127
113414,note_on,240,0,15,,,,,,,,,14,,,,32,112
113430,note_on,30,0,11,,,,,,,,,10,,,,56,0
113433,note_on,30,0,12,,,,,,,,,11,,,,56,0
113438,note_on,30,0,13,,,,,,,,,12,,,,56,0
113444,note_on,30,0,15,,,,,,,,,14,,,,32,0
113460,note_on,30,0,11,,,,,,,,,10,,,,56,112
113463,note_on,30,0,12,,,,,,,,,11,,,,56,112
113468,note_on,30,0,13,,,,,,,,,12,,,,56,112
113474,note_on,30,0,15,,,,,,,,,14,,,,32,112
113490,note_on,30,0,11,,,,,,,,,10,,,,56,0
113493,note_on,30,0,12,,,,,,,,,11,,,,56,0
113498,note_on,30,0,13,,,,,,,,,12,,,,56,0
113504,note_on,30,0,15,,,,,,,,,14,,,,32,0
113520,set_tempo,120,1,0,,,,,,263158,,,,,,,,
113520,note_on,30,0,11,,,,,,,,,10,,,,58,112
113523,note_on,30,0,12,,,,,,,,,11,,,,58,112
113524,note_on,120,0,2,,,,,,,,,1,,,,68,0
113524,note_on,0,0,2,,,,,,,,,1,,,,72,0
113524,note_on,0,0,2,,,,,,,,,1,,,,75,100
113524,note_on,0,0,2,,,,,,,,,1,,,,72,100
113525,note_on,120,0,3,,,,,,,,,2,,,,68,0
113525,note_on,0,0,3,,,,,,,,,2,,,,72,0
113525,note_on,0,0,3,,,,,,,,,2,,,,75,101
113525,note_on,0,0,3,,,,,,,,,2,,,,72,101
113528,note_on,30,0,13,,,,,,,,,12,,,,58,112
113529,note_on,120,0,4,,,,,,,,,3,,,,56,0
113529,note_on,0,0,4,,,,,,,,,3,,,,60,0
113529,note_on,0,0,4,,,,,,,,,3,,,,63,100
113529,note_on,0,0,4,,,,,,,,,3,,,,60,100
113534,note_on,30,0,15,,,,,,,,,14,,,,34,112
113550,note_on,30,0,11,,,,,,,,,10,,,,58,0
113553,note_on,30,0,12,,,,,,,,,11,,,,58,0
113558,note_on,30,0,13,,,,,,,,,12,,,,58,0
113564,note_on,30,0,15,,,,,,,,,14,,,,34,0
113580,note_on,30,0,11,,,,,,,,,10,,,,56,112
113583,note_on,30,0,12,,,,,,,,,11,,,,56,112
113588,note_on,30,0,13,,,,,,,,,12,,,,56,112
113594,note_on,30,0,15,,,,,,,,,14,,,,32,112
113610,note_on,30,0,11,,,,,,,,,10,,,,56,0
113613,note_on,30,0,12,,,,,,,,,11,,,,56,0
113618,note_on,30,0,13,,,,,,,,,12,,,,56,0
113624,note_on,30,0,15,,,,,,,,,14,,,,32,0
113640,note_on,30,0,11,,,,,,,,,10,,,,58,112
113640,set_tempo,120,1,0,,,,,,315789,,,,,,,,
113643,note_on,30,0,12,,,,,,,,,11,,,,58,112
113644,note_on,120,0,2,,,,,,,,,1,,,,72,0
113644,note_on,0,0,2,,,,,,,,,1,,,,75,0
113644,note_on,0,0,2,,,,,,,,,1,,,,72,100
113644,note_on,0,0,2,,,,,,,,,1,,,,75,100
113645,note_on,0,0,3,,,,,,,,,2,,,,75,0
113645,note_on,120,0,3,,,,,,,,,2,,,,72,0
113645,note_on,0,0,3,,,,,,,,,2,,,,72,101
113645,note_on,0,0,3,,,,,,,,,2,,,,75,101
113648,note_on,30,0,13,,,,,,,,,12,,,,58,112
113649,note_on,0,0,4,,,,,,,,,3,,,,60,0
113649,note_on,120,0,4,,,,,,,,,3,,,,63,0
113649,note_on,0,0,4,,,,,,,,,3,,,,63,100
113649,note_on,0,0,4,,,,,,,,,3,,,,60,100
113652,note_on,0,0,14,,,,,,,,,13,,,,56,112
113652,note_on,240,0,14,,,,,,,,,13,,,,60,0
113654,note_on,30,0,15,,,,,,,,,14,,,,34,112
113670,note_on,30,0,11,,,,,,,,,10,,,,58,0
113673,note_on,30,0,12,,,,,,,,,11,,,,58,0
113678,note_on,30,0,13,,,,,,,,,12,,,,58,0
113684,note_on,30,0,15,,,,,,,,,14,,,,34,0
113700,note_on,30,0,11,,,,,,,,,10,,,,56,112
113703,note_on,30,0,12,,,,,,,,,11,,,,56,112
113704,note_on,60,0,2,,,,,,,,,1,,,,72,0
113704,note_on,0,0,2,,,,,,,,,1,,,,75,0
113705,note_on,60,0,3,,,,,,,,,2,,,,72,0
113705,note_on,0,0,3,,,,,,,,,2,,,,75,0
113708,note_on,30,0,13,,,,,,,,,12,,,,56,112
113709,note_on,0,0,4,,,,,,,,,3,,,,60,0
113709,note_on,60,0,4,,,,,,,,,3,,,,63,0
113714,note_on,30,0,15,,,,,,,,,14,,,,32,112
113730,note_on,30,0,11,,,,,,,,,10,,,,56,0
113733,note_on,30,0,12,,,,,,,,,11,,,,56,0
113738,note_on,30,0,13,,,,,,,,,12,,,,56,0
113744,note_on,30,0,15,,,,,,,,,14,,,,32,0
113760,set_tempo,120,1,0,,,,,,254237,,,,,,,,
113760,control_change,0,0,11,,,,,,,,,10,11,83,,,
113760,note_on,30,0,11,,,,,,,,,10,,,,63,112
113763,note_on,0,0,12,,,,,,,,,11,,,,63,112
113763,note_on,0,0,5,,,,,,,,,4,,,,67,100
113763,control_change,30,0,12,,,,,,,,,11,11,83,,,
113763,control_change,4440,0,5,,,,,,,,,4,11,82,,,
113764,control_change,60,0,2,,,,,,,,,1,11,70,,,
113764,note_on,0,0,2,,,,,,,,,1,,,,73,100
113764,note_on,0,0,2,,,,,,,,,1,,,,70,100
113765,note_on,60,0,3,,,,,,,,,2,,,,70,101
113765,note_on,0,0,3,,,,,,,,,2,,,,73,101
113765,control_change,0,0,3,,,,,,,,,2,11,70,,,
113767,note_on,115,0,14,,,,,,,,,13,,,,56,0
113768,note_on,30,0,13,,,,,,,,,12,,,,63,112
113768,control_change,0,0,13,,,,,,,,,12,11,83,,,
113769,control_change,60,0,4,,,,,,,,,3,11,77,,,
113769,note_on,0,0,4,,,,,,,,,3,,,,63,100
113772,control_change,5,0,14,,,,,,,,,13,11,83,,,
113772,note_on,0,0,14,,,,,,,,,13,,,,51,112
113774,control_change,30,0,15,,,,,,,,,14,11,83,,,
113774,note_on,0,0,15,,,,,,,,,14,,,,39,112
113794,note_on,30,0,2,,,,,,,,,1,,,,73,0
113794,note_on,0,0,2,,,,,,,,,1,,,,70,0
113795,note_on,0,0,3,,,,,,,,,2,,,,70,0
113795,note_on,30,0,3,,,,,,,,,2,,,,73,0
113824,note_on,0,0,2,,,,,,,,,1,,,,70,100
113824,note_on,30,0,2,,,,,,,,,1,,,,73,100
113825,note_on,0,0,3,,,,,,,,,2,,,,73,101
113825,note_on,30,0,3,,,,,,,,,2,,,,70,101
113854,note_on,30,0,2,,,,,,,,,1,,,,70,0
113854,note_on,0,0,2,,,,,,,,,1,,,,73,0
113855,note_on,0,0,3,,,,,,,,,2,,,,70,0
113855,note_on,30,0,3,,,,,,,,,2,,,,73,0
113880,note_on,120,0,11,,,,,,,,,10,,,,63,0
113880,set_tempo,120,1,0,,,,,,263158,,,,,,,,
113883,note_on,120,0,12,,,,,,,,,11,,,,63,0
113884,note_on,30,0,2,,,,,,,,,1,,,,72,100
113884,note_on,0,0,2,,,,,,,,,1,,,,75,100
113885,note_on,0,0,3,,,,,,,,,2,,,,72,101
113885,note_on,30,0,3,,,,,,,,,2,,,,75,101
113888,note_on,120,0,13,,,,,,,,,12,,,,63,0
113892,note_on,120,0,14,,,,,,,,,13,,,,51,0
113894,note_on,120,0,15,,,,,,,,,14,,,,39,0
113944,note_on,0,0,2,,,,,,,,,1,,,,73,100
113944,note_on,0,0,2,,,,,,,,,1,,,,72,0
113944,note_on,60,0,2,,,,,,,,,1,,,,75,0
113944,note_on,0,0,2,,,,,,,,,1,,,,70,100
113945,note_on,0,0,3,,,,,,,,,2,,,,75,0
113945,note_on,0,0,3,,,,,,,,,2,,,,73,101
113945,note_on,0,0,3,,,,,,,,,2,,,,70,101
113945,note_on,60,0,3,,,,,,,,,2,,,,72,0
114000,set_tempo,120,1,0,,,,,,288462,,,,,,,,
114004,note_on,0,0,2,,,,,,,,,1,,,,72,100
114004,note_on,0,0,2,,,,,,,,,1,,,,70,0
114004,note_on,60,0,2,,,,,,,,,1,,,,73,0
114004,note_on,0,0,2,,,,,,,,,1,,,,75,100
114005,note_on,60,0,3,,,,,,,,,2,,,,73,0
114005,note_on,0,0,3,,,,,,,,,2,,,,70,0
114005,note_on,0,0,3,,,,,,,,,2,,,,72,101
114005,note_on,0,0,3,,,,,,,,,2,,,,75,101
114064,note_on,0,0,2,,,,,,,,,1,,,,73,100
114064,note_on,0,0,2,,,,,,,,,1,,,,70,100
114064,note_on,60,0,2,,,,,,,,,1,,,,75,0
114064,note_on,0,0,2,,,,,,,,,1,,,,72,0
114065,note_on,60,0,3,,,,,,,,,2,,,,75,0
114065,note_on,0,0,3,,,,,,,,,2,,,,73,101
114065,note_on,0,0,3,,,,,,,,,2,,,,70,101
114065,note_on,0,0,3,,,,,,,,,2,,,,72,0
114120,set_tempo,120,1,0,,,,,,258621,,,,,,,,
114123,note_on,360,0,5,,,,,,,,,4,,,,67,0
114123,note_on,0,0,5,,,,,,,,,4,,,,67,100
114124,note_on,60,0,2,,,,,,,,,1,,,,73,0
114124,note_on,0,0,2,,,,,,,,,1,,,,70,0
114124,note_on,0,0,2,,,,,,,,,1,,,,77,100
114124,note_on,0,0,2,,,,,,,,,1,,,,73,100
114125,note_on,0,0,3,,,,,,,,,2,,,,70,0
114125,note_on,0,0,3,,,,,,,,,2,,,,77,101
114125,note_on,0,0,3,,,,,,,,,2,,,,73,101
114125,note_on,60,0,3,,,,,,,,,2,,,,73,0
114129,note_on,0,0,4,,,,,,,,,3,,,,63,100
114129,note_on,360,0,4,,,,,,,,,3,,,,63,0
114184,note_on,0,0,2,,,,,,,,,1,,,,77,0
114184,note_on,60,0,2,,,,,,,,,1,,,,73,0
114185,note_on,60,0,3,,,,,,,,,2,,,,73,0
114185,note_on,0,0,3,,,,,,,,,2,,,,77,0
114189,note_on,60,0,4,,,,,,,,,3,,,,63,0
114243,note_on,0,0,5,,,,,,,,,4,,,,67,100
114243,note_on,120,0,5,,,,,,,,,4,,,,67,0
114244,note_on,0,0,2,,,,,,,,,1,,,,77,100
114244,note_on,0,0,2,,,,,,,,,1,,,,73,100
114244,note_on,60,0,2,,,,,,,,,1,,,,73,100
114245,note_on,60,0,3,,,,,,,,,2,,,,73,101
114245,note_on,0,0,3,,,,,,,,,2,,,,77,101
114249,note_on,60,0,4,,,,,,,,,3,,,,63,100
114304,note_on,0,0,2,,,,,,,,,1,,,,73,0
114304,note_on,0,0,2,,,,,,,,,1,,,,73,0
114304,note_on,60,0,2,,,,,,,,,1,,,,77,0
114305,note_on,60,0,3,,,,,,,,,2,,,,77,0
114305,note_on,0,0,3,,,,,,,,,2,,,,73,0
114309,note_on,60,0,4,,,,,,,,,3,,,,63,0
114360,set_tempo,240,1,0,,,,,,288462,,,,,,,,
114361,note_on,0,0,1,,,,,,,,,0,,,,82,101
114361,control_change,5040,0,1,,,,,,,,,0,11,86,,,
114361,note_on,0,0,1,,,,,,,,,0,,,,73,101
114363,note_on,120,0,5,,,,,,,,,4,,,,67,0
114363,note_on,0,0,5,,,,,,,,,4,,,,67,100
114363,control_change,0,0,5,,,,,,,,,4,11,102,,,
114364,note_on,60,0,2,,,,,,,,,1,,,,82,100
114364,control_change,0,0,2,,,,,,,,,1,11,86,,,
114365,control_change,0,0,3,,,,,,,,,2,11,86,,,
114365,note_on,0,0,3,,,,,,,,,2,,,,82,101
114365,note_on,60,0,3,,,,,,,,,2,,,,73,101
114367,note_on,0,0,8,,,,,,,,,7,,,,63,110
114367,control_change,5040,0,8,,,,,,,,,7,11,102,,,
114367,note_on,0,0,8,,,,,,,,,7,,,,67,110
114368,control_change,7,0,1,,,,,,,,,0,11,83,,,
114369,note_on,60,0,4,,,,,,,,,3,,,,63,100
114369,control_change,0,0,4,,,,,,,,,3,11,97,,,
114370,control_change,7,0,5,,,,,,,,,4,11,99,,,
114371,control_change,7,0,2,,,,,,,,,1,11,83,,,
114372,control_change,7,0,3,,,,,,,,,2,11,83,,,
114374,control_change,7,0,8,,,,,,,,,7,11,99,,,
114376,control_change,7,0,4,,,,,,,,,3,11,94,,,
114378,control_change,8,0,5,,,,,,,,,4,11,96,,,
114382,control_change,8,0,8,,,,,,,,,7,11,96,,,
114383,control_change,15,0,1,,,,,,,,,0,11,79,,,
114384,control_change,8,0,4,,,,,,,,,3,11,91,,,
114385,control_change,7,0,5,,,,,,,,,4,11,93,,,
114386,control_change,15,0,2,,,,,,,,,1,11,79,,,
114387,control_change,15,0,3,,,,,,,,,2,11,79,,,
114389,control_change,7,0,8,,,,,,,,,7,11,93,,,
114391,control_change,7,0,4,,,,,,,,,3,11,88,,,
114391,control_change,8,0,1,,,,,,,,,0,11,76,,,
114393,control_change,8,0,5,,,,,,,,,4,11,90,,,
114394,control_change,8,0,2,,,,,,,,,1,11,76,,,
114395,control_change,8,0,3,,,,,,,,,2,11,76,,,
114397,control_change,8,0,8,,,,,,,,,7,11,90,,,
114399,control_change,8,0,4,,,,,,,,,3,11,85,,,
114400,control_change,7,0,5,,,,,,,,,4,11,87,,,
114404,control_change,7,0,8,,,,,,,,,7,11,87,,,
114406,control_change,7,0,4,,,,,,,,,3,11,82,,,
114406,control_change,15,0,1,,,,,,,,,0,11,72,,,
114408,control_change,8,0,5,,,,,,,,,4,11,84,,,
114409,control_change,15,0,2,,,,,,,,,1,11,72,,,
114410,control_change,15,0,3,,,,,,,,,2,11,72,,,
114412,control_change,8,0,8,,,,,,,,,7,11,84,,,
114414,control_change,8,0,4,,,,,,,,,3,11,79,,,
114421,note_on,15,0,1,,,,,,,,,0,,,,82,0
114421,note_on,0,0,1,,,,,,,,,0,,,,73,0
114424,note_on,15,0,2,,,,,,,,,1,,,,82,0
114425,note_on,0,0,3,,,,,,,,,2,,,,73,0
114425,note_on,15,0,3,,,,,,,,,2,,,,82,0
114429,note_on,15,0,4,,,,,,,,,3,,,,63,0
114480,note_on,600,0,11,,,,,,,,,10,,,,55,112
114480,set_tempo,120,1,0,,,,,,254237,,,,,,,,
114483,note_on,600,0,12,,,,,,,,,11,,,,55,112
114483,note_on,75,0,5,,,,,,,,,4,,,,67,0
114487,note_on,75,0,8,,,,,,,,,7,,,,67,0
114487,note_on,0,0,8,,,,,,,,,7,,,,63,0
114488,note_on,600,0,13,,,,,,,,,12,,,,55,112
114492,note_on,600,0,14,,,,,,,,,13,,,,43,112
114494,note_on,600,0,15,,,,,,,,,14,,,,31,112
114510,note_on,30,0,11,,,,,,,,,10,,,,55,0
114513,note_on,30,0,12,,,,,,,,,11,,,,55,0
114518,note_on,30,0,13,,,,,,,,,12,,,,55,0
114522,note_on,30,0,14,,,,,,,,,13,,,,43,0
114524,note_on,30,0,15,,,,,,,,,14,,,,31,0
114540,note_on,30,0,11,,,,,,,,,10,,,,55,112
114543,note_on,30,0,12,,,,,,,,,11,,,,55,112
114548,note_on,30,0,13,,,,,,,,,12,,,,55,112
114552,note_on,30,0,14,,,,,,,,,13,,,,43,112
114554,note_on,30,0,15,,,,,,,,,14,,,,31,112
114570,note_on,30,0,11,,,,,,,,,10,,,,55,0
114573,note_on,30,0,12,,,,,,,,,11,,,,55,0
114578,note_on,30,0,13,,,,,,,,,12,,,,55,0
114582,note_on,30,0,14,,,,,,,,,13,,,,43,0
114584,note_on,30,0,15,,,,,,,,,14,,,,31,0
114600,set_tempo,120,1,0,,,,,,263158,,,,,,,,
114600,note_on,30,0,11,,,,,,,,,10,,,,56,112
114603,note_on,30,0,12,,,,,,,,,11,,,,56,112
114608,note_on,30,0,13,,,,,,,,,12,,,,56,112
114612,note_on,30,0,14,,,,,,,,,13,,,,44,112
114614,note_on,30,0,15,,,,,,,,,14,,,,32,112
114630,note_on,30,0,11,,,,,,,,,10,,,,56,0
114633,note_on,30,0,12,,,,,,,,,11,,,,56,0
114638,note_on,30,0,13,,,,,,,,,12,,,,56,0
114642,note_on,30,0,14,,,,,,,,,13,,,,44,0
114644,note_on,30,0,15,,,,,,,,,14,,,,32,0
114660,note_on,30,0,11,,,,,,,,,10,,,,55,112
114663,note_on,30,0,12,,,,,,,,,11,,,,55,112
114668,note_on,30,0,13,,,,,,,,,12,,,,55,112
114672,note_on,30,0,14,,,,,,,,,13,,,,43,112
114674,note_on,30,0,15,,,,,,,,,14,,,,31,112
114690,note_on,30,0,11,,,,,,,,,10,,,,55,0
114693,note_on,30,0,12,,,,,,,,,11,,,,55,0
114698,note_on,30,0,13,,,,,,,,,12,,,,55,0
114702,note_on,30,0,14,,,,,,,,,13,,,,43,0
114704,note_on,30,0,15,,,,,,,,,14,,,,31,0
114720,set_tempo,120,1,0,,,,,,288462,,,,,,,,
114720,note_on,30,0,11,,,,,,,,,10,,,,56,112
114723,note_on,30,0,12,,,,,,,,,11,,,,56,112
114728,note_on,30,0,13,,,,,,,,,12,,,,56,112
114732,note_on,30,0,14,,,,,,,,,13,,,,44,112
114734,note_on,30,0,15,,,,,,,,,14,,,,32,112
114750,note_on,30,0,11,,,,,,,,,10,,,,56,0
114753,note_on,30,0,12,,,,,,,,,11,,,,56,0
114758,note_on,30,0,13,,,,,,,,,12,,,,56,0
114762,note_on,30,0,14,,,,,,,,,13,,,,44,0
114764,note_on,30,0,15,,,,,,,,,14,,,,32,0
114780,note_on,30,0,11,,,,,,,,,10,,,,55,112
114783,note_on,30,0,12,,,,,,,,,11,,,,55,112
114788,note_on,30,0,13,,,,,,,,,12,,,,55,112
114792,note_on,30,0,14,,,,,,,,,13,,,,43,112
114794,note_on,30,0,15,,,,,,,,,14,,,,31,112
114810,note_on,30,0,11,,,,,,,,,10,,,,55,0
114813,note_on,30,0,12,,,,,,,,,11,,,,55,0
114818,note_on,30,0,13,,,,,,,,,12,,,,55,0
114822,note_on,30,0,14,,,,,,,,,13,,,,43,0
114824,note_on,30,0,15,,,,,,,,,14,,,,31,0
114840,note_on,30,0,11,,,,,,,,,10,,,,58,112
114840,set_tempo,120,1,0,,,,,,258621,,,,,,,,
114843,note_on,30,0,12,,,,,,,,,11,,,,58,112
114848,note_on,30,0,13,,,,,,,,,12,,,,58,112
114852,note_on,30,0,14,,,,,,,,,13,,,,46,112
114854,note_on,30,0,15,,,,,,,,,14,,,,34,112
114900,note_on,60,0,11,,,,,,,,,10,,,,58,0
114903,note_on,60,0,12,,,,,,,,,11,,,,58,0
114908,note_on,60,0,13,,,,,,,,,12,,,,58,0
114912,note_on,60,0,14,,,,,,,,,13,,,,46,0
114914,note_on,60,0,15,,,,,,,,,14,,,,34,0
114960,note_on,60,0,11,,,,,,,,,10,,,,58,112
114963,note_on,60,0,12,,,,,,,,,11,,,,58,112
114968,note_on,60,0,13,,,,,,,,,12,,,,58,112
114972,note_on,60,0,14,,,,,,,,,13,,,,46,112
114974,note_on,60,0,15,,,,,,,,,14,,,,34,112
115020,note_on,60,0,11,,,,,,,,,10,,,,58,0
115023,note_on,60,0,12,,,,,,,,,11,,,,58,0
115028,note_on,60,0,13,,,,,,,,,12,,,,58,0
115032,note_on,60,0,14,,,,,,,,,13,,,,46,0
115034,note_on,60,0,15,,,,,,,,,14,,,,34,0
115080,control_change,0,0,11,,,,,,,,,10,11,102,,,
115080,note_on,60,0,11,,,,,,,,,10,,,,63,112
115080,set_tempo,240,1,0,,,,,,288462,,,,,,,,
115083,control_change,0,0,12,,,,,,,,,11,11,102,,,
115083,note_on,60,0,12,,,,,,,,,11,,,,63,112
115087,note_on,0,0,8,,,,,,,,,7,,,,63,110
115087,control_change,7,0,11,,,,,,,,,10,11,99,,,
115087,control_change,600,0,8,,,,,,,,,7,11,102,,,
115087,note_on,0,0,8,,,,,,,,,7,,,,51,110
115088,note_on,60,0,13,,,,,,,,,12,,,,63,112
115088,control_change,0,0,13,,,,,,,,,12,11,102,,,
115090,control_change,7,0,12,,,,,,,,,11,11,99,,,
115092,control_change,0,0,14,,,,,,,,,13,11,102,,,
115092,note_on,60,0,14,,,,,,,,,13,,,,51,112
115093,note_on,5760,0,9,,,,,,,,,8,,,,51,110
115093,control_change,0,0,9,,,,,,,,,8,11,102,,,
115094,control_change,7,0,8,,,,,,,,,7,11,99,,,
115094,control_change,60,0,15,,,,,,,,,14,11,102,,,
115094,note_on,0,0,15,,,,,,,,,14,,,,39,112
115095,control_change,8,0,11,,,,,,,,,10,11,96,,,
115095,control_change,7,0,13,,,,,,,,,12,11,99,,,
115098,control_change,8,0,12,,,,,,,,,11,11,96,,,
115099,control_change,7,0,14,,,,,,,,,13,11,99,,,
115100,control_change,7,0,9,,,,,,,,,8,11,99,,,
115101,control_change,7,0,15,,,,,,,,,14,11,99,,,
115102,control_change,7,0,11,,,,,,,,,10,11,93,,,
115102,control_change,8,0,8,,,,,,,,,7,11,96,,,
115103,control_change,8,0,13,,,,,,,,,12,11,96,,,
115105,control_change,7,0,12,,,,,,,,,11,11,93,,,
115107,control_change,8,0,14,,,,,,,,,13,11,96,,,
115108,control_change,8,0,9,,,,,,,,,8,11,96,,,
115109,control_change,8,0,15,,,,,,,,,14,11,96,,,
115109,control_change,7,0,8,,,,,,,,,7,11,93,,,
115110,control_change,8,0,11,,,,,,,,,10,11,90,,,
115110,control_change,7,0,13,,,,,,,,,12,11,93,,,
115113,control_change,8,0,12,,,,,,,,,11,11,90,,,
115114,control_change,7,0,14,,,,,,,,,13,11,93,,,
115115,control_change,7,0,9,,,,,,,,,8,11,93,,,
115116,control_change,7,0,15,,,,,,,,,14,11,93,,,
115117,control_change,8,0,8,,,,,,,,,7,11,90,,,
115117,control_change,7,0,11,,,,,,,,,10,11,87,,,
115118,control_change,8,0,13,,,,,,,,,12,11,90,,,
115120,control_change,7,0,12,,,,,,,,,11,11,87,,,
115122,control_change,8,0,14,,,,,,,,,13,11,90,,,
115123,control_change,8,0,9,,,,,,,,,8,11,90,,,
115124,control_change,7,0,8,,,,,,,,,7,11,87,,,
115124,control_change,8,0,15,,,,,,,,,14,11,90,,,
115125,control_change,7,0,13,,,,,,,,,12,11,87,,,
115129,control_change,7,0,14,,,,,,,,,13,11,87,,,
115130,control_change,7,0,9,,,,,,,,,8,11,87,,,
115131,control_change,7,0,15,,,,,,,,,14,11,87,,,
115132,control_change,8,0,8,,,,,,,,,7,11,84,,,
115138,control_change,8,0,9,,,,,,,,,8,11,84,,,
115140,note_on,23,0,11,,,,,,,,,10,,,,63,0
115143,note_on,23,0,12,,,,,,,,,11,,,,63,0
115148,note_on,23,0,13,,,,,,,,,12,,,,63,0
115152,note_on,23,0,14,,,,,,,,,13,,,,51,0
115154,note_on,23,0,15,,,,,,,,,14,,,,39,0
115200,set_tempo,120,1,0,,,,,,254237,,,,,,,,
115203,note_on,720,0,5,,,,,,,,,4,,,,67,100
115204,note_on,780,0,2,,,,,,,,,1,,,,73,100
115204,note_on,0,0,2,,,,,,,,,1,,,,70,100
115205,note_on,0,0,3,,,,,,,,,2,,,,73,101
115205,note_on,780,0,3,,,,,,,,,2,,,,70,101
115207,note_on,0,0,8,,,,,,,,,7,,,,63,0
115207,note_on,75,0,8,,,,,,,,,7,,,,51,0
115209,note_on,780,0,4,,,,,,,,,3,,,,63,100
115213,note_on,75,0,9,,,,,,,,,8,,,,51,0
115234,note_on,30,0,2,,,,,,,,,1,,,,70,0
115234,note_on,0,0,2,,,,,,,,,1,,,,73,0
115235,note_on,0,0,3,,,,,,,,,2,,,,70,0
115235,note_on,30,0,3,,,,,,,,,2,,,,73,0
115264,note_on,30,0,2,,,,,,,,,1,,,,70,100
115264,note_on,0,0,2,,,,,,,,,1,,,,73,100
115265,note_on,0,0,3,,,,,,,,,2,,,,70,101
115265,note_on,30,0,3,,,,,,,,,2,,,,73,101
115294,note_on,30,0,2,,,,,,,,,1,,,,73,0
115294,note_on,0,0,2,,,,,,,,,1,,,,70,0
115295,note_on,0,0,3,,,,,,,,,2,,,,73,0
115295,note_on,30,0,3,,,,,,,,,2,,,,70,0
115320,set_tempo,120,1,0,,,,,,263158,,,,,,,,
115324,note_on,0,0,2,,,,,,,,,1,,,,75,100
115324,note_on,30,0,2,,,,,,,,,1,,,,72,100
115325,note_on,0,0,3,,,,,,,,,2,,,,72,101
115325,note_on,30,0,3,,,,,,,,,2,,,,75,101
115384,note_on,60,0,2,,,,,,,,,1,,,,75,0
115384,note_on,0,0,2,,,,,,,,,1,,,,72,0
115384,note_on,0,0,2,,,,,,,,,1,,,,73,100
115384,note_on,0,0,2,,,,,,,,,1,,,,70,100
115385,note_on,0,0,3,,,,,,,,,2,,,,73,101
115385,note_on,60,0,3,,,,,,,,,2,,,,72,0
115385,note_on,0,0,3,,,,,,,,,2,,,,75,0
115385,note_on,0,0,3,,,,,,,,,2,,,,70,101
115440,set_tempo,120,1,0,,,,,,288462,,,,,,,,
115444,note_on,0,0,2,,,,,,,,,1,,,,75,100
115444,note_on,0,0,2,,,,,,,,,1,,,,72,100
115444,note_on,0,0,2,,,,,,,,,1,,,,70,0
115444,note_on,60,0,2,,,,,,,,,1,,,,73,0
115445,note_on,0,0,3,,,,,,,,,2,,,,75,101
115445,note_on,60,0,3,,,,,,,,,2,,,,73,0
115445,note_on,0,0,3,,,,,,,,,2,,,,72,101
115445,note_on,0,0,3,,,,,,,,,2,,,,70,0
115504,note_on,60,0,2,,,,,,,,,1,,,,75,0
115504,note_on,0,0,2,,,,,,,,,1,,,,72,0
115504,note_on,0,0,2,,,,,,,,,1,,,,73,100
115504,note_on,0,0,2,,,,,,,,,1,,,,70,100
115505,note_on,0,0,3,,,,,,,,,2,,,,70,101
115505,note_on,0,0,3,,,,,,,,,2,,,,75,0
115505,note_on,60,0,3,,,,,,,,,2,,,,72,0
115505,note_on,0,0,3,,,,,,,,,2,,,,73,101
115560,set_tempo,120,1,0,,,,,,258621,,,,,,,,
115563,note_on,0,0,5,,,,,,,,,4,,,,67,100
115563,note_on,360,0,5,,,,,,,,,4,,,,67,0
115564,note_on,60,0,2,,,,,,,,,1,,,,70,0
115564,note_on,0,0,2,,,,,,,,,1,,,,73,0
115564,note_on,0,0,2,,,,,,,,,1,,,,77,100
115564,note_on,0,0,2,,,,,,,,,1,,,,73,100
115565,note_on,0,0,3,,,,,,,,,2,,,,70,0
115565,note_on,60,0,3,,,,,,,,,2,,,,73,0
115565,note_on,0,0,3,,,,,,,,,2,,,,73,101
115565,note_on,0,0,3,,,,,,,,,2,,,,77,101
115569,note_on,360,0,4,,,,,,,,,3,,,,63,0
115569,note_on,0,0,4,,,,,,,,,3,,,,63,100
115624,note_on,0,0,2,,,,,,,,,1,,,,77,0
115624,note_on,60,0,2,,,,,,,,,1,,,,73,0
115625,note_on,60,0,3,,,,,,,,,2,,,,77,0
115625,note_on,0,0,3,,,,,,,,,2,,,,73,0
115629,note_on,60,0,4,,,,,,,,,3,,,,63,0
115683,note_on,120,0,5,,,,,,,,,4,,,,67,0
115683,note_on,0,0,5,,,,,,,,,4,,,,67,100
115684,note_on,0,0,2,,,,,,,,,1,,,,77,100
115684,note_on,0,0,2,,,,,,,,,1,,,,73,100
115684,note_on,60,0,2,,,,,,,,,1,,,,73,100
115685,note_on,0,0,3,,,,,,,,,2,,,,73,101
115685,note_on,60,0,3,,,,,,,,,2,,,,77,101
115689,note_on,60,0,4,,,,,,,,,3,,,,63,100
115744,note_on,60,0,2,,,,,,,,,1,,,,77,0
115744,note_on,0,0,2,,,,,,,,,1,,,,73,0
115744,note_on,0,0,2,,,,,,,,,1,,,,73,0
115745,note_on,0,0,3,,,,,,,,,2,,,,77,0
115745,note_on,60,0,3,,,,,,,,,2,,,,73,0
115749,note_on,60,0,4,,,,,,,,,3,,,,63,0
115800,set_tempo,240,1,0,,,,,,288462,,,,,,,,
115801,note_on,1380,0,1,,,,,,,,,0,,,,73,101
115801,control_change,0,0,1,,,,,,,,,0,11,86,,,
115801,note_on,0,0,1,,,,,,,,,0,,,,82,101
115803,control_change,0,0,5,,,,,,,,,4,11,102,,,
115803,note_on,0,0,5,,,,,,,,,4,,,,67,100
115803,note_on,120,0,5,,,,,,,,,4,,,,67,0
115804,control_change,0,0,2,,,,,,,,,1,11,86,,,
115804,note_on,60,0,2,,,,,,,,,1,,,,82,100
115805,note_on,0,0,3,,,,,,,,,2,,,,82,101
115805,note_on,0,0,3,,,,,,,,,2,,,,73,101
115805,control_change,60,0,3,,,,,,,,,2,11,86,,,
115807,note_on,0,0,8,,,,,,,,,7,,,,67,110
115807,control_change,0,0,8,,,,,,,,,7,11,102,,,
115807,note_on,600,0,8,,,,,,,,,7,,,,63,110
115808,control_change,7,0,1,,,,,,,,,0,11,83,,,
115809,control_change,60,0,4,,,,,,,,,3,11,97,,,
115809,note_on,0,0,4,,,,,,,,,3,,,,63,100
115810,control_change,7,0,5,,,,,,,,,4,11,99,,,
115811,control_change,7,0,2,,,,,,,,,1,11,83,,,
115812,control_change,7,0,3,,,,,,,,,2,11,83,,,
115814,control_change,7,0,8,,,,,,,,,7,11,99,,,
115816,control_change,7,0,4,,,,,,,,,3,11,94,,,
115818,control_change,8,0,5,,,,,,,,,4,11,96,,,
115822,control_change,8,0,8,,,,,,,,,7,11,96,,,
115823,control_change,15,0,1,,,,,,,,,0,11,79,,,
115824,control_change,8,0,4,,,,,,,,,3,11,91,,,
115825,control_change,7,0,5,,,,,,,,,4,11,93,,,
115826,control_change,15,0,2,,,,,,,,,1,11,79,,,
115827,control_change,15,0,3,,,,,,,,,2,11,79,,,
115829,control_change,7,0,8,,,,,,,,,7,11,93,,,
115831,control_change,7,0,4,,,,,,,,,3,11,88,,,
115831,control_change,8,0,1,,,,,,,,,0,11,76,,,
115833,control_change,8,0,5,,,,,,,,,4,11,90,,,
115834,control_change,8,0,2,,,,,,,,,1,11,76,,,
115835,control_change,8,0,3,,,,,,,,,2,11,76,,,
115837,control_change,8,0,8,,,,,,,,,7,11,90,,,
115839,control_change,8,0,4,,,,,,,,,3,11,85,,,
115840,control_change,7,0,5,,,,,,,,,4,11,87,,,
115844,control_change,7,0,8,,,,,,,,,7,11,87,,,
115846,control_change,7,0,4,,,,,,,,,3,11,82,,,
115846,control_change,15,0,1,,,,,,,,,0,11,72,,,
115848,control_change,8,0,5,,,,,,,,,4,11,84,,,
115849,control_change,15,0,2,,,,,,,,,1,11,72,,,
115850,control_change,15,0,3,,,,,,,,,2,11,72,,,
115852,control_change,8,0,8,,,,,,,,,7,11,84,,,
115854,control_change,8,0,4,,,,,,,,,3,11,79,,,
115861,note_on,0,0,1,,,,,,,,,0,,,,73,0
115861,note_on,15,0,1,,,,,,,,,0,,,,82,0
115864,note_on,15,0,2,,,,,,,,,1,,,,82,0
115865,note_on,0,0,3,,,,,,,,,2,,,,73,0
115865,note_on,15,0,3,,,,,,,,,2,,,,82,0
115869,note_on,15,0,4,,,,,,,,,3,,,,63,0
115920,set_tempo,120,1,0,,,,,,254237,,,,,,,,
115920,note_on,780,0,11,,,,,,,,,10,,,,55,112
115923,note_on,780,0,12,,,,,,,,,11,,,,55,112
115923,note_on,75,0,5,,,,,,,,,4,,,,67,0
115927,note_on,75,0,8,,,,,,,,,7,,,,67,0
115927,note_on,0,0,8,,,,,,,,,7,,,,63,0
115928,note_on,780,0,13,,,,,,,,,12,,,,55,112
115932,note_on,780,0,14,,,,,,,,,13,,,,43,112
115934,note_on,780,0,15,,,,,,,,,14,,,,31,112
115950,note_on,30,0,11,,,,,,,,,10,,,,55,0
115953,note_on,30,0,12,,,,,,,,,11,,,,55,0
115958,note_on,30,0,13,,,,,,,,,12,,,,55,0
115962,note_on,30,0,14,,,,,,,,,13,,,,43,0
115964,note_on,30,0,15,,,,,,,,,14,,,,31,0
115980,note_on,30,0,11,,,,,,,,,10,,,,55,112
115983,note_on,30,0,12,,,,,,,,,11,,,,55,112
115988,note_on,30,0,13,,,,,,,,,12,,,,55,112
115992,note_on,30,0,14,,,,,,,,,13,,,,43,112
115994,note_on,30,0,15,,,,,,,,,14,,,,31,112
116010,note_on,30,0,11,,,,,,,,,10,,,,55,0
116013,note_on,30,0,12,,,,,,,,,11,,,,55,0
116018,note_on,30,0,13,,,,,,,,,12,,,,55,0
116022,note_on,30,0,14,,,,,,,,,13,,,,43,0
116024,note_on,30,0,15,,,,,,,,,14,,,,31,0
116040,set_tempo,120,1,0,,,,,,263158,,,,,,,,
116040,note_on,30,0,11,,,,,,,,,10,,,,56,112
116043,note_on,30,0,12,,,,,,,,,11,,,,56,112
116048,note_on,30,0,13,,,,,,,,,12,,,,56,112
116052,note_on,30,0,14,,,,,,,,,13,,,,44,112
116054,note_on,30,0,15,,,,,,,,,14,,,,32,112
116070,note_on,30,0,11,,,,,,,,,10,,,,56,0
116073,note_on,30,0,12,,,,,,,,,11,,,,56,0
116078,note_on,30,0,13,,,,,,,,,12,,,,56,0
116082,note_on,30,0,14,,,,,,,,,13,,,,44,0
116084,note_on,30,0,15,,,,,,,,,14,,,,32,0
116100,note_on,30,0,11,,,,,,,,,10,,,,55,112
116103,note_on,30,0,12,,,,,,,,,11,,,,55,112
116108,note_on,30,0,13,,,,,,,,,12,,,,55,112
116112,note_on,30,0,14,,,,,,,,,13,,,,43,112
116114,note_on,30,0,15,,,,,,,,,14,,,,31,112
116130,note_on,30,0,11,,,,,,,,,10,,,,55,0
116133,note_on,30,0,12,,,,,,,,,11,,,,55,0
116138,note_on,30,0,13,,,,,,,,,12,,,,55,0
116142,note_on,30,0,14,,,,,,,,,13,,,,43,0
116144,note_on,30,0,15,,,,,,,,,14,,,,31,0
116160,note_on,30,0,11,,,,,,,,,10,,,,56,112
116160,set_tempo,120,1,0,,,,,,288462,,,,,,,,
116163,note_on,30,0,12,,,,,,,,,11,,,,56,112
116168,note_on,30,0,13,,,,,,,,,12,,,,56,112
116172,note_on,30,0,14,,,,,,,,,13,,,,44,112
116174,note_on,30,0,15,,,,,,,,,14,,,,32,112
116190,note_on,30,0,11,,,,,,,,,10,,,,56,0
116193,note_on,30,0,12,,,,,,,,,11,,,,56,0
116198,note_on,30,0,13,,,,,,,,,12,,,,56,0
116202,note_on,30,0,14,,,,,,,,,13,,,,44,0
116204,note_on,30,0,15,,,,,,,,,14,,,,32,0
116220,note_on,30,0,11,,,,,,,,,10,,,,55,112
116223,note_on,30,0,12,,,,,,,,,11,,,,55,112
116228,note_on,30,0,13,,,,,,,,,12,,,,55,112
116232,note_on,30,0,14,,,,,,,,,13,,,,43,112
116234,note_on,30,0,15,,,,,,,,,14,,,,31,112
116250,note_on,30,0,11,,,,,,,,,10,,,,55,0
116253,note_on,30,0,12,,,,,,,,,11,,,,55,0
116258,note_on,30,0,13,,,,,,,,,12,,,,55,0
116262,note_on,30,0,14,,,,,,,,,13,,,,43,0
116264,note_on,30,0,15,,,,,,,,,14,,,,31,0
116280,note_on,30,0,11,,,,,,,,,10,,,,58,112
116280,set_tempo,120,1,0,,,,,,258621,,,,,,,,
116283,note_on,30,0,12,,,,,,,,,11,,,,58,112
116288,note_on,30,0,13,,,,,,,,,12,,,,58,112
116292,note_on,30,0,14,,,,,,,,,13,,,,46,112
116294,note_on,30,0,15,,,,,,,,,14,,,,34,112
116340,note_on,60,0,11,,,,,,,,,10,,,,58,0
116343,note_on,60,0,12,,,,,,,,,11,,,,58,0
116348,note_on,60,0,13,,,,,,,,,12,,,,58,0
116352,note_on,60,0,14,,,,,,,,,13,,,,46,0
116354,note_on,60,0,15,,,,,,,,,14,,,,34,0
116400,note_on,60,0,11,,,,,,,,,10,,,,58,112
116403,note_on,60,0,12,,,,,,,,,11,,,,58,112
116408,note_on,60,0,13,,,,,,,,,12,,,,58,112
116412,note_on,60,0,14,,,,,,,,,13,,,,46,112
116414,note_on,60,0,15,,,,,,,,,14,,,,34,112
116460,note_on,60,0,11,,,,,,,,,10,,,,58,0
116463,note_on,60,0,12,,,,,,,,,11,,,,58,0
116468,note_on,60,0,13,,,,,,,,,12,,,,58,0
116472,note_on,60,0,14,,,,,,,,,13,,,,46,0
116474,note_on,60,0,15,,,,,,,,,14,,,,34,0
116520,note_on,0,0,11,,,,,,,,,10,,,,63,112
116520,set_tempo,240,1,0,,,,,,305344,,,,,,,,
116520,control_change,60,0,11,,,,,,,,,10,11,102,,,
116523,note_on,60,0,12,,,,,,,,,11,,,,63,112
116523,control_change,0,0,12,,,,,,,,,11,11,102,,,
116527,control_change,0,0,8,,,,,,,,,7,11,102,,,
116527,note_on,0,0,8,,,,,,,,,7,,,,51,110
116527,control_change,7,0,11,,,,,,,,,10,11,99,,,
116527,note_on,600,0,8,,,,,,,,,7,,,,63,110
116528,note_on,60,0,13,,,,,,,,,12,,,,63,112
116528,control_change,0,0,13,,,,,,,,,12,11,102,,,
116530,control_change,7,0,12,,,,,,,,,11,11,99,,,
116532,control_change,60,0,14,,,,,,,,,13,11,102,,,
116532,note_on,0,0,14,,,,,,,,,13,,,,51,112
116533,note_on,0,0,9,,,,,,,,,8,,,,51,110
116533,control_change,1320,0,9,,,,,,,,,8,11,102,,,
116534,note_on,0,0,15,,,,,,,,,14,,,,39,112
116534,control_change,60,0,15,,,,,,,,,14,11,102,,,
116534,control_change,7,0,8,,,,,,,,,7,11,99,,,
116535,control_change,7,0,13,,,,,,,,,12,11,99,,,
116535,control_change,8,0,11,,,,,,,,,10,11,96,,,
116538,control_change,8,0,12,,,,,,,,,11,11,96,,,
116539,control_change,7,0,14,,,,,,,,,13,11,99,,,
116540,control_change,7,0,9,,,,,,,,,8,11,99,,,
116541,control_change,7,0,15,,,,,,,,,14,11,99,,,
116542,control_change,7,0,11,,,,,,,,,10,11,93,,,
116542,control_change,8,0,8,,,,,,,,,7,11,96,,,
116543,control_change,8,0,13,,,,,,,,,12,11,96,,,
116545,control_change,7,0,12,,,,,,,,,11,11,93,,,
116547,control_change,8,0,14,,,,,,,,,13,11,96,,,
116548,control_change,8,0,9,,,,,,,,,8,11,96,,,
116549,control_change,7,0,8,,,,,,,,,7,11,93,,,
116549,control_change,8,0,15,,,,,,,,,14,11,96,,,
116550,control_change,7,0,13,,,,,,,,,12,11,93,,,
116550,control_change,8,0,11,,,,,,,,,10,11,90,,,
116553,control_change,8,0,12,,,,,,,,,11,11,90,,,
116554,control_change,7,0,14,,,,,,,,,13,11,93,,,
116555,control_change,7,0,9,,,,,,,,,8,11,93,,,
116556,control_change,7,0,15,,,,,,,,,14,11,93,,,
116557,control_change,7,0,11,,,,,,,,,10,11,87,,,
116557,control_change,8,0,8,,,,,,,,,7,11,90,,,
116558,control_change,8,0,13,,,,,,,,,12,11,90,,,
116560,control_change,7,0,12,,,,,,,,,11,11,87,,,
116562,control_change,8,0,14,,,,,,,,,13,11,90,,,
116563,control_change,8,0,9,,,,,,,,,8,11,90,,,
116564,control_change,7,0,8,,,,,,,,,7,11,87,,,
116564,control_change,8,0,15,,,,,,,,,14,11,90,,,
116565,control_change,7,0,13,,,,,,,,,12,11,87,,,
116569,control_change,7,0,14,,,,,,,,,13,11,87,,,
116570,control_change,7,0,9,,,,,,,,,8,11,87,,,
116571,control_change,7,0,15,,,,,,,,,14,11,87,,,
116572,control_change,8,0,8,,,,,,,,,7,11,84,,,
116578,control_change,8,0,9,,,,,,,,,8,11,84,,,
116580,note_on,23,0,11,,,,,,,,,10,,,,63,0
116583,note_on,23,0,12,,,,,,,,,11,,,,63,0
116588,note_on,23,0,13,,,,,,,,,12,,,,63,0
116592,note_on,23,0,14,,,,,,,,,13,,,,51,0
116594,note_on,23,0,15,,,,,,,,,14,,,,39,0
116640,set_tempo,120,1,0,,,,,,258621,,,,,,,,
116641,control_change,0,0,1,,,,,,,,,0,11,42,,,
116641,note_on,0,0,1,,,,,,,,,0,,,,77,101
116641,note_on,780,0,1,,,,,,,,,0,,,,73,101
116643,control_change,720,0,5,,,,,,,,,4,11,47,,,
116643,note_on,0,0,5,,,,,,,,,4,,,,67,100
116644,note_on,0,0,2,,,,,,,,,1,,,,73,100
116644,control_change,780,0,2,,,,,,,,,1,11,42,,,
116647,note_on,75,0,8,,,,,,,,,7,,,,51,0
116647,note_on,0,0,8,,,,,,,,,7,,,,63,0
116649,note_on,780,0,4,,,,,,,,,3,,,,67,100
116649,control_change,0,0,4,,,,,,,,,3,11,42,,,
116653,note_on,75,0,9,,,,,,,,,8,,,,51,0
116701,note_on,60,0,1,,,,,,,,,0,,,,77,0
116701,note_on,0,0,1,,,,,,,,,0,,,,73,0
116704,note_on,60,0,2,,,,,,,,,1,,,,73,0
116729,note_on,80,0,4,,,,,,,,,3,,,,67,0
116733,note_on,90,0,5,,,,,,,,,4,,,,67,0
116761,control_change,60,0,1,,,,,,,,,0,11,42,,,
116761,note_on,0,0,1,,,,,,,,,0,,,,77,101
116761,note_on,0,0,1,,,,,,,,,0,,,,73,101
116763,note_on,30,0,5,,,,,,,,,4,,,,67,100
116764,note_on,0,0,2,,,,,,,,,1,,,,73,100
116764,control_change,60,0,2,,,,,,,,,1,11,42,,,
116765,control_change,900,0,3,,,,,,,,,2,11,42,,,
116769,control_change,0,0,4,,,,,,,,,3,11,42,,,
116769,note_on,40,0,4,,,,,,,,,3,,,,67,100
116821,note_on,0,0,1,,,,,,,,,0,,,,77,0
116821,note_on,60,0,1,,,,,,,,,0,,,,73,0
116824,note_on,60,0,2,,,,,,,,,1,,,,73,0
116849,note_on,80,0,4,,,,,,,,,3,,,,67,0
116853,note_on,90,0,5,,,,,,,,,4,,,,67,0
116857,control_change,36,0,1,,,,,,,,,0,11,41,,,
116860,control_change,36,0,2,,,,,,,,,1,11,41,,,
116861,control_change,96,0,3,,,,,,,,,2,11,41,,,
116865,control_change,16,0,4,,,,,,,,,3,11,41,,,
116880,set_tempo,240,1,0,,,,,,288462,,,,,,,,
116881,note_on,0,0,1,,,,,,,,,0,,,,73,116
116881,note_on,24,0,1,,,,,,,,,0,,,,82,116
116883,note_on,30,0,5,,,,,,,,,4,,,,67,115
116884,note_on,24,0,2,,,,,,,,,1,,,,77,115
116889,note_on,24,0,4,,,,,,,,,3,,,,67,115
116941,note_on,60,0,1,,,,,,,,,0,,,,73,0
116941,note_on,0,0,1,,,,,,,,,0,,,,82,0
116944,note_on,60,0,2,,,,,,,,,1,,,,77,0
116953,control_change,12,0,1,,,,,,,,,0,11,40,,,
116956,control_change,12,0,2,,,,,,,,,1,11,40,,,
116957,control_change,96,0,3,,,,,,,,,2,11,40,,,
116961,control_change,72,0,4,,,,,,,,,3,11,40,,,
116969,note_on,8,0,4,,,,,,,,,3,,,,67,0
116973,note_on,90,0,5,,,,,,,,,4,,,,67,0
117000,set_tempo,120,1,0,,,,,,258621,,,,,,,,
117001,note_on,48,0,1,,,,,,,,,0,,,,73,101
117001,note_on,0,0,1,,,,,,,,,0,,,,77,101
117004,note_on,48,0,2,,,,,,,,,1,,,,73,100
117009,note_on,40,0,4,,,,,,,,,3,,,,67,100
117049,control_change,48,0,1,,,,,,,,,0,11,39,,,
117052,control_change,48,0,2,,,,,,,,,1,11,39,,,
117053,control_change,96,0,3,,,,,,,,,2,11,39,,,
117057,control_change,48,0,4,,,,,,,,,3,11,39,,,
117061,note_on,12,0,1,,,,,,,,,0,,,,77,0
117061,note_on,0,0,1,,,,,,,,,0,,,,73,0
117064,note_on,12,0,2,,,,,,,,,1,,,,73,0
117089,note_on,32,0,4,,,,,,,,,3,,,,67,0
117121,note_on,0,0,1,,,,,,,,,0,,,,77,101
117121,note_on,60,0,1,,,,,,,,,0,,,,73,101
117124,note_on,60,0,2,,,,,,,,,1,,,,73,100
117129,note_on,40,0,4,,,,,,,,,3,,,,67,100
117145,control_change,24,0,1,,,,,,,,,0,11,38,,,
117148,control_change,24,0,2,,,,,,,,,1,11,38,,,
117149,control_change,96,0,3,,,,,,,,,2,11,38,,,
117153,control_change,24,0,4,,,,,,,,,3,11,38,,,
117181,note_on,36,0,1,,,,,,,,,0,,,,77,0
117181,note_on,0,0,1,,,,,,,,,0,,,,73,0
117184,note_on,36,0,2,,,,,,,,,1,,,,73,0
117209,note_on,56,0,4,,,,,,,,,3,,,,67,0
117240,set_tempo,240,1,0,,,,,,288462,,,,,,,,
117241,control_change,60,0,1,,,,,,,,,0,11,37,,,
117241,note_on,0,0,1,,,,,,,,,0,,,,73,116
117241,note_on,0,0,1,,,,,,,,,0,,,,82,116
117244,control_change,60,0,2,,,,,,,,,1,11,37,,,
117244,note_on,0,0,2,,,,,,,,,1,,,,76,115
117245,control_change,96,0,3,,,,,,,,,2,11,37,,,
117249,note_on,40,0,4,,,,,,,,,3,,,,67,115
117249,control_change,0,0,4,,,,,,,,,3,11,37,,,
117301,note_on,60,0,1,,,,,,,,,0,,,,73,0
117301,note_on,0,0,1,,,,,,,,,0,,,,82,0
117304,note_on,60,0,2,,,,,,,,,1,,,,76,0
117329,note_on,80,0,4,,,,,,,,,3,,,,67,0
117337,control_change,36,0,1,,,,,,,,,0,11,36,,,
117340,control_change,36,0,2,,,,,,,,,1,11,36,,,
117341,control_change,96,0,3,,,,,,,,,2,11,36,,,
117345,control_change,16,0,4,,,,,,,,,3,11,36,,,
117360,set_tempo,120,1,0,,,,,,258621,,,,,,,,
117361,note_on,0,0,1,,,,,,,,,0,,,,73,101
117361,note_on,24,0,1,,,,,,,,,0,,,,77,101
117364,note_on,24,0,2,,,,,,,,,1,,,,73,100
117369,note_on,24,0,4,,,,,,,,,3,,,,67,100
117421,note_on,60,0,1,,,,,,,,,0,,,,73,0
117421,note_on,0,0,1,,,,,,,,,0,,,,77,0
117424,note_on,60,0,2,,,,,,,,,1,,,,73,0
117433,control_change,12,0,1,,,,,,,,,0,11,35,,,
117436,control_change,12,0,2,,,,,,,,,1,11,35,,,
117437,control_change,96,0,3,,,,,,,,,2,11,35,,,
117441,control_change,72,0,4,,,,,,,,,3,11,35,,,
117449,note_on,8,0,4,,,,,,,,,3,,,,67,0
117481,note_on,48,0,1,,,,,,,,,0,,,,77,101
117481,note_on,0,0,1,,,,,,,,,0,,,,73,101
117484,note_on,48,0,2,,,,,,,,,1,,,,73,100
117489,note_on,40,0,4,,,,,,,,,3,,,,67,100
117529,control_change,48,0,1,,,,,,,,,0,11,34,,,
117532,control_change,48,0,2,,,,,,,,,1,11,34,,,
117533,control_change,96,0,3,,,,,,,,,2,11,34,,,
117537,control_change,48,0,4,,,,,,,,,3,11,34,,,
117541,note_on,0,0,1,,,,,,,,,0,,,,77,0
117541,note_on,12,0,1,,,,,,,,,0,,,,73,0
117544,note_on,12,0,2,,,,,,,,,1,,,,73,0
117569,note_on,32,0,4,,,,,,,,,3,,,,67,0
117600,set_tempo,240,1,0,,,,,,304569,,,,,,,,
117601,note_on,60,0,1,,,,,,,,,0,,,,73,116
117601,note_on,0,0,1,,,,,,,,,0,,,,82,116
117604,note_on,60,0,2,,,,,,,,,1,,,,76,115
117609,note_on,40,0,4,,,,,,,,,3,,,,67,115
117625,control_change,24,0,1,,,,,,,,,0,11,33,,,
117628,control_change,24,0,2,,,,,,,,,1,11,33,,,
117629,control_change,96,0,3,,,,,,,,,2,11,33,,,
117633,control_change,24,0,4,,,,,,,,,3,11,33,,,
117661,note_on,0,0,1,,,,,,,,,0,,,,73,0
117661,note_on,36,0,1,,,,,,,,,0,,,,82,0
117664,note_on,36,0,2,,,,,,,,,1,,,,76,0
117689,note_on,56,0,4,,,,,,,,,3,,,,67,0
117720,set_tempo,120,1,0,,,,,,254237,,,,,,,,
117721,control_change,0,0,1,,,,,,,,,0,11,55,,,
117721,note_on,60,0,1,,,,,,,,,0,,,,73,101
117721,note_on,0,0,1,,,,,,,,,0,,,,82,101
117723,control_change,0,0,12,,,,,,,,,11,11,41,,,
117723,note_on,1140,0,12,,,,,,,,,11,,,,64,97
117724,control_change,60,0,2,,,,,,,,,1,11,32,,,
117725,note_on,96,0,3,,,,,,,,,2,,,,70,101
117725,control_change,0,0,3,,,,,,,,,2,11,32,,,
117727,program_change,1139,0,13,,,,,,,,48,12,,,,,
117728,control_change,1,0,13,,,,,,,,,12,11,41,,,
117728,note_on,0,0,13,,,,,,,,,12,,,,54,97
117729,control_change,0,0,4,,,,,,,,,3,11,32,,,
117729,note_on,0,0,4,,,,,,,,,3,,,,66,100
117729,note_on,40,0,4,,,,,,,,,3,,,,64,100
117732,note_on,1140,0,14,,,,,,,,,13,,,,54,112
117732,control_change,0,0,14,,,,,,,,,13,11,41,,,
117734,note_on,1140,0,15,,,,,,,,,14,,,,42,112
117734,control_change,0,0,15,,,,,,,,,14,11,41,,,
117749,control_change,24,0,3,,,,,,,,,2,11,34,,,
117753,control_change,24,0,4,,,,,,,,,3,11,34,,,
117773,control_change,24,0,3,,,,,,,,,2,11,36,,,
117777,control_change,24,0,4,,,,,,,,,3,11,36,,,
117783,note_on,60,0,12,,,,,,,,,11,,,,64,0
117788,note_on,60,0,13,,,,,,,,,12,,,,54,0
117797,control_change,24,0,3,,,,,,,,,2,11,38,,,
117801,control_change,24,0,4,,,,,,,,,3,11,38,,,
117821,control_change,24,0,3,,,,,,,,,2,11,40,,,
117825,control_change,24,0,4,,,,,,,,,3,11,40,,,
117840,set_tempo,120,1,0,,,,,,263158,,,,,,,,
117843,note_on,60,0,12,,,,,,,,,11,,,,64,97
117845,control_change,24,0,3,,,,,,,,,2,11,42,,,
117848,note_on,60,0,13,,,,,,,,,12,,,,54,97
117849,control_change,24,0,4,,,,,,,,,3,11,42,,,
117852,note_on,120,0,14,,,,,,,,,13,,,,54,0
117854,note_on,120,0,15,,,,,,,,,14,,,,42,0
117903,note_on,60,0,12,,,,,,,,,11,,,,64,0
117908,note_on,60,0,13,,,,,,,,,12,,,,54,0
117960,set_tempo,120,1,0,,,,,,288462,,,,,,,,
117963,note_on,60,0,12,,,,,,,,,11,,,,66,109
117968,note_on,60,0,13,,,,,,,,,12,,,,64,109
118023,note_on,60,0,12,,,,,,,,,11,,,,66,0
118028,note_on,60,0,13,,,,,,,,,12,,,,64,0
118075,note_on,230,0,3,,,,,,,,,2,,,,70,0
118079,note_on,0,0,4,,,,,,,,,3,,,,64,0
118079,note_on,230,0,4,,,,,,,,,3,,,,66,0
118080,set_tempo,120,1,0,,,,,,254237,,,,,,,,
118081,note_on,360,0,1,,,,,,,,,0,,,,82,0
118081,note_on,0,0,1,,,,,,,,,0,,,,73,0
118081,note_on,0,0,1,,,,,,,,,0,,,,83,101
118081,note_on,0,0,1,,,,,,,,,0,,,,75,101
118083,note_on,60,0,12,,,,,,,,,11,,,,63,97
118085,note_on,10,0,3,,,,,,,,,2,,,,71,101
118088,note_on,60,0,13,,,,,,,,,12,,,,54,97
118089,note_on,10,0,4,,,,,,,,,3,,,,66,100
118089,note_on,0,0,4,,,,,,,,,3,,,,63,100
118092,note_on,240,0,14,,,,,,,,,13,,,,54,112
118094,note_on,240,0,15,,,,,,,,,14,,,,42,112
118143,note_on,60,0,12,,,,,,,,,11,,,,63,0
118148,note_on,60,0,13,,,,,,,,,12,,,,54,0
118200,set_tempo,120,1,0,,,,,,263158,,,,,,,,
118201,note_on,120,0,1,,,,,,,,,0,,,,83,0
118201,note_on,0,0,1,,,,,,,,,0,,,,82,101
118203,note_on,60,0,12,,,,,,,,,11,,,,63,97
118208,note_on,60,0,13,,,,,,,,,12,,,,54,97
118212,note_on,120,0,14,,,,,,,,,13,,,,54,0
118214,note_on,120,0,15,,,,,,,,,14,,,,42,0
118263,note_on,60,0,12,,,,,,,,,11,,,,63,0
118268,note_on,60,0,13,,,,,,,,,12,,,,54,0
118320,set_tempo,120,1,0,,,,,,288462,,,,,,,,
118321,note_on,0,0,1,,,,,,,,,0,,,,80,101
118321,note_on,120,0,1,,,,,,,,,0,,,,82,0
118323,note_on,60,0,12,,,,,,,,,11,,,,66,109
118328,note_on,60,0,13,,,,,,,,,12,,,,63,109
118383,note_on,60,0,12,,,,,,,,,11,,,,66,0
118388,note_on,60,0,13,,,,,,,,,12,,,,63,0
118435,note_on,350,0,3,,,,,,,,,2,,,,71,0
118439,note_on,0,0,4,,,,,,,,,3,,,,66,0
118439,note_on,350,0,4,,,,,,,,,3,,,,63,0
118440,set_tempo,120,1,0,,,,,,254237,,,,,,,,
118441,note_on,0,0,1,,,,,,,,,0,,,,78,101
118441,note_on,0,0,1,,,,,,,,,0,,,,73,101
118441,note_on,120,0,1,,,,,,,,,0,,,,80,0
118441,note_on,0,0,1,,,,,,,,,0,,,,75,0
118443,note_on,60,0,12,,,,,,,,,11,,,,64,97
118445,note_on,10,0,3,,,,,,,,,2,,,,70,101
118448,note_on,60,0,13,,,,,,,,,12,,,,54,97
118449,note_on,10,0,4,,,,,,,,,3,,,,64,100
118449,note_on,0,0,4,,,,,,,,,3,,,,66,100
118452,note_on,240,0,14,,,,,,,,,13,,,,54,112
118454,note_on,240,0,15,,,,,,,,,14,,,,42,112
118503,note_on,60,0,12,,,,,,,,,11,,,,64,0
118508,note_on,60,0,13,,,,,,,,,12,,,,54,0
118560,set_tempo,120,1,0,,,,,,263158,,,,,,,,
118561,note_on,0,0,1,,,,,,,,,0,,,,76,101
118561,note_on,120,0,1,,,,,,,,,0,,,,78,0
118563,note_on,60,0,12,,,,,,,,,11,,,,64,97
118568,note_on,60,0,13,,,,,,,,,12,,,,54,97
118572,note_on,120,0,14,,,,,,,,,13,,,,54,0
118574,note_on,120,0,15,,,,,,,,,14,,,,42,0
118623,note_on,60,0,12,,,,,,,,,11,,,,64,0
118628,note_on,60,0,13,,,,,,,,,12,,,,54,0
118680,set_tempo,120,1,0,,,,,,288462,,,,,,,,
118681,note_on,0,0,1,,,,,,,,,0,,,,73,101
118681,note_on,120,0,1,,,,,,,,,0,,,,76,0
118683,note_on,60,0,12,,,,,,,,,11,,,,66,109
118688,note_on,60,0,13,,,,,,,,,12,,,,64,109
118743,note_on,60,0,12,,,,,,,,,11,,,,66,0
118748,note_on,60,0,13,,,,,,,,,12,,,,64,0
118795,note_on,350,0,3,,,,,,,,,2,,,,70,0
118799,note_on,350,0,4,,,,,,,,,3,,,,66,0
118799,note_on,0,0,4,,,,,,,,,3,,,,64,0
118800,set_tempo,120,1,0,,,,,,254237,,,,,,,,
118801,note_on,0,0,1,,,,,,,,,0,,,,75,101
118801,note_on,120,0,1,,,,,,,,,0,,,,73,0
118801,note_on,0,0,1,,,,,,,,,0,,,,78,101
118801,note_on,0,0,1,,,,,,,,,0,,,,73,0
118803,note_on,60,0,12,,,,,,,,,11,,,,63,97
118805,note_on,10,0,3,,,,,,,,,2,,,,71,101
118808,note_on,60,0,13,,,,,,,,,12,,,,54,97
118809,note_on,10,0,4,,,,,,,,,3,,,,66,100
118809,note_on,0,0,4,,,,,,,,,3,,,,63,100
118812,note_on,240,0,14,,,,,,,,,13,,,,54,112
118814,note_on,240,0,15,,,,,,,,,14,,,,42,112
118863,note_on,60,0,12,,,,,,,,,11,,,,63,0
118868,note_on,60,0,13,,,,,,,,,12,,,,54,0
118920,set_tempo,120,1,0,,,,,,263158,,,,,,,,
118923,note_on,60,0,12,,,,,,,,,11,,,,63,97
118928,note_on,60,0,13,,,,,,,,,12,,,,54,97
118932,note_on,120,0,14,,,,,,,,,13,,,,54,0
118934,note_on,120,0,15,,,,,,,,,14,,,,42,0
118983,note_on,60,0,12,,,,,,,,,11,,,,63,0
118988,note_on,60,0,13,,,,,,,,,12,,,,54,0
119040,set_tempo,120,1,0,,,,,,288462,,,,,,,,
119041,note_on,240,0,1,,,,,,,,,0,,,,78,0
119041,note_on,0,0,1,,,,,,,,,0,,,,75,101
119043,note_on,60,0,12,,,,,,,,,11,,,,66,109
119048,note_on,60,0,13,,,,,,,,,12,,,,63,109
119103,note_on,60,0,12,,,,,,,,,11,,,,66,0
119108,note_on,60,0,13,,,,,,,,,12,,,,63,0
119155,note_on,350,0,3,,,,,,,,,2,,,,71,0
119159,note_on,350,0,4,,,,,,,,,3,,,,63,0
119159,note_on,0,0,4,,,,,,,,,3,,,,66,0
119160,set_tempo,120,1,0,,,,,,254237,,,,,,,,
119161,note_on,120,0,1,,,,,,,,,0,,,,75,0
119161,note_on,0,0,1,,,,,,,,,0,,,,75,0
119161,note_on,0,0,1,,,,,,,,,0,,,,73,101
119161,note_on,0,0,1,,,,,,,,,0,,,,82,101
119163,note_on,60,0,12,,,,,,,,,11,,,,64,97
119165,note_on,10,0,3,,,,,,,,,2,,,,70,101
119168,note_on,60,0,13,,,,,,,,,12,,,,54,97
119169,note_on,0,0,4,,,,,,,,,3,,,,64,100
119169,note_on,10,0,4,,,,,,,,,3,,,,66,100
119172,note_on,240,0,14,,,,,,,,,13,,,,54,112
119174,note_on,240,0,15,,,,,,,,,14,,,,42,112
119223,note_on,60,0,12,,,,,,,,,11,,,,64,0
119228,note_on,60,0,13,,,,,,,,,12,,,,54,0
119280,set_tempo,120,1,0,,,,,,263158,,,,,,,,
119283,note_on,60,0,12,,,,,,,,,11,,,,64,97
119288,note_on,60,0,13,,,,,,,,,12,,,,54,97
119292,note_on,120,0,14,,,,,,,,,13,,,,54,0
119294,note_on,120,0,15,,,,,,,,,14,,,,42,0
119343,note_on,60,0,12,,,,,,,,,11,,,,64,0
119348,note_on,60,0,13,,,,,,,,,12,,,,54,0
119400,set_tempo,120,1,0,,,,,,288462,,,,,,,,
119403,note_on,60,0,12,,,,,,,,,11,,,,66,109
119408,note_on,60,0,13,,,,,,,,,12,,,,64,109
119463,note_on,60,0,12,,,,,,,,,11,,,,66,0
119468,note_on,60,0,13,,,,,,,,,12,,,,64,0
119515,note_on,350,0,3,,,,,,,,,2,,,,70,0
119519,note_on,350,0,4,,,,,,,,,3,,,,64,0
119519,note_on,0,0,4,,,,,,,,,3,,,,66,0
119520,set_tempo,120,1,0,,,,,,254237,,,,,,,,
119521,note_on,0,0,1,,,,,,,,,0,,,,75,101
119521,note_on,0,0,1,,,,,,,,,0,,,,83,101
119521,note_on,0,0,1,,,,,,,,,0,,,,73,0
119521,note_on,360,0,1,,,,,,,,,0,,,,82,0
119523,note_on,60,0,12,,,,,,,,,11,,,,63,97
119525,note_on,10,0,3,,,,,,,,,2,,,,71,101
119528,note_on,60,0,13,,,,,,,,,12,,,,54,97
119529,note_on,10,0,4,,,,,,,,,3,,,,66,100
119529,note_on,0,0,4,,,,,,,,,3,,,,63,100
119532,note_on,240,0,14,,,,,,,,,13,,,,54,112
119534,note_on,240,0,15,,,,,,,,,14,,,,42,112
119583,note_on,60,0,12,,,,,,,,,11,,,,63,0
119588,note_on,60,0,13,,,,,,,,,12,,,,54,0
119640,set_tempo,120,1,0,,,,,,263158,,,,,,,,
119641,note_on,0,0,1,,,,,,,,,0,,,,82,101
119641,note_on,120,0,1,,,,,,,,,0,,,,83,0
119643,note_on,60,0,12,,,,,,,,,11,,,,63,97
119648,note_on,60,0,13,,,,,,,,,12,,,,54,97
119652,note_on,120,0,14,,,,,,,,,13,,,,54,0
119654,note_on,120,0,15,,,,,,,,,14,,,,42,0
119703,note_on,60,0,12,,,,,,,,,11,,,,63,0
119708,note_on,60,0,13,,,,,,,,,12,,,,54,0
119760,set_tempo,120,1,0,,,,,,288462,,,,,,,,
119761,note_on,0,0,1,,,,,,,,,0,,,,80,101
119761,note_on,120,0,1,,,,,,,,,0,,,,82,0
119763,note_on,60,0,12,,,,,,,,,11,,,,66,109
119768,note_on,60,0,13,,,,,,,,,12,,,,63,109
119823,note_on,60,0,12,,,,,,,,,11,,,,66,0
119828,note_on,60,0,13,,,,,,,,,12,,,,63,0
119875,note_on,350,0,3,,,,,,,,,2,,,,71,0
119879,note_on,0,0,4,,,,,,,,,3,,,,66,0
119879,note_on,350,0,4,,,,,,,,,3,,,,63,0
119880,set_tempo,120,1,0,,,,,,254237,,,,,,,,
119881,note_on,0,0,1,,,,,,,,,0,,,,78,101
119881,note_on,0,0,1,,,,,,,,,0,,,,75,0
119881,note_on,120,0,1,,,,,,,,,0,,,,80,0
119881,note_on,0,0,1,,,,,,,,,0,,,,73,101
119883,note_on,60,0,12,,,,,,,,,11,,,,64,97
119885,note_on,10,0,3,,,,,,,,,2,,,,70,101
119888,note_on,60,0,13,,,,,,,,,12,,,,54,97
119889,note_on,0,0,4,,,,,,,,,3,,,,64,100
119889,note_on,10,0,4,,,,,,,,,3,,,,66,100
119892,note_on,240,0,14,,,,,,,,,13,,,,54,112
119894,note_on,240,0,15,,,,,,,,,14,,,,42,112
119943,note_on,60,0,12,,,,,,,,,11,,,,64,0
119948,note_on,60,0,13,,,,,,,,,12,,,,54,0
120000,set_tempo,120,1,0,,,,,,263158,,,,,,,,
120001,note_on,120,0,1,,,,,,,,,0,,,,78,0
120001,note_on,0,0,1,,,,,,,,,0,,,,76,101
120003,note_on,60,0,12,,,,,,,,,11,,,,64,97
120008,note_on,60,0,13,,,,,,,,,12,,,,54,97
120012,note_on,120,0,14,,,,,,,,,13,,,,54,0
120014,note_on,120,0,15,,,,,,,,,14,,,,42,0
120063,note_on,60,0,12,,,,,,,,,11,,,,64,0
120068,note_on,60,0,13,,,,,,,,,12,,,,54,0
120120,set_tempo,120,1,0,,,,,,288462,,,,,,,,
120121,note_on,120,0,1,,,,,,,,,0,,,,76,0
120121,note_on,0,0,1,,,,,,,,,0,,,,73,101
120123,note_on,60,0,12,,,,,,,,,11,,,,66,109
120128,note_on,60,0,13,,,,,,,,,12,,,,64,109
120183,note_on,60,0,12,,,,,,,,,11,,,,66,0
120188,note_on,60,0,13,,,,,,,,,12,,,,64,0
120235,note_on,350,0,3,,,,,,,,,2,,,,70,0
120239,note_on,350,0,4,,,,,,,,,3,,,,64,0
120239,note_on,0,0,4,,,,,,,,,3,,,,66,0
120240,set_tempo,120,1,0,,,,,,254237,,,,,,,,
120241,note_on,0,0,1,,,,,,,,,0,,,,78,101
120241,note_on,120,0,1,,,,,,,,,0,,,,73,0
120241,note_on,0,0,1,,,,,,,,,0,,,,73,0
120241,note_on,0,0,1,,,,,,,,,0,,,,75,101
120243,note_on,60,0,12,,,,,,,,,11,,,,63,97
120245,note_on,10,0,3,,,,,,,,,2,,,,71,101
120248,note_on,60,0,13,,,,,,,,,12,,,,54,97
120249,note_on,0,0,4,,,,,,,,,3,,,,63,100
120249,note_on,10,0,4,,,,,,,,,3,,,,66,100
120252,note_on,240,0,14,,,,,,,,,13,,,,54,112
120254,note_on,240,0,15,,,,,,,,,14,,,,42,112
120303,note_on,60,0,12,,,,,,,,,11,,,,63,0
120308,note_on,60,0,13,,,,,,,,,12,,,,54,0
120360,set_tempo,120,1,0,,,,,,263158,,,,,,,,
120363,note_on,60,0,12,,,,,,,,,11,,,,63,97
120368,note_on,60,0,13,,,,,,,,,12,,,,54,97
120372,note_on,120,0,14,,,,,,,,,13,,,,54,0
120374,note_on,120,0,15,,,,,,,,,14,,,,42,0
120423,note_on,60,0,12,,,,,,,,,11,,,,63,0
120428,note_on,60,0,13,,,,,,,,,12,,,,54,0
120480,set_tempo,120,1,0,,,,,,315789,,,,,,,,
120481,note_on,240,0,1,,,,,,,,,0,,,,78,0
120481,note_on,0,0,1,,,,,,,,,0,,,,75,101
120483,note_on,60,0,12,,,,,,,,,11,,,,66,109
120488,note_on,60,0,13,,,,,,,,,12,,,,63,109
120543,note_on,60,0,12,,,,,,,,,11,,,,66,0
120548,note_on,60,0,13,,,,,,,,,12,,,,63,0
120595,note_on,350,0,3,,,,,,,,,2,,,,71,0
120599,note_on,350,0,4,,,,,,,,,3,,,,63,0
120599,note_on,0,0,4,,,,,,,,,3,,,,66,0
120600,note_on,0,0,11,,,,,,,,,10,,,,83,112
120600,control_change,4020,0,11,,,,,,,,,10,11,41,,,
120600,set_tempo,120,1,0,,,,,,254237,,,,,,,,
120601,note_on,120,0,1,,,,,,,,,0,,,,75,0
120601,note_on,0,0,1,,,,,,,,,0,,,,75,0
120603,note_on,60,0,12,,,,,,,,,11,,,,62,112
120603,control_change,0,0,12,,,,,,,,,11,11,41,,,
120603,control_change,3630,0,5,,,,,,,,,4,11,37,,,
120604,control_change,11280,0,6,,,,,,,,,5,11,37,,,
120604,note_on,0,0,2,,,,,,,,,1,,,,83,100
120604,control_change,2880,0,2,,,,,,,,,1,11,37,,,
120605,note_on,10,0,3,,,,,,,,,2,,,,71,101
120605,control_change,0,0,3,,,,,,,,,2,11,32,,,
120605,note_on,0,0,3,,,,,,,,,2,,,,74,101
120608,note_on,0,0,13,,,,,,,,,12,,,,59,112
120608,control_change,60,0,13,,,,,,,,,12,11,41,,,
120609,note_on,0,0,4,,,,,,,,,3,,,,53,100
120609,note_on,0,0,4,,,,,,,,,3,,,,55,100
120609,control_change,10,0,4,,,,,,,,,3,11,32,,,
120612,note_on,0,0,14,,,,,,,,,13,,,,53,112
120612,control_change,240,0,14,,,,,,,,,13,11,41,,,
120614,note_on,0,0,15,,,,,,,,,14,,,,41,112
120614,control_change,240,0,15,,,,,,,,,14,11,41,,,
120627,control_change,27,0,11,,,,,,,,,10,11,42,,,
120640,control_change,36,0,2,,,,,,,,,1,11,38,,,
120647,control_change,44,0,5,,,,,,,,,4,11,38,,,
120647,control_change,42,0,3,,,,,,,,,2,11,33,,,
120647,control_change,44,0,12,,,,,,,,,11,11,42,,,
120648,control_change,44,0,6,,,,,,,,,5,11,38,,,
120651,control_change,42,0,4,,,,,,,,,3,11,33,,,
120652,control_change,44,0,13,,,,,,,,,12,11,42,,,
120655,control_change,28,0,11,,,,,,,,,10,11,42,,,
120656,control_change,44,0,14,,,,,,,,,13,11,42,,,
120658,control_change,44,0,15,,,,,,,,,14,11,42,,,
120663,note_on,16,0,12,,,,,,,,,11,,,,62,0
120668,note_on,16,0,13,,,,,,,,,12,,,,59,0
120676,control_change,36,0,2,,,,,,,,,1,11,39,,,
120683,control_change,28,0,11,,,,,,,,,10,11,43,,,
120689,control_change,42,0,3,,,,,,,,,2,11,34,,,
120691,control_change,44,0,5,,,,,,,,,4,11,39,,,
120691,control_change,28,0,12,,,,,,,,,11,11,42,,,
120692,control_change,44,0,6,,,,,,,,,5,11,39,,,
120693,control_change,42,0,4,,,,,,,,,3,11,34,,,
120696,control_change,28,0,13,,,,,,,,,12,11,42,,,
120700,control_change,44,0,14,,,,,,,,,13,11,42,,,
120702,control_change,44,0,15,,,,,,,,,14,11,42,,,
120710,control_change,27,0,11,,,,,,,,,10,11,44,,,
120712,control_change,36,0,2,,,,,,,,,1,11,40,,,
120720,set_tempo,120,1,0,,,,,,263158,,,,,,,,
120723,note_on,32,0,12,,,,,,,,,11,,,,62,112
120728,note_on,32,0,13,,,,,,,,,12,,,,59,112
120729,note_on,36,0,4,,,,,,,,,3,,,,53,0
120729,note_on,0,0,4,,,,,,,,,3,,,,55,0
120729,note_on,0,0,4,,,,,,,,,3,,,,55,100
120729,note_on,0,0,4,,,,,,,,,3,,,,53,100
120732,note_on,32,0,14,,,,,,,,,13,,,,53,0
120732,control_change,43,0,3,,,,,,,,,2,11,35,,,
120734,note_on,32,0,15,,,,,,,,,14,,,,41,0
120735,control_change,12,0,12,,,,,,,,,11,11,43,,,
120735,control_change,44,0,5,,,,,,,,,4,11,40,,,
120736,control_change,44,0,6,,,,,,,,,5,11,40,,,
120736,control_change,7,0,4,,,,,,,,,3,11,35,,,
120738,control_change,28,0,11,,,,,,,,,10,11,45,,,
120740,control_change,12,0,13,,,,,,,,,12,11,43,,,
120744,control_change,12,0,14,,,,,,,,,13,11,43,,,
120746,control_change,12,0,15,,,,,,,,,14,11,43,,,
120748,control_change,36,0,2,,,,,,,,,1,11,41,,,
120766,control_change,28,0,11,,,,,,,,,10,11,46,,,
120774,control_change,42,0,3,,,,,,,,,2,11,36,,,
120778,control_change,42,0,4,,,,,,,,,3,11,36,,,
120780,control_change,45,0,5,,,,,,,,,4,11,41,,,
120780,control_change,45,0,12,,,,,,,,,11,11,44,,,
120781,control_change,45,0,6,,,,,,,,,5,11,41,,,
120783,note_on,3,0,12,,,,,,,,,11,,,,62,0
120784,control_change,36,0,2,,,,,,,,,1,11,42,,,
120785,control_change,45,0,13,,,,,,,,,12,11,44,,,
120788,note_on,3,0,13,,,,,,,,,12,,,,59,0
120789,control_change,45,0,14,,,,,,,,,13,11,44,,,
120791,control_change,45,0,15,,,,,,,,,14,11,44,,,
120793,control_change,27,0,11,,,,,,,,,10,11,47,,,
120817,control_change,43,0,3,,,,,,,,,2,11,37,,,
120820,control_change,36,0,2,,,,,,,,,1,11,43,,,
120821,control_change,43,0,4,,,,,,,,,3,11,37,,,
120821,control_change,28,0,11,,,,,,,,,10,11,48,,,
120824,control_change,44,0,5,,,,,,,,,4,11,42,,,
120824,control_change,41,0,12,,,,,,,,,11,11,45,,,
120825,control_change,44,0,6,,,,,,,,,5,11,42,,,
120829,control_change,41,0,13,,,,,,,,,12,11,45,,,
120833,control_change,44,0,14,,,,,,,,,13,11,45,,,
120835,control_change,44,0,15,,,,,,,,,14,11,45,,,
120840,set_tempo,120,1,0,,,,,,288462,,,,,,,,
120843,note_on,19,0,12,,,,,,,,,11,,,,67,127
120848,note_on,19,0,13,,,,,,,,,12,,,,62,127
120849,note_on,0,0,4,,,,,,,,,3,,,,53,0
120849,note_on,0,0,4,,,,,,,,,3,,,,55,100
120849,note_on,0,0,4,,,,,,,,,3,,,,62,100
120849,note_on,28,0,4,,,,,,,,,3,,,,55,0
120849,control_change,28,0,11,,,,,,,,,10,11,49,,,
120856,control_change,36,0,2,,,,,,,,,1,11,44,,,
120859,control_change,42,0,3,,,,,,,,,2,11,38,,,
120863,control_change,14,0,4,,,,,,,,,3,11,38,,,
120868,control_change,25,0,12,,,,,,,,,11,11,46,,,
120868,control_change,44,0,5,,,,,,,,,4,11,43,,,
120869,control_change,44,0,6,,,,,,,,,5,11,43,,,
120873,control_change,25,0,13,,,,,,,,,12,11,46,,,
120876,control_change,27,0,11,,,,,,,,,10,11,50,,,
120877,control_change,44,0,14,,,,,,,,,13,11,46,,,
120879,control_change,44,0,15,,,,,,,,,14,11,46,,,
120892,control_change,36,0,2,,,,,,,,,1,11,45,,,
120902,control_change,43,0,3,,,,,,,,,2,11,39,,,
120903,note_on,35,0,12,,,,,,,,,11,,,,67,0
120904,control_change,28,0,11,,,,,,,,,10,11,51,,,
120906,control_change,43,0,4,,,,,,,,,3,11,39,,,
120908,note_on,35,0,13,,,,,,,,,12,,,,62,0
120913,control_change,10,0,12,,,,,,,,,11,11,47,,,
120913,control_change,45,0,5,,,,,,,,,4,11,44,,,
120914,control_change,45,0,6,,,,,,,,,5,11,44,,,
120918,control_change,10,0,13,,,,,,,,,12,11,47,,,
120922,control_change,45,0,14,,,,,,,,,13,11,47,,,
120924,control_change,45,0,15,,,,,,,,,14,11,47,,,
120928,control_change,36,0,2,,,,,,,,,1,11,46,,,
120932,control_change,28,0,11,,,,,,,,,10,11,52,,,
120944,control_change,42,0,3,,,,,,,,,2,11,40,,,
120948,control_change,42,0,4,,,,,,,,,3,11,40,,,
120955,note_on,0,0,3,,,,,,,,,2,,,,71,0
120955,note_on,11,0,3,,,,,,,,,2,,,,74,0
120957,control_change,44,0,5,,,,,,,,,4,11,45,,,
120957,control_change,44,0,12,,,,,,,,,11,11,48,,,
120958,control_change,44,0,6,,,,,,,,,5,11,45,,,
120960,note_on,28,0,11,,,,,,,,,10,,,,83,0
120960,control_change,0,0,11,,,,,,,,,10,11,53,,,
120960,note_on,0,0,11,,,,,,,,,10,,,,84,112
120960,set_tempo,120,1,0,,,,,,254237,,,,,,,,
120962,control_change,44,0,13,,,,,,,,,12,11,48,,,
120963,note_on,6,0,12,,,,,,,,,11,,,,64,112
120964,control_change,0,0,2,,,,,,,,,1,11,47,,,
120964,note_on,36,0,2,,,,,,,,,1,,,,83,0
120964,note_on,0,0,2,,,,,,,,,1,,,,84,100
120965,note_on,10,0,3,,,,,,,,,2,,,,72,101
120965,note_on,0,0,3,,,,,,,,,2,,,,76,101
120966,control_change,44,0,14,,,,,,,,,13,11,48,,,
120968,control_change,44,0,15,,,,,,,,,14,11,48,,,
120968,note_on,6,0,13,,,,,,,,,12,,,,60,112
120969,note_on,0,0,4,,,,,,,,,3,,,,55,100
120969,note_on,0,0,4,,,,,,,,,3,,,,52,100
120969,note_on,0,0,4,,,,,,,,,3,,,,55,0
120969,note_on,21,0,4,,,,,,,,,3,,,,62,0
120972,note_on,6,0,14,,,,,,,,,13,,,,52,112
120974,note_on,6,0,15,,,,,,,,,14,,,,40,112
120987,control_change,22,0,3,,,,,,,,,2,11,41,,,
120991,control_change,27,0,2,,,,,,,,,1,11,48,,,
120991,control_change,22,0,4,,,,,,,,,3,11,41,,,
120995,control_change,35,0,11,,,,,,,,,10,11,54,,,
121001,control_change,38,0,12,,,,,,,,,11,11,49,,,
121001,control_change,44,0,5,,,,,,,,,4,11,46,,,
121002,control_change,44,0,6,,,,,,,,,5,11,46,,,
121006,control_change,38,0,13,,,,,,,,,12,11,49,,,
121010,control_change,38,0,14,,,,,,,,,13,11,49,,,
121012,control_change,38,0,15,,,,,,,,,14,11,49,,,
121019,control_change,28,0,2,,,,,,,,,1,11,49,,,
121023,note_on,22,0,12,,,,,,,,,11,,,,64,0
121028,note_on,22,0,13,,,,,,,,,12,,,,60,0
121029,control_change,42,0,3,,,,,,,,,2,11,42,,,
121031,control_change,36,0,11,,,,,,,,,10,11,55,,,
121033,control_change,42,0,4,,,,,,,,,3,11,42,,,
121045,control_change,22,0,12,,,,,,,,,11,11,50,,,
121045,control_change,44,0,5,,,,,,,,,4,11,47,,,
121046,control_change,27,0,2,,,,,,,,,1,11,50,,,
121046,control_change,44,0,6,,,,,,,,,5,11,47,,,
121050,control_change,22,0,13,,,,,,,,,12,11,50,,,
121054,control_change,44,0,14,,,,,,,,,13,11,50,,,
121056,control_change,44,0,15,,,,,,,,,14,11,50,,,
121067,control_change,36,0,11,,,,,,,,,10,11,56,,,
121072,control_change,43,0,3,,,,,,,,,2,11,43,,,
121074,control_change,28,0,2,,,,,,,,,1,11,51,,,
121076,control_change,43,0,4,,,,,,,,,3,11,43,,,
121080,note_on,13,0,11,,,,,,,,,10,,,,84,0
121080,note_on,0,0,11,,,,,,,,,10,,,,83,112
121080,set_tempo,120,1,0,,,,,,263158,,,,,,,,
121083,note_on,38,0,12,,,,,,,,,11,,,,64,112
121084,note_on,0,0,2,,,,,,,,,1,,,,83,100
121084,note_on,10,0,2,,,,,,,,,1,,,,84,0
121088,note_on,38,0,13,,,,,,,,,12,,,,60,112
121089,note_on,13,0,4,,,,,,,,,3,,,,55,0
121089,note_on,0,0,4,,,,,,,,,3,,,,52,0
121089,note_on,0,0,4,,,,,,,,,3,,,,55,100
121089,note_on,0,0,4,,,,,,,,,3,,,,52,100
121090,control_change,45,0,5,,,,,,,,,4,11,48,,,
121090,control_change,7,0,12,,,,,,,,,11,11,51,,,
121091,control_change,45,0,6,,,,,,,,,5,11,48,,,
121092,note_on,38,0,14,,,,,,,,,13,,,,52,0
121094,note_on,38,0,15,,,,,,,,,14,,,,40,0
121095,control_change,7,0,13,,,,,,,,,12,11,51,,,
121099,control_change,7,0,14,,,,,,,,,13,11,51,,,
121101,control_change,7,0,15,,,,,,,,,14,11,51,,,
121102,control_change,18,0,2,,,,,,,,,1,11,52,,,
121103,control_change,23,0,11,,,,,,,,,10,11,57,,,
121114,control_change,42,0,3,,,,,,,,,2,11,44,,,
121118,control_change,29,0,4,,,,,,,,,3,11,44,,,
121129,control_change,27,0,2,,,,,,,,,1,11,52,,,
121134,control_change,44,0,12,,,,,,,,,11,11,52,,,
121134,control_change,44,0,5,,,,,,,,,4,11,49,,,
121135,control_change,44,0,6,,,,,,,,,5,11,49,,,
121139,control_change,36,0,11,,,,,,,,,10,11,57,,,
121139,control_change,44,0,13,,,,,,,,,12,11,52,,,
121143,control_change,44,0,14,,,,,,,,,13,11,52,,,
121143,note_on,9,0,12,,,,,,,,,11,,,,64,0
121145,control_change,44,0,15,,,,,,,,,14,11,52,,,
121148,note_on,9,0,13,,,,,,,,,12,,,,60,0
121157,control_change,28,0,2,,,,,,,,,1,11,53,,,
121157,control_change,43,0,3,,,,,,,,,2,11,45,,,
121161,control_change,43,0,4,,,,,,,,,3,11,45,,,
121175,control_change,36,0,11,,,,,,,,,10,11,58,,,
121178,control_change,44,0,5,,,,,,,,,4,11,50,,,
121178,control_change,35,0,12,,,,,,,,,11,11,53,,,
121179,control_change,44,0,6,,,,,,,,,5,11,50,,,
121183,control_change,35,0,13,,,,,,,,,12,11,53,,,
121184,control_change,27,0,2,,,,,,,,,1,11,54,,,
121187,control_change,44,0,14,,,,,,,,,13,11,53,,,
121189,control_change,44,0,15,,,,,,,,,14,11,53,,,
121199,control_change,42,0,3,,,,,,,,,2,11,46,,,
121200,note_on,0,0,11,,,,,,,,,10,,,,81,112
121200,note_on,25,0,11,,,,,,,,,10,,,,83,0
121200,set_tempo,120,1,0,,,,,,288462,,,,,,,,
121203,note_on,25,0,12,,,,,,,,,11,,,,67,127
121203,control_change,42,0,4,,,,,,,,,3,11,46,,,
121204,note_on,20,0,2,,,,,,,,,1,,,,83,0
121204,note_on,0,0,2,,,,,,,,,1,,,,81,100
121208,note_on,25,0,13,,,,,,,,,12,,,,64,127
121209,note_on,0,0,4,,,,,,,,,3,,,,52,0
121209,note_on,6,0,4,,,,,,,,,3,,,,55,0
121209,note_on,0,0,4,,,,,,,,,3,,,,55,100
121209,note_on,0,0,4,,,,,,,,,3,,,,60,100
121211,control_change,11,0,11,,,,,,,,,10,11,59,,,
121212,control_change,8,0,2,,,,,,,,,1,11,55,,,
121223,control_change,20,0,12,,,,,,,,,11,11,54,,,
121223,control_change,45,0,5,,,,,,,,,4,11,51,,,
121224,control_change,45,0,6,,,,,,,,,5,11,51,,,
121228,control_change,20,0,13,,,,,,,,,12,11,54,,,
121232,control_change,45,0,14,,,,,,,,,13,11,54,,,
121234,control_change,45,0,15,,,,,,,,,14,11,54,,,
121240,control_change,28,0,2,,,,,,,,,1,11,55,,,
121241,control_change,42,0,3,,,,,,,,,2,11,47,,,
121245,control_change,36,0,4,,,,,,,,,3,11,47,,,
121247,control_change,36,0,11,,,,,,,,,10,11,60,,,
121263,note_on,40,0,12,,,,,,,,,11,,,,67,0
121267,control_change,27,0,2,,,,,,,,,1,11,56,,,
121267,control_change,4,0,12,,,,,,,,,11,11,55,,,
121267,control_change,44,0,5,,,,,,,,,4,11,52,,,
121268,note_on,40,0,13,,,,,,,,,12,,,,64,0
121268,control_change,44,0,6,,,,,,,,,5,11,52,,,
121272,control_change,4,0,13,,,,,,,,,12,11,55,,,
121276,control_change,44,0,14,,,,,,,,,13,11,55,,,
121278,control_change,44,0,15,,,,,,,,,14,11,55,,,
121283,control_change,36,0,11,,,,,,,,,10,11,61,,,
121284,control_change,43,0,3,,,,,,,,,2,11,48,,,
121288,control_change,43,0,4,,,,,,,,,3,11,48,,,
121295,control_change,28,0,2,,,,,,,,,1,11,57,,,
121311,control_change,44,0,5,,,,,,,,,4,11,53,,,
121311,control_change,44,0,12,,,,,,,,,11,11,56,,,
121312,control_change,44,0,6,,,,,,,,,5,11,53,,,
121315,note_on,0,0,3,,,,,,,,,2,,,,72,0
121315,note_on,32,0,11,,,,,,,,,10,,,,81,0
121315,note_on,31,0,3,,,,,,,,,2,,,,76,0
121316,control_change,44,0,13,,,,,,,,,12,11,56,,,
121319,control_change,4,0,11,,,,,,,,,10,11,62,,,
121320,set_tempo,120,1,0,,,,,,254237,,,,,,,,
121320,note_on,1,0,11,,,,,,,,,10,,,,79,112
121320,control_change,44,0,14,,,,,,,,,13,11,56,,,
121322,control_change,44,0,15,,,,,,,,,14,11,56,,,
121323,control_change,28,0,2,,,,,,,,,1,11,58,,,
121323,note_on,12,0,5,,,,,,,,,4,,,,62,100
121323,note_on,12,0,12,,,,,,,,,11,,,,65,112
121324,note_on,12,0,6,,,,,,,,,5,,,,55,100
121324,note_on,0,0,2,,,,,,,,,1,,,,79,100
121324,note_on,1,0,2,,,,,,,,,1,,,,81,0
121325,note_on,0,0,3,,,,,,,,,2,,,,71,101
121325,note_on,10,0,3,,,,,,,,,2,,,,74,101
121326,control_change,1,0,3,,,,,,,,,2,11,49,,,
121328,note_on,12,0,13,,,,,,,,,12,,,,55,112
121329,note_on,41,0,4,,,,,,,,,3,,,,60,0
121329,note_on,0,0,4,,,,,,,,,3,,,,62,100
121329,note_on,0,0,4,,,,,,,,,3,,,,59,100
121329,note_on,0,0,4,,,,,,,,,3,,,,55,0
121330,control_change,1,0,4,,,,,,,,,3,11,49,,,
121332,note_on,12,0,14,,,,,,,,,13,,,,55,112
121334,note_on,12,0,15,,,,,,,,,14,,,,43,112
121355,control_change,32,0,5,,,,,,,,,4,11,54,,,
121355,control_change,32,0,12,,,,,,,,,11,11,57,,,
121356,control_change,32,0,6,,,,,,,,,5,11,54,,,
121360,control_change,32,0,13,,,,,,,,,12,11,57,,,
121364,control_change,32,0,14,,,,,,,,,13,11,57,,,
121366,control_change,32,0,15,,,,,,,,,14,11,57,,,
121369,control_change,43,0,3,,,,,,,,,2,11,50,,,
121373,control_change,43,0,4,,,,,,,,,3,11,50,,,
121376,control_change,52,0,2,,,,,,,,,1,11,58,,,
121383,note_on,28,0,12,,,,,,,,,11,,,,65,0
121385,control_change,65,0,11,,,,,,,,,10,11,64,,,
121388,note_on,28,0,13,,,,,,,,,12,,,,55,0
121400,control_change,45,0,5,,,,,,,,,4,11,55,,,
121400,control_change,17,0,12,,,,,,,,,11,11,57,,,
121401,control_change,45,0,6,,,,,,,,,5,11,55,,,
121405,control_change,17,0,13,,,,,,,,,12,11,57,,,
121409,control_change,45,0,14,,,,,,,,,13,11,57,,,
121411,control_change,45,0,15,,,,,,,,,14,11,57,,,
121411,control_change,42,0,3,,,,,,,,,2,11,51,,,
121415,control_change,42,0,4,,,,,,,,,3,11,51,,,
121432,control_change,56,0,2,,,,,,,,,1,11,59,,,
121437,control_change,52,0,11,,,,,,,,,10,11,65,,,
121440,note_on,3,0,11,,,,,,,,,10,,,,79,0
121440,set_tempo,120,1,0,,,,,,263158,,,,,,,,
121440,note_on,0,0,11,,,,,,,,,10,,,,77,112
121443,note_on,43,0,12,,,,,,,,,11,,,,65,112
121444,note_on,0,0,2,,,,,,,,,1,,,,77,100
121444,control_change,1,0,12,,,,,,,,,11,11,58,,,
121444,control_change,44,0,5,,,,,,,,,4,11,56,,,
121444,note_on,12,0,2,,,,,,,,,1,,,,79,0
121445,control_change,44,0,6,,,,,,,,,5,11,56,,,
121448,note_on,43,0,13,,,,,,,,,12,,,,55,112
121449,note_on,0,0,4,,,,,,,,,3,,,,62,100
121449,note_on,34,0,4,,,,,,,,,3,,,,62,0
121449,note_on,0,0,4,,,,,,,,,3,,,,59,0
121449,note_on,0,0,4,,,,,,,,,3,,,,59,100
121449,control_change,1,0,13,,,,,,,,,12,11,58,,,
121452,note_on,43,0,14,,,,,,,,,13,,,,55,0
121453,control_change,1,0,14,,,,,,,,,13,11,58,,,
121454,control_change,43,0,3,,,,,,,,,2,11,52,,,
121454,note_on,43,0,15,,,,,,,,,14,,,,43,0
121455,control_change,1,0,15,,,,,,,,,14,11,58,,,
121458,control_change,9,0,4,,,,,,,,,3,11,52,,,
121487,control_change,43,0,2,,,,,,,,,1,11,60,,,
121488,control_change,44,0,5,,,,,,,,,4,11,57,,,
121488,control_change,44,0,12,,,,,,,,,11,11,59,,,
121489,control_change,49,0,11,,,,,,,,,10,11,66,,,
121489,control_change,44,0,6,,,,,,,,,5,11,57,,,
121493,control_change,44,0,13,,,,,,,,,12,11,59,,,
121496,control_change,42,0,3,,,,,,,,,2,11,52,,,
121497,control_change,44,0,14,,,,,,,,,13,11,59,,,
121499,control_change,44,0,15,,,,,,,,,14,11,59,,,
121500,control_change,42,0,4,,,,,,,,,3,11,53,,,
121503,note_on,15,0,12,,,,,,,,,11,,,,65,0
121508,note_on,15,0,13,,,,,,,,,12,,,,55,0
121533,control_change,30,0,12,,,,,,,,,11,11,60,,,
121533,control_change,45,0,5,,,,,,,,,4,11,58,,,
121534,control_change,45,0,6,,,,,,,,,5,11,58,,,
121538,control_change,30,0,13,,,,,,,,,12,11,60,,,
121539,control_change,43,0,3,,,,,,,,,2,11,53,,,
121542,control_change,55,0,2,,,,,,,,,1,11,61,,,
121542,control_change,45,0,14,,,,,,,,,13,11,60,,,
121542,control_change,53,0,11,,,,,,,,,10,11,67,,,
121543,control_change,43,0,4,,,,,,,,,3,11,54,,,
121544,control_change,45,0,15,,,,,,,,,14,11,60,,,
121560,note_on,18,0,11,,,,,,,,,10,,,,77,0
121560,note_on,0,0,11,,,,,,,,,10,,,,74,112
121560,set_tempo,120,1,0,,,,,,288462,,,,,,,,
121563,note_on,30,0,12,,,,,,,,,11,,,,67,127
121564,note_on,0,0,2,,,,,,,,,1,,,,74,100
121564,note_on,22,0,2,,,,,,,,,1,,,,77,0
121568,note_on,30,0,13,,,,,,,,,12,,,,65,127
121569,note_on,0,0,4,,,,,,,,,3,,,,59,0
121569,note_on,0,0,4,,,,,,,,,3,,,,55,100
121569,note_on,26,0,4,,,,,,,,,3,,,,62,0
121577,control_change,44,0,5,,,,,,,,,4,11,59,,,
121577,control_change,14,0,12,,,,,,,,,11,11,61,,,
121578,control_change,44,0,6,,,,,,,,,5,11,59,,,
121581,control_change,42,0,3,,,,,,,,,2,11,54,,,
121582,control_change,14,0,13,,,,,,,,,12,11,61,,,
121585,control_change,16,0,4,,,,,,,,,3,11,55,,,
121586,control_change,44,0,14,,,,,,,,,13,11,61,,,
121588,control_change,44,0,15,,,,,,,,,14,11,61,,,
121594,control_change,34,0,11,,,,,,,,,10,11,68,,,
121597,control_change,33,0,2,,,,,,,,,1,11,61,,,
121621,control_change,44,0,5,,,,,,,,,4,11,60,,,
121621,control_change,44,0,12,,,,,,,,,11,11,62,,,
121622,control_change,44,0,6,,,,,,,,,5,11,60,,,
121623,note_on,2,0,12,,,,,,,,,11,,,,67,0
121624,control_change,43,0,3,,,,,,,,,2,11,55,,,
121626,control_change,44,0,13,,,,,,,,,12,11,62,,,
121628,control_change,43,0,4,,,,,,,,,3,11,56,,,
121628,note_on,2,0,13,,,,,,,,,12,,,,65,0
121630,control_change,44,0,14,,,,,,,,,13,11,62,,,
121632,control_change,44,0,15,,,,,,,,,14,11,62,,,
121646,control_change,52,0,11,,,,,,,,,10,11,69,,,
121652,control_change,55,0,2,,,,,,,,,1,11,62,,,
121666,control_change,42,0,3,,,,,,,,,2,11,55,,,
121666,control_change,45,0,5,,,,,,,,,4,11,61,,,
121666,control_change,43,0,12,,,,,,,,,11,11,63,,,
121667,control_change,45,0,6,,,,,,,,,5,11,61,,,
121670,control_change,42,0,4,,,,,,,,,3,11,57,,,
121671,control_change,43,0,13,,,,,,,,,12,11,63,,,
121675,control_change,45,0,14,,,,,,,,,13,11,63,,,
121675,note_on,9,0,3,,,,,,,,,2,,,,71,0
121675,note_on,29,0,11,,,,,,,,,10,,,,74,0
121675,note_on,0,0,3,,,,,,,,,2,,,,74,0
121677,control_change,45,0,15,,,,,,,,,14,11,63,,,
121680,set_tempo,120,1,0,,,,,,254237,,,,,,,,
121680,note_on,5,0,11,,,,,,,,,10,,,,79,112
121683,note_on,17,0,5,,,,,,,,,4,,,,62,0
121683,note_on,17,0,12,,,,,,,,,11,,,,64,112
121683,note_on,0,0,5,,,,,,,,,4,,,,64,100
121684,note_on,17,0,6,,,,,,,,,5,,,,55,0
121684,note_on,0,0,2,,,,,,,,,1,,,,79,100
121684,note_on,32,0,2,,,,,,,,,1,,,,74,0
121684,note_on,0,0,6,,,,,,,,,5,,,,60,100
121685,note_on,0,0,3,,,,,,,,,2,,,,72,101
121685,note_on,10,0,3,,,,,,,,,2,,,,76,101
121688,note_on,17,0,13,,,,,,,,,12,,,,55,112
121689,note_on,19,0,4,,,,,,,,,3,,,,55,0
121689,note_on,0,0,4,,,,,,,,,3,,,,60,100
121689,note_on,0,0,4,,,,,,,,,3,,,,64,100
121692,note_on,17,0,14,,,,,,,,,13,,,,48,112
121694,note_on,17,0,15,,,,,,,,,14,,,,36,112
121699,control_change,19,0,11,,,,,,,,,10,11,70,,,
121708,control_change,24,0,2,,,,,,,,,1,11,63,,,
121709,control_change,24,0,3,,,,,,,,,2,11,56,,,
121710,control_change,27,0,5,,,,,,,,,4,11,62,,,
121710,control_change,27,0,12,,,,,,,,,11,11,64,,,
121711,control_change,27,0,6,,,,,,,,,5,11,62,,,
121713,control_change,24,0,4,,,,,,,,,3,11,58,,,
121715,control_change,27,0,13,,,,,,,,,12,11,64,,,
121719,control_change,27,0,14,,,,,,,,,13,11,64,,,
121721,control_change,27,0,15,,,,,,,,,14,11,64,,,
121743,note_on,33,0,12,,,,,,,,,11,,,,64,0
121748,note_on,33,0,13,,,,,,,,,12,,,,55,0
121751,control_change,52,0,11,,,,,,,,,10,11,71,,,
121751,control_change,42,0,3,,,,,,,,,2,11,57,,,
121754,control_change,11,0,12,,,,,,,,,11,11,65,,,
121754,control_change,44,0,5,,,,,,,,,4,11,63,,,
121755,control_change,42,0,4,,,,,,,,,3,11,59,,,
121755,control_change,44,0,6,,,,,,,,,5,11,63,,,
121759,control_change,11,0,13,,,,,,,,,12,11,65,,,
121763,control_change,55,0,2,,,,,,,,,1,11,64,,,
121763,control_change,44,0,14,,,,,,,,,13,11,65,,,
121765,control_change,44,0,15,,,,,,,,,14,11,65,,,
121793,control_change,42,0,3,,,,,,,,,2,11,58,,,
121797,control_change,42,0,4,,,,,,,,,3,11,60,,,
121798,control_change,44,0,5,,,,,,,,,4,11,64,,,
121798,control_change,44,0,12,,,,,,,,,11,11,66,,,
121799,control_change,44,0,6,,,,,,,,,5,11,64,,,
121800,set_tempo,120,1,0,,,,,,263158,,,,,,,,
121803,control_change,52,0,11,,,,,,,,,10,11,72,,,
121803,note_on,5,0,12,,,,,,,,,11,,,,64,112
121803,control_change,44,0,13,,,,,,,,,12,11,66,,,
121807,control_change,44,0,14,,,,,,,,,13,11,66,,,
121808,note_on,5,0,13,,,,,,,,,12,,,,55,112
121809,note_on,0,0,4,,,,,,,,,3,,,,60,100
121809,note_on,0,0,4,,,,,,,,,3,,,,64,100
121809,control_change,44,0,15,,,,,,,,,14,11,66,,,
121809,note_on,0,0,4,,,,,,,,,3,,,,60,0
121809,note_on,12,0,4,,,,,,,,,3,,,,64,0
121812,note_on,5,0,14,,,,,,,,,13,,,,48,0
121814,note_on,5,0,15,,,,,,,,,14,,,,36,0
121818,control_change,55,0,2,,,,,,,,,1,11,64,,,
121836,control_change,43,0,3,,,,,,,,,2,11,58,,,
121840,control_change,31,0,4,,,,,,,,,3,11,61,,,
121843,control_change,40,0,12,,,,,,,,,11,11,67,,,
121843,control_change,45,0,5,,,,,,,,,4,11,65,,,
121844,control_change,45,0,6,,,,,,,,,5,11,65,,,
121848,control_change,40,0,13,,,,,,,,,12,11,67,,,
121852,control_change,40,0,14,,,,,,,,,13,11,67,,,
121854,control_change,40,0,15,,,,,,,,,14,11,67,,,
121856,control_change,53,0,11,,,,,,,,,10,11,72,,,
121863,note_on,20,0,12,,,,,,,,,11,,,,64,0
121868,note_on,20,0,13,,,,,,,,,12,,,,55,0
121873,control_change,55,0,2,,,,,,,,,1,11,65,,,
121878,control_change,42,0,3,,,,,,,,,2,11,59,,,
121882,control_change,42,0,4,,,,,,,,,3,11,62,,,
121887,control_change,44,0,5,,,,,,,,,4,11,66,,,
121887,control_change,24,0,12,,,,,,,,,11,11,68,,,
121888,control_change,44,0,6,,,,,,,,,5,11,66,,,
121892,control_change,24,0,13,,,,,,,,,12,11,68,,,
121896,control_change,44,0,14,,,,,,,,,13,11,68,,,
121898,control_change,44,0,15,,,,,,,,,14,11,68,,,
121908,control_change,52,0,11,,,,,,,,,10,11,73,,,
121920,note_on,12,0,11,,,,,,,,,10,,,,79,0
121920,note_on,0,0,11,,,,,,,,,10,,,,76,112
121920,set_tempo,120,1,0,,,,,,288462,,,,,,,,
121921,control_change,43,0,3,,,,,,,,,2,11,60,,,
121923,note_on,36,0,12,,,,,,,,,11,,,,67,127
121924,note_on,51,0,2,,,,,,,,,1,,,,79,0
121924,note_on,0,0,2,,,,,,,,,1,,,,76,100
121925,control_change,43,0,4,,,,,,,,,3,11,63,,,
121928,note_on,36,0,13,,,,,,,,,12,,,,64,127
121928,control_change,4,0,2,,,,,,,,,1,11,66,,,
121929,note_on,4,0,4,,,,,,,,,3,,,,64,0
121929,note_on,0,0,4,,,,,,,,,3,,,,60,0
121929,note_on,0,0,4,,,,,,,,,3,,,,55,100
121931,control_change,44,0,5,,,,,,,,,4,11,67,,,
121931,control_change,8,0,12,,,,,,,,,11,11,69,,,
121932,control_change,44,0,6,,,,,,,,,5,11,67,,,
121936,control_change,8,0,13,,,,,,,,,12,11,69,,,
121940,control_change,44,0,14,,,,,,,,,13,11,69,,,
121942,control_change,44,0,15,,,,,,,,,14,11,69,,,
121960,control_change,40,0,11,,,,,,,,,10,11,74,,,
121963,control_change,42,0,3,,,,,,,,,2,11,61,,,
121967,control_change,38,0,4,,,,,,,,,3,11,64,,,
121976,control_change,45,0,5,,,,,,,,,4,11,68,,,
121976,control_change,45,0,12,,,,,,,,,11,11,70,,,
121977,control_change,45,0,6,,,,,,,,,5,11,68,,,
121981,control_change,45,0,13,,,,,,,,,12,11,70,,,
121983,note_on,7,0,12,,,,,,,,,11,,,,67,0
121984,control_change,56,0,2,,,,,,,,,1,11,67,,,
121985,control_change,45,0,14,,,,,,,,,13,11,70,,,
121987,control_change,45,0,15,,,,,,,,,14,11,70,,,
121988,note_on,7,0,13,,,,,,,,,12,,,,64,0
122006,control_change,43,0,3,,,,,,,,,2,11,61,,,
122010,control_change,43,0,4,,,,,,,,,3,11,65,,,
122013,control_change,53,0,11,,,,,,,,,10,11,75,,,
122020,control_change,37,0,12,,,,,,,,,11,11,71,,,
122020,control_change,44,0,5,,,,,,,,,4,11,69,,,
122021,control_change,44,0,6,,,,,,,,,5,11,69,,,
122025,control_change,37,0,13,,,,,,,,,12,11,71,,,
122029,control_change,44,0,14,,,,,,,,,13,11,71,,,
122031,control_change,44,0,15,,,,,,,,,14,11,71,,,
122035,note_on,0,0,3,,,,,,,,,2,,,,76,0
122035,note_on,29,0,3,,,,,,,,,2,,,,72,0
122035,note_on,22,0,11,,,,,,,,,10,,,,76,0
122039,control_change,55,0,2,,,,,,,,,1,11,67,,,
122040,set_tempo,120,1,0,,,,,,254237,,,,,,,,
122040,note_on,5,0,11,,,,,,,,,10,,,,83,112
122043,note_on,23,0,5,,,,,,,,,4,,,,64,0
122043,note_on,23,0,12,,,,,,,,,11,,,,62,112
122044,note_on,23,0,6,,,,,,,,,5,,,,60,0
122044,note_on,0,0,2,,,,,,,,,1,,,,83,100
122044,note_on,5,0,2,,,,,,,,,1,,,,76,0
122045,note_on,0,0,3,,,,,,,,,2,,,,74,101
122045,note_on,10,0,3,,,,,,,,,2,,,,71,101
122048,note_on,23,0,13,,,,,,,,,12,,,,59,112
122048,control_change,3,0,3,,,,,,,,,2,11,62,,,
122049,note_on,39,0,4,,,,,,,,,3,,,,55,0
122049,note_on,0,0,4,,,,,,,,,3,,,,53,100
122049,note_on,0,0,4,,,,,,,,,3,,,,55,100
122052,note_on,23,0,14,,,,,,,,,13,,,,53,112
122052,control_change,3,0,4,,,,,,,,,3,11,66,,,
122054,note_on,23,0,15,,,,,,,,,14,,,,41,112
122064,control_change,21,0,5,,,,,,,,,4,11,70,,,
122064,control_change,21,0,12,,,,,,,,,11,11,72,,,
122065,control_change,25,0,11,,,,,,,,,10,11,76,,,
122065,control_change,21,0,6,,,,,,,,,5,11,70,,,
122069,control_change,21,0,13,,,,,,,,,12,11,72,,,
122073,control_change,21,0,14,,,,,,,,,13,11,72,,,
122075,control_change,21,0,15,,,,,,,,,14,11,72,,,
122091,control_change,43,0,3,,,,,,,,,2,11,63,,,
122094,control_change,50,0,2,,,,,,,,,1,11,68,,,
122095,control_change,43,0,4,,,,,,,,,3,11,67,,,
122103,note_on,39,0,12,,,,,,,,,11,,,,62,0
122108,control_change,5,0,12,,,,,,,,,11,11,72,,,
122108,control_change,44,0,5,,,,,,,,,4,11,71,,,
122108,note_on,39,0,13,,,,,,,,,12,,,,59,0
122109,control_change,44,0,6,,,,,,,,,5,11,71,,,
122113,control_change,5,0,13,,,,,,,,,12,11,72,,,
122117,control_change,44,0,14,,,,,,,,,13,11,72,,,
122118,control_change,53,0,11,,,,,,,,,10,11,77,,,
122119,control_change,44,0,15,,,,,,,,,14,11,72,,,
122133,control_change,42,0,3,,,,,,,,,2,11,64,,,
122137,control_change,42,0,4,,,,,,,,,3,11,68,,,
122149,control_change,55,0,2,,,,,,,,,1,11,69,,,
122153,control_change,45,0,12,,,,,,,,,11,11,73,,,
122153,control_change,45,0,5,,,,,,,,,4,11,72,,,
122154,control_change,45,0,6,,,,,,,,,5,11,72,,,
122158,control_change,45,0,13,,,,,,,,,12,11,73,,,
122160,set_tempo,120,1,0,,,,,,263158,,,,,,,,
122162,control_change,45,0,14,,,,,,,,,13,11,73,,,
122163,note_on,10,0,12,,,,,,,,,11,,,,62,112
122164,control_change,45,0,15,,,,,,,,,14,11,73,,,
122168,note_on,10,0,13,,,,,,,,,12,,,,59,112
122169,note_on,32,0,4,,,,,,,,,3,,,,53,0
122169,note_on,0,0,4,,,,,,,,,3,,,,55,0
122169,note_on,0,0,4,,,,,,,,,3,,,,55,100
122169,note_on,0,0,4,,,,,,,,,3,,,,53,100
122170,control_change,52,0,11,,,,,,,,,10,11,78,,,
122172,note_on,10,0,14,,,,,,,,,13,,,,53,0
122174,note_on,10,0,15,,,,,,,,,14,,,,41,0
122176,control_change,43,0,3,,,,,,,,,2,11,64,,,
122180,control_change,11,0,4,,,,,,,,,3,11,69,,,
122197,control_change,34,0,12,,,,,,,,,11,11,74,,,
122197,control_change,44,0,5,,,,,,,,,4,11,73,,,
122198,control_change,44,0,6,,,,,,,,,5,11,73,,,
122202,control_change,34,0,13,,,,,,,,,12,11,74,,,
122204,control_change,55,0,2,,,,,,,,,1,11,70,,,
122206,control_change,34,0,14,,,,,,,,,13,11,74,,,
122208,control_change,34,0,15,,,,,,,,,14,11,74,,,
122218,control_change,42,0,3,,,,,,,,,2,11,65,,,
122222,control_change,52,0,11,,,,,,,,,10,11,79,,,
122222,control_change,42,0,4,,,,,,,,,3,11,70,,,
122223,note_on,26,0,12,,,,,,,,,11,,,,62,0
122228,note_on,26,0,13,,,,,,,,,12,,,,59,0
122241,control_change,44,0,5,,,,,,,,,4,11,74,,,
122241,control_change,18,0,12,,,,,,,,,11,11,75,,,
122242,control_change,44,0,6,,,,,,,,,5,11,74,,,
122246,control_change,18,0,13,,,,,,,,,12,11,75,,,
122250,control_change,44,0,14,,,,,,,,,13,11,75,,,
122252,control_change,44,0,15,,,,,,,,,14,11,75,,,
122260,control_change,56,0,2,,,,,,,,,1,11,70,,,
122261,control_change,43,0,3,,,,,,,,,2,11,66,,,
122265,control_change,43,0,4,,,,,,,,,3,11,71,,,
122275,control_change,53,0,11,,,,,,,,,10,11,80,,,
122280,set_tempo,120,1,0,,,,,,288462,,,,,,,,
122283,note_on,42,0,12,,,,,,,,,11,,,,67,127
122286,control_change,3,0,12,,,,,,,,,11,11,76,,,
122286,control_change,45,0,5,,,,,,,,,4,11,75,,,
122287,control_change,45,0,6,,,,,,,,,5,11,75,,,
122288,note_on,42,0,13,,,,,,,,,12,,,,62,127
122289,note_on,0,0,4,,,,,,,,,3,,,,55,0
122289,note_on,0,0,4,,,,,,,,,3,,,,62,100
122289,note_on,0,0,4,,,,,,,,,3,,,,55,100
122289,note_on,24,0,4,,,,,,,,,3,,,,53,0
122291,control_change,3,0,13,,,,,,,,,12,11,76,,,
122295,control_change,45,0,14,,,,,,,,,13,11,76,,,
122297,control_change,45,0,15,,,,,,,,,14,11,76,,,
122303,control_change,42,0,3,,,,,,,,,2,11,67,,,
122307,control_change,18,0,4,,,,,,,,,3,11,72,,,
122315,control_change,55,0,2,,,,,,,,,1,11,71,,,
122327,control_change,52,0,11,,,,,,,,,10,11,81,,,
122330,control_change,44,0,12,,,,,,,,,11,11,77,,,
122330,control_change,44,0,5,,,,,,,,,4,11,76,,,
122331,control_change,44,0,6,,,,,,,,,5,11,76,,,
122335,control_change,44,0,13,,,,,,,,,12,11,77,,,
122339,control_change,44,0,14,,,,,,,,,13,11,77,,,
122341,control_change,44,0,15,,,,,,,,,14,11,77,,,
122343,note_on,13,0,12,,,,,,,,,11,,,,67,0
122345,control_change,42,0,3,,,,,,,,,2,11,67,,,
122348,note_on,13,0,13,,,,,,,,,12,,,,62,0
122349,control_change,42,0,4,,,,,,,,,3,11,73,,,
122370,control_change,55,0,2,,,,,,,,,1,11,72,,,
122374,control_change,31,0,12,,,,,,,,,11,11,78,,,
122374,control_change,44,0,5,,,,,,,,,4,11,77,,,
122375,control_change,44,0,6,,,,,,,,,5,11,77,,,
122379,control_change,52,0,11,,,,,,,,,10,11,82,,,
122379,control_change,31,0,13,,,,,,,,,12,11,78,,,
122383,control_change,44,0,14,,,,,,,,,13,11,78,,,
122385,control_change,44,0,15,,,,,,,,,14,11,78,,,
122388,control_change,43,0,3,,,,,,,,,2,11,68,,,
122392,control_change,43,0,4,,,,,,,,,3,11,74,,,
122395,note_on,0,0,3,,,,,,,,,2,,,,71,0
122395,note_on,7,0,3,,,,,,,,,2,,,,74,0
122400,note_on,0,0,11,,,,,,,,,10,,,,84,112
122400,note_on,21,0,11,,,,,,,,,10,,,,83,0
122400,set_tempo,120,1,0,,,,,,254237,,,,,,,,
122403,note_on,29,0,12,,,,,,,,,11,,,,64,112
122404,note_on,0,0,2,,,,,,,,,1,,,,84,100
122404,note_on,34,0,2,,,,,,,,,1,,,,83,0
122405,note_on,10,0,3,,,,,,,,,2,,,,72,101
122405,note_on,0,0,3,,,,,,,,,2,,,,76,101
122408,note_on,29,0,13,,,,,,,,,12,,,,60,112
122409,note_on,17,0,4,,,,,,,,,3,,,,62,0
122409,note_on,0,0,4,,,,,,,,,3,,,,55,0
122409,note_on,0,0,4,,,,,,,,,3,,,,52,100
122409,note_on,0,0,4,,,,,,,,,3,,,,55,100
122412,note_on,29,0,14,,,,,,,,,13,,,,52,112
122414,note_on,29,0,15,,,,,,,,,14,,,,40,112
122418,control_change,15,0,12,,,,,,,,,11,11,79,,,
122418,control_change,44,0,5,,,,,,,,,4,11,78,,,
122419,control_change,44,0,6,,,,,,,,,5,11,78,,,
122423,control_change,15,0,13,,,,,,,,,12,11,79,,,
122425,control_change,21,0,2,,,,,,,,,1,11,73,,,
122427,control_change,15,0,14,,,,,,,,,13,11,79,,,
122429,control_change,15,0,15,,,,,,,,,14,11,79,,,
122430,control_change,25,0,3,,,,,,,,,2,11,69,,,
122432,control_change,32,0,11,,,,,,,,,10,11,83,,,
122434,control_change,25,0,4,,,,,,,,,3,11,75,,,
122463,control_change,45,0,5,,,,,,,,,4,11,79,,,
122463,note_on,45,0,12,,,,,,,,,11,,,,64,0
122463,control_change,0,0,12,,,,,,,,,11,11,80,,,
122464,control_change,45,0,6,,,,,,,,,5,11,79,,,
122468,control_change,0,0,13,,,,,,,,,12,11,80,,,
122468,note_on,45,0,13,,,,,,,,,12,,,,60,0
122472,control_change,45,0,14,,,,,,,,,13,11,80,,,
122473,control_change,43,0,3,,,,,,,,,2,11,70,,,
122474,control_change,45,0,15,,,,,,,,,14,11,80,,,
122477,control_change,43,0,4,,,,,,,,,3,11,76,,,
122480,control_change,55,0,2,,,,,,,,,1,11,73,,,
122484,control_change,52,0,11,,,,,,,,,10,11,84,,,
122507,control_change,44,0,12,,,,,,,,,11,11,81,,,
122507,control_change,44,0,5,,,,,,,,,4,11,80,,,
122508,control_change,44,0,6,,,,,,,,,5,11,80,,,
122512,control_change,44,0,13,,,,,,,,,12,11,81,,,
122515,control_change,42,0,3,,,,,,,,,2,11,70,,,
122516,control_change,44,0,14,,,,,,,,,13,11,81,,,
122518,control_change,44,0,15,,,,,,,,,14,11,81,,,
122519,control_change,42,0,4,,,,,,,,,3,11,77,,,
122520,set_tempo,120,1,0,,,,,,263158,,,,,,,,
122520,note_on,36,0,11,,,,,,,,,10,,,,84,0
122520,note_on,0,0,11,,,,,,,,,10,,,,83,112
122523,note_on,16,0,12,,,,,,,,,11,,,,64,112
122524,note_on,0,0,2,,,,,,,,,1,,,,83,100
122524,note_on,44,0,2,,,,,,,,,1,,,,84,0
122528,note_on,16,0,13,,,,,,,,,12,,,,60,112
122529,note_on,0,0,4,,,,,,,,,3,,,,55,100
122529,note_on,0,0,4,,,,,,,,,3,,,,52,0
122529,note_on,0,0,4,,,,,,,,,3,,,,52,100
122529,note_on,10,0,4,,,,,,,,,3,,,,55,0
122532,note_on,16,0,14,,,,,,,,,13,,,,52,0
122534,note_on,16,0,15,,,,,,,,,14,,,,40,0
122536,control_change,12,0,2,,,,,,,,,1,11,74,,,
122536,control_change,16,0,11,,,,,,,,,10,11,85,,,
122551,control_change,28,0,12,,,,,,,,,11,11,82,,,
122551,control_change,44,0,5,,,,,,,,,4,11,81,,,
122552,control_change,44,0,6,,,,,,,,,5,11,81,,,
122556,control_change,28,0,13,,,,,,,,,12,11,82,,,
122558,control_change,43,0,3,,,,,,,,,2,11,71,,,
122560,control_change,28,0,14,,,,,,,,,13,11,82,,,
122562,control_change,33,0,4,,,,,,,,,3,11,78,,,
122562,control_change,28,0,15,,,,,,,,,14,11,82,,,
122583,note_on,32,0,12,,,,,,,,,11,,,,64,0
122588,note_on,32,0,13,,,,,,,,,12,,,,60,0
122589,control_change,53,0,11,,,,,,,,,10,11,86,,,
122591,control_change,55,0,2,,,,,,,,,1,11,75,,,
122596,control_change,45,0,5,,,,,,,,,4,11,82,,,
122596,control_change,13,0,12,,,,,,,,,11,11,83,,,
122597,control_change,45,0,6,,,,,,,,,5,11,82,,,
122600,control_change,42,0,3,,,,,,,,,2,11,72,,,
122601,control_change,13,0,13,,,,,,,,,12,11,83,,,
122604,control_change,42,0,4,,,,,,,,,3,11,79,,,
122605,control_change,45,0,14,,,,,,,,,13,11,83,,,
122607,control_change,45,0,15,,,,,,,,,14,11,83,,,
122640,note_on,51,0,11,,,,,,,,,10,,,,83,0
122640,note_on,0,0,11,,,,,,,,,10,,,,81,112
122640,control_change,44,0,5,,,,,,,,,4,11,83,,,
122640,control_change,44,0,12,,,,,,,,,11,11,84,,,
122640,set_tempo,120,1,0,,,,,,288462,,,,,,,,
122641,control_change,44,0,6,,,,,,,,,5,11,83,,,
122641,control_change,1,0,11,,,,,,,,,10,11,87,,,
122643,control_change,43,0,3,,,,,,,,,2,11,73,,,
122643,note_on,3,0,12,,,,,,,,,11,,,,67,127
122644,note_on,0,0,2,,,,,,,,,1,,,,81,100
122644,note_on,53,0,2,,,,,,,,,1,,,,83,0
122645,control_change,44,0,13,,,,,,,,,12,11,84,,,
122646,control_change,2,0,2,,,,,,,,,1,11,76,,,
122647,control_change,43,0,4,,,,,,,,,3,11,80,,,
122648,note_on,3,0,13,,,,,,,,,12,,,,64,127
122649,note_on,0,0,4,,,,,,,,,3,,,,60,100
122649,control_change,44,0,14,,,,,,,,,13,11,84,,,
122649,note_on,0,0,4,,,,,,,,,3,,,,55,100
122649,note_on,0,0,4,,,,,,,,,3,,,,55,0
122649,note_on,2,0,4,,,,,,,,,3,,,,52,0
122651,control_change,44,0,15,,,,,,,,,14,11,84,,,
122684,control_change,41,0,12,,,,,,,,,11,11,85,,,
122684,control_change,44,0,5,,,,,,,,,4,11,84,,,
122685,control_change,44,0,6,,,,,,,,,5,11,84,,,
122685,control_change,42,0,3,,,,,,,,,2,11,73,,,
122689,control_change,41,0,13,,,,,,,,,12,11,85,,,
122689,control_change,40,0,4,,,,,,,,,3,11,81,,,
122693,control_change,52,0,11,,,,,,,,,10,11,87,,,
122693,control_change,44,0,14,,,,,,,,,13,11,85,,,
122695,control_change,44,0,15,,,,,,,,,14,11,85,,,
122701,control_change,55,0,2,,,,,,,,,1,11,76,,,
122703,note_on,19,0,12,,,,,,,,,11,,,,67,0
122708,note_on,19,0,13,,,,,,,,,12,,,,64,0
122728,control_change,43,0,3,,,,,,,,,2,11,74,,,
122729,control_change,45,0,5,,,,,,,,,4,11,85,,,
122729,control_change,26,0,12,,,,,,,,,11,11,86,,,
122730,control_change,45,0,6,,,,,,,,,5,11,85,,,
122732,control_change,43,0,4,,,,,,,,,3,11,82,,,
122734,control_change,26,0,13,,,,,,,,,12,11,86,,,
122738,control_change,45,0,14,,,,,,,,,13,11,86,,,
122740,control_change,45,0,15,,,,,,,,,14,11,86,,,
122746,control_change,53,0,11,,,,,,,,,10,11,88,,,
122755,note_on,0,0,3,,,,,,,,,2,,,,72,0
122755,note_on,9,0,11,,,,,,,,,10,,,,81,0
122755,note_on,27,0,3,,,,,,,,,2,,,,76,0
122756,control_change,55,0,2,,,,,,,,,1,11,77,,,
122760,note_on,5,0,11,,,,,,,,,10,,,,79,112
122760,set_tempo,120,1,0,,,,,,254237,,,,,,,,
122763,note_on,34,0,12,,,,,,,,,11,,,,65,112
122763,note_on,34,0,5,,,,,,,,,4,,,,62,100
122764,note_on,34,0,6,,,,,,,,,5,,,,55,100
122764,note_on,8,0,2,,,,,,,,,1,,,,81,0
122764,note_on,0,0,2,,,,,,,,,1,,,,79,100
122765,note_on,10,0,3,,,,,,,,,2,,,,74,101
122765,note_on,0,0,3,,,,,,,,,2,,,,71,101
122768,note_on,34,0,13,,,,,,,,,12,,,,55,112
122769,note_on,0,0,4,,,,,,,,,3,,,,62,100
122769,note_on,37,0,4,,,,,,,,,3,,,,60,0
122769,note_on,0,0,4,,,,,,,,,3,,,,59,100
122769,note_on,0,0,4,,,,,,,,,3,,,,55,0
122770,control_change,5,0,3,,,,,,,,,2,11,75,,,
122772,note_on,34,0,14,,,,,,,,,13,,,,55,112
122773,control_change,10,0,5,,,,,,,,,4,11,86,,,
122773,control_change,10,0,12,,,,,,,,,11,11,87,,,
122774,control_change,10,0,6,,,,,,,,,5,11,86,,,
122774,note_on,34,0,15,,,,,,,,,14,,,,43,112
122774,control_change,5,0,4,,,,,,,,,3,11,83,,,
122778,control_change,10,0,13,,,,,,,,,12,11,87,,,
122782,control_change,10,0,14,,,,,,,,,13,11,87,,,
122784,control_change,10,0,15,,,,,,,,,14,11,87,,,
122798,control_change,38,0,11,,,,,,,,,10,11,89,,,
122812,control_change,48,0,2,,,,,,,,,1,11,78,,,
122813,control_change,43,0,3,,,,,,,,,2,11,76,,,
122817,control_change,44,0,12,,,,,,,,,11,11,87,,,
122817,control_change,43,0,4,,,,,,,,,3,11,84,,,
122817,control_change,44,0,5,,,,,,,,,4,11,87,,,
122818,control_change,44,0,6,,,,,,,,,5,11,87,,,
122822,control_change,44,0,13,,,,,,,,,12,11,87,,,
122823,note_on,6,0,12,,,,,,,,,11,,,,65,0
122826,control_change,44,0,14,,,,,,,,,13,11,87,,,
122828,control_change,44,0,15,,,,,,,,,14,11,87,,,
122828,note_on,6,0,13,,,,,,,,,12,,,,55,0
122850,control_change,52,0,11,,,,,,,,,10,11,90,,,
122855,control_change,42,0,3,,,,,,,,,2,11,76,,,
122859,control_change,42,0,4,,,,,,,,,3,11,85,,,
122861,control_change,38,0,12,,,,,,,,,11,11,88,,,
122861,control_change,44,0,5,,,,,,,,,4,11,88,,,
122862,control_change,44,0,6,,,,,,,,,5,11,88,,,
122866,control_change,38,0,13,,,,,,,,,12,11,88,,,
122867,control_change,55,0,2,,,,,,,,,1,11,79,,,
122870,control_change,44,0,14,,,,,,,,,13,11,88,,,
122872,control_change,44,0,15,,,,,,,,,14,11,88,,,
122880,note_on,30,0,11,,,,,,,,,10,,,,79,0
122880,set_tempo,120,1,0,,,,,,263158,,,,,,,,
122880,note_on,0,0,11,,,,,,,,,10,,,,77,112
122883,note_on,22,0,12,,,,,,,,,11,,,,65,112
122884,note_on,17,0,2,,,,,,,,,1,,,,79,0
122884,note_on,0,0,2,,,,,,,,,1,,,,77,100
122888,note_on,22,0,13,,,,,,,,,12,,,,55,112
122889,note_on,0,0,4,,,,,,,,,3,,,,59,100
122889,note_on,0,0,4,,,,,,,,,3,,,,59,0
122889,note_on,30,0,4,,,,,,,,,3,,,,62,0
122889,note_on,0,0,4,,,,,,,,,3,,,,62,100
122892,note_on,22,0,14,,,,,,,,,13,,,,55,0
122894,note_on,22,0,15,,,,,,,,,14,,,,43,0
122897,control_change,42,0,3,,,,,,,,,2,11,77,,,
122901,control_change,12,0,4,,,,,,,,,3,11,86,,,
122903,control_change,23,0,11,,,,,,,,,10,11,91,,,
122906,control_change,23,0,12,,,,,,,,,11,11,89,,,
122906,control_change,45,0,5,,,,,,,,,4,11,89,,,
122907,control_change,45,0,6,,,,,,,,,5,11,89,,,
122911,control_change,23,0,13,,,,,,,,,12,11,89,,,
122915,control_change,23,0,14,,,,,,,,,13,11,89,,,
122917,control_change,23,0,15,,,,,,,,,14,11,89,,,
122922,control_change,38,0,2,,,,,,,,,1,11,80,,,
122940,control_change,43,0,3,,,,,,,,,2,11,78,,,
122943,note_on,37,0,12,,,,,,,,,11,,,,65,0
122944,control_change,43,0,4,,,,,,,,,3,11,87,,,
122948,note_on,37,0,13,,,,,,,,,12,,,,55,0
122950,control_change,7,0,12,,,,,,,,,11,11,90,,,
122950,control_change,44,0,5,,,,,,,,,4,11,90,,,
122951,control_change,44,0,6,,,,,,,,,5,11,90,,,
122955,control_change,52,0,11,,,,,,,,,10,11,92,,,
122955,control_change,7,0,13,,,,,,,,,12,11,90,,,
122959,control_change,44,0,14,,,,,,,,,13,11,90,,,
122961,control_change,44,0,15,,,,,,,,,14,11,90,,,
122977,control_change,55,0,2,,,,,,,,,1,11,80,,,
122982,control_change,42,0,3,,,,,,,,,2,11,79,,,
122986,control_change,42,0,4,,,,,,,,,3,11,88,,,
122994,control_change,44,0,12,,,,,,,,,11,11,91,,,
122994,control_change,44,0,5,,,,,,,,,4,11,91,,,
122995,control_change,44,0,6,,,,,,,,,5,11,91,,,
122999,control_change,44,0,13,,,,,,,,,12,11,91,,,
123000,set_tempo,120,1,0,,,,,,288462,,,,,,,,
123000,note_on,0,0,11,,,,,,,,,10,,,,74,112
123000,note_on,45,0,11,,,,,,,,,10,,,,77,0
123003,note_on,9,0,12,,,,,,,,,11,,,,67,127
123003,control_change,44,0,14,,,,,,,,,13,11,91,,,
123004,note_on,0,0,2,,,,,,,,,1,,,,74,100
123004,note_on,27,0,2,,,,,,,,,1,,,,77,0
123005,control_change,44,0,15,,,,,,,,,14,11,91,,,
123007,control_change,7,0,11,,,,,,,,,10,11,93,,,
123008,note_on,9,0,13,,,,,,,,,12,,,,65,127
123009,note_on,0,0,4,,,,,,,,,3,,,,59,0
123009,note_on,0,0,4,,,,,,,,,3,,,,55,100
123009,note_on,23,0,4,,,,,,,,,3,,,,62,0
123025,control_change,43,0,3,,,,,,,,,2,11,80,,,
123029,control_change,20,0,4,,,,,,,,,3,11,89,,,
123032,control_change,28,0,2,,,,,,,,,1,11,81,,,
123039,control_change,36,0,12,,,,,,,,,11,11,92,,,
123039,control_change,45,0,5,,,,,,,,,4,11,92,,,
123040,control_change,45,0,6,,,,,,,,,5,11,92,,,
123044,control_change,36,0,13,,,,,,,,,12,11,92,,,
123048,control_change,45,0,14,,,,,,,,,13,11,92,,,
123050,control_change,45,0,15,,,,,,,,,14,11,92,,,
123060,control_change,53,0,11,,,,,,,,,10,11,94,,,
123063,note_on,24,0,12,,,,,,,,,11,,,,67,0
123067,control_change,42,0,3,,,,,,,,,2,11,80,,,
123068,note_on,24,0,13,,,,,,,,,12,,,,65,0
123071,control_change,42,0,4,,,,,,,,,3,11,90,,,
123083,control_change,20,0,12,,,,,,,,,11,11,93,,,
123083,control_change,44,0,5,,,,,,,,,4,11,93,,,
123084,control_change,44,0,6,,,,,,,,,5,11,93,,,
123088,control_change,56,0,2,,,,,,,,,1,11,82,,,
123088,control_change,20,0,13,,,,,,,,,12,11,93,,,
123092,control_change,44,0,14,,,,,,,,,13,11,93,,,
123094,control_change,44,0,15,,,,,,,,,14,11,93,,,
123110,control_change,43,0,3,,,,,,,,,2,11,81,,,
123112,control_change,52,0,11,,,,,,,,,10,11,95,,,
123114,control_change,43,0,4,,,,,,,,,3,11,91,,,
123115,note_on,0,0,3,,,,,,,,,2,,,,74,0
123115,note_on,5,0,3,,,,,,,,,2,,,,71,0
123115,note_on,3,0,11,,,,,,,,,10,,,,74,0
123120,note_on,5,0,11,,,,,,,,,10,,,,79,112
123120,set_tempo,120,1,0,,,,,,254237,,,,,,,,
123123,note_on,40,0,5,,,,,,,,,4,,,,62,0
123123,note_on,0,0,5,,,,,,,,,4,,,,64,100
123123,note_on,40,0,12,,,,,,,,,11,,,,64,112
123124,note_on,40,0,6,,,,,,,,,5,,,,55,0
123124,note_on,0,0,6,,,,,,,,,5,,,,60,100
123124,note_on,0,0,2,,,,,,,,,1,,,,79,100
123124,note_on,36,0,2,,,,,,,,,1,,,,74,0
123125,note_on,0,0,3,,,,,,,,,2,,,,76,101
123125,note_on,10,0,3,,,,,,,,,2,,,,72,101
123127,control_change,4,0,12,,,,,,,,,11,11,94,,,
123127,control_change,4,0,5,,,,,,,,,4,11,94,,,
123128,note_on,40,0,13,,,,,,,,,12,,,,55,112
123128,control_change,4,0,6,,,,,,,,,5,11,94,,,
123129,note_on,0,0,4,,,,,,,,,3,,,,60,100
123129,note_on,0,0,4,,,,,,,,,3,,,,64,100
123129,note_on,15,0,4,,,,,,,,,3,,,,55,0
123132,control_change,4,0,13,,,,,,,,,12,11,94,,,
123132,note_on,40,0,14,,,,,,,,,13,,,,48,112
123134,note_on,40,0,15,,,,,,,,,14,,,,36,112
123136,control_change,4,0,14,,,,,,,,,13,11,94,,,
123138,control_change,4,0,15,,,,,,,,,14,11,94,,,
123143,control_change,19,0,2,,,,,,,,,1,11,83,,,
123152,control_change,27,0,3,,,,,,,,,2,11,82,,,
123156,control_change,27,0,4,,,,,,,,,3,11,92,,,
123164,control_change,44,0,11,,,,,,,,,10,11,96,,,
123171,control_change,44,0,5,,,,,,,,,4,11,95,,,
123171,control_change,44,0,12,,,,,,,,,11,11,95,,,
123172,control_change,44,0,6,,,,,,,,,5,11,95,,,
123176,control_change,44,0,13,,,,,,,,,12,11,95,,,
123180,control_change,44,0,14,,,,,,,,,13,11,95,,,
123182,control_change,44,0,15,,,,,,,,,14,11,95,,,
123183,note_on,12,0,12,,,,,,,,,11,,,,64,0
123188,note_on,12,0,13,,,,,,,,,12,,,,55,0
123195,control_change,43,0,3,,,,,,,,,2,11,83,,,
123198,control_change,55,0,2,,,,,,,,,1,11,83,,,
123199,control_change,43,0,4,,,,,,,,,3,11,93,,,
123216,control_change,45,0,5,,,,,,,,,4,11,96,,,
123216,control_change,33,0,12,,,,,,,,,11,11,96,,,
123217,control_change,53,0,11,,,,,,,,,10,11,97,,,
123217,control_change,45,0,6,,,,,,,,,5,11,96,,,
123221,control_change,33,0,13,,,,,,,,,12,11,96,,,
123225,control_change,45,0,14,,,,,,,,,13,11,96,,,
123227,control_change,45,0,15,,,,,,,,,14,11,96,,,
123237,control_change,42,0,3,,,,,,,,,2,11,83,,,
123240,set_tempo,120,1,0,,,,,,263158,,,,,,,,
123241,control_change,42,0,4,,,,,,,,,3,11,94,,,
123243,note_on,27,0,12,,,,,,,,,11,,,,64,112
123248,note_on,27,0,13,,,,,,,,,12,,,,55,112
123249,note_on,8,0,4,,,,,,,,,3,,,,60,0
123249,note_on,0,0,4,,,,,,,,,3,,,,64,0
123249,note_on,0,0,4,,,,,,,,,3,,,,60,100
123249,note_on,0,0,4,,,,,,,,,3,,,,64,100
123252,note_on,27,0,14,,,,,,,,,13,,,,48,0
123253,control_change,55,0,2,,,,,,,,,1,11,84,,,
123254,note_on,27,0,15,,,,,,,,,14,,,,36,0
123260,control_change,17,0,12,,,,,,,,,11,11,97,,,
123260,control_change,44,0,5,,,,,,,,,4,11,97,,,
123261,control_change,44,0,6,,,,,,,,,5,11,97,,,
123265,control_change,17,0,13,,,,,,,,,12,11,97,,,
123269,control_change,17,0,14,,,,,,,,,13,11,97,,,
123269,control_change,52,0,11,,,,,,,,,10,11,98,,,
123271,control_change,17,0,15,,,,,,,,,14,11,97,,,
123280,control_change,43,0,3,,,,,,,,,2,11,84,,,
123284,control_change,35,0,4,,,,,,,,,3,11,95,,,
123303,note_on,43,0,12,,,,,,,,,11,,,,64,0
123304,control_change,44,0,5,,,,,,,,,4,11,98,,,
123304,control_change,1,0,12,,,,,,,,,11,11,98,,,
123305,control_change,44,0,6,,,,,,,,,5,11,98,,,
123308,control_change,55,0,2,,,,,,,,,1,11,85,,,
123308,note_on,43,0,13,,,,,,,,,12,,,,55,0
123309,control_change,1,0,13,,,,,,,,,12,11,98,,,
123313,control_change,44,0,14,,,,,,,,,13,11,98,,,
123315,control_change,44,0,15,,,,,,,,,14,11,98,,,
123321,control_change,52,0,11,,,,,,,,,10,11,99,,,
123322,control_change,42,0,3,,,,,,,,,2,11,85,,,
123326,control_change,42,0,4,,,,,,,,,3,11,96,,,
123349,control_change,45,0,5,,,,,,,,,4,11,99,,,
123349,control_change,45,0,12,,,,,,,,,11,11,99,,,
123350,control_change,45,0,6,,,,,,,,,5,11,99,,,
123354,control_change,45,0,13,,,,,,,,,12,11,99,,,
123358,control_change,45,0,14,,,,,,,,,13,11,99,,,
123360,control_change,45,0,15,,,,,,,,,14,11,99,,,
123360,note_on,39,0,11,,,,,,,,,10,,,,79,0
123360,note_on,0,0,11,,,,,,,,,10,,,,76,112
123360,set_tempo,120,1,0,,,,,,288462,,,,,,,,
123363,note_on,14,0,12,,,,,,,,,11,,,,67,127
123364,note_on,0,0,2,,,,,,,,,1,,,,76,100
123364,control_change,0,0,2,,,,,,,,,1,11,86,,,
123364,note_on,56,0,2,,,,,,,,,1,,,,79,0
123365,control_change,43,0,3,,,,,,,,,2,11,86,,,
123368,note_on,14,0,13,,,,,,,,,12,,,,64,127
123369,note_on,43,0,4,,,,,,,,,3,,,,60,0
123369,note_on,0,0,4,,,,,,,,,3,,,,64,0
123369,note_on,0,0,4,,,,,,,,,3,,,,55,100
123369,control_change,0,0,4,,,,,,,,,3,11,97,,,
123374,control_change,14,0,11,,,,,,,,,10,11,100,,,
123393,control_change,30,0,12,,,,,,,,,11,11,100,,,
123393,control_change,44,0,5,,,,,,,,,4,11,100,,,
123394,control_change,44,0,6,,,,,,,,,5,11,100,,,
123398,control_change,30,0,13,,,,,,,,,12,11,100,,,
123402,control_change,44,0,14,,,,,,,,,13,11,100,,,
123404,control_change,44,0,15,,,,,,,,,14,11,100,,,
123423,note_on,30,0,12,,,,,,,,,11,,,,67,0
123426,control_change,52,0,11,,,,,,,,,10,11,101,,,
123428,note_on,30,0,13,,,,,,,,,12,,,,64,0
123437,control_change,44,0,5,,,,,,,,,4,11,101,,,
123437,control_change,14,0,12,,,,,,,,,11,11,101,,,
123438,control_change,44,0,6,,,,,,,,,5,11,101,,,
123442,control_change,14,0,13,,,,,,,,,12,11,101,,,
123446,control_change,44,0,14,,,,,,,,,13,11,101,,,
123448,control_change,44,0,15,,,,,,,,,14,11,101,,,
123475,note_on,49,0,11,,,,,,,,,10,,,,76,0
123475,note_on,0,0,3,,,,,,,,,2,,,,72,0
123475,note_on,110,0,3,,,,,,,,,2,,,,76,0
123479,control_change,4,0,11,,,,,,,,,10,11,102,,,
123480,note_on,0,0,11,,,,,,,,,10,,,,72,112
123480,control_change,1,0,11,,,,,,,,,10,11,122,,,
123480,set_tempo,120,1,0,,,,,,262582,,,,,,,,
123482,note_on,0,0,7,,,,,,,,,6,,,,60,112
123482,control_change,14160,0,7,,,,,,,,,6,11,102,,,
123482,control_change,45,0,12,,,,,,,,,11,11,102,,,
123482,control_change,45,0,5,,,,,,,,,4,11,102,,,
123483,note_on,1,0,5,,,,,,,,,4,,,,64,0
123483,control_change,45,0,6,,,,,,,,,5,11,102,,,
123483,control_change,0,0,12,,,,,,,,,11,11,122,,,
123483,note_on,1,0,12,,,,,,,,,11,,,,72,112
123484,note_on,120,0,2,,,,,,,,,1,,,,76,0
123484,note_on,1,0,6,,,,,,,,,5,,,,60,0
123487,control_change,0,0,13,,,,,,,,,12,11,102,,,
123487,program_change,45,0,13,,,,,,,,50,12,,,,,
123488,control_change,1,0,13,,,,,,,,,12,11,122,,,
123488,note_on,0,0,13,,,,,,,,,12,,,,72,112
123489,control_change,9,0,11,,,,,,,,,10,11,119,,,
123489,note_on,120,0,4,,,,,,,,,3,,,,55,0
123491,control_change,45,0,14,,,,,,,,,13,11,102,,,
123492,control_change,9,0,12,,,,,,,,,11,11,119,,,
123492,note_on,1,0,14,,,,,,,,,13,,,,60,112
123492,control_change,0,0,14,,,,,,,,,13,11,122,,,
123493,control_change,45,0,15,,,,,,,,,14,11,102,,,
123494,control_change,1,0,15,,,,,,,,,14,11,122,,,
123494,note_on,0,0,15,,,,,,,,,14,,,,48,112
123495,note_on,14280,0,10,,,,,,,,,15,,,,48,71
123497,control_change,9,0,13,,,,,,,,,12,11,119,,,
123498,control_change,9,0,11,,,,,,,,,10,11,116,,,
123501,control_change,9,0,12,,,,,,,,,11,11,116,,,
123501,control_change,9,0,14,,,,,,,,,13,11,119,,,
123503,control_change,9,0,15,,,,,,,,,14,11,119,,,
123506,control_change,9,0,13,,,,,,,,,12,11,116,,,
123507,control_change,9,0,11,,,,,,,,,10,11,113,,,
123510,note_on,3,0,11,,,,,,,,,10,,,,72,0
123510,control_change,9,0,12,,,,,,,,,11,11,113,,,
123510,control_change,9,0,14,,,,,,,,,13,11,116,,,
123512,control_change,9,0,15,,,,,,,,,14,11,116,,,
123513,note_on,3,0,12,,,,,,,,,11,,,,72,0
123515,control_change,9,0,13,,,,,,,,,12,11,113,,,
123516,control_change,6,0,11,,,,,,,,,10,11,110,,,
123518,note_on,3,0,13,,,,,,,,,12,,,,72,0
123519,control_change,9,0,14,,,,,,,,,13,11,113,,,
123519,control_change,6,0,12,,,,,,,,,11,11,110,,,
123521,control_change,9,0,15,,,,,,,,,14,11,113,,,
123522,note_on,3,0,14,,,,,,,,,13,,,,60,0
123524,note_on,3,0,15,,,,,,,,,14,,,,48,0
123524,control_change,6,0,13,,,,,,,,,12,11,110,,,
123525,control_change,9,0,11,,,,,,,,,10,11,107,,,
123528,control_change,6,0,14,,,,,,,,,13,11,110,,,
123528,control_change,9,0,12,,,,,,,,,11,11,107,,,
123530,control_change,6,0,15,,,,,,,,,14,11,110,,,
123533,control_change,9,0,13,,,,,,,,,12,11,107,,,
123534,control_change,9,0,11,,,,,,,,,10,11,104,,,
123537,control_change,9,0,12,,,,,,,,,11,11,104,,,
123537,control_change,9,0,14,,,,,,,,,13,11,107,,,
123539,control_change,9,0,15,,,,,,,,,14,11,107,,,
123540,note_on,6,0,11,,,,,,,,,10,,,,72,112
123542,control_change,9,0,13,,,,,,,,,12,11,104,,,
123543,note_on,6,0,12,,,,,,,,,11,,,,72,112
123546,control_change,9,0,14,,,,,,,,,13,11,104,,,
123548,note_on,6,0,13,,,,,,,,,12,,,,72,112
123548,control_change,9,0,15,,,,,,,,,14,11,104,,,
123552,note_on,6,0,14,,,,,,,,,13,,,,60,112
123554,note_on,6,0,15,,,,,,,,,14,,,,48,112
123570,note_on,30,0,11,,,,,,,,,10,,,,72,0
123573,note_on,30,0,12,,,,,,,,,11,,,,72,0
123578,note_on,30,0,13,,,,,,,,,12,,,,72,0
123582,note_on,30,0,14,,,,,,,,,13,,,,60,0
123584,note_on,30,0,15,,,,,,,,,14,,,,48,0
123600,note_on,30,0,11,,,,,,,,,10,,,,73,112
123602,note_on,120,0,7,,,,,,,,,6,,,,60,0
123602,note_on,0,0,7,,,,,,,,,6,,,,60,112
123603,note_on,30,0,12,,,,,,,,,11,,,,73,112
123608,note_on,30,0,13,,,,,,,,,12,,,,73,112
123612,note_on,30,0,14,,,,,,,,,13,,,,61,112
123614,note_on,30,0,15,,,,,,,,,14,,,,49,112
123615,note_on,120,0,10,,,,,,,,,15,,,,48,0
123615,note_on,0,0,10,,,,,,,,,15,,,,48,71
123630,note_on,30,0,11,,,,,,,,,10,,,,73,0
123633,note_on,30,0,12,,,,,,,,,11,,,,73,0
123638,note_on,30,0,13,,,,,,,,,12,,,,73,0
123642,note_on,30,0,14,,,,,,,,,13,,,,61,0
123644,note_on,30,0,15,,,,,,,,,14,,,,49,0
123660,note_on,30,0,11,,,,,,,,,10,,,,72,112
123663,note_on,30,0,12,,,,,,,,,11,,,,72,112
123668,note_on,30,0,13,,,,,,,,,12,,,,72,112
123672,note_on,30,0,14,,,,,,,,,13,,,,60,112
123674,note_on,30,0,15,,,,,,,,,14,,,,48,112
123690,note_on,30,0,11,,,,,,,,,10,,,,72,0
123693,note_on,30,0,12,,,,,,,,,11,,,,72,0
123698,note_on,30,0,13,,,,,,,,,12,,,,72,0
123702,note_on,30,0,14,,,,,,,,,13,,,,60,0
123704,note_on,30,0,15,,,,,,,,,14,,,,48,0
123720,set_tempo,240,1,0,,,,,,280374,,,,,,,,
123720,note_on,30,0,11,,,,,,,,,10,,,,73,112
123721,control_change,0,0,1,,,,,,,,,0,11,101,,,
123721,note_on,0,0,1,,,,,,,,,0,,,,88,101
123721,note_on,3120,0,1,,,,,,,,,0,,,,84,101
123722,note_on,120,0,7,,,,,,,,,6,,,,60,0
123723,note_on,240,0,5,,,,,,,,,4,,,,55,100
123723,note_on,30,0,12,,,,,,,,,11,,,,73,112
123723,control_change,0,0,5,,,,,,,,,4,11,122,,,
123724,note_on,240,0,6,,,,,,,,,5,,,,48,100
123724,note_on,0,0,2,,,,,,,,,1,,,,79,100
123724,note_on,0,0,2,,,,,,,,,1,,,,76,100
123724,control_change,240,0,2,,,,,,,,,1,11,101,,,
123724,control_change,0,0,6,,,,,,,,,5,11,122,,,
123725,note_on,250,0,3,,,,,,,,,2,,,,72,101
123725,control_change,0,0,3,,,,,,,,,2,11,101,,,
123725,note_on,0,0,3,,,,,,,,,2,,,,67,101
123727,note_on,7080,0,8,,,,,,,,,7,,,,64,110
123727,control_change,0,0,8,,,,,,,,,7,11,122,,,
123727,note_on,0,0,8,,,,,,,,,7,,,,55,110
123728,note_on,30,0,13,,,,,,,,,12,,,,73,112
123728,control_change,7,0,1,,,,,,,,,0,11,98,,,
123729,control_change,240,0,4,,,,,,,,,3,11,117,,,
123729,note_on,0,0,4,,,,,,,,,3,,,,60,100
123729,note_on,0,0,4,,,,,,,,,3,,,,64,100
123730,control_change,7,0,5,,,,,,,,,4,11,119,,,
123731,control_change,7,0,2,,,,,,,,,1,11,98,,,
123731,control_change,7,0,6,,,,,,,,,5,11,119,,,
123732,control_change,7,0,3,,,,,,,,,2,11,98,,,
123732,note_on,30,0,14,,,,,,,,,13,,,,61,112
123733,control_change,7080,0,9,,,,,,,,,8,11,122,,,
123733,note_on,0,0,9,,,,,,,,,8,,,,48,110
123734,note_on,30,0,15,,,,,,,,,14,,,,49,112
123734,control_change,7,0,8,,,,,,,,,7,11,119,,,
123735,note_on,120,0,10,,,,,,,,,15,,,,48,0
123736,control_change,7,0,4,,,,,,,,,3,11,114,,,
123738,control_change,8,0,5,,,,,,,,,4,11,116,,,
123739,control_change,8,0,6,,,,,,,,,5,11,116,,,
123740,control_change,7,0,9,,,,,,,,,8,11,119,,,
123742,control_change,8,0,8,,,,,,,,,7,11,116,,,
123743,control_change,15,0,1,,,,,,,,,0,11,94,,,
123744,control_change,8,0,4,,,,,,,,,3,11,111,,,
123745,control_change,7,0,5,,,,,,,,,4,11,113,,,
123746,control_change,7,0,6,,,,,,,,,5,11,113,,,
123746,control_change,15,0,2,,,,,,,,,1,11,94,,,
123747,control_change,15,0,3,,,,,,,,,2,11,94,,,
123748,control_change,8,0,9,,,,,,,,,8,11,116,,,
123749,control_change,7,0,8,,,,,,,,,7,11,113,,,
123750,note_on,30,0,11,,,,,,,,,10,,,,73,0
123751,control_change,7,0,4,,,,,,,,,3,11,108,,,
123753,control_change,8,0,5,,,,,,,,,4,11,110,,,
123753,note_on,30,0,12,,,,,,,,,11,,,,73,0
123754,control_change,8,0,6,,,,,,,,,5,11,110,,,
123755,control_change,7,0,9,,,,,,,,,8,11,113,,,
123757,control_change,8,0,8,,,,,,,,,7,11,110,,,
123758,control_change,15,0,1,,,,,,,,,0,11,89,,,
123758,note_on,30,0,13,,,,,,,,,12,,,,73,0
123759,control_change,8,0,4,,,,,,,,,3,11,105,,,
123760,control_change,7,0,5,,,,,,,,,4,11,107,,,
123761,control_change,7,0,6,,,,,,,,,5,11,107,,,
123761,control_change,15,0,2,,,,,,,,,1,11,89,,,
123762,control_change,15,0,3,,,,,,,,,2,11,89,,,
123762,note_on,30,0,14,,,,,,,,,13,,,,61,0
123763,control_change,8,0,9,,,,,,,,,8,11,110,,,
123764,control_change,7,0,8,,,,,,,,,7,11,107,,,
123764,note_on,30,0,15,,,,,,,,,14,,,,49,0
123766,control_change,7,0,4,,,,,,,,,3,11,102,,,
123768,control_change,8,0,5,,,,,,,,,4,11,104,,,
123769,control_change,8,0,6,,,,,,,,,5,11,104,,,
123770,control_change,7,0,9,,,,,,,,,8,11,107,,,
123772,control_change,8,0,8,,,,,,,,,7,11,104,,,
123774,control_change,8,0,4,,,,,,,,,3,11,99,,,
123778,control_change,8,0,9,,,,,,,,,8,11,104,,,
123780,note_on,30,0,11,,,,,,,,,10,,,,72,112
123783,note_on,30,0,12,,,,,,,,,11,,,,72,112
123788,note_on,30,0,13,,,,,,,,,12,,,,72,112
123792,note_on,30,0,14,,,,,,,,,13,,,,60,112
123794,note_on,30,0,15,,,,,,,,,14,,,,48,112
123810,note_on,30,0,11,,,,,,,,,10,,,,72,0
123813,note_on,30,0,12,,,,,,,,,11,,,,72,0
123818,note_on,30,0,13,,,,,,,,,12,,,,72,0
123822,note_on,30,0,14,,,,,,,,,13,,,,60,0
123824,note_on,30,0,15,,,,,,,,,14,,,,48,0
123840,control_change,30,0,11,,,,,,,,,10,11,122,,,
123840,set_tempo,120,1,0,,,,,,265487,,,,,,,,
123840,note_on,0,0,11,,,,,,,,,10,,,,67,112
123841,note_on,0,0,1,,,,,,,,,0,,,,84,0
123841,note_on,83,0,1,,,,,,,,,0,,,,88,0
123842,note_on,120,0,7,,,,,,,,,6,,,,60,112
123843,control_change,30,0,12,,,,,,,,,11,11,122,,,
123843,note_on,75,0,5,,,,,,,,,4,,,,55,0
123843,note_on,0,0,12,,,,,,,,,11,,,,67,112
123844,note_on,0,0,2,,,,,,,,,1,,,,76,0
123844,note_on,83,0,2,,,,,,,,,1,,,,79,0
123844,note_on,75,0,6,,,,,,,,,5,,,,48,0
123845,note_on,83,0,3,,,,,,,,,2,,,,67,0
123845,note_on,0,0,3,,,,,,,,,2,,,,72,0
123847,note_on,0,0,8,,,,,,,,,7,,,,64,0
123847,note_on,75,0,8,,,,,,,,,7,,,,55,0
123848,control_change,30,0,13,,,,,,,,,12,11,122,,,
123848,note_on,0,0,13,,,,,,,,,12,,,,67,112
123849,control_change,9,0,11,,,,,,,,,10,11,119,,,
123849,note_on,0,0,4,,,,,,,,,3,,,,60,0
123849,note_on,75,0,4,,,,,,,,,3,,,,64,0
123852,note_on,0,0,14,,,,,,,,,13,,,,55,112
123852,control_change,30,0,14,,,,,,,,,13,11,122,,,
123852,control_change,9,0,12,,,,,,,,,11,11,119,,,
123853,note_on,75,0,9,,,,,,,,,8,,,,48,0
123854,note_on,0,0,15,,,,,,,,,14,,,,43,112
123854,control_change,30,0,15,,,,,,,,,14,11,122,,,
123855,note_on,120,0,10,,,,,,,,,15,,,,48,71
123857,control_change,9,0,13,,,,,,,,,12,11,119,,,
123858,control_change,9,0,11,,,,,,,,,10,11,116,,,
123861,control_change,9,0,14,,,,,,,,,13,11,119,,,
123861,control_change,9,0,12,,,,,,,,,11,11,116,,,
123863,control_change,9,0,15,,,,,,,,,14,11,119,,,
123866,control_change,9,0,13,,,,,,,,,12,11,116,,,
123867,control_change,9,0,11,,,,,,,,,10,11,113,,,
123870,note_on,3,0,11,,,,,,,,,10,,,,67,0
123870,control_change,9,0,12,,,,,,,,,11,11,113,,,
123870,control_change,9,0,14,,,,,,,,,13,11,116,,,
123872,control_change,9,0,15,,,,,,,,,14,11,116,,,
123873,note_on,3,0,12,,,,,,,,,11,,,,67,0
123875,control_change,9,0,13,,,,,,,,,12,11,113,,,
123876,control_change,6,0,11,,,,,,,,,10,11,110,,,
123878,note_on,3,0,13,,,,,,,,,12,,,,67,0
123879,control_change,9,0,14,,,,,,,,,13,11,113,,,
123879,control_change,6,0,12,,,,,,,,,11,11,110,,,
123881,control_change,9,0,15,,,,,,,,,14,11,113,,,
123882,note_on,3,0,14,,,,,,,,,13,,,,55,0
123884,control_change,6,0,13,,,,,,,,,12,11,110,,,
123884,note_on,3,0,15,,,,,,,,,14,,,,43,0
123885,control_change,9,0,11,,,,,,,,,10,11,107,,,
123888,control_change,9,0,12,,,,,,,,,11,11,107,,,
123888,control_change,6,0,14,,,,,,,,,13,11,110,,,
123890,control_change,6,0,15,,,,,,,,,14,11,110,,,
123893,control_change,9,0,13,,,,,,,,,12,11,107,,,
123894,control_change,9,0,11,,,,,,,,,10,11,104,,,
123897,control_change,9,0,14,,,,,,,,,13,11,107,,,
123897,control_change,9,0,12,,,,,,,,,11,11,104,,,
123899,control_change,9,0,15,,,,,,,,,14,11,107,,,
123900,note_on,6,0,11,,,,,,,,,10,,,,67,112
123902,control_change,9,0,13,,,,,,,,,12,11,104,,,
123903,note_on,6,0,12,,,,,,,,,11,,,,67,112
123906,control_change,9,0,14,,,,,,,,,13,11,104,,,
123908,note_on,6,0,13,,,,,,,,,12,,,,67,112
123908,control_change,9,0,15,,,,,,,,,14,11,104,,,
123912,note_on,6,0,14,,,,,,,,,13,,,,55,112
123914,note_on,6,0,15,,,,,,,,,14,,,,43,112
123930,note_on,30,0,11,,,,,,,,,10,,,,67,0
123933,note_on,30,0,12,,,,,,,,,11,,,,67,0
123938,note_on,30,0,13,,,,,,,,,12,,,,67,0
123942,note_on,30,0,14,,,,,,,,,13,,,,55,0
123944,note_on,30,0,15,,,,,,,,,14,,,,43,0
123960,note_on,30,0,11,,,,,,,,,10,,,,68,112
123962,note_on,120,0,7,,,,,,,,,6,,,,60,0
123962,note_on,0,0,7,,,,,,,,,6,,,,60,112
123963,note_on,30,0,12,,,,,,,,,11,,,,68,112
123968,note_on,30,0,13,,,,,,,,,12,,,,68,112
123972,note_on,30,0,14,,,,,,,,,13,,,,56,112
123974,note_on,30,0,15,,,,,,,,,14,,,,44,112
123975,note_on,0,0,10,,,,,,,,,15,,,,48,71
123975,note_on,120,0,10,,,,,,,,,15,,,,48,0
123990,note_on,30,0,11,,,,,,,,,10,,,,68,0
123993,note_on,30,0,12,,,,,,,,,11,,,,68,0
123998,note_on,30,0,13,,,,,,,,,12,,,,68,0
124002,note_on,30,0,14,,,,,,,,,13,,,,56,0
124004,note_on,30,0,15,,,,,,,,,14,,,,44,0
124020,note_on,30,0,11,,,,,,,,,10,,,,67,112
124023,note_on,30,0,12,,,,,,,,,11,,,,67,112
124028,note_on,30,0,13,,,,,,,,,12,,,,67,112
124032,note_on,30,0,14,,,,,,,,,13,,,,55,112
124034,note_on,30,0,15,,,,,,,,,14,,,,43,112
124050,note_on,30,0,11,,,,,,,,,10,,,,67,0
124053,note_on,30,0,12,,,,,,,,,11,,,,67,0
124058,note_on,30,0,13,,,,,,,,,12,,,,67,0
124062,note_on,30,0,14,,,,,,,,,13,,,,55,0
124064,note_on,30,0,15,,,,,,,,,14,,,,43,0
124080,note_on,30,0,11,,,,,,,,,10,,,,68,112
124080,set_tempo,240,1,0,,,,,,280374,,,,,,,,
124081,note_on,0,0,1,,,,,,,,,0,,,,84,101
124081,control_change,240,0,1,,,,,,,,,0,11,101,,,
124081,note_on,0,0,1,,,,,,,,,0,,,,88,101
124082,note_on,120,0,7,,,,,,,,,6,,,,60,0
124083,note_on,30,0,12,,,,,,,,,11,,,,68,112
124083,note_on,0,0,5,,,,,,,,,4,,,,55,100
124083,control_change,240,0,5,,,,,,,,,4,11,122,,,
124084,note_on,0,0,2,,,,,,,,,1,,,,79,100
124084,control_change,0,0,6,,,,,,,,,5,11,122,,,
124084,note_on,240,0,6,,,,,,,,,5,,,,48,100
124084,note_on,240,0,2,,,,,,,,,1,,,,76,100
124084,control_change,0,0,2,,,,,,,,,1,11,101,,,
124085,note_on,0,0,3,,,,,,,,,2,,,,67,101
124085,note_on,0,0,3,,,,,,,,,2,,,,72,101
124085,control_change,240,0,3,,,,,,,,,2,11,101,,,
124087,note_on,0,0,8,,,,,,,,,7,,,,55,110
124087,control_change,0,0,8,,,,,,,,,7,11,122,,,
124087,note_on,240,0,8,,,,,,,,,7,,,,64,110
124088,note_on,30,0,13,,,,,,,,,12,,,,68,112
124088,control_change,7,0,1,,,,,,,,,0,11,98,,,
124089,note_on,0,0,4,,,,,,,,,3,,,,60,100
124089,control_change,0,0,4,,,,,,,,,3,11,117,,,
124089,note_on,240,0,4,,,,,,,,,3,,,,64,100
124090,control_change,7,0,5,,,,,,,,,4,11,119,,,
124091,control_change,7,0,2,,,,,,,,,1,11,98,,,
124091,control_change,7,0,6,,,,,,,,,5,11,119,,,
124092,control_change,7,0,3,,,,,,,,,2,11,98,,,
124092,note_on,30,0,14,,,,,,,,,13,,,,56,112
124093,note_on,240,0,9,,,,,,,,,8,,,,48,110
124093,control_change,0,0,9,,,,,,,,,8,11,122,,,
124094,control_change,7,0,8,,,,,,,,,7,11,119,,,
124094,note_on,30,0,15,,,,,,,,,14,,,,44,112
124095,note_on,120,0,10,,,,,,,,,15,,,,48,0
124096,control_change,7,0,4,,,,,,,,,3,11,114,,,
124098,control_change,8,0,5,,,,,,,,,4,11,116,,,
124099,control_change,8,0,6,,,,,,,,,5,11,116,,,
124100,control_change,7,0,9,,,,,,,,,8,11,119,,,
124102,control_change,8,0,8,,,,,,,,,7,11,116,,,
124103,control_change,15,0,1,,,,,,,,,0,11,94,,,
124104,control_change,8,0,4,,,,,,,,,3,11,111,,,
124105,control_change,7,0,5,,,,,,,,,4,11,113,,,
124106,control_change,7,0,6,,,,,,,,,5,11,113,,,
124106,control_change,15,0,2,,,,,,,,,1,11,94,,,
124107,control_change,15,0,3,,,,,,,,,2,11,94,,,
124108,control_change,8,0,9,,,,,,,,,8,11,116,,,
124109,control_change,7,0,8,,,,,,,,,7,11,113,,,
124110,note_on,30,0,11,,,,,,,,,10,,,,68,0
124111,control_change,7,0,4,,,,,,,,,3,11,108,,,
124113,note_on,30,0,12,,,,,,,,,11,,,,68,0
124113,control_change,8,0,5,,,,,,,,,4,11,110,,,
124114,control_change,8,0,6,,,,,,,,,5,11,110,,,
124115,control_change,7,0,9,,,,,,,,,8,11,113,,,
124117,control_change,8,0,8,,,,,,,,,7,11,110,,,
124118,note_on,30,0,13,,,,,,,,,12,,,,68,0
124118,control_change,15,0,1,,,,,,,,,0,11,89,,,
124119,control_change,8,0,4,,,,,,,,,3,11,105,,,
124120,control_change,7,0,5,,,,,,,,,4,11,107,,,
124121,control_change,7,0,6,,,,,,,,,5,11,107,,,
124121,control_change,15,0,2,,,,,,,,,1,11,89,,,
124122,note_on,30,0,14,,,,,,,,,13,,,,56,0
124122,control_change,15,0,3,,,,,,,,,2,11,89,,,
124123,control_change,8,0,9,,,,,,,,,8,11,110,,,
124124,control_change,7,0,8,,,,,,,,,7,11,107,,,
124124,note_on,30,0,15,,,,,,,,,14,,,,44,0
124126,control_change,7,0,4,,,,,,,,,3,11,102,,,
124128,control_change,8,0,5,,,,,,,,,4,11,104,,,
124129,control_change,8,0,6,,,,,,,,,5,11,104,,,
124130,control_change,7,0,9,,,,,,,,,8,11,107,,,
124132,control_change,8,0,8,,,,,,,,,7,11,104,,,
124134,control_change,8,0,4,,,,,,,,,3,11,99,,,
124138,control_change,8,0,9,,,,,,,,,8,11,104,,,
124140,note_on,30,0,11,,,,,,,,,10,,,,67,112
124143,note_on,30,0,12,,,,,,,,,11,,,,67,112
124148,note_on,30,0,13,,,,,,,,,12,,,,67,112
124152,note_on,30,0,14,,,,,,,,,13,,,,55,112
124154,note_on,30,0,15,,,,,,,,,14,,,,43,112
124170,note_on,30,0,11,,,,,,,,,10,,,,67,0
124173,note_on,30,0,12,,,,,,,,,11,,,,67,0
124178,note_on,30,0,13,,,,,,,,,12,,,,67,0
124182,note_on,30,0,14,,,,,,,,,13,,,,55,0
124184,note_on,30,0,15,,,,,,,,,14,,,,43,0
124200,control_change,0,0,11,,,,,,,,,10,11,122,,,
124200,note_on,30,0,11,,,,,,,,,10,,,,64,112
124200,set_tempo,120,1,0,,,,,,265487,,,,,,,,
124201,note_on,83,0,1,,,,,,,,,0,,,,88,0
124201,note_on,0,0,1,,,,,,,,,0,,,,84,0
124202,note_on,120,0,7,,,,,,,,,6,,,,60,112
124203,note_on,30,0,12,,,,,,,,,11,,,,64,112
124203,control_change,0,0,12,,,,,,,,,11,11,122,,,
124203,note_on,75,0,5,,,,,,,,,4,,,,55,0
124204,note_on,75,0,6,,,,,,,,,5,,,,48,0
124204,note_on,83,0,2,,,,,,,,,1,,,,79,0
124204,note_on,0,0,2,,,,,,,,,1,,,,76,0
124205,note_on,83,0,3,,,,,,,,,2,,,,67,0
124205,note_on,0,0,3,,,,,,,,,2,,,,72,0
124207,note_on,75,0,8,,,,,,,,,7,,,,55,0
124207,note_on,0,0,8,,,,,,,,,7,,,,64,0
124208,control_change,0,0,13,,,,,,,,,12,11,122,,,
124208,note_on,30,0,13,,,,,,,,,12,,,,64,112
124209,control_change,9,0,11,,,,,,,,,10,11,119,,,
124209,note_on,75,0,4,,,,,,,,,3,,,,60,0
124209,note_on,0,0,4,,,,,,,,,3,,,,64,0
124212,control_change,9,0,12,,,,,,,,,11,11,119,,,
124212,control_change,0,0,14,,,,,,,,,13,11,122,,,
124212,note_on,30,0,14,,,,,,,,,13,,,,52,112
124213,note_on,75,0,9,,,,,,,,,8,,,,48,0
124214,control_change,30,0,15,,,,,,,,,14,11,122,,,
124214,note_on,0,0,15,,,,,,,,,14,,,,40,112
124215,note_on,120,0,10,,,,,,,,,15,,,,48,71
124217,control_change,9,0,13,,,,,,,,,12,11,119,,,
124218,control_change,9,0,11,,,,,,,,,10,11,116,,,
124221,control_change,9,0,12,,,,,,,,,11,11,116,,,
124221,control_change,9,0,14,,,,,,,,,13,11,119,,,
124223,control_change,9,0,15,,,,,,,,,14,11,119,,,
124226,control_change,9,0,13,,,,,,,,,12,11,116,,,
124227,control_change,9,0,11,,,,,,,,,10,11,113,,,
124230,note_on,3,0,11,,,,,,,,,10,,,,64,0
124230,control_change,9,0,14,,,,,,,,,13,11,116,,,
124230,control_change,9,0,12,,,,,,,,,11,11,113,,,
124232,control_change,9,0,15,,,,,,,,,14,11,116,,,
124233,note_on,3,0,12,,,,,,,,,11,,,,64,0
124235,control_change,9,0,13,,,,,,,,,12,11,113,,,
124236,control_change,6,0,11,,,,,,,,,10,11,110,,,
124238,note_on,3,0,13,,,,,,,,,12,,,,64,0
124239,control_change,6,0,12,,,,,,,,,11,11,110,,,
124239,control_change,9,0,14,,,,,,,,,13,11,113,,,
124241,control_change,9,0,15,,,,,,,,,14,11,113,,,
124242,note_on,3,0,14,,,,,,,,,13,,,,52,0
124244,control_change,6,0,13,,,,,,,,,12,11,110,,,
124244,note_on,3,0,15,,,,,,,,,14,,,,40,0
124245,control_change,9,0,11,,,,,,,,,10,11,107,,,
124248,control_change,9,0,12,,,,,,,,,11,11,107,,,
124248,control_change,6,0,14,,,,,,,,,13,11,110,,,
124250,control_change,6,0,15,,,,,,,,,14,11,110,,,
124253,control_change,9,0,13,,,,,,,,,12,11,107,,,
124254,control_change,9,0,11,,,,,,,,,10,11,104,,,
124257,control_change,9,0,14,,,,,,,,,13,11,107,,,
124257,control_change,9,0,12,,,,,,,,,11,11,104,,,
124259,control_change,9,0,15,,,,,,,,,14,11,107,,,
124260,note_on,6,0,11,,,,,,,,,10,,,,64,112
124262,control_change,9,0,13,,,,,,,,,12,11,104,,,
124263,note_on,6,0,12,,,,,,,,,11,,,,64,112
124266,control_change,9,0,14,,,,,,,,,13,11,104,,,
124268,control_change,9,0,15,,,,,,,,,14,11,104,,,
124268,note_on,6,0,13,,,,,,,,,12,,,,64,112
124272,note_on,6,0,14,,,,,,,,,13,,,,52,112
124274,note_on,6,0,15,,,,,,,,,14,,,,40,112
124290,note_on,30,0,11,,,,,,,,,10,,,,64,0
124293,note_on,30,0,12,,,,,,,,,11,,,,64,0
124298,note_on,30,0,13,,,,,,,,,12,,,,64,0
124302,note_on,30,0,14,,,,,,,,,13,,,,52,0
124304,note_on,30,0,15,,,,,,,,,14,,,,40,0
124320,note_on,30,0,11,,,,,,,,,10,,,,65,112
124322,note_on,0,0,7,,,,,,,,,6,,,,60,112
124322,note_on,120,0,7,,,,,,,,,6,,,,60,0
124323,note_on,30,0,12,,,,,,,,,11,,,,65,112
124328,note_on,30,0,13,,,,,,,,,12,,,,65,112
124332,note_on,30,0,14,,,,,,,,,13,,,,53,112
124334,note_on,30,0,15,,,,,,,,,14,,,,41,112
124335,note_on,120,0,10,,,,,,,,,15,,,,48,0
124335,note_on,0,0,10,,,,,,,,,15,,,,48,71
124350,note_on,30,0,11,,,,,,,,,10,,,,65,0
124353,note_on,30,0,12,,,,,,,,,11,,,,65,0
124358,note_on,30,0,13,,,,,,,,,12,,,,65,0
124362,note_on,30,0,14,,,,,,,,,13,,,,53,0
124364,note_on,30,0,15,,,,,,,,,14,,,,41,0
124380,note_on,30,0,11,,,,,,,,,10,,,,64,112
124383,note_on,30,0,12,,,,,,,,,11,,,,64,112
124388,note_on,30,0,13,,,,,,,,,12,,,,64,112
124392,note_on,30,0,14,,,,,,,,,13,,,,52,112
124394,note_on,30,0,15,,,,,,,,,14,,,,40,112
124410,note_on,30,0,11,,,,,,,,,10,,,,64,0
124413,note_on,30,0,12,,,,,,,,,11,,,,64,0
124418,note_on,30,0,13,,,,,,,,,12,,,,64,0
124422,note_on,30,0,14,,,,,,,,,13,,,,52,0
124424,note_on,30,0,15,,,,,,,,,14,,,,40,0
124440,set_tempo,240,1,0,,,,,,280374,,,,,,,,
124440,note_on,30,0,11,,,,,,,,,10,,,,65,112
124441,control_change,0,0,1,,,,,,,,,0,11,101,,,
124441,note_on,0,0,1,,,,,,,,,0,,,,88,101
124441,note_on,240,0,1,,,,,,,,,0,,,,84,101
124442,note_on,120,0,7,,,,,,,,,6,,,,60,0
124443,note_on,30,0,12,,,,,,,,,11,,,,65,112
124443,control_change,240,0,5,,,,,,,,,4,11,122,,,
124443,note_on,0,0,5,,,,,,,,,4,,,,55,100
124444,control_change,0,0,6,,,,,,,,,5,11,122,,,
124444,note_on,0,0,2,,,,,,,,,1,,,,76,100
124444,control_change,0,0,2,,,,,,,,,1,11,101,,,
124444,note_on,240,0,2,,,,,,,,,1,,,,79,100
124444,note_on,240,0,6,,,,,,,,,5,,,,48,100
124445,control_change,240,0,3,,,,,,,,,2,11,101,,,
124445,note_on,0,0,3,,,,,,,,,2,,,,67,101
124445,note_on,0,0,3,,,,,,,,,2,,,,72,101
124447,control_change,0,0,8,,,,,,,,,7,11,122,,,
124447,note_on,0,0,8,,,,,,,,,7,,,,64,110
124447,note_on,240,0,8,,,,,,,,,7,,,,55,110
124448,note_on,30,0,13,,,,,,,,,12,,,,65,112
124448,control_change,7,0,1,,,,,,,,,0,11,98,,,
124449,note_on,0,0,4,,,,,,,,,3,,,,64,100
124449,note_on,0,0,4,,,,,,,,,3,,,,60,100
124449,control_change,240,0,4,,,,,,,,,3,11,117,,,
124450,control_change,7,0,5,,,,,,,,,4,11,119,,,
124451,control_change,7,0,6,,,,,,,,,5,11,119,,,
124451,control_change,7,0,2,,,,,,,,,1,11,98,,,
124452,note_on,30,0,14,,,,,,,,,13,,,,53,112
124452,control_change,7,0,3,,,,,,,,,2,11,98,,,
124453,note_on,0,0,9,,,,,,,,,8,,,,48,110
124453,control_change,240,0,9,,,,,,,,,8,11,122,,,
124454,note_on,30,0,15,,,,,,,,,14,,,,41,112
124454,control_change,7,0,8,,,,,,,,,7,11,119,,,
124455,note_on,120,0,10,,,,,,,,,15,,,,48,0
124456,control_change,7,0,4,,,,,,,,,3,11,114,,,
124458,control_change,8,0,5,,,,,,,,,4,11,116,,,
124459,control_change,8,0,6,,,,,,,,,5,11,116,,,
124460,control_change,7,0,9,,,,,,,,,8,11,119,,,
124462,control_change,8,0,8,,,,,,,,,7,11,116,,,
124463,control_change,15,0,1,,,,,,,,,0,11,94,,,
124464,control_change,8,0,4,,,,,,,,,3,11,111,,,
124465,control_change,7,0,5,,,,,,,,,4,11,113,,,
124466,control_change,15,0,2,,,,,,,,,1,11,94,,,
124466,control_change,7,0,6,,,,,,,,,5,11,113,,,
124467,control_change,15,0,3,,,,,,,,,2,11,94,,,
124468,control_change,8,0,9,,,,,,,,,8,11,116,,,
124469,control_change,7,0,8,,,,,,,,,7,11,113,,,
124470,note_on,30,0,11,,,,,,,,,10,,,,65,0
124471,control_change,7,0,4,,,,,,,,,3,11,108,,,
124473,note_on,30,0,12,,,,,,,,,11,,,,65,0
124473,control_change,8,0,5,,,,,,,,,4,11,110,,,
124474,control_change,8,0,6,,,,,,,,,5,11,110,,,
124475,control_change,7,0,9,,,,,,,,,8,11,113,,,
124477,control_change,8,0,8,,,,,,,,,7,11,110,,,
124478,note_on,30,0,13,,,,,,,,,12,,,,65,0
124478,control_change,15,0,1,,,,,,,,,0,11,89,,,
124479,control_change,8,0,4,,,,,,,,,3,11,105,,,
124480,control_change,7,0,5,,,,,,,,,4,11,107,,,
124481,control_change,15,0,2,,,,,,,,,1,11,89,,,
124481,control_change,7,0,6,,,,,,,,,5,11,107,,,
124482,control_change,15,0,3,,,,,,,,,2,11,89,,,
124482,note_on,30,0,14,,,,,,,,,13,,,,53,0
124483,control_change,8,0,9,,,,,,,,,8,11,110,,,
124484,note_on,30,0,15,,,,,,,,,14,,,,41,0
124484,control_change,7,0,8,,,,,,,,,7,11,107,,,
124486,control_change,7,0,4,,,,,,,,,3,11,102,,,
124488,control_change,8,0,5,,,,,,,,,4,11,104,,,
124489,control_change,8,0,6,,,,,,,,,5,11,104,,,
124490,control_change,7,0,9,,,,,,,,,8,11,107,,,
124492,control_change,8,0,8,,,,,,,,,7,11,104,,,
124494,control_change,8,0,4,,,,,,,,,3,11,99,,,
124498,control_change,8,0,9,,,,,,,,,8,11,104,,,
124500,note_on,30,0,11,,,,,,,,,10,,,,64,112
124503,note_on,30,0,12,,,,,,,,,11,,,,64,112
124508,note_on,30,0,13,,,,,,,,,12,,,,64,112
124512,note_on,30,0,14,,,,,,,,,13,,,,52,112
124514,note_on,30,0,15,,,,,,,,,14,,,,40,112
124530,note_on,30,0,11,,,,,,,,,10,,,,64,0
124533,note_on,30,0,12,,,,,,,,,11,,,,64,0
124538,note_on,30,0,13,,,,,,,,,12,,,,64,0
124542,note_on,30,0,14,,,,,,,,,13,,,,52,0
124544,note_on,30,0,15,,,,,,,,,14,,,,40,0
124560,set_tempo,120,1,0,,,,,,265487,,,,,,,,
124560,control_change,30,0,11,,,,,,,,,10,11,122,,,
124560,note_on,0,0,11,,,,,,,,,10,,,,60,112
124561,note_on,83,0,1,,,,,,,,,0,,,,88,0
124561,note_on,0,0,1,,,,,,,,,0,,,,84,0
124562,note_on,120,0,7,,,,,,,,,6,,,,60,112
124563,control_change,0,0,12,,,,,,,,,11,11,122,,,
124563,note_on,30,0,12,,,,,,,,,11,,,,60,112
124563,note_on,75,0,5,,,,,,,,,4,,,,55,0
124564,note_on,0,0,2,,,,,,,,,1,,,,79,0
124564,note_on,75,0,6,,,,,,,,,5,,,,48,0
124564,note_on,83,0,2,,,,,,,,,1,,,,76,0
124565,note_on,0,0,3,,,,,,,,,2,,,,67,0
124565,note_on,83,0,3,,,,,,,,,2,,,,72,0
124567,note_on,75,0,8,,,,,,,,,7,,,,64,0
124567,note_on,0,0,8,,,,,,,,,7,,,,55,0
124568,note_on,0,0,13,,,,,,,,,12,,,,60,112
124568,control_change,30,0,13,,,,,,,,,12,11,122,,,
124569,note_on,0,0,4,,,,,,,,,3,,,,60,0
124569,note_on,75,0,4,,,,,,,,,3,,,,64,0
124569,control_change,9,0,11,,,,,,,,,10,11,119,,,
124572,control_change,9,0,12,,,,,,,,,11,11,119,,,
124572,control_change,0,0,14,,,,,,,,,13,11,122,,,
124572,note_on,30,0,14,,,,,,,,,13,,,,48,112
124573,note_on,75,0,9,,,,,,,,,8,,,,48,0
124574,control_change,0,0,15,,,,,,,,,14,11,122,,,
124574,note_on,30,0,15,,,,,,,,,14,,,,36,112
124575,note_on,120,0,10,,,,,,,,,15,,,,48,71
124577,control_change,9,0,13,,,,,,,,,12,11,119,,,
124578,control_change,9,0,11,,,,,,,,,10,11,116,,,
124581,control_change,9,0,12,,,,,,,,,11,11,116,,,
124581,control_change,9,0,14,,,,,,,,,13,11,119,,,
124583,control_change,9,0,15,,,,,,,,,14,11,119,,,
124586,control_change,9,0,13,,,,,,,,,12,11,116,,,
124587,control_change,9,0,11,,,,,,,,,10,11,113,,,
124590,note_on,3,0,11,,,,,,,,,10,,,,60,0
124590,control_change,9,0,14,,,,,,,,,13,11,116,,,
124590,control_change,9,0,12,,,,,,,,,11,11,113,,,
124592,control_change,9,0,15,,,,,,,,,14,11,116,,,
124593,note_on,3,0,12,,,,,,,,,11,,,,60,0
124595,control_change,9,0,13,,,,,,,,,12,11,113,,,
124596,control_change,6,0,11,,,,,,,,,10,11,110,,,
124598,note_on,3,0,13,,,,,,,,,12,,,,60,0
124599,control_change,6,0,12,,,,,,,,,11,11,110,,,
124599,control_change,9,0,14,,,,,,,,,13,11,113,,,
124601,control_change,9,0,15,,,,,,,,,14,11,113,,,
124602,note_on,3,0,14,,,,,,,,,13,,,,48,0
124604,control_change,6,0,13,,,,,,,,,12,11,110,,,
124604,note_on,3,0,15,,,,,,,,,14,,,,36,0
124605,control_change,9,0,11,,,,,,,,,10,11,107,,,
124608,control_change,6,0,14,,,,,,,,,13,11,110,,,
124608,control_change,9,0,12,,,,,,,,,11,11,107,,,
124610,control_change,6,0,15,,,,,,,,,14,11,110,,,
124613,control_change,9,0,13,,,,,,,,,12,11,107,,,
124614,control_change,9,0,11,,,,,,,,,10,11,104,,,
124617,control_change,9,0,12,,,,,,,,,11,11,104,,,
124617,control_change,9,0,14,,,,,,,,,13,11,107,,,
124619,control_change,9,0,15,,,,,,,,,14,11,107,,,
124620,note_on,6,0,11,,,,,,,,,10,,,,60,112
124622,control_change,9,0,13,,,,,,,,,12,11,104,,,
124623,note_on,6,0,12,,,,,,,,,11,,,,60,112
124626,control_change,9,0,14,,,,,,,,,13,11,104,,,
124628,note_on,6,0,13,,,,,,,,,12,,,,60,112
124628,control_change,9,0,15,,,,,,,,,14,11,104,,,
124632,note_on,6,0,14,,,,,,,,,13,,,,48,112
124634,note_on,6,0,15,,,,,,,,,14,,,,36,112
124650,note_on,30,0,11,,,,,,,,,10,,,,60,0
124653,note_on,30,0,12,,,,,,,,,11,,,,60,0
124658,note_on,30,0,13,,,,,,,,,12,,,,60,0
124662,note_on,30,0,14,,,,,,,,,13,,,,48,0
124664,note_on,30,0,15,,,,,,,,,14,,,,36,0
124680,note_on,30,0,11,,,,,,,,,10,,,,61,112
124682,note_on,120,0,7,,,,,,,,,6,,,,60,0
124682,note_on,0,0,7,,,,,,,,,6,,,,60,112
124683,note_on,30,0,12,,,,,,,,,11,,,,61,112
124688,note_on,30,0,13,,,,,,,,,12,,,,61,112
124692,note_on,30,0,14,,,,,,,,,13,,,,49,112
124694,note_on,30,0,15,,,,,,,,,14,,,,37,112
124695,note_on,120,0,10,,,,,,,,,15,,,,48,0
124695,note_on,0,0,10,,,,,,,,,15,,,,48,71
124710,note_on,30,0,11,,,,,,,,,10,,,,61,0
124713,note_on,30,0,12,,,,,,,,,11,,,,61,0
124718,note_on,30,0,13,,,,,,,,,12,,,,61,0
124722,note_on,30,0,14,,,,,,,,,13,,,,49,0
124724,note_on,30,0,15,,,,,,,,,14,,,,37,0
124740,note_on,30,0,11,,,,,,,,,10,,,,60,112
124743,note_on,30,0,12,,,,,,,,,11,,,,60,112
124748,note_on,30,0,13,,,,,,,,,12,,,,60,112
124752,note_on,30,0,14,,,,,,,,,13,,,,48,112
124754,note_on,30,0,15,,,,,,,,,14,,,,36,112
124770,note_on,30,0,11,,,,,,,,,10,,,,60,0
124773,note_on,30,0,12,,,,,,,,,11,,,,60,0
124778,note_on,30,0,13,,,,,,,,,12,,,,60,0
124782,note_on,30,0,14,,,,,,,,,13,,,,48,0
124784,note_on,30,0,15,,,,,,,,,14,,,,36,0
124800,set_tempo,240,1,0,,,,,,280374,,,,,,,,
124800,note_on,30,0,11,,,,,,,,,10,,,,61,112
124801,note_on,0,0,1,,,,,,,,,0,,,,88,101
124801,control_change,240,0,1,,,,,,,,,0,11,101,,,
124801,note_on,0,0,1,,,,,,,,,0,,,,84,101
124802,note_on,120,0,7,,,,,,,,,6,,,,60,0
124803,control_change,240,0,5,,,,,,,,,4,11,122,,,
124803,note_on,0,0,5,,,,,,,,,4,,,,55,100
124803,note_on,30,0,12,,,,,,,,,11,,,,61,112
124804,control_change,240,0,6,,,,,,,,,5,11,122,,,
124804,note_on,0,0,6,,,,,,,,,5,,,,48,100
124804,note_on,240,0,2,,,,,,,,,1,,,,79,100
124804,control_change,0,0,2,,,,,,,,,1,11,101,,,
124804,note_on,0,0,2,,,,,,,,,1,,,,76,100
124805,control_change,0,0,3,,,,,,,,,2,11,101,,,
124805,note_on,0,0,3,,,,,,,,,2,,,,67,101
124805,note_on,240,0,3,,,,,,,,,2,,,,72,101
124807,note_on,0,0,8,,,,,,,,,7,,,,64,110
124807,note_on,0,0,8,,,,,,,,,7,,,,55,110
124807,control_change,240,0,8,,,,,,,,,7,11,122,,,
124808,note_on,30,0,13,,,,,,,,,12,,,,61,112
124808,control_change,7,0,1,,,,,,,,,0,11,98,,,
124809,note_on,0,0,4,,,,,,,,,3,,,,64,100
124809,control_change,240,0,4,,,,,,,,,3,11,117,,,
124809,note_on,0,0,4,,,,,,,,,3,,,,60,100
124810,control_change,7,0,5,,,,,,,,,4,11,119,,,
124811,control_change,7,0,6,,,,,,,,,5,11,119,,,
124811,control_change,7,0,2,,,,,,,,,1,11,98,,,
124812,control_change,7,0,3,,,,,,,,,2,11,98,,,
124812,note_on,30,0,14,,,,,,,,,13,,,,49,112
124813,control_change,0,0,9,,,,,,,,,8,11,122,,,
124813,note_on,240,0,9,,,,,,,,,8,,,,48,110
124814,control_change,7,0,8,,,,,,,,,7,11,119,,,
124814,note_on,30,0,15,,,,,,,,,14,,,,37,112
124815,note_on,120,0,10,,,,,,,,,15,,,,48,0
124816,control_change,7,0,4,,,,,,,,,3,11,114,,,
124818,control_change,8,0,5,,,,,,,,,4,11,116,,,
124819,control_change,8,0,6,,,,,,,,,5,11,116,,,
124820,control_change,7,0,9,,,,,,,,,8,11,119,,,
124822,control_change,8,0,8,,,,,,,,,7,11,116,,,
124823,control_change,15,0,1,,,,,,,,,0,11,94,,,
124824,control_change,8,0,4,,,,,,,,,3,11,111,,,
124825,control_change,7,0,5,,,,,,,,,4,11,113,,,
124826,control_change,7,0,6,,,,,,,,,5,11,113,,,
124826,control_change,15,0,2,,,,,,,,,1,11,94,,,
124827,control_change,15,0,3,,,,,,,,,2,11,94,,,
124828,control_change,8,0,9,,,,,,,,,8,11,116,,,
124829,control_change,7,0,8,,,,,,,,,7,11,113,,,
124830,note_on,30,0,11,,,,,,,,,10,,,,61,0
124831,control_change,7,0,4,,,,,,,,,3,11,108,,,
124833,note_on,30,0,12,,,,,,,,,11,,,,61,0
124833,control_change,8,0,5,,,,,,,,,4,11,110,,,
124834,control_change,8,0,6,,,,,,,,,5,11,110,,,
124835,control_change,7,0,9,,,,,,,,,8,11,113,,,
124837,control_change,8,0,8,,,,,,,,,7,11,110,,,
124838,control_change,15,0,1,,,,,,,,,0,11,89,,,
124838,note_on,30,0,13,,,,,,,,,12,,,,61,0
124839,control_change,8,0,4,,,,,,,,,3,11,105,,,
124840,control_change,7,0,5,,,,,,,,,4,11,107,,,
124841,control_change,15,0,2,,,,,,,,,1,11,89,,,
124841,control_change,7,0,6,,,,,,,,,5,11,107,,,
124842,control_change,15,0,3,,,,,,,,,2,11,89,,,
124842,note_on,30,0,14,,,,,,,,,13,,,,49,0
124843,control_change,8,0,9,,,,,,,,,8,11,110,,,
124844,note_on,30,0,15,,,,,,,,,14,,,,37,0
124844,control_change,7,0,8,,,,,,,,,7,11,107,,,
124846,control_change,7,0,4,,,,,,,,,3,11,102,,,
124848,control_change,8,0,5,,,,,,,,,4,11,104,,,
124849,control_change,8,0,6,,,,,,,,,5,11,104,,,
124850,control_change,7,0,9,,,,,,,,,8,11,107,,,
124852,control_change,8,0,8,,,,,,,,,7,11,104,,,
124854,control_change,8,0,4,,,,,,,,,3,11,99,,,
124858,control_change,8,0,9,,,,,,,,,8,11,104,,,
124860,note_on,30,0,11,,,,,,,,,10,,,,60,112
124863,note_on,30,0,12,,,,,,,,,11,,,,60,112
124868,note_on,30,0,13,,,,,,,,,12,,,,60,112
124872,note_on,30,0,14,,,,,,,,,13,,,,48,112
124874,note_on,30,0,15,,,,,,,,,14,,,,36,112
124890,note_on,30,0,11,,,,,,,,,10,,,,60,0
124893,note_on,30,0,12,,,,,,,,,11,,,,60,0
124898,note_on,30,0,13,,,,,,,,,12,,,,60,0
124902,note_on,30,0,14,,,,,,,,,13,,,,48,0
124904,note_on,30,0,15,,,,,,,,,14,,,,36,0
124920,set_tempo,120,1,0,,,,,,265487,,,,,,,,
124920,note_on,0,0,11,,,,,,,,,10,,,,77,112
124920,control_change,30,0,11,,,,,,,,,10,11,122,,,
124921,note_on,0,0,1,,,,,,,,,0,,,,84,0
124921,note_on,83,0,1,,,,,,,,,0,,,,88,0
124922,note_on,120,0,7,,,,,,,,,6,,,,72,112
124922,note_on,0,0,7,,,,,,,,,6,,,,60,112
124923,control_change,30,0,12,,,,,,,,,11,11,122,,,
124923,note_on,75,0,5,,,,,,,,,4,,,,55,0
124923,note_on,0,0,12,,,,,,,,,11,,,,77,112
124924,note_on,0,0,2,,,,,,,,,1,,,,79,0
124924,note_on,83,0,2,,,,,,,,,1,,,,76,0
124924,note_on,75,0,6,,,,,,,,,5,,,,48,0
124925,note_on,83,0,3,,,,,,,,,2,,,,67,0
124925,note_on,0,0,3,,,,,,,,,2,,,,72,0
124927,note_on,75,0,8,,,,,,,,,7,,,,55,0
124927,note_on,0,0,8,,,,,,,,,7,,,,64,0
124928,control_change,30,0,13,,,,,,,,,12,11,122,,,
124928,note_on,0,0,13,,,,,,,,,12,,,,65,112
124929,note_on,75,0,4,,,,,,,,,3,,,,60,0
124929,note_on,0,0,4,,,,,,,,,3,,,,64,0
124929,control_change,9,0,11,,,,,,,,,10,11,119,,,
124932,control_change,9,0,12,,,,,,,,,11,11,119,,,
124932,control_change,30,0,14,,,,,,,,,13,11,122,,,
124932,note_on,0,0,14,,,,,,,,,13,,,,65,112
124933,note_on,75,0,9,,,,,,,,,8,,,,48,0
124934,control_change,0,0,15,,,,,,,,,14,11,122,,,
124934,note_on,30,0,15,,,,,,,,,14,,,,53,112
124935,note_on,120,0,10,,,,,,,,,15,,,,48,71
124937,control_change,9,0,13,,,,,,,,,12,11,119,,,
124938,control_change,9,0,11,,,,,,,,,10,11,116,,,
124941,control_change,9,0,12,,,,,,,,,11,11,116,,,
124941,control_change,9,0,14,,,,,,,,,13,11,119,,,
124943,control_change,9,0,15,,,,,,,,,14,11,119,,,
124946,control_change,9,0,13,,,,,,,,,12,11,116,,,
124947,control_change,9,0,11,,,,,,,,,10,11,113,,,
124950,control_change,9,0,14,,,,,,,,,13,11,116,,,
124950,note_on,3,0,11,,,,,,,,,10,,,,77,0
124950,control_change,9,0,12,,,,,,,,,11,11,113,,,
124952,control_change,9,0,15,,,,,,,,,14,11,116,,,
124953,note_on,3,0,12,,,,,,,,,11,,,,77,0
124955,control_change,9,0,13,,,,,,,,,12,11,113,,,
124956,control_change,6,0,11,,,,,,,,,10,11,110,,,
124958,note_on,3,0,13,,,,,,,,,12,,,,65,0
124959,control_change,9,0,14,,,,,,,,,13,11,113,,,
124959,control_change,6,0,12,,,,,,,,,11,11,110,,,
124961,control_change,9,0,15,,,,,,,,,14,11,113,,,
124962,note_on,3,0,14,,,,,,,,,13,,,,65,0
124964,note_on,3,0,15,,,,,,,,,14,,,,53,0
124964,control_change,6,0,13,,,,,,,,,12,11,110,,,
124965,control_change,9,0,11,,,,,,,,,10,11,107,,,
124968,control_change,6,0,14,,,,,,,,,13,11,110,,,
124968,control_change,9,0,12,,,,,,,,,11,11,107,,,
124970,control_change,6,0,15,,,,,,,,,14,11,110,,,
124973,control_change,9,0,13,,,,,,,,,12,11,107,,,
124974,control_change,9,0,11,,,,,,,,,10,11,104,,,
124977,control_change,9,0,12,,,,,,,,,11,11,104,,,
124977,control_change,9,0,14,,,,,,,,,13,11,107,,,
124979,control_change,9,0,15,,,,,,,,,14,11,107,,,
124980,note_on,6,0,11,,,,,,,,,10,,,,77,112
124982,control_change,9,0,13,,,,,,,,,12,11,104,,,
124983,note_on,6,0,12,,,,,,,,,11,,,,77,112
124986,control_change,9,0,14,,,,,,,,,13,11,104,,,
124988,note_on,6,0,13,,,,,,,,,12,,,,65,112
124988,control_change,9,0,15,,,,,,,,,14,11,104,,,
124992,note_on,6,0,14,,,,,,,,,13,,,,65,112
124994,note_on,6,0,15,,,,,,,,,14,,,,53,112
125010,note_on,30,0,11,,,,,,,,,10,,,,77,0
125013,note_on,30,0,12,,,,,,,,,11,,,,77,0
125018,note_on,30,0,13,,,,,,,,,12,,,,65,0
125022,note_on,30,0,14,,,,,,,,,13,,,,65,0
125024,note_on,30,0,15,,,,,,,,,14,,,,53,0
125040,note_on,30,0,11,,,,,,,,,10,,,,79,112
125042,note_on,120,0,7,,,,,,,,,6,,,,60,0
125042,note_on,0,0,7,,,,,,,,,6,,,,72,112
125042,note_on,0,0,7,,,,,,,,,6,,,,60,112
125042,note_on,0,0,7,,,,,,,,,6,,,,72,0
125043,note_on,30,0,12,,,,,,,,,11,,,,79,112
125048,note_on,30,0,13,,,,,,,,,12,,,,67,112
125052,note_on,30,0,14,,,,,,,,,13,,,,67,112
125054,note_on,30,0,15,,,,,,,,,14,,,,55,112
125055,note_on,0,0,10,,,,,,,,,15,,,,48,71
125055,note_on,120,0,10,,,,,,,,,15,,,,48,0
125070,note_on,30,0,11,,,,,,,,,10,,,,79,0
125073,note_on,30,0,12,,,,,,,,,11,,,,79,0
125078,note_on,30,0,13,,,,,,,,,12,,,,67,0
125082,note_on,30,0,14,,,,,,,,,13,,,,67,0
125084,note_on,30,0,15,,,,,,,,,14,,,,55,0
125100,note_on,30,0,11,,,,,,,,,10,,,,77,112
125103,note_on,30,0,12,,,,,,,,,11,,,,77,112
125108,note_on,30,0,13,,,,,,,,,12,,,,65,112
125112,note_on,30,0,14,,,,,,,,,13,,,,65,112
125114,note_on,30,0,15,,,,,,,,,14,,,,53,112
125130,note_on,30,0,11,,,,,,,,,10,,,,77,0
125133,note_on,30,0,12,,,,,,,,,11,,,,77,0
125138,note_on,30,0,13,,,,,,,,,12,,,,65,0
125142,note_on,30,0,14,,,,,,,,,13,,,,65,0
125144,note_on,30,0,15,,,,,,,,,14,,,,53,0
125160,set_tempo,240,1,0,,,,,,280374,,,,,,,,
125160,note_on,30,0,11,,,,,,,,,10,,,,79,112
125161,note_on,0,0,1,,,,,,,,,0,,,,84,101
125161,control_change,240,0,1,,,,,,,,,0,11,101,,,
125161,note_on,0,0,1,,,,,,,,,0,,,,89,101
125162,note_on,120,0,7,,,,,,,,,6,,,,60,0
125162,note_on,0,0,7,,,,,,,,,6,,,,72,0
125163,note_on,240,0,5,,,,,,,,,4,,,,60,100
125163,control_change,0,0,5,,,,,,,,,4,11,122,,,
125163,note_on,30,0,12,,,,,,,,,11,,,,79,112
125164,control_change,240,0,6,,,,,,,,,5,11,122,,,
125164,note_on,0,0,6,,,,,,,,,5,,,,48,100
125164,note_on,0,0,2,,,,,,,,,1,,,,77,100
125164,note_on,0,0,2,,,,,,,,,1,,,,80,100
125164,control_change,240,0,2,,,,,,,,,1,11,101,,,
125165,note_on,240,0,3,,,,,,,,,2,,,,68,101
125165,control_change,0,0,3,,,,,,,,,2,11,101,,,
125165,note_on,0,0,3,,,,,,,,,2,,,,72,101
125167,note_on,240,0,8,,,,,,,,,7,,,,56,110
125167,control_change,0,0,8,,,,,,,,,7,11,122,,,
125167,note_on,0,0,8,,,,,,,,,7,,,,65,110
125168,note_on,30,0,13,,,,,,,,,12,,,,67,112
125168,control_change,7,0,1,,,,,,,,,0,11,98,,,
125169,control_change,240,0,4,,,,,,,,,3,11,117,,,
125169,note_on,0,0,4,,,,,,,,,3,,,,56,100
125169,note_on,0,0,4,,,,,,,,,3,,,,65,100
125170,control_change,7,0,5,,,,,,,,,4,11,119,,,
125171,control_change,7,0,6,,,,,,,,,5,11,119,,,
125171,control_change,7,0,2,,,,,,,,,1,11,98,,,
125172,note_on,30,0,14,,,,,,,,,13,,,,67,112
125172,control_change,7,0,3,,,,,,,,,2,11,98,,,
125173,note_on,240,0,9,,,,,,,,,8,,,,48,110
125173,control_change,0,0,9,,,,,,,,,8,11,122,,,
125174,control_change,7,0,8,,,,,,,,,7,11,119,,,
125174,note_on,30,0,15,,,,,,,,,14,,,,55,112
125175,note_on,120,0,10,,,,,,,,,15,,,,48,0
125176,control_change,7,0,4,,,,,,,,,3,11,114,,,
125178,control_change,8,0,5,,,,,,,,,4,11,116,,,
125179,control_change,8,0,6,,,,,,,,,5,11,116,,,
125180,control_change,7,0,9,,,,,,,,,8,11,119,,,
125182,control_change,8,0,8,,,,,,,,,7,11,116,,,
125183,control_change,15,0,1,,,,,,,,,0,11,94,,,
125184,control_change,8,0,4,,,,,,,,,3,11,111,,,
125185,control_change,7,0,5,,,,,,,,,4,11,113,,,
125186,control_change,15,0,2,,,,,,,,,1,11,94,,,
125186,control_change,7,0,6,,,,,,,,,5,11,113,,,
125187,control_change,15,0,3,,,,,,,,,2,11,94,,,
125188,control_change,8,0,9,,,,,,,,,8,11,116,,,
125189,control_change,7,0,8,,,,,,,,,7,11,113,,,
125190,note_on,30,0,11,,,,,,,,,10,,,,79,0
125191,control_change,7,0,4,,,,,,,,,3,11,108,,,
125193,control_change,8,0,5,,,,,,,,,4,11,110,,,
125193,note_on,30,0,12,,,,,,,,,11,,,,79,0
125194,control_change,8,0,6,,,,,,,,,5,11,110,,,
125195,control_change,7,0,9,,,,,,,,,8,11,113,,,
125197,control_change,8,0,8,,,,,,,,,7,11,110,,,
125198,note_on,30,0,13,,,,,,,,,12,,,,67,0
125198,control_change,15,0,1,,,,,,,,,0,11,89,,,
125199,control_change,8,0,4,,,,,,,,,3,11,105,,,
125200,control_change,7,0,5,,,,,,,,,4,11,107,,,
125201,control_change,15,0,2,,,,,,,,,1,11,89,,,
125201,control_change,7,0,6,,,,,,,,,5,11,107,,,
125202,note_on,30,0,14,,,,,,,,,13,,,,67,0
125202,control_change,15,0,3,,,,,,,,,2,11,89,,,
125203,control_change,8,0,9,,,,,,,,,8,11,110,,,
125204,control_change,7,0,8,,,,,,,,,7,11,107,,,
125204,note_on,30,0,15,,,,,,,,,14,,,,55,0
125206,control_change,7,0,4,,,,,,,,,3,11,102,,,
125208,control_change,8,0,5,,,,,,,,,4,11,104,,,
125209,control_change,8,0,6,,,,,,,,,5,11,104,,,
125210,control_change,7,0,9,,,,,,,,,8,11,107,,,
125212,control_change,8,0,8,,,,,,,,,7,11,104,,,
125214,control_change,8,0,4,,,,,,,,,3,11,99,,,
125218,control_change,8,0,9,,,,,,,,,8,11,104,,,
125220,note_on,30,0,11,,,,,,,,,10,,,,77,112
125223,note_on,30,0,12,,,,,,,,,11,,,,77,112
125228,note_on,30,0,13,,,,,,,,,12,,,,65,112
125232,note_on,30,0,14,,,,,,,,,13,,,,65,112
125234,note_on,30,0,15,,,,,,,,,14,,,,53,112
125250,note_on,30,0,11,,,,,,,,,10,,,,77,0
125253,note_on,30,0,12,,,,,,,,,11,,,,77,0
125258,note_on,30,0,13,,,,,,,,,12,,,,65,0
125262,note_on,30,0,14,,,,,,,,,13,,,,65,0
125264,note_on,30,0,15,,,,,,,,,14,,,,53,0
125280,control_change,30,0,11,,,,,,,,,10,11,122,,,
125280,set_tempo,120,1,0,,,,,,265487,,,,,,,,
125280,note_on,0,0,11,,,,,,,,,10,,,,72,112
125281,note_on,0,0,1,,,,,,,,,0,,,,84,0
125281,note_on,83,0,1,,,,,,,,,0,,,,89,0
125282,note_on,0,0,7,,,,,,,,,6,,,,60,112
125282,note_on,120,0,7,,,,,,,,,6,,,,72,112
125283,control_change,0,0,12,,,,,,,,,11,11,122,,,
125283,note_on,75,0,5,,,,,,,,,4,,,,60,0
125283,note_on,30,0,12,,,,,,,,,11,,,,72,112
125284,note_on,83,0,2,,,,,,,,,1,,,,77,0
125284,note_on,75,0,6,,,,,,,,,5,,,,48,0
125284,note_on,0,0,2,,,,,,,,,1,,,,80,0
125285,note_on,0,0,3,,,,,,,,,2,,,,68,0
125285,note_on,83,0,3,,,,,,,,,2,,,,72,0
125287,note_on,0,0,8,,,,,,,,,7,,,,56,0
125287,note_on,75,0,8,,,,,,,,,7,,,,65,0
125288,control_change,0,0,13,,,,,,,,,12,11,122,,,
125288,note_on,30,0,13,,,,,,,,,12,,,,60,112
125289,note_on,0,0,4,,,,,,,,,3,,,,56,0
125289,note_on,75,0,4,,,,,,,,,3,,,,65,0
125289,control_change,9,0,11,,,,,,,,,10,11,119,,,
125292,control_change,9,0,12,,,,,,,,,11,11,119,,,
125292,control_change,30,0,14,,,,,,,,,13,11,122,,,
125292,note_on,0,0,14,,,,,,,,,13,,,,60,112
125293,note_on,75,0,9,,,,,,,,,8,,,,48,0
125294,control_change,0,0,15,,,,,,,,,14,11,122,,,
125294,note_on,30,0,15,,,,,,,,,14,,,,48,112
125295,note_on,120,0,10,,,,,,,,,15,,,,48,71
125297,control_change,9,0,13,,,,,,,,,12,11,119,,,
125298,control_change,9,0,11,,,,,,,,,10,11,116,,,
125301,control_change,9,0,14,,,,,,,,,13,11,119,,,
125301,control_change,9,0,12,,,,,,,,,11,11,116,,,
125303,control_change,9,0,15,,,,,,,,,14,11,119,,,
125306,control_change,9,0,13,,,,,,,,,12,11,116,,,
125307,control_change,9,0,11,,,,,,,,,10,11,113,,,
125310,note_on,3,0,11,,,,,,,,,10,,,,72,0
125310,control_change,9,0,14,,,,,,,,,13,11,116,,,
125310,control_change,9,0,12,,,,,,,,,11,11,113,,,
125312,control_change,9,0,15,,,,,,,,,14,11,116,,,
125313,note_on,3,0,12,,,,,,,,,11,,,,72,0
125315,control_change,9,0,13,,,,,,,,,12,11,113,,,
125316,control_change,6,0,11,,,,,,,,,10,11,110,,,
125318,note_on,3,0,13,,,,,,,,,12,,,,60,0
125319,control_change,6,0,12,,,,,,,,,11,11,110,,,
125319,control_change,9,0,14,,,,,,,,,13,11,113,,,
125321,control_change,9,0,15,,,,,,,,,14,11,113,,,
125322,note_on,3,0,14,,,,,,,,,13,,,,60,0
125324,note_on,3,0,15,,,,,,,,,14,,,,48,0
125324,control_change,6,0,13,,,,,,,,,12,11,110,,,
125325,control_change,9,0,11,,,,,,,,,10,11,107,,,
125328,control_change,9,0,12,,,,,,,,,11,11,107,,,
125328,control_change,6,0,14,,,,,,,,,13,11,110,,,
125330,control_change,6,0,15,,,,,,,,,14,11,110,,,
125333,control_change,9,0,13,,,,,,,,,12,11,107,,,
125334,control_change,9,0,11,,,,,,,,,10,11,104,,,
125337,control_change,9,0,12,,,,,,,,,11,11,104,,,
125337,control_change,9,0,14,,,,,,,,,13,11,107,,,
125339,control_change,9,0,15,,,,,,,,,14,11,107,,,
125340,note_on,6,0,11,,,,,,,,,10,,,,72,112
125342,control_change,9,0,13,,,,,,,,,12,11,104,,,
125343,note_on,6,0,12,,,,,,,,,11,,,,72,112
125346,control_change,9,0,14,,,,,,,,,13,11,104,,,
125348,note_on,6,0,13,,,,,,,,,12,,,,60,112
125348,control_change,9,0,15,,,,,,,,,14,11,104,,,
125352,note_on,6,0,14,,,,,,,,,13,,,,60,112
125354,note_on,6,0,15,,,,,,,,,14,,,,48,112
125370,note_on,30,0,11,,,,,,,,,10,,,,72,0
125373,note_on,30,0,12,,,,,,,,,11,,,,72,0
125378,note_on,30,0,13,,,,,,,,,12,,,,60,0
125382,note_on,30,0,14,,,,,,,,,13,,,,60,0
125384,note_on,30,0,15,,,,,,,,,14,,,,48,0
125400,note_on,30,0,11,,,,,,,,,10,,,,73,112
125402,note_on,0,0,7,,,,,,,,,6,,,,72,0
125402,note_on,0,0,7,,,,,,,,,6,,,,72,112
125402,note_on,120,0,7,,,,,,,,,6,,,,60,0
125402,note_on,0,0,7,,,,,,,,,6,,,,60,112
125403,note_on,30,0,12,,,,,,,,,11,,,,73,112
125408,note_on,30,0,13,,,,,,,,,12,,,,61,112
125412,note_on,30,0,14,,,,,,,,,13,,,,61,112
125414,note_on,30,0,15,,,,,,,,,14,,,,49,112
125415,note_on,120,0,10,,,,,,,,,15,,,,48,0
125415,note_on,0,0,10,,,,,,,,,15,,,,48,71
125430,note_on,30,0,11,,,,,,,,,10,,,,73,0
125433,note_on,30,0,12,,,,,,,,,11,,,,73,0
125438,note_on,30,0,13,,,,,,,,,12,,,,61,0
125442,note_on,30,0,14,,,,,,,,,13,,,,61,0
125444,note_on,30,0,15,,,,,,,,,14,,,,49,0
125460,note_on,30,0,11,,,,,,,,,10,,,,72,112
125463,note_on,30,0,12,,,,,,,,,11,,,,72,112
125468,note_on,30,0,13,,,,,,,,,12,,,,60,112
125472,note_on,30,0,14,,,,,,,,,13,,,,60,112
125474,note_on,30,0,15,,,,,,,,,14,,,,48,112
125490,note_on,30,0,11,,,,,,,,,10,,,,72,0
125493,note_on,30,0,12,,,,,,,,,11,,,,72,0
125498,note_on,30,0,13,,,,,,,,,12,,,,60,0
125502,note_on,30,0,14,,,,,,,,,13,,,,60,0
125504,note_on,30,0,15,,,,,,,,,14,,,,48,0
125520,note_on,30,0,11,,,,,,,,,10,,,,73,112
125520,set_tempo,240,1,0,,,,,,280374,,,,,,,,
125521,note_on,240,0,1,,,,,,,,,0,,,,89,101
125521,control_change,0,0,1,,,,,,,,,0,11,101,,,
125521,note_on,0,0,1,,,,,,,,,0,,,,84,101
125522,note_on,0,0,7,,,,,,,,,6,,,,60,0
125522,note_on,120,0,7,,,,,,,,,6,,,,72,0
125523,control_change,240,0,5,,,,,,,,,4,11,122,,,
125523,note_on,0,0,5,,,,,,,,,4,,,,60,100
125523,note_on,30,0,12,,,,,,,,,11,,,,73,112
125524,note_on,0,0,2,,,,,,,,,1,,,,77,100
125524,control_change,240,0,2,,,,,,,,,1,11,101,,,
125524,note_on,0,0,2,,,,,,,,,1,,,,80,100
125524,note_on,240,0,6,,,,,,,,,5,,,,48,100
125524,control_change,0,0,6,,,,,,,,,5,11,122,,,
125525,control_change,240,0,3,,,,,,,,,2,11,101,,,
125525,note_on,0,0,3,,,,,,,,,2,,,,68,101
125525,note_on,0,0,3,,,,,,,,,2,,,,72,101
125527,control_change,240,0,8,,,,,,,,,7,11,122,,,
125527,note_on,0,0,8,,,,,,,,,7,,,,56,110
125527,note_on,0,0,8,,,,,,,,,7,,,,65,110
125528,control_change,7,0,1,,,,,,,,,0,11,98,,,
125528,note_on,30,0,13,,,,,,,,,12,,,,61,112
125529,note_on,0,0,4,,,,,,,,,3,,,,65,100
125529,control_change,0,0,4,,,,,,,,,3,11,117,,,
125529,note_on,240,0,4,,,,,,,,,3,,,,56,100
125530,control_change,7,0,5,,,,,,,,,4,11,119,,,
125531,control_change,7,0,2,,,,,,,,,1,11,98,,,
125531,control_change,7,0,6,,,,,,,,,5,11,119,,,
125532,note_on,30,0,14,,,,,,,,,13,,,,61,112
125532,control_change,7,0,3,,,,,,,,,2,11,98,,,
125533,note_on,0,0,9,,,,,,,,,8,,,,48,110
125533,control_change,240,0,9,,,,,,,,,8,11,122,,,
125534,note_on,30,0,15,,,,,,,,,14,,,,49,112
125534,control_change,7,0,8,,,,,,,,,7,11,119,,,
125535,note_on,120,0,10,,,,,,,,,15,,,,48,0
125536,control_change,7,0,4,,,,,,,,,3,11,114,,,
125538,control_change,8,0,5,,,,,,,,,4,11,116,,,
125539,control_change,8,0,6,,,,,,,,,5,11,116,,,
125540,control_change,7,0,9,,,,,,,,,8,11,119,,,
125542,control_change,8,0,8,,,,,,,,,7,11,116,,,
125543,control_change,15,0,1,,,,,,,,,0,11,94,,,
125544,control_change,8,0,4,,,,,,,,,3,11,111,,,
125545,control_change,7,0,5,,,,,,,,,4,11,113,,,
125546,control_change,7,0,6,,,,,,,,,5,11,113,,,
125546,control_change,15,0,2,,,,,,,,,1,11,94,,,
125547,control_change,15,0,3,,,,,,,,,2,11,94,,,
125548,control_change,8,0,9,,,,,,,,,8,11,116,,,
125549,control_change,7,0,8,,,,,,,,,7,11,113,,,
125550,note_on,30,0,11,,,,,,,,,10,,,,73,0
125551,control_change,7,0,4,,,,,,,,,3,11,108,,,
125553,control_change,8,0,5,,,,,,,,,4,11,110,,,
125553,note_on,30,0,12,,,,,,,,,11,,,,73,0
125554,control_change,8,0,6,,,,,,,,,5,11,110,,,
125555,control_change,7,0,9,,,,,,,,,8,11,113,,,
125557,control_change,8,0,8,,,,,,,,,7,11,110,,,
125558,note_on,30,0,13,,,,,,,,,12,,,,61,0
125558,control_change,15,0,1,,,,,,,,,0,11,89,,,
125559,control_change,8,0,4,,,,,,,,,3,11,105,,,
125560,control_change,7,0,5,,,,,,,,,4,11,107,,,
125561,control_change,7,0,6,,,,,,,,,5,11,107,,,
125561,control_change,15,0,2,,,,,,,,,1,11,89,,,
125562,note_on,30,0,14,,,,,,,,,13,,,,61,0
125562,control_change,15,0,3,,,,,,,,,2,11,89,,,
125563,control_change,8,0,9,,,,,,,,,8,11,110,,,
125564,note_on,30,0,15,,,,,,,,,14,,,,49,0
125564,control_change,7,0,8,,,,,,,,,7,11,107,,,
125566,control_change,7,0,4,,,,,,,,,3,11,102,,,
125568,control_change,8,0,5,,,,,,,,,4,11,104,,,
125569,control_change,8,0,6,,,,,,,,,5,11,104,,,
125570,control_change,7,0,9,,,,,,,,,8,11,107,,,
125572,control_change,8,0,8,,,,,,,,,7,11,104,,,
125574,control_change,8,0,4,,,,,,,,,3,11,99,,,
125578,control_change,8,0,9,,,,,,,,,8,11,104,,,
125580,note_on,30,0,11,,,,,,,,,10,,,,72,112
125583,note_on,30,0,12,,,,,,,,,11,,,,72,112
125588,note_on,30,0,13,,,,,,,,,12,,,,60,112
125592,note_on,30,0,14,,,,,,,,,13,,,,60,112
125594,note_on,30,0,15,,,,,,,,,14,,,,48,112
125610,note_on,30,0,11,,,,,,,,,10,,,,72,0
125613,note_on,30,0,12,,,,,,,,,11,,,,72,0
125618,note_on,30,0,13,,,,,,,,,12,,,,60,0
125622,note_on,30,0,14,,,,,,,,,13,,,,60,0
125624,note_on,30,0,15,,,,,,,,,14,,,,48,0
125640,set_tempo,120,1,0,,,,,,265487,,,,,,,,
125640,note_on,30,0,11,,,,,,,,,10,,,,68,112
125640,control_change,0,0,11,,,,,,,,,10,11,122,,,
125641,note_on,0,0,1,,,,,,,,,0,,,,89,0
125641,note_on,83,0,1,,,,,,,,,0,,,,84,0
125642,note_on,120,0,7,,,,,,,,,6,,,,60,112
125642,note_on,0,0,7,,,,,,,,,6,,,,72,112
125643,note_on,0,0,12,,,,,,,,,11,,,,68,112
125643,note_on,75,0,5,,,,,,,,,4,,,,60,0
125643,control_change,30,0,12,,,,,,,,,11,11,122,,,
125644,note_on,83,0,2,,,,,,,,,1,,,,80,0
125644,note_on,0,0,2,,,,,,,,,1,,,,77,0
125644,note_on,75,0,6,,,,,,,,,5,,,,48,0
125645,note_on,83,0,3,,,,,,,,,2,,,,72,0
125645,note_on,0,0,3,,,,,,,,,2,,,,68,0
125647,note_on,0,0,8,,,,,,,,,7,,,,56,0
125647,note_on,75,0,8,,,,,,,,,7,,,,65,0
125648,control_change,0,0,13,,,,,,,,,12,11,122,,,
125648,note_on,30,0,13,,,,,,,,,12,,,,56,112
125649,note_on,0,0,4,,,,,,,,,3,,,,56,0
125649,control_change,9,0,11,,,,,,,,,10,11,119,,,
125649,note_on,75,0,4,,,,,,,,,3,,,,65,0
125652,note_on,0,0,14,,,,,,,,,13,,,,56,112
125652,control_change,30,0,14,,,,,,,,,13,11,122,,,
125652,control_change,9,0,12,,,,,,,,,11,11,119,,,
125653,note_on,75,0,9,,,,,,,,,8,,,,48,0
125654,control_change,0,0,15,,,,,,,,,14,11,122,,,
125654,note_on,30,0,15,,,,,,,,,14,,,,44,112
125655,note_on,120,0,10,,,,,,,,,15,,,,48,71
125657,control_change,9,0,13,,,,,,,,,12,11,119,,,
125658,control_change,9,0,11,,,,,,,,,10,11,116,,,
125661,control_change,9,0,14,,,,,,,,,13,11,119,,,
125661,control_change,9,0,12,,,,,,,,,11,11,116,,,
125663,control_change,9,0,15,,,,,,,,,14,11,119,,,
125666,control_change,9,0,13,,,,,,,,,12,11,116,,,
125667,control_change,9,0,11,,,,,,,,,10,11,113,,,
125670,control_change,9,0,12,,,,,,,,,11,11,113,,,
125670,control_change,9,0,14,,,,,,,,,13,11,116,,,
125670,note_on,3,0,11,,,,,,,,,10,,,,68,0
125672,control_change,9,0,15,,,,,,,,,14,11,116,,,
125673,note_on,3,0,12,,,,,,,,,11,,,,68,0
125675,control_change,9,0,13,,,,,,,,,12,11,113,,,
125676,control_change,6,0,11,,,,,,,,,10,11,110,,,
125678,note_on,3,0,13,,,,,,,,,12,,,,56,0
125679,control_change,6,0,12,,,,,,,,,11,11,110,,,
125679,control_change,9,0,14,,,,,,,,,13,11,113,,,
125681,control_change,9,0,15,,,,,,,,,14,11,113,,,
125682,note_on,3,0,14,,,,,,,,,13,,,,56,0
125684,note_on,3,0,15,,,,,,,,,14,,,,44,0
125684,control_change,6,0,13,,,,,,,,,12,11,110,,,
125685,control_change,9,0,11,,,,,,,,,10,11,107,,,
125688,control_change,6,0,14,,,,,,,,,13,11,110,,,
125688,control_change,9,0,12,,,,,,,,,11,11,107,,,
125690,control_change,6,0,15,,,,,,,,,14,11,110,,,
125693,control_change,9,0,13,,,,,,,,,12,11,107,,,
125694,control_change,9,0,11,,,,,,,,,10,11,104,,,
125697,control_change,9,0,14,,,,,,,,,13,11,107,,,
125697,control_change,9,0,12,,,,,,,,,11,11,104,,,
125699,control_change,9,0,15,,,,,,,,,14,11,107,,,
125700,note_on,6,0,11,,,,,,,,,10,,,,68,112
125702,control_change,9,0,13,,,,,,,,,12,11,104,,,
125703,note_on,6,0,12,,,,,,,,,11,,,,68,112
125706,control_change,9,0,14,,,,,,,,,13,11,104,,,
125708,control_change,9,0,15,,,,,,,,,14,11,104,,,
125708,note_on,6,0,13,,,,,,,,,12,,,,56,112
125712,note_on,6,0,14,,,,,,,,,13,,,,56,112
125714,note_on,6,0,15,,,,,,,,,14,,,,44,112
125730,note_on,30,0,11,,,,,,,,,10,,,,68,0
125733,note_on,30,0,12,,,,,,,,,11,,,,68,0
125738,note_on,30,0,13,,,,,,,,,12,,,,56,0
125742,note_on,30,0,14,,,,,,,,,13,,,,56,0
125744,note_on,30,0,15,,,,,,,,,14,,,,44,0
125760,note_on,30,0,11,,,,,,,,,10,,,,70,112
125762,note_on,0,0,7,,,,,,,,,6,,,,60,112
125762,note_on,0,0,7,,,,,,,,,6,,,,72,112
125762,note_on,120,0,7,,,,,,,,,6,,,,72,0
125762,note_on,0,0,7,,,,,,,,,6,,,,60,0
125763,note_on,30,0,12,,,,,,,,,11,,,,70,112
125768,note_on,30,0,13,,,,,,,,,12,,,,58,112
125772,note_on,30,0,14,,,,,,,,,13,,,,58,112
125774,note_on,30,0,15,,,,,,,,,14,,,,46,112
125775,note_on,0,0,10,,,,,,,,,15,,,,48,71
125775,note_on,120,0,10,,,,,,,,,15,,,,48,0
125790,note_on,30,0,11,,,,,,,,,10,,,,70,0
125793,note_on,30,0,12,,,,,,,,,11,,,,70,0
125798,note_on,30,0,13,,,,,,,,,12,,,,58,0
125802,note_on,30,0,14,,,,,,,,,13,,,,58,0
125804,note_on,30,0,15,,,,,,,,,14,,,,46,0
125820,note_on,30,0,11,,,,,,,,,10,,,,68,112
125823,note_on,30,0,12,,,,,,,,,11,,,,68,112
125828,note_on,30,0,13,,,,,,,,,12,,,,56,112
125832,note_on,30,0,14,,,,,,,,,13,,,,56,112
125834,note_on,30,0,15,,,,,,,,,14,,,,44,112
125850,note_on,30,0,11,,,,,,,,,10,,,,68,0
125853,note_on,30,0,12,,,,,,,,,11,,,,68,0
125858,note_on,30,0,13,,,,,,,,,12,,,,56,0
125862,note_on,30,0,14,,,,,,,,,13,,,,56,0
125864,note_on,30,0,15,,,,,,,,,14,,,,44,0
125880,note_on,30,0,11,,,,,,,,,10,,,,70,112
125880,set_tempo,240,1,0,,,,,,280374,,,,,,,,
125881,note_on,240,0,1,,,,,,,,,0,,,,84,101
125881,control_change,0,0,1,,,,,,,,,0,11,101,,,
125881,note_on,0,0,1,,,,,,,,,0,,,,89,101
125882,note_on,0,0,7,,,,,,,,,6,,,,72,0
125882,note_on,120,0,7,,,,,,,,,6,,,,60,0
125883,note_on,30,0,12,,,,,,,,,11,,,,70,112
125883,note_on,240,0,5,,,,,,,,,4,,,,60,100
125883,control_change,0,0,5,,,,,,,,,4,11,122,,,
125884,note_on,0,0,2,,,,,,,,,1,,,,80,100
125884,note_on,0,0,6,,,,,,,,,5,,,,48,100
125884,control_change,240,0,6,,,,,,,,,5,11,122,,,
125884,note_on,0,0,2,,,,,,,,,1,,,,77,100
125884,control_change,240,0,2,,,,,,,,,1,11,101,,,
125885,control_change,0,0,3,,,,,,,,,2,11,101,,,
125885,note_on,0,0,3,,,,,,,,,2,,,,72,101
125885,note_on,240,0,3,,,,,,,,,2,,,,68,101
125887,control_change,240,0,8,,,,,,,,,7,11,122,,,
125887,note_on,0,0,8,,,,,,,,,7,,,,65,110
125887,note_on,0,0,8,,,,,,,,,7,,,,56,110
125888,control_change,7,0,1,,,,,,,,,0,11,98,,,
125888,note_on,30,0,13,,,,,,,,,12,,,,58,112
125889,note_on,0,0,4,,,,,,,,,3,,,,56,100
125889,control_change,0,0,4,,,,,,,,,3,11,117,,,
125889,note_on,240,0,4,,,,,,,,,3,,,,65,100
125890,control_change,7,0,5,,,,,,,,,4,11,119,,,
125891,control_change,7,0,2,,,,,,,,,1,11,98,,,
125891,control_change,7,0,6,,,,,,,,,5,11,119,,,
125892,note_on,30,0,14,,,,,,,,,13,,,,58,112
125892,control_change,7,0,3,,,,,,,,,2,11,98,,,
125893,note_on,0,0,9,,,,,,,,,8,,,,48,110
125893,control_change,240,0,9,,,,,,,,,8,11,122,,,
125894,control_change,7,0,8,,,,,,,,,7,11,119,,,
125894,note_on,30,0,15,,,,,,,,,14,,,,46,112
125895,note_on,120,0,10,,,,,,,,,15,,,,48,0
125896,control_change,7,0,4,,,,,,,,,3,11,114,,,
125898,control_change,8,0,5,,,,,,,,,4,11,116,,,
125899,control_change,8,0,6,,,,,,,,,5,11,116,,,
125900,control_change,7,0,9,,,,,,,,,8,11,119,,,
125902,control_change,8,0,8,,,,,,,,,7,11,116,,,
125903,control_change,15,0,1,,,,,,,,,0,11,94,,,
125904,control_change,8,0,4,,,,,,,,,3,11,111,,,
125905,control_change,7,0,5,,,,,,,,,4,11,113,,,
125906,control_change,7,0,6,,,,,,,,,5,11,113,,,
125906,control_change,15,0,2,,,,,,,,,1,11,94,,,
125907,control_change,15,0,3,,,,,,,,,2,11,94,,,
125908,control_change,8,0,9,,,,,,,,,8,11,116,,,
125909,control_change,7,0,8,,,,,,,,,7,11,113,,,
125910,note_on,30,0,11,,,,,,,,,10,,,,70,0
125911,control_change,7,0,4,,,,,,,,,3,11,108,,,
125913,note_on,30,0,12,,,,,,,,,11,,,,70,0
125913,control_change,8,0,5,,,,,,,,,4,11,110,,,
125914,control_change,8,0,6,,,,,,,,,5,11,110,,,
125915,control_change,7,0,9,,,,,,,,,8,11,113,,,
125917,control_change,8,0,8,,,,,,,,,7,11,110,,,
125918,control_change,15,0,1,,,,,,,,,0,11,89,,,
125918,note_on,30,0,13,,,,,,,,,12,,,,58,0
125919,control_change,8,0,4,,,,,,,,,3,11,105,,,
125920,control_change,7,0,5,,,,,,,,,4,11,107,,,
125921,control_change,15,0,2,,,,,,,,,1,11,89,,,
125921,control_change,7,0,6,,,,,,,,,5,11,107,,,
125922,note_on,30,0,14,,,,,,,,,13,,,,58,0
125922,control_change,15,0,3,,,,,,,,,2,11,89,,,
125923,control_change,8,0,9,,,,,,,,,8,11,110,,,
125924,control_change,7,0,8,,,,,,,,,7,11,107,,,
125924,note_on,30,0,15,,,,,,,,,14,,,,46,0
125926,control_change,7,0,4,,,,,,,,,3,11,102,,,
125928,control_change,8,0,5,,,,,,,,,4,11,104,,,
125929,control_change,8,0,6,,,,,,,,,5,11,104,,,
125930,control_change,7,0,9,,,,,,,,,8,11,107,,,
125932,control_change,8,0,8,,,,,,,,,7,11,104,,,
125934,control_change,8,0,4,,,,,,,,,3,11,99,,,
125938,control_change,8,0,9,,,,,,,,,8,11,104,,,
125940,note_on,30,0,11,,,,,,,,,10,,,,68,112
125943,note_on,30,0,12,,,,,,,,,11,,,,68,112
125948,note_on,30,0,13,,,,,,,,,12,,,,56,112
125952,note_on,30,0,14,,,,,,,,,13,,,,56,112
125954,note_on,30,0,15,,,,,,,,,14,,,,44,112
125970,note_on,30,0,11,,,,,,,,,10,,,,68,0
125973,note_on,30,0,12,,,,,,,,,11,,,,68,0
125978,note_on,30,0,13,,,,,,,,,12,,,,56,0
125982,note_on,30,0,14,,,,,,,,,13,,,,56,0
125984,note_on,30,0,15,,,,,,,,,14,,,,44,0
126000,set_tempo,120,1,0,,,,,,265487,,,,,,,,
126000,note_on,0,0,11,,,,,,,,,10,,,,65,112
126000,control_change,30,0,11,,,,,,,,,10,11,122,,,
126001,note_on,0,0,1,,,,,,,,,0,,,,84,0
126001,note_on,83,0,1,,,,,,,,,0,,,,89,0
126002,note_on,0,0,7,,,,,,,,,6,,,,72,112
126002,note_on,120,0,7,,,,,,,,,6,,,,60,112
126003,note_on,0,0,12,,,,,,,,,11,,,,65,112
126003,note_on,75,0,5,,,,,,,,,4,,,,60,0
126003,control_change,30,0,12,,,,,,,,,11,11,122,,,
126004,note_on,0,0,2,,,,,,,,,1,,,,80,0
126004,note_on,83,0,2,,,,,,,,,1,,,,77,0
126004,note_on,75,0,6,,,,,,,,,5,,,,48,0
126005,note_on,83,0,3,,,,,,,,,2,,,,72,0
126005,note_on,0,0,3,,,,,,,,,2,,,,68,0
126007,note_on,0,0,8,,,,,,,,,7,,,,65,0
126007,note_on,75,0,8,,,,,,,,,7,,,,56,0
126008,note_on,0,0,13,,,,,,,,,12,,,,53,112
126008,control_change,30,0,13,,,,,,,,,12,11,122,,,
126009,control_change,9,0,11,,,,,,,,,10,11,119,,,
126009,note_on,75,0,4,,,,,,,,,3,,,,56,0
126009,note_on,0,0,4,,,,,,,,,3,,,,65,0
126012,control_change,9,0,12,,,,,,,,,11,11,119,,,
126012,note_on,0,0,14,,,,,,,,,13,,,,53,112
126012,control_change,30,0,14,,,,,,,,,13,11,122,,,
126013,note_on,75,0,9,,,,,,,,,8,,,,48,0
126014,control_change,0,0,15,,,,,,,,,14,11,122,,,
126014,note_on,30,0,15,,,,,,,,,14,,,,41,112
126015,note_on,120,0,10,,,,,,,,,15,,,,48,71
126017,control_change,9,0,13,,,,,,,,,12,11,119,,,
126018,control_change,9,0,11,,,,,,,,,10,11,116,,,
126021,control_change,9,0,12,,,,,,,,,11,11,116,,,
126021,control_change,9,0,14,,,,,,,,,13,11,119,,,
126023,control_change,9,0,15,,,,,,,,,14,11,119,,,
126026,control_change,9,0,13,,,,,,,,,12,11,116,,,
126027,control_change,9,0,11,,,,,,,,,10,11,113,,,
126030,control_change,9,0,12,,,,,,,,,11,11,113,,,
126030,control_change,9,0,14,,,,,,,,,13,11,116,,,
126030,note_on,3,0,11,,,,,,,,,10,,,,65,0
126032,control_change,9,0,15,,,,,,,,,14,11,116,,,
126033,note_on,3,0,12,,,,,,,,,11,,,,65,0
126035,control_change,9,0,13,,,,,,,,,12,11,113,,,
126036,control_change,6,0,11,,,,,,,,,10,11,110,,,
126038,note_on,3,0,13,,,,,,,,,12,,,,53,0
126039,control_change,9,0,14,,,,,,,,,13,11,113,,,
126039,control_change,6,0,12,,,,,,,,,11,11,110,,,
126041,control_change,9,0,15,,,,,,,,,14,11,113,,,
126042,note_on,3,0,14,,,,,,,,,13,,,,53,0
126044,note_on,3,0,15,,,,,,,,,14,,,,41,0
126044,control_change,6,0,13,,,,,,,,,12,11,110,,,
126045,control_change,9,0,11,,,,,,,,,10,11,107,,,
126048,control_change,6,0,14,,,,,,,,,13,11,110,,,
126048,control_change,9,0,12,,,,,,,,,11,11,107,,,
126050,control_change,6,0,15,,,,,,,,,14,11,110,,,
126053,control_change,9,0,13,,,,,,,,,12,11,107,,,
126054,control_change,9,0,11,,,,,,,,,10,11,104,,,
126057,control_change,9,0,14,,,,,,,,,13,11,107,,,
126057,control_change,9,0,12,,,,,,,,,11,11,104,,,
126059,control_change,9,0,15,,,,,,,,,14,11,107,,,
126060,note_on,6,0,11,,,,,,,,,10,,,,65,112
126062,control_change,9,0,13,,,,,,,,,12,11,104,,,
126063,note_on,6,0,12,,,,,,,,,11,,,,65,112
126066,control_change,9,0,14,,,,,,,,,13,11,104,,,
126068,note_on,6,0,13,,,,,,,,,12,,,,53,112
126068,control_change,9,0,15,,,,,,,,,14,11,104,,,
126072,note_on,6,0,14,,,,,,,,,13,,,,53,112
126074,note_on,6,0,15,,,,,,,,,14,,,,41,112
126090,note_on,30,0,11,,,,,,,,,10,,,,65,0
126093,note_on,30,0,12,,,,,,,,,11,,,,65,0
126098,note_on,30,0,13,,,,,,,,,12,,,,53,0
126102,note_on,30,0,14,,,,,,,,,13,,,,53,0
126104,note_on,30,0,15,,,,,,,,,14,,,,41,0
126120,note_on,30,0,11,,,,,,,,,10,,,,67,112
126122,note_on,0,0,7,,,,,,,,,6,,,,60,112
126122,note_on,0,0,7,,,,,,,,,6,,,,72,112
126122,note_on,0,0,7,,,,,,,,,6,,,,60,0
126122,note_on,120,0,7,,,,,,,,,6,,,,72,0
126123,note_on,30,0,12,,,,,,,,,11,,,,67,112
126128,note_on,30,0,13,,,,,,,,,12,,,,55,112
126132,note_on,30,0,14,,,,,,,,,13,,,,55,112
126134,note_on,30,0,15,,,,,,,,,14,,,,43,112
126135,note_on,120,0,10,,,,,,,,,15,,,,48,0
126135,note_on,0,0,10,,,,,,,,,15,,,,48,71
126150,note_on,30,0,11,,,,,,,,,10,,,,67,0
126153,note_on,30,0,12,,,,,,,,,11,,,,67,0
126158,note_on,30,0,13,,,,,,,,,12,,,,55,0
126162,note_on,30,0,14,,,,,,,,,13,,,,55,0
126164,note_on,30,0,15,,,,,,,,,14,,,,43,0
126180,note_on,30,0,11,,,,,,,,,10,,,,65,112
126183,note_on,30,0,12,,,,,,,,,11,,,,65,112
126188,note_on,30,0,13,,,,,,,,,12,,,,53,112
126192,note_on,30,0,14,,,,,,,,,13,,,,53,112
126194,note_on,30,0,15,,,,,,,,,14,,,,41,112
126210,note_on,30,0,11,,,,,,,,,10,,,,65,0
126213,note_on,30,0,12,,,,,,,,,11,,,,65,0
126218,note_on,30,0,13,,,,,,,,,12,,,,53,0
126222,note_on,30,0,14,,,,,,,,,13,,,,53,0
126224,note_on,30,0,15,,,,,,,,,14,,,,41,0
126240,note_on,30,0,11,,,,,,,,,10,,,,67,112
126240,set_tempo,240,1,0,,,,,,315789,,,,,,,,
126241,note_on,0,0,1,,,,,,,,,0,,,,84,101
126241,control_change,0,0,1,,,,,,,,,0,11,101,,,
126241,note_on,240,0,1,,,,,,,,,0,,,,89,101
126242,note_on,0,0,7,,,,,,,,,6,,,,72,0
126242,note_on,120,0,7,,,,,,,,,6,,,,60,0
126243,control_change,0,0,5,,,,,,,,,4,11,122,,,
126243,note_on,240,0,5,,,,,,,,,4,,,,60,100
126243,note_on,30,0,12,,,,,,,,,11,,,,67,112
126244,note_on,0,0,6,,,,,,,,,5,,,,48,100
126244,control_change,240,0,6,,,,,,,,,5,11,122,,,
126244,control_change,240,0,2,,,,,,,,,1,11,101,,,
126244,note_on,0,0,2,,,,,,,,,1,,,,80,100
126244,note_on,0,0,2,,,,,,,,,1,,,,77,100
126245,control_change,240,0,3,,,,,,,,,2,11,101,,,
126245,note_on,0,0,3,,,,,,,,,2,,,,72,101
126245,note_on,0,0,3,,,,,,,,,2,,,,68,101
126247,note_on,0,0,8,,,,,,,,,7,,,,65,110
126247,note_on,0,0,8,,,,,,,,,7,,,,56,110
126247,control_change,240,0,8,,,,,,,,,7,11,122,,,
126248,note_on,30,0,13,,,,,,,,,12,,,,55,112
126248,control_change,7,0,1,,,,,,,,,0,11,98,,,
126249,control_change,0,0,4,,,,,,,,,3,11,117,,,
126249,note_on,0,0,4,,,,,,,,,3,,,,65,100
126249,note_on,240,0,4,,,,,,,,,3,,,,56,100
126250,control_change,7,0,5,,,,,,,,,4,11,119,,,
126251,control_change,7,0,6,,,,,,,,,5,11,119,,,
126251,control_change,7,0,2,,,,,,,,,1,11,98,,,
126252,control_change,7,0,3,,,,,,,,,2,11,98,,,
126252,note_on,30,0,14,,,,,,,,,13,,,,55,112
126253,control_change,0,0,9,,,,,,,,,8,11,122,,,
126253,note_on,240,0,9,,,,,,,,,8,,,,48,110
126254,control_change,7,0,8,,,,,,,,,7,11,119,,,
126254,note_on,30,0,15,,,,,,,,,14,,,,43,112
126255,note_on,120,0,10,,,,,,,,,15,,,,48,0
126256,control_change,7,0,4,,,,,,,,,3,11,114,,,
126258,control_change,8,0,5,,,,,,,,,4,11,116,,,
126259,control_change,8,0,6,,,,,,,,,5,11,116,,,
126260,control_change,7,0,9,,,,,,,,,8,11,119,,,
126262,control_change,8,0,8,,,,,,,,,7,11,116,,,
126263,control_change,15,0,1,,,,,,,,,0,11,94,,,
126264,control_change,8,0,4,,,,,,,,,3,11,111,,,
126265,control_change,7,0,5,,,,,,,,,4,11,113,,,
126266,control_change,7,0,6,,,,,,,,,5,11,113,,,
126266,control_change,15,0,2,,,,,,,,,1,11,94,,,
126267,control_change,15,0,3,,,,,,,,,2,11,94,,,
126268,control_change,8,0,9,,,,,,,,,8,11,116,,,
126269,control_change,7,0,8,,,,,,,,,7,11,113,,,
126270,note_on,30,0,11,,,,,,,,,10,,,,67,0
126271,control_change,7,0,4,,,,,,,,,3,11,108,,,
126273,note_on,30,0,12,,,,,,,,,11,,,,67,0
126273,control_change,8,0,5,,,,,,,,,4,11,110,,,
126274,control_change,8,0,6,,,,,,,,,5,11,110,,,
126275,control_change,7,0,9,,,,,,,,,8,11,113,,,
126277,control_change,8,0,8,,,,,,,,,7,11,110,,,
126278,note_on,30,0,13,,,,,,,,,12,,,,55,0
126278,control_change,15,0,1,,,,,,,,,0,11,89,,,
126279,control_change,8,0,4,,,,,,,,,3,11,105,,,
126280,control_change,7,0,5,,,,,,,,,4,11,107,,,
126281,control_change,7,0,6,,,,,,,,,5,11,107,,,
126281,control_change,15,0,2,,,,,,,,,1,11,89,,,
126282,control_change,15,0,3,,,,,,,,,2,11,89,,,
126282,note_on,30,0,14,,,,,,,,,13,,,,55,0
126283,control_change,8,0,9,,,,,,,,,8,11,110,,,
126284,note_on,30,0,15,,,,,,,,,14,,,,43,0
126284,control_change,7,0,8,,,,,,,,,7,11,107,,,
126286,control_change,7,0,4,,,,,,,,,3,11,102,,,
126288,control_change,8,0,5,,,,,,,,,4,11,104,,,
126289,control_change,8,0,6,,,,,,,,,5,11,104,,,
126290,control_change,7,0,9,,,,,,,,,8,11,107,,,
126292,control_change,8,0,8,,,,,,,,,7,11,104,,,
126294,control_change,8,0,4,,,,,,,,,3,11,99,,,
126298,control_change,8,0,9,,,,,,,,,8,11,104,,,
126300,note_on,30,0,11,,,,,,,,,10,,,,65,112
126300,control_change,0,0,11,,,,,,,,,10,11,102,,,
126303,control_change,0,0,12,,,,,,,,,11,11,102,,,
126303,note_on,30,0,12,,,,,,,,,11,,,,65,112
126303,control_change,3,0,11,,,,,,,,,10,11,99,,,
126306,control_change,3,0,12,,,,,,,,,11,11,99,,,
126306,control_change,3,0,11,,,,,,,,,10,11,96,,,
126308,control_change,0,0,13,,,,,,,,,12,11,102,,,
126308,note_on,30,0,13,,,,,,,,,12,,,,53,112
126309,control_change,3,0,11,,,,,,,,,10,11,93,,,
126309,control_change,3,0,12,,,,,,,,,11,11,96,,,
126311,control_change,3,0,13,,,,,,,,,12,11,99,,,
126312,note_on,30,0,14,,,,,,,,,13,,,,53,112
126312,control_change,3,0,12,,,,,,,,,11,11,93,,,
126312,control_change,0,0,14,,,,,,,,,13,11,102,,,
126313,control_change,4,0,11,,,,,,,,,10,11,90,,,
126314,note_on,30,0,15,,,,,,,,,14,,,,41,112
126314,control_change,0,0,15,,,,,,,,,14,11,102,,,
126314,control_change,3,0,13,,,,,,,,,12,11,96,,,
126315,control_change,3,0,14,,,,,,,,,13,11,99,,,
126316,control_change,3,0,11,,,,,,,,,10,11,87,,,
126316,control_change,4,0,12,,,,,,,,,11,11,90,,,
126317,control_change,3,0,13,,,,,,,,,12,11,93,,,
126317,control_change,3,0,15,,,,,,,,,14,11,99,,,
126318,control_change,3,0,14,,,,,,,,,13,11,96,,,
126319,control_change,3,0,12,,,,,,,,,11,11,87,,,
126320,control_change,3,0,15,,,,,,,,,14,11,96,,,
126321,control_change,3,0,14,,,,,,,,,13,11,93,,,
126321,control_change,4,0,13,,,,,,,,,12,11,90,,,
126322,control_change,6,0,11,,,,,,,,,10,11,82,,,
126323,control_change,3,0,15,,,,,,,,,14,11,93,,,
126324,control_change,3,0,13,,,,,,,,,12,11,87,,,
126325,control_change,4,0,14,,,,,,,,,13,11,90,,,
126325,control_change,6,0,12,,,,,,,,,11,11,82,,,
126326,control_change,4,0,11,,,,,,,,,10,11,79,,,
126327,control_change,4,0,15,,,,,,,,,14,11,90,,,
126328,control_change,3,0,14,,,,,,,,,13,11,87,,,
126329,control_change,3,0,11,,,,,,,,,10,11,76,,,
126329,control_change,4,0,12,,,,,,,,,11,11,79,,,
126330,note_on,1,0,11,,,,,,,,,10,,,,65,0
126330,control_change,3,0,15,,,,,,,,,14,11,87,,,
126330,control_change,6,0,13,,,,,,,,,12,11,82,,,
126332,control_change,3,0,12,,,,,,,,,11,11,76,,,
126332,control_change,2,0,11,,,,,,,,,10,11,73,,,
126333,note_on,1,0,12,,,,,,,,,11,,,,65,0
126334,control_change,4,0,13,,,,,,,,,12,11,79,,,
126334,control_change,6,0,14,,,,,,,,,13,11,82,,,
126335,control_change,2,0,12,,,,,,,,,11,11,73,,,
126336,control_change,6,0,15,,,,,,,,,14,11,82,,,
126337,control_change,3,0,13,,,,,,,,,12,11,76,,,
126338,note_on,1,0,13,,,,,,,,,12,,,,53,0
126338,control_change,4,0,14,,,,,,,,,13,11,79,,,
126339,control_change,7,0,11,,,,,,,,,10,11,68,,,
126340,control_change,4,0,15,,,,,,,,,14,11,79,,,
126340,control_change,2,0,13,,,,,,,,,12,11,73,,,
126341,control_change,3,0,14,,,,,,,,,13,11,76,,,
126342,control_change,3,0,11,,,,,,,,,10,11,65,,,
126342,note_on,1,0,14,,,,,,,,,13,,,,53,0
126342,control_change,7,0,12,,,,,,,,,11,11,68,,,
126343,control_change,3,0,15,,,,,,,,,14,11,76,,,
126344,note_on,1,0,15,,,,,,,,,14,,,,41,0
126344,control_change,2,0,14,,,,,,,,,13,11,73,,,
126345,control_change,3,0,11,,,,,,,,,10,11,62,,,
126345,control_change,3,0,12,,,,,,,,,11,11,65,,,
126346,control_change,2,0,15,,,,,,,,,14,11,73,,,
126347,control_change,7,0,13,,,,,,,,,12,11,68,,,
126348,control_change,3,0,12,,,,,,,,,11,11,62,,,
126349,control_change,4,0,11,,,,,,,,,10,11,59,,,
126350,control_change,3,0,13,,,,,,,,,12,11,65,,,
126351,control_change,7,0,14,,,,,,,,,13,11,68,,,
126352,control_change,4,0,12,,,,,,,,,11,11,59,,,
126353,control_change,3,0,13,,,,,,,,,12,11,62,,,
126353,control_change,7,0,15,,,,,,,,,14,11,68,,,
126354,control_change,3,0,14,,,,,,,,,13,11,65,,,
126355,control_change,6,0,11,,,,,,,,,10,11,54,,,
126356,control_change,3,0,15,,,,,,,,,14,11,65,,,
126357,control_change,4,0,13,,,,,,,,,12,11,59,,,
126357,control_change,3,0,14,,,,,,,,,13,11,62,,,
126358,control_change,3,0,11,,,,,,,,,10,11,51,,,
126358,control_change,6,0,12,,,,,,,,,11,11,54,,,
126359,control_change,3,0,15,,,,,,,,,14,11,62,,,
126360,note_on,2,0,11,,,,,,,,,10,,,,61,112
126360,set_tempo,120,1,0,,,,,,254237,,,,,,,,
126360,control_change,0,0,11,,,,,,,,,10,11,45,,,
126361,control_change,3,0,12,,,,,,,,,11,11,51,,,
126361,note_on,83,0,1,,,,,,,,,0,,,,84,0
126361,control_change,4,0,14,,,,,,,,,13,11,59,,,
126361,note_on,0,0,1,,,,,,,,,0,,,,89,0
126363,control_change,2,0,12,,,,,,,,,11,11,45,,,
126363,note_on,75,0,5,,,,,,,,,4,,,,60,0
126363,control_change,6,0,13,,,,,,,,,12,11,54,,,
126363,note_on,0,0,12,,,,,,,,,11,,,,61,112
126363,control_change,4,0,15,,,,,,,,,14,11,59,,,
126364,note_on,83,0,2,,,,,,,,,1,,,,77,0
126364,note_on,75,0,6,,,,,,,,,5,,,,48,0
126364,note_on,0,0,2,,,,,,,,,1,,,,77,115
126364,note_on,0,0,2,,,,,,,,,1,,,,80,0
126364,note_on,0,0,2,,,,,,,,,1,,,,80,115
126364,control_change,0,0,2,,,,,,,,,1,11,32,,,
126365,control_change,0,0,3,,,,,,,,,2,11,32,,,
126365,note_on,0,0,3,,,,,,,,,2,,,,65,116
126365,note_on,0,0,3,,,,,,,,,2,,,,68,116
126365,note_on,0,0,3,,,,,,,,,2,,,,68,0
126365,note_on,83,0,3,,,,,,,,,2,,,,72,0
126366,control_change,3,0,13,,,,,,,,,12,11,51,,,
126367,note_on,75,0,8,,,,,,,,,7,,,,65,0
126367,note_on,0,0,8,,,,,,,,,7,,,,56,0
126367,control_change,6,0,14,,,,,,,,,13,11,54,,,
126368,control_change,0,0,13,,,,,,,,,12,11,45,,,
126368,note_on,2,0,13,,,,,,,,,12,,,,49,112
126369,control_change,6,0,15,,,,,,,,,14,11,54,,,
126369,control_change,0,0,4,,,,,,,,,3,11,32,,,
126369,note_on,0,0,4,,,,,,,,,3,,,,53,115
126369,note_on,75,0,4,,,,,,,,,3,,,,65,0
126369,note_on,0,0,4,,,,,,,,,3,,,,56,0
126369,note_on,0,0,4,,,,,,,,,3,,,,56,115
126370,control_change,3,0,14,,,,,,,,,13,11,51,,,
126372,note_on,0,0,14,,,,,,,,,13,,,,49,112
126372,control_change,2,0,14,,,,,,,,,13,11,45,,,
126372,control_change,3,0,15,,,,,,,,,14,11,51,,,
126373,note_on,75,0,9,,,,,,,,,8,,,,48,0
126374,note_on,2,0,15,,,,,,,,,14,,,,37,112
126374,control_change,0,0,15,,,,,,,,,14,11,45,,,
126382,control_change,18,0,2,,,,,,,,,1,11,35,,,
126383,control_change,18,0,3,,,,,,,,,2,11,35,,,
126387,control_change,18,0,4,,,,,,,,,3,11,35,,,
126398,control_change,38,0,11,,,,,,,,,10,11,45,,,
126400,control_change,18,0,2,,,,,,,,,1,11,38,,,
126401,control_change,18,0,3,,,,,,,,,2,11,38,,,
126401,control_change,38,0,12,,,,,,,,,11,11,45,,,
126405,control_change,18,0,4,,,,,,,,,3,11,38,,,
126406,control_change,38,0,13,,,,,,,,,12,11,45,,,
126410,control_change,38,0,14,,,,,,,,,13,11,45,,,
126412,control_change,38,0,15,,,,,,,,,14,11,45,,,
126418,control_change,18,0,2,,,,,,,,,1,11,41,,,
126419,control_change,18,0,3,,,,,,,,,2,11,41,,,
126423,control_change,18,0,4,,,,,,,,,3,11,41,,,
126436,control_change,18,0,2,,,,,,,,,1,11,44,,,
126436,control_change,38,0,11,,,,,,,,,10,11,46,,,
126437,control_change,18,0,3,,,,,,,,,2,11,44,,,
126439,control_change,38,0,12,,,,,,,,,11,11,46,,,
126441,control_change,18,0,4,,,,,,,,,3,11,44,,,
126444,control_change,38,0,13,,,,,,,,,12,11,46,,,
126448,control_change,38,0,14,,,,,,,,,13,11,46,,,
126450,control_change,38,0,15,,,,,,,,,14,11,46,,,
126454,control_change,18,0,2,,,,,,,,,1,11,47,,,
126455,control_change,18,0,3,,,,,,,,,2,11,47,,,
126459,control_change,18,0,4,,,,,,,,,3,11,47,,,
126472,control_change,18,0,2,,,,,,,,,1,11,50,,,
126473,control_change,18,0,3,,,,,,,,,2,11,50,,,
126475,control_change,39,0,11,,,,,,,,,10,11,47,,,
126477,control_change,18,0,4,,,,,,,,,3,11,50,,,
126478,control_change,39,0,12,,,,,,,,,11,11,47,,,
126480,set_tempo,120,1,0,,,,,,263158,,,,,,,,
126483,control_change,39,0,13,,,,,,,,,12,11,47,,,
126487,control_change,39,0,14,,,,,,,,,13,11,47,,,
126489,control_change,39,0,15,,,,,,,,,14,11,47,,,
126513,control_change,38,0,11,,,,,,,,,10,11,48,,,
126516,control_change,38,0,12,,,,,,,,,11,11,48,,,
126521,control_change,38,0,13,,,,,,,,,12,11,48,,,
126525,control_change,38,0,14,,,,,,,,,13,11,48,,,
126527,control_change,38,0,15,,,,,,,,,14,11,48,,,
126552,control_change,39,0,11,,,,,,,,,10,11,49,,,
126555,control_change,39,0,12,,,,,,,,,11,11,49,,,
126560,control_change,39,0,13,,,,,,,,,12,11,49,,,
126564,control_change,39,0,14,,,,,,,,,13,11,49,,,
126566,control_change,39,0,15,,,,,,,,,14,11,49,,,
126590,control_change,38,0,11,,,,,,,,,10,11,50,,,
126593,control_change,38,0,12,,,,,,,,,11,11,50,,,
126598,control_change,38,0,13,,,,,,,,,12,11,50,,,
126600,note_on,10,0,11,,,,,,,,,10,,,,61,0
126600,set_tempo,120,1,0,,,,,,288462,,,,,,,,
126600,note_on,0,0,11,,,,,,,,,10,,,,65,112
126602,control_change,38,0,14,,,,,,,,,13,11,50,,,
126603,note_on,10,0,12,,,,,,,,,11,,,,61,0
126603,note_on,0,0,12,,,,,,,,,11,,,,65,112
126604,control_change,38,0,15,,,,,,,,,14,11,50,,,
126605,note_on,133,0,2,,,,,,,,,1,,,,80,0
126605,note_on,0,0,2,,,,,,,,,1,,,,77,0
126606,note_on,133,0,3,,,,,,,,,2,,,,65,0
126606,note_on,0,0,3,,,,,,,,,2,,,,68,0
126608,note_on,0,0,13,,,,,,,,,12,,,,53,112
126608,note_on,10,0,13,,,,,,,,,12,,,,49,0
126610,note_on,0,0,4,,,,,,,,,3,,,,56,0
126610,note_on,133,0,4,,,,,,,,,3,,,,53,0
126612,note_on,0,0,14,,,,,,,,,13,,,,53,112
126612,note_on,10,0,14,,,,,,,,,13,,,,49,0
126614,note_on,0,0,15,,,,,,,,,14,,,,41,112
126614,note_on,10,0,15,,,,,,,,,14,,,,37,0
126628,control_change,28,0,11,,,,,,,,,10,11,50,,,
126631,control_change,28,0,12,,,,,,,,,11,11,50,,,
126636,control_change,28,0,13,,,,,,,,,12,11,50,,,
126640,control_change,28,0,14,,,,,,,,,13,11,50,,,
126642,control_change,28,0,15,,,,,,,,,14,11,50,,,
126667,control_change,39,0,11,,,,,,,,,10,11,51,,,
126670,control_change,39,0,12,,,,,,,,,11,11,51,,,
126675,control_change,39,0,13,,,,,,,,,12,11,51,,,
126679,control_change,39,0,14,,,,,,,,,13,11,51,,,
126681,control_change,39,0,15,,,,,,,,,14,11,51,,,
126705,control_change,38,0,11,,,,,,,,,10,11,52,,,
126708,control_change,38,0,12,,,,,,,,,11,11,52,,,
126710,note_on,5,0,11,,,,,,,,,10,,,,65,0
126713,control_change,38,0,13,,,,,,,,,12,11,52,,,
126713,note_on,5,0,12,,,,,,,,,11,,,,65,0
126717,control_change,38,0,14,,,,,,,,,13,11,52,,,
126718,note_on,5,0,13,,,,,,,,,12,,,,53,0
126719,control_change,38,0,15,,,,,,,,,14,11,52,,,
126720,set_tempo,120,1,0,,,,,,254237,,,,,,,,
126720,note_on,10,0,11,,,,,,,,,10,,,,68,112
126722,note_on,5,0,14,,,,,,,,,13,,,,53,0
126723,note_on,10,0,12,,,,,,,,,11,,,,68,112
126724,note_on,119,0,2,,,,,,,,,1,,,,80,115
126724,note_on,0,0,2,,,,,,,,,1,,,,77,115
126724,note_on,5,0,15,,,,,,,,,14,,,,41,0
126725,note_on,119,0,3,,,,,,,,,2,,,,65,116
126725,note_on,0,0,3,,,,,,,,,2,,,,68,116
126728,note_on,10,0,13,,,,,,,,,12,,,,56,112
126729,note_on,119,0,4,,,,,,,,,3,,,,53,115
126729,note_on,0,0,4,,,,,,,,,3,,,,56,115
126732,note_on,10,0,14,,,,,,,,,13,,,,56,112
126734,note_on,10,0,15,,,,,,,,,14,,,,44,112
126744,control_change,24,0,11,,,,,,,,,10,11,53,,,
126747,control_change,24,0,12,,,,,,,,,11,11,53,,,
126752,control_change,24,0,13,,,,,,,,,12,11,53,,,
126756,control_change,24,0,14,,,,,,,,,13,11,53,,,
126758,control_change,24,0,15,,,,,,,,,14,11,53,,,
126782,control_change,38,0,11,,,,,,,,,10,11,54,,,
126785,control_change,38,0,12,,,,,,,,,11,11,54,,,
126790,control_change,38,0,13,,,,,,,,,12,11,54,,,
126794,control_change,38,0,14,,,,,,,,,13,11,54,,,
126796,control_change,38,0,15,,,,,,,,,14,11,54,,,
126820,control_change,38,0,11,,,,,,,,,10,11,55,,,
126823,control_change,38,0,12,,,,,,,,,11,11,55,,,
126828,control_change,38,0,13,,,,,,,,,12,11,55,,,
126832,control_change,38,0,14,,,,,,,,,13,11,55,,,
126834,control_change,38,0,15,,,,,,,,,14,11,55,,,
126840,set_tempo,120,1,0,,,,,,263158,,,,,,,,
126859,control_change,39,0,11,,,,,,,,,10,11,55,,,
126862,control_change,39,0,12,,,,,,,,,11,11,55,,,
126867,control_change,39,0,13,,,,,,,,,12,11,55,,,
126871,control_change,39,0,14,,,,,,,,,13,11,55,,,
126873,control_change,39,0,15,,,,,,,,,14,11,55,,,
126897,control_change,38,0,11,,,,,,,,,10,11,56,,,
126900,control_change,38,0,12,,,,,,,,,11,11,56,,,
126905,control_change,38,0,13,,,,,,,,,12,11,56,,,
126909,control_change,38,0,14,,,,,,,,,13,11,56,,,
126911,control_change,38,0,15,,,,,,,,,14,11,56,,,
126936,control_change,39,0,11,,,,,,,,,10,11,57,,,
126939,control_change,39,0,12,,,,,,,,,11,11,57,,,
126944,control_change,39,0,13,,,,,,,,,12,11,57,,,
126948,control_change,39,0,14,,,,,,,,,13,11,57,,,
126950,control_change,39,0,15,,,,,,,,,14,11,57,,,
126960,note_on,24,0,11,,,,,,,,,10,,,,68,0
126960,note_on,0,0,11,,,,,,,,,10,,,,73,112
126960,set_tempo,120,1,0,,,,,,288462,,,,,,,,
126963,note_on,24,0,12,,,,,,,,,11,,,,68,0
126963,note_on,0,0,12,,,,,,,,,11,,,,73,112
126965,note_on,0,0,2,,,,,,,,,1,,,,80,0
126965,note_on,241,0,2,,,,,,,,,1,,,,77,0
126966,note_on,241,0,3,,,,,,,,,2,,,,68,0
126966,note_on,0,0,3,,,,,,,,,2,,,,65,0
126968,note_on,24,0,13,,,,,,,,,12,,,,56,0
126968,note_on,0,0,13,,,,,,,,,12,,,,61,112
126970,note_on,0,0,4,,,,,,,,,3,,,,53,0
126970,note_on,241,0,4,,,,,,,,,3,,,,56,0
126972,note_on,24,0,14,,,,,,,,,13,,,,56,0
126972,note_on,0,0,14,,,,,,,,,13,,,,61,112
126974,control_change,14,0,11,,,,,,,,,10,11,57,,,
126974,note_on,0,0,15,,,,,,,,,14,,,,49,112
126974,note_on,24,0,15,,,,,,,,,14,,,,44,0
126977,control_change,14,0,12,,,,,,,,,11,11,57,,,
126982,control_change,14,0,13,,,,,,,,,12,11,57,,,
126986,control_change,14,0,14,,,,,,,,,13,11,57,,,
126988,control_change,14,0,15,,,,,,,,,14,11,57,,,
127012,control_change,38,0,11,,,,,,,,,10,11,58,,,
127015,control_change,38,0,12,,,,,,,,,11,11,58,,,
127020,control_change,38,0,13,,,,,,,,,12,11,58,,,
127024,control_change,38,0,14,,,,,,,,,13,11,58,,,
127026,control_change,38,0,15,,,,,,,,,14,11,58,,,
127051,control_change,39,0,11,,,,,,,,,10,11,59,,,
127054,control_change,39,0,12,,,,,,,,,11,11,59,,,
127059,control_change,39,0,13,,,,,,,,,12,11,59,,,
127063,control_change,39,0,14,,,,,,,,,13,11,59,,,
127065,control_change,39,0,15,,,,,,,,,14,11,59,,,
127070,note_on,19,0,11,,,,,,,,,10,,,,73,0
127073,note_on,19,0,12,,,,,,,,,11,,,,73,0
127078,note_on,19,0,13,,,,,,,,,12,,,,61,0
127080,note_on,10,0,11,,,,,,,,,10,,,,77,112
127080,set_tempo,120,1,0,,,,,,254237,,,,,,,,
127082,note_on,19,0,14,,,,,,,,,13,,,,61,0
127083,note_on,10,0,12,,,,,,,,,11,,,,77,112
127084,note_on,19,0,15,,,,,,,,,14,,,,49,0
127084,note_on,119,0,2,,,,,,,,,1,,,,77,115
127084,note_on,0,0,2,,,,,,,,,1,,,,80,115
127085,note_on,0,0,3,,,,,,,,,2,,,,68,116
127085,note_on,119,0,3,,,,,,,,,2,,,,65,116
127088,note_on,10,0,13,,,,,,,,,12,,,,65,112
127089,note_on,0,0,4,,,,,,,,,3,,,,56,115
127089,note_on,119,0,4,,,,,,,,,3,,,,53,115
127089,control_change,9,0,11,,,,,,,,,10,11,59,,,
127092,note_on,10,0,14,,,,,,,,,13,,,,65,112
127092,control_change,9,0,12,,,,,,,,,11,11,59,,,
127094,note_on,10,0,15,,,,,,,,,14,,,,53,112
127097,control_change,9,0,13,,,,,,,,,12,11,59,,,
127101,control_change,9,0,14,,,,,,,,,13,11,59,,,
127103,control_change,9,0,15,,,,,,,,,14,11,59,,,
127128,control_change,39,0,11,,,,,,,,,10,11,60,,,
127131,control_change,39,0,12,,,,,,,,,11,11,60,,,
127136,control_change,39,0,13,,,,,,,,,12,11,60,,,
127140,control_change,39,0,14,,,,,,,,,13,11,60,,,
127142,control_change,39,0,15,,,,,,,,,14,11,60,,,
127166,control_change,38,0,11,,,,,,,,,10,11,61,,,
127169,control_change,38,0,12,,,,,,,,,11,11,61,,,
127174,control_change,38,0,13,,,,,,,,,12,11,61,,,
127178,control_change,38,0,14,,,,,,,,,13,11,61,,,
127180,control_change,38,0,15,,,,,,,,,14,11,61,,,
127200,set_tempo,120,1,0,,,,,,263158,,,,,,,,
127204,control_change,38,0,11,,,,,,,,,10,11,62,,,
127207,control_change,38,0,12,,,,,,,,,11,11,62,,,
127212,control_change,38,0,13,,,,,,,,,12,11,62,,,
127216,control_change,38,0,14,,,,,,,,,13,11,62,,,
127218,control_change,38,0,15,,,,,,,,,14,11,62,,,
127243,control_change,39,0,11,,,,,,,,,10,11,63,,,
127246,control_change,39,0,12,,,,,,,,,11,11,63,,,
127251,control_change,39,0,13,,,,,,,,,12,11,63,,,
127255,control_change,39,0,14,,,,,,,,,13,11,63,,,
127257,control_change,39,0,15,,,,,,,,,14,11,63,,,
127281,control_change,38,0,11,,,,,,,,,10,11,64,,,
127284,control_change,38,0,12,,,,,,,,,11,11,64,,,
127289,control_change,38,0,13,,,,,,,,,12,11,64,,,
127293,control_change,38,0,14,,,,,,,,,13,11,64,,,
127295,control_change,38,0,15,,,,,,,,,14,11,64,,,
127320,note_on,0,0,11,,,,,,,,,10,,,,80,112
127320,control_change,0,0,11,,,,,,,,,10,11,64,,,
127320,set_tempo,120,1,0,,,,,,288462,,,,,,,,
127320,note_on,39,0,11,,,,,,,,,10,,,,77,0
127323,note_on,39,0,12,,,,,,,,,11,,,,77,0
127323,note_on,0,0,12,,,,,,,,,11,,,,80,112
127323,control_change,0,0,12,,,,,,,,,11,11,64,,,
127325,note_on,241,0,2,,,,,,,,,1,,,,80,0
127325,note_on,0,0,2,,,,,,,,,1,,,,77,0
127326,note_on,0,0,3,,,,,,,,,2,,,,65,0
127326,note_on,241,0,3,,,,,,,,,2,,,,68,0
127328,note_on,39,0,13,,,,,,,,,12,,,,65,0
127328,control_change,0,0,13,,,,,,,,,12,11,64,,,
127328,note_on,0,0,13,,,,,,,,,12,,,,68,112
127330,note_on,0,0,4,,,,,,,,,3,,,,53,0
127330,note_on,241,0,4,,,,,,,,,3,,,,56,0
127332,note_on,39,0,14,,,,,,,,,13,,,,65,0
127332,control_change,0,0,14,,,,,,,,,13,11,64,,,
127332,note_on,0,0,14,,,,,,,,,13,,,,68,112
127334,control_change,0,0,15,,,,,,,,,14,11,64,,,
127334,note_on,39,0,15,,,,,,,,,14,,,,53,0
127334,note_on,0,0,15,,,,,,,,,14,,,,56,112
127430,note_on,110,0,11,,,,,,,,,10,,,,80,0
127433,note_on,110,0,12,,,,,,,,,11,,,,80,0
127438,note_on,110,0,13,,,,,,,,,12,,,,68,0
127440,set_tempo,120,1,0,,,,,,254237,,,,,,,,
127440,note_on,0,0,11,,,,,,,,,10,,,,77,112
127440,control_change,10,0,11,,,,,,,,,10,11,60,,,
127442,note_on,110,0,14,,,,,,,,,13,,,,68,0
127443,note_on,10,0,12,,,,,,,,,11,,,,77,112
127443,control_change,0,0,12,,,,,,,,,11,11,60,,,
127444,note_on,119,0,2,,,,,,,,,1,,,,77,115
127444,note_on,110,0,15,,,,,,,,,14,,,,56,0
127444,note_on,0,0,2,,,,,,,,,1,,,,80,115
127445,note_on,119,0,3,,,,,,,,,2,,,,65,116
127445,note_on,0,0,3,,,,,,,,,2,,,,68,116
127448,note_on,10,0,13,,,,,,,,,12,,,,65,112
127448,control_change,0,0,13,,,,,,,,,12,11,60,,,
127449,note_on,0,0,4,,,,,,,,,3,,,,53,115
127449,note_on,119,0,4,,,,,,,,,3,,,,56,115
127452,control_change,10,0,14,,,,,,,,,13,11,60,,,
127452,note_on,0,0,14,,,,,,,,,13,,,,65,112
127454,note_on,0,0,15,,,,,,,,,14,,,,53,112
127454,control_change,10,0,15,,,,,,,,,14,11,60,,,
127488,control_change,48,0,11,,,,,,,,,10,11,59,,,
127491,control_change,48,0,12,,,,,,,,,11,11,59,,,
127496,control_change,48,0,13,,,,,,,,,12,11,59,,,
127500,control_change,48,0,14,,,,,,,,,13,11,59,,,
127502,control_change,48,0,15,,,,,,,,,14,11,59,,,
127536,control_change,48,0,11,,,,,,,,,10,11,59,,,
127539,control_change,48,0,12,,,,,,,,,11,11,59,,,
127544,control_change,48,0,13,,,,,,,,,12,11,59,,,
127548,control_change,48,0,14,,,,,,,,,13,11,59,,,
127550,control_change,48,0,15,,,,,,,,,14,11,59,,,
127560,set_tempo,120,1,0,,,,,,263158,,,,,,,,
127584,control_change,48,0,11,,,,,,,,,10,11,58,,,
127587,control_change,48,0,12,,,,,,,,,11,11,58,,,
127592,control_change,48,0,13,,,,,,,,,12,11,58,,,
127596,control_change,48,0,14,,,,,,,,,13,11,58,,,
127598,control_change,48,0,15,,,,,,,,,14,11,58,,,
127632,control_change,48,0,11,,,,,,,,,10,11,57,,,
127635,control_change,48,0,12,,,,,,,,,11,11,57,,,
127640,control_change,48,0,13,,,,,,,,,12,11,57,,,
127644,control_change,48,0,14,,,,,,,,,13,11,57,,,
127646,control_change,48,0,15,,,,,,,,,14,11,57,,,
127680,control_change,0,0,11,,,,,,,,,10,11,57,,,
127680,set_tempo,120,1,0,,,,,,288462,,,,,,,,
127680,note_on,48,0,11,,,,,,,,,10,,,,77,0
127680,note_on,0,0,11,,,,,,,,,10,,,,73,112
127683,control_change,0,0,12,,,,,,,,,11,11,57,,,
127683,note_on,0,0,12,,,,,,,,,11,,,,73,112
127683,note_on,48,0,12,,,,,,,,,11,,,,77,0
127685,note_on,241,0,2,,,,,,,,,1,,,,80,0
127685,note_on,0,0,2,,,,,,,,,1,,,,77,0
127686,note_on,241,0,3,,,,,,,,,2,,,,68,0
127686,note_on,0,0,3,,,,,,,,,2,,,,65,0
127688,note_on,0,0,13,,,,,,,,,12,,,,61,112
127688,note_on,48,0,13,,,,,,,,,12,,,,65,0
127688,control_change,0,0,13,,,,,,,,,12,11,57,,,
127690,note_on,241,0,4,,,,,,,,,3,,,,53,0
127690,note_on,0,0,4,,,,,,,,,3,,,,56,0
127692,control_change,0,0,14,,,,,,,,,13,11,57,,,
127692,note_on,0,0,14,,,,,,,,,13,,,,61,112
127692,note_on,48,0,14,,,,,,,,,13,,,,65,0
127694,note_on,0,0,15,,,,,,,,,14,,,,49,112
127694,control_change,0,0,15,,,,,,,,,14,11,57,,,
127694,note_on,48,0,15,,,,,,,,,14,,,,53,0
127728,control_change,48,0,11,,,,,,,,,10,11,56,,,
127731,control_change,48,0,12,,,,,,,,,11,11,56,,,
127736,control_change,48,0,13,,,,,,,,,12,11,56,,,
127740,control_change,48,0,14,,,,,,,,,13,11,56,,,
127742,control_change,48,0,15,,,,,,,,,14,11,56,,,
127776,control_change,48,0,11,,,,,,,,,10,11,55,,,
127779,control_change,48,0,12,,,,,,,,,11,11,55,,,
127784,control_change,48,0,13,,,,,,,,,12,11,55,,,
127788,control_change,48,0,14,,,,,,,,,13,11,55,,,
127790,control_change,48,0,15,,,,,,,,,14,11,55,,,
127790,note_on,14,0,11,,,,,,,,,10,,,,73,0
127793,note_on,14,0,12,,,,,,,,,11,,,,73,0
127798,note_on,14,0,13,,,,,,,,,12,,,,61,0
127800,note_on,10,0,11,,,,,,,,,10,,,,68,112
127800,set_tempo,120,1,0,,,,,,254237,,,,,,,,
127802,note_on,14,0,14,,,,,,,,,13,,,,61,0
127803,note_on,10,0,12,,,,,,,,,11,,,,68,112
127804,note_on,14,0,15,,,,,,,,,14,,,,49,0
127804,control_change,119,0,2,,,,,,,,,1,11,59,,,
127804,note_on,0,0,2,,,,,,,,,1,,,,80,100
127804,note_on,0,0,2,,,,,,,,,1,,,,77,115
127805,note_on,0,0,3,,,,,,,,,2,,,,68,116
127805,note_on,119,0,3,,,,,,,,,2,,,,65,116
127808,note_on,10,0,13,,,,,,,,,12,,,,56,112
127809,note_on,0,0,4,,,,,,,,,3,,,,53,115
127809,note_on,0,0,4,,,,,,,,,3,,,,56,100
127809,control_change,119,0,4,,,,,,,,,3,11,62,,,
127812,note_on,10,0,14,,,,,,,,,13,,,,56,112
127814,note_on,10,0,15,,,,,,,,,14,,,,44,112
127824,control_change,24,0,11,,,,,,,,,10,11,55,,,
127827,control_change,24,0,12,,,,,,,,,11,11,55,,,
127832,control_change,24,0,13,,,,,,,,,12,11,55,,,
127834,note_on,30,0,2,,,,,,,,,1,,,,80,0
127836,control_change,24,0,14,,,,,,,,,13,11,55,,,
127838,control_change,24,0,15,,,,,,,,,14,11,55,,,
127839,note_on,30,0,4,,,,,,,,,3,,,,56,0
127864,note_on,30,0,2,,,,,,,,,1,,,,80,100
127869,note_on,30,0,4,,,,,,,,,3,,,,56,100
127872,control_change,48,0,11,,,,,,,,,10,11,54,,,
127875,control_change,48,0,12,,,,,,,,,11,11,54,,,
127880,control_change,48,0,13,,,,,,,,,12,11,54,,,
127884,control_change,48,0,14,,,,,,,,,13,11,54,,,
127886,control_change,48,0,15,,,,,,,,,14,11,54,,,
127894,note_on,30,0,2,,,,,,,,,1,,,,80,0
127899,note_on,30,0,4,,,,,,,,,3,,,,56,0
127920,set_tempo,120,1,0,,,,,,263158,,,,,,,,
127920,control_change,48,0,11,,,,,,,,,10,11,53,,,
127923,control_change,48,0,12,,,,,,,,,11,11,53,,,
127924,note_on,30,0,2,,,,,,,,,1,,,,82,100
127928,control_change,48,0,13,,,,,,,,,12,11,53,,,
127929,note_on,30,0,4,,,,,,,,,3,,,,58,100
127932,control_change,48,0,14,,,,,,,,,13,11,53,,,
127934,control_change,48,0,15,,,,,,,,,14,11,53,,,
127968,control_change,48,0,11,,,,,,,,,10,11,52,,,
127971,control_change,48,0,12,,,,,,,,,11,11,52,,,
127976,control_change,48,0,13,,,,,,,,,12,11,52,,,
127980,control_change,48,0,14,,,,,,,,,13,11,52,,,
127982,control_change,48,0,15,,,,,,,,,14,11,52,,,
127984,note_on,60,0,2,,,,,,,,,1,,,,82,0
127984,note_on,0,0,2,,,,,,,,,1,,,,80,100
127989,note_on,0,0,4,,,,,,,,,3,,,,56,100
127989,note_on,60,0,4,,,,,,,,,3,,,,58,0
128016,control_change,48,0,11,,,,,,,,,10,11,51,,,
128019,control_change,48,0,12,,,,,,,,,11,11,51,,,
128024,control_change,48,0,13,,,,,,,,,12,11,51,,,
128028,control_change,48,0,14,,,,,,,,,13,11,51,,,
128030,control_change,48,0,15,,,,,,,,,14,11,51,,,
128040,note_on,0,0,11,,,,,,,,,10,,,,65,112
128040,note_on,24,0,11,,,,,,,,,10,,,,68,0
128040,set_tempo,120,1,0,,,,,,288462,,,,,,,,
128043,note_on,0,0,12,,,,,,,,,11,,,,65,112
128043,note_on,24,0,12,,,,,,,,,11,,,,68,0
128044,note_on,0,0,2,,,,,,,,,1,,,,82,100
128044,note_on,60,0,2,,,,,,,,,1,,,,80,0
128048,note_on,24,0,13,,,,,,,,,12,,,,56,0
128048,note_on,0,0,13,,,,,,,,,12,,,,53,112
128049,note_on,0,0,4,,,,,,,,,3,,,,58,100
128049,note_on,60,0,4,,,,,,,,,3,,,,56,0
128052,note_on,24,0,14,,,,,,,,,13,,,,56,0
128052,note_on,0,0,14,,,,,,,,,13,,,,53,112
128054,note_on,0,0,15,,,,,,,,,14,,,,41,112
128054,note_on,24,0,15,,,,,,,,,14,,,,44,0
128064,control_change,24,0,11,,,,,,,,,10,11,50,,,
128067,control_change,24,0,12,,,,,,,,,11,11,50,,,
128072,control_change,24,0,13,,,,,,,,,12,11,50,,,
128076,control_change,24,0,14,,,,,,,,,13,11,50,,,
128078,control_change,24,0,15,,,,,,,,,14,11,50,,,
128104,note_on,0,0,2,,,,,,,,,1,,,,80,100
128104,note_on,60,0,2,,,,,,,,,1,,,,82,0
128109,note_on,0,0,4,,,,,,,,,3,,,,56,100
128109,note_on,60,0,4,,,,,,,,,3,,,,58,0
128112,control_change,48,0,11,,,,,,,,,10,11,50,,,
128115,control_change,48,0,12,,,,,,,,,11,11,50,,,
128120,control_change,48,0,13,,,,,,,,,12,11,50,,,
128124,control_change,48,0,14,,,,,,,,,13,11,50,,,
128126,control_change,48,0,15,,,,,,,,,14,11,50,,,
128150,note_on,38,0,11,,,,,,,,,10,,,,65,0
128153,note_on,38,0,12,,,,,,,,,11,,,,65,0
128158,note_on,38,0,13,,,,,,,,,12,,,,53,0
128160,note_on,10,0,11,,,,,,,,,10,,,,61,112
128160,control_change,0,0,11,,,,,,,,,10,11,49,,,
128160,set_tempo,120,1,0,,,,,,254237,,,,,,,,
128162,note_on,38,0,14,,,,,,,,,13,,,,53,0
128163,note_on,10,0,12,,,,,,,,,11,,,,61,112
128163,control_change,0,0,12,,,,,,,,,11,11,49,,,
128164,note_on,60,0,2,,,,,,,,,1,,,,80,0
128164,note_on,0,0,2,,,,,,,,,1,,,,77,0
128164,note_on,0,0,2,,,,,,,,,1,,,,77,115
128164,note_on,0,0,2,,,,,,,,,1,,,,80,115
128164,control_change,0,0,2,,,,,,,,,1,11,52,,,
128164,note_on,38,0,15,,,,,,,,,14,,,,41,0
128165,note_on,0,0,3,,,,,,,,,2,,,,65,116
128165,note_on,360,0,3,,,,,,,,,2,,,,68,0
128165,note_on,0,0,3,,,,,,,,,2,,,,65,0
128165,note_on,0,0,3,,,,,,,,,2,,,,68,101
128165,control_change,0,0,3,,,,,,,,,2,11,59,,,
128168,note_on,10,0,13,,,,,,,,,12,,,,49,112
128168,control_change,0,0,13,,,,,,,,,12,11,49,,,
128169,note_on,60,0,4,,,,,,,,,3,,,,56,0
128169,note_on,0,0,4,,,,,,,,,3,,,,53,0
128169,note_on,0,0,4,,,,,,,,,3,,,,56,115
128169,control_change,0,0,4,,,,,,,,,3,11,52,,,
128169,note_on,0,0,4,,,,,,,,,3,,,,53,115
128172,control_change,0,0,14,,,,,,,,,13,11,49,,,
128172,note_on,10,0,14,,,,,,,,,13,,,,49,112
128174,note_on,0,0,15,,,,,,,,,14,,,,37,112
128174,control_change,10,0,15,,,,,,,,,14,11,49,,,
128195,note_on,30,0,3,,,,,,,,,2,,,,68,0
128208,control_change,48,0,11,,,,,,,,,10,11,48,,,
128211,control_change,48,0,12,,,,,,,,,11,11,48,,,
128216,control_change,48,0,13,,,,,,,,,12,11,48,,,
128220,control_change,48,0,14,,,,,,,,,13,11,48,,,
128222,control_change,48,0,15,,,,,,,,,14,11,48,,,
128224,note_on,60,0,2,,,,,,,,,1,,,,80,0
128224,note_on,0,0,2,,,,,,,,,1,,,,77,0
128225,note_on,30,0,3,,,,,,,,,2,,,,68,101
128229,note_on,0,0,4,,,,,,,,,3,,,,56,0
128229,note_on,60,0,4,,,,,,,,,3,,,,53,0
128255,note_on,30,0,3,,,,,,,,,2,,,,68,0
128256,control_change,48,0,11,,,,,,,,,10,11,47,,,
128259,control_change,48,0,12,,,,,,,,,11,11,47,,,
128264,control_change,48,0,13,,,,,,,,,12,11,47,,,
128268,control_change,48,0,14,,,,,,,,,13,11,47,,,
128270,control_change,48,0,15,,,,,,,,,14,11,47,,,
128280,set_tempo,120,1,0,,,,,,263158,,,,,,,,
128284,note_on,0,0,2,,,,,,,,,1,,,,77,115
128284,note_on,60,0,2,,,,,,,,,1,,,,80,115
128285,note_on,30,0,3,,,,,,,,,2,,,,70,101
128289,note_on,0,0,4,,,,,,,,,3,,,,56,100
128289,note_on,60,0,4,,,,,,,,,3,,,,53,100
128304,control_change,48,0,11,,,,,,,,,10,11,46,,,
128307,control_change,48,0,12,,,,,,,,,11,11,46,,,
128312,control_change,48,0,13,,,,,,,,,12,11,46,,,
128316,control_change,48,0,14,,,,,,,,,13,11,46,,,
128318,control_change,48,0,15,,,,,,,,,14,11,46,,,
128344,note_on,60,0,2,,,,,,,,,1,,,,77,0
128344,note_on,0,0,2,,,,,,,,,1,,,,80,0
128345,note_on,0,0,3,,,,,,,,,2,,,,68,101
128345,note_on,60,0,3,,,,,,,,,2,,,,70,0
128349,note_on,0,0,4,,,,,,,,,3,,,,53,0
128349,note_on,60,0,4,,,,,,,,,3,,,,56,0
128352,control_change,48,0,11,,,,,,,,,10,11,45,,,
128355,control_change,48,0,12,,,,,,,,,11,11,45,,,
128360,control_change,48,0,13,,,,,,,,,12,11,45,,,
128364,control_change,48,0,14,,,,,,,,,13,11,45,,,
128366,control_change,48,0,15,,,,,,,,,14,11,45,,,
128400,note_on,48,0,11,,,,,,,,,10,,,,61,0
128400,set_tempo,120,1,0,,,,,,288462,,,,,,,,
128400,control_change,0,0,11,,,,,,,,,10,11,45,,,
128400,note_on,0,0,11,,,,,,,,,10,,,,56,112
128403,control_change,0,0,12,,,,,,,,,11,11,45,,,
128403,note_on,0,0,12,,,,,,,,,11,,,,56,112
128403,note_on,48,0,12,,,,,,,,,11,,,,61,0
128404,note_on,0,0,2,,,,,,,,,1,,,,77,115
128404,note_on,60,0,2,,,,,,,,,1,,,,80,115
128405,note_on,60,0,3,,,,,,,,,2,,,,68,0
128405,note_on,0,0,3,,,,,,,,,2,,,,70,101
128408,control_change,0,0,13,,,,,,,,,12,11,45,,,
128408,note_on,0,0,13,,,,,,,,,12,,,,56,112
128408,note_on,48,0,13,,,,,,,,,12,,,,49,0
128409,note_on,0,0,4,,,,,,,,,3,,,,56,100
128409,note_on,60,0,4,,,,,,,,,3,,,,53,100
128412,control_change,0,0,14,,,,,,,,,13,11,45,,,
128412,note_on,48,0,14,,,,,,,,,13,,,,49,0
128412,note_on,0,0,14,,,,,,,,,13,,,,44,112
128414,note_on,0,0,15,,,,,,,,,14,,,,32,112
128414,note_on,48,0,15,,,,,,,,,14,,,,37,0
128414,control_change,0,0,15,,,,,,,,,14,11,45,,,
128464,note_on,0,0,2,,,,,,,,,1,,,,80,0
128464,note_on,60,0,2,,,,,,,,,1,,,,77,0
128465,note_on,0,0,3,,,,,,,,,2,,,,68,101
128465,note_on,60,0,3,,,,,,,,,2,,,,70,0
128469,note_on,0,0,4,,,,,,,,,3,,,,53,0
128469,note_on,60,0,4,,,,,,,,,3,,,,56,0
128510,note_on,110,0,11,,,,,,,,,10,,,,56,0
128513,note_on,110,0,12,,,,,,,,,11,,,,56,0
128518,note_on,110,0,13,,,,,,,,,12,,,,56,0
128520,set_tempo,120,1,0,,,,,,254237,,,,,,,,
128520,control_change,0,0,11,,,,,,,,,10,11,49,,,
128520,note_on,10,0,11,,,,,,,,,10,,,,61,112
128522,note_on,110,0,14,,,,,,,,,13,,,,44,0
128523,note_on,10,0,12,,,,,,,,,11,,,,61,112
128523,control_change,0,0,12,,,,,,,,,11,11,49,,,
128524,control_change,60,0,2,,,,,,,,,1,11,37,,,
128524,note_on,0,0,2,,,,,,,,,1,,,,80,100
128524,note_on,0,0,2,,,,,,,,,1,,,,76,100
128524,note_on,110,0,15,,,,,,,,,14,,,,32,0
128525,note_on,60,0,3,,,,,,,,,2,,,,68,0
128525,note_on,0,0,3,,,,,,,,,2,,,,65,0
128525,note_on,0,0,3,,,,,,,,,2,,,,68,101
128525,note_on,0,0,3,,,,,,,,,2,,,,64,101
128525,control_change,0,0,3,,,,,,,,,2,11,37,,,
128528,note_on,10,0,13,,,,,,,,,12,,,,49,112
128528,control_change,0,0,13,,,,,,,,,12,11,49,,,
128529,control_change,0,0,4,,,,,,,,,3,11,37,,,
128529,note_on,0,0,4,,,,,,,,,3,,,,56,100
128529,note_on,60,0,4,,,,,,,,,3,,,,52,100
128532,control_change,10,0,14,,,,,,,,,13,11,49,,,
128532,note_on,0,0,14,,,,,,,,,13,,,,49,112
128534,control_change,0,0,15,,,,,,,,,14,11,49,,,
128534,note_on,10,0,15,,,,,,,,,14,,,,37,112
128542,control_change,18,0,2,,,,,,,,,1,11,40,,,
128543,control_change,18,0,3,,,,,,,,,2,11,40,,,
128547,control_change,18,0,4,,,,,,,,,3,11,40,,,
128558,control_change,38,0,11,,,,,,,,,10,11,50,,,
128560,control_change,18,0,2,,,,,,,,,1,11,43,,,
128561,control_change,38,0,12,,,,,,,,,11,11,50,,,
128561,control_change,18,0,3,,,,,,,,,2,11,43,,,
128565,control_change,18,0,4,,,,,,,,,3,11,43,,,
128566,control_change,38,0,13,,,,,,,,,12,11,50,,,
128570,control_change,38,0,14,,,,,,,,,13,11,50,,,
128572,control_change,38,0,15,,,,,,,,,14,11,50,,,
128578,control_change,18,0,2,,,,,,,,,1,11,46,,,
128579,control_change,18,0,3,,,,,,,,,2,11,46,,,
128583,control_change,18,0,4,,,,,,,,,3,11,46,,,
128596,control_change,18,0,2,,,,,,,,,1,11,49,,,
128596,control_change,38,0,11,,,,,,,,,10,11,50,,,
128597,control_change,18,0,3,,,,,,,,,2,11,49,,,
128599,control_change,38,0,12,,,,,,,,,11,11,50,,,
128601,control_change,18,0,4,,,,,,,,,3,11,49,,,
128604,control_change,38,0,13,,,,,,,,,12,11,50,,,
128608,control_change,38,0,14,,,,,,,,,13,11,50,,,
128610,control_change,38,0,15,,,,,,,,,14,11,50,,,
128614,control_change,18,0,2,,,,,,,,,1,11,52,,,
128615,control_change,18,0,3,,,,,,,,,2,11,52,,,
128619,control_change,18,0,4,,,,,,,,,3,11,52,,,
128632,control_change,18,0,2,,,,,,,,,1,11,54,,,
128633,control_change,18,0,3,,,,,,,,,2,11,54,,,
128635,control_change,39,0,11,,,,,,,,,10,11,51,,,
128637,control_change,18,0,4,,,,,,,,,3,11,55,,,
128638,control_change,39,0,12,,,,,,,,,11,11,51,,,
128640,set_tempo,120,1,0,,,,,,263158,,,,,,,,
128643,control_change,39,0,13,,,,,,,,,12,11,51,,,
128647,control_change,39,0,14,,,,,,,,,13,11,51,,,
128649,control_change,39,0,15,,,,,,,,,14,11,51,,,
128673,control_change,38,0,11,,,,,,,,,10,11,52,,,
128676,control_change,38,0,12,,,,,,,,,11,11,52,,,
128681,control_change,38,0,13,,,,,,,,,12,11,52,,,
128685,control_change,38,0,14,,,,,,,,,13,11,52,,,
128687,control_change,38,0,15,,,,,,,,,14,11,52,,,
128712,control_change,39,0,11,,,,,,,,,10,11,53,,,
128715,control_change,39,0,12,,,,,,,,,11,11,53,,,
128720,control_change,39,0,13,,,,,,,,,12,11,53,,,
128724,control_change,39,0,14,,,,,,,,,13,11,53,,,
128726,control_change,39,0,15,,,,,,,,,14,11,53,,,
128750,control_change,38,0,11,,,,,,,,,10,11,54,,,
128753,control_change,38,0,12,,,,,,,,,11,11,54,,,
128758,control_change,38,0,13,,,,,,,,,12,11,54,,,
128760,note_on,0,0,11,,,,,,,,,10,,,,64,112
128760,set_tempo,120,1,0,,,,,,288462,,,,,,,,
128760,note_on,10,0,11,,,,,,,,,10,,,,61,0
128762,control_change,38,0,14,,,,,,,,,13,11,54,,,
128763,note_on,0,0,12,,,,,,,,,11,,,,64,112
128763,note_on,10,0,12,,,,,,,,,11,,,,61,0
128764,control_change,38,0,15,,,,,,,,,14,11,54,,,
128765,note_on,0,0,2,,,,,,,,,1,,,,80,0
128765,note_on,133,0,2,,,,,,,,,1,,,,76,0
128766,note_on,133,0,3,,,,,,,,,2,,,,64,0
128766,note_on,0,0,3,,,,,,,,,2,,,,68,0
128768,note_on,10,0,13,,,,,,,,,12,,,,49,0
128768,note_on,0,0,13,,,,,,,,,12,,,,52,112
128770,note_on,133,0,4,,,,,,,,,3,,,,56,0
128770,note_on,0,0,4,,,,,,,,,3,,,,52,0
128772,note_on,10,0,14,,,,,,,,,13,,,,49,0
128772,note_on,0,0,14,,,,,,,,,13,,,,52,112
128774,note_on,10,0,15,,,,,,,,,14,,,,37,0
128774,note_on,0,0,15,,,,,,,,,14,,,,40,112
128788,control_change,28,0,11,,,,,,,,,10,11,55,,,
128791,control_change,28,0,12,,,,,,,,,11,11,55,,,
128796,control_change,28,0,13,,,,,,,,,12,11,55,,,
128800,control_change,28,0,14,,,,,,,,,13,11,55,,,
128802,control_change,28,0,15,,,,,,,,,14,11,55,,,
128827,control_change,39,0,11,,,,,,,,,10,11,55,,,
128830,control_change,39,0,12,,,,,,,,,11,11,55,,,
128835,control_change,39,0,13,,,,,,,,,12,11,55,,,
128839,control_change,39,0,14,,,,,,,,,13,11,55,,,
128841,control_change,39,0,15,,,,,,,,,14,11,55,,,
128865,control_change,38,0,11,,,,,,,,,10,11,56,,,
128868,control_change,38,0,12,,,,,,,,,11,11,56,,,
128870,note_on,5,0,11,,,,,,,,,10,,,,64,0
128873,control_change,38,0,13,,,,,,,,,12,11,56,,,
128873,note_on,5,0,12,,,,,,,,,11,,,,64,0
128877,control_change,38,0,14,,,,,,,,,13,11,56,,,
128878,note_on,5,0,13,,,,,,,,,12,,,,52,0
128879,control_change,38,0,15,,,,,,,,,14,11,56,,,
128880,set_tempo,120,1,0,,,,,,254237,,,,,,,,
128880,note_on,10,0,11,,,,,,,,,10,,,,68,112
128882,note_on,5,0,14,,,,,,,,,13,,,,52,0
128883,note_on,10,0,12,,,,,,,,,11,,,,68,112
128884,note_on,5,0,15,,,,,,,,,14,,,,40,0
128884,note_on,0,0,2,,,,,,,,,1,,,,76,100
128884,note_on,119,0,2,,,,,,,,,1,,,,80,100
128885,note_on,0,0,3,,,,,,,,,2,,,,68,101
128885,note_on,119,0,3,,,,,,,,,2,,,,64,101
128888,note_on,10,0,13,,,,,,,,,12,,,,56,112
128889,note_on,0,0,4,,,,,,,,,3,,,,56,100
128889,note_on,119,0,4,,,,,,,,,3,,,,52,100
128892,note_on,10,0,14,,,,,,,,,13,,,,56,112
128894,note_on,10,0,15,,,,,,,,,14,,,,44,112
128904,control_change,24,0,11,,,,,,,,,10,11,57,,,
128907,control_change,24,0,12,,,,,,,,,11,11,57,,,
128912,control_change,24,0,13,,,,,,,,,12,11,57,,,
128916,control_change,24,0,14,,,,,,,,,13,11,57,,,
128918,control_change,24,0,15,,,,,,,,,14,11,57,,,
128942,control_change,38,0,11,,,,,,,,,10,11,57,,,
128945,control_change,38,0,12,,,,,,,,,11,11,57,,,
128950,control_change,38,0,13,,,,,,,,,12,11,57,,,
128954,control_change,38,0,14,,,,,,,,,13,11,57,,,
128956,control_change,38,0,15,,,,,,,,,14,11,57,,,
128980,control_change,38,0,11,,,,,,,,,10,11,58,,,
128983,control_change,38,0,12,,,,,,,,,11,11,58,,,
128988,control_change,38,0,13,,,,,,,,,12,11,58,,,
128992,control_change,38,0,14,,,,,,,,,13,11,58,,,
128994,control_change,38,0,15,,,,,,,,,14,11,58,,,
129000,set_tempo,120,1,0,,,,,,263158,,,,,,,,
129019,control_change,39,0,11,,,,,,,,,10,11,59,,,
129022,control_change,39,0,12,,,,,,,,,11,11,59,,,
129027,control_change,39,0,13,,,,,,,,,12,11,59,,,
129031,control_change,39,0,14,,,,,,,,,13,11,59,,,
129033,control_change,39,0,15,,,,,,,,,14,11,59,,,
129057,control_change,38,0,11,,,,,,,,,10,11,59,,,
129060,control_change,38,0,12,,,,,,,,,11,11,59,,,
129065,control_change,38,0,13,,,,,,,,,12,11,59,,,
129069,control_change,38,0,14,,,,,,,,,13,11,59,,,
129071,control_change,38,0,15,,,,,,,,,14,11,59,,,
129096,control_change,39,0,11,,,,,,,,,10,11,60,,,
129099,control_change,39,0,12,,,,,,,,,11,11,60,,,
129104,control_change,39,0,13,,,,,,,,,12,11,60,,,
129108,control_change,39,0,14,,,,,,,,,13,11,60,,,
129110,control_change,39,0,15,,,,,,,,,14,11,60,,,
129120,note_on,0,0,11,,,,,,,,,10,,,,73,112
129120,note_on,24,0,11,,,,,,,,,10,,,,68,0
129120,set_tempo,120,1,0,,,,,,288462,,,,,,,,
129123,note_on,0,0,12,,,,,,,,,11,,,,73,112
129123,note_on,24,0,12,,,,,,,,,11,,,,68,0
129125,note_on,0,0,2,,,,,,,,,1,,,,80,0
129125,note_on,241,0,2,,,,,,,,,1,,,,76,0
129126,note_on,241,0,3,,,,,,,,,2,,,,68,0
129126,note_on,0,0,3,,,,,,,,,2,,,,64,0
129128,note_on,24,0,13,,,,,,,,,12,,,,56,0
129128,note_on,0,0,13,,,,,,,,,12,,,,61,112
129130,note_on,241,0,4,,,,,,,,,3,,,,56,0
129130,note_on,0,0,4,,,,,,,,,3,,,,52,0
129132,note_on,0,0,14,,,,,,,,,13,,,,61,112
129132,note_on,24,0,14,,,,,,,,,13,,,,56,0
129134,control_change,14,0,11,,,,,,,,,10,11,61,,,
129134,note_on,0,0,15,,,,,,,,,14,,,,49,112
129134,note_on,24,0,15,,,,,,,,,14,,,,44,0
129137,control_change,14,0,12,,,,,,,,,11,11,61,,,
129142,control_change,14,0,13,,,,,,,,,12,11,61,,,
129146,control_change,14,0,14,,,,,,,,,13,11,61,,,
129148,control_change,14,0,15,,,,,,,,,14,11,61,,,
129172,control_change,38,0,11,,,,,,,,,10,11,62,,,
129175,control_change,38,0,12,,,,,,,,,11,11,62,,,
129180,control_change,38,0,13,,,,,,,,,12,11,62,,,
129184,control_change,38,0,14,,,,,,,,,13,11,62,,,
129186,control_change,38,0,15,,,,,,,,,14,11,62,,,
129211,control_change,39,0,11,,,,,,,,,10,11,63,,,
129214,control_change,39,0,12,,,,,,,,,11,11,63,,,
129219,control_change,39,0,13,,,,,,,,,12,11,63,,,
129223,control_change,39,0,14,,,,,,,,,13,11,63,,,
129225,control_change,39,0,15,,,,,,,,,14,11,63,,,
129230,note_on,19,0,11,,,,,,,,,10,,,,73,0
129233,note_on,19,0,12,,,,,,,,,11,,,,73,0
129238,note_on,19,0,13,,,,,,,,,12,,,,61,0
129240,set_tempo,120,1,0,,,,,,254237,,,,,,,,
129240,note_on,10,0,11,,,,,,,,,10,,,,76,112
129242,note_on,19,0,14,,,,,,,,,13,,,,61,0
129243,note_on,10,0,12,,,,,,,,,11,,,,76,112
129244,note_on,0,0,2,,,,,,,,,1,,,,76,100
129244,note_on,119,0,2,,,,,,,,,1,,,,80,100
129244,note_on,19,0,15,,,,,,,,,14,,,,49,0
129245,note_on,0,0,3,,,,,,,,,2,,,,64,101
129245,note_on,119,0,3,,,,,,,,,2,,,,68,101
129248,note_on,10,0,13,,,,,,,,,12,,,,64,112
129249,note_on,0,0,4,,,,,,,,,3,,,,56,100
129249,note_on,119,0,4,,,,,,,,,3,,,,52,100
129249,control_change,9,0,11,,,,,,,,,10,11,64,,,
129252,control_change,9,0,12,,,,,,,,,11,11,64,,,
129252,note_on,10,0,14,,,,,,,,,13,,,,64,112
129254,note_on,10,0,15,,,,,,,,,14,,,,52,112
129257,control_change,9,0,13,,,,,,,,,12,11,64,,,
129261,control_change,9,0,14,,,,,,,,,13,11,64,,,
129263,control_change,9,0,15,,,,,,,,,14,11,64,,,
129288,control_change,39,0,11,,,,,,,,,10,11,64,,,
129291,control_change,39,0,12,,,,,,,,,11,11,64,,,
129296,control_change,39,0,13,,,,,,,,,12,11,64,,,
129300,control_change,39,0,14,,,,,,,,,13,11,64,,,
129302,control_change,39,0,15,,,,,,,,,14,11,64,,,
129326,control_change,38,0,11,,,,,,,,,10,11,65,,,
129329,control_change,38,0,12,,,,,,,,,11,11,65,,,
129334,control_change,38,0,13,,,,,,,,,12,11,65,,,
129338,control_change,38,0,14,,,,,,,,,13,11,65,,,
129340,control_change,38,0,15,,,,,,,,,14,11,65,,,
129360,set_tempo,120,1,0,,,,,,263158,,,,,,,,
129364,control_change,38,0,11,,,,,,,,,10,11,66,,,
129367,control_change,38,0,12,,,,,,,,,11,11,66,,,
129372,control_change,38,0,13,,,,,,,,,12,11,66,,,
129376,control_change,38,0,14,,,,,,,,,13,11,66,,,
129378,control_change,38,0,15,,,,,,,,,14,11,66,,,
129403,control_change,39,0,11,,,,,,,,,10,11,67,,,
129406,control_change,39,0,12,,,,,,,,,11,11,67,,,
129411,control_change,39,0,13,,,,,,,,,12,11,67,,,
129415,control_change,39,0,14,,,,,,,,,13,11,67,,,
129417,control_change,39,0,15,,,,,,,,,14,11,67,,,
129441,control_change,38,0,11,,,,,,,,,10,11,68,,,
129444,control_change,38,0,12,,,,,,,,,11,11,68,,,
129449,control_change,38,0,13,,,,,,,,,12,11,68,,,
129453,control_change,38,0,14,,,,,,,,,13,11,68,,,
129455,control_change,38,0,15,,,,,,,,,14,11,68,,,
129480,set_tempo,120,1,0,,,,,,288462,,,,,,,,
129480,note_on,0,0,11,,,,,,,,,10,,,,80,112
129480,control_change,0,0,11,,,,,,,,,10,11,69,,,
129480,note_on,39,0,11,,,,,,,,,10,,,,76,0
129483,note_on,39,0,12,,,,,,,,,11,,,,76,0
129483,control_change,0,0,12,,,,,,,,,11,11,69,,,
129483,note_on,0,0,12,,,,,,,,,11,,,,80,112
129485,note_on,241,0,2,,,,,,,,,1,,,,76,0
129485,note_on,0,0,2,,,,,,,,,1,,,,80,0
129486,note_on,0,0,3,,,,,,,,,2,,,,68,0
129486,note_on,241,0,3,,,,,,,,,2,,,,64,0
129488,note_on,39,0,13,,,,,,,,,12,,,,64,0
129488,control_change,0,0,13,,,,,,,,,12,11,69,,,
129488,note_on,0,0,13,,,,,,,,,12,,,,68,112
129490,note_on,241,0,4,,,,,,,,,3,,,,56,0
129490,note_on,0,0,4,,,,,,,,,3,,,,52,0
129492,control_change,0,0,14,,,,,,,,,13,11,69,,,
129492,note_on,39,0,14,,,,,,,,,13,,,,64,0
129492,note_on,0,0,14,,,,,,,,,13,,,,68,112
129494,control_change,0,0,15,,,,,,,,,14,11,69,,,
129494,note_on,0,0,15,,,,,,,,,14,,,,56,112
129494,note_on,39,0,15,,,,,,,,,14,,,,52,0
129590,note_on,110,0,11,,,,,,,,,10,,,,80,0
129593,note_on,110,0,12,,,,,,,,,11,,,,80,0
129598,note_on,110,0,13,,,,,,,,,12,,,,68,0
129600,note_on,0,0,11,,,,,,,,,10,,,,76,112
129600,control_change,10,0,11,,,,,,,,,10,11,64,,,
129600,set_tempo,120,1,0,,,,,,254237,,,,,,,,
129602,note_on,110,0,14,,,,,,,,,13,,,,68,0
129603,control_change,10,0,12,,,,,,,,,11,11,64,,,
129603,note_on,0,0,12,,,,,,,,,11,,,,76,112
129604,note_on,110,0,15,,,,,,,,,14,,,,56,0
129604,note_on,0,0,2,,,,,,,,,1,,,,76,100
129604,note_on,119,0,2,,,,,,,,,1,,,,80,100
129605,note_on,119,0,3,,,,,,,,,2,,,,68,101
129605,note_on,0,0,3,,,,,,,,,2,,,,64,101
129608,note_on,0,0,13,,,,,,,,,12,,,,64,112
129608,control_change,10,0,13,,,,,,,,,12,11,64,,,
129609,note_on,119,0,4,,,,,,,,,3,,,,56,100
129609,note_on,0,0,4,,,,,,,,,3,,,,52,100
129612,note_on,0,0,14,,,,,,,,,13,,,,64,112
129612,control_change,10,0,14,,,,,,,,,13,11,64,,,
129614,note_on,0,0,15,,,,,,,,,14,,,,52,112
129614,control_change,10,0,15,,,,,,,,,14,11,64,,,
129664,control_change,64,0,11,,,,,,,,,10,11,64,,,
129667,control_change,64,0,12,,,,,,,,,11,11,64,,,
129672,control_change,64,0,13,,,,,,,,,12,11,64,,,
129676,control_change,64,0,14,,,,,,,,,13,11,64,,,
129678,control_change,64,0,15,,,,,,,,,14,11,64,,,
129720,set_tempo,120,1,0,,,,,,263158,,,,,,,,
129728,control_change,64,0,11,,,,,,,,,10,11,63,,,
129731,control_change,64,0,12,,,,,,,,,11,11,63,,,
129736,control_change,64,0,13,,,,,,,,,12,11,63,,,
129740,control_change,64,0,14,,,,,,,,,13,11,63,,,
129742,control_change,64,0,15,,,,,,,,,14,11,63,,,
129792,control_change,64,0,11,,,,,,,,,10,11,62,,,
129795,control_change,64,0,12,,,,,,,,,11,11,62,,,
129800,control_change,64,0,13,,,,,,,,,12,11,62,,,
129804,control_change,64,0,14,,,,,,,,,13,11,62,,,
129806,control_change,64,0,15,,,,,,,,,14,11,62,,,
129840,note_on,48,0,11,,,,,,,,,10,,,,76,0
129840,note_on,0,0,11,,,,,,,,,10,,,,73,112
129840,set_tempo,120,1,0,,,,,,288462,,,,,,,,
129843,note_on,48,0,12,,,,,,,,,11,,,,76,0
129843,note_on,0,0,12,,,,,,,,,11,,,,73,112
129845,note_on,0,0,2,,,,,,,,,1,,,,80,0
129845,note_on,241,0,2,,,,,,,,,1,,,,76,0
129846,note_on,241,0,3,,,,,,,,,2,,,,64,0
129846,note_on,0,0,3,,,,,,,,,2,,,,68,0
129848,note_on,48,0,13,,,,,,,,,12,,,,64,0
129848,note_on,0,0,13,,,,,,,,,12,,,,61,112
129850,note_on,241,0,4,,,,,,,,,3,,,,52,0
129850,note_on,0,0,4,,,,,,,,,3,,,,56,0
129852,note_on,48,0,14,,,,,,,,,13,,,,64,0
129852,note_on,0,0,14,,,,,,,,,13,,,,61,112
129854,note_on,0,0,15,,,,,,,,,14,,,,49,112
129854,note_on,48,0,15,,,,,,,,,14,,,,52,0
129856,control_change,16,0,11,,,,,,,,,10,11,61,,,
129859,control_change,16,0,12,,,,,,,,,11,11,61,,,
129864,control_change,16,0,13,,,,,,,,,12,11,61,,,
129868,control_change,16,0,14,,,,,,,,,13,11,61,,,
129870,control_change,16,0,15,,,,,,,,,14,11,61,,,
129920,control_change,64,0,11,,,,,,,,,10,11,60,,,
129923,control_change,64,0,12,,,,,,,,,11,11,60,,,
129928,control_change,64,0,13,,,,,,,,,12,11,60,,,
129932,control_change,64,0,14,,,,,,,,,13,11,60,,,
129934,control_change,64,0,15,,,,,,,,,14,11,60,,,
129950,note_on,30,0,11,,,,,,,,,10,,,,73,0
129953,note_on,30,0,12,,,,,,,,,11,,,,73,0
129958,note_on,30,0,13,,,,,,,,,12,,,,61,0
129960,set_tempo,120,1,0,,,,,,254237,,,,,,,,
129960,note_on,10,0,11,,,,,,,,,10,,,,68,112
129962,note_on,30,0,14,,,,,,,,,13,,,,61,0
129963,note_on,10,0,12,,,,,,,,,11,,,,68,112
129964,note_on,0,0,2,,,,,,,,,1,,,,80,100
129964,note_on,30,0,15,,,,,,,,,14,,,,49,0
129964,note_on,0,0,2,,,,,,,,,1,,,,76,100
129964,control_change,119,0,2,,,,,,,,,1,11,63,,,
129965,note_on,0,0,3,,,,,,,,,2,,,,64,101
129965,note_on,119,0,3,,,,,,,,,2,,,,68,101
129968,note_on,10,0,13,,,,,,,,,12,,,,56,112
129969,note_on,119,0,4,,,,,,,,,3,,,,56,100
129969,note_on,0,0,4,,,,,,,,,3,,,,52,100
129972,note_on,10,0,14,,,,,,,,,13,,,,56,112
129974,note_on,10,0,15,,,,,,,,,14,,,,44,112
129984,control_change,24,0,11,,,,,,,,,10,11,59,,,
129987,control_change,24,0,12,,,,,,,,,11,11,59,,,
129992,control_change,24,0,13,,,,,,,,,12,11,59,,,
129994,note_on,30,0,2,,,,,,,,,1,,,,80,0
129996,control_change,24,0,14,,,,,,,,,13,11,59,,,
129998,control_change,24,0,15,,,,,,,,,14,11,59,,,
130024,note_on,30,0,2,,,,,,,,,1,,,,80,100
130048,control_change,64,0,11,,,,,,,,,10,11,59,,,
130051,control_change,64,0,12,,,,,,,,,11,11,59,,,
130054,note_on,30,0,2,,,,,,,,,1,,,,80,0
130056,control_change,64,0,13,,,,,,,,,12,11,59,,,
130060,control_change,64,0,14,,,,,,,,,13,11,59,,,
130062,control_change,64,0,15,,,,,,,,,14,11,59,,,
130080,set_tempo,120,1,0,,,,,,263158,,,,,,,,
130084,note_on,30,0,2,,,,,,,,,1,,,,81,100
130112,control_change,64,0,11,,,,,,,,,10,11,58,,,
130115,control_change,64,0,12,,,,,,,,,11,11,58,,,
130120,control_change,64,0,13,,,,,,,,,12,11,58,,,
130124,control_change,64,0,14,,,,,,,,,13,11,58,,,
130126,control_change,64,0,15,,,,,,,,,14,11,58,,,
130144,note_on,60,0,2,,,,,,,,,1,,,,81,0
130144,note_on,0,0,2,,,,,,,,,1,,,,80,100
130176,control_change,64,0,11,,,,,,,,,10,11,57,,,
130179,control_change,64,0,12,,,,,,,,,11,11,57,,,
130184,control_change,64,0,13,,,,,,,,,12,11,57,,,
130188,control_change,64,0,14,,,,,,,,,13,11,57,,,
130190,control_change,64,0,15,,,,,,,,,14,11,57,,,
130200,note_on,24,0,11,,,,,,,,,10,,,,68,0
130200,note_on,0,0,11,,,,,,,,,10,,,,64,112
130200,set_tempo,120,1,0,,,,,,288462,,,,,,,,
130203,note_on,24,0,12,,,,,,,,,11,,,,68,0
130203,note_on,0,0,12,,,,,,,,,11,,,,64,112
130204,note_on,0,0,2,,,,,,,,,1,,,,81,100
130204,note_on,60,0,2,,,,,,,,,1,,,,80,0
130208,note_on,0,0,13,,,,,,,,,12,,,,52,112
130208,note_on,24,0,13,,,,,,,,,12,,,,56,0
130212,note_on,24,0,14,,,,,,,,,13,,,,56,0
130212,note_on,0,0,14,,,,,,,,,13,,,,52,112
130214,note_on,24,0,15,,,,,,,,,14,,,,44,0
130214,note_on,0,0,15,,,,,,,,,14,,,,40,112
130240,control_change,40,0,11,,,,,,,,,10,11,57,,,
130243,control_change,40,0,12,,,,,,,,,11,11,57,,,
130248,control_change,40,0,13,,,,,,,,,12,11,57,,,
130252,control_change,40,0,14,,,,,,,,,13,11,57,,,
130254,control_change,40,0,15,,,,,,,,,14,11,57,,,
130264,note_on,60,0,2,,,,,,,,,1,,,,81,0
130264,note_on,0,0,2,,,,,,,,,1,,,,80,100
130304,control_change,64,0,11,,,,,,,,,10,11,56,,,
130307,control_change,64,0,12,,,,,,,,,11,11,56,,,
130310,note_on,6,0,11,,,,,,,,,10,,,,64,0
130312,control_change,64,0,13,,,,,,,,,12,11,56,,,
130313,note_on,6,0,12,,,,,,,,,11,,,,64,0
130316,control_change,64,0,14,,,,,,,,,13,11,56,,,
130318,note_on,6,0,13,,,,,,,,,12,,,,52,0
130318,control_change,64,0,15,,,,,,,,,14,11,56,,,
130320,set_tempo,120,1,0,,,,,,254237,,,,,,,,
130320,note_on,10,0,11,,,,,,,,,10,,,,61,112
130322,note_on,6,0,14,,,,,,,,,13,,,,52,0
130323,note_on,10,0,12,,,,,,,,,11,,,,61,112
130324,note_on,6,0,15,,,,,,,,,14,,,,40,0
130324,note_on,60,0,2,,,,,,,,,1,,,,80,0
130324,note_on,0,0,2,,,,,,,,,1,,,,76,100
130324,note_on,0,0,2,,,,,,,,,1,,,,80,100
130324,note_on,0,0,2,,,,,,,,,1,,,,76,0
130324,control_change,0,0,2,,,,,,,,,1,11,55,,,
130325,note_on,360,0,3,,,,,,,,,2,,,,64,0
130325,note_on,0,0,3,,,,,,,,,2,,,,68,0
130325,note_on,0,0,3,,,,,,,,,2,,,,64,101
130325,note_on,0,0,3,,,,,,,,,2,,,,68,101
130325,control_change,0,0,3,,,,,,,,,2,11,63,,,
130328,note_on,10,0,13,,,,,,,,,12,,,,49,112
130329,control_change,0,0,4,,,,,,,,,3,11,67,,,
130329,note_on,0,0,4,,,,,,,,,3,,,,56,100
130329,note_on,0,0,4,,,,,,,,,3,,,,56,0
130329,note_on,0,0,4,,,,,,,,,3,,,,52,100
130329,note_on,360,0,4,,,,,,,,,3,,,,52,0
130332,note_on,10,0,14,,,,,,,,,13,,,,49,112
130334,note_on,10,0,15,,,,,,,,,14,,,,37,112
130355,note_on,30,0,3,,,,,,,,,2,,,,68,0
130359,note_on,30,0,4,,,,,,,,,3,,,,56,0
130368,control_change,48,0,11,,,,,,,,,10,11,55,,,
130371,control_change,48,0,12,,,,,,,,,11,11,55,,,
130376,control_change,48,0,13,,,,,,,,,12,11,55,,,
130380,control_change,48,0,14,,,,,,,,,13,11,55,,,
130382,control_change,48,0,15,,,,,,,,,14,11,55,,,
130384,note_on,0,0,2,,,,,,,,,1,,,,80,0
130384,note_on,60,0,2,,,,,,,,,1,,,,76,0
130385,note_on,30,0,3,,,,,,,,,2,,,,68,101
130389,note_on,30,0,4,,,,,,,,,3,,,,56,100
130415,note_on,30,0,3,,,,,,,,,2,,,,68,0
130419,note_on,30,0,4,,,,,,,,,3,,,,56,0
130432,control_change,64,0,11,,,,,,,,,10,11,55,,,
130435,control_change,64,0,12,,,,,,,,,11,11,55,,,
130440,set_tempo,120,1,0,,,,,,263158,,,,,,,,
130440,control_change,64,0,13,,,,,,,,,12,11,55,,,
130444,note_on,0,0,2,,,,,,,,,1,,,,76,100
130444,control_change,64,0,14,,,,,,,,,13,11,55,,,
130444,note_on,60,0,2,,,,,,,,,1,,,,80,100
130445,note_on,30,0,3,,,,,,,,,2,,,,69,101
130446,control_change,64,0,15,,,,,,,,,14,11,55,,,
130449,note_on,30,0,4,,,,,,,,,3,,,,57,100
130496,control_change,64,0,11,,,,,,,,,10,11,54,,,
130499,control_change,64,0,12,,,,,,,,,11,11,54,,,
130504,note_on,60,0,2,,,,,,,,,1,,,,76,0
130504,control_change,64,0,13,,,,,,,,,12,11,54,,,
130504,note_on,0,0,2,,,,,,,,,1,,,,80,0
130505,note_on,60,0,3,,,,,,,,,2,,,,69,0
130505,note_on,0,0,3,,,,,,,,,2,,,,68,101
130508,control_change,64,0,14,,,,,,,,,13,11,54,,,
130509,note_on,0,0,4,,,,,,,,,3,,,,56,100
130509,note_on,60,0,4,,,,,,,,,3,,,,57,0
130510,control_change,64,0,15,,,,,,,,,14,11,54,,,
130560,set_tempo,120,1,0,,,,,,288462,,,,,,,,
130560,control_change,0,0,11,,,,,,,,,10,11,53,,,
130560,note_on,0,0,11,,,,,,,,,10,,,,56,112
130560,note_on,64,0,11,,,,,,,,,10,,,,61,0
130563,control_change,0,0,12,,,,,,,,,11,11,53,,,
130563,note_on,64,0,12,,,,,,,,,11,,,,61,0
130563,note_on,0,0,12,,,,,,,,,11,,,,56,112
130564,note_on,0,0,2,,,,,,,,,1,,,,80,100
130564,note_on,60,0,2,,,,,,,,,1,,,,76,100
130565,note_on,0,0,3,,,,,,,,,2,,,,69,101
130565,note_on,60,0,3,,,,,,,,,2,,,,68,0
130568,note_on,0,0,13,,,,,,,,,12,,,,56,112
130568,note_on,64,0,13,,,,,,,,,12,,,,49,0
130568,control_change,0,0,13,,,,,,,,,12,11,53,,,
130569,note_on,60,0,4,,,,,,,,,3,,,,56,0
130569,note_on,0,0,4,,,,,,,,,3,,,,57,100
130572,note_on,64,0,14,,,,,,,,,13,,,,49,0
130572,control_change,0,0,14,,,,,,,,,13,11,53,,,
130572,note_on,0,0,14,,,,,,,,,13,,,,44,112
130574,note_on,0,0,15,,,,,,,,,14,,,,32,112
130574,control_change,0,0,15,,,,,,,,,14,11,53,,,
130574,note_on,64,0,15,,,,,,,,,14,,,,37,0
130624,note_on,0,0,2,,,,,,,,,1,,,,76,0
130624,note_on,60,0,2,,,,,,,,,1,,,,80,0
130625,note_on,60,0,3,,,,,,,,,2,,,,69,0
130625,note_on,0,0,3,,,,,,,,,2,,,,68,101
130629,note_on,60,0,4,,,,,,,,,3,,,,57,0
130629,note_on,0,0,4,,,,,,,,,3,,,,56,100
130670,note_on,110,0,11,,,,,,,,,10,,,,56,0
130673,note_on,110,0,12,,,,,,,,,11,,,,56,0
130678,note_on,110,0,13,,,,,,,,,12,,,,56,0
130680,note_on,10,0,11,,,,,,,,,10,,,,61,112
130680,control_change,0,0,11,,,,,,,,,10,11,55,,,
130680,set_tempo,120,1,0,,,,,,254237,,,,,,,,
130681,note_on,0,0,1,,,,,,,,,0,,,,85,116
130681,note_on,0,0,1,,,,,,,,,0,,,,88,116
130681,control_change,4320,0,1,,,,,,,,,0,11,42,,,
130682,note_on,110,0,14,,,,,,,,,13,,,,44,0
130683,control_change,10,0,12,,,,,,,,,11,11,55,,,
130683,note_on,0,0,12,,,,,,,,,11,,,,61,112
130683,control_change,0,0,5,,,,,,,,,4,11,67,,,
130683,note_on,4320,0,5,,,,,,,,,4,,,,64,115
130684,control_change,0,0,2,,,,,,,,,1,11,59,,,
130684,note_on,60,0,2,,,,,,,,,1,,,,73,115
130684,note_on,0,0,2,,,,,,,,,1,,,,81,115
130684,note_on,110,0,15,,,,,,,,,14,,,,32,0
130684,control_change,0,0,6,,,,,,,,,5,11,67,,,
130684,note_on,4320,0,6,,,,,,,,,5,,,,64,115
130685,control_change,0,0,3,,,,,,,,,2,11,59,,,
130685,note_on,0,0,3,,,,,,,,,2,,,,69,116
130685,note_on,0,0,3,,,,,,,,,2,,,,64,116
130685,note_on,0,0,3,,,,,,,,,2,,,,64,0
130685,note_on,60,0,3,,,,,,,,,2,,,,68,0
130688,note_on,10,0,13,,,,,,,,,12,,,,49,112
130688,control_change,0,0,13,,,,,,,,,12,11,55,,,
130689,control_change,0,0,4,,,,,,,,,3,11,62,,,
130689,note_on,0,0,4,,,,,,,,,3,,,,57,115
130689,note_on,0,0,4,,,,,,,,,3,,,,52,115
130689,note_on,0,0,4,,,,,,,,,3,,,,52,0
130689,note_on,60,0,4,,,,,,,,,3,,,,56,0
130692,control_change,10,0,14,,,,,,,,,13,11,55,,,
130692,note_on,0,0,14,,,,,,,,,13,,,,49,112
130694,control_change,10,0,15,,,,,,,,,14,11,55,,,
130694,note_on,0,0,15,,,,,,,,,14,,,,37,112
130699,control_change,18,0,1,,,,,,,,,0,11,45,,,
130717,control_change,18,0,1,,,,,,,,,0,11,48,,,
130728,control_change,48,0,11,,,,,,,,,10,11,56,,,
130731,control_change,48,0,12,,,,,,,,,11,11,56,,,
130735,control_change,18,0,1,,,,,,,,,0,11,51,,,
130736,control_change,48,0,13,,,,,,,,,12,11,56,,,
130740,control_change,48,0,14,,,,,,,,,13,11,56,,,
130742,control_change,48,0,15,,,,,,,,,14,11,56,,,
130753,control_change,18,0,1,,,,,,,,,0,11,53,,,
130771,control_change,18,0,1,,,,,,,,,0,11,55,,,
130776,control_change,48,0,11,,,,,,,,,10,11,57,,,
130779,control_change,48,0,12,,,,,,,,,11,11,57,,,
130784,control_change,48,0,13,,,,,,,,,12,11,57,,,
130788,control_change,48,0,14,,,,,,,,,13,11,57,,,
130789,control_change,18,0,1,,,,,,,,,0,11,58,,,
130790,control_change,48,0,15,,,,,,,,,14,11,57,,,
130800,set_tempo,120,1,0,,,,,,263158,,,,,,,,
130824,control_change,48,0,11,,,,,,,,,10,11,57,,,
130827,control_change,48,0,12,,,,,,,,,11,11,57,,,
130832,control_change,48,0,13,,,,,,,,,12,11,57,,,
130836,control_change,48,0,14,,,,,,,,,13,11,57,,,
130838,control_change,48,0,15,,,,,,,,,14,11,57,,,
130872,control_change,48,0,11,,,,,,,,,10,11,58,,,
130875,control_change,48,0,12,,,,,,,,,11,11,58,,,
130880,control_change,48,0,13,,,,,,,,,12,11,58,,,
130884,control_change,48,0,14,,,,,,,,,13,11,58,,,
130886,control_change,48,0,15,,,,,,,,,14,11,58,,,
130920,control_change,0,0,11,,,,,,,,,10,11,59,,,
130920,set_tempo,120,1,0,,,,,,288462,,,,,,,,
130920,note_on,0,0,11,,,,,,,,,10,,,,64,112
130920,note_on,48,0,11,,,,,,,,,10,,,,61,0
130922,note_on,133,0,1,,,,,,,,,0,,,,88,0
130922,note_on,0,0,1,,,,,,,,,0,,,,85,0
130923,note_on,48,0,12,,,,,,,,,11,,,,61,0
130923,note_on,0,0,12,,,,,,,,,11,,,,64,112
130923,control_change,0,0,12,,,,,,,,,11,11,59,,,
130925,note_on,241,0,2,,,,,,,,,1,,,,81,0
130925,note_on,0,0,2,,,,,,,,,1,,,,73,0
130926,note_on,0,0,3,,,,,,,,,2,,,,64,0
130926,note_on,241,0,3,,,,,,,,,2,,,,69,0
130928,note_on,48,0,13,,,,,,,,,12,,,,49,0
130928,control_change,0,0,13,,,,,,,,,12,11,59,,,
130928,note_on,0,0,13,,,,,,,,,12,,,,52,112
130930,note_on,241,0,4,,,,,,,,,3,,,,57,0
130930,note_on,0,0,4,,,,,,,,,3,,,,52,0
130932,control_change,0,0,14,,,,,,,,,13,11,59,,,
130932,note_on,48,0,14,,,,,,,,,13,,,,49,0
130932,note_on,0,0,14,,,,,,,,,13,,,,52,112
130934,control_change,0,0,15,,,,,,,,,14,11,59,,,
130934,note_on,0,0,15,,,,,,,,,14,,,,40,112
130934,note_on,48,0,15,,,,,,,,,14,,,,37,0
130968,control_change,48,0,11,,,,,,,,,10,11,60,,,
130968,control_change,46,0,1,,,,,,,,,0,11,60,,,
130970,control_change,287,0,5,,,,,,,,,4,11,68,,,
130971,control_change,46,0,2,,,,,,,,,1,11,60,,,
130971,control_change,287,0,6,,,,,,,,,5,11,68,,,
130971,control_change,48,0,12,,,,,,,,,11,11,60,,,
130972,control_change,46,0,3,,,,,,,,,2,11,60,,,
130976,control_change,48,0,13,,,,,,,,,12,11,60,,,
130976,control_change,46,0,4,,,,,,,,,3,11,63,,,
130980,control_change,48,0,14,,,,,,,,,13,11,60,,,
130982,control_change,48,0,15,,,,,,,,,14,11,60,,,
131016,control_change,48,0,11,,,,,,,,,10,11,61,,,
131019,control_change,48,0,12,,,,,,,,,11,11,61,,,
131024,control_change,48,0,13,,,,,,,,,12,11,61,,,
131028,control_change,48,0,14,,,,,,,,,13,11,61,,,
131030,note_on,14,0,11,,,,,,,,,10,,,,64,0
131030,control_change,48,0,15,,,,,,,,,14,11,61,,,
131033,note_on,14,0,12,,,,,,,,,11,,,,64,0
131033,note_on,63,0,5,,,,,,,,,4,,,,64,0
131034,note_on,63,0,6,,,,,,,,,5,,,,64,0
131038,note_on,14,0,13,,,,,,,,,12,,,,52,0
131040,set_tempo,120,1,0,,,,,,254237,,,,,,,,
131040,note_on,10,0,11,,,,,,,,,10,,,,69,112
131041,note_on,73,0,1,,,,,,,,,0,,,,85,116
131041,note_on,0,0,1,,,,,,,,,0,,,,88,116
131042,note_on,14,0,14,,,,,,,,,13,,,,52,0
131043,note_on,10,0,12,,,,,,,,,11,,,,69,112
131043,note_on,10,0,5,,,,,,,,,4,,,,64,115
131044,note_on,73,0,2,,,,,,,,,1,,,,73,115
131044,note_on,10,0,6,,,,,,,,,5,,,,64,115
131044,note_on,14,0,15,,,,,,,,,14,,,,40,0
131044,note_on,0,0,2,,,,,,,,,1,,,,81,115
131045,note_on,73,0,3,,,,,,,,,2,,,,73,116
131045,note_on,0,0,3,,,,,,,,,2,,,,69,116
131048,note_on,10,0,13,,,,,,,,,12,,,,57,112
131049,note_on,0,0,4,,,,,,,,,3,,,,61,115
131049,note_on,73,0,4,,,,,,,,,3,,,,57,115
131052,note_on,10,0,14,,,,,,,,,13,,,,57,112
131054,note_on,10,0,15,,,,,,,,,14,,,,45,112
131064,control_change,24,0,11,,,,,,,,,10,11,62,,,
131067,control_change,24,0,12,,,,,,,,,11,11,62,,,
131072,control_change,24,0,13,,,,,,,,,12,11,62,,,
131076,control_change,24,0,14,,,,,,,,,13,11,62,,,
131078,control_change,24,0,15,,,,,,,,,14,11,62,,,
131112,control_change,48,0,11,,,,,,,,,10,11,63,,,
131115,control_change,48,0,12,,,,,,,,,11,11,63,,,
131120,control_change,48,0,13,,,,,,,,,12,11,63,,,
131124,control_change,48,0,14,,,,,,,,,13,11,63,,,
131126,control_change,48,0,15,,,,,,,,,14,11,63,,,
131160,set_tempo,120,1,0,,,,,,263158,,,,,,,,
131160,control_change,48,0,11,,,,,,,,,10,11,64,,,
131163,control_change,48,0,12,,,,,,,,,11,11,64,,,
131168,control_change,48,0,13,,,,,,,,,12,11,64,,,
131172,control_change,48,0,14,,,,,,,,,13,11,64,,,
131174,control_change,48,0,15,,,,,,,,,14,11,64,,,
131208,control_change,48,0,11,,,,,,,,,10,11,65,,,
131211,control_change,48,0,12,,,,,,,,,11,11,65,,,
131216,control_change,48,0,13,,,,,,,,,12,11,65,,,
131220,control_change,48,0,14,,,,,,,,,13,11,65,,,
131222,control_change,48,0,15,,,,,,,,,14,11,65,,,
131256,control_change,48,0,11,,,,,,,,,10,11,66,,,
131256,control_change,215,0,1,,,,,,,,,0,11,61,,,
131258,control_change,215,0,5,,,,,,,,,4,11,69,,,
131259,control_change,48,0,12,,,,,,,,,11,11,66,,,
131259,control_change,215,0,6,,,,,,,,,5,11,69,,,
131259,control_change,215,0,2,,,,,,,,,1,11,61,,,
131260,control_change,215,0,3,,,,,,,,,2,11,61,,,
131264,control_change,215,0,4,,,,,,,,,3,11,64,,,
131264,control_change,48,0,13,,,,,,,,,12,11,66,,,
131268,control_change,48,0,14,,,,,,,,,13,11,66,,,
131270,control_change,48,0,15,,,,,,,,,14,11,66,,,
131280,set_tempo,120,1,0,,,,,,288462,,,,,,,,
131280,note_on,24,0,11,,,,,,,,,10,,,,69,0
131280,note_on,0,0,11,,,,,,,,,10,,,,73,112
131282,note_on,0,0,1,,,,,,,,,0,,,,85,0
131282,note_on,26,0,1,,,,,,,,,0,,,,88,0
131283,note_on,0,0,12,,,,,,,,,11,,,,73,112
131283,note_on,24,0,12,,,,,,,,,11,,,,69,0
131285,note_on,0,0,2,,,,,,,,,1,,,,73,0
131285,note_on,26,0,2,,,,,,,,,1,,,,81,0
131286,note_on,26,0,3,,,,,,,,,2,,,,69,0
131286,note_on,0,0,3,,,,,,,,,2,,,,73,0
131288,note_on,0,0,13,,,,,,,,,12,,,,61,112
131288,note_on,24,0,13,,,,,,,,,12,,,,57,0
131290,note_on,0,0,4,,,,,,,,,3,,,,57,0
131290,note_on,26,0,4,,,,,,,,,3,,,,61,0
131292,note_on,24,0,14,,,,,,,,,13,,,,57,0
131292,note_on,0,0,14,,,,,,,,,13,,,,61,112
131294,note_on,24,0,15,,,,,,,,,14,,,,45,0
131294,note_on,0,0,15,,,,,,,,,14,,,,49,112
131304,control_change,24,0,11,,,,,,,,,10,11,67,,,
131307,control_change,24,0,12,,,,,,,,,11,11,67,,,
131312,control_change,24,0,13,,,,,,,,,12,11,67,,,
131316,control_change,24,0,14,,,,,,,,,13,11,67,,,
131318,control_change,24,0,15,,,,,,,,,14,11,67,,,
131352,control_change,48,0,11,,,,,,,,,10,11,68,,,
131355,control_change,48,0,12,,,,,,,,,11,11,68,,,
131360,control_change,48,0,13,,,,,,,,,12,11,68,,,
131364,control_change,48,0,14,,,,,,,,,13,11,68,,,
131366,control_change,48,0,15,,,,,,,,,14,11,68,,,
131390,note_on,38,0,11,,,,,,,,,10,,,,73,0
131393,note_on,38,0,12,,,,,,,,,11,,,,73,0
131393,note_on,135,0,5,,,,,,,,,4,,,,64,0
131394,note_on,135,0,6,,,,,,,,,5,,,,64,0
131398,note_on,38,0,13,,,,,,,,,12,,,,61,0
131400,note_on,10,0,11,,,,,,,,,10,,,,76,112
131400,control_change,0,0,11,,,,,,,,,10,11,69,,,
131400,set_tempo,120,1,0,,,,,,254237,,,,,,,,
131401,note_on,0,0,1,,,,,,,,,0,,,,85,116
131401,note_on,119,0,1,,,,,,,,,0,,,,88,116
131402,note_on,38,0,14,,,,,,,,,13,,,,61,0
131403,note_on,10,0,5,,,,,,,,,4,,,,64,115
131403,note_on,0,0,12,,,,,,,,,11,,,,76,112
131403,control_change,10,0,12,,,,,,,,,11,11,69,,,
131404,note_on,38,0,15,,,,,,,,,14,,,,49,0
131404,note_on,0,0,2,,,,,,,,,1,,,,73,115
131404,note_on,119,0,2,,,,,,,,,1,,,,81,115
131404,note_on,10,0,6,,,,,,,,,5,,,,64,115
131405,note_on,119,0,3,,,,,,,,,2,,,,73,116
131405,note_on,0,0,3,,,,,,,,,2,,,,69,116
131408,control_change,0,0,13,,,,,,,,,12,11,69,,,
131408,note_on,10,0,13,,,,,,,,,12,,,,64,112
131409,note_on,119,0,4,,,,,,,,,3,,,,57,115
131409,note_on,0,0,4,,,,,,,,,3,,,,61,115
131412,control_change,0,0,14,,,,,,,,,13,11,69,,,
131412,note_on,10,0,14,,,,,,,,,13,,,,64,112
131414,note_on,10,0,15,,,,,,,,,14,,,,52,112
131414,control_change,0,0,15,,,,,,,,,14,11,69,,,
131448,control_change,48,0,11,,,,,,,,,10,11,70,,,
131451,control_change,48,0,12,,,,,,,,,11,11,70,,,
131456,control_change,48,0,13,,,,,,,,,12,11,70,,,
131460,control_change,48,0,14,,,,,,,,,13,11,70,,,
131462,control_change,48,0,15,,,,,,,,,14,11,70,,,
131496,control_change,48,0,11,,,,,,,,,10,11,71,,,
131499,control_change,48,0,12,,,,,,,,,11,11,71,,,
131504,control_change,48,0,13,,,,,,,,,12,11,71,,,
131508,control_change,48,0,14,,,,,,,,,13,11,71,,,
131510,control_change,48,0,15,,,,,,,,,14,11,71,,,
131520,set_tempo,120,1,0,,,,,,263158,,,,,,,,
131544,control_change,48,0,11,,,,,,,,,10,11,72,,,
131544,control_change,143,0,1,,,,,,,,,0,11,61,,,
131546,control_change,143,0,5,,,,,,,,,4,11,70,,,
131547,control_change,143,0,6,,,,,,,,,5,11,70,,,
131547,control_change,48,0,12,,,,,,,,,11,11,72,,,
131547,control_change,143,0,2,,,,,,,,,1,11,61,,,
131548,control_change,143,0,3,,,,,,,,,2,11,61,,,
131552,control_change,48,0,13,,,,,,,,,12,11,72,,,
131552,control_change,143,0,4,,,,,,,,,3,11,65,,,
131556,control_change,48,0,14,,,,,,,,,13,11,72,,,
131558,control_change,48,0,15,,,,,,,,,14,11,72,,,
131592,control_change,48,0,11,,,,,,,,,10,11,72,,,
131595,control_change,48,0,12,,,,,,,,,11,11,72,,,
131600,control_change,48,0,13,,,,,,,,,12,11,72,,,
131604,control_change,48,0,14,,,,,,,,,13,11,72,,,
131606,control_change,48,0,15,,,,,,,,,14,11,72,,,
131640,note_on,48,0,11,,,,,,,,,10,,,,76,0
131640,control_change,0,0,11,,,,,,,,,10,11,73,,,
131640,note_on,0,0,11,,,,,,,,,10,,,,81,112
131640,set_tempo,120,1,0,,,,,,288462,,,,,,,,
131642,note_on,98,0,1,,,,,,,,,0,,,,85,0
131642,note_on,0,0,1,,,,,,,,,0,,,,88,0
131643,note_on,0,0,12,,,,,,,,,11,,,,81,112
131643,control_change,0,0,12,,,,,,,,,11,11,73,,,
131643,note_on,48,0,12,,,,,,,,,11,,,,76,0
131645,note_on,0,0,2,,,,,,,,,1,,,,81,0
131645,note_on,98,0,2,,,,,,,,,1,,,,73,0
131646,note_on,0,0,3,,,,,,,,,2,,,,73,0
131646,note_on,98,0,3,,,,,,,,,2,,,,69,0
131648,note_on,0,0,13,,,,,,,,,12,,,,69,112
131648,note_on,48,0,13,,,,,,,,,12,,,,64,0
131648,control_change,0,0,13,,,,,,,,,12,11,73,,,
131650,note_on,98,0,4,,,,,,,,,3,,,,61,0
131650,note_on,0,0,4,,,,,,,,,3,,,,57,0
131652,note_on,48,0,14,,,,,,,,,13,,,,64,0
131652,note_on,0,0,14,,,,,,,,,13,,,,69,112
131652,control_change,0,0,14,,,,,,,,,13,11,73,,,
131654,note_on,0,0,15,,,,,,,,,14,,,,57,112
131654,control_change,0,0,15,,,,,,,,,14,11,73,,,
131654,note_on,48,0,15,,,,,,,,,14,,,,52,0
131750,note_on,110,0,11,,,,,,,,,10,,,,81,0
131753,note_on,207,0,5,,,,,,,,,4,,,,64,0
131753,note_on,110,0,12,,,,,,,,,11,,,,81,0
131754,note_on,207,0,6,,,,,,,,,5,,,,64,0
131758,note_on,110,0,13,,,,,,,,,12,,,,69,0
131760,control_change,10,0,11,,,,,,,,,10,11,73,,,
131760,note_on,0,0,11,,,,,,,,,10,,,,76,112
131760,set_tempo,120,1,0,,,,,,254237,,,,,,,,
131761,note_on,0,0,1,,,,,,,,,0,,,,88,116
131761,note_on,119,0,1,,,,,,,,,0,,,,85,116
131762,note_on,110,0,14,,,,,,,,,13,,,,69,0
131763,note_on,10,0,5,,,,,,,,,4,,,,64,115
131763,control_change,10,0,12,,,,,,,,,11,11,73,,,
131763,note_on,0,0,12,,,,,,,,,11,,,,76,112
131764,note_on,10,0,6,,,,,,,,,5,,,,64,115
131764,note_on,110,0,15,,,,,,,,,14,,,,57,0
131764,note_on,119,0,2,,,,,,,,,1,,,,73,115
131764,note_on,0,0,2,,,,,,,,,1,,,,81,115
131765,note_on,0,0,3,,,,,,,,,2,,,,73,116
131765,note_on,119,0,3,,,,,,,,,2,,,,69,116
131768,control_change,0,0,13,,,,,,,,,12,11,73,,,
131768,note_on,10,0,13,,,,,,,,,12,,,,64,112
131769,note_on,0,0,4,,,,,,,,,3,,,,61,115
131769,note_on,119,0,4,,,,,,,,,3,,,,57,115
131772,control_change,0,0,14,,,,,,,,,13,11,73,,,
131772,note_on,10,0,14,,,,,,,,,13,,,,64,112
131774,note_on,0,0,15,,,,,,,,,14,,,,52,112
131774,control_change,10,0,15,,,,,,,,,14,11,73,,,
131832,control_change,71,0,1,,,,,,,,,0,11,62,,,
131834,control_change,71,0,5,,,,,,,,,4,11,71,,,
131835,control_change,71,0,2,,,,,,,,,1,11,62,,,
131835,control_change,71,0,6,,,,,,,,,5,11,71,,,
131836,control_change,71,0,3,,,,,,,,,2,11,62,,,
131840,control_change,80,0,11,,,,,,,,,10,11,72,,,
131840,control_change,71,0,4,,,,,,,,,3,11,66,,,
131843,control_change,80,0,12,,,,,,,,,11,11,72,,,
131848,control_change,80,0,13,,,,,,,,,12,11,72,,,
131852,control_change,80,0,14,,,,,,,,,13,11,72,,,
131854,control_change,80,0,15,,,,,,,,,14,11,72,,,
131880,set_tempo,120,1,0,,,,,,263158,,,,,,,,
131920,control_change,80,0,11,,,,,,,,,10,11,72,,,
131923,control_change,80,0,12,,,,,,,,,11,11,72,,,
131928,control_change,80,0,13,,,,,,,,,12,11,72,,,
131932,control_change,80,0,14,,,,,,,,,13,11,72,,,
131934,control_change,80,0,15,,,,,,,,,14,11,72,,,
132000,note_on,80,0,11,,,,,,,,,10,,,,76,0
132000,control_change,0,0,11,,,,,,,,,10,11,71,,,
132000,set_tempo,120,1,0,,,,,,288462,,,,,,,,
132000,note_on,0,0,11,,,,,,,,,10,,,,73,112
132002,note_on,0,0,1,,,,,,,,,0,,,,85,0
132002,note_on,170,0,1,,,,,,,,,0,,,,88,0
132003,control_change,0,0,12,,,,,,,,,11,11,71,,,
132003,note_on,80,0,12,,,,,,,,,11,,,,76,0
132003,note_on,0,0,12,,,,,,,,,11,,,,73,112
132005,note_on,0,0,2,,,,,,,,,1,,,,73,0
132005,note_on,170,0,2,,,,,,,,,1,,,,81,0
132006,note_on,170,0,3,,,,,,,,,2,,,,73,0
132006,note_on,0,0,3,,,,,,,,,2,,,,69,0
132008,note_on,80,0,13,,,,,,,,,12,,,,64,0
132008,note_on,0,0,13,,,,,,,,,12,,,,61,112
132008,control_change,0,0,13,,,,,,,,,12,11,71,,,
132010,note_on,0,0,4,,,,,,,,,3,,,,57,0
132010,note_on,170,0,4,,,,,,,,,3,,,,61,0
132012,control_change,0,0,14,,,,,,,,,13,11,71,,,
132012,note_on,0,0,14,,,,,,,,,13,,,,61,112
132012,note_on,80,0,14,,,,,,,,,13,,,,64,0
132014,note_on,80,0,15,,,,,,,,,14,,,,52,0
132014,note_on,0,0,15,,,,,,,,,14,,,,49,112
132014,control_change,0,0,15,,,,,,,,,14,11,71,,,
132080,control_change,80,0,11,,,,,,,,,10,11,70,,,
132083,control_change,80,0,12,,,,,,,,,11,11,70,,,
132088,control_change,80,0,13,,,,,,,,,12,11,70,,,
132092,control_change,80,0,14,,,,,,,,,13,11,70,,,
132094,control_change,80,0,15,,,,,,,,,14,11,70,,,
132110,note_on,30,0,11,,,,,,,,,10,,,,73,0
132113,note_on,279,0,5,,,,,,,,,4,,,,64,0
132113,note_on,30,0,12,,,,,,,,,11,,,,73,0
132114,note_on,279,0,6,,,,,,,,,5,,,,64,0
132118,note_on,30,0,13,,,,,,,,,12,,,,61,0
132120,set_tempo,120,1,0,,,,,,254237,,,,,,,,
132120,control_change,118,0,1,,,,,,,,,0,11,63,,,
132120,note_on,10,0,11,,,,,,,,,10,,,,69,112
132121,note_on,0,0,1,,,,,,,,,0,,,,88,101
132121,note_on,1,0,1,,,,,,,,,0,,,,85,101
132122,note_on,30,0,14,,,,,,,,,13,,,,61,0
132122,control_change,9,0,5,,,,,,,,,4,11,72,,,
132123,note_on,10,0,12,,,,,,,,,11,,,,69,112
132123,note_on,1,0,5,,,,,,,,,4,,,,64,100
132123,control_change,118,0,2,,,,,,,,,1,11,63,,,
132123,control_change,9,0,6,,,,,,,,,5,11,72,,,
132124,control_change,118,0,3,,,,,,,,,2,11,63,,,
132124,note_on,1,0,2,,,,,,,,,1,,,,76,100
132124,note_on,0,0,2,,,,,,,,,1,,,,73,100
132124,note_on,1,0,6,,,,,,,,,5,,,,64,100
132124,note_on,30,0,15,,,,,,,,,14,,,,49,0
132125,note_on,1,0,3,,,,,,,,,2,,,,73,101
132125,note_on,0,0,3,,,,,,,,,2,,,,69,101
132128,control_change,118,0,4,,,,,,,,,3,11,67,,,
132128,note_on,10,0,13,,,,,,,,,12,,,,57,112
132129,note_on,0,0,4,,,,,,,,,3,,,,61,100
132129,note_on,1,0,4,,,,,,,,,3,,,,57,100
132132,note_on,10,0,14,,,,,,,,,13,,,,57,112
132134,note_on,10,0,15,,,,,,,,,14,,,,45,112
132151,note_on,0,0,1,,,,,,,,,0,,,,85,0
132151,note_on,30,0,1,,,,,,,,,0,,,,88,0
132154,note_on,0,0,2,,,,,,,,,1,,,,76,0
132154,note_on,30,0,2,,,,,,,,,1,,,,73,0
132160,control_change,40,0,11,,,,,,,,,10,11,69,,,
132163,control_change,40,0,12,,,,,,,,,11,11,69,,,
132168,control_change,40,0,13,,,,,,,,,12,11,69,,,
132172,control_change,40,0,14,,,,,,,,,13,11,69,,,
132174,control_change,40,0,15,,,,,,,,,14,11,69,,,
132181,note_on,0,0,1,,,,,,,,,0,,,,85,101
132181,note_on,30,0,1,,,,,,,,,0,,,,88,101
132184,note_on,30,0,2,,,,,,,,,1,,,,76,100
132184,note_on,0,0,2,,,,,,,,,1,,,,73,100
132211,note_on,30,0,1,,,,,,,,,0,,,,85,0
132211,note_on,0,0,1,,,,,,,,,0,,,,88,0
132214,note_on,30,0,2,,,,,,,,,1,,,,73,0
132214,note_on,0,0,2,,,,,,,,,1,,,,76,0
132240,set_tempo,120,1,0,,,,,,263158,,,,,,,,
132240,control_change,80,0,11,,,,,,,,,10,11,68,,,
132241,note_on,0,0,1,,,,,,,,,0,,,,89,101
132241,note_on,30,0,1,,,,,,,,,0,,,,86,101
132243,control_change,80,0,12,,,,,,,,,11,11,68,,,
132244,note_on,0,0,2,,,,,,,,,1,,,,77,100
132244,note_on,30,0,2,,,,,,,,,1,,,,74,100
132248,control_change,80,0,13,,,,,,,,,12,11,68,,,
132252,control_change,80,0,14,,,,,,,,,13,11,68,,,
132254,control_change,80,0,15,,,,,,,,,14,11,68,,,
132301,note_on,0,0,1,,,,,,,,,0,,,,88,101
132301,note_on,0,0,1,,,,,,,,,0,,,,86,0
132301,note_on,0,0,1,,,,,,,,,0,,,,85,101
132301,note_on,60,0,1,,,,,,,,,0,,,,89,0
132304,note_on,0,0,2,,,,,,,,,1,,,,74,0
132304,note_on,60,0,2,,,,,,,,,1,,,,77,0
132304,note_on,0,0,2,,,,,,,,,1,,,,76,100
132304,note_on,0,0,2,,,,,,,,,1,,,,73,100
132320,control_change,80,0,11,,,,,,,,,10,11,67,,,
132323,control_change,80,0,12,,,,,,,,,11,11,67,,,
132328,control_change,80,0,13,,,,,,,,,12,11,67,,,
132332,control_change,80,0,14,,,,,,,,,13,11,67,,,
132334,control_change,80,0,15,,,,,,,,,14,11,67,,,
132360,set_tempo,120,1,0,,,,,,288462,,,,,,,,
132360,note_on,0,0,11,,,,,,,,,10,,,,64,112
132360,note_on,40,0,11,,,,,,,,,10,,,,69,0
132361,note_on,0,0,1,,,,,,,,,0,,,,89,101
132361,note_on,0,0,1,,,,,,,,,0,,,,86,101
132361,note_on,0,0,1,,,,,,,,,0,,,,85,0
132361,note_on,60,0,1,,,,,,,,,0,,,,88,0
132363,note_on,0,0,12,,,,,,,,,11,,,,64,112
132363,note_on,40,0,12,,,,,,,,,11,,,,69,0
132364,note_on,0,0,2,,,,,,,,,1,,,,74,100
132364,note_on,0,0,2,,,,,,,,,1,,,,77,100
132364,note_on,0,0,2,,,,,,,,,1,,,,76,0
132364,note_on,60,0,2,,,,,,,,,1,,,,73,0
132368,note_on,0,0,13,,,,,,,,,12,,,,52,112
132368,note_on,40,0,13,,,,,,,,,12,,,,57,0
132372,note_on,0,0,14,,,,,,,,,13,,,,52,112
132372,note_on,40,0,14,,,,,,,,,13,,,,57,0
132374,note_on,40,0,15,,,,,,,,,14,,,,45,0
132374,note_on,0,0,15,,,,,,,,,14,,,,40,112
132400,control_change,40,0,11,,,,,,,,,10,11,66,,,
132403,control_change,40,0,12,,,,,,,,,11,11,66,,,
132408,control_change,47,0,1,,,,,,,,,0,11,64,,,
132408,control_change,40,0,13,,,,,,,,,12,11,66,,,
132410,control_change,287,0,5,,,,,,,,,4,11,73,,,
132411,control_change,47,0,2,,,,,,,,,1,11,64,,,
132411,control_change,287,0,6,,,,,,,,,5,11,73,,,
132412,control_change,287,0,3,,,,,,,,,2,11,64,,,
132412,control_change,40,0,14,,,,,,,,,13,11,66,,,
132414,control_change,40,0,15,,,,,,,,,14,11,66,,,
132416,control_change,287,0,4,,,,,,,,,3,11,68,,,
132421,note_on,0,0,1,,,,,,,,,0,,,,88,101
132421,note_on,0,0,1,,,,,,,,,0,,,,85,101
132421,note_on,0,0,1,,,,,,,,,0,,,,86,0
132421,note_on,13,0,1,,,,,,,,,0,,,,89,0
132424,note_on,0,0,2,,,,,,,,,1,,,,74,0
132424,note_on,0,0,2,,,,,,,,,1,,,,76,100
132424,note_on,13,0,2,,,,,,,,,1,,,,77,0
132424,note_on,0,0,2,,,,,,,,,1,,,,73,100
132470,note_on,70,0,11,,,,,,,,,10,,,,64,0
132473,note_on,70,0,12,,,,,,,,,11,,,,64,0
132473,note_on,63,0,5,,,,,,,,,4,,,,64,0
132474,note_on,63,0,6,,,,,,,,,5,,,,64,0
132478,note_on,70,0,13,,,,,,,,,12,,,,52,0
132480,set_tempo,120,1,0,,,,,,254237,,,,,,,,
132480,control_change,10,0,11,,,,,,,,,10,11,65,,,
132480,note_on,0,0,11,,,,,,,,,10,,,,61,112
132481,note_on,60,0,1,,,,,,,,,0,,,,88,0
132481,note_on,0,0,1,,,,,,,,,0,,,,85,0
132481,note_on,0,0,1,,,,,,,,,0,,,,88,101
132481,note_on,0,0,1,,,,,,,,,0,,,,85,101
132482,note_on,70,0,14,,,,,,,,,13,,,,52,0
132483,control_change,10,0,12,,,,,,,,,11,11,65,,,
132483,note_on,10,0,5,,,,,,,,,4,,,,57,100
132483,note_on,0,0,12,,,,,,,,,11,,,,61,112
132484,note_on,10,0,6,,,,,,,,,5,,,,57,100
132484,note_on,0,0,2,,,,,,,,,1,,,,73,0
132484,note_on,70,0,15,,,,,,,,,14,,,,40,0
132484,note_on,0,0,2,,,,,,,,,1,,,,81,100
132484,note_on,0,0,2,,,,,,,,,1,,,,69,100
132484,note_on,60,0,2,,,,,,,,,1,,,,76,0
132485,note_on,0,0,3,,,,,,,,,2,,,,73,0
132485,note_on,0,0,3,,,,,,,,,2,,,,76,101
132485,note_on,73,0,3,,,,,,,,,2,,,,69,0
132485,note_on,0,0,3,,,,,,,,,2,,,,73,101
132488,control_change,0,0,13,,,,,,,,,12,11,65,,,
132488,note_on,10,0,13,,,,,,,,,12,,,,61,112
132489,note_on,0,0,4,,,,,,,,,3,,,,64,100
132489,note_on,0,0,4,,,,,,,,,3,,,,57,0
132489,note_on,73,0,4,,,,,,,,,3,,,,61,0
132489,note_on,0,0,4,,,,,,,,,3,,,,61,100
132492,note_on,10,0,14,,,,,,,,,13,,,,49,112
132492,control_change,0,0,14,,,,,,,,,13,11,65,,,
132494,note_on,10,0,15,,,,,,,,,14,,,,37,112
132494,control_change,0,0,15,,,,,,,,,14,11,65,,,
132515,note_on,30,0,3,,,,,,,,,2,,,,73,0
132515,note_on,0,0,3,,,,,,,,,2,,,,76,0
132519,note_on,30,0,4,,,,,,,,,3,,,,64,0
132519,note_on,0,0,4,,,,,,,,,3,,,,61,0
132541,note_on,0,0,1,,,,,,,,,0,,,,88,0
132541,note_on,60,0,1,,,,,,,,,0,,,,85,0
132544,note_on,60,0,2,,,,,,,,,1,,,,81,0
132544,note_on,0,0,2,,,,,,,,,1,,,,69,0
132545,note_on,0,0,3,,,,,,,,,2,,,,76,101
132545,note_on,30,0,3,,,,,,,,,2,,,,73,101
132549,note_on,30,0,4,,,,,,,,,3,,,,64,100
132549,note_on,0,0,4,,,,,,,,,3,,,,61,100
132560,control_change,80,0,11,,,,,,,,,10,11,64,,,
132563,control_change,80,0,12,,,,,,,,,11,11,64,,,
132568,control_change,80,0,13,,,,,,,,,12,11,64,,,
132572,control_change,80,0,14,,,,,,,,,13,11,64,,,
132574,control_change,80,0,15,,,,,,,,,14,11,64,,,
132575,note_on,0,0,3,,,,,,,,,2,,,,73,0
132575,note_on,30,0,3,,,,,,,,,2,,,,76,0
132579,note_on,30,0,4,,,,,,,,,3,,,,61,0
132579,note_on,0,0,4,,,,,,,,,3,,,,64,0
132593,note_on,110,0,5,,,,,,,,,4,,,,57,0
132594,note_on,110,0,6,,,,,,,,,5,,,,57,0
132600,set_tempo,120,1,0,,,,,,263158,,,,,,,,
132601,note_on,0,0,1,,,,,,,,,0,,,,85,101
132601,note_on,60,0,1,,,,,,,,,0,,,,88,101
132603,note_on,10,0,5,,,,,,,,,4,,,,57,100
132604,note_on,0,0,2,,,,,,,,,1,,,,69,100
132604,note_on,60,0,2,,,,,,,,,1,,,,81,100
132604,note_on,10,0,6,,,,,,,,,5,,,,57,100
132605,note_on,0,0,3,,,,,,,,,2,,,,77,101
132605,note_on,30,0,3,,,,,,,,,2,,,,74,101
132609,note_on,0,0,4,,,,,,,,,3,,,,65,100
132609,note_on,30,0,4,,,,,,,,,3,,,,62,100
132640,control_change,80,0,11,,,,,,,,,10,11,63,,,
132643,control_change,80,0,12,,,,,,,,,11,11,63,,,
132648,control_change,80,0,13,,,,,,,,,12,11,63,,,
132652,control_change,80,0,14,,,,,,,,,13,11,63,,,
132654,control_change,80,0,15,,,,,,,,,14,11,63,,,
132661,note_on,0,0,1,,,,,,,,,0,,,,88,0
132661,note_on,60,0,1,,,,,,,,,0,,,,85,0
132664,note_on,60,0,2,,,,,,,,,1,,,,69,0
132664,note_on,0,0,2,,,,,,,,,1,,,,81,0
132665,note_on,0,0,3,,,,,,,,,2,,,,73,101
132665,note_on,0,0,3,,,,,,,,,2,,,,74,0
132665,note_on,60,0,3,,,,,,,,,2,,,,77,0
132665,note_on,0,0,3,,,,,,,,,2,,,,76,101
132669,note_on,0,0,4,,,,,,,,,3,,,,62,0
132669,note_on,0,0,4,,,,,,,,,3,,,,61,100
132669,note_on,60,0,4,,,,,,,,,3,,,,65,0
132669,note_on,0,0,4,,,,,,,,,3,,,,64,100
132696,control_change,35,0,1,,,,,,,,,0,11,64,,,
132698,control_change,95,0,5,,,,,,,,,4,11,74,,,
132699,control_change,35,0,2,,,,,,,,,1,11,64,,,
132699,control_change,95,0,6,,,,,,,,,5,11,74,,,
132700,control_change,35,0,3,,,,,,,,,2,11,64,,,
132704,control_change,35,0,4,,,,,,,,,3,11,69,,,
132713,note_on,15,0,5,,,,,,,,,4,,,,57,0
132714,note_on,15,0,6,,,,,,,,,5,,,,57,0
132720,set_tempo,120,1,0,,,,,,288462,,,,,,,,
132720,control_change,0,0,11,,,,,,,,,10,11,62,,,
132720,note_on,80,0,11,,,,,,,,,10,,,,61,0
132720,note_on,0,0,11,,,,,,,,,10,,,,57,112
132721,note_on,0,0,1,,,,,,,,,0,,,,85,101
132721,note_on,25,0,1,,,,,,,,,0,,,,88,101
132723,note_on,0,0,12,,,,,,,,,11,,,,57,112
132723,note_on,80,0,12,,,,,,,,,11,,,,61,0
132723,note_on,10,0,5,,,,,,,,,4,,,,57,100
132723,control_change,0,0,12,,,,,,,,,11,11,62,,,
132724,note_on,10,0,6,,,,,,,,,5,,,,57,100
132724,note_on,0,0,2,,,,,,,,,1,,,,69,100
132724,note_on,25,0,2,,,,,,,,,1,,,,81,100
132725,note_on,0,0,3,,,,,,,,,2,,,,74,101
132725,note_on,0,0,3,,,,,,,,,2,,,,77,101
132725,note_on,25,0,3,,,,,,,,,2,,,,73,0
132725,note_on,0,0,3,,,,,,,,,2,,,,76,0
132728,control_change,0,0,13,,,,,,,,,12,11,62,,,
132728,note_on,0,0,13,,,,,,,,,12,,,,57,112
132728,note_on,80,0,13,,,,,,,,,12,,,,61,0
132729,note_on,0,0,4,,,,,,,,,3,,,,61,0
132729,note_on,25,0,4,,,,,,,,,3,,,,64,0
132729,note_on,0,0,4,,,,,,,,,3,,,,62,100
132729,note_on,0,0,4,,,,,,,,,3,,,,65,100
132732,note_on,80,0,14,,,,,,,,,13,,,,49,0
132732,note_on,0,0,14,,,,,,,,,13,,,,45,112
132732,control_change,0,0,14,,,,,,,,,13,11,62,,,
132734,control_change,0,0,15,,,,,,,,,14,11,62,,,
132734,note_on,0,0,15,,,,,,,,,14,,,,33,112
132734,note_on,80,0,15,,,,,,,,,14,,,,37,0
132736,control_change,16,0,11,,,,,,,,,10,11,62,,,
132739,control_change,16,0,12,,,,,,,,,11,11,62,,,
132744,control_change,16,0,13,,,,,,,,,12,11,62,,,
132748,control_change,16,0,14,,,,,,,,,13,11,62,,,
132750,control_change,16,0,15,,,,,,,,,14,11,62,,,
132781,note_on,60,0,1,,,,,,,,,0,,,,85,0
132781,note_on,0,0,1,,,,,,,,,0,,,,88,0
132784,note_on,60,0,2,,,,,,,,,1,,,,69,0
132784,note_on,0,0,2,,,,,,,,,1,,,,81,0
132785,note_on,0,0,3,,,,,,,,,2,,,,76,101
132785,note_on,60,0,3,,,,,,,,,2,,,,74,0
132785,note_on,0,0,3,,,,,,,,,2,,,,73,101
132785,note_on,0,0,3,,,,,,,,,2,,,,77,0
132789,note_on,0,0,4,,,,,,,,,3,,,,61,100
132789,note_on,60,0,4,,,,,,,,,3,,,,65,0
132789,note_on,0,0,4,,,,,,,,,3,,,,62,0
132789,note_on,0,0,4,,,,,,,,,3,,,,64,100
132830,note_on,94,0,11,,,,,,,,,10,,,,57,0
132833,note_on,110,0,5,,,,,,,,,4,,,,57,0
132833,note_on,94,0,12,,,,,,,,,11,,,,57,0
132834,note_on,110,0,6,,,,,,,,,5,,,,57,0
132838,note_on,94,0,13,,,,,,,,,12,,,,57,0
132839,control_change,9,0,11,,,,,,,,,10,11,63,,,
132840,set_tempo,120,1,0,,,,,,254237,,,,,,,,
132840,note_on,1,0,11,,,,,,,,,10,,,,62,112
132841,note_on,0,0,1,,,,,,,,,0,,,,89,101
132841,note_on,60,0,1,,,,,,,,,0,,,,86,101
132842,note_on,94,0,14,,,,,,,,,13,,,,45,0
132842,control_change,9,0,12,,,,,,,,,11,11,63,,,
132843,note_on,1,0,12,,,,,,,,,11,,,,62,112
132843,note_on,10,0,5,,,,,,,,,4,,,,57,100
132844,note_on,10,0,6,,,,,,,,,5,,,,57,100
132844,note_on,0,0,2,,,,,,,,,1,,,,77,100
132844,note_on,60,0,2,,,,,,,,,1,,,,81,100
132844,note_on,94,0,15,,,,,,,,,14,,,,33,0
132845,note_on,60,0,3,,,,,,,,,2,,,,76,0
132845,note_on,0,0,3,,,,,,,,,2,,,,77,101
132845,note_on,0,0,3,,,,,,,,,2,,,,74,101
132845,note_on,0,0,3,,,,,,,,,2,,,,73,0
132847,control_change,9,0,13,,,,,,,,,12,11,63,,,
132848,note_on,1,0,13,,,,,,,,,12,,,,50,112
132849,note_on,0,0,4,,,,,,,,,3,,,,65,100
132849,note_on,0,0,4,,,,,,,,,3,,,,62,100
132849,note_on,60,0,4,,,,,,,,,3,,,,61,0
132849,note_on,0,0,4,,,,,,,,,3,,,,64,0
132851,control_change,9,0,14,,,,,,,,,13,11,63,,,
132852,note_on,1,0,14,,,,,,,,,13,,,,50,112
132853,control_change,9,0,15,,,,,,,,,14,11,63,,,
132854,note_on,1,0,15,,,,,,,,,14,,,,38,112
132942,control_change,102,0,11,,,,,,,,,10,11,64,,,
132945,control_change,102,0,12,,,,,,,,,11,11,64,,,
132950,control_change,102,0,13,,,,,,,,,12,11,64,,,
132954,control_change,102,0,14,,,,,,,,,13,11,64,,,
132956,control_change,102,0,15,,,,,,,,,14,11,64,,,
132960,set_tempo,120,1,0,,,,,,263158,,,,,,,,
132984,control_change,143,0,1,,,,,,,,,0,11,65,,,
132986,control_change,143,0,5,,,,,,,,,4,11,75,,,
132987,control_change,143,0,2,,,,,,,,,1,11,65,,,
132987,control_change,143,0,6,,,,,,,,,5,11,75,,,
132988,control_change,143,0,3,,,,,,,,,2,11,65,,,
132992,control_change,143,0,4,,,,,,,,,3,11,70,,,
133045,control_change,103,0,11,,,,,,,,,10,11,65,,,
133048,control_change,103,0,12,,,,,,,,,11,11,65,,,
133053,control_change,103,0,13,,,,,,,,,12,11,65,,,
133057,control_change,103,0,14,,,,,,,,,13,11,65,,,
133059,control_change,103,0,15,,,,,,,,,14,11,65,,,
133080,set_tempo,120,1,0,,,,,,288462,,,,,,,,
133080,note_on,0,0,11,,,,,,,,,10,,,,65,112
133080,note_on,35,0,11,,,,,,,,,10,,,,62,0
133082,note_on,98,0,1,,,,,,,,,0,,,,89,0
133082,note_on,0,0,1,,,,,,,,,0,,,,86,0
133083,note_on,35,0,12,,,,,,,,,11,,,,62,0
133083,note_on,0,0,12,,,,,,,,,11,,,,65,112
133085,note_on,98,0,2,,,,,,,,,1,,,,77,0
133085,note_on,0,0,2,,,,,,,,,1,,,,81,0
133086,note_on,98,0,3,,,,,,,,,2,,,,77,0
133086,note_on,0,0,3,,,,,,,,,2,,,,74,0
133088,note_on,0,0,13,,,,,,,,,12,,,,53,112
133088,note_on,35,0,13,,,,,,,,,12,,,,50,0
133090,note_on,0,0,4,,,,,,,,,3,,,,62,0
133090,note_on,98,0,4,,,,,,,,,3,,,,65,0
133092,note_on,35,0,14,,,,,,,,,13,,,,50,0
133092,note_on,0,0,14,,,,,,,,,13,,,,53,112
133094,note_on,0,0,15,,,,,,,,,14,,,,41,112
133094,note_on,35,0,15,,,,,,,,,14,,,,38,0
133148,control_change,68,0,11,,,,,,,,,10,11,66,,,
133151,control_change,68,0,12,,,,,,,,,11,11,66,,,
133156,control_change,68,0,13,,,,,,,,,12,11,66,,,
133160,control_change,68,0,14,,,,,,,,,13,11,66,,,
133162,control_change,68,0,15,,,,,,,,,14,11,66,,,
133190,note_on,42,0,11,,,,,,,,,10,,,,65,0
133193,note_on,207,0,5,,,,,,,,,4,,,,57,0
133193,note_on,42,0,12,,,,,,,,,11,,,,65,0
133194,note_on,207,0,6,,,,,,,,,5,,,,57,0
133198,note_on,42,0,13,,,,,,,,,12,,,,53,0
133200,set_tempo,120,1,0,,,,,,254237,,,,,,,,
133200,note_on,10,0,11,,,,,,,,,10,,,,69,112
133201,note_on,0,0,1,,,,,,,,,0,,,,86,101
133201,note_on,119,0,1,,,,,,,,,0,,,,89,101
133202,note_on,42,0,14,,,,,,,,,13,,,,53,0
133203,note_on,10,0,12,,,,,,,,,11,,,,69,112
133203,note_on,10,0,5,,,,,,,,,4,,,,65,100
133204,note_on,10,0,6,,,,,,,,,5,,,,62,100
133204,note_on,42,0,15,,,,,,,,,14,,,,41,0
133204,note_on,0,0,2,,,,,,,,,1,,,,81,100
133204,note_on,119,0,2,,,,,,,,,1,,,,77,100
133205,note_on,119,0,3,,,,,,,,,2,,,,69,101
133205,note_on,0,0,3,,,,,,,,,2,,,,74,101
133208,note_on,10,0,13,,,,,,,,,12,,,,57,112
133209,note_on,119,0,4,,,,,,,,,3,,,,57,100
133209,note_on,0,0,4,,,,,,,,,3,,,,65,100
133212,note_on,10,0,14,,,,,,,,,13,,,,57,112
133214,note_on,10,0,15,,,,,,,,,14,,,,45,112
133250,control_change,50,0,11,,,,,,,,,10,11,67,,,
133253,control_change,50,0,12,,,,,,,,,11,11,67,,,
133258,control_change,50,0,13,,,,,,,,,12,11,67,,,
133262,control_change,50,0,14,,,,,,,,,13,11,67,,,
133264,control_change,50,0,15,,,,,,,,,14,11,67,,,
133272,control_change,71,0,1,,,,,,,,,0,11,66,,,
133274,control_change,71,0,5,,,,,,,,,4,11,76,,,
133275,control_change,71,0,2,,,,,,,,,1,11,66,,,
133275,control_change,71,0,6,,,,,,,,,5,11,76,,,
133276,control_change,71,0,3,,,,,,,,,2,11,66,,,
133280,control_change,71,0,4,,,,,,,,,3,11,71,,,
133320,set_tempo,120,1,0,,,,,,263158,,,,,,,,
133353,control_change,103,0,11,,,,,,,,,10,11,68,,,
133356,control_change,103,0,12,,,,,,,,,11,11,68,,,
133361,control_change,103,0,13,,,,,,,,,12,11,68,,,
133365,control_change,103,0,14,,,,,,,,,13,11,68,,,
133367,control_change,103,0,15,,,,,,,,,14,11,68,,,
133440,note_on,87,0,11,,,,,,,,,10,,,,69,0
133440,note_on,0,0,11,,,,,,,,,10,,,,74,112
133440,set_tempo,120,1,0,,,,,,288462,,,,,,,,
133442,note_on,0,0,1,,,,,,,,,0,,,,89,0
133442,note_on,170,0,1,,,,,,,,,0,,,,86,0
133443,note_on,0,0,12,,,,,,,,,11,,,,74,112
133443,note_on,87,0,12,,,,,,,,,11,,,,69,0
133445,note_on,170,0,2,,,,,,,,,1,,,,81,0
133445,note_on,0,0,2,,,,,,,,,1,,,,77,0
133446,note_on,170,0,3,,,,,,,,,2,,,,74,0
133446,note_on,0,0,3,,,,,,,,,2,,,,69,0
133448,note_on,87,0,13,,,,,,,,,12,,,,57,0
133448,note_on,0,0,13,,,,,,,,,12,,,,62,112
133450,note_on,0,0,4,,,,,,,,,3,,,,57,0
133450,note_on,170,0,4,,,,,,,,,3,,,,65,0
133452,note_on,87,0,14,,,,,,,,,13,,,,57,0
133452,note_on,0,0,14,,,,,,,,,13,,,,62,112
133454,note_on,87,0,15,,,,,,,,,14,,,,45,0
133454,note_on,0,0,15,,,,,,,,,14,,,,50,112
133456,control_change,16,0,11,,,,,,,,,10,11,69,,,
133459,control_change,16,0,12,,,,,,,,,11,11,69,,,
133464,control_change,16,0,13,,,,,,,,,12,11,69,,,
133468,control_change,16,0,14,,,,,,,,,13,11,69,,,
133470,control_change,16,0,15,,,,,,,,,14,11,69,,,
133550,note_on,94,0,11,,,,,,,,,10,,,,74,0
133553,note_on,279,0,5,,,,,,,,,4,,,,65,0
133553,note_on,94,0,12,,,,,,,,,11,,,,74,0
133554,note_on,279,0,6,,,,,,,,,5,,,,62,0
133558,note_on,94,0,13,,,,,,,,,12,,,,62,0
133559,control_change,9,0,11,,,,,,,,,10,11,70,,,
133560,control_change,118,0,1,,,,,,,,,0,11,67,,,
133560,set_tempo,120,1,0,,,,,,254237,,,,,,,,
133560,note_on,1,0,11,,,,,,,,,10,,,,77,112
133561,note_on,1,0,1,,,,,,,,,0,,,,86,101
133561,note_on,0,0,1,,,,,,,,,0,,,,89,101
133562,control_change,9,0,5,,,,,,,,,4,11,77,,,
133562,note_on,94,0,14,,,,,,,,,13,,,,62,0
133562,control_change,9,0,12,,,,,,,,,11,11,70,,,
133563,note_on,1,0,12,,,,,,,,,11,,,,77,112
133563,control_change,9,0,6,,,,,,,,,5,11,77,,,
133563,note_on,1,0,5,,,,,,,,,4,,,,65,100
133563,control_change,118,0,2,,,,,,,,,1,11,67,,,
133564,note_on,1,0,6,,,,,,,,,5,,,,62,100
133564,note_on,1,0,2,,,,,,,,,1,,,,77,100
133564,note_on,0,0,2,,,,,,,,,1,,,,81,100
133564,control_change,118,0,3,,,,,,,,,2,11,67,,,
133564,note_on,94,0,15,,,,,,,,,14,,,,50,0
133565,note_on,0,0,3,,,,,,,,,2,,,,69,101
133565,note_on,1,0,3,,,,,,,,,2,,,,74,101
133567,control_change,9,0,13,,,,,,,,,12,11,70,,,
133568,note_on,1,0,13,,,,,,,,,12,,,,65,112
133568,control_change,118,0,4,,,,,,,,,3,11,72,,,
133569,note_on,1,0,4,,,,,,,,,3,,,,57,100
133569,note_on,0,0,4,,,,,,,,,3,,,,65,100
133571,control_change,9,0,14,,,,,,,,,13,11,70,,,
133572,note_on,1,0,14,,,,,,,,,13,,,,65,112
133573,control_change,9,0,15,,,,,,,,,14,11,70,,,
133574,note_on,1,0,15,,,,,,,,,14,,,,53,112
133662,control_change,102,0,11,,,,,,,,,10,11,71,,,
133665,control_change,102,0,12,,,,,,,,,11,11,71,,,
133670,control_change,102,0,13,,,,,,,,,12,11,71,,,
133674,control_change,102,0,14,,,,,,,,,13,11,71,,,
133676,control_change,102,0,15,,,,,,,,,14,11,71,,,
133680,set_tempo,120,1,0,,,,,,263158,,,,,,,,
133765,control_change,103,0,11,,,,,,,,,10,11,72,,,
133768,control_change,103,0,12,,,,,,,,,11,11,72,,,
133773,control_change,103,0,13,,,,,,,,,12,11,72,,,
133777,control_change,103,0,14,,,,,,,,,13,11,72,,,
133779,control_change,103,0,15,,,,,,,,,14,11,72,,,
133800,set_tempo,120,1,0,,,,,,288462,,,,,,,,
133800,note_on,35,0,11,,,,,,,,,10,,,,77,0
133800,note_on,0,0,11,,,,,,,,,10,,,,81,112
133802,note_on,0,0,1,,,,,,,,,0,,,,86,0
133802,note_on,241,0,1,,,,,,,,,0,,,,89,0
133803,note_on,0,0,12,,,,,,,,,11,,,,81,112
133803,note_on,35,0,12,,,,,,,,,11,,,,77,0
133805,note_on,0,0,2,,,,,,,,,1,,,,77,0
133805,note_on,241,0,2,,,,,,,,,1,,,,81,0
133806,note_on,241,0,3,,,,,,,,,2,,,,69,0
133806,note_on,0,0,3,,,,,,,,,2,,,,74,0
133808,note_on,0,0,13,,,,,,,,,12,,,,69,112
133808,note_on,35,0,13,,,,,,,,,12,,,,65,0
133810,note_on,0,0,4,,,,,,,,,3,,,,57,0
133810,note_on,241,0,4,,,,,,,,,3,,,,65,0
133812,note_on,0,0,14,,,,,,,,,13,,,,69,112
133812,note_on,35,0,14,,,,,,,,,13,,,,65,0
133814,note_on,35,0,15,,,,,,,,,14,,,,53,0
133814,note_on,0,0,15,,,,,,,,,14,,,,57,112
133848,control_change,46,0,1,,,,,,,,,0,11,67,,,
133850,control_change,287,0,5,,,,,,,,,4,11,78,,,
133851,control_change,46,0,2,,,,,,,,,1,11,67,,,
133851,control_change,287,0,6,,,,,,,,,5,11,78,,,
133852,control_change,46,0,3,,,,,,,,,2,11,67,,,
133856,control_change,46,0,4,,,,,,,,,3,11,73,,,
133867,control_change,67,0,11,,,,,,,,,10,11,72,,,
133870,control_change,67,0,12,,,,,,,,,11,11,72,,,
133875,control_change,67,0,13,,,,,,,,,12,11,72,,,
133879,control_change,67,0,14,,,,,,,,,13,11,72,,,
133881,control_change,67,0,15,,,,,,,,,14,11,72,,,
133910,note_on,43,0,11,,,,,,,,,10,,,,81,0
133913,note_on,63,0,5,,,,,,,,,4,,,,65,0
133913,note_on,43,0,12,,,,,,,,,11,,,,81,0
133914,note_on,63,0,6,,,,,,,,,5,,,,62,0
133918,note_on,43,0,13,,,,,,,,,12,,,,69,0
133920,note_on,10,0,11,,,,,,,,,10,,,,77,112
133920,set_tempo,120,1,0,,,,,,254237,,,,,,,,
133921,note_on,73,0,1,,,,,,,,,0,,,,89,101
133921,note_on,0,0,1,,,,,,,,,0,,,,86,101
133922,note_on,43,0,14,,,,,,,,,13,,,,69,0
133923,note_on,10,0,12,,,,,,,,,11,,,,77,112
133923,note_on,10,0,5,,,,,,,,,4,,,,65,100
133924,note_on,73,0,2,,,,,,,,,1,,,,77,100
133924,note_on,10,0,6,,,,,,,,,5,,,,62,100
133924,note_on,0,0,2,,,,,,,,,1,,,,81,100
133924,note_on,43,0,15,,,,,,,,,14,,,,57,0
133925,note_on,0,0,3,,,,,,,,,2,,,,69,101
133925,note_on,73,0,3,,,,,,,,,2,,,,74,101
133928,note_on,10,0,13,,,,,,,,,12,,,,65,112
133929,note_on,73,0,4,,,,,,,,,3,,,,65,100
133929,note_on,0,0,4,,,,,,,,,3,,,,57,100
133932,note_on,10,0,14,,,,,,,,,13,,,,65,112
133934,note_on,10,0,15,,,,,,,,,14,,,,53,112
133970,control_change,50,0,11,,,,,,,,,10,11,73,,,
133973,control_change,50,0,12,,,,,,,,,11,11,73,,,
133978,control_change,50,0,13,,,,,,,,,12,11,73,,,
133982,control_change,50,0,14,,,,,,,,,13,11,73,,,
133984,control_change,50,0,15,,,,,,,,,14,11,73,,,
134040,set_tempo,120,1,0,,,,,,263158,,,,,,,,
134073,control_change,103,0,11,,,,,,,,,10,11,74,,,
134076,control_change,103,0,12,,,,,,,,,11,11,74,,,
134081,control_change,103,0,13,,,,,,,,,12,11,74,,,
134085,control_change,103,0,14,,,,,,,,,13,11,74,,,
134087,control_change,103,0,15,,,,,,,,,14,11,74,,,
134136,control_change,215,0,1,,,,,,,,,0,11,68,,,
134138,control_change,215,0,5,,,,,,,,,4,11,79,,,
134139,control_change,215,0,2,,,,,,,,,1,11,68,,,
134139,control_change,215,0,6,,,,,,,,,5,11,79,,,
134140,control_change,215,0,3,,,,,,,,,2,11,68,,,
134144,control_change,215,0,4,,,,,,,,,3,11,74,,,
134160,note_on,0,0,11,,,,,,,,,10,,,,74,112
134160,note_on,87,0,11,,,,,,,,,10,,,,77,0
134160,set_tempo,120,1,0,,,,,,288462,,,,,,,,
134162,note_on,26,0,1,,,,,,,,,0,,,,86,0
134162,note_on,0,0,1,,,,,,,,,0,,,,89,0
134163,note_on,87,0,12,,,,,,,,,11,,,,77,0
134163,note_on,0,0,12,,,,,,,,,11,,,,74,112
134165,note_on,0,0,2,,,,,,,,,1,,,,77,0
134165,note_on,26,0,2,,,,,,,,,1,,,,81,0
134166,note_on,26,0,3,,,,,,,,,2,,,,69,0
134166,note_on,0,0,3,,,,,,,,,2,,,,74,0
134168,note_on,87,0,13,,,,,,,,,12,,,,65,0
134168,note_on,0,0,13,,,,,,,,,12,,,,62,112
134170,note_on,0,0,4,,,,,,,,,3,,,,65,0
134170,note_on,26,0,4,,,,,,,,,3,,,,57,0
134172,note_on,87,0,14,,,,,,,,,13,,,,65,0
134172,note_on,0,0,14,,,,,,,,,13,,,,62,112
134174,note_on,87,0,15,,,,,,,,,14,,,,53,0
134174,note_on,0,0,15,,,,,,,,,14,,,,50,112
134176,control_change,16,0,11,,,,,,,,,10,11,75,,,
134179,control_change,16,0,12,,,,,,,,,11,11,75,,,
134184,control_change,16,0,13,,,,,,,,,12,11,75,,,
134188,control_change,16,0,14,,,,,,,,,13,11,75,,,
134190,control_change,16,0,15,,,,,,,,,14,11,75,,,
134270,note_on,94,0,11,,,,,,,,,10,,,,74,0
134273,note_on,94,0,12,,,,,,,,,11,,,,74,0
134273,note_on,135,0,5,,,,,,,,,4,,,,65,0
134274,note_on,135,0,6,,,,,,,,,5,,,,62,0
134278,note_on,94,0,13,,,,,,,,,12,,,,62,0
134279,control_change,9,0,11,,,,,,,,,10,11,76,,,
134280,set_tempo,120,1,0,,,,,,254237,,,,,,,,
134280,note_on,1,0,11,,,,,,,,,10,,,,69,112
134281,note_on,119,0,1,,,,,,,,,0,,,,86,101
134281,note_on,0,0,1,,,,,,,,,0,,,,89,101
134282,note_on,94,0,14,,,,,,,,,13,,,,62,0
134282,control_change,9,0,12,,,,,,,,,11,11,76,,,
134283,note_on,1,0,12,,,,,,,,,11,,,,69,112
134283,note_on,10,0,5,,,,,,,,,4,,,,65,100
134284,note_on,10,0,6,,,,,,,,,5,,,,62,100
134284,note_on,0,0,2,,,,,,,,,1,,,,81,100
134284,note_on,119,0,2,,,,,,,,,1,,,,77,100
134284,note_on,94,0,15,,,,,,,,,14,,,,50,0
134285,note_on,0,0,3,,,,,,,,,2,,,,69,101
134285,note_on,119,0,3,,,,,,,,,2,,,,74,101
134287,control_change,9,0,13,,,,,,,,,12,11,76,,,
134288,note_on,1,0,13,,,,,,,,,12,,,,57,112
134289,note_on,119,0,4,,,,,,,,,3,,,,57,100
134289,note_on,0,0,4,,,,,,,,,3,,,,65,100
134291,control_change,9,0,14,,,,,,,,,13,11,76,,,
134292,note_on,1,0,14,,,,,,,,,13,,,,57,112
134293,control_change,9,0,15,,,,,,,,,14,11,76,,,
134294,note_on,1,0,15,,,,,,,,,14,,,,45,112
134315,note_on,34,0,1,,,,,,,,,0,,,,89,0
134315,note_on,0,0,1,,,,,,,,,0,,,,86,0
134318,note_on,34,0,2,,,,,,,,,1,,,,77,0
134319,note_on,34,0,3,,,,,,,,,2,,,,74,0
134341,note_on,0,0,1,,,,,,,,,0,,,,89,101
134341,note_on,26,0,1,,,,,,,,,0,,,,86,101
134344,note_on,26,0,2,,,,,,,,,1,,,,77,100
134345,note_on,26,0,3,,,,,,,,,2,,,,74,101
134375,note_on,34,0,1,,,,,,,,,0,,,,89,0
134375,note_on,0,0,1,,,,,,,,,0,,,,86,0
134378,note_on,34,0,2,,,,,,,,,1,,,,77,0
134379,note_on,34,0,3,,,,,,,,,2,,,,74,0
134382,control_change,102,0,11,,,,,,,,,10,11,77,,,
134385,control_change,102,0,12,,,,,,,,,11,11,77,,,
134390,control_change,102,0,13,,,,,,,,,12,11,77,,,
134394,control_change,102,0,14,,,,,,,,,13,11,77,,,
134396,control_change,102,0,15,,,,,,,,,14,11,77,,,
134400,set_tempo,120,1,0,,,,,,263158,,,,,,,,
134401,note_on,26,0,1,,,,,,,,,0,,,,91,101
134401,note_on,0,0,1,,,,,,,,,0,,,,88,101
134404,note_on,26,0,2,,,,,,,,,1,,,,79,100
134405,note_on,26,0,3,,,,,,,,,2,,,,76,101
134424,control_change,23,0,1,,,,,,,,,0,11,69,,,
134426,control_change,143,0,5,,,,,,,,,4,11,80,,,
134427,control_change,23,0,2,,,,,,,,,1,11,69,,,
134427,control_change,143,0,6,,,,,,,,,5,11,80,,,
134428,control_change,23,0,3,,,,,,,,,2,11,69,,,
134432,control_change,143,0,4,,,,,,,,,3,11,75,,,
134461,note_on,0,0,1,,,,,,,,,0,,,,91,0
134461,note_on,0,0,1,,,,,,,,,0,,,,86,101
134461,note_on,0,0,1,,,,,,,,,0,,,,89,101
134461,note_on,37,0,1,,,,,,,,,0,,,,88,0
134464,note_on,0,0,2,,,,,,,,,1,,,,77,100
134464,note_on,37,0,2,,,,,,,,,1,,,,79,0
134465,note_on,0,0,3,,,,,,,,,2,,,,74,101
134465,note_on,37,0,3,,,,,,,,,2,,,,76,0
134484,control_change,102,0,11,,,,,,,,,10,11,78,,,
134487,control_change,102,0,12,,,,,,,,,11,11,78,,,
134492,control_change,102,0,13,,,,,,,,,12,11,78,,,
134496,control_change,102,0,14,,,,,,,,,13,11,78,,,
134498,control_change,102,0,15,,,,,,,,,14,11,78,,,
134520,set_tempo,120,1,0,,,,,,288462,,,,,,,,
134520,note_on,36,0,11,,,,,,,,,10,,,,69,0
134520,note_on,0,0,11,,,,,,,,,10,,,,65,112
134521,note_on,0,0,1,,,,,,,,,0,,,,91,101
134521,note_on,0,0,1,,,,,,,,,0,,,,88,101
134521,note_on,0,0,1,,,,,,,,,0,,,,86,0
134521,note_on,60,0,1,,,,,,,,,0,,,,89,0
134523,note_on,36,0,12,,,,,,,,,11,,,,69,0
134523,note_on,0,0,12,,,,,,,,,11,,,,65,112
134524,note_on,60,0,2,,,,,,,,,1,,,,77,0
134524,note_on,0,0,2,,,,,,,,,1,,,,79,100
134525,note_on,0,0,3,,,,,,,,,2,,,,76,101
134525,note_on,60,0,3,,,,,,,,,2,,,,74,0
134528,note_on,36,0,13,,,,,,,,,12,,,,57,0
134528,note_on,0,0,13,,,,,,,,,12,,,,53,112
134532,note_on,36,0,14,,,,,,,,,13,,,,57,0
134532,note_on,0,0,14,,,,,,,,,13,,,,53,112
134534,note_on,36,0,15,,,,,,,,,14,,,,45,0
134534,note_on,0,0,15,,,,,,,,,14,,,,41,112
134581,note_on,0,0,1,,,,,,,,,0,,,,91,0
134581,note_on,60,0,1,,,,,,,,,0,,,,88,0
134581,note_on,0,0,1,,,,,,,,,0,,,,86,101
134581,note_on,0,0,1,,,,,,,,,0,,,,89,101
134584,note_on,60,0,2,,,,,,,,,1,,,,79,0
134584,note_on,0,0,2,,,,,,,,,1,,,,77,100
134585,note_on,0,0,3,,,,,,,,,2,,,,74,101
134585,note_on,60,0,3,,,,,,,,,2,,,,76,0
134587,control_change,67,0,11,,,,,,,,,10,11,79,,,
134590,control_change,67,0,12,,,,,,,,,11,11,79,,,
134595,control_change,67,0,13,,,,,,,,,12,11,79,,,
134599,control_change,67,0,14,,,,,,,,,13,11,79,,,
134601,control_change,67,0,15,,,,,,,,,14,11,79,,,
134630,note_on,43,0,11,,,,,,,,,10,,,,65,0
134633,note_on,207,0,5,,,,,,,,,4,,,,65,0
134633,note_on,43,0,12,,,,,,,,,11,,,,65,0
134634,note_on,207,0,6,,,,,,,,,5,,,,62,0
134638,note_on,43,0,13,,,,,,,,,12,,,,53,0
134640,set_tempo,120,1,0,,,,,,254237,,,,,,,,
134640,note_on,10,0,11,,,,,,,,,10,,,,62,112
134641,note_on,0,0,1,,,,,,,,,0,,,,89,0
134641,note_on,60,0,1,,,,,,,,,0,,,,86,0
134641,note_on,0,0,1,,,,,,,,,0,,,,89,101
134641,note_on,0,0,1,,,,,,,,,0,,,,86,101
134642,note_on,43,0,14,,,,,,,,,13,,,,53,0
134643,note_on,10,0,12,,,,,,,,,11,,,,62,112
134643,note_on,10,0,5,,,,,,,,,4,,,,65,100
134644,note_on,60,0,2,,,,,,,,,1,,,,77,0
134644,note_on,43,0,15,,,,,,,,,14,,,,41,0
134644,note_on,0,0,2,,,,,,,,,1,,,,77,100
134644,note_on,0,0,2,,,,,,,,,1,,,,81,0
134644,note_on,0,0,2,,,,,,,,,1,,,,81,100
134644,note_on,10,0,6,,,,,,,,,5,,,,62,100
134645,note_on,0,0,3,,,,,,,,,2,,,,69,0
134645,note_on,0,0,3,,,,,,,,,2,,,,77,101
134645,note_on,60,0,3,,,,,,,,,2,,,,74,0
134645,note_on,0,0,3,,,,,,,,,2,,,,74,101
134647,program_change,9,0,13,,,,,,,,50,12,,,,,
134648,note_on,1,0,13,,,,,,,,,12,,,,62,112
134649,note_on,0,0,4,,,,,,,,,3,,,,65,100
134649,note_on,0,0,4,,,,,,,,,3,,,,62,100
134649,note_on,217,0,4,,,,,,,,,3,,,,65,0
134649,note_on,0,0,4,,,,,,,,,3,,,,57,0
134652,note_on,10,0,14,,,,,,,,,13,,,,50,112
134654,note_on,10,0,15,,,,,,,,,14,,,,38,112
134679,note_on,34,0,3,,,,,,,,,2,,,,74,0
134679,note_on,0,0,3,,,,,,,,,2,,,,77,0
134683,note_on,34,0,4,,,,,,,,,3,,,,62,0
134683,note_on,0,0,4,,,,,,,,,3,,,,65,0
134690,control_change,50,0,11,,,,,,,,,10,11,80,,,
134693,control_change,50,0,12,,,,,,,,,11,11,80,,,
134698,control_change,50,0,13,,,,,,,,,12,11,80,,,
134701,note_on,0,0,1,,,,,,,,,0,,,,86,0
134701,note_on,60,0,1,,,,,,,,,0,,,,89,0
134702,control_change,50,0,14,,,,,,,,,13,11,80,,,
134704,note_on,60,0,2,,,,,,,,,1,,,,81,0
134704,note_on,0,0,2,,,,,,,,,1,,,,77,0
134704,control_change,50,0,15,,,,,,,,,14,11,80,,,
134705,note_on,0,0,3,,,,,,,,,2,,,,74,101
134705,note_on,26,0,3,,,,,,,,,2,,,,77,101
134709,note_on,26,0,4,,,,,,,,,3,,,,62,100
134709,note_on,0,0,4,,,,,,,,,3,,,,65,100
134712,control_change,11,0,1,,,,,,,,,0,11,70,,,
134714,control_change,71,0,5,,,,,,,,,4,11,81,,,
134715,control_change,11,0,2,,,,,,,,,1,11,70,,,
134715,control_change,71,0,6,,,,,,,,,5,11,81,,,
134716,control_change,11,0,3,,,,,,,,,2,11,70,,,
134720,control_change,11,0,4,,,,,,,,,3,11,76,,,
134739,note_on,23,0,3,,,,,,,,,2,,,,74,0
134739,note_on,0,0,3,,,,,,,,,2,,,,77,0
134743,note_on,0,0,4,,,,,,,,,3,,,,62,0
134743,note_on,23,0,4,,,,,,,,,3,,,,65,0
134753,note_on,39,0,5,,,,,,,,,4,,,,65,0
134754,note_on,39,0,6,,,,,,,,,5,,,,62,0
134760,set_tempo,120,1,0,,,,,,263158,,,,,,,,
134761,note_on,49,0,1,,,,,,,,,0,,,,86,101
134761,note_on,0,0,1,,,,,,,,,0,,,,89,101
134763,note_on,10,0,5,,,,,,,,,4,,,,65,100
134764,note_on,10,0,6,,,,,,,,,5,,,,62,100
134764,note_on,0,0,2,,,,,,,,,1,,,,81,100
134764,note_on,49,0,2,,,,,,,,,1,,,,77,100
134765,note_on,26,0,3,,,,,,,,,2,,,,76,101
134765,note_on,0,0,3,,,,,,,,,2,,,,79,101
134769,note_on,26,0,4,,,,,,,,,3,,,,64,100
134769,note_on,0,0,4,,,,,,,,,3,,,,67,100
134793,control_change,103,0,11,,,,,,,,,10,11,81,,,
134796,control_change,103,0,12,,,,,,,,,11,11,81,,,
134801,control_change,103,0,13,,,,,,,,,12,11,81,,,
134805,control_change,103,0,14,,,,,,,,,13,11,81,,,
134807,control_change,103,0,15,,,,,,,,,14,11,81,,,
134821,note_on,0,0,1,,,,,,,,,0,,,,86,0
134821,note_on,60,0,1,,,,,,,,,0,,,,89,0
134824,note_on,60,0,2,,,,,,,,,1,,,,81,0
134824,note_on,0,0,2,,,,,,,,,1,,,,77,0
134825,note_on,0,0,3,,,,,,,,,2,,,,76,0
134825,note_on,0,0,3,,,,,,,,,2,,,,77,101
134825,note_on,0,0,3,,,,,,,,,2,,,,74,101
134825,note_on,60,0,3,,,,,,,,,2,,,,79,0
134829,note_on,0,0,4,,,,,,,,,3,,,,64,0
134829,note_on,60,0,4,,,,,,,,,3,,,,67,0
134829,note_on,0,0,4,,,,,,,,,3,,,,65,100
134829,note_on,0,0,4,,,,,,,,,3,,,,62,100
134873,note_on,110,0,5,,,,,,,,,4,,,,65,0
134874,note_on,110,0,6,,,,,,,,,5,,,,62,0
134880,set_tempo,120,1,0,,,,,,288462,,,,,,,,
134880,note_on,87,0,11,,,,,,,,,10,,,,62,0
134880,note_on,0,0,11,,,,,,,,,10,,,,57,112
134881,note_on,0,0,1,,,,,,,,,0,,,,89,101
134881,note_on,60,0,1,,,,,,,,,0,,,,86,101
134883,note_on,0,0,12,,,,,,,,,11,,,,57,112
134883,note_on,87,0,12,,,,,,,,,11,,,,62,0
134883,note_on,10,0,5,,,,,,,,,4,,,,65,100
134884,note_on,10,0,6,,,,,,,,,5,,,,62,100
134884,note_on,60,0,2,,,,,,,,,1,,,,81,100
134884,note_on,0,0,2,,,,,,,,,1,,,,77,100
134885,note_on,0,0,3,,,,,,,,,2,,,,79,101
134885,note_on,60,0,3,,,,,,,,,2,,,,74,0
134885,note_on,0,0,3,,,,,,,,,2,,,,76,101
134885,note_on,0,0,3,,,,,,,,,2,,,,77,0
134888,note_on,87,0,13,,,,,,,,,12,,,,62,0
134888,note_on,0,0,13,,,,,,,,,12,,,,57,112
134889,note_on,60,0,4,,,,,,,,,3,,,,65,0
134889,note_on,0,0,4,,,,,,,,,3,,,,62,0
134889,note_on,0,0,4,,,,,,,,,3,,,,67,100
134889,note_on,0,0,4,,,,,,,,,3,,,,64,100
134892,note_on,87,0,14,,,,,,,,,13,,,,50,0
134892,note_on,0,0,14,,,,,,,,,13,,,,45,112
134894,note_on,87,0,15,,,,,,,,,14,,,,38,0
134894,note_on,0,0,15,,,,,,,,,14,,,,33,112
134896,control_change,16,0,11,,,,,,,,,10,11,82,,,
134899,control_change,16,0,12,,,,,,,,,11,11,82,,,
134904,control_change,16,0,13,,,,,,,,,12,11,82,,,
134908,control_change,16,0,14,,,,,,,,,13,11,82,,,
134910,control_change,16,0,15,,,,,,,,,14,11,82,,,
134941,note_on,60,0,1,,,,,,,,,0,,,,89,0
134941,note_on,0,0,1,,,,,,,,,0,,,,86,0
134944,note_on,0,0,2,,,,,,,,,1,,,,81,0
134944,note_on,60,0,2,,,,,,,,,1,,,,77,0
134945,note_on,60,0,3,,,,,,,,,2,,,,76,0
134945,note_on,0,0,3,,,,,,,,,2,,,,79,0
134945,note_on,0,0,3,,,,,,,,,2,,,,77,101
134945,note_on,0,0,3,,,,,,,,,2,,,,74,101
134949,note_on,0,0,4,,,,,,,,,3,,,,65,100
134949,note_on,0,0,4,,,,,,,,,3,,,,67,0
134949,note_on,0,0,4,,,,,,,,,3,,,,62,100
134949,note_on,60,0,4,,,,,,,,,3,,,,64,0
134990,note_on,94,0,11,,,,,,,,,10,,,,57,0
134993,note_on,94,0,12,,,,,,,,,11,,,,57,0
134993,note_on,110,0,5,,,,,,,,,4,,,,65,0
134994,note_on,110,0,6,,,,,,,,,5,,,,62,0
134998,note_on,94,0,13,,,,,,,,,12,,,,57,0
134999,control_change,9,0,11,,,,,,,,,10,11,83,,,
135000,note_on,1,0,11,,,,,,,,,10,,,,55,112
135000,control_change,59,0,1,,,,,,,,,0,11,70,,,
135000,set_tempo,120,1,0,,,,,,254237,,,,,,,,
135001,note_on,1,0,1,,,,,,,,,0,,,,86,101
135001,note_on,0,0,1,,,,,,,,,0,,,,89,101
135002,note_on,0,0,7,,,,,,,,,6,,,,67,112
135002,control_change,9,0,5,,,,,,,,,4,11,82,,,
135002,control_change,9,0,12,,,,,,,,,11,11,83,,,
135002,note_on,94,0,14,,,,,,,,,13,,,,45,0
135002,note_on,0,0,7,,,,,,,,,6,,,,55,112
135002,control_change,8760,0,7,,,,,,,,,6,11,82,,,
135003,control_change,59,0,2,,,,,,,,,1,11,70,,,
135003,note_on,1,0,5,,,,,,,,,4,,,,65,100
135003,control_change,9,0,6,,,,,,,,,5,11,82,,,
135003,note_on,1,0,12,,,,,,,,,11,,,,55,112
135004,note_on,0,0,2,,,,,,,,,1,,,,77,100
135004,note_on,94,0,15,,,,,,,,,14,,,,33,0
135004,control_change,59,0,3,,,,,,,,,2,11,70,,,
135004,note_on,1,0,2,,,,,,,,,1,,,,83,100
135004,note_on,1,0,6,,,,,,,,,5,,,,62,100
135005,note_on,0,0,3,,,,,,,,,2,,,,77,0
135005,note_on,0,0,3,,,,,,,,,2,,,,71,101
135005,note_on,0,0,3,,,,,,,,,2,,,,74,101
135005,note_on,1,0,3,,,,,,,,,2,,,,74,0
135007,control_change,9,0,13,,,,,,,,,12,11,83,,,
135008,control_change,59,0,4,,,,,,,,,3,11,77,,,
135008,note_on,1,0,13,,,,,,,,,12,,,,55,112
135009,note_on,0,0,4,,,,,,,,,3,,,,59,100
135009,note_on,0,0,4,,,,,,,,,3,,,,55,100
135009,note_on,0,0,4,,,,,,,,,3,,,,65,0
135009,note_on,1,0,4,,,,,,,,,3,,,,62,0
135011,control_change,9,0,14,,,,,,,,,13,11,83,,,
135012,note_on,1,0,14,,,,,,,,,13,,,,43,112
135013,control_change,9,0,15,,,,,,,,,14,11,83,,,
135014,note_on,1,0,15,,,,,,,,,14,,,,31,112
135015,note_on,8760,0,10,,,,,,,,,15,,,,43,85
135071,control_change,71,0,11,,,,,,,,,10,11,84,,,
135074,control_change,71,0,12,,,,,,,,,11,11,84,,,
135079,control_change,71,0,13,,,,,,,,,12,11,84,,,
135083,control_change,71,0,14,,,,,,,,,13,11,84,,,
135085,control_change,71,0,15,,,,,,,,,14,11,84,,,
135120,set_tempo,120,1,0,,,,,,263158,,,,,,,,
135143,control_change,72,0,11,,,,,,,,,10,11,85,,,
135146,control_change,72,0,12,,,,,,,,,11,11,85,,,
135151,control_change,72,0,13,,,,,,,,,12,11,85,,,
135155,control_change,72,0,14,,,,,,,,,13,11,85,,,
135157,control_change,72,0,15,,,,,,,,,14,11,85,,,
135215,control_change,72,0,11,,,,,,,,,10,11,86,,,
135218,control_change,72,0,12,,,,,,,,,11,11,86,,,
135223,control_change,72,0,13,,,,,,,,,12,11,86,,,
135227,control_change,72,0,14,,,,,,,,,13,11,86,,,
135229,control_change,72,0,15,,,,,,,,,14,11,86,,,
135240,note_on,25,0,11,,,,,,,,,10,,,,55,0
135240,note_on,0,0,11,,,,,,,,,10,,,,59,112
135240,set_tempo,120,1,0,,,,,,288462,,,,,,,,
135242,note_on,0,0,1,,,,,,,,,0,,,,86,0
135242,note_on,241,0,1,,,,,,,,,0,,,,89,0
135243,note_on,0,0,12,,,,,,,,,11,,,,59,112
135243,note_on,25,0,12,,,,,,,,,11,,,,55,0
135245,note_on,0,0,2,,,,,,,,,1,,,,83,0
135245,note_on,241,0,2,,,,,,,,,1,,,,77,0
135246,note_on,0,0,3,,,,,,,,,2,,,,71,0
135246,note_on,241,0,3,,,,,,,,,2,,,,74,0
135248,note_on,25,0,13,,,,,,,,,12,,,,55,0
135248,note_on,0,0,13,,,,,,,,,12,,,,59,112
135250,note_on,0,0,4,,,,,,,,,3,,,,55,0
135250,note_on,241,0,4,,,,,,,,,3,,,,59,0
135252,note_on,0,0,14,,,,,,,,,13,,,,47,112
135252,note_on,25,0,14,,,,,,,,,13,,,,43,0
135254,note_on,0,0,15,,,,,,,,,14,,,,35,112
135254,note_on,25,0,15,,,,,,,,,14,,,,31,0
135255,note_on,240,0,10,,,,,,,,,15,,,,43,0
135287,control_change,47,0,11,,,,,,,,,10,11,87,,,
135290,control_change,47,0,12,,,,,,,,,11,11,87,,,
135295,control_change,47,0,13,,,,,,,,,12,11,87,,,
135299,control_change,47,0,14,,,,,,,,,13,11,87,,,
135301,control_change,47,0,15,,,,,,,,,14,11,87,,,
135350,note_on,63,0,11,,,,,,,,,10,,,,59,0
135352,note_on,350,0,7,,,,,,,,,6,,,,67,0
135352,note_on,0,0,7,,,,,,,,,6,,,,55,0
135353,note_on,350,0,5,,,,,,,,,4,,,,65,0
135353,note_on,63,0,12,,,,,,,,,11,,,,59,0
135354,note_on,350,0,6,,,,,,,,,5,,,,62,0
135358,note_on,63,0,13,,,,,,,,,12,,,,59,0
135359,control_change,9,0,11,,,,,,,,,10,11,87,,,
135360,note_on,1,0,11,,,,,,,,,10,,,,62,112
135360,set_tempo,120,1,0,,,,,,254237,,,,,,,,
135361,note_on,0,0,1,,,,,,,,,0,,,,86,101
135361,note_on,119,0,1,,,,,,,,,0,,,,89,101
135362,note_on,63,0,14,,,,,,,,,13,,,,47,0
135362,note_on,0,0,7,,,,,,,,,6,,,,55,112
135362,note_on,10,0,7,,,,,,,,,6,,,,67,112
135362,control_change,9,0,12,,,,,,,,,11,11,87,,,
135363,note_on,1,0,12,,,,,,,,,11,,,,62,112
135363,note_on,10,0,5,,,,,,,,,4,,,,65,100
135364,note_on,63,0,15,,,,,,,,,14,,,,35,0
135364,note_on,119,0,2,,,,,,,,,1,,,,77,100
135364,note_on,0,0,2,,,,,,,,,1,,,,83,100
135364,note_on,10,0,6,,,,,,,,,5,,,,62,100
135365,note_on,0,0,3,,,,,,,,,2,,,,71,101
135365,note_on,119,0,3,,,,,,,,,2,,,,74,101
135367,control_change,9,0,13,,,,,,,,,12,11,87,,,
135368,note_on,1,0,13,,,,,,,,,12,,,,62,112
135369,note_on,0,0,4,,,,,,,,,3,,,,55,100
135369,note_on,119,0,4,,,,,,,,,3,,,,59,100
135371,control_change,9,0,14,,,,,,,,,13,11,87,,,
135372,note_on,1,0,14,,,,,,,,,13,,,,50,112
135373,control_change,9,0,15,,,,,,,,,14,11,87,,,
135374,note_on,1,0,15,,,,,,,,,14,,,,38,112
135375,note_on,120,0,10,,,,,,,,,15,,,,43,85
135431,control_change,71,0,11,,,,,,,,,10,11,88,,,
135434,control_change,71,0,12,,,,,,,,,11,11,88,,,
135439,control_change,71,0,13,,,,,,,,,12,11,88,,,
135443,control_change,71,0,14,,,,,,,,,13,11,88,,,
135445,control_change,71,0,15,,,,,,,,,14,11,88,,,
135480,set_tempo,120,1,0,,,,,,263158,,,,,,,,
135503,control_change,72,0,11,,,,,,,,,10,11,89,,,
135506,control_change,72,0,12,,,,,,,,,11,11,89,,,
135511,control_change,72,0,13,,,,,,,,,12,11,89,,,
135515,control_change,72,0,14,,,,,,,,,13,11,89,,,
135517,control_change,72,0,15,,,,,,,,,14,11,89,,,
135575,control_change,72,0,11,,,,,,,,,10,11,90,,,
135578,control_change,72,0,12,,,,,,,,,11,11,90,,,
135583,control_change,72,0,13,,,,,,,,,12,11,90,,,
135587,control_change,72,0,14,,,,,,,,,13,11,90,,,
135589,control_change,72,0,15,,,,,,,,,14,11,90,,,
135600,set_tempo,120,1,0,,,,,,288462,,,,,,,,
135600,note_on,0,0,11,,,,,,,,,10,,,,67,112
135600,note_on,25,0,11,,,,,,,,,10,,,,62,0
135602,note_on,0,0,1,,,,,,,,,0,,,,89,0
135602,note_on,241,0,1,,,,,,,,,0,,,,86,0
135603,note_on,25,0,12,,,,,,,,,11,,,,62,0
135603,note_on,0,0,12,,,,,,,,,11,,,,67,112
135605,note_on,241,0,2,,,,,,,,,1,,,,83,0
135605,note_on,0,0,2,,,,,,,,,1,,,,77,0
135606,note_on,241,0,3,,,,,,,,,2,,,,71,0
135606,note_on,0,0,3,,,,,,,,,2,,,,74,0
135608,note_on,0,0,13,,,,,,,,,12,,,,67,112
135608,note_on,25,0,13,,,,,,,,,12,,,,62,0
135610,note_on,241,0,4,,,,,,,,,3,,,,55,0
135610,note_on,0,0,4,,,,,,,,,3,,,,59,0
135612,note_on,0,0,14,,,,,,,,,13,,,,55,112
135612,note_on,25,0,14,,,,,,,,,13,,,,50,0
135614,note_on,0,0,15,,,,,,,,,14,,,,43,112
135614,note_on,25,0,15,,,,,,,,,14,,,,38,0
135615,note_on,240,0,10,,,,,,,,,15,,,,43,0
135647,control_change,47,0,11,,,,,,,,,10,11,91,,,
135650,control_change,47,0,12,,,,,,,,,11,11,91,,,
135655,control_change,47,0,13,,,,,,,,,12,11,91,,,
135659,control_change,47,0,14,,,,,,,,,13,11,91,,,
135661,control_change,47,0,15,,,,,,,,,14,11,91,,,
135710,note_on,63,0,11,,,,,,,,,10,,,,67,0
135712,note_on,0,0,7,,,,,,,,,6,,,,67,0
135712,note_on,350,0,7,,,,,,,,,6,,,,55,0
135713,note_on,63,0,12,,,,,,,,,11,,,,67,0
135713,note_on,350,0,5,,,,,,,,,4,,,,65,0
135714,note_on,350,0,6,,,,,,,,,5,,,,62,0
135718,note_on,63,0,13,,,,,,,,,12,,,,67,0
135719,control_change,9,0,11,,,,,,,,,10,11,92,,,
135720,note_on,1,0,11,,,,,,,,,10,,,,71,112
135720,set_tempo,120,1,0,,,,,,254237,,,,,,,,
135721,note_on,119,0,1,,,,,,,,,0,,,,89,116
135721,note_on,0,0,1,,,,,,,,,0,,,,86,116
135721,control_change,0,0,1,,,,,,,,,0,11,86,,,
135722,control_change,9,0,12,,,,,,,,,11,11,92,,,
135722,note_on,63,0,14,,,,,,,,,13,,,,55,0
135722,note_on,0,0,7,,,,,,,,,6,,,,67,112
135722,note_on,10,0,7,,,,,,,,,6,,,,55,112
135723,control_change,0,0,5,,,,,,,,,4,11,92,,,
135723,note_on,10,0,5,,,,,,,,,4,,,,65,100
135723,note_on,1,0,12,,,,,,,,,11,,,,71,112
135724,control_change,0,0,6,,,,,,,,,5,11,92,,,
135724,note_on,119,0,2,,,,,,,,,1,,,,83,100
135724,note_on,63,0,15,,,,,,,,,14,,,,43,0
135724,note_on,0,0,2,,,,,,,,,1,,,,77,115
135724,note_on,10,0,6,,,,,,,,,5,,,,62,100
135724,control_change,0,0,2,,,,,,,,,1,11,86,,,
135725,control_change,119,0,3,,,,,,,,,2,11,86,,,
135725,note_on,0,0,3,,,,,,,,,2,,,,74,116
135725,note_on,0,0,3,,,,,,,,,2,,,,71,101
135727,control_change,9,0,13,,,,,,,,,12,11,92,,,
135728,note_on,1,0,13,,,,,,,,,12,,,,71,112
135729,control_change,0,0,4,,,,,,,,,3,11,87,,,
135729,note_on,119,0,4,,,,,,,,,3,,,,59,100
135729,note_on,0,0,4,,,,,,,,,3,,,,55,100
135731,control_change,9,0,14,,,,,,,,,13,11,92,,,
135732,note_on,1,0,14,,,,,,,,,13,,,,59,112
135733,control_change,9,0,15,,,,,,,,,14,11,92,,,
135734,note_on,1,0,15,,,,,,,,,14,,,,47,112
135735,note_on,120,0,10,,,,,,,,,15,,,,43,85
135755,note_on,34,0,1,,,,,,,,,0,,,,86,0
135755,note_on,0,0,1,,,,,,,,,0,,,,89,0
135758,note_on,34,0,2,,,,,,,,,1,,,,77,0
135759,note_on,34,0,3,,,,,,,,,2,,,,74,0
135781,note_on,26,0,1,,,,,,,,,0,,,,89,101
135781,note_on,0,0,1,,,,,,,,,0,,,,86,101
135784,note_on,26,0,2,,,,,,,,,1,,,,77,100
135785,note_on,26,0,3,,,,,,,,,2,,,,74,101
135791,control_change,71,0,11,,,,,,,,,10,11,93,,,
135794,control_change,71,0,12,,,,,,,,,11,11,93,,,
135799,control_change,71,0,13,,,,,,,,,12,11,93,,,
135803,control_change,71,0,14,,,,,,,,,13,11,93,,,
135805,control_change,71,0,15,,,,,,,,,14,11,93,,,
135815,note_on,0,0,1,,,,,,,,,0,,,,89,0
135815,note_on,34,0,1,,,,,,,,,0,,,,86,0
135818,note_on,34,0,2,,,,,,,,,1,,,,77,0
135819,note_on,34,0,3,,,,,,,,,2,,,,74,0
135840,set_tempo,120,1,0,,,,,,263158,,,,,,,,
135841,note_on,26,0,1,,,,,,,,,0,,,,91,101
135841,note_on,0,0,1,,,,,,,,,0,,,,87,101
135844,note_on,26,0,2,,,,,,,,,1,,,,79,100
135845,note_on,26,0,3,,,,,,,,,2,,,,75,101
135863,control_change,72,0,11,,,,,,,,,10,11,94,,,
135866,control_change,72,0,12,,,,,,,,,11,11,94,,,
135871,control_change,72,0,13,,,,,,,,,12,11,94,,,
135875,control_change,72,0,14,,,,,,,,,13,11,94,,,
135877,control_change,72,0,15,,,,,,,,,14,11,94,,,
135901,note_on,0,0,1,,,,,,,,,0,,,,86,101
135901,note_on,60,0,1,,,,,,,,,0,,,,87,0
135901,note_on,0,0,1,,,,,,,,,0,,,,91,0
135901,note_on,0,0,1,,,,,,,,,0,,,,89,101
135904,note_on,0,0,2,,,,,,,,,1,,,,77,100
135904,note_on,60,0,2,,,,,,,,,1,,,,79,0
135905,note_on,60,0,3,,,,,,,,,2,,,,75,0
135905,note_on,0,0,3,,,,,,,,,2,,,,74,101
135935,control_change,72,0,11,,,,,,,,,10,11,95,,,
135938,control_change,72,0,12,,,,,,,,,11,11,95,,,
135943,control_change,72,0,13,,,,,,,,,12,11,95,,,
135947,control_change,72,0,14,,,,,,,,,13,11,95,,,
135949,control_change,72,0,15,,,,,,,,,14,11,95,,,
135960,set_tempo,120,1,0,,,,,,288462,,,,,,,,
135960,note_on,0,0,11,,,,,,,,,10,,,,74,112
135960,note_on,25,0,11,,,,,,,,,10,,,,71,0
135961,note_on,60,0,1,,,,,,,,,0,,,,86,0
135961,note_on,0,0,1,,,,,,,,,0,,,,89,0
135961,note_on,0,0,1,,,,,,,,,0,,,,91,101
135961,note_on,0,0,1,,,,,,,,,0,,,,87,101
135963,note_on,0,0,12,,,,,,,,,11,,,,74,112
135963,note_on,25,0,12,,,,,,,,,11,,,,71,0
135964,note_on,0,0,2,,,,,,,,,1,,,,79,100
135964,note_on,60,0,2,,,,,,,,,1,,,,77,0
135965,note_on,60,0,3,,,,,,,,,2,,,,74,0
135965,note_on,0,0,3,,,,,,,,,2,,,,75,101
135968,note_on,25,0,13,,,,,,,,,12,,,,71,0
135968,note_on,0,0,13,,,,,,,,,12,,,,74,112
135972,note_on,25,0,14,,,,,,,,,13,,,,59,0
135972,note_on,0,0,14,,,,,,,,,13,,,,62,112
135974,note_on,0,0,15,,,,,,,,,14,,,,50,112
135974,note_on,25,0,15,,,,,,,,,14,,,,47,0
135975,note_on,240,0,10,,,,,,,,,15,,,,43,0
136007,control_change,47,0,11,,,,,,,,,10,11,96,,,
136010,control_change,47,0,12,,,,,,,,,11,11,96,,,
136015,control_change,47,0,13,,,,,,,,,12,11,96,,,
136019,control_change,47,0,14,,,,,,,,,13,11,96,,,
136021,control_change,47,0,15,,,,,,,,,14,11,96,,,
136021,note_on,0,0,1,,,,,,,,,0,,,,86,101
136021,note_on,0,0,1,,,,,,,,,0,,,,89,101
136021,note_on,0,0,1,,,,,,,,,0,,,,87,0
136021,note_on,60,0,1,,,,,,,,,0,,,,91,0
136024,note_on,60,0,2,,,,,,,,,1,,,,79,0
136024,note_on,0,0,2,,,,,,,,,1,,,,77,100
136025,note_on,0,0,3,,,,,,,,,2,,,,74,101
136025,note_on,60,0,3,,,,,,,,,2,,,,75,0
136070,note_on,63,0,11,,,,,,,,,10,,,,74,0
136072,note_on,0,0,7,,,,,,,,,6,,,,55,0
136072,note_on,350,0,7,,,,,,,,,6,,,,67,0
136073,note_on,350,0,5,,,,,,,,,4,,,,65,0
136073,note_on,63,0,12,,,,,,,,,11,,,,74,0
136074,note_on,350,0,6,,,,,,,,,5,,,,62,0
136078,note_on,63,0,13,,,,,,,,,12,,,,74,0
136079,control_change,9,0,11,,,,,,,,,10,11,97,,,
136080,set_tempo,120,1,0,,,,,,254237,,,,,,,,
136080,note_on,1,0,11,,,,,,,,,10,,,,79,112
136081,control_change,0,0,1,,,,,,,,,0,11,78,,,
136081,note_on,60,0,1,,,,,,,,,0,,,,86,0
136081,note_on,0,0,1,,,,,,,,,0,,,,89,0
136081,note_on,0,0,1,,,,,,,,,0,,,,86,101
136081,note_on,0,0,1,,,,,,,,,0,,,,89,101
136082,control_change,9,0,12,,,,,,,,,11,11,97,,,
136082,note_on,63,0,14,,,,,,,,,13,,,,62,0
136082,note_on,0,0,7,,,,,,,,,6,,,,55,112
136082,note_on,10,0,7,,,,,,,,,6,,,,67,112
136083,note_on,1,0,12,,,,,,,,,11,,,,79,112
136083,note_on,10,0,5,,,,,,,,,4,,,,65,100
136084,note_on,0,0,2,,,,,,,,,1,,,,83,0
136084,note_on,10,0,6,,,,,,,,,5,,,,62,100
136084,note_on,0,0,2,,,,,,,,,1,,,,77,100
136084,control_change,0,0,2,,,,,,,,,1,11,78,,,
136084,note_on,0,0,2,,,,,,,,,1,,,,83,100
136084,note_on,63,0,15,,,,,,,,,14,,,,50,0
136084,note_on,60,0,2,,,,,,,,,1,,,,77,0
136085,control_change,0,0,3,,,,,,,,,2,11,86,,,
136085,note_on,0,0,3,,,,,,,,,2,,,,71,0
136085,note_on,0,0,3,,,,,,,,,2,,,,77,101
136085,note_on,0,0,3,,,,,,,,,2,,,,74,101
136085,note_on,60,0,3,,,,,,,,,2,,,,74,0
136087,control_change,9,0,13,,,,,,,,,12,11,97,,,
136088,note_on,1,0,13,,,,,,,,,12,,,,79,112
136089,note_on,0,0,4,,,,,,,,,3,,,,62,100
136089,note_on,360,0,4,,,,,,,,,3,,,,55,0
136089,note_on,0,0,4,,,,,,,,,3,,,,59,0
136089,control_change,0,0,4,,,,,,,,,3,11,97,,,
136089,note_on,0,0,4,,,,,,,,,3,,,,65,100
136091,control_change,9,0,14,,,,,,,,,13,11,97,,,
136092,note_on,1,0,14,,,,,,,,,13,,,,67,112
136093,control_change,9,0,15,,,,,,,,,14,11,97,,,
136094,note_on,1,0,15,,,,,,,,,14,,,,55,112
136095,note_on,120,0,10,,,,,,,,,15,,,,43,85
136119,note_on,34,0,3,,,,,,,,,2,,,,74,0
136119,note_on,0,0,3,,,,,,,,,2,,,,77,0
136123,note_on,0,0,4,,,,,,,,,3,,,,65,0
136123,note_on,34,0,4,,,,,,,,,3,,,,62,0
136141,note_on,60,0,1,,,,,,,,,0,,,,89,0
136141,note_on,0,0,1,,,,,,,,,0,,,,86,0
136144,note_on,60,0,2,,,,,,,,,1,,,,77,0
136144,note_on,0,0,2,,,,,,,,,1,,,,83,0
136145,note_on,0,0,3,,,,,,,,,2,,,,77,101
136145,note_on,26,0,3,,,,,,,,,2,,,,74,101
136149,note_on,0,0,4,,,,,,,,,3,,,,62,100
136149,note_on,26,0,4,,,,,,,,,3,,,,65,100
136151,control_change,71,0,11,,,,,,,,,10,11,98,,,
136154,control_change,71,0,12,,,,,,,,,11,11,98,,,
136159,control_change,71,0,13,,,,,,,,,12,11,98,,,
136163,control_change,71,0,14,,,,,,,,,13,11,98,,,
136165,control_change,71,0,15,,,,,,,,,14,11,98,,,
136179,note_on,0,0,3,,,,,,,,,2,,,,74,0
136179,note_on,34,0,3,,,,,,,,,2,,,,77,0
136183,note_on,0,0,4,,,,,,,,,3,,,,65,0
136183,note_on,34,0,4,,,,,,,,,3,,,,62,0
136193,note_on,110,0,5,,,,,,,,,4,,,,65,0
136194,note_on,110,0,6,,,,,,,,,5,,,,62,0
136200,set_tempo,120,1,0,,,,,,263158,,,,,,,,
136201,note_on,60,0,1,,,,,,,,,0,,,,89,101
136201,note_on,0,0,1,,,,,,,,,0,,,,86,101
136203,note_on,10,0,5,,,,,,,,,4,,,,65,100
136204,note_on,60,0,2,,,,,,,,,1,,,,83,100
136204,note_on,0,0,2,,,,,,,,,1,,,,77,100
136204,note_on,10,0,6,,,,,,,,,5,,,,62,100
136205,note_on,0,0,3,,,,,,,,,2,,,,75,101
136205,note_on,26,0,3,,,,,,,,,2,,,,79,101
136209,note_on,0,0,4,,,,,,,,,3,,,,63,100
136209,note_on,26,0,4,,,,,,,,,3,,,,67,100
136223,control_change,72,0,11,,,,,,,,,10,11,99,,,
136226,control_change,72,0,12,,,,,,,,,11,11,99,,,
136231,control_change,72,0,13,,,,,,,,,12,11,99,,,
136235,control_change,72,0,14,,,,,,,,,13,11,99,,,
136237,control_change,72,0,15,,,,,,,,,14,11,99,,,
136261,note_on,60,0,1,,,,,,,,,0,,,,86,0
136261,note_on,0,0,1,,,,,,,,,0,,,,89,0
136264,note_on,60,0,2,,,,,,,,,1,,,,77,0
136264,note_on,0,0,2,,,,,,,,,1,,,,83,0
136265,note_on,60,0,3,,,,,,,,,2,,,,75,0
136265,note_on,0,0,3,,,,,,,,,2,,,,79,0
136265,note_on,0,0,3,,,,,,,,,2,,,,77,101
136265,note_on,0,0,3,,,,,,,,,2,,,,74,101
136269,note_on,60,0,4,,,,,,,,,3,,,,63,0
136269,note_on,0,0,4,,,,,,,,,3,,,,67,0
136269,note_on,0,0,4,,,,,,,,,3,,,,62,100
136269,note_on,0,0,4,,,,,,,,,3,,,,65,100
136295,control_change,72,0,11,,,,,,,,,10,11,100,,,
136298,control_change,72,0,12,,,,,,,,,11,11,100,,,
136303,control_change,72,0,13,,,,,,,,,12,11,100,,,
136307,control_change,72,0,14,,,,,,,,,13,11,100,,,
136309,control_change,72,0,15,,,,,,,,,14,11,100,,,
136313,note_on,110,0,5,,,,,,,,,4,,,,65,0
136314,note_on,110,0,6,,,,,,,,,5,,,,62,0
136320,set_tempo,120,1,0,,,,,,288462,,,,,,,,
136320,note_on,25,0,11,,,,,,,,,10,,,,79,0
136320,note_on,0,0,11,,,,,,,,,10,,,,67,112
136321,note_on,60,0,1,,,,,,,,,0,,,,86,101
136321,note_on,0,0,1,,,,,,,,,0,,,,89,101
136323,note_on,10,0,5,,,,,,,,,4,,,,65,100
136323,note_on,0,0,12,,,,,,,,,11,,,,67,112
136323,note_on,25,0,12,,,,,,,,,11,,,,79,0
136324,note_on,10,0,6,,,,,,,,,5,,,,62,100
136324,note_on,60,0,2,,,,,,,,,1,,,,77,100
136324,note_on,0,0,2,,,,,,,,,1,,,,83,100
136325,note_on,0,0,3,,,,,,,,,2,,,,79,101
136325,note_on,60,0,3,,,,,,,,,2,,,,74,0
136325,note_on,0,0,3,,,,,,,,,2,,,,75,101
136325,note_on,0,0,3,,,,,,,,,2,,,,77,0
136328,note_on,0,0,13,,,,,,,,,12,,,,67,112
136328,note_on,25,0,13,,,,,,,,,12,,,,79,0
136329,note_on,60,0,4,,,,,,,,,3,,,,62,0
136329,note_on,0,0,4,,,,,,,,,3,,,,63,100
136329,note_on,0,0,4,,,,,,,,,3,,,,67,100
136329,note_on,0,0,4,,,,,,,,,3,,,,65,0
136332,note_on,25,0,14,,,,,,,,,13,,,,67,0
136332,note_on,0,0,14,,,,,,,,,13,,,,55,112
136334,note_on,0,0,15,,,,,,,,,14,,,,43,112
136334,note_on,25,0,15,,,,,,,,,14,,,,55,0
136335,note_on,240,0,10,,,,,,,,,15,,,,43,0
136367,control_change,47,0,11,,,,,,,,,10,11,101,,,
136370,control_change,47,0,12,,,,,,,,,11,11,101,,,
136375,control_change,47,0,13,,,,,,,,,12,11,101,,,
136379,control_change,47,0,14,,,,,,,,,13,11,101,,,
136381,note_on,0,0,1,,,,,,,,,0,,,,86,0
136381,control_change,47,0,15,,,,,,,,,14,11,101,,,
136381,note_on,60,0,1,,,,,,,,,0,,,,89,0
136384,note_on,60,0,2,,,,,,,,,1,,,,83,0
136384,note_on,0,0,2,,,,,,,,,1,,,,77,0
136385,note_on,0,0,3,,,,,,,,,2,,,,77,101
136385,note_on,0,0,3,,,,,,,,,2,,,,74,101
136385,note_on,0,0,3,,,,,,,,,2,,,,79,0
136385,note_on,60,0,3,,,,,,,,,2,,,,75,0
136389,note_on,0,0,4,,,,,,,,,3,,,,62,100
136389,note_on,60,0,4,,,,,,,,,3,,,,63,0
136389,note_on,0,0,4,,,,,,,,,3,,,,65,100
136389,note_on,0,0,4,,,,,,,,,3,,,,67,0
136430,note_on,63,0,11,,,,,,,,,10,,,,67,0
136432,note_on,0,0,7,,,,,,,,,6,,,,67,0
136432,note_on,350,0,7,,,,,,,,,6,,,,55,0
136433,note_on,110,0,5,,,,,,,,,4,,,,65,0
136433,note_on,63,0,12,,,,,,,,,11,,,,67,0
136434,note_on,110,0,6,,,,,,,,,5,,,,62,0
136438,note_on,63,0,13,,,,,,,,,12,,,,67,0
136439,control_change,9,0,11,,,,,,,,,10,11,102,,,
136440,note_on,1,0,11,,,,,,,,,10,,,,66,112
136440,set_tempo,120,1,0,,,,,,254237,,,,,,,,
136441,control_change,0,0,1,,,,,,,,,0,11,86,,,
136441,note_on,60,0,1,,,,,,,,,0,,,,87,101
136441,note_on,0,0,1,,,,,,,,,0,,,,84,101
136442,note_on,10,0,7,,,,,,,,,6,,,,60,112
136442,control_change,9,0,12,,,,,,,,,11,11,102,,,
136442,note_on,0,0,7,,,,,,,,,6,,,,72,112
136442,note_on,63,0,14,,,,,,,,,13,,,,55,0
136443,note_on,1,0,12,,,,,,,,,11,,,,66,112
136443,note_on,0,0,5,,,,,,,,,4,,,,60,100
136443,control_change,10,0,5,,,,,,,,,4,11,102,,,
136444,note_on,60,0,2,,,,,,,,,1,,,,81,100
136444,control_change,0,0,2,,,,,,,,,1,11,86,,,
136444,note_on,0,0,2,,,,,,,,,1,,,,75,100
136444,note_on,63,0,15,,,,,,,,,14,,,,43,0
136444,note_on,0,0,6,,,,,,,,,5,,,,60,100
136444,control_change,10,0,6,,,,,,,,,5,11,102,,,
136445,note_on,0,0,3,,,,,,,,,2,,,,74,0
136445,note_on,60,0,3,,,,,,,,,2,,,,77,0
136445,note_on,0,0,3,,,,,,,,,2,,,,72,101
136445,control_change,0,0,3,,,,,,,,,2,11,86,,,
136445,note_on,0,0,3,,,,,,,,,2,,,,69,101
136447,control_change,10080,0,8,,,,,,,,,7,11,102,,,
136447,note_on,0,0,8,,,,,,,,,7,,,,63,110
136447,note_on,0,0,8,,,,,,,,,7,,,,57,110
136447,control_change,9,0,13,,,,,,,,,12,11,102,,,
136448,note_on,1,0,13,,,,,,,,,12,,,,66,112
136449,note_on,0,0,4,,,,,,,,,3,,,,62,0
136449,note_on,60,0,4,,,,,,,,,3,,,,65,0
136449,control_change,0,0,4,,,,,,,,,3,11,97,,,
136449,note_on,0,0,4,,,,,,,,,3,,,,63,100
136449,note_on,0,0,4,,,,,,,,,3,,,,57,100
136451,control_change,9,0,14,,,,,,,,,13,11,102,,,
136452,note_on,1,0,14,,,,,,,,,13,,,,54,112
136453,control_change,10080,0,9,,,,,,,,,8,11,102,,,
136453,control_change,9,0,15,,,,,,,,,14,11,102,,,
136453,note_on,0,0,9,,,,,,,,,8,,,,54,110
136454,note_on,1,0,15,,,,,,,,,14,,,,42,112
136455,note_on,120,0,10,,,,,,,,,15,,,,48,80
136501,note_on,0,0,1,,,,,,,,,0,,,,87,0
136501,note_on,60,0,1,,,,,,,,,0,,,,84,0
136504,note_on,0,0,2,,,,,,,,,1,,,,81,0
136504,note_on,60,0,2,,,,,,,,,1,,,,75,0
136505,note_on,0,0,3,,,,,,,,,2,,,,69,0
136505,note_on,60,0,3,,,,,,,,,2,,,,72,0
136509,note_on,60,0,4,,,,,,,,,3,,,,63,0
136509,note_on,0,0,4,,,,,,,,,3,,,,57,0
136552,note_on,0,0,7,,,,,,,,,6,,,,60,0
136552,note_on,110,0,7,,,,,,,,,6,,,,72,0
136553,note_on,110,0,5,,,,,,,,,4,,,,60,0
136554,note_on,110,0,6,,,,,,,,,5,,,,60,0
136560,set_tempo,120,1,0,,,,,,263158,,,,,,,,
136561,note_on,0,0,1,,,,,,,,,0,,,,87,101
136561,note_on,60,0,1,,,,,,,,,0,,,,84,101
136562,note_on,0,0,7,,,,,,,,,6,,,,72,112
136562,note_on,10,0,7,,,,,,,,,6,,,,60,112
136563,note_on,10,0,5,,,,,,,,,4,,,,60,100
136564,note_on,60,0,2,,,,,,,,,1,,,,75,100
136564,note_on,0,0,2,,,,,,,,,1,,,,81,100
136564,note_on,10,0,6,,,,,,,,,5,,,,60,100
136565,note_on,60,0,3,,,,,,,,,2,,,,69,101
136565,note_on,0,0,3,,,,,,,,,2,,,,72,101
136569,note_on,0,0,4,,,,,,,,,3,,,,63,100
136569,note_on,60,0,4,,,,,,,,,3,,,,57,100
136575,note_on,120,0,10,,,,,,,,,15,,,,48,0
136575,note_on,0,0,10,,,,,,,,,15,,,,48,82
136621,note_on,0,0,1,,,,,,,,,0,,,,84,0
136621,note_on,60,0,1,,,,,,,,,0,,,,87,0
136624,note_on,60,0,2,,,,,,,,,1,,,,81,0
136624,note_on,0,0,2,,,,,,,,,1,,,,75,0
136625,note_on,0,0,3,,,,,,,,,2,,,,69,0
136625,note_on,60,0,3,,,,,,,,,2,,,,72,0
136629,note_on,60,0,4,,,,,,,,,3,,,,63,0
136629,note_on,0,0,4,,,,,,,,,3,,,,57,0
136672,note_on,0,0,7,,,,,,,,,6,,,,60,0
136672,note_on,110,0,7,,,,,,,,,6,,,,72,0
136673,note_on,110,0,5,,,,,,,,,4,,,,60,0
136674,note_on,110,0,6,,,,,,,,,5,,,,60,0
136680,note_on,240,0,11,,,,,,,,,10,,,,66,0
136680,set_tempo,120,1,0,,,,,,288462,,,,,,,,
136680,note_on,0,0,11,,,,,,,,,10,,,,69,112
136681,note_on,60,0,1,,,,,,,,,0,,,,84,101
136681,note_on,0,0,1,,,,,,,,,0,,,,87,101
136682,note_on,0,0,7,,,,,,,,,6,,,,60,112
136682,note_on,10,0,7,,,,,,,,,6,,,,72,112
136683,note_on,10,0,5,,,,,,,,,4,,,,60,100
136683,note_on,240,0,12,,,,,,,,,11,,,,66,0
136683,note_on,0,0,12,,,,,,,,,11,,,,69,112
136684,note_on,10,0,6,,,,,,,,,5,,,,60,100
136684,note_on,0,0,2,,,,,,,,,1,,,,75,100
136684,note_on,60,0,2,,,,,,,,,1,,,,81,100
136685,note_on,60,0,3,,,,,,,,,2,,,,72,101
136685,note_on,0,0,3,,,,,,,,,2,,,,69,101
136688,note_on,0,0,13,,,,,,,,,12,,,,69,112
136688,note_on,240,0,13,,,,,,,,,12,,,,66,0
136689,note_on,0,0,4,,,,,,,,,3,,,,57,100
136689,note_on,60,0,4,,,,,,,,,3,,,,63,100
136692,note_on,240,0,14,,,,,,,,,13,,,,54,0
136692,note_on,0,0,14,,,,,,,,,13,,,,57,112
136694,note_on,0,0,15,,,,,,,,,14,,,,45,112
136694,note_on,240,0,15,,,,,,,,,14,,,,42,0
136695,note_on,0,0,10,,,,,,,,,15,,,,48,85
136695,note_on,120,0,10,,,,,,,,,15,,,,48,0
136741,note_on,60,0,1,,,,,,,,,0,,,,87,0
136741,note_on,0,0,1,,,,,,,,,0,,,,84,0
136744,note_on,60,0,2,,,,,,,,,1,,,,75,0
136744,note_on,0,0,2,,,,,,,,,1,,,,81,0
136745,note_on,0,0,3,,,,,,,,,2,,,,72,0
136745,note_on,60,0,3,,,,,,,,,2,,,,69,0
136749,note_on,60,0,4,,,,,,,,,3,,,,57,0
136749,note_on,0,0,4,,,,,,,,,3,,,,63,0
136790,note_on,110,0,11,,,,,,,,,10,,,,69,0
136792,note_on,0,0,7,,,,,,,,,6,,,,72,0
136792,note_on,110,0,7,,,,,,,,,6,,,,60,0
136793,note_on,110,0,12,,,,,,,,,11,,,,69,0
136793,note_on,110,0,5,,,,,,,,,4,,,,60,0
136794,note_on,110,0,6,,,,,,,,,5,,,,60,0
136797,note_on,350,0,8,,,,,,,,,7,,,,57,0
136797,note_on,0,0,8,,,,,,,,,7,,,,63,0
136798,note_on,110,0,13,,,,,,,,,12,,,,69,0
136800,note_on,10,0,11,,,,,,,,,10,,,,72,112
136800,set_tempo,120,1,0,,,,,,254237,,,,,,,,
136801,note_on,0,0,1,,,,,,,,,0,,,,84,101
136801,note_on,60,0,1,,,,,,,,,0,,,,87,101
136802,note_on,110,0,14,,,,,,,,,13,,,,57,0
136802,note_on,0,0,7,,,,,,,,,6,,,,72,112
136802,note_on,10,0,7,,,,,,,,,6,,,,60,112
136803,note_on,10,0,12,,,,,,,,,11,,,,72,112
136803,note_on,350,0,9,,,,,,,,,8,,,,54,0
136803,note_on,10,0,5,,,,,,,,,4,,,,60,100
136804,note_on,60,0,2,,,,,,,,,1,,,,81,100
136804,note_on,0,0,2,,,,,,,,,1,,,,75,100
136804,note_on,110,0,15,,,,,,,,,14,,,,45,0
136804,note_on,10,0,6,,,,,,,,,5,,,,48,100
136805,note_on,60,0,3,,,,,,,,,2,,,,72,101
136805,note_on,0,0,3,,,,,,,,,2,,,,69,101
136807,note_on,10,0,8,,,,,,,,,7,,,,63,110
136807,note_on,0,0,8,,,,,,,,,7,,,,57,110
136808,note_on,10,0,13,,,,,,,,,12,,,,72,112
136809,note_on,60,0,4,,,,,,,,,3,,,,57,100
136809,note_on,0,0,4,,,,,,,,,3,,,,63,100
136812,note_on,10,0,14,,,,,,,,,13,,,,60,112
136813,note_on,10,0,9,,,,,,,,,8,,,,54,110
136814,note_on,10,0,15,,,,,,,,,14,,,,48,112
136815,note_on,0,0,10,,,,,,,,,15,,,,48,88
136815,note_on,120,0,10,,,,,,,,,15,,,,48,0
136861,note_on,0,0,1,,,,,,,,,0,,,,87,0
136861,note_on,60,0,1,,,,,,,,,0,,,,84,0
136864,note_on,60,0,2,,,,,,,,,1,,,,75,0
136864,note_on,0,0,2,,,,,,,,,1,,,,81,0
136865,note_on,0,0,3,,,,,,,,,2,,,,72,0
136865,note_on,60,0,3,,,,,,,,,2,,,,69,0
136869,note_on,0,0,4,,,,,,,,,3,,,,57,0
136869,note_on,60,0,4,,,,,,,,,3,,,,63,0
136912,note_on,0,0,7,,,,,,,,,6,,,,60,0
136912,note_on,110,0,7,,,,,,,,,6,,,,72,0
136913,note_on,110,0,5,,,,,,,,,4,,,,60,0
136914,note_on,110,0,6,,,,,,,,,5,,,,48,0
136920,set_tempo,120,1,0,,,,,,263158,,,,,,,,
136921,note_on,60,0,1,,,,,,,,,0,,,,87,101
136921,note_on,0,0,1,,,,,,,,,0,,,,84,101
136922,note_on,0,0,7,,,,,,,,,6,,,,60,112
136922,note_on,10,0,7,,,,,,,,,6,,,,72,112
136923,note_on,10,0,5,,,,,,,,,4,,,,60,100
136924,note_on,0,0,2,,,,,,,,,1,,,,75,100
136924,note_on,60,0,2,,,,,,,,,1,,,,81,100
136924,note_on,10,0,6,,,,,,,,,5,,,,48,100
136925,note_on,60,0,3,,,,,,,,,2,,,,72,101
136925,note_on,0,0,3,,,,,,,,,2,,,,69,101
136929,note_on,0,0,4,,,,,,,,,3,,,,63,100
136929,note_on,60,0,4,,,,,,,,,3,,,,57,100
136935,note_on,0,0,10,,,,,,,,,15,,,,48,91
136935,note_on,120,0,10,,,,,,,,,15,,,,48,0
136981,note_on,60,0,1,,,,,,,,,0,,,,84,0
136981,note_on,0,0,1,,,,,,,,,0,,,,87,0
136984,note_on,0,0,2,,,,,,,,,1,,,,81,0
136984,note_on,60,0,2,,,,,,,,,1,,,,75,0
136985,note_on,60,0,3,,,,,,,,,2,,,,69,0
136985,note_on,0,0,3,,,,,,,,,2,,,,72,0
136989,note_on,0,0,4,,,,,,,,,3,,,,57,0
136989,note_on,60,0,4,,,,,,,,,3,,,,63,0
137032,note_on,110,0,7,,,,,,,,,6,,,,60,0
137032,note_on,0,0,7,,,,,,,,,6,,,,72,0
137033,note_on,110,0,5,,,,,,,,,4,,,,60,0
137034,note_on,110,0,6,,,,,,,,,5,,,,48,0
137040,set_tempo,120,1,0,,,,,,288462,,,,,,,,
137040,note_on,0,0,11,,,,,,,,,10,,,,74,112
137040,note_on,240,0,11,,,,,,,,,10,,,,72,0
137041,note_on,0,0,1,,,,,,,,,0,,,,84,101
137041,note_on,60,0,1,,,,,,,,,0,,,,87,101
137042,note_on,10,0,7,,,,,,,,,6,,,,72,112
137042,note_on,0,0,7,,,,,,,,,6,,,,60,112
137043,note_on,240,0,12,,,,,,,,,11,,,,72,0
137043,note_on,0,0,12,,,,,,,,,11,,,,74,112
137043,note_on,10,0,5,,,,,,,,,4,,,,60,100
137044,note_on,10,0,6,,,,,,,,,5,,,,48,100
137044,note_on,0,0,2,,,,,,,,,1,,,,81,100
137044,note_on,60,0,2,,,,,,,,,1,,,,75,100
137045,note_on,0,0,3,,,,,,,,,2,,,,72,101
137045,note_on,60,0,3,,,,,,,,,2,,,,69,101
137048,note_on,240,0,13,,,,,,,,,12,,,,72,0
137048,note_on,0,0,13,,,,,,,,,12,,,,74,112
137049,note_on,0,0,4,,,,,,,,,3,,,,57,100
137049,note_on,60,0,4,,,,,,,,,3,,,,63,100
137052,note_on,0,0,14,,,,,,,,,13,,,,62,112
137052,note_on,240,0,14,,,,,,,,,13,,,,60,0
137054,note_on,240,0,15,,,,,,,,,14,,,,48,0
137054,note_on,0,0,15,,,,,,,,,14,,,,50,112
137055,note_on,0,0,10,,,,,,,,,15,,,,48,94
137055,note_on,120,0,10,,,,,,,,,15,,,,48,0
137101,note_on,60,0,1,,,,,,,,,0,,,,84,0
137101,note_on,0,0,1,,,,,,,,,0,,,,87,0
137104,note_on,60,0,2,,,,,,,,,1,,,,81,0
137104,note_on,0,0,2,,,,,,,,,1,,,,75,0
137105,note_on,60,0,3,,,,,,,,,2,,,,72,0
137105,note_on,0,0,3,,,,,,,,,2,,,,69,0
137109,note_on,0,0,4,,,,,,,,,3,,,,63,0
137109,note_on,60,0,4,,,,,,,,,3,,,,57,0
137150,note_on,110,0,11,,,,,,,,,10,,,,74,0
137152,note_on,0,0,7,,,,,,,,,6,,,,72,0
137152,note_on,110,0,7,,,,,,,,,6,,,,60,0
137153,note_on,110,0,12,,,,,,,,,11,,,,74,0
137153,note_on,110,0,5,,,,,,,,,4,,,,60,0
137154,note_on,110,0,6,,,,,,,,,5,,,,48,0
137157,note_on,0,0,8,,,,,,,,,7,,,,63,0
137157,note_on,350,0,8,,,,,,,,,7,,,,57,0
137158,note_on,110,0,13,,,,,,,,,12,,,,74,0
137160,note_on,10,0,11,,,,,,,,,10,,,,75,112
137160,set_tempo,120,1,0,,,,,,254237,,,,,,,,
137161,control_change,0,0,1,,,,,,,,,0,11,93,,,
137161,note_on,0,0,1,,,,,,,,,0,,,,84,116
137161,note_on,60,0,1,,,,,,,,,0,,,,87,116
137162,note_on,110,0,14,,,,,,,,,13,,,,62,0
137162,note_on,0,0,7,,,,,,,,,6,,,,72,112
137162,note_on,10,0,7,,,,,,,,,6,,,,60,112
137163,note_on,10,0,5,,,,,,,,,4,,,,60,100
137163,note_on,10,0,12,,,,,,,,,11,,,,75,112
137163,note_on,350,0,9,,,,,,,,,8,,,,54,0
137164,note_on,110,0,15,,,,,,,,,14,,,,50,0
137164,note_on,60,0,2,,,,,,,,,1,,,,81,100
137164,note_on,0,0,2,,,,,,,,,1,,,,75,115
137164,note_on,10,0,6,,,,,,,,,5,,,,48,100
137164,control_change,0,0,2,,,,,,,,,1,11,93,,,
137165,note_on,0,0,3,,,,,,,,,2,,,,69,101
137165,note_on,0,0,3,,,,,,,,,2,,,,72,116
137165,control_change,60,0,3,,,,,,,,,2,11,93,,,
137167,note_on,10,0,8,,,,,,,,,7,,,,63,110
137167,note_on,0,0,8,,,,,,,,,7,,,,57,110
137168,note_on,10,0,13,,,,,,,,,12,,,,75,112
137169,note_on,60,0,4,,,,,,,,,3,,,,63,100
137169,note_on,0,0,4,,,,,,,,,3,,,,57,100
137172,note_on,10,0,14,,,,,,,,,13,,,,63,112
137173,note_on,10,0,9,,,,,,,,,8,,,,54,110
137174,note_on,10,0,15,,,,,,,,,14,,,,51,112
137175,note_on,120,0,10,,,,,,,,,15,,,,48,0
137175,note_on,0,0,10,,,,,,,,,15,,,,48,97
137191,note_on,30,0,1,,,,,,,,,0,,,,84,0
137191,note_on,0,0,1,,,,,,,,,0,,,,87,0
137194,note_on,30,0,2,,,,,,,,,1,,,,75,0
137195,note_on,30,0,3,,,,,,,,,2,,,,72,0
137221,note_on,0,0,1,,,,,,,,,0,,,,87,101
137221,note_on,30,0,1,,,,,,,,,0,,,,84,101
137224,note_on,30,0,2,,,,,,,,,1,,,,75,100
137225,note_on,0,0,3,,,,,,,,,2,,,,72,101
137225,note_on,30,0,3,,,,,,,,,2,,,,69,0
137229,note_on,0,0,4,,,,,,,,,3,,,,63,0
137229,note_on,60,0,4,,,,,,,,,3,,,,57,0
137251,note_on,0,0,1,,,,,,,,,0,,,,84,0
137251,note_on,30,0,1,,,,,,,,,0,,,,87,0
137254,note_on,30,0,2,,,,,,,,,1,,,,75,0
137255,note_on,30,0,3,,,,,,,,,2,,,,72,0
137272,note_on,110,0,7,,,,,,,,,6,,,,72,0
137272,note_on,0,0,7,,,,,,,,,6,,,,60,0
137273,note_on,110,0,5,,,,,,,,,4,,,,60,0
137274,note_on,110,0,6,,,,,,,,,5,,,,48,0
137280,set_tempo,120,1,0,,,,,,263158,,,,,,,,
137281,note_on,30,0,1,,,,,,,,,0,,,,89,101
137281,note_on,0,0,1,,,,,,,,,0,,,,86,101
137282,note_on,10,0,7,,,,,,,,,6,,,,60,112
137282,note_on,0,0,7,,,,,,,,,6,,,,72,112
137283,note_on,10,0,5,,,,,,,,,4,,,,60,100
137284,note_on,0,0,2,,,,,,,,,1,,,,77,100
137284,note_on,10,0,6,,,,,,,,,5,,,,48,100
137284,note_on,0,0,2,,,,,,,,,1,,,,81,100
137284,note_on,30,0,2,,,,,,,,,1,,,,81,0
137285,note_on,0,0,3,,,,,,,,,2,,,,74,101
137285,note_on,30,0,3,,,,,,,,,2,,,,69,101
137289,note_on,60,0,4,,,,,,,,,3,,,,57,100
137289,note_on,0,0,4,,,,,,,,,3,,,,63,100
137295,note_on,120,0,10,,,,,,,,,15,,,,48,0
137295,note_on,0,0,10,,,,,,,,,15,,,,48,100
137341,note_on,60,0,1,,,,,,,,,0,,,,86,0
137341,note_on,0,0,1,,,,,,,,,0,,,,84,101
137341,note_on,0,0,1,,,,,,,,,0,,,,87,101
137341,note_on,0,0,1,,,,,,,,,0,,,,89,0
137344,note_on,0,0,2,,,,,,,,,1,,,,75,100
137344,note_on,60,0,2,,,,,,,,,1,,,,77,0
137345,note_on,0,0,3,,,,,,,,,2,,,,72,101
137345,note_on,60,0,3,,,,,,,,,2,,,,74,0
137349,note_on,0,0,4,,,,,,,,,3,,,,57,0
137349,note_on,60,0,4,,,,,,,,,3,,,,63,0
137392,note_on,0,0,7,,,,,,,,,6,,,,60,0
137392,note_on,110,0,7,,,,,,,,,6,,,,72,0
137393,note_on,110,0,5,,,,,,,,,4,,,,60,0
137394,note_on,110,0,6,,,,,,,,,5,,,,48,0
137400,set_tempo,120,1,0,,,,,,288462,,,,,,,,
137400,note_on,0,0,11,,,,,,,,,10,,,,72,112
137400,note_on,240,0,11,,,,,,,,,10,,,,75,0
137401,note_on,0,0,1,,,,,,,,,0,,,,86,101
137401,note_on,0,0,1,,,,,,,,,0,,,,84,0
137401,note_on,0,0,1,,,,,,,,,0,,,,89,101
137401,note_on,60,0,1,,,,,,,,,0,,,,87,0
137402,note_on,0,0,7,,,,,,,,,6,,,,60,112
137402,note_on,10,0,7,,,,,,,,,6,,,,72,112
137403,note_on,10,0,5,,,,,,,,,4,,,,60,100
137403,note_on,0,0,12,,,,,,,,,11,,,,72,112
137403,note_on,240,0,12,,,,,,,,,11,,,,75,0
137404,note_on,0,0,2,,,,,,,,,1,,,,81,100
137404,note_on,0,0,2,,,,,,,,,1,,,,81,0
137404,note_on,60,0,2,,,,,,,,,1,,,,75,0
137404,note_on,10,0,6,,,,,,,,,5,,,,48,100
137404,note_on,0,0,2,,,,,,,,,1,,,,77,100
137405,note_on,0,0,3,,,,,,,,,2,,,,69,101
137405,note_on,60,0,3,,,,,,,,,2,,,,72,0
137405,note_on,0,0,3,,,,,,,,,2,,,,69,0
137405,note_on,0,0,3,,,,,,,,,2,,,,74,101
137408,note_on,240,0,13,,,,,,,,,12,,,,75,0
137408,note_on,0,0,13,,,,,,,,,12,,,,72,112
137409,note_on,0,0,4,,,,,,,,,3,,,,63,100
137409,note_on,60,0,4,,,,,,,,,3,,,,57,100
137412,note_on,0,0,14,,,,,,,,,13,,,,60,112
137412,note_on,240,0,14,,,,,,,,,13,,,,63,0
137414,note_on,0,0,15,,,,,,,,,14,,,,48,112
137414,note_on,240,0,15,,,,,,,,,14,,,,51,0
137415,note_on,0,0,10,,,,,,,,,15,,,,48,103
137415,note_on,120,0,10,,,,,,,,,15,,,,48,0
137461,note_on,60,0,1,,,,,,,,,0,,,,86,0
137461,note_on,0,0,1,,,,,,,,,0,,,,89,0
137461,note_on,0,0,1,,,,,,,,,0,,,,84,101
137461,note_on,0,0,1,,,,,,,,,0,,,,87,101
137464,note_on,0,0,2,,,,,,,,,1,,,,75,100
137464,note_on,60,0,2,,,,,,,,,1,,,,77,0
137465,note_on,60,0,3,,,,,,,,,2,,,,74,0
137465,note_on,0,0,3,,,,,,,,,2,,,,72,101
137469,note_on,0,0,4,,,,,,,,,3,,,,57,0
137469,note_on,60,0,4,,,,,,,,,3,,,,63,0
137510,note_on,110,0,11,,,,,,,,,10,,,,72,0
137512,note_on,110,0,7,,,,,,,,,6,,,,60,0
137512,note_on,0,0,7,,,,,,,,,6,,,,72,0
137513,note_on,110,0,12,,,,,,,,,11,,,,72,0
137513,note_on,110,0,5,,,,,,,,,4,,,,60,0
137514,note_on,110,0,6,,,,,,,,,5,,,,48,0
137517,note_on,350,0,8,,,,,,,,,7,,,,57,0
137517,note_on,0,0,8,,,,,,,,,7,,,,63,0
137518,note_on,110,0,13,,,,,,,,,12,,,,72,0
137520,set_tempo,120,1,0,,,,,,254237,,,,,,,,
137520,note_on,10,0,11,,,,,,,,,10,,,,69,112
137521,note_on,0,0,1,,,,,,,,,0,,,,84,0
137521,note_on,0,0,1,,,,,,,,,0,,,,87,101
137521,control_change,0,0,1,,,,,,,,,0,11,86,,,
137521,note_on,60,0,1,,,,,,,,,0,,,,87,0
137521,note_on,0,0,1,,,,,,,,,0,,,,84,101
137522,note_on,110,0,14,,,,,,,,,13,,,,60,0
137522,note_on,10,0,7,,,,,,,,,6,,,,72,112
137522,note_on,0,0,7,,,,,,,,,6,,,,60,112
137523,note_on,10,0,12,,,,,,,,,11,,,,69,112
137523,note_on,350,0,9,,,,,,,,,8,,,,54,0
137523,note_on,10,0,5,,,,,,,,,4,,,,60,100
137524,note_on,0,0,2,,,,,,,,,1,,,,75,100
137524,note_on,0,0,2,,,,,,,,,1,,,,81,0
137524,note_on,60,0,2,,,,,,,,,1,,,,75,0
137524,note_on,10,0,6,,,,,,,,,5,,,,48,100
137524,note_on,110,0,15,,,,,,,,,14,,,,48,0
137524,control_change,0,0,2,,,,,,,,,1,11,86,,,
137524,note_on,0,0,2,,,,,,,,,1,,,,81,100
137525,control_change,0,0,3,,,,,,,,,2,11,93,,,
137525,note_on,0,0,3,,,,,,,,,2,,,,72,101
137525,note_on,0,0,3,,,,,,,,,2,,,,75,101
137525,note_on,60,0,3,,,,,,,,,2,,,,72,0
137525,note_on,0,0,3,,,,,,,,,2,,,,69,0
137527,note_on,10,0,8,,,,,,,,,7,,,,57,110
137527,note_on,0,0,8,,,,,,,,,7,,,,63,110
137528,note_on,10,0,13,,,,,,,,,12,,,,69,112
137529,note_on,60,0,4,,,,,,,,,3,,,,60,100
137529,note_on,0,0,4,,,,,,,,,3,,,,63,100
137532,note_on,10,0,14,,,,,,,,,13,,,,57,112
137533,note_on,10,0,9,,,,,,,,,8,,,,54,110
137534,note_on,10,0,15,,,,,,,,,14,,,,45,112
137535,note_on,0,0,10,,,,,,,,,15,,,,48,106
137535,note_on,120,0,10,,,,,,,,,15,,,,48,0
137555,note_on,30,0,3,,,,,,,,,2,,,,72,0
137555,note_on,0,0,3,,,,,,,,,2,,,,75,0
137559,note_on,30,0,4,,,,,,,,,3,,,,63,0
137559,note_on,0,0,4,,,,,,,,,3,,,,60,0
137581,note_on,60,0,1,,,,,,,,,0,,,,84,0
137581,note_on,0,0,1,,,,,,,,,0,,,,87,0
137584,note_on,0,0,2,,,,,,,,,1,,,,75,0
137584,note_on,60,0,2,,,,,,,,,1,,,,81,0
137585,note_on,0,0,3,,,,,,,,,2,,,,72,101
137585,note_on,30,0,3,,,,,,,,,2,,,,75,101
137589,note_on,0,0,4,,,,,,,,,3,,,,63,100
137589,note_on,30,0,4,,,,,,,,,3,,,,60,100
137615,note_on,30,0,3,,,,,,,,,2,,,,72,0
137615,note_on,0,0,3,,,,,,,,,2,,,,75,0
137619,note_on,30,0,4,,,,,,,,,3,,,,63,0
137619,note_on,0,0,4,,,,,,,,,3,,,,60,0
137632,note_on,110,0,7,,,,,,,,,6,,,,60,0
137632,note_on,0,0,7,,,,,,,,,6,,,,72,0
137633,note_on,110,0,5,,,,,,,,,4,,,,60,0
137634,note_on,110,0,6,,,,,,,,,5,,,,48,0
137640,set_tempo,120,1,0,,,,,,263158,,,,,,,,
137641,note_on,60,0,1,,,,,,,,,0,,,,87,101
137641,note_on,0,0,1,,,,,,,,,0,,,,84,101
137642,note_on,10,0,7,,,,,,,,,6,,,,60,112
137642,note_on,0,0,7,,,,,,,,,6,,,,72,112
137643,note_on,10,0,5,,,,,,,,,4,,,,60,100
137644,note_on,60,0,2,,,,,,,,,1,,,,81,100
137644,note_on,10,0,6,,,,,,,,,5,,,,48,100
137644,note_on,0,0,2,,,,,,,,,1,,,,75,100
137645,note_on,30,0,3,,,,,,,,,2,,,,78,101
137645,note_on,0,0,3,,,,,,,,,2,,,,74,101
137649,note_on,0,0,4,,,,,,,,,3,,,,62,100
137649,note_on,30,0,4,,,,,,,,,3,,,,66,100
137655,note_on,120,0,10,,,,,,,,,15,,,,48,0
137655,note_on,0,0,10,,,,,,,,,15,,,,48,109
137701,note_on,0,0,1,,,,,,,,,0,,,,87,0
137701,note_on,60,0,1,,,,,,,,,0,,,,84,0
137704,note_on,60,0,2,,,,,,,,,1,,,,75,0
137704,note_on,0,0,2,,,,,,,,,1,,,,81,0
137705,note_on,0,0,3,,,,,,,,,2,,,,72,101
137705,note_on,0,0,3,,,,,,,,,2,,,,75,101
137705,note_on,60,0,3,,,,,,,,,2,,,,74,0
137705,note_on,0,0,3,,,,,,,,,2,,,,78,0
137709,note_on,0,0,4,,,,,,,,,3,,,,63,100
137709,note_on,60,0,4,,,,,,,,,3,,,,62,0
137709,note_on,0,0,4,,,,,,,,,3,,,,66,0
137709,note_on,0,0,4,,,,,,,,,3,,,,60,100
137752,note_on,110,0,7,,,,,,,,,6,,,,72,0
137752,note_on,0,0,7,,,,,,,,,6,,,,60,0
137753,note_on,110,0,5,,,,,,,,,4,,,,60,0
137754,note_on,110,0,6,,,,,,,,,5,,,,48,0
137760,note_on,240,0,11,,,,,,,,,10,,,,69,0
137760,note_on,0,0,11,,,,,,,,,10,,,,66,112
137760,set_tempo,120,1,0,,,,,,288462,,,,,,,,
137761,note_on,60,0,1,,,,,,,,,0,,,,84,101
137761,note_on,0,0,1,,,,,,,,,0,,,,87,101
137762,note_on,10,0,7,,,,,,,,,6,,,,60,112
137762,note_on,0,0,7,,,,,,,,,6,,,,72,112
137763,note_on,240,0,12,,,,,,,,,11,,,,69,0
137763,note_on,10,0,5,,,,,,,,,4,,,,60,100
137763,note_on,0,0,12,,,,,,,,,11,,,,66,112
137764,note_on,60,0,2,,,,,,,,,1,,,,81,100
137764,note_on,10,0,6,,,,,,,,,5,,,,48,100
137764,note_on,0,0,2,,,,,,,,,1,,,,75,100
137765,note_on,0,0,3,,,,,,,,,2,,,,72,0
137765,note_on,0,0,3,,,,,,,,,2,,,,78,101
137765,note_on,0,0,3,,,,,,,,,2,,,,74,101
137765,note_on,60,0,3,,,,,,,,,2,,,,75,0
137768,note_on,0,0,13,,,,,,,,,12,,,,66,112
137768,note_on,240,0,13,,,,,,,,,12,,,,69,0
137769,note_on,0,0,4,,,,,,,,,3,,,,60,0
137769,note_on,60,0,4,,,,,,,,,3,,,,63,0
137769,note_on,0,0,4,,,,,,,,,3,,,,62,100
137769,note_on,0,0,4,,,,,,,,,3,,,,66,100
137772,note_on,240,0,14,,,,,,,,,13,,,,57,0
137772,note_on,0,0,14,,,,,,,,,13,,,,54,112
137774,note_on,240,0,15,,,,,,,,,14,,,,45,0
137774,note_on,0,0,15,,,,,,,,,14,,,,42,112
137775,note_on,0,0,10,,,,,,,,,15,,,,48,112
137775,note_on,120,0,10,,,,,,,,,15,,,,48,0
137821,note_on,0,0,1,,,,,,,,,0,,,,84,0
137821,note_on,60,0,1,,,,,,,,,0,,,,87,0
137824,note_on,60,0,2,,,,,,,,,1,,,,75,0
137824,note_on,0,0,2,,,,,,,,,1,,,,81,0
137825,note_on,0,0,3,,,,,,,,,2,,,,74,0
137825,note_on,0,0,3,,,,,,,,,2,,,,72,101
137825,note_on,60,0,3,,,,,,,,,2,,,,78,0
137825,note_on,0,0,3,,,,,,,,,2,,,,75,101
137829,note_on,0,0,4,,,,,,,,,3,,,,66,0
137829,note_on,60,0,4,,,,,,,,,3,,,,62,0
137829,note_on,0,0,4,,,,,,,,,3,,,,60,100
137829,note_on,0,0,4,,,,,,,,,3,,,,63,100
137870,note_on,110,0,11,,,,,,,,,10,,,,66,0
137872,note_on,110,0,7,,,,,,,,,6,,,,72,0
137872,note_on,0,0,7,,,,,,,,,6,,,,60,0
137873,note_on,110,0,5,,,,,,,,,4,,,,60,0
137873,note_on,110,0,12,,,,,,,,,11,,,,66,0
137874,note_on,110,0,6,,,,,,,,,5,,,,48,0
137877,note_on,0,0,8,,,,,,,,,7,,,,57,0
137877,note_on,350,0,8,,,,,,,,,7,,,,63,0
137878,note_on,110,0,13,,,,,,,,,12,,,,66,0
137880,note_on,10,0,11,,,,,,,,,10,,,,67,112
137880,set_tempo,120,1,0,,,,,,254237,,,,,,,,
137881,note_on,60,0,1,,,,,,,,,0,,,,86,101
137881,note_on,0,0,1,,,,,,,,,0,,,,83,101
137882,note_on,10,0,7,,,,,,,,,6,,,,67,112
137882,note_on,0,0,7,,,,,,,,,6,,,,55,112
137882,note_on,110,0,14,,,,,,,,,13,,,,54,0
137883,note_on,350,0,9,,,,,,,,,8,,,,54,0
137883,note_on,10,0,12,,,,,,,,,11,,,,67,112
137883,note_on,10,0,5,,,,,,,,,4,,,,55,100
137884,note_on,110,0,15,,,,,,,,,14,,,,42,0
137884,note_on,10,0,6,,,,,,,,,5,,,,43,100
137884,note_on,0,0,2,,,,,,,,,1,,,,74,100
137884,note_on,60,0,2,,,,,,,,,1,,,,83,100
137885,control_change,0,0,3,,,,,,,,,2,11,86,,,
137885,note_on,0,0,3,,,,,,,,,2,,,,74,101
137885,note_on,0,0,3,,,,,,,,,2,,,,71,101
137885,note_on,0,0,3,,,,,,,,,2,,,,72,0
137885,note_on,60,0,3,,,,,,,,,2,,,,75,0
137887,note_on,10,0,8,,,,,,,,,7,,,,62,110
137887,note_on,0,0,8,,,,,,,,,7,,,,59,110
137888,note_on,10,0,13,,,,,,,,,12,,,,67,112
137889,control_change,0,0,4,,,,,,,,,3,11,97,,,
137889,note_on,60,0,4,,,,,,,,,3,,,,60,0
137889,note_on,0,0,4,,,,,,,,,3,,,,63,0
137889,note_on,0,0,4,,,,,,,,,3,,,,59,100
137889,note_on,0,0,4,,,,,,,,,3,,,,62,100
137892,note_on,10,0,14,,,,,,,,,13,,,,55,112
137893,note_on,10,0,9,,,,,,,,,8,,,,55,110
137894,note_on,10,0,15,,,,,,,,,14,,,,43,112
137895,note_on,0,0,10,,,,,,,,,15,,,,43,115
137895,note_on,120,0,10,,,,,,,,,15,,,,48,0
137910,note_on,30,0,11,,,,,,,,,10,,,,67,0
137913,note_on,30,0,12,,,,,,,,,11,,,,67,0
137918,note_on,30,0,13,,,,,,,,,12,,,,67,0
137922,note_on,30,0,14,,,,,,,,,13,,,,55,0
137924,note_on,30,0,15,,,,,,,,,14,,,,43,0
137940,note_on,30,0,11,,,,,,,,,10,,,,67,112
137943,note_on,30,0,12,,,,,,,,,11,,,,67,112
137948,note_on,30,0,13,,,,,,,,,12,,,,67,112
137952,note_on,30,0,14,,,,,,,,,13,,,,55,112
137954,note_on,30,0,15,,,,,,,,,14,,,,43,112
137970,note_on,30,0,11,,,,,,,,,10,,,,67,0
137973,note_on,30,0,12,,,,,,,,,11,,,,67,0
137978,note_on,30,0,13,,,,,,,,,12,,,,67,0
137982,note_on,30,0,14,,,,,,,,,13,,,,55,0
137984,note_on,30,0,15,,,,,,,,,14,,,,43,0
138000,note_on,30,0,11,,,,,,,,,10,,,,69,112
138000,set_tempo,120,1,0,,,,,,263158,,,,,,,,
138001,note_on,0,0,1,,,,,,,,,0,,,,86,0
138001,note_on,120,0,1,,,,,,,,,0,,,,83,0
138002,note_on,120,0,7,,,,,,,,,6,,,,55,0
138002,note_on,0,0,7,,,,,,,,,6,,,,67,0
138003,note_on,120,0,5,,,,,,,,,4,,,,55,0
138003,note_on,30,0,12,,,,,,,,,11,,,,69,112
138004,note_on,120,0,6,,,,,,,,,5,,,,43,0
138004,note_on,120,0,2,,,,,,,,,1,,,,74,0
138004,note_on,0,0,2,,,,,,,,,1,,,,83,0
138005,note_on,120,0,3,,,,,,,,,2,,,,74,0
138005,note_on,0,0,3,,,,,,,,,2,,,,71,0
138007,note_on,120,0,8,,,,,,,,,7,,,,59,0
138007,note_on,0,0,8,,,,,,,,,7,,,,62,0
138008,note_on,30,0,13,,,,,,,,,12,,,,69,112
138009,note_on,120,0,4,,,,,,,,,3,,,,62,0
138009,note_on,0,0,4,,,,,,,,,3,,,,59,0
138012,note_on,30,0,14,,,,,,,,,13,,,,57,112
138013,note_on,120,0,9,,,,,,,,,8,,,,55,0
138014,note_on,30,0,15,,,,,,,,,14,,,,45,112
138015,note_on,120,0,10,,,,,,,,,15,,,,43,0
138030,note_on,30,0,11,,,,,,,,,10,,,,69,0
138033,note_on,30,0,12,,,,,,,,,11,,,,69,0
138038,note_on,30,0,13,,,,,,,,,12,,,,69,0
138042,note_on,30,0,14,,,,,,,,,13,,,,57,0
138044,note_on,30,0,15,,,,,,,,,14,,,,45,0
138060,note_on,30,0,11,,,,,,,,,10,,,,67,112
138063,note_on,30,0,12,,,,,,,,,11,,,,67,112
138068,note_on,30,0,13,,,,,,,,,12,,,,67,112
138072,note_on,30,0,14,,,,,,,,,13,,,,55,112
138074,note_on,30,0,15,,,,,,,,,14,,,,43,112
138090,note_on,30,0,11,,,,,,,,,10,,,,67,0
138093,note_on,30,0,12,,,,,,,,,11,,,,67,0
138098,note_on,30,0,13,,,,,,,,,12,,,,67,0
138102,note_on,30,0,14,,,,,,,,,13,,,,55,0
138104,note_on,30,0,15,,,,,,,,,14,,,,43,0
138120,set_tempo,120,1,0,,,,,,288462,,,,,,,,
138120,note_on,30,0,11,,,,,,,,,10,,,,69,112
138123,note_on,30,0,12,,,,,,,,,11,,,,69,112
138128,note_on,30,0,13,,,,,,,,,12,,,,69,112
138132,note_on,30,0,14,,,,,,,,,13,,,,57,112
138134,note_on,30,0,15,,,,,,,,,14,,,,45,112
138150,note_on,30,0,11,,,,,,,,,10,,,,69,0
138153,note_on,30,0,12,,,,,,,,,11,,,,69,0
138158,note_on,30,0,13,,,,,,,,,12,,,,69,0
138162,note_on,30,0,14,,,,,,,,,13,,,,57,0
138164,note_on,30,0,15,,,,,,,,,14,,,,45,0
138180,note_on,30,0,11,,,,,,,,,10,,,,67,112
138183,note_on,30,0,12,,,,,,,,,11,,,,67,112
138188,note_on,30,0,13,,,,,,,,,12,,,,67,112
138192,note_on,30,0,14,,,,,,,,,13,,,,55,112
138194,note_on,30,0,15,,,,,,,,,14,,,,43,112
138210,note_on,30,0,11,,,,,,,,,10,,,,67,0
138213,note_on,30,0,12,,,,,,,,,11,,,,67,0
138218,note_on,30,0,13,,,,,,,,,12,,,,67,0
138222,note_on,30,0,14,,,,,,,,,13,,,,55,0
138224,note_on,30,0,15,,,,,,,,,14,,,,43,0
138240,note_on,30,0,11,,,,,,,,,10,,,,55,112
138240,set_tempo,120,1,0,,,,,,254237,,,,,,,,
138241,note_on,240,0,1,,,,,,,,,0,,,,93,116
138243,note_on,30,0,12,,,,,,,,,11,,,,55,112
138244,note_on,240,0,2,,,,,,,,,1,,,,81,115
138244,note_on,0,0,2,,,,,,,,,1,,,,72,115
138245,note_on,0,0,3,,,,,,,,,2,,,,72,116
138245,note_on,240,0,3,,,,,,,,,2,,,,81,116
138247,note_on,240,0,8,,,,,,,,,7,,,,62,110
138248,note_on,30,0,13,,,,,,,,,12,,,,55,112
138249,note_on,240,0,4,,,,,,,,,3,,,,66,115
138252,note_on,30,0,14,,,,,,,,,13,,,,43,112
138253,note_on,240,0,9,,,,,,,,,8,,,,55,110
138254,note_on,30,0,15,,,,,,,,,14,,,,31,112
138301,note_on,0,0,1,,,,,,,,,0,,,,91,101
138301,note_on,60,0,1,,,,,,,,,0,,,,93,0
138304,note_on,60,0,2,,,,,,,,,1,,,,81,0
138304,note_on,0,0,2,,,,,,,,,1,,,,79,100
138305,note_on,0,0,3,,,,,,,,,2,,,,79,101
138305,note_on,60,0,3,,,,,,,,,2,,,,81,0
138357,note_on,110,0,8,,,,,,,,,7,,,,62,0
138360,note_on,120,0,11,,,,,,,,,10,,,,55,0
138360,set_tempo,120,1,0,,,,,,263158,,,,,,,,
138361,note_on,0,0,1,,,,,,,,,0,,,,90,101
138361,note_on,60,0,1,,,,,,,,,0,,,,91,0
138363,note_on,110,0,9,,,,,,,,,8,,,,55,0
138363,note_on,120,0,12,,,,,,,,,11,,,,55,0
138364,note_on,60,0,2,,,,,,,,,1,,,,79,0
138364,note_on,0,0,2,,,,,,,,,1,,,,72,0
138364,note_on,0,0,2,,,,,,,,,1,,,,78,100
138364,note_on,0,0,2,,,,,,,,,1,,,,72,100
138365,note_on,0,0,3,,,,,,,,,2,,,,72,101
138365,note_on,0,0,3,,,,,,,,,2,,,,78,101
138365,note_on,0,0,3,,,,,,,,,2,,,,72,0
138365,note_on,60,0,3,,,,,,,,,2,,,,79,0
138367,note_on,10,0,8,,,,,,,,,7,,,,62,110
138368,note_on,120,0,13,,,,,,,,,12,,,,55,0
138369,note_on,0,0,4,,,,,,,,,3,,,,66,100
138369,note_on,120,0,4,,,,,,,,,3,,,,66,0
138372,note_on,120,0,14,,,,,,,,,13,,,,43,0
138373,note_on,10,0,9,,,,,,,,,8,,,,55,110
138374,note_on,120,0,15,,,,,,,,,14,,,,31,0
138421,note_on,0,0,1,,,,,,,,,0,,,,88,101
138421,note_on,60,0,1,,,,,,,,,0,,,,90,0
138424,note_on,0,0,2,,,,,,,,,1,,,,76,100
138424,note_on,60,0,2,,,,,,,,,1,,,,78,0
138425,note_on,60,0,3,,,,,,,,,2,,,,78,0
138425,note_on,0,0,3,,,,,,,,,2,,,,76,101
138477,note_on,110,0,8,,,,,,,,,7,,,,62,0
138480,set_tempo,120,1,0,,,,,,288462,,,,,,,,
138481,note_on,0,0,1,,,,,,,,,0,,,,86,101
138481,note_on,60,0,1,,,,,,,,,0,,,,88,0
138483,note_on,110,0,9,,,,,,,,,8,,,,55,0
138484,note_on,60,0,2,,,,,,,,,1,,,,76,0
138484,note_on,0,0,2,,,,,,,,,1,,,,72,0
138484,note_on,0,0,2,,,,,,,,,1,,,,74,100
138484,note_on,0,0,2,,,,,,,,,1,,,,72,100
138485,note_on,0,0,3,,,,,,,,,2,,,,74,101
138485,note_on,60,0,3,,,,,,,,,2,,,,76,0
138485,note_on,0,0,3,,,,,,,,,2,,,,72,0
138485,note_on,0,0,3,,,,,,,,,2,,,,72,101
138487,note_on,10,0,8,,,,,,,,,7,,,,62,110
138489,note_on,120,0,4,,,,,,,,,3,,,,66,0
138489,note_on,0,0,4,,,,,,,,,3,,,,66,100
138493,note_on,10,0,9,,,,,,,,,8,,,,55,110
138541,note_on,60,0,1,,,,,,,,,0,,,,86,0
138544,note_on,0,0,2,,,,,,,,,1,,,,74,0
138544,note_on,60,0,2,,,,,,,,,1,,,,72,0
138545,note_on,60,0,3,,,,,,,,,2,,,,72,0
138545,note_on,0,0,3,,,,,,,,,2,,,,74,0
138549,note_on,60,0,4,,,,,,,,,3,,,,66,0
138597,note_on,110,0,8,,,,,,,,,7,,,,62,0
138600,set_tempo,120,1,0,,,,,,254237,,,,,,,,
138600,note_on,0,0,11,,,,,,,,,10,,,,67,112
138600,control_change,240,0,11,,,,,,,,,10,11,122,,,
138601,note_on,60,0,1,,,,,,,,,0,,,,86,101
138602,note_on,600,0,7,,,,,,,,,6,,,,67,112
138602,note_on,0,0,7,,,,,,,,,6,,,,55,112
138603,control_change,0,0,12,,,,,,,,,11,11,122,,,
138603,note_on,600,0,5,,,,,,,,,4,,,,62,100
138603,note_on,110,0,9,,,,,,,,,8,,,,55,0
138603,note_on,240,0,12,,,,,,,,,11,,,,67,112
138604,note_on,60,0,2,,,,,,,,,1,,,,71,100
138604,note_on,0,0,2,,,,,,,,,1,,,,74,100
138604,note_on,600,0,6,,,,,,,,,5,,,,55,100
138605,note_on,0,0,3,,,,,,,,,2,,,,74,101
138605,note_on,60,0,3,,,,,,,,,2,,,,71,101
138607,note_on,10,0,8,,,,,,,,,7,,,,62,110
138608,control_change,0,0,13,,,,,,,,,12,11,122,,,
138608,note_on,240,0,13,,,,,,,,,12,,,,67,112
138608,control_change,8,0,11,,,,,,,,,10,11,119,,,
138609,note_on,60,0,4,,,,,,,,,3,,,,67,100
138611,control_change,8,0,12,,,,,,,,,11,11,119,,,
138612,control_change,0,0,14,,,,,,,,,13,11,122,,,
138612,note_on,240,0,14,,,,,,,,,13,,,,55,112
138613,note_on,10,0,9,,,,,,,,,8,,,,55,110
138614,control_change,240,0,15,,,,,,,,,14,11,122,,,
138614,note_on,0,0,15,,,,,,,,,14,,,,43,112
138615,note_on,600,0,10,,,,,,,,,15,,,,43,100
138616,control_change,8,0,13,,,,,,,,,12,11,119,,,
138617,control_change,9,0,11,,,,,,,,,10,11,116,,,
138620,control_change,8,0,14,,,,,,,,,13,11,119,,,
138620,control_change,9,0,12,,,,,,,,,11,11,116,,,
138622,control_change,8,0,15,,,,,,,,,14,11,119,,,
138625,control_change,9,0,13,,,,,,,,,12,11,116,,,
138626,control_change,9,0,11,,,,,,,,,10,11,113,,,
138629,control_change,9,0,14,,,,,,,,,13,11,116,,,
138629,control_change,9,0,12,,,,,,,,,11,11,113,,,
138630,note_on,4,0,11,,,,,,,,,10,,,,67,0
138631,control_change,9,0,15,,,,,,,,,14,11,116,,,
138633,note_on,4,0,12,,,,,,,,,11,,,,67,0
138634,control_change,9,0,13,,,,,,,,,12,11,113,,,
138635,control_change,5,0,11,,,,,,,,,10,11,110,,,
138638,note_on,4,0,13,,,,,,,,,12,,,,67,0
138638,control_change,9,0,14,,,,,,,,,13,11,113,,,
138638,control_change,5,0,12,,,,,,,,,11,11,110,,,
138640,control_change,9,0,15,,,,,,,,,14,11,113,,,
138642,note_on,4,0,14,,,,,,,,,13,,,,55,0
138643,control_change,5,0,13,,,,,,,,,12,11,110,,,
138644,control_change,9,0,11,,,,,,,,,10,11,107,,,
138644,note_on,4,0,15,,,,,,,,,14,,,,43,0
138647,control_change,5,0,14,,,,,,,,,13,11,110,,,
138647,control_change,9,0,12,,,,,,,,,11,11,107,,,
138649,control_change,5,0,15,,,,,,,,,14,11,110,,,
138652,control_change,9,0,13,,,,,,,,,12,11,107,,,
138653,control_change,9,0,11,,,,,,,,,10,11,104,,,
138656,control_change,9,0,14,,,,,,,,,13,11,107,,,
138656,control_change,9,0,12,,,,,,,,,11,11,104,,,
138658,control_change,9,0,15,,,,,,,,,14,11,107,,,
138660,note_on,7,0,11,,,,,,,,,10,,,,67,112
138661,note_on,60,0,1,,,,,,,,,0,,,,86,0
138661,control_change,9,0,13,,,,,,,,,12,11,104,,,
138663,note_on,7,0,12,,,,,,,,,11,,,,67,112
138664,note_on,60,0,2,,,,,,,,,1,,,,74,0
138664,note_on,0,0,2,,,,,,,,,1,,,,71,0
138665,note_on,0,0,3,,,,,,,,,2,,,,71,0
138665,note_on,60,0,3,,,,,,,,,2,,,,74,0
138665,control_change,9,0,14,,,,,,,,,13,11,104,,,
138667,control_change,9,0,15,,,,,,,,,14,11,104,,,
138668,note_on,7,0,13,,,,,,,,,12,,,,67,112
138669,note_on,60,0,4,,,,,,,,,3,,,,67,0
138672,note_on,7,0,14,,,,,,,,,13,,,,55,112
138674,note_on,7,0,15,,,,,,,,,14,,,,43,112
138690,note_on,30,0,11,,,,,,,,,10,,,,67,0
138693,note_on,30,0,12,,,,,,,,,11,,,,67,0
138698,note_on,30,0,13,,,,,,,,,12,,,,67,0
138702,note_on,30,0,14,,,,,,,,,13,,,,55,0
138704,note_on,30,0,15,,,,,,,,,14,,,,43,0
138713,note_on,110,0,5,,,,,,,,,4,,,,62,0
138714,note_on,110,0,6,,,,,,,,,5,,,,55,0
138720,note_on,30,0,11,,,,,,,,,10,,,,69,112
138720,set_tempo,120,1,0,,,,,,263158,,,,,,,,
138722,note_on,0,0,7,,,,,,,,,6,,,,67,0
138722,note_on,120,0,7,,,,,,,,,6,,,,55,0
138723,note_on,10,0,5,,,,,,,,,4,,,,62,100
138723,note_on,30,0,12,,,,,,,,,11,,,,69,112
138724,note_on,10,0,6,,,,,,,,,5,,,,55,100
138727,note_on,120,0,8,,,,,,,,,7,,,,62,0
138728,note_on,30,0,13,,,,,,,,,12,,,,69,112
138732,note_on,30,0,14,,,,,,,,,13,,,,57,112
138733,note_on,120,0,9,,,,,,,,,8,,,,55,0
138734,note_on,30,0,15,,,,,,,,,14,,,,45,112
138735,note_on,120,0,10,,,,,,,,,15,,,,43,0
138750,note_on,30,0,11,,,,,,,,,10,,,,69,0
138753,note_on,30,0,12,,,,,,,,,11,,,,69,0
138758,note_on,30,0,13,,,,,,,,,12,,,,69,0
138762,note_on,30,0,14,,,,,,,,,13,,,,57,0
138764,note_on,30,0,15,,,,,,,,,14,,,,45,0
138780,note_on,30,0,11,,,,,,,,,10,,,,67,112
138783,note_on,30,0,12,,,,,,,,,11,,,,67,112
138788,note_on,30,0,13,,,,,,,,,12,,,,67,112
138792,note_on,30,0,14,,,,,,,,,13,,,,55,112
138794,note_on,30,0,15,,,,,,,,,14,,,,43,112
138810,note_on,30,0,11,,,,,,,,,10,,,,67,0
138813,note_on,30,0,12,,,,,,,,,11,,,,67,0
138818,note_on,30,0,13,,,,,,,,,12,,,,67,0
138822,note_on,30,0,14,,,,,,,,,13,,,,55,0
138824,note_on,30,0,15,,,,,,,,,14,,,,43,0
138833,note_on,110,0,5,,,,,,,,,4,,,,62,0
138834,note_on,110,0,6,,,,,,,,,5,,,,55,0
138840,note_on,30,0,11,,,,,,,,,10,,,,69,112
138840,set_tempo,120,1,0,,,,,,288462,,,,,,,,
138843,note_on,30,0,12,,,,,,,,,11,,,,69,112
138843,note_on,10,0,5,,,,,,,,,4,,,,62,100
138844,note_on,10,0,6,,,,,,,,,5,,,,55,100
138848,note_on,30,0,13,,,,,,,,,12,,,,69,112
138852,note_on,30,0,14,,,,,,,,,13,,,,57,112
138854,note_on,30,0,15,,,,,,,,,14,,,,45,112
138870,note_on,30,0,11,,,,,,,,,10,,,,69,0
138873,note_on,30,0,12,,,,,,,,,11,,,,69,0
138878,note_on,30,0,13,,,,,,,,,12,,,,69,0
138882,note_on,30,0,14,,,,,,,,,13,,,,57,0
138884,note_on,30,0,15,,,,,,,,,14,,,,45,0
138900,note_on,30,0,11,,,,,,,,,10,,,,67,112
138903,note_on,30,0,12,,,,,,,,,11,,,,67,112
138908,note_on,30,0,13,,,,,,,,,12,,,,67,112
138912,note_on,30,0,14,,,,,,,,,13,,,,55,112
138914,note_on,30,0,15,,,,,,,,,14,,,,43,112
138930,note_on,30,0,11,,,,,,,,,10,,,,67,0
138933,note_on,30,0,12,,,,,,,,,11,,,,67,0
138938,note_on,30,0,13,,,,,,,,,12,,,,67,0
138942,note_on,30,0,14,,,,,,,,,13,,,,55,0
138944,note_on,30,0,15,,,,,,,,,14,,,,43,0
138953,note_on,110,0,5,,,,,,,,,4,,,,62,0
138954,note_on,110,0,6,,,,,,,,,5,,,,55,0
138960,set_tempo,120,1,0,,,,,,254237,,,,,,,,
138960,note_on,30,0,11,,,,,,,,,10,,,,55,112
138961,note_on,300,0,1,,,,,,,,,0,,,,93,116
138963,note_on,10,0,5,,,,,,,,,4,,,,62,100
138963,note_on,30,0,12,,,,,,,,,11,,,,55,112
138964,note_on,10,0,6,,,,,,,,,5,,,,55,100
138964,note_on,0,0,2,,,,,,,,,1,,,,72,115
138964,note_on,300,0,2,,,,,,,,,1,,,,81,115
138965,note_on,300,0,3,,,,,,,,,2,,,,72,116
138965,note_on,0,0,3,,,,,,,,,2,,,,81,116
138967,note_on,240,0,8,,,,,,,,,7,,,,62,110
138968,note_on,30,0,13,,,,,,,,,12,,,,55,112
138969,note_on,300,0,4,,,,,,,,,3,,,,66,115
138972,note_on,30,0,14,,,,,,,,,13,,,,43,112
138973,note_on,240,0,9,,,,,,,,,8,,,,55,110
138974,note_on,30,0,15,,,,,,,,,14,,,,31,112
139021,note_on,0,0,1,,,,,,,,,0,,,,91,101
139021,note_on,60,0,1,,,,,,,,,0,,,,93,0
139024,note_on,60,0,2,,,,,,,,,1,,,,81,0
139024,note_on,0,0,2,,,,,,,,,1,,,,79,100
139025,note_on,0,0,3,,,,,,,,,2,,,,79,101
139025,note_on,60,0,3,,,,,,,,,2,,,,81,0
139077,note_on,110,0,8,,,,,,,,,7,,,,62,0
139080,set_tempo,120,1,0,,,,,,263158,,,,,,,,
139080,note_on,120,0,11,,,,,,,,,10,,,,55,0
139081,note_on,60,0,1,,,,,,,,,0,,,,91,0
139081,note_on,0,0,1,,,,,,,,,0,,,,90,101
139083,note_on,120,0,5,,,,,,,,,4,,,,62,0
139083,note_on,110,0,9,,,,,,,,,8,,,,55,0
139083,note_on,120,0,12,,,,,,,,,11,,,,55,0
139084,note_on,0,0,2,,,,,,,,,1,,,,72,100
139084,note_on,0,0,2,,,,,,,,,1,,,,72,0
139084,note_on,60,0,2,,,,,,,,,1,,,,79,0
139084,note_on,0,0,2,,,,,,,,,1,,,,78,100
139084,note_on,120,0,6,,,,,,,,,5,,,,55,0
139085,note_on,0,0,3,,,,,,,,,2,,,,78,101
139085,note_on,0,0,3,,,,,,,,,2,,,,72,0
139085,note_on,0,0,3,,,,,,,,,2,,,,72,101
139085,note_on,60,0,3,,,,,,,,,2,,,,79,0
139087,note_on,10,0,8,,,,,,,,,7,,,,62,110
139088,note_on,120,0,13,,,,,,,,,12,,,,55,0
139089,note_on,0,0,4,,,,,,,,,3,,,,66,100
139089,note_on,120,0,4,,,,,,,,,3,,,,66,0
139092,note_on,120,0,14,,,,,,,,,13,,,,43,0
139093,note_on,10,0,9,,,,,,,,,8,,,,55,110
139094,note_on,120,0,15,,,,,,,,,14,,,,31,0
139141,note_on,0,0,1,,,,,,,,,0,,,,88,101
139141,note_on,60,0,1,,,,,,,,,0,,,,90,0
139144,note_on,60,0,2,,,,,,,,,1,,,,78,0
139144,note_on,0,0,2,,,,,,,,,1,,,,76,100
139145,note_on,60,0,3,,,,,,,,,2,,,,78,0
139145,note_on,0,0,3,,,,,,,,,2,,,,76,101
139197,note_on,110,0,8,,,,,,,,,7,,,,62,0
139200,set_tempo,120,1,0,,,,,,288462,,,,,,,,
139201,note_on,0,0,1,,,,,,,,,0,,,,86,101
139201,note_on,60,0,1,,,,,,,,,0,,,,88,0
139203,note_on,110,0,9,,,,,,,,,8,,,,55,0
139204,note_on,60,0,2,,,,,,,,,1,,,,76,0
139204,note_on,0,0,2,,,,,,,,,1,,,,72,100
139204,note_on,0,0,2,,,,,,,,,1,,,,74,100
139204,note_on,0,0,2,,,,,,,,,1,,,,72,0
139205,note_on,0,0,3,,,,,,,,,2,,,,72,101
139205,note_on,0,0,3,,,,,,,,,2,,,,74,101
139205,note_on,60,0,3,,,,,,,,,2,,,,76,0
139205,note_on,0,0,3,,,,,,,,,2,,,,72,0
139207,note_on,10,0,8,,,,,,,,,7,,,,62,110
139209,note_on,0,0,4,,,,,,,,,3,,,,66,100
139209,note_on,120,0,4,,,,,,,,,3,,,,66,0
139213,note_on,10,0,9,,,,,,,,,8,,,,55,110
139261,note_on,60,0,1,,,,,,,,,0,,,,86,0
139264,note_on,0,0,2,,,,,,,,,1,,,,74,0
139264,note_on,60,0,2,,,,,,,,,1,,,,72,0
139265,note_on,60,0,3,,,,,,,,,2,,,,74,0
139265,note_on,0,0,3,,,,,,,,,2,,,,72,0
139269,note_on,60,0,4,,,,,,,,,3,,,,66,0
139317,note_on,110,0,8,,,,,,,,,7,,,,62,0
139320,note_on,240,0,11,,,,,,,,,10,,,,55,112
139320,control_change,0,0,11,,,,,,,,,10,11,122,,,
139320,set_tempo,120,1,0,,,,,,254237,,,,,,,,
139321,note_on,60,0,1,,,,,,,,,0,,,,86,101
139322,note_on,600,0,7,,,,,,,,,6,,,,67,112
139322,note_on,0,0,7,,,,,,,,,6,,,,55,112
139323,note_on,0,0,12,,,,,,,,,11,,,,55,112
139323,control_change,240,0,12,,,,,,,,,11,11,122,,,
139323,note_on,110,0,9,,,,,,,,,8,,,,55,0
139323,note_on,240,0,5,,,,,,,,,4,,,,62,100
139324,note_on,0,0,2,,,,,,,,,1,,,,71,100
139324,note_on,240,0,6,,,,,,,,,5,,,,55,100
139324,note_on,60,0,2,,,,,,,,,1,,,,74,100
139325,note_on,0,0,3,,,,,,,,,2,,,,74,101
139325,note_on,60,0,3,,,,,,,,,2,,,,71,101
139327,note_on,10,0,8,,,,,,,,,7,,,,62,110
139328,note_on,0,0,13,,,,,,,,,12,,,,55,112
139328,control_change,240,0,13,,,,,,,,,12,11,122,,,
139328,control_change,8,0,11,,,,,,,,,10,11,119,,,
139329,note_on,60,0,4,,,,,,,,,3,,,,67,100
139331,control_change,8,0,12,,,,,,,,,11,11,119,,,
139332,control_change,240,0,14,,,,,,,,,13,11,122,,,
139332,note_on,0,0,14,,,,,,,,,13,,,,43,112
139333,note_on,10,0,9,,,,,,,,,8,,,,55,110
139334,note_on,0,0,15,,,,,,,,,14,,,,31,112
139334,control_change,240,0,15,,,,,,,,,14,11,122,,,
139335,note_on,600,0,10,,,,,,,,,15,,,,43,100
139336,control_change,8,0,13,,,,,,,,,12,11,119,,,
139337,control_change,9,0,11,,,,,,,,,10,11,116,,,
139340,control_change,9,0,12,,,,,,,,,11,11,116,,,
139340,control_change,8,0,14,,,,,,,,,13,11,119,,,
139342,control_change,8,0,15,,,,,,,,,14,11,119,,,
139345,control_change,9,0,13,,,,,,,,,12,11,116,,,
139346,control_change,9,0,11,,,,,,,,,10,11,113,,,
139349,control_change,9,0,14,,,,,,,,,13,11,116,,,
139349,control_change,9,0,12,,,,,,,,,11,11,113,,,
139350,note_on,4,0,11,,,,,,,,,10,,,,55,0
139351,control_change,9,0,15,,,,,,,,,14,11,116,,,
139353,note_on,4,0,12,,,,,,,,,11,,,,55,0
139354,control_change,9,0,13,,,,,,,,,12,11,113,,,
139355,control_change,5,0,11,,,,,,,,,10,11,110,,,
139358,control_change,5,0,12,,,,,,,,,11,11,110,,,
139358,note_on,4,0,13,,,,,,,,,12,,,,55,0
139358,control_change,9,0,14,,,,,,,,,13,11,113,,,
139360,control_change,9,0,15,,,,,,,,,14,11,113,,,
139362,note_on,4,0,14,,,,,,,,,13,,,,43,0
139363,control_change,5,0,13,,,,,,,,,12,11,110,,,
139364,control_change,9,0,11,,,,,,,,,10,11,107,,,
139364,note_on,4,0,15,,,,,,,,,14,,,,31,0
139367,control_change,9,0,12,,,,,,,,,11,11,107,,,
139367,control_change,5,0,14,,,,,,,,,13,11,110,,,
139369,control_change,5,0,15,,,,,,,,,14,11,110,,,
139372,control_change,9,0,13,,,,,,,,,12,11,107,,,
139373,control_change,9,0,11,,,,,,,,,10,11,104,,,
139376,control_change,9,0,14,,,,,,,,,13,11,107,,,
139376,control_change,9,0,12,,,,,,,,,11,11,104,,,
139378,control_change,9,0,15,,,,,,,,,14,11,107,,,
139380,note_on,7,0,11,,,,,,,,,10,,,,55,112
139381,control_change,9,0,13,,,,,,,,,12,11,104,,,
139381,note_on,60,0,1,,,,,,,,,0,,,,86,0
139383,note_on,7,0,12,,,,,,,,,11,,,,55,112
139384,note_on,0,0,2,,,,,,,,,1,,,,74,0
139384,note_on,60,0,2,,,,,,,,,1,,,,71,0
139385,note_on,60,0,3,,,,,,,,,2,,,,74,0
139385,control_change,9,0,14,,,,,,,,,13,11,104,,,
139385,note_on,0,0,3,,,,,,,,,2,,,,71,0
139387,control_change,9,0,15,,,,,,,,,14,11,104,,,
139388,note_on,7,0,13,,,,,,,,,12,,,,55,112
139389,note_on,60,0,4,,,,,,,,,3,,,,67,0
139392,note_on,7,0,14,,,,,,,,,13,,,,43,112
139394,note_on,7,0,15,,,,,,,,,14,,,,31,112
139410,note_on,30,0,11,,,,,,,,,10,,,,55,0
139413,note_on,30,0,12,,,,,,,,,11,,,,55,0
139418,note_on,30,0,13,,,,,,,,,12,,,,55,0
139422,note_on,30,0,14,,,,,,,,,13,,,,43,0
139424,note_on,30,0,15,,,,,,,,,14,,,,31,0
139433,note_on,110,0,5,,,,,,,,,4,,,,62,0
139434,note_on,110,0,6,,,,,,,,,5,,,,55,0
139440,note_on,30,0,11,,,,,,,,,10,,,,57,112
139440,set_tempo,120,1,0,,,,,,263158,,,,,,,,
139442,note_on,0,0,7,,,,,,,,,6,,,,67,0
139442,note_on,120,0,7,,,,,,,,,6,,,,55,0
139443,note_on,30,0,12,,,,,,,,,11,,,,57,112
139443,note_on,10,0,5,,,,,,,,,4,,,,62,100
139444,note_on,10,0,6,,,,,,,,,5,,,,55,100
139447,note_on,120,0,8,,,,,,,,,7,,,,62,0
139448,note_on,30,0,13,,,,,,,,,12,,,,57,112
139452,note_on,30,0,14,,,,,,,,,13,,,,45,112
139453,note_on,120,0,9,,,,,,,,,8,,,,55,0
139454,note_on,30,0,15,,,,,,,,,14,,,,33,112
139455,note_on,120,0,10,,,,,,,,,15,,,,43,0
139470,note_on,30,0,11,,,,,,,,,10,,,,57,0
139473,note_on,30,0,12,,,,,,,,,11,,,,57,0
139478,note_on,30,0,13,,,,,,,,,12,,,,57,0
139482,note_on,30,0,14,,,,,,,,,13,,,,45,0
139484,note_on,30,0,15,,,,,,,,,14,,,,33,0
139500,note_on,30,0,11,,,,,,,,,10,,,,55,112
139503,note_on,30,0,12,,,,,,,,,11,,,,55,112
139508,note_on,30,0,13,,,,,,,,,12,,,,55,112
139512,note_on,30,0,14,,,,,,,,,13,,,,43,112
139514,note_on,30,0,15,,,,,,,,,14,,,,31,112
139530,note_on,30,0,11,,,,,,,,,10,,,,55,0
139533,note_on,30,0,12,,,,,,,,,11,,,,55,0
139538,note_on,30,0,13,,,,,,,,,12,,,,55,0
139542,note_on,30,0,14,,,,,,,,,13,,,,43,0
139544,note_on,30,0,15,,,,,,,,,14,,,,31,0
139553,note_on,110,0,5,,,,,,,,,4,,,,62,0
139554,note_on,110,0,6,,,,,,,,,5,,,,55,0
139560,note_on,30,0,11,,,,,,,,,10,,,,57,112
139560,set_tempo,120,1,0,,,,,,288462,,,,,,,,
139563,note_on,30,0,12,,,,,,,,,11,,,,57,112
139563,note_on,10,0,5,,,,,,,,,4,,,,62,100
139564,note_on,10,0,6,,,,,,,,,5,,,,55,100
139568,note_on,30,0,13,,,,,,,,,12,,,,57,112
139572,note_on,30,0,14,,,,,,,,,13,,,,45,112
139574,note_on,30,0,15,,,,,,,,,14,,,,33,112
139590,note_on,30,0,11,,,,,,,,,10,,,,57,0
139593,note_on,30,0,12,,,,,,,,,11,,,,57,0
139598,note_on,30,0,13,,,,,,,,,12,,,,57,0
139602,note_on,30,0,14,,,,,,,,,13,,,,45,0
139604,note_on,30,0,15,,,,,,,,,14,,,,33,0
139620,note_on,30,0,11,,,,,,,,,10,,,,55,112
139623,note_on,30,0,12,,,,,,,,,11,,,,55,112
139628,note_on,30,0,13,,,,,,,,,12,,,,55,112
139632,note_on,30,0,14,,,,,,,,,13,,,,43,112
139634,note_on,30,0,15,,,,,,,,,14,,,,31,112
139650,note_on,30,0,11,,,,,,,,,10,,,,55,0
139653,note_on,30,0,12,,,,,,,,,11,,,,55,0
139658,note_on,30,0,13,,,,,,,,,12,,,,55,0
139662,note_on,30,0,14,,,,,,,,,13,,,,43,0
139664,note_on,30,0,15,,,,,,,,,14,,,,31,0
139673,note_on,110,0,5,,,,,,,,,4,,,,62,0
139674,note_on,110,0,6,,,,,,,,,5,,,,55,0
139680,control_change,0,0,11,,,,,,,,,10,11,122,,,
139680,note_on,30,0,11,,,,,,,,,10,,,,67,112
139680,set_tempo,120,1,0,,,,,,258621,,,,,,,,
139683,note_on,10,0,5,,,,,,,,,4,,,,62,100
139683,control_change,30,0,12,,,,,,,,,11,11,122,,,
139683,note_on,0,0,12,,,,,,,,,11,,,,67,112
139684,note_on,10,0,6,,,,,,,,,5,,,,55,100
139688,control_change,8,0,11,,,,,,,,,10,11,119,,,
139688,note_on,30,0,13,,,,,,,,,12,,,,67,112
139691,control_change,8,0,12,,,,,,,,,11,11,119,,,
139692,note_on,30,0,14,,,,,,,,,13,,,,55,112
139694,note_on,30,0,15,,,,,,,,,14,,,,43,112
139697,control_change,9,0,11,,,,,,,,,10,11,116,,,
139700,control_change,9,0,12,,,,,,,,,11,11,116,,,
139706,control_change,9,0,11,,,,,,,,,10,11,113,,,
139709,control_change,9,0,12,,,,,,,,,11,11,113,,,
139715,control_change,9,0,11,,,,,,,,,10,11,110,,,
139718,control_change,9,0,12,,,,,,,,,11,11,110,,,
139724,control_change,9,0,11,,,,,,,,,10,11,107,,,
139727,control_change,9,0,12,,,,,,,,,11,11,107,,,
139733,control_change,9,0,11,,,,,,,,,10,11,104,,,
139736,control_change,9,0,12,,,,,,,,,11,11,104,,,
139740,note_on,7,0,11,,,,,,,,,10,,,,67,0
139743,note_on,7,0,12,,,,,,,,,11,,,,67,0
139748,note_on,60,0,13,,,,,,,,,12,,,,67,0
139752,note_on,60,0,14,,,,,,,,,13,,,,55,0
139754,note_on,60,0,15,,,,,,,,,14,,,,43,0
139800,note_on,60,0,11,,,,,,,,,10,,,,67,112
139803,note_on,120,0,5,,,,,,,,,4,,,,62,0
139803,note_on,60,0,12,,,,,,,,,11,,,,67,112
139804,note_on,120,0,6,,,,,,,,,5,,,,55,0
139808,note_on,60,0,13,,,,,,,,,12,,,,67,112
139812,note_on,60,0,14,,,,,,,,,13,,,,55,112
139814,note_on,60,0,15,,,,,,,,,14,,,,43,112
139860,note_on,60,0,11,,,,,,,,,10,,,,67,0
139863,note_on,60,0,12,,,,,,,,,11,,,,67,0
139868,note_on,60,0,13,,,,,,,,,12,,,,67,0
139872,note_on,60,0,14,,,,,,,,,13,,,,55,0
139874,note_on,60,0,15,,,,,,,,,14,,,,43,0
139920,set_tempo,240,1,0,,,,,,288462,,,,,,,,
139920,note_on,60,0,11,,,,,,,,,10,,,,67,112
139923,note_on,60,0,12,,,,,,,,,11,,,,67,112
139928,note_on,60,0,13,,,,,,,,,12,,,,67,112
139932,note_on,60,0,14,,,,,,,,,13,,,,55,112
139934,note_on,60,0,15,,,,,,,,,14,,,,43,112
139980,note_on,60,0,11,,,,,,,,,10,,,,67,0
139983,note_on,60,0,12,,,,,,,,,11,,,,67,0
139988,note_on,60,0,13,,,,,,,,,12,,,,67,0
139992,note_on,60,0,14,,,,,,,,,13,,,,55,0
139994,note_on,60,0,15,,,,,,,,,14,,,,43,0
140040,note_on,60,0,11,,,,,,,,,10,,,,79,112
140040,set_tempo,120,1,0,,,,,,258621,,,,,,,,
140041,note_on,0,0,1,,,,,,,,,0,,,,79,101
140041,note_on,660,0,1,,,,,,,,,0,,,,91,101
140042,note_on,0,0,7,,,,,,,,,6,,,,55,112
140042,note_on,600,0,7,,,,,,,,,6,,,,67,112
140043,note_on,60,0,12,,,,,,,,,11,,,,79,112
140044,note_on,660,0,2,,,,,,,,,1,,,,79,100
140044,note_on,0,0,2,,,,,,,,,1,,,,67,100
140047,note_on,600,0,8,,,,,,,,,7,,,,67,110
140047,note_on,0,0,8,,,,,,,,,7,,,,55,110
140048,note_on,60,0,13,,,,,,,,,12,,,,67,112
140048,note_on,0,0,13,,,,,,,,,12,,,,55,112
140049,note_on,0,0,4,,,,,,,,,3,,,,43,100
140049,note_on,660,0,4,,,,,,,,,3,,,,55,100
140052,note_on,60,0,14,,,,,,,,,13,,,,43,112
140053,note_on,600,0,9,,,,,,,,,8,,,,43,110
140054,note_on,60,0,15,,,,,,,,,14,,,,31,112
140055,note_on,600,0,10,,,,,,,,,15,,,,43,100
140100,note_on,60,0,11,,,,,,,,,10,,,,79,0
140103,note_on,60,0,12,,,,,,,,,11,,,,79,0
140108,note_on,0,0,13,,,,,,,,,12,,,,67,0
140108,note_on,60,0,13,,,,,,,,,12,,,,55,0
140112,note_on,60,0,14,,,,,,,,,13,,,,43,0
140114,note_on,60,0,15,,,,,,,,,14,,,,31,0
140152,note_on,110,0,7,,,,,,,,,6,,,,55,0
140152,note_on,0,0,7,,,,,,,,,6,,,,67,0
140157,note_on,110,0,8,,,,,,,,,7,,,,55,0
140157,note_on,0,0,8,,,,,,,,,7,,,,67,0
140160,note_on,60,0,11,,,,,,,,,10,,,,79,112
140161,note_on,0,0,1,,,,,,,,,0,,,,91,101
140161,note_on,120,0,1,,,,,,,,,0,,,,79,0
140161,note_on,0,0,1,,,,,,,,,0,,,,91,0
140161,note_on,0,0,1,,,,,,,,,0,,,,79,101
140162,note_on,10,0,7,,,,,,,,,6,,,,67,112
140162,note_on,0,0,7,,,,,,,,,6,,,,55,112
140163,note_on,110,0,9,,,,,,,,,8,,,,43,0
140163,note_on,60,0,12,,,,,,,,,11,,,,79,112
140164,note_on,0,0,2,,,,,,,,,1,,,,79,0
140164,note_on,120,0,2,,,,,,,,,1,,,,67,0
140164,note_on,0,0,2,,,,,,,,,1,,,,67,100
140164,note_on,0,0,2,,,,,,,,,1,,,,79,100
140167,note_on,10,0,8,,,,,,,,,7,,,,67,110
140167,note_on,0,0,8,,,,,,,,,7,,,,55,110
140168,note_on,60,0,13,,,,,,,,,12,,,,67,112
140168,note_on,0,0,13,,,,,,,,,12,,,,55,112
140169,note_on,0,0,4,,,,,,,,,3,,,,55,0
140169,note_on,0,0,4,,,,,,,,,3,,,,43,100
140169,note_on,0,0,4,,,,,,,,,3,,,,55,100
140169,note_on,120,0,4,,,,,,,,,3,,,,43,0
140172,note_on,60,0,14,,,,,,,,,13,,,,43,112
140173,note_on,10,0,9,,,,,,,,,8,,,,43,110
140174,note_on,60,0,15,,,,,,,,,14,,,,31,112
140175,note_on,0,0,10,,,,,,,,,15,,,,43,100
140175,note_on,120,0,10,,,,,,,,,15,,,,43,0
140220,note_on,60,0,11,,,,,,,,,10,,,,79,0
140223,note_on,60,0,12,,,,,,,,,11,,,,79,0
140228,note_on,60,0,13,,,,,,,,,12,,,,55,0
140228,note_on,0,0,13,,,,,,,,,12,,,,67,0
140232,note_on,60,0,14,,,,,,,,,13,,,,43,0
140234,note_on,60,0,15,,,,,,,,,14,,,,31,0
140272,note_on,110,0,7,,,,,,,,,6,,,,55,0
140272,note_on,0,0,7,,,,,,,,,6,,,,67,0
140277,note_on,110,0,8,,,,,,,,,7,,,,55,0
140277,note_on,0,0,8,,,,,,,,,7,,,,67,0
140280,note_on,60,0,11,,,,,,,,,10,,,,79,112
140280,set_tempo,240,1,0,,,,,,288462,,,,,,,,
140281,note_on,0,0,1,,,,,,,,,0,,,,91,101
140281,note_on,120,0,1,,,,,,,,,0,,,,91,0
140281,note_on,0,0,1,,,,,,,,,0,,,,79,0
140281,note_on,0,0,1,,,,,,,,,0,,,,79,101
140282,note_on,0,0,7,,,,,,,,,6,,,,67,112
140282,note_on,10,0,7,,,,,,,,,6,,,,55,112
140283,note_on,60,0,12,,,,,,,,,11,,,,79,112
140283,note_on,110,0,9,,,,,,,,,8,,,,43,0
140284,note_on,0,0,2,,,,,,,,,1,,,,67,0
140284,note_on,0,0,2,,,,,,,,,1,,,,79,100
140284,note_on,0,0,2,,,,,,,,,1,,,,67,100
140284,note_on,120,0,2,,,,,,,,,1,,,,79,0
140287,note_on,0,0,8,,,,,,,,,7,,,,67,110
140287,note_on,10,0,8,,,,,,,,,7,,,,55,110
140288,note_on,0,0,13,,,,,,,,,12,,,,67,112
140288,note_on,60,0,13,,,,,,,,,12,,,,55,112
140289,note_on,120,0,4,,,,,,,,,3,,,,43,0
140289,note_on,0,0,4,,,,,,,,,3,,,,55,0
140289,note_on,0,0,4,,,,,,,,,3,,,,55,100
140289,note_on,0,0,4,,,,,,,,,3,,,,43,100
140292,note_on,60,0,14,,,,,,,,,13,,,,43,112
140293,note_on,10,0,9,,,,,,,,,8,,,,43,110
140294,note_on,60,0,15,,,,,,,,,14,,,,31,112
140295,note_on,120,0,10,,,,,,,,,15,,,,43,0
140295,note_on,0,0,10,,,,,,,,,15,,,,43,100
140340,note_on,60,0,11,,,,,,,,,10,,,,79,0
140343,note_on,60,0,12,,,,,,,,,11,,,,79,0
140348,note_on,60,0,13,,,,,,,,,12,,,,67,0
140348,note_on,0,0,13,,,,,,,,,12,,,,55,0
140352,note_on,60,0,14,,,,,,,,,13,,,,43,0
140354,note_on,60,0,15,,,,,,,,,14,,,,31,0
140392,note_on,110,0,7,,,,,,,,,6,,,,67,0
140392,note_on,0,0,7,,,,,,,,,6,,,,55,0
140397,note_on,110,0,8,,,,,,,,,7,,,,67,0
140397,note_on,0,0,8,,,,,,,,,7,,,,55,0
140400,set_tempo,120,1,0,,,,,,254237,,,,,,,,
140401,note_on,120,0,1,,,,,,,,,0,,,,91,0
140401,note_on,0,0,1,,,,,,,,,0,,,,79,0
140403,note_on,110,0,9,,,,,,,,,8,,,,43,0
140403,control_change,600,0,5,,,,,,,,,4,11,47,,,
140403,note_on,0,0,5,,,,,,,,,4,,,,67,115
140404,note_on,120,0,2,,,,,,,,,1,,,,79,0
140404,control_change,600,0,6,,,,,,,,,5,11,47,,,
140404,note_on,0,0,6,,,,,,,,,5,,,,55,115
140404,note_on,0,0,2,,,,,,,,,1,,,,67,0
140405,control_change,1020,0,3,,,,,,,,,2,11,42,,,
140405,note_on,0,0,3,,,,,,,,,2,,,,67,116
140405,note_on,0,0,3,,,,,,,,,2,,,,79,116
140409,note_on,0,0,4,,,,,,,,,3,,,,43,0
140409,note_on,120,0,4,,,,,,,,,3,,,,55,0
140415,note_on,120,0,10,,,,,,,,,15,,,,43,0
140463,note_on,60,0,5,,,,,,,,,4,,,,67,0
140464,note_on,60,0,6,,,,,,,,,5,,,,55,0
140465,note_on,0,0,3,,,,,,,,,2,,,,79,0
140465,note_on,60,0,3,,,,,,,,,2,,,,67,0
140520,set_tempo,120,1,0,,,,,,263158,,,,,,,,
140523,note_on,60,0,5,,,,,,,,,4,,,,67,100
140524,note_on,60,0,6,,,,,,,,,5,,,,55,100
140525,note_on,0,0,3,,,,,,,,,2,,,,67,101
140525,note_on,60,0,3,,,,,,,,,2,,,,79,101
140583,note_on,60,0,5,,,,,,,,,4,,,,67,0
140584,note_on,60,0,6,,,,,,,,,5,,,,55,0
140585,note_on,0,0,3,,,,,,,,,2,,,,79,0
140585,note_on,60,0,3,,,,,,,,,2,,,,67,0
140640,set_tempo,120,1,0,,,,,,308483,,,,,,,,
140643,note_on,60,0,5,,,,,,,,,4,,,,67,100
140644,note_on,60,0,6,,,,,,,,,5,,,,55,100
140645,note_on,0,0,3,,,,,,,,,2,,,,79,101
140645,note_on,60,0,3,,,,,,,,,2,,,,67,101
140703,note_on,60,0,5,,,,,,,,,4,,,,67,0
140704,note_on,60,0,6,,,,,,,,,5,,,,55,0
140705,note_on,0,0,3,,,,,,,,,2,,,,67,0
140705,note_on,60,0,3,,,,,,,,,2,,,,79,0
140760,set_tempo,120,1,0,,,,,,254237,,,,,,,,
140763,control_change,60,0,5,,,,,,,,,4,11,47,,,
140763,note_on,0,0,5,,,,,,,,,4,,,,65,100
140764,note_on,60,0,6,,,,,,,,,5,,,,62,100
140764,control_change,0,0,2,,,,,,,,,1,11,42,,,
140764,note_on,360,0,2,,,,,,,,,1,,,,67,115
140764,control_change,0,0,6,,,,,,,,,5,11,47,,,
140764,note_on,0,0,2,,,,,,,,,1,,,,65,100
140765,control_change,0,0,3,,,,,,,,,2,11,42,,,
140765,note_on,60,0,3,,,,,,,,,2,,,,67,116
140769,note_on,0,0,4,,,,,,,,,3,,,,59,100
140769,control_change,360,0,4,,,,,,,,,3,11,42,,,
140769,note_on,0,0,4,,,,,,,,,3,,,,55,100
140794,note_on,30,0,2,,,,,,,,,1,,,,67,0
140795,note_on,30,0,3,,,,,,,,,2,,,,67,0
140820,note_on,26,0,2,,,,,,,,,1,,,,67,100
140825,note_on,30,0,3,,,,,,,,,2,,,,67,101
140850,note_on,30,0,2,,,,,,,,,1,,,,67,0
140855,note_on,30,0,3,,,,,,,,,2,,,,67,0
140880,set_tempo,120,1,0,,,,,,263158,,,,,,,,
140884,note_on,34,0,2,,,,,,,,,1,,,,69,100
140885,note_on,30,0,3,,,,,,,,,2,,,,69,101
140944,note_on,60,0,2,,,,,,,,,1,,,,69,0
140944,note_on,0,0,2,,,,,,,,,1,,,,67,100
140945,note_on,60,0,3,,,,,,,,,2,,,,69,0
140945,note_on,0,0,3,,,,,,,,,2,,,,67,101
141000,set_tempo,120,1,0,,,,,,288462,,,,,,,,
141004,note_on,0,0,2,,,,,,,,,1,,,,69,100
141004,note_on,60,0,2,,,,,,,,,1,,,,67,0
141005,note_on,0,0,3,,,,,,,,,2,,,,69,101
141005,note_on,60,0,3,,,,,,,,,2,,,,67,0
141064,note_on,0,0,2,,,,,,,,,1,,,,67,100
141064,note_on,60,0,2,,,,,,,,,1,,,,69,0
141065,note_on,60,0,3,,,,,,,,,2,,,,69,0
141065,note_on,0,0,3,,,,,,,,,2,,,,67,101
141120,set_tempo,120,1,0,,,,,,258621,,,,,,,,
141123,note_on,0,0,5,,,,,,,,,4,,,,64,100
141123,note_on,360,0,5,,,,,,,,,4,,,,65,0
141124,note_on,0,0,2,,,,,,,,,1,,,,72,100
141124,note_on,0,0,2,,,,,,,,,1,,,,64,100
141124,note_on,60,0,2,,,,,,,,,1,,,,67,0
141124,note_on,0,0,2,,,,,,,,,1,,,,65,0
141124,note_on,360,0,6,,,,,,,,,5,,,,62,0
141124,note_on,0,0,6,,,,,,,,,5,,,,60,100
141125,note_on,0,0,3,,,,,,,,,2,,,,72,101
141125,note_on,60,0,3,,,,,,,,,2,,,,67,0
141129,note_on,0,0,4,,,,,,,,,3,,,,59,0
141129,note_on,360,0,4,,,,,,,,,3,,,,55,0
141129,note_on,0,0,4,,,,,,,,,3,,,,57,100
141129,note_on,0,0,4,,,,,,,,,3,,,,60,100
141183,note_on,60,0,5,,,,,,,,,4,,,,64,0
141184,note_on,60,0,6,,,,,,,,,5,,,,60,0
141184,note_on,60,0,2,,,,,,,,,1,,,,72,0
141184,note_on,0,0,2,,,,,,,,,1,,,,64,0
141185,note_on,60,0,3,,,,,,,,,2,,,,72,0
141189,note_on,60,0,4,,,,,,,,,3,,,,60,0
141189,note_on,0,0,4,,,,,,,,,3,,,,57,0
141243,note_on,60,0,5,,,,,,,,,4,,,,64,100
141244,note_on,0,0,2,,,,,,,,,1,,,,72,100
141244,note_on,60,0,2,,,,,,,,,1,,,,64,100
141244,note_on,60,0,6,,,,,,,,,5,,,,60,100
141245,note_on,60,0,3,,,,,,,,,2,,,,72,101
141249,note_on,60,0,4,,,,,,,,,3,,,,57,100
141303,note_on,60,0,5,,,,,,,,,4,,,,64,0
141304,note_on,0,0,2,,,,,,,,,1,,,,64,0
141304,note_on,60,0,6,,,,,,,,,5,,,,60,0
141304,note_on,60,0,2,,,,,,,,,1,,,,72,0
141305,note_on,60,0,3,,,,,,,,,2,,,,72,0
141309,note_on,60,0,4,,,,,,,,,3,,,,57,0
141360,set_tempo,240,1,0,,,,,,288462,,,,,,,,
141363,note_on,60,0,5,,,,,,,,,4,,,,64,100
141364,note_on,60,0,2,,,,,,,,,1,,,,72,100
141364,note_on,0,0,2,,,,,,,,,1,,,,64,100
141364,note_on,60,0,6,,,,,,,,,5,,,,60,100
141365,note_on,60,0,3,,,,,,,,,2,,,,72,101
141369,note_on,60,0,4,,,,,,,,,3,,,,57,100
141423,note_on,60,0,5,,,,,,,,,4,,,,64,0
141424,note_on,60,0,6,,,,,,,,,5,,,,60,0
141424,note_on,60,0,2,,,,,,,,,1,,,,64,0
141424,note_on,0,0,2,,,,,,,,,1,,,,72,0
141425,note_on,60,0,3,,,,,,,,,2,,,,72,0
141429,note_on,60,0,4,,,,,,,,,3,,,,57,0
141480,set_tempo,120,1,0,,,,,,254237,,,,,,,,
141483,note_on,60,0,5,,,,,,,,,4,,,,57,100
141484,note_on,60,0,2,,,,,,,,,1,,,,71,100
141484,note_on,0,0,2,,,,,,,,,1,,,,69,100
141484,note_on,60,0,6,,,,,,,,,5,,,,57,100
141485,note_on,60,0,3,,,,,,,,,2,,,,69,101
141485,note_on,0,0,3,,,,,,,,,2,,,,71,101
141489,note_on,60,0,4,,,,,,,,,3,,,,53,100
141514,note_on,30,0,2,,,,,,,,,1,,,,71,0
141515,note_on,30,0,3,,,,,,,,,2,,,,71,0
141543,note_on,60,0,5,,,,,,,,,4,,,,57,0
141544,note_on,0,0,2,,,,,,,,,1,,,,72,100
141544,note_on,30,0,2,,,,,,,,,1,,,,69,0
141544,note_on,60,0,6,,,,,,,,,5,,,,57,0
141545,note_on,0,0,3,,,,,,,,,2,,,,72,101
141545,note_on,30,0,3,,,,,,,,,2,,,,69,0
141549,note_on,60,0,4,,,,,,,,,3,,,,53,0
141574,note_on,30,0,2,,,,,,,,,1,,,,72,0
141575,note_on,30,0,3,,,,,,,,,2,,,,72,0
141600,set_tempo,120,1,0,,,,,,263158,,,,,,,,
141603,note_on,60,0,5,,,,,,,,,4,,,,57,100
141604,note_on,30,0,2,,,,,,,,,1,,,,69,100
141604,note_on,60,0,6,,,,,,,,,5,,,,57,100
141605,note_on,30,0,3,,,,,,,,,2,,,,69,101
141609,note_on,60,0,4,,,,,,,,,3,,,,53,100
141663,note_on,60,0,5,,,,,,,,,4,,,,57,0
141664,note_on,60,0,2,,,,,,,,,1,,,,69,0
141664,note_on,0,0,2,,,,,,,,,1,,,,71,100
141664,note_on,60,0,6,,,,,,,,,5,,,,57,0
141665,note_on,60,0,3,,,,,,,,,2,,,,69,0
141665,note_on,0,0,3,,,,,,,,,2,,,,71,101
141669,note_on,60,0,4,,,,,,,,,3,,,,53,0
141720,set_tempo,120,1,0,,,,,,288462,,,,,,,,
141723,note_on,60,0,5,,,,,,,,,4,,,,57,100
141724,note_on,0,0,2,,,,,,,,,1,,,,69,100
141724,note_on,60,0,2,,,,,,,,,1,,,,71,0
141724,note_on,0,0,2,,,,,,,,,1,,,,72,100
141724,note_on,60,0,6,,,,,,,,,5,,,,57,100
141725,note_on,0,0,3,,,,,,,,,2,,,,69,101
141725,note_on,0,0,3,,,,,,,,,2,,,,72,101
141725,note_on,60,0,3,,,,,,,,,2,,,,71,0
141729,note_on,0,0,4,,,,,,,,,3,,,,57,100
141729,note_on,60,0,4,,,,,,,,,3,,,,53,100
141783,note_on,60,0,5,,,,,,,,,4,,,,57,0
141784,note_on,60,0,6,,,,,,,,,5,,,,57,0
141784,note_on,0,0,2,,,,,,,,,1,,,,74,100
141784,note_on,60,0,2,,,,,,,,,1,,,,72,0
141784,note_on,0,0,2,,,,,,,,,1,,,,69,0
141785,note_on,0,0,3,,,,,,,,,2,,,,72,0
141785,note_on,0,0,3,,,,,,,,,2,,,,74,101
141785,note_on,60,0,3,,,,,,,,,2,,,,69,0
141789,note_on,0,0,4,,,,,,,,,3,,,,53,0
141789,note_on,60,0,4,,,,,,,,,3,,,,57,0
141840,set_tempo,120,1,0,,,,,,254237,,,,,,,,
141843,note_on,0,0,5,,,,,,,,,4,,,,64,100
141843,control_change,60,0,5,,,,,,,,,4,11,52,,,
141844,note_on,60,0,2,,,,,,,,,1,,,,74,0
141844,note_on,0,0,2,,,,,,,,,1,,,,76,100
141844,control_change,60,0,6,,,,,,,,,5,11,52,,,
141844,control_change,0,0,2,,,,,,,,,1,11,47,,,
141844,note_on,0,0,6,,,,,,,,,5,,,,52,100
141845,note_on,60,0,3,,,,,,,,,2,,,,74,0
141845,control_change,0,0,3,,,,,,,,,2,11,47,,,
141845,note_on,0,0,3,,,,,,,,,2,,,,76,101
141847,control_change,4,0,5,,,,,,,,,4,11,55,,,
141848,control_change,4,0,2,,,,,,,,,1,11,50,,,
141848,control_change,4,0,6,,,,,,,,,5,11,55,,,
141849,note_on,0,0,4,,,,,,,,,3,,,,59,100
141849,note_on,0,0,4,,,,,,,,,3,,,,52,100
141849,control_change,60,0,4,,,,,,,,,3,11,47,,,
141849,control_change,4,0,3,,,,,,,,,2,11,50,,,
141852,control_change,5,0,5,,,,,,,,,4,11,58,,,
141853,control_change,5,0,6,,,,,,,,,5,11,58,,,
141853,control_change,4,0,4,,,,,,,,,3,11,50,,,
141856,control_change,4,0,5,,,,,,,,,4,11,61,,,
141857,control_change,9,0,2,,,,,,,,,1,11,55,,,
141857,control_change,4,0,6,,,,,,,,,5,11,61,,,
141858,control_change,5,0,4,,,,,,,,,3,11,53,,,
141858,control_change,9,0,3,,,,,,,,,2,11,55,,,
141861,control_change,5,0,5,,,,,,,,,4,11,64,,,
141862,control_change,5,0,6,,,,,,,,,5,11,64,,,
141862,control_change,4,0,4,,,,,,,,,3,11,56,,,
141865,control_change,4,0,5,,,,,,,,,4,11,67,,,
141866,control_change,4,0,6,,,,,,,,,5,11,67,,,
141866,control_change,9,0,2,,,,,,,,,1,11,59,,,
141867,control_change,5,0,4,,,,,,,,,3,11,59,,,
141867,control_change,9,0,3,,,,,,,,,2,11,59,,,
141870,control_change,5,0,5,,,,,,,,,4,11,70,,,
141871,control_change,4,0,4,,,,,,,,,3,11,62,,,
141871,control_change,5,0,6,,,,,,,,,5,11,70,,,
141876,control_change,5,0,4,,,,,,,,,3,11,65,,,
141887,control_change,17,0,5,,,,,,,,,4,11,68,,,
141888,control_change,17,0,6,,,,,,,,,5,11,68,,,
141888,control_change,22,0,2,,,,,,,,,1,11,60,,,
141889,control_change,22,0,3,,,,,,,,,2,11,60,,,
141893,control_change,17,0,4,,,,,,,,,3,11,63,,,
141898,control_change,11,0,5,,,,,,,,,4,11,65,,,
141899,control_change,11,0,6,,,,,,,,,5,11,65,,,
141904,control_change,11,0,4,,,,,,,,,3,11,60,,,
141909,control_change,11,0,5,,,,,,,,,4,11,62,,,
141910,control_change,11,0,6,,,,,,,,,5,11,62,,,
141910,control_change,22,0,2,,,,,,,,,1,11,55,,,
141911,control_change,22,0,3,,,,,,,,,2,11,55,,,
141915,control_change,11,0,4,,,,,,,,,3,11,57,,,
141919,control_change,10,0,5,,,,,,,,,4,11,59,,,
141920,control_change,10,0,6,,,,,,,,,5,11,59,,,
141925,control_change,10,0,4,,,,,,,,,3,11,54,,,
141930,control_change,11,0,5,,,,,,,,,4,11,56,,,
141931,control_change,21,0,2,,,,,,,,,1,11,51,,,
141931,control_change,11,0,6,,,,,,,,,5,11,56,,,
141932,control_change,21,0,3,,,,,,,,,2,11,51,,,
141936,control_change,11,0,4,,,,,,,,,3,11,51,,,
141941,control_change,11,0,5,,,,,,,,,4,11,53,,,
141942,control_change,11,0,6,,,,,,,,,5,11,53,,,
141942,control_change,11,0,2,,,,,,,,,1,11,48,,,
141943,control_change,11,0,3,,,,,,,,,2,11,48,,,
141947,control_change,11,0,4,,,,,,,,,3,11,48,,,
141952,control_change,11,0,5,,,,,,,,,4,11,50,,,
141953,control_change,11,0,6,,,,,,,,,5,11,50,,,
141953,control_change,11,0,2,,,,,,,,,1,11,45,,,
141954,control_change,11,0,3,,,,,,,,,2,11,45,,,
141958,control_change,11,0,4,,,,,,,,,3,11,45,,,
141960,set_tempo,120,1,0,,,,,,263158,,,,,,,,
141963,control_change,11,0,5,,,,,,,,,4,11,47,,,
141964,control_change,11,0,6,,,,,,,,,5,11,47,,,
141964,control_change,11,0,2,,,,,,,,,1,11,42,,,
141965,control_change,11,0,3,,,,,,,,,2,11,42,,,
141969,control_change,11,0,4,,,,,,,,,3,11,42,,,
142080,set_tempo,120,1,0,,,,,,307692,,,,,,,,
142169,note_on,205,0,2,,,,,,,,,1,,,,76,0
142170,note_on,205,0,3,,,,,,,,,2,,,,76,0
142174,note_on,205,0,4,,,,,,,,,3,,,,59,0
142174,note_on,0,0,4,,,,,,,,,3,,,,52,0
142200,set_tempo,120,1,0,,,,,,254237,,,,,,,,
142200,note_on,1860,0,11,,,,,,,,,10,,,,79,127
142200,control_change,0,0,11,,,,,,,,,10,11,41,,,
142203,note_on,240,0,5,,,,,,,,,4,,,,64,0
142203,control_change,1860,0,12,,,,,,,,,11,11,41,,,
142203,note_on,0,0,12,,,,,,,,,11,,,,71,112
142204,note_on,240,0,6,,,,,,,,,5,,,,52,0
142230,note_on,30,0,11,,,,,,,,,10,,,,79,0
142260,note_on,30,0,11,,,,,,,,,10,,,,79,112
142263,note_on,60,0,12,,,,,,,,,11,,,,71,0
142290,note_on,30,0,11,,,,,,,,,10,,,,79,0
142320,note_on,30,0,11,,,,,,,,,10,,,,81,112
142320,set_tempo,120,1,0,,,,,,263158,,,,,,,,
142323,note_on,60,0,12,,,,,,,,,11,,,,71,112
142350,note_on,30,0,11,,,,,,,,,10,,,,81,0
142380,note_on,30,0,11,,,,,,,,,10,,,,79,112
142383,note_on,60,0,12,,,,,,,,,11,,,,71,0
142410,note_on,30,0,11,,,,,,,,,10,,,,79,0
142440,note_on,30,0,11,,,,,,,,,10,,,,81,112
142440,set_tempo,120,1,0,,,,,,288462,,,,,,,,
142443,note_on,60,0,12,,,,,,,,,11,,,,71,112
142470,note_on,30,0,11,,,,,,,,,10,,,,81,0
142500,note_on,30,0,11,,,,,,,,,10,,,,79,112
142503,note_on,60,0,12,,,,,,,,,11,,,,71,0
142530,note_on,30,0,11,,,,,,,,,10,,,,79,0
142560,set_tempo,120,1,0,,,,,,254237,,,,,,,,
142560,note_on,30,0,11,,,,,,,,,10,,,,76,112
142563,note_on,60,0,12,,,,,,,,,11,,,,72,127
142593,note_on,30,0,12,,,,,,,,,11,,,,72,0
142620,note_on,60,0,11,,,,,,,,,10,,,,76,0
142623,note_on,30,0,12,,,,,,,,,11,,,,72,112
142653,note_on,30,0,12,,,,,,,,,11,,,,72,0
142680,set_tempo,120,1,0,,,,,,263158,,,,,,,,
142680,note_on,60,0,11,,,,,,,,,10,,,,76,112
142683,note_on,30,0,12,,,,,,,,,11,,,,74,112
142713,note_on,30,0,12,,,,,,,,,11,,,,74,0
142740,note_on,60,0,11,,,,,,,,,10,,,,76,0
142743,note_on,30,0,12,,,,,,,,,11,,,,72,112
142773,note_on,30,0,12,,,,,,,,,11,,,,72,0
142800,note_on,60,0,11,,,,,,,,,10,,,,76,112
142800,set_tempo,120,1,0,,,,,,288462,,,,,,,,
142803,note_on,30,0,12,,,,,,,,,11,,,,74,112
142833,note_on,30,0,12,,,,,,,,,11,,,,74,0
142860,note_on,60,0,11,,,,,,,,,10,,,,76,0
142863,note_on,30,0,12,,,,,,,,,11,,,,72,112
142893,note_on,30,0,12,,,,,,,,,11,,,,72,0
142920,note_on,60,0,11,,,,,,,,,10,,,,74,112
142920,set_tempo,120,1,0,,,,,,254237,,,,,,,,
142923,note_on,30,0,12,,,,,,,,,11,,,,70,112
142927,program_change,2579,0,13,,,,,,,,48,12,,,,,
142928,note_on,0,0,13,,,,,,,,,12,,,,67,127
142928,control_change,1,0,13,,,,,,,,,12,11,41,,,
142958,note_on,30,0,13,,,,,,,,,12,,,,67,0
142980,note_on,60,0,11,,,,,,,,,10,,,,74,0
142983,note_on,60,0,12,,,,,,,,,11,,,,70,0
142988,note_on,30,0,13,,,,,,,,,12,,,,67,112
143018,note_on,30,0,13,,,,,,,,,12,,,,67,0
143040,note_on,60,0,11,,,,,,,,,10,,,,74,112
143040,set_tempo,120,1,0,,,,,,263158,,,,,,,,
143043,note_on,60,0,12,,,,,,,,,11,,,,70,112
143048,note_on,30,0,13,,,,,,,,,12,,,,69,112
143078,note_on,30,0,13,,,,,,,,,12,,,,69,0
143100,note_on,60,0,11,,,,,,,,,10,,,,74,0
143103,note_on,60,0,12,,,,,,,,,11,,,,70,0
143108,note_on,30,0,13,,,,,,,,,12,,,,67,112
143138,note_on,30,0,13,,,,,,,,,12,,,,67,0
143160,set_tempo,120,1,0,,,,,,288462,,,,,,,,
143160,note_on,60,0,11,,,,,,,,,10,,,,74,112
143163,note_on,60,0,12,,,,,,,,,11,,,,70,112
143168,note_on,30,0,13,,,,,,,,,12,,,,69,112
143198,note_on,30,0,13,,,,,,,,,12,,,,69,0
143220,note_on,60,0,11,,,,,,,,,10,,,,74,0
143223,note_on,60,0,12,,,,,,,,,11,,,,70,0
143228,note_on,30,0,13,,,,,,,,,12,,,,67,112
143258,note_on,30,0,13,,,,,,,,,12,,,,67,0
143280,set_tempo,120,1,0,,,,,,254237,,,,,,,,
143280,note_on,60,0,11,,,,,,,,,10,,,,73,112
143283,note_on,60,0,12,,,,,,,,,11,,,,69,112
143288,note_on,30,0,13,,,,,,,,,12,,,,64,112
143292,note_on,0,0,14,,,,,,,,,13,,,,57,127
143292,control_change,2940,0,14,,,,,,,,,13,11,41,,,
143322,note_on,30,0,14,,,,,,,,,13,,,,57,0
143348,note_on,60,0,13,,,,,,,,,12,,,,64,0
143352,note_on,30,0,14,,,,,,,,,13,,,,57,112
143382,note_on,30,0,14,,,,,,,,,13,,,,57,0
143400,set_tempo,120,1,0,,,,,,263158,,,,,,,,
143408,note_on,60,0,13,,,,,,,,,12,,,,64,112
143412,note_on,30,0,14,,,,,,,,,13,,,,59,112
143442,note_on,30,0,14,,,,,,,,,13,,,,59,0
143468,note_on,60,0,13,,,,,,,,,12,,,,64,0
143472,note_on,30,0,14,,,,,,,,,13,,,,57,112
143502,note_on,30,0,14,,,,,,,,,13,,,,57,0
143520,set_tempo,120,1,0,,,,,,288462,,,,,,,,
143528,note_on,60,0,13,,,,,,,,,12,,,,64,112
143532,note_on,30,0,14,,,,,,,,,13,,,,59,112
143562,note_on,30,0,14,,,,,,,,,13,,,,59,0
143588,note_on,60,0,13,,,,,,,,,12,,,,64,0
143592,note_on,30,0,14,,,,,,,,,13,,,,57,112
143622,note_on,30,0,14,,,,,,,,,13,,,,57,0
143640,note_on,0,0,11,,,,,,,,,10,,,,74,112
143640,note_on,360,0,11,,,,,,,,,10,,,,73,0
143640,set_tempo,120,1,0,,,,,,254237,,,,,,,,
143643,note_on,360,0,12,,,,,,,,,11,,,,69,0
143643,note_on,0,0,12,,,,,,,,,11,,,,65,112
143648,note_on,60,0,13,,,,,,,,,12,,,,62,112
143652,note_on,30,0,14,,,,,,,,,13,,,,50,127
143654,control_change,0,0,15,,,,,,,,,14,11,41,,,
143654,note_on,3300,0,15,,,,,,,,,14,,,,38,127
143682,note_on,30,0,14,,,,,,,,,13,,,,50,0
143684,note_on,30,0,15,,,,,,,,,14,,,,38,0
143700,note_on,60,0,11,,,,,,,,,10,,,,74,0
143712,note_on,30,0,14,,,,,,,,,13,,,,50,112
143714,note_on,30,0,15,,,,,,,,,14,,,,38,112
143742,note_on,30,0,14,,,,,,,,,13,,,,50,0
143744,note_on,30,0,15,,,,,,,,,14,,,,38,0
143760,set_tempo,120,1,0,,,,,,263158,,,,,,,,
143760,note_on,60,0,11,,,,,,,,,10,,,,74,112
143772,note_on,30,0,14,,,,,,,,,13,,,,52,112
143774,note_on,30,0,15,,,,,,,,,14,,,,40,112
143802,note_on,30,0,14,,,,,,,,,13,,,,52,0
143804,note_on,30,0,15,,,,,,,,,14,,,,40,0
143820,note_on,60,0,11,,,,,,,,,10,,,,74,0
143832,note_on,30,0,14,,,,,,,,,13,,,,50,112
143834,note_on,30,0,15,,,,,,,,,14,,,,38,112
143862,note_on,30,0,14,,,,,,,,,13,,,,50,0
143864,note_on,30,0,15,,,,,,,,,14,,,,38,0
143880,set_tempo,120,1,0,,,,,,288462,,,,,,,,
143880,note_on,60,0,11,,,,,,,,,10,,,,74,112
143892,note_on,30,0,14,,,,,,,,,13,,,,52,112
143894,note_on,30,0,15,,,,,,,,,14,,,,40,112
143922,note_on,30,0,14,,,,,,,,,13,,,,52,0
143924,note_on,30,0,15,,,,,,,,,14,,,,40,0
143940,note_on,60,0,11,,,,,,,,,10,,,,74,0
143952,note_on,30,0,14,,,,,,,,,13,,,,50,112
143954,note_on,30,0,15,,,,,,,,,14,,,,38,112
143982,note_on,30,0,14,,,,,,,,,13,,,,50,0
143984,note_on,30,0,15,,,,,,,,,14,,,,38,0
144000,note_on,60,0,11,,,,,,,,,10,,,,76,112
144000,set_tempo,120,1,0,,,,,,254237,,,,,,,,
144003,note_on,0,0,12,,,,,,,,,11,,,,68,127
144003,note_on,360,0,12,,,,,,,,,11,,,,65,0
144008,note_on,0,0,13,,,,,,,,,12,,,,62,112
144008,note_on,360,0,13,,,,,,,,,12,,,,62,0
144012,note_on,30,0,14,,,,,,,,,13,,,,46,112
144014,note_on,30,0,15,,,,,,,,,14,,,,34,112
144033,note_on,30,0,12,,,,,,,,,11,,,,68,0
144060,note_on,60,0,11,,,,,,,,,10,,,,76,0
144063,note_on,30,0,12,,,,,,,,,11,,,,68,112
144068,note_on,60,0,13,,,,,,,,,12,,,,62,0
144072,note_on,60,0,14,,,,,,,,,13,,,,46,0
144074,note_on,60,0,15,,,,,,,,,14,,,,34,0
144093,note_on,30,0,12,,,,,,,,,11,,,,68,0
144120,set_tempo,120,1,0,,,,,,263158,,,,,,,,
144120,note_on,60,0,11,,,,,,,,,10,,,,76,112
144123,note_on,30,0,12,,,,,,,,,11,,,,69,112
144128,note_on,60,0,13,,,,,,,,,12,,,,62,112
144132,note_on,60,0,14,,,,,,,,,13,,,,46,112
144134,note_on,60,0,15,,,,,,,,,14,,,,34,112
144153,note_on,30,0,12,,,,,,,,,11,,,,69,0
144180,note_on,60,0,11,,,,,,,,,10,,,,76,0
144183,note_on,30,0,12,,,,,,,,,11,,,,68,112
144188,note_on,60,0,13,,,,,,,,,12,,,,62,0
144192,note_on,60,0,14,,,,,,,,,13,,,,46,0
144194,note_on,60,0,15,,,,,,,,,14,,,,34,0
144213,note_on,30,0,12,,,,,,,,,11,,,,68,0
144240,set_tempo,120,1,0,,,,,,288462,,,,,,,,
144240,note_on,60,0,11,,,,,,,,,10,,,,76,112
144243,note_on,30,0,12,,,,,,,,,11,,,,69,112
144248,note_on,60,0,13,,,,,,,,,12,,,,62,112
144252,note_on,60,0,14,,,,,,,,,13,,,,46,112
144254,note_on,60,0,15,,,,,,,,,14,,,,34,112
144273,note_on,30,0,12,,,,,,,,,11,,,,69,0
144300,note_on,60,0,11,,,,,,,,,10,,,,76,0
144303,note_on,30,0,12,,,,,,,,,11,,,,68,112
144308,note_on,60,0,13,,,,,,,,,12,,,,62,0
144312,note_on,60,0,14,,,,,,,,,13,,,,46,0
144314,note_on,60,0,15,,,,,,,,,14,,,,34,0
144333,note_on,30,0,12,,,,,,,,,11,,,,68,0
144360,note_on,60,0,11,,,,,,,,,10,,,,81,127
144360,set_tempo,120,1,0,,,,,,254237,,,,,,,,
144363,note_on,30,0,12,,,,,,,,,11,,,,67,112
144368,note_on,60,0,13,,,,,,,,,12,,,,61,127
144372,note_on,60,0,14,,,,,,,,,13,,,,45,112
144374,note_on,60,0,15,,,,,,,,,14,,,,33,112
144390,note_on,30,0,11,,,,,,,,,10,,,,81,0
144398,note_on,30,0,13,,,,,,,,,12,,,,61,0
144420,note_on,30,0,11,,,,,,,,,10,,,,81,112
144423,note_on,60,0,12,,,,,,,,,11,,,,67,0
144428,note_on,30,0,13,,,,,,,,,12,,,,62,112
144432,note_on,60,0,14,,,,,,,,,13,,,,45,0
144434,note_on,60,0,15,,,,,,,,,14,,,,33,0
144450,note_on,30,0,11,,,,,,,,,10,,,,81,0
144458,note_on,30,0,13,,,,,,,,,12,,,,62,0
144480,note_on,30,0,11,,,,,,,,,10,,,,82,112
144480,set_tempo,120,1,0,,,,,,263158,,,,,,,,
144483,note_on,60,0,12,,,,,,,,,11,,,,67,112
144488,note_on,30,0,13,,,,,,,,,12,,,,61,112
144492,note_on,60,0,14,,,,,,,,,13,,,,45,112
144494,note_on,60,0,15,,,,,,,,,14,,,,33,112
144510,note_on,30,0,11,,,,,,,,,10,,,,82,0
144518,note_on,30,0,13,,,,,,,,,12,,,,61,0
144540,note_on,30,0,11,,,,,,,,,10,,,,81,112
144543,note_on,60,0,12,,,,,,,,,11,,,,67,0
144548,note_on,30,0,13,,,,,,,,,12,,,,62,112
144552,note_on,60,0,14,,,,,,,,,13,,,,45,0
144554,note_on,60,0,15,,,,,,,,,14,,,,33,0
144570,note_on,30,0,11,,,,,,,,,10,,,,81,0
144578,note_on,30,0,13,,,,,,,,,12,,,,62,0
144600,set_tempo,120,1,0,,,,,,288462,,,,,,,,
144600,note_on,30,0,11,,,,,,,,,10,,,,82,112
144603,note_on,60,0,12,,,,,,,,,11,,,,67,112
144608,note_on,30,0,13,,,,,,,,,12,,,,61,112
144612,note_on,60,0,14,,,,,,,,,13,,,,45,112
144614,note_on,60,0,15,,,,,,,,,14,,,,33,112
144630,note_on,30,0,11,,,,,,,,,10,,,,82,0
144638,note_on,30,0,13,,,,,,,,,12,,,,61,0
144660,note_on,30,0,11,,,,,,,,,10,,,,81,112
144663,note_on,60,0,12,,,,,,,,,11,,,,67,0
144668,note_on,30,0,13,,,,,,,,,12,,,,62,112
144672,note_on,60,0,14,,,,,,,,,13,,,,45,0
144674,note_on,60,0,15,,,,,,,,,14,,,,33,0
144690,note_on,30,0,11,,,,,,,,,10,,,,81,0
144698,note_on,30,0,13,,,,,,,,,12,,,,62,0
144720,note_on,30,0,11,,,,,,,,,10,,,,86,112
144720,set_tempo,120,1,0,,,,,,254237,,,,,,,,
144723,note_on,60,0,12,,,,,,,,,11,,,,65,112
144728,note_on,30,0,13,,,,,,,,,12,,,,62,112
144732,note_on,60,0,14,,,,,,,,,13,,,,38,112
144734,note_on,60,0,15,,,,,,,,,14,,,,26,112
144780,note_on,60,0,11,,,,,,,,,10,,,,86,0
144783,note_on,60,0,12,,,,,,,,,11,,,,65,0
144788,note_on,60,0,13,,,,,,,,,12,,,,62,0
144792,note_on,60,0,14,,,,,,,,,13,,,,38,0
144794,note_on,60,0,15,,,,,,,,,14,,,,26,0
144840,set_tempo,120,1,0,,,,,,263158,,,,,,,,
144840,note_on,60,0,11,,,,,,,,,10,,,,86,112
144900,note_on,60,0,11,,,,,,,,,10,,,,86,0
144960,set_tempo,120,1,0,,,,,,307692,,,,,,,,
144960,note_on,60,0,11,,,,,,,,,10,,,,86,112
145020,note_on,60,0,11,,,,,,,,,10,,,,86,0
145080,set_tempo,120,1,0,,,,,,254237,,,,,,,,
145081,control_change,4680,0,1,,,,,,,,,0,11,42,,,
145081,note_on,0,0,1,,,,,,,,,0,,,,79,116
145083,note_on,0,0,5,,,,,,,,,4,,,,65,100
145083,control_change,2880,0,5,,,,,,,,,4,11,47,,,
145084,control_change,2915,0,2,,,,,,,,,1,11,42,,,
145084,control_change,0,0,6,,,,,,,,,5,11,47,,,
145084,note_on,2880,0,6,,,,,,,,,5,,,,62,100
145084,note_on,0,0,2,,,,,,,,,1,,,,65,100
145084,note_on,0,0,2,,,,,,,,,1,,,,67,115
145085,control_change,2915,0,3,,,,,,,,,2,11,42,,,
145085,note_on,0,0,3,,,,,,,,,2,,,,67,116
145089,note_on,0,0,4,,,,,,,,,3,,,,59,100
145089,note_on,0,0,4,,,,,,,,,3,,,,55,100
145089,control_change,2915,0,4,,,,,,,,,3,11,42,,,
145111,note_on,30,0,1,,,,,,,,,0,,,,79,0
145114,note_on,30,0,2,,,,,,,,,1,,,,67,0
145115,note_on,30,0,3,,,,,,,,,2,,,,67,0
145141,note_on,30,0,1,,,,,,,,,0,,,,79,101
145144,note_on,30,0,2,,,,,,,,,1,,,,67,100
145145,note_on,30,0,3,,,,,,,,,2,,,,67,101
145171,note_on,30,0,1,,,,,,,,,0,,,,79,0
145174,note_on,30,0,2,,,,,,,,,1,,,,67,0
145175,note_on,30,0,3,,,,,,,,,2,,,,67,0
145200,set_tempo,120,1,0,,,,,,263158,,,,,,,,
145201,note_on,30,0,1,,,,,,,,,0,,,,81,101
145204,note_on,30,0,2,,,,,,,,,1,,,,69,100
145205,note_on,30,0,3,,,,,,,,,2,,,,69,101
145261,note_on,60,0,1,,,,,,,,,0,,,,81,0
145261,note_on,0,0,1,,,,,,,,,0,,,,79,101
145264,note_on,60,0,2,,,,,,,,,1,,,,69,0
145264,note_on,0,0,2,,,,,,,,,1,,,,67,100
145265,note_on,0,0,3,,,,,,,,,2,,,,67,101
145265,note_on,60,0,3,,,,,,,,,2,,,,69,0
145320,set_tempo,120,1,0,,,,,,288462,,,,,,,,
145321,note_on,0,0,1,,,,,,,,,0,,,,81,101
145321,note_on,60,0,1,,,,,,,,,0,,,,79,0
145324,note_on,0,0,2,,,,,,,,,1,,,,69,100
145324,note_on,60,0,2,,,,,,,,,1,,,,67,0
145325,note_on,60,0,3,,,,,,,,,2,,,,67,0
145325,note_on,0,0,3,,,,,,,,,2,,,,69,101
145354,note_on,30,0,2,,,,,,,,,1,,,,65,0
145381,note_on,60,0,1,,,,,,,,,0,,,,81,0
145381,note_on,0,0,1,,,,,,,,,0,,,,79,101
145384,note_on,0,0,2,,,,,,,,,1,,,,67,100
145384,note_on,30,0,2,,,,,,,,,1,,,,69,0
145385,note_on,60,0,3,,,,,,,,,2,,,,69,0
145385,note_on,0,0,3,,,,,,,,,2,,,,67,101
145440,set_tempo,120,1,0,,,,,,258621,,,,,,,,
145441,note_on,0,0,1,,,,,,,,,0,,,,84,101
145441,note_on,60,0,1,,,,,,,,,0,,,,79,0
145443,note_on,360,0,5,,,,,,,,,4,,,,65,0
145443,note_on,0,0,5,,,,,,,,,4,,,,64,100
145444,note_on,0,0,2,,,,,,,,,1,,,,72,100
145444,note_on,0,0,2,,,,,,,,,1,,,,64,100
145444,note_on,60,0,2,,,,,,,,,1,,,,67,0
145444,note_on,360,0,6,,,,,,,,,5,,,,62,0
145444,note_on,0,0,6,,,,,,,,,5,,,,60,100
145445,note_on,60,0,3,,,,,,,,,2,,,,67,0
145445,note_on,0,0,3,,,,,,,,,2,,,,72,101
145449,note_on,0,0,4,,,,,,,,,3,,,,60,100
145449,note_on,0,0,4,,,,,,,,,3,,,,57,100
145449,note_on,0,0,4,,,,,,,,,3,,,,55,0
145449,note_on,360,0,4,,,,,,,,,3,,,,59,0
145501,note_on,60,0,1,,,,,,,,,0,,,,84,0
145503,note_on,60,0,5,,,,,,,,,4,,,,64,0
145504,note_on,60,0,6,,,,,,,,,5,,,,60,0
145504,note_on,60,0,2,,,,,,,,,1,,,,72,0
145504,note_on,0,0,2,,,,,,,,,1,,,,64,0
145505,note_on,60,0,3,,,,,,,,,2,,,,72,0
145509,note_on,60,0,4,,,,,,,,,3,,,,60,0
145509,note_on,0,0,4,,,,,,,,,3,,,,57,0
145561,note_on,60,0,1,,,,,,,,,0,,,,84,101
145563,note_on,60,0,5,,,,,,,,,4,,,,64,100
145564,note_on,60,0,6,,,,,,,,,5,,,,60,100
145564,note_on,60,0,2,,,,,,,,,1,,,,72,100
145564,note_on,0,0,2,,,,,,,,,1,,,,64,100
145565,note_on,60,0,3,,,,,,,,,2,,,,72,101
145569,note_on,60,0,4,,,,,,,,,3,,,,57,100
145621,note_on,60,0,1,,,,,,,,,0,,,,84,0
145623,note_on,60,0,5,,,,,,,,,4,,,,64,0
145624,note_on,0,0,2,,,,,,,,,1,,,,72,0
145624,note_on,60,0,6,,,,,,,,,5,,,,60,0
145624,note_on,60,0,2,,,,,,,,,1,,,,64,0
145625,note_on,60,0,3,,,,,,,,,2,,,,72,0
145629,note_on,60,0,4,,,,,,,,,3,,,,57,0
145680,set_tempo,240,1,0,,,,,,288462,,,,,,,,
145681,note_on,60,0,1,,,,,,,,,0,,,,84,101
145683,note_on,60,0,5,,,,,,,,,4,,,,64,100
145684,note_on,0,0,2,,,,,,,,,1,,,,64,100
145684,note_on,60,0,6,,,,,,,,,5,,,,60,100
145684,note_on,60,0,2,,,,,,,,,1,,,,72,100
145685,note_on,60,0,3,,,,,,,,,2,,,,72,101
145689,note_on,60,0,4,,,,,,,,,3,,,,57,100
145741,note_on,60,0,1,,,,,,,,,0,,,,84,0
145743,note_on,60,0,5,,,,,,,,,4,,,,64,0
145744,note_on,0,0,2,,,,,,,,,1,,,,72,0
145744,note_on,60,0,2,,,,,,,,,1,,,,64,0
145744,note_on,60,0,6,,,,,,,,,5,,,,60,0
145745,note_on,60,0,3,,,,,,,,,2,,,,72,0
145749,note_on,60,0,4,,,,,,,,,3,,,,57,0
145800,set_tempo,120,1,0,,,,,,254237,,,,,,,,
145801,note_on,60,0,1,,,,,,,,,0,,,,86,101
145803,note_on,60,0,5,,,,,,,,,4,,,,62,100
145804,note_on,0,0,2,,,,,,,,,1,,,,74,100
145804,note_on,60,0,6,,,,,,,,,5,,,,57,100
145804,note_on,60,0,2,,,,,,,,,1,,,,69,100
145805,note_on,0,0,3,,,,,,,,,2,,,,69,101
145805,note_on,60,0,3,,,,,,,,,2,,,,74,101
145809,note_on,60,0,4,,,,,,,,,3,,,,53,100
145861,note_on,0,0,1,,,,,,,,,0,,,,88,101
145861,note_on,60,0,1,,,,,,,,,0,,,,86,0
145864,note_on,0,0,2,,,,,,,,,1,,,,76,100
145864,note_on,60,0,2,,,,,,,,,1,,,,74,0
145865,note_on,0,0,3,,,,,,,,,2,,,,76,101
145865,note_on,60,0,3,,,,,,,,,2,,,,74,0
145920,set_tempo,120,1,0,,,,,,263158,,,,,,,,
145921,note_on,60,0,1,,,,,,,,,0,,,,88,0
145921,note_on,0,0,1,,,,,,,,,0,,,,89,101
145924,note_on,60,0,2,,,,,,,,,1,,,,76,0
145924,note_on,0,0,2,,,,,,,,,1,,,,77,100
145925,note_on,0,0,3,,,,,,,,,2,,,,77,101
145925,note_on,60,0,3,,,,,,,,,2,,,,76,0
145981,note_on,0,0,1,,,,,,,,,0,,,,91,101
145981,note_on,60,0,1,,,,,,,,,0,,,,89,0
145984,note_on,0,0,2,,,,,,,,,1,,,,79,100
145984,note_on,60,0,2,,,,,,,,,1,,,,77,0
145985,note_on,0,0,3,,,,,,,,,2,,,,79,101
145985,note_on,60,0,3,,,,,,,,,2,,,,77,0
146040,set_tempo,120,1,0,,,,,,315789,,,,,,,,
146041,note_on,60,0,1,,,,,,,,,0,,,,91,0
146041,note_on,0,0,1,,,,,,,,,0,,,,93,101
146043,note_on,240,0,5,,,,,,,,,4,,,,62,0
146043,note_on,0,0,5,,,,,,,,,4,,,,65,100
146044,note_on,0,0,6,,,,,,,,,5,,,,62,100
146044,note_on,240,0,6,,,,,,,,,5,,,,57,0
146044,note_on,0,0,2,,,,,,,,,1,,,,69,100
146044,note_on,0,0,2,,,,,,,,,1,,,,81,100
146044,note_on,60,0,2,,,,,,,,,1,,,,79,0
146044,note_on,0,0,2,,,,,,,,,1,,,,69,0
146045,note_on,60,0,3,,,,,,,,,2,,,,79,0
146045,note_on,0,0,3,,,,,,,,,2,,,,69,0
146045,note_on,0,0,3,,,,,,,,,2,,,,81,101
146045,note_on,0,0,3,,,,,,,,,2,,,,69,101
146049,note_on,240,0,4,,,,,,,,,3,,,,53,0
146049,note_on,0,0,4,,,,,,,,,3,,,,50,100
146101,note_on,60,0,1,,,,,,,,,0,,,,93,0
146104,note_on,60,0,2,,,,,,,,,1,,,,81,0
146105,note_on,60,0,3,,,,,,,,,2,,,,81,0
146160,set_tempo,120,1,0,,,,,,254237,,,,,,,,
146161,control_change,0,0,1,,,,,,,,,0,11,47,,,
146161,note_on,60,0,1,,,,,,,,,0,,,,88,101
146163,note_on,120,0,5,,,,,,,,,4,,,,65,0
146163,control_change,0,0,5,,,,,,,,,4,11,52,,,
146163,note_on,0,0,5,,,,,,,,,4,,,,64,100
146164,note_on,0,0,2,,,,,,,,,1,,,,76,100
146164,control_change,0,0,2,,,,,,,,,1,11,47,,,
146164,note_on,60,0,2,,,,,,,,,1,,,,69,0
146164,note_on,120,0,6,,,,,,,,,5,,,,62,0
146164,control_change,0,0,6,,,,,,,,,5,11,52,,,
146164,note_on,0,0,6,,,,,,,,,5,,,,60,100
146165,control_change,4,0,1,,,,,,,,,0,11,50,,,
146165,note_on,0,0,3,,,,,,,,,2,,,,76,101
146165,note_on,0,0,3,,,,,,,,,2,,,,69,101
146165,control_change,0,0,3,,,,,,,,,2,11,47,,,
146165,note_on,60,0,3,,,,,,,,,2,,,,69,0
146167,control_change,4,0,5,,,,,,,,,4,11,55,,,
146168,control_change,4,0,6,,,,,,,,,5,11,55,,,
146168,control_change,4,0,2,,,,,,,,,1,11,50,,,
146169,control_change,4,0,3,,,,,,,,,2,11,50,,,
146169,note_on,120,0,4,,,,,,,,,3,,,,50,0
146169,control_change,0,0,4,,,,,,,,,3,11,47,,,
146169,note_on,0,0,4,,,,,,,,,3,,,,57,100
146172,control_change,5,0,5,,,,,,,,,4,11,58,,,
146173,control_change,5,0,6,,,,,,,,,5,11,58,,,
146173,control_change,4,0,4,,,,,,,,,3,11,50,,,
146174,control_change,9,0,1,,,,,,,,,0,11,55,,,
146176,control_change,4,0,5,,,,,,,,,4,11,61,,,
146177,control_change,4,0,6,,,,,,,,,5,11,61,,,
146177,control_change,9,0,2,,,,,,,,,1,11,55,,,
146178,control_change,9,0,3,,,,,,,,,2,11,55,,,
146178,control_change,5,0,4,,,,,,,,,3,11,53,,,
146181,control_change,5,0,5,,,,,,,,,4,11,64,,,
146182,control_change,4,0,4,,,,,,,,,3,11,56,,,
146182,control_change,5,0,6,,,,,,,,,5,11,64,,,
146183,control_change,9,0,1,,,,,,,,,0,11,59,,,
146185,control_change,4,0,5,,,,,,,,,4,11,67,,,
146186,control_change,4,0,6,,,,,,,,,5,11,67,,,
146186,control_change,9,0,2,,,,,,,,,1,11,59,,,
146187,control_change,9,0,3,,,,,,,,,2,11,59,,,
146187,control_change,5,0,4,,,,,,,,,3,11,59,,,
146190,control_change,5,0,5,,,,,,,,,4,11,70,,,
146191,control_change,4,0,4,,,,,,,,,3,11,62,,,
146191,control_change,5,0,6,,,,,,,,,5,11,70,,,
146196,control_change,5,0,4,,,,,,,,,3,11,65,,,
146205,control_change,22,0,1,,,,,,,,,0,11,60,,,
146207,control_change,17,0,5,,,,,,,,,4,11,68,,,
146208,control_change,17,0,6,,,,,,,,,5,11,68,,,
146208,control_change,22,0,2,,,,,,,,,1,11,60,,,
146209,control_change,22,0,3,,,,,,,,,2,11,60,,,
146213,control_change,17,0,4,,,,,,,,,3,11,63,,,
146218,control_change,11,0,5,,,,,,,,,4,11,65,,,
146219,control_change,11,0,6,,,,,,,,,5,11,65,,,
146224,control_change,11,0,4,,,,,,,,,3,11,60,,,
146227,control_change,22,0,1,,,,,,,,,0,11,55,,,
146229,control_change,11,0,5,,,,,,,,,4,11,62,,,
146230,control_change,11,0,6,,,,,,,,,5,11,62,,,
146230,control_change,22,0,2,,,,,,,,,1,11,55,,,
146231,control_change,22,0,3,,,,,,,,,2,11,55,,,
146235,control_change,11,0,4,,,,,,,,,3,11,57,,,
146239,control_change,10,0,5,,,,,,,,,4,11,59,,,
146240,control_change,10,0,6,,,,,,,,,5,11,59,,,
146245,control_change,10,0,4,,,,,,,,,3,11,54,,,
146248,control_change,21,0,1,,,,,,,,,0,11,51,,,
146250,control_change,11,0,5,,,,,,,,,4,11,56,,,
146251,control_change,21,0,2,,,,,,,,,1,11,51,,,
146251,control_change,11,0,6,,,,,,,,,5,11,56,,,
146252,control_change,21,0,3,,,,,,,,,2,11,51,,,
146256,control_change,11,0,4,,,,,,,,,3,11,51,,,
146259,control_change,11,0,1,,,,,,,,,0,11,48,,,
146261,control_change,11,0,5,,,,,,,,,4,11,53,,,
146262,control_change,11,0,2,,,,,,,,,1,11,48,,,
146262,control_change,11,0,6,,,,,,,,,5,11,53,,,
146263,control_change,11,0,3,,,,,,,,,2,11,48,,,
146267,control_change,11,0,4,,,,,,,,,3,11,48,,,
146270,control_change,11,0,1,,,,,,,,,0,11,45,,,
146272,control_change,11,0,5,,,,,,,,,4,11,50,,,
146273,control_change,11,0,2,,,,,,,,,1,11,45,,,
146273,control_change,11,0,6,,,,,,,,,5,11,50,,,
146274,control_change,11,0,3,,,,,,,,,2,11,45,,,
146278,control_change,11,0,4,,,,,,,,,3,11,45,,,
146280,set_tempo,120,1,0,,,,,,263158,,,,,,,,
146281,control_change,11,0,1,,,,,,,,,0,11,42,,,
146283,control_change,11,0,5,,,,,,,,,4,11,47,,,
146284,control_change,11,0,2,,,,,,,,,1,11,42,,,
146284,control_change,11,0,6,,,,,,,,,5,11,47,,,
146285,control_change,11,0,3,,,,,,,,,2,11,42,,,
146289,control_change,11,0,4,,,,,,,,,3,11,42,,,
146400,set_tempo,120,1,0,,,,,,307692,,,,,,,,
146496,note_on,215,0,1,,,,,,,,,0,,,,88,0
146499,note_on,215,0,2,,,,,,,,,1,,,,76,0
146500,note_on,215,0,3,,,,,,,,,2,,,,69,0
146500,note_on,0,0,3,,,,,,,,,2,,,,76,0
146504,note_on,215,0,4,,,,,,,,,3,,,,57,0
146520,set_tempo,120,1,0,,,,,,254237,,,,,,,,
146520,note_on,1500,0,11,,,,,,,,,10,,,,77,127
146523,note_on,1740,0,12,,,,,,,,,11,,,,69,112
146523,note_on,240,0,5,,,,,,,,,4,,,,64,0
146524,note_on,240,0,6,,,,,,,,,5,,,,60,0
146550,note_on,30,0,11,,,,,,,,,10,,,,77,0
146580,note_on,30,0,11,,,,,,,,,10,,,,77,112
146583,note_on,60,0,12,,,,,,,,,11,,,,69,0
146610,note_on,30,0,11,,,,,,,,,10,,,,77,0
146640,note_on,30,0,11,,,,,,,,,10,,,,79,112
146640,set_tempo,120,1,0,,,,,,263158,,,,,,,,
146643,note_on,60,0,12,,,,,,,,,11,,,,69,112
146670,note_on,30,0,11,,,,,,,,,10,,,,79,0
146700,note_on,30,0,11,,,,,,,,,10,,,,77,112
146703,note_on,60,0,12,,,,,,,,,11,,,,69,0
146730,note_on,30,0,11,,,,,,,,,10,,,,77,0
146760,note_on,30,0,11,,,,,,,,,10,,,,79,112
146760,set_tempo,120,1,0,,,,,,288462,,,,,,,,
146763,note_on,60,0,12,,,,,,,,,11,,,,69,112
146790,note_on,30,0,11,,,,,,,,,10,,,,79,0
146820,note_on,30,0,11,,,,,,,,,10,,,,77,112
146823,note_on,60,0,12,,,,,,,,,11,,,,69,0
146850,note_on,30,0,11,,,,,,,,,10,,,,77,0
146880,note_on,30,0,11,,,,,,,,,10,,,,74,112
146880,set_tempo,120,1,0,,,,,,254237,,,,,,,,
146883,note_on,60,0,12,,,,,,,,,11,,,,70,127
146913,note_on,30,0,12,,,,,,,,,11,,,,70,0
146940,note_on,60,0,11,,,,,,,,,10,,,,74,0
146943,note_on,30,0,12,,,,,,,,,11,,,,70,112
146973,note_on,30,0,12,,,,,,,,,11,,,,70,0
147000,set_tempo,120,1,0,,,,,,263158,,,,,,,,
147000,note_on,60,0,11,,,,,,,,,10,,,,74,112
147003,note_on,30,0,12,,,,,,,,,11,,,,72,112
147033,note_on,30,0,12,,,,,,,,,11,,,,72,0
147060,note_on,60,0,11,,,,,,,,,10,,,,74,0
147063,note_on,30,0,12,,,,,,,,,11,,,,70,112
147093,note_on,30,0,12,,,,,,,,,11,,,,70,0
147120,set_tempo,120,1,0,,,,,,288462,,,,,,,,
147120,note_on,60,0,11,,,,,,,,,10,,,,74,112
147123,note_on,30,0,12,,,,,,,,,11,,,,72,112
147153,note_on,30,0,12,,,,,,,,,11,,,,72,0
147180,note_on,60,0,11,,,,,,,,,10,,,,74,0
147183,note_on,30,0,12,,,,,,,,,11,,,,70,112
147213,note_on,30,0,12,,,,,,,,,11,,,,70,0
147240,note_on,60,0,11,,,,,,,,,10,,,,72,112
147240,set_tempo,120,1,0,,,,,,254237,,,,,,,,
147243,note_on,30,0,12,,,,,,,,,11,,,,68,112
147248,note_on,2460,0,13,,,,,,,,,12,,,,65,127
147278,note_on,30,0,13,,,,,,,,,12,,,,65,0
147300,note_on,60,0,11,,,,,,,,,10,,,,72,0
147303,note_on,60,0,12,,,,,,,,,11,,,,68,0
147308,note_on,30,0,13,,,,,,,,,12,,,,65,112
147338,note_on,30,0,13,,,,,,,,,12,,,,65,0
147360,note_on,60,0,11,,,,,,,,,10,,,,72,112
147360,set_tempo,120,1,0,,,,,,263158,,,,,,,,
147363,note_on,60,0,12,,,,,,,,,11,,,,68,112
147368,note_on,30,0,13,,,,,,,,,12,,,,67,112
147398,note_on,30,0,13,,,,,,,,,12,,,,67,0
147420,note_on,60,0,11,,,,,,,,,10,,,,72,0
147423,note_on,60,0,12,,,,,,,,,11,,,,68,0
147428,note_on,30,0,13,,,,,,,,,12,,,,65,112
147458,note_on,30,0,13,,,,,,,,,12,,,,65,0
147480,note_on,60,0,11,,,,,,,,,10,,,,72,112
147480,set_tempo,120,1,0,,,,,,288462,,,,,,,,
147483,note_on,60,0,12,,,,,,,,,11,,,,68,112
147488,note_on,30,0,13,,,,,,,,,12,,,,67,112
147518,note_on,30,0,13,,,,,,,,,12,,,,67,0
147540,note_on,60,0,11,,,,,,,,,10,,,,72,0
147543,note_on,60,0,12,,,,,,,,,11,,,,68,0
147548,note_on,30,0,13,,,,,,,,,12,,,,65,112
147578,note_on,30,0,13,,,,,,,,,12,,,,65,0
147600,set_tempo,120,1,0,,,,,,254237,,,,,,,,
147600,note_on,60,0,11,,,,,,,,,10,,,,71,112
147603,note_on,60,0,12,,,,,,,,,11,,,,67,112
147608,note_on,30,0,13,,,,,,,,,12,,,,62,112
147612,note_on,2820,0,14,,,,,,,,,13,,,,55,127
147642,note_on,30,0,14,,,,,,,,,13,,,,55,0
147668,note_on,60,0,13,,,,,,,,,12,,,,62,0
147672,note_on,30,0,14,,,,,,,,,13,,,,55,112
147702,note_on,30,0,14,,,,,,,,,13,,,,55,0
147720,set_tempo,120,1,0,,,,,,263158,,,,,,,,
147728,note_on,60,0,13,,,,,,,,,12,,,,62,112
147732,note_on,30,0,14,,,,,,,,,13,,,,56,112
147762,note_on,30,0,14,,,,,,,,,13,,,,56,0
147788,note_on,60,0,13,,,,,,,,,12,,,,62,0
147792,note_on,30,0,14,,,,,,,,,13,,,,55,112
147822,note_on,30,0,14,,,,,,,,,13,,,,55,0
147840,set_tempo,120,1,0,,,,,,288462,,,,,,,,
147848,note_on,60,0,13,,,,,,,,,12,,,,62,112
147852,note_on,30,0,14,,,,,,,,,13,,,,56,112
147882,note_on,30,0,14,,,,,,,,,13,,,,56,0
147908,note_on,60,0,13,,,,,,,,,12,,,,62,0
147912,note_on,30,0,14,,,,,,,,,13,,,,55,112
147942,note_on,30,0,14,,,,,,,,,13,,,,55,0
147960,note_on,0,0,11,,,,,,,,,10,,,,72,112
147960,note_on,360,0,11,,,,,,,,,10,,,,71,0
147960,set_tempo,120,1,0,,,,,,254237,,,,,,,,
147963,note_on,360,0,12,,,,,,,,,11,,,,67,0
147963,note_on,0,0,12,,,,,,,,,11,,,,63,112
147968,note_on,60,0,13,,,,,,,,,12,,,,60,112
147972,note_on,30,0,14,,,,,,,,,13,,,,48,127
147974,note_on,3180,0,15,,,,,,,,,14,,,,36,127
148002,note_on,30,0,14,,,,,,,,,13,,,,48,0
148004,note_on,30,0,15,,,,,,,,,14,,,,36,0
148020,note_on,60,0,11,,,,,,,,,10,,,,72,0
148032,note_on,30,0,14,,,,,,,,,13,,,,48,112
148034,note_on,30,0,15,,,,,,,,,14,,,,36,112
148062,note_on,30,0,14,,,,,,,,,13,,,,48,0
148064,note_on,30,0,15,,,,,,,,,14,,,,36,0
148080,note_on,60,0,11,,,,,,,,,10,,,,72,112
148080,set_tempo,120,1,0,,,,,,263158,,,,,,,,
148092,note_on,30,0,14,,,,,,,,,13,,,,50,112
148094,note_on,30,0,15,,,,,,,,,14,,,,38,112
148122,note_on,30,0,14,,,,,,,,,13,,,,50,0
148124,note_on,30,0,15,,,,,,,,,14,,,,38,0
148140,note_on,60,0,11,,,,,,,,,10,,,,72,0
148152,note_on,30,0,14,,,,,,,,,13,,,,48,112
148154,note_on,30,0,15,,,,,,,,,14,,,,36,112
148182,note_on,30,0,14,,,,,,,,,13,,,,48,0
148184,note_on,30,0,15,,,,,,,,,14,,,,36,0
148200,note_on,60,0,11,,,,,,,,,10,,,,72,112
148200,set_tempo,120,1,0,,,,,,288462,,,,,,,,
148212,note_on,30,0,14,,,,,,,,,13,,,,50,112
148214,note_on,30,0,15,,,,,,,,,14,,,,38,112
148242,note_on,30,0,14,,,,,,,,,13,,,,50,0
148244,note_on,30,0,15,,,,,,,,,14,,,,38,0
148260,note_on,60,0,11,,,,,,,,,10,,,,72,0
148272,note_on,30,0,14,,,,,,,,,13,,,,48,112
148274,note_on,30,0,15,,,,,,,,,14,,,,36,112
148302,note_on,30,0,14,,,,,,,,,13,,,,48,0
148304,note_on,30,0,15,,,,,,,,,14,,,,36,0
148320,note_on,60,0,11,,,,,,,,,10,,,,74,112
148320,set_tempo,120,1,0,,,,,,254237,,,,,,,,
148323,note_on,360,0,12,,,,,,,,,11,,,,63,0
148323,note_on,0,0,12,,,,,,,,,11,,,,66,127
148328,note_on,0,0,13,,,,,,,,,12,,,,60,112
148328,note_on,360,0,13,,,,,,,,,12,,,,60,0
148332,note_on,30,0,14,,,,,,,,,13,,,,44,112
148334,note_on,30,0,15,,,,,,,,,14,,,,32,112
148353,note_on,30,0,12,,,,,,,,,11,,,,66,0
148380,note_on,60,0,11,,,,,,,,,10,,,,74,0
148383,note_on,30,0,12,,,,,,,,,11,,,,66,112
148388,note_on,60,0,13,,,,,,,,,12,,,,60,0
148392,note_on,60,0,14,,,,,,,,,13,,,,44,0
148394,note_on,60,0,15,,,,,,,,,14,,,,32,0
148413,note_on,30,0,12,,,,,,,,,11,,,,66,0
148440,note_on,60,0,11,,,,,,,,,10,,,,74,112
148440,set_tempo,120,1,0,,,,,,263158,,,,,,,,
148443,note_on,30,0,12,,,,,,,,,11,,,,67,112
148448,note_on,60,0,13,,,,,,,,,12,,,,60,112
148452,note_on,60,0,14,,,,,,,,,13,,,,44,112
148454,note_on,60,0,15,,,,,,,,,14,,,,32,112
148473,note_on,30,0,12,,,,,,,,,11,,,,67,0
148500,note_on,60,0,11,,,,,,,,,10,,,,74,0
148503,note_on,30,0,12,,,,,,,,,11,,,,66,112
148508,note_on,60,0,13,,,,,,,,,12,,,,60,0
148512,note_on,60,0,14,,,,,,,,,13,,,,44,0
148514,note_on,60,0,15,,,,,,,,,14,,,,32,0
148533,note_on,30,0,12,,,,,,,,,11,,,,66,0
148560,note_on,60,0,11,,,,,,,,,10,,,,74,112
148560,set_tempo,120,1,0,,,,,,288462,,,,,,,,
148563,note_on,30,0,12,,,,,,,,,11,,,,67,112
148568,note_on,60,0,13,,,,,,,,,12,,,,60,112
148572,note_on,60,0,14,,,,,,,,,13,,,,44,112
148574,note_on,60,0,15,,,,,,,,,14,,,,32,112
148593,note_on,30,0,12,,,,,,,,,11,,,,67,0
148620,note_on,60,0,11,,,,,,,,,10,,,,74,0
148623,note_on,30,0,12,,,,,,,,,11,,,,66,112
148628,note_on,60,0,13,,,,,,,,,12,,,,60,0
148632,note_on,60,0,14,,,,,,,,,13,,,,44,0
148634,note_on,60,0,15,,,,,,,,,14,,,,32,0
148653,note_on,30,0,12,,,,,,,,,11,,,,66,0
148680,note_on,60,0,11,,,,,,,,,10,,,,79,127
148680,set_tempo,120,1,0,,,,,,254237,,,,,,,,
148683,note_on,30,0,12,,,,,,,,,11,,,,65,112
148688,note_on,60,0,13,,,,,,,,,12,,,,59,127
148692,note_on,60,0,14,,,,,,,,,13,,,,43,112
148694,note_on,60,0,15,,,,,,,,,14,,,,31,112
148710,note_on,30,0,11,,,,,,,,,10,,,,79,0
148718,note_on,30,0,13,,,,,,,,,12,,,,59,0
148740,note_on,30,0,11,,,,,,,,,10,,,,79,112
148743,note_on,60,0,12,,,,,,,,,11,,,,65,0
148748,note_on,30,0,13,,,,,,,,,12,,,,59,112
148752,note_on,60,0,14,,,,,,,,,13,,,,43,0
148754,note_on,60,0,15,,,,,,,,,14,,,,31,0
148770,note_on,30,0,11,,,,,,,,,10,,,,79,0
148778,note_on,30,0,13,,,,,,,,,12,,,,59,0
148800,set_tempo,120,1,0,,,,,,263158,,,,,,,,
148800,note_on,30,0,11,,,,,,,,,10,,,,81,112
148803,note_on,60,0,12,,,,,,,,,11,,,,65,112
148808,note_on,30,0,13,,,,,,,,,12,,,,60,112
148812,note_on,60,0,14,,,,,,,,,13,,,,43,112
148814,note_on,60,0,15,,,,,,,,,14,,,,31,112
148830,note_on,30,0,11,,,,,,,,,10,,,,81,0
148838,note_on,30,0,13,,,,,,,,,12,,,,60,0
148860,note_on,30,0,11,,,,,,,,,10,,,,79,112
148863,note_on,60,0,12,,,,,,,,,11,,,,65,0
148868,note_on,30,0,13,,,,,,,,,12,,,,59,112
148872,note_on,60,0,14,,,,,,,,,13,,,,43,0
148874,note_on,60,0,15,,,,,,,,,14,,,,31,0
148890,note_on,30,0,11,,,,,,,,,10,,,,79,0
148898,note_on,30,0,13,,,,,,,,,12,,,,59,0
148920,note_on,30,0,11,,,,,,,,,10,,,,81,112
148920,set_tempo,120,1,0,,,,,,288462,,,,,,,,
148923,note_on,60,0,12,,,,,,,,,11,,,,65,112
148928,note_on,30,0,13,,,,,,,,,12,,,,60,112
148932,note_on,60,0,14,,,,,,,,,13,,,,43,112
148934,note_on,60,0,15,,,,,,,,,14,,,,43,112
148950,note_on,30,0,11,,,,,,,,,10,,,,81,0
148958,note_on,30,0,13,,,,,,,,,12,,,,60,0
148980,note_on,30,0,11,,,,,,,,,10,,,,79,112
148983,note_on,60,0,12,,,,,,,,,11,,,,65,0
148988,note_on,30,0,13,,,,,,,,,12,,,,59,112
148992,note_on,60,0,14,,,,,,,,,13,,,,43,0
148994,note_on,60,0,15,,,,,,,,,14,,,,43,0
149010,note_on,30,0,11,,,,,,,,,10,,,,79,0
149018,note_on,30,0,13,,,,,,,,,12,,,,59,0
149040,set_tempo,120,1,0,,,,,,258621,,,,,,,,
149040,note_on,30,0,11,,,,,,,,,10,,,,84,112
149043,note_on,60,0,12,,,,,,,,,11,,,,64,112
149048,note_on,30,0,13,,,,,,,,,12,,,,60,112
149052,note_on,60,0,14,,,,,,,,,13,,,,36,112
149054,note_on,60,0,15,,,,,,,,,14,,,,36,112
149100,note_on,60,0,11,,,,,,,,,10,,,,84,0
149103,note_on,60,0,12,,,,,,,,,11,,,,64,0
149108,note_on,60,0,13,,,,,,,,,12,,,,60,0
149112,note_on,60,0,14,,,,,,,,,13,,,,36,0
149114,note_on,60,0,15,,,,,,,,,14,,,,36,0
149160,note_on,60,0,11,,,,,,,,,10,,,,84,112
149220,note_on,60,0,11,,,,,,,,,10,,,,84,0
149280,note_on,60,0,11,,,,,,,,,10,,,,84,112
149280,set_tempo,240,1,0,,,,,,288462,,,,,,,,
149340,note_on,60,0,11,,,,,,,,,10,,,,84,0
149400,set_tempo,120,1,0,,,,,,254237,,,,,,,,
149412,note_on,0,0,14,,,,,,,,,13,,,,60,127
149412,control_change,300,0,14,,,,,,,,,13,11,45,,,
149414,note_on,0,0,15,,,,,,,,,14,,,,48,127
149414,control_change,300,0,15,,,,,,,,,14,11,45,,,
149442,note_on,30,0,14,,,,,,,,,13,,,,60,0
149444,note_on,30,0,15,,,,,,,,,14,,,,48,0
149472,note_on,30,0,14,,,,,,,,,13,,,,60,112
149474,note_on,30,0,15,,,,,,,,,14,,,,48,112
149502,note_on,30,0,14,,,,,,,,,13,,,,60,0
149504,note_on,30,0,15,,,,,,,,,14,,,,48,0
149520,set_tempo,120,1,0,,,,,,263158,,,,,,,,
149532,note_on,30,0,14,,,,,,,,,13,,,,62,112
149534,note_on,30,0,15,,,,,,,,,14,,,,50,112
149562,note_on,30,0,14,,,,,,,,,13,,,,62,0
149564,note_on,30,0,15,,,,,,,,,14,,,,50,0
149592,note_on,30,0,14,,,,,,,,,13,,,,60,112
149594,note_on,30,0,15,,,,,,,,,14,,,,48,112
149622,note_on,30,0,14,,,,,,,,,13,,,,60,0
149624,note_on,30,0,15,,,,,,,,,14,,,,48,0
149640,set_tempo,120,1,0,,,,,,288462,,,,,,,,
149641,control_change,3145,0,1,,,,,,,,,0,11,42,,,
149641,note_on,0,0,1,,,,,,,,,0,,,,84,116
149641,note_on,0,0,1,,,,,,,,,0,,,,72,116
149644,note_on,3145,0,2,,,,,,,,,1,,,,72,115
149644,control_change,0,0,2,,,,,,,,,1,11,42,,,
149645,control_change,0,0,3,,,,,,,,,2,11,42,,,
149645,note_on,3145,0,3,,,,,,,,,2,,,,72,116
149649,control_change,3145,0,4,,,,,,,,,3,11,42,,,
149649,note_on,0,0,4,,,,,,,,,3,,,,60,115
149652,note_on,30,0,14,,,,,,,,,13,,,,62,112
149654,note_on,30,0,15,,,,,,,,,14,,,,50,112
149682,note_on,30,0,14,,,,,,,,,13,,,,62,0
149684,note_on,30,0,15,,,,,,,,,14,,,,50,0
149712,note_on,30,0,14,,,,,,,,,13,,,,60,112
149714,note_on,30,0,15,,,,,,,,,14,,,,48,112
149736,note_on,95,0,1,,,,,,,,,0,,,,72,0
149736,note_on,0,0,1,,,,,,,,,0,,,,84,0
149739,note_on,95,0,2,,,,,,,,,1,,,,72,0
149740,note_on,95,0,3,,,,,,,,,2,,,,72,0
149742,note_on,30,0,14,,,,,,,,,13,,,,60,0
149744,note_on,30,0,15,,,,,,,,,14,,,,48,0
149744,note_on,95,0,4,,,,,,,,,3,,,,60,0
149760,control_change,420,0,11,,,,,,,,,10,11,45,,,
149760,note_on,0,0,11,,,,,,,,,10,,,,84,127
149760,set_tempo,120,1,0,,,,,,254237,,,,,,,,
149772,note_on,30,0,14,,,,,,,,,13,,,,57,112
149774,note_on,30,0,15,,,,,,,,,14,,,,45,112
149790,note_on,30,0,11,,,,,,,,,10,,,,84,0
149820,note_on,30,0,11,,,,,,,,,10,,,,84,112
149832,note_on,60,0,14,,,,,,,,,13,,,,57,0
149834,note_on,60,0,15,,,,,,,,,14,,,,45,0
149850,note_on,30,0,11,,,,,,,,,10,,,,84,0
149880,note_on,30,0,11,,,,,,,,,10,,,,86,112
149880,set_tempo,120,1,0,,,,,,263158,,,,,,,,
149892,note_on,60,0,14,,,,,,,,,13,,,,57,112
149894,note_on,60,0,15,,,,,,,,,14,,,,45,112
149910,note_on,30,0,11,,,,,,,,,10,,,,86,0
149940,note_on,30,0,11,,,,,,,,,10,,,,84,112
149952,note_on,60,0,14,,,,,,,,,13,,,,57,0
149954,note_on,60,0,15,,,,,,,,,14,,,,45,0
149970,note_on,30,0,11,,,,,,,,,10,,,,84,0
150000,set_tempo,120,1,0,,,,,,288462,,,,,,,,
150000,note_on,30,0,11,,,,,,,,,10,,,,86,112
150001,note_on,265,0,1,,,,,,,,,0,,,,84,116
150001,note_on,0,0,1,,,,,,,,,0,,,,72,116
150004,note_on,265,0,2,,,,,,,,,1,,,,72,115
150005,note_on,265,0,3,,,,,,,,,2,,,,72,116
150009,note_on,265,0,4,,,,,,,,,3,,,,60,115
150009,note_on,0,0,4,,,,,,,,,3,,,,57,115
150012,note_on,60,0,14,,,,,,,,,13,,,,57,112
150014,note_on,60,0,15,,,,,,,,,14,,,,45,112
150030,note_on,30,0,11,,,,,,,,,10,,,,86,0
150060,note_on,30,0,11,,,,,,,,,10,,,,84,112
150072,note_on,60,0,14,,,,,,,,,13,,,,57,0
150074,note_on,60,0,15,,,,,,,,,14,,,,45,0
150090,note_on,30,0,11,,,,,,,,,10,,,,84,0
150096,note_on,0,0,1,,,,,,,,,0,,,,84,0
150096,note_on,95,0,1,,,,,,,,,0,,,,72,0
150099,note_on,95,0,2,,,,,,,,,1,,,,72,0
150100,note_on,95,0,3,,,,,,,,,2,,,,72,0
150104,note_on,0,0,4,,,,,,,,,3,,,,60,0
150104,note_on,95,0,4,,,,,,,,,3,,,,57,0
150120,set_tempo,120,1,0,,,,,,254237,,,,,,,,
150120,note_on,30,0,11,,,,,,,,,10,,,,87,112
150123,control_change,1020,0,12,,,,,,,,,11,11,45,,,
150123,note_on,0,0,12,,,,,,,,,11,,,,82,127
150132,note_on,60,0,14,,,,,,,,,13,,,,55,112
150134,note_on,60,0,15,,,,,,,,,14,,,,43,112
150153,note_on,30,0,12,,,,,,,,,11,,,,82,0
150180,note_on,60,0,11,,,,,,,,,10,,,,87,0
150183,note_on,30,0,12,,,,,,,,,11,,,,82,112
150192,note_on,60,0,14,,,,,,,,,13,,,,55,0
150194,note_on,60,0,15,,,,,,,,,14,,,,43,0
150213,note_on,30,0,12,,,,,,,,,11,,,,82,0
150240,set_tempo,120,1,0,,,,,,263158,,,,,,,,
150240,note_on,60,0,11,,,,,,,,,10,,,,87,112
150243,note_on,30,0,12,,,,,,,,,11,,,,84,112
150252,note_on,60,0,14,,,,,,,,,13,,,,55,112
150254,note_on,60,0,15,,,,,,,,,14,,,,43,112
150273,note_on,30,0,12,,,,,,,,,11,,,,84,0
150300,note_on,60,0,11,,,,,,,,,10,,,,87,0
150303,note_on,30,0,12,,,,,,,,,11,,,,82,112
150312,note_on,60,0,14,,,,,,,,,13,,,,55,0
150314,note_on,60,0,15,,,,,,,,,14,,,,43,0
150333,note_on,30,0,12,,,,,,,,,11,,,,82,0
150360,note_on,60,0,11,,,,,,,,,10,,,,87,112
150360,set_tempo,120,1,0,,,,,,288462,,,,,,,,
150361,note_on,265,0,1,,,,,,,,,0,,,,82,116
150361,note_on,0,0,1,,,,,,,,,0,,,,87,116
150363,note_on,30,0,12,,,,,,,,,11,,,,84,112
150364,note_on,0,0,2,,,,,,,,,1,,,,70,115
150364,note_on,265,0,2,,,,,,,,,1,,,,75,115
150365,note_on,0,0,3,,,,,,,,,2,,,,70,116
150365,note_on,265,0,3,,,,,,,,,2,,,,75,116
150369,note_on,265,0,4,,,,,,,,,3,,,,63,115
150369,note_on,0,0,4,,,,,,,,,3,,,,55,115
150372,note_on,60,0,14,,,,,,,,,13,,,,55,112
150374,note_on,60,0,15,,,,,,,,,14,,,,43,112
150393,note_on,30,0,12,,,,,,,,,11,,,,84,0
150420,note_on,60,0,11,,,,,,,,,10,,,,87,0
150423,note_on,30,0,12,,,,,,,,,11,,,,82,112
150432,note_on,60,0,14,,,,,,,,,13,,,,55,0
150434,note_on,60,0,15,,,,,,,,,14,,,,43,0
150453,note_on,30,0,12,,,,,,,,,11,,,,82,0
150456,note_on,95,0,1,,,,,,,,,0,,,,87,0
150456,note_on,0,0,1,,,,,,,,,0,,,,82,0
150459,note_on,0,0,2,,,,,,,,,1,,,,75,0
150459,note_on,95,0,2,,,,,,,,,1,,,,70,0
150460,note_on,95,0,3,,,,,,,,,2,,,,70,0
150460,note_on,0,0,3,,,,,,,,,2,,,,75,0
150464,note_on,0,0,4,,,,,,,,,3,,,,63,0
150464,note_on,95,0,4,,,,,,,,,3,,,,55,0
150480,set_tempo,120,1,0,,,,,,254237,,,,,,,,
150480,note_on,60,0,11,,,,,,,,,10,,,,86,112
150483,note_on,30,0,12,,,,,,,,,11,,,,81,112
150488,note_on,0,0,13,,,,,,,,,12,,,,72,127
150488,control_change,1380,0,13,,,,,,,,,12,11,45,,,
150492,note_on,60,0,14,,,,,,,,,13,,,,54,112
150494,note_on,60,0,15,,,,,,,,,14,,,,42,112
150518,note_on,30,0,13,,,,,,,,,12,,,,72,0
150540,note_on,60,0,11,,,,,,,,,10,,,,86,0
150543,note_on,60,0,12,,,,,,,,,11,,,,81,0
150548,note_on,30,0,13,,,,,,,,,12,,,,72,112
150578,note_on,30,0,13,,,,,,,,,12,,,,72,0
150600,note_on,60,0,11,,,,,,,,,10,,,,86,112
150600,set_tempo,120,1,0,,,,,,263158,,,,,,,,
150603,note_on,60,0,12,,,,,,,,,11,,,,81,112
150608,note_on,30,0,13,,,,,,,,,12,,,,74,112
150638,note_on,30,0,13,,,,,,,,,12,,,,74,0
150660,note_on,60,0,11,,,,,,,,,10,,,,86,0
150663,note_on,60,0,12,,,,,,,,,11,,,,81,0
150668,note_on,30,0,13,,,,,,,,,12,,,,72,112
150698,note_on,30,0,13,,,,,,,,,12,,,,72,0
150720,note_on,60,0,11,,,,,,,,,10,,,,86,112
150720,set_tempo,120,1,0,,,,,,288462,,,,,,,,
150721,note_on,265,0,1,,,,,,,,,0,,,,86,116
150721,note_on,0,0,1,,,,,,,,,0,,,,81,116
150723,note_on,60,0,12,,,,,,,,,11,,,,81,112
150724,note_on,0,0,2,,,,,,,,,1,,,,74,115
150724,note_on,265,0,2,,,,,,,,,1,,,,69,115
150725,note_on,0,0,3,,,,,,,,,2,,,,69,116
150725,note_on,265,0,3,,,,,,,,,2,,,,74,116
150728,note_on,30,0,13,,,,,,,,,12,,,,74,112
150729,note_on,0,0,4,,,,,,,,,3,,,,62,115
150729,note_on,265,0,4,,,,,,,,,3,,,,54,115
150758,note_on,30,0,13,,,,,,,,,12,,,,74,0
150780,note_on,60,0,11,,,,,,,,,10,,,,86,0
150783,note_on,60,0,12,,,,,,,,,11,,,,81,0
150788,note_on,30,0,13,,,,,,,,,12,,,,72,112
150816,note_on,95,0,1,,,,,,,,,0,,,,81,0
150816,note_on,0,0,1,,,,,,,,,0,,,,86,0
150818,note_on,30,0,13,,,,,,,,,12,,,,72,0
150819,note_on,95,0,2,,,,,,,,,1,,,,74,0
150819,note_on,0,0,2,,,,,,,,,1,,,,69,0
150820,note_on,0,0,3,,,,,,,,,2,,,,74,0
150820,note_on,95,0,3,,,,,,,,,2,,,,69,0
150824,note_on,95,0,4,,,,,,,,,3,,,,62,0
150824,note_on,0,0,4,,,,,,,,,3,,,,54,0
150840,note_on,60,0,11,,,,,,,,,10,,,,91,112
150840,set_tempo,120,1,0,,,,,,254237,,,,,,,,
150843,note_on,60,0,12,,,,,,,,,11,,,,79,112
150848,note_on,30,0,13,,,,,,,,,12,,,,70,112
150852,note_on,360,0,14,,,,,,,,,13,,,,54,0
150852,note_on,0,0,14,,,,,,,,,13,,,,58,127
150854,note_on,360,0,15,,,,,,,,,14,,,,42,0
150854,note_on,0,0,15,,,,,,,,,14,,,,46,127
150882,note_on,30,0,14,,,,,,,,,13,,,,58,0
150884,note_on,30,0,15,,,,,,,,,14,,,,46,0
150903,note_on,60,0,12,,,,,,,,,11,,,,79,0
150908,note_on,60,0,13,,,,,,,,,12,,,,70,0
150912,note_on,30,0,14,,,,,,,,,13,,,,58,112
150914,note_on,30,0,15,,,,,,,,,14,,,,46,112
150942,note_on,30,0,14,,,,,,,,,13,,,,58,0
150944,note_on,30,0,15,,,,,,,,,14,,,,46,0
150960,set_tempo,120,1,0,,,,,,263158,,,,,,,,
150963,note_on,60,0,12,,,,,,,,,11,,,,79,112
150968,note_on,60,0,13,,,,,,,,,12,,,,70,112
150972,note_on,30,0,14,,,,,,,,,13,,,,60,112
150974,note_on,30,0,15,,,,,,,,,14,,,,48,112
151002,note_on,30,0,14,,,,,,,,,13,,,,60,0
151004,note_on,30,0,15,,,,,,,,,14,,,,48,0
151023,note_on,60,0,12,,,,,,,,,11,,,,79,0
151028,note_on,60,0,13,,,,,,,,,12,,,,70,0
151032,note_on,30,0,14,,,,,,,,,13,,,,58,112
151034,note_on,30,0,15,,,,,,,,,14,,,,46,112
151062,note_on,30,0,14,,,,,,,,,13,,,,58,0
151064,note_on,30,0,15,,,,,,,,,14,,,,46,0
151080,set_tempo,120,1,0,,,,,,288462,,,,,,,,
151081,note_on,0,0,1,,,,,,,,,0,,,,79,116
151081,note_on,265,0,1,,,,,,,,,0,,,,91,116
151083,note_on,60,0,12,,,,,,,,,11,,,,79,112
151084,note_on,265,0,2,,,,,,,,,1,,,,79,115
151084,note_on,0,0,2,,,,,,,,,1,,,,67,115
151085,note_on,265,0,3,,,,,,,,,2,,,,67,116
151085,note_on,0,0,3,,,,,,,,,2,,,,79,116
151088,note_on,60,0,13,,,,,,,,,12,,,,70,112
151089,note_on,265,0,4,,,,,,,,,3,,,,58,115
151092,note_on,30,0,14,,,,,,,,,13,,,,60,112
151094,note_on,30,0,15,,,,,,,,,14,,,,48,112
151122,note_on,30,0,14,,,,,,,,,13,,,,60,0
151124,note_on,30,0,15,,,,,,,,,14,,,,48,0
151143,note_on,60,0,12,,,,,,,,,11,,,,79,0
151148,note_on,60,0,13,,,,,,,,,12,,,,70,0
151152,note_on,30,0,14,,,,,,,,,13,,,,58,112
151154,note_on,30,0,15,,,,,,,,,14,,,,46,112
151176,note_on,0,0,1,,,,,,,,,0,,,,91,0
151176,note_on,95,0,1,,,,,,,,,0,,,,79,0
151179,note_on,95,0,2,,,,,,,,,1,,,,67,0
151179,note_on,0,0,2,,,,,,,,,1,,,,79,0
151180,note_on,95,0,3,,,,,,,,,2,,,,79,0
151180,note_on,0,0,3,,,,,,,,,2,,,,67,0
151182,note_on,30,0,14,,,,,,,,,13,,,,58,0
151184,note_on,95,0,4,,,,,,,,,3,,,,58,0
151184,note_on,30,0,15,,,,,,,,,14,,,,46,0
151200,note_on,360,0,11,,,,,,,,,10,,,,91,0
151200,note_on,0,0,11,,,,,,,,,10,,,,82,127
151200,set_tempo,120,1,0,,,,,,254237,,,,,,,,
151203,note_on,60,0,12,,,,,,,,,11,,,,67,112
151212,note_on,30,0,14,,,,,,,,,13,,,,55,112
151214,note_on,30,0,15,,,,,,,,,14,,,,43,112
151230,note_on,30,0,11,,,,,,,,,10,,,,82,0
151260,note_on,30,0,11,,,,,,,,,10,,,,82,112
151272,note_on,60,0,14,,,,,,,,,13,,,,55,0
151274,note_on,60,0,15,,,,,,,,,14,,,,43,0
151290,note_on,30,0,11,,,,,,,,,10,,,,82,0
151320,note_on,30,0,11,,,,,,,,,10,,,,84,112
151320,set_tempo,120,1,0,,,,,,263158,,,,,,,,
151332,note_on,60,0,14,,,,,,,,,13,,,,55,112
151334,note_on,60,0,15,,,,,,,,,14,,,,43,112
151350,note_on,30,0,11,,,,,,,,,10,,,,84,0
151380,note_on,30,0,11,,,,,,,,,10,,,,82,112
151392,note_on,60,0,14,,,,,,,,,13,,,,55,0
151394,note_on,60,0,15,,,,,,,,,14,,,,43,0
151410,note_on,30,0,11,,,,,,,,,10,,,,82,0
151440,note_on,30,0,11,,,,,,,,,10,,,,84,112
151440,set_tempo,120,1,0,,,,,,288462,,,,,,,,
151441,note_on,0,0,1,,,,,,,,,0,,,,82,101
151441,note_on,265,0,1,,,,,,,,,0,,,,79,101
151444,note_on,265,0,2,,,,,,,,,1,,,,67,100
151444,note_on,0,0,2,,,,,,,,,1,,,,70,100
151445,note_on,0,0,3,,,,,,,,,2,,,,70,101
151445,note_on,265,0,3,,,,,,,,,2,,,,67,101
151449,note_on,265,0,4,,,,,,,,,3,,,,55,100
151449,note_on,0,0,4,,,,,,,,,3,,,,58,100
151452,note_on,60,0,14,,,,,,,,,13,,,,55,112
151454,note_on,60,0,15,,,,,,,,,14,,,,43,112
151470,note_on,30,0,11,,,,,,,,,10,,,,84,0
151500,note_on,30,0,11,,,,,,,,,10,,,,82,112
151512,note_on,60,0,14,,,,,,,,,13,,,,55,0
151514,note_on,60,0,15,,,,,,,,,14,,,,43,0
151530,note_on,30,0,11,,,,,,,,,10,,,,82,0
151536,note_on,0,0,1,,,,,,,,,0,,,,79,0
151536,note_on,95,0,1,,,,,,,,,0,,,,82,0
151539,note_on,0,0,2,,,,,,,,,1,,,,67,0
151539,note_on,95,0,2,,,,,,,,,1,,,,70,0
151540,note_on,0,0,3,,,,,,,,,2,,,,67,0
151540,note_on,95,0,3,,,,,,,,,2,,,,70,0
151544,note_on,95,0,4,,,,,,,,,3,,,,58,0
151544,note_on,0,0,4,,,,,,,,,3,,,,55,0
151560,set_tempo,120,1,0,,,,,,254237,,,,,,,,
151560,note_on,30,0,11,,,,,,,,,10,,,,85,112
151563,note_on,360,0,12,,,,,,,,,11,,,,67,0
151563,note_on,0,0,12,,,,,,,,,11,,,,80,127
151572,note_on,60,0,14,,,,,,,,,13,,,,53,112
151574,note_on,60,0,15,,,,,,,,,14,,,,41,112
151593,note_on,30,0,12,,,,,,,,,11,,,,80,0
151620,note_on,60,0,11,,,,,,,,,10,,,,85,0
151623,note_on,30,0,12,,,,,,,,,11,,,,80,112
151632,note_on,60,0,14,,,,,,,,,13,,,,53,0
151634,note_on,60,0,15,,,,,,,,,14,,,,41,0
151653,note_on,30,0,12,,,,,,,,,11,,,,80,0
151680,set_tempo,120,1,0,,,,,,263158,,,,,,,,
151680,note_on,60,0,11,,,,,,,,,10,,,,85,112
151683,note_on,30,0,12,,,,,,,,,11,,,,82,112
151692,note_on,60,0,14,,,,,,,,,13,,,,53,112
151694,note_on,60,0,15,,,,,,,,,14,,,,41,112
151713,note_on,30,0,12,,,,,,,,,11,,,,82,0
151740,note_on,60,0,11,,,,,,,,,10,,,,85,0
151743,note_on,30,0,12,,,,,,,,,11,,,,80,112
151752,note_on,60,0,14,,,,,,,,,13,,,,53,0
151754,note_on,60,0,15,,,,,,,,,14,,,,41,0
151773,note_on,30,0,12,,,,,,,,,11,,,,80,0
151800,note_on,60,0,11,,,,,,,,,10,,,,85,112
151800,set_tempo,120,1,0,,,,,,288462,,,,,,,,
151801,note_on,0,0,1,,,,,,,,,0,,,,85,101
151801,note_on,265,0,1,,,,,,,,,0,,,,80,101
151803,note_on,30,0,12,,,,,,,,,11,,,,82,112
151804,note_on,265,0,2,,,,,,,,,1,,,,73,100
151804,note_on,0,0,2,,,,,,,,,1,,,,68,100
151805,note_on,0,0,3,,,,,,,,,2,,,,73,101
151805,note_on,265,0,3,,,,,,,,,2,,,,68,101
151809,note_on,0,0,4,,,,,,,,,3,,,,61,100
151809,note_on,265,0,4,,,,,,,,,3,,,,53,100
151812,note_on,60,0,14,,,,,,,,,13,,,,53,112
151814,note_on,60,0,15,,,,,,,,,14,,,,41,112
151833,note_on,30,0,12,,,,,,,,,11,,,,82,0
151860,note_on,60,0,11,,,,,,,,,10,,,,85,0
151863,note_on,30,0,12,,,,,,,,,11,,,,80,112
151872,note_on,60,0,14,,,,,,,,,13,,,,53,0
151874,note_on,60,0,15,,,,,,,,,14,,,,41,0
151893,note_on,30,0,12,,,,,,,,,11,,,,80,0
151896,note_on,95,0,1,,,,,,,,,0,,,,85,0
151896,note_on,0,0,1,,,,,,,,,0,,,,80,0
151899,note_on,0,0,2,,,,,,,,,1,,,,73,0
151899,note_on,95,0,2,,,,,,,,,1,,,,68,0
151900,note_on,0,0,3,,,,,,,,,2,,,,68,0
151900,note_on,95,0,3,,,,,,,,,2,,,,73,0
151904,note_on,95,0,4,,,,,,,,,3,,,,61,0
151904,note_on,0,0,4,,,,,,,,,3,,,,53,0
151920,note_on,60,0,11,,,,,,,,,10,,,,84,112
151920,set_tempo,120,1,0,,,,,,254237,,,,,,,,
151923,note_on,30,0,12,,,,,,,,,11,,,,79,112
151928,note_on,780,0,13,,,,,,,,,12,,,,70,127
151932,note_on,60,0,14,,,,,,,,,13,,,,52,112
151934,note_on,60,0,15,,,,,,,,,14,,,,40,112
151958,note_on,30,0,13,,,,,,,,,12,,,,70,0
151980,note_on,60,0,11,,,,,,,,,10,,,,84,0
151983,note_on,60,0,12,,,,,,,,,11,,,,79,0
151988,note_on,30,0,13,,,,,,,,,12,,,,70,112
152018,note_on,30,0,13,,,,,,,,,12,,,,70,0
152040,set_tempo,120,1,0,,,,,,263158,,,,,,,,
152040,note_on,60,0,11,,,,,,,,,10,,,,84,112
152043,note_on,60,0,12,,,,,,,,,11,,,,79,112
152048,note_on,30,0,13,,,,,,,,,12,,,,72,112
152078,note_on,30,0,13,,,,,,,,,12,,,,72,0
152100,note_on,60,0,11,,,,,,,,,10,,,,84,0
152103,note_on,60,0,12,,,,,,,,,11,,,,79,0
152108,note_on,30,0,13,,,,,,,,,12,,,,70,112
152138,note_on,30,0,13,,,,,,,,,12,,,,70,0
152160,note_on,60,0,11,,,,,,,,,10,,,,84,112
152160,set_tempo,120,1,0,,,,,,288462,,,,,,,,
152161,note_on,0,0,1,,,,,,,,,0,,,,79,101
152161,note_on,265,0,1,,,,,,,,,0,,,,84,101
152163,note_on,60,0,12,,,,,,,,,11,,,,79,112
152164,note_on,0,0,2,,,,,,,,,1,,,,72,100
152164,note_on,265,0,2,,,,,,,,,1,,,,67,100
152165,note_on,0,0,3,,,,,,,,,2,,,,67,101
152165,note_on,265,0,3,,,,,,,,,2,,,,72,101
152168,note_on,30,0,13,,,,,,,,,12,,,,72,112
152169,note_on,265,0,4,,,,,,,,,3,,,,52,100
152169,note_on,0,0,4,,,,,,,,,3,,,,60,100
152198,note_on,30,0,13,,,,,,,,,12,,,,72,0
152220,note_on,60,0,11,,,,,,,,,10,,,,84,0
152223,note_on,60,0,12,,,,,,,,,11,,,,79,0
152228,note_on,30,0,13,,,,,,,,,12,,,,70,112
152256,note_on,95,0,1,,,,,,,,,0,,,,79,0
152256,note_on,0,0,1,,,,,,,,,0,,,,84,0
152258,note_on,30,0,13,,,,,,,,,12,,,,70,0
152259,note_on,0,0,2,,,,,,,,,1,,,,67,0
152259,note_on,95,0,2,,,,,,,,,1,,,,72,0
152260,note_on,0,0,3,,,,,,,,,2,,,,72,0
152260,note_on,95,0,3,,,,,,,,,2,,,,67,0
152264,note_on,0,0,4,,,,,,,,,3,,,,52,0
152264,note_on,95,0,4,,,,,,,,,3,,,,60,0
152280,control_change,60,0,11,,,,,,,,,10,11,45,,,
152280,note_on,0,0,11,,,,,,,,,10,,,,89,112
152280,set_tempo,120,1,0,,,,,,254237,,,,,,,,
152283,note_on,60,0,12,,,,,,,,,11,,,,77,112
152283,control_change,0,0,12,,,,,,,,,11,11,45,,,
152288,note_on,30,0,13,,,,,,,,,12,,,,68,112
152288,control_change,0,0,13,,,,,,,,,12,11,45,,,
152292,note_on,360,0,14,,,,,,,,,13,,,,52,0
152292,note_on,0,0,14,,,,,,,,,13,,,,53,127
152292,control_change,0,0,14,,,,,,,,,13,11,45,,,
152294,note_on,360,0,15,,,,,,,,,14,,,,40,0
152294,note_on,0,0,15,,,,,,,,,14,,,,41,127
152294,control_change,0,0,15,,,,,,,,,14,11,45,,,
152322,note_on,30,0,14,,,,,,,,,13,,,,53,0
152324,note_on,30,0,15,,,,,,,,,14,,,,41,0
152328,control_change,48,0,11,,,,,,,,,10,11,46,,,
152331,control_change,48,0,12,,,,,,,,,11,11,46,,,
152336,control_change,48,0,13,,,,,,,,,12,11,46,,,
152340,control_change,18,0,14,,,,,,,,,13,11,46,,,
152342,control_change,18,0,15,,,,,,,,,14,11,46,,,
152343,note_on,12,0,12,,,,,,,,,11,,,,77,0
152348,note_on,12,0,13,,,,,,,,,12,,,,68,0
152352,note_on,12,0,14,,,,,,,,,13,,,,53,112
152354,note_on,12,0,15,,,,,,,,,14,,,,41,112
152376,control_change,48,0,11,,,,,,,,,10,11,47,,,
152379,control_change,36,0,12,,,,,,,,,11,11,47,,,
152382,note_on,30,0,14,,,,,,,,,13,,,,53,0
152384,control_change,36,0,13,,,,,,,,,12,11,47,,,
152384,note_on,30,0,15,,,,,,,,,14,,,,41,0
152388,control_change,6,0,14,,,,,,,,,13,11,47,,,
152390,control_change,6,0,15,,,,,,,,,14,11,47,,,
152400,set_tempo,120,1,0,,,,,,263158,,,,,,,,
152403,note_on,24,0,12,,,,,,,,,11,,,,77,112
152408,note_on,24,0,13,,,,,,,,,12,,,,68,112
152412,note_on,24,0,14,,,,,,,,,13,,,,55,112
152414,note_on,24,0,15,,,,,,,,,14,,,,43,112
152424,control_change,48,0,11,,,,,,,,,10,11,48,,,
152427,control_change,24,0,12,,,,,,,,,11,11,48,,,
152432,control_change,24,0,13,,,,,,,,,12,11,48,,,
152436,control_change,24,0,14,,,,,,,,,13,11,48,,,
152438,control_change,24,0,15,,,,,,,,,14,11,48,,,
152442,note_on,6,0,14,,,,,,,,,13,,,,55,0
152444,note_on,6,0,15,,,,,,,,,14,,,,43,0
152463,note_on,36,0,12,,,,,,,,,11,,,,77,0
152468,note_on,36,0,13,,,,,,,,,12,,,,68,0
152472,note_on,30,0,14,,,,,,,,,13,,,,53,112
152472,control_change,48,0,11,,,,,,,,,10,11,49,,,
152474,note_on,30,0,15,,,,,,,,,14,,,,41,112
152475,control_change,12,0,12,,,,,,,,,11,11,49,,,
152480,control_change,12,0,13,,,,,,,,,12,11,49,,,
152484,control_change,12,0,14,,,,,,,,,13,11,49,,,
152486,control_change,12,0,15,,,,,,,,,14,11,49,,,
152502,note_on,18,0,14,,,,,,,,,13,,,,53,0
152504,note_on,18,0,15,,,,,,,,,14,,,,41,0
152520,control_change,48,0,11,,,,,,,,,10,11,50,,,
152520,set_tempo,120,1,0,,,,,,288462,,,,,,,,
152521,control_change,0,0,1,,,,,,,,,0,11,42,,,
152521,note_on,0,0,1,,,,,,,,,0,,,,89,101
152521,note_on,265,0,1,,,,,,,,,0,,,,77,101
152523,control_change,48,0,12,,,,,,,,,11,11,50,,,
152523,note_on,0,0,12,,,,,,,,,11,,,,77,112
152524,note_on,0,0,2,,,,,,,,,1,,,,65,100
152524,note_on,265,0,2,,,,,,,,,1,,,,77,100
152524,control_change,0,0,2,,,,,,,,,1,11,42,,,
152525,control_change,0,0,3,,,,,,,,,2,11,42,,,
152525,note_on,0,0,3,,,,,,,,,2,,,,77,101
152525,note_on,265,0,3,,,,,,,,,2,,,,65,101
152528,note_on,0,0,13,,,,,,,,,12,,,,68,112
152528,control_change,48,0,13,,,,,,,,,12,11,50,,,
152529,control_change,0,0,4,,,,,,,,,3,11,42,,,
152529,note_on,265,0,4,,,,,,,,,3,,,,53,100
152532,control_change,30,0,14,,,,,,,,,13,11,50,,,
152532,note_on,0,0,14,,,,,,,,,13,,,,55,112
152534,control_change,0,0,15,,,,,,,,,14,11,50,,,
152534,note_on,30,0,15,,,,,,,,,14,,,,43,112
152562,note_on,30,0,14,,,,,,,,,13,,,,55,0
152564,note_on,30,0,15,,,,,,,,,14,,,,43,0
152568,control_change,48,0,11,,,,,,,,,10,11,51,,,
152569,control_change,48,0,1,,,,,,,,,0,11,43,,,
152571,control_change,48,0,12,,,,,,,,,11,11,51,,,
152572,control_change,48,0,2,,,,,,,,,1,11,43,,,
152573,control_change,48,0,3,,,,,,,,,2,11,43,,,
152576,control_change,48,0,13,,,,,,,,,12,11,51,,,
152577,control_change,48,0,4,,,,,,,,,3,11,43,,,
152580,control_change,18,0,14,,,,,,,,,13,11,51,,,
152582,control_change,18,0,15,,,,,,,,,14,11,51,,,
152583,note_on,12,0,12,,,,,,,,,11,,,,77,0
152588,note_on,12,0,13,,,,,,,,,12,,,,68,0
152592,note_on,12,0,14,,,,,,,,,13,,,,53,112
152594,note_on,12,0,15,,,,,,,,,14,,,,41,112
152616,note_on,0,0,1,,,,,,,,,0,,,,77,0
152616,control_change,48,0,11,,,,,,,,,10,11,52,,,
152616,note_on,47,0,1,,,,,,,,,0,,,,89,0
152617,control_change,1,0,1,,,,,,,,,0,11,44,,,
152619,control_change,36,0,12,,,,,,,,,11,11,52,,,
152619,note_on,47,0,2,,,,,,,,,1,,,,65,0
152619,note_on,0,0,2,,,,,,,,,1,,,,77,0
152620,note_on,47,0,3,,,,,,,,,2,,,,77,0
152620,note_on,0,0,3,,,,,,,,,2,,,,65,0
152620,control_change,1,0,2,,,,,,,,,1,11,44,,,
152621,control_change,1,0,3,,,,,,,,,2,11,44,,,
152622,note_on,30,0,14,,,,,,,,,13,,,,53,0
152624,control_change,36,0,13,,,,,,,,,12,11,52,,,
152624,note_on,30,0,15,,,,,,,,,14,,,,41,0
152624,note_on,47,0,4,,,,,,,,,3,,,,53,0
152625,control_change,1,0,4,,,,,,,,,3,11,44,,,
152628,control_change,6,0,14,,,,,,,,,13,11,52,,,
152630,control_change,6,0,15,,,,,,,,,14,11,52,,,
152640,set_tempo,120,1,0,,,,,,254237,,,,,,,,
152640,note_on,24,0,11,,,,,,,,,10,,,,89,0
152640,note_on,0,0,11,,,,,,,,,10,,,,77,127
152643,note_on,24,0,12,,,,,,,,,11,,,,65,112
152652,note_on,24,0,14,,,,,,,,,13,,,,49,112
152654,note_on,24,0,15,,,,,,,,,14,,,,37,112
152664,control_change,24,0,11,,,,,,,,,10,11,53,,,
152665,control_change,48,0,1,,,,,,,,,0,11,45,,,
152667,control_change,24,0,12,,,,,,,,,11,11,53,,,
152668,control_change,48,0,2,,,,,,,,,1,11,45,,,
152669,control_change,48,0,3,,,,,,,,,2,11,45,,,
152670,note_on,6,0,11,,,,,,,,,10,,,,77,0
152672,control_change,48,0,13,,,,,,,,,12,11,53,,,
152673,control_change,48,0,4,,,,,,,,,3,11,45,,,
152676,control_change,24,0,14,,,,,,,,,13,11,53,,,
152678,control_change,24,0,15,,,,,,,,,14,11,53,,,
152700,note_on,30,0,11,,,,,,,,,10,,,,77,112
152712,control_change,12,0,11,,,,,,,,,10,11,54,,,
152712,note_on,36,0,14,,,,,,,,,13,,,,49,0
152713,control_change,48,0,1,,,,,,,,,0,11,46,,,
152714,note_on,36,0,15,,,,,,,,,14,,,,37,0
152715,control_change,48,0,12,,,,,,,,,11,11,54,,,
152716,control_change,48,0,2,,,,,,,,,1,11,46,,,
152717,control_change,48,0,3,,,,,,,,,2,11,46,,,
152720,control_change,48,0,13,,,,,,,,,12,11,54,,,
152721,control_change,48,0,4,,,,,,,,,3,11,46,,,
152724,control_change,12,0,14,,,,,,,,,13,11,54,,,
152726,control_change,12,0,15,,,,,,,,,14,11,54,,,
152730,note_on,18,0,11,,,,,,,,,10,,,,77,0
152760,set_tempo,120,1,0,,,,,,263158,,,,,,,,
152760,note_on,0,0,11,,,,,,,,,10,,,,79,112
152760,control_change,30,0,11,,,,,,,,,10,11,55,,,
152761,control_change,48,0,1,,,,,,,,,0,11,47,,,
152763,control_change,48,0,12,,,,,,,,,11,11,55,,,
152764,control_change,48,0,2,,,,,,,,,1,11,47,,,
152765,control_change,48,0,3,,,,,,,,,2,11,47,,,
152768,control_change,48,0,13,,,,,,,,,12,11,55,,,
152769,control_change,48,0,4,,,,,,,,,3,11,47,,,
152772,note_on,0,0,14,,,,,,,,,13,,,,49,112
152772,control_change,48,0,14,,,,,,,,,13,11,55,,,
152774,control_change,0,0,15,,,,,,,,,14,11,55,,,
152774,note_on,48,0,15,,,,,,,,,14,,,,37,112
152790,note_on,30,0,11,,,,,,,,,10,,,,79,0
152808,control_change,18,0,11,,,,,,,,,10,11,56,,,
152809,control_change,48,0,1,,,,,,,,,0,11,48,,,
152811,control_change,48,0,12,,,,,,,,,11,11,56,,,
152812,control_change,48,0,2,,,,,,,,,1,11,48,,,
152813,control_change,48,0,3,,,,,,,,,2,11,48,,,
152816,control_change,48,0,13,,,,,,,,,12,11,56,,,
152817,control_change,48,0,4,,,,,,,,,3,11,48,,,
152820,note_on,12,0,11,,,,,,,,,10,,,,77,112
152820,control_change,48,0,14,,,,,,,,,13,11,56,,,
152822,control_change,48,0,15,,,,,,,,,14,11,56,,,
152832,note_on,12,0,14,,,,,,,,,13,,,,49,0
152834,note_on,12,0,15,,,,,,,,,14,,,,37,0
152850,note_on,30,0,11,,,,,,,,,10,,,,77,0
152856,control_change,6,0,11,,,,,,,,,10,11,57,,,
152857,control_change,48,0,1,,,,,,,,,0,11,49,,,
152859,control_change,48,0,12,,,,,,,,,11,11,57,,,
152860,control_change,48,0,2,,,,,,,,,1,11,49,,,
152861,control_change,48,0,3,,,,,,,,,2,11,49,,,
152864,control_change,48,0,13,,,,,,,,,12,11,57,,,
152865,control_change,48,0,4,,,,,,,,,3,11,49,,,
152868,control_change,36,0,14,,,,,,,,,13,11,57,,,
152870,control_change,36,0,15,,,,,,,,,14,11,57,,,
152880,set_tempo,120,1,0,,,,,,288462,,,,,,,,
152880,note_on,24,0,11,,,,,,,,,10,,,,79,112
152881,note_on,24,0,1,,,,,,,,,0,,,,77,101
152884,note_on,24,0,2,,,,,,,,,1,,,,77,100
152885,note_on,24,0,3,,,,,,,,,2,,,,65,101
152889,note_on,24,0,4,,,,,,,,,3,,,,49,100
152889,note_on,0,0,4,,,,,,,,,3,,,,53,100
152892,note_on,24,0,14,,,,,,,,,13,,,,49,112
152894,note_on,24,0,15,,,,,,,,,14,,,,37,112
152904,control_change,24,0,11,,,,,,,,,10,11,57,,,
152905,control_change,24,0,1,,,,,,,,,0,11,50,,,
152907,control_change,48,0,12,,,,,,,,,11,11,57,,,
152908,control_change,24,0,2,,,,,,,,,1,11,50,,,
152909,control_change,24,0,3,,,,,,,,,2,11,50,,,
152910,note_on,6,0,11,,,,,,,,,10,,,,79,0
152912,control_change,48,0,13,,,,,,,,,12,11,57,,,
152913,control_change,24,0,4,,,,,,,,,3,11,50,,,
152916,control_change,24,0,14,,,,,,,,,13,11,57,,,
152918,control_change,24,0,15,,,,,,,,,14,11,57,,,
152940,note_on,30,0,11,,,,,,,,,10,,,,77,112
152952,control_change,12,0,11,,,,,,,,,10,11,58,,,
152952,note_on,36,0,14,,,,,,,,,13,,,,49,0
152953,control_change,48,0,1,,,,,,,,,0,11,51,,,
152954,note_on,36,0,15,,,,,,,,,14,,,,37,0
152955,control_change,48,0,12,,,,,,,,,11,11,58,,,
152956,control_change,48,0,2,,,,,,,,,1,11,51,,,
152957,control_change,48,0,3,,,,,,,,,2,11,51,,,
152960,control_change,48,0,13,,,,,,,,,12,11,58,,,
152961,control_change,48,0,4,,,,,,,,,3,11,51,,,
152964,control_change,12,0,14,,,,,,,,,13,11,58,,,
152966,control_change,12,0,15,,,,,,,,,14,11,58,,,
152970,note_on,18,0,11,,,,,,,,,10,,,,77,0
152976,note_on,23,0,1,,,,,,,,,0,,,,77,0
152979,note_on,23,0,2,,,,,,,,,1,,,,77,0
152980,note_on,23,0,3,,,,,,,,,2,,,,65,0
152984,note_on,0,0,4,,,,,,,,,3,,,,49,0
152984,note_on,23,0,4,,,,,,,,,3,,,,53,0
153000,note_on,30,0,11,,,,,,,,,10,,,,80,112
153000,control_change,0,0,11,,,,,,,,,10,11,59,,,
153000,set_tempo,120,1,0,,,,,,254237,,,,,,,,
153001,control_change,25,0,1,,,,,,,,,0,11,52,,,
153003,control_change,0,0,12,,,,,,,,,11,11,59,,,
153003,note_on,0,0,12,,,,,,,,,11,,,,75,127
153003,note_on,48,0,12,,,,,,,,,11,,,,65,0
153004,control_change,25,0,2,,,,,,,,,1,11,52,,,
153005,control_change,25,0,3,,,,,,,,,2,11,52,,,
153008,control_change,48,0,13,,,,,,,,,12,11,59,,,
153009,control_change,25,0,4,,,,,,,,,3,11,52,,,
153012,note_on,0,0,14,,,,,,,,,13,,,,48,112
153012,control_change,48,0,14,,,,,,,,,13,11,59,,,
153014,control_change,0,0,15,,,,,,,,,14,11,59,,,
153014,note_on,48,0,15,,,,,,,,,14,,,,36,112
153033,note_on,30,0,12,,,,,,,,,11,,,,75,0
153048,control_change,48,0,11,,,,,,,,,10,11,60,,,
153049,control_change,48,0,1,,,,,,,,,0,11,52,,,
153051,control_change,18,0,12,,,,,,,,,11,11,60,,,
153052,control_change,48,0,2,,,,,,,,,1,11,52,,,
153053,control_change,48,0,3,,,,,,,,,2,11,52,,,
153056,control_change,48,0,13,,,,,,,,,12,11,60,,,
153057,control_change,48,0,4,,,,,,,,,3,11,53,,,
153060,note_on,12,0,11,,,,,,,,,10,,,,80,0
153060,control_change,48,0,14,,,,,,,,,13,11,60,,,
153062,control_change,48,0,15,,,,,,,,,14,11,60,,,
153063,note_on,12,0,12,,,,,,,,,11,,,,75,112
153072,note_on,12,0,14,,,,,,,,,13,,,,48,0
153074,note_on,12,0,15,,,,,,,,,14,,,,36,0
153093,note_on,30,0,12,,,,,,,,,11,,,,75,0
153096,control_change,36,0,11,,,,,,,,,10,11,61,,,
153097,control_change,48,0,1,,,,,,,,,0,11,53,,,
153099,control_change,6,0,12,,,,,,,,,11,11,61,,,
153100,control_change,48,0,2,,,,,,,,,1,11,53,,,
153101,control_change,48,0,3,,,,,,,,,2,11,53,,,
153104,control_change,48,0,13,,,,,,,,,12,11,61,,,
153105,control_change,48,0,4,,,,,,,,,3,11,54,,,
153108,control_change,36,0,14,,,,,,,,,13,11,61,,,
153110,control_change,36,0,15,,,,,,,,,14,11,61,,,
153120,set_tempo,120,1,0,,,,,,263158,,,,,,,,
153120,note_on,24,0,11,,,,,,,,,10,,,,80,112
153123,note_on,24,0,12,,,,,,,,,11,,,,77,112
153132,note_on,24,0,14,,,,,,,,,13,,,,48,112
153134,note_on,24,0,15,,,,,,,,,14,,,,36,112
153144,control_change,24,0,11,,,,,,,,,10,11,62,,,
153145,control_change,48,0,1,,,,,,,,,0,11,54,,,
153147,control_change,24,0,12,,,,,,,,,11,11,62,,,
153148,control_change,48,0,2,,,,,,,,,1,11,54,,,
153149,control_change,48,0,3,,,,,,,,,2,11,54,,,
153152,control_change,48,0,13,,,,,,,,,12,11,62,,,
153153,note_on,6,0,12,,,,,,,,,11,,,,77,0
153153,control_change,48,0,4,,,,,,,,,3,11,55,,,
153156,control_change,24,0,14,,,,,,,,,13,11,62,,,
153158,control_change,24,0,15,,,,,,,,,14,11,62,,,
153180,note_on,36,0,11,,,,,,,,,10,,,,80,0
153183,note_on,30,0,12,,,,,,,,,11,,,,75,112
153192,note_on,36,0,14,,,,,,,,,13,,,,48,0
153192,control_change,12,0,11,,,,,,,,,10,11,63,,,
153193,control_change,48,0,1,,,,,,,,,0,11,55,,,
153194,note_on,36,0,15,,,,,,,,,14,,,,36,0
153195,control_change,12,0,12,,,,,,,,,11,11,63,,,
153196,control_change,48,0,2,,,,,,,,,1,11,55,,,
153197,control_change,48,0,3,,,,,,,,,2,11,55,,,
153200,control_change,48,0,13,,,,,,,,,12,11,63,,,
153201,control_change,48,0,4,,,,,,,,,3,11,56,,,
153204,control_change,12,0,14,,,,,,,,,13,11,63,,,
153206,control_change,12,0,15,,,,,,,,,14,11,63,,,
153213,note_on,18,0,12,,,,,,,,,11,,,,75,0
153240,set_tempo,120,1,0,,,,,,288462,,,,,,,,
153240,control_change,48,0,11,,,,,,,,,10,11,64,,,
153240,note_on,0,0,11,,,,,,,,,10,,,,80,112
153241,note_on,0,0,1,,,,,,,,,0,,,,75,101
153241,note_on,0,0,1,,,,,,,,,0,,,,80,101
153241,control_change,48,0,1,,,,,,,,,0,11,55,,,
153243,note_on,30,0,12,,,,,,,,,11,,,,77,112
153243,control_change,0,0,12,,,,,,,,,11,11,64,,,
153244,note_on,0,0,2,,,,,,,,,1,,,,80,100
153244,note_on,0,0,2,,,,,,,,,1,,,,75,100
153244,control_change,48,0,2,,,,,,,,,1,11,55,,,
153245,note_on,0,0,3,,,,,,,,,2,,,,63,101
153245,control_change,0,0,3,,,,,,,,,2,11,55,,,
153245,note_on,48,0,3,,,,,,,,,2,,,,68,101
153248,control_change,48,0,13,,,,,,,,,12,11,64,,,
153249,control_change,0,0,4,,,,,,,,,3,11,57,,,
153249,note_on,0,0,4,,,,,,,,,3,,,,48,100
153249,note_on,48,0,4,,,,,,,,,3,,,,56,100
153252,note_on,0,0,14,,,,,,,,,13,,,,48,112
153252,control_change,48,0,14,,,,,,,,,13,11,64,,,
153254,note_on,0,0,15,,,,,,,,,14,,,,36,112
153254,control_change,48,0,15,,,,,,,,,14,11,64,,,
153273,note_on,30,0,12,,,,,,,,,11,,,,77,0
153288,control_change,48,0,11,,,,,,,,,10,11,65,,,
153289,control_change,48,0,1,,,,,,,,,0,11,56,,,
153291,control_change,18,0,12,,,,,,,,,11,11,65,,,
153292,control_change,48,0,2,,,,,,,,,1,11,56,,,
153293,control_change,48,0,3,,,,,,,,,2,11,56,,,
153296,control_change,48,0,13,,,,,,,,,12,11,65,,,
153297,control_change,48,0,4,,,,,,,,,3,11,58,,,
153300,control_change,48,0,14,,,,,,,,,13,11,65,,,
153300,note_on,12,0,11,,,,,,,,,10,,,,80,0
153302,control_change,48,0,15,,,,,,,,,14,11,65,,,
153303,note_on,12,0,12,,,,,,,,,11,,,,75,112
153312,note_on,12,0,14,,,,,,,,,13,,,,48,0
153314,note_on,12,0,15,,,,,,,,,14,,,,36,0
153333,note_on,30,0,12,,,,,,,,,11,,,,75,0
153336,note_on,47,0,1,,,,,,,,,0,,,,75,0
153336,note_on,0,0,1,,,,,,,,,0,,,,80,0
153336,control_change,36,0,11,,,,,,,,,10,11,66,,,
153337,control_change,1,0,1,,,,,,,,,0,11,57,,,
153339,note_on,47,0,2,,,,,,,,,1,,,,75,0
153339,control_change,6,0,12,,,,,,,,,11,11,66,,,
153339,note_on,0,0,2,,,,,,,,,1,,,,80,0
153340,control_change,1,0,2,,,,,,,,,1,11,57,,,
153340,note_on,0,0,3,,,,,,,,,2,,,,68,0
153340,note_on,47,0,3,,,,,,,,,2,,,,63,0
153341,control_change,1,0,3,,,,,,,,,2,11,57,,,
153344,note_on,47,0,4,,,,,,,,,3,,,,48,0
153344,note_on,0,0,4,,,,,,,,,3,,,,56,0
153344,control_change,48,0,13,,,,,,,,,12,11,66,,,
153345,control_change,1,0,4,,,,,,,,,3,11,59,,,
153348,control_change,36,0,14,,,,,,,,,13,11,66,,,
153350,control_change,36,0,15,,,,,,,,,14,11,66,,,
153360,note_on,24,0,11,,,,,,,,,10,,,,79,112
153360,set_tempo,120,1,0,,,,,,254237,,,,,,,,
153363,note_on,24,0,12,,,,,,,,,11,,,,74,112
153368,note_on,24,0,13,,,,,,,,,12,,,,65,127
153372,note_on,24,0,14,,,,,,,,,13,,,,47,112
153374,note_on,24,0,15,,,,,,,,,14,,,,35,112
153384,control_change,24,0,11,,,,,,,,,10,11,67,,,
153385,control_change,48,0,1,,,,,,,,,0,11,58,,,
153387,control_change,24,0,12,,,,,,,,,11,11,67,,,
153388,control_change,48,0,2,,,,,,,,,1,11,58,,,
153389,control_change,48,0,3,,,,,,,,,2,11,58,,,
153392,control_change,24,0,13,,,,,,,,,12,11,67,,,
153393,control_change,48,0,4,,,,,,,,,3,11,60,,,
153396,control_change,24,0,14,,,,,,,,,13,11,67,,,
153398,note_on,6,0,13,,,,,,,,,12,,,,65,0
153398,control_change,24,0,15,,,,,,,,,14,11,67,,,
153420,note_on,36,0,11,,,,,,,,,10,,,,79,0
153423,note_on,36,0,12,,,,,,,,,11,,,,74,0
153428,note_on,30,0,13,,,,,,,,,12,,,,65,112
153432,control_change,12,0,11,,,,,,,,,10,11,68,,,
153433,control_change,48,0,1,,,,,,,,,0,11,58,,,
153435,control_change,12,0,12,,,,,,,,,11,11,68,,,
153436,control_change,48,0,2,,,,,,,,,1,11,58,,,
153437,control_change,48,0,3,,,,,,,,,2,11,58,,,
153440,control_change,12,0,13,,,,,,,,,12,11,68,,,
153441,control_change,48,0,4,,,,,,,,,3,11,61,,,
153444,control_change,48,0,14,,,,,,,,,13,11,68,,,
153446,control_change,48,0,15,,,,,,,,,14,11,68,,,
153458,note_on,18,0,13,,,,,,,,,12,,,,65,0
153480,control_change,0,0,11,,,,,,,,,10,11,69,,,
153480,note_on,48,0,11,,,,,,,,,10,,,,79,112
153480,set_tempo,120,1,0,,,,,,263158,,,,,,,,
153481,control_change,48,0,1,,,,,,,,,0,11,59,,,
153483,note_on,48,0,12,,,,,,,,,11,,,,74,112
153483,control_change,0,0,12,,,,,,,,,11,11,69,,,
153484,control_change,48,0,2,,,,,,,,,1,11,59,,,
153485,control_change,48,0,3,,,,,,,,,2,11,59,,,
153488,control_change,30,0,13,,,,,,,,,12,11,69,,,
153488,note_on,0,0,13,,,,,,,,,12,,,,67,112
153489,control_change,48,0,4,,,,,,,,,3,11,62,,,
153492,control_change,48,0,14,,,,,,,,,13,11,69,,,
153494,control_change,48,0,15,,,,,,,,,14,11,69,,,
153518,note_on,30,0,13,,,,,,,,,12,,,,67,0
153528,control_change,48,0,11,,,,,,,,,10,11,70,,,
153529,control_change,48,0,1,,,,,,,,,0,11,60,,,
153531,control_change,48,0,12,,,,,,,,,11,11,70,,,
153532,control_change,48,0,2,,,,,,,,,1,11,60,,,
153533,control_change,48,0,3,,,,,,,,,2,11,60,,,
153536,control_change,18,0,13,,,,,,,,,12,11,70,,,
153537,control_change,48,0,4,,,,,,,,,3,11,63,,,
153540,control_change,48,0,14,,,,,,,,,13,11,70,,,
153540,note_on,12,0,11,,,,,,,,,10,,,,79,0
153542,control_change,48,0,15,,,,,,,,,14,11,70,,,
153543,note_on,12,0,12,,,,,,,,,11,,,,74,0
153548,note_on,12,0,13,,,,,,,,,12,,,,65,112
153576,control_change,36,0,11,,,,,,,,,10,11,71,,,
153577,control_change,48,0,1,,,,,,,,,0,11,61,,,
153578,note_on,30,0,13,,,,,,,,,12,,,,65,0
153579,control_change,36,0,12,,,,,,,,,11,11,71,,,
153580,control_change,48,0,2,,,,,,,,,1,11,61,,,
153581,control_change,48,0,3,,,,,,,,,2,11,61,,,
153584,control_change,6,0,13,,,,,,,,,12,11,71,,,
153585,control_change,48,0,4,,,,,,,,,3,11,64,,,
153588,control_change,48,0,14,,,,,,,,,13,11,71,,,
153590,control_change,48,0,15,,,,,,,,,14,11,71,,,
153600,note_on,24,0,11,,,,,,,,,10,,,,60,112
153600,set_tempo,120,1,0,,,,,,288462,,,,,,,,
153601,note_on,0,0,1,,,,,,,,,0,,,,79,101
153601,note_on,24,0,1,,,,,,,,,0,,,,74,101
153603,note_on,24,0,12,,,,,,,,,11,,,,60,112
153604,note_on,24,0,2,,,,,,,,,1,,,,74,100
153604,note_on,0,0,2,,,,,,,,,1,,,,79,100
153605,note_on,0,0,3,,,,,,,,,2,,,,67,101
153605,note_on,24,0,3,,,,,,,,,2,,,,62,101
153607,program_change,23,0,13,,,,,,,,50,12,,,,,
153608,note_on,1,0,13,,,,,,,,,12,,,,60,112
153609,note_on,0,0,4,,,,,,,,,3,,,,47,100
153609,note_on,24,0,4,,,,,,,,,3,,,,55,100
153612,note_on,24,0,14,,,,,,,,,13,,,,47,0
153612,note_on,0,0,14,,,,,,,,,13,,,,48,112
153614,note_on,0,0,15,,,,,,,,,14,,,,36,112
153614,note_on,24,0,15,,,,,,,,,14,,,,35,0
153624,control_change,24,0,11,,,,,,,,,10,11,72,,,
153625,control_change,24,0,1,,,,,,,,,0,11,61,,,
153627,control_change,24,0,12,,,,,,,,,11,11,72,,,
153628,control_change,24,0,2,,,,,,,,,1,11,61,,,
153629,control_change,24,0,3,,,,,,,,,2,11,61,,,
153630,note_on,6,0,11,,,,,,,,,10,,,,60,0
153632,control_change,24,0,13,,,,,,,,,12,11,72,,,
153633,note_on,6,0,12,,,,,,,,,11,,,,60,0
153633,control_change,24,0,4,,,,,,,,,3,11,65,,,
153636,control_change,24,0,14,,,,,,,,,13,11,72,,,
153638,control_change,24,0,15,,,,,,,,,14,11,72,,,
153638,note_on,6,0,13,,,,,,,,,12,,,,60,0
153642,note_on,6,0,14,,,,,,,,,13,,,,48,0
153644,note_on,6,0,15,,,,,,,,,14,,,,36,0
153660,note_on,30,0,11,,,,,,,,,10,,,,59,112
153661,note_on,36,0,1,,,,,,,,,0,,,,79,0
153661,note_on,0,0,1,,,,,,,,,0,,,,74,0
153663,note_on,30,0,12,,,,,,,,,11,,,,59,112
153664,note_on,36,0,2,,,,,,,,,1,,,,79,0
153664,note_on,0,0,2,,,,,,,,,1,,,,74,0
153665,note_on,0,0,3,,,,,,,,,2,,,,62,0
153665,note_on,36,0,3,,,,,,,,,2,,,,67,0
153668,note_on,30,0,13,,,,,,,,,12,,,,59,112
153669,note_on,0,0,4,,,,,,,,,3,,,,55,0
153669,note_on,36,0,4,,,,,,,,,3,,,,47,0
153672,note_on,30,0,14,,,,,,,,,13,,,,47,112
153672,control_change,12,0,11,,,,,,,,,10,11,72,,,
153673,control_change,12,0,1,,,,,,,,,0,11,62,,,
153674,note_on,30,0,15,,,,,,,,,14,,,,35,112
153675,control_change,12,0,12,,,,,,,,,11,11,72,,,
153676,control_change,12,0,2,,,,,,,,,1,11,62,,,
153677,control_change,12,0,3,,,,,,,,,2,11,62,,,
153680,control_change,12,0,13,,,,,,,,,12,11,72,,,
153681,control_change,12,0,4,,,,,,,,,3,11,66,,,
153684,control_change,12,0,14,,,,,,,,,13,11,72,,,
153686,control_change,12,0,15,,,,,,,,,14,11,72,,,
153690,note_on,18,0,11,,,,,,,,,10,,,,59,0
153693,note_on,18,0,12,,,,,,,,,11,,,,59,0
153698,note_on,18,0,13,,,,,,,,,12,,,,59,0
153702,note_on,18,0,14,,,,,,,,,13,,,,47,0
153704,note_on,18,0,15,,,,,,,,,14,,,,35,0
153720,control_change,0,0,11,,,,,,,,,10,11,73,,,
153720,note_on,30,0,11,,,,,,,,,10,,,,62,112
153720,set_tempo,120,1,0,,,,,,265487,,,,,,,,
153721,control_change,0,0,1,,,,,,,,,0,11,63,,,
153721,note_on,48,0,1,,,,,,,,,0,,,,80,101
153721,note_on,0,0,1,,,,,,,,,0,,,,75,101
153723,control_change,30,0,12,,,,,,,,,11,11,73,,,
153723,note_on,0,0,12,,,,,,,,,11,,,,62,112
153724,control_change,48,0,2,,,,,,,,,1,11,63,,,
153724,note_on,0,0,2,,,,,,,,,1,,,,80,100
153724,note_on,0,0,2,,,,,,,,,1,,,,75,100
153725,note_on,0,0,3,,,,,,,,,2,,,,68,101
153725,note_on,0,0,3,,,,,,,,,2,,,,63,101
153725,control_change,48,0,3,,,,,,,,,2,11,63,,,
153728,control_change,30,0,13,,,,,,,,,12,11,73,,,
153728,note_on,0,0,13,,,,,,,,,12,,,,62,112
153729,note_on,0,0,4,,,,,,,,,3,,,,48,100
153729,control_change,0,0,4,,,,,,,,,3,11,67,,,
153729,note_on,48,0,4,,,,,,,,,3,,,,56,100
153732,control_change,30,0,14,,,,,,,,,13,11,73,,,
153732,note_on,0,0,14,,,,,,,,,13,,,,50,112
153734,control_change,0,0,15,,,,,,,,,14,11,73,,,
153734,note_on,30,0,15,,,,,,,,,14,,,,38,112
153750,note_on,30,0,11,,,,,,,,,10,,,,62,0
153753,note_on,30,0,12,,,,,,,,,11,,,,62,0
153758,note_on,30,0,13,,,,,,,,,12,,,,62,0
153762,note_on,30,0,14,,,,,,,,,13,,,,50,0
153764,note_on,30,0,15,,,,,,,,,14,,,,38,0
153768,control_change,18,0,11,,,,,,,,,10,11,74,,,
153769,control_change,48,0,1,,,,,,,,,0,11,64,,,
153771,control_change,18,0,12,,,,,,,,,11,11,74,,,
153772,control_change,48,0,2,,,,,,,,,1,11,64,,,
153773,control_change,48,0,3,,,,,,,,,2,11,64,,,
153776,control_change,18,0,13,,,,,,,,,12,11,74,,,
153777,control_change,48,0,4,,,,,,,,,3,11,68,,,
153780,control_change,18,0,14,,,,,,,,,13,11,74,,,
153780,note_on,12,0,11,,,,,,,,,10,,,,60,112
153781,note_on,0,0,1,,,,,,,,,0,,,,80,0
153781,note_on,12,0,1,,,,,,,,,0,,,,75,0
153782,control_change,18,0,15,,,,,,,,,14,11,74,,,
153783,note_on,12,0,12,,,,,,,,,11,,,,60,112
153784,note_on,0,0,2,,,,,,,,,1,,,,80,0
153784,note_on,12,0,2,,,,,,,,,1,,,,75,0
153785,note_on,0,0,3,,,,,,,,,2,,,,63,0
153785,note_on,12,0,3,,,,,,,,,2,,,,68,0
153788,note_on,12,0,13,,,,,,,,,12,,,,60,112
153789,note_on,12,0,4,,,,,,,,,3,,,,48,0
153789,note_on,0,0,4,,,,,,,,,3,,,,56,0
153792,note_on,12,0,14,,,,,,,,,13,,,,48,112
153794,note_on,12,0,15,,,,,,,,,14,,,,36,112
153810,note_on,30,0,11,,,,,,,,,10,,,,60,0
153813,note_on,30,0,12,,,,,,,,,11,,,,60,0
153816,control_change,6,0,11,,,,,,,,,10,11,75,,,
153817,control_change,36,0,1,,,,,,,,,0,11,64,,,
153818,note_on,30,0,13,,,,,,,,,12,,,,60,0
153819,control_change,6,0,12,,,,,,,,,11,11,75,,,
153820,control_change,36,0,2,,,,,,,,,1,11,64,,,
153821,control_change,36,0,3,,,,,,,,,2,11,64,,,
153822,note_on,30,0,14,,,,,,,,,13,,,,48,0
153824,control_change,6,0,13,,,,,,,,,12,11,75,,,
153824,note_on,30,0,15,,,,,,,,,14,,,,36,0
153825,control_change,36,0,4,,,,,,,,,3,11,69,,,
153828,control_change,6,0,14,,,,,,,,,13,11,75,,,
153830,control_change,6,0,15,,,,,,,,,14,11,75,,,
153840,note_on,24,0,11,,,,,,,,,10,,,,63,112
153841,note_on,24,0,1,,,,,,,,,0,,,,83,101
153841,note_on,0,0,1,,,,,,,,,0,,,,77,101
153843,note_on,24,0,12,,,,,,,,,11,,,,63,112
153844,note_on,24,0,2,,,,,,,,,1,,,,83,100
153844,note_on,0,0,2,,,,,,,,,1,,,,77,100
153845,note_on,0,0,3,,,,,,,,,2,,,,65,101
153845,note_on,24,0,3,,,,,,,,,2,,,,71,101
153848,note_on,24,0,13,,,,,,,,,12,,,,63,112
153849,note_on,0,0,4,,,,,,,,,3,,,,59,100
153849,note_on,24,0,4,,,,,,,,,3,,,,50,100
153852,note_on,24,0,14,,,,,,,,,13,,,,51,112
153854,note_on,24,0,15,,,,,,,,,14,,,,39,112
153864,control_change,24,0,11,,,,,,,,,10,11,76,,,
153865,control_change,24,0,1,,,,,,,,,0,11,65,,,
153867,control_change,24,0,12,,,,,,,,,11,11,76,,,
153868,control_change,24,0,2,,,,,,,,,1,11,65,,,
153869,control_change,24,0,3,,,,,,,,,2,11,65,,,
153870,note_on,6,0,11,,,,,,,,,10,,,,63,0
153872,control_change,24,0,13,,,,,,,,,12,11,76,,,
153873,note_on,6,0,12,,,,,,,,,11,,,,63,0
153873,control_change,24,0,4,,,,,,,,,3,11,70,,,
153876,control_change,24,0,14,,,,,,,,,13,11,76,,,
153878,note_on,6,0,13,,,,,,,,,12,,,,63,0
153878,control_change,24,0,15,,,,,,,,,14,11,76,,,
153882,note_on,6,0,14,,,,,,,,,13,,,,51,0
153884,note_on,6,0,15,,,,,,,,,14,,,,39,0
153900,note_on,30,0,11,,,,,,,,,10,,,,62,112
153901,note_on,36,0,1,,,,,,,,,0,,,,77,0
153901,note_on,0,0,1,,,,,,,,,0,,,,83,0
153903,note_on,30,0,12,,,,,,,,,11,,,,62,112
153904,note_on,0,0,2,,,,,,,,,1,,,,83,0
153904,note_on,36,0,2,,,,,,,,,1,,,,77,0
153905,note_on,36,0,3,,,,,,,,,2,,,,65,0
153905,note_on,0,0,3,,,,,,,,,2,,,,71,0
153908,note_on,30,0,13,,,,,,,,,12,,,,62,112
153909,note_on,0,0,4,,,,,,,,,3,,,,50,0
153909,note_on,36,0,4,,,,,,,,,3,,,,59,0
153912,control_change,12,0,11,,,,,,,,,10,11,77,,,
153912,note_on,30,0,14,,,,,,,,,13,,,,50,112
153913,control_change,12,0,1,,,,,,,,,0,11,66,,,
153914,note_on,30,0,15,,,,,,,,,14,,,,38,112
153915,control_change,12,0,12,,,,,,,,,11,11,77,,,
153916,control_change,12,0,2,,,,,,,,,1,11,66,,,
153917,control_change,12,0,3,,,,,,,,,2,11,66,,,
153920,control_change,12,0,13,,,,,,,,,12,11,77,,,
153921,control_change,12,0,4,,,,,,,,,3,11,71,,,
153924,control_change,12,0,14,,,,,,,,,13,11,77,,,
153926,control_change,12,0,15,,,,,,,,,14,11,77,,,
153930,note_on,18,0,11,,,,,,,,,10,,,,62,0
153933,note_on,18,0,12,,,,,,,,,11,,,,62,0
153938,note_on,18,0,13,,,,,,,,,12,,,,62,0
153942,note_on,18,0,14,,,,,,,,,13,,,,50,0
153944,note_on,18,0,15,,,,,,,,,14,,,,38,0
153960,note_on,30,0,11,,,,,,,,,10,,,,65,112
153960,set_tempo,240,1,0,,,,,,279070,,,,,,,,
153960,control_change,0,0,11,,,,,,,,,10,11,78,,,
153961,control_change,48,0,1,,,,,,,,,0,11,67,,,
153961,note_on,0,0,1,,,,,,,,,0,,,,79,101
153961,note_on,0,0,1,,,,,,,,,0,,,,84,101
153963,note_on,0,0,12,,,,,,,,,11,,,,65,112
153963,control_change,30,0,12,,,,,,,,,11,11,78,,,
153964,note_on,0,0,2,,,,,,,,,1,,,,79,100
153964,note_on,0,0,2,,,,,,,,,1,,,,84,100
153964,control_change,48,0,2,,,,,,,,,1,11,67,,,
153965,control_change,48,0,3,,,,,,,,,2,11,67,,,
153965,note_on,0,0,3,,,,,,,,,2,,,,72,101
153965,note_on,0,0,3,,,,,,,,,2,,,,67,101
153968,note_on,0,0,13,,,,,,,,,12,,,,65,112
153968,control_change,30,0,13,,,,,,,,,12,11,78,,,
153969,note_on,0,0,4,,,,,,,,,3,,,,51,100
153969,control_change,0,0,4,,,,,,,,,3,11,72,,,
153969,note_on,48,0,4,,,,,,,,,3,,,,60,100
153972,note_on,30,0,14,,,,,,,,,13,,,,53,112
153972,control_change,0,0,14,,,,,,,,,13,11,78,,,
153974,control_change,30,0,15,,,,,,,,,14,11,78,,,
153974,note_on,0,0,15,,,,,,,,,14,,,,41,112
153990,note_on,30,0,11,,,,,,,,,10,,,,65,0
153993,note_on,30,0,12,,,,,,,,,11,,,,65,0
153998,note_on,30,0,13,,,,,,,,,12,,,,65,0
154002,note_on,30,0,14,,,,,,,,,13,,,,53,0
154004,note_on,30,0,15,,,,,,,,,14,,,,41,0
154008,control_change,18,0,11,,,,,,,,,10,11,79,,,
154009,control_change,48,0,1,,,,,,,,,0,11,67,,,
154011,control_change,18,0,12,,,,,,,,,11,11,79,,,
154012,control_change,48,0,2,,,,,,,,,1,11,67,,,
154013,control_change,48,0,3,,,,,,,,,2,11,67,,,
154016,control_change,18,0,13,,,,,,,,,12,11,79,,,
154017,control_change,48,0,4,,,,,,,,,3,11,73,,,
154020,note_on,12,0,11,,,,,,,,,10,,,,63,112
154020,control_change,18,0,14,,,,,,,,,13,11,79,,,
154021,note_on,0,0,1,,,,,,,,,0,,,,79,0
154021,note_on,12,0,1,,,,,,,,,0,,,,84,0
154022,control_change,18,0,15,,,,,,,,,14,11,79,,,
154023,note_on,12,0,12,,,,,,,,,11,,,,63,112
154024,note_on,12,0,2,,,,,,,,,1,,,,79,0
154024,note_on,0,0,2,,,,,,,,,1,,,,84,0
154025,note_on,12,0,3,,,,,,,,,2,,,,67,0
154025,note_on,0,0,3,,,,,,,,,2,,,,72,0
154028,note_on,12,0,13,,,,,,,,,12,,,,63,112
154029,note_on,0,0,4,,,,,,,,,3,,,,60,0
154029,note_on,12,0,4,,,,,,,,,3,,,,51,0
154032,note_on,12,0,14,,,,,,,,,13,,,,51,112
154034,note_on,12,0,15,,,,,,,,,14,,,,39,112
154050,note_on,30,0,11,,,,,,,,,10,,,,63,0
154053,note_on,30,0,12,,,,,,,,,11,,,,63,0
154056,control_change,6,0,11,,,,,,,,,10,11,80,,,
154057,control_change,36,0,1,,,,,,,,,0,11,68,,,
154058,note_on,30,0,13,,,,,,,,,12,,,,63,0
154059,control_change,6,0,12,,,,,,,,,11,11,80,,,
154060,control_change,36,0,2,,,,,,,,,1,11,68,,,
154061,control_change,36,0,3,,,,,,,,,2,11,68,,,
154062,note_on,30,0,14,,,,,,,,,13,,,,51,0
154064,control_change,6,0,13,,,,,,,,,12,11,80,,,
154064,note_on,30,0,15,,,,,,,,,14,,,,39,0
154065,control_change,36,0,4,,,,,,,,,3,11,74,,,
154068,control_change,6,0,14,,,,,,,,,13,11,80,,,
154070,control_change,6,0,15,,,,,,,,,14,11,80,,,
154080,note_on,24,0,11,,,,,,,,,10,,,,67,112
154080,set_tempo,120,1,0,,,,,,265487,,,,,,,,
154081,note_on,24,0,1,,,,,,,,,0,,,,86,101
154081,note_on,0,0,1,,,,,,,,,0,,,,80,101
154083,note_on,24,0,12,,,,,,,,,11,,,,67,112
154084,note_on,24,0,2,,,,,,,,,1,,,,74,100
154084,note_on,0,0,2,,,,,,,,,1,,,,68,100
154085,note_on,24,0,3,,,,,,,,,2,,,,68,101
154085,note_on,0,0,3,,,,,,,,,2,,,,74,101
154088,note_on,24,0,13,,,,,,,,,12,,,,67,112
154089,note_on,0,0,4,,,,,,,,,3,,,,53,100
154089,note_on,24,0,4,,,,,,,,,3,,,,62,100
154092,note_on,24,0,14,,,,,,,,,13,,,,55,112
154094,note_on,24,0,15,,,,,,,,,14,,,,43,112
154104,control_change,24,0,11,,,,,,,,,10,11,81,,,
154105,control_change,24,0,1,,,,,,,,,0,11,69,,,
154107,control_change,24,0,12,,,,,,,,,11,11,81,,,
154108,control_change,24,0,2,,,,,,,,,1,11,69,,,
154109,control_change,24,0,3,,,,,,,,,2,11,69,,,
154110,note_on,6,0,11,,,,,,,,,10,,,,67,0
154112,control_change,24,0,13,,,,,,,,,12,11,81,,,
154113,control_change,24,0,4,,,,,,,,,3,11,75,,,
154113,note_on,6,0,12,,,,,,,,,11,,,,67,0
154116,control_change,24,0,14,,,,,,,,,13,11,81,,,
154118,note_on,6,0,13,,,,,,,,,12,,,,67,0
154118,control_change,24,0,15,,,,,,,,,14,11,81,,,
154122,note_on,6,0,14,,,,,,,,,13,,,,55,0
154124,note_on,6,0,15,,,,,,,,,14,,,,43,0
154140,note_on,30,0,11,,,,,,,,,10,,,,65,112
154141,note_on,0,0,1,,,,,,,,,0,,,,86,0
154141,note_on,36,0,1,,,,,,,,,0,,,,80,0
154143,note_on,30,0,12,,,,,,,,,11,,,,65,112
154144,note_on,36,0,2,,,,,,,,,1,,,,68,0
154144,note_on,0,0,2,,,,,,,,,1,,,,74,0
154145,note_on,36,0,3,,,,,,,,,2,,,,74,0
154145,note_on,0,0,3,,,,,,,,,2,,,,68,0
154148,note_on,30,0,13,,,,,,,,,12,,,,65,112
154149,note_on,0,0,4,,,,,,,,,3,,,,62,0
154149,note_on,36,0,4,,,,,,,,,3,,,,53,0
154152,control_change,12,0,11,,,,,,,,,10,11,82,,,
154152,note_on,30,0,14,,,,,,,,,13,,,,53,112
154153,control_change,12,0,1,,,,,,,,,0,11,70,,,
154154,note_on,30,0,15,,,,,,,,,14,,,,41,112
154155,control_change,12,0,12,,,,,,,,,11,11,82,,,
154156,control_change,12,0,2,,,,,,,,,1,11,70,,,
154157,control_change,12,0,3,,,,,,,,,2,11,70,,,
154160,control_change,12,0,13,,,,,,,,,12,11,82,,,
154161,control_change,12,0,4,,,,,,,,,3,11,76,,,
154164,control_change,12,0,14,,,,,,,,,13,11,82,,,
154166,control_change,12,0,15,,,,,,,,,14,11,82,,,
154170,note_on,18,0,11,,,,,,,,,10,,,,65,0
154173,note_on,18,0,12,,,,,,,,,11,,,,65,0
154178,note_on,18,0,13,,,,,,,,,12,,,,65,0
154182,note_on,18,0,14,,,,,,,,,13,,,,53,0
154184,note_on,18,0,15,,,,,,,,,14,,,,41,0
154200,note_on,30,0,11,,,,,,,,,10,,,,68,112
154200,control_change,0,0,11,,,,,,,,,10,11,83,,,
154201,note_on,48,0,1,,,,,,,,,0,,,,87,101
154201,control_change,0,0,1,,,,,,,,,0,11,70,,,
154201,note_on,0,0,1,,,,,,,,,0,,,,82,101
154203,note_on,30,0,12,,,,,,,,,11,,,,68,112
154203,control_change,0,0,12,,,,,,,,,11,11,83,,,
154204,note_on,48,0,2,,,,,,,,,1,,,,70,100
154204,control_change,0,0,2,,,,,,,,,1,11,70,,,
154204,note_on,0,0,2,,,,,,,,,1,,,,75,100
154205,control_change,0,0,3,,,,,,,,,2,11,70,,,
154205,note_on,48,0,3,,,,,,,,,2,,,,75,101
154205,note_on,0,0,3,,,,,,,,,2,,,,70,101
154208,note_on,0,0,13,,,,,,,,,12,,,,68,112
154208,control_change,30,0,13,,,,,,,,,12,11,83,,,
154209,note_on,0,0,4,,,,,,,,,3,,,,55,100
154209,note_on,48,0,4,,,,,,,,,3,,,,63,100
154209,control_change,0,0,4,,,,,,,,,3,11,77,,,
154212,control_change,0,0,14,,,,,,,,,13,11,83,,,
154212,note_on,30,0,14,,,,,,,,,13,,,,56,112
154214,note_on,0,0,15,,,,,,,,,14,,,,44,112
154214,control_change,30,0,15,,,,,,,,,14,11,83,,,
154230,note_on,30,0,11,,,,,,,,,10,,,,68,0
154233,note_on,30,0,12,,,,,,,,,11,,,,68,0
154238,note_on,30,0,13,,,,,,,,,12,,,,68,0
154242,note_on,30,0,14,,,,,,,,,13,,,,56,0
154244,note_on,30,0,15,,,,,,,,,14,,,,44,0
154248,control_change,18,0,11,,,,,,,,,10,11,84,,,
154249,control_change,48,0,1,,,,,,,,,0,11,71,,,
154251,control_change,18,0,12,,,,,,,,,11,11,84,,,
154252,control_change,48,0,2,,,,,,,,,1,11,71,,,
154253,control_change,48,0,3,,,,,,,,,2,11,71,,,
154256,control_change,18,0,13,,,,,,,,,12,11,84,,,
154257,control_change,48,0,4,,,,,,,,,3,11,78,,,
154260,control_change,18,0,14,,,,,,,,,13,11,84,,,
154260,note_on,12,0,11,,,,,,,,,10,,,,67,112
154261,note_on,0,0,1,,,,,,,,,0,,,,87,0
154261,note_on,12,0,1,,,,,,,,,0,,,,82,0
154262,control_change,18,0,15,,,,,,,,,14,11,84,,,
154263,note_on,12,0,12,,,,,,,,,11,,,,67,112
154264,note_on,0,0,2,,,,,,,,,1,,,,70,0
154264,note_on,12,0,2,,,,,,,,,1,,,,75,0
154265,note_on,0,0,3,,,,,,,,,2,,,,75,0
154265,note_on,12,0,3,,,,,,,,,2,,,,70,0
154268,note_on,12,0,13,,,,,,,,,12,,,,67,112
154269,note_on,12,0,4,,,,,,,,,3,,,,55,0
154269,note_on,0,0,4,,,,,,,,,3,,,,63,0
154272,note_on,12,0,14,,,,,,,,,13,,,,55,112
154274,note_on,12,0,15,,,,,,,,,14,,,,43,112
154290,note_on,30,0,11,,,,,,,,,10,,,,67,0
154293,note_on,30,0,12,,,,,,,,,11,,,,67,0
154296,control_change,6,0,11,,,,,,,,,10,11,85,,,
154297,control_change,36,0,1,,,,,,,,,0,11,72,,,
154298,note_on,30,0,13,,,,,,,,,12,,,,67,0
154299,control_change,6,0,12,,,,,,,,,11,11,85,,,
154300,control_change,36,0,2,,,,,,,,,1,11,72,,,
154301,control_change,36,0,3,,,,,,,,,2,11,72,,,
154302,note_on,30,0,14,,,,,,,,,13,,,,55,0
154304,control_change,6,0,13,,,,,,,,,12,11,85,,,
154304,note_on,30,0,15,,,,,,,,,14,,,,43,0
154305,control_change,36,0,4,,,,,,,,,3,11,79,,,
154308,control_change,6,0,14,,,,,,,,,13,11,85,,,
154310,control_change,6,0,15,,,,,,,,,14,11,85,,,
154320,set_tempo,240,1,0,,,,,,279070,,,,,,,,
154320,note_on,24,0,11,,,,,,,,,10,,,,70,112
154321,note_on,24,0,1,,,,,,,,,0,,,,90,101
154321,note_on,0,0,1,,,,,,,,,0,,,,87,101
154323,note_on,24,0,12,,,,,,,,,11,,,,70,112
154324,note_on,24,0,2,,,,,,,,,1,,,,78,100
154324,note_on,0,0,2,,,,,,,,,1,,,,72,100
154325,note_on,24,0,3,,,,,,,,,2,,,,66,101
154325,note_on,0,0,3,,,,,,,,,2,,,,75,101
154328,note_on,24,0,13,,,,,,,,,12,,,,70,112
154329,note_on,24,0,4,,,,,,,,,3,,,,66,100
154329,note_on,0,0,4,,,,,,,,,3,,,,56,100
154332,note_on,24,0,14,,,,,,,,,13,,,,58,112
154334,note_on,24,0,15,,,,,,,,,14,,,,46,112
154344,control_change,24,0,11,,,,,,,,,10,11,86,,,
154345,control_change,24,0,1,,,,,,,,,0,11,73,,,
154347,control_change,24,0,12,,,,,,,,,11,11,86,,,
154348,control_change,24,0,2,,,,,,,,,1,11,73,,,
154349,control_change,24,0,3,,,,,,,,,2,11,73,,,
154350,note_on,6,0,11,,,,,,,,,10,,,,70,0
154352,control_change,24,0,13,,,,,,,,,12,11,86,,,
154353,note_on,6,0,12,,,,,,,,,11,,,,70,0
154353,control_change,24,0,4,,,,,,,,,3,11,80,,,
154356,control_change,24,0,14,,,,,,,,,13,11,86,,,
154358,control_change,24,0,15,,,,,,,,,14,11,86,,,
154358,note_on,6,0,13,,,,,,,,,12,,,,70,0
154362,note_on,6,0,14,,,,,,,,,13,,,,58,0
154364,note_on,6,0,15,,,,,,,,,14,,,,46,0
154380,note_on,30,0,11,,,,,,,,,10,,,,68,112
154381,note_on,36,0,1,,,,,,,,,0,,,,87,0
154381,note_on,0,0,1,,,,,,,,,0,,,,90,0
154383,note_on,30,0,12,,,,,,,,,11,,,,68,112
154384,note_on,36,0,2,,,,,,,,,1,,,,72,0
154384,note_on,0,0,2,,,,,,,,,1,,,,78,0
154385,note_on,0,0,3,,,,,,,,,2,,,,66,0
154385,note_on,36,0,3,,,,,,,,,2,,,,75,0
154388,note_on,30,0,13,,,,,,,,,12,,,,68,112
154389,note_on,0,0,4,,,,,,,,,3,,,,66,0
154389,note_on,36,0,4,,,,,,,,,3,,,,56,0
154392,note_on,30,0,14,,,,,,,,,13,,,,56,112
154392,control_change,12,0,11,,,,,,,,,10,11,87,,,
154393,control_change,12,0,1,,,,,,,,,0,11,73,,,
154394,note_on,30,0,15,,,,,,,,,14,,,,44,112
154395,control_change,12,0,12,,,,,,,,,11,11,87,,,
154396,control_change,12,0,2,,,,,,,,,1,11,73,,,
154397,control_change,12,0,3,,,,,,,,,2,11,73,,,
154400,control_change,12,0,13,,,,,,,,,12,11,87,,,
154401,control_change,12,0,4,,,,,,,,,3,11,81,,,
154404,control_change,12,0,14,,,,,,,,,13,11,87,,,
154406,control_change,12,0,15,,,,,,,,,14,11,87,,,
154410,note_on,18,0,11,,,,,,,,,10,,,,68,0
154413,note_on,18,0,12,,,,,,,,,11,,,,68,0
154418,note_on,18,0,13,,,,,,,,,12,,,,68,0
154422,note_on,18,0,14,,,,,,,,,13,,,,56,0
154424,note_on,18,0,15,,,,,,,,,14,,,,44,0
154440,control_change,0,0,11,,,,,,,,,10,11,87,,,
154440,set_tempo,120,1,0,,,,,,265487,,,,,,,,
154440,note_on,30,0,11,,,,,,,,,10,,,,67,112
154441,note_on,0,0,1,,,,,,,,,0,,,,88,101
154441,control_change,0,0,1,,,,,,,,,0,11,74,,,
154441,note_on,48,0,1,,,,,,,,,0,,,,91,101
154442,note_on,0,0,7,,,,,,,,,6,,,,55,112
154442,note_on,0,0,7,,,,,,,,,6,,,,67,112
154442,control_change,14050,0,7,,,,,,,,,6,11,87,,,
154443,note_on,0,0,5,,,,,,,,,4,,,,64,100
154443,note_on,30,0,12,,,,,,,,,11,,,,67,112
154443,control_change,7920,0,5,,,,,,,,,4,11,87,,,
154443,control_change,0,0,12,,,,,,,,,11,11,87,,,
154444,control_change,0,0,6,,,,,,,,,5,11,87,,,
154444,note_on,7920,0,6,,,,,,,,,5,,,,60,100
154444,note_on,48,0,2,,,,,,,,,1,,,,79,100
154444,note_on,0,0,2,,,,,,,,,1,,,,76,100
154444,control_change,0,0,2,,,,,,,,,1,11,74,,,
154445,control_change,48,0,3,,,,,,,,,2,11,74,,,
154445,note_on,0,0,3,,,,,,,,,2,,,,67,101
154445,note_on,0,0,3,,,,,,,,,2,,,,72,101
154447,note_on,14050,0,8,,,,,,,,,7,,,,64,110
154447,note_on,0,0,8,,,,,,,,,7,,,,60,110
154447,control_change,0,0,8,,,,,,,,,7,11,87,,,
154448,control_change,0,0,13,,,,,,,,,12,11,87,,,
154448,note_on,30,0,13,,,,,,,,,12,,,,67,112
154449,note_on,0,0,4,,,,,,,,,3,,,,55,100
154449,note_on,48,0,4,,,,,,,,,3,,,,67,100
154449,control_change,0,0,4,,,,,,,,,3,11,82,,,
154452,note_on,0,0,14,,,,,,,,,13,,,,55,112
154452,control_change,30,0,14,,,,,,,,,13,11,87,,,
154453,control_change,14050,0,9,,,,,,,,,8,11,87,,,
154453,note_on,0,0,9,,,,,,,,,8,,,,55,110
154454,note_on,30,0,15,,,,,,,,,14,,,,43,112
154454,control_change,0,0,15,,,,,,,,,14,11,87,,,
154455,note_on,14040,0,10,,,,,,,,,15,,,,43,85
154500,note_on,60,0,11,,,,,,,,,10,,,,67,0
154503,note_on,60,0,12,,,,,,,,,11,,,,67,0
154508,note_on,60,0,13,,,,,,,,,12,,,,67,0
154512,note_on,60,0,14,,,,,,,,,13,,,,55,0
154514,note_on,60,0,15,,,,,,,,,14,,,,43,0
154561,note_on,0,0,1,,,,,,,,,0,,,,91,0
154561,note_on,120,0,1,,,,,,,,,0,,,,88,0
154562,note_on,120,0,7,,,,,,,,,6,,,,55,0
154562,note_on,0,0,7,,,,,,,,,6,,,,67,0
154563,note_on,120,0,5,,,,,,,,,4,,,,64,0
154564,note_on,120,0,2,,,,,,,,,1,,,,76,0
154564,note_on,120,0,6,,,,,,,,,5,,,,60,0
154564,note_on,0,0,2,,,,,,,,,1,,,,79,0
154565,note_on,120,0,3,,,,,,,,,2,,,,72,0
154565,note_on,0,0,3,,,,,,,,,2,,,,67,0
154567,note_on,0,0,8,,,,,,,,,7,,,,64,0
154567,note_on,120,0,8,,,,,,,,,7,,,,60,0
154569,note_on,0,0,4,,,,,,,,,3,,,,67,0
154569,note_on,120,0,4,,,,,,,,,3,,,,55,0
154573,note_on,120,0,9,,,,,,,,,8,,,,55,0
154575,note_on,120,0,10,,,,,,,,,15,,,,43,0
154680,set_tempo,240,1,0,,,,,,295567,,,,,,,,
154800,set_tempo,120,1,0,,,,,,265487,,,,,,,,
154800,control_change,300,0,11,,,,,,,,,10,11,102,,,
154800,note_on,0,0,11,,,,,,,,,10,,,,83,112
154800,note_on,0,0,11,,,,,,,,,10,,,,67,112
154800,note_on,0,0,11,,,,,,,,,10,,,,74,112
154801,control_change,240,0,1,,,,,,,,,0,11,86,,,
154801,note_on,0,0,1,,,,,,,,,0,,,,86,101
154801,note_on,0,0,1,,,,,,,,,0,,,,83,101
154802,note_on,0,0,7,,,,,,,,,6,,,,67,112
154802,control_change,240,0,7,,,,,,,,,6,11,102,,,
154802,note_on,0,0,7,,,,,,,,,6,,,,55,112
154803,note_on,0,0,12,,,,,,,,,11,,,,79,112
154803,control_change,300,0,12,,,,,,,,,11,11,102,,,
154803,note_on,0,0,12,,,,,,,,,11,,,,55,112
154803,control_change,0,0,5,,,,,,,,,4,11,102,,,
154803,note_on,240,0,5,,,,,,,,,4,,,,62,100
154803,note_on,0,0,12,,,,,,,,,11,,,,62,112
154803,note_on,0,0,12,,,,,,,,,11,,,,71,112
154804,control_change,0,0,2,,,,,,,,,1,11,86,,,
154804,note_on,0,0,2,,,,,,,,,1,,,,77,100
154804,note_on,0,0,6,,,,,,,,,5,,,,55,100
154804,control_change,240,0,6,,,,,,,,,5,11,102,,,
154804,note_on,240,0,2,,,,,,,,,1,,,,83,100
154805,note_on,240,0,3,,,,,,,,,2,,,,71,101
154805,control_change,0,0,3,,,,,,,,,2,11,86,,,
154805,note_on,0,0,3,,,,,,,,,2,,,,74,101
154807,note_on,0,0,8,,,,,,,,,7,,,,59,110
154807,note_on,0,0,8,,,,,,,,,7,,,,62,110
154807,control_change,240,0,8,,,,,,,,,7,11,102,,,
154808,control_change,0,0,13,,,,,,,,,12,11,102,,,
154808,note_on,0,0,13,,,,,,,,,12,,,,71,112
154808,note_on,0,0,13,,,,,,,,,12,,,,62,112
154808,note_on,300,0,13,,,,,,,,,12,,,,55,112
154809,control_change,240,0,4,,,,,,,,,3,11,97,,,
154809,note_on,0,0,4,,,,,,,,,3,,,,59,100
154809,note_on,0,0,4,,,,,,,,,3,,,,65,100
154812,control_change,0,0,14,,,,,,,,,13,11,102,,,
154812,note_on,300,0,14,,,,,,,,,13,,,,43,112
154813,note_on,0,0,9,,,,,,,,,8,,,,43,110
154813,control_change,240,0,9,,,,,,,,,8,11,102,,,
154814,note_on,0,0,15,,,,,,,,,14,,,,31,112
154814,control_change,300,0,15,,,,,,,,,14,11,102,,,
154815,note_on,240,0,10,,,,,,,,,15,,,,43,85
154920,note_on,120,0,11,,,,,,,,,10,,,,74,0
154920,note_on,0,0,11,,,,,,,,,10,,,,67,0
154920,note_on,0,0,11,,,,,,,,,10,,,,83,0
154921,note_on,0,0,1,,,,,,,,,0,,,,86,0
154921,note_on,120,0,1,,,,,,,,,0,,,,83,0
154922,note_on,120,0,7,,,,,,,,,6,,,,67,0
154922,note_on,0,0,7,,,,,,,,,6,,,,55,0
154923,note_on,120,0,12,,,,,,,,,11,,,,71,0
154923,note_on,0,0,12,,,,,,,,,11,,,,79,0
154923,note_on,0,0,12,,,,,,,,,11,,,,55,0
154923,note_on,0,0,12,,,,,,,,,11,,,,62,0
154923,note_on,120,0,5,,,,,,,,,4,,,,62,0
154924,note_on,120,0,2,,,,,,,,,1,,,,77,0
154924,note_on,120,0,6,,,,,,,,,5,,,,55,0
154924,note_on,0,0,2,,,,,,,,,1,,,,83,0
154925,note_on,120,0,3,,,,,,,,,2,,,,74,0
154925,note_on,0,0,3,,,,,,,,,2,,,,71,0
154927,note_on,0,0,8,,,,,,,,,7,,,,62,0
154927,note_on,120,0,8,,,,,,,,,7,,,,59,0
154928,note_on,0,0,13,,,,,,,,,12,,,,55,0
154928,note_on,0,0,13,,,,,,,,,12,,,,62,0
154928,note_on,120,0,13,,,,,,,,,12,,,,71,0
154929,note_on,120,0,4,,,,,,,,,3,,,,59,0
154929,note_on,0,0,4,,,,,,,,,3,,,,65,0
154932,note_on,120,0,14,,,,,,,,,13,,,,43,0
154933,note_on,120,0,9,,,,,,,,,8,,,,43,0
154934,note_on,120,0,15,,,,,,,,,14,,,,31,0
154935,note_on,120,0,10,,,,,,,,,15,,,,43,0
155040,set_tempo,240,1,0,,,,,,295567,,,,,,,,
155160,set_tempo,120,1,0,,,,,,263158,,,,,,,,
155160,note_on,0,0,11,,,,,,,,,10,,,,67,112
155160,note_on,0,0,11,,,,,,,,,10,,,,84,112
155160,note_on,240,0,11,,,,,,,,,10,,,,76,112
155161,note_on,0,0,1,,,,,,,,,0,,,,88,101
155161,note_on,240,0,1,,,,,,,,,0,,,,84,101
155162,note_on,0,0,7,,,,,,,,,6,,,,72,112
155162,note_on,240,0,7,,,,,,,,,6,,,,60,112
155163,note_on,0,0,12,,,,,,,,,11,,,,60,112
155163,note_on,240,0,5,,,,,,,,,4,,,,60,100
155163,note_on,0,0,12,,,,,,,,,11,,,,67,112
155163,note_on,240,0,12,,,,,,,,,11,,,,76,112
155164,note_on,240,0,2,,,,,,,,,1,,,,76,100
155164,note_on,0,0,2,,,,,,,,,1,,,,84,100
155164,note_on,240,0,6,,,,,,,,,5,,,,52,100
155165,note_on,0,0,3,,,,,,,,,2,,,,76,101
155165,note_on,240,0,3,,,,,,,,,2,,,,72,101
155167,note_on,0,0,8,,,,,,,,,7,,,,64,110
155167,note_on,240,0,8,,,,,,,,,7,,,,60,110
155168,note_on,0,0,13,,,,,,,,,12,,,,64,112
155168,note_on,0,0,13,,,,,,,,,12,,,,55,112
155168,note_on,240,0,13,,,,,,,,,12,,,,48,112
155168,note_on,0,0,13,,,,,,,,,12,,,,72,112
155169,note_on,240,0,4,,,,,,,,,3,,,,60,100
155169,note_on,0,0,4,,,,,,,,,3,,,,64,100
155172,note_on,240,0,14,,,,,,,,,13,,,,48,112
155173,note_on,240,0,9,,,,,,,,,8,,,,48,110
155174,note_on,240,0,15,,,,,,,,,14,,,,36,112
155175,note_on,240,0,10,,,,,,,,,15,,,,48,85
155194,note_on,30,0,2,,,,,,,,,1,,,,84,0
155195,note_on,30,0,3,,,,,,,,,2,,,,76,0
155224,note_on,30,0,2,,,,,,,,,1,,,,79,100
155224,control_change,0,0,2,,,,,,,,,1,11,47,,,
155225,note_on,30,0,3,,,,,,,,,2,,,,67,101
155225,control_change,0,0,3,,,,,,,,,2,11,47,,,
155254,note_on,30,0,2,,,,,,,,,1,,,,79,0
155255,note_on,30,0,3,,,,,,,,,2,,,,67,0
155280,note_on,0,0,11,,,,,,,,,10,,,,76,0
155280,note_on,0,0,11,,,,,,,,,10,,,,67,0
155280,note_on,120,0,11,,,,,,,,,10,,,,84,0
155281,note_on,0,0,1,,,,,,,,,0,,,,84,0
155281,note_on,120,0,1,,,,,,,,,0,,,,88,0
155282,note_on,120,0,7,,,,,,,,,6,,,,72,0
155282,note_on,0,0,7,,,,,,,,,6,,,,60,0
155283,note_on,120,0,5,,,,,,,,,4,,,,60,0
155283,note_on,0,0,12,,,,,,,,,11,,,,76,0
155283,note_on,0,0,12,,,,,,,,,11,,,,67,0
155283,note_on,120,0,12,,,,,,,,,11,,,,60,0
155284,note_on,30,0,2,,,,,,,,,1,,,,76,0
155284,note_on,0,0,2,,,,,,,,,1,,,,81,100
155284,note_on,120,0,6,,,,,,,,,5,,,,52,0
155285,note_on,0,0,3,,,,,,,,,2,,,,69,101
155285,note_on,30,0,3,,,,,,,,,2,,,,72,0
155287,note_on,0,0,8,,,,,,,,,7,,,,60,0
155287,note_on,120,0,8,,,,,,,,,7,,,,64,0
155288,note_on,120,0,13,,,,,,,,,12,,,,72,0
155288,note_on,0,0,13,,,,,,,,,12,,,,48,0
155288,note_on,0,0,13,,,,,,,,,12,,,,55,0
155288,note_on,0,0,13,,,,,,,,,12,,,,64,0
155289,note_on,120,0,4,,,,,,,,,3,,,,64,0
155289,note_on,0,0,4,,,,,,,,,3,,,,60,0
155292,note_on,120,0,14,,,,,,,,,13,,,,48,0
155293,note_on,120,0,9,,,,,,,,,8,,,,48,0
155294,note_on,120,0,15,,,,,,,,,14,,,,36,0
155295,note_on,120,0,10,,,,,,,,,15,,,,48,0
155344,note_on,0,0,2,,,,,,,,,1,,,,79,100
155344,note_on,60,0,2,,,,,,,,,1,,,,81,0
155345,note_on,0,0,3,,,,,,,,,2,,,,67,101
155345,note_on,60,0,3,,,,,,,,,2,,,,69,0
155400,set_tempo,240,1,0,,,,,,279070,,,,,,,,
155404,note_on,60,0,2,,,,,,,,,1,,,,79,0
155404,note_on,0,0,2,,,,,,,,,1,,,,81,100
155405,note_on,0,0,3,,,,,,,,,2,,,,69,101
155405,note_on,60,0,3,,,,,,,,,2,,,,67,0
155412,control_change,120,0,14,,,,,,,,,13,11,50,,,
155412,note_on,0,0,14,,,,,,,,,13,,,,52,112
155414,note_on,120,0,15,,,,,,,,,14,,,,40,112
155414,control_change,0,0,15,,,,,,,,,14,11,50,,,
155464,note_on,0,0,2,,,,,,,,,1,,,,79,100
155464,note_on,60,0,2,,,,,,,,,1,,,,81,0
155465,note_on,0,0,3,,,,,,,,,2,,,,67,101
155465,note_on,60,0,3,,,,,,,,,2,,,,69,0
155472,note_on,60,0,14,,,,,,,,,13,,,,52,0
155474,note_on,60,0,15,,,,,,,,,14,,,,40,0
155520,set_tempo,120,1,0,,,,,,264901,,,,,,,,
155524,note_on,60,0,2,,,,,,,,,1,,,,79,0
155524,note_on,0,0,2,,,,,,,,,1,,,,76,100
155524,note_on,0,0,2,,,,,,,,,1,,,,79,100
155525,note_on,60,0,3,,,,,,,,,2,,,,67,0
155525,note_on,0,0,3,,,,,,,,,2,,,,67,101
155529,note_on,240,0,4,,,,,,,,,3,,,,64,100
155529,control_change,0,0,4,,,,,,,,,3,11,47,,,
155532,note_on,60,0,14,,,,,,,,,13,,,,55,112
155534,note_on,60,0,15,,,,,,,,,14,,,,43,112
155584,note_on,60,0,2,,,,,,,,,1,,,,79,0
155584,note_on,0,0,2,,,,,,,,,1,,,,76,0
155585,note_on,60,0,3,,,,,,,,,2,,,,67,0
155589,note_on,60,0,4,,,,,,,,,3,,,,64,0
155592,note_on,60,0,14,,,,,,,,,13,,,,55,0
155594,note_on,60,0,15,,,,,,,,,14,,,,43,0
155640,set_tempo,120,1,0,,,,,,272727,,,,,,,,
155644,note_on,0,0,2,,,,,,,,,1,,,,76,100
155644,note_on,60,0,2,,,,,,,,,1,,,,79,100
155645,note_on,60,0,3,,,,,,,,,2,,,,67,101
155649,note_on,60,0,4,,,,,,,,,3,,,,64,100
155652,note_on,60,0,14,,,,,,,,,13,,,,52,112
155654,note_on,60,0,15,,,,,,,,,14,,,,40,112
155704,note_on,0,0,2,,,,,,,,,1,,,,79,0
155704,note_on,60,0,2,,,,,,,,,1,,,,76,0
155705,note_on,60,0,3,,,,,,,,,2,,,,67,0
155709,note_on,60,0,4,,,,,,,,,3,,,,64,0
155712,note_on,60,0,14,,,,,,,,,13,,,,52,0
155714,note_on,60,0,15,,,,,,,,,14,,,,40,0
155760,control_change,0,0,11,,,,,,,,,10,11,50,,,
155760,set_tempo,120,1,0,,,,,,300000,,,,,,,,
155760,note_on,480,0,11,,,,,,,,,10,,,,72,112
155764,note_on,60,0,2,,,,,,,,,1,,,,79,100
155764,note_on,0,0,2,,,,,,,,,1,,,,76,100
155765,note_on,60,0,3,,,,,,,,,2,,,,67,101
155769,note_on,60,0,4,,,,,,,,,3,,,,64,100
155772,note_on,60,0,14,,,,,,,,,13,,,,48,112
155774,note_on,60,0,15,,,,,,,,,14,,,,36,112
155800,note_on,40,0,11,,,,,,,,,10,,,,72,0
155800,note_on,0,0,11,,,,,,,,,10,,,,74,112
155824,note_on,0,0,2,,,,,,,,,1,,,,79,0
155824,note_on,60,0,2,,,,,,,,,1,,,,76,0
155825,note_on,60,0,3,,,,,,,,,2,,,,67,0
155829,note_on,60,0,4,,,,,,,,,3,,,,64,0
155832,note_on,60,0,14,,,,,,,,,13,,,,48,0
155834,note_on,60,0,15,,,,,,,,,14,,,,36,0
155840,note_on,0,0,11,,,,,,,,,10,,,,72,112
155840,note_on,40,0,11,,,,,,,,,10,,,,74,0
155880,set_tempo,120,1,0,,,,,,263158,,,,,,,,
155880,note_on,0,0,11,,,,,,,,,10,,,,71,112
155880,note_on,40,0,11,,,,,,,,,10,,,,72,0
155880,control_change,0,0,11,,,,,,,,,10,11,55,,,
155883,control_change,600,0,5,,,,,,,,,4,11,52,,,
155883,note_on,0,0,5,,,,,,,,,4,,,,67,100
155884,note_on,0,0,2,,,,,,,,,1,,,,77,100
155884,note_on,0,0,2,,,,,,,,,1,,,,79,100
155884,control_change,60,0,2,,,,,,,,,1,11,52,,,
155884,note_on,600,0,6,,,,,,,,,5,,,,55,100
155884,control_change,0,0,6,,,,,,,,,5,11,52,,,
155885,control_change,60,0,3,,,,,,,,,2,11,52,,,
155885,note_on,0,0,3,,,,,,,,,2,,,,67,101
155887,control_change,4,0,5,,,,,,,,,4,11,55,,,
155888,control_change,4,0,6,,,,,,,,,5,11,55,,,
155889,control_change,9,0,11,,,,,,,,,10,11,60,,,
155889,control_change,60,0,4,,,,,,,,,3,11,52,,,
155889,note_on,0,0,4,,,,,,,,,3,,,,65,100
155892,control_change,0,0,14,,,,,,,,,13,11,55,,,
155892,note_on,60,0,14,,,,,,,,,13,,,,55,112
155892,control_change,5,0,5,,,,,,,,,4,11,58,,,
155893,control_change,9,0,2,,,,,,,,,1,11,56,,,
155893,control_change,5,0,6,,,,,,,,,5,11,58,,,
155893,control_change,4,0,11,,,,,,,,,10,11,63,,,
155893,control_change,4,0,4,,,,,,,,,3,11,55,,,
155894,control_change,9,0,3,,,,,,,,,2,11,56,,,
155894,control_change,60,0,15,,,,,,,,,14,11,55,,,
155894,note_on,0,0,15,,,,,,,,,14,,,,43,112
155896,control_change,4,0,5,,,,,,,,,4,11,61,,,
155897,control_change,4,0,6,,,,,,,,,5,11,61,,,
155898,control_change,5,0,11,,,,,,,,,10,11,66,,,
155898,control_change,5,0,4,,,,,,,,,3,11,58,,,
155901,control_change,9,0,14,,,,,,,,,13,11,60,,,
155901,control_change,5,0,5,,,,,,,,,4,11,64,,,
155902,control_change,4,0,4,,,,,,,,,3,11,61,,,
155902,control_change,4,0,11,,,,,,,,,10,11,69,,,
155902,control_change,9,0,2,,,,,,,,,1,11,61,,,
155902,control_change,5,0,6,,,,,,,,,5,11,64,,,
155903,control_change,9,0,15,,,,,,,,,14,11,60,,,
155903,control_change,9,0,3,,,,,,,,,2,11,61,,,
155905,control_change,4,0,5,,,,,,,,,4,11,67,,,
155905,control_change,4,0,14,,,,,,,,,13,11,63,,,
155906,control_change,4,0,6,,,,,,,,,5,11,67,,,
155907,control_change,5,0,4,,,,,,,,,3,11,64,,,
155907,control_change,5,0,11,,,,,,,,,10,11,72,,,
155907,control_change,4,0,15,,,,,,,,,14,11,63,,,
155910,control_change,5,0,14,,,,,,,,,13,11,66,,,
155910,control_change,5,0,5,,,,,,,,,4,11,70,,,
155911,control_change,5,0,6,,,,,,,,,5,11,70,,,
155911,control_change,9,0,2,,,,,,,,,1,11,65,,,
155911,control_change,4,0,4,,,,,,,,,3,11,67,,,
155912,control_change,5,0,15,,,,,,,,,14,11,66,,,
155912,control_change,9,0,3,,,,,,,,,2,11,65,,,
155914,control_change,4,0,14,,,,,,,,,13,11,69,,,
155916,control_change,5,0,4,,,,,,,,,3,11,70,,,
155916,control_change,4,0,15,,,,,,,,,14,11,69,,,
155919,control_change,5,0,14,,,,,,,,,13,11,72,,,
155921,control_change,5,0,15,,,,,,,,,14,11,72,,,
155926,control_change,19,0,11,,,,,,,,,10,11,72,,,
155929,control_change,19,0,5,,,,,,,,,4,11,70,,,
155930,control_change,19,0,2,,,,,,,,,1,11,65,,,
155930,control_change,19,0,6,,,,,,,,,5,11,70,,,
155931,control_change,19,0,3,,,,,,,,,2,11,65,,,
155935,control_change,19,0,4,,,,,,,,,3,11,70,,,
155938,control_change,19,0,14,,,,,,,,,13,11,72,,,
155940,control_change,19,0,15,,,,,,,,,14,11,72,,,
155943,control_change,17,0,11,,,,,,,,,10,11,70,,,
155946,control_change,17,0,5,,,,,,,,,4,11,68,,,
155947,control_change,17,0,2,,,,,,,,,1,11,64,,,
155947,control_change,17,0,6,,,,,,,,,5,11,68,,,
155948,control_change,17,0,3,,,,,,,,,2,11,64,,,
155952,control_change,17,0,4,,,,,,,,,3,11,68,,,
155955,control_change,17,0,14,,,,,,,,,13,11,70,,,
155957,control_change,17,0,15,,,,,,,,,14,11,70,,,
155960,control_change,17,0,11,,,,,,,,,10,11,68,,,
155963,control_change,17,0,5,,,,,,,,,4,11,66,,,
155964,control_change,17,0,2,,,,,,,,,1,11,62,,,
155964,control_change,17,0,6,,,,,,,,,5,11,66,,,
155965,control_change,17,0,3,,,,,,,,,2,11,62,,,
155969,control_change,17,0,4,,,,,,,,,3,11,66,,,
155972,control_change,17,0,14,,,,,,,,,13,11,68,,,
155974,control_change,17,0,15,,,,,,,,,14,11,68,,,
155977,control_change,17,0,11,,,,,,,,,10,11,66,,,
155980,control_change,17,0,5,,,,,,,,,4,11,64,,,
155981,control_change,17,0,2,,,,,,,,,1,11,61,,,
155981,control_change,17,0,6,,,,,,,,,5,11,64,,,
155982,control_change,17,0,3,,,,,,,,,2,11,61,,,
155986,control_change,17,0,4,,,,,,,,,3,11,64,,,
155989,control_change,17,0,14,,,,,,,,,13,11,66,,,
155991,control_change,17,0,15,,,,,,,,,14,11,66,,,
155994,control_change,17,0,11,,,,,,,,,10,11,64,,,
155997,control_change,17,0,5,,,,,,,,,4,11,62,,,
155998,control_change,17,0,2,,,,,,,,,1,11,59,,,
155998,control_change,17,0,6,,,,,,,,,5,11,62,,,
155999,control_change,17,0,3,,,,,,,,,2,11,59,,,
156000,set_tempo,120,1,0,,,,,,272727,,,,,,,,
156003,control_change,17,0,4,,,,,,,,,3,11,62,,,
156006,control_change,17,0,14,,,,,,,,,13,11,64,,,
156008,control_change,17,0,15,,,,,,,,,14,11,64,,,
156010,control_change,16,0,11,,,,,,,,,10,11,62,,,
156012,note_on,6,0,14,,,,,,,,,13,,,,55,0
156013,control_change,16,0,5,,,,,,,,,4,11,60,,,
156014,control_change,16,0,2,,,,,,,,,1,11,58,,,
156014,note_on,6,0,15,,,,,,,,,14,,,,43,0
156014,control_change,16,0,6,,,,,,,,,5,11,60,,,
156015,control_change,16,0,3,,,,,,,,,2,11,58,,,
156019,control_change,16,0,4,,,,,,,,,3,11,60,,,
156022,control_change,10,0,14,,,,,,,,,13,11,62,,,
156024,control_change,10,0,15,,,,,,,,,14,11,62,,,
156027,control_change,17,0,11,,,,,,,,,10,11,60,,,
156030,control_change,17,0,5,,,,,,,,,4,11,58,,,
156031,control_change,17,0,2,,,,,,,,,1,11,56,,,
156031,control_change,17,0,6,,,,,,,,,5,11,58,,,
156032,control_change,17,0,3,,,,,,,,,2,11,56,,,
156036,control_change,17,0,4,,,,,,,,,3,11,58,,,
156039,control_change,17,0,14,,,,,,,,,13,11,60,,,
156041,control_change,17,0,15,,,,,,,,,14,11,60,,,
156044,control_change,17,0,11,,,,,,,,,10,11,58,,,
156047,control_change,17,0,5,,,,,,,,,4,11,56,,,
156048,control_change,17,0,6,,,,,,,,,5,11,56,,,
156048,control_change,17,0,2,,,,,,,,,1,11,55,,,
156049,control_change,17,0,3,,,,,,,,,2,11,55,,,
156053,control_change,17,0,4,,,,,,,,,3,11,56,,,
156056,control_change,17,0,14,,,,,,,,,13,11,58,,,
156058,control_change,17,0,15,,,,,,,,,14,11,58,,,
156061,control_change,17,0,11,,,,,,,,,10,11,57,,,
156064,control_change,17,0,5,,,,,,,,,4,11,54,,,
156065,control_change,17,0,6,,,,,,,,,5,11,54,,,
156065,control_change,17,0,2,,,,,,,,,1,11,53,,,
156066,control_change,17,0,3,,,,,,,,,2,11,53,,,
156070,control_change,17,0,4,,,,,,,,,3,11,54,,,
156073,control_change,17,0,14,,,,,,,,,13,11,57,,,
156075,control_change,17,0,15,,,,,,,,,14,11,57,,,
156078,control_change,17,0,11,,,,,,,,,10,11,55,,,
156081,control_change,17,0,5,,,,,,,,,4,11,52,,,
156082,control_change,17,0,6,,,,,,,,,5,11,52,,,
156082,control_change,17,0,2,,,,,,,,,1,11,52,,,
156083,control_change,17,0,3,,,,,,,,,2,11,52,,,
156087,control_change,17,0,4,,,,,,,,,3,11,52,,,
156090,control_change,17,0,14,,,,,,,,,13,11,55,,,
156092,control_change,17,0,15,,,,,,,,,14,11,55,,,
156094,control_change,16,0,11,,,,,,,,,10,11,53,,,
156097,control_change,16,0,5,,,,,,,,,4,11,50,,,
156098,control_change,16,0,2,,,,,,,,,1,11,50,,,
156098,control_change,16,0,6,,,,,,,,,5,11,50,,,
156099,control_change,16,0,3,,,,,,,,,2,11,50,,,
156103,control_change,16,0,4,,,,,,,,,3,11,50,,,
156106,control_change,16,0,14,,,,,,,,,13,11,53,,,
156108,control_change,16,0,15,,,,,,,,,14,11,53,,,
156111,control_change,17,0,11,,,,,,,,,10,11,51,,,
156114,control_change,17,0,5,,,,,,,,,4,11,48,,,
156115,control_change,17,0,6,,,,,,,,,5,11,48,,,
156115,control_change,17,0,2,,,,,,,,,1,11,48,,,
156116,control_change,17,0,3,,,,,,,,,2,11,48,,,
156120,control_change,17,0,4,,,,,,,,,3,11,48,,,
156120,set_tempo,120,1,0,,,,,,300000,,,,,,,,
156120,note_on,9,0,11,,,,,,,,,10,,,,71,0
156120,note_on,0,0,11,,,,,,,,,10,,,,74,112
156123,control_change,17,0,14,,,,,,,,,13,11,51,,,
156125,control_change,17,0,15,,,,,,,,,14,11,51,,,
156235,note_on,115,0,11,,,,,,,,,10,,,,74,0
156240,set_tempo,120,1,0,,,,,,264901,,,,,,,,
156240,note_on,5,0,11,,,,,,,,,10,,,,79,112
156360,set_tempo,120,1,0,,,,,,272727,,,,,,,,
156480,note_on,240,0,11,,,,,,,,,10,,,,79,0
156480,note_on,0,0,11,,,,,,,,,10,,,,83,112
156480,set_tempo,120,1,0,,,,,,300000,,,,,,,,
156595,note_on,115,0,11,,,,,,,,,10,,,,83,0
156600,set_tempo,120,1,0,,,,,,263158,,,,,,,,
156600,note_on,5,0,11,,,,,,,,,10,,,,86,127
156603,note_on,0,0,5,,,,,,,,,4,,,,67,115
156603,note_on,489,0,5,,,,,,,,,4,,,,67,0
156604,note_on,0,0,6,,,,,,,,,5,,,,55,115
156604,note_on,489,0,6,,,,,,,,,5,,,,55,0
156604,note_on,0,0,2,,,,,,,,,1,,,,79,0
156604,note_on,0,0,2,,,,,,,,,1,,,,79,115
156604,note_on,0,0,2,,,,,,,,,1,,,,77,100
156604,control_change,0,0,2,,,,,,,,,1,11,55,,,
156604,note_on,489,0,2,,,,,,,,,1,,,,77,0
156605,note_on,0,0,3,,,,,,,,,2,,,,67,101
156605,note_on,489,0,3,,,,,,,,,2,,,,67,0
156609,note_on,0,0,4,,,,,,,,,3,,,,62,100
156609,note_on,489,0,4,,,,,,,,,3,,,,65,0
156612,note_on,489,0,14,,,,,,,,,13,,,,47,127
156614,note_on,489,0,15,,,,,,,,,14,,,,35,112
156634,note_on,30,0,2,,,,,,,,,1,,,,79,0
156664,note_on,30,0,2,,,,,,,,,1,,,,79,100
156674,note_on,60,0,15,,,,,,,,,14,,,,35,0
156694,note_on,30,0,2,,,,,,,,,1,,,,79,0
156720,set_tempo,120,1,0,,,,,,272727,,,,,,,,
156723,control_change,1440,0,12,,,,,,,,,11,11,50,,,
156723,note_on,0,0,12,,,,,,,,,11,,,,65,127
156724,note_on,30,0,2,,,,,,,,,1,,,,81,100
156727,program_change,1439,0,13,,,,,,,,48,12,,,,,
156728,note_on,1,0,13,,,,,,,,,12,,,,59,127
156728,control_change,0,0,13,,,,,,,,,12,11,50,,,
156784,note_on,60,0,2,,,,,,,,,1,,,,81,0
156784,note_on,0,0,2,,,,,,,,,1,,,,79,100
156840,set_tempo,120,1,0,,,,,,300000,,,,,,,,
156840,note_on,0,0,11,,,,,,,,,10,,,,83,112
156840,note_on,240,0,11,,,,,,,,,10,,,,86,0
156843,note_on,0,0,12,,,,,,,,,11,,,,55,112
156843,note_on,120,0,12,,,,,,,,,11,,,,65,0
156844,note_on,60,0,2,,,,,,,,,1,,,,79,0
156844,note_on,0,0,2,,,,,,,,,1,,,,81,100
156848,note_on,120,0,13,,,,,,,,,12,,,,59,0
156848,note_on,0,0,13,,,,,,,,,12,,,,55,112
156852,note_on,0,0,14,,,,,,,,,13,,,,50,112
156852,note_on,240,0,14,,,,,,,,,13,,,,47,0
156902,note_on,299,0,5,,,,,,,,,4,,,,67,0
156903,note_on,299,0,6,,,,,,,,,5,,,,55,0
156903,note_on,60,0,12,,,,,,,,,11,,,,55,0
156904,note_on,60,0,2,,,,,,,,,1,,,,81,0
156904,note_on,0,0,2,,,,,,,,,1,,,,79,100
156908,note_on,60,0,13,,,,,,,,,12,,,,55,0
156955,note_on,115,0,11,,,,,,,,,10,,,,83,0
156960,note_on,5,0,11,,,,,,,,,10,,,,86,112
156960,set_tempo,120,1,0,,,,,,264901,,,,,,,,
156963,note_on,61,0,5,,,,,,,,,4,,,,67,115
156964,note_on,0,0,2,,,,,,,,,1,,,,77,0
156964,note_on,60,0,2,,,,,,,,,1,,,,79,0
156964,note_on,0,0,2,,,,,,,,,1,,,,76,100
156964,control_change,0,0,2,,,,,,,,,1,11,47,,,
156964,note_on,61,0,6,,,,,,,,,5,,,,55,115
156964,note_on,0,0,2,,,,,,,,,1,,,,79,100
156965,note_on,0,0,3,,,,,,,,,2,,,,67,101
156965,note_on,360,0,3,,,,,,,,,2,,,,67,0
156969,note_on,0,0,4,,,,,,,,,3,,,,64,100
156969,note_on,360,0,4,,,,,,,,,3,,,,62,0
156972,note_on,120,0,14,,,,,,,,,13,,,,50,0
156972,note_on,0,0,14,,,,,,,,,13,,,,52,112
156974,note_on,300,0,15,,,,,,,,,14,,,,36,112
157020,note_on,60,0,11,,,,,,,,,10,,,,86,0
157020,note_on,0,0,11,,,,,,,,,10,,,,84,112
157024,note_on,60,0,2,,,,,,,,,1,,,,79,0
157024,note_on,0,0,2,,,,,,,,,1,,,,76,0
157034,note_on,60,0,15,,,,,,,,,14,,,,36,0
157080,note_on,60,0,11,,,,,,,,,10,,,,84,0
157080,note_on,0,0,11,,,,,,,,,10,,,,83,112
157080,set_tempo,120,1,0,,,,,,272727,,,,,,,,
157083,note_on,180,0,12,,,,,,,,,11,,,,64,127
157084,note_on,0,0,2,,,,,,,,,1,,,,79,100
157084,note_on,60,0,2,,,,,,,,,1,,,,76,100
157088,note_on,180,0,13,,,,,,,,,12,,,,60,127
157092,note_on,0,0,14,,,,,,,,,13,,,,55,112
157092,note_on,120,0,14,,,,,,,,,13,,,,52,0
157140,note_on,60,0,11,,,,,,,,,10,,,,83,0
157140,note_on,0,0,11,,,,,,,,,10,,,,81,112
157144,note_on,60,0,2,,,,,,,,,1,,,,79,0
157144,note_on,0,0,2,,,,,,,,,1,,,,76,0
157200,set_tempo,120,1,0,,,,,,300000,,,,,,,,
157200,note_on,60,0,11,,,,,,,,,10,,,,81,0
157200,note_on,0,0,11,,,,,,,,,10,,,,79,112
157203,note_on,120,0,12,,,,,,,,,11,,,,64,0
157203,note_on,0,0,12,,,,,,,,,11,,,,55,112
157204,note_on,60,0,2,,,,,,,,,1,,,,79,100
157204,note_on,0,0,2,,,,,,,,,1,,,,76,100
157208,note_on,0,0,13,,,,,,,,,12,,,,55,112
157208,note_on,120,0,13,,,,,,,,,12,,,,60,0
157212,note_on,120,0,14,,,,,,,,,13,,,,55,0
157212,note_on,0,0,14,,,,,,,,,13,,,,64,112
157260,note_on,60,0,11,,,,,,,,,10,,,,79,0
157262,note_on,299,0,5,,,,,,,,,4,,,,67,0
157263,note_on,60,0,12,,,,,,,,,11,,,,55,0
157263,note_on,299,0,6,,,,,,,,,5,,,,55,0
157264,note_on,0,0,2,,,,,,,,,1,,,,79,0
157264,note_on,60,0,2,,,,,,,,,1,,,,76,0
157268,note_on,60,0,13,,,,,,,,,12,,,,55,0
157320,note_on,60,0,11,,,,,,,,,10,,,,79,112
157320,set_tempo,120,1,0,,,,,,263158,,,,,,,,
157323,note_on,61,0,5,,,,,,,,,4,,,,67,115
157324,note_on,0,0,2,,,,,,,,,1,,,,74,115
157324,note_on,60,0,2,,,,,,,,,1,,,,79,115
157324,note_on,61,0,6,,,,,,,,,5,,,,55,115
157325,note_on,360,0,3,,,,,,,,,2,,,,67,0
157325,note_on,0,0,3,,,,,,,,,2,,,,67,101
157325,control_change,0,0,3,,,,,,,,,2,11,55,,,
157327,note_on,115,0,14,,,,,,,,,13,,,,64,0
157329,note_on,360,0,4,,,,,,,,,3,,,,64,0
157329,note_on,0,0,4,,,,,,,,,3,,,,65,100
157332,note_on,5,0,14,,,,,,,,,13,,,,62,127
157334,note_on,300,0,15,,,,,,,,,14,,,,31,112
157350,note_on,0,0,11,,,,,,,,,10,,,,77,127
157350,note_on,30,0,11,,,,,,,,,10,,,,79,0
157355,note_on,30,0,3,,,,,,,,,2,,,,67,0
157385,note_on,30,0,3,,,,,,,,,2,,,,67,101
157390,note_on,40,0,11,,,,,,,,,10,,,,77,0
157394,note_on,60,0,15,,,,,,,,,14,,,,31,0
157415,note_on,30,0,3,,,,,,,,,2,,,,67,0
157440,set_tempo,120,1,0,,,,,,272727,,,,,,,,
157440,note_on,50,0,11,,,,,,,,,10,,,,77,112
157443,note_on,180,0,12,,,,,,,,,11,,,,71,127
157445,note_on,30,0,3,,,,,,,,,2,,,,69,101
157448,note_on,180,0,13,,,,,,,,,12,,,,65,127
157500,note_on,60,0,11,,,,,,,,,10,,,,77,0
157505,note_on,0,0,3,,,,,,,,,2,,,,67,101
157505,note_on,60,0,3,,,,,,,,,2,,,,69,0
157560,set_tempo,120,1,0,,,,,,300000,,,,,,,,
157560,note_on,60,0,11,,,,,,,,,10,,,,77,112
157563,note_on,120,0,12,,,,,,,,,11,,,,71,0
157563,note_on,0,0,12,,,,,,,,,11,,,,67,112
157565,note_on,60,0,3,,,,,,,,,2,,,,67,0
157565,note_on,0,0,3,,,,,,,,,2,,,,69,101
157568,note_on,0,0,13,,,,,,,,,12,,,,67,112
157568,note_on,120,0,13,,,,,,,,,12,,,,65,0
157572,note_on,0,0,14,,,,,,,,,13,,,,59,112
157572,note_on,240,0,14,,,,,,,,,13,,,,62,0
157620,note_on,0,0,11,,,,,,,,,10,,,,79,112
157620,note_on,60,0,11,,,,,,,,,10,,,,77,0
157622,note_on,299,0,5,,,,,,,,,4,,,,67,0
157623,note_on,60,0,12,,,,,,,,,11,,,,67,0
157623,note_on,299,0,6,,,,,,,,,5,,,,55,0
157625,note_on,0,0,3,,,,,,,,,2,,,,67,101
157625,note_on,60,0,3,,,,,,,,,2,,,,69,0
157628,note_on,60,0,13,,,,,,,,,12,,,,67,0
157680,set_tempo,120,1,0,,,,,,263158,,,,,,,,
157680,note_on,60,0,11,,,,,,,,,10,,,,79,0
157680,note_on,0,0,11,,,,,,,,,10,,,,76,112
157683,note_on,61,0,5,,,,,,,,,4,,,,67,115
157684,note_on,0,0,2,,,,,,,,,1,,,,79,0
157684,note_on,360,0,2,,,,,,,,,1,,,,74,0
157684,note_on,0,0,2,,,,,,,,,1,,,,76,100
157684,note_on,61,0,6,,,,,,,,,5,,,,55,115
157684,note_on,0,0,2,,,,,,,,,1,,,,79,100
157685,control_change,0,0,3,,,,,,,,,2,11,47,,,
157685,note_on,0,0,3,,,,,,,,,2,,,,67,101
157685,note_on,60,0,3,,,,,,,,,2,,,,67,0
157687,note_on,115,0,14,,,,,,,,,13,,,,59,0
157689,note_on,0,0,4,,,,,,,,,3,,,,64,100
157689,note_on,360,0,4,,,,,,,,,3,,,,65,0
157692,note_on,5,0,14,,,,,,,,,13,,,,62,112
157694,note_on,300,0,15,,,,,,,,,14,,,,36,112
157745,note_on,60,0,3,,,,,,,,,2,,,,67,0
157749,note_on,60,0,4,,,,,,,,,3,,,,64,0
157752,note_on,0,0,14,,,,,,,,,13,,,,60,112
157752,note_on,60,0,14,,,,,,,,,13,,,,62,0
157754,note_on,60,0,15,,,,,,,,,14,,,,36,0
157800,set_tempo,120,1,0,,,,,,272727,,,,,,,,
157800,note_on,120,0,11,,,,,,,,,10,,,,76,0
157800,note_on,0,0,11,,,,,,,,,10,,,,79,112
157803,note_on,180,0,12,,,,,,,,,11,,,,72,127
157805,note_on,60,0,3,,,,,,,,,2,,,,67,101
157808,note_on,180,0,13,,,,,,,,,12,,,,64,127
157809,note_on,60,0,4,,,,,,,,,3,,,,64,100
157812,note_on,0,0,14,,,,,,,,,13,,,,59,112
157812,note_on,60,0,14,,,,,,,,,13,,,,60,0
157865,note_on,60,0,3,,,,,,,,,2,,,,67,0
157869,note_on,60,0,4,,,,,,,,,3,,,,64,0
157872,note_on,0,0,14,,,,,,,,,13,,,,57,112
157872,note_on,60,0,14,,,,,,,,,13,,,,59,0
157920,note_on,120,0,11,,,,,,,,,10,,,,79,0
157920,note_on,0,0,11,,,,,,,,,10,,,,88,112
157920,set_tempo,120,1,0,,,,,,300000,,,,,,,,
157923,note_on,120,0,12,,,,,,,,,11,,,,72,0
157923,note_on,0,0,12,,,,,,,,,11,,,,67,112
157925,note_on,60,0,3,,,,,,,,,2,,,,67,101
157928,note_on,0,0,13,,,,,,,,,12,,,,67,112
157928,note_on,120,0,13,,,,,,,,,12,,,,64,0
157929,note_on,60,0,4,,,,,,,,,3,,,,64,100
157932,note_on,0,0,14,,,,,,,,,13,,,,55,112
157932,note_on,60,0,14,,,,,,,,,13,,,,57,0
157982,note_on,299,0,5,,,,,,,,,4,,,,67,0
157983,note_on,60,0,12,,,,,,,,,11,,,,67,0
157983,note_on,299,0,6,,,,,,,,,5,,,,55,0
157985,note_on,60,0,3,,,,,,,,,2,,,,67,0
157988,note_on,60,0,13,,,,,,,,,12,,,,67,0
157989,note_on,60,0,4,,,,,,,,,3,,,,64,0
157992,note_on,60,0,14,,,,,,,,,13,,,,55,0
158035,note_on,115,0,11,,,,,,,,,10,,,,88,0
158040,set_tempo,120,1,0,,,,,,263158,,,,,,,,
158040,note_on,5,0,11,,,,,,,,,10,,,,86,127
158043,note_on,61,0,5,,,,,,,,,4,,,,67,115
158044,note_on,61,0,6,,,,,,,,,5,,,,55,115
158044,note_on,360,0,2,,,,,,,,,1,,,,76,0
158044,control_change,0,0,2,,,,,,,,,1,11,55,,,
158044,note_on,0,0,2,,,,,,,,,1,,,,77,100
158044,note_on,0,0,2,,,,,,,,,1,,,,79,115
158044,note_on,0,0,2,,,,,,,,,1,,,,79,0
158045,note_on,60,0,3,,,,,,,,,2,,,,67,101
158049,note_on,60,0,4,,,,,,,,,3,,,,62,100
158052,note_on,60,0,14,,,,,,,,,13,,,,55,112
158054,note_on,300,0,15,,,,,,,,,14,,,,31,112
158074,note_on,30,0,2,,,,,,,,,1,,,,79,0
158082,note_on,30,0,14,,,,,,,,,13,,,,55,0
158082,note_on,0,0,14,,,,,,,,,13,,,,53,127
158104,note_on,30,0,2,,,,,,,,,1,,,,79,100
158114,note_on,60,0,15,,,,,,,,,14,,,,31,0
158122,note_on,40,0,14,,,,,,,,,13,,,,53,0
158134,note_on,30,0,2,,,,,,,,,1,,,,79,0
158160,set_tempo,120,1,0,,,,,,272727,,,,,,,,
158163,note_on,180,0,12,,,,,,,,,11,,,,65,127
158164,note_on,30,0,2,,,,,,,,,1,,,,81,100
158168,note_on,180,0,13,,,,,,,,,12,,,,59,127
158172,note_on,50,0,14,,,,,,,,,13,,,,53,112
158224,note_on,0,0,2,,,,,,,,,1,,,,79,100
158224,note_on,60,0,2,,,,,,,,,1,,,,81,0
158232,note_on,60,0,14,,,,,,,,,13,,,,53,0
158280,set_tempo,120,1,0,,,,,,300000,,,,,,,,
158280,note_on,0,0,11,,,,,,,,,10,,,,83,112
158280,note_on,240,0,11,,,,,,,,,10,,,,86,0
158283,note_on,120,0,12,,,,,,,,,11,,,,65,0
158283,note_on,0,0,12,,,,,,,,,11,,,,55,112
158284,note_on,60,0,2,,,,,,,,,1,,,,79,0
158284,note_on,0,0,2,,,,,,,,,1,,,,81,100
158288,note_on,0,0,13,,,,,,,,,12,,,,55,112
158288,note_on,120,0,13,,,,,,,,,12,,,,59,0
158292,note_on,60,0,14,,,,,,,,,13,,,,53,112
158342,note_on,299,0,5,,,,,,,,,4,,,,67,0
158343,note_on,299,0,6,,,,,,,,,5,,,,55,0
158343,note_on,60,0,12,,,,,,,,,11,,,,55,0
158344,note_on,0,0,2,,,,,,,,,1,,,,79,100
158344,note_on,60,0,2,,,,,,,,,1,,,,81,0
158348,note_on,60,0,13,,,,,,,,,12,,,,55,0
158352,note_on,60,0,14,,,,,,,,,13,,,,53,0
158352,note_on,0,0,14,,,,,,,,,13,,,,55,112
158395,note_on,115,0,11,,,,,,,,,10,,,,83,0
158400,set_tempo,120,1,0,,,,,,263158,,,,,,,,
158400,note_on,5,0,11,,,,,,,,,10,,,,86,112
158403,note_on,61,0,5,,,,,,,,,4,,,,67,115
158404,note_on,60,0,2,,,,,,,,,1,,,,79,0
158404,note_on,0,0,2,,,,,,,,,1,,,,79,100
158404,note_on,0,0,2,,,,,,,,,1,,,,76,100
158404,control_change,0,0,2,,,,,,,,,1,11,47,,,
158404,note_on,61,0,6,,,,,,,,,5,,,,55,115
158404,note_on,0,0,2,,,,,,,,,1,,,,77,0
158405,note_on,0,0,3,,,,,,,,,2,,,,67,101
158405,note_on,360,0,3,,,,,,,,,2,,,,67,0
158409,note_on,360,0,4,,,,,,,,,3,,,,62,0
158409,note_on,0,0,4,,,,,,,,,3,,,,64,100
158412,note_on,0,0,14,,,,,,,,,13,,,,52,112
158412,note_on,60,0,14,,,,,,,,,13,,,,55,0
158414,note_on,300,0,15,,,,,,,,,14,,,,36,112
158460,note_on,0,0,11,,,,,,,,,10,,,,84,112
158460,note_on,60,0,11,,,,,,,,,10,,,,86,0
158464,note_on,0,0,2,,,,,,,,,1,,,,79,0
158464,note_on,60,0,2,,,,,,,,,1,,,,76,0
158474,note_on,60,0,15,,,,,,,,,14,,,,36,0
158520,note_on,0,0,11,,,,,,,,,10,,,,83,112
158520,note_on,60,0,11,,,,,,,,,10,,,,84,0
158520,set_tempo,120,1,0,,,,,,272727,,,,,,,,
158523,note_on,180,0,12,,,,,,,,,11,,,,64,127
158524,note_on,0,0,2,,,,,,,,,1,,,,76,100
158524,note_on,60,0,2,,,,,,,,,1,,,,79,100
158528,note_on,180,0,13,,,,,,,,,12,,,,60,127
158532,note_on,0,0,14,,,,,,,,,13,,,,55,112
158532,note_on,120,0,14,,,,,,,,,13,,,,52,0
158580,note_on,0,0,11,,,,,,,,,10,,,,81,112
158580,note_on,60,0,11,,,,,,,,,10,,,,83,0
158584,note_on,0,0,2,,,,,,,,,1,,,,79,0
158584,note_on,60,0,2,,,,,,,,,1,,,,76,0
158640,note_on,0,0,11,,,,,,,,,10,,,,79,112
158640,note_on,60,0,11,,,,,,,,,10,,,,81,0
158640,set_tempo,120,1,0,,,,,,300000,,,,,,,,
158643,note_on,0,0,12,,,,,,,,,11,,,,55,112
158643,note_on,120,0,12,,,,,,,,,11,,,,64,0
158644,note_on,60,0,2,,,,,,,,,1,,,,76,100
158644,note_on,0,0,2,,,,,,,,,1,,,,79,100
158648,note_on,0,0,13,,,,,,,,,12,,,,55,112
158648,note_on,120,0,13,,,,,,,,,12,,,,60,0
158652,note_on,0,0,14,,,,,,,,,13,,,,64,112
158652,note_on,120,0,14,,,,,,,,,13,,,,55,0
158700,note_on,60,0,11,,,,,,,,,10,,,,79,0
158702,note_on,299,0,5,,,,,,,,,4,,,,67,0
158703,note_on,60,0,12,,,,,,,,,11,,,,55,0
158703,note_on,299,0,6,,,,,,,,,5,,,,55,0
158704,note_on,60,0,2,,,,,,,,,1,,,,79,0
158704,note_on,0,0,2,,,,,,,,,1,,,,76,0
158708,note_on,60,0,13,,,,,,,,,12,,,,55,0
158760,set_tempo,120,1,0,,,,,,264901,,,,,,,,
158760,note_on,60,0,11,,,,,,,,,10,,,,79,112
158763,note_on,61,0,5,,,,,,,,,4,,,,67,115
158764,note_on,60,0,2,,,,,,,,,1,,,,74,100
158764,note_on,0,0,2,,,,,,,,,1,,,,79,100
158764,note_on,61,0,6,,,,,,,,,5,,,,55,115
158765,control_change,0,0,3,,,,,,,,,2,11,55,,,
158765,note_on,360,0,3,,,,,,,,,2,,,,67,0
158765,note_on,0,0,3,,,,,,,,,2,,,,67,116
158767,note_on,115,0,14,,,,,,,,,13,,,,64,0
158769,note_on,360,0,4,,,,,,,,,3,,,,64,0
158769,note_on,0,0,4,,,,,,,,,3,,,,65,100
158772,note_on,5,0,14,,,,,,,,,13,,,,62,127
158774,note_on,300,0,15,,,,,,,,,14,,,,31,112
158790,note_on,0,0,11,,,,,,,,,10,,,,77,127
158790,note_on,30,0,11,,,,,,,,,10,,,,79,0
158795,note_on,30,0,3,,,,,,,,,2,,,,67,0
158825,note_on,30,0,3,,,,,,,,,2,,,,67,101
158830,note_on,40,0,11,,,,,,,,,10,,,,77,0
158834,note_on,60,0,15,,,,,,,,,14,,,,31,0
158855,note_on,30,0,3,,,,,,,,,2,,,,67,0
158880,set_tempo,120,1,0,,,,,,272727,,,,,,,,
158880,note_on,50,0,11,,,,,,,,,10,,,,77,112
158883,note_on,180,0,12,,,,,,,,,11,,,,71,127
158885,note_on,30,0,3,,,,,,,,,2,,,,69,101
158888,note_on,180,0,13,,,,,,,,,12,,,,65,127
158940,note_on,60,0,11,,,,,,,,,10,,,,77,0
158945,note_on,0,0,3,,,,,,,,,2,,,,67,101
158945,note_on,60,0,3,,,,,,,,,2,,,,69,0
159000,note_on,60,0,11,,,,,,,,,10,,,,77,112
159000,set_tempo,120,1,0,,,,,,300000,,,,,,,,
159003,note_on,120,0,12,,,,,,,,,11,,,,71,0
159003,note_on,0,0,12,,,,,,,,,11,,,,67,112
159005,note_on,60,0,3,,,,,,,,,2,,,,67,0
159005,note_on,0,0,3,,,,,,,,,2,,,,69,101
159008,note_on,120,0,13,,,,,,,,,12,,,,65,0
159008,note_on,0,0,13,,,,,,,,,12,,,,67,112
159012,note_on,0,0,14,,,,,,,,,13,,,,59,112
159012,note_on,240,0,14,,,,,,,,,13,,,,62,0
159060,note_on,60,0,11,,,,,,,,,10,,,,77,0
159060,note_on,0,0,11,,,,,,,,,10,,,,79,112
159062,note_on,299,0,5,,,,,,,,,4,,,,67,0
159063,note_on,60,0,12,,,,,,,,,11,,,,67,0
159063,note_on,299,0,6,,,,,,,,,5,,,,55,0
159065,note_on,0,0,3,,,,,,,,,2,,,,67,101
159065,note_on,60,0,3,,,,,,,,,2,,,,69,0
159068,note_on,60,0,13,,,,,,,,,12,,,,67,0
159120,note_on,60,0,11,,,,,,,,,10,,,,79,0
159120,note_on,0,0,11,,,,,,,,,10,,,,76,112
159120,set_tempo,120,1,0,,,,,,264901,,,,,,,,
159123,note_on,61,0,5,,,,,,,,,4,,,,67,115
159124,note_on,0,0,2,,,,,,,,,1,,,,79,100
159124,note_on,61,0,6,,,,,,,,,5,,,,55,115
159124,note_on,360,0,2,,,,,,,,,1,,,,79,0
159124,note_on,0,0,2,,,,,,,,,1,,,,74,0
159124,note_on,0,0,2,,,,,,,,,1,,,,76,100
159125,note_on,0,0,3,,,,,,,,,2,,,,67,101
159125,note_on,60,0,3,,,,,,,,,2,,,,67,0
159125,control_change,0,0,3,,,,,,,,,2,11,47,,,
159129,note_on,0,0,4,,,,,,,,,3,,,,64,100
159129,note_on,360,0,4,,,,,,,,,3,,,,65,0
159132,note_on,0,0,14,,,,,,,,,13,,,,62,112
159132,note_on,120,0,14,,,,,,,,,13,,,,59,0
159134,note_on,300,0,15,,,,,,,,,14,,,,36,112
159185,note_on,60,0,3,,,,,,,,,2,,,,67,0
159189,note_on,60,0,4,,,,,,,,,3,,,,64,0
159192,note_on,0,0,14,,,,,,,,,13,,,,60,112
159192,note_on,60,0,14,,,,,,,,,13,,,,62,0
159194,note_on,60,0,15,,,,,,,,,14,,,,36,0
159240,note_on,120,0,11,,,,,,,,,10,,,,76,0
159240,set_tempo,120,1,0,,,,,,272727,,,,,,,,
159240,note_on,0,0,11,,,,,,,,,10,,,,79,112
159243,note_on,180,0,12,,,,,,,,,11,,,,72,127
159245,note_on,60,0,3,,,,,,,,,2,,,,67,101
159248,note_on,180,0,13,,,,,,,,,12,,,,64,127
159249,note_on,60,0,4,,,,,,,,,3,,,,64,100
159252,note_on,0,0,14,,,,,,,,,13,,,,59,112
159252,note_on,60,0,14,,,,,,,,,13,,,,60,0
159305,note_on,60,0,3,,,,,,,,,2,,,,67,0
159309,note_on,60,0,4,,,,,,,,,3,,,,64,0
159312,note_on,60,0,14,,,,,,,,,13,,,,59,0
159312,note_on,0,0,14,,,,,,,,,13,,,,57,112
159360,note_on,0,0,11,,,,,,,,,10,,,,76,112
159360,set_tempo,120,1,0,,,,,,333333,,,,,,,,
159360,note_on,120,0,11,,,,,,,,,10,,,,79,0
159363,note_on,120,0,12,,,,,,,,,11,,,,72,0
159363,note_on,0,0,12,,,,,,,,,11,,,,67,112
159365,note_on,60,0,3,,,,,,,,,2,,,,67,101
159368,note_on,120,0,13,,,,,,,,,12,,,,64,0
159368,note_on,0,0,13,,,,,,,,,12,,,,67,112
159369,note_on,60,0,4,,,,,,,,,3,,,,64,100
159372,note_on,60,0,14,,,,,,,,,13,,,,57,0
159372,note_on,0,0,14,,,,,,,,,13,,,,55,112
159422,note_on,299,0,5,,,,,,,,,4,,,,67,0
159423,note_on,60,0,12,,,,,,,,,11,,,,67,0
159423,note_on,299,0,6,,,,,,,,,5,,,,55,0
159425,note_on,60,0,3,,,,,,,,,2,,,,67,0
159428,note_on,60,0,13,,,,,,,,,12,,,,67,0
159429,note_on,60,0,4,,,,,,,,,3,,,,64,0
159475,note_on,115,0,11,,,,,,,,,10,,,,76,0
159480,control_change,0,0,11,,,,,,,,,10,11,36,,,
159480,set_tempo,120,1,0,,,,,,264901,,,,,,,,
159480,note_on,5,0,11,,,,,,,,,10,,,,74,112
159483,note_on,60,0,12,,,,,,,,,11,,,,74,112
159483,control_change,0,0,12,,,,,,,,,11,11,36,,,
159484,note_on,0,0,2,,,,,,,,,1,,,,76,0
159484,note_on,360,0,2,,,,,,,,,1,,,,79,0
159485,note_on,60,0,3,,,,,,,,,2,,,,77,101
159485,note_on,0,0,3,,,,,,,,,2,,,,79,116
159485,control_change,0,0,3,,,,,,,,,2,11,55,,,
159487,program_change,59,0,13,,,,,,,,50,12,,,,,
159488,control_change,0,0,13,,,,,,,,,12,11,36,,,
159488,note_on,1,0,13,,,,,,,,,12,,,,74,112
159489,control_change,0,0,4,,,,,,,,,3,11,57,,,
159489,note_on,60,0,4,,,,,,,,,3,,,,65,100
159489,note_on,0,0,4,,,,,,,,,3,,,,67,115
159492,control_change,0,0,14,,,,,,,,,13,11,36,,,
159492,note_on,120,0,14,,,,,,,,,13,,,,55,0
159492,note_on,0,0,14,,,,,,,,,13,,,,62,112
159494,control_change,300,0,15,,,,,,,,,14,11,36,,,
159494,note_on,0,0,15,,,,,,,,,14,,,,50,112
159515,note_on,30,0,3,,,,,,,,,2,,,,79,0
159519,note_on,30,0,4,,,,,,,,,3,,,,67,0
159545,note_on,30,0,3,,,,,,,,,2,,,,79,101
159549,note_on,30,0,4,,,,,,,,,3,,,,67,100
159575,note_on,30,0,3,,,,,,,,,2,,,,79,0
159579,note_on,30,0,4,,,,,,,,,3,,,,67,0
159605,note_on,30,0,3,,,,,,,,,2,,,,81,101
159609,note_on,30,0,4,,,,,,,,,3,,,,69,100
159665,note_on,0,0,3,,,,,,,,,2,,,,79,101
159665,note_on,60,0,3,,,,,,,,,2,,,,81,0
159669,note_on,60,0,4,,,,,,,,,3,,,,69,0
159669,note_on,0,0,4,,,,,,,,,3,,,,67,100
159720,note_on,0,0,11,,,,,,,,,10,,,,71,112
159720,set_tempo,240,1,0,,,,,,292683,,,,,,,,
159720,note_on,240,0,11,,,,,,,,,10,,,,74,0
159723,note_on,0,0,12,,,,,,,,,11,,,,71,112
159723,note_on,240,0,12,,,,,,,,,11,,,,74,0
159725,note_on,60,0,3,,,,,,,,,2,,,,79,0
159725,note_on,0,0,3,,,,,,,,,2,,,,81,101
159728,note_on,240,0,13,,,,,,,,,12,,,,74,0
159728,note_on,0,0,13,,,,,,,,,12,,,,71,112
159729,note_on,60,0,4,,,,,,,,,3,,,,67,0
159729,note_on,0,0,4,,,,,,,,,3,,,,69,100
159732,note_on,240,0,14,,,,,,,,,13,,,,62,0
159732,note_on,0,0,14,,,,,,,,,13,,,,59,112
159734,note_on,0,0,15,,,,,,,,,14,,,,47,112
159734,note_on,240,0,15,,,,,,,,,14,,,,50,0
159785,note_on,60,0,3,,,,,,,,,2,,,,81,0
159785,note_on,0,0,3,,,,,,,,,2,,,,79,101
159789,note_on,60,0,4,,,,,,,,,3,,,,69,0
159789,note_on,0,0,4,,,,,,,,,3,,,,67,100
159840,note_on,120,0,11,,,,,,,,,10,,,,71,0
159840,note_on,0,0,11,,,,,,,,,10,,,,67,112
159840,set_tempo,120,1,0,,,,,,263736,,,,,,,,
159843,note_on,0,0,12,,,,,,,,,11,,,,67,112
159843,note_on,120,0,12,,,,,,,,,11,,,,71,0
159845,note_on,0,0,3,,,,,,,,,2,,,,77,0
159845,note_on,0,0,3,,,,,,,,,2,,,,77,101
159845,note_on,0,0,3,,,,,,,,,2,,,,79,101
159845,control_change,0,0,3,,,,,,,,,2,11,47,,,
159845,note_on,60,0,3,,,,,,,,,2,,,,79,0
159848,note_on,0,0,13,,,,,,,,,12,,,,67,112
159848,note_on,120,0,13,,,,,,,,,12,,,,71,0
159849,note_on,0,0,4,,,,,,,,,3,,,,67,100
159849,note_on,0,0,4,,,,,,,,,3,,,,65,0
159849,note_on,60,0,4,,,,,,,,,3,,,,67,0
159849,note_on,0,0,4,,,,,,,,,3,,,,65,100
159849,control_change,0,0,4,,,,,,,,,3,11,47,,,
159852,note_on,120,0,14,,,,,,,,,13,,,,59,0
159852,note_on,0,0,14,,,,,,,,,13,,,,55,112
159854,note_on,0,0,15,,,,,,,,,14,,,,43,112
159854,note_on,120,0,15,,,,,,,,,14,,,,47,0
159905,note_on,60,0,3,,,,,,,,,2,,,,79,0
159905,note_on,0,0,3,,,,,,,,,2,,,,77,0
159909,note_on,60,0,4,,,,,,,,,3,,,,67,0
159909,note_on,0,0,4,,,,,,,,,3,,,,65,0
159965,note_on,60,0,3,,,,,,,,,2,,,,79,101
159965,note_on,0,0,3,,,,,,,,,2,,,,77,101
159969,note_on,60,0,4,,,,,,,,,3,,,,67,100
159969,note_on,0,0,4,,,,,,,,,3,,,,65,100
160025,note_on,60,0,3,,,,,,,,,2,,,,77,0
160025,note_on,0,0,3,,,,,,,,,2,,,,79,0
160029,note_on,60,0,4,,,,,,,,,3,,,,65,0
160029,note_on,0,0,4,,,,,,,,,3,,,,67,0
160080,set_tempo,240,1,0,,,,,,292683,,,,,,,,
160080,note_on,240,0,11,,,,,,,,,10,,,,67,0
160080,note_on,0,0,11,,,,,,,,,10,,,,62,112
160083,note_on,0,0,12,,,,,,,,,11,,,,62,112
160083,note_on,240,0,12,,,,,,,,,11,,,,67,0
160085,note_on,0,0,3,,,,,,,,,2,,,,77,101
160085,note_on,60,0,3,,,,,,,,,2,,,,79,101
160088,note_on,0,0,13,,,,,,,,,12,,,,62,112
160088,note_on,240,0,13,,,,,,,,,12,,,,67,0
160089,note_on,60,0,4,,,,,,,,,3,,,,67,100
160089,note_on,0,0,4,,,,,,,,,3,,,,65,100
160092,note_on,240,0,14,,,,,,,,,13,,,,55,0
160092,note_on,0,0,14,,,,,,,,,13,,,,50,112
160094,note_on,240,0,15,,,,,,,,,14,,,,43,0
160094,note_on,0,0,15,,,,,,,,,14,,,,38,112
160145,note_on,60,0,3,,,,,,,,,2,,,,77,0
160145,note_on,0,0,3,,,,,,,,,2,,,,79,0
160149,note_on,60,0,4,,,,,,,,,3,,,,65,0
160149,note_on,0,0,4,,,,,,,,,3,,,,67,0
160190,note_on,110,0,11,,,,,,,,,10,,,,62,0
160193,note_on,110,0,12,,,,,,,,,11,,,,62,0
160198,note_on,110,0,13,,,,,,,,,12,,,,62,0
160200,set_tempo,120,1,0,,,,,,263736,,,,,,,,
160200,note_on,10,0,11,,,,,,,,,10,,,,59,112
160202,note_on,110,0,14,,,,,,,,,13,,,,50,0
160203,note_on,10,0,12,,,,,,,,,11,,,,59,112
160204,note_on,0,0,2,,,,,,,,,1,,,,77,100
160204,control_change,0,0,2,,,,,,,,,1,11,55,,,
160204,note_on,720,0,2,,,,,,,,,1,,,,79,100
160204,note_on,110,0,15,,,,,,,,,14,,,,38,0
160205,note_on,0,0,3,,,,,,,,,2,,,,77,116
160205,note_on,60,0,3,,,,,,,,,2,,,,79,116
160208,note_on,10,0,13,,,,,,,,,12,,,,59,112
160209,note_on,0,0,4,,,,,,,,,3,,,,65,115
160209,note_on,60,0,4,,,,,,,,,3,,,,67,115
160212,note_on,10,0,14,,,,,,,,,13,,,,47,112
160214,note_on,10,0,15,,,,,,,,,14,,,,35,112
160234,note_on,30,0,2,,,,,,,,,1,,,,79,0
160264,note_on,30,0,2,,,,,,,,,1,,,,79,100
160294,note_on,30,0,2,,,,,,,,,1,,,,79,0
160320,note_on,120,0,11,,,,,,,,,10,,,,59,0
160320,note_on,0,0,11,,,,,,,,,10,,,,62,112
160323,note_on,120,0,12,,,,,,,,,11,,,,59,0
160323,note_on,0,0,12,,,,,,,,,11,,,,62,112
160324,note_on,30,0,2,,,,,,,,,1,,,,81,100
160328,note_on,120,0,13,,,,,,,,,12,,,,59,0
160328,note_on,0,0,13,,,,,,,,,12,,,,62,112
160332,note_on,120,0,14,,,,,,,,,13,,,,47,0
160332,note_on,0,0,14,,,,,,,,,13,,,,50,112
160334,note_on,120,0,15,,,,,,,,,14,,,,35,0
160334,note_on,0,0,15,,,,,,,,,14,,,,38,112
160384,note_on,0,0,2,,,,,,,,,1,,,,79,100
160384,note_on,60,0,2,,,,,,,,,1,,,,81,0
160440,note_on,120,0,11,,,,,,,,,10,,,,62,0
160440,set_tempo,240,1,0,,,,,,292683,,,,,,,,
160440,note_on,0,0,11,,,,,,,,,10,,,,66,112
160443,note_on,120,0,12,,,,,,,,,11,,,,62,0
160443,note_on,0,0,12,,,,,,,,,11,,,,66,112
160444,note_on,60,0,2,,,,,,,,,1,,,,79,0
160444,note_on,0,0,2,,,,,,,,,1,,,,81,100
160448,note_on,120,0,13,,,,,,,,,12,,,,62,0
160448,note_on,0,0,13,,,,,,,,,12,,,,66,112
160452,note_on,120,0,14,,,,,,,,,13,,,,50,0
160452,note_on,0,0,14,,,,,,,,,13,,,,54,112
160454,note_on,0,0,15,,,,,,,,,14,,,,42,112
160454,note_on,120,0,15,,,,,,,,,14,,,,38,0
160504,note_on,0,0,2,,,,,,,,,1,,,,79,100
160504,note_on,60,0,2,,,,,,,,,1,,,,81,0
160560,note_on,0,0,11,,,,,,,,,10,,,,67,112
160560,set_tempo,120,1,0,,,,,,263736,,,,,,,,
160560,note_on,120,0,11,,,,,,,,,10,,,,66,0
160563,note_on,120,0,12,,,,,,,,,11,,,,66,0
160563,note_on,0,0,12,,,,,,,,,11,,,,67,112
160564,note_on,60,0,2,,,,,,,,,1,,,,79,0
160564,note_on,0,0,2,,,,,,,,,1,,,,77,0
160564,note_on,0,0,2,,,,,,,,,1,,,,77,100
160564,note_on,0,0,2,,,,,,,,,1,,,,79,100
160564,control_change,0,0,2,,,,,,,,,1,11,47,,,
160565,note_on,0,0,3,,,,,,,,,2,,,,77,116
160565,note_on,360,0,3,,,,,,,,,2,,,,77,0
160565,note_on,0,0,3,,,,,,,,,2,,,,79,116
160565,note_on,0,0,3,,,,,,,,,2,,,,79,0
160568,note_on,120,0,13,,,,,,,,,12,,,,66,0
160568,note_on,0,0,13,,,,,,,,,12,,,,67,112
160569,note_on,360,0,4,,,,,,,,,3,,,,65,0
160569,note_on,0,0,4,,,,,,,,,3,,,,67,0
160569,note_on,0,0,4,,,,,,,,,3,,,,67,115
160569,note_on,0,0,4,,,,,,,,,3,,,,65,115
160572,note_on,0,0,14,,,,,,,,,13,,,,55,112
160572,note_on,120,0,14,,,,,,,,,13,,,,54,0
160574,note_on,0,0,15,,,,,,,,,14,,,,43,112
160574,note_on,120,0,15,,,,,,,,,14,,,,42,0
160624,note_on,60,0,2,,,,,,,,,1,,,,79,0
160624,note_on,0,0,2,,,,,,,,,1,,,,77,0
160680,note_on,120,0,11,,,,,,,,,10,,,,67,0
160680,note_on,0,0,11,,,,,,,,,10,,,,71,112
160683,note_on,120,0,12,,,,,,,,,11,,,,67,0
160683,note_on,0,0,12,,,,,,,,,11,,,,71,112
160684,note_on,0,0,2,,,,,,,,,1,,,,77,100
160684,note_on,60,0,2,,,,,,,,,1,,,,79,100
160688,note_on,120,0,13,,,,,,,,,12,,,,67,0
160688,note_on,0,0,13,,,,,,,,,12,,,,71,112
160692,note_on,0,0,14,,,,,,,,,13,,,,59,112
160692,note_on,120,0,14,,,,,,,,,13,,,,55,0
160694,note_on,120,0,15,,,,,,,,,14,,,,43,0
160694,note_on,0,0,15,,,,,,,,,14,,,,47,112
160744,note_on,0,0,2,,,,,,,,,1,,,,79,0
160744,note_on,60,0,2,,,,,,,,,1,,,,77,0
160800,note_on,0,0,11,,,,,,,,,10,,,,73,112
160800,set_tempo,240,1,0,,,,,,315789,,,,,,,,
160800,note_on,120,0,11,,,,,,,,,10,,,,71,0
160803,note_on,120,0,12,,,,,,,,,11,,,,71,0
160803,note_on,0,0,12,,,,,,,,,11,,,,73,112
160804,note_on,60,0,2,,,,,,,,,1,,,,77,100
160804,note_on,0,0,2,,,,,,,,,1,,,,79,100
160808,note_on,0,0,13,,,,,,,,,12,,,,73,112
160808,note_on,120,0,13,,,,,,,,,12,,,,71,0
160812,note_on,120,0,14,,,,,,,,,13,,,,59,0
160812,note_on,0,0,14,,,,,,,,,13,,,,61,112
160814,note_on,0,0,15,,,,,,,,,14,,,,49,112
160814,note_on,120,0,15,,,,,,,,,14,,,,47,0
160864,note_on,60,0,2,,,,,,,,,1,,,,79,0
160864,note_on,0,0,2,,,,,,,,,1,,,,77,0
160910,note_on,110,0,11,,,,,,,,,10,,,,73,0
160913,note_on,110,0,12,,,,,,,,,11,,,,73,0
160918,note_on,110,0,13,,,,,,,,,12,,,,73,0
160920,note_on,10,0,11,,,,,,,,,10,,,,74,127
160920,set_tempo,120,1,0,,,,,,260870,,,,,,,,
160920,control_change,0,0,11,,,,,,,,,10,11,36,,,
160921,control_change,5640,0,1,,,,,,,,,0,11,37,,,
160921,note_on,0,0,1,,,,,,,,,0,,,,86,101
160921,note_on,0,0,1,,,,,,,,,0,,,,83,116
160922,note_on,110,0,14,,,,,,,,,13,,,,61,0
160923,control_change,10,0,12,,,,,,,,,11,11,36,,,
160923,note_on,0,0,12,,,,,,,,,11,,,,74,127
160924,note_on,0,0,2,,,,,,,,,1,,,,74,115
160924,note_on,0,0,2,,,,,,,,,1,,,,83,115
160924,note_on,110,0,15,,,,,,,,,14,,,,49,0
160924,control_change,60,0,2,,,,,,,,,1,11,37,,,
160925,note_on,0,0,3,,,,,,,,,2,,,,77,0
160925,note_on,360,0,3,,,,,,,,,2,,,,79,0
160925,control_change,0,0,3,,,,,,,,,2,11,37,,,
160925,note_on,0,0,3,,,,,,,,,2,,,,78,116
160928,note_on,10,0,13,,,,,,,,,12,,,,74,127
160928,control_change,0,0,13,,,,,,,,,12,11,36,,,
160929,note_on,0,0,4,,,,,,,,,3,,,,67,0
160929,note_on,360,0,4,,,,,,,,,3,,,,65,0
160929,note_on,0,0,4,,,,,,,,,3,,,,66,115
160929,control_change,0,0,4,,,,,,,,,3,11,37,,,
160932,note_on,0,0,14,,,,,,,,,13,,,,62,127
160932,control_change,10,0,14,,,,,,,,,13,11,36,,,
160934,note_on,0,0,15,,,,,,,,,14,,,,50,127
160934,control_change,10,0,15,,,,,,,,,14,11,36,,,
160951,note_on,30,0,1,,,,,,,,,0,,,,86,0
160968,control_change,48,0,11,,,,,,,,,10,11,37,,,
160971,control_change,48,0,12,,,,,,,,,11,11,37,,,
160976,control_change,48,0,13,,,,,,,,,12,11,37,,,
160980,control_change,48,0,14,,,,,,,,,13,11,37,,,
160981,control_change,0,0,1,,,,,,,,,0,11,38,,,
160981,note_on,30,0,1,,,,,,,,,0,,,,86,101
160982,control_change,48,0,15,,,,,,,,,14,11,37,,,
160984,control_change,60,0,2,,,,,,,,,1,11,38,,,
160985,control_change,60,0,3,,,,,,,,,2,11,38,,,
160989,control_change,60,0,4,,,,,,,,,3,11,38,,,
161011,note_on,30,0,1,,,,,,,,,0,,,,86,0
161016,control_change,48,0,11,,,,,,,,,10,11,38,,,
161019,control_change,48,0,12,,,,,,,,,11,11,38,,,
161024,control_change,48,0,13,,,,,,,,,12,11,38,,,
161028,control_change,48,0,14,,,,,,,,,13,11,38,,,
161030,control_change,48,0,15,,,,,,,,,14,11,38,,,
161041,note_on,30,0,1,,,,,,,,,0,,,,88,101
161042,control_change,1,0,1,,,,,,,,,0,11,39,,,
161045,control_change,61,0,2,,,,,,,,,1,11,39,,,
161046,control_change,61,0,3,,,,,,,,,2,11,39,,,
161050,control_change,61,0,4,,,,,,,,,3,11,39,,,
161064,control_change,48,0,11,,,,,,,,,10,11,39,,,
161067,control_change,48,0,12,,,,,,,,,11,11,39,,,
161072,control_change,48,0,13,,,,,,,,,12,11,39,,,
161076,control_change,48,0,14,,,,,,,,,13,11,39,,,
161078,control_change,48,0,15,,,,,,,,,14,11,39,,,
161101,note_on,59,0,1,,,,,,,,,0,,,,88,0
161101,note_on,0,0,1,,,,,,,,,0,,,,86,101
161103,control_change,2,0,1,,,,,,,,,0,11,40,,,
161106,control_change,61,0,2,,,,,,,,,1,11,40,,,
161107,control_change,61,0,3,,,,,,,,,2,11,40,,,
161111,control_change,61,0,4,,,,,,,,,3,11,40,,,
161112,control_change,48,0,11,,,,,,,,,10,11,40,,,
161115,control_change,48,0,12,,,,,,,,,11,11,40,,,
161120,control_change,48,0,13,,,,,,,,,12,11,40,,,
161124,control_change,48,0,14,,,,,,,,,13,11,40,,,
161126,control_change,48,0,15,,,,,,,,,14,11,40,,,
161160,note_on,0,0,11,,,,,,,,,10,,,,71,112
161160,control_change,0,0,11,,,,,,,,,10,11,41,,,
161160,note_on,48,0,11,,,,,,,,,10,,,,74,0
161160,set_tempo,240,1,0,,,,,,288462,,,,,,,,
161161,note_on,58,0,1,,,,,,,,,0,,,,86,0
161161,note_on,0,0,1,,,,,,,,,0,,,,88,101
161163,note_on,48,0,12,,,,,,,,,11,,,,74,0
161163,note_on,0,0,12,,,,,,,,,11,,,,71,112
161163,control_change,0,0,12,,,,,,,,,11,11,41,,,
161164,control_change,3,0,1,,,,,,,,,0,11,41,,,
161167,control_change,61,0,2,,,,,,,,,1,11,41,,,
161168,note_on,48,0,13,,,,,,,,,12,,,,74,0
161168,control_change,0,0,13,,,,,,,,,12,11,41,,,
161168,control_change,61,0,3,,,,,,,,,2,11,41,,,
161168,note_on,0,0,13,,,,,,,,,12,,,,71,112
161172,control_change,0,0,14,,,,,,,,,13,11,41,,,
161172,note_on,48,0,14,,,,,,,,,13,,,,62,0
161172,control_change,61,0,4,,,,,,,,,3,11,41,,,
161172,note_on,0,0,14,,,,,,,,,13,,,,59,112
161174,note_on,48,0,15,,,,,,,,,14,,,,50,0
161174,control_change,0,0,15,,,,,,,,,14,11,41,,,
161174,note_on,0,0,15,,,,,,,,,14,,,,47,112
161200,control_change,40,0,11,,,,,,,,,10,11,42,,,
161203,control_change,40,0,12,,,,,,,,,11,11,42,,,
161208,control_change,40,0,13,,,,,,,,,12,11,42,,,
161212,control_change,40,0,14,,,,,,,,,13,11,42,,,
161214,control_change,40,0,15,,,,,,,,,14,11,42,,,
161221,note_on,0,0,1,,,,,,,,,0,,,,86,101
161221,note_on,57,0,1,,,,,,,,,0,,,,88,0
161225,control_change,4,0,1,,,,,,,,,0,11,42,,,
161228,control_change,61,0,2,,,,,,,,,1,11,42,,,
161229,control_change,61,0,3,,,,,,,,,2,11,42,,,
161233,control_change,61,0,4,,,,,,,,,3,11,42,,,
161241,control_change,41,0,11,,,,,,,,,10,11,42,,,
161244,control_change,41,0,12,,,,,,,,,11,11,42,,,
161249,control_change,41,0,13,,,,,,,,,12,11,42,,,
161253,control_change,41,0,14,,,,,,,,,13,11,42,,,
161255,control_change,41,0,15,,,,,,,,,14,11,42,,,
161280,set_tempo,120,1,0,,,,,,260870,,,,,,,,
161280,note_on,0,0,11,,,,,,,,,10,,,,66,112
161280,note_on,39,0,11,,,,,,,,,10,,,,71,0
161281,note_on,56,0,1,,,,,,,,,0,,,,86,0
161281,control_change,1,0,11,,,,,,,,,10,11,43,,,
161281,note_on,0,0,1,,,,,,,,,0,,,,83,0
161281,note_on,0,0,1,,,,,,,,,0,,,,83,101
161281,note_on,0,0,1,,,,,,,,,0,,,,86,101
161283,note_on,0,0,12,,,,,,,,,11,,,,66,112
161283,note_on,39,0,12,,,,,,,,,11,,,,71,0
161284,control_change,1,0,12,,,,,,,,,11,11,43,,,
161284,note_on,56,0,2,,,,,,,,,1,,,,83,0
161284,note_on,0,0,2,,,,,,,,,1,,,,74,0
161284,note_on,0,0,2,,,,,,,,,1,,,,74,115
161284,note_on,0,0,2,,,,,,,,,1,,,,83,115
161285,note_on,0,0,3,,,,,,,,,2,,,,71,101
161285,note_on,0,0,3,,,,,,,,,2,,,,78,101
161285,note_on,56,0,3,,,,,,,,,2,,,,78,0
161286,control_change,5,0,1,,,,,,,,,0,11,43,,,
161288,note_on,0,0,13,,,,,,,,,12,,,,66,112
161288,note_on,39,0,13,,,,,,,,,12,,,,71,0
161289,note_on,0,0,4,,,,,,,,,3,,,,62,115
161289,note_on,0,0,4,,,,,,,,,3,,,,66,115
161289,note_on,56,0,4,,,,,,,,,3,,,,66,0
161289,control_change,1,0,13,,,,,,,,,12,11,43,,,
161289,control_change,5,0,2,,,,,,,,,1,11,43,,,
161290,control_change,5,0,3,,,,,,,,,2,11,43,,,
161292,note_on,0,0,14,,,,,,,,,13,,,,54,112
161292,note_on,39,0,14,,,,,,,,,13,,,,59,0
161293,control_change,1,0,14,,,,,,,,,13,11,43,,,
161294,note_on,0,0,15,,,,,,,,,14,,,,42,112
161294,note_on,39,0,15,,,,,,,,,14,,,,47,0
161294,control_change,5,0,4,,,,,,,,,3,11,43,,,
161295,control_change,1,0,15,,,,,,,,,14,11,43,,,
161322,control_change,41,0,11,,,,,,,,,10,11,44,,,
161325,control_change,41,0,12,,,,,,,,,11,11,44,,,
161330,control_change,41,0,13,,,,,,,,,12,11,44,,,
161334,control_change,41,0,14,,,,,,,,,13,11,44,,,
161336,control_change,41,0,15,,,,,,,,,14,11,44,,,
161341,note_on,55,0,1,,,,,,,,,0,,,,86,0
161341,note_on,0,0,1,,,,,,,,,0,,,,83,0
161347,control_change,6,0,1,,,,,,,,,0,11,44,,,
161349,note_on,55,0,4,,,,,,,,,3,,,,66,0
161349,note_on,0,0,4,,,,,,,,,3,,,,62,0
161350,control_change,61,0,2,,,,,,,,,1,11,44,,,
161351,control_change,61,0,3,,,,,,,,,2,11,44,,,
161355,control_change,6,0,4,,,,,,,,,3,11,44,,,
161363,control_change,41,0,11,,,,,,,,,10,11,45,,,
161366,control_change,41,0,12,,,,,,,,,11,11,45,,,
161371,control_change,41,0,13,,,,,,,,,12,11,45,,,
161375,control_change,41,0,14,,,,,,,,,13,11,45,,,
161377,control_change,41,0,15,,,,,,,,,14,11,45,,,
161401,note_on,0,0,1,,,,,,,,,0,,,,83,101
161401,note_on,54,0,1,,,,,,,,,0,,,,86,101
161403,control_change,40,0,11,,,,,,,,,10,11,46,,,
161406,control_change,40,0,12,,,,,,,,,11,11,46,,,
161408,control_change,7,0,1,,,,,,,,,0,11,45,,,
161409,note_on,54,0,4,,,,,,,,,3,,,,66,100
161409,note_on,0,0,4,,,,,,,,,3,,,,62,100
161411,control_change,61,0,2,,,,,,,,,1,11,45,,,
161411,control_change,40,0,13,,,,,,,,,12,11,46,,,
161412,control_change,61,0,3,,,,,,,,,2,11,45,,,
161415,control_change,40,0,14,,,,,,,,,13,11,46,,,
161416,control_change,7,0,4,,,,,,,,,3,11,45,,,
161417,control_change,40,0,15,,,,,,,,,14,11,46,,,
161444,control_change,41,0,11,,,,,,,,,10,11,47,,,
161447,control_change,41,0,12,,,,,,,,,11,11,47,,,
161452,control_change,41,0,13,,,,,,,,,12,11,47,,,
161456,control_change,41,0,14,,,,,,,,,13,11,47,,,
161458,control_change,41,0,15,,,,,,,,,14,11,47,,,
161461,note_on,53,0,1,,,,,,,,,0,,,,83,0
161461,note_on,0,0,1,,,,,,,,,0,,,,86,0
161469,note_on,53,0,4,,,,,,,,,3,,,,62,0
161469,note_on,0,0,4,,,,,,,,,3,,,,66,0
161469,control_change,8,0,1,,,,,,,,,0,11,46,,,
161472,control_change,61,0,2,,,,,,,,,1,11,46,,,
161473,control_change,61,0,3,,,,,,,,,2,11,46,,,
161477,control_change,8,0,4,,,,,,,,,3,11,46,,,
161484,control_change,40,0,11,,,,,,,,,10,11,48,,,
161487,control_change,40,0,12,,,,,,,,,11,11,48,,,
161492,control_change,40,0,13,,,,,,,,,12,11,48,,,
161496,control_change,40,0,14,,,,,,,,,13,11,48,,,
161498,control_change,40,0,15,,,,,,,,,14,11,48,,,
161520,note_on,0,0,11,,,,,,,,,10,,,,62,112
161520,note_on,36,0,11,,,,,,,,,10,,,,66,0
161520,set_tempo,240,1,0,,,,,,288462,,,,,,,,
161521,note_on,52,0,1,,,,,,,,,0,,,,83,101
161521,note_on,0,0,1,,,,,,,,,0,,,,86,101
161523,note_on,0,0,12,,,,,,,,,11,,,,62,112
161523,note_on,36,0,12,,,,,,,,,11,,,,66,0
161525,control_change,5,0,11,,,,,,,,,10,11,49,,,
161528,control_change,5,0,12,,,,,,,,,11,11,49,,,
161528,note_on,0,0,13,,,,,,,,,12,,,,62,112
161528,note_on,36,0,13,,,,,,,,,12,,,,66,0
161529,note_on,0,0,4,,,,,,,,,3,,,,62,100
161529,note_on,52,0,4,,,,,,,,,3,,,,66,100
161530,control_change,9,0,1,,,,,,,,,0,11,47,,,
161532,note_on,36,0,14,,,,,,,,,13,,,,54,0
161532,note_on,0,0,14,,,,,,,,,13,,,,50,112
161533,control_change,5,0,13,,,,,,,,,12,11,49,,,
161533,control_change,61,0,2,,,,,,,,,1,11,47,,,
161534,control_change,61,0,3,,,,,,,,,2,11,47,,,
161534,note_on,0,0,15,,,,,,,,,14,,,,38,112
161534,note_on,36,0,15,,,,,,,,,14,,,,42,0
161537,control_change,5,0,14,,,,,,,,,13,11,49,,,
161538,control_change,9,0,4,,,,,,,,,3,11,47,,,
161539,control_change,5,0,15,,,,,,,,,14,11,49,,,
161566,control_change,41,0,11,,,,,,,,,10,11,50,,,
161569,control_change,41,0,12,,,,,,,,,11,11,50,,,
161574,control_change,41,0,13,,,,,,,,,12,11,50,,,
161578,control_change,41,0,14,,,,,,,,,13,11,50,,,
161580,control_change,41,0,15,,,,,,,,,14,11,50,,,
161581,note_on,51,0,1,,,,,,,,,0,,,,86,0
161581,note_on,0,0,1,,,,,,,,,0,,,,83,0
161589,note_on,0,0,4,,,,,,,,,3,,,,66,0
161589,note_on,51,0,4,,,,,,,,,3,,,,62,0
161591,control_change,10,0,1,,,,,,,,,0,11,48,,,
161594,control_change,61,0,2,,,,,,,,,1,11,48,,,
161595,control_change,61,0,3,,,,,,,,,2,11,48,,,
161599,control_change,10,0,4,,,,,,,,,3,11,48,,,
161606,control_change,40,0,11,,,,,,,,,10,11,51,,,
161609,control_change,40,0,12,,,,,,,,,11,11,51,,,
161614,control_change,40,0,13,,,,,,,,,12,11,51,,,
161618,control_change,40,0,14,,,,,,,,,13,11,51,,,
161620,control_change,40,0,15,,,,,,,,,14,11,51,,,
161630,note_on,24,0,11,,,,,,,,,10,,,,62,0
161633,note_on,24,0,12,,,,,,,,,11,,,,62,0
161638,note_on,24,0,13,,,,,,,,,12,,,,62,0
161640,set_tempo,120,1,0,,,,,,260870,,,,,,,,
161640,note_on,10,0,11,,,,,,,,,10,,,,59,112
161641,note_on,0,0,1,,,,,,,,,0,,,,86,116
161641,note_on,50,0,1,,,,,,,,,0,,,,83,116
161642,note_on,24,0,14,,,,,,,,,13,,,,50,0
161643,note_on,10,0,12,,,,,,,,,11,,,,59,112
161644,note_on,0,0,2,,,,,,,,,1,,,,74,100
161644,note_on,0,0,2,,,,,,,,,1,,,,83,115
161644,note_on,0,0,2,,,,,,,,,1,,,,74,0
161644,note_on,50,0,2,,,,,,,,,1,,,,83,0
161644,note_on,24,0,15,,,,,,,,,14,,,,38,0
161645,note_on,0,0,3,,,,,,,,,2,,,,74,116
161645,note_on,0,0,3,,,,,,,,,2,,,,78,116
161645,note_on,50,0,3,,,,,,,,,2,,,,71,0
161645,note_on,0,0,3,,,,,,,,,2,,,,78,0
161647,control_change,7,0,11,,,,,,,,,10,11,52,,,
161648,note_on,10,0,13,,,,,,,,,12,,,,59,112
161649,note_on,0,0,4,,,,,,,,,3,,,,59,115
161649,note_on,50,0,4,,,,,,,,,3,,,,66,115
161650,control_change,7,0,12,,,,,,,,,11,11,52,,,
161652,control_change,11,0,1,,,,,,,,,0,11,49,,,
161652,note_on,10,0,14,,,,,,,,,13,,,,47,112
161654,note_on,10,0,15,,,,,,,,,14,,,,35,112
161655,control_change,11,0,2,,,,,,,,,1,11,49,,,
161655,control_change,7,0,13,,,,,,,,,12,11,52,,,
161656,control_change,11,0,3,,,,,,,,,2,11,49,,,
161659,control_change,7,0,14,,,,,,,,,13,11,52,,,
161660,control_change,11,0,4,,,,,,,,,3,11,49,,,
161661,control_change,7,0,15,,,,,,,,,14,11,52,,,
161674,note_on,19,0,2,,,,,,,,,1,,,,74,0
161688,control_change,41,0,11,,,,,,,,,10,11,53,,,
161691,control_change,41,0,12,,,,,,,,,11,11,53,,,
161696,control_change,41,0,13,,,,,,,,,12,11,53,,,
161700,control_change,41,0,14,,,,,,,,,13,11,53,,,
161702,control_change,41,0,15,,,,,,,,,14,11,53,,,
161704,note_on,30,0,2,,,,,,,,,1,,,,74,100
161713,control_change,61,0,1,,,,,,,,,0,11,50,,,
161716,control_change,12,0,2,,,,,,,,,1,11,50,,,
161717,control_change,61,0,3,,,,,,,,,2,11,50,,,
161721,control_change,61,0,4,,,,,,,,,3,11,50,,,
161728,control_change,40,0,11,,,,,,,,,10,11,54,,,
161731,control_change,40,0,12,,,,,,,,,11,11,54,,,
161734,note_on,18,0,2,,,,,,,,,1,,,,74,0
161736,control_change,40,0,13,,,,,,,,,12,11,54,,,
161740,control_change,40,0,14,,,,,,,,,13,11,54,,,
161742,control_change,40,0,15,,,,,,,,,14,11,54,,,
161760,note_on,0,0,11,,,,,,,,,10,,,,62,112
161760,note_on,32,0,11,,,,,,,,,10,,,,59,0
161763,note_on,32,0,12,,,,,,,,,11,,,,59,0
161763,note_on,0,0,12,,,,,,,,,11,,,,62,112
161764,note_on,30,0,2,,,,,,,,,1,,,,76,100
161768,note_on,32,0,13,,,,,,,,,12,,,,59,0
161768,note_on,0,0,13,,,,,,,,,12,,,,62,112
161769,control_change,9,0,11,,,,,,,,,10,11,55,,,
161772,note_on,0,0,14,,,,,,,,,13,,,,50,112
161772,note_on,32,0,14,,,,,,,,,13,,,,47,0
161772,control_change,9,0,12,,,,,,,,,11,11,55,,,
161773,control_change,60,0,1,,,,,,,,,0,11,51,,,
161774,note_on,32,0,15,,,,,,,,,14,,,,35,0
161774,note_on,0,0,15,,,,,,,,,14,,,,38,112
161776,control_change,12,0,2,,,,,,,,,1,11,51,,,
161777,control_change,60,0,3,,,,,,,,,2,11,51,,,
161777,control_change,9,0,13,,,,,,,,,12,11,55,,,
161781,control_change,60,0,4,,,,,,,,,3,11,51,,,
161781,control_change,9,0,14,,,,,,,,,13,11,55,,,
161783,control_change,9,0,15,,,,,,,,,14,11,55,,,
161809,control_change,40,0,11,,,,,,,,,10,11,56,,,
161812,control_change,40,0,12,,,,,,,,,11,11,56,,,
161817,control_change,40,0,13,,,,,,,,,12,11,56,,,
161821,control_change,40,0,14,,,,,,,,,13,11,56,,,
161823,control_change,40,0,15,,,,,,,,,14,11,56,,,
161824,note_on,0,0,2,,,,,,,,,1,,,,74,100
161824,note_on,48,0,2,,,,,,,,,1,,,,76,0
161834,control_change,61,0,1,,,,,,,,,0,11,52,,,
161837,control_change,13,0,2,,,,,,,,,1,11,52,,,
161838,control_change,61,0,3,,,,,,,,,2,11,52,,,
161842,control_change,61,0,4,,,,,,,,,3,11,52,,,
161850,control_change,41,0,11,,,,,,,,,10,11,57,,,
161853,control_change,41,0,12,,,,,,,,,11,11,57,,,
161858,control_change,41,0,13,,,,,,,,,12,11,57,,,
161862,control_change,41,0,14,,,,,,,,,13,11,57,,,
161864,control_change,41,0,15,,,,,,,,,14,11,57,,,
161880,note_on,30,0,11,,,,,,,,,10,,,,62,0
161880,note_on,0,0,11,,,,,,,,,10,,,,66,112
161880,set_tempo,240,1,0,,,,,,288462,,,,,,,,
161883,note_on,0,0,12,,,,,,,,,11,,,,66,112
161883,note_on,30,0,12,,,,,,,,,11,,,,62,0
161884,note_on,47,0,2,,,,,,,,,1,,,,74,0
161884,note_on,0,0,2,,,,,,,,,1,,,,76,100
161888,note_on,30,0,13,,,,,,,,,12,,,,62,0
161888,note_on,0,0,13,,,,,,,,,12,,,,66,112
161891,control_change,11,0,11,,,,,,,,,10,11,57,,,
161892,note_on,30,0,14,,,,,,,,,13,,,,50,0
161892,note_on,0,0,14,,,,,,,,,13,,,,54,112
161894,note_on,0,0,15,,,,,,,,,14,,,,42,112
161894,control_change,11,0,12,,,,,,,,,11,11,57,,,
161894,note_on,30,0,15,,,,,,,,,14,,,,38,0
161895,control_change,61,0,1,,,,,,,,,0,11,52,,,
161898,control_change,14,0,2,,,,,,,,,1,11,52,,,
161899,control_change,11,0,13,,,,,,,,,12,11,57,,,
161899,control_change,61,0,3,,,,,,,,,2,11,52,,,
161903,control_change,11,0,14,,,,,,,,,13,11,57,,,
161903,control_change,61,0,4,,,,,,,,,3,11,53,,,
161905,control_change,11,0,15,,,,,,,,,14,11,57,,,
161931,control_change,40,0,11,,,,,,,,,10,11,58,,,
161934,control_change,40,0,12,,,,,,,,,11,11,58,,,
161939,control_change,40,0,13,,,,,,,,,12,11,58,,,
161943,control_change,40,0,14,,,,,,,,,13,11,58,,,
161944,note_on,46,0,2,,,,,,,,,1,,,,76,0
161944,note_on,0,0,2,,,,,,,,,1,,,,74,100
161945,control_change,40,0,15,,,,,,,,,14,11,58,,,
161956,control_change,61,0,1,,,,,,,,,0,11,53,,,
161959,control_change,15,0,2,,,,,,,,,1,11,53,,,
161960,control_change,61,0,3,,,,,,,,,2,11,53,,,
161964,control_change,61,0,4,,,,,,,,,3,11,54,,,
161972,control_change,41,0,11,,,,,,,,,10,11,59,,,
161975,control_change,41,0,12,,,,,,,,,11,11,59,,,
161980,control_change,41,0,13,,,,,,,,,12,11,59,,,
161984,control_change,41,0,14,,,,,,,,,13,11,59,,,
161986,control_change,41,0,15,,,,,,,,,14,11,59,,,
162000,note_on,28,0,11,,,,,,,,,10,,,,66,0
162000,set_tempo,120,1,0,,,,,,260870,,,,,,,,
162000,note_on,0,0,11,,,,,,,,,10,,,,71,112
162001,note_on,45,0,1,,,,,,,,,0,,,,86,0
162001,note_on,0,0,1,,,,,,,,,0,,,,83,0
162001,note_on,0,0,1,,,,,,,,,0,,,,83,116
162001,note_on,0,0,1,,,,,,,,,0,,,,86,116
162003,note_on,28,0,12,,,,,,,,,11,,,,66,0
162003,note_on,0,0,12,,,,,,,,,11,,,,71,112
162004,note_on,0,0,2,,,,,,,,,1,,,,83,0
162004,note_on,0,0,2,,,,,,,,,1,,,,83,100
162004,note_on,0,0,2,,,,,,,,,1,,,,74,100
162004,note_on,45,0,2,,,,,,,,,1,,,,74,0
162005,note_on,0,0,3,,,,,,,,,2,,,,78,101
162005,note_on,45,0,3,,,,,,,,,2,,,,74,0
162005,note_on,0,0,3,,,,,,,,,2,,,,74,101
162005,note_on,0,0,3,,,,,,,,,2,,,,78,0
162008,note_on,28,0,13,,,,,,,,,12,,,,66,0
162008,note_on,0,0,13,,,,,,,,,12,,,,71,112
162009,note_on,0,0,4,,,,,,,,,3,,,,66,0
162009,note_on,45,0,4,,,,,,,,,3,,,,59,0
162009,note_on,0,0,4,,,,,,,,,3,,,,59,115
162009,note_on,0,0,4,,,,,,,,,3,,,,66,115
162012,note_on,28,0,14,,,,,,,,,13,,,,54,0
162012,note_on,0,0,14,,,,,,,,,13,,,,59,112
162012,control_change,12,0,11,,,,,,,,,10,11,60,,,
162014,note_on,28,0,15,,,,,,,,,14,,,,42,0
162014,note_on,0,0,15,,,,,,,,,14,,,,47,112
162015,control_change,12,0,12,,,,,,,,,11,11,60,,,
162017,control_change,16,0,1,,,,,,,,,0,11,54,,,
162020,control_change,12,0,13,,,,,,,,,12,11,60,,,
162020,control_change,16,0,2,,,,,,,,,1,11,54,,,
162021,control_change,16,0,3,,,,,,,,,2,11,54,,,
162024,control_change,12,0,14,,,,,,,,,13,11,60,,,
162025,control_change,16,0,4,,,,,,,,,3,11,55,,,
162026,control_change,12,0,15,,,,,,,,,14,11,60,,,
162053,control_change,41,0,11,,,,,,,,,10,11,61,,,
162056,control_change,41,0,12,,,,,,,,,11,11,61,,,
162061,control_change,41,0,13,,,,,,,,,12,11,61,,,
162064,note_on,0,0,2,,,,,,,,,1,,,,74,0
162064,note_on,44,0,2,,,,,,,,,1,,,,83,0
162065,control_change,41,0,14,,,,,,,,,13,11,61,,,
162065,note_on,0,0,3,,,,,,,,,2,,,,74,0
162065,note_on,44,0,3,,,,,,,,,2,,,,78,0
162067,control_change,41,0,15,,,,,,,,,14,11,61,,,
162078,control_change,61,0,1,,,,,,,,,0,11,55,,,
162081,control_change,17,0,2,,,,,,,,,1,11,55,,,
162082,control_change,17,0,3,,,,,,,,,2,11,55,,,
162086,control_change,61,0,4,,,,,,,,,3,11,56,,,
162094,control_change,41,0,11,,,,,,,,,10,11,62,,,
162097,control_change,41,0,12,,,,,,,,,11,11,62,,,
162102,control_change,41,0,13,,,,,,,,,12,11,62,,,
162106,control_change,41,0,14,,,,,,,,,13,11,62,,,
162108,control_change,41,0,15,,,,,,,,,14,11,62,,,
162120,note_on,0,0,11,,,,,,,,,10,,,,74,112
162120,note_on,26,0,11,,,,,,,,,10,,,,71,0
162123,note_on,0,0,12,,,,,,,,,11,,,,74,112
162123,note_on,26,0,12,,,,,,,,,11,,,,71,0
162124,note_on,43,0,2,,,,,,,,,1,,,,83,100
162124,note_on,0,0,2,,,,,,,,,1,,,,74,100
162125,note_on,0,0,3,,,,,,,,,2,,,,78,101
162125,note_on,43,0,3,,,,,,,,,2,,,,74,101
162128,note_on,26,0,13,,,,,,,,,12,,,,71,0
162128,note_on,0,0,13,,,,,,,,,12,,,,74,112
162132,note_on,26,0,14,,,,,,,,,13,,,,59,0
162132,note_on,0,0,14,,,,,,,,,13,,,,62,112
162134,control_change,14,0,11,,,,,,,,,10,11,63,,,
162134,note_on,26,0,15,,,,,,,,,14,,,,47,0
162134,note_on,0,0,15,,,,,,,,,14,,,,50,112
162137,control_change,14,0,12,,,,,,,,,11,11,63,,,
162139,control_change,61,0,1,,,,,,,,,0,11,55,,,
162142,control_change,18,0,2,,,,,,,,,1,11,55,,,
162142,control_change,14,0,13,,,,,,,,,12,11,63,,,
162143,control_change,18,0,3,,,,,,,,,2,11,55,,,
162146,control_change,14,0,14,,,,,,,,,13,11,63,,,
162147,control_change,61,0,4,,,,,,,,,3,11,57,,,
162148,control_change,14,0,15,,,,,,,,,14,11,63,,,
162175,control_change,41,0,11,,,,,,,,,10,11,64,,,
162178,control_change,41,0,12,,,,,,,,,11,11,64,,,
162183,control_change,41,0,13,,,,,,,,,12,11,64,,,
162184,note_on,42,0,2,,,,,,,,,1,,,,74,0
162184,note_on,0,0,2,,,,,,,,,1,,,,83,0
162185,note_on,42,0,3,,,,,,,,,2,,,,78,0
162185,note_on,0,0,3,,,,,,,,,2,,,,74,0
162187,control_change,41,0,14,,,,,,,,,13,11,64,,,
162189,control_change,41,0,15,,,,,,,,,14,11,64,,,
162200,control_change,61,0,1,,,,,,,,,0,11,56,,,
162203,control_change,19,0,2,,,,,,,,,1,11,56,,,
162204,control_change,19,0,3,,,,,,,,,2,11,56,,,
162208,control_change,61,0,4,,,,,,,,,3,11,58,,,
162216,control_change,41,0,11,,,,,,,,,10,11,65,,,
162219,control_change,41,0,12,,,,,,,,,11,11,65,,,
162224,control_change,41,0,13,,,,,,,,,12,11,65,,,
162228,control_change,41,0,14,,,,,,,,,13,11,65,,,
162230,control_change,41,0,15,,,,,,,,,14,11,65,,,
162240,set_tempo,240,1,0,,,,,,300000,,,,,,,,
162240,note_on,24,0,11,,,,,,,,,10,,,,74,0
162240,note_on,0,0,11,,,,,,,,,10,,,,78,112
162243,note_on,24,0,12,,,,,,,,,11,,,,74,0
162243,note_on,0,0,12,,,,,,,,,11,,,,78,112
162244,note_on,41,0,2,,,,,,,,,1,,,,74,100
162244,note_on,0,0,2,,,,,,,,,1,,,,83,100
162245,note_on,41,0,3,,,,,,,,,2,,,,78,101
162245,note_on,0,0,3,,,,,,,,,2,,,,74,101
162248,note_on,24,0,13,,,,,,,,,12,,,,74,0
162248,note_on,0,0,13,,,,,,,,,12,,,,66,112
162252,note_on,0,0,14,,,,,,,,,13,,,,66,112
162252,note_on,24,0,14,,,,,,,,,13,,,,62,0
162254,note_on,0,0,15,,,,,,,,,14,,,,54,112
162254,note_on,24,0,15,,,,,,,,,14,,,,50,0
162256,control_change,16,0,11,,,,,,,,,10,11,66,,,
162259,control_change,16,0,12,,,,,,,,,11,11,66,,,
162261,control_change,61,0,1,,,,,,,,,0,11,57,,,
162264,control_change,16,0,13,,,,,,,,,12,11,66,,,
162264,control_change,20,0,2,,,,,,,,,1,11,57,,,
162265,control_change,20,0,3,,,,,,,,,2,11,57,,,
162268,control_change,16,0,14,,,,,,,,,13,11,66,,,
162269,control_change,61,0,4,,,,,,,,,3,11,59,,,
162270,control_change,16,0,15,,,,,,,,,14,11,66,,,
162297,control_change,41,0,11,,,,,,,,,10,11,67,,,
162300,control_change,41,0,12,,,,,,,,,11,11,67,,,
162304,note_on,0,0,2,,,,,,,,,1,,,,74,0
162304,note_on,40,0,2,,,,,,,,,1,,,,83,0
162305,control_change,41,0,13,,,,,,,,,12,11,67,,,
162305,note_on,0,0,3,,,,,,,,,2,,,,78,0
162305,note_on,40,0,3,,,,,,,,,2,,,,74,0
162309,control_change,41,0,14,,,,,,,,,13,11,67,,,
162311,control_change,41,0,15,,,,,,,,,14,11,67,,,
162322,control_change,61,0,1,,,,,,,,,0,11,58,,,
162325,control_change,21,0,2,,,,,,,,,1,11,58,,,
162326,control_change,21,0,3,,,,,,,,,2,11,58,,,
162330,control_change,61,0,4,,,,,,,,,3,11,60,,,
162337,control_change,40,0,11,,,,,,,,,10,11,68,,,
162340,control_change,40,0,12,,,,,,,,,11,11,68,,,
162345,control_change,40,0,13,,,,,,,,,12,11,68,,,
162349,control_change,40,0,14,,,,,,,,,13,11,68,,,
162350,note_on,13,0,11,,,,,,,,,10,,,,78,0
162351,control_change,40,0,15,,,,,,,,,14,11,68,,,
162353,note_on,13,0,12,,,,,,,,,11,,,,78,0
162358,note_on,13,0,13,,,,,,,,,12,,,,66,0
162360,set_tempo,120,1,0,,,,,,259179,,,,,,,,
162360,note_on,10,0,11,,,,,,,,,10,,,,79,127
162361,note_on,39,0,1,,,,,,,,,0,,,,86,0
162361,note_on,0,0,1,,,,,,,,,0,,,,83,116
162361,note_on,0,0,1,,,,,,,,,0,,,,83,0
162361,note_on,0,0,1,,,,,,,,,0,,,,86,101
162362,note_on,13,0,14,,,,,,,,,13,,,,66,0
162363,note_on,10,0,12,,,,,,,,,11,,,,79,127
162363,control_change,0,0,5,,,,,,,,,4,11,82,,,
162363,note_on,2941,0,5,,,,,,,,,4,,,,67,115
162364,note_on,39,0,2,,,,,,,,,1,,,,83,115
162364,control_change,0,0,6,,,,,,,,,5,11,82,,,
162364,note_on,2941,0,6,,,,,,,,,5,,,,55,115
162364,note_on,13,0,15,,,,,,,,,14,,,,54,0
162364,note_on,0,0,2,,,,,,,,,1,,,,74,115
162365,note_on,0,0,3,,,,,,,,,2,,,,74,101
162365,note_on,39,0,3,,,,,,,,,2,,,,71,116
162368,note_on,10,0,13,,,,,,,,,12,,,,67,127
162369,note_on,39,0,4,,,,,,,,,3,,,,59,0
162369,note_on,0,0,4,,,,,,,,,3,,,,62,115
162369,note_on,0,0,4,,,,,,,,,3,,,,66,0
162369,note_on,0,0,4,,,,,,,,,3,,,,59,115
162372,note_on,10,0,14,,,,,,,,,13,,,,67,127
162374,note_on,10,0,15,,,,,,,,,14,,,,55,127
162378,control_change,18,0,11,,,,,,,,,10,11,69,,,
162381,control_change,18,0,12,,,,,,,,,11,11,69,,,
162383,control_change,22,0,1,,,,,,,,,0,11,58,,,
162386,control_change,18,0,13,,,,,,,,,12,11,69,,,
162386,control_change,22,0,2,,,,,,,,,1,11,58,,,
162387,control_change,22,0,3,,,,,,,,,2,11,58,,,
162390,control_change,18,0,14,,,,,,,,,13,11,69,,,
162391,control_change,22,0,4,,,,,,,,,3,11,61,,,
162391,note_on,8,0,1,,,,,,,,,0,,,,86,0
162392,control_change,18,0,15,,,,,,,,,14,11,69,,,
162395,note_on,8,0,3,,,,,,,,,2,,,,74,0
162419,control_change,41,0,11,,,,,,,,,10,11,70,,,
162421,note_on,30,0,1,,,,,,,,,0,,,,86,101
162422,control_change,41,0,12,,,,,,,,,11,11,70,,,
162425,note_on,30,0,3,,,,,,,,,2,,,,74,101
162427,control_change,41,0,13,,,,,,,,,12,11,70,,,
162431,control_change,41,0,14,,,,,,,,,13,11,70,,,
162433,control_change,41,0,15,,,,,,,,,14,11,70,,,
162435,control_change,72,0,5,,,,,,,,,4,11,83,,,
162436,control_change,72,0,6,,,,,,,,,5,11,83,,,
162444,control_change,23,0,1,,,,,,,,,0,11,59,,,
162447,control_change,61,0,2,,,,,,,,,1,11,59,,,
162448,control_change,23,0,3,,,,,,,,,2,11,59,,,
162451,note_on,7,0,1,,,,,,,,,0,,,,86,0
162452,control_change,61,0,4,,,,,,,,,3,11,62,,,
162455,note_on,7,0,3,,,,,,,,,2,,,,74,0
162459,control_change,40,0,11,,,,,,,,,10,11,71,,,
162462,control_change,40,0,12,,,,,,,,,11,11,71,,,
162467,control_change,40,0,13,,,,,,,,,12,11,71,,,
162471,control_change,40,0,14,,,,,,,,,13,11,71,,,
162473,control_change,40,0,15,,,,,,,,,14,11,71,,,
162481,note_on,30,0,1,,,,,,,,,0,,,,88,101
162485,note_on,30,0,3,,,,,,,,,2,,,,76,101
162500,control_change,41,0,11,,,,,,,,,10,11,72,,,
162503,control_change,41,0,12,,,,,,,,,11,11,72,,,
162505,control_change,24,0,1,,,,,,,,,0,11,60,,,
162507,control_change,72,0,5,,,,,,,,,4,11,84,,,
162508,control_change,72,0,6,,,,,,,,,5,11,84,,,
162508,control_change,61,0,2,,,,,,,,,1,11,60,,,
162508,control_change,41,0,13,,,,,,,,,12,11,72,,,
162509,control_change,24,0,3,,,,,,,,,2,11,60,,,
162512,control_change,41,0,14,,,,,,,,,13,11,72,,,
162513,control_change,61,0,4,,,,,,,,,3,11,63,,,
162514,control_change,41,0,15,,,,,,,,,14,11,72,,,
162540,control_change,40,0,11,,,,,,,,,10,11,72,,,
162541,note_on,0,0,1,,,,,,,,,0,,,,86,101
162541,note_on,36,0,1,,,,,,,,,0,,,,88,0
162543,control_change,40,0,12,,,,,,,,,11,11,72,,,
162545,note_on,0,0,3,,,,,,,,,2,,,,74,101
162545,note_on,36,0,3,,,,,,,,,2,,,,76,0
162548,control_change,40,0,13,,,,,,,,,12,11,72,,,
162552,control_change,40,0,14,,,,,,,,,13,11,72,,,
162554,control_change,40,0,15,,,,,,,,,14,11,72,,,
162565,control_change,24,0,1,,,,,,,,,0,11,61,,,
162568,control_change,60,0,2,,,,,,,,,1,11,61,,,
162569,control_change,24,0,3,,,,,,,,,2,11,61,,,
162573,control_change,60,0,4,,,,,,,,,3,11,64,,,
162579,control_change,72,0,5,,,,,,,,,4,11,85,,,
162580,control_change,72,0,6,,,,,,,,,5,11,85,,,
162581,control_change,41,0,11,,,,,,,,,10,11,73,,,
162584,control_change,41,0,12,,,,,,,,,11,11,73,,,
162589,control_change,41,0,13,,,,,,,,,12,11,73,,,
162593,control_change,41,0,14,,,,,,,,,13,11,73,,,
162595,control_change,41,0,15,,,,,,,,,14,11,73,,,
162600,note_on,0,0,11,,,,,,,,,10,,,,74,112
162600,set_tempo,240,1,0,,,,,,285714,,,,,,,,
162600,note_on,19,0,11,,,,,,,,,10,,,,79,0
162601,note_on,0,0,1,,,,,,,,,0,,,,88,101
162601,note_on,36,0,1,,,,,,,,,0,,,,86,0
162603,note_on,0,0,12,,,,,,,,,11,,,,74,112
162603,note_on,19,0,12,,,,,,,,,11,,,,79,0
162605,note_on,36,0,3,,,,,,,,,2,,,,74,0
162605,note_on,0,0,3,,,,,,,,,2,,,,76,101
162608,note_on,19,0,13,,,,,,,,,12,,,,67,0
162608,note_on,0,0,13,,,,,,,,,12,,,,62,112
162612,note_on,0,0,14,,,,,,,,,13,,,,62,112
162612,note_on,19,0,14,,,,,,,,,13,,,,67,0
162614,note_on,0,0,15,,,,,,,,,14,,,,50,112
162614,note_on,19,0,15,,,,,,,,,14,,,,55,0
162622,control_change,22,0,11,,,,,,,,,10,11,74,,,
162625,control_change,22,0,12,,,,,,,,,11,11,74,,,
162626,control_change,25,0,1,,,,,,,,,0,11,61,,,
162629,control_change,61,0,2,,,,,,,,,1,11,61,,,
162630,control_change,22,0,13,,,,,,,,,12,11,74,,,
162630,control_change,25,0,3,,,,,,,,,2,11,61,,,
162634,control_change,22,0,14,,,,,,,,,13,11,74,,,
162634,control_change,61,0,4,,,,,,,,,3,11,65,,,
162636,control_change,22,0,15,,,,,,,,,14,11,74,,,
162651,control_change,72,0,5,,,,,,,,,4,11,86,,,
162652,control_change,72,0,6,,,,,,,,,5,11,86,,,
162661,note_on,35,0,1,,,,,,,,,0,,,,88,0
162661,note_on,0,0,1,,,,,,,,,0,,,,86,101
162662,control_change,40,0,11,,,,,,,,,10,11,75,,,
162665,note_on,35,0,3,,,,,,,,,2,,,,76,0
162665,control_change,40,0,12,,,,,,,,,11,11,75,,,
162665,note_on,0,0,3,,,,,,,,,2,,,,74,101
162670,control_change,40,0,13,,,,,,,,,12,11,75,,,
162674,control_change,40,0,14,,,,,,,,,13,11,75,,,
162676,control_change,40,0,15,,,,,,,,,14,11,75,,,
162687,control_change,26,0,1,,,,,,,,,0,11,62,,,
162690,control_change,61,0,2,,,,,,,,,1,11,62,,,
162691,control_change,26,0,3,,,,,,,,,2,11,62,,,
162695,control_change,61,0,4,,,,,,,,,3,11,66,,,
162703,control_change,41,0,11,,,,,,,,,10,11,76,,,
162706,control_change,41,0,12,,,,,,,,,11,11,76,,,
162710,note_on,7,0,11,,,,,,,,,10,,,,74,0
162711,control_change,41,0,13,,,,,,,,,12,11,76,,,
162713,note_on,7,0,12,,,,,,,,,11,,,,74,0
162713,note_on,62,0,5,,,,,,,,,4,,,,67,0
162714,note_on,62,0,6,,,,,,,,,5,,,,55,0
162715,control_change,41,0,14,,,,,,,,,13,11,76,,,
162717,control_change,41,0,15,,,,,,,,,14,11,76,,,
162718,note_on,7,0,13,,,,,,,,,12,,,,62,0
162720,note_on,10,0,11,,,,,,,,,10,,,,71,112
162720,set_tempo,120,1,0,,,,,,259179,,,,,,,,
162721,note_on,0,0,1,,,,,,,,,0,,,,83,0
162721,note_on,0,0,1,,,,,,,,,0,,,,86,101
162721,note_on,0,0,1,,,,,,,,,0,,,,83,101
162721,note_on,34,0,1,,,,,,,,,0,,,,86,0
162722,note_on,7,0,14,,,,,,,,,13,,,,62,0
162723,control_change,0,0,5,,,,,,,,,4,11,87,,,
162723,note_on,10,0,12,,,,,,,,,11,,,,71,112
162723,note_on,10,0,5,,,,,,,,,4,,,,67,115
162724,control_change,10,0,6,,,,,,,,,5,11,87,,,
162724,note_on,0,0,6,,,,,,,,,5,,,,55,115
162724,note_on,0,0,2,,,,,,,,,1,,,,83,115
162724,note_on,34,0,2,,,,,,,,,1,,,,74,0
162724,note_on,0,0,2,,,,,,,,,1,,,,74,115
162724,note_on,0,0,2,,,,,,,,,1,,,,83,0
162724,note_on,7,0,15,,,,,,,,,14,,,,50,0
162725,note_on,0,0,3,,,,,,,,,2,,,,74,101
162725,note_on,0,0,3,,,,,,,,,2,,,,71,101
162725,note_on,0,0,3,,,,,,,,,2,,,,71,0
162725,note_on,34,0,3,,,,,,,,,2,,,,74,0
162728,note_on,10,0,13,,,,,,,,,12,,,,59,112
162729,note_on,0,0,4,,,,,,,,,3,,,,59,115
162729,note_on,0,0,4,,,,,,,,,3,,,,59,0
162729,note_on,0,0,4,,,,,,,,,3,,,,62,115
162729,note_on,34,0,4,,,,,,,,,3,,,,62,0
162732,note_on,10,0,14,,,,,,,,,13,,,,59,112
162734,note_on,10,0,15,,,,,,,,,14,,,,47,112
162744,control_change,24,0,11,,,,,,,,,10,11,77,,,
162747,control_change,24,0,12,,,,,,,,,11,11,77,,,
162748,control_change,27,0,1,,,,,,,,,0,11,63,,,
162751,control_change,27,0,2,,,,,,,,,1,11,63,,,
162752,control_change,27,0,3,,,,,,,,,2,11,63,,,
162752,control_change,24,0,13,,,,,,,,,12,11,77,,,
162756,control_change,27,0,4,,,,,,,,,3,11,67,,,
162756,control_change,24,0,14,,,,,,,,,13,11,77,,,
162758,control_change,24,0,15,,,,,,,,,14,11,77,,,
162781,note_on,33,0,1,,,,,,,,,0,,,,83,0
162781,note_on,0,0,1,,,,,,,,,0,,,,86,0
162784,control_change,40,0,11,,,,,,,,,10,11,78,,,
162785,note_on,0,0,3,,,,,,,,,2,,,,74,0
162785,note_on,33,0,3,,,,,,,,,2,,,,71,0
162787,control_change,40,0,12,,,,,,,,,11,11,78,,,
162792,control_change,40,0,13,,,,,,,,,12,11,78,,,
162795,control_change,72,0,5,,,,,,,,,4,11,88,,,
162796,control_change,40,0,14,,,,,,,,,13,11,78,,,
162796,control_change,72,0,6,,,,,,,,,5,11,88,,,
162798,control_change,40,0,15,,,,,,,,,14,11,78,,,
162809,control_change,28,0,1,,,,,,,,,0,11,64,,,
162812,control_change,61,0,2,,,,,,,,,1,11,64,,,
162813,control_change,28,0,3,,,,,,,,,2,11,64,,,
162817,control_change,61,0,4,,,,,,,,,3,11,68,,,
162825,control_change,41,0,11,,,,,,,,,10,11,79,,,
162828,control_change,41,0,12,,,,,,,,,11,11,79,,,
162833,control_change,41,0,13,,,,,,,,,12,11,79,,,
162837,control_change,41,0,14,,,,,,,,,13,11,79,,,
162839,control_change,41,0,15,,,,,,,,,14,11,79,,,
162841,note_on,32,0,1,,,,,,,,,0,,,,83,101
162841,note_on,0,0,1,,,,,,,,,0,,,,86,101
162845,note_on,0,0,3,,,,,,,,,2,,,,71,101
162845,note_on,32,0,3,,,,,,,,,2,,,,74,101
162865,control_change,40,0,11,,,,,,,,,10,11,80,,,
162867,control_change,72,0,5,,,,,,,,,4,11,89,,,
162868,control_change,72,0,6,,,,,,,,,5,11,89,,,
162868,control_change,40,0,12,,,,,,,,,11,11,80,,,
162870,control_change,29,0,1,,,,,,,,,0,11,64,,,
162873,control_change,61,0,2,,,,,,,,,1,11,64,,,
162873,control_change,40,0,13,,,,,,,,,12,11,80,,,
162874,control_change,29,0,3,,,,,,,,,2,11,64,,,
162877,control_change,40,0,14,,,,,,,,,13,11,80,,,
162878,control_change,61,0,4,,,,,,,,,3,11,69,,,
162879,control_change,40,0,15,,,,,,,,,14,11,80,,,
162901,note_on,31,0,1,,,,,,,,,0,,,,86,0
162901,note_on,0,0,1,,,,,,,,,0,,,,83,0
162905,note_on,31,0,3,,,,,,,,,2,,,,71,0
162905,note_on,0,0,3,,,,,,,,,2,,,,74,0
162906,control_change,41,0,11,,,,,,,,,10,11,81,,,
162909,control_change,41,0,12,,,,,,,,,11,11,81,,,
162914,control_change,41,0,13,,,,,,,,,12,11,81,,,
162918,control_change,41,0,14,,,,,,,,,13,11,81,,,
162920,control_change,41,0,15,,,,,,,,,14,11,81,,,
162931,control_change,30,0,1,,,,,,,,,0,11,65,,,
162934,control_change,61,0,2,,,,,,,,,1,11,65,,,
162935,control_change,30,0,3,,,,,,,,,2,11,65,,,
162939,control_change,61,0,4,,,,,,,,,3,11,70,,,
162939,control_change,72,0,5,,,,,,,,,4,11,90,,,
162940,control_change,72,0,6,,,,,,,,,5,11,90,,,
162947,control_change,41,0,11,,,,,,,,,10,11,82,,,
162950,control_change,41,0,12,,,,,,,,,11,11,82,,,
162955,control_change,41,0,13,,,,,,,,,12,11,82,,,
162959,control_change,41,0,14,,,,,,,,,13,11,82,,,
162960,note_on,13,0,11,,,,,,,,,10,,,,71,0
162960,note_on,0,0,11,,,,,,,,,10,,,,67,112
162960,set_tempo,240,1,0,,,,,,285714,,,,,,,,
162961,note_on,0,0,1,,,,,,,,,0,,,,83,101
162961,note_on,30,0,1,,,,,,,,,0,,,,86,101
162961,control_change,41,0,15,,,,,,,,,14,11,82,,,
162963,note_on,13,0,12,,,,,,,,,11,,,,71,0
162963,note_on,0,0,12,,,,,,,,,11,,,,67,112
162965,note_on,0,0,3,,,,,,,,,2,,,,74,101
162965,note_on,30,0,3,,,,,,,,,2,,,,71,101
162968,note_on,13,0,13,,,,,,,,,12,,,,59,0
162968,note_on,0,0,13,,,,,,,,,12,,,,55,112
162972,note_on,0,0,14,,,,,,,,,13,,,,55,112
162972,note_on,13,0,14,,,,,,,,,13,,,,59,0
162974,note_on,13,0,15,,,,,,,,,14,,,,47,0
162974,note_on,0,0,15,,,,,,,,,14,,,,43,112
162987,control_change,27,0,11,,,,,,,,,10,11,83,,,
162990,control_change,27,0,12,,,,,,,,,11,11,83,,,
162992,control_change,31,0,1,,,,,,,,,0,11,66,,,
162995,control_change,61,0,2,,,,,,,,,1,11,66,,,
162995,control_change,27,0,13,,,,,,,,,12,11,83,,,
162996,control_change,31,0,3,,,,,,,,,2,11,66,,,
162999,control_change,27,0,14,,,,,,,,,13,11,83,,,
163000,control_change,61,0,4,,,,,,,,,3,11,71,,,
163001,control_change,27,0,15,,,,,,,,,14,11,83,,,
163011,control_change,72,0,5,,,,,,,,,4,11,91,,,
163012,control_change,72,0,6,,,,,,,,,5,11,91,,,
163021,note_on,0,0,1,,,,,,,,,0,,,,86,0
163021,note_on,29,0,1,,,,,,,,,0,,,,83,0
163025,note_on,0,0,3,,,,,,,,,2,,,,71,0
163025,note_on,29,0,3,,,,,,,,,2,,,,74,0
163028,control_change,41,0,11,,,,,,,,,10,11,84,,,
163031,control_change,41,0,12,,,,,,,,,11,11,84,,,
163036,control_change,41,0,13,,,,,,,,,12,11,84,,,
163040,control_change,41,0,14,,,,,,,,,13,11,84,,,
163042,control_change,41,0,15,,,,,,,,,14,11,84,,,
163053,control_change,32,0,1,,,,,,,,,0,11,67,,,
163056,control_change,61,0,2,,,,,,,,,1,11,67,,,
163057,control_change,32,0,3,,,,,,,,,2,11,67,,,
163061,control_change,61,0,4,,,,,,,,,3,11,72,,,
163068,control_change,40,0,11,,,,,,,,,10,11,85,,,
163070,note_on,2,0,11,,,,,,,,,10,,,,67,0
163071,control_change,40,0,12,,,,,,,,,11,11,85,,,
163073,note_on,62,0,5,,,,,,,,,4,,,,67,0
163073,note_on,2,0,12,,,,,,,,,11,,,,67,0
163074,note_on,62,0,6,,,,,,,,,5,,,,55,0
163076,control_change,40,0,13,,,,,,,,,12,11,85,,,
163078,note_on,2,0,13,,,,,,,,,12,,,,55,0
163080,note_on,10,0,11,,,,,,,,,10,,,,64,127
163080,control_change,40,0,14,,,,,,,,,13,11,85,,,
163080,set_tempo,120,1,0,,,,,,259179,,,,,,,,
163081,note_on,28,0,1,,,,,,,,,0,,,,88,116
163081,note_on,0,0,1,,,,,,,,,0,,,,91,101
163082,control_change,40,0,15,,,,,,,,,14,11,85,,,
163082,note_on,2,0,14,,,,,,,,,13,,,,55,0
163083,note_on,0,0,5,,,,,,,,,4,,,,64,100
163083,control_change,10,0,5,,,,,,,,,4,11,92,,,
163083,note_on,10,0,12,,,,,,,,,11,,,,64,127
163084,note_on,0,0,6,,,,,,,,,5,,,,64,100
163084,note_on,28,0,2,,,,,,,,,1,,,,83,0
163084,note_on,0,0,2,,,,,,,,,1,,,,74,0
163084,note_on,0,0,2,,,,,,,,,1,,,,83,115
163084,note_on,0,0,2,,,,,,,,,1,,,,79,100
163084,control_change,10,0,6,,,,,,,,,5,11,92,,,
163084,note_on,2,0,15,,,,,,,,,14,,,,43,0
163085,note_on,28,0,3,,,,,,,,,2,,,,79,101
163085,note_on,0,0,3,,,,,,,,,2,,,,71,116
163088,note_on,10,0,13,,,,,,,,,12,,,,64,127
163089,note_on,28,0,4,,,,,,,,,3,,,,62,0
163089,note_on,0,0,4,,,,,,,,,3,,,,59,0
163089,note_on,0,0,4,,,,,,,,,3,,,,67,115
163089,note_on,0,0,4,,,,,,,,,3,,,,59,115
163092,note_on,10,0,14,,,,,,,,,13,,,,64,127
163094,note_on,10,0,15,,,,,,,,,14,,,,52,127
163109,control_change,29,0,11,,,,,,,,,10,11,86,,,
163111,note_on,30,0,1,,,,,,,,,0,,,,91,0
163112,control_change,29,0,12,,,,,,,,,11,11,86,,,
163114,note_on,30,0,2,,,,,,,,,1,,,,79,0
163114,control_change,3,0,1,,,,,,,,,0,11,67,,,
163115,note_on,30,0,3,,,,,,,,,2,,,,79,0
163117,control_change,29,0,13,,,,,,,,,12,11,86,,,
163117,control_change,3,0,2,,,,,,,,,1,11,67,,,
163118,control_change,3,0,3,,,,,,,,,2,11,67,,,
163121,control_change,29,0,14,,,,,,,,,13,11,86,,,
163122,control_change,33,0,4,,,,,,,,,3,11,73,,,
163123,control_change,29,0,15,,,,,,,,,14,11,86,,,
163141,note_on,27,0,1,,,,,,,,,0,,,,91,101
163144,note_on,27,0,2,,,,,,,,,1,,,,79,100
163145,note_on,27,0,3,,,,,,,,,2,,,,79,101
163150,control_change,41,0,11,,,,,,,,,10,11,87,,,
163153,control_change,41,0,12,,,,,,,,,11,11,87,,,
163155,control_change,72,0,5,,,,,,,,,4,11,93,,,
163156,control_change,72,0,6,,,,,,,,,5,11,93,,,
163158,control_change,41,0,13,,,,,,,,,12,11,87,,,
163162,control_change,41,0,14,,,,,,,,,13,11,87,,,
163164,control_change,41,0,15,,,,,,,,,14,11,87,,,
163171,note_on,30,0,1,,,,,,,,,0,,,,91,0
163175,note_on,30,0,3,,,,,,,,,2,,,,79,0
163175,control_change,4,0,1,,,,,,,,,0,11,68,,,
163178,control_change,34,0,2,,,,,,,,,1,11,68,,,
163179,control_change,4,0,3,,,,,,,,,2,11,68,,,
163183,control_change,61,0,4,,,,,,,,,3,11,74,,,
163190,control_change,40,0,11,,,,,,,,,10,11,87,,,
163193,control_change,40,0,12,,,,,,,,,11,11,87,,,
163198,control_change,40,0,13,,,,,,,,,12,11,87,,,
163201,note_on,26,0,1,,,,,,,,,0,,,,93,101
163202,control_change,40,0,14,,,,,,,,,13,11,87,,,
163204,control_change,40,0,15,,,,,,,,,14,11,87,,,
163204,note_on,26,0,2,,,,,,,,,1,,,,79,0
163204,note_on,0,0,2,,,,,,,,,1,,,,81,100
163205,note_on,26,0,3,,,,,,,,,2,,,,81,101
163227,control_change,72,0,5,,,,,,,,,4,11,94,,,
163228,control_change,72,0,6,,,,,,,,,5,11,94,,,
163231,control_change,41,0,11,,,,,,,,,10,11,88,,,
163234,control_change,41,0,12,,,,,,,,,11,11,88,,,
163236,control_change,35,0,1,,,,,,,,,0,11,69,,,
163239,control_change,41,0,13,,,,,,,,,12,11,88,,,
163239,control_change,35,0,2,,,,,,,,,1,11,69,,,
163240,control_change,35,0,3,,,,,,,,,2,11,69,,,
163243,control_change,41,0,14,,,,,,,,,13,11,88,,,
163244,control_change,61,0,4,,,,,,,,,3,11,75,,,
163245,control_change,41,0,15,,,,,,,,,14,11,88,,,
163261,note_on,25,0,1,,,,,,,,,0,,,,93,0
163261,note_on,0,0,1,,,,,,,,,0,,,,91,101
163264,note_on,25,0,2,,,,,,,,,1,,,,81,0
163264,note_on,0,0,2,,,,,,,,,1,,,,79,100
163265,note_on,25,0,3,,,,,,,,,2,,,,81,0
163265,note_on,0,0,3,,,,,,,,,2,,,,79,101
163272,control_change,41,0,11,,,,,,,,,10,11,89,,,
163275,control_change,41,0,12,,,,,,,,,11,11,89,,,
163280,control_change,41,0,13,,,,,,,,,12,11,89,,,
163284,control_change,41,0,14,,,,,,,,,13,11,89,,,
163286,control_change,41,0,15,,,,,,,,,14,11,89,,,
163297,control_change,36,0,1,,,,,,,,,0,11,70,,,
163299,control_change,72,0,5,,,,,,,,,4,11,95,,,
163300,control_change,36,0,2,,,,,,,,,1,11,70,,,
163300,control_change,72,0,6,,,,,,,,,5,11,95,,,
163301,control_change,36,0,3,,,,,,,,,2,11,70,,,
163305,control_change,61,0,4,,,,,,,,,3,11,76,,,
163312,control_change,40,0,11,,,,,,,,,10,11,90,,,
163315,control_change,40,0,12,,,,,,,,,11,11,90,,,
163320,note_on,0,0,11,,,,,,,,,10,,,,71,112
163320,note_on,8,0,11,,,,,,,,,10,,,,64,0
163320,control_change,40,0,13,,,,,,,,,12,11,90,,,
163320,set_tempo,240,1,0,,,,,,285714,,,,,,,,
163321,note_on,24,0,1,,,,,,,,,0,,,,91,0
163321,note_on,0,0,1,,,,,,,,,0,,,,93,101
163323,note_on,0,0,12,,,,,,,,,11,,,,71,112
163323,note_on,8,0,12,,,,,,,,,11,,,,64,0
163324,control_change,40,0,14,,,,,,,,,13,11,90,,,
163324,note_on,0,0,2,,,,,,,,,1,,,,81,100
163324,note_on,24,0,2,,,,,,,,,1,,,,79,0
163325,note_on,0,0,3,,,,,,,,,2,,,,81,101
163325,note_on,24,0,3,,,,,,,,,2,,,,79,0
163326,control_change,40,0,15,,,,,,,,,14,11,90,,,
163327,program_change,7,0,13,,,,,,,,48,12,,,,,
163328,note_on,0,0,13,,,,,,,,,12,,,,59,112
163328,note_on,1,0,13,,,,,,,,,12,,,,64,0
163332,note_on,0,0,14,,,,,,,,,13,,,,59,112
163332,note_on,8,0,14,,,,,,,,,13,,,,64,0
163334,note_on,0,0,15,,,,,,,,,14,,,,47,112
163334,note_on,8,0,15,,,,,,,,,14,,,,52,0
163353,control_change,33,0,11,,,,,,,,,10,11,91,,,
163356,control_change,33,0,12,,,,,,,,,11,11,91,,,
163357,control_change,36,0,1,,,,,,,,,0,11,70,,,
163360,control_change,36,0,2,,,,,,,,,1,11,70,,,
163361,control_change,36,0,3,,,,,,,,,2,11,70,,,
163361,control_change,33,0,13,,,,,,,,,12,11,91,,,
163365,control_change,33,0,14,,,,,,,,,13,11,91,,,
163365,control_change,60,0,4,,,,,,,,,3,11,77,,,
163367,control_change,33,0,15,,,,,,,,,14,11,91,,,
163371,control_change,72,0,5,,,,,,,,,4,11,96,,,
163372,control_change,72,0,6,,,,,,,,,5,11,96,,,
163381,note_on,24,0,1,,,,,,,,,0,,,,93,0
163381,note_on,0,0,1,,,,,,,,,0,,,,91,101
163384,note_on,24,0,2,,,,,,,,,1,,,,81,0
163384,note_on,0,0,2,,,,,,,,,1,,,,79,100
163385,note_on,0,0,3,,,,,,,,,2,,,,79,101
163385,note_on,24,0,3,,,,,,,,,2,,,,81,0
163393,control_change,40,0,11,,,,,,,,,10,11,92,,,
163396,control_change,40,0,12,,,,,,,,,11,11,92,,,
163401,control_change,40,0,13,,,,,,,,,12,11,92,,,
163405,control_change,40,0,14,,,,,,,,,13,11,92,,,
163407,control_change,40,0,15,,,,,,,,,14,11,92,,,
163418,control_change,37,0,1,,,,,,,,,0,11,71,,,
163421,control_change,37,0,2,,,,,,,,,1,11,71,,,
163422,control_change,37,0,3,,,,,,,,,2,11,71,,,
163426,control_change,61,0,4,,,,,,,,,3,11,78,,,
163430,note_on,37,0,11,,,,,,,,,10,,,,71,0
163433,note_on,37,0,12,,,,,,,,,11,,,,71,0
163433,note_on,62,0,5,,,,,,,,,4,,,,64,0
163434,control_change,4,0,11,,,,,,,,,10,11,93,,,
163434,note_on,62,0,6,,,,,,,,,5,,,,64,0
163437,control_change,4,0,12,,,,,,,,,11,11,93,,,
163438,note_on,37,0,13,,,,,,,,,12,,,,59,0
163440,note_on,6,0,11,,,,,,,,,10,,,,67,112
163440,set_tempo,120,1,0,,,,,,259179,,,,,,,,
163441,note_on,23,0,1,,,,,,,,,0,,,,91,0
163441,note_on,0,0,1,,,,,,,,,0,,,,88,0
163441,note_on,0,0,1,,,,,,,,,0,,,,91,101
163441,note_on,0,0,1,,,,,,,,,0,,,,88,101
163442,note_on,37,0,14,,,,,,,,,13,,,,59,0
163442,control_change,4,0,13,,,,,,,,,12,11,93,,,
163443,note_on,0,0,5,,,,,,,,,4,,,,64,100
163443,note_on,6,0,12,,,,,,,,,11,,,,67,112
163443,control_change,10,0,5,,,,,,,,,4,11,97,,,
163444,note_on,0,0,6,,,,,,,,,5,,,,64,100
163444,control_change,10,0,6,,,,,,,,,5,11,97,,,
163444,note_on,37,0,15,,,,,,,,,14,,,,47,0
163444,note_on,23,0,2,,,,,,,,,1,,,,79,0
163444,note_on,0,0,2,,,,,,,,,1,,,,83,0
163444,note_on,0,0,2,,,,,,,,,1,,,,79,100
163444,note_on,0,0,2,,,,,,,,,1,,,,83,100
163445,note_on,23,0,3,,,,,,,,,2,,,,79,0
163445,note_on,0,0,3,,,,,,,,,2,,,,79,101
163445,note_on,0,0,3,,,,,,,,,2,,,,71,101
163445,note_on,0,0,3,,,,,,,,,2,,,,71,0
163446,control_change,4,0,14,,,,,,,,,13,11,93,,,
163448,control_change,4,0,15,,,,,,,,,14,11,93,,,
163448,note_on,6,0,13,,,,,,,,,12,,,,55,112
163449,note_on,0,0,4,,,,,,,,,3,,,,67,0
163449,note_on,23,0,4,,,,,,,,,3,,,,59,0
163449,note_on,0,0,4,,,,,,,,,3,,,,67,100
163449,note_on,0,0,4,,,,,,,,,3,,,,59,100
163452,note_on,6,0,14,,,,,,,,,13,,,,55,112
163454,note_on,6,0,15,,,,,,,,,14,,,,43,112
163475,control_change,35,0,11,,,,,,,,,10,11,94,,,
163478,control_change,35,0,12,,,,,,,,,11,11,94,,,
163479,control_change,38,0,1,,,,,,,,,0,11,72,,,
163482,control_change,38,0,2,,,,,,,,,1,11,72,,,
163483,control_change,35,0,13,,,,,,,,,12,11,94,,,
163483,control_change,38,0,3,,,,,,,,,2,11,72,,,
163487,control_change,38,0,4,,,,,,,,,3,11,79,,,
163487,control_change,35,0,14,,,,,,,,,13,11,94,,,
163489,control_change,35,0,15,,,,,,,,,14,11,94,,,
163501,note_on,0,0,1,,,,,,,,,0,,,,91,0
163501,note_on,22,0,1,,,,,,,,,0,,,,88,0
163504,note_on,0,0,2,,,,,,,,,1,,,,83,0
163504,note_on,22,0,2,,,,,,,,,1,,,,79,0
163505,note_on,22,0,3,,,,,,,,,2,,,,79,0
163505,note_on,0,0,3,,,,,,,,,2,,,,71,0
163509,note_on,22,0,4,,,,,,,,,3,,,,59,0
163509,note_on,0,0,4,,,,,,,,,3,,,,67,0
163515,control_change,40,0,11,,,,,,,,,10,11,95,,,
163515,control_change,72,0,5,,,,,,,,,4,11,98,,,
163516,control_change,72,0,6,,,,,,,,,5,11,98,,,
163518,control_change,40,0,12,,,,,,,,,11,11,95,,,
163523,control_change,40,0,13,,,,,,,,,12,11,95,,,
163527,control_change,40,0,14,,,,,,,,,13,11,95,,,
163529,control_change,40,0,15,,,,,,,,,14,11,95,,,
163540,control_change,39,0,1,,,,,,,,,0,11,73,,,
163543,control_change,39,0,2,,,,,,,,,1,11,73,,,
163544,control_change,39,0,3,,,,,,,,,2,11,73,,,
163548,control_change,39,0,4,,,,,,,,,3,11,80,,,
163553,note_on,38,0,5,,,,,,,,,4,,,,64,0
163554,note_on,38,0,6,,,,,,,,,5,,,,64,0
163556,control_change,41,0,11,,,,,,,,,10,11,96,,,
163559,control_change,41,0,12,,,,,,,,,11,11,96,,,
163561,note_on,0,0,1,,,,,,,,,0,,,,88,101
163561,note_on,21,0,1,,,,,,,,,0,,,,91,101
163563,note_on,10,0,5,,,,,,,,,4,,,,64,100
163564,control_change,41,0,13,,,,,,,,,12,11,96,,,
163564,note_on,0,0,2,,,,,,,,,1,,,,79,100
163564,note_on,21,0,2,,,,,,,,,1,,,,83,100
163564,note_on,10,0,6,,,,,,,,,5,,,,64,100
163565,note_on,0,0,3,,,,,,,,,2,,,,71,101
163565,note_on,21,0,3,,,,,,,,,2,,,,79,101
163568,control_change,41,0,14,,,,,,,,,13,11,96,,,
163569,note_on,21,0,4,,,,,,,,,3,,,,67,100
163569,note_on,0,0,4,,,,,,,,,3,,,,59,100
163570,control_change,41,0,15,,,,,,,,,14,11,96,,,
163587,control_change,24,0,5,,,,,,,,,4,11,99,,,
163588,control_change,24,0,6,,,,,,,,,5,11,99,,,
163596,control_change,40,0,11,,,,,,,,,10,11,97,,,
163599,control_change,40,0,12,,,,,,,,,11,11,97,,,
163601,control_change,40,0,1,,,,,,,,,0,11,73,,,
163604,control_change,40,0,2,,,,,,,,,1,11,73,,,
163604,control_change,40,0,13,,,,,,,,,12,11,97,,,
163605,control_change,40,0,3,,,,,,,,,2,11,73,,,
163608,control_change,40,0,14,,,,,,,,,13,11,97,,,
163609,control_change,40,0,4,,,,,,,,,3,11,81,,,
163610,control_change,40,0,15,,,,,,,,,14,11,97,,,
163621,note_on,20,0,1,,,,,,,,,0,,,,88,0
163621,note_on,0,0,1,,,,,,,,,0,,,,91,0
163624,note_on,20,0,2,,,,,,,,,1,,,,79,0
163624,note_on,0,0,2,,,,,,,,,1,,,,83,0
163625,note_on,20,0,3,,,,,,,,,2,,,,71,0
163625,note_on,0,0,3,,,,,,,,,2,,,,79,0
163629,note_on,20,0,4,,,,,,,,,3,,,,59,0
163629,note_on,0,0,4,,,,,,,,,3,,,,67,0
163637,control_change,41,0,11,,,,,,,,,10,11,98,,,
163640,control_change,41,0,12,,,,,,,,,11,11,98,,,
163645,control_change,41,0,13,,,,,,,,,12,11,98,,,
163649,control_change,41,0,14,,,,,,,,,13,11,98,,,
163651,control_change,41,0,15,,,,,,,,,14,11,98,,,
163659,control_change,72,0,5,,,,,,,,,4,11,100,,,
163660,control_change,72,0,6,,,,,,,,,5,11,100,,,
163662,control_change,41,0,1,,,,,,,,,0,11,74,,,
163665,control_change,41,0,2,,,,,,,,,1,11,74,,,
163666,control_change,41,0,3,,,,,,,,,2,11,74,,,
163670,control_change,41,0,4,,,,,,,,,3,11,82,,,
163673,note_on,14,0,5,,,,,,,,,4,,,,64,0
163674,note_on,14,0,6,,,,,,,,,5,,,,64,0
163678,control_change,41,0,11,,,,,,,,,10,11,99,,,
163680,note_on,0,0,11,,,,,,,,,10,,,,64,112
163680,note_on,2,0,11,,,,,,,,,10,,,,67,0
163680,set_tempo,240,1,0,,,,,,285714,,,,,,,,
163681,note_on,0,0,1,,,,,,,,,0,,,,88,101
163681,note_on,19,0,1,,,,,,,,,0,,,,91,101
163681,control_change,41,0,12,,,,,,,,,11,11,99,,,
163683,note_on,2,0,12,,,,,,,,,11,,,,67,0
163683,note_on,10,0,5,,,,,,,,,4,,,,64,100
163683,note_on,0,0,12,,,,,,,,,11,,,,64,112
163684,note_on,10,0,6,,,,,,,,,5,,,,64,100
163684,note_on,19,0,2,,,,,,,,,1,,,,79,100
163684,note_on,0,0,2,,,,,,,,,1,,,,83,100
163685,note_on,19,0,3,,,,,,,,,2,,,,79,101
163685,note_on,0,0,3,,,,,,,,,2,,,,71,101
163686,control_change,41,0,13,,,,,,,,,12,11,99,,,
163688,note_on,0,0,13,,,,,,,,,12,,,,52,112
163688,note_on,2,0,13,,,,,,,,,12,,,,55,0
163689,note_on,0,0,4,,,,,,,,,3,,,,59,100
163689,note_on,19,0,4,,,,,,,,,3,,,,67,100
163690,control_change,41,0,14,,,,,,,,,13,11,99,,,
163692,note_on,0,0,14,,,,,,,,,13,,,,52,112
163692,note_on,2,0,14,,,,,,,,,13,,,,55,0
163692,control_change,41,0,15,,,,,,,,,14,11,99,,,
163694,note_on,2,0,15,,,,,,,,,14,,,,43,0
163694,note_on,0,0,15,,,,,,,,,14,,,,40,112
163718,control_change,38,0,11,,,,,,,,,10,11,100,,,
163721,control_change,38,0,12,,,,,,,,,11,11,100,,,
163723,control_change,42,0,1,,,,,,,,,0,11,75,,,
163726,control_change,38,0,13,,,,,,,,,12,11,100,,,
163726,control_change,42,0,2,,,,,,,,,1,11,75,,,
163727,control_change,42,0,3,,,,,,,,,2,11,75,,,
163730,control_change,38,0,14,,,,,,,,,13,11,100,,,
163731,control_change,48,0,5,,,,,,,,,4,11,101,,,
163731,control_change,42,0,4,,,,,,,,,3,11,83,,,
163732,control_change,38,0,15,,,,,,,,,14,11,100,,,
163732,control_change,48,0,6,,,,,,,,,5,11,101,,,
163741,note_on,0,0,1,,,,,,,,,0,,,,91,0
163741,note_on,18,0,1,,,,,,,,,0,,,,88,0
163744,note_on,0,0,2,,,,,,,,,1,,,,79,0
163744,note_on,18,0,2,,,,,,,,,1,,,,83,0
163745,note_on,0,0,3,,,,,,,,,2,,,,79,0
163745,note_on,18,0,3,,,,,,,,,2,,,,71,0
163749,note_on,18,0,4,,,,,,,,,3,,,,59,0
163749,note_on,0,0,4,,,,,,,,,3,,,,67,0
163759,control_change,41,0,11,,,,,,,,,10,11,101,,,
163762,control_change,41,0,12,,,,,,,,,11,11,101,,,
163767,control_change,41,0,13,,,,,,,,,12,11,101,,,
163771,control_change,41,0,14,,,,,,,,,13,11,101,,,
163773,control_change,41,0,15,,,,,,,,,14,11,101,,,
163784,control_change,43,0,1,,,,,,,,,0,11,76,,,
163787,control_change,43,0,2,,,,,,,,,1,11,76,,,
163788,control_change,43,0,3,,,,,,,,,2,11,76,,,
163790,note_on,31,0,11,,,,,,,,,10,,,,64,0
163792,control_change,43,0,4,,,,,,,,,3,11,84,,,
163793,note_on,31,0,12,,,,,,,,,11,,,,64,0
163793,note_on,62,0,5,,,,,,,,,4,,,,64,0
163794,note_on,62,0,6,,,,,,,,,5,,,,64,0
163798,note_on,31,0,13,,,,,,,,,12,,,,52,0
163800,control_change,0,0,11,,,,,,,,,10,11,102,,,
163800,note_on,10,0,11,,,,,,,,,10,,,,60,112
163800,set_tempo,120,1,0,,,,,,254237,,,,,,,,
163801,note_on,17,0,1,,,,,,,,,0,,,,91,101
163801,note_on,0,0,1,,,,,,,,,0,,,,88,101
163802,note_on,8520,0,7,,,,,,,,,6,,,,72,112
163802,note_on,0,0,7,,,,,,,,,6,,,,60,112
163802,control_change,0,0,7,,,,,,,,,6,11,102,,,
163802,note_on,31,0,14,,,,,,,,,13,,,,52,0
163803,control_change,0,0,5,,,,,,,,,4,11,102,,,
163803,control_change,0,0,12,,,,,,,,,11,11,102,,,
163803,note_on,10,0,5,,,,,,,,,4,,,,64,100
163803,note_on,10,0,12,,,,,,,,,11,,,,60,112
163804,note_on,31,0,15,,,,,,,,,14,,,,40,0
163804,note_on,17,0,2,,,,,,,,,1,,,,79,100
163804,control_change,0,0,6,,,,,,,,,5,11,102,,,
163804,note_on,0,0,2,,,,,,,,,1,,,,82,100
163804,note_on,10,0,6,,,,,,,,,5,,,,60,100
163805,note_on,17,0,3,,,,,,,,,2,,,,70,101
163805,note_on,0,0,3,,,,,,,,,2,,,,76,101
163807,control_change,8520,0,8,,,,,,,,,7,11,102,,,
163807,note_on,0,0,8,,,,,,,,,7,,,,55,110
163807,note_on,0,0,8,,,,,,,,,7,,,,64,110
163808,control_change,0,0,13,,,,,,,,,12,11,102,,,
163808,note_on,10,0,13,,,,,,,,,12,,,,48,112
163809,note_on,0,0,4,,,,,,,,,3,,,,67,100
163809,note_on,17,0,4,,,,,,,,,3,,,,58,100
163812,control_change,10,0,14,,,,,,,,,13,11,102,,,
163812,note_on,0,0,14,,,,,,,,,13,,,,48,112
163813,note_on,0,0,9,,,,,,,,,8,,,,48,110
163813,control_change,8520,0,9,,,,,,,,,8,11,102,,,
163814,control_change,0,0,15,,,,,,,,,14,11,102,,,
163814,note_on,10,0,15,,,,,,,,,14,,,,36,112
163815,note_on,8520,0,10,,,,,,,,,15,,,,48,100
163830,note_on,30,0,11,,,,,,,,,10,,,,60,0
163833,note_on,30,0,12,,,,,,,,,11,,,,60,0
163838,note_on,30,0,13,,,,,,,,,12,,,,48,0
163842,note_on,30,0,14,,,,,,,,,13,,,,48,0
163844,note_on,30,0,15,,,,,,,,,14,,,,36,0
163845,control_change,44,0,1,,,,,,,,,0,11,76,,,
163848,control_change,44,0,2,,,,,,,,,1,11,76,,,
163849,control_change,44,0,3,,,,,,,,,2,11,76,,,
163853,control_change,44,0,4,,,,,,,,,3,11,85,,,
163860,note_on,30,0,11,,,,,,,,,10,,,,60,112
163863,note_on,30,0,12,,,,,,,,,11,,,,60,112
163868,note_on,30,0,13,,,,,,,,,12,,,,48,112
163872,note_on,30,0,14,,,,,,,,,13,,,,48,112
163874,note_on,30,0,15,,,,,,,,,14,,,,36,112
163890,note_on,30,0,11,,,,,,,,,10,,,,60,0
163893,note_on,30,0,12,,,,,,,,,11,,,,60,0
163898,note_on,30,0,13,,,,,,,,,12,,,,48,0
163902,note_on,30,0,14,,,,,,,,,13,,,,48,0
163904,note_on,30,0,15,,,,,,,,,14,,,,36,0
163906,control_change,61,0,1,,,,,,,,,0,11,77,,,
163909,control_change,61,0,2,,,,,,,,,1,11,77,,,
163910,control_change,61,0,3,,,,,,,,,2,11,77,,,
163914,control_change,61,0,4,,,,,,,,,3,11,86,,,
163920,note_on,30,0,11,,,,,,,,,10,,,,62,112
163920,set_tempo,120,1,0,,,,,,263158,,,,,,,,
163922,note_on,120,0,7,,,,,,,,,6,,,,60,0
163922,note_on,0,0,7,,,,,,,,,6,,,,72,0
163923,note_on,30,0,12,,,,,,,,,11,,,,62,112
163928,note_on,30,0,13,,,,,,,,,12,,,,50,112
163932,note_on,30,0,14,,,,,,,,,13,,,,50,112
163934,note_on,30,0,15,,,,,,,,,14,,,,38,112
163935,note_on,120,0,10,,,,,,,,,15,,,,48,0
163950,note_on,30,0,11,,,,,,,,,10,,,,62,0
163953,note_on,30,0,12,,,,,,,,,11,,,,62,0
163958,note_on,30,0,13,,,,,,,,,12,,,,50,0
163962,note_on,30,0,14,,,,,,,,,13,,,,50,0
163964,note_on,30,0,15,,,,,,,,,14,,,,38,0
163967,control_change,61,0,1,,,,,,,,,0,11,78,,,
163970,control_change,61,0,2,,,,,,,,,1,11,78,,,
163971,control_change,61,0,3,,,,,,,,,2,11,78,,,
163975,control_change,61,0,4,,,,,,,,,3,11,87,,,
163980,note_on,30,0,11,,,,,,,,,10,,,,60,112
163983,note_on,30,0,12,,,,,,,,,11,,,,60,112
163988,note_on,30,0,13,,,,,,,,,12,,,,48,112
163992,note_on,30,0,14,,,,,,,,,13,,,,48,112
163994,note_on,30,0,15,,,,,,,,,14,,,,36,112
164010,note_on,30,0,11,,,,,,,,,10,,,,60,0
164013,note_on,30,0,12,,,,,,,,,11,,,,60,0
164018,note_on,30,0,13,,,,,,,,,12,,,,48,0
164022,note_on,30,0,14,,,,,,,,,13,,,,48,0
164024,note_on,30,0,15,,,,,,,,,14,,,,36,0
164028,control_change,61,0,1,,,,,,,,,0,11,79,,,
164031,control_change,61,0,2,,,,,,,,,1,11,79,,,
164032,control_change,61,0,3,,,,,,,,,2,11,79,,,
164036,control_change,61,0,4,,,,,,,,,3,11,88,,,
164040,note_on,30,0,11,,,,,,,,,10,,,,62,112
164040,set_tempo,120,1,0,,,,,,288462,,,,,,,,
164043,note_on,30,0,12,,,,,,,,,11,,,,62,112
164048,note_on,30,0,13,,,,,,,,,12,,,,50,112
164052,note_on,30,0,14,,,,,,,,,13,,,,50,112
164054,note_on,30,0,15,,,,,,,,,14,,,,38,112
164070,note_on,30,0,11,,,,,,,,,10,,,,62,0
164073,note_on,30,0,12,,,,,,,,,11,,,,62,0
164078,note_on,30,0,13,,,,,,,,,12,,,,50,0
164082,note_on,30,0,14,,,,,,,,,13,,,,50,0
164084,note_on,30,0,15,,,,,,,,,14,,,,38,0
164089,control_change,61,0,1,,,,,,,,,0,11,80,,,
164092,control_change,61,0,2,,,,,,,,,1,11,80,,,
164093,control_change,61,0,3,,,,,,,,,2,11,80,,,
164097,control_change,61,0,4,,,,,,,,,3,11,89,,,
164100,note_on,30,0,11,,,,,,,,,10,,,,60,112
164103,note_on,30,0,12,,,,,,,,,11,,,,60,112
164108,note_on,30,0,13,,,,,,,,,12,,,,48,112
164112,note_on,30,0,14,,,,,,,,,13,,,,48,112
164114,note_on,30,0,15,,,,,,,,,14,,,,36,112
164130,note_on,30,0,11,,,,,,,,,10,,,,60,0
164133,note_on,30,0,12,,,,,,,,,11,,,,60,0
164138,note_on,30,0,13,,,,,,,,,12,,,,48,0
164142,note_on,30,0,14,,,,,,,,,13,,,,48,0
164144,note_on,30,0,15,,,,,,,,,14,,,,36,0
164149,control_change,60,0,1,,,,,,,,,0,11,80,,,
164152,control_change,60,0,2,,,,,,,,,1,11,80,,,
164153,control_change,60,0,3,,,,,,,,,2,11,80,,,
164153,note_on,350,0,5,,,,,,,,,4,,,,64,0
164154,note_on,350,0,6,,,,,,,,,5,,,,60,0
164157,note_on,350,0,8,,,,,,,,,7,,,,64,0
164157,note_on,0,0,8,,,,,,,,,7,,,,55,0
164157,control_change,60,0,4,,,,,,,,,3,11,90,,,
164160,set_tempo,120,1,0,,,,,,254237,,,,,,,,
164160,note_on,30,0,11,,,,,,,,,10,,,,66,112
164161,note_on,12,0,1,,,,,,,,,0,,,,88,0
164161,note_on,0,0,1,,,,,,,,,0,,,,87,116
164161,note_on,0,0,1,,,,,,,,,0,,,,93,116
164161,note_on,0,0,1,,,,,,,,,0,,,,91,0
164162,note_on,0,0,7,,,,,,,,,6,,,,72,127
164162,note_on,240,0,7,,,,,,,,,6,,,,60,127
164163,note_on,10,0,5,,,,,,,,,4,,,,60,115
164163,note_on,350,0,9,,,,,,,,,8,,,,48,0
164163,note_on,30,0,12,,,,,,,,,11,,,,66,112
164164,note_on,12,0,2,,,,,,,,,1,,,,82,0
164164,note_on,10,0,6,,,,,,,,,5,,,,60,115
164164,note_on,0,0,2,,,,,,,,,1,,,,75,115
164164,note_on,0,0,2,,,,,,,,,1,,,,81,115
164164,note_on,0,0,2,,,,,,,,,1,,,,79,0
164165,note_on,12,0,3,,,,,,,,,2,,,,76,0
164165,note_on,0,0,3,,,,,,,,,2,,,,70,0
164165,note_on,0,0,3,,,,,,,,,2,,,,69,116
164165,note_on,0,0,3,,,,,,,,,2,,,,75,116
164167,note_on,10,0,8,,,,,,,,,7,,,,63,125
164167,note_on,0,0,8,,,,,,,,,7,,,,57,125
164168,note_on,30,0,13,,,,,,,,,12,,,,54,112
164169,note_on,12,0,4,,,,,,,,,3,,,,67,0
164169,note_on,0,0,4,,,,,,,,,3,,,,58,0
164169,note_on,0,0,4,,,,,,,,,3,,,,63,115
164169,note_on,0,0,4,,,,,,,,,3,,,,60,115
164172,note_on,30,0,14,,,,,,,,,13,,,,54,112
164173,note_on,10,0,9,,,,,,,,,8,,,,54,125
164174,note_on,30,0,15,,,,,,,,,14,,,,42,112
164175,note_on,240,0,10,,,,,,,,,15,,,,48,85
164205,note_on,30,0,10,,,,,,,,,15,,,,48,0
164205,note_on,0,0,10,,,,,,,,,15,,,,48,85
164210,control_change,49,0,1,,,,,,,,,0,11,81,,,
164213,control_change,49,0,2,,,,,,,,,1,11,81,,,
164214,control_change,49,0,3,,,,,,,,,2,11,81,,,
164218,control_change,49,0,4,,,,,,,,,3,11,91,,,
164220,note_on,60,0,11,,,,,,,,,10,,,,66,0
164223,note_on,60,0,12,,,,,,,,,11,,,,66,0
164228,note_on,60,0,13,,,,,,,,,12,,,,54,0
164232,note_on,60,0,14,,,,,,,,,13,,,,54,0
164234,note_on,60,0,15,,,,,,,,,14,,,,42,0
164235,note_on,0,0,10,,,,,,,,,15,,,,48,85
164235,note_on,30,0,10,,,,,,,,,15,,,,48,0
164265,note_on,30,0,10,,,,,,,,,15,,,,48,0
164265,note_on,0,0,10,,,,,,,,,15,,,,48,85
164271,control_change,61,0,1,,,,,,,,,0,11,82,,,
164274,control_change,61,0,2,,,,,,,,,1,11,82,,,
164275,control_change,61,0,3,,,,,,,,,2,11,82,,,
164279,control_change,61,0,4,,,,,,,,,3,11,92,,,
164280,note_on,60,0,11,,,,,,,,,10,,,,66,112
164280,set_tempo,120,1,0,,,,,,263158,,,,,,,,
164283,note_on,60,0,12,,,,,,,,,11,,,,66,112
164288,note_on,60,0,13,,,,,,,,,12,,,,54,112
164292,note_on,60,0,14,,,,,,,,,13,,,,54,112
164294,note_on,60,0,15,,,,,,,,,14,,,,42,112
164295,note_on,30,0,10,,,,,,,,,15,,,,48,0
164295,note_on,0,0,10,,,,,,,,,15,,,,48,85
164325,note_on,30,0,10,,,,,,,,,15,,,,48,0
164325,note_on,0,0,10,,,,,,,,,15,,,,48,85
164332,control_change,61,0,1,,,,,,,,,0,11,83,,,
164335,control_change,61,0,2,,,,,,,,,1,11,83,,,
164336,control_change,61,0,3,,,,,,,,,2,11,83,,,
164340,control_change,61,0,4,,,,,,,,,3,11,93,,,
164340,note_on,60,0,11,,,,,,,,,10,,,,66,0
164343,note_on,60,0,12,,,,,,,,,11,,,,66,0
164348,note_on,60,0,13,,,,,,,,,12,,,,54,0
164352,note_on,60,0,14,,,,,,,,,13,,,,54,0
164354,note_on,60,0,15,,,,,,,,,14,,,,42,0
164355,note_on,0,0,10,,,,,,,,,15,,,,48,85
164355,note_on,30,0,10,,,,,,,,,15,,,,48,0
164385,note_on,30,0,10,,,,,,,,,15,,,,48,0
164385,note_on,0,0,10,,,,,,,,,15,,,,48,85
164393,control_change,61,0,1,,,,,,,,,0,11,83,,,
164396,control_change,61,0,2,,,,,,,,,1,11,83,,,
164397,control_change,61,0,3,,,,,,,,,2,11,83,,,
164400,set_tempo,120,1,0,,,,,,288462,,,,,,,,
164400,note_on,60,0,11,,,,,,,,,10,,,,66,112
164401,control_change,61,0,4,,,,,,,,,3,11,94,,,
164403,note_on,60,0,12,,,,,,,,,11,,,,66,112
164408,note_on,60,0,13,,,,,,,,,12,,,,54,112
164412,note_on,60,0,14,,,,,,,,,13,,,,54,112
164414,note_on,60,0,15,,,,,,,,,14,,,,42,112
164415,note_on,0,0,10,,,,,,,,,15,,,,48,85
164415,note_on,30,0,10,,,,,,,,,15,,,,48,0
164445,note_on,0,0,10,,,,,,,,,15,,,,48,85
164445,note_on,30,0,10,,,,,,,,,15,,,,48,0
164454,control_change,61,0,1,,,,,,,,,0,11,84,,,
164457,control_change,61,0,2,,,,,,,,,1,11,84,,,
164458,control_change,61,0,3,,,,,,,,,2,11,84,,,
164460,note_on,60,0,11,,,,,,,,,10,,,,66,0
164462,control_change,61,0,4,,,,,,,,,3,11,95,,,
164463,note_on,60,0,12,,,,,,,,,11,,,,66,0
164468,note_on,60,0,13,,,,,,,,,12,,,,54,0
164472,note_on,60,0,14,,,,,,,,,13,,,,54,0
164474,note_on,60,0,15,,,,,,,,,14,,,,42,0
164475,note_on,0,0,10,,,,,,,,,15,,,,48,85
164475,note_on,30,0,10,,,,,,,,,15,,,,48,0
164505,note_on,0,0,10,,,,,,,,,15,,,,48,85
164505,note_on,30,0,10,,,,,,,,,15,,,,48,0
164512,note_on,0,0,7,,,,,,,,,6,,,,60,0
164512,note_on,350,0,7,,,,,,,,,6,,,,72,0
164513,note_on,350,0,5,,,,,,,,,4,,,,60,0
164514,note_on,350,0,6,,,,,,,,,5,,,,60,0
164515,control_change,61,0,1,,,,,,,,,0,11,85,,,
164517,note_on,0,0,8,,,,,,,,,7,,,,63,0
164517,note_on,350,0,8,,,,,,,,,7,,,,57,0
164518,control_change,61,0,2,,,,,,,,,1,11,85,,,
164519,control_change,61,0,3,,,,,,,,,2,11,85,,,
164520,note_on,60,0,11,,,,,,,,,10,,,,55,112
164520,set_tempo,120,1,0,,,,,,254237,,,,,,,,
164521,note_on,0,0,1,,,,,,,,,0,,,,83,101
164521,note_on,0,0,1,,,,,,,,,0,,,,87,0
164521,note_on,6,0,1,,,,,,,,,0,,,,93,0
164521,note_on,0,0,1,,,,,,,,,0,,,,77,101
164522,note_on,0,0,7,,,,,,,,,6,,,,67,112
164522,note_on,10,0,7,,,,,,,,,6,,,,55,112
164523,note_on,350,0,9,,,,,,,,,8,,,,54,0
164523,note_on,10,0,5,,,,,,,,,4,,,,65,100
164523,control_change,61,0,4,,,,,,,,,3,11,96,,,
164523,note_on,60,0,12,,,,,,,,,11,,,,55,112
164524,note_on,10,0,6,,,,,,,,,5,,,,62,100
164524,note_on,0,0,2,,,,,,,,,1,,,,83,100
164524,note_on,0,0,2,,,,,,,,,1,,,,74,100
164524,note_on,0,0,2,,,,,,,,,1,,,,81,0
164524,note_on,6,0,2,,,,,,,,,1,,,,75,0
164525,note_on,6,0,3,,,,,,,,,2,,,,75,0
164525,note_on,0,0,3,,,,,,,,,2,,,,71,101
164525,note_on,0,0,3,,,,,,,,,2,,,,74,101
164525,note_on,0,0,3,,,,,,,,,2,,,,69,0
164527,note_on,10,0,8,,,,,,,,,7,,,,62,110
164527,note_on,0,0,8,,,,,,,,,7,,,,59,110
164528,note_on,60,0,13,,,,,,,,,12,,,,55,112
164529,note_on,0,0,4,,,,,,,,,3,,,,63,0
164529,note_on,0,0,4,,,,,,,,,3,,,,59,100
164529,note_on,6,0,4,,,,,,,,,3,,,,60,0
164529,note_on,0,0,4,,,,,,,,,3,,,,62,100
164532,note_on,60,0,14,,,,,,,,,13,,,,55,112
164533,note_on,10,0,9,,,,,,,,,8,,,,55,110
164534,note_on,60,0,15,,,,,,,,,14,,,,43,112
164535,note_on,30,0,10,,,,,,,,,15,,,,48,0
164535,note_on,0,0,10,,,,,,,,,15,,,,43,100
164550,note_on,30,0,11,,,,,,,,,10,,,,55,0
164553,note_on,30,0,12,,,,,,,,,11,,,,55,0
164558,note_on,30,0,13,,,,,,,,,12,,,,55,0
164562,note_on,30,0,14,,,,,,,,,13,,,,55,0
164564,note_on,30,0,15,,,,,,,,,14,,,,43,0
164576,control_change,55,0,1,,,,,,,,,0,11,86,,,
164579,control_change,55,0,2,,,,,,,,,1,11,86,,,
164580,note_on,30,0,11,,,,,,,,,10,,,,55,112
164580,control_change,55,0,3,,,,,,,,,2,11,86,,,
164581,note_on,0,0,1,,,,,,,,,0,,,,83,0
164581,note_on,5,0,1,,,,,,,,,0,,,,77,0
164583,note_on,30,0,12,,,,,,,,,11,,,,55,112
164584,control_change,55,0,4,,,,,,,,,3,11,97,,,
164584,note_on,0,0,2,,,,,,,,,1,,,,74,0
164584,note_on,5,0,2,,,,,,,,,1,,,,83,0
164585,note_on,5,0,3,,,,,,,,,2,,,,74,0
164585,note_on,0,0,3,,,,,,,,,2,,,,71,0
164588,note_on,30,0,13,,,,,,,,,12,,,,55,112
164589,note_on,5,0,4,,,,,,,,,3,,,,62,0
164589,note_on,0,0,4,,,,,,,,,3,,,,59,0
164592,note_on,30,0,14,,,,,,,,,13,,,,55,112
164594,note_on,30,0,15,,,,,,,,,14,,,,43,112
164610,note_on,30,0,11,,,,,,,,,10,,,,55,0
164613,note_on,30,0,12,,,,,,,,,11,,,,55,0
164618,note_on,30,0,13,,,,,,,,,12,,,,55,0
164622,note_on,30,0,14,,,,,,,,,13,,,,55,0
164624,note_on,30,0,15,,,,,,,,,14,,,,43,0
164632,note_on,0,0,7,,,,,,,,,6,,,,55,0
164632,note_on,110,0,7,,,,,,,,,6,,,,67,0
164633,note_on,110,0,5,,,,,,,,,4,,,,65,0
164634,note_on,110,0,6,,,,,,,,,5,,,,62,0
164637,note_on,110,0,8,,,,,,,,,7,,,,59,0
164637,note_on,0,0,8,,,,,,,,,7,,,,62,0
164637,control_change,56,0,1,,,,,,,,,0,11,86,,,
164640,control_change,56,0,2,,,,,,,,,1,11,86,,,
164640,note_on,30,0,11,,,,,,,,,10,,,,57,112
164640,set_tempo,120,1,0,,,,,,263158,,,,,,,,
164641,note_on,0,0,1,,,,,,,,,0,,,,83,101
164641,note_on,4,0,1,,,,,,,,,0,,,,77,101
164641,control_change,56,0,3,,,,,,,,,2,11,86,,,
164642,note_on,10,0,7,,,,,,,,,6,,,,67,112
164642,note_on,0,0,7,,,,,,,,,6,,,,55,112
164643,note_on,10,0,5,,,,,,,,,4,,,,65,100
164643,note_on,110,0,9,,,,,,,,,8,,,,55,0
164643,note_on,30,0,12,,,,,,,,,11,,,,57,112
164644,note_on,10,0,6,,,,,,,,,5,,,,62,100
164644,note_on,0,0,2,,,,,,,,,1,,,,83,100
164644,note_on,4,0,2,,,,,,,,,1,,,,74,100
164645,control_change,56,0,4,,,,,,,,,3,11,98,,,
164645,note_on,0,0,3,,,,,,,,,2,,,,74,101
164645,note_on,4,0,3,,,,,,,,,2,,,,71,101
164647,note_on,0,0,8,,,,,,,,,7,,,,62,110
164647,note_on,10,0,8,,,,,,,,,7,,,,59,110
164648,note_on,30,0,13,,,,,,,,,12,,,,57,112
164649,note_on,0,0,4,,,,,,,,,3,,,,62,100
164649,note_on,4,0,4,,,,,,,,,3,,,,65,100
164652,note_on,30,0,14,,,,,,,,,13,,,,57,112
164653,note_on,10,0,9,,,,,,,,,8,,,,55,110
164654,note_on,30,0,15,,,,,,,,,14,,,,45,112
164655,note_on,120,0,10,,,,,,,,,15,,,,43,0
164655,note_on,0,0,10,,,,,,,,,15,,,,43,100
164670,note_on,30,0,11,,,,,,,,,10,,,,57,0
164673,note_on,30,0,12,,,,,,,,,11,,,,57,0
164678,note_on,30,0,13,,,,,,,,,12,,,,57,0
164682,note_on,30,0,14,,,,,,,,,13,,,,57,0
164684,note_on,30,0,15,,,,,,,,,14,,,,45,0
164698,control_change,57,0,1,,,,,,,,,0,11,87,,,
164700,note_on,30,0,11,,,,,,,,,10,,,,55,112
164701,note_on,0,0,1,,,,,,,,,0,,,,77,0
164701,note_on,3,0,1,,,,,,,,,0,,,,83,0
164701,control_change,57,0,2,,,,,,,,,1,11,87,,,
164702,control_change,57,0,3,,,,,,,,,2,11,87,,,
164703,note_on,30,0,12,,,,,,,,,11,,,,55,112
164704,note_on,0,0,2,,,,,,,,,1,,,,74,0
164704,note_on,3,0,2,,,,,,,,,1,,,,83,0
164705,note_on,3,0,3,,,,,,,,,2,,,,74,0
164705,note_on,0,0,3,,,,,,,,,2,,,,71,0
164706,control_change,57,0,4,,,,,,,,,3,11,99,,,
164708,note_on,30,0,13,,,,,,,,,12,,,,55,112
164709,note_on,0,0,4,,,,,,,,,3,,,,65,0
164709,note_on,3,0,4,,,,,,,,,3,,,,62,0
164712,note_on,30,0,14,,,,,,,,,13,,,,55,112
164714,note_on,30,0,15,,,,,,,,,14,,,,43,112
164730,note_on,30,0,11,,,,,,,,,10,,,,55,0
164733,note_on,30,0,12,,,,,,,,,11,,,,55,0
164738,note_on,30,0,13,,,,,,,,,12,,,,55,0
164742,note_on,30,0,14,,,,,,,,,13,,,,55,0
164744,note_on,30,0,15,,,,,,,,,14,,,,43,0
164752,note_on,110,0,7,,,,,,,,,6,,,,55,0
164752,note_on,0,0,7,,,,,,,,,6,,,,67,0
164753,note_on,110,0,5,,,,,,,,,4,,,,65,0
164754,note_on,110,0,6,,,,,,,,,5,,,,62,0
164757,note_on,110,0,8,,,,,,,,,7,,,,62,0
164757,note_on,0,0,8,,,,,,,,,7,,,,59,0
164759,control_change,58,0,1,,,,,,,,,0,11,88,,,
164760,note_on,30,0,11,,,,,,,,,10,,,,57,112
164760,set_tempo,120,1,0,,,,,,288462,,,,,,,,
164761,note_on,2,0,1,,,,,,,,,0,,,,83,101
164761,note_on,0,0,1,,,,,,,,,0,,,,77,101
164762,control_change,58,0,2,,,,,,,,,1,11,88,,,
164762,note_on,10,0,7,,,,,,,,,6,,,,67,112
164762,note_on,0,0,7,,,,,,,,,6,,,,55,112
164763,control_change,58,0,3,,,,,,,,,2,11,88,,,
164763,note_on,110,0,9,,,,,,,,,8,,,,55,0
164763,note_on,10,0,5,,,,,,,,,4,,,,65,100
164763,note_on,30,0,12,,,,,,,,,11,,,,57,112
164764,note_on,0,0,2,,,,,,,,,1,,,,83,100
164764,note_on,2,0,2,,,,,,,,,1,,,,74,100
164764,note_on,10,0,6,,,,,,,,,5,,,,62,100
164765,note_on,0,0,3,,,,,,,,,2,,,,74,101
164765,note_on,2,0,3,,,,,,,,,2,,,,71,101
164767,note_on,10,0,8,,,,,,,,,7,,,,62,110
164767,control_change,58,0,4,,,,,,,,,3,11,100,,,
164767,note_on,0,0,8,,,,,,,,,7,,,,59,110
164768,note_on,30,0,13,,,,,,,,,12,,,,57,112
164769,note_on,2,0,4,,,,,,,,,3,,,,65,100
164769,note_on,0,0,4,,,,,,,,,3,,,,62,100
164772,note_on,30,0,14,,,,,,,,,13,,,,57,112
164773,note_on,10,0,9,,,,,,,,,8,,,,55,110
164774,note_on,30,0,15,,,,,,,,,14,,,,45,112
164775,note_on,0,0,10,,,,,,,,,15,,,,43,100
164775,note_on,120,0,10,,,,,,,,,15,,,,43,0
164790,note_on,30,0,11,,,,,,,,,10,,,,57,0
164793,note_on,30,0,12,,,,,,,,,11,,,,57,0
164798,note_on,30,0,13,,,,,,,,,12,,,,57,0
164802,note_on,30,0,14,,,,,,,,,13,,,,57,0
164804,note_on,30,0,15,,,,,,,,,14,,,,45,0
164820,note_on,30,0,11,,,,,,,,,10,,,,55,112
164820,control_change,59,0,1,,,,,,,,,0,11,89,,,
164821,note_on,0,0,1,,,,,,,,,0,,,,83,0
164821,note_on,1,0,1,,,,,,,,,0,,,,77,0
164823,note_on,30,0,12,,,,,,,,,11,,,,55,112
164823,control_change,59,0,2,,,,,,,,,1,11,89,,,
164824,note_on,1,0,2,,,,,,,,,1,,,,83,0
164824,control_change,59,0,3,,,,,,,,,2,11,89,,,
164824,note_on,0,0,2,,,,,,,,,1,,,,74,0
164825,note_on,0,0,3,,,,,,,,,2,,,,71,0
164825,note_on,1,0,3,,,,,,,,,2,,,,74,0
164828,control_change,59,0,4,,,,,,,,,3,11,101,,,
164828,note_on,30,0,13,,,,,,,,,12,,,,55,112
164829,note_on,1,0,4,,,,,,,,,3,,,,62,0
164829,note_on,0,0,4,,,,,,,,,3,,,,65,0
164832,note_on,30,0,14,,,,,,,,,13,,,,55,112
164834,note_on,30,0,15,,,,,,,,,14,,,,43,112
164850,note_on,30,0,11,,,,,,,,,10,,,,55,0
164853,note_on,30,0,12,,,,,,,,,11,,,,55,0
164858,note_on,30,0,13,,,,,,,,,12,,,,55,0
164862,note_on,30,0,14,,,,,,,,,13,,,,55,0
164864,note_on,30,0,15,,,,,,,,,14,,,,43,0
164872,note_on,0,0,7,,,,,,,,,6,,,,67,0
164872,note_on,110,0,7,,,,,,,,,6,,,,55,0
164873,note_on,110,0,5,,,,,,,,,4,,,,65,0
164874,note_on,110,0,6,,,,,,,,,5,,,,62,0
164877,note_on,110,0,8,,,,,,,,,7,,,,59,0
164877,note_on,0,0,8,,,,,,,,,7,,,,62,0
164880,note_on,30,0,11,,,,,,,,,10,,,,60,112
164880,set_tempo,120,1,0,,,,,,254237,,,,,,,,
164881,note_on,60,0,1,,,,,,,,,0,,,,76,101
164881,note_on,0,0,1,,,,,,,,,0,,,,84,101
164881,control_change,0,0,1,,,,,,,,,0,11,86,,,
164882,note_on,10,0,7,,,,,,,,,6,,,,60,112
164882,note_on,0,0,7,,,,,,,,,6,,,,72,112
164883,note_on,10,0,5,,,,,,,,,4,,,,64,100
164883,note_on,110,0,9,,,,,,,,,8,,,,55,0
164883,note_on,30,0,12,,,,,,,,,11,,,,60,112
164884,note_on,60,0,2,,,,,,,,,1,,,,76,100
164884,note_on,0,0,2,,,,,,,,,1,,,,84,100
164884,control_change,0,0,2,,,,,,,,,1,11,86,,,
164884,note_on,10,0,6,,,,,,,,,5,,,,60,100
164885,note_on,0,0,3,,,,,,,,,2,,,,72,101
164885,control_change,0,0,3,,,,,,,,,2,11,86,,,
164885,note_on,60,0,3,,,,,,,,,2,,,,76,101
164887,note_on,0,0,8,,,,,,,,,7,,,,64,110
164887,note_on,10,0,8,,,,,,,,,7,,,,60,110
164888,note_on,30,0,13,,,,,,,,,12,,,,60,112
164889,note_on,0,0,4,,,,,,,,,3,,,,60,100
164889,control_change,0,0,4,,,,,,,,,3,11,97,,,
164889,note_on,60,0,4,,,,,,,,,3,,,,64,100
164892,note_on,30,0,14,,,,,,,,,13,,,,60,112
164893,note_on,10,0,9,,,,,,,,,8,,,,48,110
164894,note_on,30,0,15,,,,,,,,,14,,,,48,112
164895,note_on,0,0,10,,,,,,,,,15,,,,48,100
164895,note_on,120,0,10,,,,,,,,,15,,,,43,0
164940,note_on,60,0,11,,,,,,,,,10,,,,60,0
164943,note_on,60,0,12,,,,,,,,,11,,,,60,0
164948,note_on,60,0,13,,,,,,,,,12,,,,60,0
164952,note_on,60,0,14,,,,,,,,,13,,,,60,0
164954,note_on,60,0,15,,,,,,,,,14,,,,48,0
165000,note_on,60,0,11,,,,,,,,,10,,,,60,112
165000,set_tempo,120,1,0,,,,,,263158,,,,,,,,
165001,note_on,0,0,1,,,,,,,,,0,,,,76,0
165001,note_on,120,0,1,,,,,,,,,0,,,,84,0
165002,note_on,120,0,7,,,,,,,,,6,,,,72,0
165002,note_on,0,0,7,,,,,,,,,6,,,,60,0
165003,note_on,120,0,5,,,,,,,,,4,,,,64,0
165003,note_on,60,0,12,,,,,,,,,11,,,,60,112
165004,note_on,0,0,2,,,,,,,,,1,,,,76,0
165004,note_on,120,0,2,,,,,,,,,1,,,,84,0
165004,note_on,120,0,6,,,,,,,,,5,,,,60,0
165005,note_on,120,0,3,,,,,,,,,2,,,,72,0
165005,note_on,0,0,3,,,,,,,,,2,,,,76,0
165007,note_on,0,0,8,,,,,,,,,7,,,,60,0
165007,note_on,120,0,8,,,,,,,,,7,,,,64,0
165008,note_on,60,0,13,,,,,,,,,12,,,,60,112
165009,note_on,120,0,4,,,,,,,,,3,,,,60,0
165009,note_on,0,0,4,,,,,,,,,3,,,,64,0
165012,note_on,60,0,14,,,,,,,,,13,,,,60,112
165013,note_on,120,0,9,,,,,,,,,8,,,,48,0
165014,note_on,60,0,15,,,,,,,,,14,,,,48,112
165015,note_on,120,0,10,,,,,,,,,15,,,,48,0
165060,note_on,60,0,11,,,,,,,,,10,,,,60,0
165063,note_on,60,0,12,,,,,,,,,11,,,,60,0
165068,note_on,60,0,13,,,,,,,,,12,,,,60,0
165072,note_on,60,0,14,,,,,,,,,13,,,,60,0
165074,note_on,60,0,15,,,,,,,,,14,,,,48,0
165120,set_tempo,120,1,0,,,,,,307692,,,,,,,,
165120,note_on,60,0,11,,,,,,,,,10,,,,60,112
165123,note_on,60,0,12,,,,,,,,,11,,,,60,112
165128,note_on,60,0,13,,,,,,,,,12,,,,60,112
165132,note_on,60,0,14,,,,,,,,,13,,,,60,112
165134,note_on,60,0,15,,,,,,,,,14,,,,48,112
165180,note_on,60,0,11,,,,,,,,,10,,,,60,0
165183,note_on,60,0,12,,,,,,,,,11,,,,60,0
165188,note_on,60,0,13,,,,,,,,,12,,,,60,0
165192,note_on,60,0,14,,,,,,,,,13,,,,60,0
165194,note_on,60,0,15,,,,,,,,,14,,,,48,0
165240,control_change,60,0,11,,,,,,,,,10,11,50,,,
165240,set_tempo,120,1,0,,,,,,254237,,,,,,,,
165241,note_on,0,0,1,,,,,,,,,0,,,,81,116
165241,note_on,0,0,1,,,,,,,,,0,,,,84,116
165241,control_change,240,0,1,,,,,,,,,0,11,47,,,
165243,control_change,60,0,12,,,,,,,,,11,11,50,,,
165244,control_change,240,0,2,,,,,,,,,1,11,47,,,
165245,note_on,0,0,3,,,,,,,,,2,,,,72,116
165245,note_on,0,0,3,,,,,,,,,2,,,,69,116
165245,control_change,240,0,3,,,,,,,,,2,11,47,,,
165248,control_change,60,0,13,,,,,,,,,12,11,50,,,
165248,note_on,0,0,13,,,,,,,,,12,,,,60,112
165252,control_change,60,0,14,,,,,,,,,13,11,50,,,
165252,note_on,0,0,14,,,,,,,,,13,,,,53,112
165254,control_change,60,0,15,,,,,,,,,14,11,50,,,
165254,note_on,0,0,15,,,,,,,,,14,,,,36,112
165301,note_on,0,0,1,,,,,,,,,0,,,,81,0
165301,note_on,60,0,1,,,,,,,,,0,,,,84,0
165305,note_on,0,0,3,,,,,,,,,2,,,,72,0
165305,note_on,60,0,3,,,,,,,,,2,,,,69,0
165360,set_tempo,120,1,0,,,,,,263158,,,,,,,,
165361,note_on,0,0,1,,,,,,,,,0,,,,80,101
165361,note_on,60,0,1,,,,,,,,,0,,,,83,101
165365,note_on,60,0,3,,,,,,,,,2,,,,68,101
165365,note_on,0,0,3,,,,,,,,,2,,,,71,101
165368,note_on,120,0,13,,,,,,,,,12,,,,60,0
165374,note_on,120,0,15,,,,,,,,,14,,,,36,0
165421,note_on,0,0,1,,,,,,,,,0,,,,81,101
165421,note_on,0,0,1,,,,,,,,,0,,,,84,101
165421,note_on,0,0,1,,,,,,,,,0,,,,83,0
165421,note_on,60,0,1,,,,,,,,,0,,,,80,0
165425,note_on,0,0,3,,,,,,,,,2,,,,69,101
165425,note_on,0,0,3,,,,,,,,,2,,,,72,101
165425,note_on,0,0,3,,,,,,,,,2,,,,68,0
165425,note_on,60,0,3,,,,,,,,,2,,,,71,0
165480,set_tempo,120,1,0,,,,,,288462,,,,,,,,
165481,note_on,0,0,1,,,,,,,,,0,,,,84,0
165481,note_on,60,0,1,,,,,,,,,0,,,,81,0
165481,note_on,0,0,1,,,,,,,,,0,,,,83,101
165481,note_on,0,0,1,,,,,,,,,0,,,,79,101
165485,note_on,0,0,3,,,,,,,,,2,,,,72,0
165485,note_on,0,0,3,,,,,,,,,2,,,,71,101
165485,note_on,0,0,3,,,,,,,,,2,,,,67,101
165485,note_on,60,0,3,,,,,,,,,2,,,,69,0
165492,note_on,0,0,14,,,,,,,,,13,,,,57,112
165492,note_on,240,0,14,,,,,,,,,13,,,,53,0
165541,note_on,60,0,1,,,,,,,,,0,,,,83,0
165541,note_on,0,0,1,,,,,,,,,0,,,,79,0
165541,note_on,0,0,1,,,,,,,,,0,,,,77,101
165541,note_on,0,0,1,,,,,,,,,0,,,,81,101
165545,note_on,60,0,3,,,,,,,,,2,,,,67,0
165545,note_on,0,0,3,,,,,,,,,2,,,,71,0
165545,note_on,0,0,3,,,,,,,,,2,,,,65,101
165545,note_on,0,0,3,,,,,,,,,2,,,,69,101
165600,set_tempo,120,1,0,,,,,,254237,,,,,,,,
165601,note_on,60,0,1,,,,,,,,,0,,,,81,0
165601,note_on,0,0,1,,,,,,,,,0,,,,77,0
165601,note_on,0,0,1,,,,,,,,,0,,,,79,101
165601,note_on,0,0,1,,,,,,,,,0,,,,76,101
165605,note_on,0,0,3,,,,,,,,,2,,,,69,0
165605,note_on,0,0,3,,,,,,,,,2,,,,64,101
165605,note_on,0,0,3,,,,,,,,,2,,,,67,101
165605,note_on,60,0,3,,,,,,,,,2,,,,65,0
165607,note_on,115,0,14,,,,,,,,,13,,,,57,0
165612,note_on,5,0,14,,,,,,,,,13,,,,60,112
165615,note_on,600,0,10,,,,,,,,,15,,,,48,35
165675,note_on,60,0,10,,,,,,,,,15,,,,48,0
165675,note_on,0,0,10,,,,,,,,,15,,,,48,35
165720,set_tempo,120,1,0,,,,,,263158,,,,,,,,
165721,note_on,120,0,1,,,,,,,,,0,,,,76,0
165721,note_on,0,0,1,,,,,,,,,0,,,,79,0
165721,note_on,0,0,1,,,,,,,,,0,,,,79,101
165721,note_on,0,0,1,,,,,,,,,0,,,,76,101
165725,note_on,0,0,3,,,,,,,,,2,,,,64,101
165725,note_on,0,0,3,,,,,,,,,2,,,,67,101
165725,note_on,0,0,3,,,,,,,,,2,,,,64,0
165725,note_on,120,0,3,,,,,,,,,2,,,,67,0
165735,note_on,0,0,10,,,,,,,,,15,,,,43,35
165735,note_on,60,0,10,,,,,,,,,15,,,,48,0
165795,note_on,0,0,10,,,,,,,,,15,,,,48,35
165795,note_on,60,0,10,,,,,,,,,15,,,,43,0
165840,set_tempo,120,1,0,,,,,,288462,,,,,,,,
165841,note_on,120,0,1,,,,,,,,,0,,,,76,0
165841,note_on,0,0,1,,,,,,,,,0,,,,79,0
165841,note_on,0,0,1,,,,,,,,,0,,,,76,101
165841,note_on,0,0,1,,,,,,,,,0,,,,72,101
165845,note_on,0,0,3,,,,,,,,,2,,,,67,0
165845,note_on,0,0,3,,,,,,,,,2,,,,60,101
165845,note_on,0,0,3,,,,,,,,,2,,,,64,101
165845,note_on,120,0,3,,,,,,,,,2,,,,64,0
165852,note_on,0,0,14,,,,,,,,,13,,,,64,112
165852,note_on,240,0,14,,,,,,,,,13,,,,60,0
165855,note_on,60,0,10,,,,,,,,,15,,,,48,0
165855,note_on,0,0,10,,,,,,,,,15,,,,43,35
165901,note_on,60,0,1,,,,,,,,,0,,,,76,0
165901,note_on,0,0,1,,,,,,,,,0,,,,72,0
165905,note_on,0,0,3,,,,,,,,,2,,,,64,0
165905,note_on,60,0,3,,,,,,,,,2,,,,60,0
165915,note_on,60,0,10,,,,,,,,,15,,,,43,0
165915,note_on,0,0,10,,,,,,,,,15,,,,48,35
165960,set_tempo,120,1,0,,,,,,254237,,,,,,,,
165961,note_on,60,0,1,,,,,,,,,0,,,,81,101
165961,note_on,0,0,1,,,,,,,,,0,,,,71,116
165965,note_on,0,0,3,,,,,,,,,2,,,,59,116
165965,note_on,60,0,3,,,,,,,,,2,,,,69,101
165967,note_on,115,0,14,,,,,,,,,13,,,,64,0
165968,note_on,600,0,13,,,,,,,,,12,,,,55,112
165972,note_on,5,0,14,,,,,,,,,13,,,,65,112
165974,note_on,600,0,15,,,,,,,,,14,,,,31,112
165975,note_on,0,0,10,,,,,,,,,15,,,,43,35
165975,note_on,60,0,10,,,,,,,,,15,,,,48,0
166080,set_tempo,120,1,0,,,,,,263158,,,,,,,,
166081,note_on,0,0,1,,,,,,,,,0,,,,75,101
166081,note_on,120,0,1,,,,,,,,,0,,,,81,0
166085,note_on,120,0,3,,,,,,,,,2,,,,69,0
166085,note_on,0,0,3,,,,,,,,,2,,,,63,101
166088,note_on,120,0,13,,,,,,,,,12,,,,55,0
166094,note_on,120,0,15,,,,,,,,,14,,,,31,0
166095,note_on,0,0,10,,,,,,,,,15,,,,43,35
166095,note_on,120,0,10,,,,,,,,,15,,,,43,0
166200,set_tempo,120,1,0,,,,,,288462,,,,,,,,
166201,note_on,120,0,1,,,,,,,,,0,,,,75,0
166201,note_on,0,0,1,,,,,,,,,0,,,,71,0
166201,note_on,0,0,1,,,,,,,,,0,,,,71,101
166201,note_on,0,0,1,,,,,,,,,0,,,,75,101
166205,note_on,0,0,3,,,,,,,,,2,,,,59,0
166205,note_on,0,0,3,,,,,,,,,2,,,,63,101
166205,note_on,120,0,3,,,,,,,,,2,,,,63,0
166205,note_on,0,0,3,,,,,,,,,2,,,,59,101
166212,note_on,0,0,14,,,,,,,,,13,,,,67,112
166212,note_on,240,0,14,,,,,,,,,13,,,,65,0
166215,note_on,120,0,10,,,,,,,,,15,,,,43,0
166215,note_on,0,0,10,,,,,,,,,15,,,,43,35
166320,note_on,1080,0,11,,,,,,,,,10,,,,60,112
166320,set_tempo,120,1,0,,,,,,254237,,,,,,,,
166321,note_on,120,0,1,,,,,,,,,0,,,,75,0
166321,note_on,0,0,1,,,,,,,,,0,,,,71,0
166321,note_on,0,0,1,,,,,,,,,0,,,,76,116
166321,note_on,0,0,1,,,,,,,,,0,,,,72,116
166323,note_on,1080,0,12,,,,,,,,,11,,,,60,112
166325,note_on,0,0,3,,,,,,,,,2,,,,60,116
166325,note_on,0,0,3,,,,,,,,,2,,,,64,116
166325,note_on,0,0,3,,,,,,,,,2,,,,63,0
166325,note_on,120,0,3,,,,,,,,,2,,,,59,0
166327,note_on,115,0,14,,,,,,,,,13,,,,67,0
166328,note_on,240,0,13,,,,,,,,,12,,,,60,112
166332,note_on,5,0,14,,,,,,,,,13,,,,64,112
166334,note_on,240,0,15,,,,,,,,,14,,,,36,112
166335,note_on,120,0,10,,,,,,,,,15,,,,43,0
166335,note_on,0,0,10,,,,,,,,,15,,,,48,35
166350,note_on,30,0,11,,,,,,,,,10,,,,60,0
166353,note_on,30,0,12,,,,,,,,,11,,,,60,0
166358,note_on,30,0,13,,,,,,,,,12,,,,60,0
166364,note_on,30,0,15,,,,,,,,,14,,,,36,0
166380,note_on,30,0,11,,,,,,,,,10,,,,60,112
166381,note_on,0,0,1,,,,,,,,,0,,,,76,0
166381,note_on,60,0,1,,,,,,,,,0,,,,72,0
166383,note_on,30,0,12,,,,,,,,,11,,,,60,112
166385,note_on,60,0,3,,,,,,,,,2,,,,60,0
166385,note_on,0,0,3,,,,,,,,,2,,,,64,0
166388,note_on,30,0,13,,,,,,,,,12,,,,60,112
166394,note_on,30,0,15,,,,,,,,,14,,,,36,112
166410,note_on,30,0,11,,,,,,,,,10,,,,60,0
166413,note_on,30,0,12,,,,,,,,,11,,,,60,0
166418,note_on,30,0,13,,,,,,,,,12,,,,60,0
166424,note_on,30,0,15,,,,,,,,,14,,,,36,0
166440,note_on,30,0,11,,,,,,,,,10,,,,62,112
166440,set_tempo,120,1,0,,,,,,263158,,,,,,,,
166441,note_on,60,0,1,,,,,,,,,0,,,,79,101
166441,note_on,0,0,1,,,,,,,,,0,,,,76,101
166443,note_on,30,0,12,,,,,,,,,11,,,,62,112
166445,note_on,60,0,3,,,,,,,,,2,,,,67,101
166445,note_on,0,0,3,,,,,,,,,2,,,,64,101
166448,note_on,30,0,13,,,,,,,,,12,,,,62,112
166454,note_on,30,0,15,,,,,,,,,14,,,,38,112
166455,note_on,120,0,10,,,,,,,,,15,,,,48,0
166470,note_on,30,0,11,,,,,,,,,10,,,,62,0
166473,note_on,30,0,12,,,,,,,,,11,,,,62,0
166478,note_on,30,0,13,,,,,,,,,12,,,,62,0
166484,note_on,30,0,15,,,,,,,,,14,,,,38,0
166500,note_on,30,0,11,,,,,,,,,10,,,,60,112
166501,note_on,60,0,1,,,,,,,,,0,,,,76,0
166501,note_on,0,0,1,,,,,,,,,0,,,,79,0
166503,note_on,30,0,12,,,,,,,,,11,,,,60,112
166505,note_on,0,0,3,,,,,,,,,2,,,,67,0
166505,note_on,60,0,3,,,,,,,,,2,,,,64,0
166508,note_on,30,0,13,,,,,,,,,12,,,,60,112
166514,note_on,30,0,15,,,,,,,,,14,,,,36,112
166530,note_on,30,0,11,,,,,,,,,10,,,,60,0
166533,note_on,30,0,12,,,,,,,,,11,,,,60,0
166538,note_on,30,0,13,,,,,,,,,12,,,,60,0
166544,note_on,30,0,15,,,,,,,,,14,,,,36,0
166560,note_on,30,0,11,,,,,,,,,10,,,,62,112
166560,set_tempo,120,1,0,,,,,,288462,,,,,,,,
166561,note_on,0,0,1,,,,,,,,,0,,,,79,101
166561,note_on,60,0,1,,,,,,,,,0,,,,76,101
166563,note_on,30,0,12,,,,,,,,,11,,,,62,112
166565,note_on,0,0,3,,,,,,,,,2,,,,64,101
166565,note_on,60,0,3,,,,,,,,,2,,,,67,101
166568,note_on,30,0,13,,,,,,,,,12,,,,62,112
166572,note_on,240,0,14,,,,,,,,,13,,,,64,0
166572,note_on,0,0,14,,,,,,,,,13,,,,60,112
166574,note_on,30,0,15,,,,,,,,,14,,,,38,112
166590,note_on,30,0,11,,,,,,,,,10,,,,62,0
166593,note_on,30,0,12,,,,,,,,,11,,,,62,0
166598,note_on,30,0,13,,,,,,,,,12,,,,62,0
166604,note_on,30,0,15,,,,,,,,,14,,,,38,0
166620,note_on,30,0,11,,,,,,,,,10,,,,60,112
166621,note_on,0,0,1,,,,,,,,,0,,,,76,0
166621,note_on,60,0,1,,,,,,,,,0,,,,79,0
166623,note_on,30,0,12,,,,,,,,,11,,,,60,112
166625,note_on,60,0,3,,,,,,,,,2,,,,64,0
166625,note_on,0,0,3,,,,,,,,,2,,,,67,0
166628,note_on,30,0,13,,,,,,,,,12,,,,60,112
166634,note_on,30,0,15,,,,,,,,,14,,,,36,112
166650,note_on,30,0,11,,,,,,,,,10,,,,60,0
166653,note_on,30,0,12,,,,,,,,,11,,,,60,0
166658,note_on,30,0,13,,,,,,,,,12,,,,60,0
166664,note_on,30,0,15,,,,,,,,,14,,,,36,0
166680,set_tempo,120,1,0,,,,,,254237,,,,,,,,
166680,note_on,30,0,11,,,,,,,,,10,,,,60,112
166681,note_on,60,0,1,,,,,,,,,0,,,,84,116
166681,note_on,0,0,1,,,,,,,,,0,,,,81,116
166683,note_on,30,0,12,,,,,,,,,11,,,,60,112
166684,note_on,0,0,2,,,,,,,,,1,,,,81,115
166684,note_on,1440,0,2,,,,,,,,,1,,,,84,115
166685,note_on,0,0,3,,,,,,,,,2,,,,69,116
166685,note_on,60,0,3,,,,,,,,,2,,,,72,116
166687,note_on,115,0,14,,,,,,,,,13,,,,60,0
166688,note_on,30,0,13,,,,,,,,,12,,,,60,112
166692,control_change,5,0,14,,,,,,,,,13,11,50,,,
166692,note_on,0,0,14,,,,,,,,,13,,,,53,112
166694,note_on,30,0,15,,,,,,,,,14,,,,36,112
166711,note_on,30,0,1,,,,,,,,,0,,,,81,0
166711,note_on,0,0,1,,,,,,,,,0,,,,84,0
166714,note_on,30,0,2,,,,,,,,,1,,,,81,0
166714,note_on,0,0,2,,,,,,,,,1,,,,84,0
166715,note_on,30,0,3,,,,,,,,,2,,,,69,0
166715,note_on,0,0,3,,,,,,,,,2,,,,72,0
166728,control_change,36,0,14,,,,,,,,,13,11,51,,,
166741,note_on,0,0,1,,,,,,,,,0,,,,81,101
166741,note_on,30,0,1,,,,,,,,,0,,,,84,101
166744,note_on,30,0,2,,,,,,,,,1,,,,81,100
166744,note_on,0,0,2,,,,,,,,,1,,,,84,100
166745,note_on,0,0,3,,,,,,,,,2,,,,72,101
166745,note_on,30,0,3,,,,,,,,,2,,,,69,101
166764,control_change,36,0,14,,,,,,,,,13,11,52,,,
166771,note_on,0,0,1,,,,,,,,,0,,,,84,0
166771,note_on,30,0,1,,,,,,,,,0,,,,81,0
166774,note_on,30,0,2,,,,,,,,,1,,,,84,0
166774,note_on,0,0,2,,,,,,,,,1,,,,81,0
166775,note_on,30,0,3,,,,,,,,,2,,,,72,0
166775,note_on,0,0,3,,,,,,,,,2,,,,69,0
166800,set_tempo,120,1,0,,,,,,263158,,,,,,,,
166800,note_on,120,0,11,,,,,,,,,10,,,,60,0
166800,control_change,36,0,14,,,,,,,,,13,11,53,,,
166801,note_on,30,0,1,,,,,,,,,0,,,,83,101
166801,note_on,0,0,1,,,,,,,,,0,,,,80,101
166803,note_on,120,0,12,,,,,,,,,11,,,,60,0
166804,note_on,0,0,2,,,,,,,,,1,,,,80,100
166804,note_on,30,0,2,,,,,,,,,1,,,,83,100
166805,note_on,30,0,3,,,,,,,,,2,,,,68,101
166805,note_on,0,0,3,,,,,,,,,2,,,,71,101
166808,note_on,120,0,13,,,,,,,,,12,,,,60,0
166812,note_on,12,0,14,,,,,,,,,13,,,,53,0
166812,note_on,0,0,14,,,,,,,,,13,,,,57,112
166814,note_on,120,0,15,,,,,,,,,14,,,,36,0
166836,control_change,24,0,14,,,,,,,,,13,11,54,,,
166861,note_on,60,0,1,,,,,,,,,0,,,,80,0
166861,note_on,0,0,1,,,,,,,,,0,,,,83,0
166861,note_on,0,0,1,,,,,,,,,0,,,,81,101
166861,note_on,0,0,1,,,,,,,,,0,,,,84,101
166864,note_on,0,0,2,,,,,,,,,1,,,,83,0
166864,note_on,0,0,2,,,,,,,,,1,,,,84,100
166864,note_on,0,0,2,,,,,,,,,1,,,,81,100
166864,note_on,60,0,2,,,,,,,,,1,,,,80,0
166865,note_on,0,0,3,,,,,,,,,2,,,,68,0
166865,note_on,60,0,3,,,,,,,,,2,,,,71,0
166865,note_on,0,0,3,,,,,,,,,2,,,,72,101
166865,note_on,0,0,3,,,,,,,,,2,,,,69,101
166872,control_change,36,0,14,,,,,,,,,13,11,55,,,
166908,control_change,36,0,14,,,,,,,,,13,11,56,,,
166920,set_tempo,120,1,0,,,,,,288462,,,,,,,,
166921,note_on,60,0,1,,,,,,,,,0,,,,84,0
166921,note_on,0,0,1,,,,,,,,,0,,,,81,0
166921,note_on,0,0,1,,,,,,,,,0,,,,79,101
166921,note_on,0,0,1,,,,,,,,,0,,,,83,101
166924,note_on,0,0,2,,,,,,,,,1,,,,79,100
166924,note_on,0,0,2,,,,,,,,,1,,,,83,100
166924,note_on,0,0,2,,,,,,,,,1,,,,81,0
166924,note_on,60,0,2,,,,,,,,,1,,,,84,0
166925,note_on,0,0,3,,,,,,,,,2,,,,69,0
166925,note_on,60,0,3,,,,,,,,,2,,,,72,0
166925,note_on,0,0,3,,,,,,,,,2,,,,67,101
166925,note_on,0,0,3,,,,,,,,,2,,,,71,101
166932,note_on,24,0,14,,,,,,,,,13,,,,57,0
166932,note_on,0,0,14,,,,,,,,,13,,,,59,112
166944,control_change,12,0,14,,,,,,,,,13,11,57,,,
166980,control_change,36,0,14,,,,,,,,,13,11,57,,,
166981,note_on,0,0,1,,,,,,,,,0,,,,77,101
166981,note_on,0,0,1,,,,,,,,,0,,,,79,0
166981,note_on,0,0,1,,,,,,,,,0,,,,81,101
166981,note_on,60,0,1,,,,,,,,,0,,,,83,0
166984,note_on,0,0,2,,,,,,,,,1,,,,77,100
166984,note_on,0,0,2,,,,,,,,,1,,,,81,100
166984,note_on,0,0,2,,,,,,,,,1,,,,83,0
166984,note_on,60,0,2,,,,,,,,,1,,,,79,0
166985,note_on,60,0,3,,,,,,,,,2,,,,67,0
166985,note_on,0,0,3,,,,,,,,,2,,,,71,0
166985,note_on,0,0,3,,,,,,,,,2,,,,65,101
166985,note_on,0,0,3,,,,,,,,,2,,,,69,101
167016,control_change,36,0,14,,,,,,,,,13,11,58,,,
167040,set_tempo,120,1,0,,,,,,254237,,,,,,,,
167041,note_on,0,0,1,,,,,,,,,0,,,,79,101
167041,note_on,60,0,1,,,,,,,,,0,,,,81,0
167041,note_on,0,0,1,,,,,,,,,0,,,,77,0
167041,note_on,0,0,1,,,,,,,,,0,,,,76,101
167044,note_on,0,0,2,,,,,,,,,1,,,,76,100
167044,note_on,0,0,2,,,,,,,,,1,,,,79,100
167044,note_on,0,0,2,,,,,,,,,1,,,,81,0
167044,note_on,60,0,2,,,,,,,,,1,,,,77,0
167045,note_on,0,0,3,,,,,,,,,2,,,,67,101
167045,note_on,0,0,3,,,,,,,,,2,,,,64,101
167045,note_on,0,0,3,,,,,,,,,2,,,,65,0
167045,note_on,60,0,3,,,,,,,,,2,,,,69,0
167052,note_on,36,0,14,,,,,,,,,13,,,,59,0
167052,control_change,0,0,14,,,,,,,,,13,11,59,,,
167052,note_on,0,0,14,,,,,,,,,13,,,,60,112
167055,note_on,600,0,10,,,,,,,,,15,,,,48,35
167088,control_change,36,0,14,,,,,,,,,13,11,60,,,
167101,note_on,0,0,1,,,,,,,,,0,,,,76,0
167101,note_on,60,0,1,,,,,,,,,0,,,,79,0
167104,note_on,60,0,2,,,,,,,,,1,,,,76,0
167104,note_on,0,0,2,,,,,,,,,1,,,,79,0
167105,note_on,60,0,3,,,,,,,,,2,,,,64,0
167105,note_on,0,0,3,,,,,,,,,2,,,,67,0
167115,note_on,60,0,10,,,,,,,,,15,,,,48,0
167115,note_on,0,0,10,,,,,,,,,15,,,,48,35
167124,control_change,36,0,14,,,,,,,,,13,11,61,,,
167160,control_change,36,0,14,,,,,,,,,13,11,62,,,
167160,set_tempo,120,1,0,,,,,,263158,,,,,,,,
167161,note_on,0,0,1,,,,,,,,,0,,,,79,101
167161,note_on,60,0,1,,,,,,,,,0,,,,76,101
167164,note_on,0,0,2,,,,,,,,,1,,,,79,100
167164,note_on,60,0,2,,,,,,,,,1,,,,76,100
167165,note_on,0,0,3,,,,,,,,,2,,,,67,101
167165,note_on,60,0,3,,,,,,,,,2,,,,64,101
167172,note_on,0,0,14,,,,,,,,,13,,,,62,112
167172,note_on,12,0,14,,,,,,,,,13,,,,60,0
167175,note_on,60,0,10,,,,,,,,,15,,,,48,0
167175,note_on,0,0,10,,,,,,,,,15,,,,43,35
167196,control_change,24,0,14,,,,,,,,,13,11,63,,,
167221,note_on,60,0,1,,,,,,,,,0,,,,79,0
167221,note_on,0,0,1,,,,,,,,,0,,,,76,0
167224,note_on,60,0,2,,,,,,,,,1,,,,79,0
167224,note_on,0,0,2,,,,,,,,,1,,,,76,0
167225,note_on,60,0,3,,,,,,,,,2,,,,67,0
167225,note_on,0,0,3,,,,,,,,,2,,,,64,0
167232,control_change,36,0,14,,,,,,,,,13,11,64,,,
167235,note_on,60,0,10,,,,,,,,,15,,,,43,0
167235,note_on,0,0,10,,,,,,,,,15,,,,48,35
167268,control_change,36,0,14,,,,,,,,,13,11,65,,,
167280,set_tempo,120,1,0,,,,,,288462,,,,,,,,
167281,note_on,60,0,1,,,,,,,,,0,,,,76,101
167281,note_on,0,0,1,,,,,,,,,0,,,,72,101
167284,note_on,0,0,2,,,,,,,,,1,,,,72,100
167284,note_on,60,0,2,,,,,,,,,1,,,,76,100
167285,note_on,60,0,3,,,,,,,,,2,,,,64,101
167285,note_on,0,0,3,,,,,,,,,2,,,,60,101
167292,note_on,0,0,14,,,,,,,,,13,,,,64,112
167292,note_on,24,0,14,,,,,,,,,13,,,,62,0
167295,note_on,60,0,10,,,,,,,,,15,,,,48,0
167295,note_on,0,0,10,,,,,,,,,15,,,,43,35
167304,control_change,12,0,14,,,,,,,,,13,11,66,,,
167340,control_change,36,0,14,,,,,,,,,13,11,67,,,
167341,note_on,60,0,1,,,,,,,,,0,,,,72,0
167341,note_on,0,0,1,,,,,,,,,0,,,,76,0
167344,note_on,60,0,2,,,,,,,,,1,,,,72,0
167344,note_on,0,0,2,,,,,,,,,1,,,,76,0
167345,note_on,0,0,3,,,,,,,,,2,,,,64,0
167345,note_on,60,0,3,,,,,,,,,2,,,,60,0
167355,note_on,0,0,10,,,,,,,,,15,,,,48,35
167355,note_on,60,0,10,,,,,,,,,15,,,,43,0
167376,control_change,36,0,14,,,,,,,,,13,11,68,,,
167400,set_tempo,120,1,0,,,,,,254237,,,,,,,,
167401,note_on,60,0,1,,,,,,,,,0,,,,71,116
167401,note_on,0,0,1,,,,,,,,,0,,,,81,101
167404,note_on,0,0,2,,,,,,,,,1,,,,71,115
167404,note_on,60,0,2,,,,,,,,,1,,,,81,100
167405,note_on,0,0,3,,,,,,,,,2,,,,69,101
167405,note_on,60,0,3,,,,,,,,,2,,,,59,116
167407,note_on,31,0,14,,,,,,,,,13,,,,64,0
167408,note_on,600,0,13,,,,,,,,,12,,,,55,112
167412,control_change,5,0,14,,,,,,,,,13,11,69,,,
167412,note_on,0,0,14,,,,,,,,,13,,,,65,112
167414,note_on,600,0,15,,,,,,,,,14,,,,31,112
167415,note_on,60,0,10,,,,,,,,,15,,,,48,0
167415,note_on,0,0,10,,,,,,,,,15,,,,43,35
167430,control_change,18,0,14,,,,,,,,,13,11,68,,,
167448,control_change,18,0,14,,,,,,,,,13,11,67,,,
167466,control_change,18,0,14,,,,,,,,,13,11,66,,,
167484,control_change,18,0,14,,,,,,,,,13,11,65,,,
167502,control_change,18,0,14,,,,,,,,,13,11,64,,,
167520,set_tempo,120,1,0,,,,,,263158,,,,,,,,
167520,control_change,18,0,14,,,,,,,,,13,11,63,,,
167521,note_on,120,0,1,,,,,,,,,0,,,,81,0
167521,note_on,0,0,1,,,,,,,,,0,,,,75,101
167524,note_on,120,0,2,,,,,,,,,1,,,,81,0
167524,note_on,0,0,2,,,,,,,,,1,,,,75,100
167525,note_on,0,0,3,,,,,,,,,2,,,,63,101
167525,note_on,120,0,3,,,,,,,,,2,,,,69,0
167528,note_on,120,0,13,,,,,,,,,12,,,,55,0
167532,note_on,12,0,14,,,,,,,,,13,,,,65,0
167532,note_on,0,0,14,,,,,,,,,13,,,,69,112
167534,note_on,120,0,15,,,,,,,,,14,,,,31,0
167535,note_on,0,0,10,,,,,,,,,15,,,,43,35
167535,note_on,120,0,10,,,,,,,,,15,,,,43,0
167538,control_change,6,0,14,,,,,,,,,13,11,62,,,
167556,control_change,18,0,14,,,,,,,,,13,11,61,,,
167574,control_change,18,0,14,,,,,,,,,13,11,60,,,
167592,control_change,18,0,14,,,,,,,,,13,11,59,,,
167610,control_change,18,0,14,,,,,,,,,13,11,58,,,
167628,control_change,18,0,14,,,,,,,,,13,11,57,,,
167640,set_tempo,120,1,0,,,,,,288462,,,,,,,,
167641,note_on,0,0,1,,,,,,,,,0,,,,71,0
167641,note_on,0,0,1,,,,,,,,,0,,,,71,101
167641,note_on,0,0,1,,,,,,,,,0,,,,75,101
167641,note_on,120,0,1,,,,,,,,,0,,,,75,0
167644,note_on,0,0,2,,,,,,,,,1,,,,71,0
167644,note_on,0,0,2,,,,,,,,,1,,,,71,100
167644,note_on,120,0,2,,,,,,,,,1,,,,75,0
167644,note_on,0,0,2,,,,,,,,,1,,,,75,100
167645,note_on,120,0,3,,,,,,,,,2,,,,63,0
167645,note_on,0,0,3,,,,,,,,,2,,,,59,0
167645,note_on,0,0,3,,,,,,,,,2,,,,59,101
167645,note_on,0,0,3,,,,,,,,,2,,,,63,101
167646,control_change,18,0,14,,,,,,,,,13,11,57,,,
167652,note_on,6,0,14,,,,,,,,,13,,,,69,0
167652,note_on,0,0,14,,,,,,,,,13,,,,67,112
167655,note_on,120,0,10,,,,,,,,,15,,,,43,0
167655,note_on,0,0,10,,,,,,,,,15,,,,43,35
167664,control_change,12,0,14,,,,,,,,,13,11,56,,,
167682,control_change,18,0,14,,,,,,,,,13,11,55,,,
167700,control_change,18,0,14,,,,,,,,,13,11,54,,,
167701,note_on,60,0,1,,,,,,,,,0,,,,75,0
167704,note_on,60,0,2,,,,,,,,,1,,,,75,0
167705,note_on,60,0,3,,,,,,,,,2,,,,63,0
167710,note_on,10,0,14,,,,,,,,,13,,,,67,0
167718,control_change,8,0,14,,,,,,,,,13,11,53,,,
167736,control_change,18,0,14,,,,,,,,,13,11,52,,,
167754,control_change,18,0,14,,,,,,,,,13,11,51,,,
167760,note_on,960,0,11,,,,,,,,,10,,,,60,112
167760,set_tempo,120,1,0,,,,,,254237,,,,,,,,
167761,note_on,60,0,1,,,,,,,,,0,,,,71,0
167761,note_on,0,0,1,,,,,,,,,0,,,,72,116
167761,note_on,0,0,1,,,,,,,,,0,,,,76,116
167763,note_on,960,0,12,,,,,,,,,11,,,,60,112
167764,note_on,60,0,2,,,,,,,,,1,,,,71,0
167764,note_on,0,0,2,,,,,,,,,1,,,,76,115
167764,note_on,0,0,2,,,,,,,,,1,,,,72,115
167765,note_on,0,0,3,,,,,,,,,2,,,,60,116
167765,note_on,60,0,3,,,,,,,,,2,,,,59,0
167765,note_on,0,0,3,,,,,,,,,2,,,,64,116
167768,note_on,240,0,13,,,,,,,,,12,,,,60,112
167772,note_on,18,0,14,,,,,,,,,13,,,,64,112
167774,note_on,240,0,15,,,,,,,,,14,,,,36,112
167775,note_on,120,0,10,,,,,,,,,15,,,,43,0
167775,note_on,0,0,10,,,,,,,,,15,,,,48,35
167790,note_on,30,0,11,,,,,,,,,10,,,,60,0
167793,note_on,30,0,12,,,,,,,,,11,,,,60,0
167798,note_on,30,0,13,,,,,,,,,12,,,,60,0
167804,note_on,30,0,15,,,,,,,,,14,,,,36,0
167820,note_on,30,0,11,,,,,,,,,10,,,,60,112
167823,note_on,30,0,12,,,,,,,,,11,,,,60,112
167828,note_on,30,0,13,,,,,,,,,12,,,,60,112
167834,note_on,30,0,15,,,,,,,,,14,,,,36,112
167850,note_on,30,0,11,,,,,,,,,10,,,,60,0
167853,note_on,30,0,12,,,,,,,,,11,,,,60,0
167858,note_on,30,0,13,,,,,,,,,12,,,,60,0
167864,note_on,30,0,15,,,,,,,,,14,,,,36,0
167880,set_tempo,120,1,0,,,,,,263158,,,,,,,,
167880,note_on,30,0,11,,,,,,,,,10,,,,62,112
167881,note_on,120,0,1,,,,,,,,,0,,,,72,0
167881,note_on,0,0,1,,,,,,,,,0,,,,76,101
167881,note_on,0,0,1,,,,,,,,,0,,,,76,0
167881,note_on,0,0,1,,,,,,,,,0,,,,79,101
167883,note_on,30,0,12,,,,,,,,,11,,,,62,112
167884,note_on,120,0,2,,,,,,,,,1,,,,76,0
167884,note_on,0,0,2,,,,,,,,,1,,,,72,0
167884,note_on,0,0,2,,,,,,,,,1,,,,79,100
167884,note_on,0,0,2,,,,,,,,,1,,,,76,100
167885,note_on,120,0,3,,,,,,,,,2,,,,64,0
167885,note_on,0,0,3,,,,,,,,,2,,,,60,0
167885,note_on,0,0,3,,,,,,,,,2,,,,64,101
167885,note_on,0,0,3,,,,,,,,,2,,,,67,101
167888,note_on,30,0,13,,,,,,,,,12,,,,62,112
167894,note_on,30,0,15,,,,,,,,,14,,,,38,112
167895,note_on,120,0,10,,,,,,,,,15,,,,48,0
167910,note_on,30,0,11,,,,,,,,,10,,,,62,0
167913,note_on,30,0,12,,,,,,,,,11,,,,62,0
167918,note_on,30,0,13,,,,,,,,,12,,,,62,0
167924,note_on,30,0,15,,,,,,,,,14,,,,38,0
167940,note_on,30,0,11,,,,,,,,,10,,,,60,112
167943,note_on,30,0,12,,,,,,,,,11,,,,60,112
167948,note_on,30,0,13,,,,,,,,,12,,,,60,112
167954,note_on,30,0,15,,,,,,,,,14,,,,36,112
167970,note_on,30,0,11,,,,,,,,,10,,,,60,0
167973,note_on,30,0,12,,,,,,,,,11,,,,60,0
167978,note_on,30,0,13,,,,,,,,,12,,,,60,0
167984,note_on,30,0,15,,,,,,,,,14,,,,36,0
168000,set_tempo,120,1,0,,,,,,307692,,,,,,,,
168000,note_on,30,0,11,,,,,,,,,10,,,,62,112
168001,note_on,120,0,1,,,,,,,,,0,,,,76,0
168001,note_on,0,0,1,,,,,,,,,0,,,,79,0
168001,note_on,0,0,1,,,,,,,,,0,,,,76,101
168001,note_on,0,0,1,,,,,,,,,0,,,,79,101
168003,note_on,30,0,12,,,,,,,,,11,,,,62,112
168004,note_on,0,0,2,,,,,,,,,1,,,,76,100
168004,note_on,120,0,2,,,,,,,,,1,,,,76,0
168004,note_on,0,0,2,,,,,,,,,1,,,,79,100
168004,note_on,0,0,2,,,,,,,,,1,,,,79,0
168005,note_on,120,0,3,,,,,,,,,2,,,,67,0
168005,note_on,0,0,3,,,,,,,,,2,,,,64,101
168005,note_on,0,0,3,,,,,,,,,2,,,,64,0
168005,note_on,0,0,3,,,,,,,,,2,,,,67,101
168008,note_on,30,0,13,,,,,,,,,12,,,,62,112
168012,note_on,0,0,14,,,,,,,,,13,,,,60,112
168012,note_on,240,0,14,,,,,,,,,13,,,,64,0
168014,note_on,30,0,15,,,,,,,,,14,,,,38,112
168030,note_on,30,0,11,,,,,,,,,10,,,,62,0
168033,note_on,30,0,12,,,,,,,,,11,,,,62,0
168038,note_on,30,0,13,,,,,,,,,12,,,,62,0
168044,note_on,30,0,15,,,,,,,,,14,,,,38,0
168060,note_on,30,0,11,,,,,,,,,10,,,,60,112
168061,note_on,60,0,1,,,,,,,,,0,,,,79,0
168061,note_on,0,0,1,,,,,,,,,0,,,,76,0
168063,note_on,30,0,12,,,,,,,,,11,,,,60,112
168064,note_on,0,0,2,,,,,,,,,1,,,,79,0
168064,note_on,60,0,2,,,,,,,,,1,,,,76,0
168065,note_on,60,0,3,,,,,,,,,2,,,,64,0
168065,note_on,0,0,3,,,,,,,,,2,,,,67,0
168068,note_on,30,0,13,,,,,,,,,12,,,,60,112
168074,note_on,30,0,15,,,,,,,,,14,,,,36,112
168090,note_on,30,0,11,,,,,,,,,10,,,,60,0
168093,note_on,30,0,12,,,,,,,,,11,,,,60,0
168098,note_on,30,0,13,,,,,,,,,12,,,,60,0
168104,note_on,30,0,15,,,,,,,,,14,,,,36,0
168120,control_change,30,0,11,,,,,,,,,10,11,102,,,
168120,set_tempo,120,1,0,,,,,,254237,,,,,,,,
168120,note_on,0,0,11,,,,,,,,,10,,,,72,112
168121,control_change,0,0,1,,,,,,,,,0,11,86,,,
168121,note_on,0,0,1,,,,,,,,,0,,,,84,101
168121,note_on,60,0,1,,,,,,,,,0,,,,79,101
168122,control_change,3120,0,7,,,,,,,,,6,11,102,,,
168123,note_on,30,0,12,,,,,,,,,11,,,,72,112
168123,note_on,0,0,5,,,,,,,,,4,,,,64,100
168123,control_change,3120,0,5,,,,,,,,,4,11,102,,,
168123,control_change,0,0,12,,,,,,,,,11,11,102,,,
168124,note_on,60,0,2,,,,,,,,,1,,,,76,100
168124,control_change,0,0,2,,,,,,,,,1,11,86,,,
168124,note_on,0,0,6,,,,,,,,,5,,,,60,100
168124,note_on,0,0,2,,,,,,,,,1,,,,72,100
168124,control_change,3120,0,6,,,,,,,,,5,11,102,,,
168125,note_on,0,0,3,,,,,,,,,2,,,,72,101
168125,note_on,0,0,3,,,,,,,,,2,,,,67,101
168125,control_change,60,0,3,,,,,,,,,2,11,86,,,
168127,note_on,115,0,14,,,,,,,,,13,,,,60,0
168127,program_change,29,0,13,,,,,,,,50,12,,,,,
168127,control_change,3120,0,8,,,,,,,,,7,11,102,,,
168128,control_change,0,0,13,,,,,,,,,12,11,102,,,
168128,note_on,1,0,13,,,,,,,,,12,,,,72,112
168129,note_on,0,0,4,,,,,,,,,3,,,,64,100
168129,note_on,3120,0,4,,,,,,,,,3,,,,60,100
168129,control_change,0,0,4,,,,,,,,,3,11,97,,,
168132,control_change,0,0,14,,,,,,,,,13,11,102,,,
168132,note_on,5,0,14,,,,,,,,,13,,,,60,112
168133,control_change,3120,0,9,,,,,,,,,8,11,102,,,
168134,control_change,30,0,15,,,,,,,,,14,11,102,,,
168134,note_on,0,0,15,,,,,,,,,14,,,,48,112
168150,note_on,30,0,11,,,,,,,,,10,,,,72,0
168153,note_on,30,0,12,,,,,,,,,11,,,,72,0
168158,note_on,30,0,13,,,,,,,,,12,,,,72,0
168162,note_on,30,0,14,,,,,,,,,13,,,,60,0
168179,note_on,45,0,15,,,,,,,,,14,,,,48,0
168180,note_on,30,0,11,,,,,,,,,10,,,,72,112
168181,note_on,0,0,1,,,,,,,,,0,,,,79,0
168181,note_on,60,0,1,,,,,,,,,0,,,,84,0
168183,note_on,60,0,5,,,,,,,,,4,,,,64,0
168183,note_on,30,0,12,,,,,,,,,11,,,,72,112
168184,note_on,60,0,6,,,,,,,,,5,,,,60,0
168184,note_on,0,0,2,,,,,,,,,1,,,,76,0
168184,note_on,60,0,2,,,,,,,,,1,,,,72,0
168185,note_on,60,0,3,,,,,,,,,2,,,,72,0
168185,note_on,0,0,3,,,,,,,,,2,,,,67,0
168188,note_on,30,0,13,,,,,,,,,12,,,,72,112
168189,note_on,60,0,4,,,,,,,,,3,,,,64,0
168189,note_on,0,0,4,,,,,,,,,3,,,,60,0
168192,note_on,30,0,14,,,,,,,,,13,,,,60,112
168194,note_on,15,0,15,,,,,,,,,14,,,,48,112
168210,note_on,30,0,11,,,,,,,,,10,,,,72,0
168213,note_on,30,0,12,,,,,,,,,11,,,,72,0
168218,note_on,30,0,13,,,,,,,,,12,,,,72,0
168222,note_on,30,0,14,,,,,,,,,13,,,,60,0
168224,note_on,30,0,15,,,,,,,,,14,,,,48,0
168240,note_on,30,0,11,,,,,,,,,10,,,,71,112
168240,set_tempo,120,1,0,,,,,,263158,,,,,,,,
168241,note_on,0,0,1,,,,,,,,,0,,,,84,101
168241,note_on,60,0,1,,,,,,,,,0,,,,79,101
168243,note_on,60,0,5,,,,,,,,,4,,,,64,100
168243,note_on,30,0,12,,,,,,,,,11,,,,71,112
168244,note_on,60,0,2,,,,,,,,,1,,,,76,100
168244,note_on,60,0,6,,,,,,,,,5,,,,60,100
168244,note_on,0,0,2,,,,,,,,,1,,,,72,100
168245,note_on,60,0,3,,,,,,,,,2,,,,72,101
168245,note_on,0,0,3,,,,,,,,,2,,,,67,101
168248,note_on,30,0,13,,,,,,,,,12,,,,71,112
168249,note_on,0,0,4,,,,,,,,,3,,,,64,100
168249,note_on,60,0,4,,,,,,,,,3,,,,60,100
168252,note_on,30,0,14,,,,,,,,,13,,,,59,112
168254,note_on,30,0,15,,,,,,,,,14,,,,47,112
168270,note_on,30,0,11,,,,,,,,,10,,,,71,0
168273,note_on,30,0,12,,,,,,,,,11,,,,71,0
168278,note_on,30,0,13,,,,,,,,,12,,,,71,0
168282,note_on,30,0,14,,,,,,,,,13,,,,59,0
168284,note_on,30,0,15,,,,,,,,,14,,,,47,0
168300,note_on,30,0,11,,,,,,,,,10,,,,72,112
168301,note_on,60,0,1,,,,,,,,,0,,,,84,0
168301,note_on,0,0,1,,,,,,,,,0,,,,79,0
168303,note_on,60,0,5,,,,,,,,,4,,,,64,0
168303,note_on,30,0,12,,,,,,,,,11,,,,72,112
168304,note_on,0,0,2,,,,,,,,,1,,,,76,0
168304,note_on,60,0,6,,,,,,,,,5,,,,60,0
168304,note_on,60,0,2,,,,,,,,,1,,,,72,0
168305,note_on,0,0,3,,,,,,,,,2,,,,72,0
168305,note_on,60,0,3,,,,,,,,,2,,,,67,0
168308,note_on,30,0,13,,,,,,,,,12,,,,72,112
168309,note_on,60,0,4,,,,,,,,,3,,,,64,0
168309,note_on,0,0,4,,,,,,,,,3,,,,60,0
168312,note_on,30,0,14,,,,,,,,,13,,,,60,112
168314,note_on,30,0,15,,,,,,,,,14,,,,48,112
168330,note_on,30,0,11,,,,,,,,,10,,,,72,0
168333,note_on,30,0,12,,,,,,,,,11,,,,72,0
168338,note_on,30,0,13,,,,,,,,,12,,,,72,0
168342,note_on,30,0,14,,,,,,,,,13,,,,60,0
168344,note_on,30,0,15,,,,,,,,,14,,,,48,0
168360,note_on,30,0,11,,,,,,,,,10,,,,71,112
168360,set_tempo,120,1,0,,,,,,279070,,,,,,,,
168362,note_on,0,0,7,,,,,,,,,6,,,,60,112
168362,note_on,240,0,7,,,,,,,,,6,,,,72,112
168363,note_on,30,0,12,,,,,,,,,11,,,,71,112
168368,note_on,30,0,13,,,,,,,,,12,,,,71,112
168372,note_on,30,0,14,,,,,,,,,13,,,,59,112
168374,note_on,30,0,15,,,,,,,,,14,,,,47,112
168375,note_on,480,0,10,,,,,,,,,15,,,,48,100
168390,note_on,30,0,11,,,,,,,,,10,,,,71,0
168393,note_on,30,0,12,,,,,,,,,11,,,,71,0
168398,note_on,30,0,13,,,,,,,,,12,,,,71,0
168402,note_on,30,0,14,,,,,,,,,13,,,,59,0
168404,note_on,30,0,15,,,,,,,,,14,,,,47,0
168420,note_on,30,0,11,,,,,,,,,10,,,,69,112
168423,note_on,30,0,12,,,,,,,,,11,,,,69,112
168428,note_on,30,0,13,,,,,,,,,12,,,,69,112
168432,note_on,30,0,14,,,,,,,,,13,,,,57,112
168434,note_on,30,0,15,,,,,,,,,14,,,,45,112
168450,note_on,30,0,11,,,,,,,,,10,,,,69,0
168453,note_on,30,0,12,,,,,,,,,11,,,,69,0
168458,note_on,30,0,13,,,,,,,,,12,,,,69,0
168462,note_on,30,0,14,,,,,,,,,13,,,,57,0
168464,note_on,30,0,15,,,,,,,,,14,,,,45,0
168480,control_change,0,0,11,,,,,,,,,10,11,122,,,
168480,note_on,30,0,11,,,,,,,,,10,,,,67,112
168480,set_tempo,120,1,0,,,,,,254237,,,,,,,,
168481,note_on,0,0,1,,,,,,,,,0,,,,83,116
168481,note_on,180,0,1,,,,,,,,,0,,,,86,116
168482,note_on,0,0,7,,,,,,,,,6,,,,72,0
168482,note_on,120,0,7,,,,,,,,,6,,,,60,0
168483,note_on,180,0,5,,,,,,,,,4,,,,67,115
168483,control_change,0,0,12,,,,,,,,,11,11,122,,,
168483,note_on,30,0,12,,,,,,,,,11,,,,67,112
168484,note_on,0,0,2,,,,,,,,,1,,,,74,115
168484,note_on,180,0,2,,,,,,,,,1,,,,79,115
168484,control_change,4,0,11,,,,,,,,,10,11,119,,,
168484,note_on,180,0,6,,,,,,,,,5,,,,55,115
168485,note_on,0,0,3,,,,,,,,,2,,,,71,116
168485,note_on,180,0,3,,,,,,,,,2,,,,74,116
168487,control_change,4,0,12,,,,,,,,,11,11,119,,,
168488,note_on,0,0,13,,,,,,,,,12,,,,67,112
168488,control_change,30,0,13,,,,,,,,,12,11,122,,,
168489,note_on,0,0,4,,,,,,,,,3,,,,59,115
168489,note_on,180,0,4,,,,,,,,,3,,,,62,115
168489,control_change,5,0,11,,,,,,,,,10,11,116,,,
168492,control_change,5,0,12,,,,,,,,,11,11,116,,,
168492,note_on,30,0,14,,,,,,,,,13,,,,55,112
168492,control_change,0,0,14,,,,,,,,,13,11,122,,,
168492,control_change,4,0,13,,,,,,,,,12,11,119,,,
168493,control_change,4,0,11,,,,,,,,,10,11,113,,,
168494,control_change,0,0,15,,,,,,,,,14,11,122,,,
168494,note_on,30,0,15,,,,,,,,,14,,,,43,112
168495,note_on,120,0,10,,,,,,,,,15,,,,48,0
168496,control_change,4,0,14,,,,,,,,,13,11,119,,,
168496,control_change,4,0,12,,,,,,,,,11,11,113,,,
168497,control_change,5,0,13,,,,,,,,,12,11,116,,,
168498,control_change,4,0,15,,,,,,,,,14,11,119,,,
168498,control_change,5,0,11,,,,,,,,,10,11,110,,,
168501,control_change,5,0,14,,,,,,,,,13,11,116,,,
168501,control_change,5,0,12,,,,,,,,,11,11,110,,,
168501,control_change,4,0,13,,,,,,,,,12,11,113,,,
168502,control_change,4,0,11,,,,,,,,,10,11,107,,,
168503,control_change,5,0,15,,,,,,,,,14,11,116,,,
168505,control_change,4,0,14,,,,,,,,,13,11,113,,,
168505,control_change,4,0,12,,,,,,,,,11,11,107,,,
168506,control_change,5,0,13,,,,,,,,,12,11,110,,,
168507,control_change,5,0,11,,,,,,,,,10,11,104,,,
168507,control_change,4,0,15,,,,,,,,,14,11,113,,,
168510,control_change,5,0,12,,,,,,,,,11,11,104,,,
168510,control_change,5,0,14,,,,,,,,,13,11,110,,,
168510,control_change,4,0,13,,,,,,,,,12,11,107,,,
168510,note_on,3,0,11,,,,,,,,,10,,,,67,0
168512,control_change,5,0,15,,,,,,,,,14,11,110,,,
168513,note_on,3,0,12,,,,,,,,,11,,,,67,0
168514,control_change,4,0,14,,,,,,,,,13,11,107,,,
168515,control_change,5,0,13,,,,,,,,,12,11,104,,,
168516,control_change,4,0,15,,,,,,,,,14,11,107,,,
168518,note_on,3,0,13,,,,,,,,,12,,,,67,0
168519,control_change,5,0,14,,,,,,,,,13,11,104,,,
168521,control_change,5,0,15,,,,,,,,,14,11,104,,,
168522,note_on,3,0,14,,,,,,,,,13,,,,55,0
168524,note_on,3,0,15,,,,,,,,,14,,,,43,0
168540,note_on,30,0,11,,,,,,,,,10,,,,67,112
168541,note_on,0,0,1,,,,,,,,,0,,,,86,0
168541,note_on,60,0,1,,,,,,,,,0,,,,83,0
168543,note_on,60,0,5,,,,,,,,,4,,,,67,0
168543,note_on,30,0,12,,,,,,,,,11,,,,67,112
168544,note_on,60,0,6,,,,,,,,,5,,,,55,0
168544,note_on,60,0,2,,,,,,,,,1,,,,74,0
168544,note_on,0,0,2,,,,,,,,,1,,,,79,0
168545,note_on,0,0,3,,,,,,,,,2,,,,74,0
168545,note_on,60,0,3,,,,,,,,,2,,,,71,0
168548,note_on,30,0,13,,,,,,,,,12,,,,67,112
168549,note_on,0,0,4,,,,,,,,,3,,,,62,0
168549,note_on,60,0,4,,,,,,,,,3,,,,59,0
168552,note_on,30,0,14,,,,,,,,,13,,,,55,112
168554,note_on,30,0,15,,,,,,,,,14,,,,43,112
168570,note_on,30,0,11,,,,,,,,,10,,,,67,0
168573,note_on,30,0,12,,,,,,,,,11,,,,67,0
168578,note_on,30,0,13,,,,,,,,,12,,,,67,0
168582,note_on,30,0,14,,,,,,,,,13,,,,55,0
168584,note_on,30,0,15,,,,,,,,,14,,,,43,0
168600,set_tempo,120,1,0,,,,,,263158,,,,,,,,
168600,note_on,30,0,11,,,,,,,,,10,,,,66,112
168601,note_on,0,0,1,,,,,,,,,0,,,,86,101
168601,note_on,60,0,1,,,,,,,,,0,,,,82,101
168603,note_on,60,0,5,,,,,,,,,4,,,,67,100
168603,note_on,30,0,12,,,,,,,,,11,,,,66,112
168604,note_on,0,0,2,,,,,,,,,1,,,,74,100
168604,note_on,60,0,2,,,,,,,,,1,,,,79,100
168604,note_on,60,0,6,,,,,,,,,5,,,,55,100
168605,note_on,60,0,3,,,,,,,,,2,,,,74,101
168605,note_on,0,0,3,,,,,,,,,2,,,,70,101
168608,note_on,30,0,13,,,,,,,,,12,,,,66,112
168609,note_on,0,0,4,,,,,,,,,3,,,,58,100
168609,note_on,60,0,4,,,,,,,,,3,,,,62,100
168612,note_on,30,0,14,,,,,,,,,13,,,,54,112
168614,note_on,30,0,15,,,,,,,,,14,,,,42,112
168630,note_on,30,0,11,,,,,,,,,10,,,,66,0
168633,note_on,30,0,12,,,,,,,,,11,,,,66,0
168638,note_on,30,0,13,,,,,,,,,12,,,,66,0
168642,note_on,30,0,14,,,,,,,,,13,,,,54,0
168644,note_on,30,0,15,,,,,,,,,14,,,,42,0
168660,note_on,30,0,11,,,,,,,,,10,,,,67,112
168661,note_on,60,0,1,,,,,,,,,0,,,,86,0
168661,note_on,0,0,1,,,,,,,,,0,,,,82,0
168663,note_on,60,0,5,,,,,,,,,4,,,,67,0
168663,note_on,30,0,12,,,,,,,,,11,,,,67,112
168664,note_on,0,0,2,,,,,,,,,1,,,,79,0
168664,note_on,60,0,2,,,,,,,,,1,,,,74,0
168664,note_on,60,0,6,,,,,,,,,5,,,,55,0
168665,note_on,60,0,3,,,,,,,,,2,,,,70,0
168665,note_on,0,0,3,,,,,,,,,2,,,,74,0
168668,note_on,30,0,13,,,,,,,,,12,,,,67,112
168669,note_on,0,0,4,,,,,,,,,3,,,,62,0
168669,note_on,60,0,4,,,,,,,,,3,,,,58,0
168672,note_on,30,0,14,,,,,,,,,13,,,,55,112
168674,note_on,30,0,15,,,,,,,,,14,,,,43,112
168690,note_on,30,0,11,,,,,,,,,10,,,,67,0
168693,note_on,30,0,12,,,,,,,,,11,,,,67,0
168698,note_on,30,0,13,,,,,,,,,12,,,,67,0
168702,note_on,30,0,14,,,,,,,,,13,,,,55,0
168704,note_on,30,0,15,,,,,,,,,14,,,,43,0
168720,note_on,30,0,11,,,,,,,,,10,,,,65,112
168720,set_tempo,120,1,0,,,,,,279070,,,,,,,,
168722,note_on,0,0,7,,,,,,,,,6,,,,55,112
168722,note_on,240,0,7,,,,,,,,,6,,,,67,112
168723,note_on,30,0,12,,,,,,,,,11,,,,65,112
168728,note_on,30,0,13,,,,,,,,,12,,,,65,112
168732,note_on,30,0,14,,,,,,,,,13,,,,53,112
168734,note_on,30,0,15,,,,,,,,,14,,,,41,112
168735,note_on,240,0,10,,,,,,,,,15,,,,43,100
168750,note_on,30,0,11,,,,,,,,,10,,,,65,0
168753,note_on,30,0,12,,,,,,,,,11,,,,65,0
168758,note_on,30,0,13,,,,,,,,,12,,,,65,0
168762,note_on,30,0,14,,,,,,,,,13,,,,53,0
168764,note_on,30,0,15,,,,,,,,,14,,,,41,0
168780,note_on,30,0,11,,,,,,,,,10,,,,64,112
168783,note_on,30,0,12,,,,,,,,,11,,,,64,112
168788,note_on,30,0,13,,,,,,,,,12,,,,64,112
168792,note_on,30,0,14,,,,,,,,,13,,,,52,112
168794,note_on,30,0,15,,,,,,,,,14,,,,40,112
168810,note_on,30,0,11,,,,,,,,,10,,,,64,0
168813,note_on,30,0,12,,,,,,,,,11,,,,64,0
168818,note_on,30,0,13,,,,,,,,,12,,,,64,0
168822,note_on,30,0,14,,,,,,,,,13,,,,52,0
168824,note_on,30,0,15,,,,,,,,,14,,,,40,0
168840,set_tempo,120,1,0,,,,,,254237,,,,,,,,
168840,note_on,30,0,11,,,,,,,,,10,,,,62,112
168840,control_change,0,0,11,,,,,,,,,10,11,122,,,
168841,note_on,0,0,1,,,,,,,,,0,,,,86,116
168841,note_on,180,0,1,,,,,,,,,0,,,,81,116
168842,note_on,0,0,7,,,,,,,,,6,,,,67,0
168842,note_on,120,0,7,,,,,,,,,6,,,,55,0
168843,note_on,30,0,12,,,,,,,,,11,,,,62,112
168843,control_change,0,0,12,,,,,,,,,11,11,122,,,
168843,note_on,180,0,5,,,,,,,,,4,,,,62,115
168844,control_change,4,0,11,,,,,,,,,10,11,119,,,
168844,note_on,180,0,6,,,,,,,,,5,,,,62,115
168844,note_on,180,0,2,,,,,,,,,1,,,,74,115
168844,note_on,0,0,2,,,,,,,,,1,,,,78,115
168845,note_on,0,0,3,,,,,,,,,2,,,,74,116
168845,note_on,180,0,3,,,,,,,,,2,,,,69,116
168847,control_change,4,0,12,,,,,,,,,11,11,119,,,
168848,note_on,0,0,13,,,,,,,,,12,,,,62,112
168848,control_change,30,0,13,,,,,,,,,12,11,122,,,
168849,control_change,5,0,11,,,,,,,,,10,11,116,,,
168849,note_on,180,0,4,,,,,,,,,3,,,,66,115
168849,note_on,0,0,4,,,,,,,,,3,,,,57,115
168852,control_change,5,0,12,,,,,,,,,11,11,116,,,
168852,control_change,30,0,14,,,,,,,,,13,11,122,,,
168852,note_on,0,0,14,,,,,,,,,13,,,,50,112
168852,control_change,4,0,13,,,,,,,,,12,11,119,,,
168853,control_change,4,0,11,,,,,,,,,10,11,113,,,
168854,note_on,0,0,15,,,,,,,,,14,,,,38,112
168854,control_change,30,0,15,,,,,,,,,14,11,122,,,
168855,note_on,120,0,10,,,,,,,,,15,,,,43,0
168856,control_change,4,0,12,,,,,,,,,11,11,113,,,
168856,control_change,4,0,14,,,,,,,,,13,11,119,,,
168857,control_change,5,0,13,,,,,,,,,12,11,116,,,
168858,control_change,4,0,15,,,,,,,,,14,11,119,,,
168858,control_change,5,0,11,,,,,,,,,10,11,110,,,
168861,control_change,5,0,12,,,,,,,,,11,11,110,,,
168861,control_change,5,0,14,,,,,,,,,13,11,116,,,
168861,control_change,4,0,13,,,,,,,,,12,11,113,,,
168862,control_change,4,0,11,,,,,,,,,10,11,107,,,
168863,control_change,5,0,15,,,,,,,,,14,11,116,,,
168865,control_change,4,0,12,,,,,,,,,11,11,107,,,
168865,control_change,4,0,14,,,,,,,,,13,11,113,,,
168866,control_change,5,0,13,,,,,,,,,12,11,110,,,
168867,control_change,4,0,15,,,,,,,,,14,11,113,,,
168867,control_change,5,0,11,,,,,,,,,10,11,104,,,
168870,control_change,5,0,14,,,,,,,,,13,11,110,,,
168870,control_change,5,0,12,,,,,,,,,11,11,104,,,
168870,control_change,4,0,13,,,,,,,,,12,11,107,,,
168870,note_on,3,0,11,,,,,,,,,10,,,,62,0
168872,control_change,5,0,15,,,,,,,,,14,11,110,,,
168873,note_on,3,0,12,,,,,,,,,11,,,,62,0
168874,control_change,4,0,14,,,,,,,,,13,11,107,,,
168875,control_change,5,0,13,,,,,,,,,12,11,104,,,
168876,control_change,4,0,15,,,,,,,,,14,11,107,,,
168878,note_on,3,0,13,,,,,,,,,12,,,,62,0
168879,control_change,5,0,14,,,,,,,,,13,11,104,,,
168881,control_change,5,0,15,,,,,,,,,14,11,104,,,
168882,note_on,3,0,14,,,,,,,,,13,,,,50,0
168884,note_on,3,0,15,,,,,,,,,14,,,,38,0
168900,note_on,30,0,11,,,,,,,,,10,,,,62,112
168901,note_on,60,0,1,,,,,,,,,0,,,,86,0
168901,note_on,0,0,1,,,,,,,,,0,,,,81,0
168903,note_on,30,0,12,,,,,,,,,11,,,,62,112
168903,note_on,60,0,5,,,,,,,,,4,,,,62,0
168904,note_on,60,0,2,,,,,,,,,1,,,,78,0
168904,note_on,0,0,2,,,,,,,,,1,,,,74,0
168904,note_on,60,0,6,,,,,,,,,5,,,,62,0
168905,note_on,60,0,3,,,,,,,,,2,,,,74,0
168905,note_on,0,0,3,,,,,,,,,2,,,,69,0
168908,note_on,30,0,13,,,,,,,,,12,,,,62,112
168909,note_on,60,0,4,,,,,,,,,3,,,,57,0
168909,note_on,0,0,4,,,,,,,,,3,,,,66,0
168912,note_on,30,0,14,,,,,,,,,13,,,,50,112
168914,note_on,30,0,15,,,,,,,,,14,,,,38,112
168930,note_on,30,0,11,,,,,,,,,10,,,,62,0
168933,note_on,30,0,12,,,,,,,,,11,,,,62,0
168938,note_on,30,0,13,,,,,,,,,12,,,,62,0
168942,note_on,30,0,14,,,,,,,,,13,,,,50,0
168944,note_on,30,0,15,,,,,,,,,14,,,,38,0
168960,set_tempo,120,1,0,,,,,,263158,,,,,,,,
168960,note_on,30,0,11,,,,,,,,,10,,,,61,112
168961,note_on,60,0,1,,,,,,,,,0,,,,86,101
168961,note_on,0,0,1,,,,,,,,,0,,,,81,101
168963,note_on,60,0,5,,,,,,,,,4,,,,62,100
168963,note_on,30,0,12,,,,,,,,,11,,,,61,112
168964,note_on,60,0,6,,,,,,,,,5,,,,62,100
168964,note_on,0,0,2,,,,,,,,,1,,,,74,100
168964,note_on,60,0,2,,,,,,,,,1,,,,77,100
168965,note_on,0,0,3,,,,,,,,,2,,,,74,101
168965,note_on,60,0,3,,,,,,,,,2,,,,69,101
168968,note_on,30,0,13,,,,,,,,,12,,,,61,112
168969,note_on,60,0,4,,,,,,,,,3,,,,65,100
168969,note_on,0,0,4,,,,,,,,,3,,,,57,100
168972,note_on,30,0,14,,,,,,,,,13,,,,49,112
168974,note_on,30,0,15,,,,,,,,,14,,,,37,112
168990,note_on,30,0,11,,,,,,,,,10,,,,61,0
168993,note_on,30,0,12,,,,,,,,,11,,,,61,0
168998,note_on,30,0,13,,,,,,,,,12,,,,61,0
169002,note_on,30,0,14,,,,,,,,,13,,,,49,0
169004,note_on,30,0,15,,,,,,,,,14,,,,37,0
169020,note_on,30,0,11,,,,,,,,,10,,,,62,112
169021,note_on,60,0,1,,,,,,,,,0,,,,81,0
169021,note_on,0,0,1,,,,,,,,,0,,,,86,0
169023,note_on,30,0,12,,,,,,,,,11,,,,62,112
169023,note_on,60,0,5,,,,,,,,,4,,,,62,0
169024,note_on,60,0,2,,,,,,,,,1,,,,74,0
169024,note_on,0,0,2,,,,,,,,,1,,,,77,0
169024,note_on,60,0,6,,,,,,,,,5,,,,62,0
169025,note_on,60,0,3,,,,,,,,,2,,,,74,0
169025,note_on,0,0,3,,,,,,,,,2,,,,69,0
169028,note_on,30,0,13,,,,,,,,,12,,,,62,112
169029,note_on,0,0,4,,,,,,,,,3,,,,65,0
169029,note_on,60,0,4,,,,,,,,,3,,,,57,0
169032,note_on,30,0,14,,,,,,,,,13,,,,50,112
169034,note_on,30,0,15,,,,,,,,,14,,,,38,112
169050,note_on,30,0,11,,,,,,,,,10,,,,62,0
169053,note_on,30,0,12,,,,,,,,,11,,,,62,0
169058,note_on,30,0,13,,,,,,,,,12,,,,62,0
169062,note_on,30,0,14,,,,,,,,,13,,,,50,0
169064,note_on,30,0,15,,,,,,,,,14,,,,38,0
169080,set_tempo,120,1,0,,,,,,279070,,,,,,,,
169080,note_on,30,0,11,,,,,,,,,10,,,,60,112
169083,note_on,30,0,12,,,,,,,,,11,,,,60,112
169087,note_on,0,0,8,,,,,,,,,7,,,,62,110
169087,note_on,960,0,8,,,,,,,,,7,,,,50,110
169088,note_on,30,0,13,,,,,,,,,12,,,,60,112
169092,note_on,30,0,14,,,,,,,,,13,,,,48,112
169093,note_on,960,0,9,,,,,,,,,8,,,,50,110
169094,note_on,30,0,15,,,,,,,,,14,,,,36,112
169110,note_on,30,0,11,,,,,,,,,10,,,,60,0
169113,note_on,30,0,12,,,,,,,,,11,,,,60,0
169118,note_on,30,0,13,,,,,,,,,12,,,,60,0
169122,note_on,30,0,14,,,,,,,,,13,,,,48,0
169124,note_on,30,0,15,,,,,,,,,14,,,,36,0
169140,note_on,30,0,11,,,,,,,,,10,,,,59,112
169143,note_on,30,0,12,,,,,,,,,11,,,,59,112
169148,note_on,30,0,13,,,,,,,,,12,,,,59,112
169152,note_on,30,0,14,,,,,,,,,13,,,,47,112
169154,note_on,30,0,15,,,,,,,,,14,,,,35,112
169170,note_on,30,0,11,,,,,,,,,10,,,,59,0
169173,note_on,30,0,12,,,,,,,,,11,,,,59,0
169178,note_on,30,0,13,,,,,,,,,12,,,,59,0
169182,note_on,30,0,14,,,,,,,,,13,,,,47,0
169184,note_on,30,0,15,,,,,,,,,14,,,,35,0
169200,note_on,30,0,11,,,,,,,,,10,,,,57,112
169200,control_change,0,0,11,,,,,,,,,10,11,122,,,
169200,set_tempo,120,1,0,,,,,,254237,,,,,,,,
169201,note_on,180,0,1,,,,,,,,,0,,,,88,116
169201,note_on,0,0,1,,,,,,,,,0,,,,85,116
169203,note_on,180,0,5,,,,,,,,,4,,,,64,115
169203,control_change,0,0,12,,,,,,,,,11,11,122,,,
169203,note_on,30,0,12,,,,,,,,,11,,,,57,112
169204,note_on,0,0,2,,,,,,,,,1,,,,76,115
169204,note_on,180,0,2,,,,,,,,,1,,,,81,115
169204,note_on,180,0,6,,,,,,,,,5,,,,64,115
169204,control_change,4,0,11,,,,,,,,,10,11,119,,,
169205,note_on,180,0,3,,,,,,,,,2,,,,73,116
169205,note_on,0,0,3,,,,,,,,,2,,,,76,116
169207,note_on,0,0,8,,,,,,,,,7,,,,50,0
169207,note_on,120,0,8,,,,,,,,,7,,,,62,0
169207,control_change,4,0,12,,,,,,,,,11,11,119,,,
169208,note_on,30,0,13,,,,,,,,,12,,,,57,112
169208,control_change,0,0,13,,,,,,,,,12,11,122,,,
169209,control_change,5,0,11,,,,,,,,,10,11,116,,,
169209,note_on,180,0,4,,,,,,,,,3,,,,61,115
169209,note_on,0,0,4,,,,,,,,,3,,,,57,115
169212,control_change,4,0,13,,,,,,,,,12,11,119,,,
169212,note_on,30,0,14,,,,,,,,,13,,,,45,112
169212,control_change,0,0,14,,,,,,,,,13,11,122,,,
169212,control_change,5,0,12,,,,,,,,,11,11,116,,,
169213,note_on,120,0,9,,,,,,,,,8,,,,50,0
169213,control_change,4,0,11,,,,,,,,,10,11,113,,,
169214,note_on,0,0,15,,,,,,,,,14,,,,33,112
169214,control_change,30,0,15,,,,,,,,,14,11,122,,,
169216,control_change,4,0,14,,,,,,,,,13,11,119,,,
169216,control_change,4,0,12,,,,,,,,,11,11,113,,,
169217,control_change,5,0,13,,,,,,,,,12,11,116,,,
169218,control_change,5,0,11,,,,,,,,,10,11,110,,,
169218,control_change,4,0,15,,,,,,,,,14,11,119,,,
169221,control_change,5,0,14,,,,,,,,,13,11,116,,,
169221,control_change,5,0,12,,,,,,,,,11,11,110,,,
169221,control_change,4,0,13,,,,,,,,,12,11,113,,,
169222,control_change,4,0,11,,,,,,,,,10,11,107,,,
169223,control_change,5,0,15,,,,,,,,,14,11,116,,,
169225,control_change,4,0,12,,,,,,,,,11,11,107,,,
169225,control_change,4,0,14,,,,,,,,,13,11,113,,,
169226,control_change,5,0,13,,,,,,,,,12,11,110,,,
169227,control_change,5,0,11,,,,,,,,,10,11,104,,,
169227,control_change,4,0,15,,,,,,,,,14,11,113,,,
169230,control_change,5,0,12,,,,,,,,,11,11,104,,,
169230,control_change,5,0,14,,,,,,,,,13,11,110,,,
169230,control_change,4,0,13,,,,,,,,,12,11,107,,,
169230,note_on,3,0,11,,,,,,,,,10,,,,57,0
169232,control_change,5,0,15,,,,,,,,,14,11,110,,,
169233,note_on,3,0,12,,,,,,,,,11,,,,57,0
169234,control_change,4,0,14,,,,,,,,,13,11,107,,,
169235,control_change,5,0,13,,,,,,,,,12,11,104,,,
169236,control_change,4,0,15,,,,,,,,,14,11,107,,,
169238,note_on,3,0,13,,,,,,,,,12,,,,57,0
169239,control_change,5,0,14,,,,,,,,,13,11,104,,,
169241,control_change,5,0,15,,,,,,,,,14,11,104,,,
169242,note_on,3,0,14,,,,,,,,,13,,,,45,0
169244,note_on,3,0,15,,,,,,,,,14,,,,33,0
169260,note_on,30,0,11,,,,,,,,,10,,,,69,112
169261,note_on,0,0,1,,,,,,,,,0,,,,88,0
169261,note_on,60,0,1,,,,,,,,,0,,,,85,0
169263,note_on,60,0,5,,,,,,,,,4,,,,64,0
169263,note_on,30,0,12,,,,,,,,,11,,,,69,112
169264,note_on,60,0,6,,,,,,,,,5,,,,64,0
169264,note_on,0,0,2,,,,,,,,,1,,,,81,0
169264,note_on,60,0,2,,,,,,,,,1,,,,76,0
169265,note_on,60,0,3,,,,,,,,,2,,,,76,0
169265,note_on,0,0,3,,,,,,,,,2,,,,73,0
169268,note_on,30,0,13,,,,,,,,,12,,,,69,112
169269,note_on,60,0,4,,,,,,,,,3,,,,57,0
169269,note_on,0,0,4,,,,,,,,,3,,,,61,0
169272,note_on,30,0,14,,,,,,,,,13,,,,57,112
169274,note_on,30,0,15,,,,,,,,,14,,,,45,112
169290,note_on,30,0,11,,,,,,,,,10,,,,69,0
169293,note_on,30,0,12,,,,,,,,,11,,,,69,0
169298,note_on,30,0,13,,,,,,,,,12,,,,69,0
169302,note_on,30,0,14,,,,,,,,,13,,,,57,0
169304,note_on,30,0,15,,,,,,,,,14,,,,45,0
169320,set_tempo,120,1,0,,,,,,263158,,,,,,,,
169320,note_on,30,0,11,,,,,,,,,10,,,,68,112
169321,note_on,0,0,1,,,,,,,,,0,,,,84,101
169321,note_on,60,0,1,,,,,,,,,0,,,,88,101
169323,note_on,30,0,12,,,,,,,,,11,,,,68,112
169323,note_on,60,0,5,,,,,,,,,4,,,,64,100
169324,note_on,60,0,2,,,,,,,,,1,,,,76,100
169324,note_on,60,0,6,,,,,,,,,5,,,,64,100
169324,note_on,0,0,2,,,,,,,,,1,,,,81,100
169325,note_on,60,0,3,,,,,,,,,2,,,,72,101
169325,note_on,0,0,3,,,,,,,,,2,,,,76,101
169328,note_on,30,0,13,,,,,,,,,12,,,,68,112
169329,note_on,0,0,4,,,,,,,,,3,,,,60,100
169329,note_on,60,0,4,,,,,,,,,3,,,,57,100
169332,note_on,30,0,14,,,,,,,,,13,,,,56,112
169334,note_on,30,0,15,,,,,,,,,14,,,,44,112
169350,note_on,30,0,11,,,,,,,,,10,,,,68,0
169353,note_on,30,0,12,,,,,,,,,11,,,,68,0
169358,note_on,30,0,13,,,,,,,,,12,,,,68,0
169362,note_on,30,0,14,,,,,,,,,13,,,,56,0
169364,note_on,30,0,15,,,,,,,,,14,,,,44,0
169380,note_on,30,0,11,,,,,,,,,10,,,,69,112
169381,note_on,0,0,1,,,,,,,,,0,,,,88,0
169381,note_on,60,0,1,,,,,,,,,0,,,,84,0
169383,note_on,30,0,12,,,,,,,,,11,,,,69,112
169383,note_on,60,0,5,,,,,,,,,4,,,,64,0
169384,note_on,60,0,2,,,,,,,,,1,,,,81,0
169384,note_on,60,0,6,,,,,,,,,5,,,,64,0
169384,note_on,0,0,2,,,,,,,,,1,,,,76,0
169385,note_on,0,0,3,,,,,,,,,2,,,,72,0
169385,note_on,60,0,3,,,,,,,,,2,,,,76,0
169388,note_on,30,0,13,,,,,,,,,12,,,,69,112
169389,note_on,60,0,4,,,,,,,,,3,,,,60,0
169389,note_on,0,0,4,,,,,,,,,3,,,,57,0
169392,note_on,30,0,14,,,,,,,,,13,,,,57,112
169394,note_on,30,0,15,,,,,,,,,14,,,,45,112
169410,note_on,30,0,11,,,,,,,,,10,,,,69,0
169413,note_on,30,0,12,,,,,,,,,11,,,,69,0
169418,note_on,30,0,13,,,,,,,,,12,,,,69,0
169422,note_on,30,0,14,,,,,,,,,13,,,,57,0
169424,note_on,30,0,15,,,,,,,,,14,,,,45,0
169440,set_tempo,120,1,0,,,,,,279070,,,,,,,,
169440,note_on,30,0,11,,,,,,,,,10,,,,67,112
169443,note_on,30,0,12,,,,,,,,,11,,,,67,112
169447,note_on,240,0,8,,,,,,,,,7,,,,57,110
169448,note_on,30,0,13,,,,,,,,,12,,,,67,112
169452,note_on,30,0,14,,,,,,,,,13,,,,55,112
169453,note_on,240,0,9,,,,,,,,,8,,,,45,110
169454,note_on,30,0,15,,,,,,,,,14,,,,43,112
169470,note_on,30,0,11,,,,,,,,,10,,,,67,0
169473,note_on,30,0,12,,,,,,,,,11,,,,67,0
169478,note_on,30,0,13,,,,,,,,,12,,,,67,0
169482,note_on,30,0,14,,,,,,,,,13,,,,55,0
169484,note_on,30,0,15,,,,,,,,,14,,,,43,0
169500,note_on,30,0,11,,,,,,,,,10,,,,65,112
169503,note_on,30,0,12,,,,,,,,,11,,,,65,112
169508,note_on,30,0,13,,,,,,,,,12,,,,65,112
169512,note_on,30,0,14,,,,,,,,,13,,,,53,112
169514,note_on,30,0,15,,,,,,,,,14,,,,41,112
169530,note_on,30,0,11,,,,,,,,,10,,,,65,0
169533,note_on,30,0,12,,,,,,,,,11,,,,65,0
169538,note_on,30,0,13,,,,,,,,,12,,,,65,0
169542,note_on,30,0,14,,,,,,,,,13,,,,53,0
169544,note_on,30,0,15,,,,,,,,,14,,,,41,0
169560,note_on,30,0,11,,,,,,,,,10,,,,64,112
169560,control_change,0,0,11,,,,,,,,,10,11,122,,,
169560,set_tempo,120,1,0,,,,,,254237,,,,,,,,
169561,note_on,0,0,1,,,,,,,,,0,,,,88,116
169561,note_on,180,0,1,,,,,,,,,0,,,,83,116
169563,note_on,180,0,5,,,,,,,,,4,,,,64,115
169563,control_change,0,0,12,,,,,,,,,11,11,122,,,
169563,note_on,30,0,12,,,,,,,,,11,,,,64,112
169564,note_on,180,0,6,,,,,,,,,5,,,,52,115
169564,note_on,180,0,2,,,,,,,,,1,,,,76,115
169564,control_change,4,0,11,,,,,,,,,10,11,119,,,
169564,note_on,0,0,2,,,,,,,,,1,,,,80,115
169565,note_on,0,0,3,,,,,,,,,2,,,,68,116
169565,note_on,180,0,3,,,,,,,,,2,,,,71,116
169567,note_on,120,0,8,,,,,,,,,7,,,,57,0
169567,control_change,4,0,12,,,,,,,,,11,11,119,,,
169568,control_change,0,0,13,,,,,,,,,12,11,122,,,
169568,note_on,30,0,13,,,,,,,,,12,,,,64,112
169569,note_on,0,0,4,,,,,,,,,3,,,,56,115
169569,note_on,180,0,4,,,,,,,,,3,,,,59,115
169569,control_change,5,0,11,,,,,,,,,10,11,116,,,
169572,control_change,0,0,14,,,,,,,,,13,11,122,,,
169572,note_on,30,0,14,,,,,,,,,13,,,,52,112
169572,control_change,5,0,12,,,,,,,,,11,11,116,,,
169572,control_change,4,0,13,,,,,,,,,12,11,119,,,
169573,note_on,120,0,9,,,,,,,,,8,,,,45,0
169573,control_change,4,0,11,,,,,,,,,10,11,113,,,
169574,note_on,30,0,15,,,,,,,,,14,,,,40,112
169574,control_change,0,0,15,,,,,,,,,14,11,122,,,
169576,control_change,4,0,14,,,,,,,,,13,11,119,,,
169576,control_change,4,0,12,,,,,,,,,11,11,113,,,
169577,control_change,5,0,13,,,,,,,,,12,11,116,,,
169578,control_change,5,0,11,,,,,,,,,10,11,110,,,
169578,control_change,4,0,15,,,,,,,,,14,11,119,,,
169581,control_change,5,0,14,,,,,,,,,13,11,116,,,
169581,control_change,4,0,13,,,,,,,,,12,11,113,,,
169581,control_change,5,0,12,,,,,,,,,11,11,110,,,
169582,control_change,4,0,11,,,,,,,,,10,11,107,,,
169583,control_change,5,0,15,,,,,,,,,14,11,116,,,
169585,control_change,4,0,14,,,,,,,,,13,11,113,,,
169585,control_change,4,0,12,,,,,,,,,11,11,107,,,
169586,control_change,5,0,13,,,,,,,,,12,11,110,,,
169587,control_change,5,0,11,,,,,,,,,10,11,104,,,
169587,control_change,4,0,15,,,,,,,,,14,11,113,,,
169590,note_on,3,0,11,,,,,,,,,10,,,,64,0
169590,control_change,5,0,14,,,,,,,,,13,11,110,,,
169590,control_change,4,0,13,,,,,,,,,12,11,107,,,
169590,control_change,5,0,12,,,,,,,,,11,11,104,,,
169592,control_change,5,0,15,,,,,,,,,14,11,110,,,
169593,note_on,3,0,12,,,,,,,,,11,,,,64,0
169594,control_change,4,0,14,,,,,,,,,13,11,107,,,
169595,control_change,5,0,13,,,,,,,,,12,11,104,,,
169596,control_change,4,0,15,,,,,,,,,14,11,107,,,
169598,note_on,3,0,13,,,,,,,,,12,,,,64,0
169599,control_change,5,0,14,,,,,,,,,13,11,104,,,
169601,control_change,5,0,15,,,,,,,,,14,11,104,,,
169602,note_on,3,0,14,,,,,,,,,13,,,,52,0
169604,note_on,3,0,15,,,,,,,,,14,,,,40,0
169620,note_on,30,0,11,,,,,,,,,10,,,,64,112
169621,note_on,60,0,1,,,,,,,,,0,,,,88,0
169621,note_on,0,0,1,,,,,,,,,0,,,,83,0
169623,note_on,30,0,12,,,,,,,,,11,,,,64,112
169624,note_on,0,0,2,,,,,,,,,1,,,,76,0
169624,note_on,60,0,2,,,,,,,,,1,,,,80,0
169625,note_on,0,0,3,,,,,,,,,2,,,,71,0
169625,note_on,60,0,3,,,,,,,,,2,,,,68,0
169628,note_on,30,0,13,,,,,,,,,12,,,,64,112
169629,note_on,0,0,4,,,,,,,,,3,,,,59,0
169629,note_on,60,0,4,,,,,,,,,3,,,,56,0
169632,note_on,30,0,14,,,,,,,,,13,,,,52,112
169634,note_on,30,0,15,,,,,,,,,14,,,,40,112
169650,note_on,30,0,11,,,,,,,,,10,,,,64,0
169653,note_on,30,0,12,,,,,,,,,11,,,,64,0
169658,note_on,30,0,13,,,,,,,,,12,,,,64,0
169662,note_on,30,0,14,,,,,,,,,13,,,,52,0
169664,note_on,30,0,15,,,,,,,,,14,,,,40,0
169673,note_on,110,0,5,,,,,,,,,4,,,,64,0
169674,note_on,110,0,6,,,,,,,,,5,,,,52,0
169680,note_on,30,0,11,,,,,,,,,10,,,,65,112
169680,set_tempo,120,1,0,,,,,,263158,,,,,,,,
169681,note_on,60,0,1,,,,,,,,,0,,,,83,101
169681,note_on,0,0,1,,,,,,,,,0,,,,88,101
169683,note_on,10,0,5,,,,,,,,,4,,,,64,100
169683,note_on,30,0,12,,,,,,,,,11,,,,65,112
169684,note_on,10,0,6,,,,,,,,,5,,,,52,100
169684,note_on,60,0,2,,,,,,,,,1,,,,76,100
169684,note_on,0,0,2,,,,,,,,,1,,,,80,100
169685,note_on,60,0,3,,,,,,,,,2,,,,71,101
169685,note_on,0,0,3,,,,,,,,,2,,,,68,101
169688,note_on,30,0,13,,,,,,,,,12,,,,65,112
169689,note_on,0,0,4,,,,,,,,,3,,,,56,100
169689,note_on,60,0,4,,,,,,,,,3,,,,59,100
169692,note_on,30,0,14,,,,,,,,,13,,,,53,112
169694,note_on,30,0,15,,,,,,,,,14,,,,41,112
169710,note_on,30,0,11,,,,,,,,,10,,,,65,0
169713,note_on,30,0,12,,,,,,,,,11,,,,65,0
169718,note_on,30,0,13,,,,,,,,,12,,,,65,0
169722,note_on,30,0,14,,,,,,,,,13,,,,53,0
169724,note_on,30,0,15,,,,,,,,,14,,,,41,0
169740,note_on,30,0,11,,,,,,,,,10,,,,64,112
169741,note_on,0,0,1,,,,,,,,,0,,,,83,0
169741,note_on,60,0,1,,,,,,,,,0,,,,88,0
169743,note_on,30,0,12,,,,,,,,,11,,,,64,112
169744,note_on,60,0,2,,,,,,,,,1,,,,80,0
169744,note_on,0,0,2,,,,,,,,,1,,,,76,0
169745,note_on,60,0,3,,,,,,,,,2,,,,68,0
169745,note_on,0,0,3,,,,,,,,,2,,,,71,0
169748,note_on,30,0,13,,,,,,,,,12,,,,64,112
169749,note_on,0,0,4,,,,,,,,,3,,,,59,0
169749,note_on,60,0,4,,,,,,,,,3,,,,56,0
169752,note_on,30,0,14,,,,,,,,,13,,,,52,112
169754,note_on,30,0,15,,,,,,,,,14,,,,40,112
169770,note_on,30,0,11,,,,,,,,,10,,,,64,0
169773,note_on,30,0,12,,,,,,,,,11,,,,64,0
169778,note_on,30,0,13,,,,,,,,,12,,,,64,0
169782,note_on,30,0,14,,,,,,,,,13,,,,52,0
169784,note_on,30,0,15,,,,,,,,,14,,,,40,0
169793,note_on,110,0,5,,,,,,,,,4,,,,64,0
169794,note_on,110,0,6,,,,,,,,,5,,,,52,0
169800,set_tempo,120,1,0,,,,,,279070,,,,,,,,
169800,note_on,30,0,11,,,,,,,,,10,,,,65,112
169801,note_on,60,0,1,,,,,,,,,0,,,,88,101
169801,note_on,0,0,1,,,,,,,,,0,,,,83,101
169803,note_on,10,0,5,,,,,,,,,4,,,,64,100
169803,note_on,30,0,12,,,,,,,,,11,,,,65,112
169804,note_on,10,0,6,,,,,,,,,5,,,,52,100
169804,note_on,0,0,2,,,,,,,,,1,,,,76,100
169804,note_on,60,0,2,,,,,,,,,1,,,,80,100
169805,note_on,0,0,3,,,,,,,,,2,,,,68,101
169805,note_on,60,0,3,,,,,,,,,2,,,,71,101
169808,note_on,30,0,13,,,,,,,,,12,,,,65,112
169809,note_on,0,0,4,,,,,,,,,3,,,,56,100
169809,note_on,60,0,4,,,,,,,,,3,,,,59,100
169812,note_on,30,0,14,,,,,,,,,13,,,,53,112
169814,note_on,30,0,15,,,,,,,,,14,,,,41,112
169830,note_on,30,0,11,,,,,,,,,10,,,,65,0
169833,note_on,30,0,12,,,,,,,,,11,,,,65,0
169838,note_on,30,0,13,,,,,,,,,12,,,,65,0
169842,note_on,30,0,14,,,,,,,,,13,,,,53,0
169844,note_on,30,0,15,,,,,,,,,14,,,,41,0
169860,note_on,30,0,11,,,,,,,,,10,,,,64,112
169861,note_on,60,0,1,,,,,,,,,0,,,,83,0
169861,note_on,0,0,1,,,,,,,,,0,,,,88,0
169863,note_on,30,0,12,,,,,,,,,11,,,,64,112
169864,note_on,60,0,2,,,,,,,,,1,,,,76,0
169864,note_on,0,0,2,,,,,,,,,1,,,,80,0
169865,note_on,60,0,3,,,,,,,,,2,,,,68,0
169865,note_on,0,0,3,,,,,,,,,2,,,,71,0
169868,note_on,30,0,13,,,,,,,,,12,,,,64,112
169869,note_on,0,0,4,,,,,,,,,3,,,,59,0
169869,note_on,60,0,4,,,,,,,,,3,,,,56,0
169872,note_on,30,0,14,,,,,,,,,13,,,,52,112
169874,note_on,30,0,15,,,,,,,,,14,,,,40,112
169890,note_on,30,0,11,,,,,,,,,10,,,,64,0
169893,note_on,30,0,12,,,,,,,,,11,,,,64,0
169898,note_on,30,0,13,,,,,,,,,12,,,,64,0
169902,note_on,30,0,14,,,,,,,,,13,,,,52,0
169904,note_on,30,0,15,,,,,,,,,14,,,,40,0
169913,note_on,110,0,5,,,,,,,,,4,,,,64,0
169914,note_on,110,0,6,,,,,,,,,5,,,,52,0
169920,control_change,0,0,11,,,,,,,,,10,11,122,,,
169920,set_tempo,120,1,0,,,,,,254237,,,,,,,,
169920,note_on,30,0,11,,,,,,,,,10,,,,55,112
169921,note_on,60,0,1,,,,,,,,,0,,,,91,116
169921,note_on,0,0,1,,,,,,,,,0,,,,86,116
169922,note_on,1080,0,7,,,,,,,,,6,,,,55,112
169922,note_on,0,0,7,,,,,,,,,6,,,,67,112
169923,note_on,30,0,12,,,,,,,,,11,,,,55,112
169923,control_change,0,0,12,,,,,,,,,11,11,122,,,
169923,note_on,10,0,5,,,,,,,,,4,,,,67,115
169924,control_change,4,0,11,,,,,,,,,10,11,119,,,
169924,note_on,60,0,2,,,,,,,,,1,,,,77,115
169924,note_on,0,0,2,,,,,,,,,1,,,,83,115
169924,note_on,10,0,6,,,,,,,,,5,,,,55,115
169925,note_on,60,0,3,,,,,,,,,2,,,,71,116
169925,note_on,0,0,3,,,,,,,,,2,,,,79,116
169927,note_on,0,0,8,,,,,,,,,7,,,,59,110
169927,note_on,360,0,8,,,,,,,,,7,,,,62,110
169927,control_change,4,0,12,,,,,,,,,11,11,119,,,
169928,control_change,30,0,13,,,,,,,,,12,11,122,,,
169928,note_on,0,0,13,,,,,,,,,12,,,,55,112
169929,control_change,5,0,11,,,,,,,,,10,11,116,,,
169929,note_on,0,0,4,,,,,,,,,3,,,,62,115
169929,note_on,60,0,4,,,,,,,,,3,,,,65,115
169932,control_change,4,0,13,,,,,,,,,12,11,119,,,
169932,note_on,30,0,14,,,,,,,,,13,,,,43,112
169932,control_change,5,0,12,,,,,,,,,11,11,116,,,
169932,control_change,0,0,14,,,,,,,,,13,11,122,,,
169933,control_change,4,0,11,,,,,,,,,10,11,113,,,
169933,note_on,360,0,9,,,,,,,,,8,,,,55,110
169934,note_on,0,0,15,,,,,,,,,14,,,,31,112
169934,control_change,30,0,15,,,,,,,,,14,11,122,,,
169935,note_on,1080,0,10,,,,,,,,,15,,,,43,100
169936,control_change,4,0,14,,,,,,,,,13,11,119,,,
169936,control_change,4,0,12,,,,,,,,,11,11,113,,,
169937,control_change,5,0,13,,,,,,,,,12,11,116,,,
169938,control_change,5,0,11,,,,,,,,,10,11,110,,,
169938,control_change,4,0,15,,,,,,,,,14,11,119,,,
169941,control_change,5,0,12,,,,,,,,,11,11,110,,,
169941,control_change,4,0,13,,,,,,,,,12,11,113,,,
169941,control_change,5,0,14,,,,,,,,,13,11,116,,,
169942,control_change,4,0,11,,,,,,,,,10,11,107,,,
169943,control_change,5,0,15,,,,,,,,,14,11,116,,,
169945,control_change,4,0,14,,,,,,,,,13,11,113,,,
169945,control_change,4,0,12,,,,,,,,,11,11,107,,,
169946,control_change,5,0,13,,,,,,,,,12,11,110,,,
169947,control_change,4,0,15,,,,,,,,,14,11,113,,,
169947,control_change,5,0,11,,,,,,,,,10,11,104,,,
169950,control_change,4,0,13,,,,,,,,,12,11,107,,,
169950,note_on,3,0,11,,,,,,,,,10,,,,55,0
169950,control_change,5,0,14,,,,,,,,,13,11,110,,,
169950,control_change,5,0,12,,,,,,,,,11,11,104,,,
169952,control_change,5,0,15,,,,,,,,,14,11,110,,,
169953,note_on,3,0,12,,,,,,,,,11,,,,55,0
169954,control_change,4,0,14,,,,,,,,,13,11,107,,,
169955,control_change,5,0,13,,,,,,,,,12,11,104,,,
169956,control_change,4,0,15,,,,,,,,,14,11,107,,,
169958,note_on,3,0,13,,,,,,,,,12,,,,55,0
169959,control_change,5,0,14,,,,,,,,,13,11,104,,,
169961,control_change,5,0,15,,,,,,,,,14,11,104,,,
169962,note_on,3,0,14,,,,,,,,,13,,,,43,0
169964,note_on,3,0,15,,,,,,,,,14,,,,31,0
169980,note_on,30,0,11,,,,,,,,,10,,,,55,112
169981,note_on,60,0,1,,,,,,,,,0,,,,86,0
169981,note_on,0,0,1,,,,,,,,,0,,,,91,0
169983,note_on,30,0,12,,,,,,,,,11,,,,55,112
169984,note_on,60,0,2,,,,,,,,,1,,,,83,0
169984,note_on,0,0,2,,,,,,,,,1,,,,77,0
169985,note_on,60,0,3,,,,,,,,,2,,,,79,0
169985,note_on,0,0,3,,,,,,,,,2,,,,71,0
169988,note_on,30,0,13,,,,,,,,,12,,,,55,112
169989,note_on,0,0,4,,,,,,,,,3,,,,65,0
169989,note_on,60,0,4,,,,,,,,,3,,,,62,0
169992,note_on,30,0,14,,,,,,,,,13,,,,43,112
169994,note_on,30,0,15,,,,,,,,,14,,,,31,112
170010,note_on,30,0,11,,,,,,,,,10,,,,55,0
170013,note_on,30,0,12,,,,,,,,,11,,,,55,0
170018,note_on,30,0,13,,,,,,,,,12,,,,55,0
170022,note_on,30,0,14,,,,,,,,,13,,,,43,0
170024,note_on,30,0,15,,,,,,,,,14,,,,31,0
170032,note_on,0,0,7,,,,,,,,,6,,,,55,0
170032,note_on,110,0,7,,,,,,,,,6,,,,67,0
170033,note_on,110,0,5,,,,,,,,,4,,,,67,0
170034,note_on,110,0,6,,,,,,,,,5,,,,55,0
170037,note_on,110,0,8,,,,,,,,,7,,,,59,0
170037,note_on,0,0,8,,,,,,,,,7,,,,62,0
170040,set_tempo,120,1,0,,,,,,263158,,,,,,,,
170040,note_on,30,0,11,,,,,,,,,10,,,,57,112
170041,note_on,60,0,1,,,,,,,,,0,,,,91,101
170041,note_on,0,0,1,,,,,,,,,0,,,,86,101
170042,note_on,10,0,7,,,,,,,,,6,,,,55,112
170042,note_on,0,0,7,,,,,,,,,6,,,,67,112
170043,note_on,110,0,9,,,,,,,,,8,,,,55,0
170043,note_on,30,0,12,,,,,,,,,11,,,,57,112
170043,note_on,10,0,5,,,,,,,,,4,,,,67,100
170044,note_on,60,0,2,,,,,,,,,1,,,,83,100
170044,note_on,10,0,6,,,,,,,,,5,,,,55,100
170044,note_on,0,0,2,,,,,,,,,1,,,,77,100
170045,note_on,60,0,3,,,,,,,,,2,,,,71,101
170045,note_on,0,0,3,,,,,,,,,2,,,,79,101
170047,note_on,0,0,8,,,,,,,,,7,,,,62,110
170047,note_on,10,0,8,,,,,,,,,7,,,,59,110
170048,note_on,30,0,13,,,,,,,,,12,,,,57,112
170049,note_on,0,0,4,,,,,,,,,3,,,,62,100
170049,note_on,60,0,4,,,,,,,,,3,,,,65,100
170052,note_on,30,0,14,,,,,,,,,13,,,,45,112
170053,note_on,10,0,9,,,,,,,,,8,,,,55,110
170054,note_on,30,0,15,,,,,,,,,14,,,,33,112
170055,note_on,0,0,10,,,,,,,,,15,,,,43,100
170055,note_on,120,0,10,,,,,,,,,15,,,,43,0
170070,note_on,30,0,11,,,,,,,,,10,,,,57,0
170073,note_on,30,0,12,,,,,,,,,11,,,,57,0
170078,note_on,30,0,13,,,,,,,,,12,,,,57,0
170082,note_on,30,0,14,,,,,,,,,13,,,,45,0
170084,note_on,30,0,15,,,,,,,,,14,,,,33,0
170100,note_on,30,0,11,,,,,,,,,10,,,,55,112
170101,note_on,0,0,1,,,,,,,,,0,,,,91,0
170101,note_on,60,0,1,,,,,,,,,0,,,,86,0
170103,note_on,30,0,12,,,,,,,,,11,,,,55,112
170104,note_on,0,0,2,,,,,,,,,1,,,,83,0
170104,note_on,60,0,2,,,,,,,,,1,,,,77,0
170105,note_on,60,0,3,,,,,,,,,2,,,,79,0
170105,note_on,0,0,3,,,,,,,,,2,,,,71,0
170108,note_on,30,0,13,,,,,,,,,12,,,,55,112
170109,note_on,60,0,4,,,,,,,,,3,,,,62,0
170109,note_on,0,0,4,,,,,,,,,3,,,,65,0
170112,note_on,30,0,14,,,,,,,,,13,,,,43,112
170114,note_on,30,0,15,,,,,,,,,14,,,,31,112
170130,note_on,30,0,11,,,,,,,,,10,,,,55,0
170133,note_on,30,0,12,,,,,,,,,11,,,,55,0
170138,note_on,30,0,13,,,,,,,,,12,,,,55,0
170142,note_on,30,0,14,,,,,,,,,13,,,,43,0
170144,note_on,30,0,15,,,,,,,,,14,,,,31,0
170152,note_on,110,0,7,,,,,,,,,6,,,,67,0
170152,note_on,0,0,7,,,,,,,,,6,,,,55,0
170153,note_on,110,0,5,,,,,,,,,4,,,,67,0
170154,note_on,110,0,6,,,,,,,,,5,,,,55,0
170157,note_on,0,0,8,,,,,,,,,7,,,,59,0
170157,note_on,110,0,8,,,,,,,,,7,,,,62,0
170160,note_on,30,0,11,,,,,,,,,10,,,,57,112
170160,set_tempo,120,1,0,,,,,,279070,,,,,,,,
170161,note_on,0,0,1,,,,,,,,,0,,,,86,101
170161,note_on,60,0,1,,,,,,,,,0,,,,91,101
170162,note_on,0,0,7,,,,,,,,,6,,,,67,112
170162,note_on,10,0,7,,,,,,,,,6,,,,55,112
170163,note_on,10,0,5,,,,,,,,,4,,,,67,100
170163,note_on,30,0,12,,,,,,,,,11,,,,57,112
170163,note_on,110,0,9,,,,,,,,,8,,,,55,0
170164,note_on,60,0,2,,,,,,,,,1,,,,83,100
170164,note_on,0,0,2,,,,,,,,,1,,,,77,100
170164,note_on,10,0,6,,,,,,,,,5,,,,55,100
170165,note_on,60,0,3,,,,,,,,,2,,,,79,101
170165,note_on,0,0,3,,,,,,,,,2,,,,71,101
170167,note_on,10,0,8,,,,,,,,,7,,,,62,110
170167,note_on,0,0,8,,,,,,,,,7,,,,59,110
170168,note_on,30,0,13,,,,,,,,,12,,,,57,112
170169,note_on,60,0,4,,,,,,,,,3,,,,65,100
170169,note_on,0,0,4,,,,,,,,,3,,,,62,100
170172,note_on,30,0,14,,,,,,,,,13,,,,45,112
170173,note_on,10,0,9,,,,,,,,,8,,,,55,110
170174,note_on,30,0,15,,,,,,,,,14,,,,33,112
170175,note_on,120,0,10,,,,,,,,,15,,,,43,0
170175,note_on,0,0,10,,,,,,,,,15,,,,43,100
170190,note_on,30,0,11,,,,,,,,,10,,,,57,0
170193,note_on,30,0,12,,,,,,,,,11,,,,57,0
170198,note_on,30,0,13,,,,,,,,,12,,,,57,0
170202,note_on,30,0,14,,,,,,,,,13,,,,45,0
170204,note_on,30,0,15,,,,,,,,,14,,,,33,0
170220,note_on,30,0,11,,,,,,,,,10,,,,55,112
170221,note_on,0,0,1,,,,,,,,,0,,,,91,0
170221,note_on,60,0,1,,,,,,,,,0,,,,86,0
170223,note_on,30,0,12,,,,,,,,,11,,,,55,112
170224,note_on,60,0,2,,,,,,,,,1,,,,77,0
170224,note_on,0,0,2,,,,,,,,,1,,,,83,0
170225,note_on,0,0,3,,,,,,,,,2,,,,79,0
170225,note_on,60,0,3,,,,,,,,,2,,,,71,0
170228,note_on,30,0,13,,,,,,,,,12,,,,55,112
170229,note_on,0,0,4,,,,,,,,,3,,,,65,0
170229,note_on,60,0,4,,,,,,,,,3,,,,62,0
170232,note_on,30,0,14,,,,,,,,,13,,,,43,112
170234,note_on,30,0,15,,,,,,,,,14,,,,31,112
170250,note_on,30,0,11,,,,,,,,,10,,,,55,0
170253,note_on,30,0,12,,,,,,,,,11,,,,55,0
170258,note_on,30,0,13,,,,,,,,,12,,,,55,0
170262,note_on,30,0,14,,,,,,,,,13,,,,43,0
170264,note_on,30,0,15,,,,,,,,,14,,,,31,0
170272,note_on,110,0,7,,,,,,,,,6,,,,67,0
170272,note_on,0,0,7,,,,,,,,,6,,,,55,0
170273,note_on,110,0,5,,,,,,,,,4,,,,67,0
170274,note_on,110,0,6,,,,,,,,,5,,,,55,0
170277,note_on,0,0,8,,,,,,,,,7,,,,62,0
170277,note_on,110,0,8,,,,,,,,,7,,,,59,0
170280,set_tempo,120,1,0,,,,,,254237,,,,,,,,
170280,note_on,30,0,11,,,,,,,,,10,,,,60,112
170280,control_change,0,0,11,,,,,,,,,10,11,122,,,
170281,note_on,60,0,1,,,,,,,,,0,,,,84,101
170282,note_on,10,0,7,,,,,,,,,6,,,,60,112
170282,note_on,0,0,7,,,,,,,,,6,,,,72,112
170283,note_on,110,0,9,,,,,,,,,8,,,,55,0
170283,control_change,30,0,12,,,,,,,,,11,11,122,,,
170283,note_on,10,0,5,,,,,,,,,4,,,,64,100
170283,note_on,0,0,12,,,,,,,,,11,,,,60,112
170284,note_on,60,0,2,,,,,,,,,1,,,,84,100
170284,note_on,10,0,6,,,,,,,,,5,,,,60,100
170284,note_on,0,0,2,,,,,,,,,1,,,,76,100
170285,note_on,60,0,3,,,,,,,,,2,,,,72,101
170285,note_on,0,0,3,,,,,,,,,2,,,,76,101
170287,note_on,10,0,8,,,,,,,,,7,,,,60,110
170287,note_on,0,0,8,,,,,,,,,7,,,,64,110
170288,control_change,30,0,13,,,,,,,,,12,11,122,,,
170288,note_on,0,0,13,,,,,,,,,12,,,,60,112
170289,control_change,9,0,11,,,,,,,,,10,11,119,,,
170289,note_on,60,0,4,,,,,,,,,3,,,,64,100
170289,note_on,0,0,4,,,,,,,,,3,,,,60,100
170292,control_change,30,0,14,,,,,,,,,13,11,122,,,
170292,note_on,0,0,14,,,,,,,,,13,,,,48,112
170292,control_change,9,0,12,,,,,,,,,11,11,119,,,
170293,note_on,10,0,9,,,,,,,,,8,,,,48,110
170294,note_on,0,0,15,,,,,,,,,14,,,,36,112
170294,control_change,30,0,15,,,,,,,,,14,11,122,,,
170295,note_on,120,0,10,,,,,,,,,15,,,,43,0
170295,note_on,0,0,10,,,,,,,,,15,,,,48,100
170297,control_change,9,0,13,,,,,,,,,12,11,119,,,
170298,control_change,9,0,11,,,,,,,,,10,11,116,,,
170301,control_change,9,0,14,,,,,,,,,13,11,119,,,
170301,control_change,9,0,12,,,,,,,,,11,11,116,,,
170303,control_change,9,0,15,,,,,,,,,14,11,119,,,
170306,control_change,9,0,13,,,,,,,,,12,11,116,,,
170307,control_change,9,0,11,,,,,,,,,10,11,113,,,
170310,control_change,9,0,14,,,,,,,,,13,11,116,,,
170310,control_change,9,0,12,,,,,,,,,11,11,113,,,
170312,control_change,9,0,15,,,,,,,,,14,11,116,,,
170315,control_change,9,0,13,,,,,,,,,12,11,113,,,
170316,control_change,9,0,11,,,,,,,,,10,11,110,,,
170319,control_change,9,0,14,,,,,,,,,13,11,113,,,
170319,control_change,9,0,12,,,,,,,,,11,11,110,,,
170321,control_change,9,0,15,,,,,,,,,14,11,113,,,
170324,control_change,9,0,13,,,,,,,,,12,11,110,,,
170325,control_change,9,0,11,,,,,,,,,10,11,107,,,
170328,control_change,9,0,14,,,,,,,,,13,11,110,,,
170328,control_change,9,0,12,,,,,,,,,11,11,107,,,
170330,control_change,9,0,15,,,,,,,,,14,11,110,,,
170333,control_change,9,0,13,,,,,,,,,12,11,107,,,
170334,control_change,9,0,11,,,,,,,,,10,11,104,,,
170337,control_change,9,0,12,,,,,,,,,11,11,104,,,
170337,control_change,9,0,14,,,,,,,,,13,11,107,,,
170339,control_change,9,0,15,,,,,,,,,14,11,107,,,
170340,note_on,6,0,11,,,,,,,,,10,,,,60,0
170342,control_change,9,0,13,,,,,,,,,12,11,104,,,
170343,note_on,6,0,12,,,,,,,,,11,,,,60,0
170346,control_change,9,0,14,,,,,,,,,13,11,104,,,
170348,control_change,9,0,15,,,,,,,,,14,11,104,,,
170348,note_on,6,0,13,,,,,,,,,12,,,,60,0
170352,note_on,6,0,14,,,,,,,,,13,,,,48,0
170354,note_on,6,0,15,,,,,,,,,14,,,,36,0
170400,note_on,60,0,11,,,,,,,,,10,,,,60,112
170400,set_tempo,120,1,0,,,,,,263158,,,,,,,,
170401,note_on,120,0,1,,,,,,,,,0,,,,84,0
170402,note_on,0,0,7,,,,,,,,,6,,,,60,0
170402,note_on,120,0,7,,,,,,,,,6,,,,72,0
170403,note_on,60,0,12,,,,,,,,,11,,,,60,112
170403,note_on,120,0,5,,,,,,,,,4,,,,64,0
170404,note_on,0,0,2,,,,,,,,,1,,,,84,0
170404,note_on,120,0,2,,,,,,,,,1,,,,76,0
170404,note_on,120,0,6,,,,,,,,,5,,,,60,0
170405,note_on,120,0,3,,,,,,,,,2,,,,76,0
170405,note_on,0,0,3,,,,,,,,,2,,,,72,0
170407,note_on,120,0,8,,,,,,,,,7,,,,64,0
170407,note_on,0,0,8,,,,,,,,,7,,,,60,0
170408,note_on,60,0,13,,,,,,,,,12,,,,60,112
170409,note_on,120,0,4,,,,,,,,,3,,,,60,0
170409,note_on,0,0,4,,,,,,,,,3,,,,64,0
170412,note_on,60,0,14,,,,,,,,,13,,,,48,112
170413,note_on,120,0,9,,,,,,,,,8,,,,48,0
170414,note_on,60,0,15,,,,,,,,,14,,,,36,112
170415,note_on,120,0,10,,,,,,,,,15,,,,48,0
170460,note_on,60,0,11,,,,,,,,,10,,,,60,0
170463,note_on,60,0,12,,,,,,,,,11,,,,60,0
170468,note_on,60,0,13,,,,,,,,,12,,,,60,0
170472,note_on,60,0,14,,,,,,,,,13,,,,48,0
170474,note_on,60,0,15,,,,,,,,,14,,,,36,0
170520,set_tempo,120,1,0,,,,,,279070,,,,,,,,
170520,note_on,60,0,11,,,,,,,,,10,,,,60,112
170523,note_on,60,0,12,,,,,,,,,11,,,,60,112
170528,note_on,60,0,13,,,,,,,,,12,,,,60,112
170532,note_on,60,0,14,,,,,,,,,13,,,,48,112
170534,note_on,60,0,15,,,,,,,,,14,,,,36,112
170580,note_on,60,0,11,,,,,,,,,10,,,,60,0
170583,note_on,60,0,12,,,,,,,,,11,,,,60,0
170588,note_on,60,0,13,,,,,,,,,12,,,,60,0
170592,note_on,60,0,14,,,,,,,,,13,,,,48,0
170594,note_on,60,0,15,,,,,,,,,14,,,,36,0
170640,set_tempo,120,1,0,,,,,,258065,,,,,,,,
170641,note_on,240,0,1,,,,,,,,,0,,,,84,116
170642,note_on,240,0,7,,,,,,,,,6,,,,60,112
170642,note_on,0,0,7,,,,,,,,,6,,,,72,112
170643,note_on,240,0,5,,,,,,,,,4,,,,60,115
170644,note_on,240,0,2,,,,,,,,,1,,,,72,115
170644,note_on,240,0,6,,,,,,,,,5,,,,48,115
170644,note_on,0,0,2,,,,,,,,,1,,,,84,115
170645,note_on,240,0,3,,,,,,,,,2,,,,72,116
170647,note_on,240,0,8,,,,,,,,,7,,,,60,110
170649,note_on,240,0,4,,,,,,,,,3,,,,36,115
170649,note_on,0,0,4,,,,,,,,,3,,,,48,115
170653,note_on,240,0,9,,,,,,,,,8,,,,48,110
170655,note_on,240,0,10,,,,,,,,,15,,,,48,100
170701,note_on,60,0,1,,,,,,,,,0,,,,84,0
170704,note_on,60,0,2,,,,,,,,,1,,,,84,0
170704,note_on,0,0,2,,,,,,,,,1,,,,72,0
170705,note_on,60,0,3,,,,,,,,,2,,,,72,0
170709,note_on,0,0,4,,,,,,,,,3,,,,36,0
170709,note_on,60,0,4,,,,,,,,,3,,,,48,0
170752,note_on,0,0,7,,,,,,,,,6,,,,60,0
170752,note_on,110,0,7,,,,,,,,,6,,,,72,0
170753,note_on,110,0,5,,,,,,,,,4,,,,60,0
170754,note_on,110,0,6,,,,,,,,,5,,,,48,0
170757,note_on,110,0,8,,,,,,,,,7,,,,60,0
170760,set_tempo,120,1,0,,,,,,267261,,,,,,,,
170761,note_on,60,0,1,,,,,,,,,0,,,,84,101
170762,note_on,10,0,7,,,,,,,,,6,,,,60,112
170762,note_on,0,0,7,,,,,,,,,6,,,,72,112
170763,note_on,10,0,5,,,,,,,,,4,,,,60,100
170763,note_on,110,0,9,,,,,,,,,8,,,,48,0
170764,note_on,0,0,2,,,,,,,,,1,,,,72,100
170764,note_on,60,0,2,,,,,,,,,1,,,,84,100
170764,note_on,10,0,6,,,,,,,,,5,,,,48,100
170765,note_on,60,0,3,,,,,,,,,2,,,,72,101
170767,note_on,10,0,8,,,,,,,,,7,,,,60,110
170769,note_on,0,0,4,,,,,,,,,3,,,,48,100
170769,note_on,60,0,4,,,,,,,,,3,,,,36,100
170773,note_on,10,0,9,,,,,,,,,8,,,,48,110
170775,note_on,120,0,10,,,,,,,,,15,,,,48,0
170775,note_on,0,0,10,,,,,,,,,15,,,,48,100
170821,note_on,60,0,1,,,,,,,,,0,,,,84,0
170824,note_on,60,0,2,,,,,,,,,1,,,,72,0
170824,note_on,0,0,2,,,,,,,,,1,,,,84,0
170825,note_on,60,0,3,,,,,,,,,2,,,,72,0
170829,note_on,60,0,4,,,,,,,,,3,,,,48,0
170829,note_on,0,0,4,,,,,,,,,3,,,,36,0
170872,note_on,0,0,7,,,,,,,,,6,,,,60,0
170872,note_on,110,0,7,,,,,,,,,6,,,,72,0
170873,note_on,110,0,5,,,,,,,,,4,,,,60,0
170874,note_on,110,0,6,,,,,,,,,5,,,,48,0
170877,note_on,110,0,8,,,,,,,,,7,,,,60,0
170880,set_tempo,120,1,0,,,,,,288462,,,,,,,,
170881,note_on,60,0,1,,,,,,,,,0,,,,84,101
170882,note_on,10,0,7,,,,,,,,,6,,,,72,112
170882,note_on,0,0,7,,,,,,,,,6,,,,60,112
170883,note_on,10,0,5,,,,,,,,,4,,,,60,100
170883,note_on,110,0,9,,,,,,,,,8,,,,48,0
170884,note_on,10,0,6,,,,,,,,,5,,,,48,100
170884,note_on,0,0,2,,,,,,,,,1,,,,84,100
170884,note_on,60,0,2,,,,,,,,,1,,,,72,100
170885,note_on,60,0,3,,,,,,,,,2,,,,72,101
170887,note_on,10,0,8,,,,,,,,,7,,,,60,110
170889,note_on,0,0,4,,,,,,,,,3,,,,48,100
170889,note_on,60,0,4,,,,,,,,,3,,,,36,100
170893,note_on,10,0,9,,,,,,,,,8,,,,48,110
170895,note_on,0,0,10,,,,,,,,,15,,,,48,100
170895,note_on,120,0,10,,,,,,,,,15,,,,48,0
170941,note_on,60,0,1,,,,,,,,,0,,,,84,0
170944,note_on,0,0,2,,,,,,,,,1,,,,72,0
170944,note_on,60,0,2,,,,,,,,,1,,,,84,0
170945,note_on,60,0,3,,,,,,,,,2,,,,72,0
170949,note_on,60,0,4,,,,,,,,,3,,,,48,0
170949,note_on,0,0,4,,,,,,,,,3,,,,36,0
170992,note_on,0,0,7,,,,,,,,,6,,,,72,0
170992,note_on,110,0,7,,,,,,,,,6,,,,60,0
170993,note_on,110,0,5,,,,,,,,,4,,,,60,0
170994,note_on,110,0,6,,,,,,,,,5,,,,48,0
170997,note_on,110,0,8,,,,,,,,,7,,,,60,0
171000,note_on,420,0,11,,,,,,,,,10,,,,74,112
171000,note_on,0,0,11,,,,,,,,,10,,,,83,112
171000,set_tempo,120,1,0,,,,,,264317,,,,,,,,
171000,control_change,0,0,11,,,,,,,,,10,11,122,,,
171000,note_on,0,0,11,,,,,,,,,10,,,,67,112
171001,note_on,60,0,1,,,,,,,,,0,,,,91,101
171001,note_on,0,0,1,,,,,,,,,0,,,,83,101
171001,control_change,0,0,1,,,,,,,,,0,11,101,,,
171002,note_on,10,0,7,,,,,,,,,6,,,,67,112
171002,note_on,0,0,7,,,,,,,,,6,,,,55,112
171003,note_on,0,0,12,,,,,,,,,11,,,,79,112
171003,control_change,420,0,12,,,,,,,,,11,11,122,,,
171003,note_on,0,0,12,,,,,,,,,11,,,,55,112
171003,control_change,0,0,5,,,,,,,,,4,11,122,,,
171003,note_on,0,0,12,,,,,,,,,11,,,,62,112
171003,note_on,110,0,9,,,,,,,,,8,,,,48,0
171003,note_on,0,0,12,,,,,,,,,11,,,,71,112
171003,note_on,10,0,5,,,,,,,,,4,,,,62,100
171004,note_on,0,0,6,,,,,,,,,5,,,,55,100
171004,control_change,0,0,2,,,,,,,,,1,11,101,,,
171004,note_on,60,0,2,,,,,,,,,1,,,,83,100
171004,note_on,0,0,2,,,,,,,,,1,,,,74,100
171004,control_change,10,0,6,,,,,,,,,5,11,122,,,
171005,note_on,0,0,3,,,,,,,,,2,,,,74,101
171005,note_on,60,0,3,,,,,,,,,2,,,,71,101
171005,control_change,0,0,3,,,,,,,,,2,11,101,,,
171007,program_change,419,0,13,,,,,,,,48,12,,,,,
171007,note_on,0,0,8,,,,,,,,,7,,,,59,110
171007,note_on,10,0,8,,,,,,,,,7,,,,62,110
171008,control_change,1,0,13,,,,,,,,,12,11,122,,,
171008,note_on,0,0,13,,,,,,,,,12,,,,62,112
171008,note_on,0,0,13,,,,,,,,,12,,,,55,112
171008,note_on,0,0,13,,,,,,,,,12,,,,71,112
171009,note_on,0,0,4,,,,,,,,,3,,,,55,100
171009,note_on,0,0,4,,,,,,,,,3,,,,43,100
171009,control_change,60,0,4,,,,,,,,,3,11,117,,,
171009,control_change,9,0,11,,,,,,,,,10,11,119,,,
171010,control_change,9,0,1,,,,,,,,,0,11,98,,,
171012,note_on,0,0,14,,,,,,,,,13,,,,59,112
171012,control_change,9,0,12,,,,,,,,,11,11,119,,,
171012,note_on,0,0,14,,,,,,,,,13,,,,50,112
171012,note_on,420,0,14,,,,,,,,,13,,,,43,112
171012,control_change,0,0,14,,,,,,,,,13,11,122,,,
171012,control_change,9,0,5,,,,,,,,,4,11,119,,,
171013,control_change,9,0,2,,,,,,,,,1,11,98,,,
171013,note_on,10,0,9,,,,,,,,,8,,,,43,110
171013,control_change,9,0,6,,,,,,,,,5,11,119,,,
171014,control_change,9,0,3,,,,,,,,,2,11,98,,,
171014,control_change,420,0,15,,,,,,,,,14,11,122,,,
171014,note_on,0,0,15,,,,,,,,,14,,,,43,112
171015,note_on,0,0,10,,,,,,,,,15,,,,43,100
171015,note_on,120,0,10,,,,,,,,,15,,,,48,0
171017,control_change,9,0,13,,,,,,,,,12,11,119,,,
171018,control_change,9,0,11,,,,,,,,,10,11,116,,,
171018,control_change,9,0,4,,,,,,,,,3,11,114,,,
171021,control_change,9,0,5,,,,,,,,,4,11,116,,,
171021,control_change,9,0,12,,,,,,,,,11,11,116,,,
171021,control_change,9,0,14,,,,,,,,,13,11,119,,,
171022,control_change,9,0,6,,,,,,,,,5,11,116,,,
171023,control_change,9,0,15,,,,,,,,,14,11,119,,,
171026,control_change,9,0,13,,,,,,,,,12,11,116,,,
171027,control_change,9,0,4,,,,,,,,,3,11,111,,,
171027,control_change,9,0,11,,,,,,,,,10,11,113,,,
171028,control_change,18,0,1,,,,,,,,,0,11,94,,,
171030,control_change,9,0,12,,,,,,,,,11,11,113,,,
171030,control_change,9,0,14,,,,,,,,,13,11,116,,,
171030,control_change,9,0,5,,,,,,,,,4,11,113,,,
171031,control_change,9,0,6,,,,,,,,,5,11,113,,,
171031,control_change,18,0,2,,,,,,,,,1,11,94,,,
171032,control_change,18,0,3,,,,,,,,,2,11,94,,,
171032,control_change,9,0,15,,,,,,,,,14,11,116,,,
171035,control_change,9,0,13,,,,,,,,,12,11,113,,,
171036,control_change,9,0,11,,,,,,,,,10,11,110,,,
171036,control_change,9,0,4,,,,,,,,,3,11,108,,,
171039,control_change,9,0,5,,,,,,,,,4,11,110,,,
171039,control_change,9,0,14,,,,,,,,,13,11,113,,,
171039,control_change,9,0,12,,,,,,,,,11,11,110,,,
171040,control_change,9,0,6,,,,,,,,,5,11,110,,,
171041,control_change,9,0,15,,,,,,,,,14,11,113,,,
171044,control_change,9,0,13,,,,,,,,,12,11,110,,,
171045,control_change,9,0,11,,,,,,,,,10,11,107,,,
171045,control_change,9,0,4,,,,,,,,,3,11,105,,,
171046,control_change,18,0,1,,,,,,,,,0,11,89,,,
171048,control_change,9,0,12,,,,,,,,,11,11,107,,,
171048,control_change,9,0,14,,,,,,,,,13,11,110,,,
171048,control_change,9,0,5,,,,,,,,,4,11,107,,,
171049,control_change,18,0,2,,,,,,,,,1,11,89,,,
171049,control_change,9,0,6,,,,,,,,,5,11,107,,,
171050,control_change,18,0,3,,,,,,,,,2,11,89,,,
171050,control_change,9,0,15,,,,,,,,,14,11,110,,,
171053,control_change,9,0,13,,,,,,,,,12,11,107,,,
171054,control_change,9,0,11,,,,,,,,,10,11,104,,,
171054,control_change,9,0,4,,,,,,,,,3,11,102,,,
171057,control_change,9,0,12,,,,,,,,,11,11,104,,,
171057,control_change,9,0,14,,,,,,,,,13,11,107,,,
171057,control_change,9,0,5,,,,,,,,,4,11,104,,,
171058,control_change,9,0,6,,,,,,,,,5,11,104,,,
171059,control_change,9,0,15,,,,,,,,,14,11,107,,,
171062,control_change,9,0,13,,,,,,,,,12,11,104,,,
171063,control_change,9,0,4,,,,,,,,,3,11,99,,,
171066,control_change,9,0,14,,,,,,,,,13,11,104,,,
171068,control_change,9,0,15,,,,,,,,,14,11,104,,,
171120,note_on,0,0,11,,,,,,,,,10,,,,83,0
171120,note_on,66,0,11,,,,,,,,,10,,,,67,0
171120,note_on,0,0,11,,,,,,,,,10,,,,74,0
171121,note_on,75,0,1,,,,,,,,,0,,,,83,0
171121,note_on,0,0,1,,,,,,,,,0,,,,91,0
171122,note_on,120,0,7,,,,,,,,,6,,,,55,0
171122,note_on,0,0,7,,,,,,,,,6,,,,67,0
171123,note_on,66,0,12,,,,,,,,,11,,,,62,0
171123,note_on,0,0,12,,,,,,,,,11,,,,55,0
171123,note_on,0,0,12,,,,,,,,,11,,,,71,0
171123,note_on,66,0,5,,,,,,,,,4,,,,62,0
171123,note_on,0,0,12,,,,,,,,,11,,,,79,0
171124,note_on,75,0,2,,,,,,,,,1,,,,74,0
171124,note_on,66,0,6,,,,,,,,,5,,,,55,0
171124,note_on,0,0,2,,,,,,,,,1,,,,83,0
171125,note_on,75,0,3,,,,,,,,,2,,,,74,0
171125,note_on,0,0,3,,,,,,,,,2,,,,71,0
171127,note_on,120,0,8,,,,,,,,,7,,,,59,0
171127,note_on,0,0,8,,,,,,,,,7,,,,62,0
171128,note_on,0,0,13,,,,,,,,,12,,,,55,0
171128,note_on,0,0,13,,,,,,,,,12,,,,62,0
171128,note_on,66,0,13,,,,,,,,,12,,,,71,0
171129,note_on,0,0,4,,,,,,,,,3,,,,55,0
171129,note_on,66,0,4,,,,,,,,,3,,,,43,0
171132,note_on,66,0,14,,,,,,,,,13,,,,59,0
171132,note_on,0,0,14,,,,,,,,,13,,,,50,0
171132,note_on,0,0,14,,,,,,,,,13,,,,43,0
171133,note_on,120,0,9,,,,,,,,,8,,,,43,0
171134,note_on,66,0,15,,,,,,,,,14,,,,43,0
171135,note_on,120,0,10,,,,,,,,,15,,,,43,0
171240,set_tempo,240,1,0,,,,,,315789,,,,,,,,
171360,set_tempo,120,1,0,,,,,,272727,,,,,,,,
171360,note_on,0,0,11,,,,,,,,,10,,,,76,112
171360,note_on,0,0,11,,,,,,,,,10,,,,67,112
171360,control_change,0,0,11,,,,,,,,,10,11,122,,,
171360,note_on,240,0,11,,,,,,,,,10,,,,84,112
171361,note_on,240,0,1,,,,,,,,,0,,,,84,101
171361,control_change,0,0,1,,,,,,,,,0,11,101,,,
171362,note_on,240,0,7,,,,,,,,,6,,,,60,112
171363,note_on,0,0,12,,,,,,,,,11,,,,76,112
171363,control_change,0,0,12,,,,,,,,,11,11,122,,,
171363,note_on,0,0,12,,,,,,,,,11,,,,60,112
171363,note_on,240,0,12,,,,,,,,,11,,,,67,112
171363,control_change,0,0,5,,,,,,,,,4,11,122,,,
171363,note_on,240,0,5,,,,,,,,,4,,,,64,100
171364,note_on,0,0,6,,,,,,,,,5,,,,60,100
171364,control_change,0,0,2,,,,,,,,,1,11,101,,,
171364,control_change,240,0,6,,,,,,,,,5,11,122,,,
171364,note_on,240,0,2,,,,,,,,,1,,,,76,100
171364,note_on,0,0,2,,,,,,,,,1,,,,84,100
171365,note_on,240,0,3,,,,,,,,,2,,,,76,101
171365,control_change,0,0,3,,,,,,,,,2,11,101,,,
171365,note_on,0,0,3,,,,,,,,,2,,,,72,101
171367,note_on,240,0,8,,,,,,,,,7,,,,60,110
171367,note_on,0,0,8,,,,,,,,,7,,,,64,110
171368,note_on,240,0,13,,,,,,,,,12,,,,72,112
171368,note_on,0,0,13,,,,,,,,,12,,,,64,112
171368,note_on,0,0,13,,,,,,,,,12,,,,55,112
171368,control_change,0,0,13,,,,,,,,,12,11,122,,,
171368,note_on,0,0,13,,,,,,,,,12,,,,48,112
171369,control_change,0,0,4,,,,,,,,,3,11,117,,,
171369,note_on,0,0,4,,,,,,,,,3,,,,48,100
171369,note_on,240,0,4,,,,,,,,,3,,,,36,100
171369,control_change,9,0,11,,,,,,,,,10,11,119,,,
171370,control_change,9,0,1,,,,,,,,,0,11,98,,,
171372,note_on,0,0,14,,,,,,,,,13,,,,60,112
171372,note_on,0,0,14,,,,,,,,,13,,,,52,112
171372,control_change,9,0,12,,,,,,,,,11,11,119,,,
171372,control_change,9,0,5,,,,,,,,,4,11,119,,,
171372,note_on,0,0,14,,,,,,,,,13,,,,43,112
171372,note_on,0,0,14,,,,,,,,,13,,,,36,112
171372,control_change,240,0,14,,,,,,,,,13,11,122,,,
171373,control_change,9,0,2,,,,,,,,,1,11,98,,,
171373,note_on,240,0,9,,,,,,,,,8,,,,48,110
171373,control_change,9,0,6,,,,,,,,,5,11,119,,,
171374,control_change,9,0,3,,,,,,,,,2,11,98,,,
171374,note_on,240,0,15,,,,,,,,,14,,,,36,112
171374,control_change,0,0,15,,,,,,,,,14,11,122,,,
171375,note_on,240,0,10,,,,,,,,,15,,,,48,100
171377,control_change,9,0,13,,,,,,,,,12,11,119,,,
171378,control_change,9,0,11,,,,,,,,,10,11,116,,,
171378,control_change,9,0,4,,,,,,,,,3,11,114,,,
171381,control_change,9,0,14,,,,,,,,,13,11,119,,,
171381,control_change,9,0,12,,,,,,,,,11,11,116,,,
171381,control_change,9,0,5,,,,,,,,,4,11,116,,,
171382,control_change,9,0,6,,,,,,,,,5,11,116,,,
171383,control_change,9,0,15,,,,,,,,,14,11,119,,,
171386,control_change,9,0,13,,,,,,,,,12,11,116,,,
171387,control_change,9,0,11,,,,,,,,,10,11,113,,,
171387,control_change,9,0,4,,,,,,,,,3,11,111,,,
171388,control_change,18,0,1,,,,,,,,,0,11,94,,,
171390,control_change,9,0,14,,,,,,,,,13,11,116,,,
171390,control_change,9,0,5,,,,,,,,,4,11,113,,,
171390,control_change,9,0,12,,,,,,,,,11,11,113,,,
171391,control_change,9,0,6,,,,,,,,,5,11,113,,,
171391,control_change,18,0,2,,,,,,,,,1,11,94,,,
171392,control_change,18,0,3,,,,,,,,,2,11,94,,,
171392,control_change,9,0,15,,,,,,,,,14,11,116,,,
171395,control_change,9,0,13,,,,,,,,,12,11,113,,,
171396,control_change,9,0,4,,,,,,,,,3,11,108,,,
171396,control_change,9,0,11,,,,,,,,,10,11,110,,,
171399,control_change,9,0,12,,,,,,,,,11,11,110,,,
171399,control_change,9,0,14,,,,,,,,,13,11,113,,,
171399,control_change,9,0,5,,,,,,,,,4,11,110,,,
171400,control_change,9,0,6,,,,,,,,,5,11,110,,,
171401,control_change,9,0,15,,,,,,,,,14,11,113,,,
171404,control_change,9,0,13,,,,,,,,,12,11,110,,,
171405,control_change,9,0,11,,,,,,,,,10,11,107,,,
171405,control_change,9,0,4,,,,,,,,,3,11,105,,,
171406,control_change,18,0,1,,,,,,,,,0,11,89,,,
171408,control_change,9,0,5,,,,,,,,,4,11,107,,,
171408,control_change,9,0,14,,,,,,,,,13,11,110,,,
171408,control_change,9,0,12,,,,,,,,,11,11,107,,,
171409,control_change,9,0,6,,,,,,,,,5,11,107,,,
171409,control_change,18,0,2,,,,,,,,,1,11,89,,,
171410,control_change,18,0,3,,,,,,,,,2,11,89,,,
171410,control_change,9,0,15,,,,,,,,,14,11,110,,,
171413,control_change,9,0,13,,,,,,,,,12,11,107,,,
171414,control_change,9,0,11,,,,,,,,,10,11,104,,,
171414,control_change,9,0,4,,,,,,,,,3,11,102,,,
171417,control_change,9,0,14,,,,,,,,,13,11,107,,,
171417,control_change,9,0,12,,,,,,,,,11,11,104,,,
171417,control_change,9,0,5,,,,,,,,,4,11,104,,,
171418,control_change,9,0,6,,,,,,,,,5,11,104,,,
171419,control_change,9,0,15,,,,,,,,,14,11,107,,,
171422,control_change,9,0,13,,,,,,,,,12,11,104,,,
171423,control_change,9,0,4,,,,,,,,,3,11,99,,,
171426,control_change,9,0,14,,,,,,,,,13,11,104,,,
171428,control_change,9,0,15,,,,,,,,,14,11,104,,,
171480,note_on,0,0,11,,,,,,,,,10,,,,67,0
171480,note_on,0,0,11,,,,,,,,,10,,,,84,0
171480,note_on,66,0,11,,,,,,,,,10,,,,76,0
171481,note_on,75,0,1,,,,,,,,,0,,,,84,0
171482,note_on,120,0,7,,,,,,,,,6,,,,60,0
171483,note_on,66,0,5,,,,,,,,,4,,,,64,0
171483,note_on,0,0,12,,,,,,,,,11,,,,67,0
171483,note_on,66,0,12,,,,,,,,,11,,,,76,0
171483,note_on,0,0,12,,,,,,,,,11,,,,60,0
171484,note_on,66,0,6,,,,,,,,,5,,,,60,0
171484,note_on,75,0,2,,,,,,,,,1,,,,84,0
171484,note_on,0,0,2,,,,,,,,,1,,,,76,0
171485,note_on,75,0,3,,,,,,,,,2,,,,72,0
171485,note_on,0,0,3,,,,,,,,,2,,,,76,0
171487,note_on,0,0,8,,,,,,,,,7,,,,60,0
171487,note_on,120,0,8,,,,,,,,,7,,,,64,0
171488,note_on,66,0,13,,,,,,,,,12,,,,48,0
171488,note_on,0,0,13,,,,,,,,,12,,,,72,0
171488,note_on,0,0,13,,,,,,,,,12,,,,64,0
171488,note_on,0,0,13,,,,,,,,,12,,,,55,0
171489,note_on,0,0,4,,,,,,,,,3,,,,36,0
171489,note_on,66,0,4,,,,,,,,,3,,,,48,0
171492,note_on,0,0,14,,,,,,,,,13,,,,60,0
171492,note_on,0,0,14,,,,,,,,,13,,,,43,0
171492,note_on,0,0,14,,,,,,,,,13,,,,36,0
171492,note_on,66,0,14,,,,,,,,,13,,,,52,0
171493,note_on,120,0,9,,,,,,,,,8,,,,48,0
171494,note_on,66,0,15,,,,,,,,,14,,,,36,0
171495,note_on,120,0,10,,,,,,,,,15,,,,48,0
171600,set_tempo,240,1,0,,,,,,400000,,,,,,,,
171720,set_tempo,0,1,0,,,,,,306122,,,,,,,,
171720,key_signature,120,1,0,,,,,A,,,,,,,,,
171723,control_change,240,0,5,,,,,,,,,4,11,37,,,
171723,note_on,0,0,5,,,,,,,,,4,,,,64,100
171724,note_on,240,0,6,,,,,,,,,5,,,,52,100
171724,control_change,0,0,6,,,,,,,,,5,11,37,,,
171815,note_on,92,0,5,,,,,,,,,4,,,,64,0
171816,note_on,92,0,6,,,,,,,,,5,,,,52,0
171840,set_tempo,120,1,0,,,,,,292683,,,,,,,,
171843,note_on,28,0,5,,,,,,,,,4,,,,64,100
171844,note_on,28,0,6,,,,,,,,,5,,,,52,100
171935,note_on,92,0,5,,,,,,,,,4,,,,64,0
171936,note_on,92,0,6,,,,,,,,,5,,,,52,0
171963,note_on,28,0,5,,,,,,,,,4,,,,64,100
171964,note_on,28,0,6,,,,,,,,,5,,,,52,100
172055,note_on,92,0,5,,,,,,,,,4,,,,64,0
172056,note_on,92,0,6,,,,,,,,,5,,,,52,0
172080,set_tempo,240,1,0,,,,,,308483,,,,,,,,
172083,note_on,28,0,5,,,,,,,,,4,,,,64,100
172084,note_on,28,0,6,,,,,,,,,5,,,,52,100
172175,note_on,92,0,5,,,,,,,,,4,,,,64,0
172176,note_on,92,0,6,,,,,,,,,5,,,,52,0
172200,set_tempo,120,1,0,,,,,,294118,,,,,,,,
172203,note_on,28,0,5,,,,,,,,,4,,,,64,100
172204,note_on,28,0,6,,,,,,,,,5,,,,52,100
172295,note_on,92,0,5,,,,,,,,,4,,,,64,0
172296,note_on,92,0,6,,,,,,,,,5,,,,52,0
172323,note_on,28,0,5,,,,,,,,,4,,,,64,100
172324,note_on,28,0,6,,,,,,,,,5,,,,52,100
172415,note_on,92,0,5,,,,,,,,,4,,,,64,0
172416,note_on,92,0,6,,,,,,,,,5,,,,52,0
172440,set_tempo,240,1,0,,,,,,311688,,,,,,,,
172443,note_on,28,0,5,,,,,,,,,4,,,,64,100
172444,note_on,28,0,6,,,,,,,,,5,,,,52,100
172535,note_on,92,0,5,,,,,,,,,4,,,,64,0
172536,note_on,92,0,6,,,,,,,,,5,,,,52,0
172560,set_tempo,120,1,0,,,,,,296296,,,,,,,,
172563,note_on,28,0,5,,,,,,,,,4,,,,64,100
172564,note_on,28,0,6,,,,,,,,,5,,,,52,100
172655,note_on,92,0,5,,,,,,,,,4,,,,64,0
172656,note_on,92,0,6,,,,,,,,,5,,,,52,0
172683,note_on,28,0,5,,,,,,,,,4,,,,64,100
172684,note_on,28,0,6,,,,,,,,,5,,,,52,100
172775,note_on,92,0,5,,,,,,,,,4,,,,64,0
172776,note_on,92,0,6,,,,,,,,,5,,,,52,0
172800,set_tempo,240,1,0,,,,,,314136,,,,,,,,
172803,note_on,28,0,5,,,,,,,,,4,,,,64,100
172804,note_on,28,0,6,,,,,,,,,5,,,,52,100
172895,note_on,92,0,5,,,,,,,,,4,,,,64,0
172896,note_on,92,0,6,,,,,,,,,5,,,,52,0
172920,set_tempo,120,1,0,,,,,,301508,,,,,,,,
172923,note_on,28,0,5,,,,,,,,,4,,,,64,100
172924,note_on,28,0,6,,,,,,,,,5,,,,52,100
173015,note_on,92,0,5,,,,,,,,,4,,,,64,0
173016,note_on,92,0,6,,,,,,,,,5,,,,52,0
173043,note_on,28,0,5,,,,,,,,,4,,,,64,100
173044,note_on,28,0,6,,,,,,,,,5,,,,52,100
173135,note_on,92,0,5,,,,,,,,,4,,,,64,0
173136,note_on,92,0,6,,,,,,,,,5,,,,52,0
173160,set_tempo,240,1,0,,,,,,320000,,,,,,,,
173163,control_change,28,0,5,,,,,,,,,4,11,37,,,
173163,note_on,0,0,5,,,,,,,,,4,,,,64,100
173164,note_on,28,0,6,,,,,,,,,5,,,,52,100
173164,control_change,0,0,6,,,,,,,,,5,11,37,,,
173165,note_on,1680,0,3,,,,,,,,,2,,,,76,101
173165,control_change,0,0,3,,,,,,,,,2,11,32,,,
173165,note_on,0,0,3,,,,,,,,,2,,,,64,101
173167,control_change,1680,0,8,,,,,,,,,7,11,37,,,
173167,note_on,0,0,8,,,,,,,,,7,,,,52,110
173169,control_change,1680,0,4,,,,,,,,,3,11,32,,,
173173,control_change,1680,0,9,,,,,,,,,8,11,37,,,
173194,control_change,31,0,5,,,,,,,,,4,11,38,,,
173195,control_change,31,0,6,,,,,,,,,5,11,38,,,
173196,control_change,31,0,3,,,,,,,,,2,11,33,,,
173198,control_change,31,0,8,,,,,,,,,7,11,38,,,
173200,control_change,31,0,4,,,,,,,,,3,11,33,,,
173204,control_change,31,0,9,,,,,,,,,8,11,38,,,
173226,control_change,32,0,5,,,,,,,,,4,11,39,,,
173227,control_change,32,0,6,,,,,,,,,5,11,39,,,
173228,control_change,32,0,3,,,,,,,,,2,11,34,,,
173230,control_change,32,0,8,,,,,,,,,7,11,39,,,
173232,control_change,32,0,4,,,,,,,,,3,11,34,,,
173236,control_change,32,0,9,,,,,,,,,8,11,39,,,
173255,note_on,29,0,5,,,,,,,,,4,,,,64,0
173256,note_on,29,0,6,,,,,,,,,5,,,,52,0
173257,control_change,2,0,5,,,,,,,,,4,11,40,,,
173257,note_on,0,0,3,,,,,,,,,2,,,,76,0
173257,note_on,29,0,3,,,,,,,,,2,,,,64,0
173258,control_change,2,0,6,,,,,,,,,5,11,40,,,
173259,note_on,29,0,8,,,,,,,,,7,,,,52,0
173259,control_change,2,0,3,,,,,,,,,2,11,35,,,
173261,control_change,2,0,8,,,,,,,,,7,11,40,,,
173263,control_change,31,0,4,,,,,,,,,3,11,35,,,
173267,control_change,31,0,9,,,,,,,,,8,11,40,,,
173280,set_tempo,120,1,0,,,,,,306122,,,,,,,,
173283,note_on,26,0,5,,,,,,,,,4,,,,64,100
173284,note_on,26,0,6,,,,,,,,,5,,,,52,100
173285,note_on,26,0,3,,,,,,,,,2,,,,64,101
173285,note_on,0,0,3,,,,,,,,,2,,,,76,101
173287,note_on,26,0,8,,,,,,,,,7,,,,52,110
173289,control_change,6,0,5,,,,,,,,,4,11,41,,,
173290,control_change,6,0,6,,,,,,,,,5,11,41,,,
173291,control_change,6,0,3,,,,,,,,,2,11,36,,,
173293,control_change,6,0,8,,,,,,,,,7,11,41,,,
173295,control_change,32,0,4,,,,,,,,,3,11,36,,,
173299,control_change,32,0,9,,,,,,,,,8,11,41,,,
173320,control_change,31,0,5,,,,,,,,,4,11,42,,,
173321,control_change,31,0,6,,,,,,,,,5,11,42,,,
173322,control_change,31,0,3,,,,,,,,,2,11,37,,,
173324,control_change,31,0,8,,,,,,,,,7,11,42,,,
173326,control_change,31,0,4,,,,,,,,,3,11,37,,,
173330,control_change,31,0,9,,,,,,,,,8,11,42,,,
173352,control_change,32,0,5,,,,,,,,,4,11,43,,,
173353,control_change,32,0,6,,,,,,,,,5,11,43,,,
173354,control_change,32,0,3,,,,,,,,,2,11,38,,,
173356,control_change,32,0,8,,,,,,,,,7,11,43,,,
173358,control_change,32,0,4,,,,,,,,,3,11,38,,,
173362,control_change,32,0,9,,,,,,,,,8,11,43,,,
173375,note_on,23,0,5,,,,,,,,,4,,,,64,0
173376,note_on,23,0,6,,,,,,,,,5,,,,52,0
173377,note_on,0,0,3,,,,,,,,,2,,,,64,0
173377,note_on,23,0,3,,,,,,,,,2,,,,76,0
173379,note_on,23,0,8,,,,,,,,,7,,,,52,0
173383,control_change,8,0,5,,,,,,,,,4,11,44,,,
173384,control_change,8,0,6,,,,,,,,,5,11,44,,,
173385,control_change,8,0,3,,,,,,,,,2,11,39,,,
173387,control_change,8,0,8,,,,,,,,,7,11,44,,,
173389,control_change,31,0,4,,,,,,,,,3,11,39,,,
173393,control_change,31,0,9,,,,,,,,,8,11,44,,,
173403,note_on,20,0,5,,,,,,,,,4,,,,64,100
173404,note_on,20,0,6,,,,,,,,,5,,,,52,100
173405,note_on,0,0,3,,,,,,,,,2,,,,76,101
173405,note_on,20,0,3,,,,,,,,,2,,,,64,101
173407,note_on,20,0,8,,,,,,,,,7,,,,52,110
173415,control_change,12,0,5,,,,,,,,,4,11,45,,,
173416,control_change,12,0,6,,,,,,,,,5,11,45,,,
173417,control_change,12,0,3,,,,,,,,,2,11,40,,,
173419,control_change,12,0,8,,,,,,,,,7,11,45,,,
173421,control_change,32,0,4,,,,,,,,,3,11,40,,,
173425,control_change,32,0,9,,,,,,,,,8,11,45,,,
173447,control_change,32,0,5,,,,,,,,,4,11,46,,,
173448,control_change,32,0,6,,,,,,,,,5,11,46,,,
173449,control_change,32,0,3,,,,,,,,,2,11,41,,,
173451,control_change,32,0,8,,,,,,,,,7,11,46,,,
173453,control_change,32,0,4,,,,,,,,,3,11,41,,,
173457,control_change,32,0,9,,,,,,,,,8,11,46,,,
173478,control_change,31,0,5,,,,,,,,,4,11,47,,,
173479,control_change,31,0,6,,,,,,,,,5,11,47,,,
173480,control_change,31,0,3,,,,,,,,,2,11,42,,,
173482,control_change,31,0,8,,,,,,,,,7,11,47,,,
173484,control_change,31,0,4,,,,,,,,,3,11,42,,,
173488,control_change,31,0,9,,,,,,,,,8,11,47,,,
173495,note_on,17,0,5,,,,,,,,,4,,,,64,0
173496,note_on,17,0,6,,,,,,,,,5,,,,52,0
173497,note_on,0,0,3,,,,,,,,,2,,,,64,0
173497,note_on,17,0,3,,,,,,,,,2,,,,76,0
173499,note_on,17,0,8,,,,,,,,,7,,,,52,0
173510,control_change,15,0,5,,,,,,,,,4,11,48,,,
173511,control_change,15,0,6,,,,,,,,,5,11,48,,,
173512,control_change,15,0,3,,,,,,,,,2,11,43,,,
173514,control_change,15,0,8,,,,,,,,,7,11,48,,,
173516,control_change,32,0,4,,,,,,,,,3,11,43,,,
173520,set_tempo,240,1,0,,,,,,322581,,,,,,,,
173520,control_change,32,0,9,,,,,,,,,8,11,48,,,
173523,note_on,13,0,5,,,,,,,,,4,,,,64,100
173524,note_on,13,0,6,,,,,,,,,5,,,,52,100
173525,note_on,0,0,3,,,,,,,,,2,,,,64,101
173525,note_on,13,0,3,,,,,,,,,2,,,,76,101
173527,note_on,13,0,8,,,,,,,,,7,,,,52,110
173541,control_change,18,0,5,,,,,,,,,4,11,49,,,
173542,control_change,18,0,6,,,,,,,,,5,11,49,,,
173543,control_change,18,0,3,,,,,,,,,2,11,44,,,
173545,control_change,18,0,8,,,,,,,,,7,11,49,,,
173547,control_change,31,0,4,,,,,,,,,3,11,44,,,
173551,control_change,31,0,9,,,,,,,,,8,11,49,,,
173573,control_change,32,0,5,,,,,,,,,4,11,50,,,
173574,control_change,32,0,6,,,,,,,,,5,11,50,,,
173575,control_change,32,0,3,,,,,,,,,2,11,45,,,
173577,control_change,32,0,8,,,,,,,,,7,11,50,,,
173579,control_change,32,0,4,,,,,,,,,3,11,45,,,
173583,control_change,32,0,9,,,,,,,,,8,11,50,,,
173604,control_change,31,0,5,,,,,,,,,4,11,51,,,
173605,control_change,31,0,6,,,,,,,,,5,11,51,,,
173606,control_change,31,0,3,,,,,,,,,2,11,46,,,
173608,control_change,31,0,8,,,,,,,,,7,11,51,,,
173610,control_change,31,0,4,,,,,,,,,3,11,46,,,
173614,control_change,31,0,9,,,,,,,,,8,11,51,,,
173615,note_on,11,0,5,,,,,,,,,4,,,,64,0
173616,note_on,11,0,6,,,,,,,,,5,,,,52,0
173617,note_on,0,0,3,,,,,,,,,2,,,,76,0
173617,note_on,11,0,3,,,,,,,,,2,,,,64,0
173619,note_on,11,0,8,,,,,,,,,7,,,,52,0
173636,control_change,21,0,5,,,,,,,,,4,11,52,,,
173637,control_change,21,0,6,,,,,,,,,5,11,52,,,
173638,control_change,21,0,3,,,,,,,,,2,11,47,,,
173640,set_tempo,120,1,0,,,,,,308483,,,,,,,,
173640,control_change,21,0,8,,,,,,,,,7,11,52,,,
173642,control_change,32,0,4,,,,,,,,,3,11,47,,,
173643,note_on,7,0,5,,,,,,,,,4,,,,64,100
173644,note_on,7,0,6,,,,,,,,,5,,,,52,100
173645,note_on,7,0,3,,,,,,,,,2,,,,76,101
173645,note_on,0,0,3,,,,,,,,,2,,,,64,101
173646,control_change,32,0,9,,,,,,,,,8,11,52,,,
173647,note_on,7,0,8,,,,,,,,,7,,,,52,110
173667,control_change,24,0,5,,,,,,,,,4,11,53,,,
173668,control_change,24,0,6,,,,,,,,,5,11,53,,,
173669,control_change,24,0,3,,,,,,,,,2,11,48,,,
173671,control_change,24,0,8,,,,,,,,,7,11,53,,,
173673,control_change,31,0,4,,,,,,,,,3,11,48,,,
173677,control_change,31,0,9,,,,,,,,,8,11,53,,,
173699,control_change,32,0,5,,,,,,,,,4,11,54,,,
173700,control_change,32,0,6,,,,,,,,,5,11,54,,,
173701,control_change,32,0,3,,,,,,,,,2,11,49,,,
173703,control_change,32,0,8,,,,,,,,,7,11,54,,,
173705,control_change,32,0,4,,,,,,,,,3,11,49,,,
173709,control_change,32,0,9,,,,,,,,,8,11,54,,,
173731,control_change,32,0,5,,,,,,,,,4,11,55,,,
173732,control_change,32,0,6,,,,,,,,,5,11,55,,,
173733,control_change,32,0,3,,,,,,,,,2,11,50,,,
173735,note_on,4,0,5,,,,,,,,,4,,,,64,0
173735,control_change,32,0,8,,,,,,,,,7,11,55,,,
173736,note_on,4,0,6,,,,,,,,,5,,,,52,0
173737,note_on,4,0,3,,,,,,,,,2,,,,64,0
173737,control_change,32,0,4,,,,,,,,,3,11,50,,,
173737,note_on,0,0,3,,,,,,,,,2,,,,76,0
173739,note_on,4,0,8,,,,,,,,,7,,,,52,0
173741,control_change,32,0,9,,,,,,,,,8,11,55,,,
173762,control_change,27,0,5,,,,,,,,,4,11,56,,,
173763,control_change,27,0,6,,,,,,,,,5,11,56,,,
173763,note_on,1,0,5,,,,,,,,,4,,,,64,100
173764,control_change,27,0,3,,,,,,,,,2,11,51,,,
173764,note_on,1,0,6,,,,,,,,,5,,,,52,100
173765,note_on,1,0,3,,,,,,,,,2,,,,76,101
173765,note_on,0,0,3,,,,,,,,,2,,,,64,101
173766,control_change,27,0,8,,,,,,,,,7,11,56,,,
173767,note_on,1,0,8,,,,,,,,,7,,,,52,110
173768,control_change,31,0,4,,,,,,,,,3,11,51,,,
173772,control_change,31,0,9,,,,,,,,,8,11,56,,,
173794,control_change,31,0,5,,,,,,,,,4,11,57,,,
173795,control_change,31,0,6,,,,,,,,,5,11,57,,,
173796,control_change,31,0,3,,,,,,,,,2,11,52,,,
173798,control_change,31,0,8,,,,,,,,,7,11,57,,,
173800,control_change,32,0,4,,,,,,,,,3,11,52,,,
173804,control_change,32,0,9,,,,,,,,,8,11,57,,,
173825,control_change,31,0,5,,,,,,,,,4,11,58,,,
173826,control_change,31,0,6,,,,,,,,,5,11,58,,,
173827,control_change,31,0,3,,,,,,,,,2,11,52,,,
173829,control_change,31,0,8,,,,,,,,,7,11,58,,,
173831,control_change,31,0,4,,,,,,,,,3,11,53,,,
173835,control_change,31,0,9,,,,,,,,,8,11,58,,,
173855,note_on,30,0,5,,,,,,,,,4,,,,64,0
173856,note_on,30,0,6,,,,,,,,,5,,,,52,0
173857,control_change,2,0,5,,,,,,,,,4,11,59,,,
173857,note_on,30,0,3,,,,,,,,,2,,,,64,0
173857,note_on,0,0,3,,,,,,,,,2,,,,76,0
173858,control_change,2,0,6,,,,,,,,,5,11,59,,,
173859,control_change,2,0,3,,,,,,,,,2,11,53,,,
173859,note_on,30,0,8,,,,,,,,,7,,,,52,0
173861,control_change,2,0,8,,,,,,,,,7,11,59,,,
173863,control_change,32,0,4,,,,,,,,,3,11,54,,,
173867,control_change,32,0,9,,,,,,,,,8,11,59,,,
173880,set_tempo,240,1,0,,,,,,326087,,,,,,,,
173883,note_on,26,0,5,,,,,,,,,4,,,,64,100
173884,note_on,26,0,6,,,,,,,,,5,,,,52,100
173885,note_on,26,0,3,,,,,,,,,2,,,,64,101
173885,note_on,0,0,3,,,,,,,,,2,,,,76,101
173887,note_on,0,0,8,,,,,,,,,7,,,,64,110
173887,note_on,26,0,8,,,,,,,,,7,,,,52,110
173888,control_change,5,0,5,,,,,,,,,4,11,60,,,
173889,control_change,5,0,6,,,,,,,,,5,11,60,,,
173889,note_on,0,0,4,,,,,,,,,3,,,,40,100
173889,note_on,26,0,4,,,,,,,,,3,,,,52,100
173890,control_change,5,0,3,,,,,,,,,2,11,54,,,
173892,control_change,5,0,8,,,,,,,,,7,11,60,,,
173893,note_on,26,0,9,,,,,,,,,8,,,,52,110
173894,control_change,5,0,4,,,,,,,,,3,11,55,,,
173898,control_change,5,0,9,,,,,,,,,8,11,60,,,
173920,control_change,32,0,5,,,,,,,,,4,11,61,,,
173921,control_change,32,0,6,,,,,,,,,5,11,61,,,
173922,control_change,32,0,3,,,,,,,,,2,11,55,,,
173924,control_change,32,0,8,,,,,,,,,7,11,61,,,
173926,control_change,32,0,4,,,,,,,,,3,11,56,,,
173930,control_change,32,0,9,,,,,,,,,8,11,61,,,
173951,control_change,31,0,5,,,,,,,,,4,11,62,,,
173952,control_change,31,0,6,,,,,,,,,5,11,62,,,
173953,control_change,31,0,3,,,,,,,,,2,11,55,,,
173955,control_change,31,0,8,,,,,,,,,7,11,62,,,
173957,control_change,31,0,4,,,,,,,,,3,11,57,,,
173961,control_change,31,0,9,,,,,,,,,8,11,62,,,
173975,note_on,24,0,5,,,,,,,,,4,,,,64,0
173976,note_on,24,0,6,,,,,,,,,5,,,,52,0
173977,note_on,0,0,3,,,,,,,,,2,,,,64,0
173977,note_on,24,0,3,,,,,,,,,2,,,,76,0
173979,note_on,24,0,8,,,,,,,,,7,,,,64,0
173979,note_on,0,0,8,,,,,,,,,7,,,,52,0
173981,note_on,24,0,4,,,,,,,,,3,,,,40,0
173981,note_on,0,0,4,,,,,,,,,3,,,,52,0
173983,control_change,8,0,5,,,,,,,,,4,11,63,,,
173984,control_change,8,0,6,,,,,,,,,5,11,63,,,
173985,note_on,24,0,9,,,,,,,,,8,,,,52,0
173985,control_change,8,0,3,,,,,,,,,2,11,56,,,
173987,control_change,8,0,8,,,,,,,,,7,11,63,,,
173989,control_change,8,0,4,,,,,,,,,3,11,58,,,
173993,control_change,8,0,9,,,,,,,,,8,11,63,,,
174000,set_tempo,120,1,0,,,,,,314136,,,,,,,,
174003,note_on,20,0,5,,,,,,,,,4,,,,64,100
174004,note_on,20,0,6,,,,,,,,,5,,,,52,100
174005,note_on,20,0,3,,,,,,,,,2,,,,64,101
174005,note_on,0,0,3,,,,,,,,,2,,,,76,101
174007,note_on,0,0,8,,,,,,,,,7,,,,52,110
174007,note_on,20,0,8,,,,,,,,,7,,,,64,110
174009,note_on,0,0,4,,,,,,,,,3,,,,52,100
174009,note_on,20,0,4,,,,,,,,,3,,,,40,100
174013,note_on,20,0,9,,,,,,,,,8,,,,52,110
174015,control_change,12,0,5,,,,,,,,,4,11,64,,,
174016,control_change,12,0,6,,,,,,,,,5,11,64,,,
174017,control_change,12,0,3,,,,,,,,,2,11,57,,,
174019,control_change,12,0,8,,,,,,,,,7,11,64,,,
174021,control_change,12,0,4,,,,,,,,,3,11,59,,,
174025,control_change,12,0,9,,,,,,,,,8,11,64,,,
174046,control_change,31,0,5,,,,,,,,,4,11,65,,,
174047,control_change,31,0,6,,,,,,,,,5,11,65,,,
174048,control_change,31,0,3,,,,,,,,,2,11,58,,,
174050,control_change,31,0,8,,,,,,,,,7,11,65,,,
174052,control_change,31,0,4,,,,,,,,,3,11,60,,,
174056,control_change,31,0,9,,,,,,,,,8,11,65,,,
174078,control_change,32,0,5,,,,,,,,,4,11,66,,,
174079,control_change,32,0,6,,,,,,,,,5,11,66,,,
174080,control_change,32,0,3,,,,,,,,,2,11,58,,,
174082,control_change,32,0,8,,,,,,,,,7,11,66,,,
174084,control_change,32,0,4,,,,,,,,,3,11,61,,,
174088,control_change,32,0,9,,,,,,,,,8,11,66,,,
174095,note_on,17,0,5,,,,,,,,,4,,,,64,0
174096,note_on,17,0,6,,,,,,,,,5,,,,52,0
174097,note_on,0,0,3,,,,,,,,,2,,,,64,0
174097,note_on,17,0,3,,,,,,,,,2,,,,76,0
174099,note_on,17,0,8,,,,,,,,,7,,,,52,0
174099,note_on,0,0,8,,,,,,,,,7,,,,64,0
174101,note_on,17,0,4,,,,,,,,,3,,,,52,0
174101,note_on,0,0,4,,,,,,,,,3,,,,40,0
174105,note_on,17,0,9,,,,,,,,,8,,,,52,0
174109,control_change,14,0,5,,,,,,,,,4,11,67,,,
174110,control_change,14,0,6,,,,,,,,,5,11,67,,,
174111,control_change,14,0,3,,,,,,,,,2,11,59,,,
174113,control_change,14,0,8,,,,,,,,,7,11,67,,,
174115,control_change,14,0,4,,,,,,,,,3,11,62,,,
174119,control_change,14,0,9,,,,,,,,,8,11,67,,,
174123,note_on,14,0,5,,,,,,,,,4,,,,64,100
174124,note_on,14,0,6,,,,,,,,,5,,,,52,100
174125,note_on,14,0,3,,,,,,,,,2,,,,64,101
174125,note_on,0,0,3,,,,,,,,,2,,,,76,101
174127,note_on,14,0,8,,,,,,,,,7,,,,64,110
174127,note_on,0,0,8,,,,,,,,,7,,,,52,110
174129,note_on,14,0,4,,,,,,,,,3,,,,52,100
174129,note_on,0,0,4,,,,,,,,,3,,,,40,100
174133,note_on,14,0,9,,,,,,,,,8,,,,52,110
174141,control_change,18,0,5,,,,,,,,,4,11,68,,,
174142,control_change,18,0,6,,,,,,,,,5,11,68,,,
174143,control_change,18,0,3,,,,,,,,,2,11,60,,,
174145,control_change,18,0,8,,,,,,,,,7,11,68,,,
174147,control_change,18,0,4,,,,,,,,,3,11,63,,,
174151,control_change,18,0,9,,,,,,,,,8,11,68,,,
174172,control_change,31,0,5,,,,,,,,,4,11,69,,,
174173,control_change,31,0,6,,,,,,,,,5,11,69,,,
174174,control_change,31,0,3,,,,,,,,,2,11,61,,,
174176,control_change,31,0,8,,,,,,,,,7,11,69,,,
174178,control_change,31,0,4,,,,,,,,,3,11,64,,,
174182,control_change,31,0,9,,,,,,,,,8,11,69,,,
174204,control_change,32,0,5,,,,,,,,,4,11,70,,,
174205,control_change,32,0,6,,,,,,,,,5,11,70,,,
174206,control_change,32,0,3,,,,,,,,,2,11,61,,,
174208,control_change,32,0,8,,,,,,,,,7,11,70,,,
174210,control_change,32,0,4,,,,,,,,,3,11,65,,,
174214,control_change,32,0,9,,,,,,,,,8,11,70,,,
174215,note_on,11,0,5,,,,,,,,,4,,,,64,0
174216,note_on,11,0,6,,,,,,,,,5,,,,52,0
174217,note_on,11,0,3,,,,,,,,,2,,,,76,0
174217,note_on,0,0,3,,,,,,,,,2,,,,64,0
174219,note_on,11,0,8,,,,,,,,,7,,,,52,0
174219,note_on,0,0,8,,,,,,,,,7,,,,64,0
174221,note_on,0,0,4,,,,,,,,,3,,,,52,0
174221,note_on,11,0,4,,,,,,,,,3,,,,40,0
174225,note_on,11,0,9,,,,,,,,,8,,,,52,0
174235,control_change,20,0,5,,,,,,,,,4,11,71,,,
174236,control_change,20,0,6,,,,,,,,,5,11,71,,,
174237,control_change,20,0,3,,,,,,,,,2,11,62,,,
174239,control_change,20,0,8,,,,,,,,,7,11,71,,,
174240,set_tempo,240,1,0,,,,,,338983,,,,,,,,
174241,control_change,20,0,4,,,,,,,,,3,11,66,,,
174243,note_on,8,0,5,,,,,,,,,4,,,,64,100
174244,note_on,8,0,6,,,,,,,,,5,,,,52,100
174245,control_change,20,0,9,,,,,,,,,8,11,71,,,
174245,note_on,0,0,3,,,,,,,,,2,,,,76,101
174245,note_on,8,0,3,,,,,,,,,2,,,,64,101
174247,note_on,8,0,8,,,,,,,,,7,,,,64,110
174247,note_on,0,0,8,,,,,,,,,7,,,,52,110
174249,note_on,8,0,4,,,,,,,,,3,,,,40,100
174249,note_on,0,0,4,,,,,,,,,3,,,,52,100
174253,note_on,8,0,9,,,,,,,,,8,,,,52,110
174267,control_change,24,0,5,,,,,,,,,4,11,72,,,
174268,control_change,24,0,6,,,,,,,,,5,11,72,,,
174269,control_change,24,0,3,,,,,,,,,2,11,63,,,
174271,control_change,24,0,8,,,,,,,,,7,11,72,,,
174273,control_change,24,0,4,,,,,,,,,3,11,67,,,
174277,control_change,24,0,9,,,,,,,,,8,11,72,,,
174299,control_change,32,0,5,,,,,,,,,4,11,73,,,
174300,control_change,32,0,6,,,,,,,,,5,11,73,,,
174301,control_change,32,0,3,,,,,,,,,2,11,64,,,
174303,control_change,32,0,8,,,,,,,,,7,11,73,,,
174305,control_change,32,0,4,,,,,,,,,3,11,68,,,
174309,control_change,32,0,9,,,,,,,,,8,11,73,,,
174330,control_change,31,0,5,,,,,,,,,4,11,74,,,
174331,control_change,31,0,6,,,,,,,,,5,11,74,,,
174332,control_change,31,0,3,,,,,,,,,2,11,64,,,
174334,control_change,31,0,8,,,,,,,,,7,11,74,,,
174335,note_on,5,0,5,,,,,,,,,4,,,,64,0
174336,note_on,5,0,6,,,,,,,,,5,,,,52,0
174336,control_change,31,0,4,,,,,,,,,3,11,69,,,
174337,note_on,0,0,3,,,,,,,,,2,,,,64,0
174337,note_on,5,0,3,,,,,,,,,2,,,,76,0
174339,note_on,0,0,8,,,,,,,,,7,,,,64,0
174339,note_on,5,0,8,,,,,,,,,7,,,,52,0
174340,control_change,31,0,9,,,,,,,,,8,11,74,,,
174341,note_on,5,0,4,,,,,,,,,3,,,,52,0
174341,note_on,0,0,4,,,,,,,,,3,,,,40,0
174345,note_on,5,0,9,,,,,,,,,8,,,,52,0
174360,set_tempo,120,1,0,,,,,,326975,,,,,,,,
174362,control_change,27,0,5,,,,,,,,,4,11,75,,,
174363,note_on,1,0,5,,,,,,,,,4,,,,64,100
174363,control_change,27,0,6,,,,,,,,,5,11,75,,,
174364,control_change,27,0,3,,,,,,,,,2,11,65,,,
174364,note_on,1,0,6,,,,,,,,,5,,,,52,100
174365,note_on,1,0,3,,,,,,,,,2,,,,76,101
174365,note_on,0,0,3,,,,,,,,,2,,,,64,101
174366,control_change,27,0,8,,,,,,,,,7,11,75,,,
174367,note_on,0,0,8,,,,,,,,,7,,,,52,110
174367,note_on,1,0,8,,,,,,,,,7,,,,64,110
174368,control_change,27,0,4,,,,,,,,,3,11,70,,,
174369,note_on,0,0,4,,,,,,,,,3,,,,40,100
174369,note_on,1,0,4,,,,,,,,,3,,,,52,100
174372,control_change,27,0,9,,,,,,,,,8,11,75,,,
174373,note_on,1,0,9,,,,,,,,,8,,,,52,110
174393,control_change,30,0,5,,,,,,,,,4,11,76,,,
174394,control_change,30,0,6,,,,,,,,,5,11,76,,,
174395,control_change,30,0,3,,,,,,,,,2,11,66,,,
174397,control_change,30,0,8,,,,,,,,,7,11,76,,,
174399,control_change,30,0,4,,,,,,,,,3,11,71,,,
174403,control_change,30,0,9,,,,,,,,,8,11,76,,,
174425,control_change,32,0,5,,,,,,,,,4,11,77,,,
174426,control_change,32,0,6,,,,,,,,,5,11,77,,,
174427,control_change,32,0,3,,,,,,,,,2,11,67,,,
174429,control_change,32,0,8,,,,,,,,,7,11,77,,,
174431,control_change,32,0,4,,,,,,,,,3,11,72,,,
174435,control_change,32,0,9,,,,,,,,,8,11,77,,,
174455,note_on,30,0,5,,,,,,,,,4,,,,64,0
174456,note_on,30,0,6,,,,,,,,,5,,,,52,0
174456,control_change,1,0,5,,,,,,,,,4,11,78,,,
174457,control_change,1,0,6,,,,,,,,,5,11,78,,,
174457,note_on,30,0,3,,,,,,,,,2,,,,64,0
174457,note_on,0,0,3,,,,,,,,,2,,,,76,0
174458,control_change,1,0,3,,,,,,,,,2,11,67,,,
174459,note_on,0,0,8,,,,,,,,,7,,,,64,0
174459,note_on,30,0,8,,,,,,,,,7,,,,52,0
174460,control_change,1,0,8,,,,,,,,,7,11,78,,,
174461,note_on,0,0,4,,,,,,,,,3,,,,52,0
174461,note_on,30,0,4,,,,,,,,,3,,,,40,0
174462,control_change,1,0,4,,,,,,,,,3,11,73,,,
174465,note_on,30,0,9,,,,,,,,,8,,,,52,0
174466,control_change,1,0,9,,,,,,,,,8,11,78,,,
174480,set_tempo,120,1,0,,,,,,364742,,,,,,,,
174483,note_on,27,0,5,,,,,,,,,4,,,,64,100
174484,note_on,27,0,6,,,,,,,,,5,,,,52,100
174485,note_on,27,0,3,,,,,,,,,2,,,,76,101
174485,note_on,0,0,3,,,,,,,,,2,,,,64,101
174487,note_on,0,0,8,,,,,,,,,7,,,,52,110
174487,note_on,27,0,8,,,,,,,,,7,,,,64,110
174488,control_change,5,0,5,,,,,,,,,4,11,79,,,
174489,control_change,5,0,6,,,,,,,,,5,11,79,,,
174489,note_on,0,0,4,,,,,,,,,3,,,,52,100
174489,note_on,27,0,4,,,,,,,,,3,,,,40,100
174490,control_change,5,0,3,,,,,,,,,2,11,68,,,
174492,control_change,5,0,8,,,,,,,,,7,11,79,,,
174493,note_on,27,0,9,,,,,,,,,8,,,,52,110
174494,control_change,5,0,4,,,,,,,,,3,11,74,,,
174498,control_change,5,0,9,,,,,,,,,8,11,79,,,
174519,control_change,31,0,5,,,,,,,,,4,11,80,,,
174520,control_change,31,0,6,,,,,,,,,5,11,80,,,
174521,control_change,31,0,3,,,,,,,,,2,11,69,,,
174523,control_change,31,0,8,,,,,,,,,7,11,80,,,
174525,control_change,31,0,4,,,,,,,,,3,11,75,,,
174529,control_change,31,0,9,,,,,,,,,8,11,80,,,
174541,note_on,3060,0,1,,,,,,,,,0,,,,81,101
174541,note_on,0,0,1,,,,,,,,,0,,,,85,101
174541,control_change,0,0,1,,,,,,,,,0,11,52,,,
174544,control_change,3060,0,2,,,,,,,,,1,11,52,,,
174544,note_on,0,0,2,,,,,,,,,1,,,,69,100
174544,note_on,0,0,2,,,,,,,,,1,,,,73,100
174551,control_change,32,0,5,,,,,,,,,4,11,81,,,
174552,control_change,32,0,6,,,,,,,,,5,11,81,,,
174553,control_change,32,0,3,,,,,,,,,2,11,70,,,
174555,control_change,32,0,8,,,,,,,,,7,11,81,,,
174555,control_change,14,0,1,,,,,,,,,0,11,56,,,
174557,control_change,32,0,4,,,,,,,,,3,11,76,,,
174558,control_change,14,0,2,,,,,,,,,1,11,56,,,
174561,control_change,32,0,9,,,,,,,,,8,11,81,,,
174569,control_change,14,0,1,,,,,,,,,0,11,61,,,
174572,control_change,14,0,2,,,,,,,,,1,11,61,,,
174575,note_on,24,0,5,,,,,,,,,4,,,,64,0
174576,note_on,24,0,6,,,,,,,,,5,,,,52,0
174577,note_on,24,0,3,,,,,,,,,2,,,,64,0
174577,note_on,0,0,3,,,,,,,,,2,,,,76,0
174579,note_on,24,0,8,,,,,,,,,7,,,,52,0
174579,note_on,0,0,8,,,,,,,,,7,,,,64,0
174581,note_on,0,0,4,,,,,,,,,3,,,,40,0
174581,note_on,24,0,4,,,,,,,,,3,,,,52,0
174583,control_change,14,0,1,,,,,,,,,0,11,65,,,
174583,control_change,8,0,5,,,,,,,,,4,11,82,,,
174584,control_change,8,0,6,,,,,,,,,5,11,82,,,
174585,control_change,8,0,3,,,,,,,,,2,11,70,,,
174585,note_on,24,0,9,,,,,,,,,8,,,,52,0
174586,control_change,14,0,2,,,,,,,,,1,11,65,,,
174587,control_change,8,0,8,,,,,,,,,7,11,82,,,
174589,control_change,8,0,4,,,,,,,,,3,11,77,,,
174593,control_change,8,0,9,,,,,,,,,8,11,82,,,
174597,control_change,14,0,1,,,,,,,,,0,11,70,,,
174600,set_tempo,120,1,0,,,,,,285714,,,,,,,,
174600,note_on,0,0,11,,,,,,,,,10,,,,57,102
174600,control_change,14,0,2,,,,,,,,,1,11,70,,,
174600,control_change,3120,0,11,,,,,,,,,10,11,64,,,
174601,note_on,0,0,1,,,,,,,,,0,,,,81,0
174601,note_on,0,0,1,,,,,,,,,0,,,,81,116
174601,note_on,0,0,1,,,,,,,,,0,,,,85,116
174601,note_on,4,0,1,,,,,,,,,0,,,,85,0
174601,control_change,0,0,1,,,,,,,,,0,11,78,,,
174602,program_change,3119,0,12,,,,,,,,50,11,,,,,
174602,control_change,3120,0,7,,,,,,,,,6,11,82,,,
174603,control_change,20,0,5,,,,,,,,,4,11,82,,,
174603,note_on,0,0,5,,,,,,,,,4,,,,64,100
174603,control_change,1,0,12,,,,,,,,,11,11,64,,,
174603,note_on,0,0,12,,,,,,,,,11,,,,57,102
174604,note_on,0,0,2,,,,,,,,,1,,,,73,115
174604,note_on,0,0,2,,,,,,,,,1,,,,69,115
174604,control_change,0,0,2,,,,,,,,,1,11,78,,,
174604,control_change,20,0,6,,,,,,,,,5,11,82,,,
174604,note_on,0,0,6,,,,,,,,,5,,,,52,100
174604,note_on,4,0,2,,,,,,,,,1,,,,73,0
174604,note_on,0,0,2,,,,,,,,,1,,,,69,0
174605,note_on,0,0,3,,,,,,,,,2,,,,76,116
174605,note_on,0,0,3,,,,,,,,,2,,,,69,116
174605,control_change,20,0,3,,,,,,,,,2,11,78,,,
174607,note_on,0,0,8,,,,,,,,,7,,,,61,125
174607,note_on,20,0,8,,,,,,,,,7,,,,57,125
174607,control_change,0,0,8,,,,,,,,,7,11,82,,,
174608,note_on,3120,0,13,,,,,,,,,12,,,,57,112
174608,control_change,0,0,13,,,,,,,,,12,11,64,,,
174609,control_change,0,0,4,,,,,,,,,3,11,87,,,
174609,note_on,0,0,4,,,,,,,,,3,,,,45,100
174609,note_on,20,0,4,,,,,,,,,3,,,,64,115
174612,note_on,3120,0,14,,,,,,,,,13,,,,45,112
174612,control_change,0,0,14,,,,,,,,,13,11,64,,,
174613,control_change,20,0,9,,,,,,,,,8,11,82,,,
174613,note_on,0,0,9,,,,,,,,,8,,,,45,125
174614,note_on,0,0,15,,,,,,,,,14,,,,33,127
174614,control_change,3120,0,15,,,,,,,,,14,11,83,,,
174720,note_on,120,0,11,,,,,,,,,10,,,,57,0
174720,set_tempo,120,1,0,,,,,,300000,,,,,,,,
174723,note_on,120,0,12,,,,,,,,,11,,,,57,0
174728,note_on,120,0,13,,,,,,,,,12,,,,57,0
174728,note_on,0,0,13,,,,,,,,,12,,,,52,112
174732,note_on,0,0,14,,,,,,,,,13,,,,49,112
174732,note_on,120,0,14,,,,,,,,,13,,,,45,0
174783,note_on,180,0,5,,,,,,,,,4,,,,64,0
174783,note_on,0,0,5,,,,,,,,,4,,,,64,100
174784,note_on,0,0,6,,,,,,,,,5,,,,52,100
174784,note_on,180,0,6,,,,,,,,,5,,,,52,0
174787,note_on,0,0,8,,,,,,,,,7,,,,57,110
174787,note_on,0,0,8,,,,,,,,,7,,,,61,110
174787,note_on,180,0,8,,,,,,,,,7,,,,61,0
174787,note_on,0,0,8,,,,,,,,,7,,,,57,0
174788,note_on,60,0,13,,,,,,,,,12,,,,52,0
174792,note_on,60,0,14,,,,,,,,,13,,,,49,0
174840,set_tempo,120,1,0,,,,,,327869,,,,,,,,
174843,note_on,0,0,5,,,,,,,,,4,,,,64,100
174843,note_on,60,0,5,,,,,,,,,4,,,,64,0
174844,note_on,0,0,6,,,,,,,,,5,,,,52,100
174844,note_on,60,0,6,,,,,,,,,5,,,,52,0
174847,note_on,60,0,8,,,,,,,,,7,,,,61,0
174847,note_on,0,0,8,,,,,,,,,7,,,,57,110
174847,note_on,0,0,8,,,,,,,,,7,,,,57,0
174847,note_on,0,0,8,,,,,,,,,7,,,,61,110
174848,note_on,60,0,13,,,,,,,,,12,,,,57,112
174849,note_on,240,0,4,,,,,,,,,3,,,,45,0
174852,note_on,60,0,14,,,,,,,,,13,,,,52,112
174853,note_on,240,0,9,,,,,,,,,8,,,,45,0
174854,note_on,240,0,15,,,,,,,,,14,,,,33,0
174908,note_on,60,0,13,,,,,,,,,12,,,,57,0
174912,note_on,60,0,14,,,,,,,,,13,,,,52,0
174960,set_tempo,120,1,0,,,,,,285714,,,,,,,,
174960,note_on,240,0,11,,,,,,,,,10,,,,61,102
174963,note_on,0,0,5,,,,,,,,,4,,,,64,115
174963,note_on,120,0,5,,,,,,,,,4,,,,64,0
174963,note_on,240,0,12,,,,,,,,,11,,,,57,102
174964,note_on,0,0,6,,,,,,,,,5,,,,52,115
174964,note_on,120,0,6,,,,,,,,,5,,,,52,0
174967,note_on,120,0,8,,,,,,,,,7,,,,57,0
174967,note_on,0,0,8,,,,,,,,,7,,,,61,0
174967,note_on,0,0,8,,,,,,,,,7,,,,57,125
174967,note_on,0,0,8,,,,,,,,,7,,,,61,125
174968,note_on,60,0,13,,,,,,,,,12,,,,61,127
174972,note_on,60,0,14,,,,,,,,,13,,,,57,127
175020,note_on,60,0,11,,,,,,,,,10,,,,61,0
175023,note_on,60,0,12,,,,,,,,,11,,,,57,0
175080,note_on,60,0,11,,,,,,,,,10,,,,64,102
175080,set_tempo,120,1,0,,,,,,300000,,,,,,,,
175083,note_on,60,0,12,,,,,,,,,11,,,,61,102
175140,note_on,60,0,11,,,,,,,,,10,,,,64,0
175143,note_on,60,0,12,,,,,,,,,11,,,,61,0
175149,note_on,300,0,4,,,,,,,,,3,,,,45,100
175153,note_on,300,0,9,,,,,,,,,8,,,,45,110
175154,note_on,300,0,15,,,,,,,,,14,,,,33,112
175179,note_on,30,0,4,,,,,,,,,3,,,,45,0
175183,note_on,30,0,9,,,,,,,,,8,,,,45,0
175200,note_on,60,0,11,,,,,,,,,10,,,,69,102
175200,set_tempo,120,1,0,,,,,,327869,,,,,,,,
175203,note_on,60,0,12,,,,,,,,,11,,,,64,102
175203,note_on,240,0,5,,,,,,,,,4,,,,64,0
175204,note_on,240,0,6,,,,,,,,,5,,,,52,0
175207,note_on,240,0,8,,,,,,,,,7,,,,61,0
175207,note_on,0,0,8,,,,,,,,,7,,,,57,0
175208,note_on,240,0,13,,,,,,,,,12,,,,61,0
175209,note_on,30,0,4,,,,,,,,,3,,,,45,100
175212,note_on,240,0,14,,,,,,,,,13,,,,57,0
175213,note_on,30,0,9,,,,,,,,,8,,,,45,110
175214,note_on,0,0,15,,,,,,,,,14,,,,33,112
175214,note_on,60,0,15,,,,,,,,,14,,,,33,0
175260,note_on,60,0,11,,,,,,,,,10,,,,69,0
175261,note_on,0,0,1,,,,,,,,,0,,,,81,0
175261,note_on,660,0,1,,,,,,,,,0,,,,85,0
175261,note_on,0,0,1,,,,,,,,,0,,,,85,101
175261,note_on,0,0,1,,,,,,,,,0,,,,81,101
175263,note_on,60,0,12,,,,,,,,,11,,,,64,0
175264,note_on,660,0,2,,,,,,,,,1,,,,69,0
175264,note_on,0,0,2,,,,,,,,,1,,,,69,100
175264,note_on,0,0,2,,,,,,,,,1,,,,73,0
175264,note_on,0,0,2,,,,,,,,,1,,,,73,100
175265,note_on,0,0,3,,,,,,,,,2,,,,69,101
175265,note_on,660,0,3,,,,,,,,,2,,,,76,0
175265,note_on,0,0,3,,,,,,,,,2,,,,69,0
175265,note_on,0,0,3,,,,,,,,,2,,,,76,101
175269,note_on,0,0,4,,,,,,,,,3,,,,64,100
175269,note_on,0,0,4,,,,,,,,,3,,,,64,0
175269,note_on,60,0,4,,,,,,,,,3,,,,45,0
175273,note_on,60,0,9,,,,,,,,,8,,,,45,0
175320,set_tempo,120,1,0,,,,,,285714,,,,,,,,
175320,note_on,60,0,11,,,,,,,,,10,,,,73,115
175321,note_on,0,0,1,,,,,,,,,0,,,,85,101
175321,note_on,0,0,1,,,,,,,,,0,,,,81,0
175321,note_on,0,0,1,,,,,,,,,0,,,,81,101
175321,note_on,60,0,1,,,,,,,,,0,,,,85,0
175323,note_on,60,0,12,,,,,,,,,11,,,,69,115
175324,note_on,0,0,2,,,,,,,,,1,,,,69,100
175324,note_on,60,0,2,,,,,,,,,1,,,,69,0
175324,note_on,0,0,2,,,,,,,,,1,,,,73,100
175324,note_on,0,0,2,,,,,,,,,1,,,,73,0
175325,note_on,0,0,3,,,,,,,,,2,,,,69,101
175325,note_on,0,0,3,,,,,,,,,2,,,,76,0
175325,note_on,60,0,3,,,,,,,,,2,,,,69,0
175325,note_on,0,0,3,,,,,,,,,2,,,,76,101
175329,note_on,60,0,4,,,,,,,,,3,,,,64,0
175329,note_on,0,0,4,,,,,,,,,3,,,,64,100
175329,note_on,0,0,4,,,,,,,,,3,,,,45,115
175333,note_on,60,0,9,,,,,,,,,8,,,,45,125
175334,note_on,0,0,15,,,,,,,,,14,,,,33,127
175334,note_on,120,0,15,,,,,,,,,14,,,,33,0
175440,set_tempo,120,1,0,,,,,,300000,,,,,,,,
175440,control_change,120,0,11,,,,,,,,,10,11,64,,,
175443,control_change,120,0,12,,,,,,,,,11,11,64,,,
175448,note_on,240,0,13,,,,,,,,,12,,,,52,112
175452,note_on,240,0,14,,,,,,,,,13,,,,49,112
175457,control_change,17,0,11,,,,,,,,,10,11,61,,,
175460,control_change,17,0,12,,,,,,,,,11,11,61,,,
175475,control_change,18,0,11,,,,,,,,,10,11,58,,,
175478,control_change,18,0,12,,,,,,,,,11,11,58,,,
175493,control_change,18,0,11,,,,,,,,,10,11,56,,,
175496,control_change,18,0,12,,,,,,,,,11,11,56,,,
175503,note_on,300,0,5,,,,,,,,,4,,,,64,100
175504,note_on,300,0,6,,,,,,,,,5,,,,52,100
175507,note_on,0,0,8,,,,,,,,,7,,,,57,110
175507,note_on,300,0,8,,,,,,,,,7,,,,61,110
175508,note_on,60,0,13,,,,,,,,,12,,,,52,0
175511,control_change,18,0,11,,,,,,,,,10,11,53,,,
175512,note_on,60,0,14,,,,,,,,,13,,,,49,0
175514,control_change,18,0,12,,,,,,,,,11,11,53,,,
175529,control_change,18,0,11,,,,,,,,,10,11,50,,,
175532,control_change,18,0,12,,,,,,,,,11,11,50,,,
175547,control_change,18,0,11,,,,,,,,,10,11,47,,,
175550,control_change,18,0,12,,,,,,,,,11,11,47,,,
175560,note_on,13,0,11,,,,,,,,,10,,,,73,0
175560,set_tempo,120,1,0,,,,,,327869,,,,,,,,
175561,note_on,0,0,1,,,,,,,,,0,,,,85,0
175561,note_on,0,0,1,,,,,,,,,0,,,,85,101
175561,note_on,0,0,1,,,,,,,,,0,,,,81,101
175561,note_on,240,0,1,,,,,,,,,0,,,,81,0
175563,note_on,13,0,12,,,,,,,,,11,,,,69,0
175563,note_on,60,0,5,,,,,,,,,4,,,,64,0
175563,note_on,0,0,5,,,,,,,,,4,,,,64,100
175564,note_on,240,0,2,,,,,,,,,1,,,,69,0
175564,note_on,0,0,6,,,,,,,,,5,,,,52,100
175564,note_on,60,0,6,,,,,,,,,5,,,,52,0
175564,note_on,0,0,2,,,,,,,,,1,,,,73,0
175564,note_on,0,0,2,,,,,,,,,1,,,,69,100
175564,note_on,0,0,2,,,,,,,,,1,,,,73,100
175565,note_on,0,0,3,,,,,,,,,2,,,,69,101
175565,note_on,0,0,3,,,,,,,,,2,,,,69,0
175565,note_on,240,0,3,,,,,,,,,2,,,,76,0
175565,note_on,0,0,3,,,,,,,,,2,,,,76,101
175567,note_on,0,0,8,,,,,,,,,7,,,,61,0
175567,note_on,0,0,8,,,,,,,,,7,,,,61,110
175567,note_on,0,0,8,,,,,,,,,7,,,,57,110
175567,note_on,60,0,8,,,,,,,,,7,,,,57,0
175568,note_on,60,0,13,,,,,,,,,12,,,,57,112
175569,note_on,0,0,4,,,,,,,,,3,,,,64,0
175569,note_on,0,0,4,,,,,,,,,3,,,,64,100
175569,note_on,240,0,4,,,,,,,,,3,,,,45,0
175572,note_on,60,0,14,,,,,,,,,13,,,,52,112
175573,note_on,240,0,9,,,,,,,,,8,,,,45,0
175574,note_on,240,0,15,,,,,,,,,14,,,,33,0
175628,note_on,60,0,13,,,,,,,,,12,,,,57,0
175632,note_on,60,0,14,,,,,,,,,13,,,,52,0
175680,control_change,120,0,11,,,,,,,,,10,11,64,,,
175680,note_on,0,0,11,,,,,,,,,10,,,,64,102
175680,set_tempo,120,1,0,,,,,,285714,,,,,,,,
175681,note_on,0,0,1,,,,,,,,,0,,,,81,101
175681,note_on,120,0,1,,,,,,,,,0,,,,81,0
175681,note_on,0,0,1,,,,,,,,,0,,,,85,0
175681,note_on,0,0,1,,,,,,,,,0,,,,85,101
175683,note_on,120,0,5,,,,,,,,,4,,,,64,0
175683,note_on,0,0,5,,,,,,,,,4,,,,64,115
175683,control_change,120,0,12,,,,,,,,,11,11,64,,,
175683,note_on,0,0,12,,,,,,,,,11,,,,61,102
175684,note_on,0,0,2,,,,,,,,,1,,,,69,100
175684,note_on,0,0,2,,,,,,,,,1,,,,73,100
175684,note_on,0,0,2,,,,,,,,,1,,,,69,0
175684,note_on,0,0,6,,,,,,,,,5,,,,52,115
175684,note_on,120,0,2,,,,,,,,,1,,,,73,0
175684,note_on,120,0,6,,,,,,,,,5,,,,52,0
175685,note_on,0,0,3,,,,,,,,,2,,,,76,101
175685,note_on,0,0,3,,,,,,,,,2,,,,69,101
175685,note_on,0,0,3,,,,,,,,,2,,,,69,0
175685,note_on,120,0,3,,,,,,,,,2,,,,76,0
175687,note_on,120,0,8,,,,,,,,,7,,,,57,0
175687,note_on,0,0,8,,,,,,,,,7,,,,61,0
175687,note_on,0,0,8,,,,,,,,,7,,,,57,125
175687,note_on,0,0,8,,,,,,,,,7,,,,61,125
175688,note_on,60,0,13,,,,,,,,,12,,,,61,127
175689,note_on,120,0,4,,,,,,,,,3,,,,64,0
175689,note_on,0,0,4,,,,,,,,,3,,,,64,100
175692,note_on,60,0,14,,,,,,,,,13,,,,57,127
175740,note_on,60,0,11,,,,,,,,,10,,,,64,0
175743,note_on,60,0,12,,,,,,,,,11,,,,61,0
175800,set_tempo,120,1,0,,,,,,300000,,,,,,,,
175800,note_on,60,0,11,,,,,,,,,10,,,,69,102
175801,note_on,120,0,1,,,,,,,,,0,,,,85,0
175801,note_on,0,0,1,,,,,,,,,0,,,,83,101
175803,note_on,60,0,12,,,,,,,,,11,,,,64,102
175804,note_on,120,0,2,,,,,,,,,1,,,,73,0
175804,note_on,0,0,2,,,,,,,,,1,,,,71,100
175805,note_on,0,0,3,,,,,,,,,2,,,,74,101
175805,note_on,120,0,3,,,,,,,,,2,,,,76,0
175809,note_on,120,0,4,,,,,,,,,3,,,,64,0
175809,note_on,0,0,4,,,,,,,,,3,,,,62,100
175860,note_on,60,0,11,,,,,,,,,10,,,,69,0
175863,note_on,60,0,12,,,,,,,,,11,,,,64,0
175869,note_on,60,0,4,,,,,,,,,3,,,,45,100
175873,note_on,300,0,9,,,,,,,,,8,,,,45,110
175874,note_on,300,0,15,,,,,,,,,14,,,,33,112
175899,note_on,30,0,4,,,,,,,,,3,,,,45,0
175903,note_on,30,0,9,,,,,,,,,8,,,,45,0
175920,note_on,60,0,11,,,,,,,,,10,,,,73,102
175920,set_tempo,120,1,0,,,,,,327869,,,,,,,,
175921,note_on,120,0,1,,,,,,,,,0,,,,83,0
175921,note_on,0,0,1,,,,,,,,,0,,,,81,0
175921,note_on,0,0,1,,,,,,,,,0,,,,81,101
175923,note_on,60,0,12,,,,,,,,,11,,,,69,102
175923,note_on,240,0,5,,,,,,,,,4,,,,64,0
175924,note_on,120,0,2,,,,,,,,,1,,,,71,0
175924,note_on,240,0,6,,,,,,,,,5,,,,52,0
175924,note_on,0,0,2,,,,,,,,,1,,,,69,0
175924,note_on,0,0,2,,,,,,,,,1,,,,69,100
175925,note_on,0,0,3,,,,,,,,,2,,,,73,101
175925,note_on,120,0,3,,,,,,,,,2,,,,74,0
175925,note_on,0,0,3,,,,,,,,,2,,,,69,0
175927,note_on,0,0,8,,,,,,,,,7,,,,57,0
175927,note_on,240,0,8,,,,,,,,,7,,,,61,0
175928,note_on,240,0,13,,,,,,,,,12,,,,61,0
175929,note_on,30,0,4,,,,,,,,,3,,,,62,0
175929,note_on,0,0,4,,,,,,,,,3,,,,61,100
175929,note_on,0,0,4,,,,,,,,,3,,,,45,100
175932,note_on,240,0,14,,,,,,,,,13,,,,57,0
175933,note_on,30,0,9,,,,,,,,,8,,,,45,110
175934,note_on,0,0,15,,,,,,,,,14,,,,33,112
175934,note_on,60,0,15,,,,,,,,,14,,,,33,0
175980,note_on,60,0,11,,,,,,,,,10,,,,73,0
175983,note_on,60,0,12,,,,,,,,,11,,,,69,0
175989,note_on,60,0,4,,,,,,,,,3,,,,45,0
175993,note_on,60,0,9,,,,,,,,,8,,,,45,0
176040,note_on,60,0,11,,,,,,,,,10,,,,74,115
176040,note_on,0,0,11,,,,,,,,,10,,,,66,115
176040,set_tempo,120,1,0,,,,,,285714,,,,,,,,
176041,note_on,0,0,1,,,,,,,,,0,,,,86,101
176041,note_on,0,0,1,,,,,,,,,0,,,,81,101
176041,note_on,120,0,1,,,,,,,,,0,,,,81,0
176043,note_on,60,0,12,,,,,,,,,11,,,,69,115
176044,note_on,0,0,2,,,,,,,,,1,,,,69,100
176044,note_on,0,0,2,,,,,,,,,1,,,,74,100
176044,note_on,120,0,2,,,,,,,,,1,,,,69,0
176045,note_on,120,0,3,,,,,,,,,2,,,,73,0
176045,note_on,0,0,3,,,,,,,,,2,,,,78,101
176045,note_on,0,0,3,,,,,,,,,2,,,,69,101
176049,note_on,0,0,4,,,,,,,,,3,,,,66,100
176049,note_on,60,0,4,,,,,,,,,3,,,,61,0
176049,note_on,0,0,4,,,,,,,,,3,,,,45,115
176053,note_on,60,0,9,,,,,,,,,8,,,,45,125
176054,note_on,120,0,15,,,,,,,,,14,,,,33,0
176054,note_on,0,0,15,,,,,,,,,14,,,,33,127
176160,set_tempo,120,1,0,,,,,,300000,,,,,,,,
176160,control_change,120,0,11,,,,,,,,,10,11,64,,,
176163,control_change,120,0,12,,,,,,,,,11,11,64,,,
176168,note_on,240,0,13,,,,,,,,,12,,,,54,112
176172,note_on,240,0,14,,,,,,,,,13,,,,50,112
176177,control_change,17,0,11,,,,,,,,,10,11,61,,,
176180,control_change,17,0,12,,,,,,,,,11,11,61,,,
176195,control_change,18,0,11,,,,,,,,,10,11,58,,,
176198,control_change,18,0,12,,,,,,,,,11,11,58,,,
176213,control_change,18,0,11,,,,,,,,,10,11,56,,,
176216,control_change,18,0,12,,,,,,,,,11,11,56,,,
176223,note_on,300,0,5,,,,,,,,,4,,,,62,100
176224,note_on,300,0,6,,,,,,,,,5,,,,57,100
176227,note_on,300,0,8,,,,,,,,,7,,,,66,110
176227,note_on,0,0,8,,,,,,,,,7,,,,54,110
176228,note_on,60,0,13,,,,,,,,,12,,,,54,0
176231,control_change,18,0,11,,,,,,,,,10,11,53,,,
176232,note_on,60,0,14,,,,,,,,,13,,,,50,0
176234,control_change,18,0,12,,,,,,,,,11,11,53,,,
176249,control_change,18,0,11,,,,,,,,,10,11,50,,,
176252,control_change,18,0,12,,,,,,,,,11,11,50,,,
176267,control_change,18,0,11,,,,,,,,,10,11,47,,,
176270,control_change,18,0,12,,,,,,,,,11,11,47,,,
176280,note_on,0,0,11,,,,,,,,,10,,,,74,0
176280,set_tempo,120,1,0,,,,,,327869,,,,,,,,
176280,note_on,13,0,11,,,,,,,,,10,,,,66,0
176283,note_on,0,0,5,,,,,,,,,4,,,,62,100
176283,note_on,13,0,12,,,,,,,,,11,,,,69,0
176283,note_on,60,0,5,,,,,,,,,4,,,,62,0
176284,note_on,60,0,6,,,,,,,,,5,,,,57,0
176284,note_on,0,0,6,,,,,,,,,5,,,,57,100
176287,note_on,0,0,8,,,,,,,,,7,,,,66,110
176287,note_on,0,0,8,,,,,,,,,7,,,,54,110
176287,note_on,60,0,8,,,,,,,,,7,,,,54,0
176287,note_on,0,0,8,,,,,,,,,7,,,,66,0
176288,note_on,60,0,13,,,,,,,,,12,,,,57,112
176289,note_on,240,0,4,,,,,,,,,3,,,,45,0
176292,note_on,60,0,14,,,,,,,,,13,,,,54,112
176293,note_on,240,0,9,,,,,,,,,8,,,,45,0
176294,note_on,240,0,15,,,,,,,,,14,,,,33,0
176348,note_on,60,0,13,,,,,,,,,12,,,,57,0
176352,note_on,60,0,14,,,,,,,,,13,,,,54,0
176400,set_tempo,120,1,0,,,,,,285714,,,,,,,,
176400,control_change,0,0,11,,,,,,,,,10,11,64,,,
176400,note_on,120,0,11,,,,,,,,,10,,,,66,102
176403,note_on,120,0,12,,,,,,,,,11,,,,62,102
176403,control_change,0,0,12,,,,,,,,,11,11,64,,,
176403,note_on,120,0,5,,,,,,,,,4,,,,62,0
176403,note_on,0,0,5,,,,,,,,,4,,,,62,115
176404,note_on,120,0,6,,,,,,,,,5,,,,57,0
176404,note_on,0,0,6,,,,,,,,,5,,,,57,115
176407,note_on,0,0,8,,,,,,,,,7,,,,66,125
176407,note_on,0,0,8,,,,,,,,,7,,,,66,0
176407,note_on,0,0,8,,,,,,,,,7,,,,54,125
176407,note_on,120,0,8,,,,,,,,,7,,,,54,0
176408,note_on,60,0,13,,,,,,,,,12,,,,62,127
176412,note_on,60,0,14,,,,,,,,,13,,,,57,127
176460,note_on,60,0,11,,,,,,,,,10,,,,66,0
176463,note_on,60,0,12,,,,,,,,,11,,,,62,0
176520,note_on,60,0,11,,,,,,,,,10,,,,69,102
176520,set_tempo,120,1,0,,,,,,300000,,,,,,,,
176523,note_on,60,0,12,,,,,,,,,11,,,,66,102
176580,note_on,60,0,11,,,,,,,,,10,,,,69,0
176583,note_on,60,0,12,,,,,,,,,11,,,,66,0
176589,note_on,300,0,4,,,,,,,,,3,,,,45,100
176593,note_on,300,0,9,,,,,,,,,8,,,,45,110
176594,note_on,300,0,15,,,,,,,,,14,,,,33,112
176619,note_on,30,0,4,,,,,,,,,3,,,,45,0
176623,note_on,30,0,9,,,,,,,,,8,,,,45,0
176640,note_on,60,0,11,,,,,,,,,10,,,,74,102
176640,set_tempo,120,1,0,,,,,,352941,,,,,,,,
176643,note_on,60,0,12,,,,,,,,,11,,,,69,102
176643,note_on,240,0,5,,,,,,,,,4,,,,62,0
176644,note_on,240,0,6,,,,,,,,,5,,,,57,0
176647,note_on,240,0,8,,,,,,,,,7,,,,66,0
176647,note_on,0,0,8,,,,,,,,,7,,,,54,0
176648,note_on,240,0,13,,,,,,,,,12,,,,62,0
176649,note_on,30,0,4,,,,,,,,,3,,,,45,100
176652,note_on,240,0,14,,,,,,,,,13,,,,57,0
176653,note_on,30,0,9,,,,,,,,,8,,,,45,110
176654,note_on,60,0,15,,,,,,,,,14,,,,33,0
176654,note_on,0,0,15,,,,,,,,,14,,,,33,112
176700,note_on,60,0,11,,,,,,,,,10,,,,74,0
176703,note_on,60,0,12,,,,,,,,,11,,,,69,0
176709,note_on,60,0,4,,,,,,,,,3,,,,45,0
176713,note_on,60,0,9,,,,,,,,,8,,,,45,0
176760,set_tempo,120,1,0,,,,,,285714,,,,,,,,
176760,note_on,0,0,11,,,,,,,,,10,,,,64,115
176760,note_on,60,0,11,,,,,,,,,10,,,,73,115
176761,note_on,720,0,1,,,,,,,,,0,,,,86,0
176761,note_on,0,0,1,,,,,,,,,0,,,,85,101
176763,note_on,60,0,12,,,,,,,,,11,,,,69,115
176764,note_on,0,0,2,,,,,,,,,1,,,,73,100
176764,note_on,720,0,2,,,,,,,,,1,,,,74,0
176765,note_on,720,0,3,,,,,,,,,2,,,,78,0
176765,note_on,0,0,3,,,,,,,,,2,,,,76,101
176769,note_on,60,0,4,,,,,,,,,3,,,,66,0
176769,note_on,0,0,4,,,,,,,,,3,,,,64,100
176769,note_on,0,0,4,,,,,,,,,3,,,,45,115
176773,note_on,60,0,9,,,,,,,,,8,,,,45,125
176774,note_on,0,0,15,,,,,,,,,14,,,,33,127
176774,note_on,120,0,15,,,,,,,,,14,,,,33,0
176880,set_tempo,120,1,0,,,,,,300000,,,,,,,,
176880,control_change,120,0,11,,,,,,,,,10,11,64,,,
176883,control_change,120,0,12,,,,,,,,,11,11,64,,,
176888,note_on,240,0,13,,,,,,,,,12,,,,52,112
176892,note_on,240,0,14,,,,,,,,,13,,,,49,112
176897,control_change,17,0,11,,,,,,,,,10,11,61,,,
176900,control_change,17,0,12,,,,,,,,,11,11,61,,,
176915,control_change,18,0,11,,,,,,,,,10,11,58,,,
176918,control_change,18,0,12,,,,,,,,,11,11,58,,,
176933,control_change,18,0,11,,,,,,,,,10,11,56,,,
176936,control_change,18,0,12,,,,,,,,,11,11,56,,,
176943,note_on,300,0,5,,,,,,,,,4,,,,64,100
176944,note_on,300,0,6,,,,,,,,,5,,,,52,100
176947,note_on,0,0,8,,,,,,,,,7,,,,57,110
176947,note_on,300,0,8,,,,,,,,,7,,,,61,110
176948,note_on,60,0,13,,,,,,,,,12,,,,52,0
176951,control_change,18,0,11,,,,,,,,,10,11,53,,,
176952,note_on,60,0,14,,,,,,,,,13,,,,49,0
176954,control_change,18,0,12,,,,,,,,,11,11,53,,,
176969,control_change,18,0,11,,,,,,,,,10,11,50,,,
176972,control_change,18,0,12,,,,,,,,,11,11,50,,,
176987,control_change,18,0,11,,,,,,,,,10,11,47,,,
176990,control_change,18,0,12,,,,,,,,,11,11,47,,,
177000,note_on,13,0,11,,,,,,,,,10,,,,64,0
177000,note_on,0,0,11,,,,,,,,,10,,,,73,0
177000,set_tempo,120,1,0,,,,,,327869,,,,,,,,
177003,note_on,0,0,5,,,,,,,,,4,,,,64,100
177003,note_on,60,0,5,,,,,,,,,4,,,,64,0
177003,note_on,13,0,12,,,,,,,,,11,,,,69,0
177004,note_on,60,0,6,,,,,,,,,5,,,,52,0
177004,note_on,0,0,6,,,,,,,,,5,,,,52,100
177007,note_on,0,0,8,,,,,,,,,7,,,,57,110
177007,note_on,0,0,8,,,,,,,,,7,,,,61,110
177007,note_on,0,0,8,,,,,,,,,7,,,,61,0
177007,note_on,60,0,8,,,,,,,,,7,,,,57,0
177008,note_on,60,0,13,,,,,,,,,12,,,,57,112
177009,note_on,240,0,4,,,,,,,,,3,,,,45,0
177012,note_on,60,0,14,,,,,,,,,13,,,,52,112
177013,note_on,240,0,9,,,,,,,,,8,,,,45,0
177014,note_on,240,0,15,,,,,,,,,14,,,,33,0
177068,note_on,60,0,13,,,,,,,,,12,,,,57,0
177072,note_on,60,0,14,,,,,,,,,13,,,,52,0
177120,note_on,120,0,11,,,,,,,,,10,,,,64,102
177120,control_change,0,0,11,,,,,,,,,10,11,64,,,
177120,set_tempo,120,1,0,,,,,,285714,,,,,,,,
177123,control_change,0,0,12,,,,,,,,,11,11,64,,,
177123,note_on,0,0,5,,,,,,,,,4,,,,64,100
177123,note_on,120,0,12,,,,,,,,,11,,,,61,102
177123,note_on,120,0,5,,,,,,,,,4,,,,64,0
177124,note_on,120,0,6,,,,,,,,,5,,,,52,0
177124,note_on,0,0,6,,,,,,,,,5,,,,52,100
177127,note_on,0,0,8,,,,,,,,,7,,,,57,0
177127,note_on,0,0,8,,,,,,,,,7,,,,61,110
177127,note_on,0,0,8,,,,,,,,,7,,,,57,110
177127,note_on,120,0,8,,,,,,,,,7,,,,61,0
177128,note_on,60,0,13,,,,,,,,,12,,,,61,127
177132,note_on,60,0,14,,,,,,,,,13,,,,57,127
177180,note_on,60,0,11,,,,,,,,,10,,,,64,0
177183,note_on,60,0,12,,,,,,,,,11,,,,61,0
177240,set_tempo,120,1,0,,,,,,300000,,,,,,,,
177240,note_on,60,0,11,,,,,,,,,10,,,,69,102
177241,note_on,480,0,1,,,,,,,,,0,,,,85,0
177241,note_on,0,0,1,,,,,,,,,0,,,,81,0
177243,note_on,60,0,12,,,,,,,,,11,,,,64,102
177244,note_on,0,0,2,,,,,,,,,1,,,,69,0
177244,note_on,480,0,2,,,,,,,,,1,,,,73,0
177245,note_on,480,0,3,,,,,,,,,2,,,,76,0
177245,note_on,0,0,3,,,,,,,,,2,,,,69,0
177249,note_on,240,0,4,,,,,,,,,3,,,,64,0
177300,note_on,60,0,11,,,,,,,,,10,,,,69,0
177303,note_on,60,0,12,,,,,,,,,11,,,,64,0
177309,note_on,60,0,4,,,,,,,,,3,,,,45,100
177313,note_on,300,0,9,,,,,,,,,8,,,,45,110
177314,note_on,300,0,15,,,,,,,,,14,,,,33,112
177339,note_on,30,0,4,,,,,,,,,3,,,,45,0
177343,note_on,30,0,9,,,,,,,,,8,,,,45,0
177360,note_on,60,0,11,,,,,,,,,10,,,,73,102
177360,set_tempo,120,1,0,,,,,,327869,,,,,,,,
177361,note_on,0,0,1,,,,,,,,,0,,,,81,101
177361,note_on,120,0,1,,,,,,,,,0,,,,85,101
177363,note_on,240,0,5,,,,,,,,,4,,,,64,0
177363,note_on,60,0,12,,,,,,,,,11,,,,69,102
177364,note_on,0,0,2,,,,,,,,,1,,,,73,100
177364,note_on,240,0,6,,,,,,,,,5,,,,52,0
177364,note_on,120,0,2,,,,,,,,,1,,,,69,100
177365,note_on,0,0,3,,,,,,,,,2,,,,76,101
177365,note_on,120,0,3,,,,,,,,,2,,,,64,101
177367,note_on,240,0,8,,,,,,,,,7,,,,61,0
177367,note_on,0,0,8,,,,,,,,,7,,,,57,0
177368,note_on,240,0,13,,,,,,,,,12,,,,61,0
177369,note_on,0,0,4,,,,,,,,,3,,,,64,100
177369,note_on,30,0,4,,,,,,,,,3,,,,49,100
177372,note_on,240,0,14,,,,,,,,,13,,,,57,0
177373,note_on,30,0,9,,,,,,,,,8,,,,49,110
177374,note_on,60,0,15,,,,,,,,,14,,,,33,0
177374,note_on,0,0,15,,,,,,,,,14,,,,37,112
177420,note_on,60,0,11,,,,,,,,,10,,,,73,0
177423,note_on,60,0,12,,,,,,,,,11,,,,69,0
177429,note_on,60,0,4,,,,,,,,,3,,,,49,0
177433,note_on,60,0,9,,,,,,,,,8,,,,49,0
177480,note_on,60,0,11,,,,,,,,,10,,,,68,115
177480,set_tempo,120,1,0,,,,,,285714,,,,,,,,
177480,note_on,0,0,11,,,,,,,,,10,,,,76,115
177481,note_on,0,0,1,,,,,,,,,0,,,,85,0
177481,note_on,0,0,1,,,,,,,,,0,,,,80,101
177481,note_on,0,0,1,,,,,,,,,0,,,,83,101
177481,note_on,120,0,1,,,,,,,,,0,,,,81,0
177483,note_on,0,0,12,,,,,,,,,11,,,,71,115
177483,note_on,60,0,12,,,,,,,,,11,,,,64,115
177484,note_on,0,0,2,,,,,,,,,1,,,,68,100
177484,note_on,120,0,2,,,,,,,,,1,,,,73,0
177484,note_on,0,0,2,,,,,,,,,1,,,,69,0
177484,note_on,0,0,2,,,,,,,,,1,,,,71,100
177485,note_on,0,0,3,,,,,,,,,2,,,,68,101
177485,note_on,0,0,3,,,,,,,,,2,,,,74,101
177485,note_on,0,0,3,,,,,,,,,2,,,,64,0
177485,note_on,120,0,3,,,,,,,,,2,,,,76,0
177489,note_on,60,0,4,,,,,,,,,3,,,,64,0
177489,note_on,0,0,4,,,,,,,,,3,,,,62,100
177489,note_on,0,0,4,,,,,,,,,3,,,,52,115
177493,note_on,60,0,9,,,,,,,,,8,,,,52,125
177494,note_on,120,0,15,,,,,,,,,14,,,,37,0
177494,note_on,0,0,15,,,,,,,,,14,,,,40,127
177600,set_tempo,120,1,0,,,,,,300000,,,,,,,,
177600,control_change,120,0,11,,,,,,,,,10,11,64,,,
177603,control_change,120,0,12,,,,,,,,,11,11,64,,,
177608,note_on,240,0,13,,,,,,,,,12,,,,52,112
177612,note_on,240,0,14,,,,,,,,,13,,,,50,112
177617,control_change,17,0,11,,,,,,,,,10,11,61,,,
177620,control_change,17,0,12,,,,,,,,,11,11,61,,,
177635,control_change,18,0,11,,,,,,,,,10,11,58,,,
177638,control_change,18,0,12,,,,,,,,,11,11,58,,,
177653,control_change,18,0,11,,,,,,,,,10,11,56,,,
177656,control_change,18,0,12,,,,,,,,,11,11,56,,,
177663,note_on,300,0,5,,,,,,,,,4,,,,64,100
177664,note_on,300,0,6,,,,,,,,,5,,,,52,100
177667,note_on,0,0,8,,,,,,,,,7,,,,62,110
177667,note_on,300,0,8,,,,,,,,,7,,,,56,110
177668,note_on,60,0,13,,,,,,,,,12,,,,52,0
177671,control_change,18,0,11,,,,,,,,,10,11,53,,,
177672,note_on,60,0,14,,,,,,,,,13,,,,50,0
177674,control_change,18,0,12,,,,,,,,,11,11,53,,,
177689,control_change,18,0,11,,,,,,,,,10,11,50,,,
177692,control_change,18,0,12,,,,,,,,,11,11,50,,,
177707,control_change,18,0,11,,,,,,,,,10,11,47,,,
177710,control_change,18,0,12,,,,,,,,,11,11,47,,,
177720,note_on,0,0,11,,,,,,,,,10,,,,68,0
177720,note_on,13,0,11,,,,,,,,,10,,,,76,0
177720,set_tempo,120,1,0,,,,,,327869,,,,,,,,
177723,note_on,0,0,12,,,,,,,,,11,,,,64,0
177723,note_on,0,0,5,,,,,,,,,4,,,,64,100
177723,note_on,60,0,5,,,,,,,,,4,,,,64,0
177723,note_on,13,0,12,,,,,,,,,11,,,,71,0
177724,note_on,60,0,6,,,,,,,,,5,,,,52,0
177724,note_on,0,0,6,,,,,,,,,5,,,,52,100
177727,note_on,0,0,8,,,,,,,,,7,,,,56,110
177727,note_on,60,0,8,,,,,,,,,7,,,,62,0
177727,note_on,0,0,8,,,,,,,,,7,,,,56,0
177727,note_on,0,0,8,,,,,,,,,7,,,,62,110
177728,note_on,60,0,13,,,,,,,,,12,,,,56,112
177729,note_on,240,0,4,,,,,,,,,3,,,,52,0
177732,note_on,60,0,14,,,,,,,,,13,,,,52,112
177733,note_on,240,0,9,,,,,,,,,8,,,,52,0
177734,note_on,240,0,15,,,,,,,,,14,,,,40,0
177788,note_on,60,0,13,,,,,,,,,12,,,,56,0
177792,note_on,60,0,14,,,,,,,,,13,,,,52,0
177840,note_on,120,0,11,,,,,,,,,10,,,,64,102
177840,set_tempo,120,1,0,,,,,,285714,,,,,,,,
177840,control_change,0,0,11,,,,,,,,,10,11,64,,,
177843,note_on,0,0,5,,,,,,,,,4,,,,64,100
177843,note_on,120,0,12,,,,,,,,,11,,,,59,102
177843,control_change,0,0,12,,,,,,,,,11,11,64,,,
177843,note_on,120,0,5,,,,,,,,,4,,,,64,0
177844,note_on,0,0,6,,,,,,,,,5,,,,52,100
177844,note_on,120,0,6,,,,,,,,,5,,,,52,0
177847,note_on,120,0,8,,,,,,,,,7,,,,62,0
177847,note_on,0,0,8,,,,,,,,,7,,,,56,0
177847,note_on,0,0,8,,,,,,,,,7,,,,62,110
177847,note_on,0,0,8,,,,,,,,,7,,,,56,110
177848,note_on,60,0,13,,,,,,,,,12,,,,62,127
177852,note_on,60,0,14,,,,,,,,,13,,,,56,127
177900,note_on,60,0,11,,,,,,,,,10,,,,64,0
177903,note_on,60,0,12,,,,,,,,,11,,,,59,0
177960,set_tempo,120,1,0,,,,,,300000,,,,,,,,
177960,note_on,60,0,11,,,,,,,,,10,,,,68,102
177963,note_on,60,0,12,,,,,,,,,11,,,,64,102
178020,note_on,60,0,11,,,,,,,,,10,,,,68,0
178023,note_on,60,0,12,,,,,,,,,11,,,,64,0
178029,note_on,300,0,4,,,,,,,,,3,,,,52,100
178033,note_on,300,0,9,,,,,,,,,8,,,,52,110
178034,note_on,300,0,15,,,,,,,,,14,,,,40,112
178059,note_on,30,0,4,,,,,,,,,3,,,,52,0
178063,note_on,30,0,9,,,,,,,,,8,,,,52,0
178080,note_on,60,0,11,,,,,,,,,10,,,,71,102
178080,set_tempo,120,1,0,,,,,,327869,,,,,,,,
178081,note_on,600,0,1,,,,,,,,,0,,,,83,0
178081,note_on,0,0,1,,,,,,,,,0,,,,85,101
178083,note_on,60,0,12,,,,,,,,,11,,,,68,102
178083,note_on,240,0,5,,,,,,,,,4,,,,64,0
178084,note_on,240,0,6,,,,,,,,,5,,,,52,0
178084,note_on,600,0,2,,,,,,,,,1,,,,71,0
178084,note_on,0,0,2,,,,,,,,,1,,,,73,100
178085,note_on,600,0,3,,,,,,,,,2,,,,74,0
178085,note_on,0,0,3,,,,,,,,,2,,,,76,101
178087,note_on,240,0,8,,,,,,,,,7,,,,56,0
178087,note_on,0,0,8,,,,,,,,,7,,,,62,0
178088,note_on,240,0,13,,,,,,,,,12,,,,62,0
178089,note_on,0,0,4,,,,,,,,,3,,,,64,100
178089,note_on,0,0,4,,,,,,,,,3,,,,52,100
178089,note_on,30,0,4,,,,,,,,,3,,,,62,0
178092,note_on,240,0,14,,,,,,,,,13,,,,56,0
178093,note_on,30,0,9,,,,,,,,,8,,,,52,110
178094,note_on,0,0,15,,,,,,,,,14,,,,40,112
178094,note_on,60,0,15,,,,,,,,,14,,,,40,0
178140,note_on,60,0,11,,,,,,,,,10,,,,71,0
178143,note_on,60,0,12,,,,,,,,,11,,,,68,0
178149,note_on,60,0,4,,,,,,,,,3,,,,52,0
178153,note_on,60,0,9,,,,,,,,,8,,,,52,0
178200,note_on,60,0,11,,,,,,,,,10,,,,69,115
178200,set_tempo,120,1,0,,,,,,285714,,,,,,,,
178200,note_on,0,0,11,,,,,,,,,10,,,,76,115
178201,note_on,0,0,1,,,,,,,,,0,,,,80,0
178201,note_on,0,0,1,,,,,,,,,0,,,,81,101
178201,note_on,120,0,1,,,,,,,,,0,,,,85,0
178201,control_change,0,0,1,,,,,,,,,0,11,78,,,
178203,note_on,0,0,12,,,,,,,,,11,,,,61,115
178203,note_on,60,0,12,,,,,,,,,11,,,,69,115
178204,note_on,0,0,2,,,,,,,,,1,,,,68,0
178204,note_on,120,0,2,,,,,,,,,1,,,,73,0
178204,note_on,0,0,2,,,,,,,,,1,,,,69,100
178204,control_change,0,0,2,,,,,,,,,1,11,78,,,
178205,note_on,0,0,3,,,,,,,,,2,,,,69,101
178205,note_on,0,0,3,,,,,,,,,2,,,,73,101
178205,note_on,0,0,3,,,,,,,,,2,,,,68,0
178205,note_on,120,0,3,,,,,,,,,2,,,,76,0
178205,control_change,0,0,3,,,,,,,,,2,11,78,,,
178209,note_on,60,0,4,,,,,,,,,3,,,,64,0
178209,note_on,0,0,4,,,,,,,,,3,,,,52,115
178209,note_on,0,0,4,,,,,,,,,3,,,,61,100
178213,note_on,60,0,9,,,,,,,,,8,,,,52,125
178214,note_on,120,0,15,,,,,,,,,14,,,,40,0
178214,note_on,0,0,15,,,,,,,,,14,,,,40,127
178249,control_change,48,0,1,,,,,,,,,0,11,79,,,
178252,control_change,48,0,2,,,,,,,,,1,11,79,,,
178253,control_change,48,0,3,,,,,,,,,2,11,79,,,
178297,control_change,48,0,1,,,,,,,,,0,11,80,,,
178300,control_change,48,0,2,,,,,,,,,1,11,80,,,
178301,control_change,48,0,3,,,,,,,,,2,11,80,,,
178320,control_change,120,0,11,,,,,,,,,10,11,64,,,
178320,set_tempo,120,1,0,,,,,,300000,,,,,,,,
178323,control_change,120,0,12,,,,,,,,,11,11,64,,,
178328,note_on,240,0,13,,,,,,,,,12,,,,52,112
178332,note_on,240,0,14,,,,,,,,,13,,,,49,112
178337,control_change,17,0,11,,,,,,,,,10,11,61,,,
178340,control_change,17,0,12,,,,,,,,,11,11,61,,,
178345,control_change,48,0,1,,,,,,,,,0,11,80,,,
178348,control_change,48,0,2,,,,,,,,,1,11,80,,,
178349,control_change,48,0,3,,,,,,,,,2,11,80,,,
178355,control_change,18,0,11,,,,,,,,,10,11,58,,,
178358,control_change,18,0,12,,,,,,,,,11,11,58,,,
178373,control_change,18,0,11,,,,,,,,,10,11,56,,,
178376,control_change,18,0,12,,,,,,,,,11,11,56,,,
178383,note_on,300,0,5,,,,,,,,,4,,,,64,100
178384,note_on,300,0,6,,,,,,,,,5,,,,52,100
178387,note_on,300,0,8,,,,,,,,,7,,,,61,110
178387,note_on,0,0,8,,,,,,,,,7,,,,57,110
178388,note_on,60,0,13,,,,,,,,,12,,,,52,0
178391,control_change,18,0,11,,,,,,,,,10,11,53,,,
178392,note_on,60,0,14,,,,,,,,,13,,,,49,0
178393,control_change,48,0,1,,,,,,,,,0,11,81,,,
178394,control_change,18,0,12,,,,,,,,,11,11,53,,,
178396,control_change,48,0,2,,,,,,,,,1,11,81,,,
178397,control_change,48,0,3,,,,,,,,,2,11,81,,,
178409,control_change,18,0,11,,,,,,,,,10,11,50,,,
178412,control_change,18,0,12,,,,,,,,,11,11,50,,,
178427,control_change,18,0,11,,,,,,,,,10,11,47,,,
178430,control_change,18,0,12,,,,,,,,,11,11,47,,,
178440,set_tempo,120,1,0,,,,,,327869,,,,,,,,
178440,note_on,13,0,11,,,,,,,,,10,,,,76,0
178440,note_on,0,0,11,,,,,,,,,10,,,,69,0
178441,control_change,48,0,1,,,,,,,,,0,11,82,,,
178443,note_on,0,0,12,,,,,,,,,11,,,,69,0
178443,note_on,0,0,5,,,,,,,,,4,,,,64,100
178443,note_on,60,0,5,,,,,,,,,4,,,,64,0
178443,note_on,13,0,12,,,,,,,,,11,,,,61,0
178444,control_change,48,0,2,,,,,,,,,1,11,82,,,
178444,note_on,60,0,6,,,,,,,,,5,,,,52,0
178444,note_on,0,0,6,,,,,,,,,5,,,,52,100
178445,control_change,48,0,3,,,,,,,,,2,11,82,,,
178447,note_on,0,0,8,,,,,,,,,7,,,,61,0
178447,note_on,0,0,8,,,,,,,,,7,,,,57,110
178447,note_on,0,0,8,,,,,,,,,7,,,,61,110
178447,note_on,60,0,8,,,,,,,,,7,,,,57,0
178448,note_on,60,0,13,,,,,,,,,12,,,,57,112
178449,note_on,240,0,4,,,,,,,,,3,,,,52,0
178452,note_on,60,0,14,,,,,,,,,13,,,,52,112
178453,note_on,240,0,9,,,,,,,,,8,,,,52,0
178454,note_on,240,0,15,,,,,,,,,14,,,,40,0
178489,control_change,48,0,1,,,,,,,,,0,11,83,,,
178492,control_change,48,0,2,,,,,,,,,1,11,83,,,
178493,control_change,48,0,3,,,,,,,,,2,11,83,,,
178508,note_on,60,0,13,,,,,,,,,12,,,,57,0
178512,note_on,60,0,14,,,,,,,,,13,,,,52,0
178537,control_change,48,0,1,,,,,,,,,0,11,83,,,
178540,control_change,48,0,2,,,,,,,,,1,11,83,,,
178541,control_change,48,0,3,,,,,,,,,2,11,83,,,
178560,set_tempo,120,1,0,,,,,,285714,,,,,,,,
178560,control_change,120,0,11,,,,,,,,,10,11,41,,,
178560,note_on,0,0,11,,,,,,,,,10,,,,64,102
178563,note_on,0,0,5,,,,,,,,,4,,,,64,100
178563,control_change,120,0,12,,,,,,,,,11,11,41,,,
178563,note_on,0,0,12,,,,,,,,,11,,,,61,102
178563,note_on,120,0,5,,,,,,,,,4,,,,64,0
178564,note_on,0,0,6,,,,,,,,,5,,,,52,100
178564,note_on,120,0,6,,,,,,,,,5,,,,52,0
178567,note_on,120,0,8,,,,,,,,,7,,,,61,0
178567,note_on,0,0,8,,,,,,,,,7,,,,57,110
178567,note_on,0,0,8,,,,,,,,,7,,,,61,110
178567,note_on,0,0,8,,,,,,,,,7,,,,57,0
178568,note_on,60,0,13,,,,,,,,,12,,,,61,127
178572,note_on,60,0,14,,,,,,,,,13,,,,57,127
178584,control_change,24,0,11,,,,,,,,,10,11,42,,,
178585,control_change,48,0,1,,,,,,,,,0,11,84,,,
178587,control_change,24,0,12,,,,,,,,,11,11,42,,,
178588,control_change,48,0,2,,,,,,,,,1,11,84,,,
178589,control_change,48,0,3,,,,,,,,,2,11,84,,,
178608,control_change,24,0,11,,,,,,,,,10,11,42,,,
178611,control_change,24,0,12,,,,,,,,,11,11,42,,,
178620,note_on,12,0,11,,,,,,,,,10,,,,64,0
178623,note_on,12,0,12,,,,,,,,,11,,,,61,0
178632,control_change,12,0,11,,,,,,,,,10,11,43,,,
178633,control_change,48,0,1,,,,,,,,,0,11,85,,,
178635,control_change,12,0,12,,,,,,,,,11,11,43,,,
178636,control_change,48,0,2,,,,,,,,,1,11,85,,,
178637,control_change,48,0,3,,,,,,,,,2,11,85,,,
178656,control_change,24,0,11,,,,,,,,,10,11,44,,,
178659,control_change,24,0,12,,,,,,,,,11,11,44,,,
178680,control_change,24,0,11,,,,,,,,,10,11,45,,,
178680,set_tempo,120,1,0,,,,,,300000,,,,,,,,
178680,note_on,0,0,11,,,,,,,,,10,,,,69,102
178681,note_on,0,0,1,,,,,,,,,0,,,,85,101
178681,control_change,48,0,1,,,,,,,,,0,11,86,,,
178683,note_on,0,0,12,,,,,,,,,11,,,,64,102
178683,control_change,24,0,12,,,,,,,,,11,11,45,,,
178684,control_change,0,0,2,,,,,,,,,1,11,86,,,
178684,note_on,48,0,2,,,,,,,,,1,,,,73,100
178685,note_on,0,0,3,,,,,,,,,2,,,,81,101
178685,note_on,48,0,3,,,,,,,,,2,,,,73,0
178685,control_change,0,0,3,,,,,,,,,2,11,86,,,
178704,control_change,24,0,11,,,,,,,,,10,11,46,,,
178707,control_change,24,0,12,,,,,,,,,11,11,46,,,
178728,control_change,24,0,11,,,,,,,,,10,11,47,,,
178729,control_change,48,0,1,,,,,,,,,0,11,86,,,
178731,control_change,24,0,12,,,,,,,,,11,11,47,,,
178732,control_change,48,0,2,,,,,,,,,1,11,86,,,
178733,control_change,48,0,3,,,,,,,,,2,11,86,,,
178740,note_on,12,0,11,,,,,,,,,10,,,,69,0
178743,note_on,12,0,12,,,,,,,,,11,,,,64,0
178749,control_change,300,0,4,,,,,,,,,3,11,87,,,
178749,note_on,0,0,4,,,,,,,,,3,,,,52,100
178752,control_change,12,0,11,,,,,,,,,10,11,48,,,
178753,note_on,300,0,9,,,,,,,,,8,,,,52,110
178753,control_change,0,0,9,,,,,,,,,8,11,82,,,
178754,control_change,300,0,15,,,,,,,,,14,11,50,,,
178754,note_on,0,0,15,,,,,,,,,14,,,,40,112
178755,control_change,12,0,12,,,,,,,,,11,11,48,,,
178771,control_change,18,0,9,,,,,,,,,8,11,84,,,
178773,control_change,24,0,4,,,,,,,,,3,11,89,,,
178776,control_change,24,0,11,,,,,,,,,10,11,49,,,
178777,control_change,48,0,1,,,,,,,,,0,11,87,,,
178779,control_change,24,0,12,,,,,,,,,11,11,49,,,
178779,note_on,6,0,4,,,,,,,,,3,,,,52,0
178780,control_change,48,0,2,,,,,,,,,1,11,87,,,
178781,control_change,48,0,3,,,,,,,,,2,11,87,,,
178783,note_on,12,0,9,,,,,,,,,8,,,,52,0
178789,control_change,6,0,9,,,,,,,,,8,11,86,,,
178790,control_change,36,0,15,,,,,,,,,14,11,51,,,
178797,control_change,18,0,4,,,,,,,,,3,11,91,,,
178800,note_on,0,0,11,,,,,,,,,10,,,,73,102
178800,control_change,24,0,11,,,,,,,,,10,11,50,,,
178800,set_tempo,120,1,0,,,,,,327869,,,,,,,,
178801,note_on,24,0,1,,,,,,,,,0,,,,85,0
178801,note_on,0,0,1,,,,,,,,,0,,,,81,0
178801,note_on,0,0,1,,,,,,,,,0,,,,88,101
178801,note_on,0,0,1,,,,,,,,,0,,,,85,101
178803,note_on,240,0,5,,,,,,,,,4,,,,64,0
178803,note_on,24,0,12,,,,,,,,,11,,,,69,102
178803,control_change,0,0,12,,,,,,,,,11,11,50,,,
178804,note_on,240,0,6,,,,,,,,,5,,,,52,0
178804,note_on,0,0,2,,,,,,,,,1,,,,73,100
178804,note_on,0,0,2,,,,,,,,,1,,,,76,100
178804,note_on,24,0,2,,,,,,,,,1,,,,73,0
178804,note_on,0,0,2,,,,,,,,,1,,,,69,0
178805,note_on,24,0,3,,,,,,,,,2,,,,81,0
178805,note_on,0,0,3,,,,,,,,,2,,,,69,0
178805,note_on,0,0,3,,,,,,,,,2,,,,76,101
178805,note_on,0,0,3,,,,,,,,,2,,,,64,101
178807,note_on,240,0,8,,,,,,,,,7,,,,57,0
178807,note_on,0,0,8,,,,,,,,,7,,,,61,0
178807,control_change,18,0,9,,,,,,,,,8,11,88,,,
178808,note_on,240,0,13,,,,,,,,,12,,,,61,0
178809,note_on,0,0,4,,,,,,,,,3,,,,52,100
178809,note_on,0,0,4,,,,,,,,,3,,,,64,100
178809,note_on,12,0,4,,,,,,,,,3,,,,61,0
178812,note_on,240,0,14,,,,,,,,,13,,,,57,0
178813,note_on,6,0,9,,,,,,,,,8,,,,52,110
178814,note_on,24,0,15,,,,,,,,,14,,,,40,0
178814,note_on,0,0,15,,,,,,,,,14,,,,40,112
178821,control_change,12,0,4,,,,,,,,,3,11,93,,,
178824,control_change,24,0,11,,,,,,,,,10,11,51,,,
178825,control_change,12,0,9,,,,,,,,,8,11,90,,,
178825,control_change,24,0,1,,,,,,,,,0,11,88,,,
178826,control_change,12,0,15,,,,,,,,,14,11,52,,,
178827,control_change,24,0,12,,,,,,,,,11,11,51,,,
178828,control_change,24,0,2,,,,,,,,,1,11,88,,,
178829,control_change,24,0,3,,,,,,,,,2,11,88,,,
178843,control_change,18,0,9,,,,,,,,,8,11,92,,,
178845,control_change,24,0,4,,,,,,,,,3,11,95,,,
178848,control_change,24,0,11,,,,,,,,,10,11,52,,,
178851,control_change,24,0,12,,,,,,,,,11,11,52,,,
178860,note_on,12,0,11,,,,,,,,,10,,,,73,0
178861,control_change,18,0,9,,,,,,,,,8,11,94,,,
178862,control_change,36,0,15,,,,,,,,,14,11,53,,,
178863,note_on,12,0,12,,,,,,,,,11,,,,69,0
178869,note_on,24,0,4,,,,,,,,,3,,,,52,0
178869,control_change,0,0,4,,,,,,,,,3,11,97,,,
178872,control_change,12,0,11,,,,,,,,,10,11,53,,,
178873,note_on,12,0,9,,,,,,,,,8,,,,52,0
178873,control_change,48,0,1,,,,,,,,,0,11,89,,,
178875,control_change,12,0,12,,,,,,,,,11,11,53,,,
178876,control_change,48,0,2,,,,,,,,,1,11,89,,,
178877,control_change,48,0,3,,,,,,,,,2,11,89,,,
178879,control_change,6,0,9,,,,,,,,,8,11,96,,,
178893,control_change,24,0,4,,,,,,,,,3,11,99,,,
178896,control_change,24,0,11,,,,,,,,,10,11,54,,,
178897,control_change,18,0,9,,,,,,,,,8,11,98,,,
178898,control_change,36,0,15,,,,,,,,,14,11,54,,,
178899,control_change,24,0,12,,,,,,,,,11,11,54,,,
178915,control_change,18,0,9,,,,,,,,,8,11,100,,,
178917,control_change,24,0,4,,,,,,,,,3,11,101,,,
178920,control_change,0,0,11,,,,,,,,,10,11,55,,,
178920,note_on,24,0,11,,,,,,,,,10,,,,76,102
178920,set_tempo,120,1,0,,,,,,285714,,,,,,,,
178920,note_on,0,0,11,,,,,,,,,10,,,,68,102
178921,note_on,48,0,1,,,,,,,,,0,,,,88,0
178921,note_on,0,0,1,,,,,,,,,0,,,,85,101
178921,note_on,0,0,1,,,,,,,,,0,,,,88,101
178921,control_change,0,0,1,,,,,,,,,0,11,89,,,
178921,note_on,0,0,1,,,,,,,,,0,,,,85,0
178923,control_change,0,0,12,,,,,,,,,11,11,55,,,
178923,note_on,0,0,12,,,,,,,,,11,,,,73,102
178923,note_on,24,0,12,,,,,,,,,11,,,,64,102
178924,note_on,0,0,2,,,,,,,,,1,,,,76,0
178924,note_on,48,0,2,,,,,,,,,1,,,,73,0
178924,note_on,0,0,2,,,,,,,,,1,,,,76,100
178924,note_on,0,0,2,,,,,,,,,1,,,,73,100
178924,control_change,0,0,2,,,,,,,,,1,11,89,,,
178925,note_on,0,0,3,,,,,,,,,2,,,,76,0
178925,note_on,0,0,3,,,,,,,,,2,,,,80,101
178925,note_on,0,0,3,,,,,,,,,2,,,,68,101
178925,control_change,0,0,3,,,,,,,,,2,11,89,,,
178925,note_on,48,0,3,,,,,,,,,2,,,,64,0
178929,note_on,0,0,4,,,,,,,,,3,,,,52,100
178929,note_on,12,0,4,,,,,,,,,3,,,,64,0
178929,note_on,0,0,4,,,,,,,,,3,,,,64,100
178933,note_on,0,0,9,,,,,,,,,8,,,,52,110
178933,control_change,18,0,9,,,,,,,,,8,11,102,,,
178934,control_change,0,0,15,,,,,,,,,14,11,55,,,
178934,note_on,0,0,15,,,,,,,,,14,,,,40,112
178934,note_on,36,0,15,,,,,,,,,14,,,,40,0
178944,control_change,15,0,4,,,,,,,,,3,11,101,,,
178944,control_change,23,0,1,,,,,,,,,0,11,89,,,
178947,control_change,23,0,2,,,,,,,,,1,11,89,,,
178948,control_change,23,0,3,,,,,,,,,2,11,89,,,
178957,control_change,24,0,9,,,,,,,,,8,11,100,,,
178960,control_change,16,0,4,,,,,,,,,3,11,100,,,
178968,control_change,24,0,1,,,,,,,,,0,11,88,,,
178971,control_change,24,0,2,,,,,,,,,1,11,88,,,
178972,control_change,24,0,3,,,,,,,,,2,11,88,,,
178976,control_change,16,0,4,,,,,,,,,3,11,99,,,
178981,control_change,24,0,9,,,,,,,,,8,11,98,,,
178992,control_change,24,0,1,,,,,,,,,0,11,87,,,
178992,control_change,16,0,4,,,,,,,,,3,11,98,,,
178995,control_change,24,0,2,,,,,,,,,1,11,87,,,
178996,control_change,24,0,3,,,,,,,,,2,11,87,,,
179005,control_change,24,0,9,,,,,,,,,8,11,96,,,
179008,control_change,16,0,4,,,,,,,,,3,11,97,,,
179016,control_change,24,0,1,,,,,,,,,0,11,86,,,
179019,control_change,24,0,2,,,,,,,,,1,11,86,,,
179020,control_change,24,0,3,,,,,,,,,2,11,86,,,
179024,control_change,16,0,4,,,,,,,,,3,11,96,,,
179029,control_change,24,0,9,,,,,,,,,8,11,94,,,
179040,set_tempo,120,1,0,,,,,,300000,,,,,,,,
179040,control_change,16,0,4,,,,,,,,,3,11,95,,,
179040,control_change,24,0,1,,,,,,,,,0,11,86,,,
179043,control_change,24,0,2,,,,,,,,,1,11,86,,,
179044,control_change,24,0,3,,,,,,,,,2,11,86,,,
179048,control_change,240,0,13,,,,,,,,,12,11,41,,,
179048,note_on,0,0,13,,,,,,,,,12,,,,52,112
179052,note_on,240,0,14,,,,,,,,,13,,,,52,112
179052,control_change,0,0,14,,,,,,,,,13,11,41,,,
179053,control_change,24,0,9,,,,,,,,,8,11,92,,,
179056,control_change,16,0,4,,,,,,,,,3,11,94,,,
179064,control_change,24,0,1,,,,,,,,,0,11,85,,,
179064,control_change,16,0,13,,,,,,,,,12,11,42,,,
179067,control_change,24,0,2,,,,,,,,,1,11,85,,,
179068,control_change,16,0,14,,,,,,,,,13,11,42,,,
179068,control_change,24,0,3,,,,,,,,,2,11,85,,,
179072,control_change,16,0,4,,,,,,,,,3,11,93,,,
179077,control_change,24,0,9,,,,,,,,,8,11,90,,,
179080,control_change,16,0,13,,,,,,,,,12,11,42,,,
179084,control_change,16,0,14,,,,,,,,,13,11,42,,,
179088,control_change,24,0,1,,,,,,,,,0,11,84,,,
179088,control_change,16,0,4,,,,,,,,,3,11,92,,,
179091,control_change,24,0,2,,,,,,,,,1,11,84,,,
179092,control_change,24,0,3,,,,,,,,,2,11,84,,,
179096,control_change,16,0,13,,,,,,,,,12,11,43,,,
179100,control_change,16,0,14,,,,,,,,,13,11,43,,,
179101,control_change,24,0,9,,,,,,,,,8,11,88,,,
179103,note_on,300,0,5,,,,,,,,,4,,,,64,100
179103,control_change,0,0,5,,,,,,,,,4,11,82,,,
179104,note_on,0,0,6,,,,,,,,,5,,,,52,100
179104,control_change,16,0,4,,,,,,,,,3,11,91,,,
179104,control_change,300,0,6,,,,,,,,,5,11,82,,,
179107,control_change,300,0,8,,,,,,,,,7,11,82,,,
179107,note_on,0,0,8,,,,,,,,,7,,,,56,110
179107,note_on,0,0,8,,,,,,,,,7,,,,61,110
179108,note_on,12,0,13,,,,,,,,,12,,,,52,0
179112,control_change,24,0,1,,,,,,,,,0,11,83,,,
179112,control_change,4,0,13,,,,,,,,,12,11,44,,,
179112,note_on,12,0,14,,,,,,,,,13,,,,52,0
179115,control_change,24,0,2,,,,,,,,,1,11,83,,,
179116,control_change,24,0,3,,,,,,,,,2,11,83,,,
179116,control_change,4,0,14,,,,,,,,,13,11,44,,,
179120,control_change,16,0,4,,,,,,,,,3,11,90,,,
179121,control_change,18,0,5,,,,,,,,,4,11,84,,,
179122,control_change,18,0,6,,,,,,,,,5,11,84,,,
179125,control_change,24,0,9,,,,,,,,,8,11,86,,,
179125,control_change,18,0,8,,,,,,,,,7,11,84,,,
179128,control_change,16,0,13,,,,,,,,,12,11,45,,,
179132,control_change,16,0,14,,,,,,,,,13,11,45,,,
179136,control_change,24,0,1,,,,,,,,,0,11,83,,,
179136,control_change,16,0,4,,,,,,,,,3,11,89,,,
179139,control_change,18,0,5,,,,,,,,,4,11,86,,,
179139,control_change,24,0,2,,,,,,,,,1,11,83,,,
179140,control_change,18,0,6,,,,,,,,,5,11,86,,,
179140,control_change,24,0,3,,,,,,,,,2,11,83,,,
179143,control_change,18,0,8,,,,,,,,,7,11,86,,,
179144,control_change,16,0,13,,,,,,,,,12,11,46,,,
179148,control_change,16,0,14,,,,,,,,,13,11,46,,,
179149,control_change,24,0,9,,,,,,,,,8,11,84,,,
179152,control_change,16,0,4,,,,,,,,,3,11,88,,,
179157,control_change,18,0,5,,,,,,,,,4,11,88,,,
179158,control_change,18,0,6,,,,,,,,,5,11,88,,,
179160,set_tempo,120,1,0,,,,,,327869,,,,,,,,
179160,note_on,240,0,11,,,,,,,,,10,,,,68,0
179160,note_on,0,0,11,,,,,,,,,10,,,,76,0
179160,control_change,16,0,13,,,,,,,,,12,11,47,,,
179160,control_change,24,0,1,,,,,,,,,0,11,82,,,
179161,control_change,18,0,8,,,,,,,,,7,11,88,,,
179163,note_on,240,0,12,,,,,,,,,11,,,,73,0
179163,control_change,24,0,2,,,,,,,,,1,11,82,,,
179163,note_on,0,0,12,,,,,,,,,11,,,,64,0
179163,note_on,6,0,5,,,,,,,,,4,,,,64,0
179163,note_on,0,0,5,,,,,,,,,4,,,,64,100
179164,note_on,0,0,6,,,,,,,,,5,,,,52,100
179164,control_change,16,0,14,,,,,,,,,13,11,47,,,
179164,control_change,24,0,3,,,,,,,,,2,11,82,,,
179164,note_on,6,0,6,,,,,,,,,5,,,,52,0
179167,note_on,0,0,8,,,,,,,,,7,,,,56,0
179167,note_on,0,0,8,,,,,,,,,7,,,,56,110
179167,note_on,6,0,8,,,,,,,,,7,,,,61,0
179167,note_on,0,0,8,,,,,,,,,7,,,,61,110
179168,control_change,16,0,4,,,,,,,,,3,11,87,,,
179168,note_on,8,0,13,,,,,,,,,12,,,,61,112
179169,note_on,1,0,4,,,,,,,,,3,,,,52,0
179172,note_on,8,0,14,,,,,,,,,13,,,,56,112
179173,note_on,24,0,9,,,,,,,,,8,,,,52,0
179173,control_change,0,0,9,,,,,,,,,8,11,82,,,
179174,note_on,240,0,15,,,,,,,,,14,,,,40,0
179175,control_change,12,0,5,,,,,,,,,4,11,90,,,
179176,control_change,8,0,13,,,,,,,,,12,11,48,,,
179176,control_change,12,0,6,,,,,,,,,5,11,90,,,
179179,control_change,12,0,8,,,,,,,,,7,11,90,,,
179180,control_change,8,0,14,,,,,,,,,13,11,48,,,
179184,control_change,24,0,1,,,,,,,,,0,11,81,,,
179187,control_change,24,0,2,,,,,,,,,1,11,81,,,
179188,control_change,24,0,3,,,,,,,,,2,11,81,,,
179192,control_change,16,0,13,,,,,,,,,12,11,49,,,
179193,control_change,18,0,5,,,,,,,,,4,11,92,,,
179194,control_change,18,0,6,,,,,,,,,5,11,92,,,
179196,control_change,16,0,14,,,,,,,,,13,11,49,,,
179197,control_change,18,0,8,,,,,,,,,7,11,92,,,
179208,control_change,24,0,1,,,,,,,,,0,11,80,,,
179208,control_change,16,0,13,,,,,,,,,12,11,50,,,
179211,control_change,24,0,2,,,,,,,,,1,11,80,,,
179211,control_change,18,0,5,,,,,,,,,4,11,94,,,
179212,control_change,16,0,14,,,,,,,,,13,11,50,,,
179212,control_change,18,0,6,,,,,,,,,5,11,94,,,
179212,control_change,24,0,3,,,,,,,,,2,11,80,,,
179215,control_change,18,0,8,,,,,,,,,7,11,94,,,
179224,control_change,16,0,13,,,,,,,,,12,11,51,,,
179228,control_change,16,0,14,,,,,,,,,13,11,51,,,
179228,note_on,4,0,13,,,,,,,,,12,,,,61,0
179229,control_change,18,0,5,,,,,,,,,4,11,96,,,
179230,control_change,18,0,6,,,,,,,,,5,11,96,,,
179232,control_change,24,0,1,,,,,,,,,0,11,80,,,
179232,note_on,4,0,14,,,,,,,,,13,,,,56,0
179233,control_change,18,0,8,,,,,,,,,7,11,96,,,
179235,control_change,24,0,2,,,,,,,,,1,11,80,,,
179236,control_change,24,0,3,,,,,,,,,2,11,80,,,
179240,control_change,12,0,13,,,,,,,,,12,11,52,,,
179244,control_change,12,0,14,,,,,,,,,13,11,52,,,
179247,control_change,18,0,5,,,,,,,,,4,11,98,,,
179248,control_change,18,0,6,,,,,,,,,5,11,98,,,
179251,control_change,18,0,8,,,,,,,,,7,11,98,,,
179256,control_change,24,0,1,,,,,,,,,0,11,79,,,
179256,control_change,16,0,13,,,,,,,,,12,11,53,,,
179259,control_change,24,0,2,,,,,,,,,1,11,79,,,
179260,control_change,24,0,3,,,,,,,,,2,11,79,,,
179260,control_change,16,0,14,,,,,,,,,13,11,53,,,
179265,control_change,18,0,5,,,,,,,,,4,11,100,,,
179266,control_change,18,0,6,,,,,,,,,5,11,100,,,
179269,control_change,18,0,8,,,,,,,,,7,11,100,,,
179272,control_change,16,0,13,,,,,,,,,12,11,54,,,
179276,control_change,16,0,14,,,,,,,,,13,11,54,,,
179280,control_change,24,0,1,,,,,,,,,0,11,78,,,
179280,note_on,120,0,11,,,,,,,,,10,,,,64,102
179280,set_tempo,120,1,0,,,,,,285714,,,,,,,,
179283,control_change,0,0,5,,,,,,,,,4,11,102,,,
179283,note_on,18,0,5,,,,,,,,,4,,,,64,0
179283,note_on,0,0,5,,,,,,,,,4,,,,64,100
179283,control_change,24,0,2,,,,,,,,,1,11,78,,,
179283,note_on,120,0,12,,,,,,,,,11,,,,61,102
179284,note_on,18,0,6,,,,,,,,,5,,,,52,0
179284,control_change,24,0,3,,,,,,,,,2,11,78,,,
179284,note_on,0,0,6,,,,,,,,,5,,,,52,100
179284,control_change,0,0,6,,,,,,,,,5,11,102,,,
179287,control_change,0,0,8,,,,,,,,,7,11,102,,,
179287,note_on,0,0,8,,,,,,,,,7,,,,61,110
179287,note_on,0,0,8,,,,,,,,,7,,,,56,110
179287,note_on,0,0,8,,,,,,,,,7,,,,56,0
179287,note_on,18,0,8,,,,,,,,,7,,,,61,0
179288,note_on,0,0,13,,,,,,,,,12,,,,64,127
179288,control_change,16,0,13,,,,,,,,,12,11,55,,,
179292,control_change,0,0,14,,,,,,,,,13,11,55,,,
179292,note_on,16,0,14,,,,,,,,,13,,,,61,127
179307,control_change,24,0,5,,,,,,,,,4,11,100,,,
179308,control_change,24,0,6,,,,,,,,,5,11,100,,,
179311,control_change,24,0,8,,,,,,,,,7,11,100,,,
179312,control_change,24,0,13,,,,,,,,,12,11,54,,,
179316,control_change,24,0,14,,,,,,,,,13,11,54,,,
179331,control_change,24,0,5,,,,,,,,,4,11,98,,,
179332,control_change,24,0,6,,,,,,,,,5,11,98,,,
179335,control_change,24,0,8,,,,,,,,,7,11,98,,,
179336,control_change,24,0,13,,,,,,,,,12,11,53,,,
179340,control_change,24,0,14,,,,,,,,,13,11,53,,,
179340,note_on,60,0,11,,,,,,,,,10,,,,64,0
179343,note_on,60,0,12,,,,,,,,,11,,,,61,0
179355,control_change,24,0,5,,,,,,,,,4,11,96,,,
179356,control_change,24,0,6,,,,,,,,,5,11,96,,,
179359,control_change,24,0,8,,,,,,,,,7,11,96,,,
179360,control_change,24,0,13,,,,,,,,,12,11,52,,,
179364,control_change,24,0,14,,,,,,,,,13,11,52,,,
179379,control_change,24,0,5,,,,,,,,,4,11,94,,,
179380,control_change,24,0,6,,,,,,,,,5,11,94,,,
179383,control_change,24,0,8,,,,,,,,,7,11,94,,,
179384,control_change,24,0,13,,,,,,,,,12,11,51,,,
179388,control_change,24,0,14,,,,,,,,,13,11,51,,,
179400,set_tempo,120,1,0,,,,,,300000,,,,,,,,
179400,note_on,60,0,11,,,,,,,,,10,,,,68,102
179403,control_change,24,0,5,,,,,,,,,4,11,92,,,
179403,note_on,60,0,12,,,,,,,,,11,,,,64,102
179404,control_change,24,0,6,,,,,,,,,5,11,92,,,
179407,control_change,24,0,8,,,,,,,,,7,11,92,,,
179408,control_change,24,0,13,,,,,,,,,12,11,50,,,
179412,control_change,24,0,14,,,,,,,,,13,11,50,,,
179427,control_change,24,0,5,,,,,,,,,4,11,90,,,
179428,control_change,24,0,6,,,,,,,,,5,11,90,,,
179431,control_change,24,0,8,,,,,,,,,7,11,90,,,
179432,control_change,24,0,13,,,,,,,,,12,11,49,,,
179436,control_change,24,0,14,,,,,,,,,13,11,49,,,
179451,control_change,24,0,5,,,,,,,,,4,11,88,,,
179452,control_change,24,0,6,,,,,,,,,5,11,88,,,
179455,control_change,24,0,8,,,,,,,,,7,11,88,,,
179456,control_change,24,0,13,,,,,,,,,12,11,48,,,
179460,note_on,60,0,11,,,,,,,,,10,,,,68,0
179460,control_change,24,0,14,,,,,,,,,13,11,48,,,
179463,note_on,60,0,12,,,,,,,,,11,,,,64,0
179469,note_on,300,0,4,,,,,,,,,3,,,,52,100
179473,note_on,300,0,9,,,,,,,,,8,,,,52,110
179474,note_on,300,0,15,,,,,,,,,14,,,,40,112
179475,control_change,24,0,5,,,,,,,,,4,11,86,,,
179476,control_change,24,0,6,,,,,,,,,5,11,86,,,
179479,control_change,24,0,8,,,,,,,,,7,11,86,,,
179480,control_change,24,0,13,,,,,,,,,12,11,47,,,
179484,control_change,24,0,14,,,,,,,,,13,11,47,,,
179499,note_on,30,0,4,,,,,,,,,3,,,,52,0
179499,control_change,24,0,5,,,,,,,,,4,11,84,,,
179500,control_change,24,0,6,,,,,,,,,5,11,84,,,
179503,control_change,24,0,8,,,,,,,,,7,11,84,,,
179503,note_on,30,0,9,,,,,,,,,8,,,,52,0
179504,control_change,24,0,13,,,,,,,,,12,11,46,,,
179508,control_change,24,0,14,,,,,,,,,13,11,46,,,
179520,note_on,60,0,11,,,,,,,,,10,,,,71,102
179520,set_tempo,120,1,0,,,,,,327869,,,,,,,,
179521,note_on,0,0,1,,,,,,,,,0,,,,85,0
179521,note_on,241,0,1,,,,,,,,,0,,,,88,0
179521,note_on,0,0,1,,,,,,,,,0,,,,86,101
179521,note_on,0,0,1,,,,,,,,,0,,,,83,101
179523,note_on,24,0,5,,,,,,,,,4,,,,64,0
179523,note_on,60,0,12,,,,,,,,,11,,,,68,102
179523,control_change,0,0,5,,,,,,,,,4,11,82,,,
179524,control_change,0,0,6,,,,,,,,,5,11,82,,,
179524,note_on,241,0,2,,,,,,,,,1,,,,73,0
179524,note_on,0,0,2,,,,,,,,,1,,,,76,0
179524,note_on,0,0,2,,,,,,,,,1,,,,71,100
179524,note_on,0,0,2,,,,,,,,,1,,,,74,100
179524,note_on,24,0,6,,,,,,,,,5,,,,52,0
179527,control_change,0,0,8,,,,,,,,,7,11,82,,,
179527,note_on,0,0,8,,,,,,,,,7,,,,62,110
179527,note_on,0,0,8,,,,,,,,,7,,,,59,110
179527,note_on,0,0,8,,,,,,,,,7,,,,56,0
179527,note_on,24,0,8,,,,,,,,,7,,,,61,0
179528,note_on,0,0,13,,,,,,,,,12,,,,62,112
179528,control_change,0,0,13,,,,,,,,,12,11,45,,,
179528,note_on,24,0,13,,,,,,,,,12,,,,64,0
179529,note_on,0,0,4,,,,,,,,,3,,,,52,100
179529,note_on,0,0,4,,,,,,,,,3,,,,62,100
179529,note_on,30,0,4,,,,,,,,,3,,,,64,0
179532,note_on,24,0,14,,,,,,,,,13,,,,61,0
179532,control_change,0,0,14,,,,,,,,,13,11,45,,,
179532,note_on,0,0,14,,,,,,,,,13,,,,59,112
179533,note_on,30,0,9,,,,,,,,,8,,,,52,110
179534,note_on,0,0,15,,,,,,,,,14,,,,40,112
179534,note_on,60,0,15,,,,,,,,,14,,,,40,0
179552,control_change,24,0,13,,,,,,,,,12,11,44,,,
179556,control_change,24,0,14,,,,,,,,,13,11,44,,,
179576,control_change,24,0,13,,,,,,,,,12,11,43,,,
179580,control_change,24,0,14,,,,,,,,,13,11,43,,,
179580,note_on,60,0,11,,,,,,,,,10,,,,71,0
179583,note_on,60,0,12,,,,,,,,,11,,,,68,0
179589,note_on,60,0,4,,,,,,,,,3,,,,52,0
179593,note_on,60,0,9,,,,,,,,,8,,,,52,0
179600,control_change,24,0,13,,,,,,,,,12,11,42,,,
179604,control_change,24,0,14,,,,,,,,,13,11,42,,,
179624,control_change,24,0,13,,,,,,,,,12,11,42,,,
179628,control_change,24,0,14,,,,,,,,,13,11,42,,,
179640,set_tempo,120,1,0,,,,,,285714,,,,,,,,
179640,note_on,60,0,11,,,,,,,,,10,,,,64,102
179640,note_on,0,0,11,,,,,,,,,10,,,,73,102
179641,note_on,0,0,1,,,,,,,,,0,,,,85,101
179641,note_on,0,0,1,,,,,,,,,0,,,,86,0
179641,note_on,120,0,1,,,,,,,,,0,,,,83,0
179641,note_on,0,0,1,,,,,,,,,0,,,,81,101
179643,note_on,60,0,12,,,,,,,,,11,,,,69,102
179644,note_on,0,0,2,,,,,,,,,1,,,,73,100
179644,note_on,120,0,2,,,,,,,,,1,,,,74,0
179644,note_on,0,0,2,,,,,,,,,1,,,,71,0
179644,note_on,0,0,2,,,,,,,,,1,,,,69,100
179645,note_on,0,0,3,,,,,,,,,2,,,,80,0
179645,note_on,0,0,3,,,,,,,,,2,,,,69,101
179645,note_on,0,0,3,,,,,,,,,2,,,,81,101
179645,note_on,361,0,3,,,,,,,,,2,,,,68,0
179647,note_on,120,0,8,,,,,,,,,7,,,,62,0
179647,note_on,0,0,8,,,,,,,,,7,,,,59,0
179648,note_on,24,0,13,,,,,,,,,12,,,,62,0
179648,control_change,0,0,13,,,,,,,,,12,11,41,,,
179648,note_on,0,0,13,,,,,,,,,12,,,,61,112
179649,note_on,0,0,4,,,,,,,,,3,,,,57,100
179649,note_on,0,0,4,,,,,,,,,3,,,,61,100
179649,note_on,60,0,4,,,,,,,,,3,,,,62,0
179652,note_on,24,0,14,,,,,,,,,13,,,,59,0
179652,control_change,0,0,14,,,,,,,,,13,11,41,,,
179652,note_on,0,0,14,,,,,,,,,13,,,,57,112
179653,note_on,60,0,9,,,,,,,,,8,,,,57,110
179654,note_on,0,0,15,,,,,,,,,14,,,,45,112
179654,note_on,120,0,15,,,,,,,,,14,,,,40,0
179708,note_on,60,0,13,,,,,,,,,12,,,,61,0
179712,note_on,60,0,14,,,,,,,,,13,,,,57,0
179760,set_tempo,120,1,0,,,,,,300000,,,,,,,,
179768,note_on,60,0,13,,,,,,,,,12,,,,52,112
179772,note_on,60,0,14,,,,,,,,,13,,,,49,112
179823,note_on,300,0,5,,,,,,,,,4,,,,64,100
179824,note_on,300,0,6,,,,,,,,,5,,,,52,100
179827,note_on,0,0,8,,,,,,,,,7,,,,57,110
179827,note_on,180,0,8,,,,,,,,,7,,,,61,110
179828,note_on,60,0,13,,,,,,,,,12,,,,52,0
179832,note_on,60,0,14,,,,,,,,,13,,,,49,0
179880,note_on,0,0,11,,,,,,,,,10,,,,64,0
179880,set_tempo,120,1,0,,,,,,327869,,,,,,,,
179880,note_on,240,0,11,,,,,,,,,10,,,,73,0
179883,note_on,240,0,12,,,,,,,,,11,,,,69,0
179883,note_on,60,0,5,,,,,,,,,4,,,,64,0
179883,note_on,0,0,5,,,,,,,,,4,,,,64,100
179884,note_on,60,0,6,,,,,,,,,5,,,,52,0
179884,note_on,0,0,6,,,,,,,,,5,,,,52,100
179887,note_on,0,0,8,,,,,,,,,7,,,,61,0
179887,note_on,0,0,8,,,,,,,,,7,,,,61,110
179887,note_on,60,0,8,,,,,,,,,7,,,,57,0
179887,note_on,0,0,8,,,,,,,,,7,,,,57,110
179888,note_on,60,0,13,,,,,,,,,12,,,,57,112
179889,note_on,240,0,4,,,,,,,,,3,,,,57,0
179892,note_on,60,0,14,,,,,,,,,13,,,,52,112
179893,note_on,240,0,9,,,,,,,,,8,,,,57,0
179894,note_on,240,0,15,,,,,,,,,14,,,,45,0
179948,note_on,60,0,13,,,,,,,,,12,,,,57,0
179952,note_on,60,0,14,,,,,,,,,13,,,,52,0
180000,set_tempo,120,1,0,,,,,,285714,,,,,,,,
180000,note_on,120,0,11,,,,,,,,,10,,,,61,102
180003,note_on,0,0,5,,,,,,,,,4,,,,64,100
180003,note_on,120,0,5,,,,,,,,,4,,,,64,0
180003,note_on,120,0,12,,,,,,,,,11,,,,57,102
180004,note_on,120,0,6,,,,,,,,,5,,,,52,0
180004,note_on,0,0,6,,,,,,,,,5,,,,52,100
180007,note_on,0,0,8,,,,,,,,,7,,,,57,110
180007,note_on,0,0,8,,,,,,,,,7,,,,61,110
180007,note_on,0,0,8,,,,,,,,,7,,,,57,0
180007,note_on,120,0,8,,,,,,,,,7,,,,61,0
180008,note_on,60,0,13,,,,,,,,,12,,,,61,127
180012,note_on,60,0,14,,,,,,,,,13,,,,57,127
180060,note_on,60,0,11,,,,,,,,,10,,,,61,0
180063,note_on,60,0,12,,,,,,,,,11,,,,57,0
180120,set_tempo,120,1,0,,,,,,300000,,,,,,,,
180120,note_on,60,0,11,,,,,,,,,10,,,,64,102
180121,note_on,480,0,1,,,,,,,,,0,,,,85,0
180121,note_on,0,0,1,,,,,,,,,0,,,,81,0
180123,note_on,60,0,12,,,,,,,,,11,,,,61,102
180124,note_on,0,0,2,,,,,,,,,1,,,,69,0
180124,note_on,480,0,2,,,,,,,,,1,,,,73,0
180125,note_on,480,0,3,,,,,,,,,2,,,,69,0
180125,note_on,0,0,3,,,,,,,,,2,,,,81,0
180129,note_on,240,0,4,,,,,,,,,3,,,,61,0
180180,note_on,60,0,11,,,,,,,,,10,,,,64,0
180183,note_on,60,0,12,,,,,,,,,11,,,,61,0
180193,note_on,300,0,9,,,,,,,,,8,,,,45,110
180194,note_on,300,0,15,,,,,,,,,14,,,,45,112
180223,note_on,30,0,9,,,,,,,,,8,,,,45,0
180224,note_on,30,0,15,,,,,,,,,14,,,,45,0
180240,set_tempo,120,1,0,,,,,,352941,,,,,,,,
180240,note_on,60,0,11,,,,,,,,,10,,,,69,102
180243,note_on,60,0,12,,,,,,,,,11,,,,64,102
180243,note_on,240,0,5,,,,,,,,,4,,,,64,0
180244,note_on,240,0,6,,,,,,,,,5,,,,52,0
180247,note_on,0,0,8,,,,,,,,,7,,,,61,0
180247,note_on,240,0,8,,,,,,,,,7,,,,57,0
180248,note_on,240,0,13,,,,,,,,,12,,,,61,0
180252,note_on,240,0,14,,,,,,,,,13,,,,57,0
180253,note_on,30,0,9,,,,,,,,,8,,,,44,110
180254,note_on,30,0,15,,,,,,,,,14,,,,44,112
180300,note_on,60,0,11,,,,,,,,,10,,,,69,0
180303,note_on,60,0,12,,,,,,,,,11,,,,64,0
180305,note_on,0,0,3,,,,,,,,,2,,,,69,101
180305,note_on,180,0,3,,,,,,,,,2,,,,73,101
180305,control_change,0,0,3,,,,,,,,,2,11,59,,,
180307,note_on,0,0,8,,,,,,,,,7,,,,54,110
180307,control_change,0,0,8,,,,,,,,,7,11,47,,,
180307,note_on,60,0,8,,,,,,,,,7,,,,66,110
180309,control_change,180,0,4,,,,,,,,,3,11,62,,,
180309,note_on,0,0,4,,,,,,,,,3,,,,57,100
180309,note_on,0,0,4,,,,,,,,,3,,,,61,100
180313,note_on,60,0,9,,,,,,,,,8,,,,44,0
180314,note_on,60,0,15,,,,,,,,,14,,,,44,0
180360,control_change,60,0,11,,,,,,,,,10,11,41,,,
180360,note_on,0,0,11,,,,,,,,,10,,,,73,102
180360,set_tempo,120,1,0,,,,,,291262,,,,,,,,
180363,control_change,0,0,12,,,,,,,,,11,11,41,,,
180363,note_on,0,0,12,,,,,,,,,11,,,,61,102
180363,note_on,60,0,12,,,,,,,,,11,,,,69,102
180365,note_on,0,0,3,,,,,,,,,2,,,,73,101
180365,note_on,60,0,3,,,,,,,,,2,,,,69,0
180365,note_on,0,0,3,,,,,,,,,2,,,,73,0
180365,note_on,0,0,3,,,,,,,,,2,,,,69,101
180367,note_on,60,0,8,,,,,,,,,7,,,,54,0
180367,note_on,0,0,8,,,,,,,,,7,,,,66,0
180367,note_on,0,0,8,,,,,,,,,7,,,,54,110
180367,note_on,0,0,8,,,,,,,,,7,,,,66,110
180369,note_on,0,0,4,,,,,,,,,3,,,,57,0
180369,note_on,0,0,4,,,,,,,,,3,,,,57,100
180369,note_on,0,0,4,,,,,,,,,3,,,,61,100
180369,note_on,60,0,4,,,,,,,,,3,,,,61,0
180373,control_change,0,0,9,,,,,,,,,8,11,47,,,
180373,note_on,60,0,9,,,,,,,,,8,,,,42,110
180374,note_on,0,0,15,,,,,,,,,14,,,,42,127
180374,control_change,60,0,15,,,,,,,,,14,11,41,,,
180480,set_tempo,120,1,0,,,,,,307692,,,,,,,,
180488,control_change,0,0,13,,,,,,,,,12,11,41,,,
180488,note_on,240,0,13,,,,,,,,,12,,,,54,112
180492,note_on,0,0,14,,,,,,,,,13,,,,49,112
180492,control_change,240,0,14,,,,,,,,,13,11,41,,,
180541,note_on,420,0,1,,,,,,,,,0,,,,90,101
180541,note_on,0,0,1,,,,,,,,,0,,,,85,101
180541,control_change,0,0,1,,,,,,,,,0,11,47,,,
180544,note_on,420,0,2,,,,,,,,,1,,,,78,100
180544,control_change,0,0,2,,,,,,,,,1,11,47,,,
180544,note_on,0,0,2,,,,,,,,,1,,,,81,100
180548,note_on,60,0,13,,,,,,,,,12,,,,54,0
180552,note_on,60,0,14,,,,,,,,,13,,,,49,0
180571,note_on,0,0,1,,,,,,,,,0,,,,90,0
180571,note_on,30,0,1,,,,,,,,,0,,,,85,0
180574,note_on,0,0,2,,,,,,,,,1,,,,78,0
180574,note_on,30,0,2,,,,,,,,,1,,,,81,0
180600,set_tempo,120,1,0,,,,,,330579,,,,,,,,
180600,note_on,240,0,11,,,,,,,,,10,,,,73,0
180601,note_on,30,0,1,,,,,,,,,0,,,,90,101
180601,note_on,0,0,1,,,,,,,,,0,,,,85,101
180603,note_on,0,0,12,,,,,,,,,11,,,,69,0
180603,note_on,240,0,12,,,,,,,,,11,,,,61,0
180604,note_on,0,0,2,,,,,,,,,1,,,,81,100
180604,note_on,30,0,2,,,,,,,,,1,,,,78,100
180608,note_on,60,0,13,,,,,,,,,12,,,,57,112
180612,note_on,60,0,14,,,,,,,,,13,,,,54,112
180613,note_on,240,0,9,,,,,,,,,8,,,,42,0
180614,note_on,240,0,15,,,,,,,,,14,,,,42,0
180661,note_on,0,0,1,,,,,,,,,0,,,,90,0
180661,note_on,60,0,1,,,,,,,,,0,,,,85,0
180664,note_on,0,0,2,,,,,,,,,1,,,,78,0
180664,note_on,60,0,2,,,,,,,,,1,,,,81,0
180668,note_on,60,0,13,,,,,,,,,12,,,,57,0
180672,note_on,60,0,14,,,,,,,,,13,,,,54,0
180720,note_on,120,0,11,,,,,,,,,10,,,,61,102
180720,set_tempo,120,1,0,,,,,,291262,,,,,,,,
180721,note_on,60,0,1,,,,,,,,,0,,,,85,116
180721,note_on,0,0,1,,,,,,,,,0,,,,90,116
180723,note_on,120,0,12,,,,,,,,,11,,,,57,102
180724,note_on,60,0,2,,,,,,,,,1,,,,78,115
180724,note_on,0,0,2,,,,,,,,,1,,,,81,115
180728,note_on,60,0,13,,,,,,,,,12,,,,61,112
180732,note_on,60,0,14,,,,,,,,,13,,,,57,112
180780,note_on,60,0,11,,,,,,,,,10,,,,61,0
180783,note_on,60,0,12,,,,,,,,,11,,,,57,0
180840,set_tempo,120,1,0,,,,,,307692,,,,,,,,
180840,note_on,60,0,11,,,,,,,,,10,,,,66,102
180843,note_on,60,0,12,,,,,,,,,11,,,,61,102
180900,note_on,60,0,11,,,,,,,,,10,,,,66,0
180903,note_on,60,0,12,,,,,,,,,11,,,,61,0
180914,note_on,300,0,15,,,,,,,,,14,,,,42,112
180960,set_tempo,120,1,0,,,,,,330579,,,,,,,,
180960,note_on,60,0,11,,,,,,,,,10,,,,69,102
180961,note_on,240,0,1,,,,,,,,,0,,,,90,0
180961,note_on,0,0,1,,,,,,,,,0,,,,85,0
180963,note_on,60,0,12,,,,,,,,,11,,,,66,102
180964,note_on,240,0,2,,,,,,,,,1,,,,81,0
180964,note_on,0,0,2,,,,,,,,,1,,,,78,0
180968,note_on,240,0,13,,,,,,,,,12,,,,61,0
180972,note_on,240,0,14,,,,,,,,,13,,,,57,0
180974,note_on,60,0,15,,,,,,,,,14,,,,42,0
180974,note_on,0,0,15,,,,,,,,,14,,,,42,112
181020,note_on,60,0,11,,,,,,,,,10,,,,69,0
181023,note_on,60,0,12,,,,,,,,,11,,,,66,0
181025,note_on,0,0,3,,,,,,,,,2,,,,73,101
181025,note_on,660,0,3,,,,,,,,,2,,,,69,0
181025,note_on,0,0,3,,,,,,,,,2,,,,69,101
181025,note_on,0,0,3,,,,,,,,,2,,,,73,0
181027,note_on,0,0,8,,,,,,,,,7,,,,54,110
181027,note_on,660,0,8,,,,,,,,,7,,,,66,0
181027,note_on,0,0,8,,,,,,,,,7,,,,66,110
181027,note_on,0,0,8,,,,,,,,,7,,,,54,0
181029,note_on,0,0,4,,,,,,,,,3,,,,61,100
181029,note_on,660,0,4,,,,,,,,,3,,,,57,0
181029,note_on,0,0,4,,,,,,,,,3,,,,61,0
181029,note_on,0,0,4,,,,,,,,,3,,,,57,100
181080,set_tempo,120,1,0,,,,,,291262,,,,,,,,
181080,note_on,60,0,11,,,,,,,,,10,,,,73,102
181080,note_on,0,0,11,,,,,,,,,10,,,,66,102
181083,note_on,60,0,12,,,,,,,,,11,,,,69,102
181085,note_on,0,0,3,,,,,,,,,2,,,,73,101
181085,note_on,0,0,3,,,,,,,,,2,,,,73,0
181085,note_on,0,0,3,,,,,,,,,2,,,,69,101
181085,note_on,60,0,3,,,,,,,,,2,,,,69,0
181087,note_on,60,0,8,,,,,,,,,7,,,,66,0
181087,note_on,0,0,8,,,,,,,,,7,,,,54,0
181087,note_on,0,0,8,,,,,,,,,7,,,,66,110
181087,note_on,0,0,8,,,,,,,,,7,,,,54,110
181089,note_on,0,0,4,,,,,,,,,3,,,,61,0
181089,note_on,60,0,4,,,,,,,,,3,,,,57,0
181089,note_on,0,0,4,,,,,,,,,3,,,,61,100
181089,note_on,0,0,4,,,,,,,,,3,,,,57,100
181094,note_on,120,0,15,,,,,,,,,14,,,,42,0
181094,note_on,0,0,15,,,,,,,,,14,,,,42,112
181200,set_tempo,120,1,0,,,,,,307692,,,,,,,,
181208,note_on,240,0,13,,,,,,,,,12,,,,54,112
181212,note_on,240,0,14,,,,,,,,,13,,,,49,112
181261,note_on,0,0,1,,,,,,,,,0,,,,90,101
181261,note_on,300,0,1,,,,,,,,,0,,,,85,101
181264,note_on,300,0,2,,,,,,,,,1,,,,81,100
181264,note_on,0,0,2,,,,,,,,,1,,,,78,100
181268,note_on,60,0,13,,,,,,,,,12,,,,54,0
181272,note_on,60,0,14,,,,,,,,,13,,,,49,0
181291,note_on,0,0,1,,,,,,,,,0,,,,85,0
181291,note_on,30,0,1,,,,,,,,,0,,,,90,0
181294,note_on,30,0,2,,,,,,,,,1,,,,78,0
181294,note_on,0,0,2,,,,,,,,,1,,,,81,0
181320,note_on,240,0,11,,,,,,,,,10,,,,66,0
181320,note_on,0,0,11,,,,,,,,,10,,,,73,0
181320,set_tempo,120,1,0,,,,,,330579,,,,,,,,
181321,note_on,30,0,1,,,,,,,,,0,,,,85,101
181321,note_on,0,0,1,,,,,,,,,0,,,,90,101
181323,note_on,240,0,12,,,,,,,,,11,,,,69,0
181324,note_on,0,0,2,,,,,,,,,1,,,,81,100
181324,note_on,30,0,2,,,,,,,,,1,,,,78,100
181325,note_on,0,0,3,,,,,,,,,2,,,,69,101
181325,note_on,0,0,3,,,,,,,,,2,,,,73,0
181325,note_on,240,0,3,,,,,,,,,2,,,,69,0
181325,note_on,0,0,3,,,,,,,,,2,,,,73,101
181327,note_on,240,0,8,,,,,,,,,7,,,,54,0
181327,note_on,0,0,8,,,,,,,,,7,,,,66,0
181327,note_on,0,0,8,,,,,,,,,7,,,,54,110
181327,note_on,0,0,8,,,,,,,,,7,,,,66,110
181328,note_on,60,0,13,,,,,,,,,12,,,,57,112
181329,note_on,240,0,4,,,,,,,,,3,,,,61,0
181329,note_on,0,0,4,,,,,,,,,3,,,,57,100
181329,note_on,0,0,4,,,,,,,,,3,,,,61,100
181329,note_on,0,0,4,,,,,,,,,3,,,,57,0
181332,note_on,60,0,14,,,,,,,,,13,,,,54,112
181334,note_on,240,0,15,,,,,,,,,14,,,,42,0
181381,note_on,0,0,1,,,,,,,,,0,,,,85,0
181381,note_on,60,0,1,,,,,,,,,0,,,,90,0
181384,note_on,60,0,2,,,,,,,,,1,,,,81,0
181384,note_on,0,0,2,,,,,,,,,1,,,,78,0
181388,note_on,60,0,13,,,,,,,,,12,,,,57,0
181392,note_on,60,0,14,,,,,,,,,13,,,,54,0
181440,note_on,120,0,11,,,,,,,,,10,,,,66,102
181440,set_tempo,120,1,0,,,,,,291262,,,,,,,,
181441,note_on,60,0,1,,,,,,,,,0,,,,85,116
181441,note_on,0,0,1,,,,,,,,,0,,,,90,116
181443,note_on,120,0,12,,,,,,,,,11,,,,61,102
181444,note_on,60,0,2,,,,,,,,,1,,,,78,115
181444,note_on,0,0,2,,,,,,,,,1,,,,81,115
181445,note_on,0,0,3,,,,,,,,,2,,,,69,101
181445,note_on,0,0,3,,,,,,,,,2,,,,73,101
181445,note_on,0,0,3,,,,,,,,,2,,,,69,0
181445,note_on,120,0,3,,,,,,,,,2,,,,73,0
181447,note_on,120,0,8,,,,,,,,,7,,,,66,0
181447,note_on,0,0,8,,,,,,,,,7,,,,54,0
181447,note_on,0,0,8,,,,,,,,,7,,,,66,110
181447,note_on,0,0,8,,,,,,,,,7,,,,54,110
181448,note_on,60,0,13,,,,,,,,,12,,,,61,112
181449,note_on,0,0,4,,,,,,,,,3,,,,57,100
181449,note_on,0,0,4,,,,,,,,,3,,,,61,100
181449,note_on,0,0,4,,,,,,,,,3,,,,61,0
181449,note_on,120,0,4,,,,,,,,,3,,,,57,0
181452,note_on,60,0,14,,,,,,,,,13,,,,57,112
181500,note_on,60,0,11,,,,,,,,,10,,,,66,0
181503,note_on,60,0,12,,,,,,,,,11,,,,61,0
181560,note_on,60,0,11,,,,,,,,,10,,,,69,102
181560,set_tempo,120,1,0,,,,,,307692,,,,,,,,
181563,note_on,60,0,12,,,,,,,,,11,,,,66,102
181565,note_on,0,0,3,,,,,,,,,2,,,,71,101
181565,note_on,0,0,3,,,,,,,,,2,,,,68,101
181565,note_on,0,0,3,,,,,,,,,2,,,,69,0
181565,note_on,120,0,3,,,,,,,,,2,,,,73,0
181569,note_on,0,0,4,,,,,,,,,3,,,,56,100
181569,note_on,0,0,4,,,,,,,,,3,,,,59,100
181569,note_on,120,0,4,,,,,,,,,3,,,,57,0
181569,note_on,0,0,4,,,,,,,,,3,,,,61,0
181620,note_on,60,0,11,,,,,,,,,10,,,,69,0
181623,note_on,60,0,12,,,,,,,,,11,,,,66,0
181634,note_on,300,0,15,,,,,,,,,14,,,,42,112
181680,set_tempo,120,1,0,,,,,,330579,,,,,,,,
181680,note_on,60,0,11,,,,,,,,,10,,,,73,102
181681,note_on,0,0,1,,,,,,,,,0,,,,85,0
181681,note_on,240,0,1,,,,,,,,,0,,,,90,0
181683,note_on,60,0,12,,,,,,,,,11,,,,69,102
181684,note_on,240,0,2,,,,,,,,,1,,,,81,0
181684,note_on,0,0,2,,,,,,,,,1,,,,78,0
181685,note_on,0,0,3,,,,,,,,,2,,,,66,101
181685,note_on,120,0,3,,,,,,,,,2,,,,68,0
181685,note_on,0,0,3,,,,,,,,,2,,,,71,0
181685,note_on,0,0,3,,,,,,,,,2,,,,69,101
181687,note_on,240,0,8,,,,,,,,,7,,,,54,0
181687,note_on,0,0,8,,,,,,,,,7,,,,66,0
181687,note_on,0,0,8,,,,,,,,,7,,,,66,110
181687,note_on,0,0,8,,,,,,,,,7,,,,54,110
181688,note_on,240,0,13,,,,,,,,,12,,,,61,0
181689,note_on,120,0,4,,,,,,,,,3,,,,59,0
181689,note_on,0,0,4,,,,,,,,,3,,,,57,100
181689,note_on,0,0,4,,,,,,,,,3,,,,56,0
181689,note_on,0,0,4,,,,,,,,,3,,,,54,100
181692,note_on,240,0,14,,,,,,,,,13,,,,57,0
181694,note_on,60,0,15,,,,,,,,,14,,,,42,0
181694,note_on,0,0,15,,,,,,,,,14,,,,42,112
181740,note_on,60,0,11,,,,,,,,,10,,,,73,0
181743,note_on,60,0,12,,,,,,,,,11,,,,69,0
181800,note_on,0,0,11,,,,,,,,,10,,,,74,102
181800,set_tempo,120,1,0,,,,,,291262,,,,,,,,
181800,note_on,60,0,11,,,,,,,,,10,,,,66,102
181803,note_on,60,0,12,,,,,,,,,11,,,,71,102
181805,note_on,0,0,3,,,,,,,,,2,,,,74,101
181805,note_on,120,0,3,,,,,,,,,2,,,,66,0
181805,note_on,0,0,3,,,,,,,,,2,,,,71,101
181805,note_on,0,0,3,,,,,,,,,2,,,,69,0
181807,note_on,0,0,8,,,,,,,,,7,,,,66,0
181807,note_on,0,0,8,,,,,,,,,7,,,,54,110
181807,note_on,120,0,8,,,,,,,,,7,,,,54,0
181807,note_on,0,0,8,,,,,,,,,7,,,,66,110
181809,note_on,0,0,4,,,,,,,,,3,,,,62,100
181809,note_on,0,0,4,,,,,,,,,3,,,,54,0
181809,note_on,0,0,4,,,,,,,,,3,,,,59,100
181809,note_on,120,0,4,,,,,,,,,3,,,,57,0
181814,note_on,120,0,15,,,,,,,,,14,,,,42,0
181814,note_on,0,0,15,,,,,,,,,14,,,,35,112
181920,set_tempo,120,1,0,,,,,,307692,,,,,,,,
181928,note_on,240,0,13,,,,,,,,,12,,,,54,112
181932,note_on,240,0,14,,,,,,,,,13,,,,50,112
181981,note_on,0,0,1,,,,,,,,,0,,,,90,101
181981,note_on,300,0,1,,,,,,,,,0,,,,86,101
181984,note_on,300,0,2,,,,,,,,,1,,,,78,100
181984,note_on,0,0,2,,,,,,,,,1,,,,83,100
181988,note_on,60,0,13,,,,,,,,,12,,,,54,0
181992,note_on,60,0,14,,,,,,,,,13,,,,50,0
182011,note_on,0,0,1,,,,,,,,,0,,,,86,0
182011,note_on,30,0,1,,,,,,,,,0,,,,90,0
182014,note_on,30,0,2,,,,,,,,,1,,,,83,0
182014,note_on,0,0,2,,,,,,,,,1,,,,78,0
182040,note_on,0,0,11,,,,,,,,,10,,,,66,0
182040,note_on,240,0,11,,,,,,,,,10,,,,74,0
182040,set_tempo,120,1,0,,,,,,330579,,,,,,,,
182041,note_on,30,0,1,,,,,,,,,0,,,,86,101
182041,note_on,0,0,1,,,,,,,,,0,,,,90,101
182043,note_on,240,0,12,,,,,,,,,11,,,,71,0
182044,note_on,0,0,2,,,,,,,,,1,,,,83,100
182044,note_on,30,0,2,,,,,,,,,1,,,,78,100
182048,note_on,60,0,13,,,,,,,,,12,,,,59,112
182052,note_on,60,0,14,,,,,,,,,13,,,,54,112
182054,note_on,240,0,15,,,,,,,,,14,,,,35,0
182101,note_on,60,0,1,,,,,,,,,0,,,,90,0
182101,note_on,0,0,1,,,,,,,,,0,,,,86,0
182104,note_on,0,0,2,,,,,,,,,1,,,,78,0
182104,note_on,60,0,2,,,,,,,,,1,,,,83,0
182108,note_on,60,0,13,,,,,,,,,12,,,,59,0
182112,note_on,60,0,14,,,,,,,,,13,,,,54,0
182160,set_tempo,120,1,0,,,,,,291262,,,,,,,,
182160,note_on,120,0,11,,,,,,,,,10,,,,66,102
182161,note_on,60,0,1,,,,,,,,,0,,,,90,116
182161,note_on,0,0,1,,,,,,,,,0,,,,86,116
182163,note_on,120,0,12,,,,,,,,,11,,,,62,102
182164,note_on,0,0,2,,,,,,,,,1,,,,78,115
182164,note_on,60,0,2,,,,,,,,,1,,,,83,115
182168,note_on,60,0,13,,,,,,,,,12,,,,62,112
182172,note_on,60,0,14,,,,,,,,,13,,,,59,112
182220,note_on,60,0,11,,,,,,,,,10,,,,66,0
182223,note_on,60,0,12,,,,,,,,,11,,,,62,0
182280,note_on,60,0,11,,,,,,,,,10,,,,71,102
182280,set_tempo,120,1,0,,,,,,307692,,,,,,,,
182283,note_on,60,0,12,,,,,,,,,11,,,,66,102
182340,note_on,60,0,11,,,,,,,,,10,,,,71,0
182343,note_on,60,0,12,,,,,,,,,11,,,,66,0
182354,note_on,300,0,15,,,,,,,,,14,,,,35,112
182400,note_on,60,0,11,,,,,,,,,10,,,,74,102
182400,set_tempo,120,1,0,,,,,,330579,,,,,,,,
182401,note_on,0,0,1,,,,,,,,,0,,,,90,0
182401,note_on,240,0,1,,,,,,,,,0,,,,86,0
182403,note_on,60,0,12,,,,,,,,,11,,,,71,102
182404,note_on,0,0,2,,,,,,,,,1,,,,83,0
182404,note_on,240,0,2,,,,,,,,,1,,,,78,0
182408,note_on,240,0,13,,,,,,,,,12,,,,62,0
182412,note_on,240,0,14,,,,,,,,,13,,,,59,0
182414,note_on,0,0,15,,,,,,,,,14,,,,38,112
182414,note_on,60,0,15,,,,,,,,,14,,,,35,0
182460,note_on,60,0,11,,,,,,,,,10,,,,74,0
182463,note_on,60,0,12,,,,,,,,,11,,,,71,0
182520,note_on,60,0,11,,,,,,,,,10,,,,66,102
182520,note_on,0,0,11,,,,,,,,,10,,,,73,102
182520,set_tempo,120,1,0,,,,,,291262,,,,,,,,
182523,note_on,60,0,12,,,,,,,,,11,,,,69,102
182525,note_on,0,0,3,,,,,,,,,2,,,,69,101
182525,note_on,0,0,3,,,,,,,,,2,,,,73,101
182525,note_on,720,0,3,,,,,,,,,2,,,,74,0
182525,note_on,0,0,3,,,,,,,,,2,,,,71,0
182529,note_on,0,0,4,,,,,,,,,3,,,,59,0
182529,note_on,0,0,4,,,,,,,,,3,,,,61,100
182529,note_on,0,0,4,,,,,,,,,3,,,,57,100
182529,note_on,720,0,4,,,,,,,,,3,,,,62,0
182534,note_on,0,0,15,,,,,,,,,14,,,,42,112
182534,note_on,120,0,15,,,,,,,,,14,,,,38,0
182640,set_tempo,120,1,0,,,,,,307692,,,,,,,,
182648,note_on,240,0,13,,,,,,,,,12,,,,54,112
182652,note_on,240,0,14,,,,,,,,,13,,,,49,112
182701,note_on,300,0,1,,,,,,,,,0,,,,90,101
182701,note_on,0,0,1,,,,,,,,,0,,,,85,101
182704,note_on,300,0,2,,,,,,,,,1,,,,81,100
182704,note_on,0,0,2,,,,,,,,,1,,,,78,100
182708,note_on,60,0,13,,,,,,,,,12,,,,54,0
182712,note_on,60,0,14,,,,,,,,,13,,,,49,0
182731,note_on,30,0,1,,,,,,,,,0,,,,85,0
182731,note_on,0,0,1,,,,,,,,,0,,,,90,0
182734,note_on,30,0,2,,,,,,,,,1,,,,78,0
182734,note_on,0,0,2,,,,,,,,,1,,,,81,0
182760,note_on,240,0,11,,,,,,,,,10,,,,73,0
182760,set_tempo,120,1,0,,,,,,330579,,,,,,,,
182760,note_on,0,0,11,,,,,,,,,10,,,,66,0
182761,note_on,0,0,1,,,,,,,,,0,,,,90,101
182761,note_on,30,0,1,,,,,,,,,0,,,,85,101
182763,note_on,240,0,12,,,,,,,,,11,,,,69,0
182764,note_on,0,0,2,,,,,,,,,1,,,,81,100
182764,note_on,30,0,2,,,,,,,,,1,,,,78,100
182768,note_on,60,0,13,,,,,,,,,12,,,,57,112
182772,note_on,60,0,14,,,,,,,,,13,,,,54,112
182774,note_on,240,0,15,,,,,,,,,14,,,,42,0
182821,note_on,60,0,1,,,,,,,,,0,,,,90,0
182821,note_on,0,0,1,,,,,,,,,0,,,,85,0
182824,note_on,60,0,2,,,,,,,,,1,,,,81,0
182824,note_on,0,0,2,,,,,,,,,1,,,,78,0
182828,note_on,60,0,13,,,,,,,,,12,,,,57,0
182832,note_on,60,0,14,,,,,,,,,13,,,,54,0
182880,set_tempo,120,1,0,,,,,,291262,,,,,,,,
182880,note_on,120,0,11,,,,,,,,,10,,,,61,102
182881,note_on,60,0,1,,,,,,,,,0,,,,85,116
182881,note_on,0,0,1,,,,,,,,,0,,,,90,116
182883,note_on,120,0,12,,,,,,,,,11,,,,57,102
182884,note_on,60,0,2,,,,,,,,,1,,,,78,115
182884,note_on,0,0,2,,,,,,,,,1,,,,81,115
182887,note_on,1080,0,8,,,,,,,,,7,,,,54,0
182887,note_on,0,0,8,,,,,,,,,7,,,,54,110
182887,note_on,0,0,8,,,,,,,,,7,,,,66,0
182887,note_on,0,0,8,,,,,,,,,7,,,,66,110
182888,note_on,60,0,13,,,,,,,,,12,,,,61,112
182892,note_on,60,0,14,,,,,,,,,13,,,,57,112
182940,note_on,60,0,11,,,,,,,,,10,,,,61,0
182943,note_on,60,0,12,,,,,,,,,11,,,,57,0
183000,note_on,60,0,11,,,,,,,,,10,,,,66,102
183000,set_tempo,120,1,0,,,,,,307692,,,,,,,,
183003,note_on,60,0,12,,,,,,,,,11,,,,61,102
183005,note_on,0,0,3,,,,,,,,,2,,,,73,0
183005,note_on,480,0,3,,,,,,,,,2,,,,69,0
183007,note_on,0,0,8,,,,,,,,,7,,,,66,0
183007,note_on,120,0,8,,,,,,,,,7,,,,54,0
183009,note_on,0,0,4,,,,,,,,,3,,,,61,0
183009,note_on,480,0,4,,,,,,,,,3,,,,57,0
183060,note_on,60,0,11,,,,,,,,,10,,,,66,0
183063,note_on,60,0,12,,,,,,,,,11,,,,61,0
183074,note_on,300,0,15,,,,,,,,,14,,,,42,112
183120,set_tempo,120,1,0,,,,,,330579,,,,,,,,
183120,note_on,60,0,11,,,,,,,,,10,,,,69,102
183121,note_on,0,0,1,,,,,,,,,0,,,,85,0
183121,note_on,240,0,1,,,,,,,,,0,,,,90,0
183123,note_on,60,0,12,,,,,,,,,11,,,,66,102
183124,note_on,240,0,2,,,,,,,,,1,,,,81,0
183124,note_on,0,0,2,,,,,,,,,1,,,,78,0
183125,note_on,0,0,3,,,,,,,,,2,,,,73,101
183125,note_on,120,0,3,,,,,,,,,2,,,,69,101
183127,note_on,0,0,8,,,,,,,,,7,,,,66,110
183127,note_on,120,0,8,,,,,,,,,7,,,,54,110
183128,note_on,240,0,13,,,,,,,,,12,,,,61,0
183129,note_on,120,0,4,,,,,,,,,3,,,,61,100
183129,note_on,0,0,4,,,,,,,,,3,,,,57,100
183132,note_on,240,0,14,,,,,,,,,13,,,,57,0
183134,note_on,60,0,15,,,,,,,,,14,,,,42,0
183134,note_on,0,0,15,,,,,,,,,14,,,,40,112
183180,note_on,60,0,11,,,,,,,,,10,,,,69,0
183183,note_on,60,0,12,,,,,,,,,11,,,,66,0
183240,control_change,60,0,11,,,,,,,,,10,11,41,,,
183240,note_on,0,0,11,,,,,,,,,10,,,,72,102
183240,set_tempo,120,1,0,,,,,,291262,,,,,,,,
183243,control_change,60,0,12,,,,,,,,,11,11,41,,,
183243,note_on,0,0,12,,,,,,,,,11,,,,66,102
183243,note_on,0,0,12,,,,,,,,,11,,,,69,102
183245,note_on,0,0,3,,,,,,,,,2,,,,72,101
183245,note_on,0,0,3,,,,,,,,,2,,,,69,101
183245,note_on,0,0,3,,,,,,,,,2,,,,69,0
183245,note_on,120,0,3,,,,,,,,,2,,,,73,0
183245,control_change,0,0,3,,,,,,,,,2,11,74,,,
183247,note_on,0,0,8,,,,,,,,,7,,,,66,110
183247,note_on,0,0,8,,,,,,,,,7,,,,54,110
183247,control_change,7,0,11,,,,,,,,,10,11,46,,,
183247,control_change,0,0,8,,,,,,,,,7,11,37,,,
183247,note_on,0,0,8,,,,,,,,,7,,,,54,0
183247,note_on,120,0,8,,,,,,,,,7,,,,66,0
183249,note_on,0,0,4,,,,,,,,,3,,,,57,100
183249,note_on,0,0,4,,,,,,,,,3,,,,60,100
183249,note_on,120,0,4,,,,,,,,,3,,,,57,0
183249,note_on,0,0,4,,,,,,,,,3,,,,61,0
183249,control_change,0,0,4,,,,,,,,,3,11,82,,,
183250,control_change,7,0,12,,,,,,,,,11,11,46,,,
183250,control_change,3,0,11,,,,,,,,,10,11,49,,,
183251,control_change,4,0,8,,,,,,,,,7,11,61,,,
183252,note_on,0,0,14,,,,,,,,,13,,,,51,112
183252,control_change,120,0,14,,,,,,,,,13,11,41,,,
183253,control_change,3,0,12,,,,,,,,,11,11,49,,,
183254,note_on,120,0,15,,,,,,,,,14,,,,40,0
183254,control_change,0,0,15,,,,,,,,,14,11,41,,,
183254,note_on,0,0,15,,,,,,,,,14,,,,39,112
183254,control_change,4,0,11,,,,,,,,,10,11,52,,,
183257,control_change,4,0,12,,,,,,,,,11,11,52,,,
183258,control_change,4,0,11,,,,,,,,,10,11,55,,,
183259,control_change,7,0,14,,,,,,,,,13,11,46,,,
183261,control_change,4,0,12,,,,,,,,,11,11,55,,,
183261,control_change,7,0,15,,,,,,,,,14,11,46,,,
183262,control_change,3,0,14,,,,,,,,,13,11,49,,,
183263,control_change,18,0,3,,,,,,,,,2,11,72,,,
183264,control_change,3,0,15,,,,,,,,,14,11,49,,,
183265,control_change,7,0,11,,,,,,,,,10,11,60,,,
183266,control_change,4,0,14,,,,,,,,,13,11,52,,,
183266,control_change,15,0,8,,,,,,,,,7,11,58,,,
183267,control_change,18,0,4,,,,,,,,,3,11,79,,,
183268,control_change,4,0,15,,,,,,,,,14,11,52,,,
183268,control_change,7,0,12,,,,,,,,,11,11,60,,,
183268,control_change,3,0,11,,,,,,,,,10,11,63,,,
183270,control_change,4,0,14,,,,,,,,,13,11,55,,,
183271,control_change,3,0,12,,,,,,,,,11,11,63,,,
183272,control_change,4,0,15,,,,,,,,,14,11,55,,,
183277,control_change,7,0,14,,,,,,,,,13,11,60,,,
183279,control_change,7,0,15,,,,,,,,,14,11,60,,,
183280,control_change,3,0,14,,,,,,,,,13,11,63,,,
183280,control_change,14,0,8,,,,,,,,,7,11,55,,,
183281,control_change,18,0,3,,,,,,,,,2,11,70,,,
183282,control_change,3,0,15,,,,,,,,,14,11,63,,,
183285,control_change,18,0,4,,,,,,,,,3,11,76,,,
183286,control_change,18,0,11,,,,,,,,,10,11,62,,,
183289,control_change,18,0,12,,,,,,,,,11,11,62,,,
183295,control_change,15,0,8,,,,,,,,,7,11,52,,,
183298,control_change,18,0,14,,,,,,,,,13,11,62,,,
183299,control_change,18,0,3,,,,,,,,,2,11,67,,,
183300,control_change,18,0,15,,,,,,,,,14,11,62,,,
183303,control_change,18,0,4,,,,,,,,,3,11,73,,,
183303,control_change,17,0,11,,,,,,,,,10,11,60,,,
183306,control_change,17,0,12,,,,,,,,,11,11,60,,,
183309,control_change,14,0,8,,,,,,,,,7,11,49,,,
183312,note_on,14,0,14,,,,,,,,,13,,,,51,0
183315,control_change,3,0,14,,,,,,,,,13,11,60,,,
183317,control_change,17,0,15,,,,,,,,,14,11,60,,,
183317,control_change,18,0,3,,,,,,,,,2,11,65,,,
183320,control_change,17,0,11,,,,,,,,,10,11,58,,,
183321,control_change,18,0,4,,,,,,,,,3,11,70,,,
183323,control_change,14,0,8,,,,,,,,,7,11,46,,,
183323,control_change,17,0,12,,,,,,,,,11,11,58,,,
183332,control_change,17,0,14,,,,,,,,,13,11,58,,,
183334,control_change,17,0,15,,,,,,,,,14,11,58,,,
183335,control_change,18,0,3,,,,,,,,,2,11,63,,,
183337,control_change,17,0,11,,,,,,,,,10,11,57,,,
183338,control_change,15,0,8,,,,,,,,,7,11,43,,,
183339,control_change,18,0,4,,,,,,,,,3,11,67,,,
183340,control_change,17,0,12,,,,,,,,,11,11,57,,,
183349,control_change,17,0,14,,,,,,,,,13,11,57,,,
183351,control_change,17,0,15,,,,,,,,,14,11,57,,,
183352,control_change,14,0,8,,,,,,,,,7,11,40,,,
183353,control_change,18,0,3,,,,,,,,,2,11,61,,,
183354,control_change,17,0,11,,,,,,,,,10,11,55,,,
183357,control_change,18,0,4,,,,,,,,,3,11,64,,,
183357,control_change,17,0,12,,,,,,,,,11,11,55,,,
183360,set_tempo,120,1,0,,,,,,307692,,,,,,,,
183366,control_change,17,0,14,,,,,,,,,13,11,55,,,
183367,control_change,15,0,8,,,,,,,,,7,11,37,,,
183368,control_change,17,0,15,,,,,,,,,14,11,55,,,
183368,note_on,240,0,13,,,,,,,,,12,,,,57,112
183370,control_change,16,0,11,,,,,,,,,10,11,53,,,
183372,note_on,6,0,14,,,,,,,,,13,,,,54,112
183373,control_change,16,0,12,,,,,,,,,11,11,53,,,
183382,control_change,10,0,14,,,,,,,,,13,11,53,,,
183384,control_change,16,0,15,,,,,,,,,14,11,53,,,
183387,control_change,17,0,11,,,,,,,,,10,11,51,,,
183390,control_change,17,0,12,,,,,,,,,11,11,51,,,
183399,control_change,17,0,14,,,,,,,,,13,11,51,,,
183401,control_change,17,0,15,,,,,,,,,14,11,51,,,
183404,control_change,17,0,11,,,,,,,,,10,11,49,,,
183407,control_change,17,0,12,,,,,,,,,11,11,49,,,
183416,control_change,17,0,14,,,,,,,,,13,11,49,,,
183418,control_change,17,0,15,,,,,,,,,14,11,49,,,
183421,control_change,17,0,11,,,,,,,,,10,11,47,,,
183421,note_on,0,0,1,,,,,,,,,0,,,,84,101
183421,note_on,300,0,1,,,,,,,,,0,,,,90,101
183424,note_on,0,0,2,,,,,,,,,1,,,,81,100
183424,note_on,300,0,2,,,,,,,,,1,,,,84,100
183424,control_change,17,0,12,,,,,,,,,11,11,47,,,
183428,note_on,60,0,13,,,,,,,,,12,,,,57,0
183432,note_on,16,0,14,,,,,,,,,13,,,,54,0
183433,control_change,1,0,14,,,,,,,,,13,11,47,,,
183435,control_change,17,0,15,,,,,,,,,14,11,47,,,
183438,control_change,17,0,11,,,,,,,,,10,11,45,,,
183441,control_change,17,0,12,,,,,,,,,11,11,45,,,
183450,control_change,17,0,14,,,,,,,,,13,11,45,,,
183451,note_on,30,0,1,,,,,,,,,0,,,,84,0
183451,note_on,0,0,1,,,,,,,,,0,,,,90,0
183452,control_change,17,0,15,,,,,,,,,14,11,45,,,
183454,note_on,0,0,2,,,,,,,,,1,,,,84,0
183454,note_on,30,0,2,,,,,,,,,1,,,,81,0
183454,control_change,16,0,11,,,,,,,,,10,11,43,,,
183457,control_change,16,0,12,,,,,,,,,11,11,43,,,
183466,control_change,16,0,14,,,,,,,,,13,11,43,,,
183468,control_change,16,0,15,,,,,,,,,14,11,43,,,
183471,control_change,17,0,11,,,,,,,,,10,11,42,,,
183474,control_change,17,0,12,,,,,,,,,11,11,42,,,
183480,set_tempo,120,1,0,,,,,,330579,,,,,,,,
183480,note_on,9,0,11,,,,,,,,,10,,,,72,0
183481,note_on,0,0,1,,,,,,,,,0,,,,84,101
183481,note_on,30,0,1,,,,,,,,,0,,,,90,101
183483,control_change,17,0,14,,,,,,,,,13,11,42,,,
183483,note_on,0,0,12,,,,,,,,,11,,,,66,0
183483,note_on,9,0,12,,,,,,,,,11,,,,69,0
183484,note_on,0,0,2,,,,,,,,,1,,,,81,100
183484,note_on,30,0,2,,,,,,,,,1,,,,84,100
183485,control_change,17,0,15,,,,,,,,,14,11,42,,,
183488,note_on,60,0,13,,,,,,,,,12,,,,60,112
183492,note_on,9,0,14,,,,,,,,,13,,,,57,112
183494,note_on,9,0,15,,,,,,,,,14,,,,39,0
183541,note_on,0,0,1,,,,,,,,,0,,,,90,0
183541,note_on,60,0,1,,,,,,,,,0,,,,84,0
183544,note_on,0,0,2,,,,,,,,,1,,,,84,0
183544,note_on,60,0,2,,,,,,,,,1,,,,81,0
183548,note_on,60,0,13,,,,,,,,,12,,,,60,0
183552,note_on,60,0,14,,,,,,,,,13,,,,57,0
183600,set_tempo,120,1,0,,,,,,291262,,,,,,,,
183600,note_on,120,0,11,,,,,,,,,10,,,,66,102
183601,note_on,0,0,1,,,,,,,,,0,,,,84,116
183601,note_on,60,0,1,,,,,,,,,0,,,,90,116
183603,note_on,120,0,12,,,,,,,,,11,,,,61,102
183604,note_on,60,0,2,,,,,,,,,1,,,,84,115
183604,note_on,0,0,2,,,,,,,,,1,,,,81,115
183608,note_on,60,0,13,,,,,,,,,12,,,,66,112
183612,note_on,60,0,14,,,,,,,,,13,,,,60,112
183660,note_on,60,0,11,,,,,,,,,10,,,,66,0
183663,note_on,60,0,12,,,,,,,,,11,,,,61,0
183720,set_tempo,120,1,0,,,,,,307692,,,,,,,,
183720,note_on,60,0,11,,,,,,,,,10,,,,69,102
183723,note_on,60,0,12,,,,,,,,,11,,,,66,102
183780,note_on,60,0,11,,,,,,,,,10,,,,69,0
183783,note_on,60,0,12,,,,,,,,,11,,,,66,0
183794,note_on,300,0,15,,,,,,,,,14,,,,39,112
183840,set_tempo,120,1,0,,,,,,330579,,,,,,,,
183840,note_on,60,0,11,,,,,,,,,10,,,,72,102
183841,note_on,240,0,1,,,,,,,,,0,,,,84,0
183841,note_on,0,0,1,,,,,,,,,0,,,,90,0
183843,note_on,60,0,12,,,,,,,,,11,,,,69,102
183844,note_on,240,0,2,,,,,,,,,1,,,,81,0
183844,note_on,0,0,2,,,,,,,,,1,,,,84,0
183848,note_on,240,0,13,,,,,,,,,12,,,,66,0
183852,note_on,240,0,14,,,,,,,,,13,,,,60,0
183854,note_on,60,0,15,,,,,,,,,14,,,,39,0
183854,note_on,0,0,15,,,,,,,,,14,,,,39,112
183900,note_on,60,0,11,,,,,,,,,10,,,,72,0
183903,note_on,60,0,12,,,,,,,,,11,,,,69,0
183960,note_on,60,0,11,,,,,,,,,10,,,,71,102
183960,set_tempo,120,1,0,,,,,,291262,,,,,,,,
183963,note_on,60,0,12,,,,,,,,,11,,,,68,102
183963,note_on,0,0,12,,,,,,,,,11,,,,59,102
183965,note_on,0,0,3,,,,,,,,,2,,,,69,0
183965,note_on,0,0,3,,,,,,,,,2,,,,71,101
183965,note_on,612,0,3,,,,,,,,,2,,,,72,0
183965,note_on,0,0,3,,,,,,,,,2,,,,68,101
183967,note_on,600,0,8,,,,,,,,,7,,,,54,0
183967,note_on,0,0,8,,,,,,,,,7,,,,66,0
183967,note_on,0,0,8,,,,,,,,,7,,,,59,110
183967,note_on,0,0,8,,,,,,,,,7,,,,56,110
183969,note_on,0,0,4,,,,,,,,,3,,,,57,0
183969,note_on,612,0,4,,,,,,,,,3,,,,60,0
183969,note_on,0,0,4,,,,,,,,,3,,,,56,100
183969,note_on,0,0,4,,,,,,,,,3,,,,59,100
183972,note_on,120,0,14,,,,,,,,,13,,,,40,112
183974,note_on,0,0,15,,,,,,,,,14,,,,40,112
183974,note_on,120,0,15,,,,,,,,,14,,,,39,0
184032,note_on,60,0,14,,,,,,,,,13,,,,40,0
184080,set_tempo,120,1,0,,,,,,307692,,,,,,,,
184085,note_on,120,0,3,,,,,,,,,2,,,,71,0
184085,note_on,0,0,3,,,,,,,,,2,,,,68,0
184085,note_on,0,0,3,,,,,,,,,2,,,,78,101
184087,note_on,0,0,8,,,,,,,,,7,,,,56,0
184087,note_on,120,0,8,,,,,,,,,7,,,,59,0
184088,note_on,240,0,13,,,,,,,,,12,,,,56,112
184089,note_on,0,0,4,,,,,,,,,3,,,,59,0
184089,note_on,120,0,4,,,,,,,,,3,,,,56,0
184089,note_on,0,0,4,,,,,,,,,3,,,,66,100
184092,note_on,60,0,14,,,,,,,,,13,,,,52,112
184141,note_on,0,0,1,,,,,,,,,0,,,,83,101
184141,note_on,300,0,1,,,,,,,,,0,,,,88,101
184144,note_on,0,0,2,,,,,,,,,1,,,,80,100
184144,note_on,300,0,2,,,,,,,,,1,,,,76,100
184148,note_on,60,0,13,,,,,,,,,12,,,,56,0
184152,note_on,60,0,14,,,,,,,,,13,,,,52,0
184171,note_on,30,0,1,,,,,,,,,0,,,,83,0
184171,note_on,0,0,1,,,,,,,,,0,,,,88,0
184174,note_on,30,0,2,,,,,,,,,1,,,,80,0
184174,note_on,0,0,2,,,,,,,,,1,,,,76,0
184200,set_tempo,120,1,0,,,,,,330579,,,,,,,,
184200,note_on,240,0,11,,,,,,,,,10,,,,71,0
184201,note_on,30,0,1,,,,,,,,,0,,,,88,101
184201,note_on,0,0,1,,,,,,,,,0,,,,83,101
184203,note_on,0,0,12,,,,,,,,,11,,,,68,0
184203,note_on,240,0,12,,,,,,,,,11,,,,59,0
184204,note_on,0,0,2,,,,,,,,,1,,,,76,100
184204,note_on,30,0,2,,,,,,,,,1,,,,80,100
184205,note_on,0,0,3,,,,,,,,,2,,,,76,101
184205,note_on,120,0,3,,,,,,,,,2,,,,78,0
184208,note_on,60,0,13,,,,,,,,,12,,,,59,112
184209,note_on,120,0,4,,,,,,,,,3,,,,66,0
184209,note_on,0,0,4,,,,,,,,,3,,,,64,100
184212,note_on,60,0,14,,,,,,,,,13,,,,56,112
184214,note_on,240,0,15,,,,,,,,,14,,,,40,0
184261,note_on,0,0,1,,,,,,,,,0,,,,88,0
184261,note_on,60,0,1,,,,,,,,,0,,,,83,0
184264,note_on,60,0,2,,,,,,,,,1,,,,76,0
184264,note_on,0,0,2,,,,,,,,,1,,,,80,0
184268,note_on,60,0,13,,,,,,,,,12,,,,59,0
184272,note_on,60,0,14,,,,,,,,,13,,,,56,0
184320,note_on,120,0,11,,,,,,,,,10,,,,64,102
184320,set_tempo,120,1,0,,,,,,291262,,,,,,,,
184321,note_on,0,0,1,,,,,,,,,0,,,,86,116
184321,note_on,60,0,1,,,,,,,,,0,,,,88,116
184323,note_on,120,0,12,,,,,,,,,11,,,,59,102
184324,note_on,0,0,2,,,,,,,,,1,,,,76,115
184324,note_on,60,0,2,,,,,,,,,1,,,,83,115
184325,note_on,120,0,3,,,,,,,,,2,,,,76,0
184325,note_on,0,0,3,,,,,,,,,2,,,,74,101
184328,note_on,60,0,13,,,,,,,,,12,,,,64,112
184329,note_on,0,0,4,,,,,,,,,3,,,,62,100
184329,note_on,120,0,4,,,,,,,,,3,,,,64,0
184332,note_on,60,0,14,,,,,,,,,13,,,,59,112
184380,note_on,60,0,11,,,,,,,,,10,,,,64,0
184383,note_on,60,0,12,,,,,,,,,11,,,,59,0
184440,set_tempo,120,1,0,,,,,,307692,,,,,,,,
184440,note_on,60,0,11,,,,,,,,,10,,,,68,102
184443,note_on,60,0,12,,,,,,,,,11,,,,64,102
184445,note_on,0,0,3,,,,,,,,,2,,,,73,101
184445,note_on,120,0,3,,,,,,,,,2,,,,74,0
184449,note_on,0,0,4,,,,,,,,,3,,,,61,100
184449,note_on,120,0,4,,,,,,,,,3,,,,62,0
184500,note_on,60,0,11,,,,,,,,,10,,,,68,0
184503,note_on,60,0,12,,,,,,,,,11,,,,64,0
184514,note_on,300,0,15,,,,,,,,,14,,,,40,112
184560,note_on,60,0,11,,,,,,,,,10,,,,71,102
184560,set_tempo,120,1,0,,,,,,330579,,,,,,,,
184561,note_on,0,0,1,,,,,,,,,0,,,,88,0
184561,note_on,240,0,1,,,,,,,,,0,,,,86,0
184563,note_on,60,0,12,,,,,,,,,11,,,,68,102
184564,note_on,0,0,2,,,,,,,,,1,,,,83,0
184564,note_on,240,0,2,,,,,,,,,1,,,,76,0
184565,note_on,120,0,3,,,,,,,,,2,,,,73,0
184565,note_on,0,0,3,,,,,,,,,2,,,,71,101
184567,note_on,0,0,8,,,,,,,,,7,,,,64,110
184567,note_on,480,0,8,,,,,,,,,7,,,,52,110
184568,note_on,240,0,13,,,,,,,,,12,,,,64,0
184569,note_on,120,0,4,,,,,,,,,3,,,,61,0
184569,note_on,0,0,4,,,,,,,,,3,,,,56,100
184569,note_on,0,0,4,,,,,,,,,3,,,,59,100
184572,note_on,240,0,14,,,,,,,,,13,,,,59,0
184574,note_on,0,0,15,,,,,,,,,14,,,,40,112
184574,note_on,60,0,15,,,,,,,,,14,,,,40,0
184620,note_on,60,0,11,,,,,,,,,10,,,,71,0
184623,note_on,60,0,12,,,,,,,,,11,,,,68,0
184680,note_on,60,0,11,,,,,,,,,10,,,,72,102
184680,control_change,0,0,11,,,,,,,,,10,11,41,,,
184680,set_tempo,120,1,0,,,,,,291262,,,,,,,,
184683,note_on,0,0,12,,,,,,,,,11,,,,69,102
184683,control_change,60,0,12,,,,,,,,,11,11,41,,,
184683,note_on,0,0,12,,,,,,,,,11,,,,66,102
184685,note_on,120,0,3,,,,,,,,,2,,,,71,0
184685,note_on,0,0,3,,,,,,,,,2,,,,69,101
184685,control_change,0,0,3,,,,,,,,,2,11,70,,,
184685,note_on,0,0,3,,,,,,,,,2,,,,72,101
184687,control_change,0,0,8,,,,,,,,,7,11,57,,,
184687,note_on,0,0,8,,,,,,,,,7,,,,54,110
184687,control_change,7,0,11,,,,,,,,,10,11,46,,,
184687,note_on,120,0,8,,,,,,,,,7,,,,64,0
184687,note_on,0,0,8,,,,,,,,,7,,,,52,0
184687,note_on,0,0,8,,,,,,,,,7,,,,66,110
184689,note_on,0,0,4,,,,,,,,,3,,,,57,100
184689,note_on,0,0,4,,,,,,,,,3,,,,60,100
184689,note_on,0,0,4,,,,,,,,,3,,,,56,0
184689,note_on,120,0,4,,,,,,,,,3,,,,59,0
184689,control_change,0,0,4,,,,,,,,,3,11,77,,,
184690,control_change,7,0,12,,,,,,,,,11,11,46,,,
184690,control_change,3,0,11,,,,,,,,,10,11,49,,,
184692,note_on,0,0,14,,,,,,,,,13,,,,51,112
184692,control_change,120,0,14,,,,,,,,,13,11,41,,,
184693,control_change,3,0,12,,,,,,,,,11,11,49,,,
184694,note_on,120,0,15,,,,,,,,,14,,,,40,0
184694,control_change,4,0,11,,,,,,,,,10,11,52,,,
184694,control_change,0,0,15,,,,,,,,,14,11,41,,,
184694,note_on,0,0,15,,,,,,,,,14,,,,39,112
184697,control_change,4,0,12,,,,,,,,,11,11,52,,,
184698,control_change,4,0,11,,,,,,,,,10,11,55,,,
184699,control_change,7,0,14,,,,,,,,,13,11,46,,,
184701,control_change,16,0,3,,,,,,,,,2,11,69,,,
184701,control_change,7,0,15,,,,,,,,,14,11,46,,,
184701,control_change,4,0,12,,,,,,,,,11,11,55,,,
184702,control_change,3,0,14,,,,,,,,,13,11,49,,,
184704,control_change,3,0,15,,,,,,,,,14,11,49,,,
184705,control_change,7,0,11,,,,,,,,,10,11,60,,,
184705,control_change,18,0,8,,,,,,,,,7,11,54,,,
184705,control_change,16,0,4,,,,,,,,,3,11,75,,,
184706,control_change,4,0,14,,,,,,,,,13,11,52,,,
184708,control_change,7,0,12,,,,,,,,,11,11,60,,,
184708,control_change,4,0,15,,,,,,,,,14,11,52,,,
184708,control_change,3,0,11,,,,,,,,,10,11,63,,,
184710,control_change,4,0,14,,,,,,,,,13,11,55,,,
184711,control_change,3,0,12,,,,,,,,,11,11,63,,,
184712,control_change,4,0,15,,,,,,,,,14,11,55,,,
184717,control_change,16,0,3,,,,,,,,,2,11,67,,,
184717,control_change,7,0,14,,,,,,,,,13,11,60,,,
184719,control_change,7,0,15,,,,,,,,,14,11,60,,,
184720,control_change,3,0,14,,,,,,,,,13,11,63,,,
184721,control_change,16,0,4,,,,,,,,,3,11,73,,,
184722,control_change,3,0,15,,,,,,,,,14,11,63,,,
184723,control_change,18,0,8,,,,,,,,,7,11,51,,,
184726,control_change,18,0,11,,,,,,,,,10,11,62,,,
184729,control_change,18,0,12,,,,,,,,,11,11,62,,,
184733,control_change,16,0,3,,,,,,,,,2,11,66,,,
184737,control_change,16,0,4,,,,,,,,,3,11,71,,,
184738,control_change,18,0,14,,,,,,,,,13,11,62,,,
184740,control_change,18,0,15,,,,,,,,,14,11,62,,,
184741,control_change,18,0,8,,,,,,,,,7,11,48,,,
184743,control_change,17,0,11,,,,,,,,,10,11,60,,,
184746,control_change,17,0,12,,,,,,,,,11,11,60,,,
184749,control_change,16,0,3,,,,,,,,,2,11,64,,,
184752,note_on,14,0,14,,,,,,,,,13,,,,51,0
184753,control_change,16,0,4,,,,,,,,,3,11,69,,,
184755,control_change,3,0,14,,,,,,,,,13,11,60,,,
184757,control_change,17,0,15,,,,,,,,,14,11,60,,,
184759,control_change,18,0,8,,,,,,,,,7,11,45,,,
184760,control_change,17,0,11,,,,,,,,,10,11,58,,,
184763,control_change,17,0,12,,,,,,,,,11,11,58,,,
184765,control_change,16,0,3,,,,,,,,,2,11,63,,,
184769,control_change,16,0,4,,,,,,,,,3,11,67,,,
184772,control_change,17,0,14,,,,,,,,,13,11,58,,,
184774,control_change,17,0,15,,,,,,,,,14,11,58,,,
184777,control_change,17,0,11,,,,,,,,,10,11,57,,,
184777,control_change,18,0,8,,,,,,,,,7,11,42,,,
184780,control_change,17,0,12,,,,,,,,,11,11,57,,,
184781,control_change,16,0,3,,,,,,,,,2,11,61,,,
184785,control_change,16,0,4,,,,,,,,,3,11,65,,,
184789,control_change,17,0,14,,,,,,,,,13,11,57,,,
184791,control_change,17,0,15,,,,,,,,,14,11,57,,,
184794,control_change,17,0,11,,,,,,,,,10,11,55,,,
184795,control_change,18,0,8,,,,,,,,,7,11,39,,,
184797,control_change,16,0,3,,,,,,,,,2,11,60,,,
184797,control_change,17,0,12,,,,,,,,,11,11,55,,,
184800,set_tempo,120,1,0,,,,,,307692,,,,,,,,
184801,control_change,16,0,4,,,,,,,,,3,11,63,,,
184806,control_change,17,0,14,,,,,,,,,13,11,55,,,
184808,note_on,240,0,13,,,,,,,,,12,,,,57,112
184808,control_change,17,0,15,,,,,,,,,14,11,55,,,
184810,control_change,16,0,11,,,,,,,,,10,11,53,,,
184812,note_on,6,0,14,,,,,,,,,13,,,,54,112
184813,control_change,16,0,12,,,,,,,,,11,11,53,,,
184822,control_change,10,0,14,,,,,,,,,13,11,53,,,
184824,control_change,16,0,15,,,,,,,,,14,11,53,,,
184827,control_change,17,0,11,,,,,,,,,10,11,51,,,
184830,control_change,17,0,12,,,,,,,,,11,11,51,,,
184839,control_change,17,0,14,,,,,,,,,13,11,51,,,
184841,control_change,17,0,15,,,,,,,,,14,11,51,,,
184844,control_change,17,0,11,,,,,,,,,10,11,49,,,
184847,control_change,17,0,12,,,,,,,,,11,11,49,,,
184856,control_change,17,0,14,,,,,,,,,13,11,49,,,
184858,control_change,17,0,15,,,,,,,,,14,11,49,,,
184861,control_change,17,0,11,,,,,,,,,10,11,47,,,
184861,note_on,300,0,1,,,,,,,,,0,,,,90,101
184861,note_on,0,0,1,,,,,,,,,0,,,,84,101
184864,note_on,0,0,2,,,,,,,,,1,,,,84,100
184864,control_change,17,0,12,,,,,,,,,11,11,47,,,
184864,note_on,300,0,2,,,,,,,,,1,,,,81,100
184868,note_on,60,0,13,,,,,,,,,12,,,,57,0
184872,note_on,16,0,14,,,,,,,,,13,,,,54,0
184873,control_change,1,0,14,,,,,,,,,13,11,47,,,
184875,control_change,17,0,15,,,,,,,,,14,11,47,,,
184878,control_change,17,0,11,,,,,,,,,10,11,45,,,
184881,control_change,17,0,12,,,,,,,,,11,11,45,,,
184890,control_change,17,0,14,,,,,,,,,13,11,45,,,
184891,note_on,30,0,1,,,,,,,,,0,,,,84,0
184891,note_on,0,0,1,,,,,,,,,0,,,,90,0
184892,control_change,17,0,15,,,,,,,,,14,11,45,,,
184894,control_change,16,0,11,,,,,,,,,10,11,43,,,
184894,note_on,30,0,2,,,,,,,,,1,,,,84,0
184894,note_on,0,0,2,,,,,,,,,1,,,,81,0
184897,control_change,16,0,12,,,,,,,,,11,11,43,,,
184906,control_change,16,0,14,,,,,,,,,13,11,43,,,
184908,control_change,16,0,15,,,,,,,,,14,11,43,,,
184911,control_change,17,0,11,,,,,,,,,10,11,42,,,
184914,control_change,17,0,12,,,,,,,,,11,11,42,,,
184920,note_on,9,0,11,,,,,,,,,10,,,,72,0
184920,set_tempo,120,1,0,,,,,,330579,,,,,,,,
184921,note_on,0,0,1,,,,,,,,,0,,,,90,101
184921,note_on,30,0,1,,,,,,,,,0,,,,84,101
184923,control_change,17,0,14,,,,,,,,,13,11,42,,,
184923,note_on,9,0,12,,,,,,,,,11,,,,69,0
184923,note_on,0,0,12,,,,,,,,,11,,,,66,0
184924,note_on,0,0,2,,,,,,,,,1,,,,84,100
184924,note_on,30,0,2,,,,,,,,,1,,,,81,100
184925,control_change,17,0,15,,,,,,,,,14,11,42,,,
184928,note_on,60,0,13,,,,,,,,,12,,,,60,112
184932,note_on,9,0,14,,,,,,,,,13,,,,57,112
184934,note_on,9,0,15,,,,,,,,,14,,,,39,0
184981,note_on,60,0,1,,,,,,,,,0,,,,90,0
184981,note_on,0,0,1,,,,,,,,,0,,,,84,0
184984,note_on,0,0,2,,,,,,,,,1,,,,81,0
184984,note_on,60,0,2,,,,,,,,,1,,,,84,0
184988,note_on,60,0,13,,,,,,,,,12,,,,60,0
184992,note_on,60,0,14,,,,,,,,,13,,,,57,0
185040,note_on,120,0,11,,,,,,,,,10,,,,66,102
185040,set_tempo,120,1,0,,,,,,291262,,,,,,,,
185041,note_on,0,0,1,,,,,,,,,0,,,,84,116
185041,note_on,60,0,1,,,,,,,,,0,,,,90,116
185043,note_on,120,0,12,,,,,,,,,11,,,,60,102
185044,note_on,60,0,2,,,,,,,,,1,,,,84,115
185044,note_on,0,0,2,,,,,,,,,1,,,,81,115
185048,note_on,60,0,13,,,,,,,,,12,,,,66,112
185052,note_on,60,0,14,,,,,,,,,13,,,,60,112
185100,note_on,60,0,11,,,,,,,,,10,,,,66,0
185103,note_on,60,0,12,,,,,,,,,11,,,,60,0
185160,note_on,60,0,11,,,,,,,,,10,,,,69,102
185160,set_tempo,120,1,0,,,,,,307692,,,,,,,,
185163,note_on,60,0,12,,,,,,,,,11,,,,66,102
185220,note_on,60,0,11,,,,,,,,,10,,,,69,0
185223,note_on,60,0,12,,,,,,,,,11,,,,66,0
185234,note_on,300,0,15,,,,,,,,,14,,,,39,112
185280,set_tempo,120,1,0,,,,,,330579,,,,,,,,
185280,note_on,60,0,11,,,,,,,,,10,,,,72,102
185281,note_on,240,0,1,,,,,,,,,0,,,,84,0
185281,note_on,0,0,1,,,,,,,,,0,,,,90,0
185283,note_on,60,0,12,,,,,,,,,11,,,,69,102
185284,note_on,0,0,2,,,,,,,,,1,,,,84,0
185284,note_on,240,0,2,,,,,,,,,1,,,,81,0
185288,note_on,240,0,13,,,,,,,,,12,,,,66,0
185292,note_on,240,0,14,,,,,,,,,13,,,,60,0
185294,note_on,0,0,15,,,,,,,,,14,,,,39,112
185294,note_on,60,0,15,,,,,,,,,14,,,,39,0
185340,note_on,60,0,11,,,,,,,,,10,,,,72,0
185343,note_on,60,0,12,,,,,,,,,11,,,,69,0
185400,note_on,0,0,11,,,,,,,,,10,,,,73,102
185400,control_change,60,0,11,,,,,,,,,10,11,41,,,
185400,set_tempo,120,1,0,,,,,,291262,,,,,,,,
185403,control_change,60,0,12,,,,,,,,,11,11,41,,,
185403,note_on,0,0,12,,,,,,,,,11,,,,68,102
185405,control_change,0,0,3,,,,,,,,,2,11,59,,,
185405,note_on,0,0,3,,,,,,,,,2,,,,73,101
185405,note_on,0,0,3,,,,,,,,,2,,,,68,101
185405,note_on,0,0,3,,,,,,,,,2,,,,72,0
185405,note_on,608,0,3,,,,,,,,,2,,,,69,0
185407,note_on,0,0,8,,,,,,,,,7,,,,66,0
185407,note_on,0,0,8,,,,,,,,,7,,,,52,110
185407,note_on,0,0,8,,,,,,,,,7,,,,64,110
185407,note_on,612,0,8,,,,,,,,,7,,,,54,0
185407,control_change,0,0,8,,,,,,,,,7,11,37,,,
185408,control_change,120,0,13,,,,,,,,,12,11,41,,,
185409,note_on,608,0,4,,,,,,,,,3,,,,57,0
185409,control_change,0,0,4,,,,,,,,,3,11,62,,,
185409,note_on,0,0,4,,,,,,,,,3,,,,61,100
185409,note_on,0,0,4,,,,,,,,,3,,,,56,100
185409,note_on,0,0,4,,,,,,,,,3,,,,60,0
185412,note_on,120,0,14,,,,,,,,,13,,,,49,112
185412,control_change,0,0,14,,,,,,,,,13,11,41,,,
185413,note_on,0,0,9,,,,,,,,,8,,,,49,110
185413,control_change,4800,0,9,,,,,,,,,8,11,37,,,
185414,control_change,0,0,15,,,,,,,,,14,11,41,,,
185414,note_on,0,0,15,,,,,,,,,14,,,,37,112
185414,note_on,120,0,15,,,,,,,,,14,,,,39,0
185416,control_change,16,0,11,,,,,,,,,10,11,42,,,
185419,control_change,16,0,12,,,,,,,,,11,11,42,,,
185423,control_change,16,0,8,,,,,,,,,7,11,38,,,
185424,control_change,16,0,13,,,,,,,,,12,11,42,,,
185428,control_change,16,0,14,,,,,,,,,13,11,42,,,
185429,control_change,16,0,9,,,,,,,,,8,11,38,,,
185430,control_change,16,0,15,,,,,,,,,14,11,42,,,
185432,control_change,16,0,11,,,,,,,,,10,11,42,,,
185433,control_change,28,0,3,,,,,,,,,2,11,60,,,
185435,control_change,16,0,12,,,,,,,,,11,11,42,,,
185437,control_change,28,0,4,,,,,,,,,3,11,63,,,
185439,control_change,16,0,8,,,,,,,,,7,11,39,,,
185440,control_change,16,0,13,,,,,,,,,12,11,42,,,
185444,control_change,16,0,14,,,,,,,,,13,11,42,,,
185445,control_change,16,0,9,,,,,,,,,8,11,39,,,
185446,control_change,16,0,15,,,,,,,,,14,11,42,,,
185448,control_change,16,0,11,,,,,,,,,10,11,43,,,
185451,control_change,16,0,12,,,,,,,,,11,11,43,,,
185455,control_change,16,0,8,,,,,,,,,7,11,40,,,
185456,control_change,16,0,13,,,,,,,,,12,11,43,,,
185460,control_change,16,0,14,,,,,,,,,13,11,43,,,
185461,control_change,16,0,9,,,,,,,,,8,11,40,,,
185462,control_change,29,0,3,,,,,,,,,2,11,61,,,
185462,control_change,16,0,15,,,,,,,,,14,11,43,,,
185464,control_change,16,0,11,,,,,,,,,10,11,44,,,
185466,control_change,29,0,4,,,,,,,,,3,11,64,,,
185467,control_change,16,0,12,,,,,,,,,11,11,44,,,
185471,control_change,16,0,8,,,,,,,,,7,11,41,,,
185472,control_change,16,0,13,,,,,,,,,12,11,44,,,
185472,note_on,12,0,14,,,,,,,,,13,,,,49,0
185476,control_change,4,0,14,,,,,,,,,13,11,44,,,
185477,control_change,16,0,9,,,,,,,,,8,11,41,,,
185478,control_change,16,0,15,,,,,,,,,14,11,44,,,
185480,control_change,16,0,11,,,,,,,,,10,11,45,,,
185483,control_change,16,0,12,,,,,,,,,11,11,45,,,
185487,control_change,16,0,8,,,,,,,,,7,11,42,,,
185488,control_change,16,0,13,,,,,,,,,12,11,45,,,
185491,control_change,29,0,3,,,,,,,,,2,11,61,,,
185492,control_change,16,0,14,,,,,,,,,13,11,45,,,
185493,control_change,16,0,9,,,,,,,,,8,11,42,,,
185494,control_change,16,0,15,,,,,,,,,14,11,45,,,
185495,control_change,29,0,4,,,,,,,,,3,11,65,,,
185496,control_change,16,0,11,,,,,,,,,10,11,46,,,
185499,control_change,16,0,12,,,,,,,,,11,11,46,,,
185503,control_change,16,0,8,,,,,,,,,7,11,43,,,
185504,control_change,16,0,13,,,,,,,,,12,11,46,,,
185508,control_change,16,0,14,,,,,,,,,13,11,46,,,
185509,control_change,16,0,9,,,,,,,,,8,11,43,,,
185510,control_change,16,0,15,,,,,,,,,14,11,46,,,
185512,control_change,16,0,11,,,,,,,,,10,11,47,,,
185515,control_change,16,0,12,,,,,,,,,11,11,47,,,
185519,control_change,16,0,8,,,,,,,,,7,11,44,,,
185520,control_change,16,0,13,,,,,,,,,12,11,47,,,
185520,set_tempo,120,1,0,,,,,,307692,,,,,,,,
185520,control_change,29,0,3,,,,,,,,,2,11,62,,,
185524,control_change,29,0,4,,,,,,,,,3,11,66,,,
185524,control_change,16,0,14,,,,,,,,,13,11,47,,,
185525,note_on,0,0,3,,,,,,,,,2,,,,75,101
185525,control_change,16,0,9,,,,,,,,,8,11,44,,,
185525,note_on,5,0,3,,,,,,,,,2,,,,73,0
185526,control_change,16,0,15,,,,,,,,,14,11,47,,,
185528,control_change,16,0,11,,,,,,,,,10,11,48,,,
185528,note_on,8,0,13,,,,,,,,,12,,,,56,112
185529,note_on,5,0,4,,,,,,,,,3,,,,61,0
185529,note_on,0,0,4,,,,,,,,,3,,,,63,100
185531,control_change,16,0,12,,,,,,,,,11,11,48,,,
185532,note_on,8,0,14,,,,,,,,,13,,,,52,112
185535,control_change,16,0,8,,,,,,,,,7,11,45,,,
185536,control_change,8,0,13,,,,,,,,,12,11,48,,,
185540,control_change,8,0,14,,,,,,,,,13,11,48,,,
185541,control_change,16,0,9,,,,,,,,,8,11,45,,,
185542,control_change,16,0,15,,,,,,,,,14,11,48,,,
185544,control_change,16,0,11,,,,,,,,,10,11,49,,,
185547,control_change,16,0,12,,,,,,,,,11,11,49,,,
185549,control_change,24,0,3,,,,,,,,,2,11,63,,,
185551,control_change,16,0,8,,,,,,,,,7,11,46,,,
185552,control_change,16,0,13,,,,,,,,,12,11,49,,,
185553,control_change,24,0,4,,,,,,,,,3,11,67,,,
185556,control_change,16,0,14,,,,,,,,,13,11,49,,,
185557,control_change,16,0,9,,,,,,,,,8,11,46,,,
185558,control_change,16,0,15,,,,,,,,,14,11,49,,,
185560,control_change,16,0,11,,,,,,,,,10,11,50,,,
185563,control_change,16,0,12,,,,,,,,,11,11,50,,,
185567,control_change,16,0,8,,,,,,,,,7,11,47,,,
185568,control_change,16,0,13,,,,,,,,,12,11,50,,,
185572,control_change,16,0,14,,,,,,,,,13,11,50,,,
185573,control_change,16,0,9,,,,,,,,,8,11,47,,,
185574,control_change,16,0,15,,,,,,,,,14,11,50,,,
185576,control_change,16,0,11,,,,,,,,,10,11,51,,,
185577,control_change,28,0,3,,,,,,,,,2,11,64,,,
185579,control_change,16,0,12,,,,,,,,,11,11,51,,,
185581,control_change,28,0,4,,,,,,,,,3,11,68,,,
185581,note_on,300,0,1,,,,,,,,,0,,,,85,101
185581,control_change,0,0,1,,,,,,,,,0,11,42,,,
185581,note_on,0,0,1,,,,,,,,,0,,,,88,101
185583,control_change,16,0,8,,,,,,,,,7,11,48,,,
185584,note_on,0,0,2,,,,,,,,,1,,,,80,100
185584,note_on,0,0,2,,,,,,,,,1,,,,76,100
185584,control_change,16,0,13,,,,,,,,,12,11,51,,,
185584,control_change,300,0,2,,,,,,,,,1,11,42,,,
185588,note_on,4,0,13,,,,,,,,,12,,,,56,0
185588,control_change,16,0,14,,,,,,,,,13,11,51,,,
185589,control_change,16,0,9,,,,,,,,,8,11,48,,,
185590,control_change,16,0,15,,,,,,,,,14,11,51,,,
185592,control_change,16,0,11,,,,,,,,,10,11,52,,,
185592,note_on,4,0,14,,,,,,,,,13,,,,52,0
185595,control_change,16,0,12,,,,,,,,,11,11,52,,,
185596,control_change,15,0,1,,,,,,,,,0,11,43,,,
185599,control_change,16,0,8,,,,,,,,,7,11,49,,,
185599,control_change,15,0,2,,,,,,,,,1,11,43,,,
185600,control_change,12,0,13,,,,,,,,,12,11,52,,,
185604,control_change,12,0,14,,,,,,,,,13,11,52,,,
185605,control_change,16,0,9,,,,,,,,,8,11,49,,,
185606,control_change,29,0,3,,,,,,,,,2,11,64,,,
185606,control_change,16,0,15,,,,,,,,,14,11,52,,,
185608,control_change,16,0,11,,,,,,,,,10,11,53,,,
185610,control_change,29,0,4,,,,,,,,,3,11,69,,,
185611,note_on,0,0,1,,,,,,,,,0,,,,85,0
185611,control_change,0,0,1,,,,,,,,,0,11,44,,,
185611,note_on,15,0,1,,,,,,,,,0,,,,88,0
185611,control_change,16,0,12,,,,,,,,,11,11,53,,,
185614,control_change,0,0,2,,,,,,,,,1,11,44,,,
185614,note_on,0,0,2,,,,,,,,,1,,,,76,0
185614,note_on,15,0,2,,,,,,,,,1,,,,80,0
185615,control_change,16,0,8,,,,,,,,,7,11,50,,,
185616,control_change,16,0,13,,,,,,,,,12,11,53,,,
185620,control_change,16,0,14,,,,,,,,,13,11,53,,,
185621,control_change,16,0,9,,,,,,,,,8,11,50,,,
185622,control_change,16,0,15,,,,,,,,,14,11,53,,,
185624,control_change,16,0,11,,,,,,,,,10,11,54,,,
185627,control_change,16,0,12,,,,,,,,,11,11,54,,,
185627,control_change,16,0,1,,,,,,,,,0,11,45,,,
185630,control_change,16,0,2,,,,,,,,,1,11,45,,,
185631,control_change,16,0,8,,,,,,,,,7,11,51,,,
185632,control_change,16,0,13,,,,,,,,,12,11,54,,,
185635,control_change,29,0,3,,,,,,,,,2,11,65,,,
185636,control_change,16,0,14,,,,,,,,,13,11,54,,,
185637,control_change,16,0,9,,,,,,,,,8,11,51,,,
185638,control_change,16,0,15,,,,,,,,,14,11,54,,,
185639,control_change,29,0,4,,,,,,,,,3,11,70,,,
185640,control_change,0,0,11,,,,,,,,,10,11,55,,,
185640,note_on,16,0,11,,,,,,,,,10,,,,73,0
185640,set_tempo,120,1,0,,,,,,330579,,,,,,,,
185641,note_on,14,0,1,,,,,,,,,0,,,,85,101
185641,note_on,0,0,1,,,,,,,,,0,,,,88,101
185642,control_change,1,0,1,,,,,,,,,0,11,46,,,
185643,note_on,16,0,12,,,,,,,,,11,,,,68,0
185643,control_change,0,0,12,,,,,,,,,11,11,55,,,
185644,note_on,0,0,2,,,,,,,,,1,,,,76,100
185644,note_on,14,0,2,,,,,,,,,1,,,,80,100
185645,note_on,0,0,3,,,,,,,,,2,,,,76,101
185645,note_on,10,0,3,,,,,,,,,2,,,,75,0
185645,control_change,1,0,2,,,,,,,,,1,11,46,,,
185647,control_change,16,0,8,,,,,,,,,7,11,52,,,
185648,control_change,16,0,13,,,,,,,,,12,11,55,,,
185648,note_on,0,0,13,,,,,,,,,12,,,,61,112
185649,note_on,0,0,4,,,,,,,,,3,,,,64,100
185649,note_on,10,0,4,,,,,,,,,3,,,,63,0
185652,control_change,16,0,14,,,,,,,,,13,11,55,,,
185652,note_on,0,0,14,,,,,,,,,13,,,,56,112
185653,control_change,16,0,9,,,,,,,,,8,11,52,,,
185654,control_change,16,0,15,,,,,,,,,14,11,55,,,
185656,control_change,16,0,11,,,,,,,,,10,11,56,,,
185658,control_change,16,0,1,,,,,,,,,0,11,47,,,
185659,control_change,16,0,12,,,,,,,,,11,11,56,,,
185661,control_change,16,0,2,,,,,,,,,1,11,47,,,
185663,control_change,16,0,8,,,,,,,,,7,11,53,,,
185664,control_change,19,0,3,,,,,,,,,2,11,66,,,
185664,control_change,16,0,13,,,,,,,,,12,11,56,,,
185668,control_change,16,0,14,,,,,,,,,13,11,56,,,
185668,control_change,19,0,4,,,,,,,,,3,11,71,,,
185669,control_change,16,0,9,,,,,,,,,8,11,53,,,
185670,control_change,16,0,15,,,,,,,,,14,11,56,,,
185672,control_change,16,0,11,,,,,,,,,10,11,57,,,
185673,control_change,15,0,1,,,,,,,,,0,11,48,,,
185675,control_change,16,0,12,,,,,,,,,11,11,57,,,
185676,control_change,15,0,2,,,,,,,,,1,11,48,,,
185679,control_change,16,0,8,,,,,,,,,7,11,54,,,
185680,control_change,16,0,13,,,,,,,,,12,11,57,,,
185684,control_change,16,0,14,,,,,,,,,13,11,57,,,
185685,control_change,16,0,9,,,,,,,,,8,11,54,,,
185686,control_change,16,0,15,,,,,,,,,14,11,57,,,
185688,control_change,16,0,11,,,,,,,,,10,11,57,,,
185689,control_change,16,0,1,,,,,,,,,0,11,49,,,
185691,control_change,16,0,12,,,,,,,,,11,11,57,,,
185692,control_change,16,0,2,,,,,,,,,1,11,49,,,
185693,control_change,29,0,3,,,,,,,,,2,11,67,,,
185695,control_change,16,0,8,,,,,,,,,7,11,55,,,
185696,control_change,16,0,13,,,,,,,,,12,11,57,,,
185697,control_change,29,0,4,,,,,,,,,3,11,72,,,
185700,control_change,16,0,14,,,,,,,,,13,11,57,,,
185701,note_on,0,0,1,,,,,,,,,0,,,,85,0
185701,control_change,16,0,9,,,,,,,,,8,11,55,,,
185701,note_on,12,0,1,,,,,,,,,0,,,,88,0
185702,control_change,16,0,15,,,,,,,,,14,11,57,,,
185704,note_on,12,0,2,,,,,,,,,1,,,,76,0
185704,note_on,0,0,2,,,,,,,,,1,,,,80,0
185704,control_change,16,0,11,,,,,,,,,10,11,58,,,
185704,control_change,3,0,1,,,,,,,,,0,11,50,,,
185707,control_change,3,0,2,,,,,,,,,1,11,50,,,
185707,control_change,16,0,12,,,,,,,,,11,11,58,,,
185708,note_on,12,0,13,,,,,,,,,12,,,,61,0
185711,control_change,16,0,8,,,,,,,,,7,11,56,,,
185712,control_change,4,0,13,,,,,,,,,12,11,58,,,
185712,note_on,12,0,14,,,,,,,,,13,,,,56,0
185716,control_change,4,0,14,,,,,,,,,13,11,58,,,
185717,control_change,16,0,9,,,,,,,,,8,11,56,,,
185718,control_change,16,0,15,,,,,,,,,14,11,58,,,
185719,control_change,15,0,1,,,,,,,,,0,11,51,,,
185720,control_change,16,0,11,,,,,,,,,10,11,59,,,
185721,control_change,28,0,3,,,,,,,,,2,11,67,,,
185722,control_change,15,0,2,,,,,,,,,1,11,51,,,
185723,control_change,16,0,12,,,,,,,,,11,11,59,,,
185725,control_change,28,0,4,,,,,,,,,3,11,73,,,
185727,control_change,16,0,8,,,,,,,,,7,11,57,,,
185728,control_change,16,0,13,,,,,,,,,12,11,59,,,
185732,control_change,16,0,14,,,,,,,,,13,11,59,,,
185733,control_change,16,0,9,,,,,,,,,8,11,57,,,
185734,control_change,16,0,15,,,,,,,,,14,11,59,,,
185735,control_change,16,0,1,,,,,,,,,0,11,52,,,
185736,control_change,16,0,11,,,,,,,,,10,11,60,,,
185738,control_change,16,0,2,,,,,,,,,1,11,52,,,
185739,control_change,16,0,12,,,,,,,,,11,11,60,,,
185743,control_change,16,0,8,,,,,,,,,7,11,58,,,
185744,control_change,16,0,13,,,,,,,,,12,11,60,,,
185748,control_change,16,0,14,,,,,,,,,13,11,60,,,
185749,control_change,16,0,9,,,,,,,,,8,11,58,,,
185750,control_change,29,0,3,,,,,,,,,2,11,68,,,
185750,control_change,16,0,15,,,,,,,,,14,11,60,,,
185750,control_change,15,0,1,,,,,,,,,0,11,52,,,
185752,control_change,16,0,11,,,,,,,,,10,11,61,,,
185753,control_change,15,0,2,,,,,,,,,1,11,52,,,
185754,control_change,29,0,4,,,,,,,,,3,11,74,,,
185755,control_change,16,0,12,,,,,,,,,11,11,61,,,
185759,control_change,16,0,8,,,,,,,,,7,11,59,,,
185760,note_on,8,0,11,,,,,,,,,10,,,,64,102
185760,control_change,16,0,13,,,,,,,,,12,11,61,,,
185760,set_tempo,120,1,0,,,,,,291262,,,,,,,,
185761,note_on,0,0,1,,,,,,,,,0,,,,88,101
185761,note_on,11,0,1,,,,,,,,,0,,,,85,101
185763,note_on,8,0,12,,,,,,,,,11,,,,61,102
185764,note_on,0,0,2,,,,,,,,,1,,,,85,100
185764,note_on,11,0,2,,,,,,,,,1,,,,76,100
185764,control_change,16,0,14,,,,,,,,,13,11,61,,,
185765,control_change,16,0,9,,,,,,,,,8,11,59,,,
185765,note_on,0,0,3,,,,,,,,,2,,,,76,101
185765,note_on,15,0,3,,,,,,,,,2,,,,76,0
185765,note_on,0,0,3,,,,,,,,,2,,,,68,0
185766,control_change,5,0,1,,,,,,,,,0,11,53,,,
185766,control_change,16,0,15,,,,,,,,,14,11,61,,,
185767,note_on,0,0,8,,,,,,,,,7,,,,61,110
185767,note_on,0,0,8,,,,,,,,,7,,,,64,0
185767,note_on,8,0,8,,,,,,,,,7,,,,52,0
185767,note_on,0,0,8,,,,,,,,,7,,,,64,110
185768,note_on,8,0,13,,,,,,,,,12,,,,64,112
185768,control_change,8,0,11,,,,,,,,,10,11,62,,,
185769,note_on,0,0,4,,,,,,,,,3,,,,61,100
185769,note_on,0,0,4,,,,,,,,,3,,,,64,100
185769,note_on,0,0,4,,,,,,,,,3,,,,56,0
185769,note_on,15,0,4,,,,,,,,,3,,,,64,0
185769,control_change,5,0,2,,,,,,,,,1,11,53,,,
185771,control_change,8,0,12,,,,,,,,,11,11,62,,,
185772,note_on,8,0,14,,,,,,,,,13,,,,61,112
185773,note_on,0,0,9,,,,,,,,,8,,,,45,110
185773,note_on,8,0,9,,,,,,,,,8,,,,49,0
185774,note_on,8,0,15,,,,,,,,,14,,,,37,0
185774,note_on,0,0,15,,,,,,,,,14,,,,33,112
185775,control_change,8,0,8,,,,,,,,,7,11,60,,,
185776,control_change,8,0,13,,,,,,,,,12,11,62,,,
185779,control_change,14,0,3,,,,,,,,,2,11,69,,,
185780,control_change,8,0,14,,,,,,,,,13,11,62,,,
185781,control_change,15,0,1,,,,,,,,,0,11,54,,,
185781,control_change,8,0,9,,,,,,,,,8,11,60,,,
185782,control_change,8,0,15,,,,,,,,,14,11,62,,,
185783,control_change,14,0,4,,,,,,,,,3,11,75,,,
185784,control_change,15,0,2,,,,,,,,,1,11,54,,,
185784,control_change,16,0,11,,,,,,,,,10,11,63,,,
185787,control_change,16,0,12,,,,,,,,,11,11,63,,,
185791,control_change,16,0,8,,,,,,,,,7,11,61,,,
185792,control_change,16,0,13,,,,,,,,,12,11,63,,,
185796,control_change,16,0,14,,,,,,,,,13,11,63,,,
185797,control_change,16,0,1,,,,,,,,,0,11,55,,,
185797,control_change,16,0,9,,,,,,,,,8,11,61,,,
185798,control_change,16,0,15,,,,,,,,,14,11,63,,,
185800,control_change,16,0,2,,,,,,,,,1,11,55,,,
185800,control_change,16,0,11,,,,,,,,,10,11,64,,,
185803,control_change,16,0,12,,,,,,,,,11,11,64,,,
185807,control_change,16,0,8,,,,,,,,,7,11,62,,,
185808,control_change,29,0,3,,,,,,,,,2,11,70,,,
185808,control_change,16,0,13,,,,,,,,,12,11,64,,,
185812,control_change,15,0,1,,,,,,,,,0,11,55,,,
185812,control_change,16,0,14,,,,,,,,,13,11,64,,,
185812,control_change,29,0,4,,,,,,,,,3,11,76,,,
185813,control_change,16,0,9,,,,,,,,,8,11,62,,,
185814,control_change,16,0,15,,,,,,,,,14,11,64,,,
185815,control_change,15,0,2,,,,,,,,,1,11,55,,,
185816,control_change,16,0,11,,,,,,,,,10,11,65,,,
185819,control_change,16,0,12,,,,,,,,,11,11,65,,,
185820,note_on,4,0,11,,,,,,,,,10,,,,64,0
185823,note_on,4,0,12,,,,,,,,,11,,,,61,0
185823,control_change,16,0,8,,,,,,,,,7,11,63,,,
185824,control_change,16,0,13,,,,,,,,,12,11,65,,,
185827,control_change,15,0,1,,,,,,,,,0,11,56,,,
185828,control_change,16,0,14,,,,,,,,,13,11,65,,,
185829,control_change,16,0,9,,,,,,,,,8,11,63,,,
185830,control_change,16,0,15,,,,,,,,,14,11,65,,,
185830,control_change,15,0,2,,,,,,,,,1,11,56,,,
185832,control_change,12,0,11,,,,,,,,,10,11,66,,,
185835,control_change,12,0,12,,,,,,,,,11,11,66,,,
185837,control_change,29,0,3,,,,,,,,,2,11,70,,,
185839,control_change,16,0,8,,,,,,,,,7,11,64,,,
185840,control_change,16,0,13,,,,,,,,,12,11,66,,,
185841,control_change,29,0,4,,,,,,,,,3,11,77,,,
185843,control_change,16,0,1,,,,,,,,,0,11,57,,,
185844,control_change,16,0,14,,,,,,,,,13,11,66,,,
185845,control_change,16,0,9,,,,,,,,,8,11,64,,,
185846,control_change,16,0,15,,,,,,,,,14,11,66,,,
185846,control_change,16,0,2,,,,,,,,,1,11,57,,,
185848,control_change,16,0,11,,,,,,,,,10,11,67,,,
185851,control_change,16,0,12,,,,,,,,,11,11,67,,,
185855,control_change,16,0,8,,,,,,,,,7,11,65,,,
185856,control_change,16,0,13,,,,,,,,,12,11,67,,,
185858,control_change,15,0,1,,,,,,,,,0,11,58,,,
185860,control_change,16,0,14,,,,,,,,,13,11,67,,,
185861,control_change,15,0,2,,,,,,,,,1,11,58,,,
185861,control_change,16,0,9,,,,,,,,,8,11,65,,,
185862,control_change,16,0,15,,,,,,,,,14,11,67,,,
185864,control_change,16,0,11,,,,,,,,,10,11,68,,,
185865,control_change,28,0,3,,,,,,,,,2,11,71,,,
185867,control_change,16,0,12,,,,,,,,,11,11,68,,,
185869,control_change,28,0,4,,,,,,,,,3,11,78,,,
185871,control_change,16,0,8,,,,,,,,,7,11,66,,,
185872,control_change,16,0,13,,,,,,,,,12,11,68,,,
185874,control_change,16,0,1,,,,,,,,,0,11,58,,,
185876,control_change,16,0,14,,,,,,,,,13,11,68,,,
185877,control_change,16,0,9,,,,,,,,,8,11,66,,,
185877,control_change,16,0,2,,,,,,,,,1,11,58,,,
185878,control_change,16,0,15,,,,,,,,,14,11,68,,,
185880,set_tempo,120,1,0,,,,,,307692,,,,,,,,
185880,control_change,16,0,11,,,,,,,,,10,11,69,,,
185880,note_on,0,0,11,,,,,,,,,10,,,,73,102
185883,control_change,0,0,12,,,,,,,,,11,11,69,,,
185883,note_on,16,0,12,,,,,,,,,11,,,,68,102
185885,note_on,0,0,3,,,,,,,,,2,,,,78,101
185885,note_on,20,0,3,,,,,,,,,2,,,,76,0
185887,control_change,16,0,8,,,,,,,,,7,11,67,,,
185888,control_change,16,0,13,,,,,,,,,12,11,69,,,
185889,note_on,0,0,4,,,,,,,,,3,,,,66,100
185889,note_on,20,0,4,,,,,,,,,3,,,,64,0
185889,control_change,15,0,1,,,,,,,,,0,11,59,,,
185892,control_change,15,0,2,,,,,,,,,1,11,59,,,
185892,control_change,16,0,14,,,,,,,,,13,11,69,,,
185893,control_change,16,0,9,,,,,,,,,8,11,67,,,
185894,control_change,9,0,3,,,,,,,,,2,11,72,,,
185894,control_change,16,0,15,,,,,,,,,14,11,69,,,
185896,control_change,16,0,11,,,,,,,,,10,11,70,,,
185898,control_change,9,0,4,,,,,,,,,3,11,79,,,
185899,control_change,16,0,12,,,,,,,,,11,11,70,,,
185903,control_change,16,0,8,,,,,,,,,7,11,68,,,
185904,control_change,16,0,13,,,,,,,,,12,11,70,,,
185905,control_change,16,0,1,,,,,,,,,0,11,60,,,
185908,control_change,16,0,2,,,,,,,,,1,11,60,,,
185908,control_change,16,0,14,,,,,,,,,13,11,70,,,
185909,control_change,16,0,9,,,,,,,,,8,11,68,,,
185910,control_change,16,0,15,,,,,,,,,14,11,70,,,
185912,control_change,16,0,11,,,,,,,,,10,11,71,,,
185915,control_change,16,0,12,,,,,,,,,11,11,71,,,
185919,control_change,16,0,8,,,,,,,,,7,11,69,,,
185920,control_change,15,0,1,,,,,,,,,0,11,61,,,
185920,control_change,16,0,13,,,,,,,,,12,11,71,,,
185923,control_change,29,0,3,,,,,,,,,2,11,73,,,
185923,control_change,15,0,2,,,,,,,,,1,11,61,,,
185924,control_change,16,0,14,,,,,,,,,13,11,71,,,
185925,control_change,16,0,9,,,,,,,,,8,11,69,,,
185926,control_change,16,0,15,,,,,,,,,14,11,71,,,
185927,control_change,29,0,4,,,,,,,,,3,11,80,,,
185928,control_change,16,0,11,,,,,,,,,10,11,72,,,
185931,control_change,16,0,12,,,,,,,,,11,11,72,,,
185935,control_change,16,0,8,,,,,,,,,7,11,70,,,
185935,control_change,15,0,1,,,,,,,,,0,11,61,,,
185936,control_change,16,0,13,,,,,,,,,12,11,72,,,
185938,control_change,15,0,2,,,,,,,,,1,11,61,,,
185940,note_on,12,0,11,,,,,,,,,10,,,,73,0
185940,control_change,16,0,14,,,,,,,,,13,11,72,,,
185941,control_change,16,0,9,,,,,,,,,8,11,70,,,
185942,control_change,16,0,15,,,,,,,,,14,11,72,,,
185943,note_on,12,0,12,,,,,,,,,11,,,,68,0
185944,control_change,4,0,11,,,,,,,,,10,11,72,,,
185947,control_change,4,0,12,,,,,,,,,11,11,72,,,
185951,control_change,16,0,8,,,,,,,,,7,11,71,,,
185951,control_change,16,0,1,,,,,,,,,0,11,62,,,
185952,control_change,29,0,3,,,,,,,,,2,11,73,,,
185952,control_change,16,0,13,,,,,,,,,12,11,72,,,
185954,control_change,16,0,2,,,,,,,,,1,11,62,,,
185956,control_change,29,0,4,,,,,,,,,3,11,81,,,
185956,control_change,16,0,14,,,,,,,,,13,11,72,,,
185957,control_change,16,0,9,,,,,,,,,8,11,71,,,
185958,control_change,16,0,15,,,,,,,,,14,11,72,,,
185960,control_change,16,0,11,,,,,,,,,10,11,73,,,
185963,control_change,16,0,12,,,,,,,,,11,11,73,,,
185966,control_change,15,0,1,,,,,,,,,0,11,63,,,
185967,control_change,16,0,8,,,,,,,,,7,11,72,,,
185968,control_change,16,0,13,,,,,,,,,12,11,73,,,
185969,control_change,15,0,2,,,,,,,,,1,11,63,,,
185972,control_change,16,0,14,,,,,,,,,13,11,73,,,
185973,control_change,16,0,9,,,,,,,,,8,11,72,,,
185974,control_change,16,0,15,,,,,,,,,14,11,73,,,
185976,control_change,16,0,11,,,,,,,,,10,11,74,,,
185979,control_change,16,0,12,,,,,,,,,11,11,74,,,
185981,control_change,29,0,3,,,,,,,,,2,11,74,,,
185982,control_change,16,0,1,,,,,,,,,0,11,64,,,
185983,control_change,16,0,8,,,,,,,,,7,11,73,,,
185984,control_change,16,0,13,,,,,,,,,12,11,74,,,
185985,control_change,16,0,2,,,,,,,,,1,11,64,,,
185985,control_change,29,0,4,,,,,,,,,3,11,82,,,
185988,control_change,16,0,14,,,,,,,,,13,11,74,,,
185989,control_change,16,0,9,,,,,,,,,8,11,73,,,
185990,control_change,16,0,15,,,,,,,,,14,11,74,,,
185992,control_change,16,0,11,,,,,,,,,10,11,75,,,
185995,control_change,16,0,12,,,,,,,,,11,11,75,,,
185997,control_change,15,0,1,,,,,,,,,0,11,64,,,
185999,control_change,16,0,8,,,,,,,,,7,11,74,,,
186000,note_on,8,0,11,,,,,,,,,10,,,,76,102
186000,control_change,16,0,13,,,,,,,,,12,11,75,,,
186000,set_tempo,120,1,0,,,,,,330579,,,,,,,,
186000,control_change,15,0,2,,,,,,,,,1,11,64,,,
186003,note_on,8,0,12,,,,,,,,,11,,,,73,102
186004,control_change,16,0,14,,,,,,,,,13,11,75,,,
186005,control_change,16,0,9,,,,,,,,,8,11,74,,,
186005,note_on,0,0,3,,,,,,,,,2,,,,80,101
186005,note_on,24,0,3,,,,,,,,,2,,,,78,0
186006,control_change,16,0,15,,,,,,,,,14,11,75,,,
186008,control_change,8,0,11,,,,,,,,,10,11,76,,,
186009,note_on,0,0,4,,,,,,,,,3,,,,68,100
186009,note_on,24,0,4,,,,,,,,,3,,,,66,0
186009,control_change,4,0,3,,,,,,,,,2,11,75,,,
186011,control_change,8,0,12,,,,,,,,,11,11,76,,,
186013,control_change,16,0,1,,,,,,,,,0,11,65,,,
186013,control_change,4,0,4,,,,,,,,,3,11,83,,,
186015,control_change,16,0,8,,,,,,,,,7,11,75,,,
186016,control_change,16,0,13,,,,,,,,,12,11,76,,,
186016,control_change,16,0,2,,,,,,,,,1,11,65,,,
186020,control_change,16,0,14,,,,,,,,,13,11,76,,,
186021,control_change,16,0,9,,,,,,,,,8,11,75,,,
186022,control_change,16,0,15,,,,,,,,,14,11,76,,,
186024,control_change,16,0,11,,,,,,,,,10,11,77,,,
186027,control_change,16,0,12,,,,,,,,,11,11,77,,,
186028,control_change,15,0,1,,,,,,,,,0,11,66,,,
186031,control_change,15,0,2,,,,,,,,,1,11,66,,,
186031,control_change,16,0,8,,,,,,,,,7,11,76,,,
186032,control_change,16,0,13,,,,,,,,,12,11,77,,,
186036,control_change,16,0,14,,,,,,,,,13,11,77,,,
186037,control_change,16,0,9,,,,,,,,,8,11,76,,,
186038,control_change,16,0,15,,,,,,,,,14,11,77,,,
186038,control_change,29,0,3,,,,,,,,,2,11,76,,,
186040,control_change,16,0,11,,,,,,,,,10,11,78,,,
186042,control_change,29,0,4,,,,,,,,,3,11,84,,,
186043,control_change,15,0,1,,,,,,,,,0,11,67,,,
186043,control_change,16,0,12,,,,,,,,,11,11,78,,,
186046,control_change,15,0,2,,,,,,,,,1,11,67,,,
186047,control_change,16,0,8,,,,,,,,,7,11,77,,,
186048,control_change,16,0,13,,,,,,,,,12,11,78,,,
186052,control_change,16,0,14,,,,,,,,,13,11,78,,,
186053,control_change,16,0,9,,,,,,,,,8,11,77,,,
186054,control_change,16,0,15,,,,,,,,,14,11,78,,,
186056,control_change,16,0,11,,,,,,,,,10,11,79,,,
186059,control_change,16,0,12,,,,,,,,,11,11,79,,,
186059,control_change,16,0,1,,,,,,,,,0,11,67,,,
186060,note_on,4,0,11,,,,,,,,,10,,,,76,0
186062,control_change,16,0,2,,,,,,,,,1,11,67,,,
186063,note_on,4,0,12,,,,,,,,,11,,,,73,0
186063,control_change,16,0,8,,,,,,,,,7,11,78,,,
186064,control_change,16,0,13,,,,,,,,,12,11,79,,,
186067,control_change,29,0,3,,,,,,,,,2,11,76,,,
186068,control_change,16,0,14,,,,,,,,,13,11,79,,,
186069,control_change,16,0,9,,,,,,,,,8,11,78,,,
186070,control_change,16,0,15,,,,,,,,,14,11,79,,,
186071,control_change,29,0,4,,,,,,,,,3,11,85,,,
186072,control_change,12,0,11,,,,,,,,,10,11,80,,,
186074,control_change,15,0,1,,,,,,,,,0,11,68,,,
186075,control_change,12,0,12,,,,,,,,,11,11,80,,,
186077,control_change,15,0,2,,,,,,,,,1,11,68,,,
186079,control_change,16,0,8,,,,,,,,,7,11,79,,,
186080,control_change,16,0,13,,,,,,,,,12,11,80,,,
186084,control_change,16,0,14,,,,,,,,,13,11,80,,,
186085,control_change,16,0,9,,,,,,,,,8,11,79,,,
186086,control_change,16,0,15,,,,,,,,,14,11,80,,,
186088,control_change,16,0,11,,,,,,,,,10,11,81,,,
186090,control_change,16,0,1,,,,,,,,,0,11,69,,,
186091,control_change,16,0,12,,,,,,,,,11,11,81,,,
186093,control_change,16,0,2,,,,,,,,,1,11,69,,,
186095,control_change,16,0,8,,,,,,,,,7,11,80,,,
186096,control_change,16,0,13,,,,,,,,,12,11,81,,,
186096,control_change,29,0,3,,,,,,,,,2,11,77,,,
186100,control_change,29,0,4,,,,,,,,,3,11,86,,,
186100,control_change,16,0,14,,,,,,,,,13,11,81,,,
186101,control_change,16,0,9,,,,,,,,,8,11,80,,,
186102,control_change,16,0,15,,,,,,,,,14,11,81,,,
186104,control_change,16,0,11,,,,,,,,,10,11,82,,,
186105,control_change,15,0,1,,,,,,,,,0,11,70,,,
186107,control_change,16,0,12,,,,,,,,,11,11,82,,,
186108,control_change,15,0,2,,,,,,,,,1,11,70,,,
186111,control_change,16,0,8,,,,,,,,,7,11,81,,,
186112,control_change,16,0,13,,,,,,,,,12,11,82,,,
186116,control_change,16,0,14,,,,,,,,,13,11,82,,,
186117,control_change,16,0,9,,,,,,,,,8,11,81,,,
186118,control_change,16,0,15,,,,,,,,,14,11,82,,,
186120,note_on,0,0,11,,,,,,,,,10,,,,73,115
186120,control_change,16,0,11,,,,,,,,,10,11,83,,,
186120,set_tempo,120,1,0,,,,,,291262,,,,,,,,
186121,note_on,16,0,1,,,,,,,,,0,,,,88,0
186121,note_on,0,0,1,,,,,,,,,0,,,,92,116
186121,note_on,0,0,1,,,,,,,,,0,,,,85,0
186121,control_change,0,0,1,,,,,,,,,0,11,70,,,
186121,note_on,0,0,1,,,,,,,,,0,,,,88,116
186123,note_on,0,0,12,,,,,,,,,11,,,,68,115
186123,control_change,16,0,12,,,,,,,,,11,11,83,,,
186124,note_on,16,0,2,,,,,,,,,1,,,,85,0
186124,note_on,0,0,2,,,,,,,,,1,,,,80,115
186124,note_on,0,0,2,,,,,,,,,1,,,,76,0
186124,note_on,0,0,2,,,,,,,,,1,,,,73,115
186124,control_change,0,0,2,,,,,,,,,1,11,70,,,
186125,control_change,0,0,3,,,,,,,,,2,11,78,,,
186125,note_on,0,0,3,,,,,,,,,2,,,,80,101
186125,note_on,29,0,3,,,,,,,,,2,,,,80,0
186125,note_on,0,0,3,,,,,,,,,2,,,,76,101
186127,control_change,0,0,8,,,,,,,,,7,11,82,,,
186127,note_on,0,0,8,,,,,,,,,7,,,,56,110
186127,note_on,0,0,8,,,,,,,,,7,,,,68,110
186127,note_on,0,0,8,,,,,,,,,7,,,,61,0
186127,note_on,16,0,8,,,,,,,,,7,,,,64,0
186128,control_change,0,0,13,,,,,,,,,12,11,83,,,
186128,note_on,16,0,13,,,,,,,,,12,,,,64,0
186128,note_on,0,0,13,,,,,,,,,12,,,,68,127
186129,control_change,0,0,4,,,,,,,,,3,11,87,,,
186129,note_on,0,0,4,,,,,,,,,3,,,,61,0
186129,note_on,0,0,4,,,,,,,,,3,,,,68,100
186129,note_on,0,0,4,,,,,,,,,3,,,,64,100
186129,note_on,29,0,4,,,,,,,,,3,,,,68,0
186132,note_on,0,0,14,,,,,,,,,13,,,,64,127
186132,control_change,0,0,14,,,,,,,,,13,11,83,,,
186132,note_on,16,0,14,,,,,,,,,13,,,,61,0
186133,note_on,0,0,9,,,,,,,,,8,,,,44,110
186133,note_on,16,0,9,,,,,,,,,8,,,,45,0
186133,control_change,0,0,9,,,,,,,,,8,11,82,,,
186134,control_change,0,0,15,,,,,,,,,14,11,83,,,
186134,note_on,0,0,15,,,,,,,,,14,,,,32,112
186134,note_on,16,0,15,,,,,,,,,14,,,,33,0
186180,note_on,60,0,11,,,,,,,,,10,,,,73,0
186183,note_on,60,0,12,,,,,,,,,11,,,,68,0
186188,note_on,60,0,13,,,,,,,,,12,,,,68,0
186192,note_on,60,0,14,,,,,,,,,13,,,,64,0
186240,note_on,60,0,11,,,,,,,,,10,,,,76,102
186240,set_tempo,120,1,0,,,,,,307692,,,,,,,,
186243,note_on,60,0,12,,,,,,,,,11,,,,73,102
186248,note_on,60,0,13,,,,,,,,,12,,,,64,112
186252,note_on,60,0,14,,,,,,,,,13,,,,61,112
186300,note_on,60,0,11,,,,,,,,,10,,,,76,0
186303,note_on,60,0,12,,,,,,,,,11,,,,73,0
186308,note_on,60,0,13,,,,,,,,,12,,,,64,0
186312,note_on,60,0,14,,,,,,,,,13,,,,61,0
186360,set_tempo,120,1,0,,,,,,320000,,,,,,,,
186360,note_on,60,0,11,,,,,,,,,10,,,,80,102
186363,note_on,60,0,12,,,,,,,,,11,,,,76,102
186368,note_on,60,0,13,,,,,,,,,12,,,,61,112
186372,note_on,60,0,14,,,,,,,,,13,,,,56,112
186420,note_on,60,0,11,,,,,,,,,10,,,,80,0
186423,note_on,60,0,12,,,,,,,,,11,,,,76,0
186428,note_on,60,0,13,,,,,,,,,12,,,,61,0
186432,note_on,60,0,14,,,,,,,,,13,,,,56,0
186480,set_tempo,120,1,0,,,,,,291262,,,,,,,,
186480,note_on,60,0,11,,,,,,,,,10,,,,75,115
186481,note_on,0,0,1,,,,,,,,,0,,,,84,116
186481,note_on,360,0,1,,,,,,,,,0,,,,92,0
186481,note_on,0,0,1,,,,,,,,,0,,,,88,0
186481,note_on,0,0,1,,,,,,,,,0,,,,80,116
186483,note_on,60,0,12,,,,,,,,,11,,,,72,115
186484,note_on,360,0,2,,,,,,,,,1,,,,73,0
186484,note_on,0,0,2,,,,,,,,,1,,,,80,0
186484,note_on,0,0,2,,,,,,,,,1,,,,84,115
186484,note_on,0,0,2,,,,,,,,,1,,,,75,115
186485,note_on,360,0,3,,,,,,,,,2,,,,80,0
186485,note_on,0,0,3,,,,,,,,,2,,,,76,0
186485,note_on,0,0,3,,,,,,,,,2,,,,78,101
186485,note_on,0,0,3,,,,,,,,,2,,,,72,101
186487,note_on,360,0,8,,,,,,,,,7,,,,56,0
186487,note_on,0,0,8,,,,,,,,,7,,,,68,110
186487,note_on,0,0,8,,,,,,,,,7,,,,56,110
186487,note_on,0,0,8,,,,,,,,,7,,,,68,0
186488,note_on,60,0,13,,,,,,,,,12,,,,68,127
186489,note_on,0,0,4,,,,,,,,,3,,,,68,0
186489,note_on,0,0,4,,,,,,,,,3,,,,66,100
186489,note_on,0,0,4,,,,,,,,,3,,,,63,100
186489,note_on,360,0,4,,,,,,,,,3,,,,64,0
186492,note_on,60,0,14,,,,,,,,,13,,,,66,127
186493,note_on,360,0,9,,,,,,,,,8,,,,44,0
186493,note_on,0,0,9,,,,,,,,,8,,,,44,110
186494,note_on,360,0,15,,,,,,,,,14,,,,32,0
186494,note_on,0,0,15,,,,,,,,,14,,,,32,127
186540,note_on,60,0,11,,,,,,,,,10,,,,75,0
186543,note_on,60,0,12,,,,,,,,,11,,,,72,0
186548,note_on,60,0,13,,,,,,,,,12,,,,68,0
186552,note_on,60,0,14,,,,,,,,,13,,,,66,0
186600,set_tempo,120,1,0,,,,,,307692,,,,,,,,
186600,note_on,60,0,11,,,,,,,,,10,,,,80,102
186603,note_on,60,0,12,,,,,,,,,11,,,,75,102
186608,note_on,60,0,13,,,,,,,,,12,,,,66,112
186612,note_on,60,0,14,,,,,,,,,13,,,,63,112
186660,note_on,60,0,11,,,,,,,,,10,,,,80,0
186663,note_on,60,0,12,,,,,,,,,11,,,,75,0
186668,note_on,60,0,13,,,,,,,,,12,,,,66,0
186672,note_on,60,0,14,,,,,,,,,13,,,,63,0
186720,note_on,60,0,11,,,,,,,,,10,,,,84,102
186720,set_tempo,120,1,0,,,,,,313316,,,,,,,,
186723,note_on,60,0,12,,,,,,,,,11,,,,80,102
186728,note_on,60,0,13,,,,,,,,,12,,,,63,112
186732,note_on,60,0,14,,,,,,,,,13,,,,56,112
186780,note_on,60,0,11,,,,,,,,,10,,,,84,0
186783,note_on,60,0,12,,,,,,,,,11,,,,80,0
186788,note_on,60,0,13,,,,,,,,,12,,,,63,0
186792,note_on,60,0,14,,,,,,,,,13,,,,56,0
186840,set_tempo,120,1,0,,,,,,291262,,,,,,,,
186840,note_on,60,0,11,,,,,,,,,10,,,,85,115
186841,note_on,360,0,1,,,,,,,,,0,,,,84,0
186841,note_on,0,0,1,,,,,,,,,0,,,,80,0
186841,note_on,0,0,1,,,,,,,,,0,,,,85,116
186841,note_on,0,0,1,,,,,,,,,0,,,,80,116
186843,note_on,60,0,12,,,,,,,,,11,,,,76,115
186843,note_on,0,0,12,,,,,,,,,11,,,,73,115
186843,note_on,6600,0,5,,,,,,,,,4,,,,64,115
186844,note_on,0,0,2,,,,,,,,,1,,,,76,115
186844,note_on,0,0,2,,,,,,,,,1,,,,84,0
186844,note_on,360,0,2,,,,,,,,,1,,,,75,0
186844,note_on,0,0,2,,,,,,,,,1,,,,85,115
186844,note_on,6600,0,6,,,,,,,,,5,,,,52,115
186845,note_on,360,0,3,,,,,,,,,2,,,,72,0
186845,note_on,0,0,3,,,,,,,,,2,,,,78,0
186845,note_on,0,0,3,,,,,,,,,2,,,,76,101
186845,note_on,0,0,3,,,,,,,,,2,,,,73,101
186847,note_on,360,0,8,,,,,,,,,7,,,,68,0
186847,note_on,0,0,8,,,,,,,,,7,,,,68,110
186847,note_on,0,0,8,,,,,,,,,7,,,,56,110
186847,note_on,0,0,8,,,,,,,,,7,,,,56,0
186848,note_on,60,0,13,,,,,,,,,12,,,,64,127
186849,note_on,0,0,4,,,,,,,,,3,,,,64,100
186849,note_on,0,0,4,,,,,,,,,3,,,,61,100
186849,note_on,360,0,4,,,,,,,,,3,,,,66,0
186849,note_on,0,0,4,,,,,,,,,3,,,,63,0
186852,note_on,60,0,14,,,,,,,,,13,,,,61,127
186853,note_on,360,0,9,,,,,,,,,8,,,,44,0
186853,note_on,0,0,9,,,,,,,,,8,,,,49,110
186854,note_on,0,0,15,,,,,,,,,14,,,,37,112
186854,note_on,360,0,15,,,,,,,,,14,,,,32,0
186908,note_on,60,0,13,,,,,,,,,12,,,,64,0
186912,note_on,60,0,14,,,,,,,,,13,,,,61,0
186960,set_tempo,120,1,0,,,,,,307692,,,,,,,,
186960,control_change,120,0,11,,,,,,,,,10,11,83,,,
186963,control_change,120,0,12,,,,,,,,,11,11,83,,,
186968,note_on,60,0,13,,,,,,,,,12,,,,61,112
186972,note_on,60,0,14,,,,,,,,,13,,,,56,112
186974,control_change,120,0,15,,,,,,,,,14,11,83,,,
186983,control_change,23,0,11,,,,,,,,,10,11,81,,,
186986,control_change,23,0,12,,,,,,,,,11,11,81,,,
186997,control_change,23,0,15,,,,,,,,,14,11,81,,,
187007,control_change,24,0,11,,,,,,,,,10,11,79,,,
187010,control_change,24,0,12,,,,,,,,,11,11,79,,,
187021,control_change,24,0,15,,,,,,,,,14,11,79,,,
187028,note_on,60,0,13,,,,,,,,,12,,,,61,0
187031,control_change,24,0,11,,,,,,,,,10,11,77,,,
187032,note_on,60,0,14,,,,,,,,,13,,,,56,0
187034,control_change,24,0,12,,,,,,,,,11,11,77,,,
187045,control_change,24,0,15,,,,,,,,,14,11,77,,,
187055,control_change,24,0,11,,,,,,,,,10,11,75,,,
187058,control_change,24,0,12,,,,,,,,,11,11,75,,,
187069,control_change,24,0,15,,,,,,,,,14,11,75,,,
187079,control_change,24,0,11,,,,,,,,,10,11,73,,,
187080,set_tempo,120,1,0,,,,,,330579,,,,,,,,
187082,control_change,24,0,12,,,,,,,,,11,11,73,,,
187088,note_on,60,0,13,,,,,,,,,12,,,,56,112
187092,note_on,60,0,14,,,,,,,,,13,,,,52,112
187093,control_change,24,0,15,,,,,,,,,14,11,73,,,
187103,control_change,24,0,11,,,,,,,,,10,11,72,,,
187106,control_change,24,0,12,,,,,,,,,11,11,72,,,
187117,control_change,24,0,15,,,,,,,,,14,11,72,,,
187127,control_change,24,0,11,,,,,,,,,10,11,70,,,
187130,control_change,24,0,12,,,,,,,,,11,11,70,,,
187141,control_change,24,0,15,,,,,,,,,14,11,70,,,
187148,note_on,60,0,13,,,,,,,,,12,,,,56,0
187151,control_change,24,0,11,,,,,,,,,10,11,68,,,
187152,note_on,60,0,14,,,,,,,,,13,,,,52,0
187154,control_change,24,0,12,,,,,,,,,11,11,68,,,
187165,control_change,24,0,15,,,,,,,,,14,11,68,,,
187175,control_change,24,0,11,,,,,,,,,10,11,66,,,
187178,control_change,24,0,12,,,,,,,,,11,11,66,,,
187189,control_change,24,0,15,,,,,,,,,14,11,66,,,
187199,control_change,24,0,11,,,,,,,,,10,11,64,,,
187200,set_tempo,120,1,0,,,,,,291262,,,,,,,,
187202,control_change,24,0,12,,,,,,,,,11,11,64,,,
187208,note_on,60,0,13,,,,,,,,,12,,,,52,112
187212,note_on,60,0,14,,,,,,,,,13,,,,49,112
187213,control_change,24,0,15,,,,,,,,,14,11,64,,,
187214,control_change,15,0,11,,,,,,,,,10,11,61,,,
187217,control_change,15,0,12,,,,,,,,,11,11,61,,,
187228,control_change,15,0,15,,,,,,,,,14,11,61,,,
187228,control_change,14,0,11,,,,,,,,,10,11,58,,,
187231,control_change,14,0,12,,,,,,,,,11,11,58,,,
187242,control_change,14,0,15,,,,,,,,,14,11,58,,,
187257,control_change,29,0,11,,,,,,,,,10,11,53,,,
187260,control_change,29,0,12,,,,,,,,,11,11,53,,,
187268,note_on,60,0,13,,,,,,,,,12,,,,52,0
187271,control_change,29,0,15,,,,,,,,,14,11,53,,,
187271,control_change,14,0,11,,,,,,,,,10,11,50,,,
187272,note_on,60,0,14,,,,,,,,,13,,,,49,0
187274,control_change,14,0,12,,,,,,,,,11,11,50,,,
187285,control_change,14,0,11,,,,,,,,,10,11,47,,,
187285,control_change,14,0,15,,,,,,,,,14,11,50,,,
187288,control_change,14,0,12,,,,,,,,,11,11,47,,,
187299,control_change,14,0,11,,,,,,,,,10,11,44,,,
187299,control_change,14,0,15,,,,,,,,,14,11,47,,,
187302,control_change,14,0,12,,,,,,,,,11,11,44,,,
187313,control_change,14,0,15,,,,,,,,,14,11,44,,,
187314,control_change,15,0,11,,,,,,,,,10,11,42,,,
187317,control_change,15,0,12,,,,,,,,,11,11,42,,,
187320,set_tempo,120,1,0,,,,,,315789,,,,,,,,
187320,note_on,6,0,11,,,,,,,,,10,,,,85,0
187320,note_on,0,0,11,,,,,,,,,10,,,,61,102
187321,note_on,480,0,1,,,,,,,,,0,,,,80,0
187321,note_on,0,0,1,,,,,,,,,0,,,,85,0
187323,note_on,0,0,12,,,,,,,,,11,,,,76,0
187323,note_on,0,0,12,,,,,,,,,11,,,,61,102
187323,note_on,6,0,12,,,,,,,,,11,,,,73,0
187323,note_on,480,0,5,,,,,,,,,4,,,,64,0
187324,note_on,480,0,2,,,,,,,,,1,,,,85,0
187324,note_on,480,0,6,,,,,,,,,5,,,,52,0
187324,note_on,0,0,2,,,,,,,,,1,,,,76,0
187325,note_on,0,0,3,,,,,,,,,2,,,,76,0
187325,note_on,480,0,3,,,,,,,,,2,,,,73,0
187327,note_on,480,0,8,,,,,,,,,7,,,,56,0
187327,note_on,0,0,8,,,,,,,,,7,,,,68,0
187328,control_change,15,0,15,,,,,,,,,14,11,42,,,
187328,control_change,0,0,13,,,,,,,,,12,11,69,,,
187328,control_change,8,0,11,,,,,,,,,10,11,47,,,
187328,note_on,60,0,13,,,,,,,,,12,,,,49,112
187329,note_on,0,0,4,,,,,,,,,3,,,,64,0
187329,note_on,480,0,4,,,,,,,,,3,,,,61,0
187331,control_change,8,0,12,,,,,,,,,11,11,47,,,
187332,control_change,4,0,11,,,,,,,,,10,11,50,,,
187332,note_on,60,0,14,,,,,,,,,13,,,,49,112
187332,control_change,0,0,14,,,,,,,,,13,11,69,,,
187333,note_on,480,0,9,,,,,,,,,8,,,,49,0
187334,note_on,0,0,15,,,,,,,,,14,,,,37,112
187334,note_on,6,0,15,,,,,,,,,14,,,,37,0
187335,control_change,4,0,12,,,,,,,,,11,11,50,,,
187335,control_change,3,0,11,,,,,,,,,10,11,53,,,
187338,control_change,3,0,12,,,,,,,,,11,11,53,,,
187339,control_change,4,0,11,,,,,,,,,10,11,56,,,
187342,control_change,8,0,15,,,,,,,,,14,11,47,,,
187342,control_change,4,0,12,,,,,,,,,11,11,56,,,
187344,control_change,16,0,13,,,,,,,,,12,11,67,,,
187346,control_change,7,0,11,,,,,,,,,10,11,61,,,
187346,control_change,4,0,15,,,,,,,,,14,11,50,,,
187348,control_change,16,0,14,,,,,,,,,13,11,67,,,
187349,control_change,3,0,15,,,,,,,,,14,11,53,,,
187349,control_change,7,0,12,,,,,,,,,11,11,61,,,
187350,control_change,4,0,11,,,,,,,,,10,11,64,,,
187353,control_change,4,0,12,,,,,,,,,11,11,64,,,
187353,control_change,4,0,15,,,,,,,,,14,11,56,,,
187360,control_change,7,0,15,,,,,,,,,14,11,61,,,
187360,control_change,16,0,13,,,,,,,,,12,11,65,,,
187364,control_change,16,0,14,,,,,,,,,13,11,65,,,
187364,control_change,4,0,15,,,,,,,,,14,11,64,,,
187366,control_change,16,0,11,,,,,,,,,10,11,62,,,
187369,control_change,16,0,12,,,,,,,,,11,11,62,,,
187376,control_change,16,0,13,,,,,,,,,12,11,63,,,
187380,control_change,16,0,14,,,,,,,,,13,11,63,,,
187380,note_on,14,0,11,,,,,,,,,10,,,,61,0
187380,control_change,16,0,15,,,,,,,,,14,11,62,,,
187383,note_on,14,0,12,,,,,,,,,11,,,,61,0
187383,control_change,3,0,11,,,,,,,,,10,11,60,,,
187386,control_change,3,0,12,,,,,,,,,11,11,60,,,
187388,note_on,12,0,13,,,,,,,,,12,,,,49,0
187392,note_on,12,0,14,,,,,,,,,13,,,,49,0
187392,control_change,4,0,13,,,,,,,,,12,11,61,,,
187394,note_on,14,0,15,,,,,,,,,14,,,,37,0
187396,control_change,4,0,14,,,,,,,,,13,11,61,,,
187397,control_change,3,0,15,,,,,,,,,14,11,60,,,
187400,control_change,17,0,11,,,,,,,,,10,11,58,,,
187403,control_change,17,0,12,,,,,,,,,11,11,58,,,
187408,control_change,16,0,13,,,,,,,,,12,11,59,,,
187412,control_change,16,0,14,,,,,,,,,13,11,59,,,
187414,control_change,17,0,15,,,,,,,,,14,11,58,,,
187417,control_change,17,0,11,,,,,,,,,10,11,57,,,
187420,control_change,17,0,12,,,,,,,,,11,11,57,,,
187424,control_change,16,0,13,,,,,,,,,12,11,57,,,
187428,control_change,16,0,14,,,,,,,,,13,11,57,,,
187431,control_change,17,0,15,,,,,,,,,14,11,57,,,
187434,control_change,17,0,11,,,,,,,,,10,11,55,,,
187437,control_change,17,0,12,,,,,,,,,11,11,55,,,
187440,control_change,16,0,13,,,,,,,,,12,11,56,,,
187440,set_tempo,120,1,0,,,,,,375000,,,,,,,,
187440,note_on,6,0,11,,,,,,,,,10,,,,64,102
187443,note_on,6,0,12,,,,,,,,,11,,,,64,102
187444,control_change,16,0,14,,,,,,,,,13,11,56,,,
187448,control_change,17,0,15,,,,,,,,,14,11,55,,,
187448,note_on,8,0,13,,,,,,,,,12,,,,52,112
187450,control_change,10,0,11,,,,,,,,,10,11,53,,,
187452,note_on,8,0,14,,,,,,,,,13,,,,52,112
187453,control_change,10,0,12,,,,,,,,,11,11,53,,,
187454,note_on,6,0,15,,,,,,,,,14,,,,40,112
187456,control_change,8,0,13,,,,,,,,,12,11,54,,,
187460,control_change,8,0,14,,,,,,,,,13,11,54,,,
187464,control_change,10,0,15,,,,,,,,,14,11,53,,,
187467,control_change,17,0,11,,,,,,,,,10,11,51,,,
187470,control_change,17,0,12,,,,,,,,,11,11,51,,,
187472,control_change,16,0,13,,,,,,,,,12,11,52,,,
187476,control_change,16,0,14,,,,,,,,,13,11,52,,,
187481,control_change,17,0,15,,,,,,,,,14,11,51,,,
187484,control_change,17,0,11,,,,,,,,,10,11,49,,,
187487,control_change,17,0,12,,,,,,,,,11,11,49,,,
187488,control_change,16,0,13,,,,,,,,,12,11,50,,,
187492,control_change,16,0,14,,,,,,,,,13,11,50,,,
187498,control_change,17,0,15,,,,,,,,,14,11,49,,,
187500,note_on,16,0,11,,,,,,,,,10,,,,64,0
187501,control_change,1,0,11,,,,,,,,,10,11,47,,,
187503,note_on,16,0,12,,,,,,,,,11,,,,64,0
187504,control_change,1,0,12,,,,,,,,,11,11,47,,,
187504,control_change,16,0,13,,,,,,,,,12,11,48,,,
187508,note_on,4,0,13,,,,,,,,,12,,,,52,0
187508,control_change,16,0,14,,,,,,,,,13,11,48,,,
187512,note_on,4,0,14,,,,,,,,,13,,,,52,0
187514,note_on,16,0,15,,,,,,,,,14,,,,40,0
187515,control_change,1,0,15,,,,,,,,,14,11,47,,,
187518,control_change,17,0,11,,,,,,,,,10,11,45,,,
187520,control_change,12,0,13,,,,,,,,,12,11,46,,,
187521,control_change,17,0,12,,,,,,,,,11,11,45,,,
187524,control_change,12,0,14,,,,,,,,,13,11,46,,,
187532,control_change,17,0,15,,,,,,,,,14,11,45,,,
187534,control_change,16,0,11,,,,,,,,,10,11,43,,,
187536,control_change,16,0,13,,,,,,,,,12,11,44,,,
187537,control_change,16,0,12,,,,,,,,,11,11,43,,,
187540,control_change,16,0,14,,,,,,,,,13,11,44,,,
187548,control_change,16,0,15,,,,,,,,,14,11,43,,,
187551,control_change,17,0,11,,,,,,,,,10,11,42,,,
187552,control_change,16,0,13,,,,,,,,,12,11,42,,,
187554,control_change,17,0,12,,,,,,,,,11,11,42,,,
187556,control_change,16,0,14,,,,,,,,,13,11,42,,,
187560,set_tempo,120,1,0,,,,,,291262,,,,,,,,
187560,note_on,9,0,11,,,,,,,,,10,,,,57,115
187563,note_on,9,0,12,,,,,,,,,11,,,,57,115
187564,note_on,0,0,2,,,,,,,,,1,,,,73,100
187564,control_change,0,0,2,,,,,,,,,1,11,47,,,
187564,note_on,240,0,2,,,,,,,,,1,,,,69,100
187565,control_change,17,0,15,,,,,,,,,14,11,42,,,
187568,note_on,16,0,13,,,,,,,,,12,,,,57,112
187568,control_change,0,0,13,,,,,,,,,12,11,41,,,
187569,control_change,240,0,4,,,,,,,,,3,11,47,,,
187569,note_on,0,0,4,,,,,,,,,3,,,,64,100
187572,control_change,0,0,14,,,,,,,,,13,11,41,,,
187572,note_on,16,0,14,,,,,,,,,13,,,,45,112
187574,note_on,9,0,15,,,,,,,,,14,,,,33,127
187600,control_change,36,0,2,,,,,,,,,1,11,48,,,
187605,control_change,36,0,4,,,,,,,,,3,11,48,,,
187628,note_on,60,0,13,,,,,,,,,12,,,,57,0
187632,note_on,60,0,14,,,,,,,,,13,,,,45,0
187636,control_change,36,0,2,,,,,,,,,1,11,49,,,
187641,control_change,36,0,4,,,,,,,,,3,11,49,,,
187672,control_change,36,0,2,,,,,,,,,1,11,50,,,
187677,control_change,36,0,4,,,,,,,,,3,11,50,,,
187680,set_tempo,120,1,0,,,,,,307692,,,,,,,,
187688,note_on,60,0,13,,,,,,,,,12,,,,52,112
187692,note_on,60,0,14,,,,,,,,,13,,,,49,112
187708,control_change,36,0,2,,,,,,,,,1,11,51,,,
187712,note_on,4,0,2,,,,,,,,,1,,,,73,0
187712,note_on,0,0,2,,,,,,,,,1,,,,69,0
187713,control_change,36,0,4,,,,,,,,,3,11,51,,,
187717,note_on,4,0,4,,,,,,,,,3,,,,64,0
187744,note_on,0,0,2,,,,,,,,,1,,,,69,100
187744,note_on,32,0,2,,,,,,,,,1,,,,73,100
187744,control_change,0,0,2,,,,,,,,,1,11,52,,,
187748,note_on,60,0,13,,,,,,,,,12,,,,52,0
187749,control_change,0,0,4,,,,,,,,,3,11,52,,,
187749,note_on,32,0,4,,,,,,,,,3,,,,64,100
187752,note_on,60,0,14,,,,,,,,,13,,,,49,0
187780,control_change,36,0,2,,,,,,,,,1,11,52,,,
187785,control_change,36,0,4,,,,,,,,,3,11,53,,,
187793,note_on,13,0,2,,,,,,,,,1,,,,69,0
187793,note_on,0,0,2,,,,,,,,,1,,,,73,0
187798,note_on,13,0,4,,,,,,,,,3,,,,64,0
187800,note_on,240,0,11,,,,,,,,,10,,,,57,0
187800,set_tempo,120,1,0,,,,,,330579,,,,,,,,
187803,note_on,240,0,12,,,,,,,,,11,,,,57,0
187804,note_on,11,0,2,,,,,,,,,1,,,,73,100
187804,note_on,0,0,2,,,,,,,,,1,,,,69,100
187808,note_on,60,0,13,,,,,,,,,12,,,,57,112
187809,note_on,11,0,4,,,,,,,,,3,,,,64,100
187812,note_on,60,0,14,,,,,,,,,13,,,,52,112
187814,note_on,240,0,15,,,,,,,,,14,,,,33,0
187816,control_change,12,0,2,,,,,,,,,1,11,53,,,
187821,control_change,12,0,4,,,,,,,,,3,11,54,,,
187852,control_change,36,0,2,,,,,,,,,1,11,54,,,
187857,control_change,36,0,4,,,,,,,,,3,11,55,,,
187868,note_on,60,0,13,,,,,,,,,12,,,,57,0
187872,note_on,60,0,14,,,,,,,,,13,,,,52,0
187888,control_change,36,0,2,,,,,,,,,1,11,55,,,
187893,control_change,36,0,4,,,,,,,,,3,11,56,,,
187902,note_on,0,0,2,,,,,,,,,1,,,,73,0
187902,note_on,14,0,2,,,,,,,,,1,,,,69,0
187907,note_on,14,0,4,,,,,,,,,3,,,,64,0
187920,set_tempo,120,1,0,,,,,,291262,,,,,,,,
187920,note_on,120,0,11,,,,,,,,,10,,,,64,102
187923,note_on,120,0,12,,,,,,,,,11,,,,61,102
187924,note_on,22,0,2,,,,,,,,,1,,,,69,100
187924,control_change,0,0,2,,,,,,,,,1,11,55,,,
187924,note_on,0,0,2,,,,,,,,,1,,,,73,100
187928,note_on,60,0,13,,,,,,,,,12,,,,61,127
187929,control_change,22,0,4,,,,,,,,,3,11,57,,,
187929,note_on,0,0,4,,,,,,,,,3,,,,64,100
187932,note_on,60,0,14,,,,,,,,,13,,,,57,127
187960,control_change,36,0,2,,,,,,,,,1,11,56,,,
187965,control_change,36,0,4,,,,,,,,,3,11,58,,,
187980,note_on,60,0,11,,,,,,,,,10,,,,64,0
187983,note_on,60,0,12,,,,,,,,,11,,,,61,0
187996,control_change,36,0,2,,,,,,,,,1,11,57,,,
188001,control_change,36,0,4,,,,,,,,,3,11,59,,,
188022,note_on,0,0,2,,,,,,,,,1,,,,69,0
188022,note_on,26,0,2,,,,,,,,,1,,,,73,0
188027,note_on,26,0,4,,,,,,,,,3,,,,64,0
188032,control_change,10,0,2,,,,,,,,,1,11,58,,,
188037,control_change,10,0,4,,,,,,,,,3,11,60,,,
188040,note_on,60,0,11,,,,,,,,,10,,,,69,102
188040,set_tempo,120,1,0,,,,,,307692,,,,,,,,
188043,note_on,60,0,12,,,,,,,,,11,,,,64,102
188044,note_on,0,0,2,,,,,,,,,1,,,,73,100
188044,note_on,12,0,2,,,,,,,,,1,,,,69,100
188049,note_on,12,0,4,,,,,,,,,3,,,,64,100
188068,control_change,24,0,2,,,,,,,,,1,11,58,,,
188073,control_change,24,0,4,,,,,,,,,3,11,61,,,
188100,note_on,60,0,11,,,,,,,,,10,,,,69,0
188103,note_on,60,0,12,,,,,,,,,11,,,,64,0
188104,control_change,36,0,2,,,,,,,,,1,11,59,,,
188109,control_change,36,0,4,,,,,,,,,3,11,62,,,
188114,note_on,300,0,15,,,,,,,,,14,,,,33,112
188140,control_change,36,0,2,,,,,,,,,1,11,60,,,
188142,note_on,2,0,2,,,,,,,,,1,,,,73,0
188142,note_on,0,0,2,,,,,,,,,1,,,,69,0
188145,control_change,36,0,4,,,,,,,,,3,11,63,,,
188147,note_on,2,0,4,,,,,,,,,3,,,,64,0
188160,set_tempo,120,1,0,,,,,,330579,,,,,,,,
188160,note_on,60,0,11,,,,,,,,,10,,,,73,102
188163,note_on,60,0,12,,,,,,,,,11,,,,69,102
188164,note_on,22,0,2,,,,,,,,,1,,,,73,100
188164,note_on,0,0,2,,,,,,,,,1,,,,69,100
188168,note_on,240,0,13,,,,,,,,,12,,,,61,0
188169,note_on,22,0,4,,,,,,,,,3,,,,64,100
188172,note_on,240,0,14,,,,,,,,,13,,,,57,0
188174,note_on,60,0,15,,,,,,,,,14,,,,33,0
188174,note_on,0,0,15,,,,,,,,,14,,,,33,112
188176,control_change,12,0,2,,,,,,,,,1,11,61,,,
188181,control_change,12,0,4,,,,,,,,,3,11,64,,,
188212,control_change,36,0,2,,,,,,,,,1,11,61,,,
188217,control_change,36,0,4,,,,,,,,,3,11,65,,,
188220,note_on,60,0,11,,,,,,,,,10,,,,73,0
188223,note_on,60,0,12,,,,,,,,,11,,,,69,0
188248,control_change,36,0,2,,,,,,,,,1,11,62,,,
188253,control_change,36,0,4,,,,,,,,,3,11,66,,,
188262,note_on,14,0,2,,,,,,,,,1,,,,69,0
188262,note_on,0,0,2,,,,,,,,,1,,,,73,0
188267,note_on,14,0,4,,,,,,,,,3,,,,64,0
188280,set_tempo,120,1,0,,,,,,291262,,,,,,,,
188280,note_on,0,0,11,,,,,,,,,10,,,,76,115
188280,note_on,60,0,11,,,,,,,,,10,,,,73,115
188281,note_on,0,0,1,,,,,,,,,0,,,,76,116
188281,control_change,960,0,1,,,,,,,,,0,11,55,,,
188283,note_on,0,0,5,,,,,,,,,4,,,,64,115
188283,note_on,60,0,12,,,,,,,,,11,,,,68,115
188283,control_change,960,0,5,,,,,,,,,4,11,67,,,
188284,note_on,22,0,2,,,,,,,,,1,,,,68,115
188284,note_on,0,0,2,,,,,,,,,1,,,,76,115
188284,control_change,0,0,2,,,,,,,,,1,11,63,,,
188285,control_change,0,0,3,,,,,,,,,2,11,63,,,
188285,note_on,0,0,3,,,,,,,,,2,,,,68,116
188285,note_on,960,0,3,,,,,,,,,2,,,,73,116
188289,note_on,22,0,4,,,,,,,,,3,,,,64,115
188289,control_change,0,0,4,,,,,,,,,3,11,67,,,
188292,note_on,120,0,14,,,,,,,,,13,,,,49,112
188294,note_on,0,0,15,,,,,,,,,14,,,,37,127
188294,note_on,120,0,15,,,,,,,,,14,,,,33,0
188302,control_change,18,0,2,,,,,,,,,1,11,62,,,
188303,control_change,18,0,3,,,,,,,,,2,11,62,,,
188307,control_change,18,0,4,,,,,,,,,3,11,66,,,
188320,control_change,18,0,2,,,,,,,,,1,11,61,,,
188321,control_change,18,0,3,,,,,,,,,2,11,61,,,
188325,control_change,18,0,4,,,,,,,,,3,11,65,,,
188338,control_change,18,0,2,,,,,,,,,1,11,61,,,
188339,control_change,18,0,3,,,,,,,,,2,11,61,,,
188343,control_change,18,0,4,,,,,,,,,3,11,64,,,
188352,note_on,60,0,14,,,,,,,,,13,,,,49,0
188356,control_change,18,0,2,,,,,,,,,1,11,60,,,
188357,control_change,18,0,3,,,,,,,,,2,11,60,,,
188361,control_change,18,0,4,,,,,,,,,3,11,63,,,
188374,control_change,18,0,2,,,,,,,,,1,11,59,,,
188375,control_change,18,0,3,,,,,,,,,2,11,59,,,
188379,control_change,18,0,4,,,,,,,,,3,11,62,,,
188392,control_change,18,0,2,,,,,,,,,1,11,58,,,
188393,control_change,18,0,3,,,,,,,,,2,11,58,,,
188397,control_change,18,0,4,,,,,,,,,3,11,61,,,
188400,set_tempo,120,1,0,,,,,,307692,,,,,,,,
188408,note_on,240,0,13,,,,,,,,,12,,,,56,112
188410,control_change,18,0,2,,,,,,,,,1,11,58,,,
188411,control_change,18,0,3,,,,,,,,,2,11,58,,,
188412,note_on,60,0,14,,,,,,,,,13,,,,52,112
188415,control_change,18,0,4,,,,,,,,,3,11,60,,,
188428,control_change,18,0,2,,,,,,,,,1,11,57,,,
188429,control_change,18,0,3,,,,,,,,,2,11,57,,,
188433,control_change,18,0,4,,,,,,,,,3,11,59,,,
188446,control_change,18,0,2,,,,,,,,,1,11,56,,,
188447,control_change,18,0,3,,,,,,,,,2,11,56,,,
188451,control_change,18,0,4,,,,,,,,,3,11,58,,,
188464,control_change,18,0,2,,,,,,,,,1,11,55,,,
188465,control_change,18,0,3,,,,,,,,,2,11,55,,,
188468,note_on,60,0,13,,,,,,,,,12,,,,56,0
188469,control_change,18,0,4,,,,,,,,,3,11,57,,,
188472,note_on,60,0,14,,,,,,,,,13,,,,52,0
188482,control_change,18,0,2,,,,,,,,,1,11,55,,,
188483,control_change,18,0,3,,,,,,,,,2,11,55,,,
188487,control_change,18,0,4,,,,,,,,,3,11,56,,,
188500,control_change,18,0,2,,,,,,,,,1,11,54,,,
188501,control_change,18,0,3,,,,,,,,,2,11,54,,,
188505,control_change,18,0,4,,,,,,,,,3,11,55,,,
188518,control_change,18,0,2,,,,,,,,,1,11,53,,,
188519,control_change,18,0,3,,,,,,,,,2,11,53,,,
188520,set_tempo,120,1,0,,,,,,330579,,,,,,,,
188520,note_on,0,0,11,,,,,,,,,10,,,,73,0
188520,note_on,240,0,11,,,,,,,,,10,,,,76,0
188523,control_change,18,0,4,,,,,,,,,3,11,54,,,
188523,note_on,240,0,12,,,,,,,,,11,,,,68,0
188528,note_on,60,0,13,,,,,,,,,12,,,,61,112
188532,note_on,60,0,14,,,,,,,,,13,,,,56,112
188534,note_on,240,0,15,,,,,,,,,14,,,,37,0
188536,control_change,18,0,2,,,,,,,,,1,11,52,,,
188537,control_change,18,0,3,,,,,,,,,2,11,52,,,
188541,control_change,18,0,4,,,,,,,,,3,11,53,,,
188554,control_change,18,0,2,,,,,,,,,1,11,52,,,
188555,control_change,18,0,3,,,,,,,,,2,11,52,,,
188559,control_change,18,0,4,,,,,,,,,3,11,52,,,
188572,control_change,18,0,2,,,,,,,,,1,11,51,,,
188573,control_change,18,0,3,,,,,,,,,2,11,51,,,
188577,control_change,18,0,4,,,,,,,,,3,11,51,,,
188588,note_on,60,0,13,,,,,,,,,12,,,,61,0
188590,control_change,18,0,2,,,,,,,,,1,11,50,,,
188591,control_change,18,0,3,,,,,,,,,2,11,50,,,
188592,note_on,60,0,14,,,,,,,,,13,,,,56,0
188595,control_change,18,0,4,,,,,,,,,3,11,50,,,
188608,control_change,18,0,2,,,,,,,,,1,11,49,,,
188609,control_change,18,0,3,,,,,,,,,2,11,49,,,
188613,control_change,18,0,4,,,,,,,,,3,11,49,,,
188626,control_change,18,0,2,,,,,,,,,1,11,48,,,
188627,control_change,18,0,3,,,,,,,,,2,11,48,,,
188631,control_change,18,0,4,,,,,,,,,3,11,48,,,
188640,note_on,120,0,11,,,,,,,,,10,,,,61,102
188640,set_tempo,120,1,0,,,,,,291262,,,,,,,,
188641,note_on,360,0,1,,,,,,,,,0,,,,76,0
188641,note_on,0,0,1,,,,,,,,,0,,,,73,101
188643,note_on,120,0,12,,,,,,,,,11,,,,56,102
188644,control_change,0,0,2,,,,,,,,,1,11,47,,,
188644,note_on,18,0,2,,,,,,,,,1,,,,76,0
188644,note_on,0,0,2,,,,,,,,,1,,,,73,100
188645,control_change,0,0,3,,,,,,,,,2,11,47,,,
188645,note_on,0,0,3,,,,,,,,,2,,,,64,101
188645,note_on,18,0,3,,,,,,,,,2,,,,68,0
188648,note_on,60,0,13,,,,,,,,,12,,,,64,127
188649,control_change,18,0,4,,,,,,,,,3,11,47,,,
188652,note_on,60,0,14,,,,,,,,,13,,,,61,127
188700,note_on,60,0,11,,,,,,,,,10,,,,61,0
188703,note_on,60,0,12,,,,,,,,,11,,,,56,0
188760,note_on,60,0,11,,,,,,,,,10,,,,64,102
188760,set_tempo,120,1,0,,,,,,307692,,,,,,,,
188761,note_on,120,0,1,,,,,,,,,0,,,,73,0
188763,note_on,480,0,5,,,,,,,,,4,,,,64,0
188763,note_on,60,0,12,,,,,,,,,11,,,,61,102
188764,note_on,0,0,2,,,,,,,,,1,,,,68,0
188764,note_on,120,0,2,,,,,,,,,1,,,,73,0
188765,note_on,120,0,3,,,,,,,,,2,,,,64,0
188765,note_on,0,0,3,,,,,,,,,2,,,,73,0
188769,note_on,120,0,4,,,,,,,,,3,,,,64,0
188820,note_on,60,0,11,,,,,,,,,10,,,,64,0
188823,note_on,60,0,12,,,,,,,,,11,,,,61,0
188834,note_on,300,0,15,,,,,,,,,14,,,,37,112
188880,note_on,60,0,11,,,,,,,,,10,,,,68,102
188880,set_tempo,120,1,0,,,,,,330579,,,,,,,,
188883,note_on,60,0,12,,,,,,,,,11,,,,64,102
188888,note_on,240,0,13,,,,,,,,,12,,,,64,0
188892,note_on,240,0,14,,,,,,,,,13,,,,61,0
188894,note_on,60,0,15,,,,,,,,,14,,,,37,0
188894,note_on,0,0,15,,,,,,,,,14,,,,37,112
188940,note_on,60,0,11,,,,,,,,,10,,,,68,0
188943,note_on,60,0,12,,,,,,,,,11,,,,64,0
189000,set_tempo,120,1,0,,,,,,291262,,,,,,,,
189000,note_on,60,0,11,,,,,,,,,10,,,,64,115
189000,note_on,0,0,11,,,,,,,,,10,,,,73,115
189003,note_on,60,0,12,,,,,,,,,11,,,,69,115
189003,note_on,0,0,12,,,,,,,,,11,,,,61,115
189004,note_on,0,0,2,,,,,,,,,1,,,,73,100
189004,control_change,0,0,2,,,,,,,,,1,11,47,,,
189004,note_on,240,0,2,,,,,,,,,1,,,,69,100
189009,control_change,240,0,4,,,,,,,,,3,11,47,,,
189009,note_on,0,0,4,,,,,,,,,3,,,,64,100
189012,note_on,120,0,14,,,,,,,,,13,,,,45,112
189014,note_on,0,0,15,,,,,,,,,14,,,,33,127
189014,note_on,120,0,15,,,,,,,,,14,,,,37,0
189040,control_change,36,0,2,,,,,,,,,1,11,48,,,
189045,control_change,36,0,4,,,,,,,,,3,11,48,,,
189072,note_on,60,0,14,,,,,,,,,13,,,,45,0
189076,control_change,36,0,2,,,,,,,,,1,11,49,,,
189081,control_change,36,0,4,,,,,,,,,3,11,49,,,
189112,control_change,36,0,2,,,,,,,,,1,11,50,,,
189117,control_change,36,0,4,,,,,,,,,3,11,50,,,
189120,set_tempo,120,1,0,,,,,,307692,,,,,,,,
189128,note_on,240,0,13,,,,,,,,,12,,,,52,112
189132,note_on,60,0,14,,,,,,,,,13,,,,49,112
189148,control_change,36,0,2,,,,,,,,,1,11,51,,,
189152,note_on,0,0,2,,,,,,,,,1,,,,69,0
189152,note_on,4,0,2,,,,,,,,,1,,,,73,0
189153,control_change,36,0,4,,,,,,,,,3,11,51,,,
189157,note_on,4,0,4,,,,,,,,,3,,,,64,0
189184,note_on,32,0,2,,,,,,,,,1,,,,69,100
189184,control_change,0,0,2,,,,,,,,,1,11,52,,,
189184,note_on,0,0,2,,,,,,,,,1,,,,73,100
189188,note_on,60,0,13,,,,,,,,,12,,,,52,0
189189,control_change,0,0,4,,,,,,,,,3,11,52,,,
189189,note_on,32,0,4,,,,,,,,,3,,,,64,100
189192,note_on,60,0,14,,,,,,,,,13,,,,49,0
189220,control_change,36,0,2,,,,,,,,,1,11,52,,,
189225,control_change,36,0,4,,,,,,,,,3,11,53,,,
189233,note_on,0,0,2,,,,,,,,,1,,,,69,0
189233,note_on,13,0,2,,,,,,,,,1,,,,73,0
189238,note_on,13,0,4,,,,,,,,,3,,,,64,0
189240,note_on,240,0,11,,,,,,,,,10,,,,73,0
189240,set_tempo,120,1,0,,,,,,330579,,,,,,,,
189240,note_on,0,0,11,,,,,,,,,10,,,,64,0
189243,note_on,240,0,12,,,,,,,,,11,,,,61,0
189243,note_on,0,0,12,,,,,,,,,11,,,,69,0
189244,note_on,11,0,2,,,,,,,,,1,,,,73,100
189244,note_on,0,0,2,,,,,,,,,1,,,,69,100
189248,note_on,60,0,13,,,,,,,,,12,,,,57,112
189249,note_on,11,0,4,,,,,,,,,3,,,,64,100
189252,note_on,60,0,14,,,,,,,,,13,,,,52,112
189254,note_on,240,0,15,,,,,,,,,14,,,,33,0
189256,control_change,12,0,2,,,,,,,,,1,11,53,,,
189261,control_change,12,0,4,,,,,,,,,3,11,54,,,
189292,control_change,36,0,2,,,,,,,,,1,11,54,,,
189297,control_change,36,0,4,,,,,,,,,3,11,55,,,
189308,note_on,60,0,13,,,,,,,,,12,,,,57,0
189312,note_on,60,0,14,,,,,,,,,13,,,,52,0
189328,control_change,36,0,2,,,,,,,,,1,11,55,,,
189333,control_change,36,0,4,,,,,,,,,3,11,56,,,
189342,note_on,0,0,2,,,,,,,,,1,,,,73,0
189342,note_on,14,0,2,,,,,,,,,1,,,,69,0
189347,note_on,14,0,4,,,,,,,,,3,,,,64,0
189360,set_tempo,120,1,0,,,,,,291262,,,,,,,,
189360,note_on,120,0,11,,,,,,,,,10,,,,64,102
189363,note_on,120,0,12,,,,,,,,,11,,,,61,102
189364,control_change,22,0,2,,,,,,,,,1,11,55,,,
189364,note_on,0,0,2,,,,,,,,,1,,,,73,100
189364,note_on,0,0,2,,,,,,,,,1,,,,69,100
189368,note_on,60,0,13,,,,,,,,,12,,,,61,127
189369,note_on,22,0,4,,,,,,,,,3,,,,64,100
189369,control_change,0,0,4,,,,,,,,,3,11,57,,,
189372,note_on,60,0,14,,,,,,,,,13,,,,57,127
189400,control_change,36,0,2,,,,,,,,,1,11,56,,,
189405,control_change,36,0,4,,,,,,,,,3,11,58,,,
189420,note_on,60,0,11,,,,,,,,,10,,,,64,0
189423,note_on,60,0,12,,,,,,,,,11,,,,61,0
189436,control_change,36,0,2,,,,,,,,,1,11,57,,,
189441,control_change,36,0,4,,,,,,,,,3,11,59,,,
189462,note_on,0,0,2,,,,,,,,,1,,,,73,0
189462,note_on,26,0,2,,,,,,,,,1,,,,69,0
189467,note_on,26,0,4,,,,,,,,,3,,,,64,0
189472,control_change,10,0,2,,,,,,,,,1,11,58,,,
189477,control_change,10,0,4,,,,,,,,,3,11,60,,,
189480,note_on,60,0,11,,,,,,,,,10,,,,69,102
189480,set_tempo,120,1,0,,,,,,307692,,,,,,,,
189483,note_on,60,0,12,,,,,,,,,11,,,,64,102
189484,note_on,12,0,2,,,,,,,,,1,,,,69,100
189484,note_on,0,0,2,,,,,,,,,1,,,,73,100
189489,note_on,12,0,4,,,,,,,,,3,,,,64,100
189508,control_change,24,0,2,,,,,,,,,1,11,58,,,
189513,control_change,24,0,4,,,,,,,,,3,11,61,,,
189540,note_on,60,0,11,,,,,,,,,10,,,,69,0
189543,note_on,60,0,12,,,,,,,,,11,,,,64,0
189544,control_change,36,0,2,,,,,,,,,1,11,59,,,
189549,control_change,36,0,4,,,,,,,,,3,11,62,,,
189554,note_on,300,0,15,,,,,,,,,14,,,,33,112
189580,control_change,36,0,2,,,,,,,,,1,11,60,,,
189582,note_on,2,0,2,,,,,,,,,1,,,,73,0
189582,note_on,0,0,2,,,,,,,,,1,,,,69,0
189585,control_change,36,0,4,,,,,,,,,3,11,63,,,
189587,note_on,2,0,4,,,,,,,,,3,,,,64,0
189600,set_tempo,120,1,0,,,,,,330579,,,,,,,,
189600,note_on,60,0,11,,,,,,,,,10,,,,73,102
189603,note_on,60,0,12,,,,,,,,,11,,,,69,102
189604,note_on,22,0,2,,,,,,,,,1,,,,69,100
189604,note_on,0,0,2,,,,,,,,,1,,,,73,100
189608,note_on,240,0,13,,,,,,,,,12,,,,61,0
189609,note_on,22,0,4,,,,,,,,,3,,,,64,100
189612,note_on,240,0,14,,,,,,,,,13,,,,57,0
189614,note_on,0,0,15,,,,,,,,,14,,,,33,112
189614,note_on,60,0,15,,,,,,,,,14,,,,33,0
189616,control_change,12,0,2,,,,,,,,,1,11,61,,,
189621,control_change,12,0,4,,,,,,,,,3,11,64,,,
189652,control_change,36,0,2,,,,,,,,,1,11,61,,,
189657,control_change,36,0,4,,,,,,,,,3,11,65,,,
189660,note_on,60,0,11,,,,,,,,,10,,,,73,0
189663,note_on,60,0,12,,,,,,,,,11,,,,69,0
189688,control_change,36,0,2,,,,,,,,,1,11,62,,,
189693,control_change,36,0,4,,,,,,,,,3,11,66,,,
189702,note_on,14,0,2,,,,,,,,,1,,,,73,0
189702,note_on,0,0,2,,,,,,,,,1,,,,69,0
189707,note_on,14,0,4,,,,,,,,,3,,,,64,0
189720,set_tempo,120,1,0,,,,,,291262,,,,,,,,
189720,note_on,0,0,11,,,,,,,,,10,,,,76,115
189720,note_on,60,0,11,,,,,,,,,10,,,,73,115
189721,note_on,960,0,1,,,,,,,,,0,,,,76,116
189723,note_on,60,0,12,,,,,,,,,11,,,,68,115
189723,note_on,960,0,5,,,,,,,,,4,,,,64,115
189724,note_on,22,0,2,,,,,,,,,1,,,,68,115
189724,control_change,0,0,2,,,,,,,,,1,11,63,,,
189724,note_on,0,0,2,,,,,,,,,1,,,,76,115
189725,note_on,960,0,3,,,,,,,,,2,,,,73,116
189725,control_change,0,0,3,,,,,,,,,2,11,63,,,
189725,note_on,0,0,3,,,,,,,,,2,,,,68,116
189729,note_on,22,0,4,,,,,,,,,3,,,,64,115
189729,control_change,0,0,4,,,,,,,,,3,11,67,,,
189732,note_on,120,0,14,,,,,,,,,13,,,,49,112
189734,note_on,120,0,15,,,,,,,,,14,,,,33,0
189734,note_on,0,0,15,,,,,,,,,14,,,,37,127
189741,control_change,17,0,2,,,,,,,,,1,11,62,,,
189742,control_change,17,0,3,,,,,,,,,2,11,62,,,
189746,control_change,17,0,4,,,,,,,,,3,11,66,,,
189759,control_change,18,0,2,,,,,,,,,1,11,61,,,
189760,control_change,18,0,3,,,,,,,,,2,11,61,,,
189764,control_change,18,0,4,,,,,,,,,3,11,65,,,
189777,control_change,18,0,2,,,,,,,,,1,11,61,,,
189778,control_change,18,0,3,,,,,,,,,2,11,61,,,
189782,control_change,18,0,4,,,,,,,,,3,11,64,,,
189792,note_on,60,0,14,,,,,,,,,13,,,,49,0
189795,control_change,18,0,2,,,,,,,,,1,11,60,,,
189796,control_change,18,0,3,,,,,,,,,2,11,60,,,
189800,control_change,18,0,4,,,,,,,,,3,11,63,,,
189813,control_change,18,0,2,,,,,,,,,1,11,59,,,
189814,control_change,18,0,3,,,,,,,,,2,11,59,,,
189818,control_change,18,0,4,,,,,,,,,3,11,62,,,
189831,control_change,18,0,2,,,,,,,,,1,11,58,,,
189832,control_change,18,0,3,,,,,,,,,2,11,58,,,
189836,control_change,18,0,4,,,,,,,,,3,11,61,,,
189840,set_tempo,120,1,0,,,,,,307692,,,,,,,,
189848,note_on,240,0,13,,,,,,,,,12,,,,56,112
189849,control_change,18,0,2,,,,,,,,,1,11,58,,,
189850,control_change,18,0,3,,,,,,,,,2,11,58,,,
189852,note_on,60,0,14,,,,,,,,,13,,,,52,112
189854,control_change,18,0,4,,,,,,,,,3,11,60,,,
189867,control_change,18,0,2,,,,,,,,,1,11,57,,,
189868,control_change,18,0,3,,,,,,,,,2,11,57,,,
189872,control_change,18,0,4,,,,,,,,,3,11,59,,,
189885,control_change,18,0,2,,,,,,,,,1,11,56,,,
189886,control_change,18,0,3,,,,,,,,,2,11,56,,,
189890,control_change,18,0,4,,,,,,,,,3,11,58,,,
189901,note_on,180,0,1,,,,,,,,,0,,,,76,0
189901,note_on,0,0,1,,,,,,,,,0,,,,78,101
189903,control_change,18,0,2,,,,,,,,,1,11,55,,,
189904,note_on,0,0,2,,,,,,,,,1,,,,78,100
189904,control_change,18,0,3,,,,,,,,,2,11,55,,,
189904,note_on,1,0,2,,,,,,,,,1,,,,76,0
189908,note_on,60,0,13,,,,,,,,,12,,,,56,0
189908,control_change,18,0,4,,,,,,,,,3,11,57,,,
189912,note_on,60,0,14,,,,,,,,,13,,,,52,0
189921,control_change,17,0,2,,,,,,,,,1,11,55,,,
189922,control_change,18,0,3,,,,,,,,,2,11,55,,,
189926,control_change,18,0,4,,,,,,,,,3,11,56,,,
189939,control_change,18,0,2,,,,,,,,,1,11,54,,,
189940,control_change,18,0,3,,,,,,,,,2,11,54,,,
189944,control_change,18,0,4,,,,,,,,,3,11,55,,,
189957,control_change,18,0,2,,,,,,,,,1,11,53,,,
189958,control_change,18,0,3,,,,,,,,,2,11,53,,,
189960,note_on,0,0,11,,,,,,,,,10,,,,73,0
189960,note_on,240,0,11,,,,,,,,,10,,,,76,0
189960,set_tempo,120,1,0,,,,,,330579,,,,,,,,
189961,note_on,60,0,1,,,,,,,,,0,,,,78,0
189961,note_on,0,0,1,,,,,,,,,0,,,,76,101
189962,control_change,18,0,4,,,,,,,,,3,11,54,,,
189963,note_on,240,0,12,,,,,,,,,11,,,,68,0
189964,note_on,7,0,2,,,,,,,,,1,,,,78,0
189964,note_on,0,0,2,,,,,,,,,1,,,,76,100
189968,note_on,60,0,13,,,,,,,,,12,,,,61,112
189972,note_on,60,0,14,,,,,,,,,13,,,,56,112
189974,note_on,240,0,15,,,,,,,,,14,,,,37,0
189975,control_change,11,0,2,,,,,,,,,1,11,52,,,
189976,control_change,18,0,3,,,,,,,,,2,11,52,,,
189980,control_change,18,0,4,,,,,,,,,3,11,53,,,
189993,control_change,18,0,2,,,,,,,,,1,11,52,,,
189994,control_change,18,0,3,,,,,,,,,2,11,52,,,
189998,control_change,18,0,4,,,,,,,,,3,11,52,,,
190011,control_change,18,0,2,,,,,,,,,1,11,51,,,
190012,control_change,18,0,3,,,,,,,,,2,11,51,,,
190016,control_change,18,0,4,,,,,,,,,3,11,51,,,
190021,note_on,60,0,1,,,,,,,,,0,,,,76,0
190021,note_on,0,0,1,,,,,,,,,0,,,,74,101
190024,note_on,0,0,2,,,,,,,,,1,,,,74,100
190024,note_on,13,0,2,,,,,,,,,1,,,,76,0
190028,note_on,60,0,13,,,,,,,,,12,,,,61,0
190029,control_change,5,0,2,,,,,,,,,1,11,50,,,
190030,control_change,18,0,3,,,,,,,,,2,11,50,,,
190032,note_on,60,0,14,,,,,,,,,13,,,,56,0
190034,control_change,18,0,4,,,,,,,,,3,11,50,,,
190047,control_change,18,0,2,,,,,,,,,1,11,49,,,
190048,control_change,18,0,3,,,,,,,,,2,11,49,,,
190052,control_change,18,0,4,,,,,,,,,3,11,49,,,
190065,control_change,18,0,2,,,,,,,,,1,11,48,,,
190066,control_change,18,0,3,,,,,,,,,2,11,48,,,
190070,control_change,18,0,4,,,,,,,,,3,11,48,,,
190080,note_on,120,0,11,,,,,,,,,10,,,,64,102
190080,set_tempo,120,1,0,,,,,,291262,,,,,,,,
190081,note_on,0,0,1,,,,,,,,,0,,,,73,101
190081,note_on,60,0,1,,,,,,,,,0,,,,74,0
190083,note_on,120,0,12,,,,,,,,,11,,,,61,102
190083,control_change,18,0,2,,,,,,,,,1,11,47,,,
190084,note_on,1,0,2,,,,,,,,,1,,,,74,0
190084,note_on,0,0,2,,,,,,,,,1,,,,73,100
190084,control_change,18,0,3,,,,,,,,,2,11,47,,,
190085,note_on,0,0,3,,,,,,,,,2,,,,64,101
190085,note_on,1,0,3,,,,,,,,,2,,,,68,0
190088,note_on,60,0,13,,,,,,,,,12,,,,64,127
190088,control_change,18,0,4,,,,,,,,,3,11,47,,,
190092,note_on,60,0,14,,,,,,,,,13,,,,61,127
190140,note_on,60,0,11,,,,,,,,,10,,,,64,0
190143,note_on,60,0,12,,,,,,,,,11,,,,61,0
190200,note_on,60,0,11,,,,,,,,,10,,,,68,102
190200,set_tempo,120,1,0,,,,,,307692,,,,,,,,
190201,note_on,120,0,1,,,,,,,,,0,,,,73,0
190203,note_on,480,0,5,,,,,,,,,4,,,,64,0
190203,note_on,60,0,12,,,,,,,,,11,,,,64,102
190204,note_on,120,0,2,,,,,,,,,1,,,,73,0
190204,note_on,0,0,2,,,,,,,,,1,,,,68,0
190205,note_on,120,0,3,,,,,,,,,2,,,,64,0
190205,note_on,0,0,3,,,,,,,,,2,,,,73,0
190209,note_on,121,0,4,,,,,,,,,3,,,,64,0
190260,note_on,60,0,11,,,,,,,,,10,,,,68,0
190263,note_on,60,0,12,,,,,,,,,11,,,,64,0
190274,note_on,300,0,15,,,,,,,,,14,,,,37,112
190320,note_on,60,0,11,,,,,,,,,10,,,,73,102
190320,set_tempo,120,1,0,,,,,,330579,,,,,,,,
190321,note_on,120,0,1,,,,,,,,,0,,,,76,101
190323,note_on,60,0,12,,,,,,,,,11,,,,68,102
190324,note_on,120,0,2,,,,,,,,,1,,,,76,100
190328,note_on,240,0,13,,,,,,,,,12,,,,64,0
190332,note_on,240,0,14,,,,,,,,,13,,,,61,0
190334,note_on,0,0,15,,,,,,,,,14,,,,37,112
190334,note_on,60,0,15,,,,,,,,,14,,,,37,0
190380,note_on,60,0,11,,,,,,,,,10,,,,73,0
190383,note_on,60,0,12,,,,,,,,,11,,,,68,0
190440,set_tempo,120,1,0,,,,,,294118,,,,,,,,
190440,note_on,60,0,11,,,,,,,,,10,,,,75,102
190441,note_on,120,0,1,,,,,,,,,0,,,,76,0
190441,note_on,0,0,1,,,,,,,,,0,,,,75,101
190443,note_on,60,0,12,,,,,,,,,11,,,,69,102
190444,note_on,0,0,2,,,,,,,,,1,,,,73,100
190444,note_on,0,0,2,,,,,,,,,1,,,,75,100
190444,note_on,120,0,2,,,,,,,,,1,,,,76,0
190445,note_on,240,0,3,,,,,,,,,2,,,,69,101
190448,note_on,120,0,13,,,,,,,,,12,,,,57,112
190452,note_on,120,0,14,,,,,,,,,13,,,,54,127
190454,note_on,120,0,15,,,,,,,,,14,,,,37,0
190454,note_on,0,0,15,,,,,,,,,14,,,,42,112
190508,note_on,60,0,13,,,,,,,,,12,,,,57,0
190512,note_on,60,0,14,,,,,,,,,13,,,,54,0
190560,set_tempo,120,1,0,,,,,,312500,,,,,,,,
190568,note_on,60,0,13,,,,,,,,,12,,,,63,112
190572,note_on,60,0,14,,,,,,,,,13,,,,57,112
190621,note_on,0,0,1,,,,,,,,,0,,,,76,101
190621,note_on,180,0,1,,,,,,,,,0,,,,75,0
190624,note_on,180,0,2,,,,,,,,,1,,,,75,0
190624,note_on,0,0,2,,,,,,,,,1,,,,76,100
190628,note_on,60,0,13,,,,,,,,,12,,,,63,0
190632,note_on,60,0,14,,,,,,,,,13,,,,57,0
190680,note_on,240,0,11,,,,,,,,,10,,,,75,0
190680,set_tempo,120,1,0,,,,,,330579,,,,,,,,
190681,note_on,0,0,1,,,,,,,,,0,,,,75,101
190681,note_on,60,0,1,,,,,,,,,0,,,,76,0
190683,note_on,240,0,12,,,,,,,,,11,,,,69,0
190684,note_on,60,0,2,,,,,,,,,1,,,,76,0
190684,note_on,0,0,2,,,,,,,,,1,,,,75,100
190688,note_on,60,0,13,,,,,,,,,12,,,,66,112
190692,note_on,60,0,14,,,,,,,,,13,,,,63,112
190694,note_on,240,0,15,,,,,,,,,14,,,,42,0
190748,note_on,60,0,13,,,,,,,,,12,,,,66,0
190752,note_on,60,0,14,,,,,,,,,13,,,,63,0
190800,set_tempo,120,1,0,,,,,,297767,,,,,,,,
190800,note_on,120,0,11,,,,,,,,,10,,,,72,102
190801,note_on,120,0,1,,,,,,,,,0,,,,75,0
190801,note_on,0,0,1,,,,,,,,,0,,,,78,101
190803,note_on,120,0,12,,,,,,,,,11,,,,66,102
190804,note_on,0,0,2,,,,,,,,,1,,,,78,100
190804,note_on,0,0,2,,,,,,,,,1,,,,72,100
190804,note_on,0,0,2,,,,,,,,,1,,,,73,0
190804,note_on,120,0,2,,,,,,,,,1,,,,75,0
190805,note_on,360,0,3,,,,,,,,,2,,,,69,0
190805,note_on,0,0,3,,,,,,,,,2,,,,68,101
190808,note_on,60,0,13,,,,,,,,,12,,,,56,112
190812,note_on,60,0,14,,,,,,,,,13,,,,54,112
190814,note_on,120,0,15,,,,,,,,,14,,,,44,112
190868,note_on,60,0,13,,,,,,,,,12,,,,56,0
190872,note_on,60,0,14,,,,,,,,,13,,,,54,0
190920,set_tempo,120,1,0,,,,,,315789,,,,,,,,
190921,note_on,120,0,1,,,,,,,,,0,,,,78,0
190921,note_on,0,0,1,,,,,,,,,0,,,,76,101
190924,note_on,120,0,2,,,,,,,,,1,,,,78,0
190924,note_on,0,0,2,,,,,,,,,1,,,,76,100
190928,note_on,60,0,13,,,,,,,,,12,,,,63,112
190932,note_on,60,0,14,,,,,,,,,13,,,,56,112
190988,note_on,60,0,13,,,,,,,,,12,,,,63,0
190992,note_on,60,0,14,,,,,,,,,13,,,,56,0
191040,set_tempo,120,1,0,,,,,,330579,,,,,,,,
191040,note_on,240,0,11,,,,,,,,,10,,,,72,0
191041,note_on,120,0,1,,,,,,,,,0,,,,76,0
191041,note_on,0,0,1,,,,,,,,,0,,,,75,101
191043,note_on,240,0,12,,,,,,,,,11,,,,66,0
191044,note_on,120,0,2,,,,,,,,,1,,,,76,0
191044,note_on,0,0,2,,,,,,,,,1,,,,75,100
191045,note_on,240,0,3,,,,,,,,,2,,,,66,101
191048,note_on,60,0,13,,,,,,,,,12,,,,66,112
191052,note_on,60,0,14,,,,,,,,,13,,,,63,112
191054,note_on,240,0,15,,,,,,,,,14,,,,44,0
191108,note_on,60,0,13,,,,,,,,,12,,,,66,0
191112,note_on,60,0,14,,,,,,,,,13,,,,63,0
191160,set_tempo,120,1,0,,,,,,303030,,,,,,,,
191160,note_on,120,0,11,,,,,,,,,10,,,,73,102
191161,note_on,120,0,1,,,,,,,,,0,,,,75,0
191161,note_on,0,0,1,,,,,,,,,0,,,,73,101
191163,note_on,120,0,12,,,,,,,,,11,,,,64,102
191164,note_on,0,0,2,,,,,,,,,1,,,,73,100
191164,note_on,0,0,2,,,,,,,,,1,,,,72,0
191164,note_on,120,0,2,,,,,,,,,1,,,,75,0
191165,note_on,0,0,3,,,,,,,,,2,,,,68,0
191165,note_on,0,0,3,,,,,,,,,2,,,,68,101
191165,note_on,0,0,3,,,,,,,,,2,,,,64,101
191165,note_on,120,0,3,,,,,,,,,2,,,,66,0
191168,note_on,60,0,13,,,,,,,,,12,,,,61,112
191168,note_on,0,0,13,,,,,,,,,12,,,,64,112
191172,note_on,60,0,14,,,,,,,,,13,,,,61,112
191174,note_on,120,0,15,,,,,,,,,14,,,,37,112
191220,note_on,60,0,11,,,,,,,,,10,,,,73,0
191223,note_on,60,0,12,,,,,,,,,11,,,,64,0
191232,note_on,60,0,14,,,,,,,,,13,,,,61,0
191280,set_tempo,120,1,0,,,,,,320000,,,,,,,,
191280,note_on,60,0,11,,,,,,,,,10,,,,68,102
191283,note_on,60,0,12,,,,,,,,,11,,,,68,102
191292,note_on,60,0,14,,,,,,,,,13,,,,56,112
191340,note_on,60,0,11,,,,,,,,,10,,,,68,0
191343,note_on,60,0,12,,,,,,,,,11,,,,68,0
191352,note_on,60,0,14,,,,,,,,,13,,,,56,0
191400,note_on,60,0,11,,,,,,,,,10,,,,64,102
191400,set_tempo,120,1,0,,,,,,330579,,,,,,,,
191403,note_on,60,0,12,,,,,,,,,11,,,,64,102
191412,note_on,60,0,14,,,,,,,,,13,,,,52,112
191414,note_on,240,0,15,,,,,,,,,14,,,,37,0
191460,note_on,60,0,11,,,,,,,,,10,,,,64,0
191463,note_on,60,0,12,,,,,,,,,11,,,,64,0
191472,note_on,60,0,14,,,,,,,,,13,,,,52,0
191520,note_on,60,0,11,,,,,,,,,10,,,,61,102
191520,set_tempo,120,1,0,,,,,,291262,,,,,,,,
191523,note_on,60,0,12,,,,,,,,,11,,,,56,102
191532,note_on,60,0,14,,,,,,,,,13,,,,49,112
191580,note_on,60,0,11,,,,,,,,,10,,,,61,0
191583,note_on,60,0,12,,,,,,,,,11,,,,56,0
191592,note_on,60,0,14,,,,,,,,,13,,,,49,0
191640,set_tempo,120,1,0,,,,,,315789,,,,,,,,
191640,control_change,0,0,11,,,,,,,,,10,11,64,,,
191640,note_on,60,0,11,,,,,,,,,10,,,,61,102
191641,note_on,480,0,1,,,,,,,,,0,,,,73,0
191643,note_on,0,0,12,,,,,,,,,11,,,,61,102
191643,control_change,60,0,12,,,,,,,,,11,11,64,,,
191644,note_on,480,0,2,,,,,,,,,1,,,,73,0
191645,note_on,480,0,3,,,,,,,,,2,,,,64,0
191645,note_on,0,0,3,,,,,,,,,2,,,,68,0
191648,note_on,0,0,13,,,,,,,,,12,,,,61,0
191648,note_on,480,0,13,,,,,,,,,12,,,,64,0
191648,control_change,0,0,13,,,,,,,,,12,11,64,,,
191648,note_on,0,0,13,,,,,,,,,12,,,,61,112
191652,control_change,60,0,14,,,,,,,,,13,11,64,,,
191652,note_on,0,0,14,,,,,,,,,13,,,,49,112
191654,note_on,240,0,15,,,,,,,,,14,,,,37,112
191654,control_change,0,0,15,,,,,,,,,14,11,83,,,
191700,note_on,60,0,11,,,,,,,,,10,,,,61,0
191703,note_on,60,0,12,,,,,,,,,11,,,,61,0
191708,note_on,60,0,13,,,,,,,,,12,,,,61,0
191712,note_on,60,0,14,,,,,,,,,13,,,,49,0
191714,note_on,60,0,15,,,,,,,,,14,,,,37,0
191760,note_on,60,0,11,,,,,,,,,10,,,,64,102
191760,set_tempo,120,1,0,,,,,,375000,,,,,,,,
191763,note_on,60,0,12,,,,,,,,,11,,,,64,102
191768,note_on,60,0,13,,,,,,,,,12,,,,64,112
191772,note_on,60,0,14,,,,,,,,,13,,,,52,112
191774,note_on,60,0,15,,,,,,,,,14,,,,40,112
191820,note_on,60,0,11,,,,,,,,,10,,,,64,0
191821,note_on,180,0,1,,,,,,,,,0,,,,85,101
191821,note_on,0,0,1,,,,,,,,,0,,,,81,101
191821,control_change,0,0,1,,,,,,,,,0,11,70,,,
191823,note_on,60,0,12,,,,,,,,,11,,,,64,0
191824,note_on,0,0,2,,,,,,,,,1,,,,69,100
191824,note_on,0,0,2,,,,,,,,,1,,,,73,100
191824,control_change,180,0,2,,,,,,,,,1,11,70,,,
191825,note_on,180,0,3,,,,,,,,,2,,,,76,101
191825,control_change,0,0,3,,,,,,,,,2,11,70,,,
191825,note_on,0,0,3,,,,,,,,,2,,,,69,101
191828,note_on,60,0,13,,,,,,,,,12,,,,64,0
191829,note_on,1620,0,4,,,,,,,,,3,,,,64,100
191829,control_change,0,0,4,,,,,,,,,3,11,77,,,
191829,note_on,0,0,4,,,,,,,,,3,,,,45,100
191832,note_on,60,0,14,,,,,,,,,13,,,,52,0
191834,note_on,60,0,15,,,,,,,,,14,,,,40,0
191880,note_on,60,0,11,,,,,,,,,10,,,,57,102
191880,set_tempo,120,1,0,,,,,,285714,,,,,,,,
191880,control_change,0,0,11,,,,,,,,,10,11,64,,,
191881,note_on,60,0,1,,,,,,,,,0,,,,81,0
191881,note_on,0,0,1,,,,,,,,,0,,,,81,116
191881,note_on,0,0,1,,,,,,,,,0,,,,85,116
191881,note_on,0,0,1,,,,,,,,,0,,,,85,0
191881,control_change,0,0,1,,,,,,,,,0,11,78,,,
191882,control_change,17280,0,7,,,,,,,,,6,11,82,,,
191883,note_on,0,0,5,,,,,,,,,4,,,,64,100
191883,note_on,0,0,12,,,,,,,,,11,,,,57,102
191883,control_change,60,0,12,,,,,,,,,11,11,64,,,
191883,control_change,1680,0,5,,,,,,,,,4,11,82,,,
191884,note_on,60,0,2,,,,,,,,,1,,,,69,0
191884,note_on,0,0,2,,,,,,,,,1,,,,73,0
191884,note_on,0,0,2,,,,,,,,,1,,,,69,115
191884,note_on,0,0,2,,,,,,,,,1,,,,73,115
191884,control_change,0,0,2,,,,,,,,,1,11,78,,,
191884,control_change,0,0,6,,,,,,,,,5,11,82,,,
191884,note_on,4560,0,6,,,,,,,,,5,,,,52,100
191885,note_on,60,0,3,,,,,,,,,2,,,,69,0
191885,note_on,0,0,3,,,,,,,,,2,,,,76,0
191885,note_on,0,0,3,,,,,,,,,2,,,,76,116
191885,control_change,0,0,3,,,,,,,,,2,11,78,,,
191885,note_on,0,0,3,,,,,,,,,2,,,,69,116
191887,control_change,0,0,8,,,,,,,,,7,11,82,,,
191887,note_on,0,0,8,,,,,,,,,7,,,,57,125
191887,note_on,4560,0,8,,,,,,,,,7,,,,61,125
191888,note_on,0,0,13,,,,,,,,,12,,,,57,112
191888,control_change,60,0,13,,,,,,,,,12,11,64,,,
191889,note_on,0,0,4,,,,,,,,,3,,,,64,0
191889,note_on,0,0,4,,,,,,,,,3,,,,45,100
191889,note_on,60,0,4,,,,,,,,,3,,,,45,0
191889,note_on,0,0,4,,,,,,,,,3,,,,64,115
191889,control_change,0,0,4,,,,,,,,,3,11,87,,,
191892,note_on,60,0,14,,,,,,,,,13,,,,45,112
191892,control_change,0,0,14,,,,,,,,,13,11,64,,,
191893,control_change,4560,0,9,,,,,,,,,8,11,82,,,
191893,note_on,0,0,9,,,,,,,,,8,,,,45,125
191894,control_change,0,0,15,,,,,,,,,14,11,83,,,
191894,note_on,60,0,15,,,,,,,,,14,,,,33,127
192000,set_tempo,120,1,0,,,,,,300000,,,,,,,,
192000,note_on,120,0,11,,,,,,,,,10,,,,57,0
192003,note_on,120,0,12,,,,,,,,,11,,,,57,0
192008,note_on,120,0,13,,,,,,,,,12,,,,57,0
192008,note_on,0,0,13,,,,,,,,,12,,,,52,112
192012,note_on,0,0,14,,,,,,,,,13,,,,49,112
192012,note_on,120,0,14,,,,,,,,,13,,,,45,0
192063,note_on,180,0,5,,,,,,,,,4,,,,64,0
192063,note_on,0,0,5,,,,,,,,,4,,,,64,100
192064,note_on,180,0,6,,,,,,,,,5,,,,52,0
192064,note_on,0,0,6,,,,,,,,,5,,,,52,100
192067,note_on,180,0,8,,,,,,,,,7,,,,57,0
192067,note_on,0,0,8,,,,,,,,,7,,,,61,110
192067,note_on,0,0,8,,,,,,,,,7,,,,61,0
192067,note_on,0,0,8,,,,,,,,,7,,,,57,110
192068,note_on,60,0,13,,,,,,,,,12,,,,52,0
192072,note_on,60,0,14,,,,,,,,,13,,,,49,0
192120,set_tempo,120,1,0,,,,,,327869,,,,,,,,
192123,note_on,60,0,5,,,,,,,,,4,,,,64,0
192123,note_on,0,0,5,,,,,,,,,4,,,,64,100
192124,note_on,60,0,6,,,,,,,,,5,,,,52,0
192124,note_on,0,0,6,,,,,,,,,5,,,,52,100
192127,note_on,60,0,8,,,,,,,,,7,,,,61,0
192127,note_on,0,0,8,,,,,,,,,7,,,,57,0
192127,note_on,0,0,8,,,,,,,,,7,,,,61,110
192127,note_on,0,0,8,,,,,,,,,7,,,,57,110
192128,note_on,60,0,13,,,,,,,,,12,,,,57,112
192129,note_on,240,0,4,,,,,,,,,3,,,,45,0
192132,note_on,60,0,14,,,,,,,,,13,,,,52,112
192133,note_on,240,0,9,,,,,,,,,8,,,,45,0
192134,note_on,240,0,15,,,,,,,,,14,,,,33,0
192188,note_on,60,0,13,,,,,,,,,12,,,,57,0
192192,note_on,60,0,14,,,,,,,,,13,,,,52,0
192240,set_tempo,120,1,0,,,,,,285714,,,,,,,,
192240,note_on,240,0,11,,,,,,,,,10,,,,61,102
192243,note_on,120,0,5,,,,,,,,,4,,,,64,0
192243,note_on,0,0,5,,,,,,,,,4,,,,64,115
192243,note_on,240,0,12,,,,,,,,,11,,,,57,102
192244,note_on,0,0,6,,,,,,,,,5,,,,52,115
192244,note_on,120,0,6,,,,,,,,,5,,,,52,0
192247,note_on,120,0,8,,,,,,,,,7,,,,57,0
192247,note_on,0,0,8,,,,,,,,,7,,,,61,0
192247,note_on,0,0,8,,,,,,,,,7,,,,57,125
192247,note_on,0,0,8,,,,,,,,,7,,,,61,125
192248,note_on,60,0,13,,,,,,,,,12,,,,61,127
192252,note_on,60,0,14,,,,,,,,,13,,,,57,127
192300,note_on,60,0,11,,,,,,,,,10,,,,61,0
192303,note_on,60,0,12,,,,,,,,,11,,,,57,0
192360,note_on,60,0,11,,,,,,,,,10,,,,64,102
192360,set_tempo,120,1,0,,,,,,300000,,,,,,,,
192363,note_on,60,0,12,,,,,,,,,11,,,,61,102
192420,note_on,60,0,11,,,,,,,,,10,,,,64,0
192423,note_on,60,0,12,,,,,,,,,11,,,,61,0
192429,note_on,300,0,4,,,,,,,,,3,,,,45,100
192433,note_on,300,0,9,,,,,,,,,8,,,,45,110
192434,note_on,300,0,15,,,,,,,,,14,,,,33,112
192459,note_on,30,0,4,,,,,,,,,3,,,,45,0
192463,note_on,30,0,9,,,,,,,,,8,,,,45,0
192480,set_tempo,120,1,0,,,,,,327869,,,,,,,,
192480,note_on,60,0,11,,,,,,,,,10,,,,69,102
192483,note_on,60,0,12,,,,,,,,,11,,,,64,102
192483,note_on,240,0,5,,,,,,,,,4,,,,64,0
192484,note_on,240,0,6,,,,,,,,,5,,,,52,0
192487,note_on,0,0,8,,,,,,,,,7,,,,57,0
192487,note_on,240,0,8,,,,,,,,,7,,,,61,0
192488,note_on,240,0,13,,,,,,,,,12,,,,61,0
192489,note_on,30,0,4,,,,,,,,,3,,,,45,100
192492,note_on,240,0,14,,,,,,,,,13,,,,57,0
192493,note_on,30,0,9,,,,,,,,,8,,,,45,110
192494,note_on,60,0,15,,,,,,,,,14,,,,33,0
192494,note_on,0,0,15,,,,,,,,,14,,,,33,112
192540,note_on,60,0,11,,,,,,,,,10,,,,69,0
192541,note_on,0,0,1,,,,,,,,,0,,,,81,101
192541,note_on,0,0,1,,,,,,,,,0,,,,85,101
192541,note_on,660,0,1,,,,,,,,,0,,,,81,0
192541,note_on,0,0,1,,,,,,,,,0,,,,85,0
192543,note_on,60,0,12,,,,,,,,,11,,,,64,0
192544,note_on,0,0,2,,,,,,,,,1,,,,69,100
192544,note_on,0,0,2,,,,,,,,,1,,,,73,100
192544,note_on,660,0,2,,,,,,,,,1,,,,73,0
192544,note_on,0,0,2,,,,,,,,,1,,,,69,0
192545,note_on,660,0,3,,,,,,,,,2,,,,76,0
192545,note_on,0,0,3,,,,,,,,,2,,,,69,0
192545,note_on,0,0,3,,,,,,,,,2,,,,69,101
192545,note_on,0,0,3,,,,,,,,,2,,,,76,101
192549,note_on,0,0,4,,,,,,,,,3,,,,64,100
192549,note_on,60,0,4,,,,,,,,,3,,,,45,0
192549,note_on,0,0,4,,,,,,,,,3,,,,64,0
192553,note_on,60,0,9,,,,,,,,,8,,,,45,0
192600,note_on,60,0,11,,,,,,,,,10,,,,73,115
192600,set_tempo,120,1,0,,,,,,285714,,,,,,,,
192601,note_on,60,0,1,,,,,,,,,0,,,,85,0
192601,note_on,0,0,1,,,,,,,,,0,,,,81,0
192601,note_on,0,0,1,,,,,,,,,0,,,,85,101
192601,note_on,0,0,1,,,,,,,,,0,,,,81,101
192603,note_on,60,0,12,,,,,,,,,11,,,,69,115
192604,note_on,0,0,2,,,,,,,,,1,,,,69,100
192604,note_on,60,0,2,,,,,,,,,1,,,,73,0
192604,note_on,0,0,2,,,,,,,,,1,,,,69,0
192604,note_on,0,0,2,,,,,,,,,1,,,,73,100
192605,note_on,0,0,3,,,,,,,,,2,,,,69,101
192605,note_on,0,0,3,,,,,,,,,2,,,,76,101
192605,note_on,0,0,3,,,,,,,,,2,,,,76,0
192605,note_on,60,0,3,,,,,,,,,2,,,,69,0
192609,note_on,60,0,4,,,,,,,,,3,,,,64,0
192609,note_on,0,0,4,,,,,,,,,3,,,,45,115
192609,note_on,0,0,4,,,,,,,,,3,,,,64,100
192613,note_on,60,0,9,,,,,,,,,8,,,,45,125
192614,note_on,0,0,15,,,,,,,,,14,,,,33,127
192614,note_on,120,0,15,,,,,,,,,14,,,,33,0
192720,set_tempo,120,1,0,,,,,,300000,,,,,,,,
192720,control_change,120,0,11,,,,,,,,,10,11,64,,,
192723,control_change,120,0,12,,,,,,,,,11,11,64,,,
192728,note_on,240,0,13,,,,,,,,,12,,,,52,112
192732,note_on,240,0,14,,,,,,,,,13,,,,49,112
192737,control_change,17,0,11,,,,,,,,,10,11,61,,,
192740,control_change,17,0,12,,,,,,,,,11,11,61,,,
192755,control_change,18,0,11,,,,,,,,,10,11,58,,,
192758,control_change,18,0,12,,,,,,,,,11,11,58,,,
192773,control_change,18,0,11,,,,,,,,,10,11,56,,,
192776,control_change,18,0,12,,,,,,,,,11,11,56,,,
192783,note_on,300,0,5,,,,,,,,,4,,,,64,100
192784,note_on,300,0,6,,,,,,,,,5,,,,52,100
192787,note_on,300,0,8,,,,,,,,,7,,,,57,110
192787,note_on,0,0,8,,,,,,,,,7,,,,61,110
192788,note_on,60,0,13,,,,,,,,,12,,,,52,0
192791,control_change,18,0,11,,,,,,,,,10,11,53,,,
192792,note_on,60,0,14,,,,,,,,,13,,,,49,0
192794,control_change,18,0,12,,,,,,,,,11,11,53,,,
192809,control_change,18,0,11,,,,,,,,,10,11,50,,,
192812,control_change,18,0,12,,,,,,,,,11,11,50,,,
192827,control_change,18,0,11,,,,,,,,,10,11,47,,,
192830,control_change,18,0,12,,,,,,,,,11,11,47,,,
192840,note_on,13,0,11,,,,,,,,,10,,,,73,0
192840,set_tempo,120,1,0,,,,,,327869,,,,,,,,
192841,note_on,0,0,1,,,,,,,,,0,,,,81,101
192841,note_on,0,0,1,,,,,,,,,0,,,,85,101
192841,note_on,0,0,1,,,,,,,,,0,,,,85,0
192841,note_on,240,0,1,,,,,,,,,0,,,,81,0
192843,note_on,13,0,12,,,,,,,,,11,,,,69,0
192843,note_on,0,0,5,,,,,,,,,4,,,,64,100
192843,note_on,60,0,5,,,,,,,,,4,,,,64,0
192844,note_on,0,0,6,,,,,,,,,5,,,,52,100
192844,note_on,60,0,6,,,,,,,,,5,,,,52,0
192844,note_on,240,0,2,,,,,,,,,1,,,,73,0
192844,note_on,0,0,2,,,,,,,,,1,,,,69,0
192844,note_on,0,0,2,,,,,,,,,1,,,,69,100
192844,note_on,0,0,2,,,,,,,,,1,,,,73,100
192845,note_on,240,0,3,,,,,,,,,2,,,,69,0
192845,note_on,0,0,3,,,,,,,,,2,,,,76,101
192845,note_on,0,0,3,,,,,,,,,2,,,,69,101
192845,note_on,0,0,3,,,,,,,,,2,,,,76,0
192847,note_on,0,0,8,,,,,,,,,7,,,,57,110
192847,note_on,0,0,8,,,,,,,,,7,,,,61,110
192847,note_on,0,0,8,,,,,,,,,7,,,,57,0
192847,note_on,60,0,8,,,,,,,,,7,,,,61,0
192848,note_on,60,0,13,,,,,,,,,12,,,,57,112
192849,note_on,0,0,4,,,,,,,,,3,,,,64,100
192849,note_on,240,0,4,,,,,,,,,3,,,,45,0
192849,note_on,0,0,4,,,,,,,,,3,,,,64,0
192852,note_on,60,0,14,,,,,,,,,13,,,,52,112
192853,note_on,240,0,9,,,,,,,,,8,,,,45,0
192854,note_on,240,0,15,,,,,,,,,14,,,,33,0
192908,note_on,60,0,13,,,,,,,,,12,,,,57,0
192912,note_on,60,0,14,,,,,,,,,13,,,,52,0
192960,note_on,0,0,11,,,,,,,,,10,,,,64,102
192960,control_change,120,0,11,,,,,,,,,10,11,64,,,
192960,set_tempo,120,1,0,,,,,,285714,,,,,,,,
192961,note_on,120,0,1,,,,,,,,,0,,,,81,0
192961,note_on,0,0,1,,,,,,,,,0,,,,85,0
192961,note_on,0,0,1,,,,,,,,,0,,,,81,101
192961,note_on,0,0,1,,,,,,,,,0,,,,85,101
192963,note_on,0,0,5,,,,,,,,,4,,,,64,115
192963,control_change,0,0,12,,,,,,,,,11,11,64,,,
192963,note_on,120,0,12,,,,,,,,,11,,,,61,102
192963,note_on,120,0,5,,,,,,,,,4,,,,64,0
192964,note_on,120,0,6,,,,,,,,,5,,,,52,0
192964,note_on,0,0,2,,,,,,,,,1,,,,69,100
192964,note_on,0,0,2,,,,,,,,,1,,,,73,100
192964,note_on,0,0,6,,,,,,,,,5,,,,52,115
192964,note_on,0,0,2,,,,,,,,,1,,,,69,0
192964,note_on,120,0,2,,,,,,,,,1,,,,73,0
192965,note_on,0,0,3,,,,,,,,,2,,,,76,0
192965,note_on,0,0,3,,,,,,,,,2,,,,69,101
192965,note_on,0,0,3,,,,,,,,,2,,,,76,101
192965,note_on,120,0,3,,,,,,,,,2,,,,69,0
192967,note_on,0,0,8,,,,,,,,,7,,,,61,125
192967,note_on,0,0,8,,,,,,,,,7,,,,57,125
192967,note_on,0,0,8,,,,,,,,,7,,,,61,0
192967,note_on,120,0,8,,,,,,,,,7,,,,57,0
192968,note_on,60,0,13,,,,,,,,,12,,,,61,127
192969,note_on,0,0,4,,,,,,,,,3,,,,64,100
192969,note_on,120,0,4,,,,,,,,,3,,,,64,0
192972,note_on,60,0,14,,,,,,,,,13,,,,57,127
193020,note_on,60,0,11,,,,,,,,,10,,,,64,0
193023,note_on,60,0,12,,,,,,,,,11,,,,61,0
193080,note_on,60,0,11,,,,,,,,,10,,,,69,102
193080,set_tempo,120,1,0,,,,,,300000,,,,,,,,
193081,note_on,120,0,1,,,,,,,,,0,,,,85,0
193081,note_on,0,0,1,,,,,,,,,0,,,,83,101
193083,note_on,60,0,12,,,,,,,,,11,,,,64,102
193084,note_on,0,0,2,,,,,,,,,1,,,,71,100
193084,note_on,120,0,2,,,,,,,,,1,,,,73,0
193085,note_on,0,0,3,,,,,,,,,2,,,,74,101
193085,note_on,120,0,3,,,,,,,,,2,,,,76,0
193089,note_on,0,0,4,,,,,,,,,3,,,,62,100
193089,note_on,120,0,4,,,,,,,,,3,,,,64,0
193140,note_on,60,0,11,,,,,,,,,10,,,,69,0
193143,note_on,60,0,12,,,,,,,,,11,,,,64,0
193149,note_on,60,0,4,,,,,,,,,3,,,,45,100
193153,note_on,300,0,9,,,,,,,,,8,,,,45,110
193154,note_on,300,0,15,,,,,,,,,14,,,,33,112
193179,note_on,30,0,4,,,,,,,,,3,,,,45,0
193183,note_on,30,0,9,,,,,,,,,8,,,,45,0
193200,set_tempo,120,1,0,,,,,,327869,,,,,,,,
193200,note_on,60,0,11,,,,,,,,,10,,,,73,102
193201,note_on,120,0,1,,,,,,,,,0,,,,83,0
193201,note_on,0,0,1,,,,,,,,,0,,,,81,0
193201,note_on,0,0,1,,,,,,,,,0,,,,81,101
193203,note_on,60,0,12,,,,,,,,,11,,,,69,102
193203,note_on,240,0,5,,,,,,,,,4,,,,64,0
193204,note_on,240,0,6,,,,,,,,,5,,,,52,0
193204,note_on,120,0,2,,,,,,,,,1,,,,71,0
193204,note_on,0,0,2,,,,,,,,,1,,,,69,0
193204,note_on,0,0,2,,,,,,,,,1,,,,69,100
193205,note_on,120,0,3,,,,,,,,,2,,,,74,0
193205,note_on,0,0,3,,,,,,,,,2,,,,69,0
193205,note_on,0,0,3,,,,,,,,,2,,,,73,101
193207,note_on,240,0,8,,,,,,,,,7,,,,61,0
193207,note_on,0,0,8,,,,,,,,,7,,,,57,0
193208,note_on,240,0,13,,,,,,,,,12,,,,61,0
193209,note_on,0,0,4,,,,,,,,,3,,,,61,100
193209,note_on,0,0,4,,,,,,,,,3,,,,45,100
193209,note_on,30,0,4,,,,,,,,,3,,,,62,0
193212,note_on,240,0,14,,,,,,,,,13,,,,57,0
193213,note_on,30,0,9,,,,,,,,,8,,,,45,110
193214,note_on,0,0,15,,,,,,,,,14,,,,33,112
193214,note_on,60,0,15,,,,,,,,,14,,,,33,0
193260,note_on,60,0,11,,,,,,,,,10,,,,73,0
193263,note_on,60,0,12,,,,,,,,,11,,,,69,0
193269,note_on,60,0,4,,,,,,,,,3,,,,45,0
193273,note_on,60,0,9,,,,,,,,,8,,,,45,0
193320,note_on,0,0,11,,,,,,,,,10,,,,66,115
193320,note_on,60,0,11,,,,,,,,,10,,,,74,115
193320,set_tempo,120,1,0,,,,,,285714,,,,,,,,
193321,note_on,120,0,1,,,,,,,,,0,,,,81,0
193321,note_on,0,0,1,,,,,,,,,0,,,,81,101
193321,note_on,0,0,1,,,,,,,,,0,,,,86,101
193323,note_on,60,0,12,,,,,,,,,11,,,,69,115
193324,note_on,0,0,2,,,,,,,,,1,,,,74,100
193324,note_on,120,0,2,,,,,,,,,1,,,,69,0
193324,note_on,0,0,2,,,,,,,,,1,,,,69,100
193325,note_on,120,0,3,,,,,,,,,2,,,,73,0
193325,note_on,0,0,3,,,,,,,,,2,,,,78,101
193325,note_on,0,0,3,,,,,,,,,2,,,,69,101
193329,note_on,0,0,4,,,,,,,,,3,,,,45,115
193329,note_on,60,0,4,,,,,,,,,3,,,,61,0
193329,note_on,0,0,4,,,,,,,,,3,,,,66,100
193333,note_on,60,0,9,,,,,,,,,8,,,,45,125
193334,note_on,0,0,15,,,,,,,,,14,,,,33,127
193334,note_on,120,0,15,,,,,,,,,14,,,,33,0
193440,control_change,120,0,11,,,,,,,,,10,11,64,,,
193440,set_tempo,120,1,0,,,,,,300000,,,,,,,,
193443,control_change,120,0,12,,,,,,,,,11,11,64,,,
193448,note_on,240,0,13,,,,,,,,,12,,,,54,112
193452,note_on,240,0,14,,,,,,,,,13,,,,50,112
193457,control_change,17,0,11,,,,,,,,,10,11,61,,,
193460,control_change,17,0,12,,,,,,,,,11,11,61,,,
193475,control_change,18,0,11,,,,,,,,,10,11,58,,,
193478,control_change,18,0,12,,,,,,,,,11,11,58,,,
193493,control_change,18,0,11,,,,,,,,,10,11,56,,,
193496,control_change,18,0,12,,,,,,,,,11,11,56,,,
193503,note_on,300,0,5,,,,,,,,,4,,,,62,100
193504,note_on,300,0,6,,,,,,,,,5,,,,57,100
193507,note_on,0,0,8,,,,,,,,,7,,,,66,110
193507,note_on,300,0,8,,,,,,,,,7,,,,54,110
193508,note_on,60,0,13,,,,,,,,,12,,,,54,0
193511,control_change,18,0,11,,,,,,,,,10,11,53,,,
193512,note_on,60,0,14,,,,,,,,,13,,,,50,0
193514,control_change,18,0,12,,,,,,,,,11,11,53,,,
193529,control_change,18,0,11,,,,,,,,,10,11,50,,,
193532,control_change,18,0,12,,,,,,,,,11,11,50,,,
193547,control_change,18,0,11,,,,,,,,,10,11,47,,,
193550,control_change,18,0,12,,,,,,,,,11,11,47,,,
193560,note_on,0,0,11,,,,,,,,,10,,,,74,0
193560,note_on,13,0,11,,,,,,,,,10,,,,66,0
193560,set_tempo,120,1,0,,,,,,327869,,,,,,,,
193563,note_on,13,0,12,,,,,,,,,11,,,,69,0
193563,note_on,0,0,5,,,,,,,,,4,,,,62,100
193563,note_on,60,0,5,,,,,,,,,4,,,,62,0
193564,note_on,0,0,6,,,,,,,,,5,,,,57,100
193564,note_on,60,0,6,,,,,,,,,5,,,,57,0
193567,note_on,60,0,8,,,,,,,,,7,,,,66,0
193567,note_on,0,0,8,,,,,,,,,7,,,,54,110
193567,note_on,0,0,8,,,,,,,,,7,,,,54,0
193567,note_on,0,0,8,,,,,,,,,7,,,,66,110
193568,note_on,60,0,13,,,,,,,,,12,,,,57,112
193569,note_on,240,0,4,,,,,,,,,3,,,,45,0
193572,note_on,60,0,14,,,,,,,,,13,,,,54,112
193573,note_on,240,0,9,,,,,,,,,8,,,,45,0
193574,note_on,240,0,15,,,,,,,,,14,,,,33,0
193628,note_on,60,0,13,,,,,,,,,12,,,,57,0
193632,note_on,60,0,14,,,,,,,,,13,,,,54,0
193680,set_tempo,120,1,0,,,,,,285714,,,,,,,,
193680,control_change,120,0,11,,,,,,,,,10,11,64,,,
193680,note_on,0,0,11,,,,,,,,,10,,,,66,102
193683,note_on,0,0,5,,,,,,,,,4,,,,62,115
193683,note_on,120,0,5,,,,,,,,,4,,,,62,0
193683,note_on,120,0,12,,,,,,,,,11,,,,62,102
193683,control_change,0,0,12,,,,,,,,,11,11,64,,,
193684,note_on,120,0,6,,,,,,,,,5,,,,57,0
193684,note_on,0,0,6,,,,,,,,,5,,,,57,115
193687,note_on,0,0,8,,,,,,,,,7,,,,66,0
193687,note_on,120,0,8,,,,,,,,,7,,,,54,0
193687,note_on,0,0,8,,,,,,,,,7,,,,54,125
193687,note_on,0,0,8,,,,,,,,,7,,,,66,125
193688,note_on,60,0,13,,,,,,,,,12,,,,62,127
193692,note_on,60,0,14,,,,,,,,,13,,,,57,127
193740,note_on,60,0,11,,,,,,,,,10,,,,66,0
193743,note_on,60,0,12,,,,,,,,,11,,,,62,0
193800,note_on,60,0,11,,,,,,,,,10,,,,69,102
193800,set_tempo,120,1,0,,,,,,300000,,,,,,,,
193803,note_on,60,0,12,,,,,,,,,11,,,,66,102
193860,note_on,60,0,11,,,,,,,,,10,,,,69,0
193863,note_on,60,0,12,,,,,,,,,11,,,,66,0
193869,note_on,300,0,4,,,,,,,,,3,,,,45,100
193873,note_on,300,0,9,,,,,,,,,8,,,,45,110
193874,note_on,300,0,15,,,,,,,,,14,,,,33,112
193899,note_on,30,0,4,,,,,,,,,3,,,,45,0
193903,note_on,30,0,9,,,,,,,,,8,,,,45,0
193920,note_on,60,0,11,,,,,,,,,10,,,,74,102
193920,set_tempo,120,1,0,,,,,,352941,,,,,,,,
193923,note_on,60,0,12,,,,,,,,,11,,,,69,102
193923,note_on,240,0,5,,,,,,,,,4,,,,62,0
193924,note_on,240,0,6,,,,,,,,,5,,,,57,0
193927,note_on,0,0,8,,,,,,,,,7,,,,54,0
193927,note_on,240,0,8,,,,,,,,,7,,,,66,0
193928,note_on,240,0,13,,,,,,,,,12,,,,62,0
193929,note_on,30,0,4,,,,,,,,,3,,,,45,100
193932,note_on,240,0,14,,,,,,,,,13,,,,57,0
193933,note_on,30,0,9,,,,,,,,,8,,,,45,110
193934,note_on,60,0,15,,,,,,,,,14,,,,33,0
193934,note_on,0,0,15,,,,,,,,,14,,,,33,112
193980,note_on,60,0,11,,,,,,,,,10,,,,74,0
193983,note_on,60,0,12,,,,,,,,,11,,,,69,0
193989,note_on,60,0,4,,,,,,,,,3,,,,45,0
193993,note_on,60,0,9,,,,,,,,,8,,,,45,0
194040,note_on,60,0,11,,,,,,,,,10,,,,73,115
194040,note_on,0,0,11,,,,,,,,,10,,,,64,115
194040,set_tempo,120,1,0,,,,,,285714,,,,,,,,
194041,note_on,720,0,1,,,,,,,,,0,,,,86,0
194041,note_on,0,0,1,,,,,,,,,0,,,,85,101
194043,note_on,60,0,12,,,,,,,,,11,,,,69,115
194044,note_on,0,0,2,,,,,,,,,1,,,,73,100
194044,note_on,720,0,2,,,,,,,,,1,,,,74,0
194045,note_on,720,0,3,,,,,,,,,2,,,,78,0
194045,note_on,0,0,3,,,,,,,,,2,,,,76,101
194049,note_on,60,0,4,,,,,,,,,3,,,,66,0
194049,note_on,0,0,4,,,,,,,,,3,,,,64,100
194049,note_on,0,0,4,,,,,,,,,3,,,,45,115
194053,note_on,60,0,9,,,,,,,,,8,,,,45,125
194054,note_on,120,0,15,,,,,,,,,14,,,,33,0
194054,note_on,0,0,15,,,,,,,,,14,,,,33,127
194160,control_change,120,0,11,,,,,,,,,10,11,64,,,
194160,set_tempo,120,1,0,,,,,,300000,,,,,,,,
194163,control_change,120,0,12,,,,,,,,,11,11,64,,,
194168,note_on,240,0,13,,,,,,,,,12,,,,52,112
194172,note_on,240,0,14,,,,,,,,,13,,,,49,112
194177,control_change,17,0,11,,,,,,,,,10,11,61,,,
194180,control_change,17,0,12,,,,,,,,,11,11,61,,,
194195,control_change,18,0,11,,,,,,,,,10,11,58,,,
194198,control_change,18,0,12,,,,,,,,,11,11,58,,,
194213,control_change,18,0,11,,,,,,,,,10,11,56,,,
194216,control_change,18,0,12,,,,,,,,,11,11,56,,,
194223,note_on,300,0,5,,,,,,,,,4,,,,64,100
194224,note_on,300,0,6,,,,,,,,,5,,,,52,100
194227,note_on,300,0,8,,,,,,,,,7,,,,61,110
194227,note_on,0,0,8,,,,,,,,,7,,,,57,110
194228,note_on,60,0,13,,,,,,,,,12,,,,52,0
194231,control_change,18,0,11,,,,,,,,,10,11,53,,,
194232,note_on,60,0,14,,,,,,,,,13,,,,49,0
194234,control_change,18,0,12,,,,,,,,,11,11,53,,,
194249,control_change,18,0,11,,,,,,,,,10,11,50,,,
194252,control_change,18,0,12,,,,,,,,,11,11,50,,,
194267,control_change,18,0,11,,,,,,,,,10,11,47,,,
194270,control_change,18,0,12,,,,,,,,,11,11,47,,,
194280,set_tempo,120,1,0,,,,,,327869,,,,,,,,
194280,note_on,13,0,11,,,,,,,,,10,,,,64,0
194280,note_on,0,0,11,,,,,,,,,10,,,,73,0
194283,note_on,0,0,5,,,,,,,,,4,,,,64,100
194283,note_on,13,0,12,,,,,,,,,11,,,,69,0
194283,note_on,60,0,5,,,,,,,,,4,,,,64,0
194284,note_on,0,0,6,,,,,,,,,5,,,,52,100
194284,note_on,60,0,6,,,,,,,,,5,,,,52,0
194287,note_on,0,0,8,,,,,,,,,7,,,,61,110
194287,note_on,0,0,8,,,,,,,,,7,,,,57,110
194287,note_on,60,0,8,,,,,,,,,7,,,,57,0
194287,note_on,0,0,8,,,,,,,,,7,,,,61,0
194288,note_on,60,0,13,,,,,,,,,12,,,,57,112
194289,note_on,240,0,4,,,,,,,,,3,,,,45,0
194292,note_on,60,0,14,,,,,,,,,13,,,,52,112
194293,note_on,240,0,9,,,,,,,,,8,,,,45,0
194294,note_on,240,0,15,,,,,,,,,14,,,,33,0
194348,note_on,60,0,13,,,,,,,,,12,,,,57,0
194352,note_on,60,0,14,,,,,,,,,13,,,,52,0
194400,note_on,0,0,11,,,,,,,,,10,,,,64,102
194400,set_tempo,120,1,0,,,,,,285714,,,,,,,,
194400,control_change,120,0,11,,,,,,,,,10,11,64,,,
194403,note_on,120,0,5,,,,,,,,,4,,,,64,0
194403,control_change,120,0,12,,,,,,,,,11,11,64,,,
194403,note_on,0,0,12,,,,,,,,,11,,,,61,102
194403,note_on,0,0,5,,,,,,,,,4,,,,64,100
194404,note_on,120,0,6,,,,,,,,,5,,,,52,0
194404,note_on,0,0,6,,,,,,,,,5,,,,52,100
194407,note_on,0,0,8,,,,,,,,,7,,,,57,110
194407,note_on,0,0,8,,,,,,,,,7,,,,61,110
194407,note_on,120,0,8,,,,,,,,,7,,,,57,0
194407,note_on,0,0,8,,,,,,,,,7,,,,61,0
194408,note_on,60,0,13,,,,,,,,,12,,,,61,127
194412,note_on,60,0,14,,,,,,,,,13,,,,57,127
194460,note_on,60,0,11,,,,,,,,,10,,,,64,0
194463,note_on,60,0,12,,,,,,,,,11,,,,61,0
194520,set_tempo,120,1,0,,,,,,300000,,,,,,,,
194520,note_on,60,0,11,,,,,,,,,10,,,,69,102
194521,note_on,480,0,1,,,,,,,,,0,,,,85,0
194521,note_on,0,0,1,,,,,,,,,0,,,,81,0
194523,note_on,60,0,12,,,,,,,,,11,,,,64,102
194524,note_on,480,0,2,,,,,,,,,1,,,,73,0
194524,note_on,0,0,2,,,,,,,,,1,,,,69,0
194525,note_on,480,0,3,,,,,,,,,2,,,,76,0
194525,note_on,0,0,3,,,,,,,,,2,,,,69,0
194529,note_on,240,0,4,,,,,,,,,3,,,,64,0
194580,note_on,60,0,11,,,,,,,,,10,,,,69,0
194583,note_on,60,0,12,,,,,,,,,11,,,,64,0
194589,note_on,60,0,4,,,,,,,,,3,,,,45,100
194593,note_on,300,0,9,,,,,,,,,8,,,,45,110
194594,note_on,300,0,15,,,,,,,,,14,,,,33,112
194619,note_on,30,0,4,,,,,,,,,3,,,,45,0
194623,note_on,30,0,9,,,,,,,,,8,,,,45,0
194640,note_on,60,0,11,,,,,,,,,10,,,,73,102
194640,set_tempo,120,1,0,,,,,,327869,,,,,,,,
194641,note_on,0,0,1,,,,,,,,,0,,,,81,101
194641,note_on,120,0,1,,,,,,,,,0,,,,85,101
194643,note_on,60,0,12,,,,,,,,,11,,,,69,102
194643,note_on,240,0,5,,,,,,,,,4,,,,64,0
194644,note_on,120,0,2,,,,,,,,,1,,,,73,100
194644,note_on,240,0,6,,,,,,,,,5,,,,52,0
194644,note_on,0,0,2,,,,,,,,,1,,,,69,100
194645,note_on,0,0,3,,,,,,,,,2,,,,64,101
194645,note_on,120,0,3,,,,,,,,,2,,,,76,101
194647,note_on,240,0,8,,,,,,,,,7,,,,61,0
194647,note_on,0,0,8,,,,,,,,,7,,,,57,0
194648,note_on,240,0,13,,,,,,,,,12,,,,61,0
194649,note_on,0,0,4,,,,,,,,,3,,,,49,100
194649,note_on,30,0,4,,,,,,,,,3,,,,64,100
194652,note_on,240,0,14,,,,,,,,,13,,,,57,0
194653,note_on,30,0,9,,,,,,,,,8,,,,49,110
194654,note_on,0,0,15,,,,,,,,,14,,,,37,112
194654,note_on,60,0,15,,,,,,,,,14,,,,33,0
194700,note_on,60,0,11,,,,,,,,,10,,,,73,0
194703,note_on,60,0,12,,,,,,,,,11,,,,69,0
194709,note_on,60,0,4,,,,,,,,,3,,,,49,0
194713,note_on,60,0,9,,,,,,,,,8,,,,49,0
194760,set_tempo,120,1,0,,,,,,285714,,,,,,,,
194760,note_on,0,0,11,,,,,,,,,10,,,,68,115
194760,note_on,60,0,11,,,,,,,,,10,,,,76,115
194761,note_on,120,0,1,,,,,,,,,0,,,,81,0
194761,note_on,0,0,1,,,,,,,,,0,,,,85,0
194761,note_on,0,0,1,,,,,,,,,0,,,,83,101
194761,note_on,0,0,1,,,,,,,,,0,,,,80,101
194763,note_on,60,0,12,,,,,,,,,11,,,,64,115
194763,note_on,0,0,12,,,,,,,,,11,,,,71,115
194764,note_on,0,0,2,,,,,,,,,1,,,,73,0
194764,note_on,0,0,2,,,,,,,,,1,,,,71,100
194764,note_on,0,0,2,,,,,,,,,1,,,,68,100
194764,note_on,120,0,2,,,,,,,,,1,,,,69,0
194765,note_on,120,0,3,,,,,,,,,2,,,,64,0
194765,note_on,0,0,3,,,,,,,,,2,,,,74,101
194765,note_on,0,0,3,,,,,,,,,2,,,,68,101
194765,note_on,0,0,3,,,,,,,,,2,,,,76,0
194769,note_on,0,0,4,,,,,,,,,3,,,,52,115
194769,note_on,60,0,4,,,,,,,,,3,,,,64,0
194769,note_on,0,0,4,,,,,,,,,3,,,,62,100
194773,note_on,60,0,9,,,,,,,,,8,,,,52,125
194774,note_on,0,0,15,,,,,,,,,14,,,,40,127
194774,note_on,120,0,15,,,,,,,,,14,,,,37,0
194880,control_change,120,0,11,,,,,,,,,10,11,64,,,
194880,set_tempo,120,1,0,,,,,,300000,,,,,,,,
194883,control_change,120,0,12,,,,,,,,,11,11,64,,,
194888,note_on,240,0,13,,,,,,,,,12,,,,52,112
194892,note_on,240,0,14,,,,,,,,,13,,,,50,112
194897,control_change,17,0,11,,,,,,,,,10,11,61,,,
194900,control_change,17,0,12,,,,,,,,,11,11,61,,,
194915,control_change,18,0,11,,,,,,,,,10,11,58,,,
194918,control_change,18,0,12,,,,,,,,,11,11,58,,,
194933,control_change,18,0,11,,,,,,,,,10,11,56,,,
194936,control_change,18,0,12,,,,,,,,,11,11,56,,,
194943,note_on,300,0,5,,,,,,,,,4,,,,64,100
194944,note_on,300,0,6,,,,,,,,,5,,,,52,100
194947,note_on,300,0,8,,,,,,,,,7,,,,56,110
194947,note_on,0,0,8,,,,,,,,,7,,,,62,110
194948,note_on,60,0,13,,,,,,,,,12,,,,52,0
194951,control_change,18,0,11,,,,,,,,,10,11,53,,,
194952,note_on,60,0,14,,,,,,,,,13,,,,50,0
194954,control_change,18,0,12,,,,,,,,,11,11,53,,,
194969,control_change,18,0,11,,,,,,,,,10,11,50,,,
194972,control_change,18,0,12,,,,,,,,,11,11,50,,,
194987,control_change,18,0,11,,,,,,,,,10,11,47,,,
194990,control_change,18,0,12,,,,,,,,,11,11,47,,,
195000,set_tempo,120,1,0,,,,,,327869,,,,,,,,
195000,note_on,0,0,11,,,,,,,,,10,,,,76,0
195000,note_on,13,0,11,,,,,,,,,10,,,,68,0
195003,note_on,0,0,5,,,,,,,,,4,,,,64,100
195003,note_on,60,0,5,,,,,,,,,4,,,,64,0
195003,note_on,0,0,12,,,,,,,,,11,,,,64,0
195003,note_on,13,0,12,,,,,,,,,11,,,,71,0
195004,note_on,0,0,6,,,,,,,,,5,,,,52,100
195004,note_on,60,0,6,,,,,,,,,5,,,,52,0
195007,note_on,0,0,8,,,,,,,,,7,,,,56,0
195007,note_on,0,0,8,,,,,,,,,7,,,,62,110
195007,note_on,60,0,8,,,,,,,,,7,,,,62,0
195007,note_on,0,0,8,,,,,,,,,7,,,,56,110
195008,note_on,60,0,13,,,,,,,,,12,,,,56,112
195009,note_on,240,0,4,,,,,,,,,3,,,,52,0
195012,note_on,60,0,14,,,,,,,,,13,,,,52,112
195013,note_on,240,0,9,,,,,,,,,8,,,,52,0
195014,note_on,240,0,15,,,,,,,,,14,,,,40,0
195068,note_on,60,0,13,,,,,,,,,12,,,,56,0
195072,note_on,60,0,14,,,,,,,,,13,,,,52,0
195120,note_on,120,0,11,,,,,,,,,10,,,,64,102
195120,control_change,0,0,11,,,,,,,,,10,11,64,,,
195120,set_tempo,120,1,0,,,,,,285714,,,,,,,,
195123,note_on,120,0,12,,,,,,,,,11,,,,59,102
195123,control_change,0,0,12,,,,,,,,,11,11,64,,,
195123,note_on,120,0,5,,,,,,,,,4,,,,64,0
195123,note_on,0,0,5,,,,,,,,,4,,,,64,100
195124,note_on,0,0,6,,,,,,,,,5,,,,52,100
195124,note_on,120,0,6,,,,,,,,,5,,,,52,0
195127,note_on,120,0,8,,,,,,,,,7,,,,56,0
195127,note_on,0,0,8,,,,,,,,,7,,,,56,110
195127,note_on,0,0,8,,,,,,,,,7,,,,62,110
195127,note_on,0,0,8,,,,,,,,,7,,,,62,0
195128,note_on,60,0,13,,,,,,,,,12,,,,62,127
195132,note_on,60,0,14,,,,,,,,,13,,,,56,127
195180,note_on,60,0,11,,,,,,,,,10,,,,64,0
195183,note_on,60,0,12,,,,,,,,,11,,,,59,0
195240,set_tempo,120,1,0,,,,,,300000,,,,,,,,
195240,note_on,60,0,11,,,,,,,,,10,,,,68,102
195243,note_on,60,0,12,,,,,,,,,11,,,,64,102
195300,note_on,60,0,11,,,,,,,,,10,,,,68,0
195303,note_on,60,0,12,,,,,,,,,11,,,,64,0
195309,note_on,300,0,4,,,,,,,,,3,,,,52,100
195313,note_on,300,0,9,,,,,,,,,8,,,,52,110
195314,note_on,300,0,15,,,,,,,,,14,,,,40,112
195339,note_on,30,0,4,,,,,,,,,3,,,,52,0
195343,note_on,30,0,9,,,,,,,,,8,,,,52,0
195360,note_on,60,0,11,,,,,,,,,10,,,,71,102
195360,set_tempo,120,1,0,,,,,,327869,,,,,,,,
195361,note_on,600,0,1,,,,,,,,,0,,,,83,0
195361,note_on,0,0,1,,,,,,,,,0,,,,85,101
195363,note_on,240,0,5,,,,,,,,,4,,,,64,0
195363,note_on,60,0,12,,,,,,,,,11,,,,68,102
195364,note_on,240,0,6,,,,,,,,,5,,,,52,0
195364,note_on,0,0,2,,,,,,,,,1,,,,73,100
195364,note_on,600,0,2,,,,,,,,,1,,,,71,0
195365,note_on,0,0,3,,,,,,,,,2,,,,76,101
195365,note_on,600,0,3,,,,,,,,,2,,,,74,0
195367,note_on,240,0,8,,,,,,,,,7,,,,56,0
195367,note_on,0,0,8,,,,,,,,,7,,,,62,0
195368,note_on,240,0,13,,,,,,,,,12,,,,62,0
195369,note_on,30,0,4,,,,,,,,,3,,,,62,0
195369,note_on,0,0,4,,,,,,,,,3,,,,64,100
195369,note_on,0,0,4,,,,,,,,,3,,,,52,100
195372,note_on,240,0,14,,,,,,,,,13,,,,56,0
195373,note_on,30,0,9,,,,,,,,,8,,,,52,110
195374,note_on,60,0,15,,,,,,,,,14,,,,40,0
195374,note_on,0,0,15,,,,,,,,,14,,,,40,112
195420,note_on,60,0,11,,,,,,,,,10,,,,71,0
195423,note_on,60,0,12,,,,,,,,,11,,,,68,0
195429,note_on,60,0,4,,,,,,,,,3,,,,52,0
195433,note_on,60,0,9,,,,,,,,,8,,,,52,0
195480,note_on,60,0,11,,,,,,,,,10,,,,69,115
195480,note_on,0,0,11,,,,,,,,,10,,,,76,115
195480,set_tempo,120,1,0,,,,,,285714,,,,,,,,
195481,note_on,0,0,1,,,,,,,,,0,,,,80,0
195481,note_on,0,0,1,,,,,,,,,0,,,,81,101
195481,note_on,120,0,1,,,,,,,,,0,,,,85,0
195481,control_change,0,0,1,,,,,,,,,0,11,78,,,
195483,note_on,60,0,12,,,,,,,,,11,,,,69,115
195483,note_on,0,0,12,,,,,,,,,11,,,,61,115
195484,note_on,120,0,2,,,,,,,,,1,,,,73,0
195484,note_on,0,0,2,,,,,,,,,1,,,,68,0
195484,note_on,0,0,2,,,,,,,,,1,,,,69,100
195484,control_change,0,0,2,,,,,,,,,1,11,78,,,
195485,note_on,0,0,3,,,,,,,,,2,,,,68,0
195485,note_on,0,0,3,,,,,,,,,2,,,,69,101
195485,note_on,0,0,3,,,,,,,,,2,,,,73,101
195485,control_change,0,0,3,,,,,,,,,2,11,78,,,
195485,note_on,120,0,3,,,,,,,,,2,,,,76,0
195489,note_on,0,0,4,,,,,,,,,3,,,,61,100
195489,note_on,60,0,4,,,,,,,,,3,,,,64,0
195489,note_on,0,0,4,,,,,,,,,3,,,,52,115
195493,note_on,60,0,9,,,,,,,,,8,,,,52,125
195494,note_on,0,0,15,,,,,,,,,14,,,,40,127
195494,note_on,120,0,15,,,,,,,,,14,,,,40,0
195529,control_change,48,0,1,,,,,,,,,0,11,79,,,
195532,control_change,48,0,2,,,,,,,,,1,11,79,,,
195533,control_change,48,0,3,,,,,,,,,2,11,79,,,
195577,control_change,48,0,1,,,,,,,,,0,11,80,,,
195580,control_change,48,0,2,,,,,,,,,1,11,80,,,
195581,control_change,48,0,3,,,,,,,,,2,11,80,,,
195600,control_change,120,0,11,,,,,,,,,10,11,64,,,
195600,set_tempo,120,1,0,,,,,,300000,,,,,,,,
195603,control_change,120,0,12,,,,,,,,,11,11,64,,,
195608,note_on,240,0,13,,,,,,,,,12,,,,52,112
195612,note_on,240,0,14,,,,,,,,,13,,,,49,112
195617,control_change,17,0,11,,,,,,,,,10,11,61,,,
195620,control_change,17,0,12,,,,,,,,,11,11,61,,,
195625,control_change,48,0,1,,,,,,,,,0,11,80,,,
195628,control_change,48,0,2,,,,,,,,,1,11,80,,,
195629,control_change,48,0,3,,,,,,,,,2,11,80,,,
195635,control_change,18,0,11,,,,,,,,,10,11,58,,,
195638,control_change,18,0,12,,,,,,,,,11,11,58,,,
195653,control_change,18,0,11,,,,,,,,,10,11,56,,,
195656,control_change,18,0,12,,,,,,,,,11,11,56,,,
195663,note_on,300,0,5,,,,,,,,,4,,,,64,100
195664,note_on,300,0,6,,,,,,,,,5,,,,52,100
195667,note_on,300,0,8,,,,,,,,,7,,,,61,110
195667,note_on,0,0,8,,,,,,,,,7,,,,57,110
195668,note_on,60,0,13,,,,,,,,,12,,,,52,0
195671,control_change,18,0,11,,,,,,,,,10,11,53,,,
195672,note_on,60,0,14,,,,,,,,,13,,,,49,0
195673,control_change,48,0,1,,,,,,,,,0,11,81,,,
195674,control_change,18,0,12,,,,,,,,,11,11,53,,,
195676,control_change,48,0,2,,,,,,,,,1,11,81,,,
195677,control_change,48,0,3,,,,,,,,,2,11,81,,,
195689,control_change,18,0,11,,,,,,,,,10,11,50,,,
195692,control_change,18,0,12,,,,,,,,,11,11,50,,,
195707,control_change,18,0,11,,,,,,,,,10,11,47,,,
195710,control_change,18,0,12,,,,,,,,,11,11,47,,,
195720,note_on,13,0,11,,,,,,,,,10,,,,76,0
195720,note_on,0,0,11,,,,,,,,,10,,,,69,0
195720,set_tempo,120,1,0,,,,,,327869,,,,,,,,
195721,control_change,48,0,1,,,,,,,,,0,11,82,,,
195723,note_on,0,0,12,,,,,,,,,11,,,,69,0
195723,note_on,60,0,5,,,,,,,,,4,,,,64,0
195723,note_on,0,0,5,,,,,,,,,4,,,,64,100
195723,note_on,13,0,12,,,,,,,,,11,,,,61,0
195724,note_on,60,0,6,,,,,,,,,5,,,,52,0
195724,control_change,48,0,2,,,,,,,,,1,11,82,,,
195724,note_on,0,0,6,,,,,,,,,5,,,,52,100
195725,control_change,48,0,3,,,,,,,,,2,11,82,,,
195727,note_on,60,0,8,,,,,,,,,7,,,,57,0
195727,note_on,0,0,8,,,,,,,,,7,,,,61,0
195727,note_on,0,0,8,,,,,,,,,7,,,,61,110
195727,note_on,0,0,8,,,,,,,,,7,,,,57,110
195728,note_on,60,0,13,,,,,,,,,12,,,,57,112
195729,note_on,240,0,4,,,,,,,,,3,,,,52,0
195732,note_on,60,0,14,,,,,,,,,13,,,,52,112
195733,note_on,240,0,9,,,,,,,,,8,,,,52,0
195734,note_on,240,0,15,,,,,,,,,14,,,,40,0
195769,control_change,48,0,1,,,,,,,,,0,11,83,,,
195772,control_change,48,0,2,,,,,,,,,1,11,83,,,
195773,control_change,48,0,3,,,,,,,,,2,11,83,,,
195788,note_on,60,0,13,,,,,,,,,12,,,,57,0
195792,note_on,60,0,14,,,,,,,,,13,,,,52,0
195817,control_change,48,0,1,,,,,,,,,0,11,83,,,
195820,control_change,48,0,2,,,,,,,,,1,11,83,,,
195821,control_change,48,0,3,,,,,,,,,2,11,83,,,
195840,set_tempo,120,1,0,,,,,,285714,,,,,,,,
195840,control_change,120,0,11,,,,,,,,,10,11,41,,,
195840,note_on,0,0,11,,,,,,,,,10,,,,64,102
195843,note_on,0,0,12,,,,,,,,,11,,,,61,102
195843,note_on,120,0,5,,,,,,,,,4,,,,64,0
195843,note_on,0,0,5,,,,,,,,,4,,,,64,100
195843,control_change,120,0,12,,,,,,,,,11,11,41,,,
195844,note_on,0,0,6,,,,,,,,,5,,,,52,100
195844,note_on,120,0,6,,,,,,,,,5,,,,52,0
195847,note_on,0,0,8,,,,,,,,,7,,,,61,110
195847,note_on,120,0,8,,,,,,,,,7,,,,61,0
195847,note_on,0,0,8,,,,,,,,,7,,,,57,0
195847,note_on,0,0,8,,,,,,,,,7,,,,57,110
195848,note_on,60,0,13,,,,,,,,,12,,,,61,127
195852,note_on,60,0,14,,,,,,,,,13,,,,57,127
195864,control_change,24,0,11,,,,,,,,,10,11,42,,,
195865,control_change,48,0,1,,,,,,,,,0,11,84,,,
195867,control_change,24,0,12,,,,,,,,,11,11,42,,,
195868,control_change,48,0,2,,,,,,,,,1,11,84,,,
195869,control_change,48,0,3,,,,,,,,,2,11,84,,,
195888,control_change,24,0,11,,,,,,,,,10,11,42,,,
195891,control_change,24,0,12,,,,,,,,,11,11,42,,,
195900,note_on,12,0,11,,,,,,,,,10,,,,64,0
195903,note_on,12,0,12,,,,,,,,,11,,,,61,0
195912,control_change,12,0,11,,,,,,,,,10,11,43,,,
195913,control_change,48,0,1,,,,,,,,,0,11,85,,,
195915,control_change,12,0,12,,,,,,,,,11,11,43,,,
195916,control_change,48,0,2,,,,,,,,,1,11,85,,,
195917,control_change,48,0,3,,,,,,,,,2,11,85,,,
195936,control_change,24,0,11,,,,,,,,,10,11,44,,,
195939,control_change,24,0,12,,,,,,,,,11,11,44,,,
195960,set_tempo,120,1,0,,,,,,300000,,,,,,,,
195960,note_on,0,0,11,,,,,,,,,10,,,,69,102
195960,control_change,24,0,11,,,,,,,,,10,11,45,,,
195961,note_on,0,0,1,,,,,,,,,0,,,,85,101
195961,control_change,48,0,1,,,,,,,,,0,11,86,,,
195963,control_change,24,0,12,,,,,,,,,11,11,45,,,
195963,note_on,0,0,12,,,,,,,,,11,,,,64,102
195964,control_change,0,0,2,,,,,,,,,1,11,86,,,
195964,note_on,48,0,2,,,,,,,,,1,,,,73,100
195965,note_on,48,0,3,,,,,,,,,2,,,,73,0
195965,note_on,0,0,3,,,,,,,,,2,,,,81,101
195965,control_change,0,0,3,,,,,,,,,2,11,86,,,
195984,control_change,24,0,11,,,,,,,,,10,11,46,,,
195987,control_change,24,0,12,,,,,,,,,11,11,46,,,
196008,control_change,24,0,11,,,,,,,,,10,11,47,,,
196009,control_change,48,0,1,,,,,,,,,0,11,86,,,
196011,control_change,24,0,12,,,,,,,,,11,11,47,,,
196012,control_change,48,0,2,,,,,,,,,1,11,86,,,
196013,control_change,48,0,3,,,,,,,,,2,11,86,,,
196020,note_on,12,0,11,,,,,,,,,10,,,,69,0
196023,note_on,12,0,12,,,,,,,,,11,,,,64,0
196029,note_on,0,0,4,,,,,,,,,3,,,,52,100
196029,control_change,300,0,4,,,,,,,,,3,11,87,,,
196032,control_change,12,0,11,,,,,,,,,10,11,48,,,
196033,note_on,300,0,9,,,,,,,,,8,,,,52,110
196033,control_change,0,0,9,,,,,,,,,8,11,82,,,
196034,note_on,300,0,15,,,,,,,,,14,,,,40,112
196034,control_change,0,0,15,,,,,,,,,14,11,50,,,
196035,control_change,12,0,12,,,,,,,,,11,11,48,,,
196051,control_change,18,0,9,,,,,,,,,8,11,84,,,
196053,control_change,24,0,4,,,,,,,,,3,11,89,,,
196056,control_change,24,0,11,,,,,,,,,10,11,49,,,
196057,control_change,48,0,1,,,,,,,,,0,11,87,,,
196059,note_on,6,0,4,,,,,,,,,3,,,,52,0
196059,control_change,24,0,12,,,,,,,,,11,11,49,,,
196060,control_change,48,0,2,,,,,,,,,1,11,87,,,
196061,control_change,48,0,3,,,,,,,,,2,11,87,,,
196063,note_on,12,0,9,,,,,,,,,8,,,,52,0
196069,control_change,6,0,9,,,,,,,,,8,11,86,,,
196070,control_change,36,0,15,,,,,,,,,14,11,51,,,
196077,control_change,18,0,4,,,,,,,,,3,11,91,,,
196080,note_on,24,0,11,,,,,,,,,10,,,,73,102
196080,control_change,0,0,11,,,,,,,,,10,11,50,,,
196080,set_tempo,120,1,0,,,,,,327869,,,,,,,,
196081,note_on,24,0,1,,,,,,,,,0,,,,85,0
196081,note_on,0,0,1,,,,,,,,,0,,,,81,0
196081,note_on,0,0,1,,,,,,,,,0,,,,85,101
196081,note_on,0,0,1,,,,,,,,,0,,,,88,101
196083,control_change,0,0,12,,,,,,,,,11,11,50,,,
196083,note_on,24,0,12,,,,,,,,,11,,,,69,102
196083,note_on,240,0,5,,,,,,,,,4,,,,64,0
196084,note_on,0,0,2,,,,,,,,,1,,,,69,0
196084,note_on,24,0,2,,,,,,,,,1,,,,73,0
196084,note_on,240,0,6,,,,,,,,,5,,,,52,0
196084,note_on,0,0,2,,,,,,,,,1,,,,76,100
196084,note_on,0,0,2,,,,,,,,,1,,,,73,100
196085,note_on,0,0,3,,,,,,,,,2,,,,69,0
196085,note_on,24,0,3,,,,,,,,,2,,,,81,0
196085,note_on,0,0,3,,,,,,,,,2,,,,64,101
196085,note_on,0,0,3,,,,,,,,,2,,,,76,101
196087,control_change,18,0,9,,,,,,,,,8,11,88,,,
196087,note_on,0,0,8,,,,,,,,,7,,,,57,0
196087,note_on,240,0,8,,,,,,,,,7,,,,61,0
196088,note_on,240,0,13,,,,,,,,,12,,,,61,0
196089,note_on,12,0,4,,,,,,,,,3,,,,61,0
196089,note_on,0,0,4,,,,,,,,,3,,,,52,100
196089,note_on,0,0,4,,,,,,,,,3,,,,64,100
196092,note_on,240,0,14,,,,,,,,,13,,,,57,0
196093,note_on,6,0,9,,,,,,,,,8,,,,52,110
196094,note_on,0,0,15,,,,,,,,,14,,,,40,112
196094,note_on,24,0,15,,,,,,,,,14,,,,40,0
196101,control_change,12,0,4,,,,,,,,,3,11,93,,,
196104,control_change,24,0,11,,,,,,,,,10,11,51,,,
196105,control_change,12,0,9,,,,,,,,,8,11,90,,,
196105,control_change,24,0,1,,,,,,,,,0,11,88,,,
196106,control_change,12,0,15,,,,,,,,,14,11,52,,,
196107,control_change,24,0,12,,,,,,,,,11,11,51,,,
196108,control_change,24,0,2,,,,,,,,,1,11,88,,,
196109,control_change,24,0,3,,,,,,,,,2,11,88,,,
196123,control_change,18,0,9,,,,,,,,,8,11,92,,,
196125,control_change,24,0,4,,,,,,,,,3,11,95,,,
196128,control_change,24,0,11,,,,,,,,,10,11,52,,,
196131,control_change,24,0,12,,,,,,,,,11,11,52,,,
196140,note_on,12,0,11,,,,,,,,,10,,,,73,0
196141,control_change,18,0,9,,,,,,,,,8,11,94,,,
196142,control_change,36,0,15,,,,,,,,,14,11,53,,,
196143,note_on,12,0,12,,,,,,,,,11,,,,69,0
196149,note_on,24,0,4,,,,,,,,,3,,,,52,0
196149,control_change,0,0,4,,,,,,,,,3,11,97,,,
196152,control_change,12,0,11,,,,,,,,,10,11,53,,,
196153,control_change,48,0,1,,,,,,,,,0,11,89,,,
196153,note_on,12,0,9,,,,,,,,,8,,,,52,0
196155,control_change,12,0,12,,,,,,,,,11,11,53,,,
196156,control_change,48,0,2,,,,,,,,,1,11,89,,,
196157,control_change,48,0,3,,,,,,,,,2,11,89,,,
196159,control_change,6,0,9,,,,,,,,,8,11,96,,,
196173,control_change,24,0,4,,,,,,,,,3,11,99,,,
196176,control_change,24,0,11,,,,,,,,,10,11,54,,,
196177,control_change,18,0,9,,,,,,,,,8,11,98,,,
196178,control_change,36,0,15,,,,,,,,,14,11,54,,,
196179,control_change,24,0,12,,,,,,,,,11,11,54,,,
196195,control_change,18,0,9,,,,,,,,,8,11,100,,,
196197,control_change,24,0,4,,,,,,,,,3,11,101,,,
196200,set_tempo,120,1,0,,,,,,285714,,,,,,,,
196200,note_on,24,0,11,,,,,,,,,10,,,,68,102
196200,note_on,0,0,11,,,,,,,,,10,,,,76,102
196200,control_change,0,0,11,,,,,,,,,10,11,55,,,
196201,note_on,48,0,1,,,,,,,,,0,,,,88,0
196201,control_change,0,0,1,,,,,,,,,0,11,89,,,
196201,note_on,0,0,1,,,,,,,,,0,,,,85,101
196201,note_on,0,0,1,,,,,,,,,0,,,,88,101
196201,note_on,0,0,1,,,,,,,,,0,,,,85,0
196203,control_change,0,0,12,,,,,,,,,11,11,55,,,
196203,note_on,0,0,12,,,,,,,,,11,,,,73,102
196203,note_on,24,0,12,,,,,,,,,11,,,,64,102
196204,note_on,48,0,2,,,,,,,,,1,,,,76,0
196204,control_change,0,0,2,,,,,,,,,1,11,89,,,
196204,note_on,0,0,2,,,,,,,,,1,,,,76,100
196204,note_on,0,0,2,,,,,,,,,1,,,,73,100
196204,note_on,0,0,2,,,,,,,,,1,,,,73,0
196205,note_on,0,0,3,,,,,,,,,2,,,,76,0
196205,control_change,0,0,3,,,,,,,,,2,11,89,,,
196205,note_on,48,0,3,,,,,,,,,2,,,,64,0
196205,note_on,0,0,3,,,,,,,,,2,,,,68,101
196205,note_on,0,0,3,,,,,,,,,2,,,,80,101
196209,note_on,12,0,4,,,,,,,,,3,,,,64,0
196209,note_on,0,0,4,,,,,,,,,3,,,,64,100
196209,note_on,0,0,4,,,,,,,,,3,,,,52,100
196213,control_change,18,0,9,,,,,,,,,8,11,102,,,
196213,note_on,0,0,9,,,,,,,,,8,,,,52,110
196214,note_on,0,0,15,,,,,,,,,14,,,,40,112
196214,control_change,0,0,15,,,,,,,,,14,11,55,,,
196214,note_on,36,0,15,,,,,,,,,14,,,,40,0
196224,control_change,15,0,4,,,,,,,,,3,11,101,,,
196224,control_change,23,0,1,,,,,,,,,0,11,89,,,
196227,control_change,23,0,2,,,,,,,,,1,11,89,,,
196228,control_change,23,0,3,,,,,,,,,2,11,89,,,
196237,control_change,24,0,9,,,,,,,,,8,11,100,,,
196240,control_change,16,0,4,,,,,,,,,3,11,100,,,
196248,control_change,24,0,1,,,,,,,,,0,11,88,,,
196251,control_change,24,0,2,,,,,,,,,1,11,88,,,
196252,control_change,24,0,3,,,,,,,,,2,11,88,,,
196256,control_change,16,0,4,,,,,,,,,3,11,99,,,
196261,control_change,24,0,9,,,,,,,,,8,11,98,,,
196272,control_change,24,0,1,,,,,,,,,0,11,87,,,
196272,control_change,16,0,4,,,,,,,,,3,11,98,,,
196275,control_change,24,0,2,,,,,,,,,1,11,87,,,
196276,control_change,24,0,3,,,,,,,,,2,11,87,,,
196285,control_change,24,0,9,,,,,,,,,8,11,96,,,
196288,control_change,16,0,4,,,,,,,,,3,11,97,,,
196296,control_change,24,0,1,,,,,,,,,0,11,86,,,
196299,control_change,24,0,2,,,,,,,,,1,11,86,,,
196300,control_change,24,0,3,,,,,,,,,2,11,86,,,
196304,control_change,16,0,4,,,,,,,,,3,11,96,,,
196309,control_change,24,0,9,,,,,,,,,8,11,94,,,
196320,set_tempo,120,1,0,,,,,,300000,,,,,,,,
196320,control_change,16,0,4,,,,,,,,,3,11,95,,,
196320,control_change,24,0,1,,,,,,,,,0,11,86,,,
196323,control_change,24,0,2,,,,,,,,,1,11,86,,,
196324,control_change,24,0,3,,,,,,,,,2,11,86,,,
196328,note_on,240,0,13,,,,,,,,,12,,,,52,112
196328,control_change,0,0,13,,,,,,,,,12,11,41,,,
196332,control_change,0,0,14,,,,,,,,,13,11,41,,,
196332,note_on,240,0,14,,,,,,,,,13,,,,52,112
196333,control_change,24,0,9,,,,,,,,,8,11,92,,,
196336,control_change,16,0,4,,,,,,,,,3,11,94,,,
196344,control_change,16,0,13,,,,,,,,,12,11,42,,,
196344,control_change,24,0,1,,,,,,,,,0,11,85,,,
196347,control_change,24,0,2,,,,,,,,,1,11,85,,,
196348,control_change,24,0,3,,,,,,,,,2,11,85,,,
196348,control_change,16,0,14,,,,,,,,,13,11,42,,,
196352,control_change,16,0,4,,,,,,,,,3,11,93,,,
196357,control_change,24,0,9,,,,,,,,,8,11,90,,,
196360,control_change,16,0,13,,,,,,,,,12,11,42,,,
196364,control_change,16,0,14,,,,,,,,,13,11,42,,,
196368,control_change,24,0,1,,,,,,,,,0,11,84,,,
196368,control_change,16,0,4,,,,,,,,,3,11,92,,,
196371,control_change,24,0,2,,,,,,,,,1,11,84,,,
196372,control_change,24,0,3,,,,,,,,,2,11,84,,,
196376,control_change,16,0,13,,,,,,,,,12,11,43,,,
196380,control_change,16,0,14,,,,,,,,,13,11,43,,,
196381,control_change,24,0,9,,,,,,,,,8,11,88,,,
196383,control_change,0,0,5,,,,,,,,,4,11,82,,,
196383,note_on,300,0,5,,,,,,,,,4,,,,64,100
196384,note_on,300,0,6,,,,,,,,,5,,,,52,100
196384,control_change,16,0,4,,,,,,,,,3,11,91,,,
196384,control_change,0,0,6,,,,,,,,,5,11,82,,,
196387,control_change,300,0,8,,,,,,,,,7,11,82,,,
196387,note_on,0,0,8,,,,,,,,,7,,,,56,110
196387,note_on,0,0,8,,,,,,,,,7,,,,61,110
196388,note_on,12,0,13,,,,,,,,,12,,,,52,0
196392,control_change,24,0,1,,,,,,,,,0,11,83,,,
196392,control_change,4,0,13,,,,,,,,,12,11,44,,,
196392,note_on,12,0,14,,,,,,,,,13,,,,52,0
196395,control_change,24,0,2,,,,,,,,,1,11,83,,,
196396,control_change,4,0,14,,,,,,,,,13,11,44,,,
196396,control_change,24,0,3,,,,,,,,,2,11,83,,,
196400,control_change,16,0,4,,,,,,,,,3,11,90,,,
196401,control_change,18,0,5,,,,,,,,,4,11,84,,,
196402,control_change,18,0,6,,,,,,,,,5,11,84,,,
196405,control_change,18,0,8,,,,,,,,,7,11,84,,,
196405,control_change,24,0,9,,,,,,,,,8,11,86,,,
196408,control_change,16,0,13,,,,,,,,,12,11,45,,,
196412,control_change,16,0,14,,,,,,,,,13,11,45,,,
196416,control_change,16,0,4,,,,,,,,,3,11,89,,,
196416,control_change,24,0,1,,,,,,,,,0,11,83,,,
196419,control_change,18,0,5,,,,,,,,,4,11,86,,,
196419,control_change,24,0,2,,,,,,,,,1,11,83,,,
196420,control_change,18,0,6,,,,,,,,,5,11,86,,,
196420,control_change,24,0,3,,,,,,,,,2,11,83,,,
196423,control_change,18,0,8,,,,,,,,,7,11,86,,,
196424,control_change,16,0,13,,,,,,,,,12,11,46,,,
196428,control_change,16,0,14,,,,,,,,,13,11,46,,,
196429,control_change,24,0,9,,,,,,,,,8,11,84,,,
196432,control_change,16,0,4,,,,,,,,,3,11,88,,,
196437,control_change,18,0,5,,,,,,,,,4,11,88,,,
196438,control_change,18,0,6,,,,,,,,,5,11,88,,,
196440,set_tempo,120,1,0,,,,,,327869,,,,,,,,
196440,control_change,16,0,13,,,,,,,,,12,11,47,,,
196440,note_on,0,0,11,,,,,,,,,10,,,,68,0
196440,note_on,240,0,11,,,,,,,,,10,,,,76,0
196440,control_change,24,0,1,,,,,,,,,0,11,82,,,
196441,control_change,18,0,8,,,,,,,,,7,11,88,,,
196443,note_on,240,0,12,,,,,,,,,11,,,,73,0
196443,note_on,0,0,5,,,,,,,,,4,,,,64,100
196443,control_change,24,0,2,,,,,,,,,1,11,82,,,
196443,note_on,6,0,5,,,,,,,,,4,,,,64,0
196443,note_on,0,0,12,,,,,,,,,11,,,,64,0
196444,control_change,16,0,14,,,,,,,,,13,11,47,,,
196444,control_change,24,0,3,,,,,,,,,2,11,82,,,
196444,note_on,6,0,6,,,,,,,,,5,,,,52,0
196444,note_on,0,0,6,,,,,,,,,5,,,,52,100
196447,note_on,6,0,8,,,,,,,,,7,,,,61,0
196447,note_on,0,0,8,,,,,,,,,7,,,,61,110
196447,note_on,0,0,8,,,,,,,,,7,,,,56,110
196447,note_on,0,0,8,,,,,,,,,7,,,,56,0
196448,note_on,8,0,13,,,,,,,,,12,,,,61,112
196448,control_change,16,0,4,,,,,,,,,3,11,87,,,
196449,note_on,1,0,4,,,,,,,,,3,,,,52,0
196452,note_on,8,0,14,,,,,,,,,13,,,,56,112
196453,note_on,24,0,9,,,,,,,,,8,,,,52,0
196453,control_change,0,0,9,,,,,,,,,8,11,82,,,
196454,note_on,240,0,15,,,,,,,,,14,,,,40,0
196455,control_change,12,0,5,,,,,,,,,4,11,90,,,
196456,control_change,8,0,13,,,,,,,,,12,11,48,,,
196456,control_change,12,0,6,,,,,,,,,5,11,90,,,
196459,control_change,12,0,8,,,,,,,,,7,11,90,,,
196460,control_change,8,0,14,,,,,,,,,13,11,48,,,
196464,control_change,24,0,1,,,,,,,,,0,11,81,,,
196467,control_change,24,0,2,,,,,,,,,1,11,81,,,
196468,control_change,24,0,3,,,,,,,,,2,11,81,,,
196472,control_change,16,0,13,,,,,,,,,12,11,49,,,
196473,control_change,18,0,5,,,,,,,,,4,11,92,,,
196474,control_change,18,0,6,,,,,,,,,5,11,92,,,
196476,control_change,16,0,14,,,,,,,,,13,11,49,,,
196477,control_change,18,0,8,,,,,,,,,7,11,92,,,
196488,control_change,24,0,1,,,,,,,,,0,11,80,,,
196488,control_change,16,0,13,,,,,,,,,12,11,50,,,
196491,control_change,18,0,5,,,,,,,,,4,11,94,,,
196491,control_change,24,0,2,,,,,,,,,1,11,80,,,
196492,control_change,16,0,14,,,,,,,,,13,11,50,,,
196492,control_change,24,0,3,,,,,,,,,2,11,80,,,
196492,control_change,18,0,6,,,,,,,,,5,11,94,,,
196495,control_change,18,0,8,,,,,,,,,7,11,94,,,
196504,control_change,16,0,13,,,,,,,,,12,11,51,,,
196508,note_on,4,0,13,,,,,,,,,12,,,,61,0
196508,control_change,16,0,14,,,,,,,,,13,11,51,,,
196509,control_change,18,0,5,,,,,,,,,4,11,96,,,
196510,control_change,18,0,6,,,,,,,,,5,11,96,,,
196512,control_change,24,0,1,,,,,,,,,0,11,80,,,
196512,note_on,4,0,14,,,,,,,,,13,,,,56,0
196513,control_change,18,0,8,,,,,,,,,7,11,96,,,
196515,control_change,24,0,2,,,,,,,,,1,11,80,,,
196516,control_change,24,0,3,,,,,,,,,2,11,80,,,
196520,control_change,12,0,13,,,,,,,,,12,11,52,,,
196524,control_change,12,0,14,,,,,,,,,13,11,52,,,
196527,control_change,18,0,5,,,,,,,,,4,11,98,,,
196528,control_change,18,0,6,,,,,,,,,5,11,98,,,
196531,control_change,18,0,8,,,,,,,,,7,11,98,,,
196536,control_change,16,0,13,,,,,,,,,12,11,53,,,
196536,control_change,24,0,1,,,,,,,,,0,11,79,,,
196539,control_change,24,0,2,,,,,,,,,1,11,79,,,
196540,control_change,16,0,14,,,,,,,,,13,11,53,,,
196540,control_change,24,0,3,,,,,,,,,2,11,79,,,
196545,control_change,18,0,5,,,,,,,,,4,11,100,,,
196546,control_change,18,0,6,,,,,,,,,5,11,100,,,
196549,control_change,18,0,8,,,,,,,,,7,11,100,,,
196552,control_change,16,0,13,,,,,,,,,12,11,54,,,
196556,control_change,16,0,14,,,,,,,,,13,11,54,,,
196560,note_on,120,0,11,,,,,,,,,10,,,,64,102
196560,set_tempo,120,1,0,,,,,,285714,,,,,,,,
196560,control_change,24,0,1,,,,,,,,,0,11,78,,,
196563,control_change,0,0,5,,,,,,,,,4,11,102,,,
196563,control_change,24,0,2,,,,,,,,,1,11,78,,,
196563,note_on,120,0,12,,,,,,,,,11,,,,61,102
196563,note_on,18,0,5,,,,,,,,,4,,,,64,0
196563,note_on,0,0,5,,,,,,,,,4,,,,64,100
196564,note_on,18,0,6,,,,,,,,,5,,,,52,0
196564,control_change,24,0,3,,,,,,,,,2,11,78,,,
196564,control_change,0,0,6,,,,,,,,,5,11,102,,,
196564,note_on,0,0,6,,,,,,,,,5,,,,52,100
196567,note_on,0,0,8,,,,,,,,,7,,,,56,0
196567,note_on,0,0,8,,,,,,,,,7,,,,61,110
196567,note_on,0,0,8,,,,,,,,,7,,,,56,110
196567,control_change,0,0,8,,,,,,,,,7,11,102,,,
196567,note_on,18,0,8,,,,,,,,,7,,,,61,0
196568,note_on,0,0,13,,,,,,,,,12,,,,64,127
196568,control_change,16,0,13,,,,,,,,,12,11,55,,,
196572,control_change,0,0,14,,,,,,,,,13,11,55,,,
196572,note_on,16,0,14,,,,,,,,,13,,,,61,127
196587,control_change,24,0,5,,,,,,,,,4,11,100,,,
196588,control_change,24,0,6,,,,,,,,,5,11,100,,,
196591,control_change,24,0,8,,,,,,,,,7,11,100,,,
196592,control_change,24,0,13,,,,,,,,,12,11,54,,,
196596,control_change,24,0,14,,,,,,,,,13,11,54,,,
196611,control_change,24,0,5,,,,,,,,,4,11,98,,,
196612,control_change,24,0,6,,,,,,,,,5,11,98,,,
196615,control_change,24,0,8,,,,,,,,,7,11,98,,,
196616,control_change,24,0,13,,,,,,,,,12,11,53,,,
196620,control_change,24,0,14,,,,,,,,,13,11,53,,,
196620,note_on,60,0,11,,,,,,,,,10,,,,64,0
196623,note_on,60,0,12,,,,,,,,,11,,,,61,0
196635,control_change,24,0,5,,,,,,,,,4,11,96,,,
196636,control_change,24,0,6,,,,,,,,,5,11,96,,,
196639,control_change,24,0,8,,,,,,,,,7,11,96,,,
196640,control_change,24,0,13,,,,,,,,,12,11,52,,,
196644,control_change,24,0,14,,,,,,,,,13,11,52,,,
196659,control_change,24,0,5,,,,,,,,,4,11,94,,,
196660,control_change,24,0,6,,,,,,,,,5,11,94,,,
196663,control_change,24,0,8,,,,,,,,,7,11,94,,,
196664,control_change,24,0,13,,,,,,,,,12,11,51,,,
196668,control_change,24,0,14,,,,,,,,,13,11,51,,,
196680,set_tempo,120,1,0,,,,,,300000,,,,,,,,
196680,note_on,60,0,11,,,,,,,,,10,,,,68,102
196683,note_on,60,0,12,,,,,,,,,11,,,,64,102
196683,control_change,24,0,5,,,,,,,,,4,11,92,,,
196684,control_change,24,0,6,,,,,,,,,5,11,92,,,
196687,control_change,24,0,8,,,,,,,,,7,11,92,,,
196688,control_change,24,0,13,,,,,,,,,12,11,50,,,
196692,control_change,24,0,14,,,,,,,,,13,11,50,,,
196707,control_change,24,0,5,,,,,,,,,4,11,90,,,
196708,control_change,24,0,6,,,,,,,,,5,11,90,,,
196711,control_change,24,0,8,,,,,,,,,7,11,90,,,
196712,control_change,24,0,13,,,,,,,,,12,11,49,,,
196716,control_change,24,0,14,,,,,,,,,13,11,49,,,
196731,control_change,24,0,5,,,,,,,,,4,11,88,,,
196732,control_change,24,0,6,,,,,,,,,5,11,88,,,
196735,control_change,24,0,8,,,,,,,,,7,11,88,,,
196736,control_change,24,0,13,,,,,,,,,12,11,48,,,
196740,note_on,60,0,11,,,,,,,,,10,,,,68,0
196740,control_change,24,0,14,,,,,,,,,13,11,48,,,
196743,note_on,60,0,12,,,,,,,,,11,,,,64,0
196749,note_on,300,0,4,,,,,,,,,3,,,,52,100
196753,note_on,300,0,9,,,,,,,,,8,,,,52,110
196754,note_on,300,0,15,,,,,,,,,14,,,,40,112
196755,control_change,24,0,5,,,,,,,,,4,11,86,,,
196756,control_change,24,0,6,,,,,,,,,5,11,86,,,
196759,control_change,24,0,8,,,,,,,,,7,11,86,,,
196760,control_change,24,0,13,,,,,,,,,12,11,47,,,
196764,control_change,24,0,14,,,,,,,,,13,11,47,,,
196779,note_on,30,0,4,,,,,,,,,3,,,,52,0
196779,control_change,24,0,5,,,,,,,,,4,11,84,,,
196780,control_change,24,0,6,,,,,,,,,5,11,84,,,
196783,note_on,30,0,9,,,,,,,,,8,,,,52,0
196783,control_change,24,0,8,,,,,,,,,7,11,84,,,
196784,control_change,24,0,13,,,,,,,,,12,11,46,,,
196788,control_change,24,0,14,,,,,,,,,13,11,46,,,
196800,set_tempo,120,1,0,,,,,,327869,,,,,,,,
196800,note_on,60,0,11,,,,,,,,,10,,,,71,102
196801,note_on,0,0,1,,,,,,,,,0,,,,83,101
196801,note_on,241,0,1,,,,,,,,,0,,,,85,0
196801,note_on,0,0,1,,,,,,,,,0,,,,88,0
196801,note_on,0,0,1,,,,,,,,,0,,,,86,101
196803,note_on,60,0,12,,,,,,,,,11,,,,68,102
196803,control_change,0,0,5,,,,,,,,,4,11,82,,,
196803,note_on,24,0,5,,,,,,,,,4,,,,64,0
196804,control_change,0,0,6,,,,,,,,,5,11,82,,,
196804,note_on,0,0,2,,,,,,,,,1,,,,73,0
196804,note_on,0,0,2,,,,,,,,,1,,,,74,100
196804,note_on,241,0,2,,,,,,,,,1,,,,76,0
196804,note_on,24,0,6,,,,,,,,,5,,,,52,0
196804,note_on,0,0,2,,,,,,,,,1,,,,71,100
196807,note_on,24,0,8,,,,,,,,,7,,,,56,0
196807,note_on,0,0,8,,,,,,,,,7,,,,61,0
196807,note_on,0,0,8,,,,,,,,,7,,,,62,110
196807,note_on,0,0,8,,,,,,,,,7,,,,59,110
196807,control_change,0,0,8,,,,,,,,,7,11,82,,,
196808,note_on,0,0,13,,,,,,,,,12,,,,62,112
196808,control_change,0,0,13,,,,,,,,,12,11,45,,,
196808,note_on,24,0,13,,,,,,,,,12,,,,64,0
196809,note_on,0,0,4,,,,,,,,,3,,,,52,100
196809,note_on,0,0,4,,,,,,,,,3,,,,62,100
196809,note_on,30,0,4,,,,,,,,,3,,,,64,0
196812,note_on,24,0,14,,,,,,,,,13,,,,61,0
196812,note_on,0,0,14,,,,,,,,,13,,,,59,112
196812,control_change,0,0,14,,,,,,,,,13,11,45,,,
196813,note_on,30,0,9,,,,,,,,,8,,,,52,110
196814,note_on,60,0,15,,,,,,,,,14,,,,40,0
196814,note_on,0,0,15,,,,,,,,,14,,,,40,112
196832,control_change,24,0,13,,,,,,,,,12,11,44,,,
196836,control_change,24,0,14,,,,,,,,,13,11,44,,,
196856,control_change,24,0,13,,,,,,,,,12,11,43,,,
196860,note_on,60,0,11,,,,,,,,,10,,,,71,0
196860,control_change,24,0,14,,,,,,,,,13,11,43,,,
196863,note_on,60,0,12,,,,,,,,,11,,,,68,0
196869,note_on,60,0,4,,,,,,,,,3,,,,52,0
196873,note_on,60,0,9,,,,,,,,,8,,,,52,0
196880,control_change,24,0,13,,,,,,,,,12,11,42,,,
196884,control_change,24,0,14,,,,,,,,,13,11,42,,,
196904,control_change,24,0,13,,,,,,,,,12,11,42,,,
196908,control_change,24,0,14,,,,,,,,,13,11,42,,,
196920,set_tempo,120,1,0,,,,,,285714,,,,,,,,
196920,note_on,0,0,11,,,,,,,,,10,,,,64,102
196920,note_on,60,0,11,,,,,,,,,10,,,,73,102
196921,note_on,120,0,1,,,,,,,,,0,,,,83,0
196921,note_on,0,0,1,,,,,,,,,0,,,,81,101
196921,note_on,0,0,1,,,,,,,,,0,,,,85,101
196921,note_on,0,0,1,,,,,,,,,0,,,,86,0
196923,note_on,60,0,12,,,,,,,,,11,,,,69,102
196924,note_on,0,0,2,,,,,,,,,1,,,,73,100
196924,note_on,0,0,2,,,,,,,,,1,,,,71,0
196924,note_on,0,0,2,,,,,,,,,1,,,,69,100
196924,note_on,120,0,2,,,,,,,,,1,,,,74,0
196925,note_on,0,0,3,,,,,,,,,2,,,,81,101
196925,note_on,0,0,3,,,,,,,,,2,,,,68,0
196925,note_on,0,0,3,,,,,,,,,2,,,,69,101
196925,note_on,361,0,3,,,,,,,,,2,,,,80,0
196927,note_on,120,0,8,,,,,,,,,7,,,,59,0
196927,note_on,0,0,8,,,,,,,,,7,,,,62,0
196928,control_change,0,0,13,,,,,,,,,12,11,41,,,
196928,note_on,0,0,13,,,,,,,,,12,,,,61,112
196928,note_on,24,0,13,,,,,,,,,12,,,,62,0
196929,note_on,0,0,4,,,,,,,,,3,,,,57,100
196929,note_on,0,0,4,,,,,,,,,3,,,,61,100
196929,note_on,60,0,4,,,,,,,,,3,,,,62,0
196932,control_change,0,0,14,,,,,,,,,13,11,41,,,
196932,note_on,24,0,14,,,,,,,,,13,,,,59,0
196932,note_on,0,0,14,,,,,,,,,13,,,,57,112
196933,note_on,60,0,9,,,,,,,,,8,,,,57,110
196934,note_on,120,0,15,,,,,,,,,14,,,,40,0
196934,note_on,0,0,15,,,,,,,,,14,,,,45,112
196988,note_on,60,0,13,,,,,,,,,12,,,,61,0
196992,note_on,60,0,14,,,,,,,,,13,,,,57,0
197040,set_tempo,120,1,0,,,,,,300000,,,,,,,,
197048,note_on,60,0,13,,,,,,,,,12,,,,52,112
197052,note_on,60,0,14,,,,,,,,,13,,,,49,112
197103,note_on,300,0,5,,,,,,,,,4,,,,64,100
197104,note_on,300,0,6,,,,,,,,,5,,,,52,100
197107,note_on,180,0,8,,,,,,,,,7,,,,61,110
197107,note_on,0,0,8,,,,,,,,,7,,,,57,110
197108,note_on,60,0,13,,,,,,,,,12,,,,52,0
197112,note_on,60,0,14,,,,,,,,,13,,,,49,0
197160,set_tempo,120,1,0,,,,,,327869,,,,,,,,
197160,note_on,0,0,11,,,,,,,,,10,,,,73,0
197160,note_on,240,0,11,,,,,,,,,10,,,,64,0
197163,note_on,0,0,5,,,,,,,,,4,,,,64,100
197163,note_on,60,0,5,,,,,,,,,4,,,,64,0
197163,note_on,240,0,12,,,,,,,,,11,,,,69,0
197164,note_on,0,0,6,,,,,,,,,5,,,,52,100
197164,note_on,60,0,6,,,,,,,,,5,,,,52,0
197167,note_on,0,0,8,,,,,,,,,7,,,,61,110
197167,note_on,0,0,8,,,,,,,,,7,,,,57,110
197167,note_on,60,0,8,,,,,,,,,7,,,,57,0
197167,note_on,0,0,8,,,,,,,,,7,,,,61,0
197168,note_on,60,0,13,,,,,,,,,12,,,,57,112
197169,note_on,240,0,4,,,,,,,,,3,,,,57,0
197172,note_on,60,0,14,,,,,,,,,13,,,,52,112
197173,note_on,240,0,9,,,,,,,,,8,,,,57,0
197174,note_on,240,0,15,,,,,,,,,14,,,,45,0
197228,note_on,60,0,13,,,,,,,,,12,,,,57,0
197232,note_on,60,0,14,,,,,,,,,13,,,,52,0
197280,set_tempo,120,1,0,,,,,,285714,,,,,,,,
197280,note_on,120,0,11,,,,,,,,,10,,,,61,102
197283,note_on,0,0,5,,,,,,,,,4,,,,64,100
197283,note_on,120,0,12,,,,,,,,,11,,,,57,102
197283,note_on,120,0,5,,,,,,,,,4,,,,64,0
197284,note_on,0,0,6,,,,,,,,,5,,,,52,100
197284,note_on,120,0,6,,,,,,,,,5,,,,52,0
197287,note_on,0,0,8,,,,,,,,,7,,,,57,0
197287,note_on,0,0,8,,,,,,,,,7,,,,57,110
197287,note_on,0,0,8,,,,,,,,,7,,,,61,110
197287,note_on,120,0,8,,,,,,,,,7,,,,61,0
197288,note_on,60,0,13,,,,,,,,,12,,,,61,127
197292,note_on,60,0,14,,,,,,,,,13,,,,57,127
197340,note_on,60,0,11,,,,,,,,,10,,,,61,0
197343,note_on,60,0,12,,,,,,,,,11,,,,57,0
197400,note_on,60,0,11,,,,,,,,,10,,,,64,102
197400,set_tempo,120,1,0,,,,,,300000,,,,,,,,
197401,note_on,0,0,1,,,,,,,,,0,,,,85,0
197401,note_on,480,0,1,,,,,,,,,0,,,,81,0
197403,note_on,60,0,12,,,,,,,,,11,,,,61,102
197404,note_on,0,0,2,,,,,,,,,1,,,,73,0
197404,note_on,480,0,2,,,,,,,,,1,,,,69,0
197405,note_on,480,0,3,,,,,,,,,2,,,,69,0
197405,note_on,0,0,3,,,,,,,,,2,,,,81,0
197409,note_on,240,0,4,,,,,,,,,3,,,,61,0
197460,note_on,60,0,11,,,,,,,,,10,,,,64,0
197463,note_on,60,0,12,,,,,,,,,11,,,,61,0
197473,note_on,300,0,9,,,,,,,,,8,,,,45,110
197474,note_on,300,0,15,,,,,,,,,14,,,,45,112
197503,note_on,30,0,9,,,,,,,,,8,,,,45,0
197504,note_on,30,0,15,,,,,,,,,14,,,,45,0
197520,note_on,60,0,11,,,,,,,,,10,,,,69,102
197520,set_tempo,120,1,0,,,,,,352941,,,,,,,,
197523,note_on,240,0,5,,,,,,,,,4,,,,64,0
197523,note_on,60,0,12,,,,,,,,,11,,,,64,102
197524,note_on,240,0,6,,,,,,,,,5,,,,52,0
197527,note_on,240,0,8,,,,,,,,,7,,,,61,0
197527,note_on,0,0,8,,,,,,,,,7,,,,57,0
197528,note_on,240,0,13,,,,,,,,,12,,,,61,0
197532,note_on,240,0,14,,,,,,,,,13,,,,57,0
197533,note_on,30,0,9,,,,,,,,,8,,,,44,110
197534,note_on,30,0,15,,,,,,,,,14,,,,44,112
197580,note_on,60,0,11,,,,,,,,,10,,,,69,0
197583,note_on,60,0,12,,,,,,,,,11,,,,64,0
197585,note_on,0,0,3,,,,,,,,,2,,,,73,101
197585,note_on,0,0,3,,,,,,,,,2,,,,69,101
197585,control_change,180,0,3,,,,,,,,,2,11,59,,,
197587,control_change,0,0,8,,,,,,,,,7,11,47,,,
197587,note_on,0,0,8,,,,,,,,,7,,,,54,110
197587,note_on,60,0,8,,,,,,,,,7,,,,66,110
197589,note_on,0,0,4,,,,,,,,,3,,,,61,100
197589,note_on,180,0,4,,,,,,,,,3,,,,57,100
197589,control_change,0,0,4,,,,,,,,,3,11,62,,,
197593,note_on,60,0,9,,,,,,,,,8,,,,44,0
197594,note_on,60,0,15,,,,,,,,,14,,,,44,0
197640,set_tempo,120,1,0,,,,,,291262,,,,,,,,
197640,note_on,0,0,11,,,,,,,,,10,,,,73,102
197640,control_change,60,0,11,,,,,,,,,10,11,41,,,
197643,control_change,0,0,12,,,,,,,,,11,11,41,,,
197643,note_on,0,0,12,,,,,,,,,11,,,,61,102
197643,note_on,60,0,12,,,,,,,,,11,,,,69,102
197645,note_on,0,0,3,,,,,,,,,2,,,,69,101
197645,note_on,0,0,3,,,,,,,,,2,,,,73,101
197645,note_on,0,0,3,,,,,,,,,2,,,,69,0
197645,note_on,60,0,3,,,,,,,,,2,,,,73,0
197647,note_on,60,0,8,,,,,,,,,7,,,,54,0
197647,note_on,0,0,8,,,,,,,,,7,,,,66,110
197647,note_on,0,0,8,,,,,,,,,7,,,,54,110
197647,note_on,0,0,8,,,,,,,,,7,,,,66,0
197649,note_on,0,0,4,,,,,,,,,3,,,,61,100
197649,note_on,0,0,4,,,,,,,,,3,,,,57,100
197649,note_on,60,0,4,,,,,,,,,3,,,,61,0
197649,note_on,0,0,4,,,,,,,,,3,,,,57,0
197653,control_change,0,0,9,,,,,,,,,8,11,47,,,
197653,note_on,60,0,9,,,,,,,,,8,,,,42,110
197654,note_on,0,0,15,,,,,,,,,14,,,,42,127
197654,control_change,60,0,15,,,,,,,,,14,11,41,,,
197760,set_tempo,120,1,0,,,,,,307692,,,,,,,,
197768,control_change,0,0,13,,,,,,,,,12,11,41,,,
197768,note_on,240,0,13,,,,,,,,,12,,,,54,112
197772,note_on,240,0,14,,,,,,,,,13,,,,49,112
197772,control_change,0,0,14,,,,,,,,,13,11,41,,,
197821,note_on,420,0,1,,,,,,,,,0,,,,90,101
197821,control_change,0,0,1,,,,,,,,,0,11,47,,,
197821,note_on,0,0,1,,,,,,,,,0,,,,85,101
197824,note_on,420,0,2,,,,,,,,,1,,,,78,100
197824,note_on,0,0,2,,,,,,,,,1,,,,81,100
197824,control_change,0,0,2,,,,,,,,,1,11,47,,,
197828,note_on,60,0,13,,,,,,,,,12,,,,54,0
197832,note_on,60,0,14,,,,,,,,,13,,,,49,0
197851,note_on,30,0,1,,,,,,,,,0,,,,85,0
197851,note_on,0,0,1,,,,,,,,,0,,,,90,0
197854,note_on,0,0,2,,,,,,,,,1,,,,78,0
197854,note_on,30,0,2,,,,,,,,,1,,,,81,0
197880,set_tempo,120,1,0,,,,,,330579,,,,,,,,
197880,note_on,240,0,11,,,,,,,,,10,,,,73,0
197881,note_on,0,0,1,,,,,,,,,0,,,,85,101
197881,note_on,30,0,1,,,,,,,,,0,,,,90,101
197883,note_on,0,0,12,,,,,,,,,11,,,,69,0
197883,note_on,240,0,12,,,,,,,,,11,,,,61,0
197884,note_on,30,0,2,,,,,,,,,1,,,,81,100
197884,note_on,0,0,2,,,,,,,,,1,,,,78,100
197888,note_on,60,0,13,,,,,,,,,12,,,,57,112
197892,note_on,60,0,14,,,,,,,,,13,,,,54,112
197893,note_on,240,0,9,,,,,,,,,8,,,,42,0
197894,note_on,240,0,15,,,,,,,,,14,,,,42,0
197941,note_on,60,0,1,,,,,,,,,0,,,,85,0
197941,note_on,0,0,1,,,,,,,,,0,,,,90,0
197944,note_on,0,0,2,,,,,,,,,1,,,,81,0
197944,note_on,60,0,2,,,,,,,,,1,,,,78,0
197948,note_on,60,0,13,,,,,,,,,12,,,,57,0
197952,note_on,60,0,14,,,,,,,,,13,,,,54,0
198000,note_on,120,0,11,,,,,,,,,10,,,,61,102
198000,set_tempo,120,1,0,,,,,,291262,,,,,,,,
198001,note_on,60,0,1,,,,,,,,,0,,,,90,116
198001,note_on,0,0,1,,,,,,,,,0,,,,85,116
198003,note_on,120,0,12,,,,,,,,,11,,,,57,102
198004,note_on,0,0,2,,,,,,,,,1,,,,81,115
198004,note_on,60,0,2,,,,,,,,,1,,,,78,115
198008,note_on,60,0,13,,,,,,,,,12,,,,61,112
198012,note_on,60,0,14,,,,,,,,,13,,,,57,112
198060,note_on,60,0,11,,,,,,,,,10,,,,61,0
198063,note_on,60,0,12,,,,,,,,,11,,,,57,0
198120,note_on,60,0,11,,,,,,,,,10,,,,66,102
198120,set_tempo,120,1,0,,,,,,307692,,,,,,,,
198123,note_on,60,0,12,,,,,,,,,11,,,,61,102
198180,note_on,60,0,11,,,,,,,,,10,,,,66,0
198183,note_on,60,0,12,,,,,,,,,11,,,,61,0
198194,note_on,300,0,15,,,,,,,,,14,,,,42,112
198240,set_tempo,120,1,0,,,,,,330579,,,,,,,,
198240,note_on,60,0,11,,,,,,,,,10,,,,69,102
198241,note_on,0,0,1,,,,,,,,,0,,,,90,0
198241,note_on,240,0,1,,,,,,,,,0,,,,85,0
198243,note_on,60,0,12,,,,,,,,,11,,,,66,102
198244,note_on,0,0,2,,,,,,,,,1,,,,78,0
198244,note_on,240,0,2,,,,,,,,,1,,,,81,0
198248,note_on,240,0,13,,,,,,,,,12,,,,61,0
198252,note_on,240,0,14,,,,,,,,,13,,,,57,0
198254,note_on,0,0,15,,,,,,,,,14,,,,42,112
198254,note_on,60,0,15,,,,,,,,,14,,,,42,0
198300,note_on,60,0,11,,,,,,,,,10,,,,69,0
198303,note_on,60,0,12,,,,,,,,,11,,,,66,0
198305,note_on,0,0,3,,,,,,,,,2,,,,69,101
198305,note_on,0,0,3,,,,,,,,,2,,,,73,101
198305,note_on,0,0,3,,,,,,,,,2,,,,69,0
198305,note_on,660,0,3,,,,,,,,,2,,,,73,0
198307,note_on,0,0,8,,,,,,,,,7,,,,54,0
198307,note_on,0,0,8,,,,,,,,,7,,,,66,110
198307,note_on,0,0,8,,,,,,,,,7,,,,54,110
198307,note_on,660,0,8,,,,,,,,,7,,,,66,0
198309,note_on,0,0,4,,,,,,,,,3,,,,61,100
198309,note_on,0,0,4,,,,,,,,,3,,,,57,100
198309,note_on,0,0,4,,,,,,,,,3,,,,61,0
198309,note_on,660,0,4,,,,,,,,,3,,,,57,0
198360,set_tempo,120,1,0,,,,,,291262,,,,,,,,
198360,note_on,60,0,11,,,,,,,,,10,,,,73,102
198360,note_on,0,0,11,,,,,,,,,10,,,,66,102
198363,note_on,60,0,12,,,,,,,,,11,,,,69,102
198365,note_on,60,0,3,,,,,,,,,2,,,,69,0
198365,note_on,0,0,3,,,,,,,,,2,,,,73,0
198365,note_on,0,0,3,,,,,,,,,2,,,,73,101
198365,note_on,0,0,3,,,,,,,,,2,,,,69,101
198367,note_on,0,0,8,,,,,,,,,7,,,,54,110
198367,note_on,60,0,8,,,,,,,,,7,,,,54,0
198367,note_on,0,0,8,,,,,,,,,7,,,,66,0
198367,note_on,0,0,8,,,,,,,,,7,,,,66,110
198369,note_on,0,0,4,,,,,,,,,3,,,,57,100
198369,note_on,0,0,4,,,,,,,,,3,,,,61,100
198369,note_on,60,0,4,,,,,,,,,3,,,,61,0
198369,note_on,0,0,4,,,,,,,,,3,,,,57,0
198374,note_on,0,0,15,,,,,,,,,14,,,,42,112
198374,note_on,120,0,15,,,,,,,,,14,,,,42,0
198480,set_tempo,120,1,0,,,,,,307692,,,,,,,,
198488,note_on,240,0,13,,,,,,,,,12,,,,54,112
198492,note_on,240,0,14,,,,,,,,,13,,,,49,112
198541,note_on,0,0,1,,,,,,,,,0,,,,85,101
198541,note_on,300,0,1,,,,,,,,,0,,,,90,101
198544,note_on,0,0,2,,,,,,,,,1,,,,81,100
198544,note_on,300,0,2,,,,,,,,,1,,,,78,100
198548,note_on,60,0,13,,,,,,,,,12,,,,54,0
198552,note_on,60,0,14,,,,,,,,,13,,,,49,0
198571,note_on,0,0,1,,,,,,,,,0,,,,90,0
198571,note_on,30,0,1,,,,,,,,,0,,,,85,0
198574,note_on,0,0,2,,,,,,,,,1,,,,78,0
198574,note_on,30,0,2,,,,,,,,,1,,,,81,0
198600,note_on,240,0,11,,,,,,,,,10,,,,66,0
198600,set_tempo,120,1,0,,,,,,330579,,,,,,,,
198600,note_on,0,0,11,,,,,,,,,10,,,,73,0
198601,note_on,30,0,1,,,,,,,,,0,,,,85,101
198601,note_on,0,0,1,,,,,,,,,0,,,,90,101
198603,note_on,240,0,12,,,,,,,,,11,,,,69,0
198604,note_on,0,0,2,,,,,,,,,1,,,,81,100
198604,note_on,30,0,2,,,,,,,,,1,,,,78,100
198605,note_on,0,0,3,,,,,,,,,2,,,,73,101
198605,note_on,0,0,3,,,,,,,,,2,,,,73,0
198605,note_on,240,0,3,,,,,,,,,2,,,,69,0
198605,note_on,0,0,3,,,,,,,,,2,,,,69,101
198607,note_on,0,0,8,,,,,,,,,7,,,,66,110
198607,note_on,0,0,8,,,,,,,,,7,,,,54,110
198607,note_on,0,0,8,,,,,,,,,7,,,,66,0
198607,note_on,240,0,8,,,,,,,,,7,,,,54,0
198608,note_on,60,0,13,,,,,,,,,12,,,,57,112
198609,note_on,0,0,4,,,,,,,,,3,,,,61,100
198609,note_on,0,0,4,,,,,,,,,3,,,,57,0
198609,note_on,240,0,4,,,,,,,,,3,,,,61,0
198609,note_on,0,0,4,,,,,,,,,3,,,,57,100
198612,note_on,60,0,14,,,,,,,,,13,,,,54,112
198614,note_on,240,0,15,,,,,,,,,14,,,,42,0
198661,note_on,0,0,1,,,,,,,,,0,,,,85,0
198661,note_on,60,0,1,,,,,,,,,0,,,,90,0
198664,note_on,60,0,2,,,,,,,,,1,,,,81,0
198664,note_on,0,0,2,,,,,,,,,1,,,,78,0
198668,note_on,60,0,13,,,,,,,,,12,,,,57,0
198672,note_on,60,0,14,,,,,,,,,13,,,,54,0
198720,note_on,120,0,11,,,,,,,,,10,,,,66,102
198720,set_tempo,120,1,0,,,,,,291262,,,,,,,,
198721,note_on,60,0,1,,,,,,,,,0,,,,85,116
198721,note_on,0,0,1,,,,,,,,,0,,,,90,116
198723,note_on,120,0,12,,,,,,,,,11,,,,61,102
198724,note_on,0,0,2,,,,,,,,,1,,,,81,115
198724,note_on,60,0,2,,,,,,,,,1,,,,78,115
198725,note_on,0,0,3,,,,,,,,,2,,,,69,101
198725,note_on,0,0,3,,,,,,,,,2,,,,69,0
198725,note_on,120,0,3,,,,,,,,,2,,,,73,0
198725,note_on,0,0,3,,,,,,,,,2,,,,73,101
198727,note_on,0,0,8,,,,,,,,,7,,,,54,110
198727,note_on,0,0,8,,,,,,,,,7,,,,66,110
198727,note_on,0,0,8,,,,,,,,,7,,,,54,0
198727,note_on,120,0,8,,,,,,,,,7,,,,66,0
198728,note_on,60,0,13,,,,,,,,,12,,,,61,112
198729,note_on,0,0,4,,,,,,,,,3,,,,61,100
198729,note_on,0,0,4,,,,,,,,,3,,,,57,100
198729,note_on,0,0,4,,,,,,,,,3,,,,57,0
198729,note_on,120,0,4,,,,,,,,,3,,,,61,0
198732,note_on,60,0,14,,,,,,,,,13,,,,57,112
198780,note_on,60,0,11,,,,,,,,,10,,,,66,0
198783,note_on,60,0,12,,,,,,,,,11,,,,61,0
198840,set_tempo,120,1,0,,,,,,307692,,,,,,,,
198840,note_on,60,0,11,,,,,,,,,10,,,,69,102
198843,note_on,60,0,12,,,,,,,,,11,,,,66,102
198845,note_on,120,0,3,,,,,,,,,2,,,,69,0
198845,note_on,0,0,3,,,,,,,,,2,,,,73,0
198845,note_on,0,0,3,,,,,,,,,2,,,,68,101
198845,note_on,0,0,3,,,,,,,,,2,,,,71,101
198849,note_on,0,0,4,,,,,,,,,3,,,,61,0
198849,note_on,120,0,4,,,,,,,,,3,,,,57,0
198849,note_on,0,0,4,,,,,,,,,3,,,,56,100
198849,note_on,0,0,4,,,,,,,,,3,,,,59,100
198900,note_on,60,0,11,,,,,,,,,10,,,,69,0
198903,note_on,60,0,12,,,,,,,,,11,,,,66,0
198914,note_on,300,0,15,,,,,,,,,14,,,,42,112
198960,note_on,60,0,11,,,,,,,,,10,,,,73,102
198960,set_tempo,120,1,0,,,,,,330579,,,,,,,,
198961,note_on,0,0,1,,,,,,,,,0,,,,85,0
198961,note_on,240,0,1,,,,,,,,,0,,,,90,0
198963,note_on,60,0,12,,,,,,,,,11,,,,69,102
198964,note_on,0,0,2,,,,,,,,,1,,,,78,0
198964,note_on,240,0,2,,,,,,,,,1,,,,81,0
198965,note_on,0,0,3,,,,,,,,,2,,,,71,0
198965,note_on,120,0,3,,,,,,,,,2,,,,68,0
198965,note_on,0,0,3,,,,,,,,,2,,,,69,101
198965,note_on,0,0,3,,,,,,,,,2,,,,66,101
198967,note_on,240,0,8,,,,,,,,,7,,,,54,0
198967,note_on,0,0,8,,,,,,,,,7,,,,66,110
198967,note_on,0,0,8,,,,,,,,,7,,,,54,110
198967,note_on,0,0,8,,,,,,,,,7,,,,66,0
198968,note_on,240,0,13,,,,,,,,,12,,,,61,0
198969,note_on,120,0,4,,,,,,,,,3,,,,59,0
198969,note_on,0,0,4,,,,,,,,,3,,,,56,0
198969,note_on,0,0,4,,,,,,,,,3,,,,57,100
198969,note_on,0,0,4,,,,,,,,,3,,,,54,100
198972,note_on,240,0,14,,,,,,,,,13,,,,57,0
198974,note_on,60,0,15,,,,,,,,,14,,,,42,0
198974,note_on,0,0,15,,,,,,,,,14,,,,42,112
199020,note_on,60,0,11,,,,,,,,,10,,,,73,0
199023,note_on,60,0,12,,,,,,,,,11,,,,69,0
199080,set_tempo,120,1,0,,,,,,291262,,,,,,,,
199080,note_on,60,0,11,,,,,,,,,10,,,,66,102
199080,note_on,0,0,11,,,,,,,,,10,,,,74,102
199083,note_on,60,0,12,,,,,,,,,11,,,,71,102
199085,note_on,0,0,3,,,,,,,,,2,,,,69,0
199085,note_on,0,0,3,,,,,,,,,2,,,,71,101
199085,note_on,0,0,3,,,,,,,,,2,,,,74,101
199085,note_on,120,0,3,,,,,,,,,2,,,,66,0
199087,note_on,120,0,8,,,,,,,,,7,,,,66,0
199087,note_on,0,0,8,,,,,,,,,7,,,,54,0
199087,note_on,0,0,8,,,,,,,,,7,,,,66,110
199087,note_on,0,0,8,,,,,,,,,7,,,,54,110
199089,note_on,120,0,4,,,,,,,,,3,,,,54,0
199089,note_on,0,0,4,,,,,,,,,3,,,,57,0
199089,note_on,0,0,4,,,,,,,,,3,,,,62,100
199089,note_on,0,0,4,,,,,,,,,3,,,,59,100
199094,note_on,0,0,15,,,,,,,,,14,,,,35,112
199094,note_on,120,0,15,,,,,,,,,14,,,,42,0
199200,set_tempo,120,1,0,,,,,,307692,,,,,,,,
199208,note_on,240,0,13,,,,,,,,,12,,,,54,112
199212,note_on,240,0,14,,,,,,,,,13,,,,50,112
199261,note_on,300,0,1,,,,,,,,,0,,,,86,101
199261,note_on,0,0,1,,,,,,,,,0,,,,90,101
199264,note_on,0,0,2,,,,,,,,,1,,,,78,100
199264,note_on,300,0,2,,,,,,,,,1,,,,83,100
199268,note_on,60,0,13,,,,,,,,,12,,,,54,0
199272,note_on,60,0,14,,,,,,,,,13,,,,50,0
199291,note_on,0,0,1,,,,,,,,,0,,,,86,0
199291,note_on,30,0,1,,,,,,,,,0,,,,90,0
199294,note_on,30,0,2,,,,,,,,,1,,,,78,0
199294,note_on,0,0,2,,,,,,,,,1,,,,83,0
199320,note_on,0,0,11,,,,,,,,,10,,,,66,0
199320,note_on,240,0,11,,,,,,,,,10,,,,74,0
199320,set_tempo,120,1,0,,,,,,330579,,,,,,,,
199321,note_on,30,0,1,,,,,,,,,0,,,,90,101
199321,note_on,0,0,1,,,,,,,,,0,,,,86,101
199323,note_on,240,0,12,,,,,,,,,11,,,,71,0
199324,note_on,0,0,2,,,,,,,,,1,,,,83,100
199324,note_on,30,0,2,,,,,,,,,1,,,,78,100
199328,note_on,60,0,13,,,,,,,,,12,,,,59,112
199332,note_on,60,0,14,,,,,,,,,13,,,,54,112
199334,note_on,240,0,15,,,,,,,,,14,,,,35,0
199381,note_on,0,0,1,,,,,,,,,0,,,,90,0
199381,note_on,60,0,1,,,,,,,,,0,,,,86,0
199384,note_on,0,0,2,,,,,,,,,1,,,,78,0
199384,note_on,60,0,2,,,,,,,,,1,,,,83,0
199388,note_on,60,0,13,,,,,,,,,12,,,,59,0
199392,note_on,60,0,14,,,,,,,,,13,,,,54,0
199440,note_on,120,0,11,,,,,,,,,10,,,,66,102
199440,set_tempo,120,1,0,,,,,,291262,,,,,,,,
199441,note_on,0,0,1,,,,,,,,,0,,,,86,116
199441,note_on,60,0,1,,,,,,,,,0,,,,90,116
199443,note_on,120,0,12,,,,,,,,,11,,,,62,102
199444,note_on,0,0,2,,,,,,,,,1,,,,83,115
199444,note_on,60,0,2,,,,,,,,,1,,,,78,115
199448,note_on,60,0,13,,,,,,,,,12,,,,62,112
199452,note_on,60,0,14,,,,,,,,,13,,,,59,112
199500,note_on,60,0,11,,,,,,,,,10,,,,66,0
199503,note_on,60,0,12,,,,,,,,,11,,,,62,0
199560,note_on,60,0,11,,,,,,,,,10,,,,71,102
199560,set_tempo,120,1,0,,,,,,307692,,,,,,,,
199563,note_on,60,0,12,,,,,,,,,11,,,,66,102
199620,note_on,60,0,11,,,,,,,,,10,,,,71,0
199623,note_on,60,0,12,,,,,,,,,11,,,,66,0
199634,note_on,300,0,15,,,,,,,,,14,,,,35,112
199680,note_on,60,0,11,,,,,,,,,10,,,,74,102
199680,set_tempo,120,1,0,,,,,,330579,,,,,,,,
199681,note_on,240,0,1,,,,,,,,,0,,,,86,0
199681,note_on,0,0,1,,,,,,,,,0,,,,90,0
199683,note_on,60,0,12,,,,,,,,,11,,,,71,102
199684,note_on,240,0,2,,,,,,,,,1,,,,83,0
199684,note_on,0,0,2,,,,,,,,,1,,,,78,0
199688,note_on,240,0,13,,,,,,,,,12,,,,62,0
199692,note_on,240,0,14,,,,,,,,,13,,,,59,0
199694,note_on,0,0,15,,,,,,,,,14,,,,38,112
199694,note_on,60,0,15,,,,,,,,,14,,,,35,0
199740,note_on,60,0,11,,,,,,,,,10,,,,74,0
199743,note_on,60,0,12,,,,,,,,,11,,,,71,0
199800,note_on,60,0,11,,,,,,,,,10,,,,66,102
199800,set_tempo,120,1,0,,,,,,291262,,,,,,,,
199800,note_on,0,0,11,,,,,,,,,10,,,,73,102
199803,note_on,60,0,12,,,,,,,,,11,,,,69,102
199805,note_on,720,0,3,,,,,,,,,2,,,,74,0
199805,note_on,0,0,3,,,,,,,,,2,,,,73,101
199805,note_on,0,0,3,,,,,,,,,2,,,,69,101
199805,note_on,0,0,3,,,,,,,,,2,,,,71,0
199809,note_on,0,0,4,,,,,,,,,3,,,,61,100
199809,note_on,0,0,4,,,,,,,,,3,,,,57,100
199809,note_on,0,0,4,,,,,,,,,3,,,,59,0
199809,note_on,720,0,4,,,,,,,,,3,,,,62,0
199814,note_on,0,0,15,,,,,,,,,14,,,,42,112
199814,note_on,120,0,15,,,,,,,,,14,,,,38,0
199920,set_tempo,120,1,0,,,,,,307692,,,,,,,,
199928,note_on,240,0,13,,,,,,,,,12,,,,54,112
199932,note_on,240,0,14,,,,,,,,,13,,,,49,112
199981,note_on,0,0,1,,,,,,,,,0,,,,85,101
199981,note_on,300,0,1,,,,,,,,,0,,,,90,101
199984,note_on,0,0,2,,,,,,,,,1,,,,78,100
199984,note_on,300,0,2,,,,,,,,,1,,,,81,100
199988,note_on,60,0,13,,,,,,,,,12,,,,54,0
199992,note_on,60,0,14,,,,,,,,,13,,,,49,0
200011,note_on,0,0,1,,,,,,,,,0,,,,90,0
200011,note_on,30,0,1,,,,,,,,,0,,,,85,0
200014,note_on,30,0,2,,,,,,,,,1,,,,78,0
200014,note_on,0,0,2,,,,,,,,,1,,,,81,0
200040,note_on,0,0,11,,,,,,,,,10,,,,66,0
200040,note_on,240,0,11,,,,,,,,,10,,,,73,0
200040,set_tempo,120,1,0,,,,,,330579,,,,,,,,
200041,note_on,30,0,1,,,,,,,,,0,,,,90,101
200041,note_on,0,0,1,,,,,,,,,0,,,,85,101
200043,note_on,240,0,12,,,,,,,,,11,,,,69,0
200044,note_on,30,0,2,,,,,,,,,1,,,,78,100
200044,note_on,0,0,2,,,,,,,,,1,,,,81,100
200048,note_on,60,0,13,,,,,,,,,12,,,,57,112
200052,note_on,60,0,14,,,,,,,,,13,,,,54,112
200054,note_on,240,0,15,,,,,,,,,14,,,,42,0
200101,note_on,0,0,1,,,,,,,,,0,,,,90,0
200101,note_on,60,0,1,,,,,,,,,0,,,,85,0
200104,note_on,60,0,2,,,,,,,,,1,,,,81,0
200104,note_on,0,0,2,,,,,,,,,1,,,,78,0
200108,note_on,60,0,13,,,,,,,,,12,,,,57,0
200112,note_on,60,0,14,,,,,,,,,13,,,,54,0
200160,note_on,120,0,11,,,,,,,,,10,,,,61,102
200160,set_tempo,120,1,0,,,,,,291262,,,,,,,,
200161,note_on,60,0,1,,,,,,,,,0,,,,85,116
200161,note_on,0,0,1,,,,,,,,,0,,,,90,116
200163,note_on,120,0,12,,,,,,,,,11,,,,57,102
200164,note_on,60,0,2,,,,,,,,,1,,,,81,115
200164,note_on,0,0,2,,,,,,,,,1,,,,78,115
200167,note_on,0,0,8,,,,,,,,,7,,,,66,110
200167,note_on,0,0,8,,,,,,,,,7,,,,66,0
200167,note_on,1080,0,8,,,,,,,,,7,,,,54,0
200167,note_on,0,0,8,,,,,,,,,7,,,,54,110
200168,note_on,60,0,13,,,,,,,,,12,,,,61,112
200172,note_on,60,0,14,,,,,,,,,13,,,,57,112
200220,note_on,60,0,11,,,,,,,,,10,,,,61,0
200223,note_on,60,0,12,,,,,,,,,11,,,,57,0
200280,set_tempo,120,1,0,,,,,,307692,,,,,,,,
200280,note_on,60,0,11,,,,,,,,,10,,,,66,102
200283,note_on,60,0,12,,,,,,,,,11,,,,61,102
200285,note_on,480,0,3,,,,,,,,,2,,,,69,0
200285,note_on,0,0,3,,,,,,,,,2,,,,73,0
200287,note_on,0,0,8,,,,,,,,,7,,,,66,0
200287,note_on,120,0,8,,,,,,,,,7,,,,54,0
200289,note_on,480,0,4,,,,,,,,,3,,,,61,0
200289,note_on,0,0,4,,,,,,,,,3,,,,57,0
200340,note_on,60,0,11,,,,,,,,,10,,,,66,0
200343,note_on,60,0,12,,,,,,,,,11,,,,61,0
200354,note_on,300,0,15,,,,,,,,,14,,,,42,112
200400,note_on,60,0,11,,,,,,,,,10,,,,69,102
200400,set_tempo,120,1,0,,,,,,330579,,,,,,,,
200401,note_on,0,0,1,,,,,,,,,0,,,,85,0
200401,note_on,240,0,1,,,,,,,,,0,,,,90,0
200403,note_on,60,0,12,,,,,,,,,11,,,,66,102
200404,note_on,240,0,2,,,,,,,,,1,,,,78,0
200404,note_on,0,0,2,,,,,,,,,1,,,,81,0
200405,note_on,0,0,3,,,,,,,,,2,,,,69,101
200405,note_on,120,0,3,,,,,,,,,2,,,,73,101
200407,note_on,120,0,8,,,,,,,,,7,,,,66,110
200407,note_on,0,0,8,,,,,,,,,7,,,,54,110
200408,note_on,240,0,13,,,,,,,,,12,,,,61,0
200409,note_on,0,0,4,,,,,,,,,3,,,,57,100
200409,note_on,120,0,4,,,,,,,,,3,,,,61,100
200412,note_on,240,0,14,,,,,,,,,13,,,,57,0
200414,note_on,60,0,15,,,,,,,,,14,,,,42,0
200414,note_on,0,0,15,,,,,,,,,14,,,,40,112
200460,note_on,60,0,11,,,,,,,,,10,,,,69,0
200463,note_on,60,0,12,,,,,,,,,11,,,,66,0
200520,set_tempo,120,1,0,,,,,,291262,,,,,,,,
200520,note_on,60,0,11,,,,,,,,,10,,,,72,102
200520,control_change,0,0,11,,,,,,,,,10,11,41,,,
200523,control_change,0,0,12,,,,,,,,,11,11,41,,,
200523,note_on,60,0,12,,,,,,,,,11,,,,66,102
200523,note_on,0,0,12,,,,,,,,,11,,,,69,102
200525,note_on,120,0,3,,,,,,,,,2,,,,69,0
200525,note_on,0,0,3,,,,,,,,,2,,,,69,101
200525,control_change,0,0,3,,,,,,,,,2,11,74,,,
200525,note_on,0,0,3,,,,,,,,,2,,,,73,0
200525,note_on,0,0,3,,,,,,,,,2,,,,72,101
200527,note_on,0,0,8,,,,,,,,,7,,,,66,0
200527,note_on,0,0,8,,,,,,,,,7,,,,66,110
200527,note_on,120,0,8,,,,,,,,,7,,,,54,0
200527,control_change,7,0,11,,,,,,,,,10,11,46,,,
200527,control_change,0,0,8,,,,,,,,,7,11,37,,,
200527,note_on,0,0,8,,,,,,,,,7,,,,54,110
200529,note_on,0,0,4,,,,,,,,,3,,,,57,100
200529,note_on,0,0,4,,,,,,,,,3,,,,61,0
200529,note_on,0,0,4,,,,,,,,,3,,,,60,100
200529,note_on,120,0,4,,,,,,,,,3,,,,57,0
200529,control_change,0,0,4,,,,,,,,,3,11,82,,,
200530,control_change,7,0,12,,,,,,,,,11,11,46,,,
200530,control_change,3,0,11,,,,,,,,,10,11,49,,,
200531,control_change,4,0,8,,,,,,,,,7,11,61,,,
200532,control_change,120,0,14,,,,,,,,,13,11,41,,,
200532,note_on,0,0,14,,,,,,,,,13,,,,51,112
200533,control_change,3,0,12,,,,,,,,,11,11,49,,,
200534,note_on,120,0,15,,,,,,,,,14,,,,40,0
200534,control_change,0,0,15,,,,,,,,,14,11,41,,,
200534,note_on,0,0,15,,,,,,,,,14,,,,39,112
200534,control_change,4,0,11,,,,,,,,,10,11,52,,,
200537,control_change,4,0,12,,,,,,,,,11,11,52,,,
200538,control_change,4,0,11,,,,,,,,,10,11,55,,,
200539,control_change,7,0,14,,,,,,,,,13,11,46,,,
200541,control_change,7,0,15,,,,,,,,,14,11,46,,,
200541,control_change,4,0,12,,,,,,,,,11,11,55,,,
200542,control_change,3,0,14,,,,,,,,,13,11,49,,,
200543,control_change,18,0,3,,,,,,,,,2,11,72,,,
200544,control_change,3,0,15,,,,,,,,,14,11,49,,,
200545,control_change,7,0,11,,,,,,,,,10,11,60,,,
200546,control_change,4,0,14,,,,,,,,,13,11,52,,,
200546,control_change,15,0,8,,,,,,,,,7,11,58,,,
200547,control_change,18,0,4,,,,,,,,,3,11,79,,,
200548,control_change,4,0,15,,,,,,,,,14,11,52,,,
200548,control_change,7,0,12,,,,,,,,,11,11,60,,,
200548,control_change,3,0,11,,,,,,,,,10,11,63,,,
200550,control_change,4,0,14,,,,,,,,,13,11,55,,,
200551,control_change,3,0,12,,,,,,,,,11,11,63,,,
200552,control_change,4,0,15,,,,,,,,,14,11,55,,,
200557,control_change,7,0,14,,,,,,,,,13,11,60,,,
200559,control_change,7,0,15,,,,,,,,,14,11,60,,,
200560,control_change,14,0,8,,,,,,,,,7,11,55,,,
200560,control_change,3,0,14,,,,,,,,,13,11,63,,,
200561,control_change,18,0,3,,,,,,,,,2,11,70,,,
200562,control_change,3,0,15,,,,,,,,,14,11,63,,,
200565,control_change,18,0,4,,,,,,,,,3,11,76,,,
200566,control_change,18,0,11,,,,,,,,,10,11,62,,,
200569,control_change,18,0,12,,,,,,,,,11,11,62,,,
200575,control_change,15,0,8,,,,,,,,,7,11,52,,,
200578,control_change,18,0,14,,,,,,,,,13,11,62,,,
200579,control_change,18,0,3,,,,,,,,,2,11,67,,,
200580,control_change,18,0,15,,,,,,,,,14,11,62,,,
200583,control_change,17,0,11,,,,,,,,,10,11,60,,,
200583,control_change,18,0,4,,,,,,,,,3,11,73,,,
200586,control_change,17,0,12,,,,,,,,,11,11,60,,,
200589,control_change,14,0,8,,,,,,,,,7,11,49,,,
200592,note_on,14,0,14,,,,,,,,,13,,,,51,0
200595,control_change,3,0,14,,,,,,,,,13,11,60,,,
200597,control_change,18,0,3,,,,,,,,,2,11,65,,,
200597,control_change,17,0,15,,,,,,,,,14,11,60,,,
200600,control_change,17,0,11,,,,,,,,,10,11,58,,,
200601,control_change,18,0,4,,,,,,,,,3,11,70,,,
200603,control_change,14,0,8,,,,,,,,,7,11,46,,,
200603,control_change,17,0,12,,,,,,,,,11,11,58,,,
200612,control_change,17,0,14,,,,,,,,,13,11,58,,,
200614,control_change,17,0,15,,,,,,,,,14,11,58,,,
200615,control_change,18,0,3,,,,,,,,,2,11,63,,,
200617,control_change,17,0,11,,,,,,,,,10,11,57,,,
200618,control_change,15,0,8,,,,,,,,,7,11,43,,,
200619,control_change,18,0,4,,,,,,,,,3,11,67,,,
200620,control_change,17,0,12,,,,,,,,,11,11,57,,,
200629,control_change,17,0,14,,,,,,,,,13,11,57,,,
200631,control_change,17,0,15,,,,,,,,,14,11,57,,,
200632,control_change,14,0,8,,,,,,,,,7,11,40,,,
200633,control_change,18,0,3,,,,,,,,,2,11,61,,,
200634,control_change,17,0,11,,,,,,,,,10,11,55,,,
200637,control_change,17,0,12,,,,,,,,,11,11,55,,,
200637,control_change,18,0,4,,,,,,,,,3,11,64,,,
200640,set_tempo,120,1,0,,,,,,307692,,,,,,,,
200646,control_change,17,0,14,,,,,,,,,13,11,55,,,
200647,control_change,15,0,8,,,,,,,,,7,11,37,,,
200648,control_change,17,0,15,,,,,,,,,14,11,55,,,
200648,note_on,240,0,13,,,,,,,,,12,,,,57,112
200650,control_change,16,0,11,,,,,,,,,10,11,53,,,
200652,note_on,6,0,14,,,,,,,,,13,,,,54,112
200653,control_change,16,0,12,,,,,,,,,11,11,53,,,
200662,control_change,10,0,14,,,,,,,,,13,11,53,,,
200664,control_change,16,0,15,,,,,,,,,14,11,53,,,
200667,control_change,17,0,11,,,,,,,,,10,11,51,,,
200670,control_change,17,0,12,,,,,,,,,11,11,51,,,
200679,control_change,17,0,14,,,,,,,,,13,11,51,,,
200681,control_change,17,0,15,,,,,,,,,14,11,51,,,
200684,control_change,17,0,11,,,,,,,,,10,11,49,,,
200687,control_change,17,0,12,,,,,,,,,11,11,49,,,
200696,control_change,17,0,14,,,,,,,,,13,11,49,,,
200698,control_change,17,0,15,,,,,,,,,14,11,49,,,
200701,note_on,0,0,1,,,,,,,,,0,,,,84,101
200701,note_on,300,0,1,,,,,,,,,0,,,,90,101
200701,control_change,17,0,11,,,,,,,,,10,11,47,,,
200704,control_change,17,0,12,,,,,,,,,11,11,47,,,
200704,note_on,300,0,2,,,,,,,,,1,,,,84,100
200704,note_on,0,0,2,,,,,,,,,1,,,,81,100
200708,note_on,60,0,13,,,,,,,,,12,,,,57,0
200712,note_on,16,0,14,,,,,,,,,13,,,,54,0
200713,control_change,1,0,14,,,,,,,,,13,11,47,,,
200715,control_change,17,0,15,,,,,,,,,14,11,47,,,
200718,control_change,17,0,11,,,,,,,,,10,11,45,,,
200721,control_change,17,0,12,,,,,,,,,11,11,45,,,
200730,control_change,17,0,14,,,,,,,,,13,11,45,,,
200731,note_on,30,0,1,,,,,,,,,0,,,,84,0
200731,note_on,0,0,1,,,,,,,,,0,,,,90,0
200732,control_change,17,0,15,,,,,,,,,14,11,45,,,
200734,note_on,0,0,2,,,,,,,,,1,,,,84,0
200734,note_on,30,0,2,,,,,,,,,1,,,,81,0
200734,control_change,16,0,11,,,,,,,,,10,11,43,,,
200737,control_change,16,0,12,,,,,,,,,11,11,43,,,
200746,control_change,16,0,14,,,,,,,,,13,11,43,,,
200748,control_change,16,0,15,,,,,,,,,14,11,43,,,
200751,control_change,17,0,11,,,,,,,,,10,11,42,,,
200754,control_change,17,0,12,,,,,,,,,11,11,42,,,
200760,set_tempo,120,1,0,,,,,,330579,,,,,,,,
200760,note_on,9,0,11,,,,,,,,,10,,,,72,0
200761,note_on,0,0,1,,,,,,,,,0,,,,90,101
200761,note_on,30,0,1,,,,,,,,,0,,,,84,101
200763,control_change,17,0,14,,,,,,,,,13,11,42,,,
200763,note_on,9,0,12,,,,,,,,,11,,,,69,0
200763,note_on,0,0,12,,,,,,,,,11,,,,66,0
200764,note_on,0,0,2,,,,,,,,,1,,,,84,100
200764,note_on,30,0,2,,,,,,,,,1,,,,81,100
200765,control_change,17,0,15,,,,,,,,,14,11,42,,,
200768,note_on,60,0,13,,,,,,,,,12,,,,60,112
200772,note_on,9,0,14,,,,,,,,,13,,,,57,112
200774,note_on,9,0,15,,,,,,,,,14,,,,39,0
200821,note_on,0,0,1,,,,,,,,,0,,,,84,0
200821,note_on,60,0,1,,,,,,,,,0,,,,90,0
200824,note_on,60,0,2,,,,,,,,,1,,,,84,0
200824,note_on,0,0,2,,,,,,,,,1,,,,81,0
200828,note_on,60,0,13,,,,,,,,,12,,,,60,0
200832,note_on,60,0,14,,,,,,,,,13,,,,57,0
200880,set_tempo,120,1,0,,,,,,291262,,,,,,,,
200880,note_on,120,0,11,,,,,,,,,10,,,,66,102
200881,note_on,60,0,1,,,,,,,,,0,,,,90,116
200881,note_on,0,0,1,,,,,,,,,0,,,,84,116
200883,note_on,120,0,12,,,,,,,,,11,,,,61,102
200884,note_on,0,0,2,,,,,,,,,1,,,,81,115
200884,note_on,60,0,2,,,,,,,,,1,,,,84,115
200888,note_on,60,0,13,,,,,,,,,12,,,,66,112
200892,note_on,60,0,14,,,,,,,,,13,,,,60,112
200940,note_on,60,0,11,,,,,,,,,10,,,,66,0
200943,note_on,60,0,12,,,,,,,,,11,,,,61,0
201000,set_tempo,120,1,0,,,,,,307692,,,,,,,,
201000,note_on,60,0,11,,,,,,,,,10,,,,69,102
201003,note_on,60,0,12,,,,,,,,,11,,,,66,102
201060,note_on,60,0,11,,,,,,,,,10,,,,69,0
201063,note_on,60,0,12,,,,,,,,,11,,,,66,0
201074,note_on,300,0,15,,,,,,,,,14,,,,39,112
201120,set_tempo,120,1,0,,,,,,330579,,,,,,,,
201120,note_on,60,0,11,,,,,,,,,10,,,,72,102
201121,note_on,0,0,1,,,,,,,,,0,,,,90,0
201121,note_on,240,0,1,,,,,,,,,0,,,,84,0
201123,note_on,60,0,12,,,,,,,,,11,,,,69,102
201124,note_on,240,0,2,,,,,,,,,1,,,,81,0
201124,note_on,0,0,2,,,,,,,,,1,,,,84,0
201128,note_on,240,0,13,,,,,,,,,12,,,,66,0
201132,note_on,240,0,14,,,,,,,,,13,,,,60,0
201134,note_on,0,0,15,,,,,,,,,14,,,,39,112
201134,note_on,60,0,15,,,,,,,,,14,,,,39,0
201180,note_on,60,0,11,,,,,,,,,10,,,,72,0
201183,note_on,60,0,12,,,,,,,,,11,,,,69,0
201240,set_tempo,120,1,0,,,,,,291262,,,,,,,,
201240,note_on,60,0,11,,,,,,,,,10,,,,71,102
201243,note_on,60,0,12,,,,,,,,,11,,,,68,102
201243,note_on,0,0,12,,,,,,,,,11,,,,59,102
201245,note_on,0,0,3,,,,,,,,,2,,,,68,101
201245,note_on,0,0,3,,,,,,,,,2,,,,71,101
201245,note_on,612,0,3,,,,,,,,,2,,,,72,0
201245,note_on,0,0,3,,,,,,,,,2,,,,69,0
201247,note_on,0,0,8,,,,,,,,,7,,,,66,0
201247,note_on,0,0,8,,,,,,,,,7,,,,59,110
201247,note_on,0,0,8,,,,,,,,,7,,,,56,110
201247,note_on,600,0,8,,,,,,,,,7,,,,54,0
201249,note_on,0,0,4,,,,,,,,,3,,,,56,100
201249,note_on,0,0,4,,,,,,,,,3,,,,59,100
201249,note_on,0,0,4,,,,,,,,,3,,,,60,0
201249,note_on,612,0,4,,,,,,,,,3,,,,57,0
201252,note_on,120,0,14,,,,,,,,,13,,,,40,112
201254,note_on,0,0,15,,,,,,,,,14,,,,40,112
201254,note_on,120,0,15,,,,,,,,,14,,,,39,0
201312,note_on,60,0,14,,,,,,,,,13,,,,40,0
201360,set_tempo,120,1,0,,,,,,307692,,,,,,,,
201365,note_on,0,0,3,,,,,,,,,2,,,,71,0
201365,note_on,0,0,3,,,,,,,,,2,,,,78,101
201365,note_on,120,0,3,,,,,,,,,2,,,,68,0
201367,note_on,0,0,8,,,,,,,,,7,,,,59,0
201367,note_on,120,0,8,,,,,,,,,7,,,,56,0
201368,note_on,240,0,13,,,,,,,,,12,,,,56,112
201369,note_on,120,0,4,,,,,,,,,3,,,,56,0
201369,note_on,0,0,4,,,,,,,,,3,,,,66,100
201369,note_on,0,0,4,,,,,,,,,3,,,,59,0
201372,note_on,60,0,14,,,,,,,,,13,,,,52,112
201421,note_on,0,0,1,,,,,,,,,0,,,,83,101
201421,note_on,300,0,1,,,,,,,,,0,,,,88,101
201424,note_on,300,0,2,,,,,,,,,1,,,,76,100
201424,note_on,0,0,2,,,,,,,,,1,,,,80,100
201428,note_on,60,0,13,,,,,,,,,12,,,,56,0
201432,note_on,60,0,14,,,,,,,,,13,,,,52,0
201451,note_on,30,0,1,,,,,,,,,0,,,,83,0
201451,note_on,0,0,1,,,,,,,,,0,,,,88,0
201454,note_on,30,0,2,,,,,,,,,1,,,,80,0
201454,note_on,0,0,2,,,,,,,,,1,,,,76,0
201480,set_tempo,120,1,0,,,,,,330579,,,,,,,,
201480,note_on,240,0,11,,,,,,,,,10,,,,71,0
201481,note_on,0,0,1,,,,,,,,,0,,,,88,101
201481,note_on,30,0,1,,,,,,,,,0,,,,83,101
201483,note_on,0,0,12,,,,,,,,,11,,,,68,0
201483,note_on,240,0,12,,,,,,,,,11,,,,59,0
201484,note_on,0,0,2,,,,,,,,,1,,,,80,100
201484,note_on,30,0,2,,,,,,,,,1,,,,76,100
201485,note_on,0,0,3,,,,,,,,,2,,,,76,101
201485,note_on,120,0,3,,,,,,,,,2,,,,78,0
201488,note_on,60,0,13,,,,,,,,,12,,,,59,112
201489,note_on,120,0,4,,,,,,,,,3,,,,66,0
201489,note_on,0,0,4,,,,,,,,,3,,,,64,100
201492,note_on,60,0,14,,,,,,,,,13,,,,56,112
201494,note_on,240,0,15,,,,,,,,,14,,,,40,0
201541,note_on,0,0,1,,,,,,,,,0,,,,83,0
201541,note_on,60,0,1,,,,,,,,,0,,,,88,0
201544,note_on,60,0,2,,,,,,,,,1,,,,80,0
201544,note_on,0,0,2,,,,,,,,,1,,,,76,0
201548,note_on,60,0,13,,,,,,,,,12,,,,59,0
201552,note_on,60,0,14,,,,,,,,,13,,,,56,0
201600,set_tempo,120,1,0,,,,,,291262,,,,,,,,
201600,note_on,120,0,11,,,,,,,,,10,,,,64,102
201601,note_on,60,0,1,,,,,,,,,0,,,,86,116
201601,note_on,0,0,1,,,,,,,,,0,,,,88,116
201603,note_on,120,0,12,,,,,,,,,11,,,,59,102
201604,note_on,0,0,2,,,,,,,,,1,,,,76,115
201604,note_on,60,0,2,,,,,,,,,1,,,,83,115
201605,note_on,0,0,3,,,,,,,,,2,,,,74,101
201605,note_on,120,0,3,,,,,,,,,2,,,,76,0
201608,note_on,60,0,13,,,,,,,,,12,,,,64,112
201609,note_on,120,0,4,,,,,,,,,3,,,,64,0
201609,note_on,0,0,4,,,,,,,,,3,,,,62,100
201612,note_on,60,0,14,,,,,,,,,13,,,,59,112
201660,note_on,60,0,11,,,,,,,,,10,,,,64,0
201663,note_on,60,0,12,,,,,,,,,11,,,,59,0
201720,set_tempo,120,1,0,,,,,,307692,,,,,,,,
201720,note_on,60,0,11,,,,,,,,,10,,,,68,102
201723,note_on,60,0,12,,,,,,,,,11,,,,64,102
201725,note_on,0,0,3,,,,,,,,,2,,,,73,101
201725,note_on,120,0,3,,,,,,,,,2,,,,74,0
201729,note_on,120,0,4,,,,,,,,,3,,,,62,0
201729,note_on,0,0,4,,,,,,,,,3,,,,61,100
201780,note_on,60,0,11,,,,,,,,,10,,,,68,0
201783,note_on,60,0,12,,,,,,,,,11,,,,64,0
201794,note_on,300,0,15,,,,,,,,,14,,,,40,112
201840,note_on,60,0,11,,,,,,,,,10,,,,71,102
201840,set_tempo,120,1,0,,,,,,330579,,,,,,,,
201841,note_on,0,0,1,,,,,,,,,0,,,,86,0
201841,note_on,240,0,1,,,,,,,,,0,,,,88,0
201843,note_on,60,0,12,,,,,,,,,11,,,,68,102
201844,note_on,0,0,2,,,,,,,,,1,,,,83,0
201844,note_on,240,0,2,,,,,,,,,1,,,,76,0
201845,note_on,0,0,3,,,,,,,,,2,,,,71,101
201845,note_on,120,0,3,,,,,,,,,2,,,,73,0
201847,note_on,480,0,8,,,,,,,,,7,,,,64,110
201847,note_on,0,0,8,,,,,,,,,7,,,,52,110
201848,note_on,240,0,13,,,,,,,,,12,,,,64,0
201849,note_on,0,0,4,,,,,,,,,3,,,,59,100
201849,note_on,0,0,4,,,,,,,,,3,,,,56,100
201849,note_on,120,0,4,,,,,,,,,3,,,,61,0
201852,note_on,240,0,14,,,,,,,,,13,,,,59,0
201854,note_on,60,0,15,,,,,,,,,14,,,,40,0
201854,note_on,0,0,15,,,,,,,,,14,,,,40,112
201900,note_on,60,0,11,,,,,,,,,10,,,,71,0
201903,note_on,60,0,12,,,,,,,,,11,,,,68,0
201960,control_change,0,0,11,,,,,,,,,10,11,41,,,
201960,note_on,60,0,11,,,,,,,,,10,,,,72,102
201960,set_tempo,120,1,0,,,,,,291262,,,,,,,,
201963,note_on,60,0,12,,,,,,,,,11,,,,66,102
201963,control_change,0,0,12,,,,,,,,,11,11,41,,,
201963,note_on,0,0,12,,,,,,,,,11,,,,69,102
201965,control_change,0,0,3,,,,,,,,,2,11,70,,,
201965,note_on,0,0,3,,,,,,,,,2,,,,72,101
201965,note_on,120,0,3,,,,,,,,,2,,,,71,0
201965,note_on,0,0,3,,,,,,,,,2,,,,69,101
201967,note_on,120,0,8,,,,,,,,,7,,,,52,0
201967,note_on,0,0,8,,,,,,,,,7,,,,64,0
201967,note_on,0,0,8,,,,,,,,,7,,,,66,110
201967,control_change,0,0,8,,,,,,,,,7,11,57,,,
201967,control_change,7,0,11,,,,,,,,,10,11,46,,,
201967,note_on,0,0,8,,,,,,,,,7,,,,54,110
201969,note_on,120,0,4,,,,,,,,,3,,,,59,0
201969,note_on,0,0,4,,,,,,,,,3,,,,57,100
201969,note_on,0,0,4,,,,,,,,,3,,,,56,0
201969,note_on,0,0,4,,,,,,,,,3,,,,60,100
201969,control_change,0,0,4,,,,,,,,,3,11,77,,,
201970,control_change,3,0,11,,,,,,,,,10,11,49,,,
201970,control_change,7,0,12,,,,,,,,,11,11,46,,,
201972,note_on,0,0,14,,,,,,,,,13,,,,51,112
201972,control_change,120,0,14,,,,,,,,,13,11,41,,,
201973,control_change,3,0,12,,,,,,,,,11,11,49,,,
201974,control_change,0,0,15,,,,,,,,,14,11,41,,,
201974,note_on,120,0,15,,,,,,,,,14,,,,40,0
201974,control_change,4,0,11,,,,,,,,,10,11,52,,,
201974,note_on,0,0,15,,,,,,,,,14,,,,39,112
201977,control_change,4,0,12,,,,,,,,,11,11,52,,,
201978,control_change,4,0,11,,,,,,,,,10,11,55,,,
201979,control_change,7,0,14,,,,,,,,,13,11,46,,,
201981,control_change,4,0,12,,,,,,,,,11,11,55,,,
201981,control_change,7,0,15,,,,,,,,,14,11,46,,,
201981,control_change,16,0,3,,,,,,,,,2,11,69,,,
201982,control_change,3,0,14,,,,,,,,,13,11,49,,,
201984,control_change,3,0,15,,,,,,,,,14,11,49,,,
201985,control_change,18,0,8,,,,,,,,,7,11,54,,,
201985,control_change,7,0,11,,,,,,,,,10,11,60,,,
201985,control_change,16,0,4,,,,,,,,,3,11,75,,,
201986,control_change,4,0,14,,,,,,,,,13,11,52,,,
201988,control_change,7,0,12,,,,,,,,,11,11,60,,,
201988,control_change,3,0,11,,,,,,,,,10,11,63,,,
201988,control_change,4,0,15,,,,,,,,,14,11,52,,,
201990,control_change,4,0,14,,,,,,,,,13,11,55,,,
201991,control_change,3,0,12,,,,,,,,,11,11,63,,,
201992,control_change,4,0,15,,,,,,,,,14,11,55,,,
201997,control_change,7,0,14,,,,,,,,,13,11,60,,,
201997,control_change,16,0,3,,,,,,,,,2,11,67,,,
201999,control_change,7,0,15,,,,,,,,,14,11,60,,,
202000,control_change,3,0,14,,,,,,,,,13,11,63,,,
202001,control_change,16,0,4,,,,,,,,,3,11,73,,,
202002,control_change,3,0,15,,,,,,,,,14,11,63,,,
202003,control_change,18,0,8,,,,,,,,,7,11,51,,,
202006,control_change,18,0,11,,,,,,,,,10,11,62,,,
202009,control_change,18,0,12,,,,,,,,,11,11,62,,,
202013,control_change,16,0,3,,,,,,,,,2,11,66,,,
202017,control_change,16,0,4,,,,,,,,,3,11,71,,,
202018,control_change,18,0,14,,,,,,,,,13,11,62,,,
202020,control_change,18,0,15,,,,,,,,,14,11,62,,,
202021,control_change,18,0,8,,,,,,,,,7,11,48,,,
202023,control_change,17,0,11,,,,,,,,,10,11,60,,,
202026,control_change,17,0,12,,,,,,,,,11,11,60,,,
202029,control_change,16,0,3,,,,,,,,,2,11,64,,,
202032,note_on,14,0,14,,,,,,,,,13,,,,51,0
202033,control_change,16,0,4,,,,,,,,,3,11,69,,,
202035,control_change,3,0,14,,,,,,,,,13,11,60,,,
202037,control_change,17,0,15,,,,,,,,,14,11,60,,,
202039,control_change,18,0,8,,,,,,,,,7,11,45,,,
202040,control_change,17,0,11,,,,,,,,,10,11,58,,,
202043,control_change,17,0,12,,,,,,,,,11,11,58,,,
202045,control_change,16,0,3,,,,,,,,,2,11,63,,,
202049,control_change,16,0,4,,,,,,,,,3,11,67,,,
202052,control_change,17,0,14,,,,,,,,,13,11,58,,,
202054,control_change,17,0,15,,,,,,,,,14,11,58,,,
202057,control_change,18,0,8,,,,,,,,,7,11,42,,,
202057,control_change,17,0,11,,,,,,,,,10,11,57,,,
202060,control_change,17,0,12,,,,,,,,,11,11,57,,,
202061,control_change,16,0,3,,,,,,,,,2,11,61,,,
202065,control_change,16,0,4,,,,,,,,,3,11,65,,,
202069,control_change,17,0,14,,,,,,,,,13,11,57,,,
202071,control_change,17,0,15,,,,,,,,,14,11,57,,,
202074,control_change,17,0,11,,,,,,,,,10,11,55,,,
202075,control_change,18,0,8,,,,,,,,,7,11,39,,,
202077,control_change,17,0,12,,,,,,,,,11,11,55,,,
202077,control_change,16,0,3,,,,,,,,,2,11,60,,,
202080,set_tempo,120,1,0,,,,,,307692,,,,,,,,
202081,control_change,16,0,4,,,,,,,,,3,11,63,,,
202086,control_change,17,0,14,,,,,,,,,13,11,55,,,
202088,control_change,17,0,15,,,,,,,,,14,11,55,,,
202088,note_on,240,0,13,,,,,,,,,12,,,,57,112
202090,control_change,16,0,11,,,,,,,,,10,11,53,,,
202092,note_on,6,0,14,,,,,,,,,13,,,,54,112
202093,control_change,16,0,12,,,,,,,,,11,11,53,,,
202102,control_change,10,0,14,,,,,,,,,13,11,53,,,
202104,control_change,16,0,15,,,,,,,,,14,11,53,,,
202107,control_change,17,0,11,,,,,,,,,10,11,51,,,
202110,control_change,17,0,12,,,,,,,,,11,11,51,,,
202119,control_change,17,0,14,,,,,,,,,13,11,51,,,
202121,control_change,17,0,15,,,,,,,,,14,11,51,,,
202124,control_change,17,0,11,,,,,,,,,10,11,49,,,
202127,control_change,17,0,12,,,,,,,,,11,11,49,,,
202136,control_change,17,0,14,,,,,,,,,13,11,49,,,
202138,control_change,17,0,15,,,,,,,,,14,11,49,,,
202141,note_on,0,0,1,,,,,,,,,0,,,,90,101
202141,note_on,300,0,1,,,,,,,,,0,,,,84,101
202141,control_change,17,0,11,,,,,,,,,10,11,47,,,
202144,control_change,17,0,12,,,,,,,,,11,11,47,,,
202144,note_on,300,0,2,,,,,,,,,1,,,,84,100
202144,note_on,0,0,2,,,,,,,,,1,,,,81,100
202148,note_on,60,0,13,,,,,,,,,12,,,,57,0
202152,note_on,16,0,14,,,,,,,,,13,,,,54,0
202153,control_change,1,0,14,,,,,,,,,13,11,47,,,
202155,control_change,17,0,15,,,,,,,,,14,11,47,,,
202158,control_change,17,0,11,,,,,,,,,10,11,45,,,
202161,control_change,17,0,12,,,,,,,,,11,11,45,,,
202170,control_change,17,0,14,,,,,,,,,13,11,45,,,
202171,note_on,30,0,1,,,,,,,,,0,,,,90,0
202171,note_on,0,0,1,,,,,,,,,0,,,,84,0
202172,control_change,17,0,15,,,,,,,,,14,11,45,,,
202174,control_change,16,0,11,,,,,,,,,10,11,43,,,
202174,note_on,0,0,2,,,,,,,,,1,,,,84,0
202174,note_on,30,0,2,,,,,,,,,1,,,,81,0
202177,control_change,16,0,12,,,,,,,,,11,11,43,,,
202186,control_change,16,0,14,,,,,,,,,13,11,43,,,
202188,control_change,16,0,15,,,,,,,,,14,11,43,,,
202191,control_change,17,0,11,,,,,,,,,10,11,42,,,
202194,control_change,17,0,12,,,,,,,,,11,11,42,,,
202200,set_tempo,120,1,0,,,,,,330579,,,,,,,,
202200,note_on,9,0,11,,,,,,,,,10,,,,72,0
202201,note_on,0,0,1,,,,,,,,,0,,,,90,101
202201,note_on,30,0,1,,,,,,,,,0,,,,84,101
202203,control_change,17,0,14,,,,,,,,,13,11,42,,,
202203,note_on,0,0,12,,,,,,,,,11,,,,66,0
202203,note_on,9,0,12,,,,,,,,,11,,,,69,0
202204,note_on,30,0,2,,,,,,,,,1,,,,81,100
202204,note_on,0,0,2,,,,,,,,,1,,,,84,100
202205,control_change,17,0,15,,,,,,,,,14,11,42,,,
202208,note_on,60,0,13,,,,,,,,,12,,,,60,112
202212,note_on,9,0,14,,,,,,,,,13,,,,57,112
202214,note_on,9,0,15,,,,,,,,,14,,,,39,0
202261,note_on,0,0,1,,,,,,,,,0,,,,84,0
202261,note_on,60,0,1,,,,,,,,,0,,,,90,0
202264,note_on,60,0,2,,,,,,,,,1,,,,84,0
202264,note_on,0,0,2,,,,,,,,,1,,,,81,0
202268,note_on,60,0,13,,,,,,,,,12,,,,60,0
202272,note_on,60,0,14,,,,,,,,,13,,,,57,0
202320,note_on,120,0,11,,,,,,,,,10,,,,66,102
202320,set_tempo,120,1,0,,,,,,291262,,,,,,,,
202321,note_on,0,0,1,,,,,,,,,0,,,,84,116
202321,note_on,60,0,1,,,,,,,,,0,,,,90,116
202323,note_on,120,0,12,,,,,,,,,11,,,,60,102
202324,note_on,60,0,2,,,,,,,,,1,,,,84,115
202324,note_on,0,0,2,,,,,,,,,1,,,,81,115
202328,note_on,60,0,13,,,,,,,,,12,,,,66,112
202332,note_on,60,0,14,,,,,,,,,13,,,,60,112
202380,note_on,60,0,11,,,,,,,,,10,,,,66,0
202383,note_on,60,0,12,,,,,,,,,11,,,,60,0
202440,note_on,60,0,11,,,,,,,,,10,,,,69,102
202440,set_tempo,120,1,0,,,,,,307692,,,,,,,,
202443,note_on,60,0,12,,,,,,,,,11,,,,66,102
202500,note_on,60,0,11,,,,,,,,,10,,,,69,0
202503,note_on,60,0,12,,,,,,,,,11,,,,66,0
202514,note_on,300,0,15,,,,,,,,,14,,,,39,112
202560,note_on,60,0,11,,,,,,,,,10,,,,72,102
202560,set_tempo,120,1,0,,,,,,330579,,,,,,,,
202561,note_on,240,0,1,,,,,,,,,0,,,,84,0
202561,note_on,0,0,1,,,,,,,,,0,,,,90,0
202563,note_on,60,0,12,,,,,,,,,11,,,,69,102
202564,note_on,240,0,2,,,,,,,,,1,,,,81,0
202564,note_on,0,0,2,,,,,,,,,1,,,,84,0
202568,note_on,240,0,13,,,,,,,,,12,,,,66,0
202572,note_on,240,0,14,,,,,,,,,13,,,,60,0
202574,note_on,60,0,15,,,,,,,,,14,,,,39,0
202574,note_on,0,0,15,,,,,,,,,14,,,,39,112
202620,note_on,60,0,11,,,,,,,,,10,,,,72,0
202623,note_on,60,0,12,,,,,,,,,11,,,,69,0
202680,control_change,60,0,11,,,,,,,,,10,11,41,,,
202680,note_on,0,0,11,,,,,,,,,10,,,,73,102
202680,set_tempo,120,1,0,,,,,,291262,,,,,,,,
202683,control_change,60,0,12,,,,,,,,,11,11,41,,,
202683,note_on,0,0,12,,,,,,,,,11,,,,68,102
202685,note_on,0,0,3,,,,,,,,,2,,,,68,101
202685,note_on,0,0,3,,,,,,,,,2,,,,72,0
202685,note_on,0,0,3,,,,,,,,,2,,,,73,101
202685,control_change,0,0,3,,,,,,,,,2,11,59,,,
202685,note_on,608,0,3,,,,,,,,,2,,,,69,0
202687,note_on,612,0,8,,,,,,,,,7,,,,66,0
202687,note_on,0,0,8,,,,,,,,,7,,,,54,0
202687,control_change,0,0,8,,,,,,,,,7,11,37,,,
202687,note_on,0,0,8,,,,,,,,,7,,,,52,110
202687,note_on,0,0,8,,,,,,,,,7,,,,64,110
202688,control_change,120,0,13,,,,,,,,,12,11,41,,,
202689,note_on,0,0,4,,,,,,,,,3,,,,56,100
202689,note_on,0,0,4,,,,,,,,,3,,,,61,100
202689,note_on,0,0,4,,,,,,,,,3,,,,60,0
202689,control_change,0,0,4,,,,,,,,,3,11,62,,,
202689,note_on,608,0,4,,,,,,,,,3,,,,57,0
202692,note_on,120,0,14,,,,,,,,,13,,,,49,112
202692,control_change,0,0,14,,,,,,,,,13,11,41,,,
202693,note_on,4800,0,9,,,,,,,,,8,,,,49,110
202693,control_change,0,0,9,,,,,,,,,8,11,37,,,
202694,note_on,120,0,15,,,,,,,,,14,,,,39,0
202694,note_on,0,0,15,,,,,,,,,14,,,,37,112
202694,control_change,0,0,15,,,,,,,,,14,11,41,,,
202696,control_change,16,0,11,,,,,,,,,10,11,42,,,
202699,control_change,16,0,12,,,,,,,,,11,11,42,,,
202703,control_change,16,0,8,,,,,,,,,7,11,38,,,
202704,control_change,16,0,13,,,,,,,,,12,11,42,,,
202708,control_change,16,0,14,,,,,,,,,13,11,42,,,
202709,control_change,16,0,9,,,,,,,,,8,11,38,,,
202710,control_change,16,0,15,,,,,,,,,14,11,42,,,
202712,control_change,16,0,11,,,,,,,,,10,11,42,,,
202713,control_change,28,0,3,,,,,,,,,2,11,60,,,
202715,control_change,16,0,12,,,,,,,,,11,11,42,,,
202717,control_change,28,0,4,,,,,,,,,3,11,63,,,
202719,control_change,16,0,8,,,,,,,,,7,11,39,,,
202720,control_change,16,0,13,,,,,,,,,12,11,42,,,
202724,control_change,16,0,14,,,,,,,,,13,11,42,,,
202725,control_change,16,0,9,,,,,,,,,8,11,39,,,
202726,control_change,16,0,15,,,,,,,,,14,11,42,,,
202728,control_change,16,0,11,,,,,,,,,10,11,43,,,
202731,control_change,16,0,12,,,,,,,,,11,11,43,,,
202735,control_change,16,0,8,,,,,,,,,7,11,40,,,
202736,control_change,16,0,13,,,,,,,,,12,11,43,,,
202740,control_change,16,0,14,,,,,,,,,13,11,43,,,
202741,control_change,16,0,9,,,,,,,,,8,11,40,,,
202742,control_change,29,0,3,,,,,,,,,2,11,61,,,
202742,control_change,16,0,15,,,,,,,,,14,11,43,,,
202744,control_change,16,0,11,,,,,,,,,10,11,44,,,
202746,control_change,29,0,4,,,,,,,,,3,11,64,,,
202747,control_change,16,0,12,,,,,,,,,11,11,44,,,
202751,control_change,16,0,8,,,,,,,,,7,11,41,,,
202752,control_change,16,0,13,,,,,,,,,12,11,44,,,
202752,note_on,12,0,14,,,,,,,,,13,,,,49,0
202756,control_change,4,0,14,,,,,,,,,13,11,44,,,
202757,control_change,16,0,9,,,,,,,,,8,11,41,,,
202758,control_change,16,0,15,,,,,,,,,14,11,44,,,
202760,control_change,16,0,11,,,,,,,,,10,11,45,,,
202763,control_change,16,0,12,,,,,,,,,11,11,45,,,
202767,control_change,16,0,8,,,,,,,,,7,11,42,,,
202768,control_change,16,0,13,,,,,,,,,12,11,45,,,
202771,control_change,29,0,3,,,,,,,,,2,11,61,,,
202772,control_change,16,0,14,,,,,,,,,13,11,45,,,
202773,control_change,16,0,9,,,,,,,,,8,11,42,,,
202774,control_change,16,0,15,,,,,,,,,14,11,45,,,
202775,control_change,29,0,4,,,,,,,,,3,11,65,,,
202776,control_change,16,0,11,,,,,,,,,10,11,46,,,
202779,control_change,16,0,12,,,,,,,,,11,11,46,,,
202783,control_change,16,0,8,,,,,,,,,7,11,43,,,
202784,control_change,16,0,13,,,,,,,,,12,11,46,,,
202788,control_change,16,0,14,,,,,,,,,13,11,46,,,
202789,control_change,16,0,9,,,,,,,,,8,11,43,,,
202790,control_change,16,0,15,,,,,,,,,14,11,46,,,
202792,control_change,16,0,11,,,,,,,,,10,11,47,,,
202795,control_change,16,0,12,,,,,,,,,11,11,47,,,
202799,control_change,16,0,8,,,,,,,,,7,11,44,,,
202800,control_change,16,0,13,,,,,,,,,12,11,47,,,
202800,set_tempo,120,1,0,,,,,,307692,,,,,,,,
202800,control_change,29,0,3,,,,,,,,,2,11,62,,,
202804,control_change,16,0,14,,,,,,,,,13,11,47,,,
202804,control_change,29,0,4,,,,,,,,,3,11,66,,,
202805,control_change,16,0,9,,,,,,,,,8,11,44,,,
202805,note_on,0,0,3,,,,,,,,,2,,,,75,101
202805,note_on,5,0,3,,,,,,,,,2,,,,73,0
202806,control_change,16,0,15,,,,,,,,,14,11,47,,,
202808,control_change,16,0,11,,,,,,,,,10,11,48,,,
202808,note_on,8,0,13,,,,,,,,,12,,,,56,112
202809,note_on,0,0,4,,,,,,,,,3,,,,63,100
202809,note_on,5,0,4,,,,,,,,,3,,,,61,0
202811,control_change,16,0,12,,,,,,,,,11,11,48,,,
202812,note_on,8,0,14,,,,,,,,,13,,,,52,112
202815,control_change,16,0,8,,,,,,,,,7,11,45,,,
202816,control_change,8,0,13,,,,,,,,,12,11,48,,,
202820,control_change,8,0,14,,,,,,,,,13,11,48,,,
202821,control_change,16,0,9,,,,,,,,,8,11,45,,,
202822,control_change,16,0,15,,,,,,,,,14,11,48,,,
202824,control_change,16,0,11,,,,,,,,,10,11,49,,,
202827,control_change,16,0,12,,,,,,,,,11,11,49,,,
202829,control_change,24,0,3,,,,,,,,,2,11,63,,,
202831,control_change,16,0,8,,,,,,,,,7,11,46,,,
202832,control_change,16,0,13,,,,,,,,,12,11,49,,,
202833,control_change,24,0,4,,,,,,,,,3,11,67,,,
202836,control_change,16,0,14,,,,,,,,,13,11,49,,,
202837,control_change,16,0,9,,,,,,,,,8,11,46,,,
202838,control_change,16,0,15,,,,,,,,,14,11,49,,,
202840,control_change,16,0,11,,,,,,,,,10,11,50,,,
202843,control_change,16,0,12,,,,,,,,,11,11,50,,,
202847,control_change,16,0,8,,,,,,,,,7,11,47,,,
202848,control_change,16,0,13,,,,,,,,,12,11,50,,,
202852,control_change,16,0,14,,,,,,,,,13,11,50,,,
202853,control_change,16,0,9,,,,,,,,,8,11,47,,,
202854,control_change,16,0,15,,,,,,,,,14,11,50,,,
202856,control_change,16,0,11,,,,,,,,,10,11,51,,,
202857,control_change,28,0,3,,,,,,,,,2,11,64,,,
202859,control_change,16,0,12,,,,,,,,,11,11,51,,,
202861,control_change,300,0,1,,,,,,,,,0,11,42,,,
202861,note_on,0,0,1,,,,,,,,,0,,,,88,101
202861,note_on,0,0,1,,,,,,,,,0,,,,85,101
202861,control_change,28,0,4,,,,,,,,,3,11,68,,,
202863,control_change,16,0,8,,,,,,,,,7,11,48,,,
202864,control_change,16,0,13,,,,,,,,,12,11,51,,,
202864,note_on,300,0,2,,,,,,,,,1,,,,76,100
202864,control_change,0,0,2,,,,,,,,,1,11,42,,,
202864,note_on,0,0,2,,,,,,,,,1,,,,80,100
202868,note_on,4,0,13,,,,,,,,,12,,,,56,0
202868,control_change,16,0,14,,,,,,,,,13,11,51,,,
202869,control_change,16,0,9,,,,,,,,,8,11,48,,,
202870,control_change,16,0,15,,,,,,,,,14,11,51,,,
202872,note_on,4,0,14,,,,,,,,,13,,,,52,0
202872,control_change,16,0,11,,,,,,,,,10,11,52,,,
202875,control_change,16,0,12,,,,,,,,,11,11,52,,,
202876,control_change,15,0,1,,,,,,,,,0,11,43,,,
202879,control_change,15,0,2,,,,,,,,,1,11,43,,,
202879,control_change,16,0,8,,,,,,,,,7,11,49,,,
202880,control_change,12,0,13,,,,,,,,,12,11,52,,,
202884,control_change,12,0,14,,,,,,,,,13,11,52,,,
202885,control_change,16,0,9,,,,,,,,,8,11,49,,,
202886,control_change,16,0,15,,,,,,,,,14,11,52,,,
202886,control_change,29,0,3,,,,,,,,,2,11,64,,,
202888,control_change,16,0,11,,,,,,,,,10,11,53,,,
202890,control_change,29,0,4,,,,,,,,,3,11,69,,,
202891,note_on,15,0,1,,,,,,,,,0,,,,85,0
202891,control_change,0,0,1,,,,,,,,,0,11,44,,,
202891,note_on,0,0,1,,,,,,,,,0,,,,88,0
202891,control_change,16,0,12,,,,,,,,,11,11,53,,,
202894,note_on,15,0,2,,,,,,,,,1,,,,80,0
202894,note_on,0,0,2,,,,,,,,,1,,,,76,0
202894,control_change,0,0,2,,,,,,,,,1,11,44,,,
202895,control_change,16,0,8,,,,,,,,,7,11,50,,,
202896,control_change,16,0,13,,,,,,,,,12,11,53,,,
202900,control_change,16,0,14,,,,,,,,,13,11,53,,,
202901,control_change,16,0,9,,,,,,,,,8,11,50,,,
202902,control_change,16,0,15,,,,,,,,,14,11,53,,,
202904,control_change,16,0,11,,,,,,,,,10,11,54,,,
202907,control_change,16,0,1,,,,,,,,,0,11,45,,,
202907,control_change,16,0,12,,,,,,,,,11,11,54,,,
202910,control_change,16,0,2,,,,,,,,,1,11,45,,,
202911,control_change,16,0,8,,,,,,,,,7,11,51,,,
202912,control_change,16,0,13,,,,,,,,,12,11,54,,,
202915,control_change,29,0,3,,,,,,,,,2,11,65,,,
202916,control_change,16,0,14,,,,,,,,,13,11,54,,,
202917,control_change,16,0,9,,,,,,,,,8,11,51,,,
202918,control_change,16,0,15,,,,,,,,,14,11,54,,,
202919,control_change,29,0,4,,,,,,,,,3,11,70,,,
202920,control_change,0,0,11,,,,,,,,,10,11,55,,,
202920,set_tempo,120,1,0,,,,,,330579,,,,,,,,
202920,note_on,16,0,11,,,,,,,,,10,,,,73,0
202921,note_on,0,0,1,,,,,,,,,0,,,,88,101
202921,note_on,14,0,1,,,,,,,,,0,,,,85,101
202922,control_change,1,0,1,,,,,,,,,0,11,46,,,
202923,note_on,16,0,12,,,,,,,,,11,,,,68,0
202923,control_change,0,0,12,,,,,,,,,11,11,55,,,
202924,note_on,0,0,2,,,,,,,,,1,,,,76,100
202924,note_on,14,0,2,,,,,,,,,1,,,,80,100
202925,control_change,1,0,2,,,,,,,,,1,11,46,,,
202925,note_on,0,0,3,,,,,,,,,2,,,,76,101
202925,note_on,10,0,3,,,,,,,,,2,,,,75,0
202927,control_change,16,0,8,,,,,,,,,7,11,52,,,
202928,note_on,16,0,13,,,,,,,,,12,,,,61,112
202928,control_change,0,0,13,,,,,,,,,12,11,55,,,
202929,note_on,10,0,4,,,,,,,,,3,,,,63,0
202929,note_on,0,0,4,,,,,,,,,3,,,,64,100
202932,note_on,0,0,14,,,,,,,,,13,,,,56,112
202932,control_change,16,0,14,,,,,,,,,13,11,55,,,
202933,control_change,16,0,9,,,,,,,,,8,11,52,,,
202934,control_change,16,0,15,,,,,,,,,14,11,55,,,
202936,control_change,16,0,11,,,,,,,,,10,11,56,,,
202938,control_change,16,0,1,,,,,,,,,0,11,47,,,
202939,control_change,16,0,12,,,,,,,,,11,11,56,,,
202941,control_change,16,0,2,,,,,,,,,1,11,47,,,
202943,control_change,16,0,8,,,,,,,,,7,11,53,,,
202944,control_change,16,0,13,,,,,,,,,12,11,56,,,
202944,control_change,19,0,3,,,,,,,,,2,11,66,,,
202948,control_change,16,0,14,,,,,,,,,13,11,56,,,
202948,control_change,19,0,4,,,,,,,,,3,11,71,,,
202949,control_change,16,0,9,,,,,,,,,8,11,53,,,
202950,control_change,16,0,15,,,,,,,,,14,11,56,,,
202952,control_change,16,0,11,,,,,,,,,10,11,57,,,
202953,control_change,15,0,1,,,,,,,,,0,11,48,,,
202955,control_change,16,0,12,,,,,,,,,11,11,57,,,
202956,control_change,15,0,2,,,,,,,,,1,11,48,,,
202959,control_change,16,0,8,,,,,,,,,7,11,54,,,
202960,control_change,16,0,13,,,,,,,,,12,11,57,,,
202964,control_change,16,0,14,,,,,,,,,13,11,57,,,
202965,control_change,16,0,9,,,,,,,,,8,11,54,,,
202966,control_change,16,0,15,,,,,,,,,14,11,57,,,
202968,control_change,16,0,11,,,,,,,,,10,11,57,,,
202969,control_change,16,0,1,,,,,,,,,0,11,49,,,
202971,control_change,16,0,12,,,,,,,,,11,11,57,,,
202972,control_change,16,0,2,,,,,,,,,1,11,49,,,
202973,control_change,29,0,3,,,,,,,,,2,11,67,,,
202975,control_change,16,0,8,,,,,,,,,7,11,55,,,
202976,control_change,16,0,13,,,,,,,,,12,11,57,,,
202977,control_change,29,0,4,,,,,,,,,3,11,72,,,
202980,control_change,16,0,14,,,,,,,,,13,11,57,,,
202981,control_change,16,0,9,,,,,,,,,8,11,55,,,
202981,note_on,0,0,1,,,,,,,,,0,,,,85,0
202981,note_on,12,0,1,,,,,,,,,0,,,,88,0
202982,control_change,16,0,15,,,,,,,,,14,11,57,,,
202984,note_on,0,0,2,,,,,,,,,1,,,,80,0
202984,control_change,16,0,11,,,,,,,,,10,11,58,,,
202984,note_on,12,0,2,,,,,,,,,1,,,,76,0
202984,control_change,3,0,1,,,,,,,,,0,11,50,,,
202987,control_change,16,0,12,,,,,,,,,11,11,58,,,
202987,control_change,3,0,2,,,,,,,,,1,11,50,,,
202988,note_on,12,0,13,,,,,,,,,12,,,,61,0
202991,control_change,16,0,8,,,,,,,,,7,11,56,,,
202992,control_change,4,0,13,,,,,,,,,12,11,58,,,
202992,note_on,12,0,14,,,,,,,,,13,,,,56,0
202996,control_change,4,0,14,,,,,,,,,13,11,58,,,
202997,control_change,16,0,9,,,,,,,,,8,11,56,,,
202998,control_change,16,0,15,,,,,,,,,14,11,58,,,
202999,control_change,15,0,1,,,,,,,,,0,11,51,,,
203000,control_change,16,0,11,,,,,,,,,10,11,59,,,
203001,control_change,28,0,3,,,,,,,,,2,11,67,,,
203002,control_change,15,0,2,,,,,,,,,1,11,51,,,
203003,control_change,16,0,12,,,,,,,,,11,11,59,,,
203005,control_change,28,0,4,,,,,,,,,3,11,73,,,
203007,control_change,16,0,8,,,,,,,,,7,11,57,,,
203008,control_change,16,0,13,,,,,,,,,12,11,59,,,
203012,control_change,16,0,14,,,,,,,,,13,11,59,,,
203013,control_change,16,0,9,,,,,,,,,8,11,57,,,
203014,control_change,16,0,15,,,,,,,,,14,11,59,,,
203015,control_change,16,0,1,,,,,,,,,0,11,52,,,
203016,control_change,16,0,11,,,,,,,,,10,11,60,,,
203018,control_change,16,0,2,,,,,,,,,1,11,52,,,
203019,control_change,16,0,12,,,,,,,,,11,11,60,,,
203023,control_change,16,0,8,,,,,,,,,7,11,58,,,
203024,control_change,16,0,13,,,,,,,,,12,11,60,,,
203028,control_change,16,0,14,,,,,,,,,13,11,60,,,
203029,control_change,16,0,9,,,,,,,,,8,11,58,,,
203030,control_change,29,0,3,,,,,,,,,2,11,68,,,
203030,control_change,16,0,15,,,,,,,,,14,11,60,,,
203030,control_change,15,0,1,,,,,,,,,0,11,52,,,
203032,control_change,16,0,11,,,,,,,,,10,11,61,,,
203033,control_change,15,0,2,,,,,,,,,1,11,52,,,
203034,control_change,29,0,4,,,,,,,,,3,11,74,,,
203035,control_change,16,0,12,,,,,,,,,11,11,61,,,
203039,control_change,16,0,8,,,,,,,,,7,11,59,,,
203040,note_on,8,0,11,,,,,,,,,10,,,,64,102
203040,control_change,16,0,13,,,,,,,,,12,11,61,,,
203040,set_tempo,120,1,0,,,,,,291262,,,,,,,,
203041,note_on,11,0,1,,,,,,,,,0,,,,85,101
203041,note_on,0,0,1,,,,,,,,,0,,,,88,101
203043,note_on,8,0,12,,,,,,,,,11,,,,61,102
203044,control_change,16,0,14,,,,,,,,,13,11,61,,,
203044,note_on,11,0,2,,,,,,,,,1,,,,76,100
203044,note_on,0,0,2,,,,,,,,,1,,,,85,100
203045,note_on,15,0,3,,,,,,,,,2,,,,76,0
203045,note_on,0,0,3,,,,,,,,,2,,,,68,0
203045,note_on,0,0,3,,,,,,,,,2,,,,76,101
203045,control_change,16,0,9,,,,,,,,,8,11,59,,,
203046,control_change,5,0,1,,,,,,,,,0,11,53,,,
203046,control_change,16,0,15,,,,,,,,,14,11,61,,,
203047,note_on,8,0,8,,,,,,,,,7,,,,52,0
203047,note_on,0,0,8,,,,,,,,,7,,,,61,110
203047,note_on,0,0,8,,,,,,,,,7,,,,64,110
203047,note_on,0,0,8,,,,,,,,,7,,,,64,0
203048,note_on,8,0,13,,,,,,,,,12,,,,64,112
203048,control_change,8,0,11,,,,,,,,,10,11,62,,,
203049,note_on,15,0,4,,,,,,,,,3,,,,64,0
203049,note_on,0,0,4,,,,,,,,,3,,,,61,100
203049,note_on,0,0,4,,,,,,,,,3,,,,64,100
203049,control_change,5,0,2,,,,,,,,,1,11,53,,,
203049,note_on,0,0,4,,,,,,,,,3,,,,56,0
203051,control_change,8,0,12,,,,,,,,,11,11,62,,,
203052,note_on,8,0,14,,,,,,,,,13,,,,61,112
203053,note_on,0,0,9,,,,,,,,,8,,,,45,110
203053,note_on,8,0,9,,,,,,,,,8,,,,49,0
203054,note_on,8,0,15,,,,,,,,,14,,,,37,0
203054,note_on,0,0,15,,,,,,,,,14,,,,33,112
203055,control_change,8,0,8,,,,,,,,,7,11,60,,,
203056,control_change,8,0,13,,,,,,,,,12,11,62,,,
203059,control_change,14,0,3,,,,,,,,,2,11,69,,,
203060,control_change,8,0,14,,,,,,,,,13,11,62,,,
203061,control_change,15,0,1,,,,,,,,,0,11,54,,,
203061,control_change,8,0,9,,,,,,,,,8,11,60,,,
203062,control_change,8,0,15,,,,,,,,,14,11,62,,,
203063,control_change,14,0,4,,,,,,,,,3,11,75,,,
203064,control_change,16,0,11,,,,,,,,,10,11,63,,,
203064,control_change,15,0,2,,,,,,,,,1,11,54,,,
203067,control_change,16,0,12,,,,,,,,,11,11,63,,,
203071,control_change,16,0,8,,,,,,,,,7,11,61,,,
203072,control_change,16,0,13,,,,,,,,,12,11,63,,,
203076,control_change,16,0,14,,,,,,,,,13,11,63,,,
203077,control_change,16,0,9,,,,,,,,,8,11,61,,,
203077,control_change,16,0,1,,,,,,,,,0,11,55,,,
203078,control_change,16,0,15,,,,,,,,,14,11,63,,,
203080,control_change,16,0,2,,,,,,,,,1,11,55,,,
203080,control_change,16,0,11,,,,,,,,,10,11,64,,,
203083,control_change,16,0,12,,,,,,,,,11,11,64,,,
203087,control_change,16,0,8,,,,,,,,,7,11,62,,,
203088,control_change,29,0,3,,,,,,,,,2,11,70,,,
203088,control_change,16,0,13,,,,,,,,,12,11,64,,,
203092,control_change,16,0,14,,,,,,,,,13,11,64,,,
203092,control_change,29,0,4,,,,,,,,,3,11,76,,,
203092,control_change,15,0,1,,,,,,,,,0,11,55,,,
203093,control_change,16,0,9,,,,,,,,,8,11,62,,,
203094,control_change,16,0,15,,,,,,,,,14,11,64,,,
203095,control_change,15,0,2,,,,,,,,,1,11,55,,,
203096,control_change,16,0,11,,,,,,,,,10,11,65,,,
203099,control_change,16,0,12,,,,,,,,,11,11,65,,,
203100,note_on,4,0,11,,,,,,,,,10,,,,64,0
203103,control_change,16,0,8,,,,,,,,,7,11,63,,,
203103,note_on,4,0,12,,,,,,,,,11,,,,61,0
203104,control_change,16,0,13,,,,,,,,,12,11,65,,,
203107,control_change,15,0,1,,,,,,,,,0,11,56,,,
203108,control_change,16,0,14,,,,,,,,,13,11,65,,,
203109,control_change,16,0,9,,,,,,,,,8,11,63,,,
203110,control_change,15,0,2,,,,,,,,,1,11,56,,,
203110,control_change,16,0,15,,,,,,,,,14,11,65,,,
203112,control_change,12,0,11,,,,,,,,,10,11,66,,,
203115,control_change,12,0,12,,,,,,,,,11,11,66,,,
203117,control_change,29,0,3,,,,,,,,,2,11,70,,,
203119,control_change,16,0,8,,,,,,,,,7,11,64,,,
203120,control_change,16,0,13,,,,,,,,,12,11,66,,,
203121,control_change,29,0,4,,,,,,,,,3,11,77,,,
203123,control_change,16,0,1,,,,,,,,,0,11,57,,,
203124,control_change,16,0,14,,,,,,,,,13,11,66,,,
203125,control_change,16,0,9,,,,,,,,,8,11,64,,,
203126,control_change,16,0,2,,,,,,,,,1,11,57,,,
203126,control_change,16,0,15,,,,,,,,,14,11,66,,,
203128,control_change,16,0,11,,,,,,,,,10,11,67,,,
203131,control_change,16,0,12,,,,,,,,,11,11,67,,,
203135,control_change,16,0,8,,,,,,,,,7,11,65,,,
203136,control_change,16,0,13,,,,,,,,,12,11,67,,,
203138,control_change,15,0,1,,,,,,,,,0,11,58,,,
203140,control_change,16,0,14,,,,,,,,,13,11,67,,,
203141,control_change,15,0,2,,,,,,,,,1,11,58,,,
203141,control_change,16,0,9,,,,,,,,,8,11,65,,,
203142,control_change,16,0,15,,,,,,,,,14,11,67,,,
203144,control_change,16,0,11,,,,,,,,,10,11,68,,,
203145,control_change,28,0,3,,,,,,,,,2,11,71,,,
203147,control_change,16,0,12,,,,,,,,,11,11,68,,,
203149,control_change,28,0,4,,,,,,,,,3,11,78,,,
203151,control_change,16,0,8,,,,,,,,,7,11,66,,,
203152,control_change,16,0,13,,,,,,,,,12,11,68,,,
203154,control_change,16,0,1,,,,,,,,,0,11,58,,,
203156,control_change,16,0,14,,,,,,,,,13,11,68,,,
203157,control_change,16,0,9,,,,,,,,,8,11,66,,,
203157,control_change,16,0,2,,,,,,,,,1,11,58,,,
203158,control_change,16,0,15,,,,,,,,,14,11,68,,,
203160,set_tempo,120,1,0,,,,,,307692,,,,,,,,
203160,note_on,16,0,11,,,,,,,,,10,,,,73,102
203160,control_change,0,0,11,,,,,,,,,10,11,69,,,
203163,control_change,16,0,12,,,,,,,,,11,11,69,,,
203163,note_on,0,0,12,,,,,,,,,11,,,,68,102
203165,note_on,20,0,3,,,,,,,,,2,,,,76,0
203165,note_on,0,0,3,,,,,,,,,2,,,,78,101
203167,control_change,16,0,8,,,,,,,,,7,11,67,,,
203168,control_change,16,0,13,,,,,,,,,12,11,69,,,
203169,note_on,20,0,4,,,,,,,,,3,,,,64,0
203169,control_change,15,0,1,,,,,,,,,0,11,59,,,
203169,note_on,0,0,4,,,,,,,,,3,,,,66,100
203172,control_change,15,0,2,,,,,,,,,1,11,59,,,
203172,control_change,16,0,14,,,,,,,,,13,11,69,,,
203173,control_change,16,0,9,,,,,,,,,8,11,67,,,
203174,control_change,16,0,15,,,,,,,,,14,11,69,,,
203174,control_change,9,0,3,,,,,,,,,2,11,72,,,
203176,control_change,16,0,11,,,,,,,,,10,11,70,,,
203178,control_change,9,0,4,,,,,,,,,3,11,79,,,
203179,control_change,16,0,12,,,,,,,,,11,11,70,,,
203183,control_change,16,0,8,,,,,,,,,7,11,68,,,
203184,control_change,16,0,13,,,,,,,,,12,11,70,,,
203185,control_change,16,0,1,,,,,,,,,0,11,60,,,
203188,control_change,16,0,2,,,,,,,,,1,11,60,,,
203188,control_change,16,0,14,,,,,,,,,13,11,70,,,
203189,control_change,16,0,9,,,,,,,,,8,11,68,,,
203190,control_change,16,0,15,,,,,,,,,14,11,70,,,
203192,control_change,16,0,11,,,,,,,,,10,11,71,,,
203195,control_change,16,0,12,,,,,,,,,11,11,71,,,
203199,control_change,16,0,8,,,,,,,,,7,11,69,,,
203200,control_change,15,0,1,,,,,,,,,0,11,61,,,
203200,control_change,16,0,13,,,,,,,,,12,11,71,,,
203203,control_change,29,0,3,,,,,,,,,2,11,73,,,
203203,control_change,15,0,2,,,,,,,,,1,11,61,,,
203204,control_change,16,0,14,,,,,,,,,13,11,71,,,
203205,control_change,16,0,9,,,,,,,,,8,11,69,,,
203206,control_change,16,0,15,,,,,,,,,14,11,71,,,
203207,control_change,29,0,4,,,,,,,,,3,11,80,,,
203208,control_change,16,0,11,,,,,,,,,10,11,72,,,
203211,control_change,16,0,12,,,,,,,,,11,11,72,,,
203215,control_change,15,0,1,,,,,,,,,0,11,61,,,
203215,control_change,16,0,8,,,,,,,,,7,11,70,,,
203216,control_change,16,0,13,,,,,,,,,12,11,72,,,
203218,control_change,15,0,2,,,,,,,,,1,11,61,,,
203220,note_on,12,0,11,,,,,,,,,10,,,,73,0
203220,control_change,16,0,14,,,,,,,,,13,11,72,,,
203221,control_change,16,0,9,,,,,,,,,8,11,70,,,
203222,control_change,16,0,15,,,,,,,,,14,11,72,,,
203223,note_on,12,0,12,,,,,,,,,11,,,,68,0
203224,control_change,4,0,11,,,,,,,,,10,11,72,,,
203227,control_change,4,0,12,,,,,,,,,11,11,72,,,
203231,control_change,16,0,8,,,,,,,,,7,11,71,,,
203231,control_change,16,0,1,,,,,,,,,0,11,62,,,
203232,control_change,16,0,13,,,,,,,,,12,11,72,,,
203232,control_change,29,0,3,,,,,,,,,2,11,73,,,
203234,control_change,16,0,2,,,,,,,,,1,11,62,,,
203236,control_change,29,0,4,,,,,,,,,3,11,81,,,
203236,control_change,16,0,14,,,,,,,,,13,11,72,,,
203237,control_change,16,0,9,,,,,,,,,8,11,71,,,
203238,control_change,16,0,15,,,,,,,,,14,11,72,,,
203240,control_change,16,0,11,,,,,,,,,10,11,73,,,
203243,control_change,16,0,12,,,,,,,,,11,11,73,,,
203246,control_change,15,0,1,,,,,,,,,0,11,63,,,
203247,control_change,16,0,8,,,,,,,,,7,11,72,,,
203248,control_change,16,0,13,,,,,,,,,12,11,73,,,
203249,control_change,15,0,2,,,,,,,,,1,11,63,,,
203252,control_change,16,0,14,,,,,,,,,13,11,73,,,
203253,control_change,16,0,9,,,,,,,,,8,11,72,,,
203254,control_change,16,0,15,,,,,,,,,14,11,73,,,
203256,control_change,16,0,11,,,,,,,,,10,11,74,,,
203259,control_change,16,0,12,,,,,,,,,11,11,74,,,
203261,control_change,29,0,3,,,,,,,,,2,11,74,,,
203262,control_change,16,0,1,,,,,,,,,0,11,64,,,
203263,control_change,16,0,8,,,,,,,,,7,11,73,,,
203264,control_change,16,0,13,,,,,,,,,12,11,74,,,
203265,control_change,16,0,2,,,,,,,,,1,11,64,,,
203265,control_change,29,0,4,,,,,,,,,3,11,82,,,
203268,control_change,16,0,14,,,,,,,,,13,11,74,,,
203269,control_change,16,0,9,,,,,,,,,8,11,73,,,
203270,control_change,16,0,15,,,,,,,,,14,11,74,,,
203272,control_change,16,0,11,,,,,,,,,10,11,75,,,
203275,control_change,16,0,12,,,,,,,,,11,11,75,,,
203277,control_change,15,0,1,,,,,,,,,0,11,64,,,
203279,control_change,16,0,8,,,,,,,,,7,11,74,,,
203280,control_change,16,0,13,,,,,,,,,12,11,75,,,
203280,control_change,15,0,2,,,,,,,,,1,11,64,,,
203280,set_tempo,120,1,0,,,,,,330579,,,,,,,,
203280,note_on,8,0,11,,,,,,,,,10,,,,76,102
203283,note_on,8,0,12,,,,,,,,,11,,,,73,102
203284,control_change,16,0,14,,,,,,,,,13,11,75,,,
203285,control_change,16,0,9,,,,,,,,,8,11,74,,,
203285,note_on,0,0,3,,,,,,,,,2,,,,80,101
203285,note_on,24,0,3,,,,,,,,,2,,,,78,0
203286,control_change,16,0,15,,,,,,,,,14,11,75,,,
203288,control_change,8,0,11,,,,,,,,,10,11,76,,,
203289,note_on,24,0,4,,,,,,,,,3,,,,66,0
203289,control_change,4,0,3,,,,,,,,,2,11,75,,,
203289,note_on,0,0,4,,,,,,,,,3,,,,68,100
203291,control_change,8,0,12,,,,,,,,,11,11,76,,,
203293,control_change,16,0,1,,,,,,,,,0,11,65,,,
203293,control_change,4,0,4,,,,,,,,,3,11,83,,,
203295,control_change,16,0,8,,,,,,,,,7,11,75,,,
203296,control_change,16,0,2,,,,,,,,,1,11,65,,,
203296,control_change,16,0,13,,,,,,,,,12,11,76,,,
203300,control_change,16,0,14,,,,,,,,,13,11,76,,,
203301,control_change,16,0,9,,,,,,,,,8,11,75,,,
203302,control_change,16,0,15,,,,,,,,,14,11,76,,,
203304,control_change,16,0,11,,,,,,,,,10,11,77,,,
203307,control_change,16,0,12,,,,,,,,,11,11,77,,,
203308,control_change,15,0,1,,,,,,,,,0,11,66,,,
203311,control_change,15,0,2,,,,,,,,,1,11,66,,,
203311,control_change,16,0,8,,,,,,,,,7,11,76,,,
203312,control_change,16,0,13,,,,,,,,,12,11,77,,,
203316,control_change,16,0,14,,,,,,,,,13,11,77,,,
203317,control_change,16,0,9,,,,,,,,,8,11,76,,,
203318,control_change,16,0,15,,,,,,,,,14,11,77,,,
203318,control_change,29,0,3,,,,,,,,,2,11,76,,,
203320,control_change,16,0,11,,,,,,,,,10,11,78,,,
203322,control_change,29,0,4,,,,,,,,,3,11,84,,,
203323,control_change,15,0,1,,,,,,,,,0,11,67,,,
203323,control_change,16,0,12,,,,,,,,,11,11,78,,,
203326,control_change,15,0,2,,,,,,,,,1,11,67,,,
203327,control_change,16,0,8,,,,,,,,,7,11,77,,,
203328,control_change,16,0,13,,,,,,,,,12,11,78,,,
203332,control_change,16,0,14,,,,,,,,,13,11,78,,,
203333,control_change,16,0,9,,,,,,,,,8,11,77,,,
203334,control_change,16,0,15,,,,,,,,,14,11,78,,,
203336,control_change,16,0,11,,,,,,,,,10,11,79,,,
203339,control_change,16,0,1,,,,,,,,,0,11,67,,,
203339,control_change,16,0,12,,,,,,,,,11,11,79,,,
203340,note_on,4,0,11,,,,,,,,,10,,,,76,0
203342,control_change,16,0,2,,,,,,,,,1,11,67,,,
203343,note_on,4,0,12,,,,,,,,,11,,,,73,0
203343,control_change,16,0,8,,,,,,,,,7,11,78,,,
203344,control_change,16,0,13,,,,,,,,,12,11,79,,,
203347,control_change,29,0,3,,,,,,,,,2,11,76,,,
203348,control_change,16,0,14,,,,,,,,,13,11,79,,,
203349,control_change,16,0,9,,,,,,,,,8,11,78,,,
203350,control_change,16,0,15,,,,,,,,,14,11,79,,,
203351,control_change,29,0,4,,,,,,,,,3,11,85,,,
203352,control_change,12,0,11,,,,,,,,,10,11,80,,,
203354,control_change,15,0,1,,,,,,,,,0,11,68,,,
203355,control_change,12,0,12,,,,,,,,,11,11,80,,,
203357,control_change,15,0,2,,,,,,,,,1,11,68,,,
203359,control_change,16,0,8,,,,,,,,,7,11,79,,,
203360,control_change,16,0,13,,,,,,,,,12,11,80,,,
203364,control_change,16,0,14,,,,,,,,,13,11,80,,,
203365,control_change,16,0,9,,,,,,,,,8,11,79,,,
203366,control_change,16,0,15,,,,,,,,,14,11,80,,,
203368,control_change,16,0,11,,,,,,,,,10,11,81,,,
203370,control_change,16,0,1,,,,,,,,,0,11,69,,,
203371,control_change,16,0,12,,,,,,,,,11,11,81,,,
203373,control_change,16,0,2,,,,,,,,,1,11,69,,,
203375,control_change,16,0,8,,,,,,,,,7,11,80,,,
203376,control_change,29,0,3,,,,,,,,,2,11,77,,,
203376,control_change,16,0,13,,,,,,,,,12,11,81,,,
203380,control_change,16,0,14,,,,,,,,,13,11,81,,,
203380,control_change,29,0,4,,,,,,,,,3,11,86,,,
203381,control_change,16,0,9,,,,,,,,,8,11,80,,,
203382,control_change,16,0,15,,,,,,,,,14,11,81,,,
203384,control_change,16,0,11,,,,,,,,,10,11,82,,,
203385,control_change,15,0,1,,,,,,,,,0,11,70,,,
203387,control_change,16,0,12,,,,,,,,,11,11,82,,,
203388,control_change,15,0,2,,,,,,,,,1,11,70,,,
203391,control_change,16,0,8,,,,,,,,,7,11,81,,,
203392,control_change,16,0,13,,,,,,,,,12,11,82,,,
203396,control_change,16,0,14,,,,,,,,,13,11,82,,,
203397,control_change,16,0,9,,,,,,,,,8,11,81,,,
203398,control_change,16,0,15,,,,,,,,,14,11,82,,,
203400,set_tempo,120,1,0,,,,,,291262,,,,,,,,
203400,control_change,0,0,11,,,,,,,,,10,11,83,,,
203400,note_on,16,0,11,,,,,,,,,10,,,,73,115
203401,note_on,16,0,1,,,,,,,,,0,,,,88,0
203401,note_on,0,0,1,,,,,,,,,0,,,,85,0
203401,note_on,0,0,1,,,,,,,,,0,,,,92,116
203401,note_on,0,0,1,,,,,,,,,0,,,,88,116
203401,control_change,0,0,1,,,,,,,,,0,11,70,,,
203403,note_on,0,0,12,,,,,,,,,11,,,,68,115
203403,control_change,16,0,12,,,,,,,,,11,11,83,,,
203404,note_on,0,0,2,,,,,,,,,1,,,,80,115
203404,note_on,0,0,2,,,,,,,,,1,,,,73,115
203404,control_change,0,0,2,,,,,,,,,1,11,70,,,
203404,note_on,0,0,2,,,,,,,,,1,,,,76,0
203404,note_on,16,0,2,,,,,,,,,1,,,,85,0
203405,note_on,0,0,3,,,,,,,,,2,,,,76,101
203405,note_on,0,0,3,,,,,,,,,2,,,,80,101
203405,control_change,0,0,3,,,,,,,,,2,11,78,,,
203405,note_on,29,0,3,,,,,,,,,2,,,,80,0
203407,note_on,0,0,8,,,,,,,,,7,,,,56,110
203407,note_on,0,0,8,,,,,,,,,7,,,,68,110
203407,note_on,0,0,8,,,,,,,,,7,,,,61,0
203407,note_on,16,0,8,,,,,,,,,7,,,,64,0
203407,control_change,0,0,8,,,,,,,,,7,11,82,,,
203408,note_on,16,0,13,,,,,,,,,12,,,,64,0
203408,note_on,0,0,13,,,,,,,,,12,,,,68,127
203408,control_change,0,0,13,,,,,,,,,12,11,83,,,
203409,control_change,0,0,4,,,,,,,,,3,11,87,,,
203409,note_on,0,0,4,,,,,,,,,3,,,,64,100
203409,note_on,0,0,4,,,,,,,,,3,,,,61,0
203409,note_on,29,0,4,,,,,,,,,3,,,,68,0
203409,note_on,0,0,4,,,,,,,,,3,,,,68,100
203412,note_on,16,0,14,,,,,,,,,13,,,,61,0
203412,note_on,0,0,14,,,,,,,,,13,,,,64,127
203412,control_change,0,0,14,,,,,,,,,13,11,83,,,
203413,note_on,16,0,9,,,,,,,,,8,,,,45,0
203413,control_change,0,0,9,,,,,,,,,8,11,82,,,
203413,note_on,0,0,9,,,,,,,,,8,,,,44,110
203414,note_on,0,0,15,,,,,,,,,14,,,,32,112
203414,note_on,16,0,15,,,,,,,,,14,,,,33,0
203414,control_change,0,0,15,,,,,,,,,14,11,83,,,
203460,note_on,60,0,11,,,,,,,,,10,,,,73,0
203463,note_on,60,0,12,,,,,,,,,11,,,,68,0
203468,note_on,60,0,13,,,,,,,,,12,,,,68,0
203472,note_on,60,0,14,,,,,,,,,13,,,,64,0
203520,set_tempo,120,1,0,,,,,,307692,,,,,,,,
203520,note_on,60,0,11,,,,,,,,,10,,,,76,102
203523,note_on,60,0,12,,,,,,,,,11,,,,73,102
203528,note_on,60,0,13,,,,,,,,,12,,,,64,112
203532,note_on,60,0,14,,,,,,,,,13,,,,61,112
203580,note_on,60,0,11,,,,,,,,,10,,,,76,0
203583,note_on,60,0,12,,,,,,,,,11,,,,73,0
203588,note_on,60,0,13,,,,,,,,,12,,,,64,0
203592,note_on,60,0,14,,,,,,,,,13,,,,61,0
203640,note_on,60,0,11,,,,,,,,,10,,,,80,102
203640,set_tempo,120,1,0,,,,,,320000,,,,,,,,
203643,note_on,60,0,12,,,,,,,,,11,,,,76,102
203648,note_on,60,0,13,,,,,,,,,12,,,,61,112
203652,note_on,60,0,14,,,,,,,,,13,,,,56,112
203700,note_on,60,0,11,,,,,,,,,10,,,,80,0
203703,note_on,60,0,12,,,,,,,,,11,,,,76,0
203708,note_on,60,0,13,,,,,,,,,12,,,,61,0
203712,note_on,60,0,14,,,,,,,,,13,,,,56,0
203760,set_tempo,120,1,0,,,,,,291262,,,,,,,,
203760,note_on,60,0,11,,,,,,,,,10,,,,75,115
203761,note_on,0,0,1,,,,,,,,,0,,,,84,116
203761,note_on,360,0,1,,,,,,,,,0,,,,88,0
203761,note_on,0,0,1,,,,,,,,,0,,,,92,0
203761,note_on,0,0,1,,,,,,,,,0,,,,80,116
203763,note_on,60,0,12,,,,,,,,,11,,,,72,115
203764,note_on,0,0,2,,,,,,,,,1,,,,84,115
203764,note_on,0,0,2,,,,,,,,,1,,,,75,115
203764,note_on,0,0,2,,,,,,,,,1,,,,80,0
203764,note_on,360,0,2,,,,,,,,,1,,,,73,0
203765,note_on,0,0,3,,,,,,,,,2,,,,78,101
203765,note_on,0,0,3,,,,,,,,,2,,,,72,101
203765,note_on,360,0,3,,,,,,,,,2,,,,80,0
203765,note_on,0,0,3,,,,,,,,,2,,,,76,0
203767,note_on,0,0,8,,,,,,,,,7,,,,56,110
203767,note_on,0,0,8,,,,,,,,,7,,,,68,110
203767,note_on,0,0,8,,,,,,,,,7,,,,68,0
203767,note_on,360,0,8,,,,,,,,,7,,,,56,0
203768,note_on,60,0,13,,,,,,,,,12,,,,68,127
203769,note_on,360,0,4,,,,,,,,,3,,,,64,0
203769,note_on,0,0,4,,,,,,,,,3,,,,68,0
203769,note_on,0,0,4,,,,,,,,,3,,,,63,100
203769,note_on,0,0,4,,,,,,,,,3,,,,66,100
203772,note_on,60,0,14,,,,,,,,,13,,,,66,127
203773,note_on,360,0,9,,,,,,,,,8,,,,44,0
203773,note_on,0,0,9,,,,,,,,,8,,,,44,110
203774,note_on,360,0,15,,,,,,,,,14,,,,32,0
203774,note_on,0,0,15,,,,,,,,,14,,,,32,127
203820,note_on,60,0,11,,,,,,,,,10,,,,75,0
203823,note_on,60,0,12,,,,,,,,,11,,,,72,0
203828,note_on,60,0,13,,,,,,,,,12,,,,68,0
203832,note_on,60,0,14,,,,,,,,,13,,,,66,0
203880,set_tempo,120,1,0,,,,,,307692,,,,,,,,
203880,note_on,60,0,11,,,,,,,,,10,,,,80,102
203883,note_on,60,0,12,,,,,,,,,11,,,,75,102
203888,note_on,60,0,13,,,,,,,,,12,,,,66,112
203892,note_on,60,0,14,,,,,,,,,13,,,,63,112
203940,note_on,60,0,11,,,,,,,,,10,,,,80,0
203943,note_on,60,0,12,,,,,,,,,11,,,,75,0
203948,note_on,60,0,13,,,,,,,,,12,,,,66,0
203952,note_on,60,0,14,,,,,,,,,13,,,,63,0
204000,note_on,60,0,11,,,,,,,,,10,,,,84,102
204000,set_tempo,120,1,0,,,,,,313316,,,,,,,,
204003,note_on,60,0,12,,,,,,,,,11,,,,80,102
204008,note_on,60,0,13,,,,,,,,,12,,,,63,112
204012,note_on,60,0,14,,,,,,,,,13,,,,56,112
204060,note_on,60,0,11,,,,,,,,,10,,,,84,0
204063,note_on,60,0,12,,,,,,,,,11,,,,80,0
204068,note_on,60,0,13,,,,,,,,,12,,,,63,0
204072,note_on,60,0,14,,,,,,,,,13,,,,56,0
204120,note_on,60,0,11,,,,,,,,,10,,,,85,115
204120,set_tempo,120,1,0,,,,,,291262,,,,,,,,
204121,note_on,0,0,1,,,,,,,,,0,,,,80,116
204121,note_on,360,0,1,,,,,,,,,0,,,,84,0
204121,note_on,0,0,1,,,,,,,,,0,,,,80,0
204121,note_on,0,0,1,,,,,,,,,0,,,,85,116
204123,note_on,60,0,12,,,,,,,,,11,,,,76,115
204123,note_on,6600,0,5,,,,,,,,,4,,,,64,115
204123,note_on,0,0,12,,,,,,,,,11,,,,73,115
204124,note_on,0,0,2,,,,,,,,,1,,,,75,0
204124,note_on,0,0,2,,,,,,,,,1,,,,85,115
204124,note_on,360,0,2,,,,,,,,,1,,,,84,0
204124,note_on,6600,0,6,,,,,,,,,5,,,,52,115
204124,note_on,0,0,2,,,,,,,,,1,,,,76,115
204125,note_on,360,0,3,,,,,,,,,2,,,,72,0
204125,note_on,0,0,3,,,,,,,,,2,,,,78,0
204125,note_on,0,0,3,,,,,,,,,2,,,,76,101
204125,note_on,0,0,3,,,,,,,,,2,,,,73,101
204127,note_on,0,0,8,,,,,,,,,7,,,,56,110
204127,note_on,0,0,8,,,,,,,,,7,,,,68,110
204127,note_on,360,0,8,,,,,,,,,7,,,,56,0
204127,note_on,0,0,8,,,,,,,,,7,,,,68,0
204128,note_on,60,0,13,,,,,,,,,12,,,,64,127
204129,note_on,360,0,4,,,,,,,,,3,,,,66,0
204129,note_on,0,0,4,,,,,,,,,3,,,,61,100
204129,note_on,0,0,4,,,,,,,,,3,,,,64,100
204129,note_on,0,0,4,,,,,,,,,3,,,,63,0
204132,note_on,60,0,14,,,,,,,,,13,,,,61,127
204133,note_on,360,0,9,,,,,,,,,8,,,,44,0
204133,note_on,0,0,9,,,,,,,,,8,,,,49,110
204134,note_on,360,0,15,,,,,,,,,14,,,,32,0
204134,note_on,0,0,15,,,,,,,,,14,,,,37,112
204188,note_on,60,0,13,,,,,,,,,12,,,,64,0
204192,note_on,60,0,14,,,,,,,,,13,,,,61,0
204240,set_tempo,120,1,0,,,,,,307692,,,,,,,,
204240,control_change,120,0,11,,,,,,,,,10,11,83,,,
204243,control_change,120,0,12,,,,,,,,,11,11,83,,,
204248,note_on,60,0,13,,,,,,,,,12,,,,61,112
204252,note_on,60,0,14,,,,,,,,,13,,,,56,112
204254,control_change,120,0,15,,,,,,,,,14,11,83,,,
204263,control_change,23,0,11,,,,,,,,,10,11,81,,,
204266,control_change,23,0,12,,,,,,,,,11,11,81,,,
204277,control_change,23,0,15,,,,,,,,,14,11,81,,,
204287,control_change,24,0,11,,,,,,,,,10,11,79,,,
204290,control_change,24,0,12,,,,,,,,,11,11,79,,,
204301,control_change,24,0,15,,,,,,,,,14,11,79,,,
204308,note_on,60,0,13,,,,,,,,,12,,,,61,0
204311,control_change,24,0,11,,,,,,,,,10,11,77,,,
204312,note_on,60,0,14,,,,,,,,,13,,,,56,0
204314,control_change,24,0,12,,,,,,,,,11,11,77,,,
204325,control_change,24,0,15,,,,,,,,,14,11,77,,,
204335,control_change,24,0,11,,,,,,,,,10,11,75,,,
204338,control_change,24,0,12,,,,,,,,,11,11,75,,,
204349,control_change,24,0,15,,,,,,,,,14,11,75,,,
204359,control_change,24,0,11,,,,,,,,,10,11,73,,,
204360,set_tempo,120,1,0,,,,,,330579,,,,,,,,
204362,control_change,24,0,12,,,,,,,,,11,11,73,,,
204368,note_on,60,0,13,,,,,,,,,12,,,,56,112
204372,note_on,60,0,14,,,,,,,,,13,,,,52,112
204373,control_change,24,0,15,,,,,,,,,14,11,73,,,
204383,control_change,24,0,11,,,,,,,,,10,11,72,,,
204386,control_change,24,0,12,,,,,,,,,11,11,72,,,
204397,control_change,24,0,15,,,,,,,,,14,11,72,,,
204407,control_change,24,0,11,,,,,,,,,10,11,70,,,
204410,control_change,24,0,12,,,,,,,,,11,11,70,,,
204421,control_change,24,0,15,,,,,,,,,14,11,70,,,
204428,note_on,60,0,13,,,,,,,,,12,,,,56,0
204431,control_change,24,0,11,,,,,,,,,10,11,68,,,
204432,note_on,60,0,14,,,,,,,,,13,,,,52,0
204434,control_change,24,0,12,,,,,,,,,11,11,68,,,
204445,control_change,24,0,15,,,,,,,,,14,11,68,,,
204455,control_change,24,0,11,,,,,,,,,10,11,66,,,
204458,control_change,24,0,12,,,,,,,,,11,11,66,,,
204469,control_change,24,0,15,,,,,,,,,14,11,66,,,
204479,control_change,24,0,11,,,,,,,,,10,11,64,,,
204480,set_tempo,120,1,0,,,,,,291262,,,,,,,,
204482,control_change,24,0,12,,,,,,,,,11,11,64,,,
204488,note_on,60,0,13,,,,,,,,,12,,,,52,112
204492,note_on,60,0,14,,,,,,,,,13,,,,49,112
204493,control_change,24,0,15,,,,,,,,,14,11,64,,,
204494,control_change,15,0,11,,,,,,,,,10,11,61,,,
204497,control_change,15,0,12,,,,,,,,,11,11,61,,,
204508,control_change,14,0,11,,,,,,,,,10,11,58,,,
204508,control_change,15,0,15,,,,,,,,,14,11,61,,,
204511,control_change,14,0,12,,,,,,,,,11,11,58,,,
204522,control_change,14,0,15,,,,,,,,,14,11,58,,,
204537,control_change,29,0,11,,,,,,,,,10,11,53,,,
204540,control_change,29,0,12,,,,,,,,,11,11,53,,,
204548,note_on,60,0,13,,,,,,,,,12,,,,52,0
204551,control_change,29,0,15,,,,,,,,,14,11,53,,,
204551,control_change,14,0,11,,,,,,,,,10,11,50,,,
204552,note_on,60,0,14,,,,,,,,,13,,,,49,0
204554,control_change,14,0,12,,,,,,,,,11,11,50,,,
204565,control_change,14,0,15,,,,,,,,,14,11,50,,,
204565,control_change,14,0,11,,,,,,,,,10,11,47,,,
204568,control_change,14,0,12,,,,,,,,,11,11,47,,,
204579,control_change,14,0,11,,,,,,,,,10,11,44,,,
204579,control_change,14,0,15,,,,,,,,,14,11,47,,,
204582,control_change,14,0,12,,,,,,,,,11,11,44,,,
204593,control_change,14,0,15,,,,,,,,,14,11,44,,,
204594,control_change,15,0,11,,,,,,,,,10,11,42,,,
204597,control_change,15,0,12,,,,,,,,,11,11,42,,,
204600,set_tempo,120,1,0,,,,,,315789,,,,,,,,
204600,note_on,6,0,11,,,,,,,,,10,,,,85,0
204600,note_on,0,0,11,,,,,,,,,10,,,,61,102
204601,note_on,0,0,1,,,,,,,,,0,,,,85,0
204601,note_on,480,0,1,,,,,,,,,0,,,,80,0
204603,note_on,480,0,5,,,,,,,,,4,,,,64,0
204603,note_on,6,0,12,,,,,,,,,11,,,,73,0
204603,note_on,0,0,12,,,,,,,,,11,,,,76,0
204603,note_on,0,0,12,,,,,,,,,11,,,,61,102
204604,note_on,480,0,6,,,,,,,,,5,,,,52,0
204604,note_on,480,0,2,,,,,,,,,1,,,,85,0
204604,note_on,0,0,2,,,,,,,,,1,,,,76,0
204605,note_on,480,0,3,,,,,,,,,2,,,,73,0
204605,note_on,0,0,3,,,,,,,,,2,,,,76,0
204607,note_on,0,0,8,,,,,,,,,7,,,,68,0
204607,note_on,480,0,8,,,,,,,,,7,,,,56,0
204608,note_on,60,0,13,,,,,,,,,12,,,,49,112
204608,control_change,0,0,13,,,,,,,,,12,11,69,,,
204608,control_change,8,0,11,,,,,,,,,10,11,47,,,
204608,control_change,15,0,15,,,,,,,,,14,11,42,,,
204609,note_on,480,0,4,,,,,,,,,3,,,,61,0
204609,note_on,0,0,4,,,,,,,,,3,,,,64,0
204611,control_change,8,0,12,,,,,,,,,11,11,47,,,
204612,control_change,0,0,14,,,,,,,,,13,11,69,,,
204612,control_change,4,0,11,,,,,,,,,10,11,50,,,
204612,note_on,60,0,14,,,,,,,,,13,,,,49,112
204613,note_on,480,0,9,,,,,,,,,8,,,,49,0
204614,note_on,0,0,15,,,,,,,,,14,,,,37,112
204614,note_on,6,0,15,,,,,,,,,14,,,,37,0
204615,control_change,3,0,11,,,,,,,,,10,11,53,,,
204615,control_change,4,0,12,,,,,,,,,11,11,50,,,
204618,control_change,3,0,12,,,,,,,,,11,11,53,,,
204619,control_change,4,0,11,,,,,,,,,10,11,56,,,
204622,control_change,8,0,15,,,,,,,,,14,11,47,,,
204622,control_change,4,0,12,,,,,,,,,11,11,56,,,
204624,control_change,16,0,13,,,,,,,,,12,11,67,,,
204626,control_change,7,0,11,,,,,,,,,10,11,61,,,
204626,control_change,4,0,15,,,,,,,,,14,11,50,,,
204628,control_change,16,0,14,,,,,,,,,13,11,67,,,
204629,control_change,7,0,12,,,,,,,,,11,11,61,,,
204629,control_change,3,0,15,,,,,,,,,14,11,53,,,
204630,control_change,4,0,11,,,,,,,,,10,11,64,,,
204633,control_change,4,0,12,,,,,,,,,11,11,64,,,
204633,control_change,4,0,15,,,,,,,,,14,11,56,,,
204640,control_change,16,0,13,,,,,,,,,12,11,65,,,
204640,control_change,7,0,15,,,,,,,,,14,11,61,,,
204644,control_change,4,0,15,,,,,,,,,14,11,64,,,
204644,control_change,16,0,14,,,,,,,,,13,11,65,,,
204646,control_change,16,0,11,,,,,,,,,10,11,62,,,
204649,control_change,16,0,12,,,,,,,,,11,11,62,,,
204656,control_change,16,0,13,,,,,,,,,12,11,63,,,
204660,control_change,16,0,14,,,,,,,,,13,11,63,,,
204660,note_on,14,0,11,,,,,,,,,10,,,,61,0
204660,control_change,16,0,15,,,,,,,,,14,11,62,,,
204663,control_change,3,0,11,,,,,,,,,10,11,60,,,
204663,note_on,14,0,12,,,,,,,,,11,,,,61,0
204666,control_change,3,0,12,,,,,,,,,11,11,60,,,
204668,note_on,12,0,13,,,,,,,,,12,,,,49,0
204672,control_change,4,0,13,,,,,,,,,12,11,61,,,
204672,note_on,12,0,14,,,,,,,,,13,,,,49,0
204674,note_on,14,0,15,,,,,,,,,14,,,,37,0
204676,control_change,4,0,14,,,,,,,,,13,11,61,,,
204677,control_change,3,0,15,,,,,,,,,14,11,60,,,
204680,control_change,17,0,11,,,,,,,,,10,11,58,,,
204683,control_change,17,0,12,,,,,,,,,11,11,58,,,
204688,control_change,16,0,13,,,,,,,,,12,11,59,,,
204692,control_change,16,0,14,,,,,,,,,13,11,59,,,
204694,control_change,17,0,15,,,,,,,,,14,11,58,,,
204697,control_change,17,0,11,,,,,,,,,10,11,57,,,
204700,control_change,17,0,12,,,,,,,,,11,11,57,,,
204704,control_change,16,0,13,,,,,,,,,12,11,57,,,
204708,control_change,16,0,14,,,,,,,,,13,11,57,,,
204711,control_change,17,0,15,,,,,,,,,14,11,57,,,
204714,control_change,17,0,11,,,,,,,,,10,11,55,,,
204717,control_change,17,0,12,,,,,,,,,11,11,55,,,
204720,control_change,16,0,13,,,,,,,,,12,11,56,,,
204720,set_tempo,120,1,0,,,,,,375000,,,,,,,,
204720,note_on,6,0,11,,,,,,,,,10,,,,64,102
204723,note_on,6,0,12,,,,,,,,,11,,,,64,102
204724,control_change,16,0,14,,,,,,,,,13,11,56,,,
204728,control_change,17,0,15,,,,,,,,,14,11,55,,,
204728,note_on,8,0,13,,,,,,,,,12,,,,52,112
204730,control_change,10,0,11,,,,,,,,,10,11,53,,,
204732,note_on,8,0,14,,,,,,,,,13,,,,52,112
204733,control_change,10,0,12,,,,,,,,,11,11,53,,,
204734,note_on,6,0,15,,,,,,,,,14,,,,40,112
204736,control_change,8,0,13,,,,,,,,,12,11,54,,,
204740,control_change,8,0,14,,,,,,,,,13,11,54,,,
204744,control_change,10,0,15,,,,,,,,,14,11,53,,,
204747,control_change,17,0,11,,,,,,,,,10,11,51,,,
204750,control_change,17,0,12,,,,,,,,,11,11,51,,,
204752,control_change,16,0,13,,,,,,,,,12,11,52,,,
204756,control_change,16,0,14,,,,,,,,,13,11,52,,,
204761,control_change,17,0,15,,,,,,,,,14,11,51,,,
204764,control_change,17,0,11,,,,,,,,,10,11,49,,,
204767,control_change,17,0,12,,,,,,,,,11,11,49,,,
204768,control_change,16,0,13,,,,,,,,,12,11,50,,,
204772,control_change,16,0,14,,,,,,,,,13,11,50,,,
204778,control_change,17,0,15,,,,,,,,,14,11,49,,,
204780,note_on,16,0,11,,,,,,,,,10,,,,64,0
204781,control_change,1,0,11,,,,,,,,,10,11,47,,,
204783,note_on,16,0,12,,,,,,,,,11,,,,64,0
204784,control_change,1,0,12,,,,,,,,,11,11,47,,,
204784,control_change,16,0,13,,,,,,,,,12,11,48,,,
204788,control_change,16,0,14,,,,,,,,,13,11,48,,,
204788,note_on,4,0,13,,,,,,,,,12,,,,52,0
204792,note_on,4,0,14,,,,,,,,,13,,,,52,0
204794,note_on,16,0,15,,,,,,,,,14,,,,40,0
204795,control_change,1,0,15,,,,,,,,,14,11,47,,,
204798,control_change,17,0,11,,,,,,,,,10,11,45,,,
204800,control_change,12,0,13,,,,,,,,,12,11,46,,,
204801,control_change,17,0,12,,,,,,,,,11,11,45,,,
204804,control_change,12,0,14,,,,,,,,,13,11,46,,,
204812,control_change,17,0,15,,,,,,,,,14,11,45,,,
204814,control_change,16,0,11,,,,,,,,,10,11,43,,,
204816,control_change,16,0,13,,,,,,,,,12,11,44,,,
204817,control_change,16,0,12,,,,,,,,,11,11,43,,,
204820,control_change,16,0,14,,,,,,,,,13,11,44,,,
204828,control_change,16,0,15,,,,,,,,,14,11,43,,,
204831,control_change,17,0,11,,,,,,,,,10,11,42,,,
204832,control_change,16,0,13,,,,,,,,,12,11,42,,,
204834,control_change,17,0,12,,,,,,,,,11,11,42,,,
204836,control_change,16,0,14,,,,,,,,,13,11,42,,,
204840,note_on,9,0,11,,,,,,,,,10,,,,57,115
204840,set_tempo,120,1,0,,,,,,291262,,,,,,,,
204843,note_on,9,0,12,,,,,,,,,11,,,,57,115
204844,control_change,0,0,2,,,,,,,,,1,11,47,,,
204844,note_on,0,0,2,,,,,,,,,1,,,,73,100
204844,note_on,240,0,2,,,,,,,,,1,,,,69,100
204845,control_change,17,0,15,,,,,,,,,14,11,42,,,
204848,control_change,16,0,13,,,,,,,,,12,11,41,,,
204848,note_on,0,0,13,,,,,,,,,12,,,,57,112
204849,note_on,0,0,4,,,,,,,,,3,,,,64,100
204849,control_change,240,0,4,,,,,,,,,3,11,47,,,
204852,control_change,0,0,14,,,,,,,,,13,11,41,,,
204852,note_on,16,0,14,,,,,,,,,13,,,,45,112
204854,note_on,9,0,15,,,,,,,,,14,,,,33,127
204880,control_change,36,0,2,,,,,,,,,1,11,48,,,
204885,control_change,36,0,4,,,,,,,,,3,11,48,,,
204908,note_on,60,0,13,,,,,,,,,12,,,,57,0
204912,note_on,60,0,14,,,,,,,,,13,,,,45,0
204916,control_change,36,0,2,,,,,,,,,1,11,49,,,
204921,control_change,36,0,4,,,,,,,,,3,11,49,,,
204952,control_change,36,0,2,,,,,,,,,1,11,50,,,
204957,control_change,36,0,4,,,,,,,,,3,11,50,,,
204960,set_tempo,120,1,0,,,,,,307692,,,,,,,,
204968,note_on,60,0,13,,,,,,,,,12,,,,52,112
204972,note_on,60,0,14,,,,,,,,,13,,,,49,112
204988,control_change,36,0,2,,,,,,,,,1,11,51,,,
204992,note_on,4,0,2,,,,,,,,,1,,,,73,0
204992,note_on,0,0,2,,,,,,,,,1,,,,69,0
204993,control_change,36,0,4,,,,,,,,,3,11,51,,,
204997,note_on,4,0,4,,,,,,,,,3,,,,64,0
205024,note_on,32,0,2,,,,,,,,,1,,,,69,100
205024,note_on,0,0,2,,,,,,,,,1,,,,73,100
205024,control_change,0,0,2,,,,,,,,,1,11,52,,,
205028,note_on,60,0,13,,,,,,,,,12,,,,52,0
205029,control_change,0,0,4,,,,,,,,,3,11,52,,,
205029,note_on,32,0,4,,,,,,,,,3,,,,64,100
205032,note_on,60,0,14,,,,,,,,,13,,,,49,0
205060,control_change,36,0,2,,,,,,,,,1,11,52,,,
205065,control_change,36,0,4,,,,,,,,,3,11,53,,,
205073,note_on,0,0,2,,,,,,,,,1,,,,69,0
205073,note_on,13,0,2,,,,,,,,,1,,,,73,0
205078,note_on,13,0,4,,,,,,,,,3,,,,64,0
205080,note_on,240,0,11,,,,,,,,,10,,,,57,0
205080,set_tempo,120,1,0,,,,,,330579,,,,,,,,
205083,note_on,240,0,12,,,,,,,,,11,,,,57,0
205084,note_on,11,0,2,,,,,,,,,1,,,,73,100
205084,note_on,0,0,2,,,,,,,,,1,,,,69,100
205088,note_on,60,0,13,,,,,,,,,12,,,,57,112
205089,note_on,11,0,4,,,,,,,,,3,,,,64,100
205092,note_on,60,0,14,,,,,,,,,13,,,,52,112
205094,note_on,240,0,15,,,,,,,,,14,,,,33,0
205096,control_change,12,0,2,,,,,,,,,1,11,53,,,
205101,control_change,12,0,4,,,,,,,,,3,11,54,,,
205132,control_change,36,0,2,,,,,,,,,1,11,54,,,
205137,control_change,36,0,4,,,,,,,,,3,11,55,,,
205148,note_on,60,0,13,,,,,,,,,12,,,,57,0
205152,note_on,60,0,14,,,,,,,,,13,,,,52,0
205168,control_change,36,0,2,,,,,,,,,1,11,55,,,
205173,control_change,36,0,4,,,,,,,,,3,11,56,,,
205182,note_on,14,0,2,,,,,,,,,1,,,,69,0
205182,note_on,0,0,2,,,,,,,,,1,,,,73,0
205187,note_on,14,0,4,,,,,,,,,3,,,,64,0
205200,note_on,120,0,11,,,,,,,,,10,,,,64,102
205200,set_tempo,120,1,0,,,,,,291262,,,,,,,,
205203,note_on,120,0,12,,,,,,,,,11,,,,61,102
205204,control_change,0,0,2,,,,,,,,,1,11,55,,,
205204,note_on,0,0,2,,,,,,,,,1,,,,73,100
205204,note_on,22,0,2,,,,,,,,,1,,,,69,100
205208,note_on,60,0,13,,,,,,,,,12,,,,61,127
205209,note_on,0,0,4,,,,,,,,,3,,,,64,100
205209,control_change,22,0,4,,,,,,,,,3,11,57,,,
205212,note_on,60,0,14,,,,,,,,,13,,,,57,127
205240,control_change,36,0,2,,,,,,,,,1,11,56,,,
205245,control_change,36,0,4,,,,,,,,,3,11,58,,,
205260,note_on,60,0,11,,,,,,,,,10,,,,64,0
205263,note_on,60,0,12,,,,,,,,,11,,,,61,0
205276,control_change,36,0,2,,,,,,,,,1,11,57,,,
205281,control_change,36,0,4,,,,,,,,,3,11,59,,,
205302,note_on,0,0,2,,,,,,,,,1,,,,69,0
205302,note_on,26,0,2,,,,,,,,,1,,,,73,0
205307,note_on,26,0,4,,,,,,,,,3,,,,64,0
205312,control_change,10,0,2,,,,,,,,,1,11,58,,,
205317,control_change,10,0,4,,,,,,,,,3,11,60,,,
205320,note_on,60,0,11,,,,,,,,,10,,,,69,102
205320,set_tempo,120,1,0,,,,,,307692,,,,,,,,
205323,note_on,60,0,12,,,,,,,,,11,,,,64,102
205324,note_on,12,0,2,,,,,,,,,1,,,,69,100
205324,note_on,0,0,2,,,,,,,,,1,,,,73,100
205329,note_on,12,0,4,,,,,,,,,3,,,,64,100
205348,control_change,24,0,2,,,,,,,,,1,11,58,,,
205353,control_change,24,0,4,,,,,,,,,3,11,61,,,
205380,note_on,60,0,11,,,,,,,,,10,,,,69,0
205383,note_on,60,0,12,,,,,,,,,11,,,,64,0
205384,control_change,36,0,2,,,,,,,,,1,11,59,,,
205389,control_change,36,0,4,,,,,,,,,3,11,62,,,
205394,note_on,300,0,15,,,,,,,,,14,,,,33,112
205420,control_change,36,0,2,,,,,,,,,1,11,60,,,
205422,note_on,0,0,2,,,,,,,,,1,,,,69,0
205422,note_on,2,0,2,,,,,,,,,1,,,,73,0
205425,control_change,36,0,4,,,,,,,,,3,11,63,,,
205427,note_on,2,0,4,,,,,,,,,3,,,,64,0
205440,note_on,60,0,11,,,,,,,,,10,,,,73,102
205440,set_tempo,120,1,0,,,,,,330579,,,,,,,,
205443,note_on,60,0,12,,,,,,,,,11,,,,69,102
205444,note_on,22,0,2,,,,,,,,,1,,,,73,100
205444,note_on,0,0,2,,,,,,,,,1,,,,69,100
205448,note_on,240,0,13,,,,,,,,,12,,,,61,0
205449,note_on,22,0,4,,,,,,,,,3,,,,64,100
205452,note_on,240,0,14,,,,,,,,,13,,,,57,0
205454,note_on,0,0,15,,,,,,,,,14,,,,33,112
205454,note_on,60,0,15,,,,,,,,,14,,,,33,0
205456,control_change,12,0,2,,,,,,,,,1,11,61,,,
205461,control_change,12,0,4,,,,,,,,,3,11,64,,,
205492,control_change,36,0,2,,,,,,,,,1,11,61,,,
205497,control_change,36,0,4,,,,,,,,,3,11,65,,,
205500,note_on,60,0,11,,,,,,,,,10,,,,73,0
205503,note_on,60,0,12,,,,,,,,,11,,,,69,0
205528,control_change,36,0,2,,,,,,,,,1,11,62,,,
205533,control_change,36,0,4,,,,,,,,,3,11,66,,,
205542,note_on,14,0,2,,,,,,,,,1,,,,69,0
205542,note_on,0,0,2,,,,,,,,,1,,,,73,0
205547,note_on,14,0,4,,,,,,,,,3,,,,64,0
205560,note_on,0,0,11,,,,,,,,,10,,,,76,115
205560,note_on,60,0,11,,,,,,,,,10,,,,73,115
205560,set_tempo,120,1,0,,,,,,291262,,,,,,,,
205561,control_change,0,0,1,,,,,,,,,0,11,55,,,
205561,note_on,960,0,1,,,,,,,,,0,,,,76,116
205563,note_on,60,0,12,,,,,,,,,11,,,,68,115
205563,control_change,0,0,5,,,,,,,,,4,11,67,,,
205563,note_on,960,0,5,,,,,,,,,4,,,,64,115
205564,note_on,0,0,2,,,,,,,,,1,,,,76,115
205564,note_on,22,0,2,,,,,,,,,1,,,,68,115
205564,control_change,0,0,2,,,,,,,,,1,11,63,,,
205565,note_on,0,0,3,,,,,,,,,2,,,,73,116
205565,control_change,960,0,3,,,,,,,,,2,11,63,,,
205565,note_on,0,0,3,,,,,,,,,2,,,,68,116
205569,note_on,22,0,4,,,,,,,,,3,,,,64,115
205569,control_change,0,0,4,,,,,,,,,3,11,67,,,
205572,note_on,120,0,14,,,,,,,,,13,,,,49,112
205574,note_on,0,0,15,,,,,,,,,14,,,,37,127
205574,note_on,120,0,15,,,,,,,,,14,,,,33,0
205582,control_change,18,0,2,,,,,,,,,1,11,62,,,
205583,control_change,18,0,3,,,,,,,,,2,11,62,,,
205587,control_change,18,0,4,,,,,,,,,3,11,66,,,
205600,control_change,18,0,2,,,,,,,,,1,11,61,,,
205601,control_change,18,0,3,,,,,,,,,2,11,61,,,
205605,control_change,18,0,4,,,,,,,,,3,11,65,,,
205618,control_change,18,0,2,,,,,,,,,1,11,61,,,
205619,control_change,18,0,3,,,,,,,,,2,11,61,,,
205623,control_change,18,0,4,,,,,,,,,3,11,64,,,
205632,note_on,60,0,14,,,,,,,,,13,,,,49,0
205636,control_change,18,0,2,,,,,,,,,1,11,60,,,
205637,control_change,18,0,3,,,,,,,,,2,11,60,,,
205641,control_change,18,0,4,,,,,,,,,3,11,63,,,
205654,control_change,18,0,2,,,,,,,,,1,11,59,,,
205655,control_change,18,0,3,,,,,,,,,2,11,59,,,
205659,control_change,18,0,4,,,,,,,,,3,11,62,,,
205672,control_change,18,0,2,,,,,,,,,1,11,58,,,
205673,control_change,18,0,3,,,,,,,,,2,11,58,,,
205677,control_change,18,0,4,,,,,,,,,3,11,61,,,
205680,set_tempo,120,1,0,,,,,,307692,,,,,,,,
205688,note_on,240,0,13,,,,,,,,,12,,,,56,112
205690,control_change,18,0,2,,,,,,,,,1,11,58,,,
205691,control_change,18,0,3,,,,,,,,,2,11,58,,,
205692,note_on,60,0,14,,,,,,,,,13,,,,52,112
205695,control_change,18,0,4,,,,,,,,,3,11,60,,,
205708,control_change,18,0,2,,,,,,,,,1,11,57,,,
205709,control_change,18,0,3,,,,,,,,,2,11,57,,,
205713,control_change,18,0,4,,,,,,,,,3,11,59,,,
205726,control_change,18,0,2,,,,,,,,,1,11,56,,,
205727,control_change,18,0,3,,,,,,,,,2,11,56,,,
205731,control_change,18,0,4,,,,,,,,,3,11,58,,,
205744,control_change,18,0,2,,,,,,,,,1,11,55,,,
205745,control_change,18,0,3,,,,,,,,,2,11,55,,,
205748,note_on,60,0,13,,,,,,,,,12,,,,56,0
205749,control_change,18,0,4,,,,,,,,,3,11,57,,,
205752,note_on,60,0,14,,,,,,,,,13,,,,52,0
205762,control_change,18,0,2,,,,,,,,,1,11,55,,,
205763,control_change,18,0,3,,,,,,,,,2,11,55,,,
205767,control_change,18,0,4,,,,,,,,,3,11,56,,,
205780,control_change,18,0,2,,,,,,,,,1,11,54,,,
205781,control_change,18,0,3,,,,,,,,,2,11,54,,,
205785,control_change,18,0,4,,,,,,,,,3,11,55,,,
205798,control_change,18,0,2,,,,,,,,,1,11,53,,,
205799,control_change,18,0,3,,,,,,,,,2,11,53,,,
205800,set_tempo,120,1,0,,,,,,330579,,,,,,,,
205800,note_on,0,0,11,,,,,,,,,10,,,,73,0
205800,note_on,240,0,11,,,,,,,,,10,,,,76,0
205803,control_change,18,0,4,,,,,,,,,3,11,54,,,
205803,note_on,240,0,12,,,,,,,,,11,,,,68,0
205808,note_on,60,0,13,,,,,,,,,12,,,,61,112
205812,note_on,60,0,14,,,,,,,,,13,,,,56,112
205814,note_on,240,0,15,,,,,,,,,14,,,,37,0
205816,control_change,18,0,2,,,,,,,,,1,11,52,,,
205817,control_change,18,0,3,,,,,,,,,2,11,52,,,
205821,control_change,18,0,4,,,,,,,,,3,11,53,,,
205834,control_change,18,0,2,,,,,,,,,1,11,52,,,
205835,control_change,18,0,3,,,,,,,,,2,11,52,,,
205839,control_change,18,0,4,,,,,,,,,3,11,52,,,
205852,control_change,18,0,2,,,,,,,,,1,11,51,,,
205853,control_change,18,0,3,,,,,,,,,2,11,51,,,
205857,control_change,18,0,4,,,,,,,,,3,11,51,,,
205868,note_on,60,0,13,,,,,,,,,12,,,,61,0
205870,control_change,18,0,2,,,,,,,,,1,11,50,,,
205871,control_change,18,0,3,,,,,,,,,2,11,50,,,
205872,note_on,60,0,14,,,,,,,,,13,,,,56,0
205875,control_change,18,0,4,,,,,,,,,3,11,50,,,
205888,control_change,18,0,2,,,,,,,,,1,11,49,,,
205889,control_change,18,0,3,,,,,,,,,2,11,49,,,
205893,control_change,18,0,4,,,,,,,,,3,11,49,,,
205906,control_change,18,0,2,,,,,,,,,1,11,48,,,
205907,control_change,18,0,3,,,,,,,,,2,11,48,,,
205911,control_change,18,0,4,,,,,,,,,3,11,48,,,
205920,set_tempo,120,1,0,,,,,,291262,,,,,,,,
205920,note_on,120,0,11,,,,,,,,,10,,,,61,102
205921,note_on,0,0,1,,,,,,,,,0,,,,73,101
205921,note_on,360,0,1,,,,,,,,,0,,,,76,0
205923,note_on,120,0,12,,,,,,,,,11,,,,56,102
205924,note_on,18,0,2,,,,,,,,,1,,,,76,0
205924,control_change,0,0,2,,,,,,,,,1,11,47,,,
205924,note_on,0,0,2,,,,,,,,,1,,,,73,100
205925,control_change,0,0,3,,,,,,,,,2,11,47,,,
205925,note_on,18,0,3,,,,,,,,,2,,,,68,0
205925,note_on,0,0,3,,,,,,,,,2,,,,64,101
205928,note_on,60,0,13,,,,,,,,,12,,,,64,127
205929,control_change,18,0,4,,,,,,,,,3,11,47,,,
205932,note_on,60,0,14,,,,,,,,,13,,,,61,127
205980,note_on,60,0,11,,,,,,,,,10,,,,61,0
205983,note_on,60,0,12,,,,,,,,,11,,,,56,0
206040,note_on,60,0,11,,,,,,,,,10,,,,64,102
206040,set_tempo,120,1,0,,,,,,307692,,,,,,,,
206041,note_on,120,0,1,,,,,,,,,0,,,,73,0
206043,note_on,480,0,5,,,,,,,,,4,,,,64,0
206043,note_on,60,0,12,,,,,,,,,11,,,,61,102
206044,note_on,120,0,2,,,,,,,,,1,,,,73,0
206044,note_on,0,0,2,,,,,,,,,1,,,,68,0
206045,note_on,0,0,3,,,,,,,,,2,,,,73,0
206045,note_on,120,0,3,,,,,,,,,2,,,,64,0
206049,note_on,120,0,4,,,,,,,,,3,,,,64,0
206100,note_on,60,0,11,,,,,,,,,10,,,,64,0
206103,note_on,60,0,12,,,,,,,,,11,,,,61,0
206114,note_on,300,0,15,,,,,,,,,14,,,,37,112
206160,set_tempo,120,1,0,,,,,,330579,,,,,,,,
206160,note_on,60,0,11,,,,,,,,,10,,,,68,102
206163,note_on,60,0,12,,,,,,,,,11,,,,64,102
206168,note_on,240,0,13,,,,,,,,,12,,,,64,0
206172,note_on,240,0,14,,,,,,,,,13,,,,61,0
206174,note_on,0,0,15,,,,,,,,,14,,,,37,112
206174,note_on,60,0,15,,,,,,,,,14,,,,37,0
206220,note_on,60,0,11,,,,,,,,,10,,,,68,0
206223,note_on,60,0,12,,,,,,,,,11,,,,64,0
206280,set_tempo,120,1,0,,,,,,291262,,,,,,,,
206280,note_on,60,0,11,,,,,,,,,10,,,,64,115
206280,note_on,0,0,11,,,,,,,,,10,,,,73,115
206283,note_on,60,0,12,,,,,,,,,11,,,,61,115
206283,note_on,0,0,12,,,,,,,,,11,,,,69,115
206284,note_on,0,0,2,,,,,,,,,1,,,,73,100
206284,control_change,0,0,2,,,,,,,,,1,11,47,,,
206284,note_on,240,0,2,,,,,,,,,1,,,,69,100
206289,control_change,0,0,4,,,,,,,,,3,11,47,,,
206289,note_on,240,0,4,,,,,,,,,3,,,,64,100
206292,note_on,120,0,14,,,,,,,,,13,,,,45,112
206294,note_on,0,0,15,,,,,,,,,14,,,,33,127
206294,note_on,120,0,15,,,,,,,,,14,,,,37,0
206320,control_change,36,0,2,,,,,,,,,1,11,48,,,
206325,control_change,36,0,4,,,,,,,,,3,11,48,,,
206352,note_on,60,0,14,,,,,,,,,13,,,,45,0
206356,control_change,36,0,2,,,,,,,,,1,11,49,,,
206361,control_change,36,0,4,,,,,,,,,3,11,49,,,
206392,control_change,36,0,2,,,,,,,,,1,11,50,,,
206397,control_change,36,0,4,,,,,,,,,3,11,50,,,
206400,set_tempo,120,1,0,,,,,,307692,,,,,,,,
206408,note_on,240,0,13,,,,,,,,,12,,,,52,112
206412,note_on,60,0,14,,,,,,,,,13,,,,49,112
206428,control_change,36,0,2,,,,,,,,,1,11,51,,,
206432,note_on,4,0,2,,,,,,,,,1,,,,73,0
206432,note_on,0,0,2,,,,,,,,,1,,,,69,0
206433,control_change,36,0,4,,,,,,,,,3,11,51,,,
206437,note_on,4,0,4,,,,,,,,,3,,,,64,0
206464,note_on,0,0,2,,,,,,,,,1,,,,73,100
206464,control_change,32,0,2,,,,,,,,,1,11,52,,,
206464,note_on,0,0,2,,,,,,,,,1,,,,69,100
206468,note_on,60,0,13,,,,,,,,,12,,,,52,0
206469,note_on,32,0,4,,,,,,,,,3,,,,64,100
206469,control_change,0,0,4,,,,,,,,,3,11,52,,,
206472,note_on,60,0,14,,,,,,,,,13,,,,49,0
206500,control_change,36,0,2,,,,,,,,,1,11,52,,,
206505,control_change,36,0,4,,,,,,,,,3,11,53,,,
206513,note_on,13,0,2,,,,,,,,,1,,,,73,0
206513,note_on,0,0,2,,,,,,,,,1,,,,69,0
206518,note_on,13,0,4,,,,,,,,,3,,,,64,0
206520,set_tempo,120,1,0,,,,,,330579,,,,,,,,
206520,note_on,0,0,11,,,,,,,,,10,,,,64,0
206520,note_on,240,0,11,,,,,,,,,10,,,,73,0
206523,note_on,240,0,12,,,,,,,,,11,,,,69,0
206523,note_on,0,0,12,,,,,,,,,11,,,,61,0
206524,note_on,0,0,2,,,,,,,,,1,,,,73,100
206524,note_on,11,0,2,,,,,,,,,1,,,,69,100
206528,note_on,60,0,13,,,,,,,,,12,,,,57,112
206529,note_on,11,0,4,,,,,,,,,3,,,,64,100
206532,note_on,60,0,14,,,,,,,,,13,,,,52,112
206534,note_on,240,0,15,,,,,,,,,14,,,,33,0
206536,control_change,12,0,2,,,,,,,,,1,11,53,,,
206541,control_change,12,0,4,,,,,,,,,3,11,54,,,
206572,control_change,36,0,2,,,,,,,,,1,11,54,,,
206577,control_change,36,0,4,,,,,,,,,3,11,55,,,
206588,note_on,60,0,13,,,,,,,,,12,,,,57,0
206592,note_on,60,0,14,,,,,,,,,13,,,,52,0
206608,control_change,36,0,2,,,,,,,,,1,11,55,,,
206613,control_change,36,0,4,,,,,,,,,3,11,56,,,
206622,note_on,14,0,2,,,,,,,,,1,,,,73,0
206622,note_on,0,0,2,,,,,,,,,1,,,,69,0
206627,note_on,14,0,4,,,,,,,,,3,,,,64,0
206640,note_on,120,0,11,,,,,,,,,10,,,,64,102
206640,set_tempo,120,1,0,,,,,,291262,,,,,,,,
206643,note_on,120,0,12,,,,,,,,,11,,,,61,102
206644,note_on,22,0,2,,,,,,,,,1,,,,73,100
206644,control_change,0,0,2,,,,,,,,,1,11,55,,,
206644,note_on,0,0,2,,,,,,,,,1,,,,69,100
206648,note_on,60,0,13,,,,,,,,,12,,,,61,127
206649,note_on,22,0,4,,,,,,,,,3,,,,64,100
206649,control_change,0,0,4,,,,,,,,,3,11,57,,,
206652,note_on,60,0,14,,,,,,,,,13,,,,57,127
206680,control_change,36,0,2,,,,,,,,,1,11,56,,,
206685,control_change,36,0,4,,,,,,,,,3,11,58,,,
206700,note_on,60,0,11,,,,,,,,,10,,,,64,0
206703,note_on,60,0,12,,,,,,,,,11,,,,61,0
206716,control_change,36,0,2,,,,,,,,,1,11,57,,,
206721,control_change,36,0,4,,,,,,,,,3,11,59,,,
206742,note_on,0,0,2,,,,,,,,,1,,,,73,0
206742,note_on,26,0,2,,,,,,,,,1,,,,69,0
206747,note_on,26,0,4,,,,,,,,,3,,,,64,0
206752,control_change,10,0,2,,,,,,,,,1,11,58,,,
206757,control_change,10,0,4,,,,,,,,,3,11,60,,,
206760,note_on,60,0,11,,,,,,,,,10,,,,69,102
206760,set_tempo,120,1,0,,,,,,307692,,,,,,,,
206763,note_on,60,0,12,,,,,,,,,11,,,,64,102
206764,note_on,12,0,2,,,,,,,,,1,,,,73,100
206764,note_on,0,0,2,,,,,,,,,1,,,,69,100
206769,note_on,12,0,4,,,,,,,,,3,,,,64,100
206788,control_change,24,0,2,,,,,,,,,1,11,58,,,
206793,control_change,24,0,4,,,,,,,,,3,11,61,,,
206820,note_on,60,0,11,,,,,,,,,10,,,,69,0
206823,note_on,60,0,12,,,,,,,,,11,,,,64,0
206824,control_change,36,0,2,,,,,,,,,1,11,59,,,
206829,control_change,36,0,4,,,,,,,,,3,11,62,,,
206834,note_on,300,0,15,,,,,,,,,14,,,,33,112
206860,control_change,36,0,2,,,,,,,,,1,11,60,,,
206862,note_on,2,0,2,,,,,,,,,1,,,,69,0
206862,note_on,0,0,2,,,,,,,,,1,,,,73,0
206865,control_change,36,0,4,,,,,,,,,3,11,63,,,
206867,note_on,2,0,4,,,,,,,,,3,,,,64,0
206880,set_tempo,120,1,0,,,,,,330579,,,,,,,,
206880,note_on,60,0,11,,,,,,,,,10,,,,73,102
206883,note_on,60,0,12,,,,,,,,,11,,,,69,102
206884,note_on,22,0,2,,,,,,,,,1,,,,73,100
206884,note_on,0,0,2,,,,,,,,,1,,,,69,100
206888,note_on,240,0,13,,,,,,,,,12,,,,61,0
206889,note_on,22,0,4,,,,,,,,,3,,,,64,100
206892,note_on,240,0,14,,,,,,,,,13,,,,57,0
206894,note_on,60,0,15,,,,,,,,,14,,,,33,0
206894,note_on,0,0,15,,,,,,,,,14,,,,33,112
206896,control_change,12,0,2,,,,,,,,,1,11,61,,,
206901,control_change,12,0,4,,,,,,,,,3,11,64,,,
206932,control_change,36,0,2,,,,,,,,,1,11,61,,,
206937,control_change,36,0,4,,,,,,,,,3,11,65,,,
206940,note_on,60,0,11,,,,,,,,,10,,,,73,0
206943,note_on,60,0,12,,,,,,,,,11,,,,69,0
206968,control_change,36,0,2,,,,,,,,,1,11,62,,,
206973,control_change,36,0,4,,,,,,,,,3,11,66,,,
206982,note_on,14,0,2,,,,,,,,,1,,,,69,0
206982,note_on,0,0,2,,,,,,,,,1,,,,73,0
206987,note_on,14,0,4,,,,,,,,,3,,,,64,0
207000,note_on,60,0,11,,,,,,,,,10,,,,73,115
207000,set_tempo,120,1,0,,,,,,291262,,,,,,,,
207000,note_on,0,0,11,,,,,,,,,10,,,,76,115
207001,note_on,960,0,1,,,,,,,,,0,,,,76,116
207003,note_on,60,0,12,,,,,,,,,11,,,,68,115
207003,note_on,960,0,5,,,,,,,,,4,,,,64,115
207004,control_change,0,0,2,,,,,,,,,1,11,63,,,
207004,note_on,22,0,2,,,,,,,,,1,,,,76,115
207004,note_on,0,0,2,,,,,,,,,1,,,,68,115
207005,note_on,0,0,3,,,,,,,,,2,,,,68,116
207005,note_on,960,0,3,,,,,,,,,2,,,,73,116
207005,control_change,0,0,3,,,,,,,,,2,11,63,,,
207009,control_change,22,0,4,,,,,,,,,3,11,67,,,
207009,note_on,0,0,4,,,,,,,,,3,,,,64,115
207012,note_on,120,0,14,,,,,,,,,13,,,,49,112
207014,note_on,0,0,15,,,,,,,,,14,,,,37,127
207014,note_on,120,0,15,,,,,,,,,14,,,,33,0
207021,control_change,17,0,2,,,,,,,,,1,11,62,,,
207022,control_change,17,0,3,,,,,,,,,2,11,62,,,
207026,control_change,17,0,4,,,,,,,,,3,11,66,,,
207039,control_change,18,0,2,,,,,,,,,1,11,61,,,
207040,control_change,18,0,3,,,,,,,,,2,11,61,,,
207044,control_change,18,0,4,,,,,,,,,3,11,65,,,
207057,control_change,18,0,2,,,,,,,,,1,11,61,,,
207058,control_change,18,0,3,,,,,,,,,2,11,61,,,
207062,control_change,18,0,4,,,,,,,,,3,11,64,,,
207072,note_on,60,0,14,,,,,,,,,13,,,,49,0
207075,control_change,18,0,2,,,,,,,,,1,11,60,,,
207076,control_change,18,0,3,,,,,,,,,2,11,60,,,
207080,control_change,18,0,4,,,,,,,,,3,11,63,,,
207093,control_change,18,0,2,,,,,,,,,1,11,59,,,
207094,control_change,18,0,3,,,,,,,,,2,11,59,,,
207098,control_change,18,0,4,,,,,,,,,3,11,62,,,
207111,control_change,18,0,2,,,,,,,,,1,11,58,,,
207112,control_change,18,0,3,,,,,,,,,2,11,58,,,
207116,control_change,18,0,4,,,,,,,,,3,11,61,,,
207120,set_tempo,120,1,0,,,,,,307692,,,,,,,,
207128,note_on,240,0,13,,,,,,,,,12,,,,56,112
207129,control_change,18,0,2,,,,,,,,,1,11,58,,,
207130,control_change,18,0,3,,,,,,,,,2,11,58,,,
207132,note_on,60,0,14,,,,,,,,,13,,,,52,112
207134,control_change,18,0,4,,,,,,,,,3,11,60,,,
207147,control_change,18,0,2,,,,,,,,,1,11,57,,,
207148,control_change,18,0,3,,,,,,,,,2,11,57,,,
207152,control_change,18,0,4,,,,,,,,,3,11,59,,,
207165,control_change,18,0,2,,,,,,,,,1,11,56,,,
207166,control_change,18,0,3,,,,,,,,,2,11,56,,,
207170,control_change,18,0,4,,,,,,,,,3,11,58,,,
207181,note_on,180,0,1,,,,,,,,,0,,,,76,0
207181,note_on,0,0,1,,,,,,,,,0,,,,78,101
207183,control_change,18,0,2,,,,,,,,,1,11,55,,,
207184,note_on,0,0,2,,,,,,,,,1,,,,78,100
207184,note_on,1,0,2,,,,,,,,,1,,,,76,0
207184,control_change,18,0,3,,,,,,,,,2,11,55,,,
207188,note_on,60,0,13,,,,,,,,,12,,,,56,0
207188,control_change,18,0,4,,,,,,,,,3,11,57,,,
207192,note_on,60,0,14,,,,,,,,,13,,,,52,0
207201,control_change,17,0,2,,,,,,,,,1,11,55,,,
207202,control_change,18,0,3,,,,,,,,,2,11,55,,,
207206,control_change,18,0,4,,,,,,,,,3,11,56,,,
207219,control_change,18,0,2,,,,,,,,,1,11,54,,,
207220,control_change,18,0,3,,,,,,,,,2,11,54,,,
207224,control_change,18,0,4,,,,,,,,,3,11,55,,,
207237,control_change,18,0,2,,,,,,,,,1,11,53,,,
207238,control_change,18,0,3,,,,,,,,,2,11,53,,,
207240,note_on,240,0,11,,,,,,,,,10,,,,76,0
207240,note_on,0,0,11,,,,,,,,,10,,,,73,0
207240,set_tempo,120,1,0,,,,,,330579,,,,,,,,
207241,note_on,60,0,1,,,,,,,,,0,,,,78,0
207241,note_on,0,0,1,,,,,,,,,0,,,,76,101
207242,control_change,18,0,4,,,,,,,,,3,11,54,,,
207243,note_on,240,0,12,,,,,,,,,11,,,,68,0
207244,note_on,7,0,2,,,,,,,,,1,,,,78,0
207244,note_on,0,0,2,,,,,,,,,1,,,,76,100
207248,note_on,60,0,13,,,,,,,,,12,,,,61,112
207252,note_on,60,0,14,,,,,,,,,13,,,,56,112
207254,note_on,240,0,15,,,,,,,,,14,,,,37,0
207255,control_change,11,0,2,,,,,,,,,1,11,52,,,
207256,control_change,18,0,3,,,,,,,,,2,11,52,,,
207260,control_change,18,0,4,,,,,,,,,3,11,53,,,
207273,control_change,18,0,2,,,,,,,,,1,11,52,,,
207274,control_change,18,0,3,,,,,,,,,2,11,52,,,
207278,control_change,18,0,4,,,,,,,,,3,11,52,,,
207291,control_change,18,0,2,,,,,,,,,1,11,51,,,
207292,control_change,18,0,3,,,,,,,,,2,11,51,,,
207296,control_change,18,0,4,,,,,,,,,3,11,51,,,
207301,note_on,60,0,1,,,,,,,,,0,,,,76,0
207301,note_on,0,0,1,,,,,,,,,0,,,,74,101
207304,note_on,13,0,2,,,,,,,,,1,,,,76,0
207304,note_on,0,0,2,,,,,,,,,1,,,,74,100
207308,note_on,60,0,13,,,,,,,,,12,,,,61,0
207309,control_change,5,0,2,,,,,,,,,1,11,50,,,
207310,control_change,18,0,3,,,,,,,,,2,11,50,,,
207312,note_on,60,0,14,,,,,,,,,13,,,,56,0
207314,control_change,18,0,4,,,,,,,,,3,11,50,,,
207327,control_change,18,0,2,,,,,,,,,1,11,49,,,
207328,control_change,18,0,3,,,,,,,,,2,11,49,,,
207332,control_change,18,0,4,,,,,,,,,3,11,49,,,
207345,control_change,18,0,2,,,,,,,,,1,11,48,,,
207346,control_change,18,0,3,,,,,,,,,2,11,48,,,
207350,control_change,18,0,4,,,,,,,,,3,11,48,,,
207360,note_on,120,0,11,,,,,,,,,10,,,,64,102
207360,set_tempo,120,1,0,,,,,,291262,,,,,,,,
207361,note_on,0,0,1,,,,,,,,,0,,,,73,101
207361,note_on,60,0,1,,,,,,,,,0,,,,74,0
207363,control_change,18,0,2,,,,,,,,,1,11,47,,,
207363,note_on,120,0,12,,,,,,,,,11,,,,61,102
207364,note_on,1,0,2,,,,,,,,,1,,,,74,0
207364,note_on,0,0,2,,,,,,,,,1,,,,73,100
207364,control_change,18,0,3,,,,,,,,,2,11,47,,,
207365,note_on,1,0,3,,,,,,,,,2,,,,68,0
207365,note_on,0,0,3,,,,,,,,,2,,,,64,101
207368,control_change,18,0,4,,,,,,,,,3,11,47,,,
207368,note_on,60,0,13,,,,,,,,,12,,,,64,127
207372,note_on,60,0,14,,,,,,,,,13,,,,61,127
207420,note_on,60,0,11,,,,,,,,,10,,,,64,0
207423,note_on,60,0,12,,,,,,,,,11,,,,61,0
207480,set_tempo,120,1,0,,,,,,307692,,,,,,,,
207480,note_on,60,0,11,,,,,,,,,10,,,,68,102
207481,note_on,120,0,1,,,,,,,,,0,,,,73,0
207483,note_on,60,0,12,,,,,,,,,11,,,,64,102
207483,note_on,480,0,5,,,,,,,,,4,,,,64,0
207484,note_on,120,0,2,,,,,,,,,1,,,,73,0
207484,note_on,0,0,2,,,,,,,,,1,,,,68,0
207485,note_on,120,0,3,,,,,,,,,2,,,,64,0
207485,note_on,0,0,3,,,,,,,,,2,,,,73,0
207489,note_on,121,0,4,,,,,,,,,3,,,,64,0
207540,note_on,60,0,11,,,,,,,,,10,,,,68,0
207543,note_on,60,0,12,,,,,,,,,11,,,,64,0
207554,note_on,300,0,15,,,,,,,,,14,,,,37,112
207600,note_on,60,0,11,,,,,,,,,10,,,,73,102
207600,set_tempo,120,1,0,,,,,,330579,,,,,,,,
207601,note_on,120,0,1,,,,,,,,,0,,,,76,101
207603,note_on,60,0,12,,,,,,,,,11,,,,68,102
207604,note_on,120,0,2,,,,,,,,,1,,,,76,100
207608,note_on,240,0,13,,,,,,,,,12,,,,64,0
207612,note_on,240,0,14,,,,,,,,,13,,,,61,0
207614,note_on,60,0,15,,,,,,,,,14,,,,37,0
207614,note_on,0,0,15,,,,,,,,,14,,,,37,112
207660,note_on,60,0,11,,,,,,,,,10,,,,73,0
207663,note_on,60,0,12,,,,,,,,,11,,,,68,0
207720,note_on,60,0,11,,,,,,,,,10,,,,75,102
207720,set_tempo,120,1,0,,,,,,294118,,,,,,,,
207721,note_on,0,0,1,,,,,,,,,0,,,,75,101
207721,note_on,120,0,1,,,,,,,,,0,,,,76,0
207723,note_on,60,0,12,,,,,,,,,11,,,,69,102
207724,note_on,120,0,2,,,,,,,,,1,,,,76,0
207724,note_on,0,0,2,,,,,,,,,1,,,,75,100
207724,note_on,0,0,2,,,,,,,,,1,,,,73,100
207725,note_on,240,0,3,,,,,,,,,2,,,,69,101
207728,note_on,120,0,13,,,,,,,,,12,,,,57,112
207732,note_on,120,0,14,,,,,,,,,13,,,,54,127
207734,note_on,0,0,15,,,,,,,,,14,,,,42,112
207734,note_on,120,0,15,,,,,,,,,14,,,,37,0
207788,note_on,60,0,13,,,,,,,,,12,,,,57,0
207792,note_on,60,0,14,,,,,,,,,13,,,,54,0
207840,set_tempo,120,1,0,,,,,,312500,,,,,,,,
207848,note_on,60,0,13,,,,,,,,,12,,,,63,112
207852,note_on,60,0,14,,,,,,,,,13,,,,57,112
207901,note_on,0,0,1,,,,,,,,,0,,,,76,101
207901,note_on,180,0,1,,,,,,,,,0,,,,75,0
207904,note_on,0,0,2,,,,,,,,,1,,,,76,100
207904,note_on,180,0,2,,,,,,,,,1,,,,75,0
207908,note_on,60,0,13,,,,,,,,,12,,,,63,0
207912,note_on,60,0,14,,,,,,,,,13,,,,57,0
207960,note_on,240,0,11,,,,,,,,,10,,,,75,0
207960,set_tempo,120,1,0,,,,,,330579,,,,,,,,
207961,note_on,60,0,1,,,,,,,,,0,,,,76,0
207961,note_on,0,0,1,,,,,,,,,0,,,,75,101
207963,note_on,240,0,12,,,,,,,,,11,,,,69,0
207964,note_on,0,0,2,,,,,,,,,1,,,,75,100
207964,note_on,60,0,2,,,,,,,,,1,,,,76,0
207968,note_on,60,0,13,,,,,,,,,12,,,,66,112
207972,note_on,60,0,14,,,,,,,,,13,,,,63,112
207974,note_on,240,0,15,,,,,,,,,14,,,,42,0
208028,note_on,60,0,13,,,,,,,,,12,,,,66,0
208032,note_on,60,0,14,,,,,,,,,13,,,,63,0
208080,note_on,120,0,11,,,,,,,,,10,,,,72,102
208080,set_tempo,120,1,0,,,,,,297767,,,,,,,,
208081,note_on,0,0,1,,,,,,,,,0,,,,78,101
208081,note_on,120,0,1,,,,,,,,,0,,,,75,0
208083,note_on,120,0,12,,,,,,,,,11,,,,66,102
208084,note_on,0,0,2,,,,,,,,,1,,,,78,100
208084,note_on,0,0,2,,,,,,,,,1,,,,72,100
208084,note_on,0,0,2,,,,,,,,,1,,,,73,0
208084,note_on,120,0,2,,,,,,,,,1,,,,75,0
208085,note_on,0,0,3,,,,,,,,,2,,,,68,101
208085,note_on,360,0,3,,,,,,,,,2,,,,69,0
208088,note_on,60,0,13,,,,,,,,,12,,,,56,112
208092,note_on,60,0,14,,,,,,,,,13,,,,54,112
208094,note_on,120,0,15,,,,,,,,,14,,,,44,112
208148,note_on,60,0,13,,,,,,,,,12,,,,56,0
208152,note_on,60,0,14,,,,,,,,,13,,,,54,0
208200,set_tempo,120,1,0,,,,,,315789,,,,,,,,
208201,note_on,120,0,1,,,,,,,,,0,,,,78,0
208201,note_on,0,0,1,,,,,,,,,0,,,,76,101
208204,note_on,0,0,2,,,,,,,,,1,,,,76,100
208204,note_on,120,0,2,,,,,,,,,1,,,,78,0
208208,note_on,60,0,13,,,,,,,,,12,,,,63,112
208212,note_on,60,0,14,,,,,,,,,13,,,,56,112
208268,note_on,60,0,13,,,,,,,,,12,,,,63,0
208272,note_on,60,0,14,,,,,,,,,13,,,,56,0
208320,note_on,240,0,11,,,,,,,,,10,,,,72,0
208320,set_tempo,120,1,0,,,,,,330579,,,,,,,,
208321,note_on,0,0,1,,,,,,,,,0,,,,75,101
208321,note_on,120,0,1,,,,,,,,,0,,,,76,0
208323,note_on,240,0,12,,,,,,,,,11,,,,66,0
208324,note_on,0,0,2,,,,,,,,,1,,,,75,100
208324,note_on,120,0,2,,,,,,,,,1,,,,76,0
208325,note_on,240,0,3,,,,,,,,,2,,,,66,101
208328,note_on,60,0,13,,,,,,,,,12,,,,66,112
208332,note_on,60,0,14,,,,,,,,,13,,,,63,112
208334,note_on,240,0,15,,,,,,,,,14,,,,44,0
208388,note_on,60,0,13,,,,,,,,,12,,,,66,0
208392,note_on,60,0,14,,,,,,,,,13,,,,63,0
208440,note_on,120,0,11,,,,,,,,,10,,,,73,102
208440,set_tempo,120,1,0,,,,,,303030,,,,,,,,
208441,note_on,120,0,1,,,,,,,,,0,,,,75,0
208441,note_on,0,0,1,,,,,,,,,0,,,,73,101
208443,note_on,120,0,12,,,,,,,,,11,,,,64,102
208444,note_on,0,0,2,,,,,,,,,1,,,,73,100
208444,note_on,120,0,2,,,,,,,,,1,,,,75,0
208444,note_on,0,0,2,,,,,,,,,1,,,,72,0
208445,note_on,0,0,3,,,,,,,,,2,,,,64,101
208445,note_on,0,0,3,,,,,,,,,2,,,,68,101
208445,note_on,0,0,3,,,,,,,,,2,,,,68,0
208445,note_on,120,0,3,,,,,,,,,2,,,,66,0
208448,note_on,60,0,13,,,,,,,,,12,,,,61,112
208448,note_on,0,0,13,,,,,,,,,12,,,,64,112
208452,note_on,60,0,14,,,,,,,,,13,,,,61,112
208454,note_on,120,0,15,,,,,,,,,14,,,,37,112
208500,note_on,60,0,11,,,,,,,,,10,,,,73,0
208503,note_on,60,0,12,,,,,,,,,11,,,,64,0
208512,note_on,60,0,14,,,,,,,,,13,,,,61,0
208560,set_tempo,120,1,0,,,,,,320000,,,,,,,,
208560,note_on,60,0,11,,,,,,,,,10,,,,68,102
208563,note_on,60,0,12,,,,,,,,,11,,,,68,102
208572,note_on,60,0,14,,,,,,,,,13,,,,56,112
208620,note_on,60,0,11,,,,,,,,,10,,,,68,0
208623,note_on,60,0,12,,,,,,,,,11,,,,68,0
208632,note_on,60,0,14,,,,,,,,,13,,,,56,0
208680,note_on,60,0,11,,,,,,,,,10,,,,64,102
208680,set_tempo,120,1,0,,,,,,330579,,,,,,,,
208683,note_on,60,0,12,,,,,,,,,11,,,,64,102
208692,note_on,60,0,14,,,,,,,,,13,,,,52,112
208694,note_on,240,0,15,,,,,,,,,14,,,,37,0
208740,note_on,60,0,11,,,,,,,,,10,,,,64,0
208743,note_on,60,0,12,,,,,,,,,11,,,,64,0
208752,note_on,60,0,14,,,,,,,,,13,,,,52,0
208800,set_tempo,120,1,0,,,,,,291262,,,,,,,,
208800,note_on,60,0,11,,,,,,,,,10,,,,61,102
208803,note_on,60,0,12,,,,,,,,,11,,,,56,102
208812,note_on,60,0,14,,,,,,,,,13,,,,49,112
208860,note_on,60,0,11,,,,,,,,,10,,,,61,0
208863,note_on,60,0,12,,,,,,,,,11,,,,56,0
208872,note_on,60,0,14,,,,,,,,,13,,,,49,0
208920,set_tempo,120,1,0,,,,,,315789,,,,,,,,
208920,note_on,0,0,11,,,,,,,,,10,,,,61,102
208920,control_change,60,0,11,,,,,,,,,10,11,64,,,
208921,note_on,480,0,1,,,,,,,,,0,,,,73,0
208923,control_change,60,0,12,,,,,,,,,11,11,64,,,
208923,note_on,0,0,12,,,,,,,,,11,,,,61,102
208924,note_on,480,0,2,,,,,,,,,1,,,,73,0
208925,note_on,0,0,3,,,,,,,,,2,,,,68,0
208925,note_on,480,0,3,,,,,,,,,2,,,,64,0
208928,note_on,0,0,13,,,,,,,,,12,,,,61,0
208928,note_on,480,0,13,,,,,,,,,12,,,,64,0
208928,control_change,0,0,13,,,,,,,,,12,11,64,,,
208928,note_on,0,0,13,,,,,,,,,12,,,,61,112
208932,note_on,60,0,14,,,,,,,,,13,,,,49,112
208932,control_change,0,0,14,,,,,,,,,13,11,64,,,
208934,note_on,0,0,15,,,,,,,,,14,,,,37,112
208934,control_change,240,0,15,,,,,,,,,14,11,83,,,
208980,note_on,60,0,11,,,,,,,,,10,,,,61,0
208983,note_on,60,0,12,,,,,,,,,11,,,,61,0
208988,note_on,60,0,13,,,,,,,,,12,,,,61,0
208992,note_on,60,0,14,,,,,,,,,13,,,,49,0
208994,note_on,60,0,15,,,,,,,,,14,,,,37,0
209040,note_on,60,0,11,,,,,,,,,10,,,,63,93
209040,set_tempo,120,1,0,,,,,,375000,,,,,,,,
209043,note_on,60,0,12,,,,,,,,,11,,,,63,93
209048,note_on,60,0,13,,,,,,,,,12,,,,63,112
209052,note_on,60,0,14,,,,,,,,,13,,,,51,112
209054,note_on,60,0,15,,,,,,,,,14,,,,39,112
209100,note_on,60,0,11,,,,,,,,,10,,,,63,0
209101,control_change,0,0,1,,,,,,,,,0,11,70,,,
209101,note_on,180,0,1,,,,,,,,,0,,,,86,101
209101,note_on,0,0,1,,,,,,,,,0,,,,83,101
209103,note_on,60,0,12,,,,,,,,,11,,,,63,0
209104,note_on,180,0,2,,,,,,,,,1,,,,71,100
209104,note_on,0,0,2,,,,,,,,,1,,,,74,100
209104,control_change,0,0,2,,,,,,,,,1,11,70,,,
209105,note_on,0,0,3,,,,,,,,,2,,,,71,101
209105,control_change,180,0,3,,,,,,,,,2,11,70,,,
209105,note_on,0,0,3,,,,,,,,,2,,,,74,101
209108,note_on,60,0,13,,,,,,,,,12,,,,63,0
209109,control_change,0,0,4,,,,,,,,,3,11,77,,,
209109,note_on,1620,0,4,,,,,,,,,3,,,,59,100
209109,note_on,0,0,4,,,,,,,,,3,,,,62,100
209112,note_on,60,0,14,,,,,,,,,13,,,,51,0
209114,note_on,60,0,15,,,,,,,,,14,,,,39,0
209160,note_on,60,0,11,,,,,,,,,10,,,,64,93
209160,set_tempo,120,1,0,,,,,,282353,,,,,,,,
209161,note_on,60,0,1,,,,,,,,,0,,,,83,0
209161,note_on,0,0,1,,,,,,,,,0,,,,86,116
209161,note_on,0,0,1,,,,,,,,,0,,,,83,116
209161,note_on,0,0,1,,,,,,,,,0,,,,86,0
209162,control_change,17280,0,7,,,,,,,,,6,11,82,,,
209163,note_on,0,0,5,,,,,,,,,4,,,,64,100
209163,note_on,60,0,12,,,,,,,,,11,,,,64,93
209163,control_change,1680,0,5,,,,,,,,,4,11,82,,,
209164,note_on,0,0,2,,,,,,,,,1,,,,71,115
209164,note_on,60,0,2,,,,,,,,,1,,,,74,0
209164,control_change,0,0,6,,,,,,,,,5,11,82,,,
209164,note_on,4560,0,6,,,,,,,,,5,,,,52,100
209164,note_on,0,0,2,,,,,,,,,1,,,,74,115
209164,note_on,0,0,2,,,,,,,,,1,,,,71,0
209165,note_on,0,0,3,,,,,,,,,2,,,,71,116
209165,note_on,60,0,3,,,,,,,,,2,,,,74,0
209165,note_on,0,0,3,,,,,,,,,2,,,,71,0
209165,note_on,0,0,3,,,,,,,,,2,,,,74,116
209167,note_on,4560,0,8,,,,,,,,,7,,,,59,125
209167,control_change,0,0,8,,,,,,,,,7,11,82,,,
209167,note_on,0,0,8,,,,,,,,,7,,,,56,125
209168,note_on,60,0,13,,,,,,,,,12,,,,64,127
209169,note_on,0,0,4,,,,,,,,,3,,,,62,115
209169,note_on,0,0,4,,,,,,,,,3,,,,59,115
209169,note_on,0,0,4,,,,,,,,,3,,,,59,0
209169,note_on,60,0,4,,,,,,,,,3,,,,62,0
209172,note_on,60,0,14,,,,,,,,,13,,,,52,127
209173,control_change,0,0,9,,,,,,,,,8,11,82,,,
209173,note_on,4560,0,9,,,,,,,,,8,,,,52,125
209174,note_on,60,0,15,,,,,,,,,14,,,,40,127
209220,note_on,60,0,11,,,,,,,,,10,,,,64,0
209223,note_on,60,0,12,,,,,,,,,11,,,,64,0
209280,note_on,60,0,11,,,,,,,,,10,,,,68,93
209280,set_tempo,120,1,0,,,,,,293399,,,,,,,,
209283,note_on,60,0,12,,,,,,,,,11,,,,64,93
209340,note_on,60,0,11,,,,,,,,,10,,,,68,0
209343,note_on,180,0,5,,,,,,,,,4,,,,64,0
209343,note_on,0,0,5,,,,,,,,,4,,,,64,100
209343,note_on,60,0,12,,,,,,,,,11,,,,64,0
209344,note_on,0,0,6,,,,,,,,,5,,,,52,100
209344,note_on,180,0,6,,,,,,,,,5,,,,52,0
209347,note_on,180,0,8,,,,,,,,,7,,,,56,0
209347,note_on,0,0,8,,,,,,,,,7,,,,59,0
209347,note_on,0,0,8,,,,,,,,,7,,,,56,110
209347,note_on,0,0,8,,,,,,,,,7,,,,59,110
209400,set_tempo,120,1,0,,,,,,315789,,,,,,,,
209400,note_on,60,0,11,,,,,,,,,10,,,,71,93
209403,note_on,0,0,5,,,,,,,,,4,,,,64,100
209403,note_on,60,0,5,,,,,,,,,4,,,,64,0
209403,note_on,60,0,12,,,,,,,,,11,,,,68,93
209404,note_on,60,0,6,,,,,,,,,5,,,,52,0
209404,note_on,0,0,6,,,,,,,,,5,,,,52,100
209407,note_on,60,0,8,,,,,,,,,7,,,,59,0
209407,note_on,0,0,8,,,,,,,,,7,,,,59,110
209407,note_on,0,0,8,,,,,,,,,7,,,,56,110
209407,note_on,0,0,8,,,,,,,,,7,,,,56,0
209408,note_on,240,0,13,,,,,,,,,12,,,,64,0
209412,note_on,240,0,14,,,,,,,,,13,,,,52,0
209413,note_on,240,0,9,,,,,,,,,8,,,,52,0
209414,note_on,240,0,15,,,,,,,,,14,,,,40,0
209460,note_on,60,0,11,,,,,,,,,10,,,,71,0
209463,note_on,60,0,12,,,,,,,,,11,,,,68,0
209520,note_on,60,0,11,,,,,,,,,10,,,,64,93
209520,set_tempo,120,1,0,,,,,,278422,,,,,,,,
209520,note_on,0,0,11,,,,,,,,,10,,,,74,93
209523,note_on,0,0,12,,,,,,,,,11,,,,71,93
209523,note_on,120,0,5,,,,,,,,,4,,,,64,0
209523,note_on,60,0,12,,,,,,,,,11,,,,68,93
209523,note_on,0,0,5,,,,,,,,,4,,,,64,115
209524,note_on,0,0,6,,,,,,,,,5,,,,52,115
209524,note_on,120,0,6,,,,,,,,,5,,,,52,0
209527,note_on,120,0,8,,,,,,,,,7,,,,59,0
209527,note_on,0,0,8,,,,,,,,,7,,,,56,0
209527,note_on,0,0,8,,,,,,,,,7,,,,56,125
209527,note_on,0,0,8,,,,,,,,,7,,,,59,125
209528,note_on,120,0,13,,,,,,,,,12,,,,59,112
209532,note_on,120,0,14,,,,,,,,,13,,,,52,112
209588,note_on,60,0,13,,,,,,,,,12,,,,59,0
209592,note_on,60,0,14,,,,,,,,,13,,,,52,0
209640,set_tempo,120,1,0,,,,,,291971,,,,,,,,
209641,note_on,480,0,1,,,,,,,,,0,,,,83,0
209641,note_on,0,0,1,,,,,,,,,0,,,,86,0
209641,note_on,0,0,1,,,,,,,,,0,,,,85,101
209641,note_on,0,0,1,,,,,,,,,0,,,,81,101
209644,note_on,0,0,2,,,,,,,,,1,,,,74,0
209644,note_on,480,0,2,,,,,,,,,1,,,,71,0
209644,note_on,0,0,2,,,,,,,,,1,,,,69,100
209644,note_on,0,0,2,,,,,,,,,1,,,,73,100
209645,note_on,480,0,3,,,,,,,,,2,,,,71,0
209645,note_on,0,0,3,,,,,,,,,2,,,,74,0
209645,note_on,0,0,3,,,,,,,,,2,,,,73,101
209645,note_on,0,0,3,,,,,,,,,2,,,,69,101
209648,note_on,60,0,13,,,,,,,,,12,,,,62,112
209649,note_on,0,0,4,,,,,,,,,3,,,,57,100
209649,note_on,0,0,4,,,,,,,,,3,,,,61,100
209649,note_on,480,0,4,,,,,,,,,3,,,,62,0
209649,note_on,0,0,4,,,,,,,,,3,,,,59,0
209652,note_on,60,0,14,,,,,,,,,13,,,,56,112
209708,note_on,60,0,13,,,,,,,,,12,,,,62,0
209712,note_on,60,0,14,,,,,,,,,13,,,,56,0
209713,note_on,300,0,9,,,,,,,,,8,,,,52,110
209714,note_on,300,0,15,,,,,,,,,14,,,,40,112
209760,note_on,240,0,11,,,,,,,,,10,,,,74,0
209760,note_on,0,0,11,,,,,,,,,10,,,,64,0
209760,set_tempo,120,1,0,,,,,,315789,,,,,,,,
209761,note_on,0,0,1,,,,,,,,,0,,,,76,101
209761,note_on,0,0,1,,,,,,,,,0,,,,83,101
209761,note_on,0,0,1,,,,,,,,,0,,,,85,0
209761,note_on,120,0,1,,,,,,,,,0,,,,81,0
209763,note_on,0,0,12,,,,,,,,,11,,,,68,0
209763,note_on,240,0,5,,,,,,,,,4,,,,64,0
209763,note_on,240,0,12,,,,,,,,,11,,,,71,0
209764,note_on,0,0,2,,,,,,,,,1,,,,71,100
209764,note_on,0,0,2,,,,,,,,,1,,,,64,100
209764,note_on,240,0,6,,,,,,,,,5,,,,52,0
209764,note_on,0,0,2,,,,,,,,,1,,,,69,0
209764,note_on,120,0,2,,,,,,,,,1,,,,73,0
209765,note_on,0,0,3,,,,,,,,,2,,,,64,101
209765,note_on,0,0,3,,,,,,,,,2,,,,69,0
209765,note_on,120,0,3,,,,,,,,,2,,,,73,0
209765,note_on,0,0,3,,,,,,,,,2,,,,71,101
209767,note_on,0,0,8,,,,,,,,,7,,,,59,0
209767,note_on,240,0,8,,,,,,,,,7,,,,56,0
209768,note_on,60,0,13,,,,,,,,,12,,,,64,112
209769,note_on,0,0,4,,,,,,,,,3,,,,59,100
209769,note_on,0,0,4,,,,,,,,,3,,,,52,100
209769,note_on,0,0,4,,,,,,,,,3,,,,57,0
209769,note_on,120,0,4,,,,,,,,,3,,,,61,0
209772,note_on,60,0,14,,,,,,,,,13,,,,59,112
209773,note_on,0,0,9,,,,,,,,,8,,,,52,110
209773,note_on,60,0,9,,,,,,,,,8,,,,52,0
209774,note_on,0,0,15,,,,,,,,,14,,,,40,112
209774,note_on,60,0,15,,,,,,,,,14,,,,40,0
209828,note_on,60,0,13,,,,,,,,,12,,,,64,0
209832,note_on,60,0,14,,,,,,,,,13,,,,59,0
209876,note_on,0,0,1,,,,,,,,,0,,,,83,0
209876,note_on,115,0,1,,,,,,,,,0,,,,76,0
209879,note_on,0,0,2,,,,,,,,,1,,,,71,0
209879,note_on,115,0,2,,,,,,,,,1,,,,64,0
209880,note_on,0,0,3,,,,,,,,,2,,,,64,0
209880,note_on,115,0,3,,,,,,,,,2,,,,71,0
209880,set_tempo,120,1,0,,,,,,277778,,,,,,,,
209881,note_on,0,0,1,,,,,,,,,0,,,,90,116
209881,note_on,5,0,1,,,,,,,,,0,,,,86,116
209884,note_on,115,0,4,,,,,,,,,3,,,,59,0
209884,note_on,0,0,4,,,,,,,,,3,,,,52,0
209884,note_on,5,0,2,,,,,,,,,1,,,,74,115
209884,note_on,0,0,2,,,,,,,,,1,,,,78,115
209885,note_on,5,0,3,,,,,,,,,2,,,,78,116
209885,note_on,0,0,3,,,,,,,,,2,,,,74,116
209888,note_on,60,0,13,,,,,,,,,12,,,,59,127
209888,note_on,0,0,13,,,,,,,,,12,,,,68,127
209889,note_on,5,0,4,,,,,,,,,3,,,,66,115
209889,note_on,0,0,4,,,,,,,,,3,,,,62,115
209892,note_on,60,0,14,,,,,,,,,13,,,,59,127
209893,note_on,0,0,9,,,,,,,,,8,,,,52,125
209893,note_on,120,0,9,,,,,,,,,8,,,,52,0
209894,note_on,0,0,15,,,,,,,,,14,,,,40,127
209894,note_on,120,0,15,,,,,,,,,14,,,,40,0
210000,set_tempo,120,1,0,,,,,,288462,,,,,,,,
210000,note_on,240,0,11,,,,,,,,,10,,,,68,93
210001,note_on,0,0,1,,,,,,,,,0,,,,86,0
210001,note_on,120,0,1,,,,,,,,,0,,,,90,0
210001,note_on,0,0,1,,,,,,,,,0,,,,88,101
210001,note_on,0,0,1,,,,,,,,,0,,,,85,101
210003,note_on,240,0,12,,,,,,,,,11,,,,64,93
210004,note_on,0,0,2,,,,,,,,,1,,,,76,100
210004,note_on,0,0,2,,,,,,,,,1,,,,74,0
210004,note_on,120,0,2,,,,,,,,,1,,,,78,0
210004,note_on,0,0,2,,,,,,,,,1,,,,73,100
210005,note_on,0,0,3,,,,,,,,,2,,,,78,0
210005,note_on,0,0,3,,,,,,,,,2,,,,73,101
210005,note_on,120,0,3,,,,,,,,,2,,,,74,0
210005,note_on,0,0,3,,,,,,,,,2,,,,76,101
210009,note_on,0,0,4,,,,,,,,,3,,,,64,100
210009,note_on,0,0,4,,,,,,,,,3,,,,66,0
210009,note_on,0,0,4,,,,,,,,,3,,,,61,100
210009,note_on,120,0,4,,,,,,,,,3,,,,62,0
210060,note_on,60,0,11,,,,,,,,,10,,,,68,0
210063,note_on,300,0,5,,,,,,,,,4,,,,64,100
210063,note_on,60,0,12,,,,,,,,,11,,,,64,0
210064,note_on,300,0,6,,,,,,,,,5,,,,52,100
210067,note_on,300,0,8,,,,,,,,,7,,,,59,110
210067,note_on,0,0,8,,,,,,,,,7,,,,56,110
210120,set_tempo,120,1,0,,,,,,315789,,,,,,,,
210120,note_on,60,0,11,,,,,,,,,10,,,,71,93
210121,note_on,0,0,1,,,,,,,,,0,,,,83,101
210121,note_on,0,0,1,,,,,,,,,0,,,,86,101
210121,note_on,0,0,1,,,,,,,,,0,,,,88,0
210121,note_on,120,0,1,,,,,,,,,0,,,,85,0
210123,note_on,0,0,5,,,,,,,,,4,,,,64,100
210123,note_on,60,0,5,,,,,,,,,4,,,,64,0
210123,note_on,60,0,12,,,,,,,,,11,,,,68,93
210124,note_on,0,0,2,,,,,,,,,1,,,,73,0
210124,note_on,120,0,2,,,,,,,,,1,,,,76,0
210124,note_on,0,0,6,,,,,,,,,5,,,,52,100
210124,note_on,60,0,6,,,,,,,,,5,,,,52,0
210124,note_on,0,0,2,,,,,,,,,1,,,,74,100
210124,note_on,0,0,2,,,,,,,,,1,,,,71,100
210125,note_on,120,0,3,,,,,,,,,2,,,,73,0
210125,note_on,0,0,3,,,,,,,,,2,,,,76,0
210125,note_on,0,0,3,,,,,,,,,2,,,,71,101
210125,note_on,0,0,3,,,,,,,,,2,,,,74,101
210127,note_on,0,0,8,,,,,,,,,7,,,,59,0
210127,note_on,0,0,8,,,,,,,,,7,,,,59,110
210127,note_on,0,0,8,,,,,,,,,7,,,,56,110
210127,note_on,60,0,8,,,,,,,,,7,,,,56,0
210128,note_on,240,0,13,,,,,,,,,12,,,,68,0
210128,note_on,0,0,13,,,,,,,,,12,,,,59,0
210129,note_on,0,0,4,,,,,,,,,3,,,,59,100
210129,note_on,0,0,4,,,,,,,,,3,,,,62,100
210129,note_on,0,0,4,,,,,,,,,3,,,,64,0
210129,note_on,120,0,4,,,,,,,,,3,,,,61,0
210132,note_on,240,0,14,,,,,,,,,13,,,,59,0
210133,note_on,240,0,9,,,,,,,,,8,,,,52,0
210134,note_on,240,0,15,,,,,,,,,14,,,,40,0
210180,note_on,60,0,11,,,,,,,,,10,,,,71,0
210183,note_on,60,0,12,,,,,,,,,11,,,,68,0
210236,note_on,115,0,1,,,,,,,,,0,,,,83,0
210236,note_on,0,0,1,,,,,,,,,0,,,,86,0
210239,note_on,0,0,2,,,,,,,,,1,,,,74,0
210239,note_on,115,0,2,,,,,,,,,1,,,,71,0
210240,note_on,0,0,11,,,,,,,,,10,,,,64,93
210240,note_on,60,0,11,,,,,,,,,10,,,,74,93
210240,set_tempo,120,1,0,,,,,,275229,,,,,,,,
210240,note_on,0,0,3,,,,,,,,,2,,,,71,0
210240,note_on,115,0,3,,,,,,,,,2,,,,74,0
210241,note_on,5,0,1,,,,,,,,,0,,,,86,101
210241,note_on,0,0,1,,,,,,,,,0,,,,83,101
210243,note_on,0,0,12,,,,,,,,,11,,,,68,93
210243,note_on,120,0,5,,,,,,,,,4,,,,64,0
210243,note_on,60,0,12,,,,,,,,,11,,,,71,93
210243,note_on,0,0,5,,,,,,,,,4,,,,64,115
210244,note_on,0,0,6,,,,,,,,,5,,,,52,115
210244,note_on,5,0,2,,,,,,,,,1,,,,74,100
210244,note_on,115,0,4,,,,,,,,,3,,,,59,0
210244,note_on,0,0,4,,,,,,,,,3,,,,62,0
210244,note_on,0,0,2,,,,,,,,,1,,,,71,100
210244,note_on,120,0,6,,,,,,,,,5,,,,52,0
210245,note_on,0,0,3,,,,,,,,,2,,,,71,101
210245,note_on,5,0,3,,,,,,,,,2,,,,74,101
210247,note_on,0,0,8,,,,,,,,,7,,,,56,125
210247,note_on,0,0,8,,,,,,,,,7,,,,59,125
210247,note_on,0,0,8,,,,,,,,,7,,,,59,0
210247,note_on,120,0,8,,,,,,,,,7,,,,56,0
210248,note_on,120,0,13,,,,,,,,,12,,,,59,112
210249,note_on,5,0,4,,,,,,,,,3,,,,59,100
210249,note_on,0,0,4,,,,,,,,,3,,,,62,100
210252,note_on,120,0,14,,,,,,,,,13,,,,56,112
210308,note_on,60,0,13,,,,,,,,,12,,,,59,0
210312,note_on,60,0,14,,,,,,,,,13,,,,56,0
210360,set_tempo,120,1,0,,,,,,288462,,,,,,,,
210361,note_on,120,0,1,,,,,,,,,0,,,,83,0
210361,note_on,0,0,1,,,,,,,,,0,,,,85,101
210361,note_on,0,0,1,,,,,,,,,0,,,,81,101
210361,note_on,0,0,1,,,,,,,,,0,,,,86,0
210364,note_on,0,0,2,,,,,,,,,1,,,,73,100
210364,note_on,120,0,2,,,,,,,,,1,,,,71,0
210364,note_on,0,0,2,,,,,,,,,1,,,,74,0
210364,note_on,0,0,2,,,,,,,,,1,,,,69,100
210365,note_on,0,0,3,,,,,,,,,2,,,,74,0
210365,note_on,120,0,3,,,,,,,,,2,,,,71,0
210365,note_on,0,0,3,,,,,,,,,2,,,,69,101
210365,note_on,0,0,3,,,,,,,,,2,,,,73,101
210368,note_on,60,0,13,,,,,,,,,12,,,,62,112
210369,note_on,120,0,4,,,,,,,,,3,,,,62,0
210369,note_on,0,0,4,,,,,,,,,3,,,,59,0
210369,note_on,0,0,4,,,,,,,,,3,,,,61,100
210369,note_on,0,0,4,,,,,,,,,3,,,,57,100
210372,note_on,60,0,14,,,,,,,,,13,,,,59,112
210428,note_on,60,0,13,,,,,,,,,12,,,,62,0
210432,note_on,60,0,14,,,,,,,,,13,,,,59,0
210433,note_on,300,0,9,,,,,,,,,8,,,,52,110
210434,note_on,300,0,15,,,,,,,,,14,,,,40,112
210480,note_on,0,0,11,,,,,,,,,10,,,,74,0
210480,note_on,240,0,11,,,,,,,,,10,,,,64,0
210480,set_tempo,120,1,0,,,,,,315789,,,,,,,,
210481,note_on,120,0,1,,,,,,,,,0,,,,81,0
210481,note_on,0,0,1,,,,,,,,,0,,,,85,0
210481,note_on,0,0,1,,,,,,,,,0,,,,76,101
210481,note_on,0,0,1,,,,,,,,,0,,,,83,101
210483,note_on,0,0,12,,,,,,,,,11,,,,71,0
210483,note_on,240,0,12,,,,,,,,,11,,,,68,0
210483,note_on,240,0,5,,,,,,,,,4,,,,64,0
210484,note_on,120,0,2,,,,,,,,,1,,,,73,0
210484,note_on,0,0,2,,,,,,,,,1,,,,71,100
210484,note_on,0,0,2,,,,,,,,,1,,,,64,100
210484,note_on,0,0,2,,,,,,,,,1,,,,69,0
210484,note_on,240,0,6,,,,,,,,,5,,,,52,0
210485,note_on,0,0,3,,,,,,,,,2,,,,73,0
210485,note_on,120,0,3,,,,,,,,,2,,,,69,0
210485,note_on,0,0,3,,,,,,,,,2,,,,64,101
210485,note_on,0,0,3,,,,,,,,,2,,,,71,101
210487,note_on,240,0,8,,,,,,,,,7,,,,56,0
210487,note_on,0,0,8,,,,,,,,,7,,,,59,0
210488,note_on,60,0,13,,,,,,,,,12,,,,64,112
210489,note_on,0,0,4,,,,,,,,,3,,,,52,100
210489,note_on,0,0,4,,,,,,,,,3,,,,61,0
210489,note_on,120,0,4,,,,,,,,,3,,,,57,0
210489,note_on,0,0,4,,,,,,,,,3,,,,59,100
210492,note_on,60,0,14,,,,,,,,,13,,,,62,112
210493,note_on,60,0,9,,,,,,,,,8,,,,52,0
210493,note_on,0,0,9,,,,,,,,,8,,,,52,110
210494,note_on,60,0,15,,,,,,,,,14,,,,40,0
210494,note_on,0,0,15,,,,,,,,,14,,,,40,112
210548,note_on,60,0,13,,,,,,,,,12,,,,64,0
210552,note_on,60,0,14,,,,,,,,,13,,,,62,0
210596,note_on,0,0,1,,,,,,,,,0,,,,76,0
210596,note_on,115,0,1,,,,,,,,,0,,,,83,0
210599,note_on,115,0,2,,,,,,,,,1,,,,71,0
210599,note_on,0,0,2,,,,,,,,,1,,,,64,0
210600,set_tempo,120,1,0,,,,,,275229,,,,,,,,
210600,note_on,115,0,3,,,,,,,,,2,,,,71,0
210600,note_on,0,0,3,,,,,,,,,2,,,,64,0
210601,note_on,0,0,1,,,,,,,,,0,,,,81,116
210601,note_on,5,0,1,,,,,,,,,0,,,,85,116
210604,note_on,5,0,2,,,,,,,,,1,,,,69,115
210604,note_on,0,0,4,,,,,,,,,3,,,,59,0
210604,note_on,115,0,4,,,,,,,,,3,,,,52,0
210604,note_on,0,0,2,,,,,,,,,1,,,,73,115
210605,note_on,0,0,3,,,,,,,,,2,,,,73,116
210605,note_on,5,0,3,,,,,,,,,2,,,,69,116
210608,note_on,60,0,13,,,,,,,,,12,,,,69,127
210608,note_on,0,0,13,,,,,,,,,12,,,,57,127
210609,note_on,5,0,4,,,,,,,,,3,,,,61,115
210609,note_on,0,0,4,,,,,,,,,3,,,,57,115
210612,note_on,60,0,14,,,,,,,,,13,,,,61,127
210613,note_on,0,0,9,,,,,,,,,8,,,,52,125
210613,note_on,120,0,9,,,,,,,,,8,,,,52,0
210614,note_on,0,0,15,,,,,,,,,14,,,,40,127
210614,note_on,120,0,15,,,,,,,,,14,,,,40,0
210720,note_on,240,0,11,,,,,,,,,10,,,,64,93
210720,set_tempo,120,1,0,,,,,,288462,,,,,,,,
210723,note_on,240,0,12,,,,,,,,,11,,,,61,93
210780,note_on,60,0,11,,,,,,,,,10,,,,64,0
210783,note_on,60,0,12,,,,,,,,,11,,,,61,0
210783,note_on,300,0,5,,,,,,,,,4,,,,64,100
210784,note_on,300,0,6,,,,,,,,,5,,,,52,100
210787,note_on,0,0,8,,,,,,,,,7,,,,61,110
210787,note_on,300,0,8,,,,,,,,,7,,,,57,110
210840,note_on,60,0,11,,,,,,,,,10,,,,69,93
210840,set_tempo,120,1,0,,,,,,315789,,,,,,,,
210843,note_on,60,0,12,,,,,,,,,11,,,,64,93
210843,note_on,0,0,5,,,,,,,,,4,,,,64,100
210843,note_on,60,0,5,,,,,,,,,4,,,,64,0
210844,note_on,0,0,6,,,,,,,,,5,,,,52,100
210844,note_on,60,0,6,,,,,,,,,5,,,,52,0
210847,note_on,0,0,8,,,,,,,,,7,,,,57,0
210847,note_on,0,0,8,,,,,,,,,7,,,,61,110
210847,note_on,0,0,8,,,,,,,,,7,,,,57,110
210847,note_on,60,0,8,,,,,,,,,7,,,,61,0
210848,note_on,0,0,13,,,,,,,,,12,,,,69,0
210848,note_on,240,0,13,,,,,,,,,12,,,,57,0
210852,note_on,240,0,14,,,,,,,,,13,,,,61,0
210853,note_on,240,0,9,,,,,,,,,8,,,,52,0
210854,note_on,240,0,15,,,,,,,,,14,,,,40,0
210900,note_on,60,0,11,,,,,,,,,10,,,,69,0
210903,note_on,60,0,12,,,,,,,,,11,,,,64,0
210960,note_on,0,0,11,,,,,,,,,10,,,,64,93
210960,set_tempo,120,1,0,,,,,,275229,,,,,,,,
210960,note_on,60,0,11,,,,,,,,,10,,,,73,93
210963,note_on,120,0,5,,,,,,,,,4,,,,64,0
210963,note_on,0,0,5,,,,,,,,,4,,,,64,100
210963,note_on,0,0,12,,,,,,,,,11,,,,61,93
210963,note_on,60,0,12,,,,,,,,,11,,,,69,93
210964,note_on,120,0,6,,,,,,,,,5,,,,52,0
210964,note_on,0,0,6,,,,,,,,,5,,,,52,100
210967,note_on,0,0,8,,,,,,,,,7,,,,61,110
210967,note_on,0,0,8,,,,,,,,,7,,,,57,110
210967,note_on,0,0,8,,,,,,,,,7,,,,61,0
210967,note_on,120,0,8,,,,,,,,,7,,,,57,0
210968,note_on,120,0,13,,,,,,,,,12,,,,57,112
210972,note_on,120,0,14,,,,,,,,,13,,,,52,112
211028,note_on,60,0,13,,,,,,,,,12,,,,57,0
211032,note_on,60,0,14,,,,,,,,,13,,,,52,0
211080,set_tempo,120,1,0,,,,,,288462,,,,,,,,
211081,note_on,0,0,1,,,,,,,,,0,,,,85,0
211081,note_on,0,0,1,,,,,,,,,0,,,,83,101
211081,note_on,480,0,1,,,,,,,,,0,,,,81,0
211081,note_on,0,0,1,,,,,,,,,0,,,,76,101
211084,note_on,480,0,2,,,,,,,,,1,,,,73,0
211084,note_on,0,0,2,,,,,,,,,1,,,,69,0
211084,note_on,0,0,2,,,,,,,,,1,,,,64,100
211084,note_on,0,0,2,,,,,,,,,1,,,,71,100
211085,note_on,0,0,3,,,,,,,,,2,,,,71,101
211085,note_on,0,0,3,,,,,,,,,2,,,,69,0
211085,note_on,480,0,3,,,,,,,,,2,,,,73,0
211085,note_on,0,0,3,,,,,,,,,2,,,,64,101
211088,note_on,60,0,13,,,,,,,,,12,,,,61,112
211089,note_on,480,0,4,,,,,,,,,3,,,,57,0
211089,note_on,0,0,4,,,,,,,,,3,,,,52,100
211089,note_on,0,0,4,,,,,,,,,3,,,,61,0
211089,note_on,0,0,4,,,,,,,,,3,,,,59,100
211092,note_on,60,0,14,,,,,,,,,13,,,,57,112
211148,note_on,60,0,13,,,,,,,,,12,,,,61,0
211152,note_on,60,0,14,,,,,,,,,13,,,,57,0
211153,note_on,300,0,9,,,,,,,,,8,,,,52,110
211154,note_on,300,0,15,,,,,,,,,14,,,,40,112
211200,set_tempo,120,1,0,,,,,,315789,,,,,,,,
211200,note_on,0,0,11,,,,,,,,,10,,,,73,0
211200,note_on,240,0,11,,,,,,,,,10,,,,64,0
211201,note_on,120,0,1,,,,,,,,,0,,,,76,0
211201,note_on,0,0,1,,,,,,,,,0,,,,83,0
211201,note_on,0,0,1,,,,,,,,,0,,,,73,101
211201,note_on,0,0,1,,,,,,,,,0,,,,81,101
211203,note_on,0,0,12,,,,,,,,,11,,,,69,0
211203,note_on,240,0,12,,,,,,,,,11,,,,61,0
211203,note_on,240,0,5,,,,,,,,,4,,,,64,0
211204,note_on,0,0,2,,,,,,,,,1,,,,64,0
211204,note_on,0,0,2,,,,,,,,,1,,,,61,100
211204,note_on,120,0,2,,,,,,,,,1,,,,71,0
211204,note_on,240,0,6,,,,,,,,,5,,,,52,0
211204,note_on,0,0,2,,,,,,,,,1,,,,69,100
211205,note_on,0,0,3,,,,,,,,,2,,,,69,101
211205,note_on,120,0,3,,,,,,,,,2,,,,71,0
211205,note_on,0,0,3,,,,,,,,,2,,,,61,101
211205,note_on,0,0,3,,,,,,,,,2,,,,64,0
211207,note_on,240,0,8,,,,,,,,,7,,,,61,0
211207,note_on,0,0,8,,,,,,,,,7,,,,57,0
211208,note_on,60,0,13,,,,,,,,,12,,,,64,112
211209,note_on,0,0,4,,,,,,,,,3,,,,49,100
211209,note_on,0,0,4,,,,,,,,,3,,,,57,100
211209,note_on,0,0,4,,,,,,,,,3,,,,52,0
211209,note_on,120,0,4,,,,,,,,,3,,,,59,0
211212,note_on,60,0,14,,,,,,,,,13,,,,61,112
211213,note_on,0,0,9,,,,,,,,,8,,,,52,110
211213,note_on,60,0,9,,,,,,,,,8,,,,52,0
211214,note_on,0,0,15,,,,,,,,,14,,,,40,112
211214,note_on,60,0,15,,,,,,,,,14,,,,40,0
211268,note_on,60,0,13,,,,,,,,,12,,,,64,0
211272,note_on,60,0,14,,,,,,,,,13,,,,61,0
211316,note_on,0,0,1,,,,,,,,,0,,,,73,0
211316,note_on,115,0,1,,,,,,,,,0,,,,81,0
211319,note_on,115,0,2,,,,,,,,,1,,,,69,0
211319,note_on,0,0,2,,,,,,,,,1,,,,61,0
211320,note_on,0,0,3,,,,,,,,,2,,,,61,0
211320,note_on,115,0,3,,,,,,,,,2,,,,69,0
211320,set_tempo,120,1,0,,,,,,275229,,,,,,,,
211321,note_on,0,0,1,,,,,,,,,0,,,,88,116
211321,note_on,5,0,1,,,,,,,,,0,,,,85,116
211324,note_on,5,0,2,,,,,,,,,1,,,,76,115
211324,note_on,115,0,4,,,,,,,,,3,,,,57,0
211324,note_on,0,0,4,,,,,,,,,3,,,,49,0
211324,note_on,0,0,2,,,,,,,,,1,,,,73,115
211325,note_on,0,0,3,,,,,,,,,2,,,,76,116
211325,note_on,5,0,3,,,,,,,,,2,,,,73,116
211328,note_on,0,0,13,,,,,,,,,12,,,,69,112
211328,note_on,60,0,13,,,,,,,,,12,,,,61,112
211329,note_on,5,0,4,,,,,,,,,3,,,,64,115
211329,note_on,0,0,4,,,,,,,,,3,,,,61,115
211332,note_on,60,0,14,,,,,,,,,13,,,,57,112
211333,note_on,120,0,9,,,,,,,,,8,,,,52,0
211333,note_on,0,0,9,,,,,,,,,8,,,,52,110
211334,note_on,120,0,15,,,,,,,,,14,,,,40,0
211334,note_on,0,0,15,,,,,,,,,14,,,,40,112
211440,set_tempo,120,1,0,,,,,,288462,,,,,,,,
211440,note_on,240,0,11,,,,,,,,,10,,,,64,93
211441,note_on,120,0,1,,,,,,,,,0,,,,88,0
211441,note_on,0,0,1,,,,,,,,,0,,,,85,0
211441,note_on,0,0,1,,,,,,,,,0,,,,83,101
211441,note_on,0,0,1,,,,,,,,,0,,,,86,101
211443,note_on,240,0,12,,,,,,,,,11,,,,61,93
211444,note_on,120,0,2,,,,,,,,,1,,,,73,0
211444,note_on,0,0,2,,,,,,,,,1,,,,71,100
211444,note_on,0,0,2,,,,,,,,,1,,,,76,0
211444,note_on,0,0,2,,,,,,,,,1,,,,74,100
211445,note_on,120,0,3,,,,,,,,,2,,,,76,0
211445,note_on,0,0,3,,,,,,,,,2,,,,73,0
211445,note_on,0,0,3,,,,,,,,,2,,,,74,101
211445,note_on,0,0,3,,,,,,,,,2,,,,71,101
211449,note_on,120,0,4,,,,,,,,,3,,,,61,0
211449,note_on,0,0,4,,,,,,,,,3,,,,59,100
211449,note_on,0,0,4,,,,,,,,,3,,,,64,0
211449,note_on,0,0,4,,,,,,,,,3,,,,62,100
211500,note_on,60,0,11,,,,,,,,,10,,,,64,0
211503,note_on,300,0,5,,,,,,,,,4,,,,64,100
211503,note_on,60,0,12,,,,,,,,,11,,,,61,0
211504,note_on,300,0,6,,,,,,,,,5,,,,52,100
211507,note_on,0,0,8,,,,,,,,,7,,,,57,110
211507,note_on,300,0,8,,,,,,,,,7,,,,61,110
211560,note_on,60,0,11,,,,,,,,,10,,,,69,93
211560,set_tempo,120,1,0,,,,,,315789,,,,,,,,
211561,note_on,120,0,1,,,,,,,,,0,,,,86,0
211561,note_on,0,0,1,,,,,,,,,0,,,,83,0
211561,note_on,0,0,1,,,,,,,,,0,,,,85,101
211561,note_on,0,0,1,,,,,,,,,0,,,,81,101
211563,note_on,60,0,5,,,,,,,,,4,,,,64,0
211563,note_on,0,0,5,,,,,,,,,4,,,,64,100
211563,note_on,60,0,12,,,,,,,,,11,,,,64,93
211564,note_on,60,0,6,,,,,,,,,5,,,,52,0
211564,note_on,0,0,2,,,,,,,,,1,,,,73,100
211564,note_on,0,0,6,,,,,,,,,5,,,,52,100
211564,note_on,0,0,2,,,,,,,,,1,,,,74,0
211564,note_on,120,0,2,,,,,,,,,1,,,,71,0
211564,note_on,0,0,2,,,,,,,,,1,,,,69,100
211565,note_on,0,0,3,,,,,,,,,2,,,,69,101
211565,note_on,120,0,3,,,,,,,,,2,,,,74,0
211565,note_on,0,0,3,,,,,,,,,2,,,,71,0
211565,note_on,0,0,3,,,,,,,,,2,,,,73,101
211567,note_on,60,0,8,,,,,,,,,7,,,,57,0
211567,note_on,0,0,8,,,,,,,,,7,,,,61,0
211567,note_on,0,0,8,,,,,,,,,7,,,,57,110
211567,note_on,0,0,8,,,,,,,,,7,,,,61,110
211568,note_on,0,0,13,,,,,,,,,12,,,,61,0
211568,note_on,240,0,13,,,,,,,,,12,,,,69,0
211569,note_on,0,0,4,,,,,,,,,3,,,,57,100
211569,note_on,0,0,4,,,,,,,,,3,,,,61,100
211569,note_on,0,0,4,,,,,,,,,3,,,,59,0
211569,note_on,120,0,4,,,,,,,,,3,,,,62,0
211572,note_on,240,0,14,,,,,,,,,13,,,,57,0
211573,note_on,240,0,9,,,,,,,,,8,,,,52,0
211574,note_on,240,0,15,,,,,,,,,14,,,,40,0
211620,note_on,60,0,11,,,,,,,,,10,,,,69,0
211623,note_on,60,0,12,,,,,,,,,11,,,,64,0
211676,note_on,0,0,1,,,,,,,,,0,,,,85,0
211676,note_on,115,0,1,,,,,,,,,0,,,,81,0
211679,note_on,115,0,2,,,,,,,,,1,,,,69,0
211679,note_on,0,0,2,,,,,,,,,1,,,,73,0
211680,note_on,115,0,3,,,,,,,,,2,,,,73,0
211680,note_on,60,0,11,,,,,,,,,10,,,,64,93
211680,note_on,0,0,3,,,,,,,,,2,,,,69,0
211680,set_tempo,120,1,0,,,,,,275229,,,,,,,,
211680,note_on,0,0,11,,,,,,,,,10,,,,73,93
211681,note_on,0,0,1,,,,,,,,,0,,,,81,101
211681,note_on,5,0,1,,,,,,,,,0,,,,85,101
211683,note_on,120,0,5,,,,,,,,,4,,,,64,0
211683,note_on,0,0,5,,,,,,,,,4,,,,64,100
211683,note_on,0,0,12,,,,,,,,,11,,,,69,93
211683,note_on,60,0,12,,,,,,,,,11,,,,61,93
211684,note_on,115,0,4,,,,,,,,,3,,,,61,0
211684,note_on,0,0,4,,,,,,,,,3,,,,57,0
211684,note_on,0,0,2,,,,,,,,,1,,,,73,100
211684,note_on,5,0,2,,,,,,,,,1,,,,69,100
211684,note_on,120,0,6,,,,,,,,,5,,,,52,0
211684,note_on,0,0,6,,,,,,,,,5,,,,52,100
211685,note_on,5,0,3,,,,,,,,,2,,,,73,101
211685,note_on,0,0,3,,,,,,,,,2,,,,69,101
211687,note_on,120,0,8,,,,,,,,,7,,,,61,0
211687,note_on,0,0,8,,,,,,,,,7,,,,57,0
211687,note_on,0,0,8,,,,,,,,,7,,,,61,110
211687,note_on,0,0,8,,,,,,,,,7,,,,57,110
211688,note_on,120,0,13,,,,,,,,,12,,,,57,112
211689,note_on,5,0,4,,,,,,,,,3,,,,61,100
211689,note_on,0,0,4,,,,,,,,,3,,,,57,100
211692,note_on,120,0,14,,,,,,,,,13,,,,52,112
211748,note_on,60,0,13,,,,,,,,,12,,,,57,0
211752,note_on,60,0,14,,,,,,,,,13,,,,52,0
211800,set_tempo,120,1,0,,,,,,288462,,,,,,,,
211801,note_on,0,0,1,,,,,,,,,0,,,,85,0
211801,note_on,0,0,1,,,,,,,,,0,,,,83,101
211801,note_on,120,0,1,,,,,,,,,0,,,,81,0
211801,note_on,0,0,1,,,,,,,,,0,,,,76,101
211804,note_on,0,0,2,,,,,,,,,1,,,,71,100
211804,note_on,120,0,2,,,,,,,,,1,,,,73,0
211804,note_on,0,0,2,,,,,,,,,1,,,,69,0
211804,note_on,0,0,2,,,,,,,,,1,,,,64,100
211805,note_on,120,0,3,,,,,,,,,2,,,,69,0
211805,note_on,0,0,3,,,,,,,,,2,,,,64,101
211805,note_on,0,0,3,,,,,,,,,2,,,,71,101
211805,note_on,0,0,3,,,,,,,,,2,,,,73,0
211808,note_on,60,0,13,,,,,,,,,12,,,,61,112
211809,note_on,0,0,4,,,,,,,,,3,,,,61,0
211809,note_on,120,0,4,,,,,,,,,3,,,,57,0
211809,note_on,0,0,4,,,,,,,,,3,,,,59,100
211809,note_on,0,0,4,,,,,,,,,3,,,,52,100
211812,note_on,60,0,14,,,,,,,,,13,,,,57,112
211868,note_on,60,0,13,,,,,,,,,12,,,,61,0
211872,note_on,60,0,14,,,,,,,,,13,,,,57,0
211873,note_on,300,0,9,,,,,,,,,8,,,,52,110
211874,note_on,300,0,15,,,,,,,,,14,,,,40,112
211920,set_tempo,120,1,0,,,,,,352941,,,,,,,,
211920,note_on,240,0,11,,,,,,,,,10,,,,73,0
211920,note_on,0,0,11,,,,,,,,,10,,,,64,0
211921,note_on,0,0,1,,,,,,,,,0,,,,73,101
211921,note_on,0,0,1,,,,,,,,,0,,,,81,101
211921,note_on,0,0,1,,,,,,,,,0,,,,76,0
211921,note_on,120,0,1,,,,,,,,,0,,,,83,0
211923,note_on,0,0,12,,,,,,,,,11,,,,61,0
211923,note_on,240,0,12,,,,,,,,,11,,,,69,0
211923,note_on,240,0,5,,,,,,,,,4,,,,64,0
211924,note_on,0,0,2,,,,,,,,,1,,,,61,100
211924,note_on,0,0,2,,,,,,,,,1,,,,69,100
211924,note_on,0,0,2,,,,,,,,,1,,,,64,0
211924,note_on,120,0,2,,,,,,,,,1,,,,71,0
211924,note_on,240,0,6,,,,,,,,,5,,,,52,0
211925,note_on,0,0,3,,,,,,,,,2,,,,64,0
211925,note_on,0,0,3,,,,,,,,,2,,,,69,101
211925,note_on,0,0,3,,,,,,,,,2,,,,61,101
211925,note_on,120,0,3,,,,,,,,,2,,,,71,0
211927,note_on,240,0,8,,,,,,,,,7,,,,57,0
211927,note_on,0,0,8,,,,,,,,,7,,,,61,0
211928,note_on,60,0,13,,,,,,,,,12,,,,64,112
211929,note_on,120,0,4,,,,,,,,,3,,,,59,0
211929,note_on,0,0,4,,,,,,,,,3,,,,57,100
211929,note_on,0,0,4,,,,,,,,,3,,,,52,0
211929,note_on,0,0,4,,,,,,,,,3,,,,49,100
211932,note_on,60,0,14,,,,,,,,,13,,,,61,112
211933,note_on,0,0,9,,,,,,,,,8,,,,52,110
211933,note_on,60,0,9,,,,,,,,,8,,,,52,0
211934,note_on,0,0,15,,,,,,,,,14,,,,40,112
211934,note_on,60,0,15,,,,,,,,,14,,,,40,0
211988,note_on,60,0,13,,,,,,,,,12,,,,64,0
211992,note_on,60,0,14,,,,,,,,,13,,,,61,0
212036,note_on,0,0,1,,,,,,,,,0,,,,81,0
212036,note_on,115,0,1,,,,,,,,,0,,,,73,0
212039,note_on,0,0,2,,,,,,,,,1,,,,69,0
212039,note_on,115,0,2,,,,,,,,,1,,,,61,0
212040,note_on,0,0,3,,,,,,,,,2,,,,69,0
212040,set_tempo,120,1,0,,,,,,283019,,,,,,,,
212040,note_on,115,0,3,,,,,,,,,2,,,,61,0
212041,note_on,0,0,1,,,,,,,,,0,,,,76,101
212041,note_on,0,0,1,,,,,,,,,0,,,,83,101
212041,control_change,5,0,1,,,,,,,,,0,11,47,,,
212044,note_on,0,0,2,,,,,,,,,1,,,,64,100
212044,note_on,115,0,4,,,,,,,,,3,,,,57,0
212044,note_on,0,0,4,,,,,,,,,3,,,,49,0
212044,note_on,0,0,2,,,,,,,,,1,,,,71,100
212044,control_change,5,0,2,,,,,,,,,1,11,47,,,
212045,control_change,5,0,3,,,,,,,,,2,11,27,,,
212045,note_on,0,0,3,,,,,,,,,2,,,,74,116
212045,note_on,0,0,3,,,,,,,,,2,,,,71,116
212048,control_change,60,0,13,,,,,,,,,12,11,41,,,
212048,note_on,0,0,13,,,,,,,,,12,,,,68,112
212048,note_on,0,0,13,,,,,,,,,12,,,,59,112
212049,control_change,5,0,4,,,,,,,,,3,11,27,,,
212049,note_on,0,0,4,,,,,,,,,3,,,,59,115
212049,note_on,0,0,4,,,,,,,,,3,,,,62,115
212052,control_change,0,0,14,,,,,,,,,13,11,41,,,
212052,note_on,60,0,14,,,,,,,,,13,,,,62,112
212053,control_change,0,0,9,,,,,,,,,8,11,47,,,
212053,note_on,0,0,9,,,,,,,,,8,,,,52,110
212053,note_on,120,0,9,,,,,,,,,8,,,,52,0
212054,note_on,120,0,15,,,,,,,,,14,,,,40,0
212054,control_change,0,0,15,,,,,,,,,14,11,41,,,
212054,note_on,0,0,15,,,,,,,,,14,,,,40,112
212063,control_change,18,0,3,,,,,,,,,2,11,30,,,
212067,control_change,18,0,4,,,,,,,,,3,11,30,,,
212081,control_change,18,0,3,,,,,,,,,2,11,33,,,
212085,control_change,18,0,4,,,,,,,,,3,11,33,,,
212099,control_change,18,0,3,,,,,,,,,2,11,36,,,
212103,control_change,18,0,4,,,,,,,,,3,11,36,,,
212117,control_change,18,0,3,,,,,,,,,2,11,39,,,
212121,control_change,18,0,4,,,,,,,,,3,11,39,,,
212135,control_change,18,0,3,,,,,,,,,2,11,42,,,
212139,control_change,18,0,4,,,,,,,,,3,11,42,,,
212153,control_change,18,0,3,,,,,,,,,2,11,45,,,
212157,control_change,18,0,4,,,,,,,,,3,11,45,,,
212160,note_on,0,0,11,,,,,,,,,10,,,,64,93
212160,control_change,240,0,11,,,,,,,,,10,11,41,,,
212160,set_tempo,120,1,0,,,,,,295567,,,,,,,,
212163,control_change,240,0,12,,,,,,,,,11,11,41,,,
212163,note_on,0,0,12,,,,,,,,,11,,,,62,93
212220,note_on,60,0,11,,,,,,,,,10,,,,64,0
212223,note_on,300,0,5,,,,,,,,,4,,,,64,100
212223,note_on,60,0,12,,,,,,,,,11,,,,62,0
212223,control_change,0,0,5,,,,,,,,,4,11,47,,,
212224,control_change,0,0,6,,,,,,,,,5,11,47,,,
212224,note_on,300,0,6,,,,,,,,,5,,,,52,100
212280,note_on,60,0,11,,,,,,,,,10,,,,71,93
212280,set_tempo,120,1,0,,,,,,322581,,,,,,,,
212281,note_on,240,0,1,,,,,,,,,0,,,,76,0
212281,note_on,0,0,1,,,,,,,,,0,,,,83,0
212283,note_on,0,0,5,,,,,,,,,4,,,,64,100
212283,note_on,60,0,5,,,,,,,,,4,,,,64,0
212283,note_on,60,0,12,,,,,,,,,11,,,,64,93
212284,note_on,60,0,6,,,,,,,,,5,,,,52,0
212284,note_on,240,0,2,,,,,,,,,1,,,,64,0
212284,note_on,0,0,6,,,,,,,,,5,,,,52,100
212284,note_on,0,0,2,,,,,,,,,1,,,,71,0
212288,note_on,0,0,13,,,,,,,,,12,,,,68,0
212288,note_on,240,0,13,,,,,,,,,12,,,,59,0
212292,note_on,240,0,14,,,,,,,,,13,,,,62,0
212293,note_on,240,0,9,,,,,,,,,8,,,,52,0
212294,note_on,240,0,15,,,,,,,,,14,,,,40,0
212340,note_on,60,0,11,,,,,,,,,10,,,,71,0
212343,note_on,60,0,12,,,,,,,,,11,,,,64,0
212400,note_on,60,0,11,,,,,,,,,10,,,,64,93
212400,set_tempo,120,1,0,,,,,,283019,,,,,,,,
212400,note_on,0,0,11,,,,,,,,,10,,,,74,93
212403,note_on,120,0,5,,,,,,,,,4,,,,64,0
212403,note_on,60,0,12,,,,,,,,,11,,,,68,93
212403,note_on,0,0,5,,,,,,,,,4,,,,64,100
212404,note_on,0,0,6,,,,,,,,,5,,,,52,100
212404,note_on,120,0,6,,,,,,,,,5,,,,52,0
212408,note_on,120,0,13,,,,,,,,,12,,,,59,112
212412,note_on,120,0,14,,,,,,,,,13,,,,56,112
212468,note_on,60,0,13,,,,,,,,,12,,,,59,0
212472,note_on,60,0,14,,,,,,,,,13,,,,56,0
212520,set_tempo,120,1,0,,,,,,295567,,,,,,,,
212525,note_on,0,0,3,,,,,,,,,2,,,,71,0
212525,note_on,0,0,3,,,,,,,,,2,,,,72,101
212525,control_change,0,0,3,,,,,,,,,2,11,47,,,
212525,note_on,0,0,3,,,,,,,,,2,,,,69,101
212525,note_on,372,0,3,,,,,,,,,2,,,,74,0
212528,note_on,60,0,13,,,,,,,,,12,,,,62,112
212529,note_on,0,0,4,,,,,,,,,3,,,,60,100
212529,control_change,0,0,4,,,,,,,,,3,11,47,,,
212529,note_on,0,0,4,,,,,,,,,3,,,,57,100
212529,note_on,372,0,4,,,,,,,,,3,,,,62,0
212529,note_on,0,0,4,,,,,,,,,3,,,,59,0
212532,note_on,60,0,14,,,,,,,,,13,,,,59,112
212549,control_change,24,0,3,,,,,,,,,2,11,49,,,
212553,control_change,24,0,4,,,,,,,,,3,11,49,,,
212573,control_change,24,0,3,,,,,,,,,2,11,51,,,
212577,control_change,24,0,4,,,,,,,,,3,11,51,,,
212588,note_on,60,0,13,,,,,,,,,12,,,,62,0
212592,note_on,60,0,14,,,,,,,,,13,,,,59,0
212594,note_on,300,0,15,,,,,,,,,14,,,,40,112
212597,control_change,24,0,3,,,,,,,,,2,11,52,,,
212601,control_change,24,0,4,,,,,,,,,3,11,53,,,
212621,control_change,24,0,3,,,,,,,,,2,11,54,,,
212625,control_change,24,0,4,,,,,,,,,3,11,55,,,
212640,set_tempo,120,1,0,,,,,,322581,,,,,,,,
212640,note_on,240,0,11,,,,,,,,,10,,,,74,0
212640,note_on,0,0,11,,,,,,,,,10,,,,64,0
212643,note_on,240,0,5,,,,,,,,,4,,,,64,0
212643,note_on,240,0,12,,,,,,,,,11,,,,68,0
212644,note_on,240,0,6,,,,,,,,,5,,,,52,0
212645,note_on,0,0,3,,,,,,,,,2,,,,71,101
212645,note_on,0,0,3,,,,,,,,,2,,,,72,0
212645,note_on,24,0,3,,,,,,,,,2,,,,69,0
212645,note_on,0,0,3,,,,,,,,,2,,,,68,101
212645,control_change,0,0,3,,,,,,,,,2,11,55,,,
212648,note_on,60,0,13,,,,,,,,,12,,,,64,112
212649,note_on,0,0,4,,,,,,,,,3,,,,59,100
212649,note_on,0,0,4,,,,,,,,,3,,,,56,100
212649,note_on,0,0,4,,,,,,,,,3,,,,57,0
212649,note_on,24,0,4,,,,,,,,,3,,,,60,0
212649,control_change,0,0,4,,,,,,,,,3,11,57,,,
212652,note_on,60,0,14,,,,,,,,,13,,,,62,112
212654,note_on,60,0,15,,,,,,,,,14,,,,40,0
212654,note_on,0,0,15,,,,,,,,,14,,,,40,112
212669,control_change,24,0,3,,,,,,,,,2,11,57,,,
212673,control_change,24,0,4,,,,,,,,,3,11,59,,,
212693,control_change,24,0,3,,,,,,,,,2,11,58,,,
212697,control_change,24,0,4,,,,,,,,,3,11,61,,,
212708,note_on,60,0,13,,,,,,,,,12,,,,64,0
212712,note_on,60,0,14,,,,,,,,,13,,,,62,0
212717,control_change,24,0,3,,,,,,,,,2,11,60,,,
212721,control_change,24,0,4,,,,,,,,,3,11,63,,,
212741,control_change,24,0,3,,,,,,,,,2,11,61,,,
212745,control_change,24,0,4,,,,,,,,,3,11,65,,,
212760,note_on,0,0,3,,,,,,,,,2,,,,71,0
212760,note_on,19,0,3,,,,,,,,,2,,,,68,0
212760,set_tempo,120,1,0,,,,,,283019,,,,,,,,
212764,note_on,0,0,4,,,,,,,,,3,,,,56,0
212764,note_on,19,0,4,,,,,,,,,3,,,,59,0
212765,note_on,5,0,3,,,,,,,,,2,,,,77,116
212765,control_change,0,0,3,,,,,,,,,2,11,63,,,
212765,note_on,0,0,3,,,,,,,,,2,,,,68,116
212768,note_on,60,0,13,,,,,,,,,12,,,,68,112
212768,note_on,0,0,13,,,,,,,,,12,,,,59,112
212769,note_on,5,0,4,,,,,,,,,3,,,,65,115
212769,note_on,0,0,4,,,,,,,,,3,,,,56,115
212769,control_change,0,0,4,,,,,,,,,3,11,67,,,
212772,note_on,60,0,14,,,,,,,,,13,,,,62,112
212774,note_on,0,0,15,,,,,,,,,14,,,,40,112
212774,note_on,120,0,15,,,,,,,,,14,,,,40,0
212801,control_change,36,0,3,,,,,,,,,2,11,62,,,
212805,control_change,36,0,4,,,,,,,,,3,11,66,,,
212837,control_change,36,0,3,,,,,,,,,2,11,61,,,
212841,control_change,36,0,4,,,,,,,,,3,11,65,,,
212873,control_change,36,0,3,,,,,,,,,2,11,61,,,
212877,control_change,36,0,4,,,,,,,,,3,11,64,,,
212880,set_tempo,120,1,0,,,,,,295567,,,,,,,,
212880,note_on,240,0,11,,,,,,,,,10,,,,64,93
212883,note_on,240,0,12,,,,,,,,,11,,,,62,93
212885,note_on,12,0,3,,,,,,,,,2,,,,68,0
212885,note_on,0,0,3,,,,,,,,,2,,,,76,101
212885,note_on,0,0,3,,,,,,,,,2,,,,77,0
212885,note_on,0,0,3,,,,,,,,,2,,,,69,101
212889,note_on,12,0,4,,,,,,,,,3,,,,56,0
212889,note_on,0,0,4,,,,,,,,,3,,,,65,0
212889,note_on,0,0,4,,,,,,,,,3,,,,64,100
212889,note_on,0,0,4,,,,,,,,,3,,,,57,100
212909,control_change,24,0,3,,,,,,,,,2,11,60,,,
212913,control_change,24,0,4,,,,,,,,,3,11,63,,,
212940,note_on,60,0,11,,,,,,,,,10,,,,64,0
212943,note_on,300,0,5,,,,,,,,,4,,,,64,100
212943,note_on,60,0,12,,,,,,,,,11,,,,62,0
212944,note_on,300,0,6,,,,,,,,,5,,,,52,100
212945,control_change,36,0,3,,,,,,,,,2,11,59,,,
212949,control_change,36,0,4,,,,,,,,,3,11,62,,,
212981,control_change,36,0,3,,,,,,,,,2,11,58,,,
212985,control_change,36,0,4,,,,,,,,,3,11,61,,,
213000,note_on,60,0,11,,,,,,,,,10,,,,71,93
213000,set_tempo,120,1,0,,,,,,322581,,,,,,,,
213003,note_on,60,0,5,,,,,,,,,4,,,,64,0
213003,note_on,0,0,5,,,,,,,,,4,,,,64,100
213003,note_on,60,0,12,,,,,,,,,11,,,,64,93
213004,note_on,60,0,6,,,,,,,,,5,,,,52,0
213004,note_on,0,0,6,,,,,,,,,5,,,,52,100
213005,note_on,0,0,3,,,,,,,,,2,,,,71,101
213005,note_on,0,0,3,,,,,,,,,2,,,,74,101
213005,note_on,0,0,3,,,,,,,,,2,,,,76,0
213005,note_on,24,0,3,,,,,,,,,2,,,,69,0
213008,note_on,240,0,13,,,,,,,,,12,,,,59,0
213008,note_on,0,0,13,,,,,,,,,12,,,,68,0
213009,note_on,0,0,4,,,,,,,,,3,,,,64,0
213009,note_on,24,0,4,,,,,,,,,3,,,,57,0
213009,note_on,0,0,4,,,,,,,,,3,,,,59,100
213009,note_on,0,0,4,,,,,,,,,3,,,,62,100
213012,note_on,240,0,14,,,,,,,,,13,,,,62,0
213014,note_on,240,0,15,,,,,,,,,14,,,,40,0
213017,control_change,12,0,3,,,,,,,,,2,11,58,,,
213021,control_change,12,0,4,,,,,,,,,3,11,60,,,
213053,control_change,36,0,3,,,,,,,,,2,11,57,,,
213057,control_change,36,0,4,,,,,,,,,3,11,59,,,
213060,note_on,60,0,11,,,,,,,,,10,,,,71,0
213063,note_on,60,0,12,,,,,,,,,11,,,,64,0
213089,control_change,36,0,3,,,,,,,,,2,11,56,,,
213093,control_change,36,0,4,,,,,,,,,3,11,58,,,
213120,note_on,60,0,11,,,,,,,,,10,,,,74,93
213120,note_on,0,0,3,,,,,,,,,2,,,,74,0
213120,note_on,31,0,3,,,,,,,,,2,,,,71,0
213120,set_tempo,120,1,0,,,,,,283019,,,,,,,,
213120,note_on,0,0,11,,,,,,,,,10,,,,64,93
213123,note_on,0,0,5,,,,,,,,,4,,,,64,100
213123,note_on,120,0,5,,,,,,,,,4,,,,64,0
213123,note_on,60,0,12,,,,,,,,,11,,,,68,93
213124,note_on,0,0,6,,,,,,,,,5,,,,52,100
213124,note_on,120,0,6,,,,,,,,,5,,,,52,0
213124,note_on,31,0,4,,,,,,,,,3,,,,62,0
213124,note_on,0,0,4,,,,,,,,,3,,,,59,0
213125,note_on,5,0,3,,,,,,,,,2,,,,71,101
213125,control_change,0,0,3,,,,,,,,,2,11,55,,,
213125,note_on,0,0,3,,,,,,,,,2,,,,74,101
213128,note_on,120,0,13,,,,,,,,,12,,,,59,112
213129,note_on,0,0,4,,,,,,,,,3,,,,62,100
213129,control_change,0,0,4,,,,,,,,,3,11,57,,,
213129,note_on,5,0,4,,,,,,,,,3,,,,59,100
213132,note_on,120,0,14,,,,,,,,,13,,,,56,112
213161,control_change,36,0,3,,,,,,,,,2,11,55,,,
213165,control_change,36,0,4,,,,,,,,,3,11,56,,,
213188,note_on,60,0,13,,,,,,,,,12,,,,59,0
213192,note_on,60,0,14,,,,,,,,,13,,,,56,0
213197,control_change,36,0,3,,,,,,,,,2,11,54,,,
213201,control_change,36,0,4,,,,,,,,,3,11,55,,,
213233,control_change,36,0,3,,,,,,,,,2,11,53,,,
213237,control_change,36,0,4,,,,,,,,,3,11,54,,,
213240,set_tempo,120,1,0,,,,,,295567,,,,,,,,
213245,note_on,12,0,3,,,,,,,,,2,,,,74,0
213245,note_on,0,0,3,,,,,,,,,2,,,,71,0
213245,note_on,0,0,3,,,,,,,,,2,,,,72,101
213245,note_on,0,0,3,,,,,,,,,2,,,,69,101
213248,note_on,60,0,13,,,,,,,,,12,,,,62,112
213249,note_on,0,0,4,,,,,,,,,3,,,,60,100
213249,note_on,0,0,4,,,,,,,,,3,,,,57,100
213249,note_on,0,0,4,,,,,,,,,3,,,,59,0
213249,note_on,12,0,4,,,,,,,,,3,,,,62,0
213252,note_on,60,0,14,,,,,,,,,13,,,,59,112
213269,control_change,24,0,3,,,,,,,,,2,11,52,,,
213273,control_change,24,0,4,,,,,,,,,3,11,53,,,
213305,control_change,36,0,3,,,,,,,,,2,11,52,,,
213308,note_on,60,0,13,,,,,,,,,12,,,,62,0
213309,control_change,36,0,4,,,,,,,,,3,11,52,,,
213312,note_on,60,0,14,,,,,,,,,13,,,,59,0
213314,note_on,300,0,15,,,,,,,,,14,,,,40,112
213341,control_change,36,0,3,,,,,,,,,2,11,51,,,
213345,control_change,36,0,4,,,,,,,,,3,11,51,,,
213360,note_on,240,0,11,,,,,,,,,10,,,,64,0
213360,note_on,0,0,11,,,,,,,,,10,,,,74,0
213360,set_tempo,120,1,0,,,,,,322581,,,,,,,,
213363,note_on,240,0,12,,,,,,,,,11,,,,68,0
213363,note_on,240,0,5,,,,,,,,,4,,,,64,0
213364,note_on,240,0,6,,,,,,,,,5,,,,52,0
213365,note_on,24,0,3,,,,,,,,,2,,,,72,0
213365,note_on,0,0,3,,,,,,,,,2,,,,69,0
213365,note_on,0,0,3,,,,,,,,,2,,,,71,101
213365,note_on,0,0,3,,,,,,,,,2,,,,64,101
213368,note_on,60,0,13,,,,,,,,,12,,,,64,112
213369,note_on,0,0,4,,,,,,,,,3,,,,59,100
213369,note_on,24,0,4,,,,,,,,,3,,,,60,0
213369,note_on,0,0,4,,,,,,,,,3,,,,52,100
213369,note_on,0,0,4,,,,,,,,,3,,,,57,0
213372,note_on,60,0,14,,,,,,,,,13,,,,62,112
213374,note_on,0,0,15,,,,,,,,,14,,,,40,112
213374,note_on,60,0,15,,,,,,,,,14,,,,40,0
213377,control_change,12,0,3,,,,,,,,,2,11,50,,,
213381,control_change,12,0,4,,,,,,,,,3,11,50,,,
213413,control_change,36,0,3,,,,,,,,,2,11,49,,,
213417,control_change,36,0,4,,,,,,,,,3,11,49,,,
213428,note_on,60,0,13,,,,,,,,,12,,,,64,0
213432,note_on,60,0,14,,,,,,,,,13,,,,62,0
213449,control_change,36,0,3,,,,,,,,,2,11,48,,,
213453,control_change,36,0,4,,,,,,,,,3,11,48,,,
213480,set_tempo,120,1,0,,,,,,285714,,,,,,,,
213480,note_on,0,0,3,,,,,,,,,2,,,,64,0
213480,note_on,31,0,3,,,,,,,,,2,,,,71,0
213484,note_on,31,0,4,,,,,,,,,3,,,,52,0
213484,note_on,0,0,4,,,,,,,,,3,,,,59,0
213485,note_on,0,0,3,,,,,,,,,2,,,,69,116
213485,control_change,0,0,3,,,,,,,,,2,11,47,,,
213485,note_on,5,0,3,,,,,,,,,2,,,,72,116
213488,note_on,60,0,13,,,,,,,,,12,,,,69,112
213488,note_on,0,0,13,,,,,,,,,12,,,,57,112
213489,note_on,0,0,4,,,,,,,,,3,,,,60,115
213489,note_on,5,0,4,,,,,,,,,3,,,,57,115
213489,control_change,0,0,4,,,,,,,,,3,11,47,,,
213492,note_on,60,0,14,,,,,,,,,13,,,,60,112
213494,note_on,0,0,15,,,,,,,,,14,,,,40,112
213494,note_on,120,0,15,,,,,,,,,14,,,,40,0
213600,note_on,240,0,11,,,,,,,,,10,,,,64,93
213600,set_tempo,120,1,0,,,,,,301508,,,,,,,,
213603,note_on,240,0,12,,,,,,,,,11,,,,60,93
213660,note_on,60,0,11,,,,,,,,,10,,,,64,0
213663,note_on,300,0,5,,,,,,,,,4,,,,64,100
213663,note_on,60,0,12,,,,,,,,,11,,,,60,0
213664,note_on,300,0,6,,,,,,,,,5,,,,52,100
213720,note_on,60,0,11,,,,,,,,,10,,,,69,93
213720,set_tempo,120,1,0,,,,,,326087,,,,,,,,
213723,note_on,60,0,5,,,,,,,,,4,,,,64,0
213723,note_on,60,0,12,,,,,,,,,11,,,,64,93
213723,note_on,0,0,5,,,,,,,,,4,,,,64,100
213724,note_on,0,0,6,,,,,,,,,5,,,,52,100
213724,note_on,60,0,6,,,,,,,,,5,,,,52,0
213728,note_on,240,0,13,,,,,,,,,12,,,,57,0
213728,note_on,0,0,13,,,,,,,,,12,,,,69,0
213732,note_on,240,0,14,,,,,,,,,13,,,,60,0
213734,note_on,240,0,15,,,,,,,,,14,,,,40,0
213780,note_on,60,0,11,,,,,,,,,10,,,,69,0
213783,note_on,60,0,12,,,,,,,,,11,,,,64,0
213840,set_tempo,120,1,0,,,,,,287081,,,,,,,,
213840,note_on,0,0,11,,,,,,,,,10,,,,72,93
213840,note_on,60,0,11,,,,,,,,,10,,,,64,93
213843,note_on,0,0,5,,,,,,,,,4,,,,64,100
213843,note_on,120,0,5,,,,,,,,,4,,,,64,0
213843,note_on,60,0,12,,,,,,,,,11,,,,60,93
213843,note_on,0,0,12,,,,,,,,,11,,,,69,93
213844,note_on,120,0,6,,,,,,,,,5,,,,52,0
213844,note_on,0,0,6,,,,,,,,,5,,,,52,100
213848,note_on,120,0,13,,,,,,,,,12,,,,57,112
213852,note_on,120,0,14,,,,,,,,,13,,,,52,112
213908,note_on,60,0,13,,,,,,,,,12,,,,57,0
213912,note_on,60,0,14,,,,,,,,,13,,,,52,0
213960,set_tempo,120,1,0,,,,,,303030,,,,,,,,
213965,note_on,480,0,3,,,,,,,,,2,,,,69,0
213965,note_on,0,0,3,,,,,,,,,2,,,,72,0
213965,note_on,0,0,3,,,,,,,,,2,,,,71,101
213965,note_on,0,0,3,,,,,,,,,2,,,,74,101
213965,control_change,0,0,3,,,,,,,,,2,11,47,,,
213968,note_on,60,0,13,,,,,,,,,12,,,,60,112
213969,note_on,0,0,4,,,,,,,,,3,,,,57,0
213969,note_on,480,0,4,,,,,,,,,3,,,,60,0
213969,note_on,0,0,4,,,,,,,,,3,,,,59,100
213969,control_change,0,0,4,,,,,,,,,3,11,47,,,
213969,note_on,0,0,4,,,,,,,,,3,,,,62,100
213972,note_on,60,0,14,,,,,,,,,13,,,,57,112
213989,control_change,24,0,3,,,,,,,,,2,11,49,,,
213993,control_change,24,0,4,,,,,,,,,3,11,49,,,
214013,control_change,24,0,3,,,,,,,,,2,11,51,,,
214017,control_change,24,0,4,,,,,,,,,3,11,51,,,
214028,note_on,60,0,13,,,,,,,,,12,,,,60,0
214032,note_on,60,0,14,,,,,,,,,13,,,,57,0
214034,note_on,300,0,15,,,,,,,,,14,,,,40,112
214037,control_change,24,0,3,,,,,,,,,2,11,52,,,
214041,control_change,24,0,4,,,,,,,,,3,11,53,,,
214061,control_change,24,0,3,,,,,,,,,2,11,54,,,
214065,control_change,24,0,4,,,,,,,,,3,11,55,,,
214080,note_on,0,0,11,,,,,,,,,10,,,,64,0
214080,set_tempo,120,1,0,,,,,,325203,,,,,,,,
214080,note_on,240,0,11,,,,,,,,,10,,,,72,0
214083,note_on,240,0,5,,,,,,,,,4,,,,64,0
214083,note_on,0,0,12,,,,,,,,,11,,,,60,0
214083,note_on,240,0,12,,,,,,,,,11,,,,69,0
214084,note_on,240,0,6,,,,,,,,,5,,,,52,0
214085,note_on,24,0,3,,,,,,,,,2,,,,74,0
214085,note_on,0,0,3,,,,,,,,,2,,,,71,0
214085,note_on,0,0,3,,,,,,,,,2,,,,72,101
214085,note_on,0,0,3,,,,,,,,,2,,,,76,101
214085,control_change,0,0,3,,,,,,,,,2,11,55,,,
214088,note_on,60,0,13,,,,,,,,,12,,,,64,112
214089,note_on,24,0,4,,,,,,,,,3,,,,62,0
214089,control_change,0,0,4,,,,,,,,,3,11,57,,,
214089,note_on,0,0,4,,,,,,,,,3,,,,64,100
214089,note_on,0,0,4,,,,,,,,,3,,,,60,100
214089,note_on,0,0,4,,,,,,,,,3,,,,59,0
214092,note_on,60,0,14,,,,,,,,,13,,,,60,112
214094,note_on,0,0,15,,,,,,,,,14,,,,40,112
214094,note_on,60,0,15,,,,,,,,,14,,,,40,0
214109,control_change,24,0,3,,,,,,,,,2,11,57,,,
214113,control_change,24,0,4,,,,,,,,,3,11,59,,,
214133,control_change,24,0,3,,,,,,,,,2,11,58,,,
214137,control_change,24,0,4,,,,,,,,,3,11,61,,,
214148,note_on,60,0,13,,,,,,,,,12,,,,64,0
214152,note_on,60,0,14,,,,,,,,,13,,,,60,0
214157,control_change,24,0,3,,,,,,,,,2,11,60,,,
214161,control_change,24,0,4,,,,,,,,,3,11,63,,,
214181,control_change,24,0,3,,,,,,,,,2,11,61,,,
214185,control_change,24,0,4,,,,,,,,,3,11,65,,,
214200,note_on,0,0,3,,,,,,,,,2,,,,72,0
214200,set_tempo,120,1,0,,,,,,287081,,,,,,,,
214200,note_on,19,0,3,,,,,,,,,2,,,,76,0
214204,note_on,0,0,4,,,,,,,,,3,,,,60,0
214204,note_on,19,0,4,,,,,,,,,3,,,,64,0
214205,control_change,0,0,3,,,,,,,,,2,11,67,,,
214205,note_on,0,0,3,,,,,,,,,2,,,,72,116
214205,note_on,5,0,3,,,,,,,,,2,,,,81,116
214208,note_on,0,0,13,,,,,,,,,12,,,,60,112
214208,note_on,60,0,13,,,,,,,,,12,,,,69,112
214209,note_on,0,0,4,,,,,,,,,3,,,,69,115
214209,note_on,0,0,4,,,,,,,,,3,,,,60,115
214209,control_change,5,0,4,,,,,,,,,3,11,72,,,
214212,note_on,60,0,14,,,,,,,,,13,,,,57,112
214214,note_on,0,0,15,,,,,,,,,14,,,,40,112
214214,note_on,120,0,15,,,,,,,,,14,,,,40,0
214241,control_change,36,0,3,,,,,,,,,2,11,66,,,
214245,control_change,36,0,4,,,,,,,,,3,11,71,,,
214277,control_change,36,0,3,,,,,,,,,2,11,65,,,
214281,control_change,36,0,4,,,,,,,,,3,11,70,,,
214313,control_change,36,0,3,,,,,,,,,2,11,64,,,
214317,control_change,36,0,4,,,,,,,,,3,11,69,,,
214320,set_tempo,120,1,0,,,,,,304569,,,,,,,,
214320,note_on,240,0,11,,,,,,,,,10,,,,64,93
214323,note_on,240,0,12,,,,,,,,,11,,,,60,93
214325,note_on,0,0,3,,,,,,,,,2,,,,71,101
214325,note_on,12,0,3,,,,,,,,,2,,,,72,0
214325,note_on,0,0,3,,,,,,,,,2,,,,81,0
214325,note_on,0,0,3,,,,,,,,,2,,,,77,101
214329,note_on,0,0,4,,,,,,,,,3,,,,65,100
214329,note_on,0,0,4,,,,,,,,,3,,,,59,100
214329,note_on,0,0,4,,,,,,,,,3,,,,60,0
214329,note_on,12,0,4,,,,,,,,,3,,,,69,0
214349,control_change,24,0,3,,,,,,,,,2,11,64,,,
214353,control_change,24,0,4,,,,,,,,,3,11,68,,,
214380,note_on,60,0,11,,,,,,,,,10,,,,64,0
214383,note_on,60,0,12,,,,,,,,,11,,,,60,0
214383,note_on,300,0,5,,,,,,,,,4,,,,64,100
214384,note_on,300,0,6,,,,,,,,,5,,,,52,100
214385,control_change,36,0,3,,,,,,,,,2,11,63,,,
214389,control_change,36,0,4,,,,,,,,,3,11,67,,,
214421,control_change,36,0,3,,,,,,,,,2,11,62,,,
214425,control_change,36,0,4,,,,,,,,,3,11,66,,,
214440,set_tempo,120,1,0,,,,,,325203,,,,,,,,
214440,note_on,60,0,11,,,,,,,,,10,,,,69,93
214443,note_on,60,0,5,,,,,,,,,4,,,,64,0
214443,note_on,0,0,5,,,,,,,,,4,,,,64,100
214443,note_on,60,0,12,,,,,,,,,11,,,,64,93
214444,note_on,60,0,6,,,,,,,,,5,,,,52,0
214444,note_on,0,0,6,,,,,,,,,5,,,,52,100
214445,note_on,0,0,3,,,,,,,,,2,,,,76,101
214445,note_on,24,0,3,,,,,,,,,2,,,,71,0
214445,note_on,0,0,3,,,,,,,,,2,,,,77,0
214445,note_on,0,0,3,,,,,,,,,2,,,,72,101
214448,note_on,0,0,13,,,,,,,,,12,,,,69,0
214448,note_on,240,0,13,,,,,,,,,12,,,,60,0
214449,note_on,0,0,4,,,,,,,,,3,,,,59,0
214449,note_on,24,0,4,,,,,,,,,3,,,,65,0
214449,note_on,0,0,4,,,,,,,,,3,,,,60,100
214449,note_on,0,0,4,,,,,,,,,3,,,,64,100
214452,note_on,240,0,14,,,,,,,,,13,,,,57,0
214454,note_on,240,0,15,,,,,,,,,14,,,,40,0
214457,control_change,12,0,3,,,,,,,,,2,11,61,,,
214461,control_change,12,0,4,,,,,,,,,3,11,65,,,
214493,control_change,36,0,3,,,,,,,,,2,11,61,,,
214497,control_change,36,0,4,,,,,,,,,3,11,64,,,
214500,note_on,60,0,11,,,,,,,,,10,,,,69,0
214503,note_on,60,0,12,,,,,,,,,11,,,,64,0
214529,control_change,36,0,3,,,,,,,,,2,11,60,,,
214533,control_change,36,0,4,,,,,,,,,3,11,63,,,
214560,note_on,0,0,11,,,,,,,,,10,,,,64,93
214560,note_on,31,0,3,,,,,,,,,2,,,,72,0
214560,note_on,60,0,11,,,,,,,,,10,,,,72,93
214560,note_on,0,0,3,,,,,,,,,2,,,,76,0
214560,set_tempo,120,1,0,,,,,,287081,,,,,,,,
214563,note_on,0,0,5,,,,,,,,,4,,,,64,100
214563,note_on,60,0,12,,,,,,,,,11,,,,69,93
214563,note_on,120,0,5,,,,,,,,,4,,,,64,0
214564,note_on,120,0,6,,,,,,,,,5,,,,52,0
214564,note_on,0,0,4,,,,,,,,,3,,,,60,0
214564,note_on,0,0,6,,,,,,,,,5,,,,52,100
214564,note_on,31,0,4,,,,,,,,,3,,,,64,0
214565,control_change,0,0,3,,,,,,,,,2,11,59,,,
214565,note_on,0,0,3,,,,,,,,,2,,,,76,101
214565,note_on,5,0,3,,,,,,,,,2,,,,72,101
214568,note_on,120,0,13,,,,,,,,,12,,,,60,112
214569,note_on,5,0,4,,,,,,,,,3,,,,60,100
214569,control_change,0,0,4,,,,,,,,,3,11,62,,,
214569,note_on,0,0,4,,,,,,,,,3,,,,64,100
214572,note_on,120,0,14,,,,,,,,,13,,,,57,112
214628,note_on,60,0,13,,,,,,,,,12,,,,60,0
214632,note_on,60,0,14,,,,,,,,,13,,,,57,0
214680,set_tempo,120,1,0,,,,,,304569,,,,,,,,
214685,note_on,0,0,3,,,,,,,,,2,,,,74,101
214685,note_on,0,0,3,,,,,,,,,2,,,,71,101
214685,note_on,120,0,3,,,,,,,,,2,,,,76,0
214685,note_on,0,0,3,,,,,,,,,2,,,,72,0
214688,note_on,60,0,13,,,,,,,,,12,,,,64,112
214689,note_on,0,0,4,,,,,,,,,3,,,,62,100
214689,note_on,0,0,4,,,,,,,,,3,,,,59,100
214689,note_on,120,0,4,,,,,,,,,3,,,,64,0
214689,note_on,0,0,4,,,,,,,,,3,,,,60,0
214692,note_on,60,0,14,,,,,,,,,13,,,,60,112
214748,note_on,60,0,13,,,,,,,,,12,,,,64,0
214752,note_on,60,0,14,,,,,,,,,13,,,,60,0
214754,note_on,300,0,15,,,,,,,,,14,,,,40,112
214800,set_tempo,120,1,0,,,,,,325203,,,,,,,,
214800,note_on,0,0,11,,,,,,,,,10,,,,72,0
214800,note_on,240,0,11,,,,,,,,,10,,,,64,0
214803,note_on,240,0,5,,,,,,,,,4,,,,64,0
214803,note_on,240,0,12,,,,,,,,,11,,,,69,0
214804,note_on,240,0,6,,,,,,,,,5,,,,52,0
214805,note_on,0,0,3,,,,,,,,,2,,,,69,101
214805,note_on,0,0,3,,,,,,,,,2,,,,72,101
214805,note_on,0,0,3,,,,,,,,,2,,,,74,0
214805,note_on,120,0,3,,,,,,,,,2,,,,71,0
214808,note_on,60,0,13,,,,,,,,,12,,,,69,112
214809,note_on,0,0,4,,,,,,,,,3,,,,60,100
214809,note_on,120,0,4,,,,,,,,,3,,,,62,0
214809,note_on,0,0,4,,,,,,,,,3,,,,57,100
214809,note_on,0,0,4,,,,,,,,,3,,,,59,0
214812,note_on,60,0,14,,,,,,,,,13,,,,64,112
214814,note_on,0,0,15,,,,,,,,,14,,,,40,112
214814,note_on,60,0,15,,,,,,,,,14,,,,40,0
214868,note_on,60,0,13,,,,,,,,,12,,,,69,0
214872,note_on,60,0,14,,,,,,,,,13,,,,64,0
214920,note_on,115,0,3,,,,,,,,,2,,,,69,0
214920,note_on,0,0,3,,,,,,,,,2,,,,72,0
214920,set_tempo,120,1,0,,,,,,289855,,,,,,,,
214924,note_on,115,0,4,,,,,,,,,3,,,,60,0
214924,note_on,0,0,4,,,,,,,,,3,,,,57,0
214925,control_change,0,0,3,,,,,,,,,2,11,59,,,
214925,note_on,0,0,3,,,,,,,,,2,,,,68,116
214925,note_on,5,0,3,,,,,,,,,2,,,,71,116
214928,note_on,0,0,13,,,,,,,,,12,,,,59,112
214928,note_on,60,0,13,,,,,,,,,12,,,,68,112
214929,control_change,0,0,4,,,,,,,,,3,11,62,,,
214929,note_on,0,0,4,,,,,,,,,3,,,,59,115
214929,note_on,5,0,4,,,,,,,,,3,,,,56,115
214932,note_on,60,0,14,,,,,,,,,13,,,,64,112
214934,note_on,0,0,15,,,,,,,,,14,,,,40,112
214934,note_on,120,0,15,,,,,,,,,14,,,,40,0
214949,control_change,24,0,3,,,,,,,,,2,11,58,,,
214953,control_change,24,0,4,,,,,,,,,3,11,61,,,
214973,control_change,24,0,3,,,,,,,,,2,11,58,,,
214977,control_change,24,0,4,,,,,,,,,3,11,60,,,
214997,control_change,24,0,3,,,,,,,,,2,11,57,,,
215001,control_change,24,0,4,,,,,,,,,3,11,59,,,
215021,control_change,24,0,3,,,,,,,,,2,11,56,,,
215025,control_change,24,0,4,,,,,,,,,3,11,58,,,
215040,set_tempo,120,1,0,,,,,,307692,,,,,,,,
215040,note_on,240,0,11,,,,,,,,,10,,,,64,93
215043,note_on,240,0,12,,,,,,,,,11,,,,59,93
215045,control_change,24,0,3,,,,,,,,,2,11,55,,,
215049,control_change,24,0,4,,,,,,,,,3,11,57,,,
215069,control_change,24,0,3,,,,,,,,,2,11,55,,,
215073,control_change,24,0,4,,,,,,,,,3,11,56,,,
215093,control_change,24,0,3,,,,,,,,,2,11,54,,,
215097,control_change,24,0,4,,,,,,,,,3,11,55,,,
215100,note_on,60,0,11,,,,,,,,,10,,,,64,0
215103,note_on,60,0,12,,,,,,,,,11,,,,59,0
215103,note_on,300,0,5,,,,,,,,,4,,,,64,100
215104,note_on,300,0,6,,,,,,,,,5,,,,52,100
215117,control_change,24,0,3,,,,,,,,,2,11,53,,,
215121,control_change,24,0,4,,,,,,,,,3,11,54,,,
215141,control_change,24,0,3,,,,,,,,,2,11,52,,,
215145,control_change,24,0,4,,,,,,,,,3,11,53,,,
215160,set_tempo,120,1,0,,,,,,326087,,,,,,,,
215160,note_on,60,0,11,,,,,,,,,10,,,,68,93
215163,note_on,0,0,5,,,,,,,,,4,,,,64,100
215163,note_on,60,0,5,,,,,,,,,4,,,,64,0
215163,note_on,60,0,12,,,,,,,,,11,,,,64,93
215164,note_on,0,0,6,,,,,,,,,5,,,,52,100
215164,note_on,60,0,6,,,,,,,,,5,,,,52,0
215165,control_change,24,0,3,,,,,,,,,2,11,52,,,
215168,note_on,0,0,13,,,,,,,,,12,,,,68,0
215168,note_on,240,0,13,,,,,,,,,12,,,,59,0
215169,control_change,24,0,4,,,,,,,,,3,11,52,,,
215172,note_on,240,0,14,,,,,,,,,13,,,,64,0
215174,note_on,240,0,15,,,,,,,,,14,,,,40,0
215189,control_change,24,0,3,,,,,,,,,2,11,51,,,
215193,control_change,24,0,4,,,,,,,,,3,11,51,,,
215213,control_change,24,0,3,,,,,,,,,2,11,50,,,
215217,control_change,24,0,4,,,,,,,,,3,11,50,,,
215220,note_on,60,0,11,,,,,,,,,10,,,,68,0
215223,note_on,60,0,12,,,,,,,,,11,,,,64,0
215237,control_change,24,0,3,,,,,,,,,2,11,49,,,
215241,control_change,24,0,4,,,,,,,,,3,11,49,,,
215261,control_change,24,0,3,,,,,,,,,2,11,48,,,
215265,control_change,24,0,4,,,,,,,,,3,11,48,,,
215280,set_tempo,120,1,0,,,,,,289855,,,,,,,,
215280,note_on,0,0,11,,,,,,,,,10,,,,64,93
215280,note_on,60,0,11,,,,,,,,,10,,,,71,93
215283,note_on,0,0,5,,,,,,,,,4,,,,64,100
215283,note_on,0,0,12,,,,,,,,,11,,,,59,93
215283,note_on,60,0,12,,,,,,,,,11,,,,68,93
215283,note_on,120,0,5,,,,,,,,,4,,,,64,0
215284,note_on,120,0,6,,,,,,,,,5,,,,52,0
215284,note_on,0,0,6,,,,,,,,,5,,,,52,100
215285,control_change,24,0,3,,,,,,,,,2,11,47,,,
215288,note_on,120,0,13,,,,,,,,,12,,,,56,112
215289,control_change,24,0,4,,,,,,,,,3,11,47,,,
215292,note_on,120,0,14,,,,,,,,,13,,,,52,112
215309,control_change,24,0,3,,,,,,,,,2,11,41,,,
215313,control_change,24,0,4,,,,,,,,,3,11,41,,,
215333,control_change,24,0,3,,,,,,,,,2,11,40,,,
215337,control_change,24,0,4,,,,,,,,,3,11,40,,,
215348,note_on,60,0,13,,,,,,,,,12,,,,56,0
215352,note_on,60,0,14,,,,,,,,,13,,,,52,0
215357,control_change,24,0,3,,,,,,,,,2,11,39,,,
215361,control_change,24,0,4,,,,,,,,,3,11,39,,,
215381,control_change,24,0,3,,,,,,,,,2,11,38,,,
215385,control_change,24,0,4,,,,,,,,,3,11,38,,,
215400,set_tempo,120,1,0,,,,,,307692,,,,,,,,
215405,note_on,0,0,3,,,,,,,,,2,,,,71,0
215405,note_on,0,0,3,,,,,,,,,2,,,,69,101
215405,note_on,0,0,3,,,,,,,,,2,,,,72,101
215405,control_change,0,0,3,,,,,,,,,2,11,37,,,
215405,note_on,24,0,3,,,,,,,,,2,,,,68,0
215408,note_on,60,0,13,,,,,,,,,12,,,,59,112
215409,control_change,0,0,4,,,,,,,,,3,11,37,,,
215409,note_on,24,0,4,,,,,,,,,3,,,,59,0
215409,note_on,0,0,4,,,,,,,,,3,,,,56,0
215409,note_on,0,0,4,,,,,,,,,3,,,,57,100
215409,note_on,0,0,4,,,,,,,,,3,,,,60,100
215412,note_on,60,0,14,,,,,,,,,13,,,,56,112
215429,control_change,24,0,3,,,,,,,,,2,11,38,,,
215433,control_change,24,0,4,,,,,,,,,3,11,38,,,
215453,control_change,24,0,3,,,,,,,,,2,11,39,,,
215457,control_change,24,0,4,,,,,,,,,3,11,39,,,
215468,note_on,60,0,13,,,,,,,,,12,,,,59,0
215472,note_on,60,0,14,,,,,,,,,13,,,,56,0
215474,note_on,300,0,15,,,,,,,,,14,,,,40,112
215477,control_change,24,0,3,,,,,,,,,2,11,40,,,
215481,control_change,24,0,4,,,,,,,,,3,11,40,,,
215501,control_change,24,0,3,,,,,,,,,2,11,41,,,
215505,control_change,24,0,4,,,,,,,,,3,11,41,,,
215520,note_on,0,0,11,,,,,,,,,10,,,,71,0
215520,set_tempo,120,1,0,,,,,,326087,,,,,,,,
215520,note_on,240,0,11,,,,,,,,,10,,,,64,0
215520,control_change,0,0,11,,,,,,,,,10,11,41,,,
215523,note_on,0,0,12,,,,,,,,,11,,,,68,0
215523,note_on,240,0,12,,,,,,,,,11,,,,59,0
215523,note_on,240,0,5,,,,,,,,,4,,,,64,0
215523,control_change,0,0,12,,,,,,,,,11,11,41,,,
215524,note_on,240,0,6,,,,,,,,,5,,,,52,0
215525,control_change,0,0,3,,,,,,,,,2,11,47,,,
215525,note_on,0,0,3,,,,,,,,,2,,,,71,101
215525,note_on,0,0,3,,,,,,,,,2,,,,68,101
215525,note_on,0,0,3,,,,,,,,,2,,,,69,0
215525,note_on,24,0,3,,,,,,,,,2,,,,72,0
215528,note_on,0,0,13,,,,,,,,,12,,,,64,112
215528,control_change,60,0,13,,,,,,,,,12,11,41,,,
215529,note_on,24,0,4,,,,,,,,,3,,,,60,0
215529,note_on,0,0,4,,,,,,,,,3,,,,57,0
215529,note_on,0,0,4,,,,,,,,,3,,,,56,100
215529,note_on,0,0,4,,,,,,,,,3,,,,59,100
215529,control_change,0,0,4,,,,,,,,,3,11,47,,,
215532,note_on,60,0,14,,,,,,,,,13,,,,59,112
215532,control_change,0,0,14,,,,,,,,,13,11,41,,,
215534,note_on,60,0,15,,,,,,,,,14,,,,40,0
215534,note_on,0,0,15,,,,,,,,,14,,,,40,112
215534,control_change,0,0,15,,,,,,,,,14,11,41,,,
215549,control_change,24,0,3,,,,,,,,,2,11,48,,,
215553,control_change,24,0,4,,,,,,,,,3,11,48,,,
215570,control_change,50,0,11,,,,,,,,,10,11,42,,,
215573,control_change,50,0,12,,,,,,,,,11,11,42,,,
215573,control_change,24,0,3,,,,,,,,,2,11,49,,,
215577,control_change,24,0,4,,,,,,,,,3,11,49,,,
215578,control_change,50,0,13,,,,,,,,,12,11,42,,,
215582,control_change,50,0,14,,,,,,,,,13,11,42,,,
215584,control_change,50,0,15,,,,,,,,,14,11,42,,,
215588,note_on,10,0,13,,,,,,,,,12,,,,64,0
215592,note_on,10,0,14,,,,,,,,,13,,,,59,0
215597,control_change,24,0,3,,,,,,,,,2,11,50,,,
215601,control_change,24,0,4,,,,,,,,,3,11,50,,,
215621,control_change,51,0,11,,,,,,,,,10,11,42,,,
215621,control_change,24,0,3,,,,,,,,,2,11,51,,,
215624,control_change,51,0,12,,,,,,,,,11,11,42,,,
215625,control_change,24,0,4,,,,,,,,,3,11,51,,,
215629,control_change,41,0,13,,,,,,,,,12,11,42,,,
215633,control_change,41,0,14,,,,,,,,,13,11,42,,,
215635,control_change,51,0,15,,,,,,,,,14,11,42,,,
215640,note_on,0,0,3,,,,,,,,,2,,,,68,0
215640,set_tempo,120,1,0,,,,,,289855,,,,,,,,
215640,note_on,19,0,3,,,,,,,,,2,,,,71,0
215644,note_on,19,0,4,,,,,,,,,3,,,,59,0
215644,note_on,0,0,4,,,,,,,,,3,,,,56,0
215645,note_on,5,0,3,,,,,,,,,2,,,,72,116
215645,control_change,0,0,3,,,,,,,,,2,11,52,,,
215645,note_on,0,0,3,,,,,,,,,2,,,,69,116
215648,note_on,19,0,13,,,,,,,,,12,,,,60,112
215649,note_on,5,0,4,,,,,,,,,3,,,,57,115
215649,control_change,0,0,4,,,,,,,,,3,11,52,,,
215649,note_on,0,0,4,,,,,,,,,3,,,,60,115
215652,note_on,19,0,14,,,,,,,,,13,,,,57,112
215654,note_on,19,0,15,,,,,,,,,14,,,,40,0
215654,note_on,0,0,15,,,,,,,,,14,,,,40,112
215672,control_change,51,0,11,,,,,,,,,10,11,43,,,
215675,control_change,51,0,12,,,,,,,,,11,11,43,,,
215680,control_change,32,0,13,,,,,,,,,12,11,43,,,
215684,control_change,32,0,14,,,,,,,,,13,11,43,,,
215686,control_change,32,0,15,,,,,,,,,14,11,43,,,
215713,control_change,68,0,3,,,,,,,,,2,11,52,,,
215717,control_change,68,0,4,,,,,,,,,3,11,53,,,
215722,control_change,50,0,11,,,,,,,,,10,11,44,,,
215725,control_change,50,0,12,,,,,,,,,11,11,44,,,
215730,control_change,50,0,13,,,,,,,,,12,11,44,,,
215734,control_change,50,0,14,,,,,,,,,13,11,44,,,
215736,control_change,50,0,15,,,,,,,,,14,11,44,,,
215760,set_tempo,120,1,0,,,,,,307692,,,,,,,,
215760,note_on,38,0,11,,,,,,,,,10,,,,64,93
215763,note_on,38,0,12,,,,,,,,,11,,,,60,93
215773,control_change,13,0,11,,,,,,,,,10,11,45,,,
215776,control_change,13,0,12,,,,,,,,,11,11,45,,,
215781,control_change,51,0,13,,,,,,,,,12,11,45,,,
215781,control_change,68,0,3,,,,,,,,,2,11,53,,,
215785,control_change,51,0,14,,,,,,,,,13,11,45,,,
215785,control_change,68,0,4,,,,,,,,,3,11,54,,,
215787,control_change,51,0,15,,,,,,,,,14,11,45,,,
215820,note_on,47,0,11,,,,,,,,,10,,,,64,0
215823,control_change,300,0,5,,,,,,,,,4,11,47,,,
215823,note_on,47,0,12,,,,,,,,,11,,,,60,0
215823,note_on,0,0,5,,,,,,,,,4,,,,64,100
215824,note_on,0,0,6,,,,,,,,,5,,,,52,100
215824,control_change,300,0,6,,,,,,,,,5,11,47,,,
215824,control_change,4,0,11,,,,,,,,,10,11,46,,,
215827,control_change,4,0,12,,,,,,,,,11,11,46,,,
215832,control_change,51,0,13,,,,,,,,,12,11,46,,,
215836,control_change,51,0,14,,,,,,,,,13,11,46,,,
215838,control_change,51,0,15,,,,,,,,,14,11,46,,,
215849,control_change,68,0,3,,,,,,,,,2,11,54,,,
215853,control_change,68,0,4,,,,,,,,,3,11,55,,,
215869,control_change,46,0,5,,,,,,,,,4,11,48,,,
215870,control_change,46,0,6,,,,,,,,,5,11,48,,,
215874,control_change,50,0,11,,,,,,,,,10,11,47,,,
215877,control_change,50,0,12,,,,,,,,,11,11,47,,,
215880,set_tempo,120,1,0,,,,,,326087,,,,,,,,
215880,note_on,6,0,11,,,,,,,,,10,,,,69,93
215882,control_change,50,0,13,,,,,,,,,12,11,47,,,
215883,note_on,6,0,12,,,,,,,,,11,,,,64,93
215883,note_on,14,0,5,,,,,,,,,4,,,,64,0
215883,note_on,0,0,5,,,,,,,,,4,,,,64,100
215884,note_on,0,0,6,,,,,,,,,5,,,,52,100
215884,note_on,14,0,6,,,,,,,,,5,,,,52,0
215886,control_change,50,0,14,,,,,,,,,13,11,47,,,
215888,note_on,6,0,13,,,,,,,,,12,,,,60,0
215888,control_change,50,0,15,,,,,,,,,14,11,47,,,
215892,note_on,6,0,14,,,,,,,,,13,,,,57,0
215894,note_on,6,0,15,,,,,,,,,14,,,,40,0
215915,control_change,32,0,5,,,,,,,,,4,11,49,,,
215916,control_change,32,0,6,,,,,,,,,5,11,49,,,
215917,control_change,68,0,3,,,,,,,,,2,11,55,,,
215921,control_change,68,0,4,,,,,,,,,3,11,56,,,
215925,control_change,45,0,11,,,,,,,,,10,11,48,,,
215928,control_change,45,0,12,,,,,,,,,11,11,48,,,
215933,control_change,45,0,13,,,,,,,,,12,11,48,,,
215937,control_change,45,0,14,,,,,,,,,13,11,48,,,
215939,control_change,45,0,15,,,,,,,,,14,11,48,,,
215940,note_on,15,0,11,,,,,,,,,10,,,,69,0
215943,note_on,15,0,12,,,,,,,,,11,,,,64,0
215961,control_change,46,0,5,,,,,,,,,4,11,50,,,
215962,control_change,46,0,6,,,,,,,,,5,11,50,,,
215976,control_change,36,0,11,,,,,,,,,10,11,49,,,
215979,control_change,36,0,12,,,,,,,,,11,11,49,,,
215984,control_change,51,0,13,,,,,,,,,12,11,49,,,
215985,control_change,68,0,3,,,,,,,,,2,11,55,,,
215988,control_change,51,0,14,,,,,,,,,13,11,49,,,
215989,control_change,68,0,4,,,,,,,,,3,11,57,,,
215990,control_change,51,0,15,,,,,,,,,14,11,49,,,
216000,note_on,24,0,11,,,,,,,,,10,,,,72,93
216000,set_tempo,120,1,0,,,,,,289855,,,,,,,,
216000,note_on,0,0,11,,,,,,,,,10,,,,64,93
216003,note_on,0,0,5,,,,,,,,,4,,,,64,100
216003,note_on,42,0,5,,,,,,,,,4,,,,64,0
216003,note_on,24,0,12,,,,,,,,,11,,,,60,93
216003,note_on,0,0,12,,,,,,,,,11,,,,69,93
216004,note_on,0,0,6,,,,,,,,,5,,,,52,100
216004,note_on,42,0,6,,,,,,,,,5,,,,52,0
216008,note_on,24,0,13,,,,,,,,,12,,,,57,112
216008,control_change,5,0,5,,,,,,,,,4,11,51,,,
216009,control_change,5,0,6,,,,,,,,,5,11,51,,,
216012,note_on,24,0,14,,,,,,,,,13,,,,52,112
216026,control_change,26,0,11,,,,,,,,,10,11,50,,,
216029,control_change,26,0,12,,,,,,,,,11,11,50,,,
216034,control_change,26,0,13,,,,,,,,,12,11,50,,,
216038,control_change,26,0,14,,,,,,,,,13,11,50,,,
216040,control_change,50,0,15,,,,,,,,,14,11,50,,,
216053,control_change,68,0,3,,,,,,,,,2,11,56,,,
216054,control_change,46,0,5,,,,,,,,,4,11,52,,,
216055,control_change,46,0,6,,,,,,,,,5,11,52,,,
216057,control_change,68,0,4,,,,,,,,,3,11,58,,,
216068,note_on,34,0,13,,,,,,,,,12,,,,57,0
216072,note_on,34,0,14,,,,,,,,,13,,,,52,0
216085,control_change,17,0,13,,,,,,,,,12,11,51,,,
216089,control_change,17,0,14,,,,,,,,,13,11,51,,,
216091,control_change,51,0,15,,,,,,,,,14,11,51,,,
216100,control_change,46,0,5,,,,,,,,,4,11,53,,,
216101,control_change,46,0,6,,,,,,,,,5,11,53,,,
216120,set_tempo,120,1,0,,,,,,307692,,,,,,,,
216121,control_change,68,0,3,,,,,,,,,2,11,57,,,
216125,note_on,0,0,3,,,,,,,,,2,,,,74,101
216125,note_on,0,0,3,,,,,,,,,2,,,,71,101
216125,control_change,68,0,4,,,,,,,,,3,11,59,,,
216125,note_on,0,0,3,,,,,,,,,2,,,,72,0
216125,note_on,4,0,3,,,,,,,,,2,,,,69,0
216128,note_on,43,0,13,,,,,,,,,12,,,,60,112
216129,note_on,0,0,4,,,,,,,,,3,,,,57,0
216129,note_on,4,0,4,,,,,,,,,3,,,,60,0
216129,note_on,0,0,4,,,,,,,,,3,,,,62,100
216129,note_on,0,0,4,,,,,,,,,3,,,,59,100
216132,note_on,43,0,14,,,,,,,,,13,,,,57,112
216136,control_change,8,0,13,,,,,,,,,12,11,52,,,
216140,control_change,8,0,14,,,,,,,,,13,11,52,,,
216142,control_change,51,0,15,,,,,,,,,14,11,52,,,
216147,control_change,47,0,5,,,,,,,,,4,11,54,,,
216148,control_change,47,0,6,,,,,,,,,5,11,54,,,
216186,control_change,50,0,13,,,,,,,,,12,11,53,,,
216188,note_on,2,0,13,,,,,,,,,12,,,,60,0
216189,control_change,64,0,3,,,,,,,,,2,11,58,,,
216190,control_change,50,0,14,,,,,,,,,13,11,53,,,
216192,control_change,50,0,15,,,,,,,,,14,11,53,,,
216192,note_on,2,0,14,,,,,,,,,13,,,,57,0
216193,control_change,64,0,4,,,,,,,,,3,11,60,,,
216193,control_change,46,0,5,,,,,,,,,4,11,55,,,
216194,note_on,2,0,15,,,,,,,,,14,,,,40,112
216194,control_change,46,0,6,,,,,,,,,5,11,55,,,
216237,control_change,49,0,13,,,,,,,,,12,11,54,,,
216239,control_change,46,0,5,,,,,,,,,4,11,56,,,
216240,note_on,214,0,11,,,,,,,,,10,,,,64,0
216240,control_change,46,0,6,,,,,,,,,5,11,56,,,
216240,note_on,0,0,11,,,,,,,,,10,,,,72,0
216240,set_tempo,120,1,0,,,,,,326087,,,,,,,,
216241,control_change,49,0,14,,,,,,,,,13,11,54,,,
216243,control_change,49,0,15,,,,,,,,,14,11,54,,,
216243,note_on,0,0,12,,,,,,,,,11,,,,60,0
216243,note_on,214,0,12,,,,,,,,,11,,,,69,0
216243,note_on,4,0,5,,,,,,,,,4,,,,64,0
216244,note_on,4,0,6,,,,,,,,,5,,,,52,0
216245,note_on,0,0,3,,,,,,,,,2,,,,72,101
216245,note_on,56,0,3,,,,,,,,,2,,,,74,0
216245,note_on,0,0,3,,,,,,,,,2,,,,69,101
216245,note_on,0,0,3,,,,,,,,,2,,,,71,0
216248,note_on,11,0,13,,,,,,,,,12,,,,64,112
216249,note_on,0,0,4,,,,,,,,,3,,,,60,100
216249,note_on,0,0,4,,,,,,,,,3,,,,57,100
216249,note_on,0,0,4,,,,,,,,,3,,,,59,0
216249,note_on,56,0,4,,,,,,,,,3,,,,62,0
216252,note_on,11,0,14,,,,,,,,,13,,,,60,112
216254,note_on,0,0,15,,,,,,,,,14,,,,40,112
216254,note_on,11,0,15,,,,,,,,,14,,,,40,0
216257,control_change,12,0,3,,,,,,,,,2,11,58,,,
216261,control_change,12,0,4,,,,,,,,,3,11,61,,,
216285,control_change,42,0,5,,,,,,,,,4,11,57,,,
216286,control_change,42,0,6,,,,,,,,,5,11,57,,,
216288,control_change,40,0,13,,,,,,,,,12,11,55,,,
216292,control_change,40,0,14,,,,,,,,,13,11,55,,,
216294,control_change,40,0,15,,,,,,,,,14,11,55,,,
216308,note_on,20,0,13,,,,,,,,,12,,,,64,0
216312,note_on,20,0,14,,,,,,,,,13,,,,60,0
216324,control_change,4040,0,2,,,,,,,,,1,11,59,,,
216325,control_change,68,0,3,,,,,,,,,2,11,59,,,
216329,control_change,68,0,4,,,,,,,,,3,11,62,,,
216332,control_change,47,0,5,,,,,,,,,4,11,58,,,
216333,control_change,47,0,6,,,,,,,,,5,11,58,,,
216338,control_change,30,0,13,,,,,,,,,12,11,56,,,
216342,control_change,30,0,14,,,,,,,,,13,11,56,,,
216344,control_change,50,0,15,,,,,,,,,14,11,56,,,
216360,note_on,35,0,3,,,,,,,,,2,,,,72,0
216360,note_on,0,0,3,,,,,,,,,2,,,,69,0
216360,set_tempo,120,1,0,,,,,,289855,,,,,,,,
216364,note_on,0,0,4,,,,,,,,,3,,,,60,0
216364,note_on,40,0,2,,,,,,,,,1,,,,74,115
216364,note_on,0,0,2,,,,,,,,,1,,,,71,115
216364,note_on,35,0,4,,,,,,,,,3,,,,57,0
216365,note_on,0,0,3,,,,,,,,,2,,,,74,116
216365,note_on,5,0,3,,,,,,,,,2,,,,71,116
216368,note_on,30,0,13,,,,,,,,,12,,,,62,112
216369,note_on,5,0,4,,,,,,,,,3,,,,59,115
216369,note_on,0,0,4,,,,,,,,,3,,,,62,115
216372,note_on,30,0,14,,,,,,,,,13,,,,59,112
216374,note_on,0,0,15,,,,,,,,,14,,,,40,112
216374,note_on,30,0,15,,,,,,,,,14,,,,40,0
216378,control_change,46,0,5,,,,,,,,,4,11,59,,,
216379,control_change,46,0,6,,,,,,,,,5,11,59,,,
216389,control_change,21,0,13,,,,,,,,,12,11,57,,,
216392,control_change,28,0,2,,,,,,,,,1,11,60,,,
216393,control_change,21,0,14,,,,,,,,,13,11,57,,,
216393,control_change,28,0,3,,,,,,,,,2,11,60,,,
216395,control_change,21,0,15,,,,,,,,,14,11,57,,,
216397,control_change,28,0,4,,,,,,,,,3,11,63,,,
216424,control_change,46,0,5,,,,,,,,,4,11,60,,,
216425,control_change,46,0,6,,,,,,,,,5,11,60,,,
216432,control_change,192,0,11,,,,,,,,,10,11,57,,,
216435,control_change,192,0,12,,,,,,,,,11,11,57,,,
216440,control_change,51,0,13,,,,,,,,,12,11,57,,,
216444,control_change,51,0,14,,,,,,,,,13,11,57,,,
216446,control_change,51,0,15,,,,,,,,,14,11,57,,,
216460,control_change,68,0,2,,,,,,,,,1,11,61,,,
216461,control_change,68,0,3,,,,,,,,,2,11,61,,,
216465,control_change,68,0,4,,,,,,,,,3,11,64,,,
216471,control_change,47,0,5,,,,,,,,,4,11,61,,,
216472,control_change,47,0,6,,,,,,,,,5,11,61,,,
216480,note_on,48,0,11,,,,,,,,,10,,,,64,93
216480,set_tempo,120,1,0,,,,,,303030,,,,,,,,
216482,control_change,2,0,11,,,,,,,,,10,11,58,,,
216483,note_on,48,0,12,,,,,,,,,11,,,,62,93
216485,control_change,2,0,12,,,,,,,,,11,11,58,,,
216490,control_change,50,0,13,,,,,,,,,12,11,58,,,
216494,control_change,50,0,14,,,,,,,,,13,11,58,,,
216496,control_change,50,0,15,,,,,,,,,14,11,58,,,
216517,control_change,46,0,5,,,,,,,,,4,11,62,,,
216518,control_change,46,0,6,,,,,,,,,5,11,62,,,
216528,control_change,68,0,2,,,,,,,,,1,11,61,,,
216529,control_change,68,0,3,,,,,,,,,2,11,61,,,
216533,control_change,51,0,11,,,,,,,,,10,11,59,,,
216533,control_change,68,0,4,,,,,,,,,3,11,65,,,
216536,control_change,51,0,12,,,,,,,,,11,11,59,,,
216540,note_on,7,0,11,,,,,,,,,10,,,,64,0
216541,control_change,51,0,13,,,,,,,,,12,11,59,,,
216543,note_on,7,0,12,,,,,,,,,11,,,,62,0
216543,note_on,26,0,5,,,,,,,,,4,,,,64,100
216544,note_on,26,0,6,,,,,,,,,5,,,,52,100
216545,control_change,51,0,14,,,,,,,,,13,11,59,,,
216547,control_change,51,0,15,,,,,,,,,14,11,59,,,
216563,control_change,20,0,5,,,,,,,,,4,11,63,,,
216564,control_change,20,0,6,,,,,,,,,5,11,63,,,
216584,control_change,44,0,11,,,,,,,,,10,11,60,,,
216587,control_change,44,0,12,,,,,,,,,11,11,60,,,
216592,control_change,51,0,13,,,,,,,,,12,11,60,,,
216596,control_change,51,0,14,,,,,,,,,13,11,60,,,
216596,control_change,68,0,2,,,,,,,,,1,11,62,,,
216597,control_change,68,0,3,,,,,,,,,2,11,62,,,
216598,control_change,51,0,15,,,,,,,,,14,11,60,,,
216600,set_tempo,120,1,0,,,,,,326087,,,,,,,,
216600,note_on,16,0,11,,,,,,,,,10,,,,71,93
216601,control_change,68,0,4,,,,,,,,,3,11,66,,,
216603,note_on,16,0,12,,,,,,,,,11,,,,64,93
216603,note_on,40,0,5,,,,,,,,,4,,,,64,0
216603,note_on,0,0,5,,,,,,,,,4,,,,64,100
216604,note_on,0,0,6,,,,,,,,,5,,,,52,100
216604,note_on,40,0,6,,,,,,,,,5,,,,52,0
216608,note_on,16,0,13,,,,,,,,,12,,,,62,0
216609,control_change,6,0,5,,,,,,,,,4,11,64,,,
216610,control_change,6,0,6,,,,,,,,,5,11,64,,,
216612,note_on,16,0,14,,,,,,,,,13,,,,59,0
216614,note_on,16,0,15,,,,,,,,,14,,,,40,0
216634,control_change,34,0,11,,,,,,,,,10,11,61,,,
216637,control_change,34,0,12,,,,,,,,,11,11,61,,,
216642,control_change,34,0,13,,,,,,,,,12,11,61,,,
216646,control_change,34,0,14,,,,,,,,,13,11,61,,,
216648,control_change,34,0,15,,,,,,,,,14,11,61,,,
216656,control_change,47,0,5,,,,,,,,,4,11,65,,,
216657,control_change,47,0,6,,,,,,,,,5,11,65,,,
216660,note_on,26,0,11,,,,,,,,,10,,,,71,0
216663,note_on,26,0,12,,,,,,,,,11,,,,64,0
216664,control_change,68,0,2,,,,,,,,,1,11,63,,,
216665,control_change,68,0,3,,,,,,,,,2,11,63,,,
216669,control_change,68,0,4,,,,,,,,,3,11,67,,,
216685,control_change,25,0,11,,,,,,,,,10,11,62,,,
216688,control_change,25,0,12,,,,,,,,,11,11,62,,,
216693,control_change,51,0,13,,,,,,,,,12,11,62,,,
216697,control_change,51,0,14,,,,,,,,,13,11,62,,,
216699,control_change,51,0,15,,,,,,,,,14,11,62,,,
216702,control_change,46,0,5,,,,,,,,,4,11,66,,,
216703,control_change,46,0,6,,,,,,,,,5,11,66,,,
216720,note_on,0,0,11,,,,,,,,,10,,,,74,93
216720,note_on,35,0,11,,,,,,,,,10,,,,64,93
216720,set_tempo,120,1,0,,,,,,288462,,,,,,,,
216723,note_on,21,0,5,,,,,,,,,4,,,,64,0
216723,note_on,35,0,12,,,,,,,,,11,,,,64,93
216723,note_on,0,0,12,,,,,,,,,11,,,,71,93
216723,note_on,0,0,5,,,,,,,,,4,,,,64,100
216724,note_on,21,0,6,,,,,,,,,5,,,,52,0
216724,note_on,0,0,6,,,,,,,,,5,,,,52,100
216728,note_on,35,0,13,,,,,,,,,12,,,,59,112
216732,control_change,68,0,2,,,,,,,,,1,11,64,,,
216732,note_on,35,0,14,,,,,,,,,13,,,,52,112
216733,control_change,68,0,3,,,,,,,,,2,11,64,,,
216736,control_change,16,0,11,,,,,,,,,10,11,63,,,
216737,control_change,68,0,4,,,,,,,,,3,11,68,,,
216739,control_change,16,0,12,,,,,,,,,11,11,63,,,
216744,control_change,16,0,13,,,,,,,,,12,11,63,,,
216748,control_change,16,0,14,,,,,,,,,13,11,63,,,
216748,control_change,25,0,5,,,,,,,,,4,11,67,,,
216749,control_change,25,0,6,,,,,,,,,5,11,67,,,
216750,control_change,51,0,15,,,,,,,,,14,11,63,,,
216788,note_on,44,0,13,,,,,,,,,12,,,,59,0
216792,note_on,44,0,14,,,,,,,,,13,,,,52,0
216794,control_change,6,0,13,,,,,,,,,12,11,64,,,
216795,control_change,47,0,5,,,,,,,,,4,11,68,,,
216796,control_change,47,0,6,,,,,,,,,5,11,68,,,
216798,control_change,6,0,14,,,,,,,,,13,11,64,,,
216800,control_change,50,0,15,,,,,,,,,14,11,64,,,
216800,control_change,68,0,2,,,,,,,,,1,11,64,,,
216801,control_change,68,0,3,,,,,,,,,2,11,64,,,
216805,control_change,68,0,4,,,,,,,,,3,11,69,,,
216840,set_tempo,120,1,0,,,,,,300000,,,,,,,,
216841,control_change,46,0,5,,,,,,,,,4,11,69,,,
216842,control_change,46,0,6,,,,,,,,,5,11,69,,,
216844,note_on,44,0,2,,,,,,,,,1,,,,71,0
216844,note_on,0,0,2,,,,,,,,,1,,,,74,0
216844,note_on,0,0,2,,,,,,,,,1,,,,76,100
216844,note_on,0,0,2,,,,,,,,,1,,,,72,100
216845,note_on,0,0,3,,,,,,,,,2,,,,76,101
216845,note_on,0,0,3,,,,,,,,,2,,,,72,101
216845,note_on,0,0,3,,,,,,,,,2,,,,71,0
216845,note_on,44,0,3,,,,,,,,,2,,,,74,0
216845,control_change,51,0,13,,,,,,,,,12,11,65,,,
216848,note_on,3,0,13,,,,,,,,,12,,,,62,112
216849,note_on,44,0,4,,,,,,,,,3,,,,62,0
216849,note_on,0,0,4,,,,,,,,,3,,,,64,100
216849,note_on,0,0,4,,,,,,,,,3,,,,60,100
216849,control_change,51,0,14,,,,,,,,,13,11,65,,,
216849,note_on,0,0,4,,,,,,,,,3,,,,59,0
216851,control_change,51,0,15,,,,,,,,,14,11,65,,,
216852,note_on,3,0,14,,,,,,,,,13,,,,59,112
216868,control_change,24,0,2,,,,,,,,,1,11,65,,,
216869,control_change,24,0,3,,,,,,,,,2,11,65,,,
216873,control_change,24,0,4,,,,,,,,,3,11,70,,,
216887,control_change,46,0,5,,,,,,,,,4,11,70,,,
216888,control_change,46,0,6,,,,,,,,,5,11,70,,,
216896,control_change,48,0,13,,,,,,,,,12,11,66,,,
216900,control_change,48,0,14,,,,,,,,,13,11,66,,,
216902,control_change,51,0,15,,,,,,,,,14,11,66,,,
216908,note_on,12,0,13,,,,,,,,,12,,,,62,0
216912,note_on,12,0,14,,,,,,,,,13,,,,59,0
216914,note_on,12,0,15,,,,,,,,,14,,,,40,112
216933,control_change,46,0,5,,,,,,,,,4,11,71,,,
216934,control_change,46,0,6,,,,,,,,,5,11,71,,,
216936,control_change,68,0,2,,,,,,,,,1,11,66,,,
216937,control_change,68,0,3,,,,,,,,,2,11,66,,,
216941,control_change,68,0,4,,,,,,,,,3,11,71,,,
216946,control_change,38,0,13,,,,,,,,,12,11,67,,,
216950,control_change,38,0,14,,,,,,,,,13,11,67,,,
216952,control_change,38,0,15,,,,,,,,,14,11,67,,,
216960,note_on,0,0,11,,,,,,,,,10,,,,64,0
216960,set_tempo,120,1,0,,,,,,326087,,,,,,,,
216960,note_on,224,0,11,,,,,,,,,10,,,,74,0
216963,note_on,30,0,5,,,,,,,,,4,,,,64,0
216963,note_on,0,0,12,,,,,,,,,11,,,,64,0
216963,note_on,224,0,12,,,,,,,,,11,,,,71,0
216964,note_on,0,0,2,,,,,,,,,1,,,,71,100
216964,note_on,0,0,2,,,,,,,,,1,,,,74,100
216964,note_on,0,0,2,,,,,,,,,1,,,,72,0
216964,note_on,28,0,2,,,,,,,,,1,,,,76,0
216964,note_on,30,0,6,,,,,,,,,5,,,,52,0
216965,note_on,28,0,3,,,,,,,,,2,,,,76,0
216965,note_on,0,0,3,,,,,,,,,2,,,,72,0
216965,note_on,0,0,3,,,,,,,,,2,,,,74,101
216965,note_on,0,0,3,,,,,,,,,2,,,,71,101
216968,note_on,22,0,13,,,,,,,,,12,,,,64,112
216969,note_on,0,0,4,,,,,,,,,3,,,,64,0
216969,note_on,0,0,4,,,,,,,,,3,,,,62,100
216969,note_on,28,0,4,,,,,,,,,3,,,,60,0
216969,note_on,0,0,4,,,,,,,,,3,,,,59,100
216972,note_on,22,0,14,,,,,,,,,13,,,,62,112
216974,note_on,22,0,15,,,,,,,,,14,,,,40,0
216974,note_on,0,0,15,,,,,,,,,14,,,,40,112
216980,control_change,17,0,5,,,,,,,,,4,11,72,,,
216981,control_change,17,0,6,,,,,,,,,5,11,72,,,
216997,control_change,29,0,13,,,,,,,,,12,11,68,,,
217001,control_change,29,0,14,,,,,,,,,13,11,68,,,
217003,control_change,29,0,15,,,,,,,,,14,11,68,,,
217004,control_change,40,0,2,,,,,,,,,1,11,67,,,
217005,control_change,40,0,3,,,,,,,,,2,11,67,,,
217009,control_change,40,0,4,,,,,,,,,3,11,72,,,
217026,control_change,46,0,5,,,,,,,,,4,11,73,,,
217027,control_change,46,0,6,,,,,,,,,5,11,73,,,
217028,note_on,31,0,13,,,,,,,,,12,,,,64,0
217032,note_on,31,0,14,,,,,,,,,13,,,,62,0
217048,control_change,20,0,13,,,,,,,,,12,11,69,,,
217052,control_change,20,0,14,,,,,,,,,13,11,69,,,
217054,control_change,51,0,15,,,,,,,,,14,11,69,,,
217072,control_change,46,0,5,,,,,,,,,4,11,74,,,
217072,control_change,68,0,2,,,,,,,,,1,11,67,,,
217073,control_change,68,0,3,,,,,,,,,2,11,67,,,
217073,control_change,46,0,6,,,,,,,,,5,11,74,,,
217077,control_change,68,0,4,,,,,,,,,3,11,73,,,
217079,note_on,7,0,2,,,,,,,,,1,,,,71,0
217079,note_on,0,0,2,,,,,,,,,1,,,,74,0
217080,note_on,0,0,3,,,,,,,,,2,,,,74,0
217080,set_tempo,120,1,0,,,,,,287770,,,,,,,,
217080,note_on,7,0,3,,,,,,,,,2,,,,71,0
217084,note_on,5,0,2,,,,,,,,,1,,,,72,100
217084,note_on,0,0,2,,,,,,,,,1,,,,76,100
217084,note_on,7,0,4,,,,,,,,,3,,,,62,0
217084,note_on,0,0,4,,,,,,,,,3,,,,59,0
217085,note_on,0,0,3,,,,,,,,,2,,,,72,101
217085,note_on,5,0,3,,,,,,,,,2,,,,76,101
217088,note_on,40,0,13,,,,,,,,,12,,,,64,112
217089,note_on,0,0,4,,,,,,,,,3,,,,60,100
217089,note_on,5,0,4,,,,,,,,,3,,,,64,100
217092,note_on,40,0,14,,,,,,,,,13,,,,60,112
217094,note_on,0,0,15,,,,,,,,,14,,,,40,112
217094,note_on,40,0,15,,,,,,,,,14,,,,40,0
217098,control_change,10,0,13,,,,,,,,,12,11,70,,,
217102,control_change,10,0,14,,,,,,,,,13,11,70,,,
217104,control_change,10,0,15,,,,,,,,,14,11,70,,,
217119,control_change,47,0,5,,,,,,,,,4,11,75,,,
217120,control_change,47,0,6,,,,,,,,,5,11,75,,,
217140,control_change,56,0,2,,,,,,,,,1,11,68,,,
217141,control_change,56,0,3,,,,,,,,,2,11,68,,,
217145,control_change,56,0,4,,,,,,,,,3,11,74,,,
217149,control_change,51,0,13,,,,,,,,,12,11,71,,,
217153,control_change,51,0,14,,,,,,,,,13,11,71,,,
217155,control_change,51,0,15,,,,,,,,,14,11,71,,,
217165,control_change,46,0,5,,,,,,,,,4,11,76,,,
217166,control_change,46,0,6,,,,,,,,,5,11,76,,,
217192,control_change,232,0,11,,,,,,,,,10,11,72,,,
217195,control_change,232,0,12,,,,,,,,,11,11,72,,,
217200,set_tempo,120,1,0,,,,,,300000,,,,,,,,
217200,note_on,8,0,11,,,,,,,,,10,,,,64,93
217200,control_change,51,0,13,,,,,,,,,12,11,72,,,
217203,note_on,8,0,12,,,,,,,,,11,,,,60,93
217204,control_change,51,0,14,,,,,,,,,13,11,72,,,
217206,control_change,51,0,15,,,,,,,,,14,11,72,,,
217208,control_change,68,0,2,,,,,,,,,1,11,69,,,
217209,control_change,68,0,3,,,,,,,,,2,11,69,,,
217211,control_change,46,0,5,,,,,,,,,4,11,77,,,
217212,control_change,46,0,6,,,,,,,,,5,11,77,,,
217213,control_change,68,0,4,,,,,,,,,3,11,75,,,
217242,control_change,42,0,11,,,,,,,,,10,11,72,,,
217245,control_change,42,0,12,,,,,,,,,11,11,72,,,
217250,control_change,50,0,13,,,,,,,,,12,11,72,,,
217254,control_change,50,0,14,,,,,,,,,13,11,72,,,
217256,control_change,50,0,15,,,,,,,,,14,11,72,,,
217257,control_change,46,0,5,,,,,,,,,4,11,78,,,
217258,control_change,46,0,6,,,,,,,,,5,11,78,,,
217260,note_on,18,0,11,,,,,,,,,10,,,,64,0
217263,note_on,18,0,12,,,,,,,,,11,,,,60,0
217263,note_on,6,0,5,,,,,,,,,4,,,,64,100
217264,note_on,6,0,6,,,,,,,,,5,,,,52,100
217276,control_change,68,0,2,,,,,,,,,1,11,70,,,
217277,control_change,68,0,3,,,,,,,,,2,11,70,,,
217281,control_change,68,0,4,,,,,,,,,3,11,76,,,
217293,control_change,33,0,11,,,,,,,,,10,11,73,,,
217296,control_change,33,0,12,,,,,,,,,11,11,73,,,
217301,control_change,51,0,13,,,,,,,,,12,11,73,,,
217304,control_change,41,0,5,,,,,,,,,4,11,79,,,
217305,control_change,41,0,6,,,,,,,,,5,11,79,,,
217305,control_change,51,0,14,,,,,,,,,13,11,73,,,
217307,control_change,51,0,15,,,,,,,,,14,11,73,,,
217320,note_on,27,0,11,,,,,,,,,10,,,,72,93
217320,set_tempo,120,1,0,,,,,,326087,,,,,,,,
217323,note_on,0,0,5,,,,,,,,,4,,,,64,100
217323,note_on,27,0,12,,,,,,,,,11,,,,64,93
217323,note_on,19,0,5,,,,,,,,,4,,,,64,0
217324,note_on,0,0,6,,,,,,,,,5,,,,52,100
217324,note_on,19,0,6,,,,,,,,,5,,,,52,0
217328,note_on,27,0,13,,,,,,,,,12,,,,64,0
217332,note_on,27,0,14,,,,,,,,,13,,,,60,0
217334,note_on,27,0,15,,,,,,,,,14,,,,40,0
217344,control_change,24,0,11,,,,,,,,,10,11,74,,,
217344,control_change,68,0,2,,,,,,,,,1,11,70,,,
217345,control_change,68,0,3,,,,,,,,,2,11,70,,,
217347,control_change,24,0,12,,,,,,,,,11,11,74,,,
217349,control_change,68,0,4,,,,,,,,,3,11,77,,,
217350,control_change,27,0,5,,,,,,,,,4,11,80,,,
217351,control_change,27,0,6,,,,,,,,,5,11,80,,,
217352,control_change,24,0,13,,,,,,,,,12,11,74,,,
217356,control_change,24,0,14,,,,,,,,,13,11,74,,,
217358,control_change,24,0,15,,,,,,,,,14,11,74,,,
217380,note_on,36,0,11,,,,,,,,,10,,,,72,0
217383,note_on,36,0,12,,,,,,,,,11,,,,64,0
217394,control_change,14,0,11,,,,,,,,,10,11,75,,,
217396,control_change,46,0,5,,,,,,,,,4,11,81,,,
217397,control_change,46,0,6,,,,,,,,,5,11,81,,,
217397,control_change,14,0,12,,,,,,,,,11,11,75,,,
217402,control_change,50,0,13,,,,,,,,,12,11,75,,,
217406,control_change,50,0,14,,,,,,,,,13,11,75,,,
217408,control_change,50,0,15,,,,,,,,,14,11,75,,,
217412,control_change,68,0,2,,,,,,,,,1,11,71,,,
217413,control_change,68,0,3,,,,,,,,,2,11,71,,,
217417,control_change,68,0,4,,,,,,,,,3,11,78,,,
217440,note_on,0,0,11,,,,,,,,,10,,,,76,93
217440,note_on,46,0,11,,,,,,,,,10,,,,64,93
217440,set_tempo,120,1,0,,,,,,286396,,,,,,,,
217443,note_on,47,0,5,,,,,,,,,4,,,,64,0
217443,control_change,0,0,5,,,,,,,,,4,11,82,,,
217443,note_on,0,0,5,,,,,,,,,4,,,,64,100
217443,note_on,46,0,12,,,,,,,,,11,,,,72,93
217443,note_on,0,0,12,,,,,,,,,11,,,,64,93
217444,note_on,0,0,6,,,,,,,,,5,,,,52,100
217444,control_change,0,0,6,,,,,,,,,5,11,82,,,
217444,note_on,47,0,6,,,,,,,,,5,,,,52,0
217445,control_change,5,0,11,,,,,,,,,10,11,76,,,
217448,note_on,46,0,13,,,,,,,,,12,,,,57,112
217448,control_change,5,0,12,,,,,,,,,11,11,76,,,
217452,note_on,46,0,14,,,,,,,,,13,,,,52,112
217453,control_change,5,0,13,,,,,,,,,12,11,76,,,
217457,control_change,5,0,14,,,,,,,,,13,11,76,,,
217459,control_change,51,0,15,,,,,,,,,14,11,76,,,
217480,control_change,68,0,2,,,,,,,,,1,11,72,,,
217481,control_change,68,0,3,,,,,,,,,2,11,72,,,
217485,control_change,68,0,4,,,,,,,,,3,11,79,,,
217504,control_change,51,0,13,,,,,,,,,12,11,77,,,
217508,note_on,4,0,13,,,,,,,,,12,,,,57,0
217508,control_change,51,0,14,,,,,,,,,13,11,77,,,
217510,control_change,51,0,15,,,,,,,,,14,11,77,,,
217512,note_on,4,0,14,,,,,,,,,13,,,,52,0
217548,control_change,68,0,2,,,,,,,,,1,11,73,,,
217549,control_change,68,0,3,,,,,,,,,2,11,73,,,
217553,control_change,68,0,4,,,,,,,,,3,11,80,,,
217554,control_change,46,0,13,,,,,,,,,12,11,78,,,
217558,control_change,46,0,14,,,,,,,,,13,11,78,,,
217560,control_change,50,0,15,,,,,,,,,14,11,78,,,
217560,set_tempo,120,1,0,,,,,,300000,,,,,,,,
217564,note_on,16,0,2,,,,,,,,,1,,,,76,0
217564,note_on,0,0,2,,,,,,,,,1,,,,77,100
217565,note_on,16,0,3,,,,,,,,,2,,,,76,0
217565,note_on,0,0,3,,,,,,,,,2,,,,77,101
217568,note_on,14,0,13,,,,,,,,,12,,,,60,112
217569,note_on,0,0,4,,,,,,,,,3,,,,65,100
217569,note_on,16,0,4,,,,,,,,,3,,,,64,0
217572,note_on,14,0,14,,,,,,,,,13,,,,57,112
217605,control_change,37,0,13,,,,,,,,,12,11,79,,,
217609,control_change,37,0,14,,,,,,,,,13,11,79,,,
217611,control_change,51,0,15,,,,,,,,,14,11,79,,,
217616,control_change,52,0,2,,,,,,,,,1,11,73,,,
217617,control_change,52,0,3,,,,,,,,,2,11,73,,,
217621,control_change,52,0,4,,,,,,,,,3,11,81,,,
217628,note_on,23,0,13,,,,,,,,,12,,,,60,0
217632,note_on,23,0,14,,,,,,,,,13,,,,57,0
217634,note_on,23,0,15,,,,,,,,,14,,,,38,112
217656,control_change,28,0,13,,,,,,,,,12,11,80,,,
217660,control_change,28,0,14,,,,,,,,,13,11,80,,,
217662,control_change,28,0,15,,,,,,,,,14,11,80,,,
217680,note_on,235,0,11,,,,,,,,,10,,,,76,0
217680,set_tempo,120,1,0,,,,,,326087,,,,,,,,
217680,note_on,0,0,11,,,,,,,,,10,,,,64,0
217681,note_on,0,0,1,,,,,,,,,0,,,,88,101
217681,note_on,5400,0,1,,,,,,,,,0,,,,79,101
217681,control_change,0,0,1,,,,,,,,,0,11,82,,,
217682,note_on,0,0,7,,,,,,,,,6,,,,60,112
217682,control_change,8520,0,7,,,,,,,,,6,11,82,,,
217682,note_on,0,0,7,,,,,,,,,6,,,,72,112
217683,note_on,0,0,12,,,,,,,,,11,,,,72,0
217683,control_change,0,0,5,,,,,,,,,4,11,92,,,
217683,note_on,235,0,12,,,,,,,,,11,,,,64,0
217683,note_on,240,0,5,,,,,,,,,4,,,,64,0
217684,note_on,0,0,2,,,,,,,,,1,,,,72,0
217684,note_on,0,0,2,,,,,,,,,1,,,,67,100
217684,note_on,240,0,6,,,,,,,,,5,,,,52,0
217684,control_change,0,0,6,,,,,,,,,5,11,92,,,
217684,note_on,0,0,2,,,,,,,,,1,,,,76,100
217684,control_change,0,0,2,,,,,,,,,1,11,82,,,
217684,note_on,68,0,2,,,,,,,,,1,,,,77,0
217685,note_on,0,0,3,,,,,,,,,2,,,,76,101
217685,note_on,68,0,3,,,,,,,,,2,,,,77,0
217685,control_change,0,0,3,,,,,,,,,2,11,82,,,
217685,note_on,0,0,3,,,,,,,,,2,,,,67,101
217685,note_on,0,0,3,,,,,,,,,2,,,,72,0
217687,control_change,5760,0,8,,,,,,,,,7,11,92,,,
217688,note_on,32,0,13,,,,,,,,,12,,,,64,112
217689,note_on,68,0,4,,,,,,,,,3,,,,65,0
217689,note_on,0,0,4,,,,,,,,,3,,,,60,0
217689,note_on,0,0,4,,,,,,,,,3,,,,64,100
217689,note_on,0,0,4,,,,,,,,,3,,,,55,100
217689,control_change,0,0,4,,,,,,,,,3,11,92,,,
217692,note_on,32,0,14,,,,,,,,,13,,,,60,112
217693,control_change,5400,0,9,,,,,,,,,8,11,82,,,
217693,note_on,0,0,9,,,,,,,,,8,,,,48,110
217694,note_on,0,0,15,,,,,,,,,14,,,,36,112
217694,note_on,32,0,15,,,,,,,,,14,,,,38,0
217695,note_on,46200,0,10,,,,,,,,,15,,,,48,87
217706,control_change,18,0,13,,,,,,,,,12,11,81,,,
217710,control_change,18,0,14,,,,,,,,,13,11,81,,,
217712,control_change,18,0,15,,,,,,,,,14,11,81,,,
217748,note_on,42,0,13,,,,,,,,,12,,,,64,0
217752,note_on,42,0,14,,,,,,,,,13,,,,60,0
217757,control_change,9,0,13,,,,,,,,,12,11,82,,,
217761,control_change,9,0,14,,,,,,,,,13,11,82,,,
217763,control_change,51,0,15,,,,,,,,,14,11,82,,,
217800,set_tempo,120,1,0,,,,,,285714,,,,,,,,
217800,control_change,120,0,11,,,,,,,,,10,11,83,,,
217800,note_on,0,0,11,,,,,,,,,10,,,,69,93
217801,note_on,0,0,1,,,,,,,,,0,,,,81,116
217801,note_on,0,0,1,,,,,,,,,0,,,,89,116
217801,note_on,120,0,1,,,,,,,,,0,,,,88,0
217801,note_on,0,0,1,,,,,,,,,0,,,,79,0
217802,note_on,120,0,7,,,,,,,,,6,,,,72,0
217802,note_on,0,0,7,,,,,,,,,6,,,,72,112
217802,note_on,0,0,7,,,,,,,,,6,,,,60,112
217802,note_on,0,0,7,,,,,,,,,6,,,,60,0
217803,note_on,0,0,12,,,,,,,,,11,,,,65,93
217803,control_change,120,0,12,,,,,,,,,11,11,83,,,
217804,note_on,0,0,2,,,,,,,,,1,,,,77,115
217804,note_on,0,0,2,,,,,,,,,1,,,,67,0
217804,note_on,120,0,2,,,,,,,,,1,,,,76,0
217804,note_on,0,0,2,,,,,,,,,1,,,,69,115
217805,note_on,0,0,3,,,,,,,,,2,,,,69,116
217805,note_on,120,0,3,,,,,,,,,2,,,,67,0
217805,note_on,0,0,3,,,,,,,,,2,,,,76,0
217805,note_on,0,0,3,,,,,,,,,2,,,,77,116
217808,control_change,0,0,13,,,,,,,,,12,11,83,,,
217808,note_on,51,0,13,,,,,,,,,12,,,,69,112
217808,note_on,0,0,13,,,,,,,,,12,,,,60,112
217809,note_on,120,0,4,,,,,,,,,3,,,,55,0
217809,note_on,0,0,4,,,,,,,,,3,,,,64,0
217809,note_on,0,0,4,,,,,,,,,3,,,,57,115
217809,note_on,0,0,4,,,,,,,,,3,,,,65,115
217812,control_change,0,0,14,,,,,,,,,13,11,83,,,
217812,note_on,51,0,14,,,,,,,,,13,,,,65,112
217813,note_on,0,0,9,,,,,,,,,8,,,,48,110
217813,note_on,120,0,9,,,,,,,,,8,,,,48,0
217814,note_on,0,0,15,,,,,,,,,14,,,,36,112
217814,control_change,0,0,15,,,,,,,,,14,11,83,,,
217814,note_on,51,0,15,,,,,,,,,14,,,,36,0
217815,note_on,120,0,10,,,,,,,,,15,,,,48,0
217815,note_on,0,0,10,,,,,,,,,15,,,,48,87
217860,note_on,60,0,11,,,,,,,,,10,,,,69,0
217863,note_on,60,0,12,,,,,,,,,11,,,,65,0
217920,note_on,60,0,11,,,,,,,,,10,,,,72,93
217920,set_tempo,120,1,0,,,,,,300000,,,,,,,,
217923,note_on,60,0,12,,,,,,,,,11,,,,69,93
217980,note_on,60,0,11,,,,,,,,,10,,,,72,0
217983,note_on,300,0,5,,,,,,,,,4,,,,60,100
217983,note_on,60,0,12,,,,,,,,,11,,,,69,0
217984,note_on,300,0,6,,,,,,,,,5,,,,48,100
217987,note_on,300,0,8,,,,,,,,,7,,,,65,110
217987,note_on,0,0,8,,,,,,,,,7,,,,57,110
218040,set_tempo,120,1,0,,,,,,330579,,,,,,,,
218040,note_on,60,0,11,,,,,,,,,10,,,,77,93
218043,note_on,0,0,5,,,,,,,,,4,,,,60,100
218043,note_on,60,0,12,,,,,,,,,11,,,,72,93
218043,note_on,60,0,5,,,,,,,,,4,,,,60,0
218044,note_on,60,0,6,,,,,,,,,5,,,,48,0
218044,note_on,0,0,6,,,,,,,,,5,,,,48,100
218047,note_on,0,0,8,,,,,,,,,7,,,,65,0
218047,note_on,60,0,8,,,,,,,,,7,,,,57,0
218047,note_on,0,0,8,,,,,,,,,7,,,,65,110
218047,note_on,0,0,8,,,,,,,,,7,,,,57,110
218048,note_on,240,0,13,,,,,,,,,12,,,,60,0
218048,note_on,0,0,13,,,,,,,,,12,,,,69,0
218052,note_on,240,0,14,,,,,,,,,13,,,,65,0
218053,note_on,240,0,9,,,,,,,,,8,,,,48,0
218054,note_on,240,0,15,,,,,,,,,14,,,,36,0
218055,note_on,240,0,10,,,,,,,,,15,,,,48,0
218100,note_on,60,0,11,,,,,,,,,10,,,,77,0
218103,note_on,60,0,12,,,,,,,,,11,,,,72,0
218160,note_on,0,0,11,,,,,,,,,10,,,,76,104
218160,note_on,60,0,11,,,,,,,,,10,,,,67,104
218160,set_tempo,120,1,0,,,,,,285714,,,,,,,,
218161,note_on,0,0,1,,,,,,,,,0,,,,89,0
218161,note_on,360,0,1,,,,,,,,,0,,,,81,0
218161,note_on,0,0,1,,,,,,,,,0,,,,88,101
218161,note_on,0,0,1,,,,,,,,,0,,,,79,101
218163,note_on,120,0,5,,,,,,,,,4,,,,60,0
218163,note_on,0,0,12,,,,,,,,,11,,,,72,104
218163,note_on,60,0,12,,,,,,,,,11,,,,64,104
218163,note_on,0,0,5,,,,,,,,,4,,,,60,100
218164,note_on,360,0,2,,,,,,,,,1,,,,69,0
218164,note_on,0,0,6,,,,,,,,,5,,,,48,100
218164,note_on,0,0,2,,,,,,,,,1,,,,67,100
218164,note_on,0,0,2,,,,,,,,,1,,,,76,100
218164,note_on,120,0,6,,,,,,,,,5,,,,48,0
218164,note_on,0,0,2,,,,,,,,,1,,,,77,0
218165,note_on,0,0,3,,,,,,,,,2,,,,76,101
218165,note_on,360,0,3,,,,,,,,,2,,,,69,0
218165,note_on,0,0,3,,,,,,,,,2,,,,77,0
218165,note_on,0,0,3,,,,,,,,,2,,,,67,101
218167,note_on,0,0,8,,,,,,,,,7,,,,57,0
218167,note_on,0,0,8,,,,,,,,,7,,,,64,110
218167,note_on,120,0,8,,,,,,,,,7,,,,65,0
218167,note_on,0,0,8,,,,,,,,,7,,,,55,110
218168,note_on,120,0,13,,,,,,,,,12,,,,60,112
218169,note_on,0,0,4,,,,,,,,,3,,,,64,100
218169,note_on,0,0,4,,,,,,,,,3,,,,65,0
218169,note_on,360,0,4,,,,,,,,,3,,,,57,0
218169,note_on,0,0,4,,,,,,,,,3,,,,55,100
218172,note_on,120,0,14,,,,,,,,,13,,,,55,112
218228,note_on,60,0,13,,,,,,,,,12,,,,60,0
218232,note_on,60,0,14,,,,,,,,,13,,,,55,0
218280,control_change,120,0,11,,,,,,,,,10,11,83,,,
218280,set_tempo,120,1,0,,,,,,300000,,,,,,,,
218281,note_on,120,0,1,,,,,,,,,0,,,,79,0
218281,note_on,0,0,1,,,,,,,,,0,,,,88,0
218283,control_change,120,0,12,,,,,,,,,11,11,83,,,
218284,note_on,120,0,2,,,,,,,,,1,,,,76,0
218284,note_on,0,0,2,,,,,,,,,1,,,,67,0
218285,note_on,0,0,3,,,,,,,,,2,,,,67,0
218285,note_on,120,0,3,,,,,,,,,2,,,,76,0
218288,note_on,60,0,13,,,,,,,,,12,,,,64,112
218289,note_on,120,0,4,,,,,,,,,3,,,,64,0
218289,note_on,0,0,4,,,,,,,,,3,,,,55,0
218292,note_on,60,0,14,,,,,,,,,13,,,,60,112
218297,control_change,17,0,11,,,,,,,,,10,11,80,,,
218300,control_change,17,0,12,,,,,,,,,11,11,80,,,
218315,control_change,18,0,11,,,,,,,,,10,11,77,,,
218318,control_change,18,0,12,,,,,,,,,11,11,77,,,
218333,control_change,18,0,11,,,,,,,,,10,11,74,,,
218336,control_change,18,0,12,,,,,,,,,11,11,74,,,
218342,note_on,0,0,7,,,,,,,,,6,,,,72,0
218342,note_on,540,0,7,,,,,,,,,6,,,,60,0
218342,note_on,0,0,7,,,,,,,,,6,,,,72,112
218342,note_on,0,0,7,,,,,,,,,6,,,,60,112
218348,note_on,60,0,13,,,,,,,,,12,,,,64,0
218351,control_change,18,0,11,,,,,,,,,10,11,72,,,
218352,note_on,60,0,14,,,,,,,,,13,,,,60,0
218353,note_on,300,0,9,,,,,,,,,8,,,,48,110
218354,control_change,18,0,12,,,,,,,,,11,11,72,,,
218354,note_on,300,0,15,,,,,,,,,14,,,,36,112
218355,note_on,300,0,10,,,,,,,,,15,,,,48,87
218369,control_change,18,0,11,,,,,,,,,10,11,69,,,
218372,control_change,18,0,12,,,,,,,,,11,11,69,,,
218387,control_change,18,0,11,,,,,,,,,10,11,66,,,
218390,control_change,18,0,12,,,,,,,,,11,11,66,,,
218400,set_tempo,120,1,0,,,,,,330579,,,,,,,,
218400,note_on,13,0,11,,,,,,,,,10,,,,76,0
218400,note_on,0,0,11,,,,,,,,,10,,,,67,0
218401,note_on,0,0,1,,,,,,,,,0,,,,84,101
218401,note_on,120,0,1,,,,,,,,,0,,,,88,101
218402,note_on,0,0,7,,,,,,,,,6,,,,60,112
218402,note_on,0,0,7,,,,,,,,,6,,,,72,112
218402,note_on,0,0,7,,,,,,,,,6,,,,72,0
218402,note_on,60,0,7,,,,,,,,,6,,,,60,0
218403,note_on,240,0,5,,,,,,,,,4,,,,60,0
218403,note_on,0,0,12,,,,,,,,,11,,,,64,0
218403,note_on,13,0,12,,,,,,,,,11,,,,72,0
218404,note_on,120,0,2,,,,,,,,,1,,,,72,100
218404,note_on,0,0,2,,,,,,,,,1,,,,76,100
218404,note_on,240,0,6,,,,,,,,,5,,,,48,0
218405,note_on,120,0,3,,,,,,,,,2,,,,76,101
218405,note_on,0,0,3,,,,,,,,,2,,,,72,101
218407,note_on,240,0,8,,,,,,,,,7,,,,64,0
218407,note_on,0,0,8,,,,,,,,,7,,,,55,0
218408,note_on,60,0,13,,,,,,,,,12,,,,67,112
218409,note_on,120,0,4,,,,,,,,,3,,,,60,100
218409,note_on,0,0,4,,,,,,,,,3,,,,64,100
218412,note_on,60,0,14,,,,,,,,,13,,,,64,112
218413,note_on,0,0,9,,,,,,,,,8,,,,48,110
218413,note_on,60,0,9,,,,,,,,,8,,,,48,0
218414,note_on,60,0,15,,,,,,,,,14,,,,36,0
218414,note_on,0,0,15,,,,,,,,,14,,,,36,112
218415,note_on,0,0,10,,,,,,,,,15,,,,48,87
218415,note_on,60,0,10,,,,,,,,,15,,,,48,0
218468,note_on,60,0,13,,,,,,,,,12,,,,67,0
218472,note_on,60,0,14,,,,,,,,,13,,,,64,0
218520,control_change,0,0,11,,,,,,,,,10,11,83,,,
218520,set_tempo,120,1,0,,,,,,285714,,,,,,,,
218520,note_on,120,0,11,,,,,,,,,10,,,,72,93
218521,note_on,0,0,1,,,,,,,,,0,,,,88,0
218521,note_on,120,0,1,,,,,,,,,0,,,,84,0
218521,note_on,0,0,1,,,,,,,,,0,,,,89,116
218521,note_on,0,0,1,,,,,,,,,0,,,,93,116
218522,note_on,120,0,7,,,,,,,,,6,,,,72,0
218522,note_on,0,0,7,,,,,,,,,6,,,,60,0
218522,note_on,0,0,7,,,,,,,,,6,,,,72,112
218522,note_on,0,0,7,,,,,,,,,6,,,,60,112
218523,control_change,120,0,12,,,,,,,,,11,11,83,,,
218523,note_on,0,0,12,,,,,,,,,11,,,,69,93
218524,note_on,0,0,2,,,,,,,,,1,,,,72,0
218524,note_on,120,0,2,,,,,,,,,1,,,,76,0
218524,note_on,0,0,2,,,,,,,,,1,,,,81,115
218524,note_on,0,0,2,,,,,,,,,1,,,,77,115
218525,note_on,120,0,3,,,,,,,,,2,,,,72,0
218525,note_on,0,0,3,,,,,,,,,2,,,,77,116
218525,note_on,0,0,3,,,,,,,,,2,,,,81,116
218525,note_on,0,0,3,,,,,,,,,2,,,,76,0
218528,note_on,0,0,13,,,,,,,,,12,,,,60,112
218528,note_on,60,0,13,,,,,,,,,12,,,,69,112
218529,note_on,120,0,4,,,,,,,,,3,,,,64,0
218529,note_on,0,0,4,,,,,,,,,3,,,,60,0
218529,note_on,0,0,4,,,,,,,,,3,,,,65,115
218529,note_on,0,0,4,,,,,,,,,3,,,,69,115
218532,note_on,60,0,14,,,,,,,,,13,,,,65,112
218533,note_on,120,0,9,,,,,,,,,8,,,,48,0
218533,note_on,0,0,9,,,,,,,,,8,,,,48,110
218534,note_on,120,0,15,,,,,,,,,14,,,,36,0
218534,note_on,0,0,15,,,,,,,,,14,,,,36,112
218535,note_on,0,0,10,,,,,,,,,15,,,,48,87
218535,note_on,120,0,10,,,,,,,,,15,,,,48,0
218580,note_on,60,0,11,,,,,,,,,10,,,,72,0
218583,note_on,60,0,12,,,,,,,,,11,,,,69,0
218640,set_tempo,120,1,0,,,,,,300000,,,,,,,,
218640,note_on,60,0,11,,,,,,,,,10,,,,77,93
218643,note_on,60,0,12,,,,,,,,,11,,,,72,93
218700,note_on,60,0,11,,,,,,,,,10,,,,77,0
218703,note_on,60,0,12,,,,,,,,,11,,,,72,0
218703,note_on,300,0,5,,,,,,,,,4,,,,60,100
218704,note_on,300,0,6,,,,,,,,,5,,,,48,100
218707,note_on,0,0,8,,,,,,,,,7,,,,65,110
218707,note_on,300,0,8,,,,,,,,,7,,,,57,110
218760,set_tempo,120,1,0,,,,,,330579,,,,,,,,
218760,note_on,60,0,11,,,,,,,,,10,,,,81,93
218763,note_on,0,0,5,,,,,,,,,4,,,,60,100
218763,note_on,60,0,12,,,,,,,,,11,,,,77,93
218763,note_on,60,0,5,,,,,,,,,4,,,,60,0
218764,note_on,60,0,6,,,,,,,,,5,,,,48,0
218764,note_on,0,0,6,,,,,,,,,5,,,,48,100
218767,note_on,0,0,8,,,,,,,,,7,,,,65,110
218767,note_on,0,0,8,,,,,,,,,7,,,,57,110
218767,note_on,0,0,8,,,,,,,,,7,,,,57,0
218767,note_on,60,0,8,,,,,,,,,7,,,,65,0
218768,note_on,0,0,13,,,,,,,,,12,,,,69,0
218768,note_on,240,0,13,,,,,,,,,12,,,,60,0
218772,note_on,240,0,14,,,,,,,,,13,,,,65,0
218773,note_on,240,0,9,,,,,,,,,8,,,,48,0
218774,note_on,240,0,15,,,,,,,,,14,,,,36,0
218775,note_on,240,0,10,,,,,,,,,15,,,,48,0
218820,note_on,60,0,11,,,,,,,,,10,,,,81,0
218823,note_on,60,0,12,,,,,,,,,11,,,,77,0
218880,set_tempo,120,1,0,,,,,,285714,,,,,,,,
218880,note_on,0,0,11,,,,,,,,,10,,,,72,93
218880,note_on,0,0,11,,,,,,,,,10,,,,79,93
218880,control_change,60,0,11,,,,,,,,,10,11,83,,,
218881,note_on,0,0,1,,,,,,,,,0,,,,88,101
218881,note_on,360,0,1,,,,,,,,,0,,,,89,0
218881,note_on,0,0,1,,,,,,,,,0,,,,91,101
218881,control_change,0,0,1,,,,,,,,,0,11,82,,,
218881,note_on,0,0,1,,,,,,,,,0,,,,93,0
218882,control_change,360,0,7,,,,,,,,,6,11,82,,,
218883,note_on,120,0,5,,,,,,,,,4,,,,60,0
218883,note_on,0,0,5,,,,,,,,,4,,,,60,100
218883,control_change,0,0,12,,,,,,,,,11,11,83,,,
218883,note_on,0,0,12,,,,,,,,,11,,,,76,93
218883,note_on,60,0,12,,,,,,,,,11,,,,67,93
218884,note_on,0,0,2,,,,,,,,,1,,,,77,0
218884,note_on,0,0,6,,,,,,,,,5,,,,48,100
218884,note_on,0,0,2,,,,,,,,,1,,,,76,100
218884,control_change,0,0,2,,,,,,,,,1,11,82,,,
218884,note_on,120,0,6,,,,,,,,,5,,,,48,0
218884,note_on,0,0,2,,,,,,,,,1,,,,79,100
218884,note_on,360,0,2,,,,,,,,,1,,,,81,0
218885,control_change,0,0,3,,,,,,,,,2,11,82,,,
218885,note_on,360,0,3,,,,,,,,,2,,,,77,0
218885,note_on,0,0,3,,,,,,,,,2,,,,81,0
218885,note_on,0,0,3,,,,,,,,,2,,,,79,101
218885,note_on,0,0,3,,,,,,,,,2,,,,76,101
218887,note_on,0,0,8,,,,,,,,,7,,,,64,110
218887,note_on,0,0,8,,,,,,,,,7,,,,55,110
218887,control_change,0,0,8,,,,,,,,,7,11,82,,,
218887,note_on,120,0,8,,,,,,,,,7,,,,65,0
218887,note_on,0,0,8,,,,,,,,,7,,,,57,0
218888,control_change,0,0,13,,,,,,,,,12,11,83,,,
218888,note_on,120,0,13,,,,,,,,,12,,,,55,112
218889,note_on,360,0,4,,,,,,,,,3,,,,69,0
218889,note_on,0,0,4,,,,,,,,,3,,,,65,0
218889,note_on,0,0,4,,,,,,,,,3,,,,64,100
218889,control_change,0,0,4,,,,,,,,,3,11,92,,,
218889,note_on,0,0,4,,,,,,,,,3,,,,67,100
218892,control_change,0,0,14,,,,,,,,,13,11,83,,,
218892,note_on,120,0,14,,,,,,,,,13,,,,52,112
218893,control_change,120,0,9,,,,,,,,,8,11,82,,,
218904,control_change,24,0,11,,,,,,,,,10,11,84,,,
218906,control_change,24,0,7,,,,,,,,,6,11,83,,,
218907,control_change,24,0,12,,,,,,,,,11,11,84,,,
218911,control_change,24,0,8,,,,,,,,,7,11,83,,,
218912,control_change,24,0,13,,,,,,,,,12,11,84,,,
218916,control_change,35,0,1,,,,,,,,,0,11,83,,,
218916,control_change,24,0,14,,,,,,,,,13,11,84,,,
218917,control_change,24,0,9,,,,,,,,,8,11,83,,,
218919,control_change,35,0,2,,,,,,,,,1,11,83,,,
218920,control_change,35,0,3,,,,,,,,,2,11,83,,,
218924,control_change,35,0,4,,,,,,,,,3,11,93,,,
218930,control_change,24,0,7,,,,,,,,,6,11,84,,,
218935,control_change,24,0,8,,,,,,,,,7,11,84,,,
218936,control_change,24,0,13,,,,,,,,,12,11,85,,,
218940,control_change,24,0,14,,,,,,,,,13,11,85,,,
218941,control_change,24,0,9,,,,,,,,,8,11,84,,,
218948,note_on,12,0,13,,,,,,,,,12,,,,55,0
218952,note_on,12,0,14,,,,,,,,,13,,,,52,0
218952,control_change,36,0,1,,,,,,,,,0,11,83,,,
218954,control_change,24,0,7,,,,,,,,,6,11,85,,,
218955,control_change,36,0,2,,,,,,,,,1,11,83,,,
218956,control_change,36,0,3,,,,,,,,,2,11,83,,,
218959,control_change,24,0,8,,,,,,,,,7,11,85,,,
218960,control_change,12,0,13,,,,,,,,,12,11,86,,,
218960,control_change,36,0,4,,,,,,,,,3,11,94,,,
218964,control_change,12,0,14,,,,,,,,,13,11,86,,,
218965,control_change,24,0,9,,,,,,,,,8,11,85,,,
218978,control_change,24,0,7,,,,,,,,,6,11,86,,,
218983,control_change,24,0,8,,,,,,,,,7,11,86,,,
218984,control_change,24,0,13,,,,,,,,,12,11,87,,,
218988,control_change,36,0,1,,,,,,,,,0,11,84,,,
218988,control_change,24,0,14,,,,,,,,,13,11,87,,,
218989,control_change,24,0,9,,,,,,,,,8,11,86,,,
218991,control_change,36,0,2,,,,,,,,,1,11,84,,,
218992,control_change,36,0,3,,,,,,,,,2,11,84,,,
218996,control_change,36,0,4,,,,,,,,,3,11,95,,,
219000,set_tempo,120,1,0,,,,,,300000,,,,,,,,
219001,note_on,0,0,1,,,,,,,,,0,,,,89,101
219001,note_on,0,0,1,,,,,,,,,0,,,,86,101
219001,note_on,0,0,1,,,,,,,,,0,,,,88,0
219001,note_on,13,0,1,,,,,,,,,0,,,,91,0
219002,control_change,24,0,7,,,,,,,,,6,11,87,,,
219004,note_on,0,0,2,,,,,,,,,1,,,,77,100
219004,note_on,0,0,2,,,,,,,,,1,,,,74,100
219004,note_on,13,0,2,,,,,,,,,1,,,,76,0
219004,note_on,0,0,2,,,,,,,,,1,,,,79,0
219005,note_on,0,0,3,,,,,,,,,2,,,,77,101
219005,note_on,0,0,3,,,,,,,,,2,,,,74,101
219005,note_on,13,0,3,,,,,,,,,2,,,,76,0
219005,note_on,0,0,3,,,,,,,,,2,,,,79,0
219007,control_change,24,0,8,,,,,,,,,7,11,87,,,
219008,note_on,24,0,13,,,,,,,,,12,,,,60,112
219008,control_change,0,0,13,,,,,,,,,12,11,87,,,
219009,note_on,0,0,4,,,,,,,,,3,,,,62,100
219009,note_on,0,0,4,,,,,,,,,3,,,,65,100
219009,note_on,0,0,4,,,,,,,,,3,,,,64,0
219009,note_on,13,0,4,,,,,,,,,3,,,,67,0
219012,control_change,0,0,14,,,,,,,,,13,11,87,,,
219012,note_on,24,0,14,,,,,,,,,13,,,,55,112
219013,control_change,24,0,9,,,,,,,,,8,11,87,,,
219024,control_change,23,0,1,,,,,,,,,0,11,85,,,
219026,control_change,24,0,7,,,,,,,,,6,11,88,,,
219027,control_change,23,0,2,,,,,,,,,1,11,85,,,
219028,control_change,23,0,3,,,,,,,,,2,11,85,,,
219031,control_change,24,0,8,,,,,,,,,7,11,88,,,
219032,control_change,24,0,13,,,,,,,,,12,11,88,,,
219032,control_change,23,0,4,,,,,,,,,3,11,96,,,
219036,control_change,24,0,14,,,,,,,,,13,11,88,,,
219037,control_change,24,0,9,,,,,,,,,8,11,88,,,
219050,control_change,24,0,7,,,,,,,,,6,11,89,,,
219055,control_change,24,0,8,,,,,,,,,7,11,89,,,
219056,control_change,24,0,13,,,,,,,,,12,11,89,,,
219060,control_change,24,0,14,,,,,,,,,13,11,89,,,
219060,control_change,36,0,1,,,,,,,,,0,11,86,,,
219061,control_change,24,0,9,,,,,,,,,8,11,89,,,
219062,note_on,0,0,7,,,,,,,,,6,,,,60,112
219062,note_on,0,0,7,,,,,,,,,6,,,,72,112
219062,note_on,0,0,7,,,,,,,,,6,,,,72,0
219062,note_on,12,0,7,,,,,,,,,6,,,,60,0
219063,control_change,36,0,2,,,,,,,,,1,11,86,,,
219064,control_change,36,0,3,,,,,,,,,2,11,86,,,
219068,control_change,36,0,4,,,,,,,,,3,11,97,,,
219068,note_on,12,0,13,,,,,,,,,12,,,,60,0
219072,note_on,12,0,14,,,,,,,,,13,,,,55,0
219073,note_on,12,0,9,,,,,,,,,8,,,,48,110
219074,control_change,12,0,7,,,,,,,,,6,11,90,,,
219074,note_on,300,0,15,,,,,,,,,14,,,,36,112
219075,note_on,300,0,10,,,,,,,,,15,,,,48,87
219079,control_change,24,0,8,,,,,,,,,7,11,90,,,
219080,control_change,12,0,13,,,,,,,,,12,11,90,,,
219084,control_change,12,0,14,,,,,,,,,13,11,90,,,
219085,control_change,12,0,9,,,,,,,,,8,11,90,,,
219096,control_change,36,0,1,,,,,,,,,0,11,86,,,
219098,control_change,24,0,7,,,,,,,,,6,11,91,,,
219099,control_change,36,0,2,,,,,,,,,1,11,86,,,
219100,control_change,36,0,3,,,,,,,,,2,11,86,,,
219103,control_change,24,0,8,,,,,,,,,7,11,91,,,
219104,control_change,24,0,13,,,,,,,,,12,11,91,,,
219104,control_change,36,0,4,,,,,,,,,3,11,98,,,
219108,control_change,24,0,14,,,,,,,,,13,11,91,,,
219109,control_change,24,0,9,,,,,,,,,8,11,91,,,
219120,note_on,216,0,11,,,,,,,,,10,,,,72,0
219120,note_on,0,0,11,,,,,,,,,10,,,,79,0
219120,set_tempo,120,1,0,,,,,,330579,,,,,,,,
219121,note_on,0,0,1,,,,,,,,,0,,,,88,101
219121,note_on,0,0,1,,,,,,,,,0,,,,84,101
219121,note_on,25,0,1,,,,,,,,,0,,,,89,0
219121,note_on,0,0,1,,,,,,,,,0,,,,86,0
219122,note_on,24,0,7,,,,,,,,,6,,,,72,0
219122,note_on,0,0,7,,,,,,,,,6,,,,60,0
219122,note_on,0,0,7,,,,,,,,,6,,,,60,112
219122,note_on,0,0,7,,,,,,,,,6,,,,72,112
219122,control_change,0,0,7,,,,,,,,,6,11,92,,,
219123,note_on,240,0,5,,,,,,,,,4,,,,60,0
219123,note_on,0,0,12,,,,,,,,,11,,,,67,0
219123,note_on,216,0,12,,,,,,,,,11,,,,76,0
219124,note_on,0,0,2,,,,,,,,,1,,,,74,0
219124,note_on,25,0,2,,,,,,,,,1,,,,77,0
219124,note_on,240,0,6,,,,,,,,,5,,,,48,0
219124,note_on,0,0,2,,,,,,,,,1,,,,72,100
219124,note_on,0,0,2,,,,,,,,,1,,,,76,100
219125,note_on,0,0,3,,,,,,,,,2,,,,76,101
219125,note_on,0,0,3,,,,,,,,,2,,,,77,0
219125,note_on,25,0,3,,,,,,,,,2,,,,74,0
219125,note_on,0,0,3,,,,,,,,,2,,,,72,101
219127,note_on,24,0,8,,,,,,,,,7,,,,55,0
219127,note_on,0,0,8,,,,,,,,,7,,,,64,0
219127,control_change,0,0,8,,,,,,,,,7,11,92,,,
219128,note_on,0,0,13,,,,,,,,,12,,,,64,112
219128,control_change,24,0,13,,,,,,,,,12,11,92,,,
219129,note_on,0,0,4,,,,,,,,,3,,,,65,0
219129,note_on,0,0,4,,,,,,,,,3,,,,60,100
219129,note_on,25,0,4,,,,,,,,,3,,,,62,0
219129,note_on,0,0,4,,,,,,,,,3,,,,64,100
219132,control_change,11,0,1,,,,,,,,,0,11,87,,,
219132,control_change,24,0,14,,,,,,,,,13,11,92,,,
219132,note_on,0,0,14,,,,,,,,,13,,,,60,112
219133,control_change,0,0,9,,,,,,,,,8,11,92,,,
219133,note_on,0,0,9,,,,,,,,,8,,,,48,110
219133,note_on,24,0,9,,,,,,,,,8,,,,48,0
219134,note_on,60,0,15,,,,,,,,,14,,,,36,0
219134,note_on,0,0,15,,,,,,,,,14,,,,36,112
219135,note_on,0,0,10,,,,,,,,,15,,,,48,87
219135,control_change,11,0,2,,,,,,,,,1,11,87,,,
219135,note_on,60,0,10,,,,,,,,,15,,,,48,0
219136,control_change,11,0,3,,,,,,,,,2,11,87,,,
219140,control_change,11,0,4,,,,,,,,,3,11,99,,,
219146,control_change,24,0,7,,,,,,,,,6,11,93,,,
219151,control_change,24,0,8,,,,,,,,,7,11,93,,,
219152,control_change,24,0,13,,,,,,,,,12,11,93,,,
219156,control_change,24,0,14,,,,,,,,,13,11,93,,,
219157,control_change,24,0,9,,,,,,,,,8,11,93,,,
219168,control_change,36,0,1,,,,,,,,,0,11,88,,,
219170,control_change,24,0,7,,,,,,,,,6,11,94,,,
219171,control_change,36,0,2,,,,,,,,,1,11,88,,,
219172,control_change,36,0,3,,,,,,,,,2,11,88,,,
219175,control_change,24,0,8,,,,,,,,,7,11,94,,,
219176,control_change,36,0,4,,,,,,,,,3,11,100,,,
219176,control_change,24,0,13,,,,,,,,,12,11,94,,,
219180,control_change,24,0,14,,,,,,,,,13,11,94,,,
219181,control_change,24,0,9,,,,,,,,,8,11,94,,,
219188,note_on,12,0,13,,,,,,,,,12,,,,64,0
219192,note_on,12,0,14,,,,,,,,,13,,,,60,0
219194,control_change,24,0,7,,,,,,,,,6,11,95,,,
219199,control_change,24,0,8,,,,,,,,,7,11,95,,,
219200,control_change,12,0,13,,,,,,,,,12,11,95,,,
219204,control_change,12,0,14,,,,,,,,,13,11,95,,,
219204,control_change,36,0,1,,,,,,,,,0,11,89,,,
219205,control_change,24,0,9,,,,,,,,,8,11,95,,,
219207,control_change,36,0,2,,,,,,,,,1,11,89,,,
219208,control_change,36,0,3,,,,,,,,,2,11,89,,,
219212,control_change,36,0,4,,,,,,,,,3,11,101,,,
219218,control_change,24,0,7,,,,,,,,,6,11,96,,,
219223,control_change,24,0,8,,,,,,,,,7,11,96,,,
219224,control_change,24,0,13,,,,,,,,,12,11,96,,,
219228,control_change,24,0,14,,,,,,,,,13,11,96,,,
219229,control_change,24,0,9,,,,,,,,,8,11,96,,,
219236,note_on,32,0,1,,,,,,,,,0,,,,84,0
219236,note_on,0,0,1,,,,,,,,,0,,,,88,0
219239,note_on,32,0,2,,,,,,,,,1,,,,72,0
219239,note_on,0,0,2,,,,,,,,,1,,,,76,0
219240,set_tempo,120,1,0,,,,,,285714,,,,,,,,
219240,note_on,120,0,11,,,,,,,,,10,,,,67,93
219240,control_change,0,0,11,,,,,,,,,10,11,97,,,
219240,note_on,0,0,3,,,,,,,,,2,,,,76,0
219240,control_change,4,0,1,,,,,,,,,0,11,89,,,
219240,note_on,32,0,3,,,,,,,,,2,,,,72,0
219241,note_on,1,0,1,,,,,,,,,0,,,,91,101
219241,control_change,0,0,1,,,,,,,,,0,11,97,,,
219241,note_on,0,0,1,,,,,,,,,0,,,,88,101
219242,note_on,24,0,7,,,,,,,,,6,,,,72,0
219242,note_on,0,0,7,,,,,,,,,6,,,,55,112
219242,note_on,0,0,7,,,,,,,,,6,,,,60,0
219242,control_change,0,0,7,,,,,,,,,6,11,102,,,
219242,note_on,0,0,7,,,,,,,,,6,,,,67,112
219243,note_on,120,0,12,,,,,,,,,11,,,,64,93
219243,control_change,0,0,12,,,,,,,,,11,11,97,,,
219243,control_change,4,0,2,,,,,,,,,1,11,89,,,
219244,control_change,4,0,3,,,,,,,,,2,11,89,,,
219244,control_change,1,0,2,,,,,,,,,1,11,97,,,
219244,note_on,0,0,2,,,,,,,,,1,,,,79,100
219244,note_on,0,0,2,,,,,,,,,1,,,,76,100
219244,note_on,32,0,4,,,,,,,,,3,,,,64,0
219244,note_on,0,0,4,,,,,,,,,3,,,,60,0
219245,control_change,0,0,3,,,,,,,,,2,11,97,,,
219245,note_on,1,0,3,,,,,,,,,2,,,,79,101
219245,note_on,0,0,3,,,,,,,,,2,,,,76,101
219247,control_change,24,0,8,,,,,,,,,7,11,97,,,
219248,control_change,0,0,13,,,,,,,,,12,11,97,,,
219248,note_on,0,0,13,,,,,,,,,12,,,,67,127
219248,note_on,24,0,13,,,,,,,,,12,,,,59,127
219248,control_change,4,0,4,,,,,,,,,3,11,102,,,
219249,note_on,0,0,4,,,,,,,,,3,,,,64,100
219249,note_on,0,0,4,,,,,,,,,3,,,,67,100
219249,control_change,1,0,4,,,,,,,,,3,11,112,,,
219251,control_change,9,0,7,,,,,,,,,6,11,99,,,
219252,control_change,24,0,14,,,,,,,,,13,11,97,,,
219252,note_on,0,0,14,,,,,,,,,13,,,,64,127
219253,note_on,0,0,9,,,,,,,,,8,,,,43,110
219253,control_change,0,0,9,,,,,,,,,8,11,97,,,
219253,note_on,24,0,9,,,,,,,,,8,,,,48,0
219254,note_on,0,0,15,,,,,,,,,14,,,,31,127
219254,note_on,120,0,15,,,,,,,,,14,,,,36,0
219255,note_on,120,0,10,,,,,,,,,15,,,,48,0
219255,note_on,0,0,10,,,,,,,,,15,,,,43,87
219260,control_change,9,0,7,,,,,,,,,6,11,96,,,
219261,control_change,12,0,4,,,,,,,,,3,11,109,,,
219264,control_change,24,0,11,,,,,,,,,10,11,96,,,
219265,control_change,24,0,1,,,,,,,,,0,11,92,,,
219267,control_change,24,0,12,,,,,,,,,11,11,96,,,
219268,control_change,24,0,2,,,,,,,,,1,11,92,,,
219269,control_change,24,0,3,,,,,,,,,2,11,92,,,
219269,control_change,9,0,7,,,,,,,,,6,11,93,,,
219270,control_change,23,0,8,,,,,,,,,7,11,96,,,
219272,control_change,24,0,13,,,,,,,,,12,11,96,,,
219273,control_change,12,0,4,,,,,,,,,3,11,106,,,
219276,control_change,24,0,14,,,,,,,,,13,11,96,,,
219276,control_change,23,0,9,,,,,,,,,8,11,96,,,
219278,control_change,9,0,7,,,,,,,,,6,11,90,,,
219285,control_change,12,0,4,,,,,,,,,3,11,103,,,
219287,control_change,9,0,7,,,,,,,,,6,11,87,,,
219288,control_change,24,0,11,,,,,,,,,10,11,95,,,
219289,control_change,24,0,1,,,,,,,,,0,11,88,,,
219291,control_change,24,0,12,,,,,,,,,11,11,95,,,
219292,control_change,24,0,2,,,,,,,,,1,11,88,,,
219293,control_change,24,0,3,,,,,,,,,2,11,88,,,
219294,control_change,24,0,8,,,,,,,,,7,11,95,,,
219296,control_change,9,0,7,,,,,,,,,6,11,84,,,
219296,control_change,24,0,13,,,,,,,,,12,11,95,,,
219297,control_change,12,0,4,,,,,,,,,3,11,100,,,
219300,control_change,24,0,14,,,,,,,,,13,11,95,,,
219300,note_on,12,0,11,,,,,,,,,10,,,,67,0
219300,control_change,24,0,9,,,,,,,,,8,11,95,,,
219303,note_on,12,0,12,,,,,,,,,11,,,,64,0
219309,control_change,12,0,4,,,,,,,,,3,11,97,,,
219312,control_change,12,0,11,,,,,,,,,10,11,94,,,
219313,control_change,17,0,7,,,,,,,,,6,11,94,,,
219315,control_change,12,0,12,,,,,,,,,11,11,94,,,
219318,control_change,24,0,8,,,,,,,,,7,11,94,,,
219320,control_change,24,0,13,,,,,,,,,12,11,94,,,
219324,control_change,24,0,14,,,,,,,,,13,11,94,,,
219324,control_change,24,0,9,,,,,,,,,8,11,94,,,
219336,control_change,24,0,11,,,,,,,,,10,11,93,,,
219337,control_change,48,0,1,,,,,,,,,0,11,85,,,
219337,control_change,24,0,7,,,,,,,,,6,11,93,,,
219339,control_change,24,0,12,,,,,,,,,11,11,93,,,
219340,control_change,48,0,2,,,,,,,,,1,11,85,,,
219341,control_change,48,0,3,,,,,,,,,2,11,85,,,
219342,control_change,24,0,8,,,,,,,,,7,11,93,,,
219344,control_change,24,0,13,,,,,,,,,12,11,93,,,
219345,control_change,36,0,4,,,,,,,,,3,11,96,,,
219348,control_change,24,0,9,,,,,,,,,8,11,93,,,
219348,control_change,24,0,14,,,,,,,,,13,11,93,,,
219360,note_on,24,0,11,,,,,,,,,10,,,,71,93
219360,set_tempo,120,1,0,,,,,,300000,,,,,,,,
219360,control_change,0,0,11,,,,,,,,,10,11,92,,,
219361,control_change,24,0,7,,,,,,,,,6,11,92,,,
219363,note_on,24,0,12,,,,,,,,,11,,,,67,93
219363,control_change,0,0,12,,,,,,,,,11,11,92,,,
219366,control_change,24,0,8,,,,,,,,,7,11,92,,,
219368,control_change,24,0,13,,,,,,,,,12,11,92,,,
219372,control_change,24,0,14,,,,,,,,,13,11,92,,,
219372,control_change,24,0,9,,,,,,,,,8,11,92,,,
219373,control_change,36,0,1,,,,,,,,,0,11,84,,,
219376,control_change,36,0,2,,,,,,,,,1,11,84,,,
219377,control_change,36,0,3,,,,,,,,,2,11,84,,,
219381,control_change,36,0,4,,,,,,,,,3,11,95,,,
219384,control_change,24,0,11,,,,,,,,,10,11,91,,,
219385,control_change,24,0,7,,,,,,,,,6,11,91,,,
219387,control_change,24,0,12,,,,,,,,,11,11,91,,,
219390,control_change,24,0,8,,,,,,,,,7,11,91,,,
219392,control_change,24,0,13,,,,,,,,,12,11,91,,,
219396,control_change,24,0,9,,,,,,,,,8,11,91,,,
219396,control_change,24,0,14,,,,,,,,,13,11,91,,,
219408,control_change,24,0,11,,,,,,,,,10,11,90,,,
219409,control_change,24,0,7,,,,,,,,,6,11,90,,,
219409,control_change,36,0,1,,,,,,,,,0,11,83,,,
219411,control_change,24,0,12,,,,,,,,,11,11,90,,,
219412,control_change,36,0,2,,,,,,,,,1,11,83,,,
219413,control_change,36,0,3,,,,,,,,,2,11,83,,,
219414,control_change,24,0,8,,,,,,,,,7,11,90,,,
219416,control_change,24,0,13,,,,,,,,,12,11,90,,,
219417,control_change,36,0,4,,,,,,,,,3,11,94,,,
219420,note_on,12,0,11,,,,,,,,,10,,,,71,0
219420,control_change,24,0,14,,,,,,,,,13,11,90,,,
219420,control_change,24,0,9,,,,,,,,,8,11,90,,,
219423,note_on,12,0,12,,,,,,,,,11,,,,67,0
219423,note_on,0,0,5,,,,,,,,,4,,,,67,100
219423,control_change,300,0,5,,,,,,,,,4,11,82,,,
219424,note_on,300,0,6,,,,,,,,,5,,,,55,100
219424,control_change,0,0,6,,,,,,,,,5,11,82,,,
219427,note_on,13,0,8,,,,,,,,,7,,,,64,110
219427,note_on,0,0,8,,,,,,,,,7,,,,59,110
219432,control_change,12,0,11,,,,,,,,,10,11,89,,,
219433,control_change,24,0,7,,,,,,,,,6,11,89,,,
219435,control_change,12,0,12,,,,,,,,,11,11,89,,,
219438,control_change,11,0,8,,,,,,,,,7,11,89,,,
219440,control_change,24,0,13,,,,,,,,,12,11,89,,,
219441,control_change,18,0,5,,,,,,,,,4,11,84,,,
219442,control_change,18,0,6,,,,,,,,,5,11,84,,,
219444,control_change,24,0,9,,,,,,,,,8,11,89,,,
219444,control_change,24,0,14,,,,,,,,,13,11,89,,,
219445,control_change,36,0,1,,,,,,,,,0,11,83,,,
219448,control_change,36,0,2,,,,,,,,,1,11,83,,,
219449,control_change,36,0,3,,,,,,,,,2,11,83,,,
219453,control_change,36,0,4,,,,,,,,,3,11,93,,,
219456,control_change,24,0,11,,,,,,,,,10,11,88,,,
219457,control_change,24,0,7,,,,,,,,,6,11,88,,,
219459,control_change,24,0,12,,,,,,,,,11,11,88,,,
219459,control_change,18,0,5,,,,,,,,,4,11,86,,,
219460,control_change,18,0,6,,,,,,,,,5,11,86,,,
219462,control_change,24,0,8,,,,,,,,,7,11,88,,,
219464,control_change,24,0,13,,,,,,,,,12,11,88,,,
219468,control_change,24,0,9,,,,,,,,,8,11,88,,,
219468,control_change,24,0,14,,,,,,,,,13,11,88,,,
219477,control_change,18,0,5,,,,,,,,,4,11,88,,,
219478,control_change,18,0,6,,,,,,,,,5,11,88,,,
219480,control_change,24,0,11,,,,,,,,,10,11,87,,,
219480,note_on,0,0,11,,,,,,,,,10,,,,76,93
219480,set_tempo,120,1,0,,,,,,330579,,,,,,,,
219481,control_change,24,0,7,,,,,,,,,6,11,87,,,
219481,control_change,36,0,1,,,,,,,,,0,11,82,,,
219483,note_on,0,0,12,,,,,,,,,11,,,,71,93
219483,note_on,6,0,5,,,,,,,,,4,,,,67,0
219483,note_on,0,0,5,,,,,,,,,4,,,,67,100
219483,control_change,24,0,12,,,,,,,,,11,11,87,,,
219484,note_on,6,0,6,,,,,,,,,5,,,,55,0
219484,control_change,36,0,2,,,,,,,,,1,11,82,,,
219484,note_on,0,0,6,,,,,,,,,5,,,,55,100
219485,control_change,36,0,3,,,,,,,,,2,11,82,,,
219486,control_change,24,0,8,,,,,,,,,7,11,87,,,
219487,note_on,0,0,8,,,,,,,,,7,,,,64,0
219487,note_on,1,0,8,,,,,,,,,7,,,,59,0
219487,note_on,0,0,8,,,,,,,,,7,,,,64,110
219487,note_on,0,0,8,,,,,,,,,7,,,,59,110
219488,control_change,0,0,13,,,,,,,,,12,11,87,,,
219488,note_on,24,0,13,,,,,,,,,12,,,,67,0
219488,note_on,0,0,13,,,,,,,,,12,,,,59,0
219489,control_change,36,0,4,,,,,,,,,3,11,92,,,
219492,note_on,24,0,14,,,,,,,,,13,,,,64,0
219492,control_change,0,0,14,,,,,,,,,13,11,87,,,
219492,control_change,24,0,9,,,,,,,,,8,11,87,,,
219493,note_on,1,0,9,,,,,,,,,8,,,,43,0
219494,note_on,240,0,15,,,,,,,,,14,,,,31,0
219495,control_change,12,0,5,,,,,,,,,4,11,90,,,
219495,note_on,240,0,10,,,,,,,,,15,,,,43,0
219496,control_change,12,0,6,,,,,,,,,5,11,90,,,
219504,control_change,24,0,11,,,,,,,,,10,11,87,,,
219505,control_change,24,0,7,,,,,,,,,6,11,86,,,
219507,control_change,24,0,12,,,,,,,,,11,11,87,,,
219510,control_change,23,0,8,,,,,,,,,7,11,86,,,
219512,control_change,24,0,13,,,,,,,,,12,11,87,,,
219513,control_change,18,0,5,,,,,,,,,4,11,92,,,
219514,control_change,18,0,6,,,,,,,,,5,11,92,,,
219516,control_change,24,0,14,,,,,,,,,13,11,87,,,
219516,control_change,23,0,9,,,,,,,,,8,11,86,,,
219517,control_change,36,0,1,,,,,,,,,0,11,81,,,
219520,control_change,36,0,2,,,,,,,,,1,11,81,,,
219521,control_change,36,0,3,,,,,,,,,2,11,81,,,
219525,control_change,36,0,4,,,,,,,,,3,11,91,,,
219528,control_change,24,0,11,,,,,,,,,10,11,86,,,
219529,control_change,24,0,7,,,,,,,,,6,11,85,,,
219531,control_change,24,0,12,,,,,,,,,11,11,86,,,
219531,control_change,18,0,5,,,,,,,,,4,11,94,,,
219532,control_change,18,0,6,,,,,,,,,5,11,94,,,
219534,control_change,24,0,8,,,,,,,,,7,11,85,,,
219536,control_change,24,0,13,,,,,,,,,12,11,86,,,
219540,control_change,24,0,9,,,,,,,,,8,11,85,,,
219540,note_on,12,0,11,,,,,,,,,10,,,,76,0
219540,control_change,24,0,14,,,,,,,,,13,11,86,,,
219543,note_on,12,0,12,,,,,,,,,11,,,,71,0
219549,control_change,18,0,5,,,,,,,,,4,11,96,,,
219550,control_change,18,0,6,,,,,,,,,5,11,96,,,
219552,control_change,12,0,11,,,,,,,,,10,11,85,,,
219553,control_change,36,0,1,,,,,,,,,0,11,80,,,
219553,control_change,24,0,7,,,,,,,,,6,11,84,,,
219555,control_change,12,0,12,,,,,,,,,11,11,85,,,
219556,control_change,36,0,2,,,,,,,,,1,11,80,,,
219557,control_change,36,0,3,,,,,,,,,2,11,80,,,
219558,control_change,24,0,8,,,,,,,,,7,11,84,,,
219560,control_change,24,0,13,,,,,,,,,12,11,85,,,
219561,control_change,36,0,4,,,,,,,,,3,11,90,,,
219564,control_change,24,0,9,,,,,,,,,8,11,84,,,
219564,control_change,24,0,14,,,,,,,,,13,11,85,,,
219567,control_change,18,0,5,,,,,,,,,4,11,98,,,
219568,control_change,18,0,6,,,,,,,,,5,11,98,,,
219576,control_change,24,0,11,,,,,,,,,10,11,84,,,
219577,control_change,24,0,7,,,,,,,,,6,11,83,,,
219579,control_change,24,0,12,,,,,,,,,11,11,84,,,
219582,control_change,24,0,8,,,,,,,,,7,11,83,,,
219584,control_change,24,0,13,,,,,,,,,12,11,84,,,
219585,control_change,18,0,5,,,,,,,,,4,11,100,,,
219586,control_change,18,0,6,,,,,,,,,5,11,100,,,
219588,control_change,24,0,9,,,,,,,,,8,11,83,,,
219588,control_change,24,0,14,,,,,,,,,13,11,84,,,
219589,control_change,36,0,1,,,,,,,,,0,11,80,,,
219592,control_change,36,0,2,,,,,,,,,1,11,80,,,
219593,control_change,36,0,3,,,,,,,,,2,11,80,,,
219597,control_change,36,0,4,,,,,,,,,3,11,89,,,
219600,control_change,24,0,11,,,,,,,,,10,11,83,,,
219600,note_on,0,0,11,,,,,,,,,10,,,,79,93
219600,set_tempo,120,1,0,,,,,,285714,,,,,,,,
219600,note_on,0,0,11,,,,,,,,,10,,,,71,93
219601,control_change,24,0,7,,,,,,,,,6,11,82,,,
219603,note_on,0,0,12,,,,,,,,,11,,,,76,93
219603,note_on,18,0,5,,,,,,,,,4,,,,67,0
219603,control_change,0,0,5,,,,,,,,,4,11,102,,,
219603,control_change,24,0,12,,,,,,,,,11,11,83,,,
219603,note_on,0,0,5,,,,,,,,,4,,,,67,100
219604,note_on,0,0,6,,,,,,,,,5,,,,55,100
219604,control_change,0,0,6,,,,,,,,,5,11,102,,,
219604,note_on,18,0,6,,,,,,,,,5,,,,55,0
219606,control_change,24,0,8,,,,,,,,,7,11,82,,,
219607,note_on,0,0,8,,,,,,,,,7,,,,59,110
219607,note_on,0,0,8,,,,,,,,,7,,,,59,0
219607,note_on,1,0,8,,,,,,,,,7,,,,64,0
219607,note_on,0,0,8,,,,,,,,,7,,,,64,110
219608,note_on,24,0,13,,,,,,,,,12,,,,59,112
219608,control_change,0,0,13,,,,,,,,,12,11,83,,,
219612,control_change,24,0,14,,,,,,,,,13,11,83,,,
219612,note_on,0,0,14,,,,,,,,,13,,,,52,112
219612,control_change,24,0,9,,,,,,,,,8,11,82,,,
219625,control_change,36,0,1,,,,,,,,,0,11,79,,,
219628,control_change,36,0,2,,,,,,,,,1,11,79,,,
219629,control_change,36,0,3,,,,,,,,,2,11,79,,,
219633,control_change,36,0,4,,,,,,,,,3,11,88,,,
219661,control_change,36,0,1,,,,,,,,,0,11,78,,,
219664,control_change,36,0,2,,,,,,,,,1,11,78,,,
219665,control_change,36,0,3,,,,,,,,,2,11,78,,,
219668,note_on,60,0,13,,,,,,,,,12,,,,59,0
219669,control_change,36,0,4,,,,,,,,,3,11,87,,,
219672,note_on,60,0,14,,,,,,,,,13,,,,52,0
219697,control_change,36,0,1,,,,,,,,,0,11,77,,,
219700,control_change,36,0,2,,,,,,,,,1,11,77,,,
219701,control_change,36,0,3,,,,,,,,,2,11,77,,,
219705,control_change,36,0,4,,,,,,,,,3,11,86,,,
219720,set_tempo,120,1,0,,,,,,300000,,,,,,,,
219728,note_on,60,0,13,,,,,,,,,12,,,,64,112
219732,note_on,60,0,14,,,,,,,,,13,,,,55,112
219733,control_change,36,0,1,,,,,,,,,0,11,76,,,
219736,control_change,36,0,2,,,,,,,,,1,11,76,,,
219737,control_change,36,0,3,,,,,,,,,2,11,76,,,
219741,control_change,36,0,4,,,,,,,,,3,11,85,,,
219769,control_change,36,0,1,,,,,,,,,0,11,76,,,
219772,control_change,36,0,2,,,,,,,,,1,11,76,,,
219773,control_change,36,0,3,,,,,,,,,2,11,76,,,
219777,control_change,36,0,4,,,,,,,,,3,11,84,,,
219782,note_on,181,0,7,,,,,,,,,6,,,,55,0
219782,note_on,0,0,7,,,,,,,,,6,,,,67,0
219782,note_on,0,0,7,,,,,,,,,6,,,,67,112
219782,note_on,0,0,7,,,,,,,,,6,,,,55,112
219788,note_on,60,0,13,,,,,,,,,12,,,,64,0
219792,note_on,60,0,14,,,,,,,,,13,,,,55,0
219793,note_on,181,0,9,,,,,,,,,8,,,,43,110
219794,note_on,300,0,15,,,,,,,,,14,,,,31,112
219795,note_on,300,0,10,,,,,,,,,15,,,,43,87
219805,control_change,36,0,1,,,,,,,,,0,11,75,,,
219808,control_change,36,0,2,,,,,,,,,1,11,75,,,
219809,control_change,36,0,3,,,,,,,,,2,11,75,,,
219813,control_change,36,0,4,,,,,,,,,3,11,83,,,
219840,set_tempo,120,1,0,,,,,,330579,,,,,,,,
219840,note_on,0,0,11,,,,,,,,,10,,,,79,0
219840,note_on,240,0,11,,,,,,,,,10,,,,71,0
219841,note_on,0,0,1,,,,,,,,,0,,,,86,101
219841,note_on,36,0,1,,,,,,,,,0,,,,88,0
219841,control_change,0,0,1,,,,,,,,,0,11,74,,,
219841,note_on,0,0,1,,,,,,,,,0,,,,89,101
219841,note_on,0,0,1,,,,,,,,,0,,,,91,0
219842,note_on,60,0,7,,,,,,,,,6,,,,55,0
219842,note_on,0,0,7,,,,,,,,,6,,,,67,0
219842,note_on,0,0,7,,,,,,,,,6,,,,67,112
219842,note_on,0,0,7,,,,,,,,,6,,,,55,112
219843,note_on,0,0,5,,,,,,,,,4,,,,65,100
219843,note_on,240,0,12,,,,,,,,,11,,,,76,0
219843,note_on,240,0,5,,,,,,,,,4,,,,67,0
219843,note_on,0,0,12,,,,,,,,,11,,,,77,93
219844,note_on,0,0,2,,,,,,,,,1,,,,74,100
219844,control_change,0,0,2,,,,,,,,,1,11,74,,,
219844,note_on,36,0,2,,,,,,,,,1,,,,76,0
219844,note_on,0,0,2,,,,,,,,,1,,,,77,100
219844,note_on,0,0,2,,,,,,,,,1,,,,79,0
219845,note_on,36,0,3,,,,,,,,,2,,,,76,0
219845,note_on,0,0,3,,,,,,,,,2,,,,77,101
219845,note_on,0,0,3,,,,,,,,,2,,,,74,101
219845,note_on,0,0,3,,,,,,,,,2,,,,79,0
219845,control_change,0,0,3,,,,,,,,,2,11,74,,,
219847,note_on,240,0,8,,,,,,,,,7,,,,64,0
219847,note_on,0,0,8,,,,,,,,,7,,,,62,110
219848,note_on,60,0,13,,,,,,,,,12,,,,67,112
219849,note_on,0,0,4,,,,,,,,,3,,,,65,100
219849,control_change,0,0,4,,,,,,,,,3,11,82,,,
219849,note_on,0,0,4,,,,,,,,,3,,,,64,0
219849,note_on,36,0,4,,,,,,,,,3,,,,67,0
219849,note_on,0,0,4,,,,,,,,,3,,,,62,100
219852,note_on,60,0,14,,,,,,,,,13,,,,59,112
219853,note_on,0,0,9,,,,,,,,,8,,,,43,110
219853,note_on,60,0,9,,,,,,,,,8,,,,43,0
219854,note_on,60,0,15,,,,,,,,,14,,,,31,0
219854,note_on,0,0,15,,,,,,,,,14,,,,31,112
219855,note_on,0,0,10,,,,,,,,,15,,,,43,87
219855,note_on,60,0,10,,,,,,,,,15,,,,43,0
219908,note_on,60,0,13,,,,,,,,,12,,,,67,0
219912,note_on,60,0,14,,,,,,,,,13,,,,59,0
219960,set_tempo,120,1,0,,,,,,285714,,,,,,,,
219960,note_on,120,0,11,,,,,,,,,10,,,,64,93
219961,note_on,0,0,1,,,,,,,,,0,,,,84,101
219961,note_on,120,0,1,,,,,,,,,0,,,,86,0
219961,note_on,0,0,1,,,,,,,,,0,,,,88,101
219961,note_on,0,0,1,,,,,,,,,0,,,,89,0
219962,note_on,0,0,7,,,,,,,,,6,,,,72,112
219962,note_on,0,0,7,,,,,,,,,6,,,,60,112
219962,note_on,120,0,7,,,,,,,,,6,,,,55,0
219962,note_on,0,0,7,,,,,,,,,6,,,,67,0
219963,note_on,120,0,12,,,,,,,,,11,,,,77,0
219963,note_on,0,0,12,,,,,,,,,11,,,,60,93
219963,note_on,120,0,5,,,,,,,,,4,,,,65,0
219964,note_on,0,0,2,,,,,,,,,1,,,,76,100
219964,note_on,360,0,6,,,,,,,,,5,,,,55,0
219964,note_on,120,0,2,,,,,,,,,1,,,,74,0
219964,note_on,0,0,2,,,,,,,,,1,,,,77,0
219964,note_on,0,0,2,,,,,,,,,1,,,,72,100
219965,note_on,0,0,3,,,,,,,,,2,,,,72,101
219965,note_on,0,0,3,,,,,,,,,2,,,,76,101
219965,note_on,0,0,3,,,,,,,,,2,,,,74,0
219965,note_on,120,0,3,,,,,,,,,2,,,,77,0
219967,note_on,0,0,8,,,,,,,,,7,,,,59,0
219967,note_on,120,0,8,,,,,,,,,7,,,,62,0
219968,note_on,60,0,13,,,,,,,,,12,,,,64,112
219968,note_on,0,0,13,,,,,,,,,12,,,,55,112
219969,note_on,0,0,4,,,,,,,,,3,,,,64,100
219969,note_on,120,0,4,,,,,,,,,3,,,,65,0
219969,note_on,0,0,4,,,,,,,,,3,,,,60,100
219969,note_on,0,0,4,,,,,,,,,3,,,,62,0
219972,note_on,60,0,14,,,,,,,,,13,,,,60,112
219973,note_on,120,0,9,,,,,,,,,8,,,,43,0
219973,note_on,0,0,9,,,,,,,,,8,,,,48,110
219974,note_on,0,0,15,,,,,,,,,14,,,,36,112
219974,note_on,120,0,15,,,,,,,,,14,,,,31,0
219975,note_on,0,0,10,,,,,,,,,15,,,,48,87
219975,note_on,120,0,10,,,,,,,,,15,,,,43,0
220020,note_on,60,0,11,,,,,,,,,10,,,,64,0
220023,note_on,60,0,12,,,,,,,,,11,,,,60,0
220080,set_tempo,120,1,0,,,,,,300000,,,,,,,,
220080,note_on,60,0,11,,,,,,,,,10,,,,67,93
220083,note_on,60,0,12,,,,,,,,,11,,,,64,93
220140,note_on,60,0,11,,,,,,,,,10,,,,67,0
220143,note_on,180,0,5,,,,,,,,,4,,,,64,100
220143,note_on,60,0,12,,,,,,,,,11,,,,64,0
220144,note_on,180,0,6,,,,,,,,,5,,,,55,100
220147,note_on,180,0,8,,,,,,,,,7,,,,60,110
220200,set_tempo,120,1,0,,,,,,330579,,,,,,,,
220200,note_on,60,0,11,,,,,,,,,10,,,,72,93
220203,note_on,60,0,12,,,,,,,,,11,,,,67,93
220203,note_on,60,0,5,,,,,,,,,4,,,,64,0
220203,note_on,0,0,5,,,,,,,,,4,,,,64,100
220204,note_on,0,0,6,,,,,,,,,5,,,,55,100
220204,note_on,60,0,6,,,,,,,,,5,,,,55,0
220207,note_on,60,0,8,,,,,,,,,7,,,,60,0
220207,note_on,0,0,8,,,,,,,,,7,,,,60,110
220208,note_on,240,0,13,,,,,,,,,12,,,,55,0
220208,note_on,0,0,13,,,,,,,,,12,,,,64,0
220212,note_on,240,0,14,,,,,,,,,13,,,,60,0
220213,note_on,240,0,9,,,,,,,,,8,,,,48,0
220214,note_on,240,0,15,,,,,,,,,14,,,,36,0
220215,note_on,240,0,10,,,,,,,,,15,,,,48,0
220260,note_on,60,0,11,,,,,,,,,10,,,,72,0
220263,note_on,60,0,12,,,,,,,,,11,,,,67,0
220320,set_tempo,120,1,0,,,,,,285714,,,,,,,,
220320,note_on,0,0,11,,,,,,,,,10,,,,67,93
220320,note_on,60,0,11,,,,,,,,,10,,,,76,93
220321,note_on,0,0,1,,,,,,,,,0,,,,84,101
220321,note_on,0,0,1,,,,,,,,,0,,,,84,0
220321,note_on,360,0,1,,,,,,,,,0,,,,88,0
220321,note_on,0,0,1,,,,,,,,,0,,,,76,101
220323,note_on,120,0,5,,,,,,,,,4,,,,64,0
220323,note_on,0,0,5,,,,,,,,,4,,,,60,115
220323,note_on,60,0,12,,,,,,,,,11,,,,72,93
220323,note_on,0,0,12,,,,,,,,,11,,,,64,93
220324,note_on,0,0,2,,,,,,,,,1,,,,72,100
220324,note_on,360,0,2,,,,,,,,,1,,,,72,0
220324,note_on,0,0,6,,,,,,,,,5,,,,60,115
220324,note_on,0,0,2,,,,,,,,,1,,,,64,100
220324,note_on,120,0,6,,,,,,,,,5,,,,55,0
220324,note_on,0,0,2,,,,,,,,,1,,,,76,0
220325,note_on,0,0,3,,,,,,,,,2,,,,64,101
220325,note_on,0,0,3,,,,,,,,,2,,,,72,101
220325,note_on,0,0,3,,,,,,,,,2,,,,76,0
220325,note_on,360,0,3,,,,,,,,,2,,,,72,0
220327,note_on,120,0,8,,,,,,,,,7,,,,60,0
220327,note_on,0,0,8,,,,,,,,,7,,,,60,110
220327,note_on,0,0,8,,,,,,,,,7,,,,52,110
220328,note_on,120,0,13,,,,,,,,,12,,,,60,112
220329,note_on,0,0,4,,,,,,,,,3,,,,60,100
220329,note_on,360,0,4,,,,,,,,,3,,,,64,0
220329,note_on,0,0,4,,,,,,,,,3,,,,60,0
220329,note_on,0,0,4,,,,,,,,,3,,,,52,100
220332,note_on,120,0,14,,,,,,,,,13,,,,55,112
220388,note_on,60,0,13,,,,,,,,,12,,,,60,0
220392,note_on,60,0,14,,,,,,,,,13,,,,55,0
220440,set_tempo,120,1,0,,,,,,300000,,,,,,,,
220441,note_on,120,0,1,,,,,,,,,0,,,,76,0
220441,note_on,0,0,1,,,,,,,,,0,,,,84,0
220441,note_on,0,0,1,,,,,,,,,0,,,,86,101
220441,note_on,0,0,1,,,,,,,,,0,,,,77,101
220443,note_on,0,0,5,,,,,,,,,4,,,,62,115
220443,note_on,120,0,5,,,,,,,,,4,,,,60,0
220444,note_on,0,0,2,,,,,,,,,1,,,,74,100
220444,note_on,0,0,6,,,,,,,,,5,,,,60,115
220444,note_on,120,0,6,,,,,,,,,5,,,,60,0
220444,note_on,0,0,2,,,,,,,,,1,,,,64,0
220444,note_on,120,0,2,,,,,,,,,1,,,,72,0
220444,note_on,0,0,2,,,,,,,,,1,,,,65,100
220445,note_on,0,0,3,,,,,,,,,2,,,,74,101
220445,note_on,0,0,3,,,,,,,,,2,,,,65,101
220445,note_on,0,0,3,,,,,,,,,2,,,,72,0
220445,note_on,120,0,3,,,,,,,,,2,,,,64,0
220447,note_on,0,0,8,,,,,,,,,7,,,,62,110
220447,note_on,120,0,8,,,,,,,,,7,,,,52,0
220447,note_on,0,0,8,,,,,,,,,7,,,,60,0
220447,note_on,0,0,8,,,,,,,,,7,,,,53,110
220448,note_on,60,0,13,,,,,,,,,12,,,,64,112
220449,note_on,0,0,4,,,,,,,,,3,,,,53,100
220449,note_on,0,0,4,,,,,,,,,3,,,,52,0
220449,note_on,120,0,4,,,,,,,,,3,,,,60,0
220449,note_on,0,0,4,,,,,,,,,3,,,,62,100
220452,note_on,60,0,14,,,,,,,,,13,,,,60,112
220502,note_on,0,0,7,,,,,,,,,6,,,,60,112
220502,note_on,0,0,7,,,,,,,,,6,,,,60,0
220502,note_on,0,0,7,,,,,,,,,6,,,,72,112
220502,note_on,540,0,7,,,,,,,,,6,,,,72,0
220508,note_on,60,0,13,,,,,,,,,12,,,,64,0
220512,note_on,60,0,14,,,,,,,,,13,,,,60,0
220513,note_on,300,0,9,,,,,,,,,8,,,,48,110
220514,note_on,300,0,15,,,,,,,,,14,,,,36,112
220515,note_on,300,0,10,,,,,,,,,15,,,,48,87
220560,set_tempo,120,1,0,,,,,,330579,,,,,,,,
220560,note_on,0,0,11,,,,,,,,,10,,,,76,0
220560,note_on,240,0,11,,,,,,,,,10,,,,67,0
220561,note_on,0,0,1,,,,,,,,,0,,,,88,101
220561,note_on,0,0,1,,,,,,,,,0,,,,79,101
220561,note_on,0,0,1,,,,,,,,,0,,,,86,0
220561,note_on,120,0,1,,,,,,,,,0,,,,77,0
220562,note_on,0,0,7,,,,,,,,,6,,,,60,112
220562,note_on,0,0,7,,,,,,,,,6,,,,60,0
220562,note_on,0,0,7,,,,,,,,,6,,,,72,112
220562,note_on,60,0,7,,,,,,,,,6,,,,72,0
220563,note_on,0,0,5,,,,,,,,,4,,,,64,115
220563,note_on,240,0,12,,,,,,,,,11,,,,64,0
220563,note_on,120,0,5,,,,,,,,,4,,,,62,0
220563,note_on,0,0,12,,,,,,,,,11,,,,72,0
220564,note_on,0,0,2,,,,,,,,,1,,,,76,100
220564,note_on,120,0,6,,,,,,,,,5,,,,60,0
220564,note_on,0,0,6,,,,,,,,,5,,,,60,115
220564,note_on,0,0,2,,,,,,,,,1,,,,67,100
220564,note_on,0,0,2,,,,,,,,,1,,,,65,0
220564,note_on,120,0,2,,,,,,,,,1,,,,74,0
220565,note_on,0,0,3,,,,,,,,,2,,,,76,101
220565,note_on,0,0,3,,,,,,,,,2,,,,67,101
220565,note_on,120,0,3,,,,,,,,,2,,,,65,0
220565,note_on,0,0,3,,,,,,,,,2,,,,74,0
220567,note_on,0,0,8,,,,,,,,,7,,,,55,110
220567,note_on,0,0,8,,,,,,,,,7,,,,53,0
220567,note_on,0,0,8,,,,,,,,,7,,,,64,110
220567,note_on,120,0,8,,,,,,,,,7,,,,62,0
220568,note_on,60,0,13,,,,,,,,,12,,,,67,112
220569,note_on,0,0,4,,,,,,,,,3,,,,53,0
220569,note_on,0,0,4,,,,,,,,,3,,,,55,100
220569,note_on,0,0,4,,,,,,,,,3,,,,64,100
220569,note_on,120,0,4,,,,,,,,,3,,,,62,0
220572,note_on,60,0,14,,,,,,,,,13,,,,64,112
220573,note_on,0,0,9,,,,,,,,,8,,,,48,110
220573,note_on,60,0,9,,,,,,,,,8,,,,48,0
220574,note_on,0,0,15,,,,,,,,,14,,,,36,112
220574,note_on,60,0,15,,,,,,,,,14,,,,36,0
220575,note_on,0,0,10,,,,,,,,,15,,,,48,87
220575,note_on,60,0,10,,,,,,,,,15,,,,48,0
220628,note_on,60,0,13,,,,,,,,,12,,,,67,0
220632,note_on,60,0,14,,,,,,,,,13,,,,64,0
220676,note_on,115,0,1,,,,,,,,,0,,,,88,0
220676,note_on,0,0,1,,,,,,,,,0,,,,79,0
220679,note_on,0,0,2,,,,,,,,,1,,,,67,0
220679,note_on,115,0,2,,,,,,,,,1,,,,76,0
220680,note_on,120,0,11,,,,,,,,,10,,,,69,93
220680,note_on,0,0,3,,,,,,,,,2,,,,76,0
220680,set_tempo,120,1,0,,,,,,285714,,,,,,,,
220680,note_on,115,0,3,,,,,,,,,2,,,,67,0
220681,note_on,0,0,1,,,,,,,,,0,,,,81,116
220681,note_on,5,0,1,,,,,,,,,0,,,,89,116
220682,note_on,120,0,7,,,,,,,,,6,,,,72,0
220682,note_on,0,0,7,,,,,,,,,6,,,,72,112
220682,note_on,0,0,7,,,,,,,,,6,,,,60,0
220682,note_on,0,0,7,,,,,,,,,6,,,,60,112
220683,note_on,120,0,12,,,,,,,,,11,,,,65,93
220683,note_on,120,0,5,,,,,,,,,4,,,,64,0
220684,note_on,115,0,4,,,,,,,,,3,,,,64,0
220684,note_on,0,0,2,,,,,,,,,1,,,,77,115
220684,note_on,5,0,2,,,,,,,,,1,,,,69,115
220684,note_on,120,0,6,,,,,,,,,5,,,,60,0
220684,note_on,0,0,4,,,,,,,,,3,,,,55,0
220685,note_on,5,0,3,,,,,,,,,2,,,,69,116
220685,note_on,0,0,3,,,,,,,,,2,,,,77,116
220687,note_on,0,0,8,,,,,,,,,7,,,,64,0
220687,note_on,120,0,8,,,,,,,,,7,,,,55,0
220688,note_on,60,0,13,,,,,,,,,12,,,,69,112
220688,note_on,0,0,13,,,,,,,,,12,,,,60,112
220689,note_on,0,0,4,,,,,,,,,3,,,,65,115
220689,note_on,5,0,4,,,,,,,,,3,,,,57,115
220692,note_on,60,0,14,,,,,,,,,13,,,,65,112
220693,note_on,120,0,9,,,,,,,,,8,,,,48,0
220693,note_on,0,0,9,,,,,,,,,8,,,,48,110
220694,note_on,0,0,15,,,,,,,,,14,,,,36,112
220694,note_on,120,0,15,,,,,,,,,14,,,,36,0
220695,note_on,120,0,10,,,,,,,,,15,,,,48,0
220695,note_on,0,0,10,,,,,,,,,15,,,,48,87
220740,note_on,60,0,11,,,,,,,,,10,,,,69,0
220743,note_on,60,0,12,,,,,,,,,11,,,,65,0
220800,note_on,60,0,11,,,,,,,,,10,,,,72,93
220800,set_tempo,120,1,0,,,,,,300000,,,,,,,,
220803,note_on,60,0,12,,,,,,,,,11,,,,69,93
220860,note_on,60,0,11,,,,,,,,,10,,,,72,0
220863,note_on,60,0,12,,,,,,,,,11,,,,69,0
220863,note_on,180,0,5,,,,,,,,,4,,,,60,100
220864,note_on,180,0,6,,,,,,,,,5,,,,48,100
220867,note_on,180,0,8,,,,,,,,,7,,,,57,110
220867,note_on,0,0,8,,,,,,,,,7,,,,65,110
220920,set_tempo,120,1,0,,,,,,330579,,,,,,,,
220920,note_on,60,0,11,,,,,,,,,10,,,,77,93
220923,note_on,60,0,5,,,,,,,,,4,,,,60,0
220923,note_on,0,0,5,,,,,,,,,4,,,,60,100
220923,note_on,60,0,12,,,,,,,,,11,,,,72,93
220924,note_on,0,0,6,,,,,,,,,5,,,,48,100
220924,note_on,60,0,6,,,,,,,,,5,,,,48,0
220927,note_on,0,0,8,,,,,,,,,7,,,,65,110
220927,note_on,0,0,8,,,,,,,,,7,,,,57,110
220927,note_on,60,0,8,,,,,,,,,7,,,,65,0
220927,note_on,0,0,8,,,,,,,,,7,,,,57,0
220928,note_on,0,0,13,,,,,,,,,12,,,,69,0
220928,note_on,240,0,13,,,,,,,,,12,,,,60,0
220932,note_on,240,0,14,,,,,,,,,13,,,,65,0
220933,note_on,240,0,9,,,,,,,,,8,,,,48,0
220934,note_on,240,0,15,,,,,,,,,14,,,,36,0
220935,note_on,240,0,10,,,,,,,,,15,,,,48,0
220980,note_on,60,0,11,,,,,,,,,10,,,,77,0
220983,note_on,60,0,12,,,,,,,,,11,,,,72,0
221040,set_tempo,120,1,0,,,,,,285714,,,,,,,,
221040,note_on,0,0,11,,,,,,,,,10,,,,67,104
221040,note_on,60,0,11,,,,,,,,,10,,,,76,104
221041,note_on,0,0,1,,,,,,,,,0,,,,79,101
221041,note_on,360,0,1,,,,,,,,,0,,,,81,0
221041,note_on,0,0,1,,,,,,,,,0,,,,88,101
221041,note_on,0,0,1,,,,,,,,,0,,,,89,0
221043,note_on,60,0,12,,,,,,,,,11,,,,64,104
221043,note_on,120,0,5,,,,,,,,,4,,,,60,0
221043,note_on,0,0,12,,,,,,,,,11,,,,72,104
221043,note_on,0,0,5,,,,,,,,,4,,,,60,100
221044,note_on,0,0,2,,,,,,,,,1,,,,76,100
221044,note_on,0,0,2,,,,,,,,,1,,,,67,100
221044,note_on,0,0,2,,,,,,,,,1,,,,69,0
221044,note_on,0,0,6,,,,,,,,,5,,,,48,100
221044,note_on,120,0,6,,,,,,,,,5,,,,48,0
221044,note_on,360,0,2,,,,,,,,,1,,,,77,0
221045,note_on,0,0,3,,,,,,,,,2,,,,69,0
221045,note_on,360,0,3,,,,,,,,,2,,,,77,0
221045,note_on,0,0,3,,,,,,,,,2,,,,67,101
221045,note_on,0,0,3,,,,,,,,,2,,,,76,101
221047,note_on,0,0,8,,,,,,,,,7,,,,64,110
221047,note_on,120,0,8,,,,,,,,,7,,,,65,0
221047,note_on,0,0,8,,,,,,,,,7,,,,57,0
221047,note_on,0,0,8,,,,,,,,,7,,,,55,110
221048,note_on,120,0,13,,,,,,,,,12,,,,60,112
221049,note_on,0,0,4,,,,,,,,,3,,,,55,100
221049,note_on,0,0,4,,,,,,,,,3,,,,64,100
221049,note_on,360,0,4,,,,,,,,,3,,,,65,0
221049,note_on,0,0,4,,,,,,,,,3,,,,57,0
221052,note_on,120,0,14,,,,,,,,,13,,,,55,112
221108,note_on,60,0,13,,,,,,,,,12,,,,60,0
221112,note_on,60,0,14,,,,,,,,,13,,,,55,0
221160,set_tempo,120,1,0,,,,,,300000,,,,,,,,
221160,control_change,120,0,11,,,,,,,,,10,11,83,,,
221161,note_on,120,0,1,,,,,,,,,0,,,,88,0
221161,note_on,0,0,1,,,,,,,,,0,,,,79,0
221163,control_change,120,0,12,,,,,,,,,11,11,83,,,
221164,note_on,0,0,2,,,,,,,,,1,,,,76,0
221164,note_on,120,0,2,,,,,,,,,1,,,,67,0
221165,note_on,120,0,3,,,,,,,,,2,,,,76,0
221165,note_on,0,0,3,,,,,,,,,2,,,,67,0
221168,note_on,60,0,13,,,,,,,,,12,,,,64,112
221169,note_on,120,0,4,,,,,,,,,3,,,,55,0
221169,note_on,0,0,4,,,,,,,,,3,,,,64,0
221172,note_on,60,0,14,,,,,,,,,13,,,,60,112
221177,control_change,17,0,11,,,,,,,,,10,11,80,,,
221180,control_change,17,0,12,,,,,,,,,11,11,80,,,
221195,control_change,18,0,11,,,,,,,,,10,11,77,,,
221198,control_change,18,0,12,,,,,,,,,11,11,77,,,
221213,control_change,18,0,11,,,,,,,,,10,11,74,,,
221216,control_change,18,0,12,,,,,,,,,11,11,74,,,
221222,note_on,0,0,7,,,,,,,,,6,,,,72,112
221222,note_on,0,0,7,,,,,,,,,6,,,,60,112
221222,note_on,0,0,7,,,,,,,,,6,,,,72,0
221222,note_on,540,0,7,,,,,,,,,6,,,,60,0
221228,note_on,60,0,13,,,,,,,,,12,,,,64,0
221231,control_change,18,0,11,,,,,,,,,10,11,72,,,
221232,note_on,60,0,14,,,,,,,,,13,,,,60,0
221233,note_on,300,0,9,,,,,,,,,8,,,,48,110
221234,control_change,18,0,12,,,,,,,,,11,11,72,,,
221234,note_on,300,0,15,,,,,,,,,14,,,,36,112
221235,note_on,300,0,10,,,,,,,,,15,,,,48,87
221249,control_change,18,0,11,,,,,,,,,10,11,69,,,
221252,control_change,18,0,12,,,,,,,,,11,11,69,,,
221267,control_change,18,0,11,,,,,,,,,10,11,66,,,
221270,control_change,18,0,12,,,,,,,,,11,11,66,,,
221280,note_on,0,0,11,,,,,,,,,10,,,,76,0
221280,note_on,13,0,11,,,,,,,,,10,,,,67,0
221280,set_tempo,120,1,0,,,,,,330579,,,,,,,,
221281,note_on,120,0,1,,,,,,,,,0,,,,88,116
221281,note_on,0,0,1,,,,,,,,,0,,,,84,116
221282,note_on,60,0,7,,,,,,,,,6,,,,60,0
221282,note_on,0,0,7,,,,,,,,,6,,,,72,0
221282,note_on,0,0,7,,,,,,,,,6,,,,60,112
221282,note_on,0,0,7,,,,,,,,,6,,,,72,112
221283,note_on,240,0,5,,,,,,,,,4,,,,60,0
221283,note_on,13,0,12,,,,,,,,,11,,,,72,0
221283,note_on,0,0,12,,,,,,,,,11,,,,64,0
221284,note_on,120,0,2,,,,,,,,,1,,,,76,115
221284,note_on,0,0,2,,,,,,,,,1,,,,72,115
221284,note_on,240,0,6,,,,,,,,,5,,,,48,0
221285,note_on,120,0,3,,,,,,,,,2,,,,76,116
221285,note_on,0,0,3,,,,,,,,,2,,,,72,116
221287,note_on,0,0,8,,,,,,,,,7,,,,55,0
221287,note_on,240,0,8,,,,,,,,,7,,,,64,0
221288,note_on,60,0,13,,,,,,,,,12,,,,67,112
221289,note_on,120,0,4,,,,,,,,,3,,,,64,115
221289,note_on,0,0,4,,,,,,,,,3,,,,60,115
221292,note_on,60,0,14,,,,,,,,,13,,,,64,112
221293,note_on,0,0,9,,,,,,,,,8,,,,48,110
221293,note_on,60,0,9,,,,,,,,,8,,,,48,0
221294,note_on,0,0,15,,,,,,,,,14,,,,36,112
221294,note_on,60,0,15,,,,,,,,,14,,,,36,0
221295,note_on,0,0,10,,,,,,,,,15,,,,48,87
221295,note_on,60,0,10,,,,,,,,,15,,,,48,0
221341,note_on,60,0,1,,,,,,,,,0,,,,84,0
221341,note_on,0,0,1,,,,,,,,,0,,,,88,0
221344,note_on,60,0,2,,,,,,,,,1,,,,72,0
221344,note_on,0,0,2,,,,,,,,,1,,,,76,0
221345,note_on,60,0,3,,,,,,,,,2,,,,72,0
221345,note_on,0,0,3,,,,,,,,,2,,,,76,0
221348,note_on,60,0,13,,,,,,,,,12,,,,67,0
221349,note_on,60,0,4,,,,,,,,,3,,,,60,0
221349,note_on,0,0,4,,,,,,,,,3,,,,64,0
221352,note_on,60,0,14,,,,,,,,,13,,,,64,0
221400,note_on,0,0,11,,,,,,,,,10,,,,72,93
221400,control_change,120,0,11,,,,,,,,,10,11,83,,,
221400,set_tempo,120,1,0,,,,,,285714,,,,,,,,
221401,note_on,60,0,1,,,,,,,,,0,,,,93,116
221401,note_on,0,0,1,,,,,,,,,0,,,,89,116
221402,note_on,0,0,7,,,,,,,,,6,,,,60,0
221402,note_on,120,0,7,,,,,,,,,6,,,,72,0
221402,note_on,0,0,7,,,,,,,,,6,,,,72,112
221402,note_on,0,0,7,,,,,,,,,6,,,,60,112
221403,control_change,120,0,12,,,,,,,,,11,11,83,,,
221403,note_on,0,0,12,,,,,,,,,11,,,,69,93
221404,note_on,60,0,2,,,,,,,,,1,,,,77,115
221404,note_on,0,0,2,,,,,,,,,1,,,,81,115
221405,note_on,60,0,3,,,,,,,,,2,,,,77,116
221405,note_on,0,0,3,,,,,,,,,2,,,,81,116
221408,note_on,0,0,13,,,,,,,,,12,,,,60,112
221408,note_on,60,0,13,,,,,,,,,12,,,,69,112
221409,note_on,0,0,4,,,,,,,,,3,,,,69,115
221409,note_on,60,0,4,,,,,,,,,3,,,,65,115
221412,note_on,60,0,14,,,,,,,,,13,,,,65,112
221413,note_on,120,0,9,,,,,,,,,8,,,,48,0
221413,note_on,0,0,9,,,,,,,,,8,,,,48,110
221414,note_on,120,0,15,,,,,,,,,14,,,,36,0
221414,note_on,0,0,15,,,,,,,,,14,,,,36,112
221415,note_on,120,0,10,,,,,,,,,15,,,,48,0
221415,note_on,0,0,10,,,,,,,,,15,,,,48,87
221460,note_on,60,0,11,,,,,,,,,10,,,,72,0
221463,note_on,60,0,12,,,,,,,,,11,,,,69,0
221520,note_on,60,0,11,,,,,,,,,10,,,,77,93
221520,set_tempo,120,1,0,,,,,,300000,,,,,,,,
221523,note_on,60,0,12,,,,,,,,,11,,,,72,93
221580,note_on,60,0,11,,,,,,,,,10,,,,77,0
221583,note_on,300,0,5,,,,,,,,,4,,,,60,100
221583,note_on,60,0,12,,,,,,,,,11,,,,72,0
221584,note_on,300,0,6,,,,,,,,,5,,,,48,100
221587,note_on,0,0,8,,,,,,,,,7,,,,65,110
221587,note_on,300,0,8,,,,,,,,,7,,,,57,110
221640,note_on,60,0,11,,,,,,,,,10,,,,81,93
221640,set_tempo,120,1,0,,,,,,330579,,,,,,,,
221643,note_on,60,0,12,,,,,,,,,11,,,,77,93
221643,note_on,0,0,5,,,,,,,,,4,,,,60,100
221643,note_on,60,0,5,,,,,,,,,4,,,,60,0
221644,note_on,0,0,6,,,,,,,,,5,,,,48,100
221644,note_on,60,0,6,,,,,,,,,5,,,,48,0
221647,note_on,0,0,8,,,,,,,,,7,,,,57,0
221647,note_on,60,0,8,,,,,,,,,7,,,,65,0
221647,note_on,0,0,8,,,,,,,,,7,,,,57,110
221647,note_on,0,0,8,,,,,,,,,7,,,,65,110
221648,note_on,240,0,13,,,,,,,,,12,,,,60,0
221648,note_on,0,0,13,,,,,,,,,12,,,,69,0
221652,note_on,240,0,14,,,,,,,,,13,,,,65,0
221653,note_on,240,0,9,,,,,,,,,8,,,,48,0
221654,note_on,240,0,15,,,,,,,,,14,,,,36,0
221655,note_on,240,0,10,,,,,,,,,15,,,,48,0
221700,note_on,60,0,11,,,,,,,,,10,,,,81,0
221703,note_on,60,0,12,,,,,,,,,11,,,,77,0
221760,note_on,60,0,11,,,,,,,,,10,,,,72,93
221760,note_on,0,0,11,,,,,,,,,10,,,,79,93
221760,control_change,0,0,11,,,,,,,,,10,11,83,,,
221760,set_tempo,120,1,0,,,,,,285714,,,,,,,,
221761,note_on,0,0,1,,,,,,,,,0,,,,91,101
221761,note_on,0,0,1,,,,,,,,,0,,,,88,101
221761,note_on,360,0,1,,,,,,,,,0,,,,89,0
221761,note_on,0,0,1,,,,,,,,,0,,,,93,0
221761,control_change,0,0,1,,,,,,,,,0,11,74,,,
221762,control_change,360,0,7,,,,,,,,,6,11,82,,,
221763,note_on,0,0,5,,,,,,,,,4,,,,60,100
221763,note_on,120,0,5,,,,,,,,,4,,,,60,0
221763,note_on,60,0,12,,,,,,,,,11,,,,76,93
221763,note_on,0,0,12,,,,,,,,,11,,,,67,93
221763,control_change,0,0,12,,,,,,,,,11,11,83,,,
221764,note_on,0,0,2,,,,,,,,,1,,,,77,0
221764,note_on,360,0,2,,,,,,,,,1,,,,81,0
221764,control_change,0,0,2,,,,,,,,,1,11,74,,,
221764,note_on,0,0,2,,,,,,,,,1,,,,79,100
221764,note_on,120,0,6,,,,,,,,,5,,,,48,0
221764,note_on,0,0,2,,,,,,,,,1,,,,76,100
221764,note_on,0,0,6,,,,,,,,,5,,,,48,100
221765,note_on,360,0,3,,,,,,,,,2,,,,81,0
221765,control_change,0,0,3,,,,,,,,,2,11,74,,,
221765,note_on,0,0,3,,,,,,,,,2,,,,79,101
221765,note_on,0,0,3,,,,,,,,,2,,,,76,101
221765,note_on,0,0,3,,,,,,,,,2,,,,77,0
221767,note_on,120,0,8,,,,,,,,,7,,,,57,0
221767,note_on,0,0,8,,,,,,,,,7,,,,65,0
221767,note_on,0,0,8,,,,,,,,,7,,,,55,110
221767,note_on,0,0,8,,,,,,,,,7,,,,64,110
221767,control_change,0,0,8,,,,,,,,,7,11,82,,,
221768,note_on,0,0,13,,,,,,,,,12,,,,55,112
221768,control_change,120,0,13,,,,,,,,,12,11,83,,,
221769,note_on,0,0,4,,,,,,,,,3,,,,67,100
221769,control_change,0,0,4,,,,,,,,,3,11,82,,,
221769,note_on,0,0,4,,,,,,,,,3,,,,64,100
221769,note_on,0,0,4,,,,,,,,,3,,,,65,0
221769,note_on,360,0,4,,,,,,,,,3,,,,69,0
221772,note_on,120,0,14,,,,,,,,,13,,,,52,112
221772,control_change,0,0,14,,,,,,,,,13,11,83,,,
221773,control_change,120,0,9,,,,,,,,,8,11,82,,,
221785,control_change,24,0,1,,,,,,,,,0,11,75,,,
221785,control_change,23,0,7,,,,,,,,,6,11,83,,,
221788,control_change,24,0,2,,,,,,,,,1,11,75,,,
221789,control_change,24,0,3,,,,,,,,,2,11,75,,,
221790,control_change,23,0,8,,,,,,,,,7,11,83,,,
221792,control_change,24,0,13,,,,,,,,,12,11,84,,,
221793,control_change,24,0,4,,,,,,,,,3,11,83,,,
221796,control_change,24,0,14,,,,,,,,,13,11,84,,,
221796,control_change,23,0,9,,,,,,,,,8,11,83,,,
221809,control_change,24,0,1,,,,,,,,,0,11,76,,,
221809,control_change,24,0,7,,,,,,,,,6,11,84,,,
221812,control_change,24,0,2,,,,,,,,,1,11,76,,,
221813,control_change,24,0,3,,,,,,,,,2,11,76,,,
221814,control_change,24,0,8,,,,,,,,,7,11,84,,,
221816,control_change,24,0,13,,,,,,,,,12,11,85,,,
221817,control_change,24,0,4,,,,,,,,,3,11,84,,,
221820,control_change,24,0,9,,,,,,,,,8,11,84,,,
221820,control_change,24,0,14,,,,,,,,,13,11,85,,,
221828,note_on,12,0,13,,,,,,,,,12,,,,55,0
221832,note_on,12,0,14,,,,,,,,,13,,,,52,0
221833,control_change,24,0,7,,,,,,,,,6,11,85,,,
221833,control_change,24,0,1,,,,,,,,,0,11,76,,,
221836,control_change,24,0,2,,,,,,,,,1,11,76,,,
221837,control_change,24,0,3,,,,,,,,,2,11,76,,,
221838,control_change,24,0,8,,,,,,,,,7,11,85,,,
221840,control_change,12,0,13,,,,,,,,,12,11,86,,,
221841,control_change,24,0,4,,,,,,,,,3,11,85,,,
221844,control_change,24,0,9,,,,,,,,,8,11,85,,,
221844,control_change,12,0,14,,,,,,,,,13,11,86,,,
221857,control_change,24,0,1,,,,,,,,,0,11,77,,,
221857,control_change,24,0,7,,,,,,,,,6,11,86,,,
221860,control_change,24,0,2,,,,,,,,,1,11,77,,,
221861,control_change,24,0,3,,,,,,,,,2,11,77,,,
221862,control_change,24,0,8,,,,,,,,,7,11,86,,,
221864,control_change,24,0,13,,,,,,,,,12,11,87,,,
221865,control_change,24,0,4,,,,,,,,,3,11,86,,,
221868,control_change,24,0,9,,,,,,,,,8,11,86,,,
221868,control_change,24,0,14,,,,,,,,,13,11,87,,,
221880,set_tempo,120,1,0,,,,,,300000,,,,,,,,
221881,control_change,24,0,7,,,,,,,,,6,11,87,,,
221881,control_change,0,0,1,,,,,,,,,0,11,78,,,
221881,note_on,0,0,1,,,,,,,,,0,,,,86,101
221881,note_on,0,0,1,,,,,,,,,0,,,,89,101
221881,note_on,0,0,1,,,,,,,,,0,,,,88,0
221881,note_on,24,0,1,,,,,,,,,0,,,,91,0
221884,control_change,0,0,2,,,,,,,,,1,11,78,,,
221884,note_on,24,0,2,,,,,,,,,1,,,,79,0
221884,note_on,0,0,2,,,,,,,,,1,,,,76,0
221884,note_on,0,0,2,,,,,,,,,1,,,,74,100
221884,note_on,0,0,2,,,,,,,,,1,,,,77,100
221885,control_change,0,0,3,,,,,,,,,2,11,78,,,
221885,note_on,0,0,3,,,,,,,,,2,,,,74,101
221885,note_on,0,0,3,,,,,,,,,2,,,,77,101
221885,note_on,24,0,3,,,,,,,,,2,,,,79,0
221885,note_on,0,0,3,,,,,,,,,2,,,,76,0
221886,control_change,24,0,8,,,,,,,,,7,11,87,,,
221888,control_change,0,0,13,,,,,,,,,12,11,87,,,
221888,note_on,24,0,13,,,,,,,,,12,,,,60,112
221889,note_on,0,0,4,,,,,,,,,3,,,,64,0
221889,note_on,24,0,4,,,,,,,,,3,,,,67,0
221889,note_on,0,0,4,,,,,,,,,3,,,,62,100
221889,control_change,0,0,4,,,,,,,,,3,11,87,,,
221889,note_on,0,0,4,,,,,,,,,3,,,,65,100
221892,note_on,24,0,14,,,,,,,,,13,,,,55,112
221892,control_change,24,0,9,,,,,,,,,8,11,87,,,
221892,control_change,0,0,14,,,,,,,,,13,11,87,,,
221905,control_change,24,0,7,,,,,,,,,6,11,88,,,
221905,control_change,24,0,1,,,,,,,,,0,11,79,,,
221908,control_change,24,0,2,,,,,,,,,1,11,79,,,
221909,control_change,24,0,3,,,,,,,,,2,11,79,,,
221910,control_change,24,0,8,,,,,,,,,7,11,88,,,
221912,control_change,24,0,13,,,,,,,,,12,11,88,,,
221913,control_change,24,0,4,,,,,,,,,3,11,88,,,
221916,control_change,24,0,9,,,,,,,,,8,11,88,,,
221916,control_change,24,0,14,,,,,,,,,13,11,88,,,
221929,control_change,24,0,7,,,,,,,,,6,11,89,,,
221929,control_change,24,0,1,,,,,,,,,0,11,80,,,
221932,control_change,24,0,2,,,,,,,,,1,11,80,,,
221933,control_change,24,0,3,,,,,,,,,2,11,80,,,
221934,control_change,24,0,8,,,,,,,,,7,11,89,,,
221936,control_change,24,0,13,,,,,,,,,12,11,89,,,
221937,control_change,24,0,4,,,,,,,,,3,11,89,,,
221940,control_change,24,0,14,,,,,,,,,13,11,89,,,
221940,control_change,24,0,9,,,,,,,,,8,11,89,,,
221942,note_on,13,0,7,,,,,,,,,6,,,,72,0
221942,note_on,0,0,7,,,,,,,,,6,,,,60,0
221942,note_on,0,0,7,,,,,,,,,6,,,,60,112
221942,note_on,0,0,7,,,,,,,,,6,,,,72,112
221948,note_on,12,0,13,,,,,,,,,12,,,,60,0
221952,note_on,12,0,14,,,,,,,,,13,,,,55,0
221953,note_on,13,0,9,,,,,,,,,8,,,,48,110
221953,control_change,24,0,1,,,,,,,,,0,11,80,,,
221953,control_change,11,0,7,,,,,,,,,6,11,90,,,
221954,note_on,300,0,15,,,,,,,,,14,,,,36,112
221955,note_on,300,0,10,,,,,,,,,15,,,,48,87
221956,control_change,24,0,2,,,,,,,,,1,11,80,,,
221957,control_change,24,0,3,,,,,,,,,2,11,80,,,
221958,control_change,24,0,8,,,,,,,,,7,11,90,,,
221960,control_change,12,0,13,,,,,,,,,12,11,90,,,
221961,control_change,24,0,4,,,,,,,,,3,11,90,,,
221964,control_change,11,0,9,,,,,,,,,8,11,90,,,
221964,control_change,12,0,14,,,,,,,,,13,11,90,,,
221977,control_change,24,0,1,,,,,,,,,0,11,81,,,
221977,control_change,24,0,7,,,,,,,,,6,11,91,,,
221980,control_change,24,0,2,,,,,,,,,1,11,81,,,
221981,control_change,24,0,3,,,,,,,,,2,11,81,,,
221982,control_change,24,0,8,,,,,,,,,7,11,91,,,
221984,control_change,24,0,13,,,,,,,,,12,11,91,,,
221985,control_change,24,0,4,,,,,,,,,3,11,91,,,
221988,control_change,24,0,9,,,,,,,,,8,11,91,,,
221988,control_change,24,0,14,,,,,,,,,13,11,91,,,
222000,set_tempo,120,1,0,,,,,,330579,,,,,,,,
222000,note_on,240,0,11,,,,,,,,,10,,,,79,0
222000,note_on,0,0,11,,,,,,,,,10,,,,72,0
222001,note_on,0,0,1,,,,,,,,,0,,,,89,0
222001,note_on,0,0,1,,,,,,,,,0,,,,88,101
222001,note_on,0,0,1,,,,,,,,,0,,,,84,101
222001,control_change,24,0,7,,,,,,,,,6,11,92,,,
222001,note_on,24,0,1,,,,,,,,,0,,,,86,0
222001,control_change,0,0,1,,,,,,,,,0,11,82,,,
222002,note_on,0,0,7,,,,,,,,,6,,,,60,0
222002,note_on,0,0,7,,,,,,,,,6,,,,60,112
222002,note_on,1,0,7,,,,,,,,,6,,,,72,0
222002,note_on,0,0,7,,,,,,,,,6,,,,72,112
222003,note_on,0,0,12,,,,,,,,,11,,,,76,0
222003,note_on,240,0,12,,,,,,,,,11,,,,67,0
222003,note_on,240,0,5,,,,,,,,,4,,,,60,0
222004,note_on,0,0,2,,,,,,,,,1,,,,72,100
222004,note_on,240,0,6,,,,,,,,,5,,,,48,0
222004,control_change,0,0,2,,,,,,,,,1,11,82,,,
222004,note_on,24,0,2,,,,,,,,,1,,,,74,0
222004,note_on,0,0,2,,,,,,,,,1,,,,77,0
222004,note_on,0,0,2,,,,,,,,,1,,,,76,100
222005,note_on,24,0,3,,,,,,,,,2,,,,74,0
222005,note_on,0,0,3,,,,,,,,,2,,,,77,0
222005,control_change,0,0,3,,,,,,,,,2,11,82,,,
222005,note_on,0,0,3,,,,,,,,,2,,,,72,101
222005,note_on,0,0,3,,,,,,,,,2,,,,76,101
222006,control_change,24,0,8,,,,,,,,,7,11,92,,,
222007,note_on,0,0,8,,,,,,,,,7,,,,55,0
222007,note_on,1,0,8,,,,,,,,,7,,,,64,0
222008,note_on,0,0,13,,,,,,,,,12,,,,64,112
222008,control_change,24,0,13,,,,,,,,,12,11,92,,,
222009,note_on,24,0,4,,,,,,,,,3,,,,65,0
222009,note_on,0,0,4,,,,,,,,,3,,,,62,0
222009,control_change,0,0,4,,,,,,,,,3,11,92,,,
222009,note_on,0,0,4,,,,,,,,,3,,,,60,100
222009,note_on,0,0,4,,,,,,,,,3,,,,64,100
222012,note_on,24,0,14,,,,,,,,,13,,,,60,112
222012,control_change,24,0,9,,,,,,,,,8,11,92,,,
222012,control_change,0,0,14,,,,,,,,,13,11,92,,,
222013,note_on,0,0,9,,,,,,,,,8,,,,48,110
222013,note_on,1,0,9,,,,,,,,,8,,,,48,0
222014,note_on,0,0,15,,,,,,,,,14,,,,36,112
222014,note_on,60,0,15,,,,,,,,,14,,,,36,0
222015,note_on,0,0,10,,,,,,,,,15,,,,48,87
222015,note_on,60,0,10,,,,,,,,,15,,,,48,0
222025,control_change,24,0,1,,,,,,,,,0,11,83,,,
222025,control_change,23,0,7,,,,,,,,,6,11,93,,,
222028,control_change,24,0,2,,,,,,,,,1,11,83,,,
222029,control_change,24,0,3,,,,,,,,,2,11,83,,,
222030,control_change,23,0,8,,,,,,,,,7,11,93,,,
222032,control_change,24,0,13,,,,,,,,,12,11,93,,,
222033,control_change,24,0,4,,,,,,,,,3,11,93,,,
222036,control_change,24,0,14,,,,,,,,,13,11,93,,,
222036,control_change,23,0,9,,,,,,,,,8,11,93,,,
222049,control_change,24,0,7,,,,,,,,,6,11,94,,,
222049,control_change,24,0,1,,,,,,,,,0,11,83,,,
222052,control_change,24,0,2,,,,,,,,,1,11,83,,,
222053,control_change,24,0,3,,,,,,,,,2,11,83,,,
222054,control_change,24,0,8,,,,,,,,,7,11,94,,,
222056,control_change,24,0,13,,,,,,,,,12,11,94,,,
222057,control_change,24,0,4,,,,,,,,,3,11,94,,,
222060,control_change,24,0,9,,,,,,,,,8,11,94,,,
222060,control_change,24,0,14,,,,,,,,,13,11,94,,,
222068,note_on,12,0,13,,,,,,,,,12,,,,64,0
222072,note_on,12,0,14,,,,,,,,,13,,,,60,0
222073,control_change,24,0,1,,,,,,,,,0,11,84,,,
222073,control_change,24,0,7,,,,,,,,,6,11,95,,,
222076,control_change,24,0,2,,,,,,,,,1,11,84,,,
222077,control_change,24,0,3,,,,,,,,,2,11,84,,,
222078,control_change,24,0,8,,,,,,,,,7,11,95,,,
222080,control_change,12,0,13,,,,,,,,,12,11,95,,,
222081,control_change,24,0,4,,,,,,,,,3,11,95,,,
222084,control_change,12,0,14,,,,,,,,,13,11,95,,,
222084,control_change,24,0,9,,,,,,,,,8,11,95,,,
222097,control_change,24,0,7,,,,,,,,,6,11,96,,,
222097,control_change,24,0,1,,,,,,,,,0,11,85,,,
222100,control_change,24,0,2,,,,,,,,,1,11,85,,,
222101,control_change,24,0,3,,,,,,,,,2,11,85,,,
222102,control_change,24,0,8,,,,,,,,,7,11,96,,,
222104,control_change,24,0,13,,,,,,,,,12,11,96,,,
222105,control_change,24,0,4,,,,,,,,,3,11,96,,,
222108,control_change,24,0,14,,,,,,,,,13,11,96,,,
222108,control_change,24,0,9,,,,,,,,,8,11,96,,,
222116,note_on,19,0,1,,,,,,,,,0,,,,84,0
222116,note_on,0,0,1,,,,,,,,,0,,,,88,0
222119,note_on,19,0,2,,,,,,,,,1,,,,76,0
222119,note_on,0,0,2,,,,,,,,,1,,,,72,0
222120,set_tempo,120,1,0,,,,,,285714,,,,,,,,
222120,note_on,0,0,11,,,,,,,,,10,,,,67,93
222120,control_change,120,0,11,,,,,,,,,10,11,97,,,
222120,note_on,0,0,3,,,,,,,,,2,,,,72,0
222120,note_on,19,0,3,,,,,,,,,2,,,,76,0
222121,note_on,0,0,1,,,,,,,,,0,,,,91,101
222121,control_change,24,0,7,,,,,,,,,6,11,97,,,
222121,note_on,5,0,1,,,,,,,,,0,,,,88,101
222121,control_change,0,0,1,,,,,,,,,0,11,97,,,
222122,note_on,0,0,7,,,,,,,,,6,,,,55,112
222122,note_on,0,0,7,,,,,,,,,6,,,,67,112
222122,note_on,1,0,7,,,,,,,,,6,,,,60,0
222122,note_on,0,0,7,,,,,,,,,6,,,,72,0
222123,note_on,120,0,12,,,,,,,,,11,,,,64,93
222123,control_change,0,0,12,,,,,,,,,11,11,97,,,
222124,control_change,0,0,2,,,,,,,,,1,11,97,,,
222124,note_on,5,0,2,,,,,,,,,1,,,,79,100
222124,note_on,0,0,4,,,,,,,,,3,,,,60,0
222124,note_on,0,0,2,,,,,,,,,1,,,,76,100
222124,note_on,19,0,4,,,,,,,,,3,,,,64,0
222125,note_on,5,0,3,,,,,,,,,2,,,,79,101
222125,note_on,0,0,3,,,,,,,,,2,,,,76,101
222125,control_change,0,0,3,,,,,,,,,2,11,97,,,
222126,control_change,24,0,8,,,,,,,,,7,11,97,,,
222128,note_on,24,0,13,,,,,,,,,12,,,,67,112
222128,control_change,0,0,13,,,,,,,,,12,11,97,,,
222128,note_on,0,0,13,,,,,,,,,12,,,,59,112
222129,note_on,5,0,4,,,,,,,,,3,,,,67,100
222129,note_on,0,0,4,,,,,,,,,3,,,,64,100
222129,control_change,0,0,4,,,,,,,,,3,11,112,,,
222132,control_change,24,0,9,,,,,,,,,8,11,97,,,
222132,control_change,0,0,14,,,,,,,,,13,11,97,,,
222132,note_on,24,0,14,,,,,,,,,13,,,,64,112
222133,note_on,0,0,9,,,,,,,,,8,,,,43,110
222133,note_on,1,0,9,,,,,,,,,8,,,,48,0
222134,note_on,120,0,15,,,,,,,,,14,,,,36,0
222134,note_on,0,0,15,,,,,,,,,14,,,,31,112
222135,note_on,0,0,10,,,,,,,,,15,,,,43,87
222135,note_on,120,0,10,,,,,,,,,15,,,,48,0
222138,control_change,16,0,7,,,,,,,,,6,11,96,,,
222141,control_change,12,0,4,,,,,,,,,3,11,109,,,
222143,control_change,17,0,8,,,,,,,,,7,11,96,,,
222144,control_change,24,0,11,,,,,,,,,10,11,96,,,
222145,control_change,24,0,1,,,,,,,,,0,11,92,,,
222147,control_change,24,0,12,,,,,,,,,11,11,96,,,
222148,control_change,24,0,2,,,,,,,,,1,11,92,,,
222149,control_change,16,0,9,,,,,,,,,8,11,96,,,
222149,control_change,24,0,3,,,,,,,,,2,11,92,,,
222152,control_change,24,0,13,,,,,,,,,12,11,96,,,
222153,control_change,12,0,4,,,,,,,,,3,11,106,,,
222154,control_change,16,0,7,,,,,,,,,6,11,95,,,
222156,control_change,24,0,14,,,,,,,,,13,11,96,,,
222159,control_change,16,0,8,,,,,,,,,7,11,95,,,
222165,control_change,12,0,4,,,,,,,,,3,11,103,,,
222165,control_change,16,0,9,,,,,,,,,8,11,95,,,
222168,control_change,24,0,11,,,,,,,,,10,11,95,,,
222169,control_change,24,0,1,,,,,,,,,0,11,88,,,
222170,control_change,16,0,7,,,,,,,,,6,11,94,,,
222171,control_change,24,0,12,,,,,,,,,11,11,95,,,
222172,control_change,24,0,2,,,,,,,,,1,11,88,,,
222173,control_change,24,0,3,,,,,,,,,2,11,88,,,
222175,control_change,16,0,8,,,,,,,,,7,11,94,,,
222176,control_change,24,0,13,,,,,,,,,12,11,95,,,
222177,control_change,12,0,4,,,,,,,,,3,11,100,,,
222180,control_change,24,0,14,,,,,,,,,13,11,95,,,
222180,note_on,12,0,11,,,,,,,,,10,,,,67,0
222181,control_change,16,0,9,,,,,,,,,8,11,94,,,
222183,note_on,12,0,12,,,,,,,,,11,,,,64,0
222186,control_change,16,0,7,,,,,,,,,6,11,93,,,
222189,control_change,12,0,4,,,,,,,,,3,11,97,,,
222191,control_change,16,0,8,,,,,,,,,7,11,93,,,
222192,control_change,12,0,11,,,,,,,,,10,11,94,,,
222195,control_change,12,0,12,,,,,,,,,11,11,94,,,
222197,control_change,16,0,9,,,,,,,,,8,11,93,,,
222200,control_change,24,0,13,,,,,,,,,12,11,94,,,
222202,control_change,16,0,7,,,,,,,,,6,11,92,,,
222204,control_change,24,0,14,,,,,,,,,13,11,94,,,
222207,control_change,16,0,8,,,,,,,,,7,11,92,,,
222213,control_change,16,0,9,,,,,,,,,8,11,92,,,
222216,control_change,24,0,11,,,,,,,,,10,11,93,,,
222217,control_change,48,0,1,,,,,,,,,0,11,85,,,
222218,control_change,16,0,7,,,,,,,,,6,11,91,,,
222219,control_change,24,0,12,,,,,,,,,11,11,93,,,
222220,control_change,48,0,2,,,,,,,,,1,11,85,,,
222221,control_change,48,0,3,,,,,,,,,2,11,85,,,
222223,control_change,16,0,8,,,,,,,,,7,11,91,,,
222224,control_change,24,0,13,,,,,,,,,12,11,93,,,
222225,control_change,36,0,4,,,,,,,,,3,11,96,,,
222228,control_change,24,0,14,,,,,,,,,13,11,93,,,
222229,control_change,16,0,9,,,,,,,,,8,11,91,,,
222234,control_change,16,0,7,,,,,,,,,6,11,90,,,
222239,control_change,16,0,8,,,,,,,,,7,11,90,,,
222240,note_on,24,0,11,,,,,,,,,10,,,,71,93
222240,set_tempo,120,1,0,,,,,,300000,,,,,,,,
222240,control_change,0,0,11,,,,,,,,,10,11,92,,,
222243,control_change,24,0,12,,,,,,,,,11,11,92,,,
222243,note_on,0,0,12,,,,,,,,,11,,,,67,93
222245,control_change,16,0,9,,,,,,,,,8,11,90,,,
222248,control_change,24,0,13,,,,,,,,,12,11,92,,,
222250,control_change,16,0,7,,,,,,,,,6,11,89,,,
222252,control_change,24,0,14,,,,,,,,,13,11,92,,,
222253,control_change,36,0,1,,,,,,,,,0,11,84,,,
222255,control_change,16,0,8,,,,,,,,,7,11,89,,,
222256,control_change,36,0,2,,,,,,,,,1,11,84,,,
222257,control_change,36,0,3,,,,,,,,,2,11,84,,,
222261,control_change,16,0,9,,,,,,,,,8,11,89,,,
222261,control_change,36,0,4,,,,,,,,,3,11,95,,,
222264,control_change,24,0,11,,,,,,,,,10,11,91,,,
222266,control_change,16,0,7,,,,,,,,,6,11,88,,,
222267,control_change,24,0,12,,,,,,,,,11,11,91,,,
222271,control_change,16,0,8,,,,,,,,,7,11,88,,,
222272,control_change,24,0,13,,,,,,,,,12,11,91,,,
222276,control_change,24,0,14,,,,,,,,,13,11,91,,,
222277,control_change,16,0,9,,,,,,,,,8,11,88,,,
222282,control_change,16,0,7,,,,,,,,,6,11,87,,,
222287,control_change,16,0,8,,,,,,,,,7,11,87,,,
222288,control_change,24,0,11,,,,,,,,,10,11,90,,,
222289,control_change,36,0,1,,,,,,,,,0,11,83,,,
222291,control_change,24,0,12,,,,,,,,,11,11,90,,,
222292,control_change,36,0,2,,,,,,,,,1,11,83,,,
222293,control_change,36,0,3,,,,,,,,,2,11,83,,,
222293,control_change,16,0,9,,,,,,,,,8,11,87,,,
222296,control_change,24,0,13,,,,,,,,,12,11,90,,,
222297,control_change,36,0,4,,,,,,,,,3,11,94,,,
222298,control_change,16,0,7,,,,,,,,,6,11,86,,,
222300,control_change,24,0,14,,,,,,,,,13,11,90,,,
222300,note_on,12,0,11,,,,,,,,,10,,,,71,0
222303,control_change,16,0,8,,,,,,,,,7,11,86,,,
222303,note_on,300,0,5,,,,,,,,,4,,,,67,100
222303,note_on,12,0,12,,,,,,,,,11,,,,67,0
222304,note_on,300,0,6,,,,,,,,,5,,,,55,100
222307,note_on,0,0,8,,,,,,,,,7,,,,64,110
222307,note_on,4,0,8,,,,,,,,,7,,,,59,110
222309,control_change,16,0,9,,,,,,,,,8,11,86,,,
222312,control_change,12,0,11,,,,,,,,,10,11,89,,,
222314,control_change,16,0,7,,,,,,,,,6,11,85,,,
222315,control_change,12,0,12,,,,,,,,,11,11,89,,,
222319,control_change,12,0,8,,,,,,,,,7,11,85,,,
222320,control_change,24,0,13,,,,,,,,,12,11,89,,,
222324,control_change,24,0,14,,,,,,,,,13,11,89,,,
222325,control_change,36,0,1,,,,,,,,,0,11,83,,,
222325,control_change,16,0,9,,,,,,,,,8,11,85,,,
222328,control_change,36,0,2,,,,,,,,,1,11,83,,,
222329,control_change,36,0,3,,,,,,,,,2,11,83,,,
222330,control_change,16,0,7,,,,,,,,,6,11,84,,,
222333,control_change,36,0,4,,,,,,,,,3,11,93,,,
222335,control_change,16,0,8,,,,,,,,,7,11,84,,,
222336,control_change,24,0,11,,,,,,,,,10,11,88,,,
222339,control_change,24,0,12,,,,,,,,,11,11,88,,,
222341,control_change,16,0,9,,,,,,,,,8,11,84,,,
222344,control_change,24,0,13,,,,,,,,,12,11,88,,,
222346,control_change,16,0,7,,,,,,,,,6,11,83,,,
222348,control_change,24,0,14,,,,,,,,,13,11,88,,,
222351,control_change,16,0,8,,,,,,,,,7,11,83,,,
222357,control_change,16,0,9,,,,,,,,,8,11,83,,,
222360,set_tempo,120,1,0,,,,,,330579,,,,,,,,
222360,note_on,0,0,11,,,,,,,,,10,,,,76,93
222360,control_change,24,0,11,,,,,,,,,10,11,87,,,
222361,control_change,36,0,1,,,,,,,,,0,11,82,,,
222362,control_change,16,0,7,,,,,,,,,6,11,82,,,
222363,note_on,0,0,5,,,,,,,,,4,,,,67,100
222363,note_on,60,0,5,,,,,,,,,4,,,,67,0
222363,note_on,0,0,12,,,,,,,,,11,,,,71,93
222363,control_change,24,0,12,,,,,,,,,11,11,87,,,
222364,note_on,60,0,6,,,,,,,,,5,,,,55,0
222364,note_on,0,0,6,,,,,,,,,5,,,,55,100
222364,control_change,36,0,2,,,,,,,,,1,11,82,,,
222365,control_change,36,0,3,,,,,,,,,2,11,82,,,
222367,note_on,16,0,8,,,,,,,,,7,,,,64,0
222367,control_change,0,0,8,,,,,,,,,7,11,82,,,
222367,note_on,0,0,8,,,,,,,,,7,,,,64,110
222367,note_on,0,0,8,,,,,,,,,7,,,,59,110
222367,note_on,0,0,8,,,,,,,,,7,,,,59,0
222368,note_on,0,0,13,,,,,,,,,12,,,,67,0
222368,note_on,24,0,13,,,,,,,,,12,,,,59,0
222368,control_change,0,0,13,,,,,,,,,12,11,87,,,
222369,control_change,36,0,4,,,,,,,,,3,11,92,,,
222372,control_change,0,0,14,,,,,,,,,13,11,87,,,
222372,note_on,24,0,14,,,,,,,,,13,,,,64,0
222373,control_change,0,0,9,,,,,,,,,8,11,82,,,
222373,note_on,16,0,9,,,,,,,,,8,,,,43,0
222374,note_on,240,0,15,,,,,,,,,14,,,,31,0
222375,note_on,240,0,10,,,,,,,,,15,,,,43,0
222384,control_change,24,0,11,,,,,,,,,10,11,87,,,
222387,control_change,24,0,12,,,,,,,,,11,11,87,,,
222392,control_change,24,0,13,,,,,,,,,12,11,87,,,
222396,control_change,24,0,14,,,,,,,,,13,11,87,,,
222397,control_change,36,0,1,,,,,,,,,0,11,81,,,
222400,control_change,36,0,2,,,,,,,,,1,11,81,,,
222401,control_change,36,0,3,,,,,,,,,2,11,81,,,
222405,control_change,36,0,4,,,,,,,,,3,11,91,,,
222408,control_change,24,0,11,,,,,,,,,10,11,86,,,
222411,control_change,24,0,12,,,,,,,,,11,11,86,,,
222416,control_change,24,0,13,,,,,,,,,12,11,86,,,
222420,note_on,12,0,11,,,,,,,,,10,,,,76,0
222420,control_change,24,0,14,,,,,,,,,13,11,86,,,
222423,note_on,12,0,12,,,,,,,,,11,,,,71,0
222432,control_change,12,0,11,,,,,,,,,10,11,85,,,
222433,control_change,36,0,1,,,,,,,,,0,11,80,,,
222435,control_change,12,0,12,,,,,,,,,11,11,85,,,
222436,control_change,36,0,2,,,,,,,,,1,11,80,,,
222437,control_change,36,0,3,,,,,,,,,2,11,80,,,
222440,control_change,24,0,13,,,,,,,,,12,11,85,,,
222441,control_change,36,0,4,,,,,,,,,3,11,90,,,
222444,control_change,24,0,14,,,,,,,,,13,11,85,,,
222456,control_change,24,0,11,,,,,,,,,10,11,84,,,
222459,control_change,24,0,12,,,,,,,,,11,11,84,,,
222464,control_change,24,0,13,,,,,,,,,12,11,84,,,
222468,control_change,24,0,14,,,,,,,,,13,11,84,,,
222469,control_change,36,0,1,,,,,,,,,0,11,80,,,
222472,control_change,36,0,2,,,,,,,,,1,11,80,,,
222473,control_change,36,0,3,,,,,,,,,2,11,80,,,
222477,control_change,36,0,4,,,,,,,,,3,11,89,,,
222480,note_on,0,0,11,,,,,,,,,10,,,,79,93
222480,note_on,0,0,11,,,,,,,,,10,,,,71,93
222480,control_change,24,0,11,,,,,,,,,10,11,83,,,
222480,set_tempo,120,1,0,,,,,,285714,,,,,,,,
222483,note_on,0,0,5,,,,,,,,,4,,,,67,100
222483,note_on,120,0,5,,,,,,,,,4,,,,67,0
222483,note_on,0,0,12,,,,,,,,,11,,,,76,93
222483,control_change,24,0,12,,,,,,,,,11,11,83,,,
222484,note_on,120,0,6,,,,,,,,,5,,,,55,0
222484,note_on,0,0,6,,,,,,,,,5,,,,55,100
222487,note_on,120,0,8,,,,,,,,,7,,,,64,0
222487,note_on,0,0,8,,,,,,,,,7,,,,64,110
222487,note_on,0,0,8,,,,,,,,,7,,,,59,0
222487,note_on,0,0,8,,,,,,,,,7,,,,59,110
222488,note_on,0,0,13,,,,,,,,,12,,,,59,112
222488,control_change,24,0,13,,,,,,,,,12,11,83,,,
222492,note_on,0,0,14,,,,,,,,,13,,,,55,112
222492,control_change,24,0,14,,,,,,,,,13,11,83,,,
222505,control_change,36,0,1,,,,,,,,,0,11,79,,,
222508,control_change,36,0,2,,,,,,,,,1,11,79,,,
222509,control_change,36,0,3,,,,,,,,,2,11,79,,,
222513,control_change,36,0,4,,,,,,,,,3,11,88,,,
222541,control_change,36,0,1,,,,,,,,,0,11,78,,,
222544,control_change,36,0,2,,,,,,,,,1,11,78,,,
222545,control_change,36,0,3,,,,,,,,,2,11,78,,,
222548,note_on,60,0,13,,,,,,,,,12,,,,59,0
222549,control_change,36,0,4,,,,,,,,,3,11,87,,,
222552,note_on,60,0,14,,,,,,,,,13,,,,55,0
222577,control_change,36,0,1,,,,,,,,,0,11,77,,,
222580,control_change,36,0,2,,,,,,,,,1,11,77,,,
222581,control_change,36,0,3,,,,,,,,,2,11,77,,,
222585,control_change,36,0,4,,,,,,,,,3,11,86,,,
222600,set_tempo,120,1,0,,,,,,300000,,,,,,,,
222608,note_on,60,0,13,,,,,,,,,12,,,,64,112
222612,note_on,60,0,14,,,,,,,,,13,,,,59,112
222613,control_change,36,0,1,,,,,,,,,0,11,76,,,
222616,control_change,36,0,2,,,,,,,,,1,11,76,,,
222617,control_change,36,0,3,,,,,,,,,2,11,76,,,
222621,control_change,36,0,4,,,,,,,,,3,11,85,,,
222649,control_change,36,0,1,,,,,,,,,0,11,76,,,
222652,control_change,36,0,2,,,,,,,,,1,11,76,,,
222653,control_change,36,0,3,,,,,,,,,2,11,76,,,
222657,control_change,36,0,4,,,,,,,,,3,11,84,,,
222662,note_on,0,0,7,,,,,,,,,6,,,,55,112
222662,note_on,300,0,7,,,,,,,,,6,,,,55,0
222662,note_on,0,0,7,,,,,,,,,6,,,,67,0
222662,note_on,0,0,7,,,,,,,,,6,,,,67,112
222668,note_on,60,0,13,,,,,,,,,12,,,,64,0
222672,note_on,60,0,14,,,,,,,,,13,,,,59,0
222673,control_change,300,0,9,,,,,,,,,8,11,87,,,
222673,note_on,0,0,9,,,,,,,,,8,,,,43,110
222674,note_on,300,0,15,,,,,,,,,14,,,,31,112
222675,note_on,300,0,10,,,,,,,,,15,,,,43,87
222685,control_change,36,0,1,,,,,,,,,0,11,75,,,
222688,control_change,36,0,2,,,,,,,,,1,11,75,,,
222689,control_change,36,0,3,,,,,,,,,2,11,75,,,
222693,control_change,36,0,4,,,,,,,,,3,11,83,,,
222697,control_change,24,0,9,,,,,,,,,8,11,89,,,
222720,set_tempo,120,1,0,,,,,,330579,,,,,,,,
222720,note_on,0,0,11,,,,,,,,,10,,,,71,0
222720,note_on,240,0,11,,,,,,,,,10,,,,79,0
222721,control_change,24,0,9,,,,,,,,,8,11,91,,,
222721,control_change,0,0,1,,,,,,,,,0,11,74,,,
222721,note_on,0,0,1,,,,,,,,,0,,,,89,101
222721,note_on,0,0,1,,,,,,,,,0,,,,88,0
222721,note_on,0,0,1,,,,,,,,,0,,,,86,101
222721,note_on,36,0,1,,,,,,,,,0,,,,91,0
222722,note_on,60,0,7,,,,,,,,,6,,,,67,0
222722,note_on,0,0,7,,,,,,,,,6,,,,55,0
222722,note_on,0,0,7,,,,,,,,,6,,,,67,112
222722,note_on,0,0,7,,,,,,,,,6,,,,55,112
222723,note_on,0,0,12,,,,,,,,,11,,,,77,93
222723,note_on,240,0,12,,,,,,,,,11,,,,76,0
222723,note_on,240,0,5,,,,,,,,,4,,,,67,0
222723,note_on,0,0,5,,,,,,,,,4,,,,65,100
222724,note_on,36,0,2,,,,,,,,,1,,,,76,0
222724,note_on,0,0,2,,,,,,,,,1,,,,79,0
222724,note_on,0,0,2,,,,,,,,,1,,,,74,100
222724,control_change,0,0,2,,,,,,,,,1,11,74,,,
222724,note_on,0,0,2,,,,,,,,,1,,,,77,100
222725,note_on,36,0,3,,,,,,,,,2,,,,76,0
222725,note_on,0,0,3,,,,,,,,,2,,,,79,0
222725,note_on,0,0,3,,,,,,,,,2,,,,74,101
222725,note_on,0,0,3,,,,,,,,,2,,,,77,101
222725,control_change,0,0,3,,,,,,,,,2,11,74,,,
222727,note_on,0,0,8,,,,,,,,,7,,,,62,110
222727,note_on,240,0,8,,,,,,,,,7,,,,64,0
222728,note_on,60,0,13,,,,,,,,,12,,,,67,112
222729,note_on,36,0,4,,,,,,,,,3,,,,64,0
222729,note_on,0,0,4,,,,,,,,,3,,,,67,0
222729,note_on,0,0,4,,,,,,,,,3,,,,65,100
222729,note_on,0,0,4,,,,,,,,,3,,,,62,100
222729,control_change,0,0,4,,,,,,,,,3,11,82,,,
222732,note_on,60,0,14,,,,,,,,,13,,,,62,112
222733,note_on,12,0,9,,,,,,,,,8,,,,43,0
222733,note_on,0,0,9,,,,,,,,,8,,,,43,110
222734,note_on,60,0,15,,,,,,,,,14,,,,31,0
222734,note_on,0,0,15,,,,,,,,,14,,,,31,112
222735,note_on,60,0,10,,,,,,,,,15,,,,43,0
222735,note_on,0,0,10,,,,,,,,,15,,,,43,87
222788,note_on,60,0,13,,,,,,,,,12,,,,67,0
222792,note_on,60,0,14,,,,,,,,,13,,,,62,0
222840,set_tempo,120,1,0,,,,,,285714,,,,,,,,
222840,note_on,120,0,11,,,,,,,,,10,,,,64,93
222841,note_on,0,0,1,,,,,,,,,0,,,,88,101
222841,note_on,0,0,1,,,,,,,,,0,,,,86,0
222841,note_on,120,0,1,,,,,,,,,0,,,,89,0
222841,note_on,0,0,1,,,,,,,,,0,,,,84,101
222842,note_on,0,0,7,,,,,,,,,6,,,,67,0
222842,note_on,120,0,7,,,,,,,,,6,,,,55,0
222842,note_on,0,0,7,,,,,,,,,6,,,,60,112
222842,note_on,0,0,7,,,,,,,,,6,,,,72,112
222843,note_on,0,0,12,,,,,,,,,11,,,,60,93
222843,note_on,120,0,12,,,,,,,,,11,,,,77,0
222843,note_on,120,0,5,,,,,,,,,4,,,,65,0
222844,note_on,0,0,2,,,,,,,,,1,,,,76,100
222844,note_on,120,0,2,,,,,,,,,1,,,,77,0
222844,note_on,0,0,2,,,,,,,,,1,,,,74,0
222844,note_on,360,0,6,,,,,,,,,5,,,,55,0
222844,note_on,0,0,2,,,,,,,,,1,,,,72,100
222845,note_on,0,0,3,,,,,,,,,2,,,,76,101
222845,note_on,0,0,3,,,,,,,,,2,,,,72,101
222845,note_on,0,0,3,,,,,,,,,2,,,,74,0
222845,note_on,120,0,3,,,,,,,,,2,,,,77,0
222847,note_on,120,0,8,,,,,,,,,7,,,,62,0
222847,note_on,0,0,8,,,,,,,,,7,,,,59,0
222848,note_on,0,0,13,,,,,,,,,12,,,,55,112
222848,note_on,60,0,13,,,,,,,,,12,,,,64,112
222849,note_on,0,0,4,,,,,,,,,3,,,,65,0
222849,note_on,120,0,4,,,,,,,,,3,,,,62,0
222849,note_on,0,0,4,,,,,,,,,3,,,,64,100
222849,note_on,0,0,4,,,,,,,,,3,,,,60,100
222852,note_on,60,0,14,,,,,,,,,13,,,,60,112
222853,note_on,0,0,9,,,,,,,,,8,,,,48,110
222853,note_on,120,0,9,,,,,,,,,8,,,,43,0
222853,control_change,0,0,9,,,,,,,,,8,11,92,,,
222854,note_on,0,0,15,,,,,,,,,14,,,,36,112
222854,note_on,120,0,15,,,,,,,,,14,,,,31,0
222855,note_on,0,0,10,,,,,,,,,15,,,,48,87
222855,note_on,120,0,10,,,,,,,,,15,,,,43,0
222900,note_on,60,0,11,,,,,,,,,10,,,,64,0
222901,control_change,48,0,9,,,,,,,,,8,11,91,,,
222903,note_on,60,0,12,,,,,,,,,11,,,,60,0
222949,control_change,48,0,9,,,,,,,,,8,11,90,,,
222960,set_tempo,120,1,0,,,,,,300000,,,,,,,,
222960,note_on,60,0,11,,,,,,,,,10,,,,67,93
222963,note_on,60,0,12,,,,,,,,,11,,,,64,93
222997,control_change,48,0,9,,,,,,,,,8,11,89,,,
223020,note_on,60,0,11,,,,,,,,,10,,,,67,0
223023,note_on,180,0,5,,,,,,,,,4,,,,64,100
223023,note_on,60,0,12,,,,,,,,,11,,,,64,0
223024,note_on,180,0,6,,,,,,,,,5,,,,48,100
223027,note_on,0,0,8,,,,,,,,,7,,,,55,110
223027,note_on,180,0,8,,,,,,,,,7,,,,60,110
223045,control_change,48,0,9,,,,,,,,,8,11,88,,,
223080,note_on,60,0,11,,,,,,,,,10,,,,72,93
223080,set_tempo,120,1,0,,,,,,330579,,,,,,,,
223083,note_on,60,0,12,,,,,,,,,11,,,,67,93
223083,note_on,0,0,5,,,,,,,,,4,,,,64,100
223083,note_on,60,0,5,,,,,,,,,4,,,,64,0
223084,note_on,0,0,6,,,,,,,,,5,,,,48,100
223084,note_on,60,0,6,,,,,,,,,5,,,,48,0
223087,note_on,0,0,8,,,,,,,,,7,,,,60,110
223087,note_on,0,0,8,,,,,,,,,7,,,,55,110
223087,note_on,0,0,8,,,,,,,,,7,,,,60,0
223087,note_on,60,0,8,,,,,,,,,7,,,,55,0
223088,note_on,0,0,13,,,,,,,,,12,,,,64,0
223088,note_on,240,0,13,,,,,,,,,12,,,,55,0
223092,note_on,240,0,14,,,,,,,,,13,,,,60,0
223093,control_change,0,0,9,,,,,,,,,8,11,87,,,
223093,note_on,48,0,9,,,,,,,,,8,,,,48,0
223094,note_on,240,0,15,,,,,,,,,14,,,,36,0
223095,note_on,240,0,10,,,,,,,,,15,,,,48,0
223140,note_on,60,0,11,,,,,,,,,10,,,,72,0
223143,note_on,60,0,12,,,,,,,,,11,,,,67,0
223200,note_on,0,0,11,,,,,,,,,10,,,,76,93
223200,note_on,60,0,11,,,,,,,,,10,,,,67,93
223200,set_tempo,120,1,0,,,,,,285714,,,,,,,,
223203,note_on,60,0,12,,,,,,,,,11,,,,72,93
223203,note_on,0,0,5,,,,,,,,,4,,,,64,100
223203,note_on,120,0,5,,,,,,,,,4,,,,64,0
223203,note_on,0,0,12,,,,,,,,,11,,,,64,93
223204,note_on,0,0,6,,,,,,,,,5,,,,48,100
223204,note_on,120,0,6,,,,,,,,,5,,,,48,0
223207,note_on,120,0,8,,,,,,,,,7,,,,60,0
223207,note_on,0,0,8,,,,,,,,,7,,,,55,0
223207,note_on,0,0,8,,,,,,,,,7,,,,55,110
223207,note_on,0,0,8,,,,,,,,,7,,,,60,110
223208,note_on,120,0,13,,,,,,,,,12,,,,52,112
223212,note_on,120,0,14,,,,,,,,,13,,,,48,112
223268,note_on,60,0,13,,,,,,,,,12,,,,52,0
223272,note_on,60,0,14,,,,,,,,,13,,,,48,0
223320,set_tempo,120,1,0,,,,,,315789,,,,,,,,
223321,note_on,480,0,1,,,,,,,,,0,,,,84,0
223321,note_on,0,0,1,,,,,,,,,0,,,,88,0
223322,note_on,0,0,7,,,,,,,,,6,,,,72,0
223322,note_on,480,0,7,,,,,,,,,6,,,,60,0
223324,note_on,480,0,2,,,,,,,,,1,,,,72,0
223324,note_on,0,0,2,,,,,,,,,1,,,,76,0
223325,note_on,0,0,3,,,,,,,,,2,,,,72,0
223325,note_on,480,0,3,,,,,,,,,2,,,,76,0
223328,note_on,60,0,13,,,,,,,,,12,,,,55,112
223329,note_on,0,0,4,,,,,,,,,3,,,,64,0
223329,note_on,480,0,4,,,,,,,,,3,,,,60,0
223332,note_on,60,0,14,,,,,,,,,13,,,,52,112
223388,note_on,60,0,13,,,,,,,,,12,,,,55,0
223392,note_on,60,0,14,,,,,,,,,13,,,,52,0
223394,control_change,0,0,15,,,,,,,,,14,11,83,,,
223394,note_on,300,0,15,,,,,,,,,14,,,,36,112
223418,control_change,24,0,15,,,,,,,,,14,11,81,,,
223440,note_on,0,0,11,,,,,,,,,10,,,,67,0
223440,set_tempo,120,1,0,,,,,,375000,,,,,,,,
223440,note_on,240,0,11,,,,,,,,,10,,,,76,0
223442,control_change,24,0,15,,,,,,,,,14,11,79,,,
223443,note_on,240,0,5,,,,,,,,,4,,,,64,0
223443,note_on,0,0,12,,,,,,,,,11,,,,72,0
223443,note_on,240,0,12,,,,,,,,,11,,,,64,0
223444,note_on,0,0,2,,,,,,,,,1,,,,64,100
223444,note_on,240,0,6,,,,,,,,,5,,,,48,0
223444,control_change,120,0,2,,,,,,,,,1,11,47,,,
223447,note_on,240,0,8,,,,,,,,,7,,,,55,0
223447,note_on,0,0,8,,,,,,,,,7,,,,60,0
223448,note_on,60,0,13,,,,,,,,,12,,,,60,112
223449,control_change,120,0,4,,,,,,,,,3,11,47,,,
223449,note_on,0,0,4,,,,,,,,,3,,,,52,100
223452,note_on,60,0,14,,,,,,,,,13,,,,55,112
223454,note_on,12,0,15,,,,,,,,,14,,,,36,0
223454,note_on,0,0,15,,,,,,,,,14,,,,36,112
223466,control_change,12,0,15,,,,,,,,,14,11,77,,,
223490,control_change,24,0,15,,,,,,,,,14,11,75,,,
223508,note_on,60,0,13,,,,,,,,,12,,,,60,0
223512,note_on,60,0,14,,,,,,,,,13,,,,55,0
223514,control_change,24,0,15,,,,,,,,,14,11,73,,,
223538,control_change,24,0,15,,,,,,,,,14,11,72,,,
223560,set_tempo,120,1,0,,,,,,289855,,,,,,,,
223560,note_on,120,0,11,,,,,,,,,10,,,,69,93
223560,control_change,0,0,11,,,,,,,,,10,11,41,,,
223562,control_change,24,0,15,,,,,,,,,14,11,70,,,
223563,control_change,0,0,12,,,,,,,,,11,11,41,,,
223563,note_on,0,0,5,,,,,,,,,4,,,,64,100
223563,note_on,120,0,12,,,,,,,,,11,,,,64,93
223563,control_change,120,0,5,,,,,,,,,4,11,47,,,
223564,note_on,0,0,2,,,,,,,,,1,,,,72,100
223564,note_on,0,0,2,,,,,,,,,1,,,,76,100
223564,note_on,120,0,2,,,,,,,,,1,,,,64,0
223568,control_change,60,0,13,,,,,,,,,12,11,41,,,
223568,note_on,0,0,13,,,,,,,,,12,,,,64,112
223569,note_on,0,0,4,,,,,,,,,3,,,,64,115
223569,note_on,120,0,4,,,,,,,,,3,,,,52,0
223569,note_on,0,0,4,,,,,,,,,3,,,,60,115
223572,control_change,0,0,14,,,,,,,,,13,11,41,,,
223572,note_on,60,0,14,,,,,,,,,13,,,,60,112
223573,note_on,0,0,9,,,,,,,,,8,,,,48,110
223573,control_change,480,0,9,,,,,,,,,8,11,47,,,
223574,note_on,12,0,15,,,,,,,,,14,,,,36,0
223574,note_on,0,0,15,,,,,,,,,14,,,,36,112
223586,control_change,12,0,15,,,,,,,,,14,11,68,,,
223610,control_change,24,0,15,,,,,,,,,14,11,66,,,
223620,note_on,60,0,11,,,,,,,,,10,,,,69,0
223623,note_on,60,0,12,,,,,,,,,11,,,,64,0
223634,control_change,24,0,15,,,,,,,,,14,11,64,,,
223658,control_change,24,0,15,,,,,,,,,14,11,62,,,
223680,note_on,60,0,11,,,,,,,,,10,,,,72,93
223680,set_tempo,120,1,0,,,,,,307692,,,,,,,,
223682,control_change,24,0,15,,,,,,,,,14,11,60,,,
223683,note_on,60,0,12,,,,,,,,,11,,,,69,93
223706,control_change,24,0,15,,,,,,,,,14,11,58,,,
223730,control_change,24,0,15,,,,,,,,,14,11,57,,,
223740,note_on,60,0,11,,,,,,,,,10,,,,72,0
223743,note_on,60,0,12,,,,,,,,,11,,,,69,0
223754,note_on,0,0,15,,,,,,,,,14,,,,36,112
223754,note_on,24,0,15,,,,,,,,,14,,,,36,0
223754,control_change,0,0,15,,,,,,,,,14,11,55,,,
223778,control_change,24,0,15,,,,,,,,,14,11,53,,,
223800,set_tempo,120,1,0,,,,,,334262,,,,,,,,
223800,note_on,60,0,11,,,,,,,,,10,,,,76,93
223802,control_change,24,0,15,,,,,,,,,14,11,51,,,
223803,note_on,60,0,12,,,,,,,,,11,,,,72,93
223808,note_on,240,0,13,,,,,,,,,12,,,,64,0
223812,note_on,240,0,14,,,,,,,,,13,,,,60,0
223813,note_on,240,0,9,,,,,,,,,8,,,,48,0
223814,note_on,0,0,15,,,,,,,,,14,,,,36,112
223814,note_on,12,0,15,,,,,,,,,14,,,,36,0
223826,control_change,12,0,15,,,,,,,,,14,11,49,,,
223850,control_change,24,0,15,,,,,,,,,14,11,47,,,
223860,note_on,60,0,11,,,,,,,,,10,,,,76,0
223863,note_on,60,0,12,,,,,,,,,11,,,,72,0
223874,control_change,24,0,15,,,,,,,,,14,11,45,,,
223898,control_change,24,0,15,,,,,,,,,14,11,43,,,
223920,set_tempo,120,1,0,,,,,,294840,,,,,,,,
223920,note_on,60,0,11,,,,,,,,,10,,,,74,93
223922,control_change,24,0,15,,,,,,,,,14,11,42,,,
223923,note_on,60,0,12,,,,,,,,,11,,,,71,93
223923,note_on,360,0,5,,,,,,,,,4,,,,64,0
223923,note_on,0,0,5,,,,,,,,,4,,,,65,100
223928,note_on,120,0,13,,,,,,,,,12,,,,53,112
223932,note_on,120,0,14,,,,,,,,,13,,,,50,112
223933,note_on,120,0,9,,,,,,,,,8,,,,50,110
223934,note_on,12,0,15,,,,,,,,,14,,,,36,0
223934,note_on,0,0,15,,,,,,,,,14,,,,38,112
223988,note_on,60,0,13,,,,,,,,,12,,,,53,0
223992,note_on,60,0,14,,,,,,,,,13,,,,50,0
224040,set_tempo,120,1,0,,,,,,307692,,,,,,,,
224048,note_on,60,0,13,,,,,,,,,12,,,,59,112
224052,note_on,60,0,14,,,,,,,,,13,,,,53,112
224104,note_on,0,0,2,,,,,,,,,1,,,,74,100
224104,note_on,0,0,2,,,,,,,,,1,,,,71,100
224104,note_on,540,0,2,,,,,,,,,1,,,,76,0
224104,note_on,0,0,2,,,,,,,,,1,,,,72,0
224108,note_on,60,0,13,,,,,,,,,12,,,,59,0
224109,note_on,0,0,4,,,,,,,,,3,,,,62,100
224109,note_on,0,0,4,,,,,,,,,3,,,,59,100
224109,note_on,0,0,4,,,,,,,,,3,,,,60,0
224109,note_on,540,0,4,,,,,,,,,3,,,,64,0
224112,note_on,60,0,14,,,,,,,,,13,,,,53,0
224160,note_on,240,0,11,,,,,,,,,10,,,,74,0
224160,set_tempo,120,1,0,,,,,,337079,,,,,,,,
224162,note_on,58,0,2,,,,,,,,,1,,,,74,0
224162,note_on,0,0,2,,,,,,,,,1,,,,71,0
224163,note_on,240,0,12,,,,,,,,,11,,,,71,0
224164,note_on,0,0,2,,,,,,,,,1,,,,74,100
224164,note_on,2,0,2,,,,,,,,,1,,,,71,100
224167,note_on,58,0,4,,,,,,,,,3,,,,62,0
224167,note_on,0,0,4,,,,,,,,,3,,,,59,0
224168,note_on,60,0,13,,,,,,,,,12,,,,62,112
224169,note_on,2,0,4,,,,,,,,,3,,,,59,100
224169,note_on,0,0,4,,,,,,,,,3,,,,62,100
224172,note_on,60,0,14,,,,,,,,,13,,,,59,112
224173,note_on,240,0,9,,,,,,,,,8,,,,50,0
224174,note_on,240,0,15,,,,,,,,,14,,,,38,0
224228,note_on,60,0,13,,,,,,,,,12,,,,62,0
224232,note_on,60,0,14,,,,,,,,,13,,,,59,0
224280,set_tempo,120,1,0,,,,,,300000,,,,,,,,
224283,note_on,360,0,5,,,,,,,,,4,,,,65,0
224283,note_on,0,0,5,,,,,,,,,4,,,,64,100
224284,note_on,120,0,2,,,,,,,,,1,,,,74,0
224284,note_on,0,0,2,,,,,,,,,1,,,,71,0
224284,note_on,0,0,2,,,,,,,,,1,,,,71,100
224284,note_on,0,0,2,,,,,,,,,1,,,,68,100
224288,note_on,60,0,13,,,,,,,,,12,,,,59,112
224289,note_on,120,0,4,,,,,,,,,3,,,,62,0
224289,note_on,0,0,4,,,,,,,,,3,,,,59,100
224289,note_on,0,0,4,,,,,,,,,3,,,,59,0
224289,note_on,0,0,4,,,,,,,,,3,,,,56,100
224292,note_on,60,0,14,,,,,,,,,13,,,,52,112
224293,note_on,120,0,9,,,,,,,,,8,,,,52,110
224294,note_on,120,0,15,,,,,,,,,14,,,,40,112
224400,set_tempo,120,1,0,,,,,,315789,,,,,,,,
224400,control_change,240,0,11,,,,,,,,,10,11,36,,,
224400,note_on,0,0,11,,,,,,,,,10,,,,64,93
224401,control_change,0,0,1,,,,,,,,,0,11,42,,,
224401,note_on,1080,0,1,,,,,,,,,0,,,,76,101
224403,note_on,0,0,12,,,,,,,,,11,,,,59,93
224403,control_change,240,0,12,,,,,,,,,11,11,36,,,
224403,note_on,120,0,5,,,,,,,,,4,,,,64,0
224405,note_on,1080,0,3,,,,,,,,,2,,,,64,101
224405,control_change,0,0,3,,,,,,,,,2,11,42,,,
224460,note_on,60,0,11,,,,,,,,,10,,,,64,0
224463,note_on,60,0,12,,,,,,,,,11,,,,59,0
224501,note_on,100,0,1,,,,,,,,,0,,,,76,0
224505,note_on,100,0,3,,,,,,,,,2,,,,64,0
224520,note_on,60,0,11,,,,,,,,,10,,,,68,93
224520,set_tempo,120,1,0,,,,,,341880,,,,,,,,
224521,note_on,20,0,1,,,,,,,,,0,,,,76,101
224523,note_on,60,0,12,,,,,,,,,11,,,,64,93
224524,note_on,240,0,2,,,,,,,,,1,,,,68,0
224524,note_on,0,0,2,,,,,,,,,1,,,,71,0
224525,note_on,20,0,3,,,,,,,,,2,,,,64,101
224528,note_on,240,0,13,,,,,,,,,12,,,,59,0
224529,note_on,0,0,4,,,,,,,,,3,,,,56,0
224529,note_on,240,0,4,,,,,,,,,3,,,,59,0
224532,note_on,240,0,14,,,,,,,,,13,,,,52,0
224533,note_on,240,0,9,,,,,,,,,8,,,,52,0
224534,note_on,0,0,15,,,,,,,,,14,,,,40,112
224534,note_on,240,0,15,,,,,,,,,14,,,,40,0
224580,note_on,60,0,11,,,,,,,,,10,,,,68,0
224583,note_on,60,0,12,,,,,,,,,11,,,,64,0
224621,note_on,100,0,1,,,,,,,,,0,,,,76,0
224625,note_on,100,0,3,,,,,,,,,2,,,,64,0
224640,note_on,60,0,11,,,,,,,,,10,,,,71,93
224640,set_tempo,120,1,0,,,,,,300000,,,,,,,,
224641,note_on,20,0,1,,,,,,,,,0,,,,76,101
224643,note_on,60,0,12,,,,,,,,,11,,,,68,93
224645,note_on,20,0,3,,,,,,,,,2,,,,64,101
224648,note_on,120,0,13,,,,,,,,,12,,,,52,112
224648,control_change,0,0,13,,,,,,,,,12,11,36,,,
224652,control_change,0,0,14,,,,,,,,,13,11,36,,,
224652,note_on,120,0,14,,,,,,,,,13,,,,47,112
224708,note_on,60,0,13,,,,,,,,,12,,,,52,0
224712,note_on,60,0,14,,,,,,,,,13,,,,47,0
224741,note_on,100,0,1,,,,,,,,,0,,,,76,0
224745,note_on,100,0,3,,,,,,,,,2,,,,64,0
224760,set_tempo,120,1,0,,,,,,326975,,,,,,,,
224761,note_on,20,0,1,,,,,,,,,0,,,,76,101
224765,note_on,20,0,3,,,,,,,,,2,,,,64,101
224768,note_on,60,0,13,,,,,,,,,12,,,,56,112
224772,note_on,60,0,14,,,,,,,,,13,,,,52,112
224774,note_on,0,0,15,,,,,,,,,14,,,,39,112
224774,note_on,240,0,15,,,,,,,,,14,,,,40,0
224828,note_on,60,0,13,,,,,,,,,12,,,,56,0
224832,note_on,60,0,14,,,,,,,,,13,,,,52,0
224861,note_on,100,0,1,,,,,,,,,0,,,,76,0
224865,note_on,100,0,3,,,,,,,,,2,,,,64,0
224880,note_on,240,0,11,,,,,,,,,10,,,,71,0
224880,set_tempo,120,1,0,,,,,,352941,,,,,,,,
224881,note_on,20,0,1,,,,,,,,,0,,,,76,101
224883,note_on,240,0,12,,,,,,,,,11,,,,68,0
224884,note_on,360,0,2,,,,,,,,,1,,,,64,100
224885,note_on,20,0,3,,,,,,,,,2,,,,64,101
224888,note_on,60,0,13,,,,,,,,,12,,,,59,112
224892,note_on,60,0,14,,,,,,,,,13,,,,56,112
224894,note_on,120,0,15,,,,,,,,,14,,,,39,0
224894,note_on,0,0,15,,,,,,,,,14,,,,38,112
224948,note_on,60,0,13,,,,,,,,,12,,,,59,0
224952,note_on,60,0,14,,,,,,,,,13,,,,56,0
224981,note_on,100,0,1,,,,,,,,,0,,,,76,0
224985,note_on,100,0,3,,,,,,,,,2,,,,64,0
225000,note_on,120,0,11,,,,,,,,,10,,,,69,93
225000,set_tempo,120,1,0,,,,,,300000,,,,,,,,
225001,note_on,0,0,1,,,,,,,,,0,,,,88,116
225001,note_on,20,0,1,,,,,,,,,0,,,,84,116
225003,note_on,120,0,12,,,,,,,,,11,,,,64,93
225003,note_on,600,0,5,,,,,,,,,4,,,,64,100
225004,note_on,0,0,2,,,,,,,,,1,,,,76,115
225004,note_on,120,0,2,,,,,,,,,1,,,,64,0
225004,note_on,0,0,2,,,,,,,,,1,,,,72,115
225008,note_on,60,0,13,,,,,,,,,12,,,,64,112
225012,note_on,60,0,14,,,,,,,,,13,,,,57,112
225014,note_on,0,0,15,,,,,,,,,14,,,,36,112
225014,note_on,120,0,15,,,,,,,,,14,,,,38,0
225060,note_on,60,0,11,,,,,,,,,10,,,,69,0
225063,note_on,60,0,12,,,,,,,,,11,,,,64,0
225120,note_on,60,0,11,,,,,,,,,10,,,,72,93
225120,set_tempo,120,1,0,,,,,,315789,,,,,,,,
225123,note_on,60,0,12,,,,,,,,,11,,,,69,93
225180,note_on,60,0,11,,,,,,,,,10,,,,72,0
225183,note_on,60,0,12,,,,,,,,,11,,,,69,0
225194,note_on,180,0,15,,,,,,,,,14,,,,36,0
225194,note_on,0,0,15,,,,,,,,,14,,,,36,112
225240,set_tempo,120,1,0,,,,,,352941,,,,,,,,
225240,note_on,60,0,11,,,,,,,,,10,,,,76,93
225243,note_on,60,0,12,,,,,,,,,11,,,,72,93
225248,note_on,240,0,13,,,,,,,,,12,,,,64,0
225252,note_on,240,0,14,,,,,,,,,13,,,,57,0
225254,note_on,0,0,15,,,,,,,,,14,,,,36,112
225254,note_on,60,0,15,,,,,,,,,14,,,,36,0
225300,note_on,60,0,11,,,,,,,,,10,,,,76,0
225303,note_on,60,0,12,,,,,,,,,11,,,,72,0
225360,set_tempo,120,1,0,,,,,,300000,,,,,,,,
225360,note_on,60,0,11,,,,,,,,,10,,,,74,93
225363,note_on,0,0,5,,,,,,,,,4,,,,65,115
225363,note_on,360,0,5,,,,,,,,,4,,,,64,0
225363,note_on,60,0,12,,,,,,,,,11,,,,71,93
225368,note_on,120,0,13,,,,,,,,,12,,,,53,112
225372,note_on,120,0,14,,,,,,,,,13,,,,50,112
225374,note_on,120,0,15,,,,,,,,,14,,,,36,0
225374,note_on,0,0,15,,,,,,,,,14,,,,38,112
225428,note_on,60,0,13,,,,,,,,,12,,,,53,0
225432,note_on,60,0,14,,,,,,,,,13,,,,50,0
225480,set_tempo,120,1,0,,,,,,315789,,,,,,,,
225488,note_on,60,0,13,,,,,,,,,12,,,,59,112
225492,note_on,60,0,14,,,,,,,,,13,,,,53,112
225541,note_on,540,0,1,,,,,,,,,0,,,,88,0
225541,note_on,0,0,1,,,,,,,,,0,,,,84,0
225541,note_on,0,0,1,,,,,,,,,0,,,,86,101
225541,note_on,0,0,1,,,,,,,,,0,,,,83,101
225544,note_on,0,0,2,,,,,,,,,1,,,,76,0
225544,note_on,540,0,2,,,,,,,,,1,,,,72,0
225544,note_on,0,0,2,,,,,,,,,1,,,,74,100
225544,note_on,0,0,2,,,,,,,,,1,,,,71,100
225548,note_on,60,0,13,,,,,,,,,12,,,,59,0
225552,note_on,60,0,14,,,,,,,,,13,,,,53,0
225599,note_on,58,0,1,,,,,,,,,0,,,,83,0
225599,note_on,0,0,1,,,,,,,,,0,,,,86,0
225600,note_on,240,0,11,,,,,,,,,10,,,,74,0
225600,set_tempo,120,1,0,,,,,,352941,,,,,,,,
225601,note_on,2,0,1,,,,,,,,,0,,,,83,101
225601,note_on,0,0,1,,,,,,,,,0,,,,86,101
225602,note_on,58,0,2,,,,,,,,,1,,,,74,0
225602,note_on,0,0,2,,,,,,,,,1,,,,71,0
225603,note_on,240,0,12,,,,,,,,,11,,,,71,0
225604,note_on,2,0,2,,,,,,,,,1,,,,71,100
225604,note_on,0,0,2,,,,,,,,,1,,,,74,100
225608,note_on,60,0,13,,,,,,,,,12,,,,62,112
225612,note_on,60,0,14,,,,,,,,,13,,,,59,112
225614,note_on,240,0,15,,,,,,,,,14,,,,38,0
225668,note_on,60,0,13,,,,,,,,,12,,,,62,0
225672,note_on,60,0,14,,,,,,,,,13,,,,59,0
225720,set_tempo,120,1,0,,,,,,300000,,,,,,,,
225721,note_on,0,0,1,,,,,,,,,0,,,,83,101
225721,note_on,0,0,1,,,,,,,,,0,,,,83,0
225721,note_on,120,0,1,,,,,,,,,0,,,,86,0
225721,note_on,0,0,1,,,,,,,,,0,,,,80,101
225723,note_on,360,0,5,,,,,,,,,4,,,,65,0
225723,note_on,0,0,5,,,,,,,,,4,,,,64,100
225724,note_on,120,0,2,,,,,,,,,1,,,,74,0
225724,note_on,0,0,2,,,,,,,,,1,,,,71,0
225724,note_on,0,0,2,,,,,,,,,1,,,,71,100
225724,note_on,0,0,2,,,,,,,,,1,,,,68,100
225728,note_on,60,0,13,,,,,,,,,12,,,,59,112
225732,note_on,60,0,14,,,,,,,,,13,,,,52,112
225734,note_on,120,0,15,,,,,,,,,14,,,,40,112
225840,set_tempo,120,1,0,,,,,,315789,,,,,,,,
225840,note_on,240,0,11,,,,,,,,,10,,,,64,93
225843,note_on,240,0,12,,,,,,,,,11,,,,59,93
225843,note_on,120,0,5,,,,,,,,,4,,,,64,0
225843,control_change,0,0,5,,,,,,,,,4,11,47,,,
225843,note_on,0,0,5,,,,,,,,,4,,,,64,100
225844,control_change,0,0,6,,,,,,,,,5,11,47,,,
225844,note_on,2400,0,6,,,,,,,,,5,,,,52,100
225860,control_change,17,0,5,,,,,,,,,4,11,48,,,
225861,control_change,17,0,6,,,,,,,,,5,11,48,,,
225877,control_change,17,0,5,,,,,,,,,4,11,49,,,
225878,control_change,17,0,6,,,,,,,,,5,11,49,,,
225894,control_change,17,0,5,,,,,,,,,4,11,50,,,
225895,control_change,17,0,6,,,,,,,,,5,11,50,,,
225900,note_on,60,0,11,,,,,,,,,10,,,,64,0
225903,note_on,60,0,12,,,,,,,,,11,,,,59,0
225911,control_change,17,0,5,,,,,,,,,4,11,51,,,
225912,control_change,17,0,6,,,,,,,,,5,11,51,,,
225928,control_change,17,0,5,,,,,,,,,4,11,52,,,
225929,control_change,17,0,6,,,,,,,,,5,11,52,,,
225945,control_change,17,0,5,,,,,,,,,4,11,53,,,
225946,control_change,17,0,6,,,,,,,,,5,11,53,,,
225960,note_on,60,0,11,,,,,,,,,10,,,,68,93
225960,set_tempo,120,1,0,,,,,,338983,,,,,,,,
225961,note_on,240,0,1,,,,,,,,,0,,,,80,0
225961,note_on,0,0,1,,,,,,,,,0,,,,83,0
225963,note_on,18,0,5,,,,,,,,,4,,,,64,0
225963,control_change,0,0,5,,,,,,,,,4,11,54,,,
225963,note_on,60,0,12,,,,,,,,,11,,,,64,93
225963,note_on,0,0,5,,,,,,,,,4,,,,64,100
225964,note_on,18,0,6,,,,,,,,,5,,,,52,0
225964,note_on,240,0,2,,,,,,,,,1,,,,71,0
225964,note_on,0,0,2,,,,,,,,,1,,,,68,0
225964,note_on,0,0,6,,,,,,,,,5,,,,52,100
225964,control_change,0,0,6,,,,,,,,,5,11,54,,,
225968,note_on,240,0,13,,,,,,,,,12,,,,59,0
225972,note_on,240,0,14,,,,,,,,,13,,,,52,0
225974,control_change,0,0,15,,,,,,,,,14,11,36,,,
225974,note_on,0,0,15,,,,,,,,,14,,,,39,112
225974,note_on,240,0,15,,,,,,,,,14,,,,40,0
225980,control_change,17,0,5,,,,,,,,,4,11,55,,,
225981,control_change,17,0,6,,,,,,,,,5,11,55,,,
225993,control_change,19,0,15,,,,,,,,,14,11,38,,,
225997,control_change,17,0,5,,,,,,,,,4,11,56,,,
225998,control_change,17,0,6,,,,,,,,,5,11,56,,,
226012,control_change,19,0,15,,,,,,,,,14,11,40,,,
226014,control_change,17,0,5,,,,,,,,,4,11,57,,,
226015,control_change,17,0,6,,,,,,,,,5,11,57,,,
226020,note_on,60,0,11,,,,,,,,,10,,,,68,0
226023,note_on,60,0,12,,,,,,,,,11,,,,64,0
226031,control_change,19,0,15,,,,,,,,,14,11,42,,,
226031,control_change,17,0,5,,,,,,,,,4,11,58,,,
226032,control_change,17,0,6,,,,,,,,,5,11,58,,,
226048,control_change,17,0,5,,,,,,,,,4,11,59,,,
226049,control_change,17,0,6,,,,,,,,,5,11,59,,,
226050,control_change,19,0,15,,,,,,,,,14,11,43,,,
226065,control_change,17,0,5,,,,,,,,,4,11,60,,,
226066,control_change,17,0,6,,,,,,,,,5,11,60,,,
226070,control_change,20,0,15,,,,,,,,,14,11,45,,,
226080,note_on,60,0,11,,,,,,,,,10,,,,71,93
226080,set_tempo,120,1,0,,,,,,306122,,,,,,,,
226083,note_on,18,0,5,,,,,,,,,4,,,,64,0
226083,note_on,0,0,5,,,,,,,,,4,,,,64,100
226083,control_change,0,0,5,,,,,,,,,4,11,61,,,
226083,note_on,60,0,12,,,,,,,,,11,,,,68,93
226084,note_on,0,0,6,,,,,,,,,5,,,,52,100
226084,control_change,0,0,6,,,,,,,,,5,11,61,,,
226084,note_on,18,0,6,,,,,,,,,5,,,,52,0
226089,control_change,19,0,15,,,,,,,,,14,11,47,,,
226094,note_on,0,0,15,,,,,,,,,14,,,,38,112
226094,note_on,5,0,15,,,,,,,,,14,,,,39,0
226100,control_change,17,0,5,,,,,,,,,4,11,62,,,
226101,control_change,17,0,6,,,,,,,,,5,11,62,,,
226108,control_change,14,0,15,,,,,,,,,14,11,49,,,
226117,control_change,17,0,5,,,,,,,,,4,11,63,,,
226118,control_change,17,0,6,,,,,,,,,5,11,63,,,
226127,control_change,19,0,15,,,,,,,,,14,11,51,,,
226134,control_change,17,0,5,,,,,,,,,4,11,64,,,
226135,control_change,17,0,6,,,,,,,,,5,11,64,,,
226140,note_on,60,0,11,,,,,,,,,10,,,,71,0
226143,note_on,60,0,12,,,,,,,,,11,,,,68,0
226146,control_change,19,0,15,,,,,,,,,14,11,53,,,
226151,control_change,17,0,5,,,,,,,,,4,11,65,,,
226152,control_change,17,0,6,,,,,,,,,5,11,65,,,
226166,control_change,20,0,15,,,,,,,,,14,11,55,,,
226168,control_change,17,0,5,,,,,,,,,4,11,66,,,
226169,control_change,17,0,6,,,,,,,,,5,11,66,,,
226185,control_change,19,0,15,,,,,,,,,14,11,57,,,
226185,control_change,17,0,5,,,,,,,,,4,11,67,,,
226186,control_change,17,0,6,,,,,,,,,5,11,67,,,
226200,set_tempo,120,1,0,,,,,,328767,,,,,,,,
226200,note_on,60,0,11,,,,,,,,,10,,,,68,93
226203,note_on,18,0,5,,,,,,,,,4,,,,64,0
226203,note_on,0,0,5,,,,,,,,,4,,,,64,100
226203,control_change,0,0,5,,,,,,,,,4,11,68,,,
226203,note_on,60,0,12,,,,,,,,,11,,,,64,93
226204,control_change,0,0,6,,,,,,,,,5,11,68,,,
226204,control_change,19,0,15,,,,,,,,,14,11,58,,,
226204,note_on,18,0,6,,,,,,,,,5,,,,52,0
226204,note_on,0,0,6,,,,,,,,,5,,,,52,100
226214,note_on,10,0,15,,,,,,,,,14,,,,38,0
226214,note_on,0,0,15,,,,,,,,,14,,,,37,112
226220,control_change,17,0,5,,,,,,,,,4,11,69,,,
226221,control_change,17,0,6,,,,,,,,,5,11,69,,,
226223,control_change,9,0,15,,,,,,,,,14,11,60,,,
226237,control_change,17,0,5,,,,,,,,,4,11,70,,,
226238,control_change,17,0,6,,,,,,,,,5,11,70,,,
226242,control_change,19,0,15,,,,,,,,,14,11,62,,,
226254,control_change,17,0,5,,,,,,,,,4,11,71,,,
226255,control_change,17,0,6,,,,,,,,,5,11,71,,,
226260,note_on,60,0,11,,,,,,,,,10,,,,68,0
226262,control_change,20,0,15,,,,,,,,,14,11,64,,,
226263,note_on,60,0,12,,,,,,,,,11,,,,64,0
226271,control_change,17,0,5,,,,,,,,,4,11,72,,,
226272,control_change,17,0,6,,,,,,,,,5,11,72,,,
226281,control_change,19,0,15,,,,,,,,,14,11,66,,,
226288,control_change,17,0,5,,,,,,,,,4,11,73,,,
226289,control_change,17,0,6,,,,,,,,,5,11,73,,,
226300,control_change,19,0,15,,,,,,,,,14,11,68,,,
226305,control_change,17,0,5,,,,,,,,,4,11,74,,,
226306,control_change,17,0,6,,,,,,,,,5,11,74,,,
226319,control_change,19,0,15,,,,,,,,,14,11,70,,,
226320,note_on,60,0,11,,,,,,,,,10,,,,64,93
226320,set_tempo,120,1,0,,,,,,359281,,,,,,,,
226323,control_change,0,0,5,,,,,,,,,4,11,75,,,
226323,note_on,18,0,5,,,,,,,,,4,,,,64,0
226323,note_on,60,0,12,,,,,,,,,11,,,,62,93
226323,note_on,0,0,5,,,,,,,,,4,,,,64,100
226324,note_on,18,0,6,,,,,,,,,5,,,,52,0
226324,note_on,0,0,6,,,,,,,,,5,,,,52,100
226324,control_change,0,0,6,,,,,,,,,5,11,75,,,
226334,note_on,0,0,15,,,,,,,,,14,,,,35,112
226334,note_on,15,0,15,,,,,,,,,14,,,,37,0
226338,control_change,4,0,15,,,,,,,,,14,11,72,,,
226340,control_change,17,0,5,,,,,,,,,4,11,76,,,
226341,control_change,17,0,6,,,,,,,,,5,11,76,,,
226357,control_change,17,0,5,,,,,,,,,4,11,77,,,
226358,control_change,20,0,15,,,,,,,,,14,11,73,,,
226358,control_change,17,0,6,,,,,,,,,5,11,77,,,
226374,control_change,17,0,5,,,,,,,,,4,11,78,,,
226375,control_change,17,0,6,,,,,,,,,5,11,78,,,
226377,control_change,19,0,15,,,,,,,,,14,11,75,,,
226380,note_on,60,0,11,,,,,,,,,10,,,,64,0
226383,note_on,60,0,12,,,,,,,,,11,,,,62,0
226385,control_change,1400,0,3,,,,,,,,,2,11,52,,,
226385,note_on,0,0,3,,,,,,,,,2,,,,73,101
226387,control_change,2940,0,8,,,,,,,,,7,11,42,,,
226387,note_on,0,0,8,,,,,,,,,7,,,,69,110
226389,control_change,0,0,4,,,,,,,,,3,11,52,,,
226389,note_on,1860,0,4,,,,,,,,,3,,,,64,100
226391,control_change,17,0,5,,,,,,,,,4,11,79,,,
226391,control_change,4,0,8,,,,,,,,,7,11,45,,,
226392,control_change,17,0,6,,,,,,,,,5,11,79,,,
226396,control_change,5,0,8,,,,,,,,,7,11,48,,,
226396,control_change,19,0,15,,,,,,,,,14,11,77,,,
226400,control_change,4,0,8,,,,,,,,,7,11,51,,,
226405,control_change,5,0,8,,,,,,,,,7,11,54,,,
226408,control_change,17,0,5,,,,,,,,,4,11,80,,,
226409,control_change,4,0,8,,,,,,,,,7,11,57,,,
226409,control_change,17,0,6,,,,,,,,,5,11,80,,,
226414,control_change,5,0,8,,,,,,,,,7,11,60,,,
226415,control_change,19,0,15,,,,,,,,,14,11,79,,,
226418,control_change,4,0,8,,,,,,,,,7,11,63,,,
226423,control_change,5,0,8,,,,,,,,,7,11,66,,,
226425,control_change,17,0,5,,,,,,,,,4,11,81,,,
226426,control_change,17,0,6,,,,,,,,,5,11,81,,,
226427,control_change,4,0,8,,,,,,,,,7,11,69,,,
226432,control_change,5,0,8,,,,,,,,,7,11,72,,,
226434,control_change,19,0,15,,,,,,,,,14,11,81,,,
226436,control_change,4,0,8,,,,,,,,,7,11,75,,,
226440,set_tempo,120,1,0,,,,,,285714,,,,,,,,
226440,control_change,0,0,11,,,,,,,,,10,11,41,,,
226440,note_on,0,0,11,,,,,,,,,10,,,,69,93
226440,note_on,60,0,11,,,,,,,,,10,,,,57,93
226441,control_change,5,0,8,,,,,,,,,7,11,78,,,
226443,control_change,0,0,12,,,,,,,,,11,11,41,,,
226443,control_change,0,0,5,,,,,,,,,4,11,82,,,
226443,note_on,58,0,3,,,,,,,,,2,,,,73,0
226443,note_on,60,0,12,,,,,,,,,11,,,,61,93
226443,note_on,18,0,5,,,,,,,,,4,,,,64,0
226443,note_on,0,0,5,,,,,,,,,4,,,,64,100
226444,note_on,18,0,6,,,,,,,,,5,,,,52,0
226444,note_on,0,0,6,,,,,,,,,5,,,,52,100
226444,control_change,0,0,6,,,,,,,,,5,11,82,,,
226445,note_on,0,0,3,,,,,,,,,2,,,,73,101
226445,control_change,2,0,3,,,,,,,,,2,11,74,,,
226445,control_change,4,0,8,,,,,,,,,7,11,81,,,
226447,note_on,58,0,4,,,,,,,,,3,,,,64,0
226447,note_on,0,0,8,,,,,,,,,7,,,,69,110
226447,note_on,2,0,8,,,,,,,,,7,,,,69,0
226449,control_change,9,0,11,,,,,,,,,10,11,46,,,
226449,note_on,2,0,4,,,,,,,,,3,,,,64,100
226449,control_change,0,0,4,,,,,,,,,3,11,82,,,
226452,note_on,0,0,14,,,,,,,,,13,,,,45,112
226452,control_change,9,0,12,,,,,,,,,11,11,46,,,
226452,control_change,480,0,14,,,,,,,,,13,11,41,,,
226454,note_on,0,0,15,,,,,,,,,14,,,,33,112
226454,control_change,0,0,15,,,,,,,,,14,11,83,,,
226454,note_on,20,0,15,,,,,,,,,14,,,,35,0
226454,control_change,5,0,11,,,,,,,,,10,11,49,,,
226457,control_change,5,0,12,,,,,,,,,11,11,49,,,
226458,control_change,4,0,11,,,,,,,,,10,11,52,,,
226461,control_change,9,0,14,,,,,,,,,13,11,46,,,
226461,control_change,12,0,4,,,,,,,,,3,11,79,,,
226461,control_change,4,0,12,,,,,,,,,11,11,52,,,
226462,control_change,8,0,15,,,,,,,,,14,11,80,,,
226463,control_change,5,0,11,,,,,,,,,10,11,55,,,
226463,control_change,16,0,8,,,,,,,,,7,11,78,,,
226466,control_change,5,0,12,,,,,,,,,11,11,55,,,
226466,control_change,5,0,14,,,,,,,,,13,11,49,,,
226469,control_change,24,0,3,,,,,,,,,2,11,70,,,
226470,control_change,4,0,14,,,,,,,,,13,11,52,,,
226470,control_change,8,0,15,,,,,,,,,14,11,77,,,
226473,control_change,12,0,4,,,,,,,,,3,11,76,,,
226475,control_change,5,0,14,,,,,,,,,13,11,55,,,
226475,control_change,12,0,8,,,,,,,,,7,11,75,,,
226478,control_change,8,0,15,,,,,,,,,14,11,74,,,
226481,control_change,12,0,3,,,,,,,,,2,11,67,,,
226484,control_change,21,0,11,,,,,,,,,10,11,58,,,
226485,control_change,12,0,4,,,,,,,,,3,11,73,,,
226487,control_change,21,0,12,,,,,,,,,11,11,58,,,
226487,control_change,12,0,8,,,,,,,,,7,11,72,,,
226494,control_change,16,0,15,,,,,,,,,14,11,69,,,
226496,control_change,21,0,14,,,,,,,,,13,11,58,,,
226497,control_change,12,0,4,,,,,,,,,3,11,70,,,
226499,control_change,12,0,8,,,,,,,,,7,11,69,,,
226502,control_change,8,0,15,,,,,,,,,14,11,66,,,
226504,control_change,20,0,11,,,,,,,,,10,11,57,,,
226505,control_change,24,0,3,,,,,,,,,2,11,63,,,
226507,control_change,20,0,12,,,,,,,,,11,11,57,,,
226509,control_change,12,0,4,,,,,,,,,3,11,67,,,
226510,control_change,8,0,15,,,,,,,,,14,11,63,,,
226511,control_change,12,0,8,,,,,,,,,7,11,66,,,
226512,note_on,16,0,14,,,,,,,,,13,,,,45,0
226516,control_change,4,0,14,,,,,,,,,13,11,57,,,
226518,control_change,8,0,15,,,,,,,,,14,11,60,,,
226521,control_change,12,0,4,,,,,,,,,3,11,64,,,
226523,control_change,12,0,8,,,,,,,,,7,11,63,,,
226525,control_change,21,0,11,,,,,,,,,10,11,55,,,
226526,control_change,8,0,15,,,,,,,,,14,11,57,,,
226528,control_change,21,0,12,,,,,,,,,11,11,55,,,
226529,control_change,24,0,3,,,,,,,,,2,11,58,,,
226533,control_change,12,0,4,,,,,,,,,3,11,61,,,
226535,control_change,12,0,8,,,,,,,,,7,11,60,,,
226537,control_change,21,0,14,,,,,,,,,13,11,55,,,
226542,control_change,16,0,15,,,,,,,,,14,11,52,,,
226545,control_change,12,0,4,,,,,,,,,3,11,58,,,
226546,control_change,21,0,11,,,,,,,,,10,11,53,,,
226547,control_change,12,0,8,,,,,,,,,7,11,57,,,
226549,control_change,21,0,12,,,,,,,,,11,11,53,,,
226550,control_change,8,0,15,,,,,,,,,14,11,49,,,
226553,control_change,24,0,3,,,,,,,,,2,11,54,,,
226557,control_change,12,0,4,,,,,,,,,3,11,55,,,
226558,control_change,21,0,14,,,,,,,,,13,11,53,,,
226558,control_change,8,0,15,,,,,,,,,14,11,46,,,
226559,control_change,12,0,8,,,,,,,,,7,11,54,,,
226560,set_tempo,120,1,0,,,,,,300000,,,,,,,,
226563,note_on,120,0,5,,,,,,,,,4,,,,64,0
226564,note_on,120,0,6,,,,,,,,,5,,,,52,0
226566,control_change,8,0,15,,,,,,,,,14,11,43,,,
226566,control_change,20,0,11,,,,,,,,,10,11,51,,,
226568,note_on,600,0,13,,,,,,,,,12,,,,52,112
226569,control_change,12,0,4,,,,,,,,,3,11,52,,,
226569,control_change,20,0,12,,,,,,,,,11,11,51,,,
226572,note_on,14,0,14,,,,,,,,,13,,,,49,112
226578,control_change,6,0,14,,,,,,,,,13,11,51,,,
226587,control_change,21,0,11,,,,,,,,,10,11,49,,,
226590,control_change,21,0,12,,,,,,,,,11,11,49,,,
226599,control_change,21,0,14,,,,,,,,,13,11,49,,,
226607,control_change,20,0,11,,,,,,,,,10,11,47,,,
226610,control_change,20,0,12,,,,,,,,,11,11,47,,,
226619,control_change,20,0,14,,,,,,,,,13,11,47,,,
226621,note_on,660,0,1,,,,,,,,,0,,,,76,101
226621,note_on,0,0,1,,,,,,,,,0,,,,81,101
226624,note_on,660,0,2,,,,,,,,,1,,,,73,100
226624,note_on,0,0,2,,,,,,,,,1,,,,69,100
226628,note_on,60,0,13,,,,,,,,,12,,,,52,0
226628,control_change,21,0,11,,,,,,,,,10,11,45,,,
226631,control_change,21,0,12,,,,,,,,,11,11,45,,,
226632,note_on,13,0,14,,,,,,,,,13,,,,49,0
226640,control_change,8,0,14,,,,,,,,,13,11,45,,,
226649,control_change,21,0,11,,,,,,,,,10,11,43,,,
226652,control_change,21,0,12,,,,,,,,,11,11,43,,,
226661,control_change,21,0,14,,,,,,,,,13,11,43,,,
226669,control_change,20,0,11,,,,,,,,,10,11,42,,,
226672,control_change,20,0,12,,,,,,,,,11,11,42,,,
226679,note_on,58,0,1,,,,,,,,,0,,,,81,0
226679,note_on,0,0,1,,,,,,,,,0,,,,76,0
226680,note_on,11,0,11,,,,,,,,,10,,,,69,0
226680,note_on,0,0,11,,,,,,,,,10,,,,57,0
226680,set_tempo,120,1,0,,,,,,330579,,,,,,,,
226681,control_change,20,0,14,,,,,,,,,13,11,42,,,
226681,note_on,2,0,1,,,,,,,,,0,,,,81,101
226681,note_on,0,0,1,,,,,,,,,0,,,,76,101
226682,note_on,0,0,2,,,,,,,,,1,,,,73,0
226682,note_on,58,0,2,,,,,,,,,1,,,,69,0
226683,note_on,11,0,12,,,,,,,,,11,,,,61,0
226684,note_on,0,0,2,,,,,,,,,1,,,,69,100
226684,note_on,2,0,2,,,,,,,,,1,,,,73,100
226688,note_on,60,0,13,,,,,,,,,12,,,,57,112
226692,note_on,11,0,14,,,,,,,,,13,,,,52,112
226694,note_on,128,0,15,,,,,,,,,14,,,,33,0
226748,note_on,60,0,13,,,,,,,,,12,,,,57,0
226752,note_on,60,0,14,,,,,,,,,13,,,,52,0
226796,note_on,115,0,1,,,,,,,,,0,,,,76,0
226796,note_on,0,0,1,,,,,,,,,0,,,,81,0
226799,note_on,0,0,2,,,,,,,,,1,,,,73,0
226799,note_on,115,0,2,,,,,,,,,1,,,,69,0
226800,set_tempo,120,1,0,,,,,,285714,,,,,,,,
226800,note_on,120,0,11,,,,,,,,,10,,,,61,93
226801,note_on,0,0,1,,,,,,,,,0,,,,81,116
226801,note_on,5,0,1,,,,,,,,,0,,,,76,116
226803,note_on,120,0,12,,,,,,,,,11,,,,57,93
226804,note_on,5,0,2,,,,,,,,,1,,,,73,115
226804,note_on,0,0,2,,,,,,,,,1,,,,69,115
226808,note_on,60,0,13,,,,,,,,,12,,,,61,127
226812,note_on,60,0,14,,,,,,,,,13,,,,57,127
226860,note_on,60,0,11,,,,,,,,,10,,,,61,0
226863,note_on,60,0,12,,,,,,,,,11,,,,57,0
226920,set_tempo,120,1,0,,,,,,300000,,,,,,,,
226920,note_on,60,0,11,,,,,,,,,10,,,,64,93
226923,note_on,60,0,12,,,,,,,,,11,,,,61,93
226980,note_on,60,0,11,,,,,,,,,10,,,,64,0
226983,note_on,60,0,12,,,,,,,,,11,,,,61,0
226994,note_on,300,0,15,,,,,,,,,14,,,,33,112
227040,set_tempo,120,1,0,,,,,,330579,,,,,,,,
227040,note_on,60,0,11,,,,,,,,,10,,,,69,93
227041,note_on,240,0,1,,,,,,,,,0,,,,81,0
227041,note_on,0,0,1,,,,,,,,,0,,,,76,0
227043,note_on,60,0,12,,,,,,,,,11,,,,64,93
227044,note_on,240,0,2,,,,,,,,,1,,,,69,0
227044,note_on,0,0,2,,,,,,,,,1,,,,73,0
227048,note_on,240,0,13,,,,,,,,,12,,,,61,0
227052,note_on,240,0,14,,,,,,,,,13,,,,57,0
227054,note_on,60,0,15,,,,,,,,,14,,,,33,0
227054,note_on,0,0,15,,,,,,,,,14,,,,33,112
227100,note_on,60,0,11,,,,,,,,,10,,,,69,0
227103,note_on,60,0,12,,,,,,,,,11,,,,64,0
227105,note_on,0,0,3,,,,,,,,,2,,,,73,101
227105,note_on,552,0,3,,,,,,,,,2,,,,73,0
227107,note_on,0,0,8,,,,,,,,,7,,,,69,110
227107,note_on,548,0,8,,,,,,,,,7,,,,69,0
227109,note_on,0,0,4,,,,,,,,,3,,,,64,100
227109,note_on,540,0,4,,,,,,,,,3,,,,64,0
227160,note_on,0,0,11,,,,,,,,,10,,,,64,104
227160,note_on,60,0,11,,,,,,,,,10,,,,73,104
227160,set_tempo,120,1,0,,,,,,285714,,,,,,,,
227163,note_on,60,0,12,,,,,,,,,11,,,,69,104
227165,note_on,0,0,3,,,,,,,,,2,,,,73,101
227165,note_on,60,0,3,,,,,,,,,2,,,,73,0
227167,note_on,0,0,8,,,,,,,,,7,,,,69,110
227167,note_on,60,0,8,,,,,,,,,7,,,,69,0
227169,note_on,0,0,4,,,,,,,,,3,,,,64,100
227169,note_on,60,0,4,,,,,,,,,3,,,,64,0
227174,note_on,0,0,15,,,,,,,,,14,,,,33,127
227174,note_on,120,0,15,,,,,,,,,14,,,,33,0
227280,control_change,120,0,11,,,,,,,,,10,11,41,,,
227280,set_tempo,120,1,0,,,,,,300000,,,,,,,,
227283,control_change,120,0,12,,,,,,,,,11,11,41,,,
227288,note_on,240,0,13,,,,,,,,,12,,,,52,112
227292,note_on,240,0,14,,,,,,,,,13,,,,49,112
227303,control_change,23,0,11,,,,,,,,,10,11,39,,,
227306,control_change,23,0,12,,,,,,,,,11,11,39,,,
227327,control_change,24,0,11,,,,,,,,,10,11,37,,,
227330,control_change,24,0,12,,,,,,,,,11,11,37,,,
227341,note_on,300,0,1,,,,,,,,,0,,,,76,101
227341,note_on,0,0,1,,,,,,,,,0,,,,81,101
227344,note_on,0,0,2,,,,,,,,,1,,,,69,100
227344,note_on,300,0,2,,,,,,,,,1,,,,73,100
227348,note_on,60,0,13,,,,,,,,,12,,,,52,0
227351,control_change,24,0,11,,,,,,,,,10,11,35,,,
227352,note_on,60,0,14,,,,,,,,,13,,,,49,0
227354,control_change,24,0,12,,,,,,,,,11,11,35,,,
227375,control_change,24,0,11,,,,,,,,,10,11,33,,,
227378,control_change,24,0,12,,,,,,,,,11,11,33,,,
227399,note_on,0,0,1,,,,,,,,,0,,,,76,0
227399,control_change,24,0,11,,,,,,,,,10,11,31,,,
227399,note_on,58,0,1,,,,,,,,,0,,,,81,0
227400,note_on,1,0,11,,,,,,,,,10,,,,64,0
227400,set_tempo,120,1,0,,,,,,330579,,,,,,,,
227400,note_on,0,0,11,,,,,,,,,10,,,,73,0
227401,note_on,0,0,1,,,,,,,,,0,,,,76,101
227401,note_on,2,0,1,,,,,,,,,0,,,,81,101
227402,note_on,0,0,2,,,,,,,,,1,,,,73,0
227402,note_on,58,0,2,,,,,,,,,1,,,,69,0
227402,control_change,24,0,12,,,,,,,,,11,11,31,,,
227403,note_on,1,0,12,,,,,,,,,11,,,,69,0
227404,note_on,2,0,2,,,,,,,,,1,,,,73,100
227404,note_on,0,0,2,,,,,,,,,1,,,,69,100
227405,note_on,240,0,3,,,,,,,,,2,,,,73,0
227405,note_on,0,0,3,,,,,,,,,2,,,,73,101
227407,note_on,240,0,8,,,,,,,,,7,,,,69,0
227407,note_on,0,0,8,,,,,,,,,7,,,,69,110
227408,note_on,60,0,13,,,,,,,,,12,,,,57,112
227409,note_on,240,0,4,,,,,,,,,3,,,,64,0
227409,note_on,0,0,4,,,,,,,,,3,,,,64,100
227412,note_on,60,0,14,,,,,,,,,13,,,,52,112
227414,note_on,240,0,15,,,,,,,,,14,,,,33,0
227468,note_on,60,0,13,,,,,,,,,12,,,,57,0
227472,note_on,60,0,14,,,,,,,,,13,,,,52,0
227516,note_on,0,0,1,,,,,,,,,0,,,,81,0
227516,note_on,115,0,1,,,,,,,,,0,,,,76,0
227519,note_on,0,0,2,,,,,,,,,1,,,,73,0
227519,note_on,115,0,2,,,,,,,,,1,,,,69,0
227520,control_change,0,0,11,,,,,,,,,10,11,41,,,
227520,set_tempo,120,1,0,,,,,,285714,,,,,,,,
227520,note_on,120,0,11,,,,,,,,,10,,,,64,93
227521,note_on,5,0,1,,,,,,,,,0,,,,81,101
227521,note_on,0,0,1,,,,,,,,,0,,,,76,101
227523,note_on,120,0,12,,,,,,,,,11,,,,61,93
227523,control_change,0,0,12,,,,,,,,,11,11,41,,,
227524,note_on,0,0,2,,,,,,,,,1,,,,69,100
227524,note_on,5,0,2,,,,,,,,,1,,,,73,100
227525,note_on,120,0,3,,,,,,,,,2,,,,73,0
227525,note_on,0,0,3,,,,,,,,,2,,,,73,101
227527,note_on,120,0,8,,,,,,,,,7,,,,69,0
227527,note_on,0,0,8,,,,,,,,,7,,,,69,110
227528,note_on,60,0,13,,,,,,,,,12,,,,61,112
227529,note_on,0,0,4,,,,,,,,,3,,,,64,100
227529,note_on,120,0,4,,,,,,,,,3,,,,64,0
227532,note_on,60,0,14,,,,,,,,,13,,,,57,112
227580,note_on,60,0,11,,,,,,,,,10,,,,64,0
227583,note_on,60,0,12,,,,,,,,,11,,,,61,0
227640,set_tempo,120,1,0,,,,,,300000,,,,,,,,
227640,note_on,60,0,11,,,,,,,,,10,,,,69,93
227643,note_on,60,0,12,,,,,,,,,11,,,,64,93
227645,note_on,0,0,3,,,,,,,,,2,,,,71,101
227645,note_on,120,0,3,,,,,,,,,2,,,,73,0
227649,note_on,0,0,4,,,,,,,,,3,,,,62,100
227649,note_on,120,0,4,,,,,,,,,3,,,,64,0
227700,note_on,60,0,11,,,,,,,,,10,,,,69,0
227703,note_on,60,0,12,,,,,,,,,11,,,,64,0
227714,note_on,300,0,15,,,,,,,,,14,,,,33,112
227760,note_on,60,0,11,,,,,,,,,10,,,,73,93
227760,set_tempo,120,1,0,,,,,,330579,,,,,,,,
227761,note_on,0,0,1,,,,,,,,,0,,,,81,0
227761,note_on,240,0,1,,,,,,,,,0,,,,76,0
227763,note_on,60,0,12,,,,,,,,,11,,,,69,93
227764,note_on,240,0,2,,,,,,,,,1,,,,69,0
227764,note_on,0,0,2,,,,,,,,,1,,,,73,0
227765,note_on,0,0,3,,,,,,,,,2,,,,69,101
227765,note_on,120,0,3,,,,,,,,,2,,,,71,0
227767,note_on,240,0,8,,,,,,,,,7,,,,69,0
227767,note_on,0,0,8,,,,,,,,,7,,,,69,110
227768,note_on,240,0,13,,,,,,,,,12,,,,61,0
227769,note_on,120,0,4,,,,,,,,,3,,,,62,0
227769,note_on,0,0,4,,,,,,,,,3,,,,61,100
227772,note_on,240,0,14,,,,,,,,,13,,,,57,0
227774,note_on,60,0,15,,,,,,,,,14,,,,33,0
227774,note_on,0,0,15,,,,,,,,,14,,,,33,112
227820,note_on,60,0,11,,,,,,,,,10,,,,73,0
227823,note_on,60,0,12,,,,,,,,,11,,,,69,0
227880,note_on,0,0,11,,,,,,,,,10,,,,74,93
227880,note_on,60,0,11,,,,,,,,,10,,,,66,93
227880,set_tempo,120,1,0,,,,,,285714,,,,,,,,
227883,note_on,60,0,12,,,,,,,,,11,,,,69,93
227885,note_on,0,0,3,,,,,,,,,2,,,,74,116
227885,note_on,120,0,3,,,,,,,,,2,,,,69,0
227887,note_on,0,0,8,,,,,,,,,7,,,,69,125
227887,note_on,120,0,8,,,,,,,,,7,,,,69,0
227889,note_on,0,0,4,,,,,,,,,3,,,,66,115
227889,note_on,120,0,4,,,,,,,,,3,,,,61,0
227894,note_on,120,0,15,,,,,,,,,14,,,,33,0
227894,note_on,0,0,15,,,,,,,,,14,,,,33,112
228000,set_tempo,120,1,0,,,,,,300000,,,,,,,,
228008,note_on,240,0,13,,,,,,,,,12,,,,52,112
228012,note_on,240,0,14,,,,,,,,,13,,,,50,112
228061,note_on,300,0,1,,,,,,,,,0,,,,81,101
228061,note_on,0,0,1,,,,,,,,,0,,,,78,101
228064,note_on,300,0,2,,,,,,,,,1,,,,69,100
228064,note_on,0,0,2,,,,,,,,,1,,,,74,100
228068,note_on,60,0,13,,,,,,,,,12,,,,52,0
228072,note_on,60,0,14,,,,,,,,,13,,,,50,0
228119,note_on,0,0,1,,,,,,,,,0,,,,81,0
228119,note_on,58,0,1,,,,,,,,,0,,,,78,0
228120,set_tempo,120,1,0,,,,,,330579,,,,,,,,
228120,note_on,0,0,11,,,,,,,,,10,,,,66,0
228120,note_on,240,0,11,,,,,,,,,10,,,,74,0
228121,note_on,0,0,1,,,,,,,,,0,,,,81,101
228121,note_on,2,0,1,,,,,,,,,0,,,,78,101
228122,note_on,58,0,2,,,,,,,,,1,,,,74,0
228122,note_on,0,0,2,,,,,,,,,1,,,,69,0
228123,note_on,240,0,12,,,,,,,,,11,,,,69,0
228124,note_on,2,0,2,,,,,,,,,1,,,,69,100
228124,note_on,0,0,2,,,,,,,,,1,,,,74,100
228128,note_on,60,0,13,,,,,,,,,12,,,,57,112
228132,note_on,60,0,14,,,,,,,,,13,,,,54,112
228134,note_on,240,0,15,,,,,,,,,14,,,,33,0
228188,note_on,60,0,13,,,,,,,,,12,,,,57,0
228192,note_on,60,0,14,,,,,,,,,13,,,,54,0
228236,note_on,0,0,1,,,,,,,,,0,,,,78,0
228236,note_on,115,0,1,,,,,,,,,0,,,,81,0
228239,note_on,115,0,2,,,,,,,,,1,,,,74,0
228239,note_on,0,0,2,,,,,,,,,1,,,,69,0
228240,note_on,120,0,11,,,,,,,,,10,,,,66,93
228240,set_tempo,120,1,0,,,,,,285714,,,,,,,,
228241,note_on,0,0,1,,,,,,,,,0,,,,81,101
228241,note_on,5,0,1,,,,,,,,,0,,,,78,101
228243,note_on,120,0,12,,,,,,,,,11,,,,62,93
228244,note_on,5,0,2,,,,,,,,,1,,,,74,100
228244,note_on,0,0,2,,,,,,,,,1,,,,69,100
228248,note_on,60,0,13,,,,,,,,,12,,,,62,112
228252,note_on,60,0,14,,,,,,,,,13,,,,57,112
228300,note_on,60,0,11,,,,,,,,,10,,,,66,0
228303,note_on,60,0,12,,,,,,,,,11,,,,62,0
228360,note_on,60,0,11,,,,,,,,,10,,,,69,93
228360,set_tempo,120,1,0,,,,,,300000,,,,,,,,
228363,note_on,60,0,12,,,,,,,,,11,,,,66,93
228420,note_on,60,0,11,,,,,,,,,10,,,,69,0
228423,note_on,60,0,12,,,,,,,,,11,,,,66,0
228434,note_on,300,0,15,,,,,,,,,14,,,,33,112
228480,set_tempo,120,1,0,,,,,,330579,,,,,,,,
228480,note_on,60,0,11,,,,,,,,,10,,,,74,93
228481,note_on,0,0,1,,,,,,,,,0,,,,78,0
228481,note_on,240,0,1,,,,,,,,,0,,,,81,0
228483,note_on,60,0,12,,,,,,,,,11,,,,69,93
228484,note_on,0,0,2,,,,,,,,,1,,,,74,0
228484,note_on,240,0,2,,,,,,,,,1,,,,69,0
228488,note_on,240,0,13,,,,,,,,,12,,,,62,0
228492,note_on,240,0,14,,,,,,,,,13,,,,57,0
228494,note_on,60,0,15,,,,,,,,,14,,,,33,0
228494,note_on,0,0,15,,,,,,,,,14,,,,33,112
228540,note_on,60,0,11,,,,,,,,,10,,,,74,0
228543,note_on,60,0,12,,,,,,,,,11,,,,69,0
228600,note_on,60,0,11,,,,,,,,,10,,,,64,93
228600,note_on,0,0,11,,,,,,,,,10,,,,73,93
228600,set_tempo,120,1,0,,,,,,285714,,,,,,,,
228603,note_on,60,0,12,,,,,,,,,11,,,,69,93
228605,note_on,720,0,3,,,,,,,,,2,,,,74,0
228605,note_on,0,0,3,,,,,,,,,2,,,,73,101
228609,note_on,0,0,4,,,,,,,,,3,,,,64,100
228609,note_on,720,0,4,,,,,,,,,3,,,,66,0
228614,note_on,120,0,15,,,,,,,,,14,,,,33,0
228614,note_on,0,0,15,,,,,,,,,14,,,,33,112
228720,set_tempo,120,1,0,,,,,,300000,,,,,,,,
228728,note_on,240,0,13,,,,,,,,,12,,,,52,112
228732,note_on,240,0,14,,,,,,,,,13,,,,49,112
228781,note_on,0,0,1,,,,,,,,,0,,,,76,101
228781,note_on,300,0,1,,,,,,,,,0,,,,81,101
228784,note_on,300,0,2,,,,,,,,,1,,,,73,100
228784,note_on,0,0,2,,,,,,,,,1,,,,69,100
228788,note_on,60,0,13,,,,,,,,,12,,,,52,0
228792,note_on,60,0,14,,,,,,,,,13,,,,49,0
228839,note_on,58,0,1,,,,,,,,,0,,,,76,0
228839,note_on,0,0,1,,,,,,,,,0,,,,81,0
228840,note_on,0,0,11,,,,,,,,,10,,,,64,0
228840,set_tempo,120,1,0,,,,,,330579,,,,,,,,
228840,note_on,240,0,11,,,,,,,,,10,,,,73,0
228841,note_on,0,0,1,,,,,,,,,0,,,,81,101
228841,note_on,2,0,1,,,,,,,,,0,,,,76,101
228842,note_on,0,0,2,,,,,,,,,1,,,,73,0
228842,note_on,58,0,2,,,,,,,,,1,,,,69,0
228843,note_on,240,0,12,,,,,,,,,11,,,,69,0
228844,note_on,0,0,2,,,,,,,,,1,,,,73,100
228844,note_on,2,0,2,,,,,,,,,1,,,,69,100
228848,note_on,60,0,13,,,,,,,,,12,,,,57,112
228852,note_on,60,0,14,,,,,,,,,13,,,,52,112
228854,note_on,240,0,15,,,,,,,,,14,,,,33,0
228908,note_on,60,0,13,,,,,,,,,12,,,,57,0
228912,note_on,60,0,14,,,,,,,,,13,,,,52,0
228956,note_on,0,0,1,,,,,,,,,0,,,,76,0
228956,note_on,115,0,1,,,,,,,,,0,,,,81,0
228959,note_on,115,0,2,,,,,,,,,1,,,,73,0
228959,note_on,0,0,2,,,,,,,,,1,,,,69,0
228960,set_tempo,120,1,0,,,,,,285714,,,,,,,,
228960,note_on,120,0,11,,,,,,,,,10,,,,64,93
228961,note_on,5,0,1,,,,,,,,,0,,,,76,101
228961,note_on,0,0,1,,,,,,,,,0,,,,81,101
228963,note_on,120,0,12,,,,,,,,,11,,,,61,93
228964,note_on,0,0,2,,,,,,,,,1,,,,73,100
228964,note_on,5,0,2,,,,,,,,,1,,,,69,100
228968,note_on,60,0,13,,,,,,,,,12,,,,61,112
228972,note_on,60,0,14,,,,,,,,,13,,,,57,112
229020,note_on,60,0,11,,,,,,,,,10,,,,64,0
229023,note_on,60,0,12,,,,,,,,,11,,,,61,0
229080,note_on,60,0,11,,,,,,,,,10,,,,69,93
229080,set_tempo,120,1,0,,,,,,300000,,,,,,,,
229083,note_on,60,0,12,,,,,,,,,11,,,,64,93
229085,note_on,480,0,3,,,,,,,,,2,,,,73,0
229087,note_on,1200,0,8,,,,,,,,,7,,,,69,0
229089,note_on,480,0,4,,,,,,,,,3,,,,64,0
229140,note_on,60,0,11,,,,,,,,,10,,,,69,0
229143,note_on,60,0,12,,,,,,,,,11,,,,64,0
229154,note_on,300,0,15,,,,,,,,,14,,,,33,112
229200,note_on,60,0,11,,,,,,,,,10,,,,73,93
229200,set_tempo,120,1,0,,,,,,357143,,,,,,,,
229201,note_on,240,0,1,,,,,,,,,0,,,,81,0
229201,note_on,0,0,1,,,,,,,,,0,,,,76,0
229203,note_on,60,0,12,,,,,,,,,11,,,,69,93
229204,note_on,0,0,2,,,,,,,,,1,,,,69,0
229204,note_on,240,0,2,,,,,,,,,1,,,,73,0
229205,note_on,120,0,3,,,,,,,,,2,,,,73,101
229207,note_on,120,0,8,,,,,,,,,7,,,,69,110
229208,note_on,240,0,13,,,,,,,,,12,,,,61,0
229209,note_on,120,0,4,,,,,,,,,3,,,,64,100
229212,note_on,240,0,14,,,,,,,,,13,,,,57,0
229214,note_on,60,0,15,,,,,,,,,14,,,,33,0
229214,note_on,0,0,15,,,,,,,,,14,,,,37,112
229260,note_on,60,0,11,,,,,,,,,10,,,,73,0
229263,note_on,60,0,12,,,,,,,,,11,,,,69,0
229320,set_tempo,120,1,0,,,,,,285714,,,,,,,,
229320,note_on,60,0,11,,,,,,,,,10,,,,71,93
229320,note_on,0,0,11,,,,,,,,,10,,,,62,93
229323,note_on,60,0,12,,,,,,,,,11,,,,68,93
229325,note_on,120,0,3,,,,,,,,,2,,,,73,0
229325,note_on,0,0,3,,,,,,,,,2,,,,71,101
229327,note_on,120,0,8,,,,,,,,,7,,,,69,0
229327,note_on,0,0,8,,,,,,,,,7,,,,68,110
229329,note_on,0,0,4,,,,,,,,,3,,,,62,100
229329,note_on,120,0,4,,,,,,,,,3,,,,64,0
229334,note_on,0,0,15,,,,,,,,,14,,,,40,112
229334,note_on,120,0,15,,,,,,,,,14,,,,37,0
229440,set_tempo,120,1,0,,,,,,307692,,,,,,,,
229448,note_on,240,0,13,,,,,,,,,12,,,,56,112
229452,note_on,240,0,14,,,,,,,,,13,,,,52,112
229501,note_on,300,0,1,,,,,,,,,0,,,,80,101
229501,note_on,0,0,1,,,,,,,,,0,,,,88,101
229504,note_on,300,0,2,,,,,,,,,1,,,,76,100
229504,note_on,0,0,2,,,,,,,,,1,,,,83,100
229508,note_on,60,0,13,,,,,,,,,12,,,,56,0
229512,note_on,60,0,14,,,,,,,,,13,,,,52,0
229559,note_on,0,0,1,,,,,,,,,0,,,,80,0
229559,note_on,58,0,1,,,,,,,,,0,,,,88,0
229560,set_tempo,120,1,0,,,,,,330579,,,,,,,,
229560,note_on,240,0,11,,,,,,,,,10,,,,62,0
229560,note_on,0,0,11,,,,,,,,,10,,,,71,0
229561,note_on,0,0,1,,,,,,,,,0,,,,80,101
229561,note_on,2,0,1,,,,,,,,,0,,,,88,101
229562,note_on,0,0,2,,,,,,,,,1,,,,76,0
229562,note_on,58,0,2,,,,,,,,,1,,,,83,0
229563,note_on,240,0,12,,,,,,,,,11,,,,68,0
229564,note_on,2,0,2,,,,,,,,,1,,,,83,100
229564,note_on,0,0,2,,,,,,,,,1,,,,76,100
229568,note_on,60,0,13,,,,,,,,,12,,,,62,112
229572,note_on,60,0,14,,,,,,,,,13,,,,56,112
229574,note_on,240,0,15,,,,,,,,,14,,,,40,0
229628,note_on,60,0,13,,,,,,,,,12,,,,62,0
229632,note_on,60,0,14,,,,,,,,,13,,,,56,0
229676,note_on,0,0,1,,,,,,,,,0,,,,88,0
229676,note_on,115,0,1,,,,,,,,,0,,,,80,0
229679,note_on,115,0,2,,,,,,,,,1,,,,76,0
229679,note_on,0,0,2,,,,,,,,,1,,,,83,0
229680,note_on,120,0,11,,,,,,,,,10,,,,64,93
229680,set_tempo,120,1,0,,,,,,285714,,,,,,,,
229681,note_on,0,0,1,,,,,,,,,0,,,,88,101
229681,note_on,5,0,1,,,,,,,,,0,,,,80,101
229683,note_on,120,0,12,,,,,,,,,11,,,,62,93
229684,note_on,0,0,2,,,,,,,,,1,,,,76,100
229684,note_on,5,0,2,,,,,,,,,1,,,,83,100
229688,note_on,60,0,13,,,,,,,,,12,,,,64,112
229692,note_on,60,0,14,,,,,,,,,13,,,,62,112
229740,note_on,60,0,11,,,,,,,,,10,,,,64,0
229743,note_on,60,0,12,,,,,,,,,11,,,,62,0
229800,set_tempo,120,1,0,,,,,,300000,,,,,,,,
229800,note_on,60,0,11,,,,,,,,,10,,,,68,93
229803,note_on,60,0,12,,,,,,,,,11,,,,64,93
229860,note_on,60,0,11,,,,,,,,,10,,,,68,0
229863,note_on,60,0,12,,,,,,,,,11,,,,64,0
229874,note_on,300,0,15,,,,,,,,,14,,,,40,112
229920,set_tempo,120,1,0,,,,,,330579,,,,,,,,
229920,note_on,60,0,11,,,,,,,,,10,,,,73,93
229921,note_on,240,0,1,,,,,,,,,0,,,,88,0
229921,note_on,0,0,1,,,,,,,,,0,,,,80,0
229923,note_on,60,0,12,,,,,,,,,11,,,,68,93
229924,note_on,0,0,2,,,,,,,,,1,,,,83,0
229924,note_on,240,0,2,,,,,,,,,1,,,,76,0
229925,note_on,600,0,3,,,,,,,,,2,,,,71,0
229925,note_on,0,0,3,,,,,,,,,2,,,,73,101
229928,note_on,240,0,13,,,,,,,,,12,,,,64,0
229929,note_on,0,0,4,,,,,,,,,3,,,,64,100
229929,note_on,600,0,4,,,,,,,,,3,,,,62,0
229932,note_on,240,0,14,,,,,,,,,13,,,,62,0
229934,note_on,60,0,15,,,,,,,,,14,,,,40,0
229934,note_on,0,0,15,,,,,,,,,14,,,,40,112
229980,note_on,60,0,11,,,,,,,,,10,,,,73,0
229983,note_on,60,0,12,,,,,,,,,11,,,,68,0
230040,set_tempo,120,1,0,,,,,,285714,,,,,,,,
230040,note_on,0,0,11,,,,,,,,,10,,,,69,93
230040,note_on,60,0,11,,,,,,,,,10,,,,61,93
230043,note_on,60,0,12,,,,,,,,,11,,,,64,93
230045,note_on,0,0,3,,,,,,,,,2,,,,69,101
230045,note_on,120,0,3,,,,,,,,,2,,,,73,0
230047,note_on,0,0,8,,,,,,,,,7,,,,69,110
230047,note_on,720,0,8,,,,,,,,,7,,,,68,0
230049,note_on,0,0,4,,,,,,,,,3,,,,61,100
230049,note_on,120,0,4,,,,,,,,,3,,,,64,0
230054,note_on,0,0,15,,,,,,,,,14,,,,40,112
230054,note_on,120,0,15,,,,,,,,,14,,,,40,0
230160,set_tempo,120,1,0,,,,,,300000,,,,,,,,
230168,control_change,240,0,13,,,,,,,,,12,11,41,,,
230168,note_on,0,0,13,,,,,,,,,12,,,,57,112
230172,control_change,240,0,14,,,,,,,,,13,11,41,,,
230172,note_on,0,0,14,,,,,,,,,13,,,,52,112
230192,control_change,24,0,13,,,,,,,,,12,11,42,,,
230196,control_change,24,0,14,,,,,,,,,13,11,42,,,
230216,control_change,24,0,13,,,,,,,,,12,11,44,,,
230220,control_change,24,0,14,,,,,,,,,13,11,44,,,
230221,note_on,0,0,1,,,,,,,,,0,,,,88,101
230221,control_change,0,0,1,,,,,,,,,0,11,47,,,
230221,note_on,300,0,1,,,,,,,,,0,,,,81,101
230224,note_on,0,0,2,,,,,,,,,1,,,,85,100
230224,control_change,0,0,2,,,,,,,,,1,11,47,,,
230224,note_on,300,0,2,,,,,,,,,1,,,,76,100
230228,note_on,12,0,13,,,,,,,,,12,,,,57,0
230232,note_on,12,0,14,,,,,,,,,13,,,,52,0
230240,control_change,12,0,13,,,,,,,,,12,11,46,,,
230242,control_change,21,0,1,,,,,,,,,0,11,50,,,
230244,control_change,12,0,14,,,,,,,,,13,11,46,,,
230245,control_change,21,0,2,,,,,,,,,1,11,50,,,
230257,control_change,15,0,1,,,,,,,,,0,11,52,,,
230260,control_change,15,0,2,,,,,,,,,1,11,52,,,
230264,control_change,24,0,13,,,,,,,,,12,11,48,,,
230268,control_change,24,0,14,,,,,,,,,13,11,48,,,
230278,control_change,21,0,1,,,,,,,,,0,11,54,,,
230279,note_on,0,0,1,,,,,,,,,0,,,,81,0
230279,note_on,1,0,1,,,,,,,,,0,,,,88,0
230280,note_on,0,0,11,,,,,,,,,10,,,,61,0
230280,note_on,240,0,11,,,,,,,,,10,,,,69,0
230280,set_tempo,120,1,0,,,,,,330579,,,,,,,,
230281,note_on,0,0,1,,,,,,,,,0,,,,81,101
230281,note_on,2,0,1,,,,,,,,,0,,,,88,101
230281,control_change,21,0,2,,,,,,,,,1,11,54,,,
230282,note_on,1,0,2,,,,,,,,,1,,,,85,0
230282,note_on,0,0,2,,,,,,,,,1,,,,76,0
230283,note_on,240,0,12,,,,,,,,,11,,,,64,0
230284,note_on,2,0,2,,,,,,,,,1,,,,76,100
230284,note_on,0,0,2,,,,,,,,,1,,,,85,100
230288,note_on,0,0,13,,,,,,,,,12,,,,61,112
230288,control_change,24,0,13,,,,,,,,,12,11,50,,,
230292,control_change,24,0,14,,,,,,,,,13,11,50,,,
230292,note_on,0,0,14,,,,,,,,,13,,,,57,112
230293,control_change,12,0,1,,,,,,,,,0,11,55,,,
230294,note_on,240,0,15,,,,,,,,,14,,,,40,0
230296,control_change,12,0,2,,,,,,,,,1,11,55,,,
230312,control_change,24,0,13,,,,,,,,,12,11,52,,,
230314,control_change,21,0,1,,,,,,,,,0,11,58,,,
230316,control_change,24,0,14,,,,,,,,,13,11,52,,,
230317,control_change,21,0,2,,,,,,,,,1,11,58,,,
230329,control_change,15,0,1,,,,,,,,,0,11,59,,,
230332,control_change,15,0,2,,,,,,,,,1,11,59,,,
230336,control_change,24,0,13,,,,,,,,,12,11,54,,,
230340,control_change,24,0,14,,,,,,,,,13,11,54,,,
230348,note_on,12,0,13,,,,,,,,,12,,,,61,0
230350,control_change,21,0,1,,,,,,,,,0,11,61,,,
230352,note_on,12,0,14,,,,,,,,,13,,,,57,0
230353,control_change,21,0,2,,,,,,,,,1,11,61,,,
230360,control_change,12,0,13,,,,,,,,,12,11,56,,,
230364,control_change,12,0,14,,,,,,,,,13,11,56,,,
230365,control_change,15,0,1,,,,,,,,,0,11,63,,,
230368,control_change,15,0,2,,,,,,,,,1,11,63,,,
230384,control_change,24,0,13,,,,,,,,,12,11,57,,,
230386,control_change,21,0,1,,,,,,,,,0,11,65,,,
230388,control_change,24,0,14,,,,,,,,,13,11,57,,,
230389,control_change,21,0,2,,,,,,,,,1,11,65,,,
230396,note_on,0,0,1,,,,,,,,,0,,,,88,0
230396,note_on,10,0,1,,,,,,,,,0,,,,81,0
230399,note_on,0,0,2,,,,,,,,,1,,,,76,0
230399,note_on,10,0,2,,,,,,,,,1,,,,85,0
230400,control_change,120,0,11,,,,,,,,,10,11,41,,,
230400,set_tempo,120,1,0,,,,,,285714,,,,,,,,
230400,note_on,0,0,11,,,,,,,,,10,,,,64,93
230401,control_change,0,0,1,,,,,,,,,0,11,67,,,
230401,note_on,0,0,1,,,,,,,,,0,,,,81,101
230401,note_on,5,0,1,,,,,,,,,0,,,,88,101
230403,control_change,0,0,12,,,,,,,,,11,11,41,,,
230403,note_on,120,0,12,,,,,,,,,11,,,,61,93
230404,control_change,0,0,2,,,,,,,,,1,11,67,,,
230404,note_on,0,0,2,,,,,,,,,1,,,,76,100
230404,note_on,5,0,2,,,,,,,,,1,,,,85,100
230405,control_change,360,0,3,,,,,,,,,2,11,52,,,
230407,control_change,360,0,8,,,,,,,,,7,11,52,,,
230408,control_change,24,0,13,,,,,,,,,12,11,59,,,
230408,note_on,0,0,13,,,,,,,,,12,,,,64,112
230409,control_change,360,0,4,,,,,,,,,3,11,52,,,
230412,note_on,0,0,14,,,,,,,,,13,,,,61,112
230412,control_change,24,0,14,,,,,,,,,13,11,59,,,
230424,control_change,24,0,11,,,,,,,,,10,11,42,,,
230427,control_change,24,0,12,,,,,,,,,11,11,42,,,
230433,control_change,28,0,3,,,,,,,,,2,11,53,,,
230435,control_change,28,0,8,,,,,,,,,7,11,54,,,
230437,control_change,28,0,4,,,,,,,,,3,11,54,,,
230448,control_change,24,0,11,,,,,,,,,10,11,44,,,
230448,control_change,15,0,3,,,,,,,,,2,11,54,,,
230450,control_change,15,0,8,,,,,,,,,7,11,55,,,
230451,control_change,24,0,12,,,,,,,,,11,11,44,,,
230452,control_change,15,0,4,,,,,,,,,3,11,55,,,
230460,note_on,12,0,11,,,,,,,,,10,,,,64,0
230463,note_on,12,0,12,,,,,,,,,11,,,,61,0
230472,control_change,12,0,11,,,,,,,,,10,11,46,,,
230475,control_change,12,0,12,,,,,,,,,11,11,46,,,
230477,control_change,29,0,3,,,,,,,,,2,11,55,,,
230479,control_change,29,0,8,,,,,,,,,7,11,57,,,
230481,control_change,29,0,4,,,,,,,,,3,11,57,,,
230496,control_change,24,0,11,,,,,,,,,10,11,48,,,
230499,control_change,24,0,12,,,,,,,,,11,11,48,,,
230505,control_change,28,0,3,,,,,,,,,2,11,57,,,
230507,control_change,28,0,8,,,,,,,,,7,11,59,,,
230509,control_change,28,0,4,,,,,,,,,3,11,59,,,
230520,control_change,15,0,3,,,,,,,,,2,11,58,,,
230520,control_change,0,0,11,,,,,,,,,10,11,50,,,
230520,set_tempo,120,1,0,,,,,,300000,,,,,,,,
230520,note_on,24,0,11,,,,,,,,,10,,,,69,93
230522,control_change,15,0,8,,,,,,,,,7,11,60,,,
230523,note_on,24,0,12,,,,,,,,,11,,,,64,93
230523,control_change,0,0,12,,,,,,,,,11,11,50,,,
230524,control_change,15,0,4,,,,,,,,,3,11,60,,,
230525,note_on,5,0,3,,,,,,,,,2,,,,73,101
230544,control_change,24,0,11,,,,,,,,,10,11,52,,,
230547,control_change,24,0,12,,,,,,,,,11,11,52,,,
230549,control_change,24,0,3,,,,,,,,,2,11,59,,,
230551,control_change,29,0,8,,,,,,,,,7,11,62,,,
230553,control_change,29,0,4,,,,,,,,,3,11,62,,,
230568,control_change,24,0,11,,,,,,,,,10,11,54,,,
230571,control_change,24,0,12,,,,,,,,,11,11,54,,,
230577,control_change,28,0,3,,,,,,,,,2,11,61,,,
230579,control_change,28,0,8,,,,,,,,,7,11,64,,,
230580,note_on,12,0,11,,,,,,,,,10,,,,69,0
230581,control_change,28,0,4,,,,,,,,,3,11,64,,,
230583,note_on,12,0,12,,,,,,,,,11,,,,64,0
230592,control_change,15,0,3,,,,,,,,,2,11,61,,,
230592,control_change,12,0,11,,,,,,,,,10,11,56,,,
230594,control_change,15,0,8,,,,,,,,,7,11,65,,,
230594,note_on,300,0,15,,,,,,,,,14,,,,40,112
230595,control_change,12,0,12,,,,,,,,,11,11,56,,,
230596,control_change,15,0,4,,,,,,,,,3,11,65,,,
230616,control_change,24,0,11,,,,,,,,,10,11,57,,,
230619,control_change,24,0,12,,,,,,,,,11,11,57,,,
230621,control_change,29,0,3,,,,,,,,,2,11,63,,,
230623,control_change,29,0,8,,,,,,,,,7,11,67,,,
230625,control_change,29,0,4,,,,,,,,,3,11,67,,,
230640,note_on,0,0,11,,,,,,,,,10,,,,73,93
230640,control_change,24,0,11,,,,,,,,,10,11,59,,,
230640,set_tempo,120,1,0,,,,,,330579,,,,,,,,
230641,note_on,0,0,1,,,,,,,,,0,,,,88,0
230641,note_on,240,0,1,,,,,,,,,0,,,,81,0
230643,control_change,24,0,12,,,,,,,,,11,11,59,,,
230643,note_on,0,0,12,,,,,,,,,11,,,,69,93
230644,note_on,240,0,2,,,,,,,,,1,,,,76,0
230644,note_on,0,0,2,,,,,,,,,1,,,,85,0
230645,note_on,24,0,3,,,,,,,,,2,,,,73,0
230645,note_on,0,0,3,,,,,,,,,2,,,,73,101
230645,note_on,0,0,3,,,,,,,,,2,,,,76,101
230645,note_on,0,0,3,,,,,,,,,2,,,,69,0
230647,note_on,0,0,8,,,,,,,,,7,,,,69,110
230647,note_on,24,0,8,,,,,,,,,7,,,,69,0
230648,note_on,240,0,13,,,,,,,,,12,,,,64,0
230649,control_change,4,0,3,,,,,,,,,2,11,64,,,
230649,note_on,24,0,4,,,,,,,,,3,,,,64,100
230651,control_change,4,0,8,,,,,,,,,7,11,69,,,
230652,note_on,240,0,14,,,,,,,,,13,,,,61,0
230653,control_change,4,0,4,,,,,,,,,3,11,69,,,
230654,note_on,60,0,15,,,,,,,,,14,,,,40,0
230654,note_on,0,0,15,,,,,,,,,14,,,,40,112
230664,control_change,15,0,3,,,,,,,,,2,11,65,,,
230666,control_change,15,0,8,,,,,,,,,7,11,70,,,
230668,control_change,15,0,4,,,,,,,,,3,11,70,,,
230693,control_change,29,0,3,,,,,,,,,2,11,67,,,
230695,control_change,29,0,8,,,,,,,,,7,11,72,,,
230697,control_change,29,0,4,,,,,,,,,3,11,72,,,
230700,note_on,60,0,11,,,,,,,,,10,,,,73,0
230703,note_on,60,0,12,,,,,,,,,11,,,,69,0
230721,control_change,28,0,3,,,,,,,,,2,11,68,,,
230723,control_change,28,0,8,,,,,,,,,7,11,74,,,
230725,control_change,28,0,4,,,,,,,,,3,11,74,,,
230736,control_change,15,0,3,,,,,,,,,2,11,69,,,
230738,control_change,15,0,8,,,,,,,,,7,11,75,,,
230740,control_change,15,0,4,,,,,,,,,3,11,75,,,
230760,control_change,60,0,11,,,,,,,,,10,11,59,,,
230760,set_tempo,120,1,0,,,,,,285714,,,,,,,,
230760,note_on,0,0,11,,,,,,,,,10,,,,76,104
230760,note_on,0,0,11,,,,,,,,,10,,,,68,104
230763,control_change,0,0,12,,,,,,,,,11,11,59,,,
230763,control_change,0,0,5,,,,,,,,,4,11,57,,,
230763,note_on,4200,0,5,,,,,,,,,4,,,,52,115
230763,note_on,0,0,12,,,,,,,,,11,,,,64,104
230763,note_on,60,0,12,,,,,,,,,11,,,,73,104
230765,control_change,0,0,3,,,,,,,,,2,11,70,,,
230765,note_on,29,0,3,,,,,,,,,2,,,,76,0
230765,note_on,0,0,3,,,,,,,,,2,,,,73,116
230765,note_on,0,0,3,,,,,,,,,2,,,,73,0
230765,note_on,0,0,3,,,,,,,,,2,,,,76,116
230767,note_on,29,0,8,,,,,,,,,7,,,,69,0
230767,control_change,0,0,8,,,,,,,,,7,11,77,,,
230767,note_on,0,0,8,,,,,,,,,7,,,,56,125
230767,note_on,0,0,8,,,,,,,,,7,,,,68,125
230769,note_on,29,0,4,,,,,,,,,3,,,,64,0
230769,note_on,0,0,4,,,,,,,,,3,,,,61,0
230769,note_on,0,0,4,,,,,,,,,3,,,,61,115
230769,control_change,0,0,4,,,,,,,,,3,11,77,,,
230769,note_on,0,0,4,,,,,,,,,3,,,,64,115
230774,note_on,0,0,15,,,,,,,,,14,,,,40,112
230774,note_on,120,0,15,,,,,,,,,14,,,,40,0
230784,control_change,24,0,11,,,,,,,,,10,11,57,,,
230787,control_change,24,0,12,,,,,,,,,11,11,57,,,
230808,control_change,24,0,11,,,,,,,,,10,11,56,,,
230811,control_change,24,0,12,,,,,,,,,11,11,56,,,
230832,control_change,24,0,11,,,,,,,,,10,11,54,,,
230835,control_change,24,0,12,,,,,,,,,11,11,54,,,
230856,control_change,24,0,11,,,,,,,,,10,11,52,,,
230859,control_change,24,0,12,,,,,,,,,11,11,52,,,
230880,control_change,24,0,11,,,,,,,,,10,11,50,,,
230880,set_tempo,120,1,0,,,,,,300000,,,,,,,,
230883,control_change,24,0,12,,,,,,,,,11,11,50,,,
230888,control_change,240,0,13,,,,,,,,,12,11,59,,,
230888,note_on,0,0,13,,,,,,,,,12,,,,56,112
230892,control_change,0,0,14,,,,,,,,,13,11,59,,,
230892,note_on,240,0,14,,,,,,,,,13,,,,52,112
230904,control_change,24,0,11,,,,,,,,,10,11,48,,,
230907,control_change,24,0,12,,,,,,,,,11,11,48,,,
230912,control_change,24,0,13,,,,,,,,,12,11,57,,,
230916,control_change,24,0,14,,,,,,,,,13,11,58,,,
230928,control_change,24,0,11,,,,,,,,,10,11,46,,,
230931,control_change,24,0,12,,,,,,,,,11,11,46,,,
230936,control_change,24,0,13,,,,,,,,,12,11,56,,,
230940,control_change,24,0,14,,,,,,,,,13,11,57,,,
230941,note_on,300,0,1,,,,,,,,,0,,,,88,101
230941,note_on,0,0,1,,,,,,,,,0,,,,80,101
230941,control_change,0,0,1,,,,,,,,,0,11,67,,,
230944,note_on,300,0,2,,,,,,,,,1,,,,76,100
230944,control_change,0,0,2,,,,,,,,,1,11,67,,,
230944,note_on,0,0,2,,,,,,,,,1,,,,85,100
230948,note_on,12,0,13,,,,,,,,,12,,,,56,0
230952,control_change,24,0,11,,,,,,,,,10,11,44,,,
230952,note_on,12,0,14,,,,,,,,,13,,,,52,0
230955,control_change,24,0,12,,,,,,,,,11,11,44,,,
230959,control_change,18,0,1,,,,,,,,,0,11,66,,,
230960,control_change,12,0,13,,,,,,,,,12,11,54,,,
230962,control_change,18,0,2,,,,,,,,,1,11,66,,,
230964,control_change,12,0,14,,,,,,,,,13,11,57,,,
230976,control_change,24,0,11,,,,,,,,,10,11,42,,,
230977,control_change,18,0,1,,,,,,,,,0,11,65,,,
230979,control_change,24,0,12,,,,,,,,,11,11,42,,,
230980,control_change,18,0,2,,,,,,,,,1,11,65,,,
230984,control_change,24,0,13,,,,,,,,,12,11,52,,,
230988,control_change,24,0,14,,,,,,,,,13,11,56,,,
230995,control_change,18,0,1,,,,,,,,,0,11,64,,,
230998,control_change,18,0,2,,,,,,,,,1,11,64,,,
230999,note_on,4,0,1,,,,,,,,,0,,,,80,0
230999,note_on,0,0,1,,,,,,,,,0,,,,88,0
231000,note_on,0,0,11,,,,,,,,,10,,,,68,0
231000,set_tempo,120,1,0,,,,,,330579,,,,,,,,
231000,control_change,0,0,11,,,,,,,,,10,11,41,,,
231000,note_on,24,0,11,,,,,,,,,10,,,,76,0
231001,note_on,0,0,1,,,,,,,,,0,,,,80,101
231001,note_on,2,0,1,,,,,,,,,0,,,,88,101
231002,note_on,4,0,2,,,,,,,,,1,,,,85,0
231002,note_on,0,0,2,,,,,,,,,1,,,,76,0
231003,note_on,24,0,12,,,,,,,,,11,,,,64,0
231003,note_on,0,0,12,,,,,,,,,11,,,,73,0
231003,control_change,0,0,12,,,,,,,,,11,11,41,,,
231004,note_on,0,0,2,,,,,,,,,1,,,,76,100
231004,note_on,2,0,2,,,,,,,,,1,,,,85,100
231008,control_change,0,0,13,,,,,,,,,12,11,50,,,
231008,note_on,24,0,13,,,,,,,,,12,,,,61,112
231012,note_on,0,0,14,,,,,,,,,13,,,,56,112
231012,control_change,24,0,14,,,,,,,,,13,11,55,,,
231013,control_change,12,0,1,,,,,,,,,0,11,64,,,
231014,note_on,240,0,15,,,,,,,,,14,,,,40,0
231016,control_change,12,0,2,,,,,,,,,1,11,64,,,
231031,control_change,18,0,1,,,,,,,,,0,11,63,,,
231032,control_change,24,0,13,,,,,,,,,12,11,48,,,
231034,control_change,18,0,2,,,,,,,,,1,11,63,,,
231036,control_change,24,0,14,,,,,,,,,13,11,54,,,
231049,control_change,18,0,1,,,,,,,,,0,11,62,,,
231052,control_change,18,0,2,,,,,,,,,1,11,62,,,
231056,control_change,24,0,13,,,,,,,,,12,11,46,,,
231060,control_change,24,0,14,,,,,,,,,13,11,53,,,
231067,control_change,18,0,1,,,,,,,,,0,11,61,,,
231068,note_on,12,0,13,,,,,,,,,12,,,,61,0
231070,control_change,18,0,2,,,,,,,,,1,11,61,,,
231072,note_on,12,0,14,,,,,,,,,13,,,,56,0
231080,control_change,12,0,13,,,,,,,,,12,11,44,,,
231084,control_change,12,0,14,,,,,,,,,13,11,52,,,
231085,control_change,18,0,1,,,,,,,,,0,11,61,,,
231088,control_change,18,0,2,,,,,,,,,1,11,61,,,
231103,control_change,18,0,1,,,,,,,,,0,11,60,,,
231104,control_change,24,0,13,,,,,,,,,12,11,42,,,
231106,control_change,18,0,2,,,,,,,,,1,11,60,,,
231108,control_change,24,0,14,,,,,,,,,13,11,51,,,
231116,note_on,0,0,1,,,,,,,,,0,,,,88,0
231116,note_on,13,0,1,,,,,,,,,0,,,,80,0
231119,note_on,0,0,2,,,,,,,,,1,,,,85,0
231119,note_on,13,0,2,,,,,,,,,1,,,,76,0
231120,note_on,120,0,11,,,,,,,,,10,,,,64,93
231120,set_tempo,120,1,0,,,,,,285714,,,,,,,,
231121,control_change,5,0,1,,,,,,,,,0,11,59,,,
231121,note_on,0,0,1,,,,,,,,,0,,,,88,101
231121,note_on,0,0,1,,,,,,,,,0,,,,80,101
231123,note_on,120,0,12,,,,,,,,,11,,,,61,93
231124,note_on,0,0,2,,,,,,,,,1,,,,76,100
231124,note_on,5,0,2,,,,,,,,,1,,,,85,100
231124,control_change,0,0,2,,,,,,,,,1,11,59,,,
231128,note_on,24,0,13,,,,,,,,,12,,,,64,112
231128,control_change,0,0,13,,,,,,,,,12,11,41,,,
231132,note_on,24,0,14,,,,,,,,,13,,,,61,112
231132,control_change,0,0,14,,,,,,,,,13,11,50,,,
231156,control_change,24,0,14,,,,,,,,,13,11,49,,,
231180,control_change,24,0,14,,,,,,,,,13,11,48,,,
231180,note_on,60,0,11,,,,,,,,,10,,,,64,0
231183,note_on,60,0,12,,,,,,,,,11,,,,61,0
231204,control_change,24,0,14,,,,,,,,,13,11,47,,,
231228,control_change,24,0,14,,,,,,,,,13,11,46,,,
231240,note_on,60,0,11,,,,,,,,,10,,,,68,93
231240,set_tempo,120,1,0,,,,,,300000,,,,,,,,
231243,note_on,60,0,12,,,,,,,,,11,,,,64,93
231252,control_change,24,0,14,,,,,,,,,13,11,45,,,
231276,control_change,24,0,14,,,,,,,,,13,11,44,,,
231300,control_change,24,0,14,,,,,,,,,13,11,43,,,
231300,note_on,60,0,11,,,,,,,,,10,,,,68,0
231303,note_on,60,0,12,,,,,,,,,11,,,,64,0
231314,note_on,300,0,15,,,,,,,,,14,,,,40,112
231324,control_change,24,0,14,,,,,,,,,13,11,42,,,
231348,control_change,24,0,14,,,,,,,,,13,11,42,,,
231360,set_tempo,120,1,0,,,,,,330579,,,,,,,,
231360,note_on,60,0,11,,,,,,,,,10,,,,71,93
231363,note_on,60,0,12,,,,,,,,,11,,,,68,93
231364,note_on,240,0,2,,,,,,,,,1,,,,85,0
231364,note_on,0,0,2,,,,,,,,,1,,,,80,100
231365,note_on,600,0,3,,,,,,,,,2,,,,73,0
231365,note_on,0,0,3,,,,,,,,,2,,,,76,0
231365,note_on,0,0,3,,,,,,,,,2,,,,71,101
231365,note_on,0,0,3,,,,,,,,,2,,,,74,101
231369,note_on,0,0,4,,,,,,,,,3,,,,59,100
231369,note_on,0,0,4,,,,,,,,,3,,,,62,100
231369,note_on,0,0,4,,,,,,,,,3,,,,61,0
231369,note_on,600,0,4,,,,,,,,,3,,,,64,0
231372,control_change,0,0,14,,,,,,,,,13,11,41,,,
231372,note_on,0,0,14,,,,,,,,,13,,,,62,112
231372,note_on,24,0,14,,,,,,,,,13,,,,61,0
231374,note_on,60,0,15,,,,,,,,,14,,,,40,0
231374,note_on,0,0,15,,,,,,,,,14,,,,40,112
231420,note_on,60,0,11,,,,,,,,,10,,,,71,0
231423,note_on,60,0,12,,,,,,,,,11,,,,68,0
231432,note_on,60,0,14,,,,,,,,,13,,,,62,0
231480,set_tempo,120,1,0,,,,,,285714,,,,,,,,
231480,note_on,60,0,11,,,,,,,,,10,,,,64,93
231480,note_on,0,0,11,,,,,,,,,10,,,,73,93
231481,note_on,360,0,1,,,,,,,,,0,,,,88,0
231481,note_on,0,0,1,,,,,,,,,0,,,,80,0
231483,note_on,0,0,5,,,,,,,,,4,,,,57,100
231483,note_on,720,0,5,,,,,,,,,4,,,,52,0
231483,note_on,60,0,12,,,,,,,,,11,,,,69,93
231484,note_on,120,0,2,,,,,,,,,1,,,,80,0
231484,note_on,0,0,2,,,,,,,,,1,,,,76,0
231485,note_on,0,0,3,,,,,,,,,2,,,,73,101
231485,note_on,120,0,3,,,,,,,,,2,,,,74,0
231485,note_on,0,0,3,,,,,,,,,2,,,,71,0
231485,note_on,0,0,3,,,,,,,,,2,,,,69,101
231487,note_on,720,0,8,,,,,,,,,7,,,,68,0
231487,note_on,0,0,8,,,,,,,,,7,,,,56,0
231487,note_on,0,0,8,,,,,,,,,7,,,,69,110
231487,note_on,0,0,8,,,,,,,,,7,,,,57,110
231488,note_on,360,0,13,,,,,,,,,12,,,,64,0
231489,note_on,0,0,4,,,,,,,,,3,,,,57,100
231489,note_on,0,0,4,,,,,,,,,3,,,,61,100
231489,note_on,0,0,4,,,,,,,,,3,,,,62,0
231489,note_on,120,0,4,,,,,,,,,3,,,,59,0
231494,note_on,0,0,15,,,,,,,,,14,,,,45,112
231494,note_on,120,0,15,,,,,,,,,14,,,,40,0
231600,set_tempo,120,1,0,,,,,,300000,,,,,,,,
231603,note_on,120,0,5,,,,,,,,,4,,,,57,0
231608,note_on,120,0,13,,,,,,,,,12,,,,52,112
231612,note_on,180,0,14,,,,,,,,,13,,,,49,112
231661,note_on,0,0,1,,,,,,,,,0,,,,81,101
231661,note_on,180,0,1,,,,,,,,,0,,,,85,101
231664,note_on,0,0,2,,,,,,,,,1,,,,81,100
231664,note_on,180,0,2,,,,,,,,,1,,,,69,100
231668,note_on,60,0,13,,,,,,,,,12,,,,52,0
231672,note_on,60,0,14,,,,,,,,,13,,,,49,0
231719,note_on,0,0,1,,,,,,,,,0,,,,85,0
231719,note_on,58,0,1,,,,,,,,,0,,,,81,0
231720,note_on,0,0,11,,,,,,,,,10,,,,64,0
231720,note_on,240,0,11,,,,,,,,,10,,,,73,0
231720,set_tempo,120,1,0,,,,,,330579,,,,,,,,
231721,note_on,2,0,1,,,,,,,,,0,,,,85,101
231721,note_on,0,0,1,,,,,,,,,0,,,,81,101
231722,note_on,58,0,2,,,,,,,,,1,,,,81,0
231722,note_on,0,0,2,,,,,,,,,1,,,,69,0
231723,note_on,240,0,12,,,,,,,,,11,,,,69,0
231724,note_on,2,0,2,,,,,,,,,1,,,,76,100
231724,note_on,0,0,2,,,,,,,,,1,,,,69,100
231728,note_on,60,0,13,,,,,,,,,12,,,,57,112
231732,note_on,60,0,14,,,,,,,,,13,,,,52,112
231734,note_on,240,0,15,,,,,,,,,14,,,,45,0
231788,note_on,60,0,13,,,,,,,,,12,,,,57,0
231792,note_on,60,0,14,,,,,,,,,13,,,,52,0
231836,note_on,0,0,1,,,,,,,,,0,,,,85,0
231836,note_on,115,0,1,,,,,,,,,0,,,,81,0
231839,note_on,115,0,2,,,,,,,,,1,,,,69,0
231839,note_on,0,0,2,,,,,,,,,1,,,,76,0
231840,control_change,0,0,11,,,,,,,,,10,11,59,,,
231840,note_on,120,0,11,,,,,,,,,10,,,,61,93
231840,set_tempo,120,1,0,,,,,,285714,,,,,,,,
231841,note_on,0,0,1,,,,,,,,,0,,,,85,101
231841,note_on,5,0,1,,,,,,,,,0,,,,81,101
231843,note_on,120,0,12,,,,,,,,,11,,,,57,93
231843,control_change,0,0,12,,,,,,,,,11,11,59,,,
231844,note_on,0,0,2,,,,,,,,,1,,,,69,100
231844,note_on,5,0,2,,,,,,,,,1,,,,76,100
231848,note_on,60,0,13,,,,,,,,,12,,,,61,112
231852,note_on,60,0,14,,,,,,,,,13,,,,57,112
231856,control_change,16,0,11,,,,,,,,,10,11,60,,,
231859,control_change,16,0,12,,,,,,,,,11,11,60,,,
231872,control_change,16,0,11,,,,,,,,,10,11,61,,,
231875,control_change,16,0,12,,,,,,,,,11,11,61,,,
231888,control_change,16,0,11,,,,,,,,,10,11,62,,,
231891,control_change,16,0,12,,,,,,,,,11,11,62,,,
231900,note_on,12,0,11,,,,,,,,,10,,,,61,0
231903,note_on,12,0,12,,,,,,,,,11,,,,57,0
231904,control_change,4,0,11,,,,,,,,,10,11,63,,,
231907,control_change,4,0,12,,,,,,,,,11,11,63,,,
231920,control_change,16,0,11,,,,,,,,,10,11,64,,,
231923,control_change,16,0,12,,,,,,,,,11,11,64,,,
231936,control_change,16,0,11,,,,,,,,,10,11,65,,,
231939,control_change,16,0,12,,,,,,,,,11,11,65,,,
231952,control_change,16,0,11,,,,,,,,,10,11,66,,,
231955,control_change,16,0,12,,,,,,,,,11,11,66,,,
231960,note_on,8,0,11,,,,,,,,,10,,,,64,93
231960,set_tempo,120,1,0,,,,,,300000,,,,,,,,
231963,note_on,8,0,12,,,,,,,,,11,,,,61,93
231965,note_on,0,0,3,,,,,,,,,2,,,,69,0
231965,note_on,480,0,3,,,,,,,,,2,,,,73,0
231967,note_on,0,0,8,,,,,,,,,7,,,,69,0
231967,note_on,480,0,8,,,,,,,,,7,,,,57,0
231968,control_change,8,0,11,,,,,,,,,10,11,67,,,
231969,note_on,480,0,4,,,,,,,,,3,,,,57,0
231969,note_on,0,0,4,,,,,,,,,3,,,,61,0
231971,control_change,8,0,12,,,,,,,,,11,11,67,,,
231984,control_change,16,0,11,,,,,,,,,10,11,68,,,
231987,control_change,16,0,12,,,,,,,,,11,11,68,,,
232000,control_change,16,0,11,,,,,,,,,10,11,69,,,
232003,control_change,16,0,12,,,,,,,,,11,11,69,,,
232016,control_change,16,0,11,,,,,,,,,10,11,70,,,
232019,control_change,16,0,12,,,,,,,,,11,11,70,,,
232020,note_on,4,0,11,,,,,,,,,10,,,,64,0
232023,note_on,4,0,12,,,,,,,,,11,,,,61,0
232032,control_change,12,0,11,,,,,,,,,10,11,71,,,
232034,note_on,300,0,15,,,,,,,,,14,,,,45,112
232035,control_change,12,0,12,,,,,,,,,11,11,71,,,
232048,control_change,16,0,11,,,,,,,,,10,11,72,,,
232051,control_change,16,0,12,,,,,,,,,11,11,72,,,
232064,control_change,16,0,11,,,,,,,,,10,11,72,,,
232067,control_change,16,0,12,,,,,,,,,11,11,72,,,
232080,set_tempo,120,1,0,,,,,,330579,,,,,,,,
232080,note_on,0,0,11,,,,,,,,,10,,,,69,93
232080,control_change,16,0,11,,,,,,,,,10,11,73,,,
232081,note_on,240,0,1,,,,,,,,,0,,,,85,0
232081,note_on,0,0,1,,,,,,,,,0,,,,81,0
232083,note_on,16,0,12,,,,,,,,,11,,,,64,93
232083,control_change,0,0,12,,,,,,,,,11,11,73,,,
232084,note_on,0,0,2,,,,,,,,,1,,,,76,0
232084,note_on,240,0,2,,,,,,,,,1,,,,69,0
232088,note_on,240,0,13,,,,,,,,,12,,,,61,0
232092,note_on,240,0,14,,,,,,,,,13,,,,57,0
232094,note_on,0,0,15,,,,,,,,,14,,,,44,112
232094,note_on,60,0,15,,,,,,,,,14,,,,45,0
232140,note_on,60,0,11,,,,,,,,,10,,,,69,0
232141,note_on,0,0,1,,,,,,,,,0,,,,81,101
232141,control_change,0,0,1,,,,,,,,,0,11,78,,,
232141,note_on,60,0,1,,,,,,,,,0,,,,85,101
232143,note_on,60,0,12,,,,,,,,,11,,,,64,0
232144,note_on,0,0,2,,,,,,,,,1,,,,78,100
232144,note_on,0,0,2,,,,,,,,,1,,,,73,100
232144,control_change,60,0,2,,,,,,,,,1,11,78,,,
232145,note_on,0,0,3,,,,,,,,,2,,,,69,101
232145,note_on,0,0,3,,,,,,,,,2,,,,66,101
232145,control_change,180,0,3,,,,,,,,,2,11,78,,,
232149,control_change,0,0,4,,,,,,,,,3,11,87,,,
232149,note_on,180,0,4,,,,,,,,,3,,,,61,100
232149,note_on,0,0,4,,,,,,,,,3,,,,57,100
232200,note_on,60,0,11,,,,,,,,,10,,,,73,93
232200,set_tempo,120,1,0,,,,,,285714,,,,,,,,
232200,note_on,0,0,11,,,,,,,,,10,,,,66,93
232200,control_change,0,0,11,,,,,,,,,10,11,83,,,
232201,note_on,0,0,1,,,,,,,,,0,,,,81,101
232201,note_on,60,0,1,,,,,,,,,0,,,,81,0
232201,note_on,0,0,1,,,,,,,,,0,,,,85,0
232201,note_on,0,0,1,,,,,,,,,0,,,,85,101
232203,note_on,60,0,12,,,,,,,,,11,,,,69,93
232203,note_on,0,0,12,,,,,,,,,11,,,,61,93
232203,control_change,0,0,12,,,,,,,,,11,11,83,,,
232204,note_on,0,0,2,,,,,,,,,1,,,,73,100
232204,note_on,60,0,2,,,,,,,,,1,,,,78,0
232204,note_on,0,0,2,,,,,,,,,1,,,,78,100
232204,note_on,0,0,2,,,,,,,,,1,,,,73,0
232205,note_on,0,0,3,,,,,,,,,2,,,,66,101
232205,note_on,0,0,3,,,,,,,,,2,,,,69,101
232205,note_on,0,0,3,,,,,,,,,2,,,,69,0
232205,note_on,60,0,3,,,,,,,,,2,,,,66,0
232209,note_on,0,0,4,,,,,,,,,3,,,,57,100
232209,note_on,60,0,4,,,,,,,,,3,,,,57,0
232209,note_on,0,0,4,,,,,,,,,3,,,,61,100
232209,note_on,0,0,4,,,,,,,,,3,,,,61,0
232213,note_on,0,0,9,,,,,,,,,8,,,,54,110
232213,control_change,7680,0,9,,,,,,,,,8,11,82,,,
232214,note_on,120,0,15,,,,,,,,,14,,,,44,0
232214,control_change,0,0,15,,,,,,,,,14,11,83,,,
232214,note_on,0,0,15,,,,,,,,,14,,,,42,112
232320,set_tempo,120,1,0,,,,,,300000,,,,,,,,
232328,note_on,240,0,13,,,,,,,,,12,,,,57,112
232328,control_change,0,0,13,,,,,,,,,12,11,83,,,
232332,note_on,240,0,14,,,,,,,,,13,,,,54,112
232332,control_change,0,0,14,,,,,,,,,13,11,83,,,
232383,note_on,780,0,5,,,,,,,,,4,,,,57,100
232383,control_change,0,0,5,,,,,,,,,4,11,82,,,
232384,control_change,5820,0,6,,,,,,,,,5,11,82,,,
232384,note_on,0,0,6,,,,,,,,,5,,,,57,100
232387,note_on,420,0,8,,,,,,,,,7,,,,57,110
232387,note_on,0,0,8,,,,,,,,,7,,,,66,110
232387,control_change,0,0,8,,,,,,,,,7,11,82,,,
232388,note_on,60,0,13,,,,,,,,,12,,,,57,0
232392,note_on,60,0,14,,,,,,,,,13,,,,54,0
232440,set_tempo,120,1,0,,,,,,315789,,,,,,,,
232440,note_on,240,0,11,,,,,,,,,10,,,,66,0
232440,note_on,0,0,11,,,,,,,,,10,,,,73,0
232443,note_on,0,0,12,,,,,,,,,11,,,,69,0
232443,note_on,0,0,5,,,,,,,,,4,,,,57,100
232443,note_on,60,0,5,,,,,,,,,4,,,,57,0
232443,note_on,240,0,12,,,,,,,,,11,,,,61,0
232444,note_on,60,0,6,,,,,,,,,5,,,,57,0
232444,note_on,0,0,6,,,,,,,,,5,,,,57,100
232447,note_on,0,0,8,,,,,,,,,7,,,,66,110
232447,note_on,0,0,8,,,,,,,,,7,,,,57,0
232447,note_on,60,0,8,,,,,,,,,7,,,,66,0
232447,note_on,0,0,8,,,,,,,,,7,,,,57,110
232448,note_on,60,0,13,,,,,,,,,12,,,,61,112
232452,note_on,60,0,14,,,,,,,,,13,,,,57,112
232453,note_on,240,0,9,,,,,,,,,8,,,,54,0
232454,note_on,240,0,15,,,,,,,,,14,,,,42,0
232508,note_on,60,0,13,,,,,,,,,12,,,,61,0
232512,note_on,60,0,14,,,,,,,,,13,,,,57,0
232560,note_on,120,0,11,,,,,,,,,10,,,,61,93
232560,set_tempo,120,1,0,,,,,,285714,,,,,,,,
232563,note_on,0,0,5,,,,,,,,,4,,,,57,100
232563,note_on,120,0,12,,,,,,,,,11,,,,57,93
232563,note_on,120,0,5,,,,,,,,,4,,,,57,0
232564,note_on,120,0,6,,,,,,,,,5,,,,57,0
232564,note_on,0,0,6,,,,,,,,,5,,,,57,100
232567,note_on,120,0,8,,,,,,,,,7,,,,57,0
232567,note_on,0,0,8,,,,,,,,,7,,,,66,0
232567,note_on,0,0,8,,,,,,,,,7,,,,57,110
232567,note_on,0,0,8,,,,,,,,,7,,,,66,110
232568,note_on,60,0,13,,,,,,,,,12,,,,66,112
232568,note_on,0,0,13,,,,,,,,,12,,,,57,112
232572,note_on,60,0,14,,,,,,,,,13,,,,61,112
232620,note_on,60,0,11,,,,,,,,,10,,,,61,0
232623,note_on,60,0,12,,,,,,,,,11,,,,57,0
232680,note_on,60,0,11,,,,,,,,,10,,,,66,93
232680,set_tempo,120,1,0,,,,,,300000,,,,,,,,
232683,note_on,60,0,12,,,,,,,,,11,,,,61,93
232740,note_on,60,0,11,,,,,,,,,10,,,,66,0
232743,note_on,60,0,12,,,,,,,,,11,,,,61,0
232753,note_on,300,0,9,,,,,,,,,8,,,,54,110
232754,note_on,300,0,15,,,,,,,,,14,,,,42,112
232800,note_on,60,0,11,,,,,,,,,10,,,,69,93
232800,set_tempo,120,1,0,,,,,,315789,,,,,,,,
232803,note_on,240,0,5,,,,,,,,,4,,,,57,0
232803,note_on,60,0,12,,,,,,,,,11,,,,66,93
232804,note_on,240,0,6,,,,,,,,,5,,,,57,0
232807,note_on,0,0,8,,,,,,,,,7,,,,66,0
232807,note_on,240,0,8,,,,,,,,,7,,,,57,0
232808,note_on,0,0,13,,,,,,,,,12,,,,66,0
232808,note_on,240,0,13,,,,,,,,,12,,,,57,0
232812,note_on,240,0,14,,,,,,,,,13,,,,61,0
232813,note_on,0,0,9,,,,,,,,,8,,,,54,110
232813,note_on,60,0,9,,,,,,,,,8,,,,54,0
232814,note_on,0,0,15,,,,,,,,,14,,,,42,112
232814,note_on,60,0,15,,,,,,,,,14,,,,42,0
232860,note_on,60,0,11,,,,,,,,,10,,,,69,0
232861,note_on,660,0,1,,,,,,,,,0,,,,81,0
232861,note_on,0,0,1,,,,,,,,,0,,,,85,0
232861,note_on,0,0,1,,,,,,,,,0,,,,81,101
232861,note_on,0,0,1,,,,,,,,,0,,,,85,101
232863,note_on,60,0,12,,,,,,,,,11,,,,66,0
232864,note_on,0,0,2,,,,,,,,,1,,,,78,0
232864,note_on,0,0,2,,,,,,,,,1,,,,73,100
232864,note_on,0,0,2,,,,,,,,,1,,,,78,100
232864,note_on,660,0,2,,,,,,,,,1,,,,73,0
232865,note_on,0,0,3,,,,,,,,,2,,,,66,101
232865,note_on,0,0,3,,,,,,,,,2,,,,69,101
232865,note_on,0,0,3,,,,,,,,,2,,,,66,0
232865,note_on,660,0,3,,,,,,,,,2,,,,69,0
232869,note_on,0,0,4,,,,,,,,,3,,,,57,100
232869,note_on,0,0,4,,,,,,,,,3,,,,61,100
232869,note_on,0,0,4,,,,,,,,,3,,,,57,0
232869,note_on,660,0,4,,,,,,,,,3,,,,61,0
232920,note_on,60,0,11,,,,,,,,,10,,,,66,93
232920,note_on,0,0,11,,,,,,,,,10,,,,73,93
232920,set_tempo,120,1,0,,,,,,285714,,,,,,,,
232921,note_on,0,0,1,,,,,,,,,0,,,,81,101
232921,note_on,0,0,1,,,,,,,,,0,,,,85,101
232921,note_on,60,0,1,,,,,,,,,0,,,,81,0
232921,note_on,0,0,1,,,,,,,,,0,,,,85,0
232923,note_on,0,0,12,,,,,,,,,11,,,,69,93
232923,note_on,60,0,12,,,,,,,,,11,,,,61,93
232924,note_on,0,0,2,,,,,,,,,1,,,,78,0
232924,note_on,60,0,2,,,,,,,,,1,,,,73,0
232924,note_on,0,0,2,,,,,,,,,1,,,,78,100
232924,note_on,0,0,2,,,,,,,,,1,,,,73,100
232925,note_on,0,0,3,,,,,,,,,2,,,,69,101
232925,note_on,0,0,3,,,,,,,,,2,,,,66,101
232925,note_on,0,0,3,,,,,,,,,2,,,,66,0
232925,note_on,60,0,3,,,,,,,,,2,,,,69,0
232929,note_on,0,0,4,,,,,,,,,3,,,,61,100
232929,note_on,0,0,4,,,,,,,,,3,,,,57,100
232929,note_on,0,0,4,,,,,,,,,3,,,,61,0
232929,note_on,60,0,4,,,,,,,,,3,,,,57,0
232933,note_on,0,0,9,,,,,,,,,8,,,,54,110
232933,note_on,120,0,9,,,,,,,,,8,,,,54,0
232934,note_on,120,0,15,,,,,,,,,14,,,,42,0
232934,note_on,0,0,15,,,,,,,,,14,,,,42,112
233040,set_tempo,120,1,0,,,,,,300000,,,,,,,,
233048,control_change,0,0,13,,,,,,,,,12,11,83,,,
233048,note_on,240,0,13,,,,,,,,,12,,,,57,112
233052,control_change,0,0,14,,,,,,,,,13,11,83,,,
233052,note_on,240,0,14,,,,,,,,,13,,,,54,112
233072,control_change,24,0,13,,,,,,,,,12,11,85,,,
233076,control_change,24,0,14,,,,,,,,,13,11,85,,,
233096,control_change,24,0,13,,,,,,,,,12,11,87,,,
233100,control_change,24,0,14,,,,,,,,,13,11,87,,,
233103,note_on,300,0,5,,,,,,,,,4,,,,57,100
233104,note_on,300,0,6,,,,,,,,,5,,,,57,100
233107,note_on,300,0,8,,,,,,,,,7,,,,57,110
233107,note_on,0,0,8,,,,,,,,,7,,,,66,110
233108,note_on,12,0,13,,,,,,,,,12,,,,57,0
233112,note_on,12,0,14,,,,,,,,,13,,,,54,0
233120,control_change,12,0,13,,,,,,,,,12,11,88,,,
233124,control_change,12,0,14,,,,,,,,,13,11,88,,,
233144,control_change,24,0,13,,,,,,,,,12,11,90,,,
233148,control_change,24,0,14,,,,,,,,,13,11,90,,,
233160,note_on,0,0,11,,,,,,,,,10,,,,66,0
233160,set_tempo,120,1,0,,,,,,315789,,,,,,,,
233160,note_on,240,0,11,,,,,,,,,10,,,,73,0
233161,note_on,0,0,1,,,,,,,,,0,,,,81,101
233161,note_on,240,0,1,,,,,,,,,0,,,,81,0
233161,note_on,0,0,1,,,,,,,,,0,,,,85,101
233161,note_on,0,0,1,,,,,,,,,0,,,,85,0
233163,note_on,0,0,12,,,,,,,,,11,,,,61,0
233163,note_on,0,0,5,,,,,,,,,4,,,,57,100
233163,note_on,60,0,5,,,,,,,,,4,,,,57,0
233163,note_on,240,0,12,,,,,,,,,11,,,,69,0
233164,note_on,60,0,6,,,,,,,,,5,,,,57,0
233164,note_on,0,0,2,,,,,,,,,1,,,,78,100
233164,note_on,0,0,2,,,,,,,,,1,,,,73,100
233164,note_on,0,0,6,,,,,,,,,5,,,,57,100
233164,note_on,240,0,2,,,,,,,,,1,,,,73,0
233164,note_on,0,0,2,,,,,,,,,1,,,,78,0
233165,note_on,240,0,3,,,,,,,,,2,,,,69,0
233165,note_on,0,0,3,,,,,,,,,2,,,,66,0
233165,note_on,0,0,3,,,,,,,,,2,,,,66,101
233165,note_on,0,0,3,,,,,,,,,2,,,,69,101
233167,note_on,0,0,8,,,,,,,,,7,,,,57,110
233167,note_on,0,0,8,,,,,,,,,7,,,,57,0
233167,note_on,60,0,8,,,,,,,,,7,,,,66,0
233167,note_on,0,0,8,,,,,,,,,7,,,,66,110
233168,note_on,24,0,13,,,,,,,,,12,,,,61,112
233168,control_change,0,0,13,,,,,,,,,12,11,92,,,
233169,note_on,0,0,4,,,,,,,,,3,,,,61,100
233169,note_on,0,0,4,,,,,,,,,3,,,,57,100
233169,note_on,0,0,4,,,,,,,,,3,,,,57,0
233169,note_on,240,0,4,,,,,,,,,3,,,,61,0
233172,control_change,0,0,14,,,,,,,,,13,11,92,,,
233172,note_on,24,0,14,,,,,,,,,13,,,,57,112
233173,note_on,240,0,9,,,,,,,,,8,,,,54,0
233174,note_on,240,0,15,,,,,,,,,14,,,,42,0
233192,control_change,24,0,13,,,,,,,,,12,11,94,,,
233196,control_change,24,0,14,,,,,,,,,13,11,94,,,
233216,control_change,24,0,13,,,,,,,,,12,11,96,,,
233220,control_change,24,0,14,,,,,,,,,13,11,96,,,
233228,note_on,12,0,13,,,,,,,,,12,,,,61,0
233232,note_on,12,0,14,,,,,,,,,13,,,,57,0
233240,control_change,12,0,13,,,,,,,,,12,11,98,,,
233244,control_change,12,0,14,,,,,,,,,13,11,98,,,
233264,control_change,24,0,13,,,,,,,,,12,11,100,,,
233268,control_change,24,0,14,,,,,,,,,13,11,100,,,
233280,set_tempo,120,1,0,,,,,,285714,,,,,,,,
233280,note_on,120,0,11,,,,,,,,,10,,,,67,93
233281,control_change,0,0,1,,,,,,,,,0,11,78,,,
233281,note_on,0,0,1,,,,,,,,,0,,,,85,101
233281,note_on,0,0,1,,,,,,,,,0,,,,81,0
233281,note_on,120,0,1,,,,,,,,,0,,,,85,0
233281,note_on,0,0,1,,,,,,,,,0,,,,81,101
233283,note_on,0,0,5,,,,,,,,,4,,,,57,100
233283,note_on,120,0,5,,,,,,,,,4,,,,57,0
233283,note_on,120,0,12,,,,,,,,,11,,,,61,93
233284,note_on,120,0,2,,,,,,,,,1,,,,78,0
233284,control_change,0,0,2,,,,,,,,,1,11,78,,,
233284,note_on,0,0,6,,,,,,,,,5,,,,57,100
233284,note_on,120,0,6,,,,,,,,,5,,,,57,0
233284,note_on,0,0,2,,,,,,,,,1,,,,73,100
233284,note_on,0,0,2,,,,,,,,,1,,,,73,0
233284,note_on,0,0,2,,,,,,,,,1,,,,79,100
233285,note_on,0,0,3,,,,,,,,,2,,,,69,101
233285,note_on,0,0,3,,,,,,,,,2,,,,67,101
233285,note_on,0,0,3,,,,,,,,,2,,,,69,0
233285,note_on,120,0,3,,,,,,,,,2,,,,66,0
233285,control_change,0,0,3,,,,,,,,,2,11,78,,,
233287,note_on,120,0,8,,,,,,,,,7,,,,66,0
233287,note_on,0,0,8,,,,,,,,,7,,,,57,0
233287,note_on,0,0,8,,,,,,,,,7,,,,57,110
233287,note_on,0,0,8,,,,,,,,,7,,,,67,110
233288,control_change,0,0,13,,,,,,,,,12,11,102,,,
233288,note_on,24,0,13,,,,,,,,,12,,,,67,112
233288,note_on,0,0,13,,,,,,,,,12,,,,57,112
233289,note_on,120,0,4,,,,,,,,,3,,,,61,0
233289,note_on,0,0,4,,,,,,,,,3,,,,57,0
233289,note_on,0,0,4,,,,,,,,,3,,,,61,100
233289,note_on,0,0,4,,,,,,,,,3,,,,55,100
233289,control_change,0,0,4,,,,,,,,,3,11,87,,,
233292,control_change,0,0,14,,,,,,,,,13,11,102,,,
233292,note_on,24,0,14,,,,,,,,,13,,,,61,112
233299,control_change,18,0,1,,,,,,,,,0,11,79,,,
233302,control_change,18,0,2,,,,,,,,,1,11,79,,,
233303,control_change,18,0,3,,,,,,,,,2,11,79,,,
233307,control_change,18,0,4,,,,,,,,,3,11,88,,,
233317,control_change,18,0,1,,,,,,,,,0,11,80,,,
233320,control_change,18,0,2,,,,,,,,,1,11,80,,,
233321,control_change,18,0,3,,,,,,,,,2,11,80,,,
233325,control_change,18,0,4,,,,,,,,,3,11,89,,,
233335,control_change,18,0,1,,,,,,,,,0,11,80,,,
233338,control_change,18,0,2,,,,,,,,,1,11,80,,,
233339,control_change,18,0,3,,,,,,,,,2,11,80,,,
233340,note_on,60,0,11,,,,,,,,,10,,,,67,0
233343,note_on,60,0,12,,,,,,,,,11,,,,61,0
233343,control_change,18,0,4,,,,,,,,,3,11,90,,,
233353,control_change,18,0,1,,,,,,,,,0,11,81,,,
233356,control_change,18,0,2,,,,,,,,,1,11,81,,,
233357,control_change,18,0,3,,,,,,,,,2,11,81,,,
233361,control_change,18,0,4,,,,,,,,,3,11,91,,,
233371,control_change,18,0,1,,,,,,,,,0,11,82,,,
233374,control_change,18,0,2,,,,,,,,,1,11,82,,,
233375,control_change,18,0,3,,,,,,,,,2,11,82,,,
233379,control_change,18,0,4,,,,,,,,,3,11,92,,,
233389,control_change,18,0,1,,,,,,,,,0,11,83,,,
233392,control_change,18,0,2,,,,,,,,,1,11,83,,,
233393,control_change,18,0,3,,,,,,,,,2,11,83,,,
233397,control_change,18,0,4,,,,,,,,,3,11,93,,,
233400,set_tempo,120,1,0,,,,,,300000,,,,,,,,
233400,note_on,60,0,11,,,,,,,,,10,,,,69,93
233401,note_on,12,0,1,,,,,,,,,0,,,,85,0
233401,note_on,0,0,1,,,,,,,,,0,,,,83,101
233403,note_on,60,0,12,,,,,,,,,11,,,,67,93
233404,note_on,12,0,2,,,,,,,,,1,,,,73,0
233404,note_on,0,0,2,,,,,,,,,1,,,,71,100
233407,control_change,6,0,1,,,,,,,,,0,11,83,,,
233409,note_on,12,0,4,,,,,,,,,3,,,,61,0
233409,note_on,0,0,4,,,,,,,,,3,,,,59,100
233410,control_change,6,0,2,,,,,,,,,1,11,83,,,
233411,control_change,18,0,3,,,,,,,,,2,11,83,,,
233415,control_change,6,0,4,,,,,,,,,3,11,94,,,
233425,control_change,18,0,1,,,,,,,,,0,11,84,,,
233428,control_change,18,0,2,,,,,,,,,1,11,84,,,
233429,control_change,18,0,3,,,,,,,,,2,11,84,,,
233433,control_change,18,0,4,,,,,,,,,3,11,95,,,
233443,control_change,18,0,1,,,,,,,,,0,11,85,,,
233446,control_change,18,0,2,,,,,,,,,1,11,85,,,
233447,control_change,18,0,3,,,,,,,,,2,11,85,,,
233451,control_change,18,0,4,,,,,,,,,3,11,96,,,
233460,note_on,60,0,11,,,,,,,,,10,,,,69,0
233461,control_change,18,0,1,,,,,,,,,0,11,86,,,
233463,note_on,60,0,12,,,,,,,,,11,,,,67,0
233464,control_change,18,0,2,,,,,,,,,1,11,86,,,
233465,control_change,18,0,3,,,,,,,,,2,11,86,,,
233469,control_change,18,0,4,,,,,,,,,3,11,97,,,
233473,note_on,300,0,9,,,,,,,,,8,,,,52,110
233474,note_on,300,0,15,,,,,,,,,14,,,,40,112
233479,control_change,18,0,1,,,,,,,,,0,11,86,,,
233482,control_change,18,0,2,,,,,,,,,1,11,86,,,
233483,control_change,18,0,3,,,,,,,,,2,11,86,,,
233487,control_change,18,0,4,,,,,,,,,3,11,98,,,
233497,control_change,18,0,1,,,,,,,,,0,11,87,,,
233500,control_change,18,0,2,,,,,,,,,1,11,87,,,
233501,control_change,18,0,3,,,,,,,,,2,11,87,,,
233505,control_change,18,0,4,,,,,,,,,3,11,99,,,
233515,control_change,18,0,1,,,,,,,,,0,11,88,,,
233518,control_change,18,0,2,,,,,,,,,1,11,88,,,
233519,control_change,18,0,3,,,,,,,,,2,11,88,,,
233520,note_on,60,0,11,,,,,,,,,10,,,,73,93
233520,set_tempo,120,1,0,,,,,,315789,,,,,,,,
233521,note_on,0,0,1,,,,,,,,,0,,,,81,101
233521,note_on,0,0,1,,,,,,,,,0,,,,81,0
233521,note_on,6,0,1,,,,,,,,,0,,,,83,0
233523,note_on,240,0,5,,,,,,,,,4,,,,57,0
233523,control_change,18,0,4,,,,,,,,,3,11,100,,,
233523,note_on,60,0,12,,,,,,,,,11,,,,69,93
233524,note_on,240,0,6,,,,,,,,,5,,,,57,0
233524,note_on,0,0,2,,,,,,,,,1,,,,69,100
233524,note_on,0,0,2,,,,,,,,,1,,,,79,0
233524,note_on,0,0,2,,,,,,,,,1,,,,79,100
233524,note_on,6,0,2,,,,,,,,,1,,,,71,0
233525,note_on,0,0,3,,,,,,,,,2,,,,67,101
233525,note_on,6,0,3,,,,,,,,,2,,,,69,0
233525,note_on,0,0,3,,,,,,,,,2,,,,67,0
233525,note_on,0,0,3,,,,,,,,,2,,,,69,101
233527,note_on,240,0,8,,,,,,,,,7,,,,67,0
233527,note_on,0,0,8,,,,,,,,,7,,,,57,0
233528,note_on,0,0,13,,,,,,,,,12,,,,67,0
233528,note_on,240,0,13,,,,,,,,,12,,,,57,0
233529,note_on,0,0,4,,,,,,,,,3,,,,55,100
233529,note_on,0,0,4,,,,,,,,,3,,,,57,100
233529,note_on,0,0,4,,,,,,,,,3,,,,55,0
233529,note_on,6,0,4,,,,,,,,,3,,,,59,0
233532,note_on,240,0,14,,,,,,,,,13,,,,61,0
233533,control_change,12,0,1,,,,,,,,,0,11,89,,,
233533,note_on,0,0,9,,,,,,,,,8,,,,52,110
233533,note_on,60,0,9,,,,,,,,,8,,,,52,0
233534,note_on,60,0,15,,,,,,,,,14,,,,40,0
233534,note_on,0,0,15,,,,,,,,,14,,,,40,112
233536,control_change,12,0,2,,,,,,,,,1,11,89,,,
233537,control_change,12,0,3,,,,,,,,,2,11,89,,,
233541,control_change,12,0,4,,,,,,,,,3,11,101,,,
233551,control_change,18,0,1,,,,,,,,,0,11,89,,,
233554,control_change,18,0,2,,,,,,,,,1,11,89,,,
233555,control_change,18,0,3,,,,,,,,,2,11,89,,,
233559,control_change,18,0,4,,,,,,,,,3,11,102,,,
233569,control_change,18,0,1,,,,,,,,,0,11,90,,,
233572,control_change,18,0,2,,,,,,,,,1,11,90,,,
233573,control_change,18,0,3,,,,,,,,,2,11,90,,,
233577,control_change,18,0,4,,,,,,,,,3,11,103,,,
233580,note_on,60,0,11,,,,,,,,,10,,,,73,0
233583,note_on,60,0,12,,,,,,,,,11,,,,69,0
233587,control_change,18,0,1,,,,,,,,,0,11,91,,,
233590,control_change,18,0,2,,,,,,,,,1,11,91,,,
233591,control_change,18,0,3,,,,,,,,,2,11,91,,,
233595,control_change,18,0,4,,,,,,,,,3,11,104,,,
233605,control_change,18,0,1,,,,,,,,,0,11,92,,,
233608,control_change,18,0,2,,,,,,,,,1,11,92,,,
233609,control_change,18,0,3,,,,,,,,,2,11,92,,,
233613,control_change,18,0,4,,,,,,,,,3,11,105,,,
233623,control_change,18,0,1,,,,,,,,,0,11,92,,,
233626,control_change,18,0,2,,,,,,,,,1,11,92,,,
233627,control_change,18,0,3,,,,,,,,,2,11,92,,,
233631,control_change,18,0,4,,,,,,,,,3,11,106,,,
233640,set_tempo,120,1,0,,,,,,285714,,,,,,,,
233640,note_on,0,0,11,,,,,,,,,10,,,,74,93
233640,note_on,60,0,11,,,,,,,,,10,,,,66,93
233641,note_on,18,0,1,,,,,,,,,0,,,,81,0
233641,note_on,0,0,1,,,,,,,,,0,,,,81,101
233641,note_on,0,0,1,,,,,,,,,0,,,,86,101
233641,control_change,0,0,1,,,,,,,,,0,11,93,,,
233643,note_on,0,0,12,,,,,,,,,11,,,,62,93
233643,note_on,60,0,12,,,,,,,,,11,,,,69,93
233644,note_on,0,0,2,,,,,,,,,1,,,,78,100
233644,control_change,0,0,2,,,,,,,,,1,11,93,,,
233644,note_on,0,0,2,,,,,,,,,1,,,,74,100
233644,note_on,0,0,2,,,,,,,,,1,,,,79,0
233644,note_on,18,0,2,,,,,,,,,1,,,,69,0
233645,note_on,18,0,3,,,,,,,,,2,,,,67,0
233645,note_on,0,0,3,,,,,,,,,2,,,,66,101
233645,control_change,0,0,3,,,,,,,,,2,11,93,,,
233645,note_on,0,0,3,,,,,,,,,2,,,,69,0
233645,note_on,0,0,3,,,,,,,,,2,,,,69,101
233649,note_on,0,0,4,,,,,,,,,3,,,,54,100
233649,note_on,18,0,4,,,,,,,,,3,,,,55,0
233649,note_on,0,0,4,,,,,,,,,3,,,,57,0
233649,note_on,0,0,4,,,,,,,,,3,,,,62,100
233649,control_change,0,0,4,,,,,,,,,3,11,107,,,
233653,note_on,0,0,9,,,,,,,,,8,,,,50,110
233653,note_on,120,0,9,,,,,,,,,8,,,,52,0
233654,note_on,120,0,15,,,,,,,,,14,,,,40,0
233654,note_on,0,0,15,,,,,,,,,14,,,,38,112
233659,control_change,18,0,1,,,,,,,,,0,11,92,,,
233662,control_change,18,0,2,,,,,,,,,1,11,92,,,
233663,control_change,18,0,3,,,,,,,,,2,11,92,,,
233667,control_change,18,0,4,,,,,,,,,3,11,106,,,
233677,control_change,18,0,1,,,,,,,,,0,11,92,,,
233680,control_change,18,0,2,,,,,,,,,1,11,92,,,
233681,control_change,18,0,3,,,,,,,,,2,11,92,,,
233685,control_change,18,0,4,,,,,,,,,3,11,105,,,
233695,control_change,18,0,1,,,,,,,,,0,11,91,,,
233698,control_change,18,0,2,,,,,,,,,1,11,91,,,
233699,control_change,18,0,3,,,,,,,,,2,11,91,,,
233703,control_change,18,0,4,,,,,,,,,3,11,104,,,
233713,control_change,18,0,1,,,,,,,,,0,11,90,,,
233716,control_change,18,0,2,,,,,,,,,1,11,90,,,
233717,control_change,18,0,3,,,,,,,,,2,11,90,,,
233721,control_change,18,0,4,,,,,,,,,3,11,103,,,
233731,control_change,18,0,1,,,,,,,,,0,11,89,,,
233734,control_change,18,0,2,,,,,,,,,1,11,89,,,
233735,control_change,18,0,3,,,,,,,,,2,11,89,,,
233739,control_change,18,0,4,,,,,,,,,3,11,102,,,
233749,control_change,18,0,1,,,,,,,,,0,11,89,,,
233752,control_change,18,0,2,,,,,,,,,1,11,89,,,
233753,control_change,18,0,3,,,,,,,,,2,11,89,,,
233757,control_change,18,0,4,,,,,,,,,3,11,101,,,
233760,set_tempo,120,1,0,,,,,,300000,,,,,,,,
233767,control_change,18,0,1,,,,,,,,,0,11,88,,,
233768,note_on,240,0,13,,,,,,,,,12,,,,57,112
233768,control_change,0,0,13,,,,,,,,,12,11,102,,,
233770,control_change,18,0,2,,,,,,,,,1,11,88,,,
233771,control_change,18,0,3,,,,,,,,,2,11,88,,,
233772,note_on,0,0,14,,,,,,,,,13,,,,54,112
233772,control_change,240,0,14,,,,,,,,,13,11,102,,,
233775,control_change,18,0,4,,,,,,,,,3,11,100,,,
233785,control_change,18,0,1,,,,,,,,,0,11,87,,,
233788,control_change,18,0,2,,,,,,,,,1,11,87,,,
233789,control_change,18,0,3,,,,,,,,,2,11,87,,,
233792,control_change,24,0,13,,,,,,,,,12,11,100,,,
233793,control_change,18,0,4,,,,,,,,,3,11,99,,,
233796,control_change,24,0,14,,,,,,,,,13,11,100,,,
233803,control_change,18,0,1,,,,,,,,,0,11,86,,,
233806,control_change,18,0,2,,,,,,,,,1,11,86,,,
233807,control_change,18,0,3,,,,,,,,,2,11,86,,,
233811,control_change,18,0,4,,,,,,,,,3,11,98,,,
233816,control_change,24,0,13,,,,,,,,,12,11,98,,,
233820,control_change,24,0,14,,,,,,,,,13,11,98,,,
233821,control_change,18,0,1,,,,,,,,,0,11,86,,,
233823,note_on,300,0,5,,,,,,,,,4,,,,62,100
233824,note_on,300,0,6,,,,,,,,,5,,,,57,100
233824,control_change,18,0,2,,,,,,,,,1,11,86,,,
233825,control_change,18,0,3,,,,,,,,,2,11,86,,,
233827,note_on,300,0,8,,,,,,,,,7,,,,66,110
233827,note_on,0,0,8,,,,,,,,,7,,,,54,110
233828,note_on,12,0,13,,,,,,,,,12,,,,57,0
233829,control_change,18,0,4,,,,,,,,,3,11,97,,,
233832,note_on,12,0,14,,,,,,,,,13,,,,54,0
233839,control_change,18,0,1,,,,,,,,,0,11,85,,,
233840,control_change,12,0,13,,,,,,,,,12,11,96,,,
233842,control_change,18,0,2,,,,,,,,,1,11,85,,,
233843,control_change,18,0,3,,,,,,,,,2,11,85,,,
233844,control_change,12,0,14,,,,,,,,,13,11,96,,,
233847,control_change,18,0,4,,,,,,,,,3,11,96,,,
233857,control_change,18,0,1,,,,,,,,,0,11,84,,,
233860,control_change,18,0,2,,,,,,,,,1,11,84,,,
233861,control_change,18,0,3,,,,,,,,,2,11,84,,,
233864,control_change,24,0,13,,,,,,,,,12,11,94,,,
233865,control_change,18,0,4,,,,,,,,,3,11,95,,,
233868,control_change,24,0,14,,,,,,,,,13,11,94,,,
233875,control_change,18,0,1,,,,,,,,,0,11,83,,,
233878,control_change,18,0,2,,,,,,,,,1,11,83,,,
233879,control_change,18,0,3,,,,,,,,,2,11,83,,,
233880,note_on,240,0,11,,,,,,,,,10,,,,74,0
233880,note_on,0,0,11,,,,,,,,,10,,,,66,0
233880,set_tempo,120,1,0,,,,,,315789,,,,,,,,
233883,control_change,18,0,4,,,,,,,,,3,11,94,,,
233883,note_on,0,0,12,,,,,,,,,11,,,,69,0
233883,note_on,240,0,12,,,,,,,,,11,,,,62,0
233883,note_on,60,0,5,,,,,,,,,4,,,,62,0
233883,note_on,0,0,5,,,,,,,,,4,,,,62,100
233884,note_on,0,0,6,,,,,,,,,5,,,,57,100
233884,note_on,60,0,6,,,,,,,,,5,,,,57,0
233887,note_on,60,0,8,,,,,,,,,7,,,,54,0
233887,note_on,0,0,8,,,,,,,,,7,,,,66,0
233887,note_on,0,0,8,,,,,,,,,7,,,,66,110
233887,note_on,0,0,8,,,,,,,,,7,,,,54,110
233888,note_on,0,0,13,,,,,,,,,12,,,,62,112
233888,control_change,24,0,13,,,,,,,,,12,11,92,,,
233892,control_change,24,0,14,,,,,,,,,13,11,92,,,
233892,note_on,0,0,14,,,,,,,,,13,,,,57,112
233893,control_change,18,0,1,,,,,,,,,0,11,83,,,
233893,note_on,240,0,9,,,,,,,,,8,,,,50,0
233894,note_on,240,0,15,,,,,,,,,14,,,,38,0
233896,control_change,18,0,2,,,,,,,,,1,11,83,,,
233897,control_change,18,0,3,,,,,,,,,2,11,83,,,
233901,control_change,18,0,4,,,,,,,,,3,11,93,,,
233911,control_change,18,0,1,,,,,,,,,0,11,82,,,
233912,control_change,24,0,13,,,,,,,,,12,11,90,,,
233914,control_change,18,0,2,,,,,,,,,1,11,82,,,
233915,control_change,18,0,3,,,,,,,,,2,11,82,,,
233916,control_change,24,0,14,,,,,,,,,13,11,90,,,
233919,control_change,18,0,4,,,,,,,,,3,11,92,,,
233929,control_change,18,0,1,,,,,,,,,0,11,81,,,
233932,control_change,18,0,2,,,,,,,,,1,11,81,,,
233933,control_change,18,0,3,,,,,,,,,2,11,81,,,
233936,control_change,24,0,13,,,,,,,,,12,11,88,,,
233937,control_change,18,0,4,,,,,,,,,3,11,91,,,
233940,control_change,24,0,14,,,,,,,,,13,11,88,,,
233947,control_change,18,0,1,,,,,,,,,0,11,80,,,
233948,note_on,12,0,13,,,,,,,,,12,,,,62,0
233950,control_change,18,0,2,,,,,,,,,1,11,80,,,
233951,control_change,18,0,3,,,,,,,,,2,11,80,,,
233952,note_on,12,0,14,,,,,,,,,13,,,,57,0
233955,control_change,18,0,4,,,,,,,,,3,11,90,,,
233960,control_change,12,0,13,,,,,,,,,12,11,87,,,
233964,control_change,12,0,14,,,,,,,,,13,11,87,,,
233965,control_change,18,0,1,,,,,,,,,0,11,80,,,
233968,control_change,18,0,2,,,,,,,,,1,11,80,,,
233969,control_change,18,0,3,,,,,,,,,2,11,80,,,
233973,control_change,18,0,4,,,,,,,,,3,11,89,,,
233983,control_change,18,0,1,,,,,,,,,0,11,79,,,
233984,control_change,24,0,13,,,,,,,,,12,11,85,,,
233986,control_change,18,0,2,,,,,,,,,1,11,79,,,
233987,control_change,18,0,3,,,,,,,,,2,11,79,,,
233988,control_change,24,0,14,,,,,,,,,13,11,85,,,
233991,control_change,18,0,4,,,,,,,,,3,11,88,,,
234000,set_tempo,120,1,0,,,,,,285714,,,,,,,,
234000,note_on,120,0,11,,,,,,,,,10,,,,66,93
234001,control_change,18,0,1,,,,,,,,,0,11,78,,,
234003,note_on,0,0,5,,,,,,,,,4,,,,62,100
234003,note_on,120,0,12,,,,,,,,,11,,,,62,93
234003,note_on,120,0,5,,,,,,,,,4,,,,62,0
234004,note_on,0,0,6,,,,,,,,,5,,,,57,100
234004,note_on,120,0,6,,,,,,,,,5,,,,57,0
234004,control_change,18,0,2,,,,,,,,,1,11,78,,,
234005,control_change,18,0,3,,,,,,,,,2,11,78,,,
234007,note_on,0,0,8,,,,,,,,,7,,,,54,0
234007,note_on,120,0,8,,,,,,,,,7,,,,66,0
234007,note_on,0,0,8,,,,,,,,,7,,,,66,110
234007,note_on,0,0,8,,,,,,,,,7,,,,54,110
234008,note_on,0,0,13,,,,,,,,,12,,,,57,112
234008,note_on,24,0,13,,,,,,,,,12,,,,66,112
234008,control_change,0,0,13,,,,,,,,,12,11,83,,,
234009,control_change,18,0,4,,,,,,,,,3,11,87,,,
234012,control_change,24,0,14,,,,,,,,,13,11,83,,,
234012,note_on,0,0,14,,,,,,,,,13,,,,62,112
234060,note_on,60,0,11,,,,,,,,,10,,,,66,0
234063,note_on,60,0,12,,,,,,,,,11,,,,62,0
234120,note_on,60,0,11,,,,,,,,,10,,,,69,93
234120,set_tempo,120,1,0,,,,,,300000,,,,,,,,
234123,note_on,60,0,12,,,,,,,,,11,,,,66,93
234180,note_on,60,0,11,,,,,,,,,10,,,,69,0
234183,note_on,60,0,12,,,,,,,,,11,,,,66,0
234193,note_on,300,0,9,,,,,,,,,8,,,,50,110
234194,note_on,300,0,15,,,,,,,,,14,,,,38,112
234240,note_on,60,0,11,,,,,,,,,10,,,,74,93
234240,set_tempo,120,1,0,,,,,,355030,,,,,,,,
234243,note_on,240,0,5,,,,,,,,,4,,,,62,0
234243,note_on,60,0,12,,,,,,,,,11,,,,69,93
234244,note_on,240,0,6,,,,,,,,,5,,,,57,0
234247,note_on,240,0,8,,,,,,,,,7,,,,54,0
234247,note_on,0,0,8,,,,,,,,,7,,,,66,0
234248,note_on,240,0,13,,,,,,,,,12,,,,57,0
234248,note_on,0,0,13,,,,,,,,,12,,,,66,0
234252,note_on,240,0,14,,,,,,,,,13,,,,62,0
234253,note_on,0,0,9,,,,,,,,,8,,,,54,110
234253,note_on,60,0,9,,,,,,,,,8,,,,50,0
234254,note_on,0,0,15,,,,,,,,,14,,,,42,112
234254,note_on,60,0,15,,,,,,,,,14,,,,38,0
234300,note_on,60,0,11,,,,,,,,,10,,,,74,0
234303,note_on,60,0,12,,,,,,,,,11,,,,69,0
234360,note_on,60,0,11,,,,,,,,,10,,,,73,93
234360,note_on,0,0,11,,,,,,,,,10,,,,64,93
234360,set_tempo,120,1,0,,,,,,285714,,,,,,,,
234361,note_on,360,0,1,,,,,,,,,0,,,,86,0
234361,note_on,0,0,1,,,,,,,,,0,,,,85,101
234363,note_on,0,0,12,,,,,,,,,11,,,,61,93
234363,note_on,60,0,12,,,,,,,,,11,,,,69,93
234364,note_on,0,0,2,,,,,,,,,1,,,,76,100
234364,note_on,0,0,2,,,,,,,,,1,,,,78,0
234364,note_on,360,0,2,,,,,,,,,1,,,,74,0
234364,note_on,0,0,2,,,,,,,,,1,,,,73,100
234365,note_on,360,0,3,,,,,,,,,2,,,,66,0
234365,note_on,0,0,3,,,,,,,,,2,,,,64,101
234369,note_on,0,0,4,,,,,,,,,3,,,,57,100
234369,note_on,0,0,4,,,,,,,,,3,,,,62,0
234369,note_on,0,0,4,,,,,,,,,3,,,,61,100
234369,note_on,360,0,4,,,,,,,,,3,,,,54,0
234373,note_on,120,0,9,,,,,,,,,8,,,,54,0
234373,note_on,0,0,9,,,,,,,,,8,,,,57,110
234374,note_on,0,0,15,,,,,,,,,14,,,,45,112
234374,note_on,120,0,15,,,,,,,,,14,,,,42,0
234480,set_tempo,120,1,0,,,,,,300000,,,,,,,,
234488,note_on,240,0,13,,,,,,,,,12,,,,57,112
234492,note_on,240,0,14,,,,,,,,,13,,,,52,112
234543,note_on,300,0,5,,,,,,,,,4,,,,64,100
234544,note_on,300,0,6,,,,,,,,,5,,,,52,100
234547,note_on,300,0,8,,,,,,,,,7,,,,57,110
234547,note_on,0,0,8,,,,,,,,,7,,,,61,110
234548,note_on,60,0,13,,,,,,,,,12,,,,57,0
234552,note_on,60,0,14,,,,,,,,,13,,,,52,0
234600,note_on,0,0,11,,,,,,,,,10,,,,73,0
234600,note_on,240,0,11,,,,,,,,,10,,,,64,0
234600,set_tempo,120,1,0,,,,,,337079,,,,,,,,
234603,note_on,0,0,12,,,,,,,,,11,,,,69,0
234603,note_on,60,0,5,,,,,,,,,4,,,,64,0
234603,note_on,0,0,5,,,,,,,,,4,,,,64,100
234603,note_on,240,0,12,,,,,,,,,11,,,,61,0
234604,note_on,0,0,6,,,,,,,,,5,,,,52,100
234604,note_on,60,0,6,,,,,,,,,5,,,,52,0
234607,note_on,60,0,8,,,,,,,,,7,,,,61,0
234607,note_on,0,0,8,,,,,,,,,7,,,,57,110
234607,note_on,0,0,8,,,,,,,,,7,,,,61,110
234607,note_on,0,0,8,,,,,,,,,7,,,,57,0
234608,note_on,60,0,13,,,,,,,,,12,,,,61,112
234612,note_on,60,0,14,,,,,,,,,13,,,,57,112
234613,note_on,240,0,9,,,,,,,,,8,,,,57,0
234614,note_on,240,0,15,,,,,,,,,14,,,,45,0
234668,note_on,60,0,13,,,,,,,,,12,,,,61,0
234672,note_on,60,0,14,,,,,,,,,13,,,,57,0
234720,set_tempo,120,1,0,,,,,,285714,,,,,,,,
234720,note_on,120,0,11,,,,,,,,,10,,,,64,93
234723,note_on,0,0,5,,,,,,,,,4,,,,64,100
234723,note_on,120,0,5,,,,,,,,,4,,,,64,0
234723,note_on,120,0,12,,,,,,,,,11,,,,61,93
234724,note_on,0,0,6,,,,,,,,,5,,,,52,100
234724,note_on,120,0,6,,,,,,,,,5,,,,52,0
234727,note_on,0,0,8,,,,,,,,,7,,,,57,110
234727,note_on,120,0,8,,,,,,,,,7,,,,57,0
234727,note_on,0,0,8,,,,,,,,,7,,,,61,110
234727,note_on,0,0,8,,,,,,,,,7,,,,61,0
234728,note_on,60,0,13,,,,,,,,,12,,,,64,112
234732,note_on,60,0,14,,,,,,,,,13,,,,61,112
234780,note_on,60,0,11,,,,,,,,,10,,,,64,0
234783,note_on,60,0,12,,,,,,,,,11,,,,61,0
234840,set_tempo,120,1,0,,,,,,300000,,,,,,,,
234840,note_on,60,0,11,,,,,,,,,10,,,,69,93
234841,note_on,480,0,1,,,,,,,,,0,,,,85,0
234841,note_on,0,0,1,,,,,,,,,0,,,,81,0
234843,note_on,60,0,12,,,,,,,,,11,,,,64,93
234844,note_on,480,0,2,,,,,,,,,1,,,,76,0
234844,note_on,0,0,2,,,,,,,,,1,,,,73,0
234845,note_on,480,0,3,,,,,,,,,2,,,,64,0
234845,note_on,0,0,3,,,,,,,,,2,,,,69,0
234849,note_on,0,0,4,,,,,,,,,3,,,,57,0
234849,note_on,480,0,4,,,,,,,,,3,,,,61,0
234900,note_on,60,0,11,,,,,,,,,10,,,,69,0
234903,note_on,60,0,12,,,,,,,,,11,,,,64,0
234914,note_on,300,0,15,,,,,,,,,14,,,,33,112
234960,set_tempo,120,1,0,,,,,,356083,,,,,,,,
234960,note_on,60,0,11,,,,,,,,,10,,,,73,93
234960,control_change,0,0,11,,,,,,,,,10,11,83,,,
234963,note_on,60,0,12,,,,,,,,,11,,,,69,93
234963,control_change,0,0,12,,,,,,,,,11,11,83,,,
234963,note_on,240,0,5,,,,,,,,,4,,,,64,0
234964,control_change,0,0,2,,,,,,,,,1,11,47,,,
234964,note_on,0,0,2,,,,,,,,,1,,,,69,100
234964,note_on,240,0,6,,,,,,,,,5,,,,52,0
234964,note_on,120,0,2,,,,,,,,,1,,,,73,100
234965,note_on,0,0,3,,,,,,,,,2,,,,69,101
234965,control_change,120,0,3,,,,,,,,,2,11,47,,,
234967,note_on,240,0,8,,,,,,,,,7,,,,61,0
234967,note_on,0,0,8,,,,,,,,,7,,,,57,0
234968,note_on,240,0,13,,,,,,,,,12,,,,64,0
234969,note_on,120,0,4,,,,,,,,,3,,,,64,100
234969,control_change,0,0,4,,,,,,,,,3,11,47,,,
234972,note_on,240,0,14,,,,,,,,,13,,,,61,0
234974,control_change,0,0,15,,,,,,,,,14,11,83,,,
234974,note_on,60,0,15,,,,,,,,,14,,,,33,0
234974,note_on,0,0,15,,,,,,,,,14,,,,33,112
234974,control_change,14,0,11,,,,,,,,,10,11,80,,,
234977,control_change,14,0,12,,,,,,,,,11,11,80,,,
234988,control_change,14,0,11,,,,,,,,,10,11,77,,,
234988,control_change,14,0,15,,,,,,,,,14,11,80,,,
234991,control_change,14,0,12,,,,,,,,,11,11,77,,,
235002,control_change,14,0,11,,,,,,,,,10,11,74,,,
235002,control_change,14,0,15,,,,,,,,,14,11,77,,,
235005,control_change,14,0,12,,,,,,,,,11,11,74,,,
235016,control_change,14,0,15,,,,,,,,,14,11,74,,,
235017,control_change,15,0,11,,,,,,,,,10,11,72,,,
235020,control_change,15,0,12,,,,,,,,,11,11,72,,,
235020,note_on,3,0,11,,,,,,,,,10,,,,73,0
235023,note_on,3,0,12,,,,,,,,,11,,,,69,0
235031,control_change,11,0,11,,,,,,,,,10,11,69,,,
235031,control_change,15,0,15,,,,,,,,,14,11,72,,,
235034,control_change,11,0,12,,,,,,,,,11,11,69,,,
235045,control_change,14,0,15,,,,,,,,,14,11,69,,,
235045,control_change,14,0,11,,,,,,,,,10,11,66,,,
235048,control_change,14,0,12,,,,,,,,,11,11,66,,,
235059,control_change,14,0,11,,,,,,,,,10,11,63,,,
235059,control_change,14,0,15,,,,,,,,,14,11,66,,,
235062,control_change,14,0,12,,,,,,,,,11,11,63,,,
235073,control_change,14,0,15,,,,,,,,,14,11,63,,,
235074,control_change,15,0,11,,,,,,,,,10,11,60,,,
235077,control_change,15,0,12,,,,,,,,,11,11,60,,,
235080,control_change,0,0,11,,,,,,,,,10,11,41,,,
235080,note_on,6,0,11,,,,,,,,,10,,,,72,93
235080,set_tempo,120,1,0,,,,,,294118,,,,,,,,
235083,note_on,0,0,12,,,,,,,,,11,,,,69,93
235083,control_change,6,0,12,,,,,,,,,11,11,41,,,
235083,note_on,0,0,12,,,,,,,,,11,,,,63,93
235084,note_on,120,0,2,,,,,,,,,1,,,,69,0
235084,note_on,0,0,2,,,,,,,,,1,,,,73,0
235084,note_on,0,0,2,,,,,,,,,1,,,,69,100
235084,note_on,0,0,2,,,,,,,,,1,,,,72,100
235085,note_on,0,0,3,,,,,,,,,2,,,,72,101
235085,note_on,120,0,3,,,,,,,,,2,,,,69,0
235085,note_on,0,0,3,,,,,,,,,2,,,,69,101
235088,control_change,15,0,15,,,,,,,,,14,11,60,,,
235089,note_on,120,0,4,,,,,,,,,3,,,,64,0
235089,note_on,0,0,4,,,,,,,,,3,,,,63,100
235094,note_on,6,0,15,,,,,,,,,14,,,,33,0
235094,control_change,0,0,15,,,,,,,,,14,11,41,,,
235094,note_on,0,0,15,,,,,,,,,14,,,,41,112
235200,set_tempo,120,1,0,,,,,,307692,,,,,,,,
235208,note_on,0,0,13,,,,,,,,,12,,,,57,112
235208,control_change,240,0,13,,,,,,,,,12,11,41,,,
235212,control_change,240,0,14,,,,,,,,,13,11,41,,,
235212,note_on,0,0,14,,,,,,,,,13,,,,53,112
235263,note_on,300,0,5,,,,,,,,,4,,,,65,100
235263,control_change,0,0,5,,,,,,,,,4,11,47,,,
235264,note_on,300,0,6,,,,,,,,,5,,,,60,100
235264,control_change,0,0,6,,,,,,,,,5,11,47,,,
235267,note_on,300,0,8,,,,,,,,,7,,,,57,110
235267,control_change,0,0,8,,,,,,,,,7,11,47,,,
235267,note_on,0,0,8,,,,,,,,,7,,,,53,110
235268,note_on,60,0,13,,,,,,,,,12,,,,57,0
235272,note_on,60,0,14,,,,,,,,,13,,,,53,0
235320,set_tempo,120,1,0,,,,,,340909,,,,,,,,
235320,note_on,240,0,11,,,,,,,,,10,,,,72,0
235323,note_on,240,0,12,,,,,,,,,11,,,,63,0
235323,note_on,60,0,5,,,,,,,,,4,,,,65,0
235323,note_on,0,0,5,,,,,,,,,4,,,,65,100
235323,note_on,0,0,12,,,,,,,,,11,,,,69,0
235324,note_on,0,0,6,,,,,,,,,5,,,,60,100
235324,note_on,60,0,6,,,,,,,,,5,,,,60,0
235327,note_on,0,0,8,,,,,,,,,7,,,,57,110
235327,note_on,0,0,8,,,,,,,,,7,,,,57,0
235327,note_on,60,0,8,,,,,,,,,7,,,,53,0
235327,note_on,0,0,8,,,,,,,,,7,,,,53,110
235328,note_on,60,0,13,,,,,,,,,12,,,,60,112
235332,note_on,60,0,14,,,,,,,,,13,,,,57,112
235334,note_on,240,0,15,,,,,,,,,14,,,,41,0
235388,note_on,60,0,13,,,,,,,,,12,,,,60,0
235392,note_on,60,0,14,,,,,,,,,13,,,,57,0
235440,note_on,120,0,11,,,,,,,,,10,,,,65,93
235440,set_tempo,120,1,0,,,,,,294118,,,,,,,,
235443,note_on,120,0,12,,,,,,,,,11,,,,63,93
235443,note_on,0,0,5,,,,,,,,,4,,,,65,100
235443,note_on,120,0,5,,,,,,,,,4,,,,65,0
235444,note_on,120,0,6,,,,,,,,,5,,,,60,0
235444,note_on,0,0,6,,,,,,,,,5,,,,60,100
235447,note_on,0,0,8,,,,,,,,,7,,,,53,110
235447,note_on,120,0,8,,,,,,,,,7,,,,53,0
235447,note_on,0,0,8,,,,,,,,,7,,,,57,110
235447,note_on,0,0,8,,,,,,,,,7,,,,57,0
235448,note_on,60,0,13,,,,,,,,,12,,,,65,112
235452,note_on,60,0,14,,,,,,,,,13,,,,60,112
235500,note_on,60,0,11,,,,,,,,,10,,,,65,0
235503,note_on,60,0,12,,,,,,,,,11,,,,63,0
235560,set_tempo,120,1,0,,,,,,307692,,,,,,,,
235560,note_on,60,0,11,,,,,,,,,10,,,,69,93
235563,note_on,60,0,12,,,,,,,,,11,,,,65,93
235620,note_on,60,0,11,,,,,,,,,10,,,,69,0
235623,note_on,60,0,12,,,,,,,,,11,,,,65,0
235634,note_on,300,0,15,,,,,,,,,14,,,,41,112
235680,note_on,60,0,11,,,,,,,,,10,,,,74,93
235680,set_tempo,120,1,0,,,,,,340909,,,,,,,,
235683,note_on,60,0,12,,,,,,,,,11,,,,69,93
235683,note_on,240,0,5,,,,,,,,,4,,,,65,0
235684,note_on,600,0,2,,,,,,,,,1,,,,72,0
235684,note_on,240,0,6,,,,,,,,,5,,,,60,0
235684,note_on,0,0,2,,,,,,,,,1,,,,74,100
235685,note_on,600,0,3,,,,,,,,,2,,,,72,0
235685,note_on,0,0,3,,,,,,,,,2,,,,74,101
235687,note_on,0,0,8,,,,,,,,,7,,,,57,0
235687,note_on,240,0,8,,,,,,,,,7,,,,53,0
235688,note_on,240,0,13,,,,,,,,,12,,,,65,0
235689,note_on,600,0,4,,,,,,,,,3,,,,65,100
235692,note_on,240,0,14,,,,,,,,,13,,,,60,0
235694,note_on,60,0,15,,,,,,,,,14,,,,41,0
235694,note_on,0,0,15,,,,,,,,,14,,,,41,112
235740,note_on,60,0,11,,,,,,,,,10,,,,74,0
235743,note_on,60,0,12,,,,,,,,,11,,,,69,0
235800,note_on,60,0,11,,,,,,,,,10,,,,70,93
235800,note_on,0,0,11,,,,,,,,,10,,,,62,93
235800,set_tempo,120,1,0,,,,,,294118,,,,,,,,
235803,note_on,60,0,12,,,,,,,,,11,,,,65,93
235804,note_on,0,0,2,,,,,,,,,1,,,,70,100
235804,note_on,0,0,2,,,,,,,,,1,,,,69,0
235804,note_on,120,0,2,,,,,,,,,1,,,,74,0
235805,note_on,120,0,3,,,,,,,,,2,,,,74,0
235805,note_on,0,0,3,,,,,,,,,2,,,,70,101
235805,note_on,0,0,3,,,,,,,,,2,,,,69,0
235809,note_on,0,0,4,,,,,,,,,3,,,,63,0
235809,note_on,120,0,4,,,,,,,,,3,,,,65,0
235809,note_on,0,0,4,,,,,,,,,3,,,,62,100
235814,note_on,0,0,15,,,,,,,,,14,,,,41,112
235814,note_on,120,0,15,,,,,,,,,14,,,,41,0
235920,set_tempo,120,1,0,,,,,,307692,,,,,,,,
235928,note_on,240,0,13,,,,,,,,,12,,,,58,112
235932,note_on,240,0,14,,,,,,,,,13,,,,53,112
235983,note_on,300,0,5,,,,,,,,,4,,,,65,100
235984,note_on,300,0,6,,,,,,,,,5,,,,62,100
235987,note_on,300,0,8,,,,,,,,,7,,,,53,110
235987,note_on,0,0,8,,,,,,,,,7,,,,58,110
235988,note_on,60,0,13,,,,,,,,,12,,,,58,0
235992,note_on,60,0,14,,,,,,,,,13,,,,53,0
236040,note_on,0,0,11,,,,,,,,,10,,,,70,0
236040,note_on,240,0,11,,,,,,,,,10,,,,62,0
236040,set_tempo,120,1,0,,,,,,340909,,,,,,,,
236043,note_on,60,0,5,,,,,,,,,4,,,,65,0
236043,note_on,240,0,12,,,,,,,,,11,,,,65,0
236043,note_on,0,0,5,,,,,,,,,4,,,,65,100
236044,note_on,60,0,6,,,,,,,,,5,,,,62,0
236044,note_on,0,0,6,,,,,,,,,5,,,,62,100
236047,note_on,60,0,8,,,,,,,,,7,,,,58,0
236047,note_on,0,0,8,,,,,,,,,7,,,,53,0
236047,note_on,0,0,8,,,,,,,,,7,,,,53,110
236047,note_on,0,0,8,,,,,,,,,7,,,,58,110
236048,note_on,60,0,13,,,,,,,,,12,,,,62,112
236052,note_on,60,0,14,,,,,,,,,13,,,,58,112
236054,note_on,240,0,15,,,,,,,,,14,,,,41,0
236108,note_on,60,0,13,,,,,,,,,12,,,,62,0
236112,note_on,60,0,14,,,,,,,,,13,,,,58,0
236160,control_change,120,0,11,,,,,,,,,10,11,41,,,
236160,set_tempo,120,1,0,,,,,,294118,,,,,,,,
236160,note_on,0,0,11,,,,,,,,,10,,,,65,93
236161,control_change,1320,0,1,,,,,,,,,0,11,47,,,
236163,control_change,0,0,12,,,,,,,,,11,11,41,,,
236163,note_on,120,0,5,,,,,,,,,4,,,,65,0
236163,note_on,0,0,5,,,,,,,,,4,,,,65,100
236163,note_on,120,0,12,,,,,,,,,11,,,,62,93
236164,control_change,360,0,2,,,,,,,,,1,11,47,,,
236164,note_on,0,0,6,,,,,,,,,5,,,,62,100
236164,note_on,120,0,6,,,,,,,,,5,,,,62,0
236165,control_change,360,0,3,,,,,,,,,2,11,47,,,
236167,note_on,0,0,8,,,,,,,,,7,,,,58,110
236167,note_on,0,0,8,,,,,,,,,7,,,,53,0
236167,note_on,120,0,8,,,,,,,,,7,,,,58,0
236167,note_on,0,0,8,,,,,,,,,7,,,,53,110
236168,note_on,60,0,13,,,,,,,,,12,,,,65,112
236168,control_change,0,0,13,,,,,,,,,12,11,41,,,
236169,control_change,360,0,4,,,,,,,,,3,11,47,,,
236172,control_change,60,0,14,,,,,,,,,13,11,41,,,
236172,note_on,0,0,14,,,,,,,,,13,,,,62,112
236179,control_change,18,0,1,,,,,,,,,0,11,48,,,
236182,control_change,18,0,2,,,,,,,,,1,11,48,,,
236183,control_change,18,0,3,,,,,,,,,2,11,48,,,
236186,control_change,18,0,13,,,,,,,,,12,11,42,,,
236187,control_change,18,0,4,,,,,,,,,3,11,48,,,
236190,control_change,18,0,14,,,,,,,,,13,11,42,,,
236196,control_change,36,0,11,,,,,,,,,10,11,42,,,
236197,control_change,18,0,1,,,,,,,,,0,11,49,,,
236199,control_change,36,0,12,,,,,,,,,11,11,42,,,
236200,control_change,18,0,2,,,,,,,,,1,11,49,,,
236201,control_change,18,0,3,,,,,,,,,2,11,49,,,
236204,control_change,18,0,13,,,,,,,,,12,11,42,,,
236205,control_change,18,0,4,,,,,,,,,3,11,49,,,
236208,control_change,18,0,14,,,,,,,,,13,11,42,,,
236215,control_change,18,0,1,,,,,,,,,0,11,50,,,
236218,control_change,18,0,2,,,,,,,,,1,11,50,,,
236219,control_change,18,0,3,,,,,,,,,2,11,50,,,
236220,note_on,24,0,11,,,,,,,,,10,,,,65,0
236222,control_change,18,0,13,,,,,,,,,12,11,43,,,
236223,note_on,24,0,12,,,,,,,,,11,,,,62,0
236223,control_change,18,0,4,,,,,,,,,3,11,50,,,
236226,control_change,18,0,14,,,,,,,,,13,11,43,,,
236232,control_change,12,0,11,,,,,,,,,10,11,42,,,
236233,control_change,18,0,1,,,,,,,,,0,11,51,,,
236235,control_change,12,0,12,,,,,,,,,11,11,42,,,
236236,control_change,18,0,2,,,,,,,,,1,11,51,,,
236237,control_change,18,0,3,,,,,,,,,2,11,51,,,
236240,control_change,18,0,13,,,,,,,,,12,11,44,,,
236241,control_change,18,0,4,,,,,,,,,3,11,51,,,
236244,control_change,18,0,14,,,,,,,,,13,11,44,,,
236251,control_change,18,0,1,,,,,,,,,0,11,52,,,
236254,control_change,18,0,2,,,,,,,,,1,11,52,,,
236255,control_change,18,0,3,,,,,,,,,2,11,52,,,
236258,control_change,18,0,13,,,,,,,,,12,11,45,,,
236259,control_change,18,0,4,,,,,,,,,3,11,52,,,
236262,control_change,18,0,14,,,,,,,,,13,11,45,,,
236268,control_change,36,0,11,,,,,,,,,10,11,43,,,
236269,control_change,18,0,1,,,,,,,,,0,11,52,,,
236271,control_change,36,0,12,,,,,,,,,11,11,43,,,
236272,control_change,18,0,2,,,,,,,,,1,11,52,,,
236273,control_change,18,0,3,,,,,,,,,2,11,52,,,
236276,control_change,18,0,13,,,,,,,,,12,11,46,,,
236277,control_change,18,0,4,,,,,,,,,3,11,53,,,
236280,set_tempo,120,1,0,,,,,,307692,,,,,,,,
236280,note_on,12,0,11,,,,,,,,,10,,,,70,93
236280,control_change,18,0,14,,,,,,,,,13,11,46,,,
236283,note_on,12,0,12,,,,,,,,,11,,,,65,93
236284,note_on,12,0,2,,,,,,,,,1,,,,74,100
236287,control_change,18,0,1,,,,,,,,,0,11,53,,,
236290,control_change,6,0,2,,,,,,,,,1,11,53,,,
236291,control_change,18,0,3,,,,,,,,,2,11,53,,,
236294,control_change,18,0,13,,,,,,,,,12,11,47,,,
236295,control_change,18,0,4,,,,,,,,,3,11,54,,,
236298,control_change,18,0,14,,,,,,,,,13,11,47,,,
236304,control_change,24,0,11,,,,,,,,,10,11,44,,,
236305,control_change,18,0,1,,,,,,,,,0,11,54,,,
236307,control_change,24,0,12,,,,,,,,,11,11,44,,,
236308,control_change,18,0,2,,,,,,,,,1,11,54,,,
236309,control_change,18,0,3,,,,,,,,,2,11,54,,,
236312,control_change,18,0,13,,,,,,,,,12,11,48,,,
236313,control_change,18,0,4,,,,,,,,,3,11,55,,,
236316,control_change,18,0,14,,,,,,,,,13,11,48,,,
236323,control_change,18,0,1,,,,,,,,,0,11,55,,,
236326,control_change,18,0,2,,,,,,,,,1,11,55,,,
236327,control_change,18,0,3,,,,,,,,,2,11,55,,,
236330,control_change,18,0,13,,,,,,,,,12,11,49,,,
236331,control_change,18,0,4,,,,,,,,,3,11,56,,,
236334,control_change,18,0,14,,,,,,,,,13,11,49,,,
236340,note_on,36,0,11,,,,,,,,,10,,,,70,0
236340,control_change,0,0,11,,,,,,,,,10,11,45,,,
236341,control_change,18,0,1,,,,,,,,,0,11,55,,,
236343,note_on,36,0,12,,,,,,,,,11,,,,65,0
236343,control_change,0,0,12,,,,,,,,,11,11,45,,,
236344,control_change,18,0,2,,,,,,,,,1,11,55,,,
236345,control_change,18,0,3,,,,,,,,,2,11,55,,,
236348,control_change,18,0,13,,,,,,,,,12,11,50,,,
236349,control_change,18,0,4,,,,,,,,,3,11,57,,,
236352,control_change,18,0,14,,,,,,,,,13,11,50,,,
236354,note_on,300,0,15,,,,,,,,,14,,,,41,112
236359,control_change,18,0,1,,,,,,,,,0,11,56,,,
236362,control_change,18,0,2,,,,,,,,,1,11,56,,,
236363,control_change,18,0,3,,,,,,,,,2,11,56,,,
236366,control_change,18,0,13,,,,,,,,,12,11,51,,,
236367,control_change,18,0,4,,,,,,,,,3,11,58,,,
236370,control_change,18,0,14,,,,,,,,,13,11,51,,,
236376,control_change,36,0,11,,,,,,,,,10,11,46,,,
236377,control_change,18,0,1,,,,,,,,,0,11,57,,,
236379,control_change,36,0,12,,,,,,,,,11,11,46,,,
236380,control_change,18,0,2,,,,,,,,,1,11,57,,,
236381,control_change,18,0,3,,,,,,,,,2,11,57,,,
236384,control_change,18,0,13,,,,,,,,,12,11,52,,,
236385,control_change,18,0,4,,,,,,,,,3,11,59,,,
236388,control_change,18,0,14,,,,,,,,,13,11,52,,,
236395,control_change,18,0,1,,,,,,,,,0,11,58,,,
236398,control_change,18,0,2,,,,,,,,,1,11,58,,,
236399,control_change,18,0,3,,,,,,,,,2,11,58,,,
236400,set_tempo,120,1,0,,,,,,340909,,,,,,,,
236400,note_on,24,0,11,,,,,,,,,10,,,,74,93
236402,control_change,18,0,13,,,,,,,,,12,11,53,,,
236403,note_on,24,0,12,,,,,,,,,11,,,,70,93
236403,note_on,240,0,5,,,,,,,,,4,,,,65,0
236403,control_change,18,0,4,,,,,,,,,3,11,60,,,
236404,note_on,0,0,2,,,,,,,,,1,,,,70,100
236404,note_on,0,0,2,,,,,,,,,1,,,,77,100
236404,note_on,6,0,2,,,,,,,,,1,,,,74,0
236404,note_on,240,0,6,,,,,,,,,5,,,,62,0
236404,note_on,0,0,2,,,,,,,,,1,,,,70,0
236405,note_on,0,0,3,,,,,,,,,2,,,,70,101
236405,note_on,0,0,3,,,,,,,,,2,,,,74,101
236405,note_on,6,0,3,,,,,,,,,2,,,,70,0
236406,control_change,18,0,14,,,,,,,,,13,11,53,,,
236407,note_on,0,0,8,,,,,,,,,7,,,,58,0
236407,note_on,240,0,8,,,,,,,,,7,,,,53,0
236408,note_on,6,0,13,,,,,,,,,12,,,,65,0
236409,note_on,6,0,4,,,,,,,,,3,,,,65,100
236412,control_change,12,0,11,,,,,,,,,10,11,47,,,
236412,note_on,6,0,14,,,,,,,,,13,,,,62,0
236413,control_change,18,0,1,,,,,,,,,0,11,58,,,
236414,note_on,60,0,15,,,,,,,,,14,,,,41,0
236414,note_on,0,0,15,,,,,,,,,14,,,,41,112
236415,control_change,12,0,12,,,,,,,,,11,11,47,,,
236416,control_change,12,0,2,,,,,,,,,1,11,58,,,
236417,control_change,12,0,3,,,,,,,,,2,11,58,,,
236420,control_change,12,0,13,,,,,,,,,12,11,54,,,
236421,control_change,12,0,4,,,,,,,,,3,11,61,,,
236424,control_change,12,0,14,,,,,,,,,13,11,54,,,
236431,control_change,18,0,1,,,,,,,,,0,11,59,,,
236434,control_change,18,0,2,,,,,,,,,1,11,59,,,
236435,control_change,18,0,3,,,,,,,,,2,11,59,,,
236438,control_change,18,0,13,,,,,,,,,12,11,55,,,
236439,control_change,18,0,4,,,,,,,,,3,11,62,,,
236442,control_change,18,0,14,,,,,,,,,13,11,55,,,
236448,control_change,36,0,11,,,,,,,,,10,11,48,,,
236449,control_change,18,0,1,,,,,,,,,0,11,60,,,
236451,control_change,36,0,12,,,,,,,,,11,11,48,,,
236452,control_change,18,0,2,,,,,,,,,1,11,60,,,
236453,control_change,18,0,3,,,,,,,,,2,11,60,,,
236456,control_change,18,0,13,,,,,,,,,12,11,56,,,
236457,control_change,18,0,4,,,,,,,,,3,11,63,,,
236460,note_on,12,0,11,,,,,,,,,10,,,,74,0
236460,control_change,18,0,14,,,,,,,,,13,11,56,,,
236463,note_on,12,0,12,,,,,,,,,11,,,,70,0
236467,control_change,18,0,1,,,,,,,,,0,11,61,,,
236470,control_change,18,0,2,,,,,,,,,1,11,61,,,
236471,control_change,18,0,3,,,,,,,,,2,11,61,,,
236474,control_change,18,0,13,,,,,,,,,12,11,57,,,
236475,control_change,18,0,4,,,,,,,,,3,11,64,,,
236478,control_change,18,0,14,,,,,,,,,13,11,57,,,
236484,control_change,24,0,11,,,,,,,,,10,11,49,,,
236485,control_change,18,0,1,,,,,,,,,0,11,61,,,
236487,control_change,24,0,12,,,,,,,,,11,11,49,,,
236488,control_change,18,0,2,,,,,,,,,1,11,61,,,
236489,control_change,18,0,3,,,,,,,,,2,11,61,,,
236492,control_change,18,0,13,,,,,,,,,12,11,57,,,
236493,control_change,18,0,4,,,,,,,,,3,11,65,,,
236496,control_change,18,0,14,,,,,,,,,13,11,57,,,
236503,control_change,18,0,1,,,,,,,,,0,11,62,,,
236506,control_change,18,0,2,,,,,,,,,1,11,62,,,
236507,control_change,18,0,3,,,,,,,,,2,11,62,,,
236510,control_change,18,0,13,,,,,,,,,12,11,58,,,
236511,control_change,18,0,4,,,,,,,,,3,11,66,,,
236514,control_change,18,0,14,,,,,,,,,13,11,58,,,
236520,note_on,0,0,11,,,,,,,,,10,,,,69,104
236520,set_tempo,120,1,0,,,,,,294118,,,,,,,,
236520,control_change,0,0,11,,,,,,,,,10,11,50,,,
236520,note_on,36,0,11,,,,,,,,,10,,,,77,104
236521,note_on,0,0,1,,,,,,,,,0,,,,74,101
236521,control_change,0,0,1,,,,,,,,,0,11,63,,,
236521,note_on,18,0,1,,,,,,,,,0,,,,77,101
236523,control_change,0,0,12,,,,,,,,,11,11,50,,,
236523,note_on,0,0,12,,,,,,,,,11,,,,74,104
236523,note_on,36,0,12,,,,,,,,,11,,,,65,104
236524,note_on,0,0,2,,,,,,,,,1,,,,77,0
236524,note_on,0,0,2,,,,,,,,,1,,,,77,100
236524,control_change,0,0,2,,,,,,,,,1,11,63,,,
236524,note_on,0,0,2,,,,,,,,,1,,,,69,100
236524,note_on,18,0,2,,,,,,,,,1,,,,70,0
236525,note_on,0,0,3,,,,,,,,,2,,,,74,101
236525,note_on,0,0,3,,,,,,,,,2,,,,74,0
236525,note_on,18,0,3,,,,,,,,,2,,,,70,0
236525,note_on,0,0,3,,,,,,,,,2,,,,69,101
236525,control_change,0,0,3,,,,,,,,,2,11,63,,,
236528,control_change,18,0,13,,,,,,,,,12,11,59,,,
236529,note_on,0,0,4,,,,,,,,,3,,,,62,0
236529,note_on,0,0,4,,,,,,,,,3,,,,65,100
236529,note_on,0,0,4,,,,,,,,,3,,,,62,100
236529,control_change,0,0,4,,,,,,,,,3,11,67,,,
236529,note_on,18,0,4,,,,,,,,,3,,,,65,0
236532,control_change,18,0,14,,,,,,,,,13,11,59,,,
236534,note_on,120,0,15,,,,,,,,,14,,,,41,0
236534,note_on,0,0,15,,,,,,,,,14,,,,41,112
236539,control_change,18,0,1,,,,,,,,,0,11,62,,,
236542,control_change,18,0,2,,,,,,,,,1,11,62,,,
236543,control_change,18,0,3,,,,,,,,,2,11,62,,,
236547,control_change,18,0,4,,,,,,,,,3,11,66,,,
236557,control_change,18,0,1,,,,,,,,,0,11,61,,,
236560,control_change,18,0,2,,,,,,,,,1,11,61,,,
236561,control_change,18,0,3,,,,,,,,,2,11,61,,,
236565,control_change,18,0,4,,,,,,,,,3,11,65,,,
236575,control_change,18,0,1,,,,,,,,,0,11,61,,,
236578,control_change,18,0,2,,,,,,,,,1,11,61,,,
236579,control_change,18,0,3,,,,,,,,,2,11,61,,,
236583,control_change,18,0,4,,,,,,,,,3,11,64,,,
236593,control_change,18,0,1,,,,,,,,,0,11,60,,,
236596,control_change,18,0,2,,,,,,,,,1,11,60,,,
236597,control_change,18,0,3,,,,,,,,,2,11,60,,,
236601,control_change,18,0,4,,,,,,,,,3,11,63,,,
236611,control_change,18,0,1,,,,,,,,,0,11,59,,,
236614,control_change,18,0,2,,,,,,,,,1,11,59,,,
236615,control_change,18,0,3,,,,,,,,,2,11,59,,,
236619,control_change,18,0,4,,,,,,,,,3,11,62,,,
236629,control_change,18,0,1,,,,,,,,,0,11,58,,,
236632,control_change,18,0,2,,,,,,,,,1,11,58,,,
236633,control_change,18,0,3,,,,,,,,,2,11,58,,,
236637,control_change,18,0,4,,,,,,,,,3,11,61,,,
236640,control_change,120,0,11,,,,,,,,,10,11,50,,,
236640,set_tempo,120,1,0,,,,,,307692,,,,,,,,
236643,control_change,120,0,12,,,,,,,,,11,11,50,,,
236647,control_change,18,0,1,,,,,,,,,0,11,58,,,
236648,control_change,0,0,13,,,,,,,,,12,11,59,,,
236648,note_on,120,0,13,,,,,,,,,12,,,,57,112
236650,control_change,18,0,2,,,,,,,,,1,11,58,,,
236651,control_change,18,0,3,,,,,,,,,2,11,58,,,
236652,control_change,120,0,14,,,,,,,,,13,11,59,,,
236652,note_on,0,0,14,,,,,,,,,13,,,,53,112
236655,control_change,18,0,4,,,,,,,,,3,11,60,,,
236663,control_change,23,0,11,,,,,,,,,10,11,48,,,
236665,control_change,18,0,1,,,,,,,,,0,11,57,,,
236666,control_change,23,0,12,,,,,,,,,11,11,48,,,
236668,control_change,18,0,2,,,,,,,,,1,11,57,,,
236669,control_change,18,0,3,,,,,,,,,2,11,57,,,
236672,control_change,24,0,13,,,,,,,,,12,11,57,,,
236673,control_change,18,0,4,,,,,,,,,3,11,59,,,
236676,control_change,24,0,14,,,,,,,,,13,11,57,,,
236683,control_change,18,0,1,,,,,,,,,0,11,56,,,
236686,control_change,18,0,2,,,,,,,,,1,11,56,,,
236687,control_change,24,0,11,,,,,,,,,10,11,46,,,
236687,control_change,18,0,3,,,,,,,,,2,11,56,,,
236690,control_change,24,0,12,,,,,,,,,11,11,46,,,
236691,control_change,18,0,4,,,,,,,,,3,11,58,,,
236696,control_change,24,0,13,,,,,,,,,12,11,56,,,
236700,control_change,24,0,14,,,,,,,,,13,11,56,,,
236701,control_change,18,0,1,,,,,,,,,0,11,55,,,
236703,note_on,300,0,5,,,,,,,,,4,,,,65,100
236704,control_change,18,0,2,,,,,,,,,1,11,55,,,
236704,note_on,300,0,6,,,,,,,,,5,,,,62,100
236705,control_change,18,0,3,,,,,,,,,2,11,55,,,
236707,note_on,0,0,8,,,,,,,,,7,,,,57,110
236707,note_on,300,0,8,,,,,,,,,7,,,,53,110
236708,note_on,12,0,13,,,,,,,,,12,,,,57,0
236709,control_change,18,0,4,,,,,,,,,3,11,57,,,
236711,control_change,24,0,11,,,,,,,,,10,11,44,,,
236712,note_on,12,0,14,,,,,,,,,13,,,,53,0
236714,control_change,24,0,12,,,,,,,,,11,11,44,,,
236719,control_change,18,0,1,,,,,,,,,0,11,55,,,
236720,control_change,12,0,13,,,,,,,,,12,11,54,,,
236722,control_change,18,0,2,,,,,,,,,1,11,55,,,
236723,control_change,18,0,3,,,,,,,,,2,11,55,,,
236724,control_change,12,0,14,,,,,,,,,13,11,54,,,
236727,control_change,18,0,4,,,,,,,,,3,11,56,,,
236735,control_change,24,0,11,,,,,,,,,10,11,42,,,
236737,control_change,18,0,1,,,,,,,,,0,11,54,,,
236738,control_change,24,0,12,,,,,,,,,11,11,42,,,
236740,control_change,18,0,2,,,,,,,,,1,11,54,,,
236741,control_change,18,0,3,,,,,,,,,2,11,54,,,
236744,control_change,24,0,13,,,,,,,,,12,11,52,,,
236745,control_change,18,0,4,,,,,,,,,3,11,55,,,
236748,control_change,24,0,14,,,,,,,,,13,11,52,,,
236755,control_change,18,0,1,,,,,,,,,0,11,53,,,
236758,control_change,18,0,2,,,,,,,,,1,11,53,,,
236759,control_change,24,0,11,,,,,,,,,10,11,41,,,
236759,control_change,18,0,3,,,,,,,,,2,11,53,,,
236760,note_on,0,0,11,,,,,,,,,10,,,,77,0
236760,set_tempo,120,1,0,,,,,,340909,,,,,,,,
236760,note_on,1,0,11,,,,,,,,,10,,,,69,0
236762,control_change,24,0,12,,,,,,,,,11,11,41,,,
236763,note_on,0,0,5,,,,,,,,,4,,,,65,100
236763,note_on,1,0,12,,,,,,,,,11,,,,74,0
236763,control_change,18,0,4,,,,,,,,,3,11,54,,,
236763,note_on,0,0,12,,,,,,,,,11,,,,65,0
236763,note_on,60,0,5,,,,,,,,,4,,,,65,0
236764,note_on,0,0,6,,,,,,,,,5,,,,62,100
236764,note_on,60,0,6,,,,,,,,,5,,,,62,0
236767,note_on,60,0,8,,,,,,,,,7,,,,57,0
236767,note_on,0,0,8,,,,,,,,,7,,,,53,110
236767,note_on,0,0,8,,,,,,,,,7,,,,57,110
236767,note_on,0,0,8,,,,,,,,,7,,,,53,0
236768,note_on,0,0,13,,,,,,,,,12,,,,62,112
236768,control_change,24,0,13,,,,,,,,,12,11,50,,,
236772,note_on,24,0,14,,,,,,,,,13,,,,57,112
236772,control_change,0,0,14,,,,,,,,,13,11,50,,,
236773,control_change,18,0,1,,,,,,,,,0,11,52,,,
236774,note_on,240,0,15,,,,,,,,,14,,,,41,0
236776,control_change,18,0,2,,,,,,,,,1,11,52,,,
236777,control_change,18,0,3,,,,,,,,,2,11,52,,,
236781,control_change,18,0,4,,,,,,,,,3,11,53,,,
236791,control_change,18,0,1,,,,,,,,,0,11,52,,,
236792,control_change,24,0,13,,,,,,,,,12,11,48,,,
236794,control_change,18,0,2,,,,,,,,,1,11,52,,,
236795,control_change,18,0,3,,,,,,,,,2,11,52,,,
236796,control_change,24,0,14,,,,,,,,,13,11,48,,,
236799,control_change,18,0,4,,,,,,,,,3,11,52,,,
236809,control_change,18,0,1,,,,,,,,,0,11,51,,,
236812,control_change,18,0,2,,,,,,,,,1,11,51,,,
236813,control_change,18,0,3,,,,,,,,,2,11,51,,,
236816,control_change,24,0,13,,,,,,,,,12,11,46,,,
236817,control_change,18,0,4,,,,,,,,,3,11,51,,,
236820,control_change,24,0,14,,,,,,,,,13,11,46,,,
236827,control_change,18,0,1,,,,,,,,,0,11,50,,,
236828,note_on,12,0,13,,,,,,,,,12,,,,62,0
236830,control_change,18,0,2,,,,,,,,,1,11,50,,,
236831,control_change,18,0,3,,,,,,,,,2,11,50,,,
236832,note_on,12,0,14,,,,,,,,,13,,,,57,0
236835,control_change,18,0,4,,,,,,,,,3,11,50,,,
236840,control_change,12,0,13,,,,,,,,,12,11,44,,,
236844,control_change,12,0,14,,,,,,,,,13,11,44,,,
236845,control_change,18,0,1,,,,,,,,,0,11,49,,,
236848,control_change,18,0,2,,,,,,,,,1,11,49,,,
236849,control_change,18,0,3,,,,,,,,,2,11,49,,,
236853,control_change,18,0,4,,,,,,,,,3,11,49,,,
236863,control_change,18,0,1,,,,,,,,,0,11,48,,,
236864,control_change,24,0,13,,,,,,,,,12,11,42,,,
236866,control_change,18,0,2,,,,,,,,,1,11,48,,,
236867,control_change,18,0,3,,,,,,,,,2,11,48,,,
236868,control_change,24,0,14,,,,,,,,,13,11,42,,,
236871,control_change,18,0,4,,,,,,,,,3,11,48,,,
236880,note_on,0,0,11,,,,,,,,,10,,,,65,93
236880,control_change,120,0,11,,,,,,,,,10,11,41,,,
236880,set_tempo,120,1,0,,,,,,294118,,,,,,,,
236881,control_change,18,0,1,,,,,,,,,0,11,47,,,
236883,note_on,0,0,12,,,,,,,,,11,,,,62,93
236883,note_on,120,0,5,,,,,,,,,4,,,,65,0
236883,control_change,120,0,12,,,,,,,,,11,11,41,,,
236883,note_on,0,0,5,,,,,,,,,4,,,,65,100
236884,note_on,120,0,6,,,,,,,,,5,,,,62,0
236884,control_change,18,0,2,,,,,,,,,1,11,47,,,
236884,note_on,0,0,6,,,,,,,,,5,,,,62,100
236885,control_change,18,0,3,,,,,,,,,2,11,47,,,
236887,note_on,0,0,8,,,,,,,,,7,,,,57,0
236887,note_on,0,0,8,,,,,,,,,7,,,,53,110
236887,note_on,0,0,8,,,,,,,,,7,,,,57,110
236887,note_on,120,0,8,,,,,,,,,7,,,,53,0
236888,control_change,0,0,13,,,,,,,,,12,11,41,,,
236888,note_on,24,0,13,,,,,,,,,12,,,,65,112
236889,control_change,18,0,4,,,,,,,,,3,11,47,,,
236892,control_change,0,0,14,,,,,,,,,13,11,41,,,
236892,note_on,24,0,14,,,,,,,,,13,,,,62,112
236940,note_on,60,0,11,,,,,,,,,10,,,,65,0
236943,note_on,60,0,12,,,,,,,,,11,,,,62,0
237000,set_tempo,120,1,0,,,,,,307692,,,,,,,,
237000,note_on,60,0,11,,,,,,,,,10,,,,69,93
237003,note_on,60,0,12,,,,,,,,,11,,,,65,93
237060,note_on,60,0,11,,,,,,,,,10,,,,69,0
237063,note_on,60,0,12,,,,,,,,,11,,,,65,0
237074,note_on,300,0,15,,,,,,,,,14,,,,41,112
237120,set_tempo,120,1,0,,,,,,340909,,,,,,,,
237120,note_on,60,0,11,,,,,,,,,10,,,,72,93
237121,note_on,0,0,1,,,,,,,,,0,,,,77,0
237121,note_on,0,0,1,,,,,,,,,0,,,,72,101
237121,note_on,240,0,1,,,,,,,,,0,,,,74,0
237121,note_on,0,0,1,,,,,,,,,0,,,,75,101
237123,note_on,60,0,12,,,,,,,,,11,,,,69,93
237124,note_on,240,0,6,,,,,,,,,5,,,,62,0
237124,note_on,240,0,2,,,,,,,,,1,,,,77,0
237124,note_on,0,0,6,,,,,,,,,5,,,,60,100
237124,note_on,0,0,2,,,,,,,,,1,,,,75,100
237125,note_on,240,0,3,,,,,,,,,2,,,,74,0
237125,note_on,0,0,3,,,,,,,,,2,,,,72,101
237127,note_on,0,0,8,,,,,,,,,7,,,,57,0
237127,note_on,240,0,8,,,,,,,,,7,,,,53,0
237129,note_on,0,0,4,,,,,,,,,3,,,,65,0
237129,note_on,0,0,4,,,,,,,,,3,,,,60,100
237129,note_on,0,0,4,,,,,,,,,3,,,,63,100
237129,note_on,240,0,4,,,,,,,,,3,,,,62,0
237132,note_on,240,0,14,,,,,,,,,13,,,,62,0
237132,note_on,0,0,14,,,,,,,,,13,,,,63,112
237134,note_on,0,0,15,,,,,,,,,14,,,,41,112
237134,note_on,60,0,15,,,,,,,,,14,,,,41,0
237180,note_on,60,0,11,,,,,,,,,10,,,,72,0
237183,note_on,60,0,12,,,,,,,,,11,,,,69,0
237240,note_on,60,0,11,,,,,,,,,10,,,,74,93
237240,set_tempo,120,1,0,,,,,,294118,,,,,,,,
237240,note_on,0,0,11,,,,,,,,,10,,,,65,93
237241,note_on,120,0,1,,,,,,,,,0,,,,75,0
237241,note_on,0,0,1,,,,,,,,,0,,,,72,0
237241,note_on,0,0,1,,,,,,,,,0,,,,74,101
237241,note_on,0,0,1,,,,,,,,,0,,,,70,101
237243,note_on,360,0,5,,,,,,,,,4,,,,65,0
237243,note_on,0,0,12,,,,,,,,,11,,,,70,93
237243,note_on,60,0,12,,,,,,,,,11,,,,62,93
237244,note_on,0,0,2,,,,,,,,,1,,,,70,100
237244,note_on,0,0,2,,,,,,,,,1,,,,69,0
237244,note_on,0,0,2,,,,,,,,,1,,,,74,100
237244,note_on,120,0,6,,,,,,,,,5,,,,60,0
237244,note_on,120,0,2,,,,,,,,,1,,,,75,0
237245,note_on,0,0,3,,,,,,,,,2,,,,65,101
237245,note_on,120,0,3,,,,,,,,,2,,,,72,0
237245,note_on,0,0,3,,,,,,,,,2,,,,70,101
237245,note_on,0,0,3,,,,,,,,,2,,,,69,0
237248,note_on,360,0,13,,,,,,,,,12,,,,65,0
237249,note_on,0,0,4,,,,,,,,,3,,,,60,0
237249,note_on,120,0,4,,,,,,,,,3,,,,63,0
237249,note_on,0,0,4,,,,,,,,,3,,,,62,100
237249,note_on,0,0,4,,,,,,,,,3,,,,58,100
237252,note_on,120,0,14,,,,,,,,,13,,,,63,0
237254,note_on,120,0,15,,,,,,,,,14,,,,41,0
237254,note_on,0,0,15,,,,,,,,,14,,,,46,112
237360,set_tempo,120,1,0,,,,,,307692,,,,,,,,
237368,note_on,120,0,13,,,,,,,,,12,,,,53,112
237372,note_on,120,0,14,,,,,,,,,13,,,,50,112
237423,note_on,180,0,5,,,,,,,,,4,,,,65,100
237424,note_on,180,0,6,,,,,,,,,5,,,,62,100
237427,note_on,300,0,8,,,,,,,,,7,,,,53,110
237427,note_on,0,0,8,,,,,,,,,7,,,,58,110
237428,note_on,60,0,13,,,,,,,,,12,,,,53,0
237432,note_on,60,0,14,,,,,,,,,13,,,,50,0
237480,note_on,240,0,11,,,,,,,,,10,,,,65,0
237480,note_on,0,0,11,,,,,,,,,10,,,,74,0
237480,set_tempo,120,1,0,,,,,,340909,,,,,,,,
237483,note_on,0,0,5,,,,,,,,,4,,,,65,100
237483,note_on,0,0,12,,,,,,,,,11,,,,62,0
237483,note_on,240,0,12,,,,,,,,,11,,,,70,0
237483,note_on,60,0,5,,,,,,,,,4,,,,65,0
237484,note_on,60,0,6,,,,,,,,,5,,,,62,0
237484,note_on,0,0,6,,,,,,,,,5,,,,62,100
237487,note_on,0,0,8,,,,,,,,,7,,,,58,110
237487,note_on,0,0,8,,,,,,,,,7,,,,53,110
237487,note_on,0,0,8,,,,,,,,,7,,,,53,0
237487,note_on,60,0,8,,,,,,,,,7,,,,58,0
237488,note_on,60,0,13,,,,,,,,,12,,,,58,112
237492,note_on,60,0,14,,,,,,,,,13,,,,53,112
237494,note_on,240,0,15,,,,,,,,,14,,,,46,0
237548,note_on,60,0,13,,,,,,,,,12,,,,58,0
237552,note_on,60,0,14,,,,,,,,,13,,,,53,0
237600,set_tempo,120,1,0,,,,,,294118,,,,,,,,
237600,note_on,120,0,11,,,,,,,,,10,,,,65,93
237603,note_on,120,0,12,,,,,,,,,11,,,,62,93
237603,note_on,120,0,5,,,,,,,,,4,,,,65,0
237603,note_on,0,0,5,,,,,,,,,4,,,,65,100
237604,note_on,120,0,6,,,,,,,,,5,,,,62,0
237604,note_on,0,0,6,,,,,,,,,5,,,,62,100
237607,note_on,0,0,8,,,,,,,,,7,,,,58,110
237607,note_on,0,0,8,,,,,,,,,7,,,,53,110
237607,note_on,120,0,8,,,,,,,,,7,,,,53,0
237607,note_on,0,0,8,,,,,,,,,7,,,,58,0
237608,note_on,60,0,13,,,,,,,,,12,,,,62,112
237612,note_on,60,0,14,,,,,,,,,13,,,,58,112
237660,note_on,60,0,11,,,,,,,,,10,,,,65,0
237663,note_on,60,0,12,,,,,,,,,11,,,,62,0
237720,note_on,60,0,11,,,,,,,,,10,,,,70,93
237720,set_tempo,120,1,0,,,,,,307692,,,,,,,,
237721,note_on,480,0,1,,,,,,,,,0,,,,70,0
237721,note_on,0,0,1,,,,,,,,,0,,,,74,0
237723,note_on,60,0,12,,,,,,,,,11,,,,65,93
237724,note_on,480,0,2,,,,,,,,,1,,,,74,0
237724,note_on,0,0,2,,,,,,,,,1,,,,70,0
237725,note_on,480,0,3,,,,,,,,,2,,,,65,0
237725,note_on,0,0,3,,,,,,,,,2,,,,70,0
237729,note_on,480,0,4,,,,,,,,,3,,,,62,0
237729,note_on,0,0,4,,,,,,,,,3,,,,58,0
237780,note_on,60,0,11,,,,,,,,,10,,,,70,0
237783,note_on,60,0,12,,,,,,,,,11,,,,65,0
237794,note_on,300,0,15,,,,,,,,,14,,,,34,112
237840,note_on,60,0,11,,,,,,,,,10,,,,74,93
237840,set_tempo,120,1,0,,,,,,340909,,,,,,,,
237841,note_on,120,0,1,,,,,,,,,0,,,,82,101
237841,note_on,0,0,1,,,,,,,,,0,,,,86,101
237843,note_on,240,0,5,,,,,,,,,4,,,,65,0
237843,note_on,60,0,12,,,,,,,,,11,,,,70,93
237844,note_on,240,0,6,,,,,,,,,5,,,,62,0
237844,note_on,0,0,2,,,,,,,,,1,,,,74,100
237844,note_on,120,0,2,,,,,,,,,1,,,,77,100
237845,note_on,120,0,3,,,,,,,,,2,,,,70,101
237845,note_on,0,0,3,,,,,,,,,2,,,,65,101
237847,note_on,0,0,8,,,,,,,,,7,,,,58,0
237847,note_on,240,0,8,,,,,,,,,7,,,,53,0
237848,note_on,240,0,13,,,,,,,,,12,,,,62,0
237849,note_on,0,0,4,,,,,,,,,3,,,,62,100
237849,note_on,120,0,4,,,,,,,,,3,,,,58,100
237852,note_on,240,0,14,,,,,,,,,13,,,,58,0
237854,note_on,0,0,15,,,,,,,,,14,,,,38,112
237854,note_on,60,0,15,,,,,,,,,14,,,,34,0
237900,note_on,60,0,11,,,,,,,,,10,,,,74,0
237903,note_on,60,0,12,,,,,,,,,11,,,,70,0
237960,note_on,60,0,11,,,,,,,,,10,,,,72,93
237960,set_tempo,120,1,0,,,,,,291262,,,,,,,,
237960,note_on,0,0,11,,,,,,,,,10,,,,63,93
237961,note_on,0,0,1,,,,,,,,,0,,,,81,116
237961,note_on,0,0,1,,,,,,,,,0,,,,84,116
237961,note_on,0,0,1,,,,,,,,,0,,,,82,0
237961,note_on,120,0,1,,,,,,,,,0,,,,86,0
237963,note_on,60,0,12,,,,,,,,,11,,,,69,93
237964,note_on,0,0,2,,,,,,,,,1,,,,72,115
237964,note_on,0,0,2,,,,,,,,,1,,,,77,0
237964,note_on,0,0,2,,,,,,,,,1,,,,75,115
237964,note_on,120,0,2,,,,,,,,,1,,,,74,0
237965,note_on,0,0,3,,,,,,,,,2,,,,69,116
237965,note_on,120,0,3,,,,,,,,,2,,,,65,0
237965,note_on,0,0,3,,,,,,,,,2,,,,70,0
237965,note_on,0,0,3,,,,,,,,,2,,,,72,116
237969,note_on,120,0,4,,,,,,,,,3,,,,62,0
237969,note_on,0,0,4,,,,,,,,,3,,,,63,115
237969,note_on,0,0,4,,,,,,,,,3,,,,60,115
237969,note_on,0,0,4,,,,,,,,,3,,,,58,0
237973,note_on,3360,0,9,,,,,,,,,8,,,,53,110
237974,note_on,0,0,15,,,,,,,,,14,,,,41,112
237974,note_on,120,0,15,,,,,,,,,14,,,,38,0
238080,control_change,120,0,11,,,,,,,,,10,11,41,,,
238080,set_tempo,120,1,0,,,,,,307692,,,,,,,,
238081,control_change,120,0,1,,,,,,,,,0,11,47,,,
238083,control_change,240,0,5,,,,,,,,,4,11,47,,,
238083,control_change,120,0,12,,,,,,,,,11,11,41,,,
238084,control_change,120,0,2,,,,,,,,,1,11,47,,,
238084,control_change,240,0,6,,,,,,,,,5,11,47,,,
238085,control_change,120,0,3,,,,,,,,,2,11,47,,,
238087,control_change,240,0,8,,,,,,,,,7,11,47,,,
238088,note_on,240,0,13,,,,,,,,,12,,,,51,112
238088,control_change,0,0,13,,,,,,,,,12,11,41,,,
238089,control_change,120,0,4,,,,,,,,,3,11,47,,,
238092,note_on,0,0,14,,,,,,,,,13,,,,48,112
238092,control_change,240,0,14,,,,,,,,,13,11,41,,,
238093,control_change,120,0,9,,,,,,,,,8,11,47,,,
238094,control_change,120,0,15,,,,,,,,,14,11,41,,,
238103,control_change,23,0,11,,,,,,,,,10,11,42,,,
238106,control_change,23,0,12,,,,,,,,,11,11,42,,,
238111,control_change,23,0,13,,,,,,,,,12,11,42,,,
238112,control_change,29,0,5,,,,,,,,,4,11,48,,,
238113,control_change,32,0,1,,,,,,,,,0,11,48,,,
238113,control_change,29,0,6,,,,,,,,,5,11,48,,,
238115,control_change,23,0,14,,,,,,,,,13,11,42,,,
238116,control_change,32,0,2,,,,,,,,,1,11,48,,,
238116,control_change,29,0,8,,,,,,,,,7,11,48,,,
238117,control_change,23,0,15,,,,,,,,,14,11,42,,,
238117,control_change,32,0,3,,,,,,,,,2,11,48,,,
238121,control_change,32,0,4,,,,,,,,,3,11,48,,,
238122,control_change,29,0,9,,,,,,,,,8,11,48,,,
238127,control_change,24,0,11,,,,,,,,,10,11,42,,,
238130,control_change,24,0,12,,,,,,,,,11,11,42,,,
238135,control_change,24,0,13,,,,,,,,,12,11,42,,,
238139,control_change,24,0,14,,,,,,,,,13,11,42,,,
238141,control_change,29,0,5,,,,,,,,,4,11,49,,,
238141,control_change,24,0,15,,,,,,,,,14,11,42,,,
238142,control_change,29,0,6,,,,,,,,,5,11,49,,,
238143,note_on,2,0,5,,,,,,,,,4,,,,60,100
238144,note_on,2,0,6,,,,,,,,,5,,,,60,100
238145,control_change,29,0,8,,,,,,,,,7,11,49,,,
238146,control_change,33,0,1,,,,,,,,,0,11,49,,,
238147,note_on,2,0,8,,,,,,,,,7,,,,57,110
238147,note_on,0,0,8,,,,,,,,,7,,,,63,110
238148,note_on,13,0,13,,,,,,,,,12,,,,51,0
238149,control_change,33,0,2,,,,,,,,,1,11,49,,,
238150,control_change,33,0,3,,,,,,,,,2,11,49,,,
238151,control_change,24,0,11,,,,,,,,,10,11,43,,,
238151,control_change,29,0,9,,,,,,,,,8,11,49,,,
238152,note_on,13,0,14,,,,,,,,,13,,,,48,0
238154,control_change,33,0,4,,,,,,,,,3,11,49,,,
238154,control_change,24,0,12,,,,,,,,,11,11,43,,,
238159,control_change,11,0,13,,,,,,,,,12,11,43,,,
238163,control_change,11,0,14,,,,,,,,,13,11,43,,,
238165,control_change,24,0,15,,,,,,,,,14,11,43,,,
238170,control_change,27,0,5,,,,,,,,,4,11,50,,,
238171,control_change,27,0,6,,,,,,,,,5,11,50,,,
238174,control_change,27,0,8,,,,,,,,,7,11,50,,,
238175,control_change,24,0,11,,,,,,,,,10,11,44,,,
238178,control_change,24,0,12,,,,,,,,,11,11,44,,,
238179,control_change,33,0,1,,,,,,,,,0,11,50,,,
238180,control_change,29,0,9,,,,,,,,,8,11,50,,,
238182,control_change,33,0,2,,,,,,,,,1,11,50,,,
238183,control_change,33,0,3,,,,,,,,,2,11,50,,,
238183,control_change,24,0,13,,,,,,,,,12,11,44,,,
238187,control_change,33,0,4,,,,,,,,,3,11,50,,,
238187,control_change,24,0,14,,,,,,,,,13,11,44,,,
238189,control_change,24,0,15,,,,,,,,,14,11,44,,,
238199,control_change,24,0,11,,,,,,,,,10,11,45,,,
238200,note_on,0,0,11,,,,,,,,,10,,,,72,0
238200,set_tempo,120,1,0,,,,,,331492,,,,,,,,
238200,control_change,30,0,5,,,,,,,,,4,11,51,,,
238200,note_on,1,0,11,,,,,,,,,10,,,,63,0
238201,control_change,30,0,6,,,,,,,,,5,11,51,,,
238202,control_change,24,0,12,,,,,,,,,11,11,45,,,
238203,note_on,1,0,12,,,,,,,,,11,,,,69,0
238203,note_on,0,0,5,,,,,,,,,4,,,,60,100
238203,note_on,3,0,5,,,,,,,,,4,,,,60,0
238204,note_on,0,0,6,,,,,,,,,5,,,,60,100
238204,note_on,3,0,6,,,,,,,,,5,,,,60,0
238204,control_change,30,0,8,,,,,,,,,7,11,51,,,
238207,control_change,24,0,13,,,,,,,,,12,11,45,,,
238207,note_on,0,0,8,,,,,,,,,7,,,,57,110
238207,note_on,0,0,8,,,,,,,,,7,,,,63,110
238207,note_on,0,0,8,,,,,,,,,7,,,,57,0
238207,note_on,3,0,8,,,,,,,,,7,,,,63,0
238208,note_on,1,0,13,,,,,,,,,12,,,,57,112
238210,control_change,30,0,9,,,,,,,,,8,11,51,,,
238211,control_change,24,0,14,,,,,,,,,13,11,45,,,
238212,note_on,1,0,14,,,,,,,,,13,,,,51,112
238212,control_change,33,0,1,,,,,,,,,0,11,51,,,
238213,control_change,24,0,15,,,,,,,,,14,11,45,,,
238213,note_on,3,0,9,,,,,,,,,8,,,,53,0
238214,note_on,1,0,15,,,,,,,,,14,,,,41,0
238215,control_change,33,0,2,,,,,,,,,1,11,51,,,
238216,control_change,33,0,3,,,,,,,,,2,11,51,,,
238220,control_change,33,0,4,,,,,,,,,3,11,51,,,
238223,control_change,23,0,11,,,,,,,,,10,11,46,,,
238226,control_change,23,0,12,,,,,,,,,11,11,46,,,
238229,control_change,26,0,5,,,,,,,,,4,11,52,,,
238230,control_change,26,0,6,,,,,,,,,5,11,52,,,
238231,control_change,23,0,13,,,,,,,,,12,11,46,,,
238233,control_change,26,0,8,,,,,,,,,7,11,52,,,
238235,control_change,23,0,14,,,,,,,,,13,11,46,,,
238237,control_change,23,0,15,,,,,,,,,14,11,46,,,
238239,control_change,26,0,9,,,,,,,,,8,11,52,,,
238245,control_change,33,0,1,,,,,,,,,0,11,52,,,
238247,control_change,24,0,11,,,,,,,,,10,11,47,,,
238248,control_change,33,0,2,,,,,,,,,1,11,52,,,
238249,control_change,33,0,3,,,,,,,,,2,11,52,,,
238250,control_change,24,0,12,,,,,,,,,11,11,47,,,
238253,control_change,33,0,4,,,,,,,,,3,11,52,,,
238255,control_change,24,0,13,,,,,,,,,12,11,47,,,
238258,control_change,29,0,5,,,,,,,,,4,11,53,,,
238259,control_change,24,0,14,,,,,,,,,13,11,47,,,
238259,control_change,29,0,6,,,,,,,,,5,11,53,,,
238261,control_change,24,0,15,,,,,,,,,14,11,47,,,
238262,control_change,29,0,8,,,,,,,,,7,11,53,,,
238268,control_change,29,0,9,,,,,,,,,8,11,53,,,
238268,note_on,13,0,13,,,,,,,,,12,,,,57,0
238271,control_change,24,0,11,,,,,,,,,10,11,48,,,
238272,note_on,13,0,14,,,,,,,,,13,,,,51,0
238274,control_change,24,0,12,,,,,,,,,11,11,48,,,
238278,control_change,33,0,1,,,,,,,,,0,11,52,,,
238279,control_change,11,0,13,,,,,,,,,12,11,48,,,
238281,control_change,33,0,2,,,,,,,,,1,11,52,,,
238282,control_change,33,0,3,,,,,,,,,2,11,52,,,
238283,control_change,11,0,14,,,,,,,,,13,11,48,,,
238285,control_change,24,0,15,,,,,,,,,14,11,48,,,
238286,control_change,33,0,4,,,,,,,,,3,11,53,,,
238288,control_change,30,0,5,,,,,,,,,4,11,54,,,
238289,control_change,30,0,6,,,,,,,,,5,11,54,,,
238292,control_change,30,0,8,,,,,,,,,7,11,54,,,
238295,control_change,24,0,11,,,,,,,,,10,11,49,,,
238298,control_change,30,0,9,,,,,,,,,8,11,54,,,
238298,control_change,24,0,12,,,,,,,,,11,11,49,,,
238303,control_change,24,0,13,,,,,,,,,12,11,49,,,
238307,control_change,24,0,14,,,,,,,,,13,11,49,,,
238309,control_change,24,0,15,,,,,,,,,14,11,49,,,
238310,note_on,0,0,1,,,,,,,,,0,,,,84,0
238310,note_on,32,0,1,,,,,,,,,0,,,,81,0
238311,control_change,1,0,1,,,,,,,,,0,11,53,,,
238313,note_on,32,0,2,,,,,,,,,1,,,,72,0
238313,note_on,0,0,2,,,,,,,,,1,,,,75,0
238314,note_on,32,0,3,,,,,,,,,2,,,,69,0
238314,note_on,0,0,3,,,,,,,,,2,,,,72,0
238314,control_change,1,0,2,,,,,,,,,1,11,53,,,
238315,control_change,1,0,3,,,,,,,,,2,11,53,,,
238317,control_change,29,0,5,,,,,,,,,4,11,55,,,
238318,control_change,29,0,6,,,,,,,,,5,11,55,,,
238318,note_on,0,0,4,,,,,,,,,3,,,,60,0
238318,note_on,32,0,4,,,,,,,,,3,,,,63,0
238319,control_change,1,0,4,,,,,,,,,3,11,54,,,
238319,control_change,24,0,11,,,,,,,,,10,11,50,,,
238320,note_on,1,0,11,,,,,,,,,10,,,,64,93
238320,set_tempo,120,1,0,,,,,,291262,,,,,,,,
238321,note_on,0,0,1,,,,,,,,,0,,,,81,116
238321,note_on,10,0,1,,,,,,,,,0,,,,84,116
238321,control_change,29,0,8,,,,,,,,,7,11,55,,,
238322,control_change,24,0,12,,,,,,,,,11,11,50,,,
238323,note_on,0,0,5,,,,,,,,,4,,,,60,100
238323,note_on,1,0,12,,,,,,,,,11,,,,60,93
238323,note_on,6,0,5,,,,,,,,,4,,,,60,0
238324,note_on,10,0,2,,,,,,,,,1,,,,76,115
238324,note_on,0,0,2,,,,,,,,,1,,,,72,115
238324,note_on,6,0,6,,,,,,,,,5,,,,60,0
238324,note_on,0,0,6,,,,,,,,,5,,,,60,100
238325,note_on,0,0,3,,,,,,,,,2,,,,72,116
238325,note_on,10,0,3,,,,,,,,,2,,,,69,116
238327,control_change,24,0,13,,,,,,,,,12,11,50,,,
238327,note_on,6,0,8,,,,,,,,,7,,,,57,0
238327,note_on,0,0,8,,,,,,,,,7,,,,63,0
238327,note_on,0,0,8,,,,,,,,,7,,,,57,110
238327,control_change,29,0,9,,,,,,,,,8,11,55,,,
238327,note_on,0,0,8,,,,,,,,,7,,,,64,110
238328,note_on,1,0,13,,,,,,,,,12,,,,60,112
238329,note_on,0,0,4,,,,,,,,,3,,,,64,115
238329,note_on,10,0,4,,,,,,,,,3,,,,60,115
238331,control_change,24,0,14,,,,,,,,,13,11,50,,,
238332,note_on,1,0,14,,,,,,,,,13,,,,57,112
238333,control_change,24,0,15,,,,,,,,,14,11,50,,,
238333,note_on,6,0,9,,,,,,,,,8,,,,52,110
238334,note_on,1,0,15,,,,,,,,,14,,,,40,112
238343,control_change,23,0,11,,,,,,,,,10,11,51,,,
238344,control_change,23,0,1,,,,,,,,,0,11,54,,,
238346,control_change,23,0,12,,,,,,,,,11,11,51,,,
238346,control_change,23,0,5,,,,,,,,,4,11,56,,,
238347,control_change,23,0,2,,,,,,,,,1,11,54,,,
238347,control_change,23,0,6,,,,,,,,,5,11,56,,,
238348,control_change,23,0,3,,,,,,,,,2,11,54,,,
238350,control_change,23,0,8,,,,,,,,,7,11,56,,,
238351,control_change,23,0,13,,,,,,,,,12,11,51,,,
238352,control_change,23,0,4,,,,,,,,,3,11,55,,,
238355,control_change,23,0,14,,,,,,,,,13,11,51,,,
238356,control_change,23,0,9,,,,,,,,,8,11,56,,,
238357,control_change,23,0,15,,,,,,,,,14,11,51,,,
238367,control_change,24,0,11,,,,,,,,,10,11,52,,,
238370,control_change,24,0,12,,,,,,,,,11,11,52,,,
238375,control_change,24,0,13,,,,,,,,,12,11,52,,,
238376,control_change,30,0,5,,,,,,,,,4,11,57,,,
238377,control_change,30,0,6,,,,,,,,,5,11,57,,,
238377,control_change,33,0,1,,,,,,,,,0,11,55,,,
238379,control_change,24,0,14,,,,,,,,,13,11,52,,,
238380,control_change,30,0,8,,,,,,,,,7,11,57,,,
238380,note_on,13,0,11,,,,,,,,,10,,,,64,0
238380,control_change,33,0,2,,,,,,,,,1,11,55,,,
238381,control_change,33,0,3,,,,,,,,,2,11,55,,,
238381,control_change,24,0,15,,,,,,,,,14,11,52,,,
238383,note_on,13,0,12,,,,,,,,,11,,,,60,0
238385,control_change,33,0,4,,,,,,,,,3,11,56,,,
238386,control_change,30,0,9,,,,,,,,,8,11,57,,,
238391,control_change,11,0,11,,,,,,,,,10,11,53,,,
238394,control_change,11,0,12,,,,,,,,,11,11,53,,,
238399,control_change,24,0,13,,,,,,,,,12,11,53,,,
238403,control_change,24,0,14,,,,,,,,,13,11,53,,,
238405,control_change,29,0,5,,,,,,,,,4,11,58,,,
238405,control_change,24,0,15,,,,,,,,,14,11,53,,,
238406,control_change,29,0,6,,,,,,,,,5,11,58,,,
238409,control_change,29,0,8,,,,,,,,,7,11,58,,,
238410,control_change,33,0,1,,,,,,,,,0,11,55,,,
238413,control_change,33,0,2,,,,,,,,,1,11,55,,,
238414,control_change,33,0,3,,,,,,,,,2,11,55,,,
238415,control_change,24,0,11,,,,,,,,,10,11,54,,,
238415,control_change,29,0,9,,,,,,,,,8,11,58,,,
238418,control_change,24,0,12,,,,,,,,,11,11,54,,,
238418,control_change,33,0,4,,,,,,,,,3,11,57,,,
238423,control_change,24,0,13,,,,,,,,,12,11,54,,,
238427,control_change,24,0,14,,,,,,,,,13,11,54,,,
238429,control_change,24,0,15,,,,,,,,,14,11,54,,,
238434,control_change,29,0,5,,,,,,,,,4,11,59,,,
238435,control_change,29,0,6,,,,,,,,,5,11,59,,,
238438,control_change,29,0,8,,,,,,,,,7,11,59,,,
238439,control_change,24,0,11,,,,,,,,,10,11,55,,,
238440,set_tempo,120,1,0,,,,,,303797,,,,,,,,
238440,note_on,1,0,11,,,,,,,,,10,,,,69,93
238442,control_change,24,0,12,,,,,,,,,11,11,55,,,
238443,control_change,33,0,1,,,,,,,,,0,11,56,,,
238443,note_on,1,0,12,,,,,,,,,11,,,,64,93
238444,control_change,29,0,9,,,,,,,,,8,11,59,,,
238446,control_change,33,0,2,,,,,,,,,1,11,56,,,
238447,control_change,33,0,3,,,,,,,,,2,11,56,,,
238447,control_change,24,0,13,,,,,,,,,12,11,55,,,
238451,control_change,33,0,4,,,,,,,,,3,11,58,,,
238451,control_change,24,0,14,,,,,,,,,13,11,55,,,
238453,control_change,24,0,15,,,,,,,,,14,11,55,,,
238463,control_change,23,0,11,,,,,,,,,10,11,56,,,
238464,control_change,30,0,5,,,,,,,,,4,11,60,,,
238465,control_change,30,0,6,,,,,,,,,5,11,60,,,
238466,control_change,23,0,12,,,,,,,,,11,11,56,,,
238468,control_change,30,0,8,,,,,,,,,7,11,60,,,
238471,control_change,24,0,13,,,,,,,,,12,11,56,,,
238474,control_change,30,0,9,,,,,,,,,8,11,60,,,
238475,control_change,24,0,14,,,,,,,,,13,11,56,,,
238476,control_change,33,0,1,,,,,,,,,0,11,57,,,
238477,control_change,24,0,15,,,,,,,,,14,11,56,,,
238479,control_change,33,0,2,,,,,,,,,1,11,57,,,
238480,control_change,33,0,3,,,,,,,,,2,11,57,,,
238484,control_change,33,0,4,,,,,,,,,3,11,59,,,
238487,control_change,24,0,11,,,,,,,,,10,11,57,,,
238490,control_change,24,0,12,,,,,,,,,11,11,57,,,
238493,control_change,29,0,5,,,,,,,,,4,11,61,,,
238494,control_change,29,0,6,,,,,,,,,5,11,61,,,
238495,control_change,24,0,13,,,,,,,,,12,11,57,,,
238497,control_change,29,0,8,,,,,,,,,7,11,61,,,
238499,control_change,24,0,14,,,,,,,,,13,11,57,,,
238500,note_on,13,0,11,,,,,,,,,10,,,,69,0
238501,control_change,24,0,15,,,,,,,,,14,11,57,,,
238503,note_on,13,0,12,,,,,,,,,11,,,,64,0
238503,control_change,29,0,9,,,,,,,,,8,11,61,,,
238509,control_change,33,0,1,,,,,,,,,0,11,58,,,
238511,control_change,11,0,11,,,,,,,,,10,11,57,,,
238512,control_change,33,0,2,,,,,,,,,1,11,58,,,
238513,control_change,33,0,3,,,,,,,,,2,11,58,,,
238513,note_on,10,0,9,,,,,,,,,8,,,,52,0
238513,note_on,0,0,9,,,,,,,,,8,,,,52,110
238514,note_on,13,0,15,,,,,,,,,14,,,,40,0
238514,note_on,0,0,15,,,,,,,,,14,,,,40,112
238514,control_change,11,0,12,,,,,,,,,11,11,57,,,
238517,control_change,33,0,4,,,,,,,,,3,11,60,,,
238519,control_change,24,0,13,,,,,,,,,12,11,57,,,
238522,control_change,29,0,5,,,,,,,,,4,11,62,,,
238523,control_change,24,0,14,,,,,,,,,13,11,57,,,
238523,control_change,29,0,6,,,,,,,,,5,11,62,,,
238525,control_change,11,0,15,,,,,,,,,14,11,57,,,
238526,control_change,29,0,8,,,,,,,,,7,11,62,,,
238532,control_change,19,0,9,,,,,,,,,8,11,62,,,
238535,control_change,24,0,11,,,,,,,,,10,11,58,,,
238538,control_change,24,0,12,,,,,,,,,11,11,58,,,
238542,control_change,33,0,1,,,,,,,,,0,11,58,,,
238543,control_change,24,0,13,,,,,,,,,12,11,58,,,
238545,control_change,33,0,2,,,,,,,,,1,11,58,,,
238546,control_change,33,0,3,,,,,,,,,2,11,58,,,
238547,control_change,24,0,14,,,,,,,,,13,11,58,,,
238549,control_change,24,0,15,,,,,,,,,14,11,58,,,
238550,control_change,33,0,4,,,,,,,,,3,11,61,,,
238551,control_change,29,0,5,,,,,,,,,4,11,63,,,
238552,control_change,29,0,6,,,,,,,,,5,11,63,,,
238555,control_change,29,0,8,,,,,,,,,7,11,63,,,
238559,control_change,24,0,11,,,,,,,,,10,11,59,,,
238560,note_on,1,0,11,,,,,,,,,10,,,,72,93
238560,set_tempo,120,1,0,,,,,,326087,,,,,,,,
238561,control_change,29,0,9,,,,,,,,,8,11,63,,,
238562,control_change,24,0,12,,,,,,,,,11,11,59,,,
238563,note_on,12,0,5,,,,,,,,,4,,,,60,0
238563,note_on,1,0,12,,,,,,,,,11,,,,69,93
238564,note_on,12,0,6,,,,,,,,,5,,,,60,0
238567,note_on,12,0,8,,,,,,,,,7,,,,64,0
238567,note_on,0,0,8,,,,,,,,,7,,,,57,0
238567,control_change,24,0,13,,,,,,,,,12,11,59,,,
238568,note_on,1,0,13,,,,,,,,,12,,,,60,0
238571,control_change,24,0,14,,,,,,,,,13,11,59,,,
238572,note_on,1,0,14,,,,,,,,,13,,,,57,0
238573,note_on,0,0,9,,,,,,,,,8,,,,52,110
238573,note_on,12,0,9,,,,,,,,,8,,,,52,0
238573,control_change,24,0,15,,,,,,,,,14,11,59,,,
238574,note_on,1,0,15,,,,,,,,,14,,,,40,0
238574,note_on,0,0,15,,,,,,,,,14,,,,40,112
238575,control_change,33,0,1,,,,,,,,,0,11,59,,,
238578,control_change,33,0,2,,,,,,,,,1,11,59,,,
238579,control_change,33,0,3,,,,,,,,,2,11,59,,,
238581,control_change,18,0,5,,,,,,,,,4,11,64,,,
238582,control_change,18,0,6,,,,,,,,,5,11,64,,,
238583,control_change,33,0,4,,,,,,,,,3,11,62,,,
238583,control_change,23,0,11,,,,,,,,,10,11,60,,,
238585,control_change,18,0,8,,,,,,,,,7,11,64,,,
238586,control_change,23,0,12,,,,,,,,,11,11,60,,,
238591,control_change,18,0,9,,,,,,,,,8,11,64,,,
238591,control_change,23,0,13,,,,,,,,,12,11,60,,,
238595,control_change,23,0,14,,,,,,,,,13,11,60,,,
238597,control_change,23,0,15,,,,,,,,,14,11,60,,,
238607,control_change,24,0,11,,,,,,,,,10,11,61,,,
238608,control_change,33,0,1,,,,,,,,,0,11,60,,,
238610,control_change,24,0,12,,,,,,,,,11,11,61,,,
238610,control_change,29,0,5,,,,,,,,,4,11,65,,,
238611,control_change,29,0,6,,,,,,,,,5,11,65,,,
238611,control_change,33,0,2,,,,,,,,,1,11,60,,,
238612,control_change,33,0,3,,,,,,,,,2,11,60,,,
238614,control_change,29,0,8,,,,,,,,,7,11,65,,,
238615,control_change,24,0,13,,,,,,,,,12,11,61,,,
238616,control_change,33,0,4,,,,,,,,,3,11,63,,,
238619,control_change,24,0,14,,,,,,,,,13,11,61,,,
238620,control_change,29,0,9,,,,,,,,,8,11,65,,,
238620,note_on,13,0,11,,,,,,,,,10,,,,72,0
238621,control_change,24,0,15,,,,,,,,,14,11,61,,,
238623,note_on,13,0,12,,,,,,,,,11,,,,69,0
238631,control_change,11,0,11,,,,,,,,,10,11,62,,,
238634,control_change,11,0,12,,,,,,,,,11,11,62,,,
238639,control_change,29,0,5,,,,,,,,,4,11,66,,,
238639,control_change,24,0,13,,,,,,,,,12,11,62,,,
238640,control_change,29,0,6,,,,,,,,,5,11,66,,,
238641,control_change,33,0,1,,,,,,,,,0,11,61,,,
238643,control_change,24,0,14,,,,,,,,,13,11,62,,,
238643,control_change,29,0,8,,,,,,,,,7,11,66,,,
238644,control_change,33,0,2,,,,,,,,,1,11,61,,,
238645,control_change,33,0,3,,,,,,,,,2,11,61,,,
238645,control_change,24,0,15,,,,,,,,,14,11,62,,,
238649,control_change,33,0,4,,,,,,,,,3,11,64,,,
238649,control_change,29,0,9,,,,,,,,,8,11,66,,,
238655,control_change,24,0,11,,,,,,,,,10,11,63,,,
238658,control_change,24,0,12,,,,,,,,,11,11,63,,,
238663,control_change,24,0,13,,,,,,,,,12,11,63,,,
238667,control_change,24,0,14,,,,,,,,,13,11,63,,,
238669,control_change,24,0,15,,,,,,,,,14,11,63,,,
238669,control_change,30,0,5,,,,,,,,,4,11,67,,,
238670,control_change,30,0,6,,,,,,,,,5,11,67,,,
238670,note_on,29,0,1,,,,,,,,,0,,,,81,0
238670,note_on,0,0,1,,,,,,,,,0,,,,84,0
238673,note_on,29,0,2,,,,,,,,,1,,,,72,0
238673,note_on,0,0,2,,,,,,,,,1,,,,76,0
238673,control_change,30,0,8,,,,,,,,,7,11,67,,,
238674,note_on,0,0,3,,,,,,,,,2,,,,69,0
238674,note_on,29,0,3,,,,,,,,,2,,,,72,0
238674,control_change,4,0,1,,,,,,,,,0,11,61,,,
238677,control_change,4,0,2,,,,,,,,,1,11,61,,,
238678,control_change,4,0,3,,,,,,,,,2,11,61,,,
238678,note_on,0,0,4,,,,,,,,,3,,,,60,0
238678,note_on,29,0,4,,,,,,,,,3,,,,64,0
238679,control_change,24,0,11,,,,,,,,,10,11,64,,,
238679,control_change,30,0,9,,,,,,,,,8,11,67,,,
238680,set_tempo,120,1,0,,,,,,291262,,,,,,,,
238680,note_on,1,0,11,,,,,,,,,10,,,,72,93
238681,note_on,0,0,1,,,,,,,,,0,,,,81,116
238681,note_on,7,0,1,,,,,,,,,0,,,,84,116
238682,control_change,4,0,4,,,,,,,,,3,11,65,,,
238682,control_change,24,0,12,,,,,,,,,11,11,64,,,
238683,note_on,1,0,12,,,,,,,,,11,,,,69,93
238683,note_on,0,0,12,,,,,,,,,11,,,,65,93
238684,note_on,0,0,2,,,,,,,,,1,,,,72,115
238684,note_on,7,0,2,,,,,,,,,1,,,,77,115
238685,note_on,7,0,3,,,,,,,,,2,,,,69,116
238685,note_on,0,0,3,,,,,,,,,2,,,,72,116
238687,control_change,24,0,13,,,,,,,,,12,11,64,,,
238689,note_on,0,0,4,,,,,,,,,3,,,,60,115
238689,note_on,7,0,4,,,,,,,,,3,,,,65,115
238691,control_change,24,0,14,,,,,,,,,13,11,64,,,
238693,note_on,14,0,9,,,,,,,,,8,,,,52,0
238693,note_on,0,0,9,,,,,,,,,8,,,,51,110
238693,control_change,24,0,15,,,,,,,,,14,11,64,,,
238694,note_on,0,0,15,,,,,,,,,14,,,,39,112
238694,note_on,1,0,15,,,,,,,,,14,,,,40,0
238698,control_change,29,0,5,,,,,,,,,4,11,68,,,
238699,control_change,29,0,6,,,,,,,,,5,11,68,,,
238702,control_change,29,0,8,,,,,,,,,7,11,68,,,
238703,control_change,23,0,11,,,,,,,,,10,11,65,,,
238706,control_change,23,0,12,,,,,,,,,11,11,65,,,
238707,control_change,26,0,1,,,,,,,,,0,11,62,,,
238708,control_change,15,0,9,,,,,,,,,8,11,68,,,
238710,control_change,26,0,2,,,,,,,,,1,11,62,,,
238711,control_change,24,0,13,,,,,,,,,12,11,65,,,
238711,control_change,26,0,3,,,,,,,,,2,11,62,,,
238715,control_change,24,0,14,,,,,,,,,13,11,65,,,
238715,control_change,26,0,4,,,,,,,,,3,11,66,,,
238717,control_change,23,0,15,,,,,,,,,14,11,65,,,
238727,control_change,24,0,11,,,,,,,,,10,11,66,,,
238727,control_change,29,0,5,,,,,,,,,4,11,69,,,
238728,control_change,29,0,6,,,,,,,,,5,11,69,,,
238730,control_change,24,0,12,,,,,,,,,11,11,66,,,
238731,control_change,29,0,8,,,,,,,,,7,11,69,,,
238735,control_change,24,0,13,,,,,,,,,12,11,66,,,
238737,control_change,29,0,9,,,,,,,,,8,11,69,,,
238739,control_change,24,0,14,,,,,,,,,13,11,66,,,
238740,control_change,33,0,1,,,,,,,,,0,11,63,,,
238741,control_change,24,0,15,,,,,,,,,14,11,66,,,
238743,control_change,33,0,2,,,,,,,,,1,11,63,,,
238744,control_change,33,0,3,,,,,,,,,2,11,63,,,
238748,control_change,33,0,4,,,,,,,,,3,11,67,,,
238751,control_change,24,0,11,,,,,,,,,10,11,67,,,
238754,control_change,24,0,12,,,,,,,,,11,11,67,,,
238757,control_change,30,0,5,,,,,,,,,4,11,70,,,
238758,control_change,30,0,6,,,,,,,,,5,11,70,,,
238759,control_change,24,0,13,,,,,,,,,12,11,67,,,
238761,control_change,30,0,8,,,,,,,,,7,11,70,,,
238763,control_change,24,0,14,,,,,,,,,13,11,67,,,
238765,control_change,24,0,15,,,,,,,,,14,11,67,,,
238767,control_change,30,0,9,,,,,,,,,8,11,70,,,
238773,control_change,33,0,1,,,,,,,,,0,11,64,,,
238775,control_change,24,0,11,,,,,,,,,10,11,68,,,
238776,control_change,33,0,2,,,,,,,,,1,11,64,,,
238777,control_change,33,0,3,,,,,,,,,2,11,64,,,
238778,control_change,24,0,12,,,,,,,,,11,11,68,,,
238781,control_change,33,0,4,,,,,,,,,3,11,68,,,
238783,control_change,24,0,13,,,,,,,,,12,11,68,,,
238786,control_change,29,0,5,,,,,,,,,4,11,71,,,
238787,control_change,24,0,14,,,,,,,,,13,11,68,,,
238787,control_change,29,0,6,,,,,,,,,5,11,71,,,
238789,control_change,24,0,15,,,,,,,,,14,11,68,,,
238790,control_change,29,0,8,,,,,,,,,7,11,71,,,
238796,control_change,29,0,9,,,,,,,,,8,11,71,,,
238799,control_change,24,0,11,,,,,,,,,10,11,69,,,
238800,set_tempo,120,1,0,,,,,,303797,,,,,,,,
238802,control_change,24,0,12,,,,,,,,,11,11,69,,,
238806,control_change,33,0,1,,,,,,,,,0,11,64,,,
238807,control_change,24,0,13,,,,,,,,,12,11,69,,,
238808,note_on,1,0,13,,,,,,,,,12,,,,53,112
238809,control_change,33,0,2,,,,,,,,,1,11,64,,,
238810,control_change,33,0,3,,,,,,,,,2,11,64,,,
238811,control_change,24,0,14,,,,,,,,,13,11,69,,,
238812,note_on,1,0,14,,,,,,,,,13,,,,48,112
238813,control_change,24,0,15,,,,,,,,,14,11,69,,,
238814,control_change,33,0,4,,,,,,,,,3,11,69,,,
238815,control_change,29,0,5,,,,,,,,,4,11,72,,,
238816,control_change,29,0,6,,,,,,,,,5,11,72,,,
238819,control_change,29,0,8,,,,,,,,,7,11,72,,,
238823,control_change,24,0,11,,,,,,,,,10,11,70,,,
238825,control_change,29,0,9,,,,,,,,,8,11,72,,,
238826,control_change,24,0,12,,,,,,,,,11,11,70,,,
238831,control_change,23,0,13,,,,,,,,,12,11,70,,,
238835,control_change,23,0,14,,,,,,,,,13,11,70,,,
238837,control_change,24,0,15,,,,,,,,,14,11,70,,,
238839,control_change,33,0,1,,,,,,,,,0,11,65,,,
238842,control_change,33,0,2,,,,,,,,,1,11,65,,,
238843,control_change,33,0,3,,,,,,,,,2,11,65,,,
238845,control_change,30,0,5,,,,,,,,,4,11,73,,,
238846,control_change,30,0,6,,,,,,,,,5,11,73,,,
238847,control_change,24,0,11,,,,,,,,,10,11,71,,,
238847,control_change,33,0,4,,,,,,,,,3,11,70,,,
238849,control_change,30,0,8,,,,,,,,,7,11,73,,,
238850,control_change,24,0,12,,,,,,,,,11,11,71,,,
238855,control_change,24,0,13,,,,,,,,,12,11,71,,,
238855,control_change,30,0,9,,,,,,,,,8,11,73,,,
238859,control_change,24,0,14,,,,,,,,,13,11,71,,,
238861,control_change,24,0,15,,,,,,,,,14,11,71,,,
238863,note_on,18,0,5,,,,,,,,,4,,,,60,100
238864,note_on,18,0,6,,,,,,,,,5,,,,60,100
238867,note_on,0,0,8,,,,,,,,,7,,,,65,110
238867,note_on,18,0,8,,,,,,,,,7,,,,57,110
238868,note_on,13,0,13,,,,,,,,,12,,,,53,0
238871,control_change,24,0,11,,,,,,,,,10,11,72,,,
238872,note_on,13,0,14,,,,,,,,,13,,,,48,0
238872,control_change,33,0,1,,,,,,,,,0,11,66,,,
238874,control_change,11,0,5,,,,,,,,,4,11,74,,,
238874,control_change,24,0,12,,,,,,,,,11,11,72,,,
238875,control_change,11,0,6,,,,,,,,,5,11,74,,,
238875,control_change,33,0,2,,,,,,,,,1,11,66,,,
238876,control_change,33,0,3,,,,,,,,,2,11,66,,,
238878,control_change,11,0,8,,,,,,,,,7,11,74,,,
238879,control_change,11,0,13,,,,,,,,,12,11,72,,,
238880,control_change,33,0,4,,,,,,,,,3,11,71,,,
238883,control_change,11,0,14,,,,,,,,,13,11,72,,,
238884,control_change,29,0,9,,,,,,,,,8,11,74,,,
238885,control_change,24,0,15,,,,,,,,,14,11,72,,,
238895,control_change,24,0,11,,,,,,,,,10,11,72,,,
238898,control_change,24,0,12,,,,,,,,,11,11,72,,,
238903,control_change,24,0,13,,,,,,,,,12,11,72,,,
238903,control_change,29,0,5,,,,,,,,,4,11,75,,,
238904,control_change,29,0,6,,,,,,,,,5,11,75,,,
238905,control_change,33,0,1,,,,,,,,,0,11,67,,,
238907,control_change,29,0,8,,,,,,,,,7,11,75,,,
238907,control_change,24,0,14,,,,,,,,,13,11,72,,,
238908,control_change,33,0,2,,,,,,,,,1,11,67,,,
238909,control_change,33,0,3,,,,,,,,,2,11,67,,,
238909,control_change,24,0,15,,,,,,,,,14,11,72,,,
238913,control_change,29,0,9,,,,,,,,,8,11,75,,,
238913,control_change,33,0,4,,,,,,,,,3,11,72,,,
238919,control_change,24,0,11,,,,,,,,,10,11,73,,,
238920,set_tempo,120,1,0,,,,,,319149,,,,,,,,
238920,note_on,1,0,11,,,,,,,,,10,,,,72,0
238922,control_change,24,0,12,,,,,,,,,11,11,73,,,
238923,note_on,0,0,12,,,,,,,,,11,,,,69,0
238923,note_on,1,0,12,,,,,,,,,11,,,,65,0
238923,note_on,0,0,5,,,,,,,,,4,,,,60,100
238923,note_on,20,0,5,,,,,,,,,4,,,,60,0
238924,note_on,0,0,6,,,,,,,,,5,,,,60,100
238924,note_on,20,0,6,,,,,,,,,5,,,,60,0
238927,note_on,0,0,8,,,,,,,,,7,,,,65,110
238927,note_on,0,0,8,,,,,,,,,7,,,,57,110
238927,note_on,0,0,8,,,,,,,,,7,,,,57,0
238927,note_on,20,0,8,,,,,,,,,7,,,,65,0
238927,control_change,24,0,13,,,,,,,,,12,11,73,,,
238928,note_on,1,0,13,,,,,,,,,12,,,,57,112
238931,control_change,24,0,14,,,,,,,,,13,11,73,,,
238932,note_on,1,0,14,,,,,,,,,13,,,,53,112
238933,control_change,24,0,15,,,,,,,,,14,11,73,,,
238933,note_on,20,0,9,,,,,,,,,8,,,,51,0
238933,control_change,10,0,5,,,,,,,,,4,11,76,,,
238934,control_change,10,0,6,,,,,,,,,5,11,76,,,
238934,note_on,1,0,15,,,,,,,,,14,,,,39,0
238937,control_change,10,0,8,,,,,,,,,7,11,76,,,
238938,control_change,33,0,1,,,,,,,,,0,11,67,,,
238941,control_change,33,0,2,,,,,,,,,1,11,67,,,
238942,control_change,33,0,3,,,,,,,,,2,11,67,,,
238943,control_change,10,0,9,,,,,,,,,8,11,76,,,
238943,control_change,23,0,11,,,,,,,,,10,11,74,,,
238946,control_change,33,0,4,,,,,,,,,3,11,73,,,
238946,control_change,23,0,12,,,,,,,,,11,11,74,,,
238951,control_change,23,0,13,,,,,,,,,12,11,74,,,
238955,control_change,23,0,14,,,,,,,,,13,11,74,,,
238957,control_change,23,0,15,,,,,,,,,14,11,74,,,
238962,control_change,29,0,5,,,,,,,,,4,11,77,,,
238963,control_change,29,0,6,,,,,,,,,5,11,77,,,
238966,control_change,29,0,8,,,,,,,,,7,11,77,,,
238967,control_change,24,0,11,,,,,,,,,10,11,75,,,
238970,control_change,24,0,12,,,,,,,,,11,11,75,,,
238971,control_change,33,0,1,,,,,,,,,0,11,68,,,
238972,control_change,29,0,9,,,,,,,,,8,11,77,,,
238974,control_change,33,0,2,,,,,,,,,1,11,68,,,
238975,control_change,33,0,3,,,,,,,,,2,11,68,,,
238975,control_change,24,0,13,,,,,,,,,12,11,75,,,
238979,control_change,33,0,4,,,,,,,,,3,11,74,,,
238979,control_change,24,0,14,,,,,,,,,13,11,75,,,
238981,control_change,24,0,15,,,,,,,,,14,11,75,,,
238988,note_on,13,0,13,,,,,,,,,12,,,,57,0
238991,control_change,29,0,5,,,,,,,,,4,11,78,,,
238991,control_change,24,0,11,,,,,,,,,10,11,76,,,
238992,control_change,29,0,6,,,,,,,,,5,11,78,,,
238992,note_on,13,0,14,,,,,,,,,13,,,,53,0
238994,control_change,24,0,12,,,,,,,,,11,11,76,,,
238995,control_change,29,0,8,,,,,,,,,7,11,78,,,
238999,control_change,11,0,13,,,,,,,,,12,11,76,,,
239001,control_change,29,0,9,,,,,,,,,8,11,78,,,
239003,control_change,11,0,14,,,,,,,,,13,11,76,,,
239004,control_change,33,0,1,,,,,,,,,0,11,69,,,
239005,control_change,24,0,15,,,,,,,,,14,11,76,,,
239007,control_change,33,0,2,,,,,,,,,1,11,69,,,
239008,control_change,33,0,3,,,,,,,,,2,11,69,,,
239012,control_change,33,0,4,,,,,,,,,3,11,75,,,
239015,control_change,24,0,11,,,,,,,,,10,11,77,,,
239018,control_change,24,0,12,,,,,,,,,11,11,77,,,
239020,control_change,29,0,5,,,,,,,,,4,11,79,,,
239021,control_change,29,0,6,,,,,,,,,5,11,79,,,
239023,control_change,24,0,13,,,,,,,,,12,11,77,,,
239024,control_change,29,0,8,,,,,,,,,7,11,79,,,
239027,control_change,24,0,14,,,,,,,,,13,11,77,,,
239029,control_change,24,0,15,,,,,,,,,14,11,77,,,
239030,note_on,0,0,1,,,,,,,,,0,,,,84,0
239030,note_on,26,0,1,,,,,,,,,0,,,,81,0
239030,control_change,29,0,9,,,,,,,,,8,11,79,,,
239033,note_on,26,0,2,,,,,,,,,1,,,,72,0
239033,note_on,0,0,2,,,,,,,,,1,,,,77,0
239034,note_on,26,0,3,,,,,,,,,2,,,,72,0
239034,note_on,0,0,3,,,,,,,,,2,,,,69,0
239037,control_change,7,0,1,,,,,,,,,0,11,70,,,
239038,note_on,26,0,4,,,,,,,,,3,,,,60,0
239038,note_on,0,0,4,,,,,,,,,3,,,,65,0
239039,control_change,24,0,11,,,,,,,,,10,11,78,,,
239040,set_tempo,120,1,0,,,,,,291262,,,,,,,,
239040,note_on,1,0,11,,,,,,,,,10,,,,66,93
239040,control_change,7,0,2,,,,,,,,,1,11,70,,,
239041,control_change,7,0,3,,,,,,,,,2,11,70,,,
239041,note_on,4,0,1,,,,,,,,,0,,,,81,116
239041,note_on,0,0,1,,,,,,,,,0,,,,84,116
239042,control_change,24,0,12,,,,,,,,,11,11,78,,,
239043,note_on,23,0,5,,,,,,,,,4,,,,60,0
239043,note_on,1,0,12,,,,,,,,,11,,,,60,93
239043,note_on,0,0,5,,,,,,,,,4,,,,60,100
239044,note_on,23,0,6,,,,,,,,,5,,,,60,0
239044,note_on,0,0,2,,,,,,,,,1,,,,78,115
239044,note_on,0,0,6,,,,,,,,,5,,,,60,100
239044,note_on,4,0,2,,,,,,,,,1,,,,72,115
239045,note_on,0,0,3,,,,,,,,,2,,,,72,116
239045,note_on,4,0,3,,,,,,,,,2,,,,69,116
239045,control_change,7,0,4,,,,,,,,,3,11,76,,,
239047,note_on,0,0,8,,,,,,,,,7,,,,57,0
239047,control_change,24,0,13,,,,,,,,,12,11,78,,,
239047,note_on,0,0,8,,,,,,,,,7,,,,66,110
239047,note_on,0,0,8,,,,,,,,,7,,,,57,110
239047,note_on,23,0,8,,,,,,,,,7,,,,65,0
239048,note_on,1,0,13,,,,,,,,,12,,,,60,112
239049,note_on,0,0,4,,,,,,,,,3,,,,60,115
239049,note_on,4,0,4,,,,,,,,,3,,,,66,115
239050,control_change,7,0,5,,,,,,,,,4,11,80,,,
239051,control_change,24,0,14,,,,,,,,,13,11,78,,,
239051,control_change,7,0,6,,,,,,,,,5,11,80,,,
239052,note_on,1,0,14,,,,,,,,,13,,,,57,112
239053,note_on,23,0,9,,,,,,,,,8,,,,50,110
239053,control_change,24,0,15,,,,,,,,,14,11,78,,,
239054,note_on,1,0,15,,,,,,,,,14,,,,38,112
239054,control_change,7,0,8,,,,,,,,,7,11,80,,,
239060,control_change,7,0,9,,,,,,,,,8,11,80,,,
239063,control_change,23,0,11,,,,,,,,,10,11,79,,,
239066,control_change,23,0,12,,,,,,,,,11,11,79,,,
239070,control_change,29,0,1,,,,,,,,,0,11,70,,,
239071,control_change,23,0,13,,,,,,,,,12,11,79,,,
239073,control_change,29,0,2,,,,,,,,,1,11,70,,,
239074,control_change,29,0,3,,,,,,,,,2,11,70,,,
239075,control_change,23,0,14,,,,,,,,,13,11,79,,,
239077,control_change,23,0,15,,,,,,,,,14,11,79,,,
239078,control_change,29,0,4,,,,,,,,,3,11,77,,,
239079,control_change,29,0,5,,,,,,,,,4,11,81,,,
239080,control_change,29,0,6,,,,,,,,,5,11,81,,,
239083,control_change,29,0,8,,,,,,,,,7,11,81,,,
239087,control_change,24,0,11,,,,,,,,,10,11,80,,,
239089,control_change,29,0,9,,,,,,,,,8,11,81,,,
239090,control_change,24,0,12,,,,,,,,,11,11,80,,,
239095,control_change,24,0,13,,,,,,,,,12,11,80,,,
239099,control_change,24,0,14,,,,,,,,,13,11,80,,,
239100,note_on,13,0,11,,,,,,,,,10,,,,66,0
239101,control_change,24,0,15,,,,,,,,,14,11,80,,,
239103,note_on,13,0,12,,,,,,,,,11,,,,60,0
239103,control_change,33,0,1,,,,,,,,,0,11,71,,,
239106,control_change,33,0,2,,,,,,,,,1,11,71,,,
239107,control_change,33,0,3,,,,,,,,,2,11,71,,,
239108,control_change,29,0,5,,,,,,,,,4,11,82,,,
239109,control_change,29,0,6,,,,,,,,,5,11,82,,,
239111,control_change,11,0,11,,,,,,,,,10,11,81,,,
239111,control_change,33,0,4,,,,,,,,,3,11,78,,,
239112,control_change,29,0,8,,,,,,,,,7,11,82,,,
239114,control_change,11,0,12,,,,,,,,,11,11,81,,,
239118,control_change,29,0,9,,,,,,,,,8,11,82,,,
239119,control_change,24,0,13,,,,,,,,,12,11,81,,,
239123,control_change,24,0,14,,,,,,,,,13,11,81,,,
239125,control_change,24,0,15,,,,,,,,,14,11,81,,,
239135,control_change,24,0,11,,,,,,,,,10,11,82,,,
239136,control_change,33,0,1,,,,,,,,,0,11,72,,,
239138,control_change,24,0,12,,,,,,,,,11,11,82,,,
239138,control_change,30,0,5,,,,,,,,,4,11,83,,,
239139,control_change,30,0,6,,,,,,,,,5,11,83,,,
239139,control_change,33,0,2,,,,,,,,,1,11,72,,,
239140,control_change,33,0,3,,,,,,,,,2,11,72,,,
239142,control_change,30,0,8,,,,,,,,,7,11,83,,,
239143,control_change,24,0,13,,,,,,,,,12,11,82,,,
239144,control_change,33,0,4,,,,,,,,,3,11,79,,,
239147,control_change,24,0,14,,,,,,,,,13,11,82,,,
239148,control_change,30,0,9,,,,,,,,,8,11,83,,,
239149,control_change,24,0,15,,,,,,,,,14,11,82,,,
239159,control_change,24,0,11,,,,,,,,,10,11,83,,,
239160,set_tempo,120,1,0,,,,,,307692,,,,,,,,
239160,note_on,1,0,11,,,,,,,,,10,,,,69,93
239162,control_change,24,0,12,,,,,,,,,11,11,83,,,
239163,note_on,1,0,12,,,,,,,,,11,,,,66,93
239167,control_change,24,0,13,,,,,,,,,12,11,83,,,
239167,control_change,29,0,5,,,,,,,,,4,11,84,,,
239168,control_change,29,0,6,,,,,,,,,5,11,84,,,
239169,control_change,33,0,1,,,,,,,,,0,11,73,,,
239171,control_change,24,0,14,,,,,,,,,13,11,83,,,
239171,control_change,29,0,8,,,,,,,,,7,11,84,,,
239172,control_change,33,0,2,,,,,,,,,1,11,73,,,
239173,control_change,33,0,3,,,,,,,,,2,11,73,,,
239173,control_change,24,0,15,,,,,,,,,14,11,83,,,
239177,control_change,33,0,4,,,,,,,,,3,11,80,,,
239177,control_change,29,0,9,,,,,,,,,8,11,84,,,
239183,control_change,23,0,11,,,,,,,,,10,11,84,,,
239186,control_change,23,0,12,,,,,,,,,11,11,84,,,
239191,control_change,24,0,13,,,,,,,,,12,11,84,,,
239195,control_change,24,0,14,,,,,,,,,13,11,84,,,
239196,control_change,29,0,5,,,,,,,,,4,11,85,,,
239197,control_change,29,0,6,,,,,,,,,5,11,85,,,
239197,control_change,24,0,15,,,,,,,,,14,11,84,,,
239200,control_change,29,0,8,,,,,,,,,7,11,85,,,
239202,control_change,33,0,1,,,,,,,,,0,11,73,,,
239205,control_change,33,0,2,,,,,,,,,1,11,73,,,
239206,control_change,29,0,9,,,,,,,,,8,11,85,,,
239206,control_change,33,0,3,,,,,,,,,2,11,73,,,
239207,control_change,24,0,11,,,,,,,,,10,11,85,,,
239210,control_change,24,0,12,,,,,,,,,11,11,85,,,
239210,control_change,33,0,4,,,,,,,,,3,11,81,,,
239215,control_change,24,0,13,,,,,,,,,12,11,85,,,
239219,control_change,24,0,14,,,,,,,,,13,11,85,,,
239220,note_on,13,0,11,,,,,,,,,10,,,,69,0
239221,control_change,24,0,15,,,,,,,,,14,11,85,,,
239223,note_on,13,0,12,,,,,,,,,11,,,,66,0
239226,control_change,30,0,5,,,,,,,,,4,11,86,,,
239227,control_change,30,0,6,,,,,,,,,5,11,86,,,
239230,control_change,30,0,8,,,,,,,,,7,11,86,,,
239231,control_change,11,0,11,,,,,,,,,10,11,86,,,
239233,note_on,0,0,9,,,,,,,,,8,,,,50,110
239233,note_on,27,0,9,,,,,,,,,8,,,,50,0
239234,control_change,11,0,12,,,,,,,,,11,11,86,,,
239234,note_on,0,0,15,,,,,,,,,14,,,,38,112
239234,note_on,13,0,15,,,,,,,,,14,,,,38,0
239235,control_change,33,0,1,,,,,,,,,0,11,74,,,
239236,control_change,3,0,9,,,,,,,,,8,11,86,,,
239238,control_change,33,0,2,,,,,,,,,1,11,74,,,
239239,control_change,24,0,13,,,,,,,,,12,11,86,,,
239239,control_change,33,0,3,,,,,,,,,2,11,74,,,
239243,control_change,33,0,4,,,,,,,,,3,11,82,,,
239243,control_change,24,0,14,,,,,,,,,13,11,86,,,
239245,control_change,11,0,15,,,,,,,,,14,11,86,,,
239255,control_change,24,0,11,,,,,,,,,10,11,87,,,
239255,control_change,29,0,5,,,,,,,,,4,11,87,,,
239256,control_change,29,0,6,,,,,,,,,5,11,87,,,
239258,control_change,24,0,12,,,,,,,,,11,11,87,,,
239259,control_change,29,0,8,,,,,,,,,7,11,87,,,
239263,control_change,24,0,13,,,,,,,,,12,11,87,,,
239265,control_change,29,0,9,,,,,,,,,8,11,87,,,
239267,control_change,24,0,14,,,,,,,,,13,11,87,,,
239268,control_change,33,0,1,,,,,,,,,0,11,75,,,
239269,control_change,24,0,15,,,,,,,,,14,11,87,,,
239271,control_change,33,0,2,,,,,,,,,1,11,75,,,
239272,control_change,33,0,3,,,,,,,,,2,11,75,,,
239276,control_change,33,0,4,,,,,,,,,3,11,83,,,
239279,control_change,24,0,11,,,,,,,,,10,11,87,,,
239280,note_on,1,0,11,,,,,,,,,10,,,,72,93
239280,set_tempo,120,1,0,,,,,,325203,,,,,,,,
239282,control_change,24,0,12,,,,,,,,,11,11,87,,,
239283,note_on,1,0,12,,,,,,,,,11,,,,69,93
239283,note_on,28,0,5,,,,,,,,,4,,,,60,0
239284,control_change,1,0,5,,,,,,,,,4,11,88,,,
239284,note_on,28,0,6,,,,,,,,,5,,,,60,0
239285,control_change,1,0,6,,,,,,,,,5,11,88,,,
239287,control_change,24,0,13,,,,,,,,,12,11,87,,,
239287,note_on,0,0,8,,,,,,,,,7,,,,66,0
239287,note_on,28,0,8,,,,,,,,,7,,,,57,0
239288,control_change,1,0,8,,,,,,,,,7,11,88,,,
239288,note_on,1,0,13,,,,,,,,,12,,,,60,0
239291,control_change,24,0,14,,,,,,,,,13,11,87,,,
239292,note_on,1,0,14,,,,,,,,,13,,,,57,0
239293,note_on,0,0,9,,,,,,,,,8,,,,50,110
239293,note_on,28,0,9,,,,,,,,,8,,,,50,0
239293,control_change,24,0,15,,,,,,,,,14,11,87,,,
239294,note_on,1,0,15,,,,,,,,,14,,,,38,0
239294,control_change,1,0,9,,,,,,,,,8,11,88,,,
239294,note_on,0,0,15,,,,,,,,,14,,,,38,112
239301,control_change,33,0,1,,,,,,,,,0,11,76,,,
239303,control_change,23,0,11,,,,,,,,,10,11,88,,,
239304,control_change,33,0,2,,,,,,,,,1,11,76,,,
239305,control_change,33,0,3,,,,,,,,,2,11,76,,,
239306,control_change,23,0,12,,,,,,,,,11,11,88,,,
239309,control_change,33,0,4,,,,,,,,,3,11,84,,,
239311,control_change,23,0,13,,,,,,,,,12,11,88,,,
239314,control_change,30,0,5,,,,,,,,,4,11,89,,,
239315,control_change,23,0,14,,,,,,,,,13,11,88,,,
239315,control_change,30,0,6,,,,,,,,,5,11,89,,,
239317,control_change,23,0,15,,,,,,,,,14,11,88,,,
239318,control_change,30,0,8,,,,,,,,,7,11,89,,,
239324,control_change,30,0,9,,,,,,,,,8,11,89,,,
239327,control_change,24,0,11,,,,,,,,,10,11,89,,,
239330,control_change,24,0,12,,,,,,,,,11,11,89,,,
239334,control_change,33,0,1,,,,,,,,,0,11,76,,,
239335,control_change,24,0,13,,,,,,,,,12,11,89,,,
239337,control_change,33,0,2,,,,,,,,,1,11,76,,,
239338,control_change,33,0,3,,,,,,,,,2,11,76,,,
239339,control_change,24,0,14,,,,,,,,,13,11,89,,,
239340,note_on,13,0,11,,,,,,,,,10,,,,72,0
239341,control_change,24,0,15,,,,,,,,,14,11,89,,,
239342,control_change,33,0,4,,,,,,,,,3,11,85,,,
239343,note_on,13,0,12,,,,,,,,,11,,,,69,0
239343,control_change,29,0,5,,,,,,,,,4,11,90,,,
239344,control_change,29,0,6,,,,,,,,,5,11,90,,,
239347,control_change,29,0,8,,,,,,,,,7,11,90,,,
239351,control_change,11,0,11,,,,,,,,,10,11,90,,,
239353,control_change,29,0,9,,,,,,,,,8,11,90,,,
239354,control_change,11,0,12,,,,,,,,,11,11,90,,,
239359,control_change,24,0,13,,,,,,,,,12,11,90,,,
239363,control_change,24,0,14,,,,,,,,,13,11,90,,,
239365,control_change,24,0,15,,,,,,,,,14,11,90,,,
239367,control_change,33,0,1,,,,,,,,,0,11,77,,,
239370,control_change,33,0,2,,,,,,,,,1,11,77,,,
239371,control_change,33,0,3,,,,,,,,,2,11,77,,,
239372,control_change,29,0,5,,,,,,,,,4,11,91,,,
239373,control_change,29,0,6,,,,,,,,,5,11,91,,,
239375,control_change,24,0,11,,,,,,,,,10,11,91,,,
239375,control_change,33,0,4,,,,,,,,,3,11,86,,,
239376,control_change,29,0,8,,,,,,,,,7,11,91,,,
239378,control_change,24,0,12,,,,,,,,,11,11,91,,,
239382,control_change,29,0,9,,,,,,,,,8,11,91,,,
239383,control_change,24,0,13,,,,,,,,,12,11,91,,,
239387,control_change,24,0,14,,,,,,,,,13,11,91,,,
239389,control_change,24,0,15,,,,,,,,,14,11,91,,,
239390,note_on,0,0,1,,,,,,,,,0,,,,81,0
239390,note_on,23,0,1,,,,,,,,,0,,,,84,0
239393,note_on,23,0,2,,,,,,,,,1,,,,78,0
239393,note_on,0,0,2,,,,,,,,,1,,,,72,0
239394,note_on,0,0,3,,,,,,,,,2,,,,69,0
239394,note_on,23,0,3,,,,,,,,,2,,,,72,0
239398,note_on,0,0,4,,,,,,,,,3,,,,66,0
239398,note_on,23,0,4,,,,,,,,,3,,,,60,0
239399,control_change,24,0,11,,,,,,,,,10,11,92,,,
239400,set_tempo,120,1,0,,,,,,291262,,,,,,,,
239400,control_change,10,0,1,,,,,,,,,0,11,78,,,
239400,note_on,0,0,11,,,,,,,,,10,,,,64,93
239400,note_on,1,0,11,,,,,,,,,10,,,,73,93
239401,note_on,0,0,1,,,,,,,,,0,,,,85,101
239401,note_on,1,0,1,,,,,,,,,0,,,,81,101
239402,control_change,30,0,5,,,,,,,,,4,11,92,,,
239402,control_change,24,0,12,,,,,,,,,11,11,92,,,
239403,note_on,1,0,12,,,,,,,,,11,,,,69,93
239403,control_change,10,0,2,,,,,,,,,1,11,78,,,
239403,control_change,30,0,6,,,,,,,,,5,11,92,,,
239404,note_on,1,0,2,,,,,,,,,1,,,,76,100
239404,note_on,0,0,2,,,,,,,,,1,,,,73,100
239404,control_change,10,0,3,,,,,,,,,2,11,78,,,
239405,note_on,0,0,3,,,,,,,,,2,,,,73,101
239405,note_on,1,0,3,,,,,,,,,2,,,,69,101
239406,control_change,30,0,8,,,,,,,,,7,11,92,,,
239407,control_change,24,0,13,,,,,,,,,12,11,92,,,
239408,note_on,1,0,13,,,,,,,,,12,,,,52,112
239408,control_change,10,0,4,,,,,,,,,3,11,87,,,
239409,note_on,0,0,4,,,,,,,,,3,,,,64,100
239409,note_on,1,0,4,,,,,,,,,3,,,,61,100
239411,control_change,24,0,14,,,,,,,,,13,11,92,,,
239412,control_change,30,0,9,,,,,,,,,8,11,92,,,
239412,note_on,1,0,14,,,,,,,,,13,,,,49,112
239413,note_on,0,0,9,,,,,,,,,8,,,,49,110
239413,note_on,1,0,9,,,,,,,,,8,,,,50,0
239413,control_change,24,0,15,,,,,,,,,14,11,92,,,
239414,note_on,0,0,15,,,,,,,,,14,,,,37,112
239414,note_on,1,0,15,,,,,,,,,14,,,,38,0
239468,note_on,60,0,13,,,,,,,,,12,,,,52,0
239472,note_on,60,0,14,,,,,,,,,13,,,,49,0
239520,set_tempo,120,1,0,,,,,,307692,,,,,,,,
239528,note_on,60,0,13,,,,,,,,,12,,,,57,112
239532,note_on,60,0,14,,,,,,,,,13,,,,52,112
239583,note_on,181,0,5,,,,,,,,,4,,,,57,100
239584,note_on,181,0,6,,,,,,,,,5,,,,57,100
239587,note_on,181,0,8,,,,,,,,,7,,,,64,110
239587,note_on,0,0,8,,,,,,,,,7,,,,61,110
239588,note_on,60,0,13,,,,,,,,,12,,,,57,0
239592,note_on,60,0,14,,,,,,,,,13,,,,52,0
239640,note_on,0,0,11,,,,,,,,,10,,,,73,0
239640,set_tempo,120,1,0,,,,,,340909,,,,,,,,
239640,note_on,240,0,11,,,,,,,,,10,,,,64,0
239643,note_on,240,0,12,,,,,,,,,11,,,,69,0
239643,note_on,0,0,5,,,,,,,,,4,,,,57,100
239643,note_on,60,0,5,,,,,,,,,4,,,,57,0
239644,note_on,0,0,6,,,,,,,,,5,,,,57,100
239644,note_on,60,0,6,,,,,,,,,5,,,,57,0
239647,note_on,60,0,8,,,,,,,,,7,,,,61,0
239647,note_on,0,0,8,,,,,,,,,7,,,,64,0
239647,note_on,0,0,8,,,,,,,,,7,,,,64,110
239647,note_on,0,0,8,,,,,,,,,7,,,,61,110
239648,note_on,60,0,13,,,,,,,,,12,,,,61,112
239652,note_on,60,0,14,,,,,,,,,13,,,,57,112
239653,note_on,240,0,9,,,,,,,,,8,,,,49,0
239654,note_on,240,0,15,,,,,,,,,14,,,,37,0
239708,note_on,60,0,13,,,,,,,,,12,,,,61,0
239712,note_on,60,0,14,,,,,,,,,13,,,,57,0
239760,note_on,120,0,11,,,,,,,,,10,,,,66,93
239760,set_tempo,120,1,0,,,,,,291262,,,,,,,,
239763,note_on,120,0,5,,,,,,,,,4,,,,57,0
239763,note_on,0,0,5,,,,,,,,,4,,,,57,100
239763,note_on,120,0,12,,,,,,,,,11,,,,62,93
239764,note_on,0,0,2,,,,,,,,,1,,,,78,100
239764,note_on,360,0,2,,,,,,,,,1,,,,76,0
239764,note_on,120,0,6,,,,,,,,,5,,,,57,0
239764,note_on,0,0,6,,,,,,,,,5,,,,57,100
239767,note_on,0,0,8,,,,,,,,,7,,,,64,0
239767,note_on,0,0,8,,,,,,,,,7,,,,61,110
239767,note_on,0,0,8,,,,,,,,,7,,,,66,110
239767,note_on,120,0,8,,,,,,,,,7,,,,61,0
239768,note_on,60,0,13,,,,,,,,,12,,,,66,112
239769,note_on,0,0,4,,,,,,,,,3,,,,61,0
239769,note_on,0,0,4,,,,,,,,,3,,,,66,100
239769,note_on,360,0,4,,,,,,,,,3,,,,64,0
239772,note_on,60,0,14,,,,,,,,,13,,,,57,112
239773,note_on,120,0,9,,,,,,,,,8,,,,47,110
239774,note_on,120,0,15,,,,,,,,,14,,,,35,112
239820,note_on,60,0,11,,,,,,,,,10,,,,66,0
239823,note_on,60,0,12,,,,,,,,,11,,,,62,0
239880,note_on,60,0,11,,,,,,,,,10,,,,69,93
239880,set_tempo,120,1,0,,,,,,307692,,,,,,,,
239881,note_on,480,0,1,,,,,,,,,0,,,,85,0
239881,note_on,0,0,1,,,,,,,,,0,,,,88,101
239883,note_on,60,0,12,,,,,,,,,11,,,,66,93
239884,note_on,0,0,2,,,,,,,,,1,,,,76,100
239884,note_on,120,0,2,,,,,,,,,1,,,,73,0
239885,note_on,480,0,3,,,,,,,,,2,,,,73,0
239885,note_on,0,0,3,,,,,,,,,2,,,,76,101
239940,note_on,60,0,11,,,,,,,,,10,,,,69,0
239943,note_on,60,0,12,,,,,,,,,11,,,,66,0
240000,note_on,60,0,11,,,,,,,,,10,,,,74,93
240000,set_tempo,120,1,0,,,,,,340909,,,,,,,,
240001,note_on,0,0,1,,,,,,,,,0,,,,86,101
240001,note_on,120,0,1,,,,,,,,,0,,,,88,0
240003,note_on,240,0,5,,,,,,,,,4,,,,57,0
240003,note_on,60,0,12,,,,,,,,,11,,,,69,93
240004,note_on,0,0,2,,,,,,,,,1,,,,74,100
240004,note_on,120,0,2,,,,,,,,,1,,,,76,0
240004,note_on,240,0,6,,,,,,,,,5,,,,57,0
240005,note_on,0,0,3,,,,,,,,,2,,,,74,101
240005,note_on,120,0,3,,,,,,,,,2,,,,76,0
240007,note_on,0,0,8,,,,,,,,,7,,,,61,0
240007,note_on,240,0,8,,,,,,,,,7,,,,66,0
240007,note_on,0,0,8,,,,,,,,,7,,,,62,110
240008,note_on,240,0,13,,,,,,,,,12,,,,66,0
240012,note_on,240,0,14,,,,,,,,,13,,,,57,0
240013,note_on,240,0,9,,,,,,,,,8,,,,47,0
240014,note_on,240,0,15,,,,,,,,,14,,,,35,0
240060,note_on,60,0,11,,,,,,,,,10,,,,74,0
240063,note_on,60,0,12,,,,,,,,,11,,,,69,0
240120,note_on,60,0,11,,,,,,,,,10,,,,73,93
240120,set_tempo,120,1,0,,,,,,291262,,,,,,,,
240120,note_on,0,0,11,,,,,,,,,10,,,,64,93
240121,note_on,0,0,1,,,,,,,,,0,,,,85,101
240121,note_on,0,0,1,,,,,,,,,0,,,,81,101
240121,note_on,120,0,1,,,,,,,,,0,,,,86,0
240121,note_on,0,0,1,,,,,,,,,0,,,,81,0
240123,note_on,0,0,12,,,,,,,,,11,,,,69,93
240123,note_on,60,0,12,,,,,,,,,11,,,,61,93
240124,note_on,120,0,2,,,,,,,,,1,,,,74,0
240124,note_on,0,0,2,,,,,,,,,1,,,,76,100
240124,note_on,0,0,2,,,,,,,,,1,,,,73,100
240124,note_on,0,0,2,,,,,,,,,1,,,,78,0
240125,note_on,0,0,3,,,,,,,,,2,,,,69,101
240125,note_on,0,0,3,,,,,,,,,2,,,,69,0
240125,note_on,120,0,3,,,,,,,,,2,,,,74,0
240125,note_on,0,0,3,,,,,,,,,2,,,,73,101
240127,note_on,120,0,8,,,,,,,,,7,,,,62,0
240128,note_on,120,0,13,,,,,,,,,12,,,,52,112
240129,note_on,0,0,4,,,,,,,,,3,,,,64,100
240129,note_on,360,0,4,,,,,,,,,3,,,,66,0
240132,note_on,120,0,14,,,,,,,,,13,,,,49,112
240133,note_on,120,0,9,,,,,,,,,8,,,,49,110
240134,note_on,120,0,15,,,,,,,,,14,,,,37,112
240188,note_on,60,0,13,,,,,,,,,12,,,,52,0
240192,note_on,60,0,14,,,,,,,,,13,,,,49,0
240240,set_tempo,120,1,0,,,,,,307692,,,,,,,,
240248,note_on,60,0,13,,,,,,,,,12,,,,57,112
240252,note_on,60,0,14,,,,,,,,,13,,,,52,112
240303,note_on,300,0,5,,,,,,,,,4,,,,64,100
240304,note_on,300,0,6,,,,,,,,,5,,,,52,100
240307,note_on,0,0,8,,,,,,,,,7,,,,61,110
240307,note_on,180,0,8,,,,,,,,,7,,,,57,110
240308,note_on,60,0,13,,,,,,,,,12,,,,57,0
240312,note_on,60,0,14,,,,,,,,,13,,,,52,0
240313,note_on,180,0,9,,,,,,,,,8,,,,49,0
240313,note_on,0,0,9,,,,,,,,,8,,,,50,110
240314,note_on,0,0,15,,,,,,,,,14,,,,38,112
240314,note_on,180,0,15,,,,,,,,,14,,,,37,0
240360,set_tempo,120,1,0,,,,,,340909,,,,,,,,
240360,note_on,240,0,11,,,,,,,,,10,,,,64,0
240360,note_on,0,0,11,,,,,,,,,10,,,,73,0
240363,note_on,240,0,12,,,,,,,,,11,,,,69,0
240363,note_on,60,0,5,,,,,,,,,4,,,,64,0
240363,note_on,0,0,12,,,,,,,,,11,,,,61,0
240363,note_on,0,0,5,,,,,,,,,4,,,,64,100
240364,note_on,0,0,6,,,,,,,,,5,,,,52,100
240364,note_on,60,0,6,,,,,,,,,5,,,,52,0
240367,note_on,60,0,8,,,,,,,,,7,,,,61,0
240367,note_on,0,0,8,,,,,,,,,7,,,,57,0
240367,note_on,0,0,8,,,,,,,,,7,,,,61,110
240367,note_on,0,0,8,,,,,,,,,7,,,,57,110
240368,note_on,60,0,13,,,,,,,,,12,,,,61,112
240372,note_on,60,0,14,,,,,,,,,13,,,,57,112
240373,note_on,0,0,9,,,,,,,,,8,,,,52,110
240373,note_on,60,0,9,,,,,,,,,8,,,,50,0
240374,note_on,60,0,15,,,,,,,,,14,,,,38,0
240374,note_on,0,0,15,,,,,,,,,14,,,,40,112
240428,note_on,60,0,13,,,,,,,,,12,,,,61,0
240432,note_on,60,0,14,,,,,,,,,13,,,,57,0
240480,note_on,120,0,11,,,,,,,,,10,,,,62,93
240480,set_tempo,120,1,0,,,,,,291262,,,,,,,,
240483,note_on,120,0,12,,,,,,,,,11,,,,64,93
240483,note_on,0,0,5,,,,,,,,,4,,,,64,100
240483,note_on,120,0,5,,,,,,,,,4,,,,64,0
240484,note_on,120,0,6,,,,,,,,,5,,,,52,0
240484,note_on,0,0,6,,,,,,,,,5,,,,52,100
240487,note_on,0,0,8,,,,,,,,,7,,,,56,110
240487,note_on,120,0,8,,,,,,,,,7,,,,61,0
240487,note_on,0,0,8,,,,,,,,,7,,,,59,110
240487,note_on,0,0,8,,,,,,,,,7,,,,57,0
240488,note_on,60,0,13,,,,,,,,,12,,,,64,112
240492,note_on,60,0,14,,,,,,,,,13,,,,52,112
240493,note_on,0,0,9,,,,,,,,,8,,,,52,110
240493,note_on,120,0,9,,,,,,,,,8,,,,52,0
240494,note_on,120,0,15,,,,,,,,,14,,,,40,0
240494,note_on,0,0,15,,,,,,,,,14,,,,40,112
240540,note_on,60,0,11,,,,,,,,,10,,,,62,0
240543,note_on,60,0,12,,,,,,,,,11,,,,64,0
240600,set_tempo,120,1,0,,,,,,307692,,,,,,,,
240600,note_on,60,0,11,,,,,,,,,10,,,,64,93
240601,note_on,480,0,1,,,,,,,,,0,,,,85,0
240601,note_on,0,0,1,,,,,,,,,0,,,,86,101
240603,note_on,60,0,12,,,,,,,,,11,,,,62,93
240604,note_on,0,0,2,,,,,,,,,1,,,,74,100
240604,note_on,480,0,2,,,,,,,,,1,,,,73,0
240605,note_on,480,0,3,,,,,,,,,2,,,,73,0
240605,note_on,0,0,3,,,,,,,,,2,,,,74,101
240660,note_on,60,0,11,,,,,,,,,10,,,,64,0
240663,note_on,60,0,12,,,,,,,,,11,,,,62,0
240720,note_on,60,0,11,,,,,,,,,10,,,,68,93
240720,set_tempo,120,1,0,,,,,,340909,,,,,,,,
240721,note_on,0,0,1,,,,,,,,,0,,,,83,101
240721,note_on,0,0,1,,,,,,,,,0,,,,80,101
240721,note_on,0,0,1,,,,,,,,,0,,,,81,0
240721,note_on,120,0,1,,,,,,,,,0,,,,86,0
240723,note_on,60,0,12,,,,,,,,,11,,,,64,93
240723,note_on,240,0,5,,,,,,,,,4,,,,64,0
240724,note_on,0,0,2,,,,,,,,,1,,,,71,100
240724,note_on,0,0,2,,,,,,,,,1,,,,74,100
240724,note_on,120,0,2,,,,,,,,,1,,,,74,0
240724,note_on,240,0,6,,,,,,,,,5,,,,52,0
240724,note_on,0,0,2,,,,,,,,,1,,,,76,0
240725,note_on,120,0,3,,,,,,,,,2,,,,74,0
240725,note_on,0,0,3,,,,,,,,,2,,,,76,101
240725,note_on,0,0,3,,,,,,,,,2,,,,68,101
240725,note_on,0,0,3,,,,,,,,,2,,,,69,0
240727,note_on,0,0,8,,,,,,,,,7,,,,59,0
240727,note_on,0,0,8,,,,,,,,,7,,,,62,110
240727,note_on,240,0,8,,,,,,,,,7,,,,56,0
240728,note_on,240,0,13,,,,,,,,,12,,,,64,0
240729,note_on,600,0,4,,,,,,,,,3,,,,62,100
240732,note_on,240,0,14,,,,,,,,,13,,,,52,0
240733,note_on,240,0,9,,,,,,,,,8,,,,52,0
240733,note_on,0,0,9,,,,,,,,,8,,,,52,110
240734,note_on,240,0,15,,,,,,,,,14,,,,40,0
240734,note_on,0,0,15,,,,,,,,,14,,,,40,112
240780,note_on,60,0,11,,,,,,,,,10,,,,68,0
240783,note_on,60,0,12,,,,,,,,,11,,,,64,0
240840,note_on,60,0,11,,,,,,,,,10,,,,61,93
240840,note_on,0,0,11,,,,,,,,,10,,,,69,93
240840,set_tempo,120,1,0,,,,,,291262,,,,,,,,
240841,note_on,0,0,1,,,,,,,,,0,,,,80,0
240841,note_on,0,0,1,,,,,,,,,0,,,,81,101
240841,note_on,120,0,1,,,,,,,,,0,,,,83,0
240843,note_on,60,0,12,,,,,,,,,11,,,,57,93
240843,note_on,0,0,12,,,,,,,,,11,,,,64,93
240844,note_on,0,0,2,,,,,,,,,1,,,,69,100
240844,note_on,0,0,2,,,,,,,,,1,,,,73,100
240844,note_on,120,0,2,,,,,,,,,1,,,,74,0
240844,note_on,0,0,2,,,,,,,,,1,,,,71,0
240845,note_on,120,0,3,,,,,,,,,2,,,,76,0
240845,note_on,0,0,3,,,,,,,,,2,,,,68,0
240845,note_on,0,0,3,,,,,,,,,2,,,,69,101
240845,note_on,0,0,3,,,,,,,,,2,,,,76,101
240847,note_on,120,0,8,,,,,,,,,7,,,,62,0
240849,note_on,0,0,4,,,,,,,,,3,,,,64,100
240849,note_on,120,0,4,,,,,,,,,3,,,,62,0
240849,note_on,0,0,4,,,,,,,,,3,,,,64,0
240849,note_on,0,0,4,,,,,,,,,3,,,,61,100
240853,note_on,120,0,9,,,,,,,,,8,,,,52,0
240853,note_on,0,0,9,,,,,,,,,8,,,,45,110
240854,note_on,120,0,15,,,,,,,,,14,,,,40,0
240854,note_on,0,0,15,,,,,,,,,14,,,,33,112
240960,set_tempo,120,1,0,,,,,,307692,,,,,,,,
240968,note_on,240,0,13,,,,,,,,,12,,,,52,112
240972,note_on,240,0,14,,,,,,,,,13,,,,49,112
241023,note_on,300,0,5,,,,,,,,,4,,,,64,100
241024,note_on,300,0,6,,,,,,,,,5,,,,52,100
241027,note_on,180,0,8,,,,,,,,,7,,,,57,110
241027,note_on,0,0,8,,,,,,,,,7,,,,61,110
241028,note_on,60,0,13,,,,,,,,,12,,,,52,0
241032,note_on,60,0,14,,,,,,,,,13,,,,49,0
241080,set_tempo,120,1,0,,,,,,340909,,,,,,,,
241080,note_on,240,0,11,,,,,,,,,10,,,,69,0
241080,note_on,0,0,11,,,,,,,,,10,,,,61,0
241083,note_on,240,0,12,,,,,,,,,11,,,,64,0
241083,note_on,0,0,5,,,,,,,,,4,,,,64,100
241083,note_on,60,0,5,,,,,,,,,4,,,,64,0
241083,note_on,0,0,12,,,,,,,,,11,,,,57,0
241084,note_on,0,0,6,,,,,,,,,5,,,,52,100
241084,note_on,60,0,6,,,,,,,,,5,,,,52,0
241087,note_on,60,0,8,,,,,,,,,7,,,,61,0
241087,note_on,0,0,8,,,,,,,,,7,,,,57,0
241087,note_on,0,0,8,,,,,,,,,7,,,,61,110
241087,note_on,0,0,8,,,,,,,,,7,,,,57,110
241088,note_on,60,0,13,,,,,,,,,12,,,,57,112
241092,note_on,60,0,14,,,,,,,,,13,,,,52,112
241094,note_on,240,0,15,,,,,,,,,14,,,,33,0
241148,note_on,60,0,13,,,,,,,,,12,,,,57,0
241152,note_on,60,0,14,,,,,,,,,13,,,,52,0
241200,set_tempo,120,1,0,,,,,,291262,,,,,,,,
241200,note_on,120,0,11,,,,,,,,,10,,,,57,93
241203,note_on,120,0,5,,,,,,,,,4,,,,64,0
241203,note_on,0,0,5,,,,,,,,,4,,,,64,100
241204,note_on,120,0,6,,,,,,,,,5,,,,52,0
241204,note_on,0,0,6,,,,,,,,,5,,,,52,100
241207,note_on,0,0,8,,,,,,,,,7,,,,61,110
241207,note_on,120,0,8,,,,,,,,,7,,,,57,0
241207,note_on,0,0,8,,,,,,,,,7,,,,61,0
241207,note_on,0,0,8,,,,,,,,,7,,,,57,110
241208,note_on,60,0,13,,,,,,,,,12,,,,61,112
241212,note_on,60,0,14,,,,,,,,,13,,,,57,112
241260,note_on,60,0,11,,,,,,,,,10,,,,57,0
241320,control_change,0,0,11,,,,,,,,,10,11,41,,,
241320,note_on,60,0,11,,,,,,,,,10,,,,61,93
241320,set_tempo,120,1,0,,,,,,315789,,,,,,,,
241321,note_on,480,0,1,,,,,,,,,0,,,,81,0
241323,note_on,240,0,12,,,,,,,,,11,,,,57,93
241323,control_change,0,0,12,,,,,,,,,11,11,41,,,
241324,note_on,480,0,2,,,,,,,,,1,,,,69,0
241324,note_on,0,0,2,,,,,,,,,1,,,,73,0
241325,note_on,480,0,3,,,,,,,,,2,,,,76,0
241325,note_on,0,0,3,,,,,,,,,2,,,,69,0
241329,note_on,480,0,4,,,,,,,,,3,,,,64,0
241329,note_on,0,0,4,,,,,,,,,3,,,,61,0
241333,note_on,480,0,9,,,,,,,,,8,,,,45,0
241380,note_on,60,0,11,,,,,,,,,10,,,,61,0
241383,note_on,60,0,12,,,,,,,,,11,,,,57,0
241394,note_on,0,0,15,,,,,,,,,14,,,,45,112
241394,control_change,300,0,15,,,,,,,,,14,11,41,,,
241440,note_on,60,0,11,,,,,,,,,10,,,,64,93
241440,set_tempo,120,1,0,,,,,,375000,,,,,,,,
241443,note_on,240,0,5,,,,,,,,,4,,,,64,0
241443,note_on,60,0,12,,,,,,,,,11,,,,61,93
241444,note_on,240,0,6,,,,,,,,,5,,,,52,0
241447,note_on,0,0,8,,,,,,,,,7,,,,57,0
241447,note_on,240,0,8,,,,,,,,,7,,,,61,0
241448,note_on,240,0,13,,,,,,,,,12,,,,61,0
241452,note_on,240,0,14,,,,,,,,,13,,,,57,0
241454,note_on,0,0,15,,,,,,,,,14,,,,45,112
241454,note_on,60,0,15,,,,,,,,,14,,,,45,0
241500,note_on,60,0,11,,,,,,,,,10,,,,64,0
241503,note_on,60,0,12,,,,,,,,,11,,,,61,0
241560,note_on,60,0,11,,,,,,,,,10,,,,61,93
241560,set_tempo,120,1,0,,,,,,300000,,,,,,,,
241560,note_on,0,0,11,,,,,,,,,10,,,,69,93
241563,note_on,0,0,12,,,,,,,,,11,,,,66,93
241563,note_on,60,0,12,,,,,,,,,11,,,,57,93
241565,note_on,0,0,3,,,,,,,,,2,,,,69,101
241565,note_on,0,0,3,,,,,,,,,2,,,,66,101
241565,control_change,240,0,3,,,,,,,,,2,11,47,,,
241569,control_change,240,0,4,,,,,,,,,3,11,47,,,
241569,note_on,0,0,4,,,,,,,,,3,,,,61,100
241574,note_on,0,0,15,,,,,,,,,14,,,,42,112
241574,note_on,120,0,15,,,,,,,,,14,,,,45,0
241601,control_change,36,0,3,,,,,,,,,2,11,48,,,
241605,control_change,36,0,4,,,,,,,,,3,11,48,,,
241637,control_change,36,0,3,,,,,,,,,2,11,49,,,
241641,control_change,36,0,4,,,,,,,,,3,11,49,,,
241673,control_change,36,0,3,,,,,,,,,2,11,50,,,
241677,control_change,36,0,4,,,,,,,,,3,11,50,,,
241680,set_tempo,120,1,0,,,,,,315789,,,,,,,,
241688,note_on,0,0,13,,,,,,,,,12,,,,54,112
241688,control_change,240,0,13,,,,,,,,,12,11,41,,,
241692,note_on,0,0,14,,,,,,,,,13,,,,49,112
241692,control_change,240,0,14,,,,,,,,,13,11,41,,,
241709,control_change,36,0,3,,,,,,,,,2,11,51,,,
241713,control_change,36,0,4,,,,,,,,,3,11,51,,,
241714,note_on,5,0,3,,,,,,,,,2,,,,69,0
241714,note_on,0,0,3,,,,,,,,,2,,,,66,0
241718,note_on,5,0,4,,,,,,,,,3,,,,61,0
241745,control_change,0,0,3,,,,,,,,,2,11,52,,,
241745,note_on,0,0,3,,,,,,,,,2,,,,69,101
241745,note_on,31,0,3,,,,,,,,,2,,,,66,101
241748,note_on,60,0,13,,,,,,,,,12,,,,54,0
241749,note_on,31,0,4,,,,,,,,,3,,,,61,100
241749,control_change,0,0,4,,,,,,,,,3,11,52,,,
241752,note_on,60,0,14,,,,,,,,,13,,,,49,0
241781,control_change,36,0,3,,,,,,,,,2,11,52,,,
241785,control_change,36,0,4,,,,,,,,,3,11,53,,,
241795,note_on,0,0,3,,,,,,,,,2,,,,66,0
241795,note_on,14,0,3,,,,,,,,,2,,,,69,0
241799,note_on,14,0,4,,,,,,,,,3,,,,61,0
241800,set_tempo,120,1,0,,,,,,341880,,,,,,,,
241800,note_on,240,0,11,,,,,,,,,10,,,,69,0
241800,note_on,0,0,11,,,,,,,,,10,,,,61,0
241803,note_on,0,0,12,,,,,,,,,11,,,,57,0
241803,note_on,240,0,12,,,,,,,,,11,,,,66,0
241805,note_on,0,0,3,,,,,,,,,2,,,,69,101
241805,note_on,10,0,3,,,,,,,,,2,,,,66,101
241808,note_on,60,0,13,,,,,,,,,12,,,,57,112
241809,note_on,10,0,4,,,,,,,,,3,,,,61,100
241812,note_on,60,0,14,,,,,,,,,13,,,,54,112
241814,note_on,240,0,15,,,,,,,,,14,,,,42,0
241817,control_change,12,0,3,,,,,,,,,2,11,53,,,
241821,control_change,12,0,4,,,,,,,,,3,11,54,,,
241853,control_change,36,0,3,,,,,,,,,2,11,54,,,
241857,control_change,36,0,4,,,,,,,,,3,11,55,,,
241868,note_on,60,0,13,,,,,,,,,12,,,,57,0
241872,note_on,60,0,14,,,,,,,,,13,,,,54,0
241889,control_change,36,0,3,,,,,,,,,2,11,55,,,
241893,control_change,36,0,4,,,,,,,,,3,11,56,,,
241905,note_on,0,0,3,,,,,,,,,2,,,,66,0
241905,note_on,16,0,3,,,,,,,,,2,,,,69,0
241909,note_on,16,0,4,,,,,,,,,3,,,,61,0
241920,set_tempo,120,1,0,,,,,,300000,,,,,,,,
241920,note_on,120,0,11,,,,,,,,,10,,,,61,93
241923,note_on,120,0,12,,,,,,,,,11,,,,57,93
241925,control_change,0,0,3,,,,,,,,,2,11,55,,,
241925,note_on,0,0,3,,,,,,,,,2,,,,69,101
241925,note_on,20,0,3,,,,,,,,,2,,,,66,101
241928,note_on,60,0,13,,,,,,,,,12,,,,61,112
241929,control_change,0,0,4,,,,,,,,,3,11,57,,,
241929,note_on,20,0,4,,,,,,,,,3,,,,61,100
241932,note_on,60,0,14,,,,,,,,,13,,,,57,112
241961,control_change,36,0,3,,,,,,,,,2,11,56,,,
241965,control_change,36,0,4,,,,,,,,,3,11,58,,,
241980,note_on,60,0,11,,,,,,,,,10,,,,61,0
241983,note_on,60,0,12,,,,,,,,,11,,,,57,0
241997,control_change,36,0,3,,,,,,,,,2,11,57,,,
242001,control_change,36,0,4,,,,,,,,,3,11,59,,,
242025,note_on,0,0,3,,,,,,,,,2,,,,66,0
242025,note_on,28,0,3,,,,,,,,,2,,,,69,0
242029,note_on,28,0,4,,,,,,,,,3,,,,61,0
242033,control_change,8,0,3,,,,,,,,,2,11,58,,,
242037,control_change,8,0,4,,,,,,,,,3,11,60,,,
242040,set_tempo,120,1,0,,,,,,315789,,,,,,,,
242040,note_on,60,0,11,,,,,,,,,10,,,,66,93
242043,note_on,60,0,12,,,,,,,,,11,,,,61,93
242045,note_on,0,0,3,,,,,,,,,2,,,,66,101
242045,note_on,12,0,3,,,,,,,,,2,,,,69,101
242049,note_on,12,0,4,,,,,,,,,3,,,,61,100
242069,control_change,24,0,3,,,,,,,,,2,11,58,,,
242073,control_change,24,0,4,,,,,,,,,3,11,61,,,
242100,note_on,60,0,11,,,,,,,,,10,,,,66,0
242103,note_on,60,0,12,,,,,,,,,11,,,,61,0
242105,control_change,36,0,3,,,,,,,,,2,11,59,,,
242109,control_change,36,0,4,,,,,,,,,3,11,62,,,
242114,note_on,300,0,15,,,,,,,,,14,,,,42,112
242141,control_change,36,0,3,,,,,,,,,2,11,60,,,
242145,control_change,36,0,4,,,,,,,,,3,11,63,,,
242145,note_on,0,0,3,,,,,,,,,2,,,,69,0
242145,note_on,4,0,3,,,,,,,,,2,,,,66,0
242149,note_on,4,0,4,,,,,,,,,3,,,,61,0
242160,note_on,60,0,11,,,,,,,,,10,,,,69,93
242160,set_tempo,120,1,0,,,,,,341880,,,,,,,,
242163,note_on,60,0,12,,,,,,,,,11,,,,66,93
242165,note_on,0,0,3,,,,,,,,,2,,,,69,101
242165,note_on,20,0,3,,,,,,,,,2,,,,66,101
242168,note_on,240,0,13,,,,,,,,,12,,,,61,0
242169,note_on,20,0,4,,,,,,,,,3,,,,61,100
242172,note_on,240,0,14,,,,,,,,,13,,,,57,0
242174,note_on,0,0,15,,,,,,,,,14,,,,42,112
242174,note_on,60,0,15,,,,,,,,,14,,,,42,0
242177,control_change,12,0,3,,,,,,,,,2,11,61,,,
242181,control_change,12,0,4,,,,,,,,,3,11,64,,,
242213,control_change,36,0,3,,,,,,,,,2,11,61,,,
242217,control_change,36,0,4,,,,,,,,,3,11,65,,,
242220,note_on,60,0,11,,,,,,,,,10,,,,69,0
242223,note_on,60,0,12,,,,,,,,,11,,,,66,0
242249,control_change,36,0,3,,,,,,,,,2,11,62,,,
242253,control_change,36,0,4,,,,,,,,,3,11,66,,,
242265,note_on,16,0,3,,,,,,,,,2,,,,69,0
242265,note_on,0,0,3,,,,,,,,,2,,,,66,0
242269,note_on,16,0,4,,,,,,,,,3,,,,61,0
242280,set_tempo,120,1,0,,,,,,300000,,,,,,,,
242280,note_on,60,0,11,,,,,,,,,10,,,,73,93
242280,note_on,0,0,11,,,,,,,,,10,,,,64,93
242281,control_change,960,0,1,,,,,,,,,0,11,47,,,
242281,note_on,0,0,1,,,,,,,,,0,,,,76,101
242283,note_on,60,0,12,,,,,,,,,11,,,,69,93
242283,note_on,0,0,12,,,,,,,,,11,,,,61,93
242283,control_change,0,0,5,,,,,,,,,4,11,52,,,
242283,note_on,840,0,5,,,,,,,,,4,,,,64,100
242284,note_on,0,0,2,,,,,,,,,1,,,,73,100
242284,control_change,0,0,2,,,,,,,,,1,11,47,,,
242284,note_on,960,0,2,,,,,,,,,1,,,,69,100
242285,control_change,0,0,3,,,,,,,,,2,11,63,,,
242285,note_on,0,0,3,,,,,,,,,2,,,,64,101
242285,note_on,20,0,3,,,,,,,,,2,,,,76,101
242289,control_change,0,0,4,,,,,,,,,3,11,67,,,
242289,note_on,20,0,4,,,,,,,,,3,,,,61,100
242294,note_on,120,0,15,,,,,,,,,14,,,,42,0
242294,note_on,0,0,15,,,,,,,,,14,,,,37,112
242303,control_change,18,0,3,,,,,,,,,2,11,62,,,
242307,control_change,18,0,4,,,,,,,,,3,11,66,,,
242321,control_change,18,0,3,,,,,,,,,2,11,61,,,
242325,control_change,18,0,4,,,,,,,,,3,11,65,,,
242339,control_change,18,0,3,,,,,,,,,2,11,61,,,
242343,control_change,18,0,4,,,,,,,,,3,11,64,,,
242357,control_change,18,0,3,,,,,,,,,2,11,60,,,
242361,control_change,18,0,4,,,,,,,,,3,11,63,,,
242375,control_change,18,0,3,,,,,,,,,2,11,59,,,
242379,control_change,18,0,4,,,,,,,,,3,11,62,,,
242393,control_change,18,0,3,,,,,,,,,2,11,58,,,
242397,control_change,18,0,4,,,,,,,,,3,11,61,,,
242400,set_tempo,120,1,0,,,,,,315789,,,,,,,,
242408,note_on,240,0,13,,,,,,,,,12,,,,52,112
242411,control_change,18,0,3,,,,,,,,,2,11,58,,,
242412,note_on,240,0,14,,,,,,,,,13,,,,49,112
242415,control_change,18,0,4,,,,,,,,,3,11,60,,,
242429,control_change,18,0,3,,,,,,,,,2,11,57,,,
242433,control_change,18,0,4,,,,,,,,,3,11,59,,,
242447,control_change,18,0,3,,,,,,,,,2,11,56,,,
242451,control_change,18,0,4,,,,,,,,,3,11,58,,,
242465,control_change,18,0,3,,,,,,,,,2,11,55,,,
242468,note_on,60,0,13,,,,,,,,,12,,,,52,0
242469,control_change,18,0,4,,,,,,,,,3,11,57,,,
242472,note_on,60,0,14,,,,,,,,,13,,,,49,0
242483,control_change,18,0,3,,,,,,,,,2,11,55,,,
242487,control_change,18,0,4,,,,,,,,,3,11,56,,,
242501,control_change,18,0,3,,,,,,,,,2,11,54,,,
242505,control_change,18,0,4,,,,,,,,,3,11,55,,,
242519,control_change,18,0,3,,,,,,,,,2,11,53,,,
242520,set_tempo,120,1,0,,,,,,341880,,,,,,,,
242520,note_on,240,0,11,,,,,,,,,10,,,,64,0
242520,note_on,0,0,11,,,,,,,,,10,,,,73,0
242523,note_on,240,0,12,,,,,,,,,11,,,,61,0
242523,control_change,18,0,4,,,,,,,,,3,11,54,,,
242523,note_on,0,0,12,,,,,,,,,11,,,,69,0
242528,note_on,60,0,13,,,,,,,,,12,,,,57,112
242532,note_on,60,0,14,,,,,,,,,13,,,,52,112
242534,note_on,240,0,15,,,,,,,,,14,,,,37,0
242537,control_change,18,0,3,,,,,,,,,2,11,52,,,
242541,control_change,18,0,4,,,,,,,,,3,11,53,,,
242555,control_change,18,0,3,,,,,,,,,2,11,52,,,
242559,control_change,18,0,4,,,,,,,,,3,11,52,,,
242573,control_change,18,0,3,,,,,,,,,2,11,51,,,
242577,control_change,18,0,4,,,,,,,,,3,11,51,,,
242588,note_on,60,0,13,,,,,,,,,12,,,,57,0
242591,control_change,18,0,3,,,,,,,,,2,11,50,,,
242592,note_on,60,0,14,,,,,,,,,13,,,,52,0
242595,control_change,18,0,4,,,,,,,,,3,11,50,,,
242609,control_change,18,0,3,,,,,,,,,2,11,49,,,
242613,control_change,18,0,4,,,,,,,,,3,11,49,,,
242627,control_change,18,0,3,,,,,,,,,2,11,48,,,
242631,control_change,18,0,4,,,,,,,,,3,11,48,,,
242640,set_tempo,120,1,0,,,,,,300000,,,,,,,,
242640,note_on,120,0,11,,,,,,,,,10,,,,57,93
242641,note_on,360,0,1,,,,,,,,,0,,,,76,0
242641,note_on,0,0,1,,,,,,,,,0,,,,69,101
242644,note_on,360,0,2,,,,,,,,,1,,,,73,0
242645,note_on,18,0,3,,,,,,,,,2,,,,76,0
242645,control_change,0,0,3,,,,,,,,,2,11,47,,,
242645,note_on,0,0,3,,,,,,,,,2,,,,69,101
242648,note_on,60,0,13,,,,,,,,,12,,,,61,112
242649,control_change,18,0,4,,,,,,,,,3,11,47,,,
242652,note_on,60,0,14,,,,,,,,,13,,,,57,112
242700,note_on,60,0,11,,,,,,,,,10,,,,57,0
242760,set_tempo,120,1,0,,,,,,315789,,,,,,,,
242760,note_on,60,0,11,,,,,,,,,10,,,,61,93
242761,note_on,120,0,1,,,,,,,,,0,,,,69,0
242763,note_on,240,0,12,,,,,,,,,11,,,,57,93
242763,note_on,480,0,5,,,,,,,,,4,,,,64,0
242764,note_on,120,0,2,,,,,,,,,1,,,,69,0
242765,note_on,120,0,3,,,,,,,,,2,,,,69,0
242765,note_on,0,0,3,,,,,,,,,2,,,,64,0
242769,note_on,120,0,4,,,,,,,,,3,,,,61,0
242820,note_on,60,0,11,,,,,,,,,10,,,,61,0
242823,note_on,60,0,12,,,,,,,,,11,,,,57,0
242834,note_on,300,0,15,,,,,,,,,14,,,,37,112
242880,set_tempo,120,1,0,,,,,,341880,,,,,,,,
242880,note_on,60,0,11,,,,,,,,,10,,,,64,93
242883,note_on,60,0,12,,,,,,,,,11,,,,61,93
242888,note_on,240,0,13,,,,,,,,,12,,,,61,0
242892,note_on,240,0,14,,,,,,,,,13,,,,57,0
242894,note_on,0,0,15,,,,,,,,,14,,,,37,112
242894,note_on,60,0,15,,,,,,,,,14,,,,37,0
242940,note_on,60,0,11,,,,,,,,,10,,,,64,0
242943,note_on,60,0,12,,,,,,,,,11,,,,61,0
243000,set_tempo,120,1,0,,,,,,300000,,,,,,,,
243000,note_on,0,0,11,,,,,,,,,10,,,,69,93
243000,note_on,60,0,11,,,,,,,,,10,,,,61,93
243003,note_on,0,0,12,,,,,,,,,11,,,,66,93
243003,note_on,60,0,12,,,,,,,,,11,,,,57,93
243005,control_change,240,0,3,,,,,,,,,2,11,47,,,
243005,note_on,0,0,3,,,,,,,,,2,,,,69,101
243005,note_on,0,0,3,,,,,,,,,2,,,,66,101
243009,control_change,240,0,4,,,,,,,,,3,11,47,,,
243009,note_on,0,0,4,,,,,,,,,3,,,,61,100
243014,note_on,120,0,15,,,,,,,,,14,,,,37,0
243014,note_on,0,0,15,,,,,,,,,14,,,,42,112
243041,control_change,36,0,3,,,,,,,,,2,11,48,,,
243045,control_change,36,0,4,,,,,,,,,3,11,48,,,
243077,control_change,36,0,3,,,,,,,,,2,11,49,,,
243081,control_change,36,0,4,,,,,,,,,3,11,49,,,
243113,control_change,36,0,3,,,,,,,,,2,11,50,,,
243117,control_change,36,0,4,,,,,,,,,3,11,50,,,
243120,set_tempo,120,1,0,,,,,,315789,,,,,,,,
243128,note_on,240,0,13,,,,,,,,,12,,,,54,112
243132,note_on,240,0,14,,,,,,,,,13,,,,49,112
243149,control_change,36,0,3,,,,,,,,,2,11,51,,,
243153,control_change,36,0,4,,,,,,,,,3,11,51,,,
243154,note_on,5,0,3,,,,,,,,,2,,,,69,0
243154,note_on,0,0,3,,,,,,,,,2,,,,66,0
243158,note_on,5,0,4,,,,,,,,,3,,,,61,0
243185,note_on,0,0,3,,,,,,,,,2,,,,66,101
243185,control_change,0,0,3,,,,,,,,,2,11,52,,,
243185,note_on,31,0,3,,,,,,,,,2,,,,69,101
243188,note_on,60,0,13,,,,,,,,,12,,,,54,0
243189,note_on,31,0,4,,,,,,,,,3,,,,61,100
243189,control_change,0,0,4,,,,,,,,,3,11,52,,,
243192,note_on,60,0,14,,,,,,,,,13,,,,49,0
243221,control_change,36,0,3,,,,,,,,,2,11,52,,,
243225,control_change,36,0,4,,,,,,,,,3,11,53,,,
243235,note_on,14,0,3,,,,,,,,,2,,,,66,0
243235,note_on,0,0,3,,,,,,,,,2,,,,69,0
243239,note_on,14,0,4,,,,,,,,,3,,,,61,0
243240,note_on,240,0,11,,,,,,,,,10,,,,69,0
243240,note_on,0,0,11,,,,,,,,,10,,,,61,0
243240,set_tempo,120,1,0,,,,,,341880,,,,,,,,
243243,note_on,240,0,12,,,,,,,,,11,,,,66,0
243243,note_on,0,0,12,,,,,,,,,11,,,,57,0
243245,note_on,10,0,3,,,,,,,,,2,,,,69,101
243245,note_on,0,0,3,,,,,,,,,2,,,,66,101
243248,note_on,60,0,13,,,,,,,,,12,,,,57,112
243249,note_on,10,0,4,,,,,,,,,3,,,,61,100
243252,note_on,60,0,14,,,,,,,,,13,,,,54,112
243254,note_on,240,0,15,,,,,,,,,14,,,,42,0
243257,control_change,12,0,3,,,,,,,,,2,11,53,,,
243261,control_change,12,0,4,,,,,,,,,3,11,54,,,
243293,control_change,36,0,3,,,,,,,,,2,11,54,,,
243297,control_change,36,0,4,,,,,,,,,3,11,55,,,
243308,note_on,60,0,13,,,,,,,,,12,,,,57,0
243312,note_on,60,0,14,,,,,,,,,13,,,,54,0
243329,control_change,36,0,3,,,,,,,,,2,11,55,,,
243333,control_change,36,0,4,,,,,,,,,3,11,56,,,
243345,note_on,0,0,3,,,,,,,,,2,,,,69,0
243345,note_on,16,0,3,,,,,,,,,2,,,,66,0
243349,note_on,16,0,4,,,,,,,,,3,,,,61,0
243360,set_tempo,120,1,0,,,,,,300000,,,,,,,,
243360,note_on,120,0,11,,,,,,,,,10,,,,61,93
243363,note_on,120,0,12,,,,,,,,,11,,,,57,93
243365,note_on,0,0,3,,,,,,,,,2,,,,69,101
243365,control_change,0,0,3,,,,,,,,,2,11,55,,,
243365,note_on,20,0,3,,,,,,,,,2,,,,66,101
243368,note_on,60,0,13,,,,,,,,,12,,,,61,112
243369,note_on,0,0,4,,,,,,,,,3,,,,61,100
243369,control_change,20,0,4,,,,,,,,,3,11,57,,,
243372,note_on,60,0,14,,,,,,,,,13,,,,57,112
243401,control_change,36,0,3,,,,,,,,,2,11,56,,,
243405,control_change,36,0,4,,,,,,,,,3,11,58,,,
243420,note_on,60,0,11,,,,,,,,,10,,,,61,0
243423,note_on,60,0,12,,,,,,,,,11,,,,57,0
243437,control_change,36,0,3,,,,,,,,,2,11,57,,,
243441,control_change,36,0,4,,,,,,,,,3,11,59,,,
243465,note_on,0,0,3,,,,,,,,,2,,,,66,0
243465,note_on,28,0,3,,,,,,,,,2,,,,69,0
243469,note_on,28,0,4,,,,,,,,,3,,,,61,0
243473,control_change,8,0,3,,,,,,,,,2,11,58,,,
243477,control_change,8,0,4,,,,,,,,,3,11,60,,,
243480,note_on,60,0,11,,,,,,,,,10,,,,66,93
243480,set_tempo,120,1,0,,,,,,315789,,,,,,,,
243483,note_on,60,0,12,,,,,,,,,11,,,,61,93
243485,note_on,12,0,3,,,,,,,,,2,,,,66,101
243485,note_on,0,0,3,,,,,,,,,2,,,,69,101
243489,note_on,12,0,4,,,,,,,,,3,,,,61,100
243509,control_change,24,0,3,,,,,,,,,2,11,58,,,
243513,control_change,24,0,4,,,,,,,,,3,11,61,,,
243540,note_on,60,0,11,,,,,,,,,10,,,,66,0
243543,note_on,60,0,12,,,,,,,,,11,,,,61,0
243545,control_change,36,0,3,,,,,,,,,2,11,59,,,
243549,control_change,36,0,4,,,,,,,,,3,11,62,,,
243554,note_on,300,0,15,,,,,,,,,14,,,,42,112
243581,control_change,36,0,3,,,,,,,,,2,11,60,,,
243585,control_change,36,0,4,,,,,,,,,3,11,63,,,
243585,note_on,4,0,3,,,,,,,,,2,,,,69,0
243585,note_on,0,0,3,,,,,,,,,2,,,,66,0
243589,note_on,4,0,4,,,,,,,,,3,,,,61,0
243600,set_tempo,120,1,0,,,,,,341880,,,,,,,,
243600,note_on,60,0,11,,,,,,,,,10,,,,69,93
243603,note_on,60,0,12,,,,,,,,,11,,,,66,93
243605,note_on,0,0,3,,,,,,,,,2,,,,66,101
243605,note_on,20,0,3,,,,,,,,,2,,,,69,101
243608,note_on,240,0,13,,,,,,,,,12,,,,61,0
243609,note_on,20,0,4,,,,,,,,,3,,,,61,100
243612,note_on,240,0,14,,,,,,,,,13,,,,57,0
243614,note_on,0,0,15,,,,,,,,,14,,,,42,112
243614,note_on,60,0,15,,,,,,,,,14,,,,42,0
243617,control_change,12,0,3,,,,,,,,,2,11,61,,,
243621,control_change,12,0,4,,,,,,,,,3,11,64,,,
243653,control_change,36,0,3,,,,,,,,,2,11,61,,,
243657,control_change,36,0,4,,,,,,,,,3,11,65,,,
243660,note_on,60,0,11,,,,,,,,,10,,,,69,0
243663,note_on,60,0,12,,,,,,,,,11,,,,66,0
243689,control_change,36,0,3,,,,,,,,,2,11,62,,,
243693,control_change,36,0,4,,,,,,,,,3,11,66,,,
243705,note_on,16,0,3,,,,,,,,,2,,,,66,0
243705,note_on,0,0,3,,,,,,,,,2,,,,69,0
243709,note_on,16,0,4,,,,,,,,,3,,,,61,0
243720,set_tempo,120,1,0,,,,,,300000,,,,,,,,
243720,note_on,60,0,11,,,,,,,,,10,,,,64,93
243720,note_on,0,0,11,,,,,,,,,10,,,,73,93
243721,note_on,960,0,1,,,,,,,,,0,,,,76,116
243723,note_on,960,0,5,,,,,,,,,4,,,,64,100
243723,note_on,60,0,12,,,,,,,,,11,,,,69,93
243723,note_on,0,0,12,,,,,,,,,11,,,,61,93
243724,note_on,0,0,2,,,,,,,,,1,,,,69,100
243724,note_on,960,0,2,,,,,,,,,1,,,,73,100
243725,note_on,20,0,3,,,,,,,,,2,,,,76,101
243725,control_change,0,0,3,,,,,,,,,2,11,63,,,
243725,note_on,0,0,3,,,,,,,,,2,,,,64,101
243729,note_on,20,0,4,,,,,,,,,3,,,,61,100
243729,control_change,0,0,4,,,,,,,,,3,11,67,,,
243734,note_on,120,0,15,,,,,,,,,14,,,,42,0
243734,note_on,0,0,15,,,,,,,,,14,,,,37,112
243743,control_change,18,0,3,,,,,,,,,2,11,62,,,
243747,control_change,18,0,4,,,,,,,,,3,11,66,,,
243761,control_change,18,0,3,,,,,,,,,2,11,61,,,
243765,control_change,18,0,4,,,,,,,,,3,11,65,,,
243779,control_change,18,0,3,,,,,,,,,2,11,61,,,
243783,control_change,18,0,4,,,,,,,,,3,11,64,,,
243797,control_change,18,0,3,,,,,,,,,2,11,60,,,
243801,control_change,18,0,4,,,,,,,,,3,11,63,,,
243815,control_change,18,0,3,,,,,,,,,2,11,59,,,
243819,control_change,18,0,4,,,,,,,,,3,11,62,,,
243833,control_change,18,0,3,,,,,,,,,2,11,58,,,
243837,control_change,18,0,4,,,,,,,,,3,11,61,,,
243840,set_tempo,120,1,0,,,,,,315789,,,,,,,,
243848,note_on,240,0,13,,,,,,,,,12,,,,52,112
243851,control_change,18,0,3,,,,,,,,,2,11,58,,,
243852,note_on,240,0,14,,,,,,,,,13,,,,49,112
243855,control_change,18,0,4,,,,,,,,,3,11,60,,,
243869,control_change,18,0,3,,,,,,,,,2,11,57,,,
243873,control_change,18,0,4,,,,,,,,,3,11,59,,,
243887,control_change,18,0,3,,,,,,,,,2,11,56,,,
243891,control_change,18,0,4,,,,,,,,,3,11,58,,,
243901,note_on,180,0,1,,,,,,,,,0,,,,76,0
243901,note_on,0,0,1,,,,,,,,,0,,,,74,101
243904,note_on,180,0,2,,,,,,,,,1,,,,73,0
243904,note_on,0,0,2,,,,,,,,,1,,,,74,100
243905,control_change,0,0,3,,,,,,,,,2,11,55,,,
243905,note_on,18,0,3,,,,,,,,,2,,,,76,0
243905,note_on,0,0,3,,,,,,,,,2,,,,74,101
243908,note_on,60,0,13,,,,,,,,,12,,,,52,0
243909,control_change,18,0,4,,,,,,,,,3,11,57,,,
243912,note_on,60,0,14,,,,,,,,,13,,,,49,0
243923,control_change,18,0,3,,,,,,,,,2,11,55,,,
243927,control_change,18,0,4,,,,,,,,,3,11,56,,,
243941,control_change,18,0,3,,,,,,,,,2,11,54,,,
243945,control_change,18,0,4,,,,,,,,,3,11,55,,,
243959,control_change,18,0,3,,,,,,,,,2,11,53,,,
243960,set_tempo,120,1,0,,,,,,341880,,,,,,,,
243960,note_on,240,0,11,,,,,,,,,10,,,,73,0
243960,note_on,0,0,11,,,,,,,,,10,,,,64,0
243961,note_on,60,0,1,,,,,,,,,0,,,,74,0
243961,note_on,0,0,1,,,,,,,,,0,,,,73,101
243963,note_on,240,0,12,,,,,,,,,11,,,,61,0
243963,note_on,0,0,12,,,,,,,,,11,,,,69,0
243963,control_change,18,0,4,,,,,,,,,3,11,54,,,
243964,note_on,60,0,2,,,,,,,,,1,,,,74,0
243964,note_on,0,0,2,,,,,,,,,1,,,,73,100
243965,note_on,6,0,3,,,,,,,,,2,,,,74,0
243965,note_on,0,0,3,,,,,,,,,2,,,,73,101
243968,note_on,60,0,13,,,,,,,,,12,,,,57,112
243972,note_on,60,0,14,,,,,,,,,13,,,,52,112
243974,note_on,240,0,15,,,,,,,,,14,,,,37,0
243977,control_change,12,0,3,,,,,,,,,2,11,52,,,
243981,control_change,18,0,4,,,,,,,,,3,11,53,,,
243995,control_change,18,0,3,,,,,,,,,2,11,52,,,
243999,control_change,18,0,4,,,,,,,,,3,11,52,,,
244013,control_change,18,0,3,,,,,,,,,2,11,51,,,
244017,control_change,18,0,4,,,,,,,,,3,11,51,,,
244021,note_on,0,0,1,,,,,,,,,0,,,,71,101
244021,note_on,60,0,1,,,,,,,,,0,,,,73,0
244024,note_on,0,0,2,,,,,,,,,1,,,,71,100
244024,note_on,60,0,2,,,,,,,,,1,,,,73,0
244025,note_on,12,0,3,,,,,,,,,2,,,,73,0
244025,note_on,0,0,3,,,,,,,,,2,,,,71,101
244028,note_on,60,0,13,,,,,,,,,12,,,,57,0
244031,control_change,6,0,3,,,,,,,,,2,11,50,,,
244032,note_on,60,0,14,,,,,,,,,13,,,,52,0
244035,control_change,18,0,4,,,,,,,,,3,11,50,,,
244049,control_change,18,0,3,,,,,,,,,2,11,49,,,
244053,control_change,18,0,4,,,,,,,,,3,11,49,,,
244067,control_change,18,0,3,,,,,,,,,2,11,48,,,
244071,control_change,18,0,4,,,,,,,,,3,11,48,,,
244080,note_on,120,0,11,,,,,,,,,10,,,,64,93
244080,set_tempo,120,1,0,,,,,,300000,,,,,,,,
244081,note_on,60,0,1,,,,,,,,,0,,,,71,0
244081,note_on,0,0,1,,,,,,,,,0,,,,69,101
244083,note_on,120,0,12,,,,,,,,,11,,,,61,93
244084,note_on,60,0,2,,,,,,,,,1,,,,71,0
244085,note_on,18,0,3,,,,,,,,,2,,,,71,0
244085,note_on,0,0,3,,,,,,,,,2,,,,69,101
244085,control_change,0,0,3,,,,,,,,,2,11,47,,,
244088,note_on,60,0,13,,,,,,,,,12,,,,61,112
244089,control_change,18,0,4,,,,,,,,,3,11,47,,,
244092,note_on,60,0,14,,,,,,,,,13,,,,57,112
244140,note_on,60,0,11,,,,,,,,,10,,,,64,0
244143,note_on,60,0,12,,,,,,,,,11,,,,61,0
244200,set_tempo,120,1,0,,,,,,315789,,,,,,,,
244200,note_on,60,0,11,,,,,,,,,10,,,,69,93
244201,note_on,120,0,1,,,,,,,,,0,,,,69,0
244203,note_on,480,0,5,,,,,,,,,4,,,,64,0
244203,note_on,60,0,12,,,,,,,,,11,,,,64,93
244204,note_on,120,0,2,,,,,,,,,1,,,,69,0
244205,note_on,0,0,3,,,,,,,,,2,,,,64,0
244205,note_on,120,0,3,,,,,,,,,2,,,,69,0
244209,note_on,120,0,4,,,,,,,,,3,,,,61,0
244260,note_on,60,0,11,,,,,,,,,10,,,,69,0
244263,note_on,60,0,12,,,,,,,,,11,,,,64,0
244274,note_on,300,0,15,,,,,,,,,14,,,,33,112
244320,note_on,60,0,11,,,,,,,,,10,,,,73,93
244320,set_tempo,120,1,0,,,,,,365854,,,,,,,,
244321,note_on,120,0,1,,,,,,,,,0,,,,73,101
244323,note_on,60,0,12,,,,,,,,,11,,,,69,93
244325,note_on,120,0,3,,,,,,,,,2,,,,73,101
244328,note_on,240,0,13,,,,,,,,,12,,,,61,0
244332,note_on,240,0,14,,,,,,,,,13,,,,57,0
244334,note_on,60,0,15,,,,,,,,,14,,,,33,0
244334,note_on,0,0,15,,,,,,,,,14,,,,33,112
244380,note_on,60,0,11,,,,,,,,,10,,,,73,0
244383,note_on,60,0,12,,,,,,,,,11,,,,69,0
244440,note_on,60,0,11,,,,,,,,,10,,,,71,93
244440,set_tempo,120,1,0,,,,,,306122,,,,,,,,
244441,note_on,0,0,1,,,,,,,,,0,,,,71,101
244441,note_on,120,0,1,,,,,,,,,0,,,,73,0
244443,note_on,60,0,12,,,,,,,,,11,,,,66,93
244445,note_on,120,0,3,,,,,,,,,2,,,,73,0
244445,note_on,0,0,3,,,,,,,,,2,,,,69,101
244445,note_on,0,0,3,,,,,,,,,2,,,,71,101
244448,note_on,120,0,13,,,,,,,,,12,,,,59,112
244449,note_on,240,0,4,,,,,,,,,3,,,,66,100
244452,note_on,120,0,14,,,,,,,,,13,,,,54,112
244454,note_on,120,0,15,,,,,,,,,14,,,,33,0
244454,note_on,0,0,15,,,,,,,,,14,,,,38,112
244508,note_on,60,0,13,,,,,,,,,12,,,,59,0
244512,note_on,60,0,14,,,,,,,,,13,,,,54,0
244560,set_tempo,120,1,0,,,,,,321716,,,,,,,,
244568,note_on,60,0,13,,,,,,,,,12,,,,62,112
244572,note_on,60,0,14,,,,,,,,,13,,,,59,112
244621,note_on,0,0,1,,,,,,,,,0,,,,73,101
244621,note_on,180,0,1,,,,,,,,,0,,,,71,0
244625,note_on,180,0,3,,,,,,,,,2,,,,71,0
244625,note_on,0,0,3,,,,,,,,,2,,,,73,101
244628,note_on,60,0,13,,,,,,,,,12,,,,62,0
244632,note_on,60,0,14,,,,,,,,,13,,,,59,0
244680,note_on,240,0,11,,,,,,,,,10,,,,71,0
244680,set_tempo,120,1,0,,,,,,352941,,,,,,,,
244681,note_on,60,0,1,,,,,,,,,0,,,,73,0
244681,note_on,0,0,1,,,,,,,,,0,,,,71,101
244683,note_on,240,0,12,,,,,,,,,11,,,,66,0
244685,note_on,60,0,3,,,,,,,,,2,,,,73,0
244685,note_on,0,0,3,,,,,,,,,2,,,,71,101
244688,note_on,60,0,13,,,,,,,,,12,,,,66,112
244692,note_on,60,0,14,,,,,,,,,13,,,,62,112
244694,note_on,240,0,15,,,,,,,,,14,,,,38,0
244748,note_on,60,0,13,,,,,,,,,12,,,,66,0
244752,note_on,60,0,14,,,,,,,,,13,,,,62,0
244800,note_on,120,0,11,,,,,,,,,10,,,,68,93
244800,set_tempo,120,1,0,,,,,,306122,,,,,,,,
244801,note_on,120,0,1,,,,,,,,,0,,,,71,0
244801,note_on,0,0,1,,,,,,,,,0,,,,74,101
244803,note_on,120,0,12,,,,,,,,,11,,,,62,93
244805,note_on,120,0,3,,,,,,,,,2,,,,71,0
244805,note_on,0,0,3,,,,,,,,,2,,,,69,0
244805,note_on,0,0,3,,,,,,,,,2,,,,74,101
244805,note_on,0,0,3,,,,,,,,,2,,,,68,101
244808,note_on,60,0,13,,,,,,,,,12,,,,59,112
244809,note_on,360,0,4,,,,,,,,,3,,,,66,0
244809,note_on,0,0,4,,,,,,,,,3,,,,64,100
244812,note_on,60,0,14,,,,,,,,,13,,,,52,112
244814,note_on,120,0,15,,,,,,,,,14,,,,40,112
244868,note_on,60,0,13,,,,,,,,,12,,,,59,0
244872,note_on,60,0,14,,,,,,,,,13,,,,52,0
244920,set_tempo,120,1,0,,,,,,324324,,,,,,,,
244921,note_on,0,0,1,,,,,,,,,0,,,,73,101
244921,note_on,120,0,1,,,,,,,,,0,,,,74,0
244925,note_on,0,0,3,,,,,,,,,2,,,,73,101
244925,note_on,120,0,3,,,,,,,,,2,,,,74,0
244928,note_on,60,0,13,,,,,,,,,12,,,,62,112
244932,note_on,60,0,14,,,,,,,,,13,,,,59,112
244988,note_on,60,0,13,,,,,,,,,12,,,,62,0
244992,note_on,60,0,14,,,,,,,,,13,,,,59,0
245040,set_tempo,120,1,0,,,,,,346821,,,,,,,,
245040,note_on,240,0,11,,,,,,,,,10,,,,68,0
245041,note_on,120,0,1,,,,,,,,,0,,,,73,0
245041,note_on,0,0,1,,,,,,,,,0,,,,71,101
245043,note_on,240,0,12,,,,,,,,,11,,,,62,0
245045,note_on,120,0,3,,,,,,,,,2,,,,73,0
245045,note_on,0,0,3,,,,,,,,,2,,,,71,101
245048,note_on,60,0,13,,,,,,,,,12,,,,64,112
245049,note_on,240,0,4,,,,,,,,,3,,,,62,100
245052,note_on,60,0,14,,,,,,,,,13,,,,62,112
245054,note_on,240,0,15,,,,,,,,,14,,,,40,0
245108,note_on,60,0,13,,,,,,,,,12,,,,64,0
245112,note_on,60,0,14,,,,,,,,,13,,,,62,0
245160,set_tempo,120,1,0,,,,,,302267,,,,,,,,
245160,note_on,120,0,11,,,,,,,,,10,,,,69,93
245161,note_on,0,0,1,,,,,,,,,0,,,,69,101
245161,note_on,120,0,1,,,,,,,,,0,,,,71,0
245163,note_on,120,0,12,,,,,,,,,11,,,,61,93
245165,note_on,0,0,3,,,,,,,,,2,,,,69,101
245165,note_on,0,0,3,,,,,,,,,2,,,,68,0
245165,note_on,120,0,3,,,,,,,,,2,,,,71,0
245168,note_on,0,0,13,,,,,,,,,12,,,,64,112
245168,note_on,60,0,13,,,,,,,,,12,,,,61,112
245169,note_on,120,0,4,,,,,,,,,3,,,,62,0
245169,note_on,0,0,4,,,,,,,,,3,,,,64,100
245169,note_on,0,0,4,,,,,,,,,3,,,,61,100
245169,note_on,0,0,4,,,,,,,,,3,,,,64,0
245172,note_on,60,0,14,,,,,,,,,13,,,,61,112
245174,note_on,120,0,15,,,,,,,,,14,,,,33,112
245220,note_on,60,0,11,,,,,,,,,10,,,,69,0
245223,note_on,60,0,12,,,,,,,,,11,,,,61,0
245232,note_on,60,0,14,,,,,,,,,13,,,,61,0
245280,note_on,60,0,11,,,,,,,,,10,,,,64,93
245280,set_tempo,120,1,0,,,,,,314136,,,,,,,,
245283,note_on,60,0,12,,,,,,,,,11,,,,64,93
245292,note_on,60,0,14,,,,,,,,,13,,,,52,112
245340,note_on,60,0,11,,,,,,,,,10,,,,64,0
245343,note_on,60,0,12,,,,,,,,,11,,,,64,0
245352,note_on,60,0,14,,,,,,,,,13,,,,52,0
245400,set_tempo,120,1,0,,,,,,361446,,,,,,,,
245400,note_on,60,0,11,,,,,,,,,10,,,,61,93
245403,note_on,60,0,12,,,,,,,,,11,,,,61,93
245412,note_on,60,0,14,,,,,,,,,13,,,,49,112
245414,note_on,240,0,15,,,,,,,,,14,,,,33,0
245460,note_on,60,0,11,,,,,,,,,10,,,,61,0
245463,note_on,60,0,12,,,,,,,,,11,,,,61,0
245472,note_on,60,0,14,,,,,,,,,13,,,,49,0
245520,note_on,60,0,11,,,,,,,,,10,,,,57,84
245520,set_tempo,120,1,0,,,,,,300752,,,,,,,,
245523,note_on,60,0,12,,,,,,,,,11,,,,57,84
245532,note_on,60,0,14,,,,,,,,,13,,,,45,112
245580,note_on,60,0,11,,,,,,,,,10,,,,57,0
245583,note_on,60,0,12,,,,,,,,,11,,,,57,0
245592,note_on,60,0,14,,,,,,,,,13,,,,45,0
245640,control_change,60,0,11,,,,,,,,,10,11,83,,,
245640,note_on,0,0,11,,,,,,,,,10,,,,61,93
245640,set_tempo,120,1,0,,,,,,319149,,,,,,,,
245641,note_on,480,0,1,,,,,,,,,0,,,,69,0
245643,note_on,0,0,12,,,,,,,,,11,,,,61,93
245643,control_change,60,0,12,,,,,,,,,11,11,83,,,
245645,note_on,480,0,3,,,,,,,,,2,,,,69,0
245648,note_on,0,0,13,,,,,,,,,12,,,,61,0
245648,note_on,0,0,13,,,,,,,,,12,,,,61,112
245648,control_change,0,0,13,,,,,,,,,12,11,83,,,
245648,note_on,480,0,13,,,,,,,,,12,,,,64,0
245649,note_on,0,0,4,,,,,,,,,3,,,,61,0
245649,note_on,480,0,4,,,,,,,,,3,,,,64,0
245652,note_on,60,0,14,,,,,,,,,13,,,,49,112
245652,control_change,0,0,14,,,,,,,,,13,11,83,,,
245654,note_on,0,0,15,,,,,,,,,14,,,,37,112
245654,control_change,240,0,15,,,,,,,,,14,11,83,,,
245700,note_on,60,0,11,,,,,,,,,10,,,,61,0
245703,note_on,60,0,12,,,,,,,,,11,,,,61,0
245708,note_on,60,0,13,,,,,,,,,12,,,,61,0
245712,note_on,60,0,14,,,,,,,,,13,,,,49,0
245760,note_on,60,0,11,,,,,,,,,10,,,,63,93
245760,set_tempo,120,1,0,,,,,,355030,,,,,,,,
245763,note_on,60,0,12,,,,,,,,,11,,,,63,93
245768,note_on,60,0,13,,,,,,,,,12,,,,63,112
245772,note_on,60,0,14,,,,,,,,,13,,,,51,112
245774,note_on,0,0,15,,,,,,,,,14,,,,39,112
245774,note_on,120,0,15,,,,,,,,,14,,,,37,0
245820,note_on,60,0,11,,,,,,,,,10,,,,63,0
245821,control_change,180,0,1,,,,,,,,,0,11,70,,,
245821,note_on,0,0,1,,,,,,,,,0,,,,83,101
245821,note_on,0,0,1,,,,,,,,,0,,,,86,101
245823,note_on,60,0,12,,,,,,,,,11,,,,63,0
245824,note_on,0,0,2,,,,,,,,,1,,,,71,100
245824,note_on,1620,0,2,,,,,,,,,1,,,,74,100
245824,control_change,0,0,2,,,,,,,,,1,11,70,,,
245825,control_change,0,0,3,,,,,,,,,2,11,70,,,
245825,note_on,0,0,3,,,,,,,,,2,,,,71,101
245825,note_on,180,0,3,,,,,,,,,2,,,,74,101
245828,note_on,60,0,13,,,,,,,,,12,,,,63,0
245829,note_on,0,0,4,,,,,,,,,3,,,,59,100
245829,control_change,180,0,4,,,,,,,,,3,11,77,,,
245829,note_on,0,0,4,,,,,,,,,3,,,,62,100
245832,note_on,60,0,14,,,,,,,,,13,,,,51,0
245880,set_tempo,120,1,0,,,,,,287770,,,,,,,,
245880,note_on,60,0,11,,,,,,,,,10,,,,64,93
245881,note_on,60,0,1,,,,,,,,,0,,,,86,0
245881,note_on,0,0,1,,,,,,,,,0,,,,86,116
245881,note_on,0,0,1,,,,,,,,,0,,,,83,116
245881,note_on,0,0,1,,,,,,,,,0,,,,83,0
245882,control_change,22560,0,7,,,,,,,,,6,11,82,,,
245883,note_on,60,0,12,,,,,,,,,11,,,,64,93
245883,control_change,1680,0,5,,,,,,,,,4,11,82,,,
245883,note_on,0,0,5,,,,,,,,,4,,,,64,100
245884,note_on,4440,0,6,,,,,,,,,5,,,,52,100
245884,note_on,0,0,2,,,,,,,,,1,,,,71,115
245884,note_on,60,0,2,,,,,,,,,1,,,,71,0
245884,note_on,0,0,2,,,,,,,,,1,,,,74,0
245884,note_on,0,0,2,,,,,,,,,1,,,,74,115
245884,control_change,0,0,6,,,,,,,,,5,11,82,,,
245885,note_on,60,0,3,,,,,,,,,2,,,,71,0
245885,note_on,0,0,3,,,,,,,,,2,,,,74,0
245885,note_on,0,0,3,,,,,,,,,2,,,,71,116
245885,note_on,0,0,3,,,,,,,,,2,,,,74,116
245887,note_on,0,0,8,,,,,,,,,7,,,,59,125
245887,control_change,0,0,8,,,,,,,,,7,11,82,,,
245887,note_on,4440,0,8,,,,,,,,,7,,,,56,125
245888,note_on,60,0,13,,,,,,,,,12,,,,64,127
245889,note_on,0,0,4,,,,,,,,,3,,,,59,115
245889,note_on,0,0,4,,,,,,,,,3,,,,62,0
245889,note_on,60,0,4,,,,,,,,,3,,,,59,0
245889,note_on,0,0,4,,,,,,,,,3,,,,62,115
245892,note_on,60,0,14,,,,,,,,,13,,,,52,127
245893,control_change,0,0,9,,,,,,,,,8,11,82,,,
245893,note_on,4560,0,9,,,,,,,,,8,,,,52,125
245894,note_on,120,0,15,,,,,,,,,14,,,,39,0
245894,note_on,0,0,15,,,,,,,,,14,,,,40,127
245940,note_on,60,0,11,,,,,,,,,10,,,,64,0
245943,note_on,60,0,12,,,,,,,,,11,,,,64,0
246000,set_tempo,120,1,0,,,,,,305344,,,,,,,,
246000,note_on,60,0,11,,,,,,,,,10,,,,68,93
246003,note_on,60,0,12,,,,,,,,,11,,,,64,93
246060,note_on,60,0,11,,,,,,,,,10,,,,68,0
246063,note_on,180,0,5,,,,,,,,,4,,,,64,0
246063,note_on,0,0,5,,,,,,,,,4,,,,64,100
246063,note_on,60,0,12,,,,,,,,,11,,,,64,0
246064,note_on,180,0,6,,,,,,,,,5,,,,52,0
246064,note_on,0,0,6,,,,,,,,,5,,,,52,100
246067,note_on,0,0,8,,,,,,,,,7,,,,56,0
246067,note_on,0,0,8,,,,,,,,,7,,,,56,110
246067,note_on,0,0,8,,,,,,,,,7,,,,59,110
246067,note_on,180,0,8,,,,,,,,,7,,,,59,0
246120,set_tempo,120,1,0,,,,,,315789,,,,,,,,
246120,note_on,60,0,11,,,,,,,,,10,,,,71,93
246123,note_on,0,0,5,,,,,,,,,4,,,,64,100
246123,note_on,60,0,5,,,,,,,,,4,,,,64,0
246123,note_on,60,0,12,,,,,,,,,11,,,,68,93
246124,note_on,0,0,6,,,,,,,,,5,,,,52,100
246124,note_on,60,0,6,,,,,,,,,5,,,,52,0
246127,note_on,0,0,8,,,,,,,,,7,,,,59,110
246127,note_on,60,0,8,,,,,,,,,7,,,,59,0
246127,note_on,0,0,8,,,,,,,,,7,,,,56,0
246127,note_on,0,0,8,,,,,,,,,7,,,,56,110
246128,note_on,240,0,13,,,,,,,,,12,,,,64,0
246132,note_on,240,0,14,,,,,,,,,13,,,,52,0
246133,note_on,240,0,9,,,,,,,,,8,,,,52,0
246134,note_on,240,0,15,,,,,,,,,14,,,,40,0
246180,note_on,60,0,11,,,,,,,,,10,,,,71,0
246183,note_on,60,0,12,,,,,,,,,11,,,,68,0
246240,set_tempo,120,1,0,,,,,,280374,,,,,,,,
246240,note_on,0,0,11,,,,,,,,,10,,,,64,93
246240,note_on,60,0,11,,,,,,,,,10,,,,74,93
246243,note_on,120,0,5,,,,,,,,,4,,,,64,0
246243,note_on,60,0,12,,,,,,,,,11,,,,71,93
246243,note_on,0,0,12,,,,,,,,,11,,,,68,93
246243,note_on,0,0,5,,,,,,,,,4,,,,64,115
246244,note_on,0,0,6,,,,,,,,,5,,,,52,115
246244,note_on,120,0,6,,,,,,,,,5,,,,52,0
246247,note_on,120,0,8,,,,,,,,,7,,,,59,0
246247,note_on,0,0,8,,,,,,,,,7,,,,56,0
246247,note_on,0,0,8,,,,,,,,,7,,,,56,125
246247,note_on,0,0,8,,,,,,,,,7,,,,59,125
246248,note_on,120,0,13,,,,,,,,,12,,,,59,112
246252,note_on,120,0,14,,,,,,,,,13,,,,52,112
246308,note_on,60,0,13,,,,,,,,,12,,,,59,0
246312,note_on,60,0,14,,,,,,,,,13,,,,52,0
246360,set_tempo,120,1,0,,,,,,294840,,,,,,,,
246361,note_on,0,0,1,,,,,,,,,0,,,,81,101
246361,note_on,480,0,1,,,,,,,,,0,,,,86,0
246361,note_on,0,0,1,,,,,,,,,0,,,,85,101
246361,note_on,0,0,1,,,,,,,,,0,,,,83,0
246364,note_on,480,0,2,,,,,,,,,1,,,,74,0
246364,note_on,0,0,2,,,,,,,,,1,,,,73,100
246364,note_on,0,0,2,,,,,,,,,1,,,,71,0
246364,note_on,0,0,2,,,,,,,,,1,,,,69,100
246365,note_on,0,0,3,,,,,,,,,2,,,,73,101
246365,note_on,0,0,3,,,,,,,,,2,,,,69,101
246365,note_on,0,0,3,,,,,,,,,2,,,,71,0
246365,note_on,480,0,3,,,,,,,,,2,,,,74,0
246368,note_on,60,0,13,,,,,,,,,12,,,,62,112
246369,note_on,480,0,4,,,,,,,,,3,,,,59,0
246369,note_on,0,0,4,,,,,,,,,3,,,,62,0
246369,note_on,0,0,4,,,,,,,,,3,,,,61,100
246369,note_on,0,0,4,,,,,,,,,3,,,,57,100
246372,note_on,60,0,14,,,,,,,,,13,,,,56,112
246428,note_on,60,0,13,,,,,,,,,12,,,,62,0
246432,note_on,60,0,14,,,,,,,,,13,,,,56,0
246433,note_on,300,0,9,,,,,,,,,8,,,,52,110
246434,note_on,300,0,15,,,,,,,,,14,,,,40,112
246480,note_on,0,0,11,,,,,,,,,10,,,,74,0
246480,set_tempo,120,1,0,,,,,,315789,,,,,,,,
246480,note_on,240,0,11,,,,,,,,,10,,,,64,0
246481,note_on,0,0,1,,,,,,,,,0,,,,81,0
246481,note_on,120,0,1,,,,,,,,,0,,,,85,0
246481,note_on,0,0,1,,,,,,,,,0,,,,76,101
246481,note_on,0,0,1,,,,,,,,,0,,,,83,101
246483,note_on,240,0,5,,,,,,,,,4,,,,64,0
246483,note_on,0,0,12,,,,,,,,,11,,,,71,0
246483,note_on,240,0,12,,,,,,,,,11,,,,68,0
246484,note_on,240,0,6,,,,,,,,,5,,,,52,0
246484,note_on,120,0,2,,,,,,,,,1,,,,73,0
246484,note_on,0,0,2,,,,,,,,,1,,,,69,0
246484,note_on,0,0,2,,,,,,,,,1,,,,71,100
246484,note_on,0,0,2,,,,,,,,,1,,,,64,100
246485,note_on,120,0,3,,,,,,,,,2,,,,69,0
246485,note_on,0,0,3,,,,,,,,,2,,,,73,0
246485,note_on,0,0,3,,,,,,,,,2,,,,71,101
246485,note_on,0,0,3,,,,,,,,,2,,,,64,101
246487,note_on,0,0,8,,,,,,,,,7,,,,59,0
246487,note_on,240,0,8,,,,,,,,,7,,,,56,0
246488,note_on,60,0,13,,,,,,,,,12,,,,64,112
246489,note_on,0,0,4,,,,,,,,,3,,,,59,100
246489,note_on,0,0,4,,,,,,,,,3,,,,52,100
246489,note_on,0,0,4,,,,,,,,,3,,,,61,0
246489,note_on,120,0,4,,,,,,,,,3,,,,57,0
246492,note_on,60,0,14,,,,,,,,,13,,,,59,112
246493,note_on,60,0,9,,,,,,,,,8,,,,52,0
246493,note_on,0,0,9,,,,,,,,,8,,,,52,110
246494,note_on,0,0,15,,,,,,,,,14,,,,40,112
246494,note_on,60,0,15,,,,,,,,,14,,,,40,0
246548,note_on,60,0,13,,,,,,,,,12,,,,64,0
246552,note_on,60,0,14,,,,,,,,,13,,,,59,0
246596,note_on,115,0,1,,,,,,,,,0,,,,76,0
246596,note_on,0,0,1,,,,,,,,,0,,,,83,0
246599,note_on,115,0,2,,,,,,,,,1,,,,64,0
246599,note_on,0,0,2,,,,,,,,,1,,,,71,0
246600,note_on,0,0,3,,,,,,,,,2,,,,64,0
246600,set_tempo,120,1,0,,,,,,275229,,,,,,,,
246600,note_on,115,0,3,,,,,,,,,2,,,,71,0
246601,note_on,0,0,1,,,,,,,,,0,,,,90,116
246601,note_on,5,0,1,,,,,,,,,0,,,,86,116
246604,note_on,0,0,2,,,,,,,,,1,,,,74,115
246604,note_on,0,0,4,,,,,,,,,3,,,,52,0
246604,note_on,5,0,2,,,,,,,,,1,,,,78,115
246604,note_on,115,0,4,,,,,,,,,3,,,,59,0
246605,note_on,5,0,3,,,,,,,,,2,,,,78,116
246605,note_on,0,0,3,,,,,,,,,2,,,,74,116
246608,note_on,60,0,13,,,,,,,,,12,,,,59,127
246608,note_on,0,0,13,,,,,,,,,12,,,,68,127
246609,note_on,0,0,4,,,,,,,,,3,,,,62,115
246609,note_on,5,0,4,,,,,,,,,3,,,,66,115
246612,note_on,60,0,14,,,,,,,,,13,,,,59,127
246613,note_on,0,0,9,,,,,,,,,8,,,,52,125
246613,note_on,120,0,9,,,,,,,,,8,,,,52,0
246614,note_on,120,0,15,,,,,,,,,14,,,,40,0
246614,note_on,0,0,15,,,,,,,,,14,,,,40,127
246720,set_tempo,120,1,0,,,,,,288462,,,,,,,,
246720,note_on,240,0,11,,,,,,,,,10,,,,68,93
246721,note_on,0,0,1,,,,,,,,,0,,,,86,0
246721,note_on,120,0,1,,,,,,,,,0,,,,90,0
246721,note_on,0,0,1,,,,,,,,,0,,,,85,101
246721,note_on,0,0,1,,,,,,,,,0,,,,88,101
246723,note_on,240,0,12,,,,,,,,,11,,,,64,93
246724,note_on,120,0,2,,,,,,,,,1,,,,74,0
246724,note_on,0,0,2,,,,,,,,,1,,,,78,0
246724,note_on,0,0,2,,,,,,,,,1,,,,73,100
246724,note_on,0,0,2,,,,,,,,,1,,,,76,100
246725,note_on,120,0,3,,,,,,,,,2,,,,74,0
246725,note_on,0,0,3,,,,,,,,,2,,,,76,101
246725,note_on,0,0,3,,,,,,,,,2,,,,78,0
246725,note_on,0,0,3,,,,,,,,,2,,,,73,101
246729,note_on,0,0,4,,,,,,,,,3,,,,64,100
246729,note_on,0,0,4,,,,,,,,,3,,,,61,100
246729,note_on,0,0,4,,,,,,,,,3,,,,66,0
246729,note_on,120,0,4,,,,,,,,,3,,,,62,0
246780,note_on,60,0,11,,,,,,,,,10,,,,68,0
246783,note_on,60,0,12,,,,,,,,,11,,,,64,0
246783,note_on,300,0,5,,,,,,,,,4,,,,64,100
246784,note_on,300,0,6,,,,,,,,,5,,,,52,100
246787,note_on,300,0,8,,,,,,,,,7,,,,56,110
246787,note_on,0,0,8,,,,,,,,,7,,,,59,110
246840,set_tempo,120,1,0,,,,,,315789,,,,,,,,
246840,note_on,60,0,11,,,,,,,,,10,,,,71,93
246841,note_on,120,0,1,,,,,,,,,0,,,,88,0
246841,note_on,0,0,1,,,,,,,,,0,,,,85,0
246841,note_on,0,0,1,,,,,,,,,0,,,,86,101
246841,note_on,0,0,1,,,,,,,,,0,,,,83,101
246843,note_on,60,0,12,,,,,,,,,11,,,,68,93
246843,note_on,60,0,5,,,,,,,,,4,,,,64,0
246843,note_on,0,0,5,,,,,,,,,4,,,,64,100
246844,note_on,0,0,2,,,,,,,,,1,,,,73,0
246844,note_on,0,0,2,,,,,,,,,1,,,,71,100
246844,note_on,0,0,2,,,,,,,,,1,,,,74,100
246844,note_on,0,0,6,,,,,,,,,5,,,,52,100
246844,note_on,60,0,6,,,,,,,,,5,,,,52,0
246844,note_on,120,0,2,,,,,,,,,1,,,,76,0
246845,note_on,120,0,3,,,,,,,,,2,,,,76,0
246845,note_on,0,0,3,,,,,,,,,2,,,,73,0
246845,note_on,0,0,3,,,,,,,,,2,,,,71,101
246845,note_on,0,0,3,,,,,,,,,2,,,,74,101
246847,note_on,60,0,8,,,,,,,,,7,,,,59,0
246847,note_on,0,0,8,,,,,,,,,7,,,,56,0
246847,note_on,0,0,8,,,,,,,,,7,,,,59,110
246847,note_on,0,0,8,,,,,,,,,7,,,,56,110
246848,note_on,240,0,13,,,,,,,,,12,,,,68,0
246848,note_on,0,0,13,,,,,,,,,12,,,,59,0
246849,note_on,120,0,4,,,,,,,,,3,,,,64,0
246849,note_on,0,0,4,,,,,,,,,3,,,,61,0
246849,note_on,0,0,4,,,,,,,,,3,,,,62,100
246849,note_on,0,0,4,,,,,,,,,3,,,,59,100
246852,note_on,240,0,14,,,,,,,,,13,,,,59,0
246853,note_on,240,0,9,,,,,,,,,8,,,,52,0
246854,note_on,240,0,15,,,,,,,,,14,,,,40,0
246900,note_on,60,0,11,,,,,,,,,10,,,,71,0
246903,note_on,60,0,12,,,,,,,,,11,,,,68,0
246956,note_on,115,0,1,,,,,,,,,0,,,,83,0
246956,note_on,0,0,1,,,,,,,,,0,,,,86,0
246959,note_on,115,0,2,,,,,,,,,1,,,,74,0
246959,note_on,0,0,2,,,,,,,,,1,,,,71,0
246960,note_on,0,0,11,,,,,,,,,10,,,,64,93
246960,note_on,60,0,11,,,,,,,,,10,,,,74,93
246960,note_on,0,0,3,,,,,,,,,2,,,,71,0
246960,set_tempo,120,1,0,,,,,,275229,,,,,,,,
246960,note_on,115,0,3,,,,,,,,,2,,,,74,0
246961,note_on,0,0,1,,,,,,,,,0,,,,86,101
246961,note_on,5,0,1,,,,,,,,,0,,,,83,101
246963,note_on,120,0,5,,,,,,,,,4,,,,64,0
246963,note_on,0,0,12,,,,,,,,,11,,,,71,93
246963,note_on,60,0,12,,,,,,,,,11,,,,68,93
246963,note_on,0,0,5,,,,,,,,,4,,,,64,115
246964,note_on,115,0,4,,,,,,,,,3,,,,59,0
246964,note_on,0,0,4,,,,,,,,,3,,,,62,0
246964,note_on,120,0,6,,,,,,,,,5,,,,52,0
246964,note_on,0,0,2,,,,,,,,,1,,,,74,100
246964,note_on,5,0,2,,,,,,,,,1,,,,71,100
246964,note_on,0,0,6,,,,,,,,,5,,,,52,115
246965,note_on,5,0,3,,,,,,,,,2,,,,74,101
246965,note_on,0,0,3,,,,,,,,,2,,,,71,101
246967,note_on,0,0,8,,,,,,,,,7,,,,56,125
246967,note_on,120,0,8,,,,,,,,,7,,,,56,0
246967,note_on,0,0,8,,,,,,,,,7,,,,59,0
246967,note_on,0,0,8,,,,,,,,,7,,,,59,125
246968,note_on,120,0,13,,,,,,,,,12,,,,59,112
246969,note_on,0,0,4,,,,,,,,,3,,,,62,100
246969,note_on,5,0,4,,,,,,,,,3,,,,59,100
246972,note_on,120,0,14,,,,,,,,,13,,,,56,112
247028,note_on,60,0,13,,,,,,,,,12,,,,59,0
247032,note_on,60,0,14,,,,,,,,,13,,,,56,0
247080,set_tempo,120,1,0,,,,,,288462,,,,,,,,
247081,note_on,0,0,1,,,,,,,,,0,,,,81,101
247081,note_on,0,0,1,,,,,,,,,0,,,,85,101
247081,note_on,0,0,1,,,,,,,,,0,,,,83,0
247081,note_on,120,0,1,,,,,,,,,0,,,,86,0
247084,note_on,0,0,2,,,,,,,,,1,,,,71,0
247084,note_on,120,0,2,,,,,,,,,1,,,,74,0
247084,note_on,0,0,2,,,,,,,,,1,,,,73,100
247084,note_on,0,0,2,,,,,,,,,1,,,,69,100
247085,note_on,0,0,3,,,,,,,,,2,,,,73,101
247085,note_on,120,0,3,,,,,,,,,2,,,,71,0
247085,note_on,0,0,3,,,,,,,,,2,,,,74,0
247085,note_on,0,0,3,,,,,,,,,2,,,,69,101
247088,note_on,60,0,13,,,,,,,,,12,,,,62,112
247089,note_on,0,0,4,,,,,,,,,3,,,,57,100
247089,note_on,0,0,4,,,,,,,,,3,,,,59,0
247089,note_on,120,0,4,,,,,,,,,3,,,,62,0
247089,note_on,0,0,4,,,,,,,,,3,,,,61,100
247092,note_on,60,0,14,,,,,,,,,13,,,,59,112
247148,note_on,60,0,13,,,,,,,,,12,,,,62,0
247152,note_on,60,0,14,,,,,,,,,13,,,,59,0
247153,note_on,300,0,9,,,,,,,,,8,,,,52,110
247154,note_on,300,0,15,,,,,,,,,14,,,,40,112
247200,set_tempo,120,1,0,,,,,,315789,,,,,,,,
247200,note_on,240,0,11,,,,,,,,,10,,,,64,0
247200,note_on,0,0,11,,,,,,,,,10,,,,74,0
247201,note_on,0,0,1,,,,,,,,,0,,,,83,101
247201,note_on,0,0,1,,,,,,,,,0,,,,76,101
247201,note_on,0,0,1,,,,,,,,,0,,,,81,0
247201,note_on,120,0,1,,,,,,,,,0,,,,85,0
247203,note_on,240,0,5,,,,,,,,,4,,,,64,0
247203,note_on,240,0,12,,,,,,,,,11,,,,71,0
247203,note_on,0,0,12,,,,,,,,,11,,,,68,0
247204,note_on,120,0,2,,,,,,,,,1,,,,69,0
247204,note_on,0,0,2,,,,,,,,,1,,,,64,100
247204,note_on,0,0,2,,,,,,,,,1,,,,71,100
247204,note_on,0,0,2,,,,,,,,,1,,,,73,0
247204,note_on,240,0,6,,,,,,,,,5,,,,52,0
247205,note_on,120,0,3,,,,,,,,,2,,,,73,0
247205,note_on,0,0,3,,,,,,,,,2,,,,69,0
247205,note_on,0,0,3,,,,,,,,,2,,,,71,101
247205,note_on,0,0,3,,,,,,,,,2,,,,64,101
247207,note_on,240,0,8,,,,,,,,,7,,,,56,0
247207,note_on,0,0,8,,,,,,,,,7,,,,59,0
247208,note_on,60,0,13,,,,,,,,,12,,,,64,112
247209,note_on,120,0,4,,,,,,,,,3,,,,57,0
247209,note_on,0,0,4,,,,,,,,,3,,,,61,0
247209,note_on,0,0,4,,,,,,,,,3,,,,59,100
247209,note_on,0,0,4,,,,,,,,,3,,,,52,100
247212,note_on,60,0,14,,,,,,,,,13,,,,62,112
247213,note_on,60,0,9,,,,,,,,,8,,,,52,0
247213,note_on,0,0,9,,,,,,,,,8,,,,52,110
247214,note_on,60,0,15,,,,,,,,,14,,,,40,0
247214,note_on,0,0,15,,,,,,,,,14,,,,40,112
247268,note_on,60,0,13,,,,,,,,,12,,,,64,0
247272,note_on,60,0,14,,,,,,,,,13,,,,62,0
247316,note_on,0,0,1,,,,,,,,,0,,,,76,0
247316,note_on,115,0,1,,,,,,,,,0,,,,83,0
247319,note_on,115,0,2,,,,,,,,,1,,,,64,0
247319,note_on,0,0,2,,,,,,,,,1,,,,71,0
247320,note_on,115,0,3,,,,,,,,,2,,,,64,0
247320,note_on,0,0,3,,,,,,,,,2,,,,71,0
247320,set_tempo,120,1,0,,,,,,275229,,,,,,,,
247321,note_on,0,0,1,,,,,,,,,0,,,,81,116
247321,note_on,5,0,1,,,,,,,,,0,,,,85,116
247324,note_on,115,0,4,,,,,,,,,3,,,,52,0
247324,note_on,5,0,2,,,,,,,,,1,,,,69,115
247324,note_on,0,0,4,,,,,,,,,3,,,,59,0
247324,note_on,0,0,2,,,,,,,,,1,,,,73,115
247325,note_on,5,0,3,,,,,,,,,2,,,,73,116
247325,note_on,0,0,3,,,,,,,,,2,,,,69,116
247328,note_on,60,0,13,,,,,,,,,12,,,,69,127
247328,note_on,0,0,13,,,,,,,,,12,,,,57,127
247329,note_on,0,0,4,,,,,,,,,3,,,,57,115
247329,note_on,5,0,4,,,,,,,,,3,,,,61,115
247332,note_on,60,0,14,,,,,,,,,13,,,,61,127
247333,note_on,0,0,9,,,,,,,,,8,,,,52,125
247333,note_on,120,0,9,,,,,,,,,8,,,,52,0
247334,note_on,0,0,15,,,,,,,,,14,,,,40,127
247334,note_on,120,0,15,,,,,,,,,14,,,,40,0
247440,set_tempo,120,1,0,,,,,,288462,,,,,,,,
247440,note_on,240,0,11,,,,,,,,,10,,,,64,93
247443,note_on,240,0,12,,,,,,,,,11,,,,61,93
247500,note_on,60,0,11,,,,,,,,,10,,,,64,0
247503,note_on,60,0,12,,,,,,,,,11,,,,61,0
247503,note_on,300,0,5,,,,,,,,,4,,,,64,100
247504,note_on,300,0,6,,,,,,,,,5,,,,52,100
247507,note_on,300,0,8,,,,,,,,,7,,,,61,110
247507,note_on,0,0,8,,,,,,,,,7,,,,57,110
247560,note_on,60,0,11,,,,,,,,,10,,,,69,93
247560,set_tempo,120,1,0,,,,,,315789,,,,,,,,
247563,note_on,60,0,12,,,,,,,,,11,,,,64,93
247563,note_on,0,0,5,,,,,,,,,4,,,,64,100
247563,note_on,60,0,5,,,,,,,,,4,,,,64,0
247564,note_on,0,0,6,,,,,,,,,5,,,,52,100
247564,note_on,60,0,6,,,,,,,,,5,,,,52,0
247567,note_on,0,0,8,,,,,,,,,7,,,,61,0
247567,note_on,60,0,8,,,,,,,,,7,,,,57,0
247567,note_on,0,0,8,,,,,,,,,7,,,,57,110
247567,note_on,0,0,8,,,,,,,,,7,,,,61,110
247568,note_on,0,0,13,,,,,,,,,12,,,,69,0
247568,note_on,240,0,13,,,,,,,,,12,,,,57,0
247572,note_on,240,0,14,,,,,,,,,13,,,,61,0
247573,note_on,240,0,9,,,,,,,,,8,,,,52,0
247574,note_on,240,0,15,,,,,,,,,14,,,,40,0
247620,note_on,60,0,11,,,,,,,,,10,,,,69,0
247623,note_on,60,0,12,,,,,,,,,11,,,,64,0
247680,note_on,60,0,11,,,,,,,,,10,,,,73,93
247680,note_on,0,0,11,,,,,,,,,10,,,,64,93
247680,set_tempo,120,1,0,,,,,,275229,,,,,,,,
247683,note_on,0,0,5,,,,,,,,,4,,,,64,100
247683,note_on,0,0,12,,,,,,,,,11,,,,61,93
247683,note_on,120,0,5,,,,,,,,,4,,,,64,0
247683,note_on,60,0,12,,,,,,,,,11,,,,69,93
247684,note_on,120,0,6,,,,,,,,,5,,,,52,0
247684,note_on,0,0,6,,,,,,,,,5,,,,52,100
247687,note_on,120,0,8,,,,,,,,,7,,,,61,0
247687,note_on,0,0,8,,,,,,,,,7,,,,57,0
247687,note_on,0,0,8,,,,,,,,,7,,,,61,110
247687,note_on,0,0,8,,,,,,,,,7,,,,57,110
247688,note_on,120,0,13,,,,,,,,,12,,,,57,112
247692,note_on,120,0,14,,,,,,,,,13,,,,52,112
247748,note_on,60,0,13,,,,,,,,,12,,,,57,0
247752,note_on,60,0,14,,,,,,,,,13,,,,52,0
247800,set_tempo,120,1,0,,,,,,288462,,,,,,,,
247801,note_on,480,0,1,,,,,,,,,0,,,,81,0
247801,note_on,0,0,1,,,,,,,,,0,,,,85,0
247801,note_on,0,0,1,,,,,,,,,0,,,,83,101
247801,note_on,0,0,1,,,,,,,,,0,,,,76,101
247804,note_on,0,0,2,,,,,,,,,1,,,,64,100
247804,note_on,480,0,2,,,,,,,,,1,,,,73,0
247804,note_on,0,0,2,,,,,,,,,1,,,,71,100
247804,note_on,0,0,2,,,,,,,,,1,,,,69,0
247805,note_on,0,0,3,,,,,,,,,2,,,,71,101
247805,note_on,480,0,3,,,,,,,,,2,,,,69,0
247805,note_on,0,0,3,,,,,,,,,2,,,,64,101
247805,note_on,0,0,3,,,,,,,,,2,,,,73,0
247808,note_on,60,0,13,,,,,,,,,12,,,,61,112
247809,note_on,480,0,4,,,,,,,,,3,,,,57,0
247809,note_on,0,0,4,,,,,,,,,3,,,,52,100
247809,note_on,0,0,4,,,,,,,,,3,,,,61,0
247809,note_on,0,0,4,,,,,,,,,3,,,,59,100
247812,note_on,60,0,14,,,,,,,,,13,,,,57,112
247868,note_on,60,0,13,,,,,,,,,12,,,,61,0
247872,note_on,60,0,14,,,,,,,,,13,,,,57,0
247873,note_on,300,0,9,,,,,,,,,8,,,,52,110
247874,note_on,300,0,15,,,,,,,,,14,,,,40,112
247920,note_on,0,0,11,,,,,,,,,10,,,,73,0
247920,note_on,240,0,11,,,,,,,,,10,,,,64,0
247920,set_tempo,120,1,0,,,,,,315789,,,,,,,,
247921,note_on,120,0,1,,,,,,,,,0,,,,76,0
247921,note_on,0,0,1,,,,,,,,,0,,,,83,0
247921,note_on,0,0,1,,,,,,,,,0,,,,73,101
247921,note_on,0,0,1,,,,,,,,,0,,,,81,101
247923,note_on,240,0,5,,,,,,,,,4,,,,64,0
247923,note_on,0,0,12,,,,,,,,,11,,,,69,0
247923,note_on,240,0,12,,,,,,,,,11,,,,61,0
247924,note_on,120,0,2,,,,,,,,,1,,,,71,0
247924,note_on,0,0,2,,,,,,,,,1,,,,61,100
247924,note_on,0,0,2,,,,,,,,,1,,,,64,0
247924,note_on,240,0,6,,,,,,,,,5,,,,52,0
247924,note_on,0,0,2,,,,,,,,,1,,,,69,100
247925,note_on,120,0,3,,,,,,,,,2,,,,64,0
247925,note_on,0,0,3,,,,,,,,,2,,,,71,0
247925,note_on,0,0,3,,,,,,,,,2,,,,69,101
247925,note_on,0,0,3,,,,,,,,,2,,,,61,101
247927,note_on,240,0,8,,,,,,,,,7,,,,57,0
247927,note_on,0,0,8,,,,,,,,,7,,,,61,0
247928,note_on,60,0,13,,,,,,,,,12,,,,64,112
247929,note_on,120,0,4,,,,,,,,,3,,,,59,0
247929,note_on,0,0,4,,,,,,,,,3,,,,52,0
247929,note_on,0,0,4,,,,,,,,,3,,,,49,100
247929,note_on,0,0,4,,,,,,,,,3,,,,57,100
247932,note_on,60,0,14,,,,,,,,,13,,,,61,112
247933,note_on,60,0,9,,,,,,,,,8,,,,52,0
247933,note_on,0,0,9,,,,,,,,,8,,,,52,110
247934,note_on,60,0,15,,,,,,,,,14,,,,40,0
247934,note_on,0,0,15,,,,,,,,,14,,,,40,112
247988,note_on,60,0,13,,,,,,,,,12,,,,64,0
247992,note_on,60,0,14,,,,,,,,,13,,,,61,0
248036,note_on,115,0,1,,,,,,,,,0,,,,81,0
248036,note_on,0,0,1,,,,,,,,,0,,,,73,0
248039,note_on,115,0,2,,,,,,,,,1,,,,69,0
248039,note_on,0,0,2,,,,,,,,,1,,,,61,0
248040,note_on,0,0,3,,,,,,,,,2,,,,69,0
248040,note_on,115,0,3,,,,,,,,,2,,,,61,0
248040,set_tempo,120,1,0,,,,,,275229,,,,,,,,
248041,note_on,0,0,1,,,,,,,,,0,,,,85,116
248041,note_on,5,0,1,,,,,,,,,0,,,,88,116
248044,note_on,5,0,2,,,,,,,,,1,,,,76,115
248044,note_on,115,0,4,,,,,,,,,3,,,,57,0
248044,note_on,0,0,2,,,,,,,,,1,,,,73,115
248044,note_on,0,0,4,,,,,,,,,3,,,,49,0
248045,note_on,5,0,3,,,,,,,,,2,,,,76,116
248045,note_on,0,0,3,,,,,,,,,2,,,,73,116
248048,note_on,0,0,13,,,,,,,,,12,,,,69,112
248048,note_on,60,0,13,,,,,,,,,12,,,,61,112
248049,note_on,0,0,4,,,,,,,,,3,,,,61,115
248049,note_on,5,0,4,,,,,,,,,3,,,,64,115
248052,note_on,60,0,14,,,,,,,,,13,,,,57,112
248053,note_on,0,0,9,,,,,,,,,8,,,,52,110
248053,note_on,120,0,9,,,,,,,,,8,,,,52,0
248054,note_on,120,0,15,,,,,,,,,14,,,,40,0
248054,note_on,0,0,15,,,,,,,,,14,,,,40,112
248160,note_on,240,0,11,,,,,,,,,10,,,,64,93
248160,set_tempo,120,1,0,,,,,,288462,,,,,,,,
248161,note_on,120,0,1,,,,,,,,,0,,,,85,0
248161,note_on,0,0,1,,,,,,,,,0,,,,88,0
248161,note_on,0,0,1,,,,,,,,,0,,,,86,101
248161,note_on,0,0,1,,,,,,,,,0,,,,83,101
248163,note_on,240,0,12,,,,,,,,,11,,,,61,93
248164,note_on,0,0,2,,,,,,,,,1,,,,74,100
248164,note_on,0,0,2,,,,,,,,,1,,,,71,100
248164,note_on,120,0,2,,,,,,,,,1,,,,73,0
248164,note_on,0,0,2,,,,,,,,,1,,,,76,0
248165,note_on,0,0,3,,,,,,,,,2,,,,76,0
248165,note_on,0,0,3,,,,,,,,,2,,,,71,101
248165,note_on,120,0,3,,,,,,,,,2,,,,73,0
248165,note_on,0,0,3,,,,,,,,,2,,,,74,101
248169,note_on,120,0,4,,,,,,,,,3,,,,61,0
248169,note_on,0,0,4,,,,,,,,,3,,,,64,0
248169,note_on,0,0,4,,,,,,,,,3,,,,59,100
248169,note_on,0,0,4,,,,,,,,,3,,,,62,100
248220,note_on,60,0,11,,,,,,,,,10,,,,64,0
248223,note_on,300,0,5,,,,,,,,,4,,,,64,100
248223,note_on,60,0,12,,,,,,,,,11,,,,61,0
248224,note_on,300,0,6,,,,,,,,,5,,,,52,100
248227,note_on,0,0,8,,,,,,,,,7,,,,57,110
248227,note_on,300,0,8,,,,,,,,,7,,,,61,110
248280,set_tempo,120,1,0,,,,,,315789,,,,,,,,
248280,note_on,60,0,11,,,,,,,,,10,,,,69,93
248281,note_on,120,0,1,,,,,,,,,0,,,,86,0
248281,note_on,0,0,1,,,,,,,,,0,,,,83,0
248281,note_on,0,0,1,,,,,,,,,0,,,,81,101
248281,note_on,0,0,1,,,,,,,,,0,,,,85,101
248283,note_on,60,0,12,,,,,,,,,11,,,,64,93
248283,note_on,60,0,5,,,,,,,,,4,,,,64,0
248283,note_on,0,0,5,,,,,,,,,4,,,,64,100
248284,note_on,0,0,2,,,,,,,,,1,,,,74,0
248284,note_on,0,0,6,,,,,,,,,5,,,,52,100
248284,note_on,60,0,6,,,,,,,,,5,,,,52,0
248284,note_on,120,0,2,,,,,,,,,1,,,,71,0
248284,note_on,0,0,2,,,,,,,,,1,,,,69,100
248284,note_on,0,0,2,,,,,,,,,1,,,,73,100
248285,note_on,0,0,3,,,,,,,,,2,,,,71,0
248285,note_on,120,0,3,,,,,,,,,2,,,,74,0
248285,note_on,0,0,3,,,,,,,,,2,,,,73,101
248285,note_on,0,0,3,,,,,,,,,2,,,,69,101
248287,note_on,60,0,8,,,,,,,,,7,,,,57,0
248287,note_on,0,0,8,,,,,,,,,7,,,,61,0
248287,note_on,0,0,8,,,,,,,,,7,,,,57,110
248287,note_on,0,0,8,,,,,,,,,7,,,,61,110
248288,note_on,240,0,13,,,,,,,,,12,,,,69,0
248288,note_on,0,0,13,,,,,,,,,12,,,,61,0
248289,note_on,0,0,4,,,,,,,,,3,,,,61,100
248289,note_on,0,0,4,,,,,,,,,3,,,,57,100
248289,note_on,0,0,4,,,,,,,,,3,,,,59,0
248289,note_on,120,0,4,,,,,,,,,3,,,,62,0
248292,note_on,240,0,14,,,,,,,,,13,,,,57,0
248293,note_on,240,0,9,,,,,,,,,8,,,,52,0
248294,note_on,240,0,15,,,,,,,,,14,,,,40,0
248340,note_on,60,0,11,,,,,,,,,10,,,,69,0
248343,note_on,60,0,12,,,,,,,,,11,,,,64,0
248396,note_on,115,0,1,,,,,,,,,0,,,,81,0
248396,note_on,0,0,1,,,,,,,,,0,,,,85,0
248399,note_on,115,0,2,,,,,,,,,1,,,,69,0
248399,note_on,0,0,2,,,,,,,,,1,,,,73,0
248400,note_on,0,0,11,,,,,,,,,10,,,,73,93
248400,note_on,60,0,11,,,,,,,,,10,,,,64,93
248400,set_tempo,120,1,0,,,,,,275229,,,,,,,,
248400,note_on,0,0,3,,,,,,,,,2,,,,69,0
248400,note_on,115,0,3,,,,,,,,,2,,,,73,0
248401,note_on,5,0,1,,,,,,,,,0,,,,81,101
248401,note_on,0,0,1,,,,,,,,,0,,,,85,101
248403,note_on,60,0,12,,,,,,,,,11,,,,61,93
248403,note_on,0,0,12,,,,,,,,,11,,,,69,93
248403,note_on,120,0,5,,,,,,,,,4,,,,64,0
248403,note_on,0,0,5,,,,,,,,,4,,,,64,100
248404,note_on,0,0,4,,,,,,,,,3,,,,57,0
248404,note_on,115,0,4,,,,,,,,,3,,,,61,0
248404,note_on,0,0,6,,,,,,,,,5,,,,52,100
248404,note_on,120,0,6,,,,,,,,,5,,,,52,0
248404,note_on,5,0,2,,,,,,,,,1,,,,69,100
248404,note_on,0,0,2,,,,,,,,,1,,,,73,100
248405,note_on,5,0,3,,,,,,,,,2,,,,69,101
248405,note_on,0,0,3,,,,,,,,,2,,,,73,101
248407,note_on,0,0,8,,,,,,,,,7,,,,57,110
248407,note_on,0,0,8,,,,,,,,,7,,,,61,110
248407,note_on,0,0,8,,,,,,,,,7,,,,57,0
248407,note_on,120,0,8,,,,,,,,,7,,,,61,0
248408,note_on,120,0,13,,,,,,,,,12,,,,57,112
248409,note_on,0,0,4,,,,,,,,,3,,,,57,100
248409,note_on,5,0,4,,,,,,,,,3,,,,61,100
248412,note_on,120,0,14,,,,,,,,,13,,,,52,112
248468,note_on,60,0,13,,,,,,,,,12,,,,57,0
248472,note_on,60,0,14,,,,,,,,,13,,,,52,0
248520,set_tempo,120,1,0,,,,,,288462,,,,,,,,
248521,note_on,120,0,1,,,,,,,,,0,,,,85,0
248521,note_on,0,0,1,,,,,,,,,0,,,,81,0
248521,note_on,0,0,1,,,,,,,,,0,,,,76,101
248521,note_on,0,0,1,,,,,,,,,0,,,,83,101
248524,note_on,0,0,2,,,,,,,,,1,,,,64,100
248524,note_on,120,0,2,,,,,,,,,1,,,,73,0
248524,note_on,0,0,2,,,,,,,,,1,,,,69,0
248524,note_on,0,0,2,,,,,,,,,1,,,,71,100
248525,note_on,0,0,3,,,,,,,,,2,,,,69,0
248525,note_on,0,0,3,,,,,,,,,2,,,,64,101
248525,note_on,0,0,3,,,,,,,,,2,,,,71,101
248525,note_on,120,0,3,,,,,,,,,2,,,,73,0
248528,note_on,60,0,13,,,,,,,,,12,,,,61,112
248529,note_on,0,0,4,,,,,,,,,3,,,,59,100
248529,note_on,0,0,4,,,,,,,,,3,,,,52,100
248529,note_on,120,0,4,,,,,,,,,3,,,,57,0
248529,note_on,0,0,4,,,,,,,,,3,,,,61,0
248532,note_on,60,0,14,,,,,,,,,13,,,,57,112
248588,note_on,60,0,13,,,,,,,,,12,,,,61,0
248592,note_on,60,0,14,,,,,,,,,13,,,,57,0
248593,note_on,300,0,9,,,,,,,,,8,,,,52,110
248594,note_on,300,0,15,,,,,,,,,14,,,,40,112
248640,set_tempo,120,1,0,,,,,,352941,,,,,,,,
248640,note_on,240,0,11,,,,,,,,,10,,,,73,0
248640,note_on,0,0,11,,,,,,,,,10,,,,64,0
248641,note_on,0,0,1,,,,,,,,,0,,,,76,0
248641,note_on,0,0,1,,,,,,,,,0,,,,81,101
248641,note_on,0,0,1,,,,,,,,,0,,,,73,101
248641,note_on,120,0,1,,,,,,,,,0,,,,83,0
248643,note_on,240,0,12,,,,,,,,,11,,,,69,0
248643,note_on,0,0,12,,,,,,,,,11,,,,61,0
248643,note_on,240,0,5,,,,,,,,,4,,,,64,0
248644,note_on,240,0,6,,,,,,,,,5,,,,52,0
248644,note_on,120,0,2,,,,,,,,,1,,,,71,0
248644,note_on,0,0,2,,,,,,,,,1,,,,64,0
248644,note_on,0,0,2,,,,,,,,,1,,,,69,100
248644,note_on,0,0,2,,,,,,,,,1,,,,61,100
248645,note_on,0,0,3,,,,,,,,,2,,,,61,101
248645,note_on,120,0,3,,,,,,,,,2,,,,71,0
248645,note_on,0,0,3,,,,,,,,,2,,,,64,0
248645,note_on,0,0,3,,,,,,,,,2,,,,69,101
248647,note_on,240,0,8,,,,,,,,,7,,,,61,0
248647,note_on,0,0,8,,,,,,,,,7,,,,57,0
248648,note_on,60,0,13,,,,,,,,,12,,,,64,112
248649,note_on,0,0,4,,,,,,,,,3,,,,49,100
248649,note_on,0,0,4,,,,,,,,,3,,,,57,100
248649,note_on,120,0,4,,,,,,,,,3,,,,59,0
248649,note_on,0,0,4,,,,,,,,,3,,,,52,0
248652,note_on,60,0,14,,,,,,,,,13,,,,61,112
248653,note_on,60,0,9,,,,,,,,,8,,,,52,0
248653,note_on,0,0,9,,,,,,,,,8,,,,52,110
248654,note_on,0,0,15,,,,,,,,,14,,,,40,112
248654,note_on,60,0,15,,,,,,,,,14,,,,40,0
248708,note_on,60,0,13,,,,,,,,,12,,,,64,0
248712,note_on,60,0,14,,,,,,,,,13,,,,61,0
248756,note_on,0,0,1,,,,,,,,,0,,,,73,0
248756,note_on,115,0,1,,,,,,,,,0,,,,81,0
248759,note_on,115,0,2,,,,,,,,,1,,,,61,0
248759,note_on,0,0,2,,,,,,,,,1,,,,69,0
248760,note_on,0,0,3,,,,,,,,,2,,,,69,0
248760,set_tempo,120,1,0,,,,,,283019,,,,,,,,
248760,note_on,115,0,3,,,,,,,,,2,,,,61,0
248761,note_on,5,0,1,,,,,,,,,0,,,,76,101
248761,control_change,0,0,1,,,,,,,,,0,11,47,,,
248761,note_on,0,0,1,,,,,,,,,0,,,,83,101
248764,note_on,115,0,4,,,,,,,,,3,,,,57,0
248764,control_change,5,0,2,,,,,,,,,1,11,47,,,
248764,note_on,0,0,2,,,,,,,,,1,,,,64,100
248764,note_on,0,0,2,,,,,,,,,1,,,,71,100
248764,note_on,0,0,4,,,,,,,,,3,,,,49,0
248765,note_on,5,0,3,,,,,,,,,2,,,,71,116
248765,control_change,0,0,3,,,,,,,,,2,11,27,,,
248765,note_on,0,0,3,,,,,,,,,2,,,,74,116
248768,control_change,60,0,13,,,,,,,,,12,11,41,,,
248768,note_on,0,0,13,,,,,,,,,12,,,,68,112
248768,note_on,0,0,13,,,,,,,,,12,,,,59,112
248769,note_on,0,0,4,,,,,,,,,3,,,,59,115
248769,control_change,5,0,4,,,,,,,,,3,11,27,,,
248769,note_on,0,0,4,,,,,,,,,3,,,,62,115
248772,note_on,0,0,14,,,,,,,,,13,,,,62,112
248772,control_change,60,0,14,,,,,,,,,13,11,41,,,
248773,note_on,120,0,9,,,,,,,,,8,,,,52,0
248773,control_change,0,0,9,,,,,,,,,8,11,47,,,
248773,note_on,0,0,9,,,,,,,,,8,,,,52,110
248774,control_change,0,0,15,,,,,,,,,14,11,41,,,
248774,note_on,0,0,15,,,,,,,,,14,,,,40,112
248774,note_on,120,0,15,,,,,,,,,14,,,,40,0
248783,control_change,18,0,3,,,,,,,,,2,11,30,,,
248787,control_change,18,0,4,,,,,,,,,3,11,30,,,
248801,control_change,18,0,3,,,,,,,,,2,11,33,,,
248805,control_change,18,0,4,,,,,,,,,3,11,33,,,
248819,control_change,18,0,3,,,,,,,,,2,11,36,,,
248823,control_change,18,0,4,,,,,,,,,3,11,36,,,
248837,control_change,18,0,3,,,,,,,,,2,11,39,,,
248841,control_change,18,0,4,,,,,,,,,3,11,39,,,
248855,control_change,18,0,3,,,,,,,,,2,11,42,,,
248859,control_change,18,0,4,,,,,,,,,3,11,42,,,
248873,control_change,18,0,3,,,,,,,,,2,11,45,,,
248877,control_change,18,0,4,,,,,,,,,3,11,45,,,
248880,set_tempo,120,1,0,,,,,,295567,,,,,,,,
248880,note_on,0,0,11,,,,,,,,,10,,,,64,93
248880,control_change,240,0,11,,,,,,,,,10,11,41,,,
248883,control_change,240,0,12,,,,,,,,,11,11,41,,,
248883,note_on,0,0,12,,,,,,,,,11,,,,62,93
248940,note_on,60,0,11,,,,,,,,,10,,,,64,0
248943,note_on,300,0,5,,,,,,,,,4,,,,64,100
248943,control_change,0,0,5,,,,,,,,,4,11,47,,,
248943,note_on,60,0,12,,,,,,,,,11,,,,62,0
248944,note_on,300,0,6,,,,,,,,,5,,,,52,100
248944,control_change,0,0,6,,,,,,,,,5,11,47,,,
249000,note_on,60,0,11,,,,,,,,,10,,,,71,93
249000,set_tempo,120,1,0,,,,,,322581,,,,,,,,
249001,note_on,0,0,1,,,,,,,,,0,,,,76,0
249001,note_on,240,0,1,,,,,,,,,0,,,,83,0
249003,note_on,0,0,5,,,,,,,,,4,,,,64,100
249003,note_on,60,0,12,,,,,,,,,11,,,,64,93
249003,note_on,60,0,5,,,,,,,,,4,,,,64,0
249004,note_on,0,0,2,,,,,,,,,1,,,,71,0
249004,note_on,60,0,6,,,,,,,,,5,,,,52,0
249004,note_on,0,0,6,,,,,,,,,5,,,,52,100
249004,note_on,240,0,2,,,,,,,,,1,,,,64,0
249008,note_on,0,0,13,,,,,,,,,12,,,,59,0
249008,note_on,240,0,13,,,,,,,,,12,,,,68,0
249012,note_on,240,0,14,,,,,,,,,13,,,,62,0
249013,note_on,240,0,9,,,,,,,,,8,,,,52,0
249014,note_on,240,0,15,,,,,,,,,14,,,,40,0
249060,note_on,60,0,11,,,,,,,,,10,,,,71,0
249063,note_on,60,0,12,,,,,,,,,11,,,,64,0
249120,note_on,0,0,11,,,,,,,,,10,,,,74,93
249120,set_tempo,120,1,0,,,,,,283019,,,,,,,,
249120,note_on,60,0,11,,,,,,,,,10,,,,64,93
249123,note_on,120,0,5,,,,,,,,,4,,,,64,0
249123,note_on,60,0,12,,,,,,,,,11,,,,68,93
249123,note_on,0,0,5,,,,,,,,,4,,,,64,100
249124,note_on,0,0,6,,,,,,,,,5,,,,52,100
249124,note_on,120,0,6,,,,,,,,,5,,,,52,0
249128,note_on,120,0,13,,,,,,,,,12,,,,59,112
249132,note_on,120,0,14,,,,,,,,,13,,,,56,112
249188,note_on,60,0,13,,,,,,,,,12,,,,59,0
249192,note_on,60,0,14,,,,,,,,,13,,,,56,0
249240,set_tempo,120,1,0,,,,,,295567,,,,,,,,
249245,control_change,0,0,3,,,,,,,,,2,11,47,,,
249245,note_on,372,0,3,,,,,,,,,2,,,,74,0
249245,note_on,0,0,3,,,,,,,,,2,,,,72,101
249245,note_on,0,0,3,,,,,,,,,2,,,,71,0
249245,note_on,0,0,3,,,,,,,,,2,,,,69,101
249248,note_on,60,0,13,,,,,,,,,12,,,,62,112
249249,note_on,0,0,4,,,,,,,,,3,,,,57,100
249249,note_on,372,0,4,,,,,,,,,3,,,,62,0
249249,note_on,0,0,4,,,,,,,,,3,,,,59,0
249249,note_on,0,0,4,,,,,,,,,3,,,,60,100
249249,control_change,0,0,4,,,,,,,,,3,11,47,,,
249252,note_on,60,0,14,,,,,,,,,13,,,,59,112
249269,control_change,24,0,3,,,,,,,,,2,11,49,,,
249273,control_change,24,0,4,,,,,,,,,3,11,49,,,
249293,control_change,24,0,3,,,,,,,,,2,11,51,,,
249297,control_change,24,0,4,,,,,,,,,3,11,51,,,
249308,note_on,60,0,13,,,,,,,,,12,,,,62,0
249312,note_on,60,0,14,,,,,,,,,13,,,,59,0
249314,note_on,300,0,15,,,,,,,,,14,,,,40,112
249317,control_change,24,0,3,,,,,,,,,2,11,52,,,
249321,control_change,24,0,4,,,,,,,,,3,11,53,,,
249341,control_change,24,0,3,,,,,,,,,2,11,54,,,
249345,control_change,24,0,4,,,,,,,,,3,11,55,,,
249360,note_on,240,0,11,,,,,,,,,10,,,,74,0
249360,note_on,0,0,11,,,,,,,,,10,,,,64,0
249360,set_tempo,120,1,0,,,,,,322581,,,,,,,,
249363,note_on,240,0,5,,,,,,,,,4,,,,64,0
249363,note_on,240,0,12,,,,,,,,,11,,,,68,0
249364,note_on,240,0,6,,,,,,,,,5,,,,52,0
249365,note_on,24,0,3,,,,,,,,,2,,,,69,0
249365,note_on,0,0,3,,,,,,,,,2,,,,68,101
249365,note_on,0,0,3,,,,,,,,,2,,,,71,101
249365,control_change,0,0,3,,,,,,,,,2,11,55,,,
249365,note_on,0,0,3,,,,,,,,,2,,,,72,0
249368,note_on,60,0,13,,,,,,,,,12,,,,64,112
249369,note_on,0,0,4,,,,,,,,,3,,,,59,100
249369,note_on,24,0,4,,,,,,,,,3,,,,57,0
249369,note_on,0,0,4,,,,,,,,,3,,,,60,0
249369,note_on,0,0,4,,,,,,,,,3,,,,56,100
249369,control_change,0,0,4,,,,,,,,,3,11,57,,,
249372,note_on,60,0,14,,,,,,,,,13,,,,62,112
249374,note_on,60,0,15,,,,,,,,,14,,,,40,0
249374,note_on,0,0,15,,,,,,,,,14,,,,40,112
249389,control_change,24,0,3,,,,,,,,,2,11,57,,,
249393,control_change,24,0,4,,,,,,,,,3,11,59,,,
249413,control_change,24,0,3,,,,,,,,,2,11,58,,,
249417,control_change,24,0,4,,,,,,,,,3,11,61,,,
249428,note_on,60,0,13,,,,,,,,,12,,,,64,0
249432,note_on,60,0,14,,,,,,,,,13,,,,62,0
249437,control_change,24,0,3,,,,,,,,,2,11,60,,,
249441,control_change,24,0,4,,,,,,,,,3,11,63,,,
249461,control_change,24,0,3,,,,,,,,,2,11,61,,,
249465,control_change,24,0,4,,,,,,,,,3,11,65,,,
249480,set_tempo,120,1,0,,,,,,283019,,,,,,,,
249480,note_on,19,0,3,,,,,,,,,2,,,,71,0
249480,note_on,0,0,3,,,,,,,,,2,,,,68,0
249484,note_on,19,0,4,,,,,,,,,3,,,,59,0
249484,note_on,0,0,4,,,,,,,,,3,,,,56,0
249485,note_on,0,0,3,,,,,,,,,2,,,,68,116
249485,control_change,0,0,3,,,,,,,,,2,11,63,,,
249485,note_on,5,0,3,,,,,,,,,2,,,,77,116
249488,note_on,60,0,13,,,,,,,,,12,,,,68,112
249488,note_on,0,0,13,,,,,,,,,12,,,,59,112
249489,note_on,5,0,4,,,,,,,,,3,,,,65,115
249489,note_on,0,0,4,,,,,,,,,3,,,,56,115
249489,control_change,0,0,4,,,,,,,,,3,11,67,,,
249492,note_on,60,0,14,,,,,,,,,13,,,,62,112
249494,note_on,0,0,15,,,,,,,,,14,,,,40,112
249494,note_on,120,0,15,,,,,,,,,14,,,,40,0
249521,control_change,36,0,3,,,,,,,,,2,11,62,,,
249525,control_change,36,0,4,,,,,,,,,3,11,66,,,
249557,control_change,36,0,3,,,,,,,,,2,11,61,,,
249561,control_change,36,0,4,,,,,,,,,3,11,65,,,
249593,control_change,36,0,3,,,,,,,,,2,11,61,,,
249597,control_change,36,0,4,,,,,,,,,3,11,64,,,
249600,set_tempo,120,1,0,,,,,,295567,,,,,,,,
249600,note_on,240,0,11,,,,,,,,,10,,,,64,93
249603,note_on,240,0,12,,,,,,,,,11,,,,62,93
249605,note_on,0,0,3,,,,,,,,,2,,,,77,0
249605,note_on,0,0,3,,,,,,,,,2,,,,69,101
249605,note_on,0,0,3,,,,,,,,,2,,,,76,101
249605,note_on,12,0,3,,,,,,,,,2,,,,68,0
249609,note_on,0,0,4,,,,,,,,,3,,,,65,0
249609,note_on,0,0,4,,,,,,,,,3,,,,57,100
249609,note_on,0,0,4,,,,,,,,,3,,,,64,100
249609,note_on,12,0,4,,,,,,,,,3,,,,56,0
249629,control_change,24,0,3,,,,,,,,,2,11,60,,,
249633,control_change,24,0,4,,,,,,,,,3,11,63,,,
249660,note_on,60,0,11,,,,,,,,,10,,,,64,0
249663,note_on,300,0,5,,,,,,,,,4,,,,64,100
249663,note_on,60,0,12,,,,,,,,,11,,,,62,0
249664,note_on,300,0,6,,,,,,,,,5,,,,52,100
249665,control_change,36,0,3,,,,,,,,,2,11,59,,,
249669,control_change,36,0,4,,,,,,,,,3,11,62,,,
249701,control_change,36,0,3,,,,,,,,,2,11,58,,,
249705,control_change,36,0,4,,,,,,,,,3,11,61,,,
249720,set_tempo,120,1,0,,,,,,322581,,,,,,,,
249720,note_on,60,0,11,,,,,,,,,10,,,,71,93
249723,note_on,60,0,12,,,,,,,,,11,,,,64,93
249723,note_on,0,0,5,,,,,,,,,4,,,,64,100
249723,note_on,60,0,5,,,,,,,,,4,,,,64,0
249724,note_on,60,0,6,,,,,,,,,5,,,,52,0
249724,note_on,0,0,6,,,,,,,,,5,,,,52,100
249725,note_on,0,0,3,,,,,,,,,2,,,,74,101
249725,note_on,24,0,3,,,,,,,,,2,,,,69,0
249725,note_on,0,0,3,,,,,,,,,2,,,,76,0
249725,note_on,0,0,3,,,,,,,,,2,,,,71,101
249728,note_on,0,0,13,,,,,,,,,12,,,,68,0
249728,note_on,240,0,13,,,,,,,,,12,,,,59,0
249729,note_on,0,0,4,,,,,,,,,3,,,,64,0
249729,note_on,0,0,4,,,,,,,,,3,,,,59,100
249729,note_on,0,0,4,,,,,,,,,3,,,,62,100
249729,note_on,24,0,4,,,,,,,,,3,,,,57,0
249732,note_on,240,0,14,,,,,,,,,13,,,,62,0
249734,note_on,240,0,15,,,,,,,,,14,,,,40,0
249737,control_change,12,0,3,,,,,,,,,2,11,58,,,
249741,control_change,12,0,4,,,,,,,,,3,11,60,,,
249773,control_change,36,0,3,,,,,,,,,2,11,57,,,
249777,control_change,36,0,4,,,,,,,,,3,11,59,,,
249780,note_on,60,0,11,,,,,,,,,10,,,,71,0
249783,note_on,60,0,12,,,,,,,,,11,,,,64,0
249809,control_change,36,0,3,,,,,,,,,2,11,56,,,
249813,control_change,36,0,4,,,,,,,,,3,11,58,,,
249840,note_on,0,0,11,,,,,,,,,10,,,,74,93
249840,note_on,60,0,11,,,,,,,,,10,,,,64,93
249840,set_tempo,120,1,0,,,,,,283019,,,,,,,,
249840,note_on,31,0,3,,,,,,,,,2,,,,71,0
249840,note_on,0,0,3,,,,,,,,,2,,,,74,0
249843,note_on,0,0,5,,,,,,,,,4,,,,64,100
249843,note_on,60,0,12,,,,,,,,,11,,,,68,93
249843,note_on,120,0,5,,,,,,,,,4,,,,64,0
249844,note_on,120,0,6,,,,,,,,,5,,,,52,0
249844,note_on,0,0,6,,,,,,,,,5,,,,52,100
249844,note_on,0,0,4,,,,,,,,,3,,,,59,0
249844,note_on,31,0,4,,,,,,,,,3,,,,62,0
249845,note_on,0,0,3,,,,,,,,,2,,,,71,101
249845,note_on,0,0,3,,,,,,,,,2,,,,74,101
249845,control_change,5,0,3,,,,,,,,,2,11,55,,,
249848,note_on,120,0,13,,,,,,,,,12,,,,59,112
249849,control_change,0,0,4,,,,,,,,,3,11,57,,,
249849,note_on,0,0,4,,,,,,,,,3,,,,62,100
249849,note_on,5,0,4,,,,,,,,,3,,,,59,100
249852,note_on,120,0,14,,,,,,,,,13,,,,56,112
249881,control_change,36,0,3,,,,,,,,,2,11,55,,,
249885,control_change,36,0,4,,,,,,,,,3,11,56,,,
249908,note_on,60,0,13,,,,,,,,,12,,,,59,0
249912,note_on,60,0,14,,,,,,,,,13,,,,56,0
249917,control_change,36,0,3,,,,,,,,,2,11,54,,,
249921,control_change,36,0,4,,,,,,,,,3,11,55,,,
249953,control_change,36,0,3,,,,,,,,,2,11,53,,,
249957,control_change,36,0,4,,,,,,,,,3,11,54,,,
249960,set_tempo,120,1,0,,,,,,295567,,,,,,,,
249965,note_on,0,0,3,,,,,,,,,2,,,,69,101
249965,note_on,12,0,3,,,,,,,,,2,,,,74,0
249965,note_on,0,0,3,,,,,,,,,2,,,,71,0
249965,note_on,0,0,3,,,,,,,,,2,,,,72,101
249968,note_on,60,0,13,,,,,,,,,12,,,,62,112
249969,note_on,0,0,4,,,,,,,,,3,,,,57,100
249969,note_on,0,0,4,,,,,,,,,3,,,,60,100
249969,note_on,0,0,4,,,,,,,,,3,,,,59,0
249969,note_on,12,0,4,,,,,,,,,3,,,,62,0
249972,note_on,60,0,14,,,,,,,,,13,,,,59,112
249989,control_change,24,0,3,,,,,,,,,2,11,52,,,
249993,control_change,24,0,4,,,,,,,,,3,11,53,,,
250025,control_change,36,0,3,,,,,,,,,2,11,52,,,
250028,note_on,60,0,13,,,,,,,,,12,,,,62,0
250029,control_change,36,0,4,,,,,,,,,3,11,52,,,
250032,note_on,60,0,14,,,,,,,,,13,,,,59,0
250034,note_on,300,0,15,,,,,,,,,14,,,,40,112
250061,control_change,36,0,3,,,,,,,,,2,11,51,,,
250065,control_change,36,0,4,,,,,,,,,3,11,51,,,
250080,note_on,0,0,11,,,,,,,,,10,,,,64,0
250080,note_on,240,0,11,,,,,,,,,10,,,,74,0
250080,set_tempo,120,1,0,,,,,,322581,,,,,,,,
250083,note_on,240,0,5,,,,,,,,,4,,,,64,0
250083,note_on,240,0,12,,,,,,,,,11,,,,68,0
250084,note_on,240,0,6,,,,,,,,,5,,,,52,0
250085,note_on,0,0,3,,,,,,,,,2,,,,71,101
250085,note_on,0,0,3,,,,,,,,,2,,,,64,101
250085,note_on,24,0,3,,,,,,,,,2,,,,72,0
250085,note_on,0,0,3,,,,,,,,,2,,,,69,0
250088,note_on,60,0,13,,,,,,,,,12,,,,64,112
250089,note_on,0,0,4,,,,,,,,,3,,,,59,100
250089,note_on,0,0,4,,,,,,,,,3,,,,52,100
250089,note_on,24,0,4,,,,,,,,,3,,,,60,0
250089,note_on,0,0,4,,,,,,,,,3,,,,57,0
250092,note_on,60,0,14,,,,,,,,,13,,,,62,112
250094,note_on,0,0,15,,,,,,,,,14,,,,40,112
250094,note_on,60,0,15,,,,,,,,,14,,,,40,0
250097,control_change,12,0,3,,,,,,,,,2,11,50,,,
250101,control_change,12,0,4,,,,,,,,,3,11,50,,,
250133,control_change,36,0,3,,,,,,,,,2,11,49,,,
250137,control_change,36,0,4,,,,,,,,,3,11,49,,,
250148,note_on,60,0,13,,,,,,,,,12,,,,64,0
250152,note_on,60,0,14,,,,,,,,,13,,,,62,0
250169,control_change,36,0,3,,,,,,,,,2,11,48,,,
250173,control_change,36,0,4,,,,,,,,,3,11,48,,,
250200,set_tempo,120,1,0,,,,,,285714,,,,,,,,
250200,note_on,0,0,3,,,,,,,,,2,,,,71,0
250200,note_on,31,0,3,,,,,,,,,2,,,,64,0
250204,note_on,0,0,4,,,,,,,,,3,,,,59,0
250204,note_on,31,0,4,,,,,,,,,3,,,,52,0
250205,control_change,5,0,3,,,,,,,,,2,11,47,,,
250205,note_on,0,0,3,,,,,,,,,2,,,,72,116
250205,note_on,0,0,3,,,,,,,,,2,,,,69,116
250208,note_on,0,0,13,,,,,,,,,12,,,,57,112
250208,note_on,60,0,13,,,,,,,,,12,,,,69,112
250209,control_change,0,0,4,,,,,,,,,3,11,47,,,
250209,note_on,0,0,4,,,,,,,,,3,,,,57,115
250209,note_on,5,0,4,,,,,,,,,3,,,,60,115
250212,note_on,60,0,14,,,,,,,,,13,,,,60,112
250214,note_on,0,0,15,,,,,,,,,14,,,,40,112
250214,note_on,120,0,15,,,,,,,,,14,,,,40,0
250320,set_tempo,120,1,0,,,,,,301508,,,,,,,,
250320,note_on,240,0,11,,,,,,,,,10,,,,64,93
250323,note_on,240,0,12,,,,,,,,,11,,,,60,93
250380,note_on,60,0,11,,,,,,,,,10,,,,64,0
250383,note_on,300,0,5,,,,,,,,,4,,,,64,100
250383,note_on,60,0,12,,,,,,,,,11,,,,60,0
250384,note_on,300,0,6,,,,,,,,,5,,,,52,100
250440,note_on,60,0,11,,,,,,,,,10,,,,69,93
250440,set_tempo,120,1,0,,,,,,326087,,,,,,,,
250443,note_on,60,0,12,,,,,,,,,11,,,,64,93
250443,note_on,0,0,5,,,,,,,,,4,,,,64,100
250443,note_on,60,0,5,,,,,,,,,4,,,,64,0
250444,note_on,0,0,6,,,,,,,,,5,,,,52,100
250444,note_on,60,0,6,,,,,,,,,5,,,,52,0
250448,note_on,240,0,13,,,,,,,,,12,,,,57,0
250448,note_on,0,0,13,,,,,,,,,12,,,,69,0
250452,note_on,240,0,14,,,,,,,,,13,,,,60,0
250454,note_on,240,0,15,,,,,,,,,14,,,,40,0
250500,note_on,60,0,11,,,,,,,,,10,,,,69,0
250503,note_on,60,0,12,,,,,,,,,11,,,,64,0
250560,note_on,0,0,11,,,,,,,,,10,,,,64,93
250560,note_on,60,0,11,,,,,,,,,10,,,,72,93
250560,set_tempo,120,1,0,,,,,,287081,,,,,,,,
250563,note_on,60,0,12,,,,,,,,,11,,,,69,93
250563,note_on,0,0,12,,,,,,,,,11,,,,60,93
250563,note_on,120,0,5,,,,,,,,,4,,,,64,0
250563,note_on,0,0,5,,,,,,,,,4,,,,64,100
250564,note_on,0,0,6,,,,,,,,,5,,,,52,100
250564,note_on,120,0,6,,,,,,,,,5,,,,52,0
250568,note_on,120,0,13,,,,,,,,,12,,,,57,112
250572,note_on,120,0,14,,,,,,,,,13,,,,52,112
250628,note_on,60,0,13,,,,,,,,,12,,,,57,0
250632,note_on,60,0,14,,,,,,,,,13,,,,52,0
250680,set_tempo,120,1,0,,,,,,303030,,,,,,,,
250685,control_change,0,0,3,,,,,,,,,2,11,47,,,
250685,note_on,0,0,3,,,,,,,,,2,,,,74,101
250685,note_on,0,0,3,,,,,,,,,2,,,,72,0
250685,note_on,0,0,3,,,,,,,,,2,,,,71,101
250685,note_on,480,0,3,,,,,,,,,2,,,,69,0
250688,note_on,60,0,13,,,,,,,,,12,,,,60,112
250689,note_on,480,0,4,,,,,,,,,3,,,,57,0
250689,control_change,0,0,4,,,,,,,,,3,11,47,,,
250689,note_on,0,0,4,,,,,,,,,3,,,,60,0
250689,note_on,0,0,4,,,,,,,,,3,,,,62,100
250689,note_on,0,0,4,,,,,,,,,3,,,,59,100
250692,note_on,60,0,14,,,,,,,,,13,,,,57,112
250709,control_change,24,0,3,,,,,,,,,2,11,49,,,
250713,control_change,24,0,4,,,,,,,,,3,11,49,,,
250733,control_change,24,0,3,,,,,,,,,2,11,51,,,
250737,control_change,24,0,4,,,,,,,,,3,11,51,,,
250748,note_on,60,0,13,,,,,,,,,12,,,,60,0
250752,note_on,60,0,14,,,,,,,,,13,,,,57,0
250754,note_on,300,0,15,,,,,,,,,14,,,,40,112
250757,control_change,24,0,3,,,,,,,,,2,11,52,,,
250761,control_change,24,0,4,,,,,,,,,3,11,53,,,
250781,control_change,24,0,3,,,,,,,,,2,11,54,,,
250785,control_change,24,0,4,,,,,,,,,3,11,55,,,
250800,set_tempo,120,1,0,,,,,,325203,,,,,,,,
250800,note_on,240,0,11,,,,,,,,,10,,,,64,0
250800,note_on,0,0,11,,,,,,,,,10,,,,72,0
250803,note_on,240,0,5,,,,,,,,,4,,,,64,0
250803,note_on,240,0,12,,,,,,,,,11,,,,60,0
250803,note_on,0,0,12,,,,,,,,,11,,,,69,0
250804,note_on,240,0,6,,,,,,,,,5,,,,52,0
250805,note_on,0,0,3,,,,,,,,,2,,,,76,101
250805,note_on,0,0,3,,,,,,,,,2,,,,72,101
250805,control_change,0,0,3,,,,,,,,,2,11,55,,,
250805,note_on,24,0,3,,,,,,,,,2,,,,71,0
250805,note_on,0,0,3,,,,,,,,,2,,,,74,0
250808,note_on,60,0,13,,,,,,,,,12,,,,64,112
250809,note_on,0,0,4,,,,,,,,,3,,,,59,0
250809,note_on,0,0,4,,,,,,,,,3,,,,64,100
250809,control_change,0,0,4,,,,,,,,,3,11,57,,,
250809,note_on,24,0,4,,,,,,,,,3,,,,62,0
250809,note_on,0,0,4,,,,,,,,,3,,,,60,100
250812,note_on,60,0,14,,,,,,,,,13,,,,60,112
250814,note_on,60,0,15,,,,,,,,,14,,,,40,0
250814,note_on,0,0,15,,,,,,,,,14,,,,40,112
250829,control_change,24,0,3,,,,,,,,,2,11,57,,,
250833,control_change,24,0,4,,,,,,,,,3,11,59,,,
250853,control_change,24,0,3,,,,,,,,,2,11,58,,,
250857,control_change,24,0,4,,,,,,,,,3,11,61,,,
250868,note_on,60,0,13,,,,,,,,,12,,,,64,0
250872,note_on,60,0,14,,,,,,,,,13,,,,60,0
250877,control_change,24,0,3,,,,,,,,,2,11,60,,,
250881,control_change,24,0,4,,,,,,,,,3,11,63,,,
250901,control_change,24,0,3,,,,,,,,,2,11,61,,,
250905,control_change,24,0,4,,,,,,,,,3,11,65,,,
250920,note_on,0,0,3,,,,,,,,,2,,,,76,0
250920,note_on,19,0,3,,,,,,,,,2,,,,72,0
250920,set_tempo,120,1,0,,,,,,287081,,,,,,,,
250924,note_on,19,0,4,,,,,,,,,3,,,,64,0
250924,note_on,0,0,4,,,,,,,,,3,,,,60,0
250925,note_on,5,0,3,,,,,,,,,2,,,,72,116
250925,note_on,0,0,3,,,,,,,,,2,,,,81,116
250925,control_change,0,0,3,,,,,,,,,2,11,67,,,
250928,note_on,60,0,13,,,,,,,,,12,,,,69,112
250928,note_on,0,0,13,,,,,,,,,12,,,,60,112
250929,note_on,0,0,4,,,,,,,,,3,,,,69,115
250929,note_on,0,0,4,,,,,,,,,3,,,,60,115
250929,control_change,5,0,4,,,,,,,,,3,11,72,,,
250932,note_on,60,0,14,,,,,,,,,13,,,,57,112
250934,note_on,120,0,15,,,,,,,,,14,,,,40,0
250934,note_on,0,0,15,,,,,,,,,14,,,,40,112
250961,control_change,36,0,3,,,,,,,,,2,11,66,,,
250965,control_change,36,0,4,,,,,,,,,3,11,71,,,
250997,control_change,36,0,3,,,,,,,,,2,11,65,,,
251001,control_change,36,0,4,,,,,,,,,3,11,70,,,
251033,control_change,36,0,3,,,,,,,,,2,11,64,,,
251037,control_change,36,0,4,,,,,,,,,3,11,69,,,
251040,note_on,240,0,11,,,,,,,,,10,,,,64,93
251040,set_tempo,120,1,0,,,,,,304569,,,,,,,,
251043,note_on,240,0,12,,,,,,,,,11,,,,60,93
251045,note_on,12,0,3,,,,,,,,,2,,,,81,0
251045,note_on,0,0,3,,,,,,,,,2,,,,77,101
251045,note_on,0,0,3,,,,,,,,,2,,,,72,0
251045,note_on,0,0,3,,,,,,,,,2,,,,71,101
251049,note_on,12,0,4,,,,,,,,,3,,,,69,0
251049,note_on,0,0,4,,,,,,,,,3,,,,60,0
251049,note_on,0,0,4,,,,,,,,,3,,,,59,100
251049,note_on,0,0,4,,,,,,,,,3,,,,65,100
251069,control_change,24,0,3,,,,,,,,,2,11,64,,,
251073,control_change,24,0,4,,,,,,,,,3,11,68,,,
251100,note_on,60,0,11,,,,,,,,,10,,,,64,0
251103,note_on,300,0,5,,,,,,,,,4,,,,64,100
251103,note_on,60,0,12,,,,,,,,,11,,,,60,0
251104,note_on,300,0,6,,,,,,,,,5,,,,52,100
251105,control_change,36,0,3,,,,,,,,,2,11,63,,,
251109,control_change,36,0,4,,,,,,,,,3,11,67,,,
251141,control_change,36,0,3,,,,,,,,,2,11,62,,,
251145,control_change,36,0,4,,,,,,,,,3,11,66,,,
251160,note_on,60,0,11,,,,,,,,,10,,,,69,93
251160,set_tempo,120,1,0,,,,,,325203,,,,,,,,
251163,note_on,60,0,5,,,,,,,,,4,,,,64,0
251163,note_on,60,0,12,,,,,,,,,11,,,,64,93
251163,note_on,0,0,5,,,,,,,,,4,,,,64,100
251164,note_on,0,0,6,,,,,,,,,5,,,,52,100
251164,note_on,60,0,6,,,,,,,,,5,,,,52,0
251165,note_on,24,0,3,,,,,,,,,2,,,,77,0
251165,note_on,0,0,3,,,,,,,,,2,,,,72,101
251165,note_on,0,0,3,,,,,,,,,2,,,,76,101
251165,note_on,0,0,3,,,,,,,,,2,,,,71,0
251168,note_on,240,0,13,,,,,,,,,12,,,,60,0
251168,note_on,0,0,13,,,,,,,,,12,,,,69,0
251169,note_on,24,0,4,,,,,,,,,3,,,,65,0
251169,note_on,0,0,4,,,,,,,,,3,,,,60,100
251169,note_on,0,0,4,,,,,,,,,3,,,,64,100
251169,note_on,0,0,4,,,,,,,,,3,,,,59,0
251172,note_on,240,0,14,,,,,,,,,13,,,,57,0
251174,note_on,240,0,15,,,,,,,,,14,,,,40,0
251177,control_change,12,0,3,,,,,,,,,2,11,61,,,
251181,control_change,12,0,4,,,,,,,,,3,11,65,,,
251213,control_change,36,0,3,,,,,,,,,2,11,61,,,
251217,control_change,36,0,4,,,,,,,,,3,11,64,,,
251220,note_on,60,0,11,,,,,,,,,10,,,,69,0
251223,note_on,60,0,12,,,,,,,,,11,,,,64,0
251249,control_change,36,0,3,,,,,,,,,2,11,60,,,
251253,control_change,36,0,4,,,,,,,,,3,11,63,,,
251280,note_on,0,0,11,,,,,,,,,10,,,,72,93
251280,set_tempo,120,1,0,,,,,,287081,,,,,,,,
251280,note_on,0,0,3,,,,,,,,,2,,,,72,0
251280,note_on,60,0,11,,,,,,,,,10,,,,64,93
251280,note_on,31,0,3,,,,,,,,,2,,,,76,0
251283,note_on,60,0,12,,,,,,,,,11,,,,69,93
251283,note_on,120,0,5,,,,,,,,,4,,,,64,0
251283,note_on,0,0,5,,,,,,,,,4,,,,64,100
251284,note_on,0,0,6,,,,,,,,,5,,,,52,100
251284,note_on,31,0,4,,,,,,,,,3,,,,64,0
251284,note_on,0,0,4,,,,,,,,,3,,,,60,0
251284,note_on,120,0,6,,,,,,,,,5,,,,52,0
251285,note_on,0,0,3,,,,,,,,,2,,,,72,101
251285,control_change,5,0,3,,,,,,,,,2,11,59,,,
251285,note_on,0,0,3,,,,,,,,,2,,,,76,101
251288,note_on,120,0,13,,,,,,,,,12,,,,60,112
251289,note_on,0,0,4,,,,,,,,,3,,,,64,100
251289,control_change,0,0,4,,,,,,,,,3,11,62,,,
251289,note_on,5,0,4,,,,,,,,,3,,,,60,100
251292,note_on,120,0,14,,,,,,,,,13,,,,57,112
251348,note_on,60,0,13,,,,,,,,,12,,,,60,0
251352,note_on,60,0,14,,,,,,,,,13,,,,57,0
251400,set_tempo,120,1,0,,,,,,304569,,,,,,,,
251405,note_on,0,0,3,,,,,,,,,2,,,,76,0
251405,note_on,0,0,3,,,,,,,,,2,,,,71,101
251405,note_on,0,0,3,,,,,,,,,2,,,,74,101
251405,note_on,120,0,3,,,,,,,,,2,,,,72,0
251408,note_on,60,0,13,,,,,,,,,12,,,,64,112
251409,note_on,120,0,4,,,,,,,,,3,,,,64,0
251409,note_on,0,0,4,,,,,,,,,3,,,,60,0
251409,note_on,0,0,4,,,,,,,,,3,,,,62,100
251409,note_on,0,0,4,,,,,,,,,3,,,,59,100
251412,note_on,60,0,14,,,,,,,,,13,,,,60,112
251468,note_on,60,0,13,,,,,,,,,12,,,,64,0
251472,note_on,60,0,14,,,,,,,,,13,,,,60,0
251474,note_on,300,0,15,,,,,,,,,14,,,,40,112
251520,note_on,0,0,11,,,,,,,,,10,,,,64,0
251520,note_on,240,0,11,,,,,,,,,10,,,,72,0
251520,set_tempo,120,1,0,,,,,,325203,,,,,,,,
251523,note_on,240,0,5,,,,,,,,,4,,,,64,0
251523,note_on,240,0,12,,,,,,,,,11,,,,69,0
251524,note_on,240,0,6,,,,,,,,,5,,,,52,0
251525,note_on,0,0,3,,,,,,,,,2,,,,72,101
251525,note_on,0,0,3,,,,,,,,,2,,,,71,0
251525,note_on,0,0,3,,,,,,,,,2,,,,69,101
251525,note_on,120,0,3,,,,,,,,,2,,,,74,0
251528,note_on,60,0,13,,,,,,,,,12,,,,69,112
251529,note_on,120,0,4,,,,,,,,,3,,,,62,0
251529,note_on,0,0,4,,,,,,,,,3,,,,60,100
251529,note_on,0,0,4,,,,,,,,,3,,,,59,0
251529,note_on,0,0,4,,,,,,,,,3,,,,57,100
251532,note_on,60,0,14,,,,,,,,,13,,,,64,112
251534,note_on,60,0,15,,,,,,,,,14,,,,40,0
251534,note_on,0,0,15,,,,,,,,,14,,,,40,112
251588,note_on,60,0,13,,,,,,,,,12,,,,69,0
251592,note_on,60,0,14,,,,,,,,,13,,,,64,0
251640,set_tempo,120,1,0,,,,,,289855,,,,,,,,
251640,note_on,115,0,3,,,,,,,,,2,,,,72,0
251640,note_on,0,0,3,,,,,,,,,2,,,,69,0
251644,note_on,0,0,4,,,,,,,,,3,,,,57,0
251644,note_on,115,0,4,,,,,,,,,3,,,,60,0
251645,note_on,5,0,3,,,,,,,,,2,,,,71,116
251645,control_change,0,0,3,,,,,,,,,2,11,59,,,
251645,note_on,0,0,3,,,,,,,,,2,,,,68,116
251648,note_on,0,0,13,,,,,,,,,12,,,,59,112
251648,note_on,60,0,13,,,,,,,,,12,,,,68,112
251649,control_change,0,0,4,,,,,,,,,3,11,62,,,
251649,note_on,0,0,4,,,,,,,,,3,,,,56,115
251649,note_on,5,0,4,,,,,,,,,3,,,,59,115
251652,note_on,60,0,14,,,,,,,,,13,,,,64,112
251654,note_on,120,0,15,,,,,,,,,14,,,,40,0
251654,note_on,0,0,15,,,,,,,,,14,,,,40,112
251669,control_change,24,0,3,,,,,,,,,2,11,58,,,
251673,control_change,24,0,4,,,,,,,,,3,11,61,,,
251693,control_change,24,0,3,,,,,,,,,2,11,58,,,
251697,control_change,24,0,4,,,,,,,,,3,11,60,,,
251717,control_change,24,0,3,,,,,,,,,2,11,57,,,
251721,control_change,24,0,4,,,,,,,,,3,11,59,,,
251741,control_change,24,0,3,,,,,,,,,2,11,56,,,
251745,control_change,24,0,4,,,,,,,,,3,11,58,,,
251760,set_tempo,120,1,0,,,,,,307692,,,,,,,,
251760,note_on,240,0,11,,,,,,,,,10,,,,64,93
251763,note_on,240,0,12,,,,,,,,,11,,,,59,93
251765,control_change,24,0,3,,,,,,,,,2,11,55,,,
251769,control_change,24,0,4,,,,,,,,,3,11,57,,,
251789,control_change,24,0,3,,,,,,,,,2,11,55,,,
251793,control_change,24,0,4,,,,,,,,,3,11,56,,,
251813,control_change,24,0,3,,,,,,,,,2,11,54,,,
251817,control_change,24,0,4,,,,,,,,,3,11,55,,,
251820,note_on,60,0,11,,,,,,,,,10,,,,64,0
251823,note_on,300,0,5,,,,,,,,,4,,,,64,100
251823,note_on,60,0,12,,,,,,,,,11,,,,59,0
251824,note_on,300,0,6,,,,,,,,,5,,,,52,100
251837,control_change,24,0,3,,,,,,,,,2,11,53,,,
251841,control_change,24,0,4,,,,,,,,,3,11,54,,,
251861,control_change,24,0,3,,,,,,,,,2,11,52,,,
251865,control_change,24,0,4,,,,,,,,,3,11,53,,,
251880,note_on,60,0,11,,,,,,,,,10,,,,68,93
251880,set_tempo,120,1,0,,,,,,326087,,,,,,,,
251883,note_on,60,0,12,,,,,,,,,11,,,,64,93
251883,note_on,0,0,5,,,,,,,,,4,,,,64,100
251883,note_on,60,0,5,,,,,,,,,4,,,,64,0
251884,note_on,60,0,6,,,,,,,,,5,,,,52,0
251884,note_on,0,0,6,,,,,,,,,5,,,,52,100
251885,control_change,24,0,3,,,,,,,,,2,11,52,,,
251888,note_on,0,0,13,,,,,,,,,12,,,,68,0
251888,note_on,240,0,13,,,,,,,,,12,,,,59,0
251889,control_change,24,0,4,,,,,,,,,3,11,52,,,
251892,note_on,240,0,14,,,,,,,,,13,,,,64,0
251894,note_on,240,0,15,,,,,,,,,14,,,,40,0
251909,control_change,24,0,3,,,,,,,,,2,11,51,,,
251913,control_change,24,0,4,,,,,,,,,3,11,51,,,
251933,control_change,24,0,3,,,,,,,,,2,11,50,,,
251937,control_change,24,0,4,,,,,,,,,3,11,50,,,
251940,note_on,60,0,11,,,,,,,,,10,,,,68,0
251943,note_on,60,0,12,,,,,,,,,11,,,,64,0
251957,control_change,24,0,3,,,,,,,,,2,11,49,,,
251961,control_change,24,0,4,,,,,,,,,3,11,49,,,
251981,control_change,24,0,3,,,,,,,,,2,11,48,,,
251985,control_change,24,0,4,,,,,,,,,3,11,48,,,
252000,set_tempo,120,1,0,,,,,,289855,,,,,,,,
252000,note_on,60,0,11,,,,,,,,,10,,,,71,93
252000,note_on,0,0,11,,,,,,,,,10,,,,64,93
252003,note_on,0,0,5,,,,,,,,,4,,,,64,100
252003,note_on,120,0,5,,,,,,,,,4,,,,64,0
252003,note_on,60,0,12,,,,,,,,,11,,,,68,93
252003,note_on,0,0,12,,,,,,,,,11,,,,59,93
252004,note_on,120,0,6,,,,,,,,,5,,,,52,0
252004,note_on,0,0,6,,,,,,,,,5,,,,52,100
252005,control_change,24,0,3,,,,,,,,,2,11,47,,,
252008,note_on,120,0,13,,,,,,,,,12,,,,56,112
252009,control_change,24,0,4,,,,,,,,,3,11,47,,,
252012,note_on,120,0,14,,,,,,,,,13,,,,52,112
252029,control_change,24,0,3,,,,,,,,,2,11,41,,,
252033,control_change,24,0,4,,,,,,,,,3,11,41,,,
252053,control_change,24,0,3,,,,,,,,,2,11,40,,,
252057,control_change,24,0,4,,,,,,,,,3,11,40,,,
252068,note_on,60,0,13,,,,,,,,,12,,,,56,0
252072,note_on,60,0,14,,,,,,,,,13,,,,52,0
252077,control_change,24,0,3,,,,,,,,,2,11,39,,,
252081,control_change,24,0,4,,,,,,,,,3,11,39,,,
252101,control_change,24,0,3,,,,,,,,,2,11,38,,,
252105,control_change,24,0,4,,,,,,,,,3,11,38,,,
252120,set_tempo,120,1,0,,,,,,307692,,,,,,,,
252125,note_on,24,0,3,,,,,,,,,2,,,,68,0
252125,note_on,0,0,3,,,,,,,,,2,,,,69,101
252125,note_on,0,0,3,,,,,,,,,2,,,,72,101
252125,control_change,0,0,3,,,,,,,,,2,11,37,,,
252125,note_on,0,0,3,,,,,,,,,2,,,,71,0
252128,note_on,60,0,13,,,,,,,,,12,,,,59,112
252129,note_on,0,0,4,,,,,,,,,3,,,,59,0
252129,note_on,0,0,4,,,,,,,,,3,,,,60,100
252129,note_on,0,0,4,,,,,,,,,3,,,,57,100
252129,control_change,0,0,4,,,,,,,,,3,11,37,,,
252129,note_on,24,0,4,,,,,,,,,3,,,,56,0
252132,note_on,60,0,14,,,,,,,,,13,,,,56,112
252149,control_change,24,0,3,,,,,,,,,2,11,38,,,
252153,control_change,24,0,4,,,,,,,,,3,11,38,,,
252173,control_change,24,0,3,,,,,,,,,2,11,39,,,
252177,control_change,24,0,4,,,,,,,,,3,11,39,,,
252188,note_on,60,0,13,,,,,,,,,12,,,,59,0
252192,note_on,60,0,14,,,,,,,,,13,,,,56,0
252194,note_on,300,0,15,,,,,,,,,14,,,,40,112
252197,control_change,24,0,3,,,,,,,,,2,11,40,,,
252201,control_change,24,0,4,,,,,,,,,3,11,40,,,
252221,control_change,24,0,3,,,,,,,,,2,11,41,,,
252225,control_change,24,0,4,,,,,,,,,3,11,41,,,
252240,set_tempo,120,1,0,,,,,,326087,,,,,,,,
252240,control_change,0,0,11,,,,,,,,,10,11,41,,,
252240,note_on,240,0,11,,,,,,,,,10,,,,64,0
252240,note_on,0,0,11,,,,,,,,,10,,,,71,0
252243,note_on,240,0,5,,,,,,,,,4,,,,64,0
252243,note_on,240,0,12,,,,,,,,,11,,,,59,0
252243,control_change,0,0,12,,,,,,,,,11,11,41,,,
252243,note_on,0,0,12,,,,,,,,,11,,,,68,0
252244,note_on,240,0,6,,,,,,,,,5,,,,52,0
252245,note_on,24,0,3,,,,,,,,,2,,,,72,0
252245,note_on,0,0,3,,,,,,,,,2,,,,69,0
252245,note_on,0,0,3,,,,,,,,,2,,,,68,101
252245,control_change,0,0,3,,,,,,,,,2,11,47,,,
252245,note_on,0,0,3,,,,,,,,,2,,,,71,101
252248,note_on,0,0,13,,,,,,,,,12,,,,64,112
252248,control_change,60,0,13,,,,,,,,,12,11,41,,,
252249,note_on,0,0,4,,,,,,,,,3,,,,60,0
252249,note_on,24,0,4,,,,,,,,,3,,,,57,0
252249,note_on,0,0,4,,,,,,,,,3,,,,59,100
252249,control_change,0,0,4,,,,,,,,,3,11,47,,,
252249,note_on,0,0,4,,,,,,,,,3,,,,56,100
252252,note_on,60,0,14,,,,,,,,,13,,,,59,112
252252,control_change,0,0,14,,,,,,,,,13,11,41,,,
252254,control_change,0,0,15,,,,,,,,,14,11,41,,,
252254,note_on,60,0,15,,,,,,,,,14,,,,40,0
252254,note_on,0,0,15,,,,,,,,,14,,,,40,112
252269,control_change,24,0,3,,,,,,,,,2,11,48,,,
252273,control_change,24,0,4,,,,,,,,,3,11,48,,,
252290,control_change,50,0,11,,,,,,,,,10,11,42,,,
252293,control_change,24,0,3,,,,,,,,,2,11,49,,,
252293,control_change,50,0,12,,,,,,,,,11,11,42,,,
252297,control_change,24,0,4,,,,,,,,,3,11,49,,,
252298,control_change,50,0,13,,,,,,,,,12,11,42,,,
252302,control_change,50,0,14,,,,,,,,,13,11,42,,,
252304,control_change,50,0,15,,,,,,,,,14,11,42,,,
252308,note_on,10,0,13,,,,,,,,,12,,,,64,0
252312,note_on,10,0,14,,,,,,,,,13,,,,59,0
252317,control_change,24,0,3,,,,,,,,,2,11,50,,,
252321,control_change,24,0,4,,,,,,,,,3,11,50,,,
252341,control_change,51,0,11,,,,,,,,,10,11,42,,,
252341,control_change,24,0,3,,,,,,,,,2,11,51,,,
252344,control_change,51,0,12,,,,,,,,,11,11,42,,,
252345,control_change,24,0,4,,,,,,,,,3,11,51,,,
252349,control_change,41,0,13,,,,,,,,,12,11,42,,,
252353,control_change,41,0,14,,,,,,,,,13,11,42,,,
252355,control_change,51,0,15,,,,,,,,,14,11,42,,,
252360,note_on,19,0,3,,,,,,,,,2,,,,71,0
252360,note_on,0,0,3,,,,,,,,,2,,,,68,0
252360,set_tempo,120,1,0,,,,,,289855,,,,,,,,
252364,note_on,19,0,4,,,,,,,,,3,,,,59,0
252364,note_on,0,0,4,,,,,,,,,3,,,,56,0
252365,control_change,5,0,3,,,,,,,,,2,11,52,,,
252365,note_on,0,0,3,,,,,,,,,2,,,,69,116
252365,note_on,0,0,3,,,,,,,,,2,,,,72,116
252368,note_on,19,0,13,,,,,,,,,12,,,,60,112
252369,note_on,0,0,4,,,,,,,,,3,,,,60,115
252369,control_change,5,0,4,,,,,,,,,3,11,52,,,
252369,note_on,0,0,4,,,,,,,,,3,,,,57,115
252372,note_on,19,0,14,,,,,,,,,13,,,,57,112
252374,note_on,19,0,15,,,,,,,,,14,,,,40,0
252374,note_on,0,0,15,,,,,,,,,14,,,,40,112
252392,control_change,51,0,11,,,,,,,,,10,11,43,,,
252395,control_change,51,0,12,,,,,,,,,11,11,43,,,
252400,control_change,32,0,13,,,,,,,,,12,11,43,,,
252404,control_change,32,0,14,,,,,,,,,13,11,43,,,
252406,control_change,32,0,15,,,,,,,,,14,11,43,,,
252433,control_change,68,0,3,,,,,,,,,2,11,52,,,
252437,control_change,68,0,4,,,,,,,,,3,11,53,,,
252442,control_change,50,0,11,,,,,,,,,10,11,44,,,
252445,control_change,50,0,12,,,,,,,,,11,11,44,,,
252450,control_change,50,0,13,,,,,,,,,12,11,44,,,
252454,control_change,50,0,14,,,,,,,,,13,11,44,,,
252456,control_change,50,0,15,,,,,,,,,14,11,44,,,
252480,set_tempo,120,1,0,,,,,,307692,,,,,,,,
252480,note_on,38,0,11,,,,,,,,,10,,,,64,93
252483,note_on,38,0,12,,,,,,,,,11,,,,60,93
252493,control_change,13,0,11,,,,,,,,,10,11,45,,,
252496,control_change,13,0,12,,,,,,,,,11,11,45,,,
252501,control_change,51,0,13,,,,,,,,,12,11,45,,,
252501,control_change,68,0,3,,,,,,,,,2,11,53,,,
252505,control_change,51,0,14,,,,,,,,,13,11,45,,,
252505,control_change,68,0,4,,,,,,,,,3,11,54,,,
252507,control_change,51,0,15,,,,,,,,,14,11,45,,,
252540,note_on,47,0,11,,,,,,,,,10,,,,64,0
252543,control_change,0,0,5,,,,,,,,,4,11,47,,,
252543,note_on,300,0,5,,,,,,,,,4,,,,64,100
252543,note_on,47,0,12,,,,,,,,,11,,,,60,0
252544,control_change,300,0,6,,,,,,,,,5,11,47,,,
252544,note_on,0,0,6,,,,,,,,,5,,,,52,100
252544,control_change,4,0,11,,,,,,,,,10,11,46,,,
252547,control_change,4,0,12,,,,,,,,,11,11,46,,,
252552,control_change,51,0,13,,,,,,,,,12,11,46,,,
252556,control_change,51,0,14,,,,,,,,,13,11,46,,,
252558,control_change,51,0,15,,,,,,,,,14,11,46,,,
252569,control_change,68,0,3,,,,,,,,,2,11,54,,,
252573,control_change,68,0,4,,,,,,,,,3,11,55,,,
252589,control_change,46,0,5,,,,,,,,,4,11,48,,,
252590,control_change,46,0,6,,,,,,,,,5,11,48,,,
252594,control_change,50,0,11,,,,,,,,,10,11,47,,,
252597,control_change,50,0,12,,,,,,,,,11,11,47,,,
252600,set_tempo,120,1,0,,,,,,326087,,,,,,,,
252600,note_on,6,0,11,,,,,,,,,10,,,,69,93
252602,control_change,50,0,13,,,,,,,,,12,11,47,,,
252603,note_on,14,0,5,,,,,,,,,4,,,,64,0
252603,note_on,6,0,12,,,,,,,,,11,,,,64,93
252603,note_on,0,0,5,,,,,,,,,4,,,,64,100
252604,note_on,0,0,6,,,,,,,,,5,,,,52,100
252604,note_on,14,0,6,,,,,,,,,5,,,,52,0
252606,control_change,50,0,14,,,,,,,,,13,11,47,,,
252608,note_on,6,0,13,,,,,,,,,12,,,,60,0
252608,control_change,50,0,15,,,,,,,,,14,11,47,,,
252612,note_on,6,0,14,,,,,,,,,13,,,,57,0
252614,note_on,6,0,15,,,,,,,,,14,,,,40,0
252635,control_change,32,0,5,,,,,,,,,4,11,49,,,
252636,control_change,32,0,6,,,,,,,,,5,11,49,,,
252637,control_change,68,0,3,,,,,,,,,2,11,55,,,
252641,control_change,68,0,4,,,,,,,,,3,11,56,,,
252645,control_change,45,0,11,,,,,,,,,10,11,48,,,
252648,control_change,45,0,12,,,,,,,,,11,11,48,,,
252653,control_change,45,0,13,,,,,,,,,12,11,48,,,
252657,control_change,45,0,14,,,,,,,,,13,11,48,,,
252659,control_change,45,0,15,,,,,,,,,14,11,48,,,
252660,note_on,15,0,11,,,,,,,,,10,,,,69,0
252663,note_on,15,0,12,,,,,,,,,11,,,,64,0
252681,control_change,46,0,5,,,,,,,,,4,11,50,,,
252682,control_change,46,0,6,,,,,,,,,5,11,50,,,
252696,control_change,36,0,11,,,,,,,,,10,11,49,,,
252699,control_change,36,0,12,,,,,,,,,11,11,49,,,
252704,control_change,51,0,13,,,,,,,,,12,11,49,,,
252705,control_change,68,0,3,,,,,,,,,2,11,55,,,
252708,control_change,51,0,14,,,,,,,,,13,11,49,,,
252709,control_change,68,0,4,,,,,,,,,3,11,57,,,
252710,control_change,51,0,15,,,,,,,,,14,11,49,,,
252720,set_tempo,120,1,0,,,,,,289855,,,,,,,,
252720,note_on,0,0,11,,,,,,,,,10,,,,72,93
252720,note_on,24,0,11,,,,,,,,,10,,,,64,93
252723,note_on,0,0,5,,,,,,,,,4,,,,64,100
252723,note_on,0,0,12,,,,,,,,,11,,,,60,93
252723,note_on,24,0,12,,,,,,,,,11,,,,69,93
252723,note_on,42,0,5,,,,,,,,,4,,,,64,0
252724,note_on,42,0,6,,,,,,,,,5,,,,52,0
252724,note_on,0,0,6,,,,,,,,,5,,,,52,100
252728,note_on,24,0,13,,,,,,,,,12,,,,57,112
252728,control_change,5,0,5,,,,,,,,,4,11,51,,,
252729,control_change,5,0,6,,,,,,,,,5,11,51,,,
252732,note_on,24,0,14,,,,,,,,,13,,,,52,112
252746,control_change,26,0,11,,,,,,,,,10,11,50,,,
252749,control_change,26,0,12,,,,,,,,,11,11,50,,,
252754,control_change,26,0,13,,,,,,,,,12,11,50,,,
252758,control_change,26,0,14,,,,,,,,,13,11,50,,,
252760,control_change,50,0,15,,,,,,,,,14,11,50,,,
252773,control_change,68,0,3,,,,,,,,,2,11,56,,,
252774,control_change,46,0,5,,,,,,,,,4,11,52,,,
252775,control_change,46,0,6,,,,,,,,,5,11,52,,,
252777,control_change,68,0,4,,,,,,,,,3,11,58,,,
252788,note_on,34,0,13,,,,,,,,,12,,,,57,0
252792,note_on,34,0,14,,,,,,,,,13,,,,52,0
252805,control_change,17,0,13,,,,,,,,,12,11,51,,,
252809,control_change,17,0,14,,,,,,,,,13,11,51,,,
252811,control_change,51,0,15,,,,,,,,,14,11,51,,,
252820,control_change,46,0,5,,,,,,,,,4,11,53,,,
252821,control_change,46,0,6,,,,,,,,,5,11,53,,,
252840,set_tempo,120,1,0,,,,,,307692,,,,,,,,
252841,control_change,68,0,3,,,,,,,,,2,11,57,,,
252845,control_change,68,0,4,,,,,,,,,3,11,59,,,
252845,note_on,0,0,3,,,,,,,,,2,,,,74,101
252845,note_on,0,0,3,,,,,,,,,2,,,,71,101
252845,note_on,0,0,3,,,,,,,,,2,,,,69,0
252845,note_on,4,0,3,,,,,,,,,2,,,,72,0
252848,note_on,43,0,13,,,,,,,,,12,,,,60,112
252849,note_on,0,0,4,,,,,,,,,3,,,,60,0
252849,note_on,4,0,4,,,,,,,,,3,,,,57,0
252849,note_on,0,0,4,,,,,,,,,3,,,,62,100
252849,note_on,0,0,4,,,,,,,,,3,,,,59,100
252852,note_on,43,0,14,,,,,,,,,13,,,,57,112
252856,control_change,8,0,13,,,,,,,,,12,11,52,,,
252860,control_change,8,0,14,,,,,,,,,13,11,52,,,
252862,control_change,51,0,15,,,,,,,,,14,11,52,,,
252867,control_change,47,0,5,,,,,,,,,4,11,54,,,
252868,control_change,47,0,6,,,,,,,,,5,11,54,,,
252906,control_change,50,0,13,,,,,,,,,12,11,53,,,
252908,note_on,2,0,13,,,,,,,,,12,,,,60,0
252909,control_change,64,0,3,,,,,,,,,2,11,58,,,
252910,control_change,50,0,14,,,,,,,,,13,11,53,,,
252912,note_on,2,0,14,,,,,,,,,13,,,,57,0
252912,control_change,50,0,15,,,,,,,,,14,11,53,,,
252913,control_change,46,0,5,,,,,,,,,4,11,55,,,
252913,control_change,64,0,4,,,,,,,,,3,11,60,,,
252914,control_change,46,0,6,,,,,,,,,5,11,55,,,
252914,note_on,2,0,15,,,,,,,,,14,,,,40,112
252957,control_change,49,0,13,,,,,,,,,12,11,54,,,
252959,control_change,46,0,5,,,,,,,,,4,11,56,,,
252960,note_on,0,0,11,,,,,,,,,10,,,,64,0
252960,note_on,214,0,11,,,,,,,,,10,,,,72,0
252960,set_tempo,120,1,0,,,,,,326087,,,,,,,,
252960,control_change,46,0,6,,,,,,,,,5,11,56,,,
252961,control_change,49,0,14,,,,,,,,,13,11,54,,,
252963,control_change,49,0,15,,,,,,,,,14,11,54,,,
252963,note_on,4,0,5,,,,,,,,,4,,,,64,0
252963,note_on,214,0,12,,,,,,,,,11,,,,60,0
252963,note_on,0,0,12,,,,,,,,,11,,,,69,0
252964,note_on,4,0,6,,,,,,,,,5,,,,52,0
252965,note_on,0,0,3,,,,,,,,,2,,,,72,101
252965,note_on,0,0,3,,,,,,,,,2,,,,69,101
252965,note_on,56,0,3,,,,,,,,,2,,,,74,0
252965,note_on,0,0,3,,,,,,,,,2,,,,71,0
252968,note_on,11,0,13,,,,,,,,,12,,,,64,112
252969,note_on,0,0,4,,,,,,,,,3,,,,60,100
252969,note_on,0,0,4,,,,,,,,,3,,,,62,0
252969,note_on,56,0,4,,,,,,,,,3,,,,59,0
252969,note_on,0,0,4,,,,,,,,,3,,,,57,100
252972,note_on,11,0,14,,,,,,,,,13,,,,60,112
252974,note_on,0,0,15,,,,,,,,,14,,,,40,112
252974,note_on,11,0,15,,,,,,,,,14,,,,40,0
252977,control_change,12,0,3,,,,,,,,,2,11,58,,,
252981,control_change,12,0,4,,,,,,,,,3,11,61,,,
253005,control_change,42,0,5,,,,,,,,,4,11,57,,,
253006,control_change,42,0,6,,,,,,,,,5,11,57,,,
253008,control_change,40,0,13,,,,,,,,,12,11,55,,,
253012,control_change,40,0,14,,,,,,,,,13,11,55,,,
253014,control_change,40,0,15,,,,,,,,,14,11,55,,,
253028,note_on,20,0,13,,,,,,,,,12,,,,64,0
253032,note_on,20,0,14,,,,,,,,,13,,,,60,0
253044,control_change,4040,0,2,,,,,,,,,1,11,59,,,
253045,control_change,68,0,3,,,,,,,,,2,11,59,,,
253049,control_change,68,0,4,,,,,,,,,3,11,62,,,
253052,control_change,47,0,5,,,,,,,,,4,11,58,,,
253053,control_change,47,0,6,,,,,,,,,5,11,58,,,
253058,control_change,30,0,13,,,,,,,,,12,11,56,,,
253062,control_change,30,0,14,,,,,,,,,13,11,56,,,
253064,control_change,50,0,15,,,,,,,,,14,11,56,,,
253080,note_on,0,0,3,,,,,,,,,2,,,,69,0
253080,set_tempo,120,1,0,,,,,,289855,,,,,,,,
253080,note_on,35,0,3,,,,,,,,,2,,,,72,0
253084,note_on,35,0,4,,,,,,,,,3,,,,57,0
253084,note_on,0,0,4,,,,,,,,,3,,,,60,0
253084,note_on,0,0,2,,,,,,,,,1,,,,71,115
253084,note_on,40,0,2,,,,,,,,,1,,,,74,115
253085,note_on,5,0,3,,,,,,,,,2,,,,71,116
253085,note_on,0,0,3,,,,,,,,,2,,,,74,116
253088,note_on,30,0,13,,,,,,,,,12,,,,62,112
253089,note_on,5,0,4,,,,,,,,,3,,,,62,115
253089,note_on,0,0,4,,,,,,,,,3,,,,59,115
253092,note_on,30,0,14,,,,,,,,,13,,,,59,112
253094,note_on,0,0,15,,,,,,,,,14,,,,40,112
253094,note_on,30,0,15,,,,,,,,,14,,,,40,0
253098,control_change,46,0,5,,,,,,,,,4,11,59,,,
253099,control_change,46,0,6,,,,,,,,,5,11,59,,,
253109,control_change,21,0,13,,,,,,,,,12,11,57,,,
253112,control_change,28,0,2,,,,,,,,,1,11,60,,,
253113,control_change,28,0,3,,,,,,,,,2,11,60,,,
253113,control_change,21,0,14,,,,,,,,,13,11,57,,,
253115,control_change,21,0,15,,,,,,,,,14,11,57,,,
253117,control_change,28,0,4,,,,,,,,,3,11,63,,,
253144,control_change,46,0,5,,,,,,,,,4,11,60,,,
253145,control_change,46,0,6,,,,,,,,,5,11,60,,,
253152,control_change,192,0,11,,,,,,,,,10,11,57,,,
253155,control_change,192,0,12,,,,,,,,,11,11,57,,,
253160,control_change,51,0,13,,,,,,,,,12,11,57,,,
253164,control_change,51,0,14,,,,,,,,,13,11,57,,,
253166,control_change,51,0,15,,,,,,,,,14,11,57,,,
253180,control_change,68,0,2,,,,,,,,,1,11,61,,,
253181,control_change,68,0,3,,,,,,,,,2,11,61,,,
253185,control_change,68,0,4,,,,,,,,,3,11,64,,,
253191,control_change,47,0,5,,,,,,,,,4,11,61,,,
253192,control_change,47,0,6,,,,,,,,,5,11,61,,,
253200,note_on,48,0,11,,,,,,,,,10,,,,64,93
253200,set_tempo,120,1,0,,,,,,303030,,,,,,,,
253202,control_change,2,0,11,,,,,,,,,10,11,58,,,
253203,note_on,48,0,12,,,,,,,,,11,,,,62,93
253205,control_change,2,0,12,,,,,,,,,11,11,58,,,
253210,control_change,50,0,13,,,,,,,,,12,11,58,,,
253214,control_change,50,0,14,,,,,,,,,13,11,58,,,
253216,control_change,50,0,15,,,,,,,,,14,11,58,,,
253237,control_change,46,0,5,,,,,,,,,4,11,62,,,
253238,control_change,46,0,6,,,,,,,,,5,11,62,,,
253248,control_change,68,0,2,,,,,,,,,1,11,61,,,
253249,control_change,68,0,3,,,,,,,,,2,11,61,,,
253253,control_change,68,0,4,,,,,,,,,3,11,65,,,
253253,control_change,51,0,11,,,,,,,,,10,11,59,,,
253256,control_change,51,0,12,,,,,,,,,11,11,59,,,
253260,note_on,7,0,11,,,,,,,,,10,,,,64,0
253261,control_change,51,0,13,,,,,,,,,12,11,59,,,
253263,note_on,7,0,12,,,,,,,,,11,,,,62,0
253263,note_on,26,0,5,,,,,,,,,4,,,,64,100
253264,note_on,26,0,6,,,,,,,,,5,,,,52,100
253265,control_change,51,0,14,,,,,,,,,13,11,59,,,
253267,control_change,51,0,15,,,,,,,,,14,11,59,,,
253283,control_change,20,0,5,,,,,,,,,4,11,63,,,
253284,control_change,20,0,6,,,,,,,,,5,11,63,,,
253304,control_change,44,0,11,,,,,,,,,10,11,60,,,
253307,control_change,44,0,12,,,,,,,,,11,11,60,,,
253312,control_change,51,0,13,,,,,,,,,12,11,60,,,
253316,control_change,68,0,2,,,,,,,,,1,11,62,,,
253316,control_change,51,0,14,,,,,,,,,13,11,60,,,
253317,control_change,68,0,3,,,,,,,,,2,11,62,,,
253318,control_change,51,0,15,,,,,,,,,14,11,60,,,
253320,set_tempo,120,1,0,,,,,,326087,,,,,,,,
253320,note_on,16,0,11,,,,,,,,,10,,,,71,93
253321,control_change,68,0,4,,,,,,,,,3,11,66,,,
253323,note_on,16,0,12,,,,,,,,,11,,,,64,93
253323,note_on,40,0,5,,,,,,,,,4,,,,64,0
253323,note_on,0,0,5,,,,,,,,,4,,,,64,100
253324,note_on,40,0,6,,,,,,,,,5,,,,52,0
253324,note_on,0,0,6,,,,,,,,,5,,,,52,100
253328,note_on,16,0,13,,,,,,,,,12,,,,62,0
253329,control_change,6,0,5,,,,,,,,,4,11,64,,,
253330,control_change,6,0,6,,,,,,,,,5,11,64,,,
253332,note_on,16,0,14,,,,,,,,,13,,,,59,0
253334,note_on,16,0,15,,,,,,,,,14,,,,40,0
253354,control_change,34,0,11,,,,,,,,,10,11,61,,,
253357,control_change,34,0,12,,,,,,,,,11,11,61,,,
253362,control_change,34,0,13,,,,,,,,,12,11,61,,,
253366,control_change,34,0,14,,,,,,,,,13,11,61,,,
253368,control_change,34,0,15,,,,,,,,,14,11,61,,,
253376,control_change,47,0,5,,,,,,,,,4,11,65,,,
253377,control_change,47,0,6,,,,,,,,,5,11,65,,,
253380,note_on,26,0,11,,,,,,,,,10,,,,71,0
253383,note_on,26,0,12,,,,,,,,,11,,,,64,0
253384,control_change,68,0,2,,,,,,,,,1,11,63,,,
253385,control_change,68,0,3,,,,,,,,,2,11,63,,,
253389,control_change,68,0,4,,,,,,,,,3,11,67,,,
253405,control_change,25,0,11,,,,,,,,,10,11,62,,,
253408,control_change,25,0,12,,,,,,,,,11,11,62,,,
253413,control_change,51,0,13,,,,,,,,,12,11,62,,,
253417,control_change,51,0,14,,,,,,,,,13,11,62,,,
253419,control_change,51,0,15,,,,,,,,,14,11,62,,,
253422,control_change,46,0,5,,,,,,,,,4,11,66,,,
253423,control_change,46,0,6,,,,,,,,,5,11,66,,,
253440,note_on,0,0,11,,,,,,,,,10,,,,64,93
253440,set_tempo,120,1,0,,,,,,288462,,,,,,,,
253440,note_on,35,0,11,,,,,,,,,10,,,,74,93
253443,note_on,21,0,5,,,,,,,,,4,,,,64,0
253443,note_on,0,0,12,,,,,,,,,11,,,,71,93
253443,note_on,0,0,5,,,,,,,,,4,,,,64,100
253443,note_on,35,0,12,,,,,,,,,11,,,,64,93
253444,note_on,0,0,6,,,,,,,,,5,,,,52,100
253444,note_on,21,0,6,,,,,,,,,5,,,,52,0
253448,note_on,35,0,13,,,,,,,,,12,,,,59,112
253452,control_change,68,0,2,,,,,,,,,1,11,64,,,
253452,note_on,35,0,14,,,,,,,,,13,,,,52,112
253453,control_change,68,0,3,,,,,,,,,2,11,64,,,
253456,control_change,16,0,11,,,,,,,,,10,11,63,,,
253457,control_change,68,0,4,,,,,,,,,3,11,68,,,
253459,control_change,16,0,12,,,,,,,,,11,11,63,,,
253464,control_change,16,0,13,,,,,,,,,12,11,63,,,
253468,control_change,16,0,14,,,,,,,,,13,11,63,,,
253468,control_change,25,0,5,,,,,,,,,4,11,67,,,
253469,control_change,25,0,6,,,,,,,,,5,11,67,,,
253470,control_change,51,0,15,,,,,,,,,14,11,63,,,
253508,note_on,44,0,13,,,,,,,,,12,,,,59,0
253512,note_on,44,0,14,,,,,,,,,13,,,,52,0
253514,control_change,6,0,13,,,,,,,,,12,11,64,,,
253515,control_change,47,0,5,,,,,,,,,4,11,68,,,
253516,control_change,47,0,6,,,,,,,,,5,11,68,,,
253518,control_change,6,0,14,,,,,,,,,13,11,64,,,
253520,control_change,50,0,15,,,,,,,,,14,11,64,,,
253520,control_change,68,0,2,,,,,,,,,1,11,64,,,
253521,control_change,68,0,3,,,,,,,,,2,11,64,,,
253525,control_change,68,0,4,,,,,,,,,3,11,69,,,
253560,set_tempo,120,1,0,,,,,,300000,,,,,,,,
253561,control_change,46,0,5,,,,,,,,,4,11,69,,,
253562,control_change,46,0,6,,,,,,,,,5,11,69,,,
253564,note_on,0,0,2,,,,,,,,,1,,,,72,100
253564,note_on,0,0,2,,,,,,,,,1,,,,76,100
253564,note_on,44,0,2,,,,,,,,,1,,,,71,0
253564,note_on,0,0,2,,,,,,,,,1,,,,74,0
253565,note_on,0,0,3,,,,,,,,,2,,,,72,101
253565,note_on,0,0,3,,,,,,,,,2,,,,71,0
253565,note_on,0,0,3,,,,,,,,,2,,,,76,101
253565,control_change,51,0,13,,,,,,,,,12,11,65,,,
253565,note_on,44,0,3,,,,,,,,,2,,,,74,0
253568,note_on,3,0,13,,,,,,,,,12,,,,62,112
253569,note_on,0,0,4,,,,,,,,,3,,,,60,100
253569,note_on,0,0,4,,,,,,,,,3,,,,62,0
253569,note_on,0,0,4,,,,,,,,,3,,,,64,100
253569,control_change,51,0,14,,,,,,,,,13,11,65,,,
253569,note_on,44,0,4,,,,,,,,,3,,,,59,0
253571,control_change,51,0,15,,,,,,,,,14,11,65,,,
253572,note_on,3,0,14,,,,,,,,,13,,,,59,112
253588,control_change,24,0,2,,,,,,,,,1,11,65,,,
253589,control_change,24,0,3,,,,,,,,,2,11,65,,,
253593,control_change,24,0,4,,,,,,,,,3,11,70,,,
253607,control_change,46,0,5,,,,,,,,,4,11,70,,,
253608,control_change,46,0,6,,,,,,,,,5,11,70,,,
253616,control_change,48,0,13,,,,,,,,,12,11,66,,,
253620,control_change,48,0,14,,,,,,,,,13,11,66,,,
253622,control_change,51,0,15,,,,,,,,,14,11,66,,,
253628,note_on,12,0,13,,,,,,,,,12,,,,62,0
253632,note_on,12,0,14,,,,,,,,,13,,,,59,0
253634,note_on,12,0,15,,,,,,,,,14,,,,40,112
253653,control_change,46,0,5,,,,,,,,,4,11,71,,,
253654,control_change,46,0,6,,,,,,,,,5,11,71,,,
253656,control_change,68,0,2,,,,,,,,,1,11,66,,,
253657,control_change,68,0,3,,,,,,,,,2,11,66,,,
253661,control_change,68,0,4,,,,,,,,,3,11,71,,,
253666,control_change,38,0,13,,,,,,,,,12,11,67,,,
253670,control_change,38,0,14,,,,,,,,,13,11,67,,,
253672,control_change,38,0,15,,,,,,,,,14,11,67,,,
253680,note_on,0,0,11,,,,,,,,,10,,,,74,0
253680,note_on,224,0,11,,,,,,,,,10,,,,64,0
253680,set_tempo,120,1,0,,,,,,326087,,,,,,,,
253683,note_on,0,0,12,,,,,,,,,11,,,,64,0
253683,note_on,224,0,12,,,,,,,,,11,,,,71,0
253683,note_on,30,0,5,,,,,,,,,4,,,,64,0
253684,note_on,30,0,6,,,,,,,,,5,,,,52,0
253684,note_on,0,0,2,,,,,,,,,1,,,,72,0
253684,note_on,0,0,2,,,,,,,,,1,,,,74,100
253684,note_on,0,0,2,,,,,,,,,1,,,,71,100
253684,note_on,28,0,2,,,,,,,,,1,,,,76,0
253685,note_on,0,0,3,,,,,,,,,2,,,,71,101
253685,note_on,0,0,3,,,,,,,,,2,,,,74,101
253685,note_on,0,0,3,,,,,,,,,2,,,,72,0
253685,note_on,28,0,3,,,,,,,,,2,,,,76,0
253688,note_on,22,0,13,,,,,,,,,12,,,,64,112
253689,note_on,28,0,4,,,,,,,,,3,,,,64,0
253689,note_on,0,0,4,,,,,,,,,3,,,,60,0
253689,note_on,0,0,4,,,,,,,,,3,,,,59,100
253689,note_on,0,0,4,,,,,,,,,3,,,,62,100
253692,note_on,22,0,14,,,,,,,,,13,,,,62,112
253694,note_on,22,0,15,,,,,,,,,14,,,,40,0
253694,note_on,0,0,15,,,,,,,,,14,,,,40,112
253700,control_change,17,0,5,,,,,,,,,4,11,72,,,
253701,control_change,17,0,6,,,,,,,,,5,11,72,,,
253717,control_change,29,0,13,,,,,,,,,12,11,68,,,
253721,control_change,29,0,14,,,,,,,,,13,11,68,,,
253723,control_change,29,0,15,,,,,,,,,14,11,68,,,
253724,control_change,40,0,2,,,,,,,,,1,11,67,,,
253725,control_change,40,0,3,,,,,,,,,2,11,67,,,
253729,control_change,40,0,4,,,,,,,,,3,11,72,,,
253746,control_change,46,0,5,,,,,,,,,4,11,73,,,
253747,control_change,46,0,6,,,,,,,,,5,11,73,,,
253748,note_on,31,0,13,,,,,,,,,12,,,,64,0
253752,note_on,31,0,14,,,,,,,,,13,,,,62,0
253768,control_change,20,0,13,,,,,,,,,12,11,69,,,
253772,control_change,20,0,14,,,,,,,,,13,11,69,,,
253774,control_change,51,0,15,,,,,,,,,14,11,69,,,
253792,control_change,68,0,2,,,,,,,,,1,11,67,,,
253792,control_change,46,0,5,,,,,,,,,4,11,74,,,
253793,control_change,46,0,6,,,,,,,,,5,11,74,,,
253793,control_change,68,0,3,,,,,,,,,2,11,67,,,
253797,control_change,68,0,4,,,,,,,,,3,11,73,,,
253799,note_on,0,0,2,,,,,,,,,1,,,,74,0
253799,note_on,7,0,2,,,,,,,,,1,,,,71,0
253800,set_tempo,120,1,0,,,,,,287770,,,,,,,,
253800,note_on,7,0,3,,,,,,,,,2,,,,71,0
253800,note_on,0,0,3,,,,,,,,,2,,,,74,0
253804,note_on,0,0,2,,,,,,,,,1,,,,76,100
253804,note_on,0,0,4,,,,,,,,,3,,,,59,0
253804,note_on,7,0,4,,,,,,,,,3,,,,62,0
253804,note_on,5,0,2,,,,,,,,,1,,,,72,100
253805,note_on,0,0,3,,,,,,,,,2,,,,72,101
253805,note_on,5,0,3,,,,,,,,,2,,,,76,101
253808,note_on,40,0,13,,,,,,,,,12,,,,64,112
253809,note_on,5,0,4,,,,,,,,,3,,,,64,100
253809,note_on,0,0,4,,,,,,,,,3,,,,60,100
253812,note_on,40,0,14,,,,,,,,,13,,,,60,112
253814,note_on,40,0,15,,,,,,,,,14,,,,40,0
253814,note_on,0,0,15,,,,,,,,,14,,,,40,112
253818,control_change,10,0,13,,,,,,,,,12,11,70,,,
253822,control_change,10,0,14,,,,,,,,,13,11,70,,,
253824,control_change,10,0,15,,,,,,,,,14,11,70,,,
253839,control_change,47,0,5,,,,,,,,,4,11,75,,,
253840,control_change,47,0,6,,,,,,,,,5,11,75,,,
253860,control_change,56,0,2,,,,,,,,,1,11,68,,,
253861,control_change,56,0,3,,,,,,,,,2,11,68,,,
253865,control_change,56,0,4,,,,,,,,,3,11,74,,,
253869,control_change,51,0,13,,,,,,,,,12,11,71,,,
253873,control_change,51,0,14,,,,,,,,,13,11,71,,,
253875,control_change,51,0,15,,,,,,,,,14,11,71,,,
253885,control_change,46,0,5,,,,,,,,,4,11,76,,,
253886,control_change,46,0,6,,,,,,,,,5,11,76,,,
253912,control_change,232,0,11,,,,,,,,,10,11,72,,,
253915,control_change,232,0,12,,,,,,,,,11,11,72,,,
253920,set_tempo,120,1,0,,,,,,300000,,,,,,,,
253920,note_on,8,0,11,,,,,,,,,10,,,,64,93
253920,control_change,51,0,13,,,,,,,,,12,11,72,,,
253923,note_on,8,0,12,,,,,,,,,11,,,,60,93
253924,control_change,51,0,14,,,,,,,,,13,11,72,,,
253926,control_change,51,0,15,,,,,,,,,14,11,72,,,
253928,control_change,68,0,2,,,,,,,,,1,11,69,,,
253929,control_change,68,0,3,,,,,,,,,2,11,69,,,
253931,control_change,46,0,5,,,,,,,,,4,11,77,,,
253932,control_change,46,0,6,,,,,,,,,5,11,77,,,
253933,control_change,68,0,4,,,,,,,,,3,11,75,,,
253962,control_change,42,0,11,,,,,,,,,10,11,72,,,
253965,control_change,42,0,12,,,,,,,,,11,11,72,,,
253970,control_change,50,0,13,,,,,,,,,12,11,72,,,
253974,control_change,50,0,14,,,,,,,,,13,11,72,,,
253976,control_change,50,0,15,,,,,,,,,14,11,72,,,
253977,control_change,46,0,5,,,,,,,,,4,11,78,,,
253978,control_change,46,0,6,,,,,,,,,5,11,78,,,
253980,note_on,18,0,11,,,,,,,,,10,,,,64,0
253983,note_on,6,0,5,,,,,,,,,4,,,,64,100
253983,note_on,18,0,12,,,,,,,,,11,,,,60,0
253984,note_on,6,0,6,,,,,,,,,5,,,,52,100
253996,control_change,68,0,2,,,,,,,,,1,11,70,,,
253997,control_change,68,0,3,,,,,,,,,2,11,70,,,
254001,control_change,68,0,4,,,,,,,,,3,11,76,,,
254013,control_change,33,0,11,,,,,,,,,10,11,73,,,
254016,control_change,33,0,12,,,,,,,,,11,11,73,,,
254021,control_change,51,0,13,,,,,,,,,12,11,73,,,
254024,control_change,41,0,5,,,,,,,,,4,11,79,,,
254025,control_change,51,0,14,,,,,,,,,13,11,73,,,
254025,control_change,41,0,6,,,,,,,,,5,11,79,,,
254027,control_change,51,0,15,,,,,,,,,14,11,73,,,
254040,note_on,27,0,11,,,,,,,,,10,,,,72,93
254040,set_tempo,120,1,0,,,,,,326087,,,,,,,,
254043,note_on,19,0,5,,,,,,,,,4,,,,64,0
254043,note_on,0,0,5,,,,,,,,,4,,,,64,100
254043,note_on,27,0,12,,,,,,,,,11,,,,64,93
254044,note_on,0,0,6,,,,,,,,,5,,,,52,100
254044,note_on,19,0,6,,,,,,,,,5,,,,52,0
254048,note_on,27,0,13,,,,,,,,,12,,,,64,0
254052,note_on,27,0,14,,,,,,,,,13,,,,60,0
254054,note_on,27,0,15,,,,,,,,,14,,,,40,0
254064,control_change,24,0,11,,,,,,,,,10,11,74,,,
254064,control_change,68,0,2,,,,,,,,,1,11,70,,,
254065,control_change,68,0,3,,,,,,,,,2,11,70,,,
254067,control_change,24,0,12,,,,,,,,,11,11,74,,,
254069,control_change,68,0,4,,,,,,,,,3,11,77,,,
254070,control_change,27,0,5,,,,,,,,,4,11,80,,,
254071,control_change,27,0,6,,,,,,,,,5,11,80,,,
254072,control_change,24,0,13,,,,,,,,,12,11,74,,,
254076,control_change,24,0,14,,,,,,,,,13,11,74,,,
254078,control_change,24,0,15,,,,,,,,,14,11,74,,,
254100,note_on,36,0,11,,,,,,,,,10,,,,72,0
254103,note_on,36,0,12,,,,,,,,,11,,,,64,0
254114,control_change,14,0,11,,,,,,,,,10,11,75,,,
254116,control_change,46,0,5,,,,,,,,,4,11,81,,,
254117,control_change,46,0,6,,,,,,,,,5,11,81,,,
254117,control_change,14,0,12,,,,,,,,,11,11,75,,,
254122,control_change,50,0,13,,,,,,,,,12,11,75,,,
254126,control_change,50,0,14,,,,,,,,,13,11,75,,,
254128,control_change,50,0,15,,,,,,,,,14,11,75,,,
254132,control_change,68,0,2,,,,,,,,,1,11,71,,,
254133,control_change,68,0,3,,,,,,,,,2,11,71,,,
254137,control_change,68,0,4,,,,,,,,,3,11,78,,,
254160,note_on,46,0,11,,,,,,,,,10,,,,76,93
254160,note_on,0,0,11,,,,,,,,,10,,,,64,93
254160,set_tempo,120,1,0,,,,,,286396,,,,,,,,
254163,note_on,46,0,12,,,,,,,,,11,,,,64,93
254163,note_on,0,0,12,,,,,,,,,11,,,,72,93
254163,control_change,0,0,5,,,,,,,,,4,11,82,,,
254163,note_on,0,0,5,,,,,,,,,4,,,,64,100
254163,note_on,47,0,5,,,,,,,,,4,,,,64,0
254164,control_change,0,0,6,,,,,,,,,5,11,82,,,
254164,note_on,0,0,6,,,,,,,,,5,,,,52,100
254164,note_on,47,0,6,,,,,,,,,5,,,,52,0
254165,control_change,5,0,11,,,,,,,,,10,11,76,,,
254168,note_on,46,0,13,,,,,,,,,12,,,,57,112
254168,control_change,5,0,12,,,,,,,,,11,11,76,,,
254172,note_on,46,0,14,,,,,,,,,13,,,,52,112
254173,control_change,5,0,13,,,,,,,,,12,11,76,,,
254177,control_change,5,0,14,,,,,,,,,13,11,76,,,
254179,control_change,51,0,15,,,,,,,,,14,11,76,,,
254200,control_change,68,0,2,,,,,,,,,1,11,72,,,
254201,control_change,68,0,3,,,,,,,,,2,11,72,,,
254205,control_change,68,0,4,,,,,,,,,3,11,79,,,
254224,control_change,51,0,13,,,,,,,,,12,11,77,,,
254228,control_change,51,0,14,,,,,,,,,13,11,77,,,
254228,note_on,4,0,13,,,,,,,,,12,,,,57,0
254230,control_change,51,0,15,,,,,,,,,14,11,77,,,
254232,note_on,4,0,14,,,,,,,,,13,,,,52,0
254268,control_change,68,0,2,,,,,,,,,1,11,73,,,
254269,control_change,68,0,3,,,,,,,,,2,11,73,,,
254273,control_change,68,0,4,,,,,,,,,3,11,80,,,
254274,control_change,46,0,13,,,,,,,,,12,11,78,,,
254278,control_change,46,0,14,,,,,,,,,13,11,78,,,
254280,control_change,50,0,15,,,,,,,,,14,11,78,,,
254280,set_tempo,120,1,0,,,,,,300000,,,,,,,,
254284,note_on,0,0,2,,,,,,,,,1,,,,77,100
254284,note_on,16,0,2,,,,,,,,,1,,,,76,0
254285,note_on,16,0,3,,,,,,,,,2,,,,76,0
254285,note_on,0,0,3,,,,,,,,,2,,,,77,101
254288,note_on,14,0,13,,,,,,,,,12,,,,60,112
254289,note_on,16,0,4,,,,,,,,,3,,,,64,0
254289,note_on,0,0,4,,,,,,,,,3,,,,65,100
254292,note_on,14,0,14,,,,,,,,,13,,,,57,112
254325,control_change,37,0,13,,,,,,,,,12,11,79,,,
254329,control_change,37,0,14,,,,,,,,,13,11,79,,,
254331,control_change,51,0,15,,,,,,,,,14,11,79,,,
254336,control_change,52,0,2,,,,,,,,,1,11,73,,,
254337,control_change,52,0,3,,,,,,,,,2,11,73,,,
254341,control_change,52,0,4,,,,,,,,,3,11,81,,,
254348,note_on,23,0,13,,,,,,,,,12,,,,60,0
254352,note_on,23,0,14,,,,,,,,,13,,,,57,0
254354,note_on,23,0,15,,,,,,,,,14,,,,38,112
254376,control_change,28,0,13,,,,,,,,,12,11,80,,,
254380,control_change,28,0,14,,,,,,,,,13,11,80,,,
254382,control_change,28,0,15,,,,,,,,,14,11,80,,,
254400,note_on,235,0,11,,,,,,,,,10,,,,64,0
254400,note_on,0,0,11,,,,,,,,,10,,,,76,0
254400,set_tempo,120,1,0,,,,,,326087,,,,,,,,
254401,note_on,5400,0,1,,,,,,,,,0,,,,79,101
254401,note_on,0,0,1,,,,,,,,,0,,,,88,101
254401,control_change,0,0,1,,,,,,,,,0,11,82,,,
254402,note_on,0,0,7,,,,,,,,,6,,,,60,112
254402,control_change,8520,0,7,,,,,,,,,6,11,82,,,
254402,note_on,0,0,7,,,,,,,,,6,,,,72,112
254403,control_change,0,0,5,,,,,,,,,4,11,92,,,
254403,note_on,240,0,5,,,,,,,,,4,,,,64,0
254403,note_on,0,0,12,,,,,,,,,11,,,,64,0
254403,note_on,235,0,12,,,,,,,,,11,,,,72,0
254404,control_change,0,0,6,,,,,,,,,5,11,92,,,
254404,note_on,68,0,2,,,,,,,,,1,,,,77,0
254404,note_on,0,0,2,,,,,,,,,1,,,,72,0
254404,note_on,0,0,2,,,,,,,,,1,,,,67,100
254404,note_on,0,0,2,,,,,,,,,1,,,,76,100
254404,control_change,0,0,2,,,,,,,,,1,11,82,,,
254404,note_on,240,0,6,,,,,,,,,5,,,,52,0
254405,note_on,0,0,3,,,,,,,,,2,,,,76,101
254405,note_on,0,0,3,,,,,,,,,2,,,,72,0
254405,control_change,0,0,3,,,,,,,,,2,11,82,,,
254405,note_on,0,0,3,,,,,,,,,2,,,,67,101
254405,note_on,68,0,3,,,,,,,,,2,,,,77,0
254407,control_change,5760,0,8,,,,,,,,,7,11,92,,,
254408,note_on,32,0,13,,,,,,,,,12,,,,64,112
254409,note_on,0,0,4,,,,,,,,,3,,,,60,0
254409,note_on,68,0,4,,,,,,,,,3,,,,65,0
254409,note_on,0,0,4,,,,,,,,,3,,,,64,100
254409,note_on,0,0,4,,,,,,,,,3,,,,55,100
254409,control_change,0,0,4,,,,,,,,,3,11,92,,,
254412,note_on,32,0,14,,,,,,,,,13,,,,60,112
254413,note_on,0,0,9,,,,,,,,,8,,,,48,110
254413,control_change,5400,0,9,,,,,,,,,8,11,82,,,
254414,note_on,32,0,15,,,,,,,,,14,,,,38,0
254414,note_on,0,0,15,,,,,,,,,14,,,,36,112
254415,note_on,31320,0,10,,,,,,,,,15,,,,48,87
254426,control_change,18,0,13,,,,,,,,,12,11,81,,,
254430,control_change,18,0,14,,,,,,,,,13,11,81,,,
254432,control_change,18,0,15,,,,,,,,,14,11,81,,,
254468,note_on,42,0,13,,,,,,,,,12,,,,64,0
254472,note_on,42,0,14,,,,,,,,,13,,,,60,0
254477,control_change,9,0,13,,,,,,,,,12,11,82,,,
254481,control_change,9,0,14,,,,,,,,,13,11,82,,,
254483,control_change,51,0,15,,,,,,,,,14,11,82,,,
254520,note_on,0,0,11,,,,,,,,,10,,,,69,93
254520,control_change,120,0,11,,,,,,,,,10,11,83,,,
254520,set_tempo,120,1,0,,,,,,285714,,,,,,,,
254521,note_on,0,0,1,,,,,,,,,0,,,,89,116
254521,note_on,0,0,1,,,,,,,,,0,,,,79,0
254521,note_on,120,0,1,,,,,,,,,0,,,,88,0
254521,note_on,0,0,1,,,,,,,,,0,,,,81,116
254522,note_on,0,0,7,,,,,,,,,6,,,,60,112
254522,note_on,120,0,7,,,,,,,,,6,,,,72,0
254522,note_on,0,0,7,,,,,,,,,6,,,,60,0
254522,note_on,0,0,7,,,,,,,,,6,,,,72,112
254523,control_change,0,0,12,,,,,,,,,11,11,83,,,
254523,note_on,120,0,12,,,,,,,,,11,,,,65,93
254524,note_on,0,0,2,,,,,,,,,1,,,,77,115
254524,note_on,0,0,2,,,,,,,,,1,,,,69,115
254524,note_on,0,0,2,,,,,,,,,1,,,,67,0
254524,note_on,120,0,2,,,,,,,,,1,,,,76,0
254525,note_on,120,0,3,,,,,,,,,2,,,,67,0
254525,note_on,0,0,3,,,,,,,,,2,,,,76,0
254525,note_on,0,0,3,,,,,,,,,2,,,,77,116
254525,note_on,0,0,3,,,,,,,,,2,,,,69,116
254528,control_change,51,0,13,,,,,,,,,12,11,83,,,
254528,note_on,0,0,13,,,,,,,,,12,,,,69,112
254528,note_on,0,0,13,,,,,,,,,12,,,,60,112
254529,note_on,120,0,4,,,,,,,,,3,,,,55,0
254529,note_on,0,0,4,,,,,,,,,3,,,,64,0
254529,note_on,0,0,4,,,,,,,,,3,,,,65,115
254529,note_on,0,0,4,,,,,,,,,3,,,,57,115
254532,note_on,51,0,14,,,,,,,,,13,,,,65,112
254532,control_change,0,0,14,,,,,,,,,13,11,83,,,
254533,note_on,120,0,9,,,,,,,,,8,,,,48,0
254533,note_on,0,0,9,,,,,,,,,8,,,,48,110
254534,note_on,0,0,15,,,,,,,,,14,,,,36,112
254534,control_change,0,0,15,,,,,,,,,14,11,83,,,
254534,note_on,51,0,15,,,,,,,,,14,,,,36,0
254535,note_on,120,0,10,,,,,,,,,15,,,,48,0
254535,note_on,0,0,10,,,,,,,,,15,,,,48,87
254580,note_on,60,0,11,,,,,,,,,10,,,,69,0
254583,note_on,60,0,12,,,,,,,,,11,,,,65,0
254640,note_on,60,0,11,,,,,,,,,10,,,,72,93
254640,set_tempo,120,1,0,,,,,,300000,,,,,,,,
254643,note_on,60,0,12,,,,,,,,,11,,,,69,93
254700,note_on,60,0,11,,,,,,,,,10,,,,72,0
254703,note_on,300,0,5,,,,,,,,,4,,,,60,100
254703,note_on,60,0,12,,,,,,,,,11,,,,69,0
254704,note_on,300,0,6,,,,,,,,,5,,,,48,100
254707,note_on,0,0,8,,,,,,,,,7,,,,57,110
254707,note_on,300,0,8,,,,,,,,,7,,,,65,110
254760,set_tempo,120,1,0,,,,,,330579,,,,,,,,
254760,note_on,60,0,11,,,,,,,,,10,,,,77,93
254763,note_on,60,0,12,,,,,,,,,11,,,,72,93
254763,note_on,60,0,5,,,,,,,,,4,,,,60,0
254763,note_on,0,0,5,,,,,,,,,4,,,,60,100
254764,note_on,0,0,6,,,,,,,,,5,,,,48,100
254764,note_on,60,0,6,,,,,,,,,5,,,,48,0
254767,note_on,60,0,8,,,,,,,,,7,,,,57,0
254767,note_on,0,0,8,,,,,,,,,7,,,,65,0
254767,note_on,0,0,8,,,,,,,,,7,,,,57,110
254767,note_on,0,0,8,,,,,,,,,7,,,,65,110
254768,note_on,0,0,13,,,,,,,,,12,,,,60,0
254768,note_on,240,0,13,,,,,,,,,12,,,,69,0
254772,note_on,240,0,14,,,,,,,,,13,,,,65,0
254773,note_on,240,0,9,,,,,,,,,8,,,,48,0
254774,note_on,240,0,15,,,,,,,,,14,,,,36,0
254775,note_on,240,0,10,,,,,,,,,15,,,,48,0
254820,note_on,60,0,11,,,,,,,,,10,,,,77,0
254823,note_on,60,0,12,,,,,,,,,11,,,,72,0
254880,note_on,60,0,11,,,,,,,,,10,,,,76,104
254880,note_on,0,0,11,,,,,,,,,10,,,,67,104
254880,set_tempo,120,1,0,,,,,,285714,,,,,,,,
254881,note_on,0,0,1,,,,,,,,,0,,,,79,101
254881,note_on,0,0,1,,,,,,,,,0,,,,89,0
254881,note_on,0,0,1,,,,,,,,,0,,,,88,101
254881,note_on,360,0,1,,,,,,,,,0,,,,81,0
254883,note_on,0,0,5,,,,,,,,,4,,,,60,100
254883,note_on,120,0,5,,,,,,,,,4,,,,60,0
254883,note_on,60,0,12,,,,,,,,,11,,,,72,104
254883,note_on,0,0,12,,,,,,,,,11,,,,64,104
254884,note_on,0,0,6,,,,,,,,,5,,,,48,100
254884,note_on,0,0,2,,,,,,,,,1,,,,76,100
254884,note_on,0,0,2,,,,,,,,,1,,,,67,100
254884,note_on,0,0,2,,,,,,,,,1,,,,77,0
254884,note_on,360,0,2,,,,,,,,,1,,,,69,0
254884,note_on,120,0,6,,,,,,,,,5,,,,48,0
254885,note_on,0,0,3,,,,,,,,,2,,,,67,101
254885,note_on,0,0,3,,,,,,,,,2,,,,77,0
254885,note_on,360,0,3,,,,,,,,,2,,,,69,0
254885,note_on,0,0,3,,,,,,,,,2,,,,76,101
254887,note_on,0,0,8,,,,,,,,,7,,,,55,110
254887,note_on,0,0,8,,,,,,,,,7,,,,64,110
254887,note_on,0,0,8,,,,,,,,,7,,,,57,0
254887,note_on,120,0,8,,,,,,,,,7,,,,65,0
254888,note_on,120,0,13,,,,,,,,,12,,,,60,112
254889,note_on,0,0,4,,,,,,,,,3,,,,65,0
254889,note_on,360,0,4,,,,,,,,,3,,,,57,0
254889,note_on,0,0,4,,,,,,,,,3,,,,64,100
254889,note_on,0,0,4,,,,,,,,,3,,,,55,100
254892,note_on,120,0,14,,,,,,,,,13,,,,55,112
254948,note_on,60,0,13,,,,,,,,,12,,,,60,0
254952,note_on,60,0,14,,,,,,,,,13,,,,55,0
255000,set_tempo,120,1,0,,,,,,300000,,,,,,,,
255000,control_change,120,0,11,,,,,,,,,10,11,83,,,
255001,note_on,120,0,1,,,,,,,,,0,,,,88,0
255001,note_on,0,0,1,,,,,,,,,0,,,,79,0
255003,control_change,120,0,12,,,,,,,,,11,11,83,,,
255004,note_on,0,0,2,,,,,,,,,1,,,,67,0
255004,note_on,120,0,2,,,,,,,,,1,,,,76,0
255005,note_on,0,0,3,,,,,,,,,2,,,,67,0
255005,note_on,120,0,3,,,,,,,,,2,,,,76,0
255008,note_on,60,0,13,,,,,,,,,12,,,,64,112
255009,note_on,120,0,4,,,,,,,,,3,,,,64,0
255009,note_on,0,0,4,,,,,,,,,3,,,,55,0
255012,note_on,60,0,14,,,,,,,,,13,,,,60,112
255017,control_change,17,0,11,,,,,,,,,10,11,80,,,
255020,control_change,17,0,12,,,,,,,,,11,11,80,,,
255035,control_change,18,0,11,,,,,,,,,10,11,77,,,
255038,control_change,18,0,12,,,,,,,,,11,11,77,,,
255053,control_change,18,0,11,,,,,,,,,10,11,74,,,
255056,control_change,18,0,12,,,,,,,,,11,11,74,,,
255062,note_on,0,0,7,,,,,,,,,6,,,,72,0
255062,note_on,0,0,7,,,,,,,,,6,,,,60,112
255062,note_on,540,0,7,,,,,,,,,6,,,,60,0
255062,note_on,0,0,7,,,,,,,,,6,,,,72,112
255068,note_on,60,0,13,,,,,,,,,12,,,,64,0
255071,control_change,18,0,11,,,,,,,,,10,11,72,,,
255072,note_on,60,0,14,,,,,,,,,13,,,,60,0
255073,note_on,300,0,9,,,,,,,,,8,,,,48,110
255074,note_on,300,0,15,,,,,,,,,14,,,,36,112
255074,control_change,18,0,12,,,,,,,,,11,11,72,,,
255075,note_on,300,0,10,,,,,,,,,15,,,,48,87
255089,control_change,18,0,11,,,,,,,,,10,11,69,,,
255092,control_change,18,0,12,,,,,,,,,11,11,69,,,
255107,control_change,18,0,11,,,,,,,,,10,11,66,,,
255110,control_change,18,0,12,,,,,,,,,11,11,66,,,
255120,note_on,13,0,11,,,,,,,,,10,,,,67,0
255120,note_on,0,0,11,,,,,,,,,10,,,,76,0
255120,set_tempo,120,1,0,,,,,,330579,,,,,,,,
255121,note_on,120,0,1,,,,,,,,,0,,,,84,101
255121,note_on,0,0,1,,,,,,,,,0,,,,88,101
255122,note_on,60,0,7,,,,,,,,,6,,,,72,0
255122,note_on,0,0,7,,,,,,,,,6,,,,60,0
255122,note_on,0,0,7,,,,,,,,,6,,,,60,112
255122,note_on,0,0,7,,,,,,,,,6,,,,72,112
255123,note_on,240,0,5,,,,,,,,,4,,,,60,0
255123,note_on,13,0,12,,,,,,,,,11,,,,64,0
255123,note_on,0,0,12,,,,,,,,,11,,,,72,0
255124,note_on,120,0,2,,,,,,,,,1,,,,72,100
255124,note_on,0,0,2,,,,,,,,,1,,,,76,100
255124,note_on,240,0,6,,,,,,,,,5,,,,48,0
255125,note_on,120,0,3,,,,,,,,,2,,,,76,101
255125,note_on,0,0,3,,,,,,,,,2,,,,72,101
255127,note_on,240,0,8,,,,,,,,,7,,,,55,0
255127,note_on,0,0,8,,,,,,,,,7,,,,64,0
255128,note_on,60,0,13,,,,,,,,,12,,,,67,112
255129,note_on,0,0,4,,,,,,,,,3,,,,64,100
255129,note_on,120,0,4,,,,,,,,,3,,,,60,100
255132,note_on,60,0,14,,,,,,,,,13,,,,64,112
255133,note_on,60,0,9,,,,,,,,,8,,,,48,0
255133,note_on,0,0,9,,,,,,,,,8,,,,48,110
255134,note_on,0,0,15,,,,,,,,,14,,,,36,112
255134,note_on,60,0,15,,,,,,,,,14,,,,36,0
255135,note_on,0,0,10,,,,,,,,,15,,,,48,87
255135,note_on,60,0,10,,,,,,,,,15,,,,48,0
255188,note_on,60,0,13,,,,,,,,,12,,,,67,0
255192,note_on,60,0,14,,,,,,,,,13,,,,64,0
255240,note_on,120,0,11,,,,,,,,,10,,,,72,93
255240,control_change,0,0,11,,,,,,,,,10,11,83,,,
255240,set_tempo,120,1,0,,,,,,285714,,,,,,,,
255241,note_on,0,0,1,,,,,,,,,0,,,,93,116
255241,note_on,0,0,1,,,,,,,,,0,,,,84,0
255241,note_on,120,0,1,,,,,,,,,0,,,,88,0
255241,note_on,0,0,1,,,,,,,,,0,,,,89,116
255242,note_on,0,0,7,,,,,,,,,6,,,,72,112
255242,note_on,0,0,7,,,,,,,,,6,,,,60,112
255242,note_on,0,0,7,,,,,,,,,6,,,,60,0
255242,note_on,120,0,7,,,,,,,,,6,,,,72,0
255243,control_change,120,0,12,,,,,,,,,11,11,83,,,
255243,note_on,0,0,12,,,,,,,,,11,,,,69,93
255244,note_on,120,0,2,,,,,,,,,1,,,,76,0
255244,note_on,0,0,2,,,,,,,,,1,,,,81,115
255244,note_on,0,0,2,,,,,,,,,1,,,,77,115
255244,note_on,0,0,2,,,,,,,,,1,,,,72,0
255245,note_on,0,0,3,,,,,,,,,2,,,,77,116
255245,note_on,0,0,3,,,,,,,,,2,,,,81,116
255245,note_on,0,0,3,,,,,,,,,2,,,,76,0
255245,note_on,120,0,3,,,,,,,,,2,,,,72,0
255248,note_on,60,0,13,,,,,,,,,12,,,,60,112
255248,note_on,0,0,13,,,,,,,,,12,,,,69,112
255249,note_on,0,0,4,,,,,,,,,3,,,,60,0
255249,note_on,0,0,4,,,,,,,,,3,,,,65,115
255249,note_on,0,0,4,,,,,,,,,3,,,,69,115
255249,note_on,120,0,4,,,,,,,,,3,,,,64,0
255252,note_on,60,0,14,,,,,,,,,13,,,,65,112
255253,note_on,120,0,9,,,,,,,,,8,,,,48,0
255253,note_on,0,0,9,,,,,,,,,8,,,,48,110
255254,note_on,0,0,15,,,,,,,,,14,,,,36,112
255254,note_on,120,0,15,,,,,,,,,14,,,,36,0
255255,note_on,120,0,10,,,,,,,,,15,,,,48,0
255255,note_on,0,0,10,,,,,,,,,15,,,,48,87
255300,note_on,60,0,11,,,,,,,,,10,,,,72,0
255303,note_on,60,0,12,,,,,,,,,11,,,,69,0
255360,set_tempo,120,1,0,,,,,,300000,,,,,,,,
255360,note_on,60,0,11,,,,,,,,,10,,,,77,93
255363,note_on,60,0,12,,,,,,,,,11,,,,72,93
255420,note_on,60,0,11,,,,,,,,,10,,,,77,0
255423,note_on,300,0,5,,,,,,,,,4,,,,60,100
255423,note_on,60,0,12,,,,,,,,,11,,,,72,0
255424,note_on,300,0,6,,,,,,,,,5,,,,48,100
255427,note_on,0,0,8,,,,,,,,,7,,,,65,110
255427,note_on,300,0,8,,,,,,,,,7,,,,57,110
255480,note_on,60,0,11,,,,,,,,,10,,,,81,93
255480,set_tempo,120,1,0,,,,,,330579,,,,,,,,
255483,note_on,60,0,12,,,,,,,,,11,,,,77,93
255483,note_on,60,0,5,,,,,,,,,4,,,,60,0
255483,note_on,0,0,5,,,,,,,,,4,,,,60,100
255484,note_on,60,0,6,,,,,,,,,5,,,,48,0
255484,note_on,0,0,6,,,,,,,,,5,,,,48,100
255487,note_on,0,0,8,,,,,,,,,7,,,,65,110
255487,note_on,0,0,8,,,,,,,,,7,,,,57,110
255487,note_on,0,0,8,,,,,,,,,7,,,,57,0
255487,note_on,60,0,8,,,,,,,,,7,,,,65,0
255488,note_on,0,0,13,,,,,,,,,12,,,,60,0
255488,note_on,240,0,13,,,,,,,,,12,,,,69,0
255492,note_on,240,0,14,,,,,,,,,13,,,,65,0
255493,note_on,240,0,9,,,,,,,,,8,,,,48,0
255494,note_on,240,0,15,,,,,,,,,14,,,,36,0
255495,note_on,240,0,10,,,,,,,,,15,,,,48,0
255540,note_on,60,0,11,,,,,,,,,10,,,,81,0
255543,note_on,60,0,12,,,,,,,,,11,,,,77,0
255600,note_on,60,0,11,,,,,,,,,10,,,,79,93
255600,note_on,0,0,11,,,,,,,,,10,,,,72,93
255600,set_tempo,120,1,0,,,,,,285714,,,,,,,,
255600,control_change,0,0,11,,,,,,,,,10,11,83,,,
255601,note_on,360,0,1,,,,,,,,,0,,,,89,0
255601,note_on,0,0,1,,,,,,,,,0,,,,93,0
255601,note_on,0,0,1,,,,,,,,,0,,,,88,101
255601,note_on,0,0,1,,,,,,,,,0,,,,91,101
255601,control_change,0,0,1,,,,,,,,,0,11,82,,,
255602,control_change,360,0,7,,,,,,,,,6,11,82,,,
255603,note_on,120,0,5,,,,,,,,,4,,,,60,0
255603,note_on,0,0,5,,,,,,,,,4,,,,60,100
255603,note_on,60,0,12,,,,,,,,,11,,,,67,93
255603,note_on,0,0,12,,,,,,,,,11,,,,76,93
255603,control_change,0,0,12,,,,,,,,,11,11,83,,,
255604,note_on,120,0,6,,,,,,,,,5,,,,48,0
255604,note_on,0,0,2,,,,,,,,,1,,,,79,100
255604,note_on,0,0,2,,,,,,,,,1,,,,76,100
255604,note_on,0,0,2,,,,,,,,,1,,,,77,0
255604,note_on,360,0,2,,,,,,,,,1,,,,81,0
255604,control_change,0,0,2,,,,,,,,,1,11,82,,,
255604,note_on,0,0,6,,,,,,,,,5,,,,48,100
255605,control_change,0,0,3,,,,,,,,,2,11,82,,,
255605,note_on,0,0,3,,,,,,,,,2,,,,76,101
255605,note_on,0,0,3,,,,,,,,,2,,,,81,0
255605,note_on,360,0,3,,,,,,,,,2,,,,77,0
255605,note_on,0,0,3,,,,,,,,,2,,,,79,101
255607,note_on,120,0,8,,,,,,,,,7,,,,65,0
255607,note_on,0,0,8,,,,,,,,,7,,,,57,0
255607,note_on,0,0,8,,,,,,,,,7,,,,64,110
255607,note_on,0,0,8,,,,,,,,,7,,,,55,110
255607,control_change,0,0,8,,,,,,,,,7,11,82,,,
255608,control_change,0,0,13,,,,,,,,,12,11,83,,,
255608,note_on,120,0,13,,,,,,,,,12,,,,55,112
255609,control_change,0,0,4,,,,,,,,,3,11,92,,,
255609,note_on,0,0,4,,,,,,,,,3,,,,67,100
255609,note_on,0,0,4,,,,,,,,,3,,,,65,0
255609,note_on,360,0,4,,,,,,,,,3,,,,69,0
255609,note_on,0,0,4,,,,,,,,,3,,,,64,100
255612,note_on,120,0,14,,,,,,,,,13,,,,52,112
255612,control_change,0,0,14,,,,,,,,,13,11,83,,,
255613,control_change,120,0,9,,,,,,,,,8,11,82,,,
255624,control_change,24,0,11,,,,,,,,,10,11,84,,,
255626,control_change,24,0,7,,,,,,,,,6,11,83,,,
255627,control_change,24,0,12,,,,,,,,,11,11,84,,,
255631,control_change,24,0,8,,,,,,,,,7,11,83,,,
255632,control_change,24,0,13,,,,,,,,,12,11,84,,,
255636,control_change,35,0,1,,,,,,,,,0,11,83,,,
255636,control_change,24,0,14,,,,,,,,,13,11,84,,,
255637,control_change,24,0,9,,,,,,,,,8,11,83,,,
255639,control_change,35,0,2,,,,,,,,,1,11,83,,,
255640,control_change,35,0,3,,,,,,,,,2,11,83,,,
255644,control_change,35,0,4,,,,,,,,,3,11,93,,,
255650,control_change,24,0,7,,,,,,,,,6,11,84,,,
255655,control_change,24,0,8,,,,,,,,,7,11,84,,,
255656,control_change,24,0,13,,,,,,,,,12,11,85,,,
255660,control_change,24,0,14,,,,,,,,,13,11,85,,,
255661,control_change,24,0,9,,,,,,,,,8,11,84,,,
255668,note_on,12,0,13,,,,,,,,,12,,,,55,0
255672,control_change,36,0,1,,,,,,,,,0,11,83,,,
255672,note_on,12,0,14,,,,,,,,,13,,,,52,0
255674,control_change,24,0,7,,,,,,,,,6,11,85,,,
255675,control_change,36,0,2,,,,,,,,,1,11,83,,,
255676,control_change,36,0,3,,,,,,,,,2,11,83,,,
255679,control_change,24,0,8,,,,,,,,,7,11,85,,,
255680,control_change,12,0,13,,,,,,,,,12,11,86,,,
255680,control_change,36,0,4,,,,,,,,,3,11,94,,,
255684,control_change,12,0,14,,,,,,,,,13,11,86,,,
255685,control_change,24,0,9,,,,,,,,,8,11,85,,,
255698,control_change,24,0,7,,,,,,,,,6,11,86,,,
255703,control_change,24,0,8,,,,,,,,,7,11,86,,,
255704,control_change,24,0,13,,,,,,,,,12,11,87,,,
255708,control_change,24,0,14,,,,,,,,,13,11,87,,,
255708,control_change,36,0,1,,,,,,,,,0,11,84,,,
255709,control_change,24,0,9,,,,,,,,,8,11,86,,,
255711,control_change,36,0,2,,,,,,,,,1,11,84,,,
255712,control_change,36,0,3,,,,,,,,,2,11,84,,,
255716,control_change,36,0,4,,,,,,,,,3,11,95,,,
255720,set_tempo,120,1,0,,,,,,300000,,,,,,,,
255721,note_on,0,0,1,,,,,,,,,0,,,,88,0
255721,note_on,0,0,1,,,,,,,,,0,,,,86,101
255721,note_on,13,0,1,,,,,,,,,0,,,,91,0
255721,note_on,0,0,1,,,,,,,,,0,,,,89,101
255722,control_change,24,0,7,,,,,,,,,6,11,87,,,
255724,note_on,13,0,2,,,,,,,,,1,,,,76,0
255724,note_on,0,0,2,,,,,,,,,1,,,,79,0
255724,note_on,0,0,2,,,,,,,,,1,,,,74,100
255724,note_on,0,0,2,,,,,,,,,1,,,,77,100
255725,note_on,13,0,3,,,,,,,,,2,,,,76,0
255725,note_on,0,0,3,,,,,,,,,2,,,,74,101
255725,note_on,0,0,3,,,,,,,,,2,,,,77,101
255725,note_on,0,0,3,,,,,,,,,2,,,,79,0
255727,control_change,24,0,8,,,,,,,,,7,11,87,,,
255728,note_on,0,0,13,,,,,,,,,12,,,,60,112
255728,control_change,24,0,13,,,,,,,,,12,11,87,,,
255729,note_on,13,0,4,,,,,,,,,3,,,,64,0
255729,note_on,0,0,4,,,,,,,,,3,,,,67,0
255729,note_on,0,0,4,,,,,,,,,3,,,,62,100
255729,note_on,0,0,4,,,,,,,,,3,,,,65,100
255732,control_change,24,0,14,,,,,,,,,13,11,87,,,
255732,note_on,0,0,14,,,,,,,,,13,,,,55,112
255733,control_change,24,0,9,,,,,,,,,8,11,87,,,
255744,control_change,23,0,1,,,,,,,,,0,11,85,,,
255746,control_change,24,0,7,,,,,,,,,6,11,88,,,
255747,control_change,23,0,2,,,,,,,,,1,11,85,,,
255748,control_change,23,0,3,,,,,,,,,2,11,85,,,
255751,control_change,24,0,8,,,,,,,,,7,11,88,,,
255752,control_change,24,0,13,,,,,,,,,12,11,88,,,
255752,control_change,23,0,4,,,,,,,,,3,11,96,,,
255756,control_change,24,0,14,,,,,,,,,13,11,88,,,
255757,control_change,24,0,9,,,,,,,,,8,11,88,,,
255770,control_change,24,0,7,,,,,,,,,6,11,89,,,
255775,control_change,24,0,8,,,,,,,,,7,11,89,,,
255776,control_change,24,0,13,,,,,,,,,12,11,89,,,
255780,control_change,24,0,14,,,,,,,,,13,11,89,,,
255780,control_change,36,0,1,,,,,,,,,0,11,86,,,
255781,control_change,24,0,9,,,,,,,,,8,11,89,,,
255782,note_on,0,0,7,,,,,,,,,6,,,,72,112
255782,note_on,0,0,7,,,,,,,,,6,,,,60,112
255782,note_on,12,0,7,,,,,,,,,6,,,,60,0
255782,note_on,0,0,7,,,,,,,,,6,,,,72,0
255783,control_change,36,0,2,,,,,,,,,1,11,86,,,
255784,control_change,36,0,3,,,,,,,,,2,11,86,,,
255788,note_on,12,0,13,,,,,,,,,12,,,,60,0
255788,control_change,36,0,4,,,,,,,,,3,11,97,,,
255792,note_on,12,0,14,,,,,,,,,13,,,,55,0
255793,note_on,12,0,9,,,,,,,,,8,,,,48,110
255794,control_change,12,0,7,,,,,,,,,6,11,90,,,
255794,note_on,300,0,15,,,,,,,,,14,,,,36,112
255795,note_on,300,0,10,,,,,,,,,15,,,,48,87
255799,control_change,24,0,8,,,,,,,,,7,11,90,,,
255800,control_change,12,0,13,,,,,,,,,12,11,90,,,
255804,control_change,12,0,14,,,,,,,,,13,11,90,,,
255805,control_change,12,0,9,,,,,,,,,8,11,90,,,
255816,control_change,36,0,1,,,,,,,,,0,11,86,,,
255818,control_change,24,0,7,,,,,,,,,6,11,91,,,
255819,control_change,36,0,2,,,,,,,,,1,11,86,,,
255820,control_change,36,0,3,,,,,,,,,2,11,86,,,
255823,control_change,24,0,8,,,,,,,,,7,11,91,,,
255824,control_change,24,0,13,,,,,,,,,12,11,91,,,
255824,control_change,36,0,4,,,,,,,,,3,11,98,,,
255828,control_change,24,0,14,,,,,,,,,13,11,91,,,
255829,control_change,24,0,9,,,,,,,,,8,11,91,,,
255840,note_on,216,0,11,,,,,,,,,10,,,,72,0
255840,set_tempo,120,1,0,,,,,,330579,,,,,,,,
255840,note_on,0,0,11,,,,,,,,,10,,,,79,0
255841,note_on,25,0,1,,,,,,,,,0,,,,89,0
255841,note_on,0,0,1,,,,,,,,,0,,,,86,0
255841,note_on,0,0,1,,,,,,,,,0,,,,88,101
255841,note_on,0,0,1,,,,,,,,,0,,,,84,101
255842,note_on,24,0,7,,,,,,,,,6,,,,72,0
255842,note_on,0,0,7,,,,,,,,,6,,,,60,0
255842,note_on,0,0,7,,,,,,,,,6,,,,72,112
255842,note_on,0,0,7,,,,,,,,,6,,,,60,112
255842,control_change,0,0,7,,,,,,,,,6,11,92,,,
255843,note_on,240,0,5,,,,,,,,,4,,,,60,0
255843,note_on,216,0,12,,,,,,,,,11,,,,76,0
255843,note_on,0,0,12,,,,,,,,,11,,,,67,0
255844,note_on,0,0,2,,,,,,,,,1,,,,74,0
255844,note_on,0,0,2,,,,,,,,,1,,,,76,100
255844,note_on,25,0,2,,,,,,,,,1,,,,77,0
255844,note_on,240,0,6,,,,,,,,,5,,,,48,0
255844,note_on,0,0,2,,,,,,,,,1,,,,72,100
255845,note_on,0,0,3,,,,,,,,,2,,,,76,101
255845,note_on,0,0,3,,,,,,,,,2,,,,77,0
255845,note_on,25,0,3,,,,,,,,,2,,,,74,0
255845,note_on,0,0,3,,,,,,,,,2,,,,72,101
255847,note_on,0,0,8,,,,,,,,,7,,,,64,0
255847,note_on,24,0,8,,,,,,,,,7,,,,55,0
255847,control_change,0,0,8,,,,,,,,,7,11,92,,,
255848,control_change,24,0,13,,,,,,,,,12,11,92,,,
255848,note_on,0,0,13,,,,,,,,,12,,,,64,112
255849,note_on,0,0,4,,,,,,,,,3,,,,64,100
255849,note_on,0,0,4,,,,,,,,,3,,,,62,0
255849,note_on,0,0,4,,,,,,,,,3,,,,60,100
255849,note_on,25,0,4,,,,,,,,,3,,,,65,0
255852,note_on,0,0,14,,,,,,,,,13,,,,60,112
255852,control_change,24,0,14,,,,,,,,,13,11,92,,,
255852,control_change,11,0,1,,,,,,,,,0,11,87,,,
255853,note_on,0,0,9,,,,,,,,,8,,,,48,110
255853,note_on,24,0,9,,,,,,,,,8,,,,48,0
255853,control_change,0,0,9,,,,,,,,,8,11,92,,,
255854,note_on,0,0,15,,,,,,,,,14,,,,36,112
255854,note_on,60,0,15,,,,,,,,,14,,,,36,0
255855,note_on,0,0,10,,,,,,,,,15,,,,48,87
255855,note_on,60,0,10,,,,,,,,,15,,,,48,0
255855,control_change,11,0,2,,,,,,,,,1,11,87,,,
255856,control_change,11,0,3,,,,,,,,,2,11,87,,,
255860,control_change,11,0,4,,,,,,,,,3,11,99,,,
255866,control_change,24,0,7,,,,,,,,,6,11,93,,,
255871,control_change,24,0,8,,,,,,,,,7,11,93,,,
255872,control_change,24,0,13,,,,,,,,,12,11,93,,,
255876,control_change,24,0,14,,,,,,,,,13,11,93,,,
255877,control_change,24,0,9,,,,,,,,,8,11,93,,,
255888,control_change,36,0,1,,,,,,,,,0,11,88,,,
255890,control_change,24,0,7,,,,,,,,,6,11,94,,,
255891,control_change,36,0,2,,,,,,,,,1,11,88,,,
255892,control_change,36,0,3,,,,,,,,,2,11,88,,,
255895,control_change,24,0,8,,,,,,,,,7,11,94,,,
255896,control_change,24,0,13,,,,,,,,,12,11,94,,,
255896,control_change,36,0,4,,,,,,,,,3,11,100,,,
255900,control_change,24,0,14,,,,,,,,,13,11,94,,,
255901,control_change,24,0,9,,,,,,,,,8,11,94,,,
255908,note_on,12,0,13,,,,,,,,,12,,,,64,0
255912,note_on,12,0,14,,,,,,,,,13,,,,60,0
255914,control_change,24,0,7,,,,,,,,,6,11,95,,,
255919,control_change,24,0,8,,,,,,,,,7,11,95,,,
255920,control_change,12,0,13,,,,,,,,,12,11,95,,,
255924,control_change,36,0,1,,,,,,,,,0,11,89,,,
255924,control_change,12,0,14,,,,,,,,,13,11,95,,,
255925,control_change,24,0,9,,,,,,,,,8,11,95,,,
255927,control_change,36,0,2,,,,,,,,,1,11,89,,,
255928,control_change,36,0,3,,,,,,,,,2,11,89,,,
255932,control_change,36,0,4,,,,,,,,,3,11,101,,,
255938,control_change,24,0,7,,,,,,,,,6,11,96,,,
255943,control_change,24,0,8,,,,,,,,,7,11,96,,,
255944,control_change,24,0,13,,,,,,,,,12,11,96,,,
255948,control_change,24,0,14,,,,,,,,,13,11,96,,,
255949,control_change,24,0,9,,,,,,,,,8,11,96,,,
255956,note_on,32,0,1,,,,,,,,,0,,,,84,0
255956,note_on,0,0,1,,,,,,,,,0,,,,88,0
255959,note_on,32,0,2,,,,,,,,,1,,,,72,0
255959,note_on,0,0,2,,,,,,,,,1,,,,76,0
255960,set_tempo,120,1,0,,,,,,285714,,,,,,,,
255960,control_change,120,0,11,,,,,,,,,10,11,97,,,
255960,note_on,32,0,3,,,,,,,,,2,,,,72,0
255960,note_on,0,0,3,,,,,,,,,2,,,,76,0
255960,note_on,0,0,11,,,,,,,,,10,,,,67,93
255960,control_change,4,0,1,,,,,,,,,0,11,89,,,
255961,note_on,0,0,1,,,,,,,,,0,,,,91,101
255961,control_change,0,0,1,,,,,,,,,0,11,97,,,
255961,note_on,1,0,1,,,,,,,,,0,,,,88,101
255962,note_on,24,0,7,,,,,,,,,6,,,,60,0
255962,note_on,0,0,7,,,,,,,,,6,,,,67,112
255962,note_on,0,0,7,,,,,,,,,6,,,,55,112
255962,control_change,0,0,7,,,,,,,,,6,11,102,,,
255962,note_on,0,0,7,,,,,,,,,6,,,,72,0
255963,note_on,120,0,12,,,,,,,,,11,,,,64,93
255963,control_change,0,0,12,,,,,,,,,11,11,97,,,
255963,control_change,4,0,2,,,,,,,,,1,11,89,,,
255964,note_on,0,0,4,,,,,,,,,3,,,,64,0
255964,note_on,0,0,2,,,,,,,,,1,,,,79,100
255964,control_change,1,0,2,,,,,,,,,1,11,97,,,
255964,note_on,32,0,4,,,,,,,,,3,,,,60,0
255964,note_on,0,0,2,,,,,,,,,1,,,,76,100
255964,control_change,4,0,3,,,,,,,,,2,11,89,,,
255965,note_on,0,0,3,,,,,,,,,2,,,,76,101
255965,control_change,0,0,3,,,,,,,,,2,11,97,,,
255965,note_on,1,0,3,,,,,,,,,2,,,,79,101
255967,control_change,24,0,8,,,,,,,,,7,11,97,,,
255968,note_on,0,0,13,,,,,,,,,12,,,,67,127
255968,note_on,24,0,13,,,,,,,,,12,,,,59,127
255968,control_change,4,0,4,,,,,,,,,3,11,102,,,
255968,control_change,0,0,13,,,,,,,,,12,11,97,,,
255969,control_change,0,0,4,,,,,,,,,3,11,112,,,
255969,note_on,0,0,4,,,,,,,,,3,,,,67,100
255969,note_on,1,0,4,,,,,,,,,3,,,,64,100
255971,control_change,9,0,7,,,,,,,,,6,11,99,,,
255972,control_change,0,0,14,,,,,,,,,13,11,97,,,
255972,note_on,24,0,14,,,,,,,,,13,,,,64,127
255973,note_on,0,0,9,,,,,,,,,8,,,,43,110
255973,control_change,0,0,9,,,,,,,,,8,11,97,,,
255973,note_on,24,0,9,,,,,,,,,8,,,,48,0
255974,note_on,0,0,15,,,,,,,,,14,,,,31,127
255974,note_on,120,0,15,,,,,,,,,14,,,,36,0
255975,note_on,0,0,10,,,,,,,,,15,,,,43,87
255975,note_on,120,0,10,,,,,,,,,15,,,,48,0
255980,control_change,9,0,7,,,,,,,,,6,11,96,,,
255981,control_change,12,0,4,,,,,,,,,3,11,109,,,
255984,control_change,24,0,11,,,,,,,,,10,11,96,,,
255985,control_change,24,0,1,,,,,,,,,0,11,92,,,
255987,control_change,24,0,12,,,,,,,,,11,11,96,,,
255988,control_change,24,0,2,,,,,,,,,1,11,92,,,
255989,control_change,24,0,3,,,,,,,,,2,11,92,,,
255989,control_change,9,0,7,,,,,,,,,6,11,93,,,
255990,control_change,23,0,8,,,,,,,,,7,11,96,,,
255992,control_change,24,0,13,,,,,,,,,12,11,96,,,
255993,control_change,12,0,4,,,,,,,,,3,11,106,,,
255996,control_change,23,0,9,,,,,,,,,8,11,96,,,
255996,control_change,24,0,14,,,,,,,,,13,11,96,,,
255998,control_change,9,0,7,,,,,,,,,6,11,90,,,
256005,control_change,12,0,4,,,,,,,,,3,11,103,,,
256007,control_change,9,0,7,,,,,,,,,6,11,87,,,
256008,control_change,24,0,11,,,,,,,,,10,11,95,,,
256009,control_change,24,0,1,,,,,,,,,0,11,88,,,
256011,control_change,24,0,12,,,,,,,,,11,11,95,,,
256012,control_change,24,0,2,,,,,,,,,1,11,88,,,
256013,control_change,24,0,3,,,,,,,,,2,11,88,,,
256014,control_change,24,0,8,,,,,,,,,7,11,95,,,
256016,control_change,24,0,13,,,,,,,,,12,11,95,,,
256016,control_change,9,0,7,,,,,,,,,6,11,84,,,
256017,control_change,12,0,4,,,,,,,,,3,11,100,,,
256020,control_change,24,0,14,,,,,,,,,13,11,95,,,
256020,control_change,24,0,9,,,,,,,,,8,11,95,,,
256020,note_on,12,0,11,,,,,,,,,10,,,,67,0
256023,note_on,12,0,12,,,,,,,,,11,,,,64,0
256029,control_change,12,0,4,,,,,,,,,3,11,97,,,
256032,control_change,12,0,11,,,,,,,,,10,11,94,,,
256033,control_change,17,0,7,,,,,,,,,6,11,94,,,
256035,control_change,12,0,12,,,,,,,,,11,11,94,,,
256038,control_change,24,0,8,,,,,,,,,7,11,94,,,
256040,control_change,24,0,13,,,,,,,,,12,11,94,,,
256044,control_change,24,0,9,,,,,,,,,8,11,94,,,
256044,control_change,24,0,14,,,,,,,,,13,11,94,,,
256056,control_change,24,0,11,,,,,,,,,10,11,93,,,
256057,control_change,24,0,7,,,,,,,,,6,11,93,,,
256057,control_change,48,0,1,,,,,,,,,0,11,85,,,
256059,control_change,24,0,12,,,,,,,,,11,11,93,,,
256060,control_change,48,0,2,,,,,,,,,1,11,85,,,
256061,control_change,48,0,3,,,,,,,,,2,11,85,,,
256062,control_change,24,0,8,,,,,,,,,7,11,93,,,
256064,control_change,24,0,13,,,,,,,,,12,11,93,,,
256065,control_change,36,0,4,,,,,,,,,3,11,96,,,
256068,control_change,24,0,9,,,,,,,,,8,11,93,,,
256068,control_change,24,0,14,,,,,,,,,13,11,93,,,
256080,set_tempo,120,1,0,,,,,,300000,,,,,,,,
256080,control_change,0,0,11,,,,,,,,,10,11,92,,,
256080,note_on,24,0,11,,,,,,,,,10,,,,71,93
256081,control_change,24,0,7,,,,,,,,,6,11,92,,,
256083,control_change,24,0,12,,,,,,,,,11,11,92,,,
256083,note_on,0,0,12,,,,,,,,,11,,,,67,93
256086,control_change,24,0,8,,,,,,,,,7,11,92,,,
256088,control_change,24,0,13,,,,,,,,,12,11,92,,,
256092,control_change,24,0,14,,,,,,,,,13,11,92,,,
256092,control_change,24,0,9,,,,,,,,,8,11,92,,,
256093,control_change,36,0,1,,,,,,,,,0,11,84,,,
256096,control_change,36,0,2,,,,,,,,,1,11,84,,,
256097,control_change,36,0,3,,,,,,,,,2,11,84,,,
256101,control_change,36,0,4,,,,,,,,,3,11,95,,,
256104,control_change,24,0,11,,,,,,,,,10,11,91,,,
256105,control_change,24,0,7,,,,,,,,,6,11,91,,,
256107,control_change,24,0,12,,,,,,,,,11,11,91,,,
256110,control_change,24,0,8,,,,,,,,,7,11,91,,,
256112,control_change,24,0,13,,,,,,,,,12,11,91,,,
256116,control_change,24,0,9,,,,,,,,,8,11,91,,,
256116,control_change,24,0,14,,,,,,,,,13,11,91,,,
256128,control_change,24,0,11,,,,,,,,,10,11,90,,,
256129,control_change,36,0,1,,,,,,,,,0,11,83,,,
256129,control_change,24,0,7,,,,,,,,,6,11,90,,,
256131,control_change,24,0,12,,,,,,,,,11,11,90,,,
256132,control_change,36,0,2,,,,,,,,,1,11,83,,,
256133,control_change,36,0,3,,,,,,,,,2,11,83,,,
256134,control_change,24,0,8,,,,,,,,,7,11,90,,,
256136,control_change,24,0,13,,,,,,,,,12,11,90,,,
256137,control_change,36,0,4,,,,,,,,,3,11,94,,,
256140,control_change,24,0,14,,,,,,,,,13,11,90,,,
256140,note_on,12,0,11,,,,,,,,,10,,,,71,0
256140,control_change,24,0,9,,,,,,,,,8,11,90,,,
256143,control_change,0,0,5,,,,,,,,,4,11,82,,,
256143,note_on,12,0,12,,,,,,,,,11,,,,67,0
256143,note_on,300,0,5,,,,,,,,,4,,,,67,100
256144,control_change,0,0,6,,,,,,,,,5,11,82,,,
256144,note_on,300,0,6,,,,,,,,,5,,,,55,100
256147,note_on,0,0,8,,,,,,,,,7,,,,59,110
256147,note_on,13,0,8,,,,,,,,,7,,,,64,110
256152,control_change,12,0,11,,,,,,,,,10,11,89,,,
256153,control_change,24,0,7,,,,,,,,,6,11,89,,,
256155,control_change,12,0,12,,,,,,,,,11,11,89,,,
256158,control_change,11,0,8,,,,,,,,,7,11,89,,,
256160,control_change,24,0,13,,,,,,,,,12,11,89,,,
256161,control_change,18,0,5,,,,,,,,,4,11,84,,,
256162,control_change,18,0,6,,,,,,,,,5,11,84,,,
256164,control_change,24,0,9,,,,,,,,,8,11,89,,,
256164,control_change,24,0,14,,,,,,,,,13,11,89,,,
256165,control_change,36,0,1,,,,,,,,,0,11,83,,,
256168,control_change,36,0,2,,,,,,,,,1,11,83,,,
256169,control_change,36,0,3,,,,,,,,,2,11,83,,,
256173,control_change,36,0,4,,,,,,,,,3,11,93,,,
256176,control_change,24,0,11,,,,,,,,,10,11,88,,,
256177,control_change,24,0,7,,,,,,,,,6,11,88,,,
256179,control_change,24,0,12,,,,,,,,,11,11,88,,,
256179,control_change,18,0,5,,,,,,,,,4,11,86,,,
256180,control_change,18,0,6,,,,,,,,,5,11,86,,,
256182,control_change,24,0,8,,,,,,,,,7,11,88,,,
256184,control_change,24,0,13,,,,,,,,,12,11,88,,,
256188,control_change,24,0,9,,,,,,,,,8,11,88,,,
256188,control_change,24,0,14,,,,,,,,,13,11,88,,,
256197,control_change,18,0,5,,,,,,,,,4,11,88,,,
256198,control_change,18,0,6,,,,,,,,,5,11,88,,,
256200,control_change,24,0,11,,,,,,,,,10,11,87,,,
256200,set_tempo,120,1,0,,,,,,330579,,,,,,,,
256200,note_on,0,0,11,,,,,,,,,10,,,,76,93
256201,control_change,24,0,7,,,,,,,,,6,11,87,,,
256201,control_change,36,0,1,,,,,,,,,0,11,82,,,
256203,note_on,0,0,12,,,,,,,,,11,,,,71,93
256203,note_on,6,0,5,,,,,,,,,4,,,,67,0
256203,note_on,0,0,5,,,,,,,,,4,,,,67,100
256203,control_change,24,0,12,,,,,,,,,11,11,87,,,
256204,control_change,36,0,2,,,,,,,,,1,11,82,,,
256204,note_on,0,0,6,,,,,,,,,5,,,,55,100
256204,note_on,6,0,6,,,,,,,,,5,,,,55,0
256205,control_change,36,0,3,,,,,,,,,2,11,82,,,
256206,control_change,24,0,8,,,,,,,,,7,11,87,,,
256207,note_on,0,0,8,,,,,,,,,7,,,,59,110
256207,note_on,1,0,8,,,,,,,,,7,,,,59,0
256207,note_on,0,0,8,,,,,,,,,7,,,,64,0
256207,note_on,0,0,8,,,,,,,,,7,,,,64,110
256208,note_on,24,0,13,,,,,,,,,12,,,,67,0
256208,note_on,0,0,13,,,,,,,,,12,,,,59,0
256208,control_change,0,0,13,,,,,,,,,12,11,87,,,
256209,control_change,36,0,4,,,,,,,,,3,11,92,,,
256212,note_on,24,0,14,,,,,,,,,13,,,,64,0
256212,control_change,0,0,14,,,,,,,,,13,11,87,,,
256212,control_change,24,0,9,,,,,,,,,8,11,87,,,
256213,note_on,1,0,9,,,,,,,,,8,,,,43,0
256214,note_on,240,0,15,,,,,,,,,14,,,,31,0
256215,control_change,12,0,5,,,,,,,,,4,11,90,,,
256215,note_on,240,0,10,,,,,,,,,15,,,,43,0
256216,control_change,12,0,6,,,,,,,,,5,11,90,,,
256224,control_change,24,0,11,,,,,,,,,10,11,87,,,
256225,control_change,24,0,7,,,,,,,,,6,11,86,,,
256227,control_change,24,0,12,,,,,,,,,11,11,87,,,
256230,control_change,23,0,8,,,,,,,,,7,11,86,,,
256232,control_change,24,0,13,,,,,,,,,12,11,87,,,
256233,control_change,18,0,5,,,,,,,,,4,11,92,,,
256234,control_change,18,0,6,,,,,,,,,5,11,92,,,
256236,control_change,23,0,9,,,,,,,,,8,11,86,,,
256236,control_change,24,0,14,,,,,,,,,13,11,87,,,
256237,control_change,36,0,1,,,,,,,,,0,11,81,,,
256240,control_change,36,0,2,,,,,,,,,1,11,81,,,
256241,control_change,36,0,3,,,,,,,,,2,11,81,,,
256245,control_change,36,0,4,,,,,,,,,3,11,91,,,
256248,control_change,24,0,11,,,,,,,,,10,11,86,,,
256249,control_change,24,0,7,,,,,,,,,6,11,85,,,
256251,control_change,24,0,12,,,,,,,,,11,11,86,,,
256251,control_change,18,0,5,,,,,,,,,4,11,94,,,
256252,control_change,18,0,6,,,,,,,,,5,11,94,,,
256254,control_change,24,0,8,,,,,,,,,7,11,85,,,
256256,control_change,24,0,13,,,,,,,,,12,11,86,,,
256260,note_on,12,0,11,,,,,,,,,10,,,,76,0
256260,control_change,24,0,9,,,,,,,,,8,11,85,,,
256260,control_change,24,0,14,,,,,,,,,13,11,86,,,
256263,note_on,12,0,12,,,,,,,,,11,,,,71,0
256269,control_change,18,0,5,,,,,,,,,4,11,96,,,
256270,control_change,18,0,6,,,,,,,,,5,11,96,,,
256272,control_change,12,0,11,,,,,,,,,10,11,85,,,
256273,control_change,24,0,7,,,,,,,,,6,11,84,,,
256273,control_change,36,0,1,,,,,,,,,0,11,80,,,
256275,control_change,12,0,12,,,,,,,,,11,11,85,,,
256276,control_change,36,0,2,,,,,,,,,1,11,80,,,
256277,control_change,36,0,3,,,,,,,,,2,11,80,,,
256278,control_change,24,0,8,,,,,,,,,7,11,84,,,
256280,control_change,24,0,13,,,,,,,,,12,11,85,,,
256281,control_change,36,0,4,,,,,,,,,3,11,90,,,
256284,control_change,24,0,9,,,,,,,,,8,11,84,,,
256284,control_change,24,0,14,,,,,,,,,13,11,85,,,
256287,control_change,18,0,5,,,,,,,,,4,11,98,,,
256288,control_change,18,0,6,,,,,,,,,5,11,98,,,
256296,control_change,24,0,11,,,,,,,,,10,11,84,,,
256297,control_change,24,0,7,,,,,,,,,6,11,83,,,
256299,control_change,24,0,12,,,,,,,,,11,11,84,,,
256302,control_change,24,0,8,,,,,,,,,7,11,83,,,
256304,control_change,24,0,13,,,,,,,,,12,11,84,,,
256305,control_change,18,0,5,,,,,,,,,4,11,100,,,
256306,control_change,18,0,6,,,,,,,,,5,11,100,,,
256308,control_change,24,0,9,,,,,,,,,8,11,83,,,
256308,control_change,24,0,14,,,,,,,,,13,11,84,,,
256309,control_change,36,0,1,,,,,,,,,0,11,80,,,
256312,control_change,36,0,2,,,,,,,,,1,11,80,,,
256313,control_change,36,0,3,,,,,,,,,2,11,80,,,
256317,control_change,36,0,4,,,,,,,,,3,11,89,,,
256320,set_tempo,120,1,0,,,,,,285714,,,,,,,,
256320,note_on,0,0,11,,,,,,,,,10,,,,79,93
256320,note_on,0,0,11,,,,,,,,,10,,,,71,93
256320,control_change,24,0,11,,,,,,,,,10,11,83,,,
256321,control_change,24,0,7,,,,,,,,,6,11,82,,,
256323,control_change,24,0,12,,,,,,,,,11,11,83,,,
256323,note_on,18,0,5,,,,,,,,,4,,,,67,0
256323,control_change,0,0,5,,,,,,,,,4,11,102,,,
256323,note_on,0,0,5,,,,,,,,,4,,,,67,100
256323,note_on,0,0,12,,,,,,,,,11,,,,76,93
256324,control_change,0,0,6,,,,,,,,,5,11,102,,,
256324,note_on,18,0,6,,,,,,,,,5,,,,55,0
256324,note_on,0,0,6,,,,,,,,,5,,,,55,100
256326,control_change,24,0,8,,,,,,,,,7,11,82,,,
256327,note_on,0,0,8,,,,,,,,,7,,,,64,110
256327,note_on,1,0,8,,,,,,,,,7,,,,64,0
256327,note_on,0,0,8,,,,,,,,,7,,,,59,110
256327,note_on,0,0,8,,,,,,,,,7,,,,59,0
256328,control_change,24,0,13,,,,,,,,,12,11,83,,,
256328,note_on,0,0,13,,,,,,,,,12,,,,59,112
256332,control_change,24,0,9,,,,,,,,,8,11,82,,,
256332,note_on,0,0,14,,,,,,,,,13,,,,52,112
256332,control_change,24,0,14,,,,,,,,,13,11,83,,,
256345,control_change,36,0,1,,,,,,,,,0,11,79,,,
256348,control_change,36,0,2,,,,,,,,,1,11,79,,,
256349,control_change,36,0,3,,,,,,,,,2,11,79,,,
256353,control_change,36,0,4,,,,,,,,,3,11,88,,,
256381,control_change,36,0,1,,,,,,,,,0,11,78,,,
256384,control_change,36,0,2,,,,,,,,,1,11,78,,,
256385,control_change,36,0,3,,,,,,,,,2,11,78,,,
256388,note_on,60,0,13,,,,,,,,,12,,,,59,0
256389,control_change,36,0,4,,,,,,,,,3,11,87,,,
256392,note_on,60,0,14,,,,,,,,,13,,,,52,0
256417,control_change,36,0,1,,,,,,,,,0,11,77,,,
256420,control_change,36,0,2,,,,,,,,,1,11,77,,,
256421,control_change,36,0,3,,,,,,,,,2,11,77,,,
256425,control_change,36,0,4,,,,,,,,,3,11,86,,,
256440,set_tempo,120,1,0,,,,,,300000,,,,,,,,
256448,note_on,60,0,13,,,,,,,,,12,,,,64,112
256452,note_on,60,0,14,,,,,,,,,13,,,,55,112
256453,control_change,36,0,1,,,,,,,,,0,11,76,,,
256456,control_change,36,0,2,,,,,,,,,1,11,76,,,
256457,control_change,36,0,3,,,,,,,,,2,11,76,,,
256461,control_change,36,0,4,,,,,,,,,3,11,85,,,
256489,control_change,36,0,1,,,,,,,,,0,11,76,,,
256492,control_change,36,0,2,,,,,,,,,1,11,76,,,
256493,control_change,36,0,3,,,,,,,,,2,11,76,,,
256497,control_change,36,0,4,,,,,,,,,3,11,84,,,
256502,note_on,0,0,7,,,,,,,,,6,,,,67,112
256502,note_on,0,0,7,,,,,,,,,6,,,,55,112
256502,note_on,181,0,7,,,,,,,,,6,,,,55,0
256502,note_on,0,0,7,,,,,,,,,6,,,,67,0
256508,note_on,60,0,13,,,,,,,,,12,,,,64,0
256512,note_on,60,0,14,,,,,,,,,13,,,,55,0
256513,note_on,181,0,9,,,,,,,,,8,,,,43,110
256514,note_on,300,0,15,,,,,,,,,14,,,,31,112
256515,note_on,300,0,10,,,,,,,,,15,,,,43,87
256525,control_change,36,0,1,,,,,,,,,0,11,75,,,
256528,control_change,36,0,2,,,,,,,,,1,11,75,,,
256529,control_change,36,0,3,,,,,,,,,2,11,75,,,
256533,control_change,36,0,4,,,,,,,,,3,11,83,,,
256560,note_on,0,0,11,,,,,,,,,10,,,,79,0
256560,note_on,240,0,11,,,,,,,,,10,,,,71,0
256560,set_tempo,120,1,0,,,,,,330579,,,,,,,,
256561,note_on,36,0,1,,,,,,,,,0,,,,91,0
256561,note_on,0,0,1,,,,,,,,,0,,,,88,0
256561,note_on,0,0,1,,,,,,,,,0,,,,89,101
256561,note_on,0,0,1,,,,,,,,,0,,,,86,101
256561,control_change,0,0,1,,,,,,,,,0,11,74,,,
256562,note_on,0,0,7,,,,,,,,,6,,,,55,112
256562,note_on,0,0,7,,,,,,,,,6,,,,67,112
256562,note_on,0,0,7,,,,,,,,,6,,,,67,0
256562,note_on,60,0,7,,,,,,,,,6,,,,55,0
256563,note_on,240,0,12,,,,,,,,,11,,,,76,0
256563,note_on,0,0,12,,,,,,,,,11,,,,77,93
256563,note_on,240,0,5,,,,,,,,,4,,,,67,0
256563,note_on,0,0,5,,,,,,,,,4,,,,65,100
256564,note_on,0,0,2,,,,,,,,,1,,,,79,0
256564,note_on,36,0,2,,,,,,,,,1,,,,76,0
256564,note_on,0,0,2,,,,,,,,,1,,,,77,100
256564,note_on,0,0,2,,,,,,,,,1,,,,74,100
256564,control_change,0,0,2,,,,,,,,,1,11,74,,,
256565,note_on,36,0,3,,,,,,,,,2,,,,76,0
256565,note_on,0,0,3,,,,,,,,,2,,,,79,0
256565,note_on,0,0,3,,,,,,,,,2,,,,74,101
256565,note_on,0,0,3,,,,,,,,,2,,,,77,101
256565,control_change,0,0,3,,,,,,,,,2,11,74,,,
256567,note_on,0,0,8,,,,,,,,,7,,,,62,110
256567,note_on,240,0,8,,,,,,,,,7,,,,64,0
256568,note_on,60,0,13,,,,,,,,,12,,,,67,112
256569,control_change,0,0,4,,,,,,,,,3,11,82,,,
256569,note_on,0,0,4,,,,,,,,,3,,,,65,100
256569,note_on,0,0,4,,,,,,,,,3,,,,62,100
256569,note_on,0,0,4,,,,,,,,,3,,,,64,0
256569,note_on,36,0,4,,,,,,,,,3,,,,67,0
256572,note_on,60,0,14,,,,,,,,,13,,,,59,112
256573,note_on,0,0,9,,,,,,,,,8,,,,43,110
256573,note_on,60,0,9,,,,,,,,,8,,,,43,0
256574,note_on,60,0,15,,,,,,,,,14,,,,31,0
256574,note_on,0,0,15,,,,,,,,,14,,,,31,112
256575,note_on,0,0,10,,,,,,,,,15,,,,43,87
256575,note_on,60,0,10,,,,,,,,,15,,,,43,0
256628,note_on,60,0,13,,,,,,,,,12,,,,67,0
256632,note_on,60,0,14,,,,,,,,,13,,,,59,0
256680,set_tempo,120,1,0,,,,,,285714,,,,,,,,
256680,note_on,120,0,11,,,,,,,,,10,,,,64,93
256681,note_on,120,0,1,,,,,,,,,0,,,,86,0
256681,note_on,0,0,1,,,,,,,,,0,,,,89,0
256681,note_on,0,0,1,,,,,,,,,0,,,,88,101
256681,note_on,0,0,1,,,,,,,,,0,,,,84,101
256682,note_on,120,0,7,,,,,,,,,6,,,,55,0
256682,note_on,0,0,7,,,,,,,,,6,,,,67,0
256682,note_on,0,0,7,,,,,,,,,6,,,,72,112
256682,note_on,0,0,7,,,,,,,,,6,,,,60,112
256683,note_on,120,0,12,,,,,,,,,11,,,,77,0
256683,note_on,120,0,5,,,,,,,,,4,,,,65,0
256683,note_on,0,0,12,,,,,,,,,11,,,,60,93
256684,note_on,360,0,6,,,,,,,,,5,,,,55,0
256684,note_on,120,0,2,,,,,,,,,1,,,,74,0
256684,note_on,0,0,2,,,,,,,,,1,,,,72,100
256684,note_on,0,0,2,,,,,,,,,1,,,,76,100
256684,note_on,0,0,2,,,,,,,,,1,,,,77,0
256685,note_on,120,0,3,,,,,,,,,2,,,,77,0
256685,note_on,0,0,3,,,,,,,,,2,,,,74,0
256685,note_on,0,0,3,,,,,,,,,2,,,,72,101
256685,note_on,0,0,3,,,,,,,,,2,,,,76,101
256687,note_on,0,0,8,,,,,,,,,7,,,,59,0
256687,note_on,120,0,8,,,,,,,,,7,,,,62,0
256688,note_on,60,0,13,,,,,,,,,12,,,,55,112
256688,note_on,0,0,13,,,,,,,,,12,,,,64,112
256689,note_on,0,0,4,,,,,,,,,3,,,,64,100
256689,note_on,0,0,4,,,,,,,,,3,,,,62,0
256689,note_on,120,0,4,,,,,,,,,3,,,,65,0
256689,note_on,0,0,4,,,,,,,,,3,,,,60,100
256692,note_on,60,0,14,,,,,,,,,13,,,,60,112
256693,note_on,0,0,9,,,,,,,,,8,,,,48,110
256693,note_on,120,0,9,,,,,,,,,8,,,,43,0
256694,note_on,120,0,15,,,,,,,,,14,,,,31,0
256694,note_on,0,0,15,,,,,,,,,14,,,,36,112
256695,note_on,0,0,10,,,,,,,,,15,,,,48,87
256695,note_on,120,0,10,,,,,,,,,15,,,,43,0
256740,note_on,60,0,11,,,,,,,,,10,,,,64,0
256743,note_on,60,0,12,,,,,,,,,11,,,,60,0
256800,note_on,60,0,11,,,,,,,,,10,,,,67,93
256800,set_tempo,120,1,0,,,,,,300000,,,,,,,,
256803,note_on,60,0,12,,,,,,,,,11,,,,64,93
256860,note_on,60,0,11,,,,,,,,,10,,,,67,0
256863,note_on,60,0,12,,,,,,,,,11,,,,64,0
256863,note_on,180,0,5,,,,,,,,,4,,,,64,100
256864,note_on,180,0,6,,,,,,,,,5,,,,55,100
256867,note_on,180,0,8,,,,,,,,,7,,,,60,110
256920,set_tempo,120,1,0,,,,,,330579,,,,,,,,
256920,note_on,60,0,11,,,,,,,,,10,,,,72,93
256923,note_on,0,0,5,,,,,,,,,4,,,,64,100
256923,note_on,60,0,5,,,,,,,,,4,,,,64,0
256923,note_on,60,0,12,,,,,,,,,11,,,,67,93
256924,note_on,0,0,6,,,,,,,,,5,,,,55,100
256924,note_on,60,0,6,,,,,,,,,5,,,,55,0
256927,note_on,60,0,8,,,,,,,,,7,,,,60,0
256927,note_on,0,0,8,,,,,,,,,7,,,,60,110
256928,note_on,240,0,13,,,,,,,,,12,,,,64,0
256928,note_on,0,0,13,,,,,,,,,12,,,,55,0
256932,note_on,240,0,14,,,,,,,,,13,,,,60,0
256933,note_on,240,0,9,,,,,,,,,8,,,,48,0
256934,note_on,240,0,15,,,,,,,,,14,,,,36,0
256935,note_on,240,0,10,,,,,,,,,15,,,,48,0
256980,note_on,60,0,11,,,,,,,,,10,,,,72,0
256983,note_on,60,0,12,,,,,,,,,11,,,,67,0
257040,note_on,60,0,11,,,,,,,,,10,,,,76,93
257040,note_on,0,0,11,,,,,,,,,10,,,,67,93
257040,set_tempo,120,1,0,,,,,,285714,,,,,,,,
257041,note_on,0,0,1,,,,,,,,,0,,,,84,101
257041,note_on,360,0,1,,,,,,,,,0,,,,84,0
257041,note_on,0,0,1,,,,,,,,,0,,,,88,0
257041,note_on,0,0,1,,,,,,,,,0,,,,76,101
257043,note_on,60,0,12,,,,,,,,,11,,,,72,93
257043,note_on,0,0,12,,,,,,,,,11,,,,64,93
257043,note_on,0,0,5,,,,,,,,,4,,,,60,115
257043,note_on,120,0,5,,,,,,,,,4,,,,64,0
257044,note_on,360,0,2,,,,,,,,,1,,,,72,0
257044,note_on,0,0,2,,,,,,,,,1,,,,72,100
257044,note_on,120,0,6,,,,,,,,,5,,,,55,0
257044,note_on,0,0,6,,,,,,,,,5,,,,60,115
257044,note_on,0,0,2,,,,,,,,,1,,,,64,100
257044,note_on,0,0,2,,,,,,,,,1,,,,76,0
257045,note_on,0,0,3,,,,,,,,,2,,,,72,101
257045,note_on,360,0,3,,,,,,,,,2,,,,72,0
257045,note_on,0,0,3,,,,,,,,,2,,,,76,0
257045,note_on,0,0,3,,,,,,,,,2,,,,64,101
257047,note_on,120,0,8,,,,,,,,,7,,,,60,0
257047,note_on,0,0,8,,,,,,,,,7,,,,60,110
257047,note_on,0,0,8,,,,,,,,,7,,,,52,110
257048,note_on,120,0,13,,,,,,,,,12,,,,60,112
257049,note_on,0,0,4,,,,,,,,,3,,,,64,0
257049,note_on,0,0,4,,,,,,,,,3,,,,52,100
257049,note_on,0,0,4,,,,,,,,,3,,,,60,100
257049,note_on,360,0,4,,,,,,,,,3,,,,60,0
257052,note_on,120,0,14,,,,,,,,,13,,,,55,112
257108,note_on,60,0,13,,,,,,,,,12,,,,60,0
257112,note_on,60,0,14,,,,,,,,,13,,,,55,0
257160,set_tempo,120,1,0,,,,,,300000,,,,,,,,
257161,note_on,0,0,1,,,,,,,,,0,,,,86,101
257161,note_on,0,0,1,,,,,,,,,0,,,,77,101
257161,note_on,120,0,1,,,,,,,,,0,,,,76,0
257161,note_on,0,0,1,,,,,,,,,0,,,,84,0
257163,note_on,0,0,5,,,,,,,,,4,,,,62,115
257163,note_on,120,0,5,,,,,,,,,4,,,,60,0
257164,note_on,0,0,6,,,,,,,,,5,,,,60,115
257164,note_on,120,0,6,,,,,,,,,5,,,,60,0
257164,note_on,0,0,2,,,,,,,,,1,,,,65,100
257164,note_on,0,0,2,,,,,,,,,1,,,,64,0
257164,note_on,120,0,2,,,,,,,,,1,,,,72,0
257164,note_on,0,0,2,,,,,,,,,1,,,,74,100
257165,note_on,120,0,3,,,,,,,,,2,,,,64,0
257165,note_on,0,0,3,,,,,,,,,2,,,,74,101
257165,note_on,0,0,3,,,,,,,,,2,,,,65,101
257165,note_on,0,0,3,,,,,,,,,2,,,,72,0
257167,note_on,120,0,8,,,,,,,,,7,,,,52,0
257167,note_on,0,0,8,,,,,,,,,7,,,,60,0
257167,note_on,0,0,8,,,,,,,,,7,,,,62,110
257167,note_on,0,0,8,,,,,,,,,7,,,,53,110
257168,note_on,60,0,13,,,,,,,,,12,,,,64,112
257169,note_on,0,0,4,,,,,,,,,3,,,,62,100
257169,note_on,0,0,4,,,,,,,,,3,,,,52,0
257169,note_on,0,0,4,,,,,,,,,3,,,,53,100
257169,note_on,120,0,4,,,,,,,,,3,,,,60,0
257172,note_on,60,0,14,,,,,,,,,13,,,,60,112
257222,note_on,0,0,7,,,,,,,,,6,,,,72,112
257222,note_on,540,0,7,,,,,,,,,6,,,,60,0
257222,note_on,0,0,7,,,,,,,,,6,,,,72,0
257222,note_on,0,0,7,,,,,,,,,6,,,,60,112
257228,note_on,60,0,13,,,,,,,,,12,,,,64,0
257232,note_on,60,0,14,,,,,,,,,13,,,,60,0
257233,note_on,300,0,9,,,,,,,,,8,,,,48,110
257234,note_on,300,0,15,,,,,,,,,14,,,,36,112
257235,note_on,300,0,10,,,,,,,,,15,,,,48,87
257280,set_tempo,120,1,0,,,,,,330579,,,,,,,,
257280,note_on,0,0,11,,,,,,,,,10,,,,76,0
257280,note_on,240,0,11,,,,,,,,,10,,,,67,0
257281,note_on,0,0,1,,,,,,,,,0,,,,86,0
257281,note_on,0,0,1,,,,,,,,,0,,,,79,101
257281,note_on,0,0,1,,,,,,,,,0,,,,88,101
257281,note_on,120,0,1,,,,,,,,,0,,,,77,0
257282,note_on,0,0,7,,,,,,,,,6,,,,60,112
257282,note_on,0,0,7,,,,,,,,,6,,,,72,112
257282,note_on,60,0,7,,,,,,,,,6,,,,72,0
257282,note_on,0,0,7,,,,,,,,,6,,,,60,0
257283,note_on,120,0,5,,,,,,,,,4,,,,62,0
257283,note_on,0,0,5,,,,,,,,,4,,,,64,115
257283,note_on,240,0,12,,,,,,,,,11,,,,64,0
257283,note_on,0,0,12,,,,,,,,,11,,,,72,0
257284,note_on,120,0,2,,,,,,,,,1,,,,74,0
257284,note_on,0,0,2,,,,,,,,,1,,,,76,100
257284,note_on,0,0,2,,,,,,,,,1,,,,67,100
257284,note_on,120,0,6,,,,,,,,,5,,,,60,0
257284,note_on,0,0,6,,,,,,,,,5,,,,60,115
257284,note_on,0,0,2,,,,,,,,,1,,,,65,0
257285,note_on,0,0,3,,,,,,,,,2,,,,74,0
257285,note_on,120,0,3,,,,,,,,,2,,,,65,0
257285,note_on,0,0,3,,,,,,,,,2,,,,67,101
257285,note_on,0,0,3,,,,,,,,,2,,,,76,101
257287,note_on,0,0,8,,,,,,,,,7,,,,55,110
257287,note_on,0,0,8,,,,,,,,,7,,,,62,0
257287,note_on,120,0,8,,,,,,,,,7,,,,53,0
257287,note_on,0,0,8,,,,,,,,,7,,,,64,110
257288,note_on,60,0,13,,,,,,,,,12,,,,67,112
257289,note_on,0,0,4,,,,,,,,,3,,,,55,100
257289,note_on,120,0,4,,,,,,,,,3,,,,62,0
257289,note_on,0,0,4,,,,,,,,,3,,,,53,0
257289,note_on,0,0,4,,,,,,,,,3,,,,64,100
257292,note_on,60,0,14,,,,,,,,,13,,,,64,112
257293,note_on,0,0,9,,,,,,,,,8,,,,48,110
257293,note_on,60,0,9,,,,,,,,,8,,,,48,0
257294,note_on,60,0,15,,,,,,,,,14,,,,36,0
257294,note_on,0,0,15,,,,,,,,,14,,,,36,112
257295,note_on,60,0,10,,,,,,,,,15,,,,48,0
257295,note_on,0,0,10,,,,,,,,,15,,,,48,87
257348,note_on,60,0,13,,,,,,,,,12,,,,67,0
257352,note_on,60,0,14,,,,,,,,,13,,,,64,0
257396,note_on,115,0,1,,,,,,,,,0,,,,88,0
257396,note_on,0,0,1,,,,,,,,,0,,,,79,0
257399,note_on,115,0,2,,,,,,,,,1,,,,76,0
257399,note_on,0,0,2,,,,,,,,,1,,,,67,0
257400,set_tempo,120,1,0,,,,,,285714,,,,,,,,
257400,note_on,115,0,3,,,,,,,,,2,,,,67,0
257400,note_on,0,0,3,,,,,,,,,2,,,,76,0
257400,note_on,120,0,11,,,,,,,,,10,,,,69,93
257401,note_on,5,0,1,,,,,,,,,0,,,,81,116
257401,note_on,0,0,1,,,,,,,,,0,,,,89,116
257402,note_on,120,0,7,,,,,,,,,6,,,,72,0
257402,note_on,0,0,7,,,,,,,,,6,,,,60,0
257402,note_on,0,0,7,,,,,,,,,6,,,,60,112
257402,note_on,0,0,7,,,,,,,,,6,,,,72,112
257403,note_on,120,0,5,,,,,,,,,4,,,,64,0
257403,note_on,120,0,12,,,,,,,,,11,,,,65,93
257404,note_on,115,0,4,,,,,,,,,3,,,,55,0
257404,note_on,0,0,4,,,,,,,,,3,,,,64,0
257404,note_on,5,0,2,,,,,,,,,1,,,,69,115
257404,note_on,0,0,2,,,,,,,,,1,,,,77,115
257404,note_on,120,0,6,,,,,,,,,5,,,,60,0
257405,note_on,0,0,3,,,,,,,,,2,,,,77,116
257405,note_on,5,0,3,,,,,,,,,2,,,,69,116
257407,note_on,120,0,8,,,,,,,,,7,,,,55,0
257407,note_on,0,0,8,,,,,,,,,7,,,,64,0
257408,note_on,60,0,13,,,,,,,,,12,,,,60,112
257408,note_on,0,0,13,,,,,,,,,12,,,,69,112
257409,note_on,5,0,4,,,,,,,,,3,,,,57,115
257409,note_on,0,0,4,,,,,,,,,3,,,,65,115
257412,note_on,60,0,14,,,,,,,,,13,,,,65,112
257413,note_on,120,0,9,,,,,,,,,8,,,,48,0
257413,note_on,0,0,9,,,,,,,,,8,,,,48,110
257414,note_on,120,0,15,,,,,,,,,14,,,,36,0
257414,note_on,0,0,15,,,,,,,,,14,,,,36,112
257415,note_on,0,0,10,,,,,,,,,15,,,,48,87
257415,note_on,120,0,10,,,,,,,,,15,,,,48,0
257460,note_on,60,0,11,,,,,,,,,10,,,,69,0
257463,note_on,60,0,12,,,,,,,,,11,,,,65,0
257520,set_tempo,120,1,0,,,,,,300000,,,,,,,,
257520,note_on,60,0,11,,,,,,,,,10,,,,72,93
257523,note_on,60,0,12,,,,,,,,,11,,,,69,93
257580,note_on,60,0,11,,,,,,,,,10,,,,72,0
257583,note_on,60,0,12,,,,,,,,,11,,,,69,0
257583,note_on,180,0,5,,,,,,,,,4,,,,60,100
257584,note_on,180,0,6,,,,,,,,,5,,,,48,100
257587,note_on,0,0,8,,,,,,,,,7,,,,65,110
257587,note_on,180,0,8,,,,,,,,,7,,,,57,110
257640,set_tempo,120,1,0,,,,,,330579,,,,,,,,
257640,note_on,60,0,11,,,,,,,,,10,,,,77,93
257643,note_on,60,0,5,,,,,,,,,4,,,,60,0
257643,note_on,60,0,12,,,,,,,,,11,,,,72,93
257643,note_on,0,0,5,,,,,,,,,4,,,,60,100
257644,note_on,0,0,6,,,,,,,,,5,,,,48,100
257644,note_on,60,0,6,,,,,,,,,5,,,,48,0
257647,note_on,0,0,8,,,,,,,,,7,,,,57,0
257647,note_on,0,0,8,,,,,,,,,7,,,,65,110
257647,note_on,60,0,8,,,,,,,,,7,,,,65,0
257647,note_on,0,0,8,,,,,,,,,7,,,,57,110
257648,note_on,0,0,13,,,,,,,,,12,,,,60,0
257648,note_on,240,0,13,,,,,,,,,12,,,,69,0
257652,note_on,240,0,14,,,,,,,,,13,,,,65,0
257653,note_on,240,0,9,,,,,,,,,8,,,,48,0
257654,note_on,240,0,15,,,,,,,,,14,,,,36,0
257655,note_on,240,0,10,,,,,,,,,15,,,,48,0
257700,note_on,60,0,11,,,,,,,,,10,,,,77,0
257703,note_on,60,0,12,,,,,,,,,11,,,,72,0
257760,note_on,60,0,11,,,,,,,,,10,,,,76,104
257760,set_tempo,120,1,0,,,,,,285714,,,,,,,,
257760,note_on,0,0,11,,,,,,,,,10,,,,67,104
257761,note_on,360,0,1,,,,,,,,,0,,,,89,0
257761,note_on,0,0,1,,,,,,,,,0,,,,79,101
257761,note_on,0,0,1,,,,,,,,,0,,,,81,0
257761,note_on,0,0,1,,,,,,,,,0,,,,88,101
257763,note_on,0,0,12,,,,,,,,,11,,,,72,104
257763,note_on,120,0,5,,,,,,,,,4,,,,60,0
257763,note_on,0,0,5,,,,,,,,,4,,,,60,100
257763,note_on,60,0,12,,,,,,,,,11,,,,64,104
257764,note_on,0,0,2,,,,,,,,,1,,,,69,0
257764,note_on,360,0,2,,,,,,,,,1,,,,77,0
257764,note_on,0,0,6,,,,,,,,,5,,,,48,100
257764,note_on,0,0,2,,,,,,,,,1,,,,67,100
257764,note_on,120,0,6,,,,,,,,,5,,,,48,0
257764,note_on,0,0,2,,,,,,,,,1,,,,76,100
257765,note_on,0,0,3,,,,,,,,,2,,,,76,101
257765,note_on,0,0,3,,,,,,,,,2,,,,69,0
257765,note_on,0,0,3,,,,,,,,,2,,,,67,101
257765,note_on,360,0,3,,,,,,,,,2,,,,77,0
257767,note_on,0,0,8,,,,,,,,,7,,,,57,0
257767,note_on,0,0,8,,,,,,,,,7,,,,64,110
257767,note_on,0,0,8,,,,,,,,,7,,,,55,110
257767,note_on,120,0,8,,,,,,,,,7,,,,65,0
257768,note_on,120,0,13,,,,,,,,,12,,,,60,112
257769,note_on,0,0,4,,,,,,,,,3,,,,55,100
257769,note_on,0,0,4,,,,,,,,,3,,,,57,0
257769,note_on,360,0,4,,,,,,,,,3,,,,65,0
257769,note_on,0,0,4,,,,,,,,,3,,,,64,100
257772,note_on,120,0,14,,,,,,,,,13,,,,55,112
257828,note_on,60,0,13,,,,,,,,,12,,,,60,0
257832,note_on,60,0,14,,,,,,,,,13,,,,55,0
257880,control_change,120,0,11,,,,,,,,,10,11,83,,,
257880,set_tempo,120,1,0,,,,,,300000,,,,,,,,
257881,note_on,120,0,1,,,,,,,,,0,,,,88,0
257881,note_on,0,0,1,,,,,,,,,0,,,,79,0
257883,control_change,120,0,12,,,,,,,,,11,11,83,,,
257884,note_on,0,0,2,,,,,,,,,1,,,,76,0
257884,note_on,120,0,2,,,,,,,,,1,,,,67,0
257885,note_on,0,0,3,,,,,,,,,2,,,,67,0
257885,note_on,120,0,3,,,,,,,,,2,,,,76,0
257888,note_on,60,0,13,,,,,,,,,12,,,,64,112
257889,note_on,0,0,4,,,,,,,,,3,,,,55,0
257889,note_on,120,0,4,,,,,,,,,3,,,,64,0
257892,note_on,60,0,14,,,,,,,,,13,,,,60,112
257897,control_change,17,0,11,,,,,,,,,10,11,80,,,
257900,control_change,17,0,12,,,,,,,,,11,11,80,,,
257915,control_change,18,0,11,,,,,,,,,10,11,77,,,
257918,control_change,18,0,12,,,,,,,,,11,11,77,,,
257933,control_change,18,0,11,,,,,,,,,10,11,74,,,
257936,control_change,18,0,12,,,,,,,,,11,11,74,,,
257942,note_on,540,0,7,,,,,,,,,6,,,,72,0
257942,note_on,0,0,7,,,,,,,,,6,,,,60,0
257942,note_on,0,0,7,,,,,,,,,6,,,,72,112
257942,note_on,0,0,7,,,,,,,,,6,,,,60,112
257948,note_on,60,0,13,,,,,,,,,12,,,,64,0
257951,control_change,18,0,11,,,,,,,,,10,11,72,,,
257952,note_on,60,0,14,,,,,,,,,13,,,,60,0
257953,note_on,300,0,9,,,,,,,,,8,,,,48,110
257954,control_change,18,0,12,,,,,,,,,11,11,72,,,
257954,note_on,300,0,15,,,,,,,,,14,,,,36,112
257955,note_on,300,0,10,,,,,,,,,15,,,,48,87
257969,control_change,18,0,11,,,,,,,,,10,11,69,,,
257972,control_change,18,0,12,,,,,,,,,11,11,69,,,
257987,control_change,18,0,11,,,,,,,,,10,11,66,,,
257990,control_change,18,0,12,,,,,,,,,11,11,66,,,
258000,note_on,13,0,11,,,,,,,,,10,,,,67,0
258000,note_on,0,0,11,,,,,,,,,10,,,,76,0
258000,set_tempo,120,1,0,,,,,,330579,,,,,,,,
258001,note_on,120,0,1,,,,,,,,,0,,,,88,116
258001,note_on,0,0,1,,,,,,,,,0,,,,84,116
258002,note_on,60,0,7,,,,,,,,,6,,,,60,0
258002,note_on,0,0,7,,,,,,,,,6,,,,72,0
258002,note_on,0,0,7,,,,,,,,,6,,,,60,112
258002,note_on,0,0,7,,,,,,,,,6,,,,72,112
258003,note_on,0,0,12,,,,,,,,,11,,,,64,0
258003,note_on,13,0,12,,,,,,,,,11,,,,72,0
258003,note_on,240,0,5,,,,,,,,,4,,,,60,0
258004,note_on,240,0,6,,,,,,,,,5,,,,48,0
258004,note_on,0,0,2,,,,,,,,,1,,,,72,115
258004,note_on,120,0,2,,,,,,,,,1,,,,76,115
258005,note_on,0,0,3,,,,,,,,,2,,,,76,116
258005,note_on,120,0,3,,,,,,,,,2,,,,72,116
258007,note_on,240,0,8,,,,,,,,,7,,,,55,0
258007,note_on,0,0,8,,,,,,,,,7,,,,64,0
258008,note_on,60,0,13,,,,,,,,,12,,,,67,112
258009,note_on,0,0,4,,,,,,,,,3,,,,60,115
258009,note_on,120,0,4,,,,,,,,,3,,,,64,115
258012,note_on,60,0,14,,,,,,,,,13,,,,64,112
258013,note_on,60,0,9,,,,,,,,,8,,,,48,0
258013,note_on,0,0,9,,,,,,,,,8,,,,48,110
258014,note_on,60,0,15,,,,,,,,,14,,,,36,0
258014,note_on,0,0,15,,,,,,,,,14,,,,36,112
258015,note_on,60,0,10,,,,,,,,,15,,,,48,0
258015,note_on,0,0,10,,,,,,,,,15,,,,48,87
258061,note_on,60,0,1,,,,,,,,,0,,,,84,0
258061,note_on,0,0,1,,,,,,,,,0,,,,88,0
258064,note_on,60,0,2,,,,,,,,,1,,,,72,0
258064,note_on,0,0,2,,,,,,,,,1,,,,76,0
258065,note_on,0,0,3,,,,,,,,,2,,,,72,0
258065,note_on,60,0,3,,,,,,,,,2,,,,76,0
258068,note_on,60,0,13,,,,,,,,,12,,,,67,0
258069,note_on,60,0,4,,,,,,,,,3,,,,60,0
258069,note_on,0,0,4,,,,,,,,,3,,,,64,0
258072,note_on,60,0,14,,,,,,,,,13,,,,64,0
258120,control_change,120,0,11,,,,,,,,,10,11,83,,,
258120,note_on,0,0,11,,,,,,,,,10,,,,72,93
258120,set_tempo,120,1,0,,,,,,285714,,,,,,,,
258121,note_on,0,0,1,,,,,,,,,0,,,,93,116
258121,note_on,60,0,1,,,,,,,,,0,,,,89,116
258122,note_on,0,0,7,,,,,,,,,6,,,,72,112
258122,note_on,0,0,7,,,,,,,,,6,,,,60,0
258122,note_on,120,0,7,,,,,,,,,6,,,,72,0
258122,note_on,0,0,7,,,,,,,,,6,,,,60,112
258123,control_change,0,0,12,,,,,,,,,11,11,83,,,
258123,note_on,120,0,12,,,,,,,,,11,,,,69,93
258124,note_on,60,0,2,,,,,,,,,1,,,,77,115
258124,note_on,0,0,2,,,,,,,,,1,,,,81,115
258125,note_on,60,0,3,,,,,,,,,2,,,,81,116
258125,note_on,0,0,3,,,,,,,,,2,,,,77,116
258128,note_on,0,0,13,,,,,,,,,12,,,,69,112
258128,note_on,60,0,13,,,,,,,,,12,,,,60,112
258129,note_on,0,0,4,,,,,,,,,3,,,,69,115
258129,note_on,60,0,4,,,,,,,,,3,,,,65,115
258132,note_on,60,0,14,,,,,,,,,13,,,,65,112
258133,note_on,120,0,9,,,,,,,,,8,,,,48,0
258133,note_on,0,0,9,,,,,,,,,8,,,,48,110
258134,note_on,120,0,15,,,,,,,,,14,,,,36,0
258134,note_on,0,0,15,,,,,,,,,14,,,,36,112
258135,note_on,120,0,10,,,,,,,,,15,,,,48,0
258135,note_on,0,0,10,,,,,,,,,15,,,,48,87
258180,note_on,60,0,11,,,,,,,,,10,,,,72,0
258183,note_on,60,0,12,,,,,,,,,11,,,,69,0
258240,set_tempo,120,1,0,,,,,,300000,,,,,,,,
258240,note_on,60,0,11,,,,,,,,,10,,,,77,93
258243,note_on,60,0,12,,,,,,,,,11,,,,72,93
258300,note_on,60,0,11,,,,,,,,,10,,,,77,0
258303,note_on,300,0,5,,,,,,,,,4,,,,60,100
258303,note_on,60,0,12,,,,,,,,,11,,,,72,0
258304,note_on,300,0,6,,,,,,,,,5,,,,48,100
258307,note_on,300,0,8,,,,,,,,,7,,,,57,110
258307,note_on,0,0,8,,,,,,,,,7,,,,65,110
258360,note_on,60,0,11,,,,,,,,,10,,,,81,93
258360,set_tempo,120,1,0,,,,,,330579,,,,,,,,
258363,note_on,60,0,12,,,,,,,,,11,,,,77,93
258363,note_on,0,0,5,,,,,,,,,4,,,,60,100
258363,note_on,60,0,5,,,,,,,,,4,,,,60,0
258364,note_on,0,0,6,,,,,,,,,5,,,,48,100
258364,note_on,60,0,6,,,,,,,,,5,,,,48,0
258367,note_on,0,0,8,,,,,,,,,7,,,,57,110
258367,note_on,0,0,8,,,,,,,,,7,,,,65,110
258367,note_on,0,0,8,,,,,,,,,7,,,,57,0
258367,note_on,60,0,8,,,,,,,,,7,,,,65,0
258368,note_on,240,0,13,,,,,,,,,12,,,,69,0
258368,note_on,0,0,13,,,,,,,,,12,,,,60,0
258372,note_on,240,0,14,,,,,,,,,13,,,,65,0
258373,note_on,240,0,9,,,,,,,,,8,,,,48,0
258374,note_on,240,0,15,,,,,,,,,14,,,,36,0
258375,note_on,240,0,10,,,,,,,,,15,,,,48,0
258420,note_on,60,0,11,,,,,,,,,10,,,,81,0
258423,note_on,60,0,12,,,,,,,,,11,,,,77,0
258480,note_on,0,0,11,,,,,,,,,10,,,,72,93
258480,note_on,60,0,11,,,,,,,,,10,,,,79,93
258480,set_tempo,120,1,0,,,,,,285714,,,,,,,,
258480,control_change,0,0,11,,,,,,,,,10,11,83,,,
258481,note_on,0,0,1,,,,,,,,,0,,,,89,0
258481,note_on,0,0,1,,,,,,,,,0,,,,91,101
258481,note_on,0,0,1,,,,,,,,,0,,,,88,101
258481,control_change,0,0,1,,,,,,,,,0,11,74,,,
258481,note_on,360,0,1,,,,,,,,,0,,,,93,0
258482,control_change,360,0,7,,,,,,,,,6,11,82,,,
258483,note_on,120,0,5,,,,,,,,,4,,,,60,0
258483,note_on,0,0,5,,,,,,,,,4,,,,60,100
258483,control_change,0,0,12,,,,,,,,,11,11,83,,,
258483,note_on,60,0,12,,,,,,,,,11,,,,67,93
258483,note_on,0,0,12,,,,,,,,,11,,,,76,93
258484,note_on,120,0,6,,,,,,,,,5,,,,48,0
258484,note_on,0,0,6,,,,,,,,,5,,,,48,100
258484,note_on,360,0,2,,,,,,,,,1,,,,81,0
258484,note_on,0,0,2,,,,,,,,,1,,,,77,0
258484,note_on,0,0,2,,,,,,,,,1,,,,76,100
258484,note_on,0,0,2,,,,,,,,,1,,,,79,100
258484,control_change,0,0,2,,,,,,,,,1,11,74,,,
258485,note_on,0,0,3,,,,,,,,,2,,,,76,101
258485,note_on,360,0,3,,,,,,,,,2,,,,77,0
258485,control_change,0,0,3,,,,,,,,,2,11,74,,,
258485,note_on,0,0,3,,,,,,,,,2,,,,81,0
258485,note_on,0,0,3,,,,,,,,,2,,,,79,101
258487,note_on,120,0,8,,,,,,,,,7,,,,57,0
258487,note_on,0,0,8,,,,,,,,,7,,,,65,0
258487,note_on,0,0,8,,,,,,,,,7,,,,55,110
258487,note_on,0,0,8,,,,,,,,,7,,,,64,110
258487,control_change,0,0,8,,,,,,,,,7,11,82,,,
258488,note_on,0,0,13,,,,,,,,,12,,,,55,112
258488,control_change,120,0,13,,,,,,,,,12,11,83,,,
258489,note_on,360,0,4,,,,,,,,,3,,,,69,0
258489,note_on,0,0,4,,,,,,,,,3,,,,65,0
258489,note_on,0,0,4,,,,,,,,,3,,,,64,100
258489,note_on,0,0,4,,,,,,,,,3,,,,67,100
258489,control_change,0,0,4,,,,,,,,,3,11,82,,,
258492,control_change,120,0,14,,,,,,,,,13,11,83,,,
258492,note_on,0,0,14,,,,,,,,,13,,,,52,112
258493,control_change,120,0,9,,,,,,,,,8,11,82,,,
258505,control_change,23,0,7,,,,,,,,,6,11,83,,,
258505,control_change,24,0,1,,,,,,,,,0,11,75,,,
258508,control_change,24,0,2,,,,,,,,,1,11,75,,,
258509,control_change,24,0,3,,,,,,,,,2,11,75,,,
258510,control_change,23,0,8,,,,,,,,,7,11,83,,,
258512,control_change,24,0,13,,,,,,,,,12,11,84,,,
258513,control_change,24,0,4,,,,,,,,,3,11,83,,,
258516,control_change,24,0,14,,,,,,,,,13,11,84,,,
258516,control_change,23,0,9,,,,,,,,,8,11,83,,,
258529,control_change,24,0,7,,,,,,,,,6,11,84,,,
258529,control_change,24,0,1,,,,,,,,,0,11,76,,,
258532,control_change,24,0,2,,,,,,,,,1,11,76,,,
258533,control_change,24,0,3,,,,,,,,,2,11,76,,,
258534,control_change,24,0,8,,,,,,,,,7,11,84,,,
258536,control_change,24,0,13,,,,,,,,,12,11,85,,,
258537,control_change,24,0,4,,,,,,,,,3,11,84,,,
258540,control_change,24,0,9,,,,,,,,,8,11,84,,,
258540,control_change,24,0,14,,,,,,,,,13,11,85,,,
258548,note_on,12,0,13,,,,,,,,,12,,,,55,0
258552,note_on,12,0,14,,,,,,,,,13,,,,52,0
258553,control_change,24,0,7,,,,,,,,,6,11,85,,,
258553,control_change,24,0,1,,,,,,,,,0,11,76,,,
258556,control_change,24,0,2,,,,,,,,,1,11,76,,,
258557,control_change,24,0,3,,,,,,,,,2,11,76,,,
258558,control_change,24,0,8,,,,,,,,,7,11,85,,,
258560,control_change,12,0,13,,,,,,,,,12,11,86,,,
258561,control_change,24,0,4,,,,,,,,,3,11,85,,,
258564,control_change,12,0,14,,,,,,,,,13,11,86,,,
258564,control_change,24,0,9,,,,,,,,,8,11,85,,,
258577,control_change,24,0,1,,,,,,,,,0,11,77,,,
258577,control_change,24,0,7,,,,,,,,,6,11,86,,,
258580,control_change,24,0,2,,,,,,,,,1,11,77,,,
258581,control_change,24,0,3,,,,,,,,,2,11,77,,,
258582,control_change,24,0,8,,,,,,,,,7,11,86,,,
258584,control_change,24,0,13,,,,,,,,,12,11,87,,,
258585,control_change,24,0,4,,,,,,,,,3,11,86,,,
258588,control_change,24,0,14,,,,,,,,,13,11,87,,,
258588,control_change,24,0,9,,,,,,,,,8,11,86,,,
258600,set_tempo,120,1,0,,,,,,300000,,,,,,,,
258601,note_on,0,0,1,,,,,,,,,0,,,,91,0
258601,control_change,24,0,7,,,,,,,,,6,11,87,,,
258601,note_on,0,0,1,,,,,,,,,0,,,,89,101
258601,control_change,0,0,1,,,,,,,,,0,11,78,,,
258601,note_on,0,0,1,,,,,,,,,0,,,,86,101
258601,note_on,24,0,1,,,,,,,,,0,,,,88,0
258604,note_on,24,0,2,,,,,,,,,1,,,,79,0
258604,note_on,0,0,2,,,,,,,,,1,,,,74,100
258604,note_on,0,0,2,,,,,,,,,1,,,,76,0
258604,control_change,0,0,2,,,,,,,,,1,11,78,,,
258604,note_on,0,0,2,,,,,,,,,1,,,,77,100
258605,note_on,0,0,3,,,,,,,,,2,,,,77,101
258605,note_on,0,0,3,,,,,,,,,2,,,,76,0
258605,note_on,24,0,3,,,,,,,,,2,,,,79,0
258605,control_change,0,0,3,,,,,,,,,2,11,78,,,
258605,note_on,0,0,3,,,,,,,,,2,,,,74,101
258606,control_change,24,0,8,,,,,,,,,7,11,87,,,
258608,note_on,24,0,13,,,,,,,,,12,,,,60,112
258608,control_change,0,0,13,,,,,,,,,12,11,87,,,
258609,note_on,0,0,4,,,,,,,,,3,,,,64,0
258609,note_on,24,0,4,,,,,,,,,3,,,,67,0
258609,control_change,0,0,4,,,,,,,,,3,11,87,,,
258609,note_on,0,0,4,,,,,,,,,3,,,,62,100
258609,note_on,0,0,4,,,,,,,,,3,,,,65,100
258612,control_change,0,0,14,,,,,,,,,13,11,87,,,
258612,note_on,24,0,14,,,,,,,,,13,,,,55,112
258612,control_change,24,0,9,,,,,,,,,8,11,87,,,
258625,control_change,24,0,7,,,,,,,,,6,11,88,,,
258625,control_change,24,0,1,,,,,,,,,0,11,79,,,
258628,control_change,24,0,2,,,,,,,,,1,11,79,,,
258629,control_change,24,0,3,,,,,,,,,2,11,79,,,
258630,control_change,24,0,8,,,,,,,,,7,11,88,,,
258632,control_change,24,0,13,,,,,,,,,12,11,88,,,
258633,control_change,24,0,4,,,,,,,,,3,11,88,,,
258636,control_change,24,0,14,,,,,,,,,13,11,88,,,
258636,control_change,24,0,9,,,,,,,,,8,11,88,,,
258649,control_change,24,0,7,,,,,,,,,6,11,89,,,
258649,control_change,24,0,1,,,,,,,,,0,11,80,,,
258652,control_change,24,0,2,,,,,,,,,1,11,80,,,
258653,control_change,24,0,3,,,,,,,,,2,11,80,,,
258654,control_change,24,0,8,,,,,,,,,7,11,89,,,
258656,control_change,24,0,13,,,,,,,,,12,11,89,,,
258657,control_change,24,0,4,,,,,,,,,3,11,89,,,
258660,control_change,24,0,14,,,,,,,,,13,11,89,,,
258660,control_change,24,0,9,,,,,,,,,8,11,89,,,
258662,note_on,0,0,7,,,,,,,,,6,,,,72,0
258662,note_on,13,0,7,,,,,,,,,6,,,,60,0
258662,note_on,0,0,7,,,,,,,,,6,,,,60,112
258662,note_on,0,0,7,,,,,,,,,6,,,,72,112
258668,note_on,12,0,13,,,,,,,,,12,,,,60,0
258672,note_on,12,0,14,,,,,,,,,13,,,,55,0
258673,note_on,13,0,9,,,,,,,,,8,,,,48,110
258673,control_change,24,0,1,,,,,,,,,0,11,80,,,
258673,control_change,11,0,7,,,,,,,,,6,11,90,,,
258674,note_on,300,0,15,,,,,,,,,14,,,,36,112
258675,note_on,300,0,10,,,,,,,,,15,,,,48,87
258676,control_change,24,0,2,,,,,,,,,1,11,80,,,
258677,control_change,24,0,3,,,,,,,,,2,11,80,,,
258678,control_change,24,0,8,,,,,,,,,7,11,90,,,
258680,control_change,12,0,13,,,,,,,,,12,11,90,,,
258681,control_change,24,0,4,,,,,,,,,3,11,90,,,
258684,control_change,11,0,9,,,,,,,,,8,11,90,,,
258684,control_change,12,0,14,,,,,,,,,13,11,90,,,
258697,control_change,24,0,7,,,,,,,,,6,11,91,,,
258697,control_change,24,0,1,,,,,,,,,0,11,81,,,
258700,control_change,24,0,2,,,,,,,,,1,11,81,,,
258701,control_change,24,0,3,,,,,,,,,2,11,81,,,
258702,control_change,24,0,8,,,,,,,,,7,11,91,,,
258704,control_change,24,0,13,,,,,,,,,12,11,91,,,
258705,control_change,24,0,4,,,,,,,,,3,11,91,,,
258708,control_change,24,0,14,,,,,,,,,13,11,91,,,
258708,control_change,24,0,9,,,,,,,,,8,11,91,,,
258720,note_on,240,0,11,,,,,,,,,10,,,,72,0
258720,set_tempo,120,1,0,,,,,,330579,,,,,,,,
258720,note_on,0,0,11,,,,,,,,,10,,,,79,0
258721,note_on,0,0,1,,,,,,,,,0,,,,86,0
258721,note_on,24,0,1,,,,,,,,,0,,,,89,0
258721,control_change,24,0,7,,,,,,,,,6,11,92,,,
258721,note_on,0,0,1,,,,,,,,,0,,,,84,101
258721,note_on,0,0,1,,,,,,,,,0,,,,88,101
258721,control_change,0,0,1,,,,,,,,,0,11,82,,,
258722,note_on,1,0,7,,,,,,,,,6,,,,72,0
258722,note_on,0,0,7,,,,,,,,,6,,,,60,112
258722,note_on,0,0,7,,,,,,,,,6,,,,60,0
258722,note_on,0,0,7,,,,,,,,,6,,,,72,112
258723,note_on,0,0,12,,,,,,,,,11,,,,67,0
258723,note_on,240,0,5,,,,,,,,,4,,,,60,0
258723,note_on,240,0,12,,,,,,,,,11,,,,76,0
258724,note_on,240,0,6,,,,,,,,,5,,,,48,0
258724,note_on,24,0,2,,,,,,,,,1,,,,74,0
258724,note_on,0,0,2,,,,,,,,,1,,,,77,0
258724,note_on,0,0,2,,,,,,,,,1,,,,72,100
258724,note_on,0,0,2,,,,,,,,,1,,,,76,100
258724,control_change,0,0,2,,,,,,,,,1,11,82,,,
258725,note_on,24,0,3,,,,,,,,,2,,,,74,0
258725,note_on,0,0,3,,,,,,,,,2,,,,77,0
258725,note_on,0,0,3,,,,,,,,,2,,,,72,101
258725,note_on,0,0,3,,,,,,,,,2,,,,76,101
258725,control_change,0,0,3,,,,,,,,,2,11,82,,,
258726,control_change,24,0,8,,,,,,,,,7,11,92,,,
258727,note_on,0,0,8,,,,,,,,,7,,,,55,0
258727,note_on,1,0,8,,,,,,,,,7,,,,64,0
258728,control_change,24,0,13,,,,,,,,,12,11,92,,,
258728,note_on,0,0,13,,,,,,,,,12,,,,64,112
258729,note_on,0,0,4,,,,,,,,,3,,,,60,100
258729,note_on,0,0,4,,,,,,,,,3,,,,62,0
258729,control_change,0,0,4,,,,,,,,,3,11,92,,,
258729,note_on,24,0,4,,,,,,,,,3,,,,65,0
258729,note_on,0,0,4,,,,,,,,,3,,,,64,100
258732,note_on,24,0,14,,,,,,,,,13,,,,60,112
258732,control_change,0,0,14,,,,,,,,,13,11,92,,,
258732,control_change,24,0,9,,,,,,,,,8,11,92,,,
258733,note_on,1,0,9,,,,,,,,,8,,,,48,0
258733,note_on,0,0,9,,,,,,,,,8,,,,48,110
258734,note_on,0,0,15,,,,,,,,,14,,,,36,112
258734,note_on,60,0,15,,,,,,,,,14,,,,36,0
258735,note_on,60,0,10,,,,,,,,,15,,,,48,0
258735,note_on,0,0,10,,,,,,,,,15,,,,48,87
258745,control_change,23,0,7,,,,,,,,,6,11,93,,,
258745,control_change,24,0,1,,,,,,,,,0,11,83,,,
258748,control_change,24,0,2,,,,,,,,,1,11,83,,,
258749,control_change,24,0,3,,,,,,,,,2,11,83,,,
258750,control_change,23,0,8,,,,,,,,,7,11,93,,,
258752,control_change,24,0,13,,,,,,,,,12,11,93,,,
258753,control_change,24,0,4,,,,,,,,,3,11,93,,,
258756,control_change,23,0,9,,,,,,,,,8,11,93,,,
258756,control_change,24,0,14,,,,,,,,,13,11,93,,,
258769,control_change,24,0,7,,,,,,,,,6,11,94,,,
258769,control_change,24,0,1,,,,,,,,,0,11,83,,,
258772,control_change,24,0,2,,,,,,,,,1,11,83,,,
258773,control_change,24,0,3,,,,,,,,,2,11,83,,,
258774,control_change,24,0,8,,,,,,,,,7,11,94,,,
258776,control_change,24,0,13,,,,,,,,,12,11,94,,,
258777,control_change,24,0,4,,,,,,,,,3,11,94,,,
258780,control_change,24,0,9,,,,,,,,,8,11,94,,,
258780,control_change,24,0,14,,,,,,,,,13,11,94,,,
258788,note_on,12,0,13,,,,,,,,,12,,,,64,0
258792,note_on,12,0,14,,,,,,,,,13,,,,60,0
258793,control_change,24,0,7,,,,,,,,,6,11,95,,,
258793,control_change,24,0,1,,,,,,,,,0,11,84,,,
258796,control_change,24,0,2,,,,,,,,,1,11,84,,,
258797,control_change,24,0,3,,,,,,,,,2,11,84,,,
258798,control_change,24,0,8,,,,,,,,,7,11,95,,,
258800,control_change,12,0,13,,,,,,,,,12,11,95,,,
258801,control_change,24,0,4,,,,,,,,,3,11,95,,,
258804,control_change,12,0,14,,,,,,,,,13,11,95,,,
258804,control_change,24,0,9,,,,,,,,,8,11,95,,,
258817,control_change,24,0,1,,,,,,,,,0,11,85,,,
258817,control_change,24,0,7,,,,,,,,,6,11,96,,,
258820,control_change,24,0,2,,,,,,,,,1,11,85,,,
258821,control_change,24,0,3,,,,,,,,,2,11,85,,,
258822,control_change,24,0,8,,,,,,,,,7,11,96,,,
258824,control_change,24,0,13,,,,,,,,,12,11,96,,,
258825,control_change,24,0,4,,,,,,,,,3,11,96,,,
258828,control_change,24,0,9,,,,,,,,,8,11,96,,,
258828,control_change,24,0,14,,,,,,,,,13,11,96,,,
258836,note_on,0,0,1,,,,,,,,,0,,,,84,0
258836,note_on,19,0,1,,,,,,,,,0,,,,88,0
258839,note_on,19,0,2,,,,,,,,,1,,,,76,0
258839,note_on,0,0,2,,,,,,,,,1,,,,72,0
258840,note_on,0,0,11,,,,,,,,,10,,,,67,93
258840,control_change,120,0,11,,,,,,,,,10,11,97,,,
258840,set_tempo,120,1,0,,,,,,285714,,,,,,,,
258840,note_on,19,0,3,,,,,,,,,2,,,,76,0
258840,note_on,0,0,3,,,,,,,,,2,,,,72,0
258841,note_on,0,0,1,,,,,,,,,0,,,,88,101
258841,note_on,5,0,1,,,,,,,,,0,,,,91,101
258841,control_change,0,0,1,,,,,,,,,0,11,97,,,
258841,control_change,24,0,7,,,,,,,,,6,11,97,,,
258842,note_on,0,0,7,,,,,,,,,6,,,,67,112
258842,note_on,1,0,7,,,,,,,,,6,,,,72,0
258842,note_on,0,0,7,,,,,,,,,6,,,,60,0
258842,note_on,0,0,7,,,,,,,,,6,,,,55,112
258843,control_change,120,0,12,,,,,,,,,11,11,97,,,
258843,note_on,0,0,12,,,,,,,,,11,,,,64,93
258844,note_on,19,0,4,,,,,,,,,3,,,,64,0
258844,note_on,0,0,2,,,,,,,,,1,,,,76,100
258844,control_change,0,0,2,,,,,,,,,1,11,97,,,
258844,note_on,0,0,4,,,,,,,,,3,,,,60,0
258844,note_on,5,0,2,,,,,,,,,1,,,,79,100
258845,note_on,0,0,3,,,,,,,,,2,,,,76,101
258845,note_on,0,0,3,,,,,,,,,2,,,,79,101
258845,control_change,5,0,3,,,,,,,,,2,11,97,,,
258846,control_change,24,0,8,,,,,,,,,7,11,97,,,
258848,note_on,24,0,13,,,,,,,,,12,,,,67,112
258848,control_change,0,0,13,,,,,,,,,12,11,97,,,
258848,note_on,0,0,13,,,,,,,,,12,,,,59,112
258849,control_change,0,0,4,,,,,,,,,3,11,112,,,
258849,note_on,0,0,4,,,,,,,,,3,,,,67,100
258849,note_on,5,0,4,,,,,,,,,3,,,,64,100
258852,note_on,24,0,14,,,,,,,,,13,,,,64,112
258852,control_change,0,0,14,,,,,,,,,13,11,97,,,
258852,control_change,24,0,9,,,,,,,,,8,11,97,,,
258853,note_on,0,0,9,,,,,,,,,8,,,,43,110
258853,note_on,1,0,9,,,,,,,,,8,,,,48,0
258854,note_on,120,0,15,,,,,,,,,14,,,,36,0
258854,note_on,0,0,15,,,,,,,,,14,,,,31,112
258855,note_on,120,0,10,,,,,,,,,15,,,,48,0
258855,note_on,0,0,10,,,,,,,,,15,,,,43,87
258858,control_change,16,0,7,,,,,,,,,6,11,96,,,
258861,control_change,12,0,4,,,,,,,,,3,11,109,,,
258863,control_change,17,0,8,,,,,,,,,7,11,96,,,
258864,control_change,24,0,11,,,,,,,,,10,11,96,,,
258865,control_change,24,0,1,,,,,,,,,0,11,92,,,
258867,control_change,24,0,12,,,,,,,,,11,11,96,,,
258868,control_change,24,0,2,,,,,,,,,1,11,92,,,
258869,control_change,24,0,3,,,,,,,,,2,11,92,,,
258869,control_change,16,0,9,,,,,,,,,8,11,96,,,
258872,control_change,24,0,13,,,,,,,,,12,11,96,,,
258873,control_change,12,0,4,,,,,,,,,3,11,106,,,
258874,control_change,16,0,7,,,,,,,,,6,11,95,,,
258876,control_change,24,0,14,,,,,,,,,13,11,96,,,
258879,control_change,16,0,8,,,,,,,,,7,11,95,,,
258885,control_change,16,0,9,,,,,,,,,8,11,95,,,
258885,control_change,12,0,4,,,,,,,,,3,11,103,,,
258888,control_change,24,0,11,,,,,,,,,10,11,95,,,
258889,control_change,24,0,1,,,,,,,,,0,11,88,,,
258890,control_change,16,0,7,,,,,,,,,6,11,94,,,
258891,control_change,24,0,12,,,,,,,,,11,11,95,,,
258892,control_change,24,0,2,,,,,,,,,1,11,88,,,
258893,control_change,24,0,3,,,,,,,,,2,11,88,,,
258895,control_change,16,0,8,,,,,,,,,7,11,94,,,
258896,control_change,24,0,13,,,,,,,,,12,11,95,,,
258897,control_change,12,0,4,,,,,,,,,3,11,100,,,
258900,note_on,12,0,11,,,,,,,,,10,,,,67,0
258900,control_change,24,0,14,,,,,,,,,13,11,95,,,
258901,control_change,16,0,9,,,,,,,,,8,11,94,,,
258903,note_on,12,0,12,,,,,,,,,11,,,,64,0
258906,control_change,16,0,7,,,,,,,,,6,11,93,,,
258909,control_change,12,0,4,,,,,,,,,3,11,97,,,
258911,control_change,16,0,8,,,,,,,,,7,11,93,,,
258912,control_change,12,0,11,,,,,,,,,10,11,94,,,
258915,control_change,12,0,12,,,,,,,,,11,11,94,,,
258917,control_change,16,0,9,,,,,,,,,8,11,93,,,
258920,control_change,24,0,13,,,,,,,,,12,11,94,,,
258922,control_change,16,0,7,,,,,,,,,6,11,92,,,
258924,control_change,24,0,14,,,,,,,,,13,11,94,,,
258927,control_change,16,0,8,,,,,,,,,7,11,92,,,
258933,control_change,16,0,9,,,,,,,,,8,11,92,,,
258936,control_change,24,0,11,,,,,,,,,10,11,93,,,
258937,control_change,48,0,1,,,,,,,,,0,11,85,,,
258938,control_change,16,0,7,,,,,,,,,6,11,91,,,
258939,control_change,24,0,12,,,,,,,,,11,11,93,,,
258940,control_change,48,0,2,,,,,,,,,1,11,85,,,
258941,control_change,48,0,3,,,,,,,,,2,11,85,,,
258943,control_change,16,0,8,,,,,,,,,7,11,91,,,
258944,control_change,24,0,13,,,,,,,,,12,11,93,,,
258945,control_change,36,0,4,,,,,,,,,3,11,96,,,
258948,control_change,24,0,14,,,,,,,,,13,11,93,,,
258949,control_change,16,0,9,,,,,,,,,8,11,91,,,
258954,control_change,16,0,7,,,,,,,,,6,11,90,,,
258959,control_change,16,0,8,,,,,,,,,7,11,90,,,
258960,set_tempo,120,1,0,,,,,,300000,,,,,,,,
258960,note_on,24,0,11,,,,,,,,,10,,,,71,93
258960,control_change,0,0,11,,,,,,,,,10,11,92,,,
258963,control_change,24,0,12,,,,,,,,,11,11,92,,,
258963,note_on,0,0,12,,,,,,,,,11,,,,67,93
258965,control_change,16,0,9,,,,,,,,,8,11,90,,,
258968,control_change,24,0,13,,,,,,,,,12,11,92,,,
258970,control_change,16,0,7,,,,,,,,,6,11,89,,,
258972,control_change,24,0,14,,,,,,,,,13,11,92,,,
258973,control_change,36,0,1,,,,,,,,,0,11,84,,,
258975,control_change,16,0,8,,,,,,,,,7,11,89,,,
258976,control_change,36,0,2,,,,,,,,,1,11,84,,,
258977,control_change,36,0,3,,,,,,,,,2,11,84,,,
258981,control_change,16,0,9,,,,,,,,,8,11,89,,,
258981,control_change,36,0,4,,,,,,,,,3,11,95,,,
258984,control_change,24,0,11,,,,,,,,,10,11,91,,,
258986,control_change,16,0,7,,,,,,,,,6,11,88,,,
258987,control_change,24,0,12,,,,,,,,,11,11,91,,,
258991,control_change,16,0,8,,,,,,,,,7,11,88,,,
258992,control_change,24,0,13,,,,,,,,,12,11,91,,,
258996,control_change,24,0,14,,,,,,,,,13,11,91,,,
258997,control_change,16,0,9,,,,,,,,,8,11,88,,,
259002,control_change,16,0,7,,,,,,,,,6,11,87,,,
259007,control_change,16,0,8,,,,,,,,,7,11,87,,,
259008,control_change,24,0,11,,,,,,,,,10,11,90,,,
259009,control_change,36,0,1,,,,,,,,,0,11,83,,,
259011,control_change,24,0,12,,,,,,,,,11,11,90,,,
259012,control_change,36,0,2,,,,,,,,,1,11,83,,,
259013,control_change,36,0,3,,,,,,,,,2,11,83,,,
259013,control_change,16,0,9,,,,,,,,,8,11,87,,,
259016,control_change,24,0,13,,,,,,,,,12,11,90,,,
259017,control_change,36,0,4,,,,,,,,,3,11,94,,,
259018,control_change,16,0,7,,,,,,,,,6,11,86,,,
259020,note_on,12,0,11,,,,,,,,,10,,,,71,0
259020,control_change,24,0,14,,,,,,,,,13,11,90,,,
259023,note_on,300,0,5,,,,,,,,,4,,,,67,100
259023,note_on,12,0,12,,,,,,,,,11,,,,67,0
259023,control_change,16,0,8,,,,,,,,,7,11,86,,,
259024,note_on,300,0,6,,,,,,,,,5,,,,55,100
259027,note_on,0,0,8,,,,,,,,,7,,,,64,110
259027,note_on,4,0,8,,,,,,,,,7,,,,59,110
259029,control_change,16,0,9,,,,,,,,,8,11,86,,,
259032,control_change,12,0,11,,,,,,,,,10,11,89,,,
259034,control_change,16,0,7,,,,,,,,,6,11,85,,,
259035,control_change,12,0,12,,,,,,,,,11,11,89,,,
259039,control_change,12,0,8,,,,,,,,,7,11,85,,,
259040,control_change,24,0,13,,,,,,,,,12,11,89,,,
259044,control_change,24,0,14,,,,,,,,,13,11,89,,,
259045,control_change,36,0,1,,,,,,,,,0,11,83,,,
259045,control_change,16,0,9,,,,,,,,,8,11,85,,,
259048,control_change,36,0,2,,,,,,,,,1,11,83,,,
259049,control_change,36,0,3,,,,,,,,,2,11,83,,,
259050,control_change,16,0,7,,,,,,,,,6,11,84,,,
259053,control_change,36,0,4,,,,,,,,,3,11,93,,,
259055,control_change,16,0,8,,,,,,,,,7,11,84,,,
259056,control_change,24,0,11,,,,,,,,,10,11,88,,,
259059,control_change,24,0,12,,,,,,,,,11,11,88,,,
259061,control_change,16,0,9,,,,,,,,,8,11,84,,,
259064,control_change,24,0,13,,,,,,,,,12,11,88,,,
259066,control_change,16,0,7,,,,,,,,,6,11,83,,,
259068,control_change,24,0,14,,,,,,,,,13,11,88,,,
259071,control_change,16,0,8,,,,,,,,,7,11,83,,,
259077,control_change,16,0,9,,,,,,,,,8,11,83,,,
259080,control_change,0,0,11,,,,,,,,,10,11,87,,,
259080,note_on,24,0,11,,,,,,,,,10,,,,76,93
259080,set_tempo,120,1,0,,,,,,330579,,,,,,,,
259081,control_change,36,0,1,,,,,,,,,0,11,82,,,
259082,control_change,16,0,7,,,,,,,,,6,11,82,,,
259083,note_on,0,0,5,,,,,,,,,4,,,,67,100
259083,note_on,60,0,5,,,,,,,,,4,,,,67,0
259083,control_change,24,0,12,,,,,,,,,11,11,87,,,
259083,note_on,0,0,12,,,,,,,,,11,,,,71,93
259084,note_on,60,0,6,,,,,,,,,5,,,,55,0
259084,note_on,0,0,6,,,,,,,,,5,,,,55,100
259084,control_change,36,0,2,,,,,,,,,1,11,82,,,
259085,control_change,36,0,3,,,,,,,,,2,11,82,,,
259087,note_on,16,0,8,,,,,,,,,7,,,,64,0
259087,note_on,0,0,8,,,,,,,,,7,,,,59,110
259087,note_on,0,0,8,,,,,,,,,7,,,,64,110
259087,control_change,0,0,8,,,,,,,,,7,11,82,,,
259087,note_on,0,0,8,,,,,,,,,7,,,,59,0
259088,note_on,24,0,13,,,,,,,,,12,,,,59,0
259088,control_change,0,0,13,,,,,,,,,12,11,87,,,
259088,note_on,0,0,13,,,,,,,,,12,,,,67,0
259089,control_change,36,0,4,,,,,,,,,3,11,92,,,
259092,control_change,0,0,14,,,,,,,,,13,11,87,,,
259092,note_on,24,0,14,,,,,,,,,13,,,,64,0
259093,note_on,16,0,9,,,,,,,,,8,,,,43,0
259093,control_change,0,0,9,,,,,,,,,8,11,82,,,
259094,note_on,240,0,15,,,,,,,,,14,,,,31,0
259095,note_on,240,0,10,,,,,,,,,15,,,,43,0
259104,control_change,24,0,11,,,,,,,,,10,11,87,,,
259107,control_change,24,0,12,,,,,,,,,11,11,87,,,
259112,control_change,24,0,13,,,,,,,,,12,11,87,,,
259116,control_change,24,0,14,,,,,,,,,13,11,87,,,
259117,control_change,36,0,1,,,,,,,,,0,11,81,,,
259120,control_change,36,0,2,,,,,,,,,1,11,81,,,
259121,control_change,36,0,3,,,,,,,,,2,11,81,,,
259125,control_change,36,0,4,,,,,,,,,3,11,91,,,
259128,control_change,24,0,11,,,,,,,,,10,11,86,,,
259131,control_change,24,0,12,,,,,,,,,11,11,86,,,
259136,control_change,24,0,13,,,,,,,,,12,11,86,,,
259140,note_on,12,0,11,,,,,,,,,10,,,,76,0
259140,control_change,24,0,14,,,,,,,,,13,11,86,,,
259143,note_on,12,0,12,,,,,,,,,11,,,,71,0
259152,control_change,12,0,11,,,,,,,,,10,11,85,,,
259153,control_change,36,0,1,,,,,,,,,0,11,80,,,
259155,control_change,12,0,12,,,,,,,,,11,11,85,,,
259156,control_change,36,0,2,,,,,,,,,1,11,80,,,
259157,control_change,36,0,3,,,,,,,,,2,11,80,,,
259160,control_change,24,0,13,,,,,,,,,12,11,85,,,
259161,control_change,36,0,4,,,,,,,,,3,11,90,,,
259164,control_change,24,0,14,,,,,,,,,13,11,85,,,
259176,control_change,24,0,11,,,,,,,,,10,11,84,,,
259179,control_change,24,0,12,,,,,,,,,11,11,84,,,
259184,control_change,24,0,13,,,,,,,,,12,11,84,,,
259188,control_change,24,0,14,,,,,,,,,13,11,84,,,
259189,control_change,36,0,1,,,,,,,,,0,11,80,,,
259192,control_change,36,0,2,,,,,,,,,1,11,80,,,
259193,control_change,36,0,3,,,,,,,,,2,11,80,,,
259197,control_change,36,0,4,,,,,,,,,3,11,89,,,
259200,set_tempo,120,1,0,,,,,,285714,,,,,,,,
259200,note_on,0,0,11,,,,,,,,,10,,,,79,93
259200,note_on,24,0,11,,,,,,,,,10,,,,71,93
259200,control_change,0,0,11,,,,,,,,,10,11,83,,,
259203,note_on,24,0,12,,,,,,,,,11,,,,76,93
259203,control_change,0,0,12,,,,,,,,,11,11,83,,,
259203,note_on,0,0,5,,,,,,,,,4,,,,67,100
259203,note_on,120,0,5,,,,,,,,,4,,,,67,0
259204,note_on,120,0,6,,,,,,,,,5,,,,55,0
259204,note_on,0,0,6,,,,,,,,,5,,,,55,100
259207,note_on,0,0,8,,,,,,,,,7,,,,59,0
259207,note_on,0,0,8,,,,,,,,,7,,,,59,110
259207,note_on,120,0,8,,,,,,,,,7,,,,64,0
259207,note_on,0,0,8,,,,,,,,,7,,,,64,110
259208,note_on,24,0,13,,,,,,,,,12,,,,59,112
259208,control_change,0,0,13,,,,,,,,,12,11,83,,,
259212,control_change,24,0,14,,,,,,,,,13,11,83,,,
259212,note_on,0,0,14,,,,,,,,,13,,,,55,112
259225,control_change,36,0,1,,,,,,,,,0,11,79,,,
259228,control_change,36,0,2,,,,,,,,,1,11,79,,,
259229,control_change,36,0,3,,,,,,,,,2,11,79,,,
259233,control_change,36,0,4,,,,,,,,,3,11,88,,,
259261,control_change,36,0,1,,,,,,,,,0,11,78,,,
259264,control_change,36,0,2,,,,,,,,,1,11,78,,,
259265,control_change,36,0,3,,,,,,,,,2,11,78,,,
259268,note_on,60,0,13,,,,,,,,,12,,,,59,0
259269,control_change,36,0,4,,,,,,,,,3,11,87,,,
259272,note_on,60,0,14,,,,,,,,,13,,,,55,0
259297,control_change,36,0,1,,,,,,,,,0,11,77,,,
259300,control_change,36,0,2,,,,,,,,,1,11,77,,,
259301,control_change,36,0,3,,,,,,,,,2,11,77,,,
259305,control_change,36,0,4,,,,,,,,,3,11,86,,,
259320,set_tempo,120,1,0,,,,,,300000,,,,,,,,
259328,note_on,60,0,13,,,,,,,,,12,,,,64,112
259332,note_on,60,0,14,,,,,,,,,13,,,,59,112
259333,control_change,36,0,1,,,,,,,,,0,11,76,,,
259336,control_change,36,0,2,,,,,,,,,1,11,76,,,
259337,control_change,36,0,3,,,,,,,,,2,11,76,,,
259341,control_change,36,0,4,,,,,,,,,3,11,85,,,
259369,control_change,36,0,1,,,,,,,,,0,11,76,,,
259372,control_change,36,0,2,,,,,,,,,1,11,76,,,
259373,control_change,36,0,3,,,,,,,,,2,11,76,,,
259377,control_change,36,0,4,,,,,,,,,3,11,84,,,
259382,note_on,0,0,7,,,,,,,,,6,,,,67,112
259382,note_on,0,0,7,,,,,,,,,6,,,,55,112
259382,note_on,0,0,7,,,,,,,,,6,,,,67,0
259382,note_on,300,0,7,,,,,,,,,6,,,,55,0
259388,note_on,60,0,13,,,,,,,,,12,,,,64,0
259392,note_on,60,0,14,,,,,,,,,13,,,,59,0
259393,note_on,300,0,9,,,,,,,,,8,,,,43,110
259393,control_change,0,0,9,,,,,,,,,8,11,87,,,
259394,note_on,300,0,15,,,,,,,,,14,,,,31,112
259395,note_on,300,0,10,,,,,,,,,15,,,,43,87
259405,control_change,36,0,1,,,,,,,,,0,11,75,,,
259408,control_change,36,0,2,,,,,,,,,1,11,75,,,
259409,control_change,36,0,3,,,,,,,,,2,11,75,,,
259413,control_change,36,0,4,,,,,,,,,3,11,83,,,
259417,control_change,24,0,9,,,,,,,,,8,11,89,,,
259440,note_on,0,0,11,,,,,,,,,10,,,,71,0
259440,set_tempo,120,1,0,,,,,,330579,,,,,,,,
259440,note_on,240,0,11,,,,,,,,,10,,,,79,0
259441,note_on,0,0,1,,,,,,,,,0,,,,89,101
259441,note_on,0,0,1,,,,,,,,,0,,,,91,0
259441,note_on,36,0,1,,,,,,,,,0,,,,88,0
259441,control_change,24,0,9,,,,,,,,,8,11,91,,,
259441,note_on,0,0,1,,,,,,,,,0,,,,86,101
259441,control_change,0,0,1,,,,,,,,,0,11,74,,,
259442,note_on,0,0,7,,,,,,,,,6,,,,55,112
259442,note_on,0,0,7,,,,,,,,,6,,,,67,112
259442,note_on,60,0,7,,,,,,,,,6,,,,67,0
259442,note_on,0,0,7,,,,,,,,,6,,,,55,0
259443,note_on,240,0,5,,,,,,,,,4,,,,67,0
259443,note_on,0,0,12,,,,,,,,,11,,,,77,93
259443,note_on,240,0,12,,,,,,,,,11,,,,76,0
259443,note_on,0,0,5,,,,,,,,,4,,,,65,100
259444,note_on,0,0,2,,,,,,,,,1,,,,79,0
259444,note_on,36,0,2,,,,,,,,,1,,,,76,0
259444,note_on,0,0,2,,,,,,,,,1,,,,74,100
259444,note_on,0,0,2,,,,,,,,,1,,,,77,100
259444,control_change,0,0,2,,,,,,,,,1,11,74,,,
259445,control_change,0,0,3,,,,,,,,,2,11,74,,,
259445,note_on,0,0,3,,,,,,,,,2,,,,77,101
259445,note_on,0,0,3,,,,,,,,,2,,,,79,0
259445,note_on,0,0,3,,,,,,,,,2,,,,74,101
259445,note_on,36,0,3,,,,,,,,,2,,,,76,0
259447,note_on,0,0,8,,,,,,,,,7,,,,62,110
259447,note_on,240,0,8,,,,,,,,,7,,,,64,0
259448,note_on,60,0,13,,,,,,,,,12,,,,67,112
259449,note_on,36,0,4,,,,,,,,,3,,,,67,0
259449,control_change,0,0,4,,,,,,,,,3,11,82,,,
259449,note_on,0,0,4,,,,,,,,,3,,,,65,100
259449,note_on,0,0,4,,,,,,,,,3,,,,64,0
259449,note_on,0,0,4,,,,,,,,,3,,,,62,100
259452,note_on,60,0,14,,,,,,,,,13,,,,62,112
259453,note_on,0,0,9,,,,,,,,,8,,,,43,110
259453,note_on,12,0,9,,,,,,,,,8,,,,43,0
259454,note_on,60,0,15,,,,,,,,,14,,,,31,0
259454,note_on,0,0,15,,,,,,,,,14,,,,31,112
259455,note_on,0,0,10,,,,,,,,,15,,,,43,87
259455,note_on,60,0,10,,,,,,,,,15,,,,43,0
259508,note_on,60,0,13,,,,,,,,,12,,,,67,0
259512,note_on,60,0,14,,,,,,,,,13,,,,62,0
259560,set_tempo,120,1,0,,,,,,285714,,,,,,,,
259560,note_on,120,0,11,,,,,,,,,10,,,,64,93
259561,note_on,0,0,1,,,,,,,,,0,,,,84,101
259561,note_on,120,0,1,,,,,,,,,0,,,,86,0
259561,note_on,0,0,1,,,,,,,,,0,,,,89,0
259561,note_on,0,0,1,,,,,,,,,0,,,,88,101
259562,note_on,0,0,7,,,,,,,,,6,,,,60,112
259562,note_on,0,0,7,,,,,,,,,6,,,,67,0
259562,note_on,0,0,7,,,,,,,,,6,,,,72,112
259562,note_on,120,0,7,,,,,,,,,6,,,,55,0
259563,note_on,120,0,12,,,,,,,,,11,,,,77,0
259563,note_on,120,0,5,,,,,,,,,4,,,,65,0
259563,note_on,0,0,12,,,,,,,,,11,,,,60,93
259564,note_on,0,0,2,,,,,,,,,1,,,,72,100
259564,note_on,0,0,2,,,,,,,,,1,,,,74,0
259564,note_on,360,0,6,,,,,,,,,5,,,,55,0
259564,note_on,0,0,2,,,,,,,,,1,,,,76,100
259564,note_on,120,0,2,,,,,,,,,1,,,,77,0
259565,note_on,0,0,3,,,,,,,,,2,,,,76,101
259565,note_on,0,0,3,,,,,,,,,2,,,,72,101
259565,note_on,0,0,3,,,,,,,,,2,,,,77,0
259565,note_on,120,0,3,,,,,,,,,2,,,,74,0
259567,note_on,120,0,8,,,,,,,,,7,,,,62,0
259567,note_on,0,0,8,,,,,,,,,7,,,,59,0
259568,note_on,0,0,13,,,,,,,,,12,,,,64,112
259568,note_on,60,0,13,,,,,,,,,12,,,,55,112
259569,note_on,0,0,4,,,,,,,,,3,,,,62,0
259569,note_on,0,0,4,,,,,,,,,3,,,,60,100
259569,note_on,120,0,4,,,,,,,,,3,,,,65,0
259569,note_on,0,0,4,,,,,,,,,3,,,,64,100
259572,note_on,60,0,14,,,,,,,,,13,,,,60,112
259573,note_on,120,0,9,,,,,,,,,8,,,,43,0
259573,note_on,0,0,9,,,,,,,,,8,,,,48,110
259573,control_change,0,0,9,,,,,,,,,8,11,92,,,
259574,note_on,0,0,15,,,,,,,,,14,,,,36,112
259574,note_on,120,0,15,,,,,,,,,14,,,,31,0
259575,note_on,0,0,10,,,,,,,,,15,,,,48,87
259575,note_on,120,0,10,,,,,,,,,15,,,,43,0
259620,note_on,60,0,11,,,,,,,,,10,,,,64,0
259621,control_change,48,0,9,,,,,,,,,8,11,91,,,
259623,note_on,60,0,12,,,,,,,,,11,,,,60,0
259669,control_change,48,0,9,,,,,,,,,8,11,90,,,
259680,note_on,60,0,11,,,,,,,,,10,,,,67,93
259680,set_tempo,120,1,0,,,,,,300000,,,,,,,,
259683,note_on,60,0,12,,,,,,,,,11,,,,64,93
259717,control_change,48,0,9,,,,,,,,,8,11,89,,,
259740,note_on,60,0,11,,,,,,,,,10,,,,67,0
259743,note_on,60,0,12,,,,,,,,,11,,,,64,0
259743,note_on,180,0,5,,,,,,,,,4,,,,64,100
259744,note_on,180,0,6,,,,,,,,,5,,,,48,100
259747,note_on,0,0,8,,,,,,,,,7,,,,55,110
259747,note_on,180,0,8,,,,,,,,,7,,,,60,110
259765,control_change,48,0,9,,,,,,,,,8,11,88,,,
259800,set_tempo,120,1,0,,,,,,330579,,,,,,,,
259800,note_on,60,0,11,,,,,,,,,10,,,,72,93
259803,note_on,60,0,5,,,,,,,,,4,,,,64,0
259803,note_on,60,0,12,,,,,,,,,11,,,,67,93
259803,note_on,0,0,5,,,,,,,,,4,,,,64,100
259804,note_on,60,0,6,,,,,,,,,5,,,,48,0
259804,note_on,0,0,6,,,,,,,,,5,,,,48,100
259807,note_on,60,0,8,,,,,,,,,7,,,,55,0
259807,note_on,0,0,8,,,,,,,,,7,,,,60,0
259807,note_on,0,0,8,,,,,,,,,7,,,,55,110
259807,note_on,0,0,8,,,,,,,,,7,,,,60,110
259808,note_on,0,0,13,,,,,,,,,12,,,,55,0
259808,note_on,240,0,13,,,,,,,,,12,,,,64,0
259812,note_on,240,0,14,,,,,,,,,13,,,,60,0
259813,control_change,0,0,9,,,,,,,,,8,11,87,,,
259813,note_on,48,0,9,,,,,,,,,8,,,,48,0
259814,note_on,240,0,15,,,,,,,,,14,,,,36,0
259815,note_on,240,0,10,,,,,,,,,15,,,,48,0
259860,note_on,60,0,11,,,,,,,,,10,,,,72,0
259863,note_on,60,0,12,,,,,,,,,11,,,,67,0
259920,set_tempo,120,1,0,,,,,,285714,,,,,,,,
259920,note_on,0,0,11,,,,,,,,,10,,,,76,93
259920,note_on,60,0,11,,,,,,,,,10,,,,67,93
259923,note_on,0,0,5,,,,,,,,,4,,,,64,100
259923,note_on,120,0,5,,,,,,,,,4,,,,64,0
259923,note_on,0,0,12,,,,,,,,,11,,,,64,93
259923,note_on,60,0,12,,,,,,,,,11,,,,72,93
259924,note_on,0,0,6,,,,,,,,,5,,,,48,100
259924,note_on,120,0,6,,,,,,,,,5,,,,48,0
259927,note_on,0,0,8,,,,,,,,,7,,,,60,110
259927,note_on,0,0,8,,,,,,,,,7,,,,55,110
259927,note_on,0,0,8,,,,,,,,,7,,,,55,0
259927,note_on,120,0,8,,,,,,,,,7,,,,60,0
259928,note_on,120,0,13,,,,,,,,,12,,,,52,112
259932,note_on,120,0,14,,,,,,,,,13,,,,48,112
259988,note_on,60,0,13,,,,,,,,,12,,,,52,0
259992,note_on,60,0,14,,,,,,,,,13,,,,48,0
260040,set_tempo,120,1,0,,,,,,315789,,,,,,,,
260041,note_on,480,0,1,,,,,,,,,0,,,,84,0
260041,note_on,0,0,1,,,,,,,,,0,,,,88,0
260042,note_on,480,0,7,,,,,,,,,6,,,,72,0
260042,note_on,0,0,7,,,,,,,,,6,,,,60,0
260044,note_on,480,0,2,,,,,,,,,1,,,,72,0
260044,note_on,0,0,2,,,,,,,,,1,,,,76,0
260045,note_on,0,0,3,,,,,,,,,2,,,,72,0
260045,note_on,480,0,3,,,,,,,,,2,,,,76,0
260048,note_on,60,0,13,,,,,,,,,12,,,,55,112
260049,note_on,0,0,4,,,,,,,,,3,,,,64,0
260049,note_on,480,0,4,,,,,,,,,3,,,,60,0
260052,note_on,60,0,14,,,,,,,,,13,,,,52,112
260108,note_on,60,0,13,,,,,,,,,12,,,,55,0
260112,note_on,60,0,14,,,,,,,,,13,,,,52,0
260114,control_change,0,0,15,,,,,,,,,14,11,83,,,
260114,note_on,300,0,15,,,,,,,,,14,,,,36,112
260138,control_change,24,0,15,,,,,,,,,14,11,81,,,
260160,note_on,0,0,11,,,,,,,,,10,,,,67,0
260160,note_on,240,0,11,,,,,,,,,10,,,,76,0
260160,set_tempo,120,1,0,,,,,,375000,,,,,,,,
260162,control_change,24,0,15,,,,,,,,,14,11,79,,,
260163,note_on,240,0,5,,,,,,,,,4,,,,64,0
260163,note_on,240,0,12,,,,,,,,,11,,,,64,0
260163,note_on,0,0,12,,,,,,,,,11,,,,72,0
260164,note_on,240,0,6,,,,,,,,,5,,,,48,0
260164,note_on,0,0,2,,,,,,,,,1,,,,64,100
260164,control_change,120,0,2,,,,,,,,,1,11,47,,,
260167,note_on,0,0,8,,,,,,,,,7,,,,55,0
260167,note_on,240,0,8,,,,,,,,,7,,,,60,0
260168,note_on,60,0,13,,,,,,,,,12,,,,60,112
260169,control_change,0,0,4,,,,,,,,,3,11,47,,,
260169,note_on,120,0,4,,,,,,,,,3,,,,52,100
260172,note_on,60,0,14,,,,,,,,,13,,,,55,112
260174,note_on,12,0,15,,,,,,,,,14,,,,36,0
260174,note_on,0,0,15,,,,,,,,,14,,,,36,112
260186,control_change,12,0,15,,,,,,,,,14,11,77,,,
260210,control_change,24,0,15,,,,,,,,,14,11,75,,,
260228,note_on,60,0,13,,,,,,,,,12,,,,60,0
260232,note_on,60,0,14,,,,,,,,,13,,,,55,0
260234,control_change,24,0,15,,,,,,,,,14,11,73,,,
260258,control_change,24,0,15,,,,,,,,,14,11,72,,,
260280,note_on,120,0,11,,,,,,,,,10,,,,69,93
260280,control_change,0,0,11,,,,,,,,,10,11,41,,,
260280,set_tempo,120,1,0,,,,,,289855,,,,,,,,
260282,control_change,24,0,15,,,,,,,,,14,11,70,,,
260283,control_change,120,0,5,,,,,,,,,4,11,47,,,
260283,control_change,0,0,12,,,,,,,,,11,11,41,,,
260283,note_on,120,0,12,,,,,,,,,11,,,,64,93
260283,note_on,0,0,5,,,,,,,,,4,,,,64,100
260284,note_on,120,0,2,,,,,,,,,1,,,,64,0
260284,note_on,0,0,2,,,,,,,,,1,,,,72,100
260284,note_on,0,0,2,,,,,,,,,1,,,,76,100
260288,note_on,0,0,13,,,,,,,,,12,,,,64,112
260288,control_change,60,0,13,,,,,,,,,12,11,41,,,
260289,note_on,0,0,4,,,,,,,,,3,,,,60,115
260289,note_on,120,0,4,,,,,,,,,3,,,,52,0
260289,note_on,0,0,4,,,,,,,,,3,,,,64,115
260292,note_on,0,0,14,,,,,,,,,13,,,,60,112
260292,control_change,60,0,14,,,,,,,,,13,11,41,,,
260293,control_change,0,0,9,,,,,,,,,8,11,47,,,
260293,note_on,480,0,9,,,,,,,,,8,,,,48,110
260294,note_on,12,0,15,,,,,,,,,14,,,,36,0
260294,note_on,0,0,15,,,,,,,,,14,,,,36,112
260306,control_change,12,0,15,,,,,,,,,14,11,68,,,
260330,control_change,24,0,15,,,,,,,,,14,11,66,,,
260340,note_on,60,0,11,,,,,,,,,10,,,,69,0
260343,note_on,60,0,12,,,,,,,,,11,,,,64,0
260354,control_change,24,0,15,,,,,,,,,14,11,64,,,
260378,control_change,24,0,15,,,,,,,,,14,11,62,,,
260400,note_on,60,0,11,,,,,,,,,10,,,,72,93
260400,set_tempo,120,1,0,,,,,,307692,,,,,,,,
260402,control_change,24,0,15,,,,,,,,,14,11,60,,,
260403,note_on,60,0,12,,,,,,,,,11,,,,69,93
260426,control_change,24,0,15,,,,,,,,,14,11,58,,,
260450,control_change,24,0,15,,,,,,,,,14,11,57,,,
260460,note_on,60,0,11,,,,,,,,,10,,,,72,0
260463,note_on,60,0,12,,,,,,,,,11,,,,69,0
260474,note_on,0,0,15,,,,,,,,,14,,,,36,112
260474,note_on,24,0,15,,,,,,,,,14,,,,36,0
260474,control_change,0,0,15,,,,,,,,,14,11,55,,,
260498,control_change,24,0,15,,,,,,,,,14,11,53,,,
260520,set_tempo,120,1,0,,,,,,334262,,,,,,,,
260520,note_on,60,0,11,,,,,,,,,10,,,,76,93
260522,control_change,24,0,15,,,,,,,,,14,11,51,,,
260523,note_on,60,0,12,,,,,,,,,11,,,,72,93
260528,note_on,240,0,13,,,,,,,,,12,,,,64,0
260532,note_on,240,0,14,,,,,,,,,13,,,,60,0
260533,note_on,240,0,9,,,,,,,,,8,,,,48,0
260534,note_on,12,0,15,,,,,,,,,14,,,,36,0
260534,note_on,0,0,15,,,,,,,,,14,,,,36,112
260546,control_change,12,0,15,,,,,,,,,14,11,49,,,
260570,control_change,24,0,15,,,,,,,,,14,11,47,,,
260580,note_on,60,0,11,,,,,,,,,10,,,,76,0
260583,note_on,60,0,12,,,,,,,,,11,,,,72,0
260594,control_change,24,0,15,,,,,,,,,14,11,45,,,
260618,control_change,24,0,15,,,,,,,,,14,11,43,,,
260640,note_on,60,0,11,,,,,,,,,10,,,,74,93
260640,set_tempo,120,1,0,,,,,,294840,,,,,,,,
260642,control_change,24,0,15,,,,,,,,,14,11,42,,,
260643,note_on,360,0,5,,,,,,,,,4,,,,64,0
260643,note_on,60,0,12,,,,,,,,,11,,,,71,93
260643,note_on,0,0,5,,,,,,,,,4,,,,65,100
260648,note_on,120,0,13,,,,,,,,,12,,,,53,112
260652,note_on,120,0,14,,,,,,,,,13,,,,50,112
260653,note_on,120,0,9,,,,,,,,,8,,,,50,110
260654,note_on,12,0,15,,,,,,,,,14,,,,36,0
260654,note_on,0,0,15,,,,,,,,,14,,,,38,112
260708,note_on,60,0,13,,,,,,,,,12,,,,53,0
260712,note_on,60,0,14,,,,,,,,,13,,,,50,0
260760,set_tempo,120,1,0,,,,,,307692,,,,,,,,
260768,note_on,60,0,13,,,,,,,,,12,,,,59,112
260772,note_on,60,0,14,,,,,,,,,13,,,,53,112
260824,note_on,0,0,2,,,,,,,,,1,,,,72,0
260824,note_on,0,0,2,,,,,,,,,1,,,,74,100
260824,note_on,540,0,2,,,,,,,,,1,,,,76,0
260824,note_on,0,0,2,,,,,,,,,1,,,,71,100
260828,note_on,60,0,13,,,,,,,,,12,,,,59,0
260829,note_on,0,0,4,,,,,,,,,3,,,,62,100
260829,note_on,540,0,4,,,,,,,,,3,,,,64,0
260829,note_on,0,0,4,,,,,,,,,3,,,,59,100
260829,note_on,0,0,4,,,,,,,,,3,,,,60,0
260832,note_on,60,0,14,,,,,,,,,13,,,,53,0
260880,note_on,240,0,11,,,,,,,,,10,,,,74,0
260880,set_tempo,120,1,0,,,,,,337079,,,,,,,,
260882,note_on,0,0,2,,,,,,,,,1,,,,71,0
260882,note_on,58,0,2,,,,,,,,,1,,,,74,0
260883,note_on,240,0,12,,,,,,,,,11,,,,71,0
260884,note_on,0,0,2,,,,,,,,,1,,,,74,100
260884,note_on,2,0,2,,,,,,,,,1,,,,71,100
260887,note_on,58,0,4,,,,,,,,,3,,,,62,0
260887,note_on,0,0,4,,,,,,,,,3,,,,59,0
260888,note_on,60,0,13,,,,,,,,,12,,,,62,112
260889,note_on,2,0,4,,,,,,,,,3,,,,59,100
260889,note_on,0,0,4,,,,,,,,,3,,,,62,100
260892,note_on,60,0,14,,,,,,,,,13,,,,59,112
260893,note_on,240,0,9,,,,,,,,,8,,,,50,0
260894,note_on,240,0,15,,,,,,,,,14,,,,38,0
260948,note_on,60,0,13,,,,,,,,,12,,,,62,0
260952,note_on,60,0,14,,,,,,,,,13,,,,59,0
261000,set_tempo,120,1,0,,,,,,300000,,,,,,,,
261003,note_on,360,0,5,,,,,,,,,4,,,,65,0
261003,note_on,0,0,5,,,,,,,,,4,,,,64,100
261004,note_on,0,0,2,,,,,,,,,1,,,,68,100
261004,note_on,0,0,2,,,,,,,,,1,,,,71,100
261004,note_on,0,0,2,,,,,,,,,1,,,,71,0
261004,note_on,120,0,2,,,,,,,,,1,,,,74,0
261008,note_on,60,0,13,,,,,,,,,12,,,,59,112
261009,note_on,0,0,4,,,,,,,,,3,,,,59,100
261009,note_on,0,0,4,,,,,,,,,3,,,,56,100
261009,note_on,0,0,4,,,,,,,,,3,,,,59,0
261009,note_on,120,0,4,,,,,,,,,3,,,,62,0
261012,note_on,60,0,14,,,,,,,,,13,,,,52,112
261013,note_on,120,0,9,,,,,,,,,8,,,,52,110
261014,note_on,120,0,15,,,,,,,,,14,,,,40,112
261120,set_tempo,120,1,0,,,,,,315789,,,,,,,,
261120,note_on,0,0,11,,,,,,,,,10,,,,64,93
261120,control_change,240,0,11,,,,,,,,,10,11,36,,,
261121,note_on,1080,0,1,,,,,,,,,0,,,,76,101
261121,control_change,0,0,1,,,,,,,,,0,11,42,,,
261123,note_on,120,0,5,,,,,,,,,4,,,,64,0
261123,control_change,240,0,12,,,,,,,,,11,11,36,,,
261123,note_on,0,0,12,,,,,,,,,11,,,,59,93
261125,note_on,0,0,3,,,,,,,,,2,,,,64,101
261125,control_change,1080,0,3,,,,,,,,,2,11,42,,,
261180,note_on,60,0,11,,,,,,,,,10,,,,64,0
261183,note_on,60,0,12,,,,,,,,,11,,,,59,0
261221,note_on,100,0,1,,,,,,,,,0,,,,76,0
261225,note_on,100,0,3,,,,,,,,,2,,,,64,0
261240,set_tempo,120,1,0,,,,,,341880,,,,,,,,
261240,note_on,60,0,11,,,,,,,,,10,,,,68,93
261241,note_on,20,0,1,,,,,,,,,0,,,,76,101
261243,note_on,60,0,12,,,,,,,,,11,,,,64,93
261244,note_on,0,0,2,,,,,,,,,1,,,,71,0
261244,note_on,240,0,2,,,,,,,,,1,,,,68,0
261245,note_on,20,0,3,,,,,,,,,2,,,,64,101
261248,note_on,240,0,13,,,,,,,,,12,,,,59,0
261249,note_on,240,0,4,,,,,,,,,3,,,,59,0
261249,note_on,0,0,4,,,,,,,,,3,,,,56,0
261252,note_on,240,0,14,,,,,,,,,13,,,,52,0
261253,note_on,240,0,9,,,,,,,,,8,,,,52,0
261254,note_on,240,0,15,,,,,,,,,14,,,,40,0
261254,note_on,0,0,15,,,,,,,,,14,,,,40,112
261300,note_on,60,0,11,,,,,,,,,10,,,,68,0
261303,note_on,60,0,12,,,,,,,,,11,,,,64,0
261341,note_on,100,0,1,,,,,,,,,0,,,,76,0
261345,note_on,100,0,3,,,,,,,,,2,,,,64,0
261360,note_on,60,0,11,,,,,,,,,10,,,,71,93
261360,set_tempo,120,1,0,,,,,,300000,,,,,,,,
261361,note_on,20,0,1,,,,,,,,,0,,,,76,101
261363,note_on,60,0,12,,,,,,,,,11,,,,68,93
261365,note_on,20,0,3,,,,,,,,,2,,,,64,101
261368,note_on,120,0,13,,,,,,,,,12,,,,52,112
261368,control_change,0,0,13,,,,,,,,,12,11,36,,,
261372,note_on,120,0,14,,,,,,,,,13,,,,47,112
261372,control_change,0,0,14,,,,,,,,,13,11,36,,,
261428,note_on,60,0,13,,,,,,,,,12,,,,52,0
261432,note_on,60,0,14,,,,,,,,,13,,,,47,0
261461,note_on,100,0,1,,,,,,,,,0,,,,76,0
261465,note_on,100,0,3,,,,,,,,,2,,,,64,0
261480,set_tempo,120,1,0,,,,,,326975,,,,,,,,
261481,note_on,20,0,1,,,,,,,,,0,,,,76,101
261485,note_on,20,0,3,,,,,,,,,2,,,,64,101
261488,note_on,60,0,13,,,,,,,,,12,,,,56,112
261492,note_on,60,0,14,,,,,,,,,13,,,,52,112
261494,note_on,0,0,15,,,,,,,,,14,,,,39,112
261494,note_on,240,0,15,,,,,,,,,14,,,,40,0
261548,note_on,60,0,13,,,,,,,,,12,,,,56,0
261552,note_on,60,0,14,,,,,,,,,13,,,,52,0
261581,note_on,100,0,1,,,,,,,,,0,,,,76,0
261585,note_on,100,0,3,,,,,,,,,2,,,,64,0
261600,set_tempo,120,1,0,,,,,,352941,,,,,,,,
261600,note_on,240,0,11,,,,,,,,,10,,,,71,0
261601,note_on,20,0,1,,,,,,,,,0,,,,76,101
261603,note_on,240,0,12,,,,,,,,,11,,,,68,0
261604,note_on,360,0,2,,,,,,,,,1,,,,64,100
261605,note_on,20,0,3,,,,,,,,,2,,,,64,101
261608,note_on,60,0,13,,,,,,,,,12,,,,59,112
261612,note_on,60,0,14,,,,,,,,,13,,,,56,112
261614,note_on,120,0,15,,,,,,,,,14,,,,39,0
261614,note_on,0,0,15,,,,,,,,,14,,,,38,112
261668,note_on,60,0,13,,,,,,,,,12,,,,59,0
261672,note_on,60,0,14,,,,,,,,,13,,,,56,0
261701,note_on,100,0,1,,,,,,,,,0,,,,76,0
261705,note_on,100,0,3,,,,,,,,,2,,,,64,0
261720,set_tempo,120,1,0,,,,,,300000,,,,,,,,
261720,note_on,120,0,11,,,,,,,,,10,,,,69,93
261721,note_on,20,0,1,,,,,,,,,0,,,,84,116
261721,note_on,0,0,1,,,,,,,,,0,,,,88,116
261723,note_on,120,0,12,,,,,,,,,11,,,,64,93
261723,note_on,600,0,5,,,,,,,,,4,,,,64,100
261724,note_on,0,0,2,,,,,,,,,1,,,,72,115
261724,note_on,0,0,2,,,,,,,,,1,,,,76,115
261724,note_on,120,0,2,,,,,,,,,1,,,,64,0
261728,note_on,60,0,13,,,,,,,,,12,,,,64,112
261732,note_on,60,0,14,,,,,,,,,13,,,,57,112
261734,note_on,0,0,15,,,,,,,,,14,,,,36,112
261734,note_on,120,0,15,,,,,,,,,14,,,,38,0
261780,note_on,60,0,11,,,,,,,,,10,,,,69,0
261783,note_on,60,0,12,,,,,,,,,11,,,,64,0
261840,note_on,60,0,11,,,,,,,,,10,,,,72,93
261840,set_tempo,120,1,0,,,,,,315789,,,,,,,,
261843,note_on,60,0,12,,,,,,,,,11,,,,69,93
261900,note_on,60,0,11,,,,,,,,,10,,,,72,0
261903,note_on,60,0,12,,,,,,,,,11,,,,69,0
261914,note_on,180,0,15,,,,,,,,,14,,,,36,0
261914,note_on,0,0,15,,,,,,,,,14,,,,36,112
261960,note_on,60,0,11,,,,,,,,,10,,,,76,93
261960,set_tempo,120,1,0,,,,,,352941,,,,,,,,
261963,note_on,60,0,12,,,,,,,,,11,,,,72,93
261968,note_on,240,0,13,,,,,,,,,12,,,,64,0
261972,note_on,240,0,14,,,,,,,,,13,,,,57,0
261974,note_on,0,0,15,,,,,,,,,14,,,,36,112
261974,note_on,60,0,15,,,,,,,,,14,,,,36,0
262020,note_on,60,0,11,,,,,,,,,10,,,,76,0
262023,note_on,60,0,12,,,,,,,,,11,,,,72,0
262080,set_tempo,120,1,0,,,,,,300000,,,,,,,,
262080,note_on,60,0,11,,,,,,,,,10,,,,74,93
262083,note_on,60,0,12,,,,,,,,,11,,,,71,93
262083,note_on,0,0,5,,,,,,,,,4,,,,65,115
262083,note_on,360,0,5,,,,,,,,,4,,,,64,0
262088,note_on,120,0,13,,,,,,,,,12,,,,53,112
262092,note_on,120,0,14,,,,,,,,,13,,,,50,112
262094,note_on,120,0,15,,,,,,,,,14,,,,36,0
262094,note_on,0,0,15,,,,,,,,,14,,,,38,112
262148,note_on,60,0,13,,,,,,,,,12,,,,53,0
262152,note_on,60,0,14,,,,,,,,,13,,,,50,0
262200,set_tempo,120,1,0,,,,,,315789,,,,,,,,
262208,note_on,60,0,13,,,,,,,,,12,,,,59,112
262212,note_on,60,0,14,,,,,,,,,13,,,,53,112
262261,note_on,540,0,1,,,,,,,,,0,,,,88,0
262261,note_on,0,0,1,,,,,,,,,0,,,,83,101
262261,note_on,0,0,1,,,,,,,,,0,,,,86,101
262261,note_on,0,0,1,,,,,,,,,0,,,,84,0
262264,note_on,0,0,2,,,,,,,,,1,,,,74,100
262264,note_on,540,0,2,,,,,,,,,1,,,,72,0
262264,note_on,0,0,2,,,,,,,,,1,,,,76,0
262264,note_on,0,0,2,,,,,,,,,1,,,,71,100
262268,note_on,60,0,13,,,,,,,,,12,,,,59,0
262272,note_on,60,0,14,,,,,,,,,13,,,,53,0
262319,note_on,0,0,1,,,,,,,,,0,,,,83,0
262319,note_on,58,0,1,,,,,,,,,0,,,,86,0
262320,note_on,240,0,11,,,,,,,,,10,,,,74,0
262320,set_tempo,120,1,0,,,,,,352941,,,,,,,,
262321,note_on,0,0,1,,,,,,,,,0,,,,83,101
262321,note_on,2,0,1,,,,,,,,,0,,,,86,101
262322,note_on,58,0,2,,,,,,,,,1,,,,74,0
262322,note_on,0,0,2,,,,,,,,,1,,,,71,0
262323,note_on,240,0,12,,,,,,,,,11,,,,71,0
262324,note_on,2,0,2,,,,,,,,,1,,,,71,100
262324,note_on,0,0,2,,,,,,,,,1,,,,74,100
262328,note_on,60,0,13,,,,,,,,,12,,,,62,112
262332,note_on,60,0,14,,,,,,,,,13,,,,59,112
262334,note_on,240,0,15,,,,,,,,,14,,,,38,0
262388,note_on,60,0,13,,,,,,,,,12,,,,62,0
262392,note_on,60,0,14,,,,,,,,,13,,,,59,0
262440,set_tempo,120,1,0,,,,,,300000,,,,,,,,
262441,note_on,0,0,1,,,,,,,,,0,,,,80,101
262441,note_on,0,0,1,,,,,,,,,0,,,,83,101
262441,note_on,0,0,1,,,,,,,,,0,,,,86,0
262441,note_on,120,0,1,,,,,,,,,0,,,,83,0
262443,note_on,360,0,5,,,,,,,,,4,,,,65,0
262443,note_on,0,0,5,,,,,,,,,4,,,,64,100
262444,note_on,0,0,2,,,,,,,,,1,,,,68,100
262444,note_on,0,0,2,,,,,,,,,1,,,,71,0
262444,note_on,120,0,2,,,,,,,,,1,,,,74,0
262444,note_on,0,0,2,,,,,,,,,1,,,,71,100
262448,note_on,60,0,13,,,,,,,,,12,,,,59,112
262452,note_on,60,0,14,,,,,,,,,13,,,,52,112
262454,note_on,120,0,15,,,,,,,,,14,,,,40,112
262560,note_on,240,0,11,,,,,,,,,10,,,,64,93
262560,set_tempo,120,1,0,,,,,,315789,,,,,,,,
262563,note_on,120,0,5,,,,,,,,,4,,,,64,0
262563,note_on,240,0,12,,,,,,,,,11,,,,59,93
262563,note_on,0,0,5,,,,,,,,,4,,,,64,100
262563,control_change,0,0,5,,,,,,,,,4,11,47,,,
262564,note_on,2400,0,6,,,,,,,,,5,,,,52,100
262564,control_change,0,0,6,,,,,,,,,5,11,47,,,
262580,control_change,17,0,5,,,,,,,,,4,11,48,,,
262581,control_change,17,0,6,,,,,,,,,5,11,48,,,
262597,control_change,17,0,5,,,,,,,,,4,11,49,,,
262598,control_change,17,0,6,,,,,,,,,5,11,49,,,
262614,control_change,17,0,5,,,,,,,,,4,11,50,,,
262615,control_change,17,0,6,,,,,,,,,5,11,50,,,
262620,note_on,60,0,11,,,,,,,,,10,,,,64,0
262623,note_on,60,0,12,,,,,,,,,11,,,,59,0
262631,control_change,17,0,5,,,,,,,,,4,11,51,,,
262632,control_change,17,0,6,,,,,,,,,5,11,51,,,
262648,control_change,17,0,5,,,,,,,,,4,11,52,,,
262649,control_change,17,0,6,,,,,,,,,5,11,52,,,
262665,control_change,17,0,5,,,,,,,,,4,11,53,,,
262666,control_change,17,0,6,,,,,,,,,5,11,53,,,
262680,set_tempo,120,1,0,,,,,,338983,,,,,,,,
262680,note_on,60,0,11,,,,,,,,,10,,,,68,93
262681,note_on,0,0,1,,,,,,,,,0,,,,83,0
262681,note_on,240,0,1,,,,,,,,,0,,,,80,0
262683,note_on,60,0,12,,,,,,,,,11,,,,64,93
262683,note_on,18,0,5,,,,,,,,,4,,,,64,0
262683,control_change,0,0,5,,,,,,,,,4,11,54,,,
262683,note_on,0,0,5,,,,,,,,,4,,,,64,100
262684,note_on,0,0,6,,,,,,,,,5,,,,52,100
262684,note_on,0,0,2,,,,,,,,,1,,,,68,0
262684,note_on,18,0,6,,,,,,,,,5,,,,52,0
262684,control_change,0,0,6,,,,,,,,,5,11,54,,,
262684,note_on,240,0,2,,,,,,,,,1,,,,71,0
262688,note_on,240,0,13,,,,,,,,,12,,,,59,0
262692,note_on,240,0,14,,,,,,,,,13,,,,52,0
262694,note_on,0,0,15,,,,,,,,,14,,,,39,112
262694,control_change,0,0,15,,,,,,,,,14,11,36,,,
262694,note_on,240,0,15,,,,,,,,,14,,,,40,0
262700,control_change,17,0,5,,,,,,,,,4,11,55,,,
262701,control_change,17,0,6,,,,,,,,,5,11,55,,,
262713,control_change,19,0,15,,,,,,,,,14,11,38,,,
262717,control_change,17,0,5,,,,,,,,,4,11,56,,,
262718,control_change,17,0,6,,,,,,,,,5,11,56,,,
262732,control_change,19,0,15,,,,,,,,,14,11,40,,,
262734,control_change,17,0,5,,,,,,,,,4,11,57,,,
262735,control_change,17,0,6,,,,,,,,,5,11,57,,,
262740,note_on,60,0,11,,,,,,,,,10,,,,68,0
262743,note_on,60,0,12,,,,,,,,,11,,,,64,0
262751,control_change,19,0,15,,,,,,,,,14,11,42,,,
262751,control_change,17,0,5,,,,,,,,,4,11,58,,,
262752,control_change,17,0,6,,,,,,,,,5,11,58,,,
262768,control_change,17,0,5,,,,,,,,,4,11,59,,,
262769,control_change,17,0,6,,,,,,,,,5,11,59,,,
262770,control_change,19,0,15,,,,,,,,,14,11,43,,,
262785,control_change,17,0,5,,,,,,,,,4,11,60,,,
262786,control_change,17,0,6,,,,,,,,,5,11,60,,,
262790,control_change,20,0,15,,,,,,,,,14,11,45,,,
262800,note_on,60,0,11,,,,,,,,,10,,,,71,93
262800,set_tempo,120,1,0,,,,,,306122,,,,,,,,
262803,note_on,0,0,5,,,,,,,,,4,,,,64,100
262803,note_on,18,0,5,,,,,,,,,4,,,,64,0
262803,control_change,0,0,5,,,,,,,,,4,11,61,,,
262803,note_on,60,0,12,,,,,,,,,11,,,,68,93
262804,note_on,0,0,6,,,,,,,,,5,,,,52,100
262804,control_change,0,0,6,,,,,,,,,5,11,61,,,
262804,note_on,18,0,6,,,,,,,,,5,,,,52,0
262809,control_change,19,0,15,,,,,,,,,14,11,47,,,
262814,note_on,5,0,15,,,,,,,,,14,,,,39,0
262814,note_on,0,0,15,,,,,,,,,14,,,,38,112
262820,control_change,17,0,5,,,,,,,,,4,11,62,,,
262821,control_change,17,0,6,,,,,,,,,5,11,62,,,
262828,control_change,14,0,15,,,,,,,,,14,11,49,,,
262837,control_change,17,0,5,,,,,,,,,4,11,63,,,
262838,control_change,17,0,6,,,,,,,,,5,11,63,,,
262847,control_change,19,0,15,,,,,,,,,14,11,51,,,
262854,control_change,17,0,5,,,,,,,,,4,11,64,,,
262855,control_change,17,0,6,,,,,,,,,5,11,64,,,
262860,note_on,60,0,11,,,,,,,,,10,,,,71,0
262863,note_on,60,0,12,,,,,,,,,11,,,,68,0
262866,control_change,19,0,15,,,,,,,,,14,11,53,,,
262871,control_change,17,0,5,,,,,,,,,4,11,65,,,
262872,control_change,17,0,6,,,,,,,,,5,11,65,,,
262886,control_change,20,0,15,,,,,,,,,14,11,55,,,
262888,control_change,17,0,5,,,,,,,,,4,11,66,,,
262889,control_change,17,0,6,,,,,,,,,5,11,66,,,
262905,control_change,17,0,5,,,,,,,,,4,11,67,,,
262905,control_change,19,0,15,,,,,,,,,14,11,57,,,
262906,control_change,17,0,6,,,,,,,,,5,11,67,,,
262920,set_tempo,120,1,0,,,,,,328767,,,,,,,,
262920,note_on,60,0,11,,,,,,,,,10,,,,68,93
262923,note_on,60,0,12,,,,,,,,,11,,,,64,93
262923,control_change,0,0,5,,,,,,,,,4,11,68,,,
262923,note_on,0,0,5,,,,,,,,,4,,,,64,100
262923,note_on,18,0,5,,,,,,,,,4,,,,64,0
262924,control_change,19,0,15,,,,,,,,,14,11,58,,,
262924,note_on,0,0,6,,,,,,,,,5,,,,52,100
262924,control_change,0,0,6,,,,,,,,,5,11,68,,,
262924,note_on,18,0,6,,,,,,,,,5,,,,52,0
262934,note_on,10,0,15,,,,,,,,,14,,,,38,0
262934,note_on,0,0,15,,,,,,,,,14,,,,37,112
262940,control_change,17,0,5,,,,,,,,,4,11,69,,,
262941,control_change,17,0,6,,,,,,,,,5,11,69,,,
262943,control_change,9,0,15,,,,,,,,,14,11,60,,,
262957,control_change,17,0,5,,,,,,,,,4,11,70,,,
262958,control_change,17,0,6,,,,,,,,,5,11,70,,,
262962,control_change,19,0,15,,,,,,,,,14,11,62,,,
262974,control_change,17,0,5,,,,,,,,,4,11,71,,,
262975,control_change,17,0,6,,,,,,,,,5,11,71,,,
262980,note_on,60,0,11,,,,,,,,,10,,,,68,0
262982,control_change,20,0,15,,,,,,,,,14,11,64,,,
262983,note_on,60,0,12,,,,,,,,,11,,,,64,0
262991,control_change,17,0,5,,,,,,,,,4,11,72,,,
262992,control_change,17,0,6,,,,,,,,,5,11,72,,,
263001,control_change,19,0,15,,,,,,,,,14,11,66,,,
263008,control_change,17,0,5,,,,,,,,,4,11,73,,,
263009,control_change,17,0,6,,,,,,,,,5,11,73,,,
263020,control_change,19,0,15,,,,,,,,,14,11,68,,,
263025,control_change,17,0,5,,,,,,,,,4,11,74,,,
263026,control_change,17,0,6,,,,,,,,,5,11,74,,,
263039,control_change,19,0,15,,,,,,,,,14,11,70,,,
263040,set_tempo,120,1,0,,,,,,359281,,,,,,,,
263040,note_on,60,0,11,,,,,,,,,10,,,,64,93
263043,note_on,60,0,12,,,,,,,,,11,,,,62,93
263043,control_change,0,0,5,,,,,,,,,4,11,75,,,
263043,note_on,0,0,5,,,,,,,,,4,,,,64,100
263043,note_on,18,0,5,,,,,,,,,4,,,,64,0
263044,control_change,0,0,6,,,,,,,,,5,11,75,,,
263044,note_on,0,0,6,,,,,,,,,5,,,,52,100
263044,note_on,18,0,6,,,,,,,,,5,,,,52,0
263054,note_on,0,0,15,,,,,,,,,14,,,,35,112
263054,note_on,15,0,15,,,,,,,,,14,,,,37,0
263058,control_change,4,0,15,,,,,,,,,14,11,72,,,
263060,control_change,17,0,5,,,,,,,,,4,11,76,,,
263061,control_change,17,0,6,,,,,,,,,5,11,76,,,
263077,control_change,17,0,5,,,,,,,,,4,11,77,,,
263078,control_change,20,0,15,,,,,,,,,14,11,73,,,
263078,control_change,17,0,6,,,,,,,,,5,11,77,,,
263094,control_change,17,0,5,,,,,,,,,4,11,78,,,
263095,control_change,17,0,6,,,,,,,,,5,11,78,,,
263097,control_change,19,0,15,,,,,,,,,14,11,75,,,
263100,note_on,60,0,11,,,,,,,,,10,,,,64,0
263103,note_on,60,0,12,,,,,,,,,11,,,,62,0
263105,control_change,0,0,3,,,,,,,,,2,11,52,,,
263105,note_on,1400,0,3,,,,,,,,,2,,,,73,101
263107,control_change,2940,0,8,,,,,,,,,7,11,42,,,
263107,note_on,0,0,8,,,,,,,,,7,,,,69,110
263109,note_on,1860,0,4,,,,,,,,,3,,,,64,100
263109,control_change,0,0,4,,,,,,,,,3,11,52,,,
263111,control_change,4,0,8,,,,,,,,,7,11,45,,,
263111,control_change,17,0,5,,,,,,,,,4,11,79,,,
263112,control_change,17,0,6,,,,,,,,,5,11,79,,,
263116,control_change,19,0,15,,,,,,,,,14,11,77,,,
263116,control_change,5,0,8,,,,,,,,,7,11,48,,,
263120,control_change,4,0,8,,,,,,,,,7,11,51,,,
263125,control_change,5,0,8,,,,,,,,,7,11,54,,,
263128,control_change,17,0,5,,,,,,,,,4,11,80,,,
263129,control_change,17,0,6,,,,,,,,,5,11,80,,,
263129,control_change,4,0,8,,,,,,,,,7,11,57,,,
263134,control_change,5,0,8,,,,,,,,,7,11,60,,,
263135,control_change,19,0,15,,,,,,,,,14,11,79,,,
263138,control_change,4,0,8,,,,,,,,,7,11,63,,,
263143,control_change,5,0,8,,,,,,,,,7,11,66,,,
263145,control_change,17,0,5,,,,,,,,,4,11,81,,,
263146,control_change,17,0,6,,,,,,,,,5,11,81,,,
263147,control_change,4,0,8,,,,,,,,,7,11,69,,,
263152,control_change,5,0,8,,,,,,,,,7,11,72,,,
263154,control_change,19,0,15,,,,,,,,,14,11,81,,,
263156,control_change,4,0,8,,,,,,,,,7,11,75,,,
263160,set_tempo,120,1,0,,,,,,285714,,,,,,,,
263160,note_on,0,0,11,,,,,,,,,10,,,,57,93
263160,control_change,0,0,11,,,,,,,,,10,11,41,,,
263160,note_on,60,0,11,,,,,,,,,10,,,,69,93
263161,control_change,5,0,8,,,,,,,,,7,11,78,,,
263163,control_change,60,0,12,,,,,,,,,11,11,41,,,
263163,note_on,0,0,12,,,,,,,,,11,,,,61,93
263163,control_change,0,0,5,,,,,,,,,4,11,82,,,
263163,note_on,18,0,5,,,,,,,,,4,,,,64,0
263163,note_on,58,0,3,,,,,,,,,2,,,,73,0
263163,note_on,0,0,5,,,,,,,,,4,,,,64,100
263164,note_on,18,0,6,,,,,,,,,5,,,,52,0
263164,note_on,0,0,6,,,,,,,,,5,,,,52,100
263164,control_change,0,0,6,,,,,,,,,5,11,82,,,
263165,control_change,4,0,8,,,,,,,,,7,11,81,,,
263165,note_on,2,0,3,,,,,,,,,2,,,,73,101
263165,control_change,0,0,3,,,,,,,,,2,11,74,,,
263167,note_on,2,0,8,,,,,,,,,7,,,,69,0
263167,note_on,58,0,4,,,,,,,,,3,,,,64,0
263167,note_on,0,0,8,,,,,,,,,7,,,,69,110
263169,control_change,0,0,4,,,,,,,,,3,11,82,,,
263169,note_on,2,0,4,,,,,,,,,3,,,,64,100
263169,control_change,9,0,11,,,,,,,,,10,11,46,,,
263172,control_change,9,0,12,,,,,,,,,11,11,46,,,
263172,note_on,0,0,14,,,,,,,,,13,,,,45,112
263172,control_change,480,0,14,,,,,,,,,13,11,41,,,
263174,control_change,5,0,11,,,,,,,,,10,11,49,,,
263174,note_on,20,0,15,,,,,,,,,14,,,,35,0
263174,note_on,0,0,15,,,,,,,,,14,,,,33,112
263174,control_change,0,0,15,,,,,,,,,14,11,83,,,
263177,control_change,5,0,12,,,,,,,,,11,11,49,,,
263178,control_change,4,0,11,,,,,,,,,10,11,52,,,
263181,control_change,9,0,14,,,,,,,,,13,11,46,,,
263181,control_change,4,0,12,,,,,,,,,11,11,52,,,
263181,control_change,12,0,4,,,,,,,,,3,11,79,,,
263182,control_change,8,0,15,,,,,,,,,14,11,80,,,
263183,control_change,16,0,8,,,,,,,,,7,11,78,,,
263183,control_change,5,0,11,,,,,,,,,10,11,55,,,
263186,control_change,5,0,14,,,,,,,,,13,11,49,,,
263186,control_change,5,0,12,,,,,,,,,11,11,55,,,
263189,control_change,24,0,3,,,,,,,,,2,11,70,,,
263190,control_change,4,0,14,,,,,,,,,13,11,52,,,
263190,control_change,8,0,15,,,,,,,,,14,11,77,,,
263193,control_change,12,0,4,,,,,,,,,3,11,76,,,
263195,control_change,12,0,8,,,,,,,,,7,11,75,,,
263195,control_change,5,0,14,,,,,,,,,13,11,55,,,
263198,control_change,8,0,15,,,,,,,,,14,11,74,,,
263201,control_change,12,0,3,,,,,,,,,2,11,67,,,
263204,control_change,21,0,11,,,,,,,,,10,11,58,,,
263205,control_change,12,0,4,,,,,,,,,3,11,73,,,
263207,control_change,12,0,8,,,,,,,,,7,11,72,,,
263207,control_change,21,0,12,,,,,,,,,11,11,58,,,
263214,control_change,16,0,15,,,,,,,,,14,11,69,,,
263216,control_change,21,0,14,,,,,,,,,13,11,58,,,
263217,control_change,12,0,4,,,,,,,,,3,11,70,,,
263219,control_change,12,0,8,,,,,,,,,7,11,69,,,
263222,control_change,8,0,15,,,,,,,,,14,11,66,,,
263224,control_change,20,0,11,,,,,,,,,10,11,57,,,
263225,control_change,24,0,3,,,,,,,,,2,11,63,,,
263227,control_change,20,0,12,,,,,,,,,11,11,57,,,
263229,control_change,12,0,4,,,,,,,,,3,11,67,,,
263230,control_change,8,0,15,,,,,,,,,14,11,63,,,
263231,control_change,12,0,8,,,,,,,,,7,11,66,,,
263232,note_on,16,0,14,,,,,,,,,13,,,,45,0
263236,control_change,4,0,14,,,,,,,,,13,11,57,,,
263238,control_change,8,0,15,,,,,,,,,14,11,60,,,
263241,control_change,12,0,4,,,,,,,,,3,11,64,,,
263243,control_change,12,0,8,,,,,,,,,7,11,63,,,
263245,control_change,21,0,11,,,,,,,,,10,11,55,,,
263246,control_change,8,0,15,,,,,,,,,14,11,57,,,
263248,control_change,21,0,12,,,,,,,,,11,11,55,,,
263249,control_change,24,0,3,,,,,,,,,2,11,58,,,
263253,control_change,12,0,4,,,,,,,,,3,11,61,,,
263255,control_change,12,0,8,,,,,,,,,7,11,60,,,
263257,control_change,21,0,14,,,,,,,,,13,11,55,,,
263262,control_change,16,0,15,,,,,,,,,14,11,52,,,
263265,control_change,12,0,4,,,,,,,,,3,11,58,,,
263266,control_change,21,0,11,,,,,,,,,10,11,53,,,
263267,control_change,12,0,8,,,,,,,,,7,11,57,,,
263269,control_change,21,0,12,,,,,,,,,11,11,53,,,
263270,control_change,8,0,15,,,,,,,,,14,11,49,,,
263273,control_change,24,0,3,,,,,,,,,2,11,54,,,
263277,control_change,12,0,4,,,,,,,,,3,11,55,,,
263278,control_change,8,0,15,,,,,,,,,14,11,46,,,
263278,control_change,21,0,14,,,,,,,,,13,11,53,,,
263279,control_change,12,0,8,,,,,,,,,7,11,54,,,
263280,set_tempo,120,1,0,,,,,,300000,,,,,,,,
263283,note_on,120,0,5,,,,,,,,,4,,,,64,0
263284,note_on,120,0,6,,,,,,,,,5,,,,52,0
263286,control_change,8,0,15,,,,,,,,,14,11,43,,,
263286,control_change,20,0,11,,,,,,,,,10,11,51,,,
263288,note_on,600,0,13,,,,,,,,,12,,,,52,112
263289,control_change,20,0,12,,,,,,,,,11,11,51,,,
263289,control_change,12,0,4,,,,,,,,,3,11,52,,,
263292,note_on,14,0,14,,,,,,,,,13,,,,49,112
263298,control_change,6,0,14,,,,,,,,,13,11,51,,,
263307,control_change,21,0,11,,,,,,,,,10,11,49,,,
263310,control_change,21,0,12,,,,,,,,,11,11,49,,,
263319,control_change,21,0,14,,,,,,,,,13,11,49,,,
263327,control_change,20,0,11,,,,,,,,,10,11,47,,,
263330,control_change,20,0,12,,,,,,,,,11,11,47,,,
263339,control_change,20,0,14,,,,,,,,,13,11,47,,,
263341,note_on,0,0,1,,,,,,,,,0,,,,81,101
263341,note_on,660,0,1,,,,,,,,,0,,,,76,101
263344,note_on,0,0,2,,,,,,,,,1,,,,69,100
263344,note_on,660,0,2,,,,,,,,,1,,,,73,100
263348,note_on,60,0,13,,,,,,,,,12,,,,52,0
263348,control_change,21,0,11,,,,,,,,,10,11,45,,,
263351,control_change,21,0,12,,,,,,,,,11,11,45,,,
263352,note_on,13,0,14,,,,,,,,,13,,,,49,0
263360,control_change,8,0,14,,,,,,,,,13,11,45,,,
263369,control_change,21,0,11,,,,,,,,,10,11,43,,,
263372,control_change,21,0,12,,,,,,,,,11,11,43,,,
263381,control_change,21,0,14,,,,,,,,,13,11,43,,,
263389,control_change,20,0,11,,,,,,,,,10,11,42,,,
263392,control_change,20,0,12,,,,,,,,,11,11,42,,,
263399,note_on,0,0,1,,,,,,,,,0,,,,76,0
263399,note_on,58,0,1,,,,,,,,,0,,,,81,0
263400,set_tempo,120,1,0,,,,,,330579,,,,,,,,
263400,note_on,0,0,11,,,,,,,,,10,,,,69,0
263400,note_on,11,0,11,,,,,,,,,10,,,,57,0
263401,note_on,2,0,1,,,,,,,,,0,,,,76,101
263401,note_on,0,0,1,,,,,,,,,0,,,,81,101
263401,control_change,20,0,14,,,,,,,,,13,11,42,,,
263402,note_on,0,0,2,,,,,,,,,1,,,,73,0
263402,note_on,58,0,2,,,,,,,,,1,,,,69,0
263403,note_on,11,0,12,,,,,,,,,11,,,,61,0
263404,note_on,0,0,2,,,,,,,,,1,,,,69,100
263404,note_on,2,0,2,,,,,,,,,1,,,,73,100
263408,note_on,60,0,13,,,,,,,,,12,,,,57,112
263412,note_on,11,0,14,,,,,,,,,13,,,,52,112
263414,note_on,128,0,15,,,,,,,,,14,,,,33,0
263468,note_on,60,0,13,,,,,,,,,12,,,,57,0
263472,note_on,60,0,14,,,,,,,,,13,,,,52,0
263516,note_on,115,0,1,,,,,,,,,0,,,,81,0
263516,note_on,0,0,1,,,,,,,,,0,,,,76,0
263519,note_on,0,0,2,,,,,,,,,1,,,,73,0
263519,note_on,115,0,2,,,,,,,,,1,,,,69,0
263520,note_on,120,0,11,,,,,,,,,10,,,,61,93
263520,set_tempo,120,1,0,,,,,,285714,,,,,,,,
263521,note_on,5,0,1,,,,,,,,,0,,,,81,116
263521,note_on,0,0,1,,,,,,,,,0,,,,76,116
263523,note_on,120,0,12,,,,,,,,,11,,,,57,93
263524,note_on,5,0,2,,,,,,,,,1,,,,73,115
263524,note_on,0,0,2,,,,,,,,,1,,,,69,115
263528,note_on,60,0,13,,,,,,,,,12,,,,61,127
263532,note_on,60,0,14,,,,,,,,,13,,,,57,127
263580,note_on,60,0,11,,,,,,,,,10,,,,61,0
263583,note_on,60,0,12,,,,,,,,,11,,,,57,0
263640,set_tempo,120,1,0,,,,,,300000,,,,,,,,
263640,note_on,60,0,11,,,,,,,,,10,,,,64,93
263643,note_on,60,0,12,,,,,,,,,11,,,,61,93
263700,note_on,60,0,11,,,,,,,,,10,,,,64,0
263703,note_on,60,0,12,,,,,,,,,11,,,,61,0
263714,note_on,300,0,15,,,,,,,,,14,,,,33,112
263760,note_on,60,0,11,,,,,,,,,10,,,,69,93
263760,set_tempo,120,1,0,,,,,,330579,,,,,,,,
263761,note_on,240,0,1,,,,,,,,,0,,,,76,0
263761,note_on,0,0,1,,,,,,,,,0,,,,81,0
263763,note_on,60,0,12,,,,,,,,,11,,,,64,93
263764,note_on,0,0,2,,,,,,,,,1,,,,73,0
263764,note_on,240,0,2,,,,,,,,,1,,,,69,0
263768,note_on,240,0,13,,,,,,,,,12,,,,61,0
263772,note_on,240,0,14,,,,,,,,,13,,,,57,0
263774,note_on,0,0,15,,,,,,,,,14,,,,33,112
263774,note_on,60,0,15,,,,,,,,,14,,,,33,0
263820,note_on,60,0,11,,,,,,,,,10,,,,69,0
263823,note_on,60,0,12,,,,,,,,,11,,,,64,0
263825,note_on,552,0,3,,,,,,,,,2,,,,73,0
263825,note_on,0,0,3,,,,,,,,,2,,,,73,101
263827,note_on,0,0,8,,,,,,,,,7,,,,69,110
263827,note_on,548,0,8,,,,,,,,,7,,,,69,0
263829,note_on,0,0,4,,,,,,,,,3,,,,64,100
263829,note_on,540,0,4,,,,,,,,,3,,,,64,0
263880,note_on,60,0,11,,,,,,,,,10,,,,73,104
263880,set_tempo,120,1,0,,,,,,285714,,,,,,,,
263880,note_on,0,0,11,,,,,,,,,10,,,,64,104
263883,note_on,60,0,12,,,,,,,,,11,,,,69,104
263885,note_on,0,0,3,,,,,,,,,2,,,,73,101
263885,note_on,60,0,3,,,,,,,,,2,,,,73,0
263887,note_on,60,0,8,,,,,,,,,7,,,,69,0
263887,note_on,0,0,8,,,,,,,,,7,,,,69,110
263889,note_on,60,0,4,,,,,,,,,3,,,,64,0
263889,note_on,0,0,4,,,,,,,,,3,,,,64,100
263894,note_on,120,0,15,,,,,,,,,14,,,,33,0
263894,note_on,0,0,15,,,,,,,,,14,,,,33,127
264000,set_tempo,120,1,0,,,,,,300000,,,,,,,,
264000,control_change,120,0,11,,,,,,,,,10,11,41,,,
264003,control_change,120,0,12,,,,,,,,,11,11,41,,,
264008,note_on,240,0,13,,,,,,,,,12,,,,52,112
264012,note_on,240,0,14,,,,,,,,,13,,,,49,112
264023,control_change,23,0,11,,,,,,,,,10,11,39,,,
264026,control_change,23,0,12,,,,,,,,,11,11,39,,,
264047,control_change,24,0,11,,,,,,,,,10,11,37,,,
264050,control_change,24,0,12,,,,,,,,,11,11,37,,,
264061,note_on,0,0,1,,,,,,,,,0,,,,81,101
264061,note_on,300,0,1,,,,,,,,,0,,,,76,101
264064,note_on,0,0,2,,,,,,,,,1,,,,69,100
264064,note_on,300,0,2,,,,,,,,,1,,,,73,100
264068,note_on,60,0,13,,,,,,,,,12,,,,52,0
264071,control_change,24,0,11,,,,,,,,,10,11,35,,,
264072,note_on,60,0,14,,,,,,,,,13,,,,49,0
264074,control_change,24,0,12,,,,,,,,,11,11,35,,,
264095,control_change,24,0,11,,,,,,,,,10,11,33,,,
264098,control_change,24,0,12,,,,,,,,,11,11,33,,,
264119,control_change,24,0,11,,,,,,,,,10,11,31,,,
264119,note_on,58,0,1,,,,,,,,,0,,,,81,0
264119,note_on,0,0,1,,,,,,,,,0,,,,76,0
264120,note_on,0,0,11,,,,,,,,,10,,,,73,0
264120,note_on,1,0,11,,,,,,,,,10,,,,64,0
264120,set_tempo,120,1,0,,,,,,330579,,,,,,,,
264121,note_on,0,0,1,,,,,,,,,0,,,,76,101
264121,note_on,2,0,1,,,,,,,,,0,,,,81,101
264122,note_on,58,0,2,,,,,,,,,1,,,,69,0
264122,control_change,24,0,12,,,,,,,,,11,11,31,,,
264122,note_on,0,0,2,,,,,,,,,1,,,,73,0
264123,note_on,1,0,12,,,,,,,,,11,,,,69,0
264124,note_on,2,0,2,,,,,,,,,1,,,,73,100
264124,note_on,0,0,2,,,,,,,,,1,,,,69,100
264125,note_on,240,0,3,,,,,,,,,2,,,,73,0
264125,note_on,0,0,3,,,,,,,,,2,,,,73,101
264127,note_on,0,0,8,,,,,,,,,7,,,,69,110
264127,note_on,240,0,8,,,,,,,,,7,,,,69,0
264128,note_on,60,0,13,,,,,,,,,12,,,,57,112
264129,note_on,240,0,4,,,,,,,,,3,,,,64,0
264129,note_on,0,0,4,,,,,,,,,3,,,,64,100
264132,note_on,60,0,14,,,,,,,,,13,,,,52,112
264134,note_on,240,0,15,,,,,,,,,14,,,,33,0
264188,note_on,60,0,13,,,,,,,,,12,,,,57,0
264192,note_on,60,0,14,,,,,,,,,13,,,,52,0
264236,note_on,0,0,1,,,,,,,,,0,,,,81,0
264236,note_on,115,0,1,,,,,,,,,0,,,,76,0
264239,note_on,0,0,2,,,,,,,,,1,,,,73,0
264239,note_on,115,0,2,,,,,,,,,1,,,,69,0
264240,set_tempo,120,1,0,,,,,,285714,,,,,,,,
264240,note_on,120,0,11,,,,,,,,,10,,,,64,93
264240,control_change,0,0,11,,,,,,,,,10,11,41,,,
264241,note_on,0,0,1,,,,,,,,,0,,,,81,101
264241,note_on,5,0,1,,,,,,,,,0,,,,76,101
264243,control_change,0,0,12,,,,,,,,,11,11,41,,,
264243,note_on,120,0,12,,,,,,,,,11,,,,61,93
264244,note_on,5,0,2,,,,,,,,,1,,,,73,100
264244,note_on,0,0,2,,,,,,,,,1,,,,69,100
264245,note_on,0,0,3,,,,,,,,,2,,,,73,101
264245,note_on,120,0,3,,,,,,,,,2,,,,73,0
264247,note_on,120,0,8,,,,,,,,,7,,,,69,0
264247,note_on,0,0,8,,,,,,,,,7,,,,69,110
264248,note_on,60,0,13,,,,,,,,,12,,,,61,112
264249,note_on,0,0,4,,,,,,,,,3,,,,64,100
264249,note_on,120,0,4,,,,,,,,,3,,,,64,0
264252,note_on,60,0,14,,,,,,,,,13,,,,57,112
264300,note_on,60,0,11,,,,,,,,,10,,,,64,0
264303,note_on,60,0,12,,,,,,,,,11,,,,61,0
264360,set_tempo,120,1,0,,,,,,300000,,,,,,,,
264360,note_on,60,0,11,,,,,,,,,10,,,,69,93
264363,note_on,60,0,12,,,,,,,,,11,,,,64,93
264365,note_on,0,0,3,,,,,,,,,2,,,,71,101
264365,note_on,120,0,3,,,,,,,,,2,,,,73,0
264369,note_on,120,0,4,,,,,,,,,3,,,,64,0
264369,note_on,0,0,4,,,,,,,,,3,,,,62,100
264420,note_on,60,0,11,,,,,,,,,10,,,,69,0
264423,note_on,60,0,12,,,,,,,,,11,,,,64,0
264434,note_on,300,0,15,,,,,,,,,14,,,,33,112
264480,set_tempo,120,1,0,,,,,,330579,,,,,,,,
264480,note_on,60,0,11,,,,,,,,,10,,,,73,93
264481,note_on,0,0,1,,,,,,,,,0,,,,76,0
264481,note_on,240,0,1,,,,,,,,,0,,,,81,0
264483,note_on,60,0,12,,,,,,,,,11,,,,69,93
264484,note_on,0,0,2,,,,,,,,,1,,,,73,0
264484,note_on,240,0,2,,,,,,,,,1,,,,69,0
264485,note_on,0,0,3,,,,,,,,,2,,,,69,101
264485,note_on,120,0,3,,,,,,,,,2,,,,71,0
264487,note_on,0,0,8,,,,,,,,,7,,,,69,110
264487,note_on,240,0,8,,,,,,,,,7,,,,69,0
264488,note_on,240,0,13,,,,,,,,,12,,,,61,0
264489,note_on,120,0,4,,,,,,,,,3,,,,62,0
264489,note_on,0,0,4,,,,,,,,,3,,,,61,100
264492,note_on,240,0,14,,,,,,,,,13,,,,57,0
264494,note_on,0,0,15,,,,,,,,,14,,,,33,112
264494,note_on,60,0,15,,,,,,,,,14,,,,33,0
264540,note_on,60,0,11,,,,,,,,,10,,,,73,0
264543,note_on,60,0,12,,,,,,,,,11,,,,69,0
264600,set_tempo,120,1,0,,,,,,285714,,,,,,,,
264600,note_on,60,0,11,,,,,,,,,10,,,,66,93
264600,note_on,0,0,11,,,,,,,,,10,,,,74,93
264603,note_on,60,0,12,,,,,,,,,11,,,,69,93
264605,note_on,120,0,3,,,,,,,,,2,,,,69,0
264605,note_on,0,0,3,,,,,,,,,2,,,,74,116
264607,note_on,0,0,8,,,,,,,,,7,,,,69,125
264607,note_on,120,0,8,,,,,,,,,7,,,,69,0
264609,note_on,0,0,4,,,,,,,,,3,,,,66,115
264609,note_on,120,0,4,,,,,,,,,3,,,,61,0
264614,note_on,0,0,15,,,,,,,,,14,,,,33,112
264614,note_on,120,0,15,,,,,,,,,14,,,,33,0
264720,set_tempo,120,1,0,,,,,,300000,,,,,,,,
264728,note_on,240,0,13,,,,,,,,,12,,,,52,112
264732,note_on,240,0,14,,,,,,,,,13,,,,50,112
264781,note_on,0,0,1,,,,,,,,,0,,,,78,101
264781,note_on,300,0,1,,,,,,,,,0,,,,81,101
264784,note_on,300,0,2,,,,,,,,,1,,,,69,100
264784,note_on,0,0,2,,,,,,,,,1,,,,74,100
264788,note_on,60,0,13,,,,,,,,,12,,,,52,0
264792,note_on,60,0,14,,,,,,,,,13,,,,50,0
264839,note_on,58,0,1,,,,,,,,,0,,,,78,0
264839,note_on,0,0,1,,,,,,,,,0,,,,81,0
264840,note_on,0,0,11,,,,,,,,,10,,,,66,0
264840,set_tempo,120,1,0,,,,,,330579,,,,,,,,
264840,note_on,240,0,11,,,,,,,,,10,,,,74,0
264841,note_on,2,0,1,,,,,,,,,0,,,,78,101
264841,note_on,0,0,1,,,,,,,,,0,,,,81,101
264842,note_on,0,0,2,,,,,,,,,1,,,,69,0
264842,note_on,58,0,2,,,,,,,,,1,,,,74,0
264843,note_on,240,0,12,,,,,,,,,11,,,,69,0
264844,note_on,0,0,2,,,,,,,,,1,,,,74,100
264844,note_on,2,0,2,,,,,,,,,1,,,,69,100
264848,note_on,60,0,13,,,,,,,,,12,,,,57,112
264852,note_on,60,0,14,,,,,,,,,13,,,,54,112
264854,note_on,240,0,15,,,,,,,,,14,,,,33,0
264908,note_on,60,0,13,,,,,,,,,12,,,,57,0
264912,note_on,60,0,14,,,,,,,,,13,,,,54,0
264956,note_on,0,0,1,,,,,,,,,0,,,,78,0
264956,note_on,115,0,1,,,,,,,,,0,,,,81,0
264959,note_on,0,0,2,,,,,,,,,1,,,,69,0
264959,note_on,115,0,2,,,,,,,,,1,,,,74,0
264960,note_on,120,0,11,,,,,,,,,10,,,,66,93
264960,set_tempo,120,1,0,,,,,,285714,,,,,,,,
264961,note_on,0,0,1,,,,,,,,,0,,,,78,101
264961,note_on,5,0,1,,,,,,,,,0,,,,81,101
264963,note_on,120,0,12,,,,,,,,,11,,,,62,93
264964,note_on,5,0,2,,,,,,,,,1,,,,74,100
264964,note_on,0,0,2,,,,,,,,,1,,,,69,100
264968,note_on,60,0,13,,,,,,,,,12,,,,62,112
264972,note_on,60,0,14,,,,,,,,,13,,,,57,112
265020,note_on,60,0,11,,,,,,,,,10,,,,66,0
265023,note_on,60,0,12,,,,,,,,,11,,,,62,0
265080,note_on,60,0,11,,,,,,,,,10,,,,69,93
265080,set_tempo,120,1,0,,,,,,300000,,,,,,,,
265083,note_on,60,0,12,,,,,,,,,11,,,,66,93
265140,note_on,60,0,11,,,,,,,,,10,,,,69,0
265143,note_on,60,0,12,,,,,,,,,11,,,,66,0
265154,note_on,300,0,15,,,,,,,,,14,,,,33,112
265200,set_tempo,120,1,0,,,,,,330579,,,,,,,,
265200,note_on,60,0,11,,,,,,,,,10,,,,74,93
265201,note_on,0,0,1,,,,,,,,,0,,,,81,0
265201,note_on,240,0,1,,,,,,,,,0,,,,78,0
265203,note_on,60,0,12,,,,,,,,,11,,,,69,93
265204,note_on,0,0,2,,,,,,,,,1,,,,74,0
265204,note_on,240,0,2,,,,,,,,,1,,,,69,0
265208,note_on,240,0,13,,,,,,,,,12,,,,62,0
265212,note_on,240,0,14,,,,,,,,,13,,,,57,0
265214,note_on,0,0,15,,,,,,,,,14,,,,33,112
265214,note_on,60,0,15,,,,,,,,,14,,,,33,0
265260,note_on,60,0,11,,,,,,,,,10,,,,74,0
265263,note_on,60,0,12,,,,,,,,,11,,,,69,0
265320,note_on,0,0,11,,,,,,,,,10,,,,73,93
265320,set_tempo,120,1,0,,,,,,285714,,,,,,,,
265320,note_on,60,0,11,,,,,,,,,10,,,,64,93
265323,note_on,60,0,12,,,,,,,,,11,,,,69,93
265325,note_on,0,0,3,,,,,,,,,2,,,,73,101
265325,note_on,720,0,3,,,,,,,,,2,,,,74,0
265329,note_on,720,0,4,,,,,,,,,3,,,,66,0
265329,note_on,0,0,4,,,,,,,,,3,,,,64,100
265334,note_on,120,0,15,,,,,,,,,14,,,,33,0
265334,note_on,0,0,15,,,,,,,,,14,,,,33,112
265440,set_tempo,120,1,0,,,,,,300000,,,,,,,,
265448,note_on,240,0,13,,,,,,,,,12,,,,52,112
265452,note_on,240,0,14,,,,,,,,,13,,,,49,112
265501,note_on,300,0,1,,,,,,,,,0,,,,81,101
265501,note_on,0,0,1,,,,,,,,,0,,,,76,101
265504,note_on,0,0,2,,,,,,,,,1,,,,69,100
265504,note_on,300,0,2,,,,,,,,,1,,,,73,100
265508,note_on,60,0,13,,,,,,,,,12,,,,52,0
265512,note_on,60,0,14,,,,,,,,,13,,,,49,0
265559,note_on,58,0,1,,,,,,,,,0,,,,76,0
265559,note_on,0,0,1,,,,,,,,,0,,,,81,0
265560,set_tempo,120,1,0,,,,,,330579,,,,,,,,
265560,note_on,240,0,11,,,,,,,,,10,,,,73,0
265560,note_on,0,0,11,,,,,,,,,10,,,,64,0
265561,note_on,2,0,1,,,,,,,,,0,,,,76,101
265561,note_on,0,0,1,,,,,,,,,0,,,,81,101
265562,note_on,58,0,2,,,,,,,,,1,,,,69,0
265562,note_on,0,0,2,,,,,,,,,1,,,,73,0
265563,note_on,240,0,12,,,,,,,,,11,,,,69,0
265564,note_on,0,0,2,,,,,,,,,1,,,,73,100
265564,note_on,2,0,2,,,,,,,,,1,,,,69,100
265568,note_on,60,0,13,,,,,,,,,12,,,,57,112
265572,note_on,60,0,14,,,,,,,,,13,,,,52,112
265574,note_on,240,0,15,,,,,,,,,14,,,,33,0
265628,note_on,60,0,13,,,,,,,,,12,,,,57,0
265632,note_on,60,0,14,,,,,,,,,13,,,,52,0
265676,note_on,115,0,1,,,,,,,,,0,,,,81,0
265676,note_on,0,0,1,,,,,,,,,0,,,,76,0
265679,note_on,115,0,2,,,,,,,,,1,,,,73,0
265679,note_on,0,0,2,,,,,,,,,1,,,,69,0
265680,set_tempo,120,1,0,,,,,,285714,,,,,,,,
265680,note_on,120,0,11,,,,,,,,,10,,,,64,93
265681,note_on,5,0,1,,,,,,,,,0,,,,76,101
265681,note_on,0,0,1,,,,,,,,,0,,,,81,101
265683,note_on,120,0,12,,,,,,,,,11,,,,61,93
265684,note_on,5,0,2,,,,,,,,,1,,,,69,100
265684,note_on,0,0,2,,,,,,,,,1,,,,73,100
265688,note_on,60,0,13,,,,,,,,,12,,,,61,112
265692,note_on,60,0,14,,,,,,,,,13,,,,57,112
265740,note_on,60,0,11,,,,,,,,,10,,,,64,0
265743,note_on,60,0,12,,,,,,,,,11,,,,61,0
265800,set_tempo,120,1,0,,,,,,300000,,,,,,,,
265800,note_on,60,0,11,,,,,,,,,10,,,,69,93
265803,note_on,60,0,12,,,,,,,,,11,,,,64,93
265805,note_on,480,0,3,,,,,,,,,2,,,,73,0
265807,note_on,1200,0,8,,,,,,,,,7,,,,69,0
265809,note_on,480,0,4,,,,,,,,,3,,,,64,0
265860,note_on,60,0,11,,,,,,,,,10,,,,69,0
265863,note_on,60,0,12,,,,,,,,,11,,,,64,0
265874,note_on,300,0,15,,,,,,,,,14,,,,33,112
265920,note_on,60,0,11,,,,,,,,,10,,,,73,93
265920,set_tempo,120,1,0,,,,,,357143,,,,,,,,
265921,note_on,0,0,1,,,,,,,,,0,,,,76,0
265921,note_on,240,0,1,,,,,,,,,0,,,,81,0
265923,note_on,60,0,12,,,,,,,,,11,,,,69,93
265924,note_on,0,0,2,,,,,,,,,1,,,,69,0
265924,note_on,240,0,2,,,,,,,,,1,,,,73,0
265925,note_on,120,0,3,,,,,,,,,2,,,,73,101
265927,note_on,120,0,8,,,,,,,,,7,,,,69,110
265928,note_on,240,0,13,,,,,,,,,12,,,,61,0
265929,note_on,120,0,4,,,,,,,,,3,,,,64,100
265932,note_on,240,0,14,,,,,,,,,13,,,,57,0
265934,note_on,60,0,15,,,,,,,,,14,,,,33,0
265934,note_on,0,0,15,,,,,,,,,14,,,,37,112
265980,note_on,60,0,11,,,,,,,,,10,,,,73,0
265983,note_on,60,0,12,,,,,,,,,11,,,,69,0
266040,set_tempo,120,1,0,,,,,,285714,,,,,,,,
266040,note_on,0,0,11,,,,,,,,,10,,,,62,93
266040,note_on,60,0,11,,,,,,,,,10,,,,71,93
266043,note_on,60,0,12,,,,,,,,,11,,,,68,93
266045,note_on,120,0,3,,,,,,,,,2,,,,73,0
266045,note_on,0,0,3,,,,,,,,,2,,,,71,101
266047,note_on,0,0,8,,,,,,,,,7,,,,68,110
266047,note_on,120,0,8,,,,,,,,,7,,,,69,0
266049,note_on,120,0,4,,,,,,,,,3,,,,64,0
266049,note_on,0,0,4,,,,,,,,,3,,,,62,100
266054,note_on,120,0,15,,,,,,,,,14,,,,37,0
266054,note_on,0,0,15,,,,,,,,,14,,,,40,112
266160,set_tempo,120,1,0,,,,,,307692,,,,,,,,
266168,note_on,240,0,13,,,,,,,,,12,,,,56,112
266172,note_on,240,0,14,,,,,,,,,13,,,,52,112
266221,note_on,300,0,1,,,,,,,,,0,,,,80,101
266221,note_on,0,0,1,,,,,,,,,0,,,,88,101
266224,note_on,300,0,2,,,,,,,,,1,,,,76,100
266224,note_on,0,0,2,,,,,,,,,1,,,,83,100
266228,note_on,60,0,13,,,,,,,,,12,,,,56,0
266232,note_on,60,0,14,,,,,,,,,13,,,,52,0
266279,note_on,0,0,1,,,,,,,,,0,,,,80,0
266279,note_on,58,0,1,,,,,,,,,0,,,,88,0
266280,note_on,240,0,11,,,,,,,,,10,,,,62,0
266280,set_tempo,120,1,0,,,,,,330579,,,,,,,,
266280,note_on,0,0,11,,,,,,,,,10,,,,71,0
266281,note_on,0,0,1,,,,,,,,,0,,,,88,101
266281,note_on,2,0,1,,,,,,,,,0,,,,80,101
266282,note_on,0,0,2,,,,,,,,,1,,,,76,0
266282,note_on,58,0,2,,,,,,,,,1,,,,83,0
266283,note_on,240,0,12,,,,,,,,,11,,,,68,0
266284,note_on,0,0,2,,,,,,,,,1,,,,76,100
266284,note_on,2,0,2,,,,,,,,,1,,,,83,100
266288,note_on,60,0,13,,,,,,,,,12,,,,62,112
266292,note_on,60,0,14,,,,,,,,,13,,,,56,112
266294,note_on,240,0,15,,,,,,,,,14,,,,40,0
266348,note_on,60,0,13,,,,,,,,,12,,,,62,0
266352,note_on,60,0,14,,,,,,,,,13,,,,56,0
266396,note_on,115,0,1,,,,,,,,,0,,,,88,0
266396,note_on,0,0,1,,,,,,,,,0,,,,80,0
266399,note_on,0,0,2,,,,,,,,,1,,,,83,0
266399,note_on,115,0,2,,,,,,,,,1,,,,76,0
266400,note_on,120,0,11,,,,,,,,,10,,,,64,93
266400,set_tempo,120,1,0,,,,,,285714,,,,,,,,
266401,note_on,0,0,1,,,,,,,,,0,,,,80,101
266401,note_on,5,0,1,,,,,,,,,0,,,,88,101
266403,note_on,120,0,12,,,,,,,,,11,,,,62,93
266404,note_on,0,0,2,,,,,,,,,1,,,,76,100
266404,note_on,5,0,2,,,,,,,,,1,,,,83,100
266408,note_on,60,0,13,,,,,,,,,12,,,,64,112
266412,note_on,60,0,14,,,,,,,,,13,,,,62,112
266460,note_on,60,0,11,,,,,,,,,10,,,,64,0
266463,note_on,60,0,12,,,,,,,,,11,,,,62,0
266520,set_tempo,120,1,0,,,,,,300000,,,,,,,,
266520,note_on,60,0,11,,,,,,,,,10,,,,68,93
266523,note_on,60,0,12,,,,,,,,,11,,,,64,93
266580,note_on,60,0,11,,,,,,,,,10,,,,68,0
266583,note_on,60,0,12,,,,,,,,,11,,,,64,0
266594,note_on,300,0,15,,,,,,,,,14,,,,40,112
266640,note_on,60,0,11,,,,,,,,,10,,,,73,93
266640,set_tempo,120,1,0,,,,,,330579,,,,,,,,
266641,note_on,240,0,1,,,,,,,,,0,,,,80,0
266641,note_on,0,0,1,,,,,,,,,0,,,,88,0
266643,note_on,60,0,12,,,,,,,,,11,,,,68,93
266644,note_on,0,0,2,,,,,,,,,1,,,,83,0
266644,note_on,240,0,2,,,,,,,,,1,,,,76,0
266645,note_on,600,0,3,,,,,,,,,2,,,,71,0
266645,note_on,0,0,3,,,,,,,,,2,,,,73,101
266648,note_on,240,0,13,,,,,,,,,12,,,,64,0
266649,note_on,0,0,4,,,,,,,,,3,,,,64,100
266649,note_on,600,0,4,,,,,,,,,3,,,,62,0
266652,note_on,240,0,14,,,,,,,,,13,,,,62,0
266654,note_on,0,0,15,,,,,,,,,14,,,,40,112
266654,note_on,60,0,15,,,,,,,,,14,,,,40,0
266700,note_on,60,0,11,,,,,,,,,10,,,,73,0
266703,note_on,60,0,12,,,,,,,,,11,,,,68,0
266760,note_on,60,0,11,,,,,,,,,10,,,,69,93
266760,set_tempo,120,1,0,,,,,,285714,,,,,,,,
266760,note_on,0,0,11,,,,,,,,,10,,,,61,93
266763,note_on,60,0,12,,,,,,,,,11,,,,64,93
266765,note_on,120,0,3,,,,,,,,,2,,,,73,0
266765,note_on,0,0,3,,,,,,,,,2,,,,69,101
266767,note_on,720,0,8,,,,,,,,,7,,,,68,0
266767,note_on,0,0,8,,,,,,,,,7,,,,69,110
266769,note_on,120,0,4,,,,,,,,,3,,,,64,0
266769,note_on,0,0,4,,,,,,,,,3,,,,61,100
266774,note_on,0,0,15,,,,,,,,,14,,,,40,112
266774,note_on,120,0,15,,,,,,,,,14,,,,40,0
266880,set_tempo,120,1,0,,,,,,300000,,,,,,,,
266888,note_on,0,0,13,,,,,,,,,12,,,,57,112
266888,control_change,240,0,13,,,,,,,,,12,11,41,,,
266892,control_change,0,0,14,,,,,,,,,13,11,41,,,
266892,note_on,240,0,14,,,,,,,,,13,,,,52,112
266912,control_change,24,0,13,,,,,,,,,12,11,42,,,
266916,control_change,24,0,14,,,,,,,,,13,11,42,,,
266936,control_change,24,0,13,,,,,,,,,12,11,44,,,
266940,control_change,24,0,14,,,,,,,,,13,11,44,,,
266941,note_on,300,0,1,,,,,,,,,0,,,,81,101
266941,note_on,0,0,1,,,,,,,,,0,,,,88,101
266941,control_change,0,0,1,,,,,,,,,0,11,47,,,
266944,note_on,0,0,2,,,,,,,,,1,,,,85,100
266944,control_change,0,0,2,,,,,,,,,1,11,47,,,
266944,note_on,300,0,2,,,,,,,,,1,,,,76,100
266948,note_on,12,0,13,,,,,,,,,12,,,,57,0
266952,note_on,12,0,14,,,,,,,,,13,,,,52,0
266960,control_change,12,0,13,,,,,,,,,12,11,46,,,
266962,control_change,21,0,1,,,,,,,,,0,11,50,,,
266964,control_change,12,0,14,,,,,,,,,13,11,46,,,
266965,control_change,21,0,2,,,,,,,,,1,11,50,,,
266977,control_change,15,0,1,,,,,,,,,0,11,52,,,
266980,control_change,15,0,2,,,,,,,,,1,11,52,,,
266984,control_change,24,0,13,,,,,,,,,12,11,48,,,
266988,control_change,24,0,14,,,,,,,,,13,11,48,,,
266998,control_change,21,0,1,,,,,,,,,0,11,54,,,
266999,note_on,1,0,1,,,,,,,,,0,,,,88,0
266999,note_on,0,0,1,,,,,,,,,0,,,,81,0
267000,set_tempo,120,1,0,,,,,,330579,,,,,,,,
267000,note_on,240,0,11,,,,,,,,,10,,,,61,0
267000,note_on,0,0,11,,,,,,,,,10,,,,69,0
267001,control_change,21,0,2,,,,,,,,,1,11,54,,,
267001,note_on,2,0,1,,,,,,,,,0,,,,88,101
267001,note_on,0,0,1,,,,,,,,,0,,,,81,101
267002,note_on,0,0,2,,,,,,,,,1,,,,76,0
267002,note_on,1,0,2,,,,,,,,,1,,,,85,0
267003,note_on,240,0,12,,,,,,,,,11,,,,64,0
267004,note_on,0,0,2,,,,,,,,,1,,,,85,100
267004,note_on,2,0,2,,,,,,,,,1,,,,76,100
267008,note_on,24,0,13,,,,,,,,,12,,,,61,112
267008,control_change,0,0,13,,,,,,,,,12,11,50,,,
267012,note_on,0,0,14,,,,,,,,,13,,,,57,112
267012,control_change,24,0,14,,,,,,,,,13,11,50,,,
267013,control_change,12,0,1,,,,,,,,,0,11,55,,,
267014,note_on,240,0,15,,,,,,,,,14,,,,40,0
267016,control_change,12,0,2,,,,,,,,,1,11,55,,,
267032,control_change,24,0,13,,,,,,,,,12,11,52,,,
267034,control_change,21,0,1,,,,,,,,,0,11,58,,,
267036,control_change,24,0,14,,,,,,,,,13,11,52,,,
267037,control_change,21,0,2,,,,,,,,,1,11,58,,,
267049,control_change,15,0,1,,,,,,,,,0,11,59,,,
267052,control_change,15,0,2,,,,,,,,,1,11,59,,,
267056,control_change,24,0,13,,,,,,,,,12,11,54,,,
267060,control_change,24,0,14,,,,,,,,,13,11,54,,,
267068,note_on,12,0,13,,,,,,,,,12,,,,61,0
267070,control_change,21,0,1,,,,,,,,,0,11,61,,,
267072,note_on,12,0,14,,,,,,,,,13,,,,57,0
267073,control_change,21,0,2,,,,,,,,,1,11,61,,,
267080,control_change,12,0,13,,,,,,,,,12,11,56,,,
267084,control_change,12,0,14,,,,,,,,,13,11,56,,,
267085,control_change,15,0,1,,,,,,,,,0,11,63,,,
267088,control_change,15,0,2,,,,,,,,,1,11,63,,,
267104,control_change,24,0,13,,,,,,,,,12,11,57,,,
267106,control_change,21,0,1,,,,,,,,,0,11,65,,,
267108,control_change,24,0,14,,,,,,,,,13,11,57,,,
267109,control_change,21,0,2,,,,,,,,,1,11,65,,,
267116,note_on,0,0,1,,,,,,,,,0,,,,88,0
267116,note_on,10,0,1,,,,,,,,,0,,,,81,0
267119,note_on,10,0,2,,,,,,,,,1,,,,85,0
267119,note_on,0,0,2,,,,,,,,,1,,,,76,0
267120,note_on,120,0,11,,,,,,,,,10,,,,64,93
267120,set_tempo,120,1,0,,,,,,285714,,,,,,,,
267120,control_change,0,0,11,,,,,,,,,10,11,41,,,
267121,note_on,5,0,1,,,,,,,,,0,,,,88,101
267121,note_on,0,0,1,,,,,,,,,0,,,,81,101
267121,control_change,0,0,1,,,,,,,,,0,11,67,,,
267123,note_on,0,0,12,,,,,,,,,11,,,,61,93
267123,control_change,120,0,12,,,,,,,,,11,11,41,,,
267124,control_change,0,0,2,,,,,,,,,1,11,67,,,
267124,note_on,0,0,2,,,,,,,,,1,,,,76,100
267124,note_on,5,0,2,,,,,,,,,1,,,,85,100
267125,control_change,360,0,3,,,,,,,,,2,11,52,,,
267127,control_change,360,0,8,,,,,,,,,7,11,52,,,
267128,note_on,0,0,13,,,,,,,,,12,,,,64,112
267128,control_change,24,0,13,,,,,,,,,12,11,59,,,
267129,control_change,360,0,4,,,,,,,,,3,11,52,,,
267132,note_on,0,0,14,,,,,,,,,13,,,,61,112
267132,control_change,24,0,14,,,,,,,,,13,11,59,,,
267144,control_change,24,0,11,,,,,,,,,10,11,42,,,
267147,control_change,24,0,12,,,,,,,,,11,11,42,,,
267153,control_change,28,0,3,,,,,,,,,2,11,53,,,
267155,control_change,28,0,8,,,,,,,,,7,11,54,,,
267157,control_change,28,0,4,,,,,,,,,3,11,54,,,
267168,control_change,24,0,11,,,,,,,,,10,11,44,,,
267168,control_change,15,0,3,,,,,,,,,2,11,54,,,
267170,control_change,15,0,8,,,,,,,,,7,11,55,,,
267171,control_change,24,0,12,,,,,,,,,11,11,44,,,
267172,control_change,15,0,4,,,,,,,,,3,11,55,,,
267180,note_on,12,0,11,,,,,,,,,10,,,,64,0
267183,note_on,12,0,12,,,,,,,,,11,,,,61,0
267192,control_change,12,0,11,,,,,,,,,10,11,46,,,
267195,control_change,12,0,12,,,,,,,,,11,11,46,,,
267197,control_change,29,0,3,,,,,,,,,2,11,55,,,
267199,control_change,29,0,8,,,,,,,,,7,11,57,,,
267201,control_change,29,0,4,,,,,,,,,3,11,57,,,
267216,control_change,24,0,11,,,,,,,,,10,11,48,,,
267219,control_change,24,0,12,,,,,,,,,11,11,48,,,
267225,control_change,28,0,3,,,,,,,,,2,11,57,,,
267227,control_change,28,0,8,,,,,,,,,7,11,59,,,
267229,control_change,28,0,4,,,,,,,,,3,11,59,,,
267240,note_on,24,0,11,,,,,,,,,10,,,,69,93
267240,control_change,0,0,11,,,,,,,,,10,11,50,,,
267240,set_tempo,120,1,0,,,,,,300000,,,,,,,,
267240,control_change,15,0,3,,,,,,,,,2,11,58,,,
267242,control_change,15,0,8,,,,,,,,,7,11,60,,,
267243,control_change,24,0,12,,,,,,,,,11,11,50,,,
267243,note_on,0,0,12,,,,,,,,,11,,,,64,93
267244,control_change,15,0,4,,,,,,,,,3,11,60,,,
267245,note_on,5,0,3,,,,,,,,,2,,,,73,101
267264,control_change,24,0,11,,,,,,,,,10,11,52,,,
267267,control_change,24,0,12,,,,,,,,,11,11,52,,,
267269,control_change,24,0,3,,,,,,,,,2,11,59,,,
267271,control_change,29,0,8,,,,,,,,,7,11,62,,,
267273,control_change,29,0,4,,,,,,,,,3,11,62,,,
267288,control_change,24,0,11,,,,,,,,,10,11,54,,,
267291,control_change,24,0,12,,,,,,,,,11,11,54,,,
267297,control_change,28,0,3,,,,,,,,,2,11,61,,,
267299,control_change,28,0,8,,,,,,,,,7,11,64,,,
267300,note_on,12,0,11,,,,,,,,,10,,,,69,0
267301,control_change,28,0,4,,,,,,,,,3,11,64,,,
267303,note_on,12,0,12,,,,,,,,,11,,,,64,0
267312,control_change,12,0,11,,,,,,,,,10,11,56,,,
267312,control_change,15,0,3,,,,,,,,,2,11,61,,,
267314,note_on,300,0,15,,,,,,,,,14,,,,40,112
267314,control_change,15,0,8,,,,,,,,,7,11,65,,,
267315,control_change,12,0,12,,,,,,,,,11,11,56,,,
267316,control_change,15,0,4,,,,,,,,,3,11,65,,,
267336,control_change,24,0,11,,,,,,,,,10,11,57,,,
267339,control_change,24,0,12,,,,,,,,,11,11,57,,,
267341,control_change,29,0,3,,,,,,,,,2,11,63,,,
267343,control_change,29,0,8,,,,,,,,,7,11,67,,,
267345,control_change,29,0,4,,,,,,,,,3,11,67,,,
267360,set_tempo,120,1,0,,,,,,330579,,,,,,,,
267360,note_on,24,0,11,,,,,,,,,10,,,,73,93
267360,control_change,0,0,11,,,,,,,,,10,11,59,,,
267361,note_on,240,0,1,,,,,,,,,0,,,,81,0
267361,note_on,0,0,1,,,,,,,,,0,,,,88,0
267363,control_change,0,0,12,,,,,,,,,11,11,59,,,
267363,note_on,24,0,12,,,,,,,,,11,,,,69,93
267364,note_on,240,0,2,,,,,,,,,1,,,,76,0
267364,note_on,0,0,2,,,,,,,,,1,,,,85,0
267365,note_on,0,0,3,,,,,,,,,2,,,,73,101
267365,note_on,0,0,3,,,,,,,,,2,,,,69,0
267365,note_on,24,0,3,,,,,,,,,2,,,,73,0
267365,note_on,0,0,3,,,,,,,,,2,,,,76,101
267367,note_on,24,0,8,,,,,,,,,7,,,,69,0
267367,note_on,0,0,8,,,,,,,,,7,,,,69,110
267368,note_on,240,0,13,,,,,,,,,12,,,,64,0
267369,control_change,4,0,3,,,,,,,,,2,11,64,,,
267369,note_on,24,0,4,,,,,,,,,3,,,,64,100
267371,control_change,4,0,8,,,,,,,,,7,11,69,,,
267372,note_on,240,0,14,,,,,,,,,13,,,,61,0
267373,control_change,4,0,4,,,,,,,,,3,11,69,,,
267374,note_on,60,0,15,,,,,,,,,14,,,,40,0
267374,note_on,0,0,15,,,,,,,,,14,,,,40,112
267384,control_change,15,0,3,,,,,,,,,2,11,65,,,
267386,control_change,15,0,8,,,,,,,,,7,11,70,,,
267388,control_change,15,0,4,,,,,,,,,3,11,70,,,
267413,control_change,29,0,3,,,,,,,,,2,11,67,,,
267415,control_change,29,0,8,,,,,,,,,7,11,72,,,
267417,control_change,29,0,4,,,,,,,,,3,11,72,,,
267420,note_on,60,0,11,,,,,,,,,10,,,,73,0
267423,note_on,60,0,12,,,,,,,,,11,,,,69,0
267441,control_change,28,0,3,,,,,,,,,2,11,68,,,
267443,control_change,28,0,8,,,,,,,,,7,11,74,,,
267445,control_change,28,0,4,,,,,,,,,3,11,74,,,
267456,control_change,15,0,3,,,,,,,,,2,11,69,,,
267458,control_change,15,0,8,,,,,,,,,7,11,75,,,
267460,control_change,15,0,4,,,,,,,,,3,11,75,,,
267480,note_on,0,0,11,,,,,,,,,10,,,,76,104
267480,set_tempo,120,1,0,,,,,,285714,,,,,,,,
267480,note_on,0,0,11,,,,,,,,,10,,,,68,104
267480,control_change,60,0,11,,,,,,,,,10,11,59,,,
267483,control_change,60,0,12,,,,,,,,,11,11,59,,,
267483,note_on,0,0,12,,,,,,,,,11,,,,64,104
267483,note_on,0,0,12,,,,,,,,,11,,,,73,104
267483,control_change,0,0,5,,,,,,,,,4,11,57,,,
267483,note_on,4200,0,5,,,,,,,,,4,,,,52,115
267485,control_change,0,0,3,,,,,,,,,2,11,70,,,
267485,note_on,0,0,3,,,,,,,,,2,,,,73,116
267485,note_on,29,0,3,,,,,,,,,2,,,,76,0
267485,note_on,0,0,3,,,,,,,,,2,,,,76,116
267485,note_on,0,0,3,,,,,,,,,2,,,,73,0
267487,note_on,29,0,8,,,,,,,,,7,,,,69,0
267487,control_change,0,0,8,,,,,,,,,7,11,77,,,
267487,note_on,0,0,8,,,,,,,,,7,,,,56,125
267487,note_on,0,0,8,,,,,,,,,7,,,,68,125
267489,control_change,0,0,4,,,,,,,,,3,11,77,,,
267489,note_on,0,0,4,,,,,,,,,3,,,,61,115
267489,note_on,0,0,4,,,,,,,,,3,,,,64,115
267489,note_on,29,0,4,,,,,,,,,3,,,,64,0
267489,note_on,0,0,4,,,,,,,,,3,,,,61,0
267494,note_on,0,0,15,,,,,,,,,14,,,,40,112
267494,note_on,120,0,15,,,,,,,,,14,,,,40,0
267504,control_change,24,0,11,,,,,,,,,10,11,57,,,
267507,control_change,24,0,12,,,,,,,,,11,11,57,,,
267528,control_change,24,0,11,,,,,,,,,10,11,56,,,
267531,control_change,24,0,12,,,,,,,,,11,11,56,,,
267552,control_change,24,0,11,,,,,,,,,10,11,54,,,
267555,control_change,24,0,12,,,,,,,,,11,11,54,,,
267576,control_change,24,0,11,,,,,,,,,10,11,52,,,
267579,control_change,24,0,12,,,,,,,,,11,11,52,,,
267600,control_change,24,0,11,,,,,,,,,10,11,50,,,
267600,set_tempo,120,1,0,,,,,,300000,,,,,,,,
267603,control_change,24,0,12,,,,,,,,,11,11,50,,,
267608,control_change,240,0,13,,,,,,,,,12,11,59,,,
267608,note_on,0,0,13,,,,,,,,,12,,,,56,112
267612,note_on,0,0,14,,,,,,,,,13,,,,52,112
267612,control_change,240,0,14,,,,,,,,,13,11,59,,,
267624,control_change,24,0,11,,,,,,,,,10,11,48,,,
267627,control_change,24,0,12,,,,,,,,,11,11,48,,,
267632,control_change,24,0,13,,,,,,,,,12,11,57,,,
267636,control_change,24,0,14,,,,,,,,,13,11,58,,,
267648,control_change,24,0,11,,,,,,,,,10,11,46,,,
267651,control_change,24,0,12,,,,,,,,,11,11,46,,,
267656,control_change,24,0,13,,,,,,,,,12,11,56,,,
267660,control_change,24,0,14,,,,,,,,,13,11,57,,,
267661,note_on,300,0,1,,,,,,,,,0,,,,88,101
267661,note_on,0,0,1,,,,,,,,,0,,,,80,101
267661,control_change,0,0,1,,,,,,,,,0,11,67,,,
267664,note_on,0,0,2,,,,,,,,,1,,,,85,100
267664,control_change,0,0,2,,,,,,,,,1,11,67,,,
267664,note_on,300,0,2,,,,,,,,,1,,,,76,100
267668,note_on,12,0,13,,,,,,,,,12,,,,56,0
267672,note_on,12,0,14,,,,,,,,,13,,,,52,0
267672,control_change,24,0,11,,,,,,,,,10,11,44,,,
267675,control_change,24,0,12,,,,,,,,,11,11,44,,,
267679,control_change,18,0,1,,,,,,,,,0,11,66,,,
267680,control_change,12,0,13,,,,,,,,,12,11,54,,,
267682,control_change,18,0,2,,,,,,,,,1,11,66,,,
267684,control_change,12,0,14,,,,,,,,,13,11,57,,,
267696,control_change,24,0,11,,,,,,,,,10,11,42,,,
267697,control_change,18,0,1,,,,,,,,,0,11,65,,,
267699,control_change,24,0,12,,,,,,,,,11,11,42,,,
267700,control_change,18,0,2,,,,,,,,,1,11,65,,,
267704,control_change,24,0,13,,,,,,,,,12,11,52,,,
267708,control_change,24,0,14,,,,,,,,,13,11,56,,,
267715,control_change,18,0,1,,,,,,,,,0,11,64,,,
267718,control_change,18,0,2,,,,,,,,,1,11,64,,,
267719,note_on,4,0,1,,,,,,,,,0,,,,80,0
267719,note_on,0,0,1,,,,,,,,,0,,,,88,0
267720,control_change,0,0,11,,,,,,,,,10,11,41,,,
267720,note_on,0,0,11,,,,,,,,,10,,,,68,0
267720,note_on,24,0,11,,,,,,,,,10,,,,76,0
267720,set_tempo,120,1,0,,,,,,330579,,,,,,,,
267721,note_on,0,0,1,,,,,,,,,0,,,,80,101
267721,note_on,2,0,1,,,,,,,,,0,,,,88,101
267722,note_on,4,0,2,,,,,,,,,1,,,,85,0
267722,note_on,0,0,2,,,,,,,,,1,,,,76,0
267723,note_on,0,0,12,,,,,,,,,11,,,,73,0
267723,note_on,24,0,12,,,,,,,,,11,,,,64,0
267723,control_change,0,0,12,,,,,,,,,11,11,41,,,
267724,note_on,2,0,2,,,,,,,,,1,,,,85,100
267724,note_on,0,0,2,,,,,,,,,1,,,,76,100
267728,note_on,24,0,13,,,,,,,,,12,,,,61,112
267728,control_change,0,0,13,,,,,,,,,12,11,50,,,
267732,note_on,24,0,14,,,,,,,,,13,,,,56,112
267732,control_change,0,0,14,,,,,,,,,13,11,55,,,
267733,control_change,12,0,1,,,,,,,,,0,11,64,,,
267734,note_on,240,0,15,,,,,,,,,14,,,,40,0
267736,control_change,12,0,2,,,,,,,,,1,11,64,,,
267751,control_change,18,0,1,,,,,,,,,0,11,63,,,
267752,control_change,24,0,13,,,,,,,,,12,11,48,,,
267754,control_change,18,0,2,,,,,,,,,1,11,63,,,
267756,control_change,24,0,14,,,,,,,,,13,11,54,,,
267769,control_change,18,0,1,,,,,,,,,0,11,62,,,
267772,control_change,18,0,2,,,,,,,,,1,11,62,,,
267776,control_change,24,0,13,,,,,,,,,12,11,46,,,
267780,control_change,24,0,14,,,,,,,,,13,11,53,,,
267787,control_change,18,0,1,,,,,,,,,0,11,61,,,
267788,note_on,12,0,13,,,,,,,,,12,,,,61,0
267790,control_change,18,0,2,,,,,,,,,1,11,61,,,
267792,note_on,12,0,14,,,,,,,,,13,,,,56,0
267800,control_change,12,0,13,,,,,,,,,12,11,44,,,
267804,control_change,12,0,14,,,,,,,,,13,11,52,,,
267805,control_change,18,0,1,,,,,,,,,0,11,61,,,
267808,control_change,18,0,2,,,,,,,,,1,11,61,,,
267823,control_change,18,0,1,,,,,,,,,0,11,60,,,
267824,control_change,24,0,13,,,,,,,,,12,11,42,,,
267826,control_change,18,0,2,,,,,,,,,1,11,60,,,
267828,control_change,24,0,14,,,,,,,,,13,11,51,,,
267836,note_on,13,0,1,,,,,,,,,0,,,,80,0
267836,note_on,0,0,1,,,,,,,,,0,,,,88,0
267839,note_on,0,0,2,,,,,,,,,1,,,,85,0
267839,note_on,13,0,2,,,,,,,,,1,,,,76,0
267840,note_on,120,0,11,,,,,,,,,10,,,,64,93
267840,set_tempo,120,1,0,,,,,,285714,,,,,,,,
267841,note_on,5,0,1,,,,,,,,,0,,,,80,101
267841,note_on,0,0,1,,,,,,,,,0,,,,88,101
267841,control_change,0,0,1,,,,,,,,,0,11,59,,,
267843,note_on,120,0,12,,,,,,,,,11,,,,61,93
267844,note_on,5,0,2,,,,,,,,,1,,,,85,100
267844,control_change,0,0,2,,,,,,,,,1,11,59,,,
267844,note_on,0,0,2,,,,,,,,,1,,,,76,100
267848,note_on,24,0,13,,,,,,,,,12,,,,64,112
267848,control_change,0,0,13,,,,,,,,,12,11,41,,,
267852,control_change,0,0,14,,,,,,,,,13,11,50,,,
267852,note_on,24,0,14,,,,,,,,,13,,,,61,112
267876,control_change,24,0,14,,,,,,,,,13,11,49,,,
267900,note_on,60,0,11,,,,,,,,,10,,,,64,0
267900,control_change,24,0,14,,,,,,,,,13,11,48,,,
267903,note_on,60,0,12,,,,,,,,,11,,,,61,0
267924,control_change,24,0,14,,,,,,,,,13,11,47,,,
267948,control_change,24,0,14,,,,,,,,,13,11,46,,,
267960,note_on,60,0,11,,,,,,,,,10,,,,68,93
267960,set_tempo,120,1,0,,,,,,300000,,,,,,,,
267963,note_on,60,0,12,,,,,,,,,11,,,,64,93
267972,control_change,24,0,14,,,,,,,,,13,11,45,,,
267996,control_change,24,0,14,,,,,,,,,13,11,44,,,
268020,note_on,60,0,11,,,,,,,,,10,,,,68,0
268020,control_change,24,0,14,,,,,,,,,13,11,43,,,
268023,note_on,60,0,12,,,,,,,,,11,,,,64,0
268034,note_on,300,0,15,,,,,,,,,14,,,,40,112
268044,control_change,24,0,14,,,,,,,,,13,11,42,,,
268068,control_change,24,0,14,,,,,,,,,13,11,42,,,
268080,note_on,60,0,11,,,,,,,,,10,,,,71,93
268080,set_tempo,120,1,0,,,,,,330579,,,,,,,,
268083,note_on,60,0,12,,,,,,,,,11,,,,68,93
268084,note_on,0,0,2,,,,,,,,,1,,,,80,100
268084,note_on,240,0,2,,,,,,,,,1,,,,85,0
268085,note_on,600,0,3,,,,,,,,,2,,,,73,0
268085,note_on,0,0,3,,,,,,,,,2,,,,76,0
268085,note_on,0,0,3,,,,,,,,,2,,,,71,101
268085,note_on,0,0,3,,,,,,,,,2,,,,74,101
268089,note_on,600,0,4,,,,,,,,,3,,,,64,0
268089,note_on,0,0,4,,,,,,,,,3,,,,61,0
268089,note_on,0,0,4,,,,,,,,,3,,,,59,100
268089,note_on,0,0,4,,,,,,,,,3,,,,62,100
268092,control_change,0,0,14,,,,,,,,,13,11,41,,,
268092,note_on,0,0,14,,,,,,,,,13,,,,62,112
268092,note_on,24,0,14,,,,,,,,,13,,,,61,0
268094,note_on,60,0,15,,,,,,,,,14,,,,40,0
268094,note_on,0,0,15,,,,,,,,,14,,,,40,112
268140,note_on,60,0,11,,,,,,,,,10,,,,71,0
268143,note_on,60,0,12,,,,,,,,,11,,,,68,0
268152,note_on,60,0,14,,,,,,,,,13,,,,62,0
268200,set_tempo,120,1,0,,,,,,285714,,,,,,,,
268200,note_on,60,0,11,,,,,,,,,10,,,,64,93
268200,note_on,0,0,11,,,,,,,,,10,,,,73,93
268201,note_on,360,0,1,,,,,,,,,0,,,,88,0
268201,note_on,0,0,1,,,,,,,,,0,,,,80,0
268203,note_on,0,0,5,,,,,,,,,4,,,,57,100
268203,note_on,720,0,5,,,,,,,,,4,,,,52,0
268203,note_on,60,0,12,,,,,,,,,11,,,,69,93
268204,note_on,0,0,2,,,,,,,,,1,,,,76,0
268204,note_on,120,0,2,,,,,,,,,1,,,,80,0
268205,note_on,0,0,3,,,,,,,,,2,,,,73,101
268205,note_on,0,0,3,,,,,,,,,2,,,,71,0
268205,note_on,120,0,3,,,,,,,,,2,,,,74,0
268205,note_on,0,0,3,,,,,,,,,2,,,,69,101
268207,note_on,720,0,8,,,,,,,,,7,,,,68,0
268207,note_on,0,0,8,,,,,,,,,7,,,,57,110
268207,note_on,0,0,8,,,,,,,,,7,,,,56,0
268207,note_on,0,0,8,,,,,,,,,7,,,,69,110
268208,note_on,360,0,13,,,,,,,,,12,,,,64,0
268209,note_on,120,0,4,,,,,,,,,3,,,,62,0
268209,note_on,0,0,4,,,,,,,,,3,,,,59,0
268209,note_on,0,0,4,,,,,,,,,3,,,,61,100
268209,note_on,0,0,4,,,,,,,,,3,,,,57,100
268214,note_on,0,0,15,,,,,,,,,14,,,,45,112
268214,note_on,120,0,15,,,,,,,,,14,,,,40,0
268320,set_tempo,120,1,0,,,,,,300000,,,,,,,,
268323,note_on,120,0,5,,,,,,,,,4,,,,57,0
268328,note_on,120,0,13,,,,,,,,,12,,,,52,112
268332,note_on,180,0,14,,,,,,,,,13,,,,49,112
268381,note_on,180,0,1,,,,,,,,,0,,,,85,101
268381,note_on,0,0,1,,,,,,,,,0,,,,81,101
268384,note_on,0,0,2,,,,,,,,,1,,,,81,100
268384,note_on,180,0,2,,,,,,,,,1,,,,69,100
268388,note_on,60,0,13,,,,,,,,,12,,,,52,0
268392,note_on,60,0,14,,,,,,,,,13,,,,49,0
268439,note_on,58,0,1,,,,,,,,,0,,,,81,0
268439,note_on,0,0,1,,,,,,,,,0,,,,85,0
268440,set_tempo,120,1,0,,,,,,330579,,,,,,,,
268440,note_on,240,0,11,,,,,,,,,10,,,,73,0
268440,note_on,0,0,11,,,,,,,,,10,,,,64,0
268441,note_on,2,0,1,,,,,,,,,0,,,,81,101
268441,note_on,0,0,1,,,,,,,,,0,,,,85,101
268442,note_on,58,0,2,,,,,,,,,1,,,,81,0
268442,note_on,0,0,2,,,,,,,,,1,,,,69,0
268443,note_on,240,0,12,,,,,,,,,11,,,,69,0
268444,note_on,0,0,2,,,,,,,,,1,,,,69,100
268444,note_on,2,0,2,,,,,,,,,1,,,,76,100
268448,note_on,60,0,13,,,,,,,,,12,,,,57,112
268452,note_on,60,0,14,,,,,,,,,13,,,,52,112
268454,note_on,240,0,15,,,,,,,,,14,,,,45,0
268508,note_on,60,0,13,,,,,,,,,12,,,,57,0
268512,note_on,60,0,14,,,,,,,,,13,,,,52,0
268556,note_on,115,0,1,,,,,,,,,0,,,,85,0
268556,note_on,0,0,1,,,,,,,,,0,,,,81,0
268559,note_on,0,0,2,,,,,,,,,1,,,,76,0
268559,note_on,115,0,2,,,,,,,,,1,,,,69,0
268560,note_on,0,0,11,,,,,,,,,10,,,,61,93
268560,control_change,120,0,11,,,,,,,,,10,11,59,,,
268560,set_tempo,120,1,0,,,,,,285714,,,,,,,,
268561,note_on,0,0,1,,,,,,,,,0,,,,85,101
268561,note_on,5,0,1,,,,,,,,,0,,,,81,101
268563,note_on,120,0,12,,,,,,,,,11,,,,57,93
268563,control_change,0,0,12,,,,,,,,,11,11,59,,,
268564,note_on,5,0,2,,,,,,,,,1,,,,76,100
268564,note_on,0,0,2,,,,,,,,,1,,,,69,100
268568,note_on,60,0,13,,,,,,,,,12,,,,61,112
268572,note_on,60,0,14,,,,,,,,,13,,,,57,112
268576,control_change,16,0,11,,,,,,,,,10,11,60,,,
268579,control_change,16,0,12,,,,,,,,,11,11,60,,,
268592,control_change,16,0,11,,,,,,,,,10,11,61,,,
268595,control_change,16,0,12,,,,,,,,,11,11,61,,,
268608,control_change,16,0,11,,,,,,,,,10,11,62,,,
268611,control_change,16,0,12,,,,,,,,,11,11,62,,,
268620,note_on,12,0,11,,,,,,,,,10,,,,61,0
268623,note_on,12,0,12,,,,,,,,,11,,,,57,0
268624,control_change,4,0,11,,,,,,,,,10,11,63,,,
268627,control_change,4,0,12,,,,,,,,,11,11,63,,,
268640,control_change,16,0,11,,,,,,,,,10,11,64,,,
268643,control_change,16,0,12,,,,,,,,,11,11,64,,,
268656,control_change,16,0,11,,,,,,,,,10,11,65,,,
268659,control_change,16,0,12,,,,,,,,,11,11,65,,,
268672,control_change,16,0,11,,,,,,,,,10,11,66,,,
268675,control_change,16,0,12,,,,,,,,,11,11,66,,,
268680,note_on,8,0,11,,,,,,,,,10,,,,64,93
268680,set_tempo,120,1,0,,,,,,300000,,,,,,,,
268683,note_on,8,0,12,,,,,,,,,11,,,,61,93
268685,note_on,0,0,3,,,,,,,,,2,,,,69,0
268685,note_on,480,0,3,,,,,,,,,2,,,,73,0
268687,note_on,480,0,8,,,,,,,,,7,,,,57,0
268687,note_on,0,0,8,,,,,,,,,7,,,,69,0
268688,control_change,8,0,11,,,,,,,,,10,11,67,,,
268689,note_on,480,0,4,,,,,,,,,3,,,,57,0
268689,note_on,0,0,4,,,,,,,,,3,,,,61,0
268691,control_change,8,0,12,,,,,,,,,11,11,67,,,
268704,control_change,16,0,11,,,,,,,,,10,11,68,,,
268707,control_change,16,0,12,,,,,,,,,11,11,68,,,
268720,control_change,16,0,11,,,,,,,,,10,11,69,,,
268723,control_change,16,0,12,,,,,,,,,11,11,69,,,
268736,control_change,16,0,11,,,,,,,,,10,11,70,,,
268739,control_change,16,0,12,,,,,,,,,11,11,70,,,
268740,note_on,4,0,11,,,,,,,,,10,,,,64,0
268743,note_on,4,0,12,,,,,,,,,11,,,,61,0
268752,control_change,12,0,11,,,,,,,,,10,11,71,,,
268754,note_on,300,0,15,,,,,,,,,14,,,,45,112
268755,control_change,12,0,12,,,,,,,,,11,11,71,,,
268768,control_change,16,0,11,,,,,,,,,10,11,72,,,
268771,control_change,16,0,12,,,,,,,,,11,11,72,,,
268784,control_change,16,0,11,,,,,,,,,10,11,72,,,
268787,control_change,16,0,12,,,,,,,,,11,11,72,,,
268800,control_change,16,0,11,,,,,,,,,10,11,73,,,
268800,note_on,0,0,11,,,,,,,,,10,,,,69,93
268800,set_tempo,120,1,0,,,,,,330579,,,,,,,,
268801,note_on,240,0,1,,,,,,,,,0,,,,85,0
268801,note_on,0,0,1,,,,,,,,,0,,,,81,0
268803,control_change,16,0,12,,,,,,,,,11,11,73,,,
268803,note_on,0,0,12,,,,,,,,,11,,,,64,93
268804,note_on,0,0,2,,,,,,,,,1,,,,76,0
268804,note_on,240,0,2,,,,,,,,,1,,,,69,0
268808,note_on,240,0,13,,,,,,,,,12,,,,61,0
268812,note_on,240,0,14,,,,,,,,,13,,,,57,0
268814,note_on,60,0,15,,,,,,,,,14,,,,45,0
268814,note_on,0,0,15,,,,,,,,,14,,,,44,112
268860,note_on,60,0,11,,,,,,,,,10,,,,69,0
268861,control_change,0,0,1,,,,,,,,,0,11,78,,,
268861,note_on,0,0,1,,,,,,,,,0,,,,81,101
268861,note_on,60,0,1,,,,,,,,,0,,,,85,101
268863,note_on,60,0,12,,,,,,,,,11,,,,64,0
268864,note_on,0,0,2,,,,,,,,,1,,,,73,100
268864,note_on,0,0,2,,,,,,,,,1,,,,78,100
268864,control_change,60,0,2,,,,,,,,,1,11,78,,,
268865,control_change,180,0,3,,,,,,,,,2,11,78,,,
268865,note_on,0,0,3,,,,,,,,,2,,,,69,101
268865,note_on,0,0,3,,,,,,,,,2,,,,66,101
268869,note_on,180,0,4,,,,,,,,,3,,,,61,100
268869,note_on,0,0,4,,,,,,,,,3,,,,57,100
268869,control_change,0,0,4,,,,,,,,,3,11,87,,,
268920,control_change,60,0,11,,,,,,,,,10,11,83,,,
268920,note_on,0,0,11,,,,,,,,,10,,,,66,93
268920,note_on,0,0,11,,,,,,,,,10,,,,73,93
268920,set_tempo,120,1,0,,,,,,285714,,,,,,,,
268921,note_on,60,0,1,,,,,,,,,0,,,,81,0
268921,note_on,0,0,1,,,,,,,,,0,,,,85,0
268921,note_on,0,0,1,,,,,,,,,0,,,,81,101
268921,note_on,0,0,1,,,,,,,,,0,,,,85,101
268923,note_on,60,0,12,,,,,,,,,11,,,,69,93
268923,note_on,0,0,12,,,,,,,,,11,,,,61,93
268923,control_change,0,0,12,,,,,,,,,11,11,83,,,
268924,note_on,0,0,2,,,,,,,,,1,,,,78,100
268924,note_on,0,0,2,,,,,,,,,1,,,,73,0
268924,note_on,60,0,2,,,,,,,,,1,,,,78,0
268924,note_on,0,0,2,,,,,,,,,1,,,,73,100
268925,note_on,0,0,3,,,,,,,,,2,,,,69,101
268925,note_on,0,0,3,,,,,,,,,2,,,,66,101
268925,note_on,0,0,3,,,,,,,,,2,,,,69,0
268925,note_on,60,0,3,,,,,,,,,2,,,,66,0
268929,note_on,0,0,4,,,,,,,,,3,,,,57,100
268929,note_on,0,0,4,,,,,,,,,3,,,,61,0
268929,note_on,60,0,4,,,,,,,,,3,,,,57,0
268929,note_on,0,0,4,,,,,,,,,3,,,,61,100
268933,control_change,0,0,9,,,,,,,,,8,11,82,,,
268933,note_on,7680,0,9,,,,,,,,,8,,,,54,110
268934,note_on,0,0,15,,,,,,,,,14,,,,42,112
268934,control_change,0,0,15,,,,,,,,,14,11,83,,,
268934,note_on,120,0,15,,,,,,,,,14,,,,44,0
269040,set_tempo,120,1,0,,,,,,300000,,,,,,,,
269048,note_on,0,0,13,,,,,,,,,12,,,,57,112
269048,control_change,240,0,13,,,,,,,,,12,11,83,,,
269052,control_change,0,0,14,,,,,,,,,13,11,83,,,
269052,note_on,240,0,14,,,,,,,,,13,,,,54,112
269103,control_change,0,0,5,,,,,,,,,4,11,82,,,
269103,note_on,780,0,5,,,,,,,,,4,,,,57,100
269104,control_change,5820,0,6,,,,,,,,,5,11,82,,,
269104,note_on,0,0,6,,,,,,,,,5,,,,57,100
269107,note_on,0,0,8,,,,,,,,,7,,,,57,110
269107,control_change,0,0,8,,,,,,,,,7,11,82,,,
269107,note_on,420,0,8,,,,,,,,,7,,,,66,110
269108,note_on,60,0,13,,,,,,,,,12,,,,57,0
269112,note_on,60,0,14,,,,,,,,,13,,,,54,0
269160,note_on,240,0,11,,,,,,,,,10,,,,66,0
269160,note_on,0,0,11,,,,,,,,,10,,,,73,0
269160,set_tempo,120,1,0,,,,,,315789,,,,,,,,
269163,note_on,0,0,5,,,,,,,,,4,,,,57,100
269163,note_on,0,0,12,,,,,,,,,11,,,,69,0
269163,note_on,240,0,12,,,,,,,,,11,,,,61,0
269163,note_on,60,0,5,,,,,,,,,4,,,,57,0
269164,note_on,60,0,6,,,,,,,,,5,,,,57,0
269164,note_on,0,0,6,,,,,,,,,5,,,,57,100
269167,note_on,60,0,8,,,,,,,,,7,,,,57,0
269167,note_on,0,0,8,,,,,,,,,7,,,,66,0
269167,note_on,0,0,8,,,,,,,,,7,,,,66,110
269167,note_on,0,0,8,,,,,,,,,7,,,,57,110
269168,note_on,60,0,13,,,,,,,,,12,,,,61,112
269172,note_on,60,0,14,,,,,,,,,13,,,,57,112
269173,note_on,240,0,9,,,,,,,,,8,,,,54,0
269174,note_on,240,0,15,,,,,,,,,14,,,,42,0
269228,note_on,60,0,13,,,,,,,,,12,,,,61,0
269232,note_on,60,0,14,,,,,,,,,13,,,,57,0
269280,set_tempo,120,1,0,,,,,,285714,,,,,,,,
269280,note_on,120,0,11,,,,,,,,,10,,,,61,93
269283,note_on,0,0,5,,,,,,,,,4,,,,57,100
269283,note_on,120,0,5,,,,,,,,,4,,,,57,0
269283,note_on,120,0,12,,,,,,,,,11,,,,57,93
269284,note_on,120,0,6,,,,,,,,,5,,,,57,0
269284,note_on,0,0,6,,,,,,,,,5,,,,57,100
269287,note_on,0,0,8,,,,,,,,,7,,,,57,110
269287,note_on,0,0,8,,,,,,,,,7,,,,66,110
269287,note_on,0,0,8,,,,,,,,,7,,,,66,0
269287,note_on,120,0,8,,,,,,,,,7,,,,57,0
269288,note_on,60,0,13,,,,,,,,,12,,,,66,112
269288,note_on,0,0,13,,,,,,,,,12,,,,57,112
269292,note_on,60,0,14,,,,,,,,,13,,,,61,112
269340,note_on,60,0,11,,,,,,,,,10,,,,61,0
269343,note_on,60,0,12,,,,,,,,,11,,,,57,0
269400,set_tempo,120,1,0,,,,,,300000,,,,,,,,
269400,note_on,60,0,11,,,,,,,,,10,,,,66,93
269403,note_on,60,0,12,,,,,,,,,11,,,,61,93
269460,note_on,60,0,11,,,,,,,,,10,,,,66,0
269463,note_on,60,0,12,,,,,,,,,11,,,,61,0
269473,note_on,300,0,9,,,,,,,,,8,,,,54,110
269474,note_on,300,0,15,,,,,,,,,14,,,,42,112
269520,note_on,60,0,11,,,,,,,,,10,,,,69,93
269520,set_tempo,120,1,0,,,,,,315789,,,,,,,,
269523,note_on,240,0,5,,,,,,,,,4,,,,57,0
269523,note_on,60,0,12,,,,,,,,,11,,,,66,93
269524,note_on,240,0,6,,,,,,,,,5,,,,57,0
269527,note_on,0,0,8,,,,,,,,,7,,,,66,0
269527,note_on,240,0,8,,,,,,,,,7,,,,57,0
269528,note_on,240,0,13,,,,,,,,,12,,,,57,0
269528,note_on,0,0,13,,,,,,,,,12,,,,66,0
269532,note_on,240,0,14,,,,,,,,,13,,,,61,0
269533,note_on,60,0,9,,,,,,,,,8,,,,54,0
269533,note_on,0,0,9,,,,,,,,,8,,,,54,110
269534,note_on,60,0,15,,,,,,,,,14,,,,42,0
269534,note_on,0,0,15,,,,,,,,,14,,,,42,112
269580,note_on,60,0,11,,,,,,,,,10,,,,69,0
269581,note_on,0,0,1,,,,,,,,,0,,,,81,101
269581,note_on,0,0,1,,,,,,,,,0,,,,81,0
269581,note_on,660,0,1,,,,,,,,,0,,,,85,0
269581,note_on,0,0,1,,,,,,,,,0,,,,85,101
269583,note_on,60,0,12,,,,,,,,,11,,,,66,0
269584,note_on,660,0,2,,,,,,,,,1,,,,73,0
269584,note_on,0,0,2,,,,,,,,,1,,,,78,0
269584,note_on,0,0,2,,,,,,,,,1,,,,73,100
269584,note_on,0,0,2,,,,,,,,,1,,,,78,100
269585,note_on,660,0,3,,,,,,,,,2,,,,69,0
269585,note_on,0,0,3,,,,,,,,,2,,,,66,0
269585,note_on,0,0,3,,,,,,,,,2,,,,66,101
269585,note_on,0,0,3,,,,,,,,,2,,,,69,101
269589,note_on,0,0,4,,,,,,,,,3,,,,57,100
269589,note_on,0,0,4,,,,,,,,,3,,,,61,100
269589,note_on,0,0,4,,,,,,,,,3,,,,57,0
269589,note_on,660,0,4,,,,,,,,,3,,,,61,0
269640,set_tempo,120,1,0,,,,,,285714,,,,,,,,
269640,note_on,60,0,11,,,,,,,,,10,,,,66,93
269640,note_on,0,0,11,,,,,,,,,10,,,,73,93
269641,note_on,0,0,1,,,,,,,,,0,,,,85,0
269641,note_on,0,0,1,,,,,,,,,0,,,,85,101
269641,note_on,60,0,1,,,,,,,,,0,,,,81,0
269641,note_on,0,0,1,,,,,,,,,0,,,,81,101
269643,note_on,60,0,12,,,,,,,,,11,,,,61,93
269643,note_on,0,0,12,,,,,,,,,11,,,,69,93
269644,note_on,60,0,2,,,,,,,,,1,,,,73,0
269644,note_on,0,0,2,,,,,,,,,1,,,,73,100
269644,note_on,0,0,2,,,,,,,,,1,,,,78,100
269644,note_on,0,0,2,,,,,,,,,1,,,,78,0
269645,note_on,0,0,3,,,,,,,,,2,,,,66,101
269645,note_on,60,0,3,,,,,,,,,2,,,,69,0
269645,note_on,0,0,3,,,,,,,,,2,,,,69,101
269645,note_on,0,0,3,,,,,,,,,2,,,,66,0
269649,note_on,60,0,4,,,,,,,,,3,,,,57,0
269649,note_on,0,0,4,,,,,,,,,3,,,,61,0
269649,note_on,0,0,4,,,,,,,,,3,,,,61,100
269649,note_on,0,0,4,,,,,,,,,3,,,,57,100
269653,note_on,120,0,9,,,,,,,,,8,,,,54,0
269653,note_on,0,0,9,,,,,,,,,8,,,,54,110
269654,note_on,120,0,15,,,,,,,,,14,,,,42,0
269654,note_on,0,0,15,,,,,,,,,14,,,,42,112
269760,set_tempo,120,1,0,,,,,,300000,,,,,,,,
269768,control_change,0,0,13,,,,,,,,,12,11,83,,,
269768,note_on,240,0,13,,,,,,,,,12,,,,57,112
269772,control_change,240,0,14,,,,,,,,,13,11,83,,,
269772,note_on,0,0,14,,,,,,,,,13,,,,54,112
269792,control_change,24,0,13,,,,,,,,,12,11,85,,,
269796,control_change,24,0,14,,,,,,,,,13,11,85,,,
269816,control_change,24,0,13,,,,,,,,,12,11,87,,,
269820,control_change,24,0,14,,,,,,,,,13,11,87,,,
269823,note_on,300,0,5,,,,,,,,,4,,,,57,100
269824,note_on,300,0,6,,,,,,,,,5,,,,57,100
269827,note_on,300,0,8,,,,,,,,,7,,,,66,110
269827,note_on,0,0,8,,,,,,,,,7,,,,57,110
269828,note_on,12,0,13,,,,,,,,,12,,,,57,0
269832,note_on,12,0,14,,,,,,,,,13,,,,54,0
269840,control_change,12,0,13,,,,,,,,,12,11,88,,,
269844,control_change,12,0,14,,,,,,,,,13,11,88,,,
269864,control_change,24,0,13,,,,,,,,,12,11,90,,,
269868,control_change,24,0,14,,,,,,,,,13,11,90,,,
269880,note_on,0,0,11,,,,,,,,,10,,,,66,0
269880,note_on,240,0,11,,,,,,,,,10,,,,73,0
269880,set_tempo,120,1,0,,,,,,315789,,,,,,,,
269881,note_on,0,0,1,,,,,,,,,0,,,,81,101
269881,note_on,0,0,1,,,,,,,,,0,,,,85,101
269881,note_on,0,0,1,,,,,,,,,0,,,,85,0
269881,note_on,240,0,1,,,,,,,,,0,,,,81,0
269883,note_on,60,0,5,,,,,,,,,4,,,,57,0
269883,note_on,0,0,12,,,,,,,,,11,,,,61,0
269883,note_on,0,0,5,,,,,,,,,4,,,,57,100
269883,note_on,240,0,12,,,,,,,,,11,,,,69,0
269884,note_on,0,0,2,,,,,,,,,1,,,,73,100
269884,note_on,0,0,2,,,,,,,,,1,,,,78,0
269884,note_on,240,0,2,,,,,,,,,1,,,,73,0
269884,note_on,60,0,6,,,,,,,,,5,,,,57,0
269884,note_on,0,0,2,,,,,,,,,1,,,,78,100
269884,note_on,0,0,6,,,,,,,,,5,,,,57,100
269885,note_on,0,0,3,,,,,,,,,2,,,,66,101
269885,note_on,0,0,3,,,,,,,,,2,,,,69,101
269885,note_on,0,0,3,,,,,,,,,2,,,,66,0
269885,note_on,240,0,3,,,,,,,,,2,,,,69,0
269887,note_on,0,0,8,,,,,,,,,7,,,,66,110
269887,note_on,0,0,8,,,,,,,,,7,,,,57,110
269887,note_on,0,0,8,,,,,,,,,7,,,,66,0
269887,note_on,60,0,8,,,,,,,,,7,,,,57,0
269888,control_change,24,0,13,,,,,,,,,12,11,92,,,
269888,note_on,0,0,13,,,,,,,,,12,,,,61,112
269889,note_on,240,0,4,,,,,,,,,3,,,,57,0
269889,note_on,0,0,4,,,,,,,,,3,,,,61,0
269889,note_on,0,0,4,,,,,,,,,3,,,,61,100
269889,note_on,0,0,4,,,,,,,,,3,,,,57,100
269892,control_change,0,0,14,,,,,,,,,13,11,92,,,
269892,note_on,24,0,14,,,,,,,,,13,,,,57,112
269893,note_on,240,0,9,,,,,,,,,8,,,,54,0
269894,note_on,240,0,15,,,,,,,,,14,,,,42,0
269912,control_change,24,0,13,,,,,,,,,12,11,94,,,
269916,control_change,24,0,14,,,,,,,,,13,11,94,,,
269936,control_change,24,0,13,,,,,,,,,12,11,96,,,
269940,control_change,24,0,14,,,,,,,,,13,11,96,,,
269948,note_on,12,0,13,,,,,,,,,12,,,,61,0
269952,note_on,12,0,14,,,,,,,,,13,,,,57,0
269960,control_change,12,0,13,,,,,,,,,12,11,98,,,
269964,control_change,12,0,14,,,,,,,,,13,11,98,,,
269984,control_change,24,0,13,,,,,,,,,12,11,100,,,
269988,control_change,24,0,14,,,,,,,,,13,11,100,,,
270000,note_on,120,0,11,,,,,,,,,10,,,,67,93
270000,set_tempo,120,1,0,,,,,,285714,,,,,,,,
270001,note_on,0,0,1,,,,,,,,,0,,,,85,0
270001,control_change,0,0,1,,,,,,,,,0,11,78,,,
270001,note_on,0,0,1,,,,,,,,,0,,,,85,101
270001,note_on,0,0,1,,,,,,,,,0,,,,81,101
270001,note_on,120,0,1,,,,,,,,,0,,,,81,0
270003,note_on,120,0,12,,,,,,,,,11,,,,61,93
270003,note_on,0,0,5,,,,,,,,,4,,,,57,100
270003,note_on,120,0,5,,,,,,,,,4,,,,57,0
270004,note_on,120,0,6,,,,,,,,,5,,,,57,0
270004,note_on,0,0,6,,,,,,,,,5,,,,57,100
270004,note_on,120,0,2,,,,,,,,,1,,,,78,0
270004,note_on,0,0,2,,,,,,,,,1,,,,73,0
270004,note_on,0,0,2,,,,,,,,,1,,,,79,100
270004,note_on,0,0,2,,,,,,,,,1,,,,73,100
270004,control_change,0,0,2,,,,,,,,,1,11,78,,,
270005,control_change,0,0,3,,,,,,,,,2,11,78,,,
270005,note_on,0,0,3,,,,,,,,,2,,,,69,101
270005,note_on,120,0,3,,,,,,,,,2,,,,66,0
270005,note_on,0,0,3,,,,,,,,,2,,,,69,0
270005,note_on,0,0,3,,,,,,,,,2,,,,67,101
270007,note_on,0,0,8,,,,,,,,,7,,,,67,110
270007,note_on,0,0,8,,,,,,,,,7,,,,57,110
270007,note_on,0,0,8,,,,,,,,,7,,,,57,0
270007,note_on,120,0,8,,,,,,,,,7,,,,66,0
270008,note_on,0,0,13,,,,,,,,,12,,,,67,112
270008,note_on,24,0,13,,,,,,,,,12,,,,57,112
270008,control_change,0,0,13,,,,,,,,,12,11,102,,,
270009,note_on,120,0,4,,,,,,,,,3,,,,57,0
270009,note_on,0,0,4,,,,,,,,,3,,,,61,0
270009,note_on,0,0,4,,,,,,,,,3,,,,55,100
270009,control_change,0,0,4,,,,,,,,,3,11,87,,,
270009,note_on,0,0,4,,,,,,,,,3,,,,61,100
270012,control_change,24,0,14,,,,,,,,,13,11,102,,,
270012,note_on,0,0,14,,,,,,,,,13,,,,61,112
270019,control_change,18,0,1,,,,,,,,,0,11,79,,,
270022,control_change,18,0,2,,,,,,,,,1,11,79,,,
270023,control_change,18,0,3,,,,,,,,,2,11,79,,,
270027,control_change,18,0,4,,,,,,,,,3,11,88,,,
270037,control_change,18,0,1,,,,,,,,,0,11,80,,,
270040,control_change,18,0,2,,,,,,,,,1,11,80,,,
270041,control_change,18,0,3,,,,,,,,,2,11,80,,,
270045,control_change,18,0,4,,,,,,,,,3,11,89,,,
270055,control_change,18,0,1,,,,,,,,,0,11,80,,,
270058,control_change,18,0,2,,,,,,,,,1,11,80,,,
270059,control_change,18,0,3,,,,,,,,,2,11,80,,,
270060,note_on,60,0,11,,,,,,,,,10,,,,67,0
270063,note_on,60,0,12,,,,,,,,,11,,,,61,0
270063,control_change,18,0,4,,,,,,,,,3,11,90,,,
270073,control_change,18,0,1,,,,,,,,,0,11,81,,,
270076,control_change,18,0,2,,,,,,,,,1,11,81,,,
270077,control_change,18,0,3,,,,,,,,,2,11,81,,,
270081,control_change,18,0,4,,,,,,,,,3,11,91,,,
270091,control_change,18,0,1,,,,,,,,,0,11,82,,,
270094,control_change,18,0,2,,,,,,,,,1,11,82,,,
270095,control_change,18,0,3,,,,,,,,,2,11,82,,,
270099,control_change,18,0,4,,,,,,,,,3,11,92,,,
270109,control_change,18,0,1,,,,,,,,,0,11,83,,,
270112,control_change,18,0,2,,,,,,,,,1,11,83,,,
270113,control_change,18,0,3,,,,,,,,,2,11,83,,,
270117,control_change,18,0,4,,,,,,,,,3,11,93,,,
270120,set_tempo,120,1,0,,,,,,300000,,,,,,,,
270120,note_on,60,0,11,,,,,,,,,10,,,,69,93
270121,note_on,0,0,1,,,,,,,,,0,,,,83,101
270121,note_on,12,0,1,,,,,,,,,0,,,,85,0
270123,note_on,60,0,12,,,,,,,,,11,,,,67,93
270124,note_on,12,0,2,,,,,,,,,1,,,,73,0
270124,note_on,0,0,2,,,,,,,,,1,,,,71,100
270127,control_change,6,0,1,,,,,,,,,0,11,83,,,
270129,note_on,12,0,4,,,,,,,,,3,,,,61,0
270129,note_on,0,0,4,,,,,,,,,3,,,,59,100
270130,control_change,6,0,2,,,,,,,,,1,11,83,,,
270131,control_change,18,0,3,,,,,,,,,2,11,83,,,
270135,control_change,6,0,4,,,,,,,,,3,11,94,,,
270145,control_change,18,0,1,,,,,,,,,0,11,84,,,
270148,control_change,18,0,2,,,,,,,,,1,11,84,,,
270149,control_change,18,0,3,,,,,,,,,2,11,84,,,
270153,control_change,18,0,4,,,,,,,,,3,11,95,,,
270163,control_change,18,0,1,,,,,,,,,0,11,85,,,
270166,control_change,18,0,2,,,,,,,,,1,11,85,,,
270167,control_change,18,0,3,,,,,,,,,2,11,85,,,
270171,control_change,18,0,4,,,,,,,,,3,11,96,,,
270180,note_on,60,0,11,,,,,,,,,10,,,,69,0
270181,control_change,18,0,1,,,,,,,,,0,11,86,,,
270183,note_on,60,0,12,,,,,,,,,11,,,,67,0
270184,control_change,18,0,2,,,,,,,,,1,11,86,,,
270185,control_change,18,0,3,,,,,,,,,2,11,86,,,
270189,control_change,18,0,4,,,,,,,,,3,11,97,,,
270193,note_on,300,0,9,,,,,,,,,8,,,,52,110
270194,note_on,300,0,15,,,,,,,,,14,,,,40,112
270199,control_change,18,0,1,,,,,,,,,0,11,86,,,
270202,control_change,18,0,2,,,,,,,,,1,11,86,,,
270203,control_change,18,0,3,,,,,,,,,2,11,86,,,
270207,control_change,18,0,4,,,,,,,,,3,11,98,,,
270217,control_change,18,0,1,,,,,,,,,0,11,87,,,
270220,control_change,18,0,2,,,,,,,,,1,11,87,,,
270221,control_change,18,0,3,,,,,,,,,2,11,87,,,
270225,control_change,18,0,4,,,,,,,,,3,11,99,,,
270235,control_change,18,0,1,,,,,,,,,0,11,88,,,
270238,control_change,18,0,2,,,,,,,,,1,11,88,,,
270239,control_change,18,0,3,,,,,,,,,2,11,88,,,
270240,set_tempo,120,1,0,,,,,,315789,,,,,,,,
270240,note_on,60,0,11,,,,,,,,,10,,,,73,93
270241,note_on,0,0,1,,,,,,,,,0,,,,81,0
270241,note_on,0,0,1,,,,,,,,,0,,,,81,101
270241,note_on,6,0,1,,,,,,,,,0,,,,83,0
270243,control_change,18,0,4,,,,,,,,,3,11,100,,,
270243,note_on,60,0,12,,,,,,,,,11,,,,69,93
270243,note_on,240,0,5,,,,,,,,,4,,,,57,0
270244,note_on,0,0,2,,,,,,,,,1,,,,79,100
270244,note_on,240,0,6,,,,,,,,,5,,,,57,0
270244,note_on,0,0,2,,,,,,,,,1,,,,79,0
270244,note_on,6,0,2,,,,,,,,,1,,,,71,0
270244,note_on,0,0,2,,,,,,,,,1,,,,69,100
270245,note_on,0,0,3,,,,,,,,,2,,,,67,101
270245,note_on,0,0,3,,,,,,,,,2,,,,69,101
270245,note_on,0,0,3,,,,,,,,,2,,,,67,0
270245,note_on,6,0,3,,,,,,,,,2,,,,69,0
270247,note_on,240,0,8,,,,,,,,,7,,,,67,0
270247,note_on,0,0,8,,,,,,,,,7,,,,57,0
270248,note_on,0,0,13,,,,,,,,,12,,,,57,0
270248,note_on,240,0,13,,,,,,,,,12,,,,67,0
270249,note_on,0,0,4,,,,,,,,,3,,,,55,100
270249,note_on,6,0,4,,,,,,,,,3,,,,59,0
270249,note_on,0,0,4,,,,,,,,,3,,,,55,0
270249,note_on,0,0,4,,,,,,,,,3,,,,57,100
270252,note_on,240,0,14,,,,,,,,,13,,,,61,0
270253,note_on,0,0,9,,,,,,,,,8,,,,52,110
270253,note_on,60,0,9,,,,,,,,,8,,,,52,0
270253,control_change,12,0,1,,,,,,,,,0,11,89,,,
270254,note_on,0,0,15,,,,,,,,,14,,,,40,112
270254,note_on,60,0,15,,,,,,,,,14,,,,40,0
270256,control_change,12,0,2,,,,,,,,,1,11,89,,,
270257,control_change,12,0,3,,,,,,,,,2,11,89,,,
270261,control_change,12,0,4,,,,,,,,,3,11,101,,,
270271,control_change,18,0,1,,,,,,,,,0,11,89,,,
270274,control_change,18,0,2,,,,,,,,,1,11,89,,,
270275,control_change,18,0,3,,,,,,,,,2,11,89,,,
270279,control_change,18,0,4,,,,,,,,,3,11,102,,,
270289,control_change,18,0,1,,,,,,,,,0,11,90,,,
270292,control_change,18,0,2,,,,,,,,,1,11,90,,,
270293,control_change,18,0,3,,,,,,,,,2,11,90,,,
270297,control_change,18,0,4,,,,,,,,,3,11,103,,,
270300,note_on,60,0,11,,,,,,,,,10,,,,73,0
270303,note_on,60,0,12,,,,,,,,,11,,,,69,0
270307,control_change,18,0,1,,,,,,,,,0,11,91,,,
270310,control_change,18,0,2,,,,,,,,,1,11,91,,,
270311,control_change,18,0,3,,,,,,,,,2,11,91,,,
270315,control_change,18,0,4,,,,,,,,,3,11,104,,,
270325,control_change,18,0,1,,,,,,,,,0,11,92,,,
270328,control_change,18,0,2,,,,,,,,,1,11,92,,,
270329,control_change,18,0,3,,,,,,,,,2,11,92,,,
270333,control_change,18,0,4,,,,,,,,,3,11,105,,,
270343,control_change,18,0,1,,,,,,,,,0,11,92,,,
270346,control_change,18,0,2,,,,,,,,,1,11,92,,,
270347,control_change,18,0,3,,,,,,,,,2,11,92,,,
270351,control_change,18,0,4,,,,,,,,,3,11,106,,,
270360,note_on,60,0,11,,,,,,,,,10,,,,74,93
270360,note_on,0,0,11,,,,,,,,,10,,,,66,93
270360,set_tempo,120,1,0,,,,,,285714,,,,,,,,
270361,control_change,0,0,1,,,,,,,,,0,11,93,,,
270361,note_on,0,0,1,,,,,,,,,0,,,,81,101
270361,note_on,0,0,1,,,,,,,,,0,,,,86,101
270361,note_on,18,0,1,,,,,,,,,0,,,,81,0
270363,note_on,60,0,12,,,,,,,,,11,,,,69,93
270363,note_on,0,0,12,,,,,,,,,11,,,,62,93
270364,note_on,18,0,2,,,,,,,,,1,,,,69,0
270364,note_on,0,0,2,,,,,,,,,1,,,,79,0
270364,note_on,0,0,2,,,,,,,,,1,,,,78,100
270364,note_on,0,0,2,,,,,,,,,1,,,,74,100
270364,control_change,0,0,2,,,,,,,,,1,11,93,,,
270365,note_on,0,0,3,,,,,,,,,2,,,,66,101
270365,note_on,18,0,3,,,,,,,,,2,,,,67,0
270365,note_on,0,0,3,,,,,,,,,2,,,,69,0
270365,control_change,0,0,3,,,,,,,,,2,11,93,,,
270365,note_on,0,0,3,,,,,,,,,2,,,,69,101
270369,note_on,18,0,4,,,,,,,,,3,,,,55,0
270369,note_on,0,0,4,,,,,,,,,3,,,,57,0
270369,note_on,0,0,4,,,,,,,,,3,,,,54,100
270369,control_change,0,0,4,,,,,,,,,3,11,107,,,
270369,note_on,0,0,4,,,,,,,,,3,,,,62,100
270373,note_on,120,0,9,,,,,,,,,8,,,,52,0
270373,note_on,0,0,9,,,,,,,,,8,,,,50,110
270374,note_on,0,0,15,,,,,,,,,14,,,,38,112
270374,note_on,120,0,15,,,,,,,,,14,,,,40,0
270379,control_change,18,0,1,,,,,,,,,0,11,92,,,
270382,control_change,18,0,2,,,,,,,,,1,11,92,,,
270383,control_change,18,0,3,,,,,,,,,2,11,92,,,
270387,control_change,18,0,4,,,,,,,,,3,11,106,,,
270397,control_change,18,0,1,,,,,,,,,0,11,92,,,
270400,control_change,18,0,2,,,,,,,,,1,11,92,,,
270401,control_change,18,0,3,,,,,,,,,2,11,92,,,
270405,control_change,18,0,4,,,,,,,,,3,11,105,,,
270415,control_change,18,0,1,,,,,,,,,0,11,91,,,
270418,control_change,18,0,2,,,,,,,,,1,11,91,,,
270419,control_change,18,0,3,,,,,,,,,2,11,91,,,
270423,control_change,18,0,4,,,,,,,,,3,11,104,,,
270433,control_change,18,0,1,,,,,,,,,0,11,90,,,
270436,control_change,18,0,2,,,,,,,,,1,11,90,,,
270437,control_change,18,0,3,,,,,,,,,2,11,90,,,
270441,control_change,18,0,4,,,,,,,,,3,11,103,,,
270451,control_change,18,0,1,,,,,,,,,0,11,89,,,
270454,control_change,18,0,2,,,,,,,,,1,11,89,,,
270455,control_change,18,0,3,,,,,,,,,2,11,89,,,
270459,control_change,18,0,4,,,,,,,,,3,11,102,,,
270469,control_change,18,0,1,,,,,,,,,0,11,89,,,
270472,control_change,18,0,2,,,,,,,,,1,11,89,,,
270473,control_change,18,0,3,,,,,,,,,2,11,89,,,
270477,control_change,18,0,4,,,,,,,,,3,11,101,,,
270480,set_tempo,120,1,0,,,,,,300000,,,,,,,,
270487,control_change,18,0,1,,,,,,,,,0,11,88,,,
270488,note_on,240,0,13,,,,,,,,,12,,,,57,112
270488,control_change,0,0,13,,,,,,,,,12,11,102,,,
270490,control_change,18,0,2,,,,,,,,,1,11,88,,,
270491,control_change,18,0,3,,,,,,,,,2,11,88,,,
270492,control_change,240,0,14,,,,,,,,,13,11,102,,,
270492,note_on,0,0,14,,,,,,,,,13,,,,54,112
270495,control_change,18,0,4,,,,,,,,,3,11,100,,,
270505,control_change,18,0,1,,,,,,,,,0,11,87,,,
270508,control_change,18,0,2,,,,,,,,,1,11,87,,,
270509,control_change,18,0,3,,,,,,,,,2,11,87,,,
270512,control_change,24,0,13,,,,,,,,,12,11,100,,,
270513,control_change,18,0,4,,,,,,,,,3,11,99,,,
270516,control_change,24,0,14,,,,,,,,,13,11,100,,,
270523,control_change,18,0,1,,,,,,,,,0,11,86,,,
270526,control_change,18,0,2,,,,,,,,,1,11,86,,,
270527,control_change,18,0,3,,,,,,,,,2,11,86,,,
270531,control_change,18,0,4,,,,,,,,,3,11,98,,,
270536,control_change,24,0,13,,,,,,,,,12,11,98,,,
270540,control_change,24,0,14,,,,,,,,,13,11,98,,,
270541,control_change,18,0,1,,,,,,,,,0,11,86,,,
270543,note_on,300,0,5,,,,,,,,,4,,,,62,100
270544,control_change,18,0,2,,,,,,,,,1,11,86,,,
270544,note_on,300,0,6,,,,,,,,,5,,,,57,100
270545,control_change,18,0,3,,,,,,,,,2,11,86,,,
270547,note_on,0,0,8,,,,,,,,,7,,,,66,110
270547,note_on,300,0,8,,,,,,,,,7,,,,54,110
270548,note_on,12,0,13,,,,,,,,,12,,,,57,0
270549,control_change,18,0,4,,,,,,,,,3,11,97,,,
270552,note_on,12,0,14,,,,,,,,,13,,,,54,0
270559,control_change,18,0,1,,,,,,,,,0,11,85,,,
270560,control_change,12,0,13,,,,,,,,,12,11,96,,,
270562,control_change,18,0,2,,,,,,,,,1,11,85,,,
270563,control_change,18,0,3,,,,,,,,,2,11,85,,,
270564,control_change,12,0,14,,,,,,,,,13,11,96,,,
270567,control_change,18,0,4,,,,,,,,,3,11,96,,,
270577,control_change,18,0,1,,,,,,,,,0,11,84,,,
270580,control_change,18,0,2,,,,,,,,,1,11,84,,,
270581,control_change,18,0,3,,,,,,,,,2,11,84,,,
270584,control_change,24,0,13,,,,,,,,,12,11,94,,,
270585,control_change,18,0,4,,,,,,,,,3,11,95,,,
270588,control_change,24,0,14,,,,,,,,,13,11,94,,,
270595,control_change,18,0,1,,,,,,,,,0,11,83,,,
270598,control_change,18,0,2,,,,,,,,,1,11,83,,,
270599,control_change,18,0,3,,,,,,,,,2,11,83,,,
270600,note_on,240,0,11,,,,,,,,,10,,,,66,0
270600,note_on,0,0,11,,,,,,,,,10,,,,74,0
270600,set_tempo,120,1,0,,,,,,315789,,,,,,,,
270603,control_change,18,0,4,,,,,,,,,3,11,94,,,
270603,note_on,0,0,5,,,,,,,,,4,,,,62,100
270603,note_on,60,0,5,,,,,,,,,4,,,,62,0
270603,note_on,0,0,12,,,,,,,,,11,,,,69,0
270603,note_on,240,0,12,,,,,,,,,11,,,,62,0
270604,note_on,60,0,6,,,,,,,,,5,,,,57,0
270604,note_on,0,0,6,,,,,,,,,5,,,,57,100
270607,note_on,60,0,8,,,,,,,,,7,,,,66,0
270607,note_on,0,0,8,,,,,,,,,7,,,,66,110
270607,note_on,0,0,8,,,,,,,,,7,,,,54,0
270607,note_on,0,0,8,,,,,,,,,7,,,,54,110
270608,note_on,0,0,13,,,,,,,,,12,,,,62,112
270608,control_change,24,0,13,,,,,,,,,12,11,92,,,
270612,note_on,24,0,14,,,,,,,,,13,,,,57,112
270612,control_change,0,0,14,,,,,,,,,13,11,92,,,
270613,control_change,18,0,1,,,,,,,,,0,11,83,,,
270613,note_on,240,0,9,,,,,,,,,8,,,,50,0
270614,note_on,240,0,15,,,,,,,,,14,,,,38,0
270616,control_change,18,0,2,,,,,,,,,1,11,83,,,
270617,control_change,18,0,3,,,,,,,,,2,11,83,,,
270621,control_change,18,0,4,,,,,,,,,3,11,93,,,
270631,control_change,18,0,1,,,,,,,,,0,11,82,,,
270632,control_change,24,0,13,,,,,,,,,12,11,90,,,
270634,control_change,18,0,2,,,,,,,,,1,11,82,,,
270635,control_change,18,0,3,,,,,,,,,2,11,82,,,
270636,control_change,24,0,14,,,,,,,,,13,11,90,,,
270639,control_change,18,0,4,,,,,,,,,3,11,92,,,
270649,control_change,18,0,1,,,,,,,,,0,11,81,,,
270652,control_change,18,0,2,,,,,,,,,1,11,81,,,
270653,control_change,18,0,3,,,,,,,,,2,11,81,,,
270656,control_change,24,0,13,,,,,,,,,12,11,88,,,
270657,control_change,18,0,4,,,,,,,,,3,11,91,,,
270660,control_change,24,0,14,,,,,,,,,13,11,88,,,
270667,control_change,18,0,1,,,,,,,,,0,11,80,,,
270668,note_on,12,0,13,,,,,,,,,12,,,,62,0
270670,control_change,18,0,2,,,,,,,,,1,11,80,,,
270671,control_change,18,0,3,,,,,,,,,2,11,80,,,
270672,note_on,12,0,14,,,,,,,,,13,,,,57,0
270675,control_change,18,0,4,,,,,,,,,3,11,90,,,
270680,control_change,12,0,13,,,,,,,,,12,11,87,,,
270684,control_change,12,0,14,,,,,,,,,13,11,87,,,
270685,control_change,18,0,1,,,,,,,,,0,11,80,,,
270688,control_change,18,0,2,,,,,,,,,1,11,80,,,
270689,control_change,18,0,3,,,,,,,,,2,11,80,,,
270693,control_change,18,0,4,,,,,,,,,3,11,89,,,
270703,control_change,18,0,1,,,,,,,,,0,11,79,,,
270704,control_change,24,0,13,,,,,,,,,12,11,85,,,
270706,control_change,18,0,2,,,,,,,,,1,11,79,,,
270707,control_change,18,0,3,,,,,,,,,2,11,79,,,
270708,control_change,24,0,14,,,,,,,,,13,11,85,,,
270711,control_change,18,0,4,,,,,,,,,3,11,88,,,
270720,note_on,120,0,11,,,,,,,,,10,,,,66,93
270720,set_tempo,120,1,0,,,,,,285714,,,,,,,,
270721,control_change,18,0,1,,,,,,,,,0,11,78,,,
270723,note_on,120,0,12,,,,,,,,,11,,,,62,93
270723,note_on,0,0,5,,,,,,,,,4,,,,62,100
270723,note_on,120,0,5,,,,,,,,,4,,,,62,0
270724,control_change,18,0,2,,,,,,,,,1,11,78,,,
270724,note_on,0,0,6,,,,,,,,,5,,,,57,100
270724,note_on,120,0,6,,,,,,,,,5,,,,57,0
270725,control_change,18,0,3,,,,,,,,,2,11,78,,,
270727,note_on,0,0,8,,,,,,,,,7,,,,54,0
270727,note_on,0,0,8,,,,,,,,,7,,,,66,110
270727,note_on,120,0,8,,,,,,,,,7,,,,66,0
270727,note_on,0,0,8,,,,,,,,,7,,,,54,110
270728,control_change,0,0,13,,,,,,,,,12,11,83,,,
270728,note_on,0,0,13,,,,,,,,,12,,,,57,112
270728,note_on,24,0,13,,,,,,,,,12,,,,66,112
270729,control_change,18,0,4,,,,,,,,,3,11,87,,,
270732,control_change,24,0,14,,,,,,,,,13,11,83,,,
270732,note_on,0,0,14,,,,,,,,,13,,,,62,112
270780,note_on,60,0,11,,,,,,,,,10,,,,66,0
270783,note_on,60,0,12,,,,,,,,,11,,,,62,0
270840,set_tempo,120,1,0,,,,,,300000,,,,,,,,
270840,note_on,60,0,11,,,,,,,,,10,,,,69,93
270843,note_on,60,0,12,,,,,,,,,11,,,,66,93
270900,note_on,60,0,11,,,,,,,,,10,,,,69,0
270903,note_on,60,0,12,,,,,,,,,11,,,,66,0
270913,note_on,300,0,9,,,,,,,,,8,,,,50,110
270914,note_on,300,0,15,,,,,,,,,14,,,,38,112
270960,note_on,60,0,11,,,,,,,,,10,,,,74,93
270960,set_tempo,120,1,0,,,,,,355030,,,,,,,,
270963,note_on,240,0,5,,,,,,,,,4,,,,62,0
270963,note_on,60,0,12,,,,,,,,,11,,,,69,93
270964,note_on,240,0,6,,,,,,,,,5,,,,57,0
270967,note_on,0,0,8,,,,,,,,,7,,,,66,0
270967,note_on,240,0,8,,,,,,,,,7,,,,54,0
270968,note_on,240,0,13,,,,,,,,,12,,,,57,0
270968,note_on,0,0,13,,,,,,,,,12,,,,66,0
270972,note_on,240,0,14,,,,,,,,,13,,,,62,0
270973,note_on,60,0,9,,,,,,,,,8,,,,50,0
270973,note_on,0,0,9,,,,,,,,,8,,,,54,110
270974,note_on,60,0,15,,,,,,,,,14,,,,38,0
270974,note_on,0,0,15,,,,,,,,,14,,,,42,112
271020,note_on,60,0,11,,,,,,,,,10,,,,74,0
271023,note_on,60,0,12,,,,,,,,,11,,,,69,0
271080,note_on,0,0,11,,,,,,,,,10,,,,64,93
271080,set_tempo,120,1,0,,,,,,285714,,,,,,,,
271080,note_on,60,0,11,,,,,,,,,10,,,,73,93
271081,note_on,360,0,1,,,,,,,,,0,,,,86,0
271081,note_on,0,0,1,,,,,,,,,0,,,,85,101
271083,note_on,60,0,12,,,,,,,,,11,,,,61,93
271083,note_on,0,0,12,,,,,,,,,11,,,,69,93
271084,note_on,0,0,2,,,,,,,,,1,,,,78,0
271084,note_on,0,0,2,,,,,,,,,1,,,,73,100
271084,note_on,0,0,2,,,,,,,,,1,,,,76,100
271084,note_on,360,0,2,,,,,,,,,1,,,,74,0
271085,note_on,360,0,3,,,,,,,,,2,,,,66,0
271085,note_on,0,0,3,,,,,,,,,2,,,,64,101
271089,note_on,360,0,4,,,,,,,,,3,,,,62,0
271089,note_on,0,0,4,,,,,,,,,3,,,,61,100
271089,note_on,0,0,4,,,,,,,,,3,,,,54,0
271089,note_on,0,0,4,,,,,,,,,3,,,,57,100
271093,note_on,0,0,9,,,,,,,,,8,,,,57,110
271093,note_on,120,0,9,,,,,,,,,8,,,,54,0
271094,note_on,0,0,15,,,,,,,,,14,,,,45,112
271094,note_on,120,0,15,,,,,,,,,14,,,,42,0
271200,set_tempo,120,1,0,,,,,,300000,,,,,,,,
271208,note_on,240,0,13,,,,,,,,,12,,,,57,112
271212,note_on,240,0,14,,,,,,,,,13,,,,52,112
271263,note_on,300,0,5,,,,,,,,,4,,,,64,100
271264,note_on,300,0,6,,,,,,,,,5,,,,52,100
271267,note_on,0,0,8,,,,,,,,,7,,,,61,110
271267,note_on,300,0,8,,,,,,,,,7,,,,57,110
271268,note_on,60,0,13,,,,,,,,,12,,,,57,0
271272,note_on,60,0,14,,,,,,,,,13,,,,52,0
271320,note_on,0,0,11,,,,,,,,,10,,,,73,0
271320,set_tempo,120,1,0,,,,,,337079,,,,,,,,
271320,note_on,240,0,11,,,,,,,,,10,,,,64,0
271323,note_on,240,0,12,,,,,,,,,11,,,,69,0
271323,note_on,0,0,12,,,,,,,,,11,,,,61,0
271323,note_on,60,0,5,,,,,,,,,4,,,,64,0
271323,note_on,0,0,5,,,,,,,,,4,,,,64,100
271324,note_on,0,0,6,,,,,,,,,5,,,,52,100
271324,note_on,60,0,6,,,,,,,,,5,,,,52,0
271327,note_on,0,0,8,,,,,,,,,7,,,,61,110
271327,note_on,0,0,8,,,,,,,,,7,,,,57,110
271327,note_on,60,0,8,,,,,,,,,7,,,,61,0
271327,note_on,0,0,8,,,,,,,,,7,,,,57,0
271328,note_on,60,0,13,,,,,,,,,12,,,,61,112
271332,note_on,60,0,14,,,,,,,,,13,,,,57,112
271333,note_on,240,0,9,,,,,,,,,8,,,,57,0
271334,note_on,240,0,15,,,,,,,,,14,,,,45,0
271388,note_on,60,0,13,,,,,,,,,12,,,,61,0
271392,note_on,60,0,14,,,,,,,,,13,,,,57,0
271440,note_on,120,0,11,,,,,,,,,10,,,,64,93
271440,set_tempo,120,1,0,,,,,,285714,,,,,,,,
271443,note_on,0,0,5,,,,,,,,,4,,,,64,100
271443,note_on,120,0,5,,,,,,,,,4,,,,64,0
271443,note_on,120,0,12,,,,,,,,,11,,,,61,93
271444,note_on,120,0,6,,,,,,,,,5,,,,52,0
271444,note_on,0,0,6,,,,,,,,,5,,,,52,100
271447,note_on,0,0,8,,,,,,,,,7,,,,61,110
271447,note_on,0,0,8,,,,,,,,,7,,,,57,110
271447,note_on,0,0,8,,,,,,,,,7,,,,57,0
271447,note_on,120,0,8,,,,,,,,,7,,,,61,0
271448,note_on,60,0,13,,,,,,,,,12,,,,64,112
271452,note_on,60,0,14,,,,,,,,,13,,,,61,112
271500,note_on,60,0,11,,,,,,,,,10,,,,64,0
271503,note_on,60,0,12,,,,,,,,,11,,,,61,0
271560,set_tempo,120,1,0,,,,,,300000,,,,,,,,
271560,note_on,60,0,11,,,,,,,,,10,,,,69,93
271561,note_on,0,0,1,,,,,,,,,0,,,,81,0
271561,note_on,480,0,1,,,,,,,,,0,,,,85,0
271563,note_on,60,0,12,,,,,,,,,11,,,,64,93
271564,note_on,480,0,2,,,,,,,,,1,,,,76,0
271564,note_on,0,0,2,,,,,,,,,1,,,,73,0
271565,note_on,0,0,3,,,,,,,,,2,,,,69,0
271565,note_on,480,0,3,,,,,,,,,2,,,,64,0
271569,note_on,0,0,4,,,,,,,,,3,,,,57,0
271569,note_on,480,0,4,,,,,,,,,3,,,,61,0
271620,note_on,60,0,11,,,,,,,,,10,,,,69,0
271623,note_on,60,0,12,,,,,,,,,11,,,,64,0
271634,note_on,300,0,15,,,,,,,,,14,,,,33,112
271680,note_on,60,0,11,,,,,,,,,10,,,,73,93
271680,control_change,0,0,11,,,,,,,,,10,11,83,,,
271680,set_tempo,120,1,0,,,,,,356083,,,,,,,,
271683,note_on,0,0,12,,,,,,,,,11,,,,69,93
271683,note_on,240,0,5,,,,,,,,,4,,,,64,0
271683,control_change,60,0,12,,,,,,,,,11,11,83,,,
271684,control_change,0,0,2,,,,,,,,,1,11,47,,,
271684,note_on,120,0,2,,,,,,,,,1,,,,69,100
271684,note_on,240,0,6,,,,,,,,,5,,,,52,0
271684,note_on,0,0,2,,,,,,,,,1,,,,73,100
271685,control_change,120,0,3,,,,,,,,,2,11,47,,,
271685,note_on,0,0,3,,,,,,,,,2,,,,69,101
271687,note_on,0,0,8,,,,,,,,,7,,,,57,0
271687,note_on,240,0,8,,,,,,,,,7,,,,61,0
271688,note_on,240,0,13,,,,,,,,,12,,,,64,0
271689,note_on,120,0,4,,,,,,,,,3,,,,64,100
271689,control_change,0,0,4,,,,,,,,,3,11,47,,,
271692,note_on,240,0,14,,,,,,,,,13,,,,61,0
271694,control_change,14,0,11,,,,,,,,,10,11,80,,,
271694,note_on,60,0,15,,,,,,,,,14,,,,33,0
271694,note_on,0,0,15,,,,,,,,,14,,,,33,112
271694,control_change,0,0,15,,,,,,,,,14,11,83,,,
271697,control_change,14,0,12,,,,,,,,,11,11,80,,,
271708,control_change,14,0,11,,,,,,,,,10,11,77,,,
271708,control_change,14,0,15,,,,,,,,,14,11,80,,,
271711,control_change,14,0,12,,,,,,,,,11,11,77,,,
271722,control_change,14,0,15,,,,,,,,,14,11,77,,,
271722,control_change,14,0,11,,,,,,,,,10,11,74,,,
271725,control_change,14,0,12,,,,,,,,,11,11,74,,,
271736,control_change,14,0,15,,,,,,,,,14,11,74,,,
271737,control_change,15,0,11,,,,,,,,,10,11,72,,,
271740,note_on,3,0,11,,,,,,,,,10,,,,73,0
271740,control_change,15,0,12,,,,,,,,,11,11,72,,,
271743,note_on,3,0,12,,,,,,,,,11,,,,69,0
271751,control_change,15,0,15,,,,,,,,,14,11,72,,,
271751,control_change,11,0,11,,,,,,,,,10,11,69,,,
271754,control_change,11,0,12,,,,,,,,,11,11,69,,,
271765,control_change,14,0,11,,,,,,,,,10,11,66,,,
271765,control_change,14,0,15,,,,,,,,,14,11,69,,,
271768,control_change,14,0,12,,,,,,,,,11,11,66,,,
271779,control_change,14,0,15,,,,,,,,,14,11,66,,,
271779,control_change,14,0,11,,,,,,,,,10,11,63,,,
271782,control_change,14,0,12,,,,,,,,,11,11,63,,,
271793,control_change,14,0,15,,,,,,,,,14,11,63,,,
271794,control_change,15,0,11,,,,,,,,,10,11,60,,,
271797,control_change,15,0,12,,,,,,,,,11,11,60,,,
271800,note_on,6,0,11,,,,,,,,,10,,,,72,93
271800,control_change,0,0,11,,,,,,,,,10,11,41,,,
271800,set_tempo,120,1,0,,,,,,294118,,,,,,,,
271803,note_on,0,0,12,,,,,,,,,11,,,,63,93
271803,note_on,6,0,12,,,,,,,,,11,,,,69,93
271803,control_change,0,0,12,,,,,,,,,11,11,41,,,
271804,note_on,0,0,2,,,,,,,,,1,,,,69,0
271804,note_on,120,0,2,,,,,,,,,1,,,,73,0
271804,note_on,0,0,2,,,,,,,,,1,,,,69,100
271804,note_on,0,0,2,,,,,,,,,1,,,,72,100
271805,note_on,0,0,3,,,,,,,,,2,,,,72,101
271805,note_on,0,0,3,,,,,,,,,2,,,,69,101
271805,note_on,120,0,3,,,,,,,,,2,,,,69,0
271808,control_change,15,0,15,,,,,,,,,14,11,60,,,
271809,note_on,120,0,4,,,,,,,,,3,,,,64,0
271809,note_on,0,0,4,,,,,,,,,3,,,,63,100
271814,control_change,0,0,15,,,,,,,,,14,11,41,,,
271814,note_on,0,0,15,,,,,,,,,14,,,,41,112
271814,note_on,6,0,15,,,,,,,,,14,,,,33,0
271920,set_tempo,120,1,0,,,,,,307692,,,,,,,,
271928,control_change,240,0,13,,,,,,,,,12,11,41,,,
271928,note_on,0,0,13,,,,,,,,,12,,,,57,112
271932,control_change,240,0,14,,,,,,,,,13,11,41,,,
271932,note_on,0,0,14,,,,,,,,,13,,,,53,112
271983,note_on,300,0,5,,,,,,,,,4,,,,65,100
271983,control_change,0,0,5,,,,,,,,,4,11,47,,,
271984,control_change,0,0,6,,,,,,,,,5,11,47,,,
271984,note_on,300,0,6,,,,,,,,,5,,,,60,100
271987,note_on,300,0,8,,,,,,,,,7,,,,57,110
271987,note_on,0,0,8,,,,,,,,,7,,,,53,110
271987,control_change,0,0,8,,,,,,,,,7,11,47,,,
271988,note_on,60,0,13,,,,,,,,,12,,,,57,0
271992,note_on,60,0,14,,,,,,,,,13,,,,53,0
272040,note_on,240,0,11,,,,,,,,,10,,,,72,0
272040,set_tempo,120,1,0,,,,,,340909,,,,,,,,
272043,note_on,60,0,5,,,,,,,,,4,,,,65,0
272043,note_on,0,0,5,,,,,,,,,4,,,,65,100
272043,note_on,0,0,12,,,,,,,,,11,,,,69,0
272043,note_on,240,0,12,,,,,,,,,11,,,,63,0
272044,note_on,0,0,6,,,,,,,,,5,,,,60,100
272044,note_on,60,0,6,,,,,,,,,5,,,,60,0
272047,note_on,0,0,8,,,,,,,,,7,,,,53,110
272047,note_on,0,0,8,,,,,,,,,7,,,,57,0
272047,note_on,60,0,8,,,,,,,,,7,,,,53,0
272047,note_on,0,0,8,,,,,,,,,7,,,,57,110
272048,note_on,60,0,13,,,,,,,,,12,,,,60,112
272052,note_on,60,0,14,,,,,,,,,13,,,,57,112
272054,note_on,240,0,15,,,,,,,,,14,,,,41,0
272108,note_on,60,0,13,,,,,,,,,12,,,,60,0
272112,note_on,60,0,14,,,,,,,,,13,,,,57,0
272160,set_tempo,120,1,0,,,,,,294118,,,,,,,,
272160,note_on,120,0,11,,,,,,,,,10,,,,65,93
272163,note_on,120,0,12,,,,,,,,,11,,,,63,93
272163,note_on,120,0,5,,,,,,,,,4,,,,65,0
272163,note_on,0,0,5,,,,,,,,,4,,,,65,100
272164,note_on,0,0,6,,,,,,,,,5,,,,60,100
272164,note_on,120,0,6,,,,,,,,,5,,,,60,0
272167,note_on,0,0,8,,,,,,,,,7,,,,53,110
272167,note_on,0,0,8,,,,,,,,,7,,,,53,0
272167,note_on,0,0,8,,,,,,,,,7,,,,57,110
272167,note_on,120,0,8,,,,,,,,,7,,,,57,0
272168,note_on,60,0,13,,,,,,,,,12,,,,65,112
272172,note_on,60,0,14,,,,,,,,,13,,,,60,112
272220,note_on,60,0,11,,,,,,,,,10,,,,65,0
272223,note_on,60,0,12,,,,,,,,,11,,,,63,0
272280,note_on,60,0,11,,,,,,,,,10,,,,69,93
272280,set_tempo,120,1,0,,,,,,307692,,,,,,,,
272283,note_on,60,0,12,,,,,,,,,11,,,,65,93
272340,note_on,60,0,11,,,,,,,,,10,,,,69,0
272343,note_on,60,0,12,,,,,,,,,11,,,,65,0
272354,note_on,300,0,15,,,,,,,,,14,,,,41,112
272400,note_on,60,0,11,,,,,,,,,10,,,,74,93
272400,set_tempo,120,1,0,,,,,,340909,,,,,,,,
272403,note_on,60,0,12,,,,,,,,,11,,,,69,93
272403,note_on,240,0,5,,,,,,,,,4,,,,65,0
272404,note_on,600,0,2,,,,,,,,,1,,,,72,0
272404,note_on,0,0,2,,,,,,,,,1,,,,74,100
272404,note_on,240,0,6,,,,,,,,,5,,,,60,0
272405,note_on,600,0,3,,,,,,,,,2,,,,72,0
272405,note_on,0,0,3,,,,,,,,,2,,,,74,101
272407,note_on,240,0,8,,,,,,,,,7,,,,53,0
272407,note_on,0,0,8,,,,,,,,,7,,,,57,0
272408,note_on,240,0,13,,,,,,,,,12,,,,65,0
272409,note_on,600,0,4,,,,,,,,,3,,,,65,100
272412,note_on,240,0,14,,,,,,,,,13,,,,60,0
272414,note_on,0,0,15,,,,,,,,,14,,,,41,112
272414,note_on,60,0,15,,,,,,,,,14,,,,41,0
272460,note_on,60,0,11,,,,,,,,,10,,,,74,0
272463,note_on,60,0,12,,,,,,,,,11,,,,69,0
272520,set_tempo,120,1,0,,,,,,294118,,,,,,,,
272520,note_on,0,0,11,,,,,,,,,10,,,,62,93
272520,note_on,60,0,11,,,,,,,,,10,,,,70,93
272523,note_on,60,0,12,,,,,,,,,11,,,,65,93
272524,note_on,0,0,2,,,,,,,,,1,,,,69,0
272524,note_on,120,0,2,,,,,,,,,1,,,,74,0
272524,note_on,0,0,2,,,,,,,,,1,,,,70,100
272525,note_on,120,0,3,,,,,,,,,2,,,,74,0
272525,note_on,0,0,3,,,,,,,,,2,,,,69,0
272525,note_on,0,0,3,,,,,,,,,2,,,,70,101
272529,note_on,0,0,4,,,,,,,,,3,,,,62,100
272529,note_on,0,0,4,,,,,,,,,3,,,,63,0
272529,note_on,120,0,4,,,,,,,,,3,,,,65,0
272534,note_on,120,0,15,,,,,,,,,14,,,,41,0
272534,note_on,0,0,15,,,,,,,,,14,,,,41,112
272640,set_tempo,120,1,0,,,,,,307692,,,,,,,,
272648,note_on,240,0,13,,,,,,,,,12,,,,58,112
272652,note_on,240,0,14,,,,,,,,,13,,,,53,112
272703,note_on,300,0,5,,,,,,,,,4,,,,65,100
272704,note_on,300,0,6,,,,,,,,,5,,,,62,100
272707,note_on,300,0,8,,,,,,,,,7,,,,58,110
272707,note_on,0,0,8,,,,,,,,,7,,,,53,110
272708,note_on,60,0,13,,,,,,,,,12,,,,58,0
272712,note_on,60,0,14,,,,,,,,,13,,,,53,0
272760,note_on,240,0,11,,,,,,,,,10,,,,62,0
272760,set_tempo,120,1,0,,,,,,340909,,,,,,,,
272760,note_on,0,0,11,,,,,,,,,10,,,,70,0
272763,note_on,0,0,5,,,,,,,,,4,,,,65,100
272763,note_on,60,0,5,,,,,,,,,4,,,,65,0
272763,note_on,240,0,12,,,,,,,,,11,,,,65,0
272764,note_on,0,0,6,,,,,,,,,5,,,,62,100
272764,note_on,60,0,6,,,,,,,,,5,,,,62,0
272767,note_on,0,0,8,,,,,,,,,7,,,,58,0
272767,note_on,60,0,8,,,,,,,,,7,,,,53,0
272767,note_on,0,0,8,,,,,,,,,7,,,,58,110
272767,note_on,0,0,8,,,,,,,,,7,,,,53,110
272768,note_on,60,0,13,,,,,,,,,12,,,,62,112
272772,note_on,60,0,14,,,,,,,,,13,,,,58,112
272774,note_on,240,0,15,,,,,,,,,14,,,,41,0
272828,note_on,60,0,13,,,,,,,,,12,,,,62,0
272832,note_on,60,0,14,,,,,,,,,13,,,,58,0
272880,note_on,0,0,11,,,,,,,,,10,,,,65,93
272880,control_change,120,0,11,,,,,,,,,10,11,41,,,
272880,set_tempo,120,1,0,,,,,,294118,,,,,,,,
272881,control_change,1320,0,1,,,,,,,,,0,11,47,,,
272883,note_on,120,0,5,,,,,,,,,4,,,,65,0
272883,note_on,0,0,5,,,,,,,,,4,,,,65,100
272883,control_change,120,0,12,,,,,,,,,11,11,41,,,
272883,note_on,0,0,12,,,,,,,,,11,,,,62,93
272884,note_on,0,0,6,,,,,,,,,5,,,,62,100
272884,note_on,120,0,6,,,,,,,,,5,,,,62,0
272884,control_change,360,0,2,,,,,,,,,1,11,47,,,
272885,control_change,360,0,3,,,,,,,,,2,11,47,,,
272887,note_on,120,0,8,,,,,,,,,7,,,,58,0
272887,note_on,0,0,8,,,,,,,,,7,,,,53,0
272887,note_on,0,0,8,,,,,,,,,7,,,,53,110
272887,note_on,0,0,8,,,,,,,,,7,,,,58,110
272888,note_on,60,0,13,,,,,,,,,12,,,,65,112
272888,control_change,0,0,13,,,,,,,,,12,11,41,,,
272889,control_change,360,0,4,,,,,,,,,3,11,47,,,
272892,control_change,60,0,14,,,,,,,,,13,11,41,,,
272892,note_on,0,0,14,,,,,,,,,13,,,,62,112
272899,control_change,18,0,1,,,,,,,,,0,11,48,,,
272902,control_change,18,0,2,,,,,,,,,1,11,48,,,
272903,control_change,18,0,3,,,,,,,,,2,11,48,,,
272906,control_change,18,0,13,,,,,,,,,12,11,42,,,
272907,control_change,18,0,4,,,,,,,,,3,11,48,,,
272910,control_change,18,0,14,,,,,,,,,13,11,42,,,
272916,control_change,36,0,11,,,,,,,,,10,11,42,,,
272917,control_change,18,0,1,,,,,,,,,0,11,49,,,
272919,control_change,36,0,12,,,,,,,,,11,11,42,,,
272920,control_change,18,0,2,,,,,,,,,1,11,49,,,
272921,control_change,18,0,3,,,,,,,,,2,11,49,,,
272924,control_change,18,0,13,,,,,,,,,12,11,42,,,
272925,control_change,18,0,4,,,,,,,,,3,11,49,,,
272928,control_change,18,0,14,,,,,,,,,13,11,42,,,
272935,control_change,18,0,1,,,,,,,,,0,11,50,,,
272938,control_change,18,0,2,,,,,,,,,1,11,50,,,
272939,control_change,18,0,3,,,,,,,,,2,11,50,,,
272940,note_on,24,0,11,,,,,,,,,10,,,,65,0
272942,control_change,18,0,13,,,,,,,,,12,11,43,,,
272943,control_change,18,0,4,,,,,,,,,3,11,50,,,
272943,note_on,24,0,12,,,,,,,,,11,,,,62,0
272946,control_change,18,0,14,,,,,,,,,13,11,43,,,
272952,control_change,12,0,11,,,,,,,,,10,11,42,,,
272953,control_change,18,0,1,,,,,,,,,0,11,51,,,
272955,control_change,12,0,12,,,,,,,,,11,11,42,,,
272956,control_change,18,0,2,,,,,,,,,1,11,51,,,
272957,control_change,18,0,3,,,,,,,,,2,11,51,,,
272960,control_change,18,0,13,,,,,,,,,12,11,44,,,
272961,control_change,18,0,4,,,,,,,,,3,11,51,,,
272964,control_change,18,0,14,,,,,,,,,13,11,44,,,
272971,control_change,18,0,1,,,,,,,,,0,11,52,,,
272974,control_change,18,0,2,,,,,,,,,1,11,52,,,
272975,control_change,18,0,3,,,,,,,,,2,11,52,,,
272978,control_change,18,0,13,,,,,,,,,12,11,45,,,
272979,control_change,18,0,4,,,,,,,,,3,11,52,,,
272982,control_change,18,0,14,,,,,,,,,13,11,45,,,
272988,control_change,36,0,11,,,,,,,,,10,11,43,,,
272989,control_change,18,0,1,,,,,,,,,0,11,52,,,
272991,control_change,36,0,12,,,,,,,,,11,11,43,,,
272992,control_change,18,0,2,,,,,,,,,1,11,52,,,
272993,control_change,18,0,3,,,,,,,,,2,11,52,,,
272996,control_change,18,0,13,,,,,,,,,12,11,46,,,
272997,control_change,18,0,4,,,,,,,,,3,11,53,,,
273000,note_on,12,0,11,,,,,,,,,10,,,,70,93
273000,set_tempo,120,1,0,,,,,,307692,,,,,,,,
273000,control_change,18,0,14,,,,,,,,,13,11,46,,,
273003,note_on,12,0,12,,,,,,,,,11,,,,65,93
273004,note_on,12,0,2,,,,,,,,,1,,,,74,100
273007,control_change,18,0,1,,,,,,,,,0,11,53,,,
273010,control_change,6,0,2,,,,,,,,,1,11,53,,,
273011,control_change,18,0,3,,,,,,,,,2,11,53,,,
273014,control_change,18,0,13,,,,,,,,,12,11,47,,,
273015,control_change,18,0,4,,,,,,,,,3,11,54,,,
273018,control_change,18,0,14,,,,,,,,,13,11,47,,,
273024,control_change,24,0,11,,,,,,,,,10,11,44,,,
273025,control_change,18,0,1,,,,,,,,,0,11,54,,,
273027,control_change,24,0,12,,,,,,,,,11,11,44,,,
273028,control_change,18,0,2,,,,,,,,,1,11,54,,,
273029,control_change,18,0,3,,,,,,,,,2,11,54,,,
273032,control_change,18,0,13,,,,,,,,,12,11,48,,,
273033,control_change,18,0,4,,,,,,,,,3,11,55,,,
273036,control_change,18,0,14,,,,,,,,,13,11,48,,,
273043,control_change,18,0,1,,,,,,,,,0,11,55,,,
273046,control_change,18,0,2,,,,,,,,,1,11,55,,,
273047,control_change,18,0,3,,,,,,,,,2,11,55,,,
273050,control_change,18,0,13,,,,,,,,,12,11,49,,,
273051,control_change,18,0,4,,,,,,,,,3,11,56,,,
273054,control_change,18,0,14,,,,,,,,,13,11,49,,,
273060,note_on,36,0,11,,,,,,,,,10,,,,70,0
273060,control_change,0,0,11,,,,,,,,,10,11,45,,,
273061,control_change,18,0,1,,,,,,,,,0,11,55,,,
273063,note_on,36,0,12,,,,,,,,,11,,,,65,0
273063,control_change,0,0,12,,,,,,,,,11,11,45,,,
273064,control_change,18,0,2,,,,,,,,,1,11,55,,,
273065,control_change,18,0,3,,,,,,,,,2,11,55,,,
273068,control_change,18,0,13,,,,,,,,,12,11,50,,,
273069,control_change,18,0,4,,,,,,,,,3,11,57,,,
273072,control_change,18,0,14,,,,,,,,,13,11,50,,,
273074,note_on,300,0,15,,,,,,,,,14,,,,41,112
273079,control_change,18,0,1,,,,,,,,,0,11,56,,,
273082,control_change,18,0,2,,,,,,,,,1,11,56,,,
273083,control_change,18,0,3,,,,,,,,,2,11,56,,,
273086,control_change,18,0,13,,,,,,,,,12,11,51,,,
273087,control_change,18,0,4,,,,,,,,,3,11,58,,,
273090,control_change,18,0,14,,,,,,,,,13,11,51,,,
273096,control_change,36,0,11,,,,,,,,,10,11,46,,,
273097,control_change,18,0,1,,,,,,,,,0,11,57,,,
273099,control_change,36,0,12,,,,,,,,,11,11,46,,,
273100,control_change,18,0,2,,,,,,,,,1,11,57,,,
273101,control_change,18,0,3,,,,,,,,,2,11,57,,,
273104,control_change,18,0,13,,,,,,,,,12,11,52,,,
273105,control_change,18,0,4,,,,,,,,,3,11,59,,,
273108,control_change,18,0,14,,,,,,,,,13,11,52,,,
273115,control_change,18,0,1,,,,,,,,,0,11,58,,,
273118,control_change,18,0,2,,,,,,,,,1,11,58,,,
273119,control_change,18,0,3,,,,,,,,,2,11,58,,,
273120,note_on,24,0,11,,,,,,,,,10,,,,74,93
273120,set_tempo,120,1,0,,,,,,340909,,,,,,,,
273122,control_change,18,0,13,,,,,,,,,12,11,53,,,
273123,control_change,18,0,4,,,,,,,,,3,11,60,,,
273123,note_on,240,0,5,,,,,,,,,4,,,,65,0
273123,note_on,24,0,12,,,,,,,,,11,,,,70,93
273124,note_on,6,0,2,,,,,,,,,1,,,,74,0
273124,note_on,240,0,6,,,,,,,,,5,,,,62,0
273124,note_on,0,0,2,,,,,,,,,1,,,,77,100
273124,note_on,0,0,2,,,,,,,,,1,,,,70,100
273124,note_on,0,0,2,,,,,,,,,1,,,,70,0
273125,note_on,6,0,3,,,,,,,,,2,,,,70,0
273125,note_on,0,0,3,,,,,,,,,2,,,,70,101
273125,note_on,0,0,3,,,,,,,,,2,,,,74,101
273126,control_change,18,0,14,,,,,,,,,13,11,53,,,
273127,note_on,0,0,8,,,,,,,,,7,,,,58,0
273127,note_on,240,0,8,,,,,,,,,7,,,,53,0
273128,note_on,6,0,13,,,,,,,,,12,,,,65,0
273129,note_on,6,0,4,,,,,,,,,3,,,,65,100
273132,note_on,6,0,14,,,,,,,,,13,,,,62,0
273132,control_change,12,0,11,,,,,,,,,10,11,47,,,
273133,control_change,18,0,1,,,,,,,,,0,11,58,,,
273134,note_on,60,0,15,,,,,,,,,14,,,,41,0
273134,note_on,0,0,15,,,,,,,,,14,,,,41,112
273135,control_change,12,0,12,,,,,,,,,11,11,47,,,
273136,control_change,12,0,2,,,,,,,,,1,11,58,,,
273137,control_change,12,0,3,,,,,,,,,2,11,58,,,
273140,control_change,12,0,13,,,,,,,,,12,11,54,,,
273141,control_change,12,0,4,,,,,,,,,3,11,61,,,
273144,control_change,12,0,14,,,,,,,,,13,11,54,,,
273151,control_change,18,0,1,,,,,,,,,0,11,59,,,
273154,control_change,18,0,2,,,,,,,,,1,11,59,,,
273155,control_change,18,0,3,,,,,,,,,2,11,59,,,
273158,control_change,18,0,13,,,,,,,,,12,11,55,,,
273159,control_change,18,0,4,,,,,,,,,3,11,62,,,
273162,control_change,18,0,14,,,,,,,,,13,11,55,,,
273168,control_change,36,0,11,,,,,,,,,10,11,48,,,
273169,control_change,18,0,1,,,,,,,,,0,11,60,,,
273171,control_change,36,0,12,,,,,,,,,11,11,48,,,
273172,control_change,18,0,2,,,,,,,,,1,11,60,,,
273173,control_change,18,0,3,,,,,,,,,2,11,60,,,
273176,control_change,18,0,13,,,,,,,,,12,11,56,,,
273177,control_change,18,0,4,,,,,,,,,3,11,63,,,
273180,note_on,12,0,11,,,,,,,,,10,,,,74,0
273180,control_change,18,0,14,,,,,,,,,13,11,56,,,
273183,note_on,12,0,12,,,,,,,,,11,,,,70,0
273187,control_change,18,0,1,,,,,,,,,0,11,61,,,
273190,control_change,18,0,2,,,,,,,,,1,11,61,,,
273191,control_change,18,0,3,,,,,,,,,2,11,61,,,
273194,control_change,18,0,13,,,,,,,,,12,11,57,,,
273195,control_change,18,0,4,,,,,,,,,3,11,64,,,
273198,control_change,18,0,14,,,,,,,,,13,11,57,,,
273204,control_change,24,0,11,,,,,,,,,10,11,49,,,
273205,control_change,18,0,1,,,,,,,,,0,11,61,,,
273207,control_change,24,0,12,,,,,,,,,11,11,49,,,
273208,control_change,18,0,2,,,,,,,,,1,11,61,,,
273209,control_change,18,0,3,,,,,,,,,2,11,61,,,
273212,control_change,18,0,13,,,,,,,,,12,11,57,,,
273213,control_change,18,0,4,,,,,,,,,3,11,65,,,
273216,control_change,18,0,14,,,,,,,,,13,11,57,,,
273223,control_change,18,0,1,,,,,,,,,0,11,62,,,
273226,control_change,18,0,2,,,,,,,,,1,11,62,,,
273227,control_change,18,0,3,,,,,,,,,2,11,62,,,
273230,control_change,18,0,13,,,,,,,,,12,11,58,,,
273231,control_change,18,0,4,,,,,,,,,3,11,66,,,
273234,control_change,18,0,14,,,,,,,,,13,11,58,,,
273240,note_on,0,0,11,,,,,,,,,10,,,,69,104
273240,set_tempo,120,1,0,,,,,,294118,,,,,,,,
273240,control_change,0,0,11,,,,,,,,,10,11,50,,,
273240,note_on,36,0,11,,,,,,,,,10,,,,77,104
273241,control_change,18,0,1,,,,,,,,,0,11,63,,,
273241,note_on,0,0,1,,,,,,,,,0,,,,74,101
273241,note_on,0,0,1,,,,,,,,,0,,,,77,101
273243,control_change,0,0,12,,,,,,,,,11,11,50,,,
273243,note_on,0,0,12,,,,,,,,,11,,,,74,104
273243,note_on,36,0,12,,,,,,,,,11,,,,65,104
273244,note_on,0,0,2,,,,,,,,,1,,,,69,100
273244,control_change,0,0,2,,,,,,,,,1,11,63,,,
273244,note_on,0,0,2,,,,,,,,,1,,,,77,100
273244,note_on,0,0,2,,,,,,,,,1,,,,77,0
273244,note_on,18,0,2,,,,,,,,,1,,,,70,0
273245,control_change,0,0,3,,,,,,,,,2,11,63,,,
273245,note_on,0,0,3,,,,,,,,,2,,,,74,101
273245,note_on,0,0,3,,,,,,,,,2,,,,69,101
273245,note_on,0,0,3,,,,,,,,,2,,,,74,0
273245,note_on,18,0,3,,,,,,,,,2,,,,70,0
273248,control_change,18,0,13,,,,,,,,,12,11,59,,,
273249,note_on,18,0,4,,,,,,,,,3,,,,65,0
273249,note_on,0,0,4,,,,,,,,,3,,,,62,0
273249,note_on,0,0,4,,,,,,,,,3,,,,62,100
273249,control_change,0,0,4,,,,,,,,,3,11,67,,,
273249,note_on,0,0,4,,,,,,,,,3,,,,65,100
273252,control_change,18,0,14,,,,,,,,,13,11,59,,,
273254,note_on,120,0,15,,,,,,,,,14,,,,41,0
273254,note_on,0,0,15,,,,,,,,,14,,,,41,112
273259,control_change,18,0,1,,,,,,,,,0,11,62,,,
273262,control_change,18,0,2,,,,,,,,,1,11,62,,,
273263,control_change,18,0,3,,,,,,,,,2,11,62,,,
273267,control_change,18,0,4,,,,,,,,,3,11,66,,,
273277,control_change,18,0,1,,,,,,,,,0,11,61,,,
273280,control_change,18,0,2,,,,,,,,,1,11,61,,,
273281,control_change,18,0,3,,,,,,,,,2,11,61,,,
273285,control_change,18,0,4,,,,,,,,,3,11,65,,,
273295,control_change,18,0,1,,,,,,,,,0,11,61,,,
273298,control_change,18,0,2,,,,,,,,,1,11,61,,,
273299,control_change,18,0,3,,,,,,,,,2,11,61,,,
273303,control_change,18,0,4,,,,,,,,,3,11,64,,,
273313,control_change,18,0,1,,,,,,,,,0,11,60,,,
273316,control_change,18,0,2,,,,,,,,,1,11,60,,,
273317,control_change,18,0,3,,,,,,,,,2,11,60,,,
273321,control_change,18,0,4,,,,,,,,,3,11,63,,,
273331,control_change,18,0,1,,,,,,,,,0,11,59,,,
273334,control_change,18,0,2,,,,,,,,,1,11,59,,,
273335,control_change,18,0,3,,,,,,,,,2,11,59,,,
273339,control_change,18,0,4,,,,,,,,,3,11,62,,,
273349,control_change,18,0,1,,,,,,,,,0,11,58,,,
273352,control_change,18,0,2,,,,,,,,,1,11,58,,,
273353,control_change,18,0,3,,,,,,,,,2,11,58,,,
273357,control_change,18,0,4,,,,,,,,,3,11,61,,,
273360,control_change,120,0,11,,,,,,,,,10,11,50,,,
273360,set_tempo,120,1,0,,,,,,307692,,,,,,,,
273363,control_change,120,0,12,,,,,,,,,11,11,50,,,
273367,control_change,18,0,1,,,,,,,,,0,11,58,,,
273368,note_on,120,0,13,,,,,,,,,12,,,,57,112
273368,control_change,0,0,13,,,,,,,,,12,11,59,,,
273370,control_change,18,0,2,,,,,,,,,1,11,58,,,
273371,control_change,18,0,3,,,,,,,,,2,11,58,,,
273372,control_change,120,0,14,,,,,,,,,13,11,59,,,
273372,note_on,0,0,14,,,,,,,,,13,,,,53,112
273375,control_change,18,0,4,,,,,,,,,3,11,60,,,
273383,control_change,23,0,11,,,,,,,,,10,11,48,,,
273385,control_change,18,0,1,,,,,,,,,0,11,57,,,
273386,control_change,23,0,12,,,,,,,,,11,11,48,,,
273388,control_change,18,0,2,,,,,,,,,1,11,57,,,
273389,control_change,18,0,3,,,,,,,,,2,11,57,,,
273392,control_change,24,0,13,,,,,,,,,12,11,57,,,
273393,control_change,18,0,4,,,,,,,,,3,11,59,,,
273396,control_change,24,0,14,,,,,,,,,13,11,57,,,
273403,control_change,18,0,1,,,,,,,,,0,11,56,,,
273406,control_change,18,0,2,,,,,,,,,1,11,56,,,
273407,control_change,18,0,3,,,,,,,,,2,11,56,,,
273407,control_change,24,0,11,,,,,,,,,10,11,46,,,
273410,control_change,24,0,12,,,,,,,,,11,11,46,,,
273411,control_change,18,0,4,,,,,,,,,3,11,58,,,
273416,control_change,24,0,13,,,,,,,,,12,11,56,,,
273420,control_change,24,0,14,,,,,,,,,13,11,56,,,
273421,control_change,18,0,1,,,,,,,,,0,11,55,,,
273423,note_on,300,0,5,,,,,,,,,4,,,,65,100
273424,note_on,300,0,6,,,,,,,,,5,,,,62,100
273424,control_change,18,0,2,,,,,,,,,1,11,55,,,
273425,control_change,18,0,3,,,,,,,,,2,11,55,,,
273427,note_on,0,0,8,,,,,,,,,7,,,,57,110
273427,note_on,300,0,8,,,,,,,,,7,,,,53,110
273428,note_on,12,0,13,,,,,,,,,12,,,,57,0
273429,control_change,18,0,4,,,,,,,,,3,11,57,,,
273431,control_change,24,0,11,,,,,,,,,10,11,44,,,
273432,note_on,12,0,14,,,,,,,,,13,,,,53,0
273434,control_change,24,0,12,,,,,,,,,11,11,44,,,
273439,control_change,18,0,1,,,,,,,,,0,11,55,,,
273440,control_change,12,0,13,,,,,,,,,12,11,54,,,
273442,control_change,18,0,2,,,,,,,,,1,11,55,,,
273443,control_change,18,0,3,,,,,,,,,2,11,55,,,
273444,control_change,12,0,14,,,,,,,,,13,11,54,,,
273447,control_change,18,0,4,,,,,,,,,3,11,56,,,
273455,control_change,24,0,11,,,,,,,,,10,11,42,,,
273457,control_change,18,0,1,,,,,,,,,0,11,54,,,
273458,control_change,24,0,12,,,,,,,,,11,11,42,,,
273460,control_change,18,0,2,,,,,,,,,1,11,54,,,
273461,control_change,18,0,3,,,,,,,,,2,11,54,,,
273464,control_change,24,0,13,,,,,,,,,12,11,52,,,
273465,control_change,18,0,4,,,,,,,,,3,11,55,,,
273468,control_change,24,0,14,,,,,,,,,13,11,52,,,
273475,control_change,18,0,1,,,,,,,,,0,11,53,,,
273478,control_change,18,0,2,,,,,,,,,1,11,53,,,
273479,control_change,24,0,11,,,,,,,,,10,11,41,,,
273479,control_change,18,0,3,,,,,,,,,2,11,53,,,
273480,note_on,1,0,11,,,,,,,,,10,,,,69,0
273480,note_on,0,0,11,,,,,,,,,10,,,,77,0
273480,set_tempo,120,1,0,,,,,,340909,,,,,,,,
273482,control_change,24,0,12,,,,,,,,,11,11,41,,,
273483,note_on,0,0,12,,,,,,,,,11,,,,65,0
273483,note_on,1,0,12,,,,,,,,,11,,,,74,0
273483,control_change,18,0,4,,,,,,,,,3,11,54,,,
273483,note_on,60,0,5,,,,,,,,,4,,,,65,0
273483,note_on,0,0,5,,,,,,,,,4,,,,65,100
273484,note_on,0,0,6,,,,,,,,,5,,,,62,100
273484,note_on,60,0,6,,,,,,,,,5,,,,62,0
273487,note_on,0,0,8,,,,,,,,,7,,,,53,0
273487,note_on,60,0,8,,,,,,,,,7,,,,57,0
273487,note_on,0,0,8,,,,,,,,,7,,,,53,110
273487,note_on,0,0,8,,,,,,,,,7,,,,57,110
273488,note_on,0,0,13,,,,,,,,,12,,,,62,112
273488,control_change,24,0,13,,,,,,,,,12,11,50,,,
273492,note_on,24,0,14,,,,,,,,,13,,,,57,112
273492,control_change,0,0,14,,,,,,,,,13,11,50,,,
273493,control_change,18,0,1,,,,,,,,,0,11,52,,,
273494,note_on,240,0,15,,,,,,,,,14,,,,41,0
273496,control_change,18,0,2,,,,,,,,,1,11,52,,,
273497,control_change,18,0,3,,,,,,,,,2,11,52,,,
273501,control_change,18,0,4,,,,,,,,,3,11,53,,,
273511,control_change,18,0,1,,,,,,,,,0,11,52,,,
273512,control_change,24,0,13,,,,,,,,,12,11,48,,,
273514,control_change,18,0,2,,,,,,,,,1,11,52,,,
273515,control_change,18,0,3,,,,,,,,,2,11,52,,,
273516,control_change,24,0,14,,,,,,,,,13,11,48,,,
273519,control_change,18,0,4,,,,,,,,,3,11,52,,,
273529,control_change,18,0,1,,,,,,,,,0,11,51,,,
273532,control_change,18,0,2,,,,,,,,,1,11,51,,,
273533,control_change,18,0,3,,,,,,,,,2,11,51,,,
273536,control_change,24,0,13,,,,,,,,,12,11,46,,,
273537,control_change,18,0,4,,,,,,,,,3,11,51,,,
273540,control_change,24,0,14,,,,,,,,,13,11,46,,,
273547,control_change,18,0,1,,,,,,,,,0,11,50,,,
273548,note_on,12,0,13,,,,,,,,,12,,,,62,0
273550,control_change,18,0,2,,,,,,,,,1,11,50,,,
273551,control_change,18,0,3,,,,,,,,,2,11,50,,,
273552,note_on,12,0,14,,,,,,,,,13,,,,57,0
273555,control_change,18,0,4,,,,,,,,,3,11,50,,,
273560,control_change,12,0,13,,,,,,,,,12,11,44,,,
273564,control_change,12,0,14,,,,,,,,,13,11,44,,,
273565,control_change,18,0,1,,,,,,,,,0,11,49,,,
273568,control_change,18,0,2,,,,,,,,,1,11,49,,,
273569,control_change,18,0,3,,,,,,,,,2,11,49,,,
273573,control_change,18,0,4,,,,,,,,,3,11,49,,,
273583,control_change,18,0,1,,,,,,,,,0,11,48,,,
273584,control_change,24,0,13,,,,,,,,,12,11,42,,,
273586,control_change,18,0,2,,,,,,,,,1,11,48,,,
273587,control_change,18,0,3,,,,,,,,,2,11,48,,,
273588,control_change,24,0,14,,,,,,,,,13,11,42,,,
273591,control_change,18,0,4,,,,,,,,,3,11,48,,,
273600,set_tempo,120,1,0,,,,,,294118,,,,,,,,
273600,note_on,0,0,11,,,,,,,,,10,,,,65,93
273600,control_change,120,0,11,,,,,,,,,10,11,41,,,
273601,control_change,18,0,1,,,,,,,,,0,11,47,,,
273603,note_on,120,0,5,,,,,,,,,4,,,,65,0
273603,note_on,0,0,5,,,,,,,,,4,,,,65,100
273603,control_change,120,0,12,,,,,,,,,11,11,41,,,
273603,note_on,0,0,12,,,,,,,,,11,,,,62,93
273604,note_on,0,0,6,,,,,,,,,5,,,,62,100
273604,control_change,18,0,2,,,,,,,,,1,11,47,,,
273604,note_on,120,0,6,,,,,,,,,5,,,,62,0
273605,control_change,18,0,3,,,,,,,,,2,11,47,,,
273607,note_on,0,0,8,,,,,,,,,7,,,,57,110
273607,note_on,0,0,8,,,,,,,,,7,,,,53,110
273607,note_on,0,0,8,,,,,,,,,7,,,,53,0
273607,note_on,120,0,8,,,,,,,,,7,,,,57,0
273608,note_on,24,0,13,,,,,,,,,12,,,,65,112
273608,control_change,0,0,13,,,,,,,,,12,11,41,,,
273609,control_change,18,0,4,,,,,,,,,3,11,47,,,
273612,control_change,0,0,14,,,,,,,,,13,11,41,,,
273612,note_on,24,0,14,,,,,,,,,13,,,,62,112
273660,note_on,60,0,11,,,,,,,,,10,,,,65,0
273663,note_on,60,0,12,,,,,,,,,11,,,,62,0
273720,note_on,60,0,11,,,,,,,,,10,,,,69,93
273720,set_tempo,120,1,0,,,,,,307692,,,,,,,,
273723,note_on,60,0,12,,,,,,,,,11,,,,65,93
273780,note_on,60,0,11,,,,,,,,,10,,,,69,0
273783,note_on,60,0,12,,,,,,,,,11,,,,65,0
273794,note_on,300,0,15,,,,,,,,,14,,,,41,112
273840,note_on,60,0,11,,,,,,,,,10,,,,72,93
273840,set_tempo,120,1,0,,,,,,340909,,,,,,,,
273841,note_on,0,0,1,,,,,,,,,0,,,,72,101
273841,note_on,240,0,1,,,,,,,,,0,,,,77,0
273841,note_on,0,0,1,,,,,,,,,0,,,,75,101
273841,note_on,0,0,1,,,,,,,,,0,,,,74,0
273843,note_on,60,0,12,,,,,,,,,11,,,,69,93
273844,note_on,0,0,6,,,,,,,,,5,,,,60,100
273844,note_on,240,0,2,,,,,,,,,1,,,,77,0
273844,note_on,0,0,2,,,,,,,,,1,,,,75,100
273844,note_on,240,0,6,,,,,,,,,5,,,,62,0
273845,note_on,0,0,3,,,,,,,,,2,,,,72,101
273845,note_on,240,0,3,,,,,,,,,2,,,,74,0
273847,note_on,0,0,8,,,,,,,,,7,,,,57,0
273847,note_on,240,0,8,,,,,,,,,7,,,,53,0
273849,note_on,240,0,4,,,,,,,,,3,,,,65,0
273849,note_on,0,0,4,,,,,,,,,3,,,,62,0
273849,note_on,0,0,4,,,,,,,,,3,,,,63,100
273849,note_on,0,0,4,,,,,,,,,3,,,,60,100
273852,note_on,240,0,14,,,,,,,,,13,,,,62,0
273852,note_on,0,0,14,,,,,,,,,13,,,,63,112
273854,note_on,0,0,15,,,,,,,,,14,,,,41,112
273854,note_on,60,0,15,,,,,,,,,14,,,,41,0
273900,note_on,60,0,11,,,,,,,,,10,,,,72,0
273903,note_on,60,0,12,,,,,,,,,11,,,,69,0
273960,note_on,0,0,11,,,,,,,,,10,,,,65,93
273960,note_on,60,0,11,,,,,,,,,10,,,,74,93
273960,set_tempo,120,1,0,,,,,,294118,,,,,,,,
273961,note_on,0,0,1,,,,,,,,,0,,,,75,0
273961,note_on,0,0,1,,,,,,,,,0,,,,70,101
273961,note_on,0,0,1,,,,,,,,,0,,,,74,101
273961,note_on,120,0,1,,,,,,,,,0,,,,72,0
273963,note_on,360,0,5,,,,,,,,,4,,,,65,0
273963,note_on,0,0,12,,,,,,,,,11,,,,62,93
273963,note_on,60,0,12,,,,,,,,,11,,,,70,93
273964,note_on,0,0,2,,,,,,,,,1,,,,70,100
273964,note_on,0,0,2,,,,,,,,,1,,,,69,0
273964,note_on,0,0,2,,,,,,,,,1,,,,74,100
273964,note_on,120,0,2,,,,,,,,,1,,,,75,0
273964,note_on,120,0,6,,,,,,,,,5,,,,60,0
273965,note_on,0,0,3,,,,,,,,,2,,,,70,101
273965,note_on,120,0,3,,,,,,,,,2,,,,72,0
273965,note_on,0,0,3,,,,,,,,,2,,,,69,0
273965,note_on,0,0,3,,,,,,,,,2,,,,65,101
273968,note_on,360,0,13,,,,,,,,,12,,,,65,0
273969,note_on,0,0,4,,,,,,,,,3,,,,62,100
273969,note_on,0,0,4,,,,,,,,,3,,,,58,100
273969,note_on,0,0,4,,,,,,,,,3,,,,63,0
273969,note_on,120,0,4,,,,,,,,,3,,,,60,0
273972,note_on,120,0,14,,,,,,,,,13,,,,63,0
273974,note_on,120,0,15,,,,,,,,,14,,,,41,0
273974,note_on,0,0,15,,,,,,,,,14,,,,46,112
274080,set_tempo,120,1,0,,,,,,307692,,,,,,,,
274088,note_on,120,0,13,,,,,,,,,12,,,,53,112
274092,note_on,120,0,14,,,,,,,,,13,,,,50,112
274143,note_on,180,0,5,,,,,,,,,4,,,,65,100
274144,note_on,180,0,6,,,,,,,,,5,,,,62,100
274147,note_on,300,0,8,,,,,,,,,7,,,,53,110
274147,note_on,0,0,8,,,,,,,,,7,,,,58,110
274148,note_on,60,0,13,,,,,,,,,12,,,,53,0
274152,note_on,60,0,14,,,,,,,,,13,,,,50,0
274200,note_on,0,0,11,,,,,,,,,10,,,,74,0
274200,set_tempo,120,1,0,,,,,,340909,,,,,,,,
274200,note_on,240,0,11,,,,,,,,,10,,,,65,0
274203,note_on,60,0,5,,,,,,,,,4,,,,65,0
274203,note_on,0,0,5,,,,,,,,,4,,,,65,100
274203,note_on,240,0,12,,,,,,,,,11,,,,62,0
274203,note_on,0,0,12,,,,,,,,,11,,,,70,0
274204,note_on,0,0,6,,,,,,,,,5,,,,62,100
274204,note_on,60,0,6,,,,,,,,,5,,,,62,0
274207,note_on,0,0,8,,,,,,,,,7,,,,53,110
274207,note_on,60,0,8,,,,,,,,,7,,,,58,0
274207,note_on,0,0,8,,,,,,,,,7,,,,53,0
274207,note_on,0,0,8,,,,,,,,,7,,,,58,110
274208,note_on,60,0,13,,,,,,,,,12,,,,58,112
274212,note_on,60,0,14,,,,,,,,,13,,,,53,112
274214,note_on,240,0,15,,,,,,,,,14,,,,46,0
274268,note_on,60,0,13,,,,,,,,,12,,,,58,0
274272,note_on,60,0,14,,,,,,,,,13,,,,53,0
274320,set_tempo,120,1,0,,,,,,294118,,,,,,,,
274320,note_on,120,0,11,,,,,,,,,10,,,,65,93
274323,note_on,120,0,5,,,,,,,,,4,,,,65,0
274323,note_on,0,0,5,,,,,,,,,4,,,,65,100
274323,note_on,120,0,12,,,,,,,,,11,,,,62,93
274324,note_on,120,0,6,,,,,,,,,5,,,,62,0
274324,note_on,0,0,6,,,,,,,,,5,,,,62,100
274327,note_on,0,0,8,,,,,,,,,7,,,,53,0
274327,note_on,0,0,8,,,,,,,,,7,,,,53,110
274327,note_on,0,0,8,,,,,,,,,7,,,,58,110
274327,note_on,120,0,8,,,,,,,,,7,,,,58,0
274328,note_on,60,0,13,,,,,,,,,12,,,,62,112
274332,note_on,60,0,14,,,,,,,,,13,,,,58,112
274380,note_on,60,0,11,,,,,,,,,10,,,,65,0
274383,note_on,60,0,12,,,,,,,,,11,,,,62,0
274440,note_on,60,0,11,,,,,,,,,10,,,,70,93
274440,set_tempo,120,1,0,,,,,,307692,,,,,,,,
274441,note_on,480,0,1,,,,,,,,,0,,,,74,0
274441,note_on,0,0,1,,,,,,,,,0,,,,70,0
274443,note_on,60,0,12,,,,,,,,,11,,,,65,93
274444,note_on,0,0,2,,,,,,,,,1,,,,70,0
274444,note_on,480,0,2,,,,,,,,,1,,,,74,0
274445,note_on,480,0,3,,,,,,,,,2,,,,70,0
274445,note_on,0,0,3,,,,,,,,,2,,,,65,0
274449,note_on,0,0,4,,,,,,,,,3,,,,58,0
274449,note_on,480,0,4,,,,,,,,,3,,,,62,0
274500,note_on,60,0,11,,,,,,,,,10,,,,70,0
274503,note_on,60,0,12,,,,,,,,,11,,,,65,0
274514,note_on,300,0,15,,,,,,,,,14,,,,34,112
274560,set_tempo,120,1,0,,,,,,340909,,,,,,,,
274560,note_on,60,0,11,,,,,,,,,10,,,,74,93
274561,note_on,120,0,1,,,,,,,,,0,,,,82,101
274561,note_on,0,0,1,,,,,,,,,0,,,,86,101
274563,note_on,60,0,12,,,,,,,,,11,,,,70,93
274563,note_on,240,0,5,,,,,,,,,4,,,,65,0
274564,note_on,240,0,6,,,,,,,,,5,,,,62,0
274564,note_on,120,0,2,,,,,,,,,1,,,,77,100
274564,note_on,0,0,2,,,,,,,,,1,,,,74,100
274565,note_on,120,0,3,,,,,,,,,2,,,,65,101
274565,note_on,0,0,3,,,,,,,,,2,,,,70,101
274567,note_on,0,0,8,,,,,,,,,7,,,,53,0
274567,note_on,240,0,8,,,,,,,,,7,,,,58,0
274568,note_on,240,0,13,,,,,,,,,12,,,,62,0
274569,note_on,0,0,4,,,,,,,,,3,,,,62,100
274569,note_on,120,0,4,,,,,,,,,3,,,,58,100
274572,note_on,240,0,14,,,,,,,,,13,,,,58,0
274574,note_on,0,0,15,,,,,,,,,14,,,,38,112
274574,note_on,60,0,15,,,,,,,,,14,,,,34,0
274620,note_on,60,0,11,,,,,,,,,10,,,,74,0
274623,note_on,60,0,12,,,,,,,,,11,,,,70,0
274680,note_on,0,0,11,,,,,,,,,10,,,,72,93
274680,note_on,60,0,11,,,,,,,,,10,,,,63,93
274680,set_tempo,120,1,0,,,,,,291262,,,,,,,,
274681,note_on,120,0,1,,,,,,,,,0,,,,86,0
274681,note_on,0,0,1,,,,,,,,,0,,,,82,0
274681,note_on,0,0,1,,,,,,,,,0,,,,81,116
274681,note_on,0,0,1,,,,,,,,,0,,,,84,116
274683,note_on,60,0,12,,,,,,,,,11,,,,69,93
274684,note_on,0,0,2,,,,,,,,,1,,,,77,0
274684,note_on,0,0,2,,,,,,,,,1,,,,72,115
274684,note_on,0,0,2,,,,,,,,,1,,,,75,115
274684,note_on,120,0,2,,,,,,,,,1,,,,74,0
274685,note_on,0,0,3,,,,,,,,,2,,,,72,116
274685,note_on,0,0,3,,,,,,,,,2,,,,69,116
274685,note_on,120,0,3,,,,,,,,,2,,,,70,0
274685,note_on,0,0,3,,,,,,,,,2,,,,65,0
274689,note_on,0,0,4,,,,,,,,,3,,,,63,115
274689,note_on,0,0,4,,,,,,,,,3,,,,60,115
274689,note_on,120,0,4,,,,,,,,,3,,,,62,0
274689,note_on,0,0,4,,,,,,,,,3,,,,58,0
274693,note_on,3360,0,9,,,,,,,,,8,,,,53,110
274694,note_on,0,0,15,,,,,,,,,14,,,,41,112
274694,note_on,120,0,15,,,,,,,,,14,,,,38,0
274800,control_change,120,0,11,,,,,,,,,10,11,41,,,
274800,set_tempo,120,1,0,,,,,,307692,,,,,,,,
274801,control_change,120,0,1,,,,,,,,,0,11,47,,,
274803,control_change,240,0,5,,,,,,,,,4,11,47,,,
274803,control_change,120,0,12,,,,,,,,,11,11,41,,,
274804,control_change,120,0,2,,,,,,,,,1,11,47,,,
274804,control_change,240,0,6,,,,,,,,,5,11,47,,,
274805,control_change,120,0,3,,,,,,,,,2,11,47,,,
274807,control_change,240,0,8,,,,,,,,,7,11,47,,,
274808,control_change,240,0,13,,,,,,,,,12,11,41,,,
274808,note_on,0,0,13,,,,,,,,,12,,,,51,112
274809,control_change,120,0,4,,,,,,,,,3,11,47,,,
274812,note_on,0,0,14,,,,,,,,,13,,,,48,112
274812,control_change,240,0,14,,,,,,,,,13,11,41,,,
274813,control_change,120,0,9,,,,,,,,,8,11,47,,,
274814,control_change,120,0,15,,,,,,,,,14,11,41,,,
274823,control_change,23,0,11,,,,,,,,,10,11,42,,,
274826,control_change,23,0,12,,,,,,,,,11,11,42,,,
274831,control_change,23,0,13,,,,,,,,,12,11,42,,,
274832,control_change,29,0,5,,,,,,,,,4,11,48,,,
274833,control_change,32,0,1,,,,,,,,,0,11,48,,,
274833,control_change,29,0,6,,,,,,,,,5,11,48,,,
274835,control_change,23,0,14,,,,,,,,,13,11,42,,,
274836,control_change,32,0,2,,,,,,,,,1,11,48,,,
274836,control_change,29,0,8,,,,,,,,,7,11,48,,,
274837,control_change,32,0,3,,,,,,,,,2,11,48,,,
274837,control_change,23,0,15,,,,,,,,,14,11,42,,,
274841,control_change,32,0,4,,,,,,,,,3,11,48,,,
274842,control_change,29,0,9,,,,,,,,,8,11,48,,,
274847,control_change,24,0,11,,,,,,,,,10,11,42,,,
274850,control_change,24,0,12,,,,,,,,,11,11,42,,,
274855,control_change,24,0,13,,,,,,,,,12,11,42,,,
274859,control_change,24,0,14,,,,,,,,,13,11,42,,,
274861,control_change,24,0,15,,,,,,,,,14,11,42,,,
274861,control_change,29,0,5,,,,,,,,,4,11,49,,,
274862,control_change,29,0,6,,,,,,,,,5,11,49,,,
274863,note_on,2,0,5,,,,,,,,,4,,,,60,100
274864,note_on,2,0,6,,,,,,,,,5,,,,60,100
274865,control_change,29,0,8,,,,,,,,,7,11,49,,,
274866,control_change,33,0,1,,,,,,,,,0,11,49,,,
274867,note_on,2,0,8,,,,,,,,,7,,,,57,110
274867,note_on,0,0,8,,,,,,,,,7,,,,63,110
274868,note_on,13,0,13,,,,,,,,,12,,,,51,0
274869,control_change,33,0,2,,,,,,,,,1,11,49,,,
274870,control_change,33,0,3,,,,,,,,,2,11,49,,,
274871,control_change,24,0,11,,,,,,,,,10,11,43,,,
274871,control_change,29,0,9,,,,,,,,,8,11,49,,,
274872,note_on,13,0,14,,,,,,,,,13,,,,48,0
274874,control_change,33,0,4,,,,,,,,,3,11,49,,,
274874,control_change,24,0,12,,,,,,,,,11,11,43,,,
274879,control_change,11,0,13,,,,,,,,,12,11,43,,,
274883,control_change,11,0,14,,,,,,,,,13,11,43,,,
274885,control_change,24,0,15,,,,,,,,,14,11,43,,,
274890,control_change,27,0,5,,,,,,,,,4,11,50,,,
274891,control_change,27,0,6,,,,,,,,,5,11,50,,,
274894,control_change,27,0,8,,,,,,,,,7,11,50,,,
274895,control_change,24,0,11,,,,,,,,,10,11,44,,,
274898,control_change,24,0,12,,,,,,,,,11,11,44,,,
274899,control_change,33,0,1,,,,,,,,,0,11,50,,,
274900,control_change,29,0,9,,,,,,,,,8,11,50,,,
274902,control_change,33,0,2,,,,,,,,,1,11,50,,,
274903,control_change,24,0,13,,,,,,,,,12,11,44,,,
274903,control_change,33,0,3,,,,,,,,,2,11,50,,,
274907,control_change,33,0,4,,,,,,,,,3,11,50,,,
274907,control_change,24,0,14,,,,,,,,,13,11,44,,,
274909,control_change,24,0,15,,,,,,,,,14,11,44,,,
274919,control_change,24,0,11,,,,,,,,,10,11,45,,,
274920,note_on,1,0,11,,,,,,,,,10,,,,72,0
274920,note_on,0,0,11,,,,,,,,,10,,,,63,0
274920,control_change,30,0,5,,,,,,,,,4,11,51,,,
274920,set_tempo,120,1,0,,,,,,331492,,,,,,,,
274921,control_change,30,0,6,,,,,,,,,5,11,51,,,
274922,control_change,24,0,12,,,,,,,,,11,11,45,,,
274923,note_on,1,0,12,,,,,,,,,11,,,,69,0
274923,note_on,0,0,5,,,,,,,,,4,,,,60,100
274923,note_on,3,0,5,,,,,,,,,4,,,,60,0
274924,control_change,30,0,8,,,,,,,,,7,11,51,,,
274924,note_on,0,0,6,,,,,,,,,5,,,,60,100
274924,note_on,3,0,6,,,,,,,,,5,,,,60,0
274927,control_change,24,0,13,,,,,,,,,12,11,45,,,
274927,note_on,0,0,8,,,,,,,,,7,,,,57,0
274927,note_on,3,0,8,,,,,,,,,7,,,,63,0
274927,note_on,0,0,8,,,,,,,,,7,,,,63,110
274927,note_on,0,0,8,,,,,,,,,7,,,,57,110
274928,note_on,1,0,13,,,,,,,,,12,,,,57,112
274930,control_change,30,0,9,,,,,,,,,8,11,51,,,
274931,control_change,24,0,14,,,,,,,,,13,11,45,,,
274932,control_change,33,0,1,,,,,,,,,0,11,51,,,
274932,note_on,1,0,14,,,,,,,,,13,,,,51,112
274933,note_on,3,0,9,,,,,,,,,8,,,,53,0
274933,control_change,24,0,15,,,,,,,,,14,11,45,,,
274934,note_on,1,0,15,,,,,,,,,14,,,,41,0
274935,control_change,33,0,2,,,,,,,,,1,11,51,,,
274936,control_change,33,0,3,,,,,,,,,2,11,51,,,
274940,control_change,33,0,4,,,,,,,,,3,11,51,,,
274943,control_change,23,0,11,,,,,,,,,10,11,46,,,
274946,control_change,23,0,12,,,,,,,,,11,11,46,,,
274949,control_change,26,0,5,,,,,,,,,4,11,52,,,
274950,control_change,26,0,6,,,,,,,,,5,11,52,,,
274951,control_change,23,0,13,,,,,,,,,12,11,46,,,
274953,control_change,26,0,8,,,,,,,,,7,11,52,,,
274955,control_change,23,0,14,,,,,,,,,13,11,46,,,
274957,control_change,23,0,15,,,,,,,,,14,11,46,,,
274959,control_change,26,0,9,,,,,,,,,8,11,52,,,
274965,control_change,33,0,1,,,,,,,,,0,11,52,,,
274967,control_change,24,0,11,,,,,,,,,10,11,47,,,
274968,control_change,33,0,2,,,,,,,,,1,11,52,,,
274969,control_change,33,0,3,,,,,,,,,2,11,52,,,
274970,control_change,24,0,12,,,,,,,,,11,11,47,,,
274973,control_change,33,0,4,,,,,,,,,3,11,52,,,
274975,control_change,24,0,13,,,,,,,,,12,11,47,,,
274978,control_change,29,0,5,,,,,,,,,4,11,53,,,
274979,control_change,29,0,6,,,,,,,,,5,11,53,,,
274979,control_change,24,0,14,,,,,,,,,13,11,47,,,
274981,control_change,24,0,15,,,,,,,,,14,11,47,,,
274982,control_change,29,0,8,,,,,,,,,7,11,53,,,
274988,control_change,29,0,9,,,,,,,,,8,11,53,,,
274988,note_on,13,0,13,,,,,,,,,12,,,,57,0
274991,control_change,24,0,11,,,,,,,,,10,11,48,,,
274992,note_on,13,0,14,,,,,,,,,13,,,,51,0
274994,control_change,24,0,12,,,,,,,,,11,11,48,,,
274998,control_change,33,0,1,,,,,,,,,0,11,52,,,
274999,control_change,11,0,13,,,,,,,,,12,11,48,,,
275001,control_change,33,0,2,,,,,,,,,1,11,52,,,
275002,control_change,33,0,3,,,,,,,,,2,11,52,,,
275003,control_change,11,0,14,,,,,,,,,13,11,48,,,
275005,control_change,24,0,15,,,,,,,,,14,11,48,,,
275006,control_change,33,0,4,,,,,,,,,3,11,53,,,
275008,control_change,30,0,5,,,,,,,,,4,11,54,,,
275009,control_change,30,0,6,,,,,,,,,5,11,54,,,
275012,control_change,30,0,8,,,,,,,,,7,11,54,,,
275015,control_change,24,0,11,,,,,,,,,10,11,49,,,
275018,control_change,24,0,12,,,,,,,,,11,11,49,,,
275018,control_change,30,0,9,,,,,,,,,8,11,54,,,
275023,control_change,24,0,13,,,,,,,,,12,11,49,,,
275027,control_change,24,0,14,,,,,,,,,13,11,49,,,
275029,control_change,24,0,15,,,,,,,,,14,11,49,,,
275030,note_on,0,0,1,,,,,,,,,0,,,,81,0
275030,note_on,32,0,1,,,,,,,,,0,,,,84,0
275031,control_change,1,0,1,,,,,,,,,0,11,53,,,
275033,note_on,32,0,2,,,,,,,,,1,,,,72,0
275033,note_on,0,0,2,,,,,,,,,1,,,,75,0
275034,note_on,0,0,3,,,,,,,,,2,,,,69,0
275034,note_on,32,0,3,,,,,,,,,2,,,,72,0
275034,control_change,1,0,2,,,,,,,,,1,11,53,,,
275035,control_change,1,0,3,,,,,,,,,2,11,53,,,
275037,control_change,29,0,5,,,,,,,,,4,11,55,,,
275038,control_change,29,0,6,,,,,,,,,5,11,55,,,
275038,note_on,0,0,4,,,,,,,,,3,,,,63,0
275038,note_on,32,0,4,,,,,,,,,3,,,,60,0
275039,control_change,24,0,11,,,,,,,,,10,11,50,,,
275039,control_change,1,0,4,,,,,,,,,3,11,54,,,
275040,set_tempo,120,1,0,,,,,,291262,,,,,,,,
275040,note_on,1,0,11,,,,,,,,,10,,,,64,93
275041,note_on,0,0,1,,,,,,,,,0,,,,81,116
275041,note_on,10,0,1,,,,,,,,,0,,,,84,116
275041,control_change,29,0,8,,,,,,,,,7,11,55,,,
275042,control_change,24,0,12,,,,,,,,,11,11,50,,,
275043,note_on,6,0,5,,,,,,,,,4,,,,60,0
275043,note_on,1,0,12,,,,,,,,,11,,,,60,93
275043,note_on,0,0,5,,,,,,,,,4,,,,60,100
275044,note_on,0,0,2,,,,,,,,,1,,,,72,115
275044,note_on,10,0,2,,,,,,,,,1,,,,76,115
275044,note_on,0,0,6,,,,,,,,,5,,,,60,100
275044,note_on,6,0,6,,,,,,,,,5,,,,60,0
275045,note_on,10,0,3,,,,,,,,,2,,,,72,116
275045,note_on,0,0,3,,,,,,,,,2,,,,69,116
275047,note_on,6,0,8,,,,,,,,,7,,,,63,0
275047,note_on,0,0,8,,,,,,,,,7,,,,57,110
275047,note_on,0,0,8,,,,,,,,,7,,,,57,0
275047,control_change,24,0,13,,,,,,,,,12,11,50,,,
275047,note_on,0,0,8,,,,,,,,,7,,,,64,110
275047,control_change,29,0,9,,,,,,,,,8,11,55,,,
275048,note_on,1,0,13,,,,,,,,,12,,,,60,112
275049,note_on,10,0,4,,,,,,,,,3,,,,64,115
275049,note_on,0,0,4,,,,,,,,,3,,,,60,115
275051,control_change,24,0,14,,,,,,,,,13,11,50,,,
275052,note_on,1,0,14,,,,,,,,,13,,,,57,112
275053,control_change,24,0,15,,,,,,,,,14,11,50,,,
275053,note_on,6,0,9,,,,,,,,,8,,,,52,110
275054,note_on,1,0,15,,,,,,,,,14,,,,40,112
275063,control_change,23,0,11,,,,,,,,,10,11,51,,,
275064,control_change,23,0,1,,,,,,,,,0,11,54,,,
275066,control_change,23,0,5,,,,,,,,,4,11,56,,,
275066,control_change,23,0,12,,,,,,,,,11,11,51,,,
275067,control_change,23,0,6,,,,,,,,,5,11,56,,,
275067,control_change,23,0,2,,,,,,,,,1,11,54,,,
275068,control_change,23,0,3,,,,,,,,,2,11,54,,,
275070,control_change,23,0,8,,,,,,,,,7,11,56,,,
275071,control_change,23,0,13,,,,,,,,,12,11,51,,,
275072,control_change,23,0,4,,,,,,,,,3,11,55,,,
275075,control_change,23,0,14,,,,,,,,,13,11,51,,,
275076,control_change,23,0,9,,,,,,,,,8,11,56,,,
275077,control_change,23,0,15,,,,,,,,,14,11,51,,,
275087,control_change,24,0,11,,,,,,,,,10,11,52,,,
275090,control_change,24,0,12,,,,,,,,,11,11,52,,,
275095,control_change,24,0,13,,,,,,,,,12,11,52,,,
275096,control_change,30,0,5,,,,,,,,,4,11,57,,,
275097,control_change,33,0,1,,,,,,,,,0,11,55,,,
275097,control_change,30,0,6,,,,,,,,,5,11,57,,,
275099,control_change,24,0,14,,,,,,,,,13,11,52,,,
275100,control_change,30,0,8,,,,,,,,,7,11,57,,,
275100,control_change,33,0,2,,,,,,,,,1,11,55,,,
275100,note_on,13,0,11,,,,,,,,,10,,,,64,0
275101,control_change,24,0,15,,,,,,,,,14,11,52,,,
275101,control_change,33,0,3,,,,,,,,,2,11,55,,,
275103,note_on,13,0,12,,,,,,,,,11,,,,60,0
275105,control_change,33,0,4,,,,,,,,,3,11,56,,,
275106,control_change,30,0,9,,,,,,,,,8,11,57,,,
275111,control_change,11,0,11,,,,,,,,,10,11,53,,,
275114,control_change,11,0,12,,,,,,,,,11,11,53,,,
275119,control_change,24,0,13,,,,,,,,,12,11,53,,,
275123,control_change,24,0,14,,,,,,,,,13,11,53,,,
275125,control_change,29,0,5,,,,,,,,,4,11,58,,,
275125,control_change,24,0,15,,,,,,,,,14,11,53,,,
275126,control_change,29,0,6,,,,,,,,,5,11,58,,,
275129,control_change,29,0,8,,,,,,,,,7,11,58,,,
275130,control_change,33,0,1,,,,,,,,,0,11,55,,,
275133,control_change,33,0,2,,,,,,,,,1,11,55,,,
275134,control_change,33,0,3,,,,,,,,,2,11,55,,,
275135,control_change,29,0,9,,,,,,,,,8,11,58,,,
275135,control_change,24,0,11,,,,,,,,,10,11,54,,,
275138,control_change,33,0,4,,,,,,,,,3,11,57,,,
275138,control_change,24,0,12,,,,,,,,,11,11,54,,,
275143,control_change,24,0,13,,,,,,,,,12,11,54,,,
275147,control_change,24,0,14,,,,,,,,,13,11,54,,,
275149,control_change,24,0,15,,,,,,,,,14,11,54,,,
275154,control_change,29,0,5,,,,,,,,,4,11,59,,,
275155,control_change,29,0,6,,,,,,,,,5,11,59,,,
275158,control_change,29,0,8,,,,,,,,,7,11,59,,,
275159,control_change,24,0,11,,,,,,,,,10,11,55,,,
275160,note_on,1,0,11,,,,,,,,,10,,,,69,93
275160,set_tempo,120,1,0,,,,,,303797,,,,,,,,
275162,control_change,24,0,12,,,,,,,,,11,11,55,,,
275163,note_on,1,0,12,,,,,,,,,11,,,,64,93
275163,control_change,33,0,1,,,,,,,,,0,11,56,,,
275164,control_change,29,0,9,,,,,,,,,8,11,59,,,
275166,control_change,33,0,2,,,,,,,,,1,11,56,,,
275167,control_change,33,0,3,,,,,,,,,2,11,56,,,
275167,control_change,24,0,13,,,,,,,,,12,11,55,,,
275171,control_change,33,0,4,,,,,,,,,3,11,58,,,
275171,control_change,24,0,14,,,,,,,,,13,11,55,,,
275173,control_change,24,0,15,,,,,,,,,14,11,55,,,
275183,control_change,23,0,11,,,,,,,,,10,11,56,,,
275184,control_change,30,0,5,,,,,,,,,4,11,60,,,
275185,control_change,30,0,6,,,,,,,,,5,11,60,,,
275186,control_change,23,0,12,,,,,,,,,11,11,56,,,
275188,control_change,30,0,8,,,,,,,,,7,11,60,,,
275191,control_change,24,0,13,,,,,,,,,12,11,56,,,
275194,control_change,30,0,9,,,,,,,,,8,11,60,,,
275195,control_change,24,0,14,,,,,,,,,13,11,56,,,
275196,control_change,33,0,1,,,,,,,,,0,11,57,,,
275197,control_change,24,0,15,,,,,,,,,14,11,56,,,
275199,control_change,33,0,2,,,,,,,,,1,11,57,,,
275200,control_change,33,0,3,,,,,,,,,2,11,57,,,
275204,control_change,33,0,4,,,,,,,,,3,11,59,,,
275207,control_change,24,0,11,,,,,,,,,10,11,57,,,
275210,control_change,24,0,12,,,,,,,,,11,11,57,,,
275213,control_change,29,0,5,,,,,,,,,4,11,61,,,
275214,control_change,29,0,6,,,,,,,,,5,11,61,,,
275215,control_change,24,0,13,,,,,,,,,12,11,57,,,
275217,control_change,29,0,8,,,,,,,,,7,11,61,,,
275219,control_change,24,0,14,,,,,,,,,13,11,57,,,
275220,note_on,13,0,11,,,,,,,,,10,,,,69,0
275221,control_change,24,0,15,,,,,,,,,14,11,57,,,
275223,control_change,29,0,9,,,,,,,,,8,11,61,,,
275223,note_on,13,0,12,,,,,,,,,11,,,,64,0
275229,control_change,33,0,1,,,,,,,,,0,11,58,,,
275231,control_change,11,0,11,,,,,,,,,10,11,57,,,
275232,control_change,33,0,2,,,,,,,,,1,11,58,,,
275233,control_change,33,0,3,,,,,,,,,2,11,58,,,
275233,note_on,10,0,9,,,,,,,,,8,,,,52,0
275233,note_on,0,0,9,,,,,,,,,8,,,,52,110
275234,control_change,11,0,12,,,,,,,,,11,11,57,,,
275234,note_on,13,0,15,,,,,,,,,14,,,,40,0
275234,note_on,0,0,15,,,,,,,,,14,,,,40,112
275237,control_change,33,0,4,,,,,,,,,3,11,60,,,
275239,control_change,24,0,13,,,,,,,,,12,11,57,,,
275242,control_change,29,0,5,,,,,,,,,4,11,62,,,
275243,control_change,29,0,6,,,,,,,,,5,11,62,,,
275243,control_change,24,0,14,,,,,,,,,13,11,57,,,
275245,control_change,11,0,15,,,,,,,,,14,11,57,,,
275246,control_change,29,0,8,,,,,,,,,7,11,62,,,
275252,control_change,19,0,9,,,,,,,,,8,11,62,,,
275255,control_change,24,0,11,,,,,,,,,10,11,58,,,
275258,control_change,24,0,12,,,,,,,,,11,11,58,,,
275262,control_change,33,0,1,,,,,,,,,0,11,58,,,
275263,control_change,24,0,13,,,,,,,,,12,11,58,,,
275265,control_change,33,0,2,,,,,,,,,1,11,58,,,
275266,control_change,33,0,3,,,,,,,,,2,11,58,,,
275267,control_change,24,0,14,,,,,,,,,13,11,58,,,
275269,control_change,24,0,15,,,,,,,,,14,11,58,,,
275270,control_change,33,0,4,,,,,,,,,3,11,61,,,
275271,control_change,29,0,5,,,,,,,,,4,11,63,,,
275272,control_change,29,0,6,,,,,,,,,5,11,63,,,
275275,control_change,29,0,8,,,,,,,,,7,11,63,,,
275279,control_change,24,0,11,,,,,,,,,10,11,59,,,
275280,set_tempo,120,1,0,,,,,,326087,,,,,,,,
275280,note_on,1,0,11,,,,,,,,,10,,,,72,93
275281,control_change,29,0,9,,,,,,,,,8,11,63,,,
275282,control_change,24,0,12,,,,,,,,,11,11,59,,,
275283,note_on,1,0,12,,,,,,,,,11,,,,69,93
275283,note_on,12,0,5,,,,,,,,,4,,,,60,0
275284,note_on,12,0,6,,,,,,,,,5,,,,60,0
275287,note_on,12,0,8,,,,,,,,,7,,,,57,0
275287,note_on,0,0,8,,,,,,,,,7,,,,64,0
275287,control_change,24,0,13,,,,,,,,,12,11,59,,,
275288,note_on,1,0,13,,,,,,,,,12,,,,60,0
275291,control_change,24,0,14,,,,,,,,,13,11,59,,,
275292,note_on,1,0,14,,,,,,,,,13,,,,57,0
275293,note_on,12,0,9,,,,,,,,,8,,,,52,0
275293,control_change,24,0,15,,,,,,,,,14,11,59,,,
275293,note_on,0,0,9,,,,,,,,,8,,,,52,110
275294,note_on,1,0,15,,,,,,,,,14,,,,40,0
275294,note_on,0,0,15,,,,,,,,,14,,,,40,112
275295,control_change,33,0,1,,,,,,,,,0,11,59,,,
275298,control_change,33,0,2,,,,,,,,,1,11,59,,,
275299,control_change,33,0,3,,,,,,,,,2,11,59,,,
275301,control_change,18,0,5,,,,,,,,,4,11,64,,,
275302,control_change,18,0,6,,,,,,,,,5,11,64,,,
275303,control_change,33,0,4,,,,,,,,,3,11,62,,,
275303,control_change,23,0,11,,,,,,,,,10,11,60,,,
275305,control_change,18,0,8,,,,,,,,,7,11,64,,,
275306,control_change,23,0,12,,,,,,,,,11,11,60,,,
275311,control_change,23,0,13,,,,,,,,,12,11,60,,,
275311,control_change,18,0,9,,,,,,,,,8,11,64,,,
275315,control_change,23,0,14,,,,,,,,,13,11,60,,,
275317,control_change,23,0,15,,,,,,,,,14,11,60,,,
275327,control_change,24,0,11,,,,,,,,,10,11,61,,,
275328,control_change,33,0,1,,,,,,,,,0,11,60,,,
275330,control_change,29,0,5,,,,,,,,,4,11,65,,,
275330,control_change,24,0,12,,,,,,,,,11,11,61,,,
275331,control_change,29,0,6,,,,,,,,,5,11,65,,,
275331,control_change,33,0,2,,,,,,,,,1,11,60,,,
275332,control_change,33,0,3,,,,,,,,,2,11,60,,,
275334,control_change,29,0,8,,,,,,,,,7,11,65,,,
275335,control_change,24,0,13,,,,,,,,,12,11,61,,,
275336,control_change,33,0,4,,,,,,,,,3,11,63,,,
275339,control_change,24,0,14,,,,,,,,,13,11,61,,,
275340,note_on,13,0,11,,,,,,,,,10,,,,72,0
275340,control_change,29,0,9,,,,,,,,,8,11,65,,,
275341,control_change,24,0,15,,,,,,,,,14,11,61,,,
275343,note_on,13,0,12,,,,,,,,,11,,,,69,0
275351,control_change,11,0,11,,,,,,,,,10,11,62,,,
275354,control_change,11,0,12,,,,,,,,,11,11,62,,,
275359,control_change,24,0,13,,,,,,,,,12,11,62,,,
275359,control_change,29,0,5,,,,,,,,,4,11,66,,,
275360,control_change,29,0,6,,,,,,,,,5,11,66,,,
275361,control_change,33,0,1,,,,,,,,,0,11,61,,,
275363,control_change,29,0,8,,,,,,,,,7,11,66,,,
275363,control_change,24,0,14,,,,,,,,,13,11,62,,,
275364,control_change,33,0,2,,,,,,,,,1,11,61,,,
275365,control_change,33,0,3,,,,,,,,,2,11,61,,,
275365,control_change,24,0,15,,,,,,,,,14,11,62,,,
275369,control_change,29,0,9,,,,,,,,,8,11,66,,,
275369,control_change,33,0,4,,,,,,,,,3,11,64,,,
275375,control_change,24,0,11,,,,,,,,,10,11,63,,,
275378,control_change,24,0,12,,,,,,,,,11,11,63,,,
275383,control_change,24,0,13,,,,,,,,,12,11,63,,,
275387,control_change,24,0,14,,,,,,,,,13,11,63,,,
275389,control_change,30,0,5,,,,,,,,,4,11,67,,,
275389,control_change,24,0,15,,,,,,,,,14,11,63,,,
275390,note_on,0,0,1,,,,,,,,,0,,,,84,0
275390,note_on,29,0,1,,,,,,,,,0,,,,81,0
275390,control_change,30,0,6,,,,,,,,,5,11,67,,,
275393,control_change,30,0,8,,,,,,,,,7,11,67,,,
275393,note_on,29,0,2,,,,,,,,,1,,,,72,0
275393,note_on,0,0,2,,,,,,,,,1,,,,76,0
275394,note_on,29,0,3,,,,,,,,,2,,,,69,0
275394,note_on,0,0,3,,,,,,,,,2,,,,72,0
275394,control_change,4,0,1,,,,,,,,,0,11,61,,,
275397,control_change,4,0,2,,,,,,,,,1,11,61,,,
275398,control_change,4,0,3,,,,,,,,,2,11,61,,,
275398,note_on,0,0,4,,,,,,,,,3,,,,64,0
275398,note_on,29,0,4,,,,,,,,,3,,,,60,0
275399,control_change,24,0,11,,,,,,,,,10,11,64,,,
275399,control_change,30,0,9,,,,,,,,,8,11,67,,,
275400,note_on,1,0,11,,,,,,,,,10,,,,72,93
275400,set_tempo,120,1,0,,,,,,291262,,,,,,,,
275401,note_on,7,0,1,,,,,,,,,0,,,,81,116
275401,note_on,0,0,1,,,,,,,,,0,,,,84,116
275402,control_change,24,0,12,,,,,,,,,11,11,64,,,
275402,control_change,4,0,4,,,,,,,,,3,11,65,,,
275403,note_on,0,0,12,,,,,,,,,11,,,,69,93
275403,note_on,1,0,12,,,,,,,,,11,,,,65,93
275404,note_on,0,0,2,,,,,,,,,1,,,,72,115
275404,note_on,7,0,2,,,,,,,,,1,,,,77,115
275405,note_on,7,0,3,,,,,,,,,2,,,,69,116
275405,note_on,0,0,3,,,,,,,,,2,,,,72,116
275407,control_change,24,0,13,,,,,,,,,12,11,64,,,
275409,note_on,0,0,4,,,,,,,,,3,,,,60,115
275409,note_on,7,0,4,,,,,,,,,3,,,,65,115
275411,control_change,24,0,14,,,,,,,,,13,11,64,,,
275413,control_change,24,0,15,,,,,,,,,14,11,64,,,
275413,note_on,14,0,9,,,,,,,,,8,,,,52,0
275413,note_on,0,0,9,,,,,,,,,8,,,,51,110
275414,note_on,1,0,15,,,,,,,,,14,,,,40,0
275414,note_on,0,0,15,,,,,,,,,14,,,,39,112
275418,control_change,29,0,5,,,,,,,,,4,11,68,,,
275419,control_change,29,0,6,,,,,,,,,5,11,68,,,
275422,control_change,29,0,8,,,,,,,,,7,11,68,,,
275423,control_change,23,0,11,,,,,,,,,10,11,65,,,
275426,control_change,23,0,12,,,,,,,,,11,11,65,,,
275427,control_change,26,0,1,,,,,,,,,0,11,62,,,
275428,control_change,15,0,9,,,,,,,,,8,11,68,,,
275430,control_change,26,0,2,,,,,,,,,1,11,62,,,
275431,control_change,24,0,13,,,,,,,,,12,11,65,,,
275431,control_change,26,0,3,,,,,,,,,2,11,62,,,
275435,control_change,26,0,4,,,,,,,,,3,11,66,,,
275435,control_change,24,0,14,,,,,,,,,13,11,65,,,
275437,control_change,23,0,15,,,,,,,,,14,11,65,,,
275447,control_change,29,0,5,,,,,,,,,4,11,69,,,
275447,control_change,24,0,11,,,,,,,,,10,11,66,,,
275448,control_change,29,0,6,,,,,,,,,5,11,69,,,
275450,control_change,24,0,12,,,,,,,,,11,11,66,,,
275451,control_change,29,0,8,,,,,,,,,7,11,69,,,
275455,control_change,24,0,13,,,,,,,,,12,11,66,,,
275457,control_change,29,0,9,,,,,,,,,8,11,69,,,
275459,control_change,24,0,14,,,,,,,,,13,11,66,,,
275460,control_change,33,0,1,,,,,,,,,0,11,63,,,
275461,control_change,24,0,15,,,,,,,,,14,11,66,,,
275463,control_change,33,0,2,,,,,,,,,1,11,63,,,
275464,control_change,33,0,3,,,,,,,,,2,11,63,,,
275468,control_change,33,0,4,,,,,,,,,3,11,67,,,
275471,control_change,24,0,11,,,,,,,,,10,11,67,,,
275474,control_change,24,0,12,,,,,,,,,11,11,67,,,
275477,control_change,30,0,5,,,,,,,,,4,11,70,,,
275478,control_change,30,0,6,,,,,,,,,5,11,70,,,
275479,control_change,24,0,13,,,,,,,,,12,11,67,,,
275481,control_change,30,0,8,,,,,,,,,7,11,70,,,
275483,control_change,24,0,14,,,,,,,,,13,11,67,,,
275485,control_change,24,0,15,,,,,,,,,14,11,67,,,
275487,control_change,30,0,9,,,,,,,,,8,11,70,,,
275493,control_change,33,0,1,,,,,,,,,0,11,64,,,
275495,control_change,24,0,11,,,,,,,,,10,11,68,,,
275496,control_change,33,0,2,,,,,,,,,1,11,64,,,
275497,control_change,33,0,3,,,,,,,,,2,11,64,,,
275498,control_change,24,0,12,,,,,,,,,11,11,68,,,
275501,control_change,33,0,4,,,,,,,,,3,11,68,,,
275503,control_change,24,0,13,,,,,,,,,12,11,68,,,
275506,control_change,29,0,5,,,,,,,,,4,11,71,,,
275507,control_change,24,0,14,,,,,,,,,13,11,68,,,
275507,control_change,29,0,6,,,,,,,,,5,11,71,,,
275509,control_change,24,0,15,,,,,,,,,14,11,68,,,
275510,control_change,29,0,8,,,,,,,,,7,11,71,,,
275516,control_change,29,0,9,,,,,,,,,8,11,71,,,
275519,control_change,24,0,11,,,,,,,,,10,11,69,,,
275520,set_tempo,120,1,0,,,,,,303797,,,,,,,,
275522,control_change,24,0,12,,,,,,,,,11,11,69,,,
275526,control_change,33,0,1,,,,,,,,,0,11,64,,,
275527,control_change,24,0,13,,,,,,,,,12,11,69,,,
275528,note_on,1,0,13,,,,,,,,,12,,,,53,112
275529,control_change,33,0,2,,,,,,,,,1,11,64,,,
275530,control_change,33,0,3,,,,,,,,,2,11,64,,,
275531,control_change,24,0,14,,,,,,,,,13,11,69,,,
275532,note_on,1,0,14,,,,,,,,,13,,,,48,112
275533,control_change,24,0,15,,,,,,,,,14,11,69,,,
275534,control_change,33,0,4,,,,,,,,,3,11,69,,,
275535,control_change,29,0,5,,,,,,,,,4,11,72,,,
275536,control_change,29,0,6,,,,,,,,,5,11,72,,,
275539,control_change,29,0,8,,,,,,,,,7,11,72,,,
275543,control_change,24,0,11,,,,,,,,,10,11,70,,,
275545,control_change,29,0,9,,,,,,,,,8,11,72,,,
275546,control_change,24,0,12,,,,,,,,,11,11,70,,,
275551,control_change,23,0,13,,,,,,,,,12,11,70,,,
275555,control_change,23,0,14,,,,,,,,,13,11,70,,,
275557,control_change,24,0,15,,,,,,,,,14,11,70,,,
275559,control_change,33,0,1,,,,,,,,,0,11,65,,,
275562,control_change,33,0,2,,,,,,,,,1,11,65,,,
275563,control_change,33,0,3,,,,,,,,,2,11,65,,,
275565,control_change,30,0,5,,,,,,,,,4,11,73,,,
275566,control_change,30,0,6,,,,,,,,,5,11,73,,,
275567,control_change,33,0,4,,,,,,,,,3,11,70,,,
275567,control_change,24,0,11,,,,,,,,,10,11,71,,,
275569,control_change,30,0,8,,,,,,,,,7,11,73,,,
275570,control_change,24,0,12,,,,,,,,,11,11,71,,,
275575,control_change,30,0,9,,,,,,,,,8,11,73,,,
275575,control_change,24,0,13,,,,,,,,,12,11,71,,,
275579,control_change,24,0,14,,,,,,,,,13,11,71,,,
275581,control_change,24,0,15,,,,,,,,,14,11,71,,,
275583,note_on,18,0,5,,,,,,,,,4,,,,60,100
275584,note_on,18,0,6,,,,,,,,,5,,,,60,100
275587,note_on,0,0,8,,,,,,,,,7,,,,65,110
275587,note_on,18,0,8,,,,,,,,,7,,,,57,110
275588,note_on,13,0,13,,,,,,,,,12,,,,53,0
275591,control_change,24,0,11,,,,,,,,,10,11,72,,,
275592,control_change,33,0,1,,,,,,,,,0,11,66,,,
275592,note_on,13,0,14,,,,,,,,,13,,,,48,0
275594,control_change,24,0,12,,,,,,,,,11,11,72,,,
275594,control_change,11,0,5,,,,,,,,,4,11,74,,,
275595,control_change,11,0,6,,,,,,,,,5,11,74,,,
275595,control_change,33,0,2,,,,,,,,,1,11,66,,,
275596,control_change,33,0,3,,,,,,,,,2,11,66,,,
275598,control_change,11,0,8,,,,,,,,,7,11,74,,,
275599,control_change,11,0,13,,,,,,,,,12,11,72,,,
275600,control_change,33,0,4,,,,,,,,,3,11,71,,,
275603,control_change,11,0,14,,,,,,,,,13,11,72,,,
275604,control_change,29,0,9,,,,,,,,,8,11,74,,,
275605,control_change,24,0,15,,,,,,,,,14,11,72,,,
275615,control_change,24,0,11,,,,,,,,,10,11,72,,,
275618,control_change,24,0,12,,,,,,,,,11,11,72,,,
275623,control_change,29,0,5,,,,,,,,,4,11,75,,,
275623,control_change,24,0,13,,,,,,,,,12,11,72,,,
275624,control_change,29,0,6,,,,,,,,,5,11,75,,,
275625,control_change,33,0,1,,,,,,,,,0,11,67,,,
275627,control_change,24,0,14,,,,,,,,,13,11,72,,,
275627,control_change,29,0,8,,,,,,,,,7,11,75,,,
275628,control_change,33,0,2,,,,,,,,,1,11,67,,,
275629,control_change,33,0,3,,,,,,,,,2,11,67,,,
275629,control_change,24,0,15,,,,,,,,,14,11,72,,,
275633,control_change,29,0,9,,,,,,,,,8,11,75,,,
275633,control_change,33,0,4,,,,,,,,,3,11,72,,,
275639,control_change,24,0,11,,,,,,,,,10,11,73,,,
275640,set_tempo,120,1,0,,,,,,319149,,,,,,,,
275640,note_on,1,0,11,,,,,,,,,10,,,,72,0
275642,control_change,24,0,12,,,,,,,,,11,11,73,,,
275643,note_on,1,0,12,,,,,,,,,11,,,,69,0
275643,note_on,0,0,12,,,,,,,,,11,,,,65,0
275643,note_on,0,0,5,,,,,,,,,4,,,,60,100
275643,note_on,20,0,5,,,,,,,,,4,,,,60,0
275644,note_on,0,0,6,,,,,,,,,5,,,,60,100
275644,note_on,20,0,6,,,,,,,,,5,,,,60,0
275647,note_on,0,0,8,,,,,,,,,7,,,,57,0
275647,note_on,20,0,8,,,,,,,,,7,,,,65,0
275647,control_change,24,0,13,,,,,,,,,12,11,73,,,
275647,note_on,0,0,8,,,,,,,,,7,,,,65,110
275647,note_on,0,0,8,,,,,,,,,7,,,,57,110
275648,note_on,1,0,13,,,,,,,,,12,,,,57,112
275651,control_change,24,0,14,,,,,,,,,13,11,73,,,
275652,note_on,1,0,14,,,,,,,,,13,,,,53,112
275653,control_change,24,0,15,,,,,,,,,14,11,73,,,
275653,control_change,10,0,5,,,,,,,,,4,11,76,,,
275653,note_on,20,0,9,,,,,,,,,8,,,,51,0
275654,control_change,10,0,6,,,,,,,,,5,11,76,,,
275654,note_on,1,0,15,,,,,,,,,14,,,,39,0
275657,control_change,10,0,8,,,,,,,,,7,11,76,,,
275658,control_change,33,0,1,,,,,,,,,0,11,67,,,
275661,control_change,33,0,2,,,,,,,,,1,11,67,,,
275662,control_change,33,0,3,,,,,,,,,2,11,67,,,
275663,control_change,10,0,9,,,,,,,,,8,11,76,,,
275663,control_change,23,0,11,,,,,,,,,10,11,74,,,
275666,control_change,23,0,12,,,,,,,,,11,11,74,,,
275666,control_change,33,0,4,,,,,,,,,3,11,73,,,
275671,control_change,23,0,13,,,,,,,,,12,11,74,,,
275675,control_change,23,0,14,,,,,,,,,13,11,74,,,
275677,control_change,23,0,15,,,,,,,,,14,11,74,,,
275682,control_change,29,0,5,,,,,,,,,4,11,77,,,
275683,control_change,29,0,6,,,,,,,,,5,11,77,,,
275686,control_change,29,0,8,,,,,,,,,7,11,77,,,
275687,control_change,24,0,11,,,,,,,,,10,11,75,,,
275690,control_change,24,0,12,,,,,,,,,11,11,75,,,
275691,control_change,33,0,1,,,,,,,,,0,11,68,,,
275692,control_change,29,0,9,,,,,,,,,8,11,77,,,
275694,control_change,33,0,2,,,,,,,,,1,11,68,,,
275695,control_change,24,0,13,,,,,,,,,12,11,75,,,
275695,control_change,33,0,3,,,,,,,,,2,11,68,,,
275699,control_change,33,0,4,,,,,,,,,3,11,74,,,
275699,control_change,24,0,14,,,,,,,,,13,11,75,,,
275701,control_change,24,0,15,,,,,,,,,14,11,75,,,
275708,note_on,13,0,13,,,,,,,,,12,,,,57,0
275711,control_change,29,0,5,,,,,,,,,4,11,78,,,
275711,control_change,24,0,11,,,,,,,,,10,11,76,,,
275712,control_change,29,0,6,,,,,,,,,5,11,78,,,
275712,note_on,13,0,14,,,,,,,,,13,,,,53,0
275714,control_change,24,0,12,,,,,,,,,11,11,76,,,
275715,control_change,29,0,8,,,,,,,,,7,11,78,,,
275719,control_change,11,0,13,,,,,,,,,12,11,76,,,
275721,control_change,29,0,9,,,,,,,,,8,11,78,,,
275723,control_change,11,0,14,,,,,,,,,13,11,76,,,
275724,control_change,33,0,1,,,,,,,,,0,11,69,,,
275725,control_change,24,0,15,,,,,,,,,14,11,76,,,
275727,control_change,33,0,2,,,,,,,,,1,11,69,,,
275728,control_change,33,0,3,,,,,,,,,2,11,69,,,
275732,control_change,33,0,4,,,,,,,,,3,11,75,,,
275735,control_change,24,0,11,,,,,,,,,10,11,77,,,
275738,control_change,24,0,12,,,,,,,,,11,11,77,,,
275740,control_change,29,0,5,,,,,,,,,4,11,79,,,
275741,control_change,29,0,6,,,,,,,,,5,11,79,,,
275743,control_change,24,0,13,,,,,,,,,12,11,77,,,
275744,control_change,29,0,8,,,,,,,,,7,11,79,,,
275747,control_change,24,0,14,,,,,,,,,13,11,77,,,
275749,control_change,24,0,15,,,,,,,,,14,11,77,,,
275750,control_change,29,0,9,,,,,,,,,8,11,79,,,
275750,note_on,0,0,1,,,,,,,,,0,,,,81,0
275750,note_on,26,0,1,,,,,,,,,0,,,,84,0
275753,note_on,26,0,2,,,,,,,,,1,,,,72,0
275753,note_on,0,0,2,,,,,,,,,1,,,,77,0
275754,note_on,26,0,3,,,,,,,,,2,,,,72,0
275754,note_on,0,0,3,,,,,,,,,2,,,,69,0
275757,control_change,7,0,1,,,,,,,,,0,11,70,,,
275758,note_on,26,0,4,,,,,,,,,3,,,,60,0
275758,note_on,0,0,4,,,,,,,,,3,,,,65,0
275759,control_change,24,0,11,,,,,,,,,10,11,78,,,
275760,set_tempo,120,1,0,,,,,,291262,,,,,,,,
275760,control_change,7,0,2,,,,,,,,,1,11,70,,,
275760,note_on,1,0,11,,,,,,,,,10,,,,66,93
275761,control_change,7,0,3,,,,,,,,,2,11,70,,,
275761,note_on,0,0,1,,,,,,,,,0,,,,81,116
275761,note_on,4,0,1,,,,,,,,,0,,,,84,116
275762,control_change,24,0,12,,,,,,,,,11,11,78,,,
275763,note_on,0,0,5,,,,,,,,,4,,,,60,100
275763,note_on,1,0,12,,,,,,,,,11,,,,60,93
275763,note_on,23,0,5,,,,,,,,,4,,,,60,0
275764,note_on,0,0,2,,,,,,,,,1,,,,78,115
275764,note_on,4,0,2,,,,,,,,,1,,,,72,115
275764,note_on,0,0,6,,,,,,,,,5,,,,60,100
275764,note_on,23,0,6,,,,,,,,,5,,,,60,0
275765,note_on,0,0,3,,,,,,,,,2,,,,72,116
275765,note_on,4,0,3,,,,,,,,,2,,,,69,116
275765,control_change,7,0,4,,,,,,,,,3,11,76,,,
275767,note_on,0,0,8,,,,,,,,,7,,,,57,110
275767,control_change,24,0,13,,,,,,,,,12,11,78,,,
275767,note_on,23,0,8,,,,,,,,,7,,,,65,0
275767,note_on,0,0,8,,,,,,,,,7,,,,66,110
275767,note_on,0,0,8,,,,,,,,,7,,,,57,0
275768,note_on,1,0,13,,,,,,,,,12,,,,60,112
275769,note_on,0,0,4,,,,,,,,,3,,,,66,115
275769,note_on,4,0,4,,,,,,,,,3,,,,60,115
275770,control_change,7,0,5,,,,,,,,,4,11,80,,,
275771,control_change,24,0,14,,,,,,,,,13,11,78,,,
275771,control_change,7,0,6,,,,,,,,,5,11,80,,,
275772,note_on,1,0,14,,,,,,,,,13,,,,57,112
275773,note_on,23,0,9,,,,,,,,,8,,,,50,110
275773,control_change,24,0,15,,,,,,,,,14,11,78,,,
275774,note_on,1,0,15,,,,,,,,,14,,,,38,112
275774,control_change,7,0,8,,,,,,,,,7,11,80,,,
275780,control_change,7,0,9,,,,,,,,,8,11,80,,,
275783,control_change,23,0,11,,,,,,,,,10,11,79,,,
275786,control_change,23,0,12,,,,,,,,,11,11,79,,,
275790,control_change,29,0,1,,,,,,,,,0,11,70,,,
275791,control_change,23,0,13,,,,,,,,,12,11,79,,,
275793,control_change,29,0,2,,,,,,,,,1,11,70,,,
275794,control_change,29,0,3,,,,,,,,,2,11,70,,,
275795,control_change,23,0,14,,,,,,,,,13,11,79,,,
275797,control_change,23,0,15,,,,,,,,,14,11,79,,,
275798,control_change,29,0,4,,,,,,,,,3,11,77,,,
275799,control_change,29,0,5,,,,,,,,,4,11,81,,,
275800,control_change,29,0,6,,,,,,,,,5,11,81,,,
275803,control_change,29,0,8,,,,,,,,,7,11,81,,,
275807,control_change,24,0,11,,,,,,,,,10,11,80,,,
275809,control_change,29,0,9,,,,,,,,,8,11,81,,,
275810,control_change,24,0,12,,,,,,,,,11,11,80,,,
275815,control_change,24,0,13,,,,,,,,,12,11,80,,,
275819,control_change,24,0,14,,,,,,,,,13,11,80,,,
275820,note_on,13,0,11,,,,,,,,,10,,,,66,0
275821,control_change,24,0,15,,,,,,,,,14,11,80,,,
275823,control_change,33,0,1,,,,,,,,,0,11,71,,,
275823,note_on,13,0,12,,,,,,,,,11,,,,60,0
275826,control_change,33,0,2,,,,,,,,,1,11,71,,,
275827,control_change,33,0,3,,,,,,,,,2,11,71,,,
275828,control_change,29,0,5,,,,,,,,,4,11,82,,,
275829,control_change,29,0,6,,,,,,,,,5,11,82,,,
275831,control_change,33,0,4,,,,,,,,,3,11,78,,,
275831,control_change,11,0,11,,,,,,,,,10,11,81,,,
275832,control_change,29,0,8,,,,,,,,,7,11,82,,,
275834,control_change,11,0,12,,,,,,,,,11,11,81,,,
275838,control_change,29,0,9,,,,,,,,,8,11,82,,,
275839,control_change,24,0,13,,,,,,,,,12,11,81,,,
275843,control_change,24,0,14,,,,,,,,,13,11,81,,,
275845,control_change,24,0,15,,,,,,,,,14,11,81,,,
275855,control_change,24,0,11,,,,,,,,,10,11,82,,,
275856,control_change,33,0,1,,,,,,,,,0,11,72,,,
275858,control_change,24,0,12,,,,,,,,,11,11,82,,,
275858,control_change,30,0,5,,,,,,,,,4,11,83,,,
275859,control_change,33,0,2,,,,,,,,,1,11,72,,,
275859,control_change,30,0,6,,,,,,,,,5,11,83,,,
275860,control_change,33,0,3,,,,,,,,,2,11,72,,,
275862,control_change,30,0,8,,,,,,,,,7,11,83,,,
275863,control_change,24,0,13,,,,,,,,,12,11,82,,,
275864,control_change,33,0,4,,,,,,,,,3,11,79,,,
275867,control_change,24,0,14,,,,,,,,,13,11,82,,,
275868,control_change,30,0,9,,,,,,,,,8,11,83,,,
275869,control_change,24,0,15,,,,,,,,,14,11,82,,,
275879,control_change,24,0,11,,,,,,,,,10,11,83,,,
275880,set_tempo,120,1,0,,,,,,307692,,,,,,,,
275880,note_on,1,0,11,,,,,,,,,10,,,,69,93
275882,control_change,24,0,12,,,,,,,,,11,11,83,,,
275883,note_on,1,0,12,,,,,,,,,11,,,,66,93
275887,control_change,24,0,13,,,,,,,,,12,11,83,,,
275887,control_change,29,0,5,,,,,,,,,4,11,84,,,
275888,control_change,29,0,6,,,,,,,,,5,11,84,,,
275889,control_change,33,0,1,,,,,,,,,0,11,73,,,
275891,control_change,24,0,14,,,,,,,,,13,11,83,,,
275891,control_change,29,0,8,,,,,,,,,7,11,84,,,
275892,control_change,33,0,2,,,,,,,,,1,11,73,,,
275893,control_change,33,0,3,,,,,,,,,2,11,73,,,
275893,control_change,24,0,15,,,,,,,,,14,11,83,,,
275897,control_change,29,0,9,,,,,,,,,8,11,84,,,
275897,control_change,33,0,4,,,,,,,,,3,11,80,,,
275903,control_change,23,0,11,,,,,,,,,10,11,84,,,
275906,control_change,23,0,12,,,,,,,,,11,11,84,,,
275911,control_change,24,0,13,,,,,,,,,12,11,84,,,
275915,control_change,24,0,14,,,,,,,,,13,11,84,,,
275916,control_change,29,0,5,,,,,,,,,4,11,85,,,
275917,control_change,24,0,15,,,,,,,,,14,11,84,,,
275917,control_change,29,0,6,,,,,,,,,5,11,85,,,
275920,control_change,29,0,8,,,,,,,,,7,11,85,,,
275922,control_change,33,0,1,,,,,,,,,0,11,73,,,
275925,control_change,33,0,2,,,,,,,,,1,11,73,,,
275926,control_change,33,0,3,,,,,,,,,2,11,73,,,
275926,control_change,29,0,9,,,,,,,,,8,11,85,,,
275927,control_change,24,0,11,,,,,,,,,10,11,85,,,
275930,control_change,24,0,12,,,,,,,,,11,11,85,,,
275930,control_change,33,0,4,,,,,,,,,3,11,81,,,
275935,control_change,24,0,13,,,,,,,,,12,11,85,,,
275939,control_change,24,0,14,,,,,,,,,13,11,85,,,
275940,note_on,13,0,11,,,,,,,,,10,,,,69,0
275941,control_change,24,0,15,,,,,,,,,14,11,85,,,
275943,note_on,13,0,12,,,,,,,,,11,,,,66,0
275946,control_change,30,0,5,,,,,,,,,4,11,86,,,
275947,control_change,30,0,6,,,,,,,,,5,11,86,,,
275950,control_change,30,0,8,,,,,,,,,7,11,86,,,
275951,control_change,11,0,11,,,,,,,,,10,11,86,,,
275953,note_on,0,0,9,,,,,,,,,8,,,,50,110
275953,note_on,27,0,9,,,,,,,,,8,,,,50,0
275954,note_on,13,0,15,,,,,,,,,14,,,,38,0
275954,note_on,0,0,15,,,,,,,,,14,,,,38,112
275954,control_change,11,0,12,,,,,,,,,11,11,86,,,
275955,control_change,33,0,1,,,,,,,,,0,11,74,,,
275956,control_change,3,0,9,,,,,,,,,8,11,86,,,
275958,control_change,33,0,2,,,,,,,,,1,11,74,,,
275959,control_change,33,0,3,,,,,,,,,2,11,74,,,
275959,control_change,24,0,13,,,,,,,,,12,11,86,,,
275963,control_change,24,0,14,,,,,,,,,13,11,86,,,
275963,control_change,33,0,4,,,,,,,,,3,11,82,,,
275965,control_change,11,0,15,,,,,,,,,14,11,86,,,
275975,control_change,24,0,11,,,,,,,,,10,11,87,,,
275975,control_change,29,0,5,,,,,,,,,4,11,87,,,
275976,control_change,29,0,6,,,,,,,,,5,11,87,,,
275978,control_change,24,0,12,,,,,,,,,11,11,87,,,
275979,control_change,29,0,8,,,,,,,,,7,11,87,,,
275983,control_change,24,0,13,,,,,,,,,12,11,87,,,
275985,control_change,29,0,9,,,,,,,,,8,11,87,,,
275987,control_change,24,0,14,,,,,,,,,13,11,87,,,
275988,control_change,33,0,1,,,,,,,,,0,11,75,,,
275989,control_change,24,0,15,,,,,,,,,14,11,87,,,
275991,control_change,33,0,2,,,,,,,,,1,11,75,,,
275992,control_change,33,0,3,,,,,,,,,2,11,75,,,
275996,control_change,33,0,4,,,,,,,,,3,11,83,,,
275999,control_change,24,0,11,,,,,,,,,10,11,87,,,
276000,note_on,1,0,11,,,,,,,,,10,,,,72,93
276000,set_tempo,120,1,0,,,,,,325203,,,,,,,,
276002,control_change,24,0,12,,,,,,,,,11,11,87,,,
276003,note_on,1,0,12,,,,,,,,,11,,,,69,93
276003,note_on,28,0,5,,,,,,,,,4,,,,60,0
276004,note_on,28,0,6,,,,,,,,,5,,,,60,0
276004,control_change,1,0,5,,,,,,,,,4,11,88,,,
276005,control_change,1,0,6,,,,,,,,,5,11,88,,,
276007,control_change,24,0,13,,,,,,,,,12,11,87,,,
276007,note_on,0,0,8,,,,,,,,,7,,,,66,0
276007,note_on,28,0,8,,,,,,,,,7,,,,57,0
276008,note_on,1,0,13,,,,,,,,,12,,,,60,0
276008,control_change,1,0,8,,,,,,,,,7,11,88,,,
276011,control_change,24,0,14,,,,,,,,,13,11,87,,,
276012,note_on,1,0,14,,,,,,,,,13,,,,57,0
276013,control_change,24,0,15,,,,,,,,,14,11,87,,,
276013,note_on,28,0,9,,,,,,,,,8,,,,50,0
276013,note_on,0,0,9,,,,,,,,,8,,,,50,110
276014,note_on,1,0,15,,,,,,,,,14,,,,38,0
276014,note_on,0,0,15,,,,,,,,,14,,,,38,112
276014,control_change,1,0,9,,,,,,,,,8,11,88,,,
276021,control_change,33,0,1,,,,,,,,,0,11,76,,,
276023,control_change,23,0,11,,,,,,,,,10,11,88,,,
276024,control_change,33,0,2,,,,,,,,,1,11,76,,,
276025,control_change,33,0,3,,,,,,,,,2,11,76,,,
276026,control_change,23,0,12,,,,,,,,,11,11,88,,,
276029,control_change,33,0,4,,,,,,,,,3,11,84,,,
276031,control_change,23,0,13,,,,,,,,,12,11,88,,,
276034,control_change,30,0,5,,,,,,,,,4,11,89,,,
276035,control_change,23,0,14,,,,,,,,,13,11,88,,,
276035,control_change,30,0,6,,,,,,,,,5,11,89,,,
276037,control_change,23,0,15,,,,,,,,,14,11,88,,,
276038,control_change,30,0,8,,,,,,,,,7,11,89,,,
276044,control_change,30,0,9,,,,,,,,,8,11,89,,,
276047,control_change,24,0,11,,,,,,,,,10,11,89,,,
276050,control_change,24,0,12,,,,,,,,,11,11,89,,,
276054,control_change,33,0,1,,,,,,,,,0,11,76,,,
276055,control_change,24,0,13,,,,,,,,,12,11,89,,,
276057,control_change,33,0,2,,,,,,,,,1,11,76,,,
276058,control_change,33,0,3,,,,,,,,,2,11,76,,,
276059,control_change,24,0,14,,,,,,,,,13,11,89,,,
276060,note_on,13,0,11,,,,,,,,,10,,,,72,0
276061,control_change,24,0,15,,,,,,,,,14,11,89,,,
276062,control_change,33,0,4,,,,,,,,,3,11,85,,,
276063,control_change,29,0,5,,,,,,,,,4,11,90,,,
276063,note_on,13,0,12,,,,,,,,,11,,,,69,0
276064,control_change,29,0,6,,,,,,,,,5,11,90,,,
276067,control_change,29,0,8,,,,,,,,,7,11,90,,,
276071,control_change,11,0,11,,,,,,,,,10,11,90,,,
276073,control_change,29,0,9,,,,,,,,,8,11,90,,,
276074,control_change,11,0,12,,,,,,,,,11,11,90,,,
276079,control_change,24,0,13,,,,,,,,,12,11,90,,,
276083,control_change,24,0,14,,,,,,,,,13,11,90,,,
276085,control_change,24,0,15,,,,,,,,,14,11,90,,,
276087,control_change,33,0,1,,,,,,,,,0,11,77,,,
276090,control_change,33,0,2,,,,,,,,,1,11,77,,,
276091,control_change,33,0,3,,,,,,,,,2,11,77,,,
276092,control_change,29,0,5,,,,,,,,,4,11,91,,,
276093,control_change,29,0,6,,,,,,,,,5,11,91,,,
276095,control_change,33,0,4,,,,,,,,,3,11,86,,,
276095,control_change,24,0,11,,,,,,,,,10,11,91,,,
276096,control_change,29,0,8,,,,,,,,,7,11,91,,,
276098,control_change,24,0,12,,,,,,,,,11,11,91,,,
276102,control_change,29,0,9,,,,,,,,,8,11,91,,,
276103,control_change,24,0,13,,,,,,,,,12,11,91,,,
276107,control_change,24,0,14,,,,,,,,,13,11,91,,,
276109,control_change,24,0,15,,,,,,,,,14,11,91,,,
276110,note_on,23,0,1,,,,,,,,,0,,,,81,0
276110,note_on,0,0,1,,,,,,,,,0,,,,84,0
276113,note_on,0,0,2,,,,,,,,,1,,,,72,0
276113,note_on,23,0,2,,,,,,,,,1,,,,78,0
276114,note_on,0,0,3,,,,,,,,,2,,,,69,0
276114,note_on,23,0,3,,,,,,,,,2,,,,72,0
276118,note_on,0,0,4,,,,,,,,,3,,,,60,0
276118,note_on,23,0,4,,,,,,,,,3,,,,66,0
276119,control_change,24,0,11,,,,,,,,,10,11,92,,,
276120,set_tempo,120,1,0,,,,,,291262,,,,,,,,
276120,note_on,1,0,11,,,,,,,,,10,,,,73,93
276120,note_on,0,0,11,,,,,,,,,10,,,,64,93
276120,control_change,10,0,1,,,,,,,,,0,11,78,,,
276121,note_on,1,0,1,,,,,,,,,0,,,,85,101
276121,note_on,0,0,1,,,,,,,,,0,,,,81,101
276122,control_change,30,0,5,,,,,,,,,4,11,92,,,
276122,control_change,24,0,12,,,,,,,,,11,11,92,,,
276123,control_change,10,0,2,,,,,,,,,1,11,78,,,
276123,control_change,30,0,6,,,,,,,,,5,11,92,,,
276123,note_on,1,0,12,,,,,,,,,11,,,,69,93
276124,note_on,0,0,2,,,,,,,,,1,,,,73,100
276124,control_change,10,0,3,,,,,,,,,2,11,78,,,
276124,note_on,1,0,2,,,,,,,,,1,,,,76,100
276125,note_on,0,0,3,,,,,,,,,2,,,,73,101
276125,note_on,1,0,3,,,,,,,,,2,,,,69,101
276126,control_change,30,0,8,,,,,,,,,7,11,92,,,
276127,control_change,24,0,13,,,,,,,,,12,11,92,,,
276128,note_on,1,0,13,,,,,,,,,12,,,,52,112
276128,control_change,10,0,4,,,,,,,,,3,11,87,,,
276129,note_on,0,0,4,,,,,,,,,3,,,,64,100
276129,note_on,1,0,4,,,,,,,,,3,,,,61,100
276131,control_change,24,0,14,,,,,,,,,13,11,92,,,
276132,control_change,30,0,9,,,,,,,,,8,11,92,,,
276132,note_on,1,0,14,,,,,,,,,13,,,,49,112
276133,control_change,24,0,15,,,,,,,,,14,11,92,,,
276133,note_on,1,0,9,,,,,,,,,8,,,,50,0
276133,note_on,0,0,9,,,,,,,,,8,,,,49,110
276134,note_on,1,0,15,,,,,,,,,14,,,,38,0
276134,note_on,0,0,15,,,,,,,,,14,,,,37,112
276188,note_on,60,0,13,,,,,,,,,12,,,,52,0
276192,note_on,60,0,14,,,,,,,,,13,,,,49,0
276240,set_tempo,120,1,0,,,,,,307692,,,,,,,,
276248,note_on,60,0,13,,,,,,,,,12,,,,57,112
276252,note_on,60,0,14,,,,,,,,,13,,,,52,112
276303,note_on,181,0,5,,,,,,,,,4,,,,57,100
276304,note_on,181,0,6,,,,,,,,,5,,,,57,100
276307,note_on,181,0,8,,,,,,,,,7,,,,64,110
276307,note_on,0,0,8,,,,,,,,,7,,,,61,110
276308,note_on,60,0,13,,,,,,,,,12,,,,57,0
276312,note_on,60,0,14,,,,,,,,,13,,,,52,0
276360,note_on,240,0,11,,,,,,,,,10,,,,64,0
276360,set_tempo,120,1,0,,,,,,340909,,,,,,,,
276360,note_on,0,0,11,,,,,,,,,10,,,,73,0
276363,note_on,0,0,5,,,,,,,,,4,,,,57,100
276363,note_on,240,0,12,,,,,,,,,11,,,,69,0
276363,note_on,60,0,5,,,,,,,,,4,,,,57,0
276364,note_on,60,0,6,,,,,,,,,5,,,,57,0
276364,note_on,0,0,6,,,,,,,,,5,,,,57,100
276367,note_on,0,0,8,,,,,,,,,7,,,,61,110
276367,note_on,0,0,8,,,,,,,,,7,,,,64,0
276367,note_on,60,0,8,,,,,,,,,7,,,,61,0
276367,note_on,0,0,8,,,,,,,,,7,,,,64,110
276368,note_on,60,0,13,,,,,,,,,12,,,,61,112
276372,note_on,60,0,14,,,,,,,,,13,,,,57,112
276373,note_on,240,0,9,,,,,,,,,8,,,,49,0
276374,note_on,240,0,15,,,,,,,,,14,,,,37,0
276428,note_on,60,0,13,,,,,,,,,12,,,,61,0
276432,note_on,60,0,14,,,,,,,,,13,,,,57,0
276480,set_tempo,120,1,0,,,,,,291262,,,,,,,,
276480,note_on,120,0,11,,,,,,,,,10,,,,66,93
276483,note_on,120,0,5,,,,,,,,,4,,,,57,0
276483,note_on,0,0,5,,,,,,,,,4,,,,57,100
276483,note_on,120,0,12,,,,,,,,,11,,,,62,93
276484,note_on,360,0,2,,,,,,,,,1,,,,76,0
276484,note_on,120,0,6,,,,,,,,,5,,,,57,0
276484,note_on,0,0,6,,,,,,,,,5,,,,57,100
276484,note_on,0,0,2,,,,,,,,,1,,,,78,100
276487,note_on,0,0,8,,,,,,,,,7,,,,64,0
276487,note_on,0,0,8,,,,,,,,,7,,,,61,110
276487,note_on,0,0,8,,,,,,,,,7,,,,66,110
276487,note_on,120,0,8,,,,,,,,,7,,,,61,0
276488,note_on,60,0,13,,,,,,,,,12,,,,66,112
276489,note_on,360,0,4,,,,,,,,,3,,,,64,0
276489,note_on,0,0,4,,,,,,,,,3,,,,61,0
276489,note_on,0,0,4,,,,,,,,,3,,,,66,100
276492,note_on,60,0,14,,,,,,,,,13,,,,57,112
276493,note_on,120,0,9,,,,,,,,,8,,,,47,110
276494,note_on,120,0,15,,,,,,,,,14,,,,35,112
276540,note_on,60,0,11,,,,,,,,,10,,,,66,0
276543,note_on,60,0,12,,,,,,,,,11,,,,62,0
276600,note_on,60,0,11,,,,,,,,,10,,,,69,93
276600,set_tempo,120,1,0,,,,,,307692,,,,,,,,
276601,note_on,0,0,1,,,,,,,,,0,,,,88,101
276601,note_on,480,0,1,,,,,,,,,0,,,,85,0
276603,note_on,60,0,12,,,,,,,,,11,,,,66,93
276604,note_on,0,0,2,,,,,,,,,1,,,,76,100
276604,note_on,120,0,2,,,,,,,,,1,,,,73,0
276605,note_on,480,0,3,,,,,,,,,2,,,,73,0
276605,note_on,0,0,3,,,,,,,,,2,,,,76,101
276660,note_on,60,0,11,,,,,,,,,10,,,,69,0
276663,note_on,60,0,12,,,,,,,,,11,,,,66,0
276720,set_tempo,120,1,0,,,,,,340909,,,,,,,,
276720,note_on,60,0,11,,,,,,,,,10,,,,74,93
276721,note_on,120,0,1,,,,,,,,,0,,,,88,0
276721,note_on,0,0,1,,,,,,,,,0,,,,86,101
276723,note_on,60,0,12,,,,,,,,,11,,,,69,93
276723,note_on,240,0,5,,,,,,,,,4,,,,57,0
276724,note_on,240,0,6,,,,,,,,,5,,,,57,0
276724,note_on,120,0,2,,,,,,,,,1,,,,76,0
276724,note_on,0,0,2,,,,,,,,,1,,,,74,100
276725,note_on,120,0,3,,,,,,,,,2,,,,76,0
276725,note_on,0,0,3,,,,,,,,,2,,,,74,101
276727,note_on,240,0,8,,,,,,,,,7,,,,66,0
276727,note_on,0,0,8,,,,,,,,,7,,,,61,0
276727,note_on,0,0,8,,,,,,,,,7,,,,62,110
276728,note_on,240,0,13,,,,,,,,,12,,,,66,0
276732,note_on,240,0,14,,,,,,,,,13,,,,57,0
276733,note_on,240,0,9,,,,,,,,,8,,,,47,0
276734,note_on,240,0,15,,,,,,,,,14,,,,35,0
276780,note_on,60,0,11,,,,,,,,,10,,,,74,0
276783,note_on,60,0,12,,,,,,,,,11,,,,69,0
276840,set_tempo,120,1,0,,,,,,291262,,,,,,,,
276840,note_on,0,0,11,,,,,,,,,10,,,,64,93
276840,note_on,60,0,11,,,,,,,,,10,,,,73,93
276841,note_on,0,0,1,,,,,,,,,0,,,,85,101
276841,note_on,0,0,1,,,,,,,,,0,,,,81,101
276841,note_on,120,0,1,,,,,,,,,0,,,,86,0
276841,note_on,0,0,1,,,,,,,,,0,,,,81,0
276843,note_on,60,0,12,,,,,,,,,11,,,,69,93
276843,note_on,0,0,12,,,,,,,,,11,,,,61,93
276844,note_on,0,0,2,,,,,,,,,1,,,,76,100
276844,note_on,0,0,2,,,,,,,,,1,,,,78,0
276844,note_on,0,0,2,,,,,,,,,1,,,,73,100
276844,note_on,120,0,2,,,,,,,,,1,,,,74,0
276845,note_on,0,0,3,,,,,,,,,2,,,,73,101
276845,note_on,0,0,3,,,,,,,,,2,,,,69,0
276845,note_on,120,0,3,,,,,,,,,2,,,,74,0
276845,note_on,0,0,3,,,,,,,,,2,,,,69,101
276847,note_on,120,0,8,,,,,,,,,7,,,,62,0
276848,note_on,120,0,13,,,,,,,,,12,,,,52,112
276849,note_on,0,0,4,,,,,,,,,3,,,,64,100
276849,note_on,360,0,4,,,,,,,,,3,,,,66,0
276852,note_on,120,0,14,,,,,,,,,13,,,,49,112
276853,note_on,120,0,9,,,,,,,,,8,,,,49,110
276854,note_on,120,0,15,,,,,,,,,14,,,,37,112
276908,note_on,60,0,13,,,,,,,,,12,,,,52,0
276912,note_on,60,0,14,,,,,,,,,13,,,,49,0
276960,set_tempo,120,1,0,,,,,,307692,,,,,,,,
276968,note_on,60,0,13,,,,,,,,,12,,,,57,112
276972,note_on,60,0,14,,,,,,,,,13,,,,52,112
277023,note_on,300,0,5,,,,,,,,,4,,,,64,100
277024,note_on,300,0,6,,,,,,,,,5,,,,52,100
277027,note_on,180,0,8,,,,,,,,,7,,,,57,110
277027,note_on,0,0,8,,,,,,,,,7,,,,61,110
277028,note_on,60,0,13,,,,,,,,,12,,,,57,0
277032,note_on,60,0,14,,,,,,,,,13,,,,52,0
277033,note_on,0,0,9,,,,,,,,,8,,,,50,110
277033,note_on,180,0,9,,,,,,,,,8,,,,49,0
277034,note_on,0,0,15,,,,,,,,,14,,,,38,112
277034,note_on,180,0,15,,,,,,,,,14,,,,37,0
277080,note_on,240,0,11,,,,,,,,,10,,,,64,0
277080,set_tempo,120,1,0,,,,,,340909,,,,,,,,
277080,note_on,0,0,11,,,,,,,,,10,,,,73,0
277083,note_on,0,0,5,,,,,,,,,4,,,,64,100
277083,note_on,60,0,5,,,,,,,,,4,,,,64,0
277083,note_on,240,0,12,,,,,,,,,11,,,,61,0
277083,note_on,0,0,12,,,,,,,,,11,,,,69,0
277084,note_on,0,0,6,,,,,,,,,5,,,,52,100
277084,note_on,60,0,6,,,,,,,,,5,,,,52,0
277087,note_on,0,0,8,,,,,,,,,7,,,,57,110
277087,note_on,0,0,8,,,,,,,,,7,,,,57,0
277087,note_on,60,0,8,,,,,,,,,7,,,,61,0
277087,note_on,0,0,8,,,,,,,,,7,,,,61,110
277088,note_on,60,0,13,,,,,,,,,12,,,,61,112
277092,note_on,60,0,14,,,,,,,,,13,,,,57,112
277093,note_on,0,0,9,,,,,,,,,8,,,,52,110
277093,note_on,60,0,9,,,,,,,,,8,,,,50,0
277094,note_on,60,0,15,,,,,,,,,14,,,,38,0
277094,note_on,0,0,15,,,,,,,,,14,,,,40,112
277148,note_on,60,0,13,,,,,,,,,12,,,,61,0
277152,note_on,60,0,14,,,,,,,,,13,,,,57,0
277200,set_tempo,120,1,0,,,,,,291262,,,,,,,,
277200,note_on,120,0,11,,,,,,,,,10,,,,62,93
277203,note_on,120,0,12,,,,,,,,,11,,,,64,93
277203,note_on,120,0,5,,,,,,,,,4,,,,64,0
277203,note_on,0,0,5,,,,,,,,,4,,,,64,100
277204,note_on,0,0,6,,,,,,,,,5,,,,52,100
277204,note_on,120,0,6,,,,,,,,,5,,,,52,0
277207,note_on,0,0,8,,,,,,,,,7,,,,59,110
277207,note_on,120,0,8,,,,,,,,,7,,,,61,0
277207,note_on,0,0,8,,,,,,,,,7,,,,56,110
277207,note_on,0,0,8,,,,,,,,,7,,,,57,0
277208,note_on,60,0,13,,,,,,,,,12,,,,64,112
277212,note_on,60,0,14,,,,,,,,,13,,,,52,112
277213,note_on,0,0,9,,,,,,,,,8,,,,52,110
277213,note_on,120,0,9,,,,,,,,,8,,,,52,0
277214,note_on,120,0,15,,,,,,,,,14,,,,40,0
277214,note_on,0,0,15,,,,,,,,,14,,,,40,112
277260,note_on,60,0,11,,,,,,,,,10,,,,62,0
277263,note_on,60,0,12,,,,,,,,,11,,,,64,0
277320,set_tempo,120,1,0,,,,,,307692,,,,,,,,
277320,note_on,60,0,11,,,,,,,,,10,,,,64,93
277321,note_on,480,0,1,,,,,,,,,0,,,,85,0
277321,note_on,0,0,1,,,,,,,,,0,,,,86,101
277323,note_on,60,0,12,,,,,,,,,11,,,,62,93
277324,note_on,480,0,2,,,,,,,,,1,,,,73,0
277324,note_on,0,0,2,,,,,,,,,1,,,,74,100
277325,note_on,0,0,3,,,,,,,,,2,,,,74,101
277325,note_on,480,0,3,,,,,,,,,2,,,,73,0
277380,note_on,60,0,11,,,,,,,,,10,,,,64,0
277383,note_on,60,0,12,,,,,,,,,11,,,,62,0
277440,set_tempo,120,1,0,,,,,,340909,,,,,,,,
277440,note_on,60,0,11,,,,,,,,,10,,,,68,93
277441,note_on,120,0,1,,,,,,,,,0,,,,86,0
277441,note_on,0,0,1,,,,,,,,,0,,,,83,101
277441,note_on,0,0,1,,,,,,,,,0,,,,80,101
277441,note_on,0,0,1,,,,,,,,,0,,,,81,0
277443,note_on,240,0,5,,,,,,,,,4,,,,64,0
277443,note_on,60,0,12,,,,,,,,,11,,,,64,93
277444,note_on,240,0,6,,,,,,,,,5,,,,52,0
277444,note_on,0,0,2,,,,,,,,,1,,,,71,100
277444,note_on,0,0,2,,,,,,,,,1,,,,76,0
277444,note_on,120,0,2,,,,,,,,,1,,,,74,0
277444,note_on,0,0,2,,,,,,,,,1,,,,74,100
277445,note_on,0,0,3,,,,,,,,,2,,,,76,101
277445,note_on,0,0,3,,,,,,,,,2,,,,69,0
277445,note_on,0,0,3,,,,,,,,,2,,,,68,101
277445,note_on,120,0,3,,,,,,,,,2,,,,74,0
277447,note_on,0,0,8,,,,,,,,,7,,,,62,110
277447,note_on,0,0,8,,,,,,,,,7,,,,59,0
277447,note_on,240,0,8,,,,,,,,,7,,,,56,0
277448,note_on,240,0,13,,,,,,,,,12,,,,64,0
277449,note_on,600,0,4,,,,,,,,,3,,,,62,100
277452,note_on,240,0,14,,,,,,,,,13,,,,52,0
277453,note_on,0,0,9,,,,,,,,,8,,,,52,110
277453,note_on,240,0,9,,,,,,,,,8,,,,52,0
277454,note_on,0,0,15,,,,,,,,,14,,,,40,112
277454,note_on,240,0,15,,,,,,,,,14,,,,40,0
277500,note_on,60,0,11,,,,,,,,,10,,,,68,0
277503,note_on,60,0,12,,,,,,,,,11,,,,64,0
277560,note_on,0,0,11,,,,,,,,,10,,,,69,93
277560,note_on,60,0,11,,,,,,,,,10,,,,61,93
277560,set_tempo,120,1,0,,,,,,291262,,,,,,,,
277561,note_on,120,0,1,,,,,,,,,0,,,,83,0
277561,note_on,0,0,1,,,,,,,,,0,,,,80,0
277561,note_on,0,0,1,,,,,,,,,0,,,,81,101
277563,note_on,0,0,12,,,,,,,,,11,,,,64,93
277563,note_on,60,0,12,,,,,,,,,11,,,,57,93
277564,note_on,0,0,2,,,,,,,,,1,,,,71,0
277564,note_on,0,0,2,,,,,,,,,1,,,,69,100
277564,note_on,0,0,2,,,,,,,,,1,,,,73,100
277564,note_on,120,0,2,,,,,,,,,1,,,,74,0
277565,note_on,0,0,3,,,,,,,,,2,,,,69,101
277565,note_on,0,0,3,,,,,,,,,2,,,,76,101
277565,note_on,120,0,3,,,,,,,,,2,,,,76,0
277565,note_on,0,0,3,,,,,,,,,2,,,,68,0
277567,note_on,120,0,8,,,,,,,,,7,,,,62,0
277569,note_on,0,0,4,,,,,,,,,3,,,,61,100
277569,note_on,0,0,4,,,,,,,,,3,,,,64,100
277569,note_on,120,0,4,,,,,,,,,3,,,,62,0
277569,note_on,0,0,4,,,,,,,,,3,,,,64,0
277573,note_on,0,0,9,,,,,,,,,8,,,,45,110
277573,note_on,120,0,9,,,,,,,,,8,,,,52,0
277574,note_on,120,0,15,,,,,,,,,14,,,,40,0
277574,note_on,0,0,15,,,,,,,,,14,,,,33,112
277680,set_tempo,120,1,0,,,,,,307692,,,,,,,,
277688,note_on,240,0,13,,,,,,,,,12,,,,52,112
277692,note_on,240,0,14,,,,,,,,,13,,,,49,112
277743,note_on,300,0,5,,,,,,,,,4,,,,64,100
277744,note_on,300,0,6,,,,,,,,,5,,,,52,100
277747,note_on,0,0,8,,,,,,,,,7,,,,61,110
277747,note_on,180,0,8,,,,,,,,,7,,,,57,110
277748,note_on,60,0,13,,,,,,,,,12,,,,52,0
277752,note_on,60,0,14,,,,,,,,,13,,,,49,0
277800,note_on,240,0,11,,,,,,,,,10,,,,69,0
277800,note_on,0,0,11,,,,,,,,,10,,,,61,0
277800,set_tempo,120,1,0,,,,,,340909,,,,,,,,
277803,note_on,240,0,12,,,,,,,,,11,,,,64,0
277803,note_on,60,0,5,,,,,,,,,4,,,,64,0
277803,note_on,0,0,5,,,,,,,,,4,,,,64,100
277803,note_on,0,0,12,,,,,,,,,11,,,,57,0
277804,note_on,0,0,6,,,,,,,,,5,,,,52,100
277804,note_on,60,0,6,,,,,,,,,5,,,,52,0
277807,note_on,0,0,8,,,,,,,,,7,,,,61,110
277807,note_on,0,0,8,,,,,,,,,7,,,,57,0
277807,note_on,0,0,8,,,,,,,,,7,,,,57,110
277807,note_on,60,0,8,,,,,,,,,7,,,,61,0
277808,note_on,60,0,13,,,,,,,,,12,,,,57,112
277812,note_on,60,0,14,,,,,,,,,13,,,,52,112
277814,note_on,240,0,15,,,,,,,,,14,,,,33,0
277868,note_on,60,0,13,,,,,,,,,12,,,,57,0
277872,note_on,60,0,14,,,,,,,,,13,,,,52,0
277920,set_tempo,120,1,0,,,,,,291262,,,,,,,,
277920,note_on,120,0,11,,,,,,,,,10,,,,57,93
277923,note_on,120,0,5,,,,,,,,,4,,,,64,0
277923,note_on,0,0,5,,,,,,,,,4,,,,64,100
277924,note_on,0,0,6,,,,,,,,,5,,,,52,100
277924,note_on,120,0,6,,,,,,,,,5,,,,52,0
277927,note_on,0,0,8,,,,,,,,,7,,,,61,0
277927,note_on,0,0,8,,,,,,,,,7,,,,57,110
277927,note_on,120,0,8,,,,,,,,,7,,,,57,0
277927,note_on,0,0,8,,,,,,,,,7,,,,61,110
277928,note_on,60,0,13,,,,,,,,,12,,,,61,112
277932,note_on,60,0,14,,,,,,,,,13,,,,57,112
277980,note_on,60,0,11,,,,,,,,,10,,,,57,0
278040,set_tempo,120,1,0,,,,,,315789,,,,,,,,
278040,control_change,0,0,11,,,,,,,,,10,11,41,,,
278040,note_on,60,0,11,,,,,,,,,10,,,,61,93
278041,note_on,480,0,1,,,,,,,,,0,,,,81,0
278043,note_on,240,0,12,,,,,,,,,11,,,,57,93
278043,control_change,0,0,12,,,,,,,,,11,11,41,,,
278044,note_on,0,0,2,,,,,,,,,1,,,,73,0
278044,note_on,480,0,2,,,,,,,,,1,,,,69,0
278045,note_on,0,0,3,,,,,,,,,2,,,,69,0
278045,note_on,480,0,3,,,,,,,,,2,,,,76,0
278049,note_on,480,0,4,,,,,,,,,3,,,,64,0
278049,note_on,0,0,4,,,,,,,,,3,,,,61,0
278053,note_on,480,0,9,,,,,,,,,8,,,,45,0
278100,note_on,60,0,11,,,,,,,,,10,,,,61,0
278103,note_on,60,0,12,,,,,,,,,11,,,,57,0
278114,control_change,300,0,15,,,,,,,,,14,11,41,,,
278114,note_on,0,0,15,,,,,,,,,14,,,,45,112
278160,note_on,60,0,11,,,,,,,,,10,,,,64,93
278160,set_tempo,120,1,0,,,,,,375000,,,,,,,,
278163,note_on,240,0,5,,,,,,,,,4,,,,64,0
278163,note_on,60,0,12,,,,,,,,,11,,,,61,93
278164,note_on,240,0,6,,,,,,,,,5,,,,52,0
278167,note_on,0,0,8,,,,,,,,,7,,,,57,0
278167,note_on,240,0,8,,,,,,,,,7,,,,61,0
278168,note_on,240,0,13,,,,,,,,,12,,,,61,0
278172,note_on,240,0,14,,,,,,,,,13,,,,57,0
278174,note_on,60,0,15,,,,,,,,,14,,,,45,0
278174,note_on,0,0,15,,,,,,,,,14,,,,45,112
278220,note_on,60,0,11,,,,,,,,,10,,,,64,0
278223,note_on,60,0,12,,,,,,,,,11,,,,61,0
278280,set_tempo,120,1,0,,,,,,300000,,,,,,,,
278280,note_on,60,0,11,,,,,,,,,10,,,,61,93
278280,note_on,0,0,11,,,,,,,,,10,,,,69,93
278283,note_on,60,0,12,,,,,,,,,11,,,,66,93
278283,note_on,0,0,12,,,,,,,,,11,,,,57,93
278285,control_change,240,0,3,,,,,,,,,2,11,47,,,
278285,note_on,0,0,3,,,,,,,,,2,,,,66,101
278285,note_on,0,0,3,,,,,,,,,2,,,,69,101
278289,note_on,240,0,4,,,,,,,,,3,,,,61,100
278289,control_change,0,0,4,,,,,,,,,3,11,47,,,
278294,note_on,120,0,15,,,,,,,,,14,,,,45,0
278294,note_on,0,0,15,,,,,,,,,14,,,,42,112
278321,control_change,36,0,3,,,,,,,,,2,11,48,,,
278325,control_change,36,0,4,,,,,,,,,3,11,48,,,
278357,control_change,36,0,3,,,,,,,,,2,11,49,,,
278361,control_change,36,0,4,,,,,,,,,3,11,49,,,
278393,control_change,36,0,3,,,,,,,,,2,11,50,,,
278397,control_change,36,0,4,,,,,,,,,3,11,50,,,
278400,set_tempo,120,1,0,,,,,,315789,,,,,,,,
278408,control_change,240,0,13,,,,,,,,,12,11,41,,,
278408,note_on,0,0,13,,,,,,,,,12,,,,54,112
278412,note_on,0,0,14,,,,,,,,,13,,,,49,112
278412,control_change,240,0,14,,,,,,,,,13,11,41,,,
278429,control_change,36,0,3,,,,,,,,,2,11,51,,,
278433,control_change,36,0,4,,,,,,,,,3,11,51,,,
278434,note_on,0,0,3,,,,,,,,,2,,,,66,0
278434,note_on,5,0,3,,,,,,,,,2,,,,69,0
278438,note_on,5,0,4,,,,,,,,,3,,,,61,0
278465,note_on,0,0,3,,,,,,,,,2,,,,69,101
278465,note_on,31,0,3,,,,,,,,,2,,,,66,101
278465,control_change,0,0,3,,,,,,,,,2,11,52,,,
278468,note_on,60,0,13,,,,,,,,,12,,,,54,0
278469,control_change,31,0,4,,,,,,,,,3,11,52,,,
278469,note_on,0,0,4,,,,,,,,,3,,,,61,100
278472,note_on,60,0,14,,,,,,,,,13,,,,49,0
278501,control_change,36,0,3,,,,,,,,,2,11,52,,,
278505,control_change,36,0,4,,,,,,,,,3,11,53,,,
278515,note_on,14,0,3,,,,,,,,,2,,,,69,0
278515,note_on,0,0,3,,,,,,,,,2,,,,66,0
278519,note_on,14,0,4,,,,,,,,,3,,,,61,0
278520,set_tempo,120,1,0,,,,,,341880,,,,,,,,
278520,note_on,240,0,11,,,,,,,,,10,,,,69,0
278520,note_on,0,0,11,,,,,,,,,10,,,,61,0
278523,note_on,240,0,12,,,,,,,,,11,,,,57,0
278523,note_on,0,0,12,,,,,,,,,11,,,,66,0
278525,note_on,0,0,3,,,,,,,,,2,,,,69,101
278525,note_on,10,0,3,,,,,,,,,2,,,,66,101
278528,note_on,60,0,13,,,,,,,,,12,,,,57,112
278529,note_on,10,0,4,,,,,,,,,3,,,,61,100
278532,note_on,60,0,14,,,,,,,,,13,,,,54,112
278534,note_on,240,0,15,,,,,,,,,14,,,,42,0
278537,control_change,12,0,3,,,,,,,,,2,11,53,,,
278541,control_change,12,0,4,,,,,,,,,3,11,54,,,
278573,control_change,36,0,3,,,,,,,,,2,11,54,,,
278577,control_change,36,0,4,,,,,,,,,3,11,55,,,
278588,note_on,60,0,13,,,,,,,,,12,,,,57,0
278592,note_on,60,0,14,,,,,,,,,13,,,,54,0
278609,control_change,36,0,3,,,,,,,,,2,11,55,,,
278613,control_change,36,0,4,,,,,,,,,3,11,56,,,
278625,note_on,16,0,3,,,,,,,,,2,,,,69,0
278625,note_on,0,0,3,,,,,,,,,2,,,,66,0
278629,note_on,16,0,4,,,,,,,,,3,,,,61,0
278640,set_tempo,120,1,0,,,,,,300000,,,,,,,,
278640,note_on,120,0,11,,,,,,,,,10,,,,61,93
278643,note_on,120,0,12,,,,,,,,,11,,,,57,93
278645,note_on,0,0,3,,,,,,,,,2,,,,69,101
278645,control_change,0,0,3,,,,,,,,,2,11,55,,,
278645,note_on,20,0,3,,,,,,,,,2,,,,66,101
278648,note_on,60,0,13,,,,,,,,,12,,,,61,112
278649,note_on,20,0,4,,,,,,,,,3,,,,61,100
278649,control_change,0,0,4,,,,,,,,,3,11,57,,,
278652,note_on,60,0,14,,,,,,,,,13,,,,57,112
278681,control_change,36,0,3,,,,,,,,,2,11,56,,,
278685,control_change,36,0,4,,,,,,,,,3,11,58,,,
278700,note_on,60,0,11,,,,,,,,,10,,,,61,0
278703,note_on,60,0,12,,,,,,,,,11,,,,57,0
278717,control_change,36,0,3,,,,,,,,,2,11,57,,,
278721,control_change,36,0,4,,,,,,,,,3,11,59,,,
278745,note_on,28,0,3,,,,,,,,,2,,,,69,0
278745,note_on,0,0,3,,,,,,,,,2,,,,66,0
278749,note_on,28,0,4,,,,,,,,,3,,,,61,0
278753,control_change,8,0,3,,,,,,,,,2,11,58,,,
278757,control_change,8,0,4,,,,,,,,,3,11,60,,,
278760,note_on,60,0,11,,,,,,,,,10,,,,66,93
278760,set_tempo,120,1,0,,,,,,315789,,,,,,,,
278763,note_on,60,0,12,,,,,,,,,11,,,,61,93
278765,note_on,12,0,3,,,,,,,,,2,,,,69,101
278765,note_on,0,0,3,,,,,,,,,2,,,,66,101
278769,note_on,12,0,4,,,,,,,,,3,,,,61,100
278789,control_change,24,0,3,,,,,,,,,2,11,58,,,
278793,control_change,24,0,4,,,,,,,,,3,11,61,,,
278820,note_on,60,0,11,,,,,,,,,10,,,,66,0
278823,note_on,60,0,12,,,,,,,,,11,,,,61,0
278825,control_change,36,0,3,,,,,,,,,2,11,59,,,
278829,control_change,36,0,4,,,,,,,,,3,11,62,,,
278834,note_on,300,0,15,,,,,,,,,14,,,,42,112
278861,control_change,36,0,3,,,,,,,,,2,11,60,,,
278865,control_change,36,0,4,,,,,,,,,3,11,63,,,
278865,note_on,0,0,3,,,,,,,,,2,,,,69,0
278865,note_on,4,0,3,,,,,,,,,2,,,,66,0
278869,note_on,4,0,4,,,,,,,,,3,,,,61,0
278880,set_tempo,120,1,0,,,,,,341880,,,,,,,,
278880,note_on,60,0,11,,,,,,,,,10,,,,69,93
278883,note_on,60,0,12,,,,,,,,,11,,,,66,93
278885,note_on,0,0,3,,,,,,,,,2,,,,69,101
278885,note_on,20,0,3,,,,,,,,,2,,,,66,101
278888,note_on,240,0,13,,,,,,,,,12,,,,61,0
278889,note_on,20,0,4,,,,,,,,,3,,,,61,100
278892,note_on,240,0,14,,,,,,,,,13,,,,57,0
278894,note_on,0,0,15,,,,,,,,,14,,,,42,112
278894,note_on,60,0,15,,,,,,,,,14,,,,42,0
278897,control_change,12,0,3,,,,,,,,,2,11,61,,,
278901,control_change,12,0,4,,,,,,,,,3,11,64,,,
278933,control_change,36,0,3,,,,,,,,,2,11,61,,,
278937,control_change,36,0,4,,,,,,,,,3,11,65,,,
278940,note_on,60,0,11,,,,,,,,,10,,,,69,0
278943,note_on,60,0,12,,,,,,,,,11,,,,66,0
278969,control_change,36,0,3,,,,,,,,,2,11,62,,,
278973,control_change,36,0,4,,,,,,,,,3,11,66,,,
278985,note_on,16,0,3,,,,,,,,,2,,,,69,0
278985,note_on,0,0,3,,,,,,,,,2,,,,66,0
278989,note_on,16,0,4,,,,,,,,,3,,,,61,0
279000,set_tempo,120,1,0,,,,,,300000,,,,,,,,
279000,note_on,0,0,11,,,,,,,,,10,,,,64,93
279000,note_on,60,0,11,,,,,,,,,10,,,,73,93
279001,note_on,960,0,1,,,,,,,,,0,,,,76,101
279001,control_change,0,0,1,,,,,,,,,0,11,47,,,
279003,note_on,0,0,5,,,,,,,,,4,,,,64,100
279003,control_change,840,0,5,,,,,,,,,4,11,52,,,
279003,note_on,0,0,12,,,,,,,,,11,,,,61,93
279003,note_on,60,0,12,,,,,,,,,11,,,,69,93
279004,control_change,0,0,2,,,,,,,,,1,11,47,,,
279004,note_on,960,0,2,,,,,,,,,1,,,,69,100
279004,note_on,0,0,2,,,,,,,,,1,,,,73,100
279005,note_on,20,0,3,,,,,,,,,2,,,,76,101
279005,note_on,0,0,3,,,,,,,,,2,,,,64,101
279005,control_change,0,0,3,,,,,,,,,2,11,63,,,
279009,control_change,20,0,4,,,,,,,,,3,11,67,,,
279009,note_on,0,0,4,,,,,,,,,3,,,,61,100
279014,note_on,0,0,15,,,,,,,,,14,,,,37,112
279014,note_on,120,0,15,,,,,,,,,14,,,,42,0
279023,control_change,18,0,3,,,,,,,,,2,11,62,,,
279027,control_change,18,0,4,,,,,,,,,3,11,66,,,
279041,control_change,18,0,3,,,,,,,,,2,11,61,,,
279045,control_change,18,0,4,,,,,,,,,3,11,65,,,
279059,control_change,18,0,3,,,,,,,,,2,11,61,,,
279063,control_change,18,0,4,,,,,,,,,3,11,64,,,
279077,control_change,18,0,3,,,,,,,,,2,11,60,,,
279081,control_change,18,0,4,,,,,,,,,3,11,63,,,
279095,control_change,18,0,3,,,,,,,,,2,11,59,,,
279099,control_change,18,0,4,,,,,,,,,3,11,62,,,
279113,control_change,18,0,3,,,,,,,,,2,11,58,,,
279117,control_change,18,0,4,,,,,,,,,3,11,61,,,
279120,set_tempo,120,1,0,,,,,,315789,,,,,,,,
279128,note_on,240,0,13,,,,,,,,,12,,,,52,112
279131,control_change,18,0,3,,,,,,,,,2,11,58,,,
279132,note_on,240,0,14,,,,,,,,,13,,,,49,112
279135,control_change,18,0,4,,,,,,,,,3,11,60,,,
279149,control_change,18,0,3,,,,,,,,,2,11,57,,,
279153,control_change,18,0,4,,,,,,,,,3,11,59,,,
279167,control_change,18,0,3,,,,,,,,,2,11,56,,,
279171,control_change,18,0,4,,,,,,,,,3,11,58,,,
279185,control_change,18,0,3,,,,,,,,,2,11,55,,,
279188,note_on,60,0,13,,,,,,,,,12,,,,52,0
279189,control_change,18,0,4,,,,,,,,,3,11,57,,,
279192,note_on,60,0,14,,,,,,,,,13,,,,49,0
279203,control_change,18,0,3,,,,,,,,,2,11,55,,,
279207,control_change,18,0,4,,,,,,,,,3,11,56,,,
279221,control_change,18,0,3,,,,,,,,,2,11,54,,,
279225,control_change,18,0,4,,,,,,,,,3,11,55,,,
279239,control_change,18,0,3,,,,,,,,,2,11,53,,,
279240,set_tempo,120,1,0,,,,,,341880,,,,,,,,
279240,note_on,0,0,11,,,,,,,,,10,,,,73,0
279240,note_on,240,0,11,,,,,,,,,10,,,,64,0
279243,control_change,18,0,4,,,,,,,,,3,11,54,,,
279243,note_on,0,0,12,,,,,,,,,11,,,,69,0
279243,note_on,240,0,12,,,,,,,,,11,,,,61,0
279248,note_on,60,0,13,,,,,,,,,12,,,,57,112
279252,note_on,60,0,14,,,,,,,,,13,,,,52,112
279254,note_on,240,0,15,,,,,,,,,14,,,,37,0
279257,control_change,18,0,3,,,,,,,,,2,11,52,,,
279261,control_change,18,0,4,,,,,,,,,3,11,53,,,
279275,control_change,18,0,3,,,,,,,,,2,11,52,,,
279279,control_change,18,0,4,,,,,,,,,3,11,52,,,
279293,control_change,18,0,3,,,,,,,,,2,11,51,,,
279297,control_change,18,0,4,,,,,,,,,3,11,51,,,
279308,note_on,60,0,13,,,,,,,,,12,,,,57,0
279311,control_change,18,0,3,,,,,,,,,2,11,50,,,
279312,note_on,60,0,14,,,,,,,,,13,,,,52,0
279315,control_change,18,0,4,,,,,,,,,3,11,50,,,
279329,control_change,18,0,3,,,,,,,,,2,11,49,,,
279333,control_change,18,0,4,,,,,,,,,3,11,49,,,
279347,control_change,18,0,3,,,,,,,,,2,11,48,,,
279351,control_change,18,0,4,,,,,,,,,3,11,48,,,
279360,set_tempo,120,1,0,,,,,,300000,,,,,,,,
279360,note_on,120,0,11,,,,,,,,,10,,,,57,93
279361,note_on,0,0,1,,,,,,,,,0,,,,69,101
279361,note_on,360,0,1,,,,,,,,,0,,,,76,0
279364,note_on,360,0,2,,,,,,,,,1,,,,73,0
279365,note_on,0,0,3,,,,,,,,,2,,,,69,101
279365,note_on,18,0,3,,,,,,,,,2,,,,76,0
279365,control_change,0,0,3,,,,,,,,,2,11,47,,,
279368,note_on,60,0,13,,,,,,,,,12,,,,61,112
279369,control_change,18,0,4,,,,,,,,,3,11,47,,,
279372,note_on,60,0,14,,,,,,,,,13,,,,57,112
279420,note_on,60,0,11,,,,,,,,,10,,,,57,0
279480,note_on,60,0,11,,,,,,,,,10,,,,61,93
279480,set_tempo,120,1,0,,,,,,315789,,,,,,,,
279481,note_on,120,0,1,,,,,,,,,0,,,,69,0
279483,note_on,480,0,5,,,,,,,,,4,,,,64,0
279483,note_on,240,0,12,,,,,,,,,11,,,,57,93
279484,note_on,120,0,2,,,,,,,,,1,,,,69,0
279485,note_on,120,0,3,,,,,,,,,2,,,,69,0
279485,note_on,0,0,3,,,,,,,,,2,,,,64,0
279489,note_on,120,0,4,,,,,,,,,3,,,,61,0
279540,note_on,60,0,11,,,,,,,,,10,,,,61,0
279543,note_on,60,0,12,,,,,,,,,11,,,,57,0
279554,note_on,300,0,15,,,,,,,,,14,,,,37,112
279600,note_on,60,0,11,,,,,,,,,10,,,,64,93
279600,set_tempo,120,1,0,,,,,,341880,,,,,,,,
279603,note_on,60,0,12,,,,,,,,,11,,,,61,93
279608,note_on,240,0,13,,,,,,,,,12,,,,61,0
279612,note_on,240,0,14,,,,,,,,,13,,,,57,0
279614,note_on,0,0,15,,,,,,,,,14,,,,37,112
279614,note_on,60,0,15,,,,,,,,,14,,,,37,0
279660,note_on,60,0,11,,,,,,,,,10,,,,64,0
279663,note_on,60,0,12,,,,,,,,,11,,,,61,0
279720,set_tempo,120,1,0,,,,,,300000,,,,,,,,
279720,note_on,0,0,11,,,,,,,,,10,,,,69,93
279720,note_on,60,0,11,,,,,,,,,10,,,,61,93
279723,note_on,60,0,12,,,,,,,,,11,,,,57,93
279723,note_on,0,0,12,,,,,,,,,11,,,,66,93
279725,control_change,240,0,3,,,,,,,,,2,11,47,,,
279725,note_on,0,0,3,,,,,,,,,2,,,,66,101
279725,note_on,0,0,3,,,,,,,,,2,,,,69,101
279729,control_change,240,0,4,,,,,,,,,3,11,47,,,
279729,note_on,0,0,4,,,,,,,,,3,,,,61,100
279734,note_on,120,0,15,,,,,,,,,14,,,,37,0
279734,note_on,0,0,15,,,,,,,,,14,,,,42,112
279761,control_change,36,0,3,,,,,,,,,2,11,48,,,
279765,control_change,36,0,4,,,,,,,,,3,11,48,,,
279797,control_change,36,0,3,,,,,,,,,2,11,49,,,
279801,control_change,36,0,4,,,,,,,,,3,11,49,,,
279833,control_change,36,0,3,,,,,,,,,2,11,50,,,
279837,control_change,36,0,4,,,,,,,,,3,11,50,,,
279840,set_tempo,120,1,0,,,,,,315789,,,,,,,,
279848,note_on,240,0,13,,,,,,,,,12,,,,54,112
279852,note_on,240,0,14,,,,,,,,,13,,,,49,112
279869,control_change,36,0,3,,,,,,,,,2,11,51,,,
279873,control_change,36,0,4,,,,,,,,,3,11,51,,,
279874,note_on,0,0,3,,,,,,,,,2,,,,66,0
279874,note_on,5,0,3,,,,,,,,,2,,,,69,0
279878,note_on,5,0,4,,,,,,,,,3,,,,61,0
279905,note_on,31,0,3,,,,,,,,,2,,,,69,101
279905,control_change,0,0,3,,,,,,,,,2,11,52,,,
279905,note_on,0,0,3,,,,,,,,,2,,,,66,101
279908,note_on,60,0,13,,,,,,,,,12,,,,54,0
279909,control_change,0,0,4,,,,,,,,,3,11,52,,,
279909,note_on,31,0,4,,,,,,,,,3,,,,61,100
279912,note_on,60,0,14,,,,,,,,,13,,,,49,0
279941,control_change,36,0,3,,,,,,,,,2,11,52,,,
279945,control_change,36,0,4,,,,,,,,,3,11,53,,,
279955,note_on,14,0,3,,,,,,,,,2,,,,66,0
279955,note_on,0,0,3,,,,,,,,,2,,,,69,0
279959,note_on,14,0,4,,,,,,,,,3,,,,61,0
279960,set_tempo,120,1,0,,,,,,341880,,,,,,,,
279960,note_on,240,0,11,,,,,,,,,10,,,,69,0
279960,note_on,0,0,11,,,,,,,,,10,,,,61,0
279963,note_on,240,0,12,,,,,,,,,11,,,,66,0
279963,note_on,0,0,12,,,,,,,,,11,,,,57,0
279965,note_on,10,0,3,,,,,,,,,2,,,,69,101
279965,note_on,0,0,3,,,,,,,,,2,,,,66,101
279968,note_on,60,0,13,,,,,,,,,12,,,,57,112
279969,note_on,10,0,4,,,,,,,,,3,,,,61,100
279972,note_on,60,0,14,,,,,,,,,13,,,,54,112
279974,note_on,240,0,15,,,,,,,,,14,,,,42,0
279977,control_change,12,0,3,,,,,,,,,2,11,53,,,
279981,control_change,12,0,4,,,,,,,,,3,11,54,,,
280013,control_change,36,0,3,,,,,,,,,2,11,54,,,
280017,control_change,36,0,4,,,,,,,,,3,11,55,,,
280028,note_on,60,0,13,,,,,,,,,12,,,,57,0
280032,note_on,60,0,14,,,,,,,,,13,,,,54,0
280049,control_change,36,0,3,,,,,,,,,2,11,55,,,
280053,control_change,36,0,4,,,,,,,,,3,11,56,,,
280065,note_on,16,0,3,,,,,,,,,2,,,,66,0
280065,note_on,0,0,3,,,,,,,,,2,,,,69,0
280069,note_on,16,0,4,,,,,,,,,3,,,,61,0
280080,set_tempo,120,1,0,,,,,,306905,,,,,,,,
280080,note_on,120,0,11,,,,,,,,,10,,,,61,93
280083,note_on,120,0,12,,,,,,,,,11,,,,57,93
280085,note_on,0,0,3,,,,,,,,,2,,,,69,101
280085,note_on,0,0,3,,,,,,,,,2,,,,66,101
280085,control_change,20,0,3,,,,,,,,,2,11,55,,,
280088,note_on,60,0,13,,,,,,,,,12,,,,61,112
280089,control_change,0,0,4,,,,,,,,,3,11,57,,,
280089,note_on,20,0,4,,,,,,,,,3,,,,61,100
280092,note_on,60,0,14,,,,,,,,,13,,,,57,112
280121,control_change,36,0,3,,,,,,,,,2,11,56,,,
280125,control_change,36,0,4,,,,,,,,,3,11,58,,,
280140,note_on,60,0,11,,,,,,,,,10,,,,61,0
280143,note_on,60,0,12,,,,,,,,,11,,,,57,0
280157,control_change,36,0,3,,,,,,,,,2,11,57,,,
280161,control_change,36,0,4,,,,,,,,,3,11,59,,,
280185,note_on,0,0,3,,,,,,,,,2,,,,69,0
280185,note_on,28,0,3,,,,,,,,,2,,,,66,0
280189,note_on,28,0,4,,,,,,,,,3,,,,61,0
280193,control_change,8,0,3,,,,,,,,,2,11,58,,,
280197,control_change,8,0,4,,,,,,,,,3,11,60,,,
280200,set_tempo,120,1,0,,,,,,322581,,,,,,,,
280200,note_on,60,0,11,,,,,,,,,10,,,,66,93
280203,note_on,60,0,12,,,,,,,,,11,,,,61,93
280205,note_on,12,0,3,,,,,,,,,2,,,,69,101
280205,note_on,0,0,3,,,,,,,,,2,,,,66,101
280209,note_on,12,0,4,,,,,,,,,3,,,,61,100
280229,control_change,24,0,3,,,,,,,,,2,11,58,,,
280233,control_change,24,0,4,,,,,,,,,3,11,61,,,
280260,note_on,60,0,11,,,,,,,,,10,,,,66,0
280263,note_on,60,0,12,,,,,,,,,11,,,,61,0
280265,control_change,36,0,3,,,,,,,,,2,11,59,,,
280269,control_change,36,0,4,,,,,,,,,3,11,62,,,
280274,note_on,300,0,15,,,,,,,,,14,,,,42,112
280301,control_change,36,0,3,,,,,,,,,2,11,60,,,
280305,control_change,36,0,4,,,,,,,,,3,11,63,,,
280305,note_on,0,0,3,,,,,,,,,2,,,,69,0
280305,note_on,4,0,3,,,,,,,,,2,,,,66,0
280309,note_on,4,0,4,,,,,,,,,3,,,,61,0
280320,set_tempo,120,1,0,,,,,,341880,,,,,,,,
280320,note_on,60,0,11,,,,,,,,,10,,,,69,93
280323,note_on,60,0,12,,,,,,,,,11,,,,66,93
280325,note_on,0,0,3,,,,,,,,,2,,,,69,101
280325,note_on,20,0,3,,,,,,,,,2,,,,66,101
280328,note_on,240,0,13,,,,,,,,,12,,,,61,0
280329,note_on,20,0,4,,,,,,,,,3,,,,61,100
280332,note_on,240,0,14,,,,,,,,,13,,,,57,0
280334,note_on,60,0,15,,,,,,,,,14,,,,42,0
280334,note_on,0,0,15,,,,,,,,,14,,,,42,112
280337,control_change,12,0,3,,,,,,,,,2,11,61,,,
280341,control_change,12,0,4,,,,,,,,,3,11,64,,,
280373,control_change,36,0,3,,,,,,,,,2,11,61,,,
280377,control_change,36,0,4,,,,,,,,,3,11,65,,,
280380,note_on,60,0,11,,,,,,,,,10,,,,69,0
280383,note_on,60,0,12,,,,,,,,,11,,,,66,0
280409,control_change,36,0,3,,,,,,,,,2,11,62,,,
280413,control_change,36,0,4,,,,,,,,,3,11,66,,,
280425,note_on,16,0,3,,,,,,,,,2,,,,69,0
280425,note_on,0,0,3,,,,,,,,,2,,,,66,0
280429,note_on,16,0,4,,,,,,,,,3,,,,61,0
280440,note_on,60,0,11,,,,,,,,,10,,,,73,93
280440,note_on,0,0,11,,,,,,,,,10,,,,64,93
280440,set_tempo,120,1,0,,,,,,311688,,,,,,,,
280441,note_on,960,0,1,,,,,,,,,0,,,,76,116
280443,note_on,60,0,12,,,,,,,,,11,,,,69,93
280443,note_on,960,0,5,,,,,,,,,4,,,,64,100
280443,note_on,0,0,12,,,,,,,,,11,,,,61,93
280444,note_on,960,0,2,,,,,,,,,1,,,,73,100
280444,note_on,0,0,2,,,,,,,,,1,,,,69,100
280445,note_on,0,0,3,,,,,,,,,2,,,,76,101
280445,note_on,0,0,3,,,,,,,,,2,,,,64,101
280445,control_change,20,0,3,,,,,,,,,2,11,63,,,
280449,control_change,20,0,4,,,,,,,,,3,11,67,,,
280449,note_on,0,0,4,,,,,,,,,3,,,,61,100
280454,note_on,0,0,15,,,,,,,,,14,,,,37,112
280454,note_on,120,0,15,,,,,,,,,14,,,,42,0
280463,control_change,18,0,3,,,,,,,,,2,11,62,,,
280467,control_change,18,0,4,,,,,,,,,3,11,66,,,
280481,control_change,18,0,3,,,,,,,,,2,11,61,,,
280485,control_change,18,0,4,,,,,,,,,3,11,65,,,
280499,control_change,18,0,3,,,,,,,,,2,11,61,,,
280503,control_change,18,0,4,,,,,,,,,3,11,64,,,
280517,control_change,18,0,3,,,,,,,,,2,11,60,,,
280521,control_change,18,0,4,,,,,,,,,3,11,63,,,
280535,control_change,18,0,3,,,,,,,,,2,11,59,,,
280539,control_change,18,0,4,,,,,,,,,3,11,62,,,
280553,control_change,18,0,3,,,,,,,,,2,11,58,,,
280557,control_change,18,0,4,,,,,,,,,3,11,61,,,
280560,set_tempo,120,1,0,,,,,,326975,,,,,,,,
280568,note_on,240,0,13,,,,,,,,,12,,,,52,112
280571,control_change,18,0,3,,,,,,,,,2,11,58,,,
280572,note_on,240,0,14,,,,,,,,,13,,,,49,112
280575,control_change,18,0,4,,,,,,,,,3,11,60,,,
280589,control_change,18,0,3,,,,,,,,,2,11,57,,,
280593,control_change,18,0,4,,,,,,,,,3,11,59,,,
280607,control_change,18,0,3,,,,,,,,,2,11,56,,,
280611,control_change,18,0,4,,,,,,,,,3,11,58,,,
280621,note_on,180,0,1,,,,,,,,,0,,,,76,0
280621,note_on,0,0,1,,,,,,,,,0,,,,74,101
280624,note_on,180,0,2,,,,,,,,,1,,,,73,0
280624,note_on,0,0,2,,,,,,,,,1,,,,74,100
280625,note_on,18,0,3,,,,,,,,,2,,,,76,0
280625,note_on,0,0,3,,,,,,,,,2,,,,74,101
280625,control_change,0,0,3,,,,,,,,,2,11,55,,,
280628,note_on,60,0,13,,,,,,,,,12,,,,52,0
280629,control_change,18,0,4,,,,,,,,,3,11,57,,,
280632,note_on,60,0,14,,,,,,,,,13,,,,49,0
280643,control_change,18,0,3,,,,,,,,,2,11,55,,,
280647,control_change,18,0,4,,,,,,,,,3,11,56,,,
280661,control_change,18,0,3,,,,,,,,,2,11,54,,,
280665,control_change,18,0,4,,,,,,,,,3,11,55,,,
280679,control_change,18,0,3,,,,,,,,,2,11,53,,,
280680,set_tempo,120,1,0,,,,,,350877,,,,,,,,
280680,note_on,0,0,11,,,,,,,,,10,,,,73,0
280680,note_on,240,0,11,,,,,,,,,10,,,,64,0
280681,note_on,0,0,1,,,,,,,,,0,,,,73,101
280681,note_on,60,0,1,,,,,,,,,0,,,,74,0
280683,note_on,0,0,12,,,,,,,,,11,,,,69,0
280683,note_on,240,0,12,,,,,,,,,11,,,,61,0
280683,control_change,18,0,4,,,,,,,,,3,11,54,,,
280684,note_on,0,0,2,,,,,,,,,1,,,,73,100
280684,note_on,60,0,2,,,,,,,,,1,,,,74,0
280685,note_on,6,0,3,,,,,,,,,2,,,,74,0
280685,note_on,0,0,3,,,,,,,,,2,,,,73,101
280688,note_on,60,0,13,,,,,,,,,12,,,,57,112
280692,note_on,60,0,14,,,,,,,,,13,,,,52,112
280694,note_on,240,0,15,,,,,,,,,14,,,,37,0
280697,control_change,12,0,3,,,,,,,,,2,11,52,,,
280701,control_change,18,0,4,,,,,,,,,3,11,53,,,
280715,control_change,18,0,3,,,,,,,,,2,11,52,,,
280719,control_change,18,0,4,,,,,,,,,3,11,52,,,
280733,control_change,18,0,3,,,,,,,,,2,11,51,,,
280737,control_change,18,0,4,,,,,,,,,3,11,51,,,
280741,note_on,60,0,1,,,,,,,,,0,,,,73,0
280741,note_on,0,0,1,,,,,,,,,0,,,,71,101
280744,note_on,0,0,2,,,,,,,,,1,,,,71,100
280744,note_on,60,0,2,,,,,,,,,1,,,,73,0
280745,note_on,0,0,3,,,,,,,,,2,,,,71,101
280745,note_on,12,0,3,,,,,,,,,2,,,,73,0
280748,note_on,60,0,13,,,,,,,,,12,,,,57,0
280751,control_change,6,0,3,,,,,,,,,2,11,50,,,
280752,note_on,60,0,14,,,,,,,,,13,,,,52,0
280755,control_change,18,0,4,,,,,,,,,3,11,50,,,
280769,control_change,18,0,3,,,,,,,,,2,11,49,,,
280773,control_change,18,0,4,,,,,,,,,3,11,49,,,
280787,control_change,18,0,3,,,,,,,,,2,11,48,,,
280791,control_change,18,0,4,,,,,,,,,3,11,48,,,
280800,note_on,120,0,11,,,,,,,,,10,,,,64,93
280800,set_tempo,120,1,0,,,,,,315789,,,,,,,,
280801,note_on,0,0,1,,,,,,,,,0,,,,69,101
280801,note_on,60,0,1,,,,,,,,,0,,,,71,0
280803,note_on,120,0,12,,,,,,,,,11,,,,61,93
280804,note_on,60,0,2,,,,,,,,,1,,,,71,0
280805,note_on,0,0,3,,,,,,,,,2,,,,69,101
280805,control_change,0,0,3,,,,,,,,,2,11,47,,,
280805,note_on,18,0,3,,,,,,,,,2,,,,71,0
280808,note_on,60,0,13,,,,,,,,,12,,,,61,112
280809,control_change,18,0,4,,,,,,,,,3,11,47,,,
280812,note_on,60,0,14,,,,,,,,,13,,,,57,112
280860,note_on,60,0,11,,,,,,,,,10,,,,64,0
280863,note_on,60,0,12,,,,,,,,,11,,,,61,0
280920,set_tempo,120,1,0,,,,,,333333,,,,,,,,
280920,note_on,60,0,11,,,,,,,,,10,,,,69,93
280921,note_on,120,0,1,,,,,,,,,0,,,,69,0
280923,note_on,60,0,12,,,,,,,,,11,,,,64,93
280923,note_on,480,0,5,,,,,,,,,4,,,,64,0
280924,note_on,120,0,2,,,,,,,,,1,,,,69,0
280925,note_on,120,0,3,,,,,,,,,2,,,,69,0
280925,note_on,0,0,3,,,,,,,,,2,,,,64,0
280929,note_on,120,0,4,,,,,,,,,3,,,,61,0
280980,note_on,60,0,11,,,,,,,,,10,,,,69,0
280983,note_on,60,0,12,,,,,,,,,11,,,,64,0
280994,note_on,300,0,15,,,,,,,,,14,,,,33,112
281040,note_on,60,0,11,,,,,,,,,10,,,,73,93
281040,set_tempo,120,1,0,,,,,,371517,,,,,,,,
281041,note_on,120,0,1,,,,,,,,,0,,,,73,101
281043,note_on,60,0,12,,,,,,,,,11,,,,69,93
281045,note_on,120,0,3,,,,,,,,,2,,,,73,101
281048,note_on,240,0,13,,,,,,,,,12,,,,61,0
281052,note_on,240,0,14,,,,,,,,,13,,,,57,0
281054,note_on,60,0,15,,,,,,,,,14,,,,33,0
281054,note_on,0,0,15,,,,,,,,,14,,,,33,112
281100,note_on,60,0,11,,,,,,,,,10,,,,73,0
281103,note_on,60,0,12,,,,,,,,,11,,,,69,0
281160,note_on,60,0,11,,,,,,,,,10,,,,71,93
281160,set_tempo,120,1,0,,,,,,322581,,,,,,,,
281161,note_on,120,0,1,,,,,,,,,0,,,,73,0
281161,note_on,0,0,1,,,,,,,,,0,,,,71,101
281163,note_on,60,0,12,,,,,,,,,11,,,,66,93
281165,note_on,120,0,3,,,,,,,,,2,,,,73,0
281165,note_on,0,0,3,,,,,,,,,2,,,,71,101
281165,note_on,0,0,3,,,,,,,,,2,,,,69,101
281168,note_on,120,0,13,,,,,,,,,12,,,,59,112
281169,note_on,240,0,4,,,,,,,,,3,,,,66,100
281172,note_on,120,0,14,,,,,,,,,13,,,,54,112
281174,note_on,120,0,15,,,,,,,,,14,,,,33,0
281174,note_on,0,0,15,,,,,,,,,14,,,,38,112
281228,note_on,60,0,13,,,,,,,,,12,,,,59,0
281232,note_on,60,0,14,,,,,,,,,13,,,,54,0
281280,set_tempo,120,1,0,,,,,,338983,,,,,,,,
281288,note_on,60,0,13,,,,,,,,,12,,,,62,112
281292,note_on,60,0,14,,,,,,,,,13,,,,59,112
281341,note_on,180,0,1,,,,,,,,,0,,,,71,0
281341,note_on,0,0,1,,,,,,,,,0,,,,73,101
281345,note_on,0,0,3,,,,,,,,,2,,,,73,101
281345,note_on,180,0,3,,,,,,,,,2,,,,71,0
281348,note_on,60,0,13,,,,,,,,,12,,,,62,0
281352,note_on,60,0,14,,,,,,,,,13,,,,59,0
281400,set_tempo,120,1,0,,,,,,362538,,,,,,,,
281400,note_on,240,0,11,,,,,,,,,10,,,,71,0
281401,note_on,60,0,1,,,,,,,,,0,,,,73,0
281401,note_on,0,0,1,,,,,,,,,0,,,,71,101
281403,note_on,240,0,12,,,,,,,,,11,,,,66,0
281405,note_on,60,0,3,,,,,,,,,2,,,,73,0
281405,note_on,0,0,3,,,,,,,,,2,,,,71,101
281408,note_on,60,0,13,,,,,,,,,12,,,,66,112
281412,note_on,60,0,14,,,,,,,,,13,,,,62,112
281414,note_on,240,0,15,,,,,,,,,14,,,,38,0
281468,note_on,60,0,13,,,,,,,,,12,,,,66,0
281472,note_on,60,0,14,,,,,,,,,13,,,,62,0
281520,set_tempo,120,1,0,,,,,,327869,,,,,,,,
281520,note_on,120,0,11,,,,,,,,,10,,,,68,93
281521,note_on,120,0,1,,,,,,,,,0,,,,71,0
281521,note_on,0,0,1,,,,,,,,,0,,,,74,101
281523,note_on,120,0,12,,,,,,,,,11,,,,62,93
281525,note_on,120,0,3,,,,,,,,,2,,,,71,0
281525,note_on,0,0,3,,,,,,,,,2,,,,69,0
281525,note_on,0,0,3,,,,,,,,,2,,,,74,101
281525,note_on,0,0,3,,,,,,,,,2,,,,68,101
281528,note_on,60,0,13,,,,,,,,,12,,,,59,112
281529,note_on,360,0,4,,,,,,,,,3,,,,66,0
281529,note_on,0,0,4,,,,,,,,,3,,,,64,100
281532,note_on,60,0,14,,,,,,,,,13,,,,52,112
281534,note_on,120,0,15,,,,,,,,,14,,,,40,112
281588,note_on,60,0,13,,,,,,,,,12,,,,59,0
281592,note_on,60,0,14,,,,,,,,,13,,,,52,0
281640,set_tempo,120,1,0,,,,,,343840,,,,,,,,
281641,note_on,0,0,1,,,,,,,,,0,,,,73,101
281641,note_on,120,0,1,,,,,,,,,0,,,,74,0
281645,note_on,0,0,3,,,,,,,,,2,,,,73,101
281645,note_on,120,0,3,,,,,,,,,2,,,,74,0
281648,note_on,60,0,13,,,,,,,,,12,,,,62,112
281652,note_on,60,0,14,,,,,,,,,13,,,,59,112
281708,note_on,60,0,13,,,,,,,,,12,,,,62,0
281712,note_on,60,0,14,,,,,,,,,13,,,,59,0
281760,note_on,240,0,11,,,,,,,,,10,,,,68,0
281760,set_tempo,120,1,0,,,,,,365854,,,,,,,,
281761,note_on,0,0,1,,,,,,,,,0,,,,71,101
281761,note_on,120,0,1,,,,,,,,,0,,,,73,0
281763,note_on,240,0,12,,,,,,,,,11,,,,62,0
281765,note_on,0,0,3,,,,,,,,,2,,,,71,101
281765,note_on,120,0,3,,,,,,,,,2,,,,73,0
281768,note_on,60,0,13,,,,,,,,,12,,,,64,112
281769,note_on,240,0,4,,,,,,,,,3,,,,62,100
281772,note_on,60,0,14,,,,,,,,,13,,,,62,112
281774,note_on,240,0,15,,,,,,,,,14,,,,40,0
281828,note_on,60,0,13,,,,,,,,,12,,,,64,0
281832,note_on,60,0,14,,,,,,,,,13,,,,62,0
281880,set_tempo,120,1,0,,,,,,337079,,,,,,,,
281880,note_on,120,0,11,,,,,,,,,10,,,,69,93
281881,note_on,120,0,1,,,,,,,,,0,,,,71,0
281881,note_on,0,0,1,,,,,,,,,0,,,,69,101
281883,note_on,120,0,12,,,,,,,,,11,,,,61,93
281885,note_on,0,0,3,,,,,,,,,2,,,,69,101
281885,note_on,0,0,3,,,,,,,,,2,,,,68,0
281885,note_on,120,0,3,,,,,,,,,2,,,,71,0
281888,note_on,60,0,13,,,,,,,,,12,,,,64,112
281888,note_on,0,0,13,,,,,,,,,12,,,,61,112
281889,note_on,0,0,4,,,,,,,,,3,,,,64,100
281889,note_on,0,0,4,,,,,,,,,3,,,,61,100
281889,note_on,120,0,4,,,,,,,,,3,,,,62,0
281889,note_on,0,0,4,,,,,,,,,3,,,,64,0
281892,note_on,60,0,14,,,,,,,,,13,,,,61,112
281894,note_on,120,0,15,,,,,,,,,14,,,,33,112
281940,note_on,60,0,11,,,,,,,,,10,,,,69,0
281943,note_on,60,0,12,,,,,,,,,11,,,,61,0
281952,note_on,60,0,14,,,,,,,,,13,,,,61,0
282000,set_tempo,120,1,0,,,,,,350877,,,,,,,,
282000,note_on,60,0,11,,,,,,,,,10,,,,64,93
282003,note_on,60,0,12,,,,,,,,,11,,,,64,93
282012,note_on,60,0,14,,,,,,,,,13,,,,52,112
282060,note_on,60,0,11,,,,,,,,,10,,,,64,0
282063,note_on,60,0,12,,,,,,,,,11,,,,64,0
282072,note_on,60,0,14,,,,,,,,,13,,,,52,0
282120,set_tempo,120,1,0,,,,,,406780,,,,,,,,
282120,note_on,60,0,11,,,,,,,,,10,,,,61,93
282123,note_on,60,0,12,,,,,,,,,11,,,,61,93
282132,note_on,60,0,14,,,,,,,,,13,,,,49,112
282134,note_on,240,0,15,,,,,,,,,14,,,,33,0
282180,note_on,60,0,11,,,,,,,,,10,,,,61,0
282183,note_on,60,0,12,,,,,,,,,11,,,,61,0
282192,note_on,60,0,14,,,,,,,,,13,,,,49,0
282240,note_on,60,0,11,,,,,,,,,10,,,,57,112
282240,set_tempo,120,1,0,,,,,,330579,,,,,,,,
282243,note_on,60,0,12,,,,,,,,,11,,,,57,112
282252,note_on,60,0,14,,,,,,,,,13,,,,45,112
282300,note_on,60,0,11,,,,,,,,,10,,,,57,0
282303,note_on,60,0,12,,,,,,,,,11,,,,57,0
282312,note_on,60,0,14,,,,,,,,,13,,,,45,0
282360,set_tempo,120,1,0,,,,,,285714,,,,,,,,
282361,note_on,480,0,1,,,,,,,,,0,,,,69,0
282363,note_on,0,0,5,,,,,,,,,4,,,,64,100
282363,control_change,1440,0,5,,,,,,,,,4,11,47,,,
282364,note_on,4200,0,6,,,,,,,,,5,,,,52,100
282364,control_change,0,0,6,,,,,,,,,5,11,47,,,
282365,note_on,480,0,3,,,,,,,,,2,,,,69,0
282368,note_on,480,0,13,,,,,,,,,12,,,,61,0
282368,note_on,0,0,13,,,,,,,,,12,,,,64,0
282369,note_on,0,0,4,,,,,,,,,3,,,,61,0
282369,note_on,480,0,4,,,,,,,,,3,,,,64,0
282477,note_on,114,0,5,,,,,,,,,4,,,,64,0
282478,note_on,114,0,6,,,,,,,,,5,,,,52,0
282480,set_tempo,120,1,0,,,,,,272727,,,,,,,,
282483,note_on,6,0,5,,,,,,,,,4,,,,64,100
282484,note_on,6,0,6,,,,,,,,,5,,,,52,100
282597,note_on,114,0,5,,,,,,,,,4,,,,64,0
282598,note_on,114,0,6,,,,,,,,,5,,,,52,0
282600,set_tempo,120,1,0,,,,,,291971,,,,,,,,
282603,note_on,6,0,5,,,,,,,,,4,,,,64,100
282604,note_on,6,0,6,,,,,,,,,5,,,,52,100
282717,note_on,114,0,5,,,,,,,,,4,,,,64,0
282718,note_on,114,0,6,,,,,,,,,5,,,,52,0
282720,set_tempo,120,1,0,,,,,,263158,,,,,,,,
282723,note_on,6,0,5,,,,,,,,,4,,,,64,100
282724,note_on,6,0,6,,,,,,,,,5,,,,52,100
282837,note_on,114,0,5,,,,,,,,,4,,,,64,0
282838,note_on,114,0,6,,,,,,,,,5,,,,52,0
282843,note_on,6,0,5,,,,,,,,,4,,,,64,100
282844,note_on,6,0,6,,,,,,,,,5,,,,52,100
282957,note_on,114,0,5,,,,,,,,,4,,,,64,0
282958,note_on,114,0,6,,,,,,,,,5,,,,52,0
282960,set_tempo,240,1,0,,,,,,279720,,,,,,,,
282963,note_on,6,0,5,,,,,,,,,4,,,,64,100
282964,note_on,6,0,6,,,,,,,,,5,,,,52,100
283077,note_on,114,0,5,,,,,,,,,4,,,,64,0
283078,note_on,114,0,6,,,,,,,,,5,,,,52,0
283080,set_tempo,120,1,0,,,,,,260304,,,,,,,,
283083,note_on,6,0,5,,,,,,,,,4,,,,64,100
283084,note_on,6,0,6,,,,,,,,,5,,,,52,100
283197,note_on,114,0,5,,,,,,,,,4,,,,64,0
283198,note_on,114,0,6,,,,,,,,,5,,,,52,0
283203,note_on,6,0,5,,,,,,,,,4,,,,64,100
283204,note_on,6,0,6,,,,,,,,,5,,,,52,100
283317,note_on,114,0,5,,,,,,,,,4,,,,64,0
283318,note_on,114,0,6,,,,,,,,,5,,,,52,0
283320,set_tempo,240,1,0,,,,,,277778,,,,,,,,
283323,note_on,6,0,5,,,,,,,,,4,,,,64,100
283324,note_on,6,0,6,,,,,,,,,5,,,,52,100
283437,note_on,114,0,5,,,,,,,,,4,,,,64,0
283438,note_on,114,0,6,,,,,,,,,5,,,,52,0
283440,set_tempo,120,1,0,,,,,,256959,,,,,,,,
283443,note_on,6,0,5,,,,,,,,,4,,,,64,100
283444,note_on,6,0,6,,,,,,,,,5,,,,52,100
283557,note_on,114,0,5,,,,,,,,,4,,,,64,0
283558,note_on,114,0,6,,,,,,,,,5,,,,52,0
283563,note_on,6,0,5,,,,,,,,,4,,,,64,100
283564,note_on,6,0,6,,,,,,,,,5,,,,52,100
283677,note_on,114,0,5,,,,,,,,,4,,,,64,0
283678,note_on,114,0,6,,,,,,,,,5,,,,52,0
283680,set_tempo,240,1,0,,,,,,273973,,,,,,,,
283683,note_on,6,0,5,,,,,,,,,4,,,,64,100
283683,control_change,0,0,5,,,,,,,,,4,11,47,,,
283684,note_on,6,0,6,,,,,,,,,5,,,,52,100
283684,control_change,0,0,6,,,,,,,,,5,11,47,,,
283684,control_change,2760,0,2,,,,,,,,,1,11,42,,,
283684,note_on,0,0,2,,,,,,,,,1,,,,76,100
283684,note_on,0,0,2,,,,,,,,,1,,,,64,100
283685,control_change,1320,0,3,,,,,,,,,2,11,42,,,
283689,control_change,1320,0,4,,,,,,,,,3,11,42,,,
283689,note_on,0,0,4,,,,,,,,,3,,,,52,100
283713,control_change,30,0,5,,,,,,,,,4,11,48,,,
283714,control_change,30,0,6,,,,,,,,,5,11,48,,,
283714,control_change,30,0,2,,,,,,,,,1,11,43,,,
283715,control_change,30,0,3,,,,,,,,,2,11,43,,,
283719,control_change,30,0,4,,,,,,,,,3,11,43,,,
283744,control_change,31,0,5,,,,,,,,,4,11,49,,,
283745,control_change,31,0,2,,,,,,,,,1,11,44,,,
283745,control_change,31,0,6,,,,,,,,,5,11,49,,,
283746,control_change,31,0,3,,,,,,,,,2,11,44,,,
283750,control_change,31,0,4,,,,,,,,,3,11,44,,,
283775,control_change,31,0,5,,,,,,,,,4,11,50,,,
283776,control_change,31,0,6,,,,,,,,,5,11,50,,,
283776,control_change,31,0,2,,,,,,,,,1,11,45,,,
283777,control_change,31,0,3,,,,,,,,,2,11,45,,,
283781,control_change,31,0,4,,,,,,,,,3,11,45,,,
283797,note_on,22,0,5,,,,,,,,,4,,,,64,0
283798,note_on,22,0,6,,,,,,,,,5,,,,52,0
283800,set_tempo,120,1,0,,,,,,254237,,,,,,,,
283804,note_on,28,0,2,,,,,,,,,1,,,,64,0
283804,note_on,0,0,2,,,,,,,,,1,,,,77,100
283804,note_on,0,0,2,,,,,,,,,1,,,,65,100
283804,note_on,0,0,2,,,,,,,,,1,,,,76,0
283806,control_change,9,0,5,,,,,,,,,4,11,51,,,
283807,control_change,3,0,2,,,,,,,,,1,11,46,,,
283807,control_change,9,0,6,,,,,,,,,5,11,51,,,
283808,control_change,31,0,3,,,,,,,,,2,11,46,,,
283809,note_on,28,0,4,,,,,,,,,3,,,,52,0
283809,note_on,0,0,4,,,,,,,,,3,,,,53,100
283812,control_change,3,0,4,,,,,,,,,3,11,46,,,
283837,control_change,31,0,5,,,,,,,,,4,11,52,,,
283838,control_change,31,0,2,,,,,,,,,1,11,47,,,
283838,control_change,31,0,6,,,,,,,,,5,11,52,,,
283839,control_change,31,0,3,,,,,,,,,2,11,47,,,
283843,control_change,31,0,4,,,,,,,,,3,11,47,,,
283868,control_change,31,0,5,,,,,,,,,4,11,53,,,
283869,control_change,31,0,6,,,,,,,,,5,11,53,,,
283869,control_change,31,0,2,,,,,,,,,1,11,48,,,
283870,control_change,31,0,3,,,,,,,,,2,11,48,,,
283874,control_change,31,0,4,,,,,,,,,3,11,48,,,
283899,control_change,31,0,5,,,,,,,,,4,11,54,,,
283900,control_change,31,0,2,,,,,,,,,1,11,49,,,
283900,control_change,31,0,6,,,,,,,,,5,11,54,,,
283901,control_change,31,0,3,,,,,,,,,2,11,49,,,
283905,control_change,31,0,4,,,,,,,,,3,11,49,,,
283924,note_on,24,0,2,,,,,,,,,1,,,,77,0
283924,note_on,0,0,2,,,,,,,,,1,,,,66,100
283924,note_on,0,0,2,,,,,,,,,1,,,,65,0
283924,note_on,0,0,2,,,,,,,,,1,,,,78,100
283929,note_on,0,0,4,,,,,,,,,3,,,,54,100
283929,note_on,24,0,4,,,,,,,,,3,,,,53,0
283929,control_change,30,0,5,,,,,,,,,4,11,55,,,
283930,control_change,30,0,6,,,,,,,,,5,11,55,,,
283930,control_change,6,0,2,,,,,,,,,1,11,50,,,
283931,control_change,30,0,3,,,,,,,,,2,11,50,,,
283935,control_change,6,0,4,,,,,,,,,3,11,50,,,
283960,control_change,31,0,5,,,,,,,,,4,11,56,,,
283961,control_change,31,0,6,,,,,,,,,5,11,56,,,
283961,control_change,31,0,2,,,,,,,,,1,11,51,,,
283962,control_change,31,0,3,,,,,,,,,2,11,51,,,
283966,control_change,31,0,4,,,,,,,,,3,11,51,,,
283991,control_change,31,0,5,,,,,,,,,4,11,57,,,
283992,control_change,31,0,6,,,,,,,,,5,11,57,,,
283992,control_change,31,0,2,,,,,,,,,1,11,52,,,
283993,control_change,31,0,3,,,,,,,,,2,11,52,,,
283997,control_change,31,0,4,,,,,,,,,3,11,52,,,
284022,control_change,31,0,5,,,,,,,,,4,11,58,,,
284023,control_change,31,0,2,,,,,,,,,1,11,52,,,
284023,control_change,31,0,6,,,,,,,,,5,11,58,,,
284024,control_change,31,0,3,,,,,,,,,2,11,52,,,
284028,control_change,31,0,4,,,,,,,,,3,11,53,,,
284040,set_tempo,240,1,0,,,,,,267857,,,,,,,,
284043,note_on,21,0,5,,,,,,,,,4,,,,67,100
284044,note_on,0,0,2,,,,,,,,,1,,,,67,100
284044,note_on,21,0,2,,,,,,,,,1,,,,66,0
284044,note_on,0,0,2,,,,,,,,,1,,,,78,0
284044,note_on,21,0,6,,,,,,,,,5,,,,55,100
284044,note_on,0,0,2,,,,,,,,,1,,,,79,100
284045,note_on,21,0,3,,,,,,,,,2,,,,67,101
284045,note_on,0,0,3,,,,,,,,,2,,,,79,101
284049,note_on,0,0,4,,,,,,,,,3,,,,55,100
284049,note_on,0,0,4,,,,,,,,,3,,,,43,100
284049,note_on,21,0,4,,,,,,,,,3,,,,54,0
284053,control_change,10,0,5,,,,,,,,,4,11,59,,,
284054,control_change,10,0,6,,,,,,,,,5,11,59,,,
284054,control_change,10,0,2,,,,,,,,,1,11,53,,,
284055,control_change,10,0,3,,,,,,,,,2,11,53,,,
284059,control_change,10,0,4,,,,,,,,,3,11,54,,,
284084,control_change,31,0,5,,,,,,,,,4,11,60,,,
284085,control_change,31,0,6,,,,,,,,,5,11,60,,,
284085,control_change,31,0,2,,,,,,,,,1,11,54,,,
284086,control_change,31,0,3,,,,,,,,,2,11,54,,,
284090,control_change,31,0,4,,,,,,,,,3,11,55,,,
284115,control_change,31,0,5,,,,,,,,,4,11,61,,,
284116,control_change,31,0,2,,,,,,,,,1,11,55,,,
284116,control_change,31,0,6,,,,,,,,,5,11,61,,,
284117,control_change,31,0,3,,,,,,,,,2,11,55,,,
284121,control_change,31,0,4,,,,,,,,,3,11,56,,,
284136,note_on,21,0,5,,,,,,,,,4,,,,67,0
284137,note_on,21,0,2,,,,,,,,,1,,,,67,0
284137,note_on,0,0,2,,,,,,,,,1,,,,79,0
284137,note_on,21,0,6,,,,,,,,,5,,,,55,0
284138,note_on,21,0,3,,,,,,,,,2,,,,79,0
284138,note_on,0,0,3,,,,,,,,,2,,,,67,0
284142,note_on,0,0,4,,,,,,,,,3,,,,43,0
284142,note_on,21,0,4,,,,,,,,,3,,,,55,0
284145,control_change,9,0,5,,,,,,,,,4,11,62,,,
284146,control_change,9,0,6,,,,,,,,,5,11,62,,,
284146,control_change,9,0,2,,,,,,,,,1,11,55,,,
284147,control_change,9,0,3,,,,,,,,,2,11,55,,,
284151,control_change,9,0,4,,,,,,,,,3,11,57,,,
284160,set_tempo,120,1,0,,,,,,253165,,,,,,,,
284163,note_on,18,0,5,,,,,,,,,4,,,,67,100
284164,note_on,18,0,6,,,,,,,,,5,,,,55,100
284164,note_on,0,0,2,,,,,,,,,1,,,,79,100
284164,note_on,18,0,2,,,,,,,,,1,,,,67,100
284165,note_on,18,0,3,,,,,,,,,2,,,,67,101
284165,note_on,0,0,3,,,,,,,,,2,,,,79,101
284169,note_on,18,0,4,,,,,,,,,3,,,,55,100
284169,note_on,0,0,4,,,,,,,,,3,,,,43,100
284176,control_change,13,0,5,,,,,,,,,4,11,63,,,
284177,control_change,13,0,2,,,,,,,,,1,11,56,,,
284177,control_change,13,0,6,,,,,,,,,5,11,63,,,
284178,control_change,13,0,3,,,,,,,,,2,11,56,,,
284182,control_change,13,0,4,,,,,,,,,3,11,58,,,
284207,control_change,31,0,5,,,,,,,,,4,11,64,,,
284208,control_change,31,0,2,,,,,,,,,1,11,57,,,
284208,control_change,31,0,6,,,,,,,,,5,11,64,,,
284209,control_change,31,0,3,,,,,,,,,2,11,57,,,
284213,control_change,31,0,4,,,,,,,,,3,11,59,,,
284238,control_change,31,0,5,,,,,,,,,4,11,65,,,
284239,control_change,31,0,2,,,,,,,,,1,11,58,,,
284239,control_change,31,0,6,,,,,,,,,5,11,65,,,
284240,control_change,31,0,3,,,,,,,,,2,11,58,,,
284244,control_change,31,0,4,,,,,,,,,3,11,60,,,
284256,note_on,18,0,5,,,,,,,,,4,,,,67,0
284257,note_on,0,0,2,,,,,,,,,1,,,,67,0
284257,note_on,18,0,6,,,,,,,,,5,,,,55,0
284257,note_on,18,0,2,,,,,,,,,1,,,,79,0
284258,note_on,0,0,3,,,,,,,,,2,,,,67,0
284258,note_on,18,0,3,,,,,,,,,2,,,,79,0
284262,note_on,0,0,4,,,,,,,,,3,,,,55,0
284262,note_on,18,0,4,,,,,,,,,3,,,,43,0
284269,control_change,13,0,5,,,,,,,,,4,11,66,,,
284270,control_change,13,0,2,,,,,,,,,1,11,58,,,
284270,control_change,13,0,6,,,,,,,,,5,11,66,,,
284271,control_change,13,0,3,,,,,,,,,2,11,58,,,
284275,control_change,13,0,4,,,,,,,,,3,11,61,,,
284283,note_on,14,0,5,,,,,,,,,4,,,,67,100
284284,note_on,14,0,6,,,,,,,,,5,,,,55,100
284284,note_on,0,0,2,,,,,,,,,1,,,,67,100
284284,note_on,14,0,2,,,,,,,,,1,,,,79,100
284285,note_on,14,0,3,,,,,,,,,2,,,,79,101
284285,note_on,0,0,3,,,,,,,,,2,,,,67,101
284289,note_on,0,0,4,,,,,,,,,3,,,,55,100
284289,note_on,14,0,4,,,,,,,,,3,,,,43,100
284300,control_change,17,0,5,,,,,,,,,4,11,67,,,
284301,control_change,17,0,6,,,,,,,,,5,11,67,,,
284301,control_change,17,0,2,,,,,,,,,1,11,59,,,
284302,control_change,17,0,3,,,,,,,,,2,11,59,,,
284306,control_change,17,0,4,,,,,,,,,3,11,62,,,
284331,control_change,31,0,5,,,,,,,,,4,11,68,,,
284332,control_change,31,0,2,,,,,,,,,1,11,60,,,
284332,control_change,31,0,6,,,,,,,,,5,11,68,,,
284333,control_change,31,0,3,,,,,,,,,2,11,60,,,
284337,control_change,31,0,4,,,,,,,,,3,11,63,,,
284361,control_change,30,0,5,,,,,,,,,4,11,69,,,
284362,control_change,30,0,2,,,,,,,,,1,11,61,,,
284362,control_change,30,0,6,,,,,,,,,5,11,69,,,
284363,control_change,30,0,3,,,,,,,,,2,11,61,,,
284367,control_change,30,0,4,,,,,,,,,3,11,64,,,
284376,note_on,15,0,5,,,,,,,,,4,,,,67,0
284377,note_on,0,0,2,,,,,,,,,1,,,,79,0
284377,note_on,15,0,2,,,,,,,,,1,,,,67,0
284377,note_on,15,0,6,,,,,,,,,5,,,,55,0
284378,note_on,0,0,3,,,,,,,,,2,,,,79,0
284378,note_on,15,0,3,,,,,,,,,2,,,,67,0
284382,note_on,15,0,4,,,,,,,,,3,,,,55,0
284382,note_on,0,0,4,,,,,,,,,3,,,,43,0
284392,control_change,16,0,5,,,,,,,,,4,11,70,,,
284393,control_change,16,0,6,,,,,,,,,5,11,70,,,
284393,control_change,16,0,2,,,,,,,,,1,11,61,,,
284394,control_change,16,0,3,,,,,,,,,2,11,61,,,
284398,control_change,16,0,4,,,,,,,,,3,11,65,,,
284400,set_tempo,240,1,0,,,,,,264317,,,,,,,,
284403,note_on,11,0,5,,,,,,,,,4,,,,67,100
284404,note_on,11,0,6,,,,,,,,,5,,,,55,100
284404,note_on,0,0,2,,,,,,,,,1,,,,67,100
284404,note_on,11,0,2,,,,,,,,,1,,,,79,100
284405,note_on,0,0,3,,,,,,,,,2,,,,79,101
284405,note_on,11,0,3,,,,,,,,,2,,,,67,101
284409,note_on,0,0,4,,,,,,,,,3,,,,55,100
284409,note_on,11,0,4,,,,,,,,,3,,,,43,100
284423,control_change,20,0,5,,,,,,,,,4,11,71,,,
284424,control_change,20,0,6,,,,,,,,,5,11,71,,,
284424,control_change,20,0,2,,,,,,,,,1,11,62,,,
284425,control_change,20,0,3,,,,,,,,,2,11,62,,,
284429,control_change,20,0,4,,,,,,,,,3,11,66,,,
284454,control_change,31,0,5,,,,,,,,,4,11,72,,,
284455,control_change,31,0,6,,,,,,,,,5,11,72,,,
284455,control_change,31,0,2,,,,,,,,,1,11,63,,,
284456,control_change,31,0,3,,,,,,,,,2,11,63,,,
284460,control_change,31,0,4,,,,,,,,,3,11,67,,,
284485,control_change,31,0,5,,,,,,,,,4,11,73,,,
284486,control_change,31,0,6,,,,,,,,,5,11,73,,,
284486,control_change,31,0,2,,,,,,,,,1,11,64,,,
284487,control_change,31,0,3,,,,,,,,,2,11,64,,,
284491,control_change,31,0,4,,,,,,,,,3,11,68,,,
284496,note_on,11,0,5,,,,,,,,,4,,,,67,0
284497,note_on,11,0,2,,,,,,,,,1,,,,67,0
284497,note_on,11,0,6,,,,,,,,,5,,,,55,0
284497,note_on,0,0,2,,,,,,,,,1,,,,79,0
284498,note_on,11,0,3,,,,,,,,,2,,,,79,0
284498,note_on,0,0,3,,,,,,,,,2,,,,67,0
284502,note_on,0,0,4,,,,,,,,,3,,,,43,0
284502,note_on,11,0,4,,,,,,,,,3,,,,55,0
284516,control_change,20,0,5,,,,,,,,,4,11,74,,,
284517,control_change,20,0,2,,,,,,,,,1,11,64,,,
284517,control_change,20,0,6,,,,,,,,,5,11,74,,,
284518,control_change,20,0,3,,,,,,,,,2,11,64,,,
284520,set_tempo,120,1,0,,,,,,251046,,,,,,,,
284522,control_change,20,0,4,,,,,,,,,3,11,69,,,
284523,note_on,7,0,5,,,,,,,,,4,,,,67,100
284524,note_on,7,0,2,,,,,,,,,1,,,,79,100
284524,note_on,7,0,6,,,,,,,,,5,,,,55,100
284524,note_on,0,0,2,,,,,,,,,1,,,,67,100
284525,note_on,7,0,3,,,,,,,,,2,,,,79,101
284525,note_on,0,0,3,,,,,,,,,2,,,,67,101
284529,note_on,0,0,4,,,,,,,,,3,,,,55,100
284529,note_on,7,0,4,,,,,,,,,3,,,,43,100
284547,control_change,24,0,5,,,,,,,,,4,11,75,,,
284548,control_change,24,0,2,,,,,,,,,1,11,65,,,
284548,control_change,24,0,6,,,,,,,,,5,11,75,,,
284549,control_change,24,0,3,,,,,,,,,2,11,65,,,
284553,control_change,24,0,4,,,,,,,,,3,11,70,,,
284577,control_change,30,0,5,,,,,,,,,4,11,76,,,
284578,control_change,30,0,6,,,,,,,,,5,11,76,,,
284578,control_change,30,0,2,,,,,,,,,1,11,66,,,
284579,control_change,30,0,3,,,,,,,,,2,11,66,,,
284583,control_change,30,0,4,,,,,,,,,3,11,71,,,
284608,control_change,31,0,5,,,,,,,,,4,11,77,,,
284609,control_change,31,0,2,,,,,,,,,1,11,67,,,
284609,control_change,31,0,6,,,,,,,,,5,11,77,,,
284610,control_change,31,0,3,,,,,,,,,2,11,67,,,
284614,control_change,31,0,4,,,,,,,,,3,11,72,,,
284616,note_on,8,0,5,,,,,,,,,4,,,,67,0
284617,note_on,0,0,2,,,,,,,,,1,,,,79,0
284617,note_on,8,0,2,,,,,,,,,1,,,,67,0
284617,note_on,8,0,6,,,,,,,,,5,,,,55,0
284618,note_on,0,0,3,,,,,,,,,2,,,,79,0
284618,note_on,8,0,3,,,,,,,,,2,,,,67,0
284622,note_on,0,0,4,,,,,,,,,3,,,,43,0
284622,note_on,8,0,4,,,,,,,,,3,,,,55,0
284639,control_change,23,0,5,,,,,,,,,4,11,78,,,
284640,control_change,23,0,2,,,,,,,,,1,11,67,,,
284640,control_change,23,0,6,,,,,,,,,5,11,78,,,
284641,control_change,23,0,3,,,,,,,,,2,11,67,,,
284643,note_on,4,0,5,,,,,,,,,4,,,,67,100
284644,note_on,4,0,2,,,,,,,,,1,,,,67,100
284644,note_on,4,0,6,,,,,,,,,5,,,,55,100
284644,note_on,0,0,2,,,,,,,,,1,,,,79,100
284645,note_on,0,0,3,,,,,,,,,2,,,,79,101
284645,control_change,23,0,4,,,,,,,,,3,11,73,,,
284645,note_on,4,0,3,,,,,,,,,2,,,,67,101
284649,note_on,4,0,4,,,,,,,,,3,,,,55,100
284649,note_on,0,0,4,,,,,,,,,3,,,,43,100
284670,control_change,27,0,5,,,,,,,,,4,11,79,,,
284671,control_change,27,0,6,,,,,,,,,5,11,79,,,
284671,control_change,27,0,2,,,,,,,,,1,11,68,,,
284672,control_change,27,0,3,,,,,,,,,2,11,68,,,
284676,control_change,27,0,4,,,,,,,,,3,11,74,,,
284701,control_change,31,0,5,,,,,,,,,4,11,80,,,
284702,control_change,31,0,2,,,,,,,,,1,11,69,,,
284702,control_change,31,0,6,,,,,,,,,5,11,80,,,
284703,control_change,31,0,3,,,,,,,,,2,11,69,,,
284707,control_change,31,0,4,,,,,,,,,3,11,75,,,
284732,control_change,31,0,5,,,,,,,,,4,11,81,,,
284733,control_change,31,0,2,,,,,,,,,1,11,70,,,
284733,control_change,31,0,6,,,,,,,,,5,11,81,,,
284734,control_change,31,0,3,,,,,,,,,2,11,70,,,
284736,note_on,4,0,5,,,,,,,,,4,,,,67,0
284737,note_on,4,0,6,,,,,,,,,5,,,,55,0
284737,note_on,4,0,2,,,,,,,,,1,,,,79,0
284737,note_on,0,0,2,,,,,,,,,1,,,,67,0
284738,control_change,31,0,4,,,,,,,,,3,11,76,,,
284738,note_on,4,0,3,,,,,,,,,2,,,,79,0
284738,note_on,0,0,3,,,,,,,,,2,,,,67,0
284742,note_on,0,0,4,,,,,,,,,3,,,,55,0
284742,note_on,4,0,4,,,,,,,,,3,,,,43,0
284760,set_tempo,240,1,0,,,,,,263158,,,,,,,,
284761,note_on,0,0,1,,,,,,,,,0,,,,91,101
284761,control_change,0,0,1,,,,,,,,,0,11,70,,,
284761,note_on,2400,0,1,,,,,,,,,0,,,,79,101
284762,note_on,0,0,7,,,,,,,,,6,,,,67,112
284762,note_on,0,0,7,,,,,,,,,6,,,,55,112
284762,control_change,24720,0,7,,,,,,,,,6,11,82,,,
284763,note_on,27,0,5,,,,,,,,,4,,,,67,100
284763,control_change,0,0,5,,,,,,,,,4,11,82,,,
284764,note_on,0,0,2,,,,,,,,,1,,,,79,100
284764,note_on,0,0,2,,,,,,,,,1,,,,67,100
284764,note_on,27,0,6,,,,,,,,,5,,,,55,100
284764,control_change,27,0,2,,,,,,,,,1,11,70,,,
284764,control_change,0,0,6,,,,,,,,,5,11,82,,,
284765,note_on,0,0,3,,,,,,,,,2,,,,79,101
284765,note_on,0,0,3,,,,,,,,,2,,,,67,101
284765,control_change,27,0,3,,,,,,,,,2,11,70,,,
284767,control_change,6600,0,8,,,,,,,,,7,11,82,,,
284767,note_on,0,0,8,,,,,,,,,7,,,,67,110
284767,note_on,0,0,8,,,,,,,,,7,,,,55,110
284769,control_change,27,0,4,,,,,,,,,3,11,77,,,
284769,note_on,0,0,4,,,,,,,,,3,,,,55,100
284769,note_on,0,0,4,,,,,,,,,3,,,,43,100
284773,note_on,6720,0,9,,,,,,,,,8,,,,43,110
284773,control_change,0,0,9,,,,,,,,,8,11,82,,,
284775,note_on,24960,0,10,,,,,,,,,15,,,,44,82
284777,control_change,16,0,1,,,,,,,,,0,11,70,,,
284778,control_change,16,0,7,,,,,,,,,6,11,81,,,
284779,control_change,16,0,5,,,,,,,,,4,11,81,,,
284780,control_change,16,0,2,,,,,,,,,1,11,70,,,
284780,control_change,16,0,6,,,,,,,,,5,11,81,,,
284781,control_change,16,0,3,,,,,,,,,2,11,70,,,
284783,control_change,16,0,8,,,,,,,,,7,11,81,,,
284785,control_change,16,0,4,,,,,,,,,3,11,76,,,
284789,control_change,16,0,9,,,,,,,,,8,11,81,,,
284793,control_change,16,0,1,,,,,,,,,0,11,69,,,
284794,control_change,16,0,7,,,,,,,,,6,11,80,,,
284795,control_change,16,0,5,,,,,,,,,4,11,80,,,
284796,control_change,16,0,2,,,,,,,,,1,11,69,,,
284796,control_change,16,0,6,,,,,,,,,5,11,80,,,
284797,control_change,16,0,3,,,,,,,,,2,11,69,,,
284799,control_change,16,0,8,,,,,,,,,7,11,80,,,
284801,control_change,16,0,4,,,,,,,,,3,11,75,,,
284805,control_change,16,0,9,,,,,,,,,8,11,80,,,
284809,control_change,16,0,1,,,,,,,,,0,11,68,,,
284810,control_change,16,0,7,,,,,,,,,6,11,79,,,
284811,control_change,16,0,5,,,,,,,,,4,11,79,,,
284812,control_change,16,0,2,,,,,,,,,1,11,68,,,
284812,control_change,16,0,6,,,,,,,,,5,11,79,,,
284813,control_change,16,0,3,,,,,,,,,2,11,68,,,
284815,control_change,16,0,8,,,,,,,,,7,11,79,,,
284817,control_change,16,0,4,,,,,,,,,3,11,74,,,
284821,control_change,16,0,9,,,,,,,,,8,11,79,,,
284825,control_change,16,0,1,,,,,,,,,0,11,67,,,
284826,control_change,16,0,7,,,,,,,,,6,11,78,,,
284827,control_change,16,0,5,,,,,,,,,4,11,78,,,
284828,control_change,16,0,6,,,,,,,,,5,11,78,,,
284828,control_change,16,0,2,,,,,,,,,1,11,67,,,
284829,control_change,16,0,3,,,,,,,,,2,11,67,,,
284831,control_change,16,0,8,,,,,,,,,7,11,78,,,
284833,control_change,16,0,4,,,,,,,,,3,11,73,,,
284837,control_change,16,0,9,,,,,,,,,8,11,78,,,
284837,note_on,12,0,1,,,,,,,,,0,,,,79,0
284838,note_on,12,0,7,,,,,,,,,6,,,,67,0
284838,note_on,0,0,7,,,,,,,,,6,,,,55,0
284839,note_on,12,0,5,,,,,,,,,4,,,,67,0
284840,note_on,12,0,6,,,,,,,,,5,,,,55,0
284840,note_on,12,0,2,,,,,,,,,1,,,,79,0
284840,note_on,0,0,2,,,,,,,,,1,,,,67,0
284841,note_on,4,0,1,,,,,,,,,0,,,,91,0
284841,control_change,0,0,1,,,,,,,,,0,11,67,,,
284841,note_on,0,0,3,,,,,,,,,2,,,,67,0
284841,note_on,12,0,3,,,,,,,,,2,,,,79,0
284842,control_change,4,0,7,,,,,,,,,6,11,77,,,
284843,note_on,0,0,8,,,,,,,,,7,,,,55,0
284843,note_on,12,0,8,,,,,,,,,7,,,,67,0
284843,control_change,4,0,5,,,,,,,,,4,11,77,,,
284844,control_change,4,0,6,,,,,,,,,5,11,77,,,
284844,control_change,4,0,2,,,,,,,,,1,11,67,,,
284845,note_on,12,0,4,,,,,,,,,3,,,,43,0
284845,control_change,4,0,3,,,,,,,,,2,11,67,,,
284845,note_on,0,0,4,,,,,,,,,3,,,,55,0
284847,control_change,4,0,8,,,,,,,,,7,11,77,,,
284849,note_on,12,0,9,,,,,,,,,8,,,,43,0
284849,control_change,4,0,4,,,,,,,,,3,11,72,,,
284853,control_change,4,0,9,,,,,,,,,8,11,77,,,
284855,note_on,80,0,10,,,,,,,,,15,,,,44,0
284857,control_change,16,0,1,,,,,,,,,0,11,66,,,
284858,control_change,16,0,7,,,,,,,,,6,11,76,,,
284859,control_change,16,0,5,,,,,,,,,4,11,76,,,
284860,control_change,16,0,6,,,,,,,,,5,11,76,,,
284860,control_change,16,0,2,,,,,,,,,1,11,66,,,
284861,control_change,16,0,3,,,,,,,,,2,11,66,,,
284863,control_change,16,0,8,,,,,,,,,7,11,76,,,
284865,control_change,16,0,4,,,,,,,,,3,11,71,,,
284869,control_change,16,0,9,,,,,,,,,8,11,76,,,
284873,control_change,16,0,1,,,,,,,,,0,11,65,,,
284874,control_change,16,0,7,,,,,,,,,6,11,75,,,
284875,control_change,16,0,5,,,,,,,,,4,11,75,,,
284876,control_change,16,0,2,,,,,,,,,1,11,65,,,
284876,control_change,16,0,6,,,,,,,,,5,11,75,,,
284877,control_change,16,0,3,,,,,,,,,2,11,65,,,
284879,control_change,16,0,8,,,,,,,,,7,11,75,,,
284880,set_tempo,120,1,0,,,,,,251046,,,,,,,,
284881,control_change,16,0,4,,,,,,,,,3,11,70,,,
284881,note_on,0,0,1,,,,,,,,,0,,,,79,101
284881,note_on,8,0,1,,,,,,,,,0,,,,91,101
284882,note_on,8,0,7,,,,,,,,,6,,,,55,112
284882,note_on,0,0,7,,,,,,,,,6,,,,67,112
284883,note_on,8,0,5,,,,,,,,,4,,,,67,100
284884,note_on,8,0,6,,,,,,,,,5,,,,55,100
284884,note_on,8,0,2,,,,,,,,,1,,,,67,100
284884,note_on,0,0,2,,,,,,,,,1,,,,79,100
284885,note_on,8,0,3,,,,,,,,,2,,,,79,101
284885,control_change,16,0,9,,,,,,,,,8,11,75,,,
284885,note_on,0,0,3,,,,,,,,,2,,,,67,101
284887,note_on,8,0,8,,,,,,,,,7,,,,55,110
284887,note_on,0,0,8,,,,,,,,,7,,,,67,110
284889,note_on,0,0,4,,,,,,,,,3,,,,55,100
284889,note_on,8,0,4,,,,,,,,,3,,,,43,100
284889,control_change,8,0,1,,,,,,,,,0,11,64,,,
284890,control_change,8,0,7,,,,,,,,,6,11,74,,,
284891,control_change,8,0,5,,,,,,,,,4,11,74,,,
284892,control_change,8,0,6,,,,,,,,,5,11,74,,,
284892,control_change,8,0,2,,,,,,,,,1,11,64,,,
284893,note_on,8,0,9,,,,,,,,,8,,,,43,110
284893,control_change,8,0,3,,,,,,,,,2,11,64,,,
284895,control_change,8,0,8,,,,,,,,,7,11,74,,,
284895,note_on,40,0,10,,,,,,,,,15,,,,44,82
284897,control_change,8,0,4,,,,,,,,,3,11,69,,,
284901,control_change,8,0,9,,,,,,,,,8,11,74,,,
284905,control_change,16,0,1,,,,,,,,,0,11,64,,,
284906,control_change,16,0,7,,,,,,,,,6,11,73,,,
284907,control_change,16,0,5,,,,,,,,,4,11,73,,,
284908,control_change,16,0,6,,,,,,,,,5,11,73,,,
284908,control_change,16,0,2,,,,,,,,,1,11,64,,,
284909,control_change,16,0,3,,,,,,,,,2,11,64,,,
284911,control_change,16,0,8,,,,,,,,,7,11,73,,,
284913,control_change,16,0,4,,,,,,,,,3,11,68,,,
284917,control_change,16,0,9,,,,,,,,,8,11,73,,,
284921,control_change,16,0,1,,,,,,,,,0,11,63,,,
284922,control_change,16,0,7,,,,,,,,,6,11,72,,,
284923,control_change,16,0,5,,,,,,,,,4,11,72,,,
284924,control_change,16,0,6,,,,,,,,,5,11,72,,,
284924,control_change,16,0,2,,,,,,,,,1,11,63,,,
284925,control_change,16,0,3,,,,,,,,,2,11,63,,,
284927,control_change,16,0,8,,,,,,,,,7,11,72,,,
284929,control_change,16,0,4,,,,,,,,,3,11,67,,,
284933,control_change,16,0,9,,,,,,,,,8,11,72,,,
284937,control_change,16,0,1,,,,,,,,,0,11,62,,,
284938,control_change,16,0,7,,,,,,,,,6,11,71,,,
284939,control_change,16,0,5,,,,,,,,,4,11,71,,,
284940,control_change,16,0,2,,,,,,,,,1,11,62,,,
284940,control_change,16,0,6,,,,,,,,,5,11,71,,,
284941,control_change,16,0,3,,,,,,,,,2,11,62,,,
284943,control_change,16,0,8,,,,,,,,,7,11,71,,,
284945,control_change,16,0,4,,,,,,,,,3,11,66,,,
284949,control_change,16,0,9,,,,,,,,,8,11,71,,,
284953,control_change,16,0,1,,,,,,,,,0,11,61,,,
284954,control_change,16,0,7,,,,,,,,,6,11,70,,,
284955,control_change,16,0,5,,,,,,,,,4,11,70,,,
284956,control_change,16,0,2,,,,,,,,,1,11,61,,,
284956,control_change,16,0,6,,,,,,,,,5,11,70,,,
284957,note_on,4,0,1,,,,,,,,,0,,,,79,0
284957,control_change,16,0,3,,,,,,,,,2,11,61,,,
284958,note_on,4,0,7,,,,,,,,,6,,,,67,0
284958,note_on,0,0,7,,,,,,,,,6,,,,55,0
284959,note_on,4,0,5,,,,,,,,,4,,,,67,0
284959,control_change,16,0,8,,,,,,,,,7,11,70,,,
284960,note_on,4,0,6,,,,,,,,,5,,,,55,0
284960,note_on,0,0,2,,,,,,,,,1,,,,67,0
284960,note_on,4,0,2,,,,,,,,,1,,,,79,0
284961,note_on,0,0,3,,,,,,,,,2,,,,79,0
284961,note_on,4,0,1,,,,,,,,,0,,,,91,0
284961,control_change,16,0,4,,,,,,,,,3,11,65,,,
284961,note_on,4,0,3,,,,,,,,,2,,,,67,0
284963,note_on,0,0,8,,,,,,,,,7,,,,55,0
284963,note_on,4,0,8,,,,,,,,,7,,,,67,0
284965,note_on,4,0,4,,,,,,,,,3,,,,55,0
284965,note_on,0,0,4,,,,,,,,,3,,,,43,0
284965,control_change,16,0,9,,,,,,,,,8,11,70,,,
284969,control_change,8,0,1,,,,,,,,,0,11,61,,,
284969,note_on,4,0,9,,,,,,,,,8,,,,43,0
284970,control_change,12,0,7,,,,,,,,,6,11,69,,,
284971,control_change,12,0,5,,,,,,,,,4,11,69,,,
284972,control_change,12,0,6,,,,,,,,,5,11,69,,,
284972,control_change,12,0,2,,,,,,,,,1,11,61,,,
284973,control_change,12,0,3,,,,,,,,,2,11,61,,,
284975,control_change,12,0,8,,,,,,,,,7,11,69,,,
284975,note_on,80,0,10,,,,,,,,,15,,,,44,0
284977,control_change,12,0,4,,,,,,,,,3,11,64,,,
284981,control_change,12,0,9,,,,,,,,,8,11,69,,,
284985,control_change,16,0,1,,,,,,,,,0,11,60,,,
284986,control_change,16,0,7,,,,,,,,,6,11,68,,,
284987,control_change,16,0,5,,,,,,,,,4,11,68,,,
284988,control_change,16,0,2,,,,,,,,,1,11,60,,,
284988,control_change,16,0,6,,,,,,,,,5,11,68,,,
284989,control_change,16,0,3,,,,,,,,,2,11,60,,,
284991,control_change,16,0,8,,,,,,,,,7,11,68,,,
284993,control_change,16,0,4,,,,,,,,,3,11,63,,,
284997,control_change,16,0,9,,,,,,,,,8,11,68,,,
285001,note_on,0,0,1,,,,,,,,,0,,,,79,101
285001,note_on,16,0,1,,,,,,,,,0,,,,91,101
285001,control_change,0,0,1,,,,,,,,,0,11,59,,,
285002,note_on,16,0,7,,,,,,,,,6,,,,67,112
285002,note_on,0,0,7,,,,,,,,,6,,,,55,112
285002,control_change,0,0,7,,,,,,,,,6,11,67,,,
285003,note_on,0,0,5,,,,,,,,,4,,,,67,100
285003,control_change,16,0,5,,,,,,,,,4,11,67,,,
285004,note_on,0,0,6,,,,,,,,,5,,,,55,100
285004,note_on,0,0,2,,,,,,,,,1,,,,67,100
285004,control_change,16,0,6,,,,,,,,,5,11,67,,,
285004,note_on,0,0,2,,,,,,,,,1,,,,79,100
285004,control_change,16,0,2,,,,,,,,,1,11,59,,,
285005,note_on,0,0,3,,,,,,,,,2,,,,67,101
285005,control_change,0,0,3,,,,,,,,,2,11,59,,,
285005,note_on,16,0,3,,,,,,,,,2,,,,79,101
285007,note_on,0,0,8,,,,,,,,,7,,,,67,110
285007,control_change,0,0,8,,,,,,,,,7,11,67,,,
285007,note_on,16,0,8,,,,,,,,,7,,,,55,110
285009,note_on,0,0,4,,,,,,,,,3,,,,55,100
285009,note_on,0,0,4,,,,,,,,,3,,,,43,100
285009,control_change,16,0,4,,,,,,,,,3,11,62,,,
285013,note_on,16,0,9,,,,,,,,,8,,,,43,110
285013,control_change,0,0,9,,,,,,,,,8,11,67,,,
285015,note_on,40,0,10,,,,,,,,,15,,,,44,82
285077,note_on,76,0,1,,,,,,,,,0,,,,79,0
285078,note_on,0,0,7,,,,,,,,,6,,,,67,0
285078,note_on,76,0,7,,,,,,,,,6,,,,55,0
285079,note_on,76,0,5,,,,,,,,,4,,,,67,0
285080,note_on,76,0,6,,,,,,,,,5,,,,55,0
285080,note_on,0,0,2,,,,,,,,,1,,,,67,0
285080,note_on,76,0,2,,,,,,,,,1,,,,79,0
285081,note_on,0,0,3,,,,,,,,,2,,,,79,0
285081,note_on,76,0,3,,,,,,,,,2,,,,67,0
285081,note_on,4,0,1,,,,,,,,,0,,,,91,0
285083,note_on,0,0,8,,,,,,,,,7,,,,55,0
285083,note_on,76,0,8,,,,,,,,,7,,,,67,0
285085,note_on,76,0,4,,,,,,,,,3,,,,55,0
285085,note_on,0,0,4,,,,,,,,,3,,,,43,0
285089,note_on,76,0,9,,,,,,,,,8,,,,43,0
285095,note_on,80,0,10,,,,,,,,,15,,,,44,0
285120,set_tempo,240,1,0,,,,,,266075,,,,,,,,
285123,note_on,44,0,5,,,,,,,,,4,,,,67,100
285123,control_change,0,0,5,,,,,,,,,4,11,52,,,
285124,note_on,44,0,2,,,,,,,,,1,,,,79,100
285124,note_on,44,0,6,,,,,,,,,5,,,,55,100
285124,note_on,0,0,2,,,,,,,,,1,,,,67,100
285124,control_change,0,0,6,,,,,,,,,5,11,52,,,
285124,control_change,0,0,2,,,,,,,,,1,11,47,,,
285129,note_on,0,0,4,,,,,,,,,3,,,,43,100
285129,control_change,44,0,4,,,,,,,,,3,11,47,,,
285129,note_on,0,0,4,,,,,,,,,3,,,,55,100
285199,note_on,76,0,5,,,,,,,,,4,,,,67,0
285200,note_on,76,0,6,,,,,,,,,5,,,,55,0
285200,note_on,76,0,2,,,,,,,,,1,,,,67,0
285200,note_on,0,0,2,,,,,,,,,1,,,,79,0
285205,note_on,76,0,4,,,,,,,,,3,,,,55,0
285205,note_on,0,0,4,,,,,,,,,3,,,,43,0
285240,set_tempo,120,1,0,,,,,,251046,,,,,,,,
285243,note_on,44,0,5,,,,,,,,,4,,,,67,100
285244,note_on,0,0,2,,,,,,,,,1,,,,79,100
285244,note_on,44,0,2,,,,,,,,,1,,,,67,100
285244,note_on,44,0,6,,,,,,,,,5,,,,55,100
285249,note_on,0,0,4,,,,,,,,,3,,,,55,100
285249,note_on,44,0,4,,,,,,,,,3,,,,43,100
285319,note_on,76,0,5,,,,,,,,,4,,,,67,0
285320,note_on,0,0,2,,,,,,,,,1,,,,67,0
285320,note_on,76,0,6,,,,,,,,,5,,,,55,0
285320,note_on,76,0,2,,,,,,,,,1,,,,79,0
285325,note_on,0,0,4,,,,,,,,,3,,,,43,0
285325,note_on,76,0,4,,,,,,,,,3,,,,55,0
285363,note_on,44,0,5,,,,,,,,,4,,,,67,100
285364,note_on,44,0,6,,,,,,,,,5,,,,55,100
285364,note_on,0,0,2,,,,,,,,,1,,,,79,100
285364,note_on,44,0,2,,,,,,,,,1,,,,67,100
285369,note_on,44,0,4,,,,,,,,,3,,,,43,100
285369,note_on,0,0,4,,,,,,,,,3,,,,55,100
285439,note_on,76,0,5,,,,,,,,,4,,,,67,0
285440,note_on,76,0,6,,,,,,,,,5,,,,55,0
285440,note_on,0,0,2,,,,,,,,,1,,,,67,0
285440,note_on,76,0,2,,,,,,,,,1,,,,79,0
285445,note_on,76,0,4,,,,,,,,,3,,,,55,0
285445,note_on,0,0,4,,,,,,,,,3,,,,43,0
285480,control_change,3180,0,11,,,,,,,,,10,11,83,,,
285480,set_tempo,0,1,0,,,,,,254237,,,,,,,,
285480,key_signature,240,1,0,,,,,C,,,,,,,,,
285480,note_on,0,0,11,,,,,,,,,10,,,,55,112
285481,control_change,400,0,1,,,,,,,,,0,11,47,,,
285482,control_change,404,0,7,,,,,,,,,6,11,82,,,
285482,program_change,3179,0,12,,,,,,,,48,11,,,,,
285483,note_on,0,0,12,,,,,,,,,11,,,,55,112
285483,control_change,1,0,12,,,,,,,,,11,11,83,,,
285483,control_change,44,0,5,,,,,,,,,4,11,47,,,
285484,control_change,44,0,6,,,,,,,,,5,11,47,,,
285484,control_change,44,0,2,,,,,,,,,1,11,47,,,
285485,control_change,404,0,3,,,,,,,,,2,11,47,,,
285487,program_change,3119,0,13,,,,,,,,50,12,,,,,
285487,control_change,404,0,8,,,,,,,,,7,11,82,,,
285488,control_change,0,0,13,,,,,,,,,12,11,83,,,
285488,note_on,1,0,13,,,,,,,,,12,,,,55,112
285489,control_change,44,0,4,,,,,,,,,3,11,47,,,
285492,note_on,3180,0,14,,,,,,,,,13,,,,43,112
285492,control_change,0,0,14,,,,,,,,,13,11,83,,,
285493,control_change,404,0,9,,,,,,,,,8,11,82,,,
285494,control_change,3360,0,15,,,,,,,,,14,11,83,,,
285494,note_on,0,0,15,,,,,,,,,14,,,,31,112
285510,note_on,30,0,11,,,,,,,,,10,,,,55,0
285513,note_on,30,0,12,,,,,,,,,11,,,,55,0
285518,note_on,30,0,13,,,,,,,,,12,,,,55,0
285522,note_on,30,0,14,,,,,,,,,13,,,,43,0
285524,note_on,30,0,15,,,,,,,,,14,,,,31,0
285540,note_on,30,0,11,,,,,,,,,10,,,,55,112
285543,note_on,30,0,12,,,,,,,,,11,,,,55,112
285548,note_on,30,0,13,,,,,,,,,12,,,,55,112
285552,note_on,30,0,14,,,,,,,,,13,,,,43,112
285554,note_on,30,0,15,,,,,,,,,14,,,,31,112
285570,note_on,30,0,11,,,,,,,,,10,,,,55,0
285573,note_on,30,0,12,,,,,,,,,11,,,,55,0
285578,note_on,30,0,13,,,,,,,,,12,,,,55,0
285582,note_on,30,0,14,,,,,,,,,13,,,,43,0
285584,note_on,30,0,15,,,,,,,,,14,,,,31,0
285600,set_tempo,120,1,0,,,,,,263158,,,,,,,,
285600,note_on,30,0,11,,,,,,,,,10,,,,57,112
285603,note_on,30,0,12,,,,,,,,,11,,,,57,112
285608,note_on,30,0,13,,,,,,,,,12,,,,57,112
285612,note_on,30,0,14,,,,,,,,,13,,,,45,112
285614,note_on,30,0,15,,,,,,,,,14,,,,33,112
285630,note_on,30,0,11,,,,,,,,,10,,,,57,0
285633,note_on,30,0,12,,,,,,,,,11,,,,57,0
285638,note_on,30,0,13,,,,,,,,,12,,,,57,0
285642,note_on,30,0,14,,,,,,,,,13,,,,45,0
285644,note_on,30,0,15,,,,,,,,,14,,,,33,0
285660,note_on,30,0,11,,,,,,,,,10,,,,55,112
285663,note_on,30,0,12,,,,,,,,,11,,,,55,112
285668,note_on,30,0,13,,,,,,,,,12,,,,55,112
285672,note_on,30,0,14,,,,,,,,,13,,,,43,112
285674,note_on,30,0,15,,,,,,,,,14,,,,31,112
285690,note_on,30,0,11,,,,,,,,,10,,,,55,0
285693,note_on,30,0,12,,,,,,,,,11,,,,55,0
285698,note_on,30,0,13,,,,,,,,,12,,,,55,0
285702,note_on,30,0,14,,,,,,,,,13,,,,43,0
285704,note_on,30,0,15,,,,,,,,,14,,,,31,0
285720,set_tempo,120,1,0,,,,,,288462,,,,,,,,
285720,note_on,30,0,11,,,,,,,,,10,,,,57,112
285723,note_on,30,0,12,,,,,,,,,11,,,,57,112
285728,note_on,30,0,13,,,,,,,,,12,,,,57,112
285732,note_on,30,0,14,,,,,,,,,13,,,,45,112
285734,note_on,30,0,15,,,,,,,,,14,,,,33,112
285750,note_on,30,0,11,,,,,,,,,10,,,,57,0
285753,note_on,30,0,12,,,,,,,,,11,,,,57,0
285758,note_on,30,0,13,,,,,,,,,12,,,,57,0
285762,note_on,30,0,14,,,,,,,,,13,,,,45,0
285764,note_on,30,0,15,,,,,,,,,14,,,,33,0
285780,note_on,30,0,11,,,,,,,,,10,,,,55,112
285783,note_on,30,0,12,,,,,,,,,11,,,,55,112
285788,note_on,30,0,13,,,,,,,,,12,,,,55,112
285792,note_on,30,0,14,,,,,,,,,13,,,,43,112
285794,note_on,30,0,15,,,,,,,,,14,,,,31,112
285810,note_on,30,0,11,,,,,,,,,10,,,,55,0
285813,note_on,30,0,12,,,,,,,,,11,,,,55,0
285818,note_on,30,0,13,,,,,,,,,12,,,,55,0
285822,note_on,30,0,14,,,,,,,,,13,,,,43,0
285824,note_on,30,0,15,,,,,,,,,14,,,,31,0
285840,note_on,30,0,11,,,,,,,,,10,,,,60,112
285840,set_tempo,120,1,0,,,,,,258621,,,,,,,,
285843,note_on,30,0,12,,,,,,,,,11,,,,60,112
285848,note_on,30,0,13,,,,,,,,,12,,,,60,112
285852,note_on,30,0,14,,,,,,,,,13,,,,48,112
285854,note_on,30,0,15,,,,,,,,,14,,,,36,112
285900,note_on,60,0,11,,,,,,,,,10,,,,60,0
285903,note_on,60,0,12,,,,,,,,,11,,,,60,0
285908,note_on,60,0,13,,,,,,,,,12,,,,60,0
285912,note_on,60,0,14,,,,,,,,,13,,,,48,0
285914,note_on,60,0,15,,,,,,,,,14,,,,36,0
285960,note_on,60,0,11,,,,,,,,,10,,,,60,112
285963,note_on,60,0,12,,,,,,,,,11,,,,60,112
285968,note_on,60,0,13,,,,,,,,,12,,,,60,112
285972,note_on,60,0,14,,,,,,,,,13,,,,48,112
285974,note_on,60,0,15,,,,,,,,,14,,,,36,112
286020,note_on,60,0,11,,,,,,,,,10,,,,60,0
286023,note_on,60,0,12,,,,,,,,,11,,,,60,0
286028,note_on,60,0,13,,,,,,,,,12,,,,60,0
286032,note_on,60,0,14,,,,,,,,,13,,,,48,0
286034,note_on,60,0,15,,,,,,,,,14,,,,36,0
286080,set_tempo,240,1,0,,,,,,288462,,,,,,,,
286080,note_on,60,0,11,,,,,,,,,10,,,,60,112
286083,note_on,60,0,12,,,,,,,,,11,,,,60,112
286088,note_on,60,0,13,,,,,,,,,12,,,,60,112
286092,note_on,60,0,14,,,,,,,,,13,,,,48,112
286094,note_on,60,0,15,,,,,,,,,14,,,,36,112
286140,note_on,60,0,11,,,,,,,,,10,,,,60,0
286143,note_on,60,0,12,,,,,,,,,11,,,,60,0
286148,note_on,60,0,13,,,,,,,,,12,,,,60,0
286152,note_on,60,0,14,,,,,,,,,13,,,,48,0
286154,note_on,60,0,15,,,,,,,,,14,,,,36,0
286200,set_tempo,120,1,0,,,,,,254237,,,,,,,,
286200,note_on,60,0,11,,,,,,,,,10,,,,59,112
286203,note_on,60,0,12,,,,,,,,,11,,,,59,112
286208,note_on,60,0,13,,,,,,,,,12,,,,59,112
286212,note_on,60,0,14,,,,,,,,,13,,,,47,112
286214,note_on,60,0,15,,,,,,,,,14,,,,35,112
286230,note_on,30,0,11,,,,,,,,,10,,,,59,0
286233,note_on,30,0,12,,,,,,,,,11,,,,59,0
286238,note_on,30,0,13,,,,,,,,,12,,,,59,0
286242,note_on,30,0,14,,,,,,,,,13,,,,47,0
286244,note_on,30,0,15,,,,,,,,,14,,,,35,0
286260,note_on,30,0,11,,,,,,,,,10,,,,60,112
286263,note_on,30,0,12,,,,,,,,,11,,,,60,112
286268,note_on,30,0,13,,,,,,,,,12,,,,60,112
286272,note_on,30,0,14,,,,,,,,,13,,,,48,112
286274,note_on,30,0,15,,,,,,,,,14,,,,36,112
286290,note_on,30,0,11,,,,,,,,,10,,,,60,0
286293,note_on,30,0,12,,,,,,,,,11,,,,60,0
286298,note_on,30,0,13,,,,,,,,,12,,,,60,0
286302,note_on,30,0,14,,,,,,,,,13,,,,48,0
286304,note_on,30,0,15,,,,,,,,,14,,,,36,0
286320,set_tempo,120,1,0,,,,,,263158,,,,,,,,
286320,note_on,30,0,11,,,,,,,,,10,,,,57,112
286323,note_on,30,0,12,,,,,,,,,11,,,,57,112
286328,note_on,30,0,13,,,,,,,,,12,,,,57,112
286332,note_on,30,0,14,,,,,,,,,13,,,,45,112
286334,note_on,30,0,15,,,,,,,,,14,,,,33,112
286350,note_on,30,0,11,,,,,,,,,10,,,,57,0
286353,note_on,30,0,12,,,,,,,,,11,,,,57,0
286358,note_on,30,0,13,,,,,,,,,12,,,,57,0
286362,note_on,30,0,14,,,,,,,,,13,,,,45,0
286364,note_on,30,0,15,,,,,,,,,14,,,,33,0
286380,note_on,30,0,11,,,,,,,,,10,,,,59,112
286383,note_on,30,0,12,,,,,,,,,11,,,,59,112
286388,note_on,30,0,13,,,,,,,,,12,,,,59,112
286392,note_on,30,0,14,,,,,,,,,13,,,,47,112
286394,note_on,30,0,15,,,,,,,,,14,,,,35,112
286410,note_on,30,0,11,,,,,,,,,10,,,,59,0
286413,note_on,30,0,12,,,,,,,,,11,,,,59,0
286418,note_on,30,0,13,,,,,,,,,12,,,,59,0
286422,note_on,30,0,14,,,,,,,,,13,,,,47,0
286424,note_on,30,0,15,,,,,,,,,14,,,,35,0
286440,set_tempo,120,1,0,,,,,,288462,,,,,,,,
286440,note_on,30,0,11,,,,,,,,,10,,,,60,112
286443,note_on,30,0,12,,,,,,,,,11,,,,60,112
286448,note_on,30,0,13,,,,,,,,,12,,,,60,112
286452,note_on,30,0,14,,,,,,,,,13,,,,48,112
286454,note_on,30,0,15,,,,,,,,,14,,,,36,112
286470,note_on,30,0,11,,,,,,,,,10,,,,60,0
286473,note_on,30,0,12,,,,,,,,,11,,,,60,0
286478,note_on,30,0,13,,,,,,,,,12,,,,60,0
286482,note_on,30,0,14,,,,,,,,,13,,,,48,0
286484,note_on,30,0,15,,,,,,,,,14,,,,36,0
286500,note_on,30,0,11,,,,,,,,,10,,,,62,112
286503,note_on,30,0,12,,,,,,,,,11,,,,62,112
286508,note_on,30,0,13,,,,,,,,,12,,,,62,112
286512,note_on,30,0,14,,,,,,,,,13,,,,50,112
286514,note_on,30,0,15,,,,,,,,,14,,,,38,112
286530,note_on,30,0,11,,,,,,,,,10,,,,62,0
286533,note_on,30,0,12,,,,,,,,,11,,,,62,0
286538,note_on,30,0,13,,,,,,,,,12,,,,62,0
286542,note_on,30,0,14,,,,,,,,,13,,,,50,0
286544,note_on,30,0,15,,,,,,,,,14,,,,38,0
286560,note_on,30,0,11,,,,,,,,,10,,,,64,112
286560,set_tempo,120,1,0,,,,,,254237,,,,,,,,
286560,control_change,0,0,11,,,,,,,,,10,11,112,,,
286563,control_change,0,0,12,,,,,,,,,11,11,112,,,
286563,note_on,30,0,12,,,,,,,,,11,,,,64,112
286566,control_change,6,0,11,,,,,,,,,10,11,109,,,
286568,note_on,30,0,13,,,,,,,,,12,,,,64,112
286568,control_change,0,0,13,,,,,,,,,12,11,112,,,
286569,control_change,6,0,12,,,,,,,,,11,11,109,,,
286572,note_on,0,0,14,,,,,,,,,13,,,,52,112
286572,control_change,30,0,14,,,,,,,,,13,11,112,,,
286572,control_change,6,0,11,,,,,,,,,10,11,106,,,
286574,control_change,6,0,13,,,,,,,,,12,11,109,,,
286574,note_on,0,0,15,,,,,,,,,14,,,,40,112
286574,control_change,30,0,15,,,,,,,,,14,11,112,,,
286575,control_change,6,0,12,,,,,,,,,11,11,106,,,
286578,control_change,6,0,14,,,,,,,,,13,11,109,,,
286578,control_change,6,0,11,,,,,,,,,10,11,103,,,
286580,control_change,6,0,13,,,,,,,,,12,11,106,,,
286580,control_change,6,0,15,,,,,,,,,14,11,109,,,
286581,control_change,6,0,12,,,,,,,,,11,11,103,,,
286584,control_change,6,0,14,,,,,,,,,13,11,106,,,
286584,control_change,6,0,11,,,,,,,,,10,11,100,,,
286586,control_change,6,0,15,,,,,,,,,14,11,106,,,
286586,control_change,6,0,13,,,,,,,,,12,11,103,,,
286587,control_change,6,0,12,,,,,,,,,11,11,100,,,
286590,control_change,6,0,11,,,,,,,,,10,11,97,,,
286590,control_change,6,0,14,,,,,,,,,13,11,103,,,
286592,control_change,6,0,15,,,,,,,,,14,11,103,,,
286592,control_change,6,0,13,,,,,,,,,12,11,100,,,
286593,control_change,6,0,12,,,,,,,,,11,11,97,,,
286596,control_change,6,0,11,,,,,,,,,10,11,94,,,
286596,control_change,6,0,14,,,,,,,,,13,11,100,,,
286598,control_change,6,0,15,,,,,,,,,14,11,100,,,
286598,control_change,6,0,13,,,,,,,,,12,11,97,,,
286599,control_change,6,0,12,,,,,,,,,11,11,94,,,
286602,control_change,6,0,14,,,,,,,,,13,11,97,,,
286602,control_change,6,0,11,,,,,,,,,10,11,91,,,
286604,control_change,6,0,15,,,,,,,,,14,11,97,,,
286604,control_change,6,0,13,,,,,,,,,12,11,94,,,
286605,control_change,6,0,12,,,,,,,,,11,11,91,,,
286608,control_change,6,0,11,,,,,,,,,10,11,88,,,
286608,control_change,6,0,14,,,,,,,,,13,11,94,,,
286610,control_change,6,0,13,,,,,,,,,12,11,91,,,
286610,control_change,6,0,15,,,,,,,,,14,11,94,,,
286611,control_change,6,0,12,,,,,,,,,11,11,88,,,
286614,control_change,6,0,14,,,,,,,,,13,11,91,,,
286616,control_change,6,0,13,,,,,,,,,12,11,88,,,
286616,control_change,6,0,15,,,,,,,,,14,11,91,,,
286620,control_change,12,0,11,,,,,,,,,10,11,83,,,
286620,control_change,6,0,14,,,,,,,,,13,11,88,,,
286622,control_change,6,0,15,,,,,,,,,14,11,88,,,
286623,control_change,12,0,12,,,,,,,,,11,11,83,,,
286628,control_change,12,0,13,,,,,,,,,12,11,83,,,
286632,control_change,12,0,14,,,,,,,,,13,11,83,,,
286634,control_change,12,0,15,,,,,,,,,14,11,83,,,
286680,control_change,60,0,11,,,,,,,,,10,11,83,,,
286680,set_tempo,120,1,0,,,,,,263158,,,,,,,,
286683,control_change,60,0,12,,,,,,,,,11,11,83,,,
286688,control_change,60,0,13,,,,,,,,,12,11,83,,,
286692,control_change,60,0,14,,,,,,,,,13,11,83,,,
286694,control_change,60,0,15,,,,,,,,,14,11,83,,,
286701,control_change,21,0,11,,,,,,,,,10,11,81,,,
286704,control_change,21,0,12,,,,,,,,,11,11,81,,,
286709,control_change,21,0,13,,,,,,,,,12,11,81,,,
286713,control_change,21,0,14,,,,,,,,,13,11,81,,,
286715,control_change,21,0,15,,,,,,,,,14,11,81,,,
286722,control_change,21,0,11,,,,,,,,,10,11,79,,,
286725,control_change,21,0,12,,,,,,,,,11,11,79,,,
286730,control_change,21,0,13,,,,,,,,,12,11,79,,,
286734,control_change,21,0,14,,,,,,,,,13,11,79,,,
286736,control_change,21,0,15,,,,,,,,,14,11,79,,,
286743,control_change,21,0,11,,,,,,,,,10,11,77,,,
286746,control_change,21,0,12,,,,,,,,,11,11,77,,,
286751,control_change,21,0,13,,,,,,,,,12,11,77,,,
286755,control_change,21,0,14,,,,,,,,,13,11,77,,,
286757,control_change,21,0,15,,,,,,,,,14,11,77,,,
286764,control_change,21,0,11,,,,,,,,,10,11,75,,,
286767,control_change,21,0,12,,,,,,,,,11,11,75,,,
286772,control_change,21,0,13,,,,,,,,,12,11,75,,,
286776,control_change,21,0,14,,,,,,,,,13,11,75,,,
286778,control_change,21,0,15,,,,,,,,,14,11,75,,,
286785,control_change,21,0,11,,,,,,,,,10,11,73,,,
286788,control_change,21,0,12,,,,,,,,,11,11,73,,,
286793,control_change,21,0,13,,,,,,,,,12,11,73,,,
286797,control_change,21,0,14,,,,,,,,,13,11,73,,,
286799,control_change,21,0,15,,,,,,,,,14,11,73,,,
286800,set_tempo,120,1,0,,,,,,307692,,,,,,,,
286806,control_change,21,0,11,,,,,,,,,10,11,72,,,
286809,control_change,21,0,12,,,,,,,,,11,11,72,,,
286814,control_change,21,0,13,,,,,,,,,12,11,72,,,
286818,control_change,21,0,14,,,,,,,,,13,11,72,,,
286820,control_change,21,0,15,,,,,,,,,14,11,72,,,
286827,control_change,21,0,11,,,,,,,,,10,11,70,,,
286830,control_change,21,0,12,,,,,,,,,11,11,70,,,
286835,control_change,21,0,13,,,,,,,,,12,11,70,,,
286839,control_change,21,0,14,,,,,,,,,13,11,70,,,
286841,control_change,21,0,15,,,,,,,,,14,11,70,,,
286848,control_change,21,0,11,,,,,,,,,10,11,68,,,
286851,control_change,21,0,12,,,,,,,,,11,11,68,,,
286856,control_change,21,0,13,,,,,,,,,12,11,68,,,
286860,control_change,21,0,14,,,,,,,,,13,11,68,,,
286862,control_change,21,0,15,,,,,,,,,14,11,68,,,
286869,control_change,21,0,11,,,,,,,,,10,11,66,,,
286872,control_change,21,0,12,,,,,,,,,11,11,66,,,
286877,control_change,21,0,13,,,,,,,,,12,11,66,,,
286881,control_change,21,0,14,,,,,,,,,13,11,66,,,
286883,control_change,21,0,15,,,,,,,,,14,11,66,,,
286890,control_change,21,0,11,,,,,,,,,10,11,64,,,
286892,note_on,2,0,11,,,,,,,,,10,,,,64,0
286893,control_change,21,0,12,,,,,,,,,11,11,64,,,
286895,note_on,2,0,12,,,,,,,,,11,,,,64,0
286898,control_change,21,0,13,,,,,,,,,12,11,64,,,
286900,note_on,2,0,13,,,,,,,,,12,,,,64,0
286902,control_change,21,0,14,,,,,,,,,13,11,64,,,
286904,note_on,2,0,14,,,,,,,,,13,,,,52,0
286904,control_change,21,0,15,,,,,,,,,14,11,64,,,
286906,note_on,2,0,15,,,,,,,,,14,,,,40,0
286920,set_tempo,120,1,0,,,,,,254237,,,,,,,,
286923,note_on,1440,0,5,,,,,,,,,4,,,,62,115
286924,note_on,1440,0,6,,,,,,,,,5,,,,55,115
286924,note_on,0,0,2,,,,,,,,,1,,,,71,115
286924,note_on,1440,0,2,,,,,,,,,1,,,,79,100
286944,note_on,20,0,2,,,,,,,,,1,,,,79,0
286984,note_on,40,0,2,,,,,,,,,1,,,,79,100
287004,note_on,20,0,2,,,,,,,,,1,,,,79,0
287040,set_tempo,120,1,0,,,,,,263158,,,,,,,,
287044,note_on,40,0,2,,,,,,,,,1,,,,81,100
287104,note_on,60,0,2,,,,,,,,,1,,,,81,0
287104,note_on,0,0,2,,,,,,,,,1,,,,79,100
287160,set_tempo,120,1,0,,,,,,288462,,,,,,,,
287164,note_on,0,0,2,,,,,,,,,1,,,,81,100
287164,note_on,60,0,2,,,,,,,,,1,,,,79,0
287224,note_on,60,0,2,,,,,,,,,1,,,,81,0
287224,note_on,0,0,2,,,,,,,,,1,,,,79,100
287280,set_tempo,120,1,0,,,,,,254237,,,,,,,,
287283,note_on,0,0,5,,,,,,,,,4,,,,64,100
287283,note_on,360,0,5,,,,,,,,,4,,,,62,0
287284,note_on,60,0,2,,,,,,,,,1,,,,79,0
287284,note_on,360,0,6,,,,,,,,,5,,,,55,0
287284,note_on,0,0,6,,,,,,,,,5,,,,60,100
287284,note_on,0,0,2,,,,,,,,,1,,,,76,100
287284,note_on,0,0,2,,,,,,,,,1,,,,72,100
287284,note_on,0,0,2,,,,,,,,,1,,,,71,0
287295,note_on,2200,0,10,,,,,,,,,15,,,,48,35
287323,note_on,40,0,5,,,,,,,,,4,,,,64,0
287324,note_on,40,0,6,,,,,,,,,5,,,,60,0
287324,note_on,0,0,2,,,,,,,,,1,,,,72,0
287324,note_on,40,0,2,,,,,,,,,1,,,,76,0
287325,note_on,30,0,10,,,,,,,,,15,,,,48,0
287355,note_on,30,0,10,,,,,,,,,15,,,,48,35
287385,note_on,30,0,10,,,,,,,,,15,,,,48,0
287400,set_tempo,120,1,0,,,,,,263158,,,,,,,,
287403,note_on,80,0,5,,,,,,,,,4,,,,64,100
287404,note_on,80,0,2,,,,,,,,,1,,,,76,100
287404,note_on,80,0,6,,,,,,,,,5,,,,55,100
287404,note_on,0,0,2,,,,,,,,,1,,,,72,100
287415,note_on,30,0,10,,,,,,,,,15,,,,43,35
287443,note_on,40,0,5,,,,,,,,,4,,,,64,0
287444,note_on,40,0,6,,,,,,,,,5,,,,55,0
287444,note_on,40,0,2,,,,,,,,,1,,,,72,0
287444,note_on,0,0,2,,,,,,,,,1,,,,76,0
287445,note_on,30,0,10,,,,,,,,,15,,,,43,0
287475,note_on,30,0,10,,,,,,,,,15,,,,48,35
287505,note_on,30,0,10,,,,,,,,,15,,,,48,0
287520,set_tempo,120,1,0,,,,,,288462,,,,,,,,
287523,note_on,80,0,5,,,,,,,,,4,,,,64,100
287524,note_on,0,0,2,,,,,,,,,1,,,,72,100
287524,note_on,80,0,2,,,,,,,,,1,,,,76,100
287524,note_on,80,0,6,,,,,,,,,5,,,,52,100
287535,note_on,30,0,10,,,,,,,,,15,,,,43,35
287563,note_on,40,0,5,,,,,,,,,4,,,,64,0
287564,note_on,40,0,6,,,,,,,,,5,,,,52,0
287564,note_on,0,0,2,,,,,,,,,1,,,,76,0
287564,note_on,40,0,2,,,,,,,,,1,,,,72,0
287565,note_on,30,0,10,,,,,,,,,15,,,,43,0
287595,note_on,30,0,10,,,,,,,,,15,,,,48,35
287625,note_on,30,0,10,,,,,,,,,15,,,,48,0
287640,set_tempo,120,1,0,,,,,,254237,,,,,,,,
287641,note_on,2160,0,1,,,,,,,,,0,,,,91,116
287643,note_on,80,0,5,,,,,,,,,4,,,,62,115
287644,note_on,80,0,6,,,,,,,,,5,,,,55,115
287644,note_on,0,0,2,,,,,,,,,1,,,,74,100
287644,note_on,80,0,2,,,,,,,,,1,,,,71,100
287655,note_on,30,0,10,,,,,,,,,15,,,,43,35
287671,note_on,30,0,1,,,,,,,,,0,,,,91,0
287701,note_on,30,0,1,,,,,,,,,0,,,,91,101
287704,note_on,0,0,2,,,,,,,,,1,,,,71,0
287704,note_on,60,0,2,,,,,,,,,1,,,,74,0
287715,note_on,60,0,10,,,,,,,,,15,,,,43,0
287731,note_on,30,0,1,,,,,,,,,0,,,,91,0
287760,set_tempo,120,1,0,,,,,,263158,,,,,,,,
287761,note_on,30,0,1,,,,,,,,,0,,,,93,101
287764,note_on,0,0,2,,,,,,,,,1,,,,71,100
287764,note_on,60,0,2,,,,,,,,,1,,,,74,100
287775,note_on,60,0,10,,,,,,,,,15,,,,43,35
287821,note_on,60,0,1,,,,,,,,,0,,,,93,0
287821,note_on,0,0,1,,,,,,,,,0,,,,91,101
287824,note_on,0,0,2,,,,,,,,,1,,,,74,0
287824,note_on,60,0,2,,,,,,,,,1,,,,71,0
287835,note_on,60,0,10,,,,,,,,,15,,,,43,0
287880,set_tempo,120,1,0,,,,,,288462,,,,,,,,
287881,note_on,60,0,1,,,,,,,,,0,,,,91,0
287881,note_on,0,0,1,,,,,,,,,0,,,,93,101
287884,note_on,0,0,2,,,,,,,,,1,,,,74,100
287884,note_on,60,0,2,,,,,,,,,1,,,,71,100
287895,note_on,60,0,10,,,,,,,,,15,,,,43,35
287913,note_on,270,0,5,,,,,,,,,4,,,,62,0
287914,note_on,270,0,6,,,,,,,,,5,,,,55,0
287941,note_on,60,0,1,,,,,,,,,0,,,,93,0
287941,note_on,0,0,1,,,,,,,,,0,,,,91,101
287944,note_on,60,0,2,,,,,,,,,1,,,,74,0
287944,note_on,0,0,2,,,,,,,,,1,,,,71,0
287955,note_on,60,0,10,,,,,,,,,15,,,,43,0
288000,set_tempo,120,1,0,,,,,,258621,,,,,,,,
288001,note_on,60,0,1,,,,,,,,,0,,,,91,0
288001,note_on,0,0,1,,,,,,,,,0,,,,88,101
288003,note_on,90,0,5,,,,,,,,,4,,,,64,100
288004,note_on,90,0,6,,,,,,,,,5,,,,60,100
288004,note_on,0,0,2,,,,,,,,,1,,,,72,100
288004,note_on,60,0,2,,,,,,,,,1,,,,76,100
288015,note_on,60,0,10,,,,,,,,,15,,,,48,35
288061,note_on,60,0,1,,,,,,,,,0,,,,88,0
288063,note_on,60,0,5,,,,,,,,,4,,,,64,0
288064,note_on,60,0,6,,,,,,,,,5,,,,60,0
288121,note_on,60,0,1,,,,,,,,,0,,,,88,101
288123,note_on,60,0,5,,,,,,,,,4,,,,64,100
288124,note_on,60,0,6,,,,,,,,,5,,,,55,100
288135,note_on,120,0,10,,,,,,,,,15,,,,48,0
288181,note_on,60,0,1,,,,,,,,,0,,,,88,0
288183,note_on,60,0,5,,,,,,,,,4,,,,64,0
288184,note_on,60,0,6,,,,,,,,,5,,,,55,0
288240,set_tempo,240,1,0,,,,,,288462,,,,,,,,
288241,note_on,60,0,1,,,,,,,,,0,,,,88,101
288243,note_on,60,0,5,,,,,,,,,4,,,,64,100
288244,note_on,60,0,6,,,,,,,,,5,,,,52,100
288301,note_on,60,0,1,,,,,,,,,0,,,,88,0
288303,note_on,60,0,5,,,,,,,,,4,,,,64,0
288304,note_on,60,0,6,,,,,,,,,5,,,,52,0
288360,set_tempo,120,1,0,,,,,,254237,,,,,,,,
288361,note_on,60,0,1,,,,,,,,,0,,,,86,101
288363,note_on,60,0,5,,,,,,,,,4,,,,62,115
288364,note_on,60,0,6,,,,,,,,,5,,,,55,115
288364,note_on,0,0,2,,,,,,,,,1,,,,77,100
288364,note_on,360,0,2,,,,,,,,,1,,,,72,0
288364,note_on,0,0,2,,,,,,,,,1,,,,76,0
288364,note_on,0,0,2,,,,,,,,,1,,,,71,100
288365,note_on,0,0,3,,,,,,,,,2,,,,71,116
288365,note_on,2880,0,3,,,,,,,,,2,,,,79,101
288395,note_on,30,0,3,,,,,,,,,2,,,,79,0
288421,note_on,60,0,1,,,,,,,,,0,,,,86,0
288424,note_on,60,0,2,,,,,,,,,1,,,,77,0
288424,note_on,0,0,2,,,,,,,,,1,,,,71,0
288425,note_on,30,0,3,,,,,,,,,2,,,,79,101
288455,note_on,30,0,3,,,,,,,,,2,,,,79,0
288480,set_tempo,120,1,0,,,,,,263158,,,,,,,,
288481,note_on,60,0,1,,,,,,,,,0,,,,86,101
288484,note_on,60,0,2,,,,,,,,,1,,,,77,100
288484,note_on,0,0,2,,,,,,,,,1,,,,71,100
288485,note_on,30,0,3,,,,,,,,,2,,,,81,101
288541,note_on,60,0,1,,,,,,,,,0,,,,86,0
288544,note_on,60,0,2,,,,,,,,,1,,,,71,0
288544,note_on,0,0,2,,,,,,,,,1,,,,77,0
288545,note_on,60,0,3,,,,,,,,,2,,,,81,0
288545,note_on,0,0,3,,,,,,,,,2,,,,79,101
288600,set_tempo,120,1,0,,,,,,288462,,,,,,,,
288601,note_on,60,0,1,,,,,,,,,0,,,,86,101
288604,note_on,60,0,2,,,,,,,,,1,,,,71,100
288604,note_on,0,0,2,,,,,,,,,1,,,,77,100
288605,note_on,0,0,3,,,,,,,,,2,,,,81,101
288605,note_on,60,0,3,,,,,,,,,2,,,,79,0
288661,note_on,60,0,1,,,,,,,,,0,,,,86,0
288664,note_on,0,0,2,,,,,,,,,1,,,,71,0
288664,note_on,60,0,2,,,,,,,,,1,,,,77,0
288665,note_on,0,0,3,,,,,,,,,2,,,,79,101
288665,note_on,60,0,3,,,,,,,,,2,,,,81,0
288720,set_tempo,120,1,0,,,,,,254237,,,,,,,,
288721,note_on,60,0,1,,,,,,,,,0,,,,88,101
288723,note_on,0,0,5,,,,,,,,,4,,,,64,100
288723,note_on,360,0,5,,,,,,,,,4,,,,62,0
288724,note_on,60,0,2,,,,,,,,,1,,,,76,100
288724,note_on,0,0,2,,,,,,,,,1,,,,72,100
288724,note_on,360,0,6,,,,,,,,,5,,,,55,0
288724,note_on,0,0,6,,,,,,,,,5,,,,60,100
288725,note_on,0,0,3,,,,,,,,,2,,,,76,101
288725,note_on,60,0,3,,,,,,,,,2,,,,79,0
288725,note_on,0,0,3,,,,,,,,,2,,,,72,101
288725,note_on,0,0,3,,,,,,,,,2,,,,71,0
288735,note_on,600,0,10,,,,,,,,,15,,,,48,35
288765,note_on,30,0,10,,,,,,,,,15,,,,48,0
288783,note_on,60,0,5,,,,,,,,,4,,,,64,0
288784,note_on,60,0,6,,,,,,,,,5,,,,60,0
288785,note_on,60,0,3,,,,,,,,,2,,,,72,0
288785,note_on,0,0,3,,,,,,,,,2,,,,76,0
288795,note_on,30,0,10,,,,,,,,,15,,,,48,35
288825,note_on,30,0,10,,,,,,,,,15,,,,48,0
288840,set_tempo,120,1,0,,,,,,263158,,,,,,,,
288843,note_on,60,0,5,,,,,,,,,4,,,,64,100
288844,note_on,60,0,6,,,,,,,,,5,,,,55,100
288845,note_on,0,0,3,,,,,,,,,2,,,,72,101
288845,note_on,60,0,3,,,,,,,,,2,,,,76,101
288855,note_on,30,0,10,,,,,,,,,15,,,,43,35
288885,note_on,30,0,10,,,,,,,,,15,,,,43,0
288903,note_on,60,0,5,,,,,,,,,4,,,,64,0
288904,note_on,60,0,6,,,,,,,,,5,,,,55,0
288905,note_on,0,0,3,,,,,,,,,2,,,,76,0
288905,note_on,60,0,3,,,,,,,,,2,,,,72,0
288915,note_on,30,0,10,,,,,,,,,15,,,,48,35
288945,note_on,30,0,10,,,,,,,,,15,,,,48,0
288960,set_tempo,120,1,0,,,,,,288462,,,,,,,,
288963,note_on,60,0,5,,,,,,,,,4,,,,64,100
288964,note_on,60,0,6,,,,,,,,,5,,,,60,100
288965,note_on,0,0,3,,,,,,,,,2,,,,76,101
288965,note_on,60,0,3,,,,,,,,,2,,,,72,101
288975,note_on,30,0,10,,,,,,,,,15,,,,43,35
289005,note_on,30,0,10,,,,,,,,,15,,,,43,0
289023,note_on,60,0,5,,,,,,,,,4,,,,64,0
289024,note_on,60,0,6,,,,,,,,,5,,,,60,0
289025,note_on,0,0,3,,,,,,,,,2,,,,72,0
289025,note_on,60,0,3,,,,,,,,,2,,,,76,0
289035,note_on,30,0,10,,,,,,,,,15,,,,48,35
289065,note_on,30,0,10,,,,,,,,,15,,,,48,0
289080,set_tempo,120,1,0,,,,,,254237,,,,,,,,
289081,note_on,360,0,1,,,,,,,,,0,,,,88,0
289081,note_on,0,0,1,,,,,,,,,0,,,,91,69
289081,note_on,0,0,1,,,,,,,,,0,,,,86,69
289083,note_on,60,0,5,,,,,,,,,4,,,,67,100
289084,note_on,0,0,2,,,,,,,,,1,,,,77,80
289084,note_on,360,0,2,,,,,,,,,1,,,,72,0
289084,note_on,0,0,2,,,,,,,,,1,,,,76,0
289084,note_on,0,0,2,,,,,,,,,1,,,,83,68
289084,note_on,60,0,6,,,,,,,,,5,,,,65,100
289085,note_on,0,0,3,,,,,,,,,2,,,,74,81
289085,note_on,60,0,3,,,,,,,,,2,,,,71,81
289089,note_on,3600,0,4,,,,,,,,,3,,,,55,127
289089,control_change,0,0,4,,,,,,,,,3,11,57,,,
289095,note_on,30,0,10,,,,,,,,,15,,,,43,35
289119,note_on,30,0,4,,,,,,,,,3,,,,55,0
289141,note_on,0,0,1,,,,,,,,,0,,,,91,0
289141,note_on,60,0,1,,,,,,,,,0,,,,86,0
289143,note_on,60,0,5,,,,,,,,,4,,,,67,0
289144,note_on,60,0,6,,,,,,,,,5,,,,65,0
289144,note_on,0,0,2,,,,,,,,,1,,,,83,0
289144,note_on,60,0,2,,,,,,,,,1,,,,77,0
289145,note_on,60,0,3,,,,,,,,,2,,,,74,0
289145,note_on,0,0,3,,,,,,,,,2,,,,71,0
289149,note_on,30,0,4,,,,,,,,,3,,,,55,120
289155,note_on,60,0,10,,,,,,,,,15,,,,43,0
289179,note_on,30,0,4,,,,,,,,,3,,,,55,0
289200,set_tempo,120,1,0,,,,,,263158,,,,,,,,
289201,note_on,60,0,1,,,,,,,,,0,,,,86,69
289201,note_on,0,0,1,,,,,,,,,0,,,,91,69
289203,note_on,60,0,5,,,,,,,,,4,,,,67,100
289204,note_on,60,0,6,,,,,,,,,5,,,,65,100
289204,note_on,60,0,2,,,,,,,,,1,,,,77,80
289204,note_on,0,0,2,,,,,,,,,1,,,,83,68
289205,note_on,0,0,3,,,,,,,,,2,,,,74,81
289205,note_on,60,0,3,,,,,,,,,2,,,,71,81
289209,note_on,30,0,4,,,,,,,,,3,,,,57,120
289215,note_on,60,0,10,,,,,,,,,15,,,,43,35
289261,note_on,0,0,1,,,,,,,,,0,,,,86,0
289261,note_on,60,0,1,,,,,,,,,0,,,,91,0
289263,note_on,60,0,5,,,,,,,,,4,,,,67,0
289264,note_on,60,0,2,,,,,,,,,1,,,,83,0
289264,note_on,0,0,2,,,,,,,,,1,,,,77,0
289264,note_on,60,0,6,,,,,,,,,5,,,,65,0
289265,note_on,0,0,3,,,,,,,,,2,,,,71,0
289265,note_on,60,0,3,,,,,,,,,2,,,,74,0
289269,note_on,60,0,4,,,,,,,,,3,,,,57,0
289269,note_on,0,0,4,,,,,,,,,3,,,,55,120
289275,note_on,60,0,10,,,,,,,,,15,,,,43,0
289320,set_tempo,120,1,0,,,,,,288462,,,,,,,,
289321,note_on,0,0,1,,,,,,,,,0,,,,91,69
289321,note_on,60,0,1,,,,,,,,,0,,,,86,69
289323,note_on,60,0,5,,,,,,,,,4,,,,67,100
289324,note_on,60,0,6,,,,,,,,,5,,,,65,100
289324,note_on,0,0,2,,,,,,,,,1,,,,77,80
289324,note_on,60,0,2,,,,,,,,,1,,,,83,68
289325,note_on,60,0,3,,,,,,,,,2,,,,71,81
289325,note_on,0,0,3,,,,,,,,,2,,,,74,81
289329,note_on,60,0,4,,,,,,,,,3,,,,55,0
289329,note_on,0,0,4,,,,,,,,,3,,,,57,120
289335,note_on,60,0,10,,,,,,,,,15,,,,43,35
289381,note_on,60,0,1,,,,,,,,,0,,,,91,0
289381,note_on,0,0,1,,,,,,,,,0,,,,86,0
289383,note_on,60,0,5,,,,,,,,,4,,,,67,0
289384,note_on,0,0,2,,,,,,,,,1,,,,83,0
289384,note_on,60,0,6,,,,,,,,,5,,,,65,0
289384,note_on,60,0,2,,,,,,,,,1,,,,77,0
289385,note_on,0,0,3,,,,,,,,,2,,,,71,0
289385,note_on,60,0,3,,,,,,,,,2,,,,74,0
289389,note_on,0,0,4,,,,,,,,,3,,,,55,120
289389,note_on,60,0,4,,,,,,,,,3,,,,57,0
289395,note_on,60,0,10,,,,,,,,,15,,,,43,0
289440,set_tempo,120,1,0,,,,,,254237,,,,,,,,
289441,note_on,60,0,1,,,,,,,,,0,,,,88,81
289441,note_on,0,0,1,,,,,,,,,0,,,,84,81
289443,note_on,60,0,5,,,,,,,,,4,,,,67,100
289444,note_on,60,0,6,,,,,,,,,5,,,,64,100
289444,note_on,0,0,2,,,,,,,,,1,,,,76,80
289444,note_on,60,0,2,,,,,,,,,1,,,,84,80
289445,note_on,60,0,3,,,,,,,,,2,,,,72,81
289445,note_on,0,0,3,,,,,,,,,2,,,,76,81
289449,note_on,60,0,4,,,,,,,,,3,,,,55,0
289449,note_on,0,0,4,,,,,,,,,3,,,,60,100
289455,note_on,60,0,10,,,,,,,,,15,,,,48,35
289509,note_on,60,0,4,,,,,,,,,3,,,,60,0
289560,set_tempo,120,1,0,,,,,,263158,,,,,,,,
289569,note_on,60,0,4,,,,,,,,,3,,,,60,100
289575,note_on,120,0,10,,,,,,,,,15,,,,48,0
289629,note_on,60,0,4,,,,,,,,,3,,,,60,0
289680,set_tempo,120,1,0,,,,,,352941,,,,,,,,
289689,note_on,60,0,4,,,,,,,,,3,,,,60,100
289749,note_on,60,0,4,,,,,,,,,3,,,,60,0
289758,note_on,317,0,1,,,,,,,,,0,,,,84,0
289758,note_on,0,0,1,,,,,,,,,0,,,,88,0
289760,note_on,317,0,5,,,,,,,,,4,,,,67,0
289761,note_on,317,0,6,,,,,,,,,5,,,,64,0
289761,note_on,0,0,2,,,,,,,,,1,,,,84,0
289761,note_on,317,0,2,,,,,,,,,1,,,,76,0
289762,note_on,0,0,3,,,,,,,,,2,,,,72,0
289762,note_on,317,0,3,,,,,,,,,2,,,,76,0
289800,set_tempo,120,1,0,,,,,,254237,,,,,,,,
289800,control_change,0,0,11,,,,,,,,,10,11,83,,,
289800,note_on,2908,0,11,,,,,,,,,10,,,,55,112
289803,control_change,0,0,12,,,,,,,,,11,11,83,,,
289803,note_on,2908,0,12,,,,,,,,,11,,,,55,112
289808,note_on,2908,0,13,,,,,,,,,12,,,,55,112
289808,control_change,0,0,13,,,,,,,,,12,11,83,,,
289812,note_on,0,0,14,,,,,,,,,13,,,,43,112
289812,control_change,2908,0,14,,,,,,,,,13,11,83,,,
289814,control_change,2908,0,15,,,,,,,,,14,11,83,,,
289814,note_on,0,0,15,,,,,,,,,14,,,,31,112
289830,note_on,30,0,11,,,,,,,,,10,,,,55,0
289833,note_on,30,0,12,,,,,,,,,11,,,,55,0
289838,note_on,30,0,13,,,,,,,,,12,,,,55,0
289842,note_on,30,0,14,,,,,,,,,13,,,,43,0
289844,note_on,30,0,15,,,,,,,,,14,,,,31,0
289860,note_on,30,0,11,,,,,,,,,10,,,,55,112
289863,note_on,30,0,12,,,,,,,,,11,,,,55,112
289868,note_on,30,0,13,,,,,,,,,12,,,,55,112
289872,note_on,30,0,14,,,,,,,,,13,,,,43,112
289874,note_on,30,0,15,,,,,,,,,14,,,,31,112
289890,note_on,30,0,11,,,,,,,,,10,,,,55,0
289893,note_on,30,0,12,,,,,,,,,11,,,,55,0
289898,note_on,30,0,13,,,,,,,,,12,,,,55,0
289902,note_on,30,0,14,,,,,,,,,13,,,,43,0
289904,note_on,30,0,15,,,,,,,,,14,,,,31,0
289920,note_on,30,0,11,,,,,,,,,10,,,,57,112
289920,set_tempo,120,1,0,,,,,,263158,,,,,,,,
289923,note_on,30,0,12,,,,,,,,,11,,,,57,112
289928,note_on,30,0,13,,,,,,,,,12,,,,57,112
289932,note_on,30,0,14,,,,,,,,,13,,,,45,112
289934,note_on,30,0,15,,,,,,,,,14,,,,33,112
289950,note_on,30,0,11,,,,,,,,,10,,,,57,0
289953,note_on,30,0,12,,,,,,,,,11,,,,57,0
289958,note_on,30,0,13,,,,,,,,,12,,,,57,0
289962,note_on,30,0,14,,,,,,,,,13,,,,45,0
289964,note_on,30,0,15,,,,,,,,,14,,,,33,0
289980,note_on,30,0,11,,,,,,,,,10,,,,55,112
289983,note_on,30,0,12,,,,,,,,,11,,,,55,112
289988,note_on,30,0,13,,,,,,,,,12,,,,55,112
289992,note_on,30,0,14,,,,,,,,,13,,,,43,112
289994,note_on,30,0,15,,,,,,,,,14,,,,31,112
290010,note_on,30,0,11,,,,,,,,,10,,,,55,0
290013,note_on,30,0,12,,,,,,,,,11,,,,55,0
290018,note_on,30,0,13,,,,,,,,,12,,,,55,0
290022,note_on,30,0,14,,,,,,,,,13,,,,43,0
290024,note_on,30,0,15,,,,,,,,,14,,,,31,0
290040,note_on,30,0,11,,,,,,,,,10,,,,57,112
290040,set_tempo,120,1,0,,,,,,288462,,,,,,,,
290043,note_on,30,0,12,,,,,,,,,11,,,,57,112
290048,note_on,30,0,13,,,,,,,,,12,,,,57,112
290052,note_on,30,0,14,,,,,,,,,13,,,,45,112
290054,note_on,30,0,15,,,,,,,,,14,,,,33,112
290070,note_on,30,0,11,,,,,,,,,10,,,,57,0
290073,note_on,30,0,12,,,,,,,,,11,,,,57,0
290078,note_on,30,0,13,,,,,,,,,12,,,,57,0
290082,note_on,30,0,14,,,,,,,,,13,,,,45,0
290084,note_on,30,0,15,,,,,,,,,14,,,,33,0
290100,note_on,30,0,11,,,,,,,,,10,,,,55,112
290103,note_on,30,0,12,,,,,,,,,11,,,,55,112
290108,note_on,30,0,13,,,,,,,,,12,,,,55,112
290112,note_on,30,0,14,,,,,,,,,13,,,,43,112
290114,note_on,30,0,15,,,,,,,,,14,,,,31,112
290130,note_on,30,0,11,,,,,,,,,10,,,,55,0
290133,note_on,30,0,12,,,,,,,,,11,,,,55,0
290138,note_on,30,0,13,,,,,,,,,12,,,,55,0
290142,note_on,30,0,14,,,,,,,,,13,,,,43,0
290144,note_on,30,0,15,,,,,,,,,14,,,,31,0
290160,set_tempo,120,1,0,,,,,,258621,,,,,,,,
290160,note_on,30,0,11,,,,,,,,,10,,,,60,112
290163,note_on,30,0,12,,,,,,,,,11,,,,60,112
290168,note_on,30,0,13,,,,,,,,,12,,,,60,112
290172,note_on,30,0,14,,,,,,,,,13,,,,48,112
290174,note_on,30,0,15,,,,,,,,,14,,,,36,112
290220,note_on,60,0,11,,,,,,,,,10,,,,60,0
290223,note_on,60,0,12,,,,,,,,,11,,,,60,0
290228,note_on,60,0,13,,,,,,,,,12,,,,60,0
290232,note_on,60,0,14,,,,,,,,,13,,,,48,0
290234,note_on,60,0,15,,,,,,,,,14,,,,36,0
290280,note_on,60,0,11,,,,,,,,,10,,,,60,112
290283,note_on,60,0,12,,,,,,,,,11,,,,60,112
290288,note_on,60,0,13,,,,,,,,,12,,,,60,112
290292,note_on,60,0,14,,,,,,,,,13,,,,48,112
290294,note_on,60,0,15,,,,,,,,,14,,,,36,112
290340,note_on,60,0,11,,,,,,,,,10,,,,60,0
290343,note_on,60,0,12,,,,,,,,,11,,,,60,0
290348,note_on,60,0,13,,,,,,,,,12,,,,60,0
290352,note_on,60,0,14,,,,,,,,,13,,,,48,0
290354,note_on,60,0,15,,,,,,,,,14,,,,36,0
290400,set_tempo,240,1,0,,,,,,288462,,,,,,,,
290400,note_on,60,0,11,,,,,,,,,10,,,,60,112
290403,note_on,60,0,12,,,,,,,,,11,,,,60,112
290408,note_on,60,0,13,,,,,,,,,12,,,,60,112
290412,note_on,60,0,14,,,,,,,,,13,,,,48,112
290414,note_on,60,0,15,,,,,,,,,14,,,,36,112
290460,note_on,60,0,11,,,,,,,,,10,,,,60,0
290463,note_on,60,0,12,,,,,,,,,11,,,,60,0
290468,note_on,60,0,13,,,,,,,,,12,,,,60,0
290472,note_on,60,0,14,,,,,,,,,13,,,,48,0
290474,note_on,60,0,15,,,,,,,,,14,,,,36,0
290520,note_on,60,0,11,,,,,,,,,10,,,,62,112
290520,set_tempo,120,1,0,,,,,,254237,,,,,,,,
290523,note_on,60,0,12,,,,,,,,,11,,,,62,112
290528,note_on,60,0,13,,,,,,,,,12,,,,62,112
290532,note_on,60,0,14,,,,,,,,,13,,,,50,112
290534,note_on,60,0,15,,,,,,,,,14,,,,38,112
290550,note_on,30,0,11,,,,,,,,,10,,,,62,0
290553,note_on,30,0,12,,,,,,,,,11,,,,62,0
290558,note_on,30,0,13,,,,,,,,,12,,,,62,0
290562,note_on,30,0,14,,,,,,,,,13,,,,50,0
290564,note_on,30,0,15,,,,,,,,,14,,,,38,0
290580,note_on,30,0,11,,,,,,,,,10,,,,64,112
290583,note_on,30,0,12,,,,,,,,,11,,,,64,112
290588,note_on,30,0,13,,,,,,,,,12,,,,64,112
290592,note_on,30,0,14,,,,,,,,,13,,,,52,112
290594,note_on,30,0,15,,,,,,,,,14,,,,40,112
290610,note_on,30,0,11,,,,,,,,,10,,,,64,0
290613,note_on,30,0,12,,,,,,,,,11,,,,64,0
290618,note_on,30,0,13,,,,,,,,,12,,,,64,0
290622,note_on,30,0,14,,,,,,,,,13,,,,52,0
290624,note_on,30,0,15,,,,,,,,,14,,,,40,0
290640,note_on,30,0,11,,,,,,,,,10,,,,65,112
290640,set_tempo,120,1,0,,,,,,263158,,,,,,,,
290643,note_on,30,0,12,,,,,,,,,11,,,,65,112
290648,note_on,30,0,13,,,,,,,,,12,,,,65,112
290652,note_on,30,0,14,,,,,,,,,13,,,,53,112
290654,note_on,30,0,15,,,,,,,,,14,,,,41,112
290670,note_on,30,0,11,,,,,,,,,10,,,,65,0
290673,note_on,30,0,12,,,,,,,,,11,,,,65,0
290678,note_on,30,0,13,,,,,,,,,12,,,,65,0
290682,note_on,30,0,14,,,,,,,,,13,,,,53,0
290684,note_on,30,0,15,,,,,,,,,14,,,,41,0
290700,note_on,30,0,11,,,,,,,,,10,,,,67,112
290703,note_on,30,0,12,,,,,,,,,11,,,,67,112
290708,note_on,30,0,13,,,,,,,,,12,,,,67,112
290712,note_on,30,0,14,,,,,,,,,13,,,,55,112
290714,note_on,30,0,15,,,,,,,,,14,,,,43,112
290730,note_on,30,0,11,,,,,,,,,10,,,,67,0
290733,note_on,30,0,12,,,,,,,,,11,,,,67,0
290738,note_on,30,0,13,,,,,,,,,12,,,,67,0
290742,note_on,30,0,14,,,,,,,,,13,,,,55,0
290744,note_on,30,0,15,,,,,,,,,14,,,,43,0
290760,set_tempo,120,1,0,,,,,,315789,,,,,,,,
290760,note_on,30,0,11,,,,,,,,,10,,,,69,112
290763,note_on,30,0,12,,,,,,,,,11,,,,69,112
290768,note_on,30,0,13,,,,,,,,,12,,,,69,112
290772,note_on,30,0,14,,,,,,,,,13,,,,57,112
290774,note_on,30,0,15,,,,,,,,,14,,,,45,112
290820,note_on,60,0,11,,,,,,,,,10,,,,69,0
290823,note_on,60,0,12,,,,,,,,,11,,,,69,0
290828,note_on,60,0,13,,,,,,,,,12,,,,69,0
290832,note_on,60,0,14,,,,,,,,,13,,,,57,0
290834,note_on,60,0,15,,,,,,,,,14,,,,45,0
290880,control_change,60,0,11,,,,,,,,,10,11,112,,,
290880,note_on,0,0,11,,,,,,,,,10,,,,64,112
290880,set_tempo,120,1,0,,,,,,254237,,,,,,,,
290883,note_on,0,0,12,,,,,,,,,11,,,,64,112
290883,control_change,60,0,12,,,,,,,,,11,11,112,,,
290886,control_change,6,0,11,,,,,,,,,10,11,109,,,
290888,note_on,0,0,13,,,,,,,,,12,,,,64,112
290888,control_change,60,0,13,,,,,,,,,12,11,112,,,
290889,control_change,6,0,12,,,,,,,,,11,11,109,,,
290892,control_change,60,0,14,,,,,,,,,13,11,112,,,
290892,note_on,0,0,14,,,,,,,,,13,,,,52,112
290892,control_change,6,0,11,,,,,,,,,10,11,106,,,
290894,control_change,60,0,15,,,,,,,,,14,11,112,,,
290894,control_change,6,0,13,,,,,,,,,12,11,109,,,
290894,note_on,0,0,15,,,,,,,,,14,,,,40,112
290895,control_change,6,0,12,,,,,,,,,11,11,106,,,
290898,control_change,6,0,11,,,,,,,,,10,11,103,,,
290898,control_change,6,0,14,,,,,,,,,13,11,109,,,
290900,control_change,6,0,13,,,,,,,,,12,11,106,,,
290900,control_change,6,0,15,,,,,,,,,14,11,109,,,
290901,control_change,6,0,12,,,,,,,,,11,11,103,,,
290904,control_change,6,0,11,,,,,,,,,10,11,100,,,
290904,control_change,6,0,14,,,,,,,,,13,11,106,,,
290906,control_change,6,0,13,,,,,,,,,12,11,103,,,
290906,control_change,6,0,15,,,,,,,,,14,11,106,,,
290907,control_change,6,0,12,,,,,,,,,11,11,100,,,
290910,control_change,6,0,11,,,,,,,,,10,11,97,,,
290910,control_change,6,0,14,,,,,,,,,13,11,103,,,
290912,control_change,6,0,13,,,,,,,,,12,11,100,,,
290912,control_change,6,0,15,,,,,,,,,14,11,103,,,
290913,control_change,6,0,12,,,,,,,,,11,11,97,,,
290916,control_change,6,0,11,,,,,,,,,10,11,94,,,
290916,control_change,6,0,14,,,,,,,,,13,11,100,,,
290918,control_change,6,0,13,,,,,,,,,12,11,97,,,
290918,control_change,6,0,15,,,,,,,,,14,11,100,,,
290919,control_change,6,0,12,,,,,,,,,11,11,94,,,
290922,control_change,6,0,11,,,,,,,,,10,11,91,,,
290922,control_change,6,0,14,,,,,,,,,13,11,97,,,
290924,control_change,6,0,15,,,,,,,,,14,11,97,,,
290924,control_change,6,0,13,,,,,,,,,12,11,94,,,
290925,control_change,6,0,12,,,,,,,,,11,11,91,,,
290928,control_change,6,0,11,,,,,,,,,10,11,88,,,
290928,control_change,6,0,14,,,,,,,,,13,11,94,,,
290930,control_change,6,0,15,,,,,,,,,14,11,94,,,
290930,control_change,6,0,13,,,,,,,,,12,11,91,,,
290931,control_change,6,0,12,,,,,,,,,11,11,88,,,
290934,control_change,6,0,14,,,,,,,,,13,11,91,,,
290936,control_change,6,0,13,,,,,,,,,12,11,88,,,
290936,control_change,6,0,15,,,,,,,,,14,11,91,,,
290940,control_change,6,0,14,,,,,,,,,13,11,88,,,
290940,control_change,12,0,11,,,,,,,,,10,11,83,,,
290942,control_change,6,0,15,,,,,,,,,14,11,88,,,
290943,control_change,12,0,12,,,,,,,,,11,11,83,,,
290948,control_change,12,0,13,,,,,,,,,12,11,83,,,
290952,control_change,12,0,14,,,,,,,,,13,11,83,,,
290954,control_change,12,0,15,,,,,,,,,14,11,83,,,
291000,set_tempo,120,1,0,,,,,,263158,,,,,,,,
291000,control_change,60,0,11,,,,,,,,,10,11,83,,,
291003,control_change,60,0,12,,,,,,,,,11,11,83,,,
291008,control_change,60,0,13,,,,,,,,,12,11,83,,,
291012,control_change,60,0,14,,,,,,,,,13,11,83,,,
291014,control_change,60,0,15,,,,,,,,,14,11,83,,,
291023,control_change,23,0,11,,,,,,,,,10,11,81,,,
291026,control_change,23,0,12,,,,,,,,,11,11,81,,,
291031,control_change,23,0,13,,,,,,,,,12,11,81,,,
291035,control_change,23,0,14,,,,,,,,,13,11,81,,,
291037,control_change,23,0,15,,,,,,,,,14,11,81,,,
291046,control_change,23,0,11,,,,,,,,,10,11,79,,,
291049,control_change,23,0,12,,,,,,,,,11,11,79,,,
291054,control_change,23,0,13,,,,,,,,,12,11,79,,,
291058,control_change,23,0,14,,,,,,,,,13,11,79,,,
291060,control_change,23,0,15,,,,,,,,,14,11,79,,,
291070,control_change,24,0,11,,,,,,,,,10,11,77,,,
291073,control_change,24,0,12,,,,,,,,,11,11,77,,,
291078,control_change,24,0,13,,,,,,,,,12,11,77,,,
291082,control_change,24,0,14,,,,,,,,,13,11,77,,,
291084,control_change,24,0,15,,,,,,,,,14,11,77,,,
291093,control_change,23,0,11,,,,,,,,,10,11,75,,,
291096,control_change,23,0,12,,,,,,,,,11,11,75,,,
291101,control_change,23,0,13,,,,,,,,,12,11,75,,,
291105,control_change,23,0,14,,,,,,,,,13,11,75,,,
291107,control_change,23,0,15,,,,,,,,,14,11,75,,,
291116,control_change,23,0,11,,,,,,,,,10,11,73,,,
291119,control_change,23,0,12,,,,,,,,,11,11,73,,,
291120,set_tempo,120,1,0,,,,,,306122,,,,,,,,
291124,control_change,23,0,13,,,,,,,,,12,11,73,,,
291128,control_change,23,0,14,,,,,,,,,13,11,73,,,
291130,control_change,23,0,15,,,,,,,,,14,11,73,,,
291140,control_change,24,0,11,,,,,,,,,10,11,71,,,
291143,control_change,24,0,12,,,,,,,,,11,11,71,,,
291148,control_change,24,0,13,,,,,,,,,12,11,71,,,
291152,control_change,24,0,14,,,,,,,,,13,11,71,,,
291154,control_change,24,0,15,,,,,,,,,14,11,71,,,
291163,control_change,23,0,11,,,,,,,,,10,11,69,,,
291166,control_change,23,0,12,,,,,,,,,11,11,69,,,
291171,control_change,23,0,13,,,,,,,,,12,11,69,,,
291175,control_change,23,0,14,,,,,,,,,13,11,69,,,
291177,control_change,23,0,15,,,,,,,,,14,11,69,,,
291186,control_change,23,0,11,,,,,,,,,10,11,67,,,
291189,control_change,23,0,12,,,,,,,,,11,11,67,,,
291194,control_change,23,0,13,,,,,,,,,12,11,67,,,
291198,control_change,23,0,14,,,,,,,,,13,11,67,,,
291200,control_change,23,0,15,,,,,,,,,14,11,67,,,
291210,control_change,24,0,11,,,,,,,,,10,11,65,,,
291212,note_on,2,0,11,,,,,,,,,10,,,,64,0
291213,control_change,24,0,12,,,,,,,,,11,11,65,,,
291215,note_on,2,0,12,,,,,,,,,11,,,,64,0
291218,control_change,24,0,13,,,,,,,,,12,11,65,,,
291220,note_on,2,0,13,,,,,,,,,12,,,,64,0
291222,control_change,24,0,14,,,,,,,,,13,11,65,,,
291224,control_change,24,0,15,,,,,,,,,14,11,65,,,
291224,note_on,2,0,14,,,,,,,,,13,,,,52,0
291226,note_on,2,0,15,,,,,,,,,14,,,,40,0
291240,set_tempo,120,1,0,,,,,,254237,,,,,,,,
291244,note_on,1483,0,2,,,,,,,,,1,,,,69,115
291244,note_on,0,0,2,,,,,,,,,1,,,,77,100
291249,note_on,1500,0,4,,,,,,,,,3,,,,53,115
291249,note_on,0,0,4,,,,,,,,,3,,,,60,115
291274,note_on,30,0,2,,,,,,,,,1,,,,77,0
291304,note_on,30,0,2,,,,,,,,,1,,,,77,100
291334,note_on,30,0,2,,,,,,,,,1,,,,77,0
291360,set_tempo,120,1,0,,,,,,263158,,,,,,,,
291364,note_on,30,0,2,,,,,,,,,1,,,,79,100
291424,note_on,0,0,2,,,,,,,,,1,,,,77,100
291424,note_on,60,0,2,,,,,,,,,1,,,,79,0
291480,set_tempo,120,1,0,,,,,,288462,,,,,,,,
291484,note_on,0,0,2,,,,,,,,,1,,,,79,100
291484,note_on,60,0,2,,,,,,,,,1,,,,77,0
291544,note_on,60,0,2,,,,,,,,,1,,,,79,0
291544,note_on,0,0,2,,,,,,,,,1,,,,77,100
291600,set_tempo,120,1,0,,,,,,258621,,,,,,,,
291604,note_on,0,0,2,,,,,,,,,1,,,,69,0
291604,note_on,0,0,2,,,,,,,,,1,,,,70,100
291604,note_on,60,0,2,,,,,,,,,1,,,,77,0
291604,note_on,0,0,2,,,,,,,,,1,,,,77,100
291609,note_on,0,0,4,,,,,,,,,3,,,,62,100
291609,note_on,360,0,4,,,,,,,,,3,,,,60,0
291609,note_on,0,0,4,,,,,,,,,3,,,,53,0
291609,note_on,0,0,4,,,,,,,,,3,,,,58,100
291612,control_change,388,0,14,,,,,,,,,13,11,50,,,
291612,note_on,0,0,14,,,,,,,,,13,,,,46,112
291642,note_on,30,0,14,,,,,,,,,13,,,,46,0
291664,note_on,60,0,2,,,,,,,,,1,,,,70,0
291664,note_on,0,0,2,,,,,,,,,1,,,,77,0
291669,note_on,0,0,4,,,,,,,,,3,,,,58,0
291669,note_on,60,0,4,,,,,,,,,3,,,,62,0
291672,note_on,30,0,14,,,,,,,,,13,,,,46,112
291702,note_on,30,0,14,,,,,,,,,13,,,,46,0
291724,note_on,60,0,2,,,,,,,,,1,,,,70,100
291724,note_on,0,0,2,,,,,,,,,1,,,,77,100
291729,note_on,0,0,4,,,,,,,,,3,,,,53,100
291729,note_on,60,0,4,,,,,,,,,3,,,,62,100
291732,note_on,30,0,14,,,,,,,,,13,,,,41,112
291762,note_on,30,0,14,,,,,,,,,13,,,,41,0
291784,note_on,0,0,2,,,,,,,,,1,,,,70,0
291784,note_on,60,0,2,,,,,,,,,1,,,,77,0
291789,note_on,0,0,4,,,,,,,,,3,,,,62,0
291789,note_on,60,0,4,,,,,,,,,3,,,,53,0
291792,note_on,30,0,14,,,,,,,,,13,,,,46,112
291822,note_on,30,0,14,,,,,,,,,13,,,,46,0
291840,set_tempo,240,1,0,,,,,,288462,,,,,,,,
291844,note_on,0,0,2,,,,,,,,,1,,,,70,100
291844,note_on,60,0,2,,,,,,,,,1,,,,77,100
291849,note_on,0,0,4,,,,,,,,,3,,,,62,100
291849,note_on,60,0,4,,,,,,,,,3,,,,50,100
291852,note_on,30,0,14,,,,,,,,,13,,,,41,112
291882,note_on,30,0,14,,,,,,,,,13,,,,41,0
291904,note_on,60,0,2,,,,,,,,,1,,,,70,0
291904,note_on,0,0,2,,,,,,,,,1,,,,77,0
291909,note_on,60,0,4,,,,,,,,,3,,,,62,0
291909,note_on,0,0,4,,,,,,,,,3,,,,50,0
291912,note_on,30,0,14,,,,,,,,,13,,,,46,112
291942,note_on,30,0,14,,,,,,,,,13,,,,46,0
291960,set_tempo,120,1,0,,,,,,254237,,,,,,,,
291961,note_on,2203,0,1,,,,,,,,,0,,,,89,101
291964,note_on,60,0,2,,,,,,,,,1,,,,77,100
291964,note_on,0,0,2,,,,,,,,,1,,,,69,100
291969,note_on,0,0,4,,,,,,,,,3,,,,60,115
291969,note_on,60,0,4,,,,,,,,,3,,,,53,115
291972,note_on,30,0,14,,,,,,,,,13,,,,41,112
291991,note_on,30,0,1,,,,,,,,,0,,,,89,0
291994,note_on,30,0,2,,,,,,,,,1,,,,77,0
291994,note_on,0,0,2,,,,,,,,,1,,,,75,100
292021,note_on,30,0,1,,,,,,,,,0,,,,89,101
292024,note_on,30,0,2,,,,,,,,,1,,,,75,0
292032,note_on,60,0,14,,,,,,,,,13,,,,41,0
292051,note_on,30,0,1,,,,,,,,,0,,,,89,0
292054,note_on,30,0,2,,,,,,,,,1,,,,69,0
292080,set_tempo,120,1,0,,,,,,263158,,,,,,,,
292081,note_on,30,0,1,,,,,,,,,0,,,,91,101
292084,note_on,0,0,2,,,,,,,,,1,,,,69,100
292084,note_on,30,0,2,,,,,,,,,1,,,,75,100
292092,note_on,60,0,14,,,,,,,,,13,,,,41,112
292141,note_on,60,0,1,,,,,,,,,0,,,,91,0
292141,note_on,0,0,1,,,,,,,,,0,,,,89,101
292144,note_on,60,0,2,,,,,,,,,1,,,,69,0
292144,note_on,0,0,2,,,,,,,,,1,,,,75,0
292152,note_on,60,0,14,,,,,,,,,13,,,,41,0
292200,set_tempo,120,1,0,,,,,,288462,,,,,,,,
292201,note_on,0,0,1,,,,,,,,,0,,,,91,101
292201,note_on,60,0,1,,,,,,,,,0,,,,89,0
292204,note_on,60,0,2,,,,,,,,,1,,,,75,100
292204,note_on,0,0,2,,,,,,,,,1,,,,69,100
292212,note_on,60,0,14,,,,,,,,,13,,,,41,112
292261,note_on,60,0,1,,,,,,,,,0,,,,91,0
292261,note_on,0,0,1,,,,,,,,,0,,,,89,101
292264,note_on,0,0,2,,,,,,,,,1,,,,75,0
292264,note_on,60,0,2,,,,,,,,,1,,,,69,0
292272,note_on,60,0,14,,,,,,,,,13,,,,41,0
292320,set_tempo,120,1,0,,,,,,258621,,,,,,,,
292321,note_on,0,0,1,,,,,,,,,0,,,,89,101
292321,note_on,60,0,1,,,,,,,,,0,,,,89,0
292324,note_on,60,0,2,,,,,,,,,1,,,,70,100
292324,note_on,0,0,2,,,,,,,,,1,,,,74,100
292329,note_on,0,0,4,,,,,,,,,3,,,,58,100
292329,note_on,0,0,4,,,,,,,,,3,,,,62,100
292329,note_on,0,0,4,,,,,,,,,3,,,,53,0
292329,note_on,360,0,4,,,,,,,,,3,,,,60,0
292332,note_on,60,0,14,,,,,,,,,13,,,,46,112
292389,note_on,0,0,4,,,,,,,,,3,,,,62,0
292389,note_on,60,0,4,,,,,,,,,3,,,,58,0
292441,note_on,0,0,1,,,,,,,,,0,,,,89,101
292441,note_on,120,0,1,,,,,,,,,0,,,,89,0
292449,note_on,60,0,4,,,,,,,,,3,,,,62,100
292449,note_on,0,0,4,,,,,,,,,3,,,,53,100
292452,note_on,120,0,14,,,,,,,,,13,,,,46,0
292509,note_on,0,0,4,,,,,,,,,3,,,,62,0
292509,note_on,60,0,4,,,,,,,,,3,,,,53,0
292560,set_tempo,240,1,0,,,,,,288462,,,,,,,,
292561,note_on,120,0,1,,,,,,,,,0,,,,89,0
292561,note_on,0,0,1,,,,,,,,,0,,,,89,101
292569,note_on,60,0,4,,,,,,,,,3,,,,50,100
292569,note_on,0,0,4,,,,,,,,,3,,,,62,100
292629,note_on,60,0,4,,,,,,,,,3,,,,62,0
292629,note_on,0,0,4,,,,,,,,,3,,,,50,0
292680,set_tempo,120,1,0,,,,,,254237,,,,,,,,
292681,note_on,0,0,1,,,,,,,,,0,,,,89,101
292681,note_on,120,0,1,,,,,,,,,0,,,,89,0
292684,note_on,0,0,2,,,,,,,,,1,,,,70,0
292684,note_on,360,0,2,,,,,,,,,1,,,,74,0
292684,note_on,0,0,2,,,,,,,,,1,,,,72,100
292684,note_on,0,0,2,,,,,,,,,1,,,,81,100
292685,note_on,2923,0,3,,,,,,,,,2,,,,69,116
292685,note_on,0,0,3,,,,,,,,,2,,,,77,101
292689,note_on,60,0,4,,,,,,,,,3,,,,60,115
292689,note_on,0,0,4,,,,,,,,,3,,,,53,115
292711,note_on,0,0,1,,,,,,,,,0,,,,87,101
292711,note_on,30,0,1,,,,,,,,,0,,,,89,0
292715,note_on,30,0,3,,,,,,,,,2,,,,77,0
292741,note_on,30,0,1,,,,,,,,,0,,,,87,0
292744,note_on,0,0,2,,,,,,,,,1,,,,81,0
292744,note_on,60,0,2,,,,,,,,,1,,,,72,0
292745,note_on,30,0,3,,,,,,,,,2,,,,77,101
292775,note_on,30,0,3,,,,,,,,,2,,,,77,0
292800,set_tempo,120,1,0,,,,,,263158,,,,,,,,
292801,note_on,60,0,1,,,,,,,,,0,,,,87,101
292804,note_on,0,0,2,,,,,,,,,1,,,,81,100
292804,note_on,60,0,2,,,,,,,,,1,,,,72,100
292805,note_on,30,0,3,,,,,,,,,2,,,,79,101
292861,note_on,60,0,1,,,,,,,,,0,,,,87,0
292864,note_on,60,0,2,,,,,,,,,1,,,,81,0
292864,note_on,0,0,2,,,,,,,,,1,,,,72,0
292865,note_on,0,0,3,,,,,,,,,2,,,,77,101
292865,note_on,60,0,3,,,,,,,,,2,,,,79,0
292920,set_tempo,120,1,0,,,,,,288462,,,,,,,,
292921,note_on,60,0,1,,,,,,,,,0,,,,87,101
292924,note_on,60,0,2,,,,,,,,,1,,,,72,100
292924,note_on,0,0,2,,,,,,,,,1,,,,81,100
292925,note_on,0,0,3,,,,,,,,,2,,,,79,101
292925,note_on,60,0,3,,,,,,,,,2,,,,77,0
292981,note_on,60,0,1,,,,,,,,,0,,,,87,0
292984,note_on,60,0,2,,,,,,,,,1,,,,81,0
292984,note_on,0,0,2,,,,,,,,,1,,,,72,0
292985,note_on,0,0,3,,,,,,,,,2,,,,77,101
292985,note_on,60,0,3,,,,,,,,,2,,,,79,0
293040,set_tempo,120,1,0,,,,,,258621,,,,,,,,
293041,note_on,60,0,1,,,,,,,,,0,,,,86,101
293044,note_on,60,0,2,,,,,,,,,1,,,,82,100
293044,note_on,0,0,2,,,,,,,,,1,,,,74,100
293045,note_on,0,0,3,,,,,,,,,2,,,,77,101
293045,note_on,0,0,3,,,,,,,,,2,,,,69,0
293045,note_on,60,0,3,,,,,,,,,2,,,,77,0
293045,note_on,0,0,3,,,,,,,,,2,,,,70,101
293049,note_on,360,0,4,,,,,,,,,3,,,,53,0
293049,note_on,0,0,4,,,,,,,,,3,,,,60,0
293049,note_on,0,0,4,,,,,,,,,3,,,,62,100
293049,note_on,0,0,4,,,,,,,,,3,,,,58,100
293052,note_on,600,0,14,,,,,,,,,13,,,,46,112
293082,note_on,30,0,14,,,,,,,,,13,,,,46,0
293105,note_on,60,0,3,,,,,,,,,2,,,,77,0
293105,note_on,0,0,3,,,,,,,,,2,,,,70,0
293109,note_on,60,0,4,,,,,,,,,3,,,,58,0
293109,note_on,0,0,4,,,,,,,,,3,,,,62,0
293112,note_on,30,0,14,,,,,,,,,13,,,,46,112
293142,note_on,30,0,14,,,,,,,,,13,,,,46,0
293165,note_on,0,0,3,,,,,,,,,2,,,,77,101
293165,note_on,60,0,3,,,,,,,,,2,,,,70,101
293169,note_on,0,0,4,,,,,,,,,3,,,,53,100
293169,note_on,60,0,4,,,,,,,,,3,,,,62,100
293172,note_on,30,0,14,,,,,,,,,13,,,,41,112
293202,note_on,30,0,14,,,,,,,,,13,,,,41,0
293225,note_on,0,0,3,,,,,,,,,2,,,,70,0
293225,note_on,60,0,3,,,,,,,,,2,,,,77,0
293229,note_on,60,0,4,,,,,,,,,3,,,,53,0
293229,note_on,0,0,4,,,,,,,,,3,,,,62,0
293232,note_on,30,0,14,,,,,,,,,13,,,,46,112
293262,note_on,30,0,14,,,,,,,,,13,,,,46,0
293280,set_tempo,240,1,0,,,,,,288462,,,,,,,,
293285,note_on,0,0,3,,,,,,,,,2,,,,77,101
293285,note_on,60,0,3,,,,,,,,,2,,,,70,101
293289,note_on,0,0,4,,,,,,,,,3,,,,50,100
293289,note_on,60,0,4,,,,,,,,,3,,,,62,100
293292,note_on,30,0,14,,,,,,,,,13,,,,41,112
293322,note_on,30,0,14,,,,,,,,,13,,,,41,0
293345,note_on,0,0,3,,,,,,,,,2,,,,70,0
293345,note_on,60,0,3,,,,,,,,,2,,,,77,0
293349,note_on,0,0,4,,,,,,,,,3,,,,62,0
293349,note_on,60,0,4,,,,,,,,,3,,,,50,0
293352,note_on,30,0,14,,,,,,,,,13,,,,46,112
293382,note_on,30,0,14,,,,,,,,,13,,,,46,0
293400,note_on,0,0,11,,,,,,,,,10,,,,65,127
293400,control_change,2188,0,11,,,,,,,,,10,11,50,,,
293400,set_tempo,120,1,0,,,,,,254237,,,,,,,,
293401,note_on,360,0,1,,,,,,,,,0,,,,86,0
293403,note_on,0,0,12,,,,,,,,,11,,,,65,127
293403,control_change,2188,0,12,,,,,,,,,11,11,50,,,
293404,note_on,0,0,2,,,,,,,,,1,,,,69,100
293404,note_on,0,0,2,,,,,,,,,1,,,,77,100
293404,note_on,0,0,2,,,,,,,,,1,,,,82,0
293404,note_on,360,0,2,,,,,,,,,1,,,,74,0
293405,note_on,60,0,3,,,,,,,,,2,,,,69,101
293405,note_on,0,0,3,,,,,,,,,2,,,,77,101
293407,program_change,2187,0,13,,,,,,,,48,12,,,,,
293408,note_on,1,0,13,,,,,,,,,12,,,,53,127
293408,control_change,0,0,13,,,,,,,,,12,11,50,,,
293409,note_on,0,0,4,,,,,,,,,3,,,,53,100
293409,note_on,60,0,4,,,,,,,,,3,,,,60,100
293412,note_on,30,0,14,,,,,,,,,13,,,,53,127
293412,control_change,0,0,14,,,,,,,,,13,11,50,,,
293414,note_on,2188,0,15,,,,,,,,,14,,,,41,127
293414,control_change,0,0,15,,,,,,,,,14,11,50,,,
293430,note_on,30,0,11,,,,,,,,,10,,,,65,0
293433,note_on,30,0,12,,,,,,,,,11,,,,65,0
293434,note_on,30,0,2,,,,,,,,,1,,,,77,0
293434,note_on,0,0,2,,,,,,,,,1,,,,75,100
293435,note_on,0,0,3,,,,,,,,,2,,,,75,101
293435,note_on,30,0,3,,,,,,,,,2,,,,77,0
293438,note_on,30,0,13,,,,,,,,,12,,,,53,0
293442,note_on,30,0,14,,,,,,,,,13,,,,53,0
293444,note_on,30,0,15,,,,,,,,,14,,,,41,0
293460,note_on,30,0,11,,,,,,,,,10,,,,65,112
293463,note_on,30,0,12,,,,,,,,,11,,,,65,112
293464,note_on,30,0,2,,,,,,,,,1,,,,69,0
293465,note_on,30,0,3,,,,,,,,,2,,,,69,0
293468,note_on,30,0,13,,,,,,,,,12,,,,53,112
293469,note_on,0,0,4,,,,,,,,,3,,,,60,0
293469,note_on,60,0,4,,,,,,,,,3,,,,53,0
293472,note_on,30,0,14,,,,,,,,,13,,,,53,112
293474,note_on,30,0,15,,,,,,,,,14,,,,41,112
293479,note_on,15,0,2,,,,,,,,,1,,,,75,0
293480,note_on,15,0,3,,,,,,,,,2,,,,75,0
293490,note_on,30,0,11,,,,,,,,,10,,,,65,0
293493,note_on,30,0,12,,,,,,,,,11,,,,65,0
293498,note_on,30,0,13,,,,,,,,,12,,,,53,0
293502,note_on,30,0,14,,,,,,,,,13,,,,53,0
293504,note_on,30,0,15,,,,,,,,,14,,,,41,0
293520,note_on,30,0,11,,,,,,,,,10,,,,67,112
293520,set_tempo,120,1,0,,,,,,263158,,,,,,,,
293523,note_on,30,0,12,,,,,,,,,11,,,,67,112
293524,note_on,0,0,2,,,,,,,,,1,,,,75,100
293524,note_on,45,0,2,,,,,,,,,1,,,,69,100
293525,note_on,45,0,3,,,,,,,,,2,,,,69,101
293525,note_on,0,0,3,,,,,,,,,2,,,,75,101
293528,note_on,30,0,13,,,,,,,,,12,,,,55,112
293529,note_on,0,0,4,,,,,,,,,3,,,,60,100
293529,note_on,60,0,4,,,,,,,,,3,,,,53,100
293532,note_on,30,0,14,,,,,,,,,13,,,,55,112
293534,note_on,30,0,15,,,,,,,,,14,,,,43,112
293550,note_on,30,0,11,,,,,,,,,10,,,,67,0
293553,note_on,30,0,12,,,,,,,,,11,,,,67,0
293558,note_on,30,0,13,,,,,,,,,12,,,,55,0
293562,note_on,30,0,14,,,,,,,,,13,,,,55,0
293564,note_on,30,0,15,,,,,,,,,14,,,,43,0
293580,note_on,30,0,11,,,,,,,,,10,,,,65,112
293583,note_on,30,0,12,,,,,,,,,11,,,,65,112
293584,note_on,0,0,2,,,,,,,,,1,,,,69,0
293584,note_on,60,0,2,,,,,,,,,1,,,,75,0
293585,note_on,0,0,3,,,,,,,,,2,,,,69,0
293585,note_on,60,0,3,,,,,,,,,2,,,,75,0
293588,note_on,30,0,13,,,,,,,,,12,,,,53,112
293589,note_on,60,0,4,,,,,,,,,3,,,,60,0
293589,note_on,0,0,4,,,,,,,,,3,,,,53,0
293592,note_on,30,0,14,,,,,,,,,13,,,,53,112
293594,note_on,30,0,15,,,,,,,,,14,,,,41,112
293610,note_on,30,0,11,,,,,,,,,10,,,,65,0
293613,note_on,30,0,12,,,,,,,,,11,,,,65,0
293618,note_on,30,0,13,,,,,,,,,12,,,,53,0
293622,note_on,30,0,14,,,,,,,,,13,,,,53,0
293624,note_on,30,0,15,,,,,,,,,14,,,,41,0
293640,note_on,30,0,11,,,,,,,,,10,,,,67,112
293640,set_tempo,120,1,0,,,,,,288462,,,,,,,,
293643,note_on,30,0,12,,,,,,,,,11,,,,67,112
293644,note_on,60,0,2,,,,,,,,,1,,,,75,100
293644,note_on,0,0,2,,,,,,,,,1,,,,69,100
293645,note_on,0,0,3,,,,,,,,,2,,,,69,101
293645,note_on,60,0,3,,,,,,,,,2,,,,75,101
293648,note_on,30,0,13,,,,,,,,,12,,,,55,112
293649,note_on,60,0,4,,,,,,,,,3,,,,60,100
293649,note_on,0,0,4,,,,,,,,,3,,,,53,100
293652,note_on,30,0,14,,,,,,,,,13,,,,55,112
293654,note_on,30,0,15,,,,,,,,,14,,,,43,112
293670,note_on,30,0,11,,,,,,,,,10,,,,67,0
293673,note_on,30,0,12,,,,,,,,,11,,,,67,0
293678,note_on,30,0,13,,,,,,,,,12,,,,55,0
293682,note_on,30,0,14,,,,,,,,,13,,,,55,0
293684,note_on,30,0,15,,,,,,,,,14,,,,43,0
293700,note_on,30,0,11,,,,,,,,,10,,,,65,112
293703,note_on,30,0,12,,,,,,,,,11,,,,65,112
293704,note_on,0,0,2,,,,,,,,,1,,,,75,0
293704,note_on,60,0,2,,,,,,,,,1,,,,69,0
293705,note_on,0,0,3,,,,,,,,,2,,,,75,0
293705,note_on,60,0,3,,,,,,,,,2,,,,69,0
293708,note_on,30,0,13,,,,,,,,,12,,,,53,112
293709,note_on,60,0,4,,,,,,,,,3,,,,53,0
293709,note_on,0,0,4,,,,,,,,,3,,,,60,0
293712,note_on,30,0,14,,,,,,,,,13,,,,53,112
293714,note_on,30,0,15,,,,,,,,,14,,,,41,112
293730,note_on,30,0,11,,,,,,,,,10,,,,65,0
293733,note_on,30,0,12,,,,,,,,,11,,,,65,0
293738,note_on,30,0,13,,,,,,,,,12,,,,53,0
293742,note_on,30,0,14,,,,,,,,,13,,,,53,0
293744,note_on,30,0,15,,,,,,,,,14,,,,41,0
293760,set_tempo,120,1,0,,,,,,265487,,,,,,,,
293760,note_on,30,0,11,,,,,,,,,10,,,,66,127
293763,note_on,30,0,12,,,,,,,,,11,,,,66,127
293764,note_on,60,0,2,,,,,,,,,1,,,,74,100
293764,note_on,0,0,2,,,,,,,,,1,,,,69,100
293765,note_on,0,0,3,,,,,,,,,2,,,,69,101
293765,note_on,60,0,3,,,,,,,,,2,,,,74,101
293768,note_on,30,0,13,,,,,,,,,12,,,,54,127
293769,note_on,60,0,4,,,,,,,,,3,,,,60,100
293769,note_on,0,0,4,,,,,,,,,3,,,,54,100
293772,note_on,30,0,14,,,,,,,,,13,,,,54,127
293774,note_on,30,0,15,,,,,,,,,14,,,,42,127
293790,note_on,30,0,11,,,,,,,,,10,,,,66,0
293793,note_on,30,0,12,,,,,,,,,11,,,,66,0
293798,note_on,30,0,13,,,,,,,,,12,,,,54,0
293802,note_on,30,0,14,,,,,,,,,13,,,,54,0
293804,note_on,30,0,15,,,,,,,,,14,,,,42,0
293820,note_on,30,0,11,,,,,,,,,10,,,,66,112
293823,note_on,30,0,12,,,,,,,,,11,,,,66,112
293828,note_on,30,0,13,,,,,,,,,12,,,,54,112
293832,note_on,30,0,14,,,,,,,,,13,,,,54,112
293834,note_on,30,0,15,,,,,,,,,14,,,,42,112
293850,note_on,30,0,11,,,,,,,,,10,,,,66,0
293853,note_on,30,0,12,,,,,,,,,11,,,,66,0
293858,note_on,30,0,13,,,,,,,,,12,,,,54,0
293862,note_on,30,0,14,,,,,,,,,13,,,,54,0
293864,note_on,30,0,15,,,,,,,,,14,,,,42,0
293880,note_on,30,0,11,,,,,,,,,10,,,,67,112
293883,note_on,30,0,12,,,,,,,,,11,,,,67,112
293888,note_on,30,0,13,,,,,,,,,12,,,,55,112
293892,note_on,30,0,14,,,,,,,,,13,,,,55,112
293894,note_on,30,0,15,,,,,,,,,14,,,,43,112
293910,note_on,30,0,11,,,,,,,,,10,,,,67,0
293913,note_on,30,0,12,,,,,,,,,11,,,,67,0
293918,note_on,30,0,13,,,,,,,,,12,,,,55,0
293922,note_on,30,0,14,,,,,,,,,13,,,,55,0
293924,note_on,30,0,15,,,,,,,,,14,,,,43,0
293940,note_on,30,0,11,,,,,,,,,10,,,,66,112
293943,note_on,30,0,12,,,,,,,,,11,,,,66,112
293948,note_on,30,0,13,,,,,,,,,12,,,,54,112
293952,note_on,30,0,14,,,,,,,,,13,,,,54,112
293954,note_on,30,0,15,,,,,,,,,14,,,,42,112
293970,note_on,30,0,11,,,,,,,,,10,,,,66,0
293973,note_on,30,0,12,,,,,,,,,11,,,,66,0
293978,note_on,30,0,13,,,,,,,,,12,,,,54,0
293982,note_on,30,0,14,,,,,,,,,13,,,,54,0
293984,note_on,30,0,15,,,,,,,,,14,,,,42,0
294000,set_tempo,240,1,0,,,,,,279070,,,,,,,,
294000,note_on,30,0,11,,,,,,,,,10,,,,67,112
294003,note_on,30,0,12,,,,,,,,,11,,,,67,112
294008,note_on,30,0,13,,,,,,,,,12,,,,55,112
294012,note_on,30,0,14,,,,,,,,,13,,,,55,112
294014,note_on,30,0,15,,,,,,,,,14,,,,43,112
294030,note_on,30,0,11,,,,,,,,,10,,,,67,0
294033,note_on,30,0,12,,,,,,,,,11,,,,67,0
294038,note_on,30,0,13,,,,,,,,,12,,,,55,0
294042,note_on,30,0,14,,,,,,,,,13,,,,55,0
294044,note_on,30,0,15,,,,,,,,,14,,,,43,0
294060,note_on,30,0,11,,,,,,,,,10,,,,66,112
294063,note_on,30,0,12,,,,,,,,,11,,,,66,112
294068,note_on,30,0,13,,,,,,,,,12,,,,54,112
294072,note_on,30,0,14,,,,,,,,,13,,,,54,112
294074,note_on,30,0,15,,,,,,,,,14,,,,42,112
294090,note_on,30,0,11,,,,,,,,,10,,,,66,0
294093,note_on,30,0,12,,,,,,,,,11,,,,66,0
294098,note_on,30,0,13,,,,,,,,,12,,,,54,0
294102,note_on,30,0,14,,,,,,,,,13,,,,54,0
294104,note_on,30,0,15,,,,,,,,,14,,,,42,0
294120,note_on,30,0,11,,,,,,,,,10,,,,69,112
294120,control_change,0,0,11,,,,,,,,,10,11,50,,,
294120,set_tempo,120,1,0,,,,,,265487,,,,,,,,
294121,control_change,720,0,1,,,,,,,,,0,11,42,,,
294123,note_on,0,0,12,,,,,,,,,11,,,,69,112
294123,control_change,30,0,12,,,,,,,,,11,11,50,,,
294124,note_on,0,0,2,,,,,,,,,1,,,,75,100
294124,note_on,0,0,2,,,,,,,,,1,,,,70,100
294124,note_on,0,0,2,,,,,,,,,1,,,,74,0
294124,note_on,360,0,2,,,,,,,,,1,,,,69,0
294124,control_change,0,0,2,,,,,,,,,1,11,42,,,
294125,note_on,0,0,3,,,,,,,,,2,,,,75,101
294125,note_on,0,0,3,,,,,,,,,2,,,,70,101
294125,note_on,0,0,3,,,,,,,,,2,,,,74,0
294125,control_change,0,0,3,,,,,,,,,2,11,42,,,
294125,note_on,360,0,3,,,,,,,,,2,,,,69,0
294128,note_on,0,0,13,,,,,,,,,12,,,,57,112
294128,control_change,30,0,13,,,,,,,,,12,11,50,,,
294129,note_on,360,0,4,,,,,,,,,3,,,,54,0
294129,note_on,0,0,4,,,,,,,,,3,,,,60,0
294129,note_on,0,0,4,,,,,,,,,3,,,,58,100
294129,note_on,0,0,4,,,,,,,,,3,,,,55,100
294129,control_change,0,0,4,,,,,,,,,3,11,42,,,
294132,note_on,30,0,14,,,,,,,,,13,,,,57,112
294132,control_change,0,0,14,,,,,,,,,13,11,50,,,
294134,control_change,30,0,15,,,,,,,,,14,11,50,,,
294134,note_on,0,0,15,,,,,,,,,14,,,,45,112
294140,control_change,20,0,11,,,,,,,,,10,11,51,,,
294141,control_change,20,0,1,,,,,,,,,0,11,43,,,
294143,control_change,20,0,12,,,,,,,,,11,11,51,,,
294144,control_change,20,0,2,,,,,,,,,1,11,43,,,
294145,control_change,20,0,3,,,,,,,,,2,11,43,,,
294148,control_change,20,0,13,,,,,,,,,12,11,51,,,
294149,control_change,20,0,4,,,,,,,,,3,11,43,,,
294150,note_on,10,0,11,,,,,,,,,10,,,,69,0
294152,control_change,20,0,14,,,,,,,,,13,11,51,,,
294153,note_on,10,0,12,,,,,,,,,11,,,,69,0
294154,control_change,20,0,15,,,,,,,,,14,11,51,,,
294158,note_on,10,0,13,,,,,,,,,12,,,,57,0
294161,control_change,11,0,11,,,,,,,,,10,11,52,,,
294162,control_change,21,0,1,,,,,,,,,0,11,44,,,
294162,note_on,10,0,14,,,,,,,,,13,,,,57,0
294164,control_change,11,0,12,,,,,,,,,11,11,52,,,
294164,note_on,10,0,15,,,,,,,,,14,,,,45,0
294165,control_change,21,0,2,,,,,,,,,1,11,44,,,
294166,control_change,21,0,3,,,,,,,,,2,11,44,,,
294169,control_change,11,0,13,,,,,,,,,12,11,52,,,
294170,control_change,21,0,4,,,,,,,,,3,11,44,,,
294173,control_change,11,0,14,,,,,,,,,13,11,52,,,
294175,control_change,11,0,15,,,,,,,,,14,11,52,,,
294180,note_on,19,0,11,,,,,,,,,10,,,,67,112
294181,control_change,1,0,11,,,,,,,,,10,11,53,,,
294182,control_change,20,0,1,,,,,,,,,0,11,45,,,
294183,note_on,19,0,12,,,,,,,,,11,,,,67,112
294184,note_on,0,0,2,,,,,,,,,1,,,,70,0
294184,control_change,1,0,12,,,,,,,,,11,11,53,,,
294184,note_on,19,0,2,,,,,,,,,1,,,,75,0
294185,note_on,19,0,3,,,,,,,,,2,,,,75,0
294185,note_on,0,0,3,,,,,,,,,2,,,,70,0
294185,control_change,1,0,2,,,,,,,,,1,11,45,,,
294186,control_change,1,0,3,,,,,,,,,2,11,45,,,
294188,note_on,19,0,13,,,,,,,,,12,,,,55,112
294189,note_on,0,0,4,,,,,,,,,3,,,,58,0
294189,note_on,19,0,4,,,,,,,,,3,,,,55,0
294189,control_change,1,0,13,,,,,,,,,12,11,53,,,
294190,control_change,1,0,4,,,,,,,,,3,11,45,,,
294192,note_on,19,0,14,,,,,,,,,13,,,,55,112
294193,control_change,1,0,14,,,,,,,,,13,11,53,,,
294194,note_on,19,0,15,,,,,,,,,14,,,,43,112
294195,control_change,1,0,15,,,,,,,,,14,11,53,,,
294202,control_change,21,0,11,,,,,,,,,10,11,54,,,
294203,control_change,21,0,1,,,,,,,,,0,11,46,,,
294205,control_change,21,0,12,,,,,,,,,11,11,54,,,
294206,control_change,21,0,2,,,,,,,,,1,11,46,,,
294207,control_change,21,0,3,,,,,,,,,2,11,46,,,
294210,control_change,21,0,13,,,,,,,,,12,11,54,,,
294210,note_on,8,0,11,,,,,,,,,10,,,,67,0
294211,control_change,21,0,4,,,,,,,,,3,11,46,,,
294213,note_on,8,0,12,,,,,,,,,11,,,,67,0
294214,control_change,21,0,14,,,,,,,,,13,11,54,,,
294216,control_change,21,0,15,,,,,,,,,14,11,54,,,
294218,note_on,8,0,13,,,,,,,,,12,,,,55,0
294222,note_on,8,0,14,,,,,,,,,13,,,,55,0
294222,control_change,12,0,11,,,,,,,,,10,11,55,,,
294223,control_change,20,0,1,,,,,,,,,0,11,47,,,
294224,note_on,8,0,15,,,,,,,,,14,,,,43,0
294225,control_change,12,0,12,,,,,,,,,11,11,55,,,
294226,control_change,20,0,2,,,,,,,,,1,11,47,,,
294227,control_change,20,0,3,,,,,,,,,2,11,47,,,
294230,control_change,12,0,13,,,,,,,,,12,11,55,,,
294231,control_change,20,0,4,,,,,,,,,3,11,47,,,
294234,control_change,12,0,14,,,,,,,,,13,11,55,,,
294236,control_change,12,0,15,,,,,,,,,14,11,55,,,
294240,note_on,18,0,11,,,,,,,,,10,,,,70,112
294243,control_change,3,0,11,,,,,,,,,10,11,56,,,
294243,note_on,18,0,12,,,,,,,,,11,,,,70,112
294244,control_change,21,0,1,,,,,,,,,0,11,48,,,
294244,note_on,18,0,2,,,,,,,,,1,,,,78,100
294244,note_on,0,0,2,,,,,,,,,1,,,,72,100
294245,note_on,18,0,3,,,,,,,,,2,,,,72,101
294245,note_on,0,0,3,,,,,,,,,2,,,,78,101
294246,control_change,3,0,12,,,,,,,,,11,11,56,,,
294247,control_change,3,0,2,,,,,,,,,1,11,48,,,
294248,control_change,3,0,3,,,,,,,,,2,11,48,,,
294248,note_on,18,0,13,,,,,,,,,12,,,,58,112
294249,note_on,0,0,4,,,,,,,,,3,,,,57,100
294249,note_on,18,0,4,,,,,,,,,3,,,,60,100
294251,control_change,3,0,13,,,,,,,,,12,11,56,,,
294252,control_change,3,0,4,,,,,,,,,3,11,48,,,
294252,note_on,18,0,14,,,,,,,,,13,,,,58,112
294254,note_on,18,0,15,,,,,,,,,14,,,,46,112
294255,control_change,3,0,14,,,,,,,,,13,11,56,,,
294257,control_change,3,0,15,,,,,,,,,14,11,56,,,
294264,control_change,21,0,11,,,,,,,,,10,11,57,,,
294265,control_change,21,0,1,,,,,,,,,0,11,49,,,
294267,control_change,21,0,12,,,,,,,,,11,11,57,,,
294268,control_change,21,0,2,,,,,,,,,1,11,49,,,
294269,control_change,21,0,3,,,,,,,,,2,11,49,,,
294270,note_on,6,0,11,,,,,,,,,10,,,,70,0
294272,control_change,21,0,13,,,,,,,,,12,11,57,,,
294273,control_change,21,0,4,,,,,,,,,3,11,49,,,
294273,note_on,6,0,12,,,,,,,,,11,,,,70,0
294276,control_change,21,0,14,,,,,,,,,13,11,57,,,
294278,note_on,6,0,13,,,,,,,,,12,,,,58,0
294278,control_change,21,0,15,,,,,,,,,14,11,57,,,
294282,note_on,6,0,14,,,,,,,,,13,,,,58,0
294284,note_on,6,0,15,,,,,,,,,14,,,,46,0
294284,control_change,14,0,11,,,,,,,,,10,11,57,,,
294285,control_change,20,0,1,,,,,,,,,0,11,50,,,
294287,control_change,14,0,12,,,,,,,,,11,11,57,,,
294288,control_change,20,0,2,,,,,,,,,1,11,50,,,
294289,control_change,20,0,3,,,,,,,,,2,11,50,,,
294292,control_change,14,0,13,,,,,,,,,12,11,57,,,
294293,control_change,20,0,4,,,,,,,,,3,11,50,,,
294296,control_change,14,0,14,,,,,,,,,13,11,57,,,
294298,control_change,14,0,15,,,,,,,,,14,11,57,,,
294300,note_on,16,0,11,,,,,,,,,10,,,,69,112
294303,note_on,16,0,12,,,,,,,,,11,,,,69,112
294304,note_on,16,0,2,,,,,,,,,1,,,,72,0
294304,note_on,0,0,2,,,,,,,,,1,,,,78,0
294305,note_on,16,0,3,,,,,,,,,2,,,,78,0
294305,note_on,0,0,3,,,,,,,,,2,,,,72,0
294305,control_change,5,0,11,,,,,,,,,10,11,58,,,
294306,control_change,21,0,1,,,,,,,,,0,11,51,,,
294308,control_change,5,0,12,,,,,,,,,11,11,58,,,
294308,note_on,16,0,13,,,,,,,,,12,,,,57,112
294309,note_on,0,0,4,,,,,,,,,3,,,,60,0
294309,control_change,5,0,2,,,,,,,,,1,11,51,,,
294309,note_on,16,0,4,,,,,,,,,3,,,,57,0
294310,control_change,5,0,3,,,,,,,,,2,11,51,,,
294312,note_on,16,0,14,,,,,,,,,13,,,,57,112
294313,control_change,5,0,13,,,,,,,,,12,11,58,,,
294314,control_change,5,0,4,,,,,,,,,3,11,51,,,
294314,note_on,16,0,15,,,,,,,,,14,,,,45,112
294317,control_change,5,0,14,,,,,,,,,13,11,58,,,
294319,control_change,5,0,15,,,,,,,,,14,11,58,,,
294325,control_change,20,0,11,,,,,,,,,10,11,59,,,
294326,control_change,20,0,1,,,,,,,,,0,11,52,,,
294328,control_change,20,0,12,,,,,,,,,11,11,59,,,
294329,control_change,20,0,2,,,,,,,,,1,11,52,,,
294330,control_change,20,0,3,,,,,,,,,2,11,52,,,
294330,note_on,5,0,11,,,,,,,,,10,,,,69,0
294333,note_on,5,0,12,,,,,,,,,11,,,,69,0
294333,control_change,20,0,13,,,,,,,,,12,11,59,,,
294334,control_change,20,0,4,,,,,,,,,3,11,52,,,
294337,control_change,20,0,14,,,,,,,,,13,11,59,,,
294338,note_on,5,0,13,,,,,,,,,12,,,,57,0
294339,control_change,20,0,15,,,,,,,,,14,11,59,,,
294342,note_on,5,0,14,,,,,,,,,13,,,,57,0
294344,note_on,5,0,15,,,,,,,,,14,,,,45,0
294346,control_change,16,0,11,,,,,,,,,10,11,60,,,
294347,control_change,21,0,1,,,,,,,,,0,11,52,,,
294349,control_change,16,0,12,,,,,,,,,11,11,60,,,
294350,control_change,21,0,2,,,,,,,,,1,11,52,,,
294351,control_change,21,0,3,,,,,,,,,2,11,52,,,
294354,control_change,16,0,13,,,,,,,,,12,11,60,,,
294355,control_change,21,0,4,,,,,,,,,3,11,53,,,
294358,control_change,16,0,14,,,,,,,,,13,11,60,,,
294360,set_tempo,240,1,0,,,,,,279070,,,,,,,,
294360,note_on,14,0,11,,,,,,,,,10,,,,72,112
294360,control_change,16,0,15,,,,,,,,,14,11,60,,,
294361,note_on,14,0,1,,,,,,,,,0,,,,79,101
294361,note_on,0,0,1,,,,,,,,,0,,,,74,101
294363,note_on,14,0,12,,,,,,,,,11,,,,72,112
294364,note_on,0,0,2,,,,,,,,,1,,,,79,100
294364,note_on,14,0,2,,,,,,,,,1,,,,74,100
294365,note_on,14,0,3,,,,,,,,,2,,,,79,101
294365,note_on,0,0,3,,,,,,,,,2,,,,74,101
294366,control_change,6,0,11,,,,,,,,,10,11,61,,,
294367,control_change,6,0,1,,,,,,,,,0,11,53,,,
294368,note_on,14,0,13,,,,,,,,,12,,,,60,112
294369,note_on,14,0,4,,,,,,,,,3,,,,58,100
294369,note_on,0,0,4,,,,,,,,,3,,,,62,100
294369,control_change,6,0,12,,,,,,,,,11,11,61,,,
294370,control_change,6,0,2,,,,,,,,,1,11,53,,,
294371,control_change,6,0,3,,,,,,,,,2,11,53,,,
294372,note_on,14,0,14,,,,,,,,,13,,,,60,112
294374,control_change,6,0,13,,,,,,,,,12,11,61,,,
294374,note_on,14,0,15,,,,,,,,,14,,,,48,112
294375,control_change,6,0,4,,,,,,,,,3,11,54,,,
294378,control_change,6,0,14,,,,,,,,,13,11,61,,,
294380,control_change,6,0,15,,,,,,,,,14,11,61,,,
294387,control_change,21,0,11,,,,,,,,,10,11,62,,,
294388,control_change,21,0,1,,,,,,,,,0,11,54,,,
294390,note_on,3,0,11,,,,,,,,,10,,,,72,0
294390,control_change,21,0,12,,,,,,,,,11,11,62,,,
294391,control_change,21,0,2,,,,,,,,,1,11,54,,,
294392,control_change,21,0,3,,,,,,,,,2,11,54,,,
294393,note_on,3,0,12,,,,,,,,,11,,,,72,0
294395,control_change,21,0,13,,,,,,,,,12,11,62,,,
294396,control_change,21,0,4,,,,,,,,,3,11,55,,,
294398,note_on,3,0,13,,,,,,,,,12,,,,60,0
294399,control_change,21,0,14,,,,,,,,,13,11,62,,,
294401,control_change,21,0,15,,,,,,,,,14,11,62,,,
294402,note_on,3,0,14,,,,,,,,,13,,,,60,0
294404,note_on,3,0,15,,,,,,,,,14,,,,48,0
294408,control_change,18,0,11,,,,,,,,,10,11,63,,,
294409,control_change,21,0,1,,,,,,,,,0,11,55,,,
294411,control_change,18,0,12,,,,,,,,,11,11,63,,,
294412,control_change,21,0,2,,,,,,,,,1,11,55,,,
294413,control_change,21,0,3,,,,,,,,,2,11,55,,,
294416,control_change,18,0,13,,,,,,,,,12,11,63,,,
294417,control_change,21,0,4,,,,,,,,,3,11,56,,,
294420,note_on,12,0,11,,,,,,,,,10,,,,70,112
294420,control_change,18,0,14,,,,,,,,,13,11,63,,,
294421,note_on,12,0,1,,,,,,,,,0,,,,74,0
294421,note_on,0,0,1,,,,,,,,,0,,,,79,0
294422,control_change,18,0,15,,,,,,,,,14,11,63,,,
294423,note_on,12,0,12,,,,,,,,,11,,,,70,112
294424,note_on,0,0,2,,,,,,,,,1,,,,74,0
294424,note_on,12,0,2,,,,,,,,,1,,,,79,0
294425,note_on,0,0,3,,,,,,,,,2,,,,79,0
294425,note_on,12,0,3,,,,,,,,,2,,,,74,0
294428,note_on,12,0,13,,,,,,,,,12,,,,58,112
294428,control_change,8,0,11,,,,,,,,,10,11,64,,,
294429,control_change,8,0,1,,,,,,,,,0,11,55,,,
294429,note_on,0,0,4,,,,,,,,,3,,,,58,0
294429,note_on,12,0,4,,,,,,,,,3,,,,62,0
294431,control_change,8,0,12,,,,,,,,,11,11,64,,,
294432,note_on,12,0,14,,,,,,,,,13,,,,58,112
294432,control_change,8,0,2,,,,,,,,,1,11,55,,,
294433,control_change,8,0,3,,,,,,,,,2,11,55,,,
294434,note_on,12,0,15,,,,,,,,,14,,,,46,112
294436,control_change,8,0,13,,,,,,,,,12,11,64,,,
294437,control_change,8,0,4,,,,,,,,,3,11,57,,,
294440,control_change,8,0,14,,,,,,,,,13,11,64,,,
294442,control_change,8,0,15,,,,,,,,,14,11,64,,,
294449,control_change,21,0,11,,,,,,,,,10,11,65,,,
294450,note_on,1,0,11,,,,,,,,,10,,,,70,0
294450,control_change,21,0,1,,,,,,,,,0,11,56,,,
294452,control_change,21,0,12,,,,,,,,,11,11,65,,,
294453,note_on,1,0,12,,,,,,,,,11,,,,70,0
294453,control_change,21,0,2,,,,,,,,,1,11,56,,,
294454,control_change,21,0,3,,,,,,,,,2,11,56,,,
294457,control_change,21,0,13,,,,,,,,,12,11,65,,,
294458,note_on,1,0,13,,,,,,,,,12,,,,58,0
294458,control_change,21,0,4,,,,,,,,,3,11,58,,,
294461,control_change,21,0,14,,,,,,,,,13,11,65,,,
294462,note_on,1,0,14,,,,,,,,,13,,,,58,0
294463,control_change,21,0,15,,,,,,,,,14,11,65,,,
294464,note_on,1,0,15,,,,,,,,,14,,,,46,0
294469,control_change,19,0,11,,,,,,,,,10,11,66,,,
294470,control_change,20,0,1,,,,,,,,,0,11,57,,,
294472,control_change,19,0,12,,,,,,,,,11,11,66,,,
294473,control_change,20,0,2,,,,,,,,,1,11,57,,,
294474,control_change,20,0,3,,,,,,,,,2,11,57,,,
294477,control_change,19,0,13,,,,,,,,,12,11,66,,,
294478,control_change,20,0,4,,,,,,,,,3,11,59,,,
294480,note_on,11,0,11,,,,,,,,,10,,,,74,112
294480,set_tempo,120,1,0,,,,,,265487,,,,,,,,
294481,control_change,19,0,14,,,,,,,,,13,11,66,,,
294481,note_on,0,0,1,,,,,,,,,0,,,,75,101
294481,note_on,11,0,1,,,,,,,,,0,,,,81,101
294483,note_on,11,0,12,,,,,,,,,11,,,,74,112
294483,control_change,19,0,15,,,,,,,,,14,11,66,,,
294484,note_on,11,0,2,,,,,,,,,1,,,,81,100
294484,note_on,0,0,2,,,,,,,,,1,,,,75,100
294485,note_on,0,0,3,,,,,,,,,2,,,,81,101
294485,note_on,11,0,3,,,,,,,,,2,,,,75,101
294488,note_on,11,0,13,,,,,,,,,12,,,,62,112
294489,note_on,11,0,4,,,,,,,,,3,,,,63,100
294489,note_on,0,0,4,,,,,,,,,3,,,,60,100
294490,control_change,10,0,11,,,,,,,,,10,11,67,,,
294491,control_change,10,0,1,,,,,,,,,0,11,58,,,
294492,note_on,11,0,14,,,,,,,,,13,,,,62,112
294493,control_change,10,0,12,,,,,,,,,11,11,67,,,
294494,note_on,11,0,15,,,,,,,,,14,,,,50,112
294494,control_change,10,0,2,,,,,,,,,1,11,58,,,
294495,control_change,10,0,3,,,,,,,,,2,11,58,,,
294498,control_change,10,0,13,,,,,,,,,12,11,67,,,
294499,control_change,10,0,4,,,,,,,,,3,11,60,,,
294502,control_change,10,0,14,,,,,,,,,13,11,67,,,
294504,control_change,10,0,15,,,,,,,,,14,11,67,,,
294510,note_on,20,0,11,,,,,,,,,10,,,,74,0
294510,control_change,0,0,11,,,,,,,,,10,11,68,,,
294511,control_change,20,0,1,,,,,,,,,0,11,58,,,
294513,control_change,0,0,12,,,,,,,,,11,11,68,,,
294513,note_on,20,0,12,,,,,,,,,11,,,,74,0
294514,control_change,20,0,2,,,,,,,,,1,11,58,,,
294515,control_change,20,0,3,,,,,,,,,2,11,58,,,
294518,control_change,0,0,13,,,,,,,,,12,11,68,,,
294518,note_on,20,0,13,,,,,,,,,12,,,,62,0
294519,control_change,20,0,4,,,,,,,,,3,11,61,,,
294522,control_change,0,0,14,,,,,,,,,13,11,68,,,
294522,note_on,20,0,14,,,,,,,,,13,,,,62,0
294524,note_on,20,0,15,,,,,,,,,14,,,,50,0
294524,control_change,0,0,15,,,,,,,,,14,11,68,,,
294531,control_change,21,0,11,,,,,,,,,10,11,69,,,
294532,control_change,21,0,1,,,,,,,,,0,11,59,,,
294534,control_change,21,0,12,,,,,,,,,11,11,69,,,
294535,control_change,21,0,2,,,,,,,,,1,11,59,,,
294536,control_change,21,0,3,,,,,,,,,2,11,59,,,
294539,control_change,21,0,13,,,,,,,,,12,11,69,,,
294540,control_change,21,0,4,,,,,,,,,3,11,62,,,
294540,note_on,9,0,11,,,,,,,,,10,,,,72,112
294541,note_on,0,0,1,,,,,,,,,0,,,,81,0
294541,note_on,9,0,1,,,,,,,,,0,,,,75,0
294543,note_on,9,0,12,,,,,,,,,11,,,,72,112
294543,control_change,21,0,14,,,,,,,,,13,11,69,,,
294544,note_on,0,0,2,,,,,,,,,1,,,,81,0
294544,note_on,9,0,2,,,,,,,,,1,,,,75,0
294545,note_on,0,0,3,,,,,,,,,2,,,,75,0
294545,control_change,21,0,15,,,,,,,,,14,11,69,,,
294545,note_on,9,0,3,,,,,,,,,2,,,,81,0
294548,note_on,9,0,13,,,,,,,,,12,,,,60,112
294549,note_on,0,0,4,,,,,,,,,3,,,,63,0
294549,note_on,9,0,4,,,,,,,,,3,,,,60,0
294552,control_change,12,0,11,,,,,,,,,10,11,70,,,
294552,note_on,9,0,14,,,,,,,,,13,,,,60,112
294553,control_change,12,0,1,,,,,,,,,0,11,60,,,
294554,note_on,9,0,15,,,,,,,,,14,,,,48,112
294555,control_change,12,0,12,,,,,,,,,11,11,70,,,
294556,control_change,12,0,2,,,,,,,,,1,11,60,,,
294557,control_change,12,0,3,,,,,,,,,2,11,60,,,
294560,control_change,12,0,13,,,,,,,,,12,11,70,,,
294561,control_change,12,0,4,,,,,,,,,3,11,63,,,
294564,control_change,12,0,14,,,,,,,,,13,11,70,,,
294566,control_change,12,0,15,,,,,,,,,14,11,70,,,
294570,note_on,18,0,11,,,,,,,,,10,,,,72,0
294572,control_change,2,0,11,,,,,,,,,10,11,71,,,
294573,control_change,20,0,1,,,,,,,,,0,11,61,,,
294573,note_on,18,0,12,,,,,,,,,11,,,,72,0
294575,control_change,2,0,12,,,,,,,,,11,11,71,,,
294576,control_change,20,0,2,,,,,,,,,1,11,61,,,
294577,control_change,20,0,3,,,,,,,,,2,11,61,,,
294578,note_on,18,0,13,,,,,,,,,12,,,,60,0
294580,control_change,2,0,13,,,,,,,,,12,11,71,,,
294581,control_change,20,0,4,,,,,,,,,3,11,64,,,
294582,note_on,18,0,14,,,,,,,,,13,,,,60,0
294584,note_on,18,0,15,,,,,,,,,14,,,,48,0
294584,control_change,2,0,14,,,,,,,,,13,11,71,,,
294586,control_change,2,0,15,,,,,,,,,14,11,71,,,
294593,control_change,21,0,11,,,,,,,,,10,11,72,,,
294594,control_change,21,0,1,,,,,,,,,0,11,61,,,
294596,control_change,21,0,12,,,,,,,,,11,11,72,,,
294597,control_change,21,0,2,,,,,,,,,1,11,61,,,
294598,control_change,21,0,3,,,,,,,,,2,11,61,,,
294600,note_on,7,0,11,,,,,,,,,10,,,,75,112
294601,note_on,7,0,1,,,,,,,,,0,,,,82,101
294601,note_on,0,0,1,,,,,,,,,0,,,,77,101
294601,control_change,21,0,13,,,,,,,,,12,11,72,,,
294602,control_change,21,0,4,,,,,,,,,3,11,65,,,
294603,note_on,7,0,12,,,,,,,,,11,,,,75,112
294604,note_on,7,0,2,,,,,,,,,1,,,,82,100
294604,note_on,0,0,2,,,,,,,,,1,,,,77,100
294605,control_change,21,0,14,,,,,,,,,13,11,72,,,
294605,note_on,7,0,3,,,,,,,,,2,,,,82,101
294605,note_on,0,0,3,,,,,,,,,2,,,,77,101
294607,control_change,21,0,15,,,,,,,,,14,11,72,,,
294608,note_on,7,0,13,,,,,,,,,12,,,,63,112
294609,note_on,7,0,4,,,,,,,,,3,,,,65,100
294609,note_on,0,0,4,,,,,,,,,3,,,,62,100
294612,note_on,7,0,14,,,,,,,,,13,,,,63,112
294613,control_change,13,0,11,,,,,,,,,10,11,72,,,
294614,control_change,13,0,1,,,,,,,,,0,11,62,,,
294614,note_on,7,0,15,,,,,,,,,14,,,,51,112
294616,control_change,13,0,12,,,,,,,,,11,11,72,,,
294617,control_change,13,0,2,,,,,,,,,1,11,62,,,
294618,control_change,13,0,3,,,,,,,,,2,11,62,,,
294621,control_change,13,0,13,,,,,,,,,12,11,72,,,
294622,control_change,13,0,4,,,,,,,,,3,11,66,,,
294625,control_change,13,0,14,,,,,,,,,13,11,72,,,
294627,control_change,13,0,15,,,,,,,,,14,11,72,,,
294630,note_on,17,0,11,,,,,,,,,10,,,,75,0
294633,note_on,17,0,12,,,,,,,,,11,,,,75,0
294634,control_change,4,0,11,,,,,,,,,10,11,73,,,
294635,control_change,21,0,1,,,,,,,,,0,11,63,,,
294637,control_change,4,0,12,,,,,,,,,11,11,73,,,
294638,note_on,17,0,13,,,,,,,,,12,,,,63,0
294638,control_change,21,0,2,,,,,,,,,1,11,63,,,
294639,control_change,21,0,3,,,,,,,,,2,11,63,,,
294642,control_change,4,0,13,,,,,,,,,12,11,73,,,
294642,note_on,17,0,14,,,,,,,,,13,,,,63,0
294643,control_change,21,0,4,,,,,,,,,3,11,67,,,
294644,note_on,17,0,15,,,,,,,,,14,,,,51,0
294646,control_change,4,0,14,,,,,,,,,13,11,73,,,
294648,control_change,4,0,15,,,,,,,,,14,11,73,,,
294654,control_change,20,0,11,,,,,,,,,10,11,74,,,
294655,control_change,20,0,1,,,,,,,,,0,11,64,,,
294657,control_change,20,0,12,,,,,,,,,11,11,74,,,
294658,control_change,20,0,2,,,,,,,,,1,11,64,,,
294659,control_change,20,0,3,,,,,,,,,2,11,64,,,
294660,note_on,6,0,11,,,,,,,,,10,,,,74,112
294661,note_on,6,0,1,,,,,,,,,0,,,,77,0
294661,note_on,0,0,1,,,,,,,,,0,,,,82,0
294662,control_change,20,0,13,,,,,,,,,12,11,74,,,
294663,note_on,6,0,12,,,,,,,,,11,,,,74,112
294663,control_change,20,0,4,,,,,,,,,3,11,68,,,
294664,note_on,6,0,2,,,,,,,,,1,,,,77,0
294664,note_on,0,0,2,,,,,,,,,1,,,,82,0
294665,note_on,0,0,3,,,,,,,,,2,,,,82,0
294665,note_on,6,0,3,,,,,,,,,2,,,,77,0
294666,control_change,20,0,14,,,,,,,,,13,11,74,,,
294668,control_change,20,0,15,,,,,,,,,14,11,74,,,
294668,note_on,6,0,13,,,,,,,,,12,,,,62,112
294669,note_on,0,0,4,,,,,,,,,3,,,,65,0
294669,note_on,6,0,4,,,,,,,,,3,,,,62,0
294672,note_on,6,0,14,,,,,,,,,13,,,,62,112
294674,note_on,6,0,15,,,,,,,,,14,,,,50,112
294675,control_change,15,0,11,,,,,,,,,10,11,75,,,
294676,control_change,15,0,1,,,,,,,,,0,11,64,,,
294678,control_change,15,0,12,,,,,,,,,11,11,75,,,
294679,control_change,15,0,2,,,,,,,,,1,11,64,,,
294680,control_change,15,0,3,,,,,,,,,2,11,64,,,
294683,control_change,15,0,13,,,,,,,,,12,11,75,,,
294684,control_change,15,0,4,,,,,,,,,3,11,69,,,
294687,control_change,15,0,14,,,,,,,,,13,11,75,,,
294689,control_change,15,0,15,,,,,,,,,14,11,75,,,
294690,note_on,15,0,11,,,,,,,,,10,,,,74,0
294693,note_on,15,0,12,,,,,,,,,11,,,,74,0
294696,control_change,6,0,11,,,,,,,,,10,11,76,,,
294697,control_change,21,0,1,,,,,,,,,0,11,65,,,
294698,note_on,15,0,13,,,,,,,,,12,,,,62,0
294699,control_change,6,0,12,,,,,,,,,11,11,76,,,
294700,control_change,21,0,2,,,,,,,,,1,11,65,,,
294701,control_change,21,0,3,,,,,,,,,2,11,65,,,
294702,note_on,15,0,14,,,,,,,,,13,,,,62,0
294704,note_on,15,0,15,,,,,,,,,14,,,,50,0
294704,control_change,6,0,13,,,,,,,,,12,11,76,,,
294705,control_change,21,0,4,,,,,,,,,3,11,70,,,
294708,control_change,6,0,14,,,,,,,,,13,11,76,,,
294710,control_change,6,0,15,,,,,,,,,14,11,76,,,
294716,control_change,20,0,11,,,,,,,,,10,11,77,,,
294717,control_change,20,0,1,,,,,,,,,0,11,66,,,
294719,control_change,20,0,12,,,,,,,,,11,11,77,,,
294720,note_on,4,0,11,,,,,,,,,10,,,,77,112
294720,set_tempo,240,1,0,,,,,,279070,,,,,,,,
294720,control_change,20,0,2,,,,,,,,,1,11,66,,,
294721,control_change,20,0,3,,,,,,,,,2,11,66,,,
294721,note_on,0,0,1,,,,,,,,,0,,,,85,101
294721,note_on,4,0,1,,,,,,,,,0,,,,82,101
294723,note_on,4,0,12,,,,,,,,,11,,,,77,112
294724,note_on,4,0,2,,,,,,,,,1,,,,79,100
294724,control_change,20,0,13,,,,,,,,,12,11,77,,,
294724,note_on,0,0,2,,,,,,,,,1,,,,73,100
294725,control_change,20,0,4,,,,,,,,,3,11,71,,,
294725,note_on,4,0,3,,,,,,,,,2,,,,82,101
294725,note_on,0,0,3,,,,,,,,,2,,,,79,101
294728,note_on,4,0,13,,,,,,,,,12,,,,65,112
294728,control_change,20,0,14,,,,,,,,,13,11,77,,,
294729,note_on,0,0,4,,,,,,,,,3,,,,67,100
294729,note_on,4,0,4,,,,,,,,,3,,,,63,100
294730,control_change,20,0,15,,,,,,,,,14,11,77,,,
294732,note_on,4,0,14,,,,,,,,,13,,,,65,112
294734,note_on,4,0,15,,,,,,,,,14,,,,53,112
294737,control_change,17,0,11,,,,,,,,,10,11,78,,,
294738,control_change,17,0,1,,,,,,,,,0,11,67,,,
294740,control_change,17,0,12,,,,,,,,,11,11,78,,,
294741,control_change,17,0,2,,,,,,,,,1,11,67,,,
294742,control_change,17,0,3,,,,,,,,,2,11,67,,,
294745,control_change,17,0,13,,,,,,,,,12,11,78,,,
294746,control_change,17,0,4,,,,,,,,,3,11,72,,,
294749,control_change,17,0,14,,,,,,,,,13,11,78,,,
294750,note_on,13,0,11,,,,,,,,,10,,,,77,0
294751,control_change,17,0,15,,,,,,,,,14,11,78,,,
294753,note_on,13,0,12,,,,,,,,,11,,,,77,0
294757,control_change,7,0,11,,,,,,,,,10,11,79,,,
294758,note_on,13,0,13,,,,,,,,,12,,,,65,0
294758,control_change,20,0,1,,,,,,,,,0,11,67,,,
294760,control_change,7,0,12,,,,,,,,,11,11,79,,,
294761,control_change,20,0,2,,,,,,,,,1,11,67,,,
294762,note_on,13,0,14,,,,,,,,,13,,,,65,0
294762,control_change,20,0,3,,,,,,,,,2,11,67,,,
294764,note_on,13,0,15,,,,,,,,,14,,,,53,0
294765,control_change,7,0,13,,,,,,,,,12,11,79,,,
294766,control_change,20,0,4,,,,,,,,,3,11,73,,,
294769,control_change,7,0,14,,,,,,,,,13,11,79,,,
294771,control_change,7,0,15,,,,,,,,,14,11,79,,,
294778,control_change,21,0,11,,,,,,,,,10,11,80,,,
294779,control_change,21,0,1,,,,,,,,,0,11,68,,,
294780,note_on,2,0,11,,,,,,,,,10,,,,75,112
294781,note_on,0,0,1,,,,,,,,,0,,,,82,0
294781,control_change,21,0,12,,,,,,,,,11,11,80,,,
294781,note_on,2,0,1,,,,,,,,,0,,,,85,0
294782,control_change,21,0,2,,,,,,,,,1,11,68,,,
294783,control_change,21,0,3,,,,,,,,,2,11,68,,,
294783,note_on,2,0,12,,,,,,,,,11,,,,75,112
294784,note_on,0,0,2,,,,,,,,,1,,,,79,0
294784,note_on,2,0,2,,,,,,,,,1,,,,73,0
294785,note_on,2,0,3,,,,,,,,,2,,,,79,0
294785,note_on,0,0,3,,,,,,,,,2,,,,82,0
294786,control_change,21,0,13,,,,,,,,,12,11,80,,,
294787,control_change,21,0,4,,,,,,,,,3,11,74,,,
294788,note_on,2,0,13,,,,,,,,,12,,,,63,112
294789,note_on,0,0,4,,,,,,,,,3,,,,63,0
294789,note_on,2,0,4,,,,,,,,,3,,,,67,0
294790,control_change,21,0,14,,,,,,,,,13,11,80,,,
294792,control_change,21,0,15,,,,,,,,,14,11,80,,,
294792,note_on,2,0,14,,,,,,,,,13,,,,63,112
294794,note_on,2,0,15,,,,,,,,,14,,,,51,112
294798,control_change,18,0,11,,,,,,,,,10,11,81,,,
294799,control_change,18,0,1,,,,,,,,,0,11,69,,,
294801,control_change,18,0,12,,,,,,,,,11,11,81,,,
294802,control_change,18,0,2,,,,,,,,,1,11,69,,,
294803,control_change,18,0,3,,,,,,,,,2,11,69,,,
294806,control_change,18,0,13,,,,,,,,,12,11,81,,,
294807,control_change,18,0,4,,,,,,,,,3,11,75,,,
294810,control_change,18,0,14,,,,,,,,,13,11,81,,,
294810,note_on,12,0,11,,,,,,,,,10,,,,75,0
294812,control_change,18,0,15,,,,,,,,,14,11,81,,,
294813,note_on,12,0,12,,,,,,,,,11,,,,75,0
294818,note_on,12,0,13,,,,,,,,,12,,,,63,0
294819,control_change,9,0,11,,,,,,,,,10,11,82,,,
294820,control_change,21,0,1,,,,,,,,,0,11,70,,,
294822,note_on,12,0,14,,,,,,,,,13,,,,63,0
294822,control_change,9,0,12,,,,,,,,,11,11,82,,,
294823,control_change,21,0,2,,,,,,,,,1,11,70,,,
294824,control_change,21,0,3,,,,,,,,,2,11,70,,,
294824,note_on,12,0,15,,,,,,,,,14,,,,51,0
294827,control_change,9,0,13,,,,,,,,,12,11,82,,,
294828,control_change,21,0,4,,,,,,,,,3,11,76,,,
294831,control_change,9,0,14,,,,,,,,,13,11,82,,,
294833,control_change,9,0,15,,,,,,,,,14,11,82,,,
294840,control_change,21,0,11,,,,,,,,,10,11,83,,,
294840,note_on,0,0,11,,,,,,,,,10,,,,74,112
294840,set_tempo,120,1,0,,,,,,265487,,,,,,,,
294841,note_on,0,0,1,,,,,,,,,0,,,,83,101
294841,control_change,0,0,1,,,,,,,,,0,11,70,,,
294841,note_on,21,0,1,,,,,,,,,0,,,,86,101
294842,note_on,9360,0,7,,,,,,,,,6,,,,74,112
294842,control_change,0,0,7,,,,,,,,,6,11,82,,,
294843,control_change,0,0,5,,,,,,,,,4,11,82,,,
294843,note_on,0,0,12,,,,,,,,,11,,,,74,112
294843,control_change,21,0,12,,,,,,,,,11,11,83,,,
294843,note_on,5083,0,5,,,,,,,,,4,,,,62,100
294844,note_on,0,0,2,,,,,,,,,1,,,,74,100
294844,control_change,0,0,6,,,,,,,,,5,11,82,,,
294844,note_on,5083,0,6,,,,,,,,,5,,,,62,100
294844,control_change,21,0,2,,,,,,,,,1,11,70,,,
294844,note_on,0,0,2,,,,,,,,,1,,,,79,100
294845,control_change,21,0,3,,,,,,,,,2,11,70,,,
294845,note_on,0,0,3,,,,,,,,,2,,,,83,101
294845,note_on,0,0,3,,,,,,,,,2,,,,79,101
294847,note_on,9360,0,8,,,,,,,,,7,,,,59,110
294847,note_on,0,0,8,,,,,,,,,7,,,,62,110
294847,control_change,0,0,8,,,,,,,,,7,11,82,,,
294848,control_change,21,0,13,,,,,,,,,12,11,83,,,
294848,note_on,0,0,13,,,,,,,,,12,,,,62,112
294849,note_on,21,0,4,,,,,,,,,3,,,,62,100
294849,control_change,0,0,4,,,,,,,,,3,11,77,,,
294852,control_change,0,0,14,,,,,,,,,13,11,83,,,
294852,note_on,21,0,14,,,,,,,,,13,,,,62,112
294853,note_on,9360,0,9,,,,,,,,,8,,,,50,110
294853,control_change,0,0,9,,,,,,,,,8,11,82,,,
294854,control_change,21,0,15,,,,,,,,,14,11,83,,,
294854,note_on,0,0,15,,,,,,,,,14,,,,50,112
294960,note_on,120,0,11,,,,,,,,,10,,,,74,0
294961,note_on,0,0,1,,,,,,,,,0,,,,86,0
294961,note_on,120,0,1,,,,,,,,,0,,,,83,0
294962,note_on,120,0,7,,,,,,,,,6,,,,74,0
294963,note_on,120,0,5,,,,,,,,,4,,,,62,0
294963,note_on,120,0,12,,,,,,,,,11,,,,74,0
294964,note_on,120,0,6,,,,,,,,,5,,,,62,0
294964,note_on,0,0,2,,,,,,,,,1,,,,74,0
294964,note_on,120,0,2,,,,,,,,,1,,,,79,0
294965,note_on,120,0,3,,,,,,,,,2,,,,79,0
294965,note_on,0,0,3,,,,,,,,,2,,,,83,0
294967,note_on,0,0,8,,,,,,,,,7,,,,59,0
294967,note_on,120,0,8,,,,,,,,,7,,,,62,0
294968,note_on,120,0,13,,,,,,,,,12,,,,62,0
294969,note_on,120,0,4,,,,,,,,,3,,,,62,0
294972,note_on,120,0,14,,,,,,,,,13,,,,62,0
294973,note_on,120,0,9,,,,,,,,,8,,,,50,0
294974,note_on,120,0,15,,,,,,,,,14,,,,50,0
295080,set_tempo,240,1,0,,,,,,295567,,,,,,,,
295200,note_on,240,0,11,,,,,,,,,10,,,,78,112
295200,control_change,0,0,11,,,,,,,,,10,11,102,,,
295200,note_on,0,0,11,,,,,,,,,10,,,,69,112
295200,note_on,0,0,11,,,,,,,,,10,,,,62,112
295200,set_tempo,120,1,0,,,,,,265487,,,,,,,,
295201,note_on,0,0,1,,,,,,,,,0,,,,84,101
295201,note_on,0,0,1,,,,,,,,,0,,,,90,101
295201,control_change,240,0,1,,,,,,,,,0,11,86,,,
295202,note_on,0,0,7,,,,,,,,,6,,,,74,112
295202,control_change,240,0,7,,,,,,,,,6,11,102,,,
295203,control_change,0,0,5,,,,,,,,,4,11,102,,,
295203,note_on,240,0,5,,,,,,,,,4,,,,62,100
295203,note_on,0,0,12,,,,,,,,,11,,,,62,112
295203,note_on,0,0,12,,,,,,,,,11,,,,78,112
295203,note_on,240,0,12,,,,,,,,,11,,,,69,112
295203,control_change,0,0,12,,,,,,,,,11,11,102,,,
295204,control_change,0,0,6,,,,,,,,,5,11,102,,,
295204,note_on,240,0,6,,,,,,,,,5,,,,62,100
295204,control_change,0,0,2,,,,,,,,,1,11,86,,,
295204,note_on,0,0,2,,,,,,,,,1,,,,78,100
295204,note_on,240,0,2,,,,,,,,,1,,,,81,100
295205,control_change,0,0,3,,,,,,,,,2,11,86,,,
295205,note_on,0,0,3,,,,,,,,,2,,,,78,101
295205,note_on,240,0,3,,,,,,,,,2,,,,72,101
295207,note_on,0,0,8,,,,,,,,,7,,,,66,110
295207,control_change,0,0,8,,,,,,,,,7,11,102,,,
295207,note_on,240,0,8,,,,,,,,,7,,,,60,110
295208,control_change,0,0,13,,,,,,,,,12,11,102,,,
295208,note_on,240,0,13,,,,,,,,,12,,,,62,112
295209,note_on,0,0,4,,,,,,,,,3,,,,62,100
295209,note_on,240,0,4,,,,,,,,,3,,,,50,100
295209,control_change,0,0,4,,,,,,,,,3,11,97,,,
295212,control_change,240,0,14,,,,,,,,,13,11,102,,,
295212,note_on,0,0,14,,,,,,,,,13,,,,50,112
295213,control_change,0,0,9,,,,,,,,,8,11,102,,,
295213,note_on,240,0,9,,,,,,,,,8,,,,50,110
295214,control_change,0,0,15,,,,,,,,,14,11,102,,,
295214,note_on,240,0,15,,,,,,,,,14,,,,50,112
295320,note_on,0,0,11,,,,,,,,,10,,,,78,0
295320,note_on,0,0,11,,,,,,,,,10,,,,62,0
295320,note_on,120,0,11,,,,,,,,,10,,,,69,0
295321,note_on,0,0,1,,,,,,,,,0,,,,84,0
295321,note_on,120,0,1,,,,,,,,,0,,,,90,0
295322,note_on,120,0,7,,,,,,,,,6,,,,74,0
295323,note_on,0,0,12,,,,,,,,,11,,,,69,0
295323,note_on,120,0,12,,,,,,,,,11,,,,62,0
295323,note_on,0,0,12,,,,,,,,,11,,,,78,0
295323,note_on,120,0,5,,,,,,,,,4,,,,62,0
295324,note_on,120,0,6,,,,,,,,,5,,,,62,0
295324,note_on,0,0,2,,,,,,,,,1,,,,81,0
295324,note_on,120,0,2,,,,,,,,,1,,,,78,0
295325,note_on,120,0,3,,,,,,,,,2,,,,78,0
295325,note_on,0,0,3,,,,,,,,,2,,,,72,0
295327,note_on,0,0,8,,,,,,,,,7,,,,60,0
295327,note_on,120,0,8,,,,,,,,,7,,,,66,0
295328,note_on,120,0,13,,,,,,,,,12,,,,62,0
295329,note_on,0,0,4,,,,,,,,,3,,,,50,0
295329,note_on,120,0,4,,,,,,,,,3,,,,62,0
295332,note_on,120,0,14,,,,,,,,,13,,,,50,0
295333,note_on,120,0,9,,,,,,,,,8,,,,50,0
295334,note_on,120,0,15,,,,,,,,,14,,,,50,0
295440,set_tempo,240,1,0,,,,,,295567,,,,,,,,
295560,note_on,0,0,11,,,,,,,,,10,,,,62,112
295560,set_tempo,120,1,0,,,,,,265487,,,,,,,,
295560,note_on,240,0,11,,,,,,,,,10,,,,55,112
295560,note_on,0,0,11,,,,,,,,,10,,,,71,112
295560,note_on,0,0,11,,,,,,,,,10,,,,79,112
295561,note_on,0,0,1,,,,,,,,,0,,,,91,101
295561,note_on,240,0,1,,,,,,,,,0,,,,83,101
295562,note_on,0,0,7,,,,,,,,,6,,,,67,112
295562,note_on,240,0,7,,,,,,,,,6,,,,74,112
295563,note_on,240,0,12,,,,,,,,,11,,,,62,112
295563,note_on,0,0,12,,,,,,,,,11,,,,79,112
295563,note_on,0,0,12,,,,,,,,,11,,,,71,112
295563,note_on,0,0,12,,,,,,,,,11,,,,55,112
295563,note_on,240,0,5,,,,,,,,,4,,,,62,100
295564,note_on,240,0,6,,,,,,,,,5,,,,55,100
295564,note_on,240,0,2,,,,,,,,,1,,,,83,100
295564,note_on,0,0,2,,,,,,,,,1,,,,79,100
295565,note_on,240,0,3,,,,,,,,,2,,,,71,101
295565,note_on,0,0,3,,,,,,,,,2,,,,79,101
295567,note_on,0,0,8,,,,,,,,,7,,,,67,110
295567,note_on,240,0,8,,,,,,,,,7,,,,59,110
295568,note_on,240,0,13,,,,,,,,,12,,,,55,112
295569,note_on,0,0,4,,,,,,,,,3,,,,59,100
295569,note_on,240,0,4,,,,,,,,,3,,,,55,100
295572,note_on,240,0,14,,,,,,,,,13,,,,55,112
295573,note_on,240,0,9,,,,,,,,,8,,,,43,110
295574,note_on,240,0,15,,,,,,,,,14,,,,43,112
295575,note_on,6000,0,10,,,,,,,,,15,,,,43,92
295595,note_on,30,0,3,,,,,,,,,2,,,,79,0
295599,note_on,30,0,4,,,,,,,,,3,,,,59,0
295625,note_on,30,0,3,,,,,,,,,2,,,,74,101
295629,note_on,30,0,4,,,,,,,,,3,,,,62,100
295680,note_on,120,0,11,,,,,,,,,10,,,,79,0
295680,note_on,0,0,11,,,,,,,,,10,,,,55,0
295680,note_on,0,0,11,,,,,,,,,10,,,,62,0
295680,note_on,0,0,11,,,,,,,,,10,,,,71,0
295681,note_on,120,0,1,,,,,,,,,0,,,,91,0
295681,note_on,0,0,1,,,,,,,,,0,,,,83,0
295682,note_on,120,0,7,,,,,,,,,6,,,,67,0
295682,note_on,0,0,7,,,,,,,,,6,,,,74,0
295683,note_on,120,0,12,,,,,,,,,11,,,,55,0
295683,note_on,0,0,12,,,,,,,,,11,,,,62,0
295683,note_on,120,0,5,,,,,,,,,4,,,,62,0
295683,note_on,0,0,12,,,,,,,,,11,,,,71,0
295683,note_on,0,0,12,,,,,,,,,11,,,,79,0
295684,note_on,0,0,2,,,,,,,,,1,,,,83,0
295684,note_on,120,0,6,,,,,,,,,5,,,,55,0
295684,note_on,120,0,2,,,,,,,,,1,,,,79,0
295685,note_on,0,0,3,,,,,,,,,2,,,,71,0
295685,note_on,60,0,3,,,,,,,,,2,,,,74,0
295685,control_change,0,0,3,,,,,,,,,2,11,47,,,
295685,note_on,0,0,3,,,,,,,,,2,,,,76,101
295687,note_on,0,0,8,,,,,,,,,7,,,,59,0
295687,note_on,120,0,8,,,,,,,,,7,,,,67,0
295688,note_on,120,0,13,,,,,,,,,12,,,,55,0
295689,control_change,0,0,4,,,,,,,,,3,11,47,,,
295689,note_on,60,0,4,,,,,,,,,3,,,,62,0
295689,note_on,0,0,4,,,,,,,,,3,,,,55,0
295689,note_on,0,0,4,,,,,,,,,3,,,,64,100
295692,note_on,120,0,14,,,,,,,,,13,,,,55,0
295693,note_on,120,0,9,,,,,,,,,8,,,,43,0
295694,note_on,120,0,15,,,,,,,,,14,,,,43,0
295695,note_on,120,0,10,,,,,,,,,15,,,,43,0
295745,note_on,60,0,3,,,,,,,,,2,,,,76,0
295745,note_on,0,0,3,,,,,,,,,2,,,,74,101
295749,note_on,60,0,4,,,,,,,,,3,,,,64,0
295749,note_on,0,0,4,,,,,,,,,3,,,,62,100
295800,set_tempo,240,1,0,,,,,,279070,,,,,,,,
295805,note_on,0,0,3,,,,,,,,,2,,,,76,101
295805,note_on,60,0,3,,,,,,,,,2,,,,74,0
295809,note_on,0,0,4,,,,,,,,,3,,,,64,100
295809,note_on,60,0,4,,,,,,,,,3,,,,62,0
295812,note_on,120,0,14,,,,,,,,,13,,,,47,112
295812,control_change,0,0,14,,,,,,,,,13,11,50,,,
295814,note_on,120,0,15,,,,,,,,,14,,,,35,112
295814,control_change,0,0,15,,,,,,,,,14,11,50,,,
295865,note_on,60,0,3,,,,,,,,,2,,,,76,0
295865,note_on,0,0,3,,,,,,,,,2,,,,74,101
295869,note_on,0,0,4,,,,,,,,,3,,,,62,100
295869,note_on,60,0,4,,,,,,,,,3,,,,64,0
295920,set_tempo,120,1,0,,,,,,264901,,,,,,,,
295925,note_on,0,0,3,,,,,,,,,2,,,,71,101
295925,note_on,0,0,3,,,,,,,,,2,,,,74,101
295925,note_on,60,0,3,,,,,,,,,2,,,,74,0
295929,note_on,0,0,4,,,,,,,,,3,,,,62,100
295929,note_on,0,0,4,,,,,,,,,3,,,,59,100
295929,note_on,60,0,4,,,,,,,,,3,,,,62,0
295932,note_on,0,0,14,,,,,,,,,13,,,,50,112
295932,note_on,120,0,14,,,,,,,,,13,,,,47,0
295934,note_on,0,0,15,,,,,,,,,14,,,,38,112
295934,note_on,120,0,15,,,,,,,,,14,,,,35,0
295985,note_on,0,0,3,,,,,,,,,2,,,,74,0
295985,note_on,60,0,3,,,,,,,,,2,,,,71,0
295989,note_on,0,0,4,,,,,,,,,3,,,,62,0
295989,note_on,60,0,4,,,,,,,,,3,,,,59,0
295992,note_on,60,0,14,,,,,,,,,13,,,,50,0
295994,note_on,60,0,15,,,,,,,,,14,,,,38,0
296040,set_tempo,120,1,0,,,,,,272727,,,,,,,,
296045,note_on,60,0,3,,,,,,,,,2,,,,74,101
296045,note_on,0,0,3,,,,,,,,,2,,,,71,101
296049,note_on,60,0,4,,,,,,,,,3,,,,59,100
296049,note_on,0,0,4,,,,,,,,,3,,,,62,100
296052,note_on,60,0,14,,,,,,,,,13,,,,47,112
296054,note_on,60,0,15,,,,,,,,,14,,,,35,112
296105,note_on,0,0,3,,,,,,,,,2,,,,74,0
296105,note_on,60,0,3,,,,,,,,,2,,,,71,0
296109,note_on,60,0,4,,,,,,,,,3,,,,62,0
296109,note_on,0,0,4,,,,,,,,,3,,,,59,0
296112,note_on,60,0,14,,,,,,,,,13,,,,47,0
296114,note_on,60,0,15,,,,,,,,,14,,,,35,0
296160,note_on,480,0,11,,,,,,,,,10,,,,67,112
296160,control_change,0,0,11,,,,,,,,,10,11,50,,,
296160,set_tempo,120,1,0,,,,,,300000,,,,,,,,
296165,note_on,60,0,3,,,,,,,,,2,,,,71,101
296165,note_on,0,0,3,,,,,,,,,2,,,,74,101
296169,note_on,0,0,4,,,,,,,,,3,,,,59,100
296169,note_on,60,0,4,,,,,,,,,3,,,,62,100
296172,note_on,60,0,14,,,,,,,,,13,,,,43,112
296174,note_on,60,0,15,,,,,,,,,14,,,,31,112
296200,note_on,0,0,11,,,,,,,,,10,,,,69,112
296200,note_on,40,0,11,,,,,,,,,10,,,,67,0
296225,note_on,60,0,3,,,,,,,,,2,,,,74,0
296225,note_on,0,0,3,,,,,,,,,2,,,,71,0
296229,note_on,60,0,4,,,,,,,,,3,,,,59,0
296229,note_on,0,0,4,,,,,,,,,3,,,,62,0
296232,note_on,60,0,14,,,,,,,,,13,,,,43,0
296234,note_on,60,0,15,,,,,,,,,14,,,,31,0
296240,note_on,40,0,11,,,,,,,,,10,,,,69,0
296240,note_on,0,0,11,,,,,,,,,10,,,,67,112
296280,note_on,0,0,11,,,,,,,,,10,,,,66,112
296280,control_change,0,0,11,,,,,,,,,10,11,73,,,
296280,set_tempo,120,1,0,,,,,,264901,,,,,,,,
296280,note_on,40,0,11,,,,,,,,,10,,,,67,0
296283,note_on,600,0,5,,,,,,,,,4,,,,62,100
296283,control_change,0,0,5,,,,,,,,,4,11,77,,,
296284,control_change,0,0,6,,,,,,,,,5,11,77,,,
296284,note_on,600,0,6,,,,,,,,,5,,,,62,100
296285,note_on,60,0,3,,,,,,,,,2,,,,72,116
296285,note_on,0,0,3,,,,,,,,,2,,,,74,116
296289,note_on,60,0,4,,,,,,,,,3,,,,60,115
296289,note_on,0,0,4,,,,,,,,,3,,,,62,115
296290,control_change,7,0,5,,,,,,,,,4,11,74,,,
296291,control_change,7,0,6,,,,,,,,,5,11,74,,,
296292,control_change,60,0,14,,,,,,,,,13,11,73,,,
296292,note_on,0,0,14,,,,,,,,,13,,,,50,112
296294,note_on,0,0,15,,,,,,,,,14,,,,38,112
296294,control_change,14,0,11,,,,,,,,,10,11,68,,,
296294,control_change,60,0,15,,,,,,,,,14,11,73,,,
296297,control_change,7,0,5,,,,,,,,,4,11,71,,,
296298,control_change,7,0,6,,,,,,,,,5,11,71,,,
296301,control_change,7,0,11,,,,,,,,,10,11,65,,,
296304,control_change,7,0,5,,,,,,,,,4,11,68,,,
296305,control_change,7,0,6,,,,,,,,,5,11,68,,,
296306,control_change,14,0,14,,,,,,,,,13,11,68,,,
296308,control_change,7,0,11,,,,,,,,,10,11,62,,,
296308,control_change,14,0,15,,,,,,,,,14,11,68,,,
296311,control_change,7,0,5,,,,,,,,,4,11,65,,,
296312,control_change,7,0,6,,,,,,,,,5,11,65,,,
296313,control_change,7,0,14,,,,,,,,,13,11,65,,,
296315,control_change,7,0,15,,,,,,,,,14,11,65,,,
296316,control_change,8,0,11,,,,,,,,,10,11,59,,,
296319,control_change,8,0,5,,,,,,,,,4,11,62,,,
296320,control_change,8,0,6,,,,,,,,,5,11,62,,,
296320,control_change,7,0,14,,,,,,,,,13,11,62,,,
296322,control_change,7,0,15,,,,,,,,,14,11,62,,,
296326,control_change,7,0,5,,,,,,,,,4,11,59,,,
296327,control_change,7,0,6,,,,,,,,,5,11,59,,,
296328,control_change,8,0,14,,,,,,,,,13,11,59,,,
296330,control_change,14,0,11,,,,,,,,,10,11,54,,,
296330,control_change,8,0,15,,,,,,,,,14,11,59,,,
296333,control_change,7,0,5,,,,,,,,,4,11,56,,,
296334,control_change,7,0,6,,,,,,,,,5,11,56,,,
296337,control_change,7,0,11,,,,,,,,,10,11,51,,,
296340,control_change,7,0,5,,,,,,,,,4,11,53,,,
296341,control_change,7,0,6,,,,,,,,,5,11,53,,,
296342,control_change,14,0,14,,,,,,,,,13,11,54,,,
296344,control_change,14,0,15,,,,,,,,,14,11,54,,,
296344,control_change,4,0,5,,,,,,,,,4,11,78,,,
296345,control_change,4,0,6,,,,,,,,,5,11,78,,,
296349,control_change,7,0,14,,,,,,,,,13,11,51,,,
296351,control_change,7,0,15,,,,,,,,,14,11,51,,,
296365,control_change,21,0,5,,,,,,,,,4,11,75,,,
296366,control_change,21,0,6,,,,,,,,,5,11,75,,,
296385,control_change,20,0,5,,,,,,,,,4,11,72,,,
296386,control_change,20,0,6,,,,,,,,,5,11,72,,,
296400,set_tempo,120,1,0,,,,,,272727,,,,,,,,
296406,control_change,21,0,5,,,,,,,,,4,11,69,,,
296407,control_change,21,0,6,,,,,,,,,5,11,69,,,
296412,note_on,63,0,14,,,,,,,,,13,,,,50,0
296414,note_on,63,0,15,,,,,,,,,14,,,,38,0
296427,control_change,21,0,5,,,,,,,,,4,11,66,,,
296428,control_change,21,0,6,,,,,,,,,5,11,66,,,
296447,control_change,20,0,5,,,,,,,,,4,11,63,,,
296448,control_change,20,0,6,,,,,,,,,5,11,63,,,
296468,control_change,21,0,5,,,,,,,,,4,11,60,,,
296469,control_change,21,0,6,,,,,,,,,5,11,60,,,
296488,control_change,20,0,5,,,,,,,,,4,11,57,,,
296489,control_change,20,0,6,,,,,,,,,5,11,57,,,
296509,control_change,21,0,5,,,,,,,,,4,11,54,,,
296510,control_change,21,0,6,,,,,,,,,5,11,54,,,
296520,note_on,0,0,11,,,,,,,,,10,,,,69,112
296520,note_on,183,0,11,,,,,,,,,10,,,,66,0
296520,set_tempo,120,1,0,,,,,,300000,,,,,,,,
296630,note_on,110,0,11,,,,,,,,,10,,,,69,0
296640,note_on,10,0,11,,,,,,,,,10,,,,74,112
296640,set_tempo,120,1,0,,,,,,264901,,,,,,,,
296760,set_tempo,120,1,0,,,,,,272727,,,,,,,,
296880,note_on,240,0,11,,,,,,,,,10,,,,74,0
296880,note_on,0,0,11,,,,,,,,,10,,,,78,112
296880,set_tempo,120,1,0,,,,,,300000,,,,,,,,
296990,note_on,110,0,11,,,,,,,,,10,,,,78,0
297000,set_tempo,120,1,0,,,,,,264901,,,,,,,,
297000,note_on,10,0,11,,,,,,,,,10,,,,81,127
297003,note_on,0,0,5,,,,,,,,,4,,,,62,115
297003,note_on,494,0,5,,,,,,,,,4,,,,62,0
297004,note_on,494,0,6,,,,,,,,,5,,,,62,0
297004,note_on,0,0,6,,,,,,,,,5,,,,62,115
297005,note_on,720,0,3,,,,,,,,,2,,,,74,0
297005,note_on,0,0,3,,,,,,,,,2,,,,72,101
297005,control_change,0,0,3,,,,,,,,,2,11,70,,,
297005,note_on,0,0,3,,,,,,,,,2,,,,72,0
297005,note_on,0,0,3,,,,,,,,,2,,,,74,101
297009,note_on,0,0,4,,,,,,,,,3,,,,60,0
297009,note_on,0,0,4,,,,,,,,,3,,,,62,115
297009,note_on,0,0,4,,,,,,,,,3,,,,57,115
297009,note_on,720,0,4,,,,,,,,,3,,,,62,0
297012,note_on,600,0,14,,,,,,,,,13,,,,54,127
297014,note_on,600,0,15,,,,,,,,,14,,,,38,112
297035,note_on,30,0,3,,,,,,,,,2,,,,74,0
297065,note_on,30,0,3,,,,,,,,,2,,,,74,101
297095,note_on,30,0,3,,,,,,,,,2,,,,74,0
297120,set_tempo,120,1,0,,,,,,272727,,,,,,,,
297123,control_change,1440,0,12,,,,,,,,,11,11,50,,,
297123,note_on,0,0,12,,,,,,,,,11,,,,72,127
297125,note_on,30,0,3,,,,,,,,,2,,,,76,101
297128,note_on,0,0,13,,,,,,,,,12,,,,66,127
297128,control_change,1440,0,13,,,,,,,,,12,11,50,,,
297134,note_on,120,0,15,,,,,,,,,14,,,,38,0
297185,note_on,0,0,3,,,,,,,,,2,,,,74,101
297185,note_on,60,0,3,,,,,,,,,2,,,,76,0
297240,note_on,0,0,11,,,,,,,,,10,,,,78,112
297240,note_on,240,0,11,,,,,,,,,10,,,,81,0
297240,set_tempo,120,1,0,,,,,,300000,,,,,,,,
297243,note_on,120,0,12,,,,,,,,,11,,,,72,0
297243,note_on,0,0,12,,,,,,,,,11,,,,62,112
297245,note_on,60,0,3,,,,,,,,,2,,,,74,0
297245,note_on,0,0,3,,,,,,,,,2,,,,76,101
297248,note_on,120,0,13,,,,,,,,,12,,,,66,0
297248,note_on,0,0,13,,,,,,,,,12,,,,62,112
297252,note_on,0,0,14,,,,,,,,,13,,,,57,112
297252,note_on,240,0,14,,,,,,,,,13,,,,54,0
297303,note_on,60,0,12,,,,,,,,,11,,,,62,0
297303,note_on,300,0,5,,,,,,,,,4,,,,62,0
297304,note_on,300,0,6,,,,,,,,,5,,,,62,0
297305,note_on,0,0,3,,,,,,,,,2,,,,74,101
297305,note_on,60,0,3,,,,,,,,,2,,,,76,0
297308,note_on,60,0,13,,,,,,,,,12,,,,62,0
297350,note_on,110,0,11,,,,,,,,,10,,,,78,0
297360,note_on,10,0,11,,,,,,,,,10,,,,81,112
297360,set_tempo,120,1,0,,,,,,264901,,,,,,,,
297363,note_on,60,0,5,,,,,,,,,4,,,,62,115
297364,note_on,60,0,6,,,,,,,,,5,,,,62,115
297365,note_on,0,0,3,,,,,,,,,2,,,,71,101
297365,note_on,0,0,3,,,,,,,,,2,,,,72,0
297365,note_on,60,0,3,,,,,,,,,2,,,,74,0
297365,note_on,0,0,3,,,,,,,,,2,,,,74,101
297369,note_on,0,0,4,,,,,,,,,3,,,,62,115
297369,note_on,0,0,4,,,,,,,,,3,,,,57,0
297369,note_on,360,0,4,,,,,,,,,3,,,,62,0
297369,note_on,0,0,4,,,,,,,,,3,,,,59,115
297372,note_on,120,0,14,,,,,,,,,13,,,,57,0
297372,note_on,0,0,14,,,,,,,,,13,,,,59,112
297374,note_on,240,0,15,,,,,,,,,14,,,,43,112
297420,note_on,0,0,11,,,,,,,,,10,,,,79,112
297420,note_on,60,0,11,,,,,,,,,10,,,,81,0
297425,note_on,0,0,3,,,,,,,,,2,,,,71,0
297425,note_on,60,0,3,,,,,,,,,2,,,,74,0
297480,set_tempo,120,1,0,,,,,,272727,,,,,,,,
297480,note_on,60,0,11,,,,,,,,,10,,,,79,0
297480,note_on,0,0,11,,,,,,,,,10,,,,78,112
297483,note_on,180,0,12,,,,,,,,,11,,,,71,127
297485,note_on,60,0,3,,,,,,,,,2,,,,74,101
297485,note_on,0,0,3,,,,,,,,,2,,,,71,101
297488,note_on,180,0,13,,,,,,,,,12,,,,67,127
297492,note_on,0,0,14,,,,,,,,,13,,,,62,112
297492,note_on,120,0,14,,,,,,,,,13,,,,59,0
297494,note_on,120,0,15,,,,,,,,,14,,,,43,0
297540,note_on,60,0,11,,,,,,,,,10,,,,78,0
297540,note_on,0,0,11,,,,,,,,,10,,,,76,112
297545,note_on,0,0,3,,,,,,,,,2,,,,74,0
297545,note_on,60,0,3,,,,,,,,,2,,,,71,0
297600,note_on,60,0,11,,,,,,,,,10,,,,76,0
297600,note_on,0,0,11,,,,,,,,,10,,,,74,112
297600,set_tempo,120,1,0,,,,,,300000,,,,,,,,
297603,note_on,120,0,12,,,,,,,,,11,,,,71,0
297603,note_on,0,0,12,,,,,,,,,11,,,,62,112
297605,note_on,60,0,3,,,,,,,,,2,,,,71,101
297605,note_on,0,0,3,,,,,,,,,2,,,,74,101
297608,note_on,120,0,13,,,,,,,,,12,,,,67,0
297608,note_on,0,0,13,,,,,,,,,12,,,,62,112
297612,note_on,0,0,14,,,,,,,,,13,,,,71,112
297612,note_on,120,0,14,,,,,,,,,13,,,,62,0
297663,note_on,300,0,5,,,,,,,,,4,,,,62,0
297663,note_on,60,0,12,,,,,,,,,11,,,,62,0
297664,note_on,300,0,6,,,,,,,,,5,,,,62,0
297665,note_on,0,0,3,,,,,,,,,2,,,,71,0
297665,note_on,60,0,3,,,,,,,,,2,,,,74,0
297668,note_on,60,0,13,,,,,,,,,12,,,,62,0
297710,note_on,110,0,11,,,,,,,,,10,,,,74,0
297720,set_tempo,120,1,0,,,,,,264901,,,,,,,,
297720,note_on,10,0,11,,,,,,,,,10,,,,74,112
297722,note_on,110,0,14,,,,,,,,,13,,,,71,0
297723,note_on,60,0,5,,,,,,,,,4,,,,62,115
297724,note_on,60,0,6,,,,,,,,,5,,,,62,115
297725,note_on,0,0,3,,,,,,,,,2,,,,69,101
297725,note_on,0,0,3,,,,,,,,,2,,,,74,101
297725,control_change,60,0,3,,,,,,,,,2,11,47,,,
297729,note_on,360,0,4,,,,,,,,,3,,,,62,0
297729,control_change,0,0,4,,,,,,,,,3,11,77,,,
297729,note_on,0,0,4,,,,,,,,,3,,,,59,0
297729,note_on,0,0,4,,,,,,,,,3,,,,60,100
297729,note_on,0,0,4,,,,,,,,,3,,,,62,100
297732,note_on,10,0,14,,,,,,,,,13,,,,69,127
297734,note_on,240,0,15,,,,,,,,,14,,,,38,112
297750,note_on,30,0,11,,,,,,,,,10,,,,74,0
297750,note_on,0,0,11,,,,,,,,,10,,,,72,112
297759,note_on,30,0,4,,,,,,,,,3,,,,62,0
297780,note_on,30,0,11,,,,,,,,,10,,,,72,0
297789,note_on,30,0,4,,,,,,,,,3,,,,62,100
297819,note_on,30,0,4,,,,,,,,,3,,,,62,0
297840,note_on,60,0,11,,,,,,,,,10,,,,72,112
297840,set_tempo,120,1,0,,,,,,272727,,,,,,,,
297843,note_on,180,0,12,,,,,,,,,11,,,,66,112
297848,note_on,180,0,13,,,,,,,,,12,,,,60,112
297849,note_on,30,0,4,,,,,,,,,3,,,,64,100
297854,note_on,120,0,15,,,,,,,,,14,,,,38,0
297900,note_on,60,0,11,,,,,,,,,10,,,,72,0
297909,note_on,0,0,4,,,,,,,,,3,,,,62,100
297909,note_on,60,0,4,,,,,,,,,3,,,,64,0
297960,note_on,60,0,11,,,,,,,,,10,,,,72,112
297960,set_tempo,120,1,0,,,,,,300000,,,,,,,,
297963,note_on,0,0,12,,,,,,,,,11,,,,62,112
297963,note_on,120,0,12,,,,,,,,,11,,,,66,0
297968,note_on,0,0,13,,,,,,,,,12,,,,62,112
297968,note_on,120,0,13,,,,,,,,,12,,,,60,0
297969,note_on,0,0,4,,,,,,,,,3,,,,64,100
297969,note_on,60,0,4,,,,,,,,,3,,,,62,0
297972,note_on,240,0,14,,,,,,,,,13,,,,69,0
297972,note_on,0,0,14,,,,,,,,,13,,,,66,112
298020,note_on,60,0,11,,,,,,,,,10,,,,72,0
298020,note_on,0,0,11,,,,,,,,,10,,,,74,112
298023,note_on,60,0,12,,,,,,,,,11,,,,62,0
298023,note_on,300,0,5,,,,,,,,,4,,,,62,0
298024,note_on,300,0,6,,,,,,,,,5,,,,62,0
298028,note_on,60,0,13,,,,,,,,,12,,,,62,0
298029,note_on,60,0,4,,,,,,,,,3,,,,64,0
298029,note_on,0,0,4,,,,,,,,,3,,,,62,100
298078,note_on,58,0,11,,,,,,,,,10,,,,74,0
298080,note_on,2,0,11,,,,,,,,,10,,,,71,112
298080,set_tempo,120,1,0,,,,,,264901,,,,,,,,
298082,note_on,110,0,14,,,,,,,,,13,,,,66,0
298083,note_on,60,0,5,,,,,,,,,4,,,,62,115
298084,note_on,60,0,6,,,,,,,,,5,,,,62,115
298085,note_on,360,0,3,,,,,,,,,2,,,,69,0
298085,note_on,0,0,3,,,,,,,,,2,,,,74,0
298085,note_on,0,0,3,,,,,,,,,2,,,,71,101
298085,note_on,0,0,3,,,,,,,,,2,,,,74,101
298089,note_on,0,0,4,,,,,,,,,3,,,,59,100
298089,note_on,0,0,4,,,,,,,,,3,,,,62,100
298089,note_on,60,0,4,,,,,,,,,3,,,,62,0
298089,note_on,0,0,4,,,,,,,,,3,,,,60,0
298092,note_on,10,0,14,,,,,,,,,13,,,,69,112
298094,note_on,240,0,15,,,,,,,,,14,,,,43,112
298149,note_on,60,0,4,,,,,,,,,3,,,,62,0
298149,note_on,0,0,4,,,,,,,,,3,,,,59,0
298152,note_on,0,0,14,,,,,,,,,13,,,,67,112
298152,note_on,60,0,14,,,,,,,,,13,,,,69,0
298200,set_tempo,120,1,0,,,,,,272727,,,,,,,,
298200,note_on,0,0,11,,,,,,,,,10,,,,74,112
298200,note_on,120,0,11,,,,,,,,,10,,,,71,0
298203,note_on,180,0,12,,,,,,,,,11,,,,67,112
298208,note_on,180,0,13,,,,,,,,,12,,,,59,112
298209,note_on,0,0,4,,,,,,,,,3,,,,59,100
298209,note_on,60,0,4,,,,,,,,,3,,,,62,100
298212,note_on,60,0,14,,,,,,,,,13,,,,67,0
298212,note_on,0,0,14,,,,,,,,,13,,,,66,112
298214,note_on,120,0,15,,,,,,,,,14,,,,43,0
298269,note_on,60,0,4,,,,,,,,,3,,,,59,0
298269,note_on,0,0,4,,,,,,,,,3,,,,62,0
298272,note_on,60,0,14,,,,,,,,,13,,,,66,0
298272,note_on,0,0,14,,,,,,,,,13,,,,64,112
298320,note_on,0,0,11,,,,,,,,,10,,,,83,112
298320,note_on,120,0,11,,,,,,,,,10,,,,74,0
298320,set_tempo,120,1,0,,,,,,300000,,,,,,,,
298323,note_on,0,0,12,,,,,,,,,11,,,,62,112
298323,note_on,120,0,12,,,,,,,,,11,,,,67,0
298328,note_on,120,0,13,,,,,,,,,12,,,,59,0
298328,note_on,0,0,13,,,,,,,,,12,,,,62,112
298329,note_on,60,0,4,,,,,,,,,3,,,,59,100
298329,note_on,0,0,4,,,,,,,,,3,,,,62,100
298332,note_on,60,0,14,,,,,,,,,13,,,,64,0
298332,note_on,0,0,14,,,,,,,,,13,,,,62,112
298383,note_on,300,0,5,,,,,,,,,4,,,,62,0
298383,note_on,60,0,12,,,,,,,,,11,,,,62,0
298384,note_on,300,0,6,,,,,,,,,5,,,,62,0
298388,note_on,60,0,13,,,,,,,,,12,,,,62,0
298389,note_on,0,0,4,,,,,,,,,3,,,,59,0
298389,note_on,60,0,4,,,,,,,,,3,,,,62,0
298430,note_on,110,0,11,,,,,,,,,10,,,,83,0
298440,set_tempo,120,1,0,,,,,,264901,,,,,,,,
298440,note_on,10,0,11,,,,,,,,,10,,,,81,112
298442,note_on,110,0,14,,,,,,,,,13,,,,62,0
298443,note_on,60,0,5,,,,,,,,,4,,,,62,115
298444,note_on,60,0,6,,,,,,,,,5,,,,62,115
298445,note_on,0,0,3,,,,,,,,,2,,,,74,0
298445,note_on,0,0,3,,,,,,,,,2,,,,72,101
298445,note_on,0,0,3,,,,,,,,,2,,,,74,101
298445,control_change,0,0,3,,,,,,,,,2,11,70,,,
298445,note_on,360,0,3,,,,,,,,,2,,,,71,0
298449,note_on,60,0,4,,,,,,,,,3,,,,62,100
298449,note_on,0,0,4,,,,,,,,,3,,,,57,100
298449,control_change,0,0,4,,,,,,,,,3,11,47,,,
298452,note_on,10,0,14,,,,,,,,,13,,,,62,112
298454,note_on,240,0,15,,,,,,,,,14,,,,38,112
298475,note_on,30,0,3,,,,,,,,,2,,,,74,0
298482,note_on,0,0,14,,,,,,,,,13,,,,60,112
298482,note_on,30,0,14,,,,,,,,,13,,,,62,0
298505,note_on,30,0,3,,,,,,,,,2,,,,74,101
298527,note_on,45,0,14,,,,,,,,,13,,,,60,0
298535,note_on,30,0,3,,,,,,,,,2,,,,74,0
298560,set_tempo,120,1,0,,,,,,272727,,,,,,,,
298563,note_on,180,0,12,,,,,,,,,11,,,,72,112
298565,note_on,30,0,3,,,,,,,,,2,,,,76,101
298568,note_on,180,0,13,,,,,,,,,12,,,,66,112
298572,note_on,45,0,14,,,,,,,,,13,,,,60,112
298574,note_on,120,0,15,,,,,,,,,14,,,,38,0
298625,note_on,60,0,3,,,,,,,,,2,,,,76,0
298625,note_on,0,0,3,,,,,,,,,2,,,,74,101
298662,note_on,90,0,14,,,,,,,,,13,,,,60,0
298680,set_tempo,120,1,0,,,,,,300000,,,,,,,,
298680,note_on,240,0,11,,,,,,,,,10,,,,81,0
298680,note_on,0,0,11,,,,,,,,,10,,,,78,112
298683,note_on,120,0,12,,,,,,,,,11,,,,72,0
298683,note_on,0,0,12,,,,,,,,,11,,,,62,112
298685,note_on,60,0,3,,,,,,,,,2,,,,74,0
298685,note_on,0,0,3,,,,,,,,,2,,,,76,101
298688,note_on,0,0,13,,,,,,,,,12,,,,62,112
298688,note_on,120,0,13,,,,,,,,,12,,,,66,0
298692,note_on,30,0,14,,,,,,,,,13,,,,60,112
298743,note_on,300,0,5,,,,,,,,,4,,,,62,0
298743,note_on,60,0,12,,,,,,,,,11,,,,62,0
298744,note_on,300,0,6,,,,,,,,,5,,,,62,0
298745,note_on,0,0,3,,,,,,,,,2,,,,74,101
298745,note_on,60,0,3,,,,,,,,,2,,,,76,0
298748,note_on,60,0,13,,,,,,,,,12,,,,62,0
298752,note_on,0,0,14,,,,,,,,,13,,,,62,112
298752,note_on,60,0,14,,,,,,,,,13,,,,60,0
298790,note_on,110,0,11,,,,,,,,,10,,,,78,0
298800,note_on,10,0,11,,,,,,,,,10,,,,81,112
298800,set_tempo,120,1,0,,,,,,264901,,,,,,,,
298803,note_on,60,0,5,,,,,,,,,4,,,,62,115
298804,note_on,60,0,6,,,,,,,,,5,,,,62,115
298805,note_on,0,0,3,,,,,,,,,2,,,,74,101
298805,note_on,0,0,3,,,,,,,,,2,,,,72,0
298805,note_on,60,0,3,,,,,,,,,2,,,,74,0
298805,note_on,0,0,3,,,,,,,,,2,,,,71,101
298809,note_on,0,0,4,,,,,,,,,3,,,,62,0
298809,note_on,0,0,4,,,,,,,,,3,,,,62,100
298809,note_on,0,0,4,,,,,,,,,3,,,,59,100
298809,note_on,360,0,4,,,,,,,,,3,,,,57,0
298810,note_on,58,0,14,,,,,,,,,13,,,,62,0
298812,note_on,2,0,14,,,,,,,,,13,,,,59,112
298814,note_on,240,0,15,,,,,,,,,14,,,,43,112
298860,note_on,60,0,11,,,,,,,,,10,,,,81,0
298860,note_on,0,0,11,,,,,,,,,10,,,,79,112
298865,note_on,0,0,3,,,,,,,,,2,,,,74,0
298865,note_on,60,0,3,,,,,,,,,2,,,,71,0
298920,note_on,0,0,11,,,,,,,,,10,,,,78,112
298920,note_on,60,0,11,,,,,,,,,10,,,,79,0
298920,set_tempo,120,1,0,,,,,,272727,,,,,,,,
298923,note_on,180,0,12,,,,,,,,,11,,,,71,112
298925,note_on,0,0,3,,,,,,,,,2,,,,74,101
298925,note_on,60,0,3,,,,,,,,,2,,,,71,101
298928,note_on,180,0,13,,,,,,,,,12,,,,67,112
298932,note_on,0,0,14,,,,,,,,,13,,,,62,112
298932,note_on,120,0,14,,,,,,,,,13,,,,59,0
298934,note_on,120,0,15,,,,,,,,,14,,,,43,0
298980,note_on,0,0,11,,,,,,,,,10,,,,76,112
298980,note_on,60,0,11,,,,,,,,,10,,,,78,0
298985,note_on,0,0,3,,,,,,,,,2,,,,71,0
298985,note_on,60,0,3,,,,,,,,,2,,,,74,0
299040,note_on,0,0,11,,,,,,,,,10,,,,74,112
299040,note_on,60,0,11,,,,,,,,,10,,,,76,0
299040,set_tempo,120,1,0,,,,,,300000,,,,,,,,
299043,note_on,120,0,12,,,,,,,,,11,,,,71,0
299043,note_on,0,0,12,,,,,,,,,11,,,,62,112
299045,note_on,0,0,3,,,,,,,,,2,,,,71,101
299045,note_on,60,0,3,,,,,,,,,2,,,,74,101
299048,note_on,120,0,13,,,,,,,,,12,,,,67,0
299048,note_on,0,0,13,,,,,,,,,12,,,,62,112
299052,note_on,120,0,14,,,,,,,,,13,,,,62,0
299052,note_on,0,0,14,,,,,,,,,13,,,,71,112
299103,note_on,300,0,5,,,,,,,,,4,,,,62,0
299103,note_on,60,0,12,,,,,,,,,11,,,,62,0
299104,note_on,300,0,6,,,,,,,,,5,,,,62,0
299105,note_on,0,0,3,,,,,,,,,2,,,,74,0
299105,note_on,60,0,3,,,,,,,,,2,,,,71,0
299108,note_on,60,0,13,,,,,,,,,12,,,,62,0
299150,note_on,110,0,11,,,,,,,,,10,,,,74,0
299160,set_tempo,120,1,0,,,,,,264901,,,,,,,,
299160,note_on,10,0,11,,,,,,,,,10,,,,74,112
299162,note_on,110,0,14,,,,,,,,,13,,,,71,0
299163,note_on,60,0,5,,,,,,,,,4,,,,62,115
299164,note_on,60,0,6,,,,,,,,,5,,,,62,115
299165,note_on,60,0,3,,,,,,,,,2,,,,74,101
299165,control_change,0,0,3,,,,,,,,,2,11,47,,,
299165,note_on,0,0,3,,,,,,,,,2,,,,69,101
299169,note_on,0,0,4,,,,,,,,,3,,,,62,100
299169,control_change,0,0,4,,,,,,,,,3,11,77,,,
299169,note_on,360,0,4,,,,,,,,,3,,,,59,0
299169,note_on,0,0,4,,,,,,,,,3,,,,62,0
299169,note_on,0,0,4,,,,,,,,,3,,,,60,100
299172,note_on,10,0,14,,,,,,,,,13,,,,69,127
299174,note_on,240,0,15,,,,,,,,,14,,,,38,112
299190,note_on,30,0,11,,,,,,,,,10,,,,74,0
299190,note_on,0,0,11,,,,,,,,,10,,,,72,112
299199,note_on,30,0,4,,,,,,,,,3,,,,62,0
299220,note_on,30,0,11,,,,,,,,,10,,,,72,0
299229,note_on,30,0,4,,,,,,,,,3,,,,62,100
299259,note_on,30,0,4,,,,,,,,,3,,,,62,0
299280,set_tempo,120,1,0,,,,,,272727,,,,,,,,
299280,note_on,60,0,11,,,,,,,,,10,,,,72,112
299283,note_on,180,0,12,,,,,,,,,11,,,,66,112
299288,note_on,180,0,13,,,,,,,,,12,,,,60,112
299289,note_on,30,0,4,,,,,,,,,3,,,,64,100
299294,note_on,120,0,15,,,,,,,,,14,,,,38,0
299340,note_on,60,0,11,,,,,,,,,10,,,,72,0
299349,note_on,60,0,4,,,,,,,,,3,,,,64,0
299349,note_on,0,0,4,,,,,,,,,3,,,,62,100
299400,note_on,60,0,11,,,,,,,,,10,,,,72,112
299400,set_tempo,120,1,0,,,,,,300000,,,,,,,,
299403,note_on,120,0,12,,,,,,,,,11,,,,66,0
299403,note_on,0,0,12,,,,,,,,,11,,,,62,112
299406,note_on,0,0,3,,,,,,,,,2,,,,74,0
299406,note_on,241,0,3,,,,,,,,,2,,,,69,0
299408,note_on,0,0,13,,,,,,,,,12,,,,62,112
299408,note_on,120,0,13,,,,,,,,,12,,,,60,0
299409,note_on,60,0,4,,,,,,,,,3,,,,62,0
299409,note_on,0,0,4,,,,,,,,,3,,,,64,100
299412,note_on,240,0,14,,,,,,,,,13,,,,69,0
299412,note_on,0,0,14,,,,,,,,,13,,,,66,112
299460,note_on,0,0,11,,,,,,,,,10,,,,74,112
299460,note_on,60,0,11,,,,,,,,,10,,,,72,0
299463,note_on,300,0,5,,,,,,,,,4,,,,62,0
299463,note_on,60,0,12,,,,,,,,,11,,,,62,0
299464,note_on,300,0,6,,,,,,,,,5,,,,62,0
299468,note_on,60,0,13,,,,,,,,,12,,,,62,0
299469,note_on,0,0,4,,,,,,,,,3,,,,62,100
299469,note_on,60,0,4,,,,,,,,,3,,,,64,0
299518,note_on,58,0,11,,,,,,,,,10,,,,74,0
299520,note_on,2,0,11,,,,,,,,,10,,,,71,112
299520,set_tempo,120,1,0,,,,,,264901,,,,,,,,
299522,note_on,110,0,14,,,,,,,,,13,,,,66,0
299523,note_on,60,0,5,,,,,,,,,4,,,,62,115
299524,note_on,60,0,6,,,,,,,,,5,,,,62,115
299525,note_on,119,0,3,,,,,,,,,2,,,,74,101
299525,note_on,0,0,3,,,,,,,,,2,,,,71,101
299529,note_on,60,0,4,,,,,,,,,3,,,,62,0
299529,note_on,0,0,4,,,,,,,,,3,,,,60,0
299529,note_on,0,0,4,,,,,,,,,3,,,,59,100
299529,note_on,0,0,4,,,,,,,,,3,,,,62,100
299532,note_on,10,0,14,,,,,,,,,13,,,,69,112
299534,note_on,240,0,15,,,,,,,,,14,,,,43,112
299589,note_on,60,0,4,,,,,,,,,3,,,,62,0
299589,note_on,0,0,4,,,,,,,,,3,,,,59,0
299592,note_on,60,0,14,,,,,,,,,13,,,,69,0
299592,note_on,0,0,14,,,,,,,,,13,,,,67,112
299640,note_on,120,0,11,,,,,,,,,10,,,,71,0
299640,note_on,0,0,11,,,,,,,,,10,,,,74,112
299640,set_tempo,120,1,0,,,,,,272727,,,,,,,,
299643,note_on,180,0,12,,,,,,,,,11,,,,67,112
299648,note_on,180,0,13,,,,,,,,,12,,,,59,112
299649,note_on,60,0,4,,,,,,,,,3,,,,59,100
299649,note_on,0,0,4,,,,,,,,,3,,,,62,100
299652,note_on,0,0,14,,,,,,,,,13,,,,66,112
299652,note_on,60,0,14,,,,,,,,,13,,,,67,0
299654,note_on,120,0,15,,,,,,,,,14,,,,43,0
299709,note_on,60,0,4,,,,,,,,,3,,,,62,0
299709,note_on,0,0,4,,,,,,,,,3,,,,59,0
299712,note_on,0,0,14,,,,,,,,,13,,,,64,112
299712,note_on,60,0,14,,,,,,,,,13,,,,66,0
299760,note_on,120,0,11,,,,,,,,,10,,,,74,0
299760,set_tempo,120,1,0,,,,,,333333,,,,,,,,
299760,note_on,0,0,11,,,,,,,,,10,,,,83,112
299763,note_on,120,0,12,,,,,,,,,11,,,,67,0
299763,note_on,0,0,12,,,,,,,,,11,,,,62,112
299768,note_on,0,0,13,,,,,,,,,12,,,,62,112
299768,note_on,120,0,13,,,,,,,,,12,,,,59,0
299769,note_on,0,0,4,,,,,,,,,3,,,,59,100
299769,note_on,60,0,4,,,,,,,,,3,,,,62,100
299772,note_on,0,0,14,,,,,,,,,13,,,,62,112
299772,note_on,60,0,14,,,,,,,,,13,,,,64,0
299823,note_on,300,0,5,,,,,,,,,4,,,,62,0
299823,note_on,60,0,12,,,,,,,,,11,,,,62,0
299824,note_on,300,0,6,,,,,,,,,5,,,,62,0
299828,note_on,60,0,13,,,,,,,,,12,,,,62,0
299829,note_on,0,0,4,,,,,,,,,3,,,,62,0
299829,note_on,60,0,4,,,,,,,,,3,,,,59,0
299870,note_on,110,0,11,,,,,,,,,10,,,,83,0
299880,set_tempo,120,1,0,,,,,,264901,,,,,,,,
299880,note_on,10,0,11,,,,,,,,,10,,,,81,112
299880,control_change,0,0,11,,,,,,,,,10,11,27,,,
299882,note_on,110,0,14,,,,,,,,,13,,,,62,0
299883,control_change,60,0,12,,,,,,,,,11,11,27,,,
299883,note_on,0,0,12,,,,,,,,,11,,,,81,112
299885,note_on,360,0,3,,,,,,,,,2,,,,71,0
299885,control_change,0,0,3,,,,,,,,,2,11,32,,,
299885,note_on,0,0,3,,,,,,,,,2,,,,74,101
299885,note_on,0,0,3,,,,,,,,,2,,,,72,101
299885,note_on,0,0,3,,,,,,,,,2,,,,74,0
299888,control_change,0,0,13,,,,,,,,,12,11,27,,,
299888,note_on,60,0,13,,,,,,,,,12,,,,69,112
299889,control_change,60,0,4,,,,,,,,,3,11,32,,,
299889,note_on,0,0,4,,,,,,,,,3,,,,60,100
299889,note_on,0,0,4,,,,,,,,,3,,,,62,100
299892,control_change,10,0,14,,,,,,,,,13,11,27,,,
299892,note_on,0,0,14,,,,,,,,,13,,,,57,112
299894,control_change,0,0,15,,,,,,,,,14,11,27,,,
299894,note_on,240,0,15,,,,,,,,,14,,,,45,112
299898,control_change,18,0,11,,,,,,,,,10,11,29,,,
299901,control_change,18,0,12,,,,,,,,,11,11,29,,,
299903,control_change,18,0,3,,,,,,,,,2,11,35,,,
299906,control_change,18,0,13,,,,,,,,,12,11,29,,,
299907,control_change,18,0,4,,,,,,,,,3,11,35,,,
299910,control_change,18,0,14,,,,,,,,,13,11,29,,,
299912,control_change,18,0,15,,,,,,,,,14,11,29,,,
299915,note_on,12,0,3,,,,,,,,,2,,,,74,0
299916,control_change,18,0,11,,,,,,,,,10,11,32,,,
299919,control_change,18,0,12,,,,,,,,,11,11,32,,,
299919,note_on,12,0,4,,,,,,,,,3,,,,62,0
299921,control_change,6,0,3,,,,,,,,,2,11,38,,,
299924,control_change,18,0,13,,,,,,,,,12,11,32,,,
299925,control_change,6,0,4,,,,,,,,,3,11,38,,,
299928,control_change,18,0,14,,,,,,,,,13,11,32,,,
299930,control_change,18,0,15,,,,,,,,,14,11,32,,,
299934,control_change,18,0,11,,,,,,,,,10,11,35,,,
299937,control_change,18,0,12,,,,,,,,,11,11,35,,,
299939,control_change,18,0,3,,,,,,,,,2,11,41,,,
299942,control_change,18,0,13,,,,,,,,,12,11,35,,,
299943,control_change,18,0,4,,,,,,,,,3,11,41,,,
299945,note_on,6,0,3,,,,,,,,,2,,,,74,101
299946,control_change,18,0,14,,,,,,,,,13,11,35,,,
299948,control_change,18,0,15,,,,,,,,,14,11,35,,,
299949,note_on,6,0,4,,,,,,,,,3,,,,62,100
299957,control_change,12,0,3,,,,,,,,,2,11,44,,,
299961,control_change,12,0,4,,,,,,,,,3,11,44,,,
299975,note_on,18,0,3,,,,,,,,,2,,,,74,0
299975,control_change,0,0,3,,,,,,,,,2,11,47,,,
299979,note_on,18,0,4,,,,,,,,,3,,,,62,0
299979,control_change,0,0,4,,,,,,,,,3,11,47,,,
299993,control_change,18,0,3,,,,,,,,,2,11,50,,,
299997,control_change,18,0,4,,,,,,,,,3,11,50,,,
300005,note_on,12,0,3,,,,,,,,,2,,,,76,101
300009,note_on,12,0,4,,,,,,,,,3,,,,64,100
300065,note_on,60,0,3,,,,,,,,,2,,,,76,0
300065,note_on,0,0,3,,,,,,,,,2,,,,74,101
300069,note_on,60,0,4,,,,,,,,,3,,,,64,0
300069,note_on,0,0,4,,,,,,,,,3,,,,62,100
300120,note_on,186,0,11,,,,,,,,,10,,,,81,0
300120,set_tempo,240,1,0,,,,,,292683,,,,,,,,
300120,note_on,0,0,11,,,,,,,,,10,,,,78,112
300123,note_on,0,0,12,,,,,,,,,11,,,,78,112
300123,note_on,186,0,12,,,,,,,,,11,,,,81,0
300125,note_on,0,0,3,,,,,,,,,2,,,,76,101
300125,note_on,60,0,3,,,,,,,,,2,,,,74,0
300128,note_on,186,0,13,,,,,,,,,12,,,,69,0
300128,note_on,0,0,13,,,,,,,,,12,,,,66,112
300129,note_on,0,0,4,,,,,,,,,3,,,,64,100
300129,note_on,60,0,4,,,,,,,,,3,,,,62,0
300132,note_on,0,0,14,,,,,,,,,13,,,,54,112
300132,note_on,186,0,14,,,,,,,,,13,,,,57,0
300134,note_on,0,0,15,,,,,,,,,14,,,,42,112
300134,note_on,186,0,15,,,,,,,,,14,,,,45,0
300185,note_on,60,0,3,,,,,,,,,2,,,,76,0
300185,note_on,0,0,3,,,,,,,,,2,,,,74,101
300189,note_on,0,0,4,,,,,,,,,3,,,,62,100
300189,note_on,60,0,4,,,,,,,,,3,,,,64,0
300240,note_on,120,0,11,,,,,,,,,10,,,,78,0
300240,set_tempo,120,1,0,,,,,,263736,,,,,,,,
300240,note_on,0,0,11,,,,,,,,,10,,,,74,112
300243,note_on,120,0,12,,,,,,,,,11,,,,78,0
300243,note_on,0,0,12,,,,,,,,,11,,,,74,112
300245,note_on,0,0,3,,,,,,,,,2,,,,72,0
300245,note_on,0,0,3,,,,,,,,,2,,,,72,101
300245,note_on,0,0,3,,,,,,,,,2,,,,74,101
300245,note_on,60,0,3,,,,,,,,,2,,,,74,0
300248,note_on,120,0,13,,,,,,,,,12,,,,66,0
300248,note_on,0,0,13,,,,,,,,,12,,,,62,112
300249,note_on,60,0,4,,,,,,,,,3,,,,62,0
300249,note_on,0,0,4,,,,,,,,,3,,,,60,0
300249,note_on,0,0,4,,,,,,,,,3,,,,60,100
300249,note_on,0,0,4,,,,,,,,,3,,,,62,100
300252,note_on,120,0,14,,,,,,,,,13,,,,54,0
300252,note_on,0,0,14,,,,,,,,,13,,,,50,112
300254,note_on,120,0,15,,,,,,,,,14,,,,42,0
300254,note_on,0,0,15,,,,,,,,,14,,,,38,112
300305,note_on,60,0,3,,,,,,,,,2,,,,74,0
300305,note_on,0,0,3,,,,,,,,,2,,,,72,0
300309,note_on,0,0,4,,,,,,,,,3,,,,60,0
300309,note_on,60,0,4,,,,,,,,,3,,,,62,0
300365,note_on,0,0,3,,,,,,,,,2,,,,72,101
300365,note_on,60,0,3,,,,,,,,,2,,,,74,101
300369,note_on,60,0,4,,,,,,,,,3,,,,60,100
300369,note_on,0,0,4,,,,,,,,,3,,,,62,100
300425,note_on,0,0,3,,,,,,,,,2,,,,74,0
300425,note_on,60,0,3,,,,,,,,,2,,,,72,0
300429,note_on,0,0,4,,,,,,,,,3,,,,60,0
300429,note_on,60,0,4,,,,,,,,,3,,,,62,0
300480,note_on,240,0,11,,,,,,,,,10,,,,74,0
300480,set_tempo,240,1,0,,,,,,292683,,,,,,,,
300480,note_on,0,0,11,,,,,,,,,10,,,,69,112
300483,note_on,240,0,12,,,,,,,,,11,,,,74,0
300483,note_on,0,0,12,,,,,,,,,11,,,,69,112
300485,note_on,60,0,3,,,,,,,,,2,,,,72,101
300485,note_on,0,0,3,,,,,,,,,2,,,,74,101
300488,note_on,0,0,13,,,,,,,,,12,,,,57,112
300488,note_on,240,0,13,,,,,,,,,12,,,,62,0
300489,note_on,0,0,4,,,,,,,,,3,,,,62,100
300489,note_on,60,0,4,,,,,,,,,3,,,,60,100
300492,note_on,0,0,14,,,,,,,,,13,,,,45,112
300492,note_on,240,0,14,,,,,,,,,13,,,,50,0
300494,note_on,0,0,15,,,,,,,,,14,,,,33,112
300494,note_on,240,0,15,,,,,,,,,14,,,,38,0
300545,note_on,60,0,3,,,,,,,,,2,,,,74,0
300545,note_on,0,0,3,,,,,,,,,2,,,,72,0
300549,note_on,0,0,4,,,,,,,,,3,,,,60,0
300549,note_on,60,0,4,,,,,,,,,3,,,,62,0
300590,note_on,110,0,11,,,,,,,,,10,,,,69,0
300593,note_on,110,0,12,,,,,,,,,11,,,,69,0
300598,note_on,110,0,13,,,,,,,,,12,,,,57,0
300600,set_tempo,120,1,0,,,,,,263736,,,,,,,,
300600,note_on,10,0,11,,,,,,,,,10,,,,66,112
300602,note_on,110,0,14,,,,,,,,,13,,,,45,0
300603,note_on,10,0,12,,,,,,,,,11,,,,66,112
300604,note_on,0,0,2,,,,,,,,,1,,,,72,100
300604,control_change,0,0,2,,,,,,,,,1,11,47,,,
300604,note_on,4920,0,2,,,,,,,,,1,,,,74,100
300604,note_on,110,0,15,,,,,,,,,14,,,,33,0
300605,note_on,60,0,3,,,,,,,,,2,,,,72,116
300605,note_on,0,0,3,,,,,,,,,2,,,,74,116
300608,note_on,10,0,13,,,,,,,,,12,,,,54,112
300609,note_on,0,0,4,,,,,,,,,3,,,,62,115
300609,note_on,60,0,4,,,,,,,,,3,,,,60,115
300612,note_on,10,0,14,,,,,,,,,13,,,,42,112
300614,note_on,10,0,15,,,,,,,,,14,,,,30,112
300634,note_on,30,0,2,,,,,,,,,1,,,,74,0
300664,note_on,30,0,2,,,,,,,,,1,,,,74,100
300694,note_on,30,0,2,,,,,,,,,1,,,,74,0
300720,note_on,0,0,11,,,,,,,,,10,,,,69,112
300720,note_on,120,0,11,,,,,,,,,10,,,,66,0
300723,note_on,0,0,12,,,,,,,,,11,,,,69,112
300723,note_on,120,0,12,,,,,,,,,11,,,,66,0
300724,note_on,30,0,2,,,,,,,,,1,,,,76,100
300728,note_on,0,0,13,,,,,,,,,12,,,,57,112
300728,note_on,120,0,13,,,,,,,,,12,,,,54,0
300732,note_on,0,0,14,,,,,,,,,13,,,,45,112
300732,note_on,120,0,14,,,,,,,,,13,,,,42,0
300734,note_on,0,0,15,,,,,,,,,14,,,,33,112
300734,note_on,120,0,15,,,,,,,,,14,,,,30,0
300784,note_on,0,0,2,,,,,,,,,1,,,,74,100
300784,note_on,60,0,2,,,,,,,,,1,,,,76,0
300840,note_on,0,0,11,,,,,,,,,10,,,,73,112
300840,set_tempo,240,1,0,,,,,,292683,,,,,,,,
300840,note_on,120,0,11,,,,,,,,,10,,,,69,0
300843,note_on,120,0,12,,,,,,,,,11,,,,69,0
300843,note_on,0,0,12,,,,,,,,,11,,,,73,112
300844,note_on,60,0,2,,,,,,,,,1,,,,74,0
300844,note_on,0,0,2,,,,,,,,,1,,,,76,100
300848,note_on,120,0,13,,,,,,,,,12,,,,57,0
300848,note_on,0,0,13,,,,,,,,,12,,,,61,112
300852,note_on,0,0,14,,,,,,,,,13,,,,49,112
300852,note_on,120,0,14,,,,,,,,,13,,,,45,0
300854,note_on,0,0,15,,,,,,,,,14,,,,37,112
300854,note_on,120,0,15,,,,,,,,,14,,,,33,0
300904,note_on,60,0,2,,,,,,,,,1,,,,76,0
300904,note_on,0,0,2,,,,,,,,,1,,,,74,100
300960,set_tempo,120,1,0,,,,,,263736,,,,,,,,
300960,note_on,0,0,11,,,,,,,,,10,,,,74,112
300960,note_on,120,0,11,,,,,,,,,10,,,,73,0
300963,note_on,0,0,12,,,,,,,,,11,,,,74,112
300963,note_on,120,0,12,,,,,,,,,11,,,,73,0
300964,note_on,60,0,2,,,,,,,,,1,,,,74,0
300964,note_on,0,0,2,,,,,,,,,1,,,,72,0
300964,note_on,0,0,2,,,,,,,,,1,,,,74,100
300964,note_on,0,0,2,,,,,,,,,1,,,,72,100
300965,note_on,360,0,3,,,,,,,,,2,,,,74,0
300965,note_on,0,0,3,,,,,,,,,2,,,,74,116
300965,note_on,0,0,3,,,,,,,,,2,,,,72,116
300965,note_on,0,0,3,,,,,,,,,2,,,,72,0
300968,note_on,120,0,13,,,,,,,,,12,,,,61,0
300968,note_on,0,0,13,,,,,,,,,12,,,,62,112
300969,note_on,360,0,4,,,,,,,,,3,,,,62,0
300969,note_on,0,0,4,,,,,,,,,3,,,,60,0
300969,note_on,0,0,4,,,,,,,,,3,,,,62,115
300969,note_on,0,0,4,,,,,,,,,3,,,,60,115
300972,note_on,120,0,14,,,,,,,,,13,,,,49,0
300972,note_on,0,0,14,,,,,,,,,13,,,,50,112
300974,note_on,120,0,15,,,,,,,,,14,,,,37,0
300974,note_on,0,0,15,,,,,,,,,14,,,,38,112
301024,note_on,0,0,2,,,,,,,,,1,,,,74,0
301024,note_on,60,0,2,,,,,,,,,1,,,,72,0
301080,note_on,120,0,11,,,,,,,,,10,,,,74,0
301080,note_on,0,0,11,,,,,,,,,10,,,,78,112
301083,note_on,0,0,12,,,,,,,,,11,,,,78,112
301083,note_on,120,0,12,,,,,,,,,11,,,,74,0
301084,note_on,0,0,2,,,,,,,,,1,,,,74,100
301084,note_on,60,0,2,,,,,,,,,1,,,,72,100
301088,note_on,0,0,13,,,,,,,,,12,,,,66,112
301088,note_on,120,0,13,,,,,,,,,12,,,,62,0
301092,note_on,120,0,14,,,,,,,,,13,,,,50,0
301092,note_on,0,0,14,,,,,,,,,13,,,,54,112
301094,note_on,120,0,15,,,,,,,,,14,,,,38,0
301094,note_on,0,0,15,,,,,,,,,14,,,,42,112
301144,note_on,60,0,2,,,,,,,,,1,,,,74,0
301144,note_on,0,0,2,,,,,,,,,1,,,,72,0
301200,note_on,0,0,11,,,,,,,,,10,,,,80,112
301200,set_tempo,240,1,0,,,,,,315789,,,,,,,,
301200,note_on,120,0,11,,,,,,,,,10,,,,78,0
301203,note_on,0,0,12,,,,,,,,,11,,,,80,112
301203,note_on,120,0,12,,,,,,,,,11,,,,78,0
301204,note_on,60,0,2,,,,,,,,,1,,,,72,100
301204,note_on,0,0,2,,,,,,,,,1,,,,74,100
301208,note_on,0,0,13,,,,,,,,,12,,,,68,112
301208,note_on,120,0,13,,,,,,,,,12,,,,66,0
301212,note_on,0,0,14,,,,,,,,,13,,,,56,112
301212,note_on,120,0,14,,,,,,,,,13,,,,54,0
301214,note_on,120,0,15,,,,,,,,,14,,,,42,0
301214,note_on,0,0,15,,,,,,,,,14,,,,44,112
301264,note_on,60,0,2,,,,,,,,,1,,,,74,0
301264,note_on,0,0,2,,,,,,,,,1,,,,72,0
301310,note_on,110,0,11,,,,,,,,,10,,,,80,0
301313,note_on,110,0,12,,,,,,,,,11,,,,80,0
301318,note_on,110,0,13,,,,,,,,,12,,,,68,0
301320,note_on,10,0,11,,,,,,,,,10,,,,81,127
301320,control_change,0,0,11,,,,,,,,,10,11,36,,,
301320,set_tempo,120,1,0,,,,,,260870,,,,,,,,
301321,note_on,0,0,1,,,,,,,,,0,,,,78,101
301321,note_on,5640,0,1,,,,,,,,,0,,,,81,101
301321,control_change,0,0,1,,,,,,,,,0,11,55,,,
301322,note_on,110,0,14,,,,,,,,,13,,,,56,0
301323,control_change,10,0,12,,,,,,,,,11,11,36,,,
301323,note_on,0,0,12,,,,,,,,,11,,,,81,127
301324,note_on,0,0,2,,,,,,,,,1,,,,78,115
301324,control_change,60,0,2,,,,,,,,,1,11,47,,,
301324,note_on,0,0,2,,,,,,,,,1,,,,69,115
301324,note_on,110,0,15,,,,,,,,,14,,,,44,0
301325,control_change,0,0,3,,,,,,,,,2,11,42,,,
301325,note_on,0,0,3,,,,,,,,,2,,,,73,116
301325,note_on,0,0,3,,,,,,,,,2,,,,72,0
301325,note_on,360,0,3,,,,,,,,,2,,,,74,0
301328,control_change,10,0,13,,,,,,,,,12,11,36,,,
301328,note_on,0,0,13,,,,,,,,,12,,,,69,127
301329,note_on,0,0,4,,,,,,,,,3,,,,61,115
301329,note_on,360,0,4,,,,,,,,,3,,,,60,0
301329,note_on,0,0,4,,,,,,,,,3,,,,62,0
301329,control_change,0,0,4,,,,,,,,,3,11,42,,,
301332,note_on,10,0,14,,,,,,,,,13,,,,57,127
301332,control_change,0,0,14,,,,,,,,,13,11,36,,,
301334,control_change,0,0,15,,,,,,,,,14,11,36,,,
301334,note_on,10,0,15,,,,,,,,,14,,,,45,127
301344,control_change,24,0,11,,,,,,,,,10,11,38,,,
301347,control_change,24,0,12,,,,,,,,,11,11,38,,,
301351,note_on,30,0,1,,,,,,,,,0,,,,81,0
301352,control_change,24,0,13,,,,,,,,,12,11,38,,,
301356,control_change,24,0,14,,,,,,,,,13,11,38,,,
301358,control_change,24,0,15,,,,,,,,,14,11,38,,,
301362,control_change,37,0,3,,,,,,,,,2,11,43,,,
301365,control_change,14,0,1,,,,,,,,,0,11,56,,,
301366,control_change,37,0,4,,,,,,,,,3,11,43,,,
301368,control_change,24,0,11,,,,,,,,,10,11,40,,,
301368,control_change,44,0,2,,,,,,,,,1,11,48,,,
301371,control_change,24,0,12,,,,,,,,,11,11,40,,,
301376,control_change,24,0,13,,,,,,,,,12,11,40,,,
301380,control_change,24,0,14,,,,,,,,,13,11,40,,,
301381,note_on,16,0,1,,,,,,,,,0,,,,81,101
301382,control_change,24,0,15,,,,,,,,,14,11,40,,,
301400,control_change,38,0,3,,,,,,,,,2,11,44,,,
301404,control_change,38,0,4,,,,,,,,,3,11,44,,,
301409,control_change,28,0,1,,,,,,,,,0,11,57,,,
301411,note_on,2,0,1,,,,,,,,,0,,,,81,0
301412,control_change,44,0,2,,,,,,,,,1,11,49,,,
301438,control_change,38,0,3,,,,,,,,,2,11,45,,,
301441,note_on,30,0,1,,,,,,,,,0,,,,83,101
301442,control_change,38,0,4,,,,,,,,,3,11,45,,,
301453,control_change,12,0,1,,,,,,,,,0,11,58,,,
301456,control_change,44,0,2,,,,,,,,,1,11,50,,,
301475,control_change,37,0,3,,,,,,,,,2,11,46,,,
301479,control_change,37,0,4,,,,,,,,,3,11,46,,,
301497,control_change,44,0,1,,,,,,,,,0,11,58,,,
301500,control_change,44,0,2,,,,,,,,,1,11,51,,,
301501,note_on,4,0,1,,,,,,,,,0,,,,83,0
301501,note_on,0,0,1,,,,,,,,,0,,,,81,101
301513,control_change,38,0,3,,,,,,,,,2,11,47,,,
301517,control_change,38,0,4,,,,,,,,,3,11,47,,,
301541,control_change,40,0,1,,,,,,,,,0,11,59,,,
301544,control_change,44,0,2,,,,,,,,,1,11,52,,,
301551,control_change,38,0,3,,,,,,,,,2,11,48,,,
301555,control_change,38,0,4,,,,,,,,,3,11,48,,,
301560,note_on,192,0,11,,,,,,,,,10,,,,81,0
301560,note_on,0,0,11,,,,,,,,,10,,,,78,112
301560,set_tempo,240,1,0,,,,,,288462,,,,,,,,
301561,note_on,0,0,1,,,,,,,,,0,,,,83,101
301561,note_on,20,0,1,,,,,,,,,0,,,,81,0
301563,note_on,192,0,12,,,,,,,,,11,,,,81,0
301563,note_on,0,0,12,,,,,,,,,11,,,,78,112
301568,note_on,192,0,13,,,,,,,,,12,,,,69,0
301568,note_on,0,0,13,,,,,,,,,12,,,,66,112
301572,note_on,192,0,14,,,,,,,,,13,,,,57,0
301572,note_on,0,0,14,,,,,,,,,13,,,,54,112
301574,note_on,0,0,15,,,,,,,,,14,,,,42,112
301574,note_on,192,0,15,,,,,,,,,14,,,,45,0
301585,control_change,24,0,1,,,,,,,,,0,11,60,,,
301588,control_change,44,0,2,,,,,,,,,1,11,52,,,
301589,control_change,38,0,3,,,,,,,,,2,11,49,,,
301593,control_change,38,0,4,,,,,,,,,3,11,49,,,
301621,note_on,36,0,1,,,,,,,,,0,,,,83,0
301621,note_on,0,0,1,,,,,,,,,0,,,,81,101
301626,control_change,37,0,3,,,,,,,,,2,11,50,,,
301629,control_change,8,0,1,,,,,,,,,0,11,61,,,
301630,control_change,37,0,4,,,,,,,,,3,11,50,,,
301632,control_change,44,0,2,,,,,,,,,1,11,53,,,
301664,control_change,38,0,3,,,,,,,,,2,11,51,,,
301668,control_change,38,0,4,,,,,,,,,3,11,51,,,
301673,control_change,44,0,1,,,,,,,,,0,11,61,,,
301676,control_change,44,0,2,,,,,,,,,1,11,54,,,
301680,set_tempo,120,1,0,,,,,,260870,,,,,,,,
301680,control_change,0,0,11,,,,,,,,,10,11,41,,,
301680,note_on,0,0,11,,,,,,,,,10,,,,73,112
301680,note_on,120,0,11,,,,,,,,,10,,,,78,0
301681,note_on,0,0,1,,,,,,,,,0,,,,81,101
301681,note_on,0,0,1,,,,,,,,,0,,,,78,101
301681,note_on,0,0,1,,,,,,,,,0,,,,78,0
301681,note_on,8,0,1,,,,,,,,,0,,,,81,0
301683,control_change,0,0,12,,,,,,,,,11,11,41,,,
301683,note_on,0,0,12,,,,,,,,,11,,,,73,112
301683,note_on,120,0,12,,,,,,,,,11,,,,78,0
301684,note_on,8,0,2,,,,,,,,,1,,,,78,0
301684,note_on,0,0,2,,,,,,,,,1,,,,69,0
301684,note_on,0,0,2,,,,,,,,,1,,,,78,115
301684,note_on,0,0,2,,,,,,,,,1,,,,69,115
301685,note_on,0,0,3,,,,,,,,,2,,,,73,116
301685,note_on,21,0,3,,,,,,,,,2,,,,73,0
301688,note_on,0,0,13,,,,,,,,,12,,,,61,112
301688,note_on,120,0,13,,,,,,,,,12,,,,66,0
301688,control_change,0,0,13,,,,,,,,,12,11,41,,,
301689,note_on,0,0,4,,,,,,,,,3,,,,66,100
301689,note_on,21,0,4,,,,,,,,,3,,,,61,0
301689,note_on,0,0,4,,,,,,,,,3,,,,61,100
301692,note_on,120,0,14,,,,,,,,,13,,,,54,0
301692,note_on,0,0,14,,,,,,,,,13,,,,49,112
301692,control_change,0,0,14,,,,,,,,,13,11,41,,,
301694,note_on,120,0,15,,,,,,,,,14,,,,42,0
301694,note_on,0,0,15,,,,,,,,,14,,,,37,112
301694,control_change,0,0,15,,,,,,,,,14,11,41,,,
301702,control_change,17,0,3,,,,,,,,,2,11,52,,,
301704,control_change,24,0,11,,,,,,,,,10,11,42,,,
301706,control_change,17,0,4,,,,,,,,,3,11,52,,,
301707,control_change,24,0,12,,,,,,,,,11,11,42,,,
301712,control_change,24,0,13,,,,,,,,,12,11,42,,,
301716,control_change,24,0,14,,,,,,,,,13,11,42,,,
301717,control_change,36,0,1,,,,,,,,,0,11,62,,,
301718,control_change,24,0,15,,,,,,,,,14,11,42,,,
301720,control_change,36,0,2,,,,,,,,,1,11,55,,,
301728,control_change,24,0,11,,,,,,,,,10,11,42,,,
301731,control_change,24,0,12,,,,,,,,,11,11,42,,,
301736,control_change,24,0,13,,,,,,,,,12,11,42,,,
301739,control_change,37,0,3,,,,,,,,,2,11,52,,,
301740,control_change,24,0,14,,,,,,,,,13,11,42,,,
301741,note_on,0,0,1,,,,,,,,,0,,,,81,0
301741,note_on,24,0,1,,,,,,,,,0,,,,78,0
301742,control_change,24,0,15,,,,,,,,,14,11,42,,,
301743,control_change,37,0,4,,,,,,,,,3,11,53,,,
301749,note_on,0,0,4,,,,,,,,,3,,,,66,0
301749,note_on,6,0,4,,,,,,,,,3,,,,61,0
301752,control_change,24,0,11,,,,,,,,,10,11,43,,,
301755,control_change,24,0,12,,,,,,,,,11,11,43,,,
301760,control_change,24,0,13,,,,,,,,,12,11,43,,,
301761,control_change,20,0,1,,,,,,,,,0,11,63,,,
301764,control_change,24,0,14,,,,,,,,,13,11,43,,,
301764,control_change,44,0,2,,,,,,,,,1,11,55,,,
301766,control_change,24,0,15,,,,,,,,,14,11,43,,,
301776,control_change,24,0,11,,,,,,,,,10,11,44,,,
301777,control_change,38,0,3,,,,,,,,,2,11,53,,,
301779,control_change,24,0,12,,,,,,,,,11,11,44,,,
301781,control_change,32,0,4,,,,,,,,,3,11,54,,,
301784,control_change,24,0,13,,,,,,,,,12,11,44,,,
301788,control_change,24,0,14,,,,,,,,,13,11,44,,,
301790,control_change,24,0,15,,,,,,,,,14,11,44,,,
301800,control_change,24,0,11,,,,,,,,,10,11,45,,,
301801,note_on,40,0,1,,,,,,,,,0,,,,81,101
301801,note_on,0,0,1,,,,,,,,,0,,,,78,101
301803,control_change,24,0,12,,,,,,,,,11,11,45,,,
301805,control_change,4,0,1,,,,,,,,,0,11,64,,,
301808,control_change,24,0,13,,,,,,,,,12,11,45,,,
301808,control_change,44,0,2,,,,,,,,,1,11,56,,,
301809,note_on,0,0,4,,,,,,,,,3,,,,61,100
301809,note_on,28,0,4,,,,,,,,,3,,,,66,100
301812,control_change,24,0,14,,,,,,,,,13,11,45,,,
301814,control_change,24,0,15,,,,,,,,,14,11,45,,,
301815,control_change,38,0,3,,,,,,,,,2,11,54,,,
301819,control_change,10,0,4,,,,,,,,,3,11,55,,,
301824,control_change,24,0,11,,,,,,,,,10,11,46,,,
301827,control_change,24,0,12,,,,,,,,,11,11,46,,,
301832,control_change,24,0,13,,,,,,,,,12,11,46,,,
301836,control_change,24,0,14,,,,,,,,,13,11,46,,,
301838,control_change,24,0,15,,,,,,,,,14,11,46,,,
301848,control_change,24,0,11,,,,,,,,,10,11,47,,,
301849,control_change,44,0,1,,,,,,,,,0,11,64,,,
301851,control_change,24,0,12,,,,,,,,,11,11,47,,,
301852,control_change,44,0,2,,,,,,,,,1,11,57,,,
301853,control_change,38,0,3,,,,,,,,,2,11,55,,,
301856,control_change,24,0,13,,,,,,,,,12,11,47,,,
301857,control_change,38,0,4,,,,,,,,,3,11,56,,,
301860,control_change,24,0,14,,,,,,,,,13,11,47,,,
301861,note_on,0,0,1,,,,,,,,,0,,,,81,0
301861,note_on,12,0,1,,,,,,,,,0,,,,78,0
301862,control_change,24,0,15,,,,,,,,,14,11,47,,,
301869,note_on,0,0,4,,,,,,,,,3,,,,66,0
301869,note_on,12,0,4,,,,,,,,,3,,,,61,0
301872,control_change,24,0,11,,,,,,,,,10,11,48,,,
301875,control_change,24,0,12,,,,,,,,,11,11,48,,,
301880,control_change,24,0,13,,,,,,,,,12,11,48,,,
301884,control_change,24,0,14,,,,,,,,,13,11,48,,,
301886,control_change,24,0,15,,,,,,,,,14,11,48,,,
301890,control_change,37,0,3,,,,,,,,,2,11,55,,,
301893,control_change,32,0,1,,,,,,,,,0,11,65,,,
301894,control_change,25,0,4,,,,,,,,,3,11,57,,,
301896,control_change,44,0,2,,,,,,,,,1,11,58,,,
301896,control_change,24,0,11,,,,,,,,,10,11,49,,,
301899,control_change,24,0,12,,,,,,,,,11,11,49,,,
301904,control_change,24,0,13,,,,,,,,,12,11,49,,,
301908,control_change,24,0,14,,,,,,,,,13,11,49,,,
301910,control_change,24,0,15,,,,,,,,,14,11,49,,,
301920,set_tempo,240,1,0,,,,,,288462,,,,,,,,
301920,note_on,0,0,11,,,,,,,,,10,,,,69,112
301920,control_change,0,0,11,,,,,,,,,10,11,50,,,
301920,note_on,24,0,11,,,,,,,,,10,,,,73,0
301921,note_on,28,0,1,,,,,,,,,0,,,,78,101
301921,note_on,0,0,1,,,,,,,,,0,,,,81,101
301923,note_on,0,0,12,,,,,,,,,11,,,,69,112
301923,control_change,0,0,12,,,,,,,,,11,11,50,,,
301923,note_on,24,0,12,,,,,,,,,11,,,,73,0
301928,note_on,24,0,13,,,,,,,,,12,,,,61,0
301928,control_change,0,0,13,,,,,,,,,12,11,50,,,
301928,note_on,0,0,13,,,,,,,,,12,,,,57,112
301928,control_change,38,0,3,,,,,,,,,2,11,56,,,
301929,note_on,0,0,4,,,,,,,,,3,,,,66,100
301929,note_on,35,0,4,,,,,,,,,3,,,,61,100
301932,control_change,0,0,14,,,,,,,,,13,11,50,,,
301932,note_on,24,0,14,,,,,,,,,13,,,,49,0
301932,control_change,3,0,4,,,,,,,,,3,11,58,,,
301932,note_on,0,0,14,,,,,,,,,13,,,,45,112
301934,note_on,24,0,15,,,,,,,,,14,,,,37,0
301934,control_change,0,0,15,,,,,,,,,14,11,50,,,
301934,note_on,0,0,15,,,,,,,,,14,,,,33,112
301937,control_change,16,0,1,,,,,,,,,0,11,66,,,
301940,control_change,44,0,2,,,,,,,,,1,11,58,,,
301944,control_change,24,0,11,,,,,,,,,10,11,51,,,
301947,control_change,24,0,12,,,,,,,,,11,11,51,,,
301952,control_change,24,0,13,,,,,,,,,12,11,51,,,
301956,control_change,24,0,14,,,,,,,,,13,11,51,,,
301958,control_change,24,0,15,,,,,,,,,14,11,51,,,
301966,control_change,38,0,3,,,,,,,,,2,11,57,,,
301968,control_change,24,0,11,,,,,,,,,10,11,52,,,
301970,control_change,38,0,4,,,,,,,,,3,11,59,,,
301971,control_change,24,0,12,,,,,,,,,11,11,52,,,
301976,control_change,24,0,13,,,,,,,,,12,11,52,,,
301980,control_change,24,0,14,,,,,,,,,13,11,52,,,
301981,note_on,44,0,1,,,,,,,,,0,,,,81,0
301981,note_on,0,0,1,,,,,,,,,0,,,,78,0
301981,control_change,0,0,1,,,,,,,,,0,11,67,,,
301982,control_change,24,0,15,,,,,,,,,14,11,52,,,
301984,control_change,44,0,2,,,,,,,,,1,11,59,,,
301989,note_on,0,0,4,,,,,,,,,3,,,,61,0
301989,note_on,19,0,4,,,,,,,,,3,,,,66,0
301992,control_change,24,0,11,,,,,,,,,10,11,53,,,
301995,control_change,24,0,12,,,,,,,,,11,11,53,,,
302000,control_change,24,0,13,,,,,,,,,12,11,53,,,
302003,control_change,37,0,3,,,,,,,,,2,11,58,,,
302004,control_change,24,0,14,,,,,,,,,13,11,53,,,
302006,control_change,24,0,15,,,,,,,,,14,11,53,,,
302007,control_change,18,0,4,,,,,,,,,3,11,60,,,
302016,control_change,24,0,11,,,,,,,,,10,11,54,,,
302019,control_change,24,0,12,,,,,,,,,11,11,54,,,
302024,control_change,24,0,13,,,,,,,,,12,11,54,,,
302025,control_change,44,0,1,,,,,,,,,0,11,67,,,
302028,control_change,44,0,2,,,,,,,,,1,11,60,,,
302028,control_change,24,0,14,,,,,,,,,13,11,54,,,
302030,note_on,14,0,11,,,,,,,,,10,,,,69,0
302030,control_change,24,0,15,,,,,,,,,14,11,54,,,
302033,note_on,14,0,12,,,,,,,,,11,,,,69,0
302038,note_on,14,0,13,,,,,,,,,12,,,,57,0
302040,note_on,10,0,11,,,,,,,,,10,,,,66,112
302040,set_tempo,120,1,0,,,,,,260870,,,,,,,,
302040,control_change,0,0,11,,,,,,,,,10,11,55,,,
302041,note_on,0,0,1,,,,,,,,,0,,,,78,101
302041,note_on,16,0,1,,,,,,,,,0,,,,81,101
302041,control_change,38,0,3,,,,,,,,,2,11,58,,,
302042,note_on,14,0,14,,,,,,,,,13,,,,45,0
302043,note_on,10,0,12,,,,,,,,,11,,,,66,112
302043,control_change,0,0,12,,,,,,,,,11,11,55,,,
302044,note_on,0,0,2,,,,,,,,,1,,,,78,0
302044,note_on,14,0,15,,,,,,,,,14,,,,33,0
302044,note_on,0,0,2,,,,,,,,,1,,,,81,100
302044,note_on,0,0,2,,,,,,,,,1,,,,78,100
302044,note_on,16,0,2,,,,,,,,,1,,,,69,0
302045,control_change,38,0,4,,,,,,,,,3,11,61,,,
302045,note_on,0,0,3,,,,,,,,,2,,,,73,116
302045,note_on,0,0,3,,,,,,,,,2,,,,69,116
302045,note_on,4,0,3,,,,,,,,,2,,,,73,0
302048,control_change,10,0,13,,,,,,,,,12,11,55,,,
302048,note_on,0,0,13,,,,,,,,,12,,,,54,112
302049,note_on,4,0,4,,,,,,,,,3,,,,66,100
302049,note_on,0,0,4,,,,,,,,,3,,,,61,100
302052,control_change,10,0,14,,,,,,,,,13,11,55,,,
302052,note_on,0,0,14,,,,,,,,,13,,,,42,112
302054,note_on,0,0,15,,,,,,,,,14,,,,30,112
302054,control_change,10,0,15,,,,,,,,,14,11,55,,,
302064,control_change,24,0,11,,,,,,,,,10,11,56,,,
302067,control_change,24,0,12,,,,,,,,,11,11,56,,,
302069,control_change,28,0,1,,,,,,,,,0,11,68,,,
302072,control_change,24,0,13,,,,,,,,,12,11,56,,,
302072,control_change,28,0,2,,,,,,,,,1,11,61,,,
302074,note_on,2,0,2,,,,,,,,,1,,,,81,0
302076,control_change,24,0,14,,,,,,,,,13,11,56,,,
302078,control_change,24,0,15,,,,,,,,,14,11,56,,,
302079,control_change,34,0,3,,,,,,,,,2,11,59,,,
302083,control_change,34,0,4,,,,,,,,,3,11,62,,,
302088,control_change,24,0,11,,,,,,,,,10,11,57,,,
302091,control_change,24,0,12,,,,,,,,,11,11,57,,,
302096,control_change,24,0,13,,,,,,,,,12,11,57,,,
302100,control_change,24,0,14,,,,,,,,,13,11,57,,,
302102,control_change,24,0,15,,,,,,,,,14,11,57,,,
302104,note_on,30,0,2,,,,,,,,,1,,,,81,100
302112,control_change,24,0,11,,,,,,,,,10,11,57,,,
302113,control_change,44,0,1,,,,,,,,,0,11,69,,,
302115,control_change,24,0,12,,,,,,,,,11,11,57,,,
302116,control_change,12,0,2,,,,,,,,,1,11,61,,,
302117,control_change,38,0,3,,,,,,,,,2,11,60,,,
302120,control_change,24,0,13,,,,,,,,,12,11,57,,,
302121,control_change,38,0,4,,,,,,,,,3,11,63,,,
302124,control_change,24,0,14,,,,,,,,,13,11,57,,,
302126,control_change,24,0,15,,,,,,,,,14,11,57,,,
302134,note_on,18,0,2,,,,,,,,,1,,,,81,0
302136,control_change,24,0,11,,,,,,,,,10,11,58,,,
302139,control_change,24,0,12,,,,,,,,,11,11,58,,,
302144,control_change,24,0,13,,,,,,,,,12,11,58,,,
302148,control_change,24,0,14,,,,,,,,,13,11,58,,,
302150,control_change,24,0,15,,,,,,,,,14,11,58,,,
302154,control_change,37,0,3,,,,,,,,,2,11,61,,,
302157,control_change,44,0,1,,,,,,,,,0,11,70,,,
302158,control_change,37,0,4,,,,,,,,,3,11,64,,,
302160,control_change,26,0,2,,,,,,,,,1,11,62,,,
302160,note_on,0,0,11,,,,,,,,,10,,,,69,112
302160,control_change,0,0,11,,,,,,,,,10,11,59,,,
302160,note_on,24,0,11,,,,,,,,,10,,,,66,0
302163,note_on,0,0,12,,,,,,,,,11,,,,69,112
302163,note_on,24,0,12,,,,,,,,,11,,,,66,0
302163,control_change,0,0,12,,,,,,,,,11,11,59,,,
302164,note_on,4,0,2,,,,,,,,,1,,,,83,100
302168,control_change,0,0,13,,,,,,,,,12,11,59,,,
302168,note_on,0,0,13,,,,,,,,,12,,,,57,112
302168,note_on,24,0,13,,,,,,,,,12,,,,54,0
302172,note_on,24,0,14,,,,,,,,,13,,,,42,0
302172,control_change,0,0,14,,,,,,,,,13,11,59,,,
302172,note_on,0,0,14,,,,,,,,,13,,,,45,112
302174,note_on,24,0,15,,,,,,,,,14,,,,30,0
302174,control_change,0,0,15,,,,,,,,,14,11,59,,,
302174,note_on,0,0,15,,,,,,,,,14,,,,33,112
302184,control_change,24,0,11,,,,,,,,,10,11,60,,,
302187,control_change,24,0,12,,,,,,,,,11,11,60,,,
302192,control_change,38,0,3,,,,,,,,,2,11,61,,,
302192,control_change,24,0,13,,,,,,,,,12,11,60,,,
302196,control_change,38,0,4,,,,,,,,,3,11,65,,,
302196,control_change,24,0,14,,,,,,,,,13,11,60,,,
302198,control_change,24,0,15,,,,,,,,,14,11,60,,,
302201,control_change,44,0,1,,,,,,,,,0,11,70,,,
302204,control_change,40,0,2,,,,,,,,,1,11,63,,,
302208,control_change,24,0,11,,,,,,,,,10,11,61,,,
302211,control_change,24,0,12,,,,,,,,,11,11,61,,,
302216,control_change,24,0,13,,,,,,,,,12,11,61,,,
302220,control_change,24,0,14,,,,,,,,,13,11,61,,,
302222,control_change,24,0,15,,,,,,,,,14,11,61,,,
302224,note_on,0,0,2,,,,,,,,,1,,,,81,100
302224,note_on,20,0,2,,,,,,,,,1,,,,83,0
302230,control_change,38,0,3,,,,,,,,,2,11,62,,,
302232,control_change,24,0,11,,,,,,,,,10,11,62,,,
302234,control_change,38,0,4,,,,,,,,,3,11,66,,,
302235,control_change,24,0,12,,,,,,,,,11,11,62,,,
302240,control_change,24,0,13,,,,,,,,,12,11,62,,,
302244,control_change,24,0,14,,,,,,,,,13,11,62,,,
302245,control_change,44,0,1,,,,,,,,,0,11,71,,,
302246,control_change,24,0,15,,,,,,,,,14,11,62,,,
302248,control_change,24,0,2,,,,,,,,,1,11,64,,,
302256,control_change,24,0,11,,,,,,,,,10,11,63,,,
302259,control_change,24,0,12,,,,,,,,,11,11,63,,,
302264,control_change,24,0,13,,,,,,,,,12,11,63,,,
302267,control_change,37,0,3,,,,,,,,,2,11,63,,,
302268,control_change,24,0,14,,,,,,,,,13,11,63,,,
302270,control_change,24,0,15,,,,,,,,,14,11,63,,,
302271,control_change,37,0,4,,,,,,,,,3,11,67,,,
302280,set_tempo,240,1,0,,,,,,288462,,,,,,,,
302280,note_on,24,0,11,,,,,,,,,10,,,,69,0
302280,note_on,0,0,11,,,,,,,,,10,,,,73,112
302280,control_change,0,0,11,,,,,,,,,10,11,64,,,
302283,note_on,0,0,12,,,,,,,,,11,,,,73,112
302283,control_change,0,0,12,,,,,,,,,11,11,64,,,
302283,note_on,24,0,12,,,,,,,,,11,,,,69,0
302284,note_on,36,0,2,,,,,,,,,1,,,,81,0
302284,note_on,0,0,2,,,,,,,,,1,,,,83,100
302288,note_on,24,0,13,,,,,,,,,12,,,,57,0
302288,control_change,0,0,13,,,,,,,,,12,11,64,,,
302288,note_on,0,0,13,,,,,,,,,12,,,,61,112
302289,control_change,44,0,1,,,,,,,,,0,11,72,,,
302292,note_on,0,0,14,,,,,,,,,13,,,,49,112
302292,control_change,0,0,14,,,,,,,,,13,11,64,,,
302292,control_change,8,0,2,,,,,,,,,1,11,64,,,
302292,note_on,24,0,14,,,,,,,,,13,,,,45,0
302294,note_on,24,0,15,,,,,,,,,14,,,,33,0
302294,note_on,0,0,15,,,,,,,,,14,,,,37,112
302294,control_change,0,0,15,,,,,,,,,14,11,64,,,
302304,control_change,24,0,11,,,,,,,,,10,11,65,,,
302305,control_change,38,0,3,,,,,,,,,2,11,64,,,
302307,control_change,24,0,12,,,,,,,,,11,11,65,,,
302309,control_change,38,0,4,,,,,,,,,3,11,68,,,
302312,control_change,24,0,13,,,,,,,,,12,11,65,,,
302316,control_change,24,0,14,,,,,,,,,13,11,65,,,
302318,control_change,24,0,15,,,,,,,,,14,11,65,,,
302328,control_change,24,0,11,,,,,,,,,10,11,66,,,
302331,control_change,24,0,12,,,,,,,,,11,11,66,,,
302333,control_change,44,0,1,,,,,,,,,0,11,73,,,
302336,control_change,24,0,13,,,,,,,,,12,11,66,,,
302336,control_change,44,0,2,,,,,,,,,1,11,65,,,
302340,control_change,24,0,14,,,,,,,,,13,11,66,,,
302342,control_change,24,0,15,,,,,,,,,14,11,66,,,
302343,control_change,38,0,3,,,,,,,,,2,11,64,,,
302344,note_on,0,0,2,,,,,,,,,1,,,,81,100
302344,note_on,8,0,2,,,,,,,,,1,,,,83,0
302347,control_change,38,0,4,,,,,,,,,3,11,69,,,
302352,control_change,24,0,11,,,,,,,,,10,11,67,,,
302355,control_change,24,0,12,,,,,,,,,11,11,67,,,
302360,control_change,24,0,13,,,,,,,,,12,11,67,,,
302364,control_change,24,0,14,,,,,,,,,13,11,67,,,
302366,control_change,24,0,15,,,,,,,,,14,11,67,,,
302376,control_change,24,0,11,,,,,,,,,10,11,68,,,
302377,control_change,44,0,1,,,,,,,,,0,11,73,,,
302379,control_change,24,0,12,,,,,,,,,11,11,68,,,
302380,control_change,36,0,2,,,,,,,,,1,11,66,,,
302381,control_change,38,0,3,,,,,,,,,2,11,65,,,
302384,control_change,24,0,13,,,,,,,,,12,11,68,,,
302385,control_change,38,0,4,,,,,,,,,3,11,70,,,
302388,control_change,24,0,14,,,,,,,,,13,11,68,,,
302390,control_change,24,0,15,,,,,,,,,14,11,68,,,
302400,note_on,0,0,11,,,,,,,,,10,,,,78,112
302400,control_change,0,0,11,,,,,,,,,10,11,69,,,
302400,set_tempo,120,1,0,,,,,,260870,,,,,,,,
302400,note_on,24,0,11,,,,,,,,,10,,,,73,0
302401,note_on,0,0,1,,,,,,,,,0,,,,81,0
302401,note_on,0,0,1,,,,,,,,,0,,,,81,116
302401,note_on,0,0,1,,,,,,,,,0,,,,78,116
302401,note_on,24,0,1,,,,,,,,,0,,,,78,0
302403,control_change,0,0,12,,,,,,,,,11,11,69,,,
302403,note_on,0,0,12,,,,,,,,,11,,,,78,112
302403,note_on,24,0,12,,,,,,,,,11,,,,73,0
302404,note_on,0,0,2,,,,,,,,,1,,,,78,100
302404,note_on,0,0,2,,,,,,,,,1,,,,81,100
302404,note_on,0,0,2,,,,,,,,,1,,,,78,0
302404,note_on,24,0,2,,,,,,,,,1,,,,81,0
302405,note_on,0,0,3,,,,,,,,,2,,,,73,0
302405,note_on,0,0,3,,,,,,,,,2,,,,69,116
302405,note_on,0,0,3,,,,,,,,,2,,,,73,116
302405,note_on,24,0,3,,,,,,,,,2,,,,69,0
302408,control_change,0,0,13,,,,,,,,,12,11,69,,,
302408,note_on,0,0,13,,,,,,,,,12,,,,66,112
302408,note_on,24,0,13,,,,,,,,,12,,,,61,0
302409,note_on,24,0,4,,,,,,,,,3,,,,61,0
302409,note_on,0,0,4,,,,,,,,,3,,,,66,0
302409,note_on,0,0,4,,,,,,,,,3,,,,61,100
302409,note_on,0,0,4,,,,,,,,,3,,,,66,100
302412,note_on,24,0,14,,,,,,,,,13,,,,49,0
302412,note_on,0,0,14,,,,,,,,,13,,,,54,112
302412,control_change,0,0,14,,,,,,,,,13,11,69,,,
302414,note_on,0,0,15,,,,,,,,,14,,,,42,112
302414,control_change,0,0,15,,,,,,,,,14,11,69,,,
302414,note_on,24,0,15,,,,,,,,,14,,,,37,0
302418,control_change,13,0,3,,,,,,,,,2,11,66,,,
302421,control_change,20,0,1,,,,,,,,,0,11,74,,,
302422,control_change,13,0,4,,,,,,,,,3,11,71,,,
302424,control_change,20,0,2,,,,,,,,,1,11,67,,,
302424,control_change,24,0,11,,,,,,,,,10,11,70,,,
302427,control_change,24,0,12,,,,,,,,,11,11,70,,,
302432,control_change,24,0,13,,,,,,,,,12,11,70,,,
302436,control_change,24,0,14,,,,,,,,,13,11,70,,,
302438,control_change,24,0,15,,,,,,,,,14,11,70,,,
302448,control_change,24,0,11,,,,,,,,,10,11,71,,,
302451,control_change,24,0,12,,,,,,,,,11,11,71,,,
302456,control_change,24,0,13,,,,,,,,,12,11,71,,,
302456,control_change,38,0,3,,,,,,,,,2,11,67,,,
302460,control_change,24,0,14,,,,,,,,,13,11,71,,,
302460,control_change,38,0,4,,,,,,,,,3,11,72,,,
302462,control_change,24,0,15,,,,,,,,,14,11,71,,,
302464,note_on,0,0,2,,,,,,,,,1,,,,81,0
302464,note_on,40,0,2,,,,,,,,,1,,,,78,0
302465,control_change,44,0,1,,,,,,,,,0,11,75,,,
302468,control_change,4,0,2,,,,,,,,,1,11,67,,,
302469,note_on,0,0,4,,,,,,,,,3,,,,61,0
302469,note_on,9,0,4,,,,,,,,,3,,,,66,0
302472,control_change,24,0,11,,,,,,,,,10,11,72,,,
302475,control_change,24,0,12,,,,,,,,,11,11,72,,,
302480,control_change,24,0,13,,,,,,,,,12,11,72,,,
302484,control_change,24,0,14,,,,,,,,,13,11,72,,,
302486,control_change,24,0,15,,,,,,,,,14,11,72,,,
302494,control_change,38,0,3,,,,,,,,,2,11,67,,,
302496,control_change,24,0,11,,,,,,,,,10,11,72,,,
302498,control_change,29,0,4,,,,,,,,,3,11,73,,,
302499,control_change,24,0,12,,,,,,,,,11,11,72,,,
302504,control_change,24,0,13,,,,,,,,,12,11,72,,,
302508,control_change,24,0,14,,,,,,,,,13,11,72,,,
302509,control_change,44,0,1,,,,,,,,,0,11,76,,,
302510,control_change,24,0,15,,,,,,,,,14,11,72,,,
302512,control_change,44,0,2,,,,,,,,,1,11,68,,,
302520,note_on,0,0,11,,,,,,,,,10,,,,81,112
302520,control_change,0,0,11,,,,,,,,,10,11,73,,,
302520,note_on,24,0,11,,,,,,,,,10,,,,78,0
302523,control_change,0,0,12,,,,,,,,,11,11,73,,,
302523,note_on,0,0,12,,,,,,,,,11,,,,81,112
302523,note_on,24,0,12,,,,,,,,,11,,,,78,0
302524,note_on,12,0,2,,,,,,,,,1,,,,78,100
302524,note_on,0,0,2,,,,,,,,,1,,,,81,100
302528,note_on,24,0,13,,,,,,,,,12,,,,66,0
302528,note_on,0,0,13,,,,,,,,,12,,,,69,112
302528,control_change,0,0,13,,,,,,,,,12,11,73,,,
302529,note_on,31,0,4,,,,,,,,,3,,,,66,100
302529,note_on,0,0,4,,,,,,,,,3,,,,61,100
302531,control_change,37,0,3,,,,,,,,,2,11,68,,,
302532,note_on,24,0,14,,,,,,,,,13,,,,54,0
302532,note_on,0,0,14,,,,,,,,,13,,,,57,112
302532,control_change,0,0,14,,,,,,,,,13,11,73,,,
302534,note_on,0,0,15,,,,,,,,,14,,,,45,112
302534,note_on,24,0,15,,,,,,,,,14,,,,42,0
302534,control_change,0,0,15,,,,,,,,,14,11,73,,,
302535,control_change,6,0,4,,,,,,,,,3,11,74,,,
302544,control_change,24,0,11,,,,,,,,,10,11,74,,,
302547,control_change,24,0,12,,,,,,,,,11,11,74,,,
302552,control_change,24,0,13,,,,,,,,,12,11,74,,,
302553,control_change,44,0,1,,,,,,,,,0,11,76,,,
302556,control_change,24,0,14,,,,,,,,,13,11,74,,,
302556,control_change,32,0,2,,,,,,,,,1,11,69,,,
302558,control_change,24,0,15,,,,,,,,,14,11,74,,,
302568,control_change,24,0,11,,,,,,,,,10,11,75,,,
302569,control_change,38,0,3,,,,,,,,,2,11,69,,,
302571,control_change,24,0,12,,,,,,,,,11,11,75,,,
302573,control_change,38,0,4,,,,,,,,,3,11,75,,,
302576,control_change,24,0,13,,,,,,,,,12,11,75,,,
302580,control_change,24,0,14,,,,,,,,,13,11,75,,,
302582,control_change,24,0,15,,,,,,,,,14,11,75,,,
302584,note_on,0,0,2,,,,,,,,,1,,,,78,0
302584,note_on,28,0,2,,,,,,,,,1,,,,81,0
302589,note_on,16,0,4,,,,,,,,,3,,,,61,0
302589,note_on,0,0,4,,,,,,,,,3,,,,66,0
302592,control_change,24,0,11,,,,,,,,,10,11,76,,,
302595,control_change,24,0,12,,,,,,,,,11,11,76,,,
302597,control_change,44,0,1,,,,,,,,,0,11,77,,,
302600,control_change,24,0,13,,,,,,,,,12,11,76,,,
302600,control_change,16,0,2,,,,,,,,,1,11,70,,,
302604,control_change,24,0,14,,,,,,,,,13,11,76,,,
302606,control_change,24,0,15,,,,,,,,,14,11,76,,,
302607,control_change,38,0,3,,,,,,,,,2,11,70,,,
302611,control_change,22,0,4,,,,,,,,,3,11,76,,,
302616,control_change,24,0,11,,,,,,,,,10,11,77,,,
302619,control_change,24,0,12,,,,,,,,,11,11,77,,,
302624,control_change,24,0,13,,,,,,,,,12,11,77,,,
302628,control_change,24,0,14,,,,,,,,,13,11,77,,,
302630,control_change,24,0,15,,,,,,,,,14,11,77,,,
302640,set_tempo,240,1,0,,,,,,300000,,,,,,,,
302640,control_change,0,0,11,,,,,,,,,10,11,78,,,
302640,note_on,24,0,11,,,,,,,,,10,,,,81,0
302640,note_on,0,0,11,,,,,,,,,10,,,,85,112
302641,control_change,44,0,1,,,,,,,,,0,11,78,,,
302643,note_on,0,0,12,,,,,,,,,11,,,,85,112
302643,control_change,0,0,12,,,,,,,,,11,11,78,,,
302643,note_on,24,0,12,,,,,,,,,11,,,,81,0
302644,control_change,44,0,2,,,,,,,,,1,11,70,,,
302644,note_on,0,0,2,,,,,,,,,1,,,,78,100
302644,note_on,0,0,2,,,,,,,,,1,,,,81,100
302645,control_change,38,0,3,,,,,,,,,2,11,70,,,
302648,note_on,0,0,13,,,,,,,,,12,,,,73,112
302648,note_on,24,0,13,,,,,,,,,12,,,,69,0
302648,control_change,0,0,13,,,,,,,,,12,11,78,,,
302649,note_on,0,0,4,,,,,,,,,3,,,,66,100
302649,note_on,0,0,4,,,,,,,,,3,,,,61,100
302649,control_change,38,0,4,,,,,,,,,3,11,77,,,
302652,note_on,24,0,14,,,,,,,,,13,,,,57,0
302652,control_change,0,0,14,,,,,,,,,13,11,78,,,
302652,note_on,0,0,14,,,,,,,,,13,,,,61,112
302654,note_on,24,0,15,,,,,,,,,14,,,,45,0
302654,note_on,0,0,15,,,,,,,,,14,,,,49,112
302654,control_change,0,0,15,,,,,,,,,14,11,78,,,
302664,control_change,24,0,11,,,,,,,,,10,11,79,,,
302667,control_change,24,0,12,,,,,,,,,11,11,79,,,
302672,control_change,24,0,13,,,,,,,,,12,11,79,,,
302676,control_change,24,0,14,,,,,,,,,13,11,79,,,
302678,control_change,24,0,15,,,,,,,,,14,11,79,,,
302688,control_change,24,0,11,,,,,,,,,10,11,80,,,
302691,control_change,24,0,12,,,,,,,,,11,11,80,,,
302696,control_change,24,0,13,,,,,,,,,12,11,80,,,
302700,control_change,24,0,14,,,,,,,,,13,11,80,,,
302702,control_change,24,0,15,,,,,,,,,14,11,80,,,
302704,note_on,60,0,2,,,,,,,,,1,,,,81,0
302704,note_on,0,0,2,,,,,,,,,1,,,,78,0
302709,note_on,0,0,4,,,,,,,,,3,,,,61,0
302709,note_on,60,0,4,,,,,,,,,3,,,,66,0
302712,control_change,24,0,11,,,,,,,,,10,11,81,,,
302715,control_change,24,0,12,,,,,,,,,11,11,81,,,
302720,control_change,24,0,13,,,,,,,,,12,11,81,,,
302724,control_change,24,0,14,,,,,,,,,13,11,81,,,
302726,control_change,24,0,15,,,,,,,,,14,11,81,,,
302736,control_change,24,0,11,,,,,,,,,10,11,82,,,
302739,control_change,24,0,12,,,,,,,,,11,11,82,,,
302744,control_change,24,0,13,,,,,,,,,12,11,82,,,
302748,control_change,24,0,14,,,,,,,,,13,11,82,,,
302750,note_on,14,0,11,,,,,,,,,10,,,,85,0
302750,control_change,24,0,15,,,,,,,,,14,11,82,,,
302753,note_on,14,0,12,,,,,,,,,11,,,,85,0
302758,note_on,14,0,13,,,,,,,,,12,,,,73,0
302760,set_tempo,120,1,0,,,,,,254237,,,,,,,,
302760,note_on,0,0,11,,,,,,,,,10,,,,86,127
302760,control_change,10,0,11,,,,,,,,,10,11,83,,,
302761,note_on,0,0,1,,,,,,,,,0,,,,78,101
302761,note_on,120,0,1,,,,,,,,,0,,,,78,0
302761,note_on,0,0,1,,,,,,,,,0,,,,81,0
302761,note_on,0,0,1,,,,,,,,,0,,,,81,101
302762,note_on,14,0,14,,,,,,,,,13,,,,61,0
302763,control_change,0,0,5,,,,,,,,,4,11,82,,,
302763,note_on,2940,0,5,,,,,,,,,4,,,,62,115
302763,note_on,0,0,12,,,,,,,,,11,,,,86,127
302763,control_change,10,0,12,,,,,,,,,11,11,83,,,
302764,note_on,60,0,2,,,,,,,,,1,,,,81,115
302764,note_on,0,0,2,,,,,,,,,1,,,,78,115
302764,note_on,2940,0,6,,,,,,,,,5,,,,62,115
302764,control_change,0,0,6,,,,,,,,,5,11,82,,,
302764,note_on,14,0,15,,,,,,,,,14,,,,49,0
302765,note_on,120,0,3,,,,,,,,,2,,,,69,0
302765,note_on,0,0,3,,,,,,,,,2,,,,73,0
302765,note_on,0,0,3,,,,,,,,,2,,,,69,101
302765,note_on,0,0,3,,,,,,,,,2,,,,78,116
302768,control_change,10,0,13,,,,,,,,,12,11,83,,,
302768,note_on,0,0,13,,,,,,,,,12,,,,74,127
302769,note_on,0,0,4,,,,,,,,,3,,,,57,115
302769,note_on,60,0,4,,,,,,,,,3,,,,66,115
302772,control_change,10,0,14,,,,,,,,,13,11,83,,,
302772,note_on,0,0,14,,,,,,,,,13,,,,62,127
302774,control_change,0,0,15,,,,,,,,,14,11,83,,,
302774,note_on,10,0,15,,,,,,,,,14,,,,50,127
302791,note_on,30,0,1,,,,,,,,,0,,,,81,0
302795,note_on,30,0,3,,,,,,,,,2,,,,69,0
302821,note_on,30,0,1,,,,,,,,,0,,,,81,101
302825,note_on,30,0,3,,,,,,,,,2,,,,69,101
302851,note_on,30,0,1,,,,,,,,,0,,,,81,0
302855,note_on,30,0,3,,,,,,,,,2,,,,69,0
302880,set_tempo,120,1,0,,,,,,263158,,,,,,,,
302881,note_on,30,0,1,,,,,,,,,0,,,,83,101
302885,note_on,30,0,3,,,,,,,,,2,,,,71,101
302941,note_on,0,0,1,,,,,,,,,0,,,,81,101
302941,note_on,60,0,1,,,,,,,,,0,,,,83,0
302945,note_on,60,0,3,,,,,,,,,2,,,,71,0
302945,note_on,0,0,3,,,,,,,,,2,,,,69,101
303000,note_on,0,0,11,,,,,,,,,10,,,,81,112
303000,set_tempo,120,1,0,,,,,,288462,,,,,,,,
303000,note_on,240,0,11,,,,,,,,,10,,,,86,0
303001,note_on,60,0,1,,,,,,,,,0,,,,81,0
303001,note_on,0,0,1,,,,,,,,,0,,,,83,101
303003,note_on,0,0,12,,,,,,,,,11,,,,81,112
303003,note_on,240,0,12,,,,,,,,,11,,,,86,0
303005,note_on,60,0,3,,,,,,,,,2,,,,69,0
303005,note_on,0,0,3,,,,,,,,,2,,,,71,101
303008,note_on,240,0,13,,,,,,,,,12,,,,74,0
303008,note_on,0,0,13,,,,,,,,,12,,,,69,112
303012,note_on,240,0,14,,,,,,,,,13,,,,62,0
303012,note_on,0,0,14,,,,,,,,,13,,,,57,112
303014,note_on,0,0,15,,,,,,,,,14,,,,45,112
303014,note_on,240,0,15,,,,,,,,,14,,,,50,0
303061,note_on,0,0,1,,,,,,,,,0,,,,81,101
303061,note_on,60,0,1,,,,,,,,,0,,,,83,0
303065,note_on,60,0,3,,,,,,,,,2,,,,71,0
303065,note_on,0,0,3,,,,,,,,,2,,,,69,101
303110,note_on,110,0,11,,,,,,,,,10,,,,81,0
303113,note_on,110,0,12,,,,,,,,,11,,,,81,0
303118,note_on,110,0,13,,,,,,,,,12,,,,69,0
303120,set_tempo,120,1,0,,,,,,254237,,,,,,,,
303120,note_on,10,0,11,,,,,,,,,10,,,,78,127
303121,note_on,0,0,1,,,,,,,,,0,,,,81,101
303121,note_on,60,0,1,,,,,,,,,0,,,,81,0
303121,note_on,0,0,1,,,,,,,,,0,,,,78,0
303121,note_on,0,0,1,,,,,,,,,0,,,,78,101
303122,note_on,110,0,14,,,,,,,,,13,,,,57,0
303123,note_on,10,0,12,,,,,,,,,11,,,,78,127
303123,note_on,0,0,5,,,,,,,,,4,,,,62,115
303123,note_on,360,0,5,,,,,,,,,4,,,,62,0
303124,note_on,0,0,2,,,,,,,,,1,,,,78,115
303124,note_on,360,0,2,,,,,,,,,1,,,,78,0
303124,note_on,110,0,15,,,,,,,,,14,,,,45,0
303124,note_on,360,0,6,,,,,,,,,5,,,,62,0
303124,note_on,0,0,6,,,,,,,,,5,,,,62,115
303124,note_on,0,0,2,,,,,,,,,1,,,,81,0
303124,note_on,0,0,2,,,,,,,,,1,,,,81,115
303125,note_on,0,0,3,,,,,,,,,2,,,,69,101
303125,note_on,0,0,3,,,,,,,,,2,,,,78,0
303125,note_on,60,0,3,,,,,,,,,2,,,,69,0
303125,note_on,0,0,3,,,,,,,,,2,,,,78,101
303128,note_on,10,0,13,,,,,,,,,12,,,,66,127
303129,note_on,0,0,4,,,,,,,,,3,,,,66,115
303129,note_on,0,0,4,,,,,,,,,3,,,,66,0
303129,note_on,360,0,4,,,,,,,,,3,,,,57,0
303129,note_on,0,0,4,,,,,,,,,3,,,,57,115
303132,note_on,10,0,14,,,,,,,,,13,,,,54,127
303134,note_on,10,0,15,,,,,,,,,14,,,,42,127
303181,note_on,60,0,1,,,,,,,,,0,,,,78,0
303181,note_on,0,0,1,,,,,,,,,0,,,,81,0
303185,note_on,0,0,3,,,,,,,,,2,,,,69,0
303185,note_on,60,0,3,,,,,,,,,2,,,,78,0
303240,set_tempo,120,1,0,,,,,,263158,,,,,,,,
303241,note_on,0,0,1,,,,,,,,,0,,,,78,101
303241,note_on,60,0,1,,,,,,,,,0,,,,81,101
303245,note_on,0,0,3,,,,,,,,,2,,,,69,101
303245,note_on,60,0,3,,,,,,,,,2,,,,78,101
303301,note_on,60,0,1,,,,,,,,,0,,,,78,0
303301,note_on,0,0,1,,,,,,,,,0,,,,81,0
303305,note_on,0,0,3,,,,,,,,,2,,,,78,0
303305,note_on,60,0,3,,,,,,,,,2,,,,69,0
303360,note_on,240,0,11,,,,,,,,,10,,,,78,0
303360,note_on,0,0,11,,,,,,,,,10,,,,74,112
303360,set_tempo,120,1,0,,,,,,288462,,,,,,,,
303361,note_on,60,0,1,,,,,,,,,0,,,,78,101
303361,note_on,0,0,1,,,,,,,,,0,,,,81,101
303363,note_on,240,0,12,,,,,,,,,11,,,,78,0
303363,note_on,0,0,12,,,,,,,,,11,,,,74,112
303365,note_on,60,0,3,,,,,,,,,2,,,,78,101
303365,note_on,0,0,3,,,,,,,,,2,,,,69,101
303368,note_on,0,0,13,,,,,,,,,12,,,,62,112
303368,note_on,240,0,13,,,,,,,,,12,,,,66,0
303372,note_on,240,0,14,,,,,,,,,13,,,,54,0
303372,note_on,0,0,14,,,,,,,,,13,,,,50,112
303374,note_on,240,0,15,,,,,,,,,14,,,,42,0
303374,note_on,0,0,15,,,,,,,,,14,,,,38,112
303421,note_on,60,0,1,,,,,,,,,0,,,,81,0
303421,note_on,0,0,1,,,,,,,,,0,,,,78,0
303425,note_on,0,0,3,,,,,,,,,2,,,,78,0
303425,note_on,60,0,3,,,,,,,,,2,,,,69,0
303470,note_on,110,0,11,,,,,,,,,10,,,,74,0
303473,note_on,110,0,12,,,,,,,,,11,,,,74,0
303478,note_on,110,0,13,,,,,,,,,12,,,,62,0
303480,note_on,10,0,11,,,,,,,,,10,,,,71,127
303480,set_tempo,120,1,0,,,,,,254237,,,,,,,,
303481,note_on,0,0,1,,,,,,,,,0,,,,83,101
303481,note_on,60,0,1,,,,,,,,,0,,,,86,101
303482,note_on,110,0,14,,,,,,,,,13,,,,50,0
303483,note_on,0,0,5,,,,,,,,,4,,,,62,115
303483,note_on,10,0,12,,,,,,,,,11,,,,71,127
303483,note_on,360,0,5,,,,,,,,,4,,,,62,0
303484,note_on,360,0,6,,,,,,,,,5,,,,62,0
303484,note_on,0,0,6,,,,,,,,,5,,,,62,115
303484,note_on,0,0,2,,,,,,,,,1,,,,74,100
303484,note_on,0,0,2,,,,,,,,,1,,,,78,115
303484,note_on,0,0,2,,,,,,,,,1,,,,81,0
303484,note_on,360,0,2,,,,,,,,,1,,,,78,0
303484,note_on,110,0,15,,,,,,,,,14,,,,38,0
303485,note_on,0,0,3,,,,,,,,,2,,,,78,116
303485,note_on,60,0,3,,,,,,,,,2,,,,74,101
303488,note_on,10,0,13,,,,,,,,,12,,,,59,127
303489,note_on,360,0,4,,,,,,,,,3,,,,57,0
303489,note_on,0,0,4,,,,,,,,,3,,,,66,0
303489,note_on,0,0,4,,,,,,,,,3,,,,66,115
303489,note_on,0,0,4,,,,,,,,,3,,,,59,115
303492,note_on,10,0,14,,,,,,,,,13,,,,47,127
303494,note_on,10,0,15,,,,,,,,,14,,,,35,127
303511,note_on,30,0,1,,,,,,,,,0,,,,86,0
303514,note_on,30,0,2,,,,,,,,,1,,,,74,0
303515,note_on,30,0,3,,,,,,,,,2,,,,74,0
303541,note_on,30,0,1,,,,,,,,,0,,,,86,101
303544,note_on,30,0,2,,,,,,,,,1,,,,74,100
303545,note_on,30,0,3,,,,,,,,,2,,,,74,101
303571,note_on,30,0,1,,,,,,,,,0,,,,86,0
303574,note_on,30,0,2,,,,,,,,,1,,,,74,0
303575,note_on,30,0,3,,,,,,,,,2,,,,74,0
303600,set_tempo,120,1,0,,,,,,263158,,,,,,,,
303601,note_on,30,0,1,,,,,,,,,0,,,,88,101
303604,note_on,30,0,2,,,,,,,,,1,,,,76,100
303605,note_on,30,0,3,,,,,,,,,2,,,,76,101
303661,note_on,60,0,1,,,,,,,,,0,,,,88,0
303661,note_on,0,0,1,,,,,,,,,0,,,,86,101
303664,note_on,60,0,2,,,,,,,,,1,,,,76,0
303664,note_on,0,0,2,,,,,,,,,1,,,,74,100
303665,note_on,0,0,3,,,,,,,,,2,,,,74,101
303665,note_on,60,0,3,,,,,,,,,2,,,,76,0
303720,note_on,240,0,11,,,,,,,,,10,,,,71,0
303720,set_tempo,120,1,0,,,,,,288462,,,,,,,,
303720,note_on,0,0,11,,,,,,,,,10,,,,66,112
303721,note_on,0,0,1,,,,,,,,,0,,,,88,101
303721,note_on,60,0,1,,,,,,,,,0,,,,86,0
303723,note_on,240,0,12,,,,,,,,,11,,,,71,0
303723,note_on,0,0,12,,,,,,,,,11,,,,66,112
303724,note_on,0,0,2,,,,,,,,,1,,,,76,100
303724,note_on,60,0,2,,,,,,,,,1,,,,74,0
303725,note_on,60,0,3,,,,,,,,,2,,,,74,0
303725,note_on,0,0,3,,,,,,,,,2,,,,76,101
303728,note_on,0,0,13,,,,,,,,,12,,,,66,112
303728,note_on,240,0,13,,,,,,,,,12,,,,59,0
303732,note_on,0,0,14,,,,,,,,,13,,,,54,112
303732,note_on,240,0,14,,,,,,,,,13,,,,47,0
303734,note_on,0,0,15,,,,,,,,,14,,,,42,112
303734,note_on,240,0,15,,,,,,,,,14,,,,35,0
303781,note_on,60,0,1,,,,,,,,,0,,,,88,0
303781,note_on,0,0,1,,,,,,,,,0,,,,86,101
303784,note_on,60,0,2,,,,,,,,,1,,,,76,0
303784,note_on,0,0,2,,,,,,,,,1,,,,74,100
303785,note_on,0,0,3,,,,,,,,,2,,,,74,101
303785,note_on,60,0,3,,,,,,,,,2,,,,76,0
303830,note_on,110,0,11,,,,,,,,,10,,,,66,0
303833,note_on,110,0,12,,,,,,,,,11,,,,66,0
303838,note_on,110,0,13,,,,,,,,,12,,,,66,0
303840,set_tempo,120,1,0,,,,,,254237,,,,,,,,
303840,note_on,10,0,11,,,,,,,,,10,,,,62,127
303841,note_on,0,0,1,,,,,,,,,0,,,,86,101
303841,note_on,0,0,1,,,,,,,,,0,,,,83,101
303841,note_on,0,0,1,,,,,,,,,0,,,,83,0
303841,note_on,60,0,1,,,,,,,,,0,,,,86,0
303842,note_on,110,0,14,,,,,,,,,13,,,,54,0
303843,note_on,0,0,5,,,,,,,,,4,,,,62,100
303843,note_on,360,0,5,,,,,,,,,4,,,,62,0
303843,note_on,10,0,12,,,,,,,,,11,,,,62,127
303844,note_on,60,0,2,,,,,,,,,1,,,,74,0
303844,note_on,0,0,2,,,,,,,,,1,,,,74,100
303844,note_on,0,0,2,,,,,,,,,1,,,,78,100
303844,note_on,0,0,6,,,,,,,,,5,,,,62,100
303844,note_on,360,0,6,,,,,,,,,5,,,,62,0
303844,note_on,0,0,2,,,,,,,,,1,,,,78,0
303844,note_on,110,0,15,,,,,,,,,14,,,,42,0
303845,note_on,0,0,3,,,,,,,,,2,,,,78,0
303845,note_on,0,0,3,,,,,,,,,2,,,,78,101
303845,note_on,60,0,3,,,,,,,,,2,,,,74,0
303845,note_on,0,0,3,,,,,,,,,2,,,,74,101
303848,note_on,10,0,13,,,,,,,,,12,,,,62,127
303849,note_on,360,0,4,,,,,,,,,3,,,,66,0
303849,note_on,0,0,4,,,,,,,,,3,,,,59,0
303849,note_on,0,0,4,,,,,,,,,3,,,,59,100
303849,note_on,0,0,4,,,,,,,,,3,,,,66,100
303852,note_on,10,0,14,,,,,,,,,13,,,,50,127
303854,note_on,10,0,15,,,,,,,,,14,,,,38,127
303901,note_on,60,0,1,,,,,,,,,0,,,,86,0
303901,note_on,0,0,1,,,,,,,,,0,,,,83,0
303903,note_on,60,0,5,,,,,,,,,4,,,,62,0
303904,note_on,0,0,2,,,,,,,,,1,,,,74,0
303904,note_on,60,0,6,,,,,,,,,5,,,,62,0
303904,note_on,60,0,2,,,,,,,,,1,,,,78,0
303905,note_on,60,0,3,,,,,,,,,2,,,,74,0
303905,note_on,0,0,3,,,,,,,,,2,,,,78,0
303909,note_on,60,0,4,,,,,,,,,3,,,,66,0
303909,note_on,0,0,4,,,,,,,,,3,,,,59,0
303960,set_tempo,120,1,0,,,,,,263158,,,,,,,,
303961,note_on,0,0,1,,,,,,,,,0,,,,83,101
303961,note_on,60,0,1,,,,,,,,,0,,,,86,101
303963,note_on,60,0,5,,,,,,,,,4,,,,62,100
303964,note_on,0,0,2,,,,,,,,,1,,,,74,100
303964,note_on,60,0,2,,,,,,,,,1,,,,78,100
303964,note_on,60,0,6,,,,,,,,,5,,,,62,100
303965,note_on,0,0,3,,,,,,,,,2,,,,74,101
303965,note_on,60,0,3,,,,,,,,,2,,,,78,101
303969,note_on,0,0,4,,,,,,,,,3,,,,66,100
303969,note_on,60,0,4,,,,,,,,,3,,,,59,100
304021,note_on,60,0,1,,,,,,,,,0,,,,83,0
304021,note_on,0,0,1,,,,,,,,,0,,,,86,0
304023,note_on,60,0,5,,,,,,,,,4,,,,62,0
304024,note_on,60,0,6,,,,,,,,,5,,,,62,0
304024,note_on,0,0,2,,,,,,,,,1,,,,78,0
304024,note_on,60,0,2,,,,,,,,,1,,,,74,0
304025,note_on,0,0,3,,,,,,,,,2,,,,78,0
304025,note_on,60,0,3,,,,,,,,,2,,,,74,0
304029,note_on,60,0,4,,,,,,,,,3,,,,66,0
304029,note_on,0,0,4,,,,,,,,,3,,,,59,0
304080,note_on,0,0,11,,,,,,,,,10,,,,59,112
304080,note_on,240,0,11,,,,,,,,,10,,,,62,0
304080,set_tempo,120,1,0,,,,,,288462,,,,,,,,
304081,note_on,60,0,1,,,,,,,,,0,,,,83,101
304081,note_on,0,0,1,,,,,,,,,0,,,,86,101
304083,note_on,60,0,5,,,,,,,,,4,,,,62,100
304083,note_on,240,0,12,,,,,,,,,11,,,,62,0
304083,note_on,0,0,12,,,,,,,,,11,,,,59,112
304084,note_on,60,0,2,,,,,,,,,1,,,,74,100
304084,note_on,60,0,6,,,,,,,,,5,,,,62,100
304084,note_on,0,0,2,,,,,,,,,1,,,,78,100
304085,note_on,0,0,3,,,,,,,,,2,,,,74,101
304085,note_on,60,0,3,,,,,,,,,2,,,,78,101
304088,note_on,0,0,13,,,,,,,,,12,,,,59,112
304088,note_on,240,0,13,,,,,,,,,12,,,,62,0
304089,note_on,0,0,4,,,,,,,,,3,,,,66,100
304089,note_on,60,0,4,,,,,,,,,3,,,,59,100
304092,note_on,0,0,14,,,,,,,,,13,,,,47,112
304092,note_on,240,0,14,,,,,,,,,13,,,,50,0
304094,note_on,240,0,15,,,,,,,,,14,,,,38,0
304094,note_on,0,0,15,,,,,,,,,14,,,,35,112
304141,note_on,0,0,1,,,,,,,,,0,,,,83,0
304141,note_on,60,0,1,,,,,,,,,0,,,,86,0
304143,note_on,60,0,5,,,,,,,,,4,,,,62,0
304144,note_on,60,0,6,,,,,,,,,5,,,,62,0
304144,note_on,0,0,2,,,,,,,,,1,,,,74,0
304144,note_on,60,0,2,,,,,,,,,1,,,,78,0
304145,note_on,60,0,3,,,,,,,,,2,,,,74,0
304145,note_on,0,0,3,,,,,,,,,2,,,,78,0
304149,note_on,0,0,4,,,,,,,,,3,,,,59,0
304149,note_on,60,0,4,,,,,,,,,3,,,,66,0
304190,note_on,110,0,11,,,,,,,,,10,,,,59,0
304193,note_on,110,0,12,,,,,,,,,11,,,,59,0
304198,note_on,110,0,13,,,,,,,,,12,,,,59,0
304200,set_tempo,120,1,0,,,,,,254237,,,,,,,,
304200,control_change,10,0,11,,,,,,,,,10,11,127,,,
304200,note_on,0,0,11,,,,,,,,,10,,,,55,112
304201,control_change,0,0,1,,,,,,,,,0,11,86,,,
304201,note_on,60,0,1,,,,,,,,,0,,,,83,116
304201,note_on,0,0,1,,,,,,,,,0,,,,86,116
304202,note_on,110,0,14,,,,,,,,,13,,,,47,0
304202,note_on,8520,0,7,,,,,,,,,6,,,,67,112
304202,control_change,0,0,7,,,,,,,,,6,11,102,,,
304203,control_change,0,0,5,,,,,,,,,4,11,102,,,
304203,note_on,60,0,5,,,,,,,,,4,,,,62,115
304203,control_change,0,0,12,,,,,,,,,11,11,127,,,
304203,note_on,10,0,12,,,,,,,,,11,,,,55,112
304204,note_on,60,0,6,,,,,,,,,5,,,,62,115
304204,note_on,0,0,2,,,,,,,,,1,,,,74,115
304204,control_change,0,0,2,,,,,,,,,1,11,86,,,
304204,note_on,60,0,2,,,,,,,,,1,,,,77,115
304204,note_on,110,0,15,,,,,,,,,14,,,,35,0
304204,control_change,0,0,6,,,,,,,,,5,11,102,,,
304205,control_change,5,0,11,,,,,,,,,10,11,124,,,
304205,note_on,0,0,3,,,,,,,,,2,,,,71,116
304205,note_on,0,0,3,,,,,,,,,2,,,,77,116
304205,control_change,60,0,3,,,,,,,,,2,11,86,,,
304207,control_change,0,0,8,,,,,,,,,7,11,102,,,
304207,note_on,8520,0,8,,,,,,,,,7,,,,62,125
304207,program_change,9,0,13,,,,,,,,50,12,,,,,
304207,note_on,0,0,8,,,,,,,,,7,,,,59,125
304208,control_change,5,0,12,,,,,,,,,11,11,124,,,
304208,control_change,0,0,13,,,,,,,,,12,11,127,,,
304208,note_on,1,0,13,,,,,,,,,12,,,,55,112
304209,control_change,60,0,4,,,,,,,,,3,11,97,,,
304209,note_on,0,0,4,,,,,,,,,3,,,,59,115
304209,note_on,0,0,4,,,,,,,,,3,,,,65,115
304210,control_change,5,0,11,,,,,,,,,10,11,121,,,
304212,note_on,0,0,14,,,,,,,,,13,,,,43,112
304212,control_change,10,0,14,,,,,,,,,13,11,127,,,
304213,control_change,5,0,13,,,,,,,,,12,11,124,,,
304213,control_change,5,0,12,,,,,,,,,11,11,121,,,
304213,control_change,0,0,9,,,,,,,,,8,11,102,,,
304213,note_on,8520,0,9,,,,,,,,,8,,,,55,125
304214,control_change,0,0,15,,,,,,,,,14,11,127,,,
304214,note_on,10,0,15,,,,,,,,,14,,,,31,112
304215,note_on,8520,0,10,,,,,,,,,15,,,,43,100
304216,control_change,6,0,11,,,,,,,,,10,11,118,,,
304217,control_change,5,0,14,,,,,,,,,13,11,124,,,
304218,control_change,5,0,13,,,,,,,,,12,11,121,,,
304219,control_change,5,0,15,,,,,,,,,14,11,124,,,
304219,control_change,6,0,12,,,,,,,,,11,11,118,,,
304221,control_change,5,0,11,,,,,,,,,10,11,115,,,
304222,control_change,5,0,14,,,,,,,,,13,11,121,,,
304224,control_change,5,0,12,,,,,,,,,11,11,115,,,
304224,control_change,5,0,15,,,,,,,,,14,11,121,,,
304224,control_change,6,0,13,,,,,,,,,12,11,118,,,
304227,control_change,6,0,11,,,,,,,,,10,11,112,,,
304228,control_change,6,0,14,,,,,,,,,13,11,118,,,
304229,control_change,5,0,13,,,,,,,,,12,11,115,,,
304230,note_on,3,0,11,,,,,,,,,10,,,,55,0
304230,control_change,6,0,15,,,,,,,,,14,11,118,,,
304230,control_change,6,0,12,,,,,,,,,11,11,112,,,
304232,control_change,2,0,11,,,,,,,,,10,11,109,,,
304233,control_change,5,0,14,,,,,,,,,13,11,115,,,
304233,note_on,3,0,12,,,,,,,,,11,,,,55,0
304235,control_change,5,0,15,,,,,,,,,14,11,115,,,
304235,control_change,6,0,13,,,,,,,,,12,11,112,,,
304235,control_change,2,0,12,,,,,,,,,11,11,109,,,
304237,control_change,5,0,11,,,,,,,,,10,11,106,,,
304238,note_on,3,0,13,,,,,,,,,12,,,,55,0
304239,control_change,6,0,14,,,,,,,,,13,11,112,,,
304240,control_change,5,0,12,,,,,,,,,11,11,106,,,
304240,control_change,2,0,13,,,,,,,,,12,11,109,,,
304241,control_change,6,0,15,,,,,,,,,14,11,112,,,
304242,note_on,3,0,14,,,,,,,,,13,,,,43,0
304243,control_change,6,0,11,,,,,,,,,10,11,103,,,
304244,note_on,3,0,15,,,,,,,,,14,,,,31,0
304244,control_change,2,0,14,,,,,,,,,13,11,109,,,
304245,control_change,5,0,13,,,,,,,,,12,11,106,,,
304246,control_change,6,0,12,,,,,,,,,11,11,103,,,
304246,control_change,2,0,15,,,,,,,,,14,11,109,,,
304249,control_change,5,0,14,,,,,,,,,13,11,106,,,
304251,control_change,5,0,15,,,,,,,,,14,11,106,,,
304251,control_change,6,0,13,,,,,,,,,12,11,103,,,
304255,control_change,6,0,14,,,,,,,,,13,11,103,,,
304257,control_change,6,0,15,,,,,,,,,14,11,103,,,
304260,note_on,17,0,11,,,,,,,,,10,,,,55,112
304263,note_on,17,0,12,,,,,,,,,11,,,,55,112
304268,note_on,17,0,13,,,,,,,,,12,,,,55,112
304272,note_on,17,0,14,,,,,,,,,13,,,,43,112
304274,note_on,17,0,15,,,,,,,,,14,,,,31,112
304290,note_on,30,0,11,,,,,,,,,10,,,,55,0
304293,note_on,30,0,12,,,,,,,,,11,,,,55,0
304298,note_on,30,0,13,,,,,,,,,12,,,,55,0
304302,note_on,30,0,14,,,,,,,,,13,,,,43,0
304304,note_on,30,0,15,,,,,,,,,14,,,,31,0
304320,note_on,30,0,11,,,,,,,,,10,,,,57,112
304320,set_tempo,120,1,0,,,,,,263158,,,,,,,,
304322,note_on,120,0,7,,,,,,,,,6,,,,67,0
304323,note_on,30,0,12,,,,,,,,,11,,,,57,112
304328,note_on,30,0,13,,,,,,,,,12,,,,57,112
304332,note_on,30,0,14,,,,,,,,,13,,,,45,112
304334,note_on,30,0,15,,,,,,,,,14,,,,33,112
304335,note_on,120,0,10,,,,,,,,,15,,,,43,0
304350,note_on,30,0,11,,,,,,,,,10,,,,57,0
304353,note_on,30,0,12,,,,,,,,,11,,,,57,0
304358,note_on,30,0,13,,,,,,,,,12,,,,57,0
304362,note_on,30,0,14,,,,,,,,,13,,,,45,0
304364,note_on,30,0,15,,,,,,,,,14,,,,33,0
304380,note_on,30,0,11,,,,,,,,,10,,,,55,112
304383,note_on,30,0,12,,,,,,,,,11,,,,55,112
304388,note_on,30,0,13,,,,,,,,,12,,,,55,112
304392,note_on,30,0,14,,,,,,,,,13,,,,43,112
304394,note_on,30,0,15,,,,,,,,,14,,,,31,112
304410,note_on,30,0,11,,,,,,,,,10,,,,55,0
304413,note_on,30,0,12,,,,,,,,,11,,,,55,0
304418,note_on,30,0,13,,,,,,,,,12,,,,55,0
304422,note_on,30,0,14,,,,,,,,,13,,,,43,0
304424,note_on,30,0,15,,,,,,,,,14,,,,31,0
304440,note_on,30,0,11,,,,,,,,,10,,,,57,112
304440,set_tempo,120,1,0,,,,,,288462,,,,,,,,
304443,note_on,30,0,12,,,,,,,,,11,,,,57,112
304448,note_on,30,0,13,,,,,,,,,12,,,,57,112
304452,note_on,30,0,14,,,,,,,,,13,,,,45,112
304454,note_on,30,0,15,,,,,,,,,14,,,,33,112
304470,note_on,30,0,11,,,,,,,,,10,,,,57,0
304473,note_on,30,0,12,,,,,,,,,11,,,,57,0
304478,note_on,30,0,13,,,,,,,,,12,,,,57,0
304482,note_on,30,0,14,,,,,,,,,13,,,,45,0
304484,note_on,30,0,15,,,,,,,,,14,,,,33,0
304500,note_on,30,0,11,,,,,,,,,10,,,,55,112
304503,note_on,30,0,12,,,,,,,,,11,,,,55,112
304508,note_on,30,0,13,,,,,,,,,12,,,,55,112
304512,note_on,30,0,14,,,,,,,,,13,,,,43,112
304514,note_on,30,0,15,,,,,,,,,14,,,,31,112
304530,note_on,30,0,11,,,,,,,,,10,,,,55,0
304533,note_on,30,0,12,,,,,,,,,11,,,,55,0
304538,note_on,30,0,13,,,,,,,,,12,,,,55,0
304542,note_on,30,0,14,,,,,,,,,13,,,,43,0
304544,note_on,30,0,15,,,,,,,,,14,,,,31,0
304560,control_change,0,0,11,,,,,,,,,10,11,127,,,
304560,note_on,30,0,11,,,,,,,,,10,,,,61,112
304560,set_tempo,120,1,0,,,,,,254237,,,,,,,,
304561,note_on,0,0,1,,,,,,,,,0,,,,82,116
304561,note_on,0,0,1,,,,,,,,,0,,,,83,0
304561,note_on,360,0,1,,,,,,,,,0,,,,86,0
304561,note_on,0,0,1,,,,,,,,,0,,,,88,116
304562,note_on,240,0,7,,,,,,,,,6,,,,67,112
304563,control_change,30,0,12,,,,,,,,,11,11,127,,,
304563,note_on,0,0,5,,,,,,,,,4,,,,67,115
304563,note_on,0,0,12,,,,,,,,,11,,,,61,112
304563,note_on,360,0,5,,,,,,,,,4,,,,62,0
304564,note_on,0,0,2,,,,,,,,,1,,,,76,115
304564,note_on,0,0,2,,,,,,,,,1,,,,79,115
304564,note_on,0,0,6,,,,,,,,,5,,,,55,115
304564,note_on,360,0,6,,,,,,,,,5,,,,62,0
304564,note_on,0,0,2,,,,,,,,,1,,,,77,0
304564,note_on,360,0,2,,,,,,,,,1,,,,74,0
304565,note_on,0,0,3,,,,,,,,,2,,,,76,116
304565,note_on,0,0,3,,,,,,,,,2,,,,71,0
304565,note_on,360,0,3,,,,,,,,,2,,,,77,0
304565,control_change,5,0,11,,,,,,,,,10,11,124,,,
304565,note_on,0,0,3,,,,,,,,,2,,,,70,116
304567,note_on,360,0,8,,,,,,,,,7,,,,59,0
304567,note_on,0,0,8,,,,,,,,,7,,,,62,0
304567,note_on,0,0,8,,,,,,,,,7,,,,64,125
304567,note_on,0,0,8,,,,,,,,,7,,,,58,125
304568,control_change,5,0,12,,,,,,,,,11,11,124,,,
304568,note_on,30,0,13,,,,,,,,,12,,,,61,112
304568,control_change,0,0,13,,,,,,,,,12,11,127,,,
304569,note_on,360,0,4,,,,,,,,,3,,,,65,0
304569,note_on,0,0,4,,,,,,,,,3,,,,59,0
304569,note_on,0,0,4,,,,,,,,,3,,,,58,115
304569,note_on,0,0,4,,,,,,,,,3,,,,64,115
304570,control_change,5,0,11,,,,,,,,,10,11,121,,,
304572,control_change,30,0,14,,,,,,,,,13,11,127,,,
304572,note_on,0,0,14,,,,,,,,,13,,,,49,112
304573,control_change,5,0,13,,,,,,,,,12,11,124,,,
304573,note_on,360,0,9,,,,,,,,,8,,,,55,0
304573,note_on,0,0,9,,,,,,,,,8,,,,49,125
304573,control_change,5,0,12,,,,,,,,,11,11,121,,,
304574,control_change,0,0,15,,,,,,,,,14,11,127,,,
304574,note_on,30,0,15,,,,,,,,,14,,,,37,112
304575,note_on,240,0,10,,,,,,,,,15,,,,43,100
304576,control_change,6,0,11,,,,,,,,,10,11,118,,,
304577,control_change,5,0,14,,,,,,,,,13,11,124,,,
304578,control_change,5,0,13,,,,,,,,,12,11,121,,,
304579,control_change,5,0,15,,,,,,,,,14,11,124,,,
304579,control_change,6,0,12,,,,,,,,,11,11,118,,,
304581,control_change,5,0,11,,,,,,,,,10,11,115,,,
304582,control_change,5,0,14,,,,,,,,,13,11,121,,,
304584,control_change,6,0,13,,,,,,,,,12,11,118,,,
304584,control_change,5,0,15,,,,,,,,,14,11,121,,,
304584,control_change,5,0,12,,,,,,,,,11,11,115,,,
304587,control_change,6,0,11,,,,,,,,,10,11,112,,,
304588,control_change,6,0,14,,,,,,,,,13,11,118,,,
304589,control_change,5,0,13,,,,,,,,,12,11,115,,,
304590,control_change,6,0,15,,,,,,,,,14,11,118,,,
304590,control_change,6,0,12,,,,,,,,,11,11,112,,,
304592,control_change,5,0,11,,,,,,,,,10,11,109,,,
304593,control_change,5,0,14,,,,,,,,,13,11,115,,,
304595,control_change,6,0,13,,,,,,,,,12,11,112,,,
304595,control_change,5,0,15,,,,,,,,,14,11,115,,,
304595,control_change,5,0,12,,,,,,,,,11,11,109,,,
304597,control_change,5,0,11,,,,,,,,,10,11,106,,,
304599,control_change,6,0,14,,,,,,,,,13,11,112,,,
304600,control_change,5,0,13,,,,,,,,,12,11,109,,,
304600,control_change,5,0,12,,,,,,,,,11,11,106,,,
304601,control_change,6,0,15,,,,,,,,,14,11,112,,,
304603,control_change,6,0,11,,,,,,,,,10,11,103,,,
304604,control_change,5,0,14,,,,,,,,,13,11,109,,,
304605,control_change,5,0,13,,,,,,,,,12,11,106,,,
304606,control_change,6,0,12,,,,,,,,,11,11,103,,,
304606,control_change,5,0,15,,,,,,,,,14,11,109,,,
304609,control_change,5,0,14,,,,,,,,,13,11,106,,,
304611,control_change,5,0,15,,,,,,,,,14,11,106,,,
304611,control_change,6,0,13,,,,,,,,,12,11,103,,,
304615,control_change,6,0,14,,,,,,,,,13,11,103,,,
304617,control_change,6,0,15,,,,,,,,,14,11,103,,,
304620,note_on,17,0,11,,,,,,,,,10,,,,61,0
304623,note_on,17,0,12,,,,,,,,,11,,,,61,0
304628,note_on,17,0,13,,,,,,,,,12,,,,61,0
304632,note_on,17,0,14,,,,,,,,,13,,,,49,0
304634,note_on,17,0,15,,,,,,,,,14,,,,37,0
304680,note_on,60,0,11,,,,,,,,,10,,,,61,112
304680,set_tempo,120,1,0,,,,,,263158,,,,,,,,
304682,note_on,120,0,7,,,,,,,,,6,,,,67,0
304683,note_on,60,0,12,,,,,,,,,11,,,,61,112
304688,note_on,60,0,13,,,,,,,,,12,,,,61,112
304692,note_on,60,0,14,,,,,,,,,13,,,,49,112
304694,note_on,60,0,15,,,,,,,,,14,,,,37,112
304695,note_on,120,0,10,,,,,,,,,15,,,,43,0
304740,note_on,60,0,11,,,,,,,,,10,,,,61,0
304743,note_on,60,0,12,,,,,,,,,11,,,,61,0
304748,note_on,60,0,13,,,,,,,,,12,,,,61,0
304752,note_on,60,0,14,,,,,,,,,13,,,,49,0
304754,note_on,60,0,15,,,,,,,,,14,,,,37,0
304800,note_on,60,0,11,,,,,,,,,10,,,,61,112
304800,set_tempo,120,1,0,,,,,,288462,,,,,,,,
304803,note_on,60,0,12,,,,,,,,,11,,,,61,112
304808,note_on,60,0,13,,,,,,,,,12,,,,61,112
304812,note_on,60,0,14,,,,,,,,,13,,,,49,112
304814,note_on,60,0,15,,,,,,,,,14,,,,37,112
304860,note_on,60,0,11,,,,,,,,,10,,,,61,0
304863,note_on,60,0,12,,,,,,,,,11,,,,61,0
304868,note_on,60,0,13,,,,,,,,,12,,,,61,0
304872,note_on,60,0,14,,,,,,,,,13,,,,49,0
304874,note_on,60,0,15,,,,,,,,,14,,,,37,0
304920,set_tempo,120,1,0,,,,,,254237,,,,,,,,
304920,note_on,0,0,11,,,,,,,,,10,,,,62,112
304920,control_change,60,0,11,,,,,,,,,10,11,127,,,
304921,note_on,360,0,1,,,,,,,,,0,,,,82,0
304921,note_on,0,0,1,,,,,,,,,0,,,,88,0
304921,note_on,0,0,1,,,,,,,,,0,,,,90,101
304921,note_on,0,0,1,,,,,,,,,0,,,,81,101
304922,note_on,240,0,7,,,,,,,,,6,,,,74,112
304923,control_change,60,0,12,,,,,,,,,11,11,127,,,
304923,note_on,0,0,12,,,,,,,,,11,,,,62,112
304923,note_on,360,0,5,,,,,,,,,4,,,,67,0
304923,note_on,0,0,5,,,,,,,,,4,,,,62,100
304924,note_on,0,0,6,,,,,,,,,5,,,,62,100
304924,note_on,360,0,2,,,,,,,,,1,,,,79,0
304924,note_on,0,0,2,,,,,,,,,1,,,,84,100
304924,note_on,0,0,2,,,,,,,,,1,,,,78,100
304924,note_on,360,0,6,,,,,,,,,5,,,,55,0
304924,note_on,0,0,2,,,,,,,,,1,,,,76,0
304925,note_on,0,0,3,,,,,,,,,2,,,,69,101
304925,note_on,0,0,3,,,,,,,,,2,,,,76,0
304925,note_on,360,0,3,,,,,,,,,2,,,,70,0
304925,control_change,5,0,11,,,,,,,,,10,11,124,,,
304925,note_on,0,0,3,,,,,,,,,2,,,,72,101
304927,note_on,0,0,8,,,,,,,,,7,,,,57,110
304927,note_on,0,0,8,,,,,,,,,7,,,,60,110
304927,note_on,0,0,8,,,,,,,,,7,,,,64,0
304927,note_on,360,0,8,,,,,,,,,7,,,,58,0
304928,control_change,0,0,13,,,,,,,,,12,11,127,,,
304928,note_on,60,0,13,,,,,,,,,12,,,,62,112
304928,control_change,5,0,12,,,,,,,,,11,11,124,,,
304929,note_on,0,0,4,,,,,,,,,3,,,,66,100
304929,note_on,0,0,4,,,,,,,,,3,,,,57,100
304929,note_on,360,0,4,,,,,,,,,3,,,,64,0
304929,note_on,0,0,4,,,,,,,,,3,,,,58,0
304930,control_change,5,0,11,,,,,,,,,10,11,121,,,
304932,note_on,0,0,14,,,,,,,,,13,,,,50,112
304932,control_change,60,0,14,,,,,,,,,13,11,127,,,
304933,note_on,0,0,9,,,,,,,,,8,,,,50,110
304933,control_change,5,0,13,,,,,,,,,12,11,124,,,
304933,note_on,360,0,9,,,,,,,,,8,,,,49,0
304933,control_change,5,0,12,,,,,,,,,11,11,121,,,
304934,control_change,60,0,15,,,,,,,,,14,11,127,,,
304934,note_on,0,0,15,,,,,,,,,14,,,,38,112
304936,control_change,6,0,11,,,,,,,,,10,11,118,,,
304937,control_change,5,0,14,,,,,,,,,13,11,124,,,
304938,control_change,5,0,13,,,,,,,,,12,11,121,,,
304939,control_change,6,0,12,,,,,,,,,11,11,118,,,
304939,control_change,5,0,15,,,,,,,,,14,11,124,,,
304941,control_change,5,0,11,,,,,,,,,10,11,115,,,
304942,control_change,5,0,14,,,,,,,,,13,11,121,,,
304944,control_change,5,0,12,,,,,,,,,11,11,115,,,
304944,control_change,6,0,13,,,,,,,,,12,11,118,,,
304944,control_change,5,0,15,,,,,,,,,14,11,121,,,
304947,control_change,6,0,11,,,,,,,,,10,11,112,,,
304948,control_change,6,0,14,,,,,,,,,13,11,118,,,
304949,control_change,5,0,13,,,,,,,,,12,11,115,,,
304950,note_on,3,0,11,,,,,,,,,10,,,,62,0
304950,control_change,6,0,15,,,,,,,,,14,11,118,,,
304950,control_change,6,0,12,,,,,,,,,11,11,112,,,
304952,control_change,2,0,11,,,,,,,,,10,11,109,,,
304953,note_on,3,0,12,,,,,,,,,11,,,,62,0
304953,control_change,5,0,14,,,,,,,,,13,11,115,,,
304955,control_change,2,0,12,,,,,,,,,11,11,109,,,
304955,control_change,6,0,13,,,,,,,,,12,11,112,,,
304955,control_change,5,0,15,,,,,,,,,14,11,115,,,
304957,control_change,5,0,11,,,,,,,,,10,11,106,,,
304958,note_on,3,0,13,,,,,,,,,12,,,,62,0
304959,control_change,6,0,14,,,,,,,,,13,11,112,,,
304960,control_change,2,0,13,,,,,,,,,12,11,109,,,
304960,control_change,5,0,12,,,,,,,,,11,11,106,,,
304961,control_change,6,0,15,,,,,,,,,14,11,112,,,
304962,note_on,3,0,14,,,,,,,,,13,,,,50,0
304963,control_change,6,0,11,,,,,,,,,10,11,103,,,
304964,control_change,2,0,14,,,,,,,,,13,11,109,,,
304964,note_on,3,0,15,,,,,,,,,14,,,,38,0
304965,control_change,5,0,13,,,,,,,,,12,11,106,,,
304966,control_change,2,0,15,,,,,,,,,14,11,109,,,
304966,control_change,6,0,12,,,,,,,,,11,11,103,,,
304969,control_change,5,0,14,,,,,,,,,13,11,106,,,
304971,control_change,6,0,13,,,,,,,,,12,11,103,,,
304971,control_change,5,0,15,,,,,,,,,14,11,106,,,
304975,control_change,6,0,14,,,,,,,,,13,11,103,,,
304977,control_change,6,0,15,,,,,,,,,14,11,103,,,
304980,note_on,17,0,11,,,,,,,,,10,,,,62,112
304982,note_on,60,0,7,,,,,,,,,6,,,,74,0
304983,note_on,17,0,12,,,,,,,,,11,,,,62,112
304983,note_on,60,0,5,,,,,,,,,4,,,,62,0
304984,note_on,60,0,6,,,,,,,,,5,,,,62,0
304987,note_on,0,0,8,,,,,,,,,7,,,,60,0
304987,note_on,60,0,8,,,,,,,,,7,,,,57,0
304988,note_on,17,0,13,,,,,,,,,12,,,,62,112
304992,note_on,17,0,14,,,,,,,,,13,,,,50,112
304993,note_on,60,0,9,,,,,,,,,8,,,,50,0
304994,note_on,17,0,15,,,,,,,,,14,,,,38,112
305001,note_on,0,0,1,,,,,,,,,0,,,,90,0
305001,note_on,80,0,1,,,,,,,,,0,,,,81,0
305004,note_on,80,0,2,,,,,,,,,1,,,,84,0
305004,note_on,0,0,2,,,,,,,,,1,,,,78,0
305005,note_on,0,0,3,,,,,,,,,2,,,,69,0
305005,note_on,80,0,3,,,,,,,,,2,,,,72,0
305009,note_on,80,0,4,,,,,,,,,3,,,,66,0
305009,note_on,0,0,4,,,,,,,,,3,,,,57,0
305010,note_on,30,0,11,,,,,,,,,10,,,,62,0
305013,note_on,30,0,12,,,,,,,,,11,,,,62,0
305018,note_on,30,0,13,,,,,,,,,12,,,,62,0
305022,note_on,30,0,14,,,,,,,,,13,,,,50,0
305024,note_on,30,0,15,,,,,,,,,14,,,,38,0
305040,set_tempo,120,1,0,,,,,,263158,,,,,,,,
305040,note_on,30,0,11,,,,,,,,,10,,,,64,112
305041,note_on,0,0,1,,,,,,,,,0,,,,90,101
305041,note_on,40,0,1,,,,,,,,,0,,,,81,101
305042,note_on,60,0,7,,,,,,,,,6,,,,74,112
305043,note_on,30,0,12,,,,,,,,,11,,,,64,112
305043,note_on,60,0,5,,,,,,,,,4,,,,62,100
305044,note_on,0,0,2,,,,,,,,,1,,,,84,100
305044,note_on,40,0,2,,,,,,,,,1,,,,78,100
305044,note_on,60,0,6,,,,,,,,,5,,,,62,100
305045,note_on,40,0,3,,,,,,,,,2,,,,69,101
305045,note_on,0,0,3,,,,,,,,,2,,,,72,101
305047,note_on,0,0,8,,,,,,,,,7,,,,57,110
305047,note_on,60,0,8,,,,,,,,,7,,,,60,110
305048,note_on,30,0,13,,,,,,,,,12,,,,64,112
305049,note_on,40,0,4,,,,,,,,,3,,,,66,100
305049,note_on,0,0,4,,,,,,,,,3,,,,57,100
305052,note_on,30,0,14,,,,,,,,,13,,,,52,112
305053,note_on,60,0,9,,,,,,,,,8,,,,50,110
305054,note_on,30,0,15,,,,,,,,,14,,,,40,112
305070,note_on,30,0,11,,,,,,,,,10,,,,64,0
305073,note_on,30,0,12,,,,,,,,,11,,,,64,0
305078,note_on,30,0,13,,,,,,,,,12,,,,64,0
305082,note_on,30,0,14,,,,,,,,,13,,,,52,0
305084,note_on,30,0,15,,,,,,,,,14,,,,40,0
305100,note_on,30,0,11,,,,,,,,,10,,,,62,112
305102,note_on,60,0,7,,,,,,,,,6,,,,74,0
305103,note_on,60,0,5,,,,,,,,,4,,,,62,0
305103,note_on,30,0,12,,,,,,,,,11,,,,62,112
305104,note_on,60,0,6,,,,,,,,,5,,,,62,0
305107,note_on,60,0,8,,,,,,,,,7,,,,57,0
305107,note_on,0,0,8,,,,,,,,,7,,,,60,0
305108,note_on,30,0,13,,,,,,,,,12,,,,62,112
305112,note_on,30,0,14,,,,,,,,,13,,,,50,112
305113,note_on,60,0,9,,,,,,,,,8,,,,50,0
305114,note_on,30,0,15,,,,,,,,,14,,,,38,112
305121,note_on,0,0,1,,,,,,,,,0,,,,81,0
305121,note_on,80,0,1,,,,,,,,,0,,,,90,0
305124,note_on,80,0,2,,,,,,,,,1,,,,84,0
305124,note_on,0,0,2,,,,,,,,,1,,,,78,0
305125,note_on,80,0,3,,,,,,,,,2,,,,72,0
305125,note_on,0,0,3,,,,,,,,,2,,,,69,0
305129,note_on,0,0,4,,,,,,,,,3,,,,66,0
305129,note_on,80,0,4,,,,,,,,,3,,,,57,0
305130,note_on,30,0,11,,,,,,,,,10,,,,62,0
305133,note_on,30,0,12,,,,,,,,,11,,,,62,0
305138,note_on,30,0,13,,,,,,,,,12,,,,62,0
305142,note_on,30,0,14,,,,,,,,,13,,,,50,0
305144,note_on,30,0,15,,,,,,,,,14,,,,38,0
305160,note_on,30,0,11,,,,,,,,,10,,,,64,112
305160,set_tempo,120,1,0,,,,,,288462,,,,,,,,
305161,note_on,40,0,1,,,,,,,,,0,,,,90,101
305161,note_on,0,0,1,,,,,,,,,0,,,,81,101
305162,note_on,60,0,7,,,,,,,,,6,,,,74,112
305163,note_on,60,0,5,,,,,,,,,4,,,,62,100
305163,note_on,30,0,12,,,,,,,,,11,,,,64,112
305164,note_on,0,0,2,,,,,,,,,1,,,,84,100
305164,note_on,60,0,6,,,,,,,,,5,,,,62,100
305164,note_on,40,0,2,,,,,,,,,1,,,,78,100
305165,note_on,0,0,3,,,,,,,,,2,,,,72,101
305165,note_on,40,0,3,,,,,,,,,2,,,,69,101
305167,note_on,60,0,8,,,,,,,,,7,,,,60,110
305167,note_on,0,0,8,,,,,,,,,7,,,,57,110
305168,note_on,30,0,13,,,,,,,,,12,,,,64,112
305169,note_on,0,0,4,,,,,,,,,3,,,,66,100
305169,note_on,40,0,4,,,,,,,,,3,,,,57,100
305172,note_on,30,0,14,,,,,,,,,13,,,,52,112
305173,note_on,60,0,9,,,,,,,,,8,,,,50,110
305174,note_on,30,0,15,,,,,,,,,14,,,,40,112
305190,note_on,30,0,11,,,,,,,,,10,,,,64,0
305193,note_on,30,0,12,,,,,,,,,11,,,,64,0
305198,note_on,30,0,13,,,,,,,,,12,,,,64,0
305202,note_on,30,0,14,,,,,,,,,13,,,,52,0
305204,note_on,30,0,15,,,,,,,,,14,,,,40,0
305220,note_on,30,0,11,,,,,,,,,10,,,,62,112
305222,note_on,60,0,7,,,,,,,,,6,,,,74,0
305223,note_on,60,0,5,,,,,,,,,4,,,,62,0
305223,note_on,30,0,12,,,,,,,,,11,,,,62,112
305224,note_on,60,0,6,,,,,,,,,5,,,,62,0
305227,note_on,0,0,8,,,,,,,,,7,,,,60,0
305227,note_on,60,0,8,,,,,,,,,7,,,,57,0
305228,note_on,30,0,13,,,,,,,,,12,,,,62,112
305232,note_on,30,0,14,,,,,,,,,13,,,,50,112
305233,note_on,60,0,9,,,,,,,,,8,,,,50,0
305234,note_on,30,0,15,,,,,,,,,14,,,,38,112
305241,note_on,80,0,1,,,,,,,,,0,,,,81,0
305241,note_on,0,0,1,,,,,,,,,0,,,,90,0
305244,note_on,0,0,2,,,,,,,,,1,,,,78,0
305244,note_on,80,0,2,,,,,,,,,1,,,,84,0
305245,note_on,0,0,3,,,,,,,,,2,,,,69,0
305245,note_on,80,0,3,,,,,,,,,2,,,,72,0
305249,note_on,0,0,4,,,,,,,,,3,,,,57,0
305249,note_on,80,0,4,,,,,,,,,3,,,,66,0
305250,note_on,30,0,11,,,,,,,,,10,,,,62,0
305253,note_on,30,0,12,,,,,,,,,11,,,,62,0
305258,note_on,30,0,13,,,,,,,,,12,,,,62,0
305262,note_on,30,0,14,,,,,,,,,13,,,,50,0
305264,note_on,30,0,15,,,,,,,,,14,,,,38,0
305280,set_tempo,120,1,0,,,,,,254237,,,,,,,,
305280,control_change,30,0,11,,,,,,,,,10,11,127,,,
305280,note_on,0,0,11,,,,,,,,,10,,,,67,112
305281,note_on,40,0,1,,,,,,,,,0,,,,91,101
305281,note_on,0,0,1,,,,,,,,,0,,,,83,101
305282,note_on,60,0,7,,,,,,,,,6,,,,74,112
305282,note_on,0,0,7,,,,,,,,,6,,,,67,112
305283,note_on,60,0,5,,,,,,,,,4,,,,67,100
305283,control_change,0,0,12,,,,,,,,,11,11,127,,,
305283,note_on,30,0,12,,,,,,,,,11,,,,67,112
305284,note_on,40,0,2,,,,,,,,,1,,,,83,100
305284,note_on,0,0,2,,,,,,,,,1,,,,79,100
305284,note_on,60,0,6,,,,,,,,,5,,,,55,100
305285,note_on,0,0,3,,,,,,,,,2,,,,71,101
305285,note_on,40,0,3,,,,,,,,,2,,,,67,101
305287,note_on,60,0,8,,,,,,,,,7,,,,59,110
305287,note_on,0,0,8,,,,,,,,,7,,,,55,110
305287,control_change,7,0,11,,,,,,,,,10,11,124,,,
305288,note_on,0,0,13,,,,,,,,,12,,,,67,112
305288,control_change,30,0,13,,,,,,,,,12,11,127,,,
305289,note_on,0,0,4,,,,,,,,,3,,,,67,100
305289,note_on,40,0,4,,,,,,,,,3,,,,59,100
305290,control_change,7,0,12,,,,,,,,,11,11,124,,,
305292,control_change,30,0,14,,,,,,,,,13,11,127,,,
305292,note_on,0,0,14,,,,,,,,,13,,,,55,112
305293,note_on,60,0,9,,,,,,,,,8,,,,43,110
305294,control_change,30,0,15,,,,,,,,,14,11,127,,,
305294,control_change,7,0,11,,,,,,,,,10,11,121,,,
305294,note_on,0,0,15,,,,,,,,,14,,,,43,112
305295,control_change,7,0,13,,,,,,,,,12,11,124,,,
305295,note_on,600,0,10,,,,,,,,,15,,,,43,100
305297,control_change,7,0,12,,,,,,,,,11,11,121,,,
305299,control_change,7,0,14,,,,,,,,,13,11,124,,,
305301,control_change,7,0,15,,,,,,,,,14,11,124,,,
305301,control_change,7,0,11,,,,,,,,,10,11,118,,,
305302,control_change,7,0,13,,,,,,,,,12,11,121,,,
305304,control_change,7,0,12,,,,,,,,,11,11,118,,,
305306,control_change,7,0,14,,,,,,,,,13,11,121,,,
305308,control_change,7,0,15,,,,,,,,,14,11,121,,,
305308,control_change,7,0,11,,,,,,,,,10,11,115,,,
305309,control_change,7,0,13,,,,,,,,,12,11,118,,,
305311,control_change,7,0,12,,,,,,,,,11,11,115,,,
305313,control_change,7,0,14,,,,,,,,,13,11,118,,,
305315,control_change,7,0,15,,,,,,,,,14,11,118,,,
305316,control_change,8,0,11,,,,,,,,,10,11,112,,,
305316,control_change,7,0,13,,,,,,,,,12,11,115,,,
305319,control_change,8,0,12,,,,,,,,,11,11,112,,,
305320,control_change,7,0,14,,,,,,,,,13,11,115,,,
305322,control_change,7,0,15,,,,,,,,,14,11,115,,,
305323,control_change,7,0,11,,,,,,,,,10,11,109,,,
305324,control_change,8,0,13,,,,,,,,,12,11,112,,,
305326,control_change,7,0,12,,,,,,,,,11,11,109,,,
305328,control_change,8,0,14,,,,,,,,,13,11,112,,,
305330,control_change,7,0,11,,,,,,,,,10,11,106,,,
305330,control_change,8,0,15,,,,,,,,,14,11,112,,,
305331,control_change,7,0,13,,,,,,,,,12,11,109,,,
305333,control_change,7,0,12,,,,,,,,,11,11,106,,,
305335,control_change,7,0,14,,,,,,,,,13,11,109,,,
305337,control_change,7,0,15,,,,,,,,,14,11,109,,,
305337,control_change,7,0,11,,,,,,,,,10,11,103,,,
305338,control_change,7,0,13,,,,,,,,,12,11,106,,,
305340,control_change,7,0,12,,,,,,,,,11,11,103,,,
305342,control_change,7,0,14,,,,,,,,,13,11,106,,,
305344,control_change,7,0,15,,,,,,,,,14,11,106,,,
305345,control_change,7,0,13,,,,,,,,,12,11,103,,,
305349,control_change,7,0,14,,,,,,,,,13,11,103,,,
305351,control_change,7,0,15,,,,,,,,,14,11,103,,,
305400,set_tempo,120,1,0,,,,,,263158,,,,,,,,
305400,note_on,63,0,11,,,,,,,,,10,,,,67,0
305401,note_on,120,0,1,,,,,,,,,0,,,,83,0
305401,note_on,0,0,1,,,,,,,,,0,,,,91,0
305402,note_on,0,0,7,,,,,,,,,6,,,,74,0
305402,note_on,120,0,7,,,,,,,,,6,,,,67,0
305403,note_on,120,0,5,,,,,,,,,4,,,,67,0
305403,note_on,63,0,12,,,,,,,,,11,,,,67,0
305404,note_on,120,0,6,,,,,,,,,5,,,,55,0
305404,note_on,120,0,2,,,,,,,,,1,,,,79,0
305404,note_on,0,0,2,,,,,,,,,1,,,,83,0
305405,note_on,120,0,3,,,,,,,,,2,,,,71,0
305405,note_on,0,0,3,,,,,,,,,2,,,,67,0
305407,note_on,120,0,8,,,,,,,,,7,,,,55,0
305407,note_on,0,0,8,,,,,,,,,7,,,,59,0
305408,note_on,63,0,13,,,,,,,,,12,,,,67,0
305409,note_on,120,0,4,,,,,,,,,3,,,,67,0
305409,note_on,0,0,4,,,,,,,,,3,,,,59,0
305412,note_on,63,0,14,,,,,,,,,13,,,,55,0
305413,note_on,120,0,9,,,,,,,,,8,,,,43,0
305414,note_on,63,0,15,,,,,,,,,14,,,,43,0
305415,note_on,120,0,10,,,,,,,,,15,,,,43,0
305520,set_tempo,120,1,0,,,,,,307692,,,,,,,,
305640,set_tempo,120,1,0,,,,,,254237,,,,,,,,
305640,control_change,240,0,11,,,,,,,,,10,11,102,,,
305640,note_on,0,0,11,,,,,,,,,10,,,,68,112
305641,control_change,0,0,1,,,,,,,,,0,11,86,,,
305641,note_on,0,0,1,,,,,,,,,0,,,,80,101
305641,note_on,240,0,1,,,,,,,,,0,,,,84,101
305642,control_change,240,0,7,,,,,,,,,6,11,102,,,
305642,note_on,0,0,7,,,,,,,,,6,,,,72,112
305643,note_on,240,0,12,,,,,,,,,11,,,,68,112
305643,control_change,0,0,12,,,,,,,,,11,11,102,,,
305643,note_on,0,0,5,,,,,,,,,4,,,,60,100
305643,control_change,240,0,5,,,,,,,,,4,11,102,,,
305644,note_on,240,0,6,,,,,,,,,5,,,,60,100
305644,control_change,0,0,6,,,,,,,,,5,11,102,,,
305644,control_change,0,0,2,,,,,,,,,1,11,86,,,
305644,note_on,0,0,2,,,,,,,,,1,,,,75,100
305644,note_on,240,0,2,,,,,,,,,1,,,,72,100
305645,control_change,240,0,3,,,,,,,,,2,11,86,,,
305645,note_on,0,0,3,,,,,,,,,2,,,,75,101
305645,note_on,0,0,3,,,,,,,,,2,,,,68,101
305647,control_change,0,0,8,,,,,,,,,7,11,102,,,
305647,note_on,240,0,8,,,,,,,,,7,,,,56,110
305648,control_change,240,0,13,,,,,,,,,12,11,102,,,
305648,note_on,0,0,13,,,,,,,,,12,,,,68,112
305649,note_on,0,0,4,,,,,,,,,3,,,,63,100
305649,note_on,0,0,4,,,,,,,,,3,,,,56,100
305649,control_change,240,0,4,,,,,,,,,3,11,97,,,
305652,control_change,240,0,14,,,,,,,,,13,11,102,,,
305652,note_on,0,0,14,,,,,,,,,13,,,,56,112
305653,note_on,0,0,9,,,,,,,,,8,,,,56,110
305653,control_change,240,0,9,,,,,,,,,8,11,102,,,
305654,note_on,240,0,15,,,,,,,,,14,,,,44,112
305654,control_change,0,0,15,,,,,,,,,14,11,102,,,
305655,note_on,240,0,10,,,,,,,,,15,,,,48,100
305670,note_on,30,0,11,,,,,,,,,10,,,,68,0
305673,note_on,30,0,12,,,,,,,,,11,,,,68,0
305678,note_on,30,0,13,,,,,,,,,12,,,,68,0
305682,note_on,30,0,14,,,,,,,,,13,,,,56,0
305684,note_on,30,0,15,,,,,,,,,14,,,,44,0
305700,note_on,30,0,11,,,,,,,,,10,,,,68,112
305703,note_on,30,0,12,,,,,,,,,11,,,,68,112
305708,note_on,30,0,13,,,,,,,,,12,,,,68,112
305712,note_on,30,0,14,,,,,,,,,13,,,,56,112
305714,note_on,30,0,15,,,,,,,,,14,,,,44,112
305730,note_on,30,0,11,,,,,,,,,10,,,,68,0
305733,note_on,30,0,12,,,,,,,,,11,,,,68,0
305738,note_on,30,0,13,,,,,,,,,12,,,,68,0
305742,note_on,30,0,14,,,,,,,,,13,,,,56,0
305744,note_on,30,0,15,,,,,,,,,14,,,,44,0
305760,set_tempo,120,1,0,,,,,,263158,,,,,,,,
305760,note_on,30,0,11,,,,,,,,,10,,,,70,112
305763,note_on,30,0,12,,,,,,,,,11,,,,70,112
305768,note_on,30,0,13,,,,,,,,,12,,,,70,112
305772,note_on,30,0,14,,,,,,,,,13,,,,58,112
305774,note_on,30,0,15,,,,,,,,,14,,,,46,112
305775,note_on,120,0,10,,,,,,,,,15,,,,48,0
305790,note_on,30,0,11,,,,,,,,,10,,,,70,0
305793,note_on,30,0,12,,,,,,,,,11,,,,70,0
305798,note_on,30,0,13,,,,,,,,,12,,,,70,0
305802,note_on,30,0,14,,,,,,,,,13,,,,58,0
305804,note_on,30,0,15,,,,,,,,,14,,,,46,0
305820,note_on,30,0,11,,,,,,,,,10,,,,68,112
305823,note_on,30,0,12,,,,,,,,,11,,,,68,112
305828,note_on,30,0,13,,,,,,,,,12,,,,68,112
305832,note_on,30,0,14,,,,,,,,,13,,,,56,112
305834,note_on,30,0,15,,,,,,,,,14,,,,44,112
305850,note_on,30,0,11,,,,,,,,,10,,,,68,0
305853,note_on,30,0,12,,,,,,,,,11,,,,68,0
305858,note_on,30,0,13,,,,,,,,,12,,,,68,0
305862,note_on,30,0,14,,,,,,,,,13,,,,56,0
305864,note_on,30,0,15,,,,,,,,,14,,,,44,0
305880,note_on,30,0,11,,,,,,,,,10,,,,70,112
305880,set_tempo,120,1,0,,,,,,288462,,,,,,,,
305883,note_on,30,0,12,,,,,,,,,11,,,,70,112
305887,note_on,240,0,8,,,,,,,,,7,,,,56,0
305888,note_on,30,0,13,,,,,,,,,12,,,,70,112
305892,note_on,30,0,14,,,,,,,,,13,,,,58,112
305893,note_on,240,0,9,,,,,,,,,8,,,,56,0
305894,note_on,30,0,15,,,,,,,,,14,,,,46,112
305910,note_on,30,0,11,,,,,,,,,10,,,,70,0
305913,note_on,30,0,12,,,,,,,,,11,,,,70,0
305918,note_on,30,0,13,,,,,,,,,12,,,,70,0
305922,note_on,30,0,14,,,,,,,,,13,,,,58,0
305924,note_on,30,0,15,,,,,,,,,14,,,,46,0
305940,note_on,30,0,11,,,,,,,,,10,,,,68,112
305943,note_on,30,0,12,,,,,,,,,11,,,,68,112
305948,note_on,30,0,13,,,,,,,,,12,,,,68,112
305952,note_on,30,0,14,,,,,,,,,13,,,,56,112
305954,note_on,30,0,15,,,,,,,,,14,,,,44,112
305970,note_on,30,0,11,,,,,,,,,10,,,,68,0
305973,note_on,30,0,12,,,,,,,,,11,,,,68,0
305978,note_on,30,0,13,,,,,,,,,12,,,,68,0
305982,note_on,30,0,14,,,,,,,,,13,,,,56,0
305984,note_on,30,0,15,,,,,,,,,14,,,,44,0
305991,note_on,350,0,1,,,,,,,,,0,,,,80,0
305991,note_on,0,0,1,,,,,,,,,0,,,,84,0
305992,note_on,350,0,7,,,,,,,,,6,,,,72,0
305993,note_on,350,0,5,,,,,,,,,4,,,,60,0
305994,note_on,0,0,2,,,,,,,,,1,,,,72,0
305994,note_on,350,0,2,,,,,,,,,1,,,,75,0
305994,note_on,350,0,6,,,,,,,,,5,,,,60,0
305995,note_on,350,0,3,,,,,,,,,2,,,,75,0
305995,note_on,0,0,3,,,,,,,,,2,,,,68,0
305999,note_on,0,0,4,,,,,,,,,3,,,,56,0
305999,note_on,350,0,4,,,,,,,,,3,,,,63,0
306000,note_on,30,0,11,,,,,,,,,10,,,,72,112
306000,set_tempo,120,1,0,,,,,,258621,,,,,,,,
306001,note_on,0,0,1,,,,,,,,,0,,,,84,116
306001,note_on,10,0,1,,,,,,,,,0,,,,80,116
306002,note_on,10,0,7,,,,,,,,,6,,,,72,127
306003,note_on,30,0,12,,,,,,,,,11,,,,72,112
306003,note_on,10,0,5,,,,,,,,,4,,,,60,115
306004,note_on,10,0,6,,,,,,,,,5,,,,60,115
306004,note_on,10,0,2,,,,,,,,,1,,,,72,115
306004,note_on,0,0,2,,,,,,,,,1,,,,75,115
306005,note_on,10,0,3,,,,,,,,,2,,,,75,116
306005,note_on,0,0,3,,,,,,,,,2,,,,68,116
306007,note_on,120,0,8,,,,,,,,,7,,,,60,125
306008,note_on,30,0,13,,,,,,,,,12,,,,72,112
306009,note_on,10,0,4,,,,,,,,,3,,,,63,115
306009,note_on,0,0,4,,,,,,,,,3,,,,56,115
306012,note_on,30,0,14,,,,,,,,,13,,,,60,112
306013,note_on,120,0,9,,,,,,,,,8,,,,60,125
306014,note_on,30,0,15,,,,,,,,,14,,,,48,112
306015,note_on,240,0,10,,,,,,,,,15,,,,48,100
306060,note_on,60,0,11,,,,,,,,,10,,,,72,0
306063,note_on,60,0,12,,,,,,,,,11,,,,72,0
306068,note_on,60,0,13,,,,,,,,,12,,,,72,0
306072,note_on,60,0,14,,,,,,,,,13,,,,60,0
306074,note_on,60,0,15,,,,,,,,,14,,,,48,0
306120,note_on,60,0,11,,,,,,,,,10,,,,72,112
306123,note_on,60,0,12,,,,,,,,,11,,,,72,112
306128,note_on,60,0,13,,,,,,,,,12,,,,72,112
306132,note_on,60,0,14,,,,,,,,,13,,,,60,112
306134,note_on,60,0,15,,,,,,,,,14,,,,48,112
306135,note_on,120,0,10,,,,,,,,,15,,,,48,0
306180,note_on,60,0,11,,,,,,,,,10,,,,72,0
306183,note_on,60,0,12,,,,,,,,,11,,,,72,0
306188,note_on,60,0,13,,,,,,,,,12,,,,72,0
306192,note_on,60,0,14,,,,,,,,,13,,,,60,0
306194,note_on,60,0,15,,,,,,,,,14,,,,48,0
306240,set_tempo,240,1,0,,,,,,288462,,,,,,,,
306240,note_on,60,0,11,,,,,,,,,10,,,,72,112
306243,note_on,60,0,12,,,,,,,,,11,,,,72,112
306247,note_on,240,0,8,,,,,,,,,7,,,,60,0
306248,note_on,60,0,13,,,,,,,,,12,,,,72,112
306252,note_on,60,0,14,,,,,,,,,13,,,,60,112
306253,note_on,240,0,9,,,,,,,,,8,,,,60,0
306254,note_on,60,0,15,,,,,,,,,14,,,,48,112
306300,note_on,60,0,11,,,,,,,,,10,,,,72,0
306303,note_on,60,0,12,,,,,,,,,11,,,,72,0
306308,note_on,60,0,13,,,,,,,,,12,,,,72,0
306312,note_on,60,0,14,,,,,,,,,13,,,,60,0
306314,note_on,60,0,15,,,,,,,,,14,,,,48,0
306351,note_on,350,0,1,,,,,,,,,0,,,,84,0
306351,note_on,0,0,1,,,,,,,,,0,,,,80,0
306352,note_on,350,0,7,,,,,,,,,6,,,,72,0
306353,note_on,350,0,5,,,,,,,,,4,,,,60,0
306354,note_on,0,0,2,,,,,,,,,1,,,,72,0
306354,note_on,350,0,6,,,,,,,,,5,,,,60,0
306354,note_on,350,0,2,,,,,,,,,1,,,,75,0
306355,note_on,350,0,3,,,,,,,,,2,,,,68,0
306355,note_on,0,0,3,,,,,,,,,2,,,,75,0
306359,note_on,0,0,4,,,,,,,,,3,,,,63,0
306359,note_on,350,0,4,,,,,,,,,3,,,,56,0
306360,set_tempo,120,1,0,,,,,,254237,,,,,,,,
306360,note_on,60,0,11,,,,,,,,,10,,,,63,112
306361,note_on,0,0,1,,,,,,,,,0,,,,80,116
306361,note_on,10,0,1,,,,,,,,,0,,,,84,116
306362,note_on,10,0,7,,,,,,,,,6,,,,72,127
306363,note_on,60,0,12,,,,,,,,,11,,,,63,112
306363,note_on,10,0,5,,,,,,,,,4,,,,60,115
306364,note_on,0,0,2,,,,,,,,,1,,,,75,115
306364,note_on,10,0,6,,,,,,,,,5,,,,60,115
306364,note_on,10,0,2,,,,,,,,,1,,,,72,115
306365,note_on,0,0,3,,,,,,,,,2,,,,75,116
306365,note_on,10,0,3,,,,,,,,,2,,,,68,116
306367,note_on,120,0,8,,,,,,,,,7,,,,51,125
306368,note_on,60,0,13,,,,,,,,,12,,,,63,112
306369,note_on,0,0,4,,,,,,,,,3,,,,63,115
306369,note_on,10,0,4,,,,,,,,,3,,,,56,115
306372,note_on,60,0,14,,,,,,,,,13,,,,51,112
306373,note_on,120,0,9,,,,,,,,,8,,,,51,125
306374,note_on,60,0,15,,,,,,,,,14,,,,39,112
306375,note_on,240,0,10,,,,,,,,,15,,,,48,100
306390,note_on,30,0,11,,,,,,,,,10,,,,63,0
306393,note_on,30,0,12,,,,,,,,,11,,,,63,0
306398,note_on,30,0,13,,,,,,,,,12,,,,63,0
306402,note_on,30,0,14,,,,,,,,,13,,,,51,0
306404,note_on,30,0,15,,,,,,,,,14,,,,39,0
306420,note_on,30,0,11,,,,,,,,,10,,,,63,112
306423,note_on,30,0,12,,,,,,,,,11,,,,63,112
306428,note_on,30,0,13,,,,,,,,,12,,,,63,112
306432,note_on,30,0,14,,,,,,,,,13,,,,51,112
306434,note_on,30,0,15,,,,,,,,,14,,,,39,112
306450,note_on,30,0,11,,,,,,,,,10,,,,63,0
306453,note_on,30,0,12,,,,,,,,,11,,,,63,0
306458,note_on,30,0,13,,,,,,,,,12,,,,63,0
306462,note_on,30,0,14,,,,,,,,,13,,,,51,0
306464,note_on,30,0,15,,,,,,,,,14,,,,39,0
306480,note_on,30,0,11,,,,,,,,,10,,,,65,112
306480,set_tempo,120,1,0,,,,,,263158,,,,,,,,
306483,note_on,30,0,12,,,,,,,,,11,,,,65,112
306488,note_on,30,0,13,,,,,,,,,12,,,,65,112
306492,note_on,30,0,14,,,,,,,,,13,,,,53,112
306494,note_on,30,0,15,,,,,,,,,14,,,,41,112
306495,note_on,120,0,10,,,,,,,,,15,,,,48,0
306510,note_on,30,0,11,,,,,,,,,10,,,,65,0
306513,note_on,30,0,12,,,,,,,,,11,,,,65,0
306518,note_on,30,0,13,,,,,,,,,12,,,,65,0
306522,note_on,30,0,14,,,,,,,,,13,,,,53,0
306524,note_on,30,0,15,,,,,,,,,14,,,,41,0
306540,note_on,30,0,11,,,,,,,,,10,,,,63,112
306543,note_on,30,0,12,,,,,,,,,11,,,,63,112
306548,note_on,30,0,13,,,,,,,,,12,,,,63,112
306552,note_on,30,0,14,,,,,,,,,13,,,,51,112
306554,note_on,30,0,15,,,,,,,,,14,,,,39,112
306570,note_on,30,0,11,,,,,,,,,10,,,,63,0
306573,note_on,30,0,12,,,,,,,,,11,,,,63,0
306578,note_on,30,0,13,,,,,,,,,12,,,,63,0
306582,note_on,30,0,14,,,,,,,,,13,,,,51,0
306584,note_on,30,0,15,,,,,,,,,14,,,,39,0
306600,set_tempo,120,1,0,,,,,,288462,,,,,,,,
306600,note_on,30,0,11,,,,,,,,,10,,,,65,112
306603,note_on,30,0,12,,,,,,,,,11,,,,65,112
306607,note_on,240,0,8,,,,,,,,,7,,,,51,0
306608,note_on,30,0,13,,,,,,,,,12,,,,65,112
306612,note_on,30,0,14,,,,,,,,,13,,,,53,112
306613,note_on,240,0,9,,,,,,,,,8,,,,51,0
306614,note_on,30,0,15,,,,,,,,,14,,,,41,112
306630,note_on,30,0,11,,,,,,,,,10,,,,65,0
306633,note_on,30,0,12,,,,,,,,,11,,,,65,0
306638,note_on,30,0,13,,,,,,,,,12,,,,65,0
306642,note_on,30,0,14,,,,,,,,,13,,,,53,0
306644,note_on,30,0,15,,,,,,,,,14,,,,41,0
306660,note_on,30,0,11,,,,,,,,,10,,,,63,112
306663,note_on,30,0,12,,,,,,,,,11,,,,63,112
306668,note_on,30,0,13,,,,,,,,,12,,,,63,112
306672,note_on,30,0,14,,,,,,,,,13,,,,51,112
306674,note_on,30,0,15,,,,,,,,,14,,,,39,112
306690,note_on,30,0,11,,,,,,,,,10,,,,63,0
306693,note_on,30,0,12,,,,,,,,,11,,,,63,0
306698,note_on,30,0,13,,,,,,,,,12,,,,63,0
306702,note_on,30,0,14,,,,,,,,,13,,,,51,0
306704,note_on,30,0,15,,,,,,,,,14,,,,39,0
306711,note_on,0,0,1,,,,,,,,,0,,,,84,0
306711,note_on,350,0,1,,,,,,,,,0,,,,80,0
306712,note_on,350,0,7,,,,,,,,,6,,,,72,0
306713,note_on,350,0,5,,,,,,,,,4,,,,60,0
306714,note_on,0,0,2,,,,,,,,,1,,,,72,0
306714,note_on,350,0,6,,,,,,,,,5,,,,60,0
306714,note_on,350,0,2,,,,,,,,,1,,,,75,0
306715,note_on,350,0,3,,,,,,,,,2,,,,75,0
306715,note_on,0,0,3,,,,,,,,,2,,,,68,0
306719,note_on,0,0,4,,,,,,,,,3,,,,56,0
306719,note_on,350,0,4,,,,,,,,,3,,,,63,0
306720,note_on,30,0,11,,,,,,,,,10,,,,68,112
306720,set_tempo,120,1,0,,,,,,258621,,,,,,,,
306721,note_on,0,0,1,,,,,,,,,0,,,,84,116
306721,note_on,10,0,1,,,,,,,,,0,,,,80,116
306722,note_on,10,0,7,,,,,,,,,6,,,,72,127
306723,note_on,30,0,12,,,,,,,,,11,,,,68,112
306723,note_on,10,0,5,,,,,,,,,4,,,,60,115
306724,note_on,0,0,2,,,,,,,,,1,,,,72,115
306724,note_on,10,0,6,,,,,,,,,5,,,,60,115
306724,note_on,10,0,2,,,,,,,,,1,,,,75,115
306725,note_on,0,0,3,,,,,,,,,2,,,,75,116
306725,note_on,10,0,3,,,,,,,,,2,,,,68,116
306727,note_on,120,0,8,,,,,,,,,7,,,,56,125
306728,note_on,30,0,13,,,,,,,,,12,,,,68,112
306729,note_on,10,0,4,,,,,,,,,3,,,,63,115
306729,note_on,0,0,4,,,,,,,,,3,,,,56,115
306732,note_on,30,0,14,,,,,,,,,13,,,,56,112
306733,note_on,120,0,9,,,,,,,,,8,,,,56,125
306734,note_on,30,0,15,,,,,,,,,14,,,,44,112
306735,note_on,240,0,10,,,,,,,,,15,,,,48,100
306780,note_on,60,0,11,,,,,,,,,10,,,,68,0
306783,note_on,60,0,12,,,,,,,,,11,,,,68,0
306788,note_on,60,0,13,,,,,,,,,12,,,,68,0
306792,note_on,60,0,14,,,,,,,,,13,,,,56,0
306794,note_on,60,0,15,,,,,,,,,14,,,,44,0
306840,note_on,60,0,11,,,,,,,,,10,,,,68,112
306843,note_on,60,0,12,,,,,,,,,11,,,,68,112
306848,note_on,60,0,13,,,,,,,,,12,,,,68,112
306852,note_on,60,0,14,,,,,,,,,13,,,,56,112
306854,note_on,60,0,15,,,,,,,,,14,,,,44,112
306855,note_on,120,0,10,,,,,,,,,15,,,,48,0
306900,note_on,60,0,11,,,,,,,,,10,,,,68,0
306903,note_on,60,0,12,,,,,,,,,11,,,,68,0
306908,note_on,60,0,13,,,,,,,,,12,,,,68,0
306912,note_on,60,0,14,,,,,,,,,13,,,,56,0
306914,note_on,60,0,15,,,,,,,,,14,,,,44,0
306960,set_tempo,240,1,0,,,,,,288462,,,,,,,,
306960,note_on,60,0,11,,,,,,,,,10,,,,68,112
306963,note_on,60,0,12,,,,,,,,,11,,,,68,112
306967,note_on,240,0,8,,,,,,,,,7,,,,56,0
306968,note_on,60,0,13,,,,,,,,,12,,,,68,112
306972,note_on,60,0,14,,,,,,,,,13,,,,56,112
306973,note_on,240,0,9,,,,,,,,,8,,,,56,0
306974,note_on,60,0,15,,,,,,,,,14,,,,44,112
307020,note_on,60,0,11,,,,,,,,,10,,,,68,0
307023,note_on,60,0,12,,,,,,,,,11,,,,68,0
307028,note_on,60,0,13,,,,,,,,,12,,,,68,0
307032,note_on,60,0,14,,,,,,,,,13,,,,56,0
307034,note_on,60,0,15,,,,,,,,,14,,,,44,0
307071,note_on,350,0,1,,,,,,,,,0,,,,84,0
307071,note_on,0,0,1,,,,,,,,,0,,,,80,0
307072,note_on,350,0,7,,,,,,,,,6,,,,72,0
307073,note_on,350,0,5,,,,,,,,,4,,,,60,0
307074,note_on,350,0,6,,,,,,,,,5,,,,60,0
307074,note_on,0,0,2,,,,,,,,,1,,,,75,0
307074,note_on,350,0,2,,,,,,,,,1,,,,72,0
307075,note_on,0,0,3,,,,,,,,,2,,,,68,0
307075,note_on,350,0,3,,,,,,,,,2,,,,75,0
307079,note_on,0,0,4,,,,,,,,,3,,,,63,0
307079,note_on,350,0,4,,,,,,,,,3,,,,56,0
307080,set_tempo,120,1,0,,,,,,254237,,,,,,,,
307080,note_on,60,0,11,,,,,,,,,10,,,,60,112
307081,note_on,10,0,1,,,,,,,,,0,,,,80,101
307081,note_on,0,0,1,,,,,,,,,0,,,,84,101
307082,note_on,10,0,7,,,,,,,,,6,,,,72,127
307083,note_on,60,0,12,,,,,,,,,11,,,,60,112
307083,note_on,10,0,5,,,,,,,,,4,,,,60,115
307084,note_on,10,0,6,,,,,,,,,5,,,,60,115
307084,note_on,10,0,2,,,,,,,,,1,,,,72,100
307084,note_on,0,0,2,,,,,,,,,1,,,,75,100
307085,note_on,10,0,3,,,,,,,,,2,,,,75,101
307085,note_on,0,0,3,,,,,,,,,2,,,,68,101
307087,note_on,120,0,8,,,,,,,,,7,,,,60,110
307087,note_on,0,0,8,,,,,,,,,7,,,,48,110
307088,note_on,60,0,13,,,,,,,,,12,,,,60,112
307089,note_on,10,0,4,,,,,,,,,3,,,,63,100
307089,note_on,0,0,4,,,,,,,,,3,,,,56,100
307092,note_on,60,0,14,,,,,,,,,13,,,,48,112
307093,note_on,120,0,9,,,,,,,,,8,,,,48,110
307094,note_on,60,0,15,,,,,,,,,14,,,,36,112
307095,note_on,240,0,10,,,,,,,,,15,,,,48,100
307110,note_on,30,0,11,,,,,,,,,10,,,,60,0
307113,note_on,30,0,12,,,,,,,,,11,,,,60,0
307118,note_on,30,0,13,,,,,,,,,12,,,,60,0
307122,note_on,30,0,14,,,,,,,,,13,,,,48,0
307124,note_on,30,0,15,,,,,,,,,14,,,,36,0
307140,note_on,30,0,11,,,,,,,,,10,,,,60,112
307143,note_on,30,0,12,,,,,,,,,11,,,,60,112
307148,note_on,30,0,13,,,,,,,,,12,,,,60,112
307152,note_on,30,0,14,,,,,,,,,13,,,,48,112
307154,note_on,30,0,15,,,,,,,,,14,,,,36,112
307170,note_on,30,0,11,,,,,,,,,10,,,,60,0
307173,note_on,30,0,12,,,,,,,,,11,,,,60,0
307178,note_on,30,0,13,,,,,,,,,12,,,,60,0
307182,note_on,30,0,14,,,,,,,,,13,,,,48,0
307184,note_on,30,0,15,,,,,,,,,14,,,,36,0
307200,set_tempo,120,1,0,,,,,,263158,,,,,,,,
307200,note_on,30,0,11,,,,,,,,,10,,,,61,112
307203,note_on,30,0,12,,,,,,,,,11,,,,61,112
307208,note_on,30,0,13,,,,,,,,,12,,,,61,112
307212,note_on,30,0,14,,,,,,,,,13,,,,49,112
307214,note_on,30,0,15,,,,,,,,,14,,,,37,112
307215,note_on,120,0,10,,,,,,,,,15,,,,48,0
307230,note_on,30,0,11,,,,,,,,,10,,,,61,0
307233,note_on,30,0,12,,,,,,,,,11,,,,61,0
307238,note_on,30,0,13,,,,,,,,,12,,,,61,0
307242,note_on,30,0,14,,,,,,,,,13,,,,49,0
307244,note_on,30,0,15,,,,,,,,,14,,,,37,0
307260,note_on,30,0,11,,,,,,,,,10,,,,60,112
307263,note_on,30,0,12,,,,,,,,,11,,,,60,112
307268,note_on,30,0,13,,,,,,,,,12,,,,60,112
307272,note_on,30,0,14,,,,,,,,,13,,,,48,112
307274,note_on,30,0,15,,,,,,,,,14,,,,36,112
307290,note_on,30,0,11,,,,,,,,,10,,,,60,0
307293,note_on,30,0,12,,,,,,,,,11,,,,60,0
307298,note_on,30,0,13,,,,,,,,,12,,,,60,0
307302,note_on,30,0,14,,,,,,,,,13,,,,48,0
307304,note_on,30,0,15,,,,,,,,,14,,,,36,0
307320,set_tempo,120,1,0,,,,,,288462,,,,,,,,
307320,note_on,30,0,11,,,,,,,,,10,,,,61,112
307323,note_on,30,0,12,,,,,,,,,11,,,,61,112
307327,note_on,0,0,8,,,,,,,,,7,,,,60,0
307327,note_on,240,0,8,,,,,,,,,7,,,,48,0
307328,note_on,30,0,13,,,,,,,,,12,,,,61,112
307332,note_on,30,0,14,,,,,,,,,13,,,,49,112
307333,note_on,240,0,9,,,,,,,,,8,,,,48,0
307334,note_on,30,0,15,,,,,,,,,14,,,,37,112
307350,note_on,30,0,11,,,,,,,,,10,,,,61,0
307353,note_on,30,0,12,,,,,,,,,11,,,,61,0
307358,note_on,30,0,13,,,,,,,,,12,,,,61,0
307362,note_on,30,0,14,,,,,,,,,13,,,,49,0
307364,note_on,30,0,15,,,,,,,,,14,,,,37,0
307380,note_on,30,0,11,,,,,,,,,10,,,,60,112
307383,note_on,30,0,12,,,,,,,,,11,,,,60,112
307388,note_on,30,0,13,,,,,,,,,12,,,,60,112
307392,note_on,30,0,14,,,,,,,,,13,,,,48,112
307394,note_on,30,0,15,,,,,,,,,14,,,,36,112
307410,note_on,30,0,11,,,,,,,,,10,,,,60,0
307413,note_on,30,0,12,,,,,,,,,11,,,,60,0
307418,note_on,30,0,13,,,,,,,,,12,,,,60,0
307422,note_on,30,0,14,,,,,,,,,13,,,,48,0
307424,note_on,30,0,15,,,,,,,,,14,,,,36,0
307431,note_on,350,0,1,,,,,,,,,0,,,,84,0
307431,note_on,0,0,1,,,,,,,,,0,,,,80,0
307432,note_on,350,0,7,,,,,,,,,6,,,,72,0
307433,note_on,350,0,5,,,,,,,,,4,,,,60,0
307434,note_on,0,0,2,,,,,,,,,1,,,,72,0
307434,note_on,350,0,2,,,,,,,,,1,,,,75,0
307434,note_on,350,0,6,,,,,,,,,5,,,,60,0
307435,note_on,350,0,3,,,,,,,,,2,,,,68,0
307435,note_on,0,0,3,,,,,,,,,2,,,,75,0
307439,note_on,350,0,4,,,,,,,,,3,,,,56,0
307439,note_on,0,0,4,,,,,,,,,3,,,,63,0
307440,note_on,30,0,11,,,,,,,,,10,,,,63,112
307440,set_tempo,120,1,0,,,,,,258621,,,,,,,,
307441,note_on,0,0,1,,,,,,,,,0,,,,84,101
307441,note_on,10,0,1,,,,,,,,,0,,,,80,101
307442,note_on,10,0,7,,,,,,,,,6,,,,72,112
307443,note_on,10,0,5,,,,,,,,,4,,,,60,115
307443,note_on,30,0,12,,,,,,,,,11,,,,63,112
307444,note_on,10,0,6,,,,,,,,,5,,,,60,115
307444,note_on,10,0,2,,,,,,,,,1,,,,75,100
307444,note_on,0,0,2,,,,,,,,,1,,,,72,100
307445,note_on,0,0,3,,,,,,,,,2,,,,75,101
307445,note_on,10,0,3,,,,,,,,,2,,,,68,101
307447,note_on,120,0,8,,,,,,,,,7,,,,51,110
307447,note_on,0,0,8,,,,,,,,,7,,,,63,110
307448,note_on,30,0,13,,,,,,,,,12,,,,63,112
307449,note_on,10,0,4,,,,,,,,,3,,,,56,100
307449,note_on,0,0,4,,,,,,,,,3,,,,63,100
307452,note_on,30,0,14,,,,,,,,,13,,,,51,112
307453,note_on,120,0,9,,,,,,,,,8,,,,51,110
307454,note_on,30,0,15,,,,,,,,,14,,,,39,112
307455,note_on,240,0,10,,,,,,,,,15,,,,48,100
307500,note_on,60,0,11,,,,,,,,,10,,,,63,0
307503,note_on,60,0,12,,,,,,,,,11,,,,63,0
307508,note_on,60,0,13,,,,,,,,,12,,,,63,0
307512,note_on,60,0,14,,,,,,,,,13,,,,51,0
307514,note_on,60,0,15,,,,,,,,,14,,,,39,0
307560,note_on,60,0,11,,,,,,,,,10,,,,63,112
307563,note_on,60,0,12,,,,,,,,,11,,,,63,112
307568,note_on,60,0,13,,,,,,,,,12,,,,63,112
307572,note_on,60,0,14,,,,,,,,,13,,,,51,112
307574,note_on,60,0,15,,,,,,,,,14,,,,39,112
307575,note_on,120,0,10,,,,,,,,,15,,,,48,0
307620,note_on,60,0,11,,,,,,,,,10,,,,63,0
307623,note_on,60,0,12,,,,,,,,,11,,,,63,0
307628,note_on,60,0,13,,,,,,,,,12,,,,63,0
307632,note_on,60,0,14,,,,,,,,,13,,,,51,0
307634,note_on,60,0,15,,,,,,,,,14,,,,39,0
307680,note_on,60,0,11,,,,,,,,,10,,,,63,112
307680,set_tempo,240,1,0,,,,,,288462,,,,,,,,
307683,note_on,60,0,12,,,,,,,,,11,,,,63,112
307687,note_on,0,0,8,,,,,,,,,7,,,,51,0
307687,note_on,240,0,8,,,,,,,,,7,,,,63,0
307688,note_on,60,0,13,,,,,,,,,12,,,,63,112
307692,note_on,60,0,14,,,,,,,,,13,,,,51,112
307693,note_on,240,0,9,,,,,,,,,8,,,,51,0
307694,note_on,60,0,15,,,,,,,,,14,,,,39,112
307740,note_on,60,0,11,,,,,,,,,10,,,,63,0
307743,note_on,60,0,12,,,,,,,,,11,,,,63,0
307748,note_on,60,0,13,,,,,,,,,12,,,,63,0
307752,note_on,60,0,14,,,,,,,,,13,,,,51,0
307754,note_on,60,0,15,,,,,,,,,14,,,,39,0
307791,note_on,350,0,1,,,,,,,,,0,,,,84,0
307791,note_on,0,0,1,,,,,,,,,0,,,,80,0
307792,note_on,350,0,7,,,,,,,,,6,,,,72,0
307793,note_on,350,0,5,,,,,,,,,4,,,,60,0
307794,note_on,350,0,6,,,,,,,,,5,,,,60,0
307794,note_on,0,0,2,,,,,,,,,1,,,,75,0
307794,note_on,350,0,2,,,,,,,,,1,,,,72,0
307795,note_on,0,0,3,,,,,,,,,2,,,,68,0
307795,note_on,350,0,3,,,,,,,,,2,,,,75,0
307799,note_on,350,0,4,,,,,,,,,3,,,,63,0
307799,note_on,0,0,4,,,,,,,,,3,,,,56,0
307800,set_tempo,120,1,0,,,,,,258621,,,,,,,,
307800,note_on,60,0,11,,,,,,,,,10,,,,56,112
307801,note_on,10,0,1,,,,,,,,,0,,,,80,101
307801,note_on,0,0,1,,,,,,,,,0,,,,84,101
307802,note_on,10,0,7,,,,,,,,,6,,,,72,112
307803,note_on,60,0,12,,,,,,,,,11,,,,56,112
307803,note_on,10,0,5,,,,,,,,,4,,,,60,115
307804,note_on,0,0,2,,,,,,,,,1,,,,75,100
307804,note_on,10,0,2,,,,,,,,,1,,,,72,100
307804,note_on,10,0,6,,,,,,,,,5,,,,60,115
307805,note_on,10,0,3,,,,,,,,,2,,,,68,101
307805,note_on,0,0,3,,,,,,,,,2,,,,75,101
307807,note_on,120,0,8,,,,,,,,,7,,,,56,110
307808,note_on,60,0,13,,,,,,,,,12,,,,56,112
307809,note_on,10,0,4,,,,,,,,,3,,,,63,100
307809,note_on,0,0,4,,,,,,,,,3,,,,56,100
307812,note_on,60,0,14,,,,,,,,,13,,,,44,112
307813,note_on,120,0,9,,,,,,,,,8,,,,44,110
307814,note_on,60,0,15,,,,,,,,,14,,,,32,112
307815,note_on,240,0,10,,,,,,,,,15,,,,48,100
307860,note_on,60,0,11,,,,,,,,,10,,,,56,0
307863,note_on,60,0,12,,,,,,,,,11,,,,56,0
307868,note_on,60,0,13,,,,,,,,,12,,,,56,0
307872,note_on,60,0,14,,,,,,,,,13,,,,44,0
307874,note_on,60,0,15,,,,,,,,,14,,,,32,0
307920,note_on,60,0,11,,,,,,,,,10,,,,60,112
307923,note_on,60,0,12,,,,,,,,,11,,,,60,112
307928,note_on,60,0,13,,,,,,,,,12,,,,60,112
307932,note_on,60,0,14,,,,,,,,,13,,,,48,112
307934,note_on,60,0,15,,,,,,,,,14,,,,36,112
307935,note_on,120,0,10,,,,,,,,,15,,,,48,0
307980,note_on,60,0,11,,,,,,,,,10,,,,60,0
307983,note_on,60,0,12,,,,,,,,,11,,,,60,0
307988,note_on,60,0,13,,,,,,,,,12,,,,60,0
307992,note_on,60,0,14,,,,,,,,,13,,,,48,0
307994,note_on,60,0,15,,,,,,,,,14,,,,36,0
308040,note_on,60,0,11,,,,,,,,,10,,,,63,112
308040,set_tempo,240,1,0,,,,,,288462,,,,,,,,
308043,note_on,60,0,12,,,,,,,,,11,,,,63,112
308047,note_on,240,0,8,,,,,,,,,7,,,,56,0
308048,note_on,60,0,13,,,,,,,,,12,,,,63,112
308052,note_on,60,0,14,,,,,,,,,13,,,,51,112
308053,note_on,240,0,9,,,,,,,,,8,,,,44,0
308054,note_on,60,0,15,,,,,,,,,14,,,,39,112
308100,note_on,60,0,11,,,,,,,,,10,,,,63,0
308103,note_on,60,0,12,,,,,,,,,11,,,,63,0
308108,note_on,60,0,13,,,,,,,,,12,,,,63,0
308112,note_on,60,0,14,,,,,,,,,13,,,,51,0
308114,note_on,60,0,15,,,,,,,,,14,,,,39,0
308151,note_on,350,0,1,,,,,,,,,0,,,,84,0
308151,note_on,0,0,1,,,,,,,,,0,,,,80,0
308152,note_on,350,0,7,,,,,,,,,6,,,,72,0
308153,note_on,350,0,5,,,,,,,,,4,,,,60,0
308154,note_on,0,0,2,,,,,,,,,1,,,,72,0
308154,note_on,350,0,2,,,,,,,,,1,,,,75,0
308154,note_on,350,0,6,,,,,,,,,5,,,,60,0
308155,note_on,0,0,3,,,,,,,,,2,,,,68,0
308155,note_on,350,0,3,,,,,,,,,2,,,,75,0
308159,note_on,350,0,4,,,,,,,,,3,,,,56,0
308159,note_on,0,0,4,,,,,,,,,3,,,,63,0
308160,set_tempo,120,1,0,,,,,,258621,,,,,,,,
308160,note_on,60,0,11,,,,,,,,,10,,,,68,112
308161,note_on,10,0,1,,,,,,,,,0,,,,80,101
308161,note_on,0,0,1,,,,,,,,,0,,,,84,101
308162,note_on,10,0,7,,,,,,,,,6,,,,72,112
308163,note_on,60,0,12,,,,,,,,,11,,,,68,112
308163,note_on,10,0,5,,,,,,,,,4,,,,60,115
308164,note_on,10,0,2,,,,,,,,,1,,,,72,100
308164,note_on,0,0,2,,,,,,,,,1,,,,75,100
308164,note_on,10,0,6,,,,,,,,,5,,,,60,115
308165,note_on,0,0,3,,,,,,,,,2,,,,68,101
308165,note_on,10,0,3,,,,,,,,,2,,,,75,101
308167,note_on,120,0,8,,,,,,,,,7,,,,60,110
308168,note_on,60,0,13,,,,,,,,,12,,,,68,112
308169,note_on,10,0,4,,,,,,,,,3,,,,63,100
308169,note_on,0,0,4,,,,,,,,,3,,,,56,100
308172,note_on,60,0,14,,,,,,,,,13,,,,56,112
308173,note_on,120,0,9,,,,,,,,,8,,,,48,110
308174,note_on,60,0,15,,,,,,,,,14,,,,44,112
308175,note_on,240,0,10,,,,,,,,,15,,,,48,100
308220,note_on,60,0,11,,,,,,,,,10,,,,68,0
308223,note_on,60,0,12,,,,,,,,,11,,,,68,0
308228,note_on,60,0,13,,,,,,,,,12,,,,68,0
308232,note_on,60,0,14,,,,,,,,,13,,,,56,0
308234,note_on,60,0,15,,,,,,,,,14,,,,44,0
308280,note_on,60,0,11,,,,,,,,,10,,,,70,112
308283,note_on,60,0,12,,,,,,,,,11,,,,70,112
308288,note_on,60,0,13,,,,,,,,,12,,,,70,112
308292,note_on,60,0,14,,,,,,,,,13,,,,58,112
308294,note_on,60,0,15,,,,,,,,,14,,,,46,112
308295,note_on,120,0,10,,,,,,,,,15,,,,48,0
308340,note_on,60,0,11,,,,,,,,,10,,,,70,0
308343,note_on,60,0,12,,,,,,,,,11,,,,70,0
308348,note_on,60,0,13,,,,,,,,,12,,,,70,0
308352,note_on,60,0,14,,,,,,,,,13,,,,58,0
308354,note_on,60,0,15,,,,,,,,,14,,,,46,0
308400,note_on,60,0,11,,,,,,,,,10,,,,72,112
308400,set_tempo,240,1,0,,,,,,288462,,,,,,,,
308403,note_on,60,0,12,,,,,,,,,11,,,,72,112
308407,note_on,240,0,8,,,,,,,,,7,,,,60,0
308408,note_on,60,0,13,,,,,,,,,12,,,,72,112
308412,note_on,60,0,14,,,,,,,,,13,,,,60,112
308413,note_on,240,0,9,,,,,,,,,8,,,,48,0
308414,note_on,60,0,15,,,,,,,,,14,,,,48,112
308460,note_on,60,0,11,,,,,,,,,10,,,,72,0
308463,note_on,60,0,12,,,,,,,,,11,,,,72,0
308468,note_on,60,0,13,,,,,,,,,12,,,,72,0
308472,note_on,60,0,14,,,,,,,,,13,,,,60,0
308474,note_on,60,0,15,,,,,,,,,14,,,,48,0
308511,note_on,350,0,1,,,,,,,,,0,,,,84,0
308511,note_on,0,0,1,,,,,,,,,0,,,,80,0
308512,note_on,350,0,7,,,,,,,,,6,,,,72,0
308513,note_on,350,0,5,,,,,,,,,4,,,,60,0
308514,note_on,0,0,2,,,,,,,,,1,,,,72,0
308514,note_on,350,0,2,,,,,,,,,1,,,,75,0
308514,note_on,350,0,6,,,,,,,,,5,,,,60,0
308515,note_on,350,0,3,,,,,,,,,2,,,,68,0
308515,note_on,0,0,3,,,,,,,,,2,,,,75,0
308519,note_on,350,0,4,,,,,,,,,3,,,,56,0
308519,note_on,0,0,4,,,,,,,,,3,,,,63,0
308520,note_on,60,0,11,,,,,,,,,10,,,,63,112
308520,control_change,0,0,11,,,,,,,,,10,11,122,,,
308520,set_tempo,120,1,0,,,,,,254237,,,,,,,,
308521,note_on,10,0,1,,,,,,,,,0,,,,85,101
308521,note_on,0,0,1,,,,,,,,,0,,,,82,101
308522,control_change,0,0,7,,,,,,,,,6,11,102,,,
308522,note_on,10,0,7,,,,,,,,,6,,,,67,112
308523,control_change,10,0,5,,,,,,,,,4,11,102,,,
308523,note_on,0,0,12,,,,,,,,,11,,,,63,112
308523,control_change,60,0,12,,,,,,,,,11,11,122,,,
308523,note_on,0,0,5,,,,,,,,,4,,,,55,100
308524,note_on,0,0,2,,,,,,,,,1,,,,73,100
308524,control_change,10,0,6,,,,,,,,,5,11,102,,,
308524,note_on,10,0,2,,,,,,,,,1,,,,70,100
308524,note_on,0,0,6,,,,,,,,,5,,,,55,100
308525,note_on,0,0,3,,,,,,,,,2,,,,73,101
308525,note_on,10,0,3,,,,,,,,,2,,,,70,101
308527,note_on,0,0,8,,,,,,,,,7,,,,51,125
308527,control_change,0,0,8,,,,,,,,,7,11,102,,,
308527,note_on,120,0,8,,,,,,,,,7,,,,63,125
308528,note_on,60,0,13,,,,,,,,,12,,,,63,112
308528,note_on,0,0,13,,,,,,,,,12,,,,67,112
308528,control_change,0,0,13,,,,,,,,,12,11,122,,,
308529,control_change,10,0,4,,,,,,,,,3,11,97,,,
308529,control_change,9,0,11,,,,,,,,,10,11,119,,,
308529,note_on,0,0,4,,,,,,,,,3,,,,63,115
308529,note_on,0,0,4,,,,,,,,,3,,,,67,115
308532,control_change,9,0,12,,,,,,,,,11,11,119,,,
308532,control_change,0,0,14,,,,,,,,,13,11,122,,,
308532,note_on,60,0,14,,,,,,,,,13,,,,51,112
308533,note_on,0,0,9,,,,,,,,,8,,,,51,125
308533,control_change,120,0,9,,,,,,,,,8,11,102,,,
308534,note_on,60,0,15,,,,,,,,,14,,,,39,112
308534,control_change,0,0,15,,,,,,,,,14,11,122,,,
308535,note_on,240,0,10,,,,,,,,,15,,,,43,100
308535,control_change,6,0,4,,,,,,,,,3,11,94,,,
308537,control_change,9,0,13,,,,,,,,,12,11,119,,,
308538,control_change,9,0,11,,,,,,,,,10,11,116,,,
308541,control_change,9,0,12,,,,,,,,,11,11,116,,,
308541,control_change,9,0,14,,,,,,,,,13,11,119,,,
308542,control_change,20,0,7,,,,,,,,,6,11,99,,,
308542,control_change,7,0,4,,,,,,,,,3,11,91,,,
308543,control_change,9,0,15,,,,,,,,,14,11,119,,,
308543,control_change,20,0,5,,,,,,,,,4,11,99,,,
308544,control_change,20,0,6,,,,,,,,,5,11,99,,,
308546,control_change,9,0,13,,,,,,,,,12,11,116,,,
308547,control_change,20,0,8,,,,,,,,,7,11,99,,,
308547,control_change,9,0,11,,,,,,,,,10,11,113,,,
308548,control_change,6,0,4,,,,,,,,,3,11,88,,,
308550,control_change,9,0,14,,,,,,,,,13,11,116,,,
308550,control_change,9,0,12,,,,,,,,,11,11,113,,,
308552,control_change,9,0,15,,,,,,,,,14,11,116,,,
308553,control_change,20,0,9,,,,,,,,,8,11,99,,,
308554,note_on,30,0,2,,,,,,,,,1,,,,73,0
308554,note_on,0,0,2,,,,,,,,,1,,,,70,0
308555,control_change,9,0,13,,,,,,,,,12,11,113,,,
308555,control_change,7,0,4,,,,,,,,,3,11,85,,,
308555,note_on,30,0,3,,,,,,,,,2,,,,73,0
308555,note_on,0,0,3,,,,,,,,,2,,,,70,0
308556,control_change,9,0,11,,,,,,,,,10,11,110,,,
308559,control_change,9,0,12,,,,,,,,,11,11,110,,,
308559,control_change,9,0,14,,,,,,,,,13,11,113,,,
308561,control_change,9,0,15,,,,,,,,,14,11,113,,,
308561,control_change,6,0,4,,,,,,,,,3,11,82,,,
308563,control_change,21,0,7,,,,,,,,,6,11,96,,,
308564,control_change,21,0,5,,,,,,,,,4,11,96,,,
308564,control_change,9,0,13,,,,,,,,,12,11,110,,,
308565,control_change,21,0,6,,,,,,,,,5,11,96,,,
308565,control_change,9,0,11,,,,,,,,,10,11,107,,,
308568,control_change,9,0,12,,,,,,,,,11,11,107,,,
308568,control_change,21,0,8,,,,,,,,,7,11,96,,,
308568,control_change,7,0,4,,,,,,,,,3,11,79,,,
308568,control_change,9,0,14,,,,,,,,,13,11,110,,,
308570,control_change,9,0,15,,,,,,,,,14,11,110,,,
308573,control_change,9,0,13,,,,,,,,,12,11,107,,,
308574,control_change,21,0,9,,,,,,,,,8,11,96,,,
308574,control_change,9,0,11,,,,,,,,,10,11,104,,,
308574,control_change,6,0,4,,,,,,,,,3,11,76,,,
308577,control_change,9,0,12,,,,,,,,,11,11,104,,,
308577,control_change,9,0,14,,,,,,,,,13,11,107,,,
308579,control_change,9,0,15,,,,,,,,,14,11,107,,,
308581,control_change,7,0,4,,,,,,,,,3,11,73,,,
308582,control_change,9,0,13,,,,,,,,,12,11,104,,,
308583,control_change,20,0,7,,,,,,,,,6,11,93,,,
308584,control_change,20,0,5,,,,,,,,,4,11,93,,,
308584,note_on,30,0,2,,,,,,,,,1,,,,73,100
308584,note_on,0,0,2,,,,,,,,,1,,,,70,100
308585,control_change,20,0,6,,,,,,,,,5,11,93,,,
308585,note_on,0,0,3,,,,,,,,,2,,,,70,101
308585,note_on,30,0,3,,,,,,,,,2,,,,73,101
308586,control_change,9,0,14,,,,,,,,,13,11,104,,,
308587,control_change,6,0,4,,,,,,,,,3,11,70,,,
308588,control_change,9,0,15,,,,,,,,,14,11,104,,,
308588,control_change,20,0,8,,,,,,,,,7,11,93,,,
308594,control_change,20,0,9,,,,,,,,,8,11,93,,,
308594,control_change,7,0,4,,,,,,,,,3,11,67,,,
308601,control_change,7,0,4,,,,,,,,,3,11,64,,,
308604,control_change,21,0,7,,,,,,,,,6,11,90,,,
308605,control_change,21,0,5,,,,,,,,,4,11,90,,,
308606,control_change,21,0,6,,,,,,,,,5,11,90,,,
308607,control_change,6,0,4,,,,,,,,,3,11,61,,,
308609,control_change,21,0,8,,,,,,,,,7,11,90,,,
308614,note_on,30,0,2,,,,,,,,,1,,,,70,0
308614,control_change,7,0,4,,,,,,,,,3,11,58,,,
308614,note_on,0,0,2,,,,,,,,,1,,,,73,0
308615,note_on,30,0,3,,,,,,,,,2,,,,70,0
308615,note_on,0,0,3,,,,,,,,,2,,,,73,0
308615,control_change,21,0,9,,,,,,,,,8,11,90,,,
308620,control_change,6,0,4,,,,,,,,,3,11,55,,,
308624,control_change,20,0,7,,,,,,,,,6,11,87,,,
308625,control_change,20,0,5,,,,,,,,,4,11,87,,,
308626,control_change,20,0,6,,,,,,,,,5,11,87,,,
308627,control_change,7,0,4,,,,,,,,,3,11,52,,,
308629,control_change,20,0,8,,,,,,,,,7,11,87,,,
308633,control_change,6,0,4,,,,,,,,,3,11,49,,,
308635,control_change,20,0,9,,,,,,,,,8,11,87,,,
308640,control_change,66,0,11,,,,,,,,,10,11,83,,,
308640,set_tempo,120,1,0,,,,,,263158,,,,,,,,
308643,control_change,66,0,12,,,,,,,,,11,11,83,,,
308644,note_on,0,0,2,,,,,,,,,1,,,,72,100
308644,note_on,30,0,2,,,,,,,,,1,,,,75,100
308644,control_change,0,0,2,,,,,,,,,1,11,47,,,
308645,note_on,30,0,3,,,,,,,,,2,,,,72,101
308645,control_change,21,0,7,,,,,,,,,6,11,84,,,
308645,control_change,0,0,3,,,,,,,,,2,11,47,,,
308645,note_on,0,0,3,,,,,,,,,2,,,,75,101
308646,control_change,21,0,5,,,,,,,,,4,11,84,,,
308647,control_change,21,0,6,,,,,,,,,5,11,84,,,
308648,control_change,66,0,13,,,,,,,,,12,11,83,,,
308649,control_change,16,0,4,,,,,,,,,3,11,47,,,
308650,control_change,21,0,8,,,,,,,,,7,11,84,,,
308652,control_change,66,0,14,,,,,,,,,13,11,83,,,
308654,control_change,66,0,15,,,,,,,,,14,11,83,,,
308655,note_on,120,0,10,,,,,,,,,15,,,,43,0
308656,control_change,21,0,9,,,,,,,,,8,11,84,,,
308663,control_change,23,0,11,,,,,,,,,10,11,81,,,
308666,control_change,21,0,7,,,,,,,,,6,11,81,,,
308666,control_change,23,0,12,,,,,,,,,11,11,81,,,
308667,control_change,21,0,5,,,,,,,,,4,11,81,,,
308668,control_change,21,0,6,,,,,,,,,5,11,81,,,
308671,control_change,23,0,13,,,,,,,,,12,11,81,,,
308671,control_change,21,0,8,,,,,,,,,7,11,81,,,
308675,control_change,23,0,14,,,,,,,,,13,11,81,,,
308677,control_change,23,0,15,,,,,,,,,14,11,81,,,
308677,control_change,21,0,9,,,,,,,,,8,11,81,,,
308686,control_change,20,0,7,,,,,,,,,6,11,78,,,
308687,control_change,20,0,5,,,,,,,,,4,11,78,,,
308687,control_change,24,0,11,,,,,,,,,10,11,79,,,
308688,control_change,20,0,6,,,,,,,,,5,11,78,,,
308690,control_change,24,0,12,,,,,,,,,11,11,79,,,
308691,control_change,20,0,8,,,,,,,,,7,11,78,,,
308695,control_change,24,0,13,,,,,,,,,12,11,79,,,
308697,control_change,20,0,9,,,,,,,,,8,11,78,,,
308699,control_change,24,0,14,,,,,,,,,13,11,79,,,
308701,control_change,24,0,15,,,,,,,,,14,11,79,,,
308704,note_on,60,0,2,,,,,,,,,1,,,,72,0
308704,note_on,0,0,2,,,,,,,,,1,,,,75,0
308704,note_on,0,0,2,,,,,,,,,1,,,,70,100
308704,note_on,0,0,2,,,,,,,,,1,,,,73,100
308705,note_on,0,0,3,,,,,,,,,2,,,,72,0
308705,note_on,60,0,3,,,,,,,,,2,,,,75,0
308705,note_on,0,0,3,,,,,,,,,2,,,,70,101
308705,note_on,0,0,3,,,,,,,,,2,,,,73,101
308707,control_change,21,0,7,,,,,,,,,6,11,75,,,
308708,control_change,21,0,5,,,,,,,,,4,11,75,,,
308709,control_change,21,0,6,,,,,,,,,5,11,75,,,
308711,control_change,24,0,11,,,,,,,,,10,11,77,,,
308712,control_change,21,0,8,,,,,,,,,7,11,75,,,
308714,control_change,24,0,12,,,,,,,,,11,11,77,,,
308718,control_change,21,0,9,,,,,,,,,8,11,75,,,
308719,control_change,24,0,13,,,,,,,,,12,11,77,,,
308723,control_change,24,0,14,,,,,,,,,13,11,77,,,
308725,control_change,24,0,15,,,,,,,,,14,11,77,,,
308727,control_change,20,0,7,,,,,,,,,6,11,72,,,
308728,control_change,20,0,5,,,,,,,,,4,11,72,,,
308729,control_change,20,0,6,,,,,,,,,5,11,72,,,
308732,control_change,20,0,8,,,,,,,,,7,11,72,,,
308735,control_change,24,0,11,,,,,,,,,10,11,75,,,
308738,control_change,20,0,9,,,,,,,,,8,11,72,,,
308738,control_change,24,0,12,,,,,,,,,11,11,75,,,
308743,control_change,24,0,13,,,,,,,,,12,11,75,,,
308747,control_change,24,0,14,,,,,,,,,13,11,75,,,
308748,control_change,21,0,7,,,,,,,,,6,11,69,,,
308749,control_change,24,0,15,,,,,,,,,14,11,75,,,
308749,control_change,21,0,5,,,,,,,,,4,11,69,,,
308750,control_change,21,0,6,,,,,,,,,5,11,69,,,
308753,control_change,21,0,8,,,,,,,,,7,11,69,,,
308759,control_change,24,0,11,,,,,,,,,10,11,73,,,
308759,control_change,21,0,9,,,,,,,,,8,11,69,,,
308760,note_on,1,0,11,,,,,,,,,10,,,,63,0
308760,set_tempo,120,1,0,,,,,,288462,,,,,,,,
308761,note_on,0,0,1,,,,,,,,,0,,,,85,0
308761,note_on,240,0,1,,,,,,,,,0,,,,82,0
308762,control_change,24,0,12,,,,,,,,,11,11,73,,,
308762,note_on,14,0,7,,,,,,,,,6,,,,67,0
308763,note_on,1,0,12,,,,,,,,,11,,,,63,0
308763,note_on,14,0,5,,,,,,,,,4,,,,55,0
308764,note_on,60,0,2,,,,,,,,,1,,,,73,0
308764,note_on,0,0,2,,,,,,,,,1,,,,70,0
308764,note_on,0,0,2,,,,,,,,,1,,,,72,100
308764,note_on,0,0,2,,,,,,,,,1,,,,75,100
308764,note_on,14,0,6,,,,,,,,,5,,,,55,0
308765,note_on,0,0,3,,,,,,,,,2,,,,73,0
308765,note_on,0,0,3,,,,,,,,,2,,,,75,101
308765,note_on,0,0,3,,,,,,,,,2,,,,72,101
308765,note_on,60,0,3,,,,,,,,,2,,,,70,0
308767,note_on,14,0,8,,,,,,,,,7,,,,51,0
308767,control_change,24,0,13,,,,,,,,,12,11,73,,,
308767,note_on,0,0,8,,,,,,,,,7,,,,63,0
308768,note_on,1,0,13,,,,,,,,,12,,,,67,0
308768,note_on,0,0,13,,,,,,,,,12,,,,63,0
308771,control_change,24,0,14,,,,,,,,,13,11,73,,,
308772,note_on,1,0,14,,,,,,,,,13,,,,51,0
308773,note_on,14,0,9,,,,,,,,,8,,,,51,0
308773,control_change,24,0,15,,,,,,,,,14,11,73,,,
308774,note_on,1,0,15,,,,,,,,,14,,,,39,0
308824,note_on,60,0,2,,,,,,,,,1,,,,72,0
308824,note_on,0,0,2,,,,,,,,,1,,,,73,100
308824,note_on,0,0,2,,,,,,,,,1,,,,70,100
308824,note_on,0,0,2,,,,,,,,,1,,,,75,0
308825,note_on,60,0,3,,,,,,,,,2,,,,75,0
308825,note_on,0,0,3,,,,,,,,,2,,,,72,0
308825,note_on,0,0,3,,,,,,,,,2,,,,73,101
308825,note_on,0,0,3,,,,,,,,,2,,,,70,101
308880,set_tempo,120,1,0,,,,,,254237,,,,,,,,
308884,note_on,0,0,2,,,,,,,,,1,,,,70,0
308884,note_on,60,0,2,,,,,,,,,1,,,,73,0
308884,note_on,0,0,2,,,,,,,,,1,,,,73,100
308884,note_on,0,0,2,,,,,,,,,1,,,,77,100
308885,note_on,0,0,3,,,,,,,,,2,,,,73,101
308885,note_on,60,0,3,,,,,,,,,2,,,,70,0
308885,note_on,0,0,3,,,,,,,,,2,,,,77,101
308885,note_on,0,0,3,,,,,,,,,2,,,,73,0
308887,program_change,119,0,13,,,,,,,,48,12,,,,,
308888,note_on,0,0,13,,,,,,,,,12,,,,67,112
308888,note_on,1,0,13,,,,,,,,,12,,,,63,112
308888,control_change,0,0,13,,,,,,,,,12,11,41,,,
308889,note_on,240,0,4,,,,,,,,,3,,,,67,0
308889,note_on,0,0,4,,,,,,,,,3,,,,63,0
308889,note_on,0,0,4,,,,,,,,,3,,,,63,100
308889,note_on,0,0,4,,,,,,,,,3,,,,67,100
308948,note_on,60,0,13,,,,,,,,,12,,,,67,0
308948,note_on,0,0,13,,,,,,,,,12,,,,63,0
309000,set_tempo,120,1,0,,,,,,263158,,,,,,,,
309004,note_on,120,0,2,,,,,,,,,1,,,,73,0
309004,note_on,0,0,2,,,,,,,,,1,,,,77,100
309004,note_on,0,0,2,,,,,,,,,1,,,,73,100
309004,note_on,0,0,2,,,,,,,,,1,,,,77,0
309005,note_on,0,0,3,,,,,,,,,2,,,,73,101
309005,note_on,0,0,3,,,,,,,,,2,,,,77,101
309005,note_on,120,0,3,,,,,,,,,2,,,,77,0
309005,note_on,0,0,3,,,,,,,,,2,,,,73,0
309008,note_on,0,0,13,,,,,,,,,12,,,,63,112
309008,note_on,60,0,13,,,,,,,,,12,,,,67,112
309009,note_on,120,0,4,,,,,,,,,3,,,,63,0
309009,note_on,0,0,4,,,,,,,,,3,,,,67,0
309009,note_on,0,0,4,,,,,,,,,3,,,,63,100
309009,note_on,0,0,4,,,,,,,,,3,,,,67,100
309068,note_on,0,0,13,,,,,,,,,12,,,,67,0
309068,note_on,60,0,13,,,,,,,,,12,,,,63,0
309120,set_tempo,120,1,0,,,,,,288462,,,,,,,,
309124,note_on,0,0,2,,,,,,,,,1,,,,73,100
309124,note_on,0,0,2,,,,,,,,,1,,,,73,0
309124,note_on,0,0,2,,,,,,,,,1,,,,77,100
309124,note_on,120,0,2,,,,,,,,,1,,,,77,0
309125,note_on,0,0,3,,,,,,,,,2,,,,77,0
309125,note_on,0,0,3,,,,,,,,,2,,,,77,101
309125,note_on,0,0,3,,,,,,,,,2,,,,73,101
309125,note_on,120,0,3,,,,,,,,,2,,,,73,0
309128,note_on,0,0,13,,,,,,,,,12,,,,63,112
309128,note_on,60,0,13,,,,,,,,,12,,,,67,112
309129,note_on,0,0,4,,,,,,,,,3,,,,67,100
309129,note_on,0,0,4,,,,,,,,,3,,,,63,100
309129,note_on,0,0,4,,,,,,,,,3,,,,67,0
309129,note_on,120,0,4,,,,,,,,,3,,,,63,0
309154,note_on,0,0,2,,,,,,,,,1,,,,82,100
309154,note_on,30,0,2,,,,,,,,,1,,,,77,0
309155,note_on,0,0,3,,,,,,,,,2,,,,82,101
309155,note_on,30,0,3,,,,,,,,,2,,,,77,0
309188,note_on,0,0,13,,,,,,,,,12,,,,67,0
309188,note_on,60,0,13,,,,,,,,,12,,,,63,0
309214,note_on,60,0,2,,,,,,,,,1,,,,82,0
309215,note_on,60,0,3,,,,,,,,,2,,,,82,0
309240,set_tempo,120,1,0,,,,,,254237,,,,,,,,
309244,note_on,0,0,2,,,,,,,,,1,,,,82,115
309244,note_on,0,0,2,,,,,,,,,1,,,,73,115
309244,note_on,30,0,2,,,,,,,,,1,,,,73,0
309245,note_on,0,0,3,,,,,,,,,2,,,,82,116
309245,note_on,30,0,3,,,,,,,,,2,,,,73,0
309245,note_on,0,0,3,,,,,,,,,2,,,,73,116
309248,note_on,0,0,13,,,,,,,,,12,,,,67,127
309248,note_on,60,0,13,,,,,,,,,12,,,,63,127
309249,note_on,0,0,4,,,,,,,,,3,,,,63,115
309249,note_on,0,0,4,,,,,,,,,3,,,,67,115
309249,note_on,0,0,4,,,,,,,,,3,,,,63,0
309249,note_on,120,0,4,,,,,,,,,3,,,,67,0
309360,set_tempo,120,1,0,,,,,,263158,,,,,,,,
309364,note_on,0,0,2,,,,,,,,,1,,,,73,0
309364,note_on,0,0,2,,,,,,,,,1,,,,80,100
309364,note_on,0,0,2,,,,,,,,,1,,,,72,100
309364,note_on,120,0,2,,,,,,,,,1,,,,82,0
309365,note_on,0,0,3,,,,,,,,,2,,,,80,101
309365,note_on,120,0,3,,,,,,,,,2,,,,82,0
309365,note_on,0,0,3,,,,,,,,,2,,,,73,0
309365,note_on,0,0,3,,,,,,,,,2,,,,72,101
309368,note_on,0,0,13,,,,,,,,,12,,,,68,112
309368,note_on,120,0,13,,,,,,,,,12,,,,67,0
309369,note_on,0,0,4,,,,,,,,,3,,,,68,100
309369,note_on,120,0,4,,,,,,,,,3,,,,67,0
309480,set_tempo,120,1,0,,,,,,288462,,,,,,,,
309484,note_on,0,0,2,,,,,,,,,1,,,,80,0
309484,note_on,120,0,2,,,,,,,,,1,,,,72,0
309484,note_on,0,0,2,,,,,,,,,1,,,,72,100
309484,note_on,0,0,2,,,,,,,,,1,,,,75,100
309485,note_on,0,0,3,,,,,,,,,2,,,,72,0
309485,note_on,0,0,3,,,,,,,,,2,,,,75,101
309485,note_on,0,0,3,,,,,,,,,2,,,,72,101
309485,note_on,120,0,3,,,,,,,,,2,,,,80,0
309488,note_on,120,0,13,,,,,,,,,12,,,,68,0
309488,note_on,0,0,13,,,,,,,,,12,,,,63,0
309488,note_on,0,0,13,,,,,,,,,12,,,,68,112
309488,note_on,0,0,13,,,,,,,,,12,,,,63,112
309489,note_on,0,0,4,,,,,,,,,3,,,,63,100
309489,note_on,0,0,4,,,,,,,,,3,,,,68,100
309489,note_on,120,0,4,,,,,,,,,3,,,,68,0
309489,note_on,0,0,4,,,,,,,,,3,,,,63,0
309548,note_on,60,0,13,,,,,,,,,12,,,,68,0
309600,set_tempo,120,1,0,,,,,,254237,,,,,,,,
309604,note_on,0,0,2,,,,,,,,,1,,,,75,0
309604,note_on,0,0,2,,,,,,,,,1,,,,72,100
309604,note_on,0,0,2,,,,,,,,,1,,,,75,100
309604,note_on,120,0,2,,,,,,,,,1,,,,72,0
309605,note_on,0,0,3,,,,,,,,,2,,,,75,0
309605,note_on,0,0,3,,,,,,,,,2,,,,72,101
309605,note_on,0,0,3,,,,,,,,,2,,,,75,101
309605,note_on,120,0,3,,,,,,,,,2,,,,72,0
309608,note_on,60,0,13,,,,,,,,,12,,,,63,0
309608,note_on,0,0,13,,,,,,,,,12,,,,67,112
309608,note_on,0,0,13,,,,,,,,,12,,,,63,112
309609,note_on,0,0,4,,,,,,,,,3,,,,67,100
309609,note_on,0,0,4,,,,,,,,,3,,,,63,100
309609,note_on,0,0,4,,,,,,,,,3,,,,68,0
309609,note_on,120,0,4,,,,,,,,,3,,,,63,0
309664,note_on,60,0,2,,,,,,,,,1,,,,75,0
309664,note_on,0,0,2,,,,,,,,,1,,,,72,0
309665,note_on,60,0,3,,,,,,,,,2,,,,75,0
309665,note_on,0,0,3,,,,,,,,,2,,,,72,0
309668,note_on,0,0,13,,,,,,,,,12,,,,67,0
309668,note_on,60,0,13,,,,,,,,,12,,,,63,0
309669,note_on,60,0,4,,,,,,,,,3,,,,63,0
309669,note_on,0,0,4,,,,,,,,,3,,,,67,0
309720,set_tempo,120,1,0,,,,,,263158,,,,,,,,
309724,note_on,60,0,2,,,,,,,,,1,,,,70,100
309724,note_on,0,0,2,,,,,,,,,1,,,,73,100
309725,note_on,0,0,3,,,,,,,,,2,,,,70,101
309725,note_on,60,0,3,,,,,,,,,2,,,,73,101
309728,note_on,0,0,13,,,,,,,,,12,,,,67,112
309728,note_on,60,0,13,,,,,,,,,12,,,,63,112
309729,note_on,0,0,4,,,,,,,,,3,,,,63,100
309729,note_on,60,0,4,,,,,,,,,3,,,,67,100
309784,note_on,0,0,2,,,,,,,,,1,,,,75,100
309784,note_on,60,0,2,,,,,,,,,1,,,,73,0
309785,note_on,60,0,3,,,,,,,,,2,,,,73,0
309785,note_on,0,0,3,,,,,,,,,2,,,,75,101
309788,note_on,60,0,13,,,,,,,,,12,,,,67,0
309788,note_on,0,0,13,,,,,,,,,12,,,,63,0
309840,set_tempo,120,1,0,,,,,,288462,,,,,,,,
309844,note_on,60,0,2,,,,,,,,,1,,,,75,0
309844,note_on,0,0,2,,,,,,,,,1,,,,70,100
309844,note_on,0,0,2,,,,,,,,,1,,,,77,100
309844,note_on,0,0,2,,,,,,,,,1,,,,70,0
309845,note_on,60,0,3,,,,,,,,,2,,,,75,0
309845,note_on,0,0,3,,,,,,,,,2,,,,70,0
309845,note_on,0,0,3,,,,,,,,,2,,,,70,101
309845,note_on,0,0,3,,,,,,,,,2,,,,77,101
309848,note_on,60,0,13,,,,,,,,,12,,,,63,112
309848,note_on,0,0,13,,,,,,,,,12,,,,67,112
309849,note_on,0,0,4,,,,,,,,,3,,,,63,100
309849,note_on,0,0,4,,,,,,,,,3,,,,67,100
309849,note_on,0,0,4,,,,,,,,,3,,,,67,0
309849,note_on,120,0,4,,,,,,,,,3,,,,63,0
309904,note_on,60,0,2,,,,,,,,,1,,,,77,0
309904,note_on,0,0,2,,,,,,,,,1,,,,75,100
309905,note_on,0,0,3,,,,,,,,,2,,,,75,101
309905,note_on,60,0,3,,,,,,,,,2,,,,77,0
309908,note_on,60,0,13,,,,,,,,,12,,,,67,0
309908,note_on,0,0,13,,,,,,,,,12,,,,63,0
309960,set_tempo,120,1,0,,,,,,254237,,,,,,,,
309960,note_on,1200,0,11,,,,,,,,,10,,,,56,112
309960,control_change,0,0,11,,,,,,,,,10,11,50,,,
309963,control_change,1200,0,12,,,,,,,,,11,11,50,,,
309963,note_on,0,0,12,,,,,,,,,11,,,,56,112
309964,note_on,0,0,2,,,,,,,,,1,,,,68,100
309964,note_on,0,0,2,,,,,,,,,1,,,,72,100
309964,note_on,60,0,2,,,,,,,,,1,,,,75,0
309964,note_on,0,0,2,,,,,,,,,1,,,,70,0
309965,note_on,0,0,3,,,,,,,,,2,,,,68,101
309965,note_on,60,0,3,,,,,,,,,2,,,,75,0
309965,note_on,0,0,3,,,,,,,,,2,,,,72,101
309965,note_on,0,0,3,,,,,,,,,2,,,,70,0
309967,program_change,59,0,13,,,,,,,,50,12,,,,,
309968,note_on,1,0,13,,,,,,,,,12,,,,56,112
309969,note_on,0,0,4,,,,,,,,,3,,,,63,100
309969,note_on,0,0,4,,,,,,,,,3,,,,68,100
309969,note_on,0,0,4,,,,,,,,,3,,,,63,0
309969,note_on,120,0,4,,,,,,,,,3,,,,67,0
309974,note_on,1200,0,15,,,,,,,,,14,,,,32,112
309974,control_change,0,0,15,,,,,,,,,14,11,50,,,
309990,note_on,30,0,11,,,,,,,,,10,,,,56,0
309993,note_on,30,0,12,,,,,,,,,11,,,,56,0
309998,note_on,30,0,13,,,,,,,,,12,,,,56,0
310004,note_on,30,0,15,,,,,,,,,14,,,,32,0
310020,note_on,30,0,11,,,,,,,,,10,,,,56,112
310023,note_on,30,0,12,,,,,,,,,11,,,,56,112
310028,note_on,30,0,13,,,,,,,,,12,,,,56,112
310034,note_on,30,0,15,,,,,,,,,14,,,,32,112
310050,note_on,30,0,11,,,,,,,,,10,,,,56,0
310053,note_on,30,0,12,,,,,,,,,11,,,,56,0
310058,note_on,30,0,13,,,,,,,,,12,,,,56,0
310064,note_on,30,0,15,,,,,,,,,14,,,,32,0
310080,note_on,30,0,11,,,,,,,,,10,,,,58,112
310080,set_tempo,120,1,0,,,,,,263158,,,,,,,,
310083,note_on,30,0,12,,,,,,,,,11,,,,58,112
310084,note_on,120,0,2,,,,,,,,,1,,,,68,0
310084,note_on,0,0,2,,,,,,,,,1,,,,72,0
310085,note_on,0,0,3,,,,,,,,,2,,,,72,0
310085,note_on,120,0,3,,,,,,,,,2,,,,68,0
310088,note_on,30,0,13,,,,,,,,,12,,,,58,112
310089,note_on,120,0,4,,,,,,,,,3,,,,68,0
310089,note_on,0,0,4,,,,,,,,,3,,,,63,0
310094,note_on,30,0,15,,,,,,,,,14,,,,34,112
310110,note_on,30,0,11,,,,,,,,,10,,,,58,0
310113,note_on,30,0,12,,,,,,,,,11,,,,58,0
310118,note_on,30,0,13,,,,,,,,,12,,,,58,0
310124,note_on,30,0,15,,,,,,,,,14,,,,34,0
310140,note_on,30,0,11,,,,,,,,,10,,,,56,112
310143,note_on,30,0,12,,,,,,,,,11,,,,56,112
310148,note_on,30,0,13,,,,,,,,,12,,,,56,112
310154,note_on,30,0,15,,,,,,,,,14,,,,32,112
310170,note_on,30,0,11,,,,,,,,,10,,,,56,0
310173,note_on,30,0,12,,,,,,,,,11,,,,56,0
310178,note_on,30,0,13,,,,,,,,,12,,,,56,0
310184,note_on,30,0,15,,,,,,,,,14,,,,32,0
310200,note_on,30,0,11,,,,,,,,,10,,,,58,112
310200,set_tempo,120,1,0,,,,,,288462,,,,,,,,
310203,note_on,30,0,12,,,,,,,,,11,,,,58,112
310208,note_on,30,0,13,,,,,,,,,12,,,,58,112
310214,note_on,30,0,15,,,,,,,,,14,,,,34,112
310230,note_on,30,0,11,,,,,,,,,10,,,,58,0
310233,note_on,30,0,12,,,,,,,,,11,,,,58,0
310238,note_on,30,0,13,,,,,,,,,12,,,,58,0
310244,note_on,30,0,15,,,,,,,,,14,,,,34,0
310260,note_on,30,0,11,,,,,,,,,10,,,,56,112
310263,note_on,30,0,12,,,,,,,,,11,,,,56,112
310268,note_on,30,0,13,,,,,,,,,12,,,,56,112
310274,note_on,30,0,15,,,,,,,,,14,,,,32,112
310290,note_on,30,0,11,,,,,,,,,10,,,,56,0
310293,note_on,30,0,12,,,,,,,,,11,,,,56,0
310298,note_on,30,0,13,,,,,,,,,12,,,,56,0
310304,note_on,30,0,15,,,,,,,,,14,,,,32,0
310320,note_on,30,0,11,,,,,,,,,10,,,,56,112
310320,set_tempo,120,1,0,,,,,,254237,,,,,,,,
310323,note_on,30,0,12,,,,,,,,,11,,,,56,112
310324,note_on,0,0,2,,,,,,,,,1,,,,77,115
310324,note_on,240,0,2,,,,,,,,,1,,,,80,115
310325,note_on,0,0,3,,,,,,,,,2,,,,77,116
310325,note_on,240,0,3,,,,,,,,,2,,,,80,116
310328,note_on,30,0,13,,,,,,,,,12,,,,56,112
310332,note_on,1560,0,14,,,,,,,,,13,,,,49,112
310332,control_change,0,0,14,,,,,,,,,13,11,59,,,
310334,note_on,30,0,15,,,,,,,,,14,,,,32,112
310440,set_tempo,120,1,0,,,,,,263158,,,,,,,,
310440,note_on,120,0,11,,,,,,,,,10,,,,56,0
310443,note_on,120,0,12,,,,,,,,,11,,,,56,0
310444,note_on,0,0,2,,,,,,,,,1,,,,76,100
310444,note_on,0,0,2,,,,,,,,,1,,,,79,100
310444,note_on,0,0,2,,,,,,,,,1,,,,80,0
310444,note_on,120,0,2,,,,,,,,,1,,,,77,0
310445,note_on,0,0,3,,,,,,,,,2,,,,76,101
310445,note_on,120,0,3,,,,,,,,,2,,,,77,0
310445,note_on,0,0,3,,,,,,,,,2,,,,80,0
310445,note_on,0,0,3,,,,,,,,,2,,,,79,101
310448,note_on,120,0,13,,,,,,,,,12,,,,56,0
310454,note_on,120,0,15,,,,,,,,,14,,,,32,0
310504,note_on,0,0,2,,,,,,,,,1,,,,77,100
310504,note_on,0,0,2,,,,,,,,,1,,,,80,100
310504,note_on,0,0,2,,,,,,,,,1,,,,76,0
310504,note_on,60,0,2,,,,,,,,,1,,,,79,0
310505,note_on,0,0,3,,,,,,,,,2,,,,77,101
310505,note_on,60,0,3,,,,,,,,,2,,,,79,0
310505,note_on,0,0,3,,,,,,,,,2,,,,80,101
310505,note_on,0,0,3,,,,,,,,,2,,,,76,0
310560,set_tempo,120,1,0,,,,,,288462,,,,,,,,
310564,note_on,0,0,2,,,,,,,,,1,,,,75,100
310564,note_on,0,0,2,,,,,,,,,1,,,,79,100
310564,note_on,0,0,2,,,,,,,,,1,,,,80,0
310564,note_on,60,0,2,,,,,,,,,1,,,,77,0
310565,note_on,0,0,3,,,,,,,,,2,,,,75,101
310565,note_on,0,0,3,,,,,,,,,2,,,,79,101
310565,note_on,60,0,3,,,,,,,,,2,,,,80,0
310565,note_on,0,0,3,,,,,,,,,2,,,,77,0
310572,note_on,0,0,14,,,,,,,,,13,,,,53,112
310572,note_on,240,0,14,,,,,,,,,13,,,,49,0
310624,note_on,0,0,2,,,,,,,,,1,,,,77,100
310624,note_on,0,0,2,,,,,,,,,1,,,,73,100
310624,note_on,0,0,2,,,,,,,,,1,,,,79,0
310624,note_on,60,0,2,,,,,,,,,1,,,,75,0
310625,note_on,0,0,3,,,,,,,,,2,,,,77,101
310625,note_on,0,0,3,,,,,,,,,2,,,,73,101
310625,note_on,60,0,3,,,,,,,,,2,,,,79,0
310625,note_on,0,0,3,,,,,,,,,2,,,,75,0
310680,note_on,240,0,11,,,,,,,,,10,,,,56,112
310680,set_tempo,120,1,0,,,,,,254237,,,,,,,,
310683,note_on,240,0,12,,,,,,,,,11,,,,56,112
310684,note_on,0,0,2,,,,,,,,,1,,,,73,0
310684,note_on,60,0,2,,,,,,,,,1,,,,77,0
310684,note_on,0,0,2,,,,,,,,,1,,,,72,100
310684,note_on,0,0,2,,,,,,,,,1,,,,75,100
310685,note_on,0,0,3,,,,,,,,,2,,,,75,101
310685,note_on,60,0,3,,,,,,,,,2,,,,73,0
310685,note_on,0,0,3,,,,,,,,,2,,,,77,0
310685,note_on,0,0,3,,,,,,,,,2,,,,72,101
310687,note_on,115,0,14,,,,,,,,,13,,,,53,0
310688,note_on,240,0,13,,,,,,,,,12,,,,56,112
310692,note_on,5,0,14,,,,,,,,,13,,,,56,127
310694,note_on,240,0,15,,,,,,,,,14,,,,32,112
310710,note_on,30,0,11,,,,,,,,,10,,,,56,0
310713,note_on,30,0,12,,,,,,,,,11,,,,56,0
310718,note_on,30,0,13,,,,,,,,,12,,,,56,0
310724,note_on,30,0,15,,,,,,,,,14,,,,32,0
310740,note_on,30,0,11,,,,,,,,,10,,,,56,112
310743,note_on,30,0,12,,,,,,,,,11,,,,56,112
310744,note_on,60,0,2,,,,,,,,,1,,,,72,0
310744,note_on,0,0,2,,,,,,,,,1,,,,75,0
310745,note_on,0,0,3,,,,,,,,,2,,,,72,0
310745,note_on,60,0,3,,,,,,,,,2,,,,75,0
310748,note_on,30,0,13,,,,,,,,,12,,,,56,112
310754,note_on,30,0,15,,,,,,,,,14,,,,32,112
310770,note_on,30,0,11,,,,,,,,,10,,,,56,0
310773,note_on,30,0,12,,,,,,,,,11,,,,56,0
310778,note_on,30,0,13,,,,,,,,,12,,,,56,0
310784,note_on,30,0,15,,,,,,,,,14,,,,32,0
310800,note_on,30,0,11,,,,,,,,,10,,,,58,112
310800,set_tempo,120,1,0,,,,,,263158,,,,,,,,
310803,note_on,30,0,12,,,,,,,,,11,,,,58,112
310804,note_on,60,0,2,,,,,,,,,1,,,,72,100
310804,note_on,0,0,2,,,,,,,,,1,,,,75,100
310805,note_on,0,0,3,,,,,,,,,2,,,,72,101
310805,note_on,60,0,3,,,,,,,,,2,,,,75,101
310808,note_on,30,0,13,,,,,,,,,12,,,,58,112
310814,note_on,30,0,15,,,,,,,,,14,,,,34,112
310830,note_on,30,0,11,,,,,,,,,10,,,,58,0
310833,note_on,30,0,12,,,,,,,,,11,,,,58,0
310838,note_on,30,0,13,,,,,,,,,12,,,,58,0
310844,note_on,30,0,15,,,,,,,,,14,,,,34,0
310860,note_on,30,0,11,,,,,,,,,10,,,,56,112
310863,note_on,30,0,12,,,,,,,,,11,,,,56,112
310864,note_on,60,0,2,,,,,,,,,1,,,,75,0
310864,note_on,0,0,2,,,,,,,,,1,,,,72,0
310865,note_on,60,0,3,,,,,,,,,2,,,,72,0
310865,note_on,0,0,3,,,,,,,,,2,,,,75,0
310868,note_on,30,0,13,,,,,,,,,12,,,,56,112
310874,note_on,30,0,15,,,,,,,,,14,,,,32,112
310890,note_on,30,0,11,,,,,,,,,10,,,,56,0
310893,note_on,30,0,12,,,,,,,,,11,,,,56,0
310898,note_on,30,0,13,,,,,,,,,12,,,,56,0
310904,note_on,30,0,15,,,,,,,,,14,,,,32,0
310920,note_on,30,0,11,,,,,,,,,10,,,,58,112
310920,set_tempo,120,1,0,,,,,,288462,,,,,,,,
310923,note_on,30,0,12,,,,,,,,,11,,,,58,112
310924,note_on,0,0,2,,,,,,,,,1,,,,68,100
310924,note_on,60,0,2,,,,,,,,,1,,,,72,100
310925,note_on,0,0,3,,,,,,,,,2,,,,68,101
310925,note_on,60,0,3,,,,,,,,,2,,,,72,101
310928,note_on,30,0,13,,,,,,,,,12,,,,58,112
310932,note_on,0,0,14,,,,,,,,,13,,,,60,112
310932,note_on,240,0,14,,,,,,,,,13,,,,56,0
310934,note_on,30,0,15,,,,,,,,,14,,,,34,112
310950,note_on,30,0,11,,,,,,,,,10,,,,58,0
310953,note_on,30,0,12,,,,,,,,,11,,,,58,0
310958,note_on,30,0,13,,,,,,,,,12,,,,58,0
310964,note_on,30,0,15,,,,,,,,,14,,,,34,0
310980,note_on,30,0,11,,,,,,,,,10,,,,56,112
310983,note_on,30,0,12,,,,,,,,,11,,,,56,112
310984,note_on,60,0,2,,,,,,,,,1,,,,68,0
310984,note_on,0,0,2,,,,,,,,,1,,,,72,0
310985,note_on,60,0,3,,,,,,,,,2,,,,68,0
310985,note_on,0,0,3,,,,,,,,,2,,,,72,0
310988,note_on,30,0,13,,,,,,,,,12,,,,56,112
310994,note_on,30,0,15,,,,,,,,,14,,,,32,112
311010,note_on,30,0,11,,,,,,,,,10,,,,56,0
311013,note_on,30,0,12,,,,,,,,,11,,,,56,0
311018,note_on,30,0,13,,,,,,,,,12,,,,56,0
311024,note_on,30,0,15,,,,,,,,,14,,,,32,0
311040,note_on,30,0,11,,,,,,,,,10,,,,56,112
311040,set_tempo,120,1,0,,,,,,254237,,,,,,,,
311043,note_on,30,0,12,,,,,,,,,11,,,,56,112
311044,note_on,0,0,2,,,,,,,,,1,,,,77,100
311044,note_on,60,0,2,,,,,,,,,1,,,,67,100
311045,note_on,0,0,3,,,,,,,,,2,,,,77,101
311045,note_on,60,0,3,,,,,,,,,2,,,,67,101
311047,note_on,115,0,14,,,,,,,,,13,,,,60,0
311048,note_on,30,0,13,,,,,,,,,12,,,,56,112
311052,note_on,5,0,14,,,,,,,,,13,,,,61,127
311054,note_on,30,0,15,,,,,,,,,14,,,,32,112
311160,note_on,120,0,11,,,,,,,,,10,,,,56,0
311160,set_tempo,120,1,0,,,,,,263158,,,,,,,,
311163,note_on,120,0,12,,,,,,,,,11,,,,56,0
311164,note_on,0,0,2,,,,,,,,,1,,,,71,100
311164,note_on,120,0,2,,,,,,,,,1,,,,77,0
311165,note_on,120,0,3,,,,,,,,,2,,,,77,0
311165,note_on,0,0,3,,,,,,,,,2,,,,71,101
311168,note_on,120,0,13,,,,,,,,,12,,,,56,0
311174,note_on,120,0,15,,,,,,,,,14,,,,32,0
311280,set_tempo,120,1,0,,,,,,288462,,,,,,,,
311284,note_on,120,0,2,,,,,,,,,1,,,,71,0
311284,note_on,0,0,2,,,,,,,,,1,,,,67,100
311284,note_on,0,0,2,,,,,,,,,1,,,,71,100
311284,note_on,0,0,2,,,,,,,,,1,,,,67,0
311285,note_on,120,0,3,,,,,,,,,2,,,,71,0
311285,note_on,0,0,3,,,,,,,,,2,,,,67,0
311285,note_on,0,0,3,,,,,,,,,2,,,,67,101
311285,note_on,0,0,3,,,,,,,,,2,,,,71,101
311292,note_on,240,0,14,,,,,,,,,13,,,,61,0
311292,note_on,0,0,14,,,,,,,,,13,,,,63,112
311400,set_tempo,120,1,0,,,,,,254237,,,,,,,,
311400,note_on,240,0,11,,,,,,,,,10,,,,56,112
311403,note_on,240,0,12,,,,,,,,,11,,,,56,112
311404,note_on,0,0,2,,,,,,,,,1,,,,68,115
311404,note_on,0,0,2,,,,,,,,,1,,,,72,115
311404,note_on,0,0,2,,,,,,,,,1,,,,71,0
311404,note_on,120,0,2,,,,,,,,,1,,,,67,0
311405,note_on,120,0,3,,,,,,,,,2,,,,67,0
311405,note_on,0,0,3,,,,,,,,,2,,,,71,0
311405,note_on,0,0,3,,,,,,,,,2,,,,68,116
311405,note_on,0,0,3,,,,,,,,,2,,,,72,116
311407,note_on,115,0,14,,,,,,,,,13,,,,63,0
311408,note_on,240,0,13,,,,,,,,,12,,,,56,112
311412,note_on,5,0,14,,,,,,,,,13,,,,60,127
311414,note_on,240,0,15,,,,,,,,,14,,,,32,112
311430,note_on,30,0,11,,,,,,,,,10,,,,56,0
311433,note_on,30,0,12,,,,,,,,,11,,,,56,0
311438,note_on,30,0,13,,,,,,,,,12,,,,56,0
311444,note_on,30,0,15,,,,,,,,,14,,,,32,0
311460,note_on,30,0,11,,,,,,,,,10,,,,56,112
311463,note_on,30,0,12,,,,,,,,,11,,,,56,112
311468,note_on,30,0,13,,,,,,,,,12,,,,56,112
311474,note_on,30,0,15,,,,,,,,,14,,,,32,112
311490,note_on,30,0,11,,,,,,,,,10,,,,56,0
311493,note_on,30,0,12,,,,,,,,,11,,,,56,0
311498,note_on,30,0,13,,,,,,,,,12,,,,56,0
311504,note_on,30,0,15,,,,,,,,,14,,,,32,0
311520,note_on,30,0,11,,,,,,,,,10,,,,58,112
311520,set_tempo,120,1,0,,,,,,263158,,,,,,,,
311523,note_on,30,0,12,,,,,,,,,11,,,,58,112
311524,note_on,0,0,2,,,,,,,,,1,,,,72,100
311524,note_on,0,0,2,,,,,,,,,1,,,,75,100
311524,note_on,0,0,2,,,,,,,,,1,,,,72,0
311524,note_on,120,0,2,,,,,,,,,1,,,,68,0
311525,note_on,120,0,3,,,,,,,,,2,,,,72,0
311525,note_on,0,0,3,,,,,,,,,2,,,,68,0
311525,note_on,0,0,3,,,,,,,,,2,,,,75,101
311525,note_on,0,0,3,,,,,,,,,2,,,,72,101
311528,note_on,30,0,13,,,,,,,,,12,,,,58,112
311534,note_on,30,0,15,,,,,,,,,14,,,,34,112
311550,note_on,30,0,11,,,,,,,,,10,,,,58,0
311553,note_on,30,0,12,,,,,,,,,11,,,,58,0
311558,note_on,30,0,13,,,,,,,,,12,,,,58,0
311564,note_on,30,0,15,,,,,,,,,14,,,,34,0
311580,note_on,30,0,11,,,,,,,,,10,,,,56,112
311583,note_on,30,0,12,,,,,,,,,11,,,,56,112
311588,note_on,30,0,13,,,,,,,,,12,,,,56,112
311594,note_on,30,0,15,,,,,,,,,14,,,,32,112
311610,note_on,30,0,11,,,,,,,,,10,,,,56,0
311613,note_on,30,0,12,,,,,,,,,11,,,,56,0
311618,note_on,30,0,13,,,,,,,,,12,,,,56,0
311624,note_on,30,0,15,,,,,,,,,14,,,,32,0
311640,set_tempo,120,1,0,,,,,,288462,,,,,,,,
311640,note_on,30,0,11,,,,,,,,,10,,,,58,112
311643,note_on,30,0,12,,,,,,,,,11,,,,58,112
311644,note_on,0,0,2,,,,,,,,,1,,,,75,100
311644,note_on,0,0,2,,,,,,,,,1,,,,72,100
311644,note_on,0,0,2,,,,,,,,,1,,,,75,0
311644,note_on,120,0,2,,,,,,,,,1,,,,72,0
311645,note_on,120,0,3,,,,,,,,,2,,,,72,0
311645,note_on,0,0,3,,,,,,,,,2,,,,72,101
311645,note_on,0,0,3,,,,,,,,,2,,,,75,101
311645,note_on,0,0,3,,,,,,,,,2,,,,75,0
311648,note_on,30,0,13,,,,,,,,,12,,,,58,112
311652,note_on,240,0,14,,,,,,,,,13,,,,60,0
311652,note_on,0,0,14,,,,,,,,,13,,,,56,112
311654,note_on,30,0,15,,,,,,,,,14,,,,34,112
311670,note_on,30,0,11,,,,,,,,,10,,,,58,0
311673,note_on,30,0,12,,,,,,,,,11,,,,58,0
311678,note_on,30,0,13,,,,,,,,,12,,,,58,0
311684,note_on,30,0,15,,,,,,,,,14,,,,34,0
311700,note_on,30,0,11,,,,,,,,,10,,,,56,112
311703,note_on,30,0,12,,,,,,,,,11,,,,56,112
311704,note_on,60,0,2,,,,,,,,,1,,,,72,0
311704,note_on,0,0,2,,,,,,,,,1,,,,75,0
311705,note_on,60,0,3,,,,,,,,,2,,,,72,0
311705,note_on,0,0,3,,,,,,,,,2,,,,75,0
311708,note_on,30,0,13,,,,,,,,,12,,,,56,112
311714,note_on,30,0,15,,,,,,,,,14,,,,32,112
311730,note_on,30,0,11,,,,,,,,,10,,,,56,0
311733,note_on,30,0,12,,,,,,,,,11,,,,56,0
311738,note_on,30,0,13,,,,,,,,,12,,,,56,0
311744,note_on,30,0,15,,,,,,,,,14,,,,32,0
311760,note_on,30,0,11,,,,,,,,,10,,,,56,112
311760,set_tempo,120,1,0,,,,,,254237,,,,,,,,
311763,note_on,30,0,12,,,,,,,,,11,,,,56,112
311764,note_on,60,0,2,,,,,,,,,1,,,,77,115
311764,note_on,0,0,2,,,,,,,,,1,,,,80,115
311765,note_on,0,0,3,,,,,,,,,2,,,,77,116
311765,note_on,60,0,3,,,,,,,,,2,,,,80,116
311767,note_on,115,0,14,,,,,,,,,13,,,,56,0
311768,note_on,30,0,13,,,,,,,,,12,,,,56,112
311769,note_on,0,0,4,,,,,,,,,3,,,,65,115
311769,note_on,1680,0,4,,,,,,,,,3,,,,68,115
311772,note_on,5,0,14,,,,,,,,,13,,,,49,127
311772,control_change,0,0,14,,,,,,,,,13,11,50,,,
311774,note_on,30,0,15,,,,,,,,,14,,,,32,112
311794,note_on,0,0,2,,,,,,,,,1,,,,77,0
311794,note_on,30,0,2,,,,,,,,,1,,,,80,0
311795,note_on,30,0,3,,,,,,,,,2,,,,77,0
311795,note_on,0,0,3,,,,,,,,,2,,,,80,0
311796,control_change,24,0,14,,,,,,,,,13,11,51,,,
311799,note_on,30,0,4,,,,,,,,,3,,,,65,0
311799,note_on,0,0,4,,,,,,,,,3,,,,68,0
311820,control_change,24,0,14,,,,,,,,,13,11,52,,,
311824,note_on,30,0,2,,,,,,,,,1,,,,80,100
311824,note_on,0,0,2,,,,,,,,,1,,,,77,100
311825,note_on,30,0,3,,,,,,,,,2,,,,80,101
311825,note_on,0,0,3,,,,,,,,,2,,,,77,101
311829,note_on,0,0,4,,,,,,,,,3,,,,68,100
311829,note_on,30,0,4,,,,,,,,,3,,,,65,100
311844,control_change,24,0,14,,,,,,,,,13,11,53,,,
311854,note_on,30,0,2,,,,,,,,,1,,,,77,0
311854,note_on,0,0,2,,,,,,,,,1,,,,80,0
311855,note_on,0,0,3,,,,,,,,,2,,,,80,0
311855,note_on,30,0,3,,,,,,,,,2,,,,77,0
311859,note_on,30,0,4,,,,,,,,,3,,,,68,0
311859,note_on,0,0,4,,,,,,,,,3,,,,65,0
311868,control_change,24,0,14,,,,,,,,,13,11,54,,,
311880,note_on,120,0,11,,,,,,,,,10,,,,56,0
311880,set_tempo,120,1,0,,,,,,263158,,,,,,,,
311883,note_on,120,0,12,,,,,,,,,11,,,,56,0
311884,note_on,0,0,2,,,,,,,,,1,,,,76,100
311884,note_on,30,0,2,,,,,,,,,1,,,,79,100
311885,note_on,30,0,3,,,,,,,,,2,,,,79,101
311885,note_on,0,0,3,,,,,,,,,2,,,,76,101
311888,note_on,120,0,13,,,,,,,,,12,,,,56,0
311889,note_on,0,0,4,,,,,,,,,3,,,,67,100
311889,note_on,30,0,4,,,,,,,,,3,,,,64,100
311892,note_on,0,0,14,,,,,,,,,13,,,,53,112
311892,control_change,0,0,14,,,,,,,,,13,11,55,,,
311892,note_on,24,0,14,,,,,,,,,13,,,,49,0
311894,note_on,120,0,15,,,,,,,,,14,,,,32,0
311916,control_change,24,0,14,,,,,,,,,13,11,56,,,
311940,control_change,24,0,14,,,,,,,,,13,11,57,,,
311944,note_on,0,0,2,,,,,,,,,1,,,,80,100
311944,note_on,0,0,2,,,,,,,,,1,,,,77,100
311944,note_on,0,0,2,,,,,,,,,1,,,,79,0
311944,note_on,60,0,2,,,,,,,,,1,,,,76,0
311945,note_on,60,0,3,,,,,,,,,2,,,,76,0
311945,note_on,0,0,3,,,,,,,,,2,,,,79,0
311945,note_on,0,0,3,,,,,,,,,2,,,,80,101
311945,note_on,0,0,3,,,,,,,,,2,,,,77,101
311949,note_on,60,0,4,,,,,,,,,3,,,,67,0
311949,note_on,0,0,4,,,,,,,,,3,,,,64,0
311949,note_on,0,0,4,,,,,,,,,3,,,,68,100
311949,note_on,0,0,4,,,,,,,,,3,,,,65,100
311964,control_change,24,0,14,,,,,,,,,13,11,57,,,
311988,control_change,24,0,14,,,,,,,,,13,11,58,,,
312000,set_tempo,120,1,0,,,,,,288462,,,,,,,,
312004,note_on,60,0,2,,,,,,,,,1,,,,80,0
312004,note_on,0,0,2,,,,,,,,,1,,,,75,100
312004,note_on,0,0,2,,,,,,,,,1,,,,79,100
312004,note_on,0,0,2,,,,,,,,,1,,,,77,0
312005,note_on,0,0,3,,,,,,,,,2,,,,75,101
312005,note_on,0,0,3,,,,,,,,,2,,,,80,0
312005,note_on,0,0,3,,,,,,,,,2,,,,79,101
312005,note_on,60,0,3,,,,,,,,,2,,,,77,0
312009,note_on,0,0,4,,,,,,,,,3,,,,68,0
312009,note_on,60,0,4,,,,,,,,,3,,,,65,0
312009,note_on,0,0,4,,,,,,,,,3,,,,63,100
312009,note_on,0,0,4,,,,,,,,,3,,,,67,100
312012,note_on,24,0,14,,,,,,,,,13,,,,53,0
312012,note_on,0,0,14,,,,,,,,,13,,,,55,112
312012,control_change,0,0,14,,,,,,,,,13,11,59,,,
312036,control_change,24,0,14,,,,,,,,,13,11,60,,,
312060,control_change,24,0,14,,,,,,,,,13,11,61,,,
312064,note_on,0,0,2,,,,,,,,,1,,,,73,100
312064,note_on,0,0,2,,,,,,,,,1,,,,79,0
312064,note_on,0,0,2,,,,,,,,,1,,,,77,100
312064,note_on,60,0,2,,,,,,,,,1,,,,75,0
312065,note_on,0,0,3,,,,,,,,,2,,,,75,0
312065,note_on,0,0,3,,,,,,,,,2,,,,73,101
312065,note_on,0,0,3,,,,,,,,,2,,,,77,101
312065,note_on,60,0,3,,,,,,,,,2,,,,79,0
312069,note_on,0,0,4,,,,,,,,,3,,,,63,0
312069,note_on,0,0,4,,,,,,,,,3,,,,61,100
312069,note_on,0,0,4,,,,,,,,,3,,,,65,100
312069,note_on,60,0,4,,,,,,,,,3,,,,67,0
312084,control_change,24,0,14,,,,,,,,,13,11,62,,,
312108,control_change,24,0,14,,,,,,,,,13,11,63,,,
312120,set_tempo,120,1,0,,,,,,254237,,,,,,,,
312120,note_on,240,0,11,,,,,,,,,10,,,,56,112
312123,note_on,240,0,12,,,,,,,,,11,,,,56,112
312124,note_on,60,0,2,,,,,,,,,1,,,,77,0
312124,note_on,0,0,2,,,,,,,,,1,,,,73,0
312124,note_on,0,0,2,,,,,,,,,1,,,,72,115
312124,note_on,0,0,2,,,,,,,,,1,,,,75,115
312125,note_on,0,0,3,,,,,,,,,2,,,,72,116
312125,note_on,0,0,3,,,,,,,,,2,,,,77,0
312125,note_on,0,0,3,,,,,,,,,2,,,,75,116
312125,note_on,60,0,3,,,,,,,,,2,,,,73,0
312127,note_on,19,0,14,,,,,,,,,13,,,,55,0
312128,note_on,240,0,13,,,,,,,,,12,,,,56,112
312129,note_on,60,0,4,,,,,,,,,3,,,,65,0
312129,note_on,0,0,4,,,,,,,,,3,,,,61,0
312129,note_on,0,0,4,,,,,,,,,3,,,,63,115
312129,note_on,0,0,4,,,,,,,,,3,,,,60,115
312132,control_change,5,0,14,,,,,,,,,13,11,64,,,
312132,note_on,0,0,14,,,,,,,,,13,,,,56,127
312134,note_on,240,0,15,,,,,,,,,14,,,,32,112
312150,note_on,30,0,11,,,,,,,,,10,,,,56,0
312153,note_on,30,0,12,,,,,,,,,11,,,,56,0
312156,control_change,24,0,14,,,,,,,,,13,11,65,,,
312158,note_on,30,0,13,,,,,,,,,12,,,,56,0
312164,note_on,30,0,15,,,,,,,,,14,,,,32,0
312180,note_on,30,0,11,,,,,,,,,10,,,,56,112
312180,control_change,24,0,14,,,,,,,,,13,11,66,,,
312183,note_on,30,0,12,,,,,,,,,11,,,,56,112
312184,note_on,60,0,2,,,,,,,,,1,,,,75,0
312184,note_on,0,0,2,,,,,,,,,1,,,,72,0
312185,note_on,60,0,3,,,,,,,,,2,,,,72,0
312185,note_on,0,0,3,,,,,,,,,2,,,,75,0
312188,note_on,30,0,13,,,,,,,,,12,,,,56,112
312189,note_on,60,0,4,,,,,,,,,3,,,,60,0
312189,note_on,0,0,4,,,,,,,,,3,,,,63,0
312194,note_on,30,0,15,,,,,,,,,14,,,,32,112
312204,control_change,24,0,14,,,,,,,,,13,11,67,,,
312210,note_on,30,0,11,,,,,,,,,10,,,,56,0
312213,note_on,30,0,12,,,,,,,,,11,,,,56,0
312218,note_on,30,0,13,,,,,,,,,12,,,,56,0
312224,note_on,30,0,15,,,,,,,,,14,,,,32,0
312228,control_change,24,0,14,,,,,,,,,13,11,68,,,
312240,note_on,30,0,11,,,,,,,,,10,,,,58,112
312240,set_tempo,120,1,0,,,,,,263158,,,,,,,,
312243,note_on,30,0,12,,,,,,,,,11,,,,58,112
312244,note_on,0,0,2,,,,,,,,,1,,,,72,100
312244,note_on,60,0,2,,,,,,,,,1,,,,75,100
312245,note_on,0,0,3,,,,,,,,,2,,,,72,101
312245,note_on,60,0,3,,,,,,,,,2,,,,75,101
312248,note_on,30,0,13,,,,,,,,,12,,,,58,112
312249,note_on,0,0,4,,,,,,,,,3,,,,63,100
312249,note_on,60,0,4,,,,,,,,,3,,,,60,100
312252,control_change,0,0,14,,,,,,,,,13,11,69,,,
312252,note_on,0,0,14,,,,,,,,,13,,,,58,112
312252,note_on,24,0,14,,,,,,,,,13,,,,56,0
312254,note_on,30,0,15,,,,,,,,,14,,,,34,112
312270,note_on,30,0,11,,,,,,,,,10,,,,58,0
312273,note_on,30,0,12,,,,,,,,,11,,,,58,0
312276,control_change,24,0,14,,,,,,,,,13,11,70,,,
312278,note_on,30,0,13,,,,,,,,,12,,,,58,0
312284,note_on,30,0,15,,,,,,,,,14,,,,34,0
312300,control_change,24,0,14,,,,,,,,,13,11,71,,,
312300,note_on,30,0,11,,,,,,,,,10,,,,56,112
312303,note_on,30,0,12,,,,,,,,,11,,,,56,112
312304,note_on,0,0,2,,,,,,,,,1,,,,75,0
312304,note_on,60,0,2,,,,,,,,,1,,,,72,0
312305,note_on,60,0,3,,,,,,,,,2,,,,72,0
312305,note_on,0,0,3,,,,,,,,,2,,,,75,0
312308,note_on,30,0,13,,,,,,,,,12,,,,56,112
312309,note_on,0,0,4,,,,,,,,,3,,,,60,0
312309,note_on,60,0,4,,,,,,,,,3,,,,63,0
312314,note_on,30,0,15,,,,,,,,,14,,,,32,112
312324,control_change,24,0,14,,,,,,,,,13,11,72,,,
312330,note_on,30,0,11,,,,,,,,,10,,,,56,0
312333,note_on,30,0,12,,,,,,,,,11,,,,56,0
312338,note_on,30,0,13,,,,,,,,,12,,,,56,0
312344,note_on,30,0,15,,,,,,,,,14,,,,32,0
312348,control_change,24,0,14,,,,,,,,,13,11,72,,,
312360,set_tempo,120,1,0,,,,,,288462,,,,,,,,
312360,note_on,30,0,11,,,,,,,,,10,,,,58,112
312363,note_on,30,0,12,,,,,,,,,11,,,,58,112
312364,note_on,60,0,2,,,,,,,,,1,,,,72,100
312364,note_on,0,0,2,,,,,,,,,1,,,,68,100
312365,note_on,0,0,3,,,,,,,,,2,,,,72,101
312365,note_on,60,0,3,,,,,,,,,2,,,,68,101
312368,note_on,30,0,13,,,,,,,,,12,,,,58,112
312369,note_on,0,0,4,,,,,,,,,3,,,,56,100
312369,note_on,60,0,4,,,,,,,,,3,,,,60,100
312372,control_change,0,0,14,,,,,,,,,13,11,73,,,
312372,note_on,0,0,14,,,,,,,,,13,,,,60,112
312372,note_on,24,0,14,,,,,,,,,13,,,,58,0
312374,note_on,30,0,15,,,,,,,,,14,,,,34,112
312390,note_on,30,0,11,,,,,,,,,10,,,,58,0
312393,note_on,30,0,12,,,,,,,,,11,,,,58,0
312396,control_change,24,0,14,,,,,,,,,13,11,74,,,
312398,note_on,30,0,13,,,,,,,,,12,,,,58,0
312404,note_on,30,0,15,,,,,,,,,14,,,,34,0
312420,control_change,24,0,14,,,,,,,,,13,11,75,,,
312420,note_on,30,0,11,,,,,,,,,10,,,,56,112
312423,note_on,30,0,12,,,,,,,,,11,,,,56,112
312424,note_on,60,0,2,,,,,,,,,1,,,,68,0
312424,note_on,0,0,2,,,,,,,,,1,,,,72,0
312425,note_on,60,0,3,,,,,,,,,2,,,,72,0
312425,note_on,0,0,3,,,,,,,,,2,,,,68,0
312428,note_on,30,0,13,,,,,,,,,12,,,,56,112
312429,note_on,60,0,4,,,,,,,,,3,,,,56,0
312429,note_on,0,0,4,,,,,,,,,3,,,,60,0
312434,note_on,30,0,15,,,,,,,,,14,,,,32,112
312444,control_change,24,0,14,,,,,,,,,13,11,76,,,
312450,note_on,30,0,11,,,,,,,,,10,,,,56,0
312453,note_on,30,0,12,,,,,,,,,11,,,,56,0
312458,note_on,30,0,13,,,,,,,,,12,,,,56,0
312464,note_on,30,0,15,,,,,,,,,14,,,,32,0
312468,control_change,24,0,14,,,,,,,,,13,11,77,,,
312480,note_on,30,0,11,,,,,,,,,10,,,,56,112
312480,set_tempo,120,1,0,,,,,,254237,,,,,,,,
312483,note_on,30,0,12,,,,,,,,,11,,,,56,112
312484,note_on,0,0,2,,,,,,,,,1,,,,77,100
312484,note_on,60,0,2,,,,,,,,,1,,,,67,100
312485,note_on,0,0,3,,,,,,,,,2,,,,67,101
312485,note_on,60,0,3,,,,,,,,,2,,,,77,101
312487,note_on,19,0,14,,,,,,,,,13,,,,60,0
312488,note_on,30,0,13,,,,,,,,,12,,,,56,112
312489,note_on,0,0,4,,,,,,,,,3,,,,55,100
312489,note_on,60,0,4,,,,,,,,,3,,,,65,100
312492,note_on,5,0,14,,,,,,,,,13,,,,61,127
312492,control_change,0,0,14,,,,,,,,,13,11,78,,,
312494,note_on,30,0,15,,,,,,,,,14,,,,32,112
312600,note_on,120,0,11,,,,,,,,,10,,,,56,0
312600,set_tempo,120,1,0,,,,,,263158,,,,,,,,
312603,note_on,120,0,12,,,,,,,,,11,,,,56,0
312604,note_on,0,0,2,,,,,,,,,1,,,,71,100
312604,note_on,120,0,2,,,,,,,,,1,,,,77,0
312605,note_on,0,0,3,,,,,,,,,2,,,,71,101
312605,note_on,120,0,3,,,,,,,,,2,,,,77,0
312608,note_on,120,0,13,,,,,,,,,12,,,,56,0
312609,note_on,120,0,4,,,,,,,,,3,,,,65,0
312609,note_on,0,0,4,,,,,,,,,3,,,,59,100
312612,note_on,0,0,14,,,,,,,,,13,,,,65,112
312612,note_on,120,0,14,,,,,,,,,13,,,,61,0
312614,note_on,120,0,15,,,,,,,,,14,,,,32,0
312720,set_tempo,120,1,0,,,,,,288462,,,,,,,,
312724,note_on,0,0,2,,,,,,,,,1,,,,71,100
312724,note_on,0,0,2,,,,,,,,,1,,,,67,0
312724,note_on,0,0,2,,,,,,,,,1,,,,67,100
312724,note_on,120,0,2,,,,,,,,,1,,,,71,0
312725,note_on,120,0,3,,,,,,,,,2,,,,71,0
312725,note_on,0,0,3,,,,,,,,,2,,,,67,0
312725,note_on,0,0,3,,,,,,,,,2,,,,71,101
312725,note_on,0,0,3,,,,,,,,,2,,,,67,101
312729,note_on,0,0,4,,,,,,,,,3,,,,55,100
312729,note_on,0,0,4,,,,,,,,,3,,,,59,100
312729,note_on,0,0,4,,,,,,,,,3,,,,55,0
312729,note_on,120,0,4,,,,,,,,,3,,,,59,0
312732,note_on,0,0,14,,,,,,,,,13,,,,63,112
312732,note_on,120,0,14,,,,,,,,,13,,,,65,0
312840,set_tempo,120,1,0,,,,,,254237,,,,,,,,
312840,note_on,240,0,11,,,,,,,,,10,,,,56,112
312843,note_on,240,0,12,,,,,,,,,11,,,,56,112
312844,note_on,0,0,2,,,,,,,,,1,,,,72,115
312844,note_on,120,0,2,,,,,,,,,1,,,,67,0
312844,note_on,0,0,2,,,,,,,,,1,,,,71,0
312844,note_on,0,0,2,,,,,,,,,1,,,,68,115
312845,note_on,120,0,3,,,,,,,,,2,,,,71,0
312845,note_on,0,0,3,,,,,,,,,2,,,,68,116
312845,note_on,0,0,3,,,,,,,,,2,,,,72,116
312845,note_on,0,0,3,,,,,,,,,2,,,,67,0
312847,note_on,115,0,14,,,,,,,,,13,,,,63,0
312848,note_on,240,0,13,,,,,,,,,12,,,,56,112
312849,note_on,120,0,4,,,,,,,,,3,,,,55,0
312849,note_on,0,0,4,,,,,,,,,3,,,,59,0
312849,note_on,0,0,4,,,,,,,,,3,,,,56,115
312849,note_on,0,0,4,,,,,,,,,3,,,,60,115
312852,note_on,5,0,14,,,,,,,,,13,,,,60,127
312854,note_on,240,0,15,,,,,,,,,14,,,,32,112
312870,note_on,30,0,11,,,,,,,,,10,,,,56,0
312873,note_on,30,0,12,,,,,,,,,11,,,,56,0
312878,note_on,30,0,13,,,,,,,,,12,,,,56,0
312884,note_on,30,0,15,,,,,,,,,14,,,,32,0
312900,note_on,30,0,11,,,,,,,,,10,,,,56,112
312903,note_on,30,0,12,,,,,,,,,11,,,,56,112
312908,note_on,30,0,13,,,,,,,,,12,,,,56,112
312914,note_on,30,0,15,,,,,,,,,14,,,,32,112
312930,note_on,30,0,11,,,,,,,,,10,,,,56,0
312933,note_on,30,0,12,,,,,,,,,11,,,,56,0
312938,note_on,30,0,13,,,,,,,,,12,,,,56,0
312944,note_on,30,0,15,,,,,,,,,14,,,,32,0
312960,set_tempo,120,1,0,,,,,,263158,,,,,,,,
312960,note_on,30,0,11,,,,,,,,,10,,,,58,112
312963,note_on,30,0,12,,,,,,,,,11,,,,58,112
312964,note_on,0,0,2,,,,,,,,,1,,,,72,100
312964,note_on,0,0,2,,,,,,,,,1,,,,68,0
312964,note_on,120,0,2,,,,,,,,,1,,,,72,0
312964,note_on,0,0,2,,,,,,,,,1,,,,75,100
312965,note_on,0,0,3,,,,,,,,,2,,,,72,0
312965,note_on,0,0,3,,,,,,,,,2,,,,75,101
312965,note_on,0,0,3,,,,,,,,,2,,,,72,101
312965,note_on,120,0,3,,,,,,,,,2,,,,68,0
312968,note_on,30,0,13,,,,,,,,,12,,,,58,112
312969,note_on,0,0,4,,,,,,,,,3,,,,60,100
312969,note_on,0,0,4,,,,,,,,,3,,,,63,100
312969,note_on,0,0,4,,,,,,,,,3,,,,56,0
312969,note_on,120,0,4,,,,,,,,,3,,,,60,0
312974,note_on,30,0,15,,,,,,,,,14,,,,34,112
312990,note_on,30,0,11,,,,,,,,,10,,,,58,0
312993,note_on,30,0,12,,,,,,,,,11,,,,58,0
312998,note_on,30,0,13,,,,,,,,,12,,,,58,0
313004,note_on,30,0,15,,,,,,,,,14,,,,34,0
313020,note_on,30,0,11,,,,,,,,,10,,,,56,112
313023,note_on,30,0,12,,,,,,,,,11,,,,56,112
313028,note_on,30,0,13,,,,,,,,,12,,,,56,112
313034,note_on,30,0,15,,,,,,,,,14,,,,32,112
313050,note_on,30,0,11,,,,,,,,,10,,,,56,0
313053,note_on,30,0,12,,,,,,,,,11,,,,56,0
313058,note_on,30,0,13,,,,,,,,,12,,,,56,0
313064,note_on,30,0,15,,,,,,,,,14,,,,32,0
313080,note_on,30,0,11,,,,,,,,,10,,,,58,112
313080,set_tempo,120,1,0,,,,,,315789,,,,,,,,
313083,note_on,30,0,12,,,,,,,,,11,,,,58,112
313084,note_on,120,0,2,,,,,,,,,1,,,,72,0
313084,note_on,0,0,2,,,,,,,,,1,,,,72,100
313084,note_on,0,0,2,,,,,,,,,1,,,,75,100
313084,note_on,0,0,2,,,,,,,,,1,,,,75,0
313085,note_on,0,0,3,,,,,,,,,2,,,,72,101
313085,note_on,0,0,3,,,,,,,,,2,,,,75,101
313085,note_on,120,0,3,,,,,,,,,2,,,,72,0
313085,note_on,0,0,3,,,,,,,,,2,,,,75,0
313088,note_on,30,0,13,,,,,,,,,12,,,,58,112
313089,note_on,0,0,4,,,,,,,,,3,,,,63,100
313089,note_on,0,0,4,,,,,,,,,3,,,,60,100
313089,note_on,0,0,4,,,,,,,,,3,,,,60,0
313089,note_on,120,0,4,,,,,,,,,3,,,,63,0
313092,note_on,240,0,14,,,,,,,,,13,,,,60,0
313092,note_on,0,0,14,,,,,,,,,13,,,,56,112
313094,note_on,30,0,15,,,,,,,,,14,,,,34,112
313110,note_on,30,0,11,,,,,,,,,10,,,,58,0
313113,note_on,30,0,12,,,,,,,,,11,,,,58,0
313118,note_on,30,0,13,,,,,,,,,12,,,,58,0
313124,note_on,30,0,15,,,,,,,,,14,,,,34,0
313140,note_on,30,0,11,,,,,,,,,10,,,,56,112
313143,note_on,30,0,12,,,,,,,,,11,,,,56,112
313144,note_on,60,0,2,,,,,,,,,1,,,,75,0
313144,note_on,0,0,2,,,,,,,,,1,,,,72,0
313145,note_on,0,0,3,,,,,,,,,2,,,,72,0
313145,note_on,60,0,3,,,,,,,,,2,,,,75,0
313148,note_on,30,0,13,,,,,,,,,12,,,,56,112
313149,note_on,0,0,4,,,,,,,,,3,,,,63,0
313149,note_on,60,0,4,,,,,,,,,3,,,,60,0
313154,note_on,30,0,15,,,,,,,,,14,,,,32,112
313170,note_on,30,0,11,,,,,,,,,10,,,,56,0
313173,note_on,30,0,12,,,,,,,,,11,,,,56,0
313178,note_on,30,0,13,,,,,,,,,12,,,,56,0
313184,note_on,30,0,15,,,,,,,,,14,,,,32,0
313200,control_change,0,0,11,,,,,,,,,10,11,83,,,
313200,note_on,30,0,11,,,,,,,,,10,,,,63,112
313200,set_tempo,120,1,0,,,,,,254237,,,,,,,,
313203,note_on,0,0,12,,,,,,,,,11,,,,63,112
313203,control_change,30,0,12,,,,,,,,,11,11,83,,,
313203,note_on,4440,0,5,,,,,,,,,4,,,,67,100
313203,control_change,0,0,5,,,,,,,,,4,11,82,,,
313204,note_on,0,0,2,,,,,,,,,1,,,,73,100
313204,note_on,0,0,2,,,,,,,,,1,,,,70,100
313204,control_change,60,0,2,,,,,,,,,1,11,70,,,
313205,control_change,0,0,3,,,,,,,,,2,11,70,,,
313205,note_on,0,0,3,,,,,,,,,2,,,,70,101
313205,note_on,60,0,3,,,,,,,,,2,,,,73,101
313207,note_on,115,0,14,,,,,,,,,13,,,,56,0
313208,control_change,30,0,13,,,,,,,,,12,11,83,,,
313208,note_on,0,0,13,,,,,,,,,12,,,,63,112
313209,control_change,0,0,4,,,,,,,,,3,11,77,,,
313209,note_on,60,0,4,,,,,,,,,3,,,,63,100
313212,note_on,5,0,14,,,,,,,,,13,,,,51,112
313212,control_change,0,0,14,,,,,,,,,13,11,83,,,
313214,control_change,30,0,15,,,,,,,,,14,11,83,,,
313214,note_on,0,0,15,,,,,,,,,14,,,,39,112
313234,note_on,0,0,2,,,,,,,,,1,,,,70,0
313234,note_on,30,0,2,,,,,,,,,1,,,,73,0
313235,note_on,30,0,3,,,,,,,,,2,,,,70,0
313235,note_on,0,0,3,,,,,,,,,2,,,,73,0
313264,note_on,0,0,2,,,,,,,,,1,,,,73,100
313264,note_on,30,0,2,,,,,,,,,1,,,,70,100
313265,note_on,30,0,3,,,,,,,,,2,,,,73,101
313265,note_on,0,0,3,,,,,,,,,2,,,,70,101
313294,note_on,0,0,2,,,,,,,,,1,,,,70,0
313294,note_on,30,0,2,,,,,,,,,1,,,,73,0
313295,note_on,30,0,3,,,,,,,,,2,,,,70,0
313295,note_on,0,0,3,,,,,,,,,2,,,,73,0
313320,note_on,120,0,11,,,,,,,,,10,,,,63,0
313320,set_tempo,120,1,0,,,,,,263158,,,,,,,,
313323,note_on,120,0,12,,,,,,,,,11,,,,63,0
313324,note_on,0,0,2,,,,,,,,,1,,,,75,100
313324,note_on,30,0,2,,,,,,,,,1,,,,72,100
313325,note_on,0,0,3,,,,,,,,,2,,,,72,101
313325,note_on,30,0,3,,,,,,,,,2,,,,75,101
313328,note_on,120,0,13,,,,,,,,,12,,,,63,0
313332,note_on,120,0,14,,,,,,,,,13,,,,51,0
313334,note_on,120,0,15,,,,,,,,,14,,,,39,0
313384,note_on,60,0,2,,,,,,,,,1,,,,75,0
313384,note_on,0,0,2,,,,,,,,,1,,,,72,0
313384,note_on,0,0,2,,,,,,,,,1,,,,70,100
313384,note_on,0,0,2,,,,,,,,,1,,,,73,100
313385,note_on,0,0,3,,,,,,,,,2,,,,75,0
313385,note_on,60,0,3,,,,,,,,,2,,,,72,0
313385,note_on,0,0,3,,,,,,,,,2,,,,70,101
313385,note_on,0,0,3,,,,,,,,,2,,,,73,101
313440,set_tempo,120,1,0,,,,,,288462,,,,,,,,
313444,note_on,0,0,2,,,,,,,,,1,,,,72,100
313444,note_on,0,0,2,,,,,,,,,1,,,,70,0
313444,note_on,60,0,2,,,,,,,,,1,,,,73,0
313444,note_on,0,0,2,,,,,,,,,1,,,,75,100
313445,note_on,0,0,3,,,,,,,,,2,,,,72,101
313445,note_on,0,0,3,,,,,,,,,2,,,,73,0
313445,note_on,60,0,3,,,,,,,,,2,,,,70,0
313445,note_on,0,0,3,,,,,,,,,2,,,,75,101
313504,note_on,60,0,2,,,,,,,,,1,,,,75,0
313504,note_on,0,0,2,,,,,,,,,1,,,,72,0
313504,note_on,0,0,2,,,,,,,,,1,,,,73,100
313504,note_on,0,0,2,,,,,,,,,1,,,,70,100
313505,note_on,60,0,3,,,,,,,,,2,,,,72,0
313505,note_on,0,0,3,,,,,,,,,2,,,,75,0
313505,note_on,0,0,3,,,,,,,,,2,,,,73,101
313505,note_on,0,0,3,,,,,,,,,2,,,,70,101
313560,set_tempo,120,1,0,,,,,,258621,,,,,,,,
313563,note_on,0,0,5,,,,,,,,,4,,,,67,100
313563,note_on,360,0,5,,,,,,,,,4,,,,67,0
313564,note_on,0,0,2,,,,,,,,,1,,,,73,100
313564,note_on,0,0,2,,,,,,,,,1,,,,73,0
313564,note_on,60,0,2,,,,,,,,,1,,,,70,0
313564,note_on,0,0,2,,,,,,,,,1,,,,77,100
313565,note_on,0,0,3,,,,,,,,,2,,,,77,101
313565,note_on,0,0,3,,,,,,,,,2,,,,73,101
313565,note_on,0,0,3,,,,,,,,,2,,,,73,0
313565,note_on,60,0,3,,,,,,,,,2,,,,70,0
313569,note_on,360,0,4,,,,,,,,,3,,,,63,0
313569,note_on,0,0,4,,,,,,,,,3,,,,63,100
313624,note_on,0,0,2,,,,,,,,,1,,,,77,0
313624,note_on,60,0,2,,,,,,,,,1,,,,73,0
313625,note_on,60,0,3,,,,,,,,,2,,,,77,0
313625,note_on,0,0,3,,,,,,,,,2,,,,73,0
313629,note_on,60,0,4,,,,,,,,,3,,,,63,0
313683,note_on,120,0,5,,,,,,,,,4,,,,67,0
313683,note_on,0,0,5,,,,,,,,,4,,,,67,100
313684,note_on,0,0,2,,,,,,,,,1,,,,77,100
313684,note_on,0,0,2,,,,,,,,,1,,,,73,100
313684,note_on,60,0,2,,,,,,,,,1,,,,73,100
313685,note_on,60,0,3,,,,,,,,,2,,,,77,101
313685,note_on,0,0,3,,,,,,,,,2,,,,73,101
313689,note_on,60,0,4,,,,,,,,,3,,,,63,100
313744,note_on,0,0,2,,,,,,,,,1,,,,77,0
313744,note_on,0,0,2,,,,,,,,,1,,,,73,0
313744,note_on,60,0,2,,,,,,,,,1,,,,73,0
313745,note_on,60,0,3,,,,,,,,,2,,,,73,0
313745,note_on,0,0,3,,,,,,,,,2,,,,77,0
313749,note_on,60,0,4,,,,,,,,,3,,,,63,0
313800,set_tempo,240,1,0,,,,,,288462,,,,,,,,
313801,control_change,5040,0,1,,,,,,,,,0,11,86,,,
313801,note_on,0,0,1,,,,,,,,,0,,,,73,101
313801,note_on,0,0,1,,,,,,,,,0,,,,82,101
313803,control_change,0,0,5,,,,,,,,,4,11,102,,,
313803,note_on,120,0,5,,,,,,,,,4,,,,67,0
313803,note_on,0,0,5,,,,,,,,,4,,,,67,100
313804,note_on,60,0,2,,,,,,,,,1,,,,82,100
313804,control_change,0,0,2,,,,,,,,,1,11,86,,,
313805,note_on,0,0,3,,,,,,,,,2,,,,82,101
313805,note_on,60,0,3,,,,,,,,,2,,,,73,101
313805,control_change,0,0,3,,,,,,,,,2,11,86,,,
313807,note_on,0,0,8,,,,,,,,,7,,,,63,110
313807,note_on,0,0,8,,,,,,,,,7,,,,67,110
313807,control_change,5040,0,8,,,,,,,,,7,11,102,,,
313808,control_change,7,0,1,,,,,,,,,0,11,83,,,
313809,control_change,0,0,4,,,,,,,,,3,11,97,,,
313809,note_on,60,0,4,,,,,,,,,3,,,,63,100
313810,control_change,7,0,5,,,,,,,,,4,11,99,,,
313811,control_change,7,0,2,,,,,,,,,1,11,83,,,
313812,control_change,7,0,3,,,,,,,,,2,11,83,,,
313814,control_change,7,0,8,,,,,,,,,7,11,99,,,
313816,control_change,7,0,4,,,,,,,,,3,11,94,,,
313818,control_change,8,0,5,,,,,,,,,4,11,96,,,
313822,control_change,8,0,8,,,,,,,,,7,11,96,,,
313823,control_change,15,0,1,,,,,,,,,0,11,79,,,
313824,control_change,8,0,4,,,,,,,,,3,11,91,,,
313825,control_change,7,0,5,,,,,,,,,4,11,93,,,
313826,control_change,15,0,2,,,,,,,,,1,11,79,,,
313827,control_change,15,0,3,,,,,,,,,2,11,79,,,
313829,control_change,7,0,8,,,,,,,,,7,11,93,,,
313831,control_change,8,0,1,,,,,,,,,0,11,76,,,
313831,control_change,7,0,4,,,,,,,,,3,11,88,,,
313833,control_change,8,0,5,,,,,,,,,4,11,90,,,
313834,control_change,8,0,2,,,,,,,,,1,11,76,,,
313835,control_change,8,0,3,,,,,,,,,2,11,76,,,
313837,control_change,8,0,8,,,,,,,,,7,11,90,,,
313839,control_change,8,0,4,,,,,,,,,3,11,85,,,
313840,control_change,7,0,5,,,,,,,,,4,11,87,,,
313844,control_change,7,0,8,,,,,,,,,7,11,87,,,
313846,control_change,7,0,4,,,,,,,,,3,11,82,,,
313846,control_change,15,0,1,,,,,,,,,0,11,72,,,
313848,control_change,8,0,5,,,,,,,,,4,11,84,,,
313849,control_change,15,0,2,,,,,,,,,1,11,72,,,
313850,control_change,15,0,3,,,,,,,,,2,11,72,,,
313852,control_change,8,0,8,,,,,,,,,7,11,84,,,
313854,control_change,8,0,4,,,,,,,,,3,11,79,,,
313861,note_on,0,0,1,,,,,,,,,0,,,,73,0
313861,note_on,15,0,1,,,,,,,,,0,,,,82,0
313864,note_on,15,0,2,,,,,,,,,1,,,,82,0
313865,note_on,0,0,3,,,,,,,,,2,,,,73,0
313865,note_on,15,0,3,,,,,,,,,2,,,,82,0
313869,note_on,15,0,4,,,,,,,,,3,,,,63,0
313920,note_on,600,0,11,,,,,,,,,10,,,,55,112
313920,set_tempo,120,1,0,,,,,,254237,,,,,,,,
313923,note_on,600,0,12,,,,,,,,,11,,,,55,112
313923,note_on,75,0,5,,,,,,,,,4,,,,67,0
313927,note_on,75,0,8,,,,,,,,,7,,,,67,0
313927,note_on,0,0,8,,,,,,,,,7,,,,63,0
313928,note_on,600,0,13,,,,,,,,,12,,,,55,112
313932,note_on,600,0,14,,,,,,,,,13,,,,43,112
313934,note_on,600,0,15,,,,,,,,,14,,,,31,112
313950,note_on,30,0,11,,,,,,,,,10,,,,55,0
313953,note_on,30,0,12,,,,,,,,,11,,,,55,0
313958,note_on,30,0,13,,,,,,,,,12,,,,55,0
313962,note_on,30,0,14,,,,,,,,,13,,,,43,0
313964,note_on,30,0,15,,,,,,,,,14,,,,31,0
313980,note_on,30,0,11,,,,,,,,,10,,,,55,112
313983,note_on,30,0,12,,,,,,,,,11,,,,55,112
313988,note_on,30,0,13,,,,,,,,,12,,,,55,112
313992,note_on,30,0,14,,,,,,,,,13,,,,43,112
313994,note_on,30,0,15,,,,,,,,,14,,,,31,112
314010,note_on,30,0,11,,,,,,,,,10,,,,55,0
314013,note_on,30,0,12,,,,,,,,,11,,,,55,0
314018,note_on,30,0,13,,,,,,,,,12,,,,55,0
314022,note_on,30,0,14,,,,,,,,,13,,,,43,0
314024,note_on,30,0,15,,,,,,,,,14,,,,31,0
314040,note_on,30,0,11,,,,,,,,,10,,,,56,112
314040,set_tempo,120,1,0,,,,,,263158,,,,,,,,
314043,note_on,30,0,12,,,,,,,,,11,,,,56,112
314048,note_on,30,0,13,,,,,,,,,12,,,,56,112
314052,note_on,30,0,14,,,,,,,,,13,,,,44,112
314054,note_on,30,0,15,,,,,,,,,14,,,,32,112
314070,note_on,30,0,11,,,,,,,,,10,,,,56,0
314073,note_on,30,0,12,,,,,,,,,11,,,,56,0
314078,note_on,30,0,13,,,,,,,,,12,,,,56,0
314082,note_on,30,0,14,,,,,,,,,13,,,,44,0
314084,note_on,30,0,15,,,,,,,,,14,,,,32,0
314100,note_on,30,0,11,,,,,,,,,10,,,,55,112
314103,note_on,30,0,12,,,,,,,,,11,,,,55,112
314108,note_on,30,0,13,,,,,,,,,12,,,,55,112
314112,note_on,30,0,14,,,,,,,,,13,,,,43,112
314114,note_on,30,0,15,,,,,,,,,14,,,,31,112
314130,note_on,30,0,11,,,,,,,,,10,,,,55,0
314133,note_on,30,0,12,,,,,,,,,11,,,,55,0
314138,note_on,30,0,13,,,,,,,,,12,,,,55,0
314142,note_on,30,0,14,,,,,,,,,13,,,,43,0
314144,note_on,30,0,15,,,,,,,,,14,,,,31,0
314160,note_on,30,0,11,,,,,,,,,10,,,,56,112
314160,set_tempo,120,1,0,,,,,,288462,,,,,,,,
314163,note_on,30,0,12,,,,,,,,,11,,,,56,112
314168,note_on,30,0,13,,,,,,,,,12,,,,56,112
314172,note_on,30,0,14,,,,,,,,,13,,,,44,112
314174,note_on,30,0,15,,,,,,,,,14,,,,32,112
314190,note_on,30,0,11,,,,,,,,,10,,,,56,0
314193,note_on,30,0,12,,,,,,,,,11,,,,56,0
314198,note_on,30,0,13,,,,,,,,,12,,,,56,0
314202,note_on,30,0,14,,,,,,,,,13,,,,44,0
314204,note_on,30,0,15,,,,,,,,,14,,,,32,0
314220,note_on,30,0,11,,,,,,,,,10,,,,55,112
314223,note_on,30,0,12,,,,,,,,,11,,,,55,112
314228,note_on,30,0,13,,,,,,,,,12,,,,55,112
314232,note_on,30,0,14,,,,,,,,,13,,,,43,112
314234,note_on,30,0,15,,,,,,,,,14,,,,31,112
314250,note_on,30,0,11,,,,,,,,,10,,,,55,0
314253,note_on,30,0,12,,,,,,,,,11,,,,55,0
314258,note_on,30,0,13,,,,,,,,,12,,,,55,0
314262,note_on,30,0,14,,,,,,,,,13,,,,43,0
314264,note_on,30,0,15,,,,,,,,,14,,,,31,0
314280,note_on,30,0,11,,,,,,,,,10,,,,58,112
314280,set_tempo,120,1,0,,,,,,258621,,,,,,,,
314283,note_on,30,0,12,,,,,,,,,11,,,,58,112
314288,note_on,30,0,13,,,,,,,,,12,,,,58,112
314292,note_on,30,0,14,,,,,,,,,13,,,,46,112
314294,note_on,30,0,15,,,,,,,,,14,,,,34,112
314340,note_on,60,0,11,,,,,,,,,10,,,,58,0
314343,note_on,60,0,12,,,,,,,,,11,,,,58,0
314348,note_on,60,0,13,,,,,,,,,12,,,,58,0
314352,note_on,60,0,14,,,,,,,,,13,,,,46,0
314354,note_on,60,0,15,,,,,,,,,14,,,,34,0
314400,note_on,60,0,11,,,,,,,,,10,,,,58,112
314403,note_on,60,0,12,,,,,,,,,11,,,,58,112
314408,note_on,60,0,13,,,,,,,,,12,,,,58,112
314412,note_on,60,0,14,,,,,,,,,13,,,,46,112
314414,note_on,60,0,15,,,,,,,,,14,,,,34,112
314460,note_on,60,0,11,,,,,,,,,10,,,,58,0
314463,note_on,60,0,12,,,,,,,,,11,,,,58,0
314468,note_on,60,0,13,,,,,,,,,12,,,,58,0
314472,note_on,60,0,14,,,,,,,,,13,,,,46,0
314474,note_on,60,0,15,,,,,,,,,14,,,,34,0
314520,set_tempo,240,1,0,,,,,,288462,,,,,,,,
314520,control_change,60,0,11,,,,,,,,,10,11,102,,,
314520,note_on,0,0,11,,,,,,,,,10,,,,63,112
314523,control_change,60,0,12,,,,,,,,,11,11,102,,,
314523,note_on,0,0,12,,,,,,,,,11,,,,63,112
314527,control_change,0,0,8,,,,,,,,,7,11,102,,,
314527,note_on,0,0,8,,,,,,,,,7,,,,51,110
314527,note_on,600,0,8,,,,,,,,,7,,,,63,110
314527,control_change,7,0,11,,,,,,,,,10,11,99,,,
314528,note_on,0,0,13,,,,,,,,,12,,,,63,112
314528,control_change,60,0,13,,,,,,,,,12,11,102,,,
314530,control_change,7,0,12,,,,,,,,,11,11,99,,,
314532,control_change,0,0,14,,,,,,,,,13,11,102,,,
314532,note_on,60,0,14,,,,,,,,,13,,,,51,112
314533,control_change,0,0,9,,,,,,,,,8,11,102,,,
314533,note_on,5760,0,9,,,,,,,,,8,,,,51,110
314534,note_on,60,0,15,,,,,,,,,14,,,,39,112
314534,control_change,7,0,8,,,,,,,,,7,11,99,,,
314534,control_change,0,0,15,,,,,,,,,14,11,102,,,
314535,control_change,7,0,13,,,,,,,,,12,11,99,,,
314535,control_change,8,0,11,,,,,,,,,10,11,96,,,
314538,control_change,8,0,12,,,,,,,,,11,11,96,,,
314539,control_change,7,0,14,,,,,,,,,13,11,99,,,
314540,control_change,7,0,9,,,,,,,,,8,11,99,,,
314541,control_change,7,0,15,,,,,,,,,14,11,99,,,
314542,control_change,8,0,8,,,,,,,,,7,11,96,,,
314542,control_change,7,0,11,,,,,,,,,10,11,93,,,
314543,control_change,8,0,13,,,,,,,,,12,11,96,,,
314545,control_change,7,0,12,,,,,,,,,11,11,93,,,
314547,control_change,8,0,14,,,,,,,,,13,11,96,,,
314548,control_change,8,0,9,,,,,,,,,8,11,96,,,
314549,control_change,7,0,8,,,,,,,,,7,11,93,,,
314549,control_change,8,0,15,,,,,,,,,14,11,96,,,
314550,control_change,8,0,11,,,,,,,,,10,11,90,,,
314550,control_change,7,0,13,,,,,,,,,12,11,93,,,
314553,control_change,8,0,12,,,,,,,,,11,11,90,,,
314554,control_change,7,0,14,,,,,,,,,13,11,93,,,
314555,control_change,7,0,9,,,,,,,,,8,11,93,,,
314556,control_change,7,0,15,,,,,,,,,14,11,93,,,
314557,control_change,7,0,11,,,,,,,,,10,11,87,,,
314557,control_change,8,0,8,,,,,,,,,7,11,90,,,
314558,control_change,8,0,13,,,,,,,,,12,11,90,,,
314560,control_change,7,0,12,,,,,,,,,11,11,87,,,
314562,control_change,8,0,14,,,,,,,,,13,11,90,,,
314563,control_change,8,0,9,,,,,,,,,8,11,90,,,
314564,control_change,7,0,8,,,,,,,,,7,11,87,,,
314564,control_change,8,0,15,,,,,,,,,14,11,90,,,
314565,control_change,7,0,13,,,,,,,,,12,11,87,,,
314569,control_change,7,0,14,,,,,,,,,13,11,87,,,
314570,control_change,7,0,9,,,,,,,,,8,11,87,,,
314571,control_change,7,0,15,,,,,,,,,14,11,87,,,
314572,control_change,8,0,8,,,,,,,,,7,11,84,,,
314578,control_change,8,0,9,,,,,,,,,8,11,84,,,
314580,note_on,23,0,11,,,,,,,,,10,,,,63,0
314583,note_on,23,0,12,,,,,,,,,11,,,,63,0
314588,note_on,23,0,13,,,,,,,,,12,,,,63,0
314592,note_on,23,0,14,,,,,,,,,13,,,,51,0
314594,note_on,23,0,15,,,,,,,,,14,,,,39,0
314640,set_tempo,120,1,0,,,,,,254237,,,,,,,,
314643,note_on,720,0,5,,,,,,,,,4,,,,67,100
314644,note_on,780,0,2,,,,,,,,,1,,,,70,100
314644,note_on,0,0,2,,,,,,,,,1,,,,73,100
314645,note_on,780,0,3,,,,,,,,,2,,,,70,101
314645,note_on,0,0,3,,,,,,,,,2,,,,73,101
314647,note_on,75,0,8,,,,,,,,,7,,,,51,0
314647,note_on,0,0,8,,,,,,,,,7,,,,63,0
314649,note_on,780,0,4,,,,,,,,,3,,,,63,100
314653,note_on,75,0,9,,,,,,,,,8,,,,51,0
314674,note_on,30,0,2,,,,,,,,,1,,,,73,0
314674,note_on,0,0,2,,,,,,,,,1,,,,70,0
314675,note_on,0,0,3,,,,,,,,,2,,,,70,0
314675,note_on,30,0,3,,,,,,,,,2,,,,73,0
314704,note_on,30,0,2,,,,,,,,,1,,,,70,100
314704,note_on,0,0,2,,,,,,,,,1,,,,73,100
314705,note_on,30,0,3,,,,,,,,,2,,,,73,101
314705,note_on,0,0,3,,,,,,,,,2,,,,70,101
314734,note_on,30,0,2,,,,,,,,,1,,,,73,0
314734,note_on,0,0,2,,,,,,,,,1,,,,70,0
314735,note_on,30,0,3,,,,,,,,,2,,,,70,0
314735,note_on,0,0,3,,,,,,,,,2,,,,73,0
314760,set_tempo,120,1,0,,,,,,263158,,,,,,,,
314764,note_on,0,0,2,,,,,,,,,1,,,,75,100
314764,note_on,30,0,2,,,,,,,,,1,,,,72,100
314765,note_on,0,0,3,,,,,,,,,2,,,,72,101
314765,note_on,30,0,3,,,,,,,,,2,,,,75,101
314824,note_on,0,0,2,,,,,,,,,1,,,,73,100
314824,note_on,0,0,2,,,,,,,,,1,,,,72,0
314824,note_on,60,0,2,,,,,,,,,1,,,,75,0
314824,note_on,0,0,2,,,,,,,,,1,,,,70,100
314825,note_on,0,0,3,,,,,,,,,2,,,,73,101
314825,note_on,0,0,3,,,,,,,,,2,,,,75,0
314825,note_on,0,0,3,,,,,,,,,2,,,,70,101
314825,note_on,60,0,3,,,,,,,,,2,,,,72,0
314880,set_tempo,120,1,0,,,,,,288462,,,,,,,,
314884,note_on,60,0,2,,,,,,,,,1,,,,70,0
314884,note_on,0,0,2,,,,,,,,,1,,,,73,0
314884,note_on,0,0,2,,,,,,,,,1,,,,75,100
314884,note_on,0,0,2,,,,,,,,,1,,,,72,100
314885,note_on,0,0,3,,,,,,,,,2,,,,72,101
314885,note_on,0,0,3,,,,,,,,,2,,,,75,101
314885,note_on,0,0,3,,,,,,,,,2,,,,73,0
314885,note_on,60,0,3,,,,,,,,,2,,,,70,0
314944,note_on,60,0,2,,,,,,,,,1,,,,72,0
314944,note_on,0,0,2,,,,,,,,,1,,,,75,0
314944,note_on,0,0,2,,,,,,,,,1,,,,70,100
314944,note_on,0,0,2,,,,,,,,,1,,,,73,100
314945,note_on,0,0,3,,,,,,,,,2,,,,73,101
314945,note_on,0,0,3,,,,,,,,,2,,,,70,101
314945,note_on,60,0,3,,,,,,,,,2,,,,72,0
314945,note_on,0,0,3,,,,,,,,,2,,,,75,0
315000,set_tempo,120,1,0,,,,,,258621,,,,,,,,
315003,note_on,360,0,5,,,,,,,,,4,,,,67,0
315003,note_on,0,0,5,,,,,,,,,4,,,,67,100
315004,note_on,0,0,2,,,,,,,,,1,,,,70,0
315004,note_on,60,0,2,,,,,,,,,1,,,,73,0
315004,note_on,0,0,2,,,,,,,,,1,,,,73,100
315004,note_on,0,0,2,,,,,,,,,1,,,,77,100
315005,note_on,0,0,3,,,,,,,,,2,,,,70,0
315005,note_on,0,0,3,,,,,,,,,2,,,,77,101
315005,note_on,0,0,3,,,,,,,,,2,,,,73,101
315005,note_on,60,0,3,,,,,,,,,2,,,,73,0
315009,note_on,360,0,4,,,,,,,,,3,,,,63,0
315009,note_on,0,0,4,,,,,,,,,3,,,,63,100
315064,note_on,0,0,2,,,,,,,,,1,,,,73,0
315064,note_on,60,0,2,,,,,,,,,1,,,,77,0
315065,note_on,60,0,3,,,,,,,,,2,,,,73,0
315065,note_on,0,0,3,,,,,,,,,2,,,,77,0
315069,note_on,60,0,4,,,,,,,,,3,,,,63,0
315123,note_on,120,0,5,,,,,,,,,4,,,,67,0
315123,note_on,0,0,5,,,,,,,,,4,,,,67,100
315124,note_on,60,0,2,,,,,,,,,1,,,,73,100
315124,note_on,0,0,2,,,,,,,,,1,,,,73,100
315124,note_on,0,0,2,,,,,,,,,1,,,,77,100
315125,note_on,0,0,3,,,,,,,,,2,,,,73,101
315125,note_on,60,0,3,,,,,,,,,2,,,,77,101
315129,note_on,60,0,4,,,,,,,,,3,,,,63,100
315184,note_on,0,0,2,,,,,,,,,1,,,,77,0
315184,note_on,60,0,2,,,,,,,,,1,,,,73,0
315184,note_on,0,0,2,,,,,,,,,1,,,,73,0
315185,note_on,0,0,3,,,,,,,,,2,,,,77,0
315185,note_on,60,0,3,,,,,,,,,2,,,,73,0
315189,note_on,60,0,4,,,,,,,,,3,,,,63,0
315240,set_tempo,240,1,0,,,,,,288462,,,,,,,,
315241,note_on,1380,0,1,,,,,,,,,0,,,,82,101
315241,note_on,0,0,1,,,,,,,,,0,,,,73,101
315241,control_change,0,0,1,,,,,,,,,0,11,86,,,
315243,control_change,0,0,5,,,,,,,,,4,11,102,,,
315243,note_on,120,0,5,,,,,,,,,4,,,,67,0
315243,note_on,0,0,5,,,,,,,,,4,,,,67,100
315244,note_on,0,0,2,,,,,,,,,1,,,,82,100
315244,control_change,60,0,2,,,,,,,,,1,11,86,,,
315245,note_on,0,0,3,,,,,,,,,2,,,,73,101
315245,control_change,0,0,3,,,,,,,,,2,11,86,,,
315245,note_on,60,0,3,,,,,,,,,2,,,,82,101
315247,control_change,0,0,8,,,,,,,,,7,11,102,,,
315247,note_on,0,0,8,,,,,,,,,7,,,,67,110
315247,note_on,600,0,8,,,,,,,,,7,,,,63,110
315248,control_change,7,0,1,,,,,,,,,0,11,83,,,
315249,control_change,0,0,4,,,,,,,,,3,11,97,,,
315249,note_on,60,0,4,,,,,,,,,3,,,,63,100
315250,control_change,7,0,5,,,,,,,,,4,11,99,,,
315251,control_change,7,0,2,,,,,,,,,1,11,83,,,
315252,control_change,7,0,3,,,,,,,,,2,11,83,,,
315254,control_change,7,0,8,,,,,,,,,7,11,99,,,
315256,control_change,7,0,4,,,,,,,,,3,11,94,,,
315258,control_change,8,0,5,,,,,,,,,4,11,96,,,
315262,control_change,8,0,8,,,,,,,,,7,11,96,,,
315263,control_change,15,0,1,,,,,,,,,0,11,79,,,
315264,control_change,8,0,4,,,,,,,,,3,11,91,,,
315265,control_change,7,0,5,,,,,,,,,4,11,93,,,
315266,control_change,15,0,2,,,,,,,,,1,11,79,,,
315267,control_change,15,0,3,,,,,,,,,2,11,79,,,
315269,control_change,7,0,8,,,,,,,,,7,11,93,,,
315271,control_change,8,0,1,,,,,,,,,0,11,76,,,
315271,control_change,7,0,4,,,,,,,,,3,11,88,,,
315273,control_change,8,0,5,,,,,,,,,4,11,90,,,
315274,control_change,8,0,2,,,,,,,,,1,11,76,,,
315275,control_change,8,0,3,,,,,,,,,2,11,76,,,
315277,control_change,8,0,8,,,,,,,,,7,11,90,,,
315279,control_change,8,0,4,,,,,,,,,3,11,85,,,
315280,control_change,7,0,5,,,,,,,,,4,11,87,,,
315284,control_change,7,0,8,,,,,,,,,7,11,87,,,
315286,control_change,15,0,1,,,,,,,,,0,11,72,,,
315286,control_change,7,0,4,,,,,,,,,3,11,82,,,
315288,control_change,8,0,5,,,,,,,,,4,11,84,,,
315289,control_change,15,0,2,,,,,,,,,1,11,72,,,
315290,control_change,15,0,3,,,,,,,,,2,11,72,,,
315292,control_change,8,0,8,,,,,,,,,7,11,84,,,
315294,control_change,8,0,4,,,,,,,,,3,11,79,,,
315301,note_on,15,0,1,,,,,,,,,0,,,,73,0
315301,note_on,0,0,1,,,,,,,,,0,,,,82,0
315304,note_on,15,0,2,,,,,,,,,1,,,,82,0
315305,note_on,15,0,3,,,,,,,,,2,,,,73,0
315305,note_on,0,0,3,,,,,,,,,2,,,,82,0
315309,note_on,15,0,4,,,,,,,,,3,,,,63,0
315360,set_tempo,120,1,0,,,,,,254237,,,,,,,,
315360,note_on,780,0,11,,,,,,,,,10,,,,55,112
315363,note_on,780,0,12,,,,,,,,,11,,,,55,112
315363,note_on,75,0,5,,,,,,,,,4,,,,67,0
315367,note_on,0,0,8,,,,,,,,,7,,,,63,0
315367,note_on,75,0,8,,,,,,,,,7,,,,67,0
315368,note_on,780,0,13,,,,,,,,,12,,,,55,112
315372,note_on,780,0,14,,,,,,,,,13,,,,43,112
315374,note_on,780,0,15,,,,,,,,,14,,,,31,112
315390,note_on,30,0,11,,,,,,,,,10,,,,55,0
315393,note_on,30,0,12,,,,,,,,,11,,,,55,0
315398,note_on,30,0,13,,,,,,,,,12,,,,55,0
315402,note_on,30,0,14,,,,,,,,,13,,,,43,0
315404,note_on,30,0,15,,,,,,,,,14,,,,31,0
315420,note_on,30,0,11,,,,,,,,,10,,,,55,112
315423,note_on,30,0,12,,,,,,,,,11,,,,55,112
315428,note_on,30,0,13,,,,,,,,,12,,,,55,112
315432,note_on,30,0,14,,,,,,,,,13,,,,43,112
315434,note_on,30,0,15,,,,,,,,,14,,,,31,112
315450,note_on,30,0,11,,,,,,,,,10,,,,55,0
315453,note_on,30,0,12,,,,,,,,,11,,,,55,0
315458,note_on,30,0,13,,,,,,,,,12,,,,55,0
315462,note_on,30,0,14,,,,,,,,,13,,,,43,0
315464,note_on,30,0,15,,,,,,,,,14,,,,31,0
315480,set_tempo,120,1,0,,,,,,263158,,,,,,,,
315480,note_on,30,0,11,,,,,,,,,10,,,,56,112
315483,note_on,30,0,12,,,,,,,,,11,,,,56,112
315488,note_on,30,0,13,,,,,,,,,12,,,,56,112
315492,note_on,30,0,14,,,,,,,,,13,,,,44,112
315494,note_on,30,0,15,,,,,,,,,14,,,,32,112
315510,note_on,30,0,11,,,,,,,,,10,,,,56,0
315513,note_on,30,0,12,,,,,,,,,11,,,,56,0
315518,note_on,30,0,13,,,,,,,,,12,,,,56,0
315522,note_on,30,0,14,,,,,,,,,13,,,,44,0
315524,note_on,30,0,15,,,,,,,,,14,,,,32,0
315540,note_on,30,0,11,,,,,,,,,10,,,,55,112
315543,note_on,30,0,12,,,,,,,,,11,,,,55,112
315548,note_on,30,0,13,,,,,,,,,12,,,,55,112
315552,note_on,30,0,14,,,,,,,,,13,,,,43,112
315554,note_on,30,0,15,,,,,,,,,14,,,,31,112
315570,note_on,30,0,11,,,,,,,,,10,,,,55,0
315573,note_on,30,0,12,,,,,,,,,11,,,,55,0
315578,note_on,30,0,13,,,,,,,,,12,,,,55,0
315582,note_on,30,0,14,,,,,,,,,13,,,,43,0
315584,note_on,30,0,15,,,,,,,,,14,,,,31,0
315600,set_tempo,120,1,0,,,,,,288462,,,,,,,,
315600,note_on,30,0,11,,,,,,,,,10,,,,56,112
315603,note_on,30,0,12,,,,,,,,,11,,,,56,112
315608,note_on,30,0,13,,,,,,,,,12,,,,56,112
315612,note_on,30,0,14,,,,,,,,,13,,,,44,112
315614,note_on,30,0,15,,,,,,,,,14,,,,32,112
315630,note_on,30,0,11,,,,,,,,,10,,,,56,0
315633,note_on,30,0,12,,,,,,,,,11,,,,56,0
315638,note_on,30,0,13,,,,,,,,,12,,,,56,0
315642,note_on,30,0,14,,,,,,,,,13,,,,44,0
315644,note_on,30,0,15,,,,,,,,,14,,,,32,0
315660,note_on,30,0,11,,,,,,,,,10,,,,55,112
315663,note_on,30,0,12,,,,,,,,,11,,,,55,112
315668,note_on,30,0,13,,,,,,,,,12,,,,55,112
315672,note_on,30,0,14,,,,,,,,,13,,,,43,112
315674,note_on,30,0,15,,,,,,,,,14,,,,31,112
315690,note_on,30,0,11,,,,,,,,,10,,,,55,0
315693,note_on,30,0,12,,,,,,,,,11,,,,55,0
315698,note_on,30,0,13,,,,,,,,,12,,,,55,0
315702,note_on,30,0,14,,,,,,,,,13,,,,43,0
315704,note_on,30,0,15,,,,,,,,,14,,,,31,0
315720,note_on,30,0,11,,,,,,,,,10,,,,58,112
315720,set_tempo,120,1,0,,,,,,258621,,,,,,,,
315723,note_on,30,0,12,,,,,,,,,11,,,,58,112
315728,note_on,30,0,13,,,,,,,,,12,,,,58,112
315732,note_on,30,0,14,,,,,,,,,13,,,,46,112
315734,note_on,30,0,15,,,,,,,,,14,,,,34,112
315780,note_on,60,0,11,,,,,,,,,10,,,,58,0
315783,note_on,60,0,12,,,,,,,,,11,,,,58,0
315788,note_on,60,0,13,,,,,,,,,12,,,,58,0
315792,note_on,60,0,14,,,,,,,,,13,,,,46,0
315794,note_on,60,0,15,,,,,,,,,14,,,,34,0
315840,note_on,60,0,11,,,,,,,,,10,,,,58,112
315843,note_on,60,0,12,,,,,,,,,11,,,,58,112
315848,note_on,60,0,13,,,,,,,,,12,,,,58,112
315852,note_on,60,0,14,,,,,,,,,13,,,,46,112
315854,note_on,60,0,15,,,,,,,,,14,,,,34,112
315900,note_on,60,0,11,,,,,,,,,10,,,,58,0
315903,note_on,60,0,12,,,,,,,,,11,,,,58,0
315908,note_on,60,0,13,,,,,,,,,12,,,,58,0
315912,note_on,60,0,14,,,,,,,,,13,,,,46,0
315914,note_on,60,0,15,,,,,,,,,14,,,,34,0
315960,control_change,60,0,11,,,,,,,,,10,11,102,,,
315960,set_tempo,240,1,0,,,,,,305344,,,,,,,,
315960,note_on,0,0,11,,,,,,,,,10,,,,63,112
315963,note_on,0,0,12,,,,,,,,,11,,,,63,112
315963,control_change,60,0,12,,,,,,,,,11,11,102,,,
315967,note_on,600,0,8,,,,,,,,,7,,,,51,110
315967,control_change,0,0,8,,,,,,,,,7,11,102,,,
315967,note_on,0,0,8,,,,,,,,,7,,,,63,110
315967,control_change,7,0,11,,,,,,,,,10,11,99,,,
315968,control_change,60,0,13,,,,,,,,,12,11,102,,,
315968,note_on,0,0,13,,,,,,,,,12,,,,63,112
315970,control_change,7,0,12,,,,,,,,,11,11,99,,,
315972,note_on,60,0,14,,,,,,,,,13,,,,51,112
315972,control_change,0,0,14,,,,,,,,,13,11,102,,,
315973,note_on,0,0,9,,,,,,,,,8,,,,51,110
315973,control_change,1320,0,9,,,,,,,,,8,11,102,,,
315974,control_change,7,0,8,,,,,,,,,7,11,99,,,
315974,control_change,0,0,15,,,,,,,,,14,11,102,,,
315974,note_on,60,0,15,,,,,,,,,14,,,,39,112
315975,control_change,7,0,13,,,,,,,,,12,11,99,,,
315975,control_change,8,0,11,,,,,,,,,10,11,96,,,
315978,control_change,8,0,12,,,,,,,,,11,11,96,,,
315979,control_change,7,0,14,,,,,,,,,13,11,99,,,
315980,control_change,7,0,9,,,,,,,,,8,11,99,,,
315981,control_change,7,0,15,,,,,,,,,14,11,99,,,
315982,control_change,7,0,11,,,,,,,,,10,11,93,,,
315982,control_change,8,0,8,,,,,,,,,7,11,96,,,
315983,control_change,8,0,13,,,,,,,,,12,11,96,,,
315985,control_change,7,0,12,,,,,,,,,11,11,93,,,
315987,control_change,8,0,14,,,,,,,,,13,11,96,,,
315988,control_change,8,0,9,,,,,,,,,8,11,96,,,
315989,control_change,8,0,15,,,,,,,,,14,11,96,,,
315989,control_change,7,0,8,,,,,,,,,7,11,93,,,
315990,control_change,8,0,11,,,,,,,,,10,11,90,,,
315990,control_change,7,0,13,,,,,,,,,12,11,93,,,
315993,control_change,8,0,12,,,,,,,,,11,11,90,,,
315994,control_change,7,0,14,,,,,,,,,13,11,93,,,
315995,control_change,7,0,9,,,,,,,,,8,11,93,,,
315996,control_change,7,0,15,,,,,,,,,14,11,93,,,
315997,control_change,7,0,11,,,,,,,,,10,11,87,,,
315997,control_change,8,0,8,,,,,,,,,7,11,90,,,
315998,control_change,8,0,13,,,,,,,,,12,11,90,,,
316000,control_change,7,0,12,,,,,,,,,11,11,87,,,
316002,control_change,8,0,14,,,,,,,,,13,11,90,,,
316003,control_change,8,0,9,,,,,,,,,8,11,90,,,
316004,control_change,8,0,15,,,,,,,,,14,11,90,,,
316004,control_change,7,0,8,,,,,,,,,7,11,87,,,
316005,control_change,7,0,13,,,,,,,,,12,11,87,,,
316009,control_change,7,0,14,,,,,,,,,13,11,87,,,
316010,control_change,7,0,9,,,,,,,,,8,11,87,,,
316011,control_change,7,0,15,,,,,,,,,14,11,87,,,
316012,control_change,8,0,8,,,,,,,,,7,11,84,,,
316018,control_change,8,0,9,,,,,,,,,8,11,84,,,
316020,note_on,23,0,11,,,,,,,,,10,,,,63,0
316023,note_on,23,0,12,,,,,,,,,11,,,,63,0
316028,note_on,23,0,13,,,,,,,,,12,,,,63,0
316032,note_on,23,0,14,,,,,,,,,13,,,,51,0
316034,note_on,23,0,15,,,,,,,,,14,,,,39,0
316080,set_tempo,120,1,0,,,,,,258621,,,,,,,,
316081,note_on,0,0,1,,,,,,,,,0,,,,73,101
316081,control_change,780,0,1,,,,,,,,,0,11,42,,,
316081,note_on,0,0,1,,,,,,,,,0,,,,77,101
316083,control_change,720,0,5,,,,,,,,,4,11,47,,,
316083,note_on,0,0,5,,,,,,,,,4,,,,67,100
316084,control_change,780,0,2,,,,,,,,,1,11,42,,,
316084,note_on,0,0,2,,,,,,,,,1,,,,73,100
316087,note_on,75,0,8,,,,,,,,,7,,,,63,0
316087,note_on,0,0,8,,,,,,,,,7,,,,51,0
316089,control_change,780,0,4,,,,,,,,,3,11,42,,,
316089,note_on,0,0,4,,,,,,,,,3,,,,67,100
316093,note_on,75,0,9,,,,,,,,,8,,,,51,0
316141,note_on,0,0,1,,,,,,,,,0,,,,77,0
316141,note_on,60,0,1,,,,,,,,,0,,,,73,0
316144,note_on,60,0,2,,,,,,,,,1,,,,73,0
316169,note_on,80,0,4,,,,,,,,,3,,,,67,0
316173,note_on,90,0,5,,,,,,,,,4,,,,67,0
316201,note_on,0,0,1,,,,,,,,,0,,,,77,101
316201,control_change,60,0,1,,,,,,,,,0,11,42,,,
316201,note_on,0,0,1,,,,,,,,,0,,,,73,101
316203,note_on,30,0,5,,,,,,,,,4,,,,67,100
316204,note_on,60,0,2,,,,,,,,,1,,,,73,100
316204,control_change,0,0,2,,,,,,,,,1,11,42,,,
316205,control_change,900,0,3,,,,,,,,,2,11,42,,,
316209,control_change,0,0,4,,,,,,,,,3,11,42,,,
316209,note_on,40,0,4,,,,,,,,,3,,,,67,100
316261,note_on,60,0,1,,,,,,,,,0,,,,73,0
316261,note_on,0,0,1,,,,,,,,,0,,,,77,0
316264,note_on,60,0,2,,,,,,,,,1,,,,73,0
316289,note_on,80,0,4,,,,,,,,,3,,,,67,0
316293,note_on,90,0,5,,,,,,,,,4,,,,67,0
316297,control_change,36,0,1,,,,,,,,,0,11,41,,,
316300,control_change,36,0,2,,,,,,,,,1,11,41,,,
316301,control_change,96,0,3,,,,,,,,,2,11,41,,,
316305,control_change,16,0,4,,,,,,,,,3,11,41,,,
316320,set_tempo,240,1,0,,,,,,288462,,,,,,,,
316321,note_on,24,0,1,,,,,,,,,0,,,,73,116
316321,note_on,0,0,1,,,,,,,,,0,,,,82,116
316323,note_on,30,0,5,,,,,,,,,4,,,,67,115
316324,note_on,24,0,2,,,,,,,,,1,,,,77,115
316329,note_on,24,0,4,,,,,,,,,3,,,,67,115
316381,note_on,60,0,1,,,,,,,,,0,,,,82,0
316381,note_on,0,0,1,,,,,,,,,0,,,,73,0
316384,note_on,60,0,2,,,,,,,,,1,,,,77,0
316393,control_change,12,0,1,,,,,,,,,0,11,40,,,
316396,control_change,12,0,2,,,,,,,,,1,11,40,,,
316397,control_change,96,0,3,,,,,,,,,2,11,40,,,
316401,control_change,72,0,4,,,,,,,,,3,11,40,,,
316409,note_on,8,0,4,,,,,,,,,3,,,,67,0
316413,note_on,90,0,5,,,,,,,,,4,,,,67,0
316440,set_tempo,120,1,0,,,,,,258621,,,,,,,,
316441,note_on,48,0,1,,,,,,,,,0,,,,73,101
316441,note_on,0,0,1,,,,,,,,,0,,,,77,101
316444,note_on,48,0,2,,,,,,,,,1,,,,73,100
316449,note_on,40,0,4,,,,,,,,,3,,,,67,100
316489,control_change,48,0,1,,,,,,,,,0,11,39,,,
316492,control_change,48,0,2,,,,,,,,,1,11,39,,,
316493,control_change,96,0,3,,,,,,,,,2,11,39,,,
316497,control_change,48,0,4,,,,,,,,,3,11,39,,,
316501,note_on,12,0,1,,,,,,,,,0,,,,77,0
316501,note_on,0,0,1,,,,,,,,,0,,,,73,0
316504,note_on,12,0,2,,,,,,,,,1,,,,73,0
316529,note_on,32,0,4,,,,,,,,,3,,,,67,0
316561,note_on,0,0,1,,,,,,,,,0,,,,77,101
316561,note_on,60,0,1,,,,,,,,,0,,,,73,101
316564,note_on,60,0,2,,,,,,,,,1,,,,73,100
316569,note_on,40,0,4,,,,,,,,,3,,,,67,100
316585,control_change,24,0,1,,,,,,,,,0,11,38,,,
316588,control_change,24,0,2,,,,,,,,,1,11,38,,,
316589,control_change,96,0,3,,,,,,,,,2,11,38,,,
316593,control_change,24,0,4,,,,,,,,,3,11,38,,,
316621,note_on,36,0,1,,,,,,,,,0,,,,77,0
316621,note_on,0,0,1,,,,,,,,,0,,,,73,0
316624,note_on,36,0,2,,,,,,,,,1,,,,73,0
316649,note_on,56,0,4,,,,,,,,,3,,,,67,0
316680,set_tempo,240,1,0,,,,,,288462,,,,,,,,
316681,note_on,0,0,1,,,,,,,,,0,,,,73,116
316681,note_on,0,0,1,,,,,,,,,0,,,,82,116
316681,control_change,60,0,1,,,,,,,,,0,11,37,,,
316684,control_change,0,0,2,,,,,,,,,1,11,37,,,
316684,note_on,60,0,2,,,,,,,,,1,,,,76,115
316685,control_change,96,0,3,,,,,,,,,2,11,37,,,
316689,control_change,40,0,4,,,,,,,,,3,11,37,,,
316689,note_on,0,0,4,,,,,,,,,3,,,,67,115
316741,note_on,60,0,1,,,,,,,,,0,,,,73,0
316741,note_on,0,0,1,,,,,,,,,0,,,,82,0
316744,note_on,60,0,2,,,,,,,,,1,,,,76,0
316769,note_on,80,0,4,,,,,,,,,3,,,,67,0
316777,control_change,36,0,1,,,,,,,,,0,11,36,,,
316780,control_change,36,0,2,,,,,,,,,1,11,36,,,
316781,control_change,96,0,3,,,,,,,,,2,11,36,,,
316785,control_change,16,0,4,,,,,,,,,3,11,36,,,
316800,set_tempo,120,1,0,,,,,,258621,,,,,,,,
316801,note_on,0,0,1,,,,,,,,,0,,,,73,101
316801,note_on,24,0,1,,,,,,,,,0,,,,77,101
316804,note_on,24,0,2,,,,,,,,,1,,,,73,100
316809,note_on,24,0,4,,,,,,,,,3,,,,67,100
316861,note_on,0,0,1,,,,,,,,,0,,,,77,0
316861,note_on,60,0,1,,,,,,,,,0,,,,73,0
316864,note_on,60,0,2,,,,,,,,,1,,,,73,0
316873,control_change,12,0,1,,,,,,,,,0,11,35,,,
316876,control_change,12,0,2,,,,,,,,,1,11,35,,,
316877,control_change,96,0,3,,,,,,,,,2,11,35,,,
316881,control_change,72,0,4,,,,,,,,,3,11,35,,,
316889,note_on,8,0,4,,,,,,,,,3,,,,67,0
316921,note_on,48,0,1,,,,,,,,,0,,,,77,101
316921,note_on,0,0,1,,,,,,,,,0,,,,73,101
316924,note_on,48,0,2,,,,,,,,,1,,,,73,100
316929,note_on,40,0,4,,,,,,,,,3,,,,67,100
316969,control_change,48,0,1,,,,,,,,,0,11,34,,,
316972,control_change,48,0,2,,,,,,,,,1,11,34,,,
316973,control_change,96,0,3,,,,,,,,,2,11,34,,,
316977,control_change,48,0,4,,,,,,,,,3,11,34,,,
316981,note_on,12,0,1,,,,,,,,,0,,,,73,0
316981,note_on,0,0,1,,,,,,,,,0,,,,77,0
316984,note_on,12,0,2,,,,,,,,,1,,,,73,0
317009,note_on,32,0,4,,,,,,,,,3,,,,67,0
317040,set_tempo,240,1,0,,,,,,304569,,,,,,,,
317041,note_on,60,0,1,,,,,,,,,0,,,,73,116
317041,note_on,0,0,1,,,,,,,,,0,,,,82,116
317044,note_on,60,0,2,,,,,,,,,1,,,,76,115
317049,note_on,40,0,4,,,,,,,,,3,,,,67,115
317065,control_change,24,0,1,,,,,,,,,0,11,33,,,
317068,control_change,24,0,2,,,,,,,,,1,11,33,,,
317069,control_change,96,0,3,,,,,,,,,2,11,33,,,
317073,control_change,24,0,4,,,,,,,,,3,11,33,,,
317101,note_on,36,0,1,,,,,,,,,0,,,,82,0
317101,note_on,0,0,1,,,,,,,,,0,,,,73,0
317104,note_on,36,0,2,,,,,,,,,1,,,,76,0
317129,note_on,56,0,4,,,,,,,,,3,,,,67,0
317160,set_tempo,120,1,0,,,,,,254237,,,,,,,,
317161,note_on,60,0,1,,,,,,,,,0,,,,82,101
317161,control_change,0,0,1,,,,,,,,,0,11,55,,,
317161,note_on,0,0,1,,,,,,,,,0,,,,73,101
317163,note_on,0,0,12,,,,,,,,,11,,,,64,97
317163,control_change,1140,0,12,,,,,,,,,11,11,41,,,
317164,control_change,60,0,2,,,,,,,,,1,11,32,,,
317165,note_on,96,0,3,,,,,,,,,2,,,,70,101
317165,control_change,0,0,3,,,,,,,,,2,11,32,,,
317167,program_change,1139,0,13,,,,,,,,48,12,,,,,
317168,control_change,1,0,13,,,,,,,,,12,11,41,,,
317168,note_on,0,0,13,,,,,,,,,12,,,,54,97
317169,note_on,40,0,4,,,,,,,,,3,,,,66,100
317169,control_change,0,0,4,,,,,,,,,3,11,32,,,
317169,note_on,0,0,4,,,,,,,,,3,,,,64,100
317172,control_change,1140,0,14,,,,,,,,,13,11,41,,,
317172,note_on,0,0,14,,,,,,,,,13,,,,54,112
317174,control_change,1140,0,15,,,,,,,,,14,11,41,,,
317174,note_on,0,0,15,,,,,,,,,14,,,,42,112
317189,control_change,24,0,3,,,,,,,,,2,11,34,,,
317193,control_change,24,0,4,,,,,,,,,3,11,34,,,
317213,control_change,24,0,3,,,,,,,,,2,11,36,,,
317217,control_change,24,0,4,,,,,,,,,3,11,36,,,
317223,note_on,60,0,12,,,,,,,,,11,,,,64,0
317228,note_on,60,0,13,,,,,,,,,12,,,,54,0
317237,control_change,24,0,3,,,,,,,,,2,11,38,,,
317241,control_change,24,0,4,,,,,,,,,3,11,38,,,
317261,control_change,24,0,3,,,,,,,,,2,11,40,,,
317265,control_change,24,0,4,,,,,,,,,3,11,40,,,
317280,set_tempo,120,1,0,,,,,,263158,,,,,,,,
317283,note_on,60,0,12,,,,,,,,,11,,,,64,97
317285,control_change,24,0,3,,,,,,,,,2,11,42,,,
317288,note_on,60,0,13,,,,,,,,,12,,,,54,97
317289,control_change,24,0,4,,,,,,,,,3,11,42,,,
317292,note_on,120,0,14,,,,,,,,,13,,,,54,0
317294,note_on,120,0,15,,,,,,,,,14,,,,42,0
317343,note_on,60,0,12,,,,,,,,,11,,,,64,0
317348,note_on,60,0,13,,,,,,,,,12,,,,54,0
317400,set_tempo,120,1,0,,,,,,288462,,,,,,,,
317403,note_on,60,0,12,,,,,,,,,11,,,,66,109
317408,note_on,60,0,13,,,,,,,,,12,,,,64,109
317463,note_on,60,0,12,,,,,,,,,11,,,,66,0
317468,note_on,60,0,13,,,,,,,,,12,,,,64,0
317515,note_on,230,0,3,,,,,,,,,2,,,,70,0
317519,note_on,0,0,4,,,,,,,,,3,,,,66,0
317519,note_on,230,0,4,,,,,,,,,3,,,,64,0
317520,set_tempo,120,1,0,,,,,,254237,,,,,,,,
317521,note_on,0,0,1,,,,,,,,,0,,,,82,0
317521,note_on,360,0,1,,,,,,,,,0,,,,73,0
317521,note_on,0,0,1,,,,,,,,,0,,,,75,101
317521,note_on,0,0,1,,,,,,,,,0,,,,83,101
317523,note_on,60,0,12,,,,,,,,,11,,,,63,97
317525,note_on,10,0,3,,,,,,,,,2,,,,71,101
317528,note_on,60,0,13,,,,,,,,,12,,,,54,97
317529,note_on,0,0,4,,,,,,,,,3,,,,66,100
317529,note_on,10,0,4,,,,,,,,,3,,,,63,100
317532,note_on,240,0,14,,,,,,,,,13,,,,54,112
317534,note_on,240,0,15,,,,,,,,,14,,,,42,112
317583,note_on,60,0,12,,,,,,,,,11,,,,63,0
317588,note_on,60,0,13,,,,,,,,,12,,,,54,0
317640,set_tempo,120,1,0,,,,,,263158,,,,,,,,
317641,note_on,120,0,1,,,,,,,,,0,,,,83,0
317641,note_on,0,0,1,,,,,,,,,0,,,,82,101
317643,note_on,60,0,12,,,,,,,,,11,,,,63,97
317648,note_on,60,0,13,,,,,,,,,12,,,,54,97
317652,note_on,120,0,14,,,,,,,,,13,,,,54,0
317654,note_on,120,0,15,,,,,,,,,14,,,,42,0
317703,note_on,60,0,12,,,,,,,,,11,,,,63,0
317708,note_on,60,0,13,,,,,,,,,12,,,,54,0
317760,set_tempo,120,1,0,,,,,,288462,,,,,,,,
317761,note_on,120,0,1,,,,,,,,,0,,,,82,0
317761,note_on,0,0,1,,,,,,,,,0,,,,80,101
317763,note_on,60,0,12,,,,,,,,,11,,,,66,109
317768,note_on,60,0,13,,,,,,,,,12,,,,63,109
317823,note_on,60,0,12,,,,,,,,,11,,,,66,0
317828,note_on,60,0,13,,,,,,,,,12,,,,63,0
317875,note_on,350,0,3,,,,,,,,,2,,,,71,0
317879,note_on,0,0,4,,,,,,,,,3,,,,63,0
317879,note_on,350,0,4,,,,,,,,,3,,,,66,0
317880,set_tempo,120,1,0,,,,,,254237,,,,,,,,
317881,note_on,120,0,1,,,,,,,,,0,,,,80,0
317881,note_on,0,0,1,,,,,,,,,0,,,,75,0
317881,note_on,0,0,1,,,,,,,,,0,,,,73,101
317881,note_on,0,0,1,,,,,,,,,0,,,,78,101
317883,note_on,60,0,12,,,,,,,,,11,,,,64,97
317885,note_on,10,0,3,,,,,,,,,2,,,,70,101
317888,note_on,60,0,13,,,,,,,,,12,,,,54,97
317889,note_on,0,0,4,,,,,,,,,3,,,,66,100
317889,note_on,10,0,4,,,,,,,,,3,,,,64,100
317892,note_on,240,0,14,,,,,,,,,13,,,,54,112
317894,note_on,240,0,15,,,,,,,,,14,,,,42,112
317943,note_on,60,0,12,,,,,,,,,11,,,,64,0
317948,note_on,60,0,13,,,,,,,,,12,,,,54,0
318000,set_tempo,120,1,0,,,,,,263158,,,,,,,,
318001,note_on,120,0,1,,,,,,,,,0,,,,78,0
318001,note_on,0,0,1,,,,,,,,,0,,,,76,101
318003,note_on,60,0,12,,,,,,,,,11,,,,64,97
318008,note_on,60,0,13,,,,,,,,,12,,,,54,97
318012,note_on,120,0,14,,,,,,,,,13,,,,54,0
318014,note_on,120,0,15,,,,,,,,,14,,,,42,0
318063,note_on,60,0,12,,,,,,,,,11,,,,64,0
318068,note_on,60,0,13,,,,,,,,,12,,,,54,0
318120,set_tempo,120,1,0,,,,,,288462,,,,,,,,
318121,note_on,0,0,1,,,,,,,,,0,,,,73,101
318121,note_on,120,0,1,,,,,,,,,0,,,,76,0
318123,note_on,60,0,12,,,,,,,,,11,,,,66,109
318128,note_on,60,0,13,,,,,,,,,12,,,,64,109
318183,note_on,60,0,12,,,,,,,,,11,,,,66,0
318188,note_on,60,0,13,,,,,,,,,12,,,,64,0
318235,note_on,350,0,3,,,,,,,,,2,,,,70,0
318239,note_on,350,0,4,,,,,,,,,3,,,,66,0
318239,note_on,0,0,4,,,,,,,,,3,,,,64,0
318240,set_tempo,120,1,0,,,,,,254237,,,,,,,,
318241,note_on,0,0,1,,,,,,,,,0,,,,73,0
318241,note_on,0,0,1,,,,,,,,,0,,,,78,101
318241,note_on,120,0,1,,,,,,,,,0,,,,73,0
318241,note_on,0,0,1,,,,,,,,,0,,,,75,101
318243,note_on,60,0,12,,,,,,,,,11,,,,63,97
318245,note_on,10,0,3,,,,,,,,,2,,,,71,101
318248,note_on,60,0,13,,,,,,,,,12,,,,54,97
318249,note_on,10,0,4,,,,,,,,,3,,,,63,100
318249,note_on,0,0,4,,,,,,,,,3,,,,66,100
318252,note_on,240,0,14,,,,,,,,,13,,,,54,112
318254,note_on,240,0,15,,,,,,,,,14,,,,42,112
318303,note_on,60,0,12,,,,,,,,,11,,,,63,0
318308,note_on,60,0,13,,,,,,,,,12,,,,54,0
318360,set_tempo,120,1,0,,,,,,263158,,,,,,,,
318363,note_on,60,0,12,,,,,,,,,11,,,,63,97
318368,note_on,60,0,13,,,,,,,,,12,,,,54,97
318372,note_on,120,0,14,,,,,,,,,13,,,,54,0
318374,note_on,120,0,15,,,,,,,,,14,,,,42,0
318423,note_on,60,0,12,,,,,,,,,11,,,,63,0
318428,note_on,60,0,13,,,,,,,,,12,,,,54,0
318480,set_tempo,120,1,0,,,,,,288462,,,,,,,,
318481,note_on,240,0,1,,,,,,,,,0,,,,78,0
318481,note_on,0,0,1,,,,,,,,,0,,,,75,101
318483,note_on,60,0,12,,,,,,,,,11,,,,66,109
318488,note_on,60,0,13,,,,,,,,,12,,,,63,109
318543,note_on,60,0,12,,,,,,,,,11,,,,66,0
318548,note_on,60,0,13,,,,,,,,,12,,,,63,0
318595,note_on,350,0,3,,,,,,,,,2,,,,71,0
318599,note_on,350,0,4,,,,,,,,,3,,,,66,0
318599,note_on,0,0,4,,,,,,,,,3,,,,63,0
318600,set_tempo,120,1,0,,,,,,254237,,,,,,,,
318601,note_on,0,0,1,,,,,,,,,0,,,,82,101
318601,note_on,120,0,1,,,,,,,,,0,,,,75,0
318601,note_on,0,0,1,,,,,,,,,0,,,,75,0
318601,note_on,0,0,1,,,,,,,,,0,,,,73,101
318603,note_on,60,0,12,,,,,,,,,11,,,,64,97
318605,note_on,10,0,3,,,,,,,,,2,,,,70,101
318608,note_on,60,0,13,,,,,,,,,12,,,,54,97
318609,note_on,0,0,4,,,,,,,,,3,,,,66,100
318609,note_on,10,0,4,,,,,,,,,3,,,,64,100
318612,note_on,240,0,14,,,,,,,,,13,,,,54,112
318614,note_on,240,0,15,,,,,,,,,14,,,,42,112
318663,note_on,60,0,12,,,,,,,,,11,,,,64,0
318668,note_on,60,0,13,,,,,,,,,12,,,,54,0
318720,set_tempo,120,1,0,,,,,,263158,,,,,,,,
318723,note_on,60,0,12,,,,,,,,,11,,,,64,97
318728,note_on,60,0,13,,,,,,,,,12,,,,54,97
318732,note_on,120,0,14,,,,,,,,,13,,,,54,0
318734,note_on,120,0,15,,,,,,,,,14,,,,42,0
318783,note_on,60,0,12,,,,,,,,,11,,,,64,0
318788,note_on,60,0,13,,,,,,,,,12,,,,54,0
318840,set_tempo,120,1,0,,,,,,288462,,,,,,,,
318843,note_on,60,0,12,,,,,,,,,11,,,,66,109
318848,note_on,60,0,13,,,,,,,,,12,,,,64,109
318903,note_on,60,0,12,,,,,,,,,11,,,,66,0
318908,note_on,60,0,13,,,,,,,,,12,,,,64,0
318955,note_on,350,0,3,,,,,,,,,2,,,,70,0
318959,note_on,350,0,4,,,,,,,,,3,,,,66,0
318959,note_on,0,0,4,,,,,,,,,3,,,,64,0
318960,set_tempo,120,1,0,,,,,,254237,,,,,,,,
318961,note_on,0,0,1,,,,,,,,,0,,,,75,101
318961,note_on,0,0,1,,,,,,,,,0,,,,83,101
318961,note_on,0,0,1,,,,,,,,,0,,,,73,0
318961,note_on,360,0,1,,,,,,,,,0,,,,82,0
318963,note_on,60,0,12,,,,,,,,,11,,,,63,97
318965,note_on,10,0,3,,,,,,,,,2,,,,71,101
318968,note_on,60,0,13,,,,,,,,,12,,,,54,97
318969,note_on,0,0,4,,,,,,,,,3,,,,63,100
318969,note_on,10,0,4,,,,,,,,,3,,,,66,100
318972,note_on,240,0,14,,,,,,,,,13,,,,54,112
318974,note_on,240,0,15,,,,,,,,,14,,,,42,112
319023,note_on,60,0,12,,,,,,,,,11,,,,63,0
319028,note_on,60,0,13,,,,,,,,,12,,,,54,0
319080,set_tempo,120,1,0,,,,,,263158,,,,,,,,
319081,note_on,0,0,1,,,,,,,,,0,,,,82,101
319081,note_on,120,0,1,,,,,,,,,0,,,,83,0
319083,note_on,60,0,12,,,,,,,,,11,,,,63,97
319088,note_on,60,0,13,,,,,,,,,12,,,,54,97
319092,note_on,120,0,14,,,,,,,,,13,,,,54,0
319094,note_on,120,0,15,,,,,,,,,14,,,,42,0
319143,note_on,60,0,12,,,,,,,,,11,,,,63,0
319148,note_on,60,0,13,,,,,,,,,12,,,,54,0
319200,set_tempo,120,1,0,,,,,,288462,,,,,,,,
319201,note_on,120,0,1,,,,,,,,,0,,,,82,0
319201,note_on,0,0,1,,,,,,,,,0,,,,80,101
319203,note_on,60,0,12,,,,,,,,,11,,,,66,109
319208,note_on,60,0,13,,,,,,,,,12,,,,63,109
319263,note_on,60,0,12,,,,,,,,,11,,,,66,0
319268,note_on,60,0,13,,,,,,,,,12,,,,63,0
319315,note_on,350,0,3,,,,,,,,,2,,,,71,0
319319,note_on,350,0,4,,,,,,,,,3,,,,63,0
319319,note_on,0,0,4,,,,,,,,,3,,,,66,0
319320,set_tempo,120,1,0,,,,,,254237,,,,,,,,
319321,note_on,0,0,1,,,,,,,,,0,,,,73,101
319321,note_on,0,0,1,,,,,,,,,0,,,,75,0
319321,note_on,0,0,1,,,,,,,,,0,,,,78,101
319321,note_on,120,0,1,,,,,,,,,0,,,,80,0
319323,note_on,60,0,12,,,,,,,,,11,,,,64,97
319325,note_on,10,0,3,,,,,,,,,2,,,,70,101
319328,note_on,60,0,13,,,,,,,,,12,,,,54,97
319329,note_on,10,0,4,,,,,,,,,3,,,,64,100
319329,note_on,0,0,4,,,,,,,,,3,,,,66,100
319332,note_on,240,0,14,,,,,,,,,13,,,,54,112
319334,note_on,240,0,15,,,,,,,,,14,,,,42,112
319383,note_on,60,0,12,,,,,,,,,11,,,,64,0
319388,note_on,60,0,13,,,,,,,,,12,,,,54,0
319440,set_tempo,120,1,0,,,,,,263158,,,,,,,,
319441,note_on,0,0,1,,,,,,,,,0,,,,76,101
319441,note_on,120,0,1,,,,,,,,,0,,,,78,0
319443,note_on,60,0,12,,,,,,,,,11,,,,64,97
319448,note_on,60,0,13,,,,,,,,,12,,,,54,97
319452,note_on,120,0,14,,,,,,,,,13,,,,54,0
319454,note_on,120,0,15,,,,,,,,,14,,,,42,0
319503,note_on,60,0,12,,,,,,,,,11,,,,64,0
319508,note_on,60,0,13,,,,,,,,,12,,,,54,0
319560,set_tempo,120,1,0,,,,,,288462,,,,,,,,
319561,note_on,120,0,1,,,,,,,,,0,,,,76,0
319561,note_on,0,0,1,,,,,,,,,0,,,,73,101
319563,note_on,60,0,12,,,,,,,,,11,,,,66,109
319568,note_on,60,0,13,,,,,,,,,12,,,,64,109
319623,note_on,60,0,12,,,,,,,,,11,,,,66,0
319628,note_on,60,0,13,,,,,,,,,12,,,,64,0
319675,note_on,350,0,3,,,,,,,,,2,,,,70,0
319679,note_on,0,0,4,,,,,,,,,3,,,,64,0
319679,note_on,350,0,4,,,,,,,,,3,,,,66,0
319680,set_tempo,120,1,0,,,,,,254237,,,,,,,,
319681,note_on,0,0,1,,,,,,,,,0,,,,73,0
319681,note_on,0,0,1,,,,,,,,,0,,,,78,101
319681,note_on,120,0,1,,,,,,,,,0,,,,73,0
319681,note_on,0,0,1,,,,,,,,,0,,,,75,101
319683,note_on,60,0,12,,,,,,,,,11,,,,63,97
319685,note_on,10,0,3,,,,,,,,,2,,,,71,101
319688,note_on,60,0,13,,,,,,,,,12,,,,54,97
319689,note_on,10,0,4,,,,,,,,,3,,,,66,100
319689,note_on,0,0,4,,,,,,,,,3,,,,63,100
319692,note_on,240,0,14,,,,,,,,,13,,,,54,112
319694,note_on,240,0,15,,,,,,,,,14,,,,42,112
319743,note_on,60,0,12,,,,,,,,,11,,,,63,0
319748,note_on,60,0,13,,,,,,,,,12,,,,54,0
319800,set_tempo,120,1,0,,,,,,263158,,,,,,,,
319803,note_on,60,0,12,,,,,,,,,11,,,,63,97
319808,note_on,60,0,13,,,,,,,,,12,,,,54,97
319812,note_on,120,0,14,,,,,,,,,13,,,,54,0
319814,note_on,120,0,15,,,,,,,,,14,,,,42,0
319863,note_on,60,0,12,,,,,,,,,11,,,,63,0
319868,note_on,60,0,13,,,,,,,,,12,,,,54,0
319920,set_tempo,120,1,0,,,,,,315789,,,,,,,,
319921,note_on,240,0,1,,,,,,,,,0,,,,78,0
319921,note_on,0,0,1,,,,,,,,,0,,,,75,101
319923,note_on,60,0,12,,,,,,,,,11,,,,66,109
319928,note_on,60,0,13,,,,,,,,,12,,,,63,109
319983,note_on,60,0,12,,,,,,,,,11,,,,66,0
319988,note_on,60,0,13,,,,,,,,,12,,,,63,0
320035,note_on,350,0,3,,,,,,,,,2,,,,71,0
320039,note_on,0,0,4,,,,,,,,,3,,,,66,0
320039,note_on,350,0,4,,,,,,,,,3,,,,63,0
320040,control_change,0,0,11,,,,,,,,,10,11,41,,,
320040,note_on,4020,0,11,,,,,,,,,10,,,,83,112
320040,set_tempo,120,1,0,,,,,,254237,,,,,,,,
320041,note_on,0,0,1,,,,,,,,,0,,,,75,0
320041,note_on,120,0,1,,,,,,,,,0,,,,75,0
320043,control_change,3630,0,5,,,,,,,,,4,11,37,,,
320043,control_change,60,0,12,,,,,,,,,11,11,41,,,
320043,note_on,0,0,12,,,,,,,,,11,,,,62,112
320044,note_on,2880,0,2,,,,,,,,,1,,,,83,100
320044,control_change,0,0,2,,,,,,,,,1,11,37,,,
320044,control_change,11280,0,6,,,,,,,,,5,11,37,,,
320045,note_on,10,0,3,,,,,,,,,2,,,,74,101
320045,control_change,0,0,3,,,,,,,,,2,11,32,,,
320045,note_on,0,0,3,,,,,,,,,2,,,,71,101
320048,control_change,60,0,13,,,,,,,,,12,11,41,,,
320048,note_on,0,0,13,,,,,,,,,12,,,,59,112
320049,note_on,10,0,4,,,,,,,,,3,,,,55,100
320049,control_change,0,0,4,,,,,,,,,3,11,32,,,
320049,note_on,0,0,4,,,,,,,,,3,,,,53,100
320052,control_change,0,0,14,,,,,,,,,13,11,41,,,
320052,note_on,240,0,14,,,,,,,,,13,,,,53,112
320054,control_change,0,0,15,,,,,,,,,14,11,41,,,
320054,note_on,240,0,15,,,,,,,,,14,,,,41,112
320067,control_change,27,0,11,,,,,,,,,10,11,42,,,
320080,control_change,36,0,2,,,,,,,,,1,11,38,,,
320087,control_change,44,0,12,,,,,,,,,11,11,42,,,
320087,control_change,42,0,3,,,,,,,,,2,11,33,,,
320087,control_change,44,0,5,,,,,,,,,4,11,38,,,
320088,control_change,44,0,6,,,,,,,,,5,11,38,,,
320091,control_change,42,0,4,,,,,,,,,3,11,33,,,
320092,control_change,44,0,13,,,,,,,,,12,11,42,,,
320095,control_change,28,0,11,,,,,,,,,10,11,42,,,
320096,control_change,44,0,14,,,,,,,,,13,11,42,,,
320098,control_change,44,0,15,,,,,,,,,14,11,42,,,
320103,note_on,16,0,12,,,,,,,,,11,,,,62,0
320108,note_on,16,0,13,,,,,,,,,12,,,,59,0
320116,control_change,36,0,2,,,,,,,,,1,11,39,,,
320123,control_change,28,0,11,,,,,,,,,10,11,43,,,
320129,control_change,42,0,3,,,,,,,,,2,11,34,,,
320131,control_change,44,0,5,,,,,,,,,4,11,39,,,
320131,control_change,28,0,12,,,,,,,,,11,11,42,,,
320132,control_change,44,0,6,,,,,,,,,5,11,39,,,
320133,control_change,42,0,4,,,,,,,,,3,11,34,,,
320136,control_change,28,0,13,,,,,,,,,12,11,42,,,
320140,control_change,44,0,14,,,,,,,,,13,11,42,,,
320142,control_change,44,0,15,,,,,,,,,14,11,42,,,
320150,control_change,27,0,11,,,,,,,,,10,11,44,,,
320152,control_change,36,0,2,,,,,,,,,1,11,40,,,
320160,set_tempo,120,1,0,,,,,,263158,,,,,,,,
320163,note_on,32,0,12,,,,,,,,,11,,,,62,112
320168,note_on,32,0,13,,,,,,,,,12,,,,59,112
320169,note_on,0,0,4,,,,,,,,,3,,,,53,100
320169,note_on,36,0,4,,,,,,,,,3,,,,53,0
320169,note_on,0,0,4,,,,,,,,,3,,,,55,0
320169,note_on,0,0,4,,,,,,,,,3,,,,55,100
320172,note_on,32,0,14,,,,,,,,,13,,,,53,0
320172,control_change,43,0,3,,,,,,,,,2,11,35,,,
320174,note_on,32,0,15,,,,,,,,,14,,,,41,0
320175,control_change,44,0,5,,,,,,,,,4,11,40,,,
320175,control_change,12,0,12,,,,,,,,,11,11,43,,,
320176,control_change,7,0,4,,,,,,,,,3,11,35,,,
320176,control_change,44,0,6,,,,,,,,,5,11,40,,,
320178,control_change,28,0,11,,,,,,,,,10,11,45,,,
320180,control_change,12,0,13,,,,,,,,,12,11,43,,,
320184,control_change,12,0,14,,,,,,,,,13,11,43,,,
320186,control_change,12,0,15,,,,,,,,,14,11,43,,,
320188,control_change,36,0,2,,,,,,,,,1,11,41,,,
320206,control_change,28,0,11,,,,,,,,,10,11,46,,,
320214,control_change,42,0,3,,,,,,,,,2,11,36,,,
320218,control_change,42,0,4,,,,,,,,,3,11,36,,,
320220,control_change,45,0,5,,,,,,,,,4,11,41,,,
320220,control_change,45,0,12,,,,,,,,,11,11,44,,,
320221,control_change,45,0,6,,,,,,,,,5,11,41,,,
320223,note_on,3,0,12,,,,,,,,,11,,,,62,0
320224,control_change,36,0,2,,,,,,,,,1,11,42,,,
320225,control_change,45,0,13,,,,,,,,,12,11,44,,,
320228,note_on,3,0,13,,,,,,,,,12,,,,59,0
320229,control_change,45,0,14,,,,,,,,,13,11,44,,,
320231,control_change,45,0,15,,,,,,,,,14,11,44,,,
320233,control_change,27,0,11,,,,,,,,,10,11,47,,,
320257,control_change,43,0,3,,,,,,,,,2,11,37,,,
320260,control_change,36,0,2,,,,,,,,,1,11,43,,,
320261,control_change,28,0,11,,,,,,,,,10,11,48,,,
320261,control_change,43,0,4,,,,,,,,,3,11,37,,,
320264,control_change,44,0,5,,,,,,,,,4,11,42,,,
320264,control_change,41,0,12,,,,,,,,,11,11,45,,,
320265,control_change,44,0,6,,,,,,,,,5,11,42,,,
320269,control_change,41,0,13,,,,,,,,,12,11,45,,,
320273,control_change,44,0,14,,,,,,,,,13,11,45,,,
320275,control_change,44,0,15,,,,,,,,,14,11,45,,,
320280,set_tempo,120,1,0,,,,,,288462,,,,,,,,
320283,note_on,19,0,12,,,,,,,,,11,,,,67,127
320288,note_on,19,0,13,,,,,,,,,12,,,,62,127
320289,note_on,0,0,4,,,,,,,,,3,,,,62,100
320289,note_on,28,0,4,,,,,,,,,3,,,,55,0
320289,note_on,0,0,4,,,,,,,,,3,,,,55,100
320289,note_on,0,0,4,,,,,,,,,3,,,,53,0
320289,control_change,28,0,11,,,,,,,,,10,11,49,,,
320296,control_change,36,0,2,,,,,,,,,1,11,44,,,
320299,control_change,42,0,3,,,,,,,,,2,11,38,,,
320303,control_change,14,0,4,,,,,,,,,3,11,38,,,
320308,control_change,25,0,12,,,,,,,,,11,11,46,,,
320308,control_change,44,0,5,,,,,,,,,4,11,43,,,
320309,control_change,44,0,6,,,,,,,,,5,11,43,,,
320313,control_change,25,0,13,,,,,,,,,12,11,46,,,
320316,control_change,27,0,11,,,,,,,,,10,11,50,,,
320317,control_change,44,0,14,,,,,,,,,13,11,46,,,
320319,control_change,44,0,15,,,,,,,,,14,11,46,,,
320332,control_change,36,0,2,,,,,,,,,1,11,45,,,
320342,control_change,43,0,3,,,,,,,,,2,11,39,,,
320343,note_on,35,0,12,,,,,,,,,11,,,,67,0
320344,control_change,28,0,11,,,,,,,,,10,11,51,,,
320346,control_change,43,0,4,,,,,,,,,3,11,39,,,
320348,note_on,35,0,13,,,,,,,,,12,,,,62,0
320353,control_change,45,0,5,,,,,,,,,4,11,44,,,
320353,control_change,10,0,12,,,,,,,,,11,11,47,,,
320354,control_change,45,0,6,,,,,,,,,5,11,44,,,
320358,control_change,10,0,13,,,,,,,,,12,11,47,,,
320362,control_change,45,0,14,,,,,,,,,13,11,47,,,
320364,control_change,45,0,15,,,,,,,,,14,11,47,,,
320368,control_change,36,0,2,,,,,,,,,1,11,46,,,
320372,control_change,28,0,11,,,,,,,,,10,11,52,,,
320384,control_change,42,0,3,,,,,,,,,2,11,40,,,
320388,control_change,42,0,4,,,,,,,,,3,11,40,,,
320395,note_on,0,0,3,,,,,,,,,2,,,,74,0
320395,note_on,11,0,3,,,,,,,,,2,,,,71,0
320397,control_change,44,0,5,,,,,,,,,4,11,45,,,
320397,control_change,44,0,12,,,,,,,,,11,11,48,,,
320398,control_change,44,0,6,,,,,,,,,5,11,45,,,
320400,note_on,28,0,11,,,,,,,,,10,,,,83,0
320400,note_on,0,0,11,,,,,,,,,10,,,,84,112
320400,set_tempo,120,1,0,,,,,,254237,,,,,,,,
320400,control_change,0,0,11,,,,,,,,,10,11,53,,,
320402,control_change,44,0,13,,,,,,,,,12,11,48,,,
320403,note_on,6,0,12,,,,,,,,,11,,,,64,112
320404,note_on,0,0,2,,,,,,,,,1,,,,84,100
320404,note_on,36,0,2,,,,,,,,,1,,,,83,0
320404,control_change,0,0,2,,,,,,,,,1,11,47,,,
320405,note_on,10,0,3,,,,,,,,,2,,,,72,101
320405,note_on,0,0,3,,,,,,,,,2,,,,76,101
320406,control_change,44,0,14,,,,,,,,,13,11,48,,,
320408,control_change,44,0,15,,,,,,,,,14,11,48,,,
320408,note_on,6,0,13,,,,,,,,,12,,,,60,112
320409,note_on,0,0,4,,,,,,,,,3,,,,55,100
320409,note_on,0,0,4,,,,,,,,,3,,,,52,100
320409,note_on,0,0,4,,,,,,,,,3,,,,62,0
320409,note_on,21,0,4,,,,,,,,,3,,,,55,0
320412,note_on,6,0,14,,,,,,,,,13,,,,52,112
320414,note_on,6,0,15,,,,,,,,,14,,,,40,112
320427,control_change,22,0,3,,,,,,,,,2,11,41,,,
320431,control_change,22,0,4,,,,,,,,,3,11,41,,,
320431,control_change,27,0,2,,,,,,,,,1,11,48,,,
320435,control_change,35,0,11,,,,,,,,,10,11,54,,,
320441,control_change,38,0,12,,,,,,,,,11,11,49,,,
320441,control_change,44,0,5,,,,,,,,,4,11,46,,,
320442,control_change,44,0,6,,,,,,,,,5,11,46,,,
320446,control_change,38,0,13,,,,,,,,,12,11,49,,,
320450,control_change,38,0,14,,,,,,,,,13,11,49,,,
320452,control_change,38,0,15,,,,,,,,,14,11,49,,,
320459,control_change,28,0,2,,,,,,,,,1,11,49,,,
320463,note_on,22,0,12,,,,,,,,,11,,,,64,0
320468,note_on,22,0,13,,,,,,,,,12,,,,60,0
320469,control_change,42,0,3,,,,,,,,,2,11,42,,,
320471,control_change,36,0,11,,,,,,,,,10,11,55,,,
320473,control_change,42,0,4,,,,,,,,,3,11,42,,,
320485,control_change,44,0,5,,,,,,,,,4,11,47,,,
320485,control_change,22,0,12,,,,,,,,,11,11,50,,,
320486,control_change,27,0,2,,,,,,,,,1,11,50,,,
320486,control_change,44,0,6,,,,,,,,,5,11,47,,,
320490,control_change,22,0,13,,,,,,,,,12,11,50,,,
320494,control_change,44,0,14,,,,,,,,,13,11,50,,,
320496,control_change,44,0,15,,,,,,,,,14,11,50,,,
320507,control_change,36,0,11,,,,,,,,,10,11,56,,,
320512,control_change,43,0,3,,,,,,,,,2,11,43,,,
320514,control_change,28,0,2,,,,,,,,,1,11,51,,,
320516,control_change,43,0,4,,,,,,,,,3,11,43,,,
320520,set_tempo,120,1,0,,,,,,263158,,,,,,,,
320520,note_on,13,0,11,,,,,,,,,10,,,,84,0
320520,note_on,0,0,11,,,,,,,,,10,,,,83,112
320523,note_on,38,0,12,,,,,,,,,11,,,,64,112
320524,note_on,10,0,2,,,,,,,,,1,,,,84,0
320524,note_on,0,0,2,,,,,,,,,1,,,,83,100
320528,note_on,38,0,13,,,,,,,,,12,,,,60,112
320529,note_on,0,0,4,,,,,,,,,3,,,,55,100
320529,note_on,13,0,4,,,,,,,,,3,,,,52,0
320529,note_on,0,0,4,,,,,,,,,3,,,,52,100
320529,note_on,0,0,4,,,,,,,,,3,,,,55,0
320530,control_change,7,0,12,,,,,,,,,11,11,51,,,
320530,control_change,45,0,5,,,,,,,,,4,11,48,,,
320531,control_change,45,0,6,,,,,,,,,5,11,48,,,
320532,note_on,38,0,14,,,,,,,,,13,,,,52,0
320534,note_on,38,0,15,,,,,,,,,14,,,,40,0
320535,control_change,7,0,13,,,,,,,,,12,11,51,,,
320539,control_change,7,0,14,,,,,,,,,13,11,51,,,
320541,control_change,7,0,15,,,,,,,,,14,11,51,,,
320542,control_change,18,0,2,,,,,,,,,1,11,52,,,
320543,control_change,23,0,11,,,,,,,,,10,11,57,,,
320554,control_change,42,0,3,,,,,,,,,2,11,44,,,
320558,control_change,29,0,4,,,,,,,,,3,11,44,,,
320569,control_change,27,0,2,,,,,,,,,1,11,52,,,
320574,control_change,44,0,5,,,,,,,,,4,11,49,,,
320574,control_change,44,0,12,,,,,,,,,11,11,52,,,
320575,control_change,44,0,6,,,,,,,,,5,11,49,,,
320579,control_change,36,0,11,,,,,,,,,10,11,57,,,
320579,control_change,44,0,13,,,,,,,,,12,11,52,,,
320583,note_on,9,0,12,,,,,,,,,11,,,,64,0
320583,control_change,44,0,14,,,,,,,,,13,11,52,,,
320585,control_change,44,0,15,,,,,,,,,14,11,52,,,
320588,note_on,9,0,13,,,,,,,,,12,,,,60,0
320597,control_change,28,0,2,,,,,,,,,1,11,53,,,
320597,control_change,43,0,3,,,,,,,,,2,11,45,,,
320601,control_change,43,0,4,,,,,,,,,3,11,45,,,
320615,control_change,36,0,11,,,,,,,,,10,11,58,,,
320618,control_change,35,0,12,,,,,,,,,11,11,53,,,
320618,control_change,44,0,5,,,,,,,,,4,11,50,,,
320619,control_change,44,0,6,,,,,,,,,5,11,50,,,
320623,control_change,35,0,13,,,,,,,,,12,11,53,,,
320624,control_change,27,0,2,,,,,,,,,1,11,54,,,
320627,control_change,44,0,14,,,,,,,,,13,11,53,,,
320629,control_change,44,0,15,,,,,,,,,14,11,53,,,
320639,control_change,42,0,3,,,,,,,,,2,11,46,,,
320640,set_tempo,120,1,0,,,,,,288462,,,,,,,,
320640,note_on,0,0,11,,,,,,,,,10,,,,81,112
320640,note_on,25,0,11,,,,,,,,,10,,,,83,0
320643,control_change,42,0,4,,,,,,,,,3,11,46,,,
320643,note_on,25,0,12,,,,,,,,,11,,,,67,127
320644,note_on,20,0,2,,,,,,,,,1,,,,83,0
320644,note_on,0,0,2,,,,,,,,,1,,,,81,100
320648,note_on,25,0,13,,,,,,,,,12,,,,64,127
320649,note_on,0,0,4,,,,,,,,,3,,,,55,100
320649,note_on,0,0,4,,,,,,,,,3,,,,60,100
320649,note_on,6,0,4,,,,,,,,,3,,,,52,0
320649,note_on,0,0,4,,,,,,,,,3,,,,55,0
320651,control_change,11,0,11,,,,,,,,,10,11,59,,,
320652,control_change,8,0,2,,,,,,,,,1,11,55,,,
320663,control_change,20,0,12,,,,,,,,,11,11,54,,,
320663,control_change,45,0,5,,,,,,,,,4,11,51,,,
320664,control_change,45,0,6,,,,,,,,,5,11,51,,,
320668,control_change,20,0,13,,,,,,,,,12,11,54,,,
320672,control_change,45,0,14,,,,,,,,,13,11,54,,,
320674,control_change,45,0,15,,,,,,,,,14,11,54,,,
320680,control_change,28,0,2,,,,,,,,,1,11,55,,,
320681,control_change,42,0,3,,,,,,,,,2,11,47,,,
320685,control_change,36,0,4,,,,,,,,,3,11,47,,,
320687,control_change,36,0,11,,,,,,,,,10,11,60,,,
320703,note_on,40,0,12,,,,,,,,,11,,,,67,0
320707,control_change,27,0,2,,,,,,,,,1,11,56,,,
320707,control_change,4,0,12,,,,,,,,,11,11,55,,,
320707,control_change,44,0,5,,,,,,,,,4,11,52,,,
320708,note_on,40,0,13,,,,,,,,,12,,,,64,0
320708,control_change,44,0,6,,,,,,,,,5,11,52,,,
320712,control_change,4,0,13,,,,,,,,,12,11,55,,,
320716,control_change,44,0,14,,,,,,,,,13,11,55,,,
320718,control_change,44,0,15,,,,,,,,,14,11,55,,,
320723,control_change,36,0,11,,,,,,,,,10,11,61,,,
320724,control_change,43,0,3,,,,,,,,,2,11,48,,,
320728,control_change,43,0,4,,,,,,,,,3,11,48,,,
320735,control_change,28,0,2,,,,,,,,,1,11,57,,,
320751,control_change,44,0,5,,,,,,,,,4,11,53,,,
320751,control_change,44,0,12,,,,,,,,,11,11,56,,,
320752,control_change,44,0,6,,,,,,,,,5,11,53,,,
320755,note_on,0,0,3,,,,,,,,,2,,,,72,0
320755,note_on,32,0,11,,,,,,,,,10,,,,81,0
320755,note_on,31,0,3,,,,,,,,,2,,,,76,0
320756,control_change,44,0,13,,,,,,,,,12,11,56,,,
320759,control_change,4,0,11,,,,,,,,,10,11,62,,,
320760,control_change,44,0,14,,,,,,,,,13,11,56,,,
320760,note_on,1,0,11,,,,,,,,,10,,,,79,112
320760,set_tempo,120,1,0,,,,,,254237,,,,,,,,
320762,control_change,44,0,15,,,,,,,,,14,11,56,,,
320763,note_on,12,0,5,,,,,,,,,4,,,,62,100
320763,note_on,12,0,12,,,,,,,,,11,,,,65,112
320763,control_change,28,0,2,,,,,,,,,1,11,58,,,
320764,note_on,12,0,6,,,,,,,,,5,,,,55,100
320764,note_on,1,0,2,,,,,,,,,1,,,,81,0
320764,note_on,0,0,2,,,,,,,,,1,,,,79,100
320765,note_on,10,0,3,,,,,,,,,2,,,,71,101
320765,note_on,0,0,3,,,,,,,,,2,,,,74,101
320766,control_change,1,0,3,,,,,,,,,2,11,49,,,
320768,note_on,12,0,13,,,,,,,,,12,,,,55,112
320769,note_on,41,0,4,,,,,,,,,3,,,,55,0
320769,note_on,0,0,4,,,,,,,,,3,,,,60,0
320769,note_on,0,0,4,,,,,,,,,3,,,,62,100
320769,note_on,0,0,4,,,,,,,,,3,,,,59,100
320770,control_change,1,0,4,,,,,,,,,3,11,49,,,
320772,note_on,12,0,14,,,,,,,,,13,,,,55,112
320774,note_on,12,0,15,,,,,,,,,14,,,,43,112
320795,control_change,32,0,12,,,,,,,,,11,11,57,,,
320795,control_change,32,0,5,,,,,,,,,4,11,54,,,
320796,control_change,32,0,6,,,,,,,,,5,11,54,,,
320800,control_change,32,0,13,,,,,,,,,12,11,57,,,
320804,control_change,32,0,14,,,,,,,,,13,11,57,,,
320806,control_change,32,0,15,,,,,,,,,14,11,57,,,
320809,control_change,43,0,3,,,,,,,,,2,11,50,,,
320813,control_change,43,0,4,,,,,,,,,3,11,50,,,
320816,control_change,52,0,2,,,,,,,,,1,11,58,,,
320823,note_on,28,0,12,,,,,,,,,11,,,,65,0
320825,control_change,65,0,11,,,,,,,,,10,11,64,,,
320828,note_on,28,0,13,,,,,,,,,12,,,,55,0
320840,control_change,17,0,12,,,,,,,,,11,11,57,,,
320840,control_change,45,0,5,,,,,,,,,4,11,55,,,
320841,control_change,45,0,6,,,,,,,,,5,11,55,,,
320845,control_change,17,0,13,,,,,,,,,12,11,57,,,
320849,control_change,45,0,14,,,,,,,,,13,11,57,,,
320851,control_change,42,0,3,,,,,,,,,2,11,51,,,
320851,control_change,45,0,15,,,,,,,,,14,11,57,,,
320855,control_change,42,0,4,,,,,,,,,3,11,51,,,
320872,control_change,56,0,2,,,,,,,,,1,11,59,,,
320877,control_change,52,0,11,,,,,,,,,10,11,65,,,
320880,note_on,3,0,11,,,,,,,,,10,,,,79,0
320880,note_on,0,0,11,,,,,,,,,10,,,,77,112
320880,set_tempo,120,1,0,,,,,,263158,,,,,,,,
320883,note_on,43,0,12,,,,,,,,,11,,,,65,112
320884,note_on,0,0,2,,,,,,,,,1,,,,77,100
320884,note_on,12,0,2,,,,,,,,,1,,,,79,0
320884,control_change,44,0,5,,,,,,,,,4,11,56,,,
320884,control_change,1,0,12,,,,,,,,,11,11,58,,,
320885,control_change,44,0,6,,,,,,,,,5,11,56,,,
320888,note_on,43,0,13,,,,,,,,,12,,,,55,112
320889,note_on,34,0,4,,,,,,,,,3,,,,59,0
320889,note_on,0,0,4,,,,,,,,,3,,,,59,100
320889,note_on,0,0,4,,,,,,,,,3,,,,62,100
320889,control_change,1,0,13,,,,,,,,,12,11,58,,,
320889,note_on,0,0,4,,,,,,,,,3,,,,62,0
320892,note_on,43,0,14,,,,,,,,,13,,,,55,0
320893,control_change,1,0,14,,,,,,,,,13,11,58,,,
320894,note_on,43,0,15,,,,,,,,,14,,,,43,0
320894,control_change,43,0,3,,,,,,,,,2,11,52,,,
320895,control_change,1,0,15,,,,,,,,,14,11,58,,,
320898,control_change,9,0,4,,,,,,,,,3,11,52,,,
320927,control_change,43,0,2,,,,,,,,,1,11,60,,,
320928,control_change,44,0,5,,,,,,,,,4,11,57,,,
320928,control_change,44,0,12,,,,,,,,,11,11,59,,,
320929,control_change,44,0,6,,,,,,,,,5,11,57,,,
320929,control_change,49,0,11,,,,,,,,,10,11,66,,,
320933,control_change,44,0,13,,,,,,,,,12,11,59,,,
320936,control_change,42,0,3,,,,,,,,,2,11,52,,,
320937,control_change,44,0,14,,,,,,,,,13,11,59,,,
320939,control_change,44,0,15,,,,,,,,,14,11,59,,,
320940,control_change,42,0,4,,,,,,,,,3,11,53,,,
320943,note_on,15,0,12,,,,,,,,,11,,,,65,0
320948,note_on,15,0,13,,,,,,,,,12,,,,55,0
320973,control_change,45,0,5,,,,,,,,,4,11,58,,,
320973,control_change,30,0,12,,,,,,,,,11,11,60,,,
320974,control_change,45,0,6,,,,,,,,,5,11,58,,,
320978,control_change,30,0,13,,,,,,,,,12,11,60,,,
320979,control_change,43,0,3,,,,,,,,,2,11,53,,,
320982,control_change,55,0,2,,,,,,,,,1,11,61,,,
320982,control_change,53,0,11,,,,,,,,,10,11,67,,,
320982,control_change,45,0,14,,,,,,,,,13,11,60,,,
320983,control_change,43,0,4,,,,,,,,,3,11,54,,,
320984,control_change,45,0,15,,,,,,,,,14,11,60,,,
321000,note_on,18,0,11,,,,,,,,,10,,,,77,0
321000,note_on,0,0,11,,,,,,,,,10,,,,74,112
321000,set_tempo,120,1,0,,,,,,288462,,,,,,,,
321003,note_on,30,0,12,,,,,,,,,11,,,,67,127
321004,note_on,22,0,2,,,,,,,,,1,,,,77,0
321004,note_on,0,0,2,,,,,,,,,1,,,,74,100
321008,note_on,30,0,13,,,,,,,,,12,,,,65,127
321009,note_on,26,0,4,,,,,,,,,3,,,,59,0
321009,note_on,0,0,4,,,,,,,,,3,,,,62,0
321009,note_on,0,0,4,,,,,,,,,3,,,,55,100
321017,control_change,14,0,12,,,,,,,,,11,11,61,,,
321017,control_change,44,0,5,,,,,,,,,4,11,59,,,
321018,control_change,44,0,6,,,,,,,,,5,11,59,,,
321021,control_change,42,0,3,,,,,,,,,2,11,54,,,
321022,control_change,14,0,13,,,,,,,,,12,11,61,,,
321025,control_change,16,0,4,,,,,,,,,3,11,55,,,
321026,control_change,44,0,14,,,,,,,,,13,11,61,,,
321028,control_change,44,0,15,,,,,,,,,14,11,61,,,
321034,control_change,34,0,11,,,,,,,,,10,11,68,,,
321037,control_change,33,0,2,,,,,,,,,1,11,61,,,
321061,control_change,44,0,5,,,,,,,,,4,11,60,,,
321061,control_change,44,0,12,,,,,,,,,11,11,62,,,
321062,control_change,44,0,6,,,,,,,,,5,11,60,,,
321063,note_on,2,0,12,,,,,,,,,11,,,,67,0
321064,control_change,43,0,3,,,,,,,,,2,11,55,,,
321066,control_change,44,0,13,,,,,,,,,12,11,62,,,
321068,control_change,43,0,4,,,,,,,,,3,11,56,,,
321068,note_on,2,0,13,,,,,,,,,12,,,,65,0
321070,control_change,44,0,14,,,,,,,,,13,11,62,,,
321072,control_change,44,0,15,,,,,,,,,14,11,62,,,
321086,control_change,52,0,11,,,,,,,,,10,11,69,,,
321092,control_change,55,0,2,,,,,,,,,1,11,62,,,
321106,control_change,45,0,5,,,,,,,,,4,11,61,,,
321106,control_change,43,0,12,,,,,,,,,11,11,63,,,
321106,control_change,42,0,3,,,,,,,,,2,11,55,,,
321107,control_change,45,0,6,,,,,,,,,5,11,61,,,
321110,control_change,42,0,4,,,,,,,,,3,11,57,,,
321111,control_change,43,0,13,,,,,,,,,12,11,63,,,
321115,note_on,9,0,3,,,,,,,,,2,,,,74,0
321115,note_on,0,0,3,,,,,,,,,2,,,,71,0
321115,control_change,45,0,14,,,,,,,,,13,11,63,,,
321115,note_on,29,0,11,,,,,,,,,10,,,,74,0
321117,control_change,45,0,15,,,,,,,,,14,11,63,,,
321120,note_on,5,0,11,,,,,,,,,10,,,,79,112
321120,set_tempo,120,1,0,,,,,,254237,,,,,,,,
321123,note_on,0,0,5,,,,,,,,,4,,,,64,100
321123,note_on,17,0,5,,,,,,,,,4,,,,62,0
321123,note_on,17,0,12,,,,,,,,,11,,,,64,112
321124,note_on,32,0,2,,,,,,,,,1,,,,74,0
321124,note_on,0,0,6,,,,,,,,,5,,,,60,100
321124,note_on,17,0,6,,,,,,,,,5,,,,55,0
321124,note_on,0,0,2,,,,,,,,,1,,,,79,100
321125,note_on,10,0,3,,,,,,,,,2,,,,72,101
321125,note_on,0,0,3,,,,,,,,,2,,,,76,101
321128,note_on,17,0,13,,,,,,,,,12,,,,55,112
321129,note_on,0,0,4,,,,,,,,,3,,,,60,100
321129,note_on,0,0,4,,,,,,,,,3,,,,64,100
321129,note_on,19,0,4,,,,,,,,,3,,,,55,0
321132,note_on,17,0,14,,,,,,,,,13,,,,48,112
321134,note_on,17,0,15,,,,,,,,,14,,,,36,112
321139,control_change,19,0,11,,,,,,,,,10,11,70,,,
321148,control_change,24,0,2,,,,,,,,,1,11,63,,,
321149,control_change,24,0,3,,,,,,,,,2,11,56,,,
321150,control_change,27,0,12,,,,,,,,,11,11,64,,,
321150,control_change,27,0,5,,,,,,,,,4,11,62,,,
321151,control_change,27,0,6,,,,,,,,,5,11,62,,,
321153,control_change,24,0,4,,,,,,,,,3,11,58,,,
321155,control_change,27,0,13,,,,,,,,,12,11,64,,,
321159,control_change,27,0,14,,,,,,,,,13,11,64,,,
321161,control_change,27,0,15,,,,,,,,,14,11,64,,,
321183,note_on,33,0,12,,,,,,,,,11,,,,64,0
321188,note_on,33,0,13,,,,,,,,,12,,,,55,0
321191,control_change,42,0,3,,,,,,,,,2,11,57,,,
321191,control_change,52,0,11,,,,,,,,,10,11,71,,,
321194,control_change,44,0,5,,,,,,,,,4,11,63,,,
321194,control_change,11,0,12,,,,,,,,,11,11,65,,,
321195,control_change,44,0,6,,,,,,,,,5,11,63,,,
321195,control_change,42,0,4,,,,,,,,,3,11,59,,,
321199,control_change,11,0,13,,,,,,,,,12,11,65,,,
321203,control_change,55,0,2,,,,,,,,,1,11,64,,,
321203,control_change,44,0,14,,,,,,,,,13,11,65,,,
321205,control_change,44,0,15,,,,,,,,,14,11,65,,,
321233,control_change,42,0,3,,,,,,,,,2,11,58,,,
321237,control_change,42,0,4,,,,,,,,,3,11,60,,,
321238,control_change,44,0,12,,,,,,,,,11,11,66,,,
321238,control_change,44,0,5,,,,,,,,,4,11,64,,,
321239,control_change,44,0,6,,,,,,,,,5,11,64,,,
321240,set_tempo,120,1,0,,,,,,263158,,,,,,,,
321243,note_on,5,0,12,,,,,,,,,11,,,,64,112
321243,control_change,44,0,13,,,,,,,,,12,11,66,,,
321243,control_change,52,0,11,,,,,,,,,10,11,72,,,
321247,control_change,44,0,14,,,,,,,,,13,11,66,,,
321248,note_on,5,0,13,,,,,,,,,12,,,,55,112
321249,note_on,12,0,4,,,,,,,,,3,,,,64,0
321249,control_change,44,0,15,,,,,,,,,14,11,66,,,
321249,note_on,0,0,4,,,,,,,,,3,,,,60,0
321249,note_on,0,0,4,,,,,,,,,3,,,,60,100
321249,note_on,0,0,4,,,,,,,,,3,,,,64,100
321252,note_on,5,0,14,,,,,,,,,13,,,,48,0
321254,note_on,5,0,15,,,,,,,,,14,,,,36,0
321258,control_change,55,0,2,,,,,,,,,1,11,64,,,
321276,control_change,43,0,3,,,,,,,,,2,11,58,,,
321280,control_change,31,0,4,,,,,,,,,3,11,61,,,
321283,control_change,40,0,12,,,,,,,,,11,11,67,,,
321283,control_change,45,0,5,,,,,,,,,4,11,65,,,
321284,control_change,45,0,6,,,,,,,,,5,11,65,,,
321288,control_change,40,0,13,,,,,,,,,12,11,67,,,
321292,control_change,40,0,14,,,,,,,,,13,11,67,,,
321294,control_change,40,0,15,,,,,,,,,14,11,67,,,
321296,control_change,53,0,11,,,,,,,,,10,11,72,,,
321303,note_on,20,0,12,,,,,,,,,11,,,,64,0
321308,note_on,20,0,13,,,,,,,,,12,,,,55,0
321313,control_change,55,0,2,,,,,,,,,1,11,65,,,
321318,control_change,42,0,3,,,,,,,,,2,11,59,,,
321322,control_change,42,0,4,,,,,,,,,3,11,62,,,
321327,control_change,44,0,5,,,,,,,,,4,11,66,,,
321327,control_change,24,0,12,,,,,,,,,11,11,68,,,
321328,control_change,44,0,6,,,,,,,,,5,11,66,,,
321332,control_change,24,0,13,,,,,,,,,12,11,68,,,
321336,control_change,44,0,14,,,,,,,,,13,11,68,,,
321338,control_change,44,0,15,,,,,,,,,14,11,68,,,
321348,control_change,52,0,11,,,,,,,,,10,11,73,,,
321360,note_on,12,0,11,,,,,,,,,10,,,,79,0
321360,note_on,0,0,11,,,,,,,,,10,,,,76,112
321360,set_tempo,120,1,0,,,,,,288462,,,,,,,,
321361,control_change,43,0,3,,,,,,,,,2,11,60,,,
321363,note_on,36,0,12,,,,,,,,,11,,,,67,127
321364,note_on,0,0,2,,,,,,,,,1,,,,76,100
321364,note_on,51,0,2,,,,,,,,,1,,,,79,0
321365,control_change,43,0,4,,,,,,,,,3,11,63,,,
321368,control_change,4,0,2,,,,,,,,,1,11,66,,,
321368,note_on,36,0,13,,,,,,,,,12,,,,64,127
321369,note_on,4,0,4,,,,,,,,,3,,,,64,0
321369,note_on,0,0,4,,,,,,,,,3,,,,55,100
321369,note_on,0,0,4,,,,,,,,,3,,,,60,0
321371,control_change,44,0,5,,,,,,,,,4,11,67,,,
321371,control_change,8,0,12,,,,,,,,,11,11,69,,,
321372,control_change,44,0,6,,,,,,,,,5,11,67,,,
321376,control_change,8,0,13,,,,,,,,,12,11,69,,,
321380,control_change,44,0,14,,,,,,,,,13,11,69,,,
321382,control_change,44,0,15,,,,,,,,,14,11,69,,,
321400,control_change,40,0,11,,,,,,,,,10,11,74,,,
321403,control_change,42,0,3,,,,,,,,,2,11,61,,,
321407,control_change,38,0,4,,,,,,,,,3,11,64,,,
321416,control_change,45,0,12,,,,,,,,,11,11,70,,,
321416,control_change,45,0,5,,,,,,,,,4,11,68,,,
321417,control_change,45,0,6,,,,,,,,,5,11,68,,,
321421,control_change,45,0,13,,,,,,,,,12,11,70,,,
321423,note_on,7,0,12,,,,,,,,,11,,,,67,0
321424,control_change,56,0,2,,,,,,,,,1,11,67,,,
321425,control_change,45,0,14,,,,,,,,,13,11,70,,,
321427,control_change,45,0,15,,,,,,,,,14,11,70,,,
321428,note_on,7,0,13,,,,,,,,,12,,,,64,0
321446,control_change,43,0,3,,,,,,,,,2,11,61,,,
321450,control_change,43,0,4,,,,,,,,,3,11,65,,,
321453,control_change,53,0,11,,,,,,,,,10,11,75,,,
321460,control_change,44,0,5,,,,,,,,,4,11,69,,,
321460,control_change,37,0,12,,,,,,,,,11,11,71,,,
321461,control_change,44,0,6,,,,,,,,,5,11,69,,,
321465,control_change,37,0,13,,,,,,,,,12,11,71,,,
321469,control_change,44,0,14,,,,,,,,,13,11,71,,,
321471,control_change,44,0,15,,,,,,,,,14,11,71,,,
321475,note_on,0,0,3,,,,,,,,,2,,,,72,0
321475,note_on,29,0,3,,,,,,,,,2,,,,76,0
321475,note_on,22,0,11,,,,,,,,,10,,,,76,0
321479,control_change,55,0,2,,,,,,,,,1,11,67,,,
321480,note_on,5,0,11,,,,,,,,,10,,,,83,112
321480,set_tempo,120,1,0,,,,,,254237,,,,,,,,
321483,note_on,23,0,12,,,,,,,,,11,,,,62,112
321483,note_on,23,0,5,,,,,,,,,4,,,,64,0
321484,note_on,0,0,2,,,,,,,,,1,,,,83,100
321484,note_on,5,0,2,,,,,,,,,1,,,,76,0
321484,note_on,23,0,6,,,,,,,,,5,,,,60,0
321485,note_on,0,0,3,,,,,,,,,2,,,,74,101
321485,note_on,10,0,3,,,,,,,,,2,,,,71,101
321488,control_change,3,0,3,,,,,,,,,2,11,62,,,
321488,note_on,23,0,13,,,,,,,,,12,,,,59,112
321489,note_on,0,0,4,,,,,,,,,3,,,,55,100
321489,note_on,39,0,4,,,,,,,,,3,,,,55,0
321489,note_on,0,0,4,,,,,,,,,3,,,,53,100
321492,note_on,23,0,14,,,,,,,,,13,,,,53,112
321492,control_change,3,0,4,,,,,,,,,3,11,66,,,
321494,note_on,23,0,15,,,,,,,,,14,,,,41,112
321504,control_change,21,0,12,,,,,,,,,11,11,72,,,
321504,control_change,21,0,5,,,,,,,,,4,11,70,,,
321505,control_change,21,0,6,,,,,,,,,5,11,70,,,
321505,control_change,25,0,11,,,,,,,,,10,11,76,,,
321509,control_change,21,0,13,,,,,,,,,12,11,72,,,
321513,control_change,21,0,14,,,,,,,,,13,11,72,,,
321515,control_change,21,0,15,,,,,,,,,14,11,72,,,
321531,control_change,43,0,3,,,,,,,,,2,11,63,,,
321534,control_change,50,0,2,,,,,,,,,1,11,68,,,
321535,control_change,43,0,4,,,,,,,,,3,11,67,,,
321543,note_on,39,0,12,,,,,,,,,11,,,,62,0
321548,control_change,5,0,12,,,,,,,,,11,11,72,,,
321548,control_change,44,0,5,,,,,,,,,4,11,71,,,
321548,note_on,39,0,13,,,,,,,,,12,,,,59,0
321549,control_change,44,0,6,,,,,,,,,5,11,71,,,
321553,control_change,5,0,13,,,,,,,,,12,11,72,,,
321557,control_change,44,0,14,,,,,,,,,13,11,72,,,
321558,control_change,53,0,11,,,,,,,,,10,11,77,,,
321559,control_change,44,0,15,,,,,,,,,14,11,72,,,
321573,control_change,42,0,3,,,,,,,,,2,11,64,,,
321577,control_change,42,0,4,,,,,,,,,3,11,68,,,
321589,control_change,55,0,2,,,,,,,,,1,11,69,,,
321593,control_change,45,0,12,,,,,,,,,11,11,73,,,
321593,control_change,45,0,5,,,,,,,,,4,11,72,,,
321594,control_change,45,0,6,,,,,,,,,5,11,72,,,
321598,control_change,45,0,13,,,,,,,,,12,11,73,,,
321600,set_tempo,120,1,0,,,,,,263158,,,,,,,,
321602,control_change,45,0,14,,,,,,,,,13,11,73,,,
321603,note_on,10,0,12,,,,,,,,,11,,,,62,112
321604,control_change,45,0,15,,,,,,,,,14,11,73,,,
321608,note_on,10,0,13,,,,,,,,,12,,,,59,112
321609,note_on,32,0,4,,,,,,,,,3,,,,53,0
321609,note_on,0,0,4,,,,,,,,,3,,,,55,0
321609,note_on,0,0,4,,,,,,,,,3,,,,55,100
321609,note_on,0,0,4,,,,,,,,,3,,,,53,100
321610,control_change,52,0,11,,,,,,,,,10,11,78,,,
321612,note_on,10,0,14,,,,,,,,,13,,,,53,0
321614,note_on,10,0,15,,,,,,,,,14,,,,41,0
321616,control_change,43,0,3,,,,,,,,,2,11,64,,,
321620,control_change,11,0,4,,,,,,,,,3,11,69,,,
321637,control_change,44,0,5,,,,,,,,,4,11,73,,,
321637,control_change,34,0,12,,,,,,,,,11,11,74,,,
321638,control_change,44,0,6,,,,,,,,,5,11,73,,,
321642,control_change,34,0,13,,,,,,,,,12,11,74,,,
321644,control_change,55,0,2,,,,,,,,,1,11,70,,,
321646,control_change,34,0,14,,,,,,,,,13,11,74,,,
321648,control_change,34,0,15,,,,,,,,,14,11,74,,,
321658,control_change,42,0,3,,,,,,,,,2,11,65,,,
321662,control_change,42,0,4,,,,,,,,,3,11,70,,,
321662,control_change,52,0,11,,,,,,,,,10,11,79,,,
321663,note_on,26,0,12,,,,,,,,,11,,,,62,0
321668,note_on,26,0,13,,,,,,,,,12,,,,59,0
321681,control_change,44,0,5,,,,,,,,,4,11,74,,,
321681,control_change,18,0,12,,,,,,,,,11,11,75,,,
321682,control_change,44,0,6,,,,,,,,,5,11,74,,,
321686,control_change,18,0,13,,,,,,,,,12,11,75,,,
321690,control_change,44,0,14,,,,,,,,,13,11,75,,,
321692,control_change,44,0,15,,,,,,,,,14,11,75,,,
321700,control_change,56,0,2,,,,,,,,,1,11,70,,,
321701,control_change,43,0,3,,,,,,,,,2,11,66,,,
321705,control_change,43,0,4,,,,,,,,,3,11,71,,,
321715,control_change,53,0,11,,,,,,,,,10,11,80,,,
321720,set_tempo,120,1,0,,,,,,288462,,,,,,,,
321723,note_on,42,0,12,,,,,,,,,11,,,,67,127
321726,control_change,45,0,5,,,,,,,,,4,11,75,,,
321726,control_change,3,0,12,,,,,,,,,11,11,76,,,
321727,control_change,45,0,6,,,,,,,,,5,11,75,,,
321728,note_on,42,0,13,,,,,,,,,12,,,,62,127
321729,note_on,24,0,4,,,,,,,,,3,,,,53,0
321729,note_on,0,0,4,,,,,,,,,3,,,,62,100
321729,note_on,0,0,4,,,,,,,,,3,,,,55,100
321729,note_on,0,0,4,,,,,,,,,3,,,,55,0
321731,control_change,3,0,13,,,,,,,,,12,11,76,,,
321735,control_change,45,0,14,,,,,,,,,13,11,76,,,
321737,control_change,45,0,15,,,,,,,,,14,11,76,,,
321743,control_change,42,0,3,,,,,,,,,2,11,67,,,
321747,control_change,18,0,4,,,,,,,,,3,11,72,,,
321755,control_change,55,0,2,,,,,,,,,1,11,71,,,
321767,control_change,52,0,11,,,,,,,,,10,11,81,,,
321770,control_change,44,0,12,,,,,,,,,11,11,77,,,
321770,control_change,44,0,5,,,,,,,,,4,11,76,,,
321771,control_change,44,0,6,,,,,,,,,5,11,76,,,
321775,control_change,44,0,13,,,,,,,,,12,11,77,,,
321779,control_change,44,0,14,,,,,,,,,13,11,77,,,
321781,control_change,44,0,15,,,,,,,,,14,11,77,,,
321783,note_on,13,0,12,,,,,,,,,11,,,,67,0
321785,control_change,42,0,3,,,,,,,,,2,11,67,,,
321788,note_on,13,0,13,,,,,,,,,12,,,,62,0
321789,control_change,42,0,4,,,,,,,,,3,11,73,,,
321810,control_change,55,0,2,,,,,,,,,1,11,72,,,
321814,control_change,44,0,5,,,,,,,,,4,11,77,,,
321814,control_change,31,0,12,,,,,,,,,11,11,78,,,
321815,control_change,44,0,6,,,,,,,,,5,11,77,,,
321819,control_change,52,0,11,,,,,,,,,10,11,82,,,
321819,control_change,31,0,13,,,,,,,,,12,11,78,,,
321823,control_change,44,0,14,,,,,,,,,13,11,78,,,
321825,control_change,44,0,15,,,,,,,,,14,11,78,,,
321828,control_change,43,0,3,,,,,,,,,2,11,68,,,
321832,control_change,43,0,4,,,,,,,,,3,11,74,,,
321835,note_on,7,0,3,,,,,,,,,2,,,,74,0
321835,note_on,0,0,3,,,,,,,,,2,,,,71,0
321840,note_on,21,0,11,,,,,,,,,10,,,,83,0
321840,set_tempo,120,1,0,,,,,,254237,,,,,,,,
321840,note_on,0,0,11,,,,,,,,,10,,,,84,112
321843,note_on,29,0,12,,,,,,,,,11,,,,64,112
321844,note_on,34,0,2,,,,,,,,,1,,,,83,0
321844,note_on,0,0,2,,,,,,,,,1,,,,84,100
321845,note_on,0,0,3,,,,,,,,,2,,,,76,101
321845,note_on,10,0,3,,,,,,,,,2,,,,72,101
321848,note_on,29,0,13,,,,,,,,,12,,,,60,112
321849,note_on,17,0,4,,,,,,,,,3,,,,62,0
321849,note_on,0,0,4,,,,,,,,,3,,,,52,100
321849,note_on,0,0,4,,,,,,,,,3,,,,55,100
321849,note_on,0,0,4,,,,,,,,,3,,,,55,0
321852,note_on,29,0,14,,,,,,,,,13,,,,52,112
321854,note_on,29,0,15,,,,,,,,,14,,,,40,112
321858,control_change,15,0,12,,,,,,,,,11,11,79,,,
321858,control_change,44,0,5,,,,,,,,,4,11,78,,,
321859,control_change,44,0,6,,,,,,,,,5,11,78,,,
321863,control_change,15,0,13,,,,,,,,,12,11,79,,,
321865,control_change,21,0,2,,,,,,,,,1,11,73,,,
321867,control_change,15,0,14,,,,,,,,,13,11,79,,,
321869,control_change,15,0,15,,,,,,,,,14,11,79,,,
321870,control_change,25,0,3,,,,,,,,,2,11,69,,,
321872,control_change,32,0,11,,,,,,,,,10,11,83,,,
321874,control_change,25,0,4,,,,,,,,,3,11,75,,,
321903,control_change,45,0,5,,,,,,,,,4,11,79,,,
321903,note_on,45,0,12,,,,,,,,,11,,,,64,0
321903,control_change,0,0,12,,,,,,,,,11,11,80,,,
321904,control_change,45,0,6,,,,,,,,,5,11,79,,,
321908,control_change,0,0,13,,,,,,,,,12,11,80,,,
321908,note_on,45,0,13,,,,,,,,,12,,,,60,0
321912,control_change,45,0,14,,,,,,,,,13,11,80,,,
321913,control_change,43,0,3,,,,,,,,,2,11,70,,,
321914,control_change,45,0,15,,,,,,,,,14,11,80,,,
321917,control_change,43,0,4,,,,,,,,,3,11,76,,,
321920,control_change,55,0,2,,,,,,,,,1,11,73,,,
321924,control_change,52,0,11,,,,,,,,,10,11,84,,,
321947,control_change,44,0,5,,,,,,,,,4,11,80,,,
321947,control_change,44,0,12,,,,,,,,,11,11,81,,,
321948,control_change,44,0,6,,,,,,,,,5,11,80,,,
321952,control_change,44,0,13,,,,,,,,,12,11,81,,,
321955,control_change,42,0,3,,,,,,,,,2,11,70,,,
321956,control_change,44,0,14,,,,,,,,,13,11,81,,,
321958,control_change,44,0,15,,,,,,,,,14,11,81,,,
321959,control_change,42,0,4,,,,,,,,,3,11,77,,,
321960,set_tempo,120,1,0,,,,,,263158,,,,,,,,
321960,note_on,0,0,11,,,,,,,,,10,,,,83,112
321960,note_on,36,0,11,,,,,,,,,10,,,,84,0
321963,note_on,16,0,12,,,,,,,,,11,,,,64,112
321964,note_on,0,0,2,,,,,,,,,1,,,,83,100
321964,note_on,44,0,2,,,,,,,,,1,,,,84,0
321968,note_on,16,0,13,,,,,,,,,12,,,,60,112
321969,note_on,10,0,4,,,,,,,,,3,,,,55,0
321969,note_on,0,0,4,,,,,,,,,3,,,,52,0
321969,note_on,0,0,4,,,,,,,,,3,,,,55,100
321969,note_on,0,0,4,,,,,,,,,3,,,,52,100
321972,note_on,16,0,14,,,,,,,,,13,,,,52,0
321974,note_on,16,0,15,,,,,,,,,14,,,,40,0
321976,control_change,16,0,11,,,,,,,,,10,11,85,,,
321976,control_change,12,0,2,,,,,,,,,1,11,74,,,
321991,control_change,28,0,12,,,,,,,,,11,11,82,,,
321991,control_change,44,0,5,,,,,,,,,4,11,81,,,
321992,control_change,44,0,6,,,,,,,,,5,11,81,,,
321996,control_change,28,0,13,,,,,,,,,12,11,82,,,
321998,control_change,43,0,3,,,,,,,,,2,11,71,,,
322000,control_change,28,0,14,,,,,,,,,13,11,82,,,
322002,control_change,33,0,4,,,,,,,,,3,11,78,,,
322002,control_change,28,0,15,,,,,,,,,14,11,82,,,
322023,note_on,32,0,12,,,,,,,,,11,,,,64,0
322028,note_on,32,0,13,,,,,,,,,12,,,,60,0
322029,control_change,53,0,11,,,,,,,,,10,11,86,,,
322031,control_change,55,0,2,,,,,,,,,1,11,75,,,
322036,control_change,45,0,5,,,,,,,,,4,11,82,,,
322036,control_change,13,0,12,,,,,,,,,11,11,83,,,
322037,control_change,45,0,6,,,,,,,,,5,11,82,,,
322040,control_change,42,0,3,,,,,,,,,2,11,72,,,
322041,control_change,13,0,13,,,,,,,,,12,11,83,,,
322044,control_change,42,0,4,,,,,,,,,3,11,79,,,
322045,control_change,45,0,14,,,,,,,,,13,11,83,,,
322047,control_change,45,0,15,,,,,,,,,14,11,83,,,
322080,control_change,44,0,12,,,,,,,,,11,11,84,,,
322080,set_tempo,120,1,0,,,,,,288462,,,,,,,,
322080,note_on,0,0,11,,,,,,,,,10,,,,81,112
322080,note_on,51,0,11,,,,,,,,,10,,,,83,0
322080,control_change,44,0,5,,,,,,,,,4,11,83,,,
322081,control_change,1,0,11,,,,,,,,,10,11,87,,,
322081,control_change,44,0,6,,,,,,,,,5,11,83,,,
322083,note_on,3,0,12,,,,,,,,,11,,,,67,127
322083,control_change,43,0,3,,,,,,,,,2,11,73,,,
322084,note_on,53,0,2,,,,,,,,,1,,,,83,0
322084,note_on,0,0,2,,,,,,,,,1,,,,81,100
322085,control_change,44,0,13,,,,,,,,,12,11,84,,,
322086,control_change,2,0,2,,,,,,,,,1,11,76,,,
322087,control_change,43,0,4,,,,,,,,,3,11,80,,,
322088,note_on,3,0,13,,,,,,,,,12,,,,64,127
322089,control_change,44,0,14,,,,,,,,,13,11,84,,,
322089,note_on,0,0,4,,,,,,,,,3,,,,60,100
322089,note_on,0,0,4,,,,,,,,,3,,,,55,100
322089,note_on,0,0,4,,,,,,,,,3,,,,55,0
322089,note_on,2,0,4,,,,,,,,,3,,,,52,0
322091,control_change,44,0,15,,,,,,,,,14,11,84,,,
322124,control_change,44,0,5,,,,,,,,,4,11,84,,,
322124,control_change,41,0,12,,,,,,,,,11,11,85,,,
322125,control_change,44,0,6,,,,,,,,,5,11,84,,,
322125,control_change,42,0,3,,,,,,,,,2,11,73,,,
322129,control_change,41,0,13,,,,,,,,,12,11,85,,,
322129,control_change,40,0,4,,,,,,,,,3,11,81,,,
322133,control_change,44,0,14,,,,,,,,,13,11,85,,,
322133,control_change,52,0,11,,,,,,,,,10,11,87,,,
322135,control_change,44,0,15,,,,,,,,,14,11,85,,,
322141,control_change,55,0,2,,,,,,,,,1,11,76,,,
322143,note_on,19,0,12,,,,,,,,,11,,,,67,0
322148,note_on,19,0,13,,,,,,,,,12,,,,64,0
322168,control_change,43,0,3,,,,,,,,,2,11,74,,,
322169,control_change,45,0,5,,,,,,,,,4,11,85,,,
322169,control_change,26,0,12,,,,,,,,,11,11,86,,,
322170,control_change,45,0,6,,,,,,,,,5,11,85,,,
322172,control_change,43,0,4,,,,,,,,,3,11,82,,,
322174,control_change,26,0,13,,,,,,,,,12,11,86,,,
322178,control_change,45,0,14,,,,,,,,,13,11,86,,,
322180,control_change,45,0,15,,,,,,,,,14,11,86,,,
322186,control_change,53,0,11,,,,,,,,,10,11,88,,,
322195,note_on,27,0,3,,,,,,,,,2,,,,76,0
322195,note_on,0,0,3,,,,,,,,,2,,,,72,0
322195,note_on,9,0,11,,,,,,,,,10,,,,81,0
322196,control_change,55,0,2,,,,,,,,,1,11,77,,,
322200,set_tempo,120,1,0,,,,,,254237,,,,,,,,
322200,note_on,5,0,11,,,,,,,,,10,,,,79,112
322203,note_on,34,0,5,,,,,,,,,4,,,,62,100
322203,note_on,34,0,12,,,,,,,,,11,,,,65,112
322204,note_on,34,0,6,,,,,,,,,5,,,,55,100
322204,note_on,8,0,2,,,,,,,,,1,,,,81,0
322204,note_on,0,0,2,,,,,,,,,1,,,,79,100
322205,note_on,10,0,3,,,,,,,,,2,,,,71,101
322205,note_on,0,0,3,,,,,,,,,2,,,,74,101
322208,note_on,34,0,13,,,,,,,,,12,,,,55,112
322209,note_on,0,0,4,,,,,,,,,3,,,,59,100
322209,note_on,0,0,4,,,,,,,,,3,,,,62,100
322209,note_on,0,0,4,,,,,,,,,3,,,,55,0
322209,note_on,37,0,4,,,,,,,,,3,,,,60,0
322210,control_change,5,0,3,,,,,,,,,2,11,75,,,
322212,note_on,34,0,14,,,,,,,,,13,,,,55,112
322213,control_change,10,0,12,,,,,,,,,11,11,87,,,
322213,control_change,10,0,5,,,,,,,,,4,11,86,,,
322214,note_on,34,0,15,,,,,,,,,14,,,,43,112
322214,control_change,10,0,6,,,,,,,,,5,11,86,,,
322214,control_change,5,0,4,,,,,,,,,3,11,83,,,
322218,control_change,10,0,13,,,,,,,,,12,11,87,,,
322222,control_change,10,0,14,,,,,,,,,13,11,87,,,
322224,control_change,10,0,15,,,,,,,,,14,11,87,,,
322238,control_change,38,0,11,,,,,,,,,10,11,89,,,
322252,control_change,48,0,2,,,,,,,,,1,11,78,,,
322253,control_change,43,0,3,,,,,,,,,2,11,76,,,
322257,control_change,44,0,5,,,,,,,,,4,11,87,,,
322257,control_change,44,0,12,,,,,,,,,11,11,87,,,
322257,control_change,43,0,4,,,,,,,,,3,11,84,,,
322258,control_change,44,0,6,,,,,,,,,5,11,87,,,
322262,control_change,44,0,13,,,,,,,,,12,11,87,,,
322263,note_on,6,0,12,,,,,,,,,11,,,,65,0
322266,control_change,44,0,14,,,,,,,,,13,11,87,,,
322268,control_change,44,0,15,,,,,,,,,14,11,87,,,
322268,note_on,6,0,13,,,,,,,,,12,,,,55,0
322290,control_change,52,0,11,,,,,,,,,10,11,90,,,
322295,control_change,42,0,3,,,,,,,,,2,11,76,,,
322299,control_change,42,0,4,,,,,,,,,3,11,85,,,
322301,control_change,44,0,5,,,,,,,,,4,11,88,,,
322301,control_change,38,0,12,,,,,,,,,11,11,88,,,
322302,control_change,44,0,6,,,,,,,,,5,11,88,,,
322306,control_change,38,0,13,,,,,,,,,12,11,88,,,
322307,control_change,55,0,2,,,,,,,,,1,11,79,,,
322310,control_change,44,0,14,,,,,,,,,13,11,88,,,
322312,control_change,44,0,15,,,,,,,,,14,11,88,,,
322320,note_on,30,0,11,,,,,,,,,10,,,,79,0
322320,note_on,0,0,11,,,,,,,,,10,,,,77,112
322320,set_tempo,120,1,0,,,,,,263158,,,,,,,,
322323,note_on,22,0,12,,,,,,,,,11,,,,65,112
322324,note_on,0,0,2,,,,,,,,,1,,,,77,100
322324,note_on,17,0,2,,,,,,,,,1,,,,79,0
322328,note_on,22,0,13,,,,,,,,,12,,,,55,112
322329,note_on,0,0,4,,,,,,,,,3,,,,59,100
322329,note_on,30,0,4,,,,,,,,,3,,,,59,0
322329,note_on,0,0,4,,,,,,,,,3,,,,62,100
322329,note_on,0,0,4,,,,,,,,,3,,,,62,0
322332,note_on,22,0,14,,,,,,,,,13,,,,55,0
322334,note_on,22,0,15,,,,,,,,,14,,,,43,0
322337,control_change,42,0,3,,,,,,,,,2,11,77,,,
322341,control_change,12,0,4,,,,,,,,,3,11,86,,,
322343,control_change,23,0,11,,,,,,,,,10,11,91,,,
322346,control_change,23,0,12,,,,,,,,,11,11,89,,,
322346,control_change,45,0,5,,,,,,,,,4,11,89,,,
322347,control_change,45,0,6,,,,,,,,,5,11,89,,,
322351,control_change,23,0,13,,,,,,,,,12,11,89,,,
322355,control_change,23,0,14,,,,,,,,,13,11,89,,,
322357,control_change,23,0,15,,,,,,,,,14,11,89,,,
322362,control_change,38,0,2,,,,,,,,,1,11,80,,,
322380,control_change,43,0,3,,,,,,,,,2,11,78,,,
322383,note_on,37,0,12,,,,,,,,,11,,,,65,0
322384,control_change,43,0,4,,,,,,,,,3,11,87,,,
322388,note_on,37,0,13,,,,,,,,,12,,,,55,0
322390,control_change,44,0,5,,,,,,,,,4,11,90,,,
322390,control_change,7,0,12,,,,,,,,,11,11,90,,,
322391,control_change,44,0,6,,,,,,,,,5,11,90,,,
322395,control_change,52,0,11,,,,,,,,,10,11,92,,,
322395,control_change,7,0,13,,,,,,,,,12,11,90,,,
322399,control_change,44,0,14,,,,,,,,,13,11,90,,,
322401,control_change,44,0,15,,,,,,,,,14,11,90,,,
322417,control_change,55,0,2,,,,,,,,,1,11,80,,,
322422,control_change,42,0,3,,,,,,,,,2,11,79,,,
322426,control_change,42,0,4,,,,,,,,,3,11,88,,,
322434,control_change,44,0,5,,,,,,,,,4,11,91,,,
322434,control_change,44,0,12,,,,,,,,,11,11,91,,,
322435,control_change,44,0,6,,,,,,,,,5,11,91,,,
322439,control_change,44,0,13,,,,,,,,,12,11,91,,,
322440,note_on,0,0,11,,,,,,,,,10,,,,74,112
322440,note_on,45,0,11,,,,,,,,,10,,,,77,0
322440,set_tempo,120,1,0,,,,,,288462,,,,,,,,
322443,note_on,9,0,12,,,,,,,,,11,,,,67,127
322443,control_change,44,0,14,,,,,,,,,13,11,91,,,
322444,note_on,0,0,2,,,,,,,,,1,,,,74,100
322444,note_on,27,0,2,,,,,,,,,1,,,,77,0
322445,control_change,44,0,15,,,,,,,,,14,11,91,,,
322447,control_change,7,0,11,,,,,,,,,10,11,93,,,
322448,note_on,9,0,13,,,,,,,,,12,,,,65,127
322449,note_on,0,0,4,,,,,,,,,3,,,,55,100
322449,note_on,0,0,4,,,,,,,,,3,,,,59,0
322449,note_on,23,0,4,,,,,,,,,3,,,,62,0
322465,control_change,43,0,3,,,,,,,,,2,11,80,,,
322469,control_change,20,0,4,,,,,,,,,3,11,89,,,
322472,control_change,28,0,2,,,,,,,,,1,11,81,,,
322479,control_change,36,0,12,,,,,,,,,11,11,92,,,
322479,control_change,45,0,5,,,,,,,,,4,11,92,,,
322480,control_change,45,0,6,,,,,,,,,5,11,92,,,
322484,control_change,36,0,13,,,,,,,,,12,11,92,,,
322488,control_change,45,0,14,,,,,,,,,13,11,92,,,
322490,control_change,45,0,15,,,,,,,,,14,11,92,,,
322500,control_change,53,0,11,,,,,,,,,10,11,94,,,
322503,note_on,24,0,12,,,,,,,,,11,,,,67,0
322507,control_change,42,0,3,,,,,,,,,2,11,80,,,
322508,note_on,24,0,13,,,,,,,,,12,,,,65,0
322511,control_change,42,0,4,,,,,,,,,3,11,90,,,
322523,control_change,44,0,5,,,,,,,,,4,11,93,,,
322523,control_change,20,0,12,,,,,,,,,11,11,93,,,
322524,control_change,44,0,6,,,,,,,,,5,11,93,,,
322528,control_change,56,0,2,,,,,,,,,1,11,82,,,
322528,control_change,20,0,13,,,,,,,,,12,11,93,,,
322532,control_change,44,0,14,,,,,,,,,13,11,93,,,
322534,control_change,44,0,15,,,,,,,,,14,11,93,,,
322550,control_change,43,0,3,,,,,,,,,2,11,81,,,
322552,control_change,52,0,11,,,,,,,,,10,11,95,,,
322554,control_change,43,0,4,,,,,,,,,3,11,91,,,
322555,note_on,0,0,3,,,,,,,,,2,,,,71,0
322555,note_on,3,0,11,,,,,,,,,10,,,,74,0
322555,note_on,5,0,3,,,,,,,,,2,,,,74,0
322560,set_tempo,120,1,0,,,,,,254237,,,,,,,,
322560,note_on,5,0,11,,,,,,,,,10,,,,79,112
322563,note_on,40,0,12,,,,,,,,,11,,,,64,112
322563,note_on,0,0,5,,,,,,,,,4,,,,64,100
322563,note_on,40,0,5,,,,,,,,,4,,,,62,0
322564,note_on,36,0,2,,,,,,,,,1,,,,74,0
322564,note_on,0,0,6,,,,,,,,,5,,,,60,100
322564,note_on,40,0,6,,,,,,,,,5,,,,55,0
322564,note_on,0,0,2,,,,,,,,,1,,,,79,100
322565,note_on,10,0,3,,,,,,,,,2,,,,76,101
322565,note_on,0,0,3,,,,,,,,,2,,,,72,101
322567,control_change,4,0,5,,,,,,,,,4,11,94,,,
322567,control_change,4,0,12,,,,,,,,,11,11,94,,,
322568,control_change,4,0,6,,,,,,,,,5,11,94,,,
322568,note_on,40,0,13,,,,,,,,,12,,,,55,112
322569,note_on,15,0,4,,,,,,,,,3,,,,55,0
322569,note_on,0,0,4,,,,,,,,,3,,,,64,100
322569,note_on,0,0,4,,,,,,,,,3,,,,60,100
322572,control_change,4,0,13,,,,,,,,,12,11,94,,,
322572,note_on,40,0,14,,,,,,,,,13,,,,48,112
322574,note_on,40,0,15,,,,,,,,,14,,,,36,112
322576,control_change,4,0,14,,,,,,,,,13,11,94,,,
322578,control_change,4,0,15,,,,,,,,,14,11,94,,,
322583,control_change,19,0,2,,,,,,,,,1,11,83,,,
322592,control_change,27,0,3,,,,,,,,,2,11,82,,,
322596,control_change,27,0,4,,,,,,,,,3,11,92,,,
322604,control_change,44,0,11,,,,,,,,,10,11,96,,,
322611,control_change,44,0,5,,,,,,,,,4,11,95,,,
322611,control_change,44,0,12,,,,,,,,,11,11,95,,,
322612,control_change,44,0,6,,,,,,,,,5,11,95,,,
322616,control_change,44,0,13,,,,,,,,,12,11,95,,,
322620,control_change,44,0,14,,,,,,,,,13,11,95,,,
322622,control_change,44,0,15,,,,,,,,,14,11,95,,,
322623,note_on,12,0,12,,,,,,,,,11,,,,64,0
322628,note_on,12,0,13,,,,,,,,,12,,,,55,0
322635,control_change,43,0,3,,,,,,,,,2,11,83,,,
322638,control_change,55,0,2,,,,,,,,,1,11,83,,,
322639,control_change,43,0,4,,,,,,,,,3,11,93,,,
322656,control_change,33,0,12,,,,,,,,,11,11,96,,,
322656,control_change,45,0,5,,,,,,,,,4,11,96,,,
322657,control_change,53,0,11,,,,,,,,,10,11,97,,,
322657,control_change,45,0,6,,,,,,,,,5,11,96,,,
322661,control_change,33,0,13,,,,,,,,,12,11,96,,,
322665,control_change,45,0,14,,,,,,,,,13,11,96,,,
322667,control_change,45,0,15,,,,,,,,,14,11,96,,,
322677,control_change,42,0,3,,,,,,,,,2,11,83,,,
322680,set_tempo,120,1,0,,,,,,263158,,,,,,,,
322681,control_change,42,0,4,,,,,,,,,3,11,94,,,
322683,note_on,27,0,12,,,,,,,,,11,,,,64,112
322688,note_on,27,0,13,,,,,,,,,12,,,,55,112
322689,note_on,8,0,4,,,,,,,,,3,,,,60,0
322689,note_on,0,0,4,,,,,,,,,3,,,,60,100
322689,note_on,0,0,4,,,,,,,,,3,,,,64,0
322689,note_on,0,0,4,,,,,,,,,3,,,,64,100
322692,note_on,27,0,14,,,,,,,,,13,,,,48,0
322693,control_change,55,0,2,,,,,,,,,1,11,84,,,
322694,note_on,27,0,15,,,,,,,,,14,,,,36,0
322700,control_change,44,0,5,,,,,,,,,4,11,97,,,
322700,control_change,17,0,12,,,,,,,,,11,11,97,,,
322701,control_change,44,0,6,,,,,,,,,5,11,97,,,
322705,control_change,17,0,13,,,,,,,,,12,11,97,,,
322709,control_change,52,0,11,,,,,,,,,10,11,98,,,
322709,control_change,17,0,14,,,,,,,,,13,11,97,,,
322711,control_change,17,0,15,,,,,,,,,14,11,97,,,
322720,control_change,43,0,3,,,,,,,,,2,11,84,,,
322724,control_change,35,0,4,,,,,,,,,3,11,95,,,
322743,note_on,43,0,12,,,,,,,,,11,,,,64,0
322744,control_change,1,0,12,,,,,,,,,11,11,98,,,
322744,control_change,44,0,5,,,,,,,,,4,11,98,,,
322745,control_change,44,0,6,,,,,,,,,5,11,98,,,
322748,note_on,43,0,13,,,,,,,,,12,,,,55,0
322748,control_change,55,0,2,,,,,,,,,1,11,85,,,
322749,control_change,1,0,13,,,,,,,,,12,11,98,,,
322753,control_change,44,0,14,,,,,,,,,13,11,98,,,
322755,control_change,44,0,15,,,,,,,,,14,11,98,,,
322761,control_change,52,0,11,,,,,,,,,10,11,99,,,
322762,control_change,42,0,3,,,,,,,,,2,11,85,,,
322766,control_change,42,0,4,,,,,,,,,3,11,96,,,
322789,control_change,45,0,12,,,,,,,,,11,11,99,,,
322789,control_change,45,0,5,,,,,,,,,4,11,99,,,
322790,control_change,45,0,6,,,,,,,,,5,11,99,,,
322794,control_change,45,0,13,,,,,,,,,12,11,99,,,
322798,control_change,45,0,14,,,,,,,,,13,11,99,,,
322800,control_change,45,0,15,,,,,,,,,14,11,99,,,
322800,set_tempo,120,1,0,,,,,,288462,,,,,,,,
322800,note_on,39,0,11,,,,,,,,,10,,,,79,0
322800,note_on,0,0,11,,,,,,,,,10,,,,76,112
322803,note_on,14,0,12,,,,,,,,,11,,,,67,127
322804,control_change,0,0,2,,,,,,,,,1,11,86,,,
322804,note_on,56,0,2,,,,,,,,,1,,,,79,0
322804,note_on,0,0,2,,,,,,,,,1,,,,76,100
322805,control_change,43,0,3,,,,,,,,,2,11,86,,,
322808,note_on,14,0,13,,,,,,,,,12,,,,64,127
322809,note_on,43,0,4,,,,,,,,,3,,,,60,0
322809,note_on,0,0,4,,,,,,,,,3,,,,64,0
322809,note_on,0,0,4,,,,,,,,,3,,,,55,100
322809,control_change,0,0,4,,,,,,,,,3,11,97,,,
322814,control_change,14,0,11,,,,,,,,,10,11,100,,,
322833,control_change,44,0,5,,,,,,,,,4,11,100,,,
322833,control_change,30,0,12,,,,,,,,,11,11,100,,,
322834,control_change,44,0,6,,,,,,,,,5,11,100,,,
322838,control_change,30,0,13,,,,,,,,,12,11,100,,,
322842,control_change,44,0,14,,,,,,,,,13,11,100,,,
322844,control_change,44,0,15,,,,,,,,,14,11,100,,,
322863,note_on,30,0,12,,,,,,,,,11,,,,67,0
322866,control_change,52,0,11,,,,,,,,,10,11,101,,,
322868,note_on,30,0,13,,,,,,,,,12,,,,64,0
322877,control_change,44,0,5,,,,,,,,,4,11,101,,,
322877,control_change,14,0,12,,,,,,,,,11,11,101,,,
322878,control_change,44,0,6,,,,,,,,,5,11,101,,,
322882,control_change,14,0,13,,,,,,,,,12,11,101,,,
322886,control_change,44,0,14,,,,,,,,,13,11,101,,,
322888,control_change,44,0,15,,,,,,,,,14,11,101,,,
322915,note_on,49,0,11,,,,,,,,,10,,,,76,0
322915,note_on,0,0,3,,,,,,,,,2,,,,76,0
322915,note_on,110,0,3,,,,,,,,,2,,,,72,0
322919,control_change,4,0,11,,,,,,,,,10,11,102,,,
322920,note_on,0,0,11,,,,,,,,,10,,,,72,112
322920,set_tempo,120,1,0,,,,,,262582,,,,,,,,
322920,control_change,1,0,11,,,,,,,,,10,11,122,,,
322922,note_on,0,0,7,,,,,,,,,6,,,,60,112
322922,control_change,45,0,12,,,,,,,,,11,11,102,,,
322922,control_change,14160,0,7,,,,,,,,,6,11,102,,,
322922,control_change,45,0,5,,,,,,,,,4,11,102,,,
322923,note_on,1,0,5,,,,,,,,,4,,,,64,0
322923,control_change,0,0,12,,,,,,,,,11,11,122,,,
322923,control_change,45,0,6,,,,,,,,,5,11,102,,,
322923,note_on,1,0,12,,,,,,,,,11,,,,72,112
322924,note_on,120,0,2,,,,,,,,,1,,,,76,0
322924,note_on,1,0,6,,,,,,,,,5,,,,60,0
322927,control_change,45,0,13,,,,,,,,,12,11,102,,,
322927,program_change,0,0,13,,,,,,,,50,12,,,,,
322928,note_on,1,0,13,,,,,,,,,12,,,,72,112
322928,control_change,0,0,13,,,,,,,,,12,11,122,,,
322929,control_change,9,0,11,,,,,,,,,10,11,119,,,
322929,note_on,120,0,4,,,,,,,,,3,,,,55,0
322931,control_change,45,0,14,,,,,,,,,13,11,102,,,
322932,control_change,0,0,14,,,,,,,,,13,11,122,,,
322932,note_on,1,0,14,,,,,,,,,13,,,,60,112
322932,control_change,9,0,12,,,,,,,,,11,11,119,,,
322933,control_change,45,0,15,,,,,,,,,14,11,102,,,
322934,note_on,1,0,15,,,,,,,,,14,,,,48,112
322934,control_change,0,0,15,,,,,,,,,14,11,122,,,
322935,note_on,14280,0,10,,,,,,,,,15,,,,48,71
322937,control_change,9,0,13,,,,,,,,,12,11,119,,,
322938,control_change,9,0,11,,,,,,,,,10,11,116,,,
322941,control_change,9,0,12,,,,,,,,,11,11,116,,,
322941,control_change,9,0,14,,,,,,,,,13,11,119,,,
322943,control_change,9,0,15,,,,,,,,,14,11,119,,,
322946,control_change,9,0,13,,,,,,,,,12,11,116,,,
322947,control_change,9,0,11,,,,,,,,,10,11,113,,,
322950,control_change,9,0,14,,,,,,,,,13,11,116,,,
322950,control_change,9,0,12,,,,,,,,,11,11,113,,,
322950,note_on,3,0,11,,,,,,,,,10,,,,72,0
322952,control_change,9,0,15,,,,,,,,,14,11,116,,,
322953,note_on,3,0,12,,,,,,,,,11,,,,72,0
322955,control_change,9,0,13,,,,,,,,,12,11,113,,,
322956,control_change,6,0,11,,,,,,,,,10,11,110,,,
322958,note_on,3,0,13,,,,,,,,,12,,,,72,0
322959,control_change,6,0,12,,,,,,,,,11,11,110,,,
322959,control_change,9,0,14,,,,,,,,,13,11,113,,,
322961,control_change,9,0,15,,,,,,,,,14,11,113,,,
322962,note_on,3,0,14,,,,,,,,,13,,,,60,0
322964,control_change,6,0,13,,,,,,,,,12,11,110,,,
322964,note_on,3,0,15,,,,,,,,,14,,,,48,0
322965,control_change,9,0,11,,,,,,,,,10,11,107,,,
322968,control_change,9,0,12,,,,,,,,,11,11,107,,,
322968,control_change,6,0,14,,,,,,,,,13,11,110,,,
322970,control_change,6,0,15,,,,,,,,,14,11,110,,,
322973,control_change,9,0,13,,,,,,,,,12,11,107,,,
322974,control_change,9,0,11,,,,,,,,,10,11,104,,,
322977,control_change,9,0,14,,,,,,,,,13,11,107,,,
322977,control_change,9,0,12,,,,,,,,,11,11,104,,,
322979,control_change,9,0,15,,,,,,,,,14,11,107,,,
322980,note_on,6,0,11,,,,,,,,,10,,,,72,112
322982,control_change,9,0,13,,,,,,,,,12,11,104,,,
322983,note_on,6,0,12,,,,,,,,,11,,,,72,112
322986,control_change,9,0,14,,,,,,,,,13,11,104,,,
322988,note_on,6,0,13,,,,,,,,,12,,,,72,112
322988,control_change,9,0,15,,,,,,,,,14,11,104,,,
322992,note_on,6,0,14,,,,,,,,,13,,,,60,112
322994,note_on,6,0,15,,,,,,,,,14,,,,48,112
323010,note_on,30,0,11,,,,,,,,,10,,,,72,0
323013,note_on,30,0,12,,,,,,,,,11,,,,72,0
323018,note_on,30,0,13,,,,,,,,,12,,,,72,0
323022,note_on,30,0,14,,,,,,,,,13,,,,60,0
323024,note_on,30,0,15,,,,,,,,,14,,,,48,0
323040,note_on,30,0,11,,,,,,,,,10,,,,73,112
323042,note_on,0,0,7,,,,,,,,,6,,,,60,112
323042,note_on,120,0,7,,,,,,,,,6,,,,60,0
323043,note_on,30,0,12,,,,,,,,,11,,,,73,112
323048,note_on,30,0,13,,,,,,,,,12,,,,73,112
323052,note_on,30,0,14,,,,,,,,,13,,,,61,112
323054,note_on,30,0,15,,,,,,,,,14,,,,49,112
323055,note_on,120,0,10,,,,,,,,,15,,,,48,0
323055,note_on,0,0,10,,,,,,,,,15,,,,48,71
323070,note_on,30,0,11,,,,,,,,,10,,,,73,0
323073,note_on,30,0,12,,,,,,,,,11,,,,73,0
323078,note_on,30,0,13,,,,,,,,,12,,,,73,0
323082,note_on,30,0,14,,,,,,,,,13,,,,61,0
323084,note_on,30,0,15,,,,,,,,,14,,,,49,0
323100,note_on,30,0,11,,,,,,,,,10,,,,72,112
323103,note_on,30,0,12,,,,,,,,,11,,,,72,112
323108,note_on,30,0,13,,,,,,,,,12,,,,72,112
323112,note_on,30,0,14,,,,,,,,,13,,,,60,112
323114,note_on,30,0,15,,,,,,,,,14,,,,48,112
323130,note_on,30,0,11,,,,,,,,,10,,,,72,0
323133,note_on,30,0,12,,,,,,,,,11,,,,72,0
323138,note_on,30,0,13,,,,,,,,,12,,,,72,0
323142,note_on,30,0,14,,,,,,,,,13,,,,60,0
323144,note_on,30,0,15,,,,,,,,,14,,,,48,0
323160,set_tempo,240,1,0,,,,,,280374,,,,,,,,
323160,note_on,30,0,11,,,,,,,,,10,,,,73,112
323161,note_on,3120,0,1,,,,,,,,,0,,,,88,101
323161,note_on,0,0,1,,,,,,,,,0,,,,84,101
323161,control_change,0,0,1,,,,,,,,,0,11,101,,,
323162,note_on,120,0,7,,,,,,,,,6,,,,60,0
323163,control_change,0,0,5,,,,,,,,,4,11,122,,,
323163,note_on,240,0,5,,,,,,,,,4,,,,55,100
323163,note_on,30,0,12,,,,,,,,,11,,,,73,112
323164,control_change,0,0,6,,,,,,,,,5,11,122,,,
323164,control_change,0,0,2,,,,,,,,,1,11,101,,,
323164,note_on,240,0,6,,,,,,,,,5,,,,48,100
323164,note_on,240,0,2,,,,,,,,,1,,,,79,100
323164,note_on,0,0,2,,,,,,,,,1,,,,76,100
323165,note_on,0,0,3,,,,,,,,,2,,,,67,101
323165,note_on,250,0,3,,,,,,,,,2,,,,72,101
323165,control_change,0,0,3,,,,,,,,,2,11,101,,,
323167,note_on,7080,0,8,,,,,,,,,7,,,,55,110
323167,control_change,0,0,8,,,,,,,,,7,11,122,,,
323167,note_on,0,0,8,,,,,,,,,7,,,,64,110
323168,control_change,7,0,1,,,,,,,,,0,11,98,,,
323168,note_on,30,0,13,,,,,,,,,12,,,,73,112
323169,control_change,0,0,4,,,,,,,,,3,11,117,,,
323169,note_on,0,0,4,,,,,,,,,3,,,,60,100
323169,note_on,240,0,4,,,,,,,,,3,,,,64,100
323170,control_change,7,0,5,,,,,,,,,4,11,119,,,
323171,control_change,7,0,2,,,,,,,,,1,11,98,,,
323171,control_change,7,0,6,,,,,,,,,5,11,119,,,
323172,control_change,7,0,3,,,,,,,,,2,11,98,,,
323172,note_on,30,0,14,,,,,,,,,13,,,,61,112
323173,note_on,0,0,9,,,,,,,,,8,,,,48,110
323173,control_change,7080,0,9,,,,,,,,,8,11,122,,,
323174,control_change,7,0,8,,,,,,,,,7,11,119,,,
323174,note_on,30,0,15,,,,,,,,,14,,,,49,112
323175,note_on,120,0,10,,,,,,,,,15,,,,48,0
323176,control_change,7,0,4,,,,,,,,,3,11,114,,,
323178,control_change,8,0,5,,,,,,,,,4,11,116,,,
323179,control_change,8,0,6,,,,,,,,,5,11,116,,,
323180,control_change,7,0,9,,,,,,,,,8,11,119,,,
323182,control_change,8,0,8,,,,,,,,,7,11,116,,,
323183,control_change,15,0,1,,,,,,,,,0,11,94,,,
323184,control_change,8,0,4,,,,,,,,,3,11,111,,,
323185,control_change,7,0,5,,,,,,,,,4,11,113,,,
323186,control_change,15,0,2,,,,,,,,,1,11,94,,,
323186,control_change,7,0,6,,,,,,,,,5,11,113,,,
323187,control_change,15,0,3,,,,,,,,,2,11,94,,,
323188,control_change,8,0,9,,,,,,,,,8,11,116,,,
323189,control_change,7,0,8,,,,,,,,,7,11,113,,,
323190,note_on,30,0,11,,,,,,,,,10,,,,73,0
323191,control_change,7,0,4,,,,,,,,,3,11,108,,,
323193,control_change,8,0,5,,,,,,,,,4,11,110,,,
323193,note_on,30,0,12,,,,,,,,,11,,,,73,0
323194,control_change,8,0,6,,,,,,,,,5,11,110,,,
323195,control_change,7,0,9,,,,,,,,,8,11,113,,,
323197,control_change,8,0,8,,,,,,,,,7,11,110,,,
323198,note_on,30,0,13,,,,,,,,,12,,,,73,0
323198,control_change,15,0,1,,,,,,,,,0,11,89,,,
323199,control_change,8,0,4,,,,,,,,,3,11,105,,,
323200,control_change,7,0,5,,,,,,,,,4,11,107,,,
323201,control_change,7,0,6,,,,,,,,,5,11,107,,,
323201,control_change,15,0,2,,,,,,,,,1,11,89,,,
323202,note_on,30,0,14,,,,,,,,,13,,,,61,0
323202,control_change,15,0,3,,,,,,,,,2,11,89,,,
323203,control_change,8,0,9,,,,,,,,,8,11,110,,,
323204,note_on,30,0,15,,,,,,,,,14,,,,49,0
323204,control_change,7,0,8,,,,,,,,,7,11,107,,,
323206,control_change,7,0,4,,,,,,,,,3,11,102,,,
323208,control_change,8,0,5,,,,,,,,,4,11,104,,,
323209,control_change,8,0,6,,,,,,,,,5,11,104,,,
323210,control_change,7,0,9,,,,,,,,,8,11,107,,,
323212,control_change,8,0,8,,,,,,,,,7,11,104,,,
323214,control_change,8,0,4,,,,,,,,,3,11,99,,,
323218,control_change,8,0,9,,,,,,,,,8,11,104,,,
323220,note_on,30,0,11,,,,,,,,,10,,,,72,112
323223,note_on,30,0,12,,,,,,,,,11,,,,72,112
323228,note_on,30,0,13,,,,,,,,,12,,,,72,112
323232,note_on,30,0,14,,,,,,,,,13,,,,60,112
323234,note_on,30,0,15,,,,,,,,,14,,,,48,112
323250,note_on,30,0,11,,,,,,,,,10,,,,72,0
323253,note_on,30,0,12,,,,,,,,,11,,,,72,0
323258,note_on,30,0,13,,,,,,,,,12,,,,72,0
323262,note_on,30,0,14,,,,,,,,,13,,,,60,0
323264,note_on,30,0,15,,,,,,,,,14,,,,48,0
323280,note_on,0,0,11,,,,,,,,,10,,,,67,112
323280,control_change,30,0,11,,,,,,,,,10,11,122,,,
323280,set_tempo,120,1,0,,,,,,265487,,,,,,,,
323281,note_on,83,0,1,,,,,,,,,0,,,,84,0
323281,note_on,0,0,1,,,,,,,,,0,,,,88,0
323282,note_on,120,0,7,,,,,,,,,6,,,,60,112
323283,note_on,0,0,12,,,,,,,,,11,,,,67,112
323283,control_change,30,0,12,,,,,,,,,11,11,122,,,
323283,note_on,75,0,5,,,,,,,,,4,,,,55,0
323284,note_on,0,0,2,,,,,,,,,1,,,,79,0
323284,note_on,83,0,2,,,,,,,,,1,,,,76,0
323284,note_on,75,0,6,,,,,,,,,5,,,,48,0
323285,note_on,0,0,3,,,,,,,,,2,,,,72,0
323285,note_on,83,0,3,,,,,,,,,2,,,,67,0
323287,note_on,0,0,8,,,,,,,,,7,,,,55,0
323287,note_on,75,0,8,,,,,,,,,7,,,,64,0
323288,note_on,0,0,13,,,,,,,,,12,,,,67,112
323288,control_change,30,0,13,,,,,,,,,12,11,122,,,
323289,note_on,0,0,4,,,,,,,,,3,,,,64,0
323289,note_on,75,0,4,,,,,,,,,3,,,,60,0
323289,control_change,9,0,11,,,,,,,,,10,11,119,,,
323292,control_change,9,0,12,,,,,,,,,11,11,119,,,
323292,note_on,30,0,14,,,,,,,,,13,,,,55,112
323292,control_change,0,0,14,,,,,,,,,13,11,122,,,
323293,note_on,75,0,9,,,,,,,,,8,,,,48,0
323294,control_change,0,0,15,,,,,,,,,14,11,122,,,
323294,note_on,30,0,15,,,,,,,,,14,,,,43,112
323295,note_on,120,0,10,,,,,,,,,15,,,,48,71
323297,control_change,9,0,13,,,,,,,,,12,11,119,,,
323298,control_change,9,0,11,,,,,,,,,10,11,116,,,
323301,control_change,9,0,14,,,,,,,,,13,11,119,,,
323301,control_change,9,0,12,,,,,,,,,11,11,116,,,
323303,control_change,9,0,15,,,,,,,,,14,11,119,,,
323306,control_change,9,0,13,,,,,,,,,12,11,116,,,
323307,control_change,9,0,11,,,,,,,,,10,11,113,,,
323310,control_change,9,0,14,,,,,,,,,13,11,116,,,
323310,note_on,3,0,11,,,,,,,,,10,,,,67,0
323310,control_change,9,0,12,,,,,,,,,11,11,113,,,
323312,control_change,9,0,15,,,,,,,,,14,11,116,,,
323313,note_on,3,0,12,,,,,,,,,11,,,,67,0
323315,control_change,9,0,13,,,,,,,,,12,11,113,,,
323316,control_change,6,0,11,,,,,,,,,10,11,110,,,
323318,note_on,3,0,13,,,,,,,,,12,,,,67,0
323319,control_change,9,0,14,,,,,,,,,13,11,113,,,
323319,control_change,6,0,12,,,,,,,,,11,11,110,,,
323321,control_change,9,0,15,,,,,,,,,14,11,113,,,
323322,note_on,3,0,14,,,,,,,,,13,,,,55,0
323324,control_change,6,0,13,,,,,,,,,12,11,110,,,
323324,note_on,3,0,15,,,,,,,,,14,,,,43,0
323325,control_change,9,0,11,,,,,,,,,10,11,107,,,
323328,control_change,9,0,12,,,,,,,,,11,11,107,,,
323328,control_change,6,0,14,,,,,,,,,13,11,110,,,
323330,control_change,6,0,15,,,,,,,,,14,11,110,,,
323333,control_change,9,0,13,,,,,,,,,12,11,107,,,
323334,control_change,9,0,11,,,,,,,,,10,11,104,,,
323337,control_change,9,0,14,,,,,,,,,13,11,107,,,
323337,control_change,9,0,12,,,,,,,,,11,11,104,,,
323339,control_change,9,0,15,,,,,,,,,14,11,107,,,
323340,note_on,6,0,11,,,,,,,,,10,,,,67,112
323342,control_change,9,0,13,,,,,,,,,12,11,104,,,
323343,note_on,6,0,12,,,,,,,,,11,,,,67,112
323346,control_change,9,0,14,,,,,,,,,13,11,104,,,
323348,note_on,6,0,13,,,,,,,,,12,,,,67,112
323348,control_change,9,0,15,,,,,,,,,14,11,104,,,
323352,note_on,6,0,14,,,,,,,,,13,,,,55,112
323354,note_on,6,0,15,,,,,,,,,14,,,,43,112
323370,note_on,30,0,11,,,,,,,,,10,,,,67,0
323373,note_on,30,0,12,,,,,,,,,11,,,,67,0
323378,note_on,30,0,13,,,,,,,,,12,,,,67,0
323382,note_on,30,0,14,,,,,,,,,13,,,,55,0
323384,note_on,30,0,15,,,,,,,,,14,,,,43,0
323400,note_on,30,0,11,,,,,,,,,10,,,,68,112
323402,note_on,120,0,7,,,,,,,,,6,,,,60,0
323402,note_on,0,0,7,,,,,,,,,6,,,,60,112
323403,note_on,30,0,12,,,,,,,,,11,,,,68,112
323408,note_on,30,0,13,,,,,,,,,12,,,,68,112
323412,note_on,30,0,14,,,,,,,,,13,,,,56,112
323414,note_on,30,0,15,,,,,,,,,14,,,,44,112
323415,note_on,0,0,10,,,,,,,,,15,,,,48,71
323415,note_on,120,0,10,,,,,,,,,15,,,,48,0
323430,note_on,30,0,11,,,,,,,,,10,,,,68,0
323433,note_on,30,0,12,,,,,,,,,11,,,,68,0
323438,note_on,30,0,13,,,,,,,,,12,,,,68,0
323442,note_on,30,0,14,,,,,,,,,13,,,,56,0
323444,note_on,30,0,15,,,,,,,,,14,,,,44,0
323460,note_on,30,0,11,,,,,,,,,10,,,,67,112
323463,note_on,30,0,12,,,,,,,,,11,,,,67,112
323468,note_on,30,0,13,,,,,,,,,12,,,,67,112
323472,note_on,30,0,14,,,,,,,,,13,,,,55,112
323474,note_on,30,0,15,,,,,,,,,14,,,,43,112
323490,note_on,30,0,11,,,,,,,,,10,,,,67,0
323493,note_on,30,0,12,,,,,,,,,11,,,,67,0
323498,note_on,30,0,13,,,,,,,,,12,,,,67,0
323502,note_on,30,0,14,,,,,,,,,13,,,,55,0
323504,note_on,30,0,15,,,,,,,,,14,,,,43,0
323520,set_tempo,240,1,0,,,,,,280374,,,,,,,,
323520,note_on,30,0,11,,,,,,,,,10,,,,68,112
323521,note_on,240,0,1,,,,,,,,,0,,,,84,101
323521,control_change,0,0,1,,,,,,,,,0,11,101,,,
323521,note_on,0,0,1,,,,,,,,,0,,,,88,101
323522,note_on,120,0,7,,,,,,,,,6,,,,60,0
323523,control_change,0,0,5,,,,,,,,,4,11,122,,,
323523,note_on,30,0,12,,,,,,,,,11,,,,68,112
323523,note_on,240,0,5,,,,,,,,,4,,,,55,100
323524,note_on,240,0,6,,,,,,,,,5,,,,48,100
323524,control_change,0,0,6,,,,,,,,,5,11,122,,,
323524,note_on,0,0,2,,,,,,,,,1,,,,79,100
323524,control_change,240,0,2,,,,,,,,,1,11,101,,,
323524,note_on,0,0,2,,,,,,,,,1,,,,76,100
323525,control_change,240,0,3,,,,,,,,,2,11,101,,,
323525,note_on,0,0,3,,,,,,,,,2,,,,72,101
323525,note_on,0,0,3,,,,,,,,,2,,,,67,101
323527,note_on,0,0,8,,,,,,,,,7,,,,55,110
323527,note_on,240,0,8,,,,,,,,,7,,,,64,110
323527,control_change,0,0,8,,,,,,,,,7,11,122,,,
323528,note_on,30,0,13,,,,,,,,,12,,,,68,112
323528,control_change,7,0,1,,,,,,,,,0,11,98,,,
323529,note_on,0,0,4,,,,,,,,,3,,,,60,100
323529,control_change,0,0,4,,,,,,,,,3,11,117,,,
323529,note_on,240,0,4,,,,,,,,,3,,,,64,100
323530,control_change,7,0,5,,,,,,,,,4,11,119,,,
323531,control_change,7,0,6,,,,,,,,,5,11,119,,,
323531,control_change,7,0,2,,,,,,,,,1,11,98,,,
323532,note_on,30,0,14,,,,,,,,,13,,,,56,112
323532,control_change,7,0,3,,,,,,,,,2,11,98,,,
323533,note_on,0,0,9,,,,,,,,,8,,,,48,110
323533,control_change,240,0,9,,,,,,,,,8,11,122,,,
323534,note_on,30,0,15,,,,,,,,,14,,,,44,112
323534,control_change,7,0,8,,,,,,,,,7,11,119,,,
323535,note_on,120,0,10,,,,,,,,,15,,,,48,0
323536,control_change,7,0,4,,,,,,,,,3,11,114,,,
323538,control_change,8,0,5,,,,,,,,,4,11,116,,,
323539,control_change,8,0,6,,,,,,,,,5,11,116,,,
323540,control_change,7,0,9,,,,,,,,,8,11,119,,,
323542,control_change,8,0,8,,,,,,,,,7,11,116,,,
323543,control_change,15,0,1,,,,,,,,,0,11,94,,,
323544,control_change,8,0,4,,,,,,,,,3,11,111,,,
323545,control_change,7,0,5,,,,,,,,,4,11,113,,,
323546,control_change,7,0,6,,,,,,,,,5,11,113,,,
323546,control_change,15,0,2,,,,,,,,,1,11,94,,,
323547,control_change,15,0,3,,,,,,,,,2,11,94,,,
323548,control_change,8,0,9,,,,,,,,,8,11,116,,,
323549,control_change,7,0,8,,,,,,,,,7,11,113,,,
323550,note_on,30,0,11,,,,,,,,,10,,,,68,0
323551,control_change,7,0,4,,,,,,,,,3,11,108,,,
323553,control_change,8,0,5,,,,,,,,,4,11,110,,,
323553,note_on,30,0,12,,,,,,,,,11,,,,68,0
323554,control_change,8,0,6,,,,,,,,,5,11,110,,,
323555,control_change,7,0,9,,,,,,,,,8,11,113,,,
323557,control_change,8,0,8,,,,,,,,,7,11,110,,,
323558,control_change,15,0,1,,,,,,,,,0,11,89,,,
323558,note_on,30,0,13,,,,,,,,,12,,,,68,0
323559,control_change,8,0,4,,,,,,,,,3,11,105,,,
323560,control_change,7,0,5,,,,,,,,,4,11,107,,,
323561,control_change,7,0,6,,,,,,,,,5,11,107,,,
323561,control_change,15,0,2,,,,,,,,,1,11,89,,,
323562,note_on,30,0,14,,,,,,,,,13,,,,56,0
323562,control_change,15,0,3,,,,,,,,,2,11,89,,,
323563,control_change,8,0,9,,,,,,,,,8,11,110,,,
323564,control_change,7,0,8,,,,,,,,,7,11,107,,,
323564,note_on,30,0,15,,,,,,,,,14,,,,44,0
323566,control_change,7,0,4,,,,,,,,,3,11,102,,,
323568,control_change,8,0,5,,,,,,,,,4,11,104,,,
323569,control_change,8,0,6,,,,,,,,,5,11,104,,,
323570,control_change,7,0,9,,,,,,,,,8,11,107,,,
323572,control_change,8,0,8,,,,,,,,,7,11,104,,,
323574,control_change,8,0,4,,,,,,,,,3,11,99,,,
323578,control_change,8,0,9,,,,,,,,,8,11,104,,,
323580,note_on,30,0,11,,,,,,,,,10,,,,67,112
323583,note_on,30,0,12,,,,,,,,,11,,,,67,112
323588,note_on,30,0,13,,,,,,,,,12,,,,67,112
323592,note_on,30,0,14,,,,,,,,,13,,,,55,112
323594,note_on,30,0,15,,,,,,,,,14,,,,43,112
323610,note_on,30,0,11,,,,,,,,,10,,,,67,0
323613,note_on,30,0,12,,,,,,,,,11,,,,67,0
323618,note_on,30,0,13,,,,,,,,,12,,,,67,0
323622,note_on,30,0,14,,,,,,,,,13,,,,55,0
323624,note_on,30,0,15,,,,,,,,,14,,,,43,0
323640,set_tempo,120,1,0,,,,,,265487,,,,,,,,
323640,note_on,30,0,11,,,,,,,,,10,,,,64,112
323640,control_change,0,0,11,,,,,,,,,10,11,122,,,
323641,note_on,83,0,1,,,,,,,,,0,,,,88,0
323641,note_on,0,0,1,,,,,,,,,0,,,,84,0
323642,note_on,120,0,7,,,,,,,,,6,,,,60,112
323643,control_change,0,0,12,,,,,,,,,11,11,122,,,
323643,note_on,30,0,12,,,,,,,,,11,,,,64,112
323643,note_on,75,0,5,,,,,,,,,4,,,,55,0
323644,note_on,0,0,2,,,,,,,,,1,,,,79,0
323644,note_on,83,0,2,,,,,,,,,1,,,,76,0
323644,note_on,75,0,6,,,,,,,,,5,,,,48,0
323645,note_on,83,0,3,,,,,,,,,2,,,,72,0
323645,note_on,0,0,3,,,,,,,,,2,,,,67,0
323647,note_on,75,0,8,,,,,,,,,7,,,,55,0
323647,note_on,0,0,8,,,,,,,,,7,,,,64,0
323648,control_change,0,0,13,,,,,,,,,12,11,122,,,
323648,note_on,30,0,13,,,,,,,,,12,,,,64,112
323649,control_change,9,0,11,,,,,,,,,10,11,119,,,
323649,note_on,0,0,4,,,,,,,,,3,,,,64,0
323649,note_on,75,0,4,,,,,,,,,3,,,,60,0
323652,control_change,9,0,12,,,,,,,,,11,11,119,,,
323652,note_on,30,0,14,,,,,,,,,13,,,,52,112
323652,control_change,0,0,14,,,,,,,,,13,11,122,,,
323653,note_on,75,0,9,,,,,,,,,8,,,,48,0
323654,control_change,0,0,15,,,,,,,,,14,11,122,,,
323654,note_on,30,0,15,,,,,,,,,14,,,,40,112
323655,note_on,120,0,10,,,,,,,,,15,,,,48,71
323657,control_change,9,0,13,,,,,,,,,12,11,119,,,
323658,control_change,9,0,11,,,,,,,,,10,11,116,,,
323661,control_change,9,0,12,,,,,,,,,11,11,116,,,
323661,control_change,9,0,14,,,,,,,,,13,11,119,,,
323663,control_change,9,0,15,,,,,,,,,14,11,119,,,
323666,control_change,9,0,13,,,,,,,,,12,11,116,,,
323667,control_change,9,0,11,,,,,,,,,10,11,113,,,
323670,note_on,3,0,11,,,,,,,,,10,,,,64,0
323670,control_change,9,0,14,,,,,,,,,13,11,116,,,
323670,control_change,9,0,12,,,,,,,,,11,11,113,,,
323672,control_change,9,0,15,,,,,,,,,14,11,116,,,
323673,note_on,3,0,12,,,,,,,,,11,,,,64,0
323675,control_change,9,0,13,,,,,,,,,12,11,113,,,
323676,control_change,6,0,11,,,,,,,,,10,11,110,,,
323678,note_on,3,0,13,,,,,,,,,12,,,,64,0
323679,control_change,6,0,12,,,,,,,,,11,11,110,,,
323679,control_change,9,0,14,,,,,,,,,13,11,113,,,
323681,control_change,9,0,15,,,,,,,,,14,11,113,,,
323682,note_on,3,0,14,,,,,,,,,13,,,,52,0
323684,note_on,3,0,15,,,,,,,,,14,,,,40,0
323684,control_change,6,0,13,,,,,,,,,12,11,110,,,
323685,control_change,9,0,11,,,,,,,,,10,11,107,,,
323688,control_change,9,0,12,,,,,,,,,11,11,107,,,
323688,control_change,6,0,14,,,,,,,,,13,11,110,,,
323690,control_change,6,0,15,,,,,,,,,14,11,110,,,
323693,control_change,9,0,13,,,,,,,,,12,11,107,,,
323694,control_change,9,0,11,,,,,,,,,10,11,104,,,
323697,control_change,9,0,14,,,,,,,,,13,11,107,,,
323697,control_change,9,0,12,,,,,,,,,11,11,104,,,
323699,control_change,9,0,15,,,,,,,,,14,11,107,,,
323700,note_on,6,0,11,,,,,,,,,10,,,,64,112
323702,control_change,9,0,13,,,,,,,,,12,11,104,,,
323703,note_on,6,0,12,,,,,,,,,11,,,,64,112
323706,control_change,9,0,14,,,,,,,,,13,11,104,,,
323708,control_change,9,0,15,,,,,,,,,14,11,104,,,
323708,note_on,6,0,13,,,,,,,,,12,,,,64,112
323712,note_on,6,0,14,,,,,,,,,13,,,,52,112
323714,note_on,6,0,15,,,,,,,,,14,,,,40,112
323730,note_on,30,0,11,,,,,,,,,10,,,,64,0
323733,note_on,30,0,12,,,,,,,,,11,,,,64,0
323738,note_on,30,0,13,,,,,,,,,12,,,,64,0
323742,note_on,30,0,14,,,,,,,,,13,,,,52,0
323744,note_on,30,0,15,,,,,,,,,14,,,,40,0
323760,note_on,30,0,11,,,,,,,,,10,,,,65,112
323762,note_on,120,0,7,,,,,,,,,6,,,,60,0
323762,note_on,0,0,7,,,,,,,,,6,,,,60,112
323763,note_on,30,0,12,,,,,,,,,11,,,,65,112
323768,note_on,30,0,13,,,,,,,,,12,,,,65,112
323772,note_on,30,0,14,,,,,,,,,13,,,,53,112
323774,note_on,30,0,15,,,,,,,,,14,,,,41,112
323775,note_on,120,0,10,,,,,,,,,15,,,,48,0
323775,note_on,0,0,10,,,,,,,,,15,,,,48,71
323790,note_on,30,0,11,,,,,,,,,10,,,,65,0
323793,note_on,30,0,12,,,,,,,,,11,,,,65,0
323798,note_on,30,0,13,,,,,,,,,12,,,,65,0
323802,note_on,30,0,14,,,,,,,,,13,,,,53,0
323804,note_on,30,0,15,,,,,,,,,14,,,,41,0
323820,note_on,30,0,11,,,,,,,,,10,,,,64,112
323823,note_on,30,0,12,,,,,,,,,11,,,,64,112
323828,note_on,30,0,13,,,,,,,,,12,,,,64,112
323832,note_on,30,0,14,,,,,,,,,13,,,,52,112
323834,note_on,30,0,15,,,,,,,,,14,,,,40,112
323850,note_on,30,0,11,,,,,,,,,10,,,,64,0
323853,note_on,30,0,12,,,,,,,,,11,,,,64,0
323858,note_on,30,0,13,,,,,,,,,12,,,,64,0
323862,note_on,30,0,14,,,,,,,,,13,,,,52,0
323864,note_on,30,0,15,,,,,,,,,14,,,,40,0
323880,note_on,30,0,11,,,,,,,,,10,,,,65,112
323880,set_tempo,240,1,0,,,,,,280374,,,,,,,,
323881,note_on,240,0,1,,,,,,,,,0,,,,84,101
323881,note_on,0,0,1,,,,,,,,,0,,,,88,101
323881,control_change,0,0,1,,,,,,,,,0,11,101,,,
323882,note_on,120,0,7,,,,,,,,,6,,,,60,0
323883,control_change,240,0,5,,,,,,,,,4,11,122,,,
323883,note_on,0,0,5,,,,,,,,,4,,,,55,100
323883,note_on,30,0,12,,,,,,,,,11,,,,65,112
323884,control_change,240,0,2,,,,,,,,,1,11,101,,,
323884,control_change,0,0,6,,,,,,,,,5,11,122,,,
323884,note_on,240,0,6,,,,,,,,,5,,,,48,100
323884,note_on,0,0,2,,,,,,,,,1,,,,79,100
323884,note_on,0,0,2,,,,,,,,,1,,,,76,100
323885,control_change,240,0,3,,,,,,,,,2,11,101,,,
323885,note_on,0,0,3,,,,,,,,,2,,,,67,101
323885,note_on,0,0,3,,,,,,,,,2,,,,72,101
323887,note_on,0,0,8,,,,,,,,,7,,,,64,110
323887,note_on,240,0,8,,,,,,,,,7,,,,55,110
323887,control_change,0,0,8,,,,,,,,,7,11,122,,,
323888,note_on,30,0,13,,,,,,,,,12,,,,65,112
323888,control_change,7,0,1,,,,,,,,,0,11,98,,,
323889,control_change,240,0,4,,,,,,,,,3,11,117,,,
323889,note_on,0,0,4,,,,,,,,,3,,,,60,100
323889,note_on,0,0,4,,,,,,,,,3,,,,64,100
323890,control_change,7,0,5,,,,,,,,,4,11,119,,,
323891,control_change,7,0,2,,,,,,,,,1,11,98,,,
323891,control_change,7,0,6,,,,,,,,,5,11,119,,,
323892,control_change,7,0,3,,,,,,,,,2,11,98,,,
323892,note_on,30,0,14,,,,,,,,,13,,,,53,112
323893,note_on,240,0,9,,,,,,,,,8,,,,48,110
323893,control_change,0,0,9,,,,,,,,,8,11,122,,,
323894,control_change,7,0,8,,,,,,,,,7,11,119,,,
323894,note_on,30,0,15,,,,,,,,,14,,,,41,112
323895,note_on,120,0,10,,,,,,,,,15,,,,48,0
323896,control_change,7,0,4,,,,,,,,,3,11,114,,,
323898,control_change,8,0,5,,,,,,,,,4,11,116,,,
323899,control_change,8,0,6,,,,,,,,,5,11,116,,,
323900,control_change,7,0,9,,,,,,,,,8,11,119,,,
323902,control_change,8,0,8,,,,,,,,,7,11,116,,,
323903,control_change,15,0,1,,,,,,,,,0,11,94,,,
323904,control_change,8,0,4,,,,,,,,,3,11,111,,,
323905,control_change,7,0,5,,,,,,,,,4,11,113,,,
323906,control_change,7,0,6,,,,,,,,,5,11,113,,,
323906,control_change,15,0,2,,,,,,,,,1,11,94,,,
323907,control_change,15,0,3,,,,,,,,,2,11,94,,,
323908,control_change,8,0,9,,,,,,,,,8,11,116,,,
323909,control_change,7,0,8,,,,,,,,,7,11,113,,,
323910,note_on,30,0,11,,,,,,,,,10,,,,65,0
323911,control_change,7,0,4,,,,,,,,,3,11,108,,,
323913,note_on,30,0,12,,,,,,,,,11,,,,65,0
323913,control_change,8,0,5,,,,,,,,,4,11,110,,,
323914,control_change,8,0,6,,,,,,,,,5,11,110,,,
323915,control_change,7,0,9,,,,,,,,,8,11,113,,,
323917,control_change,8,0,8,,,,,,,,,7,11,110,,,
323918,note_on,30,0,13,,,,,,,,,12,,,,65,0
323918,control_change,15,0,1,,,,,,,,,0,11,89,,,
323919,control_change,8,0,4,,,,,,,,,3,11,105,,,
323920,control_change,7,0,5,,,,,,,,,4,11,107,,,
323921,control_change,7,0,6,,,,,,,,,5,11,107,,,
323921,control_change,15,0,2,,,,,,,,,1,11,89,,,
323922,note_on,30,0,14,,,,,,,,,13,,,,53,0
323922,control_change,15,0,3,,,,,,,,,2,11,89,,,
323923,control_change,8,0,9,,,,,,,,,8,11,110,,,
323924,note_on,30,0,15,,,,,,,,,14,,,,41,0
323924,control_change,7,0,8,,,,,,,,,7,11,107,,,
323926,control_change,7,0,4,,,,,,,,,3,11,102,,,
323928,control_change,8,0,5,,,,,,,,,4,11,104,,,
323929,control_change,8,0,6,,,,,,,,,5,11,104,,,
323930,control_change,7,0,9,,,,,,,,,8,11,107,,,
323932,control_change,8,0,8,,,,,,,,,7,11,104,,,
323934,control_change,8,0,4,,,,,,,,,3,11,99,,,
323938,control_change,8,0,9,,,,,,,,,8,11,104,,,
323940,note_on,30,0,11,,,,,,,,,10,,,,64,112
323943,note_on,30,0,12,,,,,,,,,11,,,,64,112
323948,note_on,30,0,13,,,,,,,,,12,,,,64,112
323952,note_on,30,0,14,,,,,,,,,13,,,,52,112
323954,note_on,30,0,15,,,,,,,,,14,,,,40,112
323970,note_on,30,0,11,,,,,,,,,10,,,,64,0
323973,note_on,30,0,12,,,,,,,,,11,,,,64,0
323978,note_on,30,0,13,,,,,,,,,12,,,,64,0
323982,note_on,30,0,14,,,,,,,,,13,,,,52,0
323984,note_on,30,0,15,,,,,,,,,14,,,,40,0
324000,control_change,30,0,11,,,,,,,,,10,11,122,,,
324000,note_on,0,0,11,,,,,,,,,10,,,,60,112
324000,set_tempo,120,1,0,,,,,,265487,,,,,,,,
324001,note_on,0,0,1,,,,,,,,,0,,,,84,0
324001,note_on,83,0,1,,,,,,,,,0,,,,88,0
324002,note_on,120,0,7,,,,,,,,,6,,,,60,112
324003,control_change,30,0,12,,,,,,,,,11,11,122,,,
324003,note_on,0,0,12,,,,,,,,,11,,,,60,112
324003,note_on,75,0,5,,,,,,,,,4,,,,55,0
324004,note_on,75,0,6,,,,,,,,,5,,,,48,0
324004,note_on,0,0,2,,,,,,,,,1,,,,76,0
324004,note_on,83,0,2,,,,,,,,,1,,,,79,0
324005,note_on,0,0,3,,,,,,,,,2,,,,67,0
324005,note_on,83,0,3,,,,,,,,,2,,,,72,0
324007,note_on,75,0,8,,,,,,,,,7,,,,64,0
324007,note_on,0,0,8,,,,,,,,,7,,,,55,0
324008,control_change,0,0,13,,,,,,,,,12,11,122,,,
324008,note_on,30,0,13,,,,,,,,,12,,,,60,112
324009,note_on,0,0,4,,,,,,,,,3,,,,60,0
324009,note_on,75,0,4,,,,,,,,,3,,,,64,0
324009,control_change,9,0,11,,,,,,,,,10,11,119,,,
324012,control_change,9,0,12,,,,,,,,,11,11,119,,,
324012,note_on,30,0,14,,,,,,,,,13,,,,48,112
324012,control_change,0,0,14,,,,,,,,,13,11,122,,,
324013,note_on,75,0,9,,,,,,,,,8,,,,48,0
324014,note_on,0,0,15,,,,,,,,,14,,,,36,112
324014,control_change,30,0,15,,,,,,,,,14,11,122,,,
324015,note_on,120,0,10,,,,,,,,,15,,,,48,71
324017,control_change,9,0,13,,,,,,,,,12,11,119,,,
324018,control_change,9,0,11,,,,,,,,,10,11,116,,,
324021,control_change,9,0,12,,,,,,,,,11,11,116,,,
324021,control_change,9,0,14,,,,,,,,,13,11,119,,,
324023,control_change,9,0,15,,,,,,,,,14,11,119,,,
324026,control_change,9,0,13,,,,,,,,,12,11,116,,,
324027,control_change,9,0,11,,,,,,,,,10,11,113,,,
324030,note_on,3,0,11,,,,,,,,,10,,,,60,0
324030,control_change,9,0,14,,,,,,,,,13,11,116,,,
324030,control_change,9,0,12,,,,,,,,,11,11,113,,,
324032,control_change,9,0,15,,,,,,,,,14,11,116,,,
324033,note_on,3,0,12,,,,,,,,,11,,,,60,0
324035,control_change,9,0,13,,,,,,,,,12,11,113,,,
324036,control_change,6,0,11,,,,,,,,,10,11,110,,,
324038,note_on,3,0,13,,,,,,,,,12,,,,60,0
324039,control_change,9,0,14,,,,,,,,,13,11,113,,,
324039,control_change,6,0,12,,,,,,,,,11,11,110,,,
324041,control_change,9,0,15,,,,,,,,,14,11,113,,,
324042,note_on,3,0,14,,,,,,,,,13,,,,48,0
324044,note_on,3,0,15,,,,,,,,,14,,,,36,0
324044,control_change,6,0,13,,,,,,,,,12,11,110,,,
324045,control_change,9,0,11,,,,,,,,,10,11,107,,,
324048,control_change,6,0,14,,,,,,,,,13,11,110,,,
324048,control_change,9,0,12,,,,,,,,,11,11,107,,,
324050,control_change,6,0,15,,,,,,,,,14,11,110,,,
324053,control_change,9,0,13,,,,,,,,,12,11,107,,,
324054,control_change,9,0,11,,,,,,,,,10,11,104,,,
324057,control_change,9,0,12,,,,,,,,,11,11,104,,,
324057,control_change,9,0,14,,,,,,,,,13,11,107,,,
324059,control_change,9,0,15,,,,,,,,,14,11,107,,,
324060,note_on,6,0,11,,,,,,,,,10,,,,60,112
324062,control_change,9,0,13,,,,,,,,,12,11,104,,,
324063,note_on,6,0,12,,,,,,,,,11,,,,60,112
324066,control_change,9,0,14,,,,,,,,,13,11,104,,,
324068,note_on,6,0,13,,,,,,,,,12,,,,60,112
324068,control_change,9,0,15,,,,,,,,,14,11,104,,,
324072,note_on,6,0,14,,,,,,,,,13,,,,48,112
324074,note_on,6,0,15,,,,,,,,,14,,,,36,112
324090,note_on,30,0,11,,,,,,,,,10,,,,60,0
324093,note_on,30,0,12,,,,,,,,,11,,,,60,0
324098,note_on,30,0,13,,,,,,,,,12,,,,60,0
324102,note_on,30,0,14,,,,,,,,,13,,,,48,0
324104,note_on,30,0,15,,,,,,,,,14,,,,36,0
324120,note_on,30,0,11,,,,,,,,,10,,,,61,112
324122,note_on,0,0,7,,,,,,,,,6,,,,60,112
324122,note_on,120,0,7,,,,,,,,,6,,,,60,0
324123,note_on,30,0,12,,,,,,,,,11,,,,61,112
324128,note_on,30,0,13,,,,,,,,,12,,,,61,112
324132,note_on,30,0,14,,,,,,,,,13,,,,49,112
324134,note_on,30,0,15,,,,,,,,,14,,,,37,112
324135,note_on,0,0,10,,,,,,,,,15,,,,48,71
324135,note_on,120,0,10,,,,,,,,,15,,,,48,0
324150,note_on,30,0,11,,,,,,,,,10,,,,61,0
324153,note_on,30,0,12,,,,,,,,,11,,,,61,0
324158,note_on,30,0,13,,,,,,,,,12,,,,61,0
324162,note_on,30,0,14,,,,,,,,,13,,,,49,0
324164,note_on,30,0,15,,,,,,,,,14,,,,37,0
324180,note_on,30,0,11,,,,,,,,,10,,,,60,112
324183,note_on,30,0,12,,,,,,,,,11,,,,60,112
324188,note_on,30,0,13,,,,,,,,,12,,,,60,112
324192,note_on,30,0,14,,,,,,,,,13,,,,48,112
324194,note_on,30,0,15,,,,,,,,,14,,,,36,112
324210,note_on,30,0,11,,,,,,,,,10,,,,60,0
324213,note_on,30,0,12,,,,,,,,,11,,,,60,0
324218,note_on,30,0,13,,,,,,,,,12,,,,60,0
324222,note_on,30,0,14,,,,,,,,,13,,,,48,0
324224,note_on,30,0,15,,,,,,,,,14,,,,36,0
324240,set_tempo,240,1,0,,,,,,280374,,,,,,,,
324240,note_on,30,0,11,,,,,,,,,10,,,,61,112
324241,control_change,240,0,1,,,,,,,,,0,11,101,,,
324241,note_on,0,0,1,,,,,,,,,0,,,,84,101
324241,note_on,0,0,1,,,,,,,,,0,,,,88,101
324242,note_on,120,0,7,,,,,,,,,6,,,,60,0
324243,note_on,30,0,12,,,,,,,,,11,,,,61,112
324243,control_change,240,0,5,,,,,,,,,4,11,122,,,
324243,note_on,0,0,5,,,,,,,,,4,,,,55,100
324244,control_change,240,0,2,,,,,,,,,1,11,101,,,
324244,control_change,0,0,6,,,,,,,,,5,11,122,,,
324244,note_on,0,0,2,,,,,,,,,1,,,,76,100
324244,note_on,240,0,6,,,,,,,,,5,,,,48,100
324244,note_on,0,0,2,,,,,,,,,1,,,,79,100
324245,note_on,0,0,3,,,,,,,,,2,,,,67,101
324245,control_change,240,0,3,,,,,,,,,2,11,101,,,
324245,note_on,0,0,3,,,,,,,,,2,,,,72,101
324247,note_on,0,0,8,,,,,,,,,7,,,,55,110
324247,note_on,0,0,8,,,,,,,,,7,,,,64,110
324247,control_change,240,0,8,,,,,,,,,7,11,122,,,
324248,note_on,30,0,13,,,,,,,,,12,,,,61,112
324248,control_change,7,0,1,,,,,,,,,0,11,98,,,
324249,note_on,240,0,4,,,,,,,,,3,,,,64,100
324249,note_on,0,0,4,,,,,,,,,3,,,,60,100
324249,control_change,0,0,4,,,,,,,,,3,11,117,,,
324250,control_change,7,0,5,,,,,,,,,4,11,119,,,
324251,control_change,7,0,6,,,,,,,,,5,11,119,,,
324251,control_change,7,0,2,,,,,,,,,1,11,98,,,
324252,control_change,7,0,3,,,,,,,,,2,11,98,,,
324252,note_on,30,0,14,,,,,,,,,13,,,,49,112
324253,note_on,240,0,9,,,,,,,,,8,,,,48,110
324253,control_change,0,0,9,,,,,,,,,8,11,122,,,
324254,control_change,7,0,8,,,,,,,,,7,11,119,,,
324254,note_on,30,0,15,,,,,,,,,14,,,,37,112
324255,note_on,120,0,10,,,,,,,,,15,,,,48,0
324256,control_change,7,0,4,,,,,,,,,3,11,114,,,
324258,control_change,8,0,5,,,,,,,,,4,11,116,,,
324259,control_change,8,0,6,,,,,,,,,5,11,116,,,
324260,control_change,7,0,9,,,,,,,,,8,11,119,,,
324262,control_change,8,0,8,,,,,,,,,7,11,116,,,
324263,control_change,15,0,1,,,,,,,,,0,11,94,,,
324264,control_change,8,0,4,,,,,,,,,3,11,111,,,
324265,control_change,7,0,5,,,,,,,,,4,11,113,,,
324266,control_change,15,0,2,,,,,,,,,1,11,94,,,
324266,control_change,7,0,6,,,,,,,,,5,11,113,,,
324267,control_change,15,0,3,,,,,,,,,2,11,94,,,
324268,control_change,8,0,9,,,,,,,,,8,11,116,,,
324269,control_change,7,0,8,,,,,,,,,7,11,113,,,
324270,note_on,30,0,11,,,,,,,,,10,,,,61,0
324271,control_change,7,0,4,,,,,,,,,3,11,108,,,
324273,note_on,30,0,12,,,,,,,,,11,,,,61,0
324273,control_change,8,0,5,,,,,,,,,4,11,110,,,
324274,control_change,8,0,6,,,,,,,,,5,11,110,,,
324275,control_change,7,0,9,,,,,,,,,8,11,113,,,
324277,control_change,8,0,8,,,,,,,,,7,11,110,,,
324278,control_change,15,0,1,,,,,,,,,0,11,89,,,
324278,note_on,30,0,13,,,,,,,,,12,,,,61,0
324279,control_change,8,0,4,,,,,,,,,3,11,105,,,
324280,control_change,7,0,5,,,,,,,,,4,11,107,,,
324281,control_change,15,0,2,,,,,,,,,1,11,89,,,
324281,control_change,7,0,6,,,,,,,,,5,11,107,,,
324282,control_change,15,0,3,,,,,,,,,2,11,89,,,
324282,note_on,30,0,14,,,,,,,,,13,,,,49,0
324283,control_change,8,0,9,,,,,,,,,8,11,110,,,
324284,note_on,30,0,15,,,,,,,,,14,,,,37,0
324284,control_change,7,0,8,,,,,,,,,7,11,107,,,
324286,control_change,7,0,4,,,,,,,,,3,11,102,,,
324288,control_change,8,0,5,,,,,,,,,4,11,104,,,
324289,control_change,8,0,6,,,,,,,,,5,11,104,,,
324290,control_change,7,0,9,,,,,,,,,8,11,107,,,
324292,control_change,8,0,8,,,,,,,,,7,11,104,,,
324294,control_change,8,0,4,,,,,,,,,3,11,99,,,
324298,control_change,8,0,9,,,,,,,,,8,11,104,,,
324300,note_on,30,0,11,,,,,,,,,10,,,,60,112
324303,note_on,30,0,12,,,,,,,,,11,,,,60,112
324308,note_on,30,0,13,,,,,,,,,12,,,,60,112
324312,note_on,30,0,14,,,,,,,,,13,,,,48,112
324314,note_on,30,0,15,,,,,,,,,14,,,,36,112
324330,note_on,30,0,11,,,,,,,,,10,,,,60,0
324333,note_on,30,0,12,,,,,,,,,11,,,,60,0
324338,note_on,30,0,13,,,,,,,,,12,,,,60,0
324342,note_on,30,0,14,,,,,,,,,13,,,,48,0
324344,note_on,30,0,15,,,,,,,,,14,,,,36,0
324360,note_on,0,0,11,,,,,,,,,10,,,,77,112
324360,set_tempo,120,1,0,,,,,,265487,,,,,,,,
324360,control_change,30,0,11,,,,,,,,,10,11,122,,,
324361,note_on,0,0,1,,,,,,,,,0,,,,84,0
324361,note_on,83,0,1,,,,,,,,,0,,,,88,0
324362,note_on,0,0,7,,,,,,,,,6,,,,60,112
324362,note_on,120,0,7,,,,,,,,,6,,,,72,112
324363,control_change,0,0,12,,,,,,,,,11,11,122,,,
324363,note_on,30,0,12,,,,,,,,,11,,,,77,112
324363,note_on,75,0,5,,,,,,,,,4,,,,55,0
324364,note_on,75,0,6,,,,,,,,,5,,,,48,0
324364,note_on,83,0,2,,,,,,,,,1,,,,79,0
324364,note_on,0,0,2,,,,,,,,,1,,,,76,0
324365,note_on,83,0,3,,,,,,,,,2,,,,72,0
324365,note_on,0,0,3,,,,,,,,,2,,,,67,0
324367,note_on,0,0,8,,,,,,,,,7,,,,55,0
324367,note_on,75,0,8,,,,,,,,,7,,,,64,0
324368,control_change,0,0,13,,,,,,,,,12,11,122,,,
324368,note_on,30,0,13,,,,,,,,,12,,,,65,112
324369,note_on,0,0,4,,,,,,,,,3,,,,64,0
324369,control_change,9,0,11,,,,,,,,,10,11,119,,,
324369,note_on,75,0,4,,,,,,,,,3,,,,60,0
324372,control_change,0,0,14,,,,,,,,,13,11,122,,,
324372,note_on,30,0,14,,,,,,,,,13,,,,65,112
324372,control_change,9,0,12,,,,,,,,,11,11,119,,,
324373,note_on,75,0,9,,,,,,,,,8,,,,48,0
324374,note_on,30,0,15,,,,,,,,,14,,,,53,112
324374,control_change,0,0,15,,,,,,,,,14,11,122,,,
324375,note_on,120,0,10,,,,,,,,,15,,,,48,71
324377,control_change,9,0,13,,,,,,,,,12,11,119,,,
324378,control_change,9,0,11,,,,,,,,,10,11,116,,,
324381,control_change,9,0,12,,,,,,,,,11,11,116,,,
324381,control_change,9,0,14,,,,,,,,,13,11,119,,,
324383,control_change,9,0,15,,,,,,,,,14,11,119,,,
324386,control_change,9,0,13,,,,,,,,,12,11,116,,,
324387,control_change,9,0,11,,,,,,,,,10,11,113,,,
324390,note_on,3,0,11,,,,,,,,,10,,,,77,0
324390,control_change,9,0,14,,,,,,,,,13,11,116,,,
324390,control_change,9,0,12,,,,,,,,,11,11,113,,,
324392,control_change,9,0,15,,,,,,,,,14,11,116,,,
324393,note_on,3,0,12,,,,,,,,,11,,,,77,0
324395,control_change,9,0,13,,,,,,,,,12,11,113,,,
324396,control_change,6,0,11,,,,,,,,,10,11,110,,,
324398,note_on,3,0,13,,,,,,,,,12,,,,65,0
324399,control_change,6,0,12,,,,,,,,,11,11,110,,,
324399,control_change,9,0,14,,,,,,,,,13,11,113,,,
324401,control_change,9,0,15,,,,,,,,,14,11,113,,,
324402,note_on,3,0,14,,,,,,,,,13,,,,65,0
324404,note_on,3,0,15,,,,,,,,,14,,,,53,0
324404,control_change,6,0,13,,,,,,,,,12,11,110,,,
324405,control_change,9,0,11,,,,,,,,,10,11,107,,,
324408,control_change,6,0,14,,,,,,,,,13,11,110,,,
324408,control_change,9,0,12,,,,,,,,,11,11,107,,,
324410,control_change,6,0,15,,,,,,,,,14,11,110,,,
324413,control_change,9,0,13,,,,,,,,,12,11,107,,,
324414,control_change,9,0,11,,,,,,,,,10,11,104,,,
324417,control_change,9,0,14,,,,,,,,,13,11,107,,,
324417,control_change,9,0,12,,,,,,,,,11,11,104,,,
324419,control_change,9,0,15,,,,,,,,,14,11,107,,,
324420,note_on,6,0,11,,,,,,,,,10,,,,77,112
324422,control_change,9,0,13,,,,,,,,,12,11,104,,,
324423,note_on,6,0,12,,,,,,,,,11,,,,77,112
324426,control_change,9,0,14,,,,,,,,,13,11,104,,,
324428,control_change,9,0,15,,,,,,,,,14,11,104,,,
324428,note_on,6,0,13,,,,,,,,,12,,,,65,112
324432,note_on,6,0,14,,,,,,,,,13,,,,65,112
324434,note_on,6,0,15,,,,,,,,,14,,,,53,112
324450,note_on,30,0,11,,,,,,,,,10,,,,77,0
324453,note_on,30,0,12,,,,,,,,,11,,,,77,0
324458,note_on,30,0,13,,,,,,,,,12,,,,65,0
324462,note_on,30,0,14,,,,,,,,,13,,,,65,0
324464,note_on,30,0,15,,,,,,,,,14,,,,53,0
324480,note_on,30,0,11,,,,,,,,,10,,,,79,112
324482,note_on,120,0,7,,,,,,,,,6,,,,60,0
324482,note_on,0,0,7,,,,,,,,,6,,,,60,112
324482,note_on,0,0,7,,,,,,,,,6,,,,72,0
324482,note_on,0,0,7,,,,,,,,,6,,,,72,112
324483,note_on,30,0,12,,,,,,,,,11,,,,79,112
324488,note_on,30,0,13,,,,,,,,,12,,,,67,112
324492,note_on,30,0,14,,,,,,,,,13,,,,67,112
324494,note_on,30,0,15,,,,,,,,,14,,,,55,112
324495,note_on,120,0,10,,,,,,,,,15,,,,48,0
324495,note_on,0,0,10,,,,,,,,,15,,,,48,71
324510,note_on,30,0,11,,,,,,,,,10,,,,79,0
324513,note_on,30,0,12,,,,,,,,,11,,,,79,0
324518,note_on,30,0,13,,,,,,,,,12,,,,67,0
324522,note_on,30,0,14,,,,,,,,,13,,,,67,0
324524,note_on,30,0,15,,,,,,,,,14,,,,55,0
324540,note_on,30,0,11,,,,,,,,,10,,,,77,112
324543,note_on,30,0,12,,,,,,,,,11,,,,77,112
324548,note_on,30,0,13,,,,,,,,,12,,,,65,112
324552,note_on,30,0,14,,,,,,,,,13,,,,65,112
324554,note_on,30,0,15,,,,,,,,,14,,,,53,112
324570,note_on,30,0,11,,,,,,,,,10,,,,77,0
324573,note_on,30,0,12,,,,,,,,,11,,,,77,0
324578,note_on,30,0,13,,,,,,,,,12,,,,65,0
324582,note_on,30,0,14,,,,,,,,,13,,,,65,0
324584,note_on,30,0,15,,,,,,,,,14,,,,53,0
324600,set_tempo,240,1,0,,,,,,280374,,,,,,,,
324600,note_on,30,0,11,,,,,,,,,10,,,,79,112
324601,control_change,0,0,1,,,,,,,,,0,11,101,,,
324601,note_on,240,0,1,,,,,,,,,0,,,,89,101
324601,note_on,0,0,1,,,,,,,,,0,,,,84,101
324602,note_on,120,0,7,,,,,,,,,6,,,,72,0
324602,note_on,0,0,7,,,,,,,,,6,,,,60,0
324603,note_on,30,0,12,,,,,,,,,11,,,,79,112
324603,note_on,0,0,5,,,,,,,,,4,,,,60,100
324603,control_change,240,0,5,,,,,,,,,4,11,122,,,
324604,control_change,240,0,6,,,,,,,,,5,11,122,,,
324604,note_on,0,0,6,,,,,,,,,5,,,,48,100
324604,control_change,0,0,2,,,,,,,,,1,11,101,,,
324604,note_on,0,0,2,,,,,,,,,1,,,,80,100
324604,note_on,240,0,2,,,,,,,,,1,,,,77,100
324605,control_change,240,0,3,,,,,,,,,2,11,101,,,
324605,note_on,0,0,3,,,,,,,,,2,,,,72,101
324605,note_on,0,0,3,,,,,,,,,2,,,,68,101
324607,note_on,0,0,8,,,,,,,,,7,,,,56,110
324607,control_change,240,0,8,,,,,,,,,7,11,122,,,
324607,note_on,0,0,8,,,,,,,,,7,,,,65,110
324608,note_on,30,0,13,,,,,,,,,12,,,,67,112
324608,control_change,7,0,1,,,,,,,,,0,11,98,,,
324609,note_on,0,0,4,,,,,,,,,3,,,,56,100
324609,control_change,0,0,4,,,,,,,,,3,11,117,,,
324609,note_on,240,0,4,,,,,,,,,3,,,,65,100
324610,control_change,7,0,5,,,,,,,,,4,11,119,,,
324611,control_change,7,0,2,,,,,,,,,1,11,98,,,
324611,control_change,7,0,6,,,,,,,,,5,11,119,,,
324612,control_change,7,0,3,,,,,,,,,2,11,98,,,
324612,note_on,30,0,14,,,,,,,,,13,,,,67,112
324613,note_on,240,0,9,,,,,,,,,8,,,,48,110
324613,control_change,0,0,9,,,,,,,,,8,11,122,,,
324614,note_on,30,0,15,,,,,,,,,14,,,,55,112
324614,control_change,7,0,8,,,,,,,,,7,11,119,,,
324615,note_on,120,0,10,,,,,,,,,15,,,,48,0
324616,control_change,7,0,4,,,,,,,,,3,11,114,,,
324618,control_change,8,0,5,,,,,,,,,4,11,116,,,
324619,control_change,8,0,6,,,,,,,,,5,11,116,,,
324620,control_change,7,0,9,,,,,,,,,8,11,119,,,
324622,control_change,8,0,8,,,,,,,,,7,11,116,,,
324623,control_change,15,0,1,,,,,,,,,0,11,94,,,
324624,control_change,8,0,4,,,,,,,,,3,11,111,,,
324625,control_change,7,0,5,,,,,,,,,4,11,113,,,
324626,control_change,15,0,2,,,,,,,,,1,11,94,,,
324626,control_change,7,0,6,,,,,,,,,5,11,113,,,
324627,control_change,15,0,3,,,,,,,,,2,11,94,,,
324628,control_change,8,0,9,,,,,,,,,8,11,116,,,
324629,control_change,7,0,8,,,,,,,,,7,11,113,,,
324630,note_on,30,0,11,,,,,,,,,10,,,,79,0
324631,control_change,7,0,4,,,,,,,,,3,11,108,,,
324633,control_change,8,0,5,,,,,,,,,4,11,110,,,
324633,note_on,30,0,12,,,,,,,,,11,,,,79,0
324634,control_change,8,0,6,,,,,,,,,5,11,110,,,
324635,control_change,7,0,9,,,,,,,,,8,11,113,,,
324637,control_change,8,0,8,,,,,,,,,7,11,110,,,
324638,control_change,15,0,1,,,,,,,,,0,11,89,,,
324638,note_on,30,0,13,,,,,,,,,12,,,,67,0
324639,control_change,8,0,4,,,,,,,,,3,11,105,,,
324640,control_change,7,0,5,,,,,,,,,4,11,107,,,
324641,control_change,7,0,6,,,,,,,,,5,11,107,,,
324641,control_change,15,0,2,,,,,,,,,1,11,89,,,
324642,control_change,15,0,3,,,,,,,,,2,11,89,,,
324642,note_on,30,0,14,,,,,,,,,13,,,,67,0
324643,control_change,8,0,9,,,,,,,,,8,11,110,,,
324644,control_change,7,0,8,,,,,,,,,7,11,107,,,
324644,note_on,30,0,15,,,,,,,,,14,,,,55,0
324646,control_change,7,0,4,,,,,,,,,3,11,102,,,
324648,control_change,8,0,5,,,,,,,,,4,11,104,,,
324649,control_change,8,0,6,,,,,,,,,5,11,104,,,
324650,control_change,7,0,9,,,,,,,,,8,11,107,,,
324652,control_change,8,0,8,,,,,,,,,7,11,104,,,
324654,control_change,8,0,4,,,,,,,,,3,11,99,,,
324658,control_change,8,0,9,,,,,,,,,8,11,104,,,
324660,note_on,30,0,11,,,,,,,,,10,,,,77,112
324663,note_on,30,0,12,,,,,,,,,11,,,,77,112
324668,note_on,30,0,13,,,,,,,,,12,,,,65,112
324672,note_on,30,0,14,,,,,,,,,13,,,,65,112
324674,note_on,30,0,15,,,,,,,,,14,,,,53,112
324690,note_on,30,0,11,,,,,,,,,10,,,,77,0
324693,note_on,30,0,12,,,,,,,,,11,,,,77,0
324698,note_on,30,0,13,,,,,,,,,12,,,,65,0
324702,note_on,30,0,14,,,,,,,,,13,,,,65,0
324704,note_on,30,0,15,,,,,,,,,14,,,,53,0
324720,note_on,0,0,11,,,,,,,,,10,,,,72,112
324720,control_change,30,0,11,,,,,,,,,10,11,122,,,
324720,set_tempo,120,1,0,,,,,,265487,,,,,,,,
324721,note_on,0,0,1,,,,,,,,,0,,,,89,0
324721,note_on,83,0,1,,,,,,,,,0,,,,84,0
324722,note_on,0,0,7,,,,,,,,,6,,,,72,112
324722,note_on,120,0,7,,,,,,,,,6,,,,60,112
324723,note_on,30,0,12,,,,,,,,,11,,,,72,112
324723,control_change,0,0,12,,,,,,,,,11,11,122,,,
324723,note_on,75,0,5,,,,,,,,,4,,,,60,0
324724,note_on,75,0,6,,,,,,,,,5,,,,48,0
324724,note_on,83,0,2,,,,,,,,,1,,,,80,0
324724,note_on,0,0,2,,,,,,,,,1,,,,77,0
324725,note_on,0,0,3,,,,,,,,,2,,,,72,0
324725,note_on,83,0,3,,,,,,,,,2,,,,68,0
324727,note_on,75,0,8,,,,,,,,,7,,,,65,0
324727,note_on,0,0,8,,,,,,,,,7,,,,56,0
324728,note_on,0,0,13,,,,,,,,,12,,,,60,112
324728,control_change,30,0,13,,,,,,,,,12,11,122,,,
324729,note_on,75,0,4,,,,,,,,,3,,,,56,0
324729,note_on,0,0,4,,,,,,,,,3,,,,65,0
324729,control_change,9,0,11,,,,,,,,,10,11,119,,,
324732,control_change,9,0,12,,,,,,,,,11,11,119,,,
324732,control_change,0,0,14,,,,,,,,,13,11,122,,,
324732,note_on,30,0,14,,,,,,,,,13,,,,60,112
324733,note_on,75,0,9,,,,,,,,,8,,,,48,0
324734,note_on,30,0,15,,,,,,,,,14,,,,48,112
324734,control_change,0,0,15,,,,,,,,,14,11,122,,,
324735,note_on,120,0,10,,,,,,,,,15,,,,48,71
324737,control_change,9,0,13,,,,,,,,,12,11,119,,,
324738,control_change,9,0,11,,,,,,,,,10,11,116,,,
324741,control_change,9,0,14,,,,,,,,,13,11,119,,,
324741,control_change,9,0,12,,,,,,,,,11,11,116,,,
324743,control_change,9,0,15,,,,,,,,,14,11,119,,,
324746,control_change,9,0,13,,,,,,,,,12,11,116,,,
324747,control_change,9,0,11,,,,,,,,,10,11,113,,,
324750,control_change,9,0,12,,,,,,,,,11,11,113,,,
324750,control_change,9,0,14,,,,,,,,,13,11,116,,,
324750,note_on,3,0,11,,,,,,,,,10,,,,72,0
324752,control_change,9,0,15,,,,,,,,,14,11,116,,,
324753,note_on,3,0,12,,,,,,,,,11,,,,72,0
324755,control_change,9,0,13,,,,,,,,,12,11,113,,,
324756,control_change,6,0,11,,,,,,,,,10,11,110,,,
324758,note_on,3,0,13,,,,,,,,,12,,,,60,0
324759,control_change,6,0,12,,,,,,,,,11,11,110,,,
324759,control_change,9,0,14,,,,,,,,,13,11,113,,,
324761,control_change,9,0,15,,,,,,,,,14,11,113,,,
324762,note_on,3,0,14,,,,,,,,,13,,,,60,0
324764,note_on,3,0,15,,,,,,,,,14,,,,48,0
324764,control_change,6,0,13,,,,,,,,,12,11,110,,,
324765,control_change,9,0,11,,,,,,,,,10,11,107,,,
324768,control_change,6,0,14,,,,,,,,,13,11,110,,,
324768,control_change,9,0,12,,,,,,,,,11,11,107,,,
324770,control_change,6,0,15,,,,,,,,,14,11,110,,,
324773,control_change,9,0,13,,,,,,,,,12,11,107,,,
324774,control_change,9,0,11,,,,,,,,,10,11,104,,,
324777,control_change,9,0,14,,,,,,,,,13,11,107,,,
324777,control_change,9,0,12,,,,,,,,,11,11,104,,,
324779,control_change,9,0,15,,,,,,,,,14,11,107,,,
324780,note_on,6,0,11,,,,,,,,,10,,,,72,112
324782,control_change,9,0,13,,,,,,,,,12,11,104,,,
324783,note_on,6,0,12,,,,,,,,,11,,,,72,112
324786,control_change,9,0,14,,,,,,,,,13,11,104,,,
324788,control_change,9,0,15,,,,,,,,,14,11,104,,,
324788,note_on,6,0,13,,,,,,,,,12,,,,60,112
324792,note_on,6,0,14,,,,,,,,,13,,,,60,112
324794,note_on,6,0,15,,,,,,,,,14,,,,48,112
324810,note_on,30,0,11,,,,,,,,,10,,,,72,0
324813,note_on,30,0,12,,,,,,,,,11,,,,72,0
324818,note_on,30,0,13,,,,,,,,,12,,,,60,0
324822,note_on,30,0,14,,,,,,,,,13,,,,60,0
324824,note_on,30,0,15,,,,,,,,,14,,,,48,0
324840,note_on,30,0,11,,,,,,,,,10,,,,73,112
324842,note_on,0,0,7,,,,,,,,,6,,,,60,112
324842,note_on,0,0,7,,,,,,,,,6,,,,72,112
324842,note_on,0,0,7,,,,,,,,,6,,,,60,0
324842,note_on,120,0,7,,,,,,,,,6,,,,72,0
324843,note_on,30,0,12,,,,,,,,,11,,,,73,112
324848,note_on,30,0,13,,,,,,,,,12,,,,61,112
324852,note_on,30,0,14,,,,,,,,,13,,,,61,112
324854,note_on,30,0,15,,,,,,,,,14,,,,49,112
324855,note_on,0,0,10,,,,,,,,,15,,,,48,71
324855,note_on,120,0,10,,,,,,,,,15,,,,48,0
324870,note_on,30,0,11,,,,,,,,,10,,,,73,0
324873,note_on,30,0,12,,,,,,,,,11,,,,73,0
324878,note_on,30,0,13,,,,,,,,,12,,,,61,0
324882,note_on,30,0,14,,,,,,,,,13,,,,61,0
324884,note_on,30,0,15,,,,,,,,,14,,,,49,0
324900,note_on,30,0,11,,,,,,,,,10,,,,72,112
324903,note_on,30,0,12,,,,,,,,,11,,,,72,112
324908,note_on,30,0,13,,,,,,,,,12,,,,60,112
324912,note_on,30,0,14,,,,,,,,,13,,,,60,112
324914,note_on,30,0,15,,,,,,,,,14,,,,48,112
324930,note_on,30,0,11,,,,,,,,,10,,,,72,0
324933,note_on,30,0,12,,,,,,,,,11,,,,72,0
324938,note_on,30,0,13,,,,,,,,,12,,,,60,0
324942,note_on,30,0,14,,,,,,,,,13,,,,60,0
324944,note_on,30,0,15,,,,,,,,,14,,,,48,0
324960,set_tempo,240,1,0,,,,,,280374,,,,,,,,
324960,note_on,30,0,11,,,,,,,,,10,,,,73,112
324961,control_change,240,0,1,,,,,,,,,0,11,101,,,
324961,note_on,0,0,1,,,,,,,,,0,,,,89,101
324961,note_on,0,0,1,,,,,,,,,0,,,,84,101
324962,note_on,120,0,7,,,,,,,,,6,,,,60,0
324962,note_on,0,0,7,,,,,,,,,6,,,,72,0
324963,note_on,30,0,12,,,,,,,,,11,,,,73,112
324963,control_change,240,0,5,,,,,,,,,4,11,122,,,
324963,note_on,0,0,5,,,,,,,,,4,,,,60,100
324964,control_change,0,0,6,,,,,,,,,5,11,122,,,
324964,note_on,240,0,6,,,,,,,,,5,,,,48,100
324964,note_on,0,0,2,,,,,,,,,1,,,,77,100
324964,note_on,0,0,2,,,,,,,,,1,,,,80,100
324964,control_change,240,0,2,,,,,,,,,1,11,101,,,
324965,note_on,0,0,3,,,,,,,,,2,,,,68,101
324965,note_on,0,0,3,,,,,,,,,2,,,,72,101
324965,control_change,240,0,3,,,,,,,,,2,11,101,,,
324967,control_change,240,0,8,,,,,,,,,7,11,122,,,
324967,note_on,0,0,8,,,,,,,,,7,,,,65,110
324967,note_on,0,0,8,,,,,,,,,7,,,,56,110
324968,note_on,30,0,13,,,,,,,,,12,,,,61,112
324968,control_change,7,0,1,,,,,,,,,0,11,98,,,
324969,control_change,240,0,4,,,,,,,,,3,11,117,,,
324969,note_on,0,0,4,,,,,,,,,3,,,,65,100
324969,note_on,0,0,4,,,,,,,,,3,,,,56,100
324970,control_change,7,0,5,,,,,,,,,4,11,119,,,
324971,control_change,7,0,6,,,,,,,,,5,11,119,,,
324971,control_change,7,0,2,,,,,,,,,1,11,98,,,
324972,note_on,30,0,14,,,,,,,,,13,,,,61,112
324972,control_change,7,0,3,,,,,,,,,2,11,98,,,
324973,control_change,240,0,9,,,,,,,,,8,11,122,,,
324973,note_on,0,0,9,,,,,,,,,8,,,,48,110
324974,note_on,30,0,15,,,,,,,,,14,,,,49,112
324974,control_change,7,0,8,,,,,,,,,7,11,119,,,
324975,note_on,120,0,10,,,,,,,,,15,,,,48,0
324976,control_change,7,0,4,,,,,,,,,3,11,114,,,
324978,control_change,8,0,5,,,,,,,,,4,11,116,,,
324979,control_change,8,0,6,,,,,,,,,5,11,116,,,
324980,control_change,7,0,9,,,,,,,,,8,11,119,,,
324982,control_change,8,0,8,,,,,,,,,7,11,116,,,
324983,control_change,15,0,1,,,,,,,,,0,11,94,,,
324984,control_change,8,0,4,,,,,,,,,3,11,111,,,
324985,control_change,7,0,5,,,,,,,,,4,11,113,,,
324986,control_change,15,0,2,,,,,,,,,1,11,94,,,
324986,control_change,7,0,6,,,,,,,,,5,11,113,,,
324987,control_change,15,0,3,,,,,,,,,2,11,94,,,
324988,control_change,8,0,9,,,,,,,,,8,11,116,,,
324989,control_change,7,0,8,,,,,,,,,7,11,113,,,
324990,note_on,30,0,11,,,,,,,,,10,,,,73,0
324991,control_change,7,0,4,,,,,,,,,3,11,108,,,
324993,note_on,30,0,12,,,,,,,,,11,,,,73,0
324993,control_change,8,0,5,,,,,,,,,4,11,110,,,
324994,control_change,8,0,6,,,,,,,,,5,11,110,,,
324995,control_change,7,0,9,,,,,,,,,8,11,113,,,
324997,control_change,8,0,8,,,,,,,,,7,11,110,,,
324998,control_change,15,0,1,,,,,,,,,0,11,89,,,
324998,note_on,30,0,13,,,,,,,,,12,,,,61,0
324999,control_change,8,0,4,,,,,,,,,3,11,105,,,
325000,control_change,7,0,5,,,,,,,,,4,11,107,,,
325001,control_change,7,0,6,,,,,,,,,5,11,107,,,
325001,control_change,15,0,2,,,,,,,,,1,11,89,,,
325002,note_on,30,0,14,,,,,,,,,13,,,,61,0
325002,control_change,15,0,3,,,,,,,,,2,11,89,,,
325003,control_change,8,0,9,,,,,,,,,8,11,110,,,
325004,note_on,30,0,15,,,,,,,,,14,,,,49,0
325004,control_change,7,0,8,,,,,,,,,7,11,107,,,
325006,control_change,7,0,4,,,,,,,,,3,11,102,,,
325008,control_change,8,0,5,,,,,,,,,4,11,104,,,
325009,control_change,8,0,6,,,,,,,,,5,11,104,,,
325010,control_change,7,0,9,,,,,,,,,8,11,107,,,
325012,control_change,8,0,8,,,,,,,,,7,11,104,,,
325014,control_change,8,0,4,,,,,,,,,3,11,99,,,
325018,control_change,8,0,9,,,,,,,,,8,11,104,,,
325020,note_on,30,0,11,,,,,,,,,10,,,,72,112
325023,note_on,30,0,12,,,,,,,,,11,,,,72,112
325028,note_on,30,0,13,,,,,,,,,12,,,,60,112
325032,note_on,30,0,14,,,,,,,,,13,,,,60,112
325034,note_on,30,0,15,,,,,,,,,14,,,,48,112
325050,note_on,30,0,11,,,,,,,,,10,,,,72,0
325053,note_on,30,0,12,,,,,,,,,11,,,,72,0
325058,note_on,30,0,13,,,,,,,,,12,,,,60,0
325062,note_on,30,0,14,,,,,,,,,13,,,,60,0
325064,note_on,30,0,15,,,,,,,,,14,,,,48,0
325080,note_on,30,0,11,,,,,,,,,10,,,,68,112
325080,control_change,0,0,11,,,,,,,,,10,11,122,,,
325080,set_tempo,120,1,0,,,,,,265487,,,,,,,,
325081,note_on,83,0,1,,,,,,,,,0,,,,84,0
325081,note_on,0,0,1,,,,,,,,,0,,,,89,0
325082,note_on,0,0,7,,,,,,,,,6,,,,60,112
325082,note_on,120,0,7,,,,,,,,,6,,,,72,112
325083,note_on,0,0,12,,,,,,,,,11,,,,68,112
325083,control_change,30,0,12,,,,,,,,,11,11,122,,,
325083,note_on,75,0,5,,,,,,,,,4,,,,60,0
325084,note_on,0,0,2,,,,,,,,,1,,,,80,0
325084,note_on,75,0,6,,,,,,,,,5,,,,48,0
325084,note_on,83,0,2,,,,,,,,,1,,,,77,0
325085,note_on,0,0,3,,,,,,,,,2,,,,72,0
325085,note_on,83,0,3,,,,,,,,,2,,,,68,0
325087,note_on,0,0,8,,,,,,,,,7,,,,65,0
325087,note_on,75,0,8,,,,,,,,,7,,,,56,0
325088,control_change,30,0,13,,,,,,,,,12,11,122,,,
325088,note_on,0,0,13,,,,,,,,,12,,,,56,112
325089,note_on,75,0,4,,,,,,,,,3,,,,65,0
325089,control_change,9,0,11,,,,,,,,,10,11,119,,,
325089,note_on,0,0,4,,,,,,,,,3,,,,56,0
325092,control_change,30,0,14,,,,,,,,,13,11,122,,,
325092,note_on,0,0,14,,,,,,,,,13,,,,56,112
325092,control_change,9,0,12,,,,,,,,,11,11,119,,,
325093,note_on,75,0,9,,,,,,,,,8,,,,48,0
325094,control_change,30,0,15,,,,,,,,,14,11,122,,,
325094,note_on,0,0,15,,,,,,,,,14,,,,44,112
325095,note_on,120,0,10,,,,,,,,,15,,,,48,71
325097,control_change,9,0,13,,,,,,,,,12,11,119,,,
325098,control_change,9,0,11,,,,,,,,,10,11,116,,,
325101,control_change,9,0,12,,,,,,,,,11,11,116,,,
325101,control_change,9,0,14,,,,,,,,,13,11,119,,,
325103,control_change,9,0,15,,,,,,,,,14,11,119,,,
325106,control_change,9,0,13,,,,,,,,,12,11,116,,,
325107,control_change,9,0,11,,,,,,,,,10,11,113,,,
325110,control_change,9,0,14,,,,,,,,,13,11,116,,,
325110,note_on,3,0,11,,,,,,,,,10,,,,68,0
325110,control_change,9,0,12,,,,,,,,,11,11,113,,,
325112,control_change,9,0,15,,,,,,,,,14,11,116,,,
325113,note_on,3,0,12,,,,,,,,,11,,,,68,0
325115,control_change,9,0,13,,,,,,,,,12,11,113,,,
325116,control_change,6,0,11,,,,,,,,,10,11,110,,,
325118,note_on,3,0,13,,,,,,,,,12,,,,56,0
325119,control_change,9,0,14,,,,,,,,,13,11,113,,,
325119,control_change,6,0,12,,,,,,,,,11,11,110,,,
325121,control_change,9,0,15,,,,,,,,,14,11,113,,,
325122,note_on,3,0,14,,,,,,,,,13,,,,56,0
325124,note_on,3,0,15,,,,,,,,,14,,,,44,0
325124,control_change,6,0,13,,,,,,,,,12,11,110,,,
325125,control_change,9,0,11,,,,,,,,,10,11,107,,,
325128,control_change,6,0,14,,,,,,,,,13,11,110,,,
325128,control_change,9,0,12,,,,,,,,,11,11,107,,,
325130,control_change,6,0,15,,,,,,,,,14,11,110,,,
325133,control_change,9,0,13,,,,,,,,,12,11,107,,,
325134,control_change,9,0,11,,,,,,,,,10,11,104,,,
325137,control_change,9,0,12,,,,,,,,,11,11,104,,,
325137,control_change,9,0,14,,,,,,,,,13,11,107,,,
325139,control_change,9,0,15,,,,,,,,,14,11,107,,,
325140,note_on,6,0,11,,,,,,,,,10,,,,68,112
325142,control_change,9,0,13,,,,,,,,,12,11,104,,,
325143,note_on,6,0,12,,,,,,,,,11,,,,68,112
325146,control_change,9,0,14,,,,,,,,,13,11,104,,,
325148,note_on,6,0,13,,,,,,,,,12,,,,56,112
325148,control_change,9,0,15,,,,,,,,,14,11,104,,,
325152,note_on,6,0,14,,,,,,,,,13,,,,56,112
325154,note_on,6,0,15,,,,,,,,,14,,,,44,112
325170,note_on,30,0,11,,,,,,,,,10,,,,68,0
325173,note_on,30,0,12,,,,,,,,,11,,,,68,0
325178,note_on,30,0,13,,,,,,,,,12,,,,56,0
325182,note_on,30,0,14,,,,,,,,,13,,,,56,0
325184,note_on,30,0,15,,,,,,,,,14,,,,44,0
325200,note_on,30,0,11,,,,,,,,,10,,,,70,112
325202,note_on,120,0,7,,,,,,,,,6,,,,60,0
325202,note_on,0,0,7,,,,,,,,,6,,,,72,0
325202,note_on,0,0,7,,,,,,,,,6,,,,72,112
325202,note_on,0,0,7,,,,,,,,,6,,,,60,112
325203,note_on,30,0,12,,,,,,,,,11,,,,70,112
325208,note_on,30,0,13,,,,,,,,,12,,,,58,112
325212,note_on,30,0,14,,,,,,,,,13,,,,58,112
325214,note_on,30,0,15,,,,,,,,,14,,,,46,112
325215,note_on,120,0,10,,,,,,,,,15,,,,48,0
325215,note_on,0,0,10,,,,,,,,,15,,,,48,71
325230,note_on,30,0,11,,,,,,,,,10,,,,70,0
325233,note_on,30,0,12,,,,,,,,,11,,,,70,0
325238,note_on,30,0,13,,,,,,,,,12,,,,58,0
325242,note_on,30,0,14,,,,,,,,,13,,,,58,0
325244,note_on,30,0,15,,,,,,,,,14,,,,46,0
325260,note_on,30,0,11,,,,,,,,,10,,,,68,112
325263,note_on,30,0,12,,,,,,,,,11,,,,68,112
325268,note_on,30,0,13,,,,,,,,,12,,,,56,112
325272,note_on,30,0,14,,,,,,,,,13,,,,56,112
325274,note_on,30,0,15,,,,,,,,,14,,,,44,112
325290,note_on,30,0,11,,,,,,,,,10,,,,68,0
325293,note_on,30,0,12,,,,,,,,,11,,,,68,0
325298,note_on,30,0,13,,,,,,,,,12,,,,56,0
325302,note_on,30,0,14,,,,,,,,,13,,,,56,0
325304,note_on,30,0,15,,,,,,,,,14,,,,44,0
325320,set_tempo,240,1,0,,,,,,280374,,,,,,,,
325320,note_on,30,0,11,,,,,,,,,10,,,,70,112
325321,note_on,240,0,1,,,,,,,,,0,,,,84,101
325321,control_change,0,0,1,,,,,,,,,0,11,101,,,
325321,note_on,0,0,1,,,,,,,,,0,,,,89,101
325322,note_on,0,0,7,,,,,,,,,6,,,,72,0
325322,note_on,120,0,7,,,,,,,,,6,,,,60,0
325323,note_on,30,0,12,,,,,,,,,11,,,,70,112
325323,control_change,0,0,5,,,,,,,,,4,11,122,,,
325323,note_on,240,0,5,,,,,,,,,4,,,,60,100
325324,note_on,0,0,2,,,,,,,,,1,,,,77,100
325324,control_change,240,0,2,,,,,,,,,1,11,101,,,
325324,note_on,0,0,6,,,,,,,,,5,,,,48,100
325324,note_on,0,0,2,,,,,,,,,1,,,,80,100
325324,control_change,240,0,6,,,,,,,,,5,11,122,,,
325325,note_on,240,0,3,,,,,,,,,2,,,,72,101
325325,note_on,0,0,3,,,,,,,,,2,,,,68,101
325325,control_change,0,0,3,,,,,,,,,2,11,101,,,
325327,note_on,240,0,8,,,,,,,,,7,,,,65,110
325327,note_on,0,0,8,,,,,,,,,7,,,,56,110
325327,control_change,0,0,8,,,,,,,,,7,11,122,,,
325328,note_on,30,0,13,,,,,,,,,12,,,,58,112
325328,control_change,7,0,1,,,,,,,,,0,11,98,,,
325329,note_on,240,0,4,,,,,,,,,3,,,,65,100
325329,note_on,0,0,4,,,,,,,,,3,,,,56,100
325329,control_change,0,0,4,,,,,,,,,3,11,117,,,
325330,control_change,7,0,5,,,,,,,,,4,11,119,,,
325331,control_change,7,0,2,,,,,,,,,1,11,98,,,
325331,control_change,7,0,6,,,,,,,,,5,11,119,,,
325332,control_change,7,0,3,,,,,,,,,2,11,98,,,
325332,note_on,30,0,14,,,,,,,,,13,,,,58,112
325333,control_change,240,0,9,,,,,,,,,8,11,122,,,
325333,note_on,0,0,9,,,,,,,,,8,,,,48,110
325334,note_on,30,0,15,,,,,,,,,14,,,,46,112
325334,control_change,7,0,8,,,,,,,,,7,11,119,,,
325335,note_on,120,0,10,,,,,,,,,15,,,,48,0
325336,control_change,7,0,4,,,,,,,,,3,11,114,,,
325338,control_change,8,0,5,,,,,,,,,4,11,116,,,
325339,control_change,8,0,6,,,,,,,,,5,11,116,,,
325340,control_change,7,0,9,,,,,,,,,8,11,119,,,
325342,control_change,8,0,8,,,,,,,,,7,11,116,,,
325343,control_change,15,0,1,,,,,,,,,0,11,94,,,
325344,control_change,8,0,4,,,,,,,,,3,11,111,,,
325345,control_change,7,0,5,,,,,,,,,4,11,113,,,
325346,control_change,15,0,2,,,,,,,,,1,11,94,,,
325346,control_change,7,0,6,,,,,,,,,5,11,113,,,
325347,control_change,15,0,3,,,,,,,,,2,11,94,,,
325348,control_change,8,0,9,,,,,,,,,8,11,116,,,
325349,control_change,7,0,8,,,,,,,,,7,11,113,,,
325350,note_on,30,0,11,,,,,,,,,10,,,,70,0
325351,control_change,7,0,4,,,,,,,,,3,11,108,,,
325353,control_change,8,0,5,,,,,,,,,4,11,110,,,
325353,note_on,30,0,12,,,,,,,,,11,,,,70,0
325354,control_change,8,0,6,,,,,,,,,5,11,110,,,
325355,control_change,7,0,9,,,,,,,,,8,11,113,,,
325357,control_change,8,0,8,,,,,,,,,7,11,110,,,
325358,control_change,15,0,1,,,,,,,,,0,11,89,,,
325358,note_on,30,0,13,,,,,,,,,12,,,,58,0
325359,control_change,8,0,4,,,,,,,,,3,11,105,,,
325360,control_change,7,0,5,,,,,,,,,4,11,107,,,
325361,control_change,7,0,6,,,,,,,,,5,11,107,,,
325361,control_change,15,0,2,,,,,,,,,1,11,89,,,
325362,control_change,15,0,3,,,,,,,,,2,11,89,,,
325362,note_on,30,0,14,,,,,,,,,13,,,,58,0
325363,control_change,8,0,9,,,,,,,,,8,11,110,,,
325364,control_change,7,0,8,,,,,,,,,7,11,107,,,
325364,note_on,30,0,15,,,,,,,,,14,,,,46,0
325366,control_change,7,0,4,,,,,,,,,3,11,102,,,
325368,control_change,8,0,5,,,,,,,,,4,11,104,,,
325369,control_change,8,0,6,,,,,,,,,5,11,104,,,
325370,control_change,7,0,9,,,,,,,,,8,11,107,,,
325372,control_change,8,0,8,,,,,,,,,7,11,104,,,
325374,control_change,8,0,4,,,,,,,,,3,11,99,,,
325378,control_change,8,0,9,,,,,,,,,8,11,104,,,
325380,note_on,30,0,11,,,,,,,,,10,,,,68,112
325383,note_on,30,0,12,,,,,,,,,11,,,,68,112
325388,note_on,30,0,13,,,,,,,,,12,,,,56,112
325392,note_on,30,0,14,,,,,,,,,13,,,,56,112
325394,note_on,30,0,15,,,,,,,,,14,,,,44,112
325410,note_on,30,0,11,,,,,,,,,10,,,,68,0
325413,note_on,30,0,12,,,,,,,,,11,,,,68,0
325418,note_on,30,0,13,,,,,,,,,12,,,,56,0
325422,note_on,30,0,14,,,,,,,,,13,,,,56,0
325424,note_on,30,0,15,,,,,,,,,14,,,,44,0
325440,note_on,0,0,11,,,,,,,,,10,,,,65,112
325440,control_change,30,0,11,,,,,,,,,10,11,122,,,
325440,set_tempo,120,1,0,,,,,,265487,,,,,,,,
325441,note_on,0,0,1,,,,,,,,,0,,,,84,0
325441,note_on,83,0,1,,,,,,,,,0,,,,89,0
325442,note_on,120,0,7,,,,,,,,,6,,,,72,112
325442,note_on,0,0,7,,,,,,,,,6,,,,60,112
325443,note_on,75,0,5,,,,,,,,,4,,,,60,0
325443,control_change,30,0,12,,,,,,,,,11,11,122,,,
325443,note_on,0,0,12,,,,,,,,,11,,,,65,112
325444,note_on,83,0,2,,,,,,,,,1,,,,77,0
325444,note_on,75,0,6,,,,,,,,,5,,,,48,0
325444,note_on,0,0,2,,,,,,,,,1,,,,80,0
325445,note_on,0,0,3,,,,,,,,,2,,,,72,0
325445,note_on,83,0,3,,,,,,,,,2,,,,68,0
325447,note_on,0,0,8,,,,,,,,,7,,,,65,0
325447,note_on,75,0,8,,,,,,,,,7,,,,56,0
325448,note_on,30,0,13,,,,,,,,,12,,,,53,112
325448,control_change,0,0,13,,,,,,,,,12,11,122,,,
325449,note_on,0,0,4,,,,,,,,,3,,,,65,0
325449,control_change,9,0,11,,,,,,,,,10,11,119,,,
325449,note_on,75,0,4,,,,,,,,,3,,,,56,0
325452,control_change,9,0,12,,,,,,,,,11,11,119,,,
325452,note_on,30,0,14,,,,,,,,,13,,,,53,112
325452,control_change,0,0,14,,,,,,,,,13,11,122,,,
325453,note_on,75,0,9,,,,,,,,,8,,,,48,0
325454,note_on,30,0,15,,,,,,,,,14,,,,41,112
325454,control_change,0,0,15,,,,,,,,,14,11,122,,,
325455,note_on,120,0,10,,,,,,,,,15,,,,48,71
325457,control_change,9,0,13,,,,,,,,,12,11,119,,,
325458,control_change,9,0,11,,,,,,,,,10,11,116,,,
325461,control_change,9,0,14,,,,,,,,,13,11,119,,,
325461,control_change,9,0,12,,,,,,,,,11,11,116,,,
325463,control_change,9,0,15,,,,,,,,,14,11,119,,,
325466,control_change,9,0,13,,,,,,,,,12,11,116,,,
325467,control_change,9,0,11,,,,,,,,,10,11,113,,,
325470,control_change,9,0,14,,,,,,,,,13,11,116,,,
325470,note_on,3,0,11,,,,,,,,,10,,,,65,0
325470,control_change,9,0,12,,,,,,,,,11,11,113,,,
325472,control_change,9,0,15,,,,,,,,,14,11,116,,,
325473,note_on,3,0,12,,,,,,,,,11,,,,65,0
325475,control_change,9,0,13,,,,,,,,,12,11,113,,,
325476,control_change,6,0,11,,,,,,,,,10,11,110,,,
325478,note_on,3,0,13,,,,,,,,,12,,,,53,0
325479,control_change,9,0,14,,,,,,,,,13,11,113,,,
325479,control_change,6,0,12,,,,,,,,,11,11,110,,,
325481,control_change,9,0,15,,,,,,,,,14,11,113,,,
325482,note_on,3,0,14,,,,,,,,,13,,,,53,0
325484,note_on,3,0,15,,,,,,,,,14,,,,41,0
325484,control_change,6,0,13,,,,,,,,,12,11,110,,,
325485,control_change,9,0,11,,,,,,,,,10,11,107,,,
325488,control_change,6,0,14,,,,,,,,,13,11,110,,,
325488,control_change,9,0,12,,,,,,,,,11,11,107,,,
325490,control_change,6,0,15,,,,,,,,,14,11,110,,,
325493,control_change,9,0,13,,,,,,,,,12,11,107,,,
325494,control_change,9,0,11,,,,,,,,,10,11,104,,,
325497,control_change,9,0,12,,,,,,,,,11,11,104,,,
325497,control_change,9,0,14,,,,,,,,,13,11,107,,,
325499,control_change,9,0,15,,,,,,,,,14,11,107,,,
325500,note_on,6,0,11,,,,,,,,,10,,,,65,112
325502,control_change,9,0,13,,,,,,,,,12,11,104,,,
325503,note_on,6,0,12,,,,,,,,,11,,,,65,112
325506,control_change,9,0,14,,,,,,,,,13,11,104,,,
325508,control_change,9,0,15,,,,,,,,,14,11,104,,,
325508,note_on,6,0,13,,,,,,,,,12,,,,53,112
325512,note_on,6,0,14,,,,,,,,,13,,,,53,112
325514,note_on,6,0,15,,,,,,,,,14,,,,41,112
325530,note_on,30,0,11,,,,,,,,,10,,,,65,0
325533,note_on,30,0,12,,,,,,,,,11,,,,65,0
325538,note_on,30,0,13,,,,,,,,,12,,,,53,0
325542,note_on,30,0,14,,,,,,,,,13,,,,53,0
325544,note_on,30,0,15,,,,,,,,,14,,,,41,0
325560,note_on,30,0,11,,,,,,,,,10,,,,67,112
325562,note_on,0,0,7,,,,,,,,,6,,,,72,112
325562,note_on,0,0,7,,,,,,,,,6,,,,60,112
325562,note_on,120,0,7,,,,,,,,,6,,,,60,0
325562,note_on,0,0,7,,,,,,,,,6,,,,72,0
325563,note_on,30,0,12,,,,,,,,,11,,,,67,112
325568,note_on,30,0,13,,,,,,,,,12,,,,55,112
325572,note_on,30,0,14,,,,,,,,,13,,,,55,112
325574,note_on,30,0,15,,,,,,,,,14,,,,43,112
325575,note_on,0,0,10,,,,,,,,,15,,,,48,71
325575,note_on,120,0,10,,,,,,,,,15,,,,48,0
325590,note_on,30,0,11,,,,,,,,,10,,,,67,0
325593,note_on,30,0,12,,,,,,,,,11,,,,67,0
325598,note_on,30,0,13,,,,,,,,,12,,,,55,0
325602,note_on,30,0,14,,,,,,,,,13,,,,55,0
325604,note_on,30,0,15,,,,,,,,,14,,,,43,0
325620,note_on,30,0,11,,,,,,,,,10,,,,65,112
325623,note_on,30,0,12,,,,,,,,,11,,,,65,112
325628,note_on,30,0,13,,,,,,,,,12,,,,53,112
325632,note_on,30,0,14,,,,,,,,,13,,,,53,112
325634,note_on,30,0,15,,,,,,,,,14,,,,41,112
325650,note_on,30,0,11,,,,,,,,,10,,,,65,0
325653,note_on,30,0,12,,,,,,,,,11,,,,65,0
325658,note_on,30,0,13,,,,,,,,,12,,,,53,0
325662,note_on,30,0,14,,,,,,,,,13,,,,53,0
325664,note_on,30,0,15,,,,,,,,,14,,,,41,0
325680,set_tempo,240,1,0,,,,,,315789,,,,,,,,
325680,note_on,30,0,11,,,,,,,,,10,,,,67,112
325681,note_on,0,0,1,,,,,,,,,0,,,,84,101
325681,note_on,240,0,1,,,,,,,,,0,,,,89,101
325681,control_change,0,0,1,,,,,,,,,0,11,101,,,
325682,note_on,120,0,7,,,,,,,,,6,,,,72,0
325682,note_on,0,0,7,,,,,,,,,6,,,,60,0
325683,note_on,0,0,5,,,,,,,,,4,,,,60,100
325683,note_on,30,0,12,,,,,,,,,11,,,,67,112
325683,control_change,240,0,5,,,,,,,,,4,11,122,,,
325684,control_change,240,0,6,,,,,,,,,5,11,122,,,
325684,control_change,240,0,2,,,,,,,,,1,11,101,,,
325684,note_on,0,0,2,,,,,,,,,1,,,,80,100
325684,note_on,0,0,2,,,,,,,,,1,,,,77,100
325684,note_on,0,0,6,,,,,,,,,5,,,,48,100
325685,control_change,0,0,3,,,,,,,,,2,11,101,,,
325685,note_on,0,0,3,,,,,,,,,2,,,,72,101
325685,note_on,240,0,3,,,,,,,,,2,,,,68,101
325687,note_on,0,0,8,,,,,,,,,7,,,,56,110
325687,note_on,0,0,8,,,,,,,,,7,,,,65,110
325687,control_change,240,0,8,,,,,,,,,7,11,122,,,
325688,control_change,7,0,1,,,,,,,,,0,11,98,,,
325688,note_on,30,0,13,,,,,,,,,12,,,,55,112
325689,note_on,0,0,4,,,,,,,,,3,,,,65,100
325689,control_change,0,0,4,,,,,,,,,3,11,117,,,
325689,note_on,240,0,4,,,,,,,,,3,,,,56,100
325690,control_change,7,0,5,,,,,,,,,4,11,119,,,
325691,control_change,7,0,6,,,,,,,,,5,11,119,,,
325691,control_change,7,0,2,,,,,,,,,1,11,98,,,
325692,control_change,7,0,3,,,,,,,,,2,11,98,,,
325692,note_on,30,0,14,,,,,,,,,13,,,,55,112
325693,note_on,240,0,9,,,,,,,,,8,,,,48,110
325693,control_change,0,0,9,,,,,,,,,8,11,122,,,
325694,note_on,30,0,15,,,,,,,,,14,,,,43,112
325694,control_change,7,0,8,,,,,,,,,7,11,119,,,
325695,note_on,120,0,10,,,,,,,,,15,,,,48,0
325696,control_change,7,0,4,,,,,,,,,3,11,114,,,
325698,control_change,8,0,5,,,,,,,,,4,11,116,,,
325699,control_change,8,0,6,,,,,,,,,5,11,116,,,
325700,control_change,7,0,9,,,,,,,,,8,11,119,,,
325702,control_change,8,0,8,,,,,,,,,7,11,116,,,
325703,control_change,15,0,1,,,,,,,,,0,11,94,,,
325704,control_change,8,0,4,,,,,,,,,3,11,111,,,
325705,control_change,7,0,5,,,,,,,,,4,11,113,,,
325706,control_change,7,0,6,,,,,,,,,5,11,113,,,
325706,control_change,15,0,2,,,,,,,,,1,11,94,,,
325707,control_change,15,0,3,,,,,,,,,2,11,94,,,
325708,control_change,8,0,9,,,,,,,,,8,11,116,,,
325709,control_change,7,0,8,,,,,,,,,7,11,113,,,
325710,note_on,30,0,11,,,,,,,,,10,,,,67,0
325711,control_change,7,0,4,,,,,,,,,3,11,108,,,
325713,control_change,8,0,5,,,,,,,,,4,11,110,,,
325713,note_on,30,0,12,,,,,,,,,11,,,,67,0
325714,control_change,8,0,6,,,,,,,,,5,11,110,,,
325715,control_change,7,0,9,,,,,,,,,8,11,113,,,
325717,control_change,8,0,8,,,,,,,,,7,11,110,,,
325718,note_on,30,0,13,,,,,,,,,12,,,,55,0
325718,control_change,15,0,1,,,,,,,,,0,11,89,,,
325719,control_change,8,0,4,,,,,,,,,3,11,105,,,
325720,control_change,7,0,5,,,,,,,,,4,11,107,,,
325721,control_change,7,0,6,,,,,,,,,5,11,107,,,
325721,control_change,15,0,2,,,,,,,,,1,11,89,,,
325722,control_change,15,0,3,,,,,,,,,2,11,89,,,
325722,note_on,30,0,14,,,,,,,,,13,,,,55,0
325723,control_change,8,0,9,,,,,,,,,8,11,110,,,
325724,note_on,30,0,15,,,,,,,,,14,,,,43,0
325724,control_change,7,0,8,,,,,,,,,7,11,107,,,
325726,control_change,7,0,4,,,,,,,,,3,11,102,,,
325728,control_change,8,0,5,,,,,,,,,4,11,104,,,
325729,control_change,8,0,6,,,,,,,,,5,11,104,,,
325730,control_change,7,0,9,,,,,,,,,8,11,107,,,
325732,control_change,8,0,8,,,,,,,,,7,11,104,,,
325734,control_change,8,0,4,,,,,,,,,3,11,99,,,
325738,control_change,8,0,9,,,,,,,,,8,11,104,,,
325740,control_change,30,0,11,,,,,,,,,10,11,102,,,
325740,note_on,0,0,11,,,,,,,,,10,,,,65,112
325743,control_change,3,0,11,,,,,,,,,10,11,99,,,
325743,note_on,30,0,12,,,,,,,,,11,,,,65,112
325743,control_change,0,0,12,,,,,,,,,11,11,102,,,
325746,control_change,3,0,11,,,,,,,,,10,11,96,,,
325746,control_change,3,0,12,,,,,,,,,11,11,99,,,
325748,control_change,30,0,13,,,,,,,,,12,11,102,,,
325748,note_on,0,0,13,,,,,,,,,12,,,,53,112
325749,control_change,3,0,11,,,,,,,,,10,11,93,,,
325749,control_change,3,0,12,,,,,,,,,11,11,96,,,
325751,control_change,3,0,13,,,,,,,,,12,11,99,,,
325752,note_on,30,0,14,,,,,,,,,13,,,,53,112
325752,control_change,3,0,12,,,,,,,,,11,11,93,,,
325752,control_change,0,0,14,,,,,,,,,13,11,102,,,
325753,control_change,4,0,11,,,,,,,,,10,11,90,,,
325754,control_change,3,0,13,,,,,,,,,12,11,96,,,
325754,control_change,0,0,15,,,,,,,,,14,11,102,,,
325754,note_on,30,0,15,,,,,,,,,14,,,,41,112
325755,control_change,3,0,14,,,,,,,,,13,11,99,,,
325756,control_change,3,0,11,,,,,,,,,10,11,87,,,
325756,control_change,4,0,12,,,,,,,,,11,11,90,,,
325757,control_change,3,0,15,,,,,,,,,14,11,99,,,
325757,control_change,3,0,13,,,,,,,,,12,11,93,,,
325758,control_change,3,0,14,,,,,,,,,13,11,96,,,
325759,control_change,3,0,12,,,,,,,,,11,11,87,,,
325760,control_change,3,0,15,,,,,,,,,14,11,96,,,
325761,control_change,4,0,13,,,,,,,,,12,11,90,,,
325761,control_change,3,0,14,,,,,,,,,13,11,93,,,
325762,control_change,6,0,11,,,,,,,,,10,11,82,,,
325763,control_change,3,0,15,,,,,,,,,14,11,93,,,
325764,control_change,3,0,13,,,,,,,,,12,11,87,,,
325765,control_change,6,0,12,,,,,,,,,11,11,82,,,
325765,control_change,4,0,14,,,,,,,,,13,11,90,,,
325766,control_change,4,0,11,,,,,,,,,10,11,79,,,
325767,control_change,4,0,15,,,,,,,,,14,11,90,,,
325768,control_change,3,0,14,,,,,,,,,13,11,87,,,
325769,control_change,3,0,11,,,,,,,,,10,11,76,,,
325769,control_change,4,0,12,,,,,,,,,11,11,79,,,
325770,control_change,3,0,15,,,,,,,,,14,11,87,,,
325770,note_on,1,0,11,,,,,,,,,10,,,,65,0
325770,control_change,6,0,13,,,,,,,,,12,11,82,,,
325772,control_change,2,0,11,,,,,,,,,10,11,73,,,
325772,control_change,3,0,12,,,,,,,,,11,11,76,,,
325773,note_on,1,0,12,,,,,,,,,11,,,,65,0
325774,control_change,4,0,13,,,,,,,,,12,11,79,,,
325774,control_change,6,0,14,,,,,,,,,13,11,82,,,
325775,control_change,2,0,12,,,,,,,,,11,11,73,,,
325776,control_change,6,0,15,,,,,,,,,14,11,82,,,
325777,control_change,3,0,13,,,,,,,,,12,11,76,,,
325778,note_on,1,0,13,,,,,,,,,12,,,,53,0
325778,control_change,4,0,14,,,,,,,,,13,11,79,,,
325779,control_change,7,0,11,,,,,,,,,10,11,68,,,
325780,control_change,4,0,15,,,,,,,,,14,11,79,,,
325780,control_change,2,0,13,,,,,,,,,12,11,73,,,
325781,control_change,3,0,14,,,,,,,,,13,11,76,,,
325782,control_change,7,0,12,,,,,,,,,11,11,68,,,
325782,note_on,1,0,14,,,,,,,,,13,,,,53,0
325782,control_change,3,0,11,,,,,,,,,10,11,65,,,
325783,control_change,3,0,15,,,,,,,,,14,11,76,,,
325784,control_change,2,0,14,,,,,,,,,13,11,73,,,
325784,note_on,1,0,15,,,,,,,,,14,,,,41,0
325785,control_change,3,0,11,,,,,,,,,10,11,62,,,
325785,control_change,3,0,12,,,,,,,,,11,11,65,,,
325786,control_change,2,0,15,,,,,,,,,14,11,73,,,
325787,control_change,7,0,13,,,,,,,,,12,11,68,,,
325788,control_change,3,0,12,,,,,,,,,11,11,62,,,
325789,control_change,4,0,11,,,,,,,,,10,11,59,,,
325790,control_change,3,0,13,,,,,,,,,12,11,65,,,
325791,control_change,7,0,14,,,,,,,,,13,11,68,,,
325792,control_change,4,0,12,,,,,,,,,11,11,59,,,
325793,control_change,7,0,15,,,,,,,,,14,11,68,,,
325793,control_change,3,0,13,,,,,,,,,12,11,62,,,
325794,control_change,3,0,14,,,,,,,,,13,11,65,,,
325795,control_change,6,0,11,,,,,,,,,10,11,54,,,
325796,control_change,3,0,15,,,,,,,,,14,11,65,,,
325797,control_change,4,0,13,,,,,,,,,12,11,59,,,
325797,control_change,3,0,14,,,,,,,,,13,11,62,,,
325798,control_change,6,0,12,,,,,,,,,11,11,54,,,
325798,control_change,3,0,11,,,,,,,,,10,11,51,,,
325799,control_change,3,0,15,,,,,,,,,14,11,62,,,
325800,note_on,0,0,11,,,,,,,,,10,,,,61,112
325800,control_change,2,0,11,,,,,,,,,10,11,45,,,
325800,set_tempo,120,1,0,,,,,,254237,,,,,,,,
325801,control_change,4,0,14,,,,,,,,,13,11,59,,,
325801,note_on,83,0,1,,,,,,,,,0,,,,84,0
325801,note_on,0,0,1,,,,,,,,,0,,,,89,0
325801,control_change,3,0,12,,,,,,,,,11,11,51,,,
325803,control_change,6,0,13,,,,,,,,,12,11,54,,,
325803,note_on,75,0,5,,,,,,,,,4,,,,60,0
325803,note_on,2,0,12,,,,,,,,,11,,,,61,112
325803,control_change,4,0,15,,,,,,,,,14,11,59,,,
325803,control_change,0,0,12,,,,,,,,,11,11,45,,,
325804,note_on,0,0,2,,,,,,,,,1,,,,80,115
325804,note_on,75,0,6,,,,,,,,,5,,,,48,0
325804,note_on,83,0,2,,,,,,,,,1,,,,77,0
325804,note_on,0,0,2,,,,,,,,,1,,,,80,0
325804,control_change,0,0,2,,,,,,,,,1,11,32,,,
325804,note_on,0,0,2,,,,,,,,,1,,,,77,115
325805,note_on,0,0,3,,,,,,,,,2,,,,68,0
325805,note_on,83,0,3,,,,,,,,,2,,,,72,0
325805,note_on,0,0,3,,,,,,,,,2,,,,65,116
325805,note_on,0,0,3,,,,,,,,,2,,,,68,116
325805,control_change,0,0,3,,,,,,,,,2,11,32,,,
325806,control_change,3,0,13,,,,,,,,,12,11,51,,,
325807,control_change,6,0,14,,,,,,,,,13,11,54,,,
325807,note_on,0,0,8,,,,,,,,,7,,,,56,0
325807,note_on,75,0,8,,,,,,,,,7,,,,65,0
325808,control_change,0,0,13,,,,,,,,,12,11,45,,,
325808,note_on,2,0,13,,,,,,,,,12,,,,49,112
325809,note_on,0,0,4,,,,,,,,,3,,,,53,115
325809,control_change,0,0,4,,,,,,,,,3,11,32,,,
325809,note_on,75,0,4,,,,,,,,,3,,,,65,0
325809,control_change,6,0,15,,,,,,,,,14,11,54,,,
325809,note_on,0,0,4,,,,,,,,,3,,,,56,0
325809,note_on,0,0,4,,,,,,,,,3,,,,56,115
325810,control_change,3,0,14,,,,,,,,,13,11,51,,,
325812,control_change,3,0,15,,,,,,,,,14,11,51,,,
325812,control_change,2,0,14,,,,,,,,,13,11,45,,,
325812,note_on,0,0,14,,,,,,,,,13,,,,49,112
325813,note_on,75,0,9,,,,,,,,,8,,,,48,0
325814,control_change,2,0,15,,,,,,,,,14,11,45,,,
325814,note_on,0,0,15,,,,,,,,,14,,,,37,112
325822,control_change,18,0,2,,,,,,,,,1,11,35,,,
325823,control_change,18,0,3,,,,,,,,,2,11,35,,,
325827,control_change,18,0,4,,,,,,,,,3,11,35,,,
325838,control_change,38,0,11,,,,,,,,,10,11,45,,,
325840,control_change,18,0,2,,,,,,,,,1,11,38,,,
325841,control_change,38,0,12,,,,,,,,,11,11,45,,,
325841,control_change,18,0,3,,,,,,,,,2,11,38,,,
325845,control_change,18,0,4,,,,,,,,,3,11,38,,,
325846,control_change,38,0,13,,,,,,,,,12,11,45,,,
325850,control_change,38,0,14,,,,,,,,,13,11,45,,,
325852,control_change,38,0,15,,,,,,,,,14,11,45,,,
325858,control_change,18,0,2,,,,,,,,,1,11,41,,,
325859,control_change,18,0,3,,,,,,,,,2,11,41,,,
325863,control_change,18,0,4,,,,,,,,,3,11,41,,,
325876,control_change,38,0,11,,,,,,,,,10,11,46,,,
325876,control_change,18,0,2,,,,,,,,,1,11,44,,,
325877,control_change,18,0,3,,,,,,,,,2,11,44,,,
325879,control_change,38,0,12,,,,,,,,,11,11,46,,,
325881,control_change,18,0,4,,,,,,,,,3,11,44,,,
325884,control_change,38,0,13,,,,,,,,,12,11,46,,,
325888,control_change,38,0,14,,,,,,,,,13,11,46,,,
325890,control_change,38,0,15,,,,,,,,,14,11,46,,,
325894,control_change,18,0,2,,,,,,,,,1,11,47,,,
325895,control_change,18,0,3,,,,,,,,,2,11,47,,,
325899,control_change,18,0,4,,,,,,,,,3,11,47,,,
325912,control_change,18,0,2,,,,,,,,,1,11,50,,,
325913,control_change,18,0,3,,,,,,,,,2,11,50,,,
325915,control_change,39,0,11,,,,,,,,,10,11,47,,,
325917,control_change,18,0,4,,,,,,,,,3,11,50,,,
325918,control_change,39,0,12,,,,,,,,,11,11,47,,,
325920,set_tempo,120,1,0,,,,,,263158,,,,,,,,
325923,control_change,39,0,13,,,,,,,,,12,11,47,,,
325927,control_change,39,0,14,,,,,,,,,13,11,47,,,
325929,control_change,39,0,15,,,,,,,,,14,11,47,,,
325953,control_change,38,0,11,,,,,,,,,10,11,48,,,
325956,control_change,38,0,12,,,,,,,,,11,11,48,,,
325961,control_change,38,0,13,,,,,,,,,12,11,48,,,
325965,control_change,38,0,14,,,,,,,,,13,11,48,,,
325967,control_change,38,0,15,,,,,,,,,14,11,48,,,
325992,control_change,39,0,11,,,,,,,,,10,11,49,,,
325995,control_change,39,0,12,,,,,,,,,11,11,49,,,
326000,control_change,39,0,13,,,,,,,,,12,11,49,,,
326004,control_change,39,0,14,,,,,,,,,13,11,49,,,
326006,control_change,39,0,15,,,,,,,,,14,11,49,,,
326030,control_change,38,0,11,,,,,,,,,10,11,50,,,
326033,control_change,38,0,12,,,,,,,,,11,11,50,,,
326038,control_change,38,0,13,,,,,,,,,12,11,50,,,
326040,set_tempo,120,1,0,,,,,,288462,,,,,,,,
326040,note_on,10,0,11,,,,,,,,,10,,,,61,0
326040,note_on,0,0,11,,,,,,,,,10,,,,65,112
326042,control_change,38,0,14,,,,,,,,,13,11,50,,,
326043,note_on,0,0,12,,,,,,,,,11,,,,65,112
326043,note_on,10,0,12,,,,,,,,,11,,,,61,0
326044,control_change,38,0,15,,,,,,,,,14,11,50,,,
326045,note_on,0,0,2,,,,,,,,,1,,,,80,0
326045,note_on,133,0,2,,,,,,,,,1,,,,77,0
326046,note_on,133,0,3,,,,,,,,,2,,,,68,0
326046,note_on,0,0,3,,,,,,,,,2,,,,65,0
326048,note_on,0,0,13,,,,,,,,,12,,,,53,112
326048,note_on,10,0,13,,,,,,,,,12,,,,49,0
326050,note_on,133,0,4,,,,,,,,,3,,,,53,0
326050,note_on,0,0,4,,,,,,,,,3,,,,56,0
326052,note_on,0,0,14,,,,,,,,,13,,,,53,112
326052,note_on,10,0,14,,,,,,,,,13,,,,49,0
326054,note_on,10,0,15,,,,,,,,,14,,,,37,0
326054,note_on,0,0,15,,,,,,,,,14,,,,41,112
326068,control_change,28,0,11,,,,,,,,,10,11,50,,,
326071,control_change,28,0,12,,,,,,,,,11,11,50,,,
326076,control_change,28,0,13,,,,,,,,,12,11,50,,,
326080,control_change,28,0,14,,,,,,,,,13,11,50,,,
326082,control_change,28,0,15,,,,,,,,,14,11,50,,,
326107,control_change,39,0,11,,,,,,,,,10,11,51,,,
326110,control_change,39,0,12,,,,,,,,,11,11,51,,,
326115,control_change,39,0,13,,,,,,,,,12,11,51,,,
326119,control_change,39,0,14,,,,,,,,,13,11,51,,,
326121,control_change,39,0,15,,,,,,,,,14,11,51,,,
326145,control_change,38,0,11,,,,,,,,,10,11,52,,,
326148,control_change,38,0,12,,,,,,,,,11,11,52,,,
326150,note_on,5,0,11,,,,,,,,,10,,,,65,0
326153,note_on,5,0,12,,,,,,,,,11,,,,65,0
326153,control_change,38,0,13,,,,,,,,,12,11,52,,,
326157,control_change,38,0,14,,,,,,,,,13,11,52,,,
326158,note_on,5,0,13,,,,,,,,,12,,,,53,0
326159,control_change,38,0,15,,,,,,,,,14,11,52,,,
326160,note_on,10,0,11,,,,,,,,,10,,,,68,112
326160,set_tempo,120,1,0,,,,,,254237,,,,,,,,
326162,note_on,5,0,14,,,,,,,,,13,,,,53,0
326163,note_on,10,0,12,,,,,,,,,11,,,,68,112
326164,note_on,119,0,2,,,,,,,,,1,,,,80,115
326164,note_on,0,0,2,,,,,,,,,1,,,,77,115
326164,note_on,5,0,15,,,,,,,,,14,,,,41,0
326165,note_on,119,0,3,,,,,,,,,2,,,,68,116
326165,note_on,0,0,3,,,,,,,,,2,,,,65,116
326168,note_on,10,0,13,,,,,,,,,12,,,,56,112
326169,note_on,119,0,4,,,,,,,,,3,,,,53,115
326169,note_on,0,0,4,,,,,,,,,3,,,,56,115
326172,note_on,10,0,14,,,,,,,,,13,,,,56,112
326174,note_on,10,0,15,,,,,,,,,14,,,,44,112
326184,control_change,24,0,11,,,,,,,,,10,11,53,,,
326187,control_change,24,0,12,,,,,,,,,11,11,53,,,
326192,control_change,24,0,13,,,,,,,,,12,11,53,,,
326196,control_change,24,0,14,,,,,,,,,13,11,53,,,
326198,control_change,24,0,15,,,,,,,,,14,11,53,,,
326222,control_change,38,0,11,,,,,,,,,10,11,54,,,
326225,control_change,38,0,12,,,,,,,,,11,11,54,,,
326230,control_change,38,0,13,,,,,,,,,12,11,54,,,
326234,control_change,38,0,14,,,,,,,,,13,11,54,,,
326236,control_change,38,0,15,,,,,,,,,14,11,54,,,
326260,control_change,38,0,11,,,,,,,,,10,11,55,,,
326263,control_change,38,0,12,,,,,,,,,11,11,55,,,
326268,control_change,38,0,13,,,,,,,,,12,11,55,,,
326272,control_change,38,0,14,,,,,,,,,13,11,55,,,
326274,control_change,38,0,15,,,,,,,,,14,11,55,,,
326280,set_tempo,120,1,0,,,,,,263158,,,,,,,,
326299,control_change,39,0,11,,,,,,,,,10,11,55,,,
326302,control_change,39,0,12,,,,,,,,,11,11,55,,,
326307,control_change,39,0,13,,,,,,,,,12,11,55,,,
326311,control_change,39,0,14,,,,,,,,,13,11,55,,,
326313,control_change,39,0,15,,,,,,,,,14,11,55,,,
326337,control_change,38,0,11,,,,,,,,,10,11,56,,,
326340,control_change,38,0,12,,,,,,,,,11,11,56,,,
326345,control_change,38,0,13,,,,,,,,,12,11,56,,,
326349,control_change,38,0,14,,,,,,,,,13,11,56,,,
326351,control_change,38,0,15,,,,,,,,,14,11,56,,,
326376,control_change,39,0,11,,,,,,,,,10,11,57,,,
326379,control_change,39,0,12,,,,,,,,,11,11,57,,,
326384,control_change,39,0,13,,,,,,,,,12,11,57,,,
326388,control_change,39,0,14,,,,,,,,,13,11,57,,,
326390,control_change,39,0,15,,,,,,,,,14,11,57,,,
326400,note_on,0,0,11,,,,,,,,,10,,,,73,112
326400,note_on,24,0,11,,,,,,,,,10,,,,68,0
326400,set_tempo,120,1,0,,,,,,288462,,,,,,,,
326403,note_on,24,0,12,,,,,,,,,11,,,,68,0
326403,note_on,0,0,12,,,,,,,,,11,,,,73,112
326405,note_on,241,0,2,,,,,,,,,1,,,,77,0
326405,note_on,0,0,2,,,,,,,,,1,,,,80,0
326406,note_on,0,0,3,,,,,,,,,2,,,,68,0
326406,note_on,241,0,3,,,,,,,,,2,,,,65,0
326408,note_on,24,0,13,,,,,,,,,12,,,,56,0
326408,note_on,0,0,13,,,,,,,,,12,,,,61,112
326410,note_on,0,0,4,,,,,,,,,3,,,,53,0
326410,note_on,241,0,4,,,,,,,,,3,,,,56,0
326412,note_on,0,0,14,,,,,,,,,13,,,,61,112
326412,note_on,24,0,14,,,,,,,,,13,,,,56,0
326414,note_on,24,0,15,,,,,,,,,14,,,,44,0
326414,control_change,14,0,11,,,,,,,,,10,11,57,,,
326414,note_on,0,0,15,,,,,,,,,14,,,,49,112
326417,control_change,14,0,12,,,,,,,,,11,11,57,,,
326422,control_change,14,0,13,,,,,,,,,12,11,57,,,
326426,control_change,14,0,14,,,,,,,,,13,11,57,,,
326428,control_change,14,0,15,,,,,,,,,14,11,57,,,
326452,control_change,38,0,11,,,,,,,,,10,11,58,,,
326455,control_change,38,0,12,,,,,,,,,11,11,58,,,
326460,control_change,38,0,13,,,,,,,,,12,11,58,,,
326464,control_change,38,0,14,,,,,,,,,13,11,58,,,
326466,control_change,38,0,15,,,,,,,,,14,11,58,,,
326491,control_change,39,0,11,,,,,,,,,10,11,59,,,
326494,control_change,39,0,12,,,,,,,,,11,11,59,,,
326499,control_change,39,0,13,,,,,,,,,12,11,59,,,
326503,control_change,39,0,14,,,,,,,,,13,11,59,,,
326505,control_change,39,0,15,,,,,,,,,14,11,59,,,
326510,note_on,19,0,11,,,,,,,,,10,,,,73,0
326513,note_on,19,0,12,,,,,,,,,11,,,,73,0
326518,note_on,19,0,13,,,,,,,,,12,,,,61,0
326520,note_on,10,0,11,,,,,,,,,10,,,,77,112
326520,set_tempo,120,1,0,,,,,,254237,,,,,,,,
326522,note_on,19,0,14,,,,,,,,,13,,,,61,0
326523,note_on,10,0,12,,,,,,,,,11,,,,77,112
326524,note_on,19,0,15,,,,,,,,,14,,,,49,0
326524,note_on,0,0,2,,,,,,,,,1,,,,77,115
326524,note_on,119,0,2,,,,,,,,,1,,,,80,115
326525,note_on,119,0,3,,,,,,,,,2,,,,65,116
326525,note_on,0,0,3,,,,,,,,,2,,,,68,116
326528,note_on,10,0,13,,,,,,,,,12,,,,65,112
326529,control_change,9,0,11,,,,,,,,,10,11,59,,,
326529,note_on,119,0,4,,,,,,,,,3,,,,56,115
326529,note_on,0,0,4,,,,,,,,,3,,,,53,115
326532,control_change,9,0,12,,,,,,,,,11,11,59,,,
326532,note_on,10,0,14,,,,,,,,,13,,,,65,112
326534,note_on,10,0,15,,,,,,,,,14,,,,53,112
326537,control_change,9,0,13,,,,,,,,,12,11,59,,,
326541,control_change,9,0,14,,,,,,,,,13,11,59,,,
326543,control_change,9,0,15,,,,,,,,,14,11,59,,,
326568,control_change,39,0,11,,,,,,,,,10,11,60,,,
326571,control_change,39,0,12,,,,,,,,,11,11,60,,,
326576,control_change,39,0,13,,,,,,,,,12,11,60,,,
326580,control_change,39,0,14,,,,,,,,,13,11,60,,,
326582,control_change,39,0,15,,,,,,,,,14,11,60,,,
326606,control_change,38,0,11,,,,,,,,,10,11,61,,,
326609,control_change,38,0,12,,,,,,,,,11,11,61,,,
326614,control_change,38,0,13,,,,,,,,,12,11,61,,,
326618,control_change,38,0,14,,,,,,,,,13,11,61,,,
326620,control_change,38,0,15,,,,,,,,,14,11,61,,,
326640,set_tempo,120,1,0,,,,,,263158,,,,,,,,
326644,control_change,38,0,11,,,,,,,,,10,11,62,,,
326647,control_change,38,0,12,,,,,,,,,11,11,62,,,
326652,control_change,38,0,13,,,,,,,,,12,11,62,,,
326656,control_change,38,0,14,,,,,,,,,13,11,62,,,
326658,control_change,38,0,15,,,,,,,,,14,11,62,,,
326683,control_change,39,0,11,,,,,,,,,10,11,63,,,
326686,control_change,39,0,12,,,,,,,,,11,11,63,,,
326691,control_change,39,0,13,,,,,,,,,12,11,63,,,
326695,control_change,39,0,14,,,,,,,,,13,11,63,,,
326697,control_change,39,0,15,,,,,,,,,14,11,63,,,
326721,control_change,38,0,11,,,,,,,,,10,11,64,,,
326724,control_change,38,0,12,,,,,,,,,11,11,64,,,
326729,control_change,38,0,13,,,,,,,,,12,11,64,,,
326733,control_change,38,0,14,,,,,,,,,13,11,64,,,
326735,control_change,38,0,15,,,,,,,,,14,11,64,,,
326760,note_on,39,0,11,,,,,,,,,10,,,,77,0
326760,control_change,0,0,11,,,,,,,,,10,11,64,,,
326760,note_on,0,0,11,,,,,,,,,10,,,,80,112
326760,set_tempo,120,1,0,,,,,,288462,,,,,,,,
326763,control_change,0,0,12,,,,,,,,,11,11,64,,,
326763,note_on,39,0,12,,,,,,,,,11,,,,77,0
326763,note_on,0,0,12,,,,,,,,,11,,,,80,112
326765,note_on,0,0,2,,,,,,,,,1,,,,80,0
326765,note_on,241,0,2,,,,,,,,,1,,,,77,0
326766,note_on,0,0,3,,,,,,,,,2,,,,65,0
326766,note_on,241,0,3,,,,,,,,,2,,,,68,0
326768,note_on,0,0,13,,,,,,,,,12,,,,68,112
326768,control_change,0,0,13,,,,,,,,,12,11,64,,,
326768,note_on,39,0,13,,,,,,,,,12,,,,65,0
326770,note_on,0,0,4,,,,,,,,,3,,,,56,0
326770,note_on,241,0,4,,,,,,,,,3,,,,53,0
326772,note_on,0,0,14,,,,,,,,,13,,,,68,112
326772,note_on,39,0,14,,,,,,,,,13,,,,65,0
326772,control_change,0,0,14,,,,,,,,,13,11,64,,,
326774,note_on,0,0,15,,,,,,,,,14,,,,56,112
326774,control_change,0,0,15,,,,,,,,,14,11,64,,,
326774,note_on,39,0,15,,,,,,,,,14,,,,53,0
326870,note_on,110,0,11,,,,,,,,,10,,,,80,0
326873,note_on,110,0,12,,,,,,,,,11,,,,80,0
326878,note_on,110,0,13,,,,,,,,,12,,,,68,0
326880,set_tempo,120,1,0,,,,,,254237,,,,,,,,
326880,note_on,0,0,11,,,,,,,,,10,,,,77,112
326880,control_change,10,0,11,,,,,,,,,10,11,60,,,
326882,note_on,110,0,14,,,,,,,,,13,,,,68,0
326883,control_change,0,0,12,,,,,,,,,11,11,60,,,
326883,note_on,10,0,12,,,,,,,,,11,,,,77,112
326884,note_on,119,0,2,,,,,,,,,1,,,,77,115
326884,note_on,0,0,2,,,,,,,,,1,,,,80,115
326884,note_on,110,0,15,,,,,,,,,14,,,,56,0
326885,note_on,119,0,3,,,,,,,,,2,,,,65,116
326885,note_on,0,0,3,,,,,,,,,2,,,,68,116
326888,note_on,10,0,13,,,,,,,,,12,,,,65,112
326888,control_change,0,0,13,,,,,,,,,12,11,60,,,
326889,note_on,119,0,4,,,,,,,,,3,,,,56,115
326889,note_on,0,0,4,,,,,,,,,3,,,,53,115
326892,note_on,10,0,14,,,,,,,,,13,,,,65,112
326892,control_change,0,0,14,,,,,,,,,13,11,60,,,
326894,control_change,10,0,15,,,,,,,,,14,11,60,,,
326894,note_on,0,0,15,,,,,,,,,14,,,,53,112
326928,control_change,48,0,11,,,,,,,,,10,11,59,,,
326931,control_change,48,0,12,,,,,,,,,11,11,59,,,
326936,control_change,48,0,13,,,,,,,,,12,11,59,,,
326940,control_change,48,0,14,,,,,,,,,13,11,59,,,
326942,control_change,48,0,15,,,,,,,,,14,11,59,,,
326976,control_change,48,0,11,,,,,,,,,10,11,59,,,
326979,control_change,48,0,12,,,,,,,,,11,11,59,,,
326984,control_change,48,0,13,,,,,,,,,12,11,59,,,
326988,control_change,48,0,14,,,,,,,,,13,11,59,,,
326990,control_change,48,0,15,,,,,,,,,14,11,59,,,
327000,set_tempo,120,1,0,,,,,,263158,,,,,,,,
327024,control_change,48,0,11,,,,,,,,,10,11,58,,,
327027,control_change,48,0,12,,,,,,,,,11,11,58,,,
327032,control_change,48,0,13,,,,,,,,,12,11,58,,,
327036,control_change,48,0,14,,,,,,,,,13,11,58,,,
327038,control_change,48,0,15,,,,,,,,,14,11,58,,,
327072,control_change,48,0,11,,,,,,,,,10,11,57,,,
327075,control_change,48,0,12,,,,,,,,,11,11,57,,,
327080,control_change,48,0,13,,,,,,,,,12,11,57,,,
327084,control_change,48,0,14,,,,,,,,,13,11,57,,,
327086,control_change,48,0,15,,,,,,,,,14,11,57,,,
327120,note_on,0,0,11,,,,,,,,,10,,,,73,112
327120,set_tempo,120,1,0,,,,,,288462,,,,,,,,
327120,note_on,48,0,11,,,,,,,,,10,,,,77,0
327120,control_change,0,0,11,,,,,,,,,10,11,57,,,
327123,control_change,0,0,12,,,,,,,,,11,11,57,,,
327123,note_on,0,0,12,,,,,,,,,11,,,,73,112
327123,note_on,48,0,12,,,,,,,,,11,,,,77,0
327125,note_on,0,0,2,,,,,,,,,1,,,,77,0
327125,note_on,241,0,2,,,,,,,,,1,,,,80,0
327126,note_on,0,0,3,,,,,,,,,2,,,,65,0
327126,note_on,241,0,3,,,,,,,,,2,,,,68,0
327128,control_change,0,0,13,,,,,,,,,12,11,57,,,
327128,note_on,0,0,13,,,,,,,,,12,,,,61,112
327128,note_on,48,0,13,,,,,,,,,12,,,,65,0
327130,note_on,241,0,4,,,,,,,,,3,,,,53,0
327130,note_on,0,0,4,,,,,,,,,3,,,,56,0
327132,note_on,48,0,14,,,,,,,,,13,,,,65,0
327132,control_change,0,0,14,,,,,,,,,13,11,57,,,
327132,note_on,0,0,14,,,,,,,,,13,,,,61,112
327134,note_on,48,0,15,,,,,,,,,14,,,,53,0
327134,note_on,0,0,15,,,,,,,,,14,,,,49,112
327134,control_change,0,0,15,,,,,,,,,14,11,57,,,
327168,control_change,48,0,11,,,,,,,,,10,11,56,,,
327171,control_change,48,0,12,,,,,,,,,11,11,56,,,
327176,control_change,48,0,13,,,,,,,,,12,11,56,,,
327180,control_change,48,0,14,,,,,,,,,13,11,56,,,
327182,control_change,48,0,15,,,,,,,,,14,11,56,,,
327216,control_change,48,0,11,,,,,,,,,10,11,55,,,
327219,control_change,48,0,12,,,,,,,,,11,11,55,,,
327224,control_change,48,0,13,,,,,,,,,12,11,55,,,
327228,control_change,48,0,14,,,,,,,,,13,11,55,,,
327230,note_on,14,0,11,,,,,,,,,10,,,,73,0
327230,control_change,48,0,15,,,,,,,,,14,11,55,,,
327233,note_on,14,0,12,,,,,,,,,11,,,,73,0
327238,note_on,14,0,13,,,,,,,,,12,,,,61,0
327240,note_on,10,0,11,,,,,,,,,10,,,,68,112
327240,set_tempo,120,1,0,,,,,,254237,,,,,,,,
327242,note_on,14,0,14,,,,,,,,,13,,,,61,0
327243,note_on,10,0,12,,,,,,,,,11,,,,68,112
327244,note_on,119,0,2,,,,,,,,,1,,,,77,115
327244,control_change,0,0,2,,,,,,,,,1,11,59,,,
327244,note_on,0,0,2,,,,,,,,,1,,,,80,100
327244,note_on,14,0,15,,,,,,,,,14,,,,49,0
327245,note_on,0,0,3,,,,,,,,,2,,,,68,116
327245,note_on,119,0,3,,,,,,,,,2,,,,65,116
327248,note_on,10,0,13,,,,,,,,,12,,,,56,112
327249,control_change,0,0,4,,,,,,,,,3,11,62,,,
327249,note_on,0,0,4,,,,,,,,,3,,,,53,115
327249,note_on,119,0,4,,,,,,,,,3,,,,56,100
327252,note_on,10,0,14,,,,,,,,,13,,,,56,112
327254,note_on,10,0,15,,,,,,,,,14,,,,44,112
327264,control_change,24,0,11,,,,,,,,,10,11,55,,,
327267,control_change,24,0,12,,,,,,,,,11,11,55,,,
327272,control_change,24,0,13,,,,,,,,,12,11,55,,,
327274,note_on,30,0,2,,,,,,,,,1,,,,80,0
327276,control_change,24,0,14,,,,,,,,,13,11,55,,,
327278,control_change,24,0,15,,,,,,,,,14,11,55,,,
327279,note_on,30,0,4,,,,,,,,,3,,,,56,0
327304,note_on,30,0,2,,,,,,,,,1,,,,80,100
327309,note_on,30,0,4,,,,,,,,,3,,,,56,100
327312,control_change,48,0,11,,,,,,,,,10,11,54,,,
327315,control_change,48,0,12,,,,,,,,,11,11,54,,,
327320,control_change,48,0,13,,,,,,,,,12,11,54,,,
327324,control_change,48,0,14,,,,,,,,,13,11,54,,,
327326,control_change,48,0,15,,,,,,,,,14,11,54,,,
327334,note_on,30,0,2,,,,,,,,,1,,,,80,0
327339,note_on,30,0,4,,,,,,,,,3,,,,56,0
327360,set_tempo,120,1,0,,,,,,263158,,,,,,,,
327360,control_change,48,0,11,,,,,,,,,10,11,53,,,
327363,control_change,48,0,12,,,,,,,,,11,11,53,,,
327364,note_on,30,0,2,,,,,,,,,1,,,,82,100
327368,control_change,48,0,13,,,,,,,,,12,11,53,,,
327369,note_on,30,0,4,,,,,,,,,3,,,,58,100
327372,control_change,48,0,14,,,,,,,,,13,11,53,,,
327374,control_change,48,0,15,,,,,,,,,14,11,53,,,
327408,control_change,48,0,11,,,,,,,,,10,11,52,,,
327411,control_change,48,0,12,,,,,,,,,11,11,52,,,
327416,control_change,48,0,13,,,,,,,,,12,11,52,,,
327420,control_change,48,0,14,,,,,,,,,13,11,52,,,
327422,control_change,48,0,15,,,,,,,,,14,11,52,,,
327424,note_on,60,0,2,,,,,,,,,1,,,,82,0
327424,note_on,0,0,2,,,,,,,,,1,,,,80,100
327429,note_on,0,0,4,,,,,,,,,3,,,,56,100
327429,note_on,60,0,4,,,,,,,,,3,,,,58,0
327456,control_change,48,0,11,,,,,,,,,10,11,51,,,
327459,control_change,48,0,12,,,,,,,,,11,11,51,,,
327464,control_change,48,0,13,,,,,,,,,12,11,51,,,
327468,control_change,48,0,14,,,,,,,,,13,11,51,,,
327470,control_change,48,0,15,,,,,,,,,14,11,51,,,
327480,note_on,24,0,11,,,,,,,,,10,,,,68,0
327480,set_tempo,120,1,0,,,,,,288462,,,,,,,,
327480,note_on,0,0,11,,,,,,,,,10,,,,65,112
327483,note_on,0,0,12,,,,,,,,,11,,,,65,112
327483,note_on,24,0,12,,,,,,,,,11,,,,68,0
327484,note_on,60,0,2,,,,,,,,,1,,,,80,0
327484,note_on,0,0,2,,,,,,,,,1,,,,82,100
327488,note_on,24,0,13,,,,,,,,,12,,,,56,0
327488,note_on,0,0,13,,,,,,,,,12,,,,53,112
327489,note_on,60,0,4,,,,,,,,,3,,,,56,0
327489,note_on,0,0,4,,,,,,,,,3,,,,58,100
327492,note_on,0,0,14,,,,,,,,,13,,,,53,112
327492,note_on,24,0,14,,,,,,,,,13,,,,56,0
327494,note_on,0,0,15,,,,,,,,,14,,,,41,112
327494,note_on,24,0,15,,,,,,,,,14,,,,44,0
327504,control_change,24,0,11,,,,,,,,,10,11,50,,,
327507,control_change,24,0,12,,,,,,,,,11,11,50,,,
327512,control_change,24,0,13,,,,,,,,,12,11,50,,,
327516,control_change,24,0,14,,,,,,,,,13,11,50,,,
327518,control_change,24,0,15,,,,,,,,,14,11,50,,,
327544,note_on,0,0,2,,,,,,,,,1,,,,80,100
327544,note_on,60,0,2,,,,,,,,,1,,,,82,0
327549,note_on,60,0,4,,,,,,,,,3,,,,58,0
327549,note_on,0,0,4,,,,,,,,,3,,,,56,100
327552,control_change,48,0,11,,,,,,,,,10,11,50,,,
327555,control_change,48,0,12,,,,,,,,,11,11,50,,,
327560,control_change,48,0,13,,,,,,,,,12,11,50,,,
327564,control_change,48,0,14,,,,,,,,,13,11,50,,,
327566,control_change,48,0,15,,,,,,,,,14,11,50,,,
327590,note_on,38,0,11,,,,,,,,,10,,,,65,0
327593,note_on,38,0,12,,,,,,,,,11,,,,65,0
327598,note_on,38,0,13,,,,,,,,,12,,,,53,0
327600,set_tempo,120,1,0,,,,,,254237,,,,,,,,
327600,note_on,10,0,11,,,,,,,,,10,,,,61,112
327600,control_change,0,0,11,,,,,,,,,10,11,49,,,
327602,note_on,38,0,14,,,,,,,,,13,,,,53,0
327603,control_change,10,0,12,,,,,,,,,11,11,49,,,
327603,note_on,0,0,12,,,,,,,,,11,,,,61,112
327604,note_on,38,0,15,,,,,,,,,14,,,,41,0
327604,control_change,0,0,2,,,,,,,,,1,11,52,,,
327604,note_on,60,0,2,,,,,,,,,1,,,,80,0
327604,note_on,0,0,2,,,,,,,,,1,,,,77,0
327604,note_on,0,0,2,,,,,,,,,1,,,,77,115
327604,note_on,0,0,2,,,,,,,,,1,,,,80,115
327605,note_on,0,0,3,,,,,,,,,2,,,,68,101
327605,note_on,0,0,3,,,,,,,,,2,,,,65,116
327605,control_change,0,0,3,,,,,,,,,2,11,59,,,
327605,note_on,360,0,3,,,,,,,,,2,,,,68,0
327605,note_on,0,0,3,,,,,,,,,2,,,,65,0
327608,control_change,0,0,13,,,,,,,,,12,11,49,,,
327608,note_on,10,0,13,,,,,,,,,12,,,,49,112
327609,note_on,60,0,4,,,,,,,,,3,,,,56,0
327609,note_on,0,0,4,,,,,,,,,3,,,,53,0
327609,control_change,0,0,4,,,,,,,,,3,11,52,,,
327609,note_on,0,0,4,,,,,,,,,3,,,,53,115
327609,note_on,0,0,4,,,,,,,,,3,,,,56,115
327612,control_change,10,0,14,,,,,,,,,13,11,49,,,
327612,note_on,0,0,14,,,,,,,,,13,,,,49,112
327614,note_on,0,0,15,,,,,,,,,14,,,,37,112
327614,control_change,10,0,15,,,,,,,,,14,11,49,,,
327635,note_on,30,0,3,,,,,,,,,2,,,,68,0
327648,control_change,48,0,11,,,,,,,,,10,11,48,,,
327651,control_change,48,0,12,,,,,,,,,11,11,48,,,
327656,control_change,48,0,13,,,,,,,,,12,11,48,,,
327660,control_change,48,0,14,,,,,,,,,13,11,48,,,
327662,control_change,48,0,15,,,,,,,,,14,11,48,,,
327664,note_on,60,0,2,,,,,,,,,1,,,,80,0
327664,note_on,0,0,2,,,,,,,,,1,,,,77,0
327665,note_on,30,0,3,,,,,,,,,2,,,,68,101
327669,note_on,60,0,4,,,,,,,,,3,,,,53,0
327669,note_on,0,0,4,,,,,,,,,3,,,,56,0
327695,note_on,30,0,3,,,,,,,,,2,,,,68,0
327696,control_change,48,0,11,,,,,,,,,10,11,47,,,
327699,control_change,48,0,12,,,,,,,,,11,11,47,,,
327704,control_change,48,0,13,,,,,,,,,12,11,47,,,
327708,control_change,48,0,14,,,,,,,,,13,11,47,,,
327710,control_change,48,0,15,,,,,,,,,14,11,47,,,
327720,set_tempo,120,1,0,,,,,,263158,,,,,,,,
327724,note_on,0,0,2,,,,,,,,,1,,,,80,115
327724,note_on,60,0,2,,,,,,,,,1,,,,77,115
327725,note_on,30,0,3,,,,,,,,,2,,,,70,101
327729,note_on,0,0,4,,,,,,,,,3,,,,56,100
327729,note_on,60,0,4,,,,,,,,,3,,,,53,100
327744,control_change,48,0,11,,,,,,,,,10,11,46,,,
327747,control_change,48,0,12,,,,,,,,,11,11,46,,,
327752,control_change,48,0,13,,,,,,,,,12,11,46,,,
327756,control_change,48,0,14,,,,,,,,,13,11,46,,,
327758,control_change,48,0,15,,,,,,,,,14,11,46,,,
327784,note_on,0,0,2,,,,,,,,,1,,,,77,0
327784,note_on,60,0,2,,,,,,,,,1,,,,80,0
327785,note_on,0,0,3,,,,,,,,,2,,,,68,101
327785,note_on,60,0,3,,,,,,,,,2,,,,70,0
327789,note_on,0,0,4,,,,,,,,,3,,,,53,0
327789,note_on,60,0,4,,,,,,,,,3,,,,56,0
327792,control_change,48,0,11,,,,,,,,,10,11,45,,,
327795,control_change,48,0,12,,,,,,,,,11,11,45,,,
327800,control_change,48,0,13,,,,,,,,,12,11,45,,,
327804,control_change,48,0,14,,,,,,,,,13,11,45,,,
327806,control_change,48,0,15,,,,,,,,,14,11,45,,,
327840,control_change,0,0,11,,,,,,,,,10,11,45,,,
327840,note_on,48,0,11,,,,,,,,,10,,,,61,0
327840,note_on,0,0,11,,,,,,,,,10,,,,56,112
327840,set_tempo,120,1,0,,,,,,288462,,,,,,,,
327843,control_change,0,0,12,,,,,,,,,11,11,45,,,
327843,note_on,48,0,12,,,,,,,,,11,,,,61,0
327843,note_on,0,0,12,,,,,,,,,11,,,,56,112
327844,note_on,0,0,2,,,,,,,,,1,,,,77,115
327844,note_on,60,0,2,,,,,,,,,1,,,,80,115
327845,note_on,0,0,3,,,,,,,,,2,,,,70,101
327845,note_on,60,0,3,,,,,,,,,2,,,,68,0
327848,note_on,48,0,13,,,,,,,,,12,,,,49,0
327848,control_change,0,0,13,,,,,,,,,12,11,45,,,
327848,note_on,0,0,13,,,,,,,,,12,,,,56,112
327849,note_on,0,0,4,,,,,,,,,3,,,,56,100
327849,note_on,60,0,4,,,,,,,,,3,,,,53,100
327852,control_change,0,0,14,,,,,,,,,13,11,45,,,
327852,note_on,0,0,14,,,,,,,,,13,,,,44,112
327852,note_on,48,0,14,,,,,,,,,13,,,,49,0
327854,note_on,48,0,15,,,,,,,,,14,,,,37,0
327854,control_change,0,0,15,,,,,,,,,14,11,45,,,
327854,note_on,0,0,15,,,,,,,,,14,,,,32,112
327904,note_on,60,0,2,,,,,,,,,1,,,,77,0
327904,note_on,0,0,2,,,,,,,,,1,,,,80,0
327905,note_on,60,0,3,,,,,,,,,2,,,,70,0
327905,note_on,0,0,3,,,,,,,,,2,,,,68,101
327909,note_on,60,0,4,,,,,,,,,3,,,,56,0
327909,note_on,0,0,4,,,,,,,,,3,,,,53,0
327950,note_on,110,0,11,,,,,,,,,10,,,,56,0
327953,note_on,110,0,12,,,,,,,,,11,,,,56,0
327958,note_on,110,0,13,,,,,,,,,12,,,,56,0
327960,control_change,0,0,11,,,,,,,,,10,11,49,,,
327960,note_on,10,0,11,,,,,,,,,10,,,,61,112
327960,set_tempo,120,1,0,,,,,,254237,,,,,,,,
327962,note_on,110,0,14,,,,,,,,,13,,,,44,0
327963,control_change,0,0,12,,,,,,,,,11,11,49,,,
327963,note_on,10,0,12,,,,,,,,,11,,,,61,112
327964,note_on,0,0,2,,,,,,,,,1,,,,80,100
327964,control_change,0,0,2,,,,,,,,,1,11,37,,,
327964,note_on,60,0,2,,,,,,,,,1,,,,76,100
327964,note_on,110,0,15,,,,,,,,,14,,,,32,0
327965,note_on,0,0,3,,,,,,,,,2,,,,64,101
327965,control_change,0,0,3,,,,,,,,,2,11,37,,,
327965,note_on,0,0,3,,,,,,,,,2,,,,65,0
327965,note_on,60,0,3,,,,,,,,,2,,,,68,0
327965,note_on,0,0,3,,,,,,,,,2,,,,68,101
327968,control_change,0,0,13,,,,,,,,,12,11,49,,,
327968,note_on,10,0,13,,,,,,,,,12,,,,49,112
327969,note_on,0,0,4,,,,,,,,,3,,,,56,100
327969,control_change,0,0,4,,,,,,,,,3,11,37,,,
327969,note_on,60,0,4,,,,,,,,,3,,,,52,100
327972,control_change,10,0,14,,,,,,,,,13,11,49,,,
327972,note_on,0,0,14,,,,,,,,,13,,,,49,112
327974,note_on,0,0,15,,,,,,,,,14,,,,37,112
327974,control_change,10,0,15,,,,,,,,,14,11,49,,,
327982,control_change,18,0,2,,,,,,,,,1,11,40,,,
327983,control_change,18,0,3,,,,,,,,,2,11,40,,,
327987,control_change,18,0,4,,,,,,,,,3,11,40,,,
327998,control_change,38,0,11,,,,,,,,,10,11,50,,,
328000,control_change,18,0,2,,,,,,,,,1,11,43,,,
328001,control_change,38,0,12,,,,,,,,,11,11,50,,,
328001,control_change,18,0,3,,,,,,,,,2,11,43,,,
328005,control_change,18,0,4,,,,,,,,,3,11,43,,,
328006,control_change,38,0,13,,,,,,,,,12,11,50,,,
328010,control_change,38,0,14,,,,,,,,,13,11,50,,,
328012,control_change,38,0,15,,,,,,,,,14,11,50,,,
328018,control_change,18,0,2,,,,,,,,,1,11,46,,,
328019,control_change,18,0,3,,,,,,,,,2,11,46,,,
328023,control_change,18,0,4,,,,,,,,,3,11,46,,,
328036,control_change,18,0,2,,,,,,,,,1,11,49,,,
328036,control_change,38,0,11,,,,,,,,,10,11,50,,,
328037,control_change,18,0,3,,,,,,,,,2,11,49,,,
328039,control_change,38,0,12,,,,,,,,,11,11,50,,,
328041,control_change,18,0,4,,,,,,,,,3,11,49,,,
328044,control_change,38,0,13,,,,,,,,,12,11,50,,,
328048,control_change,38,0,14,,,,,,,,,13,11,50,,,
328050,control_change,38,0,15,,,,,,,,,14,11,50,,,
328054,control_change,18,0,2,,,,,,,,,1,11,52,,,
328055,control_change,18,0,3,,,,,,,,,2,11,52,,,
328059,control_change,18,0,4,,,,,,,,,3,11,52,,,
328072,control_change,18,0,2,,,,,,,,,1,11,54,,,
328073,control_change,18,0,3,,,,,,,,,2,11,54,,,
328075,control_change,39,0,11,,,,,,,,,10,11,51,,,
328077,control_change,18,0,4,,,,,,,,,3,11,55,,,
328078,control_change,39,0,12,,,,,,,,,11,11,51,,,
328080,set_tempo,120,1,0,,,,,,263158,,,,,,,,
328083,control_change,39,0,13,,,,,,,,,12,11,51,,,
328087,control_change,39,0,14,,,,,,,,,13,11,51,,,
328089,control_change,39,0,15,,,,,,,,,14,11,51,,,
328113,control_change,38,0,11,,,,,,,,,10,11,52,,,
328116,control_change,38,0,12,,,,,,,,,11,11,52,,,
328121,control_change,38,0,13,,,,,,,,,12,11,52,,,
328125,control_change,38,0,14,,,,,,,,,13,11,52,,,
328127,control_change,38,0,15,,,,,,,,,14,11,52,,,
328152,control_change,39,0,11,,,,,,,,,10,11,53,,,
328155,control_change,39,0,12,,,,,,,,,11,11,53,,,
328160,control_change,39,0,13,,,,,,,,,12,11,53,,,
328164,control_change,39,0,14,,,,,,,,,13,11,53,,,
328166,control_change,39,0,15,,,,,,,,,14,11,53,,,
328190,control_change,38,0,11,,,,,,,,,10,11,54,,,
328193,control_change,38,0,12,,,,,,,,,11,11,54,,,
328198,control_change,38,0,13,,,,,,,,,12,11,54,,,
328200,set_tempo,120,1,0,,,,,,288462,,,,,,,,
328200,note_on,0,0,11,,,,,,,,,10,,,,64,112
328200,note_on,10,0,11,,,,,,,,,10,,,,61,0
328202,control_change,38,0,14,,,,,,,,,13,11,54,,,
328203,note_on,0,0,12,,,,,,,,,11,,,,64,112
328203,note_on,10,0,12,,,,,,,,,11,,,,61,0
328204,control_change,38,0,15,,,,,,,,,14,11,54,,,
328205,note_on,133,0,2,,,,,,,,,1,,,,80,0
328205,note_on,0,0,2,,,,,,,,,1,,,,76,0
328206,note_on,133,0,3,,,,,,,,,2,,,,64,0
328206,note_on,0,0,3,,,,,,,,,2,,,,68,0
328208,note_on,0,0,13,,,,,,,,,12,,,,52,112
328208,note_on,10,0,13,,,,,,,,,12,,,,49,0
328210,note_on,0,0,4,,,,,,,,,3,,,,52,0
328210,note_on,133,0,4,,,,,,,,,3,,,,56,0
328212,note_on,0,0,14,,,,,,,,,13,,,,52,112
328212,note_on,10,0,14,,,,,,,,,13,,,,49,0
328214,note_on,0,0,15,,,,,,,,,14,,,,40,112
328214,note_on,10,0,15,,,,,,,,,14,,,,37,0
328228,control_change,28,0,11,,,,,,,,,10,11,55,,,
328231,control_change,28,0,12,,,,,,,,,11,11,55,,,
328236,control_change,28,0,13,,,,,,,,,12,11,55,,,
328240,control_change,28,0,14,,,,,,,,,13,11,55,,,
328242,control_change,28,0,15,,,,,,,,,14,11,55,,,
328267,control_change,39,0,11,,,,,,,,,10,11,55,,,
328270,control_change,39,0,12,,,,,,,,,11,11,55,,,
328275,control_change,39,0,13,,,,,,,,,12,11,55,,,
328279,control_change,39,0,14,,,,,,,,,13,11,55,,,
328281,control_change,39,0,15,,,,,,,,,14,11,55,,,
328305,control_change,38,0,11,,,,,,,,,10,11,56,,,
328308,control_change,38,0,12,,,,,,,,,11,11,56,,,
328310,note_on,5,0,11,,,,,,,,,10,,,,64,0
328313,note_on,5,0,12,,,,,,,,,11,,,,64,0
328313,control_change,38,0,13,,,,,,,,,12,11,56,,,
328317,control_change,38,0,14,,,,,,,,,13,11,56,,,
328318,note_on,5,0,13,,,,,,,,,12,,,,52,0
328319,control_change,38,0,15,,,,,,,,,14,11,56,,,
328320,note_on,10,0,11,,,,,,,,,10,,,,68,112
328320,set_tempo,120,1,0,,,,,,254237,,,,,,,,
328322,note_on,5,0,14,,,,,,,,,13,,,,52,0
328323,note_on,10,0,12,,,,,,,,,11,,,,68,112
328324,note_on,5,0,15,,,,,,,,,14,,,,40,0
328324,note_on,0,0,2,,,,,,,,,1,,,,76,100
328324,note_on,119,0,2,,,,,,,,,1,,,,80,100
328325,note_on,0,0,3,,,,,,,,,2,,,,68,101
328325,note_on,119,0,3,,,,,,,,,2,,,,64,101
328328,note_on,10,0,13,,,,,,,,,12,,,,56,112
328329,note_on,119,0,4,,,,,,,,,3,,,,52,100
328329,note_on,0,0,4,,,,,,,,,3,,,,56,100
328332,note_on,10,0,14,,,,,,,,,13,,,,56,112
328334,note_on,10,0,15,,,,,,,,,14,,,,44,112
328344,control_change,24,0,11,,,,,,,,,10,11,57,,,
328347,control_change,24,0,12,,,,,,,,,11,11,57,,,
328352,control_change,24,0,13,,,,,,,,,12,11,57,,,
328356,control_change,24,0,14,,,,,,,,,13,11,57,,,
328358,control_change,24,0,15,,,,,,,,,14,11,57,,,
328382,control_change,38,0,11,,,,,,,,,10,11,57,,,
328385,control_change,38,0,12,,,,,,,,,11,11,57,,,
328390,control_change,38,0,13,,,,,,,,,12,11,57,,,
328394,control_change,38,0,14,,,,,,,,,13,11,57,,,
328396,control_change,38,0,15,,,,,,,,,14,11,57,,,
328420,control_change,38,0,11,,,,,,,,,10,11,58,,,
328423,control_change,38,0,12,,,,,,,,,11,11,58,,,
328428,control_change,38,0,13,,,,,,,,,12,11,58,,,
328432,control_change,38,0,14,,,,,,,,,13,11,58,,,
328434,control_change,38,0,15,,,,,,,,,14,11,58,,,
328440,set_tempo,120,1,0,,,,,,263158,,,,,,,,
328459,control_change,39,0,11,,,,,,,,,10,11,59,,,
328462,control_change,39,0,12,,,,,,,,,11,11,59,,,
328467,control_change,39,0,13,,,,,,,,,12,11,59,,,
328471,control_change,39,0,14,,,,,,,,,13,11,59,,,
328473,control_change,39,0,15,,,,,,,,,14,11,59,,,
328497,control_change,38,0,11,,,,,,,,,10,11,59,,,
328500,control_change,38,0,12,,,,,,,,,11,11,59,,,
328505,control_change,38,0,13,,,,,,,,,12,11,59,,,
328509,control_change,38,0,14,,,,,,,,,13,11,59,,,
328511,control_change,38,0,15,,,,,,,,,14,11,59,,,
328536,control_change,39,0,11,,,,,,,,,10,11,60,,,
328539,control_change,39,0,12,,,,,,,,,11,11,60,,,
328544,control_change,39,0,13,,,,,,,,,12,11,60,,,
328548,control_change,39,0,14,,,,,,,,,13,11,60,,,
328550,control_change,39,0,15,,,,,,,,,14,11,60,,,
328560,note_on,0,0,11,,,,,,,,,10,,,,73,112
328560,note_on,24,0,11,,,,,,,,,10,,,,68,0
328560,set_tempo,120,1,0,,,,,,288462,,,,,,,,
328563,note_on,0,0,12,,,,,,,,,11,,,,73,112
328563,note_on,24,0,12,,,,,,,,,11,,,,68,0
328565,note_on,241,0,2,,,,,,,,,1,,,,76,0
328565,note_on,0,0,2,,,,,,,,,1,,,,80,0
328566,note_on,0,0,3,,,,,,,,,2,,,,64,0
328566,note_on,241,0,3,,,,,,,,,2,,,,68,0
328568,note_on,0,0,13,,,,,,,,,12,,,,61,112
328568,note_on,24,0,13,,,,,,,,,12,,,,56,0
328570,note_on,0,0,4,,,,,,,,,3,,,,52,0
328570,note_on,241,0,4,,,,,,,,,3,,,,56,0
328572,note_on,0,0,14,,,,,,,,,13,,,,61,112
328572,note_on,24,0,14,,,,,,,,,13,,,,56,0
328574,note_on,24,0,15,,,,,,,,,14,,,,44,0
328574,note_on,0,0,15,,,,,,,,,14,,,,49,112
328574,control_change,14,0,11,,,,,,,,,10,11,61,,,
328577,control_change,14,0,12,,,,,,,,,11,11,61,,,
328582,control_change,14,0,13,,,,,,,,,12,11,61,,,
328586,control_change,14,0,14,,,,,,,,,13,11,61,,,
328588,control_change,14,0,15,,,,,,,,,14,11,61,,,
328612,control_change,38,0,11,,,,,,,,,10,11,62,,,
328615,control_change,38,0,12,,,,,,,,,11,11,62,,,
328620,control_change,38,0,13,,,,,,,,,12,11,62,,,
328624,control_change,38,0,14,,,,,,,,,13,11,62,,,
328626,control_change,38,0,15,,,,,,,,,14,11,62,,,
328651,control_change,39,0,11,,,,,,,,,10,11,63,,,
328654,control_change,39,0,12,,,,,,,,,11,11,63,,,
328659,control_change,39,0,13,,,,,,,,,12,11,63,,,
328663,control_change,39,0,14,,,,,,,,,13,11,63,,,
328665,control_change,39,0,15,,,,,,,,,14,11,63,,,
328670,note_on,19,0,11,,,,,,,,,10,,,,73,0
328673,note_on,19,0,12,,,,,,,,,11,,,,73,0
328678,note_on,19,0,13,,,,,,,,,12,,,,61,0
328680,note_on,10,0,11,,,,,,,,,10,,,,76,112
328680,set_tempo,120,1,0,,,,,,254237,,,,,,,,
328682,note_on,19,0,14,,,,,,,,,13,,,,61,0
328683,note_on,10,0,12,,,,,,,,,11,,,,76,112
328684,note_on,19,0,15,,,,,,,,,14,,,,49,0
328684,note_on,119,0,2,,,,,,,,,1,,,,76,100
328684,note_on,0,0,2,,,,,,,,,1,,,,80,100
328685,note_on,0,0,3,,,,,,,,,2,,,,68,101
328685,note_on,119,0,3,,,,,,,,,2,,,,64,101
328688,note_on,10,0,13,,,,,,,,,12,,,,64,112
328689,control_change,9,0,11,,,,,,,,,10,11,64,,,
328689,note_on,119,0,4,,,,,,,,,3,,,,52,100
328689,note_on,0,0,4,,,,,,,,,3,,,,56,100
328692,control_change,9,0,12,,,,,,,,,11,11,64,,,
328692,note_on,10,0,14,,,,,,,,,13,,,,64,112
328694,note_on,10,0,15,,,,,,,,,14,,,,52,112
328697,control_change,9,0,13,,,,,,,,,12,11,64,,,
328701,control_change,9,0,14,,,,,,,,,13,11,64,,,
328703,control_change,9,0,15,,,,,,,,,14,11,64,,,
328728,control_change,39,0,11,,,,,,,,,10,11,64,,,
328731,control_change,39,0,12,,,,,,,,,11,11,64,,,
328736,control_change,39,0,13,,,,,,,,,12,11,64,,,
328740,control_change,39,0,14,,,,,,,,,13,11,64,,,
328742,control_change,39,0,15,,,,,,,,,14,11,64,,,
328766,control_change,38,0,11,,,,,,,,,10,11,65,,,
328769,control_change,38,0,12,,,,,,,,,11,11,65,,,
328774,control_change,38,0,13,,,,,,,,,12,11,65,,,
328778,control_change,38,0,14,,,,,,,,,13,11,65,,,
328780,control_change,38,0,15,,,,,,,,,14,11,65,,,
328800,set_tempo,120,1,0,,,,,,263158,,,,,,,,
328804,control_change,38,0,11,,,,,,,,,10,11,66,,,
328807,control_change,38,0,12,,,,,,,,,11,11,66,,,
328812,control_change,38,0,13,,,,,,,,,12,11,66,,,
328816,control_change,38,0,14,,,,,,,,,13,11,66,,,
328818,control_change,38,0,15,,,,,,,,,14,11,66,,,
328843,control_change,39,0,11,,,,,,,,,10,11,67,,,
328846,control_change,39,0,12,,,,,,,,,11,11,67,,,
328851,control_change,39,0,13,,,,,,,,,12,11,67,,,
328855,control_change,39,0,14,,,,,,,,,13,11,67,,,
328857,control_change,39,0,15,,,,,,,,,14,11,67,,,
328881,control_change,38,0,11,,,,,,,,,10,11,68,,,
328884,control_change,38,0,12,,,,,,,,,11,11,68,,,
328889,control_change,38,0,13,,,,,,,,,12,11,68,,,
328893,control_change,38,0,14,,,,,,,,,13,11,68,,,
328895,control_change,38,0,15,,,,,,,,,14,11,68,,,
328920,set_tempo,120,1,0,,,,,,288462,,,,,,,,
328920,note_on,39,0,11,,,,,,,,,10,,,,76,0
328920,control_change,0,0,11,,,,,,,,,10,11,69,,,
328920,note_on,0,0,11,,,,,,,,,10,,,,80,112
328923,note_on,39,0,12,,,,,,,,,11,,,,76,0
328923,note_on,0,0,12,,,,,,,,,11,,,,80,112
328923,control_change,0,0,12,,,,,,,,,11,11,69,,,
328925,note_on,241,0,2,,,,,,,,,1,,,,80,0
328925,note_on,0,0,2,,,,,,,,,1,,,,76,0
328926,note_on,0,0,3,,,,,,,,,2,,,,64,0
328926,note_on,241,0,3,,,,,,,,,2,,,,68,0
328928,note_on,39,0,13,,,,,,,,,12,,,,64,0
328928,control_change,0,0,13,,,,,,,,,12,11,69,,,
328928,note_on,0,0,13,,,,,,,,,12,,,,68,112
328930,note_on,241,0,4,,,,,,,,,3,,,,56,0
328930,note_on,0,0,4,,,,,,,,,3,,,,52,0
328932,control_change,0,0,14,,,,,,,,,13,11,69,,,
328932,note_on,39,0,14,,,,,,,,,13,,,,64,0
328932,note_on,0,0,14,,,,,,,,,13,,,,68,112
328934,note_on,39,0,15,,,,,,,,,14,,,,52,0
328934,control_change,0,0,15,,,,,,,,,14,11,69,,,
328934,note_on,0,0,15,,,,,,,,,14,,,,56,112
329030,note_on,110,0,11,,,,,,,,,10,,,,80,0
329033,note_on,110,0,12,,,,,,,,,11,,,,80,0
329038,note_on,110,0,13,,,,,,,,,12,,,,68,0
329040,note_on,10,0,11,,,,,,,,,10,,,,76,112
329040,set_tempo,120,1,0,,,,,,254237,,,,,,,,
329040,control_change,0,0,11,,,,,,,,,10,11,64,,,
329042,note_on,110,0,14,,,,,,,,,13,,,,68,0
329043,note_on,10,0,12,,,,,,,,,11,,,,76,112
329043,control_change,0,0,12,,,,,,,,,11,11,64,,,
329044,note_on,119,0,2,,,,,,,,,1,,,,80,100
329044,note_on,0,0,2,,,,,,,,,1,,,,76,100
329044,note_on,110,0,15,,,,,,,,,14,,,,56,0
329045,note_on,119,0,3,,,,,,,,,2,,,,64,101
329045,note_on,0,0,3,,,,,,,,,2,,,,68,101
329048,note_on,10,0,13,,,,,,,,,12,,,,64,112
329048,control_change,0,0,13,,,,,,,,,12,11,64,,,
329049,note_on,119,0,4,,,,,,,,,3,,,,52,100
329049,note_on,0,0,4,,,,,,,,,3,,,,56,100
329052,control_change,10,0,14,,,,,,,,,13,11,64,,,
329052,note_on,0,0,14,,,,,,,,,13,,,,64,112
329054,control_change,10,0,15,,,,,,,,,14,11,64,,,
329054,note_on,0,0,15,,,,,,,,,14,,,,52,112
329104,control_change,64,0,11,,,,,,,,,10,11,64,,,
329107,control_change,64,0,12,,,,,,,,,11,11,64,,,
329112,control_change,64,0,13,,,,,,,,,12,11,64,,,
329116,control_change,64,0,14,,,,,,,,,13,11,64,,,
329118,control_change,64,0,15,,,,,,,,,14,11,64,,,
329160,set_tempo,120,1,0,,,,,,263158,,,,,,,,
329168,control_change,64,0,11,,,,,,,,,10,11,63,,,
329171,control_change,64,0,12,,,,,,,,,11,11,63,,,
329176,control_change,64,0,13,,,,,,,,,12,11,63,,,
329180,control_change,64,0,14,,,,,,,,,13,11,63,,,
329182,control_change,64,0,15,,,,,,,,,14,11,63,,,
329232,control_change,64,0,11,,,,,,,,,10,11,62,,,
329235,control_change,64,0,12,,,,,,,,,11,11,62,,,
329240,control_change,64,0,13,,,,,,,,,12,11,62,,,
329244,control_change,64,0,14,,,,,,,,,13,11,62,,,
329246,control_change,64,0,15,,,,,,,,,14,11,62,,,
329280,set_tempo,120,1,0,,,,,,288462,,,,,,,,
329280,note_on,48,0,11,,,,,,,,,10,,,,76,0
329280,note_on,0,0,11,,,,,,,,,10,,,,73,112
329283,note_on,0,0,12,,,,,,,,,11,,,,73,112
329283,note_on,48,0,12,,,,,,,,,11,,,,76,0
329285,note_on,0,0,2,,,,,,,,,1,,,,80,0
329285,note_on,241,0,2,,,,,,,,,1,,,,76,0
329286,note_on,0,0,3,,,,,,,,,2,,,,64,0
329286,note_on,241,0,3,,,,,,,,,2,,,,68,0
329288,note_on,0,0,13,,,,,,,,,12,,,,61,112
329288,note_on,48,0,13,,,,,,,,,12,,,,64,0
329290,note_on,0,0,4,,,,,,,,,3,,,,52,0
329290,note_on,241,0,4,,,,,,,,,3,,,,56,0
329292,note_on,48,0,14,,,,,,,,,13,,,,64,0
329292,note_on,0,0,14,,,,,,,,,13,,,,61,112
329294,note_on,48,0,15,,,,,,,,,14,,,,52,0
329294,note_on,0,0,15,,,,,,,,,14,,,,49,112
329296,control_change,16,0,11,,,,,,,,,10,11,61,,,
329299,control_change,16,0,12,,,,,,,,,11,11,61,,,
329304,control_change,16,0,13,,,,,,,,,12,11,61,,,
329308,control_change,16,0,14,,,,,,,,,13,11,61,,,
329310,control_change,16,0,15,,,,,,,,,14,11,61,,,
329360,control_change,64,0,11,,,,,,,,,10,11,60,,,
329363,control_change,64,0,12,,,,,,,,,11,11,60,,,
329368,control_change,64,0,13,,,,,,,,,12,11,60,,,
329372,control_change,64,0,14,,,,,,,,,13,11,60,,,
329374,control_change,64,0,15,,,,,,,,,14,11,60,,,
329390,note_on,30,0,11,,,,,,,,,10,,,,73,0
329393,note_on,30,0,12,,,,,,,,,11,,,,73,0
329398,note_on,30,0,13,,,,,,,,,12,,,,61,0
329400,note_on,10,0,11,,,,,,,,,10,,,,68,112
329400,set_tempo,120,1,0,,,,,,254237,,,,,,,,
329402,note_on,30,0,14,,,,,,,,,13,,,,61,0
329403,note_on,10,0,12,,,,,,,,,11,,,,68,112
329404,note_on,119,0,2,,,,,,,,,1,,,,80,100
329404,note_on,0,0,2,,,,,,,,,1,,,,76,100
329404,control_change,0,0,2,,,,,,,,,1,11,63,,,
329404,note_on,30,0,15,,,,,,,,,14,,,,49,0
329405,note_on,119,0,3,,,,,,,,,2,,,,68,101
329405,note_on,0,0,3,,,,,,,,,2,,,,64,101
329408,note_on,10,0,13,,,,,,,,,12,,,,56,112
329409,note_on,0,0,4,,,,,,,,,3,,,,56,100
329409,note_on,119,0,4,,,,,,,,,3,,,,52,100
329412,note_on,10,0,14,,,,,,,,,13,,,,56,112
329414,note_on,10,0,15,,,,,,,,,14,,,,44,112
329424,control_change,24,0,11,,,,,,,,,10,11,59,,,
329427,control_change,24,0,12,,,,,,,,,11,11,59,,,
329432,control_change,24,0,13,,,,,,,,,12,11,59,,,
329434,note_on,30,0,2,,,,,,,,,1,,,,80,0
329436,control_change,24,0,14,,,,,,,,,13,11,59,,,
329438,control_change,24,0,15,,,,,,,,,14,11,59,,,
329464,note_on,30,0,2,,,,,,,,,1,,,,80,100
329488,control_change,64,0,11,,,,,,,,,10,11,59,,,
329491,control_change,64,0,12,,,,,,,,,11,11,59,,,
329494,note_on,30,0,2,,,,,,,,,1,,,,80,0
329496,control_change,64,0,13,,,,,,,,,12,11,59,,,
329500,control_change,64,0,14,,,,,,,,,13,11,59,,,
329502,control_change,64,0,15,,,,,,,,,14,11,59,,,
329520,set_tempo,120,1,0,,,,,,263158,,,,,,,,
329524,note_on,30,0,2,,,,,,,,,1,,,,81,100
329552,control_change,64,0,11,,,,,,,,,10,11,58,,,
329555,control_change,64,0,12,,,,,,,,,11,11,58,,,
329560,control_change,64,0,13,,,,,,,,,12,11,58,,,
329564,control_change,64,0,14,,,,,,,,,13,11,58,,,
329566,control_change,64,0,15,,,,,,,,,14,11,58,,,
329584,note_on,60,0,2,,,,,,,,,1,,,,81,0
329584,note_on,0,0,2,,,,,,,,,1,,,,80,100
329616,control_change,64,0,11,,,,,,,,,10,11,57,,,
329619,control_change,64,0,12,,,,,,,,,11,11,57,,,
329624,control_change,64,0,13,,,,,,,,,12,11,57,,,
329628,control_change,64,0,14,,,,,,,,,13,11,57,,,
329630,control_change,64,0,15,,,,,,,,,14,11,57,,,
329640,note_on,0,0,11,,,,,,,,,10,,,,64,112
329640,note_on,24,0,11,,,,,,,,,10,,,,68,0
329640,set_tempo,120,1,0,,,,,,288462,,,,,,,,
329643,note_on,24,0,12,,,,,,,,,11,,,,68,0
329643,note_on,0,0,12,,,,,,,,,11,,,,64,112
329644,note_on,0,0,2,,,,,,,,,1,,,,81,100
329644,note_on,60,0,2,,,,,,,,,1,,,,80,0
329648,note_on,0,0,13,,,,,,,,,12,,,,52,112
329648,note_on,24,0,13,,,,,,,,,12,,,,56,0
329652,note_on,0,0,14,,,,,,,,,13,,,,52,112
329652,note_on,24,0,14,,,,,,,,,13,,,,56,0
329654,note_on,0,0,15,,,,,,,,,14,,,,40,112
329654,note_on,24,0,15,,,,,,,,,14,,,,44,0
329680,control_change,40,0,11,,,,,,,,,10,11,57,,,
329683,control_change,40,0,12,,,,,,,,,11,11,57,,,
329688,control_change,40,0,13,,,,,,,,,12,11,57,,,
329692,control_change,40,0,14,,,,,,,,,13,11,57,,,
329694,control_change,40,0,15,,,,,,,,,14,11,57,,,
329704,note_on,60,0,2,,,,,,,,,1,,,,81,0
329704,note_on,0,0,2,,,,,,,,,1,,,,80,100
329744,control_change,64,0,11,,,,,,,,,10,11,56,,,
329747,control_change,64,0,12,,,,,,,,,11,11,56,,,
329750,note_on,6,0,11,,,,,,,,,10,,,,64,0
329752,control_change,64,0,13,,,,,,,,,12,11,56,,,
329753,note_on,6,0,12,,,,,,,,,11,,,,64,0
329756,control_change,64,0,14,,,,,,,,,13,11,56,,,
329758,note_on,6,0,13,,,,,,,,,12,,,,52,0
329758,control_change,64,0,15,,,,,,,,,14,11,56,,,
329760,note_on,10,0,11,,,,,,,,,10,,,,61,112
329760,set_tempo,120,1,0,,,,,,254237,,,,,,,,
329762,note_on,6,0,14,,,,,,,,,13,,,,52,0
329763,note_on,10,0,12,,,,,,,,,11,,,,61,112
329764,note_on,0,0,2,,,,,,,,,1,,,,76,0
329764,control_change,0,0,2,,,,,,,,,1,11,55,,,
329764,note_on,0,0,2,,,,,,,,,1,,,,76,100
329764,note_on,60,0,2,,,,,,,,,1,,,,80,0
329764,note_on,0,0,2,,,,,,,,,1,,,,80,100
329764,note_on,6,0,15,,,,,,,,,14,,,,40,0
329765,control_change,0,0,3,,,,,,,,,2,11,63,,,
329765,note_on,0,0,3,,,,,,,,,2,,,,68,101
329765,note_on,0,0,3,,,,,,,,,2,,,,68,0
329765,note_on,360,0,3,,,,,,,,,2,,,,64,0
329765,note_on,0,0,3,,,,,,,,,2,,,,64,101
329768,note_on,10,0,13,,,,,,,,,12,,,,49,112
329769,control_change,0,0,4,,,,,,,,,3,11,67,,,
329769,note_on,360,0,4,,,,,,,,,3,,,,56,0
329769,note_on,0,0,4,,,,,,,,,3,,,,52,0
329769,note_on,0,0,4,,,,,,,,,3,,,,52,100
329769,note_on,0,0,4,,,,,,,,,3,,,,56,100
329772,note_on,10,0,14,,,,,,,,,13,,,,49,112
329774,note_on,10,0,15,,,,,,,,,14,,,,37,112
329795,note_on,30,0,3,,,,,,,,,2,,,,68,0
329799,note_on,30,0,4,,,,,,,,,3,,,,56,0
329808,control_change,48,0,11,,,,,,,,,10,11,55,,,
329811,control_change,48,0,12,,,,,,,,,11,11,55,,,
329816,control_change,48,0,13,,,,,,,,,12,11,55,,,
329820,control_change,48,0,14,,,,,,,,,13,11,55,,,
329822,control_change,48,0,15,,,,,,,,,14,11,55,,,
329824,note_on,60,0,2,,,,,,,,,1,,,,76,0
329824,note_on,0,0,2,,,,,,,,,1,,,,80,0
329825,note_on,30,0,3,,,,,,,,,2,,,,68,101
329829,note_on,30,0,4,,,,,,,,,3,,,,56,100
329855,note_on,30,0,3,,,,,,,,,2,,,,68,0
329859,note_on,30,0,4,,,,,,,,,3,,,,56,0
329872,control_change,64,0,11,,,,,,,,,10,11,55,,,
329875,control_change,64,0,12,,,,,,,,,11,11,55,,,
329880,set_tempo,120,1,0,,,,,,263158,,,,,,,,
329880,control_change,64,0,13,,,,,,,,,12,11,55,,,
329884,note_on,0,0,2,,,,,,,,,1,,,,80,100
329884,control_change,64,0,14,,,,,,,,,13,11,55,,,
329884,note_on,60,0,2,,,,,,,,,1,,,,76,100
329885,note_on,30,0,3,,,,,,,,,2,,,,69,101
329886,control_change,64,0,15,,,,,,,,,14,11,55,,,
329889,note_on,30,0,4,,,,,,,,,3,,,,57,100
329936,control_change,64,0,11,,,,,,,,,10,11,54,,,
329939,control_change,64,0,12,,,,,,,,,11,11,54,,,
329944,control_change,64,0,13,,,,,,,,,12,11,54,,,
329944,note_on,60,0,2,,,,,,,,,1,,,,80,0
329944,note_on,0,0,2,,,,,,,,,1,,,,76,0
329945,note_on,0,0,3,,,,,,,,,2,,,,68,101
329945,note_on,60,0,3,,,,,,,,,2,,,,69,0
329948,control_change,64,0,14,,,,,,,,,13,11,54,,,
329949,note_on,0,0,4,,,,,,,,,3,,,,56,100
329949,note_on,60,0,4,,,,,,,,,3,,,,57,0
329950,control_change,64,0,15,,,,,,,,,14,11,54,,,
330000,set_tempo,120,1,0,,,,,,288462,,,,,,,,
330000,control_change,0,0,11,,,,,,,,,10,11,53,,,
330000,note_on,0,0,11,,,,,,,,,10,,,,56,112
330000,note_on,64,0,11,,,,,,,,,10,,,,61,0
330003,note_on,64,0,12,,,,,,,,,11,,,,61,0
330003,control_change,0,0,12,,,,,,,,,11,11,53,,,
330003,note_on,0,0,12,,,,,,,,,11,,,,56,112
330004,note_on,60,0,2,,,,,,,,,1,,,,76,100
330004,note_on,0,0,2,,,,,,,,,1,,,,80,100
330005,note_on,0,0,3,,,,,,,,,2,,,,69,101
330005,note_on,60,0,3,,,,,,,,,2,,,,68,0
330008,note_on,0,0,13,,,,,,,,,12,,,,56,112
330008,control_change,0,0,13,,,,,,,,,12,11,53,,,
330008,note_on,64,0,13,,,,,,,,,12,,,,49,0
330009,note_on,60,0,4,,,,,,,,,3,,,,56,0
330009,note_on,0,0,4,,,,,,,,,3,,,,57,100
330012,note_on,64,0,14,,,,,,,,,13,,,,49,0
330012,control_change,0,0,14,,,,,,,,,13,11,53,,,
330012,note_on,0,0,14,,,,,,,,,13,,,,44,112
330014,note_on,0,0,15,,,,,,,,,14,,,,32,112
330014,control_change,0,0,15,,,,,,,,,14,11,53,,,
330014,note_on,64,0,15,,,,,,,,,14,,,,37,0
330064,note_on,0,0,2,,,,,,,,,1,,,,76,0
330064,note_on,60,0,2,,,,,,,,,1,,,,80,0
330065,note_on,0,0,3,,,,,,,,,2,,,,68,101
330065,note_on,60,0,3,,,,,,,,,2,,,,69,0
330069,note_on,0,0,4,,,,,,,,,3,,,,56,100
330069,note_on,60,0,4,,,,,,,,,3,,,,57,0
330110,note_on,110,0,11,,,,,,,,,10,,,,56,0
330113,note_on,110,0,12,,,,,,,,,11,,,,56,0
330118,note_on,110,0,13,,,,,,,,,12,,,,56,0
330120,control_change,10,0,11,,,,,,,,,10,11,55,,,
330120,note_on,0,0,11,,,,,,,,,10,,,,61,112
330120,set_tempo,120,1,0,,,,,,254237,,,,,,,,
330121,note_on,0,0,1,,,,,,,,,0,,,,85,116
330121,note_on,0,0,1,,,,,,,,,0,,,,88,116
330121,control_change,4320,0,1,,,,,,,,,0,11,42,,,
330122,note_on,110,0,14,,,,,,,,,13,,,,44,0
330123,note_on,0,0,5,,,,,,,,,4,,,,64,115
330123,control_change,4320,0,5,,,,,,,,,4,11,67,,,
330123,note_on,10,0,12,,,,,,,,,11,,,,61,112
330123,control_change,0,0,12,,,,,,,,,11,11,55,,,
330124,note_on,110,0,15,,,,,,,,,14,,,,32,0
330124,note_on,4320,0,6,,,,,,,,,5,,,,64,115
330124,note_on,0,0,2,,,,,,,,,1,,,,81,115
330124,control_change,60,0,2,,,,,,,,,1,11,59,,,
330124,note_on,0,0,2,,,,,,,,,1,,,,73,115
330124,control_change,0,0,6,,,,,,,,,5,11,67,,,
330125,note_on,0,0,3,,,,,,,,,2,,,,64,0
330125,note_on,0,0,3,,,,,,,,,2,,,,64,116
330125,control_change,0,0,3,,,,,,,,,2,11,59,,,
330125,note_on,0,0,3,,,,,,,,,2,,,,69,116
330125,note_on,60,0,3,,,,,,,,,2,,,,68,0
330128,note_on,10,0,13,,,,,,,,,12,,,,49,112
330128,control_change,0,0,13,,,,,,,,,12,11,55,,,
330129,note_on,60,0,4,,,,,,,,,3,,,,56,0
330129,control_change,0,0,4,,,,,,,,,3,11,62,,,
330129,note_on,0,0,4,,,,,,,,,3,,,,57,115
330129,note_on,0,0,4,,,,,,,,,3,,,,52,115
330129,note_on,0,0,4,,,,,,,,,3,,,,52,0
330132,control_change,10,0,14,,,,,,,,,13,11,55,,,
330132,note_on,0,0,14,,,,,,,,,13,,,,49,112
330134,control_change,10,0,15,,,,,,,,,14,11,55,,,
330134,note_on,0,0,15,,,,,,,,,14,,,,37,112
330139,control_change,18,0,1,,,,,,,,,0,11,45,,,
330157,control_change,18,0,1,,,,,,,,,0,11,48,,,
330168,control_change,48,0,11,,,,,,,,,10,11,56,,,
330171,control_change,48,0,12,,,,,,,,,11,11,56,,,
330175,control_change,18,0,1,,,,,,,,,0,11,51,,,
330176,control_change,48,0,13,,,,,,,,,12,11,56,,,
330180,control_change,48,0,14,,,,,,,,,13,11,56,,,
330182,control_change,48,0,15,,,,,,,,,14,11,56,,,
330193,control_change,18,0,1,,,,,,,,,0,11,53,,,
330211,control_change,18,0,1,,,,,,,,,0,11,55,,,
330216,control_change,48,0,11,,,,,,,,,10,11,57,,,
330219,control_change,48,0,12,,,,,,,,,11,11,57,,,
330224,control_change,48,0,13,,,,,,,,,12,11,57,,,
330228,control_change,48,0,14,,,,,,,,,13,11,57,,,
330229,control_change,18,0,1,,,,,,,,,0,11,58,,,
330230,control_change,48,0,15,,,,,,,,,14,11,57,,,
330240,set_tempo,120,1,0,,,,,,263158,,,,,,,,
330264,control_change,48,0,11,,,,,,,,,10,11,57,,,
330267,control_change,48,0,12,,,,,,,,,11,11,57,,,
330272,control_change,48,0,13,,,,,,,,,12,11,57,,,
330276,control_change,48,0,14,,,,,,,,,13,11,57,,,
330278,control_change,48,0,15,,,,,,,,,14,11,57,,,
330312,control_change,48,0,11,,,,,,,,,10,11,58,,,
330315,control_change,48,0,12,,,,,,,,,11,11,58,,,
330320,control_change,48,0,13,,,,,,,,,12,11,58,,,
330324,control_change,48,0,14,,,,,,,,,13,11,58,,,
330326,control_change,48,0,15,,,,,,,,,14,11,58,,,
330360,note_on,0,0,11,,,,,,,,,10,,,,64,112
330360,set_tempo,120,1,0,,,,,,288462,,,,,,,,
330360,note_on,48,0,11,,,,,,,,,10,,,,61,0
330360,control_change,0,0,11,,,,,,,,,10,11,59,,,
330362,note_on,133,0,1,,,,,,,,,0,,,,88,0
330362,note_on,0,0,1,,,,,,,,,0,,,,85,0
330363,note_on,48,0,12,,,,,,,,,11,,,,61,0
330363,control_change,0,0,12,,,,,,,,,11,11,59,,,
330363,note_on,0,0,12,,,,,,,,,11,,,,64,112
330365,note_on,241,0,2,,,,,,,,,1,,,,81,0
330365,note_on,0,0,2,,,,,,,,,1,,,,73,0
330366,note_on,241,0,3,,,,,,,,,2,,,,69,0
330366,note_on,0,0,3,,,,,,,,,2,,,,64,0
330368,note_on,0,0,13,,,,,,,,,12,,,,52,112
330368,note_on,48,0,13,,,,,,,,,12,,,,49,0
330368,control_change,0,0,13,,,,,,,,,12,11,59,,,
330370,note_on,0,0,4,,,,,,,,,3,,,,52,0
330370,note_on,241,0,4,,,,,,,,,3,,,,57,0
330372,note_on,0,0,14,,,,,,,,,13,,,,52,112
330372,control_change,0,0,14,,,,,,,,,13,11,59,,,
330372,note_on,48,0,14,,,,,,,,,13,,,,49,0
330374,note_on,48,0,15,,,,,,,,,14,,,,37,0
330374,control_change,0,0,15,,,,,,,,,14,11,59,,,
330374,note_on,0,0,15,,,,,,,,,14,,,,40,112
330408,control_change,46,0,1,,,,,,,,,0,11,60,,,
330408,control_change,48,0,11,,,,,,,,,10,11,60,,,
330410,control_change,287,0,5,,,,,,,,,4,11,68,,,
330411,control_change,48,0,12,,,,,,,,,11,11,60,,,
330411,control_change,46,0,2,,,,,,,,,1,11,60,,,
330411,control_change,287,0,6,,,,,,,,,5,11,68,,,
330412,control_change,46,0,3,,,,,,,,,2,11,60,,,
330416,control_change,46,0,4,,,,,,,,,3,11,63,,,
330416,control_change,48,0,13,,,,,,,,,12,11,60,,,
330420,control_change,48,0,14,,,,,,,,,13,11,60,,,
330422,control_change,48,0,15,,,,,,,,,14,11,60,,,
330456,control_change,48,0,11,,,,,,,,,10,11,61,,,
330459,control_change,48,0,12,,,,,,,,,11,11,61,,,
330464,control_change,48,0,13,,,,,,,,,12,11,61,,,
330468,control_change,48,0,14,,,,,,,,,13,11,61,,,
330470,control_change,48,0,15,,,,,,,,,14,11,61,,,
330470,note_on,14,0,11,,,,,,,,,10,,,,64,0
330473,note_on,14,0,12,,,,,,,,,11,,,,64,0
330473,note_on,63,0,5,,,,,,,,,4,,,,64,0
330474,note_on,63,0,6,,,,,,,,,5,,,,64,0
330478,note_on,14,0,13,,,,,,,,,12,,,,52,0
330480,set_tempo,120,1,0,,,,,,254237,,,,,,,,
330480,note_on,10,0,11,,,,,,,,,10,,,,69,112
330481,note_on,73,0,1,,,,,,,,,0,,,,85,116
330481,note_on,0,0,1,,,,,,,,,0,,,,88,116
330482,note_on,14,0,14,,,,,,,,,13,,,,52,0
330483,note_on,10,0,5,,,,,,,,,4,,,,64,115
330483,note_on,10,0,12,,,,,,,,,11,,,,69,112
330484,note_on,10,0,6,,,,,,,,,5,,,,64,115
330484,note_on,14,0,15,,,,,,,,,14,,,,40,0
330484,note_on,73,0,2,,,,,,,,,1,,,,73,115
330484,note_on,0,0,2,,,,,,,,,1,,,,81,115
330485,note_on,73,0,3,,,,,,,,,2,,,,69,116
330485,note_on,0,0,3,,,,,,,,,2,,,,73,116
330488,note_on,10,0,13,,,,,,,,,12,,,,57,112
330489,note_on,73,0,4,,,,,,,,,3,,,,57,115
330489,note_on,0,0,4,,,,,,,,,3,,,,61,115
330492,note_on,10,0,14,,,,,,,,,13,,,,57,112
330494,note_on,10,0,15,,,,,,,,,14,,,,45,112
330504,control_change,24,0,11,,,,,,,,,10,11,62,,,
330507,control_change,24,0,12,,,,,,,,,11,11,62,,,
330512,control_change,24,0,13,,,,,,,,,12,11,62,,,
330516,control_change,24,0,14,,,,,,,,,13,11,62,,,
330518,control_change,24,0,15,,,,,,,,,14,11,62,,,
330552,control_change,48,0,11,,,,,,,,,10,11,63,,,
330555,control_change,48,0,12,,,,,,,,,11,11,63,,,
330560,control_change,48,0,13,,,,,,,,,12,11,63,,,
330564,control_change,48,0,14,,,,,,,,,13,11,63,,,
330566,control_change,48,0,15,,,,,,,,,14,11,63,,,
330600,control_change,48,0,11,,,,,,,,,10,11,64,,,
330600,set_tempo,120,1,0,,,,,,263158,,,,,,,,
330603,control_change,48,0,12,,,,,,,,,11,11,64,,,
330608,control_change,48,0,13,,,,,,,,,12,11,64,,,
330612,control_change,48,0,14,,,,,,,,,13,11,64,,,
330614,control_change,48,0,15,,,,,,,,,14,11,64,,,
330648,control_change,48,0,11,,,,,,,,,10,11,65,,,
330651,control_change,48,0,12,,,,,,,,,11,11,65,,,
330656,control_change,48,0,13,,,,,,,,,12,11,65,,,
330660,control_change,48,0,14,,,,,,,,,13,11,65,,,
330662,control_change,48,0,15,,,,,,,,,14,11,65,,,
330696,control_change,48,0,11,,,,,,,,,10,11,66,,,
330696,control_change,215,0,1,,,,,,,,,0,11,61,,,
330698,control_change,215,0,5,,,,,,,,,4,11,69,,,
330699,control_change,215,0,2,,,,,,,,,1,11,61,,,
330699,control_change,215,0,6,,,,,,,,,5,11,69,,,
330699,control_change,48,0,12,,,,,,,,,11,11,66,,,
330700,control_change,215,0,3,,,,,,,,,2,11,61,,,
330704,control_change,215,0,4,,,,,,,,,3,11,64,,,
330704,control_change,48,0,13,,,,,,,,,12,11,66,,,
330708,control_change,48,0,14,,,,,,,,,13,11,66,,,
330710,control_change,48,0,15,,,,,,,,,14,11,66,,,
330720,note_on,0,0,11,,,,,,,,,10,,,,73,112
330720,note_on,24,0,11,,,,,,,,,10,,,,69,0
330720,set_tempo,120,1,0,,,,,,288462,,,,,,,,
330722,note_on,0,0,1,,,,,,,,,0,,,,85,0
330722,note_on,26,0,1,,,,,,,,,0,,,,88,0
330723,note_on,0,0,12,,,,,,,,,11,,,,73,112
330723,note_on,24,0,12,,,,,,,,,11,,,,69,0
330725,note_on,26,0,2,,,,,,,,,1,,,,81,0
330725,note_on,0,0,2,,,,,,,,,1,,,,73,0
330726,note_on,0,0,3,,,,,,,,,2,,,,69,0
330726,note_on,26,0,3,,,,,,,,,2,,,,73,0
330728,note_on,24,0,13,,,,,,,,,12,,,,57,0
330728,note_on,0,0,13,,,,,,,,,12,,,,61,112
330730,note_on,26,0,4,,,,,,,,,3,,,,61,0
330730,note_on,0,0,4,,,,,,,,,3,,,,57,0
330732,note_on,0,0,14,,,,,,,,,13,,,,61,112
330732,note_on,24,0,14,,,,,,,,,13,,,,57,0
330734,note_on,24,0,15,,,,,,,,,14,,,,45,0
330734,note_on,0,0,15,,,,,,,,,14,,,,49,112
330744,control_change,24,0,11,,,,,,,,,10,11,67,,,
330747,control_change,24,0,12,,,,,,,,,11,11,67,,,
330752,control_change,24,0,13,,,,,,,,,12,11,67,,,
330756,control_change,24,0,14,,,,,,,,,13,11,67,,,
330758,control_change,24,0,15,,,,,,,,,14,11,67,,,
330792,control_change,48,0,11,,,,,,,,,10,11,68,,,
330795,control_change,48,0,12,,,,,,,,,11,11,68,,,
330800,control_change,48,0,13,,,,,,,,,12,11,68,,,
330804,control_change,48,0,14,,,,,,,,,13,11,68,,,
330806,control_change,48,0,15,,,,,,,,,14,11,68,,,
330830,note_on,38,0,11,,,,,,,,,10,,,,73,0
330833,note_on,135,0,5,,,,,,,,,4,,,,64,0
330833,note_on,38,0,12,,,,,,,,,11,,,,73,0
330834,note_on,135,0,6,,,,,,,,,5,,,,64,0
330838,note_on,38,0,13,,,,,,,,,12,,,,61,0
330840,set_tempo,120,1,0,,,,,,254237,,,,,,,,
330840,control_change,0,0,11,,,,,,,,,10,11,69,,,
330840,note_on,10,0,11,,,,,,,,,10,,,,76,112
330841,note_on,0,0,1,,,,,,,,,0,,,,88,116
330841,note_on,119,0,1,,,,,,,,,0,,,,85,116
330842,note_on,38,0,14,,,,,,,,,13,,,,61,0
330843,note_on,0,0,12,,,,,,,,,11,,,,76,112
330843,control_change,10,0,12,,,,,,,,,11,11,69,,,
330843,note_on,10,0,5,,,,,,,,,4,,,,64,115
330844,note_on,10,0,6,,,,,,,,,5,,,,64,115
330844,note_on,119,0,2,,,,,,,,,1,,,,73,115
330844,note_on,0,0,2,,,,,,,,,1,,,,81,115
330844,note_on,38,0,15,,,,,,,,,14,,,,49,0
330845,note_on,119,0,3,,,,,,,,,2,,,,73,116
330845,note_on,0,0,3,,,,,,,,,2,,,,69,116
330848,control_change,10,0,13,,,,,,,,,12,11,69,,,
330848,note_on,0,0,13,,,,,,,,,12,,,,64,112
330849,note_on,119,0,4,,,,,,,,,3,,,,61,115
330849,note_on,0,0,4,,,,,,,,,3,,,,57,115
330852,note_on,0,0,14,,,,,,,,,13,,,,64,112
330852,control_change,10,0,14,,,,,,,,,13,11,69,,,
330854,note_on,10,0,15,,,,,,,,,14,,,,52,112
330854,control_change,0,0,15,,,,,,,,,14,11,69,,,
330888,control_change,48,0,11,,,,,,,,,10,11,70,,,
330891,control_change,48,0,12,,,,,,,,,11,11,70,,,
330896,control_change,48,0,13,,,,,,,,,12,11,70,,,
330900,control_change,48,0,14,,,,,,,,,13,11,70,,,
330902,control_change,48,0,15,,,,,,,,,14,11,70,,,
330936,control_change,48,0,11,,,,,,,,,10,11,71,,,
330939,control_change,48,0,12,,,,,,,,,11,11,71,,,
330944,control_change,48,0,13,,,,,,,,,12,11,71,,,
330948,control_change,48,0,14,,,,,,,,,13,11,71,,,
330950,control_change,48,0,15,,,,,,,,,14,11,71,,,
330960,set_tempo,120,1,0,,,,,,263158,,,,,,,,
330984,control_change,143,0,1,,,,,,,,,0,11,61,,,
330984,control_change,48,0,11,,,,,,,,,10,11,72,,,
330986,control_change,143,0,5,,,,,,,,,4,11,70,,,
330987,control_change,48,0,12,,,,,,,,,11,11,72,,,
330987,control_change,143,0,2,,,,,,,,,1,11,61,,,
330987,control_change,143,0,6,,,,,,,,,5,11,70,,,
330988,control_change,143,0,3,,,,,,,,,2,11,61,,,
330992,control_change,143,0,4,,,,,,,,,3,11,65,,,
330992,control_change,48,0,13,,,,,,,,,12,11,72,,,
330996,control_change,48,0,14,,,,,,,,,13,11,72,,,
330998,control_change,48,0,15,,,,,,,,,14,11,72,,,
331032,control_change,48,0,11,,,,,,,,,10,11,72,,,
331035,control_change,48,0,12,,,,,,,,,11,11,72,,,
331040,control_change,48,0,13,,,,,,,,,12,11,72,,,
331044,control_change,48,0,14,,,,,,,,,13,11,72,,,
331046,control_change,48,0,15,,,,,,,,,14,11,72,,,
331080,set_tempo,120,1,0,,,,,,288462,,,,,,,,
331080,note_on,0,0,11,,,,,,,,,10,,,,81,112
331080,note_on,48,0,11,,,,,,,,,10,,,,76,0
331080,control_change,0,0,11,,,,,,,,,10,11,73,,,
331082,note_on,0,0,1,,,,,,,,,0,,,,85,0
331082,note_on,98,0,1,,,,,,,,,0,,,,88,0
331083,note_on,0,0,12,,,,,,,,,11,,,,81,112
331083,control_change,0,0,12,,,,,,,,,11,11,73,,,
331083,note_on,48,0,12,,,,,,,,,11,,,,76,0
331085,note_on,0,0,2,,,,,,,,,1,,,,73,0
331085,note_on,98,0,2,,,,,,,,,1,,,,81,0
331086,note_on,98,0,3,,,,,,,,,2,,,,69,0
331086,note_on,0,0,3,,,,,,,,,2,,,,73,0
331088,note_on,0,0,13,,,,,,,,,12,,,,69,112
331088,note_on,48,0,13,,,,,,,,,12,,,,64,0
331088,control_change,0,0,13,,,,,,,,,12,11,73,,,
331090,note_on,0,0,4,,,,,,,,,3,,,,61,0
331090,note_on,98,0,4,,,,,,,,,3,,,,57,0
331092,note_on,48,0,14,,,,,,,,,13,,,,64,0
331092,control_change,0,0,14,,,,,,,,,13,11,73,,,
331092,note_on,0,0,14,,,,,,,,,13,,,,69,112
331094,control_change,0,0,15,,,,,,,,,14,11,73,,,
331094,note_on,0,0,15,,,,,,,,,14,,,,57,112
331094,note_on,48,0,15,,,,,,,,,14,,,,52,0
331190,note_on,110,0,11,,,,,,,,,10,,,,81,0
331193,note_on,207,0,5,,,,,,,,,4,,,,64,0
331193,note_on,110,0,12,,,,,,,,,11,,,,81,0
331194,note_on,207,0,6,,,,,,,,,5,,,,64,0
331198,note_on,110,0,13,,,,,,,,,12,,,,69,0
331200,note_on,10,0,11,,,,,,,,,10,,,,76,112
331200,set_tempo,120,1,0,,,,,,254237,,,,,,,,
331200,control_change,0,0,11,,,,,,,,,10,11,73,,,
331201,note_on,0,0,1,,,,,,,,,0,,,,88,116
331201,note_on,119,0,1,,,,,,,,,0,,,,85,116
331202,note_on,110,0,14,,,,,,,,,13,,,,69,0
331203,note_on,10,0,5,,,,,,,,,4,,,,64,115
331203,control_change,10,0,12,,,,,,,,,11,11,73,,,
331203,note_on,0,0,12,,,,,,,,,11,,,,76,112
331204,note_on,0,0,2,,,,,,,,,1,,,,73,115
331204,note_on,119,0,2,,,,,,,,,1,,,,81,115
331204,note_on,110,0,15,,,,,,,,,14,,,,57,0
331204,note_on,10,0,6,,,,,,,,,5,,,,64,115
331205,note_on,0,0,3,,,,,,,,,2,,,,69,116
331205,note_on,119,0,3,,,,,,,,,2,,,,73,116
331208,note_on,0,0,13,,,,,,,,,12,,,,64,112
331208,control_change,10,0,13,,,,,,,,,12,11,73,,,
331209,note_on,0,0,4,,,,,,,,,3,,,,57,115
331209,note_on,119,0,4,,,,,,,,,3,,,,61,115
331212,control_change,10,0,14,,,,,,,,,13,11,73,,,
331212,note_on,0,0,14,,,,,,,,,13,,,,64,112
331214,note_on,10,0,15,,,,,,,,,14,,,,52,112
331214,control_change,0,0,15,,,,,,,,,14,11,73,,,
331272,control_change,71,0,1,,,,,,,,,0,11,62,,,
331274,control_change,71,0,5,,,,,,,,,4,11,71,,,
331275,control_change,71,0,2,,,,,,,,,1,11,62,,,
331275,control_change,71,0,6,,,,,,,,,5,11,71,,,
331276,control_change,71,0,3,,,,,,,,,2,11,62,,,
331280,control_change,71,0,4,,,,,,,,,3,11,66,,,
331280,control_change,80,0,11,,,,,,,,,10,11,72,,,
331283,control_change,80,0,12,,,,,,,,,11,11,72,,,
331288,control_change,80,0,13,,,,,,,,,12,11,72,,,
331292,control_change,80,0,14,,,,,,,,,13,11,72,,,
331294,control_change,80,0,15,,,,,,,,,14,11,72,,,
331320,set_tempo,120,1,0,,,,,,263158,,,,,,,,
331360,control_change,80,0,11,,,,,,,,,10,11,72,,,
331363,control_change,80,0,12,,,,,,,,,11,11,72,,,
331368,control_change,80,0,13,,,,,,,,,12,11,72,,,
331372,control_change,80,0,14,,,,,,,,,13,11,72,,,
331374,control_change,80,0,15,,,,,,,,,14,11,72,,,
331440,set_tempo,120,1,0,,,,,,288462,,,,,,,,
331440,control_change,0,0,11,,,,,,,,,10,11,71,,,
331440,note_on,80,0,11,,,,,,,,,10,,,,76,0
331440,note_on,0,0,11,,,,,,,,,10,,,,73,112
331442,note_on,0,0,1,,,,,,,,,0,,,,85,0
331442,note_on,170,0,1,,,,,,,,,0,,,,88,0
331443,control_change,0,0,12,,,,,,,,,11,11,71,,,
331443,note_on,80,0,12,,,,,,,,,11,,,,76,0
331443,note_on,0,0,12,,,,,,,,,11,,,,73,112
331445,note_on,170,0,2,,,,,,,,,1,,,,73,0
331445,note_on,0,0,2,,,,,,,,,1,,,,81,0
331446,note_on,170,0,3,,,,,,,,,2,,,,69,0
331446,note_on,0,0,3,,,,,,,,,2,,,,73,0
331448,note_on,80,0,13,,,,,,,,,12,,,,64,0
331448,note_on,0,0,13,,,,,,,,,12,,,,61,112
331448,control_change,0,0,13,,,,,,,,,12,11,71,,,
331450,note_on,0,0,4,,,,,,,,,3,,,,61,0
331450,note_on,170,0,4,,,,,,,,,3,,,,57,0
331452,note_on,80,0,14,,,,,,,,,13,,,,64,0
331452,note_on,0,0,14,,,,,,,,,13,,,,61,112
331452,control_change,0,0,14,,,,,,,,,13,11,71,,,
331454,control_change,0,0,15,,,,,,,,,14,11,71,,,
331454,note_on,0,0,15,,,,,,,,,14,,,,49,112
331454,note_on,80,0,15,,,,,,,,,14,,,,52,0
331520,control_change,80,0,11,,,,,,,,,10,11,70,,,
331523,control_change,80,0,12,,,,,,,,,11,11,70,,,
331528,control_change,80,0,13,,,,,,,,,12,11,70,,,
331532,control_change,80,0,14,,,,,,,,,13,11,70,,,
331534,control_change,80,0,15,,,,,,,,,14,11,70,,,
331550,note_on,30,0,11,,,,,,,,,10,,,,73,0
331553,note_on,279,0,5,,,,,,,,,4,,,,64,0
331553,note_on,30,0,12,,,,,,,,,11,,,,73,0
331554,note_on,279,0,6,,,,,,,,,5,,,,64,0
331558,note_on,30,0,13,,,,,,,,,12,,,,61,0
331560,note_on,10,0,11,,,,,,,,,10,,,,69,112
331560,set_tempo,120,1,0,,,,,,254237,,,,,,,,
331560,control_change,118,0,1,,,,,,,,,0,11,63,,,
331561,note_on,1,0,1,,,,,,,,,0,,,,88,101
331561,note_on,0,0,1,,,,,,,,,0,,,,85,101
331562,control_change,9,0,5,,,,,,,,,4,11,72,,,
331562,note_on,30,0,14,,,,,,,,,13,,,,61,0
331563,note_on,10,0,12,,,,,,,,,11,,,,69,112
331563,note_on,1,0,5,,,,,,,,,4,,,,64,100
331563,control_change,118,0,2,,,,,,,,,1,11,63,,,
331563,control_change,9,0,6,,,,,,,,,5,11,72,,,
331564,note_on,1,0,6,,,,,,,,,5,,,,64,100
331564,note_on,1,0,2,,,,,,,,,1,,,,76,100
331564,control_change,118,0,3,,,,,,,,,2,11,63,,,
331564,note_on,30,0,15,,,,,,,,,14,,,,49,0
331564,note_on,0,0,2,,,,,,,,,1,,,,73,100
331565,note_on,0,0,3,,,,,,,,,2,,,,69,101
331565,note_on,1,0,3,,,,,,,,,2,,,,73,101
331568,control_change,118,0,4,,,,,,,,,3,11,67,,,
331568,note_on,10,0,13,,,,,,,,,12,,,,57,112
331569,note_on,1,0,4,,,,,,,,,3,,,,61,100
331569,note_on,0,0,4,,,,,,,,,3,,,,57,100
331572,note_on,10,0,14,,,,,,,,,13,,,,57,112
331574,note_on,10,0,15,,,,,,,,,14,,,,45,112
331591,note_on,30,0,1,,,,,,,,,0,,,,85,0
331591,note_on,0,0,1,,,,,,,,,0,,,,88,0
331594,note_on,30,0,2,,,,,,,,,1,,,,73,0
331594,note_on,0,0,2,,,,,,,,,1,,,,76,0
331600,control_change,40,0,11,,,,,,,,,10,11,69,,,
331603,control_change,40,0,12,,,,,,,,,11,11,69,,,
331608,control_change,40,0,13,,,,,,,,,12,11,69,,,
331612,control_change,40,0,14,,,,,,,,,13,11,69,,,
331614,control_change,40,0,15,,,,,,,,,14,11,69,,,
331621,note_on,0,0,1,,,,,,,,,0,,,,85,101
331621,note_on,30,0,1,,,,,,,,,0,,,,88,101
331624,note_on,0,0,2,,,,,,,,,1,,,,76,100
331624,note_on,30,0,2,,,,,,,,,1,,,,73,100
331651,note_on,0,0,1,,,,,,,,,0,,,,88,0
331651,note_on,30,0,1,,,,,,,,,0,,,,85,0
331654,note_on,0,0,2,,,,,,,,,1,,,,73,0
331654,note_on,30,0,2,,,,,,,,,1,,,,76,0
331680,control_change,80,0,11,,,,,,,,,10,11,68,,,
331680,set_tempo,120,1,0,,,,,,263158,,,,,,,,
331681,note_on,30,0,1,,,,,,,,,0,,,,89,101
331681,note_on,0,0,1,,,,,,,,,0,,,,86,101
331683,control_change,80,0,12,,,,,,,,,11,11,68,,,
331684,note_on,30,0,2,,,,,,,,,1,,,,74,100
331684,note_on,0,0,2,,,,,,,,,1,,,,77,100
331688,control_change,80,0,13,,,,,,,,,12,11,68,,,
331692,control_change,80,0,14,,,,,,,,,13,11,68,,,
331694,control_change,80,0,15,,,,,,,,,14,11,68,,,
331741,note_on,60,0,1,,,,,,,,,0,,,,86,0
331741,note_on,0,0,1,,,,,,,,,0,,,,88,101
331741,note_on,0,0,1,,,,,,,,,0,,,,89,0
331741,note_on,0,0,1,,,,,,,,,0,,,,85,101
331744,note_on,0,0,2,,,,,,,,,1,,,,73,100
331744,note_on,60,0,2,,,,,,,,,1,,,,77,0
331744,note_on,0,0,2,,,,,,,,,1,,,,74,0
331744,note_on,0,0,2,,,,,,,,,1,,,,76,100
331760,control_change,80,0,11,,,,,,,,,10,11,67,,,
331763,control_change,80,0,12,,,,,,,,,11,11,67,,,
331768,control_change,80,0,13,,,,,,,,,12,11,67,,,
331772,control_change,80,0,14,,,,,,,,,13,11,67,,,
331774,control_change,80,0,15,,,,,,,,,14,11,67,,,
331800,set_tempo,120,1,0,,,,,,288462,,,,,,,,
331800,note_on,40,0,11,,,,,,,,,10,,,,69,0
331800,note_on,0,0,11,,,,,,,,,10,,,,64,112
331801,note_on,0,0,1,,,,,,,,,0,,,,88,0
331801,note_on,0,0,1,,,,,,,,,0,,,,89,101
331801,note_on,0,0,1,,,,,,,,,0,,,,86,101
331801,note_on,60,0,1,,,,,,,,,0,,,,85,0
331803,note_on,40,0,12,,,,,,,,,11,,,,69,0
331803,note_on,0,0,12,,,,,,,,,11,,,,64,112
331804,note_on,0,0,2,,,,,,,,,1,,,,74,100
331804,note_on,0,0,2,,,,,,,,,1,,,,77,100
331804,note_on,0,0,2,,,,,,,,,1,,,,73,0
331804,note_on,60,0,2,,,,,,,,,1,,,,76,0
331808,note_on,40,0,13,,,,,,,,,12,,,,57,0
331808,note_on,0,0,13,,,,,,,,,12,,,,52,112
331812,note_on,0,0,14,,,,,,,,,13,,,,52,112
331812,note_on,40,0,14,,,,,,,,,13,,,,57,0
331814,note_on,40,0,15,,,,,,,,,14,,,,45,0
331814,note_on,0,0,15,,,,,,,,,14,,,,40,112
331840,control_change,40,0,11,,,,,,,,,10,11,66,,,
331843,control_change,40,0,12,,,,,,,,,11,11,66,,,
331848,control_change,40,0,13,,,,,,,,,12,11,66,,,
331848,control_change,47,0,1,,,,,,,,,0,11,64,,,
331850,control_change,287,0,5,,,,,,,,,4,11,73,,,
331851,control_change,47,0,2,,,,,,,,,1,11,64,,,
331851,control_change,287,0,6,,,,,,,,,5,11,73,,,
331852,control_change,287,0,3,,,,,,,,,2,11,64,,,
331852,control_change,40,0,14,,,,,,,,,13,11,66,,,
331854,control_change,40,0,15,,,,,,,,,14,11,66,,,
331856,control_change,287,0,4,,,,,,,,,3,11,68,,,
331861,note_on,0,0,1,,,,,,,,,0,,,,85,101
331861,note_on,13,0,1,,,,,,,,,0,,,,86,0
331861,note_on,0,0,1,,,,,,,,,0,,,,89,0
331861,note_on,0,0,1,,,,,,,,,0,,,,88,101
331864,note_on,0,0,2,,,,,,,,,1,,,,73,100
331864,note_on,13,0,2,,,,,,,,,1,,,,74,0
331864,note_on,0,0,2,,,,,,,,,1,,,,76,100
331864,note_on,0,0,2,,,,,,,,,1,,,,77,0
331910,note_on,70,0,11,,,,,,,,,10,,,,64,0
331913,note_on,63,0,5,,,,,,,,,4,,,,64,0
331913,note_on,70,0,12,,,,,,,,,11,,,,64,0
331914,note_on,63,0,6,,,,,,,,,5,,,,64,0
331918,note_on,70,0,13,,,,,,,,,12,,,,52,0
331920,control_change,0,0,11,,,,,,,,,10,11,65,,,
331920,note_on,10,0,11,,,,,,,,,10,,,,61,112
331920,set_tempo,120,1,0,,,,,,254237,,,,,,,,
331921,note_on,0,0,1,,,,,,,,,0,,,,88,101
331921,note_on,60,0,1,,,,,,,,,0,,,,85,0
331921,note_on,0,0,1,,,,,,,,,0,,,,85,101
331921,note_on,0,0,1,,,,,,,,,0,,,,88,0
331922,note_on,70,0,14,,,,,,,,,13,,,,52,0
331923,control_change,10,0,12,,,,,,,,,11,11,65,,,
331923,note_on,0,0,12,,,,,,,,,11,,,,61,112
331923,note_on,10,0,5,,,,,,,,,4,,,,57,100
331924,note_on,70,0,15,,,,,,,,,14,,,,40,0
331924,note_on,10,0,6,,,,,,,,,5,,,,57,100
331924,note_on,0,0,2,,,,,,,,,1,,,,69,100
331924,note_on,0,0,2,,,,,,,,,1,,,,81,100
331924,note_on,0,0,2,,,,,,,,,1,,,,76,0
331924,note_on,60,0,2,,,,,,,,,1,,,,73,0
331925,note_on,0,0,3,,,,,,,,,2,,,,76,101
331925,note_on,0,0,3,,,,,,,,,2,,,,73,101
331925,note_on,0,0,3,,,,,,,,,2,,,,73,0
331925,note_on,73,0,3,,,,,,,,,2,,,,69,0
331928,note_on,0,0,13,,,,,,,,,12,,,,61,112
331928,control_change,10,0,13,,,,,,,,,12,11,65,,,
331929,note_on,0,0,4,,,,,,,,,3,,,,61,0
331929,note_on,0,0,4,,,,,,,,,3,,,,61,100
331929,note_on,73,0,4,,,,,,,,,3,,,,57,0
331929,note_on,0,0,4,,,,,,,,,3,,,,64,100
331932,note_on,0,0,14,,,,,,,,,13,,,,49,112
331932,control_change,10,0,14,,,,,,,,,13,11,65,,,
331934,note_on,10,0,15,,,,,,,,,14,,,,37,112
331934,control_change,0,0,15,,,,,,,,,14,11,65,,,
331955,note_on,30,0,3,,,,,,,,,2,,,,76,0
331955,note_on,0,0,3,,,,,,,,,2,,,,73,0
331959,note_on,30,0,4,,,,,,,,,3,,,,64,0
331959,note_on,0,0,4,,,,,,,,,3,,,,61,0
331981,note_on,0,0,1,,,,,,,,,0,,,,88,0
331981,note_on,60,0,1,,,,,,,,,0,,,,85,0
331984,note_on,0,0,2,,,,,,,,,1,,,,81,0
331984,note_on,60,0,2,,,,,,,,,1,,,,69,0
331985,note_on,0,0,3,,,,,,,,,2,,,,73,101
331985,note_on,30,0,3,,,,,,,,,2,,,,76,101
331989,note_on,30,0,4,,,,,,,,,3,,,,64,100
331989,note_on,0,0,4,,,,,,,,,3,,,,61,100
332000,control_change,80,0,11,,,,,,,,,10,11,64,,,
332003,control_change,80,0,12,,,,,,,,,11,11,64,,,
332008,control_change,80,0,13,,,,,,,,,12,11,64,,,
332012,control_change,80,0,14,,,,,,,,,13,11,64,,,
332014,control_change,80,0,15,,,,,,,,,14,11,64,,,
332015,note_on,30,0,3,,,,,,,,,2,,,,73,0
332015,note_on,0,0,3,,,,,,,,,2,,,,76,0
332019,note_on,0,0,4,,,,,,,,,3,,,,64,0
332019,note_on,30,0,4,,,,,,,,,3,,,,61,0
332033,note_on,110,0,5,,,,,,,,,4,,,,57,0
332034,note_on,110,0,6,,,,,,,,,5,,,,57,0
332040,set_tempo,120,1,0,,,,,,263158,,,,,,,,
332041,note_on,0,0,1,,,,,,,,,0,,,,88,101
332041,note_on,60,0,1,,,,,,,,,0,,,,85,101
332043,note_on,10,0,5,,,,,,,,,4,,,,57,100
332044,note_on,10,0,6,,,,,,,,,5,,,,57,100
332044,note_on,0,0,2,,,,,,,,,1,,,,69,100
332044,note_on,60,0,2,,,,,,,,,1,,,,81,100
332045,note_on,0,0,3,,,,,,,,,2,,,,74,101
332045,note_on,30,0,3,,,,,,,,,2,,,,77,101
332049,note_on,0,0,4,,,,,,,,,3,,,,62,100
332049,note_on,30,0,4,,,,,,,,,3,,,,65,100
332080,control_change,80,0,11,,,,,,,,,10,11,63,,,
332083,control_change,80,0,12,,,,,,,,,11,11,63,,,
332088,control_change,80,0,13,,,,,,,,,12,11,63,,,
332092,control_change,80,0,14,,,,,,,,,13,11,63,,,
332094,control_change,80,0,15,,,,,,,,,14,11,63,,,
332101,note_on,0,0,1,,,,,,,,,0,,,,85,0
332101,note_on,60,0,1,,,,,,,,,0,,,,88,0
332104,note_on,0,0,2,,,,,,,,,1,,,,81,0
332104,note_on,60,0,2,,,,,,,,,1,,,,69,0
332105,note_on,0,0,3,,,,,,,,,2,,,,76,101
332105,note_on,0,0,3,,,,,,,,,2,,,,77,0
332105,note_on,60,0,3,,,,,,,,,2,,,,74,0
332105,note_on,0,0,3,,,,,,,,,2,,,,73,101
332109,note_on,60,0,4,,,,,,,,,3,,,,62,0
332109,note_on,0,0,4,,,,,,,,,3,,,,61,100
332109,note_on,0,0,4,,,,,,,,,3,,,,65,0
332109,note_on,0,0,4,,,,,,,,,3,,,,64,100
332136,control_change,35,0,1,,,,,,,,,0,11,64,,,
332138,control_change,95,0,5,,,,,,,,,4,11,74,,,
332139,control_change,95,0,6,,,,,,,,,5,11,74,,,
332139,control_change,35,0,2,,,,,,,,,1,11,64,,,
332140,control_change,35,0,3,,,,,,,,,2,11,64,,,
332144,control_change,35,0,4,,,,,,,,,3,11,69,,,
332153,note_on,15,0,5,,,,,,,,,4,,,,57,0
332154,note_on,15,0,6,,,,,,,,,5,,,,57,0
332160,control_change,0,0,11,,,,,,,,,10,11,62,,,
332160,note_on,0,0,11,,,,,,,,,10,,,,57,112
332160,note_on,80,0,11,,,,,,,,,10,,,,61,0
332160,set_tempo,120,1,0,,,,,,288462,,,,,,,,
332161,note_on,0,0,1,,,,,,,,,0,,,,85,101
332161,note_on,25,0,1,,,,,,,,,0,,,,88,101
332163,control_change,0,0,12,,,,,,,,,11,11,62,,,
332163,note_on,10,0,5,,,,,,,,,4,,,,57,100
332163,note_on,0,0,12,,,,,,,,,11,,,,57,112
332163,note_on,80,0,12,,,,,,,,,11,,,,61,0
332164,note_on,25,0,2,,,,,,,,,1,,,,69,100
332164,note_on,0,0,2,,,,,,,,,1,,,,81,100
332164,note_on,10,0,6,,,,,,,,,5,,,,57,100
332165,note_on,0,0,3,,,,,,,,,2,,,,77,101
332165,note_on,0,0,3,,,,,,,,,2,,,,74,101
332165,note_on,0,0,3,,,,,,,,,2,,,,76,0
332165,note_on,25,0,3,,,,,,,,,2,,,,73,0
332168,note_on,0,0,13,,,,,,,,,12,,,,57,112
332168,note_on,80,0,13,,,,,,,,,12,,,,61,0
332168,control_change,0,0,13,,,,,,,,,12,11,62,,,
332169,note_on,0,0,4,,,,,,,,,3,,,,65,100
332169,note_on,25,0,4,,,,,,,,,3,,,,61,0
332169,note_on,0,0,4,,,,,,,,,3,,,,62,100
332169,note_on,0,0,4,,,,,,,,,3,,,,64,0
332172,control_change,0,0,14,,,,,,,,,13,11,62,,,
332172,note_on,0,0,14,,,,,,,,,13,,,,45,112
332172,note_on,80,0,14,,,,,,,,,13,,,,49,0
332174,note_on,80,0,15,,,,,,,,,14,,,,37,0
332174,note_on,0,0,15,,,,,,,,,14,,,,33,112
332174,control_change,0,0,15,,,,,,,,,14,11,62,,,
332176,control_change,16,0,11,,,,,,,,,10,11,62,,,
332179,control_change,16,0,12,,,,,,,,,11,11,62,,,
332184,control_change,16,0,13,,,,,,,,,12,11,62,,,
332188,control_change,16,0,14,,,,,,,,,13,11,62,,,
332190,control_change,16,0,15,,,,,,,,,14,11,62,,,
332221,note_on,0,0,1,,,,,,,,,0,,,,88,0
332221,note_on,60,0,1,,,,,,,,,0,,,,85,0
332224,note_on,0,0,2,,,,,,,,,1,,,,69,0
332224,note_on,60,0,2,,,,,,,,,1,,,,81,0
332225,note_on,60,0,3,,,,,,,,,2,,,,77,0
332225,note_on,0,0,3,,,,,,,,,2,,,,74,0
332225,note_on,0,0,3,,,,,,,,,2,,,,76,101
332225,note_on,0,0,3,,,,,,,,,2,,,,73,101
332229,note_on,60,0,4,,,,,,,,,3,,,,65,0
332229,note_on,0,0,4,,,,,,,,,3,,,,64,100
332229,note_on,0,0,4,,,,,,,,,3,,,,61,100
332229,note_on,0,0,4,,,,,,,,,3,,,,62,0
332270,note_on,94,0,11,,,,,,,,,10,,,,57,0
332273,note_on,94,0,12,,,,,,,,,11,,,,57,0
332273,note_on,110,0,5,,,,,,,,,4,,,,57,0
332274,note_on,110,0,6,,,,,,,,,5,,,,57,0
332278,note_on,94,0,13,,,,,,,,,12,,,,57,0
332279,control_change,9,0,11,,,,,,,,,10,11,63,,,
332280,set_tempo,120,1,0,,,,,,254237,,,,,,,,
332280,note_on,1,0,11,,,,,,,,,10,,,,62,112
332281,note_on,0,0,1,,,,,,,,,0,,,,89,101
332281,note_on,60,0,1,,,,,,,,,0,,,,86,101
332282,control_change,9,0,12,,,,,,,,,11,11,63,,,
332282,note_on,94,0,14,,,,,,,,,13,,,,45,0
332283,note_on,1,0,12,,,,,,,,,11,,,,62,112
332283,note_on,10,0,5,,,,,,,,,4,,,,57,100
332284,note_on,0,0,2,,,,,,,,,1,,,,77,100
332284,note_on,94,0,15,,,,,,,,,14,,,,33,0
332284,note_on,60,0,2,,,,,,,,,1,,,,81,100
332284,note_on,10,0,6,,,,,,,,,5,,,,57,100
332285,note_on,0,0,3,,,,,,,,,2,,,,77,101
332285,note_on,0,0,3,,,,,,,,,2,,,,76,0
332285,note_on,60,0,3,,,,,,,,,2,,,,73,0
332285,note_on,0,0,3,,,,,,,,,2,,,,74,101
332287,control_change,9,0,13,,,,,,,,,12,11,63,,,
332288,note_on,1,0,13,,,,,,,,,12,,,,50,112
332289,note_on,60,0,4,,,,,,,,,3,,,,61,0
332289,note_on,0,0,4,,,,,,,,,3,,,,62,100
332289,note_on,0,0,4,,,,,,,,,3,,,,65,100
332289,note_on,0,0,4,,,,,,,,,3,,,,64,0
332291,control_change,9,0,14,,,,,,,,,13,11,63,,,
332292,note_on,1,0,14,,,,,,,,,13,,,,50,112
332293,control_change,9,0,15,,,,,,,,,14,11,63,,,
332294,note_on,1,0,15,,,,,,,,,14,,,,38,112
332382,control_change,102,0,11,,,,,,,,,10,11,64,,,
332385,control_change,102,0,12,,,,,,,,,11,11,64,,,
332390,control_change,102,0,13,,,,,,,,,12,11,64,,,
332394,control_change,102,0,14,,,,,,,,,13,11,64,,,
332396,control_change,102,0,15,,,,,,,,,14,11,64,,,
332400,set_tempo,120,1,0,,,,,,263158,,,,,,,,
332424,control_change,143,0,1,,,,,,,,,0,11,65,,,
332426,control_change,143,0,5,,,,,,,,,4,11,75,,,
332427,control_change,143,0,6,,,,,,,,,5,11,75,,,
332427,control_change,143,0,2,,,,,,,,,1,11,65,,,
332428,control_change,143,0,3,,,,,,,,,2,11,65,,,
332432,control_change,143,0,4,,,,,,,,,3,11,70,,,
332485,control_change,103,0,11,,,,,,,,,10,11,65,,,
332488,control_change,103,0,12,,,,,,,,,11,11,65,,,
332493,control_change,103,0,13,,,,,,,,,12,11,65,,,
332497,control_change,103,0,14,,,,,,,,,13,11,65,,,
332499,control_change,103,0,15,,,,,,,,,14,11,65,,,
332520,note_on,0,0,11,,,,,,,,,10,,,,65,112
332520,set_tempo,120,1,0,,,,,,288462,,,,,,,,
332520,note_on,35,0,11,,,,,,,,,10,,,,62,0
332522,note_on,98,0,1,,,,,,,,,0,,,,89,0
332522,note_on,0,0,1,,,,,,,,,0,,,,86,0
332523,note_on,0,0,12,,,,,,,,,11,,,,65,112
332523,note_on,35,0,12,,,,,,,,,11,,,,62,0
332525,note_on,0,0,2,,,,,,,,,1,,,,81,0
332525,note_on,98,0,2,,,,,,,,,1,,,,77,0
332526,note_on,0,0,3,,,,,,,,,2,,,,77,0
332526,note_on,98,0,3,,,,,,,,,2,,,,74,0
332528,note_on,0,0,13,,,,,,,,,12,,,,53,112
332528,note_on,35,0,13,,,,,,,,,12,,,,50,0
332530,note_on,98,0,4,,,,,,,,,3,,,,65,0
332530,note_on,0,0,4,,,,,,,,,3,,,,62,0
332532,note_on,35,0,14,,,,,,,,,13,,,,50,0
332532,note_on,0,0,14,,,,,,,,,13,,,,53,112
332534,note_on,0,0,15,,,,,,,,,14,,,,41,112
332534,note_on,35,0,15,,,,,,,,,14,,,,38,0
332588,control_change,68,0,11,,,,,,,,,10,11,66,,,
332591,control_change,68,0,12,,,,,,,,,11,11,66,,,
332596,control_change,68,0,13,,,,,,,,,12,11,66,,,
332600,control_change,68,0,14,,,,,,,,,13,11,66,,,
332602,control_change,68,0,15,,,,,,,,,14,11,66,,,
332630,note_on,42,0,11,,,,,,,,,10,,,,65,0
332633,note_on,42,0,12,,,,,,,,,11,,,,65,0
332633,note_on,207,0,5,,,,,,,,,4,,,,57,0
332634,note_on,207,0,6,,,,,,,,,5,,,,57,0
332638,note_on,42,0,13,,,,,,,,,12,,,,53,0
332640,note_on,10,0,11,,,,,,,,,10,,,,69,112
332640,set_tempo,120,1,0,,,,,,254237,,,,,,,,
332641,note_on,119,0,1,,,,,,,,,0,,,,86,101
332641,note_on,0,0,1,,,,,,,,,0,,,,89,101
332642,note_on,42,0,14,,,,,,,,,13,,,,53,0
332643,note_on,10,0,5,,,,,,,,,4,,,,65,100
332643,note_on,10,0,12,,,,,,,,,11,,,,69,112
332644,note_on,0,0,2,,,,,,,,,1,,,,77,100
332644,note_on,119,0,2,,,,,,,,,1,,,,81,100
332644,note_on,10,0,6,,,,,,,,,5,,,,62,100
332644,note_on,42,0,15,,,,,,,,,14,,,,41,0
332645,note_on,0,0,3,,,,,,,,,2,,,,69,101
332645,note_on,119,0,3,,,,,,,,,2,,,,74,101
332648,note_on,10,0,13,,,,,,,,,12,,,,57,112
332649,note_on,0,0,4,,,,,,,,,3,,,,65,100
332649,note_on,119,0,4,,,,,,,,,3,,,,57,100
332652,note_on,10,0,14,,,,,,,,,13,,,,57,112
332654,note_on,10,0,15,,,,,,,,,14,,,,45,112
332690,control_change,50,0,11,,,,,,,,,10,11,67,,,
332693,control_change,50,0,12,,,,,,,,,11,11,67,,,
332698,control_change,50,0,13,,,,,,,,,12,11,67,,,
332702,control_change,50,0,14,,,,,,,,,13,11,67,,,
332704,control_change,50,0,15,,,,,,,,,14,11,67,,,
332712,control_change,71,0,1,,,,,,,,,0,11,66,,,
332714,control_change,71,0,5,,,,,,,,,4,11,76,,,
332715,control_change,71,0,6,,,,,,,,,5,11,76,,,
332715,control_change,71,0,2,,,,,,,,,1,11,66,,,
332716,control_change,71,0,3,,,,,,,,,2,11,66,,,
332720,control_change,71,0,4,,,,,,,,,3,11,71,,,
332760,set_tempo,120,1,0,,,,,,263158,,,,,,,,
332793,control_change,103,0,11,,,,,,,,,10,11,68,,,
332796,control_change,103,0,12,,,,,,,,,11,11,68,,,
332801,control_change,103,0,13,,,,,,,,,12,11,68,,,
332805,control_change,103,0,14,,,,,,,,,13,11,68,,,
332807,control_change,103,0,15,,,,,,,,,14,11,68,,,
332880,note_on,87,0,11,,,,,,,,,10,,,,69,0
332880,note_on,0,0,11,,,,,,,,,10,,,,74,112
332880,set_tempo,120,1,0,,,,,,288462,,,,,,,,
332882,note_on,170,0,1,,,,,,,,,0,,,,89,0
332882,note_on,0,0,1,,,,,,,,,0,,,,86,0
332883,note_on,0,0,12,,,,,,,,,11,,,,74,112
332883,note_on,87,0,12,,,,,,,,,11,,,,69,0
332885,note_on,0,0,2,,,,,,,,,1,,,,81,0
332885,note_on,170,0,2,,,,,,,,,1,,,,77,0
332886,note_on,0,0,3,,,,,,,,,2,,,,74,0
332886,note_on,170,0,3,,,,,,,,,2,,,,69,0
332888,note_on,87,0,13,,,,,,,,,12,,,,57,0
332888,note_on,0,0,13,,,,,,,,,12,,,,62,112
332890,note_on,170,0,4,,,,,,,,,3,,,,65,0
332890,note_on,0,0,4,,,,,,,,,3,,,,57,0
332892,note_on,87,0,14,,,,,,,,,13,,,,57,0
332892,note_on,0,0,14,,,,,,,,,13,,,,62,112
332894,note_on,0,0,15,,,,,,,,,14,,,,50,112
332894,note_on,87,0,15,,,,,,,,,14,,,,45,0
332896,control_change,16,0,11,,,,,,,,,10,11,69,,,
332899,control_change,16,0,12,,,,,,,,,11,11,69,,,
332904,control_change,16,0,13,,,,,,,,,12,11,69,,,
332908,control_change,16,0,14,,,,,,,,,13,11,69,,,
332910,control_change,16,0,15,,,,,,,,,14,11,69,,,
332990,note_on,94,0,11,,,,,,,,,10,,,,74,0
332993,note_on,94,0,12,,,,,,,,,11,,,,74,0
332993,note_on,279,0,5,,,,,,,,,4,,,,65,0
332994,note_on,279,0,6,,,,,,,,,5,,,,62,0
332998,note_on,94,0,13,,,,,,,,,12,,,,62,0
332999,control_change,9,0,11,,,,,,,,,10,11,70,,,
333000,note_on,1,0,11,,,,,,,,,10,,,,77,112
333000,control_change,118,0,1,,,,,,,,,0,11,67,,,
333000,set_tempo,120,1,0,,,,,,254237,,,,,,,,
333001,note_on,0,0,1,,,,,,,,,0,,,,89,101
333001,note_on,1,0,1,,,,,,,,,0,,,,86,101
333002,note_on,94,0,14,,,,,,,,,13,,,,62,0
333002,control_change,9,0,12,,,,,,,,,11,11,70,,,
333002,control_change,9,0,5,,,,,,,,,4,11,77,,,
333003,control_change,9,0,6,,,,,,,,,5,11,77,,,
333003,note_on,1,0,5,,,,,,,,,4,,,,65,100
333003,note_on,1,0,12,,,,,,,,,11,,,,77,112
333003,control_change,118,0,2,,,,,,,,,1,11,67,,,
333004,note_on,94,0,15,,,,,,,,,14,,,,50,0
333004,control_change,118,0,3,,,,,,,,,2,11,67,,,
333004,note_on,1,0,6,,,,,,,,,5,,,,62,100
333004,note_on,1,0,2,,,,,,,,,1,,,,81,100
333004,note_on,0,0,2,,,,,,,,,1,,,,77,100
333005,note_on,1,0,3,,,,,,,,,2,,,,69,101
333005,note_on,0,0,3,,,,,,,,,2,,,,74,101
333007,control_change,9,0,13,,,,,,,,,12,11,70,,,
333008,control_change,118,0,4,,,,,,,,,3,11,72,,,
333008,note_on,1,0,13,,,,,,,,,12,,,,65,112
333009,note_on,0,0,4,,,,,,,,,3,,,,65,100
333009,note_on,1,0,4,,,,,,,,,3,,,,57,100
333011,control_change,9,0,14,,,,,,,,,13,11,70,,,
333012,note_on,1,0,14,,,,,,,,,13,,,,65,112
333013,control_change,9,0,15,,,,,,,,,14,11,70,,,
333014,note_on,1,0,15,,,,,,,,,14,,,,53,112
333102,control_change,102,0,11,,,,,,,,,10,11,71,,,
333105,control_change,102,0,12,,,,,,,,,11,11,71,,,
333110,control_change,102,0,13,,,,,,,,,12,11,71,,,
333114,control_change,102,0,14,,,,,,,,,13,11,71,,,
333116,control_change,102,0,15,,,,,,,,,14,11,71,,,
333120,set_tempo,120,1,0,,,,,,263158,,,,,,,,
333205,control_change,103,0,11,,,,,,,,,10,11,72,,,
333208,control_change,103,0,12,,,,,,,,,11,11,72,,,
333213,control_change,103,0,13,,,,,,,,,12,11,72,,,
333217,control_change,103,0,14,,,,,,,,,13,11,72,,,
333219,control_change,103,0,15,,,,,,,,,14,11,72,,,
333240,note_on,35,0,11,,,,,,,,,10,,,,77,0
333240,set_tempo,120,1,0,,,,,,288462,,,,,,,,
333240,note_on,0,0,11,,,,,,,,,10,,,,81,112
333242,note_on,241,0,1,,,,,,,,,0,,,,89,0
333242,note_on,0,0,1,,,,,,,,,0,,,,86,0
333243,note_on,0,0,12,,,,,,,,,11,,,,81,112
333243,note_on,35,0,12,,,,,,,,,11,,,,77,0
333245,note_on,241,0,2,,,,,,,,,1,,,,77,0
333245,note_on,0,0,2,,,,,,,,,1,,,,81,0
333246,note_on,0,0,3,,,,,,,,,2,,,,69,0
333246,note_on,241,0,3,,,,,,,,,2,,,,74,0
333248,note_on,35,0,13,,,,,,,,,12,,,,65,0
333248,note_on,0,0,13,,,,,,,,,12,,,,69,112
333250,note_on,241,0,4,,,,,,,,,3,,,,65,0
333250,note_on,0,0,4,,,,,,,,,3,,,,57,0
333252,note_on,0,0,14,,,,,,,,,13,,,,69,112
333252,note_on,35,0,14,,,,,,,,,13,,,,65,0
333254,note_on,0,0,15,,,,,,,,,14,,,,57,112
333254,note_on,35,0,15,,,,,,,,,14,,,,53,0
333288,control_change,46,0,1,,,,,,,,,0,11,67,,,
333290,control_change,287,0,5,,,,,,,,,4,11,78,,,
333291,control_change,287,0,6,,,,,,,,,5,11,78,,,
333291,control_change,46,0,2,,,,,,,,,1,11,67,,,
333292,control_change,46,0,3,,,,,,,,,2,11,67,,,
333296,control_change,46,0,4,,,,,,,,,3,11,73,,,
333307,control_change,67,0,11,,,,,,,,,10,11,72,,,
333310,control_change,67,0,12,,,,,,,,,11,11,72,,,
333315,control_change,67,0,13,,,,,,,,,12,11,72,,,
333319,control_change,67,0,14,,,,,,,,,13,11,72,,,
333321,control_change,67,0,15,,,,,,,,,14,11,72,,,
333350,note_on,43,0,11,,,,,,,,,10,,,,81,0
333353,note_on,43,0,12,,,,,,,,,11,,,,81,0
333353,note_on,63,0,5,,,,,,,,,4,,,,65,0
333354,note_on,63,0,6,,,,,,,,,5,,,,62,0
333358,note_on,43,0,13,,,,,,,,,12,,,,69,0
333360,set_tempo,120,1,0,,,,,,254237,,,,,,,,
333360,note_on,10,0,11,,,,,,,,,10,,,,77,112
333361,note_on,0,0,1,,,,,,,,,0,,,,86,101
333361,note_on,73,0,1,,,,,,,,,0,,,,89,101
333362,note_on,43,0,14,,,,,,,,,13,,,,69,0
333363,note_on,10,0,5,,,,,,,,,4,,,,65,100
333363,note_on,10,0,12,,,,,,,,,11,,,,77,112
333364,note_on,43,0,15,,,,,,,,,14,,,,57,0
333364,note_on,73,0,2,,,,,,,,,1,,,,77,100
333364,note_on,0,0,2,,,,,,,,,1,,,,81,100
333364,note_on,10,0,6,,,,,,,,,5,,,,62,100
333365,note_on,73,0,3,,,,,,,,,2,,,,74,101
333365,note_on,0,0,3,,,,,,,,,2,,,,69,101
333368,note_on,10,0,13,,,,,,,,,12,,,,65,112
333369,note_on,73,0,4,,,,,,,,,3,,,,65,100
333369,note_on,0,0,4,,,,,,,,,3,,,,57,100
333372,note_on,10,0,14,,,,,,,,,13,,,,65,112
333374,note_on,10,0,15,,,,,,,,,14,,,,53,112
333410,control_change,50,0,11,,,,,,,,,10,11,73,,,
333413,control_change,50,0,12,,,,,,,,,11,11,73,,,
333418,control_change,50,0,13,,,,,,,,,12,11,73,,,
333422,control_change,50,0,14,,,,,,,,,13,11,73,,,
333424,control_change,50,0,15,,,,,,,,,14,11,73,,,
333480,set_tempo,120,1,0,,,,,,263158,,,,,,,,
333513,control_change,103,0,11,,,,,,,,,10,11,74,,,
333516,control_change,103,0,12,,,,,,,,,11,11,74,,,
333521,control_change,103,0,13,,,,,,,,,12,11,74,,,
333525,control_change,103,0,14,,,,,,,,,13,11,74,,,
333527,control_change,103,0,15,,,,,,,,,14,11,74,,,
333576,control_change,215,0,1,,,,,,,,,0,11,68,,,
333578,control_change,215,0,5,,,,,,,,,4,11,79,,,
333579,control_change,215,0,6,,,,,,,,,5,11,79,,,
333579,control_change,215,0,2,,,,,,,,,1,11,68,,,
333580,control_change,215,0,3,,,,,,,,,2,11,68,,,
333584,control_change,215,0,4,,,,,,,,,3,11,74,,,
333600,note_on,0,0,11,,,,,,,,,10,,,,74,112
333600,note_on,87,0,11,,,,,,,,,10,,,,77,0
333600,set_tempo,120,1,0,,,,,,288462,,,,,,,,
333602,note_on,0,0,1,,,,,,,,,0,,,,89,0
333602,note_on,26,0,1,,,,,,,,,0,,,,86,0
333603,note_on,87,0,12,,,,,,,,,11,,,,77,0
333603,note_on,0,0,12,,,,,,,,,11,,,,74,112
333605,note_on,0,0,2,,,,,,,,,1,,,,77,0
333605,note_on,26,0,2,,,,,,,,,1,,,,81,0
333606,note_on,0,0,3,,,,,,,,,2,,,,74,0
333606,note_on,26,0,3,,,,,,,,,2,,,,69,0
333608,note_on,87,0,13,,,,,,,,,12,,,,65,0
333608,note_on,0,0,13,,,,,,,,,12,,,,62,112
333610,note_on,26,0,4,,,,,,,,,3,,,,57,0
333610,note_on,0,0,4,,,,,,,,,3,,,,65,0
333612,note_on,87,0,14,,,,,,,,,13,,,,65,0
333612,note_on,0,0,14,,,,,,,,,13,,,,62,112
333614,note_on,0,0,15,,,,,,,,,14,,,,50,112
333614,note_on,87,0,15,,,,,,,,,14,,,,53,0
333616,control_change,16,0,11,,,,,,,,,10,11,75,,,
333619,control_change,16,0,12,,,,,,,,,11,11,75,,,
333624,control_change,16,0,13,,,,,,,,,12,11,75,,,
333628,control_change,16,0,14,,,,,,,,,13,11,75,,,
333630,control_change,16,0,15,,,,,,,,,14,11,75,,,
333710,note_on,94,0,11,,,,,,,,,10,,,,74,0
333713,note_on,135,0,5,,,,,,,,,4,,,,65,0
333713,note_on,94,0,12,,,,,,,,,11,,,,74,0
333714,note_on,135,0,6,,,,,,,,,5,,,,62,0
333718,note_on,94,0,13,,,,,,,,,12,,,,62,0
333719,control_change,9,0,11,,,,,,,,,10,11,76,,,
333720,note_on,1,0,11,,,,,,,,,10,,,,69,112
333720,set_tempo,120,1,0,,,,,,254237,,,,,,,,
333721,note_on,0,0,1,,,,,,,,,0,,,,89,101
333721,note_on,119,0,1,,,,,,,,,0,,,,86,101
333722,note_on,94,0,14,,,,,,,,,13,,,,62,0
333722,control_change,9,0,12,,,,,,,,,11,11,76,,,
333723,note_on,1,0,12,,,,,,,,,11,,,,69,112
333723,note_on,10,0,5,,,,,,,,,4,,,,65,100
333724,note_on,94,0,15,,,,,,,,,14,,,,50,0
333724,note_on,0,0,2,,,,,,,,,1,,,,77,100
333724,note_on,119,0,2,,,,,,,,,1,,,,81,100
333724,note_on,10,0,6,,,,,,,,,5,,,,62,100
333725,note_on,0,0,3,,,,,,,,,2,,,,74,101
333725,note_on,119,0,3,,,,,,,,,2,,,,69,101
333727,control_change,9,0,13,,,,,,,,,12,11,76,,,
333728,note_on,1,0,13,,,,,,,,,12,,,,57,112
333729,note_on,0,0,4,,,,,,,,,3,,,,65,100
333729,note_on,119,0,4,,,,,,,,,3,,,,57,100
333731,control_change,9,0,14,,,,,,,,,13,11,76,,,
333732,note_on,1,0,14,,,,,,,,,13,,,,57,112
333733,control_change,9,0,15,,,,,,,,,14,11,76,,,
333734,note_on,1,0,15,,,,,,,,,14,,,,45,112
333755,note_on,0,0,1,,,,,,,,,0,,,,86,0
333755,note_on,34,0,1,,,,,,,,,0,,,,89,0
333758,note_on,34,0,2,,,,,,,,,1,,,,77,0
333759,note_on,34,0,3,,,,,,,,,2,,,,74,0
333781,note_on,26,0,1,,,,,,,,,0,,,,86,101
333781,note_on,0,0,1,,,,,,,,,0,,,,89,101
333784,note_on,26,0,2,,,,,,,,,1,,,,77,100
333785,note_on,26,0,3,,,,,,,,,2,,,,74,101
333815,note_on,34,0,1,,,,,,,,,0,,,,89,0
333815,note_on,0,0,1,,,,,,,,,0,,,,86,0
333818,note_on,34,0,2,,,,,,,,,1,,,,77,0
333819,note_on,34,0,3,,,,,,,,,2,,,,74,0
333822,control_change,102,0,11,,,,,,,,,10,11,77,,,
333825,control_change,102,0,12,,,,,,,,,11,11,77,,,
333830,control_change,102,0,13,,,,,,,,,12,11,77,,,
333834,control_change,102,0,14,,,,,,,,,13,11,77,,,
333836,control_change,102,0,15,,,,,,,,,14,11,77,,,
333840,set_tempo,120,1,0,,,,,,263158,,,,,,,,
333841,note_on,26,0,1,,,,,,,,,0,,,,88,101
333841,note_on,0,0,1,,,,,,,,,0,,,,91,101
333844,note_on,26,0,2,,,,,,,,,1,,,,79,100
333845,note_on,26,0,3,,,,,,,,,2,,,,76,101
333864,control_change,23,0,1,,,,,,,,,0,11,69,,,
333866,control_change,143,0,5,,,,,,,,,4,11,80,,,
333867,control_change,23,0,2,,,,,,,,,1,11,69,,,
333867,control_change,143,0,6,,,,,,,,,5,11,80,,,
333868,control_change,23,0,3,,,,,,,,,2,11,69,,,
333872,control_change,143,0,4,,,,,,,,,3,11,75,,,
333901,note_on,37,0,1,,,,,,,,,0,,,,91,0
333901,note_on,0,0,1,,,,,,,,,0,,,,89,101
333901,note_on,0,0,1,,,,,,,,,0,,,,88,0
333901,note_on,0,0,1,,,,,,,,,0,,,,86,101
333904,note_on,0,0,2,,,,,,,,,1,,,,77,100
333904,note_on,37,0,2,,,,,,,,,1,,,,79,0
333905,note_on,37,0,3,,,,,,,,,2,,,,76,0
333905,note_on,0,0,3,,,,,,,,,2,,,,74,101
333924,control_change,102,0,11,,,,,,,,,10,11,78,,,
333927,control_change,102,0,12,,,,,,,,,11,11,78,,,
333932,control_change,102,0,13,,,,,,,,,12,11,78,,,
333936,control_change,102,0,14,,,,,,,,,13,11,78,,,
333938,control_change,102,0,15,,,,,,,,,14,11,78,,,
333960,set_tempo,120,1,0,,,,,,288462,,,,,,,,
333960,note_on,36,0,11,,,,,,,,,10,,,,69,0
333960,note_on,0,0,11,,,,,,,,,10,,,,65,112
333961,note_on,60,0,1,,,,,,,,,0,,,,86,0
333961,note_on,0,0,1,,,,,,,,,0,,,,91,101
333961,note_on,0,0,1,,,,,,,,,0,,,,88,101
333961,note_on,0,0,1,,,,,,,,,0,,,,89,0
333963,note_on,36,0,12,,,,,,,,,11,,,,69,0
333963,note_on,0,0,12,,,,,,,,,11,,,,65,112
333964,note_on,60,0,2,,,,,,,,,1,,,,77,0
333964,note_on,0,0,2,,,,,,,,,1,,,,79,100
333965,note_on,0,0,3,,,,,,,,,2,,,,76,101
333965,note_on,60,0,3,,,,,,,,,2,,,,74,0
333968,note_on,0,0,13,,,,,,,,,12,,,,53,112
333968,note_on,36,0,13,,,,,,,,,12,,,,57,0
333972,note_on,36,0,14,,,,,,,,,13,,,,57,0
333972,note_on,0,0,14,,,,,,,,,13,,,,53,112
333974,note_on,36,0,15,,,,,,,,,14,,,,45,0
333974,note_on,0,0,15,,,,,,,,,14,,,,41,112
334021,note_on,60,0,1,,,,,,,,,0,,,,88,0
334021,note_on,0,0,1,,,,,,,,,0,,,,91,0
334021,note_on,0,0,1,,,,,,,,,0,,,,86,101
334021,note_on,0,0,1,,,,,,,,,0,,,,89,101
334024,note_on,60,0,2,,,,,,,,,1,,,,79,0
334024,note_on,0,0,2,,,,,,,,,1,,,,77,100
334025,note_on,60,0,3,,,,,,,,,2,,,,76,0
334025,note_on,0,0,3,,,,,,,,,2,,,,74,101
334027,control_change,67,0,11,,,,,,,,,10,11,79,,,
334030,control_change,67,0,12,,,,,,,,,11,11,79,,,
334035,control_change,67,0,13,,,,,,,,,12,11,79,,,
334039,control_change,67,0,14,,,,,,,,,13,11,79,,,
334041,control_change,67,0,15,,,,,,,,,14,11,79,,,
334070,note_on,43,0,11,,,,,,,,,10,,,,65,0
334073,note_on,43,0,12,,,,,,,,,11,,,,65,0
334073,note_on,207,0,5,,,,,,,,,4,,,,65,0
334074,note_on,207,0,6,,,,,,,,,5,,,,62,0
334078,note_on,43,0,13,,,,,,,,,12,,,,53,0
334080,set_tempo,120,1,0,,,,,,254237,,,,,,,,
334080,note_on,10,0,11,,,,,,,,,10,,,,62,112
334081,note_on,0,0,1,,,,,,,,,0,,,,89,101
334081,note_on,0,0,1,,,,,,,,,0,,,,86,101
334081,note_on,0,0,1,,,,,,,,,0,,,,86,0
334081,note_on,60,0,1,,,,,,,,,0,,,,89,0
334082,note_on,43,0,14,,,,,,,,,13,,,,53,0
334083,note_on,10,0,5,,,,,,,,,4,,,,65,100
334083,note_on,10,0,12,,,,,,,,,11,,,,62,112
334084,note_on,60,0,2,,,,,,,,,1,,,,77,0
334084,note_on,0,0,2,,,,,,,,,1,,,,81,0
334084,note_on,0,0,2,,,,,,,,,1,,,,81,100
334084,note_on,0,0,2,,,,,,,,,1,,,,77,100
334084,note_on,10,0,6,,,,,,,,,5,,,,62,100
334084,note_on,43,0,15,,,,,,,,,14,,,,41,0
334085,note_on,0,0,3,,,,,,,,,2,,,,69,0
334085,note_on,60,0,3,,,,,,,,,2,,,,74,0
334085,note_on,0,0,3,,,,,,,,,2,,,,77,101
334085,note_on,0,0,3,,,,,,,,,2,,,,74,101
334087,program_change,9,0,13,,,,,,,,50,12,,,,,
334088,note_on,1,0,13,,,,,,,,,12,,,,62,112
334089,note_on,0,0,4,,,,,,,,,3,,,,62,100
334089,note_on,0,0,4,,,,,,,,,3,,,,65,100
334089,note_on,0,0,4,,,,,,,,,3,,,,57,0
334089,note_on,217,0,4,,,,,,,,,3,,,,65,0
334092,note_on,10,0,14,,,,,,,,,13,,,,50,112
334094,note_on,10,0,15,,,,,,,,,14,,,,38,112
334119,note_on,34,0,3,,,,,,,,,2,,,,74,0
334119,note_on,0,0,3,,,,,,,,,2,,,,77,0
334123,note_on,0,0,4,,,,,,,,,3,,,,65,0
334123,note_on,34,0,4,,,,,,,,,3,,,,62,0
334130,control_change,50,0,11,,,,,,,,,10,11,80,,,
334133,control_change,50,0,12,,,,,,,,,11,11,80,,,
334138,control_change,50,0,13,,,,,,,,,12,11,80,,,
334141,note_on,60,0,1,,,,,,,,,0,,,,89,0
334141,note_on,0,0,1,,,,,,,,,0,,,,86,0
334142,control_change,50,0,14,,,,,,,,,13,11,80,,,
334144,note_on,60,0,2,,,,,,,,,1,,,,77,0
334144,note_on,0,0,2,,,,,,,,,1,,,,81,0
334144,control_change,50,0,15,,,,,,,,,14,11,80,,,
334145,note_on,0,0,3,,,,,,,,,2,,,,77,101
334145,note_on,26,0,3,,,,,,,,,2,,,,74,101
334149,note_on,26,0,4,,,,,,,,,3,,,,62,100
334149,note_on,0,0,4,,,,,,,,,3,,,,65,100
334152,control_change,11,0,1,,,,,,,,,0,11,70,,,
334154,control_change,71,0,5,,,,,,,,,4,11,81,,,
334155,control_change,11,0,2,,,,,,,,,1,11,70,,,
334155,control_change,71,0,6,,,,,,,,,5,11,81,,,
334156,control_change,11,0,3,,,,,,,,,2,11,70,,,
334160,control_change,11,0,4,,,,,,,,,3,11,76,,,
334179,note_on,23,0,3,,,,,,,,,2,,,,77,0
334179,note_on,0,0,3,,,,,,,,,2,,,,74,0
334183,note_on,23,0,4,,,,,,,,,3,,,,65,0
334183,note_on,0,0,4,,,,,,,,,3,,,,62,0
334193,note_on,39,0,5,,,,,,,,,4,,,,65,0
334194,note_on,39,0,6,,,,,,,,,5,,,,62,0
334200,set_tempo,120,1,0,,,,,,263158,,,,,,,,
334201,note_on,0,0,1,,,,,,,,,0,,,,86,101
334201,note_on,49,0,1,,,,,,,,,0,,,,89,101
334203,note_on,10,0,5,,,,,,,,,4,,,,65,100
334204,note_on,10,0,6,,,,,,,,,5,,,,62,100
334204,note_on,0,0,2,,,,,,,,,1,,,,81,100
334204,note_on,49,0,2,,,,,,,,,1,,,,77,100
334205,note_on,26,0,3,,,,,,,,,2,,,,76,101
334205,note_on,0,0,3,,,,,,,,,2,,,,79,101
334209,note_on,0,0,4,,,,,,,,,3,,,,67,100
334209,note_on,26,0,4,,,,,,,,,3,,,,64,100
334233,control_change,103,0,11,,,,,,,,,10,11,81,,,
334236,control_change,103,0,12,,,,,,,,,11,11,81,,,
334241,control_change,103,0,13,,,,,,,,,12,11,81,,,
334245,control_change,103,0,14,,,,,,,,,13,11,81,,,
334247,control_change,103,0,15,,,,,,,,,14,11,81,,,
334261,note_on,60,0,1,,,,,,,,,0,,,,86,0
334261,note_on,0,0,1,,,,,,,,,0,,,,89,0
334264,note_on,0,0,2,,,,,,,,,1,,,,77,0
334264,note_on,60,0,2,,,,,,,,,1,,,,81,0
334265,note_on,0,0,3,,,,,,,,,2,,,,77,101
334265,note_on,0,0,3,,,,,,,,,2,,,,74,101
334265,note_on,60,0,3,,,,,,,,,2,,,,79,0
334265,note_on,0,0,3,,,,,,,,,2,,,,76,0
334269,note_on,60,0,4,,,,,,,,,3,,,,67,0
334269,note_on,0,0,4,,,,,,,,,3,,,,64,0
334269,note_on,0,0,4,,,,,,,,,3,,,,62,100
334269,note_on,0,0,4,,,,,,,,,3,,,,65,100
334313,note_on,110,0,5,,,,,,,,,4,,,,65,0
334314,note_on,110,0,6,,,,,,,,,5,,,,62,0
334320,note_on,0,0,11,,,,,,,,,10,,,,57,112
334320,note_on,87,0,11,,,,,,,,,10,,,,62,0
334320,set_tempo,120,1,0,,,,,,288462,,,,,,,,
334321,note_on,0,0,1,,,,,,,,,0,,,,89,101
334321,note_on,60,0,1,,,,,,,,,0,,,,86,101
334323,note_on,87,0,12,,,,,,,,,11,,,,62,0
334323,note_on,10,0,5,,,,,,,,,4,,,,65,100
334323,note_on,0,0,12,,,,,,,,,11,,,,57,112
334324,note_on,10,0,6,,,,,,,,,5,,,,62,100
334324,note_on,0,0,2,,,,,,,,,1,,,,77,100
334324,note_on,60,0,2,,,,,,,,,1,,,,81,100
334325,note_on,0,0,3,,,,,,,,,2,,,,76,101
334325,note_on,0,0,3,,,,,,,,,2,,,,74,0
334325,note_on,0,0,3,,,,,,,,,2,,,,79,101
334325,note_on,60,0,3,,,,,,,,,2,,,,77,0
334328,note_on,87,0,13,,,,,,,,,12,,,,62,0
334328,note_on,0,0,13,,,,,,,,,12,,,,57,112
334329,note_on,0,0,4,,,,,,,,,3,,,,67,100
334329,note_on,0,0,4,,,,,,,,,3,,,,64,100
334329,note_on,60,0,4,,,,,,,,,3,,,,65,0
334329,note_on,0,0,4,,,,,,,,,3,,,,62,0
334332,note_on,87,0,14,,,,,,,,,13,,,,50,0
334332,note_on,0,0,14,,,,,,,,,13,,,,45,112
334334,note_on,0,0,15,,,,,,,,,14,,,,33,112
334334,note_on,87,0,15,,,,,,,,,14,,,,38,0
334336,control_change,16,0,11,,,,,,,,,10,11,82,,,
334339,control_change,16,0,12,,,,,,,,,11,11,82,,,
334344,control_change,16,0,13,,,,,,,,,12,11,82,,,
334348,control_change,16,0,14,,,,,,,,,13,11,82,,,
334350,control_change,16,0,15,,,,,,,,,14,11,82,,,
334381,note_on,60,0,1,,,,,,,,,0,,,,89,0
334381,note_on,0,0,1,,,,,,,,,0,,,,86,0
334384,note_on,60,0,2,,,,,,,,,1,,,,77,0
334384,note_on,0,0,2,,,,,,,,,1,,,,81,0
334385,note_on,0,0,3,,,,,,,,,2,,,,77,101
334385,note_on,0,0,3,,,,,,,,,2,,,,74,101
334385,note_on,0,0,3,,,,,,,,,2,,,,79,0
334385,note_on,60,0,3,,,,,,,,,2,,,,76,0
334389,note_on,0,0,4,,,,,,,,,3,,,,65,100
334389,note_on,0,0,4,,,,,,,,,3,,,,64,0
334389,note_on,60,0,4,,,,,,,,,3,,,,67,0
334389,note_on,0,0,4,,,,,,,,,3,,,,62,100
334430,note_on,94,0,11,,,,,,,,,10,,,,57,0
334433,note_on,110,0,5,,,,,,,,,4,,,,65,0
334433,note_on,94,0,12,,,,,,,,,11,,,,57,0
334434,note_on,110,0,6,,,,,,,,,5,,,,62,0
334438,note_on,94,0,13,,,,,,,,,12,,,,57,0
334439,control_change,9,0,11,,,,,,,,,10,11,83,,,
334440,note_on,1,0,11,,,,,,,,,10,,,,55,112
334440,control_change,59,0,1,,,,,,,,,0,11,70,,,
334440,set_tempo,120,1,0,,,,,,254237,,,,,,,,
334441,note_on,0,0,1,,,,,,,,,0,,,,86,101
334441,note_on,1,0,1,,,,,,,,,0,,,,89,101
334442,control_change,9,0,5,,,,,,,,,4,11,82,,,
334442,note_on,8760,0,7,,,,,,,,,6,,,,67,112
334442,note_on,94,0,14,,,,,,,,,13,,,,45,0
334442,note_on,0,0,7,,,,,,,,,6,,,,55,112
334442,control_change,9,0,12,,,,,,,,,11,11,83,,,
334442,control_change,0,0,7,,,,,,,,,6,11,82,,,
334443,control_change,59,0,2,,,,,,,,,1,11,70,,,
334443,note_on,1,0,12,,,,,,,,,11,,,,55,112
334443,control_change,9,0,6,,,,,,,,,5,11,82,,,
334443,note_on,1,0,5,,,,,,,,,4,,,,65,100
334444,note_on,94,0,15,,,,,,,,,14,,,,33,0
334444,control_change,59,0,3,,,,,,,,,2,11,70,,,
334444,note_on,1,0,2,,,,,,,,,1,,,,77,100
334444,note_on,1,0,6,,,,,,,,,5,,,,62,100
334444,note_on,0,0,2,,,,,,,,,1,,,,83,100
334445,note_on,1,0,3,,,,,,,,,2,,,,74,0
334445,note_on,0,0,3,,,,,,,,,2,,,,71,101
334445,note_on,0,0,3,,,,,,,,,2,,,,74,101
334445,note_on,0,0,3,,,,,,,,,2,,,,77,0
334447,control_change,9,0,13,,,,,,,,,12,11,83,,,
334448,note_on,1,0,13,,,,,,,,,12,,,,55,112
334448,control_change,59,0,4,,,,,,,,,3,11,77,,,
334449,note_on,1,0,4,,,,,,,,,3,,,,65,0
334449,note_on,0,0,4,,,,,,,,,3,,,,62,0
334449,note_on,0,0,4,,,,,,,,,3,,,,59,100
334449,note_on,0,0,4,,,,,,,,,3,,,,55,100
334451,control_change,9,0,14,,,,,,,,,13,11,83,,,
334452,note_on,1,0,14,,,,,,,,,13,,,,43,112
334453,control_change,9,0,15,,,,,,,,,14,11,83,,,
334454,note_on,1,0,15,,,,,,,,,14,,,,31,112
334455,note_on,8760,0,10,,,,,,,,,15,,,,43,85
334511,control_change,71,0,11,,,,,,,,,10,11,84,,,
334514,control_change,71,0,12,,,,,,,,,11,11,84,,,
334519,control_change,71,0,13,,,,,,,,,12,11,84,,,
334523,control_change,71,0,14,,,,,,,,,13,11,84,,,
334525,control_change,71,0,15,,,,,,,,,14,11,84,,,
334560,set_tempo,120,1,0,,,,,,263158,,,,,,,,
334583,control_change,72,0,11,,,,,,,,,10,11,85,,,
334586,control_change,72,0,12,,,,,,,,,11,11,85,,,
334591,control_change,72,0,13,,,,,,,,,12,11,85,,,
334595,control_change,72,0,14,,,,,,,,,13,11,85,,,
334597,control_change,72,0,15,,,,,,,,,14,11,85,,,
334655,control_change,72,0,11,,,,,,,,,10,11,86,,,
334658,control_change,72,0,12,,,,,,,,,11,11,86,,,
334663,control_change,72,0,13,,,,,,,,,12,11,86,,,
334667,control_change,72,0,14,,,,,,,,,13,11,86,,,
334669,control_change,72,0,15,,,,,,,,,14,11,86,,,
334680,set_tempo,120,1,0,,,,,,288462,,,,,,,,
334680,note_on,0,0,11,,,,,,,,,10,,,,59,112
334680,note_on,25,0,11,,,,,,,,,10,,,,55,0
334682,note_on,241,0,1,,,,,,,,,0,,,,86,0
334682,note_on,0,0,1,,,,,,,,,0,,,,89,0
334683,note_on,25,0,12,,,,,,,,,11,,,,55,0
334683,note_on,0,0,12,,,,,,,,,11,,,,59,112
334685,note_on,0,0,2,,,,,,,,,1,,,,77,0
334685,note_on,241,0,2,,,,,,,,,1,,,,83,0
334686,note_on,241,0,3,,,,,,,,,2,,,,71,0
334686,note_on,0,0,3,,,,,,,,,2,,,,74,0
334688,note_on,0,0,13,,,,,,,,,12,,,,59,112
334688,note_on,25,0,13,,,,,,,,,12,,,,55,0
334690,note_on,241,0,4,,,,,,,,,3,,,,55,0
334690,note_on,0,0,4,,,,,,,,,3,,,,59,0
334692,note_on,25,0,14,,,,,,,,,13,,,,43,0
334692,note_on,0,0,14,,,,,,,,,13,,,,47,112
334694,note_on,0,0,15,,,,,,,,,14,,,,35,112
334694,note_on,25,0,15,,,,,,,,,14,,,,31,0
334695,note_on,240,0,10,,,,,,,,,15,,,,43,0
334727,control_change,47,0,11,,,,,,,,,10,11,87,,,
334730,control_change,47,0,12,,,,,,,,,11,11,87,,,
334735,control_change,47,0,13,,,,,,,,,12,11,87,,,
334739,control_change,47,0,14,,,,,,,,,13,11,87,,,
334741,control_change,47,0,15,,,,,,,,,14,11,87,,,
334790,note_on,63,0,11,,,,,,,,,10,,,,59,0
334792,note_on,0,0,7,,,,,,,,,6,,,,67,0
334792,note_on,350,0,7,,,,,,,,,6,,,,55,0
334793,note_on,350,0,5,,,,,,,,,4,,,,65,0
334793,note_on,63,0,12,,,,,,,,,11,,,,59,0
334794,note_on,350,0,6,,,,,,,,,5,,,,62,0
334798,note_on,63,0,13,,,,,,,,,12,,,,59,0
334799,control_change,9,0,11,,,,,,,,,10,11,87,,,
334800,note_on,1,0,11,,,,,,,,,10,,,,62,112
334800,set_tempo,120,1,0,,,,,,254237,,,,,,,,
334801,note_on,119,0,1,,,,,,,,,0,,,,89,101
334801,note_on,0,0,1,,,,,,,,,0,,,,86,101
334802,note_on,63,0,14,,,,,,,,,13,,,,47,0
334802,note_on,10,0,7,,,,,,,,,6,,,,67,112
334802,note_on,0,0,7,,,,,,,,,6,,,,55,112
334802,control_change,9,0,12,,,,,,,,,11,11,87,,,
334803,note_on,10,0,5,,,,,,,,,4,,,,65,100
334803,note_on,1,0,12,,,,,,,,,11,,,,62,112
334804,note_on,63,0,15,,,,,,,,,14,,,,35,0
334804,note_on,119,0,2,,,,,,,,,1,,,,77,100
334804,note_on,0,0,2,,,,,,,,,1,,,,83,100
334804,note_on,10,0,6,,,,,,,,,5,,,,62,100
334805,note_on,0,0,3,,,,,,,,,2,,,,71,101
334805,note_on,119,0,3,,,,,,,,,2,,,,74,101
334807,control_change,9,0,13,,,,,,,,,12,11,87,,,
334808,note_on,1,0,13,,,,,,,,,12,,,,62,112
334809,note_on,0,0,4,,,,,,,,,3,,,,59,100
334809,note_on,119,0,4,,,,,,,,,3,,,,55,100
334811,control_change,9,0,14,,,,,,,,,13,11,87,,,
334812,note_on,1,0,14,,,,,,,,,13,,,,50,112
334813,control_change,9,0,15,,,,,,,,,14,11,87,,,
334814,note_on,1,0,15,,,,,,,,,14,,,,38,112
334815,note_on,120,0,10,,,,,,,,,15,,,,43,85
334871,control_change,71,0,11,,,,,,,,,10,11,88,,,
334874,control_change,71,0,12,,,,,,,,,11,11,88,,,
334879,control_change,71,0,13,,,,,,,,,12,11,88,,,
334883,control_change,71,0,14,,,,,,,,,13,11,88,,,
334885,control_change,71,0,15,,,,,,,,,14,11,88,,,
334920,set_tempo,120,1,0,,,,,,263158,,,,,,,,
334943,control_change,72,0,11,,,,,,,,,10,11,89,,,
334946,control_change,72,0,12,,,,,,,,,11,11,89,,,
334951,control_change,72,0,13,,,,,,,,,12,11,89,,,
334955,control_change,72,0,14,,,,,,,,,13,11,89,,,
334957,control_change,72,0,15,,,,,,,,,14,11,89,,,
335015,control_change,72,0,11,,,,,,,,,10,11,90,,,
335018,control_change,72,0,12,,,,,,,,,11,11,90,,,
335023,control_change,72,0,13,,,,,,,,,12,11,90,,,
335027,control_change,72,0,14,,,,,,,,,13,11,90,,,
335029,control_change,72,0,15,,,,,,,,,14,11,90,,,
335040,note_on,0,0,11,,,,,,,,,10,,,,67,112
335040,note_on,25,0,11,,,,,,,,,10,,,,62,0
335040,set_tempo,120,1,0,,,,,,288462,,,,,,,,
335042,note_on,0,0,1,,,,,,,,,0,,,,89,0
335042,note_on,241,0,1,,,,,,,,,0,,,,86,0
335043,note_on,25,0,12,,,,,,,,,11,,,,62,0
335043,note_on,0,0,12,,,,,,,,,11,,,,67,112
335045,note_on,241,0,2,,,,,,,,,1,,,,83,0
335045,note_on,0,0,2,,,,,,,,,1,,,,77,0
335046,note_on,241,0,3,,,,,,,,,2,,,,71,0
335046,note_on,0,0,3,,,,,,,,,2,,,,74,0
335048,note_on,25,0,13,,,,,,,,,12,,,,62,0
335048,note_on,0,0,13,,,,,,,,,12,,,,67,112
335050,note_on,0,0,4,,,,,,,,,3,,,,55,0
335050,note_on,241,0,4,,,,,,,,,3,,,,59,0
335052,note_on,0,0,14,,,,,,,,,13,,,,55,112
335052,note_on,25,0,14,,,,,,,,,13,,,,50,0
335054,note_on,0,0,15,,,,,,,,,14,,,,43,112
335054,note_on,25,0,15,,,,,,,,,14,,,,38,0
335055,note_on,240,0,10,,,,,,,,,15,,,,43,0
335087,control_change,47,0,11,,,,,,,,,10,11,91,,,
335090,control_change,47,0,12,,,,,,,,,11,11,91,,,
335095,control_change,47,0,13,,,,,,,,,12,11,91,,,
335099,control_change,47,0,14,,,,,,,,,13,11,91,,,
335101,control_change,47,0,15,,,,,,,,,14,11,91,,,
335150,note_on,63,0,11,,,,,,,,,10,,,,67,0
335152,note_on,0,0,7,,,,,,,,,6,,,,67,0
335152,note_on,350,0,7,,,,,,,,,6,,,,55,0
335153,note_on,63,0,12,,,,,,,,,11,,,,67,0
335153,note_on,350,0,5,,,,,,,,,4,,,,65,0
335154,note_on,350,0,6,,,,,,,,,5,,,,62,0
335158,note_on,63,0,13,,,,,,,,,12,,,,67,0
335159,control_change,9,0,11,,,,,,,,,10,11,92,,,
335160,note_on,1,0,11,,,,,,,,,10,,,,71,112
335160,set_tempo,120,1,0,,,,,,254237,,,,,,,,
335161,control_change,119,0,1,,,,,,,,,0,11,86,,,
335161,note_on,0,0,1,,,,,,,,,0,,,,86,116
335161,note_on,0,0,1,,,,,,,,,0,,,,89,116
335162,note_on,10,0,7,,,,,,,,,6,,,,55,112
335162,note_on,0,0,7,,,,,,,,,6,,,,67,112
335162,control_change,9,0,12,,,,,,,,,11,11,92,,,
335162,note_on,63,0,14,,,,,,,,,13,,,,55,0
335163,control_change,0,0,5,,,,,,,,,4,11,92,,,
335163,note_on,1,0,12,,,,,,,,,11,,,,71,112
335163,note_on,10,0,5,,,,,,,,,4,,,,65,100
335164,control_change,0,0,2,,,,,,,,,1,11,86,,,
335164,note_on,0,0,2,,,,,,,,,1,,,,77,115
335164,note_on,10,0,6,,,,,,,,,5,,,,62,100
335164,note_on,63,0,15,,,,,,,,,14,,,,43,0
335164,control_change,0,0,6,,,,,,,,,5,11,92,,,
335164,note_on,119,0,2,,,,,,,,,1,,,,83,100
335165,note_on,119,0,3,,,,,,,,,2,,,,74,116
335165,control_change,0,0,3,,,,,,,,,2,11,86,,,
335165,note_on,0,0,3,,,,,,,,,2,,,,71,101
335167,control_change,9,0,13,,,,,,,,,12,11,92,,,
335168,note_on,1,0,13,,,,,,,,,12,,,,71,112
335169,control_change,0,0,4,,,,,,,,,3,11,87,,,
335169,note_on,0,0,4,,,,,,,,,3,,,,55,100
335169,note_on,119,0,4,,,,,,,,,3,,,,59,100
335171,control_change,9,0,14,,,,,,,,,13,11,92,,,
335172,note_on,1,0,14,,,,,,,,,13,,,,59,112
335173,control_change,9,0,15,,,,,,,,,14,11,92,,,
335174,note_on,1,0,15,,,,,,,,,14,,,,47,112
335175,note_on,120,0,10,,,,,,,,,15,,,,43,85
335195,note_on,0,0,1,,,,,,,,,0,,,,89,0
335195,note_on,34,0,1,,,,,,,,,0,,,,86,0
335198,note_on,34,0,2,,,,,,,,,1,,,,77,0
335199,note_on,34,0,3,,,,,,,,,2,,,,74,0
335221,note_on,26,0,1,,,,,,,,,0,,,,86,101
335221,note_on,0,0,1,,,,,,,,,0,,,,89,101
335224,note_on,26,0,2,,,,,,,,,1,,,,77,100
335225,note_on,26,0,3,,,,,,,,,2,,,,74,101
335231,control_change,71,0,11,,,,,,,,,10,11,93,,,
335234,control_change,71,0,12,,,,,,,,,11,11,93,,,
335239,control_change,71,0,13,,,,,,,,,12,11,93,,,
335243,control_change,71,0,14,,,,,,,,,13,11,93,,,
335245,control_change,71,0,15,,,,,,,,,14,11,93,,,
335255,note_on,34,0,1,,,,,,,,,0,,,,89,0
335255,note_on,0,0,1,,,,,,,,,0,,,,86,0
335258,note_on,34,0,2,,,,,,,,,1,,,,77,0
335259,note_on,34,0,3,,,,,,,,,2,,,,74,0
335280,set_tempo,120,1,0,,,,,,263158,,,,,,,,
335281,note_on,26,0,1,,,,,,,,,0,,,,91,101
335281,note_on,0,0,1,,,,,,,,,0,,,,87,101
335284,note_on,26,0,2,,,,,,,,,1,,,,79,100
335285,note_on,26,0,3,,,,,,,,,2,,,,75,101
335303,control_change,72,0,11,,,,,,,,,10,11,94,,,
335306,control_change,72,0,12,,,,,,,,,11,11,94,,,
335311,control_change,72,0,13,,,,,,,,,12,11,94,,,
335315,control_change,72,0,14,,,,,,,,,13,11,94,,,
335317,control_change,72,0,15,,,,,,,,,14,11,94,,,
335341,note_on,0,0,1,,,,,,,,,0,,,,89,101
335341,note_on,0,0,1,,,,,,,,,0,,,,91,0
335341,note_on,0,0,1,,,,,,,,,0,,,,86,101
335341,note_on,60,0,1,,,,,,,,,0,,,,87,0
335344,note_on,60,0,2,,,,,,,,,1,,,,79,0
335344,note_on,0,0,2,,,,,,,,,1,,,,77,100
335345,note_on,0,0,3,,,,,,,,,2,,,,74,101
335345,note_on,60,0,3,,,,,,,,,2,,,,75,0
335375,control_change,72,0,11,,,,,,,,,10,11,95,,,
335378,control_change,72,0,12,,,,,,,,,11,11,95,,,
335383,control_change,72,0,13,,,,,,,,,12,11,95,,,
335387,control_change,72,0,14,,,,,,,,,13,11,95,,,
335389,control_change,72,0,15,,,,,,,,,14,11,95,,,
335400,note_on,25,0,11,,,,,,,,,10,,,,71,0
335400,set_tempo,120,1,0,,,,,,288462,,,,,,,,
335400,note_on,0,0,11,,,,,,,,,10,,,,74,112
335401,note_on,0,0,1,,,,,,,,,0,,,,91,101
335401,note_on,0,0,1,,,,,,,,,0,,,,89,0
335401,note_on,60,0,1,,,,,,,,,0,,,,86,0
335401,note_on,0,0,1,,,,,,,,,0,,,,87,101
335403,note_on,25,0,12,,,,,,,,,11,,,,71,0
335403,note_on,0,0,12,,,,,,,,,11,,,,74,112
335404,note_on,60,0,2,,,,,,,,,1,,,,77,0
335404,note_on,0,0,2,,,,,,,,,1,,,,79,100
335405,note_on,60,0,3,,,,,,,,,2,,,,74,0
335405,note_on,0,0,3,,,,,,,,,2,,,,75,101
335408,note_on,25,0,13,,,,,,,,,12,,,,71,0
335408,note_on,0,0,13,,,,,,,,,12,,,,74,112
335412,note_on,25,0,14,,,,,,,,,13,,,,59,0
335412,note_on,0,0,14,,,,,,,,,13,,,,62,112
335414,note_on,0,0,15,,,,,,,,,14,,,,50,112
335414,note_on,25,0,15,,,,,,,,,14,,,,47,0
335415,note_on,240,0,10,,,,,,,,,15,,,,43,0
335447,control_change,47,0,11,,,,,,,,,10,11,96,,,
335450,control_change,47,0,12,,,,,,,,,11,11,96,,,
335455,control_change,47,0,13,,,,,,,,,12,11,96,,,
335459,control_change,47,0,14,,,,,,,,,13,11,96,,,
335461,note_on,0,0,1,,,,,,,,,0,,,,89,101
335461,note_on,0,0,1,,,,,,,,,0,,,,86,101
335461,note_on,60,0,1,,,,,,,,,0,,,,91,0
335461,note_on,0,0,1,,,,,,,,,0,,,,87,0
335461,control_change,47,0,15,,,,,,,,,14,11,96,,,
335464,note_on,0,0,2,,,,,,,,,1,,,,77,100
335464,note_on,60,0,2,,,,,,,,,1,,,,79,0
335465,note_on,60,0,3,,,,,,,,,2,,,,75,0
335465,note_on,0,0,3,,,,,,,,,2,,,,74,101
335510,note_on,63,0,11,,,,,,,,,10,,,,74,0
335512,note_on,0,0,7,,,,,,,,,6,,,,55,0
335512,note_on,350,0,7,,,,,,,,,6,,,,67,0
335513,note_on,63,0,12,,,,,,,,,11,,,,74,0
335513,note_on,350,0,5,,,,,,,,,4,,,,65,0
335514,note_on,350,0,6,,,,,,,,,5,,,,62,0
335518,note_on,63,0,13,,,,,,,,,12,,,,74,0
335519,control_change,9,0,11,,,,,,,,,10,11,97,,,
335520,note_on,1,0,11,,,,,,,,,10,,,,79,112
335520,set_tempo,120,1,0,,,,,,254237,,,,,,,,
335521,control_change,0,0,1,,,,,,,,,0,11,78,,,
335521,note_on,0,0,1,,,,,,,,,0,,,,89,101
335521,note_on,0,0,1,,,,,,,,,0,,,,86,101
335521,note_on,0,0,1,,,,,,,,,0,,,,89,0
335521,note_on,60,0,1,,,,,,,,,0,,,,86,0
335522,note_on,10,0,7,,,,,,,,,6,,,,67,112
335522,control_change,9,0,12,,,,,,,,,11,11,97,,,
335522,note_on,63,0,14,,,,,,,,,13,,,,62,0
335522,note_on,0,0,7,,,,,,,,,6,,,,55,112
335523,note_on,10,0,5,,,,,,,,,4,,,,65,100
335523,note_on,1,0,12,,,,,,,,,11,,,,79,112
335524,control_change,0,0,2,,,,,,,,,1,11,78,,,
335524,note_on,60,0,2,,,,,,,,,1,,,,77,0
335524,note_on,0,0,2,,,,,,,,,1,,,,83,0
335524,note_on,63,0,15,,,,,,,,,14,,,,50,0
335524,note_on,0,0,2,,,,,,,,,1,,,,83,100
335524,note_on,0,0,2,,,,,,,,,1,,,,77,100
335524,note_on,10,0,6,,,,,,,,,5,,,,62,100
335525,control_change,0,0,3,,,,,,,,,2,11,86,,,
335525,note_on,0,0,3,,,,,,,,,2,,,,74,101
335525,note_on,0,0,3,,,,,,,,,2,,,,77,101
335525,note_on,60,0,3,,,,,,,,,2,,,,74,0
335525,note_on,0,0,3,,,,,,,,,2,,,,71,0
335527,control_change,9,0,13,,,,,,,,,12,11,97,,,
335528,note_on,1,0,13,,,,,,,,,12,,,,79,112
335529,note_on,0,0,4,,,,,,,,,3,,,,65,100
335529,note_on,360,0,4,,,,,,,,,3,,,,55,0
335529,note_on,0,0,4,,,,,,,,,3,,,,59,0
335529,note_on,0,0,4,,,,,,,,,3,,,,62,100
335529,control_change,0,0,4,,,,,,,,,3,11,97,,,
335531,control_change,9,0,14,,,,,,,,,13,11,97,,,
335532,note_on,1,0,14,,,,,,,,,13,,,,67,112
335533,control_change,9,0,15,,,,,,,,,14,11,97,,,
335534,note_on,1,0,15,,,,,,,,,14,,,,55,112
335535,note_on,120,0,10,,,,,,,,,15,,,,43,85
335559,note_on,34,0,3,,,,,,,,,2,,,,74,0
335559,note_on,0,0,3,,,,,,,,,2,,,,77,0
335563,note_on,34,0,4,,,,,,,,,3,,,,65,0
335563,note_on,0,0,4,,,,,,,,,3,,,,62,0
335581,note_on,60,0,1,,,,,,,,,0,,,,89,0
335581,note_on,0,0,1,,,,,,,,,0,,,,86,0
335584,note_on,60,0,2,,,,,,,,,1,,,,77,0
335584,note_on,0,0,2,,,,,,,,,1,,,,83,0
335585,note_on,26,0,3,,,,,,,,,2,,,,74,101
335585,note_on,0,0,3,,,,,,,,,2,,,,77,101
335589,note_on,0,0,4,,,,,,,,,3,,,,62,100
335589,note_on,26,0,4,,,,,,,,,3,,,,65,100
335591,control_change,71,0,11,,,,,,,,,10,11,98,,,
335594,control_change,71,0,12,,,,,,,,,11,11,98,,,
335599,control_change,71,0,13,,,,,,,,,12,11,98,,,
335603,control_change,71,0,14,,,,,,,,,13,11,98,,,
335605,control_change,71,0,15,,,,,,,,,14,11,98,,,
335619,note_on,0,0,3,,,,,,,,,2,,,,74,0
335619,note_on,34,0,3,,,,,,,,,2,,,,77,0
335623,note_on,34,0,4,,,,,,,,,3,,,,62,0
335623,note_on,0,0,4,,,,,,,,,3,,,,65,0
335633,note_on,110,0,5,,,,,,,,,4,,,,65,0
335634,note_on,110,0,6,,,,,,,,,5,,,,62,0
335640,set_tempo,120,1,0,,,,,,263158,,,,,,,,
335641,note_on,60,0,1,,,,,,,,,0,,,,89,101
335641,note_on,0,0,1,,,,,,,,,0,,,,86,101
335643,note_on,10,0,5,,,,,,,,,4,,,,65,100
335644,note_on,60,0,2,,,,,,,,,1,,,,83,100
335644,note_on,10,0,6,,,,,,,,,5,,,,62,100
335644,note_on,0,0,2,,,,,,,,,1,,,,77,100
335645,note_on,0,0,3,,,,,,,,,2,,,,75,101
335645,note_on,26,0,3,,,,,,,,,2,,,,79,101
335649,note_on,0,0,4,,,,,,,,,3,,,,63,100
335649,note_on,26,0,4,,,,,,,,,3,,,,67,100
335663,control_change,72,0,11,,,,,,,,,10,11,99,,,
335666,control_change,72,0,12,,,,,,,,,11,11,99,,,
335671,control_change,72,0,13,,,,,,,,,12,11,99,,,
335675,control_change,72,0,14,,,,,,,,,13,11,99,,,
335677,control_change,72,0,15,,,,,,,,,14,11,99,,,
335701,note_on,60,0,1,,,,,,,,,0,,,,86,0
335701,note_on,0,0,1,,,,,,,,,0,,,,89,0
335704,note_on,0,0,2,,,,,,,,,1,,,,83,0
335704,note_on,60,0,2,,,,,,,,,1,,,,77,0
335705,note_on,60,0,3,,,,,,,,,2,,,,75,0
335705,note_on,0,0,3,,,,,,,,,2,,,,77,101
335705,note_on,0,0,3,,,,,,,,,2,,,,74,101
335705,note_on,0,0,3,,,,,,,,,2,,,,79,0
335709,note_on,0,0,4,,,,,,,,,3,,,,67,0
335709,note_on,0,0,4,,,,,,,,,3,,,,65,100
335709,note_on,0,0,4,,,,,,,,,3,,,,62,100
335709,note_on,60,0,4,,,,,,,,,3,,,,63,0
335735,control_change,72,0,11,,,,,,,,,10,11,100,,,
335738,control_change,72,0,12,,,,,,,,,11,11,100,,,
335743,control_change,72,0,13,,,,,,,,,12,11,100,,,
335747,control_change,72,0,14,,,,,,,,,13,11,100,,,
335749,control_change,72,0,15,,,,,,,,,14,11,100,,,
335753,note_on,110,0,5,,,,,,,,,4,,,,65,0
335754,note_on,110,0,6,,,,,,,,,5,,,,62,0
335760,note_on,25,0,11,,,,,,,,,10,,,,79,0
335760,note_on,0,0,11,,,,,,,,,10,,,,67,112
335760,set_tempo,120,1,0,,,,,,288462,,,,,,,,
335761,note_on,60,0,1,,,,,,,,,0,,,,86,101
335761,note_on,0,0,1,,,,,,,,,0,,,,89,101
335763,note_on,10,0,5,,,,,,,,,4,,,,65,100
335763,note_on,0,0,12,,,,,,,,,11,,,,67,112
335763,note_on,25,0,12,,,,,,,,,11,,,,79,0
335764,note_on,0,0,2,,,,,,,,,1,,,,77,100
335764,note_on,10,0,6,,,,,,,,,5,,,,62,100
335764,note_on,60,0,2,,,,,,,,,1,,,,83,100
335765,note_on,0,0,3,,,,,,,,,2,,,,74,0
335765,note_on,60,0,3,,,,,,,,,2,,,,77,0
335765,note_on,0,0,3,,,,,,,,,2,,,,79,101
335765,note_on,0,0,3,,,,,,,,,2,,,,75,101
335768,note_on,25,0,13,,,,,,,,,12,,,,79,0
335768,note_on,0,0,13,,,,,,,,,12,,,,67,112
335769,note_on,0,0,4,,,,,,,,,3,,,,63,100
335769,note_on,0,0,4,,,,,,,,,3,,,,67,100
335769,note_on,0,0,4,,,,,,,,,3,,,,62,0
335769,note_on,60,0,4,,,,,,,,,3,,,,65,0
335772,note_on,25,0,14,,,,,,,,,13,,,,67,0
335772,note_on,0,0,14,,,,,,,,,13,,,,55,112
335774,note_on,0,0,15,,,,,,,,,14,,,,43,112
335774,note_on,25,0,15,,,,,,,,,14,,,,55,0
335775,note_on,240,0,10,,,,,,,,,15,,,,43,0
335807,control_change,47,0,11,,,,,,,,,10,11,101,,,
335810,control_change,47,0,12,,,,,,,,,11,11,101,,,
335815,control_change,47,0,13,,,,,,,,,12,11,101,,,
335819,control_change,47,0,14,,,,,,,,,13,11,101,,,
335821,control_change,47,0,15,,,,,,,,,14,11,101,,,
335821,note_on,60,0,1,,,,,,,,,0,,,,89,0
335821,note_on,0,0,1,,,,,,,,,0,,,,86,0
335824,note_on,0,0,2,,,,,,,,,1,,,,83,0
335824,note_on,60,0,2,,,,,,,,,1,,,,77,0
335825,note_on,0,0,3,,,,,,,,,2,,,,79,0
335825,note_on,60,0,3,,,,,,,,,2,,,,75,0
335825,note_on,0,0,3,,,,,,,,,2,,,,74,101
335825,note_on,0,0,3,,,,,,,,,2,,,,77,101
335829,note_on,60,0,4,,,,,,,,,3,,,,63,0
335829,note_on,0,0,4,,,,,,,,,3,,,,67,0
335829,note_on,0,0,4,,,,,,,,,3,,,,65,100
335829,note_on,0,0,4,,,,,,,,,3,,,,62,100
335870,note_on,63,0,11,,,,,,,,,10,,,,67,0
335872,note_on,350,0,7,,,,,,,,,6,,,,55,0
335872,note_on,0,0,7,,,,,,,,,6,,,,67,0
335873,note_on,110,0,5,,,,,,,,,4,,,,65,0
335873,note_on,63,0,12,,,,,,,,,11,,,,67,0
335874,note_on,110,0,6,,,,,,,,,5,,,,62,0
335878,note_on,63,0,13,,,,,,,,,12,,,,67,0
335879,control_change,9,0,11,,,,,,,,,10,11,102,,,
335880,note_on,1,0,11,,,,,,,,,10,,,,66,112
335880,set_tempo,120,1,0,,,,,,254237,,,,,,,,
335881,note_on,0,0,1,,,,,,,,,0,,,,84,101
335881,note_on,0,0,1,,,,,,,,,0,,,,87,101
335881,control_change,60,0,1,,,,,,,,,0,11,86,,,
335882,note_on,63,0,14,,,,,,,,,13,,,,55,0
335882,note_on,0,0,7,,,,,,,,,6,,,,60,112
335882,control_change,9,0,12,,,,,,,,,11,11,102,,,
335882,note_on,10,0,7,,,,,,,,,6,,,,72,112
335883,note_on,1,0,12,,,,,,,,,11,,,,66,112
335883,control_change,0,0,5,,,,,,,,,4,11,102,,,
335883,note_on,10,0,5,,,,,,,,,4,,,,60,100
335884,note_on,0,0,2,,,,,,,,,1,,,,75,100
335884,note_on,0,0,6,,,,,,,,,5,,,,60,100
335884,control_change,10,0,6,,,,,,,,,5,11,102,,,
335884,control_change,0,0,2,,,,,,,,,1,11,86,,,
335884,note_on,60,0,2,,,,,,,,,1,,,,81,100
335884,note_on,63,0,15,,,,,,,,,14,,,,43,0
335885,control_change,0,0,3,,,,,,,,,2,11,86,,,
335885,note_on,0,0,3,,,,,,,,,2,,,,72,101
335885,note_on,0,0,3,,,,,,,,,2,,,,77,0
335885,note_on,60,0,3,,,,,,,,,2,,,,74,0
335885,note_on,0,0,3,,,,,,,,,2,,,,69,101
335887,control_change,0,0,8,,,,,,,,,7,11,102,,,
335887,note_on,0,0,8,,,,,,,,,7,,,,63,110
335887,note_on,10080,0,8,,,,,,,,,7,,,,57,110
335887,control_change,9,0,13,,,,,,,,,12,11,102,,,
335888,note_on,1,0,13,,,,,,,,,12,,,,66,112
335889,note_on,0,0,4,,,,,,,,,3,,,,65,0
335889,note_on,0,0,4,,,,,,,,,3,,,,57,100
335889,note_on,0,0,4,,,,,,,,,3,,,,63,100
335889,note_on,60,0,4,,,,,,,,,3,,,,62,0
335889,control_change,0,0,4,,,,,,,,,3,11,97,,,
335891,control_change,9,0,14,,,,,,,,,13,11,102,,,
335892,note_on,1,0,14,,,,,,,,,13,,,,54,112
335893,control_change,9,0,15,,,,,,,,,14,11,102,,,
335893,control_change,0,0,9,,,,,,,,,8,11,102,,,
335893,note_on,10080,0,9,,,,,,,,,8,,,,54,110
335894,note_on,1,0,15,,,,,,,,,14,,,,42,112
335895,note_on,120,0,10,,,,,,,,,15,,,,48,80
335941,note_on,0,0,1,,,,,,,,,0,,,,84,0
335941,note_on,60,0,1,,,,,,,,,0,,,,87,0
335944,note_on,0,0,2,,,,,,,,,1,,,,81,0
335944,note_on,60,0,2,,,,,,,,,1,,,,75,0
335945,note_on,0,0,3,,,,,,,,,2,,,,69,0
335945,note_on,60,0,3,,,,,,,,,2,,,,72,0
335949,note_on,0,0,4,,,,,,,,,3,,,,57,0
335949,note_on,60,0,4,,,,,,,,,3,,,,63,0
335992,note_on,0,0,7,,,,,,,,,6,,,,72,0
335992,note_on,110,0,7,,,,,,,,,6,,,,60,0
335993,note_on,110,0,5,,,,,,,,,4,,,,60,0
335994,note_on,110,0,6,,,,,,,,,5,,,,60,0
336000,set_tempo,120,1,0,,,,,,263158,,,,,,,,
336001,note_on,0,0,1,,,,,,,,,0,,,,87,101
336001,note_on,60,0,1,,,,,,,,,0,,,,84,101
336002,note_on,0,0,7,,,,,,,,,6,,,,60,112
336002,note_on,10,0,7,,,,,,,,,6,,,,72,112
336003,note_on,10,0,5,,,,,,,,,4,,,,60,100
336004,note_on,0,0,2,,,,,,,,,1,,,,75,100
336004,note_on,10,0,6,,,,,,,,,5,,,,60,100
336004,note_on,60,0,2,,,,,,,,,1,,,,81,100
336005,note_on,60,0,3,,,,,,,,,2,,,,69,101
336005,note_on,0,0,3,,,,,,,,,2,,,,72,101
336009,note_on,60,0,4,,,,,,,,,3,,,,63,100
336009,note_on,0,0,4,,,,,,,,,3,,,,57,100
336015,note_on,0,0,10,,,,,,,,,15,,,,48,82
336015,note_on,120,0,10,,,,,,,,,15,,,,48,0
336061,note_on,60,0,1,,,,,,,,,0,,,,87,0
336061,note_on,0,0,1,,,,,,,,,0,,,,84,0
336064,note_on,0,0,2,,,,,,,,,1,,,,81,0
336064,note_on,60,0,2,,,,,,,,,1,,,,75,0
336065,note_on,0,0,3,,,,,,,,,2,,,,69,0
336065,note_on,60,0,3,,,,,,,,,2,,,,72,0
336069,note_on,60,0,4,,,,,,,,,3,,,,57,0
336069,note_on,0,0,4,,,,,,,,,3,,,,63,0
336112,note_on,0,0,7,,,,,,,,,6,,,,72,0
336112,note_on,110,0,7,,,,,,,,,6,,,,60,0
336113,note_on,110,0,5,,,,,,,,,4,,,,60,0
336114,note_on,110,0,6,,,,,,,,,5,,,,60,0
336120,note_on,240,0,11,,,,,,,,,10,,,,66,0
336120,note_on,0,0,11,,,,,,,,,10,,,,69,112
336120,set_tempo,120,1,0,,,,,,288462,,,,,,,,
336121,note_on,0,0,1,,,,,,,,,0,,,,84,101
336121,note_on,60,0,1,,,,,,,,,0,,,,87,101
336122,note_on,0,0,7,,,,,,,,,6,,,,72,112
336122,note_on,10,0,7,,,,,,,,,6,,,,60,112
336123,note_on,0,0,12,,,,,,,,,11,,,,69,112
336123,note_on,10,0,5,,,,,,,,,4,,,,60,100
336123,note_on,240,0,12,,,,,,,,,11,,,,66,0
336124,note_on,10,0,6,,,,,,,,,5,,,,60,100
336124,note_on,60,0,2,,,,,,,,,1,,,,81,100
336124,note_on,0,0,2,,,,,,,,,1,,,,75,100
336125,note_on,60,0,3,,,,,,,,,2,,,,69,101
336125,note_on,0,0,3,,,,,,,,,2,,,,72,101
336128,note_on,0,0,13,,,,,,,,,12,,,,69,112
336128,note_on,240,0,13,,,,,,,,,12,,,,66,0
336129,note_on,60,0,4,,,,,,,,,3,,,,63,100
336129,note_on,0,0,4,,,,,,,,,3,,,,57,100
336132,note_on,0,0,14,,,,,,,,,13,,,,57,112
336132,note_on,240,0,14,,,,,,,,,13,,,,54,0
336134,note_on,240,0,15,,,,,,,,,14,,,,42,0
336134,note_on,0,0,15,,,,,,,,,14,,,,45,112
336135,note_on,120,0,10,,,,,,,,,15,,,,48,0
336135,note_on,0,0,10,,,,,,,,,15,,,,48,85
336181,note_on,60,0,1,,,,,,,,,0,,,,84,0
336181,note_on,0,0,1,,,,,,,,,0,,,,87,0
336184,note_on,60,0,2,,,,,,,,,1,,,,75,0
336184,note_on,0,0,2,,,,,,,,,1,,,,81,0
336185,note_on,60,0,3,,,,,,,,,2,,,,72,0
336185,note_on,0,0,3,,,,,,,,,2,,,,69,0
336189,note_on,60,0,4,,,,,,,,,3,,,,57,0
336189,note_on,0,0,4,,,,,,,,,3,,,,63,0
336230,note_on,110,0,11,,,,,,,,,10,,,,69,0
336232,note_on,0,0,7,,,,,,,,,6,,,,60,0
336232,note_on,110,0,7,,,,,,,,,6,,,,72,0
336233,note_on,110,0,5,,,,,,,,,4,,,,60,0
336233,note_on,110,0,12,,,,,,,,,11,,,,69,0
336234,note_on,110,0,6,,,,,,,,,5,,,,60,0
336237,note_on,350,0,8,,,,,,,,,7,,,,63,0
336237,note_on,0,0,8,,,,,,,,,7,,,,57,0
336238,note_on,110,0,13,,,,,,,,,12,,,,69,0
336240,note_on,10,0,11,,,,,,,,,10,,,,72,112
336240,set_tempo,120,1,0,,,,,,254237,,,,,,,,
336241,note_on,0,0,1,,,,,,,,,0,,,,84,101
336241,note_on,60,0,1,,,,,,,,,0,,,,87,101
336242,note_on,110,0,14,,,,,,,,,13,,,,57,0
336242,note_on,10,0,7,,,,,,,,,6,,,,60,112
336242,note_on,0,0,7,,,,,,,,,6,,,,72,112
336243,note_on,350,0,9,,,,,,,,,8,,,,54,0
336243,note_on,10,0,12,,,,,,,,,11,,,,72,112
336243,note_on,10,0,5,,,,,,,,,4,,,,60,100
336244,note_on,10,0,6,,,,,,,,,5,,,,48,100
336244,note_on,110,0,15,,,,,,,,,14,,,,45,0
336244,note_on,60,0,2,,,,,,,,,1,,,,75,100
336244,note_on,0,0,2,,,,,,,,,1,,,,81,100
336245,note_on,0,0,3,,,,,,,,,2,,,,69,101
336245,note_on,60,0,3,,,,,,,,,2,,,,72,101
336247,note_on,0,0,8,,,,,,,,,7,,,,57,110
336247,note_on,10,0,8,,,,,,,,,7,,,,63,110
336248,note_on,10,0,13,,,,,,,,,12,,,,72,112
336249,note_on,0,0,4,,,,,,,,,3,,,,63,100
336249,note_on,60,0,4,,,,,,,,,3,,,,57,100
336252,note_on,10,0,14,,,,,,,,,13,,,,60,112
336253,note_on,10,0,9,,,,,,,,,8,,,,54,110
336254,note_on,10,0,15,,,,,,,,,14,,,,48,112
336255,note_on,0,0,10,,,,,,,,,15,,,,48,88
336255,note_on,120,0,10,,,,,,,,,15,,,,48,0
336301,note_on,0,0,1,,,,,,,,,0,,,,87,0
336301,note_on,60,0,1,,,,,,,,,0,,,,84,0
336304,note_on,60,0,2,,,,,,,,,1,,,,81,0
336304,note_on,0,0,2,,,,,,,,,1,,,,75,0
336305,note_on,0,0,3,,,,,,,,,2,,,,72,0
336305,note_on,60,0,3,,,,,,,,,2,,,,69,0
336309,note_on,0,0,4,,,,,,,,,3,,,,57,0
336309,note_on,60,0,4,,,,,,,,,3,,,,63,0
336352,note_on,0,0,7,,,,,,,,,6,,,,60,0
336352,note_on,110,0,7,,,,,,,,,6,,,,72,0
336353,note_on,110,0,5,,,,,,,,,4,,,,60,0
336354,note_on,110,0,6,,,,,,,,,5,,,,48,0
336360,set_tempo,120,1,0,,,,,,263158,,,,,,,,
336361,note_on,60,0,1,,,,,,,,,0,,,,87,101
336361,note_on,0,0,1,,,,,,,,,0,,,,84,101
336362,note_on,0,0,7,,,,,,,,,6,,,,60,112
336362,note_on,10,0,7,,,,,,,,,6,,,,72,112
336363,note_on,10,0,5,,,,,,,,,4,,,,60,100
336364,note_on,0,0,2,,,,,,,,,1,,,,81,100
336364,note_on,60,0,2,,,,,,,,,1,,,,75,100
336364,note_on,10,0,6,,,,,,,,,5,,,,48,100
336365,note_on,60,0,3,,,,,,,,,2,,,,69,101
336365,note_on,0,0,3,,,,,,,,,2,,,,72,101
336369,note_on,0,0,4,,,,,,,,,3,,,,57,100
336369,note_on,60,0,4,,,,,,,,,3,,,,63,100
336375,note_on,0,0,10,,,,,,,,,15,,,,48,91
336375,note_on,120,0,10,,,,,,,,,15,,,,48,0
336421,note_on,60,0,1,,,,,,,,,0,,,,84,0
336421,note_on,0,0,1,,,,,,,,,0,,,,87,0
336424,note_on,0,0,2,,,,,,,,,1,,,,75,0
336424,note_on,60,0,2,,,,,,,,,1,,,,81,0
336425,note_on,0,0,3,,,,,,,,,2,,,,69,0
336425,note_on,60,0,3,,,,,,,,,2,,,,72,0
336429,note_on,60,0,4,,,,,,,,,3,,,,57,0
336429,note_on,0,0,4,,,,,,,,,3,,,,63,0
336472,note_on,0,0,7,,,,,,,,,6,,,,72,0
336472,note_on,110,0,7,,,,,,,,,6,,,,60,0
336473,note_on,110,0,5,,,,,,,,,4,,,,60,0
336474,note_on,110,0,6,,,,,,,,,5,,,,48,0
336480,set_tempo,120,1,0,,,,,,288462,,,,,,,,
336480,note_on,240,0,11,,,,,,,,,10,,,,72,0
336480,note_on,0,0,11,,,,,,,,,10,,,,74,112
336481,note_on,0,0,1,,,,,,,,,0,,,,84,101
336481,note_on,60,0,1,,,,,,,,,0,,,,87,101
336482,note_on,10,0,7,,,,,,,,,6,,,,72,112
336482,note_on,0,0,7,,,,,,,,,6,,,,60,112
336483,note_on,240,0,12,,,,,,,,,11,,,,72,0
336483,note_on,10,0,5,,,,,,,,,4,,,,60,100
336483,note_on,0,0,12,,,,,,,,,11,,,,74,112
336484,note_on,60,0,2,,,,,,,,,1,,,,81,100
336484,note_on,0,0,2,,,,,,,,,1,,,,75,100
336484,note_on,10,0,6,,,,,,,,,5,,,,48,100
336485,note_on,0,0,3,,,,,,,,,2,,,,69,101
336485,note_on,60,0,3,,,,,,,,,2,,,,72,101
336488,note_on,0,0,13,,,,,,,,,12,,,,74,112
336488,note_on,240,0,13,,,,,,,,,12,,,,72,0
336489,note_on,60,0,4,,,,,,,,,3,,,,63,100
336489,note_on,0,0,4,,,,,,,,,3,,,,57,100
336492,note_on,240,0,14,,,,,,,,,13,,,,60,0
336492,note_on,0,0,14,,,,,,,,,13,,,,62,112
336494,note_on,0,0,15,,,,,,,,,14,,,,50,112
336494,note_on,240,0,15,,,,,,,,,14,,,,48,0
336495,note_on,120,0,10,,,,,,,,,15,,,,48,0
336495,note_on,0,0,10,,,,,,,,,15,,,,48,94
336541,note_on,0,0,1,,,,,,,,,0,,,,87,0
336541,note_on,60,0,1,,,,,,,,,0,,,,84,0
336544,note_on,0,0,2,,,,,,,,,1,,,,81,0
336544,note_on,60,0,2,,,,,,,,,1,,,,75,0
336545,note_on,0,0,3,,,,,,,,,2,,,,72,0
336545,note_on,60,0,3,,,,,,,,,2,,,,69,0
336549,note_on,60,0,4,,,,,,,,,3,,,,57,0
336549,note_on,0,0,4,,,,,,,,,3,,,,63,0
336590,note_on,110,0,11,,,,,,,,,10,,,,74,0
336592,note_on,110,0,7,,,,,,,,,6,,,,60,0
336592,note_on,0,0,7,,,,,,,,,6,,,,72,0
336593,note_on,110,0,5,,,,,,,,,4,,,,60,0
336593,note_on,110,0,12,,,,,,,,,11,,,,74,0
336594,note_on,110,0,6,,,,,,,,,5,,,,48,0
336597,note_on,350,0,8,,,,,,,,,7,,,,57,0
336597,note_on,0,0,8,,,,,,,,,7,,,,63,0
336598,note_on,110,0,13,,,,,,,,,12,,,,74,0
336600,note_on,10,0,11,,,,,,,,,10,,,,75,112
336600,set_tempo,120,1,0,,,,,,254237,,,,,,,,
336601,note_on,60,0,1,,,,,,,,,0,,,,87,116
336601,note_on,0,0,1,,,,,,,,,0,,,,84,116
336601,control_change,0,0,1,,,,,,,,,0,11,93,,,
336602,note_on,110,0,14,,,,,,,,,13,,,,62,0
336602,note_on,0,0,7,,,,,,,,,6,,,,60,112
336602,note_on,10,0,7,,,,,,,,,6,,,,72,112
336603,note_on,10,0,12,,,,,,,,,11,,,,75,112
336603,note_on,10,0,5,,,,,,,,,4,,,,60,100
336603,note_on,350,0,9,,,,,,,,,8,,,,54,0
336604,note_on,10,0,6,,,,,,,,,5,,,,48,100
336604,control_change,60,0,2,,,,,,,,,1,11,93,,,
336604,note_on,0,0,2,,,,,,,,,1,,,,81,100
336604,note_on,0,0,2,,,,,,,,,1,,,,75,115
336604,note_on,110,0,15,,,,,,,,,14,,,,50,0
336605,note_on,60,0,3,,,,,,,,,2,,,,69,101
336605,control_change,0,0,3,,,,,,,,,2,11,93,,,
336605,note_on,0,0,3,,,,,,,,,2,,,,72,116
336607,note_on,10,0,8,,,,,,,,,7,,,,63,110
336607,note_on,0,0,8,,,,,,,,,7,,,,57,110
336608,note_on,10,0,13,,,,,,,,,12,,,,75,112
336609,note_on,60,0,4,,,,,,,,,3,,,,57,100
336609,note_on,0,0,4,,,,,,,,,3,,,,63,100
336612,note_on,10,0,14,,,,,,,,,13,,,,63,112
336613,note_on,10,0,9,,,,,,,,,8,,,,54,110
336614,note_on,10,0,15,,,,,,,,,14,,,,51,112
336615,note_on,0,0,10,,,,,,,,,15,,,,48,97
336615,note_on,120,0,10,,,,,,,,,15,,,,48,0
336631,note_on,30,0,1,,,,,,,,,0,,,,84,0
336631,note_on,0,0,1,,,,,,,,,0,,,,87,0
336634,note_on,30,0,2,,,,,,,,,1,,,,75,0
336635,note_on,30,0,3,,,,,,,,,2,,,,72,0
336661,note_on,30,0,1,,,,,,,,,0,,,,84,101
336661,note_on,0,0,1,,,,,,,,,0,,,,87,101
336664,note_on,30,0,2,,,,,,,,,1,,,,75,100
336665,note_on,30,0,3,,,,,,,,,2,,,,69,0
336665,note_on,0,0,3,,,,,,,,,2,,,,72,101
336669,note_on,0,0,4,,,,,,,,,3,,,,57,0
336669,note_on,60,0,4,,,,,,,,,3,,,,63,0
336691,note_on,30,0,1,,,,,,,,,0,,,,87,0
336691,note_on,0,0,1,,,,,,,,,0,,,,84,0
336694,note_on,30,0,2,,,,,,,,,1,,,,75,0
336695,note_on,30,0,3,,,,,,,,,2,,,,72,0
336712,note_on,0,0,7,,,,,,,,,6,,,,72,0
336712,note_on,110,0,7,,,,,,,,,6,,,,60,0
336713,note_on,110,0,5,,,,,,,,,4,,,,60,0
336714,note_on,110,0,6,,,,,,,,,5,,,,48,0
336720,set_tempo,120,1,0,,,,,,263158,,,,,,,,
336721,note_on,0,0,1,,,,,,,,,0,,,,86,101
336721,note_on,30,0,1,,,,,,,,,0,,,,89,101
336722,note_on,0,0,7,,,,,,,,,6,,,,60,112
336722,note_on,10,0,7,,,,,,,,,6,,,,72,112
336723,note_on,10,0,5,,,,,,,,,4,,,,60,100
336724,note_on,0,0,2,,,,,,,,,1,,,,77,100
336724,note_on,30,0,2,,,,,,,,,1,,,,81,0
336724,note_on,0,0,2,,,,,,,,,1,,,,81,100
336724,note_on,10,0,6,,,,,,,,,5,,,,48,100
336725,note_on,30,0,3,,,,,,,,,2,,,,69,101
336725,note_on,0,0,3,,,,,,,,,2,,,,74,101
336729,note_on,0,0,4,,,,,,,,,3,,,,57,100
336729,note_on,60,0,4,,,,,,,,,3,,,,63,100
336735,note_on,0,0,10,,,,,,,,,15,,,,48,100
336735,note_on,120,0,10,,,,,,,,,15,,,,48,0
336781,note_on,0,0,1,,,,,,,,,0,,,,89,0
336781,note_on,0,0,1,,,,,,,,,0,,,,84,101
336781,note_on,60,0,1,,,,,,,,,0,,,,86,0
336781,note_on,0,0,1,,,,,,,,,0,,,,87,101
336784,note_on,60,0,2,,,,,,,,,1,,,,77,0
336784,note_on,0,0,2,,,,,,,,,1,,,,75,100
336785,note_on,60,0,3,,,,,,,,,2,,,,74,0
336785,note_on,0,0,3,,,,,,,,,2,,,,72,101
336789,note_on,60,0,4,,,,,,,,,3,,,,57,0
336789,note_on,0,0,4,,,,,,,,,3,,,,63,0
336832,note_on,0,0,7,,,,,,,,,6,,,,72,0
336832,note_on,110,0,7,,,,,,,,,6,,,,60,0
336833,note_on,110,0,5,,,,,,,,,4,,,,60,0
336834,note_on,110,0,6,,,,,,,,,5,,,,48,0
336840,set_tempo,120,1,0,,,,,,288462,,,,,,,,
336840,note_on,0,0,11,,,,,,,,,10,,,,72,112
336840,note_on,240,0,11,,,,,,,,,10,,,,75,0
336841,note_on,0,0,1,,,,,,,,,0,,,,86,101
336841,note_on,0,0,1,,,,,,,,,0,,,,84,0
336841,note_on,60,0,1,,,,,,,,,0,,,,87,0
336841,note_on,0,0,1,,,,,,,,,0,,,,89,101
336842,note_on,10,0,7,,,,,,,,,6,,,,72,112
336842,note_on,0,0,7,,,,,,,,,6,,,,60,112
336843,note_on,240,0,12,,,,,,,,,11,,,,75,0
336843,note_on,10,0,5,,,,,,,,,4,,,,60,100
336843,note_on,0,0,12,,,,,,,,,11,,,,72,112
336844,note_on,60,0,2,,,,,,,,,1,,,,75,0
336844,note_on,0,0,2,,,,,,,,,1,,,,81,0
336844,note_on,0,0,2,,,,,,,,,1,,,,77,100
336844,note_on,0,0,2,,,,,,,,,1,,,,81,100
336844,note_on,10,0,6,,,,,,,,,5,,,,48,100
336845,note_on,0,0,3,,,,,,,,,2,,,,69,101
336845,note_on,60,0,3,,,,,,,,,2,,,,72,0
336845,note_on,0,0,3,,,,,,,,,2,,,,69,0
336845,note_on,0,0,3,,,,,,,,,2,,,,74,101
336848,note_on,0,0,13,,,,,,,,,12,,,,72,112
336848,note_on,240,0,13,,,,,,,,,12,,,,75,0
336849,note_on,0,0,4,,,,,,,,,3,,,,57,100
336849,note_on,60,0,4,,,,,,,,,3,,,,63,100
336852,note_on,0,0,14,,,,,,,,,13,,,,60,112
336852,note_on,240,0,14,,,,,,,,,13,,,,63,0
336854,note_on,0,0,15,,,,,,,,,14,,,,48,112
336854,note_on,240,0,15,,,,,,,,,14,,,,51,0
336855,note_on,0,0,10,,,,,,,,,15,,,,48,103
336855,note_on,120,0,10,,,,,,,,,15,,,,48,0
336901,note_on,0,0,1,,,,,,,,,0,,,,84,101
336901,note_on,0,0,1,,,,,,,,,0,,,,87,101
336901,note_on,0,0,1,,,,,,,,,0,,,,86,0
336901,note_on,60,0,1,,,,,,,,,0,,,,89,0
336904,note_on,60,0,2,,,,,,,,,1,,,,77,0
336904,note_on,0,0,2,,,,,,,,,1,,,,75,100
336905,note_on,60,0,3,,,,,,,,,2,,,,74,0
336905,note_on,0,0,3,,,,,,,,,2,,,,72,101
336909,note_on,0,0,4,,,,,,,,,3,,,,63,0
336909,note_on,60,0,4,,,,,,,,,3,,,,57,0
336950,note_on,110,0,11,,,,,,,,,10,,,,72,0
336952,note_on,110,0,7,,,,,,,,,6,,,,60,0
336952,note_on,0,0,7,,,,,,,,,6,,,,72,0
336953,note_on,110,0,12,,,,,,,,,11,,,,72,0
336953,note_on,110,0,5,,,,,,,,,4,,,,60,0
336954,note_on,110,0,6,,,,,,,,,5,,,,48,0
336957,note_on,350,0,8,,,,,,,,,7,,,,57,0
336957,note_on,0,0,8,,,,,,,,,7,,,,63,0
336958,note_on,110,0,13,,,,,,,,,12,,,,72,0
336960,set_tempo,120,1,0,,,,,,254237,,,,,,,,
336960,note_on,10,0,11,,,,,,,,,10,,,,69,112
336961,note_on,60,0,1,,,,,,,,,0,,,,87,0
336961,note_on,0,0,1,,,,,,,,,0,,,,84,0
336961,note_on,0,0,1,,,,,,,,,0,,,,87,101
336961,note_on,0,0,1,,,,,,,,,0,,,,84,101
336961,control_change,0,0,1,,,,,,,,,0,11,86,,,
336962,note_on,110,0,14,,,,,,,,,13,,,,60,0
336962,note_on,10,0,7,,,,,,,,,6,,,,60,112
336962,note_on,0,0,7,,,,,,,,,6,,,,72,112
336963,note_on,10,0,12,,,,,,,,,11,,,,69,112
336963,note_on,350,0,9,,,,,,,,,8,,,,54,0
336963,note_on,10,0,5,,,,,,,,,4,,,,60,100
336964,note_on,110,0,15,,,,,,,,,14,,,,48,0
336964,note_on,0,0,2,,,,,,,,,1,,,,81,100
336964,control_change,0,0,2,,,,,,,,,1,11,86,,,
336964,note_on,0,0,2,,,,,,,,,1,,,,75,100
336964,note_on,0,0,2,,,,,,,,,1,,,,81,0
336964,note_on,60,0,2,,,,,,,,,1,,,,75,0
336964,note_on,10,0,6,,,,,,,,,5,,,,48,100
336965,note_on,0,0,3,,,,,,,,,2,,,,72,101
336965,note_on,0,0,3,,,,,,,,,2,,,,75,101
336965,note_on,60,0,3,,,,,,,,,2,,,,72,0
336965,control_change,0,0,3,,,,,,,,,2,11,93,,,
336965,note_on,0,0,3,,,,,,,,,2,,,,69,0
336967,note_on,10,0,8,,,,,,,,,7,,,,57,110
336967,note_on,0,0,8,,,,,,,,,7,,,,63,110
336968,note_on,10,0,13,,,,,,,,,12,,,,69,112
336969,note_on,60,0,4,,,,,,,,,3,,,,63,100
336969,note_on,0,0,4,,,,,,,,,3,,,,60,100
336972,note_on,10,0,14,,,,,,,,,13,,,,57,112
336973,note_on,10,0,9,,,,,,,,,8,,,,54,110
336974,note_on,10,0,15,,,,,,,,,14,,,,45,112
336975,note_on,120,0,10,,,,,,,,,15,,,,48,0
336975,note_on,0,0,10,,,,,,,,,15,,,,48,106
336995,note_on,30,0,3,,,,,,,,,2,,,,75,0
336995,note_on,0,0,3,,,,,,,,,2,,,,72,0
336999,note_on,0,0,4,,,,,,,,,3,,,,63,0
336999,note_on,30,0,4,,,,,,,,,3,,,,60,0
337021,note_on,0,0,1,,,,,,,,,0,,,,87,0
337021,note_on,60,0,1,,,,,,,,,0,,,,84,0
337024,note_on,60,0,2,,,,,,,,,1,,,,81,0
337024,note_on,0,0,2,,,,,,,,,1,,,,75,0
337025,note_on,0,0,3,,,,,,,,,2,,,,75,101
337025,note_on,30,0,3,,,,,,,,,2,,,,72,101
337029,note_on,30,0,4,,,,,,,,,3,,,,60,100
337029,note_on,0,0,4,,,,,,,,,3,,,,63,100
337055,note_on,30,0,3,,,,,,,,,2,,,,75,0
337055,note_on,0,0,3,,,,,,,,,2,,,,72,0
337059,note_on,30,0,4,,,,,,,,,3,,,,63,0
337059,note_on,0,0,4,,,,,,,,,3,,,,60,0
337072,note_on,110,0,7,,,,,,,,,6,,,,72,0
337072,note_on,0,0,7,,,,,,,,,6,,,,60,0
337073,note_on,110,0,5,,,,,,,,,4,,,,60,0
337074,note_on,110,0,6,,,,,,,,,5,,,,48,0
337080,set_tempo,120,1,0,,,,,,263158,,,,,,,,
337081,note_on,60,0,1,,,,,,,,,0,,,,84,101
337081,note_on,0,0,1,,,,,,,,,0,,,,87,101
337082,note_on,10,0,7,,,,,,,,,6,,,,60,112
337082,note_on,0,0,7,,,,,,,,,6,,,,72,112
337083,note_on,10,0,5,,,,,,,,,4,,,,60,100
337084,note_on,0,0,2,,,,,,,,,1,,,,75,100
337084,note_on,10,0,6,,,,,,,,,5,,,,48,100
337084,note_on,60,0,2,,,,,,,,,1,,,,81,100
337085,note_on,0,0,3,,,,,,,,,2,,,,74,101
337085,note_on,30,0,3,,,,,,,,,2,,,,78,101
337089,note_on,30,0,4,,,,,,,,,3,,,,66,100
337089,note_on,0,0,4,,,,,,,,,3,,,,62,100
337095,note_on,0,0,10,,,,,,,,,15,,,,48,109
337095,note_on,120,0,10,,,,,,,,,15,,,,48,0
337141,note_on,0,0,1,,,,,,,,,0,,,,84,0
337141,note_on,60,0,1,,,,,,,,,0,,,,87,0
337144,note_on,60,0,2,,,,,,,,,1,,,,75,0
337144,note_on,0,0,2,,,,,,,,,1,,,,81,0
337145,note_on,0,0,3,,,,,,,,,2,,,,75,101
337145,note_on,0,0,3,,,,,,,,,2,,,,78,0
337145,note_on,60,0,3,,,,,,,,,2,,,,74,0
337145,note_on,0,0,3,,,,,,,,,2,,,,72,101
337149,note_on,60,0,4,,,,,,,,,3,,,,62,0
337149,note_on,0,0,4,,,,,,,,,3,,,,66,0
337149,note_on,0,0,4,,,,,,,,,3,,,,60,100
337149,note_on,0,0,4,,,,,,,,,3,,,,63,100
337192,note_on,0,0,7,,,,,,,,,6,,,,60,0
337192,note_on,110,0,7,,,,,,,,,6,,,,72,0
337193,note_on,110,0,5,,,,,,,,,4,,,,60,0
337194,note_on,110,0,6,,,,,,,,,5,,,,48,0
337200,note_on,240,0,11,,,,,,,,,10,,,,69,0
337200,note_on,0,0,11,,,,,,,,,10,,,,66,112
337200,set_tempo,120,1,0,,,,,,288462,,,,,,,,
337201,note_on,60,0,1,,,,,,,,,0,,,,87,101
337201,note_on,0,0,1,,,,,,,,,0,,,,84,101
337202,note_on,0,0,7,,,,,,,,,6,,,,60,112
337202,note_on,10,0,7,,,,,,,,,6,,,,72,112
337203,note_on,240,0,12,,,,,,,,,11,,,,69,0
337203,note_on,10,0,5,,,,,,,,,4,,,,60,100
337203,note_on,0,0,12,,,,,,,,,11,,,,66,112
337204,note_on,60,0,2,,,,,,,,,1,,,,75,100
337204,note_on,0,0,2,,,,,,,,,1,,,,81,100
337204,note_on,10,0,6,,,,,,,,,5,,,,48,100
337205,note_on,0,0,3,,,,,,,,,2,,,,74,101
337205,note_on,0,0,3,,,,,,,,,2,,,,75,0
337205,note_on,60,0,3,,,,,,,,,2,,,,72,0
337205,note_on,0,0,3,,,,,,,,,2,,,,78,101
337208,note_on,0,0,13,,,,,,,,,12,,,,66,112
337208,note_on,240,0,13,,,,,,,,,12,,,,69,0
337209,note_on,0,0,4,,,,,,,,,3,,,,62,100
337209,note_on,60,0,4,,,,,,,,,3,,,,63,0
337209,note_on,0,0,4,,,,,,,,,3,,,,60,0
337209,note_on,0,0,4,,,,,,,,,3,,,,66,100
337212,note_on,240,0,14,,,,,,,,,13,,,,57,0
337212,note_on,0,0,14,,,,,,,,,13,,,,54,112
337214,note_on,0,0,15,,,,,,,,,14,,,,42,112
337214,note_on,240,0,15,,,,,,,,,14,,,,45,0
337215,note_on,120,0,10,,,,,,,,,15,,,,48,0
337215,note_on,0,0,10,,,,,,,,,15,,,,48,112
337261,note_on,60,0,1,,,,,,,,,0,,,,84,0
337261,note_on,0,0,1,,,,,,,,,0,,,,87,0
337264,note_on,60,0,2,,,,,,,,,1,,,,81,0
337264,note_on,0,0,2,,,,,,,,,1,,,,75,0
337265,note_on,0,0,3,,,,,,,,,2,,,,72,101
337265,note_on,0,0,3,,,,,,,,,2,,,,75,101
337265,note_on,0,0,3,,,,,,,,,2,,,,74,0
337265,note_on,60,0,3,,,,,,,,,2,,,,78,0
337269,note_on,0,0,4,,,,,,,,,3,,,,60,100
337269,note_on,0,0,4,,,,,,,,,3,,,,63,100
337269,note_on,0,0,4,,,,,,,,,3,,,,66,0
337269,note_on,60,0,4,,,,,,,,,3,,,,62,0
337310,note_on,110,0,11,,,,,,,,,10,,,,66,0
337312,note_on,110,0,7,,,,,,,,,6,,,,60,0
337312,note_on,0,0,7,,,,,,,,,6,,,,72,0
337313,note_on,110,0,5,,,,,,,,,4,,,,60,0
337313,note_on,110,0,12,,,,,,,,,11,,,,66,0
337314,note_on,110,0,6,,,,,,,,,5,,,,48,0
337317,note_on,0,0,8,,,,,,,,,7,,,,57,0
337317,note_on,350,0,8,,,,,,,,,7,,,,63,0
337318,note_on,110,0,13,,,,,,,,,12,,,,66,0
337320,set_tempo,120,1,0,,,,,,254237,,,,,,,,
337320,note_on,10,0,11,,,,,,,,,10,,,,67,112
337321,note_on,0,0,1,,,,,,,,,0,,,,86,101
337321,note_on,60,0,1,,,,,,,,,0,,,,83,101
337322,note_on,0,0,7,,,,,,,,,6,,,,55,112
337322,note_on,10,0,7,,,,,,,,,6,,,,67,112
337322,note_on,110,0,14,,,,,,,,,13,,,,54,0
337323,note_on,10,0,5,,,,,,,,,4,,,,55,100
337323,note_on,350,0,9,,,,,,,,,8,,,,54,0
337323,note_on,10,0,12,,,,,,,,,11,,,,67,112
337324,note_on,0,0,2,,,,,,,,,1,,,,83,100
337324,note_on,60,0,2,,,,,,,,,1,,,,74,100
337324,note_on,10,0,6,,,,,,,,,5,,,,43,100
337324,note_on,110,0,15,,,,,,,,,14,,,,42,0
337325,control_change,0,0,3,,,,,,,,,2,11,86,,,
337325,note_on,0,0,3,,,,,,,,,2,,,,74,101
337325,note_on,0,0,3,,,,,,,,,2,,,,75,0
337325,note_on,60,0,3,,,,,,,,,2,,,,72,0
337325,note_on,0,0,3,,,,,,,,,2,,,,71,101
337327,note_on,0,0,8,,,,,,,,,7,,,,59,110
337327,note_on,10,0,8,,,,,,,,,7,,,,62,110
337328,note_on,10,0,13,,,,,,,,,12,,,,67,112
337329,note_on,0,0,4,,,,,,,,,3,,,,62,100
337329,note_on,0,0,4,,,,,,,,,3,,,,63,0
337329,note_on,60,0,4,,,,,,,,,3,,,,60,0
337329,control_change,0,0,4,,,,,,,,,3,11,97,,,
337329,note_on,0,0,4,,,,,,,,,3,,,,59,100
337332,note_on,10,0,14,,,,,,,,,13,,,,55,112
337333,note_on,10,0,9,,,,,,,,,8,,,,55,110
337334,note_on,10,0,15,,,,,,,,,14,,,,43,112
337335,note_on,120,0,10,,,,,,,,,15,,,,48,0
337335,note_on,0,0,10,,,,,,,,,15,,,,43,115
337350,note_on,30,0,11,,,,,,,,,10,,,,67,0
337353,note_on,30,0,12,,,,,,,,,11,,,,67,0
337358,note_on,30,0,13,,,,,,,,,12,,,,67,0
337362,note_on,30,0,14,,,,,,,,,13,,,,55,0
337364,note_on,30,0,15,,,,,,,,,14,,,,43,0
337380,note_on,30,0,11,,,,,,,,,10,,,,67,112
337383,note_on,30,0,12,,,,,,,,,11,,,,67,112
337388,note_on,30,0,13,,,,,,,,,12,,,,67,112
337392,note_on,30,0,14,,,,,,,,,13,,,,55,112
337394,note_on,30,0,15,,,,,,,,,14,,,,43,112
337410,note_on,30,0,11,,,,,,,,,10,,,,67,0
337413,note_on,30,0,12,,,,,,,,,11,,,,67,0
337418,note_on,30,0,13,,,,,,,,,12,,,,67,0
337422,note_on,30,0,14,,,,,,,,,13,,,,55,0
337424,note_on,30,0,15,,,,,,,,,14,,,,43,0
337440,note_on,30,0,11,,,,,,,,,10,,,,69,112
337440,set_tempo,120,1,0,,,,,,263158,,,,,,,,
337441,note_on,120,0,1,,,,,,,,,0,,,,86,0
337441,note_on,0,0,1,,,,,,,,,0,,,,83,0
337442,note_on,120,0,7,,,,,,,,,6,,,,55,0
337442,note_on,0,0,7,,,,,,,,,6,,,,67,0
337443,note_on,30,0,12,,,,,,,,,11,,,,69,112
337443,note_on,120,0,5,,,,,,,,,4,,,,55,0
337444,note_on,120,0,2,,,,,,,,,1,,,,83,0
337444,note_on,0,0,2,,,,,,,,,1,,,,74,0
337444,note_on,120,0,6,,,,,,,,,5,,,,43,0
337445,note_on,120,0,3,,,,,,,,,2,,,,71,0
337445,note_on,0,0,3,,,,,,,,,2,,,,74,0
337447,note_on,0,0,8,,,,,,,,,7,,,,62,0
337447,note_on,120,0,8,,,,,,,,,7,,,,59,0
337448,note_on,30,0,13,,,,,,,,,12,,,,69,112
337449,note_on,0,0,4,,,,,,,,,3,,,,59,0
337449,note_on,120,0,4,,,,,,,,,3,,,,62,0
337452,note_on,30,0,14,,,,,,,,,13,,,,57,112
337453,note_on,120,0,9,,,,,,,,,8,,,,55,0
337454,note_on,30,0,15,,,,,,,,,14,,,,45,112
337455,note_on,120,0,10,,,,,,,,,15,,,,43,0
337470,note_on,30,0,11,,,,,,,,,10,,,,69,0
337473,note_on,30,0,12,,,,,,,,,11,,,,69,0
337478,note_on,30,0,13,,,,,,,,,12,,,,69,0
337482,note_on,30,0,14,,,,,,,,,13,,,,57,0
337484,note_on,30,0,15,,,,,,,,,14,,,,45,0
337500,note_on,30,0,11,,,,,,,,,10,,,,67,112
337503,note_on,30,0,12,,,,,,,,,11,,,,67,112
337508,note_on,30,0,13,,,,,,,,,12,,,,67,112
337512,note_on,30,0,14,,,,,,,,,13,,,,55,112
337514,note_on,30,0,15,,,,,,,,,14,,,,43,112
337530,note_on,30,0,11,,,,,,,,,10,,,,67,0
337533,note_on,30,0,12,,,,,,,,,11,,,,67,0
337538,note_on,30,0,13,,,,,,,,,12,,,,67,0
337542,note_on,30,0,14,,,,,,,,,13,,,,55,0
337544,note_on,30,0,15,,,,,,,,,14,,,,43,0
337560,set_tempo,120,1,0,,,,,,288462,,,,,,,,
337560,note_on,30,0,11,,,,,,,,,10,,,,69,112
337563,note_on,30,0,12,,,,,,,,,11,,,,69,112
337568,note_on,30,0,13,,,,,,,,,12,,,,69,112
337572,note_on,30,0,14,,,,,,,,,13,,,,57,112
337574,note_on,30,0,15,,,,,,,,,14,,,,45,112
337590,note_on,30,0,11,,,,,,,,,10,,,,69,0
337593,note_on,30,0,12,,,,,,,,,11,,,,69,0
337598,note_on,30,0,13,,,,,,,,,12,,,,69,0
337602,note_on,30,0,14,,,,,,,,,13,,,,57,0
337604,note_on,30,0,15,,,,,,,,,14,,,,45,0
337620,note_on,30,0,11,,,,,,,,,10,,,,67,112
337623,note_on,30,0,12,,,,,,,,,11,,,,67,112
337628,note_on,30,0,13,,,,,,,,,12,,,,67,112
337632,note_on,30,0,14,,,,,,,,,13,,,,55,112
337634,note_on,30,0,15,,,,,,,,,14,,,,43,112
337650,note_on,30,0,11,,,,,,,,,10,,,,67,0
337653,note_on,30,0,12,,,,,,,,,11,,,,67,0
337658,note_on,30,0,13,,,,,,,,,12,,,,67,0
337662,note_on,30,0,14,,,,,,,,,13,,,,55,0
337664,note_on,30,0,15,,,,,,,,,14,,,,43,0
337680,note_on,30,0,11,,,,,,,,,10,,,,55,112
337680,set_tempo,120,1,0,,,,,,254237,,,,,,,,
337681,note_on,240,0,1,,,,,,,,,0,,,,93,116
337683,note_on,30,0,12,,,,,,,,,11,,,,55,112
337684,note_on,0,0,2,,,,,,,,,1,,,,81,115
337684,note_on,240,0,2,,,,,,,,,1,,,,72,115
337685,note_on,240,0,3,,,,,,,,,2,,,,81,116
337685,note_on,0,0,3,,,,,,,,,2,,,,72,116
337687,note_on,240,0,8,,,,,,,,,7,,,,62,110
337688,note_on,30,0,13,,,,,,,,,12,,,,55,112
337689,note_on,240,0,4,,,,,,,,,3,,,,66,115
337692,note_on,30,0,14,,,,,,,,,13,,,,43,112
337693,note_on,240,0,9,,,,,,,,,8,,,,55,110
337694,note_on,30,0,15,,,,,,,,,14,,,,31,112
337741,note_on,0,0,1,,,,,,,,,0,,,,91,101
337741,note_on,60,0,1,,,,,,,,,0,,,,93,0
337744,note_on,60,0,2,,,,,,,,,1,,,,81,0
337744,note_on,0,0,2,,,,,,,,,1,,,,79,100
337745,note_on,0,0,3,,,,,,,,,2,,,,79,101
337745,note_on,60,0,3,,,,,,,,,2,,,,81,0
337797,note_on,110,0,8,,,,,,,,,7,,,,62,0
337800,set_tempo,120,1,0,,,,,,263158,,,,,,,,
337800,note_on,120,0,11,,,,,,,,,10,,,,55,0
337801,note_on,0,0,1,,,,,,,,,0,,,,90,101
337801,note_on,60,0,1,,,,,,,,,0,,,,91,0
337803,note_on,110,0,9,,,,,,,,,8,,,,55,0
337803,note_on,120,0,12,,,,,,,,,11,,,,55,0
337804,note_on,0,0,2,,,,,,,,,1,,,,72,0
337804,note_on,60,0,2,,,,,,,,,1,,,,79,0
337804,note_on,0,0,2,,,,,,,,,1,,,,72,100
337804,note_on,0,0,2,,,,,,,,,1,,,,78,100
337805,note_on,0,0,3,,,,,,,,,2,,,,72,101
337805,note_on,0,0,3,,,,,,,,,2,,,,72,0
337805,note_on,0,0,3,,,,,,,,,2,,,,78,101
337805,note_on,60,0,3,,,,,,,,,2,,,,79,0
337807,note_on,10,0,8,,,,,,,,,7,,,,62,110
337808,note_on,120,0,13,,,,,,,,,12,,,,55,0
337809,note_on,0,0,4,,,,,,,,,3,,,,66,100
337809,note_on,120,0,4,,,,,,,,,3,,,,66,0
337812,note_on,120,0,14,,,,,,,,,13,,,,43,0
337813,note_on,10,0,9,,,,,,,,,8,,,,55,110
337814,note_on,120,0,15,,,,,,,,,14,,,,31,0
337861,note_on,0,0,1,,,,,,,,,0,,,,88,101
337861,note_on,60,0,1,,,,,,,,,0,,,,90,0
337864,note_on,60,0,2,,,,,,,,,1,,,,78,0
337864,note_on,0,0,2,,,,,,,,,1,,,,76,100
337865,note_on,0,0,3,,,,,,,,,2,,,,76,101
337865,note_on,60,0,3,,,,,,,,,2,,,,78,0
337917,note_on,110,0,8,,,,,,,,,7,,,,62,0
337920,set_tempo,120,1,0,,,,,,288462,,,,,,,,
337921,note_on,0,0,1,,,,,,,,,0,,,,86,101
337921,note_on,60,0,1,,,,,,,,,0,,,,88,0
337923,note_on,110,0,9,,,,,,,,,8,,,,55,0
337924,note_on,60,0,2,,,,,,,,,1,,,,76,0
337924,note_on,0,0,2,,,,,,,,,1,,,,72,100
337924,note_on,0,0,2,,,,,,,,,1,,,,72,0
337924,note_on,0,0,2,,,,,,,,,1,,,,74,100
337925,note_on,60,0,3,,,,,,,,,2,,,,76,0
337925,note_on,0,0,3,,,,,,,,,2,,,,72,101
337925,note_on,0,0,3,,,,,,,,,2,,,,74,101
337925,note_on,0,0,3,,,,,,,,,2,,,,72,0
337927,note_on,10,0,8,,,,,,,,,7,,,,62,110
337929,note_on,120,0,4,,,,,,,,,3,,,,66,0
337929,note_on,0,0,4,,,,,,,,,3,,,,66,100
337933,note_on,10,0,9,,,,,,,,,8,,,,55,110
337981,note_on,60,0,1,,,,,,,,,0,,,,86,0
337984,note_on,60,0,2,,,,,,,,,1,,,,74,0
337984,note_on,0,0,2,,,,,,,,,1,,,,72,0
337985,note_on,60,0,3,,,,,,,,,2,,,,74,0
337985,note_on,0,0,3,,,,,,,,,2,,,,72,0
337989,note_on,60,0,4,,,,,,,,,3,,,,66,0
338037,note_on,110,0,8,,,,,,,,,7,,,,62,0
338040,control_change,240,0,11,,,,,,,,,10,11,122,,,
338040,note_on,0,0,11,,,,,,,,,10,,,,67,112
338040,set_tempo,120,1,0,,,,,,254237,,,,,,,,
338041,note_on,60,0,1,,,,,,,,,0,,,,86,101
338042,note_on,0,0,7,,,,,,,,,6,,,,67,112
338042,note_on,600,0,7,,,,,,,,,6,,,,55,112
338043,note_on,600,0,5,,,,,,,,,4,,,,62,100
338043,control_change,0,0,12,,,,,,,,,11,11,122,,,
338043,note_on,240,0,12,,,,,,,,,11,,,,67,112
338043,note_on,110,0,9,,,,,,,,,8,,,,55,0
338044,note_on,0,0,2,,,,,,,,,1,,,,71,100
338044,note_on,60,0,2,,,,,,,,,1,,,,74,100
338044,note_on,600,0,6,,,,,,,,,5,,,,55,100
338045,note_on,60,0,3,,,,,,,,,2,,,,74,101
338045,note_on,0,0,3,,,,,,,,,2,,,,71,101
338047,note_on,10,0,8,,,,,,,,,7,,,,62,110
338048,control_change,0,0,13,,,,,,,,,12,11,122,,,
338048,control_change,8,0,11,,,,,,,,,10,11,119,,,
338048,note_on,240,0,13,,,,,,,,,12,,,,67,112
338049,note_on,60,0,4,,,,,,,,,3,,,,67,100
338051,control_change,8,0,12,,,,,,,,,11,11,119,,,
338052,note_on,240,0,14,,,,,,,,,13,,,,55,112
338052,control_change,0,0,14,,,,,,,,,13,11,122,,,
338053,note_on,10,0,9,,,,,,,,,8,,,,55,110
338054,note_on,0,0,15,,,,,,,,,14,,,,43,112
338054,control_change,240,0,15,,,,,,,,,14,11,122,,,
338055,note_on,600,0,10,,,,,,,,,15,,,,43,100
338056,control_change,8,0,13,,,,,,,,,12,11,119,,,
338057,control_change,9,0,11,,,,,,,,,10,11,116,,,
338060,control_change,8,0,14,,,,,,,,,13,11,119,,,
338060,control_change,9,0,12,,,,,,,,,11,11,116,,,
338062,control_change,8,0,15,,,,,,,,,14,11,119,,,
338065,control_change,9,0,13,,,,,,,,,12,11,116,,,
338066,control_change,9,0,11,,,,,,,,,10,11,113,,,
338069,control_change,9,0,14,,,,,,,,,13,11,116,,,
338069,control_change,9,0,12,,,,,,,,,11,11,113,,,
338070,note_on,4,0,11,,,,,,,,,10,,,,67,0
338071,control_change,9,0,15,,,,,,,,,14,11,116,,,
338073,note_on,4,0,12,,,,,,,,,11,,,,67,0
338074,control_change,9,0,13,,,,,,,,,12,11,113,,,
338075,control_change,5,0,11,,,,,,,,,10,11,110,,,
338078,control_change,9,0,14,,,,,,,,,13,11,113,,,
338078,control_change,5,0,12,,,,,,,,,11,11,110,,,
338078,note_on,4,0,13,,,,,,,,,12,,,,67,0
338080,control_change,9,0,15,,,,,,,,,14,11,113,,,
338082,note_on,4,0,14,,,,,,,,,13,,,,55,0
338083,control_change,5,0,13,,,,,,,,,12,11,110,,,
338084,control_change,9,0,11,,,,,,,,,10,11,107,,,
338084,note_on,4,0,15,,,,,,,,,14,,,,43,0
338087,control_change,5,0,14,,,,,,,,,13,11,110,,,
338087,control_change,9,0,12,,,,,,,,,11,11,107,,,
338089,control_change,5,0,15,,,,,,,,,14,11,110,,,
338092,control_change,9,0,13,,,,,,,,,12,11,107,,,
338093,control_change,9,0,11,,,,,,,,,10,11,104,,,
338096,control_change,9,0,12,,,,,,,,,11,11,104,,,
338096,control_change,9,0,14,,,,,,,,,13,11,107,,,
338098,control_change,9,0,15,,,,,,,,,14,11,107,,,
338100,note_on,7,0,11,,,,,,,,,10,,,,67,112
338101,note_on,60,0,1,,,,,,,,,0,,,,86,0
338101,control_change,9,0,13,,,,,,,,,12,11,104,,,
338103,note_on,7,0,12,,,,,,,,,11,,,,67,112
338104,note_on,0,0,2,,,,,,,,,1,,,,74,0
338104,note_on,60,0,2,,,,,,,,,1,,,,71,0
338105,note_on,0,0,3,,,,,,,,,2,,,,74,0
338105,note_on,60,0,3,,,,,,,,,2,,,,71,0
338105,control_change,9,0,14,,,,,,,,,13,11,104,,,
338107,control_change,9,0,15,,,,,,,,,14,11,104,,,
338108,note_on,7,0,13,,,,,,,,,12,,,,67,112
338109,note_on,60,0,4,,,,,,,,,3,,,,67,0
338112,note_on,7,0,14,,,,,,,,,13,,,,55,112
338114,note_on,7,0,15,,,,,,,,,14,,,,43,112
338130,note_on,30,0,11,,,,,,,,,10,,,,67,0
338133,note_on,30,0,12,,,,,,,,,11,,,,67,0
338138,note_on,30,0,13,,,,,,,,,12,,,,67,0
338142,note_on,30,0,14,,,,,,,,,13,,,,55,0
338144,note_on,30,0,15,,,,,,,,,14,,,,43,0
338153,note_on,110,0,5,,,,,,,,,4,,,,62,0
338154,note_on,110,0,6,,,,,,,,,5,,,,55,0
338160,note_on,30,0,11,,,,,,,,,10,,,,69,112
338160,set_tempo,120,1,0,,,,,,263158,,,,,,,,
338162,note_on,0,0,7,,,,,,,,,6,,,,55,0
338162,note_on,120,0,7,,,,,,,,,6,,,,67,0
338163,note_on,10,0,5,,,,,,,,,4,,,,62,100
338163,note_on,30,0,12,,,,,,,,,11,,,,69,112
338164,note_on,10,0,6,,,,,,,,,5,,,,55,100
338167,note_on,120,0,8,,,,,,,,,7,,,,62,0
338168,note_on,30,0,13,,,,,,,,,12,,,,69,112
338172,note_on,30,0,14,,,,,,,,,13,,,,57,112
338173,note_on,120,0,9,,,,,,,,,8,,,,55,0
338174,note_on,30,0,15,,,,,,,,,14,,,,45,112
338175,note_on,120,0,10,,,,,,,,,15,,,,43,0
338190,note_on,30,0,11,,,,,,,,,10,,,,69,0
338193,note_on,30,0,12,,,,,,,,,11,,,,69,0
338198,note_on,30,0,13,,,,,,,,,12,,,,69,0
338202,note_on,30,0,14,,,,,,,,,13,,,,57,0
338204,note_on,30,0,15,,,,,,,,,14,,,,45,0
338220,note_on,30,0,11,,,,,,,,,10,,,,67,112
338223,note_on,30,0,12,,,,,,,,,11,,,,67,112
338228,note_on,30,0,13,,,,,,,,,12,,,,67,112
338232,note_on,30,0,14,,,,,,,,,13,,,,55,112
338234,note_on,30,0,15,,,,,,,,,14,,,,43,112
338250,note_on,30,0,11,,,,,,,,,10,,,,67,0
338253,note_on,30,0,12,,,,,,,,,11,,,,67,0
338258,note_on,30,0,13,,,,,,,,,12,,,,67,0
338262,note_on,30,0,14,,,,,,,,,13,,,,55,0
338264,note_on,30,0,15,,,,,,,,,14,,,,43,0
338273,note_on,110,0,5,,,,,,,,,4,,,,62,0
338274,note_on,110,0,6,,,,,,,,,5,,,,55,0
338280,note_on,30,0,11,,,,,,,,,10,,,,69,112
338280,set_tempo,120,1,0,,,,,,288462,,,,,,,,
338283,note_on,30,0,12,,,,,,,,,11,,,,69,112
338283,note_on,10,0,5,,,,,,,,,4,,,,62,100
338284,note_on,10,0,6,,,,,,,,,5,,,,55,100
338288,note_on,30,0,13,,,,,,,,,12,,,,69,112
338292,note_on,30,0,14,,,,,,,,,13,,,,57,112
338294,note_on,30,0,15,,,,,,,,,14,,,,45,112
338310,note_on,30,0,11,,,,,,,,,10,,,,69,0
338313,note_on,30,0,12,,,,,,,,,11,,,,69,0
338318,note_on,30,0,13,,,,,,,,,12,,,,69,0
338322,note_on,30,0,14,,,,,,,,,13,,,,57,0
338324,note_on,30,0,15,,,,,,,,,14,,,,45,0
338340,note_on,30,0,11,,,,,,,,,10,,,,67,112
338343,note_on,30,0,12,,,,,,,,,11,,,,67,112
338348,note_on,30,0,13,,,,,,,,,12,,,,67,112
338352,note_on,30,0,14,,,,,,,,,13,,,,55,112
338354,note_on,30,0,15,,,,,,,,,14,,,,43,112
338370,note_on,30,0,11,,,,,,,,,10,,,,67,0
338373,note_on,30,0,12,,,,,,,,,11,,,,67,0
338378,note_on,30,0,13,,,,,,,,,12,,,,67,0
338382,note_on,30,0,14,,,,,,,,,13,,,,55,0
338384,note_on,30,0,15,,,,,,,,,14,,,,43,0
338393,note_on,110,0,5,,,,,,,,,4,,,,62,0
338394,note_on,110,0,6,,,,,,,,,5,,,,55,0
338400,note_on,30,0,11,,,,,,,,,10,,,,55,112
338400,set_tempo,120,1,0,,,,,,254237,,,,,,,,
338401,note_on,300,0,1,,,,,,,,,0,,,,93,116
338403,note_on,30,0,12,,,,,,,,,11,,,,55,112
338403,note_on,10,0,5,,,,,,,,,4,,,,62,100
338404,note_on,10,0,6,,,,,,,,,5,,,,55,100
338404,note_on,0,0,2,,,,,,,,,1,,,,81,115
338404,note_on,300,0,2,,,,,,,,,1,,,,72,115
338405,note_on,0,0,3,,,,,,,,,2,,,,72,116
338405,note_on,300,0,3,,,,,,,,,2,,,,81,116
338407,note_on,240,0,8,,,,,,,,,7,,,,62,110
338408,note_on,30,0,13,,,,,,,,,12,,,,55,112
338409,note_on,300,0,4,,,,,,,,,3,,,,66,115
338412,note_on,30,0,14,,,,,,,,,13,,,,43,112
338413,note_on,240,0,9,,,,,,,,,8,,,,55,110
338414,note_on,30,0,15,,,,,,,,,14,,,,31,112
338461,note_on,60,0,1,,,,,,,,,0,,,,93,0
338461,note_on,0,0,1,,,,,,,,,0,,,,91,101
338464,note_on,60,0,2,,,,,,,,,1,,,,81,0
338464,note_on,0,0,2,,,,,,,,,1,,,,79,100
338465,note_on,0,0,3,,,,,,,,,2,,,,79,101
338465,note_on,60,0,3,,,,,,,,,2,,,,81,0
338517,note_on,110,0,8,,,,,,,,,7,,,,62,0
338520,set_tempo,120,1,0,,,,,,263158,,,,,,,,
338520,note_on,120,0,11,,,,,,,,,10,,,,55,0
338521,note_on,60,0,1,,,,,,,,,0,,,,91,0
338521,note_on,0,0,1,,,,,,,,,0,,,,90,101
338523,note_on,120,0,12,,,,,,,,,11,,,,55,0
338523,note_on,120,0,5,,,,,,,,,4,,,,62,0
338523,note_on,110,0,9,,,,,,,,,8,,,,55,0
338524,note_on,0,0,2,,,,,,,,,1,,,,72,100
338524,note_on,0,0,2,,,,,,,,,1,,,,72,0
338524,note_on,0,0,2,,,,,,,,,1,,,,78,100
338524,note_on,60,0,2,,,,,,,,,1,,,,79,0
338524,note_on,120,0,6,,,,,,,,,5,,,,55,0
338525,note_on,0,0,3,,,,,,,,,2,,,,78,101
338525,note_on,0,0,3,,,,,,,,,2,,,,72,0
338525,note_on,60,0,3,,,,,,,,,2,,,,79,0
338525,note_on,0,0,3,,,,,,,,,2,,,,72,101
338527,note_on,10,0,8,,,,,,,,,7,,,,62,110
338528,note_on,120,0,13,,,,,,,,,12,,,,55,0
338529,note_on,0,0,4,,,,,,,,,3,,,,66,100
338529,note_on,120,0,4,,,,,,,,,3,,,,66,0
338532,note_on,120,0,14,,,,,,,,,13,,,,43,0
338533,note_on,10,0,9,,,,,,,,,8,,,,55,110
338534,note_on,120,0,15,,,,,,,,,14,,,,31,0
338581,note_on,0,0,1,,,,,,,,,0,,,,88,101
338581,note_on,60,0,1,,,,,,,,,0,,,,90,0
338584,note_on,0,0,2,,,,,,,,,1,,,,76,100
338584,note_on,60,0,2,,,,,,,,,1,,,,78,0
338585,note_on,60,0,3,,,,,,,,,2,,,,78,0
338585,note_on,0,0,3,,,,,,,,,2,,,,76,101
338637,note_on,110,0,8,,,,,,,,,7,,,,62,0
338640,set_tempo,120,1,0,,,,,,288462,,,,,,,,
338641,note_on,0,0,1,,,,,,,,,0,,,,86,101
338641,note_on,60,0,1,,,,,,,,,0,,,,88,0
338643,note_on,110,0,9,,,,,,,,,8,,,,55,0
338644,note_on,0,0,2,,,,,,,,,1,,,,74,100
338644,note_on,0,0,2,,,,,,,,,1,,,,72,100
338644,note_on,0,0,2,,,,,,,,,1,,,,72,0
338644,note_on,60,0,2,,,,,,,,,1,,,,76,0
338645,note_on,0,0,3,,,,,,,,,2,,,,74,101
338645,note_on,0,0,3,,,,,,,,,2,,,,72,101
338645,note_on,0,0,3,,,,,,,,,2,,,,72,0
338645,note_on,60,0,3,,,,,,,,,2,,,,76,0
338647,note_on,10,0,8,,,,,,,,,7,,,,62,110
338649,note_on,120,0,4,,,,,,,,,3,,,,66,0
338649,note_on,0,0,4,,,,,,,,,3,,,,66,100
338653,note_on,10,0,9,,,,,,,,,8,,,,55,110
338701,note_on,60,0,1,,,,,,,,,0,,,,86,0
338704,note_on,60,0,2,,,,,,,,,1,,,,74,0
338704,note_on,0,0,2,,,,,,,,,1,,,,72,0
338705,note_on,0,0,3,,,,,,,,,2,,,,72,0
338705,note_on,60,0,3,,,,,,,,,2,,,,74,0
338709,note_on,60,0,4,,,,,,,,,3,,,,66,0
338757,note_on,110,0,8,,,,,,,,,7,,,,62,0
338760,control_change,240,0,11,,,,,,,,,10,11,122,,,
338760,set_tempo,120,1,0,,,,,,254237,,,,,,,,
338760,note_on,0,0,11,,,,,,,,,10,,,,55,112
338761,note_on,60,0,1,,,,,,,,,0,,,,86,101
338762,note_on,600,0,7,,,,,,,,,6,,,,67,112
338762,note_on,0,0,7,,,,,,,,,6,,,,55,112
338763,control_change,0,0,12,,,,,,,,,11,11,122,,,
338763,note_on,240,0,12,,,,,,,,,11,,,,55,112
338763,note_on,240,0,5,,,,,,,,,4,,,,62,100
338763,note_on,110,0,9,,,,,,,,,8,,,,55,0
338764,note_on,240,0,6,,,,,,,,,5,,,,55,100
338764,note_on,0,0,2,,,,,,,,,1,,,,74,100
338764,note_on,60,0,2,,,,,,,,,1,,,,71,100
338765,note_on,60,0,3,,,,,,,,,2,,,,74,101
338765,note_on,0,0,3,,,,,,,,,2,,,,71,101
338767,note_on,10,0,8,,,,,,,,,7,,,,62,110
338768,control_change,8,0,11,,,,,,,,,10,11,119,,,
338768,note_on,240,0,13,,,,,,,,,12,,,,55,112
338768,control_change,0,0,13,,,,,,,,,12,11,122,,,
338769,note_on,60,0,4,,,,,,,,,3,,,,67,100
338771,control_change,8,0,12,,,,,,,,,11,11,119,,,
338772,control_change,0,0,14,,,,,,,,,13,11,122,,,
338772,note_on,240,0,14,,,,,,,,,13,,,,43,112
338773,note_on,10,0,9,,,,,,,,,8,,,,55,110
338774,control_change,240,0,15,,,,,,,,,14,11,122,,,
338774,note_on,0,0,15,,,,,,,,,14,,,,31,112
338775,note_on,600,0,10,,,,,,,,,15,,,,43,100
338776,control_change,8,0,13,,,,,,,,,12,11,119,,,
338777,control_change,9,0,11,,,,,,,,,10,11,116,,,
338780,control_change,8,0,14,,,,,,,,,13,11,119,,,
338780,control_change,9,0,12,,,,,,,,,11,11,116,,,
338782,control_change,8,0,15,,,,,,,,,14,11,119,,,
338785,control_change,9,0,13,,,,,,,,,12,11,116,,,
338786,control_change,9,0,11,,,,,,,,,10,11,113,,,
338789,control_change,9,0,14,,,,,,,,,13,11,116,,,
338789,control_change,9,0,12,,,,,,,,,11,11,113,,,
338790,note_on,4,0,11,,,,,,,,,10,,,,55,0
338791,control_change,9,0,15,,,,,,,,,14,11,116,,,
338793,note_on,4,0,12,,,,,,,,,11,,,,55,0
338794,control_change,9,0,13,,,,,,,,,12,11,113,,,
338795,control_change,5,0,11,,,,,,,,,10,11,110,,,
338798,control_change,5,0,12,,,,,,,,,11,11,110,,,
338798,note_on,4,0,13,,,,,,,,,12,,,,55,0
338798,control_change,9,0,14,,,,,,,,,13,11,113,,,
338800,control_change,9,0,15,,,,,,,,,14,11,113,,,
338802,note_on,4,0,14,,,,,,,,,13,,,,43,0
338803,control_change,5,0,13,,,,,,,,,12,11,110,,,
338804,note_on,4,0,15,,,,,,,,,14,,,,31,0
338804,control_change,9,0,11,,,,,,,,,10,11,107,,,
338807,control_change,9,0,12,,,,,,,,,11,11,107,,,
338807,control_change,5,0,14,,,,,,,,,13,11,110,,,
338809,control_change,5,0,15,,,,,,,,,14,11,110,,,
338812,control_change,9,0,13,,,,,,,,,12,11,107,,,
338813,control_change,9,0,11,,,,,,,,,10,11,104,,,
338816,control_change,9,0,14,,,,,,,,,13,11,107,,,
338816,control_change,9,0,12,,,,,,,,,11,11,104,,,
338818,control_change,9,0,15,,,,,,,,,14,11,107,,,
338820,note_on,7,0,11,,,,,,,,,10,,,,55,112
338821,control_change,9,0,13,,,,,,,,,12,11,104,,,
338821,note_on,60,0,1,,,,,,,,,0,,,,86,0
338823,note_on,7,0,12,,,,,,,,,11,,,,55,112
338824,note_on,60,0,2,,,,,,,,,1,,,,74,0
338824,note_on,0,0,2,,,,,,,,,1,,,,71,0
338825,note_on,0,0,3,,,,,,,,,2,,,,74,0
338825,note_on,60,0,3,,,,,,,,,2,,,,71,0
338825,control_change,9,0,14,,,,,,,,,13,11,104,,,
338827,control_change,9,0,15,,,,,,,,,14,11,104,,,
338828,note_on,7,0,13,,,,,,,,,12,,,,55,112
338829,note_on,60,0,4,,,,,,,,,3,,,,67,0
338832,note_on,7,0,14,,,,,,,,,13,,,,43,112
338834,note_on,7,0,15,,,,,,,,,14,,,,31,112
338850,note_on,30,0,11,,,,,,,,,10,,,,55,0
338853,note_on,30,0,12,,,,,,,,,11,,,,55,0
338858,note_on,30,0,13,,,,,,,,,12,,,,55,0
338862,note_on,30,0,14,,,,,,,,,13,,,,43,0
338864,note_on,30,0,15,,,,,,,,,14,,,,31,0
338873,note_on,110,0,5,,,,,,,,,4,,,,62,0
338874,note_on,110,0,6,,,,,,,,,5,,,,55,0
338880,set_tempo,120,1,0,,,,,,263158,,,,,,,,
338880,note_on,30,0,11,,,,,,,,,10,,,,57,112
338882,note_on,120,0,7,,,,,,,,,6,,,,55,0
338882,note_on,0,0,7,,,,,,,,,6,,,,67,0
338883,note_on,30,0,12,,,,,,,,,11,,,,57,112
338883,note_on,10,0,5,,,,,,,,,4,,,,62,100
338884,note_on,10,0,6,,,,,,,,,5,,,,55,100
338887,note_on,120,0,8,,,,,,,,,7,,,,62,0
338888,note_on,30,0,13,,,,,,,,,12,,,,57,112
338892,note_on,30,0,14,,,,,,,,,13,,,,45,112
338893,note_on,120,0,9,,,,,,,,,8,,,,55,0
338894,note_on,30,0,15,,,,,,,,,14,,,,33,112
338895,note_on,120,0,10,,,,,,,,,15,,,,43,0
338910,note_on,30,0,11,,,,,,,,,10,,,,57,0
338913,note_on,30,0,12,,,,,,,,,11,,,,57,0
338918,note_on,30,0,13,,,,,,,,,12,,,,57,0
338922,note_on,30,0,14,,,,,,,,,13,,,,45,0
338924,note_on,30,0,15,,,,,,,,,14,,,,33,0
338940,note_on,30,0,11,,,,,,,,,10,,,,55,112
338943,note_on,30,0,12,,,,,,,,,11,,,,55,112
338948,note_on,30,0,13,,,,,,,,,12,,,,55,112
338952,note_on,30,0,14,,,,,,,,,13,,,,43,112
338954,note_on,30,0,15,,,,,,,,,14,,,,31,112
338970,note_on,30,0,11,,,,,,,,,10,,,,55,0
338973,note_on,30,0,12,,,,,,,,,11,,,,55,0
338978,note_on,30,0,13,,,,,,,,,12,,,,55,0
338982,note_on,30,0,14,,,,,,,,,13,,,,43,0
338984,note_on,30,0,15,,,,,,,,,14,,,,31,0
338993,note_on,110,0,5,,,,,,,,,4,,,,62,0
338994,note_on,110,0,6,,,,,,,,,5,,,,55,0
339000,note_on,30,0,11,,,,,,,,,10,,,,57,112
339000,set_tempo,120,1,0,,,,,,288462,,,,,,,,
339003,note_on,30,0,12,,,,,,,,,11,,,,57,112
339003,note_on,10,0,5,,,,,,,,,4,,,,62,100
339004,note_on,10,0,6,,,,,,,,,5,,,,55,100
339008,note_on,30,0,13,,,,,,,,,12,,,,57,112
339012,note_on,30,0,14,,,,,,,,,13,,,,45,112
339014,note_on,30,0,15,,,,,,,,,14,,,,33,112
339030,note_on,30,0,11,,,,,,,,,10,,,,57,0
339033,note_on,30,0,12,,,,,,,,,11,,,,57,0
339038,note_on,30,0,13,,,,,,,,,12,,,,57,0
339042,note_on,30,0,14,,,,,,,,,13,,,,45,0
339044,note_on,30,0,15,,,,,,,,,14,,,,33,0
339060,note_on,30,0,11,,,,,,,,,10,,,,55,112
339063,note_on,30,0,12,,,,,,,,,11,,,,55,112
339068,note_on,30,0,13,,,,,,,,,12,,,,55,112
339072,note_on,30,0,14,,,,,,,,,13,,,,43,112
339074,note_on,30,0,15,,,,,,,,,14,,,,31,112
339090,note_on,30,0,11,,,,,,,,,10,,,,55,0
339093,note_on,30,0,12,,,,,,,,,11,,,,55,0
339098,note_on,30,0,13,,,,,,,,,12,,,,55,0
339102,note_on,30,0,14,,,,,,,,,13,,,,43,0
339104,note_on,30,0,15,,,,,,,,,14,,,,31,0
339113,note_on,110,0,5,,,,,,,,,4,,,,62,0
339114,note_on,110,0,6,,,,,,,,,5,,,,55,0
339120,note_on,0,0,11,,,,,,,,,10,,,,67,112
339120,set_tempo,120,1,0,,,,,,258621,,,,,,,,
339120,control_change,30,0,11,,,,,,,,,10,11,122,,,
339123,note_on,30,0,12,,,,,,,,,11,,,,67,112
339123,control_change,0,0,12,,,,,,,,,11,11,122,,,
339123,note_on,10,0,5,,,,,,,,,4,,,,62,100
339124,note_on,10,0,6,,,,,,,,,5,,,,55,100
339128,control_change,8,0,11,,,,,,,,,10,11,119,,,
339128,note_on,30,0,13,,,,,,,,,12,,,,67,112
339131,control_change,8,0,12,,,,,,,,,11,11,119,,,
339132,note_on,30,0,14,,,,,,,,,13,,,,55,112
339134,note_on,30,0,15,,,,,,,,,14,,,,43,112
339137,control_change,9,0,11,,,,,,,,,10,11,116,,,
339140,control_change,9,0,12,,,,,,,,,11,11,116,,,
339146,control_change,9,0,11,,,,,,,,,10,11,113,,,
339149,control_change,9,0,12,,,,,,,,,11,11,113,,,
339155,control_change,9,0,11,,,,,,,,,10,11,110,,,
339158,control_change,9,0,12,,,,,,,,,11,11,110,,,
339164,control_change,9,0,11,,,,,,,,,10,11,107,,,
339167,control_change,9,0,12,,,,,,,,,11,11,107,,,
339173,control_change,9,0,11,,,,,,,,,10,11,104,,,
339176,control_change,9,0,12,,,,,,,,,11,11,104,,,
339180,note_on,7,0,11,,,,,,,,,10,,,,67,0
339183,note_on,7,0,12,,,,,,,,,11,,,,67,0
339188,note_on,60,0,13,,,,,,,,,12,,,,67,0
339192,note_on,60,0,14,,,,,,,,,13,,,,55,0
339194,note_on,60,0,15,,,,,,,,,14,,,,43,0
339240,note_on,60,0,11,,,,,,,,,10,,,,67,112
339243,note_on,60,0,12,,,,,,,,,11,,,,67,112
339243,note_on,120,0,5,,,,,,,,,4,,,,62,0
339244,note_on,120,0,6,,,,,,,,,5,,,,55,0
339248,note_on,60,0,13,,,,,,,,,12,,,,67,112
339252,note_on,60,0,14,,,,,,,,,13,,,,55,112
339254,note_on,60,0,15,,,,,,,,,14,,,,43,112
339300,note_on,60,0,11,,,,,,,,,10,,,,67,0
339303,note_on,60,0,12,,,,,,,,,11,,,,67,0
339308,note_on,60,0,13,,,,,,,,,12,,,,67,0
339312,note_on,60,0,14,,,,,,,,,13,,,,55,0
339314,note_on,60,0,15,,,,,,,,,14,,,,43,0
339360,note_on,60,0,11,,,,,,,,,10,,,,67,112
339360,set_tempo,240,1,0,,,,,,288462,,,,,,,,
339363,note_on,60,0,12,,,,,,,,,11,,,,67,112
339368,note_on,60,0,13,,,,,,,,,12,,,,67,112
339372,note_on,60,0,14,,,,,,,,,13,,,,55,112
339374,note_on,60,0,15,,,,,,,,,14,,,,43,112
339420,note_on,60,0,11,,,,,,,,,10,,,,67,0
339423,note_on,60,0,12,,,,,,,,,11,,,,67,0
339428,note_on,60,0,13,,,,,,,,,12,,,,67,0
339432,note_on,60,0,14,,,,,,,,,13,,,,55,0
339434,note_on,60,0,15,,,,,,,,,14,,,,43,0
339480,note_on,60,0,11,,,,,,,,,10,,,,79,112
339480,set_tempo,120,1,0,,,,,,258621,,,,,,,,
339481,note_on,0,0,1,,,,,,,,,0,,,,79,101
339481,note_on,660,0,1,,,,,,,,,0,,,,91,101
339482,note_on,0,0,7,,,,,,,,,6,,,,55,112
339482,note_on,600,0,7,,,,,,,,,6,,,,67,112
339483,note_on,60,0,12,,,,,,,,,11,,,,79,112
339484,note_on,660,0,2,,,,,,,,,1,,,,67,100
339484,note_on,0,0,2,,,,,,,,,1,,,,79,100
339487,note_on,600,0,8,,,,,,,,,7,,,,67,110
339487,note_on,0,0,8,,,,,,,,,7,,,,55,110
339488,note_on,0,0,13,,,,,,,,,12,,,,55,112
339488,note_on,60,0,13,,,,,,,,,12,,,,67,112
339489,note_on,660,0,4,,,,,,,,,3,,,,55,100
339489,note_on,0,0,4,,,,,,,,,3,,,,43,100
339492,note_on,60,0,14,,,,,,,,,13,,,,43,112
339493,note_on,600,0,9,,,,,,,,,8,,,,43,110
339494,note_on,60,0,15,,,,,,,,,14,,,,31,112
339495,note_on,600,0,10,,,,,,,,,15,,,,43,100
339540,note_on,60,0,11,,,,,,,,,10,,,,79,0
339543,note_on,60,0,12,,,,,,,,,11,,,,79,0
339548,note_on,0,0,13,,,,,,,,,12,,,,67,0
339548,note_on,60,0,13,,,,,,,,,12,,,,55,0
339552,note_on,60,0,14,,,,,,,,,13,,,,43,0
339554,note_on,60,0,15,,,,,,,,,14,,,,31,0
339592,note_on,0,0,7,,,,,,,,,6,,,,67,0
339592,note_on,110,0,7,,,,,,,,,6,,,,55,0
339597,note_on,110,0,8,,,,,,,,,7,,,,55,0
339597,note_on,0,0,8,,,,,,,,,7,,,,67,0
339600,note_on,60,0,11,,,,,,,,,10,,,,79,112
339601,note_on,0,0,1,,,,,,,,,0,,,,91,101
339601,note_on,120,0,1,,,,,,,,,0,,,,79,0
339601,note_on,0,0,1,,,,,,,,,0,,,,79,101
339601,note_on,0,0,1,,,,,,,,,0,,,,91,0
339602,note_on,10,0,7,,,,,,,,,6,,,,55,112
339602,note_on,0,0,7,,,,,,,,,6,,,,67,112
339603,note_on,110,0,9,,,,,,,,,8,,,,43,0
339603,note_on,60,0,12,,,,,,,,,11,,,,79,112
339604,note_on,0,0,2,,,,,,,,,1,,,,67,0
339604,note_on,0,0,2,,,,,,,,,1,,,,67,100
339604,note_on,0,0,2,,,,,,,,,1,,,,79,100
339604,note_on,120,0,2,,,,,,,,,1,,,,79,0
339607,note_on,0,0,8,,,,,,,,,7,,,,67,110
339607,note_on,10,0,8,,,,,,,,,7,,,,55,110
339608,note_on,60,0,13,,,,,,,,,12,,,,55,112
339608,note_on,0,0,13,,,,,,,,,12,,,,67,112
339609,note_on,0,0,4,,,,,,,,,3,,,,43,100
339609,note_on,0,0,4,,,,,,,,,3,,,,55,0
339609,note_on,0,0,4,,,,,,,,,3,,,,55,100
339609,note_on,120,0,4,,,,,,,,,3,,,,43,0
339612,note_on,60,0,14,,,,,,,,,13,,,,43,112
339613,note_on,10,0,9,,,,,,,,,8,,,,43,110
339614,note_on,60,0,15,,,,,,,,,14,,,,31,112
339615,note_on,0,0,10,,,,,,,,,15,,,,43,100
339615,note_on,120,0,10,,,,,,,,,15,,,,43,0
339660,note_on,60,0,11,,,,,,,,,10,,,,79,0
339663,note_on,60,0,12,,,,,,,,,11,,,,79,0
339668,note_on,60,0,13,,,,,,,,,12,,,,67,0
339668,note_on,0,0,13,,,,,,,,,12,,,,55,0
339672,note_on,60,0,14,,,,,,,,,13,,,,43,0
339674,note_on,60,0,15,,,,,,,,,14,,,,31,0
339712,note_on,0,0,7,,,,,,,,,6,,,,55,0
339712,note_on,110,0,7,,,,,,,,,6,,,,67,0
339717,note_on,0,0,8,,,,,,,,,7,,,,55,0
339717,note_on,110,0,8,,,,,,,,,7,,,,67,0
339720,set_tempo,240,1,0,,,,,,288462,,,,,,,,
339720,note_on,60,0,11,,,,,,,,,10,,,,79,112
339721,note_on,0,0,1,,,,,,,,,0,,,,91,101
339721,note_on,0,0,1,,,,,,,,,0,,,,79,0
339721,note_on,120,0,1,,,,,,,,,0,,,,91,0
339721,note_on,0,0,1,,,,,,,,,0,,,,79,101
339722,note_on,0,0,7,,,,,,,,,6,,,,55,112
339722,note_on,10,0,7,,,,,,,,,6,,,,67,112
339723,note_on,60,0,12,,,,,,,,,11,,,,79,112
339723,note_on,110,0,9,,,,,,,,,8,,,,43,0
339724,note_on,0,0,2,,,,,,,,,1,,,,67,0
339724,note_on,120,0,2,,,,,,,,,1,,,,79,0
339724,note_on,0,0,2,,,,,,,,,1,,,,79,100
339724,note_on,0,0,2,,,,,,,,,1,,,,67,100
339727,note_on,10,0,8,,,,,,,,,7,,,,55,110
339727,note_on,0,0,8,,,,,,,,,7,,,,67,110
339728,note_on,60,0,13,,,,,,,,,12,,,,55,112
339728,note_on,0,0,13,,,,,,,,,12,,,,67,112
339729,note_on,120,0,4,,,,,,,,,3,,,,43,0
339729,note_on,0,0,4,,,,,,,,,3,,,,55,0
339729,note_on,0,0,4,,,,,,,,,3,,,,43,100
339729,note_on,0,0,4,,,,,,,,,3,,,,55,100
339732,note_on,60,0,14,,,,,,,,,13,,,,43,112
339733,note_on,10,0,9,,,,,,,,,8,,,,43,110
339734,note_on,60,0,15,,,,,,,,,14,,,,31,112
339735,note_on,120,0,10,,,,,,,,,15,,,,43,0
339735,note_on,0,0,10,,,,,,,,,15,,,,43,100
339780,note_on,60,0,11,,,,,,,,,10,,,,79,0
339783,note_on,60,0,12,,,,,,,,,11,,,,79,0
339788,note_on,0,0,13,,,,,,,,,12,,,,55,0
339788,note_on,60,0,13,,,,,,,,,12,,,,67,0
339792,note_on,60,0,14,,,,,,,,,13,,,,43,0
339794,note_on,60,0,15,,,,,,,,,14,,,,31,0
339832,note_on,110,0,7,,,,,,,,,6,,,,55,0
339832,note_on,0,0,7,,,,,,,,,6,,,,67,0
339837,note_on,0,0,8,,,,,,,,,7,,,,55,0
339837,note_on,110,0,8,,,,,,,,,7,,,,67,0
339840,set_tempo,120,1,0,,,,,,254237,,,,,,,,
339841,note_on,0,0,1,,,,,,,,,0,,,,91,0
339841,note_on,120,0,1,,,,,,,,,0,,,,79,0
339843,note_on,110,0,9,,,,,,,,,8,,,,43,0
339843,note_on,600,0,5,,,,,,,,,4,,,,67,115
339843,control_change,0,0,5,,,,,,,,,4,11,47,,,
339844,note_on,0,0,6,,,,,,,,,5,,,,55,115
339844,note_on,0,0,2,,,,,,,,,1,,,,67,0
339844,note_on,120,0,2,,,,,,,,,1,,,,79,0
339844,control_change,600,0,6,,,,,,,,,5,11,47,,,
339845,control_change,0,0,3,,,,,,,,,2,11,42,,,
339845,note_on,0,0,3,,,,,,,,,2,,,,67,116
339845,note_on,1020,0,3,,,,,,,,,2,,,,79,116
339849,note_on,0,0,4,,,,,,,,,3,,,,43,0
339849,note_on,120,0,4,,,,,,,,,3,,,,55,0
339855,note_on,120,0,10,,,,,,,,,15,,,,43,0
339903,note_on,60,0,5,,,,,,,,,4,,,,67,0
339904,note_on,60,0,6,,,,,,,,,5,,,,55,0
339905,note_on,0,0,3,,,,,,,,,2,,,,79,0
339905,note_on,60,0,3,,,,,,,,,2,,,,67,0
339960,set_tempo,120,1,0,,,,,,263158,,,,,,,,
339963,note_on,60,0,5,,,,,,,,,4,,,,67,100
339964,note_on,60,0,6,,,,,,,,,5,,,,55,100
339965,note_on,60,0,3,,,,,,,,,2,,,,67,101
339965,note_on,0,0,3,,,,,,,,,2,,,,79,101
340023,note_on,60,0,5,,,,,,,,,4,,,,67,0
340024,note_on,60,0,6,,,,,,,,,5,,,,55,0
340025,note_on,0,0,3,,,,,,,,,2,,,,67,0
340025,note_on,60,0,3,,,,,,,,,2,,,,79,0
340080,set_tempo,120,1,0,,,,,,308483,,,,,,,,
340083,note_on,60,0,5,,,,,,,,,4,,,,67,100
340084,note_on,60,0,6,,,,,,,,,5,,,,55,100
340085,note_on,60,0,3,,,,,,,,,2,,,,67,101
340085,note_on,0,0,3,,,,,,,,,2,,,,79,101
340143,note_on,60,0,5,,,,,,,,,4,,,,67,0
340144,note_on,60,0,6,,,,,,,,,5,,,,55,0
340145,note_on,60,0,3,,,,,,,,,2,,,,79,0
340145,note_on,0,0,3,,,,,,,,,2,,,,67,0
340200,set_tempo,120,1,0,,,,,,254237,,,,,,,,
340203,note_on,60,0,5,,,,,,,,,4,,,,65,100
340203,control_change,0,0,5,,,,,,,,,4,11,47,,,
340204,control_change,60,0,6,,,,,,,,,5,11,47,,,
340204,note_on,0,0,2,,,,,,,,,1,,,,67,115
340204,note_on,0,0,6,,,,,,,,,5,,,,62,100
340204,note_on,0,0,2,,,,,,,,,1,,,,65,100
340204,control_change,360,0,2,,,,,,,,,1,11,42,,,
340205,note_on,60,0,3,,,,,,,,,2,,,,67,116
340205,control_change,0,0,3,,,,,,,,,2,11,42,,,
340209,note_on,0,0,4,,,,,,,,,3,,,,55,100
340209,note_on,360,0,4,,,,,,,,,3,,,,59,100
340209,control_change,0,0,4,,,,,,,,,3,11,42,,,
340234,note_on,30,0,2,,,,,,,,,1,,,,67,0
340235,note_on,30,0,3,,,,,,,,,2,,,,67,0
340260,note_on,26,0,2,,,,,,,,,1,,,,67,100
340265,note_on,30,0,3,,,,,,,,,2,,,,67,101
340290,note_on,30,0,2,,,,,,,,,1,,,,67,0
340295,note_on,30,0,3,,,,,,,,,2,,,,67,0
340320,set_tempo,120,1,0,,,,,,263158,,,,,,,,
340324,note_on,34,0,2,,,,,,,,,1,,,,69,100
340325,note_on,30,0,3,,,,,,,,,2,,,,69,101
340384,note_on,60,0,2,,,,,,,,,1,,,,69,0
340384,note_on,0,0,2,,,,,,,,,1,,,,67,100
340385,note_on,60,0,3,,,,,,,,,2,,,,69,0
340385,note_on,0,0,3,,,,,,,,,2,,,,67,101
340440,set_tempo,120,1,0,,,,,,288462,,,,,,,,
340444,note_on,60,0,2,,,,,,,,,1,,,,67,0
340444,note_on,0,0,2,,,,,,,,,1,,,,69,100
340445,note_on,0,0,3,,,,,,,,,2,,,,69,101
340445,note_on,60,0,3,,,,,,,,,2,,,,67,0
340504,note_on,60,0,2,,,,,,,,,1,,,,69,0
340504,note_on,0,0,2,,,,,,,,,1,,,,67,100
340505,note_on,60,0,3,,,,,,,,,2,,,,69,0
340505,note_on,0,0,3,,,,,,,,,2,,,,67,101
340560,set_tempo,120,1,0,,,,,,258621,,,,,,,,
340563,note_on,0,0,5,,,,,,,,,4,,,,64,100
340563,note_on,360,0,5,,,,,,,,,4,,,,65,0
340564,note_on,0,0,2,,,,,,,,,1,,,,72,100
340564,note_on,0,0,2,,,,,,,,,1,,,,64,100
340564,note_on,360,0,6,,,,,,,,,5,,,,62,0
340564,note_on,0,0,6,,,,,,,,,5,,,,60,100
340564,note_on,60,0,2,,,,,,,,,1,,,,67,0
340564,note_on,0,0,2,,,,,,,,,1,,,,65,0
340565,note_on,0,0,3,,,,,,,,,2,,,,72,101
340565,note_on,60,0,3,,,,,,,,,2,,,,67,0
340569,note_on,0,0,4,,,,,,,,,3,,,,57,100
340569,note_on,0,0,4,,,,,,,,,3,,,,60,100
340569,note_on,0,0,4,,,,,,,,,3,,,,59,0
340569,note_on,360,0,4,,,,,,,,,3,,,,55,0
340623,note_on,60,0,5,,,,,,,,,4,,,,64,0
340624,note_on,60,0,6,,,,,,,,,5,,,,60,0
340624,note_on,60,0,2,,,,,,,,,1,,,,72,0
340624,note_on,0,0,2,,,,,,,,,1,,,,64,0
340625,note_on,60,0,3,,,,,,,,,2,,,,72,0
340629,note_on,60,0,4,,,,,,,,,3,,,,60,0
340629,note_on,0,0,4,,,,,,,,,3,,,,57,0
340683,note_on,60,0,5,,,,,,,,,4,,,,64,100
340684,note_on,0,0,2,,,,,,,,,1,,,,64,100
340684,note_on,60,0,2,,,,,,,,,1,,,,72,100
340684,note_on,60,0,6,,,,,,,,,5,,,,60,100
340685,note_on,60,0,3,,,,,,,,,2,,,,72,101
340689,note_on,60,0,4,,,,,,,,,3,,,,57,100
340743,note_on,60,0,5,,,,,,,,,4,,,,64,0
340744,note_on,60,0,6,,,,,,,,,5,,,,60,0
340744,note_on,0,0,2,,,,,,,,,1,,,,72,0
340744,note_on,60,0,2,,,,,,,,,1,,,,64,0
340745,note_on,60,0,3,,,,,,,,,2,,,,72,0
340749,note_on,60,0,4,,,,,,,,,3,,,,57,0
340800,set_tempo,240,1,0,,,,,,288462,,,,,,,,
340803,note_on,60,0,5,,,,,,,,,4,,,,64,100
340804,note_on,60,0,6,,,,,,,,,5,,,,60,100
340804,note_on,0,0,2,,,,,,,,,1,,,,72,100
340804,note_on,60,0,2,,,,,,,,,1,,,,64,100
340805,note_on,60,0,3,,,,,,,,,2,,,,72,101
340809,note_on,60,0,4,,,,,,,,,3,,,,57,100
340863,note_on,60,0,5,,,,,,,,,4,,,,64,0
340864,note_on,60,0,2,,,,,,,,,1,,,,72,0
340864,note_on,60,0,6,,,,,,,,,5,,,,60,0
340864,note_on,0,0,2,,,,,,,,,1,,,,64,0
340865,note_on,60,0,3,,,,,,,,,2,,,,72,0
340869,note_on,60,0,4,,,,,,,,,3,,,,57,0
340920,set_tempo,120,1,0,,,,,,254237,,,,,,,,
340923,note_on,60,0,5,,,,,,,,,4,,,,57,100
340924,note_on,60,0,2,,,,,,,,,1,,,,69,100
340924,note_on,60,0,6,,,,,,,,,5,,,,57,100
340924,note_on,0,0,2,,,,,,,,,1,,,,71,100
340925,note_on,60,0,3,,,,,,,,,2,,,,69,101
340925,note_on,0,0,3,,,,,,,,,2,,,,71,101
340929,note_on,60,0,4,,,,,,,,,3,,,,53,100
340954,note_on,30,0,2,,,,,,,,,1,,,,71,0
340955,note_on,30,0,3,,,,,,,,,2,,,,71,0
340983,note_on,60,0,5,,,,,,,,,4,,,,57,0
340984,note_on,30,0,2,,,,,,,,,1,,,,69,0
340984,note_on,0,0,2,,,,,,,,,1,,,,72,100
340984,note_on,60,0,6,,,,,,,,,5,,,,57,0
340985,note_on,30,0,3,,,,,,,,,2,,,,69,0
340985,note_on,0,0,3,,,,,,,,,2,,,,72,101
340989,note_on,60,0,4,,,,,,,,,3,,,,53,0
341014,note_on,30,0,2,,,,,,,,,1,,,,72,0
341015,note_on,30,0,3,,,,,,,,,2,,,,72,0
341040,set_tempo,120,1,0,,,,,,263158,,,,,,,,
341043,note_on,60,0,5,,,,,,,,,4,,,,57,100
341044,note_on,60,0,6,,,,,,,,,5,,,,57,100
341044,note_on,30,0,2,,,,,,,,,1,,,,69,100
341045,note_on,30,0,3,,,,,,,,,2,,,,69,101
341049,note_on,60,0,4,,,,,,,,,3,,,,53,100
341103,note_on,60,0,5,,,,,,,,,4,,,,57,0
341104,note_on,60,0,2,,,,,,,,,1,,,,69,0
341104,note_on,60,0,6,,,,,,,,,5,,,,57,0
341104,note_on,0,0,2,,,,,,,,,1,,,,71,100
341105,note_on,60,0,3,,,,,,,,,2,,,,69,0
341105,note_on,0,0,3,,,,,,,,,2,,,,71,101
341109,note_on,60,0,4,,,,,,,,,3,,,,53,0
341160,set_tempo,120,1,0,,,,,,288462,,,,,,,,
341163,note_on,60,0,5,,,,,,,,,4,,,,57,100
341164,note_on,60,0,6,,,,,,,,,5,,,,57,100
341164,note_on,0,0,2,,,,,,,,,1,,,,72,100
341164,note_on,0,0,2,,,,,,,,,1,,,,69,100
341164,note_on,60,0,2,,,,,,,,,1,,,,71,0
341165,note_on,60,0,3,,,,,,,,,2,,,,71,0
341165,note_on,0,0,3,,,,,,,,,2,,,,72,101
341165,note_on,0,0,3,,,,,,,,,2,,,,69,101
341169,note_on,60,0,4,,,,,,,,,3,,,,57,100
341169,note_on,0,0,4,,,,,,,,,3,,,,53,100
341223,note_on,60,0,5,,,,,,,,,4,,,,57,0
341224,note_on,0,0,2,,,,,,,,,1,,,,74,100
341224,note_on,0,0,2,,,,,,,,,1,,,,72,0
341224,note_on,60,0,2,,,,,,,,,1,,,,69,0
341224,note_on,60,0,6,,,,,,,,,5,,,,57,0
341225,note_on,0,0,3,,,,,,,,,2,,,,74,101
341225,note_on,0,0,3,,,,,,,,,2,,,,69,0
341225,note_on,60,0,3,,,,,,,,,2,,,,72,0
341229,note_on,0,0,4,,,,,,,,,3,,,,57,0
341229,note_on,60,0,4,,,,,,,,,3,,,,53,0
341280,set_tempo,120,1,0,,,,,,254237,,,,,,,,
341283,note_on,60,0,5,,,,,,,,,4,,,,64,100
341283,control_change,0,0,5,,,,,,,,,4,11,52,,,
341284,note_on,0,0,2,,,,,,,,,1,,,,76,100
341284,control_change,0,0,2,,,,,,,,,1,11,47,,,
341284,control_change,60,0,6,,,,,,,,,5,11,52,,,
341284,note_on,0,0,6,,,,,,,,,5,,,,52,100
341284,note_on,60,0,2,,,,,,,,,1,,,,74,0
341285,note_on,0,0,3,,,,,,,,,2,,,,76,101
341285,note_on,60,0,3,,,,,,,,,2,,,,74,0
341285,control_change,0,0,3,,,,,,,,,2,11,47,,,
341287,control_change,4,0,5,,,,,,,,,4,11,55,,,
341288,control_change,4,0,6,,,,,,,,,5,11,55,,,
341288,control_change,4,0,2,,,,,,,,,1,11,50,,,
341289,note_on,0,0,4,,,,,,,,,3,,,,59,100
341289,note_on,0,0,4,,,,,,,,,3,,,,52,100
341289,control_change,4,0,3,,,,,,,,,2,11,50,,,
341289,control_change,60,0,4,,,,,,,,,3,11,47,,,
341292,control_change,5,0,5,,,,,,,,,4,11,58,,,
341293,control_change,5,0,6,,,,,,,,,5,11,58,,,
341293,control_change,4,0,4,,,,,,,,,3,11,50,,,
341296,control_change,4,0,5,,,,,,,,,4,11,61,,,
341297,control_change,4,0,6,,,,,,,,,5,11,61,,,
341297,control_change,9,0,2,,,,,,,,,1,11,55,,,
341298,control_change,5,0,4,,,,,,,,,3,11,53,,,
341298,control_change,9,0,3,,,,,,,,,2,11,55,,,
341301,control_change,5,0,5,,,,,,,,,4,11,64,,,
341302,control_change,5,0,6,,,,,,,,,5,11,64,,,
341302,control_change,4,0,4,,,,,,,,,3,11,56,,,
341305,control_change,4,0,5,,,,,,,,,4,11,67,,,
341306,control_change,4,0,6,,,,,,,,,5,11,67,,,
341306,control_change,9,0,2,,,,,,,,,1,11,59,,,
341307,control_change,9,0,3,,,,,,,,,2,11,59,,,
341307,control_change,5,0,4,,,,,,,,,3,11,59,,,
341310,control_change,5,0,5,,,,,,,,,4,11,70,,,
341311,control_change,4,0,4,,,,,,,,,3,11,62,,,
341311,control_change,5,0,6,,,,,,,,,5,11,70,,,
341316,control_change,5,0,4,,,,,,,,,3,11,65,,,
341327,control_change,17,0,5,,,,,,,,,4,11,68,,,
341328,control_change,17,0,6,,,,,,,,,5,11,68,,,
341328,control_change,22,0,2,,,,,,,,,1,11,60,,,
341329,control_change,22,0,3,,,,,,,,,2,11,60,,,
341333,control_change,17,0,4,,,,,,,,,3,11,63,,,
341338,control_change,11,0,5,,,,,,,,,4,11,65,,,
341339,control_change,11,0,6,,,,,,,,,5,11,65,,,
341344,control_change,11,0,4,,,,,,,,,3,11,60,,,
341349,control_change,11,0,5,,,,,,,,,4,11,62,,,
341350,control_change,11,0,6,,,,,,,,,5,11,62,,,
341350,control_change,22,0,2,,,,,,,,,1,11,55,,,
341351,control_change,22,0,3,,,,,,,,,2,11,55,,,
341355,control_change,11,0,4,,,,,,,,,3,11,57,,,
341359,control_change,10,0,5,,,,,,,,,4,11,59,,,
341360,control_change,10,0,6,,,,,,,,,5,11,59,,,
341365,control_change,10,0,4,,,,,,,,,3,11,54,,,
341370,control_change,11,0,5,,,,,,,,,4,11,56,,,
341371,control_change,11,0,6,,,,,,,,,5,11,56,,,
341371,control_change,21,0,2,,,,,,,,,1,11,51,,,
341372,control_change,21,0,3,,,,,,,,,2,11,51,,,
341376,control_change,11,0,4,,,,,,,,,3,11,51,,,
341381,control_change,11,0,5,,,,,,,,,4,11,53,,,
341382,control_change,11,0,6,,,,,,,,,5,11,53,,,
341382,control_change,11,0,2,,,,,,,,,1,11,48,,,
341383,control_change,11,0,3,,,,,,,,,2,11,48,,,
341387,control_change,11,0,4,,,,,,,,,3,11,48,,,
341392,control_change,11,0,5,,,,,,,,,4,11,50,,,
341393,control_change,11,0,6,,,,,,,,,5,11,50,,,
341393,control_change,11,0,2,,,,,,,,,1,11,45,,,
341394,control_change,11,0,3,,,,,,,,,2,11,45,,,
341398,control_change,11,0,4,,,,,,,,,3,11,45,,,
341400,set_tempo,120,1,0,,,,,,263158,,,,,,,,
341403,control_change,11,0,5,,,,,,,,,4,11,47,,,
341404,control_change,11,0,6,,,,,,,,,5,11,47,,,
341404,control_change,11,0,2,,,,,,,,,1,11,42,,,
341405,control_change,11,0,3,,,,,,,,,2,11,42,,,
341409,control_change,11,0,4,,,,,,,,,3,11,42,,,
341520,set_tempo,120,1,0,,,,,,307692,,,,,,,,
341609,note_on,205,0,2,,,,,,,,,1,,,,76,0
341610,note_on,205,0,3,,,,,,,,,2,,,,76,0
341614,note_on,0,0,4,,,,,,,,,3,,,,52,0
341614,note_on,205,0,4,,,,,,,,,3,,,,59,0
341640,note_on,1860,0,11,,,,,,,,,10,,,,79,127
341640,set_tempo,120,1,0,,,,,,254237,,,,,,,,
341640,control_change,0,0,11,,,,,,,,,10,11,41,,,
341643,note_on,1860,0,12,,,,,,,,,11,,,,71,112
341643,note_on,240,0,5,,,,,,,,,4,,,,64,0
341643,control_change,0,0,12,,,,,,,,,11,11,41,,,
341644,note_on,240,0,6,,,,,,,,,5,,,,52,0
341670,note_on,30,0,11,,,,,,,,,10,,,,79,0
341700,note_on,30,0,11,,,,,,,,,10,,,,79,112
341703,note_on,60,0,12,,,,,,,,,11,,,,71,0
341730,note_on,30,0,11,,,,,,,,,10,,,,79,0
341760,note_on,30,0,11,,,,,,,,,10,,,,81,112
341760,set_tempo,120,1,0,,,,,,263158,,,,,,,,
341763,note_on,60,0,12,,,,,,,,,11,,,,71,112
341790,note_on,30,0,11,,,,,,,,,10,,,,81,0
341820,note_on,30,0,11,,,,,,,,,10,,,,79,112
341823,note_on,60,0,12,,,,,,,,,11,,,,71,0
341850,note_on,30,0,11,,,,,,,,,10,,,,79,0
341880,note_on,30,0,11,,,,,,,,,10,,,,81,112
341880,set_tempo,120,1,0,,,,,,288462,,,,,,,,
341883,note_on,60,0,12,,,,,,,,,11,,,,71,112
341910,note_on,30,0,11,,,,,,,,,10,,,,81,0
341940,note_on,30,0,11,,,,,,,,,10,,,,79,112
341943,note_on,60,0,12,,,,,,,,,11,,,,71,0
341970,note_on,30,0,11,,,,,,,,,10,,,,79,0
342000,set_tempo,120,1,0,,,,,,254237,,,,,,,,
342000,note_on,30,0,11,,,,,,,,,10,,,,76,112
342003,note_on,60,0,12,,,,,,,,,11,,,,72,127
342033,note_on,30,0,12,,,,,,,,,11,,,,72,0
342060,note_on,60,0,11,,,,,,,,,10,,,,76,0
342063,note_on,30,0,12,,,,,,,,,11,,,,72,112
342093,note_on,30,0,12,,,,,,,,,11,,,,72,0
342120,set_tempo,120,1,0,,,,,,263158,,,,,,,,
342120,note_on,60,0,11,,,,,,,,,10,,,,76,112
342123,note_on,30,0,12,,,,,,,,,11,,,,74,112
342153,note_on,30,0,12,,,,,,,,,11,,,,74,0
342180,note_on,60,0,11,,,,,,,,,10,,,,76,0
342183,note_on,30,0,12,,,,,,,,,11,,,,72,112
342213,note_on,30,0,12,,,,,,,,,11,,,,72,0
342240,note_on,60,0,11,,,,,,,,,10,,,,76,112
342240,set_tempo,120,1,0,,,,,,288462,,,,,,,,
342243,note_on,30,0,12,,,,,,,,,11,,,,74,112
342273,note_on,30,0,12,,,,,,,,,11,,,,74,0
342300,note_on,60,0,11,,,,,,,,,10,,,,76,0
342303,note_on,30,0,12,,,,,,,,,11,,,,72,112
342333,note_on,30,0,12,,,,,,,,,11,,,,72,0
342360,note_on,60,0,11,,,,,,,,,10,,,,74,112
342360,set_tempo,120,1,0,,,,,,254237,,,,,,,,
342363,note_on,30,0,12,,,,,,,,,11,,,,70,112
342367,program_change,2579,0,13,,,,,,,,48,12,,,,,
342368,control_change,0,0,13,,,,,,,,,12,11,41,,,
342368,note_on,1,0,13,,,,,,,,,12,,,,67,127
342398,note_on,30,0,13,,,,,,,,,12,,,,67,0
342420,note_on,60,0,11,,,,,,,,,10,,,,74,0
342423,note_on,60,0,12,,,,,,,,,11,,,,70,0
342428,note_on,30,0,13,,,,,,,,,12,,,,67,112
342458,note_on,30,0,13,,,,,,,,,12,,,,67,0
342480,note_on,60,0,11,,,,,,,,,10,,,,74,112
342480,set_tempo,120,1,0,,,,,,263158,,,,,,,,
342483,note_on,60,0,12,,,,,,,,,11,,,,70,112
342488,note_on,30,0,13,,,,,,,,,12,,,,69,112
342518,note_on,30,0,13,,,,,,,,,12,,,,69,0
342540,note_on,60,0,11,,,,,,,,,10,,,,74,0
342543,note_on,60,0,12,,,,,,,,,11,,,,70,0
342548,note_on,30,0,13,,,,,,,,,12,,,,67,112
342578,note_on,30,0,13,,,,,,,,,12,,,,67,0
342600,set_tempo,120,1,0,,,,,,288462,,,,,,,,
342600,note_on,60,0,11,,,,,,,,,10,,,,74,112
342603,note_on,60,0,12,,,,,,,,,11,,,,70,112
342608,note_on,30,0,13,,,,,,,,,12,,,,69,112
342638,note_on,30,0,13,,,,,,,,,12,,,,69,0
342660,note_on,60,0,11,,,,,,,,,10,,,,74,0
342663,note_on,60,0,12,,,,,,,,,11,,,,70,0
342668,note_on,30,0,13,,,,,,,,,12,,,,67,112
342698,note_on,30,0,13,,,,,,,,,12,,,,67,0
342720,note_on,60,0,11,,,,,,,,,10,,,,73,112
342720,set_tempo,120,1,0,,,,,,254237,,,,,,,,
342723,note_on,60,0,12,,,,,,,,,11,,,,69,112
342728,note_on,30,0,13,,,,,,,,,12,,,,64,112
342732,control_change,2940,0,14,,,,,,,,,13,11,41,,,
342732,note_on,0,0,14,,,,,,,,,13,,,,57,127
342762,note_on,30,0,14,,,,,,,,,13,,,,57,0
342788,note_on,60,0,13,,,,,,,,,12,,,,64,0
342792,note_on,30,0,14,,,,,,,,,13,,,,57,112
342822,note_on,30,0,14,,,,,,,,,13,,,,57,0
342840,set_tempo,120,1,0,,,,,,263158,,,,,,,,
342848,note_on,60,0,13,,,,,,,,,12,,,,64,112
342852,note_on,30,0,14,,,,,,,,,13,,,,59,112
342882,note_on,30,0,14,,,,,,,,,13,,,,59,0
342908,note_on,60,0,13,,,,,,,,,12,,,,64,0
342912,note_on,30,0,14,,,,,,,,,13,,,,57,112
342942,note_on,30,0,14,,,,,,,,,13,,,,57,0
342960,set_tempo,120,1,0,,,,,,288462,,,,,,,,
342968,note_on,60,0,13,,,,,,,,,12,,,,64,112
342972,note_on,30,0,14,,,,,,,,,13,,,,59,112
343002,note_on,30,0,14,,,,,,,,,13,,,,59,0
343028,note_on,60,0,13,,,,,,,,,12,,,,64,0
343032,note_on,30,0,14,,,,,,,,,13,,,,57,112
343062,note_on,30,0,14,,,,,,,,,13,,,,57,0
343080,note_on,360,0,11,,,,,,,,,10,,,,73,0
343080,note_on,0,0,11,,,,,,,,,10,,,,74,112
343080,set_tempo,120,1,0,,,,,,254237,,,,,,,,
343083,note_on,360,0,12,,,,,,,,,11,,,,69,0
343083,note_on,0,0,12,,,,,,,,,11,,,,65,112
343088,note_on,60,0,13,,,,,,,,,12,,,,62,112
343092,note_on,30,0,14,,,,,,,,,13,,,,50,127
343094,control_change,3300,0,15,,,,,,,,,14,11,41,,,
343094,note_on,0,0,15,,,,,,,,,14,,,,38,127
343122,note_on,30,0,14,,,,,,,,,13,,,,50,0
343124,note_on,30,0,15,,,,,,,,,14,,,,38,0
343140,note_on,60,0,11,,,,,,,,,10,,,,74,0
343152,note_on,30,0,14,,,,,,,,,13,,,,50,112
343154,note_on,30,0,15,,,,,,,,,14,,,,38,112
343182,note_on,30,0,14,,,,,,,,,13,,,,50,0
343184,note_on,30,0,15,,,,,,,,,14,,,,38,0
343200,set_tempo,120,1,0,,,,,,263158,,,,,,,,
343200,note_on,60,0,11,,,,,,,,,10,,,,74,112
343212,note_on,30,0,14,,,,,,,,,13,,,,52,112
343214,note_on,30,0,15,,,,,,,,,14,,,,40,112
343242,note_on,30,0,14,,,,,,,,,13,,,,52,0
343244,note_on,30,0,15,,,,,,,,,14,,,,40,0
343260,note_on,60,0,11,,,,,,,,,10,,,,74,0
343272,note_on,30,0,14,,,,,,,,,13,,,,50,112
343274,note_on,30,0,15,,,,,,,,,14,,,,38,112
343302,note_on,30,0,14,,,,,,,,,13,,,,50,0
343304,note_on,30,0,15,,,,,,,,,14,,,,38,0
343320,set_tempo,120,1,0,,,,,,288462,,,,,,,,
343320,note_on,60,0,11,,,,,,,,,10,,,,74,112
343332,note_on,30,0,14,,,,,,,,,13,,,,52,112
343334,note_on,30,0,15,,,,,,,,,14,,,,40,112
343362,note_on,30,0,14,,,,,,,,,13,,,,52,0
343364,note_on,30,0,15,,,,,,,,,14,,,,40,0
343380,note_on,60,0,11,,,,,,,,,10,,,,74,0
343392,note_on,30,0,14,,,,,,,,,13,,,,50,112
343394,note_on,30,0,15,,,,,,,,,14,,,,38,112
343422,note_on,30,0,14,,,,,,,,,13,,,,50,0
343424,note_on,30,0,15,,,,,,,,,14,,,,38,0
343440,set_tempo,120,1,0,,,,,,254237,,,,,,,,
343440,note_on,60,0,11,,,,,,,,,10,,,,76,112
343443,note_on,0,0,12,,,,,,,,,11,,,,68,127
343443,note_on,360,0,12,,,,,,,,,11,,,,65,0
343448,note_on,0,0,13,,,,,,,,,12,,,,62,112
343448,note_on,360,0,13,,,,,,,,,12,,,,62,0
343452,note_on,30,0,14,,,,,,,,,13,,,,46,112
343454,note_on,30,0,15,,,,,,,,,14,,,,34,112
343473,note_on,30,0,12,,,,,,,,,11,,,,68,0
343500,note_on,60,0,11,,,,,,,,,10,,,,76,0
343503,note_on,30,0,12,,,,,,,,,11,,,,68,112
343508,note_on,60,0,13,,,,,,,,,12,,,,62,0
343512,note_on,60,0,14,,,,,,,,,13,,,,46,0
343514,note_on,60,0,15,,,,,,,,,14,,,,34,0
343533,note_on,30,0,12,,,,,,,,,11,,,,68,0
343560,note_on,60,0,11,,,,,,,,,10,,,,76,112
343560,set_tempo,120,1,0,,,,,,263158,,,,,,,,
343563,note_on,30,0,12,,,,,,,,,11,,,,69,112
343568,note_on,60,0,13,,,,,,,,,12,,,,62,112
343572,note_on,60,0,14,,,,,,,,,13,,,,46,112
343574,note_on,60,0,15,,,,,,,,,14,,,,34,112
343593,note_on,30,0,12,,,,,,,,,11,,,,69,0
343620,note_on,60,0,11,,,,,,,,,10,,,,76,0
343623,note_on,30,0,12,,,,,,,,,11,,,,68,112
343628,note_on,60,0,13,,,,,,,,,12,,,,62,0
343632,note_on,60,0,14,,,,,,,,,13,,,,46,0
343634,note_on,60,0,15,,,,,,,,,14,,,,34,0
343653,note_on,30,0,12,,,,,,,,,11,,,,68,0
343680,note_on,60,0,11,,,,,,,,,10,,,,76,112
343680,set_tempo,120,1,0,,,,,,288462,,,,,,,,
343683,note_on,30,0,12,,,,,,,,,11,,,,69,112
343688,note_on,60,0,13,,,,,,,,,12,,,,62,112
343692,note_on,60,0,14,,,,,,,,,13,,,,46,112
343694,note_on,60,0,15,,,,,,,,,14,,,,34,112
343713,note_on,30,0,12,,,,,,,,,11,,,,69,0
343740,note_on,60,0,11,,,,,,,,,10,,,,76,0
343743,note_on,30,0,12,,,,,,,,,11,,,,68,112
343748,note_on,60,0,13,,,,,,,,,12,,,,62,0
343752,note_on,60,0,14,,,,,,,,,13,,,,46,0
343754,note_on,60,0,15,,,,,,,,,14,,,,34,0
343773,note_on,30,0,12,,,,,,,,,11,,,,68,0
343800,set_tempo,120,1,0,,,,,,254237,,,,,,,,
343800,note_on,60,0,11,,,,,,,,,10,,,,81,127
343803,note_on,30,0,12,,,,,,,,,11,,,,67,112
343808,note_on,60,0,13,,,,,,,,,12,,,,61,127
343812,note_on,60,0,14,,,,,,,,,13,,,,45,112
343814,note_on,60,0,15,,,,,,,,,14,,,,33,112
343830,note_on,30,0,11,,,,,,,,,10,,,,81,0
343838,note_on,30,0,13,,,,,,,,,12,,,,61,0
343860,note_on,30,0,11,,,,,,,,,10,,,,81,112
343863,note_on,60,0,12,,,,,,,,,11,,,,67,0
343868,note_on,30,0,13,,,,,,,,,12,,,,62,112
343872,note_on,60,0,14,,,,,,,,,13,,,,45,0
343874,note_on,60,0,15,,,,,,,,,14,,,,33,0
343890,note_on,30,0,11,,,,,,,,,10,,,,81,0
343898,note_on,30,0,13,,,,,,,,,12,,,,62,0
343920,note_on,30,0,11,,,,,,,,,10,,,,82,112
343920,set_tempo,120,1,0,,,,,,263158,,,,,,,,
343923,note_on,60,0,12,,,,,,,,,11,,,,67,112
343928,note_on,30,0,13,,,,,,,,,12,,,,61,112
343932,note_on,60,0,14,,,,,,,,,13,,,,45,112
343934,note_on,60,0,15,,,,,,,,,14,,,,33,112
343950,note_on,30,0,11,,,,,,,,,10,,,,82,0
343958,note_on,30,0,13,,,,,,,,,12,,,,61,0
343980,note_on,30,0,11,,,,,,,,,10,,,,81,112
343983,note_on,60,0,12,,,,,,,,,11,,,,67,0
343988,note_on,30,0,13,,,,,,,,,12,,,,62,112
343992,note_on,60,0,14,,,,,,,,,13,,,,45,0
343994,note_on,60,0,15,,,,,,,,,14,,,,33,0
344010,note_on,30,0,11,,,,,,,,,10,,,,81,0
344018,note_on,30,0,13,,,,,,,,,12,,,,62,0
344040,note_on,30,0,11,,,,,,,,,10,,,,82,112
344040,set_tempo,120,1,0,,,,,,288462,,,,,,,,
344043,note_on,60,0,12,,,,,,,,,11,,,,67,112
344048,note_on,30,0,13,,,,,,,,,12,,,,61,112
344052,note_on,60,0,14,,,,,,,,,13,,,,45,112
344054,note_on,60,0,15,,,,,,,,,14,,,,33,112
344070,note_on,30,0,11,,,,,,,,,10,,,,82,0
344078,note_on,30,0,13,,,,,,,,,12,,,,61,0
344100,note_on,30,0,11,,,,,,,,,10,,,,81,112
344103,note_on,60,0,12,,,,,,,,,11,,,,67,0
344108,note_on,30,0,13,,,,,,,,,12,,,,62,112
344112,note_on,60,0,14,,,,,,,,,13,,,,45,0
344114,note_on,60,0,15,,,,,,,,,14,,,,33,0
344130,note_on,30,0,11,,,,,,,,,10,,,,81,0
344138,note_on,30,0,13,,,,,,,,,12,,,,62,0
344160,note_on,30,0,11,,,,,,,,,10,,,,86,112
344160,set_tempo,120,1,0,,,,,,254237,,,,,,,,
344163,note_on,60,0,12,,,,,,,,,11,,,,65,112
344168,note_on,30,0,13,,,,,,,,,12,,,,62,112
344172,note_on,60,0,14,,,,,,,,,13,,,,38,112
344174,note_on,60,0,15,,,,,,,,,14,,,,26,112
344220,note_on,60,0,11,,,,,,,,,10,,,,86,0
344223,note_on,60,0,12,,,,,,,,,11,,,,65,0
344228,note_on,60,0,13,,,,,,,,,12,,,,62,0
344232,note_on,60,0,14,,,,,,,,,13,,,,38,0
344234,note_on,60,0,15,,,,,,,,,14,,,,26,0
344280,set_tempo,120,1,0,,,,,,263158,,,,,,,,
344280,note_on,60,0,11,,,,,,,,,10,,,,86,112
344340,note_on,60,0,11,,,,,,,,,10,,,,86,0
344400,set_tempo,120,1,0,,,,,,307692,,,,,,,,
344400,note_on,60,0,11,,,,,,,,,10,,,,86,112
344460,note_on,60,0,11,,,,,,,,,10,,,,86,0
344520,set_tempo,120,1,0,,,,,,254237,,,,,,,,
344521,note_on,0,0,1,,,,,,,,,0,,,,79,116
344521,control_change,4680,0,1,,,,,,,,,0,11,42,,,
344523,note_on,0,0,5,,,,,,,,,4,,,,65,100
344523,control_change,2880,0,5,,,,,,,,,4,11,47,,,
344524,control_change,2915,0,2,,,,,,,,,1,11,42,,,
344524,note_on,0,0,2,,,,,,,,,1,,,,65,100
344524,note_on,0,0,2,,,,,,,,,1,,,,67,115
344524,note_on,2880,0,6,,,,,,,,,5,,,,62,100
344524,control_change,0,0,6,,,,,,,,,5,11,47,,,
344525,note_on,2915,0,3,,,,,,,,,2,,,,67,116
344525,control_change,0,0,3,,,,,,,,,2,11,42,,,
344529,control_change,2915,0,4,,,,,,,,,3,11,42,,,
344529,note_on,0,0,4,,,,,,,,,3,,,,59,100
344529,note_on,0,0,4,,,,,,,,,3,,,,55,100
344551,note_on,30,0,1,,,,,,,,,0,,,,79,0
344554,note_on,30,0,2,,,,,,,,,1,,,,67,0
344555,note_on,30,0,3,,,,,,,,,2,,,,67,0
344581,note_on,30,0,1,,,,,,,,,0,,,,79,101
344584,note_on,30,0,2,,,,,,,,,1,,,,67,100
344585,note_on,30,0,3,,,,,,,,,2,,,,67,101
344611,note_on,30,0,1,,,,,,,,,0,,,,79,0
344614,note_on,30,0,2,,,,,,,,,1,,,,67,0
344615,note_on,30,0,3,,,,,,,,,2,,,,67,0
344640,set_tempo,120,1,0,,,,,,263158,,,,,,,,
344641,note_on,30,0,1,,,,,,,,,0,,,,81,101
344644,note_on,30,0,2,,,,,,,,,1,,,,69,100
344645,note_on,30,0,3,,,,,,,,,2,,,,69,101
344701,note_on,0,0,1,,,,,,,,,0,,,,79,101
344701,note_on,60,0,1,,,,,,,,,0,,,,81,0
344704,note_on,60,0,2,,,,,,,,,1,,,,69,0
344704,note_on,0,0,2,,,,,,,,,1,,,,67,100
344705,note_on,0,0,3,,,,,,,,,2,,,,67,101
344705,note_on,60,0,3,,,,,,,,,2,,,,69,0
344760,set_tempo,120,1,0,,,,,,288462,,,,,,,,
344761,note_on,60,0,1,,,,,,,,,0,,,,79,0
344761,note_on,0,0,1,,,,,,,,,0,,,,81,101
344764,note_on,0,0,2,,,,,,,,,1,,,,69,100
344764,note_on,60,0,2,,,,,,,,,1,,,,67,0
344765,note_on,60,0,3,,,,,,,,,2,,,,67,0
344765,note_on,0,0,3,,,,,,,,,2,,,,69,101
344794,note_on,30,0,2,,,,,,,,,1,,,,65,0
344821,note_on,60,0,1,,,,,,,,,0,,,,81,0
344821,note_on,0,0,1,,,,,,,,,0,,,,79,101
344824,note_on,30,0,2,,,,,,,,,1,,,,69,0
344824,note_on,0,0,2,,,,,,,,,1,,,,67,100
344825,note_on,0,0,3,,,,,,,,,2,,,,67,101
344825,note_on,60,0,3,,,,,,,,,2,,,,69,0
344880,set_tempo,120,1,0,,,,,,258621,,,,,,,,
344881,note_on,0,0,1,,,,,,,,,0,,,,84,101
344881,note_on,60,0,1,,,,,,,,,0,,,,79,0
344883,note_on,360,0,5,,,,,,,,,4,,,,65,0
344883,note_on,0,0,5,,,,,,,,,4,,,,64,100
344884,note_on,0,0,2,,,,,,,,,1,,,,72,100
344884,note_on,360,0,6,,,,,,,,,5,,,,62,0
344884,note_on,0,0,6,,,,,,,,,5,,,,60,100
344884,note_on,0,0,2,,,,,,,,,1,,,,64,100
344884,note_on,60,0,2,,,,,,,,,1,,,,67,0
344885,note_on,0,0,3,,,,,,,,,2,,,,72,101
344885,note_on,60,0,3,,,,,,,,,2,,,,67,0
344889,note_on,360,0,4,,,,,,,,,3,,,,59,0
344889,note_on,0,0,4,,,,,,,,,3,,,,57,100
344889,note_on,0,0,4,,,,,,,,,3,,,,55,0
344889,note_on,0,0,4,,,,,,,,,3,,,,60,100
344941,note_on,60,0,1,,,,,,,,,0,,,,84,0
344943,note_on,60,0,5,,,,,,,,,4,,,,64,0
344944,note_on,0,0,2,,,,,,,,,1,,,,64,0
344944,note_on,60,0,2,,,,,,,,,1,,,,72,0
344944,note_on,60,0,6,,,,,,,,,5,,,,60,0
344945,note_on,60,0,3,,,,,,,,,2,,,,72,0
344949,note_on,0,0,4,,,,,,,,,3,,,,60,0
344949,note_on,60,0,4,,,,,,,,,3,,,,57,0
345001,note_on,60,0,1,,,,,,,,,0,,,,84,101
345003,note_on,60,0,5,,,,,,,,,4,,,,64,100
345004,note_on,60,0,2,,,,,,,,,1,,,,72,100
345004,note_on,0,0,2,,,,,,,,,1,,,,64,100
345004,note_on,60,0,6,,,,,,,,,5,,,,60,100
345005,note_on,60,0,3,,,,,,,,,2,,,,72,101
345009,note_on,60,0,4,,,,,,,,,3,,,,57,100
345061,note_on,60,0,1,,,,,,,,,0,,,,84,0
345063,note_on,60,0,5,,,,,,,,,4,,,,64,0
345064,note_on,60,0,2,,,,,,,,,1,,,,64,0
345064,note_on,60,0,6,,,,,,,,,5,,,,60,0
345064,note_on,0,0,2,,,,,,,,,1,,,,72,0
345065,note_on,60,0,3,,,,,,,,,2,,,,72,0
345069,note_on,60,0,4,,,,,,,,,3,,,,57,0
345120,set_tempo,240,1,0,,,,,,288462,,,,,,,,
345121,note_on,60,0,1,,,,,,,,,0,,,,84,101
345123,note_on,60,0,5,,,,,,,,,4,,,,64,100
345124,note_on,60,0,6,,,,,,,,,5,,,,60,100
345124,note_on,0,0,2,,,,,,,,,1,,,,72,100
345124,note_on,60,0,2,,,,,,,,,1,,,,64,100
345125,note_on,60,0,3,,,,,,,,,2,,,,72,101
345129,note_on,60,0,4,,,,,,,,,3,,,,57,100
345181,note_on,60,0,1,,,,,,,,,0,,,,84,0
345183,note_on,60,0,5,,,,,,,,,4,,,,64,0
345184,note_on,0,0,2,,,,,,,,,1,,,,64,0
345184,note_on,60,0,2,,,,,,,,,1,,,,72,0
345184,note_on,60,0,6,,,,,,,,,5,,,,60,0
345185,note_on,60,0,3,,,,,,,,,2,,,,72,0
345189,note_on,60,0,4,,,,,,,,,3,,,,57,0
345240,set_tempo,120,1,0,,,,,,254237,,,,,,,,
345241,note_on,60,0,1,,,,,,,,,0,,,,86,101
345243,note_on,60,0,5,,,,,,,,,4,,,,62,100
345244,note_on,0,0,2,,,,,,,,,1,,,,69,100
345244,note_on,60,0,6,,,,,,,,,5,,,,57,100
345244,note_on,60,0,2,,,,,,,,,1,,,,74,100
345245,note_on,0,0,3,,,,,,,,,2,,,,74,101
345245,note_on,60,0,3,,,,,,,,,2,,,,69,101
345249,note_on,60,0,4,,,,,,,,,3,,,,53,100
345301,note_on,60,0,1,,,,,,,,,0,,,,86,0
345301,note_on,0,0,1,,,,,,,,,0,,,,88,101
345304,note_on,60,0,2,,,,,,,,,1,,,,74,0
345304,note_on,0,0,2,,,,,,,,,1,,,,76,100
345305,note_on,60,0,3,,,,,,,,,2,,,,74,0
345305,note_on,0,0,3,,,,,,,,,2,,,,76,101
345360,set_tempo,120,1,0,,,,,,263158,,,,,,,,
345361,note_on,60,0,1,,,,,,,,,0,,,,88,0
345361,note_on,0,0,1,,,,,,,,,0,,,,89,101
345364,note_on,0,0,2,,,,,,,,,1,,,,77,100
345364,note_on,60,0,2,,,,,,,,,1,,,,76,0
345365,note_on,60,0,3,,,,,,,,,2,,,,76,0
345365,note_on,0,0,3,,,,,,,,,2,,,,77,101
345421,note_on,0,0,1,,,,,,,,,0,,,,91,101
345421,note_on,60,0,1,,,,,,,,,0,,,,89,0
345424,note_on,60,0,2,,,,,,,,,1,,,,77,0
345424,note_on,0,0,2,,,,,,,,,1,,,,79,100
345425,note_on,60,0,3,,,,,,,,,2,,,,77,0
345425,note_on,0,0,3,,,,,,,,,2,,,,79,101
345480,set_tempo,120,1,0,,,,,,315789,,,,,,,,
345481,note_on,60,0,1,,,,,,,,,0,,,,91,0
345481,note_on,0,0,1,,,,,,,,,0,,,,93,101
345483,note_on,240,0,5,,,,,,,,,4,,,,62,0
345483,note_on,0,0,5,,,,,,,,,4,,,,65,100
345484,note_on,60,0,2,,,,,,,,,1,,,,79,0
345484,note_on,0,0,2,,,,,,,,,1,,,,69,0
345484,note_on,0,0,2,,,,,,,,,1,,,,69,100
345484,note_on,0,0,2,,,,,,,,,1,,,,81,100
345484,note_on,0,0,6,,,,,,,,,5,,,,62,100
345484,note_on,240,0,6,,,,,,,,,5,,,,57,0
345485,note_on,0,0,3,,,,,,,,,2,,,,69,101
345485,note_on,60,0,3,,,,,,,,,2,,,,79,0
345485,note_on,0,0,3,,,,,,,,,2,,,,69,0
345485,note_on,0,0,3,,,,,,,,,2,,,,81,101
345489,note_on,240,0,4,,,,,,,,,3,,,,53,0
345489,note_on,0,0,4,,,,,,,,,3,,,,50,100
345541,note_on,60,0,1,,,,,,,,,0,,,,93,0
345544,note_on,60,0,2,,,,,,,,,1,,,,81,0
345545,note_on,60,0,3,,,,,,,,,2,,,,81,0
345600,set_tempo,120,1,0,,,,,,254237,,,,,,,,
345601,control_change,60,0,1,,,,,,,,,0,11,47,,,
345601,note_on,0,0,1,,,,,,,,,0,,,,88,101
345603,note_on,120,0,5,,,,,,,,,4,,,,65,0
345603,control_change,0,0,5,,,,,,,,,4,11,52,,,
345603,note_on,0,0,5,,,,,,,,,4,,,,64,100
345604,note_on,0,0,2,,,,,,,,,1,,,,76,100
345604,note_on,120,0,6,,,,,,,,,5,,,,62,0
345604,control_change,0,0,6,,,,,,,,,5,11,52,,,
345604,note_on,0,0,6,,,,,,,,,5,,,,60,100
345604,note_on,60,0,2,,,,,,,,,1,,,,69,0
345604,control_change,0,0,2,,,,,,,,,1,11,47,,,
345605,note_on,60,0,3,,,,,,,,,2,,,,69,0
345605,control_change,4,0,1,,,,,,,,,0,11,50,,,
345605,note_on,0,0,3,,,,,,,,,2,,,,69,101
345605,note_on,0,0,3,,,,,,,,,2,,,,76,101
345605,control_change,0,0,3,,,,,,,,,2,11,47,,,
345607,control_change,4,0,5,,,,,,,,,4,11,55,,,
345608,control_change,4,0,2,,,,,,,,,1,11,50,,,
345608,control_change,4,0,6,,,,,,,,,5,11,55,,,
345609,control_change,4,0,3,,,,,,,,,2,11,50,,,
345609,note_on,120,0,4,,,,,,,,,3,,,,50,0
345609,control_change,0,0,4,,,,,,,,,3,11,47,,,
345609,note_on,0,0,4,,,,,,,,,3,,,,57,100
345612,control_change,5,0,5,,,,,,,,,4,11,58,,,
345613,control_change,4,0,4,,,,,,,,,3,11,50,,,
345613,control_change,5,0,6,,,,,,,,,5,11,58,,,
345614,control_change,9,0,1,,,,,,,,,0,11,55,,,
345616,control_change,4,0,5,,,,,,,,,4,11,61,,,
345617,control_change,9,0,2,,,,,,,,,1,11,55,,,
345617,control_change,4,0,6,,,,,,,,,5,11,61,,,
345618,control_change,9,0,3,,,,,,,,,2,11,55,,,
345618,control_change,5,0,4,,,,,,,,,3,11,53,,,
345621,control_change,5,0,5,,,,,,,,,4,11,64,,,
345622,control_change,5,0,6,,,,,,,,,5,11,64,,,
345622,control_change,4,0,4,,,,,,,,,3,11,56,,,
345623,control_change,9,0,1,,,,,,,,,0,11,59,,,
345625,control_change,4,0,5,,,,,,,,,4,11,67,,,
345626,control_change,4,0,6,,,,,,,,,5,11,67,,,
345626,control_change,9,0,2,,,,,,,,,1,11,59,,,
345627,control_change,5,0,4,,,,,,,,,3,11,59,,,
345627,control_change,9,0,3,,,,,,,,,2,11,59,,,
345630,control_change,5,0,5,,,,,,,,,4,11,70,,,
345631,control_change,4,0,4,,,,,,,,,3,11,62,,,
345631,control_change,5,0,6,,,,,,,,,5,11,70,,,
345636,control_change,5,0,4,,,,,,,,,3,11,65,,,
345645,control_change,22,0,1,,,,,,,,,0,11,60,,,
345647,control_change,17,0,5,,,,,,,,,4,11,68,,,
345648,control_change,22,0,2,,,,,,,,,1,11,60,,,
345648,control_change,17,0,6,,,,,,,,,5,11,68,,,
345649,control_change,22,0,3,,,,,,,,,2,11,60,,,
345653,control_change,17,0,4,,,,,,,,,3,11,63,,,
345658,control_change,11,0,5,,,,,,,,,4,11,65,,,
345659,control_change,11,0,6,,,,,,,,,5,11,65,,,
345664,control_change,11,0,4,,,,,,,,,3,11,60,,,
345667,control_change,22,0,1,,,,,,,,,0,11,55,,,
345669,control_change,11,0,5,,,,,,,,,4,11,62,,,
345670,control_change,22,0,2,,,,,,,,,1,11,55,,,
345670,control_change,11,0,6,,,,,,,,,5,11,62,,,
345671,control_change,22,0,3,,,,,,,,,2,11,55,,,
345675,control_change,11,0,4,,,,,,,,,3,11,57,,,
345679,control_change,10,0,5,,,,,,,,,4,11,59,,,
345680,control_change,10,0,6,,,,,,,,,5,11,59,,,
345685,control_change,10,0,4,,,,,,,,,3,11,54,,,
345688,control_change,21,0,1,,,,,,,,,0,11,51,,,
345690,control_change,11,0,5,,,,,,,,,4,11,56,,,
345691,control_change,21,0,2,,,,,,,,,1,11,51,,,
345691,control_change,11,0,6,,,,,,,,,5,11,56,,,
345692,control_change,21,0,3,,,,,,,,,2,11,51,,,
345696,control_change,11,0,4,,,,,,,,,3,11,51,,,
345699,control_change,11,0,1,,,,,,,,,0,11,48,,,
345701,control_change,11,0,5,,,,,,,,,4,11,53,,,
345702,control_change,11,0,2,,,,,,,,,1,11,48,,,
345702,control_change,11,0,6,,,,,,,,,5,11,53,,,
345703,control_change,11,0,3,,,,,,,,,2,11,48,,,
345707,control_change,11,0,4,,,,,,,,,3,11,48,,,
345710,control_change,11,0,1,,,,,,,,,0,11,45,,,
345712,control_change,11,0,5,,,,,,,,,4,11,50,,,
345713,control_change,11,0,2,,,,,,,,,1,11,45,,,
345713,control_change,11,0,6,,,,,,,,,5,11,50,,,
345714,control_change,11,0,3,,,,,,,,,2,11,45,,,
345718,control_change,11,0,4,,,,,,,,,3,11,45,,,
345720,set_tempo,120,1,0,,,,,,263158,,,,,,,,
345721,control_change,11,0,1,,,,,,,,,0,11,42,,,
345723,control_change,11,0,5,,,,,,,,,4,11,47,,,
345724,control_change,11,0,6,,,,,,,,,5,11,47,,,
345724,control_change,11,0,2,,,,,,,,,1,11,42,,,
345725,control_change,11,0,3,,,,,,,,,2,11,42,,,
345729,control_change,11,0,4,,,,,,,,,3,11,42,,,
345840,set_tempo,120,1,0,,,,,,307692,,,,,,,,
345936,note_on,215,0,1,,,,,,,,,0,,,,88,0
345939,note_on,215,0,2,,,,,,,,,1,,,,76,0
345940,note_on,0,0,3,,,,,,,,,2,,,,69,0
345940,note_on,215,0,3,,,,,,,,,2,,,,76,0
345944,note_on,215,0,4,,,,,,,,,3,,,,57,0
345960,note_on,1500,0,11,,,,,,,,,10,,,,77,127
345960,set_tempo,120,1,0,,,,,,254237,,,,,,,,
345963,note_on,1740,0,12,,,,,,,,,11,,,,69,112
345963,note_on,240,0,5,,,,,,,,,4,,,,64,0
345964,note_on,240,0,6,,,,,,,,,5,,,,60,0
345990,note_on,30,0,11,,,,,,,,,10,,,,77,0
346020,note_on,30,0,11,,,,,,,,,10,,,,77,112
346023,note_on,60,0,12,,,,,,,,,11,,,,69,0
346050,note_on,30,0,11,,,,,,,,,10,,,,77,0
346080,note_on,30,0,11,,,,,,,,,10,,,,79,112
346080,set_tempo,120,1,0,,,,,,263158,,,,,,,,
346083,note_on,60,0,12,,,,,,,,,11,,,,69,112
346110,note_on,30,0,11,,,,,,,,,10,,,,79,0
346140,note_on,30,0,11,,,,,,,,,10,,,,77,112
346143,note_on,60,0,12,,,,,,,,,11,,,,69,0
346170,note_on,30,0,11,,,,,,,,,10,,,,77,0
346200,set_tempo,120,1,0,,,,,,288462,,,,,,,,
346200,note_on,30,0,11,,,,,,,,,10,,,,79,112
346203,note_on,60,0,12,,,,,,,,,11,,,,69,112
346230,note_on,30,0,11,,,,,,,,,10,,,,79,0
346260,note_on,30,0,11,,,,,,,,,10,,,,77,112
346263,note_on,60,0,12,,,,,,,,,11,,,,69,0
346290,note_on,30,0,11,,,,,,,,,10,,,,77,0
346320,set_tempo,120,1,0,,,,,,254237,,,,,,,,
346320,note_on,30,0,11,,,,,,,,,10,,,,74,112
346323,note_on,60,0,12,,,,,,,,,11,,,,70,127
346353,note_on,30,0,12,,,,,,,,,11,,,,70,0
346380,note_on,60,0,11,,,,,,,,,10,,,,74,0
346383,note_on,30,0,12,,,,,,,,,11,,,,70,112
346413,note_on,30,0,12,,,,,,,,,11,,,,70,0
346440,set_tempo,120,1,0,,,,,,263158,,,,,,,,
346440,note_on,60,0,11,,,,,,,,,10,,,,74,112
346443,note_on,30,0,12,,,,,,,,,11,,,,72,112
346473,note_on,30,0,12,,,,,,,,,11,,,,72,0
346500,note_on,60,0,11,,,,,,,,,10,,,,74,0
346503,note_on,30,0,12,,,,,,,,,11,,,,70,112
346533,note_on,30,0,12,,,,,,,,,11,,,,70,0
346560,set_tempo,120,1,0,,,,,,288462,,,,,,,,
346560,note_on,60,0,11,,,,,,,,,10,,,,74,112
346563,note_on,30,0,12,,,,,,,,,11,,,,72,112
346593,note_on,30,0,12,,,,,,,,,11,,,,72,0
346620,note_on,60,0,11,,,,,,,,,10,,,,74,0
346623,note_on,30,0,12,,,,,,,,,11,,,,70,112
346653,note_on,30,0,12,,,,,,,,,11,,,,70,0
346680,note_on,60,0,11,,,,,,,,,10,,,,72,112
346680,set_tempo,120,1,0,,,,,,254237,,,,,,,,
346683,note_on,30,0,12,,,,,,,,,11,,,,68,112
346688,note_on,2460,0,13,,,,,,,,,12,,,,65,127
346718,note_on,30,0,13,,,,,,,,,12,,,,65,0
346740,note_on,60,0,11,,,,,,,,,10,,,,72,0
346743,note_on,60,0,12,,,,,,,,,11,,,,68,0
346748,note_on,30,0,13,,,,,,,,,12,,,,65,112
346778,note_on,30,0,13,,,,,,,,,12,,,,65,0
346800,note_on,60,0,11,,,,,,,,,10,,,,72,112
346800,set_tempo,120,1,0,,,,,,263158,,,,,,,,
346803,note_on,60,0,12,,,,,,,,,11,,,,68,112
346808,note_on,30,0,13,,,,,,,,,12,,,,67,112
346838,note_on,30,0,13,,,,,,,,,12,,,,67,0
346860,note_on,60,0,11,,,,,,,,,10,,,,72,0
346863,note_on,60,0,12,,,,,,,,,11,,,,68,0
346868,note_on,30,0,13,,,,,,,,,12,,,,65,112
346898,note_on,30,0,13,,,,,,,,,12,,,,65,0
346920,note_on,60,0,11,,,,,,,,,10,,,,72,112
346920,set_tempo,120,1,0,,,,,,288462,,,,,,,,
346923,note_on,60,0,12,,,,,,,,,11,,,,68,112
346928,note_on,30,0,13,,,,,,,,,12,,,,67,112
346958,note_on,30,0,13,,,,,,,,,12,,,,67,0
346980,note_on,60,0,11,,,,,,,,,10,,,,72,0
346983,note_on,60,0,12,,,,,,,,,11,,,,68,0
346988,note_on,30,0,13,,,,,,,,,12,,,,65,112
347018,note_on,30,0,13,,,,,,,,,12,,,,65,0
347040,note_on,60,0,11,,,,,,,,,10,,,,71,112
347040,set_tempo,120,1,0,,,,,,254237,,,,,,,,
347043,note_on,60,0,12,,,,,,,,,11,,,,67,112
347048,note_on,30,0,13,,,,,,,,,12,,,,62,112
347052,note_on,2820,0,14,,,,,,,,,13,,,,55,127
347082,note_on,30,0,14,,,,,,,,,13,,,,55,0
347108,note_on,60,0,13,,,,,,,,,12,,,,62,0
347112,note_on,30,0,14,,,,,,,,,13,,,,55,112
347142,note_on,30,0,14,,,,,,,,,13,,,,55,0
347160,set_tempo,120,1,0,,,,,,263158,,,,,,,,
347168,note_on,60,0,13,,,,,,,,,12,,,,62,112
347172,note_on,30,0,14,,,,,,,,,13,,,,56,112
347202,note_on,30,0,14,,,,,,,,,13,,,,56,0
347228,note_on,60,0,13,,,,,,,,,12,,,,62,0
347232,note_on,30,0,14,,,,,,,,,13,,,,55,112
347262,note_on,30,0,14,,,,,,,,,13,,,,55,0
347280,set_tempo,120,1,0,,,,,,288462,,,,,,,,
347288,note_on,60,0,13,,,,,,,,,12,,,,62,112
347292,note_on,30,0,14,,,,,,,,,13,,,,56,112
347322,note_on,30,0,14,,,,,,,,,13,,,,56,0
347348,note_on,60,0,13,,,,,,,,,12,,,,62,0
347352,note_on,30,0,14,,,,,,,,,13,,,,55,112
347382,note_on,30,0,14,,,,,,,,,13,,,,55,0
347400,set_tempo,120,1,0,,,,,,254237,,,,,,,,
347400,note_on,360,0,11,,,,,,,,,10,,,,71,0
347400,note_on,0,0,11,,,,,,,,,10,,,,72,112
347403,note_on,360,0,12,,,,,,,,,11,,,,67,0
347403,note_on,0,0,12,,,,,,,,,11,,,,63,112
347408,note_on,60,0,13,,,,,,,,,12,,,,60,112
347412,note_on,30,0,14,,,,,,,,,13,,,,48,127
347414,note_on,3180,0,15,,,,,,,,,14,,,,36,127
347442,note_on,30,0,14,,,,,,,,,13,,,,48,0
347444,note_on,30,0,15,,,,,,,,,14,,,,36,0
347460,note_on,60,0,11,,,,,,,,,10,,,,72,0
347472,note_on,30,0,14,,,,,,,,,13,,,,48,112
347474,note_on,30,0,15,,,,,,,,,14,,,,36,112
347502,note_on,30,0,14,,,,,,,,,13,,,,48,0
347504,note_on,30,0,15,,,,,,,,,14,,,,36,0
347520,set_tempo,120,1,0,,,,,,263158,,,,,,,,
347520,note_on,60,0,11,,,,,,,,,10,,,,72,112
347532,note_on,30,0,14,,,,,,,,,13,,,,50,112
347534,note_on,30,0,15,,,,,,,,,14,,,,38,112
347562,note_on,30,0,14,,,,,,,,,13,,,,50,0
347564,note_on,30,0,15,,,,,,,,,14,,,,38,0
347580,note_on,60,0,11,,,,,,,,,10,,,,72,0
347592,note_on,30,0,14,,,,,,,,,13,,,,48,112
347594,note_on,30,0,15,,,,,,,,,14,,,,36,112
347622,note_on,30,0,14,,,,,,,,,13,,,,48,0
347624,note_on,30,0,15,,,,,,,,,14,,,,36,0
347640,set_tempo,120,1,0,,,,,,288462,,,,,,,,
347640,note_on,60,0,11,,,,,,,,,10,,,,72,112
347652,note_on,30,0,14,,,,,,,,,13,,,,50,112
347654,note_on,30,0,15,,,,,,,,,14,,,,38,112
347682,note_on,30,0,14,,,,,,,,,13,,,,50,0
347684,note_on,30,0,15,,,,,,,,,14,,,,38,0
347700,note_on,60,0,11,,,,,,,,,10,,,,72,0
347712,note_on,30,0,14,,,,,,,,,13,,,,48,112
347714,note_on,30,0,15,,,,,,,,,14,,,,36,112
347742,note_on,30,0,14,,,,,,,,,13,,,,48,0
347744,note_on,30,0,15,,,,,,,,,14,,,,36,0
347760,set_tempo,120,1,0,,,,,,254237,,,,,,,,
347760,note_on,60,0,11,,,,,,,,,10,,,,74,112
347763,note_on,0,0,12,,,,,,,,,11,,,,66,127
347763,note_on,360,0,12,,,,,,,,,11,,,,63,0
347768,note_on,0,0,13,,,,,,,,,12,,,,60,112
347768,note_on,360,0,13,,,,,,,,,12,,,,60,0
347772,note_on,30,0,14,,,,,,,,,13,,,,44,112
347774,note_on,30,0,15,,,,,,,,,14,,,,32,112
347793,note_on,30,0,12,,,,,,,,,11,,,,66,0
347820,note_on,60,0,11,,,,,,,,,10,,,,74,0
347823,note_on,30,0,12,,,,,,,,,11,,,,66,112
347828,note_on,60,0,13,,,,,,,,,12,,,,60,0
347832,note_on,60,0,14,,,,,,,,,13,,,,44,0
347834,note_on,60,0,15,,,,,,,,,14,,,,32,0
347853,note_on,30,0,12,,,,,,,,,11,,,,66,0
347880,set_tempo,120,1,0,,,,,,263158,,,,,,,,
347880,note_on,60,0,11,,,,,,,,,10,,,,74,112
347883,note_on,30,0,12,,,,,,,,,11,,,,67,112
347888,note_on,60,0,13,,,,,,,,,12,,,,60,112
347892,note_on,60,0,14,,,,,,,,,13,,,,44,112
347894,note_on,60,0,15,,,,,,,,,14,,,,32,112
347913,note_on,30,0,12,,,,,,,,,11,,,,67,0
347940,note_on,60,0,11,,,,,,,,,10,,,,74,0
347943,note_on,30,0,12,,,,,,,,,11,,,,66,112
347948,note_on,60,0,13,,,,,,,,,12,,,,60,0
347952,note_on,60,0,14,,,,,,,,,13,,,,44,0
347954,note_on,60,0,15,,,,,,,,,14,,,,32,0
347973,note_on,30,0,12,,,,,,,,,11,,,,66,0
348000,set_tempo,120,1,0,,,,,,288462,,,,,,,,
348000,note_on,60,0,11,,,,,,,,,10,,,,74,112
348003,note_on,30,0,12,,,,,,,,,11,,,,67,112
348008,note_on,60,0,13,,,,,,,,,12,,,,60,112
348012,note_on,60,0,14,,,,,,,,,13,,,,44,112
348014,note_on,60,0,15,,,,,,,,,14,,,,32,112
348033,note_on,30,0,12,,,,,,,,,11,,,,67,0
348060,note_on,60,0,11,,,,,,,,,10,,,,74,0
348063,note_on,30,0,12,,,,,,,,,11,,,,66,112
348068,note_on,60,0,13,,,,,,,,,12,,,,60,0
348072,note_on,60,0,14,,,,,,,,,13,,,,44,0
348074,note_on,60,0,15,,,,,,,,,14,,,,32,0
348093,note_on,30,0,12,,,,,,,,,11,,,,66,0
348120,note_on,60,0,11,,,,,,,,,10,,,,79,127
348120,set_tempo,120,1,0,,,,,,254237,,,,,,,,
348123,note_on,30,0,12,,,,,,,,,11,,,,65,112
348128,note_on,60,0,13,,,,,,,,,12,,,,59,127
348132,note_on,60,0,14,,,,,,,,,13,,,,43,112
348134,note_on,60,0,15,,,,,,,,,14,,,,31,112
348150,note_on,30,0,11,,,,,,,,,10,,,,79,0
348158,note_on,30,0,13,,,,,,,,,12,,,,59,0
348180,note_on,30,0,11,,,,,,,,,10,,,,79,112
348183,note_on,60,0,12,,,,,,,,,11,,,,65,0
348188,note_on,30,0,13,,,,,,,,,12,,,,59,112
348192,note_on,60,0,14,,,,,,,,,13,,,,43,0
348194,note_on,60,0,15,,,,,,,,,14,,,,31,0
348210,note_on,30,0,11,,,,,,,,,10,,,,79,0
348218,note_on,30,0,13,,,,,,,,,12,,,,59,0
348240,note_on,30,0,11,,,,,,,,,10,,,,81,112
348240,set_tempo,120,1,0,,,,,,263158,,,,,,,,
348243,note_on,60,0,12,,,,,,,,,11,,,,65,112
348248,note_on,30,0,13,,,,,,,,,12,,,,60,112
348252,note_on,60,0,14,,,,,,,,,13,,,,43,112
348254,note_on,60,0,15,,,,,,,,,14,,,,31,112
348270,note_on,30,0,11,,,,,,,,,10,,,,81,0
348278,note_on,30,0,13,,,,,,,,,12,,,,60,0
348300,note_on,30,0,11,,,,,,,,,10,,,,79,112
348303,note_on,60,0,12,,,,,,,,,11,,,,65,0
348308,note_on,30,0,13,,,,,,,,,12,,,,59,112
348312,note_on,60,0,14,,,,,,,,,13,,,,43,0
348314,note_on,60,0,15,,,,,,,,,14,,,,31,0
348330,note_on,30,0,11,,,,,,,,,10,,,,79,0
348338,note_on,30,0,13,,,,,,,,,12,,,,59,0
348360,set_tempo,120,1,0,,,,,,288462,,,,,,,,
348360,note_on,30,0,11,,,,,,,,,10,,,,81,112
348363,note_on,60,0,12,,,,,,,,,11,,,,65,112
348368,note_on,30,0,13,,,,,,,,,12,,,,60,112
348372,note_on,60,0,14,,,,,,,,,13,,,,43,112
348374,note_on,60,0,15,,,,,,,,,14,,,,43,112
348390,note_on,30,0,11,,,,,,,,,10,,,,81,0
348398,note_on,30,0,13,,,,,,,,,12,,,,60,0
348420,note_on,30,0,11,,,,,,,,,10,,,,79,112
348423,note_on,60,0,12,,,,,,,,,11,,,,65,0
348428,note_on,30,0,13,,,,,,,,,12,,,,59,112
348432,note_on,60,0,14,,,,,,,,,13,,,,43,0
348434,note_on,60,0,15,,,,,,,,,14,,,,43,0
348450,note_on,30,0,11,,,,,,,,,10,,,,79,0
348458,note_on,30,0,13,,,,,,,,,12,,,,59,0
348480,set_tempo,120,1,0,,,,,,258621,,,,,,,,
348480,note_on,30,0,11,,,,,,,,,10,,,,84,112
348483,note_on,60,0,12,,,,,,,,,11,,,,64,112
348488,note_on,30,0,13,,,,,,,,,12,,,,60,112
348492,note_on,60,0,14,,,,,,,,,13,,,,36,112
348494,note_on,60,0,15,,,,,,,,,14,,,,36,112
348540,note_on,60,0,11,,,,,,,,,10,,,,84,0
348543,note_on,60,0,12,,,,,,,,,11,,,,64,0
348548,note_on,60,0,13,,,,,,,,,12,,,,60,0
348552,note_on,60,0,14,,,,,,,,,13,,,,36,0
348554,note_on,60,0,15,,,,,,,,,14,,,,36,0
348600,note_on,60,0,11,,,,,,,,,10,,,,84,112
348660,note_on,60,0,11,,,,,,,,,10,,,,84,0
348720,note_on,60,0,11,,,,,,,,,10,,,,84,112
348720,set_tempo,240,1,0,,,,,,288462,,,,,,,,
348780,note_on,60,0,11,,,,,,,,,10,,,,84,0
348840,set_tempo,120,1,0,,,,,,254237,,,,,,,,
348852,control_change,300,0,14,,,,,,,,,13,11,45,,,
348852,note_on,0,0,14,,,,,,,,,13,,,,60,127
348854,note_on,0,0,15,,,,,,,,,14,,,,48,127
348854,control_change,300,0,15,,,,,,,,,14,11,45,,,
348882,note_on,30,0,14,,,,,,,,,13,,,,60,0
348884,note_on,30,0,15,,,,,,,,,14,,,,48,0
348912,note_on,30,0,14,,,,,,,,,13,,,,60,112
348914,note_on,30,0,15,,,,,,,,,14,,,,48,112
348942,note_on,30,0,14,,,,,,,,,13,,,,60,0
348944,note_on,30,0,15,,,,,,,,,14,,,,48,0
348960,set_tempo,120,1,0,,,,,,263158,,,,,,,,
348972,note_on,30,0,14,,,,,,,,,13,,,,62,112
348974,note_on,30,0,15,,,,,,,,,14,,,,50,112
349002,note_on,30,0,14,,,,,,,,,13,,,,62,0
349004,note_on,30,0,15,,,,,,,,,14,,,,50,0
349032,note_on,30,0,14,,,,,,,,,13,,,,60,112
349034,note_on,30,0,15,,,,,,,,,14,,,,48,112
349062,note_on,30,0,14,,,,,,,,,13,,,,60,0
349064,note_on,30,0,15,,,,,,,,,14,,,,48,0
349080,set_tempo,120,1,0,,,,,,288462,,,,,,,,
349081,note_on,0,0,1,,,,,,,,,0,,,,72,116
349081,control_change,3145,0,1,,,,,,,,,0,11,42,,,
349081,note_on,0,0,1,,,,,,,,,0,,,,84,116
349084,note_on,3145,0,2,,,,,,,,,1,,,,72,115
349084,control_change,0,0,2,,,,,,,,,1,11,42,,,
349085,control_change,3145,0,3,,,,,,,,,2,11,42,,,
349085,note_on,0,0,3,,,,,,,,,2,,,,72,116
349089,note_on,0,0,4,,,,,,,,,3,,,,60,115
349089,control_change,3145,0,4,,,,,,,,,3,11,42,,,
349092,note_on,30,0,14,,,,,,,,,13,,,,62,112
349094,note_on,30,0,15,,,,,,,,,14,,,,50,112
349122,note_on,30,0,14,,,,,,,,,13,,,,62,0
349124,note_on,30,0,15,,,,,,,,,14,,,,50,0
349152,note_on,30,0,14,,,,,,,,,13,,,,60,112
349154,note_on,30,0,15,,,,,,,,,14,,,,48,112
349176,note_on,95,0,1,,,,,,,,,0,,,,84,0
349176,note_on,0,0,1,,,,,,,,,0,,,,72,0
349179,note_on,95,0,2,,,,,,,,,1,,,,72,0
349180,note_on,95,0,3,,,,,,,,,2,,,,72,0
349182,note_on,30,0,14,,,,,,,,,13,,,,60,0
349184,note_on,95,0,4,,,,,,,,,3,,,,60,0
349184,note_on,30,0,15,,,,,,,,,14,,,,48,0
349200,set_tempo,120,1,0,,,,,,254237,,,,,,,,
349200,control_change,420,0,11,,,,,,,,,10,11,45,,,
349200,note_on,0,0,11,,,,,,,,,10,,,,84,127
349212,note_on,30,0,14,,,,,,,,,13,,,,57,112
349214,note_on,30,0,15,,,,,,,,,14,,,,45,112
349230,note_on,30,0,11,,,,,,,,,10,,,,84,0
349260,note_on,30,0,11,,,,,,,,,10,,,,84,112
349272,note_on,60,0,14,,,,,,,,,13,,,,57,0
349274,note_on,60,0,15,,,,,,,,,14,,,,45,0
349290,note_on,30,0,11,,,,,,,,,10,,,,84,0
349320,set_tempo,120,1,0,,,,,,263158,,,,,,,,
349320,note_on,30,0,11,,,,,,,,,10,,,,86,112
349332,note_on,60,0,14,,,,,,,,,13,,,,57,112
349334,note_on,60,0,15,,,,,,,,,14,,,,45,112
349350,note_on,30,0,11,,,,,,,,,10,,,,86,0
349380,note_on,30,0,11,,,,,,,,,10,,,,84,112
349392,note_on,60,0,14,,,,,,,,,13,,,,57,0
349394,note_on,60,0,15,,,,,,,,,14,,,,45,0
349410,note_on,30,0,11,,,,,,,,,10,,,,84,0
349440,set_tempo,120,1,0,,,,,,288462,,,,,,,,
349440,note_on,30,0,11,,,,,,,,,10,,,,86,112
349441,note_on,265,0,1,,,,,,,,,0,,,,72,116
349441,note_on,0,0,1,,,,,,,,,0,,,,84,116
349444,note_on,265,0,2,,,,,,,,,1,,,,72,115
349445,note_on,265,0,3,,,,,,,,,2,,,,72,116
349449,note_on,0,0,4,,,,,,,,,3,,,,60,115
349449,note_on,265,0,4,,,,,,,,,3,,,,57,115
349452,note_on,60,0,14,,,,,,,,,13,,,,57,112
349454,note_on,60,0,15,,,,,,,,,14,,,,45,112
349470,note_on,30,0,11,,,,,,,,,10,,,,86,0
349500,note_on,30,0,11,,,,,,,,,10,,,,84,112
349512,note_on,60,0,14,,,,,,,,,13,,,,57,0
349514,note_on,60,0,15,,,,,,,,,14,,,,45,0
349530,note_on,30,0,11,,,,,,,,,10,,,,84,0
349536,note_on,0,0,1,,,,,,,,,0,,,,72,0
349536,note_on,95,0,1,,,,,,,,,0,,,,84,0
349539,note_on,95,0,2,,,,,,,,,1,,,,72,0
349540,note_on,95,0,3,,,,,,,,,2,,,,72,0
349544,note_on,0,0,4,,,,,,,,,3,,,,57,0
349544,note_on,95,0,4,,,,,,,,,3,,,,60,0
349560,note_on,30,0,11,,,,,,,,,10,,,,87,112
349560,set_tempo,120,1,0,,,,,,254237,,,,,,,,
349563,note_on,1020,0,12,,,,,,,,,11,,,,82,127
349563,control_change,0,0,12,,,,,,,,,11,11,45,,,
349572,note_on,60,0,14,,,,,,,,,13,,,,55,112
349574,note_on,60,0,15,,,,,,,,,14,,,,43,112
349593,note_on,30,0,12,,,,,,,,,11,,,,82,0
349620,note_on,60,0,11,,,,,,,,,10,,,,87,0
349623,note_on,30,0,12,,,,,,,,,11,,,,82,112
349632,note_on,60,0,14,,,,,,,,,13,,,,55,0
349634,note_on,60,0,15,,,,,,,,,14,,,,43,0
349653,note_on,30,0,12,,,,,,,,,11,,,,82,0
349680,note_on,60,0,11,,,,,,,,,10,,,,87,112
349680,set_tempo,120,1,0,,,,,,263158,,,,,,,,
349683,note_on,30,0,12,,,,,,,,,11,,,,84,112
349692,note_on,60,0,14,,,,,,,,,13,,,,55,112
349694,note_on,60,0,15,,,,,,,,,14,,,,43,112
349713,note_on,30,0,12,,,,,,,,,11,,,,84,0
349740,note_on,60,0,11,,,,,,,,,10,,,,87,0
349743,note_on,30,0,12,,,,,,,,,11,,,,82,112
349752,note_on,60,0,14,,,,,,,,,13,,,,55,0
349754,note_on,60,0,15,,,,,,,,,14,,,,43,0
349773,note_on,30,0,12,,,,,,,,,11,,,,82,0
349800,note_on,60,0,11,,,,,,,,,10,,,,87,112
349800,set_tempo,120,1,0,,,,,,288462,,,,,,,,
349801,note_on,0,0,1,,,,,,,,,0,,,,82,116
349801,note_on,265,0,1,,,,,,,,,0,,,,87,116
349803,note_on,30,0,12,,,,,,,,,11,,,,84,112
349804,note_on,265,0,2,,,,,,,,,1,,,,75,115
349804,note_on,0,0,2,,,,,,,,,1,,,,70,115
349805,note_on,0,0,3,,,,,,,,,2,,,,75,116
349805,note_on,265,0,3,,,,,,,,,2,,,,70,116
349809,note_on,0,0,4,,,,,,,,,3,,,,63,115
349809,note_on,265,0,4,,,,,,,,,3,,,,55,115
349812,note_on,60,0,14,,,,,,,,,13,,,,55,112
349814,note_on,60,0,15,,,,,,,,,14,,,,43,112
349833,note_on,30,0,12,,,,,,,,,11,,,,84,0
349860,note_on,60,0,11,,,,,,,,,10,,,,87,0
349863,note_on,30,0,12,,,,,,,,,11,,,,82,112
349872,note_on,60,0,14,,,,,,,,,13,,,,55,0
349874,note_on,60,0,15,,,,,,,,,14,,,,43,0
349893,note_on,30,0,12,,,,,,,,,11,,,,82,0
349896,note_on,0,0,1,,,,,,,,,0,,,,87,0
349896,note_on,95,0,1,,,,,,,,,0,,,,82,0
349899,note_on,95,0,2,,,,,,,,,1,,,,70,0
349899,note_on,0,0,2,,,,,,,,,1,,,,75,0
349900,note_on,0,0,3,,,,,,,,,2,,,,70,0
349900,note_on,95,0,3,,,,,,,,,2,,,,75,0
349904,note_on,95,0,4,,,,,,,,,3,,,,63,0
349904,note_on,0,0,4,,,,,,,,,3,,,,55,0
349920,set_tempo,120,1,0,,,,,,254237,,,,,,,,
349920,note_on,60,0,11,,,,,,,,,10,,,,86,112
349923,note_on,30,0,12,,,,,,,,,11,,,,81,112
349928,note_on,0,0,13,,,,,,,,,12,,,,72,127
349928,control_change,1380,0,13,,,,,,,,,12,11,45,,,
349932,note_on,60,0,14,,,,,,,,,13,,,,54,112
349934,note_on,60,0,15,,,,,,,,,14,,,,42,112
349958,note_on,30,0,13,,,,,,,,,12,,,,72,0
349980,note_on,60,0,11,,,,,,,,,10,,,,86,0
349983,note_on,60,0,12,,,,,,,,,11,,,,81,0
349988,note_on,30,0,13,,,,,,,,,12,,,,72,112
350018,note_on,30,0,13,,,,,,,,,12,,,,72,0
350040,set_tempo,120,1,0,,,,,,263158,,,,,,,,
350040,note_on,60,0,11,,,,,,,,,10,,,,86,112
350043,note_on,60,0,12,,,,,,,,,11,,,,81,112
350048,note_on,30,0,13,,,,,,,,,12,,,,74,112
350078,note_on,30,0,13,,,,,,,,,12,,,,74,0
350100,note_on,60,0,11,,,,,,,,,10,,,,86,0
350103,note_on,60,0,12,,,,,,,,,11,,,,81,0
350108,note_on,30,0,13,,,,,,,,,12,,,,72,112
350138,note_on,30,0,13,,,,,,,,,12,,,,72,0
350160,note_on,60,0,11,,,,,,,,,10,,,,86,112
350160,set_tempo,120,1,0,,,,,,288462,,,,,,,,
350161,note_on,265,0,1,,,,,,,,,0,,,,81,116
350161,note_on,0,0,1,,,,,,,,,0,,,,86,116
350163,note_on,60,0,12,,,,,,,,,11,,,,81,112
350164,note_on,265,0,2,,,,,,,,,1,,,,69,115
350164,note_on,0,0,2,,,,,,,,,1,,,,74,115
350165,note_on,0,0,3,,,,,,,,,2,,,,74,116
350165,note_on,265,0,3,,,,,,,,,2,,,,69,116
350168,note_on,30,0,13,,,,,,,,,12,,,,74,112
350169,note_on,265,0,4,,,,,,,,,3,,,,54,115
350169,note_on,0,0,4,,,,,,,,,3,,,,62,115
350198,note_on,30,0,13,,,,,,,,,12,,,,74,0
350220,note_on,60,0,11,,,,,,,,,10,,,,86,0
350223,note_on,60,0,12,,,,,,,,,11,,,,81,0
350228,note_on,30,0,13,,,,,,,,,12,,,,72,112
350256,note_on,95,0,1,,,,,,,,,0,,,,86,0
350256,note_on,0,0,1,,,,,,,,,0,,,,81,0
350258,note_on,30,0,13,,,,,,,,,12,,,,72,0
350259,note_on,0,0,2,,,,,,,,,1,,,,69,0
350259,note_on,95,0,2,,,,,,,,,1,,,,74,0
350260,note_on,0,0,3,,,,,,,,,2,,,,69,0
350260,note_on,95,0,3,,,,,,,,,2,,,,74,0
350264,note_on,0,0,4,,,,,,,,,3,,,,54,0
350264,note_on,95,0,4,,,,,,,,,3,,,,62,0
350280,note_on,60,0,11,,,,,,,,,10,,,,91,112
350280,set_tempo,120,1,0,,,,,,254237,,,,,,,,
350283,note_on,60,0,12,,,,,,,,,11,,,,79,112
350288,note_on,30,0,13,,,,,,,,,12,,,,70,112
350292,note_on,360,0,14,,,,,,,,,13,,,,54,0
350292,note_on,0,0,14,,,,,,,,,13,,,,58,127
350294,note_on,0,0,15,,,,,,,,,14,,,,46,127
350294,note_on,360,0,15,,,,,,,,,14,,,,42,0
350322,note_on,30,0,14,,,,,,,,,13,,,,58,0
350324,note_on,30,0,15,,,,,,,,,14,,,,46,0
350343,note_on,60,0,12,,,,,,,,,11,,,,79,0
350348,note_on,60,0,13,,,,,,,,,12,,,,70,0
350352,note_on,30,0,14,,,,,,,,,13,,,,58,112
350354,note_on,30,0,15,,,,,,,,,14,,,,46,112
350382,note_on,30,0,14,,,,,,,,,13,,,,58,0
350384,note_on,30,0,15,,,,,,,,,14,,,,46,0
350400,set_tempo,120,1,0,,,,,,263158,,,,,,,,
350403,note_on,60,0,12,,,,,,,,,11,,,,79,112
350408,note_on,60,0,13,,,,,,,,,12,,,,70,112
350412,note_on,30,0,14,,,,,,,,,13,,,,60,112
350414,note_on,30,0,15,,,,,,,,,14,,,,48,112
350442,note_on,30,0,14,,,,,,,,,13,,,,60,0
350444,note_on,30,0,15,,,,,,,,,14,,,,48,0
350463,note_on,60,0,12,,,,,,,,,11,,,,79,0
350468,note_on,60,0,13,,,,,,,,,12,,,,70,0
350472,note_on,30,0,14,,,,,,,,,13,,,,58,112
350474,note_on,30,0,15,,,,,,,,,14,,,,46,112
350502,note_on,30,0,14,,,,,,,,,13,,,,58,0
350504,note_on,30,0,15,,,,,,,,,14,,,,46,0
350520,set_tempo,120,1,0,,,,,,288462,,,,,,,,
350521,note_on,0,0,1,,,,,,,,,0,,,,79,116
350521,note_on,265,0,1,,,,,,,,,0,,,,91,116
350523,note_on,60,0,12,,,,,,,,,11,,,,79,112
350524,note_on,0,0,2,,,,,,,,,1,,,,67,115
350524,note_on,265,0,2,,,,,,,,,1,,,,79,115
350525,note_on,0,0,3,,,,,,,,,2,,,,79,116
350525,note_on,265,0,3,,,,,,,,,2,,,,67,116
350528,note_on,60,0,13,,,,,,,,,12,,,,70,112
350529,note_on,265,0,4,,,,,,,,,3,,,,58,115
350532,note_on,30,0,14,,,,,,,,,13,,,,60,112
350534,note_on,30,0,15,,,,,,,,,14,,,,48,112
350562,note_on,30,0,14,,,,,,,,,13,,,,60,0
350564,note_on,30,0,15,,,,,,,,,14,,,,48,0
350583,note_on,60,0,12,,,,,,,,,11,,,,79,0
350588,note_on,60,0,13,,,,,,,,,12,,,,70,0
350592,note_on,30,0,14,,,,,,,,,13,,,,58,112
350594,note_on,30,0,15,,,,,,,,,14,,,,46,112
350616,note_on,95,0,1,,,,,,,,,0,,,,79,0
350616,note_on,0,0,1,,,,,,,,,0,,,,91,0
350619,note_on,0,0,2,,,,,,,,,1,,,,79,0
350619,note_on,95,0,2,,,,,,,,,1,,,,67,0
350620,note_on,95,0,3,,,,,,,,,2,,,,79,0
350620,note_on,0,0,3,,,,,,,,,2,,,,67,0
350622,note_on,30,0,14,,,,,,,,,13,,,,58,0
350624,note_on,95,0,4,,,,,,,,,3,,,,58,0
350624,note_on,30,0,15,,,,,,,,,14,,,,46,0
350640,note_on,0,0,11,,,,,,,,,10,,,,82,127
350640,set_tempo,120,1,0,,,,,,254237,,,,,,,,
350640,note_on,360,0,11,,,,,,,,,10,,,,91,0
350643,note_on,60,0,12,,,,,,,,,11,,,,67,112
350652,note_on,30,0,14,,,,,,,,,13,,,,55,112
350654,note_on,30,0,15,,,,,,,,,14,,,,43,112
350670,note_on,30,0,11,,,,,,,,,10,,,,82,0
350700,note_on,30,0,11,,,,,,,,,10,,,,82,112
350712,note_on,60,0,14,,,,,,,,,13,,,,55,0
350714,note_on,60,0,15,,,,,,,,,14,,,,43,0
350730,note_on,30,0,11,,,,,,,,,10,,,,82,0
350760,set_tempo,120,1,0,,,,,,263158,,,,,,,,
350760,note_on,30,0,11,,,,,,,,,10,,,,84,112
350772,note_on,60,0,14,,,,,,,,,13,,,,55,112
350774,note_on,60,0,15,,,,,,,,,14,,,,43,112
350790,note_on,30,0,11,,,,,,,,,10,,,,84,0
350820,note_on,30,0,11,,,,,,,,,10,,,,82,112
350832,note_on,60,0,14,,,,,,,,,13,,,,55,0
350834,note_on,60,0,15,,,,,,,,,14,,,,43,0
350850,note_on,30,0,11,,,,,,,,,10,,,,82,0
350880,set_tempo,120,1,0,,,,,,288462,,,,,,,,
350880,note_on,30,0,11,,,,,,,,,10,,,,84,112
350881,note_on,265,0,1,,,,,,,,,0,,,,79,101
350881,note_on,0,0,1,,,,,,,,,0,,,,82,101
350884,note_on,0,0,2,,,,,,,,,1,,,,70,100
350884,note_on,265,0,2,,,,,,,,,1,,,,67,100
350885,note_on,265,0,3,,,,,,,,,2,,,,70,101
350885,note_on,0,0,3,,,,,,,,,2,,,,67,101
350889,note_on,0,0,4,,,,,,,,,3,,,,58,100
350889,note_on,265,0,4,,,,,,,,,3,,,,55,100
350892,note_on,60,0,14,,,,,,,,,13,,,,55,112
350894,note_on,60,0,15,,,,,,,,,14,,,,43,112
350910,note_on,30,0,11,,,,,,,,,10,,,,84,0
350940,note_on,30,0,11,,,,,,,,,10,,,,82,112
350952,note_on,60,0,14,,,,,,,,,13,,,,55,0
350954,note_on,60,0,15,,,,,,,,,14,,,,43,0
350970,note_on,30,0,11,,,,,,,,,10,,,,82,0
350976,note_on,0,0,1,,,,,,,,,0,,,,79,0
350976,note_on,95,0,1,,,,,,,,,0,,,,82,0
350979,note_on,95,0,2,,,,,,,,,1,,,,70,0
350979,note_on,0,0,2,,,,,,,,,1,,,,67,0
350980,note_on,95,0,3,,,,,,,,,2,,,,67,0
350980,note_on,0,0,3,,,,,,,,,2,,,,70,0
350984,note_on,95,0,4,,,,,,,,,3,,,,58,0
350984,note_on,0,0,4,,,,,,,,,3,,,,55,0
351000,set_tempo,120,1,0,,,,,,254237,,,,,,,,
351000,note_on,30,0,11,,,,,,,,,10,,,,85,112
351003,note_on,360,0,12,,,,,,,,,11,,,,67,0
351003,note_on,0,0,12,,,,,,,,,11,,,,80,127
351012,note_on,60,0,14,,,,,,,,,13,,,,53,112
351014,note_on,60,0,15,,,,,,,,,14,,,,41,112
351033,note_on,30,0,12,,,,,,,,,11,,,,80,0
351060,note_on,60,0,11,,,,,,,,,10,,,,85,0
351063,note_on,30,0,12,,,,,,,,,11,,,,80,112
351072,note_on,60,0,14,,,,,,,,,13,,,,53,0
351074,note_on,60,0,15,,,,,,,,,14,,,,41,0
351093,note_on,30,0,12,,,,,,,,,11,,,,80,0
351120,note_on,60,0,11,,,,,,,,,10,,,,85,112
351120,set_tempo,120,1,0,,,,,,263158,,,,,,,,
351123,note_on,30,0,12,,,,,,,,,11,,,,82,112
351132,note_on,60,0,14,,,,,,,,,13,,,,53,112
351134,note_on,60,0,15,,,,,,,,,14,,,,41,112
351153,note_on,30,0,12,,,,,,,,,11,,,,82,0
351180,note_on,60,0,11,,,,,,,,,10,,,,85,0
351183,note_on,30,0,12,,,,,,,,,11,,,,80,112
351192,note_on,60,0,14,,,,,,,,,13,,,,53,0
351194,note_on,60,0,15,,,,,,,,,14,,,,41,0
351213,note_on,30,0,12,,,,,,,,,11,,,,80,0
351240,note_on,60,0,11,,,,,,,,,10,,,,85,112
351240,set_tempo,120,1,0,,,,,,288462,,,,,,,,
351241,note_on,0,0,1,,,,,,,,,0,,,,80,101
351241,note_on,265,0,1,,,,,,,,,0,,,,85,101
351243,note_on,30,0,12,,,,,,,,,11,,,,82,112
351244,note_on,0,0,2,,,,,,,,,1,,,,73,100
351244,note_on,265,0,2,,,,,,,,,1,,,,68,100
351245,note_on,265,0,3,,,,,,,,,2,,,,68,101
351245,note_on,0,0,3,,,,,,,,,2,,,,73,101
351249,note_on,0,0,4,,,,,,,,,3,,,,53,100
351249,note_on,265,0,4,,,,,,,,,3,,,,61,100
351252,note_on,60,0,14,,,,,,,,,13,,,,53,112
351254,note_on,60,0,15,,,,,,,,,14,,,,41,112
351273,note_on,30,0,12,,,,,,,,,11,,,,82,0
351300,note_on,60,0,11,,,,,,,,,10,,,,85,0
351303,note_on,30,0,12,,,,,,,,,11,,,,80,112
351312,note_on,60,0,14,,,,,,,,,13,,,,53,0
351314,note_on,60,0,15,,,,,,,,,14,,,,41,0
351333,note_on,30,0,12,,,,,,,,,11,,,,80,0
351336,note_on,95,0,1,,,,,,,,,0,,,,80,0
351336,note_on,0,0,1,,,,,,,,,0,,,,85,0
351339,note_on,95,0,2,,,,,,,,,1,,,,73,0
351339,note_on,0,0,2,,,,,,,,,1,,,,68,0
351340,note_on,0,0,3,,,,,,,,,2,,,,68,0
351340,note_on,95,0,3,,,,,,,,,2,,,,73,0
351344,note_on,0,0,4,,,,,,,,,3,,,,61,0
351344,note_on,95,0,4,,,,,,,,,3,,,,53,0
351360,set_tempo,120,1,0,,,,,,254237,,,,,,,,
351360,note_on,60,0,11,,,,,,,,,10,,,,84,112
351363,note_on,30,0,12,,,,,,,,,11,,,,79,112
351368,note_on,780,0,13,,,,,,,,,12,,,,70,127
351372,note_on,60,0,14,,,,,,,,,13,,,,52,112
351374,note_on,60,0,15,,,,,,,,,14,,,,40,112
351398,note_on,30,0,13,,,,,,,,,12,,,,70,0
351420,note_on,60,0,11,,,,,,,,,10,,,,84,0
351423,note_on,60,0,12,,,,,,,,,11,,,,79,0
351428,note_on,30,0,13,,,,,,,,,12,,,,70,112
351458,note_on,30,0,13,,,,,,,,,12,,,,70,0
351480,set_tempo,120,1,0,,,,,,263158,,,,,,,,
351480,note_on,60,0,11,,,,,,,,,10,,,,84,112
351483,note_on,60,0,12,,,,,,,,,11,,,,79,112
351488,note_on,30,0,13,,,,,,,,,12,,,,72,112
351518,note_on,30,0,13,,,,,,,,,12,,,,72,0
351540,note_on,60,0,11,,,,,,,,,10,,,,84,0
351543,note_on,60,0,12,,,,,,,,,11,,,,79,0
351548,note_on,30,0,13,,,,,,,,,12,,,,70,112
351578,note_on,30,0,13,,,,,,,,,12,,,,70,0
351600,note_on,60,0,11,,,,,,,,,10,,,,84,112
351600,set_tempo,120,1,0,,,,,,288462,,,,,,,,
351601,note_on,0,0,1,,,,,,,,,0,,,,84,101
351601,note_on,265,0,1,,,,,,,,,0,,,,79,101
351603,note_on,60,0,12,,,,,,,,,11,,,,79,112
351604,note_on,0,0,2,,,,,,,,,1,,,,72,100
351604,note_on,265,0,2,,,,,,,,,1,,,,67,100
351605,note_on,265,0,3,,,,,,,,,2,,,,67,101
351605,note_on,0,0,3,,,,,,,,,2,,,,72,101
351608,note_on,30,0,13,,,,,,,,,12,,,,72,112
351609,note_on,265,0,4,,,,,,,,,3,,,,60,100
351609,note_on,0,0,4,,,,,,,,,3,,,,52,100
351638,note_on,30,0,13,,,,,,,,,12,,,,72,0
351660,note_on,60,0,11,,,,,,,,,10,,,,84,0
351663,note_on,60,0,12,,,,,,,,,11,,,,79,0
351668,note_on,30,0,13,,,,,,,,,12,,,,70,112
351696,note_on,95,0,1,,,,,,,,,0,,,,84,0
351696,note_on,0,0,1,,,,,,,,,0,,,,79,0
351698,note_on,30,0,13,,,,,,,,,12,,,,70,0
351699,note_on,0,0,2,,,,,,,,,1,,,,67,0
351699,note_on,95,0,2,,,,,,,,,1,,,,72,0
351700,note_on,95,0,3,,,,,,,,,2,,,,72,0
351700,note_on,0,0,3,,,,,,,,,2,,,,67,0
351704,note_on,0,0,4,,,,,,,,,3,,,,60,0
351704,note_on,95,0,4,,,,,,,,,3,,,,52,0
351720,control_change,0,0,11,,,,,,,,,10,11,45,,,
351720,note_on,60,0,11,,,,,,,,,10,,,,89,112
351720,set_tempo,120,1,0,,,,,,254237,,,,,,,,
351723,note_on,0,0,12,,,,,,,,,11,,,,77,112
351723,control_change,60,0,12,,,,,,,,,11,11,45,,,
351728,control_change,30,0,13,,,,,,,,,12,11,45,,,
351728,note_on,0,0,13,,,,,,,,,12,,,,68,112
351732,note_on,360,0,14,,,,,,,,,13,,,,52,0
351732,control_change,0,0,14,,,,,,,,,13,11,45,,,
351732,note_on,0,0,14,,,,,,,,,13,,,,53,127
351734,control_change,0,0,15,,,,,,,,,14,11,45,,,
351734,note_on,0,0,15,,,,,,,,,14,,,,41,127
351734,note_on,360,0,15,,,,,,,,,14,,,,40,0
351762,note_on,30,0,14,,,,,,,,,13,,,,53,0
351764,note_on,30,0,15,,,,,,,,,14,,,,41,0
351768,control_change,48,0,11,,,,,,,,,10,11,46,,,
351771,control_change,48,0,12,,,,,,,,,11,11,46,,,
351776,control_change,48,0,13,,,,,,,,,12,11,46,,,
351780,control_change,18,0,14,,,,,,,,,13,11,46,,,
351782,control_change,18,0,15,,,,,,,,,14,11,46,,,
351783,note_on,12,0,12,,,,,,,,,11,,,,77,0
351788,note_on,12,0,13,,,,,,,,,12,,,,68,0
351792,note_on,12,0,14,,,,,,,,,13,,,,53,112
351794,note_on,12,0,15,,,,,,,,,14,,,,41,112
351816,control_change,48,0,11,,,,,,,,,10,11,47,,,
351819,control_change,36,0,12,,,,,,,,,11,11,47,,,
351822,note_on,30,0,14,,,,,,,,,13,,,,53,0
351824,control_change,36,0,13,,,,,,,,,12,11,47,,,
351824,note_on,30,0,15,,,,,,,,,14,,,,41,0
351828,control_change,6,0,14,,,,,,,,,13,11,47,,,
351830,control_change,6,0,15,,,,,,,,,14,11,47,,,
351840,set_tempo,120,1,0,,,,,,263158,,,,,,,,
351843,note_on,24,0,12,,,,,,,,,11,,,,77,112
351848,note_on,24,0,13,,,,,,,,,12,,,,68,112
351852,note_on,24,0,14,,,,,,,,,13,,,,55,112
351854,note_on,24,0,15,,,,,,,,,14,,,,43,112
351864,control_change,48,0,11,,,,,,,,,10,11,48,,,
351867,control_change,24,0,12,,,,,,,,,11,11,48,,,
351872,control_change,24,0,13,,,,,,,,,12,11,48,,,
351876,control_change,24,0,14,,,,,,,,,13,11,48,,,
351878,control_change,24,0,15,,,,,,,,,14,11,48,,,
351882,note_on,6,0,14,,,,,,,,,13,,,,55,0
351884,note_on,6,0,15,,,,,,,,,14,,,,43,0
351903,note_on,36,0,12,,,,,,,,,11,,,,77,0
351908,note_on,36,0,13,,,,,,,,,12,,,,68,0
351912,note_on,30,0,14,,,,,,,,,13,,,,53,112
351912,control_change,48,0,11,,,,,,,,,10,11,49,,,
351914,note_on,30,0,15,,,,,,,,,14,,,,41,112
351915,control_change,12,0,12,,,,,,,,,11,11,49,,,
351920,control_change,12,0,13,,,,,,,,,12,11,49,,,
351924,control_change,12,0,14,,,,,,,,,13,11,49,,,
351926,control_change,12,0,15,,,,,,,,,14,11,49,,,
351942,note_on,18,0,14,,,,,,,,,13,,,,53,0
351944,note_on,18,0,15,,,,,,,,,14,,,,41,0
351960,set_tempo,120,1,0,,,,,,288462,,,,,,,,
351960,control_change,48,0,11,,,,,,,,,10,11,50,,,
351961,note_on,265,0,1,,,,,,,,,0,,,,77,101
351961,control_change,0,0,1,,,,,,,,,0,11,42,,,
351961,note_on,0,0,1,,,,,,,,,0,,,,89,101
351963,control_change,48,0,12,,,,,,,,,11,11,50,,,
351963,note_on,0,0,12,,,,,,,,,11,,,,77,112
351964,control_change,265,0,2,,,,,,,,,1,11,42,,,
351964,note_on,0,0,2,,,,,,,,,1,,,,65,100
351964,note_on,0,0,2,,,,,,,,,1,,,,77,100
351965,control_change,0,0,3,,,,,,,,,2,11,42,,,
351965,note_on,265,0,3,,,,,,,,,2,,,,65,101
351965,note_on,0,0,3,,,,,,,,,2,,,,77,101
351968,note_on,0,0,13,,,,,,,,,12,,,,68,112
351968,control_change,48,0,13,,,,,,,,,12,11,50,,,
351969,note_on,265,0,4,,,,,,,,,3,,,,53,100
351969,control_change,0,0,4,,,,,,,,,3,11,42,,,
351972,note_on,30,0,14,,,,,,,,,13,,,,55,112
351972,control_change,0,0,14,,,,,,,,,13,11,50,,,
351974,control_change,0,0,15,,,,,,,,,14,11,50,,,
351974,note_on,30,0,15,,,,,,,,,14,,,,43,112
352002,note_on,30,0,14,,,,,,,,,13,,,,55,0
352004,note_on,30,0,15,,,,,,,,,14,,,,43,0
352008,control_change,48,0,11,,,,,,,,,10,11,51,,,
352009,control_change,48,0,1,,,,,,,,,0,11,43,,,
352011,control_change,48,0,12,,,,,,,,,11,11,51,,,
352012,control_change,48,0,2,,,,,,,,,1,11,43,,,
352013,control_change,48,0,3,,,,,,,,,2,11,43,,,
352016,control_change,48,0,13,,,,,,,,,12,11,51,,,
352017,control_change,48,0,4,,,,,,,,,3,11,43,,,
352020,control_change,18,0,14,,,,,,,,,13,11,51,,,
352022,control_change,18,0,15,,,,,,,,,14,11,51,,,
352023,note_on,12,0,12,,,,,,,,,11,,,,77,0
352028,note_on,12,0,13,,,,,,,,,12,,,,68,0
352032,note_on,12,0,14,,,,,,,,,13,,,,53,112
352034,note_on,12,0,15,,,,,,,,,14,,,,41,112
352056,note_on,0,0,1,,,,,,,,,0,,,,77,0
352056,note_on,47,0,1,,,,,,,,,0,,,,89,0
352056,control_change,48,0,11,,,,,,,,,10,11,52,,,
352057,control_change,1,0,1,,,,,,,,,0,11,44,,,
352059,control_change,36,0,12,,,,,,,,,11,11,52,,,
352059,note_on,0,0,2,,,,,,,,,1,,,,65,0
352059,note_on,47,0,2,,,,,,,,,1,,,,77,0
352060,control_change,1,0,2,,,,,,,,,1,11,44,,,
352060,note_on,47,0,3,,,,,,,,,2,,,,77,0
352060,note_on,0,0,3,,,,,,,,,2,,,,65,0
352061,control_change,1,0,3,,,,,,,,,2,11,44,,,
352062,note_on,30,0,14,,,,,,,,,13,,,,53,0
352064,note_on,47,0,4,,,,,,,,,3,,,,53,0
352064,control_change,36,0,13,,,,,,,,,12,11,52,,,
352064,note_on,30,0,15,,,,,,,,,14,,,,41,0
352065,control_change,1,0,4,,,,,,,,,3,11,44,,,
352068,control_change,6,0,14,,,,,,,,,13,11,52,,,
352070,control_change,6,0,15,,,,,,,,,14,11,52,,,
352080,note_on,0,0,11,,,,,,,,,10,,,,77,127
352080,note_on,24,0,11,,,,,,,,,10,,,,89,0
352080,set_tempo,120,1,0,,,,,,254237,,,,,,,,
352083,note_on,24,0,12,,,,,,,,,11,,,,65,112
352092,note_on,24,0,14,,,,,,,,,13,,,,49,112
352094,note_on,24,0,15,,,,,,,,,14,,,,37,112
352104,control_change,24,0,11,,,,,,,,,10,11,53,,,
352105,control_change,48,0,1,,,,,,,,,0,11,45,,,
352107,control_change,24,0,12,,,,,,,,,11,11,53,,,
352108,control_change,48,0,2,,,,,,,,,1,11,45,,,
352109,control_change,48,0,3,,,,,,,,,2,11,45,,,
352110,note_on,6,0,11,,,,,,,,,10,,,,77,0
352112,control_change,48,0,13,,,,,,,,,12,11,53,,,
352113,control_change,48,0,4,,,,,,,,,3,11,45,,,
352116,control_change,24,0,14,,,,,,,,,13,11,53,,,
352118,control_change,24,0,15,,,,,,,,,14,11,53,,,
352140,note_on,30,0,11,,,,,,,,,10,,,,77,112
352152,note_on,36,0,14,,,,,,,,,13,,,,49,0
352152,control_change,12,0,11,,,,,,,,,10,11,54,,,
352153,control_change,48,0,1,,,,,,,,,0,11,46,,,
352154,note_on,36,0,15,,,,,,,,,14,,,,37,0
352155,control_change,48,0,12,,,,,,,,,11,11,54,,,
352156,control_change,48,0,2,,,,,,,,,1,11,46,,,
352157,control_change,48,0,3,,,,,,,,,2,11,46,,,
352160,control_change,48,0,13,,,,,,,,,12,11,54,,,
352161,control_change,48,0,4,,,,,,,,,3,11,46,,,
352164,control_change,12,0,14,,,,,,,,,13,11,54,,,
352166,control_change,12,0,15,,,,,,,,,14,11,54,,,
352170,note_on,18,0,11,,,,,,,,,10,,,,77,0
352200,control_change,30,0,11,,,,,,,,,10,11,55,,,
352200,note_on,0,0,11,,,,,,,,,10,,,,79,112
352200,set_tempo,120,1,0,,,,,,263158,,,,,,,,
352201,control_change,48,0,1,,,,,,,,,0,11,47,,,
352203,control_change,48,0,12,,,,,,,,,11,11,55,,,
352204,control_change,48,0,2,,,,,,,,,1,11,47,,,
352205,control_change,48,0,3,,,,,,,,,2,11,47,,,
352208,control_change,48,0,13,,,,,,,,,12,11,55,,,
352209,control_change,48,0,4,,,,,,,,,3,11,47,,,
352212,note_on,0,0,14,,,,,,,,,13,,,,49,112
352212,control_change,48,0,14,,,,,,,,,13,11,55,,,
352214,control_change,0,0,15,,,,,,,,,14,11,55,,,
352214,note_on,48,0,15,,,,,,,,,14,,,,37,112
352230,note_on,30,0,11,,,,,,,,,10,,,,79,0
352248,control_change,18,0,11,,,,,,,,,10,11,56,,,
352249,control_change,48,0,1,,,,,,,,,0,11,48,,,
352251,control_change,48,0,12,,,,,,,,,11,11,56,,,
352252,control_change,48,0,2,,,,,,,,,1,11,48,,,
352253,control_change,48,0,3,,,,,,,,,2,11,48,,,
352256,control_change,48,0,13,,,,,,,,,12,11,56,,,
352257,control_change,48,0,4,,,,,,,,,3,11,48,,,
352260,note_on,12,0,11,,,,,,,,,10,,,,77,112
352260,control_change,48,0,14,,,,,,,,,13,11,56,,,
352262,control_change,48,0,15,,,,,,,,,14,11,56,,,
352272,note_on,12,0,14,,,,,,,,,13,,,,49,0
352274,note_on,12,0,15,,,,,,,,,14,,,,37,0
352290,note_on,30,0,11,,,,,,,,,10,,,,77,0
352296,control_change,6,0,11,,,,,,,,,10,11,57,,,
352297,control_change,48,0,1,,,,,,,,,0,11,49,,,
352299,control_change,48,0,12,,,,,,,,,11,11,57,,,
352300,control_change,48,0,2,,,,,,,,,1,11,49,,,
352301,control_change,48,0,3,,,,,,,,,2,11,49,,,
352304,control_change,48,0,13,,,,,,,,,12,11,57,,,
352305,control_change,48,0,4,,,,,,,,,3,11,49,,,
352308,control_change,36,0,14,,,,,,,,,13,11,57,,,
352310,control_change,36,0,15,,,,,,,,,14,11,57,,,
352320,note_on,24,0,11,,,,,,,,,10,,,,79,112
352320,set_tempo,120,1,0,,,,,,288462,,,,,,,,
352321,note_on,24,0,1,,,,,,,,,0,,,,77,101
352324,note_on,24,0,2,,,,,,,,,1,,,,77,100
352325,note_on,24,0,3,,,,,,,,,2,,,,65,101
352329,note_on,0,0,4,,,,,,,,,3,,,,53,100
352329,note_on,24,0,4,,,,,,,,,3,,,,49,100
352332,note_on,24,0,14,,,,,,,,,13,,,,49,112
352334,note_on,24,0,15,,,,,,,,,14,,,,37,112
352344,control_change,24,0,11,,,,,,,,,10,11,57,,,
352345,control_change,24,0,1,,,,,,,,,0,11,50,,,
352347,control_change,48,0,12,,,,,,,,,11,11,57,,,
352348,control_change,24,0,2,,,,,,,,,1,11,50,,,
352349,control_change,24,0,3,,,,,,,,,2,11,50,,,
352350,note_on,6,0,11,,,,,,,,,10,,,,79,0
352352,control_change,48,0,13,,,,,,,,,12,11,57,,,
352353,control_change,24,0,4,,,,,,,,,3,11,50,,,
352356,control_change,24,0,14,,,,,,,,,13,11,57,,,
352358,control_change,24,0,15,,,,,,,,,14,11,57,,,
352380,note_on,30,0,11,,,,,,,,,10,,,,77,112
352392,control_change,12,0,11,,,,,,,,,10,11,58,,,
352392,note_on,36,0,14,,,,,,,,,13,,,,49,0
352393,control_change,48,0,1,,,,,,,,,0,11,51,,,
352394,note_on,36,0,15,,,,,,,,,14,,,,37,0
352395,control_change,48,0,12,,,,,,,,,11,11,58,,,
352396,control_change,48,0,2,,,,,,,,,1,11,51,,,
352397,control_change,48,0,3,,,,,,,,,2,11,51,,,
352400,control_change,48,0,13,,,,,,,,,12,11,58,,,
352401,control_change,48,0,4,,,,,,,,,3,11,51,,,
352404,control_change,12,0,14,,,,,,,,,13,11,58,,,
352406,control_change,12,0,15,,,,,,,,,14,11,58,,,
352410,note_on,18,0,11,,,,,,,,,10,,,,77,0
352416,note_on,23,0,1,,,,,,,,,0,,,,77,0
352419,note_on,23,0,2,,,,,,,,,1,,,,77,0
352420,note_on,23,0,3,,,,,,,,,2,,,,65,0
352424,note_on,0,0,4,,,,,,,,,3,,,,49,0
352424,note_on,23,0,4,,,,,,,,,3,,,,53,0
352440,set_tempo,120,1,0,,,,,,254237,,,,,,,,
352440,note_on,30,0,11,,,,,,,,,10,,,,80,112
352440,control_change,0,0,11,,,,,,,,,10,11,59,,,
352441,control_change,25,0,1,,,,,,,,,0,11,52,,,
352443,note_on,0,0,12,,,,,,,,,11,,,,75,127
352443,control_change,0,0,12,,,,,,,,,11,11,59,,,
352443,note_on,48,0,12,,,,,,,,,11,,,,65,0
352444,control_change,25,0,2,,,,,,,,,1,11,52,,,
352445,control_change,25,0,3,,,,,,,,,2,11,52,,,
352448,control_change,48,0,13,,,,,,,,,12,11,59,,,
352449,control_change,25,0,4,,,,,,,,,3,11,52,,,
352452,control_change,48,0,14,,,,,,,,,13,11,59,,,
352452,note_on,0,0,14,,,,,,,,,13,,,,48,112
352454,control_change,48,0,15,,,,,,,,,14,11,59,,,
352454,note_on,0,0,15,,,,,,,,,14,,,,36,112
352473,note_on,30,0,12,,,,,,,,,11,,,,75,0
352488,control_change,48,0,11,,,,,,,,,10,11,60,,,
352489,control_change,48,0,1,,,,,,,,,0,11,52,,,
352491,control_change,18,0,12,,,,,,,,,11,11,60,,,
352492,control_change,48,0,2,,,,,,,,,1,11,52,,,
352493,control_change,48,0,3,,,,,,,,,2,11,52,,,
352496,control_change,48,0,13,,,,,,,,,12,11,60,,,
352497,control_change,48,0,4,,,,,,,,,3,11,53,,,
352500,note_on,12,0,11,,,,,,,,,10,,,,80,0
352500,control_change,48,0,14,,,,,,,,,13,11,60,,,
352502,control_change,48,0,15,,,,,,,,,14,11,60,,,
352503,note_on,12,0,12,,,,,,,,,11,,,,75,112
352512,note_on,12,0,14,,,,,,,,,13,,,,48,0
352514,note_on,12,0,15,,,,,,,,,14,,,,36,0
352533,note_on,30,0,12,,,,,,,,,11,,,,75,0
352536,control_change,36,0,11,,,,,,,,,10,11,61,,,
352537,control_change,48,0,1,,,,,,,,,0,11,53,,,
352539,control_change,6,0,12,,,,,,,,,11,11,61,,,
352540,control_change,48,0,2,,,,,,,,,1,11,53,,,
352541,control_change,48,0,3,,,,,,,,,2,11,53,,,
352544,control_change,48,0,13,,,,,,,,,12,11,61,,,
352545,control_change,48,0,4,,,,,,,,,3,11,54,,,
352548,control_change,36,0,14,,,,,,,,,13,11,61,,,
352550,control_change,36,0,15,,,,,,,,,14,11,61,,,
352560,note_on,24,0,11,,,,,,,,,10,,,,80,112
352560,set_tempo,120,1,0,,,,,,263158,,,,,,,,
352563,note_on,24,0,12,,,,,,,,,11,,,,77,112
352572,note_on,24,0,14,,,,,,,,,13,,,,48,112
352574,note_on,24,0,15,,,,,,,,,14,,,,36,112
352584,control_change,24,0,11,,,,,,,,,10,11,62,,,
352585,control_change,48,0,1,,,,,,,,,0,11,54,,,
352587,control_change,24,0,12,,,,,,,,,11,11,62,,,
352588,control_change,48,0,2,,,,,,,,,1,11,54,,,
352589,control_change,48,0,3,,,,,,,,,2,11,54,,,
352592,control_change,48,0,13,,,,,,,,,12,11,62,,,
352593,control_change,48,0,4,,,,,,,,,3,11,55,,,
352593,note_on,6,0,12,,,,,,,,,11,,,,77,0
352596,control_change,24,0,14,,,,,,,,,13,11,62,,,
352598,control_change,24,0,15,,,,,,,,,14,11,62,,,
352620,note_on,36,0,11,,,,,,,,,10,,,,80,0
352623,note_on,30,0,12,,,,,,,,,11,,,,75,112
352632,control_change,12,0,11,,,,,,,,,10,11,63,,,
352632,note_on,36,0,14,,,,,,,,,13,,,,48,0
352633,control_change,48,0,1,,,,,,,,,0,11,55,,,
352634,note_on,36,0,15,,,,,,,,,14,,,,36,0
352635,control_change,12,0,12,,,,,,,,,11,11,63,,,
352636,control_change,48,0,2,,,,,,,,,1,11,55,,,
352637,control_change,48,0,3,,,,,,,,,2,11,55,,,
352640,control_change,48,0,13,,,,,,,,,12,11,63,,,
352641,control_change,48,0,4,,,,,,,,,3,11,56,,,
352644,control_change,12,0,14,,,,,,,,,13,11,63,,,
352646,control_change,12,0,15,,,,,,,,,14,11,63,,,
352653,note_on,18,0,12,,,,,,,,,11,,,,75,0
352680,note_on,48,0,11,,,,,,,,,10,,,,80,112
352680,control_change,0,0,11,,,,,,,,,10,11,64,,,
352680,set_tempo,120,1,0,,,,,,288462,,,,,,,,
352681,note_on,0,0,1,,,,,,,,,0,,,,75,101
352681,control_change,48,0,1,,,,,,,,,0,11,55,,,
352681,note_on,0,0,1,,,,,,,,,0,,,,80,101
352683,control_change,0,0,12,,,,,,,,,11,11,64,,,
352683,note_on,30,0,12,,,,,,,,,11,,,,77,112
352684,note_on,0,0,2,,,,,,,,,1,,,,75,100
352684,note_on,48,0,2,,,,,,,,,1,,,,80,100
352684,control_change,0,0,2,,,,,,,,,1,11,55,,,
352685,note_on,48,0,3,,,,,,,,,2,,,,63,101
352685,control_change,0,0,3,,,,,,,,,2,11,55,,,
352685,note_on,0,0,3,,,,,,,,,2,,,,68,101
352688,control_change,48,0,13,,,,,,,,,12,11,64,,,
352689,note_on,0,0,4,,,,,,,,,3,,,,48,100
352689,note_on,0,0,4,,,,,,,,,3,,,,56,100
352689,control_change,48,0,4,,,,,,,,,3,11,57,,,
352692,control_change,0,0,14,,,,,,,,,13,11,64,,,
352692,note_on,48,0,14,,,,,,,,,13,,,,48,112
352694,control_change,0,0,15,,,,,,,,,14,11,64,,,
352694,note_on,48,0,15,,,,,,,,,14,,,,36,112
352713,note_on,30,0,12,,,,,,,,,11,,,,77,0
352728,control_change,48,0,11,,,,,,,,,10,11,65,,,
352729,control_change,48,0,1,,,,,,,,,0,11,56,,,
352731,control_change,18,0,12,,,,,,,,,11,11,65,,,
352732,control_change,48,0,2,,,,,,,,,1,11,56,,,
352733,control_change,48,0,3,,,,,,,,,2,11,56,,,
352736,control_change,48,0,13,,,,,,,,,12,11,65,,,
352737,control_change,48,0,4,,,,,,,,,3,11,58,,,
352740,note_on,12,0,11,,,,,,,,,10,,,,80,0
352740,control_change,48,0,14,,,,,,,,,13,11,65,,,
352742,control_change,48,0,15,,,,,,,,,14,11,65,,,
352743,note_on,12,0,12,,,,,,,,,11,,,,75,112
352752,note_on,12,0,14,,,,,,,,,13,,,,48,0
352754,note_on,12,0,15,,,,,,,,,14,,,,36,0
352773,note_on,30,0,12,,,,,,,,,11,,,,75,0
352776,note_on,47,0,1,,,,,,,,,0,,,,75,0
352776,note_on,0,0,1,,,,,,,,,0,,,,80,0
352776,control_change,36,0,11,,,,,,,,,10,11,66,,,
352777,control_change,1,0,1,,,,,,,,,0,11,57,,,
352779,note_on,47,0,2,,,,,,,,,1,,,,75,0
352779,note_on,0,0,2,,,,,,,,,1,,,,80,0
352779,control_change,6,0,12,,,,,,,,,11,11,66,,,
352780,note_on,47,0,3,,,,,,,,,2,,,,68,0
352780,control_change,1,0,2,,,,,,,,,1,11,57,,,
352780,note_on,0,0,3,,,,,,,,,2,,,,63,0
352781,control_change,1,0,3,,,,,,,,,2,11,57,,,
352784,note_on,47,0,4,,,,,,,,,3,,,,56,0
352784,note_on,0,0,4,,,,,,,,,3,,,,48,0
352784,control_change,48,0,13,,,,,,,,,12,11,66,,,
352785,control_change,1,0,4,,,,,,,,,3,11,59,,,
352788,control_change,36,0,14,,,,,,,,,13,11,66,,,
352790,control_change,36,0,15,,,,,,,,,14,11,66,,,
352800,note_on,24,0,11,,,,,,,,,10,,,,79,112
352800,set_tempo,120,1,0,,,,,,254237,,,,,,,,
352803,note_on,24,0,12,,,,,,,,,11,,,,74,112
352808,note_on,24,0,13,,,,,,,,,12,,,,65,127
352812,note_on,24,0,14,,,,,,,,,13,,,,47,112
352814,note_on,24,0,15,,,,,,,,,14,,,,35,112
352824,control_change,24,0,11,,,,,,,,,10,11,67,,,
352825,control_change,48,0,1,,,,,,,,,0,11,58,,,
352827,control_change,24,0,12,,,,,,,,,11,11,67,,,
352828,control_change,48,0,2,,,,,,,,,1,11,58,,,
352829,control_change,48,0,3,,,,,,,,,2,11,58,,,
352832,control_change,24,0,13,,,,,,,,,12,11,67,,,
352833,control_change,48,0,4,,,,,,,,,3,11,60,,,
352836,control_change,24,0,14,,,,,,,,,13,11,67,,,
352838,note_on,6,0,13,,,,,,,,,12,,,,65,0
352838,control_change,24,0,15,,,,,,,,,14,11,67,,,
352860,note_on,36,0,11,,,,,,,,,10,,,,79,0
352863,note_on,36,0,12,,,,,,,,,11,,,,74,0
352868,note_on,30,0,13,,,,,,,,,12,,,,65,112
352872,control_change,12,0,11,,,,,,,,,10,11,68,,,
352873,control_change,48,0,1,,,,,,,,,0,11,58,,,
352875,control_change,12,0,12,,,,,,,,,11,11,68,,,
352876,control_change,48,0,2,,,,,,,,,1,11,58,,,
352877,control_change,48,0,3,,,,,,,,,2,11,58,,,
352880,control_change,12,0,13,,,,,,,,,12,11,68,,,
352881,control_change,48,0,4,,,,,,,,,3,11,61,,,
352884,control_change,48,0,14,,,,,,,,,13,11,68,,,
352886,control_change,48,0,15,,,,,,,,,14,11,68,,,
352898,note_on,18,0,13,,,,,,,,,12,,,,65,0
352920,set_tempo,120,1,0,,,,,,263158,,,,,,,,
352920,control_change,0,0,11,,,,,,,,,10,11,69,,,
352920,note_on,48,0,11,,,,,,,,,10,,,,79,112
352921,control_change,48,0,1,,,,,,,,,0,11,59,,,
352923,note_on,48,0,12,,,,,,,,,11,,,,74,112
352923,control_change,0,0,12,,,,,,,,,11,11,69,,,
352924,control_change,48,0,2,,,,,,,,,1,11,59,,,
352925,control_change,48,0,3,,,,,,,,,2,11,59,,,
352928,control_change,30,0,13,,,,,,,,,12,11,69,,,
352928,note_on,0,0,13,,,,,,,,,12,,,,67,112
352929,control_change,48,0,4,,,,,,,,,3,11,62,,,
352932,control_change,48,0,14,,,,,,,,,13,11,69,,,
352934,control_change,48,0,15,,,,,,,,,14,11,69,,,
352958,note_on,30,0,13,,,,,,,,,12,,,,67,0
352968,control_change,48,0,11,,,,,,,,,10,11,70,,,
352969,control_change,48,0,1,,,,,,,,,0,11,60,,,
352971,control_change,48,0,12,,,,,,,,,11,11,70,,,
352972,control_change,48,0,2,,,,,,,,,1,11,60,,,
352973,control_change,48,0,3,,,,,,,,,2,11,60,,,
352976,control_change,18,0,13,,,,,,,,,12,11,70,,,
352977,control_change,48,0,4,,,,,,,,,3,11,63,,,
352980,control_change,48,0,14,,,,,,,,,13,11,70,,,
352980,note_on,12,0,11,,,,,,,,,10,,,,79,0
352982,control_change,48,0,15,,,,,,,,,14,11,70,,,
352983,note_on,12,0,12,,,,,,,,,11,,,,74,0
352988,note_on,12,0,13,,,,,,,,,12,,,,65,112
353016,control_change,36,0,11,,,,,,,,,10,11,71,,,
353017,control_change,48,0,1,,,,,,,,,0,11,61,,,
353018,note_on,30,0,13,,,,,,,,,12,,,,65,0
353019,control_change,36,0,12,,,,,,,,,11,11,71,,,
353020,control_change,48,0,2,,,,,,,,,1,11,61,,,
353021,control_change,48,0,3,,,,,,,,,2,11,61,,,
353024,control_change,6,0,13,,,,,,,,,12,11,71,,,
353025,control_change,48,0,4,,,,,,,,,3,11,64,,,
353028,control_change,48,0,14,,,,,,,,,13,11,71,,,
353030,control_change,48,0,15,,,,,,,,,14,11,71,,,
353040,set_tempo,120,1,0,,,,,,288462,,,,,,,,
353040,note_on,24,0,11,,,,,,,,,10,,,,60,112
353041,note_on,0,0,1,,,,,,,,,0,,,,74,101
353041,note_on,24,0,1,,,,,,,,,0,,,,79,101
353043,note_on,24,0,12,,,,,,,,,11,,,,60,112
353044,note_on,0,0,2,,,,,,,,,1,,,,74,100
353044,note_on,24,0,2,,,,,,,,,1,,,,79,100
353045,note_on,0,0,3,,,,,,,,,2,,,,67,101
353045,note_on,24,0,3,,,,,,,,,2,,,,62,101
353047,program_change,23,0,13,,,,,,,,50,12,,,,,
353048,note_on,1,0,13,,,,,,,,,12,,,,60,112
353049,note_on,24,0,4,,,,,,,,,3,,,,47,100
353049,note_on,0,0,4,,,,,,,,,3,,,,55,100
353052,note_on,24,0,14,,,,,,,,,13,,,,47,0
353052,note_on,0,0,14,,,,,,,,,13,,,,48,112
353054,note_on,24,0,15,,,,,,,,,14,,,,35,0
353054,note_on,0,0,15,,,,,,,,,14,,,,36,112
353064,control_change,24,0,11,,,,,,,,,10,11,72,,,
353065,control_change,24,0,1,,,,,,,,,0,11,61,,,
353067,control_change,24,0,12,,,,,,,,,11,11,72,,,
353068,control_change,24,0,2,,,,,,,,,1,11,61,,,
353069,control_change,24,0,3,,,,,,,,,2,11,61,,,
353070,note_on,6,0,11,,,,,,,,,10,,,,60,0
353072,control_change,24,0,13,,,,,,,,,12,11,72,,,
353073,note_on,6,0,12,,,,,,,,,11,,,,60,0
353073,control_change,24,0,4,,,,,,,,,3,11,65,,,
353076,control_change,24,0,14,,,,,,,,,13,11,72,,,
353078,note_on,6,0,13,,,,,,,,,12,,,,60,0
353078,control_change,24,0,15,,,,,,,,,14,11,72,,,
353082,note_on,6,0,14,,,,,,,,,13,,,,48,0
353084,note_on,6,0,15,,,,,,,,,14,,,,36,0
353100,note_on,30,0,11,,,,,,,,,10,,,,59,112
353101,note_on,0,0,1,,,,,,,,,0,,,,79,0
353101,note_on,36,0,1,,,,,,,,,0,,,,74,0
353103,note_on,30,0,12,,,,,,,,,11,,,,59,112
353104,note_on,0,0,2,,,,,,,,,1,,,,79,0
353104,note_on,36,0,2,,,,,,,,,1,,,,74,0
353105,note_on,36,0,3,,,,,,,,,2,,,,67,0
353105,note_on,0,0,3,,,,,,,,,2,,,,62,0
353108,note_on,30,0,13,,,,,,,,,12,,,,59,112
353109,note_on,36,0,4,,,,,,,,,3,,,,55,0
353109,note_on,0,0,4,,,,,,,,,3,,,,47,0
353112,note_on,30,0,14,,,,,,,,,13,,,,47,112
353112,control_change,12,0,11,,,,,,,,,10,11,72,,,
353113,control_change,12,0,1,,,,,,,,,0,11,62,,,
353114,note_on,30,0,15,,,,,,,,,14,,,,35,112
353115,control_change,12,0,12,,,,,,,,,11,11,72,,,
353116,control_change,12,0,2,,,,,,,,,1,11,62,,,
353117,control_change,12,0,3,,,,,,,,,2,11,62,,,
353120,control_change,12,0,13,,,,,,,,,12,11,72,,,
353121,control_change,12,0,4,,,,,,,,,3,11,66,,,
353124,control_change,12,0,14,,,,,,,,,13,11,72,,,
353126,control_change,12,0,15,,,,,,,,,14,11,72,,,
353130,note_on,18,0,11,,,,,,,,,10,,,,59,0
353133,note_on,18,0,12,,,,,,,,,11,,,,59,0
353138,note_on,18,0,13,,,,,,,,,12,,,,59,0
353142,note_on,18,0,14,,,,,,,,,13,,,,47,0
353144,note_on,18,0,15,,,,,,,,,14,,,,35,0
353160,set_tempo,120,1,0,,,,,,265487,,,,,,,,
353160,note_on,0,0,11,,,,,,,,,10,,,,62,112
353160,control_change,30,0,11,,,,,,,,,10,11,73,,,
353161,note_on,0,0,1,,,,,,,,,0,,,,80,101
353161,note_on,0,0,1,,,,,,,,,0,,,,75,101
353161,control_change,48,0,1,,,,,,,,,0,11,63,,,
353163,control_change,0,0,12,,,,,,,,,11,11,73,,,
353163,note_on,30,0,12,,,,,,,,,11,,,,62,112
353164,note_on,48,0,2,,,,,,,,,1,,,,75,100
353164,note_on,0,0,2,,,,,,,,,1,,,,80,100
353164,control_change,0,0,2,,,,,,,,,1,11,63,,,
353165,note_on,0,0,3,,,,,,,,,2,,,,68,101
353165,note_on,0,0,3,,,,,,,,,2,,,,63,101
353165,control_change,48,0,3,,,,,,,,,2,11,63,,,
353168,note_on,30,0,13,,,,,,,,,12,,,,62,112
353168,control_change,0,0,13,,,,,,,,,12,11,73,,,
353169,note_on,48,0,4,,,,,,,,,3,,,,48,100
353169,control_change,0,0,4,,,,,,,,,3,11,67,,,
353169,note_on,0,0,4,,,,,,,,,3,,,,56,100
353172,control_change,0,0,14,,,,,,,,,13,11,73,,,
353172,note_on,30,0,14,,,,,,,,,13,,,,50,112
353174,control_change,30,0,15,,,,,,,,,14,11,73,,,
353174,note_on,0,0,15,,,,,,,,,14,,,,38,112
353190,note_on,30,0,11,,,,,,,,,10,,,,62,0
353193,note_on,30,0,12,,,,,,,,,11,,,,62,0
353198,note_on,30,0,13,,,,,,,,,12,,,,62,0
353202,note_on,30,0,14,,,,,,,,,13,,,,50,0
353204,note_on,30,0,15,,,,,,,,,14,,,,38,0
353208,control_change,18,0,11,,,,,,,,,10,11,74,,,
353209,control_change,48,0,1,,,,,,,,,0,11,64,,,
353211,control_change,18,0,12,,,,,,,,,11,11,74,,,
353212,control_change,48,0,2,,,,,,,,,1,11,64,,,
353213,control_change,48,0,3,,,,,,,,,2,11,64,,,
353216,control_change,18,0,13,,,,,,,,,12,11,74,,,
353217,control_change,48,0,4,,,,,,,,,3,11,68,,,
353220,note_on,12,0,11,,,,,,,,,10,,,,60,112
353220,control_change,18,0,14,,,,,,,,,13,11,74,,,
353221,note_on,0,0,1,,,,,,,,,0,,,,75,0
353221,note_on,12,0,1,,,,,,,,,0,,,,80,0
353222,control_change,18,0,15,,,,,,,,,14,11,74,,,
353223,note_on,12,0,12,,,,,,,,,11,,,,60,112
353224,note_on,0,0,2,,,,,,,,,1,,,,75,0
353224,note_on,12,0,2,,,,,,,,,1,,,,80,0
353225,note_on,0,0,3,,,,,,,,,2,,,,63,0
353225,note_on,12,0,3,,,,,,,,,2,,,,68,0
353228,note_on,12,0,13,,,,,,,,,12,,,,60,112
353229,note_on,12,0,4,,,,,,,,,3,,,,56,0
353229,note_on,0,0,4,,,,,,,,,3,,,,48,0
353232,note_on,12,0,14,,,,,,,,,13,,,,48,112
353234,note_on,12,0,15,,,,,,,,,14,,,,36,112
353250,note_on,30,0,11,,,,,,,,,10,,,,60,0
353253,note_on,30,0,12,,,,,,,,,11,,,,60,0
353256,control_change,6,0,11,,,,,,,,,10,11,75,,,
353257,control_change,36,0,1,,,,,,,,,0,11,64,,,
353258,note_on,30,0,13,,,,,,,,,12,,,,60,0
353259,control_change,6,0,12,,,,,,,,,11,11,75,,,
353260,control_change,36,0,2,,,,,,,,,1,11,64,,,
353261,control_change,36,0,3,,,,,,,,,2,11,64,,,
353262,note_on,30,0,14,,,,,,,,,13,,,,48,0
353264,control_change,6,0,13,,,,,,,,,12,11,75,,,
353264,note_on,30,0,15,,,,,,,,,14,,,,36,0
353265,control_change,36,0,4,,,,,,,,,3,11,69,,,
353268,control_change,6,0,14,,,,,,,,,13,11,75,,,
353270,control_change,6,0,15,,,,,,,,,14,11,75,,,
353280,note_on,24,0,11,,,,,,,,,10,,,,63,112
353281,note_on,24,0,1,,,,,,,,,0,,,,83,101
353281,note_on,0,0,1,,,,,,,,,0,,,,77,101
353283,note_on,24,0,12,,,,,,,,,11,,,,63,112
353284,note_on,24,0,2,,,,,,,,,1,,,,77,100
353284,note_on,0,0,2,,,,,,,,,1,,,,83,100
353285,note_on,24,0,3,,,,,,,,,2,,,,65,101
353285,note_on,0,0,3,,,,,,,,,2,,,,71,101
353288,note_on,24,0,13,,,,,,,,,12,,,,63,112
353289,note_on,0,0,4,,,,,,,,,3,,,,59,100
353289,note_on,24,0,4,,,,,,,,,3,,,,50,100
353292,note_on,24,0,14,,,,,,,,,13,,,,51,112
353294,note_on,24,0,15,,,,,,,,,14,,,,39,112
353304,control_change,24,0,11,,,,,,,,,10,11,76,,,
353305,control_change,24,0,1,,,,,,,,,0,11,65,,,
353307,control_change,24,0,12,,,,,,,,,11,11,76,,,
353308,control_change,24,0,2,,,,,,,,,1,11,65,,,
353309,control_change,24,0,3,,,,,,,,,2,11,65,,,
353310,note_on,6,0,11,,,,,,,,,10,,,,63,0
353312,control_change,24,0,13,,,,,,,,,12,11,76,,,
353313,note_on,6,0,12,,,,,,,,,11,,,,63,0
353313,control_change,24,0,4,,,,,,,,,3,11,70,,,
353316,control_change,24,0,14,,,,,,,,,13,11,76,,,
353318,note_on,6,0,13,,,,,,,,,12,,,,63,0
353318,control_change,24,0,15,,,,,,,,,14,11,76,,,
353322,note_on,6,0,14,,,,,,,,,13,,,,51,0
353324,note_on,6,0,15,,,,,,,,,14,,,,39,0
353340,note_on,30,0,11,,,,,,,,,10,,,,62,112
353341,note_on,36,0,1,,,,,,,,,0,,,,77,0
353341,note_on,0,0,1,,,,,,,,,0,,,,83,0
353343,note_on,30,0,12,,,,,,,,,11,,,,62,112
353344,note_on,36,0,2,,,,,,,,,1,,,,83,0
353344,note_on,0,0,2,,,,,,,,,1,,,,77,0
353345,note_on,36,0,3,,,,,,,,,2,,,,71,0
353345,note_on,0,0,3,,,,,,,,,2,,,,65,0
353348,note_on,30,0,13,,,,,,,,,12,,,,62,112
353349,note_on,36,0,4,,,,,,,,,3,,,,59,0
353349,note_on,0,0,4,,,,,,,,,3,,,,50,0
353352,control_change,12,0,11,,,,,,,,,10,11,77,,,
353352,note_on,30,0,14,,,,,,,,,13,,,,50,112
353353,control_change,12,0,1,,,,,,,,,0,11,66,,,
353354,note_on,30,0,15,,,,,,,,,14,,,,38,112
353355,control_change,12,0,12,,,,,,,,,11,11,77,,,
353356,control_change,12,0,2,,,,,,,,,1,11,66,,,
353357,control_change,12,0,3,,,,,,,,,2,11,66,,,
353360,control_change,12,0,13,,,,,,,,,12,11,77,,,
353361,control_change,12,0,4,,,,,,,,,3,11,71,,,
353364,control_change,12,0,14,,,,,,,,,13,11,77,,,
353366,control_change,12,0,15,,,,,,,,,14,11,77,,,
353370,note_on,18,0,11,,,,,,,,,10,,,,62,0
353373,note_on,18,0,12,,,,,,,,,11,,,,62,0
353378,note_on,18,0,13,,,,,,,,,12,,,,62,0
353382,note_on,18,0,14,,,,,,,,,13,,,,50,0
353384,note_on,18,0,15,,,,,,,,,14,,,,38,0
353400,set_tempo,240,1,0,,,,,,279070,,,,,,,,
353400,control_change,30,0,11,,,,,,,,,10,11,78,,,
353400,note_on,0,0,11,,,,,,,,,10,,,,65,112
353401,note_on,48,0,1,,,,,,,,,0,,,,79,101
353401,control_change,0,0,1,,,,,,,,,0,11,67,,,
353401,note_on,0,0,1,,,,,,,,,0,,,,84,101
353403,control_change,0,0,12,,,,,,,,,11,11,78,,,
353403,note_on,30,0,12,,,,,,,,,11,,,,65,112
353404,note_on,0,0,2,,,,,,,,,1,,,,79,100
353404,control_change,48,0,2,,,,,,,,,1,11,67,,,
353404,note_on,0,0,2,,,,,,,,,1,,,,84,100
353405,note_on,0,0,3,,,,,,,,,2,,,,72,101
353405,note_on,48,0,3,,,,,,,,,2,,,,67,101
353405,control_change,0,0,3,,,,,,,,,2,11,67,,,
353408,control_change,0,0,13,,,,,,,,,12,11,78,,,
353408,note_on,30,0,13,,,,,,,,,12,,,,65,112
353409,note_on,48,0,4,,,,,,,,,3,,,,60,100
353409,control_change,0,0,4,,,,,,,,,3,11,72,,,
353409,note_on,0,0,4,,,,,,,,,3,,,,51,100
353412,control_change,30,0,14,,,,,,,,,13,11,78,,,
353412,note_on,0,0,14,,,,,,,,,13,,,,53,112
353414,control_change,30,0,15,,,,,,,,,14,11,78,,,
353414,note_on,0,0,15,,,,,,,,,14,,,,41,112
353430,note_on,30,0,11,,,,,,,,,10,,,,65,0
353433,note_on,30,0,12,,,,,,,,,11,,,,65,0
353438,note_on,30,0,13,,,,,,,,,12,,,,65,0
353442,note_on,30,0,14,,,,,,,,,13,,,,53,0
353444,note_on,30,0,15,,,,,,,,,14,,,,41,0
353448,control_change,18,0,11,,,,,,,,,10,11,79,,,
353449,control_change,48,0,1,,,,,,,,,0,11,67,,,
353451,control_change,18,0,12,,,,,,,,,11,11,79,,,
353452,control_change,48,0,2,,,,,,,,,1,11,67,,,
353453,control_change,48,0,3,,,,,,,,,2,11,67,,,
353456,control_change,18,0,13,,,,,,,,,12,11,79,,,
353457,control_change,48,0,4,,,,,,,,,3,11,73,,,
353460,note_on,12,0,11,,,,,,,,,10,,,,63,112
353460,control_change,18,0,14,,,,,,,,,13,11,79,,,
353461,note_on,0,0,1,,,,,,,,,0,,,,79,0
353461,note_on,12,0,1,,,,,,,,,0,,,,84,0
353462,control_change,18,0,15,,,,,,,,,14,11,79,,,
353463,note_on,12,0,12,,,,,,,,,11,,,,63,112
353464,note_on,0,0,2,,,,,,,,,1,,,,79,0
353464,note_on,12,0,2,,,,,,,,,1,,,,84,0
353465,note_on,12,0,3,,,,,,,,,2,,,,72,0
353465,note_on,0,0,3,,,,,,,,,2,,,,67,0
353468,note_on,12,0,13,,,,,,,,,12,,,,63,112
353469,note_on,12,0,4,,,,,,,,,3,,,,51,0
353469,note_on,0,0,4,,,,,,,,,3,,,,60,0
353472,note_on,12,0,14,,,,,,,,,13,,,,51,112
353474,note_on,12,0,15,,,,,,,,,14,,,,39,112
353490,note_on,30,0,11,,,,,,,,,10,,,,63,0
353493,note_on,30,0,12,,,,,,,,,11,,,,63,0
353496,control_change,6,0,11,,,,,,,,,10,11,80,,,
353497,control_change,36,0,1,,,,,,,,,0,11,68,,,
353498,note_on,30,0,13,,,,,,,,,12,,,,63,0
353499,control_change,6,0,12,,,,,,,,,11,11,80,,,
353500,control_change,36,0,2,,,,,,,,,1,11,68,,,
353501,control_change,36,0,3,,,,,,,,,2,11,68,,,
353502,note_on,30,0,14,,,,,,,,,13,,,,51,0
353504,control_change,6,0,13,,,,,,,,,12,11,80,,,
353504,note_on,30,0,15,,,,,,,,,14,,,,39,0
353505,control_change,36,0,4,,,,,,,,,3,11,74,,,
353508,control_change,6,0,14,,,,,,,,,13,11,80,,,
353510,control_change,6,0,15,,,,,,,,,14,11,80,,,
353520,set_tempo,120,1,0,,,,,,265487,,,,,,,,
353520,note_on,24,0,11,,,,,,,,,10,,,,67,112
353521,note_on,0,0,1,,,,,,,,,0,,,,80,101
353521,note_on,24,0,1,,,,,,,,,0,,,,86,101
353523,note_on,24,0,12,,,,,,,,,11,,,,67,112
353524,note_on,0,0,2,,,,,,,,,1,,,,68,100
353524,note_on,24,0,2,,,,,,,,,1,,,,74,100
353525,note_on,24,0,3,,,,,,,,,2,,,,68,101
353525,note_on,0,0,3,,,,,,,,,2,,,,74,101
353528,note_on,24,0,13,,,,,,,,,12,,,,67,112
353529,note_on,0,0,4,,,,,,,,,3,,,,53,100
353529,note_on,24,0,4,,,,,,,,,3,,,,62,100
353532,note_on,24,0,14,,,,,,,,,13,,,,55,112
353534,note_on,24,0,15,,,,,,,,,14,,,,43,112
353544,control_change,24,0,11,,,,,,,,,10,11,81,,,
353545,control_change,24,0,1,,,,,,,,,0,11,69,,,
353547,control_change,24,0,12,,,,,,,,,11,11,81,,,
353548,control_change,24,0,2,,,,,,,,,1,11,69,,,
353549,control_change,24,0,3,,,,,,,,,2,11,69,,,
353550,note_on,6,0,11,,,,,,,,,10,,,,67,0
353552,control_change,24,0,13,,,,,,,,,12,11,81,,,
353553,note_on,6,0,12,,,,,,,,,11,,,,67,0
353553,control_change,24,0,4,,,,,,,,,3,11,75,,,
353556,control_change,24,0,14,,,,,,,,,13,11,81,,,
353558,control_change,24,0,15,,,,,,,,,14,11,81,,,
353558,note_on,6,0,13,,,,,,,,,12,,,,67,0
353562,note_on,6,0,14,,,,,,,,,13,,,,55,0
353564,note_on,6,0,15,,,,,,,,,14,,,,43,0
353580,note_on,30,0,11,,,,,,,,,10,,,,65,112
353581,note_on,0,0,1,,,,,,,,,0,,,,86,0
353581,note_on,36,0,1,,,,,,,,,0,,,,80,0
353583,note_on,30,0,12,,,,,,,,,11,,,,65,112
353584,note_on,0,0,2,,,,,,,,,1,,,,74,0
353584,note_on,36,0,2,,,,,,,,,1,,,,68,0
353585,note_on,36,0,3,,,,,,,,,2,,,,74,0
353585,note_on,0,0,3,,,,,,,,,2,,,,68,0
353588,note_on,30,0,13,,,,,,,,,12,,,,65,112
353589,note_on,36,0,4,,,,,,,,,3,,,,53,0
353589,note_on,0,0,4,,,,,,,,,3,,,,62,0
353592,control_change,12,0,11,,,,,,,,,10,11,82,,,
353592,note_on,30,0,14,,,,,,,,,13,,,,53,112
353593,control_change,12,0,1,,,,,,,,,0,11,70,,,
353594,note_on,30,0,15,,,,,,,,,14,,,,41,112
353595,control_change,12,0,12,,,,,,,,,11,11,82,,,
353596,control_change,12,0,2,,,,,,,,,1,11,70,,,
353597,control_change,12,0,3,,,,,,,,,2,11,70,,,
353600,control_change,12,0,13,,,,,,,,,12,11,82,,,
353601,control_change,12,0,4,,,,,,,,,3,11,76,,,
353604,control_change,12,0,14,,,,,,,,,13,11,82,,,
353606,control_change,12,0,15,,,,,,,,,14,11,82,,,
353610,note_on,18,0,11,,,,,,,,,10,,,,65,0
353613,note_on,18,0,12,,,,,,,,,11,,,,65,0
353618,note_on,18,0,13,,,,,,,,,12,,,,65,0
353622,note_on,18,0,14,,,,,,,,,13,,,,53,0
353624,note_on,18,0,15,,,,,,,,,14,,,,41,0
353640,control_change,30,0,11,,,,,,,,,10,11,83,,,
353640,note_on,0,0,11,,,,,,,,,10,,,,68,112
353641,note_on,0,0,1,,,,,,,,,0,,,,82,101
353641,note_on,0,0,1,,,,,,,,,0,,,,87,101
353641,control_change,48,0,1,,,,,,,,,0,11,70,,,
353643,note_on,30,0,12,,,,,,,,,11,,,,68,112
353643,control_change,0,0,12,,,,,,,,,11,11,83,,,
353644,note_on,48,0,2,,,,,,,,,1,,,,70,100
353644,note_on,0,0,2,,,,,,,,,1,,,,75,100
353644,control_change,0,0,2,,,,,,,,,1,11,70,,,
353645,note_on,0,0,3,,,,,,,,,2,,,,75,101
353645,control_change,48,0,3,,,,,,,,,2,11,70,,,
353645,note_on,0,0,3,,,,,,,,,2,,,,70,101
353648,note_on,30,0,13,,,,,,,,,12,,,,68,112
353648,control_change,0,0,13,,,,,,,,,12,11,83,,,
353649,control_change,48,0,4,,,,,,,,,3,11,77,,,
353649,note_on,0,0,4,,,,,,,,,3,,,,55,100
353649,note_on,0,0,4,,,,,,,,,3,,,,63,100
353652,control_change,30,0,14,,,,,,,,,13,11,83,,,
353652,note_on,0,0,14,,,,,,,,,13,,,,56,112
353654,control_change,30,0,15,,,,,,,,,14,11,83,,,
353654,note_on,0,0,15,,,,,,,,,14,,,,44,112
353670,note_on,30,0,11,,,,,,,,,10,,,,68,0
353673,note_on,30,0,12,,,,,,,,,11,,,,68,0
353678,note_on,30,0,13,,,,,,,,,12,,,,68,0
353682,note_on,30,0,14,,,,,,,,,13,,,,56,0
353684,note_on,30,0,15,,,,,,,,,14,,,,44,0
353688,control_change,18,0,11,,,,,,,,,10,11,84,,,
353689,control_change,48,0,1,,,,,,,,,0,11,71,,,
353691,control_change,18,0,12,,,,,,,,,11,11,84,,,
353692,control_change,48,0,2,,,,,,,,,1,11,71,,,
353693,control_change,48,0,3,,,,,,,,,2,11,71,,,
353696,control_change,18,0,13,,,,,,,,,12,11,84,,,
353697,control_change,48,0,4,,,,,,,,,3,11,78,,,
353700,control_change,18,0,14,,,,,,,,,13,11,84,,,
353700,note_on,12,0,11,,,,,,,,,10,,,,67,112
353701,note_on,0,0,1,,,,,,,,,0,,,,82,0
353701,note_on,12,0,1,,,,,,,,,0,,,,87,0
353702,control_change,18,0,15,,,,,,,,,14,11,84,,,
353703,note_on,12,0,12,,,,,,,,,11,,,,67,112
353704,note_on,0,0,2,,,,,,,,,1,,,,70,0
353704,note_on,12,0,2,,,,,,,,,1,,,,75,0
353705,note_on,0,0,3,,,,,,,,,2,,,,70,0
353705,note_on,12,0,3,,,,,,,,,2,,,,75,0
353708,note_on,12,0,13,,,,,,,,,12,,,,67,112
353709,note_on,12,0,4,,,,,,,,,3,,,,63,0
353709,note_on,0,0,4,,,,,,,,,3,,,,55,0
353712,note_on,12,0,14,,,,,,,,,13,,,,55,112
353714,note_on,12,0,15,,,,,,,,,14,,,,43,112
353730,note_on,30,0,11,,,,,,,,,10,,,,67,0
353733,note_on,30,0,12,,,,,,,,,11,,,,67,0
353736,control_change,6,0,11,,,,,,,,,10,11,85,,,
353737,control_change,36,0,1,,,,,,,,,0,11,72,,,
353738,note_on,30,0,13,,,,,,,,,12,,,,67,0
353739,control_change,6,0,12,,,,,,,,,11,11,85,,,
353740,control_change,36,0,2,,,,,,,,,1,11,72,,,
353741,control_change,36,0,3,,,,,,,,,2,11,72,,,
353742,note_on,30,0,14,,,,,,,,,13,,,,55,0
353744,note_on,30,0,15,,,,,,,,,14,,,,43,0
353744,control_change,6,0,13,,,,,,,,,12,11,85,,,
353745,control_change,36,0,4,,,,,,,,,3,11,79,,,
353748,control_change,6,0,14,,,,,,,,,13,11,85,,,
353750,control_change,6,0,15,,,,,,,,,14,11,85,,,
353760,note_on,24,0,11,,,,,,,,,10,,,,70,112
353760,set_tempo,240,1,0,,,,,,279070,,,,,,,,
353761,note_on,24,0,1,,,,,,,,,0,,,,90,101
353761,note_on,0,0,1,,,,,,,,,0,,,,87,101
353763,note_on,24,0,12,,,,,,,,,11,,,,70,112
353764,note_on,24,0,2,,,,,,,,,1,,,,78,100
353764,note_on,0,0,2,,,,,,,,,1,,,,72,100
353765,note_on,0,0,3,,,,,,,,,2,,,,66,101
353765,note_on,24,0,3,,,,,,,,,2,,,,75,101
353768,note_on,24,0,13,,,,,,,,,12,,,,70,112
353769,note_on,24,0,4,,,,,,,,,3,,,,56,100
353769,note_on,0,0,4,,,,,,,,,3,,,,66,100
353772,note_on,24,0,14,,,,,,,,,13,,,,58,112
353774,note_on,24,0,15,,,,,,,,,14,,,,46,112
353784,control_change,24,0,11,,,,,,,,,10,11,86,,,
353785,control_change,24,0,1,,,,,,,,,0,11,73,,,
353787,control_change,24,0,12,,,,,,,,,11,11,86,,,
353788,control_change,24,0,2,,,,,,,,,1,11,73,,,
353789,control_change,24,0,3,,,,,,,,,2,11,73,,,
353790,note_on,6,0,11,,,,,,,,,10,,,,70,0
353792,control_change,24,0,13,,,,,,,,,12,11,86,,,
353793,note_on,6,0,12,,,,,,,,,11,,,,70,0
353793,control_change,24,0,4,,,,,,,,,3,11,80,,,
353796,control_change,24,0,14,,,,,,,,,13,11,86,,,
353798,control_change,24,0,15,,,,,,,,,14,11,86,,,
353798,note_on,6,0,13,,,,,,,,,12,,,,70,0
353802,note_on,6,0,14,,,,,,,,,13,,,,58,0
353804,note_on,6,0,15,,,,,,,,,14,,,,46,0
353820,note_on,30,0,11,,,,,,,,,10,,,,68,112
353821,note_on,0,0,1,,,,,,,,,0,,,,90,0
353821,note_on,36,0,1,,,,,,,,,0,,,,87,0
353823,note_on,30,0,12,,,,,,,,,11,,,,68,112
353824,note_on,0,0,2,,,,,,,,,1,,,,78,0
353824,note_on,36,0,2,,,,,,,,,1,,,,72,0
353825,note_on,0,0,3,,,,,,,,,2,,,,75,0
353825,note_on,36,0,3,,,,,,,,,2,,,,66,0
353828,note_on,30,0,13,,,,,,,,,12,,,,68,112
353829,note_on,36,0,4,,,,,,,,,3,,,,66,0
353829,note_on,0,0,4,,,,,,,,,3,,,,56,0
353832,control_change,12,0,11,,,,,,,,,10,11,87,,,
353832,note_on,30,0,14,,,,,,,,,13,,,,56,112
353833,control_change,12,0,1,,,,,,,,,0,11,73,,,
353834,note_on,30,0,15,,,,,,,,,14,,,,44,112
353835,control_change,12,0,12,,,,,,,,,11,11,87,,,
353836,control_change,12,0,2,,,,,,,,,1,11,73,,,
353837,control_change,12,0,3,,,,,,,,,2,11,73,,,
353840,control_change,12,0,13,,,,,,,,,12,11,87,,,
353841,control_change,12,0,4,,,,,,,,,3,11,81,,,
353844,control_change,12,0,14,,,,,,,,,13,11,87,,,
353846,control_change,12,0,15,,,,,,,,,14,11,87,,,
353850,note_on,18,0,11,,,,,,,,,10,,,,68,0
353853,note_on,18,0,12,,,,,,,,,11,,,,68,0
353858,note_on,18,0,13,,,,,,,,,12,,,,68,0
353862,note_on,18,0,14,,,,,,,,,13,,,,56,0
353864,note_on,18,0,15,,,,,,,,,14,,,,44,0
353880,set_tempo,120,1,0,,,,,,265487,,,,,,,,
353880,note_on,0,0,11,,,,,,,,,10,,,,67,112
353880,control_change,30,0,11,,,,,,,,,10,11,87,,,
353881,note_on,0,0,1,,,,,,,,,0,,,,91,101
353881,control_change,0,0,1,,,,,,,,,0,11,74,,,
353881,note_on,48,0,1,,,,,,,,,0,,,,88,101
353882,note_on,14050,0,7,,,,,,,,,6,,,,67,112
353882,control_change,0,0,7,,,,,,,,,6,11,87,,,
353882,note_on,0,0,7,,,,,,,,,6,,,,55,112
353883,note_on,30,0,12,,,,,,,,,11,,,,67,112
353883,control_change,0,0,12,,,,,,,,,11,11,87,,,
353883,control_change,0,0,5,,,,,,,,,4,11,87,,,
353883,note_on,7920,0,5,,,,,,,,,4,,,,64,100
353884,control_change,0,0,2,,,,,,,,,1,11,74,,,
353884,note_on,7920,0,6,,,,,,,,,5,,,,60,100
353884,control_change,0,0,6,,,,,,,,,5,11,87,,,
353884,note_on,0,0,2,,,,,,,,,1,,,,76,100
353884,note_on,48,0,2,,,,,,,,,1,,,,79,100
353885,note_on,48,0,3,,,,,,,,,2,,,,67,101
353885,control_change,0,0,3,,,,,,,,,2,11,74,,,
353885,note_on,0,0,3,,,,,,,,,2,,,,72,101
353887,control_change,0,0,8,,,,,,,,,7,11,87,,,
353887,note_on,14050,0,8,,,,,,,,,7,,,,64,110
353887,note_on,0,0,8,,,,,,,,,7,,,,60,110
353888,control_change,30,0,13,,,,,,,,,12,11,87,,,
353888,note_on,0,0,13,,,,,,,,,12,,,,67,112
353889,note_on,0,0,4,,,,,,,,,3,,,,55,100
353889,note_on,0,0,4,,,,,,,,,3,,,,67,100
353889,control_change,48,0,4,,,,,,,,,3,11,82,,,
353892,note_on,30,0,14,,,,,,,,,13,,,,55,112
353892,control_change,0,0,14,,,,,,,,,13,11,87,,,
353893,note_on,0,0,9,,,,,,,,,8,,,,55,110
353893,control_change,14050,0,9,,,,,,,,,8,11,87,,,
353894,control_change,30,0,15,,,,,,,,,14,11,87,,,
353894,note_on,0,0,15,,,,,,,,,14,,,,43,112
353895,note_on,14040,0,10,,,,,,,,,15,,,,43,85
353940,note_on,60,0,11,,,,,,,,,10,,,,67,0
353943,note_on,60,0,12,,,,,,,,,11,,,,67,0
353948,note_on,60,0,13,,,,,,,,,12,,,,67,0
353952,note_on,60,0,14,,,,,,,,,13,,,,55,0
353954,note_on,60,0,15,,,,,,,,,14,,,,43,0
354001,note_on,120,0,1,,,,,,,,,0,,,,91,0
354001,note_on,0,0,1,,,,,,,,,0,,,,88,0
354002,note_on,120,0,7,,,,,,,,,6,,,,55,0
354002,note_on,0,0,7,,,,,,,,,6,,,,67,0
354003,note_on,120,0,5,,,,,,,,,4,,,,64,0
354004,note_on,0,0,2,,,,,,,,,1,,,,79,0
354004,note_on,120,0,6,,,,,,,,,5,,,,60,0
354004,note_on,120,0,2,,,,,,,,,1,,,,76,0
354005,note_on,120,0,3,,,,,,,,,2,,,,72,0
354005,note_on,0,0,3,,,,,,,,,2,,,,67,0
354007,note_on,120,0,8,,,,,,,,,7,,,,60,0
354007,note_on,0,0,8,,,,,,,,,7,,,,64,0
354009,note_on,0,0,4,,,,,,,,,3,,,,67,0
354009,note_on,120,0,4,,,,,,,,,3,,,,55,0
354013,note_on,120,0,9,,,,,,,,,8,,,,55,0
354015,note_on,120,0,10,,,,,,,,,15,,,,43,0
354120,set_tempo,240,1,0,,,,,,295567,,,,,,,,
354240,note_on,300,0,11,,,,,,,,,10,,,,67,112
354240,control_change,0,0,11,,,,,,,,,10,11,102,,,
354240,note_on,0,0,11,,,,,,,,,10,,,,83,112
354240,note_on,0,0,11,,,,,,,,,10,,,,74,112
354240,set_tempo,120,1,0,,,,,,265487,,,,,,,,
354241,control_change,0,0,1,,,,,,,,,0,11,86,,,
354241,note_on,0,0,1,,,,,,,,,0,,,,83,101
354241,note_on,240,0,1,,,,,,,,,0,,,,86,101
354242,control_change,0,0,7,,,,,,,,,6,11,102,,,
354242,note_on,0,0,7,,,,,,,,,6,,,,67,112
354242,note_on,240,0,7,,,,,,,,,6,,,,55,112
354243,note_on,0,0,5,,,,,,,,,4,,,,62,100
354243,control_change,240,0,5,,,,,,,,,4,11,102,,,
354243,note_on,0,0,12,,,,,,,,,11,,,,62,112
354243,note_on,0,0,12,,,,,,,,,11,,,,71,112
354243,note_on,300,0,12,,,,,,,,,11,,,,79,112
354243,control_change,0,0,12,,,,,,,,,11,11,102,,,
354243,note_on,0,0,12,,,,,,,,,11,,,,55,112
354244,note_on,0,0,6,,,,,,,,,5,,,,55,100
354244,note_on,240,0,2,,,,,,,,,1,,,,77,100
354244,note_on,0,0,2,,,,,,,,,1,,,,83,100
354244,control_change,0,0,2,,,,,,,,,1,11,86,,,
354244,control_change,240,0,6,,,,,,,,,5,11,102,,,
354245,note_on,0,0,3,,,,,,,,,2,,,,71,101
354245,note_on,240,0,3,,,,,,,,,2,,,,74,101
354245,control_change,0,0,3,,,,,,,,,2,11,86,,,
354247,note_on,0,0,8,,,,,,,,,7,,,,62,110
354247,note_on,240,0,8,,,,,,,,,7,,,,59,110
354247,control_change,0,0,8,,,,,,,,,7,11,102,,,
354248,note_on,300,0,13,,,,,,,,,12,,,,62,112
354248,note_on,0,0,13,,,,,,,,,12,,,,55,112
354248,note_on,0,0,13,,,,,,,,,12,,,,71,112
354248,control_change,0,0,13,,,,,,,,,12,11,102,,,
354249,note_on,0,0,4,,,,,,,,,3,,,,59,100
354249,note_on,0,0,4,,,,,,,,,3,,,,65,100
354249,control_change,240,0,4,,,,,,,,,3,11,97,,,
354252,control_change,0,0,14,,,,,,,,,13,11,102,,,
354252,note_on,300,0,14,,,,,,,,,13,,,,43,112
354253,note_on,0,0,9,,,,,,,,,8,,,,43,110
354253,control_change,240,0,9,,,,,,,,,8,11,102,,,
354254,note_on,0,0,15,,,,,,,,,14,,,,31,112
354254,control_change,300,0,15,,,,,,,,,14,11,102,,,
354255,note_on,240,0,10,,,,,,,,,15,,,,43,85
354360,note_on,0,0,11,,,,,,,,,10,,,,74,0
354360,note_on,120,0,11,,,,,,,,,10,,,,83,0
354360,note_on,0,0,11,,,,,,,,,10,,,,67,0
354361,note_on,120,0,1,,,,,,,,,0,,,,83,0
354361,note_on,0,0,1,,,,,,,,,0,,,,86,0
354362,note_on,120,0,7,,,,,,,,,6,,,,67,0
354362,note_on,0,0,7,,,,,,,,,6,,,,55,0
354363,note_on,0,0,12,,,,,,,,,11,,,,79,0
354363,note_on,120,0,12,,,,,,,,,11,,,,71,0
354363,note_on,120,0,5,,,,,,,,,4,,,,62,0
354363,note_on,0,0,12,,,,,,,,,11,,,,55,0
354363,note_on,0,0,12,,,,,,,,,11,,,,62,0
354364,note_on,120,0,2,,,,,,,,,1,,,,83,0
354364,note_on,0,0,2,,,,,,,,,1,,,,77,0
354364,note_on,120,0,6,,,,,,,,,5,,,,55,0
354365,note_on,0,0,3,,,,,,,,,2,,,,74,0
354365,note_on,120,0,3,,,,,,,,,2,,,,71,0
354367,note_on,120,0,8,,,,,,,,,7,,,,62,0
354367,note_on,0,0,8,,,,,,,,,7,,,,59,0
354368,note_on,0,0,13,,,,,,,,,12,,,,55,0
354368,note_on,0,0,13,,,,,,,,,12,,,,62,0
354368,note_on,120,0,13,,,,,,,,,12,,,,71,0
354369,note_on,0,0,4,,,,,,,,,3,,,,59,0
354369,note_on,120,0,4,,,,,,,,,3,,,,65,0
354372,note_on,120,0,14,,,,,,,,,13,,,,43,0
354373,note_on,120,0,9,,,,,,,,,8,,,,43,0
354374,note_on,120,0,15,,,,,,,,,14,,,,31,0
354375,note_on,120,0,10,,,,,,,,,15,,,,43,0
354480,set_tempo,240,1,0,,,,,,295567,,,,,,,,
354600,note_on,240,0,11,,,,,,,,,10,,,,84,112
354600,note_on,0,0,11,,,,,,,,,10,,,,76,112
354600,note_on,0,0,11,,,,,,,,,10,,,,67,112
354600,set_tempo,120,1,0,,,,,,263158,,,,,,,,
354601,note_on,0,0,1,,,,,,,,,0,,,,84,101
354601,note_on,240,0,1,,,,,,,,,0,,,,88,101
354602,note_on,240,0,7,,,,,,,,,6,,,,60,112
354602,note_on,0,0,7,,,,,,,,,6,,,,72,112
354603,note_on,240,0,12,,,,,,,,,11,,,,76,112
354603,note_on,240,0,5,,,,,,,,,4,,,,60,100
354603,note_on,0,0,12,,,,,,,,,11,,,,60,112
354603,note_on,0,0,12,,,,,,,,,11,,,,67,112
354604,note_on,240,0,2,,,,,,,,,1,,,,76,100
354604,note_on,0,0,2,,,,,,,,,1,,,,84,100
354604,note_on,240,0,6,,,,,,,,,5,,,,52,100
354605,note_on,0,0,3,,,,,,,,,2,,,,72,101
354605,note_on,240,0,3,,,,,,,,,2,,,,76,101
354607,note_on,0,0,8,,,,,,,,,7,,,,60,110
354607,note_on,240,0,8,,,,,,,,,7,,,,64,110
354608,note_on,0,0,13,,,,,,,,,12,,,,72,112
354608,note_on,0,0,13,,,,,,,,,12,,,,64,112
354608,note_on,0,0,13,,,,,,,,,12,,,,48,112
354608,note_on,240,0,13,,,,,,,,,12,,,,55,112
354609,note_on,0,0,4,,,,,,,,,3,,,,60,100
354609,note_on,240,0,4,,,,,,,,,3,,,,64,100
354612,note_on,240,0,14,,,,,,,,,13,,,,48,112
354613,note_on,240,0,9,,,,,,,,,8,,,,48,110
354614,note_on,240,0,15,,,,,,,,,14,,,,36,112
354615,note_on,240,0,10,,,,,,,,,15,,,,48,85
354634,note_on,30,0,2,,,,,,,,,1,,,,84,0
354635,note_on,30,0,3,,,,,,,,,2,,,,76,0
354664,control_change,30,0,2,,,,,,,,,1,11,47,,,
354664,note_on,0,0,2,,,,,,,,,1,,,,79,100
354665,note_on,30,0,3,,,,,,,,,2,,,,67,101
354665,control_change,0,0,3,,,,,,,,,2,11,47,,,
354694,note_on,30,0,2,,,,,,,,,1,,,,79,0
354695,note_on,30,0,3,,,,,,,,,2,,,,67,0
354720,note_on,0,0,11,,,,,,,,,10,,,,84,0
354720,note_on,0,0,11,,,,,,,,,10,,,,76,0
354720,note_on,120,0,11,,,,,,,,,10,,,,67,0
354721,note_on,120,0,1,,,,,,,,,0,,,,84,0
354721,note_on,0,0,1,,,,,,,,,0,,,,88,0
354722,note_on,120,0,7,,,,,,,,,6,,,,72,0
354722,note_on,0,0,7,,,,,,,,,6,,,,60,0
354723,note_on,0,0,12,,,,,,,,,11,,,,76,0
354723,note_on,0,0,12,,,,,,,,,11,,,,67,0
354723,note_on,120,0,12,,,,,,,,,11,,,,60,0
354723,note_on,120,0,5,,,,,,,,,4,,,,60,0
354724,note_on,30,0,2,,,,,,,,,1,,,,76,0
354724,note_on,120,0,6,,,,,,,,,5,,,,52,0
354724,note_on,0,0,2,,,,,,,,,1,,,,81,100
354725,note_on,0,0,3,,,,,,,,,2,,,,69,101
354725,note_on,30,0,3,,,,,,,,,2,,,,72,0
354727,note_on,0,0,8,,,,,,,,,7,,,,64,0
354727,note_on,120,0,8,,,,,,,,,7,,,,60,0
354728,note_on,0,0,13,,,,,,,,,12,,,,64,0
354728,note_on,0,0,13,,,,,,,,,12,,,,72,0
354728,note_on,0,0,13,,,,,,,,,12,,,,55,0
354728,note_on,120,0,13,,,,,,,,,12,,,,48,0
354729,note_on,0,0,4,,,,,,,,,3,,,,64,0
354729,note_on,120,0,4,,,,,,,,,3,,,,60,0
354732,note_on,120,0,14,,,,,,,,,13,,,,48,0
354733,note_on,120,0,9,,,,,,,,,8,,,,48,0
354734,note_on,120,0,15,,,,,,,,,14,,,,36,0
354735,note_on,120,0,10,,,,,,,,,15,,,,48,0
354784,note_on,0,0,2,,,,,,,,,1,,,,79,100
354784,note_on,60,0,2,,,,,,,,,1,,,,81,0
354785,note_on,0,0,3,,,,,,,,,2,,,,67,101
354785,note_on,60,0,3,,,,,,,,,2,,,,69,0
354840,set_tempo,240,1,0,,,,,,279070,,,,,,,,
354844,note_on,0,0,2,,,,,,,,,1,,,,81,100
354844,note_on,60,0,2,,,,,,,,,1,,,,79,0
354845,note_on,0,0,3,,,,,,,,,2,,,,69,101
354845,note_on,60,0,3,,,,,,,,,2,,,,67,0
354852,control_change,120,0,14,,,,,,,,,13,11,50,,,
354852,note_on,0,0,14,,,,,,,,,13,,,,52,112
354854,note_on,0,0,15,,,,,,,,,14,,,,40,112
354854,control_change,120,0,15,,,,,,,,,14,11,50,,,
354904,note_on,60,0,2,,,,,,,,,1,,,,81,0
354904,note_on,0,0,2,,,,,,,,,1,,,,79,100
354905,note_on,60,0,3,,,,,,,,,2,,,,69,0
354905,note_on,0,0,3,,,,,,,,,2,,,,67,101
354912,note_on,60,0,14,,,,,,,,,13,,,,52,0
354914,note_on,60,0,15,,,,,,,,,14,,,,40,0
354960,set_tempo,120,1,0,,,,,,264901,,,,,,,,
354964,note_on,0,0,2,,,,,,,,,1,,,,76,100
354964,note_on,60,0,2,,,,,,,,,1,,,,79,0
354964,note_on,0,0,2,,,,,,,,,1,,,,79,100
354965,note_on,60,0,3,,,,,,,,,2,,,,67,0
354965,note_on,0,0,3,,,,,,,,,2,,,,67,101
354969,note_on,0,0,4,,,,,,,,,3,,,,64,100
354969,control_change,240,0,4,,,,,,,,,3,11,47,,,
354972,note_on,60,0,14,,,,,,,,,13,,,,55,112
354974,note_on,60,0,15,,,,,,,,,14,,,,43,112
355024,note_on,60,0,2,,,,,,,,,1,,,,76,0
355024,note_on,0,0,2,,,,,,,,,1,,,,79,0
355025,note_on,60,0,3,,,,,,,,,2,,,,67,0
355029,note_on,60,0,4,,,,,,,,,3,,,,64,0
355032,note_on,60,0,14,,,,,,,,,13,,,,55,0
355034,note_on,60,0,15,,,,,,,,,14,,,,43,0
355080,set_tempo,120,1,0,,,,,,272727,,,,,,,,
355084,note_on,60,0,2,,,,,,,,,1,,,,79,100
355084,note_on,0,0,2,,,,,,,,,1,,,,76,100
355085,note_on,60,0,3,,,,,,,,,2,,,,67,101
355089,note_on,60,0,4,,,,,,,,,3,,,,64,100
355092,note_on,60,0,14,,,,,,,,,13,,,,52,112
355094,note_on,60,0,15,,,,,,,,,14,,,,40,112
355144,note_on,60,0,2,,,,,,,,,1,,,,76,0
355144,note_on,0,0,2,,,,,,,,,1,,,,79,0
355145,note_on,60,0,3,,,,,,,,,2,,,,67,0
355149,note_on,60,0,4,,,,,,,,,3,,,,64,0
355152,note_on,60,0,14,,,,,,,,,13,,,,52,0
355154,note_on,60,0,15,,,,,,,,,14,,,,40,0
355200,control_change,480,0,11,,,,,,,,,10,11,50,,,
355200,note_on,0,0,11,,,,,,,,,10,,,,72,112
355200,set_tempo,120,1,0,,,,,,300000,,,,,,,,
355204,note_on,0,0,2,,,,,,,,,1,,,,79,100
355204,note_on,60,0,2,,,,,,,,,1,,,,76,100
355205,note_on,60,0,3,,,,,,,,,2,,,,67,101
355209,note_on,60,0,4,,,,,,,,,3,,,,64,100
355212,note_on,60,0,14,,,,,,,,,13,,,,48,112
355214,note_on,60,0,15,,,,,,,,,14,,,,36,112
355240,note_on,40,0,11,,,,,,,,,10,,,,72,0
355240,note_on,0,0,11,,,,,,,,,10,,,,74,112
355264,note_on,0,0,2,,,,,,,,,1,,,,76,0
355264,note_on,60,0,2,,,,,,,,,1,,,,79,0
355265,note_on,60,0,3,,,,,,,,,2,,,,67,0
355269,note_on,60,0,4,,,,,,,,,3,,,,64,0
355272,note_on,60,0,14,,,,,,,,,13,,,,48,0
355274,note_on,60,0,15,,,,,,,,,14,,,,36,0
355280,note_on,0,0,11,,,,,,,,,10,,,,72,112
355280,note_on,40,0,11,,,,,,,,,10,,,,74,0
355320,note_on,0,0,11,,,,,,,,,10,,,,71,112
355320,control_change,0,0,11,,,,,,,,,10,11,55,,,
355320,set_tempo,120,1,0,,,,,,263158,,,,,,,,
355320,note_on,40,0,11,,,,,,,,,10,,,,72,0
355323,note_on,0,0,5,,,,,,,,,4,,,,67,100
355323,control_change,600,0,5,,,,,,,,,4,11,52,,,
355324,note_on,0,0,6,,,,,,,,,5,,,,55,100
355324,control_change,600,0,6,,,,,,,,,5,11,52,,,
355324,control_change,60,0,2,,,,,,,,,1,11,52,,,
355324,note_on,0,0,2,,,,,,,,,1,,,,77,100
355324,note_on,0,0,2,,,,,,,,,1,,,,79,100
355325,note_on,60,0,3,,,,,,,,,2,,,,67,101
355325,control_change,0,0,3,,,,,,,,,2,11,52,,,
355327,control_change,4,0,5,,,,,,,,,4,11,55,,,
355328,control_change,4,0,6,,,,,,,,,5,11,55,,,
355329,control_change,0,0,4,,,,,,,,,3,11,52,,,
355329,control_change,9,0,11,,,,,,,,,10,11,60,,,
355329,note_on,60,0,4,,,,,,,,,3,,,,65,100
355332,control_change,60,0,14,,,,,,,,,13,11,55,,,
355332,control_change,5,0,5,,,,,,,,,4,11,58,,,
355332,note_on,0,0,14,,,,,,,,,13,,,,55,112
355333,control_change,4,0,4,,,,,,,,,3,11,55,,,
355333,control_change,5,0,6,,,,,,,,,5,11,58,,,
355333,control_change,4,0,11,,,,,,,,,10,11,63,,,
355333,control_change,9,0,2,,,,,,,,,1,11,56,,,
355334,note_on,60,0,15,,,,,,,,,14,,,,43,112
355334,control_change,9,0,3,,,,,,,,,2,11,56,,,
355334,control_change,0,0,15,,,,,,,,,14,11,55,,,
355336,control_change,4,0,5,,,,,,,,,4,11,61,,,
355337,control_change,4,0,6,,,,,,,,,5,11,61,,,
355338,control_change,5,0,11,,,,,,,,,10,11,66,,,
355338,control_change,5,0,4,,,,,,,,,3,11,58,,,
355341,control_change,9,0,14,,,,,,,,,13,11,60,,,
355341,control_change,5,0,5,,,,,,,,,4,11,64,,,
355342,control_change,9,0,2,,,,,,,,,1,11,61,,,
355342,control_change,4,0,11,,,,,,,,,10,11,69,,,
355342,control_change,4,0,4,,,,,,,,,3,11,61,,,
355342,control_change,5,0,6,,,,,,,,,5,11,64,,,
355343,control_change,9,0,15,,,,,,,,,14,11,60,,,
355343,control_change,9,0,3,,,,,,,,,2,11,61,,,
355345,control_change,4,0,14,,,,,,,,,13,11,63,,,
355345,control_change,4,0,5,,,,,,,,,4,11,67,,,
355346,control_change,4,0,6,,,,,,,,,5,11,67,,,
355347,control_change,4,0,15,,,,,,,,,14,11,63,,,
355347,control_change,5,0,4,,,,,,,,,3,11,64,,,
355347,control_change,5,0,11,,,,,,,,,10,11,72,,,
355350,control_change,5,0,5,,,,,,,,,4,11,70,,,
355350,control_change,5,0,14,,,,,,,,,13,11,66,,,
355351,control_change,9,0,2,,,,,,,,,1,11,65,,,
355351,control_change,5,0,6,,,,,,,,,5,11,70,,,
355351,control_change,4,0,4,,,,,,,,,3,11,67,,,
355352,control_change,5,0,15,,,,,,,,,14,11,66,,,
355352,control_change,9,0,3,,,,,,,,,2,11,65,,,
355354,control_change,4,0,14,,,,,,,,,13,11,69,,,
355356,control_change,4,0,15,,,,,,,,,14,11,69,,,
355356,control_change,5,0,4,,,,,,,,,3,11,70,,,
355359,control_change,5,0,14,,,,,,,,,13,11,72,,,
355361,control_change,5,0,15,,,,,,,,,14,11,72,,,
355366,control_change,19,0,11,,,,,,,,,10,11,72,,,
355369,control_change,19,0,5,,,,,,,,,4,11,70,,,
355370,control_change,19,0,6,,,,,,,,,5,11,70,,,
355370,control_change,19,0,2,,,,,,,,,1,11,65,,,
355371,control_change,19,0,3,,,,,,,,,2,11,65,,,
355375,control_change,19,0,4,,,,,,,,,3,11,70,,,
355378,control_change,19,0,14,,,,,,,,,13,11,72,,,
355380,control_change,19,0,15,,,,,,,,,14,11,72,,,
355383,control_change,17,0,11,,,,,,,,,10,11,70,,,
355386,control_change,17,0,5,,,,,,,,,4,11,68,,,
355387,control_change,17,0,6,,,,,,,,,5,11,68,,,
355387,control_change,17,0,2,,,,,,,,,1,11,64,,,
355388,control_change,17,0,3,,,,,,,,,2,11,64,,,
355392,control_change,17,0,4,,,,,,,,,3,11,68,,,
355395,control_change,17,0,14,,,,,,,,,13,11,70,,,
355397,control_change,17,0,15,,,,,,,,,14,11,70,,,
355400,control_change,17,0,11,,,,,,,,,10,11,68,,,
355403,control_change,17,0,5,,,,,,,,,4,11,66,,,
355404,control_change,17,0,2,,,,,,,,,1,11,62,,,
355404,control_change,17,0,6,,,,,,,,,5,11,66,,,
355405,control_change,17,0,3,,,,,,,,,2,11,62,,,
355409,control_change,17,0,4,,,,,,,,,3,11,66,,,
355412,control_change,17,0,14,,,,,,,,,13,11,68,,,
355414,control_change,17,0,15,,,,,,,,,14,11,68,,,
355417,control_change,17,0,11,,,,,,,,,10,11,66,,,
355420,control_change,17,0,5,,,,,,,,,4,11,64,,,
355421,control_change,17,0,6,,,,,,,,,5,11,64,,,
355421,control_change,17,0,2,,,,,,,,,1,11,61,,,
355422,control_change,17,0,3,,,,,,,,,2,11,61,,,
355426,control_change,17,0,4,,,,,,,,,3,11,64,,,
355429,control_change,17,0,14,,,,,,,,,13,11,66,,,
355431,control_change,17,0,15,,,,,,,,,14,11,66,,,
355434,control_change,17,0,11,,,,,,,,,10,11,64,,,
355437,control_change,17,0,5,,,,,,,,,4,11,62,,,
355438,control_change,17,0,2,,,,,,,,,1,11,59,,,
355438,control_change,17,0,6,,,,,,,,,5,11,62,,,
355439,control_change,17,0,3,,,,,,,,,2,11,59,,,
355440,set_tempo,120,1,0,,,,,,272727,,,,,,,,
355443,control_change,17,0,4,,,,,,,,,3,11,62,,,
355446,control_change,17,0,14,,,,,,,,,13,11,64,,,
355448,control_change,17,0,15,,,,,,,,,14,11,64,,,
355450,control_change,16,0,11,,,,,,,,,10,11,62,,,
355452,note_on,6,0,14,,,,,,,,,13,,,,55,0
355453,control_change,16,0,5,,,,,,,,,4,11,60,,,
355454,note_on,6,0,15,,,,,,,,,14,,,,43,0
355454,control_change,16,0,2,,,,,,,,,1,11,58,,,
355454,control_change,16,0,6,,,,,,,,,5,11,60,,,
355455,control_change,16,0,3,,,,,,,,,2,11,58,,,
355459,control_change,16,0,4,,,,,,,,,3,11,60,,,
355462,control_change,10,0,14,,,,,,,,,13,11,62,,,
355464,control_change,10,0,15,,,,,,,,,14,11,62,,,
355467,control_change,17,0,11,,,,,,,,,10,11,60,,,
355470,control_change,17,0,5,,,,,,,,,4,11,58,,,
355471,control_change,17,0,2,,,,,,,,,1,11,56,,,
355471,control_change,17,0,6,,,,,,,,,5,11,58,,,
355472,control_change,17,0,3,,,,,,,,,2,11,56,,,
355476,control_change,17,0,4,,,,,,,,,3,11,58,,,
355479,control_change,17,0,14,,,,,,,,,13,11,60,,,
355481,control_change,17,0,15,,,,,,,,,14,11,60,,,
355484,control_change,17,0,11,,,,,,,,,10,11,58,,,
355487,control_change,17,0,5,,,,,,,,,4,11,56,,,
355488,control_change,17,0,2,,,,,,,,,1,11,55,,,
355488,control_change,17,0,6,,,,,,,,,5,11,56,,,
355489,control_change,17,0,3,,,,,,,,,2,11,55,,,
355493,control_change,17,0,4,,,,,,,,,3,11,56,,,
355496,control_change,17,0,14,,,,,,,,,13,11,58,,,
355498,control_change,17,0,15,,,,,,,,,14,11,58,,,
355501,control_change,17,0,11,,,,,,,,,10,11,57,,,
355504,control_change,17,0,5,,,,,,,,,4,11,54,,,
355505,control_change,17,0,2,,,,,,,,,1,11,53,,,
355505,control_change,17,0,6,,,,,,,,,5,11,54,,,
355506,control_change,17,0,3,,,,,,,,,2,11,53,,,
355510,control_change,17,0,4,,,,,,,,,3,11,54,,,
355513,control_change,17,0,14,,,,,,,,,13,11,57,,,
355515,control_change,17,0,15,,,,,,,,,14,11,57,,,
355518,control_change,17,0,11,,,,,,,,,10,11,55,,,
355521,control_change,17,0,5,,,,,,,,,4,11,52,,,
355522,control_change,17,0,2,,,,,,,,,1,11,52,,,
355522,control_change,17,0,6,,,,,,,,,5,11,52,,,
355523,control_change,17,0,3,,,,,,,,,2,11,52,,,
355527,control_change,17,0,4,,,,,,,,,3,11,52,,,
355530,control_change,17,0,14,,,,,,,,,13,11,55,,,
355532,control_change,17,0,15,,,,,,,,,14,11,55,,,
355534,control_change,16,0,11,,,,,,,,,10,11,53,,,
355537,control_change,16,0,5,,,,,,,,,4,11,50,,,
355538,control_change,16,0,2,,,,,,,,,1,11,50,,,
355538,control_change,16,0,6,,,,,,,,,5,11,50,,,
355539,control_change,16,0,3,,,,,,,,,2,11,50,,,
355543,control_change,16,0,4,,,,,,,,,3,11,50,,,
355546,control_change,16,0,14,,,,,,,,,13,11,53,,,
355548,control_change,16,0,15,,,,,,,,,14,11,53,,,
355551,control_change,17,0,11,,,,,,,,,10,11,51,,,
355554,control_change,17,0,5,,,,,,,,,4,11,48,,,
355555,control_change,17,0,6,,,,,,,,,5,11,48,,,
355555,control_change,17,0,2,,,,,,,,,1,11,48,,,
355556,control_change,17,0,3,,,,,,,,,2,11,48,,,
355560,note_on,0,0,11,,,,,,,,,10,,,,74,112
355560,set_tempo,120,1,0,,,,,,300000,,,,,,,,
355560,note_on,9,0,11,,,,,,,,,10,,,,71,0
355560,control_change,17,0,4,,,,,,,,,3,11,48,,,
355563,control_change,17,0,14,,,,,,,,,13,11,51,,,
355565,control_change,17,0,15,,,,,,,,,14,11,51,,,
355675,note_on,115,0,11,,,,,,,,,10,,,,74,0
355680,note_on,5,0,11,,,,,,,,,10,,,,79,112
355680,set_tempo,120,1,0,,,,,,264901,,,,,,,,
355800,set_tempo,120,1,0,,,,,,272727,,,,,,,,
355920,set_tempo,120,1,0,,,,,,300000,,,,,,,,
355920,note_on,240,0,11,,,,,,,,,10,,,,79,0
355920,note_on,0,0,11,,,,,,,,,10,,,,83,112
356035,note_on,115,0,11,,,,,,,,,10,,,,83,0
356040,set_tempo,120,1,0,,,,,,263158,,,,,,,,
356040,note_on,5,0,11,,,,,,,,,10,,,,86,127
356043,note_on,489,0,5,,,,,,,,,4,,,,67,0
356043,note_on,0,0,5,,,,,,,,,4,,,,67,115
356044,note_on,0,0,6,,,,,,,,,5,,,,55,115
356044,note_on,0,0,2,,,,,,,,,1,,,,77,100
356044,note_on,489,0,2,,,,,,,,,1,,,,77,0
356044,note_on,489,0,6,,,,,,,,,5,,,,55,0
356044,control_change,0,0,2,,,,,,,,,1,11,55,,,
356044,note_on,0,0,2,,,,,,,,,1,,,,79,115
356044,note_on,0,0,2,,,,,,,,,1,,,,79,0
356045,note_on,489,0,3,,,,,,,,,2,,,,67,0
356045,note_on,0,0,3,,,,,,,,,2,,,,67,101
356049,note_on,489,0,4,,,,,,,,,3,,,,65,0
356049,note_on,0,0,4,,,,,,,,,3,,,,62,100
356052,note_on,489,0,14,,,,,,,,,13,,,,47,127
356054,note_on,489,0,15,,,,,,,,,14,,,,35,112
356074,note_on,30,0,2,,,,,,,,,1,,,,79,0
356104,note_on,30,0,2,,,,,,,,,1,,,,79,100
356114,note_on,60,0,15,,,,,,,,,14,,,,35,0
356134,note_on,30,0,2,,,,,,,,,1,,,,79,0
356160,set_tempo,120,1,0,,,,,,272727,,,,,,,,
356163,control_change,1440,0,12,,,,,,,,,11,11,50,,,
356163,note_on,0,0,12,,,,,,,,,11,,,,65,127
356164,note_on,30,0,2,,,,,,,,,1,,,,81,100
356167,program_change,1439,0,13,,,,,,,,48,12,,,,,
356168,control_change,0,0,13,,,,,,,,,12,11,50,,,
356168,note_on,1,0,13,,,,,,,,,12,,,,59,127
356224,note_on,60,0,2,,,,,,,,,1,,,,81,0
356224,note_on,0,0,2,,,,,,,,,1,,,,79,100
356280,set_tempo,120,1,0,,,,,,300000,,,,,,,,
356280,note_on,240,0,11,,,,,,,,,10,,,,86,0
356280,note_on,0,0,11,,,,,,,,,10,,,,83,112
356283,note_on,0,0,12,,,,,,,,,11,,,,55,112
356283,note_on,120,0,12,,,,,,,,,11,,,,65,0
356284,note_on,60,0,2,,,,,,,,,1,,,,79,0
356284,note_on,0,0,2,,,,,,,,,1,,,,81,100
356288,note_on,120,0,13,,,,,,,,,12,,,,59,0
356288,note_on,0,0,13,,,,,,,,,12,,,,55,112
356292,note_on,240,0,14,,,,,,,,,13,,,,47,0
356292,note_on,0,0,14,,,,,,,,,13,,,,50,112
356342,note_on,299,0,5,,,,,,,,,4,,,,67,0
356343,note_on,60,0,12,,,,,,,,,11,,,,55,0
356343,note_on,299,0,6,,,,,,,,,5,,,,55,0
356344,note_on,0,0,2,,,,,,,,,1,,,,79,100
356344,note_on,60,0,2,,,,,,,,,1,,,,81,0
356348,note_on,60,0,13,,,,,,,,,12,,,,55,0
356395,note_on,115,0,11,,,,,,,,,10,,,,83,0
356400,note_on,5,0,11,,,,,,,,,10,,,,86,112
356400,set_tempo,120,1,0,,,,,,264901,,,,,,,,
356403,note_on,61,0,5,,,,,,,,,4,,,,67,115
356404,note_on,60,0,2,,,,,,,,,1,,,,79,0
356404,note_on,61,0,6,,,,,,,,,5,,,,55,115
356404,note_on,0,0,2,,,,,,,,,1,,,,77,0
356404,note_on,0,0,2,,,,,,,,,1,,,,76,100
356404,control_change,0,0,2,,,,,,,,,1,11,47,,,
356404,note_on,0,0,2,,,,,,,,,1,,,,79,100
356405,note_on,0,0,3,,,,,,,,,2,,,,67,101
356405,note_on,360,0,3,,,,,,,,,2,,,,67,0
356409,note_on,360,0,4,,,,,,,,,3,,,,62,0
356409,note_on,0,0,4,,,,,,,,,3,,,,64,100
356412,note_on,120,0,14,,,,,,,,,13,,,,50,0
356412,note_on,0,0,14,,,,,,,,,13,,,,52,112
356414,note_on,300,0,15,,,,,,,,,14,,,,36,112
356460,note_on,0,0,11,,,,,,,,,10,,,,84,112
356460,note_on,60,0,11,,,,,,,,,10,,,,86,0
356464,note_on,0,0,2,,,,,,,,,1,,,,76,0
356464,note_on,60,0,2,,,,,,,,,1,,,,79,0
356474,note_on,60,0,15,,,,,,,,,14,,,,36,0
356520,note_on,60,0,11,,,,,,,,,10,,,,84,0
356520,note_on,0,0,11,,,,,,,,,10,,,,83,112
356520,set_tempo,120,1,0,,,,,,272727,,,,,,,,
356523,note_on,180,0,12,,,,,,,,,11,,,,64,127
356524,note_on,60,0,2,,,,,,,,,1,,,,76,100
356524,note_on,0,0,2,,,,,,,,,1,,,,79,100
356528,note_on,180,0,13,,,,,,,,,12,,,,60,127
356532,note_on,0,0,14,,,,,,,,,13,,,,55,112
356532,note_on,120,0,14,,,,,,,,,13,,,,52,0
356580,note_on,0,0,11,,,,,,,,,10,,,,81,112
356580,note_on,60,0,11,,,,,,,,,10,,,,83,0
356584,note_on,60,0,2,,,,,,,,,1,,,,79,0
356584,note_on,0,0,2,,,,,,,,,1,,,,76,0
356640,note_on,0,0,11,,,,,,,,,10,,,,79,112
356640,note_on,60,0,11,,,,,,,,,10,,,,81,0
356640,set_tempo,120,1,0,,,,,,300000,,,,,,,,
356643,note_on,120,0,12,,,,,,,,,11,,,,64,0
356643,note_on,0,0,12,,,,,,,,,11,,,,55,112
356644,note_on,0,0,2,,,,,,,,,1,,,,79,100
356644,note_on,60,0,2,,,,,,,,,1,,,,76,100
356648,note_on,120,0,13,,,,,,,,,12,,,,60,0
356648,note_on,0,0,13,,,,,,,,,12,,,,55,112
356652,note_on,0,0,14,,,,,,,,,13,,,,64,112
356652,note_on,120,0,14,,,,,,,,,13,,,,55,0
356700,note_on,60,0,11,,,,,,,,,10,,,,79,0
356702,note_on,299,0,5,,,,,,,,,4,,,,67,0
356703,note_on,60,0,12,,,,,,,,,11,,,,55,0
356703,note_on,299,0,6,,,,,,,,,5,,,,55,0
356704,note_on,60,0,2,,,,,,,,,1,,,,79,0
356704,note_on,0,0,2,,,,,,,,,1,,,,76,0
356708,note_on,60,0,13,,,,,,,,,12,,,,55,0
356760,note_on,60,0,11,,,,,,,,,10,,,,79,112
356760,set_tempo,120,1,0,,,,,,263158,,,,,,,,
356763,note_on,61,0,5,,,,,,,,,4,,,,67,115
356764,note_on,0,0,2,,,,,,,,,1,,,,74,115
356764,note_on,61,0,6,,,,,,,,,5,,,,55,115
356764,note_on,60,0,2,,,,,,,,,1,,,,79,115
356765,note_on,360,0,3,,,,,,,,,2,,,,67,0
356765,control_change,0,0,3,,,,,,,,,2,11,55,,,
356765,note_on,0,0,3,,,,,,,,,2,,,,67,101
356767,note_on,115,0,14,,,,,,,,,13,,,,64,0
356769,note_on,360,0,4,,,,,,,,,3,,,,64,0
356769,note_on,0,0,4,,,,,,,,,3,,,,65,100
356772,note_on,5,0,14,,,,,,,,,13,,,,62,127
356774,note_on,300,0,15,,,,,,,,,14,,,,31,112
356790,note_on,30,0,11,,,,,,,,,10,,,,79,0
356790,note_on,0,0,11,,,,,,,,,10,,,,77,127
356795,note_on,30,0,3,,,,,,,,,2,,,,67,0
356825,note_on,30,0,3,,,,,,,,,2,,,,67,101
356830,note_on,40,0,11,,,,,,,,,10,,,,77,0
356834,note_on,60,0,15,,,,,,,,,14,,,,31,0
356855,note_on,30,0,3,,,,,,,,,2,,,,67,0
356880,note_on,50,0,11,,,,,,,,,10,,,,77,112
356880,set_tempo,120,1,0,,,,,,272727,,,,,,,,
356883,note_on,180,0,12,,,,,,,,,11,,,,71,127
356885,note_on,30,0,3,,,,,,,,,2,,,,69,101
356888,note_on,180,0,13,,,,,,,,,12,,,,65,127
356940,note_on,60,0,11,,,,,,,,,10,,,,77,0
356945,note_on,60,0,3,,,,,,,,,2,,,,69,0
356945,note_on,0,0,3,,,,,,,,,2,,,,67,101
357000,set_tempo,120,1,0,,,,,,300000,,,,,,,,
357000,note_on,60,0,11,,,,,,,,,10,,,,77,112
357003,note_on,0,0,12,,,,,,,,,11,,,,67,112
357003,note_on,120,0,12,,,,,,,,,11,,,,71,0
357005,note_on,0,0,3,,,,,,,,,2,,,,69,101
357005,note_on,60,0,3,,,,,,,,,2,,,,67,0
357008,note_on,0,0,13,,,,,,,,,12,,,,67,112
357008,note_on,120,0,13,,,,,,,,,12,,,,65,0
357012,note_on,240,0,14,,,,,,,,,13,,,,62,0
357012,note_on,0,0,14,,,,,,,,,13,,,,59,112
357060,note_on,0,0,11,,,,,,,,,10,,,,79,112
357060,note_on,60,0,11,,,,,,,,,10,,,,77,0
357062,note_on,299,0,5,,,,,,,,,4,,,,67,0
357063,note_on,299,0,6,,,,,,,,,5,,,,55,0
357063,note_on,60,0,12,,,,,,,,,11,,,,67,0
357065,note_on,60,0,3,,,,,,,,,2,,,,69,0
357065,note_on,0,0,3,,,,,,,,,2,,,,67,101
357068,note_on,60,0,13,,,,,,,,,12,,,,67,0
357120,note_on,0,0,11,,,,,,,,,10,,,,76,112
357120,note_on,60,0,11,,,,,,,,,10,,,,79,0
357120,set_tempo,120,1,0,,,,,,263158,,,,,,,,
357123,note_on,61,0,5,,,,,,,,,4,,,,67,115
357124,note_on,61,0,6,,,,,,,,,5,,,,55,115
357124,note_on,0,0,2,,,,,,,,,1,,,,79,0
357124,note_on,0,0,2,,,,,,,,,1,,,,76,100
357124,note_on,0,0,2,,,,,,,,,1,,,,79,100
357124,note_on,360,0,2,,,,,,,,,1,,,,74,0
357125,note_on,60,0,3,,,,,,,,,2,,,,67,0
357125,note_on,0,0,3,,,,,,,,,2,,,,67,101
357125,control_change,0,0,3,,,,,,,,,2,11,47,,,
357127,note_on,115,0,14,,,,,,,,,13,,,,59,0
357129,note_on,360,0,4,,,,,,,,,3,,,,65,0
357129,note_on,0,0,4,,,,,,,,,3,,,,64,100
357132,note_on,5,0,14,,,,,,,,,13,,,,62,112
357134,note_on,300,0,15,,,,,,,,,14,,,,36,112
357185,note_on,60,0,3,,,,,,,,,2,,,,67,0
357189,note_on,60,0,4,,,,,,,,,3,,,,64,0
357192,note_on,60,0,14,,,,,,,,,13,,,,62,0
357192,note_on,0,0,14,,,,,,,,,13,,,,60,112
357194,note_on,60,0,15,,,,,,,,,14,,,,36,0
357240,note_on,120,0,11,,,,,,,,,10,,,,76,0
357240,note_on,0,0,11,,,,,,,,,10,,,,79,112
357240,set_tempo,120,1,0,,,,,,272727,,,,,,,,
357243,note_on,180,0,12,,,,,,,,,11,,,,72,127
357245,note_on,60,0,3,,,,,,,,,2,,,,67,101
357248,note_on,180,0,13,,,,,,,,,12,,,,64,127
357249,note_on,60,0,4,,,,,,,,,3,,,,64,100
357252,note_on,0,0,14,,,,,,,,,13,,,,59,112
357252,note_on,60,0,14,,,,,,,,,13,,,,60,0
357305,note_on,60,0,3,,,,,,,,,2,,,,67,0
357309,note_on,60,0,4,,,,,,,,,3,,,,64,0
357312,note_on,0,0,14,,,,,,,,,13,,,,57,112
357312,note_on,60,0,14,,,,,,,,,13,,,,59,0
357360,note_on,0,0,11,,,,,,,,,10,,,,88,112
357360,note_on,120,0,11,,,,,,,,,10,,,,79,0
357360,set_tempo,120,1,0,,,,,,300000,,,,,,,,
357363,note_on,120,0,12,,,,,,,,,11,,,,72,0
357363,note_on,0,0,12,,,,,,,,,11,,,,67,112
357365,note_on,60,0,3,,,,,,,,,2,,,,67,101
357368,note_on,120,0,13,,,,,,,,,12,,,,64,0
357368,note_on,0,0,13,,,,,,,,,12,,,,67,112
357369,note_on,60,0,4,,,,,,,,,3,,,,64,100
357372,note_on,60,0,14,,,,,,,,,13,,,,57,0
357372,note_on,0,0,14,,,,,,,,,13,,,,55,112
357422,note_on,299,0,5,,,,,,,,,4,,,,67,0
357423,note_on,60,0,12,,,,,,,,,11,,,,67,0
357423,note_on,299,0,6,,,,,,,,,5,,,,55,0
357425,note_on,60,0,3,,,,,,,,,2,,,,67,0
357428,note_on,60,0,13,,,,,,,,,12,,,,67,0
357429,note_on,60,0,4,,,,,,,,,3,,,,64,0
357432,note_on,60,0,14,,,,,,,,,13,,,,55,0
357475,note_on,115,0,11,,,,,,,,,10,,,,88,0
357480,set_tempo,120,1,0,,,,,,263158,,,,,,,,
357480,note_on,5,0,11,,,,,,,,,10,,,,86,127
357483,note_on,61,0,5,,,,,,,,,4,,,,67,115
357484,note_on,0,0,2,,,,,,,,,1,,,,76,0
357484,note_on,0,0,2,,,,,,,,,1,,,,77,100
357484,control_change,0,0,2,,,,,,,,,1,11,55,,,
357484,note_on,360,0,2,,,,,,,,,1,,,,79,0
357484,note_on,0,0,2,,,,,,,,,1,,,,79,115
357484,note_on,61,0,6,,,,,,,,,5,,,,55,115
357485,note_on,60,0,3,,,,,,,,,2,,,,67,101
357489,note_on,60,0,4,,,,,,,,,3,,,,62,100
357492,note_on,60,0,14,,,,,,,,,13,,,,55,112
357494,note_on,300,0,15,,,,,,,,,14,,,,31,112
357514,note_on,30,0,2,,,,,,,,,1,,,,79,0
357522,note_on,30,0,14,,,,,,,,,13,,,,55,0
357522,note_on,0,0,14,,,,,,,,,13,,,,53,127
357544,note_on,30,0,2,,,,,,,,,1,,,,79,100
357554,note_on,60,0,15,,,,,,,,,14,,,,31,0
357562,note_on,40,0,14,,,,,,,,,13,,,,53,0
357574,note_on,30,0,2,,,,,,,,,1,,,,79,0
357600,set_tempo,120,1,0,,,,,,272727,,,,,,,,
357603,note_on,180,0,12,,,,,,,,,11,,,,65,127
357604,note_on,30,0,2,,,,,,,,,1,,,,81,100
357608,note_on,180,0,13,,,,,,,,,12,,,,59,127
357612,note_on,50,0,14,,,,,,,,,13,,,,53,112
357664,note_on,60,0,2,,,,,,,,,1,,,,81,0
357664,note_on,0,0,2,,,,,,,,,1,,,,79,100
357672,note_on,60,0,14,,,,,,,,,13,,,,53,0
357720,note_on,0,0,11,,,,,,,,,10,,,,83,112
357720,set_tempo,120,1,0,,,,,,300000,,,,,,,,
357720,note_on,240,0,11,,,,,,,,,10,,,,86,0
357723,note_on,120,0,12,,,,,,,,,11,,,,65,0
357723,note_on,0,0,12,,,,,,,,,11,,,,55,112
357724,note_on,60,0,2,,,,,,,,,1,,,,79,0
357724,note_on,0,0,2,,,,,,,,,1,,,,81,100
357728,note_on,0,0,13,,,,,,,,,12,,,,55,112
357728,note_on,120,0,13,,,,,,,,,12,,,,59,0
357732,note_on,60,0,14,,,,,,,,,13,,,,53,112
357782,note_on,299,0,5,,,,,,,,,4,,,,67,0
357783,note_on,299,0,6,,,,,,,,,5,,,,55,0
357783,note_on,60,0,12,,,,,,,,,11,,,,55,0
357784,note_on,60,0,2,,,,,,,,,1,,,,81,0
357784,note_on,0,0,2,,,,,,,,,1,,,,79,100
357788,note_on,60,0,13,,,,,,,,,12,,,,55,0
357792,note_on,60,0,14,,,,,,,,,13,,,,53,0
357792,note_on,0,0,14,,,,,,,,,13,,,,55,112
357835,note_on,115,0,11,,,,,,,,,10,,,,83,0
357840,note_on,5,0,11,,,,,,,,,10,,,,86,112
357840,set_tempo,120,1,0,,,,,,263158,,,,,,,,
357843,note_on,61,0,5,,,,,,,,,4,,,,67,115
357844,note_on,61,0,6,,,,,,,,,5,,,,55,115
357844,control_change,0,0,2,,,,,,,,,1,11,47,,,
357844,note_on,0,0,2,,,,,,,,,1,,,,79,100
357844,note_on,0,0,2,,,,,,,,,1,,,,76,100
357844,note_on,0,0,2,,,,,,,,,1,,,,77,0
357844,note_on,60,0,2,,,,,,,,,1,,,,79,0
357845,note_on,360,0,3,,,,,,,,,2,,,,67,0
357845,note_on,0,0,3,,,,,,,,,2,,,,67,101
357849,note_on,0,0,4,,,,,,,,,3,,,,64,100
357849,note_on,360,0,4,,,,,,,,,3,,,,62,0
357852,note_on,0,0,14,,,,,,,,,13,,,,52,112
357852,note_on,60,0,14,,,,,,,,,13,,,,55,0
357854,note_on,300,0,15,,,,,,,,,14,,,,36,112
357900,note_on,60,0,11,,,,,,,,,10,,,,86,0
357900,note_on,0,0,11,,,,,,,,,10,,,,84,112
357904,note_on,0,0,2,,,,,,,,,1,,,,76,0
357904,note_on,60,0,2,,,,,,,,,1,,,,79,0
357914,note_on,60,0,15,,,,,,,,,14,,,,36,0
357960,set_tempo,120,1,0,,,,,,272727,,,,,,,,
357960,note_on,60,0,11,,,,,,,,,10,,,,84,0
357960,note_on,0,0,11,,,,,,,,,10,,,,83,112
357963,note_on,180,0,12,,,,,,,,,11,,,,64,127
357964,note_on,60,0,2,,,,,,,,,1,,,,79,100
357964,note_on,0,0,2,,,,,,,,,1,,,,76,100
357968,note_on,180,0,13,,,,,,,,,12,,,,60,127
357972,note_on,0,0,14,,,,,,,,,13,,,,55,112
357972,note_on,120,0,14,,,,,,,,,13,,,,52,0
358020,note_on,0,0,11,,,,,,,,,10,,,,81,112
358020,note_on,60,0,11,,,,,,,,,10,,,,83,0
358024,note_on,60,0,2,,,,,,,,,1,,,,76,0
358024,note_on,0,0,2,,,,,,,,,1,,,,79,0
358080,set_tempo,120,1,0,,,,,,300000,,,,,,,,
358080,note_on,0,0,11,,,,,,,,,10,,,,79,112
358080,note_on,60,0,11,,,,,,,,,10,,,,81,0
358083,note_on,0,0,12,,,,,,,,,11,,,,55,112
358083,note_on,120,0,12,,,,,,,,,11,,,,64,0
358084,note_on,60,0,2,,,,,,,,,1,,,,79,100
358084,note_on,0,0,2,,,,,,,,,1,,,,76,100
358088,note_on,0,0,13,,,,,,,,,12,,,,55,112
358088,note_on,120,0,13,,,,,,,,,12,,,,60,0
358092,note_on,120,0,14,,,,,,,,,13,,,,55,0
358092,note_on,0,0,14,,,,,,,,,13,,,,64,112
358140,note_on,60,0,11,,,,,,,,,10,,,,79,0
358142,note_on,299,0,5,,,,,,,,,4,,,,67,0
358143,note_on,60,0,12,,,,,,,,,11,,,,55,0
358143,note_on,299,0,6,,,,,,,,,5,,,,55,0
358144,note_on,0,0,2,,,,,,,,,1,,,,79,0
358144,note_on,60,0,2,,,,,,,,,1,,,,76,0
358148,note_on,60,0,13,,,,,,,,,12,,,,55,0
358200,set_tempo,120,1,0,,,,,,264901,,,,,,,,
358200,note_on,60,0,11,,,,,,,,,10,,,,79,112
358203,note_on,61,0,5,,,,,,,,,4,,,,67,115
358204,note_on,60,0,2,,,,,,,,,1,,,,74,100
358204,note_on,0,0,2,,,,,,,,,1,,,,79,100
358204,note_on,61,0,6,,,,,,,,,5,,,,55,115
358205,note_on,360,0,3,,,,,,,,,2,,,,67,0
358205,control_change,0,0,3,,,,,,,,,2,11,55,,,
358205,note_on,0,0,3,,,,,,,,,2,,,,67,116
358207,note_on,115,0,14,,,,,,,,,13,,,,64,0
358209,note_on,0,0,4,,,,,,,,,3,,,,65,100
358209,note_on,360,0,4,,,,,,,,,3,,,,64,0
358212,note_on,5,0,14,,,,,,,,,13,,,,62,127
358214,note_on,300,0,15,,,,,,,,,14,,,,31,112
358230,note_on,30,0,11,,,,,,,,,10,,,,79,0
358230,note_on,0,0,11,,,,,,,,,10,,,,77,127
358235,note_on,30,0,3,,,,,,,,,2,,,,67,0
358265,note_on,30,0,3,,,,,,,,,2,,,,67,101
358270,note_on,40,0,11,,,,,,,,,10,,,,77,0
358274,note_on,60,0,15,,,,,,,,,14,,,,31,0
358295,note_on,30,0,3,,,,,,,,,2,,,,67,0
358320,set_tempo,120,1,0,,,,,,272727,,,,,,,,
358320,note_on,50,0,11,,,,,,,,,10,,,,77,112
358323,note_on,180,0,12,,,,,,,,,11,,,,71,127
358325,note_on,30,0,3,,,,,,,,,2,,,,69,101
358328,note_on,180,0,13,,,,,,,,,12,,,,65,127
358380,note_on,60,0,11,,,,,,,,,10,,,,77,0
358385,note_on,0,0,3,,,,,,,,,2,,,,67,101
358385,note_on,60,0,3,,,,,,,,,2,,,,69,0
358440,set_tempo,120,1,0,,,,,,300000,,,,,,,,
358440,note_on,60,0,11,,,,,,,,,10,,,,77,112
358443,note_on,0,0,12,,,,,,,,,11,,,,67,112
358443,note_on,120,0,12,,,,,,,,,11,,,,71,0
358445,note_on,0,0,3,,,,,,,,,2,,,,69,101
358445,note_on,60,0,3,,,,,,,,,2,,,,67,0
358448,note_on,120,0,13,,,,,,,,,12,,,,65,0
358448,note_on,0,0,13,,,,,,,,,12,,,,67,112
358452,note_on,240,0,14,,,,,,,,,13,,,,62,0
358452,note_on,0,0,14,,,,,,,,,13,,,,59,112
358500,note_on,60,0,11,,,,,,,,,10,,,,77,0
358500,note_on,0,0,11,,,,,,,,,10,,,,79,112
358502,note_on,299,0,5,,,,,,,,,4,,,,67,0
358503,note_on,60,0,12,,,,,,,,,11,,,,67,0
358503,note_on,299,0,6,,,,,,,,,5,,,,55,0
358505,note_on,0,0,3,,,,,,,,,2,,,,67,101
358505,note_on,60,0,3,,,,,,,,,2,,,,69,0
358508,note_on,60,0,13,,,,,,,,,12,,,,67,0
358560,note_on,60,0,11,,,,,,,,,10,,,,79,0
358560,note_on,0,0,11,,,,,,,,,10,,,,76,112
358560,set_tempo,120,1,0,,,,,,264901,,,,,,,,
358563,note_on,61,0,5,,,,,,,,,4,,,,67,115
358564,note_on,360,0,2,,,,,,,,,1,,,,79,0
358564,note_on,61,0,6,,,,,,,,,5,,,,55,115
358564,note_on,0,0,2,,,,,,,,,1,,,,79,100
358564,note_on,0,0,2,,,,,,,,,1,,,,76,100
358564,note_on,0,0,2,,,,,,,,,1,,,,74,0
358565,control_change,0,0,3,,,,,,,,,2,11,47,,,
358565,note_on,0,0,3,,,,,,,,,2,,,,67,101
358565,note_on,60,0,3,,,,,,,,,2,,,,67,0
358569,note_on,0,0,4,,,,,,,,,3,,,,64,100
358569,note_on,360,0,4,,,,,,,,,3,,,,65,0
358572,note_on,0,0,14,,,,,,,,,13,,,,62,112
358572,note_on,120,0,14,,,,,,,,,13,,,,59,0
358574,note_on,300,0,15,,,,,,,,,14,,,,36,112
358625,note_on,60,0,3,,,,,,,,,2,,,,67,0
358629,note_on,60,0,4,,,,,,,,,3,,,,64,0
358632,note_on,60,0,14,,,,,,,,,13,,,,62,0
358632,note_on,0,0,14,,,,,,,,,13,,,,60,112
358634,note_on,60,0,15,,,,,,,,,14,,,,36,0
358680,note_on,120,0,11,,,,,,,,,10,,,,76,0
358680,set_tempo,120,1,0,,,,,,272727,,,,,,,,
358680,note_on,0,0,11,,,,,,,,,10,,,,79,112
358683,note_on,180,0,12,,,,,,,,,11,,,,72,127
358685,note_on,60,0,3,,,,,,,,,2,,,,67,101
358688,note_on,180,0,13,,,,,,,,,12,,,,64,127
358689,note_on,60,0,4,,,,,,,,,3,,,,64,100
358692,note_on,60,0,14,,,,,,,,,13,,,,60,0
358692,note_on,0,0,14,,,,,,,,,13,,,,59,112
358745,note_on,60,0,3,,,,,,,,,2,,,,67,0
358749,note_on,60,0,4,,,,,,,,,3,,,,64,0
358752,note_on,60,0,14,,,,,,,,,13,,,,59,0
358752,note_on,0,0,14,,,,,,,,,13,,,,57,112
358800,note_on,0,0,11,,,,,,,,,10,,,,76,112
358800,note_on,120,0,11,,,,,,,,,10,,,,79,0
358800,set_tempo,120,1,0,,,,,,333333,,,,,,,,
358803,note_on,120,0,12,,,,,,,,,11,,,,72,0
358803,note_on,0,0,12,,,,,,,,,11,,,,67,112
358805,note_on,60,0,3,,,,,,,,,2,,,,67,101
358808,note_on,120,0,13,,,,,,,,,12,,,,64,0
358808,note_on,0,0,13,,,,,,,,,12,,,,67,112
358809,note_on,60,0,4,,,,,,,,,3,,,,64,100
358812,note_on,60,0,14,,,,,,,,,13,,,,57,0
358812,note_on,0,0,14,,,,,,,,,13,,,,55,112
358862,note_on,299,0,5,,,,,,,,,4,,,,67,0
358863,note_on,299,0,6,,,,,,,,,5,,,,55,0
358863,note_on,60,0,12,,,,,,,,,11,,,,67,0
358865,note_on,60,0,3,,,,,,,,,2,,,,67,0
358868,note_on,60,0,13,,,,,,,,,12,,,,67,0
358869,note_on,60,0,4,,,,,,,,,3,,,,64,0
358915,note_on,115,0,11,,,,,,,,,10,,,,76,0
358920,set_tempo,120,1,0,,,,,,264901,,,,,,,,
358920,note_on,5,0,11,,,,,,,,,10,,,,74,112
358920,control_change,0,0,11,,,,,,,,,10,11,36,,,
358923,note_on,60,0,12,,,,,,,,,11,,,,74,112
358923,control_change,0,0,12,,,,,,,,,11,11,36,,,
358924,note_on,360,0,2,,,,,,,,,1,,,,79,0
358924,note_on,0,0,2,,,,,,,,,1,,,,76,0
358925,control_change,60,0,3,,,,,,,,,2,11,55,,,
358925,note_on,0,0,3,,,,,,,,,2,,,,79,116
358925,note_on,0,0,3,,,,,,,,,2,,,,77,101
358927,program_change,59,0,13,,,,,,,,50,12,,,,,
358928,note_on,1,0,13,,,,,,,,,12,,,,74,112
358928,control_change,0,0,13,,,,,,,,,12,11,36,,,
358929,control_change,0,0,4,,,,,,,,,3,11,57,,,
358929,note_on,0,0,4,,,,,,,,,3,,,,67,115
358929,note_on,60,0,4,,,,,,,,,3,,,,65,100
358932,note_on,0,0,14,,,,,,,,,13,,,,62,112
358932,note_on,120,0,14,,,,,,,,,13,,,,55,0
358932,control_change,0,0,14,,,,,,,,,13,11,36,,,
358934,control_change,0,0,15,,,,,,,,,14,11,36,,,
358934,note_on,300,0,15,,,,,,,,,14,,,,50,112
358955,note_on,30,0,3,,,,,,,,,2,,,,79,0
358959,note_on,30,0,4,,,,,,,,,3,,,,67,0
358985,note_on,30,0,3,,,,,,,,,2,,,,79,101
358989,note_on,30,0,4,,,,,,,,,3,,,,67,100
359015,note_on,30,0,3,,,,,,,,,2,,,,79,0
359019,note_on,30,0,4,,,,,,,,,3,,,,67,0
359045,note_on,30,0,3,,,,,,,,,2,,,,81,101
359049,note_on,30,0,4,,,,,,,,,3,,,,69,100
359105,note_on,60,0,3,,,,,,,,,2,,,,81,0
359105,note_on,0,0,3,,,,,,,,,2,,,,79,101
359109,note_on,0,0,4,,,,,,,,,3,,,,67,100
359109,note_on,60,0,4,,,,,,,,,3,,,,69,0
359160,note_on,0,0,11,,,,,,,,,10,,,,71,112
359160,set_tempo,240,1,0,,,,,,292683,,,,,,,,
359160,note_on,240,0,11,,,,,,,,,10,,,,74,0
359163,note_on,240,0,12,,,,,,,,,11,,,,74,0
359163,note_on,0,0,12,,,,,,,,,11,,,,71,112
359165,note_on,0,0,3,,,,,,,,,2,,,,81,101
359165,note_on,60,0,3,,,,,,,,,2,,,,79,0
359168,note_on,240,0,13,,,,,,,,,12,,,,74,0
359168,note_on,0,0,13,,,,,,,,,12,,,,71,112
359169,note_on,0,0,4,,,,,,,,,3,,,,69,100
359169,note_on,60,0,4,,,,,,,,,3,,,,67,0
359172,note_on,0,0,14,,,,,,,,,13,,,,59,112
359172,note_on,240,0,14,,,,,,,,,13,,,,62,0
359174,note_on,240,0,15,,,,,,,,,14,,,,50,0
359174,note_on,0,0,15,,,,,,,,,14,,,,47,112
359225,note_on,0,0,3,,,,,,,,,2,,,,79,101
359225,note_on,60,0,3,,,,,,,,,2,,,,81,0
359229,note_on,60,0,4,,,,,,,,,3,,,,69,0
359229,note_on,0,0,4,,,,,,,,,3,,,,67,100
359280,note_on,0,0,11,,,,,,,,,10,,,,67,112
359280,note_on,120,0,11,,,,,,,,,10,,,,71,0
359280,set_tempo,120,1,0,,,,,,263736,,,,,,,,
359283,note_on,0,0,12,,,,,,,,,11,,,,67,112
359283,note_on,120,0,12,,,,,,,,,11,,,,71,0
359285,note_on,60,0,3,,,,,,,,,2,,,,79,0
359285,control_change,0,0,3,,,,,,,,,2,11,47,,,
359285,note_on,0,0,3,,,,,,,,,2,,,,77,101
359285,note_on,0,0,3,,,,,,,,,2,,,,79,101
359285,note_on,0,0,3,,,,,,,,,2,,,,77,0
359288,note_on,120,0,13,,,,,,,,,12,,,,71,0
359288,note_on,0,0,13,,,,,,,,,12,,,,67,112
359289,note_on,0,0,4,,,,,,,,,3,,,,67,100
359289,note_on,0,0,4,,,,,,,,,3,,,,65,100
359289,note_on,0,0,4,,,,,,,,,3,,,,65,0
359289,note_on,60,0,4,,,,,,,,,3,,,,67,0
359289,control_change,0,0,4,,,,,,,,,3,11,47,,,
359292,note_on,120,0,14,,,,,,,,,13,,,,59,0
359292,note_on,0,0,14,,,,,,,,,13,,,,55,112
359294,note_on,120,0,15,,,,,,,,,14,,,,47,0
359294,note_on,0,0,15,,,,,,,,,14,,,,43,112
359345,note_on,0,0,3,,,,,,,,,2,,,,77,0
359345,note_on,60,0,3,,,,,,,,,2,,,,79,0
359349,note_on,60,0,4,,,,,,,,,3,,,,65,0
359349,note_on,0,0,4,,,,,,,,,3,,,,67,0
359405,note_on,60,0,3,,,,,,,,,2,,,,79,101
359405,note_on,0,0,3,,,,,,,,,2,,,,77,101
359409,note_on,60,0,4,,,,,,,,,3,,,,65,100
359409,note_on,0,0,4,,,,,,,,,3,,,,67,100
359465,note_on,60,0,3,,,,,,,,,2,,,,77,0
359465,note_on,0,0,3,,,,,,,,,2,,,,79,0
359469,note_on,60,0,4,,,,,,,,,3,,,,67,0
359469,note_on,0,0,4,,,,,,,,,3,,,,65,0
359520,set_tempo,240,1,0,,,,,,292683,,,,,,,,
359520,note_on,0,0,11,,,,,,,,,10,,,,62,112
359520,note_on,240,0,11,,,,,,,,,10,,,,67,0
359523,note_on,0,0,12,,,,,,,,,11,,,,62,112
359523,note_on,240,0,12,,,,,,,,,11,,,,67,0
359525,note_on,60,0,3,,,,,,,,,2,,,,77,101
359525,note_on,0,0,3,,,,,,,,,2,,,,79,101
359528,note_on,0,0,13,,,,,,,,,12,,,,62,112
359528,note_on,240,0,13,,,,,,,,,12,,,,67,0
359529,note_on,60,0,4,,,,,,,,,3,,,,65,100
359529,note_on,0,0,4,,,,,,,,,3,,,,67,100
359532,note_on,0,0,14,,,,,,,,,13,,,,50,112
359532,note_on,240,0,14,,,,,,,,,13,,,,55,0
359534,note_on,0,0,15,,,,,,,,,14,,,,38,112
359534,note_on,240,0,15,,,,,,,,,14,,,,43,0
359585,note_on,60,0,3,,,,,,,,,2,,,,79,0
359585,note_on,0,0,3,,,,,,,,,2,,,,77,0
359589,note_on,0,0,4,,,,,,,,,3,,,,65,0
359589,note_on,60,0,4,,,,,,,,,3,,,,67,0
359630,note_on,110,0,11,,,,,,,,,10,,,,62,0
359633,note_on,110,0,12,,,,,,,,,11,,,,62,0
359638,note_on,110,0,13,,,,,,,,,12,,,,62,0
359640,set_tempo,120,1,0,,,,,,263736,,,,,,,,
359640,note_on,10,0,11,,,,,,,,,10,,,,59,112
359642,note_on,110,0,14,,,,,,,,,13,,,,50,0
359643,note_on,10,0,12,,,,,,,,,11,,,,59,112
359644,control_change,720,0,2,,,,,,,,,1,11,55,,,
359644,note_on,0,0,2,,,,,,,,,1,,,,79,100
359644,note_on,0,0,2,,,,,,,,,1,,,,77,100
359644,note_on,110,0,15,,,,,,,,,14,,,,38,0
359645,note_on,0,0,3,,,,,,,,,2,,,,79,116
359645,note_on,60,0,3,,,,,,,,,2,,,,77,116
359648,note_on,10,0,13,,,,,,,,,12,,,,59,112
359649,note_on,60,0,4,,,,,,,,,3,,,,67,115
359649,note_on,0,0,4,,,,,,,,,3,,,,65,115
359652,note_on,10,0,14,,,,,,,,,13,,,,47,112
359654,note_on,10,0,15,,,,,,,,,14,,,,35,112
359674,note_on,30,0,2,,,,,,,,,1,,,,79,0
359704,note_on,30,0,2,,,,,,,,,1,,,,79,100
359734,note_on,30,0,2,,,,,,,,,1,,,,79,0
359760,note_on,120,0,11,,,,,,,,,10,,,,59,0
359760,note_on,0,0,11,,,,,,,,,10,,,,62,112
359763,note_on,0,0,12,,,,,,,,,11,,,,62,112
359763,note_on,120,0,12,,,,,,,,,11,,,,59,0
359764,note_on,30,0,2,,,,,,,,,1,,,,81,100
359768,note_on,120,0,13,,,,,,,,,12,,,,59,0
359768,note_on,0,0,13,,,,,,,,,12,,,,62,112
359772,note_on,0,0,14,,,,,,,,,13,,,,50,112
359772,note_on,120,0,14,,,,,,,,,13,,,,47,0
359774,note_on,120,0,15,,,,,,,,,14,,,,35,0
359774,note_on,0,0,15,,,,,,,,,14,,,,38,112
359824,note_on,0,0,2,,,,,,,,,1,,,,79,100
359824,note_on,60,0,2,,,,,,,,,1,,,,81,0
359880,set_tempo,240,1,0,,,,,,292683,,,,,,,,
359880,note_on,0,0,11,,,,,,,,,10,,,,66,112
359880,note_on,120,0,11,,,,,,,,,10,,,,62,0
359883,note_on,120,0,12,,,,,,,,,11,,,,62,0
359883,note_on,0,0,12,,,,,,,,,11,,,,66,112
359884,note_on,0,0,2,,,,,,,,,1,,,,81,100
359884,note_on,60,0,2,,,,,,,,,1,,,,79,0
359888,note_on,0,0,13,,,,,,,,,12,,,,66,112
359888,note_on,120,0,13,,,,,,,,,12,,,,62,0
359892,note_on,120,0,14,,,,,,,,,13,,,,50,0
359892,note_on,0,0,14,,,,,,,,,13,,,,54,112
359894,note_on,0,0,15,,,,,,,,,14,,,,42,112
359894,note_on,120,0,15,,,,,,,,,14,,,,38,0
359944,note_on,60,0,2,,,,,,,,,1,,,,81,0
359944,note_on,0,0,2,,,,,,,,,1,,,,79,100
360000,note_on,120,0,11,,,,,,,,,10,,,,66,0
360000,note_on,0,0,11,,,,,,,,,10,,,,67,112
360000,set_tempo,120,1,0,,,,,,263736,,,,,,,,
360003,note_on,0,0,12,,,,,,,,,11,,,,67,112
360003,note_on,120,0,12,,,,,,,,,11,,,,66,0
360004,note_on,0,0,2,,,,,,,,,1,,,,77,0
360004,note_on,0,0,2,,,,,,,,,1,,,,79,100
360004,note_on,60,0,2,,,,,,,,,1,,,,79,0
360004,control_change,0,0,2,,,,,,,,,1,11,47,,,
360004,note_on,0,0,2,,,,,,,,,1,,,,77,100
360005,note_on,0,0,3,,,,,,,,,2,,,,79,116
360005,note_on,0,0,3,,,,,,,,,2,,,,77,0
360005,note_on,360,0,3,,,,,,,,,2,,,,79,0
360005,note_on,0,0,3,,,,,,,,,2,,,,77,116
360008,note_on,120,0,13,,,,,,,,,12,,,,66,0
360008,note_on,0,0,13,,,,,,,,,12,,,,67,112
360009,note_on,360,0,4,,,,,,,,,3,,,,65,0
360009,note_on,0,0,4,,,,,,,,,3,,,,67,0
360009,note_on,0,0,4,,,,,,,,,3,,,,65,115
360009,note_on,0,0,4,,,,,,,,,3,,,,67,115
360012,note_on,0,0,14,,,,,,,,,13,,,,55,112
360012,note_on,120,0,14,,,,,,,,,13,,,,54,0
360014,note_on,120,0,15,,,,,,,,,14,,,,42,0
360014,note_on,0,0,15,,,,,,,,,14,,,,43,112
360064,note_on,0,0,2,,,,,,,,,1,,,,77,0
360064,note_on,60,0,2,,,,,,,,,1,,,,79,0
360120,note_on,120,0,11,,,,,,,,,10,,,,67,0
360120,note_on,0,0,11,,,,,,,,,10,,,,71,112
360123,note_on,120,0,12,,,,,,,,,11,,,,67,0
360123,note_on,0,0,12,,,,,,,,,11,,,,71,112
360124,note_on,0,0,2,,,,,,,,,1,,,,79,100
360124,note_on,60,0,2,,,,,,,,,1,,,,77,100
360128,note_on,0,0,13,,,,,,,,,12,,,,71,112
360128,note_on,120,0,13,,,,,,,,,12,,,,67,0
360132,note_on,120,0,14,,,,,,,,,13,,,,55,0
360132,note_on,0,0,14,,,,,,,,,13,,,,59,112
360134,note_on,120,0,15,,,,,,,,,14,,,,43,0
360134,note_on,0,0,15,,,,,,,,,14,,,,47,112
360184,note_on,60,0,2,,,,,,,,,1,,,,79,0
360184,note_on,0,0,2,,,,,,,,,1,,,,77,0
360240,note_on,120,0,11,,,,,,,,,10,,,,71,0
360240,set_tempo,240,1,0,,,,,,315789,,,,,,,,
360240,note_on,0,0,11,,,,,,,,,10,,,,73,112
360243,note_on,0,0,12,,,,,,,,,11,,,,73,112
360243,note_on,120,0,12,,,,,,,,,11,,,,71,0
360244,note_on,60,0,2,,,,,,,,,1,,,,77,100
360244,note_on,0,0,2,,,,,,,,,1,,,,79,100
360248,note_on,120,0,13,,,,,,,,,12,,,,71,0
360248,note_on,0,0,13,,,,,,,,,12,,,,73,112
360252,note_on,0,0,14,,,,,,,,,13,,,,61,112
360252,note_on,120,0,14,,,,,,,,,13,,,,59,0
360254,note_on,120,0,15,,,,,,,,,14,,,,47,0
360254,note_on,0,0,15,,,,,,,,,14,,,,49,112
360304,note_on,0,0,2,,,,,,,,,1,,,,77,0
360304,note_on,60,0,2,,,,,,,,,1,,,,79,0
360350,note_on,110,0,11,,,,,,,,,10,,,,73,0
360353,note_on,110,0,12,,,,,,,,,11,,,,73,0
360358,note_on,110,0,13,,,,,,,,,12,,,,73,0
360360,control_change,0,0,11,,,,,,,,,10,11,36,,,
360360,set_tempo,120,1,0,,,,,,260870,,,,,,,,
360360,note_on,10,0,11,,,,,,,,,10,,,,74,127
360361,control_change,0,0,1,,,,,,,,,0,11,37,,,
360361,note_on,0,0,1,,,,,,,,,0,,,,86,101
360361,note_on,5640,0,1,,,,,,,,,0,,,,83,116
360362,note_on,110,0,14,,,,,,,,,13,,,,61,0
360363,control_change,10,0,12,,,,,,,,,11,11,36,,,
360363,note_on,0,0,12,,,,,,,,,11,,,,74,127
360364,control_change,60,0,2,,,,,,,,,1,11,37,,,
360364,note_on,110,0,15,,,,,,,,,14,,,,49,0
360364,note_on,0,0,2,,,,,,,,,1,,,,83,115
360364,note_on,0,0,2,,,,,,,,,1,,,,74,115
360365,note_on,360,0,3,,,,,,,,,2,,,,79,0
360365,note_on,0,0,3,,,,,,,,,2,,,,77,0
360365,note_on,0,0,3,,,,,,,,,2,,,,78,116
360365,control_change,0,0,3,,,,,,,,,2,11,37,,,
360368,control_change,10,0,13,,,,,,,,,12,11,36,,,
360368,note_on,0,0,13,,,,,,,,,12,,,,74,127
360369,note_on,360,0,4,,,,,,,,,3,,,,67,0
360369,note_on,0,0,4,,,,,,,,,3,,,,65,0
360369,note_on,0,0,4,,,,,,,,,3,,,,66,115
360369,control_change,0,0,4,,,,,,,,,3,11,37,,,
360372,note_on,0,0,14,,,,,,,,,13,,,,62,127
360372,control_change,10,0,14,,,,,,,,,13,11,36,,,
360374,note_on,10,0,15,,,,,,,,,14,,,,50,127
360374,control_change,0,0,15,,,,,,,,,14,11,36,,,
360391,note_on,30,0,1,,,,,,,,,0,,,,86,0
360408,control_change,48,0,11,,,,,,,,,10,11,37,,,
360411,control_change,48,0,12,,,,,,,,,11,11,37,,,
360416,control_change,48,0,13,,,,,,,,,12,11,37,,,
360420,control_change,48,0,14,,,,,,,,,13,11,37,,,
360421,note_on,30,0,1,,,,,,,,,0,,,,86,101
360421,control_change,0,0,1,,,,,,,,,0,11,38,,,
360422,control_change,48,0,15,,,,,,,,,14,11,37,,,
360424,control_change,60,0,2,,,,,,,,,1,11,38,,,
360425,control_change,60,0,3,,,,,,,,,2,11,38,,,
360429,control_change,60,0,4,,,,,,,,,3,11,38,,,
360451,note_on,30,0,1,,,,,,,,,0,,,,86,0
360456,control_change,48,0,11,,,,,,,,,10,11,38,,,
360459,control_change,48,0,12,,,,,,,,,11,11,38,,,
360464,control_change,48,0,13,,,,,,,,,12,11,38,,,
360468,control_change,48,0,14,,,,,,,,,13,11,38,,,
360470,control_change,48,0,15,,,,,,,,,14,11,38,,,
360481,note_on,30,0,1,,,,,,,,,0,,,,88,101
360482,control_change,1,0,1,,,,,,,,,0,11,39,,,
360485,control_change,61,0,2,,,,,,,,,1,11,39,,,
360486,control_change,61,0,3,,,,,,,,,2,11,39,,,
360490,control_change,61,0,4,,,,,,,,,3,11,39,,,
360504,control_change,48,0,11,,,,,,,,,10,11,39,,,
360507,control_change,48,0,12,,,,,,,,,11,11,39,,,
360512,control_change,48,0,13,,,,,,,,,12,11,39,,,
360516,control_change,48,0,14,,,,,,,,,13,11,39,,,
360518,control_change,48,0,15,,,,,,,,,14,11,39,,,
360541,note_on,0,0,1,,,,,,,,,0,,,,86,101
360541,note_on,59,0,1,,,,,,,,,0,,,,88,0
360543,control_change,2,0,1,,,,,,,,,0,11,40,,,
360546,control_change,61,0,2,,,,,,,,,1,11,40,,,
360547,control_change,61,0,3,,,,,,,,,2,11,40,,,
360551,control_change,61,0,4,,,,,,,,,3,11,40,,,
360552,control_change,48,0,11,,,,,,,,,10,11,40,,,
360555,control_change,48,0,12,,,,,,,,,11,11,40,,,
360560,control_change,48,0,13,,,,,,,,,12,11,40,,,
360564,control_change,48,0,14,,,,,,,,,13,11,40,,,
360566,control_change,48,0,15,,,,,,,,,14,11,40,,,
360600,set_tempo,240,1,0,,,,,,288462,,,,,,,,
360600,note_on,0,0,11,,,,,,,,,10,,,,71,112
360600,note_on,48,0,11,,,,,,,,,10,,,,74,0
360600,control_change,0,0,11,,,,,,,,,10,11,41,,,
360601,note_on,58,0,1,,,,,,,,,0,,,,86,0
360601,note_on,0,0,1,,,,,,,,,0,,,,88,101
360603,note_on,0,0,12,,,,,,,,,11,,,,71,112
360603,note_on,48,0,12,,,,,,,,,11,,,,74,0
360603,control_change,0,0,12,,,,,,,,,11,11,41,,,
360604,control_change,3,0,1,,,,,,,,,0,11,41,,,
360607,control_change,61,0,2,,,,,,,,,1,11,41,,,
360608,control_change,61,0,3,,,,,,,,,2,11,41,,,
360608,note_on,0,0,13,,,,,,,,,12,,,,71,112
360608,note_on,48,0,13,,,,,,,,,12,,,,74,0
360608,control_change,0,0,13,,,,,,,,,12,11,41,,,
360612,control_change,61,0,4,,,,,,,,,3,11,41,,,
360612,control_change,0,0,14,,,,,,,,,13,11,41,,,
360612,note_on,0,0,14,,,,,,,,,13,,,,59,112
360612,note_on,48,0,14,,,,,,,,,13,,,,62,0
360614,control_change,0,0,15,,,,,,,,,14,11,41,,,
360614,note_on,48,0,15,,,,,,,,,14,,,,50,0
360614,note_on,0,0,15,,,,,,,,,14,,,,47,112
360640,control_change,40,0,11,,,,,,,,,10,11,42,,,
360643,control_change,40,0,12,,,,,,,,,11,11,42,,,
360648,control_change,40,0,13,,,,,,,,,12,11,42,,,
360652,control_change,40,0,14,,,,,,,,,13,11,42,,,
360654,control_change,40,0,15,,,,,,,,,14,11,42,,,
360661,note_on,0,0,1,,,,,,,,,0,,,,86,101
360661,note_on,57,0,1,,,,,,,,,0,,,,88,0
360665,control_change,4,0,1,,,,,,,,,0,11,42,,,
360668,control_change,61,0,2,,,,,,,,,1,11,42,,,
360669,control_change,61,0,3,,,,,,,,,2,11,42,,,
360673,control_change,61,0,4,,,,,,,,,3,11,42,,,
360681,control_change,41,0,11,,,,,,,,,10,11,42,,,
360684,control_change,41,0,12,,,,,,,,,11,11,42,,,
360689,control_change,41,0,13,,,,,,,,,12,11,42,,,
360693,control_change,41,0,14,,,,,,,,,13,11,42,,,
360695,control_change,41,0,15,,,,,,,,,14,11,42,,,
360720,set_tempo,120,1,0,,,,,,260870,,,,,,,,
360720,note_on,39,0,11,,,,,,,,,10,,,,71,0
360720,note_on,0,0,11,,,,,,,,,10,,,,66,112
360721,note_on,0,0,1,,,,,,,,,0,,,,83,101
360721,note_on,0,0,1,,,,,,,,,0,,,,86,101
360721,control_change,1,0,11,,,,,,,,,10,11,43,,,
360721,note_on,56,0,1,,,,,,,,,0,,,,86,0
360721,note_on,0,0,1,,,,,,,,,0,,,,83,0
360723,note_on,39,0,12,,,,,,,,,11,,,,71,0
360723,note_on,0,0,12,,,,,,,,,11,,,,66,112
360724,note_on,0,0,2,,,,,,,,,1,,,,83,115
360724,note_on,56,0,2,,,,,,,,,1,,,,74,0
360724,control_change,1,0,12,,,,,,,,,11,11,43,,,
360724,note_on,0,0,2,,,,,,,,,1,,,,74,115
360724,note_on,0,0,2,,,,,,,,,1,,,,83,0
360725,note_on,0,0,3,,,,,,,,,2,,,,78,101
360725,note_on,0,0,3,,,,,,,,,2,,,,71,101
360725,note_on,56,0,3,,,,,,,,,2,,,,78,0
360726,control_change,5,0,1,,,,,,,,,0,11,43,,,
360728,note_on,39,0,13,,,,,,,,,12,,,,71,0
360728,note_on,0,0,13,,,,,,,,,12,,,,66,112
360729,note_on,56,0,4,,,,,,,,,3,,,,66,0
360729,note_on,0,0,4,,,,,,,,,3,,,,62,115
360729,note_on,0,0,4,,,,,,,,,3,,,,66,115
360729,control_change,5,0,2,,,,,,,,,1,11,43,,,
360729,control_change,1,0,13,,,,,,,,,12,11,43,,,
360730,control_change,5,0,3,,,,,,,,,2,11,43,,,
360732,note_on,0,0,14,,,,,,,,,13,,,,54,112
360732,note_on,39,0,14,,,,,,,,,13,,,,59,0
360733,control_change,1,0,14,,,,,,,,,13,11,43,,,
360734,note_on,39,0,15,,,,,,,,,14,,,,47,0
360734,note_on,0,0,15,,,,,,,,,14,,,,42,112
360734,control_change,5,0,4,,,,,,,,,3,11,43,,,
360735,control_change,1,0,15,,,,,,,,,14,11,43,,,
360762,control_change,41,0,11,,,,,,,,,10,11,44,,,
360765,control_change,41,0,12,,,,,,,,,11,11,44,,,
360770,control_change,41,0,13,,,,,,,,,12,11,44,,,
360774,control_change,41,0,14,,,,,,,,,13,11,44,,,
360776,control_change,41,0,15,,,,,,,,,14,11,44,,,
360781,note_on,55,0,1,,,,,,,,,0,,,,86,0
360781,note_on,0,0,1,,,,,,,,,0,,,,83,0
360787,control_change,6,0,1,,,,,,,,,0,11,44,,,
360789,note_on,55,0,4,,,,,,,,,3,,,,66,0
360789,note_on,0,0,4,,,,,,,,,3,,,,62,0
360790,control_change,61,0,2,,,,,,,,,1,11,44,,,
360791,control_change,61,0,3,,,,,,,,,2,11,44,,,
360795,control_change,6,0,4,,,,,,,,,3,11,44,,,
360803,control_change,41,0,11,,,,,,,,,10,11,45,,,
360806,control_change,41,0,12,,,,,,,,,11,11,45,,,
360811,control_change,41,0,13,,,,,,,,,12,11,45,,,
360815,control_change,41,0,14,,,,,,,,,13,11,45,,,
360817,control_change,41,0,15,,,,,,,,,14,11,45,,,
360841,note_on,54,0,1,,,,,,,,,0,,,,86,101
360841,note_on,0,0,1,,,,,,,,,0,,,,83,101
360843,control_change,40,0,11,,,,,,,,,10,11,46,,,
360846,control_change,40,0,12,,,,,,,,,11,11,46,,,
360848,control_change,7,0,1,,,,,,,,,0,11,45,,,
360849,note_on,54,0,4,,,,,,,,,3,,,,62,100
360849,note_on,0,0,4,,,,,,,,,3,,,,66,100
360851,control_change,40,0,13,,,,,,,,,12,11,46,,,
360851,control_change,61,0,2,,,,,,,,,1,11,45,,,
360852,control_change,61,0,3,,,,,,,,,2,11,45,,,
360855,control_change,40,0,14,,,,,,,,,13,11,46,,,
360856,control_change,7,0,4,,,,,,,,,3,11,45,,,
360857,control_change,40,0,15,,,,,,,,,14,11,46,,,
360884,control_change,41,0,11,,,,,,,,,10,11,47,,,
360887,control_change,41,0,12,,,,,,,,,11,11,47,,,
360892,control_change,41,0,13,,,,,,,,,12,11,47,,,
360896,control_change,41,0,14,,,,,,,,,13,11,47,,,
360898,control_change,41,0,15,,,,,,,,,14,11,47,,,
360901,note_on,53,0,1,,,,,,,,,0,,,,83,0
360901,note_on,0,0,1,,,,,,,,,0,,,,86,0
360909,note_on,0,0,4,,,,,,,,,3,,,,62,0
360909,note_on,53,0,4,,,,,,,,,3,,,,66,0
360909,control_change,8,0,1,,,,,,,,,0,11,46,,,
360912,control_change,61,0,2,,,,,,,,,1,11,46,,,
360913,control_change,61,0,3,,,,,,,,,2,11,46,,,
360917,control_change,8,0,4,,,,,,,,,3,11,46,,,
360924,control_change,40,0,11,,,,,,,,,10,11,48,,,
360927,control_change,40,0,12,,,,,,,,,11,11,48,,,
360932,control_change,40,0,13,,,,,,,,,12,11,48,,,
360936,control_change,40,0,14,,,,,,,,,13,11,48,,,
360938,control_change,40,0,15,,,,,,,,,14,11,48,,,
360960,note_on,36,0,11,,,,,,,,,10,,,,66,0
360960,set_tempo,240,1,0,,,,,,288462,,,,,,,,
360960,note_on,0,0,11,,,,,,,,,10,,,,62,112
360961,note_on,52,0,1,,,,,,,,,0,,,,83,101
360961,note_on,0,0,1,,,,,,,,,0,,,,86,101
360963,note_on,36,0,12,,,,,,,,,11,,,,66,0
360963,note_on,0,0,12,,,,,,,,,11,,,,62,112
360965,control_change,5,0,11,,,,,,,,,10,11,49,,,
360968,control_change,5,0,12,,,,,,,,,11,11,49,,,
360968,note_on,36,0,13,,,,,,,,,12,,,,66,0
360968,note_on,0,0,13,,,,,,,,,12,,,,62,112
360969,note_on,52,0,4,,,,,,,,,3,,,,62,100
360969,note_on,0,0,4,,,,,,,,,3,,,,66,100
360970,control_change,9,0,1,,,,,,,,,0,11,47,,,
360972,note_on,0,0,14,,,,,,,,,13,,,,50,112
360972,note_on,36,0,14,,,,,,,,,13,,,,54,0
360973,control_change,5,0,13,,,,,,,,,12,11,49,,,
360973,control_change,61,0,2,,,,,,,,,1,11,47,,,
360974,control_change,61,0,3,,,,,,,,,2,11,47,,,
360974,note_on,36,0,15,,,,,,,,,14,,,,42,0
360974,note_on,0,0,15,,,,,,,,,14,,,,38,112
360977,control_change,5,0,14,,,,,,,,,13,11,49,,,
360978,control_change,9,0,4,,,,,,,,,3,11,47,,,
360979,control_change,5,0,15,,,,,,,,,14,11,49,,,
361006,control_change,41,0,11,,,,,,,,,10,11,50,,,
361009,control_change,41,0,12,,,,,,,,,11,11,50,,,
361014,control_change,41,0,13,,,,,,,,,12,11,50,,,
361018,control_change,41,0,14,,,,,,,,,13,11,50,,,
361020,control_change,41,0,15,,,,,,,,,14,11,50,,,
361021,note_on,51,0,1,,,,,,,,,0,,,,86,0
361021,note_on,0,0,1,,,,,,,,,0,,,,83,0
361029,note_on,51,0,4,,,,,,,,,3,,,,66,0
361029,note_on,0,0,4,,,,,,,,,3,,,,62,0
361031,control_change,10,0,1,,,,,,,,,0,11,48,,,
361034,control_change,61,0,2,,,,,,,,,1,11,48,,,
361035,control_change,61,0,3,,,,,,,,,2,11,48,,,
361039,control_change,10,0,4,,,,,,,,,3,11,48,,,
361046,control_change,40,0,11,,,,,,,,,10,11,51,,,
361049,control_change,40,0,12,,,,,,,,,11,11,51,,,
361054,control_change,40,0,13,,,,,,,,,12,11,51,,,
361058,control_change,40,0,14,,,,,,,,,13,11,51,,,
361060,control_change,40,0,15,,,,,,,,,14,11,51,,,
361070,note_on,24,0,11,,,,,,,,,10,,,,62,0
361073,note_on,24,0,12,,,,,,,,,11,,,,62,0
361078,note_on,24,0,13,,,,,,,,,12,,,,62,0
361080,set_tempo,120,1,0,,,,,,260870,,,,,,,,
361080,note_on,10,0,11,,,,,,,,,10,,,,59,112
361081,note_on,50,0,1,,,,,,,,,0,,,,86,116
361081,note_on,0,0,1,,,,,,,,,0,,,,83,116
361082,note_on,24,0,14,,,,,,,,,13,,,,50,0
361083,note_on,10,0,12,,,,,,,,,11,,,,59,112
361084,note_on,0,0,2,,,,,,,,,1,,,,74,100
361084,note_on,0,0,2,,,,,,,,,1,,,,83,115
361084,note_on,24,0,15,,,,,,,,,14,,,,38,0
361084,note_on,0,0,2,,,,,,,,,1,,,,74,0
361084,note_on,50,0,2,,,,,,,,,1,,,,83,0
361085,note_on,0,0,3,,,,,,,,,2,,,,74,116
361085,note_on,0,0,3,,,,,,,,,2,,,,78,116
361085,note_on,0,0,3,,,,,,,,,2,,,,71,0
361085,note_on,50,0,3,,,,,,,,,2,,,,78,0
361087,control_change,7,0,11,,,,,,,,,10,11,52,,,
361088,note_on,10,0,13,,,,,,,,,12,,,,59,112
361089,note_on,50,0,4,,,,,,,,,3,,,,66,115
361089,note_on,0,0,4,,,,,,,,,3,,,,59,115
361090,control_change,7,0,12,,,,,,,,,11,11,52,,,
361092,note_on,10,0,14,,,,,,,,,13,,,,47,112
361092,control_change,11,0,1,,,,,,,,,0,11,49,,,
361094,note_on,10,0,15,,,,,,,,,14,,,,35,112
361095,control_change,11,0,2,,,,,,,,,1,11,49,,,
361095,control_change,7,0,13,,,,,,,,,12,11,52,,,
361096,control_change,11,0,3,,,,,,,,,2,11,49,,,
361099,control_change,7,0,14,,,,,,,,,13,11,52,,,
361100,control_change,11,0,4,,,,,,,,,3,11,49,,,
361101,control_change,7,0,15,,,,,,,,,14,11,52,,,
361114,note_on,19,0,2,,,,,,,,,1,,,,74,0
361128,control_change,41,0,11,,,,,,,,,10,11,53,,,
361131,control_change,41,0,12,,,,,,,,,11,11,53,,,
361136,control_change,41,0,13,,,,,,,,,12,11,53,,,
361140,control_change,41,0,14,,,,,,,,,13,11,53,,,
361142,control_change,41,0,15,,,,,,,,,14,11,53,,,
361144,note_on,30,0,2,,,,,,,,,1,,,,74,100
361153,control_change,61,0,1,,,,,,,,,0,11,50,,,
361156,control_change,12,0,2,,,,,,,,,1,11,50,,,
361157,control_change,61,0,3,,,,,,,,,2,11,50,,,
361161,control_change,61,0,4,,,,,,,,,3,11,50,,,
361168,control_change,40,0,11,,,,,,,,,10,11,54,,,
361171,control_change,40,0,12,,,,,,,,,11,11,54,,,
361174,note_on,18,0,2,,,,,,,,,1,,,,74,0
361176,control_change,40,0,13,,,,,,,,,12,11,54,,,
361180,control_change,40,0,14,,,,,,,,,13,11,54,,,
361182,control_change,40,0,15,,,,,,,,,14,11,54,,,
361200,note_on,32,0,11,,,,,,,,,10,,,,59,0
361200,note_on,0,0,11,,,,,,,,,10,,,,62,112
361203,note_on,0,0,12,,,,,,,,,11,,,,62,112
361203,note_on,32,0,12,,,,,,,,,11,,,,59,0
361204,note_on,30,0,2,,,,,,,,,1,,,,76,100
361208,note_on,0,0,13,,,,,,,,,12,,,,62,112
361208,note_on,32,0,13,,,,,,,,,12,,,,59,0
361209,control_change,9,0,11,,,,,,,,,10,11,55,,,
361212,control_change,9,0,12,,,,,,,,,11,11,55,,,
361212,note_on,0,0,14,,,,,,,,,13,,,,50,112
361212,note_on,32,0,14,,,,,,,,,13,,,,47,0
361213,control_change,60,0,1,,,,,,,,,0,11,51,,,
361214,note_on,32,0,15,,,,,,,,,14,,,,35,0
361214,note_on,0,0,15,,,,,,,,,14,,,,38,112
361216,control_change,12,0,2,,,,,,,,,1,11,51,,,
361217,control_change,9,0,13,,,,,,,,,12,11,55,,,
361217,control_change,60,0,3,,,,,,,,,2,11,51,,,
361221,control_change,60,0,4,,,,,,,,,3,11,51,,,
361221,control_change,9,0,14,,,,,,,,,13,11,55,,,
361223,control_change,9,0,15,,,,,,,,,14,11,55,,,
361249,control_change,40,0,11,,,,,,,,,10,11,56,,,
361252,control_change,40,0,12,,,,,,,,,11,11,56,,,
361257,control_change,40,0,13,,,,,,,,,12,11,56,,,
361261,control_change,40,0,14,,,,,,,,,13,11,56,,,
361263,control_change,40,0,15,,,,,,,,,14,11,56,,,
361264,note_on,0,0,2,,,,,,,,,1,,,,74,100
361264,note_on,48,0,2,,,,,,,,,1,,,,76,0
361274,control_change,61,0,1,,,,,,,,,0,11,52,,,
361277,control_change,13,0,2,,,,,,,,,1,11,52,,,
361278,control_change,61,0,3,,,,,,,,,2,11,52,,,
361282,control_change,61,0,4,,,,,,,,,3,11,52,,,
361290,control_change,41,0,11,,,,,,,,,10,11,57,,,
361293,control_change,41,0,12,,,,,,,,,11,11,57,,,
361298,control_change,41,0,13,,,,,,,,,12,11,57,,,
361302,control_change,41,0,14,,,,,,,,,13,11,57,,,
361304,control_change,41,0,15,,,,,,,,,14,11,57,,,
361320,note_on,0,0,11,,,,,,,,,10,,,,66,112
361320,note_on,30,0,11,,,,,,,,,10,,,,62,0
361320,set_tempo,240,1,0,,,,,,288462,,,,,,,,
361323,note_on,30,0,12,,,,,,,,,11,,,,62,0
361323,note_on,0,0,12,,,,,,,,,11,,,,66,112
361324,note_on,0,0,2,,,,,,,,,1,,,,76,100
361324,note_on,47,0,2,,,,,,,,,1,,,,74,0
361328,note_on,30,0,13,,,,,,,,,12,,,,62,0
361328,note_on,0,0,13,,,,,,,,,12,,,,66,112
361331,control_change,11,0,11,,,,,,,,,10,11,57,,,
361332,note_on,30,0,14,,,,,,,,,13,,,,50,0
361332,note_on,0,0,14,,,,,,,,,13,,,,54,112
361334,control_change,11,0,12,,,,,,,,,11,11,57,,,
361334,note_on,30,0,15,,,,,,,,,14,,,,38,0
361334,note_on,0,0,15,,,,,,,,,14,,,,42,112
361335,control_change,61,0,1,,,,,,,,,0,11,52,,,
361338,control_change,14,0,2,,,,,,,,,1,11,52,,,
361339,control_change,61,0,3,,,,,,,,,2,11,52,,,
361339,control_change,11,0,13,,,,,,,,,12,11,57,,,
361343,control_change,61,0,4,,,,,,,,,3,11,53,,,
361343,control_change,11,0,14,,,,,,,,,13,11,57,,,
361345,control_change,11,0,15,,,,,,,,,14,11,57,,,
361371,control_change,40,0,11,,,,,,,,,10,11,58,,,
361374,control_change,40,0,12,,,,,,,,,11,11,58,,,
361379,control_change,40,0,13,,,,,,,,,12,11,58,,,
361383,control_change,40,0,14,,,,,,,,,13,11,58,,,
361384,note_on,46,0,2,,,,,,,,,1,,,,76,0
361384,note_on,0,0,2,,,,,,,,,1,,,,74,100
361385,control_change,40,0,15,,,,,,,,,14,11,58,,,
361396,control_change,61,0,1,,,,,,,,,0,11,53,,,
361399,control_change,15,0,2,,,,,,,,,1,11,53,,,
361400,control_change,61,0,3,,,,,,,,,2,11,53,,,
361404,control_change,61,0,4,,,,,,,,,3,11,54,,,
361412,control_change,41,0,11,,,,,,,,,10,11,59,,,
361415,control_change,41,0,12,,,,,,,,,11,11,59,,,
361420,control_change,41,0,13,,,,,,,,,12,11,59,,,
361424,control_change,41,0,14,,,,,,,,,13,11,59,,,
361426,control_change,41,0,15,,,,,,,,,14,11,59,,,
361440,set_tempo,120,1,0,,,,,,260870,,,,,,,,
361440,note_on,28,0,11,,,,,,,,,10,,,,66,0
361440,note_on,0,0,11,,,,,,,,,10,,,,71,112
361441,note_on,0,0,1,,,,,,,,,0,,,,83,116
361441,note_on,0,0,1,,,,,,,,,0,,,,86,0
361441,note_on,45,0,1,,,,,,,,,0,,,,83,0
361441,note_on,0,0,1,,,,,,,,,0,,,,86,116
361443,note_on,28,0,12,,,,,,,,,11,,,,66,0
361443,note_on,0,0,12,,,,,,,,,11,,,,71,112
361444,note_on,45,0,2,,,,,,,,,1,,,,74,0
361444,note_on,0,0,2,,,,,,,,,1,,,,83,0
361444,note_on,0,0,2,,,,,,,,,1,,,,83,100
361444,note_on,0,0,2,,,,,,,,,1,,,,74,100
361445,note_on,0,0,3,,,,,,,,,2,,,,74,101
361445,note_on,0,0,3,,,,,,,,,2,,,,78,0
361445,note_on,0,0,3,,,,,,,,,2,,,,78,101
361445,note_on,45,0,3,,,,,,,,,2,,,,74,0
361448,note_on,28,0,13,,,,,,,,,12,,,,66,0
361448,note_on,0,0,13,,,,,,,,,12,,,,71,112
361449,note_on,45,0,4,,,,,,,,,3,,,,59,0
361449,note_on,0,0,4,,,,,,,,,3,,,,66,0
361449,note_on,0,0,4,,,,,,,,,3,,,,59,115
361449,note_on,0,0,4,,,,,,,,,3,,,,66,115
361452,note_on,0,0,14,,,,,,,,,13,,,,59,112
361452,control_change,12,0,11,,,,,,,,,10,11,60,,,
361452,note_on,28,0,14,,,,,,,,,13,,,,54,0
361454,note_on,28,0,15,,,,,,,,,14,,,,42,0
361454,note_on,0,0,15,,,,,,,,,14,,,,47,112
361455,control_change,12,0,12,,,,,,,,,11,11,60,,,
361457,control_change,16,0,1,,,,,,,,,0,11,54,,,
361460,control_change,12,0,13,,,,,,,,,12,11,60,,,
361460,control_change,16,0,2,,,,,,,,,1,11,54,,,
361461,control_change,16,0,3,,,,,,,,,2,11,54,,,
361464,control_change,12,0,14,,,,,,,,,13,11,60,,,
361465,control_change,16,0,4,,,,,,,,,3,11,55,,,
361466,control_change,12,0,15,,,,,,,,,14,11,60,,,
361493,control_change,41,0,11,,,,,,,,,10,11,61,,,
361496,control_change,41,0,12,,,,,,,,,11,11,61,,,
361501,control_change,41,0,13,,,,,,,,,12,11,61,,,
361504,note_on,0,0,2,,,,,,,,,1,,,,83,0
361504,note_on,44,0,2,,,,,,,,,1,,,,74,0
361505,note_on,0,0,3,,,,,,,,,2,,,,78,0
361505,control_change,41,0,14,,,,,,,,,13,11,61,,,
361505,note_on,44,0,3,,,,,,,,,2,,,,74,0
361507,control_change,41,0,15,,,,,,,,,14,11,61,,,
361518,control_change,61,0,1,,,,,,,,,0,11,55,,,
361521,control_change,17,0,2,,,,,,,,,1,11,55,,,
361522,control_change,17,0,3,,,,,,,,,2,11,55,,,
361526,control_change,61,0,4,,,,,,,,,3,11,56,,,
361534,control_change,41,0,11,,,,,,,,,10,11,62,,,
361537,control_change,41,0,12,,,,,,,,,11,11,62,,,
361542,control_change,41,0,13,,,,,,,,,12,11,62,,,
361546,control_change,41,0,14,,,,,,,,,13,11,62,,,
361548,control_change,41,0,15,,,,,,,,,14,11,62,,,
361560,note_on,0,0,11,,,,,,,,,10,,,,74,112
361560,note_on,26,0,11,,,,,,,,,10,,,,71,0
361563,note_on,26,0,12,,,,,,,,,11,,,,71,0
361563,note_on,0,0,12,,,,,,,,,11,,,,74,112
361564,note_on,43,0,2,,,,,,,,,1,,,,74,100
361564,note_on,0,0,2,,,,,,,,,1,,,,83,100
361565,note_on,0,0,3,,,,,,,,,2,,,,78,101
361565,note_on,43,0,3,,,,,,,,,2,,,,74,101
361568,note_on,0,0,13,,,,,,,,,12,,,,74,112
361568,note_on,26,0,13,,,,,,,,,12,,,,71,0
361572,note_on,26,0,14,,,,,,,,,13,,,,59,0
361572,note_on,0,0,14,,,,,,,,,13,,,,62,112
361574,note_on,26,0,15,,,,,,,,,14,,,,47,0
361574,control_change,14,0,11,,,,,,,,,10,11,63,,,
361574,note_on,0,0,15,,,,,,,,,14,,,,50,112
361577,control_change,14,0,12,,,,,,,,,11,11,63,,,
361579,control_change,61,0,1,,,,,,,,,0,11,55,,,
361582,control_change,14,0,13,,,,,,,,,12,11,63,,,
361582,control_change,18,0,2,,,,,,,,,1,11,55,,,
361583,control_change,18,0,3,,,,,,,,,2,11,55,,,
361586,control_change,14,0,14,,,,,,,,,13,11,63,,,
361587,control_change,61,0,4,,,,,,,,,3,11,57,,,
361588,control_change,14,0,15,,,,,,,,,14,11,63,,,
361615,control_change,41,0,11,,,,,,,,,10,11,64,,,
361618,control_change,41,0,12,,,,,,,,,11,11,64,,,
361623,control_change,41,0,13,,,,,,,,,12,11,64,,,
361624,note_on,42,0,2,,,,,,,,,1,,,,83,0
361624,note_on,0,0,2,,,,,,,,,1,,,,74,0
361625,note_on,42,0,3,,,,,,,,,2,,,,78,0
361625,note_on,0,0,3,,,,,,,,,2,,,,74,0
361627,control_change,41,0,14,,,,,,,,,13,11,64,,,
361629,control_change,41,0,15,,,,,,,,,14,11,64,,,
361640,control_change,61,0,1,,,,,,,,,0,11,56,,,
361643,control_change,19,0,2,,,,,,,,,1,11,56,,,
361644,control_change,19,0,3,,,,,,,,,2,11,56,,,
361648,control_change,61,0,4,,,,,,,,,3,11,58,,,
361656,control_change,41,0,11,,,,,,,,,10,11,65,,,
361659,control_change,41,0,12,,,,,,,,,11,11,65,,,
361664,control_change,41,0,13,,,,,,,,,12,11,65,,,
361668,control_change,41,0,14,,,,,,,,,13,11,65,,,
361670,control_change,41,0,15,,,,,,,,,14,11,65,,,
361680,note_on,0,0,11,,,,,,,,,10,,,,78,112
361680,note_on,24,0,11,,,,,,,,,10,,,,74,0
361680,set_tempo,240,1,0,,,,,,300000,,,,,,,,
361683,note_on,24,0,12,,,,,,,,,11,,,,74,0
361683,note_on,0,0,12,,,,,,,,,11,,,,78,112
361684,note_on,41,0,2,,,,,,,,,1,,,,83,100
361684,note_on,0,0,2,,,,,,,,,1,,,,74,100
361685,note_on,41,0,3,,,,,,,,,2,,,,74,101
361685,note_on,0,0,3,,,,,,,,,2,,,,78,101
361688,note_on,24,0,13,,,,,,,,,12,,,,74,0
361688,note_on,0,0,13,,,,,,,,,12,,,,66,112
361692,note_on,24,0,14,,,,,,,,,13,,,,62,0
361692,note_on,0,0,14,,,,,,,,,13,,,,66,112
361694,note_on,24,0,15,,,,,,,,,14,,,,50,0
361694,note_on,0,0,15,,,,,,,,,14,,,,54,112
361696,control_change,16,0,11,,,,,,,,,10,11,66,,,
361699,control_change,16,0,12,,,,,,,,,11,11,66,,,
361701,control_change,61,0,1,,,,,,,,,0,11,57,,,
361704,control_change,20,0,2,,,,,,,,,1,11,57,,,
361704,control_change,16,0,13,,,,,,,,,12,11,66,,,
361705,control_change,20,0,3,,,,,,,,,2,11,57,,,
361708,control_change,16,0,14,,,,,,,,,13,11,66,,,
361709,control_change,61,0,4,,,,,,,,,3,11,59,,,
361710,control_change,16,0,15,,,,,,,,,14,11,66,,,
361737,control_change,41,0,11,,,,,,,,,10,11,67,,,
361740,control_change,41,0,12,,,,,,,,,11,11,67,,,
361744,note_on,40,0,2,,,,,,,,,1,,,,74,0
361744,note_on,0,0,2,,,,,,,,,1,,,,83,0
361745,control_change,41,0,13,,,,,,,,,12,11,67,,,
361745,note_on,40,0,3,,,,,,,,,2,,,,78,0
361745,note_on,0,0,3,,,,,,,,,2,,,,74,0
361749,control_change,41,0,14,,,,,,,,,13,11,67,,,
361751,control_change,41,0,15,,,,,,,,,14,11,67,,,
361762,control_change,61,0,1,,,,,,,,,0,11,58,,,
361765,control_change,21,0,2,,,,,,,,,1,11,58,,,
361766,control_change,21,0,3,,,,,,,,,2,11,58,,,
361770,control_change,61,0,4,,,,,,,,,3,11,60,,,
361777,control_change,40,0,11,,,,,,,,,10,11,68,,,
361780,control_change,40,0,12,,,,,,,,,11,11,68,,,
361785,control_change,40,0,13,,,,,,,,,12,11,68,,,
361789,control_change,40,0,14,,,,,,,,,13,11,68,,,
361790,note_on,13,0,11,,,,,,,,,10,,,,78,0
361791,control_change,40,0,15,,,,,,,,,14,11,68,,,
361793,note_on,13,0,12,,,,,,,,,11,,,,78,0
361798,note_on,13,0,13,,,,,,,,,12,,,,66,0
361800,note_on,10,0,11,,,,,,,,,10,,,,79,127
361800,set_tempo,120,1,0,,,,,,259179,,,,,,,,
361801,note_on,0,0,1,,,,,,,,,0,,,,86,101
361801,note_on,39,0,1,,,,,,,,,0,,,,86,0
361801,note_on,0,0,1,,,,,,,,,0,,,,83,0
361801,note_on,0,0,1,,,,,,,,,0,,,,83,116
361802,note_on,13,0,14,,,,,,,,,13,,,,66,0
361803,control_change,0,0,5,,,,,,,,,4,11,82,,,
361803,note_on,10,0,12,,,,,,,,,11,,,,79,127
361803,note_on,2941,0,5,,,,,,,,,4,,,,67,115
361804,note_on,0,0,2,,,,,,,,,1,,,,83,115
361804,note_on,39,0,2,,,,,,,,,1,,,,74,115
361804,control_change,0,0,6,,,,,,,,,5,11,82,,,
361804,note_on,2941,0,6,,,,,,,,,5,,,,55,115
361804,note_on,13,0,15,,,,,,,,,14,,,,54,0
361805,note_on,0,0,3,,,,,,,,,2,,,,74,101
361805,note_on,39,0,3,,,,,,,,,2,,,,71,116
361808,note_on,10,0,13,,,,,,,,,12,,,,67,127
361809,note_on,0,0,4,,,,,,,,,3,,,,59,115
361809,note_on,39,0,4,,,,,,,,,3,,,,66,0
361809,note_on,0,0,4,,,,,,,,,3,,,,62,115
361809,note_on,0,0,4,,,,,,,,,3,,,,59,0
361812,note_on,10,0,14,,,,,,,,,13,,,,67,127
361814,note_on,10,0,15,,,,,,,,,14,,,,55,127
361818,control_change,18,0,11,,,,,,,,,10,11,69,,,
361821,control_change,18,0,12,,,,,,,,,11,11,69,,,
361823,control_change,22,0,1,,,,,,,,,0,11,58,,,
361826,control_change,22,0,2,,,,,,,,,1,11,58,,,
361826,control_change,18,0,13,,,,,,,,,12,11,69,,,
361827,control_change,22,0,3,,,,,,,,,2,11,58,,,
361830,control_change,18,0,14,,,,,,,,,13,11,69,,,
361831,note_on,8,0,1,,,,,,,,,0,,,,86,0
361831,control_change,22,0,4,,,,,,,,,3,11,61,,,
361832,control_change,18,0,15,,,,,,,,,14,11,69,,,
361835,note_on,8,0,3,,,,,,,,,2,,,,74,0
361859,control_change,41,0,11,,,,,,,,,10,11,70,,,
361861,note_on,30,0,1,,,,,,,,,0,,,,86,101
361862,control_change,41,0,12,,,,,,,,,11,11,70,,,
361865,note_on,30,0,3,,,,,,,,,2,,,,74,101
361867,control_change,41,0,13,,,,,,,,,12,11,70,,,
361871,control_change,41,0,14,,,,,,,,,13,11,70,,,
361873,control_change,41,0,15,,,,,,,,,14,11,70,,,
361875,control_change,72,0,5,,,,,,,,,4,11,83,,,
361876,control_change,72,0,6,,,,,,,,,5,11,83,,,
361884,control_change,23,0,1,,,,,,,,,0,11,59,,,
361887,control_change,61,0,2,,,,,,,,,1,11,59,,,
361888,control_change,23,0,3,,,,,,,,,2,11,59,,,
361891,note_on,7,0,1,,,,,,,,,0,,,,86,0
361892,control_change,61,0,4,,,,,,,,,3,11,62,,,
361895,note_on,7,0,3,,,,,,,,,2,,,,74,0
361899,control_change,40,0,11,,,,,,,,,10,11,71,,,
361902,control_change,40,0,12,,,,,,,,,11,11,71,,,
361907,control_change,40,0,13,,,,,,,,,12,11,71,,,
361911,control_change,40,0,14,,,,,,,,,13,11,71,,,
361913,control_change,40,0,15,,,,,,,,,14,11,71,,,
361921,note_on,30,0,1,,,,,,,,,0,,,,88,101
361925,note_on,30,0,3,,,,,,,,,2,,,,76,101
361940,control_change,41,0,11,,,,,,,,,10,11,72,,,
361943,control_change,41,0,12,,,,,,,,,11,11,72,,,
361945,control_change,24,0,1,,,,,,,,,0,11,60,,,
361947,control_change,72,0,5,,,,,,,,,4,11,84,,,
361948,control_change,41,0,13,,,,,,,,,12,11,72,,,
361948,control_change,72,0,6,,,,,,,,,5,11,84,,,
361948,control_change,61,0,2,,,,,,,,,1,11,60,,,
361949,control_change,24,0,3,,,,,,,,,2,11,60,,,
361952,control_change,41,0,14,,,,,,,,,13,11,72,,,
361953,control_change,61,0,4,,,,,,,,,3,11,63,,,
361954,control_change,41,0,15,,,,,,,,,14,11,72,,,
361980,control_change,40,0,11,,,,,,,,,10,11,72,,,
361981,note_on,36,0,1,,,,,,,,,0,,,,88,0
361981,note_on,0,0,1,,,,,,,,,0,,,,86,101
361983,control_change,40,0,12,,,,,,,,,11,11,72,,,
361985,note_on,36,0,3,,,,,,,,,2,,,,76,0
361985,note_on,0,0,3,,,,,,,,,2,,,,74,101
361988,control_change,40,0,13,,,,,,,,,12,11,72,,,
361992,control_change,40,0,14,,,,,,,,,13,11,72,,,
361994,control_change,40,0,15,,,,,,,,,14,11,72,,,
362005,control_change,24,0,1,,,,,,,,,0,11,61,,,
362008,control_change,60,0,2,,,,,,,,,1,11,61,,,
362009,control_change,24,0,3,,,,,,,,,2,11,61,,,
362013,control_change,60,0,4,,,,,,,,,3,11,64,,,
362019,control_change,72,0,5,,,,,,,,,4,11,85,,,
362020,control_change,72,0,6,,,,,,,,,5,11,85,,,
362021,control_change,41,0,11,,,,,,,,,10,11,73,,,
362024,control_change,41,0,12,,,,,,,,,11,11,73,,,
362029,control_change,41,0,13,,,,,,,,,12,11,73,,,
362033,control_change,41,0,14,,,,,,,,,13,11,73,,,
362035,control_change,41,0,15,,,,,,,,,14,11,73,,,
362040,set_tempo,240,1,0,,,,,,285714,,,,,,,,
362040,note_on,19,0,11,,,,,,,,,10,,,,79,0
362040,note_on,0,0,11,,,,,,,,,10,,,,74,112
362041,note_on,0,0,1,,,,,,,,,0,,,,88,101
362041,note_on,36,0,1,,,,,,,,,0,,,,86,0
362043,note_on,19,0,12,,,,,,,,,11,,,,79,0
362043,note_on,0,0,12,,,,,,,,,11,,,,74,112
362045,note_on,0,0,3,,,,,,,,,2,,,,76,101
362045,note_on,36,0,3,,,,,,,,,2,,,,74,0
362048,note_on,0,0,13,,,,,,,,,12,,,,62,112
362048,note_on,19,0,13,,,,,,,,,12,,,,67,0
362052,note_on,0,0,14,,,,,,,,,13,,,,62,112
362052,note_on,19,0,14,,,,,,,,,13,,,,67,0
362054,note_on,19,0,15,,,,,,,,,14,,,,55,0
362054,note_on,0,0,15,,,,,,,,,14,,,,50,112
362062,control_change,22,0,11,,,,,,,,,10,11,74,,,
362065,control_change,22,0,12,,,,,,,,,11,11,74,,,
362066,control_change,25,0,1,,,,,,,,,0,11,61,,,
362069,control_change,61,0,2,,,,,,,,,1,11,61,,,
362070,control_change,25,0,3,,,,,,,,,2,11,61,,,
362070,control_change,22,0,13,,,,,,,,,12,11,74,,,
362074,control_change,22,0,14,,,,,,,,,13,11,74,,,
362074,control_change,61,0,4,,,,,,,,,3,11,65,,,
362076,control_change,22,0,15,,,,,,,,,14,11,74,,,
362091,control_change,72,0,5,,,,,,,,,4,11,86,,,
362092,control_change,72,0,6,,,,,,,,,5,11,86,,,
362101,note_on,0,0,1,,,,,,,,,0,,,,86,101
362101,note_on,35,0,1,,,,,,,,,0,,,,88,0
362102,control_change,40,0,11,,,,,,,,,10,11,75,,,
362105,control_change,40,0,12,,,,,,,,,11,11,75,,,
362105,note_on,0,0,3,,,,,,,,,2,,,,74,101
362105,note_on,35,0,3,,,,,,,,,2,,,,76,0
362110,control_change,40,0,13,,,,,,,,,12,11,75,,,
362114,control_change,40,0,14,,,,,,,,,13,11,75,,,
362116,control_change,40,0,15,,,,,,,,,14,11,75,,,
362127,control_change,26,0,1,,,,,,,,,0,11,62,,,
362130,control_change,61,0,2,,,,,,,,,1,11,62,,,
362131,control_change,26,0,3,,,,,,,,,2,11,62,,,
362135,control_change,61,0,4,,,,,,,,,3,11,66,,,
362143,control_change,41,0,11,,,,,,,,,10,11,76,,,
362146,control_change,41,0,12,,,,,,,,,11,11,76,,,
362150,note_on,7,0,11,,,,,,,,,10,,,,74,0
362151,control_change,41,0,13,,,,,,,,,12,11,76,,,
362153,note_on,62,0,5,,,,,,,,,4,,,,67,0
362153,note_on,7,0,12,,,,,,,,,11,,,,74,0
362154,note_on,62,0,6,,,,,,,,,5,,,,55,0
362155,control_change,41,0,14,,,,,,,,,13,11,76,,,
362157,control_change,41,0,15,,,,,,,,,14,11,76,,,
362158,note_on,7,0,13,,,,,,,,,12,,,,62,0
362160,note_on,10,0,11,,,,,,,,,10,,,,71,112
362160,set_tempo,120,1,0,,,,,,259179,,,,,,,,
362161,note_on,0,0,1,,,,,,,,,0,,,,86,101
362161,note_on,0,0,1,,,,,,,,,0,,,,83,101
362161,note_on,0,0,1,,,,,,,,,0,,,,83,0
362161,note_on,34,0,1,,,,,,,,,0,,,,86,0
362162,note_on,7,0,14,,,,,,,,,13,,,,62,0
362163,note_on,10,0,12,,,,,,,,,11,,,,71,112
362163,control_change,10,0,5,,,,,,,,,4,11,87,,,
362163,note_on,0,0,5,,,,,,,,,4,,,,67,115
362164,note_on,10,0,6,,,,,,,,,5,,,,55,115
362164,control_change,0,0,6,,,,,,,,,5,11,87,,,
362164,note_on,0,0,2,,,,,,,,,1,,,,74,115
362164,note_on,0,0,2,,,,,,,,,1,,,,74,0
362164,note_on,34,0,2,,,,,,,,,1,,,,83,0
362164,note_on,0,0,2,,,,,,,,,1,,,,83,115
362164,note_on,7,0,15,,,,,,,,,14,,,,50,0
362165,note_on,34,0,3,,,,,,,,,2,,,,74,0
362165,note_on,0,0,3,,,,,,,,,2,,,,71,0
362165,note_on,0,0,3,,,,,,,,,2,,,,71,101
362165,note_on,0,0,3,,,,,,,,,2,,,,74,101
362168,note_on,10,0,13,,,,,,,,,12,,,,59,112
362169,note_on,0,0,4,,,,,,,,,3,,,,59,0
362169,note_on,34,0,4,,,,,,,,,3,,,,62,0
362169,note_on,0,0,4,,,,,,,,,3,,,,59,115
362169,note_on,0,0,4,,,,,,,,,3,,,,62,115
362172,note_on,10,0,14,,,,,,,,,13,,,,59,112
362174,note_on,10,0,15,,,,,,,,,14,,,,47,112
362184,control_change,24,0,11,,,,,,,,,10,11,77,,,
362187,control_change,24,0,12,,,,,,,,,11,11,77,,,
362188,control_change,27,0,1,,,,,,,,,0,11,63,,,
362191,control_change,27,0,2,,,,,,,,,1,11,63,,,
362192,control_change,27,0,3,,,,,,,,,2,11,63,,,
362192,control_change,24,0,13,,,,,,,,,12,11,77,,,
362196,control_change,24,0,14,,,,,,,,,13,11,77,,,
362196,control_change,27,0,4,,,,,,,,,3,11,67,,,
362198,control_change,24,0,15,,,,,,,,,14,11,77,,,
362221,note_on,33,0,1,,,,,,,,,0,,,,83,0
362221,note_on,0,0,1,,,,,,,,,0,,,,86,0
362224,control_change,40,0,11,,,,,,,,,10,11,78,,,
362225,note_on,33,0,3,,,,,,,,,2,,,,74,0
362225,note_on,0,0,3,,,,,,,,,2,,,,71,0
362227,control_change,40,0,12,,,,,,,,,11,11,78,,,
362232,control_change,40,0,13,,,,,,,,,12,11,78,,,
362235,control_change,72,0,5,,,,,,,,,4,11,88,,,
362236,control_change,72,0,6,,,,,,,,,5,11,88,,,
362236,control_change,40,0,14,,,,,,,,,13,11,78,,,
362238,control_change,40,0,15,,,,,,,,,14,11,78,,,
362249,control_change,28,0,1,,,,,,,,,0,11,64,,,
362252,control_change,61,0,2,,,,,,,,,1,11,64,,,
362253,control_change,28,0,3,,,,,,,,,2,11,64,,,
362257,control_change,61,0,4,,,,,,,,,3,11,68,,,
362265,control_change,41,0,11,,,,,,,,,10,11,79,,,
362268,control_change,41,0,12,,,,,,,,,11,11,79,,,
362273,control_change,41,0,13,,,,,,,,,12,11,79,,,
362277,control_change,41,0,14,,,,,,,,,13,11,79,,,
362279,control_change,41,0,15,,,,,,,,,14,11,79,,,
362281,note_on,0,0,1,,,,,,,,,0,,,,86,101
362281,note_on,32,0,1,,,,,,,,,0,,,,83,101
362285,note_on,32,0,3,,,,,,,,,2,,,,71,101
362285,note_on,0,0,3,,,,,,,,,2,,,,74,101
362305,control_change,40,0,11,,,,,,,,,10,11,80,,,
362307,control_change,72,0,5,,,,,,,,,4,11,89,,,
362308,control_change,72,0,6,,,,,,,,,5,11,89,,,
362308,control_change,40,0,12,,,,,,,,,11,11,80,,,
362310,control_change,29,0,1,,,,,,,,,0,11,64,,,
362313,control_change,40,0,13,,,,,,,,,12,11,80,,,
362313,control_change,61,0,2,,,,,,,,,1,11,64,,,
362314,control_change,29,0,3,,,,,,,,,2,11,64,,,
362317,control_change,40,0,14,,,,,,,,,13,11,80,,,
362318,control_change,61,0,4,,,,,,,,,3,11,69,,,
362319,control_change,40,0,15,,,,,,,,,14,11,80,,,
362341,note_on,31,0,1,,,,,,,,,0,,,,86,0
362341,note_on,0,0,1,,,,,,,,,0,,,,83,0
362345,note_on,31,0,3,,,,,,,,,2,,,,74,0
362345,note_on,0,0,3,,,,,,,,,2,,,,71,0
362346,control_change,41,0,11,,,,,,,,,10,11,81,,,
362349,control_change,41,0,12,,,,,,,,,11,11,81,,,
362354,control_change,41,0,13,,,,,,,,,12,11,81,,,
362358,control_change,41,0,14,,,,,,,,,13,11,81,,,
362360,control_change,41,0,15,,,,,,,,,14,11,81,,,
362371,control_change,30,0,1,,,,,,,,,0,11,65,,,
362374,control_change,61,0,2,,,,,,,,,1,11,65,,,
362375,control_change,30,0,3,,,,,,,,,2,11,65,,,
362379,control_change,72,0,5,,,,,,,,,4,11,90,,,
362379,control_change,61,0,4,,,,,,,,,3,11,70,,,
362380,control_change,72,0,6,,,,,,,,,5,11,90,,,
362387,control_change,41,0,11,,,,,,,,,10,11,82,,,
362390,control_change,41,0,12,,,,,,,,,11,11,82,,,
362395,control_change,41,0,13,,,,,,,,,12,11,82,,,
362399,control_change,41,0,14,,,,,,,,,13,11,82,,,
362400,note_on,13,0,11,,,,,,,,,10,,,,71,0
362400,note_on,0,0,11,,,,,,,,,10,,,,67,112
362400,set_tempo,240,1,0,,,,,,285714,,,,,,,,
362401,control_change,41,0,15,,,,,,,,,14,11,82,,,
362401,note_on,0,0,1,,,,,,,,,0,,,,86,101
362401,note_on,30,0,1,,,,,,,,,0,,,,83,101
362403,note_on,0,0,12,,,,,,,,,11,,,,67,112
362403,note_on,13,0,12,,,,,,,,,11,,,,71,0
362405,note_on,0,0,3,,,,,,,,,2,,,,74,101
362405,note_on,30,0,3,,,,,,,,,2,,,,71,101
362408,note_on,0,0,13,,,,,,,,,12,,,,55,112
362408,note_on,13,0,13,,,,,,,,,12,,,,59,0
362412,note_on,13,0,14,,,,,,,,,13,,,,59,0
362412,note_on,0,0,14,,,,,,,,,13,,,,55,112
362414,note_on,0,0,15,,,,,,,,,14,,,,43,112
362414,note_on,13,0,15,,,,,,,,,14,,,,47,0
362427,control_change,27,0,11,,,,,,,,,10,11,83,,,
362430,control_change,27,0,12,,,,,,,,,11,11,83,,,
362432,control_change,31,0,1,,,,,,,,,0,11,66,,,
362435,control_change,27,0,13,,,,,,,,,12,11,83,,,
362435,control_change,61,0,2,,,,,,,,,1,11,66,,,
362436,control_change,31,0,3,,,,,,,,,2,11,66,,,
362439,control_change,27,0,14,,,,,,,,,13,11,83,,,
362440,control_change,61,0,4,,,,,,,,,3,11,71,,,
362441,control_change,27,0,15,,,,,,,,,14,11,83,,,
362451,control_change,72,0,5,,,,,,,,,4,11,91,,,
362452,control_change,72,0,6,,,,,,,,,5,11,91,,,
362461,note_on,29,0,1,,,,,,,,,0,,,,86,0
362461,note_on,0,0,1,,,,,,,,,0,,,,83,0
362465,note_on,29,0,3,,,,,,,,,2,,,,74,0
362465,note_on,0,0,3,,,,,,,,,2,,,,71,0
362468,control_change,41,0,11,,,,,,,,,10,11,84,,,
362471,control_change,41,0,12,,,,,,,,,11,11,84,,,
362476,control_change,41,0,13,,,,,,,,,12,11,84,,,
362480,control_change,41,0,14,,,,,,,,,13,11,84,,,
362482,control_change,41,0,15,,,,,,,,,14,11,84,,,
362493,control_change,32,0,1,,,,,,,,,0,11,67,,,
362496,control_change,61,0,2,,,,,,,,,1,11,67,,,
362497,control_change,32,0,3,,,,,,,,,2,11,67,,,
362501,control_change,61,0,4,,,,,,,,,3,11,72,,,
362508,control_change,40,0,11,,,,,,,,,10,11,85,,,
362510,note_on,2,0,11,,,,,,,,,10,,,,67,0
362511,control_change,40,0,12,,,,,,,,,11,11,85,,,
362513,note_on,62,0,5,,,,,,,,,4,,,,67,0
362513,note_on,2,0,12,,,,,,,,,11,,,,67,0
362514,note_on,62,0,6,,,,,,,,,5,,,,55,0
362516,control_change,40,0,13,,,,,,,,,12,11,85,,,
362518,note_on,2,0,13,,,,,,,,,12,,,,55,0
362520,set_tempo,120,1,0,,,,,,259179,,,,,,,,
362520,note_on,10,0,11,,,,,,,,,10,,,,64,127
362520,control_change,40,0,14,,,,,,,,,13,11,85,,,
362521,note_on,0,0,1,,,,,,,,,0,,,,91,101
362521,note_on,28,0,1,,,,,,,,,0,,,,88,116
362522,note_on,2,0,14,,,,,,,,,13,,,,55,0
362522,control_change,40,0,15,,,,,,,,,14,11,85,,,
362523,control_change,0,0,5,,,,,,,,,4,11,92,,,
362523,note_on,10,0,5,,,,,,,,,4,,,,64,100
362523,note_on,10,0,12,,,,,,,,,11,,,,64,127
362524,control_change,0,0,6,,,,,,,,,5,11,92,,,
362524,note_on,2,0,15,,,,,,,,,14,,,,43,0
362524,note_on,0,0,2,,,,,,,,,1,,,,79,100
362524,note_on,28,0,2,,,,,,,,,1,,,,74,0
362524,note_on,0,0,2,,,,,,,,,1,,,,83,0
362524,note_on,10,0,6,,,,,,,,,5,,,,64,100
362524,note_on,0,0,2,,,,,,,,,1,,,,83,115
362525,note_on,28,0,3,,,,,,,,,2,,,,79,101
362525,note_on,0,0,3,,,,,,,,,2,,,,71,116
362528,note_on,10,0,13,,,,,,,,,12,,,,64,127
362529,note_on,0,0,4,,,,,,,,,3,,,,67,115
362529,note_on,0,0,4,,,,,,,,,3,,,,59,0
362529,note_on,28,0,4,,,,,,,,,3,,,,62,0
362529,note_on,0,0,4,,,,,,,,,3,,,,59,115
362532,note_on,10,0,14,,,,,,,,,13,,,,64,127
362534,note_on,10,0,15,,,,,,,,,14,,,,52,127
362549,control_change,29,0,11,,,,,,,,,10,11,86,,,
362551,note_on,30,0,1,,,,,,,,,0,,,,91,0
362552,control_change,29,0,12,,,,,,,,,11,11,86,,,
362554,control_change,3,0,1,,,,,,,,,0,11,67,,,
362554,note_on,30,0,2,,,,,,,,,1,,,,79,0
362555,note_on,30,0,3,,,,,,,,,2,,,,79,0
362557,control_change,3,0,2,,,,,,,,,1,11,67,,,
362557,control_change,29,0,13,,,,,,,,,12,11,86,,,
362558,control_change,3,0,3,,,,,,,,,2,11,67,,,
362561,control_change,29,0,14,,,,,,,,,13,11,86,,,
362562,control_change,33,0,4,,,,,,,,,3,11,73,,,
362563,control_change,29,0,15,,,,,,,,,14,11,86,,,
362581,note_on,27,0,1,,,,,,,,,0,,,,91,101
362584,note_on,27,0,2,,,,,,,,,1,,,,79,100
362585,note_on,27,0,3,,,,,,,,,2,,,,79,101
362590,control_change,41,0,11,,,,,,,,,10,11,87,,,
362593,control_change,41,0,12,,,,,,,,,11,11,87,,,
362595,control_change,72,0,5,,,,,,,,,4,11,93,,,
362596,control_change,72,0,6,,,,,,,,,5,11,93,,,
362598,control_change,41,0,13,,,,,,,,,12,11,87,,,
362602,control_change,41,0,14,,,,,,,,,13,11,87,,,
362604,control_change,41,0,15,,,,,,,,,14,11,87,,,
362611,note_on,30,0,1,,,,,,,,,0,,,,91,0
362615,control_change,4,0,1,,,,,,,,,0,11,68,,,
362615,note_on,30,0,3,,,,,,,,,2,,,,79,0
362618,control_change,34,0,2,,,,,,,,,1,11,68,,,
362619,control_change,4,0,3,,,,,,,,,2,11,68,,,
362623,control_change,61,0,4,,,,,,,,,3,11,74,,,
362630,control_change,40,0,11,,,,,,,,,10,11,87,,,
362633,control_change,40,0,12,,,,,,,,,11,11,87,,,
362638,control_change,40,0,13,,,,,,,,,12,11,87,,,
362641,note_on,26,0,1,,,,,,,,,0,,,,93,101
362642,control_change,40,0,14,,,,,,,,,13,11,87,,,
362644,note_on,26,0,2,,,,,,,,,1,,,,79,0
362644,note_on,0,0,2,,,,,,,,,1,,,,81,100
362644,control_change,40,0,15,,,,,,,,,14,11,87,,,
362645,note_on,26,0,3,,,,,,,,,2,,,,81,101
362667,control_change,72,0,5,,,,,,,,,4,11,94,,,
362668,control_change,72,0,6,,,,,,,,,5,11,94,,,
362671,control_change,41,0,11,,,,,,,,,10,11,88,,,
362674,control_change,41,0,12,,,,,,,,,11,11,88,,,
362676,control_change,35,0,1,,,,,,,,,0,11,69,,,
362679,control_change,41,0,13,,,,,,,,,12,11,88,,,
362679,control_change,35,0,2,,,,,,,,,1,11,69,,,
362680,control_change,35,0,3,,,,,,,,,2,11,69,,,
362683,control_change,41,0,14,,,,,,,,,13,11,88,,,
362684,control_change,61,0,4,,,,,,,,,3,11,75,,,
362685,control_change,41,0,15,,,,,,,,,14,11,88,,,
362701,note_on,25,0,1,,,,,,,,,0,,,,93,0
362701,note_on,0,0,1,,,,,,,,,0,,,,91,101
362704,note_on,25,0,2,,,,,,,,,1,,,,81,0
362704,note_on,0,0,2,,,,,,,,,1,,,,79,100
362705,note_on,25,0,3,,,,,,,,,2,,,,81,0
362705,note_on,0,0,3,,,,,,,,,2,,,,79,101
362712,control_change,41,0,11,,,,,,,,,10,11,89,,,
362715,control_change,41,0,12,,,,,,,,,11,11,89,,,
362720,control_change,41,0,13,,,,,,,,,12,11,89,,,
362724,control_change,41,0,14,,,,,,,,,13,11,89,,,
362726,control_change,41,0,15,,,,,,,,,14,11,89,,,
362737,control_change,36,0,1,,,,,,,,,0,11,70,,,
362739,control_change,72,0,5,,,,,,,,,4,11,95,,,
362740,control_change,36,0,2,,,,,,,,,1,11,70,,,
362740,control_change,72,0,6,,,,,,,,,5,11,95,,,
362741,control_change,36,0,3,,,,,,,,,2,11,70,,,
362745,control_change,61,0,4,,,,,,,,,3,11,76,,,
362752,control_change,40,0,11,,,,,,,,,10,11,90,,,
362755,control_change,40,0,12,,,,,,,,,11,11,90,,,
362760,set_tempo,240,1,0,,,,,,285714,,,,,,,,
362760,note_on,8,0,11,,,,,,,,,10,,,,64,0
362760,note_on,0,0,11,,,,,,,,,10,,,,71,112
362760,control_change,40,0,13,,,,,,,,,12,11,90,,,
362761,note_on,24,0,1,,,,,,,,,0,,,,91,0
362761,note_on,0,0,1,,,,,,,,,0,,,,93,101
362763,note_on,8,0,12,,,,,,,,,11,,,,64,0
362763,note_on,0,0,12,,,,,,,,,11,,,,71,112
362764,note_on,24,0,2,,,,,,,,,1,,,,79,0
362764,control_change,40,0,14,,,,,,,,,13,11,90,,,
362764,note_on,0,0,2,,,,,,,,,1,,,,81,100
362765,note_on,24,0,3,,,,,,,,,2,,,,79,0
362765,note_on,0,0,3,,,,,,,,,2,,,,81,101
362766,control_change,40,0,15,,,,,,,,,14,11,90,,,
362767,program_change,7,0,13,,,,,,,,48,12,,,,,
362768,note_on,1,0,13,,,,,,,,,12,,,,64,0
362768,note_on,0,0,13,,,,,,,,,12,,,,59,112
362772,note_on,0,0,14,,,,,,,,,13,,,,59,112
362772,note_on,8,0,14,,,,,,,,,13,,,,64,0
362774,note_on,0,0,15,,,,,,,,,14,,,,47,112
362774,note_on,8,0,15,,,,,,,,,14,,,,52,0
362793,control_change,33,0,11,,,,,,,,,10,11,91,,,
362796,control_change,33,0,12,,,,,,,,,11,11,91,,,
362797,control_change,36,0,1,,,,,,,,,0,11,70,,,
362800,control_change,36,0,2,,,,,,,,,1,11,70,,,
362801,control_change,33,0,13,,,,,,,,,12,11,91,,,
362801,control_change,36,0,3,,,,,,,,,2,11,70,,,
362805,control_change,33,0,14,,,,,,,,,13,11,91,,,
362805,control_change,60,0,4,,,,,,,,,3,11,77,,,
362807,control_change,33,0,15,,,,,,,,,14,11,91,,,
362811,control_change,72,0,5,,,,,,,,,4,11,96,,,
362812,control_change,72,0,6,,,,,,,,,5,11,96,,,
362821,note_on,0,0,1,,,,,,,,,0,,,,91,101
362821,note_on,24,0,1,,,,,,,,,0,,,,93,0
362824,note_on,0,0,2,,,,,,,,,1,,,,79,100
362824,note_on,24,0,2,,,,,,,,,1,,,,81,0
362825,note_on,0,0,3,,,,,,,,,2,,,,79,101
362825,note_on,24,0,3,,,,,,,,,2,,,,81,0
362833,control_change,40,0,11,,,,,,,,,10,11,92,,,
362836,control_change,40,0,12,,,,,,,,,11,11,92,,,
362841,control_change,40,0,13,,,,,,,,,12,11,92,,,
362845,control_change,40,0,14,,,,,,,,,13,11,92,,,
362847,control_change,40,0,15,,,,,,,,,14,11,92,,,
362858,control_change,37,0,1,,,,,,,,,0,11,71,,,
362861,control_change,37,0,2,,,,,,,,,1,11,71,,,
362862,control_change,37,0,3,,,,,,,,,2,11,71,,,
362866,control_change,61,0,4,,,,,,,,,3,11,78,,,
362870,note_on,37,0,11,,,,,,,,,10,,,,71,0
362873,note_on,62,0,5,,,,,,,,,4,,,,64,0
362873,note_on,37,0,12,,,,,,,,,11,,,,71,0
362874,note_on,62,0,6,,,,,,,,,5,,,,64,0
362874,control_change,4,0,11,,,,,,,,,10,11,93,,,
362877,control_change,4,0,12,,,,,,,,,11,11,93,,,
362878,note_on,37,0,13,,,,,,,,,12,,,,59,0
362880,note_on,6,0,11,,,,,,,,,10,,,,67,112
362880,set_tempo,120,1,0,,,,,,259179,,,,,,,,
362881,note_on,0,0,1,,,,,,,,,0,,,,91,101
362881,note_on,23,0,1,,,,,,,,,0,,,,91,0
362881,note_on,0,0,1,,,,,,,,,0,,,,88,101
362881,note_on,0,0,1,,,,,,,,,0,,,,88,0
362882,note_on,37,0,14,,,,,,,,,13,,,,59,0
362882,control_change,4,0,13,,,,,,,,,12,11,93,,,
362883,note_on,6,0,12,,,,,,,,,11,,,,67,112
362883,note_on,0,0,5,,,,,,,,,4,,,,64,100
362883,control_change,10,0,5,,,,,,,,,4,11,97,,,
362884,note_on,37,0,15,,,,,,,,,14,,,,47,0
362884,note_on,10,0,6,,,,,,,,,5,,,,64,100
362884,note_on,0,0,2,,,,,,,,,1,,,,79,100
362884,note_on,0,0,2,,,,,,,,,1,,,,83,100
362884,control_change,0,0,6,,,,,,,,,5,11,97,,,
362884,note_on,23,0,2,,,,,,,,,1,,,,79,0
362884,note_on,0,0,2,,,,,,,,,1,,,,83,0
362885,note_on,0,0,3,,,,,,,,,2,,,,71,0
362885,note_on,23,0,3,,,,,,,,,2,,,,79,0
362885,note_on,0,0,3,,,,,,,,,2,,,,79,101
362885,note_on,0,0,3,,,,,,,,,2,,,,71,101
362886,control_change,4,0,14,,,,,,,,,13,11,93,,,
362888,note_on,6,0,13,,,,,,,,,12,,,,55,112
362888,control_change,4,0,15,,,,,,,,,14,11,93,,,
362889,note_on,23,0,4,,,,,,,,,3,,,,59,0
362889,note_on,0,0,4,,,,,,,,,3,,,,67,0
362889,note_on,0,0,4,,,,,,,,,3,,,,67,100
362889,note_on,0,0,4,,,,,,,,,3,,,,59,100
362892,note_on,6,0,14,,,,,,,,,13,,,,55,112
362894,note_on,6,0,15,,,,,,,,,14,,,,43,112
362915,control_change,35,0,11,,,,,,,,,10,11,94,,,
362918,control_change,35,0,12,,,,,,,,,11,11,94,,,
362919,control_change,38,0,1,,,,,,,,,0,11,72,,,
362922,control_change,38,0,2,,,,,,,,,1,11,72,,,
362923,control_change,38,0,3,,,,,,,,,2,11,72,,,
362923,control_change,35,0,13,,,,,,,,,12,11,94,,,
362927,control_change,35,0,14,,,,,,,,,13,11,94,,,
362927,control_change,38,0,4,,,,,,,,,3,11,79,,,
362929,control_change,35,0,15,,,,,,,,,14,11,94,,,
362941,note_on,22,0,1,,,,,,,,,0,,,,91,0
362941,note_on,0,0,1,,,,,,,,,0,,,,88,0
362944,note_on,0,0,2,,,,,,,,,1,,,,83,0
362944,note_on,22,0,2,,,,,,,,,1,,,,79,0
362945,note_on,22,0,3,,,,,,,,,2,,,,79,0
362945,note_on,0,0,3,,,,,,,,,2,,,,71,0
362949,note_on,0,0,4,,,,,,,,,3,,,,67,0
362949,note_on,22,0,4,,,,,,,,,3,,,,59,0
362955,control_change,72,0,5,,,,,,,,,4,11,98,,,
362955,control_change,40,0,11,,,,,,,,,10,11,95,,,
362956,control_change,72,0,6,,,,,,,,,5,11,98,,,
362958,control_change,40,0,12,,,,,,,,,11,11,95,,,
362963,control_change,40,0,13,,,,,,,,,12,11,95,,,
362967,control_change,40,0,14,,,,,,,,,13,11,95,,,
362969,control_change,40,0,15,,,,,,,,,14,11,95,,,
362980,control_change,39,0,1,,,,,,,,,0,11,73,,,
362983,control_change,39,0,2,,,,,,,,,1,11,73,,,
362984,control_change,39,0,3,,,,,,,,,2,11,73,,,
362988,control_change,39,0,4,,,,,,,,,3,11,80,,,
362993,note_on,38,0,5,,,,,,,,,4,,,,64,0
362994,note_on,38,0,6,,,,,,,,,5,,,,64,0
362996,control_change,41,0,11,,,,,,,,,10,11,96,,,
362999,control_change,41,0,12,,,,,,,,,11,11,96,,,
363001,note_on,0,0,1,,,,,,,,,0,,,,88,101
363001,note_on,21,0,1,,,,,,,,,0,,,,91,101
363003,note_on,10,0,5,,,,,,,,,4,,,,64,100
363004,control_change,41,0,13,,,,,,,,,12,11,96,,,
363004,note_on,21,0,2,,,,,,,,,1,,,,79,100
363004,note_on,0,0,2,,,,,,,,,1,,,,83,100
363004,note_on,10,0,6,,,,,,,,,5,,,,64,100
363005,note_on,21,0,3,,,,,,,,,2,,,,71,101
363005,note_on,0,0,3,,,,,,,,,2,,,,79,101
363008,control_change,41,0,14,,,,,,,,,13,11,96,,,
363009,note_on,21,0,4,,,,,,,,,3,,,,67,100
363009,note_on,0,0,4,,,,,,,,,3,,,,59,100
363010,control_change,41,0,15,,,,,,,,,14,11,96,,,
363027,control_change,24,0,5,,,,,,,,,4,11,99,,,
363028,control_change,24,0,6,,,,,,,,,5,11,99,,,
363036,control_change,40,0,11,,,,,,,,,10,11,97,,,
363039,control_change,40,0,12,,,,,,,,,11,11,97,,,
363041,control_change,40,0,1,,,,,,,,,0,11,73,,,
363044,control_change,40,0,13,,,,,,,,,12,11,97,,,
363044,control_change,40,0,2,,,,,,,,,1,11,73,,,
363045,control_change,40,0,3,,,,,,,,,2,11,73,,,
363048,control_change,40,0,14,,,,,,,,,13,11,97,,,
363049,control_change,40,0,4,,,,,,,,,3,11,81,,,
363050,control_change,40,0,15,,,,,,,,,14,11,97,,,
363061,note_on,20,0,1,,,,,,,,,0,,,,88,0
363061,note_on,0,0,1,,,,,,,,,0,,,,91,0
363064,note_on,20,0,2,,,,,,,,,1,,,,83,0
363064,note_on,0,0,2,,,,,,,,,1,,,,79,0
363065,note_on,20,0,3,,,,,,,,,2,,,,79,0
363065,note_on,0,0,3,,,,,,,,,2,,,,71,0
363069,note_on,0,0,4,,,,,,,,,3,,,,67,0
363069,note_on,20,0,4,,,,,,,,,3,,,,59,0
363077,control_change,41,0,11,,,,,,,,,10,11,98,,,
363080,control_change,41,0,12,,,,,,,,,11,11,98,,,
363085,control_change,41,0,13,,,,,,,,,12,11,98,,,
363089,control_change,41,0,14,,,,,,,,,13,11,98,,,
363091,control_change,41,0,15,,,,,,,,,14,11,98,,,
363099,control_change,72,0,5,,,,,,,,,4,11,100,,,
363100,control_change,72,0,6,,,,,,,,,5,11,100,,,
363102,control_change,41,0,1,,,,,,,,,0,11,74,,,
363105,control_change,41,0,2,,,,,,,,,1,11,74,,,
363106,control_change,41,0,3,,,,,,,,,2,11,74,,,
363110,control_change,41,0,4,,,,,,,,,3,11,82,,,
363113,note_on,14,0,5,,,,,,,,,4,,,,64,0
363114,note_on,14,0,6,,,,,,,,,5,,,,64,0
363118,control_change,41,0,11,,,,,,,,,10,11,99,,,
363120,note_on,0,0,11,,,,,,,,,10,,,,64,112
363120,note_on,2,0,11,,,,,,,,,10,,,,67,0
363120,set_tempo,240,1,0,,,,,,285714,,,,,,,,
363121,note_on,0,0,1,,,,,,,,,0,,,,91,101
363121,note_on,19,0,1,,,,,,,,,0,,,,88,101
363121,control_change,41,0,12,,,,,,,,,11,11,99,,,
363123,note_on,2,0,12,,,,,,,,,11,,,,67,0
363123,note_on,0,0,12,,,,,,,,,11,,,,64,112
363123,note_on,10,0,5,,,,,,,,,4,,,,64,100
363124,note_on,19,0,2,,,,,,,,,1,,,,83,100
363124,note_on,10,0,6,,,,,,,,,5,,,,64,100
363124,note_on,0,0,2,,,,,,,,,1,,,,79,100
363125,note_on,0,0,3,,,,,,,,,2,,,,71,101
363125,note_on,19,0,3,,,,,,,,,2,,,,79,101
363126,control_change,41,0,13,,,,,,,,,12,11,99,,,
363128,note_on,2,0,13,,,,,,,,,12,,,,55,0
363128,note_on,0,0,13,,,,,,,,,12,,,,52,112
363129,note_on,19,0,4,,,,,,,,,3,,,,59,100
363129,note_on,0,0,4,,,,,,,,,3,,,,67,100
363130,control_change,41,0,14,,,,,,,,,13,11,99,,,
363132,control_change,41,0,15,,,,,,,,,14,11,99,,,
363132,note_on,2,0,14,,,,,,,,,13,,,,55,0
363132,note_on,0,0,14,,,,,,,,,13,,,,52,112
363134,note_on,0,0,15,,,,,,,,,14,,,,40,112
363134,note_on,2,0,15,,,,,,,,,14,,,,43,0
363158,control_change,38,0,11,,,,,,,,,10,11,100,,,
363161,control_change,38,0,12,,,,,,,,,11,11,100,,,
363163,control_change,42,0,1,,,,,,,,,0,11,75,,,
363166,control_change,42,0,2,,,,,,,,,1,11,75,,,
363166,control_change,38,0,13,,,,,,,,,12,11,100,,,
363167,control_change,42,0,3,,,,,,,,,2,11,75,,,
363170,control_change,38,0,14,,,,,,,,,13,11,100,,,
363171,control_change,42,0,4,,,,,,,,,3,11,83,,,
363171,control_change,48,0,5,,,,,,,,,4,11,101,,,
363172,control_change,48,0,6,,,,,,,,,5,11,101,,,
363172,control_change,38,0,15,,,,,,,,,14,11,100,,,
363181,note_on,0,0,1,,,,,,,,,0,,,,88,0
363181,note_on,18,0,1,,,,,,,,,0,,,,91,0
363184,note_on,0,0,2,,,,,,,,,1,,,,83,0
363184,note_on,18,0,2,,,,,,,,,1,,,,79,0
363185,note_on,18,0,3,,,,,,,,,2,,,,71,0
363185,note_on,0,0,3,,,,,,,,,2,,,,79,0
363189,note_on,0,0,4,,,,,,,,,3,,,,59,0
363189,note_on,18,0,4,,,,,,,,,3,,,,67,0
363199,control_change,41,0,11,,,,,,,,,10,11,101,,,
363202,control_change,41,0,12,,,,,,,,,11,11,101,,,
363207,control_change,41,0,13,,,,,,,,,12,11,101,,,
363211,control_change,41,0,14,,,,,,,,,13,11,101,,,
363213,control_change,41,0,15,,,,,,,,,14,11,101,,,
363224,control_change,43,0,1,,,,,,,,,0,11,76,,,
363227,control_change,43,0,2,,,,,,,,,1,11,76,,,
363228,control_change,43,0,3,,,,,,,,,2,11,76,,,
363230,note_on,31,0,11,,,,,,,,,10,,,,64,0
363232,control_change,43,0,4,,,,,,,,,3,11,84,,,
363233,note_on,62,0,5,,,,,,,,,4,,,,64,0
363233,note_on,31,0,12,,,,,,,,,11,,,,64,0
363234,note_on,62,0,6,,,,,,,,,5,,,,64,0
363238,note_on,31,0,13,,,,,,,,,12,,,,52,0
363240,set_tempo,120,1,0,,,,,,254237,,,,,,,,
363240,note_on,10,0,11,,,,,,,,,10,,,,60,112
363240,control_change,0,0,11,,,,,,,,,10,11,102,,,
363241,note_on,0,0,1,,,,,,,,,0,,,,88,101
363241,note_on,17,0,1,,,,,,,,,0,,,,91,101
363242,control_change,0,0,7,,,,,,,,,6,11,102,,,
363242,note_on,0,0,7,,,,,,,,,6,,,,72,112
363242,note_on,31,0,14,,,,,,,,,13,,,,52,0
363242,note_on,8520,0,7,,,,,,,,,6,,,,60,112
363243,control_change,0,0,12,,,,,,,,,11,11,102,,,
363243,control_change,0,0,5,,,,,,,,,4,11,102,,,
363243,note_on,10,0,5,,,,,,,,,4,,,,64,100
363243,note_on,10,0,12,,,,,,,,,11,,,,60,112
363244,note_on,0,0,2,,,,,,,,,1,,,,79,100
363244,note_on,17,0,2,,,,,,,,,1,,,,82,100
363244,control_change,10,0,6,,,,,,,,,5,11,102,,,
363244,note_on,0,0,6,,,,,,,,,5,,,,60,100
363244,note_on,31,0,15,,,,,,,,,14,,,,40,0
363245,note_on,17,0,3,,,,,,,,,2,,,,70,101
363245,note_on,0,0,3,,,,,,,,,2,,,,76,101
363247,control_change,0,0,8,,,,,,,,,7,11,102,,,
363247,note_on,0,0,8,,,,,,,,,7,,,,64,110
363247,note_on,8520,0,8,,,,,,,,,7,,,,55,110
363248,control_change,10,0,13,,,,,,,,,12,11,102,,,
363248,note_on,0,0,13,,,,,,,,,12,,,,48,112
363249,note_on,0,0,4,,,,,,,,,3,,,,67,100
363249,note_on,17,0,4,,,,,,,,,3,,,,58,100
363252,note_on,10,0,14,,,,,,,,,13,,,,48,112
363252,control_change,0,0,14,,,,,,,,,13,11,102,,,
363253,note_on,0,0,9,,,,,,,,,8,,,,48,110
363253,control_change,8520,0,9,,,,,,,,,8,11,102,,,
363254,control_change,10,0,15,,,,,,,,,14,11,102,,,
363254,note_on,0,0,15,,,,,,,,,14,,,,36,112
363255,note_on,8520,0,10,,,,,,,,,15,,,,48,100
363270,note_on,30,0,11,,,,,,,,,10,,,,60,0
363273,note_on,30,0,12,,,,,,,,,11,,,,60,0
363278,note_on,30,0,13,,,,,,,,,12,,,,48,0
363282,note_on,30,0,14,,,,,,,,,13,,,,48,0
363284,note_on,30,0,15,,,,,,,,,14,,,,36,0
363285,control_change,44,0,1,,,,,,,,,0,11,76,,,
363288,control_change,44,0,2,,,,,,,,,1,11,76,,,
363289,control_change,44,0,3,,,,,,,,,2,11,76,,,
363293,control_change,44,0,4,,,,,,,,,3,11,85,,,
363300,note_on,30,0,11,,,,,,,,,10,,,,60,112
363303,note_on,30,0,12,,,,,,,,,11,,,,60,112
363308,note_on,30,0,13,,,,,,,,,12,,,,48,112
363312,note_on,30,0,14,,,,,,,,,13,,,,48,112
363314,note_on,30,0,15,,,,,,,,,14,,,,36,112
363330,note_on,30,0,11,,,,,,,,,10,,,,60,0
363333,note_on,30,0,12,,,,,,,,,11,,,,60,0
363338,note_on,30,0,13,,,,,,,,,12,,,,48,0
363342,note_on,30,0,14,,,,,,,,,13,,,,48,0
363344,note_on,30,0,15,,,,,,,,,14,,,,36,0
363346,control_change,61,0,1,,,,,,,,,0,11,77,,,
363349,control_change,61,0,2,,,,,,,,,1,11,77,,,
363350,control_change,61,0,3,,,,,,,,,2,11,77,,,
363354,control_change,61,0,4,,,,,,,,,3,11,86,,,
363360,note_on,30,0,11,,,,,,,,,10,,,,62,112
363360,set_tempo,120,1,0,,,,,,263158,,,,,,,,
363362,note_on,120,0,7,,,,,,,,,6,,,,72,0
363362,note_on,0,0,7,,,,,,,,,6,,,,60,0
363363,note_on,30,0,12,,,,,,,,,11,,,,62,112
363368,note_on,30,0,13,,,,,,,,,12,,,,50,112
363372,note_on,30,0,14,,,,,,,,,13,,,,50,112
363374,note_on,30,0,15,,,,,,,,,14,,,,38,112
363375,note_on,120,0,10,,,,,,,,,15,,,,48,0
363390,note_on,30,0,11,,,,,,,,,10,,,,62,0
363393,note_on,30,0,12,,,,,,,,,11,,,,62,0
363398,note_on,30,0,13,,,,,,,,,12,,,,50,0
363402,note_on,30,0,14,,,,,,,,,13,,,,50,0
363404,note_on,30,0,15,,,,,,,,,14,,,,38,0
363407,control_change,61,0,1,,,,,,,,,0,11,78,,,
363410,control_change,61,0,2,,,,,,,,,1,11,78,,,
363411,control_change,61,0,3,,,,,,,,,2,11,78,,,
363415,control_change,61,0,4,,,,,,,,,3,11,87,,,
363420,note_on,30,0,11,,,,,,,,,10,,,,60,112
363423,note_on,30,0,12,,,,,,,,,11,,,,60,112
363428,note_on,30,0,13,,,,,,,,,12,,,,48,112
363432,note_on,30,0,14,,,,,,,,,13,,,,48,112
363434,note_on,30,0,15,,,,,,,,,14,,,,36,112
363450,note_on,30,0,11,,,,,,,,,10,,,,60,0
363453,note_on,30,0,12,,,,,,,,,11,,,,60,0
363458,note_on,30,0,13,,,,,,,,,12,,,,48,0
363462,note_on,30,0,14,,,,,,,,,13,,,,48,0
363464,note_on,30,0,15,,,,,,,,,14,,,,36,0
363468,control_change,61,0,1,,,,,,,,,0,11,79,,,
363471,control_change,61,0,2,,,,,,,,,1,11,79,,,
363472,control_change,61,0,3,,,,,,,,,2,11,79,,,
363476,control_change,61,0,4,,,,,,,,,3,11,88,,,
363480,set_tempo,120,1,0,,,,,,288462,,,,,,,,
363480,note_on,30,0,11,,,,,,,,,10,,,,62,112
363483,note_on,30,0,12,,,,,,,,,11,,,,62,112
363488,note_on,30,0,13,,,,,,,,,12,,,,50,112
363492,note_on,30,0,14,,,,,,,,,13,,,,50,112
363494,note_on,30,0,15,,,,,,,,,14,,,,38,112
363510,note_on,30,0,11,,,,,,,,,10,,,,62,0
363513,note_on,30,0,12,,,,,,,,,11,,,,62,0
363518,note_on,30,0,13,,,,,,,,,12,,,,50,0
363522,note_on,30,0,14,,,,,,,,,13,,,,50,0
363524,note_on,30,0,15,,,,,,,,,14,,,,38,0
363529,control_change,61,0,1,,,,,,,,,0,11,80,,,
363532,control_change,61,0,2,,,,,,,,,1,11,80,,,
363533,control_change,61,0,3,,,,,,,,,2,11,80,,,
363537,control_change,61,0,4,,,,,,,,,3,11,89,,,
363540,note_on,30,0,11,,,,,,,,,10,,,,60,112
363543,note_on,30,0,12,,,,,,,,,11,,,,60,112
363548,note_on,30,0,13,,,,,,,,,12,,,,48,112
363552,note_on,30,0,14,,,,,,,,,13,,,,48,112
363554,note_on,30,0,15,,,,,,,,,14,,,,36,112
363570,note_on,30,0,11,,,,,,,,,10,,,,60,0
363573,note_on,30,0,12,,,,,,,,,11,,,,60,0
363578,note_on,30,0,13,,,,,,,,,12,,,,48,0
363582,note_on,30,0,14,,,,,,,,,13,,,,48,0
363584,note_on,30,0,15,,,,,,,,,14,,,,36,0
363589,control_change,60,0,1,,,,,,,,,0,11,80,,,
363592,control_change,60,0,2,,,,,,,,,1,11,80,,,
363593,note_on,350,0,5,,,,,,,,,4,,,,64,0
363593,control_change,60,0,3,,,,,,,,,2,11,80,,,
363594,note_on,350,0,6,,,,,,,,,5,,,,60,0
363597,note_on,0,0,8,,,,,,,,,7,,,,55,0
363597,note_on,350,0,8,,,,,,,,,7,,,,64,0
363597,control_change,60,0,4,,,,,,,,,3,11,90,,,
363600,set_tempo,120,1,0,,,,,,254237,,,,,,,,
363600,note_on,30,0,11,,,,,,,,,10,,,,66,112
363601,note_on,0,0,1,,,,,,,,,0,,,,93,116
363601,note_on,0,0,1,,,,,,,,,0,,,,87,116
363601,note_on,0,0,1,,,,,,,,,0,,,,91,0
363601,note_on,12,0,1,,,,,,,,,0,,,,88,0
363602,note_on,0,0,7,,,,,,,,,6,,,,60,127
363602,note_on,240,0,7,,,,,,,,,6,,,,72,127
363603,note_on,350,0,9,,,,,,,,,8,,,,48,0
363603,note_on,10,0,5,,,,,,,,,4,,,,60,115
363603,note_on,30,0,12,,,,,,,,,11,,,,66,112
363604,note_on,12,0,2,,,,,,,,,1,,,,79,0
363604,note_on,0,0,2,,,,,,,,,1,,,,82,0
363604,note_on,0,0,2,,,,,,,,,1,,,,75,115
363604,note_on,10,0,6,,,,,,,,,5,,,,60,115
363604,note_on,0,0,2,,,,,,,,,1,,,,81,115
363605,note_on,12,0,3,,,,,,,,,2,,,,76,0
363605,note_on,0,0,3,,,,,,,,,2,,,,70,0
363605,note_on,0,0,3,,,,,,,,,2,,,,75,116
363605,note_on,0,0,3,,,,,,,,,2,,,,69,116
363607,note_on,0,0,8,,,,,,,,,7,,,,63,125
363607,note_on,10,0,8,,,,,,,,,7,,,,57,125
363608,note_on,30,0,13,,,,,,,,,12,,,,54,112
363609,note_on,12,0,4,,,,,,,,,3,,,,67,0
363609,note_on,0,0,4,,,,,,,,,3,,,,58,0
363609,note_on,0,0,4,,,,,,,,,3,,,,60,115
363609,note_on,0,0,4,,,,,,,,,3,,,,63,115
363612,note_on,30,0,14,,,,,,,,,13,,,,54,112
363613,note_on,10,0,9,,,,,,,,,8,,,,54,125
363614,note_on,30,0,15,,,,,,,,,14,,,,42,112
363615,note_on,240,0,10,,,,,,,,,15,,,,48,85
363645,note_on,0,0,10,,,,,,,,,15,,,,48,85
363645,note_on,30,0,10,,,,,,,,,15,,,,48,0
363650,control_change,49,0,1,,,,,,,,,0,11,81,,,
363653,control_change,49,0,2,,,,,,,,,1,11,81,,,
363654,control_change,49,0,3,,,,,,,,,2,11,81,,,
363658,control_change,49,0,4,,,,,,,,,3,11,91,,,
363660,note_on,60,0,11,,,,,,,,,10,,,,66,0
363663,note_on,60,0,12,,,,,,,,,11,,,,66,0
363668,note_on,60,0,13,,,,,,,,,12,,,,54,0
363672,note_on,60,0,14,,,,,,,,,13,,,,54,0
363674,note_on,60,0,15,,,,,,,,,14,,,,42,0
363675,note_on,30,0,10,,,,,,,,,15,,,,48,0
363675,note_on,0,0,10,,,,,,,,,15,,,,48,85
363705,note_on,0,0,10,,,,,,,,,15,,,,48,85
363705,note_on,30,0,10,,,,,,,,,15,,,,48,0
363711,control_change,61,0,1,,,,,,,,,0,11,82,,,
363714,control_change,61,0,2,,,,,,,,,1,11,82,,,
363715,control_change,61,0,3,,,,,,,,,2,11,82,,,
363719,control_change,61,0,4,,,,,,,,,3,11,92,,,
363720,note_on,60,0,11,,,,,,,,,10,,,,66,112
363720,set_tempo,120,1,0,,,,,,263158,,,,,,,,
363723,note_on,60,0,12,,,,,,,,,11,,,,66,112
363728,note_on,60,0,13,,,,,,,,,12,,,,54,112
363732,note_on,60,0,14,,,,,,,,,13,,,,54,112
363734,note_on,60,0,15,,,,,,,,,14,,,,42,112
363735,note_on,0,0,10,,,,,,,,,15,,,,48,85
363735,note_on,30,0,10,,,,,,,,,15,,,,48,0
363765,note_on,0,0,10,,,,,,,,,15,,,,48,85
363765,note_on,30,0,10,,,,,,,,,15,,,,48,0
363772,control_change,61,0,1,,,,,,,,,0,11,83,,,
363775,control_change,61,0,2,,,,,,,,,1,11,83,,,
363776,control_change,61,0,3,,,,,,,,,2,11,83,,,
363780,control_change,61,0,4,,,,,,,,,3,11,93,,,
363780,note_on,60,0,11,,,,,,,,,10,,,,66,0
363783,note_on,60,0,12,,,,,,,,,11,,,,66,0
363788,note_on,60,0,13,,,,,,,,,12,,,,54,0
363792,note_on,60,0,14,,,,,,,,,13,,,,54,0
363794,note_on,60,0,15,,,,,,,,,14,,,,42,0
363795,note_on,30,0,10,,,,,,,,,15,,,,48,0
363795,note_on,0,0,10,,,,,,,,,15,,,,48,85
363825,note_on,0,0,10,,,,,,,,,15,,,,48,85
363825,note_on,30,0,10,,,,,,,,,15,,,,48,0
363833,control_change,61,0,1,,,,,,,,,0,11,83,,,
363836,control_change,61,0,2,,,,,,,,,1,11,83,,,
363837,control_change,61,0,3,,,,,,,,,2,11,83,,,
363840,note_on,60,0,11,,,,,,,,,10,,,,66,112
363840,set_tempo,120,1,0,,,,,,288462,,,,,,,,
363841,control_change,61,0,4,,,,,,,,,3,11,94,,,
363843,note_on,60,0,12,,,,,,,,,11,,,,66,112
363848,note_on,60,0,13,,,,,,,,,12,,,,54,112
363852,note_on,60,0,14,,,,,,,,,13,,,,54,112
363854,note_on,60,0,15,,,,,,,,,14,,,,42,112
363855,note_on,30,0,10,,,,,,,,,15,,,,48,0
363855,note_on,0,0,10,,,,,,,,,15,,,,48,85
363885,note_on,30,0,10,,,,,,,,,15,,,,48,0
363885,note_on,0,0,10,,,,,,,,,15,,,,48,85
363894,control_change,61,0,1,,,,,,,,,0,11,84,,,
363897,control_change,61,0,2,,,,,,,,,1,11,84,,,
363898,control_change,61,0,3,,,,,,,,,2,11,84,,,
363900,note_on,60,0,11,,,,,,,,,10,,,,66,0
363902,control_change,61,0,4,,,,,,,,,3,11,95,,,
363903,note_on,60,0,12,,,,,,,,,11,,,,66,0
363908,note_on,60,0,13,,,,,,,,,12,,,,54,0
363912,note_on,60,0,14,,,,,,,,,13,,,,54,0
363914,note_on,60,0,15,,,,,,,,,14,,,,42,0
363915,note_on,30,0,10,,,,,,,,,15,,,,48,0
363915,note_on,0,0,10,,,,,,,,,15,,,,48,85
363945,note_on,30,0,10,,,,,,,,,15,,,,48,0
363945,note_on,0,0,10,,,,,,,,,15,,,,48,85
363952,note_on,350,0,7,,,,,,,,,6,,,,60,0
363952,note_on,0,0,7,,,,,,,,,6,,,,72,0
363953,note_on,350,0,5,,,,,,,,,4,,,,60,0
363954,note_on,350,0,6,,,,,,,,,5,,,,60,0
363955,control_change,61,0,1,,,,,,,,,0,11,85,,,
363957,note_on,350,0,8,,,,,,,,,7,,,,63,0
363957,note_on,0,0,8,,,,,,,,,7,,,,57,0
363958,control_change,61,0,2,,,,,,,,,1,11,85,,,
363959,control_change,61,0,3,,,,,,,,,2,11,85,,,
363960,set_tempo,120,1,0,,,,,,254237,,,,,,,,
363960,note_on,60,0,11,,,,,,,,,10,,,,55,112
363961,note_on,0,0,1,,,,,,,,,0,,,,83,101
363961,note_on,0,0,1,,,,,,,,,0,,,,77,101
363961,note_on,0,0,1,,,,,,,,,0,,,,87,0
363961,note_on,6,0,1,,,,,,,,,0,,,,93,0
363962,note_on,10,0,7,,,,,,,,,6,,,,55,112
363962,note_on,0,0,7,,,,,,,,,6,,,,67,112
363963,note_on,350,0,9,,,,,,,,,8,,,,54,0
363963,note_on,10,0,5,,,,,,,,,4,,,,65,100
363963,control_change,61,0,4,,,,,,,,,3,11,96,,,
363963,note_on,60,0,12,,,,,,,,,11,,,,55,112
363964,note_on,0,0,2,,,,,,,,,1,,,,81,0
363964,note_on,6,0,2,,,,,,,,,1,,,,75,0
363964,note_on,0,0,2,,,,,,,,,1,,,,74,100
363964,note_on,0,0,2,,,,,,,,,1,,,,83,100
363964,note_on,10,0,6,,,,,,,,,5,,,,62,100
363965,note_on,0,0,3,,,,,,,,,2,,,,71,101
363965,note_on,0,0,3,,,,,,,,,2,,,,74,101
363965,note_on,6,0,3,,,,,,,,,2,,,,69,0
363965,note_on,0,0,3,,,,,,,,,2,,,,75,0
363967,note_on,0,0,8,,,,,,,,,7,,,,62,110
363967,note_on,10,0,8,,,,,,,,,7,,,,59,110
363968,note_on,60,0,13,,,,,,,,,12,,,,55,112
363969,note_on,0,0,4,,,,,,,,,3,,,,60,0
363969,note_on,6,0,4,,,,,,,,,3,,,,63,0
363969,note_on,0,0,4,,,,,,,,,3,,,,59,100
363969,note_on,0,0,4,,,,,,,,,3,,,,62,100
363972,note_on,60,0,14,,,,,,,,,13,,,,55,112
363973,note_on,10,0,9,,,,,,,,,8,,,,55,110
363974,note_on,60,0,15,,,,,,,,,14,,,,43,112
363975,note_on,30,0,10,,,,,,,,,15,,,,48,0
363975,note_on,0,0,10,,,,,,,,,15,,,,43,100
363990,note_on,30,0,11,,,,,,,,,10,,,,55,0
363993,note_on,30,0,12,,,,,,,,,11,,,,55,0
363998,note_on,30,0,13,,,,,,,,,12,,,,55,0
364002,note_on,30,0,14,,,,,,,,,13,,,,55,0
364004,note_on,30,0,15,,,,,,,,,14,,,,43,0
364016,control_change,55,0,1,,,,,,,,,0,11,86,,,
364019,control_change,55,0,2,,,,,,,,,1,11,86,,,
364020,control_change,55,0,3,,,,,,,,,2,11,86,,,
364020,note_on,30,0,11,,,,,,,,,10,,,,55,112
364021,note_on,0,0,1,,,,,,,,,0,,,,77,0
364021,note_on,5,0,1,,,,,,,,,0,,,,83,0
364023,note_on,30,0,12,,,,,,,,,11,,,,55,112
364024,note_on,0,0,2,,,,,,,,,1,,,,83,0
364024,control_change,55,0,4,,,,,,,,,3,11,97,,,
364024,note_on,5,0,2,,,,,,,,,1,,,,74,0
364025,note_on,5,0,3,,,,,,,,,2,,,,74,0
364025,note_on,0,0,3,,,,,,,,,2,,,,71,0
364028,note_on,30,0,13,,,,,,,,,12,,,,55,112
364029,note_on,5,0,4,,,,,,,,,3,,,,59,0
364029,note_on,0,0,4,,,,,,,,,3,,,,62,0
364032,note_on,30,0,14,,,,,,,,,13,,,,55,112
364034,note_on,30,0,15,,,,,,,,,14,,,,43,112
364050,note_on,30,0,11,,,,,,,,,10,,,,55,0
364053,note_on,30,0,12,,,,,,,,,11,,,,55,0
364058,note_on,30,0,13,,,,,,,,,12,,,,55,0
364062,note_on,30,0,14,,,,,,,,,13,,,,55,0
364064,note_on,30,0,15,,,,,,,,,14,,,,43,0
364072,note_on,110,0,7,,,,,,,,,6,,,,67,0
364072,note_on,0,0,7,,,,,,,,,6,,,,55,0
364073,note_on,110,0,5,,,,,,,,,4,,,,65,0
364074,note_on,110,0,6,,,,,,,,,5,,,,62,0
364077,control_change,56,0,1,,,,,,,,,0,11,86,,,
364077,note_on,110,0,8,,,,,,,,,7,,,,62,0
364077,note_on,0,0,8,,,,,,,,,7,,,,59,0
364080,set_tempo,120,1,0,,,,,,263158,,,,,,,,
364080,note_on,30,0,11,,,,,,,,,10,,,,57,112
364080,control_change,56,0,2,,,,,,,,,1,11,86,,,
364081,control_change,56,0,3,,,,,,,,,2,11,86,,,
364081,note_on,4,0,1,,,,,,,,,0,,,,77,101
364081,note_on,0,0,1,,,,,,,,,0,,,,83,101
364082,note_on,10,0,7,,,,,,,,,6,,,,67,112
364082,note_on,0,0,7,,,,,,,,,6,,,,55,112
364083,note_on,110,0,9,,,,,,,,,8,,,,55,0
364083,note_on,10,0,5,,,,,,,,,4,,,,65,100
364083,note_on,30,0,12,,,,,,,,,11,,,,57,112
364084,note_on,4,0,2,,,,,,,,,1,,,,83,100
364084,note_on,0,0,2,,,,,,,,,1,,,,74,100
364084,note_on,10,0,6,,,,,,,,,5,,,,62,100
364085,note_on,4,0,3,,,,,,,,,2,,,,74,101
364085,note_on,0,0,3,,,,,,,,,2,,,,71,101
364085,control_change,56,0,4,,,,,,,,,3,11,98,,,
364087,note_on,0,0,8,,,,,,,,,7,,,,59,110
364087,note_on,10,0,8,,,,,,,,,7,,,,62,110
364088,note_on,30,0,13,,,,,,,,,12,,,,57,112
364089,note_on,0,0,4,,,,,,,,,3,,,,65,100
364089,note_on,4,0,4,,,,,,,,,3,,,,62,100
364092,note_on,30,0,14,,,,,,,,,13,,,,57,112
364093,note_on,10,0,9,,,,,,,,,8,,,,55,110
364094,note_on,30,0,15,,,,,,,,,14,,,,45,112
364095,note_on,120,0,10,,,,,,,,,15,,,,43,0
364095,note_on,0,0,10,,,,,,,,,15,,,,43,100
364110,note_on,30,0,11,,,,,,,,,10,,,,57,0
364113,note_on,30,0,12,,,,,,,,,11,,,,57,0
364118,note_on,30,0,13,,,,,,,,,12,,,,57,0
364122,note_on,30,0,14,,,,,,,,,13,,,,57,0
364124,note_on,30,0,15,,,,,,,,,14,,,,45,0
364138,control_change,57,0,1,,,,,,,,,0,11,87,,,
364140,note_on,30,0,11,,,,,,,,,10,,,,55,112
364141,note_on,0,0,1,,,,,,,,,0,,,,77,0
364141,note_on,3,0,1,,,,,,,,,0,,,,83,0
364141,control_change,57,0,2,,,,,,,,,1,11,87,,,
364142,control_change,57,0,3,,,,,,,,,2,11,87,,,
364143,note_on,30,0,12,,,,,,,,,11,,,,55,112
364144,note_on,0,0,2,,,,,,,,,1,,,,83,0
364144,note_on,3,0,2,,,,,,,,,1,,,,74,0
364145,note_on,3,0,3,,,,,,,,,2,,,,71,0
364145,note_on,0,0,3,,,,,,,,,2,,,,74,0
364146,control_change,57,0,4,,,,,,,,,3,11,99,,,
364148,note_on,30,0,13,,,,,,,,,12,,,,55,112
364149,note_on,3,0,4,,,,,,,,,3,,,,65,0
364149,note_on,0,0,4,,,,,,,,,3,,,,62,0
364152,note_on,30,0,14,,,,,,,,,13,,,,55,112
364154,note_on,30,0,15,,,,,,,,,14,,,,43,112
364170,note_on,30,0,11,,,,,,,,,10,,,,55,0
364173,note_on,30,0,12,,,,,,,,,11,,,,55,0
364178,note_on,30,0,13,,,,,,,,,12,,,,55,0
364182,note_on,30,0,14,,,,,,,,,13,,,,55,0
364184,note_on,30,0,15,,,,,,,,,14,,,,43,0
364192,note_on,0,0,7,,,,,,,,,6,,,,67,0
364192,note_on,110,0,7,,,,,,,,,6,,,,55,0
364193,note_on,110,0,5,,,,,,,,,4,,,,65,0
364194,note_on,110,0,6,,,,,,,,,5,,,,62,0
364197,note_on,0,0,8,,,,,,,,,7,,,,62,0
364197,note_on,110,0,8,,,,,,,,,7,,,,59,0
364199,control_change,58,0,1,,,,,,,,,0,11,88,,,
364200,set_tempo,120,1,0,,,,,,288462,,,,,,,,
364200,note_on,30,0,11,,,,,,,,,10,,,,57,112
364201,note_on,2,0,1,,,,,,,,,0,,,,77,101
364201,note_on,0,0,1,,,,,,,,,0,,,,83,101
364202,note_on,10,0,7,,,,,,,,,6,,,,55,112
364202,note_on,0,0,7,,,,,,,,,6,,,,67,112
364202,control_change,58,0,2,,,,,,,,,1,11,88,,,
364203,note_on,10,0,5,,,,,,,,,4,,,,65,100
364203,control_change,58,0,3,,,,,,,,,2,11,88,,,
364203,note_on,110,0,9,,,,,,,,,8,,,,55,0
364203,note_on,30,0,12,,,,,,,,,11,,,,57,112
364204,note_on,10,0,6,,,,,,,,,5,,,,62,100
364204,note_on,2,0,2,,,,,,,,,1,,,,83,100
364204,note_on,0,0,2,,,,,,,,,1,,,,74,100
364205,note_on,0,0,3,,,,,,,,,2,,,,74,101
364205,note_on,2,0,3,,,,,,,,,2,,,,71,101
364207,note_on,0,0,8,,,,,,,,,7,,,,62,110
364207,note_on,10,0,8,,,,,,,,,7,,,,59,110
364207,control_change,58,0,4,,,,,,,,,3,11,100,,,
364208,note_on,30,0,13,,,,,,,,,12,,,,57,112
364209,note_on,2,0,4,,,,,,,,,3,,,,65,100
364209,note_on,0,0,4,,,,,,,,,3,,,,62,100
364212,note_on,30,0,14,,,,,,,,,13,,,,57,112
364213,note_on,10,0,9,,,,,,,,,8,,,,55,110
364214,note_on,30,0,15,,,,,,,,,14,,,,45,112
364215,note_on,0,0,10,,,,,,,,,15,,,,43,100
364215,note_on,120,0,10,,,,,,,,,15,,,,43,0
364230,note_on,30,0,11,,,,,,,,,10,,,,57,0
364233,note_on,30,0,12,,,,,,,,,11,,,,57,0
364238,note_on,30,0,13,,,,,,,,,12,,,,57,0
364242,note_on,30,0,14,,,,,,,,,13,,,,57,0
364244,note_on,30,0,15,,,,,,,,,14,,,,45,0
364260,control_change,59,0,1,,,,,,,,,0,11,89,,,
364260,note_on,30,0,11,,,,,,,,,10,,,,55,112
364261,note_on,1,0,1,,,,,,,,,0,,,,83,0
364261,note_on,0,0,1,,,,,,,,,0,,,,77,0
364263,control_change,59,0,2,,,,,,,,,1,11,89,,,
364263,note_on,30,0,12,,,,,,,,,11,,,,55,112
364264,control_change,59,0,3,,,,,,,,,2,11,89,,,
364264,note_on,0,0,2,,,,,,,,,1,,,,83,0
364264,note_on,1,0,2,,,,,,,,,1,,,,74,0
364265,note_on,1,0,3,,,,,,,,,2,,,,74,0
364265,note_on,0,0,3,,,,,,,,,2,,,,71,0
364268,note_on,30,0,13,,,,,,,,,12,,,,55,112
364268,control_change,59,0,4,,,,,,,,,3,11,101,,,
364269,note_on,1,0,4,,,,,,,,,3,,,,62,0
364269,note_on,0,0,4,,,,,,,,,3,,,,65,0
364272,note_on,30,0,14,,,,,,,,,13,,,,55,112
364274,note_on,30,0,15,,,,,,,,,14,,,,43,112
364290,note_on,30,0,11,,,,,,,,,10,,,,55,0
364293,note_on,30,0,12,,,,,,,,,11,,,,55,0
364298,note_on,30,0,13,,,,,,,,,12,,,,55,0
364302,note_on,30,0,14,,,,,,,,,13,,,,55,0
364304,note_on,30,0,15,,,,,,,,,14,,,,43,0
364312,note_on,110,0,7,,,,,,,,,6,,,,67,0
364312,note_on,0,0,7,,,,,,,,,6,,,,55,0
364313,note_on,110,0,5,,,,,,,,,4,,,,65,0
364314,note_on,110,0,6,,,,,,,,,5,,,,62,0
364317,note_on,0,0,8,,,,,,,,,7,,,,59,0
364317,note_on,110,0,8,,,,,,,,,7,,,,62,0
364320,note_on,30,0,11,,,,,,,,,10,,,,60,112
364320,set_tempo,120,1,0,,,,,,254237,,,,,,,,
364321,note_on,0,0,1,,,,,,,,,0,,,,84,101
364321,note_on,0,0,1,,,,,,,,,0,,,,76,101
364321,control_change,60,0,1,,,,,,,,,0,11,86,,,
364322,note_on,10,0,7,,,,,,,,,6,,,,60,112
364322,note_on,0,0,7,,,,,,,,,6,,,,72,112
364323,note_on,10,0,5,,,,,,,,,4,,,,64,100
364323,note_on,110,0,9,,,,,,,,,8,,,,55,0
364323,note_on,30,0,12,,,,,,,,,11,,,,60,112
364324,control_change,0,0,2,,,,,,,,,1,11,86,,,
364324,note_on,0,0,2,,,,,,,,,1,,,,76,100
364324,note_on,60,0,2,,,,,,,,,1,,,,84,100
364324,note_on,10,0,6,,,,,,,,,5,,,,60,100
364325,control_change,60,0,3,,,,,,,,,2,11,86,,,
364325,note_on,0,0,3,,,,,,,,,2,,,,72,101
364325,note_on,0,0,3,,,,,,,,,2,,,,76,101
364327,note_on,0,0,8,,,,,,,,,7,,,,64,110
364327,note_on,10,0,8,,,,,,,,,7,,,,60,110
364328,note_on,30,0,13,,,,,,,,,12,,,,60,112
364329,note_on,60,0,4,,,,,,,,,3,,,,64,100
364329,note_on,0,0,4,,,,,,,,,3,,,,60,100
364329,control_change,0,0,4,,,,,,,,,3,11,97,,,
364332,note_on,30,0,14,,,,,,,,,13,,,,60,112
364333,note_on,10,0,9,,,,,,,,,8,,,,48,110
364334,note_on,30,0,15,,,,,,,,,14,,,,48,112
364335,note_on,120,0,10,,,,,,,,,15,,,,43,0
364335,note_on,0,0,10,,,,,,,,,15,,,,48,100
364380,note_on,60,0,11,,,,,,,,,10,,,,60,0
364383,note_on,60,0,12,,,,,,,,,11,,,,60,0
364388,note_on,60,0,13,,,,,,,,,12,,,,60,0
364392,note_on,60,0,14,,,,,,,,,13,,,,60,0
364394,note_on,60,0,15,,,,,,,,,14,,,,48,0
364440,note_on,60,0,11,,,,,,,,,10,,,,60,112
364440,set_tempo,120,1,0,,,,,,263158,,,,,,,,
364441,note_on,0,0,1,,,,,,,,,0,,,,76,0
364441,note_on,120,0,1,,,,,,,,,0,,,,84,0
364442,note_on,0,0,7,,,,,,,,,6,,,,60,0
364442,note_on,120,0,7,,,,,,,,,6,,,,72,0
364443,note_on,120,0,5,,,,,,,,,4,,,,64,0
364443,note_on,60,0,12,,,,,,,,,11,,,,60,112
364444,note_on,120,0,6,,,,,,,,,5,,,,60,0
364444,note_on,0,0,2,,,,,,,,,1,,,,84,0
364444,note_on,120,0,2,,,,,,,,,1,,,,76,0
364445,note_on,0,0,3,,,,,,,,,2,,,,72,0
364445,note_on,120,0,3,,,,,,,,,2,,,,76,0
364447,note_on,0,0,8,,,,,,,,,7,,,,60,0
364447,note_on,120,0,8,,,,,,,,,7,,,,64,0
364448,note_on,60,0,13,,,,,,,,,12,,,,60,112
364449,note_on,0,0,4,,,,,,,,,3,,,,64,0
364449,note_on,120,0,4,,,,,,,,,3,,,,60,0
364452,note_on,60,0,14,,,,,,,,,13,,,,60,112
364453,note_on,120,0,9,,,,,,,,,8,,,,48,0
364454,note_on,60,0,15,,,,,,,,,14,,,,48,112
364455,note_on,120,0,10,,,,,,,,,15,,,,48,0
364500,note_on,60,0,11,,,,,,,,,10,,,,60,0
364503,note_on,60,0,12,,,,,,,,,11,,,,60,0
364508,note_on,60,0,13,,,,,,,,,12,,,,60,0
364512,note_on,60,0,14,,,,,,,,,13,,,,60,0
364514,note_on,60,0,15,,,,,,,,,14,,,,48,0
364560,note_on,60,0,11,,,,,,,,,10,,,,60,112
364560,set_tempo,120,1,0,,,,,,307692,,,,,,,,
364563,note_on,60,0,12,,,,,,,,,11,,,,60,112
364568,note_on,60,0,13,,,,,,,,,12,,,,60,112
364572,note_on,60,0,14,,,,,,,,,13,,,,60,112
364574,note_on,60,0,15,,,,,,,,,14,,,,48,112
364620,note_on,60,0,11,,,,,,,,,10,,,,60,0
364623,note_on,60,0,12,,,,,,,,,11,,,,60,0
364628,note_on,60,0,13,,,,,,,,,12,,,,60,0
364632,note_on,60,0,14,,,,,,,,,13,,,,60,0
364634,note_on,60,0,15,,,,,,,,,14,,,,48,0
364680,control_change,60,0,11,,,,,,,,,10,11,50,,,
364680,set_tempo,120,1,0,,,,,,254237,,,,,,,,
364681,note_on,0,0,1,,,,,,,,,0,,,,81,116
364681,note_on,0,0,1,,,,,,,,,0,,,,84,116
364681,control_change,240,0,1,,,,,,,,,0,11,47,,,
364683,control_change,60,0,12,,,,,,,,,11,11,50,,,
364684,control_change,240,0,2,,,,,,,,,1,11,47,,,
364685,control_change,240,0,3,,,,,,,,,2,11,47,,,
364685,note_on,0,0,3,,,,,,,,,2,,,,69,116
364685,note_on,0,0,3,,,,,,,,,2,,,,72,116
364688,control_change,0,0,13,,,,,,,,,12,11,50,,,
364688,note_on,60,0,13,,,,,,,,,12,,,,60,112
364692,control_change,0,0,14,,,,,,,,,13,11,50,,,
364692,note_on,60,0,14,,,,,,,,,13,,,,53,112
364694,control_change,0,0,15,,,,,,,,,14,11,50,,,
364694,note_on,60,0,15,,,,,,,,,14,,,,36,112
364741,note_on,0,0,1,,,,,,,,,0,,,,81,0
364741,note_on,60,0,1,,,,,,,,,0,,,,84,0
364745,note_on,0,0,3,,,,,,,,,2,,,,69,0
364745,note_on,60,0,3,,,,,,,,,2,,,,72,0
364800,set_tempo,120,1,0,,,,,,263158,,,,,,,,
364801,note_on,0,0,1,,,,,,,,,0,,,,83,101
364801,note_on,60,0,1,,,,,,,,,0,,,,80,101
364805,note_on,60,0,3,,,,,,,,,2,,,,68,101
364805,note_on,0,0,3,,,,,,,,,2,,,,71,101
364808,note_on,120,0,13,,,,,,,,,12,,,,60,0
364814,note_on,120,0,15,,,,,,,,,14,,,,36,0
364861,note_on,0,0,1,,,,,,,,,0,,,,80,0
364861,note_on,0,0,1,,,,,,,,,0,,,,81,101
364861,note_on,0,0,1,,,,,,,,,0,,,,84,101
364861,note_on,60,0,1,,,,,,,,,0,,,,83,0
364865,note_on,60,0,3,,,,,,,,,2,,,,71,0
364865,note_on,0,0,3,,,,,,,,,2,,,,68,0
364865,note_on,0,0,3,,,,,,,,,2,,,,69,101
364865,note_on,0,0,3,,,,,,,,,2,,,,72,101
364920,set_tempo,120,1,0,,,,,,288462,,,,,,,,
364921,note_on,60,0,1,,,,,,,,,0,,,,84,0
364921,note_on,0,0,1,,,,,,,,,0,,,,83,101
364921,note_on,0,0,1,,,,,,,,,0,,,,81,0
364921,note_on,0,0,1,,,,,,,,,0,,,,79,101
364925,note_on,0,0,3,,,,,,,,,2,,,,67,101
364925,note_on,0,0,3,,,,,,,,,2,,,,71,101
364925,note_on,0,0,3,,,,,,,,,2,,,,69,0
364925,note_on,60,0,3,,,,,,,,,2,,,,72,0
364932,note_on,0,0,14,,,,,,,,,13,,,,57,112
364932,note_on,240,0,14,,,,,,,,,13,,,,53,0
364981,note_on,0,0,1,,,,,,,,,0,,,,81,101
364981,note_on,0,0,1,,,,,,,,,0,,,,77,101
364981,note_on,0,0,1,,,,,,,,,0,,,,79,0
364981,note_on,60,0,1,,,,,,,,,0,,,,83,0
364985,note_on,0,0,3,,,,,,,,,2,,,,71,0
364985,note_on,0,0,3,,,,,,,,,2,,,,69,101
364985,note_on,60,0,3,,,,,,,,,2,,,,67,0
364985,note_on,0,0,3,,,,,,,,,2,,,,65,101
365040,set_tempo,120,1,0,,,,,,254237,,,,,,,,
365041,note_on,60,0,1,,,,,,,,,0,,,,77,0
365041,note_on,0,0,1,,,,,,,,,0,,,,81,0
365041,note_on,0,0,1,,,,,,,,,0,,,,76,101
365041,note_on,0,0,1,,,,,,,,,0,,,,79,101
365045,note_on,0,0,3,,,,,,,,,2,,,,69,0
365045,note_on,0,0,3,,,,,,,,,2,,,,64,101
365045,note_on,0,0,3,,,,,,,,,2,,,,67,101
365045,note_on,60,0,3,,,,,,,,,2,,,,65,0
365047,note_on,115,0,14,,,,,,,,,13,,,,57,0
365052,note_on,5,0,14,,,,,,,,,13,,,,60,112
365055,note_on,600,0,10,,,,,,,,,15,,,,48,35
365115,note_on,0,0,10,,,,,,,,,15,,,,48,35
365115,note_on,60,0,10,,,,,,,,,15,,,,48,0
365160,set_tempo,120,1,0,,,,,,263158,,,,,,,,
365161,note_on,120,0,1,,,,,,,,,0,,,,76,0
365161,note_on,0,0,1,,,,,,,,,0,,,,79,0
365161,note_on,0,0,1,,,,,,,,,0,,,,79,101
365161,note_on,0,0,1,,,,,,,,,0,,,,76,101
365165,note_on,0,0,3,,,,,,,,,2,,,,64,101
365165,note_on,0,0,3,,,,,,,,,2,,,,67,0
365165,note_on,120,0,3,,,,,,,,,2,,,,64,0
365165,note_on,0,0,3,,,,,,,,,2,,,,67,101
365175,note_on,60,0,10,,,,,,,,,15,,,,48,0
365175,note_on,0,0,10,,,,,,,,,15,,,,43,35
365235,note_on,60,0,10,,,,,,,,,15,,,,43,0
365235,note_on,0,0,10,,,,,,,,,15,,,,48,35
365280,set_tempo,120,1,0,,,,,,288462,,,,,,,,
365281,note_on,0,0,1,,,,,,,,,0,,,,79,0
365281,note_on,0,0,1,,,,,,,,,0,,,,72,101
365281,note_on,0,0,1,,,,,,,,,0,,,,76,101
365281,note_on,120,0,1,,,,,,,,,0,,,,76,0
365285,note_on,120,0,3,,,,,,,,,2,,,,67,0
365285,note_on,0,0,3,,,,,,,,,2,,,,64,101
365285,note_on,0,0,3,,,,,,,,,2,,,,60,101
365285,note_on,0,0,3,,,,,,,,,2,,,,64,0
365292,note_on,0,0,14,,,,,,,,,13,,,,64,112
365292,note_on,240,0,14,,,,,,,,,13,,,,60,0
365295,note_on,60,0,10,,,,,,,,,15,,,,48,0
365295,note_on,0,0,10,,,,,,,,,15,,,,43,35
365341,note_on,60,0,1,,,,,,,,,0,,,,72,0
365341,note_on,0,0,1,,,,,,,,,0,,,,76,0
365345,note_on,0,0,3,,,,,,,,,2,,,,60,0
365345,note_on,60,0,3,,,,,,,,,2,,,,64,0
365355,note_on,60,0,10,,,,,,,,,15,,,,43,0
365355,note_on,0,0,10,,,,,,,,,15,,,,48,35
365400,set_tempo,120,1,0,,,,,,254237,,,,,,,,
365401,note_on,60,0,1,,,,,,,,,0,,,,71,116
365401,note_on,0,0,1,,,,,,,,,0,,,,81,101
365405,note_on,60,0,3,,,,,,,,,2,,,,59,116
365405,note_on,0,0,3,,,,,,,,,2,,,,69,101
365407,note_on,115,0,14,,,,,,,,,13,,,,64,0
365408,note_on,600,0,13,,,,,,,,,12,,,,55,112
365412,note_on,5,0,14,,,,,,,,,13,,,,65,112
365414,note_on,600,0,15,,,,,,,,,14,,,,31,112
365415,note_on,60,0,10,,,,,,,,,15,,,,48,0
365415,note_on,0,0,10,,,,,,,,,15,,,,43,35
365520,set_tempo,120,1,0,,,,,,263158,,,,,,,,
365521,note_on,120,0,1,,,,,,,,,0,,,,81,0
365521,note_on,0,0,1,,,,,,,,,0,,,,75,101
365525,note_on,0,0,3,,,,,,,,,2,,,,63,101
365525,note_on,120,0,3,,,,,,,,,2,,,,69,0
365528,note_on,120,0,13,,,,,,,,,12,,,,55,0
365534,note_on,120,0,15,,,,,,,,,14,,,,31,0
365535,note_on,0,0,10,,,,,,,,,15,,,,43,35
365535,note_on,120,0,10,,,,,,,,,15,,,,43,0
365640,set_tempo,120,1,0,,,,,,288462,,,,,,,,
365641,note_on,0,0,1,,,,,,,,,0,,,,71,101
365641,note_on,120,0,1,,,,,,,,,0,,,,75,0
365641,note_on,0,0,1,,,,,,,,,0,,,,75,101
365641,note_on,0,0,1,,,,,,,,,0,,,,71,0
365645,note_on,120,0,3,,,,,,,,,2,,,,63,0
365645,note_on,0,0,3,,,,,,,,,2,,,,59,0
365645,note_on,0,0,3,,,,,,,,,2,,,,59,101
365645,note_on,0,0,3,,,,,,,,,2,,,,63,101
365652,note_on,240,0,14,,,,,,,,,13,,,,65,0
365652,note_on,0,0,14,,,,,,,,,13,,,,67,112
365655,note_on,120,0,10,,,,,,,,,15,,,,43,0
365655,note_on,0,0,10,,,,,,,,,15,,,,43,35
365760,note_on,1080,0,11,,,,,,,,,10,,,,60,112
365760,set_tempo,120,1,0,,,,,,254237,,,,,,,,
365761,note_on,0,0,1,,,,,,,,,0,,,,76,116
365761,note_on,120,0,1,,,,,,,,,0,,,,75,0
365761,note_on,0,0,1,,,,,,,,,0,,,,71,0
365761,note_on,0,0,1,,,,,,,,,0,,,,72,116
365763,note_on,1080,0,12,,,,,,,,,11,,,,60,112
365765,note_on,120,0,3,,,,,,,,,2,,,,63,0
365765,note_on,0,0,3,,,,,,,,,2,,,,59,0
365765,note_on,0,0,3,,,,,,,,,2,,,,64,116
365765,note_on,0,0,3,,,,,,,,,2,,,,60,116
365767,note_on,115,0,14,,,,,,,,,13,,,,67,0
365768,note_on,240,0,13,,,,,,,,,12,,,,60,112
365772,note_on,5,0,14,,,,,,,,,13,,,,64,112
365774,note_on,240,0,15,,,,,,,,,14,,,,36,112
365775,note_on,0,0,10,,,,,,,,,15,,,,48,35
365775,note_on,120,0,10,,,,,,,,,15,,,,43,0
365790,note_on,30,0,11,,,,,,,,,10,,,,60,0
365793,note_on,30,0,12,,,,,,,,,11,,,,60,0
365798,note_on,30,0,13,,,,,,,,,12,,,,60,0
365804,note_on,30,0,15,,,,,,,,,14,,,,36,0
365820,note_on,30,0,11,,,,,,,,,10,,,,60,112
365821,note_on,60,0,1,,,,,,,,,0,,,,72,0
365821,note_on,0,0,1,,,,,,,,,0,,,,76,0
365823,note_on,30,0,12,,,,,,,,,11,,,,60,112
365825,note_on,0,0,3,,,,,,,,,2,,,,64,0
365825,note_on,60,0,3,,,,,,,,,2,,,,60,0
365828,note_on,30,0,13,,,,,,,,,12,,,,60,112
365834,note_on,30,0,15,,,,,,,,,14,,,,36,112
365850,note_on,30,0,11,,,,,,,,,10,,,,60,0
365853,note_on,30,0,12,,,,,,,,,11,,,,60,0
365858,note_on,30,0,13,,,,,,,,,12,,,,60,0
365864,note_on,30,0,15,,,,,,,,,14,,,,36,0
365880,note_on,30,0,11,,,,,,,,,10,,,,62,112
365880,set_tempo,120,1,0,,,,,,263158,,,,,,,,
365881,note_on,0,0,1,,,,,,,,,0,,,,79,101
365881,note_on,60,0,1,,,,,,,,,0,,,,76,101
365883,note_on,30,0,12,,,,,,,,,11,,,,62,112
365885,note_on,0,0,3,,,,,,,,,2,,,,64,101
365885,note_on,60,0,3,,,,,,,,,2,,,,67,101
365888,note_on,30,0,13,,,,,,,,,12,,,,62,112
365894,note_on,30,0,15,,,,,,,,,14,,,,38,112
365895,note_on,120,0,10,,,,,,,,,15,,,,48,0
365910,note_on,30,0,11,,,,,,,,,10,,,,62,0
365913,note_on,30,0,12,,,,,,,,,11,,,,62,0
365918,note_on,30,0,13,,,,,,,,,12,,,,62,0
365924,note_on,30,0,15,,,,,,,,,14,,,,38,0
365940,note_on,30,0,11,,,,,,,,,10,,,,60,112
365941,note_on,60,0,1,,,,,,,,,0,,,,79,0
365941,note_on,0,0,1,,,,,,,,,0,,,,76,0
365943,note_on,30,0,12,,,,,,,,,11,,,,60,112
365945,note_on,60,0,3,,,,,,,,,2,,,,64,0
365945,note_on,0,0,3,,,,,,,,,2,,,,67,0
365948,note_on,30,0,13,,,,,,,,,12,,,,60,112
365954,note_on,30,0,15,,,,,,,,,14,,,,36,112
365970,note_on,30,0,11,,,,,,,,,10,,,,60,0
365973,note_on,30,0,12,,,,,,,,,11,,,,60,0
365978,note_on,30,0,13,,,,,,,,,12,,,,60,0
365984,note_on,30,0,15,,,,,,,,,14,,,,36,0
366000,set_tempo,120,1,0,,,,,,288462,,,,,,,,
366000,note_on,30,0,11,,,,,,,,,10,,,,62,112
366001,note_on,0,0,1,,,,,,,,,0,,,,79,101
366001,note_on,60,0,1,,,,,,,,,0,,,,76,101
366003,note_on,30,0,12,,,,,,,,,11,,,,62,112
366005,note_on,60,0,3,,,,,,,,,2,,,,64,101
366005,note_on,0,0,3,,,,,,,,,2,,,,67,101
366008,note_on,30,0,13,,,,,,,,,12,,,,62,112
366012,note_on,0,0,14,,,,,,,,,13,,,,60,112
366012,note_on,240,0,14,,,,,,,,,13,,,,64,0
366014,note_on,30,0,15,,,,,,,,,14,,,,38,112
366030,note_on,30,0,11,,,,,,,,,10,,,,62,0
366033,note_on,30,0,12,,,,,,,,,11,,,,62,0
366038,note_on,30,0,13,,,,,,,,,12,,,,62,0
366044,note_on,30,0,15,,,,,,,,,14,,,,38,0
366060,note_on,30,0,11,,,,,,,,,10,,,,60,112
366061,note_on,60,0,1,,,,,,,,,0,,,,79,0
366061,note_on,0,0,1,,,,,,,,,0,,,,76,0
366063,note_on,30,0,12,,,,,,,,,11,,,,60,112
366065,note_on,0,0,3,,,,,,,,,2,,,,64,0
366065,note_on,60,0,3,,,,,,,,,2,,,,67,0
366068,note_on,30,0,13,,,,,,,,,12,,,,60,112
366074,note_on,30,0,15,,,,,,,,,14,,,,36,112
366090,note_on,30,0,11,,,,,,,,,10,,,,60,0
366093,note_on,30,0,12,,,,,,,,,11,,,,60,0
366098,note_on,30,0,13,,,,,,,,,12,,,,60,0
366104,note_on,30,0,15,,,,,,,,,14,,,,36,0
366120,set_tempo,120,1,0,,,,,,254237,,,,,,,,
366120,note_on,30,0,11,,,,,,,,,10,,,,60,112
366121,note_on,0,0,1,,,,,,,,,0,,,,81,116
366121,note_on,60,0,1,,,,,,,,,0,,,,84,116
366123,note_on,30,0,12,,,,,,,,,11,,,,60,112
366124,note_on,1440,0,2,,,,,,,,,1,,,,81,115
366124,note_on,0,0,2,,,,,,,,,1,,,,84,115
366125,note_on,0,0,3,,,,,,,,,2,,,,69,116
366125,note_on,60,0,3,,,,,,,,,2,,,,72,116
366127,note_on,115,0,14,,,,,,,,,13,,,,60,0
366128,note_on,30,0,13,,,,,,,,,12,,,,60,112
366132,control_change,5,0,14,,,,,,,,,13,11,50,,,
366132,note_on,0,0,14,,,,,,,,,13,,,,53,112
366134,note_on,30,0,15,,,,,,,,,14,,,,36,112
366151,note_on,30,0,1,,,,,,,,,0,,,,81,0
366151,note_on,0,0,1,,,,,,,,,0,,,,84,0
366154,note_on,30,0,2,,,,,,,,,1,,,,84,0
366154,note_on,0,0,2,,,,,,,,,1,,,,81,0
366155,note_on,0,0,3,,,,,,,,,2,,,,72,0
366155,note_on,30,0,3,,,,,,,,,2,,,,69,0
366168,control_change,36,0,14,,,,,,,,,13,11,51,,,
366181,note_on,0,0,1,,,,,,,,,0,,,,81,101
366181,note_on,30,0,1,,,,,,,,,0,,,,84,101
366184,note_on,0,0,2,,,,,,,,,1,,,,84,100
366184,note_on,30,0,2,,,,,,,,,1,,,,81,100
366185,note_on,30,0,3,,,,,,,,,2,,,,69,101
366185,note_on,0,0,3,,,,,,,,,2,,,,72,101
366204,control_change,36,0,14,,,,,,,,,13,11,52,,,
366211,note_on,0,0,1,,,,,,,,,0,,,,84,0
366211,note_on,30,0,1,,,,,,,,,0,,,,81,0
366214,note_on,30,0,2,,,,,,,,,1,,,,84,0
366214,note_on,0,0,2,,,,,,,,,1,,,,81,0
366215,note_on,30,0,3,,,,,,,,,2,,,,72,0
366215,note_on,0,0,3,,,,,,,,,2,,,,69,0
366240,set_tempo,120,1,0,,,,,,263158,,,,,,,,
366240,note_on,120,0,11,,,,,,,,,10,,,,60,0
366240,control_change,36,0,14,,,,,,,,,13,11,53,,,
366241,note_on,0,0,1,,,,,,,,,0,,,,83,101
366241,note_on,30,0,1,,,,,,,,,0,,,,80,101
366243,note_on,120,0,12,,,,,,,,,11,,,,60,0
366244,note_on,0,0,2,,,,,,,,,1,,,,83,100
366244,note_on,30,0,2,,,,,,,,,1,,,,80,100
366245,note_on,0,0,3,,,,,,,,,2,,,,71,101
366245,note_on,30,0,3,,,,,,,,,2,,,,68,101
366248,note_on,120,0,13,,,,,,,,,12,,,,60,0
366252,note_on,12,0,14,,,,,,,,,13,,,,53,0
366252,note_on,0,0,14,,,,,,,,,13,,,,57,112
366254,note_on,120,0,15,,,,,,,,,14,,,,36,0
366276,control_change,24,0,14,,,,,,,,,13,11,54,,,
366301,note_on,0,0,1,,,,,,,,,0,,,,80,0
366301,note_on,60,0,1,,,,,,,,,0,,,,83,0
366301,note_on,0,0,1,,,,,,,,,0,,,,81,101
366301,note_on,0,0,1,,,,,,,,,0,,,,84,101
366304,note_on,60,0,2,,,,,,,,,1,,,,83,0
366304,note_on,0,0,2,,,,,,,,,1,,,,80,0
366304,note_on,0,0,2,,,,,,,,,1,,,,84,100
366304,note_on,0,0,2,,,,,,,,,1,,,,81,100
366305,note_on,0,0,3,,,,,,,,,2,,,,68,0
366305,note_on,0,0,3,,,,,,,,,2,,,,69,101
366305,note_on,0,0,3,,,,,,,,,2,,,,72,101
366305,note_on,60,0,3,,,,,,,,,2,,,,71,0
366312,control_change,36,0,14,,,,,,,,,13,11,55,,,
366348,control_change,36,0,14,,,,,,,,,13,11,56,,,
366360,set_tempo,120,1,0,,,,,,288462,,,,,,,,
366361,note_on,60,0,1,,,,,,,,,0,,,,81,0
366361,note_on,0,0,1,,,,,,,,,0,,,,84,0
366361,note_on,0,0,1,,,,,,,,,0,,,,79,101
366361,note_on,0,0,1,,,,,,,,,0,,,,83,101
366364,note_on,0,0,2,,,,,,,,,1,,,,83,100
366364,note_on,60,0,2,,,,,,,,,1,,,,81,0
366364,note_on,0,0,2,,,,,,,,,1,,,,84,0
366364,note_on,0,0,2,,,,,,,,,1,,,,79,100
366365,note_on,0,0,3,,,,,,,,,2,,,,72,0
366365,note_on,0,0,3,,,,,,,,,2,,,,67,101
366365,note_on,60,0,3,,,,,,,,,2,,,,69,0
366365,note_on,0,0,3,,,,,,,,,2,,,,71,101
366372,note_on,0,0,14,,,,,,,,,13,,,,59,112
366372,note_on,24,0,14,,,,,,,,,13,,,,57,0
366384,control_change,12,0,14,,,,,,,,,13,11,57,,,
366420,control_change,36,0,14,,,,,,,,,13,11,57,,,
366421,note_on,0,0,1,,,,,,,,,0,,,,81,101
366421,note_on,0,0,1,,,,,,,,,0,,,,77,101
366421,note_on,60,0,1,,,,,,,,,0,,,,83,0
366421,note_on,0,0,1,,,,,,,,,0,,,,79,0
366424,note_on,60,0,2,,,,,,,,,1,,,,83,0
366424,note_on,0,0,2,,,,,,,,,1,,,,79,0
366424,note_on,0,0,2,,,,,,,,,1,,,,81,100
366424,note_on,0,0,2,,,,,,,,,1,,,,77,100
366425,note_on,0,0,3,,,,,,,,,2,,,,69,101
366425,note_on,60,0,3,,,,,,,,,2,,,,71,0
366425,note_on,0,0,3,,,,,,,,,2,,,,65,101
366425,note_on,0,0,3,,,,,,,,,2,,,,67,0
366456,control_change,36,0,14,,,,,,,,,13,11,58,,,
366480,set_tempo,120,1,0,,,,,,254237,,,,,,,,
366481,note_on,0,0,1,,,,,,,,,0,,,,76,101
366481,note_on,0,0,1,,,,,,,,,0,,,,79,101
366481,note_on,0,0,1,,,,,,,,,0,,,,81,0
366481,note_on,60,0,1,,,,,,,,,0,,,,77,0
366484,note_on,0,0,2,,,,,,,,,1,,,,79,100
366484,note_on,0,0,2,,,,,,,,,1,,,,77,0
366484,note_on,0,0,2,,,,,,,,,1,,,,76,100
366484,note_on,60,0,2,,,,,,,,,1,,,,81,0
366485,note_on,0,0,3,,,,,,,,,2,,,,65,0
366485,note_on,60,0,3,,,,,,,,,2,,,,69,0
366485,note_on,0,0,3,,,,,,,,,2,,,,67,101
366485,note_on,0,0,3,,,,,,,,,2,,,,64,101
366492,control_change,0,0,14,,,,,,,,,13,11,59,,,
366492,note_on,0,0,14,,,,,,,,,13,,,,60,112
366492,note_on,36,0,14,,,,,,,,,13,,,,59,0
366495,note_on,600,0,10,,,,,,,,,15,,,,48,35
366528,control_change,36,0,14,,,,,,,,,13,11,60,,,
366541,note_on,0,0,1,,,,,,,,,0,,,,76,0
366541,note_on,60,0,1,,,,,,,,,0,,,,79,0
366544,note_on,60,0,2,,,,,,,,,1,,,,76,0
366544,note_on,0,0,2,,,,,,,,,1,,,,79,0
366545,note_on,0,0,3,,,,,,,,,2,,,,64,0
366545,note_on,60,0,3,,,,,,,,,2,,,,67,0
366555,note_on,0,0,10,,,,,,,,,15,,,,48,35
366555,note_on,60,0,10,,,,,,,,,15,,,,48,0
366564,control_change,36,0,14,,,,,,,,,13,11,61,,,
366600,set_tempo,120,1,0,,,,,,263158,,,,,,,,
366600,control_change,36,0,14,,,,,,,,,13,11,62,,,
366601,note_on,0,0,1,,,,,,,,,0,,,,79,101
366601,note_on,60,0,1,,,,,,,,,0,,,,76,101
366604,note_on,0,0,2,,,,,,,,,1,,,,76,100
366604,note_on,60,0,2,,,,,,,,,1,,,,79,100
366605,note_on,0,0,3,,,,,,,,,2,,,,64,101
366605,note_on,60,0,3,,,,,,,,,2,,,,67,101
366612,note_on,12,0,14,,,,,,,,,13,,,,60,0
366612,note_on,0,0,14,,,,,,,,,13,,,,62,112
366615,note_on,60,0,10,,,,,,,,,15,,,,48,0
366615,note_on,0,0,10,,,,,,,,,15,,,,43,35
366636,control_change,24,0,14,,,,,,,,,13,11,63,,,
366661,note_on,0,0,1,,,,,,,,,0,,,,76,0
366661,note_on,60,0,1,,,,,,,,,0,,,,79,0
366664,note_on,0,0,2,,,,,,,,,1,,,,79,0
366664,note_on,60,0,2,,,,,,,,,1,,,,76,0
366665,note_on,0,0,3,,,,,,,,,2,,,,67,0
366665,note_on,60,0,3,,,,,,,,,2,,,,64,0
366672,control_change,36,0,14,,,,,,,,,13,11,64,,,
366675,note_on,60,0,10,,,,,,,,,15,,,,43,0
366675,note_on,0,0,10,,,,,,,,,15,,,,48,35
366708,control_change,36,0,14,,,,,,,,,13,11,65,,,
366720,set_tempo,120,1,0,,,,,,288462,,,,,,,,
366721,note_on,60,0,1,,,,,,,,,0,,,,76,101
366721,note_on,0,0,1,,,,,,,,,0,,,,72,101
366724,note_on,0,0,2,,,,,,,,,1,,,,76,100
366724,note_on,60,0,2,,,,,,,,,1,,,,72,100
366725,note_on,0,0,3,,,,,,,,,2,,,,60,101
366725,note_on,60,0,3,,,,,,,,,2,,,,64,101
366732,note_on,24,0,14,,,,,,,,,13,,,,62,0
366732,note_on,0,0,14,,,,,,,,,13,,,,64,112
366735,note_on,60,0,10,,,,,,,,,15,,,,48,0
366735,note_on,0,0,10,,,,,,,,,15,,,,43,35
366744,control_change,12,0,14,,,,,,,,,13,11,66,,,
366780,control_change,36,0,14,,,,,,,,,13,11,67,,,
366781,note_on,0,0,1,,,,,,,,,0,,,,76,0
366781,note_on,60,0,1,,,,,,,,,0,,,,72,0
366784,note_on,60,0,2,,,,,,,,,1,,,,76,0
366784,note_on,0,0,2,,,,,,,,,1,,,,72,0
366785,note_on,60,0,3,,,,,,,,,2,,,,60,0
366785,note_on,0,0,3,,,,,,,,,2,,,,64,0
366795,note_on,60,0,10,,,,,,,,,15,,,,43,0
366795,note_on,0,0,10,,,,,,,,,15,,,,48,35
366816,control_change,36,0,14,,,,,,,,,13,11,68,,,
366840,set_tempo,120,1,0,,,,,,254237,,,,,,,,
366841,note_on,0,0,1,,,,,,,,,0,,,,71,116
366841,note_on,60,0,1,,,,,,,,,0,,,,81,101
366844,note_on,60,0,2,,,,,,,,,1,,,,71,115
366844,note_on,0,0,2,,,,,,,,,1,,,,81,100
366845,note_on,60,0,3,,,,,,,,,2,,,,59,116
366845,note_on,0,0,3,,,,,,,,,2,,,,69,101
366847,note_on,31,0,14,,,,,,,,,13,,,,64,0
366848,note_on,600,0,13,,,,,,,,,12,,,,55,112
366852,control_change,5,0,14,,,,,,,,,13,11,69,,,
366852,note_on,0,0,14,,,,,,,,,13,,,,65,112
366854,note_on,600,0,15,,,,,,,,,14,,,,31,112
366855,note_on,0,0,10,,,,,,,,,15,,,,43,35
366855,note_on,60,0,10,,,,,,,,,15,,,,48,0
366870,control_change,18,0,14,,,,,,,,,13,11,68,,,
366888,control_change,18,0,14,,,,,,,,,13,11,67,,,
366906,control_change,18,0,14,,,,,,,,,13,11,66,,,
366924,control_change,18,0,14,,,,,,,,,13,11,65,,,
366942,control_change,18,0,14,,,,,,,,,13,11,64,,,
366960,set_tempo,120,1,0,,,,,,263158,,,,,,,,
366960,control_change,18,0,14,,,,,,,,,13,11,63,,,
366961,note_on,120,0,1,,,,,,,,,0,,,,81,0
366961,note_on,0,0,1,,,,,,,,,0,,,,75,101
366964,note_on,120,0,2,,,,,,,,,1,,,,81,0
366964,note_on,0,0,2,,,,,,,,,1,,,,75,100
366965,note_on,120,0,3,,,,,,,,,2,,,,69,0
366965,note_on,0,0,3,,,,,,,,,2,,,,63,101
366968,note_on,120,0,13,,,,,,,,,12,,,,55,0
366972,note_on,0,0,14,,,,,,,,,13,,,,69,112
366972,note_on,12,0,14,,,,,,,,,13,,,,65,0
366974,note_on,120,0,15,,,,,,,,,14,,,,31,0
366975,note_on,120,0,10,,,,,,,,,15,,,,43,0
366975,note_on,0,0,10,,,,,,,,,15,,,,43,35
366978,control_change,6,0,14,,,,,,,,,13,11,62,,,
366996,control_change,18,0,14,,,,,,,,,13,11,61,,,
367014,control_change,18,0,14,,,,,,,,,13,11,60,,,
367032,control_change,18,0,14,,,,,,,,,13,11,59,,,
367050,control_change,18,0,14,,,,,,,,,13,11,58,,,
367068,control_change,18,0,14,,,,,,,,,13,11,57,,,
367080,set_tempo,120,1,0,,,,,,288462,,,,,,,,
367081,note_on,0,0,1,,,,,,,,,0,,,,71,0
367081,note_on,0,0,1,,,,,,,,,0,,,,75,101
367081,note_on,0,0,1,,,,,,,,,0,,,,71,101
367081,note_on,120,0,1,,,,,,,,,0,,,,75,0
367084,note_on,120,0,2,,,,,,,,,1,,,,75,0
367084,note_on,0,0,2,,,,,,,,,1,,,,71,0
367084,note_on,0,0,2,,,,,,,,,1,,,,75,100
367084,note_on,0,0,2,,,,,,,,,1,,,,71,100
367085,note_on,0,0,3,,,,,,,,,2,,,,63,101
367085,note_on,0,0,3,,,,,,,,,2,,,,59,0
367085,note_on,120,0,3,,,,,,,,,2,,,,63,0
367085,note_on,0,0,3,,,,,,,,,2,,,,59,101
367086,control_change,18,0,14,,,,,,,,,13,11,57,,,
367092,note_on,0,0,14,,,,,,,,,13,,,,67,112
367092,note_on,6,0,14,,,,,,,,,13,,,,69,0
367095,note_on,120,0,10,,,,,,,,,15,,,,43,0
367095,note_on,0,0,10,,,,,,,,,15,,,,43,35
367104,control_change,12,0,14,,,,,,,,,13,11,56,,,
367122,control_change,18,0,14,,,,,,,,,13,11,55,,,
367140,control_change,18,0,14,,,,,,,,,13,11,54,,,
367141,note_on,60,0,1,,,,,,,,,0,,,,75,0
367144,note_on,60,0,2,,,,,,,,,1,,,,75,0
367145,note_on,60,0,3,,,,,,,,,2,,,,63,0
367150,note_on,10,0,14,,,,,,,,,13,,,,67,0
367158,control_change,8,0,14,,,,,,,,,13,11,53,,,
367176,control_change,18,0,14,,,,,,,,,13,11,52,,,
367194,control_change,18,0,14,,,,,,,,,13,11,51,,,
367200,set_tempo,120,1,0,,,,,,254237,,,,,,,,
367200,note_on,960,0,11,,,,,,,,,10,,,,60,112
367201,note_on,60,0,1,,,,,,,,,0,,,,71,0
367201,note_on,0,0,1,,,,,,,,,0,,,,72,116
367201,note_on,0,0,1,,,,,,,,,0,,,,76,116
367203,note_on,960,0,12,,,,,,,,,11,,,,60,112
367204,note_on,0,0,2,,,,,,,,,1,,,,72,115
367204,note_on,0,0,2,,,,,,,,,1,,,,76,115
367204,note_on,60,0,2,,,,,,,,,1,,,,71,0
367205,note_on,60,0,3,,,,,,,,,2,,,,59,0
367205,note_on,0,0,3,,,,,,,,,2,,,,60,116
367205,note_on,0,0,3,,,,,,,,,2,,,,64,116
367208,note_on,240,0,13,,,,,,,,,12,,,,60,112
367212,note_on,18,0,14,,,,,,,,,13,,,,64,112
367214,note_on,240,0,15,,,,,,,,,14,,,,36,112
367215,note_on,0,0,10,,,,,,,,,15,,,,48,35
367215,note_on,120,0,10,,,,,,,,,15,,,,43,0
367230,note_on,30,0,11,,,,,,,,,10,,,,60,0
367233,note_on,30,0,12,,,,,,,,,11,,,,60,0
367238,note_on,30,0,13,,,,,,,,,12,,,,60,0
367244,note_on,30,0,15,,,,,,,,,14,,,,36,0
367260,note_on,30,0,11,,,,,,,,,10,,,,60,112
367263,note_on,30,0,12,,,,,,,,,11,,,,60,112
367268,note_on,30,0,13,,,,,,,,,12,,,,60,112
367274,note_on,30,0,15,,,,,,,,,14,,,,36,112
367290,note_on,30,0,11,,,,,,,,,10,,,,60,0
367293,note_on,30,0,12,,,,,,,,,11,,,,60,0
367298,note_on,30,0,13,,,,,,,,,12,,,,60,0
367304,note_on,30,0,15,,,,,,,,,14,,,,36,0
367320,set_tempo,120,1,0,,,,,,263158,,,,,,,,
367320,note_on,30,0,11,,,,,,,,,10,,,,62,112
367321,note_on,0,0,1,,,,,,,,,0,,,,79,101
367321,note_on,0,0,1,,,,,,,,,0,,,,72,0
367321,note_on,120,0,1,,,,,,,,,0,,,,76,0
367321,note_on,0,0,1,,,,,,,,,0,,,,76,101
367323,note_on,30,0,12,,,,,,,,,11,,,,62,112
367324,note_on,0,0,2,,,,,,,,,1,,,,76,100
367324,note_on,0,0,2,,,,,,,,,1,,,,79,100
367324,note_on,0,0,2,,,,,,,,,1,,,,76,0
367324,note_on,120,0,2,,,,,,,,,1,,,,72,0
367325,note_on,120,0,3,,,,,,,,,2,,,,60,0
367325,note_on,0,0,3,,,,,,,,,2,,,,64,0
367325,note_on,0,0,3,,,,,,,,,2,,,,64,101
367325,note_on,0,0,3,,,,,,,,,2,,,,67,101
367328,note_on,30,0,13,,,,,,,,,12,,,,62,112
367334,note_on,30,0,15,,,,,,,,,14,,,,38,112
367335,note_on,120,0,10,,,,,,,,,15,,,,48,0
367350,note_on,30,0,11,,,,,,,,,10,,,,62,0
367353,note_on,30,0,12,,,,,,,,,11,,,,62,0
367358,note_on,30,0,13,,,,,,,,,12,,,,62,0
367364,note_on,30,0,15,,,,,,,,,14,,,,38,0
367380,note_on,30,0,11,,,,,,,,,10,,,,60,112
367383,note_on,30,0,12,,,,,,,,,11,,,,60,112
367388,note_on,30,0,13,,,,,,,,,12,,,,60,112
367394,note_on,30,0,15,,,,,,,,,14,,,,36,112
367410,note_on,30,0,11,,,,,,,,,10,,,,60,0
367413,note_on,30,0,12,,,,,,,,,11,,,,60,0
367418,note_on,30,0,13,,,,,,,,,12,,,,60,0
367424,note_on,30,0,15,,,,,,,,,14,,,,36,0
367440,set_tempo,120,1,0,,,,,,307692,,,,,,,,
367440,note_on,30,0,11,,,,,,,,,10,,,,62,112
367441,note_on,0,0,1,,,,,,,,,0,,,,76,101
367441,note_on,0,0,1,,,,,,,,,0,,,,79,101
367441,note_on,0,0,1,,,,,,,,,0,,,,79,0
367441,note_on,120,0,1,,,,,,,,,0,,,,76,0
367443,note_on,30,0,12,,,,,,,,,11,,,,62,112
367444,note_on,120,0,2,,,,,,,,,1,,,,79,0
367444,note_on,0,0,2,,,,,,,,,1,,,,76,0
367444,note_on,0,0,2,,,,,,,,,1,,,,79,100
367444,note_on,0,0,2,,,,,,,,,1,,,,76,100
367445,note_on,120,0,3,,,,,,,,,2,,,,64,0
367445,note_on,0,0,3,,,,,,,,,2,,,,67,0
367445,note_on,0,0,3,,,,,,,,,2,,,,67,101
367445,note_on,0,0,3,,,,,,,,,2,,,,64,101
367448,note_on,30,0,13,,,,,,,,,12,,,,62,112
367452,note_on,240,0,14,,,,,,,,,13,,,,64,0
367452,note_on,0,0,14,,,,,,,,,13,,,,60,112
367454,note_on,30,0,15,,,,,,,,,14,,,,38,112
367470,note_on,30,0,11,,,,,,,,,10,,,,62,0
367473,note_on,30,0,12,,,,,,,,,11,,,,62,0
367478,note_on,30,0,13,,,,,,,,,12,,,,62,0
367484,note_on,30,0,15,,,,,,,,,14,,,,38,0
367500,note_on,30,0,11,,,,,,,,,10,,,,60,112
367501,note_on,60,0,1,,,,,,,,,0,,,,76,0
367501,note_on,0,0,1,,,,,,,,,0,,,,79,0
367503,note_on,30,0,12,,,,,,,,,11,,,,60,112
367504,note_on,0,0,2,,,,,,,,,1,,,,79,0
367504,note_on,60,0,2,,,,,,,,,1,,,,76,0
367505,note_on,60,0,3,,,,,,,,,2,,,,64,0
367505,note_on,0,0,3,,,,,,,,,2,,,,67,0
367508,note_on,30,0,13,,,,,,,,,12,,,,60,112
367514,note_on,30,0,15,,,,,,,,,14,,,,36,112
367530,note_on,30,0,11,,,,,,,,,10,,,,60,0
367533,note_on,30,0,12,,,,,,,,,11,,,,60,0
367538,note_on,30,0,13,,,,,,,,,12,,,,60,0
367544,note_on,30,0,15,,,,,,,,,14,,,,36,0
367560,control_change,30,0,11,,,,,,,,,10,11,102,,,
367560,set_tempo,120,1,0,,,,,,254237,,,,,,,,
367560,note_on,0,0,11,,,,,,,,,10,,,,72,112
367561,note_on,0,0,1,,,,,,,,,0,,,,84,101
367561,control_change,60,0,1,,,,,,,,,0,11,86,,,
367561,note_on,0,0,1,,,,,,,,,0,,,,79,101
367562,control_change,3120,0,7,,,,,,,,,6,11,102,,,
367563,control_change,0,0,12,,,,,,,,,11,11,102,,,
367563,note_on,30,0,12,,,,,,,,,11,,,,72,112
367563,control_change,3120,0,5,,,,,,,,,4,11,102,,,
367563,note_on,0,0,5,,,,,,,,,4,,,,64,100
367564,note_on,0,0,2,,,,,,,,,1,,,,72,100
367564,note_on,3120,0,6,,,,,,,,,5,,,,60,100
367564,note_on,0,0,2,,,,,,,,,1,,,,76,100
367564,control_change,0,0,6,,,,,,,,,5,11,102,,,
367564,control_change,60,0,2,,,,,,,,,1,11,86,,,
367565,control_change,0,0,3,,,,,,,,,2,11,86,,,
367565,note_on,60,0,3,,,,,,,,,2,,,,72,101
367565,note_on,0,0,3,,,,,,,,,2,,,,67,101
367567,note_on,115,0,14,,,,,,,,,13,,,,60,0
367567,control_change,3120,0,8,,,,,,,,,7,11,102,,,
367567,program_change,29,0,13,,,,,,,,50,12,,,,,
367568,control_change,1,0,13,,,,,,,,,12,11,102,,,
367568,note_on,0,0,13,,,,,,,,,12,,,,72,112
367569,note_on,3120,0,4,,,,,,,,,3,,,,64,100
367569,control_change,0,0,4,,,,,,,,,3,11,97,,,
367569,note_on,0,0,4,,,,,,,,,3,,,,60,100
367572,note_on,5,0,14,,,,,,,,,13,,,,60,112
367572,control_change,0,0,14,,,,,,,,,13,11,102,,,
367573,control_change,3120,0,9,,,,,,,,,8,11,102,,,
367574,note_on,0,0,15,,,,,,,,,14,,,,48,112
367574,control_change,30,0,15,,,,,,,,,14,11,102,,,
367590,note_on,30,0,11,,,,,,,,,10,,,,72,0
367593,note_on,30,0,12,,,,,,,,,11,,,,72,0
367598,note_on,30,0,13,,,,,,,,,12,,,,72,0
367602,note_on,30,0,14,,,,,,,,,13,,,,60,0
367619,note_on,45,0,15,,,,,,,,,14,,,,48,0
367620,note_on,30,0,11,,,,,,,,,10,,,,72,112
367621,note_on,0,0,1,,,,,,,,,0,,,,84,0
367621,note_on,60,0,1,,,,,,,,,0,,,,79,0
367623,note_on,60,0,5,,,,,,,,,4,,,,64,0
367623,note_on,30,0,12,,,,,,,,,11,,,,72,112
367624,note_on,60,0,6,,,,,,,,,5,,,,60,0
367624,note_on,60,0,2,,,,,,,,,1,,,,72,0
367624,note_on,0,0,2,,,,,,,,,1,,,,76,0
367625,note_on,0,0,3,,,,,,,,,2,,,,72,0
367625,note_on,60,0,3,,,,,,,,,2,,,,67,0
367628,note_on,30,0,13,,,,,,,,,12,,,,72,112
367629,note_on,0,0,4,,,,,,,,,3,,,,64,0
367629,note_on,60,0,4,,,,,,,,,3,,,,60,0
367632,note_on,30,0,14,,,,,,,,,13,,,,60,112
367634,note_on,15,0,15,,,,,,,,,14,,,,48,112
367650,note_on,30,0,11,,,,,,,,,10,,,,72,0
367653,note_on,30,0,12,,,,,,,,,11,,,,72,0
367658,note_on,30,0,13,,,,,,,,,12,,,,72,0
367662,note_on,30,0,14,,,,,,,,,13,,,,60,0
367664,note_on,30,0,15,,,,,,,,,14,,,,48,0
367680,set_tempo,120,1,0,,,,,,263158,,,,,,,,
367680,note_on,30,0,11,,,,,,,,,10,,,,71,112
367681,note_on,0,0,1,,,,,,,,,0,,,,84,101
367681,note_on,60,0,1,,,,,,,,,0,,,,79,101
367683,note_on,60,0,5,,,,,,,,,4,,,,64,100
367683,note_on,30,0,12,,,,,,,,,11,,,,71,112
367684,note_on,60,0,2,,,,,,,,,1,,,,76,100
367684,note_on,0,0,2,,,,,,,,,1,,,,72,100
367684,note_on,60,0,6,,,,,,,,,5,,,,60,100
367685,note_on,60,0,3,,,,,,,,,2,,,,72,101
367685,note_on,0,0,3,,,,,,,,,2,,,,67,101
367688,note_on,30,0,13,,,,,,,,,12,,,,71,112
367689,note_on,60,0,4,,,,,,,,,3,,,,60,100
367689,note_on,0,0,4,,,,,,,,,3,,,,64,100
367692,note_on,30,0,14,,,,,,,,,13,,,,59,112
367694,note_on,30,0,15,,,,,,,,,14,,,,47,112
367710,note_on,30,0,11,,,,,,,,,10,,,,71,0
367713,note_on,30,0,12,,,,,,,,,11,,,,71,0
367718,note_on,30,0,13,,,,,,,,,12,,,,71,0
367722,note_on,30,0,14,,,,,,,,,13,,,,59,0
367724,note_on,30,0,15,,,,,,,,,14,,,,47,0
367740,note_on,30,0,11,,,,,,,,,10,,,,72,112
367741,note_on,60,0,1,,,,,,,,,0,,,,84,0
367741,note_on,0,0,1,,,,,,,,,0,,,,79,0
367743,note_on,30,0,12,,,,,,,,,11,,,,72,112
367743,note_on,60,0,5,,,,,,,,,4,,,,64,0
367744,note_on,60,0,6,,,,,,,,,5,,,,60,0
367744,note_on,0,0,2,,,,,,,,,1,,,,76,0
367744,note_on,60,0,2,,,,,,,,,1,,,,72,0
367745,note_on,60,0,3,,,,,,,,,2,,,,67,0
367745,note_on,0,0,3,,,,,,,,,2,,,,72,0
367748,note_on,30,0,13,,,,,,,,,12,,,,72,112
367749,note_on,0,0,4,,,,,,,,,3,,,,60,0
367749,note_on,60,0,4,,,,,,,,,3,,,,64,0
367752,note_on,30,0,14,,,,,,,,,13,,,,60,112
367754,note_on,30,0,15,,,,,,,,,14,,,,48,112
367770,note_on,30,0,11,,,,,,,,,10,,,,72,0
367773,note_on,30,0,12,,,,,,,,,11,,,,72,0
367778,note_on,30,0,13,,,,,,,,,12,,,,72,0
367782,note_on,30,0,14,,,,,,,,,13,,,,60,0
367784,note_on,30,0,15,,,,,,,,,14,,,,48,0
367800,set_tempo,120,1,0,,,,,,279070,,,,,,,,
367800,note_on,30,0,11,,,,,,,,,10,,,,71,112
367802,note_on,0,0,7,,,,,,,,,6,,,,60,112
367802,note_on,240,0,7,,,,,,,,,6,,,,72,112
367803,note_on,30,0,12,,,,,,,,,11,,,,71,112
367808,note_on,30,0,13,,,,,,,,,12,,,,71,112
367812,note_on,30,0,14,,,,,,,,,13,,,,59,112
367814,note_on,30,0,15,,,,,,,,,14,,,,47,112
367815,note_on,480,0,10,,,,,,,,,15,,,,48,100
367830,note_on,30,0,11,,,,,,,,,10,,,,71,0
367833,note_on,30,0,12,,,,,,,,,11,,,,71,0
367838,note_on,30,0,13,,,,,,,,,12,,,,71,0
367842,note_on,30,0,14,,,,,,,,,13,,,,59,0
367844,note_on,30,0,15,,,,,,,,,14,,,,47,0
367860,note_on,30,0,11,,,,,,,,,10,,,,69,112
367863,note_on,30,0,12,,,,,,,,,11,,,,69,112
367868,note_on,30,0,13,,,,,,,,,12,,,,69,112
367872,note_on,30,0,14,,,,,,,,,13,,,,57,112
367874,note_on,30,0,15,,,,,,,,,14,,,,45,112
367890,note_on,30,0,11,,,,,,,,,10,,,,69,0
367893,note_on,30,0,12,,,,,,,,,11,,,,69,0
367898,note_on,30,0,13,,,,,,,,,12,,,,69,0
367902,note_on,30,0,14,,,,,,,,,13,,,,57,0
367904,note_on,30,0,15,,,,,,,,,14,,,,45,0
367920,control_change,30,0,11,,,,,,,,,10,11,122,,,
367920,note_on,0,0,11,,,,,,,,,10,,,,67,112
367920,set_tempo,120,1,0,,,,,,254237,,,,,,,,
367921,note_on,180,0,1,,,,,,,,,0,,,,86,116
367921,note_on,0,0,1,,,,,,,,,0,,,,83,116
367922,note_on,120,0,7,,,,,,,,,6,,,,60,0
367922,note_on,0,0,7,,,,,,,,,6,,,,72,0
367923,note_on,30,0,12,,,,,,,,,11,,,,67,112
367923,control_change,0,0,12,,,,,,,,,11,11,122,,,
367923,note_on,180,0,5,,,,,,,,,4,,,,67,115
367924,note_on,180,0,6,,,,,,,,,5,,,,55,115
367924,note_on,180,0,2,,,,,,,,,1,,,,74,115
367924,control_change,4,0,11,,,,,,,,,10,11,119,,,
367924,note_on,0,0,2,,,,,,,,,1,,,,79,115
367925,note_on,0,0,3,,,,,,,,,2,,,,74,116
367925,note_on,180,0,3,,,,,,,,,2,,,,71,116
367927,control_change,4,0,12,,,,,,,,,11,11,119,,,
367928,note_on,30,0,13,,,,,,,,,12,,,,67,112
367928,control_change,0,0,13,,,,,,,,,12,11,122,,,
367929,control_change,5,0,11,,,,,,,,,10,11,116,,,
367929,note_on,180,0,4,,,,,,,,,3,,,,59,115
367929,note_on,0,0,4,,,,,,,,,3,,,,62,115
367932,control_change,4,0,13,,,,,,,,,12,11,119,,,
367932,control_change,30,0,14,,,,,,,,,13,11,122,,,
367932,note_on,0,0,14,,,,,,,,,13,,,,55,112
367932,control_change,5,0,12,,,,,,,,,11,11,116,,,
367933,control_change,4,0,11,,,,,,,,,10,11,113,,,
367934,control_change,0,0,15,,,,,,,,,14,11,122,,,
367934,note_on,30,0,15,,,,,,,,,14,,,,43,112
367935,note_on,120,0,10,,,,,,,,,15,,,,48,0
367936,control_change,4,0,12,,,,,,,,,11,11,113,,,
367936,control_change,4,0,14,,,,,,,,,13,11,119,,,
367937,control_change,5,0,13,,,,,,,,,12,11,116,,,
367938,control_change,5,0,11,,,,,,,,,10,11,110,,,
367938,control_change,4,0,15,,,,,,,,,14,11,119,,,
367941,control_change,5,0,12,,,,,,,,,11,11,110,,,
367941,control_change,5,0,14,,,,,,,,,13,11,116,,,
367941,control_change,4,0,13,,,,,,,,,12,11,113,,,
367942,control_change,4,0,11,,,,,,,,,10,11,107,,,
367943,control_change,5,0,15,,,,,,,,,14,11,116,,,
367945,control_change,4,0,14,,,,,,,,,13,11,113,,,
367945,control_change,4,0,12,,,,,,,,,11,11,107,,,
367946,control_change,5,0,13,,,,,,,,,12,11,110,,,
367947,control_change,5,0,11,,,,,,,,,10,11,104,,,
367947,control_change,4,0,15,,,,,,,,,14,11,113,,,
367950,control_change,5,0,14,,,,,,,,,13,11,110,,,
367950,note_on,3,0,11,,,,,,,,,10,,,,67,0
367950,control_change,5,0,12,,,,,,,,,11,11,104,,,
367950,control_change,4,0,13,,,,,,,,,12,11,107,,,
367952,control_change,5,0,15,,,,,,,,,14,11,110,,,
367953,note_on,3,0,12,,,,,,,,,11,,,,67,0
367954,control_change,4,0,14,,,,,,,,,13,11,107,,,
367955,control_change,5,0,13,,,,,,,,,12,11,104,,,
367956,control_change,4,0,15,,,,,,,,,14,11,107,,,
367958,note_on,3,0,13,,,,,,,,,12,,,,67,0
367959,control_change,5,0,14,,,,,,,,,13,11,104,,,
367961,control_change,5,0,15,,,,,,,,,14,11,104,,,
367962,note_on,3,0,14,,,,,,,,,13,,,,55,0
367964,note_on,3,0,15,,,,,,,,,14,,,,43,0
367980,note_on,30,0,11,,,,,,,,,10,,,,67,112
367981,note_on,60,0,1,,,,,,,,,0,,,,83,0
367981,note_on,0,0,1,,,,,,,,,0,,,,86,0
367983,note_on,30,0,12,,,,,,,,,11,,,,67,112
367983,note_on,60,0,5,,,,,,,,,4,,,,67,0
367984,note_on,0,0,2,,,,,,,,,1,,,,74,0
367984,note_on,60,0,2,,,,,,,,,1,,,,79,0
367984,note_on,60,0,6,,,,,,,,,5,,,,55,0
367985,note_on,60,0,3,,,,,,,,,2,,,,74,0
367985,note_on,0,0,3,,,,,,,,,2,,,,71,0
367988,note_on,30,0,13,,,,,,,,,12,,,,67,112
367989,note_on,60,0,4,,,,,,,,,3,,,,62,0
367989,note_on,0,0,4,,,,,,,,,3,,,,59,0
367992,note_on,30,0,14,,,,,,,,,13,,,,55,112
367994,note_on,30,0,15,,,,,,,,,14,,,,43,112
368010,note_on,30,0,11,,,,,,,,,10,,,,67,0
368013,note_on,30,0,12,,,,,,,,,11,,,,67,0
368018,note_on,30,0,13,,,,,,,,,12,,,,67,0
368022,note_on,30,0,14,,,,,,,,,13,,,,55,0
368024,note_on,30,0,15,,,,,,,,,14,,,,43,0
368040,set_tempo,120,1,0,,,,,,263158,,,,,,,,
368040,note_on,30,0,11,,,,,,,,,10,,,,66,112
368041,note_on,0,0,1,,,,,,,,,0,,,,86,101
368041,note_on,60,0,1,,,,,,,,,0,,,,82,101
368043,note_on,60,0,5,,,,,,,,,4,,,,67,100
368043,note_on,30,0,12,,,,,,,,,11,,,,66,112
368044,note_on,60,0,6,,,,,,,,,5,,,,55,100
368044,note_on,0,0,2,,,,,,,,,1,,,,79,100
368044,note_on,60,0,2,,,,,,,,,1,,,,74,100
368045,note_on,0,0,3,,,,,,,,,2,,,,74,101
368045,note_on,60,0,3,,,,,,,,,2,,,,70,101
368048,note_on,30,0,13,,,,,,,,,12,,,,66,112
368049,note_on,0,0,4,,,,,,,,,3,,,,62,100
368049,note_on,60,0,4,,,,,,,,,3,,,,58,100
368052,note_on,30,0,14,,,,,,,,,13,,,,54,112
368054,note_on,30,0,15,,,,,,,,,14,,,,42,112
368070,note_on,30,0,11,,,,,,,,,10,,,,66,0
368073,note_on,30,0,12,,,,,,,,,11,,,,66,0
368078,note_on,30,0,13,,,,,,,,,12,,,,66,0
368082,note_on,30,0,14,,,,,,,,,13,,,,54,0
368084,note_on,30,0,15,,,,,,,,,14,,,,42,0
368100,note_on,30,0,11,,,,,,,,,10,,,,67,112
368101,note_on,60,0,1,,,,,,,,,0,,,,86,0
368101,note_on,0,0,1,,,,,,,,,0,,,,82,0
368103,note_on,30,0,12,,,,,,,,,11,,,,67,112
368103,note_on,60,0,5,,,,,,,,,4,,,,67,0
368104,note_on,60,0,6,,,,,,,,,5,,,,55,0
368104,note_on,0,0,2,,,,,,,,,1,,,,74,0
368104,note_on,60,0,2,,,,,,,,,1,,,,79,0
368105,note_on,60,0,3,,,,,,,,,2,,,,74,0
368105,note_on,0,0,3,,,,,,,,,2,,,,70,0
368108,note_on,30,0,13,,,,,,,,,12,,,,67,112
368109,note_on,0,0,4,,,,,,,,,3,,,,58,0
368109,note_on,60,0,4,,,,,,,,,3,,,,62,0
368112,note_on,30,0,14,,,,,,,,,13,,,,55,112
368114,note_on,30,0,15,,,,,,,,,14,,,,43,112
368130,note_on,30,0,11,,,,,,,,,10,,,,67,0
368133,note_on,30,0,12,,,,,,,,,11,,,,67,0
368138,note_on,30,0,13,,,,,,,,,12,,,,67,0
368142,note_on,30,0,14,,,,,,,,,13,,,,55,0
368144,note_on,30,0,15,,,,,,,,,14,,,,43,0
368160,set_tempo,120,1,0,,,,,,279070,,,,,,,,
368160,note_on,30,0,11,,,,,,,,,10,,,,65,112
368162,note_on,0,0,7,,,,,,,,,6,,,,67,112
368162,note_on,240,0,7,,,,,,,,,6,,,,55,112
368163,note_on,30,0,12,,,,,,,,,11,,,,65,112
368168,note_on,30,0,13,,,,,,,,,12,,,,65,112
368172,note_on,30,0,14,,,,,,,,,13,,,,53,112
368174,note_on,30,0,15,,,,,,,,,14,,,,41,112
368175,note_on,240,0,10,,,,,,,,,15,,,,43,100
368190,note_on,30,0,11,,,,,,,,,10,,,,65,0
368193,note_on,30,0,12,,,,,,,,,11,,,,65,0
368198,note_on,30,0,13,,,,,,,,,12,,,,65,0
368202,note_on,30,0,14,,,,,,,,,13,,,,53,0
368204,note_on,30,0,15,,,,,,,,,14,,,,41,0
368220,note_on,30,0,11,,,,,,,,,10,,,,64,112
368223,note_on,30,0,12,,,,,,,,,11,,,,64,112
368228,note_on,30,0,13,,,,,,,,,12,,,,64,112
368232,note_on,30,0,14,,,,,,,,,13,,,,52,112
368234,note_on,30,0,15,,,,,,,,,14,,,,40,112
368250,note_on,30,0,11,,,,,,,,,10,,,,64,0
368253,note_on,30,0,12,,,,,,,,,11,,,,64,0
368258,note_on,30,0,13,,,,,,,,,12,,,,64,0
368262,note_on,30,0,14,,,,,,,,,13,,,,52,0
368264,note_on,30,0,15,,,,,,,,,14,,,,40,0
368280,control_change,0,0,11,,,,,,,,,10,11,122,,,
368280,note_on,30,0,11,,,,,,,,,10,,,,62,112
368280,set_tempo,120,1,0,,,,,,254237,,,,,,,,
368281,note_on,0,0,1,,,,,,,,,0,,,,86,116
368281,note_on,180,0,1,,,,,,,,,0,,,,81,116
368282,note_on,120,0,7,,,,,,,,,6,,,,67,0
368282,note_on,0,0,7,,,,,,,,,6,,,,55,0
368283,note_on,180,0,5,,,,,,,,,4,,,,62,115
368283,note_on,30,0,12,,,,,,,,,11,,,,62,112
368283,control_change,0,0,12,,,,,,,,,11,11,122,,,
368284,note_on,180,0,6,,,,,,,,,5,,,,62,115
368284,note_on,180,0,2,,,,,,,,,1,,,,74,115
368284,note_on,0,0,2,,,,,,,,,1,,,,78,115
368284,control_change,4,0,11,,,,,,,,,10,11,119,,,
368285,note_on,0,0,3,,,,,,,,,2,,,,74,116
368285,note_on,180,0,3,,,,,,,,,2,,,,69,116
368287,control_change,4,0,12,,,,,,,,,11,11,119,,,
368288,control_change,0,0,13,,,,,,,,,12,11,122,,,
368288,note_on,30,0,13,,,,,,,,,12,,,,62,112
368289,note_on,0,0,4,,,,,,,,,3,,,,66,115
368289,control_change,5,0,11,,,,,,,,,10,11,116,,,
368289,note_on,180,0,4,,,,,,,,,3,,,,57,115
368292,control_change,5,0,12,,,,,,,,,11,11,116,,,
368292,control_change,4,0,13,,,,,,,,,12,11,119,,,
368292,control_change,0,0,14,,,,,,,,,13,11,122,,,
368292,note_on,30,0,14,,,,,,,,,13,,,,50,112
368293,control_change,4,0,11,,,,,,,,,10,11,113,,,
368294,control_change,0,0,15,,,,,,,,,14,11,122,,,
368294,note_on,30,0,15,,,,,,,,,14,,,,38,112
368295,note_on,120,0,10,,,,,,,,,15,,,,43,0
368296,control_change,4,0,14,,,,,,,,,13,11,119,,,
368296,control_change,4,0,12,,,,,,,,,11,11,113,,,
368297,control_change,5,0,13,,,,,,,,,12,11,116,,,
368298,control_change,4,0,15,,,,,,,,,14,11,119,,,
368298,control_change,5,0,11,,,,,,,,,10,11,110,,,
368301,control_change,4,0,13,,,,,,,,,12,11,113,,,
368301,control_change,5,0,14,,,,,,,,,13,11,116,,,
368301,control_change,5,0,12,,,,,,,,,11,11,110,,,
368302,control_change,4,0,11,,,,,,,,,10,11,107,,,
368303,control_change,5,0,15,,,,,,,,,14,11,116,,,
368305,control_change,4,0,12,,,,,,,,,11,11,107,,,
368305,control_change,4,0,14,,,,,,,,,13,11,113,,,
368306,control_change,5,0,13,,,,,,,,,12,11,110,,,
368307,control_change,5,0,11,,,,,,,,,10,11,104,,,
368307,control_change,4,0,15,,,,,,,,,14,11,113,,,
368310,control_change,5,0,12,,,,,,,,,11,11,104,,,
368310,control_change,5,0,14,,,,,,,,,13,11,110,,,
368310,control_change,4,0,13,,,,,,,,,12,11,107,,,
368310,note_on,3,0,11,,,,,,,,,10,,,,62,0
368312,control_change,5,0,15,,,,,,,,,14,11,110,,,
368313,note_on,3,0,12,,,,,,,,,11,,,,62,0
368314,control_change,4,0,14,,,,,,,,,13,11,107,,,
368315,control_change,5,0,13,,,,,,,,,12,11,104,,,
368316,control_change,4,0,15,,,,,,,,,14,11,107,,,
368318,note_on,3,0,13,,,,,,,,,12,,,,62,0
368319,control_change,5,0,14,,,,,,,,,13,11,104,,,
368321,control_change,5,0,15,,,,,,,,,14,11,104,,,
368322,note_on,3,0,14,,,,,,,,,13,,,,50,0
368324,note_on,3,0,15,,,,,,,,,14,,,,38,0
368340,note_on,30,0,11,,,,,,,,,10,,,,62,112
368341,note_on,0,0,1,,,,,,,,,0,,,,81,0
368341,note_on,60,0,1,,,,,,,,,0,,,,86,0
368343,note_on,60,0,5,,,,,,,,,4,,,,62,0
368343,note_on,30,0,12,,,,,,,,,11,,,,62,112
368344,note_on,60,0,6,,,,,,,,,5,,,,62,0
368344,note_on,0,0,2,,,,,,,,,1,,,,74,0
368344,note_on,60,0,2,,,,,,,,,1,,,,78,0
368345,note_on,60,0,3,,,,,,,,,2,,,,74,0
368345,note_on,0,0,3,,,,,,,,,2,,,,69,0
368348,note_on,30,0,13,,,,,,,,,12,,,,62,112
368349,note_on,0,0,4,,,,,,,,,3,,,,57,0
368349,note_on,60,0,4,,,,,,,,,3,,,,66,0
368352,note_on,30,0,14,,,,,,,,,13,,,,50,112
368354,note_on,30,0,15,,,,,,,,,14,,,,38,112
368370,note_on,30,0,11,,,,,,,,,10,,,,62,0
368373,note_on,30,0,12,,,,,,,,,11,,,,62,0
368378,note_on,30,0,13,,,,,,,,,12,,,,62,0
368382,note_on,30,0,14,,,,,,,,,13,,,,50,0
368384,note_on,30,0,15,,,,,,,,,14,,,,38,0
368400,set_tempo,120,1,0,,,,,,263158,,,,,,,,
368400,note_on,30,0,11,,,,,,,,,10,,,,61,112
368401,note_on,60,0,1,,,,,,,,,0,,,,81,101
368401,note_on,0,0,1,,,,,,,,,0,,,,86,101
368403,note_on,30,0,12,,,,,,,,,11,,,,61,112
368403,note_on,60,0,5,,,,,,,,,4,,,,62,100
368404,note_on,60,0,2,,,,,,,,,1,,,,74,100
368404,note_on,0,0,2,,,,,,,,,1,,,,77,100
368404,note_on,60,0,6,,,,,,,,,5,,,,62,100
368405,note_on,60,0,3,,,,,,,,,2,,,,69,101
368405,note_on,0,0,3,,,,,,,,,2,,,,74,101
368408,note_on,30,0,13,,,,,,,,,12,,,,61,112
368409,note_on,0,0,4,,,,,,,,,3,,,,65,100
368409,note_on,60,0,4,,,,,,,,,3,,,,57,100
368412,note_on,30,0,14,,,,,,,,,13,,,,49,112
368414,note_on,30,0,15,,,,,,,,,14,,,,37,112
368430,note_on,30,0,11,,,,,,,,,10,,,,61,0
368433,note_on,30,0,12,,,,,,,,,11,,,,61,0
368438,note_on,30,0,13,,,,,,,,,12,,,,61,0
368442,note_on,30,0,14,,,,,,,,,13,,,,49,0
368444,note_on,30,0,15,,,,,,,,,14,,,,37,0
368460,note_on,30,0,11,,,,,,,,,10,,,,62,112
368461,note_on,60,0,1,,,,,,,,,0,,,,86,0
368461,note_on,0,0,1,,,,,,,,,0,,,,81,0
368463,note_on,60,0,5,,,,,,,,,4,,,,62,0
368463,note_on,30,0,12,,,,,,,,,11,,,,62,112
368464,note_on,0,0,2,,,,,,,,,1,,,,74,0
368464,note_on,60,0,2,,,,,,,,,1,,,,77,0
368464,note_on,60,0,6,,,,,,,,,5,,,,62,0
368465,note_on,0,0,3,,,,,,,,,2,,,,69,0
368465,note_on,60,0,3,,,,,,,,,2,,,,74,0
368468,note_on,30,0,13,,,,,,,,,12,,,,62,112
368469,note_on,60,0,4,,,,,,,,,3,,,,65,0
368469,note_on,0,0,4,,,,,,,,,3,,,,57,0
368472,note_on,30,0,14,,,,,,,,,13,,,,50,112
368474,note_on,30,0,15,,,,,,,,,14,,,,38,112
368490,note_on,30,0,11,,,,,,,,,10,,,,62,0
368493,note_on,30,0,12,,,,,,,,,11,,,,62,0
368498,note_on,30,0,13,,,,,,,,,12,,,,62,0
368502,note_on,30,0,14,,,,,,,,,13,,,,50,0
368504,note_on,30,0,15,,,,,,,,,14,,,,38,0
368520,set_tempo,120,1,0,,,,,,278422,,,,,,,,
368520,note_on,30,0,11,,,,,,,,,10,,,,60,112
368523,note_on,30,0,12,,,,,,,,,11,,,,60,112
368527,note_on,0,0,8,,,,,,,,,7,,,,62,110
368527,note_on,960,0,8,,,,,,,,,7,,,,50,110
368528,note_on,30,0,13,,,,,,,,,12,,,,60,112
368532,note_on,30,0,14,,,,,,,,,13,,,,48,112
368533,note_on,960,0,9,,,,,,,,,8,,,,50,110
368534,note_on,30,0,15,,,,,,,,,14,,,,36,112
368550,note_on,30,0,11,,,,,,,,,10,,,,60,0
368553,note_on,30,0,12,,,,,,,,,11,,,,60,0
368558,note_on,30,0,13,,,,,,,,,12,,,,60,0
368562,note_on,30,0,14,,,,,,,,,13,,,,48,0
368564,note_on,30,0,15,,,,,,,,,14,,,,36,0
368580,note_on,30,0,11,,,,,,,,,10,,,,59,112
368583,note_on,30,0,12,,,,,,,,,11,,,,59,112
368588,note_on,30,0,13,,,,,,,,,12,,,,59,112
368592,note_on,30,0,14,,,,,,,,,13,,,,47,112
368594,note_on,30,0,15,,,,,,,,,14,,,,35,112
368610,note_on,30,0,11,,,,,,,,,10,,,,59,0
368613,note_on,30,0,12,,,,,,,,,11,,,,59,0
368618,note_on,30,0,13,,,,,,,,,12,,,,59,0
368622,note_on,30,0,14,,,,,,,,,13,,,,47,0
368624,note_on,30,0,15,,,,,,,,,14,,,,35,0
368640,note_on,0,0,11,,,,,,,,,10,,,,57,112
368640,control_change,30,0,11,,,,,,,,,10,11,122,,,
368640,set_tempo,120,1,0,,,,,,254237,,,,,,,,
368641,note_on,0,0,1,,,,,,,,,0,,,,88,116
368641,note_on,180,0,1,,,,,,,,,0,,,,85,116
368643,note_on,180,0,5,,,,,,,,,4,,,,64,115
368643,note_on,30,0,12,,,,,,,,,11,,,,57,112
368643,control_change,0,0,12,,,,,,,,,11,11,122,,,
368644,note_on,180,0,2,,,,,,,,,1,,,,81,115
368644,note_on,180,0,6,,,,,,,,,5,,,,64,115
368644,control_change,4,0,11,,,,,,,,,10,11,119,,,
368644,note_on,0,0,2,,,,,,,,,1,,,,76,115
368645,note_on,0,0,3,,,,,,,,,2,,,,73,116
368645,note_on,180,0,3,,,,,,,,,2,,,,76,116
368647,control_change,4,0,12,,,,,,,,,11,11,119,,,
368647,note_on,0,0,8,,,,,,,,,7,,,,50,0
368647,note_on,120,0,8,,,,,,,,,7,,,,62,0
368648,note_on,0,0,13,,,,,,,,,12,,,,57,112
368648,control_change,30,0,13,,,,,,,,,12,11,122,,,
368649,control_change,5,0,11,,,,,,,,,10,11,116,,,
368649,note_on,0,0,4,,,,,,,,,3,,,,57,115
368649,note_on,180,0,4,,,,,,,,,3,,,,61,115
368652,control_change,4,0,13,,,,,,,,,12,11,119,,,
368652,note_on,0,0,14,,,,,,,,,13,,,,45,112
368652,control_change,30,0,14,,,,,,,,,13,11,122,,,
368652,control_change,5,0,12,,,,,,,,,11,11,116,,,
368653,note_on,120,0,9,,,,,,,,,8,,,,50,0
368653,control_change,4,0,11,,,,,,,,,10,11,113,,,
368654,control_change,30,0,15,,,,,,,,,14,11,122,,,
368654,note_on,0,0,15,,,,,,,,,14,,,,33,112
368656,control_change,4,0,12,,,,,,,,,11,11,113,,,
368656,control_change,4,0,14,,,,,,,,,13,11,119,,,
368657,control_change,5,0,13,,,,,,,,,12,11,116,,,
368658,control_change,4,0,15,,,,,,,,,14,11,119,,,
368658,control_change,5,0,11,,,,,,,,,10,11,110,,,
368661,control_change,5,0,14,,,,,,,,,13,11,116,,,
368661,control_change,4,0,13,,,,,,,,,12,11,113,,,
368661,control_change,5,0,12,,,,,,,,,11,11,110,,,
368662,control_change,4,0,11,,,,,,,,,10,11,107,,,
368663,control_change,5,0,15,,,,,,,,,14,11,116,,,
368665,control_change,4,0,12,,,,,,,,,11,11,107,,,
368665,control_change,4,0,14,,,,,,,,,13,11,113,,,
368666,control_change,5,0,13,,,,,,,,,12,11,110,,,
368667,control_change,5,0,11,,,,,,,,,10,11,104,,,
368667,control_change,4,0,15,,,,,,,,,14,11,113,,,
368670,control_change,4,0,13,,,,,,,,,12,11,107,,,
368670,control_change,5,0,14,,,,,,,,,13,11,110,,,
368670,control_change,5,0,12,,,,,,,,,11,11,104,,,
368670,note_on,3,0,11,,,,,,,,,10,,,,57,0
368672,control_change,5,0,15,,,,,,,,,14,11,110,,,
368673,note_on,3,0,12,,,,,,,,,11,,,,57,0
368674,control_change,4,0,14,,,,,,,,,13,11,107,,,
368675,control_change,5,0,13,,,,,,,,,12,11,104,,,
368676,control_change,4,0,15,,,,,,,,,14,11,107,,,
368678,note_on,3,0,13,,,,,,,,,12,,,,57,0
368679,control_change,5,0,14,,,,,,,,,13,11,104,,,
368681,control_change,5,0,15,,,,,,,,,14,11,104,,,
368682,note_on,3,0,14,,,,,,,,,13,,,,45,0
368684,note_on,3,0,15,,,,,,,,,14,,,,33,0
368700,note_on,30,0,11,,,,,,,,,10,,,,69,112
368701,note_on,60,0,1,,,,,,,,,0,,,,88,0
368701,note_on,0,0,1,,,,,,,,,0,,,,85,0
368703,note_on,60,0,5,,,,,,,,,4,,,,64,0
368703,note_on,30,0,12,,,,,,,,,11,,,,69,112
368704,note_on,60,0,6,,,,,,,,,5,,,,64,0
368704,note_on,0,0,2,,,,,,,,,1,,,,81,0
368704,note_on,60,0,2,,,,,,,,,1,,,,76,0
368705,note_on,0,0,3,,,,,,,,,2,,,,76,0
368705,note_on,60,0,3,,,,,,,,,2,,,,73,0
368708,note_on,30,0,13,,,,,,,,,12,,,,69,112
368709,note_on,60,0,4,,,,,,,,,3,,,,57,0
368709,note_on,0,0,4,,,,,,,,,3,,,,61,0
368712,note_on,30,0,14,,,,,,,,,13,,,,57,112
368714,note_on,30,0,15,,,,,,,,,14,,,,45,112
368730,note_on,30,0,11,,,,,,,,,10,,,,69,0
368733,note_on,30,0,12,,,,,,,,,11,,,,69,0
368738,note_on,30,0,13,,,,,,,,,12,,,,69,0
368742,note_on,30,0,14,,,,,,,,,13,,,,57,0
368744,note_on,30,0,15,,,,,,,,,14,,,,45,0
368760,note_on,30,0,11,,,,,,,,,10,,,,68,112
368760,set_tempo,120,1,0,,,,,,263158,,,,,,,,
368761,note_on,0,0,1,,,,,,,,,0,,,,84,101
368761,note_on,60,0,1,,,,,,,,,0,,,,88,101
368763,note_on,60,0,5,,,,,,,,,4,,,,64,100
368763,note_on,30,0,12,,,,,,,,,11,,,,68,112
368764,note_on,0,0,2,,,,,,,,,1,,,,76,100
368764,note_on,60,0,2,,,,,,,,,1,,,,81,100
368764,note_on,60,0,6,,,,,,,,,5,,,,64,100
368765,note_on,60,0,3,,,,,,,,,2,,,,72,101
368765,note_on,0,0,3,,,,,,,,,2,,,,76,101
368768,note_on,30,0,13,,,,,,,,,12,,,,68,112
368769,note_on,0,0,4,,,,,,,,,3,,,,60,100
368769,note_on,60,0,4,,,,,,,,,3,,,,57,100
368772,note_on,30,0,14,,,,,,,,,13,,,,56,112
368774,note_on,30,0,15,,,,,,,,,14,,,,44,112
368790,note_on,30,0,11,,,,,,,,,10,,,,68,0
368793,note_on,30,0,12,,,,,,,,,11,,,,68,0
368798,note_on,30,0,13,,,,,,,,,12,,,,68,0
368802,note_on,30,0,14,,,,,,,,,13,,,,56,0
368804,note_on,30,0,15,,,,,,,,,14,,,,44,0
368820,note_on,30,0,11,,,,,,,,,10,,,,69,112
368821,note_on,60,0,1,,,,,,,,,0,,,,84,0
368821,note_on,0,0,1,,,,,,,,,0,,,,88,0
368823,note_on,30,0,12,,,,,,,,,11,,,,69,112
368823,note_on,60,0,5,,,,,,,,,4,,,,64,0
368824,note_on,60,0,6,,,,,,,,,5,,,,64,0
368824,note_on,60,0,2,,,,,,,,,1,,,,76,0
368824,note_on,0,0,2,,,,,,,,,1,,,,81,0
368825,note_on,0,0,3,,,,,,,,,2,,,,72,0
368825,note_on,60,0,3,,,,,,,,,2,,,,76,0
368828,note_on,30,0,13,,,,,,,,,12,,,,69,112
368829,note_on,0,0,4,,,,,,,,,3,,,,57,0
368829,note_on,60,0,4,,,,,,,,,3,,,,60,0
368832,note_on,30,0,14,,,,,,,,,13,,,,57,112
368834,note_on,30,0,15,,,,,,,,,14,,,,45,112
368850,note_on,30,0,11,,,,,,,,,10,,,,69,0
368853,note_on,30,0,12,,,,,,,,,11,,,,69,0
368858,note_on,30,0,13,,,,,,,,,12,,,,69,0
368862,note_on,30,0,14,,,,,,,,,13,,,,57,0
368864,note_on,30,0,15,,,,,,,,,14,,,,45,0
368880,set_tempo,120,1,0,,,,,,279070,,,,,,,,
368880,note_on,30,0,11,,,,,,,,,10,,,,67,112
368883,note_on,30,0,12,,,,,,,,,11,,,,67,112
368887,note_on,240,0,8,,,,,,,,,7,,,,57,110
368888,note_on,30,0,13,,,,,,,,,12,,,,67,112
368892,note_on,30,0,14,,,,,,,,,13,,,,55,112
368893,note_on,240,0,9,,,,,,,,,8,,,,45,110
368894,note_on,30,0,15,,,,,,,,,14,,,,43,112
368910,note_on,30,0,11,,,,,,,,,10,,,,67,0
368913,note_on,30,0,12,,,,,,,,,11,,,,67,0
368918,note_on,30,0,13,,,,,,,,,12,,,,67,0
368922,note_on,30,0,14,,,,,,,,,13,,,,55,0
368924,note_on,30,0,15,,,,,,,,,14,,,,43,0
368940,note_on,30,0,11,,,,,,,,,10,,,,65,112
368943,note_on,30,0,12,,,,,,,,,11,,,,65,112
368948,note_on,30,0,13,,,,,,,,,12,,,,65,112
368952,note_on,30,0,14,,,,,,,,,13,,,,53,112
368954,note_on,30,0,15,,,,,,,,,14,,,,41,112
368970,note_on,30,0,11,,,,,,,,,10,,,,65,0
368973,note_on,30,0,12,,,,,,,,,11,,,,65,0
368978,note_on,30,0,13,,,,,,,,,12,,,,65,0
368982,note_on,30,0,14,,,,,,,,,13,,,,53,0
368984,note_on,30,0,15,,,,,,,,,14,,,,41,0
369000,control_change,30,0,11,,,,,,,,,10,11,122,,,
369000,set_tempo,120,1,0,,,,,,254237,,,,,,,,
369000,note_on,0,0,11,,,,,,,,,10,,,,64,112
369001,note_on,0,0,1,,,,,,,,,0,,,,83,116
369001,note_on,180,0,1,,,,,,,,,0,,,,88,116
369003,note_on,0,0,12,,,,,,,,,11,,,,64,112
369003,note_on,180,0,5,,,,,,,,,4,,,,64,115
369003,control_change,30,0,12,,,,,,,,,11,11,122,,,
369004,note_on,180,0,2,,,,,,,,,1,,,,76,115
369004,note_on,0,0,2,,,,,,,,,1,,,,80,115
369004,note_on,180,0,6,,,,,,,,,5,,,,52,115
369004,control_change,4,0,11,,,,,,,,,10,11,119,,,
369005,note_on,180,0,3,,,,,,,,,2,,,,71,116
369005,note_on,0,0,3,,,,,,,,,2,,,,68,116
369007,note_on,120,0,8,,,,,,,,,7,,,,57,0
369007,control_change,4,0,12,,,,,,,,,11,11,119,,,
369008,note_on,30,0,13,,,,,,,,,12,,,,64,112
369008,control_change,0,0,13,,,,,,,,,12,11,122,,,
369009,note_on,180,0,4,,,,,,,,,3,,,,59,115
369009,note_on,0,0,4,,,,,,,,,3,,,,56,115
369009,control_change,5,0,11,,,,,,,,,10,11,116,,,
369012,note_on,30,0,14,,,,,,,,,13,,,,52,112
369012,control_change,0,0,14,,,,,,,,,13,11,122,,,
369012,control_change,4,0,13,,,,,,,,,12,11,119,,,
369012,control_change,5,0,12,,,,,,,,,11,11,116,,,
369013,control_change,4,0,11,,,,,,,,,10,11,113,,,
369013,note_on,120,0,9,,,,,,,,,8,,,,45,0
369014,control_change,30,0,15,,,,,,,,,14,11,122,,,
369014,note_on,0,0,15,,,,,,,,,14,,,,40,112
369016,control_change,4,0,12,,,,,,,,,11,11,113,,,
369016,control_change,4,0,14,,,,,,,,,13,11,119,,,
369017,control_change,5,0,13,,,,,,,,,12,11,116,,,
369018,control_change,5,0,11,,,,,,,,,10,11,110,,,
369018,control_change,4,0,15,,,,,,,,,14,11,119,,,
369021,control_change,5,0,12,,,,,,,,,11,11,110,,,
369021,control_change,5,0,14,,,,,,,,,13,11,116,,,
369021,control_change,4,0,13,,,,,,,,,12,11,113,,,
369022,control_change,4,0,11,,,,,,,,,10,11,107,,,
369023,control_change,5,0,15,,,,,,,,,14,11,116,,,
369025,control_change,4,0,12,,,,,,,,,11,11,107,,,
369025,control_change,4,0,14,,,,,,,,,13,11,113,,,
369026,control_change,5,0,13,,,,,,,,,12,11,110,,,
369027,control_change,5,0,11,,,,,,,,,10,11,104,,,
369027,control_change,4,0,15,,,,,,,,,14,11,113,,,
369030,control_change,4,0,13,,,,,,,,,12,11,107,,,
369030,note_on,3,0,11,,,,,,,,,10,,,,64,0
369030,control_change,5,0,14,,,,,,,,,13,11,110,,,
369030,control_change,5,0,12,,,,,,,,,11,11,104,,,
369032,control_change,5,0,15,,,,,,,,,14,11,110,,,
369033,note_on,3,0,12,,,,,,,,,11,,,,64,0
369034,control_change,4,0,14,,,,,,,,,13,11,107,,,
369035,control_change,5,0,13,,,,,,,,,12,11,104,,,
369036,control_change,4,0,15,,,,,,,,,14,11,107,,,
369038,note_on,3,0,13,,,,,,,,,12,,,,64,0
369039,control_change,5,0,14,,,,,,,,,13,11,104,,,
369041,control_change,5,0,15,,,,,,,,,14,11,104,,,
369042,note_on,3,0,14,,,,,,,,,13,,,,52,0
369044,note_on,3,0,15,,,,,,,,,14,,,,40,0
369060,note_on,30,0,11,,,,,,,,,10,,,,64,112
369061,note_on,60,0,1,,,,,,,,,0,,,,83,0
369061,note_on,0,0,1,,,,,,,,,0,,,,88,0
369063,note_on,30,0,12,,,,,,,,,11,,,,64,112
369064,note_on,0,0,2,,,,,,,,,1,,,,76,0
369064,note_on,60,0,2,,,,,,,,,1,,,,80,0
369065,note_on,0,0,3,,,,,,,,,2,,,,71,0
369065,note_on,60,0,3,,,,,,,,,2,,,,68,0
369068,note_on,30,0,13,,,,,,,,,12,,,,64,112
369069,note_on,60,0,4,,,,,,,,,3,,,,56,0
369069,note_on,0,0,4,,,,,,,,,3,,,,59,0
369072,note_on,30,0,14,,,,,,,,,13,,,,52,112
369074,note_on,30,0,15,,,,,,,,,14,,,,40,112
369090,note_on,30,0,11,,,,,,,,,10,,,,64,0
369093,note_on,30,0,12,,,,,,,,,11,,,,64,0
369098,note_on,30,0,13,,,,,,,,,12,,,,64,0
369102,note_on,30,0,14,,,,,,,,,13,,,,52,0
369104,note_on,30,0,15,,,,,,,,,14,,,,40,0
369113,note_on,110,0,5,,,,,,,,,4,,,,64,0
369114,note_on,110,0,6,,,,,,,,,5,,,,52,0
369120,note_on,30,0,11,,,,,,,,,10,,,,65,112
369120,set_tempo,120,1,0,,,,,,263158,,,,,,,,
369121,note_on,60,0,1,,,,,,,,,0,,,,88,101
369121,note_on,0,0,1,,,,,,,,,0,,,,83,101
369123,note_on,10,0,5,,,,,,,,,4,,,,64,100
369123,note_on,30,0,12,,,,,,,,,11,,,,65,112
369124,note_on,0,0,2,,,,,,,,,1,,,,76,100
369124,note_on,60,0,2,,,,,,,,,1,,,,80,100
369124,note_on,10,0,6,,,,,,,,,5,,,,52,100
369125,note_on,0,0,3,,,,,,,,,2,,,,68,101
369125,note_on,60,0,3,,,,,,,,,2,,,,71,101
369128,note_on,30,0,13,,,,,,,,,12,,,,65,112
369129,note_on,60,0,4,,,,,,,,,3,,,,59,100
369129,note_on,0,0,4,,,,,,,,,3,,,,56,100
369132,note_on,30,0,14,,,,,,,,,13,,,,53,112
369134,note_on,30,0,15,,,,,,,,,14,,,,41,112
369150,note_on,30,0,11,,,,,,,,,10,,,,65,0
369153,note_on,30,0,12,,,,,,,,,11,,,,65,0
369158,note_on,30,0,13,,,,,,,,,12,,,,65,0
369162,note_on,30,0,14,,,,,,,,,13,,,,53,0
369164,note_on,30,0,15,,,,,,,,,14,,,,41,0
369180,note_on,30,0,11,,,,,,,,,10,,,,64,112
369181,note_on,0,0,1,,,,,,,,,0,,,,88,0
369181,note_on,60,0,1,,,,,,,,,0,,,,83,0
369183,note_on,30,0,12,,,,,,,,,11,,,,64,112
369184,note_on,60,0,2,,,,,,,,,1,,,,76,0
369184,note_on,0,0,2,,,,,,,,,1,,,,80,0
369185,note_on,0,0,3,,,,,,,,,2,,,,71,0
369185,note_on,60,0,3,,,,,,,,,2,,,,68,0
369188,note_on,30,0,13,,,,,,,,,12,,,,64,112
369189,note_on,60,0,4,,,,,,,,,3,,,,56,0
369189,note_on,0,0,4,,,,,,,,,3,,,,59,0
369192,note_on,30,0,14,,,,,,,,,13,,,,52,112
369194,note_on,30,0,15,,,,,,,,,14,,,,40,112
369210,note_on,30,0,11,,,,,,,,,10,,,,64,0
369213,note_on,30,0,12,,,,,,,,,11,,,,64,0
369218,note_on,30,0,13,,,,,,,,,12,,,,64,0
369222,note_on,30,0,14,,,,,,,,,13,,,,52,0
369224,note_on,30,0,15,,,,,,,,,14,,,,40,0
369233,note_on,110,0,5,,,,,,,,,4,,,,64,0
369234,note_on,110,0,6,,,,,,,,,5,,,,52,0
369240,set_tempo,120,1,0,,,,,,279070,,,,,,,,
369240,note_on,30,0,11,,,,,,,,,10,,,,65,112
369241,note_on,0,0,1,,,,,,,,,0,,,,88,101
369241,note_on,60,0,1,,,,,,,,,0,,,,83,101
369243,note_on,10,0,5,,,,,,,,,4,,,,64,100
369243,note_on,30,0,12,,,,,,,,,11,,,,65,112
369244,note_on,0,0,2,,,,,,,,,1,,,,76,100
369244,note_on,60,0,2,,,,,,,,,1,,,,80,100
369244,note_on,10,0,6,,,,,,,,,5,,,,52,100
369245,note_on,0,0,3,,,,,,,,,2,,,,71,101
369245,note_on,60,0,3,,,,,,,,,2,,,,68,101
369248,note_on,30,0,13,,,,,,,,,12,,,,65,112
369249,note_on,60,0,4,,,,,,,,,3,,,,59,100
369249,note_on,0,0,4,,,,,,,,,3,,,,56,100
369252,note_on,30,0,14,,,,,,,,,13,,,,53,112
369254,note_on,30,0,15,,,,,,,,,14,,,,41,112
369270,note_on,30,0,11,,,,,,,,,10,,,,65,0
369273,note_on,30,0,12,,,,,,,,,11,,,,65,0
369278,note_on,30,0,13,,,,,,,,,12,,,,65,0
369282,note_on,30,0,14,,,,,,,,,13,,,,53,0
369284,note_on,30,0,15,,,,,,,,,14,,,,41,0
369300,note_on,30,0,11,,,,,,,,,10,,,,64,112
369301,note_on,0,0,1,,,,,,,,,0,,,,83,0
369301,note_on,60,0,1,,,,,,,,,0,,,,88,0
369303,note_on,30,0,12,,,,,,,,,11,,,,64,112
369304,note_on,60,0,2,,,,,,,,,1,,,,76,0
369304,note_on,0,0,2,,,,,,,,,1,,,,80,0
369305,note_on,60,0,3,,,,,,,,,2,,,,71,0
369305,note_on,0,0,3,,,,,,,,,2,,,,68,0
369308,note_on,30,0,13,,,,,,,,,12,,,,64,112
369309,note_on,0,0,4,,,,,,,,,3,,,,59,0
369309,note_on,60,0,4,,,,,,,,,3,,,,56,0
369312,note_on,30,0,14,,,,,,,,,13,,,,52,112
369314,note_on,30,0,15,,,,,,,,,14,,,,40,112
369330,note_on,30,0,11,,,,,,,,,10,,,,64,0
369333,note_on,30,0,12,,,,,,,,,11,,,,64,0
369338,note_on,30,0,13,,,,,,,,,12,,,,64,0
369342,note_on,30,0,14,,,,,,,,,13,,,,52,0
369344,note_on,30,0,15,,,,,,,,,14,,,,40,0
369353,note_on,110,0,5,,,,,,,,,4,,,,64,0
369354,note_on,110,0,6,,,,,,,,,5,,,,52,0
369360,control_change,0,0,11,,,,,,,,,10,11,122,,,
369360,note_on,30,0,11,,,,,,,,,10,,,,55,112
369360,set_tempo,120,1,0,,,,,,254237,,,,,,,,
369361,note_on,60,0,1,,,,,,,,,0,,,,91,116
369361,note_on,0,0,1,,,,,,,,,0,,,,86,116
369362,note_on,1080,0,7,,,,,,,,,6,,,,67,112
369362,note_on,0,0,7,,,,,,,,,6,,,,55,112
369363,control_change,0,0,12,,,,,,,,,11,11,122,,,
369363,note_on,30,0,12,,,,,,,,,11,,,,55,112
369363,note_on,10,0,5,,,,,,,,,4,,,,67,115
369364,note_on,0,0,2,,,,,,,,,1,,,,77,115
369364,note_on,60,0,2,,,,,,,,,1,,,,83,115
369364,note_on,10,0,6,,,,,,,,,5,,,,55,115
369364,control_change,4,0,11,,,,,,,,,10,11,119,,,
369365,note_on,0,0,3,,,,,,,,,2,,,,71,116
369365,note_on,60,0,3,,,,,,,,,2,,,,79,116
369367,note_on,360,0,8,,,,,,,,,7,,,,59,110
369367,control_change,4,0,12,,,,,,,,,11,11,119,,,
369367,note_on,0,0,8,,,,,,,,,7,,,,62,110
369368,note_on,0,0,13,,,,,,,,,12,,,,55,112
369368,control_change,30,0,13,,,,,,,,,12,11,122,,,
369369,note_on,60,0,4,,,,,,,,,3,,,,65,115
369369,note_on,0,0,4,,,,,,,,,3,,,,62,115
369369,control_change,5,0,11,,,,,,,,,10,11,116,,,
369372,control_change,4,0,13,,,,,,,,,12,11,119,,,
369372,control_change,5,0,12,,,,,,,,,11,11,116,,,
369372,note_on,30,0,14,,,,,,,,,13,,,,43,112
369372,control_change,0,0,14,,,,,,,,,13,11,122,,,
369373,control_change,4,0,11,,,,,,,,,10,11,113,,,
369373,note_on,360,0,9,,,,,,,,,8,,,,55,110
369374,control_change,0,0,15,,,,,,,,,14,11,122,,,
369374,note_on,30,0,15,,,,,,,,,14,,,,31,112
369375,note_on,1080,0,10,,,,,,,,,15,,,,43,100
369376,control_change,4,0,12,,,,,,,,,11,11,113,,,
369376,control_change,4,0,14,,,,,,,,,13,11,119,,,
369377,control_change,5,0,13,,,,,,,,,12,11,116,,,
369378,control_change,5,0,11,,,,,,,,,10,11,110,,,
369378,control_change,4,0,15,,,,,,,,,14,11,119,,,
369381,control_change,5,0,12,,,,,,,,,11,11,110,,,
369381,control_change,4,0,13,,,,,,,,,12,11,113,,,
369381,control_change,5,0,14,,,,,,,,,13,11,116,,,
369382,control_change,4,0,11,,,,,,,,,10,11,107,,,
369383,control_change,5,0,15,,,,,,,,,14,11,116,,,
369385,control_change,4,0,14,,,,,,,,,13,11,113,,,
369385,control_change,4,0,12,,,,,,,,,11,11,107,,,
369386,control_change,5,0,13,,,,,,,,,12,11,110,,,
369387,control_change,5,0,11,,,,,,,,,10,11,104,,,
369387,control_change,4,0,15,,,,,,,,,14,11,113,,,
369390,control_change,5,0,12,,,,,,,,,11,11,104,,,
369390,note_on,3,0,11,,,,,,,,,10,,,,55,0
369390,control_change,5,0,14,,,,,,,,,13,11,110,,,
369390,control_change,4,0,13,,,,,,,,,12,11,107,,,
369392,control_change,5,0,15,,,,,,,,,14,11,110,,,
369393,note_on,3,0,12,,,,,,,,,11,,,,55,0
369394,control_change,4,0,14,,,,,,,,,13,11,107,,,
369395,control_change,5,0,13,,,,,,,,,12,11,104,,,
369396,control_change,4,0,15,,,,,,,,,14,11,107,,,
369398,note_on,3,0,13,,,,,,,,,12,,,,55,0
369399,control_change,5,0,14,,,,,,,,,13,11,104,,,
369401,control_change,5,0,15,,,,,,,,,14,11,104,,,
369402,note_on,3,0,14,,,,,,,,,13,,,,43,0
369404,note_on,3,0,15,,,,,,,,,14,,,,31,0
369420,note_on,30,0,11,,,,,,,,,10,,,,55,112
369421,note_on,60,0,1,,,,,,,,,0,,,,86,0
369421,note_on,0,0,1,,,,,,,,,0,,,,91,0
369423,note_on,30,0,12,,,,,,,,,11,,,,55,112
369424,note_on,0,0,2,,,,,,,,,1,,,,83,0
369424,note_on,60,0,2,,,,,,,,,1,,,,77,0
369425,note_on,0,0,3,,,,,,,,,2,,,,79,0
369425,note_on,60,0,3,,,,,,,,,2,,,,71,0
369428,note_on,30,0,13,,,,,,,,,12,,,,55,112
369429,note_on,60,0,4,,,,,,,,,3,,,,62,0
369429,note_on,0,0,4,,,,,,,,,3,,,,65,0
369432,note_on,30,0,14,,,,,,,,,13,,,,43,112
369434,note_on,30,0,15,,,,,,,,,14,,,,31,112
369450,note_on,30,0,11,,,,,,,,,10,,,,55,0
369453,note_on,30,0,12,,,,,,,,,11,,,,55,0
369458,note_on,30,0,13,,,,,,,,,12,,,,55,0
369462,note_on,30,0,14,,,,,,,,,13,,,,43,0
369464,note_on,30,0,15,,,,,,,,,14,,,,31,0
369472,note_on,110,0,7,,,,,,,,,6,,,,55,0
369472,note_on,0,0,7,,,,,,,,,6,,,,67,0
369473,note_on,110,0,5,,,,,,,,,4,,,,67,0
369474,note_on,110,0,6,,,,,,,,,5,,,,55,0
369477,note_on,0,0,8,,,,,,,,,7,,,,59,0
369477,note_on,110,0,8,,,,,,,,,7,,,,62,0
369480,set_tempo,120,1,0,,,,,,263158,,,,,,,,
369480,note_on,30,0,11,,,,,,,,,10,,,,57,112
369481,note_on,60,0,1,,,,,,,,,0,,,,91,101
369481,note_on,0,0,1,,,,,,,,,0,,,,86,101
369482,note_on,0,0,7,,,,,,,,,6,,,,55,112
369482,note_on,10,0,7,,,,,,,,,6,,,,67,112
369483,note_on,110,0,9,,,,,,,,,8,,,,55,0
369483,note_on,30,0,12,,,,,,,,,11,,,,57,112
369483,note_on,10,0,5,,,,,,,,,4,,,,67,100
369484,note_on,60,0,2,,,,,,,,,1,,,,77,100
369484,note_on,10,0,6,,,,,,,,,5,,,,55,100
369484,note_on,0,0,2,,,,,,,,,1,,,,83,100
369485,note_on,0,0,3,,,,,,,,,2,,,,79,101
369485,note_on,60,0,3,,,,,,,,,2,,,,71,101
369487,note_on,10,0,8,,,,,,,,,7,,,,59,110
369487,note_on,0,0,8,,,,,,,,,7,,,,62,110
369488,note_on,30,0,13,,,,,,,,,12,,,,57,112
369489,note_on,60,0,4,,,,,,,,,3,,,,62,100
369489,note_on,0,0,4,,,,,,,,,3,,,,65,100
369492,note_on,30,0,14,,,,,,,,,13,,,,45,112
369493,note_on,10,0,9,,,,,,,,,8,,,,55,110
369494,note_on,30,0,15,,,,,,,,,14,,,,33,112
369495,note_on,120,0,10,,,,,,,,,15,,,,43,0
369495,note_on,0,0,10,,,,,,,,,15,,,,43,100
369510,note_on,30,0,11,,,,,,,,,10,,,,57,0
369513,note_on,30,0,12,,,,,,,,,11,,,,57,0
369518,note_on,30,0,13,,,,,,,,,12,,,,57,0
369522,note_on,30,0,14,,,,,,,,,13,,,,45,0
369524,note_on,30,0,15,,,,,,,,,14,,,,33,0
369540,note_on,30,0,11,,,,,,,,,10,,,,55,112
369541,note_on,0,0,1,,,,,,,,,0,,,,91,0
369541,note_on,60,0,1,,,,,,,,,0,,,,86,0
369543,note_on,30,0,12,,,,,,,,,11,,,,55,112
369544,note_on,0,0,2,,,,,,,,,1,,,,77,0
369544,note_on,60,0,2,,,,,,,,,1,,,,83,0
369545,note_on,0,0,3,,,,,,,,,2,,,,71,0
369545,note_on,60,0,3,,,,,,,,,2,,,,79,0
369548,note_on,30,0,13,,,,,,,,,12,,,,55,112
369549,note_on,60,0,4,,,,,,,,,3,,,,65,0
369549,note_on,0,0,4,,,,,,,,,3,,,,62,0
369552,note_on,30,0,14,,,,,,,,,13,,,,43,112
369554,note_on,30,0,15,,,,,,,,,14,,,,31,112
369570,note_on,30,0,11,,,,,,,,,10,,,,55,0
369573,note_on,30,0,12,,,,,,,,,11,,,,55,0
369578,note_on,30,0,13,,,,,,,,,12,,,,55,0
369582,note_on,30,0,14,,,,,,,,,13,,,,43,0
369584,note_on,30,0,15,,,,,,,,,14,,,,31,0
369592,note_on,0,0,7,,,,,,,,,6,,,,67,0
369592,note_on,110,0,7,,,,,,,,,6,,,,55,0
369593,note_on,110,0,5,,,,,,,,,4,,,,67,0
369594,note_on,110,0,6,,,,,,,,,5,,,,55,0
369597,note_on,110,0,8,,,,,,,,,7,,,,62,0
369597,note_on,0,0,8,,,,,,,,,7,,,,59,0
369600,set_tempo,120,1,0,,,,,,279070,,,,,,,,
369600,note_on,30,0,11,,,,,,,,,10,,,,57,112
369601,note_on,0,0,1,,,,,,,,,0,,,,91,101
369601,note_on,60,0,1,,,,,,,,,0,,,,86,101
369602,note_on,0,0,7,,,,,,,,,6,,,,55,112
369602,note_on,10,0,7,,,,,,,,,6,,,,67,112
369603,note_on,10,0,5,,,,,,,,,4,,,,67,100
369603,note_on,30,0,12,,,,,,,,,11,,,,57,112
369603,note_on,110,0,9,,,,,,,,,8,,,,55,0
369604,note_on,60,0,2,,,,,,,,,1,,,,83,100
369604,note_on,10,0,6,,,,,,,,,5,,,,55,100
369604,note_on,0,0,2,,,,,,,,,1,,,,77,100
369605,note_on,0,0,3,,,,,,,,,2,,,,79,101
369605,note_on,60,0,3,,,,,,,,,2,,,,71,101
369607,note_on,10,0,8,,,,,,,,,7,,,,62,110
369607,note_on,0,0,8,,,,,,,,,7,,,,59,110
369608,note_on,30,0,13,,,,,,,,,12,,,,57,112
369609,note_on,60,0,4,,,,,,,,,3,,,,65,100
369609,note_on,0,0,4,,,,,,,,,3,,,,62,100
369612,note_on,30,0,14,,,,,,,,,13,,,,45,112
369613,note_on,10,0,9,,,,,,,,,8,,,,55,110
369614,note_on,30,0,15,,,,,,,,,14,,,,33,112
369615,note_on,120,0,10,,,,,,,,,15,,,,43,0
369615,note_on,0,0,10,,,,,,,,,15,,,,43,100
369630,note_on,30,0,11,,,,,,,,,10,,,,57,0
369633,note_on,30,0,12,,,,,,,,,11,,,,57,0
369638,note_on,30,0,13,,,,,,,,,12,,,,57,0
369642,note_on,30,0,14,,,,,,,,,13,,,,45,0
369644,note_on,30,0,15,,,,,,,,,14,,,,33,0
369660,note_on,30,0,11,,,,,,,,,10,,,,55,112
369661,note_on,60,0,1,,,,,,,,,0,,,,91,0
369661,note_on,0,0,1,,,,,,,,,0,,,,86,0
369663,note_on,30,0,12,,,,,,,,,11,,,,55,112
369664,note_on,60,0,2,,,,,,,,,1,,,,77,0
369664,note_on,0,0,2,,,,,,,,,1,,,,83,0
369665,note_on,60,0,3,,,,,,,,,2,,,,79,0
369665,note_on,0,0,3,,,,,,,,,2,,,,71,0
369668,note_on,30,0,13,,,,,,,,,12,,,,55,112
369669,note_on,0,0,4,,,,,,,,,3,,,,65,0
369669,note_on,60,0,4,,,,,,,,,3,,,,62,0
369672,note_on,30,0,14,,,,,,,,,13,,,,43,112
369674,note_on,30,0,15,,,,,,,,,14,,,,31,112
369690,note_on,30,0,11,,,,,,,,,10,,,,55,0
369693,note_on,30,0,12,,,,,,,,,11,,,,55,0
369698,note_on,30,0,13,,,,,,,,,12,,,,55,0
369702,note_on,30,0,14,,,,,,,,,13,,,,43,0
369704,note_on,30,0,15,,,,,,,,,14,,,,31,0
369712,note_on,110,0,7,,,,,,,,,6,,,,55,0
369712,note_on,0,0,7,,,,,,,,,6,,,,67,0
369713,note_on,110,0,5,,,,,,,,,4,,,,67,0
369714,note_on,110,0,6,,,,,,,,,5,,,,55,0
369717,note_on,0,0,8,,,,,,,,,7,,,,62,0
369717,note_on,110,0,8,,,,,,,,,7,,,,59,0
369720,note_on,0,0,11,,,,,,,,,10,,,,60,112
369720,set_tempo,120,1,0,,,,,,254237,,,,,,,,
369720,control_change,30,0,11,,,,,,,,,10,11,122,,,
369721,note_on,60,0,1,,,,,,,,,0,,,,84,101
369722,note_on,0,0,7,,,,,,,,,6,,,,72,112
369722,note_on,10,0,7,,,,,,,,,6,,,,60,112
369723,note_on,30,0,12,,,,,,,,,11,,,,60,112
369723,note_on,10,0,5,,,,,,,,,4,,,,64,100
369723,note_on,110,0,9,,,,,,,,,8,,,,55,0
369723,control_change,0,0,12,,,,,,,,,11,11,122,,,
369724,note_on,60,0,2,,,,,,,,,1,,,,84,100
369724,note_on,0,0,2,,,,,,,,,1,,,,76,100
369724,note_on,10,0,6,,,,,,,,,5,,,,60,100
369725,note_on,0,0,3,,,,,,,,,2,,,,72,101
369725,note_on,60,0,3,,,,,,,,,2,,,,76,101
369727,note_on,10,0,8,,,,,,,,,7,,,,60,110
369727,note_on,0,0,8,,,,,,,,,7,,,,64,110
369728,note_on,0,0,13,,,,,,,,,12,,,,60,112
369728,control_change,30,0,13,,,,,,,,,12,11,122,,,
369729,note_on,0,0,4,,,,,,,,,3,,,,60,100
369729,note_on,60,0,4,,,,,,,,,3,,,,64,100
369729,control_change,9,0,11,,,,,,,,,10,11,119,,,
369732,control_change,9,0,12,,,,,,,,,11,11,119,,,
369732,control_change,30,0,14,,,,,,,,,13,11,122,,,
369732,note_on,0,0,14,,,,,,,,,13,,,,48,112
369733,note_on,10,0,9,,,,,,,,,8,,,,48,110
369734,control_change,0,0,15,,,,,,,,,14,11,122,,,
369734,note_on,30,0,15,,,,,,,,,14,,,,36,112
369735,note_on,120,0,10,,,,,,,,,15,,,,43,0
369735,note_on,0,0,10,,,,,,,,,15,,,,48,100
369737,control_change,9,0,13,,,,,,,,,12,11,119,,,
369738,control_change,9,0,11,,,,,,,,,10,11,116,,,
369741,control_change,9,0,14,,,,,,,,,13,11,119,,,
369741,control_change,9,0,12,,,,,,,,,11,11,116,,,
369743,control_change,9,0,15,,,,,,,,,14,11,119,,,
369746,control_change,9,0,13,,,,,,,,,12,11,116,,,
369747,control_change,9,0,11,,,,,,,,,10,11,113,,,
369750,control_change,9,0,12,,,,,,,,,11,11,113,,,
369750,control_change,9,0,14,,,,,,,,,13,11,116,,,
369752,control_change,9,0,15,,,,,,,,,14,11,116,,,
369755,control_change,9,0,13,,,,,,,,,12,11,113,,,
369756,control_change,9,0,11,,,,,,,,,10,11,110,,,
369759,control_change,9,0,14,,,,,,,,,13,11,113,,,
369759,control_change,9,0,12,,,,,,,,,11,11,110,,,
369761,control_change,9,0,15,,,,,,,,,14,11,113,,,
369764,control_change,9,0,13,,,,,,,,,12,11,110,,,
369765,control_change,9,0,11,,,,,,,,,10,11,107,,,
369768,control_change,9,0,14,,,,,,,,,13,11,110,,,
369768,control_change,9,0,12,,,,,,,,,11,11,107,,,
369770,control_change,9,0,15,,,,,,,,,14,11,110,,,
369773,control_change,9,0,13,,,,,,,,,12,11,107,,,
369774,control_change,9,0,11,,,,,,,,,10,11,104,,,
369777,control_change,9,0,14,,,,,,,,,13,11,107,,,
369777,control_change,9,0,12,,,,,,,,,11,11,104,,,
369779,control_change,9,0,15,,,,,,,,,14,11,107,,,
369780,note_on,6,0,11,,,,,,,,,10,,,,60,0
369782,control_change,9,0,13,,,,,,,,,12,11,104,,,
369783,note_on,6,0,12,,,,,,,,,11,,,,60,0
369786,control_change,9,0,14,,,,,,,,,13,11,104,,,
369788,note_on,6,0,13,,,,,,,,,12,,,,60,0
369788,control_change,9,0,15,,,,,,,,,14,11,104,,,
369792,note_on,6,0,14,,,,,,,,,13,,,,48,0
369794,note_on,6,0,15,,,,,,,,,14,,,,36,0
369840,set_tempo,120,1,0,,,,,,270270,,,,,,,,
369840,note_on,60,0,11,,,,,,,,,10,,,,60,112
369841,note_on,120,0,1,,,,,,,,,0,,,,84,0
369842,note_on,120,0,7,,,,,,,,,6,,,,72,0
369842,note_on,0,0,7,,,,,,,,,6,,,,60,0
369843,note_on,60,0,12,,,,,,,,,11,,,,60,112
369843,note_on,120,0,5,,,,,,,,,4,,,,64,0
369844,note_on,120,0,2,,,,,,,,,1,,,,76,0
369844,note_on,120,0,6,,,,,,,,,5,,,,60,0
369844,note_on,0,0,2,,,,,,,,,1,,,,84,0
369845,note_on,120,0,3,,,,,,,,,2,,,,72,0
369845,note_on,0,0,3,,,,,,,,,2,,,,76,0
369847,note_on,0,0,8,,,,,,,,,7,,,,60,0
369847,note_on,120,0,8,,,,,,,,,7,,,,64,0
369848,note_on,60,0,13,,,,,,,,,12,,,,60,112
369849,note_on,120,0,4,,,,,,,,,3,,,,60,0
369849,note_on,0,0,4,,,,,,,,,3,,,,64,0
369852,note_on,60,0,14,,,,,,,,,13,,,,48,112
369853,note_on,120,0,9,,,,,,,,,8,,,,48,0
369854,note_on,60,0,15,,,,,,,,,14,,,,36,112
369855,note_on,120,0,10,,,,,,,,,15,,,,48,0
369900,note_on,60,0,11,,,,,,,,,10,,,,60,0
369903,note_on,60,0,12,,,,,,,,,11,,,,60,0
369908,note_on,60,0,13,,,,,,,,,12,,,,60,0
369912,note_on,60,0,14,,,,,,,,,13,,,,48,0
369914,note_on,60,0,15,,,,,,,,,14,,,,36,0
369960,set_tempo,120,1,0,,,,,,286396,,,,,,,,
369960,note_on,60,0,11,,,,,,,,,10,,,,60,112
369963,note_on,60,0,12,,,,,,,,,11,,,,60,112
369968,note_on,60,0,13,,,,,,,,,12,,,,60,112
369972,note_on,60,0,14,,,,,,,,,13,,,,48,112
369974,note_on,60,0,15,,,,,,,,,14,,,,36,112
370020,note_on,60,0,11,,,,,,,,,10,,,,60,0
370023,note_on,60,0,12,,,,,,,,,11,,,,60,0
370028,note_on,60,0,13,,,,,,,,,12,,,,60,0
370032,note_on,60,0,14,,,,,,,,,13,,,,48,0
370034,note_on,60,0,15,,,,,,,,,14,,,,36,0
370080,set_tempo,120,1,0,,,,,,260304,,,,,,,,
370081,note_on,240,0,1,,,,,,,,,0,,,,84,116
370082,note_on,240,0,7,,,,,,,,,6,,,,60,112
370082,note_on,0,0,7,,,,,,,,,6,,,,72,112
370083,note_on,240,0,5,,,,,,,,,4,,,,60,115
370084,note_on,240,0,2,,,,,,,,,1,,,,84,115
370084,note_on,0,0,2,,,,,,,,,1,,,,72,115
370084,note_on,240,0,6,,,,,,,,,5,,,,48,115
370085,note_on,240,0,3,,,,,,,,,2,,,,72,116
370087,note_on,240,0,8,,,,,,,,,7,,,,60,110
370089,note_on,0,0,4,,,,,,,,,3,,,,48,115
370089,note_on,240,0,4,,,,,,,,,3,,,,36,115
370093,note_on,240,0,9,,,,,,,,,8,,,,48,110
370095,note_on,240,0,10,,,,,,,,,15,,,,48,100
370141,note_on,60,0,1,,,,,,,,,0,,,,84,0
370144,note_on,60,0,2,,,,,,,,,1,,,,72,0
370144,note_on,0,0,2,,,,,,,,,1,,,,84,0
370145,note_on,60,0,3,,,,,,,,,2,,,,72,0
370149,note_on,0,0,4,,,,,,,,,3,,,,36,0
370149,note_on,60,0,4,,,,,,,,,3,,,,48,0
370192,note_on,0,0,7,,,,,,,,,6,,,,60,0
370192,note_on,110,0,7,,,,,,,,,6,,,,72,0
370193,note_on,110,0,5,,,,,,,,,4,,,,60,0
370194,note_on,110,0,6,,,,,,,,,5,,,,48,0
370197,note_on,110,0,8,,,,,,,,,7,,,,60,0
370200,set_tempo,120,1,0,,,,,,277136,,,,,,,,
370201,note_on,60,0,1,,,,,,,,,0,,,,84,101
370202,note_on,10,0,7,,,,,,,,,6,,,,60,112
370202,note_on,0,0,7,,,,,,,,,6,,,,72,112
370203,note_on,110,0,9,,,,,,,,,8,,,,48,0
370203,note_on,10,0,5,,,,,,,,,4,,,,60,100
370204,note_on,0,0,2,,,,,,,,,1,,,,84,100
370204,note_on,10,0,6,,,,,,,,,5,,,,48,100
370204,note_on,60,0,2,,,,,,,,,1,,,,72,100
370205,note_on,60,0,3,,,,,,,,,2,,,,72,101
370207,note_on,10,0,8,,,,,,,,,7,,,,60,110
370209,note_on,0,0,4,,,,,,,,,3,,,,48,100
370209,note_on,60,0,4,,,,,,,,,3,,,,36,100
370213,note_on,10,0,9,,,,,,,,,8,,,,48,110
370215,note_on,0,0,10,,,,,,,,,15,,,,48,100
370215,note_on,120,0,10,,,,,,,,,15,,,,48,0
370261,note_on,60,0,1,,,,,,,,,0,,,,84,0
370264,note_on,0,0,2,,,,,,,,,1,,,,72,0
370264,note_on,60,0,2,,,,,,,,,1,,,,84,0
370265,note_on,60,0,3,,,,,,,,,2,,,,72,0
370269,note_on,0,0,4,,,,,,,,,3,,,,36,0
370269,note_on,60,0,4,,,,,,,,,3,,,,48,0
370312,note_on,110,0,7,,,,,,,,,6,,,,72,0
370312,note_on,0,0,7,,,,,,,,,6,,,,60,0
370313,note_on,110,0,5,,,,,,,,,4,,,,60,0
370314,note_on,110,0,6,,,,,,,,,5,,,,48,0
370317,note_on,110,0,8,,,,,,,,,7,,,,60,0
370320,set_tempo,120,1,0,,,,,,331492,,,,,,,,
370321,note_on,60,0,1,,,,,,,,,0,,,,84,101
370322,note_on,0,0,7,,,,,,,,,6,,,,72,112
370322,note_on,10,0,7,,,,,,,,,6,,,,60,112
370323,note_on,10,0,5,,,,,,,,,4,,,,60,100
370323,note_on,110,0,9,,,,,,,,,8,,,,48,0
370324,note_on,0,0,2,,,,,,,,,1,,,,84,100
370324,note_on,60,0,2,,,,,,,,,1,,,,72,100
370324,note_on,10,0,6,,,,,,,,,5,,,,48,100
370325,note_on,60,0,3,,,,,,,,,2,,,,72,101
370327,note_on,10,0,8,,,,,,,,,7,,,,60,110
370329,note_on,60,0,4,,,,,,,,,3,,,,48,100
370329,note_on,0,0,4,,,,,,,,,3,,,,36,100
370333,note_on,10,0,9,,,,,,,,,8,,,,48,110
370335,note_on,0,0,10,,,,,,,,,15,,,,48,100
370335,note_on,120,0,10,,,,,,,,,15,,,,48,0
370381,note_on,60,0,1,,,,,,,,,0,,,,84,0
370384,note_on,0,0,2,,,,,,,,,1,,,,72,0
370384,note_on,60,0,2,,,,,,,,,1,,,,84,0
370385,note_on,60,0,3,,,,,,,,,2,,,,72,0
370389,note_on,0,0,4,,,,,,,,,3,,,,48,0
370389,note_on,60,0,4,,,,,,,,,3,,,,36,0
370432,note_on,110,0,7,,,,,,,,,6,,,,72,0
370432,note_on,0,0,7,,,,,,,,,6,,,,60,0
370433,note_on,110,0,5,,,,,,,,,4,,,,60,0
370434,note_on,110,0,6,,,,,,,,,5,,,,48,0
370437,note_on,110,0,8,,,,,,,,,7,,,,60,0
370440,control_change,0,0,11,,,,,,,,,10,11,122,,,
370440,note_on,0,0,11,,,,,,,,,10,,,,74,112
370440,note_on,0,0,11,,,,,,,,,10,,,,83,112
370440,note_on,420,0,11,,,,,,,,,10,,,,67,112
370440,set_tempo,120,1,0,,,,,,356083,,,,,,,,
370441,control_change,60,0,1,,,,,,,,,0,11,101,,,
370441,note_on,0,0,1,,,,,,,,,0,,,,91,101
370441,note_on,0,0,1,,,,,,,,,0,,,,83,101
370442,note_on,10,0,7,,,,,,,,,6,,,,67,112
370442,note_on,0,0,7,,,,,,,,,6,,,,55,112
370443,control_change,0,0,12,,,,,,,,,11,11,122,,,
370443,note_on,10,0,5,,,,,,,,,4,,,,62,100
370443,control_change,0,0,5,,,,,,,,,4,11,122,,,
370443,note_on,110,0,9,,,,,,,,,8,,,,48,0
370443,note_on,420,0,12,,,,,,,,,11,,,,79,112
370443,note_on,0,0,12,,,,,,,,,11,,,,71,112
370443,note_on,0,0,12,,,,,,,,,11,,,,55,112
370443,note_on,0,0,12,,,,,,,,,11,,,,62,112
370444,control_change,10,0,6,,,,,,,,,5,11,122,,,
370444,control_change,60,0,2,,,,,,,,,1,11,101,,,
370444,note_on,0,0,6,,,,,,,,,5,,,,55,100
370444,note_on,0,0,2,,,,,,,,,1,,,,83,100
370444,note_on,0,0,2,,,,,,,,,1,,,,74,100
370445,note_on,60,0,3,,,,,,,,,2,,,,71,101
370445,note_on,0,0,3,,,,,,,,,2,,,,74,101
370445,control_change,0,0,3,,,,,,,,,2,11,101,,,
370447,program_change,419,0,13,,,,,,,,48,12,,,,,
370447,note_on,10,0,8,,,,,,,,,7,,,,59,110
370447,note_on,0,0,8,,,,,,,,,7,,,,62,110
370448,control_change,0,0,13,,,,,,,,,12,11,122,,,
370448,note_on,0,0,13,,,,,,,,,12,,,,62,112
370448,note_on,0,0,13,,,,,,,,,12,,,,71,112
370448,note_on,1,0,13,,,,,,,,,12,,,,55,112
370449,note_on,0,0,4,,,,,,,,,3,,,,55,100
370449,control_change,9,0,11,,,,,,,,,10,11,119,,,
370449,control_change,0,0,4,,,,,,,,,3,11,117,,,
370449,note_on,60,0,4,,,,,,,,,3,,,,43,100
370450,control_change,9,0,1,,,,,,,,,0,11,98,,,
370452,control_change,0,0,14,,,,,,,,,13,11,122,,,
370452,note_on,420,0,14,,,,,,,,,13,,,,43,112
370452,note_on,0,0,14,,,,,,,,,13,,,,50,112
370452,control_change,9,0,12,,,,,,,,,11,11,119,,,
370452,note_on,0,0,14,,,,,,,,,13,,,,59,112
370452,control_change,9,0,5,,,,,,,,,4,11,119,,,
370453,control_change,9,0,6,,,,,,,,,5,11,119,,,
370453,note_on,10,0,9,,,,,,,,,8,,,,43,110
370453,control_change,9,0,2,,,,,,,,,1,11,98,,,
370454,control_change,9,0,3,,,,,,,,,2,11,98,,,
370454,control_change,420,0,15,,,,,,,,,14,11,122,,,
370454,note_on,0,0,15,,,,,,,,,14,,,,43,112
370455,note_on,120,0,10,,,,,,,,,15,,,,48,0
370455,note_on,0,0,10,,,,,,,,,15,,,,43,100
370457,control_change,9,0,13,,,,,,,,,12,11,119,,,
370458,control_change,9,0,4,,,,,,,,,3,11,114,,,
370458,control_change,9,0,11,,,,,,,,,10,11,116,,,
370461,control_change,9,0,14,,,,,,,,,13,11,119,,,
370461,control_change,9,0,5,,,,,,,,,4,11,116,,,
370461,control_change,9,0,12,,,,,,,,,11,11,116,,,
370462,control_change,9,0,6,,,,,,,,,5,11,116,,,
370463,control_change,9,0,15,,,,,,,,,14,11,119,,,
370466,control_change,9,0,13,,,,,,,,,12,11,116,,,
370467,control_change,9,0,11,,,,,,,,,10,11,113,,,
370467,control_change,9,0,4,,,,,,,,,3,11,111,,,
370468,control_change,18,0,1,,,,,,,,,0,11,94,,,
370470,control_change,9,0,12,,,,,,,,,11,11,113,,,
370470,control_change,9,0,5,,,,,,,,,4,11,113,,,
370470,control_change,9,0,14,,,,,,,,,13,11,116,,,
370471,control_change,18,0,2,,,,,,,,,1,11,94,,,
370471,control_change,9,0,6,,,,,,,,,5,11,113,,,
370472,control_change,18,0,3,,,,,,,,,2,11,94,,,
370472,control_change,9,0,15,,,,,,,,,14,11,116,,,
370475,control_change,9,0,13,,,,,,,,,12,11,113,,,
370476,control_change,9,0,4,,,,,,,,,3,11,108,,,
370476,control_change,9,0,11,,,,,,,,,10,11,110,,,
370479,control_change,9,0,5,,,,,,,,,4,11,110,,,
370479,control_change,9,0,12,,,,,,,,,11,11,110,,,
370479,control_change,9,0,14,,,,,,,,,13,11,113,,,
370480,control_change,9,0,6,,,,,,,,,5,11,110,,,
370481,control_change,9,0,15,,,,,,,,,14,11,113,,,
370484,control_change,9,0,13,,,,,,,,,12,11,110,,,
370485,control_change,9,0,4,,,,,,,,,3,11,105,,,
370485,control_change,9,0,11,,,,,,,,,10,11,107,,,
370486,control_change,18,0,1,,,,,,,,,0,11,89,,,
370488,control_change,9,0,14,,,,,,,,,13,11,110,,,
370488,control_change,9,0,12,,,,,,,,,11,11,107,,,
370488,control_change,9,0,5,,,,,,,,,4,11,107,,,
370489,control_change,18,0,2,,,,,,,,,1,11,89,,,
370489,control_change,9,0,6,,,,,,,,,5,11,107,,,
370490,control_change,18,0,3,,,,,,,,,2,11,89,,,
370490,control_change,9,0,15,,,,,,,,,14,11,110,,,
370493,control_change,9,0,13,,,,,,,,,12,11,107,,,
370494,control_change,9,0,4,,,,,,,,,3,11,102,,,
370494,control_change,9,0,11,,,,,,,,,10,11,104,,,
370497,control_change,9,0,5,,,,,,,,,4,11,104,,,
370497,control_change,9,0,12,,,,,,,,,11,11,104,,,
370497,control_change,9,0,14,,,,,,,,,13,11,107,,,
370498,control_change,9,0,6,,,,,,,,,5,11,104,,,
370499,control_change,9,0,15,,,,,,,,,14,11,107,,,
370502,control_change,9,0,13,,,,,,,,,12,11,104,,,
370503,control_change,9,0,4,,,,,,,,,3,11,99,,,
370506,control_change,9,0,14,,,,,,,,,13,11,104,,,
370508,control_change,9,0,15,,,,,,,,,14,11,104,,,
370560,set_tempo,120,1,0,,,,,,292683,,,,,,,,
370560,note_on,0,0,11,,,,,,,,,10,,,,67,0
370560,note_on,66,0,11,,,,,,,,,10,,,,74,0
370560,note_on,0,0,11,,,,,,,,,10,,,,83,0
370561,note_on,0,0,1,,,,,,,,,0,,,,91,0
370561,note_on,75,0,1,,,,,,,,,0,,,,83,0
370562,note_on,120,0,7,,,,,,,,,6,,,,55,0
370562,note_on,0,0,7,,,,,,,,,6,,,,67,0
370563,note_on,0,0,12,,,,,,,,,11,,,,55,0
370563,note_on,0,0,12,,,,,,,,,11,,,,79,0
370563,note_on,66,0,5,,,,,,,,,4,,,,62,0
370563,note_on,0,0,12,,,,,,,,,11,,,,62,0
370563,note_on,66,0,12,,,,,,,,,11,,,,71,0
370564,note_on,66,0,6,,,,,,,,,5,,,,55,0
370564,note_on,0,0,2,,,,,,,,,1,,,,83,0
370564,note_on,75,0,2,,,,,,,,,1,,,,74,0
370565,note_on,0,0,3,,,,,,,,,2,,,,71,0
370565,note_on,75,0,3,,,,,,,,,2,,,,74,0
370567,note_on,0,0,8,,,,,,,,,7,,,,59,0
370567,note_on,120,0,8,,,,,,,,,7,,,,62,0
370568,note_on,0,0,13,,,,,,,,,12,,,,71,0
370568,note_on,66,0,13,,,,,,,,,12,,,,62,0
370568,note_on,0,0,13,,,,,,,,,12,,,,55,0
370569,note_on,66,0,4,,,,,,,,,3,,,,55,0
370569,note_on,0,0,4,,,,,,,,,3,,,,43,0
370572,note_on,66,0,14,,,,,,,,,13,,,,59,0
370572,note_on,0,0,14,,,,,,,,,13,,,,50,0
370572,note_on,0,0,14,,,,,,,,,13,,,,43,0
370573,note_on,120,0,9,,,,,,,,,8,,,,43,0
370574,note_on,66,0,15,,,,,,,,,14,,,,43,0
370575,note_on,120,0,10,,,,,,,,,15,,,,43,0
370800,note_on,240,0,11,,,,,,,,,10,,,,76,112
370800,note_on,0,0,11,,,,,,,,,10,,,,67,112
370800,note_on,0,0,11,,,,,,,,,10,,,,84,112
370800,control_change,0,0,11,,,,,,,,,10,11,122,,,
370800,set_tempo,240,1,0,,,,,,412371,,,,,,,,
370801,control_change,240,0,1,,,,,,,,,0,11,101,,,
370801,note_on,0,0,1,,,,,,,,,0,,,,84,101
370802,note_on,240,0,7,,,,,,,,,6,,,,60,112
370803,note_on,240,0,12,,,,,,,,,11,,,,76,112
370803,note_on,0,0,12,,,,,,,,,11,,,,60,112
370803,control_change,0,0,12,,,,,,,,,11,11,122,,,
370803,note_on,0,0,12,,,,,,,,,11,,,,67,112
370803,note_on,240,0,5,,,,,,,,,4,,,,64,100
370803,control_change,0,0,5,,,,,,,,,4,11,122,,,
370804,note_on,0,0,6,,,,,,,,,5,,,,60,100
370804,control_change,240,0,6,,,,,,,,,5,11,122,,,
370804,note_on,0,0,2,,,,,,,,,1,,,,84,100
370804,note_on,0,0,2,,,,,,,,,1,,,,76,100
370804,control_change,240,0,2,,,,,,,,,1,11,101,,,
370805,note_on,0,0,3,,,,,,,,,2,,,,76,101
370805,note_on,240,0,3,,,,,,,,,2,,,,72,101
370805,control_change,0,0,3,,,,,,,,,2,11,101,,,
370807,note_on,240,0,8,,,,,,,,,7,,,,60,110
370807,note_on,0,0,8,,,,,,,,,7,,,,64,110
370808,control_change,0,0,13,,,,,,,,,12,11,122,,,
370808,note_on,240,0,13,,,,,,,,,12,,,,64,112
370808,note_on,0,0,13,,,,,,,,,12,,,,48,112
370808,note_on,0,0,13,,,,,,,,,12,,,,55,112
370808,note_on,0,0,13,,,,,,,,,12,,,,72,112
370809,control_change,0,0,4,,,,,,,,,3,11,117,,,
370809,control_change,9,0,11,,,,,,,,,10,11,119,,,
370809,note_on,0,0,4,,,,,,,,,3,,,,36,100
370809,note_on,240,0,4,,,,,,,,,3,,,,48,100
370810,control_change,9,0,1,,,,,,,,,0,11,98,,,
370812,note_on,0,0,14,,,,,,,,,13,,,,36,112
370812,note_on,0,0,14,,,,,,,,,13,,,,60,112
370812,control_change,9,0,12,,,,,,,,,11,11,119,,,
370812,control_change,9,0,5,,,,,,,,,4,11,119,,,
370812,note_on,240,0,14,,,,,,,,,13,,,,43,112
370812,control_change,0,0,14,,,,,,,,,13,11,122,,,
370812,note_on,0,0,14,,,,,,,,,13,,,,52,112
370813,note_on,240,0,9,,,,,,,,,8,,,,48,110
370813,control_change,9,0,6,,,,,,,,,5,11,119,,,
370813,control_change,9,0,2,,,,,,,,,1,11,98,,,
370814,control_change,0,0,15,,,,,,,,,14,11,122,,,
370814,control_change,9,0,3,,,,,,,,,2,11,98,,,
370814,note_on,240,0,15,,,,,,,,,14,,,,36,112
370815,note_on,240,0,10,,,,,,,,,15,,,,48,100
370817,control_change,9,0,13,,,,,,,,,12,11,119,,,
370818,control_change,9,0,11,,,,,,,,,10,11,116,,,
370818,control_change,9,0,4,,,,,,,,,3,11,114,,,
370821,control_change,9,0,12,,,,,,,,,11,11,116,,,
370821,control_change,9,0,5,,,,,,,,,4,11,116,,,
370821,control_change,9,0,14,,,,,,,,,13,11,119,,,
370822,control_change,9,0,6,,,,,,,,,5,11,116,,,
370823,control_change,9,0,15,,,,,,,,,14,11,119,,,
370826,control_change,9,0,13,,,,,,,,,12,11,116,,,
370827,control_change,9,0,4,,,,,,,,,3,11,111,,,
370827,control_change,9,0,11,,,,,,,,,10,11,113,,,
370828,control_change,18,0,1,,,,,,,,,0,11,94,,,
370830,control_change,9,0,5,,,,,,,,,4,11,113,,,
370830,control_change,9,0,14,,,,,,,,,13,11,116,,,
370830,control_change,9,0,12,,,,,,,,,11,11,113,,,
370831,control_change,9,0,6,,,,,,,,,5,11,113,,,
370831,control_change,18,0,2,,,,,,,,,1,11,94,,,
370832,control_change,9,0,15,,,,,,,,,14,11,116,,,
370832,control_change,18,0,3,,,,,,,,,2,11,94,,,
370835,control_change,9,0,13,,,,,,,,,12,11,113,,,
370836,control_change,9,0,4,,,,,,,,,3,11,108,,,
370836,control_change,9,0,11,,,,,,,,,10,11,110,,,
370839,control_change,9,0,14,,,,,,,,,13,11,113,,,
370839,control_change,9,0,5,,,,,,,,,4,11,110,,,
370839,control_change,9,0,12,,,,,,,,,11,11,110,,,
370840,control_change,9,0,6,,,,,,,,,5,11,110,,,
370841,control_change,9,0,15,,,,,,,,,14,11,113,,,
370844,control_change,9,0,13,,,,,,,,,12,11,110,,,
370845,control_change,9,0,11,,,,,,,,,10,11,107,,,
370845,control_change,9,0,4,,,,,,,,,3,11,105,,,
370846,control_change,18,0,1,,,,,,,,,0,11,89,,,
370848,control_change,9,0,12,,,,,,,,,11,11,107,,,
370848,control_change,9,0,5,,,,,,,,,4,11,107,,,
370848,control_change,9,0,14,,,,,,,,,13,11,110,,,
370849,control_change,18,0,2,,,,,,,,,1,11,89,,,
370849,control_change,9,0,6,,,,,,,,,5,11,107,,,
370850,control_change,9,0,15,,,,,,,,,14,11,110,,,
370850,control_change,18,0,3,,,,,,,,,2,11,89,,,
370853,control_change,9,0,13,,,,,,,,,12,11,107,,,
370854,control_change,9,0,11,,,,,,,,,10,11,104,,,
370854,control_change,9,0,4,,,,,,,,,3,11,102,,,
370857,control_change,9,0,14,,,,,,,,,13,11,107,,,
370857,control_change,9,0,5,,,,,,,,,4,11,104,,,
370857,control_change,9,0,12,,,,,,,,,11,11,104,,,
370858,control_change,9,0,6,,,,,,,,,5,11,104,,,
370859,control_change,9,0,15,,,,,,,,,14,11,107,,,
370862,control_change,9,0,13,,,,,,,,,12,11,104,,,
370863,control_change,9,0,4,,,,,,,,,3,11,99,,,
370866,control_change,9,0,14,,,,,,,,,13,11,104,,,
370868,control_change,9,0,15,,,,,,,,,14,11,104,,,
370920,note_on,66,0,11,,,,,,,,,10,,,,67,0
370920,note_on,0,0,11,,,,,,,,,10,,,,84,0
370920,note_on,0,0,11,,,,,,,,,10,,,,76,0
370920,set_tempo,120,1,0,,,,,,400000,,,,,,,,
370920,end_of_track,0,1,0,,,,,,,,,,,,,,
370921,note_on,75,0,1,,,,,,,,,0,,,,84,0
370922,note_on,120,0,7,,,,,,,,,6,,,,60,0
370923,note_on,66,0,12,,,,,,,,,11,,,,67,0
370923,note_on,0,0,12,,,,,,,,,11,,,,60,0
370923,note_on,0,0,12,,,,,,,,,11,,,,76,0
370923,note_on,66,0,5,,,,,,,,,4,,,,64,0
370924,note_on,66,0,6,,,,,,,,,5,,,,60,0
370924,note_on,0,0,2,,,,,,,,,1,,,,76,0
370924,note_on,75,0,2,,,,,,,,,1,,,,84,0
370925,note_on,75,0,3,,,,,,,,,2,,,,76,0
370925,note_on,0,0,3,,,,,,,,,2,,,,72,0
370927,note_on,120,0,8,,,,,,,,,7,,,,64,0
370927,note_on,0,0,8,,,,,,,,,7,,,,60,0
370928,note_on,0,0,13,,,,,,,,,12,,,,64,0
370928,note_on,66,0,13,,,,,,,,,12,,,,72,0
370928,note_on,0,0,13,,,,,,,,,12,,,,48,0
370928,note_on,0,0,13,,,,,,,,,12,,,,55,0
370929,note_on,0,0,4,,,,,,,,,3,,,,48,0
370929,note_on,66,0,4,,,,,,,,,3,,,,36,0
370932,note_on,0,0,14,,,,,,,,,13,,,,60,0
370932,note_on,0,0,14,,,,,,,,,13,,,,43,0
370932,note_on,66,0,14,,,,,,,,,13,,,,36,0
370932,note_on,0,0,14,,,,,,,,,13,,,,52,0
370933,note_on,120,0,9,,,,,,,,,8,,,,48,0
370934,note_on,66,0,15,,,,,,,,,14,,,,36,0
370935,note_on,120,0,10,,,,,,,,,15,,,,48,0
371520,control_change,600,0,11,,,,,,,,,10,121,0,,,
371520,end_of_track,0,1,11,,,,,,,,,,,,,,
371521,control_change,600,0,1,,,,,,,,,0,121,0,,,
371521,end_of_track,0,1,1,,,,,,,,,,,,,,
371522,control_change,600,0,7,,,,,,,,,6,121,0,,,
371522,end_of_track,0,1,7,,,,,,,,,,,,,,
371523,end_of_track,0,1,5,,,,,,,,,,,,,,
371523,control_change,600,0,5,,,,,,,,,4,121,0,,,
371523,control_change,600,0,12,,,,,,,,,11,121,0,,,
371523,end_of_track,0,1,12,,,,,,,,,,,,,,
371524,control_change,600,0,6,,,,,,,,,5,121,0,,,
371524,end_of_track,0,1,6,,,,,,,,,,,,,,
371524,end_of_track,0,1,2,,,,,,,,,,,,,,
371524,control_change,600,0,2,,,,,,,,,1,121,0,,,
371525,end_of_track,0,1,3,,,,,,,,,,,,,,
371525,control_change,600,0,3,,,,,,,,,2,121,0,,,
371527,control_change,600,0,8,,,,,,,,,7,121,0,,,
371527,end_of_track,0,1,8,,,,,,,,,,,,,,
371528,end_of_track,0,1,13,,,,,,,,,,,,,,
371528,control_change,600,0,13,,,,,,,,,12,121,0,,,
371529,control_change,600,0,4,,,,,,,,,3,121,0,,,
371529,end_of_track,0,1,4,,,,,,,,,,,,,,
371532,control_change,600,0,14,,,,,,,,,13,121,0,,,
371532,end_of_track,0,1,14,,,,,,,,,,,,,,
371533,control_change,600,0,9,,,,,,,,,8,121,0,,,
371533,end_of_track,0,1,9,,,,,,,,,,,,,,
371534,end_of_track,0,1,15,,,,,,,,,,,,,,
371534,control_change,600,0,15,,,,,,,,,14,121,0,,,
371535,end_of_track,0,1,10,,,,,,,,,,,,,,
371535,control_change,600,0,10,,,,,,,,,15,121,0,,,
