tick,type,time,meta,track,numerator,denominator,clocks_per_click,notated_32nd_notes_per_beat,key,tempo,port,program,channel,control,value,pitch,note,velocity
0,track_name,0,1,0,,,,,,,,,,,,,,
0,track_name,0,1,6,,,,,,,,,,,,,,
0,program_change,0,0,6,,,,,,,,60,5,,,,,
0,control_change,0,0,6,,,,,,,,,5,10,28,,,
0,midi_port,0,1,7,,,,,,,0,,,,,,,
0,track_name,0,1,7,,,,,,,,,,,,,,
0,program_change,0,0,7,,,,,,,,56,6,,,,,
0,control_change,0,0,7,,,,,,,,,6,10,77,,,
0,midi_port,0,1,8,,,,,,,0,,,,,,,
0,track_name,0,1,8,,,,,,,,,,,,,,
0,program_change,0,0,8,,,,,,,,57,7,,,,,
0,control_change,0,0,8,,,,,,,,,7,10,103,,,
0,midi_port,0,1,9,,,,,,,0,,,,,,,
0,track_name,0,1,9,,,,,,,,,,,,,,
0,program_change,0,0,9,,,,,,,,57,8,,,,,
0,control_change,0,0,9,,,,,,,,,8,10,113,,,
0,midi_port,0,1,6,,,,,,,0,,,,,,,
0,midi_port,0,1,10,,,,,,,0,,,,,,,
0,control_change,0,0,5,,,,,,,,,4,10,24,,,
0,track_name,0,1,5,,,,,,,,,,,,,,
0,program_change,0,0,1,,,,,,,,73,0,,,,,
0,control_change,0,0,1,,,,,,,,,0,10,52,,,
0,midi_port,0,1,2,,,,,,,0,,,,,,,
0,track_name,0,1,2,,,,,,,,,,,,,,
0,program_change,0,0,2,,,,,,,,68,1,,,,,
0,control_change,0,0,2,,,,,,,,,1,10,72,,,
0,midi_port,0,1,3,,,,,,,0,,,,,,,
0,track_name,0,1,3,,,,,,,,,,,,,,
0,program_change,0,0,3,,,,,,,,71,2,,,,,
0,control_change,0,0,3,,,,,,,,,2,10,90,,,
0,midi_port,0,1,4,,,,,,,0,,,,,,,
0,track_name,0,1,4,,,,,,,,,,,,,,
0,program_change,0,0,4,,,,,,,,70,3,,,,,
0,control_change,0,0,4,,,,,,,,,3,10,110,,,
0,midi_port,0,1,5,,,,,,,0,,,,,,,
0,program_change,0,0,5,,,,,,,,60,4,,,,,
0,track_name,0,1,10,,,,,,,,,,,,,,
0,program_change,0,0,10,,,,,,,,47,15,,,,,
0,control_change,0,0,10,,,,,,,,,15,10,97,,,
0,program_change,0,0,15,,,,,,,,48,14,,,,,
0,control_change,0,0,15,,,,,,,,,14,10,127,,,
0,midi_port,0,1,16,,,,,,,0,,,,,,,
0,track_name,0,1,16,,,,,,,,,,,,,,
0,end_of_track,0,1,16,,,,,,,,,,,,,,
0,midi_port,0,1,17,,,,,,,0,,,,,,,
0,track_name,0,1,17,,,,,,,,,,,,,,
0,end_of_track,0,1,17,,,,,,,,,,,,,,
0,midi_port,0,1,18,,,,,,,0,,,,,,,
0,track_name,0,1,18,,,,,,,,,,,,,,
0,end_of_track,0,1,18,,,,,,,,,,,,,,
0,midi_port,0,1,19,,,,,,,0,,,,,,,
0,track_name,0,1,19,,,,,,,,,,,,,,
0,end_of_track,0,1,19,,,,,,,,,,,,,,
0,midi_port,0,1,20,,,,,,,0,,,,,,,
0,track_name,0,1,15,,,,,,,,,,,,,,
0,midi_port,0,1,15,,,,,,,0,,,,,,,
0,control_change,0,0,14,,,,,,,,,13,10,100,,,
0,program_change,0,0,14,,,,,,,,48,13,,,,,
0,track_name,0,1,20,,,,,,,,,,,,,,
0,midi_port,0,1,11,,,,,,,0,,,,,,,
0,track_name,0,1,11,,,,,,,,,,,,,,
0,program_change,0,0,11,,,,,,,,48,10,,,,,
0,control_change,0,0,11,,,,,,,,,10,10,12,,,
0,control_change,0,0,11,,,,,,,,,10,121,0,,,
0,midi_port,0,1,12,,,,,,,0,,,,,,,
0,track_name,0,1,1,,,,,,,,,,,,,,
0,track_name,0,1,12,,,,,,,,,,,,,,
0,control_change,0,0,12,,,,,,,,,11,10,90,,,
0,midi_port,0,1,13,,,,,,,0,,,,,,,
0,track_name,0,1,13,,,,,,,,,,,,,,
0,program_change,0,0,13,,,,,,,,48,12,,,,,
0,control_change,0,0,13,,,,,,,,,12,10,40,,,
0,midi_port,0,1,14,,,,,,,0,,,,,,,
0,track_name,0,1,14,,,,,,,,,,,,,,
0,program_change,0,0,12,,,,,,,,48,11,,,,,
0,midi_port,0,1,1,,,,,,,0,,,,,,,
0,end_of_track,0,1,20,,,,,,,,,,,,,,
0,set_tempo,0,1,0,,,,,,250000,,,,,,,,
0,text,0,1,0,,,,,,,,,,,,,,
0,text,0,1,0,,,,,,,,,,,,,,
0,text,0,1,0,,,,,,,,,,,,,,
0,copyright,0,1,0,,,,,,,,,,,,,,
0,key_signature,0,1,0,,,,,C,,,,,,,,,
0,text,0,1,0,,,,,,,,,,,,,,
0,text,0,1,0,,,,,,,,,,,,,,
0,text,0,1,0,,,,,,,,,,,,,,
0,text,0,1,0,,,,,,,,,,,,,,
0,text,0,1,0,,,,,,,,,,,,,,
0,text,0,1,0,,,,,,,,,,,,,,
0,text,0,1,0,,,,,,,,,,,,,,
0,text,0,1,0,,,,,,,,,,,,,,
0,text,0,1,0,,,,,,,,,,,,,,
0,text,0,1,0,,,,,,,,,,,,,,
0,text,0,1,0,,,,,,,,,,,,,,
0,text,0,1,0,,,,,,,,,,,,,,
0,text,0,1,0,,,,,,,,,,,,,,
0,text,0,1,0,,,,,,,,,,,,,,
0,text,0,1,0,,,,,,,,,,,,,,
0,text,0,1,0,,,,,,,,,,,,,,
0,text,0,1,0,,,,,,,,,,,,,,
0,text,0,1,0,,,,,,,,,,,,,,
0,text,0,1,0,,,,,,,,,,,,,,
0,text,0,1,0,,,,,,,,,,,,,,
0,marker,0,1,0,,,,,,,,,,,,,,
0,track_name,0,1,0,,,,,,,,,,,,,,
0,text,0,1,0,,,,,,,,,,,,,,
0,time_signature,0,1,0,2,4,24,8,,,,,,,,,,
1,control_change,1,0,5,,,,,,,,,4,121,0,,,
1,control_change,1,0,1,,,,,,,,,0,121,0,,,
2,control_change,2,0,12,,,,,,,,,11,121,0,,,
2,control_change,2,0,7,,,,,,,,,6,121,0,,,
2,control_change,2,0,3,,,,,,,,,2,121,0,,,
2,control_change,2,0,2,,,,,,,,,1,121,0,,,
3,control_change,3,0,6,,,,,,,,,5,121,0,,,
4,control_change,4,0,8,,,,,,,,,7,121,0,,,
5,program_change,5,0,11,,,,,,,,48,10,,,,,
5,control_change,5,0,13,,,,,,,,,12,121,0,,,
6,program_change,5,0,1,,,,,,,,73,0,,,,,
6,control_change,6,0,9,,,,,,,,,8,121,0,,,
6,program_change,5,0,5,,,,,,,,60,4,,,,,
7,program_change,5,0,2,,,,,,,,68,1,,,,,
7,program_change,5,0,7,,,,,,,,56,6,,,,,
7,program_change,5,0,12,,,,,,,,48,11,,,,,
7,control_change,7,0,4,,,,,,,,,3,121,0,,,
7,program_change,5,0,3,,,,,,,,71,2,,,,,
7,control_change,7,0,14,,,,,,,,,13,121,0,,,
8,program_change,5,0,6,,,,,,,,60,5,,,,,
8,control_change,8,0,10,,,,,,,,,15,121,0,,,
9,control_change,9,0,15,,,,,,,,,14,121,0,,,
9,program_change,5,0,8,,,,,,,,57,7,,,,,
10,pitchwheel,5,0,11,,,,,,,,,10,,,300,,
10,program_change,5,0,13,,,,,,,,48,12,,,,,
11,pitchwheel,5,0,5,,,,,,,,,4,,,150,,
11,program_change,5,0,9,,,,,,,,57,8,,,,,
11,pitchwheel,5,0,1,,,,,,,,,0,,,0,,
12,program_change,5,0,14,,,,,,,,48,13,,,,,
12,pitchwheel,5,0,7,,,,,,,,,6,,,0,,
12,pitchwheel,5,0,2,,,,,,,,,1,,,0,,
12,pitchwheel,5,0,12,,,,,,,,,11,,,-300,,
12,program_change,5,0,4,,,,,,,,70,3,,,,,
12,pitchwheel,5,0,3,,,,,,,,,2,,,0,,
13,pitchwheel,5,0,6,,,,,,,,,5,,,-150,,
13,program_change,5,0,10,,,,,,,,47,15,,,,,
14,program_change,5,0,15,,,,,,,,48,14,,,,,
14,pitchwheel,5,0,8,,,,,,,,,7,,,0,,
15,pitchwheel,5,0,13,,,,,,,,,12,,,300,,
15,control_change,5,0,11,,,,,,,,,10,11,31,,,
16,control_change,5,0,1,,,,,,,,,0,11,47,,,
16,pitchwheel,5,0,9,,,,,,,,,8,,,0,,
16,control_change,5,0,5,,,,,,,,,4,11,47,,,
17,control_change,5,0,7,,,,,,,,,6,11,47,,,
17,control_change,5,0,2,,,,,,,,,1,11,52,,,
17,control_change,5,0,12,,,,,,,,,11,11,36,,,
17,pitchwheel,5,0,4,,,,,,,,,3,,,0,,
17,pitchwheel,5,0,14,,,,,,,,,13,,,-300,,
17,control_change,5,0,3,,,,,,,,,2,11,52,,,
18,control_change,5,0,6,,,,,,,,,5,11,47,,,
18,pitchwheel,5,0,10,,,,,,,,,15,,,0,,
19,pitchwheel,5,0,15,,,,,,,,,14,,,300,,
19,control_change,5,0,8,,,,,,,,,7,11,47,,,
20,control_change,5,0,13,,,,,,,,,12,11,36,,,
20,control_change,5,0,11,,,,,,,,,10,7,127,,,
21,control_change,5,0,9,,,,,,,,,8,11,47,,,
21,control_change,5,0,5,,,,,,,,,4,7,127,,,
21,control_change,5,0,1,,,,,,,,,0,7,127,,,
22,control_change,5,0,7,,,,,,,,,6,7,127,,,
22,control_change,5,0,3,,,,,,,,,2,7,127,,,
22,control_change,5,0,12,,,,,,,,,11,7,127,,,
22,control_change,5,0,14,,,,,,,,,13,11,50,,,
22,control_change,5,0,4,,,,,,,,,3,11,47,,,
22,control_change,5,0,2,,,,,,,,,1,7,127,,,
23,control_change,5,0,6,,,,,,,,,5,7,127,,,
23,control_change,5,0,10,,,,,,,,,15,11,127,,,
24,control_change,5,0,8,,,,,,,,,7,7,127,,,
24,control_change,5,0,15,,,,,,,,,14,11,50,,,
25,control_change,5,0,13,,,,,,,,,12,7,127,,,
25,control_change,5,0,11,,,,,,,,,10,91,64,,,
26,control_change,5,0,5,,,,,,,,,4,91,106,,,
26,control_change,5,0,1,,,,,,,,,0,91,72,,,
26,control_change,5,0,9,,,,,,,,,8,7,127,,,
27,control_change,5,0,14,,,,,,,,,13,7,127,,,
27,control_change,5,0,12,,,,,,,,,11,91,64,,,
27,control_change,5,0,4,,,,,,,,,3,7,127,,,
27,control_change,5,0,7,,,,,,,,,6,91,106,,,
27,control_change,5,0,3,,,,,,,,,2,91,72,,,
27,control_change,5,0,2,,,,,,,,,1,91,72,,,
28,control_change,5,0,10,,,,,,,,,15,7,127,,,
28,control_change,5,0,6,,,,,,,,,5,91,106,,,
29,control_change,5,0,15,,,,,,,,,14,7,127,,,
29,control_change,5,0,8,,,,,,,,,7,91,106,,,
30,control_change,5,0,13,,,,,,,,,12,91,42,,,
30,control_change,5,0,11,,,,,,,,,10,93,0,,,
31,control_change,5,0,9,,,,,,,,,8,91,106,,,
31,control_change,5,0,5,,,,,,,,,4,93,0,,,
31,control_change,5,0,1,,,,,,,,,0,93,0,,,
32,control_change,5,0,4,,,,,,,,,3,91,89,,,
32,control_change,5,0,7,,,,,,,,,6,93,0,,,
32,control_change,5,0,14,,,,,,,,,13,91,68,,,
32,control_change,5,0,3,,,,,,,,,2,93,0,,,
32,control_change,5,0,12,,,,,,,,,11,93,0,,,
32,control_change,5,0,2,,,,,,,,,1,93,0,,,
33,control_change,5,0,10,,,,,,,,,15,91,119,,,
33,control_change,5,0,6,,,,,,,,,5,93,0,,,
34,control_change,5,0,15,,,,,,,,,14,91,93,,,
34,control_change,5,0,8,,,,,,,,,7,93,0,,,
35,control_change,5,0,13,,,,,,,,,12,93,0,,,
36,control_change,5,0,9,,,,,,,,,8,93,0,,,
37,control_change,5,0,4,,,,,,,,,3,93,0,,,
37,control_change,5,0,14,,,,,,,,,13,93,0,,,
38,control_change,5,0,10,,,,,,,,,15,93,0,,,
39,control_change,5,0,15,,,,,,,,,14,93,0,,,
240,set_tempo,240,1,0,,,,,,1318681,,,,,,,,
240,note_on,210,0,11,,,,,,,,,10,,,,64,97
242,note_on,210,0,12,,,,,,,,,11,,,,60,97
245,note_on,210,0,13,,,,,,,,,12,,,,57,97
247,note_on,0,0,14,,,,,,,,,13,,,,45,97
247,control_change,210,0,14,,,,,,,,,13,11,50,,,
249,note_on,0,0,15,,,,,,,,,14,,,,33,97
249,control_change,210,0,15,,,,,,,,,14,11,41,,,
276,note_on,36,0,11,,,,,,,,,10,,,,64,0
276,note_on,29,0,14,,,,,,,,,13,,,,45,0
278,note_on,29,0,15,,,,,,,,,14,,,,33,0
278,note_on,36,0,12,,,,,,,,,11,,,,60,0
281,note_on,36,0,13,,,,,,,,,12,,,,57,0
300,note_on,24,0,11,,,,,,,,,10,,,,64,112
300,set_tempo,60,1,0,,,,,,1188119,,,,,,,,
302,control_change,24,0,12,,,,,,,,,11,11,31,,,
302,note_on,0,0,12,,,,,,,,,11,,,,60,112
305,control_change,24,0,13,,,,,,,,,12,11,31,,,
305,note_on,0,0,13,,,,,,,,,12,,,,57,112
336,note_on,36,0,11,,,,,,,,,10,,,,64,0
338,note_on,36,0,12,,,,,,,,,11,,,,60,0
341,note_on,36,0,13,,,,,,,,,12,,,,57,0
360,note_on,24,0,11,,,,,,,,,10,,,,64,112
360,set_tempo,60,1,0,,,,,,1237113,,,,,,,,
362,note_on,24,0,12,,,,,,,,,11,,,,60,112
365,note_on,24,0,13,,,,,,,,,12,,,,57,112
396,note_on,36,0,11,,,,,,,,,10,,,,64,0
398,note_on,36,0,12,,,,,,,,,11,,,,60,0
401,note_on,36,0,13,,,,,,,,,12,,,,57,0
420,set_tempo,60,1,0,,,,,,1176471,,,,,,,,
420,note_on,24,0,11,,,,,,,,,10,,,,64,112
422,note_on,24,0,12,,,,,,,,,11,,,,60,112
425,note_on,24,0,13,,,,,,,,,12,,,,57,112
427,note_on,151,0,14,,,,,,,,,13,,,,48,84
429,note_on,151,0,15,,,,,,,,,14,,,,36,84
456,note_on,36,0,11,,,,,,,,,10,,,,64,0
458,note_on,36,0,12,,,,,,,,,11,,,,60,0
460,note_on,33,0,14,,,,,,,,,13,,,,48,0
461,note_on,36,0,13,,,,,,,,,12,,,,57,0
462,note_on,33,0,15,,,,,,,,,14,,,,36,0
480,note_on,24,0,11,,,,,,,,,10,,,,64,112
480,set_tempo,60,1,0,,,,,,1224490,,,,,,,,
480,marker,0,1,0,,,,,,,,,,,,,,
482,note_on,24,0,12,,,,,,,,,11,,,,60,112
485,note_on,24,0,13,,,,,,,,,12,,,,57,112
487,note_on,27,0,14,,,,,,,,,13,,,,45,97
489,note_on,27,0,15,,,,,,,,,14,,,,33,97
516,note_on,36,0,11,,,,,,,,,10,,,,64,0
518,note_on,36,0,12,,,,,,,,,11,,,,60,0
520,note_on,33,0,14,,,,,,,,,13,,,,45,0
521,note_on,36,0,13,,,,,,,,,12,,,,57,0
522,note_on,33,0,15,,,,,,,,,14,,,,33,0
540,note_on,24,0,11,,,,,,,,,10,,,,64,112
540,set_tempo,60,1,0,,,,,,1153846,,,,,,,,
542,note_on,24,0,12,,,,,,,,,11,,,,60,112
545,note_on,24,0,13,,,,,,,,,12,,,,57,112
547,note_on,27,0,14,,,,,,,,,13,,,,48,97
549,note_on,27,0,15,,,,,,,,,14,,,,36,97
576,note_on,36,0,11,,,,,,,,,10,,,,64,0
578,note_on,36,0,12,,,,,,,,,11,,,,60,0
580,note_on,33,0,14,,,,,,,,,13,,,,48,0
581,note_on,36,0,13,,,,,,,,,12,,,,57,0
582,note_on,33,0,15,,,,,,,,,14,,,,36,0
600,set_tempo,60,1,0,,,,,,1212121,,,,,,,,
600,note_on,24,0,11,,,,,,,,,10,,,,64,112
602,note_on,24,0,12,,,,,,,,,11,,,,60,112
605,note_on,24,0,13,,,,,,,,,12,,,,57,112
607,note_on,27,0,14,,,,,,,,,13,,,,50,97
609,note_on,27,0,15,,,,,,,,,14,,,,38,97
636,note_on,36,0,11,,,,,,,,,10,,,,64,0
638,note_on,36,0,12,,,,,,,,,11,,,,60,0
640,note_on,33,0,14,,,,,,,,,13,,,,50,0
641,note_on,36,0,13,,,,,,,,,12,,,,57,0
642,note_on,33,0,15,,,,,,,,,14,,,,38,0
660,set_tempo,60,1,0,,,,,,1153846,,,,,,,,
660,note_on,24,0,11,,,,,,,,,10,,,,64,112
662,note_on,24,0,12,,,,,,,,,11,,,,60,112
665,note_on,24,0,13,,,,,,,,,12,,,,57,112
667,note_on,27,0,14,,,,,,,,,13,,,,52,97
669,note_on,27,0,15,,,,,,,,,14,,,,40,97
696,note_on,36,0,11,,,,,,,,,10,,,,64,0
698,note_on,36,0,12,,,,,,,,,11,,,,60,0
701,note_on,36,0,13,,,,,,,,,12,,,,57,0
702,note_on,35,0,14,,,,,,,,,13,,,,52,0
704,note_on,35,0,15,,,,,,,,,14,,,,40,0
720,note_on,24,0,11,,,,,,,,,10,,,,64,112
720,set_tempo,60,1,0,,,,,,1224490,,,,,,,,
722,note_on,24,0,12,,,,,,,,,11,,,,59,112
725,note_on,24,0,13,,,,,,,,,12,,,,56,112
727,note_on,25,0,14,,,,,,,,,13,,,,52,105
729,note_on,25,0,15,,,,,,,,,14,,,,40,105
756,note_on,36,0,11,,,,,,,,,10,,,,64,0
758,note_on,36,0,12,,,,,,,,,11,,,,59,0
761,note_on,36,0,13,,,,,,,,,12,,,,56,0
780,set_tempo,60,1,0,,,,,,1153846,,,,,,,,
780,note_on,24,0,11,,,,,,,,,10,,,,64,112
782,note_on,24,0,12,,,,,,,,,11,,,,59,112
785,note_on,24,0,13,,,,,,,,,12,,,,56,112
816,note_on,36,0,11,,,,,,,,,10,,,,64,0
818,note_on,36,0,12,,,,,,,,,11,,,,59,0
821,note_on,36,0,13,,,,,,,,,12,,,,56,0
835,note_on,108,0,14,,,,,,,,,13,,,,52,0
837,note_on,108,0,15,,,,,,,,,14,,,,40,0
840,set_tempo,60,1,0,,,,,,1212121,,,,,,,,
840,note_on,24,0,11,,,,,,,,,10,,,,64,112
842,note_on,24,0,12,,,,,,,,,11,,,,60,112
845,note_on,24,0,13,,,,,,,,,12,,,,57,112
847,note_on,12,0,14,,,,,,,,,13,,,,48,97
849,note_on,12,0,15,,,,,,,,,14,,,,36,97
876,note_on,36,0,11,,,,,,,,,10,,,,64,0
878,note_on,36,0,12,,,,,,,,,11,,,,60,0
881,note_on,36,0,13,,,,,,,,,12,,,,57,0
882,note_on,35,0,14,,,,,,,,,13,,,,48,0
884,note_on,35,0,15,,,,,,,,,14,,,,36,0
900,note_on,24,0,11,,,,,,,,,10,,,,64,112
900,set_tempo,60,1,0,,,,,,1153846,,,,,,,,
902,note_on,24,0,12,,,,,,,,,11,,,,60,112
905,note_on,24,0,13,,,,,,,,,12,,,,57,112
907,note_on,25,0,14,,,,,,,,,13,,,,50,97
909,note_on,25,0,15,,,,,,,,,14,,,,38,97
936,note_on,36,0,11,,,,,,,,,10,,,,64,0
938,note_on,36,0,12,,,,,,,,,11,,,,60,0
941,note_on,34,0,14,,,,,,,,,13,,,,50,0
941,note_on,36,0,13,,,,,,,,,12,,,,57,0
943,note_on,34,0,15,,,,,,,,,14,,,,38,0
960,set_tempo,60,1,0,,,,,,1224490,,,,,,,,
960,note_on,24,0,11,,,,,,,,,10,,,,64,112
962,note_on,24,0,12,,,,,,,,,11,,,,59,112
965,note_on,24,0,13,,,,,,,,,12,,,,56,112
967,note_on,26,0,14,,,,,,,,,13,,,,52,105
969,note_on,26,0,15,,,,,,,,,14,,,,40,105
996,note_on,36,0,11,,,,,,,,,10,,,,64,0
998,note_on,36,0,12,,,,,,,,,11,,,,59,0
1001,note_on,36,0,13,,,,,,,,,12,,,,56,0
1020,note_on,24,0,11,,,,,,,,,10,,,,64,112
1020,set_tempo,60,1,0,,,,,,1153846,,,,,,,,
1022,note_on,24,0,12,,,,,,,,,11,,,,59,112
1025,note_on,24,0,13,,,,,,,,,12,,,,56,112
1056,note_on,36,0,11,,,,,,,,,10,,,,64,0
1058,note_on,36,0,12,,,,,,,,,11,,,,59,0
1061,note_on,36,0,13,,,,,,,,,12,,,,56,0
1070,note_on,103,0,14,,,,,,,,,13,,,,52,0
1072,note_on,103,0,15,,,,,,,,,14,,,,40,0
1080,note_on,24,0,11,,,,,,,,,10,,,,64,112
1080,set_tempo,60,1,0,,,,,,1212121,,,,,,,,
1082,note_on,24,0,12,,,,,,,,,11,,,,60,112
1085,note_on,24,0,13,,,,,,,,,12,,,,57,112
1087,note_on,17,0,14,,,,,,,,,13,,,,48,97
1089,note_on,17,0,15,,,,,,,,,14,,,,36,97
1116,note_on,36,0,11,,,,,,,,,10,,,,64,0
1118,note_on,36,0,12,,,,,,,,,11,,,,60,0
1121,note_on,36,0,13,,,,,,,,,12,,,,57,0
1127,note_on,40,0,14,,,,,,,,,13,,,,48,0
1129,note_on,40,0,15,,,,,,,,,14,,,,36,0
1132,note_on,5,0,14,,,,,,,,,13,,,,47,97
1134,note_on,5,0,15,,,,,,,,,14,,,,35,97
1140,set_tempo,60,1,0,,,,,,1153846,,,,,,,,
1140,note_on,24,0,11,,,,,,,,,10,,,,64,112
1142,note_on,10,0,14,,,,,,,,,13,,,,47,0
1142,note_on,24,0,12,,,,,,,,,11,,,,60,112
1144,note_on,10,0,15,,,,,,,,,14,,,,35,0
1145,note_on,24,0,13,,,,,,,,,12,,,,57,112
1147,note_on,5,0,14,,,,,,,,,13,,,,48,97
1149,note_on,5,0,15,,,,,,,,,14,,,,36,97
1176,note_on,36,0,11,,,,,,,,,10,,,,64,0
1178,note_on,36,0,12,,,,,,,,,11,,,,60,0
1181,note_on,36,0,13,,,,,,,,,12,,,,57,0
1187,note_on,40,0,14,,,,,,,,,13,,,,48,0
1189,note_on,40,0,15,,,,,,,,,14,,,,36,0
1192,note_on,5,0,14,,,,,,,,,13,,,,50,97
1194,note_on,5,0,15,,,,,,,,,14,,,,38,97
1200,note_on,24,0,11,,,,,,,,,10,,,,64,112
1200,set_tempo,60,1,0,,,,,,1224490,,,,,,,,
1202,note_on,10,0,14,,,,,,,,,13,,,,50,0
1202,note_on,24,0,12,,,,,,,,,11,,,,59,112
1204,note_on,10,0,15,,,,,,,,,14,,,,38,0
1205,note_on,24,0,13,,,,,,,,,12,,,,56,112
1207,note_on,5,0,14,,,,,,,,,13,,,,52,105
1209,note_on,5,0,15,,,,,,,,,14,,,,40,105
1236,note_on,36,0,11,,,,,,,,,10,,,,64,0
1238,note_on,36,0,12,,,,,,,,,11,,,,59,0
1241,note_on,36,0,13,,,,,,,,,12,,,,56,0
1260,note_on,24,0,11,,,,,,,,,10,,,,64,112
1260,set_tempo,60,1,0,,,,,,1153846,,,,,,,,
1262,note_on,24,0,12,,,,,,,,,11,,,,59,112
1265,note_on,24,0,13,,,,,,,,,12,,,,56,112
1296,note_on,36,0,11,,,,,,,,,10,,,,64,0
1298,note_on,36,0,12,,,,,,,,,11,,,,59,0
1301,note_on,36,0,13,,,,,,,,,12,,,,56,0
1315,note_on,108,0,14,,,,,,,,,13,,,,52,0
1317,note_on,108,0,15,,,,,,,,,14,,,,40,0
1320,set_tempo,60,1,0,,,,,,1212121,,,,,,,,
1320,note_on,24,0,11,,,,,,,,,10,,,,64,112
1322,note_on,24,0,12,,,,,,,,,11,,,,60,112
1325,note_on,24,0,13,,,,,,,,,12,,,,57,112
1327,note_on,12,0,14,,,,,,,,,13,,,,45,97
1329,note_on,12,0,15,,,,,,,,,14,,,,33,97
1356,note_on,36,0,11,,,,,,,,,10,,,,64,0
1358,note_on,36,0,12,,,,,,,,,11,,,,60,0
1361,note_on,36,0,13,,,,,,,,,12,,,,57,0
1362,note_on,35,0,14,,,,,,,,,13,,,,45,0
1364,note_on,35,0,15,,,,,,,,,14,,,,33,0
1372,note_on,10,0,14,,,,,,,,,13,,,,47,97
1374,note_on,10,0,15,,,,,,,,,14,,,,35,97
1380,note_on,24,0,11,,,,,,,,,10,,,,64,112
1380,set_tempo,60,1,0,,,,,,1153846,,,,,,,,
1382,note_on,24,0,12,,,,,,,,,11,,,,60,112
1383,note_on,11,0,14,,,,,,,,,13,,,,47,0
1385,note_on,11,0,15,,,,,,,,,14,,,,35,0
1385,note_on,24,0,13,,,,,,,,,12,,,,57,112
1387,note_on,4,0,14,,,,,,,,,13,,,,48,97
1389,note_on,4,0,15,,,,,,,,,14,,,,36,97
1416,note_on,36,0,11,,,,,,,,,10,,,,64,0
1418,note_on,36,0,12,,,,,,,,,11,,,,60,0
1421,note_on,36,0,13,,,,,,,,,12,,,,57,0
1422,note_on,35,0,14,,,,,,,,,13,,,,48,0
1424,note_on,35,0,15,,,,,,,,,14,,,,36,0
1432,note_on,10,0,14,,,,,,,,,13,,,,50,97
1434,note_on,10,0,15,,,,,,,,,14,,,,38,97
1440,set_tempo,60,1,0,,,,,,1224490,,,,,,,,
1440,note_on,24,0,11,,,,,,,,,10,,,,64,112
1442,note_on,24,0,12,,,,,,,,,11,,,,59,112
1443,note_on,11,0,14,,,,,,,,,13,,,,50,0
1445,note_on,11,0,15,,,,,,,,,14,,,,38,0
1445,note_on,24,0,13,,,,,,,,,12,,,,56,112
1447,note_on,4,0,14,,,,,,,,,13,,,,52,97
1449,note_on,4,0,15,,,,,,,,,14,,,,40,97
1476,note_on,36,0,11,,,,,,,,,10,,,,64,0
1478,note_on,36,0,12,,,,,,,,,11,,,,59,0
1481,note_on,36,0,13,,,,,,,,,12,,,,56,0
1482,note_on,35,0,14,,,,,,,,,13,,,,52,0
1484,note_on,35,0,15,,,,,,,,,14,,,,40,0
1500,set_tempo,60,1,0,,,,,,1153846,,,,,,,,
1500,note_on,24,0,11,,,,,,,,,10,,,,65,112
1502,note_on,24,0,12,,,,,,,,,11,,,,57,112
1505,note_on,24,0,13,,,,,,,,,12,,,,57,112
1507,note_on,25,0,14,,,,,,,,,13,,,,50,97
1509,note_on,25,0,15,,,,,,,,,14,,,,38,97
1527,note_on,20,0,14,,,,,,,,,13,,,,50,0
1529,note_on,20,0,15,,,,,,,,,14,,,,38,0
1536,note_on,36,0,11,,,,,,,,,10,,,,65,0
1538,note_on,36,0,12,,,,,,,,,11,,,,57,0
1541,note_on,36,0,13,,,,,,,,,12,,,,57,0
1545,note_on,9,0,11,,,,,,,,,10,,,,62,112
1552,note_on,25,0,14,,,,,,,,,13,,,,53,97
1554,note_on,25,0,15,,,,,,,,,14,,,,41,97
1557,note_on,12,0,11,,,,,,,,,10,,,,62,0
1560,note_on,3,0,11,,,,,,,,,10,,,,64,112
1560,set_tempo,60,1,0,,,,,,1212121,,,,,,,,
1560,note_on,8,0,14,,,,,,,,,13,,,,53,0
1562,note_on,24,0,12,,,,,,,,,11,,,,60,112
1562,note_on,8,0,15,,,,,,,,,14,,,,41,0
1565,note_on,24,0,13,,,,,,,,,12,,,,57,112
1567,note_on,7,0,14,,,,,,,,,13,,,,48,97
1569,note_on,7,0,15,,,,,,,,,14,,,,36,97
1596,note_on,36,0,11,,,,,,,,,10,,,,64,0
1598,note_on,36,0,12,,,,,,,,,11,,,,60,0
1601,note_on,36,0,13,,,,,,,,,12,,,,57,0
1602,note_on,35,0,14,,,,,,,,,13,,,,48,0
1604,note_on,35,0,15,,,,,,,,,14,,,,36,0
1620,note_on,24,0,11,,,,,,,,,10,,,,64,112
1620,set_tempo,60,1,0,,,,,,1153846,,,,,,,,
1622,note_on,24,0,12,,,,,,,,,11,,,,59,112
1625,note_on,24,0,13,,,,,,,,,12,,,,56,112
1627,note_on,25,0,14,,,,,,,,,13,,,,52,97
1629,note_on,25,0,15,,,,,,,,,14,,,,40,97
1656,note_on,36,0,11,,,,,,,,,10,,,,64,0
1658,note_on,36,0,12,,,,,,,,,11,,,,59,0
1661,note_on,36,0,13,,,,,,,,,12,,,,56,0
1662,note_on,35,0,14,,,,,,,,,13,,,,52,0
1664,note_on,35,0,15,,,,,,,,,14,,,,40,0
1680,note_on,24,0,11,,,,,,,,,10,,,,64,112
1680,set_tempo,60,1,0,,,,,,1224490,,,,,,,,
1682,note_on,24,0,12,,,,,,,,,11,,,,60,112
1685,note_on,24,0,13,,,,,,,,,12,,,,57,112
1687,note_on,25,0,14,,,,,,,,,13,,,,45,105
1689,note_on,25,0,15,,,,,,,,,14,,,,33,105
1716,note_on,36,0,11,,,,,,,,,10,,,,64,0
1718,note_on,36,0,12,,,,,,,,,11,,,,60,0
1721,note_on,36,0,13,,,,,,,,,12,,,,57,0
1740,set_tempo,60,1,0,,,,,,1153846,,,,,,,,
1740,note_on,24,0,11,,,,,,,,,10,,,,64,112
1742,note_on,24,0,12,,,,,,,,,11,,,,60,112
1745,note_on,24,0,13,,,,,,,,,12,,,,57,112
1776,note_on,36,0,11,,,,,,,,,10,,,,64,0
1778,note_on,36,0,12,,,,,,,,,11,,,,60,0
1781,note_on,36,0,13,,,,,,,,,12,,,,57,0
1782,note_on,95,0,14,,,,,,,,,13,,,,45,0
1784,note_on,95,0,15,,,,,,,,,14,,,,33,0
1800,set_tempo,60,1,0,,,,,,1212121,,,,,,,,
1800,note_on,24,0,11,,,,,,,,,10,,,,64,112
1802,note_on,24,0,12,,,,,,,,,11,,,,60,112
1805,note_on,24,0,13,,,,,,,,,12,,,,57,112
1807,control_change,25,0,14,,,,,,,,,13,11,50,,,
1807,note_on,0,0,14,,,,,,,,,13,,,,45,105
1809,control_change,25,0,15,,,,,,,,,14,11,41,,,
1809,note_on,0,0,15,,,,,,,,,14,,,,33,105
1820,control_change,13,0,14,,,,,,,,,13,11,47,,,
1827,control_change,18,0,15,,,,,,,,,14,11,39,,,
1834,control_change,14,0,14,,,,,,,,,13,11,44,,,
1836,note_on,36,0,11,,,,,,,,,10,,,,64,0
1838,note_on,36,0,12,,,,,,,,,11,,,,60,0
1841,note_on,36,0,13,,,,,,,,,12,,,,57,0
1845,control_change,18,0,15,,,,,,,,,14,11,37,,,
1860,note_on,24,0,11,,,,,,,,,10,,,,64,112
1860,set_tempo,60,1,0,,,,,,1153846,,,,,,,,
1861,control_change,27,0,14,,,,,,,,,13,11,39,,,
1862,note_on,24,0,12,,,,,,,,,11,,,,60,112
1863,control_change,18,0,15,,,,,,,,,14,11,35,,,
1865,note_on,24,0,13,,,,,,,,,12,,,,57,112
1874,control_change,13,0,14,,,,,,,,,13,11,36,,,
1881,control_change,18,0,15,,,,,,,,,14,11,33,,,
1888,control_change,14,0,14,,,,,,,,,13,11,33,,,
1890,set_tempo,30,1,0,,,,,,1304348,,,,,,,,
1896,note_on,36,0,11,,,,,,,,,10,,,,64,0
1898,note_on,36,0,12,,,,,,,,,11,,,,60,0
1899,control_change,18,0,15,,,,,,,,,14,11,31,,,
1901,note_on,36,0,13,,,,,,,,,12,,,,57,0
1902,note_on,14,0,14,,,,,,,,,13,,,,45,0
1904,note_on,5,0,15,,,,,,,,,14,,,,33,0
1920,note_on,0,0,11,,,,,,,,,10,,,,64,112
1920,control_change,24,0,11,,,,,,,,,10,11,36,,,
1920,set_tempo,30,1,0,,,,,,1200000,,,,,,,,
1922,note_on,0,0,2,,,,,,,,,1,,,,76,100
1922,control_change,1890,0,2,,,,,,,,,1,11,32,,,
1922,note_on,0,0,12,,,,,,,,,11,,,,60,112
1922,control_change,24,0,12,,,,,,,,,11,11,36,,,
1925,control_change,3,0,2,,,,,,,,,1,11,35,,,
1925,control_change,24,0,13,,,,,,,,,12,11,36,,,
1925,note_on,0,0,13,,,,,,,,,12,,,,57,112
1927,note_on,25,0,14,,,,,,,,,13,,,,45,112
1928,control_change,3,0,2,,,,,,,,,1,11,38,,,
1929,note_on,25,0,15,,,,,,,,,14,,,,33,112
1931,control_change,3,0,2,,,,,,,,,1,11,41,,,
1934,control_change,3,0,2,,,,,,,,,1,11,44,,,
1937,control_change,3,0,2,,,,,,,,,1,11,47,,,
1940,control_change,3,0,2,,,,,,,,,1,11,50,,,
1949,control_change,9,0,2,,,,,,,,,1,11,54,,,
1950,note_on,30,0,11,,,,,,,,,10,,,,64,0
1952,note_on,30,0,12,,,,,,,,,11,,,,60,0
1955,note_on,30,0,13,,,,,,,,,12,,,,57,0
1955,control_change,6,0,2,,,,,,,,,1,11,57,,,
1957,note_on,30,0,14,,,,,,,,,13,,,,45,0
1959,note_on,30,0,15,,,,,,,,,14,,,,33,0
1977,control_change,22,0,2,,,,,,,,,1,11,61,,,
1980,set_tempo,60,1,0,,,,,,1111111,,,,,,,,
1980,note_on,30,0,11,,,,,,,,,10,,,,64,112
1982,note_on,30,0,12,,,,,,,,,11,,,,60,112
1985,note_on,30,0,13,,,,,,,,,12,,,,57,112
1999,control_change,22,0,2,,,,,,,,,1,11,63,,,
2010,note_on,30,0,11,,,,,,,,,10,,,,64,0
2012,note_on,30,0,12,,,,,,,,,11,,,,60,0
2015,note_on,30,0,13,,,,,,,,,12,,,,57,0
2021,control_change,22,0,2,,,,,,,,,1,11,64,,,
2040,note_on,30,0,11,,,,,,,,,10,,,,60,112
2040,set_tempo,60,1,0,,,,,,1188119,,,,,,,,
2042,note_on,0,0,2,,,,,,,,,1,,,,74,100
2042,note_on,21,0,2,,,,,,,,,1,,,,76,0
2042,note_on,30,0,12,,,,,,,,,11,,,,60,112
2045,note_on,30,0,13,,,,,,,,,12,,,,57,112
2052,note_on,0,0,2,,,,,,,,,1,,,,72,100
2052,note_on,10,0,2,,,,,,,,,1,,,,74,0
2055,control_change,3,0,2,,,,,,,,,1,11,64,,,
2070,note_on,30,0,11,,,,,,,,,10,,,,60,0
2072,note_on,30,0,12,,,,,,,,,11,,,,60,0
2072,note_on,17,0,2,,,,,,,,,1,,,,72,0
2075,note_on,30,0,13,,,,,,,,,12,,,,57,0
2087,note_on,15,0,2,,,,,,,,,1,,,,71,100
2094,note_on,7,0,2,,,,,,,,,1,,,,71,0
2100,note_on,30,0,11,,,,,,,,,10,,,,62,112
2100,set_tempo,60,1,0,,,,,,1111111,,,,,,,,
2102,note_on,8,0,2,,,,,,,,,1,,,,72,100
2102,note_on,30,0,12,,,,,,,,,11,,,,59,112
2105,note_on,30,0,13,,,,,,,,,12,,,,57,112
2127,control_change,25,0,2,,,,,,,,,1,11,63,,,
2130,note_on,30,0,11,,,,,,,,,10,,,,62,0
2132,note_on,30,0,12,,,,,,,,,11,,,,59,0
2132,note_on,5,0,2,,,,,,,,,1,,,,72,0
2135,note_on,30,0,13,,,,,,,,,12,,,,57,0
2147,note_on,15,0,2,,,,,,,,,1,,,,74,100
2155,note_on,8,0,2,,,,,,,,,1,,,,74,0
2160,note_on,30,0,11,,,,,,,,,10,,,,64,112
2160,set_tempo,60,1,0,,,,,,1224490,,,,,,,,
2162,note_on,30,0,12,,,,,,,,,11,,,,60,112
2162,note_on,7,0,2,,,,,,,,,1,,,,76,100
2165,note_on,30,0,13,,,,,,,,,12,,,,57,112
2167,note_on,210,0,14,,,,,,,,,13,,,,45,112
2169,note_on,210,0,15,,,,,,,,,14,,,,33,112
2190,note_on,30,0,11,,,,,,,,,10,,,,64,0
2192,note_on,30,0,12,,,,,,,,,11,,,,60,0
2195,note_on,30,0,13,,,,,,,,,12,,,,57,0
2197,note_on,30,0,14,,,,,,,,,13,,,,45,0
2199,note_on,30,0,15,,,,,,,,,14,,,,33,0
2220,note_on,30,0,11,,,,,,,,,10,,,,64,112
2220,set_tempo,60,1,0,,,,,,1111111,,,,,,,,
2222,note_on,0,0,2,,,,,,,,,1,,,,81,100
2222,note_on,60,0,2,,,,,,,,,1,,,,76,0
2222,note_on,30,0,12,,,,,,,,,11,,,,60,112
2225,note_on,30,0,13,,,,,,,,,12,,,,57,112
2250,note_on,30,0,11,,,,,,,,,10,,,,64,0
2252,note_on,30,0,12,,,,,,,,,11,,,,60,0
2252,note_on,30,0,2,,,,,,,,,1,,,,81,0
2255,note_on,30,0,13,,,,,,,,,12,,,,57,0
2280,set_tempo,60,1,0,,,,,,1188119,,,,,,,,
2280,note_on,30,0,11,,,,,,,,,10,,,,65,112
2282,note_on,30,0,12,,,,,,,,,11,,,,60,112
2282,note_on,30,0,2,,,,,,,,,1,,,,72,100
2285,note_on,30,0,13,,,,,,,,,12,,,,57,112
2287,note_on,90,0,14,,,,,,,,,13,,,,45,112
2289,note_on,90,0,15,,,,,,,,,14,,,,33,112
2310,control_change,28,0,2,,,,,,,,,1,11,64,,,
2310,note_on,30,0,11,,,,,,,,,10,,,,65,0
2312,note_on,2,0,2,,,,,,,,,1,,,,72,0
2312,note_on,30,0,12,,,,,,,,,11,,,,60,0
2315,note_on,30,0,13,,,,,,,,,12,,,,57,0
2317,note_on,30,0,14,,,,,,,,,13,,,,45,0
2319,note_on,30,0,15,,,,,,,,,14,,,,33,0
2336,control_change,24,0,2,,,,,,,,,1,11,65,,,
2340,set_tempo,60,1,0,,,,,,1111111,,,,,,,,
2340,note_on,30,0,11,,,,,,,,,10,,,,65,112
2342,note_on,6,0,2,,,,,,,,,1,,,,74,100
2342,note_on,30,0,12,,,,,,,,,11,,,,55,112
2345,note_on,30,0,13,,,,,,,,,12,,,,59,112
2347,note_on,30,0,14,,,,,,,,,13,,,,43,112
2349,note_on,30,0,15,,,,,,,,,14,,,,31,112
2370,note_on,30,0,11,,,,,,,,,10,,,,65,0
2372,note_on,30,0,12,,,,,,,,,11,,,,55,0
2372,note_on,30,0,2,,,,,,,,,1,,,,74,0
2375,note_on,30,0,13,,,,,,,,,12,,,,59,0
2377,note_on,30,0,14,,,,,,,,,13,,,,43,0
2379,note_on,30,0,15,,,,,,,,,14,,,,31,0
2380,control_change,8,0,2,,,,,,,,,1,11,66,,,
2400,set_tempo,60,1,0,,,,,,1200000,,,,,,,,
2400,note_on,30,0,11,,,,,,,,,10,,,,64,112
2402,note_on,30,0,12,,,,,,,,,11,,,,55,112
2402,note_on,22,0,2,,,,,,,,,1,,,,76,110
2405,control_change,3,0,2,,,,,,,,,1,11,68,,,
2405,note_on,30,0,13,,,,,,,,,12,,,,60,112
2407,note_on,30,0,14,,,,,,,,,13,,,,48,112
2409,note_on,30,0,15,,,,,,,,,14,,,,36,112
2430,note_on,30,0,11,,,,,,,,,10,,,,64,0
2430,control_change,25,0,2,,,,,,,,,1,11,69,,,
2432,note_on,30,0,12,,,,,,,,,11,,,,55,0
2435,note_on,30,0,13,,,,,,,,,12,,,,60,0
2460,note_on,30,0,11,,,,,,,,,10,,,,64,112
2460,set_tempo,60,1,0,,,,,,1111111,,,,,,,,
2462,note_on,30,0,12,,,,,,,,,11,,,,55,112
2465,note_on,30,0,13,,,,,,,,,12,,,,60,112
2467,note_on,60,0,14,,,,,,,,,13,,,,48,0
2469,note_on,60,0,15,,,,,,,,,14,,,,36,0
2490,note_on,30,0,11,,,,,,,,,10,,,,64,0
2492,note_on,30,0,12,,,,,,,,,11,,,,55,0
2495,note_on,30,0,13,,,,,,,,,12,,,,60,0
2512,note_on,82,0,2,,,,,,,,,1,,,,76,0
2520,note_on,30,0,11,,,,,,,,,10,,,,64,112
2520,set_tempo,60,1,0,,,,,,1188119,,,,,,,,
2522,note_on,10,0,2,,,,,,,,,1,,,,76,110
2522,note_on,30,0,12,,,,,,,,,11,,,,55,112
2525,note_on,30,0,13,,,,,,,,,12,,,,60,112
2527,note_on,60,0,14,,,,,,,,,13,,,,48,112
2529,note_on,60,0,15,,,,,,,,,14,,,,36,112
2550,note_on,30,0,11,,,,,,,,,10,,,,64,0
2552,note_on,30,0,12,,,,,,,,,11,,,,55,0
2555,note_on,30,0,13,,,,,,,,,12,,,,60,0
2580,note_on,30,0,11,,,,,,,,,10,,,,64,112
2580,set_tempo,60,1,0,,,,,,1111111,,,,,,,,
2582,note_on,30,0,12,,,,,,,,,11,,,,55,112
2585,note_on,30,0,13,,,,,,,,,12,,,,60,112
2587,note_on,60,0,14,,,,,,,,,13,,,,48,0
2589,note_on,60,0,15,,,,,,,,,14,,,,36,0
2610,note_on,30,0,11,,,,,,,,,10,,,,64,0
2610,set_tempo,30,1,0,,,,,,1237113,,,,,,,,
2612,note_on,30,0,12,,,,,,,,,11,,,,55,0
2615,note_on,30,0,13,,,,,,,,,12,,,,60,0
2625,control_change,103,0,2,,,,,,,,,1,11,69,,,
2632,note_on,7,0,2,,,,,,,,,1,,,,76,0
2640,set_tempo,30,1,0,,,,,,1200000,,,,,,,,
2640,note_on,0,0,11,,,,,,,,,10,,,,65,112
2640,control_change,30,0,11,,,,,,,,,10,11,36,,,
2642,note_on,0,0,2,,,,,,,,,1,,,,74,110
2642,control_change,30,0,12,,,,,,,,,11,11,36,,,
2642,control_change,10,0,2,,,,,,,,,1,11,42,,,
2642,note_on,0,0,12,,,,,,,,,11,,,,62,112
2645,control_change,30,0,13,,,,,,,,,12,11,36,,,
2645,note_on,0,0,13,,,,,,,,,12,,,,59,112
2647,note_on,60,0,14,,,,,,,,,13,,,,44,122
2647,control_change,5,0,2,,,,,,,,,1,11,45,,,
2649,note_on,60,0,15,,,,,,,,,14,,,,32,122
2653,control_change,6,0,2,,,,,,,,,1,11,48,,,
2659,control_change,6,0,2,,,,,,,,,1,11,51,,,
2665,control_change,6,0,2,,,,,,,,,1,11,54,,,
2670,note_on,30,0,11,,,,,,,,,10,,,,65,0
2671,control_change,6,0,2,,,,,,,,,1,11,57,,,
2672,note_on,30,0,12,,,,,,,,,11,,,,62,0
2675,note_on,30,0,13,,,,,,,,,12,,,,59,0
2682,control_change,11,0,2,,,,,,,,,1,11,61,,,
2694,control_change,12,0,2,,,,,,,,,1,11,66,,,
2700,set_tempo,60,1,0,,,,,,1111111,,,,,,,,
2700,control_change,30,0,11,,,,,,,,,10,11,37,,,
2700,note_on,0,0,11,,,,,,,,,10,,,,65,112
2702,control_change,30,0,12,,,,,,,,,11,11,37,,,
2702,note_on,0,0,12,,,,,,,,,11,,,,62,112
2705,control_change,30,0,13,,,,,,,,,12,11,37,,,
2705,note_on,0,0,13,,,,,,,,,12,,,,59,112
2707,note_on,60,0,14,,,,,,,,,13,,,,44,0
2709,note_on,60,0,15,,,,,,,,,14,,,,32,0
2730,note_on,30,0,11,,,,,,,,,10,,,,65,0
2732,note_on,30,0,12,,,,,,,,,11,,,,62,0
2735,note_on,30,0,13,,,,,,,,,12,,,,59,0
2749,control_change,55,0,2,,,,,,,,,1,11,69,,,
2760,set_tempo,60,1,0,,,,,,1188119,,,,,,,,
2760,control_change,30,0,11,,,,,,,,,10,11,38,,,
2760,note_on,0,0,11,,,,,,,,,10,,,,65,112
2762,control_change,30,0,12,,,,,,,,,11,11,38,,,
2762,note_on,0,0,12,,,,,,,,,11,,,,62,112
2762,note_on,13,0,2,,,,,,,,,1,,,,74,0
2762,note_on,0,0,2,,,,,,,,,1,,,,77,100
2765,control_change,30,0,13,,,,,,,,,12,11,38,,,
2765,note_on,0,0,13,,,,,,,,,12,,,,59,112
2767,note_on,60,0,14,,,,,,,,,13,,,,44,112
2767,control_change,5,0,2,,,,,,,,,1,11,70,,,
2769,note_on,60,0,15,,,,,,,,,14,,,,32,112
2790,note_on,30,0,11,,,,,,,,,10,,,,65,0
2792,note_on,30,0,12,,,,,,,,,11,,,,62,0
2795,note_on,30,0,13,,,,,,,,,12,,,,59,0
2807,note_on,40,0,2,,,,,,,,,1,,,,77,0
2807,note_on,0,0,2,,,,,,,,,1,,,,76,100
2817,control_change,10,0,2,,,,,,,,,1,11,69,,,
2820,note_on,0,0,11,,,,,,,,,10,,,,65,112
2820,control_change,30,0,11,,,,,,,,,10,11,39,,,
2820,set_tempo,60,1,0,,,,,,1111111,,,,,,,,
2822,control_change,30,0,12,,,,,,,,,11,11,39,,,
2822,note_on,0,0,12,,,,,,,,,11,,,,62,112
2822,note_on,0,0,2,,,,,,,,,1,,,,77,100
2822,note_on,5,0,2,,,,,,,,,1,,,,76,0
2825,note_on,0,0,13,,,,,,,,,12,,,,59,112
2825,control_change,30,0,13,,,,,,,,,12,11,39,,,
2827,note_on,60,0,14,,,,,,,,,13,,,,44,0
2829,note_on,60,0,15,,,,,,,,,14,,,,32,0
2836,control_change,14,0,2,,,,,,,,,1,11,72,,,
2850,note_on,30,0,11,,,,,,,,,10,,,,65,0
2851,control_change,15,0,2,,,,,,,,,1,11,72,,,
2852,note_on,30,0,12,,,,,,,,,11,,,,62,0
2855,note_on,30,0,13,,,,,,,,,12,,,,59,0
2867,note_on,0,0,2,,,,,,,,,1,,,,74,100
2867,note_on,16,0,2,,,,,,,,,1,,,,77,0
2872,control_change,5,0,2,,,,,,,,,1,11,74,,,
2875,note_on,3,0,2,,,,,,,,,1,,,,74,0
2880,control_change,30,0,11,,,,,,,,,10,11,40,,,
2880,note_on,0,0,11,,,,,,,,,10,,,,64,112
2880,set_tempo,60,1,0,,,,,,1200000,,,,,,,,
2882,note_on,0,0,12,,,,,,,,,11,,,,60,112
2882,note_on,7,0,2,,,,,,,,,1,,,,72,110
2882,control_change,30,0,12,,,,,,,,,11,11,40,,,
2885,control_change,30,0,13,,,,,,,,,12,11,40,,,
2885,note_on,0,0,13,,,,,,,,,12,,,,52,112
2887,note_on,60,0,14,,,,,,,,,13,,,,45,122
2889,note_on,60,0,15,,,,,,,,,14,,,,33,122
2891,control_change,9,0,2,,,,,,,,,1,11,75,,,
2910,note_on,30,0,11,,,,,,,,,10,,,,64,0
2911,control_change,20,0,2,,,,,,,,,1,11,77,,,
2912,note_on,30,0,12,,,,,,,,,11,,,,60,0
2915,note_on,30,0,13,,,,,,,,,12,,,,52,0
2929,control_change,18,0,2,,,,,,,,,1,11,78,,,
2940,control_change,30,0,11,,,,,,,,,10,11,41,,,
2940,note_on,0,0,11,,,,,,,,,10,,,,64,112
2940,set_tempo,60,1,0,,,,,,1111111,,,,,,,,
2942,note_on,0,0,12,,,,,,,,,11,,,,60,112
2942,control_change,30,0,12,,,,,,,,,11,11,41,,,
2945,note_on,0,0,13,,,,,,,,,12,,,,52,112
2945,control_change,30,0,13,,,,,,,,,12,11,41,,,
2947,note_on,60,0,14,,,,,,,,,13,,,,45,0
2947,control_change,18,0,2,,,,,,,,,1,11,79,,,
2949,note_on,60,0,15,,,,,,,,,14,,,,33,0
2970,note_on,30,0,11,,,,,,,,,10,,,,64,0
2972,note_on,30,0,12,,,,,,,,,11,,,,60,0
2975,note_on,30,0,13,,,,,,,,,12,,,,52,0
2987,control_change,40,0,2,,,,,,,,,1,11,78,,,
3000,set_tempo,60,1,0,,,,,,1188119,,,,,,,,
3000,note_on,0,0,11,,,,,,,,,10,,,,64,112
3000,control_change,30,0,11,,,,,,,,,10,11,42,,,
3002,control_change,30,0,12,,,,,,,,,11,11,42,,,
3002,note_on,15,0,2,,,,,,,,,1,,,,72,0
3002,note_on,0,0,2,,,,,,,,,1,,,,76,100
3002,note_on,0,0,12,,,,,,,,,11,,,,60,112
3004,control_change,2,0,2,,,,,,,,,1,11,78,,,
3005,control_change,30,0,13,,,,,,,,,12,11,42,,,
3005,note_on,0,0,13,,,,,,,,,12,,,,52,112
3007,note_on,60,0,14,,,,,,,,,13,,,,45,112
3009,note_on,60,0,15,,,,,,,,,14,,,,33,112
3021,control_change,17,0,2,,,,,,,,,1,11,75,,,
3030,note_on,30,0,11,,,,,,,,,10,,,,64,0
3032,note_on,30,0,12,,,,,,,,,11,,,,60,0
3035,note_on,30,0,13,,,,,,,,,12,,,,52,0
3037,control_change,16,0,2,,,,,,,,,1,11,73,,,
3047,note_on,10,0,2,,,,,,,,,1,,,,76,0
3047,note_on,0,0,2,,,,,,,,,1,,,,75,100
3057,control_change,10,0,2,,,,,,,,,1,11,72,,,
3060,set_tempo,60,1,0,,,,,,1111111,,,,,,,,
3060,note_on,0,0,11,,,,,,,,,10,,,,64,112
3060,control_change,30,0,11,,,,,,,,,10,11,42,,,
3062,note_on,0,0,2,,,,,,,,,1,,,,76,100
3062,note_on,5,0,2,,,,,,,,,1,,,,75,0
3062,control_change,30,0,12,,,,,,,,,11,11,42,,,
3062,note_on,0,0,12,,,,,,,,,11,,,,60,112
3065,note_on,0,0,13,,,,,,,,,12,,,,57,112
3065,control_change,30,0,13,,,,,,,,,12,11,42,,,
3067,note_on,60,0,14,,,,,,,,,13,,,,45,0
3069,note_on,60,0,15,,,,,,,,,14,,,,33,0
3076,control_change,14,0,2,,,,,,,,,1,11,70,,,
3090,note_on,30,0,11,,,,,,,,,10,,,,64,0
3092,note_on,30,0,12,,,,,,,,,11,,,,60,0
3095,note_on,30,0,13,,,,,,,,,12,,,,57,0
3097,control_change,21,0,2,,,,,,,,,1,11,69,,,
3107,note_on,10,0,2,,,,,,,,,1,,,,76,0
3107,note_on,0,0,2,,,,,,,,,1,,,,72,100
3115,note_on,8,0,2,,,,,,,,,1,,,,72,0
3120,control_change,30,0,11,,,,,,,,,10,11,43,,,
3120,set_tempo,60,1,0,,,,,,1224490,,,,,,,,
3120,note_on,0,0,11,,,,,,,,,10,,,,65,112
3121,control_change,6,0,2,,,,,,,,,1,11,67,,,
3122,control_change,30,0,12,,,,,,,,,11,11,43,,,
3122,note_on,1,0,2,,,,,,,,,1,,,,71,110
3122,note_on,0,0,12,,,,,,,,,11,,,,59,112
3125,control_change,30,0,13,,,,,,,,,12,11,43,,,
3125,note_on,0,0,13,,,,,,,,,12,,,,57,112
3127,note_on,60,0,14,,,,,,,,,13,,,,50,112
3129,note_on,60,0,15,,,,,,,,,14,,,,38,112
3150,note_on,30,0,11,,,,,,,,,10,,,,65,0
3151,control_change,29,0,2,,,,,,,,,1,11,66,,,
3152,note_on,30,0,12,,,,,,,,,11,,,,59,0
3155,note_on,30,0,13,,,,,,,,,12,,,,57,0
3167,note_on,16,0,2,,,,,,,,,1,,,,71,0
3167,control_change,0,0,2,,,,,,,,,1,11,64,,,
3167,note_on,0,0,2,,,,,,,,,1,,,,74,100
3180,note_on,0,0,11,,,,,,,,,10,,,,65,112
3180,set_tempo,60,1,0,,,,,,1121495,,,,,,,,
3180,control_change,30,0,11,,,,,,,,,10,11,44,,,
3182,note_on,15,0,2,,,,,,,,,1,,,,74,0
3182,note_on,0,0,2,,,,,,,,,1,,,,72,100
3182,control_change,30,0,12,,,,,,,,,11,11,44,,,
3182,note_on,0,0,12,,,,,,,,,11,,,,59,112
3185,control_change,30,0,13,,,,,,,,,12,11,44,,,
3185,note_on,0,0,13,,,,,,,,,12,,,,57,112
3187,note_on,60,0,14,,,,,,,,,13,,,,50,0
3189,control_change,7,0,2,,,,,,,,,1,11,63,,,
3189,note_on,60,0,15,,,,,,,,,14,,,,38,0
3207,control_change,18,0,2,,,,,,,,,1,11,61,,,
3210,note_on,30,0,11,,,,,,,,,10,,,,65,0
3212,note_on,30,0,12,,,,,,,,,11,,,,59,0
3215,note_on,30,0,13,,,,,,,,,12,,,,57,0
3222,control_change,15,0,2,,,,,,,,,1,11,60,,,
3227,note_on,0,0,2,,,,,,,,,1,,,,71,100
3227,note_on,5,0,2,,,,,,,,,1,,,,72,0
3235,note_on,8,0,2,,,,,,,,,1,,,,71,0
3240,control_change,30,0,11,,,,,,,,,10,11,45,,,
3240,set_tempo,60,1,0,,,,,,1200000,,,,,,,,
3240,note_on,0,0,11,,,,,,,,,10,,,,66,112
3242,control_change,30,0,12,,,,,,,,,11,11,45,,,
3242,note_on,0,0,12,,,,,,,,,11,,,,59,112
3242,note_on,7,0,2,,,,,,,,,1,,,,71,110
3245,note_on,0,0,13,,,,,,,,,12,,,,57,112
3245,control_change,30,0,13,,,,,,,,,12,11,45,,,
3247,control_change,5,0,2,,,,,,,,,1,11,59,,,
3247,note_on,60,0,14,,,,,,,,,13,,,,51,112
3249,note_on,60,0,15,,,,,,,,,14,,,,39,112
3270,note_on,30,0,11,,,,,,,,,10,,,,66,0
3272,note_on,30,0,12,,,,,,,,,11,,,,59,0
3275,control_change,5,0,11,,,,,,,,,10,11,44,,,
3275,note_on,30,0,13,,,,,,,,,12,,,,57,0
3277,control_change,5,0,12,,,,,,,,,11,11,44,,,
3280,control_change,5,0,13,,,,,,,,,12,11,44,,,
3282,control_change,35,0,2,,,,,,,,,1,11,60,,,
3287,note_on,5,0,2,,,,,,,,,1,,,,71,0
3287,note_on,0,0,2,,,,,,,,,1,,,,74,100
3300,set_tempo,60,1,0,,,,,,1132075,,,,,,,,
3300,note_on,25,0,11,,,,,,,,,10,,,,66,112
3302,note_on,15,0,2,,,,,,,,,1,,,,74,0
3302,note_on,0,0,2,,,,,,,,,1,,,,72,100
3302,note_on,25,0,12,,,,,,,,,11,,,,59,112
3305,note_on,25,0,13,,,,,,,,,12,,,,57,112
3307,note_on,60,0,14,,,,,,,,,13,,,,51,0
3309,note_on,60,0,15,,,,,,,,,14,,,,39,0
3311,control_change,11,0,11,,,,,,,,,10,11,43,,,
3313,control_change,11,0,12,,,,,,,,,11,11,43,,,
3313,control_change,11,0,2,,,,,,,,,1,11,61,,,
3316,control_change,11,0,13,,,,,,,,,12,11,43,,,
3330,note_on,19,0,11,,,,,,,,,10,,,,66,0
3332,note_on,19,0,12,,,,,,,,,11,,,,59,0
3335,note_on,19,0,13,,,,,,,,,12,,,,57,0
3335,control_change,22,0,2,,,,,,,,,1,11,63,,,
3347,control_change,17,0,11,,,,,,,,,10,11,42,,,
3347,note_on,0,0,2,,,,,,,,,1,,,,71,100
3347,note_on,12,0,2,,,,,,,,,1,,,,72,0
3349,control_change,17,0,12,,,,,,,,,11,11,42,,,
3352,control_change,17,0,13,,,,,,,,,12,11,42,,,
3354,control_change,7,0,2,,,,,,,,,1,11,63,,,
3355,note_on,1,0,2,,,,,,,,,1,,,,71,0
3360,set_tempo,60,1,0,,,,,,1237113,,,,,,,,
3360,note_on,13,0,11,,,,,,,,,10,,,,64,112
3362,note_on,7,0,2,,,,,,,,,1,,,,71,110
3362,note_on,13,0,12,,,,,,,,,11,,,,59,112
3365,note_on,13,0,13,,,,,,,,,12,,,,57,112
3367,note_on,60,0,14,,,,,,,,,13,,,,52,112
3369,note_on,60,0,15,,,,,,,,,14,,,,40,112
3371,control_change,9,0,2,,,,,,,,,1,11,65,,,
3383,control_change,23,0,11,,,,,,,,,10,11,42,,,
3385,control_change,23,0,12,,,,,,,,,11,11,42,,,
3388,control_change,23,0,13,,,,,,,,,12,11,42,,,
3390,note_on,7,0,11,,,,,,,,,10,,,,64,0
3390,control_change,19,0,2,,,,,,,,,1,11,66,,,
3392,note_on,7,0,12,,,,,,,,,11,,,,59,0
3395,note_on,7,0,13,,,,,,,,,12,,,,57,0
3407,note_on,17,0,2,,,,,,,,,1,,,,71,0
3407,note_on,0,0,2,,,,,,,,,1,,,,74,100
3417,control_change,10,0,2,,,,,,,,,1,11,66,,,
3419,control_change,29,0,11,,,,,,,,,10,11,41,,,
3420,set_tempo,60,1,0,,,,,,1165049,,,,,,,,
3420,note_on,1,0,11,,,,,,,,,10,,,,64,112
3421,control_change,29,0,12,,,,,,,,,11,11,41,,,
3422,note_on,1,0,12,,,,,,,,,11,,,,59,112
3422,note_on,0,0,2,,,,,,,,,1,,,,72,100
3422,note_on,5,0,2,,,,,,,,,1,,,,74,0
3424,control_change,29,0,13,,,,,,,,,12,11,41,,,
3425,note_on,1,0,13,,,,,,,,,12,,,,57,112
3427,note_on,60,0,14,,,,,,,,,13,,,,52,0
3429,note_on,60,0,15,,,,,,,,,14,,,,40,0
3431,control_change,9,0,2,,,,,,,,,1,11,63,,,
3447,control_change,16,0,2,,,,,,,,,1,11,62,,,
3450,note_on,30,0,11,,,,,,,,,10,,,,64,0
3452,note_on,30,0,12,,,,,,,,,11,,,,59,0
3455,control_change,5,0,11,,,,,,,,,10,11,40,,,
3455,note_on,30,0,13,,,,,,,,,12,,,,57,0
3457,control_change,5,0,12,,,,,,,,,11,11,40,,,
3460,control_change,5,0,13,,,,,,,,,12,11,40,,,
3462,control_change,15,0,2,,,,,,,,,1,11,61,,,
3467,note_on,0,0,2,,,,,,,,,1,,,,71,100
3467,note_on,5,0,2,,,,,,,,,1,,,,72,0
3475,note_on,8,0,2,,,,,,,,,1,,,,71,0
3480,set_tempo,60,1,0,,,,,,1250000,,,,,,,,
3480,note_on,25,0,11,,,,,,,,,10,,,,63,112
3482,note_on,7,0,2,,,,,,,,,1,,,,71,110
3482,note_on,25,0,12,,,,,,,,,11,,,,59,112
3485,note_on,25,0,13,,,,,,,,,12,,,,57,112
3487,note_on,60,0,14,,,,,,,,,13,,,,53,112
3487,control_change,5,0,2,,,,,,,,,1,11,60,,,
3489,note_on,60,0,15,,,,,,,,,14,,,,41,112
3491,control_change,11,0,11,,,,,,,,,10,11,39,,,
3493,control_change,11,0,12,,,,,,,,,11,11,39,,,
3496,control_change,11,0,13,,,,,,,,,12,11,39,,,
3508,control_change,21,0,2,,,,,,,,,1,11,59,,,
3510,note_on,19,0,11,,,,,,,,,10,,,,63,0
3512,note_on,19,0,12,,,,,,,,,11,,,,59,0
3515,note_on,19,0,13,,,,,,,,,12,,,,57,0
3527,note_on,0,0,2,,,,,,,,,1,,,,74,100
3527,note_on,19,0,2,,,,,,,,,1,,,,71,0
3527,control_change,17,0,11,,,,,,,,,10,11,38,,,
3529,control_change,17,0,12,,,,,,,,,11,11,38,,,
3532,control_change,17,0,13,,,,,,,,,12,11,38,,,
3534,control_change,7,0,2,,,,,,,,,1,11,60,,,
3540,note_on,13,0,11,,,,,,,,,10,,,,63,112
3540,set_tempo,60,1,0,,,,,,1212121,,,,,,,,
3542,note_on,0,0,2,,,,,,,,,1,,,,72,100
3542,note_on,8,0,2,,,,,,,,,1,,,,74,0
3542,note_on,13,0,12,,,,,,,,,11,,,,60,112
3547,note_on,60,0,14,,,,,,,,,13,,,,53,0
3549,control_change,7,0,2,,,,,,,,,1,11,60,,,
3549,note_on,60,0,15,,,,,,,,,14,,,,41,0
3560,note_on,28,0,13,,,,,,,,,12,,,,57,112
3562,note_on,20,0,12,,,,,,,,,11,,,,60,0
3563,control_change,23,0,11,,,,,,,,,10,11,37,,,
3565,control_change,3,0,12,,,,,,,,,11,11,37,,,
3568,control_change,8,0,13,,,,,,,,,12,11,37,,,
3570,note_on,7,0,11,,,,,,,,,10,,,,63,0
3570,control_change,21,0,2,,,,,,,,,1,11,63,,,
3587,note_on,17,0,2,,,,,,,,,1,,,,72,0
3587,note_on,0,0,2,,,,,,,,,1,,,,69,100
3587,note_on,22,0,12,,,,,,,,,11,,,,57,112
3589,control_change,2,0,2,,,,,,,,,1,11,65,,,
3590,note_on,22,0,13,,,,,,,,,12,,,,57,0
3595,note_on,6,0,2,,,,,,,,,1,,,,69,0
3595,note_on,8,0,12,,,,,,,,,11,,,,57,0
3599,control_change,29,0,11,,,,,,,,,10,11,36,,,
3600,note_on,0,0,11,,,,,,,,,10,,,,64,112
3600,control_change,1,0,11,,,,,,,,,10,11,45,,,
3600,set_tempo,60,1,0,,,,,,1263158,,,,,,,,
3601,control_change,6,0,12,,,,,,,,,11,11,36,,,
3601,control_change,3570,0,5,,,,,,,,,4,11,37,,,
3601,note_on,0,0,5,,,,,,,,,4,,,,64,100
3602,note_on,7,0,2,,,,,,,,,1,,,,76,100
3602,control_change,1,0,12,,,,,,,,,11,11,45,,,
3602,note_on,0,0,12,,,,,,,,,11,,,,59,112
3603,control_change,3570,0,6,,,,,,,,,5,11,37,,,
3603,note_on,0,0,6,,,,,,,,,5,,,,52,100
3604,control_change,14,0,13,,,,,,,,,12,11,36,,,
3604,control_change,2,0,2,,,,,,,,,1,11,67,,,
3605,control_change,1,0,13,,,,,,,,,12,11,45,,,
3605,note_on,0,0,13,,,,,,,,,12,,,,56,112
3607,control_change,3570,0,4,,,,,,,,,3,11,37,,,
3607,note_on,60,0,14,,,,,,,,,13,,,,52,112
3607,note_on,0,0,4,,,,,,,,,3,,,,59,100
3607,note_on,0,0,4,,,,,,,,,3,,,,56,100
3609,note_on,60,0,15,,,,,,,,,14,,,,40,112
3615,control_change,15,0,11,,,,,,,,,10,11,46,,,
3616,control_change,15,0,5,,,,,,,,,4,11,40,,,
3617,control_change,15,0,12,,,,,,,,,11,11,46,,,
3618,control_change,15,0,6,,,,,,,,,5,11,40,,,
3620,control_change,15,0,13,,,,,,,,,12,11,46,,,
3628,control_change,21,0,4,,,,,,,,,3,11,40,,,
3630,note_on,15,0,11,,,,,,,,,10,,,,64,0
3631,control_change,1,0,11,,,,,,,,,10,11,48,,,
3632,control_change,16,0,5,,,,,,,,,4,11,43,,,
3632,note_on,15,0,12,,,,,,,,,11,,,,59,0
3633,control_change,1,0,12,,,,,,,,,11,11,48,,,
3634,control_change,16,0,6,,,,,,,,,5,11,43,,,
3635,note_on,15,0,13,,,,,,,,,12,,,,56,0
3636,control_change,1,0,13,,,,,,,,,12,11,48,,,
3641,control_change,37,0,2,,,,,,,,,1,11,69,,,
3647,control_change,15,0,5,,,,,,,,,4,11,46,,,
3647,control_change,16,0,11,,,,,,,,,10,11,50,,,
3649,control_change,21,0,4,,,,,,,,,3,11,43,,,
3649,control_change,15,0,6,,,,,,,,,5,11,46,,,
3649,control_change,16,0,12,,,,,,,,,11,11,50,,,
3652,control_change,16,0,13,,,,,,,,,12,11,50,,,
3657,control_change,16,0,2,,,,,,,,,1,11,70,,,
3660,note_on,13,0,11,,,,,,,,,10,,,,64,112
3660,set_tempo,60,1,0,,,,,,1142857,,,,,,,,
3662,note_on,13,0,12,,,,,,,,,11,,,,59,112
3663,control_change,3,0,11,,,,,,,,,10,11,51,,,
3663,control_change,16,0,5,,,,,,,,,4,11,49,,,
3665,control_change,3,0,12,,,,,,,,,11,11,51,,,
3665,control_change,16,0,6,,,,,,,,,5,11,49,,,
3665,note_on,13,0,13,,,,,,,,,12,,,,56,112
3668,control_change,3,0,13,,,,,,,,,12,11,51,,,
3670,control_change,21,0,4,,,,,,,,,3,11,46,,,
3679,control_change,16,0,11,,,,,,,,,10,11,53,,,
3679,control_change,16,0,5,,,,,,,,,4,11,52,,,
3681,control_change,16,0,6,,,,,,,,,5,11,52,,,
3681,control_change,16,0,12,,,,,,,,,11,11,53,,,
3684,control_change,27,0,2,,,,,,,,,1,11,72,,,
3684,control_change,16,0,13,,,,,,,,,12,11,53,,,
3690,note_on,11,0,11,,,,,,,,,10,,,,64,0
3691,control_change,21,0,4,,,,,,,,,3,11,49,,,
3692,note_on,11,0,12,,,,,,,,,11,,,,59,0
3694,control_change,15,0,5,,,,,,,,,4,11,55,,,
3695,note_on,11,0,13,,,,,,,,,12,,,,56,0
3695,control_change,5,0,11,,,,,,,,,10,11,55,,,
3696,control_change,15,0,6,,,,,,,,,5,11,55,,,
3697,control_change,5,0,12,,,,,,,,,11,11,55,,,
3700,control_change,5,0,13,,,,,,,,,12,11,55,,,
3706,note_on,12,0,5,,,,,,,,,4,,,,64,0
3707,note_on,23,0,2,,,,,,,,,1,,,,76,0
3708,note_on,12,0,6,,,,,,,,,5,,,,52,0
3710,control_change,4,0,5,,,,,,,,,4,11,58,,,
3711,control_change,16,0,11,,,,,,,,,10,11,56,,,
3712,control_change,4,0,6,,,,,,,,,5,11,58,,,
3712,control_change,21,0,4,,,,,,,,,3,11,52,,,
3713,control_change,16,0,12,,,,,,,,,11,11,56,,,
3716,control_change,16,0,13,,,,,,,,,12,11,56,,,
3716,control_change,9,0,2,,,,,,,,,1,11,73,,,
3720,note_on,9,0,11,,,,,,,,,10,,,,64,112
3720,set_tempo,60,1,0,,,,,,1188119,,,,,,,,
3721,note_on,11,0,5,,,,,,,,,4,,,,64,100
3722,note_on,6,0,2,,,,,,,,,1,,,,76,100
3722,note_on,9,0,12,,,,,,,,,11,,,,60,112
3723,note_on,11,0,6,,,,,,,,,5,,,,52,100
3725,note_on,9,0,13,,,,,,,,,12,,,,57,112
3727,note_on,0,0,4,,,,,,,,,3,,,,60,100
3727,note_on,0,0,4,,,,,,,,,3,,,,57,100
3727,note_on,120,0,14,,,,,,,,,13,,,,52,0
3727,control_change,7,0,11,,,,,,,,,10,11,57,,,
3727,control_change,0,0,4,,,,,,,,,3,11,54,,,
3727,note_on,15,0,4,,,,,,,,,3,,,,56,0
3727,note_on,0,0,4,,,,,,,,,3,,,,59,0
3728,control_change,7,0,5,,,,,,,,,4,11,60,,,
3729,note_on,120,0,15,,,,,,,,,14,,,,40,0
3729,control_change,7,0,12,,,,,,,,,11,11,57,,,
3730,control_change,7,0,6,,,,,,,,,5,11,60,,,
3732,control_change,7,0,13,,,,,,,,,12,11,57,,,
3735,control_change,13,0,2,,,,,,,,,1,11,75,,,
3743,control_change,16,0,11,,,,,,,,,10,11,59,,,
3744,control_change,16,0,5,,,,,,,,,4,11,61,,,
3745,control_change,16,0,12,,,,,,,,,11,11,59,,,
3746,control_change,16,0,6,,,,,,,,,5,11,61,,,
3748,control_change,16,0,13,,,,,,,,,12,11,59,,,
3750,note_on,7,0,11,,,,,,,,,10,,,,64,0
3750,control_change,23,0,4,,,,,,,,,3,11,56,,,
3752,note_on,7,0,12,,,,,,,,,11,,,,60,0
3755,note_on,7,0,13,,,,,,,,,12,,,,57,0
3759,control_change,9,0,11,,,,,,,,,10,11,60,,,
3760,control_change,16,0,5,,,,,,,,,4,11,62,,,
3761,control_change,9,0,12,,,,,,,,,11,11,60,,,
3762,control_change,16,0,6,,,,,,,,,5,11,62,,,
3764,control_change,9,0,13,,,,,,,,,12,11,60,,,
3766,control_change,16,0,4,,,,,,,,,3,11,57,,,
3775,control_change,16,0,11,,,,,,,,,10,11,62,,,
3776,control_change,16,0,5,,,,,,,,,4,11,63,,,
3777,control_change,16,0,12,,,,,,,,,11,11,62,,,
3777,control_change,42,0,2,,,,,,,,,1,11,76,,,
3778,control_change,16,0,6,,,,,,,,,5,11,63,,,
3780,set_tempo,60,1,0,,,,,,1111111,,,,,,,,
3780,control_change,16,0,13,,,,,,,,,12,11,62,,,
3780,note_on,5,0,11,,,,,,,,,10,,,,64,112
3782,note_on,5,0,12,,,,,,,,,11,,,,60,112
3782,control_change,16,0,4,,,,,,,,,3,11,58,,,
3785,note_on,5,0,13,,,,,,,,,12,,,,57,112
3791,control_change,11,0,11,,,,,,,,,10,11,64,,,
3792,control_change,16,0,5,,,,,,,,,4,11,64,,,
3793,control_change,11,0,12,,,,,,,,,11,11,64,,,
3794,control_change,16,0,6,,,,,,,,,5,11,64,,,
3796,control_change,11,0,13,,,,,,,,,12,11,64,,,
3798,control_change,16,0,4,,,,,,,,,3,11,59,,,
3807,control_change,16,0,11,,,,,,,,,10,11,65,,,
3808,control_change,16,0,5,,,,,,,,,4,11,65,,,
3809,control_change,16,0,12,,,,,,,,,11,11,65,,,
3810,note_on,3,0,11,,,,,,,,,10,,,,64,0
3810,control_change,16,0,6,,,,,,,,,5,11,65,,,
3812,control_change,16,0,13,,,,,,,,,12,11,65,,,
3812,note_on,3,0,12,,,,,,,,,11,,,,60,0
3814,control_change,16,0,4,,,,,,,,,3,11,60,,,
3815,note_on,3,0,13,,,,,,,,,12,,,,57,0
3823,control_change,13,0,11,,,,,,,,,10,11,67,,,
3824,control_change,16,0,5,,,,,,,,,4,11,66,,,
3825,control_change,13,0,12,,,,,,,,,11,11,67,,,
3825,control_change,48,0,2,,,,,,,,,1,11,78,,,
3826,note_on,2,0,5,,,,,,,,,4,,,,64,0
3826,control_change,16,0,6,,,,,,,,,5,11,66,,,
3827,note_on,2,0,2,,,,,,,,,1,,,,76,0
3828,note_on,2,0,6,,,,,,,,,5,,,,52,0
3828,control_change,13,0,13,,,,,,,,,12,11,67,,,
3830,control_change,16,0,4,,,,,,,,,3,11,61,,,
3839,control_change,16,0,11,,,,,,,,,10,11,69,,,
3840,control_change,14,0,5,,,,,,,,,4,11,67,,,
3840,set_tempo,60,1,0,,,,,,1200000,,,,,,,,
3840,note_on,1,0,11,,,,,,,,,10,,,,64,112
3841,control_change,16,0,12,,,,,,,,,11,11,69,,,
3841,note_on,1,0,5,,,,,,,,,4,,,,64,100
3842,note_on,1,0,12,,,,,,,,,11,,,,62,112
3842,control_change,15,0,2,,,,,,,,,1,11,78,,,
3842,note_on,0,0,2,,,,,,,,,1,,,,76,100
3842,control_change,14,0,6,,,,,,,,,5,11,67,,,
3843,note_on,1,0,6,,,,,,,,,5,,,,52,100
3844,control_change,16,0,13,,,,,,,,,12,11,69,,,
3845,note_on,1,0,13,,,,,,,,,12,,,,59,112
3846,control_change,16,0,4,,,,,,,,,3,11,62,,,
3847,note_on,1,0,4,,,,,,,,,3,,,,57,0
3847,note_on,0,0,4,,,,,,,,,3,,,,60,0
3847,note_on,0,0,4,,,,,,,,,3,,,,62,100
3847,note_on,0,0,4,,,,,,,,,3,,,,59,100
3855,control_change,15,0,11,,,,,,,,,10,11,67,,,
3856,control_change,15,0,5,,,,,,,,,4,11,66,,,
3857,control_change,15,0,12,,,,,,,,,11,11,67,,,
3858,control_change,15,0,6,,,,,,,,,5,11,66,,,
3860,control_change,15,0,13,,,,,,,,,12,11,67,,,
3862,control_change,15,0,4,,,,,,,,,3,11,61,,,
3863,control_change,21,0,2,,,,,,,,,1,11,75,,,
3870,note_on,15,0,11,,,,,,,,,10,,,,64,0
3871,control_change,1,0,11,,,,,,,,,10,11,65,,,
3872,control_change,16,0,5,,,,,,,,,4,11,65,,,
3872,note_on,15,0,12,,,,,,,,,11,,,,62,0
3873,control_change,1,0,12,,,,,,,,,11,11,65,,,
3874,control_change,16,0,6,,,,,,,,,5,11,65,,,
3875,note_on,15,0,13,,,,,,,,,12,,,,59,0
3876,control_change,1,0,13,,,,,,,,,12,11,65,,,
3878,control_change,16,0,4,,,,,,,,,3,11,60,,,
3878,control_change,15,0,2,,,,,,,,,1,11,74,,,
3887,control_change,16,0,11,,,,,,,,,10,11,64,,,
3888,control_change,16,0,5,,,,,,,,,4,11,64,,,
3889,control_change,16,0,12,,,,,,,,,11,11,64,,,
3890,control_change,16,0,6,,,,,,,,,5,11,64,,,
3892,control_change,16,0,13,,,,,,,,,12,11,64,,,
3894,control_change,16,0,4,,,,,,,,,3,11,59,,,
3899,control_change,21,0,2,,,,,,,,,1,11,72,,,
3900,note_on,13,0,11,,,,,,,,,10,,,,64,112
3900,set_tempo,60,1,0,,,,,,1111111,,,,,,,,
3902,note_on,13,0,12,,,,,,,,,11,,,,62,112
3903,control_change,3,0,11,,,,,,,,,10,11,62,,,
3904,control_change,16,0,5,,,,,,,,,4,11,63,,,
3905,note_on,13,0,13,,,,,,,,,12,,,,59,112
3905,control_change,3,0,12,,,,,,,,,11,11,62,,,
3906,control_change,16,0,6,,,,,,,,,5,11,63,,,
3908,control_change,3,0,13,,,,,,,,,12,11,62,,,
3910,control_change,16,0,4,,,,,,,,,3,11,58,,,
3914,control_change,15,0,2,,,,,,,,,1,11,70,,,
3919,control_change,16,0,11,,,,,,,,,10,11,60,,,
3920,control_change,16,0,5,,,,,,,,,4,11,62,,,
3921,control_change,16,0,12,,,,,,,,,11,11,60,,,
3922,control_change,16,0,6,,,,,,,,,5,11,62,,,
3924,control_change,16,0,13,,,,,,,,,12,11,60,,,
3926,control_change,16,0,4,,,,,,,,,3,11,57,,,
3930,note_on,11,0,11,,,,,,,,,10,,,,64,0
3932,note_on,11,0,12,,,,,,,,,11,,,,62,0
3935,note_on,11,0,13,,,,,,,,,12,,,,59,0
3935,control_change,5,0,11,,,,,,,,,10,11,59,,,
3936,control_change,22,0,2,,,,,,,,,1,11,68,,,
3936,control_change,16,0,5,,,,,,,,,4,11,61,,,
3937,control_change,5,0,12,,,,,,,,,11,11,59,,,
3938,control_change,16,0,6,,,,,,,,,5,11,61,,,
3940,control_change,5,0,13,,,,,,,,,12,11,59,,,
3942,control_change,16,0,4,,,,,,,,,3,11,56,,,
3946,note_on,10,0,5,,,,,,,,,4,,,,64,0
3947,note_on,11,0,2,,,,,,,,,1,,,,76,0
3948,note_on,10,0,6,,,,,,,,,5,,,,52,0
3951,control_change,16,0,11,,,,,,,,,10,11,57,,,
3952,control_change,6,0,5,,,,,,,,,4,11,60,,,
3953,control_change,16,0,12,,,,,,,,,11,11,57,,,
3954,control_change,6,0,6,,,,,,,,,5,11,60,,,
3956,control_change,16,0,13,,,,,,,,,12,11,57,,,
3957,control_change,10,0,2,,,,,,,,,1,11,66,,,
3958,control_change,16,0,4,,,,,,,,,3,11,55,,,
3960,set_tempo,60,1,0,,,,,,1188119,,,,,,,,
3960,note_on,9,0,11,,,,,,,,,10,,,,64,112
3961,note_on,9,0,5,,,,,,,,,4,,,,64,100
3962,note_on,9,0,12,,,,,,,,,11,,,,60,112
3962,note_on,5,0,2,,,,,,,,,1,,,,76,100
3963,note_on,9,0,6,,,,,,,,,5,,,,52,100
3965,note_on,9,0,13,,,,,,,,,12,,,,57,112
3967,note_on,9,0,4,,,,,,,,,3,,,,59,0
3967,control_change,7,0,11,,,,,,,,,10,11,56,,,
3967,note_on,0,0,4,,,,,,,,,3,,,,62,0
3967,note_on,0,0,4,,,,,,,,,3,,,,57,100
3967,note_on,0,0,4,,,,,,,,,3,,,,60,100
3968,control_change,7,0,5,,,,,,,,,4,11,59,,,
3969,control_change,7,0,12,,,,,,,,,11,11,56,,,
3970,control_change,7,0,6,,,,,,,,,5,11,59,,,
3972,control_change,7,0,13,,,,,,,,,12,11,56,,,
3972,control_change,10,0,2,,,,,,,,,1,11,64,,,
3974,control_change,7,0,4,,,,,,,,,3,11,54,,,
3983,control_change,16,0,11,,,,,,,,,10,11,55,,,
3984,control_change,16,0,5,,,,,,,,,4,11,58,,,
3985,control_change,16,0,12,,,,,,,,,11,11,55,,,
3986,control_change,16,0,6,,,,,,,,,5,11,58,,,
3988,control_change,16,0,13,,,,,,,,,12,11,55,,,
3990,control_change,16,0,4,,,,,,,,,3,11,53,,,
3990,note_on,7,0,11,,,,,,,,,10,,,,64,0
3992,note_on,7,0,12,,,,,,,,,11,,,,60,0
3994,control_change,22,0,2,,,,,,,,,1,11,62,,,
3995,note_on,7,0,13,,,,,,,,,12,,,,57,0
3999,control_change,9,0,11,,,,,,,,,10,11,53,,,
4000,control_change,16,0,5,,,,,,,,,4,11,57,,,
4001,control_change,9,0,12,,,,,,,,,11,11,53,,,
4002,control_change,16,0,6,,,,,,,,,5,11,57,,,
4004,control_change,9,0,13,,,,,,,,,12,11,53,,,
4006,control_change,16,0,4,,,,,,,,,3,11,52,,,
4015,control_change,16,0,11,,,,,,,,,10,11,51,,,
4015,control_change,21,0,2,,,,,,,,,1,11,60,,,
4016,control_change,16,0,5,,,,,,,,,4,11,56,,,
4017,control_change,16,0,12,,,,,,,,,11,11,51,,,
4018,control_change,16,0,6,,,,,,,,,5,11,56,,,
4020,set_tempo,60,1,0,,,,,,1111111,,,,,,,,
4020,note_on,5,0,11,,,,,,,,,10,,,,64,112
4020,control_change,16,0,13,,,,,,,,,12,11,51,,,
4022,control_change,16,0,4,,,,,,,,,3,11,51,,,
4022,note_on,5,0,12,,,,,,,,,11,,,,60,112
4025,note_on,5,0,13,,,,,,,,,12,,,,56,112
4027,note_on,0,0,4,,,,,,,,,3,,,,56,100
4027,note_on,0,0,4,,,,,,,,,3,,,,59,100
4027,note_on,0,0,4,,,,,,,,,3,,,,60,0
4027,note_on,5,0,4,,,,,,,,,3,,,,57,0
4030,control_change,15,0,2,,,,,,,,,1,11,58,,,
4031,control_change,11,0,11,,,,,,,,,10,11,50,,,
4032,control_change,16,0,5,,,,,,,,,4,11,55,,,
4033,control_change,11,0,12,,,,,,,,,11,11,50,,,
4034,control_change,16,0,6,,,,,,,,,5,11,55,,,
4036,control_change,11,0,13,,,,,,,,,12,11,50,,,
4038,control_change,11,0,4,,,,,,,,,3,11,50,,,
4047,control_change,16,0,11,,,,,,,,,10,11,48,,,
4048,control_change,16,0,5,,,,,,,,,4,11,54,,,
4049,control_change,16,0,12,,,,,,,,,11,11,48,,,
4050,control_change,16,0,6,,,,,,,,,5,11,54,,,
4050,set_tempo,30,1,0,,,,,,1395349,,,,,,,,
4050,note_on,3,0,11,,,,,,,,,10,,,,64,0
4052,control_change,22,0,2,,,,,,,,,1,11,56,,,
4052,note_on,3,0,12,,,,,,,,,11,,,,60,0
4052,control_change,16,0,13,,,,,,,,,12,11,48,,,
4054,control_change,16,0,4,,,,,,,,,3,11,49,,,
4055,note_on,3,0,13,,,,,,,,,12,,,,56,0
4063,control_change,13,0,11,,,,,,,,,10,11,46,,,
4064,control_change,16,0,5,,,,,,,,,4,11,53,,,
4065,set_tempo,15,1,0,,,,,,1764706,,,,,,,,
4065,control_change,13,0,12,,,,,,,,,11,11,46,,,
4066,control_change,16,0,6,,,,,,,,,5,11,53,,,
4066,note_on,2,0,5,,,,,,,,,4,,,,64,0
4067,note_on,15,0,2,,,,,,,,,1,,,,76,0
4068,note_on,2,0,6,,,,,,,,,5,,,,52,0
4068,control_change,13,0,13,,,,,,,,,12,11,46,,,
4070,control_change,16,0,4,,,,,,,,,3,11,48,,,
4073,control_change,6,0,2,,,,,,,,,1,11,53,,,
4079,control_change,16,0,11,,,,,,,,,10,11,45,,,
4080,control_change,14,0,5,,,,,,,,,4,11,52,,,
4080,set_tempo,15,1,0,,,,,,1200000,,,,,,,,
4080,note_on,0,0,11,,,,,,,,,10,,,,64,112
4080,control_change,1,0,11,,,,,,,,,10,11,41,,,
4081,control_change,16,0,12,,,,,,,,,11,11,45,,,
4082,control_change,1,0,12,,,,,,,,,11,11,41,,,
4082,note_on,0,0,12,,,,,,,,,11,,,,60,112
4082,control_change,14,0,6,,,,,,,,,5,11,52,,,
4082,control_change,4050,0,3,,,,,,,,,2,11,47,,,
4082,note_on,0,0,3,,,,,,,,,2,,,,76,101
4082,note_on,0,0,2,,,,,,,,,1,,,,76,100
4082,control_change,9,0,2,,,,,,,,,1,11,47,,,
4084,control_change,16,0,13,,,,,,,,,12,11,45,,,
4085,note_on,0,0,13,,,,,,,,,12,,,,57,112
4085,control_change,1,0,13,,,,,,,,,12,11,41,,,
4086,control_change,16,0,4,,,,,,,,,3,11,47,,,
4087,note_on,0,0,14,,,,,,,,,13,,,,45,112
4087,note_on,0,0,4,,,,,,,,,3,,,,57,100
4087,note_on,0,0,4,,,,,,,,,3,,,,60,100
4087,note_on,0,0,4,,,,,,,,,3,,,,56,0
4087,control_change,360,0,14,,,,,,,,,13,11,45,,,
4087,note_on,1,0,4,,,,,,,,,3,,,,59,0
4089,note_on,0,0,15,,,,,,,,,14,,,,33,112
4089,control_change,360,0,15,,,,,,,,,14,11,45,,,
4091,control_change,9,0,3,,,,,,,,,2,11,50,,,
4091,control_change,9,0,2,,,,,,,,,1,11,50,,,
4100,control_change,9,0,3,,,,,,,,,2,11,53,,,
4100,control_change,9,0,2,,,,,,,,,1,11,53,,,
4109,control_change,9,0,3,,,,,,,,,2,11,56,,,
4109,control_change,9,0,2,,,,,,,,,1,11,56,,,
4110,note_on,30,0,11,,,,,,,,,10,,,,64,0
4112,note_on,30,0,12,,,,,,,,,11,,,,60,0
4115,note_on,30,0,13,,,,,,,,,12,,,,57,0
4117,note_on,30,0,14,,,,,,,,,13,,,,45,0
4119,note_on,30,0,15,,,,,,,,,14,,,,33,0
4140,note_on,30,0,11,,,,,,,,,10,,,,64,112
4140,set_tempo,60,1,0,,,,,,1111111,,,,,,,,
4142,note_on,30,0,12,,,,,,,,,11,,,,60,112
4145,note_on,30,0,13,,,,,,,,,12,,,,57,112
4147,note_on,0,0,4,,,,,,,,,3,,,,60,0
4147,note_on,60,0,4,,,,,,,,,3,,,,57,0
4170,note_on,30,0,11,,,,,,,,,10,,,,64,0
4172,note_on,30,0,12,,,,,,,,,11,,,,60,0
4175,note_on,30,0,13,,,,,,,,,12,,,,57,0
4200,note_on,30,0,11,,,,,,,,,10,,,,60,112
4200,set_tempo,60,1,0,,,,,,1188119,,,,,,,,
4202,note_on,0,0,2,,,,,,,,,1,,,,74,100
4202,note_on,93,0,2,,,,,,,,,1,,,,76,0
4202,note_on,0,0,3,,,,,,,,,2,,,,74,101
4202,note_on,93,0,3,,,,,,,,,2,,,,76,0
4202,note_on,30,0,12,,,,,,,,,11,,,,60,112
4205,note_on,30,0,13,,,,,,,,,12,,,,57,112
4212,note_on,0,0,3,,,,,,,,,2,,,,72,101
4212,note_on,0,0,2,,,,,,,,,1,,,,72,100
4212,note_on,10,0,3,,,,,,,,,2,,,,74,0
4212,note_on,10,0,2,,,,,,,,,1,,,,74,0
4230,note_on,30,0,11,,,,,,,,,10,,,,60,0
4232,note_on,20,0,2,,,,,,,,,1,,,,72,0
4232,note_on,30,0,12,,,,,,,,,11,,,,60,0
4232,note_on,20,0,3,,,,,,,,,2,,,,72,0
4235,note_on,30,0,13,,,,,,,,,12,,,,57,0
4247,note_on,15,0,3,,,,,,,,,2,,,,71,101
4247,note_on,15,0,2,,,,,,,,,1,,,,71,100
4254,note_on,7,0,3,,,,,,,,,2,,,,71,0
4254,note_on,7,0,2,,,,,,,,,1,,,,71,0
4260,note_on,30,0,11,,,,,,,,,10,,,,62,112
4260,set_tempo,60,1,0,,,,,,1111111,,,,,,,,
4262,note_on,30,0,12,,,,,,,,,11,,,,59,112
4262,note_on,8,0,2,,,,,,,,,1,,,,72,100
4262,note_on,8,0,3,,,,,,,,,2,,,,72,101
4265,note_on,30,0,13,,,,,,,,,12,,,,57,112
4290,note_on,30,0,11,,,,,,,,,10,,,,62,0
4292,note_on,30,0,12,,,,,,,,,11,,,,59,0
4292,note_on,30,0,3,,,,,,,,,2,,,,72,0
4292,note_on,30,0,2,,,,,,,,,1,,,,72,0
4295,note_on,30,0,13,,,,,,,,,12,,,,57,0
4307,note_on,15,0,3,,,,,,,,,2,,,,74,101
4307,note_on,15,0,2,,,,,,,,,1,,,,74,100
4315,note_on,8,0,3,,,,,,,,,2,,,,74,0
4315,note_on,8,0,2,,,,,,,,,1,,,,74,0
4320,set_tempo,60,1,0,,,,,,1200000,,,,,,,,
4320,note_on,30,0,11,,,,,,,,,10,,,,64,112
4322,note_on,30,0,12,,,,,,,,,11,,,,60,112
4322,note_on,7,0,2,,,,,,,,,1,,,,76,100
4322,note_on,7,0,3,,,,,,,,,2,,,,76,101
4325,note_on,30,0,13,,,,,,,,,12,,,,57,112
4327,note_on,210,0,14,,,,,,,,,13,,,,45,112
4329,note_on,210,0,15,,,,,,,,,14,,,,33,112
4350,note_on,30,0,11,,,,,,,,,10,,,,64,0
4352,note_on,30,0,12,,,,,,,,,11,,,,60,0
4355,note_on,30,0,13,,,,,,,,,12,,,,57,0
4357,note_on,30,0,14,,,,,,,,,13,,,,45,0
4359,note_on,30,0,15,,,,,,,,,14,,,,33,0
4380,set_tempo,60,1,0,,,,,,1111111,,,,,,,,
4380,note_on,30,0,11,,,,,,,,,10,,,,64,112
4382,note_on,60,0,2,,,,,,,,,1,,,,76,0
4382,note_on,0,0,2,,,,,,,,,1,,,,81,100
4382,note_on,30,0,12,,,,,,,,,11,,,,60,112
4382,note_on,0,0,3,,,,,,,,,2,,,,81,101
4382,note_on,60,0,3,,,,,,,,,2,,,,76,0
4385,note_on,30,0,13,,,,,,,,,12,,,,57,112
4410,note_on,30,0,11,,,,,,,,,10,,,,64,0
4412,note_on,30,0,12,,,,,,,,,11,,,,60,0
4412,note_on,30,0,3,,,,,,,,,2,,,,81,0
4412,note_on,30,0,2,,,,,,,,,1,,,,81,0
4415,note_on,30,0,13,,,,,,,,,12,,,,57,0
4440,note_on,30,0,11,,,,,,,,,10,,,,64,112
4440,set_tempo,60,1,0,,,,,,1188119,,,,,,,,
4442,note_on,30,0,2,,,,,,,,,1,,,,72,100
4442,note_on,30,0,12,,,,,,,,,11,,,,60,112
4442,note_on,30,0,3,,,,,,,,,2,,,,72,101
4445,note_on,30,0,13,,,,,,,,,12,,,,52,112
4447,note_on,90,0,14,,,,,,,,,13,,,,45,112
4449,note_on,90,0,15,,,,,,,,,14,,,,33,112
4470,note_on,30,0,11,,,,,,,,,10,,,,64,0
4472,note_on,30,0,2,,,,,,,,,1,,,,72,0
4472,note_on,30,0,12,,,,,,,,,11,,,,60,0
4472,note_on,30,0,3,,,,,,,,,2,,,,72,0
4475,note_on,30,0,13,,,,,,,,,12,,,,52,0
4477,note_on,30,0,14,,,,,,,,,13,,,,45,0
4479,note_on,30,0,15,,,,,,,,,14,,,,33,0
4500,set_tempo,60,1,0,,,,,,1111111,,,,,,,,
4500,note_on,30,0,11,,,,,,,,,10,,,,65,112
4502,note_on,30,0,2,,,,,,,,,1,,,,76,81
4502,note_on,30,0,12,,,,,,,,,11,,,,59,112
4502,note_on,30,0,3,,,,,,,,,2,,,,76,91
4505,note_on,30,0,13,,,,,,,,,12,,,,55,112
4507,note_on,5,0,2,,,,,,,,,1,,,,76,0
4507,note_on,0,0,2,,,,,,,,,1,,,,74,81
4507,note_on,30,0,14,,,,,,,,,13,,,,41,112
4509,note_on,30,0,15,,,,,,,,,14,,,,29,112
4512,note_on,5,0,2,,,,,,,,,1,,,,74,0
4512,note_on,0,0,2,,,,,,,,,1,,,,76,81
4512,note_on,10,0,3,,,,,,,,,2,,,,76,0
4512,note_on,0,0,3,,,,,,,,,2,,,,74,91
4517,note_on,0,0,2,,,,,,,,,1,,,,74,81
4517,note_on,5,0,2,,,,,,,,,1,,,,76,0
4522,note_on,10,0,3,,,,,,,,,2,,,,74,0
4522,note_on,0,0,3,,,,,,,,,2,,,,76,91
4522,note_on,5,0,2,,,,,,,,,1,,,,74,0
4522,note_on,0,0,2,,,,,,,,,1,,,,76,81
4527,note_on,5,0,2,,,,,,,,,1,,,,76,0
4527,note_on,0,0,2,,,,,,,,,1,,,,74,81
4530,note_on,30,0,11,,,,,,,,,10,,,,65,0
4532,note_on,0,0,3,,,,,,,,,2,,,,74,91
4532,note_on,30,0,12,,,,,,,,,11,,,,59,0
4532,note_on,5,0,2,,,,,,,,,1,,,,74,0
4532,note_on,0,0,2,,,,,,,,,1,,,,76,81
4532,note_on,10,0,3,,,,,,,,,2,,,,76,0
4535,note_on,30,0,13,,,,,,,,,12,,,,55,0
4537,note_on,30,0,14,,,,,,,,,13,,,,41,0
4537,note_on,5,0,2,,,,,,,,,1,,,,76,0
4537,note_on,0,0,2,,,,,,,,,1,,,,74,81
4539,note_on,30,0,15,,,,,,,,,14,,,,29,0
4542,note_on,0,0,3,,,,,,,,,2,,,,76,91
4542,note_on,0,0,2,,,,,,,,,1,,,,76,81
4542,note_on,5,0,2,,,,,,,,,1,,,,74,0
4542,note_on,10,0,3,,,,,,,,,2,,,,74,0
4547,note_on,0,0,2,,,,,,,,,1,,,,74,81
4547,note_on,5,0,2,,,,,,,,,1,,,,76,0
4552,note_on,10,0,3,,,,,,,,,2,,,,76,0
4552,note_on,0,0,3,,,,,,,,,2,,,,74,91
4552,note_on,0,0,2,,,,,,,,,1,,,,76,81
4552,note_on,5,0,2,,,,,,,,,1,,,,74,0
4557,note_on,0,0,2,,,,,,,,,1,,,,74,81
4557,note_on,5,0,2,,,,,,,,,1,,,,76,0
4560,note_on,30,0,11,,,,,,,,,10,,,,64,112
4560,set_tempo,60,1,0,,,,,,1200000,,,,,,,,
4562,note_on,0,0,2,,,,,,,,,1,,,,76,110
4562,note_on,10,0,3,,,,,,,,,2,,,,74,0
4562,note_on,0,0,3,,,,,,,,,2,,,,76,111
4562,note_on,5,0,2,,,,,,,,,1,,,,74,0
4562,note_on,30,0,12,,,,,,,,,11,,,,60,112
4565,note_on,30,0,13,,,,,,,,,12,,,,55,112
4567,note_on,30,0,14,,,,,,,,,13,,,,48,112
4569,note_on,30,0,15,,,,,,,,,14,,,,36,112
4590,note_on,30,0,11,,,,,,,,,10,,,,64,0
4592,note_on,30,0,12,,,,,,,,,11,,,,60,0
4595,note_on,30,0,13,,,,,,,,,12,,,,55,0
4620,note_on,30,0,11,,,,,,,,,10,,,,64,112
4620,set_tempo,60,1,0,,,,,,1111111,,,,,,,,
4622,note_on,30,0,12,,,,,,,,,11,,,,60,112
4625,note_on,30,0,13,,,,,,,,,12,,,,55,112
4627,note_on,60,0,14,,,,,,,,,13,,,,48,0
4629,note_on,60,0,15,,,,,,,,,14,,,,36,0
4650,note_on,30,0,11,,,,,,,,,10,,,,64,0
4652,note_on,30,0,12,,,,,,,,,11,,,,60,0
4655,note_on,30,0,13,,,,,,,,,12,,,,55,0
4672,note_on,110,0,3,,,,,,,,,2,,,,76,0
4672,note_on,110,0,2,,,,,,,,,1,,,,76,0
4680,note_on,30,0,11,,,,,,,,,10,,,,64,112
4680,set_tempo,60,1,0,,,,,,1188119,,,,,,,,
4682,note_on,30,0,12,,,,,,,,,11,,,,60,112
4682,note_on,10,0,2,,,,,,,,,1,,,,76,110
4682,note_on,10,0,3,,,,,,,,,2,,,,76,111
4685,note_on,30,0,13,,,,,,,,,12,,,,55,112
4687,note_on,60,0,14,,,,,,,,,13,,,,48,112
4689,note_on,60,0,15,,,,,,,,,14,,,,36,112
4710,note_on,30,0,11,,,,,,,,,10,,,,64,0
4712,note_on,30,0,12,,,,,,,,,11,,,,60,0
4715,note_on,30,0,13,,,,,,,,,12,,,,55,0
4740,note_on,30,0,11,,,,,,,,,10,,,,64,112
4740,set_tempo,60,1,0,,,,,,1111111,,,,,,,,
4742,note_on,30,0,12,,,,,,,,,11,,,,60,112
4745,note_on,30,0,13,,,,,,,,,12,,,,55,112
4747,note_on,60,0,14,,,,,,,,,13,,,,48,0
4749,note_on,60,0,15,,,,,,,,,14,,,,36,0
4770,note_on,30,0,11,,,,,,,,,10,,,,64,0
4772,note_on,30,0,12,,,,,,,,,11,,,,60,0
4775,note_on,30,0,13,,,,,,,,,12,,,,55,0
4792,note_on,110,0,3,,,,,,,,,2,,,,76,0
4792,note_on,110,0,2,,,,,,,,,1,,,,76,0
4800,note_on,30,0,11,,,,,,,,,10,,,,65,112
4800,set_tempo,60,1,0,,,,,,1200000,,,,,,,,
4802,note_on,30,0,12,,,,,,,,,11,,,,62,112
4802,note_on,10,0,2,,,,,,,,,1,,,,77,110
4802,note_on,10,0,3,,,,,,,,,2,,,,77,111
4805,note_on,30,0,13,,,,,,,,,12,,,,55,112
4807,note_on,60,0,14,,,,,,,,,13,,,,47,122
4809,note_on,60,0,15,,,,,,,,,14,,,,35,122
4830,note_on,30,0,11,,,,,,,,,10,,,,65,0
4832,note_on,30,0,12,,,,,,,,,11,,,,62,0
4835,note_on,30,0,13,,,,,,,,,12,,,,55,0
4860,set_tempo,60,1,0,,,,,,1111111,,,,,,,,
4860,note_on,30,0,11,,,,,,,,,10,,,,65,112
4862,note_on,30,0,12,,,,,,,,,11,,,,62,112
4865,note_on,30,0,13,,,,,,,,,12,,,,55,112
4867,note_on,60,0,14,,,,,,,,,13,,,,47,0
4869,note_on,60,0,15,,,,,,,,,14,,,,35,0
4890,note_on,30,0,11,,,,,,,,,10,,,,65,0
4892,note_on,30,0,12,,,,,,,,,11,,,,62,0
4895,note_on,30,0,13,,,,,,,,,12,,,,55,0
4920,set_tempo,60,1,0,,,,,,1188119,,,,,,,,
4920,note_on,30,0,11,,,,,,,,,10,,,,65,112
4922,note_on,0,0,3,,,,,,,,,2,,,,81,101
4922,note_on,120,0,2,,,,,,,,,1,,,,77,0
4922,note_on,0,0,2,,,,,,,,,1,,,,81,100
4922,note_on,120,0,3,,,,,,,,,2,,,,77,0
4922,note_on,30,0,12,,,,,,,,,11,,,,62,112
4925,note_on,30,0,13,,,,,,,,,12,,,,55,112
4927,note_on,60,0,14,,,,,,,,,13,,,,47,112
4929,note_on,60,0,15,,,,,,,,,14,,,,35,112
4950,note_on,30,0,11,,,,,,,,,10,,,,65,0
4952,note_on,30,0,12,,,,,,,,,11,,,,62,0
4955,note_on,30,0,13,,,,,,,,,12,,,,55,0
4967,note_on,45,0,3,,,,,,,,,2,,,,81,0
4967,note_on,45,0,2,,,,,,,,,1,,,,81,0
4967,note_on,0,0,2,,,,,,,,,1,,,,80,100
4967,note_on,0,0,3,,,,,,,,,2,,,,80,101
4980,note_on,30,0,11,,,,,,,,,10,,,,65,112
4980,set_tempo,60,1,0,,,,,,1111111,,,,,,,,
4982,note_on,0,0,2,,,,,,,,,1,,,,81,100
4982,note_on,0,0,3,,,,,,,,,2,,,,81,101
4982,note_on,15,0,2,,,,,,,,,1,,,,80,0
4982,note_on,15,0,3,,,,,,,,,2,,,,80,0
4982,note_on,30,0,12,,,,,,,,,11,,,,62,112
4985,note_on,30,0,13,,,,,,,,,12,,,,55,112
4987,note_on,60,0,14,,,,,,,,,13,,,,47,0
4989,note_on,60,0,15,,,,,,,,,14,,,,35,0
5010,note_on,30,0,11,,,,,,,,,10,,,,65,0
5012,note_on,30,0,12,,,,,,,,,11,,,,62,0
5015,note_on,30,0,13,,,,,,,,,12,,,,55,0
5027,note_on,0,0,2,,,,,,,,,1,,,,77,100
5027,note_on,45,0,3,,,,,,,,,2,,,,81,0
5027,note_on,45,0,2,,,,,,,,,1,,,,81,0
5027,note_on,0,0,3,,,,,,,,,2,,,,77,101
5035,note_on,8,0,2,,,,,,,,,1,,,,77,0
5035,note_on,8,0,3,,,,,,,,,2,,,,77,0
5040,set_tempo,60,1,0,,,,,,1200000,,,,,,,,
5040,note_on,30,0,11,,,,,,,,,10,,,,64,112
5042,note_on,30,0,12,,,,,,,,,11,,,,60,112
5045,note_on,30,0,13,,,,,,,,,12,,,,55,112
5047,note_on,60,0,14,,,,,,,,,13,,,,48,122
5049,note_on,14,0,3,,,,,,,,,2,,,,76,111
5049,note_on,60,0,15,,,,,,,,,14,,,,36,122
5049,note_on,14,0,2,,,,,,,,,1,,,,76,110
5070,note_on,30,0,11,,,,,,,,,10,,,,64,0
5072,note_on,30,0,12,,,,,,,,,11,,,,60,0
5075,note_on,30,0,13,,,,,,,,,12,,,,55,0
5100,set_tempo,60,1,0,,,,,,1111111,,,,,,,,
5100,note_on,30,0,11,,,,,,,,,10,,,,64,112
5102,note_on,30,0,12,,,,,,,,,11,,,,60,112
5105,note_on,30,0,13,,,,,,,,,12,,,,55,112
5107,note_on,60,0,14,,,,,,,,,13,,,,48,0
5109,note_on,60,0,15,,,,,,,,,14,,,,36,0
5130,note_on,30,0,11,,,,,,,,,10,,,,64,0
5132,note_on,30,0,12,,,,,,,,,11,,,,60,0
5135,note_on,30,0,13,,,,,,,,,12,,,,55,0
5160,set_tempo,60,1,0,,,,,,1188119,,,,,,,,
5160,note_on,30,0,11,,,,,,,,,10,,,,64,112
5162,note_on,30,0,12,,,,,,,,,11,,,,60,112
5162,note_on,113,0,3,,,,,,,,,2,,,,79,101
5162,note_on,113,0,2,,,,,,,,,1,,,,79,100
5165,note_on,30,0,13,,,,,,,,,12,,,,55,112
5167,note_on,60,0,14,,,,,,,,,13,,,,48,112
5169,note_on,60,0,15,,,,,,,,,14,,,,36,112
5169,note_on,7,0,3,,,,,,,,,2,,,,76,0
5169,note_on,7,0,2,,,,,,,,,1,,,,76,0
5190,note_on,30,0,11,,,,,,,,,10,,,,64,0
5192,note_on,30,0,12,,,,,,,,,11,,,,60,0
5195,note_on,30,0,13,,,,,,,,,12,,,,55,0
5207,note_on,0,0,2,,,,,,,,,1,,,,78,100
5207,note_on,38,0,3,,,,,,,,,2,,,,79,0
5207,note_on,38,0,2,,,,,,,,,1,,,,79,0
5207,note_on,0,0,3,,,,,,,,,2,,,,78,101
5220,note_on,30,0,11,,,,,,,,,10,,,,64,112
5220,set_tempo,60,1,0,,,,,,1111111,,,,,,,,
5222,note_on,15,0,2,,,,,,,,,1,,,,78,0
5222,note_on,0,0,2,,,,,,,,,1,,,,79,100
5222,note_on,15,0,3,,,,,,,,,2,,,,78,0
5222,note_on,30,0,12,,,,,,,,,11,,,,60,112
5222,note_on,0,0,3,,,,,,,,,2,,,,79,101
5225,note_on,30,0,13,,,,,,,,,12,,,,55,112
5227,note_on,60,0,14,,,,,,,,,13,,,,48,0
5229,note_on,60,0,15,,,,,,,,,14,,,,36,0
5250,note_on,30,0,11,,,,,,,,,10,,,,64,0
5252,note_on,30,0,12,,,,,,,,,11,,,,60,0
5255,note_on,30,0,13,,,,,,,,,12,,,,55,0
5267,note_on,0,0,2,,,,,,,,,1,,,,76,100
5267,note_on,45,0,3,,,,,,,,,2,,,,79,0
5267,note_on,0,0,3,,,,,,,,,2,,,,76,101
5267,note_on,45,0,2,,,,,,,,,1,,,,79,0
5275,note_on,8,0,2,,,,,,,,,1,,,,76,0
5275,note_on,8,0,3,,,,,,,,,2,,,,76,0
5280,note_on,30,0,11,,,,,,,,,10,,,,64,112
5280,set_tempo,60,1,0,,,,,,1200000,,,,,,,,
5282,note_on,7,0,2,,,,,,,,,1,,,,72,100
5282,note_on,30,0,12,,,,,,,,,11,,,,60,112
5282,note_on,7,0,3,,,,,,,,,2,,,,72,101
5285,note_on,30,0,13,,,,,,,,,12,,,,57,112
5287,note_on,60,0,14,,,,,,,,,13,,,,45,112
5289,note_on,60,0,15,,,,,,,,,14,,,,33,112
5310,note_on,30,0,11,,,,,,,,,10,,,,64,0
5312,note_on,30,0,2,,,,,,,,,1,,,,72,0
5312,note_on,30,0,3,,,,,,,,,2,,,,72,0
5312,note_on,30,0,12,,,,,,,,,11,,,,60,0
5315,note_on,30,0,13,,,,,,,,,12,,,,57,0
5340,set_tempo,60,1,0,,,,,,1111111,,,,,,,,
5340,note_on,30,0,11,,,,,,,,,10,,,,64,112
5342,note_on,30,0,3,,,,,,,,,2,,,,72,101
5342,note_on,30,0,12,,,,,,,,,11,,,,60,112
5342,note_on,30,0,2,,,,,,,,,1,,,,72,100
5345,note_on,30,0,13,,,,,,,,,12,,,,57,112
5347,note_on,60,0,14,,,,,,,,,13,,,,45,0
5349,note_on,60,0,15,,,,,,,,,14,,,,33,0
5370,note_on,30,0,11,,,,,,,,,10,,,,64,0
5372,note_on,30,0,12,,,,,,,,,11,,,,60,0
5375,note_on,30,0,13,,,,,,,,,12,,,,57,0
5400,note_on,30,0,11,,,,,,,,,10,,,,65,112
5400,set_tempo,60,1,0,,,,,,1188119,,,,,,,,
5402,note_on,60,0,3,,,,,,,,,2,,,,72,0
5402,note_on,30,0,12,,,,,,,,,11,,,,59,112
5402,note_on,0,0,2,,,,,,,,,1,,,,71,100
5402,note_on,60,0,2,,,,,,,,,1,,,,72,0
5402,note_on,0,0,3,,,,,,,,,2,,,,71,101
5405,note_on,30,0,13,,,,,,,,,12,,,,57,112
5407,note_on,60,0,14,,,,,,,,,13,,,,50,112
5409,note_on,60,0,15,,,,,,,,,14,,,,38,112
5422,note_on,15,0,14,,,,,,,,,13,,,,50,0
5424,note_on,15,0,15,,,,,,,,,14,,,,38,0
5425,note_on,23,0,3,,,,,,,,,2,,,,71,0
5425,note_on,23,0,2,,,,,,,,,1,,,,71,0
5430,note_on,30,0,11,,,,,,,,,10,,,,65,0
5432,note_on,7,0,3,,,,,,,,,2,,,,72,101
5432,note_on,7,0,2,,,,,,,,,1,,,,72,100
5432,note_on,30,0,12,,,,,,,,,11,,,,59,0
5435,note_on,30,0,13,,,,,,,,,12,,,,57,0
5437,note_on,15,0,14,,,,,,,,,13,,,,52,112
5439,note_on,15,0,15,,,,,,,,,14,,,,40,112
5452,note_on,15,0,14,,,,,,,,,13,,,,52,0
5454,note_on,15,0,15,,,,,,,,,14,,,,40,0
5455,note_on,23,0,2,,,,,,,,,1,,,,72,0
5455,note_on,23,0,3,,,,,,,,,2,,,,72,0
5460,note_on,30,0,11,,,,,,,,,10,,,,65,112
5460,set_tempo,60,1,0,,,,,,1111111,,,,,,,,
5462,note_on,7,0,3,,,,,,,,,2,,,,74,101
5462,note_on,7,0,2,,,,,,,,,1,,,,74,100
5462,note_on,30,0,12,,,,,,,,,11,,,,59,112
5465,note_on,30,0,13,,,,,,,,,12,,,,57,112
5467,note_on,15,0,14,,,,,,,,,13,,,,53,112
5469,note_on,15,0,15,,,,,,,,,14,,,,41,112
5482,note_on,15,0,14,,,,,,,,,13,,,,53,0
5484,note_on,15,0,15,,,,,,,,,14,,,,41,0
5485,note_on,23,0,3,,,,,,,,,2,,,,74,0
5485,note_on,23,0,2,,,,,,,,,1,,,,74,0
5490,note_on,30,0,11,,,,,,,,,10,,,,65,0
5492,note_on,7,0,3,,,,,,,,,2,,,,77,101
5492,note_on,7,0,2,,,,,,,,,1,,,,77,100
5492,note_on,30,0,12,,,,,,,,,11,,,,59,0
5495,note_on,30,0,13,,,,,,,,,12,,,,57,0
5497,note_on,15,0,14,,,,,,,,,13,,,,50,112
5499,note_on,15,0,15,,,,,,,,,14,,,,38,112
5512,note_on,15,0,14,,,,,,,,,13,,,,50,0
5514,note_on,15,0,15,,,,,,,,,14,,,,38,0
5515,note_on,23,0,2,,,,,,,,,1,,,,77,0
5515,note_on,23,0,3,,,,,,,,,2,,,,77,0
5520,note_on,0,0,11,,,,,,,,,10,,,,64,112
5520,set_tempo,60,1,0,,,,,,1224490,,,,,,,,
5520,control_change,30,0,11,,,,,,,,,10,11,41,,,
5522,control_change,30,0,12,,,,,,,,,11,11,41,,,
5522,note_on,7,0,3,,,,,,,,,2,,,,77,101
5522,note_on,0,0,12,,,,,,,,,11,,,,60,112
5522,note_on,7,0,2,,,,,,,,,1,,,,77,100
5525,control_change,30,0,13,,,,,,,,,12,11,41,,,
5525,note_on,0,0,13,,,,,,,,,12,,,,57,112
5527,note_on,15,0,14,,,,,,,,,13,,,,52,112
5529,note_on,15,0,15,,,,,,,,,14,,,,40,112
5532,note_on,10,0,2,,,,,,,,,1,,,,77,0
5532,note_on,10,0,3,,,,,,,,,2,,,,77,0
5532,note_on,0,0,3,,,,,,,,,2,,,,76,111
5532,note_on,0,0,2,,,,,,,,,1,,,,76,110
5536,control_change,16,0,11,,,,,,,,,10,11,42,,,
5538,control_change,16,0,12,,,,,,,,,11,11,42,,,
5541,control_change,16,0,13,,,,,,,,,12,11,42,,,
5550,note_on,14,0,11,,,,,,,,,10,,,,64,0
5552,control_change,2,0,11,,,,,,,,,10,11,45,,,
5552,note_on,14,0,12,,,,,,,,,11,,,,60,0
5554,control_change,2,0,12,,,,,,,,,11,11,45,,,
5555,note_on,14,0,13,,,,,,,,,12,,,,57,0
5557,control_change,2,0,13,,,,,,,,,12,11,45,,,
5568,control_change,16,0,11,,,,,,,,,10,11,48,,,
5569,note_on,37,0,2,,,,,,,,,1,,,,76,0
5569,note_on,37,0,3,,,,,,,,,2,,,,76,0
5570,control_change,16,0,12,,,,,,,,,11,11,48,,,
5573,control_change,16,0,13,,,,,,,,,12,11,48,,,
5580,note_on,12,0,11,,,,,,,,,10,,,,64,112
5580,set_tempo,60,1,0,,,,,,1165049,,,,,,,,
5582,note_on,13,0,2,,,,,,,,,1,,,,76,100
5582,note_on,12,0,12,,,,,,,,,11,,,,62,112
5582,note_on,13,0,3,,,,,,,,,2,,,,76,101
5584,control_change,4,0,11,,,,,,,,,10,11,51,,,
5585,note_on,12,0,13,,,,,,,,,12,,,,59,112
5586,control_change,4,0,12,,,,,,,,,11,11,51,,,
5587,note_on,60,0,14,,,,,,,,,13,,,,52,0
5589,control_change,4,0,13,,,,,,,,,12,11,51,,,
5589,note_on,60,0,15,,,,,,,,,14,,,,40,0
5600,control_change,16,0,11,,,,,,,,,10,11,54,,,
5602,control_change,16,0,12,,,,,,,,,11,11,54,,,
5605,control_change,16,0,13,,,,,,,,,12,11,54,,,
5610,note_on,10,0,11,,,,,,,,,10,,,,64,0
5612,note_on,10,0,12,,,,,,,,,11,,,,62,0
5615,note_on,10,0,13,,,,,,,,,12,,,,59,0
5616,control_change,6,0,11,,,,,,,,,10,11,57,,,
5618,control_change,6,0,12,,,,,,,,,11,11,57,,,
5621,control_change,6,0,13,,,,,,,,,12,11,57,,,
5629,note_on,47,0,2,,,,,,,,,1,,,,76,0
5629,note_on,47,0,3,,,,,,,,,2,,,,76,0
5632,control_change,16,0,11,,,,,,,,,10,11,59,,,
5634,control_change,16,0,12,,,,,,,,,11,11,59,,,
5637,control_change,16,0,13,,,,,,,,,12,11,59,,,
5640,note_on,8,0,11,,,,,,,,,10,,,,64,112
5640,set_tempo,60,1,0,,,,,,1276596,,,,,,,,
5642,note_on,13,0,3,,,,,,,,,2,,,,77,101
5642,note_on,13,0,2,,,,,,,,,1,,,,77,100
5642,note_on,8,0,12,,,,,,,,,11,,,,60,112
5645,note_on,8,0,13,,,,,,,,,12,,,,57,112
5647,control_change,7,0,11,,,,,,,,,10,11,59,,,
5647,note_on,60,0,14,,,,,,,,,13,,,,52,112
5649,control_change,7,0,12,,,,,,,,,11,11,59,,,
5649,note_on,60,0,15,,,,,,,,,14,,,,40,112
5652,control_change,7,0,13,,,,,,,,,12,11,59,,,
5652,note_on,10,0,3,,,,,,,,,2,,,,77,0
5652,note_on,0,0,3,,,,,,,,,2,,,,76,111
5652,note_on,0,0,2,,,,,,,,,1,,,,76,110
5652,note_on,10,0,2,,,,,,,,,1,,,,77,0
5663,control_change,16,0,11,,,,,,,,,10,11,57,,,
5665,control_change,16,0,12,,,,,,,,,11,11,57,,,
5668,control_change,16,0,13,,,,,,,,,12,11,57,,,
5670,note_on,7,0,11,,,,,,,,,10,,,,64,0
5672,note_on,7,0,12,,,,,,,,,11,,,,60,0
5675,note_on,7,0,13,,,,,,,,,12,,,,57,0
5679,control_change,9,0,11,,,,,,,,,10,11,54,,,
5681,control_change,9,0,12,,,,,,,,,11,11,54,,,
5684,control_change,9,0,13,,,,,,,,,12,11,54,,,
5689,note_on,37,0,2,,,,,,,,,1,,,,76,0
5689,note_on,37,0,3,,,,,,,,,2,,,,76,0
5692,note_on,45,0,14,,,,,,,,,13,,,,52,0
5694,note_on,45,0,15,,,,,,,,,14,,,,40,0
5695,control_change,16,0,11,,,,,,,,,10,11,51,,,
5697,control_change,16,0,12,,,,,,,,,11,11,51,,,
5700,set_tempo,60,1,0,,,,,,1224490,,,,,,,,
5700,control_change,16,0,13,,,,,,,,,12,11,51,,,
5700,note_on,5,0,11,,,,,,,,,10,,,,64,112
5702,note_on,13,0,2,,,,,,,,,1,,,,76,100
5702,note_on,13,0,3,,,,,,,,,2,,,,76,101
5702,note_on,5,0,12,,,,,,,,,11,,,,59,112
5705,note_on,5,0,13,,,,,,,,,12,,,,56,112
5707,note_on,15,0,14,,,,,,,,,13,,,,52,112
5709,note_on,15,0,15,,,,,,,,,14,,,,40,112
5711,control_change,11,0,11,,,,,,,,,10,11,48,,,
5713,control_change,11,0,12,,,,,,,,,11,11,48,,,
5716,control_change,11,0,13,,,,,,,,,12,11,48,,,
5727,control_change,16,0,11,,,,,,,,,10,11,45,,,
5729,control_change,16,0,12,,,,,,,,,11,11,45,,,
5730,set_tempo,30,1,0,,,,,,1500000,,,,,,,,
5730,note_on,3,0,11,,,,,,,,,10,,,,64,0
5732,note_on,3,0,12,,,,,,,,,11,,,,59,0
5732,control_change,16,0,13,,,,,,,,,12,11,45,,,
5735,note_on,3,0,13,,,,,,,,,12,,,,56,0
5743,control_change,13,0,11,,,,,,,,,10,11,42,,,
5745,control_change,13,0,12,,,,,,,,,11,11,42,,,
5745,set_tempo,15,1,0,,,,,,1621622,,,,,,,,
5748,control_change,13,0,13,,,,,,,,,12,11,42,,,
5749,note_on,47,0,3,,,,,,,,,2,,,,76,0
5749,note_on,47,0,2,,,,,,,,,1,,,,76,0
5752,note_on,45,0,14,,,,,,,,,13,,,,52,0
5754,note_on,45,0,15,,,,,,,,,14,,,,40,0
5759,control_change,16,0,11,,,,,,,,,10,11,41,,,
5760,note_on,1,0,11,,,,,,,,,10,,,,57,92
5760,set_tempo,15,1,0,,,,,,1200000,,,,,,,,
5761,control_change,16,0,12,,,,,,,,,11,11,41,,,
5762,note_on,13,0,3,,,,,,,,,2,,,,69,101
5762,note_on,1,0,12,,,,,,,,,11,,,,61,92
5762,note_on,0,0,2,,,,,,,,,1,,,,69,100
5762,control_change,13,0,2,,,,,,,,,1,11,42,,,
5764,control_change,16,0,13,,,,,,,,,12,11,41,,,
5765,note_on,1,0,13,,,,,,,,,12,,,,57,112
5767,control_change,15,0,14,,,,,,,,,13,11,41,,,
5767,note_on,0,0,14,,,,,,,,,13,,,,45,112
5769,control_change,15,0,15,,,,,,,,,14,11,41,,,
5769,note_on,0,0,15,,,,,,,,,14,,,,33,112
5776,control_change,14,0,2,,,,,,,,,1,11,45,,,
5790,control_change,14,0,2,,,,,,,,,1,11,48,,,
5805,control_change,15,0,2,,,,,,,,,1,11,51,,,
5819,control_change,14,0,2,,,,,,,,,1,11,54,,,
5820,note_on,60,0,11,,,,,,,,,10,,,,57,0
5820,set_tempo,60,1,0,,,,,,1153846,,,,,,,,
5822,note_on,60,0,12,,,,,,,,,11,,,,61,0
5822,note_on,0,0,12,,,,,,,,,11,,,,64,112
5822,note_on,60,0,3,,,,,,,,,2,,,,69,0
5825,note_on,60,0,13,,,,,,,,,12,,,,57,0
5825,note_on,0,0,13,,,,,,,,,12,,,,52,112
5834,control_change,15,0,2,,,,,,,,,1,11,57,,,
5862,control_change,28,0,2,,,,,,,,,1,11,61,,,
5877,control_change,15,0,2,,,,,,,,,1,11,63,,,
5880,set_tempo,60,1,0,,,,,,1188119,,,,,,,,
5882,note_on,0,0,2,,,,,,,,,1,,,,71,100
5882,note_on,5,0,2,,,,,,,,,1,,,,69,0
5882,note_on,0,0,12,,,,,,,,,11,,,,62,112
5882,note_on,60,0,12,,,,,,,,,11,,,,64,0
5885,note_on,60,0,13,,,,,,,,,12,,,,52,0
5885,note_on,0,0,13,,,,,,,,,12,,,,56,112
5910,note_on,90,0,11,,,,,,,,,10,,,,64,112
5940,note_on,0,0,11,,,,,,,,,10,,,,76,92
5940,set_tempo,60,1,0,,,,,,1111111,,,,,,,,
5940,note_on,30,0,11,,,,,,,,,10,,,,64,0
5942,note_on,60,0,12,,,,,,,,,11,,,,62,0
5942,note_on,0,0,12,,,,,,,,,11,,,,64,112
5945,note_on,60,0,13,,,,,,,,,12,,,,56,0
5945,note_on,0,0,13,,,,,,,,,12,,,,52,112
5970,note_on,0,0,11,,,,,,,,,10,,,,64,112
5970,note_on,30,0,11,,,,,,,,,10,,,,76,0
5997,note_on,55,0,12,,,,,,,,,11,,,,64,0
6000,note_on,30,0,11,,,,,,,,,10,,,,64,0
6000,note_on,0,0,11,,,,,,,,,10,,,,76,92
6000,note_on,55,0,13,,,,,,,,,12,,,,52,0
6000,set_tempo,60,1,0,,,,,,1200000,,,,,,,,
6002,note_on,0,0,2,,,,,,,,,1,,,,73,110
6002,note_on,120,0,2,,,,,,,,,1,,,,71,0
6002,note_on,5,0,12,,,,,,,,,11,,,,61,112
6005,note_on,5,0,13,,,,,,,,,12,,,,57,112
6060,set_tempo,60,1,0,,,,,,1111111,,,,,,,,
6060,note_on,0,0,11,,,,,,,,,10,,,,64,112
6060,note_on,60,0,11,,,,,,,,,10,,,,76,0
6062,note_on,60,0,2,,,,,,,,,1,,,,73,0
6062,note_on,0,0,2,,,,,,,,,1,,,,74,100
6062,note_on,0,0,12,,,,,,,,,11,,,,62,112
6062,note_on,60,0,12,,,,,,,,,11,,,,61,0
6065,note_on,60,0,13,,,,,,,,,12,,,,57,0
6065,note_on,0,0,13,,,,,,,,,12,,,,59,112
6090,note_on,30,0,11,,,,,,,,,10,,,,64,0
6092,note_on,30,0,2,,,,,,,,,1,,,,74,0
6092,note_on,0,0,2,,,,,,,,,1,,,,76,100
6092,note_on,0,0,12,,,,,,,,,11,,,,64,112
6092,note_on,30,0,12,,,,,,,,,11,,,,62,0
6095,note_on,30,0,13,,,,,,,,,12,,,,59,0
6095,note_on,0,0,13,,,,,,,,,12,,,,61,112
6117,note_on,25,0,2,,,,,,,,,1,,,,76,0
6120,set_tempo,60,1,0,,,,,,1188119,,,,,,,,
6122,note_on,5,0,2,,,,,,,,,1,,,,76,100
6122,note_on,0,0,12,,,,,,,,,11,,,,64,112
6122,note_on,30,0,12,,,,,,,,,11,,,,64,0
6125,note_on,30,0,13,,,,,,,,,12,,,,61,0
6125,note_on,0,0,13,,,,,,,,,12,,,,61,112
6150,note_on,60,0,11,,,,,,,,,10,,,,64,112
6180,note_on,30,0,11,,,,,,,,,10,,,,64,0
6180,set_tempo,60,1,0,,,,,,1111111,,,,,,,,
6180,note_on,0,0,11,,,,,,,,,10,,,,76,92
6182,note_on,0,0,12,,,,,,,,,11,,,,62,112
6182,note_on,60,0,12,,,,,,,,,11,,,,64,0
6182,note_on,60,0,2,,,,,,,,,1,,,,76,0
6182,note_on,0,0,2,,,,,,,,,1,,,,68,100
6185,note_on,60,0,13,,,,,,,,,12,,,,61,0
6185,note_on,0,0,13,,,,,,,,,12,,,,59,112
6187,note_on,420,0,14,,,,,,,,,13,,,,45,0
6187,note_on,0,0,14,,,,,,,,,13,,,,45,112
6187,control_change,0,0,14,,,,,,,,,13,11,55,,,
6189,note_on,420,0,15,,,,,,,,,14,,,,33,0
6189,control_change,0,0,15,,,,,,,,,14,11,55,,,
6189,note_on,0,0,15,,,,,,,,,14,,,,33,112
6197,note_on,10,0,14,,,,,,,,,13,,,,45,0
6199,note_on,10,0,15,,,,,,,,,14,,,,33,0
6202,note_on,5,0,14,,,,,,,,,13,,,,45,112
6204,note_on,5,0,15,,,,,,,,,14,,,,33,112
6210,note_on,30,0,11,,,,,,,,,10,,,,76,0
6210,note_on,0,0,11,,,,,,,,,10,,,,64,112
6212,note_on,10,0,14,,,,,,,,,13,,,,45,0
6214,note_on,10,0,15,,,,,,,,,14,,,,33,0
6217,note_on,5,0,14,,,,,,,,,13,,,,45,112
6219,note_on,5,0,15,,,,,,,,,14,,,,33,112
6227,note_on,10,0,14,,,,,,,,,13,,,,45,0
6229,note_on,10,0,15,,,,,,,,,14,,,,33,0
6232,note_on,5,0,14,,,,,,,,,13,,,,45,112
6234,note_on,5,0,15,,,,,,,,,14,,,,33,112
6237,note_on,55,0,2,,,,,,,,,1,,,,68,0
6237,note_on,55,0,12,,,,,,,,,11,,,,62,0
6240,set_tempo,60,1,0,,,,,,1200000,,,,,,,,
6240,note_on,0,0,11,,,,,,,,,10,,,,73,92
6240,note_on,30,0,11,,,,,,,,,10,,,,64,0
6240,note_on,55,0,13,,,,,,,,,12,,,,59,0
6242,note_on,10,0,14,,,,,,,,,13,,,,45,0
6242,note_on,5,0,12,,,,,,,,,11,,,,61,112
6242,note_on,5,0,2,,,,,,,,,1,,,,69,100
6244,note_on,10,0,15,,,,,,,,,14,,,,33,0
6245,note_on,5,0,13,,,,,,,,,12,,,,57,112
6247,control_change,5,0,14,,,,,,,,,13,11,41,,,
6247,note_on,0,0,14,,,,,,,,,13,,,,45,112
6249,control_change,5,0,15,,,,,,,,,14,11,41,,,
6249,note_on,0,0,15,,,,,,,,,14,,,,33,112
6300,set_tempo,60,1,0,,,,,,1111111,,,,,,,,
6300,note_on,0,0,11,,,,,,,,,10,,,,64,112
6300,note_on,60,0,11,,,,,,,,,10,,,,73,0
6302,note_on,60,0,12,,,,,,,,,11,,,,61,0
6302,note_on,0,0,12,,,,,,,,,11,,,,64,112
6305,note_on,0,0,13,,,,,,,,,12,,,,52,112
6305,note_on,60,0,13,,,,,,,,,12,,,,57,0
6330,note_on,30,0,11,,,,,,,,,10,,,,64,0
6360,set_tempo,60,1,0,,,,,,1188119,,,,,,,,
6362,note_on,60,0,12,,,,,,,,,11,,,,64,0
6362,note_on,0,0,12,,,,,,,,,11,,,,62,112
6362,note_on,120,0,2,,,,,,,,,1,,,,69,0
6362,note_on,0,0,2,,,,,,,,,1,,,,71,100
6365,note_on,0,0,13,,,,,,,,,12,,,,56,112
6365,note_on,60,0,13,,,,,,,,,12,,,,52,0
6390,note_on,60,0,11,,,,,,,,,10,,,,64,112
6420,note_on,0,0,11,,,,,,,,,10,,,,76,92
6420,set_tempo,60,1,0,,,,,,1111111,,,,,,,,
6420,note_on,30,0,11,,,,,,,,,10,,,,64,0
6422,note_on,60,0,12,,,,,,,,,11,,,,62,0
6422,note_on,0,0,12,,,,,,,,,11,,,,64,112
6425,note_on,0,0,13,,,,,,,,,12,,,,52,112
6425,note_on,60,0,13,,,,,,,,,12,,,,56,0
6450,note_on,0,0,11,,,,,,,,,10,,,,64,112
6450,note_on,30,0,11,,,,,,,,,10,,,,76,0
6480,note_on,30,0,11,,,,,,,,,10,,,,64,0
6480,set_tempo,60,1,0,,,,,,1200000,,,,,,,,
6480,note_on,0,0,11,,,,,,,,,10,,,,76,92
6482,note_on,0,0,3,,,,,,,,,2,,,,69,101
6482,control_change,660,0,3,,,,,,,,,2,11,64,,,
6482,note_on,0,0,2,,,,,,,,,1,,,,73,100
6482,note_on,0,0,12,,,,,,,,,11,,,,61,112
6482,note_on,60,0,12,,,,,,,,,11,,,,64,0
6482,note_on,120,0,2,,,,,,,,,1,,,,71,0
6485,note_on,60,0,13,,,,,,,,,12,,,,52,0
6485,note_on,0,0,13,,,,,,,,,12,,,,57,112
6540,set_tempo,60,1,0,,,,,,1111111,,,,,,,,
6540,note_on,60,0,11,,,,,,,,,10,,,,76,0
6540,note_on,0,0,11,,,,,,,,,10,,,,64,112
6542,note_on,60,0,12,,,,,,,,,11,,,,61,0
6542,note_on,0,0,12,,,,,,,,,11,,,,64,112
6545,note_on,60,0,13,,,,,,,,,12,,,,57,0
6545,note_on,0,0,13,,,,,,,,,12,,,,52,112
6570,note_on,30,0,11,,,,,,,,,10,,,,64,0
6600,set_tempo,60,1,0,,,,,,1188119,,,,,,,,
6602,note_on,0,0,2,,,,,,,,,1,,,,76,100
6602,note_on,120,0,2,,,,,,,,,1,,,,73,0
6602,note_on,0,0,12,,,,,,,,,11,,,,62,112
6602,note_on,120,0,3,,,,,,,,,2,,,,69,0
6602,note_on,0,0,3,,,,,,,,,2,,,,71,101
6602,note_on,60,0,12,,,,,,,,,11,,,,64,0
6605,note_on,0,0,13,,,,,,,,,12,,,,56,112
6605,note_on,60,0,13,,,,,,,,,12,,,,52,0
6630,note_on,60,0,11,,,,,,,,,10,,,,64,112
6660,note_on,30,0,11,,,,,,,,,10,,,,64,0
6660,set_tempo,60,1,0,,,,,,1111111,,,,,,,,
6660,note_on,0,0,11,,,,,,,,,10,,,,76,92
6662,note_on,0,0,12,,,,,,,,,11,,,,64,112
6662,note_on,60,0,12,,,,,,,,,11,,,,62,0
6665,note_on,60,0,13,,,,,,,,,12,,,,56,0
6665,note_on,0,0,13,,,,,,,,,12,,,,52,112
6667,control_change,0,0,14,,,,,,,,,13,11,55,,,
6667,note_on,420,0,14,,,,,,,,,13,,,,45,0
6667,note_on,0,0,14,,,,,,,,,13,,,,45,112
6669,note_on,0,0,15,,,,,,,,,14,,,,33,112
6669,control_change,0,0,15,,,,,,,,,14,11,55,,,
6669,note_on,420,0,15,,,,,,,,,14,,,,33,0
6677,note_on,10,0,14,,,,,,,,,13,,,,45,0
6679,note_on,10,0,15,,,,,,,,,14,,,,33,0
6682,note_on,5,0,14,,,,,,,,,13,,,,45,112
6684,note_on,5,0,15,,,,,,,,,14,,,,33,112
6690,note_on,0,0,11,,,,,,,,,10,,,,64,112
6690,note_on,30,0,11,,,,,,,,,10,,,,76,0
6692,note_on,10,0,14,,,,,,,,,13,,,,45,0
6694,note_on,10,0,15,,,,,,,,,14,,,,33,0
6697,note_on,5,0,14,,,,,,,,,13,,,,45,112
6699,note_on,5,0,15,,,,,,,,,14,,,,33,112
6707,note_on,10,0,14,,,,,,,,,13,,,,45,0
6709,note_on,10,0,15,,,,,,,,,14,,,,33,0
6712,note_on,5,0,14,,,,,,,,,13,,,,45,112
6714,note_on,5,0,15,,,,,,,,,14,,,,33,112
6717,note_on,55,0,12,,,,,,,,,11,,,,64,0
6717,note_on,115,0,2,,,,,,,,,1,,,,76,0
6717,note_on,115,0,3,,,,,,,,,2,,,,71,0
6720,note_on,30,0,11,,,,,,,,,10,,,,64,0
6720,note_on,0,0,11,,,,,,,,,10,,,,76,92
6720,note_on,55,0,13,,,,,,,,,12,,,,52,0
6720,set_tempo,60,1,0,,,,,,1200000,,,,,,,,
6722,note_on,10,0,14,,,,,,,,,13,,,,45,0
6722,note_on,5,0,2,,,,,,,,,1,,,,81,110
6722,note_on,5,0,12,,,,,,,,,11,,,,61,112
6722,note_on,5,0,3,,,,,,,,,2,,,,73,111
6724,note_on,10,0,15,,,,,,,,,14,,,,33,0
6725,note_on,5,0,13,,,,,,,,,12,,,,57,112
6727,control_change,5,0,14,,,,,,,,,13,11,41,,,
6727,note_on,0,0,14,,,,,,,,,13,,,,45,112
6729,control_change,5,0,15,,,,,,,,,14,11,41,,,
6729,note_on,0,0,15,,,,,,,,,14,,,,33,112
6780,note_on,60,0,11,,,,,,,,,10,,,,76,0
6780,set_tempo,60,1,0,,,,,,1121495,,,,,,,,
6780,note_on,0,0,11,,,,,,,,,10,,,,64,112
6782,note_on,0,0,2,,,,,,,,,1,,,,83,100
6782,note_on,0,0,12,,,,,,,,,11,,,,64,112
6782,note_on,60,0,12,,,,,,,,,11,,,,61,0
6782,note_on,0,0,3,,,,,,,,,2,,,,74,101
6782,note_on,60,0,3,,,,,,,,,2,,,,73,0
6782,note_on,60,0,2,,,,,,,,,1,,,,81,0
6785,note_on,60,0,13,,,,,,,,,12,,,,57,0
6785,note_on,0,0,13,,,,,,,,,12,,,,52,112
6810,note_on,30,0,11,,,,,,,,,10,,,,64,0
6812,note_on,30,0,2,,,,,,,,,1,,,,83,0
6812,note_on,30,0,3,,,,,,,,,2,,,,74,0
6812,note_on,0,0,2,,,,,,,,,1,,,,85,100
6812,note_on,0,0,3,,,,,,,,,2,,,,76,101
6837,note_on,25,0,3,,,,,,,,,2,,,,76,0
6837,note_on,25,0,2,,,,,,,,,1,,,,85,0
6840,set_tempo,60,1,0,,,,,,1229508,,,,,,,,
6842,note_on,5,0,3,,,,,,,,,2,,,,76,101
6842,note_on,60,0,12,,,,,,,,,11,,,,64,0
6842,note_on,0,0,12,,,,,,,,,11,,,,62,112
6842,note_on,5,0,2,,,,,,,,,1,,,,85,100
6845,note_on,60,0,13,,,,,,,,,12,,,,52,0
6845,note_on,0,0,13,,,,,,,,,12,,,,57,112
6870,note_on,60,0,11,,,,,,,,,10,,,,64,112
6900,note_on,0,0,11,,,,,,,,,10,,,,76,92
6900,note_on,30,0,11,,,,,,,,,10,,,,64,0
6900,set_tempo,60,1,0,,,,,,1165049,,,,,,,,
6902,note_on,0,0,2,,,,,,,,,1,,,,80,100
6902,note_on,60,0,2,,,,,,,,,1,,,,85,0
6902,note_on,0,0,12,,,,,,,,,11,,,,64,112
6902,note_on,60,0,12,,,,,,,,,11,,,,62,0
6902,note_on,0,0,3,,,,,,,,,2,,,,74,101
6902,note_on,60,0,3,,,,,,,,,2,,,,76,0
6905,note_on,0,0,13,,,,,,,,,12,,,,59,112
6905,note_on,60,0,13,,,,,,,,,12,,,,57,0
6907,note_on,0,0,14,,,,,,,,,13,,,,45,112
6907,control_change,0,0,14,,,,,,,,,13,11,55,,,
6907,note_on,180,0,14,,,,,,,,,13,,,,45,0
6909,note_on,180,0,15,,,,,,,,,14,,,,33,0
6909,control_change,0,0,15,,,,,,,,,14,11,55,,,
6909,note_on,0,0,15,,,,,,,,,14,,,,33,112
6917,note_on,10,0,14,,,,,,,,,13,,,,45,0
6919,note_on,10,0,15,,,,,,,,,14,,,,33,0
6922,note_on,5,0,14,,,,,,,,,13,,,,45,112
6924,note_on,5,0,15,,,,,,,,,14,,,,33,112
6930,note_on,30,0,11,,,,,,,,,10,,,,76,0
6930,note_on,0,0,11,,,,,,,,,10,,,,64,112
6932,note_on,10,0,14,,,,,,,,,13,,,,45,0
6934,note_on,10,0,15,,,,,,,,,14,,,,33,0
6937,note_on,5,0,14,,,,,,,,,13,,,,45,112
6939,note_on,5,0,15,,,,,,,,,14,,,,33,112
6942,note_on,40,0,2,,,,,,,,,1,,,,80,0
6947,note_on,10,0,14,,,,,,,,,13,,,,45,0
6949,note_on,10,0,15,,,,,,,,,14,,,,33,0
6952,note_on,5,0,14,,,,,,,,,13,,,,45,112
6954,note_on,5,0,15,,,,,,,,,14,,,,33,112
6957,note_on,55,0,3,,,,,,,,,2,,,,74,0
6960,note_on,30,0,11,,,,,,,,,10,,,,64,0
6960,note_on,0,0,11,,,,,,,,,10,,,,73,112
6960,set_tempo,60,1,0,,,,,,1243523,,,,,,,,
6962,note_on,0,0,3,,,,,,,,,2,,,,73,101
6962,control_change,5,0,3,,,,,,,,,2,11,64,,,
6962,note_on,10,0,14,,,,,,,,,13,,,,45,0
6962,note_on,0,0,2,,,,,,,,,1,,,,81,100
6962,note_on,0,0,12,,,,,,,,,11,,,,61,112
6962,note_on,60,0,12,,,,,,,,,11,,,,64,0
6962,control_change,20,0,2,,,,,,,,,1,11,64,,,
6964,note_on,10,0,15,,,,,,,,,14,,,,33,0
6965,note_on,60,0,13,,,,,,,,,12,,,,59,0
6965,note_on,0,0,13,,,,,,,,,12,,,,57,112
6967,control_change,5,0,14,,,,,,,,,13,11,41,,,
6967,note_on,0,0,14,,,,,,,,,13,,,,45,112
6969,note_on,0,0,15,,,,,,,,,14,,,,33,112
6969,control_change,5,0,15,,,,,,,,,14,11,41,,,
6985,control_change,23,0,2,,,,,,,,,1,11,63,,,
6985,control_change,23,0,3,,,,,,,,,2,11,63,,,
7009,control_change,24,0,2,,,,,,,,,1,11,61,,,
7009,control_change,24,0,3,,,,,,,,,2,11,61,,,
7020,set_tempo,60,1,0,,,,,,1183665,,,,,,,,
7022,note_on,60,0,12,,,,,,,,,11,,,,61,0
7022,note_on,0,0,12,,,,,,,,,11,,,,64,112
7025,note_on,0,0,13,,,,,,,,,12,,,,52,112
7025,note_on,60,0,13,,,,,,,,,12,,,,57,0
7033,control_change,24,0,3,,,,,,,,,2,11,60,,,
7033,control_change,24,0,2,,,,,,,,,1,11,60,,,
7057,control_change,24,0,3,,,,,,,,,2,11,58,,,
7057,control_change,24,0,2,,,,,,,,,1,11,58,,,
7067,note_on,10,0,3,,,,,,,,,2,,,,73,0
7067,note_on,10,0,2,,,,,,,,,1,,,,81,0
7072,note_on,105,0,14,,,,,,,,,13,,,,45,0
7074,note_on,105,0,15,,,,,,,,,14,,,,33,0
7080,set_tempo,60,1,0,,,,,,1268767,,,,,,,,
7081,control_change,14,0,3,,,,,,,,,2,11,57,,,
7081,control_change,14,0,2,,,,,,,,,1,11,57,,,
7082,note_on,0,0,12,,,,,,,,,11,,,,61,112
7082,note_on,60,0,12,,,,,,,,,11,,,,64,0
7082,note_on,1,0,2,,,,,,,,,1,,,,81,100
7082,note_on,1,0,3,,,,,,,,,2,,,,73,101
7085,note_on,60,0,13,,,,,,,,,12,,,,52,0
7085,note_on,0,0,13,,,,,,,,,12,,,,57,112
7087,note_on,15,0,14,,,,,,,,,13,,,,45,112
7089,note_on,15,0,15,,,,,,,,,14,,,,33,112
7105,control_change,23,0,3,,,,,,,,,2,11,55,,,
7105,control_change,23,0,2,,,,,,,,,1,11,55,,,
7129,control_change,24,0,3,,,,,,,,,2,11,53,,,
7129,control_change,24,0,2,,,,,,,,,1,11,53,,,
7140,set_tempo,60,1,0,,,,,,1202646,,,,,,,,
7142,note_on,0,0,12,,,,,,,,,11,,,,57,112
7142,note_on,60,0,12,,,,,,,,,11,,,,61,0
7145,note_on,60,0,13,,,,,,,,,12,,,,57,0
7145,note_on,0,0,13,,,,,,,,,12,,,,61,112
7153,control_change,24,0,3,,,,,,,,,2,11,51,,,
7153,control_change,24,0,2,,,,,,,,,1,11,51,,,
7170,set_tempo,30,1,0,,,,,,1428571,,,,,,,,
7177,control_change,24,0,2,,,,,,,,,1,11,49,,,
7177,control_change,24,0,3,,,,,,,,,2,11,49,,,
7185,note_on,225,0,11,,,,,,,,,10,,,,73,0
7187,note_on,10,0,2,,,,,,,,,1,,,,81,0
7187,note_on,45,0,12,,,,,,,,,11,,,,57,0
7187,note_on,10,0,3,,,,,,,,,2,,,,73,0
7190,note_on,45,0,13,,,,,,,,,12,,,,61,0
7192,note_on,105,0,14,,,,,,,,,13,,,,45,0
7194,note_on,105,0,15,,,,,,,,,14,,,,33,0
7200,note_on,0,0,11,,,,,,,,,10,,,,88,112
7200,control_change,15,0,11,,,,,,,,,10,11,112,,,
7200,set_tempo,30,1,0,,,,,,1165049,,,,,,,,
7201,control_change,7170,0,1,,,,,,,,,0,11,98,,,
7201,note_on,0,0,5,,,,,,,,,4,,,,64,100
7201,control_change,3121,0,5,,,,,,,,,4,11,112,,,
7201,note_on,0,0,1,,,,,,,,,0,,,,80,101
7201,note_on,0,0,1,,,,,,,,,0,,,,88,101
7202,note_on,0,0,3,,,,,,,,,2,,,,71,101
7202,note_on,0,0,12,,,,,,,,,11,,,,80,112
7202,note_on,0,0,12,,,,,,,,,11,,,,71,112
7202,control_change,7170,0,7,,,,,,,,,6,11,112,,,
7202,note_on,0,0,7,,,,,,,,,6,,,,52,112
7202,note_on,0,0,7,,,,,,,,,6,,,,64,112
7202,note_on,0,0,2,,,,,,,,,1,,,,83,100
7202,note_on,0,0,2,,,,,,,,,1,,,,76,100
7202,control_change,15,0,2,,,,,,,,,1,11,98,,,
7202,note_on,0,0,12,,,,,,,,,11,,,,64,112
7202,control_change,15,0,3,,,,,,,,,2,11,98,,,
7202,control_change,15,0,12,,,,,,,,,11,11,112,,,
7202,note_on,0,0,3,,,,,,,,,2,,,,68,101
7203,note_on,0,0,6,,,,,,,,,5,,,,52,100
7203,control_change,3121,0,6,,,,,,,,,5,11,112,,,
7204,control_change,7170,0,8,,,,,,,,,7,11,112,,,
7204,note_on,0,0,8,,,,,,,,,7,,,,59,110
7204,note_on,0,0,8,,,,,,,,,7,,,,56,110
7205,control_change,15,0,13,,,,,,,,,12,11,112,,,
7205,note_on,0,0,13,,,,,,,,,12,,,,59,112
7205,note_on,0,0,13,,,,,,,,,12,,,,52,112
7205,note_on,0,0,13,,,,,,,,,12,,,,68,112
7206,control_change,7170,0,9,,,,,,,,,8,11,112,,,
7206,note_on,0,0,9,,,,,,,,,8,,,,52,110
7207,control_change,15,0,14,,,,,,,,,13,11,112,,,
7207,control_change,7,0,11,,,,,,,,,10,11,109,,,
7207,control_change,3060,0,4,,,,,,,,,3,11,112,,,
7207,note_on,0,0,14,,,,,,,,,13,,,,52,112
7207,note_on,0,0,4,,,,,,,,,3,,,,59,100
7207,note_on,0,0,4,,,,,,,,,3,,,,56,100
7208,note_on,7170,0,10,,,,,,,,,15,,,,52,85
7208,control_change,7,0,5,,,,,,,,,4,11,109,,,
7209,control_change,15,0,15,,,,,,,,,14,11,112,,,
7209,note_on,0,0,15,,,,,,,,,14,,,,40,112
7209,control_change,7,0,7,,,,,,,,,6,11,109,,,
7209,control_change,7,0,12,,,,,,,,,11,11,109,,,
7210,control_change,7,0,6,,,,,,,,,5,11,109,,,
7211,control_change,7,0,8,,,,,,,,,7,11,109,,,
7212,control_change,7,0,13,,,,,,,,,12,11,109,,,
7213,control_change,7,0,9,,,,,,,,,8,11,109,,,
7214,control_change,7,0,4,,,,,,,,,3,11,109,,,
7214,control_change,7,0,14,,,,,,,,,13,11,109,,,
7215,control_change,8,0,11,,,,,,,,,10,11,106,,,
7216,control_change,7,0,15,,,,,,,,,14,11,109,,,
7216,control_change,15,0,1,,,,,,,,,0,11,94,,,
7216,control_change,8,0,5,,,,,,,,,4,11,106,,,
7217,control_change,15,0,3,,,,,,,,,2,11,94,,,
7217,control_change,8,0,7,,,,,,,,,6,11,106,,,
7217,control_change,8,0,12,,,,,,,,,11,11,106,,,
7217,control_change,15,0,2,,,,,,,,,1,11,94,,,
7218,control_change,8,0,6,,,,,,,,,5,11,106,,,
7219,control_change,8,0,8,,,,,,,,,7,11,106,,,
7220,control_change,8,0,13,,,,,,,,,12,11,106,,,
7221,control_change,8,0,9,,,,,,,,,8,11,106,,,
7222,control_change,7,0,11,,,,,,,,,10,11,103,,,
7222,control_change,8,0,4,,,,,,,,,3,11,106,,,
7222,control_change,8,0,14,,,,,,,,,13,11,106,,,
7223,control_change,7,0,5,,,,,,,,,4,11,103,,,
7223,control_change,7,0,1,,,,,,,,,0,11,91,,,
7224,control_change,7,0,3,,,,,,,,,2,11,91,,,
7224,control_change,7,0,12,,,,,,,,,11,11,103,,,
7224,control_change,8,0,15,,,,,,,,,14,11,106,,,
7224,control_change,7,0,2,,,,,,,,,1,11,91,,,
7224,control_change,7,0,7,,,,,,,,,6,11,103,,,
7225,control_change,7,0,6,,,,,,,,,5,11,103,,,
7226,control_change,7,0,8,,,,,,,,,7,11,103,,,
7227,control_change,7,0,13,,,,,,,,,12,11,103,,,
7228,control_change,7,0,9,,,,,,,,,8,11,103,,,
7229,control_change,7,0,14,,,,,,,,,13,11,103,,,
7229,control_change,7,0,4,,,,,,,,,3,11,103,,,
7230,control_change,8,0,11,,,,,,,,,10,11,100,,,
7231,control_change,8,0,5,,,,,,,,,4,11,100,,,
7231,control_change,7,0,15,,,,,,,,,14,11,103,,,
7232,control_change,8,0,7,,,,,,,,,6,11,100,,,
7232,control_change,8,0,12,,,,,,,,,11,11,100,,,
7233,control_change,8,0,6,,,,,,,,,5,11,100,,,
7234,control_change,8,0,8,,,,,,,,,7,11,100,,,
7235,note_on,5,0,11,,,,,,,,,10,,,,88,0
7235,control_change,8,0,13,,,,,,,,,12,11,100,,,
7236,control_change,8,0,9,,,,,,,,,8,11,100,,,
7237,note_on,5,0,12,,,,,,,,,11,,,,64,0
7237,control_change,2,0,11,,,,,,,,,10,11,97,,,
7237,note_on,0,0,12,,,,,,,,,11,,,,80,0
7237,control_change,0,0,14,,,,,,,,,13,11,100,,,
7237,note_on,8,0,14,,,,,,,,,13,,,,52,0
7237,control_change,8,0,4,,,,,,,,,3,11,100,,,
7237,note_on,0,0,12,,,,,,,,,11,,,,71,0
7238,control_change,15,0,1,,,,,,,,,0,11,87,,,
7238,control_change,7,0,5,,,,,,,,,4,11,97,,,
7239,control_change,7,0,7,,,,,,,,,6,11,97,,,
7239,control_change,2,0,12,,,,,,,,,11,11,97,,,
7239,control_change,15,0,2,,,,,,,,,1,11,87,,,
7239,note_on,8,0,15,,,,,,,,,14,,,,40,0
7239,control_change,0,0,15,,,,,,,,,14,11,100,,,
7239,control_change,15,0,3,,,,,,,,,2,11,87,,,
7240,note_on,0,0,13,,,,,,,,,12,,,,59,0
7240,note_on,0,0,13,,,,,,,,,12,,,,68,0
7240,control_change,7,0,6,,,,,,,,,5,11,97,,,
7240,note_on,5,0,13,,,,,,,,,12,,,,52,0
7241,control_change,7,0,8,,,,,,,,,7,11,97,,,
7242,control_change,2,0,13,,,,,,,,,12,11,97,,,
7243,control_change,7,0,9,,,,,,,,,8,11,97,,,
7244,control_change,7,0,4,,,,,,,,,3,11,97,,,
7244,control_change,7,0,14,,,,,,,,,13,11,97,,,
7245,control_change,8,0,11,,,,,,,,,10,11,94,,,
7246,control_change,8,0,5,,,,,,,,,4,11,94,,,
7246,control_change,7,0,15,,,,,,,,,14,11,97,,,
7247,control_change,8,0,7,,,,,,,,,6,11,94,,,
7247,control_change,8,0,12,,,,,,,,,11,11,94,,,
7248,control_change,8,0,6,,,,,,,,,5,11,94,,,
7249,control_change,8,0,8,,,,,,,,,7,11,94,,,
7250,control_change,8,0,13,,,,,,,,,12,11,94,,,
7251,control_change,8,0,9,,,,,,,,,8,11,94,,,
7252,control_change,8,0,14,,,,,,,,,13,11,94,,,
7252,control_change,8,0,4,,,,,,,,,3,11,94,,,
7254,control_change,8,0,15,,,,,,,,,14,11,94,,,
7255,note_on,0,0,1,,,,,,,,,0,,,,88,0
7255,note_on,9,0,5,,,,,,,,,4,,,,64,0
7255,note_on,17,0,1,,,,,,,,,0,,,,80,0
7256,note_on,0,0,3,,,,,,,,,2,,,,68,0
7256,note_on,17,0,3,,,,,,,,,2,,,,71,0
7256,note_on,17,0,2,,,,,,,,,1,,,,76,0
7256,note_on,9,0,7,,,,,,,,,6,,,,64,0
7256,note_on,0,0,7,,,,,,,,,6,,,,52,0
7256,note_on,0,0,2,,,,,,,,,1,,,,83,0
7257,note_on,9,0,6,,,,,,,,,5,,,,52,0
7258,note_on,0,0,8,,,,,,,,,7,,,,59,0
7258,note_on,9,0,8,,,,,,,,,7,,,,56,0
7260,set_tempo,60,1,0,,,,,,1071429,,,,,,,,
7260,note_on,9,0,9,,,,,,,,,8,,,,52,0
7260,note_on,15,0,11,,,,,,,,,10,,,,83,112
7261,note_on,9,0,4,,,,,,,,,3,,,,56,0
7261,note_on,0,0,4,,,,,,,,,3,,,,59,0
7262,note_on,54,0,10,,,,,,,,,15,,,,52,0
7262,note_on,15,0,12,,,,,,,,,11,,,,80,112
7265,note_on,15,0,13,,,,,,,,,12,,,,76,112
7267,note_on,15,0,14,,,,,,,,,13,,,,64,112
7269,note_on,15,0,15,,,,,,,,,14,,,,52,112
7290,note_on,30,0,11,,,,,,,,,10,,,,83,0
7292,note_on,30,0,12,,,,,,,,,11,,,,80,0
7295,note_on,30,0,13,,,,,,,,,12,,,,76,0
7297,note_on,30,0,14,,,,,,,,,13,,,,64,0
7299,note_on,30,0,15,,,,,,,,,14,,,,52,0
7320,set_tempo,60,1,0,,,,,,1142857,,,,,,,,
7320,note_on,30,0,11,,,,,,,,,10,,,,83,112
7322,note_on,30,0,12,,,,,,,,,11,,,,81,112
7325,note_on,30,0,13,,,,,,,,,12,,,,75,112
7327,note_on,30,0,14,,,,,,,,,13,,,,66,112
7329,note_on,30,0,15,,,,,,,,,14,,,,54,112
7350,note_on,30,0,11,,,,,,,,,10,,,,83,0
7352,note_on,30,0,12,,,,,,,,,11,,,,81,0
7355,note_on,30,0,13,,,,,,,,,12,,,,75,0
7357,note_on,30,0,14,,,,,,,,,13,,,,66,0
7359,note_on,30,0,15,,,,,,,,,14,,,,54,0
7380,set_tempo,60,1,0,,,,,,1071429,,,,,,,,
7380,note_on,30,0,11,,,,,,,,,10,,,,83,112
7382,note_on,30,0,12,,,,,,,,,11,,,,81,112
7385,note_on,30,0,13,,,,,,,,,12,,,,75,112
7387,note_on,30,0,14,,,,,,,,,13,,,,59,112
7389,note_on,30,0,15,,,,,,,,,14,,,,47,112
7410,note_on,30,0,11,,,,,,,,,10,,,,83,0
7412,note_on,30,0,12,,,,,,,,,11,,,,81,0
7415,note_on,30,0,13,,,,,,,,,12,,,,75,0
7417,note_on,30,0,14,,,,,,,,,13,,,,59,0
7419,note_on,30,0,15,,,,,,,,,14,,,,47,0
7440,note_on,30,0,11,,,,,,,,,10,,,,83,112
7440,set_tempo,60,1,0,,,,,,1165049,,,,,,,,
7442,note_on,30,0,12,,,,,,,,,11,,,,80,112
7445,note_on,30,0,13,,,,,,,,,12,,,,76,112
7447,note_on,30,0,14,,,,,,,,,13,,,,64,112
7449,note_on,30,0,15,,,,,,,,,14,,,,52,112
7470,note_on,30,0,11,,,,,,,,,10,,,,83,0
7472,note_on,30,0,12,,,,,,,,,11,,,,80,0
7475,note_on,30,0,13,,,,,,,,,12,,,,76,0
7485,note_on,15,0,11,,,,,,,,,10,,,,81,112
7487,note_on,15,0,12,,,,,,,,,11,,,,78,112
7490,note_on,15,0,13,,,,,,,,,12,,,,76,112
7496,note_on,11,0,11,,,,,,,,,10,,,,81,0
7498,note_on,11,0,12,,,,,,,,,11,,,,78,0
7500,set_tempo,60,1,0,,,,,,1071429,,,,,,,,
7500,note_on,4,0,11,,,,,,,,,10,,,,83,112
7501,note_on,11,0,13,,,,,,,,,12,,,,76,0
7502,note_on,4,0,12,,,,,,,,,11,,,,80,112
7505,note_on,4,0,13,,,,,,,,,12,,,,76,112
7507,note_on,60,0,14,,,,,,,,,13,,,,64,0
7509,note_on,60,0,15,,,,,,,,,14,,,,52,0
7530,note_on,30,0,11,,,,,,,,,10,,,,83,0
7532,note_on,30,0,12,,,,,,,,,11,,,,80,0
7535,note_on,30,0,13,,,,,,,,,12,,,,76,0
7545,note_on,15,0,11,,,,,,,,,10,,,,84,112
7547,note_on,15,0,12,,,,,,,,,11,,,,81,112
7550,note_on,15,0,13,,,,,,,,,12,,,,76,112
7556,note_on,11,0,11,,,,,,,,,10,,,,84,0
7558,note_on,11,0,12,,,,,,,,,11,,,,81,0
7560,note_on,4,0,11,,,,,,,,,10,,,,83,112
7560,set_tempo,60,1,0,,,,,,1142857,,,,,,,,
7561,note_on,11,0,13,,,,,,,,,12,,,,76,0
7562,note_on,4,0,12,,,,,,,,,11,,,,80,112
7565,note_on,4,0,13,,,,,,,,,12,,,,76,112
7567,note_on,60,0,14,,,,,,,,,13,,,,52,112
7569,note_on,60,0,15,,,,,,,,,14,,,,40,112
7590,note_on,30,0,11,,,,,,,,,10,,,,83,0
7592,note_on,30,0,12,,,,,,,,,11,,,,80,0
7595,note_on,30,0,13,,,,,,,,,12,,,,76,0
7597,note_on,30,0,14,,,,,,,,,13,,,,52,0
7599,note_on,30,0,15,,,,,,,,,14,,,,40,0
7612,note_on,15,0,14,,,,,,,,,13,,,,50,112
7614,note_on,15,0,15,,,,,,,,,14,,,,38,112
7620,note_on,30,0,11,,,,,,,,,10,,,,83,112
7620,set_tempo,60,1,0,,,,,,1071429,,,,,,,,
7622,note_on,30,0,12,,,,,,,,,11,,,,80,112
7623,note_on,11,0,14,,,,,,,,,13,,,,50,0
7625,note_on,11,0,15,,,,,,,,,14,,,,38,0
7625,note_on,30,0,13,,,,,,,,,12,,,,76,112
7627,note_on,4,0,14,,,,,,,,,13,,,,48,112
7629,note_on,4,0,15,,,,,,,,,14,,,,36,112
7650,set_tempo,30,1,0,,,,,,1304348,,,,,,,,
7650,note_on,30,0,11,,,,,,,,,10,,,,83,0
7652,note_on,30,0,12,,,,,,,,,11,,,,80,0
7655,note_on,30,0,13,,,,,,,,,12,,,,76,0
7657,note_on,30,0,14,,,,,,,,,13,,,,48,0
7659,note_on,30,0,15,,,,,,,,,14,,,,36,0
7672,note_on,15,0,14,,,,,,,,,13,,,,47,112
7674,note_on,15,0,15,,,,,,,,,14,,,,35,112
7680,note_on,0,0,11,,,,,,,,,10,,,,84,112
7680,control_change,30,0,11,,,,,,,,,10,11,59,,,
7680,set_tempo,30,1,0,,,,,,1165049,,,,,,,,
7681,note_on,426,0,1,,,,,,,,,0,,,,84,101
7681,note_on,0,0,1,,,,,,,,,0,,,,81,101
7681,control_change,0,0,1,,,,,,,,,0,11,57,,,
7681,control_change,0,0,5,,,,,,,,,4,11,57,,,
7681,note_on,426,0,5,,,,,,,,,4,,,,64,100
7682,note_on,0,0,12,,,,,,,,,11,,,,81,112
7682,control_change,30,0,12,,,,,,,,,11,11,59,,,
7682,note_on,0,0,3,,,,,,,,,2,,,,64,101
7682,note_on,426,0,3,,,,,,,,,2,,,,76,101
7682,note_on,0,0,2,,,,,,,,,1,,,,81,100
7682,note_on,0,0,2,,,,,,,,,1,,,,84,100
7682,control_change,0,0,3,,,,,,,,,2,11,57,,,
7682,control_change,426,0,2,,,,,,,,,1,11,57,,,
7683,control_change,0,0,6,,,,,,,,,5,11,57,,,
7683,note_on,426,0,6,,,,,,,,,5,,,,57,100
7683,note_on,11,0,14,,,,,,,,,13,,,,47,0
7685,control_change,30,0,13,,,,,,,,,12,11,59,,,
7685,note_on,0,0,13,,,,,,,,,12,,,,76,112
7685,note_on,11,0,15,,,,,,,,,14,,,,35,0
7687,control_change,426,0,4,,,,,,,,,3,11,57,,,
7687,note_on,0,0,14,,,,,,,,,13,,,,45,112
7687,control_change,4,0,14,,,,,,,,,13,11,59,,,
7687,note_on,0,0,4,,,,,,,,,3,,,,60,100
7687,note_on,0,0,4,,,,,,,,,3,,,,57,100
7689,control_change,9,0,11,,,,,,,,,10,11,54,,,
7689,control_change,4,0,15,,,,,,,,,14,11,59,,,
7689,note_on,0,0,15,,,,,,,,,14,,,,33,112
7691,control_change,9,0,12,,,,,,,,,11,11,54,,,
7693,control_change,4,0,11,,,,,,,,,10,11,51,,,
7694,control_change,9,0,13,,,,,,,,,12,11,54,,,
7695,control_change,4,0,12,,,,,,,,,11,11,51,,,
7698,control_change,4,0,13,,,,,,,,,12,11,51,,,
7711,note_on,30,0,1,,,,,,,,,0,,,,81,0
7711,note_on,0,0,1,,,,,,,,,0,,,,86,101
7711,note_on,0,0,1,,,,,,,,,0,,,,84,0
7711,note_on,0,0,1,,,,,,,,,0,,,,83,101
7712,note_on,0,0,2,,,,,,,,,1,,,,83,100
7712,note_on,0,0,2,,,,,,,,,1,,,,86,100
7712,note_on,30,0,2,,,,,,,,,1,,,,81,0
7712,note_on,0,0,2,,,,,,,,,1,,,,84,0
7717,note_on,0,0,4,,,,,,,,,3,,,,57,0
7717,note_on,0,0,4,,,,,,,,,3,,,,62,100
7717,note_on,0,0,4,,,,,,,,,3,,,,59,100
7717,note_on,30,0,4,,,,,,,,,3,,,,60,0
7725,control_change,32,0,11,,,,,,,,,10,11,50,,,
7727,control_change,32,0,12,,,,,,,,,11,11,50,,,
7729,control_change,4,0,11,,,,,,,,,10,11,47,,,
7730,control_change,32,0,13,,,,,,,,,12,11,50,,,
7731,control_change,4,0,12,,,,,,,,,11,11,47,,,
7734,control_change,4,0,13,,,,,,,,,12,11,47,,,
7734,control_change,5,0,11,,,,,,,,,10,11,44,,,
7736,control_change,5,0,12,,,,,,,,,11,11,44,,,
7739,control_change,5,0,13,,,,,,,,,12,11,44,,,
7740,set_tempo,60,1,0,,,,,,1071429,,,,,,,,
7740,note_on,6,0,11,,,,,,,,,10,,,,84,0
7741,note_on,0,0,1,,,,,,,,,0,,,,84,101
7741,note_on,0,0,1,,,,,,,,,0,,,,88,101
7741,note_on,0,0,1,,,,,,,,,0,,,,86,0
7741,note_on,30,0,1,,,,,,,,,0,,,,83,0
7742,note_on,6,0,12,,,,,,,,,11,,,,81,0
7742,note_on,0,0,2,,,,,,,,,1,,,,88,100
7742,note_on,0,0,2,,,,,,,,,1,,,,84,100
7742,note_on,0,0,2,,,,,,,,,1,,,,86,0
7742,note_on,30,0,2,,,,,,,,,1,,,,83,0
7745,note_on,6,0,13,,,,,,,,,12,,,,76,0
7747,note_on,60,0,14,,,,,,,,,13,,,,45,0
7747,note_on,0,0,4,,,,,,,,,3,,,,59,0
7747,note_on,0,0,4,,,,,,,,,3,,,,64,100
7747,note_on,0,0,4,,,,,,,,,3,,,,60,100
7747,note_on,30,0,4,,,,,,,,,3,,,,62,0
7749,note_on,60,0,15,,,,,,,,,14,,,,33,0
7771,note_on,0,0,1,,,,,,,,,0,,,,88,0
7771,note_on,30,0,1,,,,,,,,,0,,,,84,0
7771,note_on,0,0,1,,,,,,,,,0,,,,86,101
7771,note_on,0,0,1,,,,,,,,,0,,,,83,101
7772,note_on,0,0,2,,,,,,,,,1,,,,86,100
7772,note_on,0,0,2,,,,,,,,,1,,,,83,100
7772,note_on,0,0,2,,,,,,,,,1,,,,84,0
7772,note_on,30,0,2,,,,,,,,,1,,,,88,0
7777,note_on,0,0,4,,,,,,,,,3,,,,59,100
7777,note_on,0,0,4,,,,,,,,,3,,,,62,100
7777,note_on,30,0,4,,,,,,,,,3,,,,60,0
7777,note_on,0,0,4,,,,,,,,,3,,,,64,0
7800,set_tempo,60,1,0,,,,,,1142857,,,,,,,,
7801,note_on,120,0,5,,,,,,,,,4,,,,64,0
7801,note_on,30,0,1,,,,,,,,,0,,,,86,0
7801,note_on,0,0,1,,,,,,,,,0,,,,83,0
7801,note_on,0,0,5,,,,,,,,,4,,,,64,100
7801,note_on,0,0,1,,,,,,,,,0,,,,84,101
7801,note_on,0,0,1,,,,,,,,,0,,,,81,101
7802,note_on,0,0,2,,,,,,,,,1,,,,69,100
7802,note_on,0,0,3,,,,,,,,,2,,,,76,101
7802,note_on,0,0,3,,,,,,,,,2,,,,64,101
7802,note_on,0,0,3,,,,,,,,,2,,,,76,0
7802,note_on,120,0,3,,,,,,,,,2,,,,64,0
7802,note_on,30,0,2,,,,,,,,,1,,,,86,0
7802,note_on,0,0,2,,,,,,,,,1,,,,83,0
7802,note_on,0,0,2,,,,,,,,,1,,,,72,100
7803,note_on,0,0,6,,,,,,,,,5,,,,57,100
7803,note_on,120,0,6,,,,,,,,,5,,,,57,0
7807,note_on,30,0,4,,,,,,,,,3,,,,59,0
7807,note_on,0,0,4,,,,,,,,,3,,,,62,0
7807,note_on,0,0,4,,,,,,,,,3,,,,60,100
7807,note_on,0,0,4,,,,,,,,,3,,,,57,100
7831,note_on,0,0,1,,,,,,,,,0,,,,84,0
7831,note_on,30,0,1,,,,,,,,,0,,,,81,0
7831,note_on,30,0,5,,,,,,,,,4,,,,64,0
7832,note_on,0,0,3,,,,,,,,,2,,,,64,0
7832,note_on,30,0,2,,,,,,,,,1,,,,69,0
7832,note_on,0,0,2,,,,,,,,,1,,,,72,0
7832,note_on,30,0,3,,,,,,,,,2,,,,76,0
7833,note_on,30,0,6,,,,,,,,,5,,,,57,0
7837,note_on,30,0,4,,,,,,,,,3,,,,57,0
7837,note_on,0,0,4,,,,,,,,,3,,,,60,0
7860,set_tempo,60,1,0,,,,,,1071429,,,,,,,,
7861,note_on,30,0,5,,,,,,,,,4,,,,67,100
7861,note_on,0,0,1,,,,,,,,,0,,,,83,101
7861,note_on,30,0,1,,,,,,,,,0,,,,89,101
7862,note_on,0,0,2,,,,,,,,,1,,,,71,100
7862,note_on,0,0,3,,,,,,,,,2,,,,79,101
7862,note_on,30,0,3,,,,,,,,,2,,,,67,101
7862,note_on,30,0,2,,,,,,,,,1,,,,77,100
7863,note_on,30,0,6,,,,,,,,,5,,,,55,100
7867,note_on,0,0,14,,,,,,,,,13,,,,43,97
7867,control_change,120,0,14,,,,,,,,,13,11,78,,,
7867,note_on,0,0,4,,,,,,,,,3,,,,55,100
7867,note_on,30,0,4,,,,,,,,,3,,,,65,100
7869,note_on,0,0,15,,,,,,,,,14,,,,31,97
7869,control_change,120,0,15,,,,,,,,,14,11,78,,,
7877,note_on,10,0,14,,,,,,,,,13,,,,43,0
7879,note_on,10,0,15,,,,,,,,,14,,,,31,0
7882,note_on,5,0,14,,,,,,,,,13,,,,43,97
7884,note_on,5,0,15,,,,,,,,,14,,,,31,97
7891,note_on,30,0,5,,,,,,,,,4,,,,67,0
7891,note_on,30,0,1,,,,,,,,,0,,,,83,0
7891,note_on,0,0,1,,,,,,,,,0,,,,89,0
7892,note_on,0,0,3,,,,,,,,,2,,,,67,0
7892,note_on,30,0,3,,,,,,,,,2,,,,79,0
7892,note_on,10,0,14,,,,,,,,,13,,,,43,0
7892,note_on,0,0,2,,,,,,,,,1,,,,77,0
7892,note_on,30,0,2,,,,,,,,,1,,,,71,0
7893,note_on,30,0,6,,,,,,,,,5,,,,55,0
7894,note_on,10,0,15,,,,,,,,,14,,,,31,0
7897,note_on,5,0,14,,,,,,,,,13,,,,43,97
7897,note_on,0,0,4,,,,,,,,,3,,,,65,0
7897,note_on,30,0,4,,,,,,,,,3,,,,55,0
7899,note_on,5,0,15,,,,,,,,,14,,,,31,97
7907,note_on,10,0,14,,,,,,,,,13,,,,43,0
7909,note_on,10,0,15,,,,,,,,,14,,,,31,0
7912,note_on,5,0,14,,,,,,,,,13,,,,43,97
7914,note_on,5,0,15,,,,,,,,,14,,,,31,97
7920,set_tempo,60,1,0,,,,,,1165049,,,,,,,,
7921,note_on,0,0,1,,,,,,,,,0,,,,84,111
7921,note_on,30,0,5,,,,,,,,,4,,,,67,110
7921,note_on,30,0,1,,,,,,,,,0,,,,88,111
7922,note_on,30,0,3,,,,,,,,,2,,,,79,111
7922,note_on,0,0,3,,,,,,,,,2,,,,67,111
7922,note_on,0,0,2,,,,,,,,,1,,,,72,110
7922,note_on,30,0,2,,,,,,,,,1,,,,76,110
7922,note_on,10,0,14,,,,,,,,,13,,,,43,0
7923,note_on,30,0,6,,,,,,,,,5,,,,60,110
7924,note_on,10,0,15,,,,,,,,,14,,,,31,0
7927,control_change,5,0,14,,,,,,,,,13,11,59,,,
7927,note_on,0,0,14,,,,,,,,,13,,,,48,97
7927,note_on,30,0,4,,,,,,,,,3,,,,64,110
7927,note_on,0,0,4,,,,,,,,,3,,,,60,110
7929,control_change,5,0,15,,,,,,,,,14,11,59,,,
7929,note_on,0,0,15,,,,,,,,,14,,,,36,97
7980,set_tempo,60,1,0,,,,,,1071429,,,,,,,,
7980,note_on,0,0,11,,,,,,,,,10,,,,67,92
7980,control_change,240,0,11,,,,,,,,,10,11,55,,,
7982,control_change,240,0,12,,,,,,,,,11,11,55,,,
7982,note_on,0,0,12,,,,,,,,,11,,,,64,92
7985,note_on,0,0,13,,,,,,,,,12,,,,55,92
7985,control_change,240,0,13,,,,,,,,,12,11,55,,,
7987,note_on,60,0,14,,,,,,,,,13,,,,48,0
7989,note_on,60,0,15,,,,,,,,,14,,,,36,0
7990,note_on,10,0,11,,,,,,,,,10,,,,67,0
7992,note_on,10,0,12,,,,,,,,,11,,,,64,0
7995,note_on,10,0,13,,,,,,,,,12,,,,55,0
7995,note_on,5,0,11,,,,,,,,,10,,,,67,92
7997,note_on,5,0,12,,,,,,,,,11,,,,64,92
8000,note_on,5,0,13,,,,,,,,,12,,,,55,92
8005,note_on,10,0,11,,,,,,,,,10,,,,67,0
8007,note_on,10,0,12,,,,,,,,,11,,,,64,0
8010,note_on,10,0,13,,,,,,,,,12,,,,55,0
8010,note_on,5,0,11,,,,,,,,,10,,,,67,92
8012,note_on,5,0,12,,,,,,,,,11,,,,64,92
8015,note_on,5,0,13,,,,,,,,,12,,,,55,92
8020,note_on,10,0,11,,,,,,,,,10,,,,67,0
8022,note_on,10,0,12,,,,,,,,,11,,,,64,0
8025,note_on,5,0,11,,,,,,,,,10,,,,67,92
8025,note_on,10,0,13,,,,,,,,,12,,,,55,0
8027,note_on,5,0,12,,,,,,,,,11,,,,64,92
8030,note_on,5,0,13,,,,,,,,,12,,,,55,92
8033,note_on,112,0,5,,,,,,,,,4,,,,67,0
8033,note_on,112,0,1,,,,,,,,,0,,,,84,0
8033,note_on,0,0,1,,,,,,,,,0,,,,88,0
8034,note_on,112,0,3,,,,,,,,,2,,,,67,0
8034,note_on,0,0,3,,,,,,,,,2,,,,79,0
8034,note_on,112,0,2,,,,,,,,,1,,,,72,0
8034,note_on,0,0,2,,,,,,,,,1,,,,76,0
8035,note_on,112,0,6,,,,,,,,,5,,,,60,0
8035,note_on,10,0,11,,,,,,,,,10,,,,67,0
8037,note_on,10,0,12,,,,,,,,,11,,,,64,0
8039,note_on,0,0,4,,,,,,,,,3,,,,64,0
8039,note_on,112,0,4,,,,,,,,,3,,,,60,0
8040,set_tempo,60,1,0,,,,,,1142857,,,,,,,,
8040,note_on,10,0,13,,,,,,,,,12,,,,55,0
8040,note_on,5,0,11,,,,,,,,,10,,,,64,92
8041,note_on,0,0,1,,,,,,,,,0,,,,84,111
8041,note_on,8,0,1,,,,,,,,,0,,,,88,111
8041,note_on,8,0,5,,,,,,,,,4,,,,67,110
8042,note_on,5,0,12,,,,,,,,,11,,,,60,92
8042,note_on,0,0,2,,,,,,,,,1,,,,72,110
8042,note_on,0,0,3,,,,,,,,,2,,,,67,111
8042,note_on,8,0,2,,,,,,,,,1,,,,76,110
8042,note_on,8,0,3,,,,,,,,,2,,,,79,111
8043,note_on,8,0,6,,,,,,,,,5,,,,60,110
8045,note_on,5,0,13,,,,,,,,,12,,,,60,92
8047,note_on,8,0,4,,,,,,,,,3,,,,64,110
8047,note_on,0,0,4,,,,,,,,,3,,,,60,110
8100,note_on,60,0,11,,,,,,,,,10,,,,64,0
8100,set_tempo,60,1,0,,,,,,1071429,,,,,,,,
8102,note_on,60,0,12,,,,,,,,,11,,,,60,0
8105,note_on,60,0,13,,,,,,,,,12,,,,60,0
8108,note_on,846,0,10,,,,,,,,,15,,,,52,32
8118,note_on,10,0,10,,,,,,,,,15,,,,52,0
8123,note_on,5,0,10,,,,,,,,,15,,,,52,35
8133,note_on,10,0,10,,,,,,,,,15,,,,52,0
8138,note_on,5,0,10,,,,,,,,,15,,,,52,38
8148,note_on,10,0,10,,,,,,,,,15,,,,52,0
8153,note_on,5,0,10,,,,,,,,,15,,,,52,42
8153,note_on,112,0,1,,,,,,,,,0,,,,84,0
8153,note_on,0,0,1,,,,,,,,,0,,,,88,0
8153,note_on,112,0,5,,,,,,,,,4,,,,67,0
8154,note_on,112,0,3,,,,,,,,,2,,,,67,0
8154,note_on,112,0,2,,,,,,,,,1,,,,72,0
8154,note_on,0,0,2,,,,,,,,,1,,,,76,0
8154,note_on,0,0,3,,,,,,,,,2,,,,79,0
8155,note_on,112,0,6,,,,,,,,,5,,,,60,0
8159,note_on,112,0,4,,,,,,,,,3,,,,60,0
8159,note_on,0,0,4,,,,,,,,,3,,,,64,0
8160,note_on,0,0,11,,,,,,,,,10,,,,64,112
8160,note_on,0,0,11,,,,,,,,,10,,,,73,112
8160,set_tempo,60,1,0,,,,,,1165049,,,,,,,,
8160,note_on,0,0,11,,,,,,,,,10,,,,81,112
8160,control_change,60,0,11,,,,,,,,,10,11,112,,,
8161,note_on,0,0,5,,,,,,,,,4,,,,64,100
8161,control_change,8,0,1,,,,,,,,,0,11,98,,,
8161,note_on,0,0,1,,,,,,,,,0,,,,93,101
8161,note_on,0,0,1,,,,,,,,,0,,,,85,101
8161,control_change,8,0,5,,,,,,,,,4,11,112,,,
8162,note_on,0,0,7,,,,,,,,,6,,,,57,112
8162,note_on,0,0,12,,,,,,,,,11,,,,73,112
8162,control_change,906,0,7,,,,,,,,,6,11,112,,,
8162,note_on,0,0,2,,,,,,,,,1,,,,81,100
8162,control_change,8,0,2,,,,,,,,,1,11,98,,,
8162,note_on,0,0,12,,,,,,,,,11,,,,64,112
8162,note_on,0,0,7,,,,,,,,,6,,,,69,112
8162,note_on,0,0,2,,,,,,,,,1,,,,73,100
8162,control_change,8,0,3,,,,,,,,,2,11,98,,,
8162,note_on,0,0,3,,,,,,,,,2,,,,76,101
8162,note_on,0,0,3,,,,,,,,,2,,,,73,101
8162,control_change,60,0,12,,,,,,,,,11,11,112,,,
8162,note_on,0,0,12,,,,,,,,,11,,,,81,112
8163,note_on,0,0,6,,,,,,,,,5,,,,52,100
8163,note_on,10,0,10,,,,,,,,,15,,,,52,0
8163,control_change,8,0,6,,,,,,,,,5,11,112,,,
8164,note_on,0,0,8,,,,,,,,,7,,,,61,110
8164,note_on,0,0,8,,,,,,,,,7,,,,64,110
8164,control_change,906,0,8,,,,,,,,,7,11,112,,,
8165,control_change,60,0,13,,,,,,,,,12,11,112,,,
8165,note_on,0,0,13,,,,,,,,,12,,,,73,112
8165,note_on,0,0,13,,,,,,,,,12,,,,57,112
8165,note_on,0,0,13,,,,,,,,,12,,,,64,112
8166,note_on,0,0,9,,,,,,,,,8,,,,45,110
8166,control_change,906,0,9,,,,,,,,,8,11,112,,,
8167,control_change,8,0,4,,,,,,,,,3,11,112,,,
8167,note_on,0,0,4,,,,,,,,,3,,,,61,100
8167,control_change,7,0,11,,,,,,,,,10,11,109,,,
8167,note_on,0,0,14,,,,,,,,,13,,,,45,112
8167,control_change,180,0,14,,,,,,,,,13,11,112,,,
8167,note_on,0,0,4,,,,,,,,,3,,,,64,100
8168,control_change,7,0,5,,,,,,,,,4,11,109,,,
8168,note_on,5,0,10,,,,,,,,,15,,,,45,85
8169,note_on,0,0,15,,,,,,,,,14,,,,33,112
8169,control_change,180,0,15,,,,,,,,,14,11,112,,,
8169,control_change,7,0,7,,,,,,,,,6,11,109,,,
8169,control_change,7,0,12,,,,,,,,,11,11,109,,,
8170,control_change,7,0,6,,,,,,,,,5,11,109,,,
8171,control_change,7,0,8,,,,,,,,,7,11,109,,,
8172,control_change,7,0,13,,,,,,,,,12,11,109,,,
8173,control_change,7,0,9,,,,,,,,,8,11,109,,,
8174,control_change,7,0,14,,,,,,,,,13,11,109,,,
8174,control_change,7,0,4,,,,,,,,,3,11,109,,,
8175,control_change,8,0,11,,,,,,,,,10,11,106,,,
8176,control_change,7,0,15,,,,,,,,,14,11,109,,,
8176,control_change,8,0,5,,,,,,,,,4,11,106,,,
8176,control_change,15,0,1,,,,,,,,,0,11,94,,,
8177,control_change,8,0,7,,,,,,,,,6,11,106,,,
8177,control_change,15,0,2,,,,,,,,,1,11,94,,,
8177,control_change,8,0,12,,,,,,,,,11,11,106,,,
8177,control_change,15,0,3,,,,,,,,,2,11,94,,,
8178,control_change,8,0,6,,,,,,,,,5,11,106,,,
8179,control_change,8,0,8,,,,,,,,,7,11,106,,,
8180,control_change,8,0,13,,,,,,,,,12,11,106,,,
8181,control_change,8,0,9,,,,,,,,,8,11,106,,,
8182,control_change,8,0,4,,,,,,,,,3,11,106,,,
8182,control_change,7,0,11,,,,,,,,,10,11,103,,,
8182,control_change,8,0,14,,,,,,,,,13,11,106,,,
8183,control_change,7,0,1,,,,,,,,,0,11,91,,,
8183,control_change,7,0,5,,,,,,,,,4,11,103,,,
8184,control_change,7,0,2,,,,,,,,,1,11,91,,,
8184,control_change,8,0,15,,,,,,,,,14,11,106,,,
8184,control_change,7,0,7,,,,,,,,,6,11,103,,,
8184,control_change,7,0,3,,,,,,,,,2,11,91,,,
8184,control_change,7,0,12,,,,,,,,,11,11,103,,,
8185,control_change,7,0,6,,,,,,,,,5,11,103,,,
8186,control_change,7,0,8,,,,,,,,,7,11,103,,,
8187,control_change,7,0,13,,,,,,,,,12,11,103,,,
8188,control_change,7,0,9,,,,,,,,,8,11,103,,,
8189,control_change,7,0,4,,,,,,,,,3,11,103,,,
8189,control_change,7,0,14,,,,,,,,,13,11,103,,,
8190,control_change,8,0,11,,,,,,,,,10,11,100,,,
8191,control_change,7,0,15,,,,,,,,,14,11,103,,,
8191,control_change,8,0,5,,,,,,,,,4,11,100,,,
8192,control_change,8,0,12,,,,,,,,,11,11,100,,,
8192,control_change,8,0,7,,,,,,,,,6,11,100,,,
8193,control_change,8,0,6,,,,,,,,,5,11,100,,,
8194,control_change,8,0,8,,,,,,,,,7,11,100,,,
8195,control_change,8,0,13,,,,,,,,,12,11,100,,,
8196,control_change,8,0,9,,,,,,,,,8,11,100,,,
8197,control_change,8,0,14,,,,,,,,,13,11,100,,,
8197,control_change,8,0,4,,,,,,,,,3,11,100,,,
8197,control_change,7,0,11,,,,,,,,,10,11,97,,,
8198,control_change,15,0,1,,,,,,,,,0,11,87,,,
8198,control_change,7,0,5,,,,,,,,,4,11,97,,,
8199,control_change,7,0,7,,,,,,,,,6,11,97,,,
8199,control_change,7,0,12,,,,,,,,,11,11,97,,,
8199,control_change,8,0,15,,,,,,,,,14,11,100,,,
8199,control_change,15,0,2,,,,,,,,,1,11,87,,,
8199,control_change,15,0,3,,,,,,,,,2,11,87,,,
8200,control_change,7,0,6,,,,,,,,,5,11,97,,,
8201,control_change,7,0,8,,,,,,,,,7,11,97,,,
8202,control_change,7,0,13,,,,,,,,,12,11,97,,,
8203,control_change,7,0,9,,,,,,,,,8,11,97,,,
8204,control_change,7,0,4,,,,,,,,,3,11,97,,,
8204,control_change,7,0,14,,,,,,,,,13,11,97,,,
8205,control_change,8,0,11,,,,,,,,,10,11,94,,,
8206,control_change,7,0,15,,,,,,,,,14,11,97,,,
8206,control_change,8,0,5,,,,,,,,,4,11,94,,,
8207,control_change,8,0,12,,,,,,,,,11,11,94,,,
8207,control_change,8,0,7,,,,,,,,,6,11,94,,,
8208,control_change,8,0,6,,,,,,,,,5,11,94,,,
8209,control_change,8,0,8,,,,,,,,,7,11,94,,,
8210,control_change,8,0,13,,,,,,,,,12,11,94,,,
8211,control_change,8,0,9,,,,,,,,,8,11,94,,,
8212,note_on,8,0,14,,,,,,,,,13,,,,45,0
8212,control_change,8,0,4,,,,,,,,,3,11,94,,,
8212,control_change,0,0,14,,,,,,,,,13,11,94,,,
8214,note_on,9,0,11,,,,,,,,,10,,,,64,0
8214,note_on,0,0,11,,,,,,,,,10,,,,73,0
8214,note_on,0,0,11,,,,,,,,,10,,,,81,0
8214,control_change,0,0,15,,,,,,,,,14,11,94,,,
8214,note_on,8,0,15,,,,,,,,,14,,,,33,0
8215,note_on,17,0,1,,,,,,,,,0,,,,85,0
8215,note_on,0,0,1,,,,,,,,,0,,,,93,0
8215,note_on,9,0,5,,,,,,,,,4,,,,64,0
8216,note_on,0,0,2,,,,,,,,,1,,,,73,0
8216,note_on,0,0,7,,,,,,,,,6,,,,57,0
8216,note_on,0,0,12,,,,,,,,,11,,,,73,0
8216,note_on,9,0,12,,,,,,,,,11,,,,64,0
8216,note_on,0,0,12,,,,,,,,,11,,,,81,0
8216,note_on,17,0,3,,,,,,,,,2,,,,73,0
8216,note_on,0,0,3,,,,,,,,,2,,,,76,0
8216,note_on,17,0,2,,,,,,,,,1,,,,81,0
8216,note_on,9,0,7,,,,,,,,,6,,,,69,0
8217,note_on,9,0,6,,,,,,,,,5,,,,52,0
8218,note_on,0,0,8,,,,,,,,,7,,,,64,0
8218,note_on,9,0,8,,,,,,,,,7,,,,61,0
8219,note_on,9,0,13,,,,,,,,,12,,,,57,0
8219,note_on,0,0,13,,,,,,,,,12,,,,64,0
8219,note_on,0,0,13,,,,,,,,,12,,,,73,0
8220,note_on,9,0,9,,,,,,,,,8,,,,45,0
8220,set_tempo,60,1,0,,,,,,1071429,,,,,,,,
8220,note_on,6,0,11,,,,,,,,,10,,,,76,112
8221,note_on,9,0,4,,,,,,,,,3,,,,61,0
8221,note_on,0,0,4,,,,,,,,,3,,,,64,0
8222,note_on,54,0,10,,,,,,,,,15,,,,45,0
8222,note_on,6,0,12,,,,,,,,,11,,,,73,112
8225,note_on,6,0,13,,,,,,,,,12,,,,69,112
8227,note_on,15,0,14,,,,,,,,,13,,,,57,112
8229,note_on,15,0,15,,,,,,,,,14,,,,45,112
8250,note_on,30,0,11,,,,,,,,,10,,,,76,0
8252,note_on,30,0,12,,,,,,,,,11,,,,73,0
8255,note_on,30,0,13,,,,,,,,,12,,,,69,0
8257,note_on,30,0,14,,,,,,,,,13,,,,57,0
8259,note_on,30,0,15,,,,,,,,,14,,,,45,0
8280,note_on,30,0,11,,,,,,,,,10,,,,76,112
8280,set_tempo,60,1,0,,,,,,1142857,,,,,,,,
8282,note_on,30,0,12,,,,,,,,,11,,,,74,112
8285,note_on,30,0,13,,,,,,,,,12,,,,68,112
8287,note_on,30,0,14,,,,,,,,,13,,,,59,112
8289,note_on,30,0,15,,,,,,,,,14,,,,47,112
8310,note_on,30,0,11,,,,,,,,,10,,,,76,0
8312,note_on,30,0,12,,,,,,,,,11,,,,74,0
8315,note_on,30,0,13,,,,,,,,,12,,,,68,0
8317,note_on,30,0,14,,,,,,,,,13,,,,59,0
8319,note_on,30,0,15,,,,,,,,,14,,,,47,0
8340,set_tempo,60,1,0,,,,,,1071429,,,,,,,,
8340,note_on,30,0,11,,,,,,,,,10,,,,76,112
8342,note_on,30,0,12,,,,,,,,,11,,,,74,112
8345,note_on,30,0,13,,,,,,,,,12,,,,68,112
8347,note_on,30,0,14,,,,,,,,,13,,,,52,112
8349,note_on,30,0,15,,,,,,,,,14,,,,40,112
8370,note_on,30,0,11,,,,,,,,,10,,,,76,0
8372,note_on,30,0,12,,,,,,,,,11,,,,74,0
8375,note_on,30,0,13,,,,,,,,,12,,,,68,0
8377,note_on,30,0,14,,,,,,,,,13,,,,52,0
8379,note_on,30,0,15,,,,,,,,,14,,,,40,0
8400,note_on,30,0,11,,,,,,,,,10,,,,76,112
8400,set_tempo,60,1,0,,,,,,1165049,,,,,,,,
8402,note_on,30,0,12,,,,,,,,,11,,,,73,112
8405,note_on,30,0,13,,,,,,,,,12,,,,69,112
8407,note_on,30,0,14,,,,,,,,,13,,,,57,112
8409,note_on,30,0,15,,,,,,,,,14,,,,45,112
8430,note_on,30,0,11,,,,,,,,,10,,,,76,0
8432,note_on,30,0,12,,,,,,,,,11,,,,73,0
8435,note_on,30,0,13,,,,,,,,,12,,,,69,0
8445,note_on,15,0,11,,,,,,,,,10,,,,74,112
8447,note_on,15,0,12,,,,,,,,,11,,,,71,112
8450,note_on,15,0,13,,,,,,,,,12,,,,69,112
8456,note_on,11,0,11,,,,,,,,,10,,,,74,0
8458,note_on,11,0,12,,,,,,,,,11,,,,71,0
8460,set_tempo,60,1,0,,,,,,1071429,,,,,,,,
8460,note_on,4,0,11,,,,,,,,,10,,,,76,112
8461,note_on,11,0,13,,,,,,,,,12,,,,69,0
8462,note_on,4,0,12,,,,,,,,,11,,,,73,112
8465,note_on,4,0,13,,,,,,,,,12,,,,69,112
8467,note_on,60,0,14,,,,,,,,,13,,,,57,0
8469,note_on,60,0,15,,,,,,,,,14,,,,45,0
8490,note_on,30,0,11,,,,,,,,,10,,,,76,0
8492,note_on,30,0,12,,,,,,,,,11,,,,73,0
8495,note_on,30,0,13,,,,,,,,,12,,,,69,0
8505,note_on,15,0,11,,,,,,,,,10,,,,77,112
8507,note_on,15,0,12,,,,,,,,,11,,,,74,112
8510,note_on,15,0,13,,,,,,,,,12,,,,69,112
8516,note_on,11,0,11,,,,,,,,,10,,,,77,0
8518,note_on,11,0,12,,,,,,,,,11,,,,74,0
8520,note_on,4,0,11,,,,,,,,,10,,,,76,112
8520,set_tempo,60,1,0,,,,,,1142857,,,,,,,,
8521,note_on,11,0,13,,,,,,,,,12,,,,69,0
8522,note_on,4,0,12,,,,,,,,,11,,,,73,112
8525,note_on,4,0,13,,,,,,,,,12,,,,69,112
8527,note_on,60,0,14,,,,,,,,,13,,,,57,112
8529,note_on,60,0,15,,,,,,,,,14,,,,45,112
8550,note_on,30,0,11,,,,,,,,,10,,,,76,0
8552,note_on,30,0,12,,,,,,,,,11,,,,73,0
8555,note_on,30,0,13,,,,,,,,,12,,,,69,0
8557,note_on,30,0,14,,,,,,,,,13,,,,57,0
8559,note_on,30,0,15,,,,,,,,,14,,,,45,0
8572,note_on,15,0,14,,,,,,,,,13,,,,55,112
8574,note_on,15,0,15,,,,,,,,,14,,,,43,112
8580,note_on,30,0,11,,,,,,,,,10,,,,76,112
8580,set_tempo,60,1,0,,,,,,1071429,,,,,,,,
8582,note_on,30,0,12,,,,,,,,,11,,,,73,112
8583,note_on,11,0,14,,,,,,,,,13,,,,55,0
8585,note_on,30,0,13,,,,,,,,,12,,,,69,112
8585,note_on,11,0,15,,,,,,,,,14,,,,43,0
8587,note_on,4,0,14,,,,,,,,,13,,,,53,112
8589,note_on,4,0,15,,,,,,,,,14,,,,41,112
8610,note_on,30,0,11,,,,,,,,,10,,,,76,0
8610,set_tempo,30,1,0,,,,,,1276596,,,,,,,,
8612,note_on,30,0,12,,,,,,,,,11,,,,73,0
8615,note_on,30,0,13,,,,,,,,,12,,,,69,0
8617,note_on,30,0,14,,,,,,,,,13,,,,53,0
8619,note_on,30,0,15,,,,,,,,,14,,,,41,0
8632,note_on,15,0,14,,,,,,,,,13,,,,52,112
8634,note_on,15,0,15,,,,,,,,,14,,,,40,112
8640,set_tempo,30,1,0,,,,,,1165049,,,,,,,,
8640,control_change,30,0,11,,,,,,,,,10,11,59,,,
8640,note_on,0,0,11,,,,,,,,,10,,,,77,112
8641,control_change,0,0,1,,,,,,,,,0,11,57,,,
8641,note_on,0,0,1,,,,,,,,,0,,,,74,101
8641,note_on,426,0,1,,,,,,,,,0,,,,77,101
8641,control_change,0,0,5,,,,,,,,,4,11,57,,,
8641,note_on,426,0,5,,,,,,,,,4,,,,62,100
8642,note_on,0,0,2,,,,,,,,,1,,,,74,100
8642,note_on,0,0,2,,,,,,,,,1,,,,77,100
8642,control_change,0,0,3,,,,,,,,,2,11,57,,,
8642,control_change,426,0,2,,,,,,,,,1,11,57,,,
8642,note_on,0,0,12,,,,,,,,,11,,,,74,112
8642,control_change,30,0,12,,,,,,,,,11,11,59,,,
8642,note_on,426,0,3,,,,,,,,,2,,,,65,101
8643,note_on,11,0,14,,,,,,,,,13,,,,52,0
8643,control_change,426,0,6,,,,,,,,,5,11,57,,,
8645,note_on,11,0,15,,,,,,,,,14,,,,40,0
8645,control_change,30,0,13,,,,,,,,,12,11,59,,,
8645,note_on,0,0,13,,,,,,,,,12,,,,69,112
8647,control_change,4,0,14,,,,,,,,,13,11,59,,,
8647,note_on,0,0,14,,,,,,,,,13,,,,50,112
8647,note_on,426,0,4,,,,,,,,,3,,,,62,100
8647,control_change,0,0,4,,,,,,,,,3,11,57,,,
8649,note_on,0,0,15,,,,,,,,,14,,,,38,112
8649,control_change,9,0,11,,,,,,,,,10,11,54,,,
8649,control_change,4,0,15,,,,,,,,,14,11,59,,,
8651,control_change,9,0,12,,,,,,,,,11,11,54,,,
8653,control_change,4,0,11,,,,,,,,,10,11,51,,,
8654,control_change,9,0,13,,,,,,,,,12,11,54,,,
8655,control_change,4,0,12,,,,,,,,,11,11,51,,,
8656,control_change,9,0,14,,,,,,,,,13,11,54,,,
8658,control_change,9,0,15,,,,,,,,,14,11,54,,,
8658,control_change,4,0,13,,,,,,,,,12,11,51,,,
8660,control_change,4,0,14,,,,,,,,,13,11,51,,,
8662,control_change,4,0,15,,,,,,,,,14,11,51,,,
8671,note_on,0,0,1,,,,,,,,,0,,,,77,0
8671,note_on,0,0,1,,,,,,,,,0,,,,76,101
8671,note_on,0,0,1,,,,,,,,,0,,,,79,101
8671,note_on,30,0,1,,,,,,,,,0,,,,74,0
8672,note_on,0,0,3,,,,,,,,,2,,,,67,101
8672,note_on,0,0,2,,,,,,,,,1,,,,79,100
8672,note_on,0,0,2,,,,,,,,,1,,,,76,100
8672,note_on,0,0,2,,,,,,,,,1,,,,74,0
8672,note_on,30,0,2,,,,,,,,,1,,,,77,0
8672,note_on,30,0,3,,,,,,,,,2,,,,65,0
8677,note_on,30,0,4,,,,,,,,,3,,,,62,0
8677,note_on,0,0,4,,,,,,,,,3,,,,64,100
8685,control_change,32,0,11,,,,,,,,,10,11,50,,,
8687,control_change,32,0,12,,,,,,,,,11,11,50,,,
8689,control_change,4,0,11,,,,,,,,,10,11,47,,,
8690,control_change,32,0,13,,,,,,,,,12,11,50,,,
8691,control_change,4,0,12,,,,,,,,,11,11,47,,,
8692,control_change,32,0,14,,,,,,,,,13,11,50,,,
8694,control_change,32,0,15,,,,,,,,,14,11,50,,,
8694,control_change,4,0,13,,,,,,,,,12,11,47,,,
8694,control_change,5,0,11,,,,,,,,,10,11,44,,,
8696,control_change,5,0,12,,,,,,,,,11,11,44,,,
8696,control_change,4,0,14,,,,,,,,,13,11,47,,,
8698,control_change,4,0,15,,,,,,,,,14,11,47,,,
8699,control_change,5,0,13,,,,,,,,,12,11,44,,,
8700,set_tempo,60,1,0,,,,,,1071429,,,,,,,,
8700,note_on,6,0,11,,,,,,,,,10,,,,77,0
8701,note_on,30,0,1,,,,,,,,,0,,,,76,0
8701,note_on,0,0,1,,,,,,,,,0,,,,81,101
8701,note_on,0,0,1,,,,,,,,,0,,,,77,101
8701,control_change,5,0,14,,,,,,,,,13,11,44,,,
8701,note_on,0,0,1,,,,,,,,,0,,,,79,0
8702,note_on,0,0,2,,,,,,,,,1,,,,81,100
8702,note_on,6,0,12,,,,,,,,,11,,,,74,0
8702,note_on,0,0,3,,,,,,,,,2,,,,69,101
8702,note_on,30,0,3,,,,,,,,,2,,,,67,0
8702,note_on,0,0,2,,,,,,,,,1,,,,76,0
8702,note_on,0,0,2,,,,,,,,,1,,,,77,100
8702,note_on,30,0,2,,,,,,,,,1,,,,79,0
8703,control_change,5,0,15,,,,,,,,,14,11,44,,,
8705,note_on,6,0,13,,,,,,,,,12,,,,69,0
8707,note_on,0,0,4,,,,,,,,,3,,,,65,100
8707,note_on,6,0,14,,,,,,,,,13,,,,50,0
8707,note_on,30,0,4,,,,,,,,,3,,,,64,0
8709,note_on,6,0,15,,,,,,,,,14,,,,38,0
8731,note_on,0,0,1,,,,,,,,,0,,,,79,101
8731,note_on,0,0,1,,,,,,,,,0,,,,76,101
8731,note_on,0,0,1,,,,,,,,,0,,,,81,0
8731,note_on,30,0,1,,,,,,,,,0,,,,77,0
8732,note_on,0,0,2,,,,,,,,,1,,,,76,100
8732,note_on,0,0,3,,,,,,,,,2,,,,67,101
8732,note_on,0,0,2,,,,,,,,,1,,,,79,100
8732,note_on,0,0,2,,,,,,,,,1,,,,77,0
8732,note_on,30,0,3,,,,,,,,,2,,,,69,0
8732,note_on,30,0,2,,,,,,,,,1,,,,81,0
8737,note_on,0,0,4,,,,,,,,,3,,,,64,100
8737,note_on,30,0,4,,,,,,,,,3,,,,65,0
8760,set_tempo,60,1,0,,,,,,1142857,,,,,,,,
8761,note_on,0,0,1,,,,,,,,,0,,,,77,101
8761,note_on,0,0,1,,,,,,,,,0,,,,79,0
8761,note_on,30,0,1,,,,,,,,,0,,,,76,0
8761,note_on,0,0,5,,,,,,,,,4,,,,62,100
8761,note_on,120,0,5,,,,,,,,,4,,,,62,0
8761,note_on,0,0,1,,,,,,,,,0,,,,74,101
8762,note_on,30,0,2,,,,,,,,,1,,,,79,0
8762,note_on,0,0,2,,,,,,,,,1,,,,77,100
8762,note_on,0,0,2,,,,,,,,,1,,,,74,100
8762,note_on,0,0,2,,,,,,,,,1,,,,76,0
8762,note_on,30,0,3,,,,,,,,,2,,,,67,0
8762,note_on,0,0,3,,,,,,,,,2,,,,65,101
8767,note_on,30,0,4,,,,,,,,,3,,,,64,0
8767,note_on,0,0,4,,,,,,,,,3,,,,62,100
8791,note_on,30,0,1,,,,,,,,,0,,,,77,0
8791,note_on,0,0,1,,,,,,,,,0,,,,74,0
8792,note_on,30,0,3,,,,,,,,,2,,,,65,0
8792,note_on,0,0,2,,,,,,,,,1,,,,77,0
8792,note_on,30,0,2,,,,,,,,,1,,,,74,0
8797,note_on,30,0,4,,,,,,,,,3,,,,62,0
8820,set_tempo,60,1,0,,,,,,1071429,,,,,,,,
8821,note_on,0,0,1,,,,,,,,,0,,,,76,101
8821,note_on,30,0,1,,,,,,,,,0,,,,82,101
8821,note_on,0,0,5,,,,,,,,,4,,,,60,100
8821,note_on,60,0,5,,,,,,,,,4,,,,62,0
8822,note_on,30,0,3,,,,,,,,,2,,,,72,101
8822,note_on,0,0,2,,,,,,,,,1,,,,82,100
8822,note_on,30,0,2,,,,,,,,,1,,,,76,100
8827,control_change,120,0,14,,,,,,,,,13,11,78,,,
8827,note_on,30,0,4,,,,,,,,,3,,,,67,100
8827,note_on,0,0,14,,,,,,,,,13,,,,48,97
8827,note_on,0,0,4,,,,,,,,,3,,,,60,100
8829,note_on,0,0,15,,,,,,,,,14,,,,36,97
8829,control_change,120,0,15,,,,,,,,,14,11,78,,,
8837,note_on,10,0,14,,,,,,,,,13,,,,48,0
8839,note_on,10,0,15,,,,,,,,,14,,,,36,0
8842,note_on,5,0,14,,,,,,,,,13,,,,48,97
8844,note_on,5,0,15,,,,,,,,,14,,,,36,97
8851,note_on,0,0,1,,,,,,,,,0,,,,82,0
8851,note_on,30,0,1,,,,,,,,,0,,,,76,0
8852,note_on,30,0,3,,,,,,,,,2,,,,72,0
8852,note_on,10,0,14,,,,,,,,,13,,,,48,0
8852,note_on,0,0,2,,,,,,,,,1,,,,76,0
8852,note_on,30,0,2,,,,,,,,,1,,,,82,0
8854,note_on,10,0,15,,,,,,,,,14,,,,36,0
8857,note_on,0,0,4,,,,,,,,,3,,,,67,0
8857,note_on,30,0,4,,,,,,,,,3,,,,60,0
8857,note_on,5,0,14,,,,,,,,,13,,,,48,97
8859,note_on,5,0,15,,,,,,,,,14,,,,36,97
8867,note_on,10,0,14,,,,,,,,,13,,,,48,0
8869,note_on,10,0,15,,,,,,,,,14,,,,36,0
8872,note_on,5,0,14,,,,,,,,,13,,,,48,97
8874,note_on,5,0,15,,,,,,,,,14,,,,36,97
8880,set_tempo,60,1,0,,,,,,1165049,,,,,,,,
8881,note_on,0,0,5,,,,,,,,,4,,,,65,110
8881,note_on,30,0,1,,,,,,,,,0,,,,81,111
8881,note_on,60,0,5,,,,,,,,,4,,,,60,0
8881,note_on,0,0,1,,,,,,,,,0,,,,77,111
8882,note_on,30,0,3,,,,,,,,,2,,,,72,111
8882,note_on,0,0,2,,,,,,,,,1,,,,77,110
8882,note_on,30,0,2,,,,,,,,,1,,,,81,110
8882,note_on,10,0,14,,,,,,,,,13,,,,48,0
8884,note_on,10,0,15,,,,,,,,,14,,,,36,0
8887,note_on,0,0,14,,,,,,,,,13,,,,53,97
8887,note_on,0,0,4,,,,,,,,,3,,,,65,110
8887,control_change,5,0,14,,,,,,,,,13,11,59,,,
8887,note_on,30,0,4,,,,,,,,,3,,,,69,110
8889,note_on,0,0,15,,,,,,,,,14,,,,41,97
8889,control_change,5,0,15,,,,,,,,,14,11,59,,,
8940,set_tempo,60,1,0,,,,,,1071429,,,,,,,,
8940,note_on,0,0,11,,,,,,,,,10,,,,72,92
8940,control_change,240,0,11,,,,,,,,,10,11,55,,,
8942,note_on,0,0,12,,,,,,,,,11,,,,69,92
8942,control_change,240,0,12,,,,,,,,,11,11,55,,,
8945,note_on,0,0,13,,,,,,,,,12,,,,60,92
8945,control_change,240,0,13,,,,,,,,,12,11,55,,,
8947,note_on,60,0,14,,,,,,,,,13,,,,53,0
8949,note_on,60,0,15,,,,,,,,,14,,,,41,0
8950,note_on,10,0,11,,,,,,,,,10,,,,72,0
8952,note_on,10,0,12,,,,,,,,,11,,,,69,0
8955,note_on,5,0,11,,,,,,,,,10,,,,72,92
8955,note_on,10,0,13,,,,,,,,,12,,,,60,0
8957,note_on,5,0,12,,,,,,,,,11,,,,69,92
8960,note_on,5,0,13,,,,,,,,,12,,,,60,92
8965,note_on,10,0,11,,,,,,,,,10,,,,72,0
8967,note_on,10,0,12,,,,,,,,,11,,,,69,0
8970,note_on,5,0,11,,,,,,,,,10,,,,72,92
8970,note_on,10,0,13,,,,,,,,,12,,,,60,0
8972,note_on,5,0,12,,,,,,,,,11,,,,69,92
8975,note_on,5,0,13,,,,,,,,,12,,,,60,92
8980,note_on,10,0,11,,,,,,,,,10,,,,72,0
8982,note_on,10,0,12,,,,,,,,,11,,,,69,0
8985,note_on,5,0,11,,,,,,,,,10,,,,72,92
8985,note_on,10,0,13,,,,,,,,,12,,,,60,0
8987,note_on,5,0,12,,,,,,,,,11,,,,69,92
8990,note_on,5,0,13,,,,,,,,,12,,,,60,92
8993,note_on,112,0,1,,,,,,,,,0,,,,77,0
8993,note_on,112,0,5,,,,,,,,,4,,,,65,0
8993,note_on,0,0,1,,,,,,,,,0,,,,81,0
8994,note_on,112,0,2,,,,,,,,,1,,,,77,0
8994,note_on,0,0,2,,,,,,,,,1,,,,81,0
8994,note_on,112,0,3,,,,,,,,,2,,,,72,0
8995,note_on,10,0,11,,,,,,,,,10,,,,72,0
8997,note_on,10,0,12,,,,,,,,,11,,,,69,0
8999,note_on,0,0,4,,,,,,,,,3,,,,69,0
8999,note_on,112,0,4,,,,,,,,,3,,,,65,0
9000,note_on,10,0,13,,,,,,,,,12,,,,60,0
9000,set_tempo,60,1,0,,,,,,1142857,,,,,,,,
9000,note_on,5,0,11,,,,,,,,,10,,,,69,92
9001,note_on,0,0,1,,,,,,,,,0,,,,77,111
9001,note_on,8,0,1,,,,,,,,,0,,,,81,111
9001,note_on,8,0,5,,,,,,,,,4,,,,65,110
9002,note_on,0,0,2,,,,,,,,,1,,,,77,110
9002,note_on,8,0,2,,,,,,,,,1,,,,81,110
9002,note_on,5,0,12,,,,,,,,,11,,,,65,92
9002,note_on,8,0,3,,,,,,,,,2,,,,72,111
9005,note_on,5,0,13,,,,,,,,,12,,,,65,92
9007,note_on,0,0,4,,,,,,,,,3,,,,65,110
9007,note_on,8,0,4,,,,,,,,,3,,,,69,110
9060,note_on,60,0,11,,,,,,,,,10,,,,69,0
9060,set_tempo,60,1,0,,,,,,1071429,,,,,,,,
9062,note_on,60,0,12,,,,,,,,,11,,,,65,0
9065,note_on,60,0,13,,,,,,,,,12,,,,65,0
9068,note_on,846,0,10,,,,,,,,,15,,,,45,32
9078,note_on,10,0,10,,,,,,,,,15,,,,45,0
9083,note_on,5,0,10,,,,,,,,,15,,,,45,35
9093,note_on,10,0,10,,,,,,,,,15,,,,45,0
9098,note_on,5,0,10,,,,,,,,,15,,,,45,38
9108,note_on,10,0,10,,,,,,,,,15,,,,45,0
9113,note_on,0,0,1,,,,,,,,,0,,,,81,0
9113,note_on,112,0,5,,,,,,,,,4,,,,65,0
9113,note_on,5,0,10,,,,,,,,,15,,,,45,42
9113,note_on,112,0,1,,,,,,,,,0,,,,77,0
9114,note_on,0,0,2,,,,,,,,,1,,,,81,0
9114,note_on,112,0,2,,,,,,,,,1,,,,77,0
9114,note_on,112,0,3,,,,,,,,,2,,,,72,0
9119,note_on,112,0,4,,,,,,,,,3,,,,65,0
9119,note_on,0,0,4,,,,,,,,,3,,,,69,0
9120,note_on,0,0,11,,,,,,,,,10,,,,62,112
9120,note_on,0,0,11,,,,,,,,,10,,,,77,112
9120,note_on,0,0,11,,,,,,,,,10,,,,86,112
9120,control_change,60,0,11,,,,,,,,,10,11,112,,,
9120,set_tempo,60,1,0,,,,,,1165049,,,,,,,,
9120,note_on,0,0,11,,,,,,,,,10,,,,69,112
9121,note_on,0,0,1,,,,,,,,,0,,,,86,101
9121,note_on,0,0,1,,,,,,,,,0,,,,89,101
9121,control_change,8,0,1,,,,,,,,,0,11,98,,,
9121,control_change,0,0,5,,,,,,,,,4,11,112,,,
9121,note_on,8,0,5,,,,,,,,,4,,,,65,100
9122,control_change,8,0,2,,,,,,,,,1,11,98,,,
9122,note_on,0,0,12,,,,,,,,,11,,,,62,112
9122,note_on,8,0,3,,,,,,,,,2,,,,77,101
9122,note_on,0,0,3,,,,,,,,,2,,,,74,101
9122,control_change,0,0,3,,,,,,,,,2,11,98,,,
9122,note_on,0,0,12,,,,,,,,,11,,,,69,112
9122,note_on,0,0,2,,,,,,,,,1,,,,81,100
9122,note_on,906,0,7,,,,,,,,,6,,,,57,112
9122,note_on,0,0,2,,,,,,,,,1,,,,77,100
9122,note_on,0,0,12,,,,,,,,,11,,,,77,112
9122,control_change,60,0,12,,,,,,,,,11,11,112,,,
9122,note_on,0,0,7,,,,,,,,,6,,,,69,112
9123,note_on,480,0,6,,,,,,,,,5,,,,62,100
9123,note_on,10,0,10,,,,,,,,,15,,,,45,0
9123,control_change,0,0,6,,,,,,,,,5,11,112,,,
9124,note_on,0,0,8,,,,,,,,,7,,,,65,110
9124,note_on,906,0,8,,,,,,,,,7,,,,57,110
9125,note_on,0,0,13,,,,,,,,,12,,,,62,112
9125,control_change,60,0,13,,,,,,,,,12,11,112,,,
9126,note_on,906,0,9,,,,,,,,,8,,,,50,110
9127,control_change,7,0,11,,,,,,,,,10,11,109,,,
9127,note_on,0,0,14,,,,,,,,,13,,,,53,112
9127,control_change,180,0,14,,,,,,,,,13,11,112,,,
9127,note_on,0,0,4,,,,,,,,,3,,,,65,100
9127,control_change,8,0,4,,,,,,,,,3,11,112,,,
9127,note_on,0,0,4,,,,,,,,,3,,,,62,100
9128,note_on,5,0,10,,,,,,,,,15,,,,45,85
9129,note_on,0,0,15,,,,,,,,,14,,,,41,112
9129,control_change,180,0,15,,,,,,,,,14,11,112,,,
9129,control_change,7,0,12,,,,,,,,,11,11,109,,,
9132,control_change,7,0,13,,,,,,,,,12,11,109,,,
9134,control_change,7,0,14,,,,,,,,,13,11,109,,,
9135,control_change,8,0,11,,,,,,,,,10,11,106,,,
9136,control_change,15,0,1,,,,,,,,,0,11,94,,,
9136,control_change,7,0,15,,,,,,,,,14,11,109,,,
9137,control_change,8,0,12,,,,,,,,,11,11,106,,,
9137,control_change,15,0,2,,,,,,,,,1,11,94,,,
9140,control_change,8,0,13,,,,,,,,,12,11,106,,,
9142,control_change,8,0,14,,,,,,,,,13,11,106,,,
9142,control_change,7,0,11,,,,,,,,,10,11,103,,,
9143,control_change,7,0,1,,,,,,,,,0,11,91,,,
9144,control_change,7,0,2,,,,,,,,,1,11,91,,,
9144,control_change,7,0,12,,,,,,,,,11,11,103,,,
9144,control_change,8,0,15,,,,,,,,,14,11,106,,,
9147,control_change,7,0,13,,,,,,,,,12,11,103,,,
9149,control_change,7,0,14,,,,,,,,,13,11,103,,,
9150,control_change,8,0,11,,,,,,,,,10,11,100,,,
9151,note_on,30,0,5,,,,,,,,,4,,,,65,0
9151,control_change,7,0,15,,,,,,,,,14,11,103,,,
9152,note_on,30,0,3,,,,,,,,,2,,,,74,0
9152,note_on,0,0,3,,,,,,,,,2,,,,77,0
9152,control_change,8,0,12,,,,,,,,,11,11,100,,,
9153,note_on,30,0,6,,,,,,,,,5,,,,62,0
9154,note_on,0,0,8,,,,,,,,,7,,,,57,0
9154,note_on,30,0,8,,,,,,,,,7,,,,65,0
9155,control_change,0,0,13,,,,,,,,,12,11,100,,,
9155,note_on,8,0,13,,,,,,,,,12,,,,62,0
9156,note_on,30,0,9,,,,,,,,,8,,,,50,0
9157,note_on,0,0,4,,,,,,,,,3,,,,65,0
9157,note_on,30,0,4,,,,,,,,,3,,,,62,0
9157,control_change,0,0,14,,,,,,,,,13,11,100,,,
9157,note_on,8,0,14,,,,,,,,,13,,,,53,0
9157,control_change,7,0,11,,,,,,,,,10,11,97,,,
9158,control_change,15,0,1,,,,,,,,,0,11,87,,,
9159,control_change,0,0,15,,,,,,,,,14,11,100,,,
9159,control_change,15,0,2,,,,,,,,,1,11,87,,,
9159,note_on,8,0,15,,,,,,,,,14,,,,41,0
9159,control_change,7,0,12,,,,,,,,,11,11,97,,,
9162,control_change,7,0,13,,,,,,,,,12,11,97,,,
9164,control_change,7,0,14,,,,,,,,,13,11,97,,,
9165,control_change,8,0,11,,,,,,,,,10,11,94,,,
9166,control_change,7,0,15,,,,,,,,,14,11,97,,,
9166,note_on,15,0,5,,,,,,,,,4,,,,64,100
9167,note_on,0,0,3,,,,,,,,,2,,,,73,101
9167,note_on,15,0,3,,,,,,,,,2,,,,76,101
9167,control_change,8,0,12,,,,,,,,,11,11,94,,,
9168,note_on,15,0,6,,,,,,,,,5,,,,64,100
9170,control_change,8,0,13,,,,,,,,,12,11,94,,,
9172,note_on,0,0,4,,,,,,,,,3,,,,61,100
9172,control_change,8,0,14,,,,,,,,,13,11,94,,,
9172,note_on,15,0,4,,,,,,,,,3,,,,64,100
9174,note_on,0,0,3,,,,,,,,,2,,,,76,0
9174,note_on,7,0,3,,,,,,,,,2,,,,73,0
9174,control_change,8,0,15,,,,,,,,,14,11,94,,,
9174,note_on,0,0,11,,,,,,,,,10,,,,69,0
9174,note_on,0,0,11,,,,,,,,,10,,,,77,0
9174,note_on,0,0,11,,,,,,,,,10,,,,86,0
9174,note_on,9,0,11,,,,,,,,,10,,,,62,0
9175,note_on,0,0,1,,,,,,,,,0,,,,89,0
9175,note_on,17,0,1,,,,,,,,,0,,,,86,0
9176,note_on,0,0,12,,,,,,,,,11,,,,77,0
9176,note_on,0,0,2,,,,,,,,,1,,,,81,0
9176,note_on,0,0,12,,,,,,,,,11,,,,69,0
9176,note_on,17,0,2,,,,,,,,,1,,,,77,0
9176,note_on,9,0,12,,,,,,,,,11,,,,62,0
9176,note_on,10,0,5,,,,,,,,,4,,,,64,0
9178,note_on,10,0,6,,,,,,,,,5,,,,64,0
9179,note_on,0,0,4,,,,,,,,,3,,,,64,0
9179,note_on,7,0,4,,,,,,,,,3,,,,61,0
9180,set_tempo,60,1,0,,,,,,1071429,,,,,,,,
9181,note_on,5,0,5,,,,,,,,,4,,,,65,100
9182,note_on,0,0,3,,,,,,,,,2,,,,74,101
9182,note_on,8,0,3,,,,,,,,,2,,,,77,101
9183,note_on,5,0,6,,,,,,,,,5,,,,62,100
9185,note_on,15,0,13,,,,,,,,,12,,,,62,112
9187,note_on,8,0,4,,,,,,,,,3,,,,65,100
9187,note_on,0,0,4,,,,,,,,,3,,,,62,100
9187,note_on,15,0,14,,,,,,,,,13,,,,53,112
9188,note_on,60,0,10,,,,,,,,,15,,,,45,0
9189,note_on,15,0,15,,,,,,,,,14,,,,41,112
9211,note_on,30,0,5,,,,,,,,,4,,,,65,0
9212,note_on,30,0,3,,,,,,,,,2,,,,74,0
9212,note_on,0,0,3,,,,,,,,,2,,,,77,0
9213,note_on,30,0,6,,,,,,,,,5,,,,62,0
9215,note_on,30,0,13,,,,,,,,,12,,,,62,0
9217,note_on,30,0,14,,,,,,,,,13,,,,53,0
9217,note_on,0,0,4,,,,,,,,,3,,,,65,0
9217,note_on,30,0,4,,,,,,,,,3,,,,62,0
9219,note_on,30,0,15,,,,,,,,,14,,,,41,0
9226,note_on,15,0,5,,,,,,,,,4,,,,67,100
9227,note_on,15,0,3,,,,,,,,,2,,,,79,101
9227,note_on,0,0,3,,,,,,,,,2,,,,76,101
9228,note_on,15,0,6,,,,,,,,,5,,,,64,100
9232,note_on,15,0,4,,,,,,,,,3,,,,67,100
9232,note_on,0,0,4,,,,,,,,,3,,,,64,100
9234,note_on,7,0,3,,,,,,,,,2,,,,76,0
9234,note_on,0,0,3,,,,,,,,,2,,,,79,0
9236,note_on,10,0,5,,,,,,,,,4,,,,67,0
9238,note_on,10,0,6,,,,,,,,,5,,,,64,0
9239,note_on,7,0,4,,,,,,,,,3,,,,64,0
9239,note_on,0,0,4,,,,,,,,,3,,,,67,0
9240,note_on,66,0,11,,,,,,,,,10,,,,74,112
9240,set_tempo,60,1,0,,,,,,1142857,,,,,,,,
9241,note_on,5,0,5,,,,,,,,,4,,,,65,100
9242,note_on,0,0,3,,,,,,,,,2,,,,74,101
9242,note_on,0,0,7,,,,,,,,,6,,,,57,0
9242,note_on,8,0,3,,,,,,,,,2,,,,77,101
9242,note_on,120,0,7,,,,,,,,,6,,,,69,0
9242,note_on,66,0,12,,,,,,,,,11,,,,62,112
9242,note_on,0,0,7,,,,,,,,,6,,,,57,112
9242,note_on,0,0,7,,,,,,,,,6,,,,69,112
9243,note_on,5,0,6,,,,,,,,,5,,,,62,100
9244,note_on,90,0,8,,,,,,,,,7,,,,57,110
9244,note_on,0,0,8,,,,,,,,,7,,,,65,110
9246,note_on,90,0,9,,,,,,,,,8,,,,50,110
9247,note_on,8,0,4,,,,,,,,,3,,,,65,100
9247,note_on,0,0,4,,,,,,,,,3,,,,62,100
9248,note_on,60,0,10,,,,,,,,,15,,,,45,85
9263,note_on,23,0,11,,,,,,,,,10,,,,74,0
9265,note_on,23,0,12,,,,,,,,,11,,,,62,0
9271,note_on,30,0,5,,,,,,,,,4,,,,65,0
9272,note_on,30,0,3,,,,,,,,,2,,,,74,0
9272,note_on,0,0,3,,,,,,,,,2,,,,77,0
9273,note_on,30,0,6,,,,,,,,,5,,,,62,0
9274,note_on,30,0,8,,,,,,,,,7,,,,65,0
9274,note_on,0,0,8,,,,,,,,,7,,,,57,0
9276,note_on,30,0,9,,,,,,,,,8,,,,50,0
9277,note_on,30,0,4,,,,,,,,,3,,,,62,0
9277,note_on,0,0,4,,,,,,,,,3,,,,65,0
9285,note_on,22,0,11,,,,,,,,,10,,,,76,112
9287,note_on,22,0,12,,,,,,,,,11,,,,64,112
9293,note_on,8,0,11,,,,,,,,,10,,,,76,0
9295,note_on,8,0,12,,,,,,,,,11,,,,64,0
9300,set_tempo,60,1,0,,,,,,1071429,,,,,,,,
9300,note_on,7,0,11,,,,,,,,,10,,,,77,112
9301,note_on,30,0,5,,,,,,,,,4,,,,65,100
9302,note_on,0,0,3,,,,,,,,,2,,,,74,101
9302,note_on,30,0,3,,,,,,,,,2,,,,77,101
9302,note_on,7,0,12,,,,,,,,,11,,,,65,112
9303,note_on,30,0,6,,,,,,,,,5,,,,62,100
9307,note_on,0,0,4,,,,,,,,,3,,,,62,100
9307,note_on,30,0,4,,,,,,,,,3,,,,65,100
9308,note_on,60,0,10,,,,,,,,,15,,,,45,0
9323,note_on,23,0,11,,,,,,,,,10,,,,77,0
9325,note_on,23,0,12,,,,,,,,,11,,,,65,0
9331,note_on,30,0,5,,,,,,,,,4,,,,65,0
9332,note_on,0,0,3,,,,,,,,,2,,,,77,0
9332,note_on,30,0,3,,,,,,,,,2,,,,74,0
9333,note_on,30,0,6,,,,,,,,,5,,,,62,0
9337,note_on,30,0,4,,,,,,,,,3,,,,62,0
9337,note_on,0,0,4,,,,,,,,,3,,,,65,0
9345,note_on,22,0,11,,,,,,,,,10,,,,79,112
9347,note_on,22,0,12,,,,,,,,,11,,,,79,112
9353,note_on,8,0,11,,,,,,,,,10,,,,79,0
9355,note_on,8,0,12,,,,,,,,,11,,,,79,0
9360,note_on,0,0,11,,,,,,,,,10,,,,69,112
9360,set_tempo,60,1,0,,,,,,1165049,,,,,,,,
9360,control_change,7,0,11,,,,,,,,,10,11,112,,,
9360,note_on,0,0,11,,,,,,,,,10,,,,81,112
9361,note_on,30,0,5,,,,,,,,,4,,,,64,110
9361,note_on,186,0,1,,,,,,,,,0,,,,84,101
9361,note_on,0,0,1,,,,,,,,,0,,,,81,101
9362,note_on,0,0,3,,,,,,,,,2,,,,72,101
9362,note_on,120,0,7,,,,,,,,,6,,,,69,0
9362,note_on,0,0,7,,,,,,,,,6,,,,57,0
9362,note_on,30,0,3,,,,,,,,,2,,,,76,101
9362,control_change,7,0,12,,,,,,,,,11,11,112,,,
9362,note_on,0,0,2,,,,,,,,,1,,,,69,100
9362,note_on,186,0,2,,,,,,,,,1,,,,72,100
9362,note_on,0,0,12,,,,,,,,,11,,,,57,112
9362,note_on,0,0,12,,,,,,,,,11,,,,69,112
9363,note_on,30,0,6,,,,,,,,,5,,,,60,110
9364,control_change,90,0,8,,,,,,,,,7,11,112,,,
9364,note_on,0,0,8,,,,,,,,,7,,,,60,110
9364,note_on,0,0,8,,,,,,,,,7,,,,64,110
9365,note_on,0,0,13,,,,,,,,,12,,,,72,112
9365,control_change,150,0,13,,,,,,,,,12,11,112,,,
9365,note_on,0,0,13,,,,,,,,,12,,,,57,112
9365,note_on,0,0,13,,,,,,,,,12,,,,64,112
9366,control_change,90,0,9,,,,,,,,,8,11,112,,,
9366,note_on,0,0,9,,,,,,,,,8,,,,57,110
9367,note_on,0,0,4,,,,,,,,,3,,,,57,100
9367,note_on,30,0,4,,,,,,,,,3,,,,60,100
9367,control_change,7,0,11,,,,,,,,,10,11,109,,,
9367,note_on,0,0,14,,,,,,,,,13,,,,45,112
9367,control_change,150,0,14,,,,,,,,,13,11,112,,,
9369,control_change,150,0,15,,,,,,,,,14,11,112,,,
9369,control_change,7,0,12,,,,,,,,,11,11,109,,,
9369,note_on,0,0,15,,,,,,,,,14,,,,33,112
9371,control_change,7,0,8,,,,,,,,,7,11,109,,,
9372,control_change,7,0,13,,,,,,,,,12,11,109,,,
9373,control_change,7,0,9,,,,,,,,,8,11,109,,,
9374,control_change,7,0,14,,,,,,,,,13,11,109,,,
9375,control_change,8,0,11,,,,,,,,,10,11,106,,,
9376,control_change,7,0,15,,,,,,,,,14,11,109,,,
9377,control_change,8,0,12,,,,,,,,,11,11,106,,,
9379,control_change,8,0,8,,,,,,,,,7,11,106,,,
9380,control_change,8,0,13,,,,,,,,,12,11,106,,,
9381,control_change,8,0,9,,,,,,,,,8,11,106,,,
9382,control_change,8,0,14,,,,,,,,,13,11,106,,,
9382,control_change,7,0,11,,,,,,,,,10,11,103,,,
9384,control_change,7,0,12,,,,,,,,,11,11,103,,,
9384,control_change,8,0,15,,,,,,,,,14,11,106,,,
9386,control_change,7,0,8,,,,,,,,,7,11,103,,,
9387,control_change,7,0,13,,,,,,,,,12,11,103,,,
9388,control_change,7,0,9,,,,,,,,,8,11,103,,,
9389,control_change,7,0,14,,,,,,,,,13,11,103,,,
9390,note_on,8,0,11,,,,,,,,,10,,,,81,0
9390,control_change,0,0,11,,,,,,,,,10,11,100,,,
9390,note_on,0,0,11,,,,,,,,,10,,,,69,0
9391,control_change,7,0,15,,,,,,,,,14,11,103,,,
9391,note_on,0,0,1,,,,,,,,,0,,,,86,101
9391,note_on,0,0,1,,,,,,,,,0,,,,83,101
9391,note_on,0,0,1,,,,,,,,,0,,,,84,0
9391,note_on,30,0,1,,,,,,,,,0,,,,81,0
9392,note_on,30,0,2,,,,,,,,,1,,,,69,0
9392,note_on,0,0,2,,,,,,,,,1,,,,72,0
9392,note_on,0,0,2,,,,,,,,,1,,,,74,100
9392,control_change,0,0,12,,,,,,,,,11,11,100,,,
9392,note_on,0,0,12,,,,,,,,,11,,,,57,0
9392,note_on,0,0,2,,,,,,,,,1,,,,71,100
9392,note_on,8,0,12,,,,,,,,,11,,,,69,0
9394,control_change,0,0,8,,,,,,,,,7,11,100,,,
9394,note_on,0,0,8,,,,,,,,,7,,,,60,0
9394,note_on,8,0,8,,,,,,,,,7,,,,64,0
9395,control_change,8,0,13,,,,,,,,,12,11,100,,,
9396,note_on,8,0,9,,,,,,,,,8,,,,57,0
9396,control_change,0,0,9,,,,,,,,,8,11,100,,,
9397,control_change,8,0,14,,,,,,,,,13,11,100,,,
9397,note_on,0,0,4,,,,,,,,,3,,,,60,0
9397,control_change,7,0,11,,,,,,,,,10,11,97,,,
9397,note_on,0,0,4,,,,,,,,,3,,,,62,100
9397,note_on,30,0,4,,,,,,,,,3,,,,57,0
9397,note_on,0,0,4,,,,,,,,,3,,,,59,100
9399,control_change,8,0,15,,,,,,,,,14,11,100,,,
9399,control_change,7,0,12,,,,,,,,,11,11,97,,,
9401,control_change,7,0,8,,,,,,,,,7,11,97,,,
9402,control_change,7,0,13,,,,,,,,,12,11,97,,,
9403,control_change,7,0,9,,,,,,,,,8,11,97,,,
9404,control_change,7,0,14,,,,,,,,,13,11,97,,,
9405,control_change,8,0,11,,,,,,,,,10,11,94,,,
9406,control_change,7,0,15,,,,,,,,,14,11,97,,,
9407,control_change,8,0,12,,,,,,,,,11,11,94,,,
9409,control_change,8,0,8,,,,,,,,,7,11,94,,,
9410,control_change,8,0,13,,,,,,,,,12,11,94,,,
9411,control_change,8,0,9,,,,,,,,,8,11,94,,,
9412,note_on,8,0,14,,,,,,,,,13,,,,45,0
9412,control_change,0,0,14,,,,,,,,,13,11,94,,,
9414,note_on,8,0,15,,,,,,,,,14,,,,33,0
9414,control_change,0,0,15,,,,,,,,,14,11,94,,,
9420,set_tempo,60,1,0,,,,,,1071429,,,,,,,,
9420,note_on,15,0,11,,,,,,,,,10,,,,69,112
9420,note_on,0,0,11,,,,,,,,,10,,,,81,112
9421,note_on,30,0,1,,,,,,,,,0,,,,83,0
9421,note_on,0,0,1,,,,,,,,,0,,,,86,0
9421,note_on,0,0,1,,,,,,,,,0,,,,84,101
9421,note_on,0,0,1,,,,,,,,,0,,,,88,101
9422,note_on,0,0,12,,,,,,,,,11,,,,69,112
9422,note_on,15,0,12,,,,,,,,,11,,,,57,112
9422,note_on,0,0,2,,,,,,,,,1,,,,74,0
9422,note_on,0,0,2,,,,,,,,,1,,,,72,100
9422,note_on,0,0,2,,,,,,,,,1,,,,76,100
9422,note_on,0,0,3,,,,,,,,,2,,,,76,0
9422,note_on,60,0,3,,,,,,,,,2,,,,72,0
9422,note_on,30,0,2,,,,,,,,,1,,,,71,0
9425,note_on,15,0,13,,,,,,,,,12,,,,57,0
9425,note_on,0,0,13,,,,,,,,,12,,,,72,0
9425,note_on,0,0,13,,,,,,,,,12,,,,64,0
9427,note_on,0,0,4,,,,,,,,,3,,,,64,100
9427,note_on,0,0,4,,,,,,,,,3,,,,62,0
9427,note_on,30,0,4,,,,,,,,,3,,,,59,0
9427,note_on,0,0,4,,,,,,,,,3,,,,60,100
9450,note_on,0,0,11,,,,,,,,,10,,,,69,0
9450,note_on,30,0,11,,,,,,,,,10,,,,81,0
9451,note_on,0,0,1,,,,,,,,,0,,,,92,101
9451,note_on,0,0,1,,,,,,,,,0,,,,83,101
9451,note_on,0,0,1,,,,,,,,,0,,,,88,0
9451,note_on,30,0,1,,,,,,,,,0,,,,84,0
9452,note_on,30,0,12,,,,,,,,,11,,,,69,0
9452,note_on,30,0,2,,,,,,,,,1,,,,72,0
9452,note_on,0,0,2,,,,,,,,,1,,,,76,0
9452,note_on,0,0,2,,,,,,,,,1,,,,80,100
9452,note_on,0,0,2,,,,,,,,,1,,,,71,100
9452,note_on,0,0,12,,,,,,,,,11,,,,57,0
9457,note_on,0,0,4,,,,,,,,,3,,,,64,0
9457,note_on,0,0,4,,,,,,,,,3,,,,68,100
9457,note_on,0,0,4,,,,,,,,,3,,,,59,100
9457,note_on,30,0,4,,,,,,,,,3,,,,60,0
9473,note_on,112,0,5,,,,,,,,,4,,,,64,0
9475,note_on,112,0,6,,,,,,,,,5,,,,60,0
9480,set_tempo,60,1,0,,,,,,1142857,,,,,,,,
9481,note_on,0,0,1,,,,,,,,,0,,,,92,0
9481,note_on,8,0,5,,,,,,,,,4,,,,64,110
9481,note_on,0,0,1,,,,,,,,,0,,,,84,101
9481,note_on,0,0,1,,,,,,,,,0,,,,93,101
9481,note_on,30,0,1,,,,,,,,,0,,,,83,0
9482,note_on,0,0,2,,,,,,,,,1,,,,81,100
9482,note_on,0,0,2,,,,,,,,,1,,,,80,0
9482,note_on,0,0,2,,,,,,,,,1,,,,72,100
9482,note_on,30,0,2,,,,,,,,,1,,,,71,0
9483,note_on,8,0,6,,,,,,,,,5,,,,60,110
9484,note_on,0,0,8,,,,,,,,,7,,,,64,110
9484,note_on,75,0,8,,,,,,,,,7,,,,60,110
9485,note_on,60,0,13,,,,,,,,,12,,,,69,112
9486,note_on,75,0,9,,,,,,,,,8,,,,57,110
9487,note_on,30,0,4,,,,,,,,,3,,,,59,0
9487,note_on,75,0,14,,,,,,,,,13,,,,57,112
9487,note_on,0,0,4,,,,,,,,,3,,,,68,0
9487,note_on,0,0,4,,,,,,,,,3,,,,60,100
9487,note_on,0,0,4,,,,,,,,,3,,,,69,100
9489,note_on,75,0,15,,,,,,,,,14,,,,45,112
9511,note_on,0,0,1,,,,,,,,,0,,,,84,0
9511,note_on,30,0,1,,,,,,,,,0,,,,93,0
9512,note_on,30,0,2,,,,,,,,,1,,,,81,0
9512,note_on,0,0,2,,,,,,,,,1,,,,72,0
9514,note_on,0,0,8,,,,,,,,,7,,,,60,0
9514,note_on,30,0,8,,,,,,,,,7,,,,64,0
9515,note_on,30,0,13,,,,,,,,,12,,,,69,0
9516,note_on,30,0,9,,,,,,,,,8,,,,57,0
9517,note_on,30,0,4,,,,,,,,,3,,,,69,0
9517,note_on,30,0,14,,,,,,,,,13,,,,57,0
9517,note_on,0,0,4,,,,,,,,,3,,,,60,0
9519,note_on,30,0,15,,,,,,,,,14,,,,45,0
9530,note_on,15,0,13,,,,,,,,,12,,,,67,112
9532,note_on,15,0,14,,,,,,,,,13,,,,55,112
9534,note_on,15,0,15,,,,,,,,,14,,,,43,112
9540,set_tempo,60,1,0,,,,,,1071429,,,,,,,,
9541,note_on,11,0,13,,,,,,,,,12,,,,67,0
9541,note_on,30,0,1,,,,,,,,,0,,,,93,101
9541,note_on,0,0,1,,,,,,,,,0,,,,84,101
9542,note_on,0,0,2,,,,,,,,,1,,,,72,100
9542,note_on,30,0,2,,,,,,,,,1,,,,81,100
9543,note_on,11,0,14,,,,,,,,,13,,,,55,0
9545,note_on,11,0,15,,,,,,,,,14,,,,43,0
9545,note_on,4,0,13,,,,,,,,,12,,,,65,112
9547,note_on,0,0,4,,,,,,,,,3,,,,60,100
9547,note_on,30,0,4,,,,,,,,,3,,,,69,100
9547,note_on,4,0,14,,,,,,,,,13,,,,53,112
9549,note_on,4,0,15,,,,,,,,,14,,,,41,112
9571,note_on,0,0,1,,,,,,,,,0,,,,93,0
9571,note_on,30,0,1,,,,,,,,,0,,,,84,0
9572,note_on,0,0,2,,,,,,,,,1,,,,81,0
9572,note_on,30,0,2,,,,,,,,,1,,,,72,0
9575,note_on,30,0,13,,,,,,,,,12,,,,65,0
9577,note_on,0,0,4,,,,,,,,,3,,,,69,0
9577,note_on,30,0,4,,,,,,,,,3,,,,60,0
9577,note_on,30,0,14,,,,,,,,,13,,,,53,0
9579,note_on,30,0,15,,,,,,,,,14,,,,41,0
9590,note_on,15,0,13,,,,,,,,,12,,,,64,112
9592,note_on,15,0,14,,,,,,,,,13,,,,52,112
9593,note_on,112,0,5,,,,,,,,,4,,,,64,0
9594,note_on,15,0,15,,,,,,,,,14,,,,40,112
9595,note_on,112,0,6,,,,,,,,,5,,,,60,0
9600,note_on,0,0,11,,,,,,,,,10,,,,69,112
9600,note_on,0,0,11,,,,,,,,,10,,,,77,112
9600,note_on,0,0,11,,,,,,,,,10,,,,86,112
9600,control_change,150,0,11,,,,,,,,,10,11,112,,,
9600,set_tempo,60,1,0,,,,,,1165049,,,,,,,,
9601,control_change,30,0,1,,,,,,,,,0,11,98,,,
9601,note_on,0,0,1,,,,,,,,,0,,,,89,101
9601,note_on,8,0,5,,,,,,,,,4,,,,65,100
9601,note_on,11,0,13,,,,,,,,,12,,,,64,0
9601,note_on,0,0,1,,,,,,,,,0,,,,86,101
9602,note_on,240,0,7,,,,,,,,,6,,,,57,122
9602,note_on,0,0,7,,,,,,,,,6,,,,69,122
9602,control_change,30,0,2,,,,,,,,,1,11,98,,,
9602,note_on,0,0,12,,,,,,,,,11,,,,62,112
9602,note_on,0,0,2,,,,,,,,,1,,,,81,100
9602,note_on,0,0,12,,,,,,,,,11,,,,77,112
9602,control_change,150,0,12,,,,,,,,,11,11,112,,,
9602,note_on,0,0,3,,,,,,,,,2,,,,74,101
9602,note_on,180,0,3,,,,,,,,,2,,,,77,101
9602,note_on,0,0,2,,,,,,,,,1,,,,77,100
9602,note_on,0,0,12,,,,,,,,,11,,,,69,112
9603,note_on,11,0,14,,,,,,,,,13,,,,52,0
9603,note_on,8,0,6,,,,,,,,,5,,,,62,100
9604,note_on,0,0,8,,,,,,,,,7,,,,65,110
9604,note_on,0,0,8,,,,,,,,,7,,,,57,110
9604,control_change,90,0,8,,,,,,,,,7,11,112,,,
9605,control_change,4,0,13,,,,,,,,,12,11,112,,,
9605,note_on,11,0,15,,,,,,,,,14,,,,40,0
9605,note_on,0,0,13,,,,,,,,,12,,,,62,112
9606,note_on,0,0,9,,,,,,,,,8,,,,50,110
9606,control_change,90,0,9,,,,,,,,,8,11,112,,,
9607,control_change,4,0,14,,,,,,,,,13,11,112,,,
9607,note_on,0,0,14,,,,,,,,,13,,,,50,112
9607,note_on,30,0,4,,,,,,,,,3,,,,65,100
9607,note_on,0,0,4,,,,,,,,,3,,,,62,100
9607,control_change,7,0,11,,,,,,,,,10,11,109,,,
9608,note_on,300,0,10,,,,,,,,,15,,,,45,85
9609,control_change,7,0,12,,,,,,,,,11,11,109,,,
9609,control_change,4,0,15,,,,,,,,,14,11,112,,,
9609,note_on,0,0,15,,,,,,,,,14,,,,38,112
9611,control_change,7,0,8,,,,,,,,,7,11,109,,,
9612,control_change,7,0,13,,,,,,,,,12,11,109,,,
9613,control_change,7,0,9,,,,,,,,,8,11,109,,,
9614,control_change,7,0,14,,,,,,,,,13,11,109,,,
9615,control_change,8,0,11,,,,,,,,,10,11,106,,,
9616,control_change,7,0,15,,,,,,,,,14,11,109,,,
9616,control_change,15,0,1,,,,,,,,,0,11,94,,,
9617,control_change,15,0,2,,,,,,,,,1,11,94,,,
9617,control_change,8,0,12,,,,,,,,,11,11,106,,,
9619,control_change,8,0,8,,,,,,,,,7,11,106,,,
9620,control_change,8,0,13,,,,,,,,,12,11,106,,,
9621,control_change,8,0,9,,,,,,,,,8,11,106,,,
9622,control_change,8,0,14,,,,,,,,,13,11,106,,,
9622,control_change,7,0,11,,,,,,,,,10,11,103,,,
9623,control_change,7,0,1,,,,,,,,,0,11,91,,,
9624,control_change,7,0,12,,,,,,,,,11,11,103,,,
9624,control_change,8,0,15,,,,,,,,,14,11,106,,,
9624,control_change,7,0,2,,,,,,,,,1,11,91,,,
9626,control_change,7,0,8,,,,,,,,,7,11,103,,,
9627,control_change,7,0,13,,,,,,,,,12,11,103,,,
9628,control_change,7,0,9,,,,,,,,,8,11,103,,,
9629,control_change,7,0,14,,,,,,,,,13,11,103,,,
9630,control_change,8,0,11,,,,,,,,,10,11,100,,,
9631,control_change,7,0,15,,,,,,,,,14,11,103,,,
9631,note_on,30,0,5,,,,,,,,,4,,,,65,0
9632,control_change,8,0,12,,,,,,,,,11,11,100,,,
9632,note_on,0,0,3,,,,,,,,,2,,,,77,0
9632,note_on,30,0,3,,,,,,,,,2,,,,74,0
9633,note_on,30,0,6,,,,,,,,,5,,,,62,0
9634,control_change,0,0,8,,,,,,,,,7,11,100,,,
9634,note_on,0,0,8,,,,,,,,,7,,,,57,0
9634,note_on,8,0,8,,,,,,,,,7,,,,65,0
9635,note_on,8,0,13,,,,,,,,,12,,,,62,0
9635,control_change,0,0,13,,,,,,,,,12,11,100,,,
9636,control_change,0,0,9,,,,,,,,,8,11,100,,,
9636,note_on,8,0,9,,,,,,,,,8,,,,50,0
9637,note_on,0,0,4,,,,,,,,,3,,,,65,0
9637,note_on,30,0,4,,,,,,,,,3,,,,62,0
9637,control_change,7,0,11,,,,,,,,,10,11,97,,,
9637,note_on,8,0,14,,,,,,,,,13,,,,50,0
9637,control_change,0,0,14,,,,,,,,,13,11,100,,,
9638,control_change,15,0,1,,,,,,,,,0,11,87,,,
9639,control_change,7,0,12,,,,,,,,,11,11,97,,,
9639,note_on,8,0,15,,,,,,,,,14,,,,38,0
9639,control_change,15,0,2,,,,,,,,,1,11,87,,,
9639,control_change,0,0,15,,,,,,,,,14,11,100,,,
9641,control_change,7,0,8,,,,,,,,,7,11,97,,,
9642,control_change,7,0,13,,,,,,,,,12,11,97,,,
9643,control_change,7,0,9,,,,,,,,,8,11,97,,,
9644,control_change,7,0,14,,,,,,,,,13,11,97,,,
9645,control_change,8,0,11,,,,,,,,,10,11,94,,,
9646,control_change,7,0,15,,,,,,,,,14,11,97,,,
9646,note_on,15,0,5,,,,,,,,,4,,,,64,100
9647,control_change,8,0,12,,,,,,,,,11,11,94,,,
9647,note_on,0,0,3,,,,,,,,,2,,,,73,101
9647,note_on,15,0,3,,,,,,,,,2,,,,76,101
9648,note_on,15,0,6,,,,,,,,,5,,,,64,100
9649,control_change,8,0,8,,,,,,,,,7,11,94,,,
9650,control_change,8,0,13,,,,,,,,,12,11,94,,,
9651,control_change,8,0,9,,,,,,,,,8,11,94,,,
9652,note_on,0,0,4,,,,,,,,,3,,,,61,100
9652,note_on,15,0,4,,,,,,,,,3,,,,64,100
9652,control_change,8,0,14,,,,,,,,,13,11,94,,,
9654,control_change,8,0,15,,,,,,,,,14,11,94,,,
9654,note_on,0,0,11,,,,,,,,,10,,,,86,0
9654,note_on,0,0,11,,,,,,,,,10,,,,77,0
9654,note_on,9,0,11,,,,,,,,,10,,,,69,0
9654,note_on,7,0,3,,,,,,,,,2,,,,73,0
9654,note_on,0,0,3,,,,,,,,,2,,,,76,0
9655,note_on,0,0,1,,,,,,,,,0,,,,89,0
9655,note_on,17,0,1,,,,,,,,,0,,,,86,0
9656,note_on,0,0,12,,,,,,,,,11,,,,69,0
9656,note_on,0,0,12,,,,,,,,,11,,,,77,0
9656,note_on,17,0,2,,,,,,,,,1,,,,77,0
9656,note_on,0,0,2,,,,,,,,,1,,,,81,0
9656,note_on,9,0,12,,,,,,,,,11,,,,62,0
9656,note_on,10,0,5,,,,,,,,,4,,,,64,0
9658,note_on,10,0,6,,,,,,,,,5,,,,64,0
9659,note_on,7,0,4,,,,,,,,,3,,,,61,0
9659,note_on,0,0,4,,,,,,,,,3,,,,64,0
9660,set_tempo,60,1,0,,,,,,1071429,,,,,,,,
9661,note_on,5,0,5,,,,,,,,,4,,,,65,100
9662,note_on,0,0,3,,,,,,,,,2,,,,74,101
9662,note_on,8,0,3,,,,,,,,,2,,,,77,101
9663,note_on,5,0,6,,,,,,,,,5,,,,62,100
9665,note_on,15,0,13,,,,,,,,,12,,,,62,112
9667,note_on,15,0,14,,,,,,,,,13,,,,50,112
9667,note_on,0,0,4,,,,,,,,,3,,,,62,100
9667,note_on,8,0,4,,,,,,,,,3,,,,65,100
9668,note_on,60,0,10,,,,,,,,,15,,,,45,0
9669,note_on,15,0,15,,,,,,,,,14,,,,38,112
9691,note_on,30,0,5,,,,,,,,,4,,,,65,0
9692,note_on,30,0,3,,,,,,,,,2,,,,74,0
9692,note_on,0,0,3,,,,,,,,,2,,,,77,0
9693,note_on,30,0,6,,,,,,,,,5,,,,62,0
9695,note_on,30,0,13,,,,,,,,,12,,,,62,0
9697,note_on,30,0,4,,,,,,,,,3,,,,62,0
9697,note_on,0,0,4,,,,,,,,,3,,,,65,0
9697,note_on,30,0,14,,,,,,,,,13,,,,50,0
9699,note_on,30,0,15,,,,,,,,,14,,,,38,0
9706,note_on,15,0,5,,,,,,,,,4,,,,67,100
9707,note_on,0,0,3,,,,,,,,,2,,,,76,101
9707,note_on,15,0,3,,,,,,,,,2,,,,79,101
9708,note_on,15,0,6,,,,,,,,,5,,,,64,100
9712,note_on,15,0,4,,,,,,,,,3,,,,67,100
9712,note_on,0,0,4,,,,,,,,,3,,,,64,100
9714,note_on,0,0,7,,,,,,,,,6,,,,57,0
9714,note_on,7,0,3,,,,,,,,,2,,,,76,0
9714,note_on,112,0,7,,,,,,,,,6,,,,69,0
9714,note_on,0,0,3,,,,,,,,,2,,,,79,0
9716,note_on,10,0,5,,,,,,,,,4,,,,67,0
9718,note_on,10,0,6,,,,,,,,,5,,,,64,0
9719,note_on,7,0,4,,,,,,,,,3,,,,64,0
9719,note_on,0,0,4,,,,,,,,,3,,,,67,0
9720,note_on,66,0,11,,,,,,,,,10,,,,74,112
9720,set_tempo,60,1,0,,,,,,1142857,,,,,,,,
9721,note_on,5,0,5,,,,,,,,,4,,,,65,100
9722,note_on,0,0,3,,,,,,,,,2,,,,74,101
9722,note_on,66,0,12,,,,,,,,,11,,,,62,112
9722,note_on,8,0,7,,,,,,,,,6,,,,57,122
9722,note_on,0,0,7,,,,,,,,,6,,,,69,122
9722,note_on,8,0,3,,,,,,,,,2,,,,77,101
9723,note_on,5,0,6,,,,,,,,,5,,,,62,100
9724,note_on,0,0,8,,,,,,,,,7,,,,65,110
9724,note_on,75,0,8,,,,,,,,,7,,,,57,110
9726,note_on,75,0,9,,,,,,,,,8,,,,50,110
9727,note_on,8,0,4,,,,,,,,,3,,,,65,100
9727,note_on,0,0,4,,,,,,,,,3,,,,62,100
9728,note_on,60,0,10,,,,,,,,,15,,,,45,85
9743,note_on,23,0,11,,,,,,,,,10,,,,74,0
9745,note_on,23,0,12,,,,,,,,,11,,,,62,0
9751,note_on,30,0,5,,,,,,,,,4,,,,65,0
9752,note_on,0,0,3,,,,,,,,,2,,,,77,0
9752,note_on,30,0,3,,,,,,,,,2,,,,74,0
9753,note_on,30,0,6,,,,,,,,,5,,,,62,0
9754,note_on,30,0,8,,,,,,,,,7,,,,65,0
9754,note_on,0,0,8,,,,,,,,,7,,,,57,0
9756,note_on,30,0,9,,,,,,,,,8,,,,50,0
9757,note_on,0,0,4,,,,,,,,,3,,,,65,0
9757,note_on,30,0,4,,,,,,,,,3,,,,62,0
9765,note_on,22,0,11,,,,,,,,,10,,,,76,112
9767,note_on,22,0,12,,,,,,,,,11,,,,64,112
9773,note_on,8,0,11,,,,,,,,,10,,,,76,0
9775,note_on,8,0,12,,,,,,,,,11,,,,64,0
9780,note_on,7,0,11,,,,,,,,,10,,,,77,112
9780,set_tempo,60,1,0,,,,,,1071429,,,,,,,,
9781,note_on,30,0,5,,,,,,,,,4,,,,65,100
9782,note_on,0,0,3,,,,,,,,,2,,,,74,101
9782,note_on,7,0,12,,,,,,,,,11,,,,65,112
9782,note_on,30,0,3,,,,,,,,,2,,,,77,101
9783,note_on,30,0,6,,,,,,,,,5,,,,62,100
9787,note_on,0,0,4,,,,,,,,,3,,,,62,100
9787,note_on,30,0,4,,,,,,,,,3,,,,65,100
9788,note_on,60,0,10,,,,,,,,,15,,,,45,0
9803,note_on,23,0,11,,,,,,,,,10,,,,77,0
9805,note_on,23,0,12,,,,,,,,,11,,,,65,0
9811,note_on,30,0,5,,,,,,,,,4,,,,65,0
9812,note_on,0,0,3,,,,,,,,,2,,,,77,0
9812,note_on,30,0,3,,,,,,,,,2,,,,74,0
9813,note_on,30,0,6,,,,,,,,,5,,,,62,0
9817,note_on,30,0,4,,,,,,,,,3,,,,62,0
9817,note_on,0,0,4,,,,,,,,,3,,,,65,0
9825,note_on,22,0,11,,,,,,,,,10,,,,79,112
9827,note_on,22,0,12,,,,,,,,,11,,,,67,112
9833,note_on,8,0,11,,,,,,,,,10,,,,79,0
9834,note_on,0,0,7,,,,,,,,,6,,,,57,0
9834,note_on,112,0,7,,,,,,,,,6,,,,69,0
9835,note_on,8,0,12,,,,,,,,,11,,,,67,0
9840,note_on,0,0,11,,,,,,,,,10,,,,69,112
9840,note_on,0,0,11,,,,,,,,,10,,,,81,112
9840,set_tempo,60,1,0,,,,,,1165049,,,,,,,,
9840,control_change,7,0,11,,,,,,,,,10,11,112,,,
9841,note_on,30,0,5,,,,,,,,,4,,,,64,100
9841,note_on,186,0,1,,,,,,,,,0,,,,84,101
9841,note_on,0,0,1,,,,,,,,,0,,,,81,101
9842,note_on,0,0,3,,,,,,,,,2,,,,72,101
9842,control_change,7,0,12,,,,,,,,,11,11,112,,,
9842,note_on,0,0,2,,,,,,,,,1,,,,69,100
9842,note_on,186,0,2,,,,,,,,,1,,,,72,100
9842,note_on,0,0,12,,,,,,,,,11,,,,69,112
9842,note_on,0,0,12,,,,,,,,,11,,,,57,112
9842,note_on,30,0,3,,,,,,,,,2,,,,76,101
9843,note_on,30,0,6,,,,,,,,,5,,,,60,100
9844,control_change,90,0,8,,,,,,,,,7,11,112,,,
9844,note_on,0,0,8,,,,,,,,,7,,,,60,110
9844,note_on,0,0,8,,,,,,,,,7,,,,64,110
9845,note_on,0,0,13,,,,,,,,,12,,,,64,112
9845,note_on,0,0,13,,,,,,,,,12,,,,57,112
9845,control_change,150,0,13,,,,,,,,,12,11,112,,,
9845,note_on,0,0,13,,,,,,,,,12,,,,72,112
9846,note_on,0,0,9,,,,,,,,,8,,,,57,110
9846,control_change,90,0,9,,,,,,,,,8,11,112,,,
9847,note_on,0,0,14,,,,,,,,,13,,,,45,112
9847,control_change,150,0,14,,,,,,,,,13,11,112,,,
9847,note_on,30,0,4,,,,,,,,,3,,,,60,100
9847,control_change,7,0,11,,,,,,,,,10,11,109,,,
9847,note_on,0,0,4,,,,,,,,,3,,,,57,100
9849,control_change,7,0,12,,,,,,,,,11,11,109,,,
9849,control_change,150,0,15,,,,,,,,,14,11,112,,,
9849,note_on,0,0,15,,,,,,,,,14,,,,33,112
9851,control_change,7,0,8,,,,,,,,,7,11,109,,,
9852,control_change,7,0,13,,,,,,,,,12,11,109,,,
9853,control_change,7,0,9,,,,,,,,,8,11,109,,,
9854,control_change,7,0,14,,,,,,,,,13,11,109,,,
9855,control_change,8,0,11,,,,,,,,,10,11,106,,,
9856,control_change,7,0,15,,,,,,,,,14,11,109,,,
9857,control_change,8,0,12,,,,,,,,,11,11,106,,,
9859,control_change,8,0,8,,,,,,,,,7,11,106,,,
9860,control_change,8,0,13,,,,,,,,,12,11,106,,,
9861,control_change,8,0,9,,,,,,,,,8,11,106,,,
9862,control_change,8,0,14,,,,,,,,,13,11,106,,,
9862,control_change,7,0,11,,,,,,,,,10,11,103,,,
9864,control_change,7,0,12,,,,,,,,,11,11,103,,,
9864,control_change,8,0,15,,,,,,,,,14,11,106,,,
9866,control_change,7,0,8,,,,,,,,,7,11,103,,,
9867,control_change,7,0,13,,,,,,,,,12,11,103,,,
9868,control_change,7,0,9,,,,,,,,,8,11,103,,,
9869,control_change,7,0,14,,,,,,,,,13,11,103,,,
9870,control_change,0,0,11,,,,,,,,,10,11,100,,,
9870,note_on,0,0,11,,,,,,,,,10,,,,81,0
9870,note_on,8,0,11,,,,,,,,,10,,,,69,0
9871,note_on,0,0,1,,,,,,,,,0,,,,84,0
9871,note_on,0,0,1,,,,,,,,,0,,,,83,101
9871,note_on,0,0,1,,,,,,,,,0,,,,86,101
9871,note_on,30,0,1,,,,,,,,,0,,,,81,0
9871,control_change,7,0,15,,,,,,,,,14,11,103,,,
9872,note_on,30,0,2,,,,,,,,,1,,,,69,0
9872,note_on,0,0,12,,,,,,,,,11,,,,57,0
9872,control_change,0,0,12,,,,,,,,,11,11,100,,,
9872,note_on,0,0,2,,,,,,,,,1,,,,71,100
9872,note_on,8,0,12,,,,,,,,,11,,,,69,0
9872,note_on,0,0,2,,,,,,,,,1,,,,72,0
9872,note_on,0,0,2,,,,,,,,,1,,,,74,100
9874,control_change,0,0,8,,,,,,,,,7,11,100,,,
9874,note_on,0,0,8,,,,,,,,,7,,,,60,0
9874,note_on,8,0,8,,,,,,,,,7,,,,64,0
9875,control_change,8,0,13,,,,,,,,,12,11,100,,,
9876,note_on,8,0,9,,,,,,,,,8,,,,57,0
9876,control_change,0,0,9,,,,,,,,,8,11,100,,,
9877,note_on,8,0,14,,,,,,,,,13,,,,45,0
9877,control_change,0,0,14,,,,,,,,,13,11,100,,,
9877,note_on,0,0,4,,,,,,,,,3,,,,59,100
9877,note_on,0,0,4,,,,,,,,,3,,,,62,100
9877,note_on,0,0,4,,,,,,,,,3,,,,60,0
9877,note_on,30,0,4,,,,,,,,,3,,,,57,0
9877,control_change,7,0,11,,,,,,,,,10,11,97,,,
9879,note_on,8,0,15,,,,,,,,,14,,,,33,0
9879,control_change,7,0,12,,,,,,,,,11,11,97,,,
9879,control_change,0,0,15,,,,,,,,,14,11,100,,,
9881,control_change,7,0,8,,,,,,,,,7,11,97,,,
9882,control_change,7,0,13,,,,,,,,,12,11,97,,,
9883,control_change,7,0,9,,,,,,,,,8,11,97,,,
9884,control_change,7,0,14,,,,,,,,,13,11,97,,,
9885,control_change,8,0,11,,,,,,,,,10,11,94,,,
9886,control_change,7,0,15,,,,,,,,,14,11,97,,,
9887,control_change,8,0,12,,,,,,,,,11,11,94,,,
9889,control_change,8,0,8,,,,,,,,,7,11,94,,,
9890,control_change,8,0,13,,,,,,,,,12,11,94,,,
9891,control_change,8,0,9,,,,,,,,,8,11,94,,,
9892,control_change,8,0,14,,,,,,,,,13,11,94,,,
9894,control_change,8,0,15,,,,,,,,,14,11,94,,,
9900,note_on,0,0,11,,,,,,,,,10,,,,69,112
9900,set_tempo,60,1,0,,,,,,1071429,,,,,,,,
9900,note_on,15,0,11,,,,,,,,,10,,,,81,112
9901,note_on,0,0,1,,,,,,,,,0,,,,88,101
9901,note_on,0,0,1,,,,,,,,,0,,,,84,101
9901,note_on,0,0,1,,,,,,,,,0,,,,86,0
9901,note_on,30,0,1,,,,,,,,,0,,,,83,0
9902,note_on,15,0,12,,,,,,,,,11,,,,57,112
9902,note_on,0,0,3,,,,,,,,,2,,,,76,0
9902,note_on,30,0,2,,,,,,,,,1,,,,71,0
9902,note_on,0,0,2,,,,,,,,,1,,,,74,0
9902,note_on,0,0,2,,,,,,,,,1,,,,76,100
9902,note_on,0,0,12,,,,,,,,,11,,,,69,112
9902,note_on,60,0,3,,,,,,,,,2,,,,72,0
9902,note_on,0,0,2,,,,,,,,,1,,,,72,100
9905,note_on,0,0,13,,,,,,,,,12,,,,64,0
9905,note_on,0,0,13,,,,,,,,,12,,,,72,0
9905,note_on,15,0,13,,,,,,,,,12,,,,57,0
9907,note_on,0,0,4,,,,,,,,,3,,,,60,100
9907,note_on,0,0,4,,,,,,,,,3,,,,64,100
9907,note_on,30,0,4,,,,,,,,,3,,,,59,0
9907,note_on,0,0,4,,,,,,,,,3,,,,62,0
9930,note_on,30,0,11,,,,,,,,,10,,,,69,0
9930,note_on,0,0,11,,,,,,,,,10,,,,81,0
9931,note_on,0,0,1,,,,,,,,,0,,,,83,101
9931,note_on,0,0,1,,,,,,,,,0,,,,88,0
9931,note_on,0,0,1,,,,,,,,,0,,,,92,101
9931,note_on,30,0,1,,,,,,,,,0,,,,84,0
9932,note_on,0,0,12,,,,,,,,,11,,,,57,0
9932,note_on,30,0,2,,,,,,,,,1,,,,72,0
9932,note_on,0,0,2,,,,,,,,,1,,,,76,0
9932,note_on,0,0,2,,,,,,,,,1,,,,80,100
9932,note_on,0,0,2,,,,,,,,,1,,,,71,100
9932,note_on,30,0,12,,,,,,,,,11,,,,69,0
9937,note_on,0,0,4,,,,,,,,,3,,,,59,100
9937,note_on,0,0,4,,,,,,,,,3,,,,68,100
9937,note_on,0,0,4,,,,,,,,,3,,,,64,0
9937,note_on,30,0,4,,,,,,,,,3,,,,60,0
9960,note_on,30,0,11,,,,,,,,,10,,,,81,112
9960,set_tempo,60,1,0,,,,,,1142857,,,,,,,,
9961,note_on,0,0,1,,,,,,,,,0,,,,84,101
9961,note_on,0,0,1,,,,,,,,,0,,,,93,101
9961,note_on,120,0,5,,,,,,,,,4,,,,64,0
9961,note_on,0,0,5,,,,,,,,,4,,,,64,100
9961,note_on,30,0,1,,,,,,,,,0,,,,83,0
9961,note_on,0,0,1,,,,,,,,,0,,,,92,0
9962,note_on,60,0,3,,,,,,,,,2,,,,69,101
9962,note_on,30,0,2,,,,,,,,,1,,,,71,0
9962,note_on,0,0,2,,,,,,,,,1,,,,80,0
9962,note_on,0,0,2,,,,,,,,,1,,,,72,100
9962,note_on,30,0,12,,,,,,,,,11,,,,69,112
9962,note_on,0,0,2,,,,,,,,,1,,,,81,100
9963,note_on,0,0,6,,,,,,,,,5,,,,60,100
9963,note_on,120,0,6,,,,,,,,,5,,,,60,0
9965,note_on,60,0,13,,,,,,,,,12,,,,57,112
9967,note_on,75,0,14,,,,,,,,,13,,,,57,112
9967,note_on,30,0,4,,,,,,,,,3,,,,59,0
9967,note_on,0,0,4,,,,,,,,,3,,,,68,0
9967,note_on,0,0,4,,,,,,,,,3,,,,60,100
9967,note_on,0,0,4,,,,,,,,,3,,,,69,100
9969,note_on,75,0,15,,,,,,,,,14,,,,45,112
9981,note_on,20,0,1,,,,,,,,,0,,,,93,0
9981,note_on,0,0,1,,,,,,,,,0,,,,84,0
9982,note_on,20,0,3,,,,,,,,,2,,,,69,0
9982,note_on,0,0,2,,,,,,,,,1,,,,72,0
9982,note_on,20,0,2,,,,,,,,,1,,,,81,0
9987,note_on,20,0,4,,,,,,,,,3,,,,69,0
9987,note_on,0,0,4,,,,,,,,,3,,,,60,0
9990,note_on,30,0,11,,,,,,,,,10,,,,81,0
9992,note_on,30,0,12,,,,,,,,,11,,,,69,0
9995,note_on,30,0,13,,,,,,,,,12,,,,57,0
9996,note_on,35,0,5,,,,,,,,,4,,,,64,0
9997,note_on,30,0,14,,,,,,,,,13,,,,57,0
9998,note_on,35,0,6,,,,,,,,,5,,,,60,0
9999,note_on,30,0,15,,,,,,,,,14,,,,45,0
10005,note_on,15,0,11,,,,,,,,,10,,,,83,112
10006,note_on,25,0,1,,,,,,,,,0,,,,83,101
10006,note_on,10,0,5,,,,,,,,,4,,,,62,100
10007,note_on,25,0,2,,,,,,,,,1,,,,71,100
10007,note_on,25,0,3,,,,,,,,,2,,,,71,101
10007,note_on,15,0,12,,,,,,,,,11,,,,71,112
10008,note_on,10,0,6,,,,,,,,,5,,,,62,100
10010,note_on,15,0,13,,,,,,,,,12,,,,59,112
10011,note_on,5,0,1,,,,,,,,,0,,,,83,0
10012,note_on,5,0,3,,,,,,,,,2,,,,71,0
10012,note_on,15,0,14,,,,,,,,,13,,,,59,112
10012,note_on,5,0,2,,,,,,,,,1,,,,71,0
10012,note_on,25,0,4,,,,,,,,,3,,,,59,100
10014,note_on,15,0,15,,,,,,,,,14,,,,47,112
10016,note_on,10,0,5,,,,,,,,,4,,,,62,0
10016,note_on,11,0,11,,,,,,,,,10,,,,83,0
10017,note_on,5,0,4,,,,,,,,,3,,,,59,0
10018,note_on,10,0,6,,,,,,,,,5,,,,62,0
10018,note_on,11,0,12,,,,,,,,,11,,,,71,0
10020,note_on,4,0,11,,,,,,,,,10,,,,84,112
10020,set_tempo,60,1,0,,,,,,1034483,,,,,,,,
10021,note_on,11,0,13,,,,,,,,,12,,,,59,0
10021,note_on,5,0,5,,,,,,,,,4,,,,60,100
10021,note_on,10,0,1,,,,,,,,,0,,,,84,101
10022,note_on,4,0,12,,,,,,,,,11,,,,72,112
10022,note_on,10,0,3,,,,,,,,,2,,,,72,101
10022,note_on,10,0,2,,,,,,,,,1,,,,72,100
10023,note_on,11,0,14,,,,,,,,,13,,,,59,0
10023,note_on,5,0,6,,,,,,,,,5,,,,60,100
10025,note_on,11,0,15,,,,,,,,,14,,,,47,0
10025,note_on,4,0,13,,,,,,,,,12,,,,60,112
10027,note_on,4,0,14,,,,,,,,,13,,,,60,112
10027,note_on,10,0,4,,,,,,,,,3,,,,60,100
10029,note_on,4,0,15,,,,,,,,,14,,,,48,112
10041,note_on,20,0,1,,,,,,,,,0,,,,84,0
10042,note_on,20,0,2,,,,,,,,,1,,,,72,0
10042,note_on,20,0,3,,,,,,,,,2,,,,72,0
10047,note_on,20,0,4,,,,,,,,,3,,,,60,0
10050,note_on,30,0,11,,,,,,,,,10,,,,84,0
10052,note_on,30,0,12,,,,,,,,,11,,,,72,0
10055,note_on,30,0,13,,,,,,,,,12,,,,60,0
10056,note_on,35,0,5,,,,,,,,,4,,,,60,0
10057,note_on,30,0,14,,,,,,,,,13,,,,60,0
10058,note_on,35,0,6,,,,,,,,,5,,,,60,0
10059,note_on,30,0,15,,,,,,,,,14,,,,48,0
10065,note_on,15,0,11,,,,,,,,,10,,,,86,112
10066,note_on,10,0,5,,,,,,,,,4,,,,62,100
10066,note_on,25,0,1,,,,,,,,,0,,,,86,101
10067,note_on,15,0,12,,,,,,,,,11,,,,74,112
10067,note_on,25,0,3,,,,,,,,,2,,,,74,101
10067,note_on,25,0,2,,,,,,,,,1,,,,74,100
10068,note_on,10,0,6,,,,,,,,,5,,,,62,100
10070,note_on,15,0,13,,,,,,,,,12,,,,62,112
10071,note_on,5,0,1,,,,,,,,,0,,,,86,0
10072,note_on,5,0,3,,,,,,,,,2,,,,74,0
10072,note_on,15,0,14,,,,,,,,,13,,,,62,112
10072,note_on,25,0,4,,,,,,,,,3,,,,62,100
10072,note_on,5,0,2,,,,,,,,,1,,,,74,0
10074,note_on,15,0,15,,,,,,,,,14,,,,50,112
10076,note_on,10,0,5,,,,,,,,,4,,,,62,0
10076,note_on,11,0,11,,,,,,,,,10,,,,86,0
10077,note_on,5,0,4,,,,,,,,,3,,,,62,0
10078,note_on,10,0,6,,,,,,,,,5,,,,62,0
10078,note_on,11,0,12,,,,,,,,,11,,,,74,0
10080,set_tempo,60,1,0,,,,,,1132075,,,,,,,,
10080,note_on,4,0,11,,,,,,,,,10,,,,88,112
10081,note_on,10,0,1,,,,,,,,,0,,,,88,101
10081,note_on,5,0,5,,,,,,,,,4,,,,64,100
10081,note_on,11,0,13,,,,,,,,,12,,,,62,0
10082,note_on,10,0,2,,,,,,,,,1,,,,76,100
10082,note_on,0,0,7,,,,,,,,,6,,,,76,112
10082,note_on,248,0,7,,,,,,,,,6,,,,64,112
10082,note_on,4,0,12,,,,,,,,,11,,,,76,112
10082,note_on,10,0,3,,,,,,,,,2,,,,76,101
10083,note_on,11,0,14,,,,,,,,,13,,,,62,0
10083,note_on,5,0,6,,,,,,,,,5,,,,64,100
10085,note_on,4,0,13,,,,,,,,,12,,,,64,112
10085,note_on,11,0,15,,,,,,,,,14,,,,50,0
10087,note_on,4,0,14,,,,,,,,,13,,,,64,112
10087,note_on,10,0,4,,,,,,,,,3,,,,64,100
10088,note_on,300,0,10,,,,,,,,,15,,,,52,85
10089,note_on,4,0,15,,,,,,,,,14,,,,52,112
10101,note_on,20,0,1,,,,,,,,,0,,,,88,0
10102,note_on,20,0,3,,,,,,,,,2,,,,76,0
10102,note_on,20,0,2,,,,,,,,,1,,,,76,0
10107,note_on,20,0,4,,,,,,,,,3,,,,64,0
10110,note_on,30,0,11,,,,,,,,,10,,,,88,0
10112,note_on,30,0,12,,,,,,,,,11,,,,76,0
10115,note_on,30,0,13,,,,,,,,,12,,,,64,0
10116,note_on,35,0,5,,,,,,,,,4,,,,64,0
10117,note_on,30,0,14,,,,,,,,,13,,,,64,0
10118,note_on,35,0,6,,,,,,,,,5,,,,64,0
10119,note_on,30,0,15,,,,,,,,,14,,,,52,0
10125,note_on,15,0,11,,,,,,,,,10,,,,86,112
10126,note_on,25,0,1,,,,,,,,,0,,,,86,101
10126,note_on,10,0,5,,,,,,,,,4,,,,62,100
10127,note_on,25,0,2,,,,,,,,,1,,,,74,100
10127,note_on,15,0,12,,,,,,,,,11,,,,74,112
10127,note_on,25,0,3,,,,,,,,,2,,,,74,101
10128,note_on,10,0,6,,,,,,,,,5,,,,62,100
10130,note_on,15,0,13,,,,,,,,,12,,,,62,112
10131,note_on,5,0,1,,,,,,,,,0,,,,86,0
10132,note_on,5,0,2,,,,,,,,,1,,,,74,0
10132,note_on,15,0,14,,,,,,,,,13,,,,62,112
10132,note_on,5,0,3,,,,,,,,,2,,,,74,0
10132,note_on,25,0,4,,,,,,,,,3,,,,62,100
10134,note_on,15,0,15,,,,,,,,,14,,,,50,112
10136,note_on,10,0,5,,,,,,,,,4,,,,62,0
10136,note_on,11,0,11,,,,,,,,,10,,,,86,0
10137,note_on,5,0,4,,,,,,,,,3,,,,62,0
10138,note_on,10,0,6,,,,,,,,,5,,,,62,0
10138,note_on,11,0,12,,,,,,,,,11,,,,74,0
10140,set_tempo,60,1,0,,,,,,1016949,,,,,,,,
10140,note_on,4,0,11,,,,,,,,,10,,,,84,112
10141,note_on,10,0,1,,,,,,,,,0,,,,84,101
10141,note_on,5,0,5,,,,,,,,,4,,,,60,100
10141,note_on,11,0,13,,,,,,,,,12,,,,62,0
10142,note_on,60,0,7,,,,,,,,,6,,,,76,0
10142,note_on,0,0,7,,,,,,,,,6,,,,64,0
10142,note_on,10,0,2,,,,,,,,,1,,,,72,100
10142,note_on,10,0,3,,,,,,,,,2,,,,72,101
10142,note_on,4,0,12,,,,,,,,,11,,,,72,112
10143,note_on,11,0,14,,,,,,,,,13,,,,62,0
10143,note_on,5,0,6,,,,,,,,,5,,,,60,100
10145,note_on,4,0,13,,,,,,,,,12,,,,60,112
10145,note_on,11,0,15,,,,,,,,,14,,,,50,0
10147,note_on,4,0,14,,,,,,,,,13,,,,60,112
10147,note_on,10,0,4,,,,,,,,,3,,,,60,100
10148,note_on,60,0,10,,,,,,,,,15,,,,52,0
10149,note_on,4,0,15,,,,,,,,,14,,,,48,112
10161,note_on,20,0,1,,,,,,,,,0,,,,84,0
10162,note_on,20,0,3,,,,,,,,,2,,,,72,0
10162,note_on,20,0,2,,,,,,,,,1,,,,72,0
10167,note_on,20,0,4,,,,,,,,,3,,,,60,0
10170,note_on,30,0,11,,,,,,,,,10,,,,84,0
10172,note_on,30,0,12,,,,,,,,,11,,,,72,0
10175,note_on,30,0,13,,,,,,,,,12,,,,60,0
10176,note_on,35,0,5,,,,,,,,,4,,,,60,0
10177,note_on,30,0,14,,,,,,,,,13,,,,60,0
10178,note_on,35,0,6,,,,,,,,,5,,,,60,0
10179,note_on,30,0,15,,,,,,,,,14,,,,48,0
10185,note_on,15,0,11,,,,,,,,,10,,,,86,112
10186,note_on,25,0,1,,,,,,,,,0,,,,86,101
10186,note_on,10,0,5,,,,,,,,,4,,,,62,100
10187,note_on,15,0,12,,,,,,,,,11,,,,74,112
10187,note_on,25,0,2,,,,,,,,,1,,,,74,100
10187,note_on,25,0,3,,,,,,,,,2,,,,74,101
10188,note_on,10,0,6,,,,,,,,,5,,,,62,100
10190,note_on,15,0,13,,,,,,,,,12,,,,62,112
10191,note_on,5,0,1,,,,,,,,,0,,,,86,0
10192,note_on,5,0,2,,,,,,,,,1,,,,74,0
10192,note_on,25,0,4,,,,,,,,,3,,,,62,100
10192,note_on,15,0,14,,,,,,,,,13,,,,62,112
10192,note_on,5,0,3,,,,,,,,,2,,,,74,0
10194,note_on,15,0,15,,,,,,,,,14,,,,50,112
10196,note_on,10,0,5,,,,,,,,,4,,,,62,0
10196,note_on,11,0,11,,,,,,,,,10,,,,86,0
10197,note_on,5,0,4,,,,,,,,,3,,,,62,0
10198,note_on,10,0,6,,,,,,,,,5,,,,62,0
10198,note_on,11,0,12,,,,,,,,,11,,,,74,0
10200,set_tempo,60,1,0,,,,,,1111111,,,,,,,,
10200,note_on,4,0,11,,,,,,,,,10,,,,88,112
10201,note_on,10,0,1,,,,,,,,,0,,,,88,101
10201,note_on,11,0,13,,,,,,,,,12,,,,62,0
10201,note_on,5,0,5,,,,,,,,,4,,,,64,100
10202,note_on,10,0,2,,,,,,,,,1,,,,76,100
10202,note_on,10,0,3,,,,,,,,,2,,,,76,101
10202,note_on,0,0,7,,,,,,,,,6,,,,76,112
10202,note_on,4,0,12,,,,,,,,,11,,,,76,112
10202,note_on,60,0,7,,,,,,,,,6,,,,64,112
10203,note_on,11,0,14,,,,,,,,,13,,,,62,0
10203,note_on,5,0,6,,,,,,,,,5,,,,64,100
10205,note_on,11,0,15,,,,,,,,,14,,,,50,0
10205,note_on,4,0,13,,,,,,,,,12,,,,64,112
10207,note_on,10,0,4,,,,,,,,,3,,,,64,100
10207,note_on,4,0,14,,,,,,,,,13,,,,64,112
10208,note_on,60,0,10,,,,,,,,,15,,,,52,85
10209,note_on,4,0,15,,,,,,,,,14,,,,52,112
10221,note_on,20,0,1,,,,,,,,,0,,,,88,0
10222,note_on,20,0,3,,,,,,,,,2,,,,76,0
10222,note_on,20,0,2,,,,,,,,,1,,,,76,0
10227,note_on,20,0,4,,,,,,,,,3,,,,64,0
10230,note_on,30,0,11,,,,,,,,,10,,,,88,0
10232,note_on,30,0,12,,,,,,,,,11,,,,76,0
10235,note_on,30,0,13,,,,,,,,,12,,,,64,0
10236,note_on,35,0,5,,,,,,,,,4,,,,64,0
10237,note_on,30,0,14,,,,,,,,,13,,,,64,0
10238,note_on,35,0,6,,,,,,,,,5,,,,64,0
10239,note_on,30,0,15,,,,,,,,,14,,,,52,0
10245,note_on,15,0,11,,,,,,,,,10,,,,86,112
10246,note_on,10,0,5,,,,,,,,,4,,,,62,100
10246,note_on,25,0,1,,,,,,,,,0,,,,86,101
10247,note_on,25,0,2,,,,,,,,,1,,,,74,100
10247,note_on,25,0,3,,,,,,,,,2,,,,74,101
10247,note_on,15,0,12,,,,,,,,,11,,,,74,112
10248,note_on,10,0,6,,,,,,,,,5,,,,62,100
10250,note_on,15,0,13,,,,,,,,,12,,,,62,112
10251,note_on,5,0,1,,,,,,,,,0,,,,86,0
10252,note_on,5,0,3,,,,,,,,,2,,,,74,0
10252,note_on,15,0,14,,,,,,,,,13,,,,62,112
10252,note_on,25,0,4,,,,,,,,,3,,,,62,100
10252,note_on,5,0,2,,,,,,,,,1,,,,74,0
10254,note_on,15,0,15,,,,,,,,,14,,,,50,112
10256,note_on,11,0,11,,,,,,,,,10,,,,86,0
10256,note_on,10,0,5,,,,,,,,,4,,,,62,0
10257,note_on,5,0,4,,,,,,,,,3,,,,62,0
10258,note_on,11,0,12,,,,,,,,,11,,,,74,0
10258,note_on,10,0,6,,,,,,,,,5,,,,62,0
10260,set_tempo,60,1,0,,,,,,1008403,,,,,,,,
10260,note_on,4,0,11,,,,,,,,,10,,,,84,112
10261,note_on,11,0,13,,,,,,,,,12,,,,62,0
10261,note_on,10,0,1,,,,,,,,,0,,,,84,101
10261,note_on,5,0,5,,,,,,,,,4,,,,60,100
10262,note_on,4,0,12,,,,,,,,,11,,,,72,112
10262,note_on,60,0,7,,,,,,,,,6,,,,76,0
10262,note_on,10,0,3,,,,,,,,,2,,,,72,101
10262,note_on,10,0,2,,,,,,,,,1,,,,72,100
10262,note_on,0,0,7,,,,,,,,,6,,,,64,0
10263,note_on,11,0,14,,,,,,,,,13,,,,62,0
10263,note_on,5,0,6,,,,,,,,,5,,,,60,100
10265,note_on,11,0,15,,,,,,,,,14,,,,50,0
10265,note_on,4,0,13,,,,,,,,,12,,,,60,112
10267,note_on,10,0,4,,,,,,,,,3,,,,60,100
10267,note_on,4,0,14,,,,,,,,,13,,,,60,112
10268,note_on,60,0,10,,,,,,,,,15,,,,52,0
10269,note_on,4,0,15,,,,,,,,,14,,,,48,112
10281,note_on,20,0,1,,,,,,,,,0,,,,84,0
10282,note_on,20,0,2,,,,,,,,,1,,,,72,0
10282,note_on,20,0,3,,,,,,,,,2,,,,72,0
10287,note_on,20,0,4,,,,,,,,,3,,,,60,0
10290,note_on,30,0,11,,,,,,,,,10,,,,84,0
10292,note_on,30,0,12,,,,,,,,,11,,,,72,0
10295,note_on,30,0,13,,,,,,,,,12,,,,60,0
10296,note_on,35,0,5,,,,,,,,,4,,,,60,0
10297,note_on,30,0,14,,,,,,,,,13,,,,60,0
10298,note_on,35,0,6,,,,,,,,,5,,,,60,0
10299,note_on,30,0,15,,,,,,,,,14,,,,48,0
10305,note_on,15,0,11,,,,,,,,,10,,,,86,112
10306,note_on,10,0,5,,,,,,,,,4,,,,62,100
10306,note_on,25,0,1,,,,,,,,,0,,,,86,101
10307,note_on,25,0,2,,,,,,,,,1,,,,74,100
10307,note_on,15,0,12,,,,,,,,,11,,,,74,112
10307,note_on,25,0,3,,,,,,,,,2,,,,74,101
10308,note_on,10,0,6,,,,,,,,,5,,,,62,100
10310,note_on,15,0,13,,,,,,,,,12,,,,62,112
10311,note_on,5,0,1,,,,,,,,,0,,,,86,0
10312,note_on,5,0,3,,,,,,,,,2,,,,74,0
10312,note_on,5,0,2,,,,,,,,,1,,,,74,0
10312,note_on,25,0,4,,,,,,,,,3,,,,62,100
10312,note_on,15,0,14,,,,,,,,,13,,,,62,112
10314,note_on,15,0,15,,,,,,,,,14,,,,50,112
10316,note_on,10,0,5,,,,,,,,,4,,,,62,0
10316,note_on,11,0,11,,,,,,,,,10,,,,86,0
10317,note_on,5,0,4,,,,,,,,,3,,,,62,0
10318,note_on,10,0,6,,,,,,,,,5,,,,62,0
10318,note_on,11,0,12,,,,,,,,,11,,,,74,0
10320,set_tempo,60,1,0,,,,,,1165049,,,,,,,,
10320,note_on,4,0,11,,,,,,,,,10,,,,88,122
10321,note_on,10,0,1,,,,,,,,,0,,,,88,111
10321,note_on,11,0,13,,,,,,,,,12,,,,62,0
10321,note_on,5,0,5,,,,,,,,,4,,,,64,110
10322,note_on,10,0,2,,,,,,,,,1,,,,76,110
10322,note_on,60,0,7,,,,,,,,,6,,,,64,122
10322,note_on,0,0,7,,,,,,,,,6,,,,76,122
10322,note_on,10,0,3,,,,,,,,,2,,,,76,111
10322,note_on,4,0,12,,,,,,,,,11,,,,76,122
10323,note_on,11,0,14,,,,,,,,,13,,,,62,0
10323,note_on,5,0,6,,,,,,,,,5,,,,64,110
10324,note_on,0,0,8,,,,,,,,,7,,,,64,120
10324,note_on,435,0,8,,,,,,,,,7,,,,52,120
10325,note_on,4,0,13,,,,,,,,,12,,,,64,122
10325,note_on,11,0,15,,,,,,,,,14,,,,50,0
10326,note_on,435,0,9,,,,,,,,,8,,,,52,120
10327,note_on,10,0,4,,,,,,,,,3,,,,64,110
10327,note_on,4,0,14,,,,,,,,,13,,,,64,122
10328,note_on,60,0,10,,,,,,,,,15,,,,52,85
10329,note_on,4,0,15,,,,,,,,,14,,,,52,122
10380,set_tempo,60,1,0,,,,,,1061947,,,,,,,,
10388,note_on,60,0,10,,,,,,,,,15,,,,52,0
10430,note_on,110,0,11,,,,,,,,,10,,,,88,0
10432,note_on,110,0,12,,,,,,,,,11,,,,76,0
10433,note_on,112,0,5,,,,,,,,,4,,,,64,0
10433,note_on,112,0,1,,,,,,,,,0,,,,88,0
10434,note_on,0,0,7,,,,,,,,,6,,,,64,0
10434,note_on,112,0,7,,,,,,,,,6,,,,76,0
10434,note_on,112,0,2,,,,,,,,,1,,,,76,0
10434,note_on,112,0,3,,,,,,,,,2,,,,76,0
10435,note_on,110,0,13,,,,,,,,,12,,,,64,0
10435,note_on,112,0,6,,,,,,,,,5,,,,64,0
10436,note_on,112,0,8,,,,,,,,,7,,,,64,0
10436,note_on,0,0,8,,,,,,,,,7,,,,52,0
10437,note_on,110,0,14,,,,,,,,,13,,,,64,0
10438,note_on,112,0,9,,,,,,,,,8,,,,52,0
10439,note_on,110,0,15,,,,,,,,,14,,,,52,0
10439,note_on,112,0,4,,,,,,,,,3,,,,64,0
10440,note_on,10,0,11,,,,,,,,,10,,,,88,122
10440,set_tempo,60,1,0,,,,,,1188119,,,,,,,,
10441,note_on,8,0,1,,,,,,,,,0,,,,88,111
10441,note_on,8,0,5,,,,,,,,,4,,,,64,110
10442,note_on,8,0,2,,,,,,,,,1,,,,76,110
10442,note_on,8,0,3,,,,,,,,,2,,,,76,111
10442,note_on,0,0,7,,,,,,,,,6,,,,76,122
10442,note_on,8,0,7,,,,,,,,,6,,,,64,122
10442,note_on,10,0,12,,,,,,,,,11,,,,76,122
10443,note_on,8,0,6,,,,,,,,,5,,,,64,110
10444,note_on,0,0,8,,,,,,,,,7,,,,64,120
10444,note_on,8,0,8,,,,,,,,,7,,,,52,120
10445,note_on,10,0,13,,,,,,,,,12,,,,64,122
10446,note_on,8,0,9,,,,,,,,,8,,,,52,120
10447,note_on,8,0,4,,,,,,,,,3,,,,64,110
10447,note_on,10,0,14,,,,,,,,,13,,,,64,122
10448,note_on,60,0,10,,,,,,,,,15,,,,52,85
10449,note_on,10,0,15,,,,,,,,,14,,,,52,122
10500,set_tempo,60,1,0,,,,,,1111111,,,,,,,,
10508,note_on,60,0,10,,,,,,,,,15,,,,52,0
10530,set_tempo,30,1,0,,,,,,1290323,,,,,,,,
10550,note_on,110,0,11,,,,,,,,,10,,,,88,0
10552,note_on,110,0,12,,,,,,,,,11,,,,76,0
10553,note_on,112,0,1,,,,,,,,,0,,,,88,0
10553,note_on,112,0,5,,,,,,,,,4,,,,64,0
10554,note_on,112,0,7,,,,,,,,,6,,,,76,0
10554,note_on,112,0,3,,,,,,,,,2,,,,76,0
10554,note_on,112,0,2,,,,,,,,,1,,,,76,0
10554,note_on,0,0,7,,,,,,,,,6,,,,64,0
10555,note_on,112,0,6,,,,,,,,,5,,,,64,0
10555,note_on,110,0,13,,,,,,,,,12,,,,64,0
10556,note_on,112,0,8,,,,,,,,,7,,,,64,0
10556,note_on,0,0,8,,,,,,,,,7,,,,52,0
10557,note_on,110,0,14,,,,,,,,,13,,,,64,0
10558,note_on,112,0,9,,,,,,,,,8,,,,52,0
10559,note_on,112,0,4,,,,,,,,,3,,,,64,0
10559,note_on,110,0,15,,,,,,,,,14,,,,52,0
10560,set_tempo,30,1,0,,,,,,1200000,,,,,,,,
10560,control_change,10,0,11,,,,,,,,,10,11,50,,,
10561,control_change,8,0,5,,,,,,,,,4,11,67,,,
10561,note_on,0,0,5,,,,,,,,,4,,,,64,110
10561,control_change,8,0,1,,,,,,,,,0,11,47,,,
10562,control_change,8,0,7,,,,,,,,,6,11,47,,,
10562,note_on,0,0,3,,,,,,,,,2,,,,76,111
10562,control_change,8,0,3,,,,,,,,,2,11,67,,,
10562,control_change,8,0,2,,,,,,,,,1,11,47,,,
10562,control_change,10,0,12,,,,,,,,,11,11,50,,,
10562,note_on,0,0,3,,,,,,,,,2,,,,64,111
10563,note_on,0,0,6,,,,,,,,,5,,,,52,110
10563,control_change,8,0,6,,,,,,,,,5,11,67,,,
10564,control_change,8,0,8,,,,,,,,,7,11,47,,,
10565,control_change,10,0,13,,,,,,,,,12,11,50,,,
10566,control_change,8,0,9,,,,,,,,,8,11,47,,,
10567,control_change,6,0,5,,,,,,,,,4,11,64,,,
10567,control_change,10,0,14,,,,,,,,,13,11,50,,,
10567,control_change,8,0,4,,,,,,,,,3,11,47,,,
10568,control_change,6,0,3,,,,,,,,,2,11,64,,,
10569,control_change,6,0,6,,,,,,,,,5,11,64,,,
10569,control_change,10,0,15,,,,,,,,,14,11,50,,,
10573,control_change,6,0,5,,,,,,,,,4,11,61,,,
10574,control_change,6,0,3,,,,,,,,,2,11,61,,,
10575,control_change,6,0,6,,,,,,,,,5,11,61,,,
10580,control_change,7,0,5,,,,,,,,,4,11,58,,,
10581,control_change,7,0,3,,,,,,,,,2,11,58,,,
10582,control_change,7,0,6,,,,,,,,,5,11,58,,,
10586,control_change,6,0,5,,,,,,,,,4,11,55,,,
10587,control_change,6,0,3,,,,,,,,,2,11,55,,,
10588,control_change,6,0,6,,,,,,,,,5,11,55,,,
10593,control_change,7,0,5,,,,,,,,,4,11,52,,,
10594,control_change,7,0,3,,,,,,,,,2,11,52,,,
10595,control_change,7,0,6,,,,,,,,,5,11,52,,,
10599,control_change,6,0,5,,,,,,,,,4,11,49,,,
10600,control_change,6,0,3,,,,,,,,,2,11,49,,,
10601,control_change,6,0,6,,,,,,,,,5,11,49,,,
10606,control_change,7,0,5,,,,,,,,,4,11,46,,,
10607,control_change,7,0,3,,,,,,,,,2,11,46,,,
10608,control_change,7,0,6,,,,,,,,,5,11,46,,,
10612,control_change,6,0,5,,,,,,,,,4,11,43,,,
10613,control_change,6,0,3,,,,,,,,,2,11,43,,,
10614,control_change,6,0,6,,,,,,,,,5,11,43,,,
10673,note_on,61,0,5,,,,,,,,,4,,,,64,0
10674,note_on,61,0,3,,,,,,,,,2,,,,76,0
10674,note_on,0,0,3,,,,,,,,,2,,,,64,0
10675,note_on,61,0,6,,,,,,,,,5,,,,52,0
10680,set_tempo,120,1,0,,,,,,1212121,,,,,,,,
10681,note_on,8,0,5,,,,,,,,,4,,,,64,110
10682,note_on,8,0,3,,,,,,,,,2,,,,64,111
10682,note_on,0,0,3,,,,,,,,,2,,,,76,111
10683,note_on,8,0,6,,,,,,,,,5,,,,52,110
10770,set_tempo,90,1,0,,,,,,1363636,,,,,,,,
10793,note_on,112,0,5,,,,,,,,,4,,,,64,0
10794,note_on,0,0,3,,,,,,,,,2,,,,64,0
10794,note_on,112,0,3,,,,,,,,,2,,,,76,0
10795,note_on,112,0,6,,,,,,,,,5,,,,52,0
10800,note_on,0,0,11,,,,,,,,,10,,,,64,112
10800,control_change,240,0,11,,,,,,,,,10,11,31,,,
10800,set_tempo,30,1,0,,,,,,1200000,,,,,,,,
10801,note_on,8,0,5,,,,,,,,,4,,,,64,100
10802,control_change,8,0,3,,,,,,,,,2,11,42,,,
10802,note_on,0,0,3,,,,,,,,,2,,,,72,100
10802,note_on,0,0,3,,,,,,,,,2,,,,76,100
10802,note_on,0,0,12,,,,,,,,,11,,,,60,112
10802,control_change,240,0,12,,,,,,,,,11,11,31,,,
10803,note_on,8,0,6,,,,,,,,,5,,,,57,100
10805,control_change,240,0,13,,,,,,,,,12,11,31,,,
10805,note_on,0,0,13,,,,,,,,,12,,,,57,112
10807,note_on,0,0,4,,,,,,,,,3,,,,60,99
10807,note_on,0,0,4,,,,,,,,,3,,,,64,99
10807,control_change,240,0,4,,,,,,,,,3,11,42,,,
10807,control_change,240,0,14,,,,,,,,,13,11,31,,,
10807,note_on,0,0,14,,,,,,,,,13,,,,45,112
10809,control_change,240,0,15,,,,,,,,,14,11,31,,,
10809,note_on,0,0,15,,,,,,,,,14,,,,33,112
10811,control_change,9,0,3,,,,,,,,,2,11,45,,,
10816,control_change,9,0,4,,,,,,,,,3,11,45,,,
10818,control_change,18,0,11,,,,,,,,,10,11,34,,,
10820,control_change,9,0,3,,,,,,,,,2,11,48,,,
10820,control_change,18,0,12,,,,,,,,,11,11,34,,,
10823,control_change,18,0,13,,,,,,,,,12,11,34,,,
10825,control_change,9,0,4,,,,,,,,,3,11,48,,,
10825,control_change,18,0,14,,,,,,,,,13,11,34,,,
10827,control_change,18,0,15,,,,,,,,,14,11,34,,,
10829,control_change,9,0,3,,,,,,,,,2,11,51,,,
10830,note_on,12,0,11,,,,,,,,,10,,,,64,0
10832,note_on,12,0,12,,,,,,,,,11,,,,60,0
10834,control_change,9,0,4,,,,,,,,,3,11,51,,,
10835,note_on,12,0,13,,,,,,,,,12,,,,57,0
10837,note_on,12,0,14,,,,,,,,,13,,,,45,0
10838,control_change,9,0,3,,,,,,,,,2,11,54,,,
10839,note_on,12,0,15,,,,,,,,,14,,,,33,0
10843,control_change,9,0,4,,,,,,,,,3,11,54,,,
10847,control_change,9,0,3,,,,,,,,,2,11,57,,,
10852,control_change,9,0,4,,,,,,,,,3,11,57,,,
10860,note_on,30,0,11,,,,,,,,,10,,,,64,112
10860,set_tempo,60,1,0,,,,,,1111111,,,,,,,,
10861,control_change,9,0,4,,,,,,,,,3,11,60,,,
10862,note_on,30,0,12,,,,,,,,,11,,,,60,112
10865,note_on,30,0,13,,,,,,,,,12,,,,57,112
10890,note_on,30,0,11,,,,,,,,,10,,,,64,0
10892,note_on,30,0,12,,,,,,,,,11,,,,60,0
10895,note_on,30,0,13,,,,,,,,,12,,,,57,0
10920,note_on,30,0,11,,,,,,,,,10,,,,64,112
10920,set_tempo,60,1,0,,,,,,1188119,,,,,,,,
10921,note_on,120,0,5,,,,,,,,,4,,,,64,0
10922,note_on,75,0,3,,,,,,,,,2,,,,76,0
10922,note_on,30,0,12,,,,,,,,,11,,,,60,112
10922,note_on,0,0,3,,,,,,,,,2,,,,72,0
10922,note_on,0,0,3,,,,,,,,,2,,,,71,91
10922,note_on,0,0,3,,,,,,,,,2,,,,74,91
10923,note_on,120,0,6,,,,,,,,,5,,,,57,0
10925,note_on,30,0,13,,,,,,,,,12,,,,57,112
10927,note_on,66,0,4,,,,,,,,,3,,,,60,0
10927,note_on,0,0,4,,,,,,,,,3,,,,64,0
10927,note_on,0,0,4,,,,,,,,,3,,,,59,90
10927,note_on,0,0,4,,,,,,,,,3,,,,62,90
10932,note_on,0,0,3,,,,,,,,,2,,,,71,0
10932,note_on,10,0,3,,,,,,,,,2,,,,74,0
10932,note_on,0,0,3,,,,,,,,,2,,,,69,91
10932,note_on,0,0,3,,,,,,,,,2,,,,72,91
10937,note_on,0,0,4,,,,,,,,,3,,,,59,0
10937,note_on,10,0,4,,,,,,,,,3,,,,62,0
10937,note_on,0,0,4,,,,,,,,,3,,,,57,90
10937,note_on,0,0,4,,,,,,,,,3,,,,60,90
10950,note_on,30,0,11,,,,,,,,,10,,,,64,0
10952,note_on,20,0,3,,,,,,,,,2,,,,72,0
10952,note_on,0,0,3,,,,,,,,,2,,,,69,0
10952,note_on,30,0,12,,,,,,,,,11,,,,60,0
10955,note_on,30,0,13,,,,,,,,,12,,,,57,0
10957,note_on,0,0,4,,,,,,,,,3,,,,57,0
10957,note_on,20,0,4,,,,,,,,,3,,,,60,0
10967,note_on,15,0,3,,,,,,,,,2,,,,68,91
10967,note_on,0,0,3,,,,,,,,,2,,,,71,91
10972,note_on,0,0,3,,,,,,,,,2,,,,68,0
10972,note_on,5,0,3,,,,,,,,,2,,,,71,0
10972,note_on,0,0,4,,,,,,,,,3,,,,59,90
10972,note_on,15,0,4,,,,,,,,,3,,,,55,90
10977,note_on,0,0,4,,,,,,,,,3,,,,55,0
10977,note_on,5,0,4,,,,,,,,,3,,,,59,0
10980,set_tempo,60,1,0,,,,,,1111111,,,,,,,,
10980,note_on,30,0,11,,,,,,,,,10,,,,64,112
10982,note_on,0,0,3,,,,,,,,,2,,,,72,91
10982,note_on,30,0,12,,,,,,,,,11,,,,60,112
10982,note_on,10,0,3,,,,,,,,,2,,,,69,91
10985,note_on,30,0,13,,,,,,,,,12,,,,57,112
10987,note_on,0,0,4,,,,,,,,,3,,,,57,90
10987,note_on,10,0,4,,,,,,,,,3,,,,60,90
11010,note_on,30,0,11,,,,,,,,,10,,,,64,0
11012,note_on,30,0,3,,,,,,,,,2,,,,72,0
11012,note_on,0,0,3,,,,,,,,,2,,,,69,0
11012,note_on,30,0,12,,,,,,,,,11,,,,60,0
11015,note_on,30,0,13,,,,,,,,,12,,,,57,0
11017,note_on,30,0,4,,,,,,,,,3,,,,57,0
11017,note_on,0,0,4,,,,,,,,,3,,,,60,0
11027,note_on,0,0,3,,,,,,,,,2,,,,74,91
11027,note_on,15,0,3,,,,,,,,,2,,,,71,91
11032,note_on,15,0,4,,,,,,,,,3,,,,59,90
11032,note_on,0,0,4,,,,,,,,,3,,,,62,90
11034,note_on,7,0,3,,,,,,,,,2,,,,74,0
11034,note_on,0,0,3,,,,,,,,,2,,,,71,0
11039,note_on,0,0,4,,,,,,,,,3,,,,59,0
11039,note_on,7,0,4,,,,,,,,,3,,,,62,0
11040,set_tempo,60,1,0,,,,,,1200000,,,,,,,,
11040,note_on,30,0,11,,,,,,,,,10,,,,64,112
11042,note_on,0,0,3,,,,,,,,,2,,,,76,91
11042,note_on,8,0,3,,,,,,,,,2,,,,72,91
11042,note_on,30,0,12,,,,,,,,,11,,,,60,112
11045,note_on,30,0,13,,,,,,,,,12,,,,57,112
11047,note_on,0,0,4,,,,,,,,,3,,,,60,90
11047,note_on,210,0,14,,,,,,,,,13,,,,45,112
11047,note_on,8,0,4,,,,,,,,,3,,,,64,90
11049,note_on,210,0,15,,,,,,,,,14,,,,33,112
11070,note_on,30,0,11,,,,,,,,,10,,,,64,0
11072,note_on,30,0,12,,,,,,,,,11,,,,60,0
11075,note_on,30,0,13,,,,,,,,,12,,,,57,0
11077,note_on,30,0,14,,,,,,,,,13,,,,45,0
11079,note_on,30,0,15,,,,,,,,,14,,,,33,0
11100,set_tempo,60,1,0,,,,,,1111111,,,,,,,,
11100,note_on,30,0,11,,,,,,,,,10,,,,64,112
11102,note_on,0,0,3,,,,,,,,,2,,,,81,91
11102,note_on,30,0,12,,,,,,,,,11,,,,60,112
11102,note_on,60,0,3,,,,,,,,,2,,,,76,0
11105,note_on,30,0,13,,,,,,,,,12,,,,57,112
11107,note_on,0,0,4,,,,,,,,,3,,,,69,90
11107,note_on,60,0,4,,,,,,,,,3,,,,64,0
11130,note_on,30,0,11,,,,,,,,,10,,,,64,0
11132,note_on,30,0,12,,,,,,,,,11,,,,60,0
11132,note_on,30,0,3,,,,,,,,,2,,,,81,0
11135,note_on,30,0,13,,,,,,,,,12,,,,57,0
11137,note_on,30,0,4,,,,,,,,,3,,,,69,0
11160,note_on,30,0,11,,,,,,,,,10,,,,64,112
11160,set_tempo,60,1,0,,,,,,1188119,,,,,,,,
11162,note_on,30,0,12,,,,,,,,,11,,,,60,112
11162,note_on,0,0,3,,,,,,,,,2,,,,72,91
11162,note_on,30,0,3,,,,,,,,,2,,,,72,0
11162,note_on,0,0,3,,,,,,,,,2,,,,69,91
11165,note_on,30,0,13,,,,,,,,,12,,,,52,112
11167,note_on,0,0,4,,,,,,,,,3,,,,60,90
11167,note_on,0,0,4,,,,,,,,,3,,,,57,90
11167,note_on,30,0,4,,,,,,,,,3,,,,60,0
11167,note_on,90,0,14,,,,,,,,,13,,,,45,112
11169,note_on,90,0,15,,,,,,,,,14,,,,33,112
11190,note_on,30,0,11,,,,,,,,,10,,,,64,0
11192,note_on,0,0,3,,,,,,,,,2,,,,69,0
11192,note_on,30,0,3,,,,,,,,,2,,,,72,0
11192,note_on,30,0,12,,,,,,,,,11,,,,60,0
11195,note_on,30,0,13,,,,,,,,,12,,,,52,0
11197,note_on,30,0,4,,,,,,,,,3,,,,60,0
11197,note_on,30,0,14,,,,,,,,,13,,,,45,0
11197,note_on,0,0,4,,,,,,,,,3,,,,57,0
11199,note_on,30,0,15,,,,,,,,,14,,,,33,0
11220,note_on,30,0,11,,,,,,,,,10,,,,65,112
11220,set_tempo,60,1,0,,,,,,1111111,,,,,,,,
11222,note_on,30,0,12,,,,,,,,,11,,,,59,112
11222,note_on,0,0,3,,,,,,,,,2,,,,74,91
11222,note_on,30,0,3,,,,,,,,,2,,,,71,91
11225,note_on,30,0,13,,,,,,,,,12,,,,55,112
11227,note_on,0,0,4,,,,,,,,,3,,,,59,90
11227,note_on,30,0,14,,,,,,,,,13,,,,43,112
11227,note_on,30,0,4,,,,,,,,,3,,,,62,90
11229,note_on,30,0,15,,,,,,,,,14,,,,31,112
11250,note_on,30,0,11,,,,,,,,,10,,,,65,0
11252,note_on,30,0,12,,,,,,,,,11,,,,59,0
11252,note_on,30,0,3,,,,,,,,,2,,,,74,0
11252,note_on,0,0,3,,,,,,,,,2,,,,71,0
11255,note_on,30,0,13,,,,,,,,,12,,,,55,0
11257,note_on,30,0,14,,,,,,,,,13,,,,43,0
11257,note_on,0,0,4,,,,,,,,,3,,,,62,0
11257,note_on,30,0,4,,,,,,,,,3,,,,59,0
11259,note_on,30,0,15,,,,,,,,,14,,,,31,0
11280,set_tempo,60,1,0,,,,,,1200000,,,,,,,,
11280,note_on,30,0,11,,,,,,,,,10,,,,64,112
11282,note_on,0,0,3,,,,,,,,,2,,,,76,100
11282,note_on,30,0,12,,,,,,,,,11,,,,60,112
11282,note_on,30,0,3,,,,,,,,,2,,,,72,100
11285,note_on,30,0,13,,,,,,,,,12,,,,55,112
11287,note_on,0,0,4,,,,,,,,,3,,,,64,99
11287,note_on,30,0,4,,,,,,,,,3,,,,60,99
11287,note_on,30,0,14,,,,,,,,,13,,,,48,112
11289,note_on,30,0,15,,,,,,,,,14,,,,36,112
11310,note_on,30,0,11,,,,,,,,,10,,,,64,0
11312,note_on,30,0,12,,,,,,,,,11,,,,60,0
11315,note_on,30,0,13,,,,,,,,,12,,,,55,0
11340,set_tempo,60,1,0,,,,,,1111111,,,,,,,,
11340,note_on,30,0,11,,,,,,,,,10,,,,64,112
11342,note_on,30,0,12,,,,,,,,,11,,,,60,112
11345,note_on,30,0,13,,,,,,,,,12,,,,55,112
11347,note_on,60,0,14,,,,,,,,,13,,,,48,0
11349,note_on,60,0,15,,,,,,,,,14,,,,36,0
11370,note_on,30,0,11,,,,,,,,,10,,,,64,0
11372,note_on,30,0,12,,,,,,,,,11,,,,60,0
11375,note_on,30,0,13,,,,,,,,,12,,,,55,0
11392,note_on,110,0,3,,,,,,,,,2,,,,76,0
11392,note_on,0,0,3,,,,,,,,,2,,,,72,0
11397,note_on,0,0,4,,,,,,,,,3,,,,60,0
11397,note_on,110,0,4,,,,,,,,,3,,,,64,0
11400,note_on,30,0,11,,,,,,,,,10,,,,64,112
11400,set_tempo,60,1,0,,,,,,1188119,,,,,,,,
11402,note_on,30,0,12,,,,,,,,,11,,,,60,112
11402,note_on,0,0,3,,,,,,,,,2,,,,76,100
11402,note_on,0,0,3,,,,,,,,,2,,,,72,100
11402,control_change,10,0,3,,,,,,,,,2,11,57,,,
11405,note_on,30,0,13,,,,,,,,,12,,,,55,112
11407,note_on,60,0,14,,,,,,,,,13,,,,48,112
11407,note_on,0,0,4,,,,,,,,,3,,,,64,99
11407,note_on,0,0,4,,,,,,,,,3,,,,60,99
11407,control_change,10,0,4,,,,,,,,,3,11,57,,,
11409,note_on,60,0,15,,,,,,,,,14,,,,36,112
11430,note_on,30,0,11,,,,,,,,,10,,,,64,0
11432,note_on,30,0,12,,,,,,,,,11,,,,60,0
11435,note_on,30,0,13,,,,,,,,,12,,,,55,0
11460,set_tempo,60,1,0,,,,,,1111111,,,,,,,,
11460,note_on,30,0,11,,,,,,,,,10,,,,64,112
11462,note_on,30,0,12,,,,,,,,,11,,,,60,112
11462,control_change,60,0,3,,,,,,,,,2,11,57,,,
11465,note_on,30,0,13,,,,,,,,,12,,,,55,112
11467,note_on,60,0,14,,,,,,,,,13,,,,48,0
11467,control_change,60,0,4,,,,,,,,,3,11,57,,,
11469,note_on,60,0,15,,,,,,,,,14,,,,36,0
11479,control_change,17,0,3,,,,,,,,,2,11,54,,,
11484,control_change,17,0,4,,,,,,,,,3,11,54,,,
11490,set_tempo,30,1,0,,,,,,1290323,,,,,,,,
11490,note_on,30,0,11,,,,,,,,,10,,,,64,0
11492,note_on,30,0,12,,,,,,,,,11,,,,60,0
11495,note_on,30,0,13,,,,,,,,,12,,,,55,0
11497,control_change,18,0,3,,,,,,,,,2,11,51,,,
11502,control_change,18,0,4,,,,,,,,,3,11,51,,,
11512,note_on,15,0,3,,,,,,,,,2,,,,76,0
11512,note_on,0,0,3,,,,,,,,,2,,,,72,0
11515,control_change,3,0,3,,,,,,,,,2,11,48,,,
11517,note_on,15,0,4,,,,,,,,,3,,,,64,0
11517,note_on,0,0,4,,,,,,,,,3,,,,60,0
11520,note_on,30,0,11,,,,,,,,,10,,,,65,112
11520,set_tempo,30,1,0,,,,,,1200000,,,,,,,,
11520,control_change,3,0,4,,,,,,,,,3,11,48,,,
11522,note_on,30,0,12,,,,,,,,,11,,,,59,112
11522,note_on,0,0,12,,,,,,,,,11,,,,62,112
11522,control_change,7,0,3,,,,,,,,,2,11,60,,,
11522,control_change,960,0,2,,,,,,,,,1,11,60,,,
11522,note_on,0,0,2,,,,,,,,,1,,,,77,100
11522,note_on,0,0,3,,,,,,,,,2,,,,71,101
11525,note_on,30,0,13,,,,,,,,,12,,,,55,112
11527,note_on,60,0,14,,,,,,,,,13,,,,43,112
11529,note_on,60,0,15,,,,,,,,,14,,,,31,122
11550,note_on,30,0,11,,,,,,,,,10,,,,65,0
11552,note_on,0,0,12,,,,,,,,,11,,,,59,0
11552,note_on,30,0,12,,,,,,,,,11,,,,62,0
11555,note_on,30,0,13,,,,,,,,,12,,,,55,0
11567,note_on,45,0,3,,,,,,,,,2,,,,71,0
11567,note_on,0,0,3,,,,,,,,,2,,,,72,101
11580,set_tempo,60,1,0,,,,,,1111111,,,,,,,,
11580,note_on,30,0,11,,,,,,,,,10,,,,65,112
11582,note_on,0,0,12,,,,,,,,,11,,,,62,112
11582,note_on,0,0,3,,,,,,,,,2,,,,74,101
11582,note_on,30,0,12,,,,,,,,,11,,,,59,112
11582,note_on,15,0,3,,,,,,,,,2,,,,72,0
11585,note_on,30,0,13,,,,,,,,,12,,,,55,112
11587,note_on,60,0,14,,,,,,,,,13,,,,43,0
11589,note_on,60,0,15,,,,,,,,,14,,,,31,0
11610,note_on,30,0,11,,,,,,,,,10,,,,65,0
11612,note_on,0,0,12,,,,,,,,,11,,,,59,0
11612,note_on,30,0,12,,,,,,,,,11,,,,62,0
11615,note_on,30,0,13,,,,,,,,,12,,,,55,0
11627,note_on,45,0,3,,,,,,,,,2,,,,74,0
11627,note_on,0,0,3,,,,,,,,,2,,,,72,101
11637,note_on,10,0,3,,,,,,,,,2,,,,72,0
11640,set_tempo,60,1,0,,,,,,1188119,,,,,,,,
11640,note_on,30,0,11,,,,,,,,,10,,,,65,112
11642,note_on,30,0,12,,,,,,,,,11,,,,59,112
11642,note_on,5,0,3,,,,,,,,,2,,,,71,101
11642,note_on,120,0,2,,,,,,,,,1,,,,77,0
11642,note_on,0,0,12,,,,,,,,,11,,,,62,112
11642,note_on,0,0,2,,,,,,,,,1,,,,81,100
11645,note_on,30,0,13,,,,,,,,,12,,,,55,112
11647,note_on,60,0,14,,,,,,,,,13,,,,43,112
11649,note_on,60,0,15,,,,,,,,,14,,,,31,112
11670,note_on,30,0,11,,,,,,,,,10,,,,65,0
11672,note_on,30,0,12,,,,,,,,,11,,,,62,0
11672,note_on,0,0,12,,,,,,,,,11,,,,59,0
11675,note_on,30,0,13,,,,,,,,,12,,,,55,0
11687,note_on,0,0,2,,,,,,,,,1,,,,80,100
11687,note_on,45,0,2,,,,,,,,,1,,,,81,0
11700,set_tempo,60,1,0,,,,,,1111111,,,,,,,,
11700,note_on,30,0,11,,,,,,,,,10,,,,65,112
11702,note_on,0,0,12,,,,,,,,,11,,,,62,112
11702,note_on,0,0,2,,,,,,,,,1,,,,81,100
11702,note_on,30,0,12,,,,,,,,,11,,,,59,112
11702,note_on,15,0,2,,,,,,,,,1,,,,80,0
11705,note_on,30,0,13,,,,,,,,,12,,,,55,112
11707,note_on,60,0,14,,,,,,,,,13,,,,43,0
11709,note_on,60,0,15,,,,,,,,,14,,,,31,0
11730,note_on,30,0,11,,,,,,,,,10,,,,65,0
11732,note_on,30,0,12,,,,,,,,,11,,,,62,0
11732,note_on,0,0,12,,,,,,,,,11,,,,59,0
11735,note_on,30,0,13,,,,,,,,,12,,,,55,0
11747,note_on,0,0,2,,,,,,,,,1,,,,77,100
11747,note_on,45,0,2,,,,,,,,,1,,,,81,0
11754,note_on,7,0,2,,,,,,,,,1,,,,77,0
11760,note_on,30,0,11,,,,,,,,,10,,,,64,112
11760,set_tempo,60,1,0,,,,,,1200000,,,,,,,,
11762,note_on,120,0,3,,,,,,,,,2,,,,71,0
11762,note_on,30,0,12,,,,,,,,,11,,,,60,112
11762,note_on,8,0,2,,,,,,,,,1,,,,76,100
11762,note_on,0,0,3,,,,,,,,,2,,,,72,111
11765,note_on,30,0,13,,,,,,,,,12,,,,55,112
11767,note_on,60,0,14,,,,,,,,,13,,,,48,112
11769,note_on,60,0,15,,,,,,,,,14,,,,36,122
11790,note_on,30,0,11,,,,,,,,,10,,,,64,0
11792,note_on,30,0,12,,,,,,,,,11,,,,60,0
11795,note_on,30,0,13,,,,,,,,,12,,,,55,0
11807,note_on,45,0,3,,,,,,,,,2,,,,72,0
11807,note_on,0,0,3,,,,,,,,,2,,,,71,101
11820,note_on,30,0,11,,,,,,,,,10,,,,64,112
11820,set_tempo,60,1,0,,,,,,1111111,,,,,,,,
11822,note_on,0,0,3,,,,,,,,,2,,,,72,101
11822,note_on,15,0,3,,,,,,,,,2,,,,71,0
11822,note_on,30,0,12,,,,,,,,,11,,,,60,112
11825,note_on,30,0,13,,,,,,,,,12,,,,55,112
11827,note_on,60,0,14,,,,,,,,,13,,,,48,0
11829,note_on,60,0,15,,,,,,,,,14,,,,36,0
11850,note_on,30,0,11,,,,,,,,,10,,,,64,0
11852,note_on,30,0,12,,,,,,,,,11,,,,60,0
11855,note_on,30,0,13,,,,,,,,,12,,,,55,0
11867,note_on,45,0,3,,,,,,,,,2,,,,72,0
11867,note_on,0,0,3,,,,,,,,,2,,,,74,101
11877,note_on,10,0,3,,,,,,,,,2,,,,74,0
11880,set_tempo,60,1,0,,,,,,1188119,,,,,,,,
11880,note_on,30,0,11,,,,,,,,,10,,,,64,112
11882,note_on,0,0,2,,,,,,,,,1,,,,79,100
11882,note_on,120,0,2,,,,,,,,,1,,,,76,0
11882,note_on,5,0,3,,,,,,,,,2,,,,76,101
11882,note_on,30,0,12,,,,,,,,,11,,,,60,112
11885,note_on,30,0,13,,,,,,,,,12,,,,55,112
11887,note_on,60,0,14,,,,,,,,,13,,,,48,112
11889,note_on,60,0,15,,,,,,,,,14,,,,36,112
11910,note_on,30,0,11,,,,,,,,,10,,,,64,0
11912,note_on,30,0,12,,,,,,,,,11,,,,60,0
11915,note_on,30,0,13,,,,,,,,,12,,,,55,0
11927,note_on,45,0,2,,,,,,,,,1,,,,79,0
11927,note_on,0,0,2,,,,,,,,,1,,,,78,100
11940,set_tempo,60,1,0,,,,,,1111111,,,,,,,,
11940,note_on,30,0,11,,,,,,,,,10,,,,64,112
11942,note_on,30,0,12,,,,,,,,,11,,,,60,112
11942,note_on,0,0,2,,,,,,,,,1,,,,79,100
11942,note_on,15,0,2,,,,,,,,,1,,,,78,0
11945,note_on,30,0,13,,,,,,,,,12,,,,55,112
11947,note_on,60,0,14,,,,,,,,,13,,,,48,0
11949,note_on,60,0,15,,,,,,,,,14,,,,36,0
11970,note_on,30,0,11,,,,,,,,,10,,,,64,0
11972,note_on,30,0,12,,,,,,,,,11,,,,60,0
11975,note_on,30,0,13,,,,,,,,,12,,,,55,0
11987,note_on,45,0,2,,,,,,,,,1,,,,79,0
11987,note_on,0,0,2,,,,,,,,,1,,,,76,100
11994,note_on,7,0,2,,,,,,,,,1,,,,76,0
12000,note_on,30,0,11,,,,,,,,,10,,,,64,112
12000,set_tempo,60,1,0,,,,,,1200000,,,,,,,,
12002,note_on,120,0,3,,,,,,,,,2,,,,76,0
12002,note_on,8,0,2,,,,,,,,,1,,,,72,100
12002,note_on,30,0,12,,,,,,,,,11,,,,60,112
12005,note_on,30,0,13,,,,,,,,,12,,,,57,112
12007,note_on,60,0,14,,,,,,,,,13,,,,45,112
12009,note_on,60,0,15,,,,,,,,,14,,,,33,112
12030,note_on,30,0,11,,,,,,,,,10,,,,64,0
12032,note_on,30,0,12,,,,,,,,,11,,,,60,0
12035,note_on,30,0,13,,,,,,,,,12,,,,57,0
12060,set_tempo,60,1,0,,,,,,1111111,,,,,,,,
12060,note_on,30,0,11,,,,,,,,,10,,,,64,112
12062,note_on,30,0,12,,,,,,,,,11,,,,60,112
12065,note_on,30,0,13,,,,,,,,,12,,,,57,112
12067,note_on,60,0,14,,,,,,,,,13,,,,45,0
12069,note_on,60,0,15,,,,,,,,,14,,,,33,0
12090,note_on,30,0,11,,,,,,,,,10,,,,64,0
12092,note_on,30,0,12,,,,,,,,,11,,,,60,0
12095,note_on,30,0,13,,,,,,,,,12,,,,57,0
12120,set_tempo,60,1,0,,,,,,1188119,,,,,,,,
12120,note_on,30,0,11,,,,,,,,,10,,,,65,112
12121,note_on,1560,0,1,,,,,,,,,0,,,,83,101
12122,note_on,0,0,2,,,,,,,,,1,,,,71,100
12122,note_on,30,0,12,,,,,,,,,11,,,,59,112
12122,note_on,120,0,2,,,,,,,,,1,,,,72,0
12125,note_on,30,0,13,,,,,,,,,12,,,,57,112
12127,note_on,60,0,14,,,,,,,,,13,,,,50,112
12129,note_on,60,0,15,,,,,,,,,14,,,,38,112
12142,note_on,15,0,14,,,,,,,,,13,,,,50,0
12144,note_on,15,0,15,,,,,,,,,14,,,,38,0
12144,note_on,23,0,1,,,,,,,,,0,,,,83,0
12145,note_on,23,0,2,,,,,,,,,1,,,,71,0
12150,note_on,30,0,11,,,,,,,,,10,,,,65,0
12151,note_on,7,0,1,,,,,,,,,0,,,,84,101
12152,note_on,30,0,12,,,,,,,,,11,,,,59,0
12152,note_on,7,0,2,,,,,,,,,1,,,,72,100
12155,note_on,30,0,13,,,,,,,,,12,,,,57,0
12157,note_on,15,0,14,,,,,,,,,13,,,,52,112
12159,note_on,15,0,15,,,,,,,,,14,,,,40,112
12172,note_on,15,0,14,,,,,,,,,13,,,,52,0
12174,note_on,23,0,1,,,,,,,,,0,,,,84,0
12174,note_on,15,0,15,,,,,,,,,14,,,,40,0
12175,note_on,23,0,2,,,,,,,,,1,,,,72,0
12180,set_tempo,60,1,0,,,,,,1111111,,,,,,,,
12180,note_on,30,0,11,,,,,,,,,10,,,,65,112
12181,note_on,7,0,1,,,,,,,,,0,,,,86,101
12182,note_on,30,0,12,,,,,,,,,11,,,,59,112
12182,note_on,7,0,2,,,,,,,,,1,,,,74,100
12185,note_on,30,0,13,,,,,,,,,12,,,,57,112
12187,note_on,15,0,14,,,,,,,,,13,,,,53,112
12189,note_on,15,0,15,,,,,,,,,14,,,,41,112
12202,note_on,15,0,14,,,,,,,,,13,,,,53,0
12204,note_on,23,0,1,,,,,,,,,0,,,,86,0
12204,note_on,15,0,15,,,,,,,,,14,,,,41,0
12205,note_on,23,0,2,,,,,,,,,1,,,,74,0
12210,note_on,30,0,11,,,,,,,,,10,,,,65,0
12211,note_on,7,0,1,,,,,,,,,0,,,,89,101
12212,note_on,7,0,2,,,,,,,,,1,,,,77,100
12212,note_on,30,0,12,,,,,,,,,11,,,,59,0
12215,note_on,30,0,13,,,,,,,,,12,,,,57,0
12217,note_on,15,0,14,,,,,,,,,13,,,,50,112
12219,note_on,15,0,15,,,,,,,,,14,,,,38,112
12232,note_on,15,0,14,,,,,,,,,13,,,,50,0
12234,note_on,23,0,1,,,,,,,,,0,,,,89,0
12234,note_on,15,0,15,,,,,,,,,14,,,,38,0
12235,note_on,23,0,2,,,,,,,,,1,,,,77,0
12240,control_change,30,0,11,,,,,,,,,10,11,36,,,
12240,note_on,0,0,11,,,,,,,,,10,,,,64,112
12240,set_tempo,60,1,0,,,,,,1224490,,,,,,,,
12241,note_on,7,0,1,,,,,,,,,0,,,,89,101
12241,control_change,1320,0,5,,,,,,,,,4,11,37,,,
12241,note_on,0,0,5,,,,,,,,,4,,,,64,100
12242,note_on,0,0,3,,,,,,,,,2,,,,64,116
12242,control_change,240,0,3,,,,,,,,,2,11,37,,,
12242,note_on,7,0,2,,,,,,,,,1,,,,77,100
12242,control_change,30,0,12,,,,,,,,,11,11,36,,,
12242,note_on,0,0,12,,,,,,,,,11,,,,60,112
12244,control_change,1680,0,8,,,,,,,,,7,11,37,,,
12244,note_on,0,0,8,,,,,,,,,7,,,,60,110
12244,note_on,0,0,8,,,,,,,,,7,,,,64,110
12245,note_on,0,0,13,,,,,,,,,12,,,,57,112
12245,control_change,30,0,13,,,,,,,,,12,11,36,,,
12246,note_on,0,0,9,,,,,,,,,8,,,,52,110
12246,control_change,1680,0,9,,,,,,,,,8,11,37,,,
12247,control_change,15,0,14,,,,,,,,,13,11,36,,,
12247,note_on,0,0,14,,,,,,,,,13,,,,52,112
12247,control_change,727,0,4,,,,,,,,,3,11,37,,,
12247,note_on,0,0,4,,,,,,,,,3,,,,52,115
12249,note_on,0,0,15,,,,,,,,,14,,,,40,112
12249,control_change,15,0,15,,,,,,,,,14,11,36,,,
12251,note_on,0,0,1,,,,,,,,,0,,,,88,111
12251,note_on,10,0,1,,,,,,,,,0,,,,89,0
12252,note_on,0,0,2,,,,,,,,,1,,,,76,110
12252,note_on,10,0,2,,,,,,,,,1,,,,77,0
12257,control_change,16,0,5,,,,,,,,,4,11,39,,,
12258,control_change,16,0,3,,,,,,,,,2,11,39,,,
12258,control_change,18,0,11,,,,,,,,,10,11,39,,,
12260,control_change,16,0,8,,,,,,,,,7,11,39,,,
12260,control_change,18,0,12,,,,,,,,,11,11,39,,,
12262,control_change,16,0,9,,,,,,,,,8,11,39,,,
12263,control_change,16,0,4,,,,,,,,,3,11,39,,,
12263,control_change,18,0,13,,,,,,,,,12,11,39,,,
12265,control_change,18,0,14,,,,,,,,,13,11,39,,,
12267,control_change,18,0,15,,,,,,,,,14,11,39,,,
12270,note_on,12,0,11,,,,,,,,,10,,,,64,0
12272,note_on,14,0,3,,,,,,,,,2,,,,64,0
12272,note_on,12,0,12,,,,,,,,,11,,,,60,0
12272,note_on,0,0,3,,,,,,,,,2,,,,69,116
12273,control_change,16,0,5,,,,,,,,,4,11,41,,,
12274,control_change,2,0,3,,,,,,,,,2,11,41,,,
12275,note_on,12,0,13,,,,,,,,,12,,,,57,0
12276,control_change,6,0,11,,,,,,,,,10,11,42,,,
12276,control_change,16,0,8,,,,,,,,,7,11,41,,,
12277,note_on,12,0,14,,,,,,,,,13,,,,52,0
12277,note_on,14,0,4,,,,,,,,,3,,,,52,0
12277,note_on,0,0,4,,,,,,,,,3,,,,57,115
12278,control_change,16,0,9,,,,,,,,,8,11,41,,,
12278,control_change,6,0,12,,,,,,,,,11,11,42,,,
12279,control_change,2,0,4,,,,,,,,,3,11,41,,,
12279,note_on,12,0,15,,,,,,,,,14,,,,40,0
12281,control_change,6,0,13,,,,,,,,,12,11,42,,,
12283,control_change,6,0,14,,,,,,,,,13,11,42,,,
12285,control_change,6,0,15,,,,,,,,,14,11,42,,,
12288,note_on,37,0,1,,,,,,,,,0,,,,88,0
12289,control_change,16,0,5,,,,,,,,,4,11,43,,,
12289,note_on,37,0,2,,,,,,,,,1,,,,76,0
12290,control_change,16,0,3,,,,,,,,,2,11,43,,,
12292,control_change,16,0,8,,,,,,,,,7,11,43,,,
12293,note_on,4,0,5,,,,,,,,,4,,,,64,0
12294,control_change,18,0,11,,,,,,,,,10,11,44,,,
12294,control_change,16,0,9,,,,,,,,,8,11,43,,,
12295,control_change,16,0,4,,,,,,,,,3,11,43,,,
12296,control_change,18,0,12,,,,,,,,,11,11,44,,,
12296,note_on,0,0,8,,,,,,,,,7,,,,60,0
12296,note_on,4,0,8,,,,,,,,,7,,,,64,0
12298,note_on,4,0,9,,,,,,,,,8,,,,52,0
12299,control_change,18,0,13,,,,,,,,,12,11,44,,,
12300,note_on,6,0,11,,,,,,,,,10,,,,71,112
12300,set_tempo,60,1,0,,,,,,1132075,,,,,,,,
12301,note_on,8,0,5,,,,,,,,,4,,,,65,100
12301,control_change,18,0,14,,,,,,,,,13,11,44,,,
12301,note_on,13,0,1,,,,,,,,,0,,,,88,101
12302,note_on,6,0,12,,,,,,,,,11,,,,65,112
12302,note_on,0,0,3,,,,,,,,,2,,,,71,116
12302,note_on,12,0,3,,,,,,,,,2,,,,69,0
12302,note_on,13,0,2,,,,,,,,,1,,,,76,100
12303,control_change,18,0,15,,,,,,,,,14,11,44,,,
12304,note_on,8,0,8,,,,,,,,,7,,,,59,110
12304,note_on,0,0,8,,,,,,,,,7,,,,62,110
12305,control_change,4,0,5,,,,,,,,,4,11,45,,,
12305,note_on,6,0,13,,,,,,,,,12,,,,62,112
12306,control_change,4,0,3,,,,,,,,,2,11,45,,,
12306,note_on,8,0,9,,,,,,,,,8,,,,52,110
12307,note_on,6,0,14,,,,,,,,,13,,,,52,112
12307,note_on,0,0,4,,,,,,,,,3,,,,59,115
12307,note_on,12,0,4,,,,,,,,,3,,,,57,0
12308,control_change,4,0,8,,,,,,,,,7,11,45,,,
12309,note_on,6,0,15,,,,,,,,,14,,,,40,112
12310,control_change,4,0,9,,,,,,,,,8,11,45,,,
12311,control_change,4,0,4,,,,,,,,,3,11,45,,,
12312,control_change,12,0,11,,,,,,,,,10,11,47,,,
12314,control_change,12,0,12,,,,,,,,,11,11,47,,,
12317,control_change,12,0,13,,,,,,,,,12,11,47,,,
12319,control_change,12,0,14,,,,,,,,,13,11,47,,,
12321,control_change,12,0,15,,,,,,,,,14,11,47,,,
12321,control_change,16,0,5,,,,,,,,,4,11,47,,,
12322,control_change,16,0,3,,,,,,,,,2,11,47,,,
12324,control_change,16,0,8,,,,,,,,,7,11,47,,,
12326,control_change,16,0,9,,,,,,,,,8,11,47,,,
12327,control_change,16,0,4,,,,,,,,,3,11,47,,,
12330,control_change,0,0,11,,,,,,,,,10,11,50,,,
12330,note_on,18,0,11,,,,,,,,,10,,,,71,0
12332,note_on,0,0,3,,,,,,,,,2,,,,74,116
12332,note_on,18,0,12,,,,,,,,,11,,,,65,0
12332,note_on,10,0,3,,,,,,,,,2,,,,71,0
12332,control_change,0,0,12,,,,,,,,,11,11,50,,,
12335,note_on,18,0,13,,,,,,,,,12,,,,62,0
12335,control_change,0,0,13,,,,,,,,,12,11,50,,,
12337,control_change,0,0,14,,,,,,,,,13,11,50,,,
12337,note_on,18,0,14,,,,,,,,,13,,,,52,0
12337,note_on,10,0,4,,,,,,,,,3,,,,59,0
12337,control_change,16,0,5,,,,,,,,,4,11,49,,,
12337,note_on,0,0,4,,,,,,,,,3,,,,62,115
12338,control_change,6,0,3,,,,,,,,,2,11,49,,,
12339,control_change,0,0,15,,,,,,,,,14,11,50,,,
12339,note_on,18,0,15,,,,,,,,,14,,,,40,0
12340,control_change,16,0,8,,,,,,,,,7,11,49,,,
12342,control_change,16,0,9,,,,,,,,,8,11,49,,,
12343,control_change,6,0,4,,,,,,,,,3,11,49,,,
12348,control_change,18,0,11,,,,,,,,,10,11,53,,,
12348,note_on,47,0,1,,,,,,,,,0,,,,88,0
12349,note_on,47,0,2,,,,,,,,,1,,,,76,0
12350,control_change,18,0,12,,,,,,,,,11,11,53,,,
12353,control_change,0,0,5,,,,,,,,,4,11,51,,,
12353,control_change,18,0,13,,,,,,,,,12,11,53,,,
12353,note_on,16,0,5,,,,,,,,,4,,,,65,0
12354,control_change,16,0,3,,,,,,,,,2,11,51,,,
12355,control_change,18,0,14,,,,,,,,,13,11,53,,,
12356,control_change,0,0,8,,,,,,,,,7,11,51,,,
12356,note_on,16,0,8,,,,,,,,,7,,,,62,0
12356,note_on,0,0,8,,,,,,,,,7,,,,59,0
12357,control_change,18,0,15,,,,,,,,,14,11,53,,,
12358,note_on,16,0,9,,,,,,,,,8,,,,52,0
12358,control_change,0,0,9,,,,,,,,,8,11,51,,,
12359,control_change,16,0,4,,,,,,,,,3,11,51,,,
12360,set_tempo,60,1,0,,,,,,1237113,,,,,,,,
12360,note_on,12,0,11,,,,,,,,,10,,,,72,112
12361,note_on,13,0,1,,,,,,,,,0,,,,89,101
12361,note_on,8,0,5,,,,,,,,,4,,,,64,100
12362,note_on,0,0,3,,,,,,,,,2,,,,72,116
12362,note_on,12,0,12,,,,,,,,,11,,,,64,112
12362,note_on,13,0,2,,,,,,,,,1,,,,77,100
12362,note_on,8,0,3,,,,,,,,,2,,,,74,0
12364,note_on,0,0,8,,,,,,,,,7,,,,64,110
12364,note_on,8,0,8,,,,,,,,,7,,,,60,110
12365,note_on,12,0,13,,,,,,,,,12,,,,60,112
12366,note_on,8,0,9,,,,,,,,,8,,,,52,110
12366,note_on,5,0,1,,,,,,,,,0,,,,89,0
12367,control_change,7,0,11,,,,,,,,,10,11,54,,,
12367,note_on,5,0,2,,,,,,,,,1,,,,77,0
12367,note_on,0,0,4,,,,,,,,,3,,,,60,115
12367,note_on,8,0,4,,,,,,,,,3,,,,62,0
12367,note_on,12,0,14,,,,,,,,,13,,,,52,112
12368,control_change,7,0,5,,,,,,,,,4,11,51,,,
12369,control_change,7,0,3,,,,,,,,,2,11,51,,,
12369,note_on,12,0,15,,,,,,,,,14,,,,40,112
12369,control_change,7,0,12,,,,,,,,,11,11,54,,,
12371,note_on,5,0,1,,,,,,,,,0,,,,88,111
12371,control_change,7,0,8,,,,,,,,,7,11,51,,,
12372,control_change,7,0,13,,,,,,,,,12,11,54,,,
12372,note_on,5,0,2,,,,,,,,,1,,,,76,110
12373,control_change,7,0,9,,,,,,,,,8,11,51,,,
12374,control_change,7,0,14,,,,,,,,,13,11,54,,,
12374,control_change,7,0,4,,,,,,,,,3,11,51,,,
12376,control_change,7,0,15,,,,,,,,,14,11,54,,,
12383,control_change,16,0,11,,,,,,,,,10,11,52,,,
12384,control_change,16,0,5,,,,,,,,,4,11,49,,,
12385,control_change,16,0,12,,,,,,,,,11,11,52,,,
12385,control_change,16,0,3,,,,,,,,,2,11,49,,,
12387,control_change,16,0,8,,,,,,,,,7,11,49,,,
12388,control_change,16,0,13,,,,,,,,,12,11,52,,,
12389,control_change,16,0,9,,,,,,,,,8,11,49,,,
12390,control_change,16,0,14,,,,,,,,,13,11,52,,,
12390,control_change,16,0,4,,,,,,,,,3,11,49,,,
12390,note_on,7,0,11,,,,,,,,,10,,,,72,0
12392,control_change,16,0,15,,,,,,,,,14,11,52,,,
12392,note_on,7,0,12,,,,,,,,,11,,,,64,0
12395,note_on,7,0,13,,,,,,,,,12,,,,60,0
12397,note_on,7,0,14,,,,,,,,,13,,,,52,0
12397,note_on,12,0,3,,,,,,,,,2,,,,72,0
12399,control_change,9,0,11,,,,,,,,,10,11,50,,,
12399,note_on,7,0,15,,,,,,,,,14,,,,40,0
12400,control_change,16,0,5,,,,,,,,,4,11,47,,,
12401,control_change,9,0,12,,,,,,,,,11,11,50,,,
12401,control_change,4,0,3,,,,,,,,,2,11,47,,,
12402,note_on,12,0,4,,,,,,,,,3,,,,60,0
12403,control_change,16,0,8,,,,,,,,,7,11,47,,,
12404,control_change,9,0,13,,,,,,,,,12,11,50,,,
12405,control_change,16,0,9,,,,,,,,,8,11,47,,,
12406,control_change,9,0,14,,,,,,,,,13,11,50,,,
12406,control_change,4,0,4,,,,,,,,,3,11,47,,,
12408,note_on,37,0,1,,,,,,,,,0,,,,88,0
12408,control_change,9,0,15,,,,,,,,,14,11,50,,,
12409,note_on,37,0,2,,,,,,,,,1,,,,76,0
12413,note_on,13,0,5,,,,,,,,,4,,,,64,0
12415,control_change,16,0,11,,,,,,,,,10,11,48,,,
12416,control_change,3,0,5,,,,,,,,,4,11,45,,,
12416,note_on,0,0,8,,,,,,,,,7,,,,60,0
12416,note_on,13,0,8,,,,,,,,,7,,,,64,0
12417,control_change,16,0,12,,,,,,,,,11,11,48,,,
12417,control_change,16,0,3,,,,,,,,,2,11,45,,,
12418,note_on,13,0,9,,,,,,,,,8,,,,52,0
12419,control_change,3,0,8,,,,,,,,,7,11,45,,,
12420,note_on,5,0,11,,,,,,,,,10,,,,68,112
12420,set_tempo,60,1,0,,,,,,1188119,,,,,,,,
12420,control_change,16,0,13,,,,,,,,,12,11,48,,,
12421,note_on,5,0,5,,,,,,,,,4,,,,64,100
12421,note_on,13,0,1,,,,,,,,,0,,,,88,101
12421,control_change,3,0,9,,,,,,,,,8,11,45,,,
12422,note_on,5,0,12,,,,,,,,,11,,,,62,112
12422,control_change,16,0,14,,,,,,,,,13,11,48,,,
12422,note_on,5,0,3,,,,,,,,,2,,,,71,116
12422,control_change,16,0,4,,,,,,,,,3,11,45,,,
12422,note_on,13,0,2,,,,,,,,,1,,,,76,100
12424,note_on,5,0,8,,,,,,,,,7,,,,59,110
12424,control_change,16,0,15,,,,,,,,,14,11,48,,,
12424,note_on,0,0,8,,,,,,,,,7,,,,62,110
12425,note_on,5,0,13,,,,,,,,,12,,,,64,112
12426,note_on,5,0,9,,,,,,,,,8,,,,52,110
12427,note_on,5,0,14,,,,,,,,,13,,,,52,112
12427,note_on,5,0,4,,,,,,,,,3,,,,59,115
12429,note_on,5,0,15,,,,,,,,,14,,,,40,112
12431,control_change,11,0,11,,,,,,,,,10,11,46,,,
12432,control_change,11,0,5,,,,,,,,,4,11,43,,,
12433,control_change,11,0,12,,,,,,,,,11,11,46,,,
12433,control_change,11,0,3,,,,,,,,,2,11,43,,,
12435,control_change,11,0,8,,,,,,,,,7,11,43,,,
12436,control_change,11,0,13,,,,,,,,,12,11,46,,,
12437,control_change,11,0,9,,,,,,,,,8,11,43,,,
12438,control_change,11,0,4,,,,,,,,,3,11,43,,,
12438,control_change,11,0,14,,,,,,,,,13,11,46,,,
12440,control_change,11,0,15,,,,,,,,,14,11,46,,,
12447,control_change,16,0,11,,,,,,,,,10,11,44,,,
12448,control_change,16,0,5,,,,,,,,,4,11,41,,,
12449,control_change,16,0,12,,,,,,,,,11,11,44,,,
12449,control_change,16,0,3,,,,,,,,,2,11,41,,,
12450,set_tempo,30,1,0,,,,,,1500000,,,,,,,,
12450,note_on,3,0,11,,,,,,,,,10,,,,68,0
12451,control_change,16,0,8,,,,,,,,,7,11,41,,,
12452,control_change,16,0,13,,,,,,,,,12,11,44,,,
12452,note_on,3,0,12,,,,,,,,,11,,,,62,0
12453,control_change,16,0,9,,,,,,,,,8,11,41,,,
12454,control_change,16,0,14,,,,,,,,,13,11,44,,,
12454,control_change,16,0,4,,,,,,,,,3,11,41,,,
12455,note_on,3,0,13,,,,,,,,,12,,,,64,0
12456,control_change,16,0,15,,,,,,,,,14,11,44,,,
12457,note_on,8,0,3,,,,,,,,,2,,,,71,0
12457,note_on,3,0,14,,,,,,,,,13,,,,52,0
12459,note_on,3,0,15,,,,,,,,,14,,,,40,0
12462,note_on,8,0,4,,,,,,,,,3,,,,59,0
12463,control_change,13,0,11,,,,,,,,,10,11,42,,,
12464,control_change,16,0,5,,,,,,,,,4,11,39,,,
12465,control_change,8,0,3,,,,,,,,,2,11,39,,,
12465,control_change,13,0,12,,,,,,,,,11,11,42,,,
12467,control_change,16,0,8,,,,,,,,,7,11,39,,,
12468,control_change,13,0,13,,,,,,,,,12,11,42,,,
12468,note_on,47,0,1,,,,,,,,,0,,,,88,0
12469,note_on,47,0,2,,,,,,,,,1,,,,76,0
12469,control_change,16,0,9,,,,,,,,,8,11,39,,,
12470,control_change,13,0,14,,,,,,,,,13,11,42,,,
12470,control_change,8,0,4,,,,,,,,,3,11,39,,,
12472,control_change,13,0,15,,,,,,,,,14,11,42,,,
12473,note_on,9,0,5,,,,,,,,,4,,,,64,0
12476,note_on,0,0,8,,,,,,,,,7,,,,59,0
12476,note_on,9,0,8,,,,,,,,,7,,,,62,0
12478,note_on,9,0,9,,,,,,,,,8,,,,52,0
12479,control_change,16,0,11,,,,,,,,,10,11,41,,,
12480,set_tempo,30,1,0,,,,,,1200000,,,,,,,,
12480,control_change,7,0,5,,,,,,,,,4,11,37,,,
12480,note_on,1,0,11,,,,,,,,,10,,,,69,80
12481,control_change,16,0,3,,,,,,,,,2,11,37,,,
12481,note_on,1,0,5,,,,,,,,,4,,,,64,100
12481,note_on,13,0,1,,,,,,,,,0,,,,81,101
12481,control_change,16,0,12,,,,,,,,,11,11,41,,,
12482,note_on,13,0,2,,,,,,,,,1,,,,69,100
12482,note_on,1,0,12,,,,,,,,,11,,,,61,80
12482,note_on,0,0,3,,,,,,,,,2,,,,69,101
12482,control_change,1,0,3,,,,,,,,,2,11,42,,,
12483,control_change,7,0,8,,,,,,,,,7,11,37,,,
12484,note_on,1,0,8,,,,,,,,,7,,,,61,110
12484,note_on,0,0,8,,,,,,,,,7,,,,57,110
12484,control_change,16,0,13,,,,,,,,,12,11,41,,,
12485,control_change,7,0,9,,,,,,,,,8,11,37,,,
12485,note_on,1,0,13,,,,,,,,,12,,,,57,97
12486,note_on,1,0,9,,,,,,,,,8,,,,45,110
12486,control_change,16,0,14,,,,,,,,,13,11,41,,,
12486,control_change,16,0,4,,,,,,,,,3,11,37,,,
12487,note_on,1,0,14,,,,,,,,,13,,,,45,112
12487,note_on,1,0,4,,,,,,,,,3,,,,57,100
12488,control_change,16,0,15,,,,,,,,,14,11,41,,,
12489,note_on,1,0,15,,,,,,,,,14,,,,33,112
12496,control_change,14,0,3,,,,,,,,,2,11,45,,,
12510,control_change,14,0,3,,,,,,,,,2,11,48,,,
12524,control_change,14,0,3,,,,,,,,,2,11,51,,,
12539,control_change,15,0,3,,,,,,,,,2,11,54,,,
12540,set_tempo,60,1,0,,,,,,1111111,,,,,,,,
12540,note_on,60,0,11,,,,,,,,,10,,,,69,0
12541,note_on,60,0,5,,,,,,,,,4,,,,64,0
12541,note_on,60,0,1,,,,,,,,,0,,,,81,0
12542,note_on,60,0,2,,,,,,,,,1,,,,69,0
12542,note_on,0,0,12,,,,,,,,,11,,,,64,112
12542,note_on,60,0,12,,,,,,,,,11,,,,61,0
12544,note_on,0,0,8,,,,,,,,,7,,,,61,0
12544,note_on,60,0,8,,,,,,,,,7,,,,57,0
12545,note_on,0,0,13,,,,,,,,,12,,,,52,112
12545,note_on,60,0,13,,,,,,,,,12,,,,57,0
12546,note_on,60,0,9,,,,,,,,,8,,,,45,0
12547,note_on,60,0,4,,,,,,,,,3,,,,57,0
12553,control_change,14,0,3,,,,,,,,,2,11,57,,,
12581,control_change,28,0,3,,,,,,,,,2,11,61,,,
12596,control_change,15,0,3,,,,,,,,,2,11,63,,,
12600,set_tempo,60,1,0,,,,,,1188119,,,,,,,,
12602,note_on,0,0,12,,,,,,,,,11,,,,62,112
12602,note_on,0,0,3,,,,,,,,,2,,,,71,101
12602,note_on,60,0,12,,,,,,,,,11,,,,64,0
12602,note_on,6,0,3,,,,,,,,,2,,,,69,0
12605,note_on,0,0,13,,,,,,,,,12,,,,56,112
12605,note_on,60,0,13,,,,,,,,,12,,,,52,0
12630,note_on,90,0,11,,,,,,,,,10,,,,64,112
12660,note_on,0,0,11,,,,,,,,,10,,,,76,92
12660,note_on,30,0,11,,,,,,,,,10,,,,64,0
12660,set_tempo,60,1,0,,,,,,1111111,,,,,,,,
12662,note_on,60,0,12,,,,,,,,,11,,,,62,0
12662,note_on,0,0,12,,,,,,,,,11,,,,64,112
12665,note_on,60,0,13,,,,,,,,,12,,,,56,0
12665,note_on,0,0,13,,,,,,,,,12,,,,52,112
12690,note_on,30,0,11,,,,,,,,,10,,,,76,0
12690,note_on,0,0,11,,,,,,,,,10,,,,64,112
12717,note_on,115,0,3,,,,,,,,,2,,,,71,0
12717,note_on,55,0,12,,,,,,,,,11,,,,64,0
12720,set_tempo,60,1,0,,,,,,1200000,,,,,,,,
12720,note_on,55,0,13,,,,,,,,,12,,,,52,0
12720,note_on,0,0,11,,,,,,,,,10,,,,76,92
12720,note_on,30,0,11,,,,,,,,,10,,,,64,0
12722,note_on,5,0,12,,,,,,,,,11,,,,61,112
12722,note_on,5,0,3,,,,,,,,,2,,,,73,101
12725,note_on,5,0,13,,,,,,,,,12,,,,57,112
12780,note_on,0,0,11,,,,,,,,,10,,,,64,112
12780,note_on,60,0,11,,,,,,,,,10,,,,76,0
12780,set_tempo,60,1,0,,,,,,1111111,,,,,,,,
12782,note_on,0,0,3,,,,,,,,,2,,,,74,101
12782,note_on,0,0,12,,,,,,,,,11,,,,62,112
12782,note_on,60,0,12,,,,,,,,,11,,,,61,0
12782,note_on,60,0,3,,,,,,,,,2,,,,73,0
12785,note_on,60,0,13,,,,,,,,,12,,,,57,0
12785,note_on,0,0,13,,,,,,,,,12,,,,59,112
12810,note_on,30,0,11,,,,,,,,,10,,,,64,0
12812,note_on,0,0,3,,,,,,,,,2,,,,76,101
12812,note_on,30,0,3,,,,,,,,,2,,,,74,0
12812,note_on,30,0,12,,,,,,,,,11,,,,62,0
12812,note_on,0,0,12,,,,,,,,,11,,,,64,112
12815,note_on,30,0,13,,,,,,,,,12,,,,59,0
12815,note_on,0,0,13,,,,,,,,,12,,,,61,112
12837,note_on,25,0,3,,,,,,,,,2,,,,76,0
12840,set_tempo,60,1,0,,,,,,1188119,,,,,,,,
12842,note_on,0,0,12,,,,,,,,,11,,,,64,112
12842,note_on,5,0,3,,,,,,,,,2,,,,76,101
12842,note_on,30,0,12,,,,,,,,,11,,,,64,0
12845,note_on,30,0,13,,,,,,,,,12,,,,61,0
12845,note_on,0,0,13,,,,,,,,,12,,,,61,112
12870,note_on,60,0,11,,,,,,,,,10,,,,64,112
12900,note_on,0,0,11,,,,,,,,,10,,,,76,92
12900,note_on,30,0,11,,,,,,,,,10,,,,64,0
12900,set_tempo,60,1,0,,,,,,1111111,,,,,,,,
12902,note_on,0,0,12,,,,,,,,,11,,,,62,112
12902,note_on,0,0,3,,,,,,,,,2,,,,68,101
12902,note_on,60,0,3,,,,,,,,,2,,,,76,0
12902,note_on,60,0,12,,,,,,,,,11,,,,64,0
12905,note_on,60,0,13,,,,,,,,,12,,,,61,0
12905,note_on,0,0,13,,,,,,,,,12,,,,59,112
12907,note_on,420,0,14,,,,,,,,,13,,,,45,0
12907,control_change,0,0,14,,,,,,,,,13,11,55,,,
12907,note_on,0,0,14,,,,,,,,,13,,,,45,112
12909,note_on,420,0,15,,,,,,,,,14,,,,33,0
12909,control_change,0,0,15,,,,,,,,,14,11,55,,,
12909,note_on,0,0,15,,,,,,,,,14,,,,33,112
12917,note_on,10,0,14,,,,,,,,,13,,,,45,0
12919,note_on,10,0,15,,,,,,,,,14,,,,33,0
12922,note_on,5,0,14,,,,,,,,,13,,,,45,112
12924,note_on,5,0,15,,,,,,,,,14,,,,33,112
12930,note_on,30,0,11,,,,,,,,,10,,,,76,0
12930,note_on,0,0,11,,,,,,,,,10,,,,64,112
12932,note_on,10,0,14,,,,,,,,,13,,,,45,0
12934,note_on,10,0,15,,,,,,,,,14,,,,33,0
12937,note_on,5,0,14,,,,,,,,,13,,,,45,112
12939,note_on,5,0,15,,,,,,,,,14,,,,33,112
12947,note_on,10,0,14,,,,,,,,,13,,,,45,0
12949,note_on,10,0,15,,,,,,,,,14,,,,33,0
12952,note_on,5,0,14,,,,,,,,,13,,,,45,112
12954,note_on,5,0,15,,,,,,,,,14,,,,33,112
12957,note_on,55,0,12,,,,,,,,,11,,,,62,0
12957,note_on,55,0,3,,,,,,,,,2,,,,68,0
12960,note_on,0,0,11,,,,,,,,,10,,,,73,92
12960,note_on,30,0,11,,,,,,,,,10,,,,64,0
12960,set_tempo,60,1,0,,,,,,1200000,,,,,,,,
12960,note_on,55,0,13,,,,,,,,,12,,,,59,0
12962,control_change,420,0,2,,,,,,,,,1,11,64,,,
12962,note_on,0,0,2,,,,,,,,,1,,,,69,100
12962,note_on,10,0,14,,,,,,,,,13,,,,45,0
12962,note_on,5,0,3,,,,,,,,,2,,,,69,101
12962,note_on,5,0,12,,,,,,,,,11,,,,61,112
12964,note_on,10,0,15,,,,,,,,,14,,,,33,0
12965,note_on,5,0,13,,,,,,,,,12,,,,57,112
12967,control_change,5,0,14,,,,,,,,,13,11,41,,,
12967,note_on,0,0,14,,,,,,,,,13,,,,45,112
12969,note_on,0,0,15,,,,,,,,,14,,,,33,112
12969,control_change,5,0,15,,,,,,,,,14,11,41,,,
13020,note_on,60,0,11,,,,,,,,,10,,,,73,0
13020,note_on,0,0,11,,,,,,,,,10,,,,64,112
13020,set_tempo,60,1,0,,,,,,1111111,,,,,,,,
13022,note_on,0,0,12,,,,,,,,,11,,,,64,112
13022,note_on,60,0,12,,,,,,,,,11,,,,61,0
13025,note_on,0,0,13,,,,,,,,,12,,,,52,112
13025,note_on,60,0,13,,,,,,,,,12,,,,57,0
13050,note_on,30,0,11,,,,,,,,,10,,,,64,0
13080,set_tempo,60,1,0,,,,,,1188119,,,,,,,,
13082,note_on,60,0,12,,,,,,,,,11,,,,64,0
13082,note_on,120,0,3,,,,,,,,,2,,,,69,0
13082,note_on,0,0,12,,,,,,,,,11,,,,62,112
13082,note_on,0,0,2,,,,,,,,,1,,,,71,100
13082,note_on,120,0,2,,,,,,,,,1,,,,69,0
13085,note_on,60,0,13,,,,,,,,,12,,,,52,0
13085,note_on,0,0,13,,,,,,,,,12,,,,56,112
13110,note_on,60,0,11,,,,,,,,,10,,,,64,112
13140,note_on,30,0,11,,,,,,,,,10,,,,64,0
13140,set_tempo,60,1,0,,,,,,1111111,,,,,,,,
13140,note_on,0,0,11,,,,,,,,,10,,,,76,92
13142,note_on,0,0,12,,,,,,,,,11,,,,64,112
13142,note_on,60,0,12,,,,,,,,,11,,,,62,0
13145,note_on,60,0,13,,,,,,,,,12,,,,56,0
13145,note_on,0,0,13,,,,,,,,,12,,,,52,112
13170,note_on,0,0,11,,,,,,,,,10,,,,64,112
13170,note_on,30,0,11,,,,,,,,,10,,,,76,0
13197,note_on,115,0,2,,,,,,,,,1,,,,71,0
13200,note_on,30,0,11,,,,,,,,,10,,,,64,0
13200,note_on,0,0,11,,,,,,,,,10,,,,76,92
13200,set_tempo,60,1,0,,,,,,1200000,,,,,,,,
13202,note_on,5,0,2,,,,,,,,,1,,,,73,100
13202,note_on,0,0,12,,,,,,,,,11,,,,61,112
13202,note_on,60,0,12,,,,,,,,,11,,,,64,0
13202,note_on,120,0,3,,,,,,,,,2,,,,69,101
13205,note_on,0,0,13,,,,,,,,,12,,,,57,112
13205,note_on,60,0,13,,,,,,,,,12,,,,52,0
13207,control_change,660,0,4,,,,,,,,,3,11,62,,,
13207,note_on,0,0,4,,,,,,,,,3,,,,61,100
13260,set_tempo,60,1,0,,,,,,1111111,,,,,,,,
13260,note_on,60,0,11,,,,,,,,,10,,,,76,0
13260,note_on,0,0,11,,,,,,,,,10,,,,64,112
13262,note_on,0,0,12,,,,,,,,,11,,,,64,112
13262,note_on,60,0,12,,,,,,,,,11,,,,61,0
13265,note_on,60,0,13,,,,,,,,,12,,,,57,0
13265,note_on,0,0,13,,,,,,,,,12,,,,52,112
13267,note_on,60,0,4,,,,,,,,,3,,,,61,0
13267,note_on,0,0,4,,,,,,,,,3,,,,69,100
13290,note_on,30,0,11,,,,,,,,,10,,,,64,0
13320,set_tempo,60,1,0,,,,,,1188119,,,,,,,,
13322,note_on,120,0,3,,,,,,,,,2,,,,69,0
13322,note_on,0,0,12,,,,,,,,,11,,,,62,112
13322,note_on,60,0,12,,,,,,,,,11,,,,64,0
13322,note_on,0,0,3,,,,,,,,,2,,,,71,101
13322,note_on,120,0,2,,,,,,,,,1,,,,73,0
13322,note_on,0,0,2,,,,,,,,,1,,,,76,100
13325,note_on,60,0,13,,,,,,,,,12,,,,52,0
13325,note_on,0,0,13,,,,,,,,,12,,,,56,112
13327,note_on,60,0,4,,,,,,,,,3,,,,69,0
13327,note_on,0,0,4,,,,,,,,,3,,,,68,100
13350,note_on,60,0,11,,,,,,,,,10,,,,64,112
13380,set_tempo,60,1,0,,,,,,1111111,,,,,,,,
13380,note_on,30,0,11,,,,,,,,,10,,,,64,0
13380,note_on,0,0,11,,,,,,,,,10,,,,76,92
13382,note_on,60,0,12,,,,,,,,,11,,,,62,0
13382,note_on,0,0,12,,,,,,,,,11,,,,64,112
13385,note_on,0,0,13,,,,,,,,,12,,,,52,112
13385,note_on,60,0,13,,,,,,,,,12,,,,56,0
13387,control_change,0,0,14,,,,,,,,,13,11,55,,,
13387,note_on,60,0,4,,,,,,,,,3,,,,68,0
13387,note_on,0,0,4,,,,,,,,,3,,,,66,100
13387,note_on,420,0,14,,,,,,,,,13,,,,45,0
13387,note_on,0,0,14,,,,,,,,,13,,,,45,112
13389,note_on,420,0,15,,,,,,,,,14,,,,33,0
13389,control_change,0,0,15,,,,,,,,,14,11,55,,,
13389,note_on,0,0,15,,,,,,,,,14,,,,33,112
13397,note_on,10,0,14,,,,,,,,,13,,,,45,0
13399,note_on,10,0,15,,,,,,,,,14,,,,33,0
13402,note_on,5,0,14,,,,,,,,,13,,,,45,112
13404,note_on,5,0,15,,,,,,,,,14,,,,33,112
13410,note_on,30,0,11,,,,,,,,,10,,,,76,0
13410,note_on,0,0,11,,,,,,,,,10,,,,64,112
13412,note_on,10,0,14,,,,,,,,,13,,,,45,0
13414,note_on,10,0,15,,,,,,,,,14,,,,33,0
13417,note_on,5,0,14,,,,,,,,,13,,,,45,112
13419,note_on,5,0,15,,,,,,,,,14,,,,33,112
13427,note_on,10,0,14,,,,,,,,,13,,,,45,0
13429,note_on,10,0,15,,,,,,,,,14,,,,33,0
13432,note_on,5,0,14,,,,,,,,,13,,,,45,112
13434,note_on,5,0,15,,,,,,,,,14,,,,33,112
13437,note_on,115,0,2,,,,,,,,,1,,,,76,0
13437,note_on,115,0,3,,,,,,,,,2,,,,71,0
13437,note_on,55,0,12,,,,,,,,,11,,,,64,0
13440,set_tempo,60,1,0,,,,,,1212121,,,,,,,,
13440,note_on,55,0,13,,,,,,,,,12,,,,52,0
13440,note_on,0,0,11,,,,,,,,,10,,,,76,92
13440,note_on,30,0,11,,,,,,,,,10,,,,64,0
13442,note_on,5,0,12,,,,,,,,,11,,,,61,112
13442,note_on,5,0,3,,,,,,,,,2,,,,73,111
13442,note_on,55,0,4,,,,,,,,,3,,,,66,0
13442,note_on,5,0,2,,,,,,,,,1,,,,81,110
13442,note_on,10,0,14,,,,,,,,,13,,,,45,0
13444,note_on,10,0,15,,,,,,,,,14,,,,33,0
13445,note_on,5,0,13,,,,,,,,,12,,,,57,112
13447,note_on,5,0,4,,,,,,,,,3,,,,64,100
13447,note_on,0,0,14,,,,,,,,,13,,,,45,112
13447,control_change,5,0,14,,,,,,,,,13,11,41,,,
13449,control_change,5,0,15,,,,,,,,,14,11,41,,,
13449,note_on,0,0,15,,,,,,,,,14,,,,33,112
13500,set_tempo,60,1,0,,,,,,1132075,,,,,,,,
13500,note_on,0,0,11,,,,,,,,,10,,,,64,112
13500,note_on,60,0,11,,,,,,,,,10,,,,76,0
13502,note_on,60,0,2,,,,,,,,,1,,,,81,0
13502,note_on,0,0,2,,,,,,,,,1,,,,83,100
13502,note_on,0,0,12,,,,,,,,,11,,,,64,112
13502,note_on,60,0,12,,,,,,,,,11,,,,61,0
13502,note_on,0,0,3,,,,,,,,,2,,,,74,101
13502,note_on,60,0,3,,,,,,,,,2,,,,73,0
13505,note_on,60,0,13,,,,,,,,,12,,,,57,0
13505,note_on,0,0,13,,,,,,,,,12,,,,52,112
13507,note_on,0,0,4,,,,,,,,,3,,,,62,100
13507,note_on,60,0,4,,,,,,,,,3,,,,64,0
13530,note_on,30,0,11,,,,,,,,,10,,,,64,0
13532,note_on,30,0,3,,,,,,,,,2,,,,74,0
13532,note_on,0,0,3,,,,,,,,,2,,,,76,101
13532,note_on,30,0,2,,,,,,,,,1,,,,83,0
13532,note_on,0,0,2,,,,,,,,,1,,,,85,100
13537,note_on,0,0,4,,,,,,,,,3,,,,61,100
13537,note_on,30,0,4,,,,,,,,,3,,,,62,0
13557,note_on,25,0,2,,,,,,,,,1,,,,85,0
13557,note_on,25,0,3,,,,,,,,,2,,,,76,0
13560,set_tempo,60,1,0,,,,,,1237113,,,,,,,,
13562,note_on,60,0,12,,,,,,,,,11,,,,64,0
13562,note_on,0,0,12,,,,,,,,,11,,,,62,112
13562,note_on,5,0,2,,,,,,,,,1,,,,85,100
13562,note_on,5,0,3,,,,,,,,,2,,,,76,101
13565,note_on,0,0,13,,,,,,,,,12,,,,57,112
13565,note_on,60,0,13,,,,,,,,,12,,,,52,0
13567,note_on,0,0,4,,,,,,,,,3,,,,64,100
13567,note_on,30,0,4,,,,,,,,,3,,,,61,0
13590,note_on,60,0,11,,,,,,,,,10,,,,64,112
13619,note_on,57,0,3,,,,,,,,,2,,,,71,101
13620,note_on,0,0,11,,,,,,,,,10,,,,76,92
13620,set_tempo,60,1,0,,,,,,1153846,,,,,,,,
13620,note_on,30,0,11,,,,,,,,,10,,,,64,0
13621,note_on,1080,0,5,,,,,,,,,4,,,,64,100
13622,note_on,0,0,2,,,,,,,,,1,,,,80,100
13622,note_on,60,0,12,,,,,,,,,11,,,,62,0
13622,note_on,0,0,12,,,,,,,,,11,,,,64,112
13622,note_on,3,0,3,,,,,,,,,2,,,,76,0
13622,note_on,60,0,2,,,,,,,,,1,,,,85,0
13625,note_on,60,0,13,,,,,,,,,12,,,,57,0
13625,note_on,0,0,13,,,,,,,,,12,,,,59,112
13627,note_on,60,0,4,,,,,,,,,3,,,,64,0
13627,note_on,0,0,4,,,,,,,,,3,,,,62,100
13627,note_on,0,0,4,,,,,,,,,3,,,,52,100
13627,note_on,180,0,14,,,,,,,,,13,,,,45,0
13627,note_on,0,0,14,,,,,,,,,13,,,,45,112
13627,control_change,0,0,14,,,,,,,,,13,11,55,,,
13629,note_on,0,0,15,,,,,,,,,14,,,,33,112
13629,control_change,0,0,15,,,,,,,,,14,11,55,,,
13629,note_on,180,0,15,,,,,,,,,14,,,,33,0
13637,note_on,10,0,14,,,,,,,,,13,,,,45,0
13639,note_on,10,0,15,,,,,,,,,14,,,,33,0
13642,note_on,5,0,14,,,,,,,,,13,,,,45,112
13644,note_on,5,0,15,,,,,,,,,14,,,,33,112
13649,note_on,27,0,3,,,,,,,,,2,,,,71,0
13650,set_tempo,30,1,0,,,,,,1304348,,,,,,,,
13650,note_on,0,0,11,,,,,,,,,10,,,,64,112
13650,note_on,30,0,11,,,,,,,,,10,,,,76,0
13652,note_on,10,0,14,,,,,,,,,13,,,,45,0
13654,note_on,10,0,15,,,,,,,,,14,,,,33,0
13655,note_on,6,0,3,,,,,,,,,2,,,,73,101
13657,note_on,5,0,14,,,,,,,,,13,,,,45,112
13659,note_on,5,0,15,,,,,,,,,14,,,,33,112
13667,note_on,10,0,14,,,,,,,,,13,,,,45,0
13669,note_on,10,0,15,,,,,,,,,14,,,,33,0
13672,note_on,5,0,14,,,,,,,,,13,,,,45,112
13674,note_on,5,0,15,,,,,,,,,14,,,,33,112
13677,note_on,55,0,2,,,,,,,,,1,,,,80,0
13680,set_tempo,30,1,0,,,,,,1224490,,,,,,,,
13680,note_on,25,0,3,,,,,,,,,2,,,,73,0
13680,note_on,30,0,11,,,,,,,,,10,,,,64,0
13680,note_on,0,0,11,,,,,,,,,10,,,,73,112
13681,note_on,0,0,5,,,,,,,,,4,,,,64,100
13681,note_on,60,0,5,,,,,,,,,4,,,,64,0
13682,control_change,5,0,2,,,,,,,,,1,11,64,,,
13682,control_change,2,0,3,,,,,,,,,2,11,64,,,
13682,note_on,60,0,12,,,,,,,,,11,,,,64,0
13682,note_on,0,0,4,,,,,,,,,3,,,,62,0
13682,note_on,55,0,4,,,,,,,,,3,,,,52,0
13682,note_on,0,0,2,,,,,,,,,1,,,,81,100
13682,note_on,10,0,14,,,,,,,,,13,,,,45,0
13682,note_on,0,0,12,,,,,,,,,11,,,,61,112
13682,note_on,0,0,3,,,,,,,,,2,,,,69,101
13684,note_on,10,0,15,,,,,,,,,14,,,,33,0
13685,note_on,0,0,13,,,,,,,,,12,,,,57,112
13685,note_on,60,0,13,,,,,,,,,12,,,,59,0
13687,note_on,0,0,14,,,,,,,,,13,,,,45,112
13687,control_change,5,0,14,,,,,,,,,13,11,41,,,
13687,note_on,0,0,4,,,,,,,,,3,,,,61,100
13687,note_on,5,0,4,,,,,,,,,3,,,,57,100
13689,control_change,5,0,15,,,,,,,,,14,11,41,,,
13689,note_on,0,0,15,,,,,,,,,14,,,,33,112
13705,control_change,23,0,2,,,,,,,,,1,11,63,,,
13705,control_change,23,0,3,,,,,,,,,2,11,63,,,
13729,control_change,24,0,2,,,,,,,,,1,11,61,,,
13729,control_change,24,0,3,,,,,,,,,2,11,61,,,
13740,set_tempo,60,1,0,,,,,,1132075,,,,,,,,
13742,note_on,0,0,12,,,,,,,,,11,,,,64,112
13742,note_on,60,0,12,,,,,,,,,11,,,,61,0
13745,note_on,0,0,13,,,,,,,,,12,,,,52,112
13745,note_on,60,0,13,,,,,,,,,12,,,,57,0
13753,control_change,24,0,3,,,,,,,,,2,11,60,,,
13753,control_change,24,0,2,,,,,,,,,1,11,60,,,
13777,control_change,24,0,3,,,,,,,,,2,11,58,,,
13777,control_change,24,0,2,,,,,,,,,1,11,58,,,
13786,note_on,105,0,5,,,,,,,,,4,,,,64,0
13787,note_on,10,0,2,,,,,,,,,1,,,,81,0
13787,note_on,10,0,3,,,,,,,,,2,,,,69,0
13792,note_on,105,0,14,,,,,,,,,13,,,,45,0
13792,note_on,105,0,4,,,,,,,,,3,,,,61,0
13792,note_on,0,0,4,,,,,,,,,3,,,,57,0
13794,note_on,105,0,15,,,,,,,,,14,,,,33,0
13800,set_tempo,60,1,0,,,,,,1224490,,,,,,,,
13801,control_change,14,0,2,,,,,,,,,1,11,57,,,
13801,note_on,15,0,5,,,,,,,,,4,,,,64,100
13801,control_change,14,0,3,,,,,,,,,2,11,57,,,
13802,note_on,1,0,2,,,,,,,,,1,,,,81,100
13802,note_on,60,0,12,,,,,,,,,11,,,,64,0
13802,note_on,1,0,3,,,,,,,,,2,,,,69,101
13802,note_on,0,0,12,,,,,,,,,11,,,,61,112
13805,note_on,60,0,13,,,,,,,,,12,,,,52,0
13805,note_on,0,0,13,,,,,,,,,12,,,,57,112
13807,note_on,0,0,4,,,,,,,,,3,,,,61,100
13807,note_on,15,0,4,,,,,,,,,3,,,,57,100
13807,note_on,15,0,14,,,,,,,,,13,,,,45,112
13809,note_on,15,0,15,,,,,,,,,14,,,,33,112
13825,control_change,23,0,3,,,,,,,,,2,11,55,,,
13825,control_change,23,0,2,,,,,,,,,1,11,55,,,
13849,control_change,24,0,2,,,,,,,,,1,11,53,,,
13849,control_change,24,0,3,,,,,,,,,2,11,53,,,
13860,set_tempo,60,1,0,,,,,,1153846,,,,,,,,
13862,note_on,60,0,12,,,,,,,,,11,,,,61,0
13862,note_on,0,0,12,,,,,,,,,11,,,,57,112
13865,note_on,0,0,13,,,,,,,,,12,,,,61,112
13865,note_on,60,0,13,,,,,,,,,12,,,,57,0
13873,control_change,24,0,3,,,,,,,,,2,11,51,,,
13873,control_change,24,0,2,,,,,,,,,1,11,51,,,
13890,set_tempo,30,1,0,,,,,,1348315,,,,,,,,
13897,control_change,24,0,3,,,,,,,,,2,11,49,,,
13897,control_change,24,0,2,,,,,,,,,1,11,49,,,
13905,note_on,225,0,11,,,,,,,,,10,,,,73,0
13906,note_on,105,0,5,,,,,,,,,4,,,,64,0
13907,note_on,10,0,2,,,,,,,,,1,,,,81,0
13907,note_on,10,0,3,,,,,,,,,2,,,,69,0
13907,note_on,45,0,12,,,,,,,,,11,,,,57,0
13910,note_on,45,0,13,,,,,,,,,12,,,,61,0
13912,note_on,0,0,4,,,,,,,,,3,,,,57,0
13912,note_on,105,0,14,,,,,,,,,13,,,,45,0
13912,note_on,105,0,4,,,,,,,,,3,,,,61,0
13914,note_on,105,0,15,,,,,,,,,14,,,,33,0
13920,note_on,0,0,11,,,,,,,,,10,,,,76,112
13920,set_tempo,30,1,0,,,,,,1165049,,,,,,,,
13920,note_on,0,0,11,,,,,,,,,10,,,,88,112
13920,control_change,15,0,11,,,,,,,,,10,11,122,,,
13921,note_on,0,0,5,,,,,,,,,4,,,,64,100
13921,note_on,0,0,1,,,,,,,,,0,,,,80,101
13921,note_on,0,0,1,,,,,,,,,0,,,,88,101
13921,control_change,15,0,5,,,,,,,,,4,11,122,,,
13921,control_change,1380,0,1,,,,,,,,,0,11,106,,,
13922,control_change,15,0,12,,,,,,,,,11,11,122,,,
13922,note_on,0,0,3,,,,,,,,,2,,,,71,101
13922,note_on,0,0,7,,,,,,,,,6,,,,64,112
13922,note_on,0,0,2,,,,,,,,,1,,,,76,100
13922,note_on,0,0,2,,,,,,,,,1,,,,83,100
13922,control_change,15,0,2,,,,,,,,,1,11,106,,,
13922,control_change,3360,0,7,,,,,,,,,6,11,122,,,
13922,note_on,0,0,7,,,,,,,,,6,,,,52,112
13922,note_on,0,0,3,,,,,,,,,2,,,,68,101
13922,note_on,0,0,12,,,,,,,,,11,,,,80,112
13922,note_on,0,0,12,,,,,,,,,11,,,,64,112
13922,note_on,0,0,12,,,,,,,,,11,,,,71,112
13922,control_change,15,0,3,,,,,,,,,2,11,106,,,
13923,control_change,3000,0,6,,,,,,,,,5,11,122,,,
13923,note_on,0,0,6,,,,,,,,,5,,,,52,100
13924,control_change,1380,0,8,,,,,,,,,7,11,122,,,
13924,note_on,0,0,8,,,,,,,,,7,,,,56,110
13924,note_on,0,0,8,,,,,,,,,7,,,,59,110
13925,note_on,0,0,13,,,,,,,,,12,,,,59,112
13925,control_change,15,0,13,,,,,,,,,12,11,122,,,
13925,note_on,0,0,13,,,,,,,,,12,,,,68,112
13925,note_on,0,0,13,,,,,,,,,12,,,,52,112
13926,control_change,1380,0,9,,,,,,,,,8,11,122,,,
13926,note_on,0,0,9,,,,,,,,,8,,,,52,110
13927,note_on,0,0,14,,,,,,,,,13,,,,52,112
13927,control_change,15,0,4,,,,,,,,,3,11,122,,,
13927,note_on,0,0,4,,,,,,,,,3,,,,56,100
13927,note_on,0,0,4,,,,,,,,,3,,,,59,100
13927,control_change,7,0,11,,,,,,,,,10,11,119,,,
13927,control_change,15,0,14,,,,,,,,,13,11,122,,,
13928,control_change,7,0,1,,,,,,,,,0,11,103,,,
13928,note_on,3420,0,10,,,,,,,,,15,,,,52,85
13928,control_change,7,0,5,,,,,,,,,4,11,119,,,
13929,control_change,7,0,7,,,,,,,,,6,11,119,,,
13929,control_change,7,0,2,,,,,,,,,1,11,103,,,
13929,note_on,0,0,15,,,,,,,,,14,,,,40,112
13929,control_change,15,0,15,,,,,,,,,14,11,122,,,
13929,control_change,7,0,12,,,,,,,,,11,11,119,,,
13929,control_change,7,0,3,,,,,,,,,2,11,103,,,
13930,control_change,7,0,6,,,,,,,,,5,11,119,,,
13931,control_change,7,0,8,,,,,,,,,7,11,119,,,
13932,control_change,7,0,13,,,,,,,,,12,11,119,,,
13933,control_change,7,0,9,,,,,,,,,8,11,119,,,
13934,control_change,7,0,14,,,,,,,,,13,11,119,,,
13934,control_change,7,0,4,,,,,,,,,3,11,119,,,
13935,control_change,8,0,11,,,,,,,,,10,11,116,,,
13936,control_change,8,0,5,,,,,,,,,4,11,116,,,
13936,control_change,7,0,15,,,,,,,,,14,11,119,,,
13937,control_change,8,0,12,,,,,,,,,11,11,116,,,
13937,control_change,8,0,7,,,,,,,,,6,11,116,,,
13938,control_change,8,0,6,,,,,,,,,5,11,116,,,
13939,control_change,8,0,8,,,,,,,,,7,11,116,,,
13940,control_change,8,0,13,,,,,,,,,12,11,116,,,
13941,control_change,8,0,9,,,,,,,,,8,11,116,,,
13942,control_change,8,0,4,,,,,,,,,3,11,116,,,
13942,control_change,8,0,14,,,,,,,,,13,11,116,,,
13942,control_change,7,0,11,,,,,,,,,10,11,113,,,
13943,control_change,15,0,1,,,,,,,,,0,11,99,,,
13943,control_change,7,0,5,,,,,,,,,4,11,113,,,
13944,control_change,8,0,15,,,,,,,,,14,11,116,,,
13944,control_change,7,0,12,,,,,,,,,11,11,113,,,
13944,control_change,15,0,3,,,,,,,,,2,11,99,,,
13944,control_change,15,0,2,,,,,,,,,1,11,99,,,
13944,control_change,7,0,7,,,,,,,,,6,11,113,,,
13945,control_change,7,0,6,,,,,,,,,5,11,113,,,
13946,control_change,7,0,8,,,,,,,,,7,11,113,,,
13947,control_change,7,0,13,,,,,,,,,12,11,113,,,
13948,control_change,7,0,9,,,,,,,,,8,11,113,,,
13949,control_change,7,0,4,,,,,,,,,3,11,113,,,
13949,control_change,7,0,14,,,,,,,,,13,11,113,,,
13950,control_change,8,0,11,,,,,,,,,10,11,110,,,
13951,control_change,7,0,15,,,,,,,,,14,11,113,,,
13951,control_change,8,0,5,,,,,,,,,4,11,110,,,
13952,control_change,8,0,12,,,,,,,,,11,11,110,,,
13952,control_change,8,0,7,,,,,,,,,6,11,110,,,
13953,control_change,8,0,6,,,,,,,,,5,11,110,,,
13954,control_change,8,0,8,,,,,,,,,7,11,110,,,
13955,control_change,8,0,13,,,,,,,,,12,11,110,,,
13956,control_change,8,0,9,,,,,,,,,8,11,110,,,
13957,control_change,8,0,4,,,,,,,,,3,11,110,,,
13957,control_change,8,0,14,,,,,,,,,13,11,110,,,
13957,control_change,7,0,11,,,,,,,,,10,11,107,,,
13958,control_change,15,0,1,,,,,,,,,0,11,94,,,
13958,control_change,7,0,5,,,,,,,,,4,11,107,,,
13959,control_change,8,0,15,,,,,,,,,14,11,110,,,
13959,control_change,7,0,7,,,,,,,,,6,11,107,,,
13959,note_on,2,0,11,,,,,,,,,10,,,,88,0
13959,control_change,15,0,2,,,,,,,,,1,11,94,,,
13959,control_change,15,0,3,,,,,,,,,2,11,94,,,
13959,control_change,7,0,12,,,,,,,,,11,11,107,,,
13959,note_on,0,0,11,,,,,,,,,10,,,,76,0
13960,control_change,7,0,6,,,,,,,,,5,11,107,,,
13961,note_on,0,0,12,,,,,,,,,11,,,,71,0
13961,note_on,2,0,12,,,,,,,,,11,,,,80,0
13961,control_change,7,0,8,,,,,,,,,7,11,107,,,
13961,note_on,0,0,12,,,,,,,,,11,,,,64,0
13962,control_change,7,0,13,,,,,,,,,12,11,107,,,
13963,control_change,7,0,9,,,,,,,,,8,11,107,,,
13964,note_on,2,0,13,,,,,,,,,12,,,,68,0
13964,note_on,0,0,13,,,,,,,,,12,,,,59,0
13964,note_on,0,0,13,,,,,,,,,12,,,,52,0
13964,control_change,7,0,4,,,,,,,,,3,11,107,,,
13964,control_change,7,0,14,,,,,,,,,13,11,107,,,
13965,control_change,6,0,11,,,,,,,,,10,11,104,,,
13966,note_on,2,0,14,,,,,,,,,13,,,,52,0
13966,control_change,7,0,15,,,,,,,,,14,11,107,,,
13966,control_change,8,0,5,,,,,,,,,4,11,104,,,
13967,control_change,6,0,12,,,,,,,,,11,11,104,,,
13967,control_change,8,0,7,,,,,,,,,6,11,104,,,
13968,note_on,2,0,15,,,,,,,,,14,,,,40,0
13968,control_change,8,0,6,,,,,,,,,5,11,104,,,
13969,control_change,8,0,8,,,,,,,,,7,11,104,,,
13970,control_change,6,0,13,,,,,,,,,12,11,104,,,
13971,control_change,8,0,9,,,,,,,,,8,11,104,,,
13972,control_change,8,0,4,,,,,,,,,3,11,104,,,
13972,control_change,6,0,14,,,,,,,,,13,11,104,,,
13974,control_change,6,0,15,,,,,,,,,14,11,104,,,
13975,note_on,9,0,5,,,,,,,,,4,,,,64,0
13975,note_on,17,0,1,,,,,,,,,0,,,,88,0
13975,note_on,0,0,1,,,,,,,,,0,,,,80,0
13976,note_on,0,0,7,,,,,,,,,6,,,,52,0
13976,note_on,17,0,2,,,,,,,,,1,,,,76,0
13976,note_on,9,0,7,,,,,,,,,6,,,,64,0
13976,note_on,17,0,3,,,,,,,,,2,,,,71,0
13976,note_on,0,0,3,,,,,,,,,2,,,,68,0
13976,note_on,0,0,2,,,,,,,,,1,,,,83,0
13977,note_on,9,0,6,,,,,,,,,5,,,,52,0
13978,note_on,9,0,8,,,,,,,,,7,,,,59,0
13978,note_on,0,0,8,,,,,,,,,7,,,,56,0
13980,set_tempo,60,1,0,,,,,,1071429,,,,,,,,
13980,note_on,15,0,11,,,,,,,,,10,,,,83,112
13980,note_on,9,0,9,,,,,,,,,8,,,,52,0
13981,note_on,9,0,4,,,,,,,,,3,,,,59,0
13981,note_on,0,0,4,,,,,,,,,3,,,,56,0
13982,note_on,15,0,12,,,,,,,,,11,,,,80,112
13985,note_on,15,0,13,,,,,,,,,12,,,,76,112
13987,note_on,15,0,14,,,,,,,,,13,,,,64,112
13988,note_on,60,0,10,,,,,,,,,15,,,,52,0
13989,note_on,15,0,15,,,,,,,,,14,,,,52,112
14010,note_on,30,0,11,,,,,,,,,10,,,,83,0
14012,note_on,30,0,12,,,,,,,,,11,,,,80,0
14015,note_on,30,0,13,,,,,,,,,12,,,,76,0
14017,note_on,30,0,14,,,,,,,,,13,,,,64,0
14019,note_on,30,0,15,,,,,,,,,14,,,,52,0
14040,note_on,30,0,11,,,,,,,,,10,,,,83,112
14040,set_tempo,60,1,0,,,,,,1142857,,,,,,,,
14042,note_on,30,0,12,,,,,,,,,11,,,,81,112
14045,note_on,30,0,13,,,,,,,,,12,,,,75,112
14047,note_on,30,0,14,,,,,,,,,13,,,,66,112
14049,note_on,30,0,15,,,,,,,,,14,,,,54,112
14070,note_on,30,0,11,,,,,,,,,10,,,,83,0
14072,note_on,30,0,12,,,,,,,,,11,,,,81,0
14075,note_on,30,0,13,,,,,,,,,12,,,,75,0
14077,note_on,30,0,14,,,,,,,,,13,,,,66,0
14079,note_on,30,0,15,,,,,,,,,14,,,,54,0
14100,set_tempo,60,1,0,,,,,,1071429,,,,,,,,
14100,note_on,30,0,11,,,,,,,,,10,,,,83,112
14102,note_on,30,0,12,,,,,,,,,11,,,,81,112
14105,note_on,30,0,13,,,,,,,,,12,,,,75,112
14107,note_on,30,0,14,,,,,,,,,13,,,,59,112
14109,note_on,30,0,15,,,,,,,,,14,,,,47,112
14130,note_on,30,0,11,,,,,,,,,10,,,,83,0
14132,note_on,30,0,12,,,,,,,,,11,,,,81,0
14135,note_on,30,0,13,,,,,,,,,12,,,,75,0
14137,note_on,30,0,14,,,,,,,,,13,,,,59,0
14139,note_on,30,0,15,,,,,,,,,14,,,,47,0
14160,note_on,30,0,11,,,,,,,,,10,,,,84,112
14160,set_tempo,60,1,0,,,,,,1165049,,,,,,,,
14162,note_on,30,0,12,,,,,,,,,11,,,,80,112
14165,note_on,30,0,13,,,,,,,,,12,,,,76,112
14167,note_on,30,0,14,,,,,,,,,13,,,,64,112
14169,note_on,30,0,15,,,,,,,,,14,,,,52,112
14170,note_on,10,0,11,,,,,,,,,10,,,,84,0
14170,note_on,0,0,11,,,,,,,,,10,,,,83,112
14190,note_on,20,0,11,,,,,,,,,10,,,,83,0
14192,note_on,30,0,12,,,,,,,,,11,,,,80,0
14205,note_on,15,0,11,,,,,,,,,10,,,,81,112
14207,note_on,15,0,12,,,,,,,,,11,,,,78,112
14214,note_on,9,0,11,,,,,,,,,10,,,,81,0
14216,note_on,9,0,12,,,,,,,,,11,,,,78,0
14220,set_tempo,60,1,0,,,,,,1071429,,,,,,,,
14220,note_on,6,0,11,,,,,,,,,10,,,,83,112
14222,note_on,6,0,12,,,,,,,,,11,,,,80,112
14225,note_on,60,0,13,,,,,,,,,12,,,,76,0
14225,note_on,0,0,13,,,,,,,,,12,,,,76,112
14227,note_on,60,0,14,,,,,,,,,13,,,,64,0
14229,note_on,60,0,15,,,,,,,,,14,,,,52,0
14250,note_on,30,0,11,,,,,,,,,10,,,,83,0
14252,note_on,30,0,12,,,,,,,,,11,,,,80,0
14265,note_on,15,0,11,,,,,,,,,10,,,,84,112
14267,note_on,15,0,12,,,,,,,,,11,,,,81,112
14270,note_on,45,0,13,,,,,,,,,12,,,,76,0
14270,note_on,0,0,13,,,,,,,,,12,,,,76,112
14274,note_on,9,0,11,,,,,,,,,10,,,,84,0
14276,note_on,9,0,12,,,,,,,,,11,,,,81,0
14280,set_tempo,60,1,0,,,,,,1142857,,,,,,,,
14280,note_on,6,0,11,,,,,,,,,10,,,,83,112
14282,note_on,6,0,12,,,,,,,,,11,,,,80,112
14285,note_on,0,0,13,,,,,,,,,12,,,,76,112
14285,note_on,15,0,13,,,,,,,,,12,,,,76,0
14287,note_on,60,0,14,,,,,,,,,13,,,,52,112
14289,note_on,60,0,15,,,,,,,,,14,,,,40,112
14310,note_on,30,0,11,,,,,,,,,10,,,,83,0
14312,note_on,30,0,12,,,,,,,,,11,,,,80,0
14315,note_on,30,0,13,,,,,,,,,12,,,,76,0
14317,note_on,30,0,14,,,,,,,,,13,,,,52,0
14317,note_on,0,0,14,,,,,,,,,13,,,,54,112
14319,note_on,30,0,15,,,,,,,,,14,,,,40,0
14319,note_on,0,0,15,,,,,,,,,14,,,,42,112
14340,set_tempo,60,1,0,,,,,,1071429,,,,,,,,
14340,note_on,30,0,11,,,,,,,,,10,,,,83,112
14342,note_on,30,0,12,,,,,,,,,11,,,,80,112
14345,note_on,30,0,13,,,,,,,,,12,,,,76,112
14347,note_on,0,0,14,,,,,,,,,13,,,,56,112
14347,note_on,30,0,14,,,,,,,,,13,,,,54,0
14349,note_on,0,0,15,,,,,,,,,14,,,,44,112
14349,note_on,30,0,15,,,,,,,,,14,,,,42,0
14370,note_on,30,0,11,,,,,,,,,10,,,,83,0
14370,set_tempo,30,1,0,,,,,,1304348,,,,,,,,
14372,note_on,30,0,12,,,,,,,,,11,,,,80,0
14375,note_on,30,0,13,,,,,,,,,12,,,,76,0
14377,note_on,30,0,14,,,,,,,,,13,,,,56,0
14377,note_on,0,0,14,,,,,,,,,13,,,,54,112
14379,note_on,0,0,15,,,,,,,,,14,,,,42,112
14379,note_on,30,0,15,,,,,,,,,14,,,,44,0
14400,control_change,30,0,11,,,,,,,,,10,11,92,,,
14400,note_on,0,0,11,,,,,,,,,10,,,,88,112
14400,set_tempo,30,1,0,,,,,,1165049,,,,,,,,
14401,note_on,0,0,5,,,,,,,,,4,,,,64,100
14401,control_change,426,0,1,,,,,,,,,0,11,83,,,
14401,note_on,0,0,1,,,,,,,,,0,,,,88,101
14401,note_on,0,0,1,,,,,,,,,0,,,,79,101
14401,control_change,426,0,5,,,,,,,,,4,11,92,,,
14402,control_change,426,0,3,,,,,,,,,2,11,83,,,
14402,note_on,0,0,7,,,,,,,,,6,,,,64,112
14402,note_on,0,0,12,,,,,,,,,11,,,,79,112
14402,note_on,0,0,7,,,,,,,,,6,,,,52,112
14402,control_change,426,0,2,,,,,,,,,1,11,83,,,
14402,note_on,0,0,12,,,,,,,,,11,,,,71,112
14402,note_on,0,0,3,,,,,,,,,2,,,,71,101
14402,note_on,0,0,2,,,,,,,,,1,,,,76,100
14402,control_change,426,0,7,,,,,,,,,6,11,92,,,
14402,control_change,30,0,12,,,,,,,,,11,11,92,,,
14402,note_on,0,0,2,,,,,,,,,1,,,,83,100
14402,note_on,0,0,3,,,,,,,,,2,,,,67,101
14403,note_on,0,0,6,,,,,,,,,5,,,,52,100
14403,control_change,426,0,6,,,,,,,,,5,11,92,,,
14404,note_on,0,0,8,,,,,,,,,7,,,,55,110
14404,note_on,0,0,8,,,,,,,,,7,,,,59,110
14404,control_change,426,0,8,,,,,,,,,7,11,92,,,
14405,note_on,0,0,13,,,,,,,,,12,,,,76,112
14405,control_change,30,0,13,,,,,,,,,12,11,92,,,
14405,note_on,0,0,13,,,,,,,,,12,,,,67,112
14406,control_change,426,0,9,,,,,,,,,8,11,92,,,
14406,note_on,0,0,9,,,,,,,,,8,,,,52,110
14407,note_on,0,0,4,,,,,,,,,3,,,,55,100
14407,control_change,426,0,4,,,,,,,,,3,11,92,,,
14407,note_on,0,0,4,,,,,,,,,3,,,,59,100
14407,control_change,0,0,14,,,,,,,,,13,11,92,,,
14407,note_on,0,0,14,,,,,,,,,13,,,,52,112
14407,note_on,30,0,14,,,,,,,,,13,,,,54,0
14407,control_change,7,0,11,,,,,,,,,10,11,89,,,
14408,control_change,7,0,5,,,,,,,,,4,11,89,,,
14408,note_on,420,0,10,,,,,,,,,15,,,,52,85
14409,note_on,30,0,15,,,,,,,,,14,,,,42,0
14409,control_change,0,0,15,,,,,,,,,14,11,92,,,
14409,control_change,7,0,7,,,,,,,,,6,11,89,,,
14409,note_on,0,0,15,,,,,,,,,14,,,,40,112
14409,control_change,7,0,12,,,,,,,,,11,11,89,,,
14410,control_change,7,0,6,,,,,,,,,5,11,89,,,
14411,control_change,7,0,8,,,,,,,,,7,11,89,,,
14412,control_change,7,0,13,,,,,,,,,12,11,89,,,
14413,control_change,7,0,9,,,,,,,,,8,11,89,,,
14414,control_change,7,0,4,,,,,,,,,3,11,89,,,
14414,control_change,7,0,14,,,,,,,,,13,11,89,,,
14416,control_change,7,0,15,,,,,,,,,14,11,89,,,
14416,control_change,15,0,1,,,,,,,,,0,11,78,,,
14416,control_change,8,0,5,,,,,,,,,4,11,86,,,
14417,control_change,15,0,3,,,,,,,,,2,11,78,,,
14417,control_change,8,0,7,,,,,,,,,6,11,86,,,
14417,control_change,15,0,2,,,,,,,,,1,11,78,,,
14418,control_change,8,0,6,,,,,,,,,5,11,86,,,
14419,control_change,8,0,8,,,,,,,,,7,11,86,,,
14421,control_change,8,0,9,,,,,,,,,8,11,86,,,
14422,control_change,15,0,11,,,,,,,,,10,11,84,,,
14422,control_change,8,0,4,,,,,,,,,3,11,86,,,
14423,control_change,7,0,5,,,,,,,,,4,11,83,,,
14424,control_change,15,0,12,,,,,,,,,11,11,84,,,
14424,control_change,7,0,7,,,,,,,,,6,11,83,,,
14425,control_change,7,0,6,,,,,,,,,5,11,83,,,
14426,control_change,7,0,8,,,,,,,,,7,11,83,,,
14427,control_change,15,0,13,,,,,,,,,12,11,84,,,
14428,control_change,7,0,9,,,,,,,,,8,11,83,,,
14429,control_change,15,0,14,,,,,,,,,13,11,84,,,
14429,control_change,7,0,4,,,,,,,,,3,11,83,,,
14430,control_change,8,0,11,,,,,,,,,10,11,81,,,
14431,control_change,8,0,5,,,,,,,,,4,11,80,,,
14431,control_change,15,0,15,,,,,,,,,14,11,84,,,
14431,control_change,15,0,1,,,,,,,,,0,11,74,,,
14432,control_change,8,0,7,,,,,,,,,6,11,80,,,
14432,control_change,8,0,12,,,,,,,,,11,11,81,,,
14432,control_change,15,0,2,,,,,,,,,1,11,74,,,
14432,control_change,15,0,3,,,,,,,,,2,11,74,,,
14433,control_change,8,0,6,,,,,,,,,5,11,80,,,
14434,note_on,4,0,11,,,,,,,,,10,,,,88,0
14434,control_change,8,0,8,,,,,,,,,7,11,80,,,
14435,control_change,8,0,13,,,,,,,,,12,11,81,,,
14436,note_on,4,0,12,,,,,,,,,11,,,,79,0
14436,control_change,8,0,9,,,,,,,,,8,11,80,,,
14436,note_on,0,0,12,,,,,,,,,11,,,,71,0
14437,control_change,3,0,11,,,,,,,,,10,11,78,,,
14437,control_change,8,0,14,,,,,,,,,13,11,81,,,
14437,control_change,8,0,4,,,,,,,,,3,11,80,,,
14438,control_change,7,0,5,,,,,,,,,4,11,77,,,
14439,note_on,4,0,13,,,,,,,,,12,,,,67,0
14439,note_on,0,0,13,,,,,,,,,12,,,,76,0
14439,control_change,8,0,15,,,,,,,,,14,11,81,,,
14439,control_change,7,0,7,,,,,,,,,6,11,77,,,
14439,control_change,3,0,12,,,,,,,,,11,11,78,,,
14440,control_change,7,0,6,,,,,,,,,5,11,77,,,
14441,control_change,7,0,8,,,,,,,,,7,11,77,,,
14442,control_change,3,0,13,,,,,,,,,12,11,78,,,
14443,control_change,7,0,9,,,,,,,,,8,11,77,,,
14444,control_change,7,0,14,,,,,,,,,13,11,78,,,
14444,control_change,7,0,4,,,,,,,,,3,11,77,,,
14445,control_change,8,0,11,,,,,,,,,10,11,75,,,
14446,control_change,7,0,15,,,,,,,,,14,11,78,,,
14446,control_change,15,0,1,,,,,,,,,0,11,69,,,
14446,control_change,8,0,5,,,,,,,,,4,11,74,,,
14447,control_change,8,0,12,,,,,,,,,11,11,75,,,
14447,control_change,15,0,3,,,,,,,,,2,11,69,,,
14447,control_change,15,0,2,,,,,,,,,1,11,69,,,
14447,control_change,8,0,7,,,,,,,,,6,11,74,,,
14448,control_change,8,0,6,,,,,,,,,5,11,74,,,
14449,control_change,8,0,8,,,,,,,,,7,11,74,,,
14450,note_on,4,0,1,,,,,,,,,0,,,,79,0
14450,control_change,8,0,13,,,,,,,,,12,11,75,,,
14450,note_on,0,0,1,,,,,,,,,0,,,,88,0
14451,control_change,8,0,9,,,,,,,,,8,11,74,,,
14451,note_on,0,0,2,,,,,,,,,1,,,,83,0
14451,note_on,4,0,2,,,,,,,,,1,,,,76,0
14451,note_on,0,0,3,,,,,,,,,2,,,,71,0
14451,note_on,4,0,3,,,,,,,,,2,,,,67,0
14452,control_change,8,0,14,,,,,,,,,13,11,75,,,
14452,control_change,8,0,4,,,,,,,,,3,11,74,,,
14454,control_change,8,0,15,,,,,,,,,14,11,75,,,
14455,note_on,9,0,5,,,,,,,,,4,,,,64,0
14456,note_on,4,0,4,,,,,,,,,3,,,,55,0
14456,note_on,0,0,4,,,,,,,,,3,,,,59,0
14456,note_on,0,0,7,,,,,,,,,6,,,,52,0
14456,note_on,9,0,7,,,,,,,,,6,,,,64,0
14457,note_on,9,0,6,,,,,,,,,5,,,,52,0
14458,note_on,0,0,8,,,,,,,,,7,,,,55,0
14458,note_on,9,0,8,,,,,,,,,7,,,,59,0
14460,control_change,15,0,11,,,,,,,,,10,11,41,,,
14460,note_on,9,0,9,,,,,,,,,8,,,,52,0
14460,note_on,0,0,11,,,,,,,,,10,,,,64,112
14460,set_tempo,60,1,0,,,,,,1071429,,,,,,,,
14461,note_on,9,0,14,,,,,,,,,13,,,,52,0
14461,note_on,0,0,1,,,,,,,,,0,,,,79,101
14461,note_on,0,0,1,,,,,,,,,0,,,,83,101
14461,control_change,11,0,1,,,,,,,,,0,11,47,,,
14462,note_on,11,0,3,,,,,,,,,2,,,,71,101
14462,control_change,0,0,2,,,,,,,,,1,11,47,,,
14462,control_change,15,0,12,,,,,,,,,11,11,41,,,
14462,note_on,0,0,12,,,,,,,,,11,,,,64,112
14462,note_on,0,0,2,,,,,,,,,1,,,,76,100
14462,control_change,0,0,3,,,,,,,,,2,11,47,,,
14462,note_on,11,0,2,,,,,,,,,1,,,,71,100
14462,note_on,0,0,3,,,,,,,,,2,,,,67,101
14463,note_on,9,0,15,,,,,,,,,14,,,,40,0
14465,note_on,0,0,13,,,,,,,,,12,,,,64,112
14465,control_change,15,0,13,,,,,,,,,12,11,41,,,
14467,note_on,11,0,4,,,,,,,,,3,,,,64,100
14467,control_change,0,0,4,,,,,,,,,3,11,47,,,
14468,note_on,60,0,10,,,,,,,,,15,,,,52,0
14490,note_on,30,0,11,,,,,,,,,10,,,,64,0
14491,note_on,30,0,1,,,,,,,,,0,,,,79,0
14491,note_on,0,0,1,,,,,,,,,0,,,,83,0
14492,note_on,30,0,2,,,,,,,,,1,,,,76,0
14492,note_on,30,0,3,,,,,,,,,2,,,,67,0
14492,note_on,0,0,3,,,,,,,,,2,,,,71,0
14492,note_on,30,0,12,,,,,,,,,11,,,,64,0
14492,note_on,0,0,2,,,,,,,,,1,,,,71,0
14495,note_on,30,0,13,,,,,,,,,12,,,,64,0
14497,note_on,30,0,4,,,,,,,,,3,,,,64,0
14520,set_tempo,60,1,0,,,,,,1142857,,,,,,,,
14520,note_on,30,0,11,,,,,,,,,10,,,,66,112
14521,note_on,0,0,1,,,,,,,,,0,,,,81,101
14521,note_on,30,0,1,,,,,,,,,0,,,,83,101
14522,note_on,0,0,2,,,,,,,,,1,,,,75,100
14522,note_on,0,0,3,,,,,,,,,2,,,,69,101
14522,note_on,30,0,12,,,,,,,,,11,,,,66,112
14522,note_on,30,0,2,,,,,,,,,1,,,,71,100
14522,note_on,30,0,3,,,,,,,,,2,,,,71,101
14525,note_on,30,0,13,,,,,,,,,12,,,,66,112
14527,note_on,30,0,4,,,,,,,,,3,,,,63,100
14550,note_on,30,0,11,,,,,,,,,10,,,,66,0
14551,note_on,30,0,1,,,,,,,,,0,,,,81,0
14551,note_on,0,0,1,,,,,,,,,0,,,,83,0
14552,note_on,0,0,2,,,,,,,,,1,,,,71,0
14552,note_on,30,0,12,,,,,,,,,11,,,,66,0
14552,note_on,0,0,3,,,,,,,,,2,,,,71,0
14552,note_on,30,0,3,,,,,,,,,2,,,,69,0
14552,note_on,30,0,2,,,,,,,,,1,,,,75,0
14555,note_on,30,0,13,,,,,,,,,12,,,,66,0
14557,note_on,30,0,4,,,,,,,,,3,,,,63,0
14580,note_on,30,0,11,,,,,,,,,10,,,,59,112
14580,set_tempo,60,1,0,,,,,,1071429,,,,,,,,
14581,note_on,30,0,1,,,,,,,,,0,,,,83,101
14581,note_on,0,0,1,,,,,,,,,0,,,,81,101
14582,note_on,0,0,2,,,,,,,,,1,,,,75,100
14582,note_on,30,0,3,,,,,,,,,2,,,,71,101
14582,note_on,30,0,12,,,,,,,,,11,,,,59,112
14582,note_on,0,0,3,,,,,,,,,2,,,,69,101
14582,note_on,30,0,2,,,,,,,,,1,,,,71,100
14585,note_on,30,0,13,,,,,,,,,12,,,,59,112
14587,note_on,30,0,4,,,,,,,,,3,,,,63,100
14610,note_on,30,0,11,,,,,,,,,10,,,,59,0
14611,note_on,0,0,1,,,,,,,,,0,,,,83,0
14611,note_on,30,0,1,,,,,,,,,0,,,,81,0
14612,note_on,0,0,2,,,,,,,,,1,,,,71,0
14612,note_on,30,0,2,,,,,,,,,1,,,,75,0
14612,note_on,30,0,12,,,,,,,,,11,,,,59,0
14612,note_on,30,0,3,,,,,,,,,2,,,,69,0
14612,note_on,0,0,3,,,,,,,,,2,,,,71,0
14615,note_on,30,0,13,,,,,,,,,12,,,,59,0
14617,note_on,30,0,4,,,,,,,,,3,,,,63,0
14640,note_on,30,0,11,,,,,,,,,10,,,,64,112
14640,set_tempo,60,1,0,,,,,,1165049,,,,,,,,
14641,note_on,30,0,1,,,,,,,,,0,,,,79,101
14641,note_on,0,0,1,,,,,,,,,0,,,,84,101
14642,note_on,30,0,3,,,,,,,,,2,,,,67,101
14642,note_on,30,0,12,,,,,,,,,11,,,,64,112
14642,note_on,30,0,2,,,,,,,,,1,,,,76,100
14642,note_on,0,0,2,,,,,,,,,1,,,,72,100
14642,note_on,0,0,3,,,,,,,,,2,,,,72,101
14645,note_on,30,0,13,,,,,,,,,12,,,,64,112
14647,note_on,30,0,4,,,,,,,,,3,,,,64,100
14651,note_on,10,0,1,,,,,,,,,0,,,,84,0
14651,note_on,0,0,1,,,,,,,,,0,,,,83,101
14652,note_on,0,0,2,,,,,,,,,1,,,,71,100
14652,note_on,10,0,2,,,,,,,,,1,,,,72,0
14652,note_on,10,0,3,,,,,,,,,2,,,,72,0
14652,note_on,0,0,3,,,,,,,,,2,,,,71,101
14661,note_on,10,0,1,,,,,,,,,0,,,,79,0
14662,note_on,10,0,3,,,,,,,,,2,,,,67,0
14671,note_on,10,0,1,,,,,,,,,0,,,,83,0
14672,note_on,10,0,3,,,,,,,,,2,,,,71,0
14672,note_on,20,0,2,,,,,,,,,1,,,,71,0
14686,note_on,15,0,1,,,,,,,,,0,,,,78,101
14686,note_on,0,0,1,,,,,,,,,0,,,,81,101
14687,note_on,15,0,2,,,,,,,,,1,,,,69,100
14687,note_on,15,0,3,,,,,,,,,2,,,,66,101
14687,note_on,0,0,3,,,,,,,,,2,,,,69,101
14696,note_on,0,0,1,,,,,,,,,0,,,,78,0
14696,note_on,10,0,1,,,,,,,,,0,,,,81,0
14697,note_on,10,0,2,,,,,,,,,1,,,,69,0
14697,note_on,10,0,3,,,,,,,,,2,,,,69,0
14697,note_on,0,0,3,,,,,,,,,2,,,,66,0
14700,note_on,60,0,11,,,,,,,,,10,,,,64,0
14700,set_tempo,60,1,0,,,,,,1071429,,,,,,,,
14701,note_on,5,0,1,,,,,,,,,0,,,,79,101
14701,note_on,0,0,1,,,,,,,,,0,,,,83,101
14702,note_on,0,0,2,,,,,,,,,1,,,,71,100
14702,note_on,60,0,12,,,,,,,,,11,,,,64,0
14702,note_on,5,0,2,,,,,,,,,1,,,,76,0
14702,note_on,0,0,3,,,,,,,,,2,,,,71,101
14702,note_on,0,0,2,,,,,,,,,1,,,,76,100
14702,note_on,5,0,3,,,,,,,,,2,,,,67,101
14705,note_on,60,0,13,,,,,,,,,12,,,,64,0
14707,note_on,0,0,4,,,,,,,,,3,,,,64,100
14707,note_on,60,0,4,,,,,,,,,3,,,,64,0
14721,note_on,0,0,1,,,,,,,,,0,,,,79,0
14721,note_on,20,0,1,,,,,,,,,0,,,,83,0
14722,note_on,20,0,2,,,,,,,,,1,,,,71,0
14722,note_on,0,0,3,,,,,,,,,2,,,,67,0
14722,note_on,20,0,3,,,,,,,,,2,,,,71,0
14746,note_on,0,0,1,,,,,,,,,0,,,,84,101
14746,note_on,25,0,1,,,,,,,,,0,,,,81,101
14747,note_on,25,0,3,,,,,,,,,2,,,,69,101
14747,note_on,0,0,3,,,,,,,,,2,,,,72,101
14747,note_on,25,0,2,,,,,,,,,1,,,,76,0
14747,note_on,0,0,2,,,,,,,,,1,,,,72,100
14747,note_on,0,0,2,,,,,,,,,1,,,,76,100
14752,note_on,0,0,4,,,,,,,,,3,,,,64,100
14752,note_on,45,0,4,,,,,,,,,3,,,,64,0
14753,note_on,0,0,1,,,,,,,,,0,,,,81,0
14753,note_on,7,0,1,,,,,,,,,0,,,,84,0
14754,note_on,7,0,3,,,,,,,,,2,,,,72,0
14754,note_on,0,0,3,,,,,,,,,2,,,,69,0
14754,note_on,7,0,2,,,,,,,,,1,,,,72,0
14757,note_on,3,0,2,,,,,,,,,1,,,,76,0
14760,set_tempo,60,1,0,,,,,,1142857,,,,,,,,
14761,note_on,0,0,1,,,,,,,,,0,,,,83,101
14761,note_on,8,0,1,,,,,,,,,0,,,,79,101
14762,note_on,10,0,4,,,,,,,,,3,,,,64,0
14762,note_on,8,0,3,,,,,,,,,2,,,,67,101
14762,note_on,0,0,2,,,,,,,,,1,,,,71,100
14762,note_on,5,0,2,,,,,,,,,1,,,,76,100
14762,note_on,0,0,3,,,,,,,,,2,,,,71,101
14767,note_on,0,0,14,,,,,,,,,13,,,,52,112
14767,note_on,5,0,4,,,,,,,,,3,,,,64,100
14767,control_change,306,0,14,,,,,,,,,13,11,50,,,
14769,control_change,306,0,15,,,,,,,,,14,11,50,,,
14769,note_on,0,0,15,,,,,,,,,14,,,,40,112
14791,note_on,30,0,1,,,,,,,,,0,,,,83,0
14791,note_on,0,0,1,,,,,,,,,0,,,,79,0
14792,note_on,0,0,3,,,,,,,,,2,,,,67,0
14792,note_on,30,0,3,,,,,,,,,2,,,,71,0
14792,note_on,0,0,2,,,,,,,,,1,,,,76,0
14792,note_on,30,0,2,,,,,,,,,1,,,,71,0
14797,note_on,30,0,4,,,,,,,,,3,,,,64,0
14797,note_on,0,0,14,,,,,,,,,13,,,,54,112
14797,note_on,30,0,14,,,,,,,,,13,,,,52,0
14799,note_on,30,0,15,,,,,,,,,14,,,,40,0
14799,note_on,0,0,15,,,,,,,,,14,,,,42,112
14820,set_tempo,60,1,0,,,,,,1071429,,,,,,,,
14821,note_on,30,0,1,,,,,,,,,0,,,,83,101
14821,note_on,0,0,1,,,,,,,,,0,,,,79,101
14822,note_on,30,0,2,,,,,,,,,1,,,,71,100
14822,note_on,0,0,3,,,,,,,,,2,,,,67,101
14822,note_on,0,0,2,,,,,,,,,1,,,,76,100
14822,note_on,30,0,3,,,,,,,,,2,,,,71,101
14827,note_on,0,0,14,,,,,,,,,13,,,,55,112
14827,note_on,30,0,14,,,,,,,,,13,,,,54,0
14827,note_on,30,0,4,,,,,,,,,3,,,,64,100
14829,note_on,0,0,15,,,,,,,,,14,,,,43,112
14829,note_on,30,0,15,,,,,,,,,14,,,,42,0
14850,set_tempo,30,1,0,,,,,,1276596,,,,,,,,
14851,note_on,0,0,1,,,,,,,,,0,,,,83,0
14851,note_on,30,0,1,,,,,,,,,0,,,,79,0
14852,note_on,30,0,3,,,,,,,,,2,,,,67,0
14852,note_on,0,0,3,,,,,,,,,2,,,,71,0
14852,note_on,0,0,2,,,,,,,,,1,,,,71,0
14852,note_on,30,0,2,,,,,,,,,1,,,,76,0
14857,note_on,0,0,14,,,,,,,,,13,,,,54,112
14857,note_on,30,0,14,,,,,,,,,13,,,,55,0
14857,note_on,30,0,4,,,,,,,,,3,,,,64,0
14859,note_on,0,0,15,,,,,,,,,14,,,,42,112
14859,note_on,30,0,15,,,,,,,,,14,,,,43,0
14880,control_change,180,0,11,,,,,,,,,10,11,122,,,
14880,note_on,0,0,11,,,,,,,,,10,,,,88,112
14880,note_on,0,0,11,,,,,,,,,10,,,,76,112
14880,set_tempo,30,1,0,,,,,,1165049,,,,,,,,
14881,control_change,426,0,5,,,,,,,,,4,11,102,,,
14881,note_on,0,0,1,,,,,,,,,0,,,,80,101
14881,note_on,0,0,1,,,,,,,,,0,,,,88,101
14881,control_change,30,0,1,,,,,,,,,0,11,91,,,
14881,note_on,0,0,5,,,,,,,,,4,,,,64,100
14882,control_change,30,0,2,,,,,,,,,1,11,91,,,
14882,note_on,0,0,2,,,,,,,,,1,,,,71,100
14882,note_on,0,0,2,,,,,,,,,1,,,,80,100
14882,note_on,0,0,7,,,,,,,,,6,,,,64,112
14882,note_on,0,0,7,,,,,,,,,6,,,,52,112
14882,note_on,0,0,12,,,,,,,,,11,,,,71,112
14882,note_on,0,0,12,,,,,,,,,11,,,,64,112
14882,control_change,426,0,7,,,,,,,,,6,11,102,,,
14882,control_change,180,0,12,,,,,,,,,11,11,122,,,
14882,note_on,0,0,3,,,,,,,,,2,,,,76,101
14882,note_on,0,0,3,,,,,,,,,2,,,,68,101
14882,control_change,30,0,3,,,,,,,,,2,11,91,,,
14882,note_on,0,0,12,,,,,,,,,11,,,,80,112
14883,note_on,0,0,6,,,,,,,,,5,,,,52,100
14883,control_change,426,0,6,,,,,,,,,5,11,102,,,
14884,control_change,426,0,8,,,,,,,,,7,11,102,,,
14884,note_on,0,0,8,,,,,,,,,7,,,,56,110
14884,note_on,0,0,8,,,,,,,,,7,,,,59,110
14885,note_on,0,0,13,,,,,,,,,12,,,,52,112
14885,note_on,0,0,13,,,,,,,,,12,,,,68,112
14885,control_change,180,0,13,,,,,,,,,12,11,102,,,
14885,note_on,0,0,13,,,,,,,,,12,,,,59,112
14886,control_change,426,0,9,,,,,,,,,8,11,102,,,
14886,note_on,0,0,9,,,,,,,,,8,,,,52,110
14887,control_change,0,0,14,,,,,,,,,13,11,102,,,
14887,note_on,30,0,14,,,,,,,,,13,,,,54,0
14887,control_change,30,0,4,,,,,,,,,3,11,102,,,
14887,note_on,0,0,4,,,,,,,,,3,,,,56,100
14887,control_change,7,0,11,,,,,,,,,10,11,119,,,
14887,note_on,0,0,4,,,,,,,,,3,,,,59,100
14887,note_on,0,0,14,,,,,,,,,13,,,,52,112
14888,control_change,7,0,5,,,,,,,,,4,11,99,,,
14888,note_on,420,0,10,,,,,,,,,15,,,,52,85
14888,control_change,7,0,1,,,,,,,,,0,11,88,,,
14889,control_change,7,0,7,,,,,,,,,6,11,99,,,
14889,note_on,30,0,15,,,,,,,,,14,,,,42,0
14889,control_change,0,0,15,,,,,,,,,14,11,102,,,
14889,control_change,7,0,3,,,,,,,,,2,11,88,,,
14889,note_on,0,0,15,,,,,,,,,14,,,,40,112
14889,control_change,7,0,2,,,,,,,,,1,11,88,,,
14889,control_change,7,0,12,,,,,,,,,11,11,119,,,
14890,control_change,7,0,6,,,,,,,,,5,11,99,,,
14891,control_change,7,0,8,,,,,,,,,7,11,99,,,
14892,control_change,7,0,13,,,,,,,,,12,11,99,,,
14893,control_change,7,0,9,,,,,,,,,8,11,99,,,
14894,control_change,7,0,4,,,,,,,,,3,11,99,,,
14894,control_change,7,0,14,,,,,,,,,13,11,99,,,
14895,control_change,8,0,11,,,,,,,,,10,11,116,,,
14896,control_change,8,0,5,,,,,,,,,4,11,96,,,
14896,control_change,7,0,15,,,,,,,,,14,11,99,,,
14897,control_change,8,0,7,,,,,,,,,6,11,96,,,
14897,control_change,8,0,12,,,,,,,,,11,11,116,,,
14898,control_change,8,0,6,,,,,,,,,5,11,96,,,
14899,control_change,8,0,8,,,,,,,,,7,11,96,,,
14900,control_change,8,0,13,,,,,,,,,12,11,96,,,
14901,control_change,8,0,9,,,,,,,,,8,11,96,,,
14902,control_change,8,0,4,,,,,,,,,3,11,96,,,
14902,control_change,7,0,11,,,,,,,,,10,11,113,,,
14902,control_change,8,0,14,,,,,,,,,13,11,96,,,
14903,control_change,15,0,1,,,,,,,,,0,11,84,,,
14903,control_change,7,0,5,,,,,,,,,4,11,93,,,
14904,control_change,8,0,15,,,,,,,,,14,11,96,,,
14904,control_change,7,0,7,,,,,,,,,6,11,93,,,
14904,control_change,15,0,2,,,,,,,,,1,11,84,,,
14904,control_change,7,0,12,,,,,,,,,11,11,113,,,
14904,control_change,15,0,3,,,,,,,,,2,11,84,,,
14905,control_change,7,0,6,,,,,,,,,5,11,93,,,
14906,control_change,7,0,8,,,,,,,,,7,11,93,,,
14907,control_change,7,0,13,,,,,,,,,12,11,93,,,
14908,control_change,7,0,9,,,,,,,,,8,11,93,,,
14909,control_change,7,0,4,,,,,,,,,3,11,93,,,
14909,control_change,7,0,14,,,,,,,,,13,11,93,,,
14910,control_change,8,0,11,,,,,,,,,10,11,110,,,
14911,control_change,8,0,1,,,,,,,,,0,11,81,,,
14911,control_change,7,0,15,,,,,,,,,14,11,93,,,
14911,control_change,8,0,5,,,,,,,,,4,11,90,,,
14912,control_change,8,0,3,,,,,,,,,2,11,81,,,
14912,control_change,8,0,7,,,,,,,,,6,11,90,,,
14912,control_change,8,0,2,,,,,,,,,1,11,81,,,
14912,control_change,8,0,12,,,,,,,,,11,11,110,,,
14913,control_change,8,0,6,,,,,,,,,5,11,90,,,
14914,control_change,8,0,8,,,,,,,,,7,11,90,,,
14915,control_change,8,0,13,,,,,,,,,12,11,90,,,
14916,control_change,8,0,9,,,,,,,,,8,11,90,,,
14917,control_change,8,0,14,,,,,,,,,13,11,90,,,
14917,control_change,7,0,11,,,,,,,,,10,11,107,,,
14917,control_change,8,0,4,,,,,,,,,3,11,90,,,
14918,control_change,7,0,5,,,,,,,,,4,11,87,,,
14919,note_on,2,0,11,,,,,,,,,10,,,,76,0
14919,control_change,8,0,15,,,,,,,,,14,11,90,,,
14919,control_change,7,0,7,,,,,,,,,6,11,87,,,
14919,note_on,0,0,11,,,,,,,,,10,,,,88,0
14919,control_change,7,0,12,,,,,,,,,11,11,107,,,
14920,control_change,7,0,6,,,,,,,,,5,11,87,,,
14921,control_change,7,0,8,,,,,,,,,7,11,87,,,
14921,note_on,2,0,12,,,,,,,,,11,,,,64,0
14921,note_on,0,0,12,,,,,,,,,11,,,,71,0
14921,note_on,0,0,12,,,,,,,,,11,,,,80,0
14922,control_change,7,0,13,,,,,,,,,12,11,87,,,
14923,control_change,7,0,9,,,,,,,,,8,11,87,,,
14924,note_on,0,0,13,,,,,,,,,12,,,,68,0
14924,note_on,2,0,13,,,,,,,,,12,,,,52,0
14924,note_on,0,0,13,,,,,,,,,12,,,,59,0
14924,control_change,7,0,4,,,,,,,,,3,11,87,,,
14924,control_change,7,0,14,,,,,,,,,13,11,87,,,
14925,control_change,6,0,11,,,,,,,,,10,11,104,,,
14926,control_change,7,0,15,,,,,,,,,14,11,87,,,
14926,control_change,8,0,5,,,,,,,,,4,11,84,,,
14926,note_on,2,0,14,,,,,,,,,13,,,,52,0
14926,control_change,15,0,1,,,,,,,,,0,11,77,,,
14927,control_change,8,0,7,,,,,,,,,6,11,84,,,
14927,control_change,6,0,12,,,,,,,,,11,11,104,,,
14927,control_change,15,0,2,,,,,,,,,1,11,77,,,
14927,control_change,15,0,3,,,,,,,,,2,11,77,,,
14928,control_change,8,0,6,,,,,,,,,5,11,84,,,
14928,note_on,2,0,15,,,,,,,,,14,,,,40,0
14929,control_change,8,0,8,,,,,,,,,7,11,84,,,
14931,control_change,8,0,9,,,,,,,,,8,11,84,,,
14932,control_change,8,0,4,,,,,,,,,3,11,84,,,
14935,note_on,9,0,1,,,,,,,,,0,,,,88,0
14935,note_on,0,0,1,,,,,,,,,0,,,,80,0
14935,note_on,9,0,5,,,,,,,,,4,,,,64,0
14936,note_on,0,0,3,,,,,,,,,2,,,,68,0
14936,note_on,9,0,3,,,,,,,,,2,,,,76,0
14936,note_on,9,0,7,,,,,,,,,6,,,,64,0
14936,note_on,0,0,7,,,,,,,,,6,,,,52,0
14936,note_on,0,0,2,,,,,,,,,1,,,,71,0
14936,note_on,9,0,2,,,,,,,,,1,,,,80,0
14937,note_on,9,0,6,,,,,,,,,5,,,,52,0
14938,note_on,0,0,8,,,,,,,,,7,,,,56,0
14938,note_on,9,0,8,,,,,,,,,7,,,,59,0
14940,note_on,9,0,9,,,,,,,,,8,,,,52,0
14940,note_on,15,0,11,,,,,,,,,10,,,,83,112
14940,set_tempo,60,1,0,,,,,,1071429,,,,,,,,
14941,note_on,9,0,4,,,,,,,,,3,,,,56,0
14941,note_on,0,0,4,,,,,,,,,3,,,,59,0
14942,note_on,15,0,12,,,,,,,,,11,,,,80,112
14945,note_on,21,0,13,,,,,,,,,12,,,,76,112
14947,note_on,21,0,14,,,,,,,,,13,,,,64,112
14948,note_on,60,0,10,,,,,,,,,15,,,,52,0
14949,note_on,21,0,15,,,,,,,,,14,,,,52,112
14970,note_on,30,0,11,,,,,,,,,10,,,,83,0
14972,note_on,30,0,12,,,,,,,,,11,,,,80,0
14975,note_on,30,0,13,,,,,,,,,12,,,,76,0
14977,note_on,30,0,14,,,,,,,,,13,,,,64,0
14979,note_on,30,0,15,,,,,,,,,14,,,,52,0
15000,note_on,30,0,11,,,,,,,,,10,,,,83,112
15000,set_tempo,60,1,0,,,,,,1142857,,,,,,,,
15002,note_on,30,0,12,,,,,,,,,11,,,,81,112
15005,note_on,30,0,13,,,,,,,,,12,,,,75,112
15007,note_on,30,0,14,,,,,,,,,13,,,,66,112
15009,note_on,30,0,15,,,,,,,,,14,,,,54,112
15030,note_on,30,0,11,,,,,,,,,10,,,,83,0
15032,note_on,30,0,12,,,,,,,,,11,,,,81,0
15035,note_on,30,0,13,,,,,,,,,12,,,,75,0
15037,note_on,30,0,14,,,,,,,,,13,,,,66,0
15039,note_on,30,0,15,,,,,,,,,14,,,,54,0
15060,note_on,30,0,11,,,,,,,,,10,,,,83,112
15060,set_tempo,60,1,0,,,,,,1071429,,,,,,,,
15062,note_on,30,0,12,,,,,,,,,11,,,,81,112
15065,note_on,30,0,13,,,,,,,,,12,,,,75,112
15067,note_on,30,0,14,,,,,,,,,13,,,,59,112
15069,note_on,30,0,15,,,,,,,,,14,,,,47,112
15090,note_on,30,0,11,,,,,,,,,10,,,,83,0
15092,note_on,30,0,12,,,,,,,,,11,,,,81,0
15095,note_on,30,0,13,,,,,,,,,12,,,,75,0
15097,note_on,30,0,14,,,,,,,,,13,,,,59,0
15099,note_on,30,0,15,,,,,,,,,14,,,,47,0
15120,set_tempo,60,1,0,,,,,,1165049,,,,,,,,
15120,note_on,30,0,11,,,,,,,,,10,,,,84,112
15122,note_on,30,0,12,,,,,,,,,11,,,,80,112
15125,note_on,30,0,13,,,,,,,,,12,,,,76,112
15127,note_on,30,0,14,,,,,,,,,13,,,,64,112
15129,note_on,30,0,15,,,,,,,,,14,,,,52,112
15130,note_on,10,0,11,,,,,,,,,10,,,,84,0
15130,note_on,0,0,11,,,,,,,,,10,,,,83,112
15150,note_on,20,0,11,,,,,,,,,10,,,,83,0
15152,note_on,30,0,12,,,,,,,,,11,,,,80,0
15165,note_on,15,0,11,,,,,,,,,10,,,,81,112
15167,note_on,15,0,12,,,,,,,,,11,,,,78,112
15172,note_on,45,0,14,,,,,,,,,13,,,,64,0
15174,note_on,45,0,15,,,,,,,,,14,,,,52,0
15176,note_on,11,0,11,,,,,,,,,10,,,,81,0
15178,note_on,11,0,12,,,,,,,,,11,,,,78,0
15180,set_tempo,60,1,0,,,,,,1071429,,,,,,,,
15180,note_on,4,0,11,,,,,,,,,10,,,,83,112
15182,note_on,4,0,12,,,,,,,,,11,,,,80,112
15185,note_on,60,0,13,,,,,,,,,12,,,,76,0
15185,note_on,0,0,13,,,,,,,,,12,,,,76,112
15210,note_on,30,0,11,,,,,,,,,10,,,,83,0
15212,note_on,30,0,12,,,,,,,,,11,,,,80,0
15225,note_on,15,0,11,,,,,,,,,10,,,,84,112
15227,note_on,15,0,12,,,,,,,,,11,,,,81,112
15230,note_on,0,0,13,,,,,,,,,12,,,,76,112
15230,note_on,45,0,13,,,,,,,,,12,,,,76,0
15236,note_on,11,0,11,,,,,,,,,10,,,,84,0
15238,note_on,11,0,12,,,,,,,,,11,,,,81,0
15240,set_tempo,60,1,0,,,,,,1142857,,,,,,,,
15240,note_on,4,0,11,,,,,,,,,10,,,,83,112
15242,note_on,4,0,12,,,,,,,,,11,,,,80,112
15245,note_on,15,0,13,,,,,,,,,12,,,,76,0
15245,note_on,0,0,13,,,,,,,,,12,,,,76,112
15247,note_on,75,0,14,,,,,,,,,13,,,,52,112
15249,note_on,75,0,15,,,,,,,,,14,,,,40,112
15270,note_on,30,0,11,,,,,,,,,10,,,,83,0
15272,note_on,30,0,12,,,,,,,,,11,,,,80,0
15275,note_on,30,0,13,,,,,,,,,12,,,,76,0
15277,note_on,0,0,14,,,,,,,,,13,,,,54,112
15277,note_on,30,0,14,,,,,,,,,13,,,,52,0
15279,note_on,0,0,15,,,,,,,,,14,,,,42,112
15279,note_on,30,0,15,,,,,,,,,14,,,,40,0
15300,set_tempo,60,1,0,,,,,,1071429,,,,,,,,
15300,note_on,30,0,11,,,,,,,,,10,,,,83,112
15302,note_on,30,0,12,,,,,,,,,11,,,,80,112
15305,note_on,30,0,13,,,,,,,,,12,,,,76,112
15307,note_on,0,0,14,,,,,,,,,13,,,,56,112
15307,note_on,30,0,14,,,,,,,,,13,,,,54,0
15309,note_on,0,0,15,,,,,,,,,14,,,,44,112
15309,note_on,30,0,15,,,,,,,,,14,,,,42,0
15330,note_on,30,0,11,,,,,,,,,10,,,,83,0
15332,note_on,30,0,12,,,,,,,,,11,,,,80,0
15335,note_on,30,0,13,,,,,,,,,12,,,,76,0
15337,note_on,0,0,14,,,,,,,,,13,,,,52,112
15337,note_on,30,0,14,,,,,,,,,13,,,,56,0
15339,note_on,0,0,15,,,,,,,,,14,,,,40,112
15339,note_on,30,0,15,,,,,,,,,14,,,,44,0
15360,note_on,30,0,11,,,,,,,,,10,,,,84,122
15360,set_tempo,60,1,0,,,,,,1165049,,,,,,,,
15361,note_on,426,0,5,,,,,,,,,4,,,,60,100
15362,note_on,30,0,12,,,,,,,,,11,,,,81,122
15362,note_on,426,0,2,,,,,,,,,1,,,,72,100
15362,note_on,0,0,2,,,,,,,,,1,,,,69,100
15363,note_on,426,0,6,,,,,,,,,5,,,,57,100
15365,note_on,30,0,13,,,,,,,,,12,,,,59,112
15367,note_on,30,0,14,,,,,,,,,13,,,,52,0
15367,note_on,0,0,14,,,,,,,,,13,,,,59,112
15367,note_on,0,0,4,,,,,,,,,3,,,,57,100
15367,note_on,426,0,4,,,,,,,,,3,,,,60,100
15369,note_on,0,0,15,,,,,,,,,14,,,,47,112
15369,note_on,30,0,15,,,,,,,,,14,,,,40,0
15375,note_on,10,0,13,,,,,,,,,12,,,,59,0
15375,note_on,0,0,13,,,,,,,,,12,,,,57,112
15377,note_on,0,0,14,,,,,,,,,13,,,,57,112
15377,note_on,10,0,14,,,,,,,,,13,,,,59,0
15379,note_on,0,0,15,,,,,,,,,14,,,,45,112
15379,note_on,10,0,15,,,,,,,,,14,,,,47,0
15395,note_on,20,0,13,,,,,,,,,12,,,,57,0
15397,note_on,20,0,14,,,,,,,,,13,,,,57,0
15399,note_on,20,0,15,,,,,,,,,14,,,,45,0
15410,note_on,15,0,13,,,,,,,,,12,,,,56,112
15412,note_on,15,0,14,,,,,,,,,13,,,,56,112
15414,note_on,15,0,15,,,,,,,,,14,,,,44,112
15420,set_tempo,60,1,0,,,,,,1071429,,,,,,,,
15421,note_on,11,0,13,,,,,,,,,12,,,,56,0
15423,note_on,11,0,14,,,,,,,,,13,,,,56,0
15425,note_on,4,0,13,,,,,,,,,12,,,,57,112
15425,note_on,11,0,15,,,,,,,,,14,,,,44,0
15427,note_on,4,0,14,,,,,,,,,13,,,,57,112
15429,note_on,4,0,15,,,,,,,,,14,,,,45,112
15455,note_on,30,0,13,,,,,,,,,12,,,,57,0
15457,note_on,30,0,14,,,,,,,,,13,,,,57,0
15459,note_on,30,0,15,,,,,,,,,14,,,,45,0
15470,note_on,110,0,11,,,,,,,,,10,,,,84,0
15470,note_on,15,0,13,,,,,,,,,12,,,,60,112
15472,note_on,15,0,14,,,,,,,,,13,,,,60,112
15472,note_on,110,0,12,,,,,,,,,11,,,,81,0
15474,note_on,15,0,15,,,,,,,,,14,,,,48,112
15476,note_on,115,0,5,,,,,,,,,4,,,,60,0
15478,note_on,115,0,6,,,,,,,,,5,,,,57,0
15480,set_tempo,60,1,0,,,,,,1142857,,,,,,,,
15480,note_on,10,0,11,,,,,,,,,10,,,,89,112
15481,note_on,11,0,13,,,,,,,,,12,,,,60,0
15481,note_on,5,0,5,,,,,,,,,4,,,,65,100
15482,note_on,10,0,12,,,,,,,,,11,,,,84,112
15482,note_on,120,0,2,,,,,,,,,1,,,,69,0
15482,note_on,0,0,2,,,,,,,,,1,,,,72,0
15482,note_on,0,0,2,,,,,,,,,1,,,,72,100
15482,note_on,0,0,2,,,,,,,,,1,,,,77,100
15483,note_on,11,0,14,,,,,,,,,13,,,,60,0
15483,note_on,5,0,6,,,,,,,,,5,,,,55,100
15485,note_on,4,0,13,,,,,,,,,12,,,,55,122
15485,note_on,11,0,15,,,,,,,,,14,,,,48,0
15487,note_on,0,0,4,,,,,,,,,3,,,,65,100
15487,note_on,4,0,14,,,,,,,,,13,,,,55,122
15487,note_on,120,0,4,,,,,,,,,3,,,,57,0
15487,note_on,0,0,4,,,,,,,,,3,,,,60,0
15487,note_on,0,0,4,,,,,,,,,3,,,,60,100
15489,note_on,4,0,15,,,,,,,,,14,,,,43,122
15492,note_on,0,0,12,,,,,,,,,11,,,,83,112
15492,note_on,10,0,12,,,,,,,,,11,,,,84,0
15492,note_on,0,0,2,,,,,,,,,1,,,,71,100
15492,note_on,10,0,2,,,,,,,,,1,,,,72,0
15497,note_on,10,0,4,,,,,,,,,3,,,,60,0
15497,note_on,0,0,4,,,,,,,,,3,,,,59,100
15510,note_on,30,0,11,,,,,,,,,10,,,,89,0
15512,note_on,0,0,2,,,,,,,,,1,,,,77,0
15512,note_on,20,0,12,,,,,,,,,11,,,,83,0
15512,note_on,20,0,2,,,,,,,,,1,,,,71,0
15517,note_on,20,0,4,,,,,,,,,3,,,,59,0
15517,note_on,0,0,4,,,,,,,,,3,,,,65,0
15527,note_on,15,0,2,,,,,,,,,1,,,,69,100
15527,note_on,15,0,12,,,,,,,,,11,,,,81,112
15532,note_on,15,0,4,,,,,,,,,3,,,,57,100
15536,note_on,55,0,5,,,,,,,,,4,,,,65,0
15537,note_on,10,0,2,,,,,,,,,1,,,,69,0
15538,note_on,11,0,12,,,,,,,,,11,,,,81,0
15538,note_on,55,0,6,,,,,,,,,5,,,,55,0
15540,note_on,30,0,11,,,,,,,,,10,,,,89,112
15540,set_tempo,60,1,0,,,,,,1071429,,,,,,,,
15541,note_on,5,0,5,,,,,,,,,4,,,,65,100
15542,note_on,5,0,2,,,,,,,,,1,,,,71,100
15542,note_on,0,0,2,,,,,,,,,1,,,,77,100
15542,note_on,10,0,4,,,,,,,,,3,,,,57,0
15542,note_on,4,0,12,,,,,,,,,11,,,,83,112
15543,note_on,5,0,6,,,,,,,,,5,,,,55,100
15547,note_on,5,0,4,,,,,,,,,3,,,,59,100
15547,note_on,0,0,4,,,,,,,,,3,,,,65,100
15570,note_on,30,0,11,,,,,,,,,10,,,,89,0
15572,note_on,30,0,12,,,,,,,,,11,,,,83,0
15572,note_on,30,0,2,,,,,,,,,1,,,,77,0
15572,note_on,0,0,2,,,,,,,,,1,,,,71,0
15577,note_on,30,0,4,,,,,,,,,3,,,,65,0
15577,note_on,0,0,4,,,,,,,,,3,,,,59,0
15587,note_on,15,0,12,,,,,,,,,11,,,,86,112
15587,note_on,15,0,2,,,,,,,,,1,,,,72,100
15592,note_on,15,0,4,,,,,,,,,3,,,,60,100
15596,note_on,55,0,5,,,,,,,,,4,,,,65,0
15597,note_on,10,0,2,,,,,,,,,1,,,,72,0
15598,note_on,11,0,12,,,,,,,,,11,,,,86,0
15598,note_on,55,0,6,,,,,,,,,5,,,,55,0
15600,note_on,30,0,11,,,,,,,,,10,,,,88,122
15600,set_tempo,60,1,0,,,,,,1165049,,,,,,,,
15601,note_on,0,0,1,,,,,,,,,0,,,,72,101
15601,note_on,666,0,1,,,,,,,,,0,,,,76,101
15601,note_on,5,0,5,,,,,,,,,4,,,,64,100
15602,note_on,666,0,3,,,,,,,,,2,,,,72,101
15602,note_on,0,0,3,,,,,,,,,2,,,,64,101
15602,note_on,10,0,4,,,,,,,,,3,,,,60,0
15602,note_on,0,0,2,,,,,,,,,1,,,,72,100
15602,note_on,5,0,2,,,,,,,,,1,,,,76,100
15602,note_on,4,0,12,,,,,,,,,11,,,,84,122
15603,note_on,5,0,6,,,,,,,,,5,,,,60,100
15605,note_on,120,0,13,,,,,,,,,12,,,,55,0
15605,note_on,0,0,13,,,,,,,,,12,,,,62,112
15607,note_on,0,0,4,,,,,,,,,3,,,,60,100
15607,note_on,5,0,4,,,,,,,,,3,,,,64,100
15607,note_on,120,0,14,,,,,,,,,13,,,,55,0
15607,note_on,0,0,14,,,,,,,,,13,,,,62,112
15609,note_on,120,0,15,,,,,,,,,14,,,,43,0
15609,note_on,0,0,15,,,,,,,,,14,,,,50,112
15615,note_on,10,0,13,,,,,,,,,12,,,,62,0
15615,note_on,0,0,13,,,,,,,,,12,,,,60,112
15617,note_on,10,0,14,,,,,,,,,13,,,,62,0
15617,note_on,0,0,14,,,,,,,,,13,,,,60,112
15619,note_on,0,0,15,,,,,,,,,14,,,,48,112
15619,note_on,10,0,15,,,,,,,,,14,,,,50,0
15635,note_on,20,0,13,,,,,,,,,12,,,,60,0
15637,note_on,20,0,14,,,,,,,,,13,,,,60,0
15639,note_on,20,0,15,,,,,,,,,14,,,,48,0
15650,note_on,15,0,13,,,,,,,,,12,,,,59,112
15652,note_on,15,0,14,,,,,,,,,13,,,,59,112
15654,note_on,15,0,15,,,,,,,,,14,,,,47,112
15660,set_tempo,60,1,0,,,,,,1071429,,,,,,,,
15661,note_on,11,0,13,,,,,,,,,12,,,,59,0
15663,note_on,11,0,14,,,,,,,,,13,,,,59,0
15665,note_on,4,0,13,,,,,,,,,12,,,,60,112
15665,note_on,11,0,15,,,,,,,,,14,,,,47,0
15667,note_on,4,0,14,,,,,,,,,13,,,,60,112
15669,note_on,4,0,15,,,,,,,,,14,,,,48,112
15695,note_on,30,0,13,,,,,,,,,12,,,,60,0
15697,note_on,30,0,14,,,,,,,,,13,,,,60,0
15699,note_on,30,0,15,,,,,,,,,14,,,,48,0
15710,note_on,110,0,11,,,,,,,,,10,,,,88,0
15710,note_on,15,0,13,,,,,,,,,12,,,,64,112
15711,note_on,110,0,1,,,,,,,,,0,,,,72,0
15711,note_on,0,0,1,,,,,,,,,0,,,,76,0
15712,note_on,15,0,14,,,,,,,,,13,,,,64,112
15712,note_on,110,0,3,,,,,,,,,2,,,,64,0
15712,note_on,0,0,3,,,,,,,,,2,,,,72,0
15712,note_on,110,0,2,,,,,,,,,1,,,,72,0
15712,note_on,110,0,12,,,,,,,,,11,,,,84,0
15712,note_on,0,0,2,,,,,,,,,1,,,,76,0
15714,note_on,15,0,15,,,,,,,,,14,,,,52,112
15717,note_on,110,0,4,,,,,,,,,3,,,,60,0
15717,note_on,0,0,4,,,,,,,,,3,,,,64,0
15720,control_change,10,0,11,,,,,,,,,10,11,102,,,
15720,set_tempo,60,1,0,,,,,,1142857,,,,,,,,
15720,note_on,0,0,11,,,,,,,,,10,,,,81,112
15721,note_on,10,0,1,,,,,,,,,0,,,,76,101
15721,note_on,0,0,1,,,,,,,,,0,,,,81,101
15721,note_on,11,0,13,,,,,,,,,12,,,,64,0
15721,note_on,120,0,5,,,,,,,,,4,,,,64,0
15722,note_on,0,0,2,,,,,,,,,1,,,,81,100
15722,note_on,10,0,2,,,,,,,,,1,,,,76,100
15722,note_on,0,0,12,,,,,,,,,11,,,,76,112
15722,note_on,0,0,3,,,,,,,,,2,,,,69,101
15722,control_change,10,0,12,,,,,,,,,11,11,102,,,
15722,note_on,10,0,3,,,,,,,,,2,,,,76,101
15723,note_on,120,0,6,,,,,,,,,5,,,,60,0
15723,note_on,11,0,14,,,,,,,,,13,,,,64,0
15725,note_on,0,0,13,,,,,,,,,12,,,,59,122
15725,note_on,11,0,15,,,,,,,,,14,,,,52,0
15725,control_change,4,0,13,,,,,,,,,12,11,102,,,
15727,note_on,0,0,4,,,,,,,,,3,,,,57,100
15727,control_change,4,0,14,,,,,,,,,13,11,102,,,
15727,note_on,0,0,14,,,,,,,,,13,,,,59,122
15727,note_on,10,0,4,,,,,,,,,3,,,,64,100
15729,note_on,0,0,15,,,,,,,,,14,,,,47,122
15729,control_change,4,0,15,,,,,,,,,14,11,102,,,
15731,note_on,10,0,1,,,,,,,,,0,,,,76,0
15732,note_on,0,0,12,,,,,,,,,11,,,,75,112
15732,note_on,10,0,3,,,,,,,,,2,,,,76,0
15732,note_on,10,0,2,,,,,,,,,1,,,,76,0
15732,note_on,10,0,12,,,,,,,,,11,,,,76,0
15736,note_on,5,0,1,,,,,,,,,0,,,,75,101
15737,control_change,17,0,11,,,,,,,,,10,11,99,,,
15737,note_on,5,0,3,,,,,,,,,2,,,,75,101
15737,note_on,5,0,2,,,,,,,,,1,,,,75,100
15737,note_on,10,0,4,,,,,,,,,3,,,,64,0
15739,control_change,7,0,12,,,,,,,,,11,11,99,,,
15742,control_change,17,0,13,,,,,,,,,12,11,99,,,
15742,note_on,5,0,4,,,,,,,,,3,,,,63,100
15744,control_change,17,0,14,,,,,,,,,13,11,99,,,
15746,control_change,17,0,15,,,,,,,,,14,11,99,,,
15750,note_on,13,0,11,,,,,,,,,10,,,,81,0
15751,note_on,15,0,1,,,,,,,,,0,,,,81,0
15752,note_on,13,0,12,,,,,,,,,11,,,,75,0
15752,note_on,15,0,2,,,,,,,,,1,,,,81,0
15752,note_on,15,0,3,,,,,,,,,2,,,,69,0
15755,control_change,5,0,11,,,,,,,,,10,11,96,,,
15756,note_on,5,0,1,,,,,,,,,0,,,,75,0
15757,note_on,5,0,2,,,,,,,,,1,,,,75,0
15757,control_change,5,0,12,,,,,,,,,11,11,96,,,
15757,note_on,15,0,4,,,,,,,,,3,,,,57,0
15757,note_on,5,0,3,,,,,,,,,2,,,,75,0
15760,control_change,18,0,13,,,,,,,,,12,11,96,,,
15762,note_on,5,0,4,,,,,,,,,3,,,,63,0
15762,control_change,18,0,14,,,,,,,,,13,11,96,,,
15764,control_change,18,0,15,,,,,,,,,14,11,96,,,
15766,note_on,10,0,1,,,,,,,,,0,,,,73,101
15767,note_on,10,0,2,,,,,,,,,1,,,,73,100
15767,note_on,10,0,3,,,,,,,,,2,,,,73,101
15767,note_on,10,0,12,,,,,,,,,11,,,,73,112
15772,note_on,10,0,4,,,,,,,,,3,,,,61,100
15773,note_on,7,0,1,,,,,,,,,0,,,,73,0
15773,control_change,18,0,11,,,,,,,,,10,11,93,,,
15774,note_on,7,0,2,,,,,,,,,1,,,,73,0
15774,note_on,7,0,3,,,,,,,,,2,,,,73,0
15775,control_change,8,0,12,,,,,,,,,11,11,93,,,
15778,control_change,18,0,13,,,,,,,,,12,11,93,,,
15778,note_on,3,0,12,,,,,,,,,11,,,,73,0
15779,note_on,7,0,4,,,,,,,,,3,,,,61,0
15780,set_tempo,60,1,0,,,,,,1071429,,,,,,,,
15780,note_on,7,0,11,,,,,,,,,10,,,,81,112
15780,control_change,18,0,14,,,,,,,,,13,11,93,,,
15781,note_on,0,0,1,,,,,,,,,0,,,,81,101
15781,note_on,8,0,1,,,,,,,,,0,,,,75,101
15782,note_on,8,0,2,,,,,,,,,1,,,,75,100
15782,note_on,8,0,3,,,,,,,,,2,,,,75,101
15782,note_on,0,0,3,,,,,,,,,2,,,,69,101
15782,note_on,4,0,12,,,,,,,,,11,,,,75,112
15782,control_change,18,0,15,,,,,,,,,14,11,93,,,
15782,note_on,0,0,2,,,,,,,,,1,,,,81,100
15787,note_on,0,0,4,,,,,,,,,3,,,,63,100
15787,note_on,8,0,4,,,,,,,,,3,,,,57,100
15791,control_change,11,0,11,,,,,,,,,10,11,90,,,
15793,control_change,11,0,12,,,,,,,,,11,11,90,,,
15796,control_change,18,0,13,,,,,,,,,12,11,90,,,
15798,control_change,18,0,14,,,,,,,,,13,11,90,,,
15800,control_change,18,0,15,,,,,,,,,14,11,90,,,
15809,control_change,18,0,11,,,,,,,,,10,11,87,,,
15810,note_on,1,0,11,,,,,,,,,10,,,,81,0
15811,note_on,0,0,1,,,,,,,,,0,,,,75,0
15811,control_change,18,0,12,,,,,,,,,11,11,87,,,
15811,note_on,30,0,1,,,,,,,,,0,,,,81,0
15812,note_on,30,0,2,,,,,,,,,1,,,,81,0
15812,note_on,1,0,12,,,,,,,,,11,,,,75,0
15812,note_on,30,0,3,,,,,,,,,2,,,,69,0
15812,note_on,0,0,3,,,,,,,,,2,,,,75,0
15812,note_on,0,0,2,,,,,,,,,1,,,,75,0
15814,control_change,18,0,13,,,,,,,,,12,11,87,,,
15816,control_change,18,0,14,,,,,,,,,13,11,87,,,
15817,note_on,30,0,4,,,,,,,,,3,,,,63,0
15817,note_on,0,0,4,,,,,,,,,3,,,,57,0
15818,control_change,18,0,15,,,,,,,,,14,11,87,,,
15826,note_on,15,0,1,,,,,,,,,0,,,,78,101
15827,control_change,17,0,11,,,,,,,,,10,11,85,,,
15827,note_on,15,0,12,,,,,,,,,11,,,,78,112
15827,note_on,15,0,3,,,,,,,,,2,,,,78,101
15827,note_on,15,0,2,,,,,,,,,1,,,,78,100
15829,control_change,2,0,12,,,,,,,,,11,11,85,,,
15832,note_on,15,0,4,,,,,,,,,3,,,,66,100
15832,control_change,18,0,13,,,,,,,,,12,11,85,,,
15833,note_on,7,0,1,,,,,,,,,0,,,,78,0
15834,note_on,7,0,2,,,,,,,,,1,,,,78,0
15834,control_change,18,0,14,,,,,,,,,13,11,85,,,
15834,note_on,7,0,3,,,,,,,,,2,,,,78,0
15836,control_change,18,0,15,,,,,,,,,14,11,85,,,
15838,note_on,9,0,12,,,,,,,,,11,,,,78,0
15839,note_on,7,0,4,,,,,,,,,3,,,,66,0
15840,set_tempo,60,1,0,,,,,,1121495,,,,,,,,
15840,note_on,13,0,11,,,,,,,,,10,,,,79,112
15841,note_on,0,0,1,,,,,,,,,0,,,,79,101
15841,note_on,0,0,1,,,,,,,,,0,,,,76,101
15841,control_change,8,0,1,,,,,,,,,0,11,75,,,
15842,note_on,4,0,12,,,,,,,,,11,,,,76,112
15842,note_on,0,0,3,,,,,,,,,2,,,,67,101
15842,note_on,0,0,2,,,,,,,,,1,,,,79,100
15842,note_on,0,0,2,,,,,,,,,1,,,,76,100
15842,control_change,8,0,2,,,,,,,,,1,11,75,,,
15842,note_on,0,0,3,,,,,,,,,2,,,,76,101
15842,control_change,8,0,3,,,,,,,,,2,11,75,,,
15845,note_on,13,0,13,,,,,,,,,12,,,,59,0
15845,note_on,0,0,13,,,,,,,,,12,,,,71,112
15847,control_change,8,0,4,,,,,,,,,3,11,82,,,
15847,note_on,0,0,4,,,,,,,,,3,,,,55,100
15847,note_on,0,0,4,,,,,,,,,3,,,,64,100
15847,note_on,0,0,14,,,,,,,,,13,,,,64,112
15847,note_on,13,0,14,,,,,,,,,13,,,,59,0
15849,note_on,0,0,15,,,,,,,,,14,,,,52,112
15849,note_on,13,0,15,,,,,,,,,14,,,,47,0
15851,control_change,11,0,11,,,,,,,,,10,11,84,,,
15853,control_change,11,0,12,,,,,,,,,11,11,84,,,
15856,control_change,11,0,13,,,,,,,,,12,11,84,,,
15858,control_change,11,0,14,,,,,,,,,13,11,84,,,
15860,control_change,11,0,15,,,,,,,,,14,11,84,,,
15864,control_change,23,0,1,,,,,,,,,0,11,77,,,
15865,control_change,23,0,2,,,,,,,,,1,11,77,,,
15865,control_change,23,0,3,,,,,,,,,2,11,77,,,
15870,control_change,23,0,4,,,,,,,,,3,11,84,,,
15870,note_on,19,0,11,,,,,,,,,10,,,,79,0
15871,note_on,7,0,1,,,,,,,,,0,,,,76,0
15871,note_on,0,0,1,,,,,,,,,0,,,,79,0
15872,note_on,19,0,12,,,,,,,,,11,,,,76,0
15872,note_on,0,0,3,,,,,,,,,2,,,,76,0
15872,note_on,7,0,3,,,,,,,,,2,,,,67,0
15872,note_on,7,0,2,,,,,,,,,1,,,,76,0
15872,note_on,0,0,2,,,,,,,,,1,,,,79,0
15875,control_change,5,0,11,,,,,,,,,10,11,86,,,
15875,note_on,19,0,13,,,,,,,,,12,,,,71,0
15877,control_change,5,0,12,,,,,,,,,11,11,86,,,
15877,note_on,19,0,14,,,,,,,,,13,,,,64,0
15877,note_on,0,0,4,,,,,,,,,3,,,,55,0
15877,note_on,7,0,4,,,,,,,,,3,,,,64,0
15879,note_on,19,0,15,,,,,,,,,14,,,,52,0
15880,control_change,5,0,13,,,,,,,,,12,11,86,,,
15882,control_change,5,0,14,,,,,,,,,13,11,86,,,
15884,control_change,5,0,15,,,,,,,,,14,11,86,,,
15888,control_change,17,0,1,,,,,,,,,0,11,78,,,
15889,control_change,17,0,3,,,,,,,,,2,11,78,,,
15889,control_change,17,0,2,,,,,,,,,1,11,78,,,
15894,control_change,17,0,4,,,,,,,,,3,11,86,,,
15899,control_change,24,0,11,,,,,,,,,10,11,87,,,
15900,note_on,1,0,11,,,,,,,,,10,,,,81,112
15901,note_on,0,0,1,,,,,,,,,0,,,,78,101
15901,note_on,13,0,1,,,,,,,,,0,,,,81,101
15901,control_change,24,0,12,,,,,,,,,11,11,87,,,
15902,note_on,13,0,3,,,,,,,,,2,,,,69,101
15902,note_on,0,0,3,,,,,,,,,2,,,,66,101
15902,note_on,13,0,2,,,,,,,,,1,,,,69,100
15902,note_on,0,0,2,,,,,,,,,1,,,,74,100
15902,note_on,1,0,12,,,,,,,,,11,,,,78,112
15904,control_change,24,0,13,,,,,,,,,12,11,87,,,
15905,note_on,1,0,13,,,,,,,,,12,,,,74,112
15906,control_change,24,0,14,,,,,,,,,13,11,87,,,
15907,note_on,1,0,14,,,,,,,,,13,,,,62,112
15907,note_on,13,0,4,,,,,,,,,3,,,,66,100
15907,note_on,0,0,4,,,,,,,,,3,,,,62,100
15908,control_change,24,0,15,,,,,,,,,14,11,87,,,
15909,note_on,1,0,15,,,,,,,,,14,,,,50,112
15912,control_change,11,0,1,,,,,,,,,0,11,80,,,
15913,control_change,11,0,3,,,,,,,,,2,11,80,,,
15913,control_change,11,0,2,,,,,,,,,1,11,80,,,
15918,control_change,11,0,4,,,,,,,,,3,11,88,,,
15923,control_change,23,0,11,,,,,,,,,10,11,89,,,
15925,control_change,23,0,12,,,,,,,,,11,11,89,,,
15928,control_change,23,0,13,,,,,,,,,12,11,89,,,
15930,control_change,23,0,14,,,,,,,,,13,11,89,,,
15930,note_on,7,0,11,,,,,,,,,10,,,,81,0
15931,note_on,19,0,1,,,,,,,,,0,,,,78,0
15931,note_on,0,0,1,,,,,,,,,0,,,,81,0
15932,note_on,19,0,3,,,,,,,,,2,,,,66,0
15932,note_on,0,0,3,,,,,,,,,2,,,,69,0
15932,note_on,19,0,2,,,,,,,,,1,,,,74,0
15932,control_change,23,0,15,,,,,,,,,14,11,89,,,
15932,note_on,7,0,12,,,,,,,,,11,,,,78,0
15932,note_on,0,0,2,,,,,,,,,1,,,,69,0
15935,note_on,7,0,13,,,,,,,,,12,,,,74,0
15936,control_change,5,0,1,,,,,,,,,0,11,81,,,
15937,control_change,5,0,2,,,,,,,,,1,11,81,,,
15937,note_on,0,0,4,,,,,,,,,3,,,,66,0
15937,note_on,19,0,4,,,,,,,,,3,,,,62,0
15937,control_change,5,0,3,,,,,,,,,2,11,81,,,
15937,note_on,7,0,14,,,,,,,,,13,,,,62,0
15939,note_on,7,0,15,,,,,,,,,14,,,,50,0
15942,control_change,5,0,4,,,,,,,,,3,11,90,,,
15947,control_change,17,0,11,,,,,,,,,10,11,91,,,
15949,control_change,17,0,12,,,,,,,,,11,11,91,,,
15952,control_change,17,0,13,,,,,,,,,12,11,91,,,
15954,control_change,17,0,14,,,,,,,,,13,11,91,,,
15956,control_change,17,0,15,,,,,,,,,14,11,91,,,
15960,control_change,24,0,1,,,,,,,,,0,11,83,,,
15960,note_on,13,0,11,,,,,,,,,10,,,,83,112
15961,note_on,0,0,1,,,,,,,,,0,,,,79,101
15961,note_on,1,0,1,,,,,,,,,0,,,,83,101
15961,control_change,24,0,3,,,,,,,,,2,11,83,,,
15961,control_change,24,0,2,,,,,,,,,1,11,83,,,
15962,note_on,13,0,12,,,,,,,,,11,,,,79,112
15962,note_on,0,0,2,,,,,,,,,1,,,,71,100
15962,note_on,1,0,3,,,,,,,,,2,,,,71,101
15962,note_on,0,0,3,,,,,,,,,2,,,,67,101
15962,note_on,1,0,2,,,,,,,,,1,,,,74,100
15965,note_on,13,0,13,,,,,,,,,12,,,,74,112
15966,control_change,24,0,4,,,,,,,,,3,11,92,,,
15967,note_on,0,0,4,,,,,,,,,3,,,,62,100
15967,note_on,1,0,4,,,,,,,,,3,,,,67,100
15967,note_on,13,0,14,,,,,,,,,13,,,,55,112
15969,note_on,13,0,15,,,,,,,,,14,,,,43,112
15971,control_change,11,0,11,,,,,,,,,10,11,93,,,
15973,control_change,11,0,12,,,,,,,,,11,11,93,,,
15976,control_change,11,0,13,,,,,,,,,12,11,93,,,
15978,control_change,11,0,14,,,,,,,,,13,11,93,,,
15980,control_change,11,0,15,,,,,,,,,14,11,93,,,
15984,control_change,23,0,1,,,,,,,,,0,11,85,,,
15985,control_change,23,0,2,,,,,,,,,1,11,85,,,
15985,control_change,23,0,3,,,,,,,,,2,11,85,,,
15990,note_on,19,0,11,,,,,,,,,10,,,,83,0
15990,control_change,23,0,4,,,,,,,,,3,11,94,,,
15991,note_on,7,0,1,,,,,,,,,0,,,,79,0
15991,note_on,0,0,1,,,,,,,,,0,,,,83,0
15992,note_on,7,0,2,,,,,,,,,1,,,,71,0
15992,note_on,0,0,2,,,,,,,,,1,,,,74,0
15992,note_on,0,0,3,,,,,,,,,2,,,,71,0
15992,note_on,19,0,12,,,,,,,,,11,,,,79,0
15992,note_on,7,0,3,,,,,,,,,2,,,,67,0
15995,control_change,5,0,11,,,,,,,,,10,11,95,,,
15995,note_on,19,0,13,,,,,,,,,12,,,,74,0
15997,note_on,0,0,4,,,,,,,,,3,,,,67,0
15997,note_on,7,0,4,,,,,,,,,3,,,,62,0
15997,note_on,19,0,14,,,,,,,,,13,,,,55,0
15997,control_change,5,0,12,,,,,,,,,11,11,95,,,
15999,note_on,19,0,15,,,,,,,,,14,,,,43,0
16000,control_change,5,0,13,,,,,,,,,12,11,95,,,
16002,control_change,5,0,14,,,,,,,,,13,11,95,,,
16004,control_change,5,0,15,,,,,,,,,14,11,95,,,
16008,control_change,17,0,1,,,,,,,,,0,11,86,,,
16009,control_change,17,0,2,,,,,,,,,1,11,86,,,
16009,control_change,17,0,3,,,,,,,,,2,11,86,,,
16014,control_change,17,0,4,,,,,,,,,3,11,96,,,
16019,control_change,24,0,11,,,,,,,,,10,11,97,,,
16020,note_on,1,0,11,,,,,,,,,10,,,,85,112
16021,control_change,24,0,12,,,,,,,,,11,11,97,,,
16021,note_on,13,0,1,,,,,,,,,0,,,,85,101
16021,note_on,0,0,1,,,,,,,,,0,,,,82,101
16022,note_on,13,0,3,,,,,,,,,2,,,,73,101
16022,note_on,0,0,2,,,,,,,,,1,,,,73,100
16022,note_on,1,0,12,,,,,,,,,11,,,,73,112
16022,note_on,0,0,3,,,,,,,,,2,,,,70,101
16022,note_on,13,0,2,,,,,,,,,1,,,,78,100
16024,control_change,24,0,13,,,,,,,,,12,11,97,,,
16025,note_on,1,0,13,,,,,,,,,12,,,,70,112
16026,control_change,24,0,14,,,,,,,,,13,11,97,,,
16027,note_on,1,0,14,,,,,,,,,13,,,,54,112
16027,note_on,13,0,4,,,,,,,,,3,,,,66,100
16028,control_change,24,0,15,,,,,,,,,14,11,97,,,
16029,note_on,1,0,15,,,,,,,,,14,,,,42,112
16032,control_change,11,0,1,,,,,,,,,0,11,88,,,
16033,control_change,11,0,2,,,,,,,,,1,11,88,,,
16033,control_change,11,0,3,,,,,,,,,2,11,88,,,
16038,control_change,11,0,4,,,,,,,,,3,11,98,,,
16043,control_change,23,0,11,,,,,,,,,10,11,99,,,
16045,control_change,23,0,12,,,,,,,,,11,11,99,,,
16048,control_change,23,0,13,,,,,,,,,12,11,99,,,
16050,control_change,23,0,14,,,,,,,,,13,11,99,,,
16050,note_on,7,0,11,,,,,,,,,10,,,,85,0
16051,note_on,0,0,1,,,,,,,,,0,,,,85,0
16051,note_on,19,0,1,,,,,,,,,0,,,,82,0
16052,note_on,19,0,3,,,,,,,,,2,,,,70,0
16052,note_on,0,0,3,,,,,,,,,2,,,,73,0
16052,note_on,0,0,2,,,,,,,,,1,,,,78,0
16052,note_on,19,0,2,,,,,,,,,1,,,,73,0
16052,control_change,23,0,15,,,,,,,,,14,11,99,,,
16052,note_on,7,0,12,,,,,,,,,11,,,,73,0
16055,note_on,7,0,13,,,,,,,,,12,,,,70,0
16056,control_change,5,0,1,,,,,,,,,0,11,89,,,
16057,control_change,5,0,3,,,,,,,,,2,11,89,,,
16057,note_on,7,0,14,,,,,,,,,13,,,,54,0
16057,control_change,5,0,2,,,,,,,,,1,11,89,,,
16057,note_on,19,0,4,,,,,,,,,3,,,,66,0
16059,note_on,7,0,15,,,,,,,,,14,,,,42,0
16062,control_change,5,0,4,,,,,,,,,3,11,100,,,
16067,control_change,17,0,11,,,,,,,,,10,11,101,,,
16069,control_change,17,0,12,,,,,,,,,11,11,101,,,
16072,control_change,17,0,13,,,,,,,,,12,11,101,,,
16074,control_change,17,0,14,,,,,,,,,13,11,101,,,
16076,control_change,17,0,15,,,,,,,,,14,11,101,,,
16080,control_change,24,0,1,,,,,,,,,0,11,91,,,
16080,note_on,13,0,11,,,,,,,,,10,,,,87,112
16080,set_tempo,240,1,0,,,,,,1165049,,,,,,,,
16081,control_change,24,0,3,,,,,,,,,2,11,91,,,
16081,control_change,24,0,2,,,,,,,,,1,11,91,,,
16082,note_on,0,0,7,,,,,,,,,6,,,,69,112
16082,note_on,13,0,12,,,,,,,,,11,,,,78,112
16082,note_on,1146,0,7,,,,,,,,,6,,,,57,112
16085,note_on,13,0,13,,,,,,,,,12,,,,69,112
16086,control_change,24,0,4,,,,,,,,,3,11,102,,,
16087,note_on,13,0,14,,,,,,,,,13,,,,47,112
16088,note_on,1140,0,10,,,,,,,,,15,,,,45,72
16089,note_on,13,0,15,,,,,,,,,14,,,,35,112
16095,note_on,7,0,10,,,,,,,,,15,,,,45,72
16096,note_on,1,0,10,,,,,,,,,15,,,,45,0
16103,note_on,0,0,10,,,,,,,,,15,,,,45,72
16103,note_on,7,0,10,,,,,,,,,15,,,,45,0
16110,note_on,7,0,10,,,,,,,,,15,,,,45,72
16111,note_on,1,0,10,,,,,,,,,15,,,,45,0
16118,note_on,7,0,10,,,,,,,,,15,,,,45,0
16118,note_on,0,0,10,,,,,,,,,15,,,,45,72
16125,note_on,7,0,10,,,,,,,,,15,,,,45,72
16126,note_on,1,0,10,,,,,,,,,15,,,,45,0
16133,note_on,0,0,10,,,,,,,,,15,,,,45,72
16133,note_on,7,0,10,,,,,,,,,15,,,,45,0
16140,note_on,7,0,10,,,,,,,,,15,,,,45,72
16140,set_tempo,60,1,0,,,,,,1071429,,,,,,,,
16141,note_on,1,0,10,,,,,,,,,15,,,,45,0
16148,note_on,0,0,10,,,,,,,,,15,,,,45,72
16148,note_on,7,0,10,,,,,,,,,15,,,,45,0
16155,note_on,7,0,10,,,,,,,,,15,,,,45,72
16156,note_on,1,0,10,,,,,,,,,15,,,,45,0
16163,note_on,0,0,10,,,,,,,,,15,,,,45,72
16163,note_on,7,0,10,,,,,,,,,15,,,,45,0
16170,note_on,7,0,10,,,,,,,,,15,,,,45,72
16171,note_on,1,0,10,,,,,,,,,15,,,,45,0
16178,note_on,7,0,10,,,,,,,,,15,,,,45,0
16178,note_on,0,0,10,,,,,,,,,15,,,,45,72
16185,note_on,7,0,10,,,,,,,,,15,,,,45,72
16186,note_on,1,0,10,,,,,,,,,15,,,,45,0
16193,note_on,0,0,10,,,,,,,,,15,,,,45,72
16193,note_on,7,0,10,,,,,,,,,15,,,,45,0
16200,set_tempo,60,1,0,,,,,,1142857,,,,,,,,
16200,note_on,7,0,10,,,,,,,,,15,,,,45,72
16201,note_on,0,0,1,,,,,,,,,0,,,,81,101
16201,control_change,121,0,1,,,,,,,,,0,11,91,,,
16201,note_on,1,0,10,,,,,,,,,15,,,,45,0
16201,note_on,0,0,1,,,,,,,,,0,,,,87,101
16202,control_change,121,0,3,,,,,,,,,2,11,91,,,
16202,note_on,0,0,3,,,,,,,,,2,,,,69,101
16202,note_on,0,0,3,,,,,,,,,2,,,,66,101
16202,note_on,0,0,2,,,,,,,,,1,,,,75,100
16202,note_on,0,0,2,,,,,,,,,1,,,,78,100
16202,control_change,121,0,2,,,,,,,,,1,11,91,,,
16204,note_on,0,0,8,,,,,,,,,7,,,,63,120
16204,note_on,0,0,8,,,,,,,,,7,,,,57,120
16204,control_change,1266,0,8,,,,,,,,,7,11,120,,,
16206,note_on,0,0,9,,,,,,,,,8,,,,47,120
16206,control_change,1266,0,9,,,,,,,,,8,11,120,,,
16207,control_change,121,0,4,,,,,,,,,3,11,102,,,
16207,note_on,0,0,4,,,,,,,,,3,,,,59,100
16207,note_on,0,0,4,,,,,,,,,3,,,,63,100
16208,note_on,0,0,10,,,,,,,,,15,,,,45,72
16208,note_on,7,0,10,,,,,,,,,15,,,,45,0
16208,control_change,7,0,1,,,,,,,,,0,11,88,,,
16209,control_change,7,0,3,,,,,,,,,2,11,88,,,
16209,control_change,7,0,2,,,,,,,,,1,11,88,,,
16214,control_change,7,0,4,,,,,,,,,3,11,99,,,
16222,control_change,8,0,4,,,,,,,,,3,11,96,,,
16223,control_change,15,0,1,,,,,,,,,0,11,84,,,
16224,control_change,15,0,3,,,,,,,,,2,11,84,,,
16224,control_change,15,0,2,,,,,,,,,1,11,84,,,
16229,control_change,7,0,4,,,,,,,,,3,11,93,,,
16231,control_change,8,0,1,,,,,,,,,0,11,81,,,
16232,control_change,8,0,3,,,,,,,,,2,11,81,,,
16232,control_change,8,0,2,,,,,,,,,1,11,81,,,
16237,control_change,8,0,4,,,,,,,,,3,11,90,,,
16244,control_change,7,0,4,,,,,,,,,3,11,87,,,
16246,control_change,15,0,1,,,,,,,,,0,11,77,,,
16247,control_change,15,0,3,,,,,,,,,2,11,77,,,
16247,control_change,15,0,2,,,,,,,,,1,11,77,,,
16252,control_change,8,0,4,,,,,,,,,3,11,84,,,
16260,set_tempo,60,1,0,,,,,,1071429,,,,,,,,
16268,note_on,60,0,10,,,,,,,,,15,,,,45,0
16305,note_on,225,0,11,,,,,,,,,10,,,,87,0
16307,note_on,225,0,12,,,,,,,,,11,,,,78,0
16310,note_on,225,0,13,,,,,,,,,12,,,,69,0
16312,note_on,0,0,7,,,,,,,,,6,,,,57,0
16312,note_on,230,0,7,,,,,,,,,6,,,,69,0
16312,note_on,225,0,14,,,,,,,,,13,,,,47,0
16314,note_on,225,0,15,,,,,,,,,14,,,,35,0
16320,note_on,15,0,11,,,,,,,,,10,,,,88,112
16320,set_tempo,60,1,0,,,,,,1165049,,,,,,,,
16321,note_on,0,0,1,,,,,,,,,0,,,,87,0
16321,note_on,75,0,1,,,,,,,,,0,,,,81,0
16322,note_on,0,0,2,,,,,,,,,1,,,,78,0
16322,note_on,15,0,12,,,,,,,,,11,,,,81,112
16322,note_on,75,0,2,,,,,,,,,1,,,,75,0
16322,note_on,10,0,7,,,,,,,,,6,,,,57,112
16322,note_on,0,0,7,,,,,,,,,6,,,,69,112
16322,note_on,75,0,3,,,,,,,,,2,,,,66,0
16322,note_on,0,0,3,,,,,,,,,2,,,,69,0
16324,note_on,0,0,8,,,,,,,,,7,,,,57,0
16324,note_on,120,0,8,,,,,,,,,7,,,,63,0
16325,note_on,15,0,13,,,,,,,,,12,,,,72,112
16326,note_on,120,0,9,,,,,,,,,8,,,,47,0
16327,note_on,75,0,4,,,,,,,,,3,,,,63,0
16327,note_on,0,0,4,,,,,,,,,3,,,,59,0
16327,note_on,15,0,14,,,,,,,,,13,,,,45,112
16328,note_on,60,0,10,,,,,,,,,15,,,,45,72
16329,note_on,15,0,15,,,,,,,,,14,,,,33,112
16335,note_on,7,0,10,,,,,,,,,15,,,,45,72
16336,note_on,1,0,10,,,,,,,,,15,,,,45,0
16343,note_on,7,0,10,,,,,,,,,15,,,,45,0
16343,note_on,0,0,10,,,,,,,,,15,,,,45,72
16350,note_on,7,0,10,,,,,,,,,15,,,,45,72
16351,note_on,1,0,10,,,,,,,,,15,,,,45,0
16358,note_on,7,0,10,,,,,,,,,15,,,,45,0
16358,note_on,0,0,10,,,,,,,,,15,,,,45,72
16365,note_on,7,0,10,,,,,,,,,15,,,,45,72
16366,note_on,1,0,10,,,,,,,,,15,,,,45,0
16373,note_on,7,0,10,,,,,,,,,15,,,,45,0
16373,note_on,0,0,10,,,,,,,,,15,,,,45,72
16380,note_on,7,0,10,,,,,,,,,15,,,,45,72
16380,set_tempo,60,1,0,,,,,,1071429,,,,,,,,
16381,note_on,1,0,10,,,,,,,,,15,,,,45,0
16388,note_on,0,0,10,,,,,,,,,15,,,,45,72
16388,note_on,7,0,10,,,,,,,,,15,,,,45,0
16395,note_on,7,0,10,,,,,,,,,15,,,,45,72
16396,note_on,1,0,10,,,,,,,,,15,,,,45,0
16403,note_on,7,0,10,,,,,,,,,15,,,,45,0
16403,note_on,0,0,10,,,,,,,,,15,,,,45,72
16410,note_on,7,0,10,,,,,,,,,15,,,,45,72
16411,note_on,1,0,10,,,,,,,,,15,,,,45,0
16418,note_on,0,0,10,,,,,,,,,15,,,,45,72
16418,note_on,7,0,10,,,,,,,,,15,,,,45,0
16425,note_on,7,0,10,,,,,,,,,15,,,,45,72
16426,note_on,1,0,10,,,,,,,,,15,,,,45,0
16433,note_on,0,0,10,,,,,,,,,15,,,,45,72
16433,note_on,7,0,10,,,,,,,,,15,,,,45,0
16440,set_tempo,60,1,0,,,,,,1142857,,,,,,,,
16440,note_on,7,0,10,,,,,,,,,15,,,,45,72
16441,note_on,1,0,10,,,,,,,,,15,,,,45,0
16441,control_change,720,0,5,,,,,,,,,4,11,102,,,
16441,note_on,0,0,5,,,,,,,,,4,,,,64,100
16441,note_on,0,0,1,,,,,,,,,0,,,,84,101
16441,note_on,0,0,1,,,,,,,,,0,,,,88,101
16441,control_change,120,0,1,,,,,,,,,0,11,91,,,
16442,note_on,0,0,3,,,,,,,,,2,,,,69,101
16442,note_on,0,0,2,,,,,,,,,1,,,,81,100
16442,control_change,120,0,2,,,,,,,,,1,11,91,,,
16442,note_on,0,0,2,,,,,,,,,1,,,,76,100
16442,note_on,0,0,3,,,,,,,,,2,,,,72,101
16442,control_change,120,0,3,,,,,,,,,2,11,91,,,
16443,note_on,0,0,6,,,,,,,,,5,,,,60,100
16443,control_change,720,0,6,,,,,,,,,5,11,102,,,
16444,note_on,0,0,8,,,,,,,,,7,,,,64,120
16444,note_on,120,0,8,,,,,,,,,7,,,,60,120
16446,note_on,120,0,9,,,,,,,,,8,,,,45,120
16447,control_change,120,0,4,,,,,,,,,3,11,102,,,
16447,note_on,0,0,4,,,,,,,,,3,,,,64,100
16447,note_on,0,0,4,,,,,,,,,3,,,,60,100
16448,note_on,7,0,10,,,,,,,,,15,,,,45,0
16448,control_change,7,0,5,,,,,,,,,4,11,99,,,
16448,control_change,7,0,1,,,,,,,,,0,11,88,,,
16448,note_on,0,0,10,,,,,,,,,15,,,,45,72
16449,control_change,7,0,3,,,,,,,,,2,11,88,,,
16449,control_change,7,0,2,,,,,,,,,1,11,88,,,
16450,control_change,7,0,6,,,,,,,,,5,11,99,,,
16454,control_change,7,0,4,,,,,,,,,3,11,99,,,
16456,control_change,8,0,5,,,,,,,,,4,11,96,,,
16458,control_change,8,0,6,,,,,,,,,5,11,96,,,
16462,control_change,8,0,4,,,,,,,,,3,11,96,,,
16463,control_change,15,0,1,,,,,,,,,0,11,84,,,
16463,control_change,7,0,5,,,,,,,,,4,11,93,,,
16464,control_change,15,0,2,,,,,,,,,1,11,84,,,
16464,control_change,15,0,3,,,,,,,,,2,11,84,,,
16465,control_change,7,0,6,,,,,,,,,5,11,93,,,
16469,control_change,7,0,4,,,,,,,,,3,11,93,,,
16471,control_change,8,0,5,,,,,,,,,4,11,90,,,
16471,control_change,8,0,1,,,,,,,,,0,11,81,,,
16472,control_change,8,0,2,,,,,,,,,1,11,81,,,
16472,control_change,8,0,3,,,,,,,,,2,11,81,,,
16473,control_change,8,0,6,,,,,,,,,5,11,90,,,
16477,control_change,8,0,4,,,,,,,,,3,11,90,,,
16478,control_change,7,0,5,,,,,,,,,4,11,87,,,
16480,control_change,7,0,6,,,,,,,,,5,11,87,,,
16484,control_change,7,0,4,,,,,,,,,3,11,87,,,
16486,control_change,15,0,1,,,,,,,,,0,11,77,,,
16486,control_change,8,0,5,,,,,,,,,4,11,84,,,
16487,control_change,15,0,3,,,,,,,,,2,11,77,,,
16487,control_change,15,0,2,,,,,,,,,1,11,77,,,
16488,control_change,8,0,6,,,,,,,,,5,11,84,,,
16492,control_change,8,0,4,,,,,,,,,3,11,84,,,
16500,set_tempo,60,1,0,,,,,,1071429,,,,,,,,
16508,note_on,60,0,10,,,,,,,,,15,,,,45,0
16545,note_on,225,0,11,,,,,,,,,10,,,,88,0
16547,note_on,225,0,12,,,,,,,,,11,,,,81,0
16550,note_on,225,0,13,,,,,,,,,12,,,,72,0
16552,note_on,230,0,7,,,,,,,,,6,,,,69,0
16552,note_on,225,0,14,,,,,,,,,13,,,,45,0
16552,note_on,0,0,7,,,,,,,,,6,,,,57,0
16554,note_on,225,0,15,,,,,,,,,14,,,,33,0
16560,control_change,15,0,11,,,,,,,,,10,11,102,,,
16560,note_on,0,0,11,,,,,,,,,10,,,,89,112
16560,set_tempo,60,1,0,,,,,,1121495,,,,,,,,
16561,control_change,0,0,1,,,,,,,,,0,11,91,,,
16561,note_on,0,0,1,,,,,,,,,0,,,,86,101
16561,note_on,0,0,1,,,,,,,,,0,,,,89,101
16561,note_on,0,0,1,,,,,,,,,0,,,,88,0
16561,note_on,75,0,1,,,,,,,,,0,,,,84,0
16561,note_on,75,0,5,,,,,,,,,4,,,,64,0
16561,note_on,0,0,5,,,,,,,,,4,,,,65,100
16562,control_change,15,0,12,,,,,,,,,11,11,102,,,
16562,note_on,0,0,12,,,,,,,,,11,,,,74,112
16562,note_on,0,0,12,,,,,,,,,11,,,,81,112
16562,note_on,0,0,2,,,,,,,,,1,,,,81,0
16562,note_on,0,0,2,,,,,,,,,1,,,,77,100
16562,control_change,0,0,2,,,,,,,,,1,11,91,,,
16562,note_on,75,0,2,,,,,,,,,1,,,,76,0
16562,note_on,10,0,7,,,,,,,,,6,,,,69,122
16562,note_on,0,0,2,,,,,,,,,1,,,,81,100
16562,note_on,0,0,7,,,,,,,,,6,,,,57,122
16562,note_on,0,0,12,,,,,,,,,11,,,,65,112
16562,note_on,75,0,3,,,,,,,,,2,,,,69,0
16562,note_on,0,0,3,,,,,,,,,2,,,,72,0
16562,note_on,0,0,3,,,,,,,,,2,,,,77,101
16562,note_on,0,0,3,,,,,,,,,2,,,,74,101
16563,note_on,0,0,6,,,,,,,,,5,,,,62,100
16563,note_on,75,0,6,,,,,,,,,5,,,,60,0
16564,note_on,0,0,8,,,,,,,,,7,,,,60,0
16564,note_on,120,0,8,,,,,,,,,7,,,,64,0
16564,note_on,0,0,8,,,,,,,,,7,,,,65,120
16564,note_on,0,0,8,,,,,,,,,7,,,,57,120
16564,control_change,0,0,8,,,,,,,,,7,11,102,,,
16565,control_change,15,0,13,,,,,,,,,12,11,102,,,
16565,note_on,0,0,13,,,,,,,,,12,,,,74,112
16565,note_on,0,0,13,,,,,,,,,12,,,,65,112
16565,note_on,0,0,13,,,,,,,,,12,,,,57,112
16565,note_on,0,0,13,,,,,,,,,12,,,,50,112
16566,note_on,0,0,9,,,,,,,,,8,,,,50,120
16566,control_change,0,0,9,,,,,,,,,8,11,102,,,
16566,note_on,120,0,9,,,,,,,,,8,,,,45,0
16567,control_change,7,0,11,,,,,,,,,10,11,99,,,
16567,note_on,0,0,4,,,,,,,,,3,,,,64,0
16567,note_on,75,0,4,,,,,,,,,3,,,,60,0
16567,control_change,15,0,14,,,,,,,,,13,11,102,,,
16567,note_on,0,0,14,,,,,,,,,13,,,,50,112
16567,note_on,0,0,4,,,,,,,,,3,,,,65,100
16567,note_on,0,0,4,,,,,,,,,3,,,,62,100
16568,control_change,7,0,1,,,,,,,,,0,11,88,,,
16568,note_on,60,0,10,,,,,,,,,15,,,,45,85
16569,note_on,0,0,15,,,,,,,,,14,,,,38,112
16569,control_change,7,0,2,,,,,,,,,1,11,88,,,
16569,control_change,15,0,15,,,,,,,,,14,11,102,,,
16569,control_change,7,0,12,,,,,,,,,11,11,99,,,
16571,control_change,7,0,8,,,,,,,,,7,11,99,,,
16572,control_change,7,0,13,,,,,,,,,12,11,99,,,
16573,control_change,7,0,9,,,,,,,,,8,11,99,,,
16574,control_change,7,0,14,,,,,,,,,13,11,99,,,
16575,control_change,8,0,11,,,,,,,,,10,11,96,,,
16576,control_change,7,0,15,,,,,,,,,14,11,99,,,
16577,control_change,8,0,12,,,,,,,,,11,11,96,,,
16579,control_change,8,0,8,,,,,,,,,7,11,96,,,
16580,control_change,8,0,13,,,,,,,,,12,11,96,,,
16581,control_change,8,0,9,,,,,,,,,8,11,96,,,
16582,control_change,8,0,14,,,,,,,,,13,11,96,,,
16582,control_change,7,0,11,,,,,,,,,10,11,93,,,
16583,control_change,15,0,1,,,,,,,,,0,11,84,,,
16584,control_change,7,0,12,,,,,,,,,11,11,93,,,
16584,control_change,8,0,15,,,,,,,,,14,11,96,,,
16584,control_change,15,0,2,,,,,,,,,1,11,84,,,
16586,control_change,7,0,8,,,,,,,,,7,11,93,,,
16587,control_change,7,0,13,,,,,,,,,12,11,93,,,
16588,control_change,7,0,9,,,,,,,,,8,11,93,,,
16589,control_change,7,0,14,,,,,,,,,13,11,93,,,
16590,control_change,8,0,11,,,,,,,,,10,11,90,,,
16591,note_on,30,0,5,,,,,,,,,4,,,,65,0
16591,control_change,8,0,1,,,,,,,,,0,11,81,,,
16591,control_change,7,0,15,,,,,,,,,14,11,93,,,
16592,note_on,30,0,3,,,,,,,,,2,,,,74,0
16592,note_on,0,0,3,,,,,,,,,2,,,,77,0
16592,control_change,8,0,2,,,,,,,,,1,11,81,,,
16592,control_change,8,0,12,,,,,,,,,11,11,90,,,
16593,note_on,30,0,6,,,,,,,,,5,,,,62,0
16594,note_on,8,0,8,,,,,,,,,7,,,,57,0
16594,control_change,0,0,8,,,,,,,,,7,11,90,,,
16594,note_on,0,0,8,,,,,,,,,7,,,,65,0
16595,note_on,8,0,13,,,,,,,,,12,,,,50,0
16595,note_on,0,0,13,,,,,,,,,12,,,,74,0
16595,note_on,0,0,13,,,,,,,,,12,,,,65,0
16595,note_on,0,0,13,,,,,,,,,12,,,,57,0
16595,control_change,0,0,13,,,,,,,,,12,11,90,,,
16596,control_change,0,0,9,,,,,,,,,8,11,90,,,
16596,note_on,8,0,9,,,,,,,,,8,,,,50,0
16597,control_change,7,0,11,,,,,,,,,10,11,87,,,
16597,note_on,8,0,14,,,,,,,,,13,,,,50,0
16597,control_change,0,0,14,,,,,,,,,13,11,90,,,
16597,note_on,0,0,4,,,,,,,,,3,,,,62,0
16597,note_on,30,0,4,,,,,,,,,3,,,,65,0
16599,note_on,8,0,15,,,,,,,,,14,,,,38,0
16599,control_change,0,0,15,,,,,,,,,14,11,90,,,
16599,control_change,7,0,12,,,,,,,,,11,11,87,,,
16601,control_change,7,0,8,,,,,,,,,7,11,87,,,
16602,control_change,7,0,13,,,,,,,,,12,11,87,,,
16603,control_change,7,0,9,,,,,,,,,8,11,87,,,
16604,control_change,7,0,14,,,,,,,,,13,11,87,,,
16606,note_on,15,0,5,,,,,,,,,4,,,,64,100
16606,control_change,15,0,1,,,,,,,,,0,11,77,,,
16606,control_change,7,0,15,,,,,,,,,14,11,87,,,
16607,control_change,15,0,2,,,,,,,,,1,11,77,,,
16607,note_on,0,0,3,,,,,,,,,2,,,,76,101
16607,note_on,15,0,3,,,,,,,,,2,,,,73,101
16608,note_on,15,0,6,,,,,,,,,5,,,,64,100
16609,control_change,8,0,8,,,,,,,,,7,11,84,,,
16611,control_change,8,0,9,,,,,,,,,8,11,84,,,
16612,note_on,0,0,4,,,,,,,,,3,,,,61,100
16612,note_on,15,0,4,,,,,,,,,3,,,,64,100
16614,note_on,7,0,3,,,,,,,,,2,,,,76,0
16614,note_on,0,0,3,,,,,,,,,2,,,,73,0
16616,note_on,10,0,5,,,,,,,,,4,,,,64,0
16618,note_on,10,0,6,,,,,,,,,5,,,,64,0
16619,note_on,7,0,4,,,,,,,,,3,,,,61,0
16619,note_on,0,0,4,,,,,,,,,3,,,,64,0
16620,note_on,23,0,11,,,,,,,,,10,,,,89,0
16620,set_tempo,60,1,0,,,,,,1043478,,,,,,,,
16621,note_on,15,0,1,,,,,,,,,0,,,,86,0
16621,note_on,5,0,5,,,,,,,,,4,,,,65,100
16621,note_on,0,0,1,,,,,,,,,0,,,,89,0
16622,note_on,0,0,3,,,,,,,,,2,,,,74,101
16622,note_on,8,0,3,,,,,,,,,2,,,,77,101
16622,note_on,0,0,12,,,,,,,,,11,,,,65,0
16622,note_on,0,0,12,,,,,,,,,11,,,,74,0
16622,note_on,23,0,12,,,,,,,,,11,,,,81,0
16622,note_on,0,0,2,,,,,,,,,1,,,,81,0
16622,note_on,15,0,2,,,,,,,,,1,,,,77,0
16623,note_on,5,0,6,,,,,,,,,5,,,,62,100
16624,note_on,0,0,8,,,,,,,,,7,,,,57,110
16624,note_on,15,0,8,,,,,,,,,7,,,,65,110
16625,note_on,23,0,13,,,,,,,,,12,,,,62,112
16626,note_on,15,0,9,,,,,,,,,8,,,,50,110
16626,note_on,22,0,14,,,,,,,,,13,,,,50,112
16627,note_on,0,0,7,,,,,,,,,6,,,,69,0
16627,note_on,0,0,4,,,,,,,,,3,,,,62,100
16627,note_on,8,0,4,,,,,,,,,3,,,,65,100
16627,note_on,65,0,7,,,,,,,,,6,,,,57,0
16628,note_on,22,0,15,,,,,,,,,14,,,,38,112
16628,note_on,60,0,10,,,,,,,,,15,,,,45,0
16651,note_on,30,0,5,,,,,,,,,4,,,,65,0
16652,note_on,0,0,3,,,,,,,,,2,,,,77,0
16652,note_on,30,0,3,,,,,,,,,2,,,,74,0
16653,note_on,30,0,6,,,,,,,,,5,,,,62,0
16654,note_on,0,0,8,,,,,,,,,7,,,,65,0
16654,note_on,30,0,8,,,,,,,,,7,,,,57,0
16655,note_on,30,0,13,,,,,,,,,12,,,,62,0
16656,note_on,30,0,9,,,,,,,,,8,,,,50,0
16656,note_on,30,0,14,,,,,,,,,13,,,,50,0
16657,note_on,0,0,4,,,,,,,,,3,,,,65,0
16657,note_on,30,0,4,,,,,,,,,3,,,,62,0
16658,note_on,30,0,15,,,,,,,,,14,,,,38,0
16666,note_on,15,0,5,,,,,,,,,4,,,,67,100
16667,note_on,0,0,3,,,,,,,,,2,,,,76,101
16667,note_on,15,0,3,,,,,,,,,2,,,,79,101
16668,note_on,15,0,6,,,,,,,,,5,,,,64,100
16672,note_on,0,0,4,,,,,,,,,3,,,,67,100
16672,note_on,15,0,4,,,,,,,,,3,,,,64,100
16674,note_on,0,0,3,,,,,,,,,2,,,,79,0
16674,note_on,7,0,3,,,,,,,,,2,,,,76,0
16676,note_on,10,0,5,,,,,,,,,4,,,,67,0
16678,note_on,10,0,6,,,,,,,,,5,,,,64,0
16679,note_on,7,0,4,,,,,,,,,3,,,,67,0
16679,note_on,0,0,4,,,,,,,,,3,,,,64,0
16680,note_on,60,0,11,,,,,,,,,10,,,,74,112
16680,set_tempo,60,1,0,,,,,,1100917,,,,,,,,
16681,note_on,5,0,5,,,,,,,,,4,,,,65,100
16682,note_on,0,0,7,,,,,,,,,6,,,,57,122
16682,note_on,8,0,3,,,,,,,,,2,,,,77,101
16682,note_on,0,0,3,,,,,,,,,2,,,,74,101
16682,note_on,55,0,7,,,,,,,,,6,,,,69,122
16682,note_on,60,0,12,,,,,,,,,11,,,,62,112
16683,note_on,5,0,6,,,,,,,,,5,,,,62,100
16687,note_on,0,0,4,,,,,,,,,3,,,,62,100
16687,note_on,8,0,4,,,,,,,,,3,,,,65,100
16688,note_on,60,0,10,,,,,,,,,15,,,,45,85
16710,note_on,30,0,11,,,,,,,,,10,,,,74,0
16711,note_on,30,0,5,,,,,,,,,4,,,,65,0
16712,note_on,30,0,3,,,,,,,,,2,,,,74,0
16712,note_on,0,0,3,,,,,,,,,2,,,,77,0
16712,note_on,30,0,12,,,,,,,,,11,,,,62,0
16713,note_on,30,0,6,,,,,,,,,5,,,,62,0
16717,note_on,0,0,4,,,,,,,,,3,,,,65,0
16717,note_on,30,0,4,,,,,,,,,3,,,,62,0
16725,note_on,15,0,11,,,,,,,,,10,,,,76,112
16727,note_on,15,0,12,,,,,,,,,11,,,,64,112
16735,note_on,10,0,11,,,,,,,,,10,,,,76,0
16737,note_on,10,0,12,,,,,,,,,11,,,,64,0
16740,note_on,5,0,11,,,,,,,,,10,,,,77,112
16740,set_tempo,60,1,0,,,,,,1043478,,,,,,,,
16741,note_on,30,0,5,,,,,,,,,4,,,,65,100
16742,note_on,0,0,3,,,,,,,,,2,,,,74,101
16742,note_on,5,0,12,,,,,,,,,11,,,,65,112
16742,note_on,30,0,3,,,,,,,,,2,,,,77,101
16743,note_on,30,0,6,,,,,,,,,5,,,,62,100
16747,note_on,0,0,7,,,,,,,,,6,,,,69,0
16747,note_on,65,0,7,,,,,,,,,6,,,,57,0
16747,note_on,30,0,4,,,,,,,,,3,,,,65,100
16747,note_on,0,0,4,,,,,,,,,3,,,,62,100
16748,note_on,60,0,10,,,,,,,,,15,,,,45,0
16770,note_on,30,0,11,,,,,,,,,10,,,,77,0
16771,note_on,30,0,5,,,,,,,,,4,,,,65,0
16772,note_on,30,0,3,,,,,,,,,2,,,,74,0
16772,note_on,0,0,3,,,,,,,,,2,,,,77,0
16772,note_on,30,0,12,,,,,,,,,11,,,,65,0
16773,note_on,30,0,6,,,,,,,,,5,,,,62,0
16777,note_on,0,0,4,,,,,,,,,3,,,,65,0
16777,note_on,30,0,4,,,,,,,,,3,,,,62,0
16785,note_on,15,0,11,,,,,,,,,10,,,,79,112
16787,note_on,15,0,12,,,,,,,,,11,,,,67,112
16795,note_on,10,0,11,,,,,,,,,10,,,,79,0
16797,note_on,10,0,12,,,,,,,,,11,,,,67,0
16800,note_on,0,0,11,,,,,,,,,10,,,,69,112
16800,note_on,0,0,11,,,,,,,,,10,,,,81,112
16800,control_change,5,0,11,,,,,,,,,10,11,102,,,
16800,set_tempo,60,1,0,,,,,,1121495,,,,,,,,
16801,note_on,30,0,5,,,,,,,,,4,,,,64,110
16801,note_on,180,0,1,,,,,,,,,0,,,,84,101
16801,note_on,0,0,1,,,,,,,,,0,,,,81,101
16802,note_on,0,0,12,,,,,,,,,11,,,,57,112
16802,control_change,5,0,12,,,,,,,,,11,11,102,,,
16802,note_on,180,0,2,,,,,,,,,1,,,,69,100
16802,note_on,0,0,2,,,,,,,,,1,,,,72,100
16802,note_on,30,0,3,,,,,,,,,2,,,,76,101
16802,note_on,0,0,3,,,,,,,,,2,,,,72,101
16802,note_on,0,0,12,,,,,,,,,11,,,,69,112
16803,note_on,30,0,6,,,,,,,,,5,,,,60,110
16804,control_change,150,0,8,,,,,,,,,7,11,102,,,
16804,note_on,0,0,8,,,,,,,,,7,,,,64,120
16804,note_on,0,0,8,,,,,,,,,7,,,,60,120
16805,note_on,0,0,13,,,,,,,,,12,,,,64,112
16805,note_on,0,0,13,,,,,,,,,12,,,,57,112
16805,control_change,150,0,13,,,,,,,,,12,11,102,,,
16805,note_on,0,0,13,,,,,,,,,12,,,,72,112
16806,note_on,0,0,9,,,,,,,,,8,,,,57,120
16806,control_change,150,0,9,,,,,,,,,8,11,102,,,
16807,control_change,7,0,11,,,,,,,,,10,11,99,,,
16807,control_change,151,0,14,,,,,,,,,13,11,102,,,
16807,note_on,0,0,14,,,,,,,,,13,,,,45,112
16807,note_on,30,0,4,,,,,,,,,3,,,,60,100
16807,note_on,0,0,4,,,,,,,,,3,,,,57,100
16809,note_on,0,0,15,,,,,,,,,14,,,,33,112
16809,control_change,7,0,12,,,,,,,,,11,11,99,,,
16809,control_change,151,0,15,,,,,,,,,14,11,102,,,
16811,control_change,7,0,8,,,,,,,,,7,11,99,,,
16812,control_change,7,0,13,,,,,,,,,12,11,99,,,
16813,control_change,7,0,9,,,,,,,,,8,11,99,,,
16814,control_change,7,0,14,,,,,,,,,13,11,99,,,
16815,control_change,8,0,11,,,,,,,,,10,11,96,,,
16816,control_change,7,0,15,,,,,,,,,14,11,99,,,
16817,control_change,8,0,12,,,,,,,,,11,11,96,,,
16819,control_change,8,0,8,,,,,,,,,7,11,96,,,
16820,control_change,8,0,13,,,,,,,,,12,11,96,,,
16821,control_change,8,0,9,,,,,,,,,8,11,96,,,
16822,control_change,7,0,11,,,,,,,,,10,11,93,,,
16822,control_change,8,0,14,,,,,,,,,13,11,96,,,
16824,control_change,8,0,15,,,,,,,,,14,11,96,,,
16824,control_change,7,0,12,,,,,,,,,11,11,93,,,
16826,control_change,7,0,8,,,,,,,,,7,11,93,,,
16827,control_change,7,0,13,,,,,,,,,12,11,93,,,
16828,control_change,7,0,9,,,,,,,,,8,11,93,,,
16829,control_change,7,0,14,,,,,,,,,13,11,93,,,
16830,note_on,8,0,11,,,,,,,,,10,,,,69,0
16830,note_on,0,0,11,,,,,,,,,10,,,,81,0
16830,control_change,0,0,11,,,,,,,,,10,11,90,,,
16831,control_change,7,0,15,,,,,,,,,14,11,93,,,
16831,note_on,30,0,1,,,,,,,,,0,,,,81,0
16831,note_on,0,0,1,,,,,,,,,0,,,,83,101
16831,note_on,0,0,1,,,,,,,,,0,,,,86,101
16831,note_on,0,0,1,,,,,,,,,0,,,,84,0
16832,note_on,0,0,2,,,,,,,,,1,,,,69,0
16832,note_on,0,0,2,,,,,,,,,1,,,,74,100
16832,note_on,0,0,2,,,,,,,,,1,,,,71,100
16832,control_change,0,0,12,,,,,,,,,11,11,90,,,
16832,note_on,30,0,2,,,,,,,,,1,,,,72,0
16832,note_on,8,0,12,,,,,,,,,11,,,,69,0
16832,note_on,0,0,12,,,,,,,,,11,,,,57,0
16834,control_change,0,0,8,,,,,,,,,7,11,90,,,
16834,note_on,0,0,8,,,,,,,,,7,,,,64,0
16834,note_on,8,0,8,,,,,,,,,7,,,,60,0
16835,control_change,0,0,13,,,,,,,,,12,11,90,,,
16835,note_on,0,0,13,,,,,,,,,12,,,,72,0
16835,note_on,0,0,13,,,,,,,,,12,,,,64,0
16835,note_on,8,0,13,,,,,,,,,12,,,,57,0
16836,control_change,0,0,9,,,,,,,,,8,11,90,,,
16836,note_on,8,0,9,,,,,,,,,8,,,,57,0
16837,note_on,0,0,4,,,,,,,,,3,,,,60,0
16837,note_on,0,0,4,,,,,,,,,3,,,,59,100
16837,note_on,0,0,4,,,,,,,,,3,,,,62,100
16837,note_on,30,0,4,,,,,,,,,3,,,,57,0
16837,control_change,0,0,14,,,,,,,,,13,11,90,,,
16837,note_on,8,0,14,,,,,,,,,13,,,,45,0
16837,control_change,7,0,11,,,,,,,,,10,11,87,,,
16839,control_change,0,0,15,,,,,,,,,14,11,90,,,
16839,control_change,7,0,12,,,,,,,,,11,11,87,,,
16839,note_on,8,0,15,,,,,,,,,14,,,,33,0
16841,control_change,7,0,8,,,,,,,,,7,11,87,,,
16842,control_change,7,0,13,,,,,,,,,12,11,87,,,
16843,control_change,7,0,9,,,,,,,,,8,11,87,,,
16844,control_change,7,0,14,,,,,,,,,13,11,87,,,
16846,control_change,7,0,15,,,,,,,,,14,11,87,,,
16849,control_change,8,0,8,,,,,,,,,7,11,84,,,
16851,control_change,8,0,9,,,,,,,,,8,11,84,,,
16860,note_on,23,0,11,,,,,,,,,10,,,,81,112
16860,note_on,0,0,11,,,,,,,,,10,,,,69,112
16860,set_tempo,60,1,0,,,,,,1043478,,,,,,,,
16861,note_on,30,0,1,,,,,,,,,0,,,,83,0
16861,note_on,0,0,1,,,,,,,,,0,,,,88,101
16861,note_on,0,0,1,,,,,,,,,0,,,,84,101
16861,note_on,0,0,1,,,,,,,,,0,,,,86,0
16862,note_on,60,0,3,,,,,,,,,2,,,,72,0
16862,note_on,0,0,2,,,,,,,,,1,,,,72,100
16862,note_on,0,0,2,,,,,,,,,1,,,,76,100
16862,note_on,0,0,2,,,,,,,,,1,,,,74,0
16862,note_on,0,0,3,,,,,,,,,2,,,,76,0
16862,note_on,0,0,12,,,,,,,,,11,,,,69,112
16862,note_on,23,0,12,,,,,,,,,11,,,,57,112
16862,note_on,30,0,2,,,,,,,,,1,,,,71,0
16864,note_on,15,0,8,,,,,,,,,7,,,,64,110
16864,note_on,0,0,8,,,,,,,,,7,,,,60,110
16866,note_on,15,0,9,,,,,,,,,8,,,,57,110
16867,note_on,0,0,4,,,,,,,,,3,,,,64,100
16867,note_on,0,0,4,,,,,,,,,3,,,,62,0
16867,note_on,30,0,4,,,,,,,,,3,,,,59,0
16867,note_on,0,0,4,,,,,,,,,3,,,,60,100
16890,note_on,0,0,11,,,,,,,,,10,,,,81,0
16890,note_on,30,0,11,,,,,,,,,10,,,,69,0
16891,note_on,0,0,1,,,,,,,,,0,,,,88,0
16891,note_on,0,0,1,,,,,,,,,0,,,,92,101
16891,note_on,30,0,1,,,,,,,,,0,,,,84,0
16891,note_on,0,0,1,,,,,,,,,0,,,,83,101
16892,note_on,30,0,12,,,,,,,,,11,,,,69,0
16892,note_on,0,0,2,,,,,,,,,1,,,,71,100
16892,note_on,0,0,2,,,,,,,,,1,,,,80,100
16892,note_on,0,0,2,,,,,,,,,1,,,,76,0
16892,note_on,0,0,12,,,,,,,,,11,,,,57,0
16892,note_on,30,0,2,,,,,,,,,1,,,,72,0
16894,note_on,30,0,8,,,,,,,,,7,,,,60,0
16894,note_on,0,0,8,,,,,,,,,7,,,,64,0
16896,note_on,30,0,9,,,,,,,,,8,,,,57,0
16897,note_on,0,0,4,,,,,,,,,3,,,,59,100
16897,note_on,30,0,4,,,,,,,,,3,,,,64,0
16897,note_on,0,0,4,,,,,,,,,3,,,,68,100
16897,note_on,0,0,4,,,,,,,,,3,,,,60,0
16905,note_on,104,0,5,,,,,,,,,4,,,,64,0
16907,note_on,104,0,6,,,,,,,,,5,,,,60,0
16920,set_tempo,60,1,0,,,,,,1100917,,,,,,,,
16921,note_on,16,0,5,,,,,,,,,4,,,,64,110
16921,note_on,0,0,1,,,,,,,,,0,,,,92,0
16921,note_on,30,0,1,,,,,,,,,0,,,,83,0
16921,note_on,0,0,1,,,,,,,,,0,,,,93,101
16921,note_on,0,0,1,,,,,,,,,0,,,,84,101
16922,note_on,0,0,2,,,,,,,,,1,,,,81,100
16922,note_on,0,0,2,,,,,,,,,1,,,,72,100
16922,note_on,30,0,2,,,,,,,,,1,,,,71,0
16922,note_on,0,0,2,,,,,,,,,1,,,,80,0
16923,note_on,16,0,6,,,,,,,,,5,,,,60,110
16925,note_on,83,0,13,,,,,,,,,12,,,,60,112
16927,note_on,83,0,14,,,,,,,,,13,,,,48,112
16927,note_on,30,0,4,,,,,,,,,3,,,,59,0
16927,note_on,0,0,4,,,,,,,,,3,,,,68,0
16927,note_on,0,0,4,,,,,,,,,3,,,,69,100
16927,note_on,0,0,4,,,,,,,,,3,,,,60,100
16929,note_on,83,0,15,,,,,,,,,14,,,,36,112
16951,note_on,30,0,1,,,,,,,,,0,,,,84,0
16951,note_on,0,0,1,,,,,,,,,0,,,,93,0
16952,note_on,30,0,2,,,,,,,,,1,,,,81,0
16952,note_on,0,0,2,,,,,,,,,1,,,,72,0
16955,note_on,30,0,13,,,,,,,,,12,,,,60,0
16957,note_on,0,0,4,,,,,,,,,3,,,,60,0
16957,note_on,30,0,4,,,,,,,,,3,,,,69,0
16957,note_on,30,0,14,,,,,,,,,13,,,,48,0
16959,note_on,30,0,15,,,,,,,,,14,,,,36,0
16970,note_on,15,0,13,,,,,,,,,12,,,,59,112
16972,note_on,15,0,14,,,,,,,,,13,,,,47,112
16974,note_on,15,0,15,,,,,,,,,14,,,,35,112
16980,set_tempo,60,1,0,,,,,,1043478,,,,,,,,
16981,note_on,0,0,1,,,,,,,,,0,,,,84,101
16981,note_on,11,0,13,,,,,,,,,12,,,,59,0
16981,note_on,30,0,1,,,,,,,,,0,,,,93,101
16982,note_on,30,0,2,,,,,,,,,1,,,,72,100
16982,note_on,0,0,2,,,,,,,,,1,,,,81,100
16983,note_on,11,0,14,,,,,,,,,13,,,,47,0
16985,note_on,11,0,15,,,,,,,,,14,,,,35,0
16985,note_on,4,0,13,,,,,,,,,12,,,,57,112
16987,note_on,0,0,4,,,,,,,,,3,,,,69,100
16987,note_on,4,0,14,,,,,,,,,13,,,,45,112
16987,note_on,30,0,4,,,,,,,,,3,,,,60,100
16989,note_on,4,0,15,,,,,,,,,14,,,,33,112
17011,note_on,30,0,1,,,,,,,,,0,,,,84,0
17011,note_on,0,0,1,,,,,,,,,0,,,,93,0
17012,note_on,30,0,2,,,,,,,,,1,,,,81,0
17012,note_on,0,0,2,,,,,,,,,1,,,,72,0
17015,note_on,30,0,13,,,,,,,,,12,,,,57,0
17017,note_on,0,0,4,,,,,,,,,3,,,,60,0
17017,note_on,30,0,4,,,,,,,,,3,,,,69,0
17017,note_on,30,0,14,,,,,,,,,13,,,,45,0
17019,note_on,30,0,15,,,,,,,,,14,,,,33,0
17025,note_on,104,0,5,,,,,,,,,4,,,,64,0
17027,note_on,104,0,6,,,,,,,,,5,,,,60,0
17030,note_on,15,0,13,,,,,,,,,12,,,,55,112
17032,note_on,15,0,14,,,,,,,,,13,,,,43,112
17034,note_on,15,0,15,,,,,,,,,14,,,,31,112
17040,control_change,150,0,11,,,,,,,,,10,11,102,,,
17040,set_tempo,60,1,0,,,,,,1121495,,,,,,,,
17040,note_on,0,0,11,,,,,,,,,10,,,,65,112
17040,note_on,0,0,11,,,,,,,,,10,,,,81,112
17040,note_on,0,0,11,,,,,,,,,10,,,,72,112
17041,note_on,0,0,1,,,,,,,,,0,,,,89,101
17041,note_on,0,0,1,,,,,,,,,0,,,,93,101
17041,control_change,30,0,1,,,,,,,,,0,11,91,,,
17041,note_on,16,0,5,,,,,,,,,4,,,,65,100
17041,note_on,11,0,13,,,,,,,,,12,,,,55,0
17042,control_change,30,0,2,,,,,,,,,1,11,91,,,
17042,note_on,0,0,2,,,,,,,,,1,,,,81,100
17042,note_on,0,0,2,,,,,,,,,1,,,,77,100
17042,note_on,295,0,7,,,,,,,,,6,,,,69,122
17042,note_on,0,0,7,,,,,,,,,6,,,,57,122
17042,note_on,0,0,12,,,,,,,,,11,,,,81,112
17042,note_on,180,0,3,,,,,,,,,2,,,,69,101
17042,note_on,0,0,12,,,,,,,,,11,,,,65,112
17042,control_change,150,0,12,,,,,,,,,11,11,102,,,
17042,note_on,0,0,12,,,,,,,,,11,,,,72,112
17043,note_on,16,0,6,,,,,,,,,5,,,,65,100
17043,note_on,11,0,14,,,,,,,,,13,,,,43,0
17044,note_on,0,0,8,,,,,,,,,7,,,,60,120
17044,note_on,0,0,8,,,,,,,,,7,,,,65,120
17044,control_change,150,0,8,,,,,,,,,7,11,102,,,
17045,note_on,0,0,13,,,,,,,,,12,,,,53,112
17045,note_on,11,0,15,,,,,,,,,14,,,,31,0
17045,control_change,4,0,13,,,,,,,,,12,11,102,,,
17046,note_on,0,0,9,,,,,,,,,8,,,,53,120
17046,control_change,150,0,9,,,,,,,,,8,11,102,,,
17047,note_on,0,0,4,,,,,,,,,3,,,,53,100
17047,note_on,30,0,4,,,,,,,,,3,,,,57,100
17047,note_on,0,0,14,,,,,,,,,13,,,,41,112
17047,control_change,7,0,11,,,,,,,,,10,11,99,,,
17047,control_change,4,0,14,,,,,,,,,13,11,102,,,
17048,control_change,7,0,1,,,,,,,,,0,11,88,,,
17048,note_on,300,0,10,,,,,,,,,15,,,,45,85
17049,note_on,0,0,15,,,,,,,,,14,,,,29,112
17049,control_change,7,0,2,,,,,,,,,1,11,88,,,
17049,control_change,7,0,12,,,,,,,,,11,11,99,,,
17049,control_change,4,0,15,,,,,,,,,14,11,102,,,
17051,control_change,7,0,8,,,,,,,,,7,11,99,,,
17052,control_change,7,0,13,,,,,,,,,12,11,99,,,
17053,control_change,7,0,9,,,,,,,,,8,11,99,,,
17054,control_change,7,0,14,,,,,,,,,13,11,99,,,
17055,control_change,8,0,11,,,,,,,,,10,11,96,,,
17056,control_change,7,0,15,,,,,,,,,14,11,99,,,
17057,control_change,8,0,12,,,,,,,,,11,11,96,,,
17059,control_change,8,0,8,,,,,,,,,7,11,96,,,
17060,control_change,8,0,13,,,,,,,,,12,11,96,,,
17061,control_change,8,0,9,,,,,,,,,8,11,96,,,
17062,control_change,8,0,14,,,,,,,,,13,11,96,,,
17062,control_change,7,0,11,,,,,,,,,10,11,93,,,
17063,control_change,15,0,1,,,,,,,,,0,11,84,,,
17064,control_change,15,0,2,,,,,,,,,1,11,84,,,
17064,control_change,8,0,15,,,,,,,,,14,11,96,,,
17064,control_change,7,0,12,,,,,,,,,11,11,93,,,
17066,control_change,7,0,8,,,,,,,,,7,11,93,,,
17067,control_change,7,0,13,,,,,,,,,12,11,93,,,
17068,control_change,7,0,9,,,,,,,,,8,11,93,,,
17069,control_change,7,0,14,,,,,,,,,13,11,93,,,
17070,control_change,8,0,11,,,,,,,,,10,11,90,,,
17071,note_on,30,0,5,,,,,,,,,4,,,,65,0
17071,control_change,8,0,1,,,,,,,,,0,11,81,,,
17071,control_change,7,0,15,,,,,,,,,14,11,93,,,
17072,note_on,30,0,3,,,,,,,,,2,,,,69,0
17072,control_change,8,0,12,,,,,,,,,11,11,90,,,
17072,control_change,8,0,2,,,,,,,,,1,11,81,,,
17073,note_on,30,0,6,,,,,,,,,5,,,,65,0
17074,note_on,8,0,8,,,,,,,,,7,,,,60,0
17074,note_on,0,0,8,,,,,,,,,7,,,,65,0
17074,control_change,0,0,8,,,,,,,,,7,11,90,,,
17075,note_on,8,0,13,,,,,,,,,12,,,,53,0
17075,control_change,0,0,13,,,,,,,,,12,11,90,,,
17076,control_change,0,0,9,,,,,,,,,8,11,90,,,
17076,note_on,8,0,9,,,,,,,,,8,,,,53,0
17077,control_change,7,0,11,,,,,,,,,10,11,87,,,
17077,note_on,0,0,4,,,,,,,,,3,,,,57,0
17077,note_on,8,0,14,,,,,,,,,13,,,,41,0
17077,control_change,0,0,14,,,,,,,,,13,11,90,,,
17077,note_on,30,0,4,,,,,,,,,3,,,,53,0
17079,control_change,7,0,12,,,,,,,,,11,11,87,,,
17079,control_change,0,0,15,,,,,,,,,14,11,90,,,
17079,note_on,8,0,15,,,,,,,,,14,,,,29,0
17081,control_change,7,0,8,,,,,,,,,7,11,87,,,
17082,control_change,7,0,13,,,,,,,,,12,11,87,,,
17083,control_change,7,0,9,,,,,,,,,8,11,87,,,
17084,control_change,7,0,14,,,,,,,,,13,11,87,,,
17086,note_on,15,0,5,,,,,,,,,4,,,,64,100
17086,control_change,15,0,1,,,,,,,,,0,11,77,,,
17086,control_change,7,0,15,,,,,,,,,14,11,87,,,
17087,control_change,15,0,2,,,,,,,,,1,11,77,,,
17087,note_on,15,0,3,,,,,,,,,2,,,,67,101
17088,note_on,15,0,6,,,,,,,,,5,,,,64,100
17089,control_change,8,0,8,,,,,,,,,7,11,84,,,
17091,control_change,8,0,9,,,,,,,,,8,11,84,,,
17092,note_on,0,0,4,,,,,,,,,3,,,,55,100
17092,note_on,15,0,4,,,,,,,,,3,,,,52,100
17094,note_on,7,0,3,,,,,,,,,2,,,,67,0
17096,note_on,10,0,5,,,,,,,,,4,,,,64,0
17098,note_on,10,0,6,,,,,,,,,5,,,,64,0
17099,note_on,0,0,4,,,,,,,,,3,,,,52,0
17099,note_on,7,0,4,,,,,,,,,3,,,,55,0
17100,set_tempo,60,1,0,,,,,,1043478,,,,,,,,
17100,note_on,0,0,11,,,,,,,,,10,,,,65,0
17100,note_on,23,0,11,,,,,,,,,10,,,,81,0
17100,note_on,0,0,11,,,,,,,,,10,,,,72,0
17101,note_on,15,0,1,,,,,,,,,0,,,,89,0
17101,note_on,5,0,5,,,,,,,,,4,,,,65,100
17101,note_on,0,0,1,,,,,,,,,0,,,,93,0
17102,note_on,23,0,12,,,,,,,,,11,,,,81,0
17102,note_on,15,0,2,,,,,,,,,1,,,,77,0
17102,note_on,0,0,12,,,,,,,,,11,,,,72,0
17102,note_on,0,0,2,,,,,,,,,1,,,,81,0
17102,note_on,8,0,3,,,,,,,,,2,,,,69,101
17102,note_on,0,0,12,,,,,,,,,11,,,,65,0
17103,note_on,5,0,6,,,,,,,,,5,,,,65,100
17104,note_on,15,0,8,,,,,,,,,7,,,,65,110
17104,note_on,0,0,8,,,,,,,,,7,,,,60,110
17105,note_on,23,0,13,,,,,,,,,12,,,,53,112
17106,note_on,15,0,9,,,,,,,,,8,,,,53,110
17107,note_on,0,0,4,,,,,,,,,3,,,,57,100
17107,note_on,23,0,14,,,,,,,,,13,,,,41,112
17107,note_on,8,0,4,,,,,,,,,3,,,,53,100
17108,note_on,60,0,10,,,,,,,,,15,,,,45,0
17109,note_on,23,0,15,,,,,,,,,14,,,,29,112
17117,note_on,0,0,7,,,,,,,,,6,,,,69,0
17117,note_on,75,0,7,,,,,,,,,6,,,,57,0
17131,note_on,30,0,5,,,,,,,,,4,,,,65,0
17132,note_on,30,0,3,,,,,,,,,2,,,,69,0
17133,note_on,30,0,6,,,,,,,,,5,,,,65,0
17134,note_on,30,0,8,,,,,,,,,7,,,,60,0
17134,note_on,0,0,8,,,,,,,,,7,,,,65,0
17135,note_on,30,0,13,,,,,,,,,12,,,,53,0
17136,note_on,30,0,9,,,,,,,,,8,,,,53,0
17137,note_on,30,0,4,,,,,,,,,3,,,,57,0
17137,note_on,30,0,14,,,,,,,,,13,,,,41,0
17137,note_on,0,0,4,,,,,,,,,3,,,,53,0
17139,note_on,30,0,15,,,,,,,,,14,,,,29,0
17146,note_on,15,0,5,,,,,,,,,4,,,,67,100
17147,note_on,15,0,3,,,,,,,,,2,,,,70,101
17148,note_on,15,0,6,,,,,,,,,5,,,,67,100
17152,note_on,15,0,4,,,,,,,,,3,,,,58,100
17152,note_on,0,0,4,,,,,,,,,3,,,,55,100
17154,note_on,7,0,3,,,,,,,,,2,,,,70,0
17156,note_on,10,0,5,,,,,,,,,4,,,,67,0
17158,note_on,10,0,6,,,,,,,,,5,,,,67,0
17159,note_on,7,0,4,,,,,,,,,3,,,,55,0
17159,note_on,0,0,4,,,,,,,,,3,,,,58,0
17160,set_tempo,60,1,0,,,,,,1100917,,,,,,,,
17160,note_on,60,0,11,,,,,,,,,10,,,,77,112
17161,note_on,5,0,5,,,,,,,,,4,,,,65,100
17162,note_on,8,0,3,,,,,,,,,2,,,,69,101
17162,note_on,60,0,12,,,,,,,,,11,,,,65,112
17162,note_on,0,0,7,,,,,,,,,6,,,,57,122
17162,note_on,45,0,7,,,,,,,,,6,,,,69,122
17163,note_on,5,0,6,,,,,,,,,5,,,,65,100
17167,note_on,8,0,4,,,,,,,,,3,,,,57,100
17167,note_on,0,0,4,,,,,,,,,3,,,,53,100
17168,note_on,60,0,10,,,,,,,,,15,,,,45,85
17190,note_on,30,0,11,,,,,,,,,10,,,,77,0
17191,note_on,30,0,5,,,,,,,,,4,,,,65,0
17192,note_on,30,0,12,,,,,,,,,11,,,,65,0
17192,note_on,30,0,3,,,,,,,,,2,,,,69,0
17193,note_on,30,0,6,,,,,,,,,5,,,,65,0
17197,note_on,0,0,4,,,,,,,,,3,,,,57,0
17197,note_on,30,0,4,,,,,,,,,3,,,,53,0
17205,note_on,15,0,11,,,,,,,,,10,,,,79,112
17207,note_on,15,0,12,,,,,,,,,11,,,,67,112
17216,note_on,11,0,11,,,,,,,,,10,,,,79,0
17218,note_on,11,0,12,,,,,,,,,11,,,,67,0
17220,set_tempo,60,1,0,,,,,,1043478,,,,,,,,
17220,note_on,4,0,11,,,,,,,,,10,,,,81,112
17221,note_on,30,0,5,,,,,,,,,4,,,,65,100
17222,note_on,30,0,3,,,,,,,,,2,,,,69,101
17222,note_on,4,0,12,,,,,,,,,11,,,,69,112
17223,note_on,30,0,6,,,,,,,,,5,,,,65,100
17227,note_on,30,0,4,,,,,,,,,3,,,,53,100
17227,note_on,0,0,4,,,,,,,,,3,,,,57,100
17228,note_on,60,0,10,,,,,,,,,15,,,,45,0
17237,note_on,75,0,7,,,,,,,,,6,,,,57,0
17237,note_on,0,0,7,,,,,,,,,6,,,,69,0
17250,note_on,30,0,11,,,,,,,,,10,,,,81,0
17251,note_on,30,0,5,,,,,,,,,4,,,,65,0
17252,note_on,30,0,12,,,,,,,,,11,,,,69,0
17252,note_on,30,0,3,,,,,,,,,2,,,,69,0
17253,note_on,30,0,6,,,,,,,,,5,,,,65,0
17257,note_on,0,0,4,,,,,,,,,3,,,,53,0
17257,note_on,30,0,4,,,,,,,,,3,,,,57,0
17265,note_on,15,0,11,,,,,,,,,10,,,,83,112
17267,note_on,15,0,12,,,,,,,,,11,,,,71,112
17276,note_on,11,0,11,,,,,,,,,10,,,,83,0
17278,note_on,11,0,12,,,,,,,,,11,,,,71,0
17280,set_tempo,60,1,0,,,,,,1121495,,,,,,,,
17280,note_on,0,0,11,,,,,,,,,10,,,,84,112
17280,note_on,0,0,11,,,,,,,,,10,,,,72,112
17280,control_change,4,0,11,,,,,,,,,10,11,102,,,
17281,note_on,180,0,1,,,,,,,,,0,,,,72,101
17281,note_on,0,0,1,,,,,,,,,0,,,,76,101
17281,note_on,30,0,5,,,,,,,,,4,,,,60,100
17282,note_on,180,0,2,,,,,,,,,1,,,,72,100
17282,note_on,0,0,12,,,,,,,,,11,,,,72,112
17282,control_change,4,0,12,,,,,,,,,11,11,102,,,
17282,note_on,30,0,3,,,,,,,,,2,,,,64,101
17282,note_on,0,0,3,,,,,,,,,2,,,,60,101
17282,note_on,0,0,2,,,,,,,,,1,,,,76,100
17283,note_on,30,0,6,,,,,,,,,5,,,,60,100
17284,note_on,0,0,8,,,,,,,,,7,,,,55,120
17284,note_on,0,0,8,,,,,,,,,7,,,,64,120
17284,control_change,150,0,8,,,,,,,,,7,11,102,,,
17285,note_on,0,0,13,,,,,,,,,12,,,,48,112
17285,note_on,0,0,13,,,,,,,,,12,,,,64,112
17285,note_on,0,0,13,,,,,,,,,12,,,,72,112
17285,control_change,150,0,13,,,,,,,,,12,11,102,,,
17285,note_on,0,0,13,,,,,,,,,12,,,,55,112
17286,note_on,0,0,9,,,,,,,,,8,,,,48,120
17286,control_change,150,0,9,,,,,,,,,8,11,102,,,
17287,note_on,0,0,14,,,,,,,,,13,,,,48,112
17287,control_change,150,0,14,,,,,,,,,13,11,102,,,
17287,control_change,7,0,11,,,,,,,,,10,11,99,,,
17289,note_on,0,0,15,,,,,,,,,14,,,,36,112
17289,control_change,150,0,15,,,,,,,,,14,11,102,,,
17289,control_change,7,0,12,,,,,,,,,11,11,99,,,
17291,control_change,7,0,8,,,,,,,,,7,11,99,,,
17292,control_change,7,0,13,,,,,,,,,12,11,99,,,
17293,control_change,7,0,9,,,,,,,,,8,11,99,,,
17294,control_change,7,0,14,,,,,,,,,13,11,99,,,
17295,control_change,8,0,11,,,,,,,,,10,11,96,,,
17296,control_change,7,0,15,,,,,,,,,14,11,99,,,
17297,control_change,8,0,12,,,,,,,,,11,11,96,,,
17299,control_change,8,0,8,,,,,,,,,7,11,96,,,
17300,control_change,8,0,13,,,,,,,,,12,11,96,,,
17301,control_change,8,0,9,,,,,,,,,8,11,96,,,
17302,control_change,8,0,14,,,,,,,,,13,11,96,,,
17302,control_change,7,0,11,,,,,,,,,10,11,93,,,
17304,control_change,7,0,12,,,,,,,,,11,11,93,,,
17304,control_change,8,0,15,,,,,,,,,14,11,96,,,
17306,control_change,7,0,8,,,,,,,,,7,11,93,,,
17307,control_change,7,0,13,,,,,,,,,12,11,93,,,
17308,control_change,7,0,9,,,,,,,,,8,11,93,,,
17309,control_change,7,0,14,,,,,,,,,13,11,93,,,
17310,note_on,0,0,11,,,,,,,,,10,,,,72,0
17310,note_on,8,0,11,,,,,,,,,10,,,,84,0
17310,control_change,0,0,11,,,,,,,,,10,11,90,,,
17311,note_on,0,0,1,,,,,,,,,0,,,,72,0
17311,note_on,30,0,1,,,,,,,,,0,,,,76,0
17311,note_on,0,0,1,,,,,,,,,0,,,,74,101
17311,note_on,0,0,1,,,,,,,,,0,,,,77,101
17311,control_change,7,0,15,,,,,,,,,14,11,93,,,
17312,note_on,0,0,3,,,,,,,,,2,,,,64,0
17312,note_on,8,0,12,,,,,,,,,11,,,,72,0
17312,note_on,0,0,2,,,,,,,,,1,,,,74,100
17312,note_on,0,0,2,,,,,,,,,1,,,,77,100
17312,note_on,30,0,2,,,,,,,,,1,,,,76,0
17312,control_change,0,0,12,,,,,,,,,11,11,90,,,
17312,note_on,30,0,3,,,,,,,,,2,,,,60,0
17312,note_on,0,0,3,,,,,,,,,2,,,,65,101
17312,note_on,0,0,3,,,,,,,,,2,,,,62,101
17312,note_on,0,0,2,,,,,,,,,1,,,,72,0
17314,note_on,0,0,8,,,,,,,,,7,,,,64,0
17314,note_on,8,0,8,,,,,,,,,7,,,,55,0
17314,control_change,0,0,8,,,,,,,,,7,11,90,,,
17315,control_change,8,0,13,,,,,,,,,12,11,90,,,
17316,control_change,0,0,9,,,,,,,,,8,11,90,,,
17316,note_on,8,0,9,,,,,,,,,8,,,,48,0
17317,control_change,7,0,11,,,,,,,,,10,11,87,,,
17317,control_change,0,0,14,,,,,,,,,13,11,90,,,
17317,note_on,8,0,14,,,,,,,,,13,,,,48,0
17319,control_change,0,0,15,,,,,,,,,14,11,90,,,
17319,note_on,8,0,15,,,,,,,,,14,,,,36,0
17319,control_change,7,0,12,,,,,,,,,11,11,87,,,
17321,control_change,7,0,8,,,,,,,,,7,11,87,,,
17322,control_change,7,0,13,,,,,,,,,12,11,87,,,
17323,control_change,7,0,9,,,,,,,,,8,11,87,,,
17324,control_change,7,0,14,,,,,,,,,13,11,87,,,
17326,control_change,7,0,15,,,,,,,,,14,11,87,,,
17329,control_change,8,0,8,,,,,,,,,7,11,84,,,
17331,control_change,8,0,9,,,,,,,,,8,11,84,,,
17340,note_on,23,0,11,,,,,,,,,10,,,,72,112
17340,set_tempo,60,1,0,,,,,,1043478,,,,,,,,
17340,note_on,0,0,11,,,,,,,,,10,,,,84,112
17341,note_on,0,0,1,,,,,,,,,0,,,,77,0
17341,note_on,0,0,1,,,,,,,,,0,,,,79,101
17341,note_on,0,0,1,,,,,,,,,0,,,,76,101
17341,note_on,30,0,1,,,,,,,,,0,,,,74,0
17342,note_on,30,0,3,,,,,,,,,2,,,,62,0
17342,note_on,0,0,3,,,,,,,,,2,,,,65,0
17342,note_on,0,0,2,,,,,,,,,1,,,,77,0
17342,note_on,0,0,3,,,,,,,,,2,,,,67,101
17342,note_on,0,0,3,,,,,,,,,2,,,,64,101
17342,note_on,0,0,2,,,,,,,,,1,,,,76,100
17342,note_on,0,0,2,,,,,,,,,1,,,,79,100
17342,note_on,30,0,2,,,,,,,,,1,,,,74,0
17342,note_on,23,0,12,,,,,,,,,11,,,,72,112
17344,note_on,0,0,8,,,,,,,,,7,,,,55,110
17344,note_on,15,0,8,,,,,,,,,7,,,,64,110
17345,note_on,23,0,13,,,,,,,,,12,,,,48,0
17345,note_on,0,0,13,,,,,,,,,12,,,,72,0
17345,note_on,0,0,13,,,,,,,,,12,,,,64,0
17345,note_on,0,0,13,,,,,,,,,12,,,,55,0
17346,note_on,15,0,9,,,,,,,,,8,,,,48,110
17370,note_on,30,0,11,,,,,,,,,10,,,,84,0
17370,note_on,0,0,11,,,,,,,,,10,,,,72,0
17371,note_on,0,0,1,,,,,,,,,0,,,,74,101
17371,note_on,0,0,1,,,,,,,,,0,,,,79,0
17371,note_on,30,0,1,,,,,,,,,0,,,,76,0
17371,note_on,0,0,1,,,,,,,,,0,,,,83,101
17372,note_on,30,0,12,,,,,,,,,11,,,,72,0
17372,note_on,30,0,3,,,,,,,,,2,,,,64,0
17372,note_on,0,0,3,,,,,,,,,2,,,,67,0
17372,note_on,0,0,3,,,,,,,,,2,,,,71,101
17372,note_on,0,0,3,,,,,,,,,2,,,,62,101
17372,note_on,0,0,2,,,,,,,,,1,,,,79,0
17372,note_on,0,0,2,,,,,,,,,1,,,,74,100
17372,note_on,30,0,2,,,,,,,,,1,,,,76,0
17372,note_on,0,0,2,,,,,,,,,1,,,,83,100
17374,note_on,30,0,8,,,,,,,,,7,,,,55,0
17374,note_on,0,0,8,,,,,,,,,7,,,,64,0
17376,note_on,30,0,9,,,,,,,,,8,,,,48,0
17400,note_on,30,0,11,,,,,,,,,10,,,,72,112
17400,set_tempo,60,1,0,,,,,,1100917,,,,,,,,
17401,note_on,0,0,5,,,,,,,,,4,,,,60,100
17401,note_on,0,0,1,,,,,,,,,0,,,,76,101
17401,note_on,0,0,1,,,,,,,,,0,,,,84,101
17401,note_on,0,0,1,,,,,,,,,0,,,,74,0
17401,note_on,30,0,1,,,,,,,,,0,,,,83,0
17401,note_on,120,0,5,,,,,,,,,4,,,,60,0
17402,note_on,30,0,2,,,,,,,,,1,,,,74,0
17402,note_on,0,0,3,,,,,,,,,2,,,,64,101
17402,note_on,0,0,3,,,,,,,,,2,,,,71,0
17402,note_on,30,0,3,,,,,,,,,2,,,,62,0
17402,note_on,0,0,2,,,,,,,,,1,,,,76,100
17402,note_on,0,0,2,,,,,,,,,1,,,,84,100
17402,note_on,0,0,2,,,,,,,,,1,,,,83,0
17402,note_on,0,0,3,,,,,,,,,2,,,,72,101
17402,note_on,30,0,12,,,,,,,,,11,,,,60,112
17403,note_on,120,0,6,,,,,,,,,5,,,,60,0
17403,note_on,0,0,6,,,,,,,,,5,,,,60,100
17405,note_on,60,0,13,,,,,,,,,12,,,,60,112
17407,note_on,83,0,14,,,,,,,,,13,,,,48,112
17407,note_on,150,0,4,,,,,,,,,3,,,,48,100
17409,note_on,83,0,15,,,,,,,,,14,,,,36,112
17430,note_on,30,0,11,,,,,,,,,10,,,,72,0
17431,note_on,0,0,1,,,,,,,,,0,,,,84,0
17431,note_on,30,0,5,,,,,,,,,4,,,,60,0
17431,note_on,30,0,1,,,,,,,,,0,,,,76,0
17432,note_on,30,0,12,,,,,,,,,11,,,,60,0
17432,note_on,30,0,2,,,,,,,,,1,,,,76,0
17432,note_on,0,0,2,,,,,,,,,1,,,,84,0
17432,note_on,0,0,3,,,,,,,,,2,,,,64,0
17432,note_on,30,0,3,,,,,,,,,2,,,,72,0
17433,note_on,30,0,6,,,,,,,,,5,,,,60,0
17435,note_on,30,0,13,,,,,,,,,12,,,,60,0
17437,note_on,30,0,4,,,,,,,,,3,,,,48,0
17437,note_on,30,0,14,,,,,,,,,13,,,,48,0
17439,note_on,30,0,15,,,,,,,,,14,,,,36,0
17445,note_on,15,0,11,,,,,,,,,10,,,,74,112
17446,note_on,15,0,5,,,,,,,,,4,,,,62,100
17446,note_on,15,0,1,,,,,,,,,0,,,,74,101
17446,note_on,0,0,1,,,,,,,,,0,,,,86,101
17447,note_on,15,0,2,,,,,,,,,1,,,,74,100
17447,note_on,15,0,3,,,,,,,,,2,,,,74,101
17447,note_on,0,0,3,,,,,,,,,2,,,,62,101
17447,note_on,15,0,12,,,,,,,,,11,,,,62,112
17448,note_on,15,0,6,,,,,,,,,5,,,,62,100
17450,note_on,15,0,13,,,,,,,,,12,,,,62,112
17452,note_on,15,0,4,,,,,,,,,3,,,,50,100
17452,note_on,15,0,14,,,,,,,,,13,,,,50,112
17453,note_on,7,0,1,,,,,,,,,0,,,,86,0
17453,note_on,7,0,5,,,,,,,,,4,,,,62,0
17453,note_on,0,0,1,,,,,,,,,0,,,,74,0
17454,note_on,7,0,2,,,,,,,,,1,,,,74,0
17454,note_on,7,0,3,,,,,,,,,2,,,,62,0
17454,note_on,15,0,15,,,,,,,,,14,,,,38,112
17454,note_on,0,0,3,,,,,,,,,2,,,,74,0
17455,note_on,7,0,6,,,,,,,,,5,,,,62,0
17456,note_on,11,0,11,,,,,,,,,10,,,,74,0
17458,note_on,11,0,12,,,,,,,,,11,,,,62,0
17459,note_on,7,0,4,,,,,,,,,3,,,,50,0
17460,set_tempo,60,1,0,,,,,,1043478,,,,,,,,
17460,note_on,4,0,11,,,,,,,,,10,,,,76,112
17461,note_on,11,0,13,,,,,,,,,12,,,,62,0
17461,note_on,8,0,5,,,,,,,,,4,,,,64,100
17461,note_on,8,0,1,,,,,,,,,0,,,,76,101
17461,note_on,0,0,1,,,,,,,,,0,,,,88,101
17462,note_on,8,0,3,,,,,,,,,2,,,,76,101
17462,note_on,0,0,3,,,,,,,,,2,,,,64,101
17462,note_on,4,0,12,,,,,,,,,11,,,,64,112
17462,note_on,8,0,2,,,,,,,,,1,,,,76,100
17463,note_on,8,0,6,,,,,,,,,5,,,,64,100
17463,note_on,11,0,14,,,,,,,,,13,,,,50,0
17465,note_on,11,0,15,,,,,,,,,14,,,,38,0
17465,note_on,4,0,13,,,,,,,,,12,,,,64,112
17467,note_on,8,0,4,,,,,,,,,3,,,,52,100
17467,note_on,4,0,14,,,,,,,,,13,,,,52,112
17469,note_on,4,0,15,,,,,,,,,14,,,,40,112
17490,note_on,30,0,11,,,,,,,,,10,,,,76,0
17491,note_on,30,0,5,,,,,,,,,4,,,,64,0
17491,note_on,0,0,1,,,,,,,,,0,,,,76,0
17491,note_on,30,0,1,,,,,,,,,0,,,,88,0
17492,note_on,0,0,3,,,,,,,,,2,,,,76,0
17492,note_on,30,0,12,,,,,,,,,11,,,,64,0
17492,note_on,30,0,3,,,,,,,,,2,,,,64,0
17492,note_on,30,0,2,,,,,,,,,1,,,,76,0
17493,note_on,30,0,6,,,,,,,,,5,,,,64,0
17495,note_on,30,0,13,,,,,,,,,12,,,,64,0
17497,note_on,30,0,14,,,,,,,,,13,,,,52,0
17497,note_on,30,0,4,,,,,,,,,3,,,,52,0
17499,note_on,30,0,15,,,,,,,,,14,,,,40,0
17505,note_on,15,0,11,,,,,,,,,10,,,,77,112
17506,note_on,15,0,5,,,,,,,,,4,,,,65,100
17506,note_on,15,0,1,,,,,,,,,0,,,,89,101
17506,note_on,0,0,1,,,,,,,,,0,,,,77,101
17507,note_on,15,0,12,,,,,,,,,11,,,,65,112
17507,note_on,15,0,2,,,,,,,,,1,,,,77,100
17507,note_on,15,0,3,,,,,,,,,2,,,,77,101
17507,note_on,0,0,3,,,,,,,,,2,,,,64,101
17508,note_on,15,0,6,,,,,,,,,5,,,,65,100
17510,note_on,15,0,13,,,,,,,,,12,,,,65,112
17512,note_on,15,0,14,,,,,,,,,13,,,,53,112
17512,note_on,15,0,4,,,,,,,,,3,,,,53,100
17513,note_on,7,0,5,,,,,,,,,4,,,,65,0
17513,note_on,0,0,1,,,,,,,,,0,,,,89,0
17513,note_on,7,0,1,,,,,,,,,0,,,,77,0
17514,note_on,0,0,3,,,,,,,,,2,,,,77,0
17514,note_on,7,0,3,,,,,,,,,2,,,,64,0
17514,note_on,15,0,15,,,,,,,,,14,,,,41,112
17514,note_on,7,0,2,,,,,,,,,1,,,,77,0
17515,note_on,7,0,6,,,,,,,,,5,,,,65,0
17516,note_on,11,0,11,,,,,,,,,10,,,,77,0
17518,note_on,11,0,12,,,,,,,,,11,,,,65,0
17519,note_on,7,0,4,,,,,,,,,3,,,,53,0
17520,set_tempo,60,1,0,,,,,,1121495,,,,,,,,
17520,note_on,4,0,11,,,,,,,,,10,,,,79,112
17521,note_on,8,0,5,,,,,,,,,4,,,,67,100
17521,note_on,8,0,1,,,,,,,,,0,,,,79,101
17521,note_on,0,0,1,,,,,,,,,0,,,,91,101
17521,note_on,11,0,13,,,,,,,,,12,,,,65,0
17522,note_on,4,0,12,,,,,,,,,11,,,,67,112
17522,note_on,8,0,2,,,,,,,,,1,,,,79,100
17522,note_on,8,0,3,,,,,,,,,2,,,,79,101
17522,note_on,0,0,3,,,,,,,,,2,,,,67,101
17523,note_on,8,0,6,,,,,,,,,5,,,,67,100
17523,note_on,11,0,14,,,,,,,,,13,,,,53,0
17525,note_on,11,0,15,,,,,,,,,14,,,,41,0
17525,note_on,4,0,13,,,,,,,,,12,,,,67,112
17527,note_on,8,0,4,,,,,,,,,3,,,,55,100
17527,note_on,4,0,14,,,,,,,,,13,,,,55,112
17529,note_on,4,0,15,,,,,,,,,14,,,,43,112
17550,note_on,30,0,11,,,,,,,,,10,,,,79,0
17551,note_on,30,0,5,,,,,,,,,4,,,,67,0
17551,note_on,0,0,1,,,,,,,,,0,,,,79,0
17551,note_on,30,0,1,,,,,,,,,0,,,,91,0
17552,note_on,30,0,12,,,,,,,,,11,,,,67,0
17552,note_on,30,0,3,,,,,,,,,2,,,,67,0
17552,note_on,30,0,2,,,,,,,,,1,,,,79,0
17552,note_on,0,0,3,,,,,,,,,2,,,,79,0
17553,note_on,30,0,6,,,,,,,,,5,,,,67,0
17555,note_on,30,0,13,,,,,,,,,12,,,,67,0
17557,note_on,30,0,14,,,,,,,,,13,,,,55,0
17557,note_on,30,0,4,,,,,,,,,3,,,,55,0
17559,note_on,30,0,15,,,,,,,,,14,,,,43,0
17565,note_on,15,0,11,,,,,,,,,10,,,,77,112
17566,note_on,15,0,5,,,,,,,,,4,,,,65,100
17566,note_on,0,0,1,,,,,,,,,0,,,,89,101
17566,note_on,15,0,1,,,,,,,,,0,,,,77,101
17567,note_on,15,0,2,,,,,,,,,1,,,,77,100
17567,note_on,0,0,3,,,,,,,,,2,,,,77,101
17567,note_on,15,0,12,,,,,,,,,11,,,,65,112
17567,note_on,15,0,3,,,,,,,,,2,,,,65,101
17568,note_on,15,0,6,,,,,,,,,5,,,,65,100
17570,note_on,15,0,13,,,,,,,,,12,,,,65,112
17572,note_on,15,0,4,,,,,,,,,3,,,,53,100
17572,note_on,15,0,14,,,,,,,,,13,,,,53,112
17573,note_on,7,0,5,,,,,,,,,4,,,,65,0
17573,note_on,0,0,1,,,,,,,,,0,,,,77,0
17573,note_on,7,0,1,,,,,,,,,0,,,,89,0
17574,note_on,7,0,3,,,,,,,,,2,,,,77,0
17574,note_on,0,0,3,,,,,,,,,2,,,,65,0
17574,note_on,15,0,15,,,,,,,,,14,,,,41,112
17574,note_on,7,0,2,,,,,,,,,1,,,,77,0
17575,note_on,7,0,6,,,,,,,,,5,,,,65,0
17576,note_on,11,0,11,,,,,,,,,10,,,,77,0
17578,note_on,11,0,12,,,,,,,,,11,,,,65,0
17579,note_on,7,0,4,,,,,,,,,3,,,,53,0
17580,set_tempo,60,1,0,,,,,,1043478,,,,,,,,
17580,note_on,4,0,11,,,,,,,,,10,,,,76,112
17581,note_on,11,0,13,,,,,,,,,12,,,,65,0
17581,note_on,8,0,5,,,,,,,,,4,,,,64,100
17581,note_on,8,0,1,,,,,,,,,0,,,,88,101
17581,note_on,0,0,1,,,,,,,,,0,,,,76,101
17582,note_on,4,0,12,,,,,,,,,11,,,,64,112
17582,note_on,8,0,3,,,,,,,,,2,,,,76,101
17582,note_on,8,0,2,,,,,,,,,1,,,,76,100
17582,note_on,0,0,3,,,,,,,,,2,,,,64,101
17583,note_on,8,0,6,,,,,,,,,5,,,,64,100
17583,note_on,11,0,14,,,,,,,,,13,,,,53,0
17585,note_on,11,0,15,,,,,,,,,14,,,,41,0
17585,note_on,4,0,13,,,,,,,,,12,,,,64,112
17587,note_on,4,0,14,,,,,,,,,13,,,,52,112
17587,note_on,8,0,4,,,,,,,,,3,,,,52,100
17589,note_on,4,0,15,,,,,,,,,14,,,,40,112
17610,note_on,30,0,11,,,,,,,,,10,,,,76,0
17611,note_on,30,0,1,,,,,,,,,0,,,,76,0
17611,note_on,0,0,1,,,,,,,,,0,,,,88,0
17611,note_on,30,0,5,,,,,,,,,4,,,,64,0
17612,note_on,0,0,3,,,,,,,,,2,,,,76,0
17612,note_on,30,0,3,,,,,,,,,2,,,,64,0
17612,note_on,30,0,2,,,,,,,,,1,,,,76,0
17612,note_on,30,0,12,,,,,,,,,11,,,,64,0
17613,note_on,30,0,6,,,,,,,,,5,,,,64,0
17615,note_on,30,0,13,,,,,,,,,12,,,,64,0
17617,note_on,30,0,4,,,,,,,,,3,,,,52,0
17617,note_on,30,0,14,,,,,,,,,13,,,,52,0
17619,note_on,30,0,15,,,,,,,,,14,,,,40,0
17625,note_on,15,0,11,,,,,,,,,10,,,,72,112
17626,note_on,15,0,5,,,,,,,,,4,,,,60,100
17626,note_on,0,0,1,,,,,,,,,0,,,,84,101
17626,note_on,15,0,1,,,,,,,,,0,,,,72,101
17627,note_on,15,0,2,,,,,,,,,1,,,,72,100
17627,note_on,0,0,3,,,,,,,,,2,,,,60,101
17627,note_on,15,0,3,,,,,,,,,2,,,,72,101
17627,note_on,15,0,12,,,,,,,,,11,,,,60,112
17628,note_on,15,0,6,,,,,,,,,5,,,,60,100
17630,note_on,15,0,13,,,,,,,,,12,,,,60,112
17632,note_on,15,0,14,,,,,,,,,13,,,,48,112
17632,note_on,15,0,4,,,,,,,,,3,,,,48,100
17633,note_on,0,0,1,,,,,,,,,0,,,,72,0
17633,note_on,7,0,5,,,,,,,,,4,,,,60,0
17633,note_on,7,0,1,,,,,,,,,0,,,,84,0
17634,note_on,0,0,3,,,,,,,,,2,,,,72,0
17634,note_on,7,0,2,,,,,,,,,1,,,,72,0
17634,note_on,7,0,3,,,,,,,,,2,,,,60,0
17634,note_on,15,0,15,,,,,,,,,14,,,,36,112
17635,note_on,7,0,6,,,,,,,,,5,,,,60,0
17636,note_on,11,0,11,,,,,,,,,10,,,,72,0
17638,note_on,11,0,12,,,,,,,,,11,,,,60,0
17639,note_on,7,0,4,,,,,,,,,3,,,,48,0
17640,note_on,4,0,11,,,,,,,,,10,,,,79,112
17640,set_tempo,60,1,0,,,,,,1100917,,,,,,,,
17641,note_on,8,0,5,,,,,,,,,4,,,,67,100
17641,note_on,11,0,13,,,,,,,,,12,,,,60,0
17641,note_on,0,0,1,,,,,,,,,0,,,,91,101
17641,note_on,8,0,1,,,,,,,,,0,,,,79,101
17642,note_on,0,0,3,,,,,,,,,2,,,,67,101
17642,note_on,8,0,3,,,,,,,,,2,,,,79,101
17642,note_on,4,0,12,,,,,,,,,11,,,,67,112
17642,note_on,8,0,2,,,,,,,,,1,,,,79,100
17643,note_on,11,0,14,,,,,,,,,13,,,,48,0
17643,note_on,8,0,6,,,,,,,,,5,,,,67,100
17645,note_on,11,0,15,,,,,,,,,14,,,,36,0
17645,note_on,4,0,13,,,,,,,,,12,,,,67,112
17647,note_on,4,0,14,,,,,,,,,13,,,,55,112
17647,note_on,8,0,4,,,,,,,,,3,,,,55,100
17649,note_on,4,0,15,,,,,,,,,14,,,,43,112
17670,note_on,30,0,11,,,,,,,,,10,,,,79,0
17671,note_on,30,0,5,,,,,,,,,4,,,,67,0
17671,note_on,0,0,1,,,,,,,,,0,,,,79,0
17671,note_on,30,0,1,,,,,,,,,0,,,,91,0
17672,note_on,30,0,12,,,,,,,,,11,,,,67,0
17672,note_on,0,0,3,,,,,,,,,2,,,,79,0
17672,note_on,30,0,3,,,,,,,,,2,,,,67,0
17672,note_on,30,0,2,,,,,,,,,1,,,,79,0
17673,note_on,30,0,6,,,,,,,,,5,,,,67,0
17675,note_on,30,0,13,,,,,,,,,12,,,,67,0
17677,note_on,30,0,14,,,,,,,,,13,,,,55,0
17677,note_on,30,0,4,,,,,,,,,3,,,,55,0
17679,note_on,30,0,15,,,,,,,,,14,,,,43,0
17685,note_on,15,0,11,,,,,,,,,10,,,,77,112
17686,note_on,0,0,1,,,,,,,,,0,,,,77,101
17686,note_on,15,0,5,,,,,,,,,4,,,,65,100
17686,note_on,15,0,1,,,,,,,,,0,,,,89,101
17687,note_on,0,0,3,,,,,,,,,2,,,,64,101
17687,note_on,15,0,3,,,,,,,,,2,,,,77,101
17687,note_on,15,0,2,,,,,,,,,1,,,,77,100
17687,note_on,15,0,12,,,,,,,,,11,,,,65,112
17688,note_on,15,0,6,,,,,,,,,5,,,,65,100
17690,note_on,15,0,13,,,,,,,,,12,,,,65,112
17692,note_on,15,0,14,,,,,,,,,13,,,,53,112
17692,note_on,15,0,4,,,,,,,,,3,,,,53,100
17693,note_on,7,0,1,,,,,,,,,0,,,,77,0
17693,note_on,0,0,1,,,,,,,,,0,,,,89,0
17693,note_on,7,0,5,,,,,,,,,4,,,,65,0
17694,note_on,15,0,15,,,,,,,,,14,,,,41,112
17694,note_on,7,0,3,,,,,,,,,2,,,,64,0
17694,note_on,7,0,2,,,,,,,,,1,,,,77,0
17694,note_on,0,0,3,,,,,,,,,2,,,,77,0
17695,note_on,7,0,6,,,,,,,,,5,,,,65,0
17696,note_on,11,0,11,,,,,,,,,10,,,,77,0
17698,note_on,11,0,12,,,,,,,,,11,,,,65,0
17699,note_on,7,0,4,,,,,,,,,3,,,,53,0
17700,note_on,4,0,11,,,,,,,,,10,,,,76,112
17700,set_tempo,60,1,0,,,,,,1111111,,,,,,,,
17701,note_on,11,0,13,,,,,,,,,12,,,,65,0
17701,note_on,0,0,1,,,,,,,,,0,,,,88,101
17701,note_on,8,0,1,,,,,,,,,0,,,,76,101
17701,note_on,8,0,5,,,,,,,,,4,,,,64,100
17702,note_on,8,0,2,,,,,,,,,1,,,,76,100
17702,note_on,4,0,12,,,,,,,,,11,,,,64,112
17702,note_on,0,0,3,,,,,,,,,2,,,,76,101
17702,note_on,8,0,3,,,,,,,,,2,,,,64,101
17703,note_on,11,0,14,,,,,,,,,13,,,,53,0
17703,note_on,8,0,6,,,,,,,,,5,,,,64,100
17705,note_on,4,0,13,,,,,,,,,12,,,,64,112
17705,note_on,11,0,15,,,,,,,,,14,,,,41,0
17707,note_on,4,0,14,,,,,,,,,13,,,,52,112
17707,note_on,8,0,4,,,,,,,,,3,,,,52,100
17709,note_on,4,0,15,,,,,,,,,14,,,,40,112
17730,note_on,30,0,11,,,,,,,,,10,,,,76,0
17731,note_on,30,0,5,,,,,,,,,4,,,,64,0
17731,note_on,30,0,1,,,,,,,,,0,,,,88,0
17731,note_on,0,0,1,,,,,,,,,0,,,,76,0
17732,note_on,0,0,3,,,,,,,,,2,,,,64,0
17732,note_on,30,0,3,,,,,,,,,2,,,,76,0
17732,note_on,30,0,2,,,,,,,,,1,,,,76,0
17732,note_on,30,0,12,,,,,,,,,11,,,,64,0
17733,note_on,30,0,6,,,,,,,,,5,,,,64,0
17735,note_on,30,0,13,,,,,,,,,12,,,,64,0
17737,note_on,30,0,4,,,,,,,,,3,,,,52,0
17737,note_on,30,0,14,,,,,,,,,13,,,,52,0
17739,note_on,30,0,15,,,,,,,,,14,,,,40,0
17745,note_on,15,0,11,,,,,,,,,10,,,,72,112
17746,note_on,15,0,5,,,,,,,,,4,,,,60,100
17746,note_on,15,0,1,,,,,,,,,0,,,,72,101
17746,note_on,0,0,1,,,,,,,,,0,,,,84,101
17747,note_on,0,0,3,,,,,,,,,2,,,,60,101
17747,note_on,15,0,2,,,,,,,,,1,,,,72,100
17747,note_on,15,0,12,,,,,,,,,11,,,,60,112
17747,note_on,15,0,3,,,,,,,,,2,,,,72,101
17748,note_on,15,0,6,,,,,,,,,5,,,,60,100
17750,note_on,15,0,13,,,,,,,,,12,,,,60,112
17752,note_on,15,0,4,,,,,,,,,3,,,,48,100
17752,note_on,15,0,14,,,,,,,,,13,,,,48,112
17753,note_on,7,0,1,,,,,,,,,0,,,,84,0
17753,note_on,0,0,1,,,,,,,,,0,,,,72,0
17753,note_on,7,0,5,,,,,,,,,4,,,,60,0
17754,note_on,15,0,15,,,,,,,,,14,,,,36,112
17754,note_on,0,0,3,,,,,,,,,2,,,,72,0
17754,note_on,7,0,3,,,,,,,,,2,,,,60,0
17754,note_on,7,0,2,,,,,,,,,1,,,,72,0
17755,note_on,7,0,6,,,,,,,,,5,,,,60,0
17756,note_on,11,0,11,,,,,,,,,10,,,,72,0
17758,note_on,11,0,12,,,,,,,,,11,,,,60,0
17759,note_on,7,0,4,,,,,,,,,3,,,,48,0
17760,note_on,4,0,11,,,,,,,,,10,,,,79,122
17760,set_tempo,60,1,0,,,,,,1165049,,,,,,,,
17761,note_on,8,0,5,,,,,,,,,4,,,,67,110
17761,note_on,0,0,1,,,,,,,,,0,,,,79,111
17761,note_on,11,0,13,,,,,,,,,12,,,,60,0
17761,note_on,8,0,1,,,,,,,,,0,,,,91,111
17762,note_on,4,0,12,,,,,,,,,11,,,,67,122
17762,note_on,0,0,2,,,,,,,,,1,,,,79,110
17762,note_on,8,0,2,,,,,,,,,1,,,,67,110
17762,note_on,0,0,3,,,,,,,,,2,,,,67,111
17762,note_on,8,0,3,,,,,,,,,2,,,,79,111
17763,note_on,8,0,6,,,,,,,,,5,,,,55,110
17763,note_on,11,0,14,,,,,,,,,13,,,,48,0
17764,note_on,0,0,8,,,,,,,,,7,,,,55,120
17764,note_on,390,0,8,,,,,,,,,7,,,,67,120
17765,note_on,4,0,13,,,,,,,,,12,,,,67,122
17765,note_on,11,0,15,,,,,,,,,14,,,,36,0
17766,note_on,390,0,9,,,,,,,,,8,,,,43,120
17767,note_on,4,0,14,,,,,,,,,13,,,,55,122
17767,note_on,8,0,4,,,,,,,,,3,,,,55,110
17769,note_on,4,0,15,,,,,,,,,14,,,,43,122
17820,set_tempo,60,1,0,,,,,,1071429,,,,,,,,
17865,note_on,105,0,11,,,,,,,,,10,,,,79,0
17867,note_on,105,0,12,,,,,,,,,11,,,,67,0
17870,note_on,105,0,13,,,,,,,,,12,,,,67,0
17872,note_on,105,0,14,,,,,,,,,13,,,,55,0
17873,note_on,112,0,5,,,,,,,,,4,,,,67,0
17873,note_on,0,0,1,,,,,,,,,0,,,,91,0
17873,note_on,112,0,1,,,,,,,,,0,,,,79,0
17874,note_on,0,0,2,,,,,,,,,1,,,,67,0
17874,note_on,112,0,2,,,,,,,,,1,,,,79,0
17874,note_on,112,0,3,,,,,,,,,2,,,,67,0
17874,note_on,0,0,3,,,,,,,,,2,,,,79,0
17874,note_on,105,0,15,,,,,,,,,14,,,,43,0
17875,note_on,112,0,6,,,,,,,,,5,,,,55,0
17876,note_on,0,0,8,,,,,,,,,7,,,,67,0
17876,note_on,112,0,8,,,,,,,,,7,,,,55,0
17878,note_on,112,0,9,,,,,,,,,8,,,,43,0
17879,note_on,112,0,4,,,,,,,,,3,,,,55,0
17880,note_on,15,0,11,,,,,,,,,10,,,,79,122
17880,set_tempo,60,1,0,,,,,,1142857,,,,,,,,
17881,note_on,0,0,1,,,,,,,,,0,,,,79,111
17881,note_on,8,0,1,,,,,,,,,0,,,,91,111
17881,note_on,8,0,5,,,,,,,,,4,,,,67,110
17882,note_on,8,0,2,,,,,,,,,1,,,,67,110
17882,note_on,8,0,3,,,,,,,,,2,,,,79,111
17882,note_on,0,0,3,,,,,,,,,2,,,,67,111
17882,note_on,0,0,2,,,,,,,,,1,,,,79,110
17882,note_on,15,0,12,,,,,,,,,11,,,,67,122
17883,note_on,8,0,6,,,,,,,,,5,,,,55,110
17884,note_on,8,0,8,,,,,,,,,7,,,,67,120
17884,note_on,0,0,8,,,,,,,,,7,,,,55,120
17885,note_on,15,0,13,,,,,,,,,12,,,,67,122
17886,note_on,8,0,9,,,,,,,,,8,,,,43,120
17887,note_on,8,0,4,,,,,,,,,3,,,,55,110
17887,note_on,15,0,14,,,,,,,,,13,,,,55,122
17889,note_on,15,0,15,,,,,,,,,14,,,,43,122
17940,set_tempo,60,1,0,,,,,,1276596,,,,,,,,
17970,set_tempo,30,1,0,,,,,,1500000,,,,,,,,
17985,note_on,105,0,11,,,,,,,,,10,,,,79,0
17987,note_on,105,0,12,,,,,,,,,11,,,,67,0
17990,note_on,105,0,13,,,,,,,,,12,,,,67,0
17992,note_on,105,0,14,,,,,,,,,13,,,,55,0
17993,note_on,0,0,1,,,,,,,,,0,,,,91,0
17993,note_on,112,0,1,,,,,,,,,0,,,,79,0
17993,note_on,112,0,5,,,,,,,,,4,,,,67,0
17994,note_on,112,0,3,,,,,,,,,2,,,,67,0
17994,note_on,0,0,2,,,,,,,,,1,,,,67,0
17994,note_on,112,0,2,,,,,,,,,1,,,,79,0
17994,note_on,0,0,3,,,,,,,,,2,,,,79,0
17994,note_on,105,0,15,,,,,,,,,14,,,,43,0
17995,note_on,112,0,6,,,,,,,,,5,,,,55,0
17996,note_on,112,0,8,,,,,,,,,7,,,,55,0
17996,note_on,0,0,8,,,,,,,,,7,,,,67,0
17998,note_on,112,0,9,,,,,,,,,8,,,,43,0
17999,note_on,112,0,4,,,,,,,,,3,,,,55,0
18000,set_tempo,30,1,0,,,,,,1165049,,,,,,,,
18001,control_change,8,0,5,,,,,,,,,4,11,37,,,
18001,note_on,0,0,1,,,,,,,,,0,,,,80,111
18001,control_change,8,0,1,,,,,,,,,0,11,37,,,
18001,note_on,0,0,5,,,,,,,,,4,,,,62,110
18002,control_change,8,0,2,,,,,,,,,1,11,37,,,
18002,note_on,0,0,3,,,,,,,,,2,,,,68,111
18002,control_change,8,0,3,,,,,,,,,2,11,37,,,
18002,note_on,0,0,2,,,,,,,,,1,,,,76,110
18002,note_on,0,0,2,,,,,,,,,1,,,,71,110
18003,control_change,8,0,6,,,,,,,,,5,11,37,,,
18003,note_on,0,0,6,,,,,,,,,5,,,,52,110
18007,control_change,8,0,4,,,,,,,,,3,11,37,,,
18007,note_on,0,0,4,,,,,,,,,3,,,,59,110
18007,note_on,0,0,4,,,,,,,,,3,,,,64,110
18019,control_change,18,0,5,,,,,,,,,4,11,40,,,
18019,control_change,18,0,1,,,,,,,,,0,11,40,,,
18020,control_change,18,0,3,,,,,,,,,2,11,40,,,
18020,control_change,18,0,2,,,,,,,,,1,11,40,,,
18021,control_change,18,0,6,,,,,,,,,5,11,40,,,
18025,control_change,18,0,4,,,,,,,,,3,11,40,,,
18037,control_change,18,0,5,,,,,,,,,4,11,43,,,
18037,control_change,18,0,1,,,,,,,,,0,11,43,,,
18038,control_change,18,0,2,,,,,,,,,1,11,43,,,
18038,control_change,18,0,3,,,,,,,,,2,11,43,,,
18039,control_change,18,0,6,,,,,,,,,5,11,43,,,
18043,control_change,18,0,4,,,,,,,,,3,11,43,,,
18055,control_change,18,0,5,,,,,,,,,4,11,46,,,
18055,control_change,18,0,1,,,,,,,,,0,11,46,,,
18056,control_change,18,0,3,,,,,,,,,2,11,46,,,
18056,control_change,18,0,2,,,,,,,,,1,11,46,,,
18057,control_change,18,0,6,,,,,,,,,5,11,46,,,
18061,control_change,18,0,4,,,,,,,,,3,11,46,,,
18113,note_on,58,0,5,,,,,,,,,4,,,,62,0
18113,note_on,58,0,1,,,,,,,,,0,,,,80,0
18114,note_on,58,0,2,,,,,,,,,1,,,,76,0
18114,note_on,0,0,2,,,,,,,,,1,,,,71,0
18114,note_on,58,0,3,,,,,,,,,2,,,,68,0
18115,note_on,58,0,6,,,,,,,,,5,,,,52,0
18119,note_on,0,0,4,,,,,,,,,3,,,,59,0
18119,note_on,58,0,4,,,,,,,,,3,,,,64,0
18120,set_tempo,120,1,0,,,,,,1188119,,,,,,,,
18121,note_on,8,0,5,,,,,,,,,4,,,,62,110
18121,note_on,8,0,1,,,,,,,,,0,,,,80,111
18122,note_on,8,0,2,,,,,,,,,1,,,,71,110
18122,note_on,0,0,2,,,,,,,,,1,,,,76,110
18122,note_on,8,0,3,,,,,,,,,2,,,,68,111
18123,note_on,8,0,6,,,,,,,,,5,,,,52,110
18127,note_on,8,0,4,,,,,,,,,3,,,,64,110
18127,note_on,0,0,4,,,,,,,,,3,,,,59,110
18210,set_tempo,90,1,0,,,,,,1348315,,,,,,,,
18233,note_on,112,0,5,,,,,,,,,4,,,,62,0
18233,note_on,112,0,1,,,,,,,,,0,,,,80,0
18234,note_on,0,0,2,,,,,,,,,1,,,,71,0
18234,note_on,112,0,3,,,,,,,,,2,,,,68,0
18234,note_on,112,0,2,,,,,,,,,1,,,,76,0
18235,note_on,112,0,6,,,,,,,,,5,,,,52,0
18239,note_on,112,0,4,,,,,,,,,3,,,,59,0
18239,note_on,0,0,4,,,,,,,,,3,,,,64,0
18240,set_tempo,30,1,0,,,,,,1200000,,,,,,,,
18240,control_change,255,0,11,,,,,,,,,10,11,36,,,
18240,note_on,0,0,11,,,,,,,,,10,,,,64,112
18241,note_on,8,0,1,,,,,,,,,0,,,,81,101
18241,note_on,8,0,5,,,,,,,,,4,,,,60,110
18242,control_change,255,0,12,,,,,,,,,11,11,36,,,
18242,note_on,8,0,3,,,,,,,,,2,,,,69,101
18242,note_on,0,0,2,,,,,,,,,1,,,,76,110
18242,note_on,0,0,12,,,,,,,,,11,,,,60,112
18242,note_on,0,0,2,,,,,,,,,1,,,,72,110
18242,control_change,8,0,2,,,,,,,,,1,11,47,,,
18243,note_on,8,0,6,,,,,,,,,5,,,,57,110
18245,control_change,255,0,13,,,,,,,,,12,11,36,,,
18245,note_on,0,0,13,,,,,,,,,12,,,,57,112
18247,note_on,0,0,4,,,,,,,,,3,,,,60,110
18247,note_on,0,0,4,,,,,,,,,3,,,,64,110
18247,control_change,255,0,14,,,,,,,,,13,11,36,,,
18247,note_on,0,0,14,,,,,,,,,13,,,,45,112
18247,control_change,8,0,4,,,,,,,,,3,11,47,,,
18249,note_on,0,0,15,,,,,,,,,14,,,,33,112
18249,control_change,255,0,15,,,,,,,,,14,11,36,,,
18254,control_change,12,0,2,,,,,,,,,1,11,50,,,
18259,control_change,12,0,4,,,,,,,,,3,11,50,,,
18266,control_change,12,0,2,,,,,,,,,1,11,53,,,
18270,note_on,30,0,11,,,,,,,,,10,,,,64,0
18271,control_change,12,0,4,,,,,,,,,3,11,53,,,
18272,note_on,30,0,12,,,,,,,,,11,,,,60,0
18275,note_on,30,0,13,,,,,,,,,12,,,,57,0
18277,note_on,30,0,14,,,,,,,,,13,,,,45,0
18278,control_change,12,0,2,,,,,,,,,1,11,56,,,
18279,note_on,30,0,15,,,,,,,,,14,,,,33,0
18283,control_change,12,0,4,,,,,,,,,3,11,56,,,
18295,control_change,12,0,4,,,,,,,,,3,11,59,,,
18300,set_tempo,60,1,0,,,,,,1111111,,,,,,,,
18300,note_on,30,0,11,,,,,,,,,10,,,,64,112
18301,note_on,60,0,1,,,,,,,,,0,,,,81,0
18302,note_on,60,0,3,,,,,,,,,2,,,,69,0
18302,note_on,30,0,12,,,,,,,,,11,,,,60,112
18302,control_change,24,0,2,,,,,,,,,1,11,60,,,
18305,note_on,30,0,13,,,,,,,,,12,,,,57,112
18307,control_change,12,0,4,,,,,,,,,3,11,62,,,
18330,note_on,30,0,11,,,,,,,,,10,,,,64,0
18332,note_on,30,0,12,,,,,,,,,11,,,,60,0
18335,note_on,30,0,13,,,,,,,,,12,,,,57,0
18360,set_tempo,60,1,0,,,,,,1188119,,,,,,,,
18360,note_on,30,0,11,,,,,,,,,10,,,,64,112
18361,note_on,120,0,5,,,,,,,,,4,,,,60,0
18362,note_on,0,0,2,,,,,,,,,1,,,,74,100
18362,note_on,30,0,12,,,,,,,,,11,,,,60,112
18362,note_on,0,0,2,,,,,,,,,1,,,,72,0
18362,note_on,60,0,2,,,,,,,,,1,,,,76,0
18362,note_on,0,0,2,,,,,,,,,1,,,,69,100
18363,note_on,120,0,6,,,,,,,,,5,,,,57,0
18365,note_on,30,0,13,,,,,,,,,12,,,,57,112
18367,note_on,0,0,4,,,,,,,,,3,,,,62,100
18367,note_on,0,0,4,,,,,,,,,3,,,,57,100
18367,note_on,0,0,4,,,,,,,,,3,,,,60,0
18367,note_on,60,0,4,,,,,,,,,3,,,,64,0
18372,note_on,0,0,2,,,,,,,,,1,,,,72,100
18372,note_on,10,0,2,,,,,,,,,1,,,,74,0
18372,note_on,0,0,2,,,,,,,,,1,,,,69,0
18377,note_on,10,0,4,,,,,,,,,3,,,,62,0
18377,note_on,0,0,4,,,,,,,,,3,,,,57,0
18377,note_on,0,0,4,,,,,,,,,3,,,,60,100
18390,note_on,30,0,11,,,,,,,,,10,,,,64,0
18392,note_on,20,0,2,,,,,,,,,1,,,,72,0
18392,note_on,30,0,12,,,,,,,,,11,,,,60,0
18395,note_on,30,0,13,,,,,,,,,12,,,,57,0
18397,note_on,20,0,4,,,,,,,,,3,,,,60,0
18407,note_on,15,0,2,,,,,,,,,1,,,,68,100
18407,note_on,0,0,2,,,,,,,,,1,,,,71,100
18412,note_on,15,0,4,,,,,,,,,3,,,,56,100
18412,note_on,0,0,4,,,,,,,,,3,,,,59,100
18414,note_on,7,0,2,,,,,,,,,1,,,,71,0
18414,note_on,0,0,2,,,,,,,,,1,,,,68,0
18419,note_on,7,0,4,,,,,,,,,3,,,,59,0
18419,note_on,0,0,4,,,,,,,,,3,,,,56,0
18420,set_tempo,60,1,0,,,,,,1111111,,,,,,,,
18420,note_on,30,0,11,,,,,,,,,10,,,,64,112
18422,note_on,8,0,2,,,,,,,,,1,,,,69,100
18422,note_on,30,0,12,,,,,,,,,11,,,,60,112
18422,note_on,0,0,2,,,,,,,,,1,,,,72,100
18425,note_on,30,0,13,,,,,,,,,12,,,,57,112
18427,note_on,8,0,4,,,,,,,,,3,,,,57,100
18427,note_on,0,0,4,,,,,,,,,3,,,,60,100
18442,note_on,0,0,2,,,,,,,,,1,,,,69,0
18442,note_on,20,0,2,,,,,,,,,1,,,,72,0
18447,note_on,0,0,4,,,,,,,,,3,,,,57,0
18447,note_on,20,0,4,,,,,,,,,3,,,,60,0
18450,note_on,30,0,11,,,,,,,,,10,,,,64,0
18452,note_on,30,0,12,,,,,,,,,11,,,,60,0
18455,note_on,30,0,13,,,,,,,,,12,,,,57,0
18467,note_on,0,0,2,,,,,,,,,1,,,,74,100
18467,note_on,25,0,2,,,,,,,,,1,,,,71,100
18472,note_on,0,0,4,,,,,,,,,3,,,,62,100
18472,note_on,25,0,4,,,,,,,,,3,,,,59,100
18474,note_on,7,0,2,,,,,,,,,1,,,,74,0
18474,note_on,0,0,2,,,,,,,,,1,,,,71,0
18479,note_on,0,0,4,,,,,,,,,3,,,,59,0
18479,note_on,7,0,4,,,,,,,,,3,,,,62,0
18480,set_tempo,60,1,0,,,,,,1200000,,,,,,,,
18480,note_on,30,0,11,,,,,,,,,10,,,,64,112
18481,note_on,120,0,5,,,,,,,,,4,,,,64,100
18482,note_on,30,0,12,,,,,,,,,11,,,,60,112
18482,note_on,0,0,2,,,,,,,,,1,,,,72,100
18482,note_on,8,0,2,,,,,,,,,1,,,,76,100
18483,note_on,120,0,6,,,,,,,,,5,,,,57,100
18485,note_on,30,0,13,,,,,,,,,12,,,,57,112
18487,note_on,8,0,4,,,,,,,,,3,,,,64,100
18487,note_on,210,0,14,,,,,,,,,13,,,,45,112
18487,note_on,0,0,4,,,,,,,,,3,,,,60,100
18489,note_on,210,0,15,,,,,,,,,14,,,,33,112
18510,note_on,30,0,11,,,,,,,,,10,,,,64,0
18512,note_on,30,0,12,,,,,,,,,11,,,,60,0
18515,note_on,30,0,13,,,,,,,,,12,,,,57,0
18517,note_on,30,0,14,,,,,,,,,13,,,,45,0
18519,note_on,30,0,15,,,,,,,,,14,,,,33,0
18540,note_on,30,0,11,,,,,,,,,10,,,,64,112
18540,set_tempo,60,1,0,,,,,,1111111,,,,,,,,
18542,note_on,30,0,12,,,,,,,,,11,,,,60,112
18542,note_on,0,0,2,,,,,,,,,1,,,,81,100
18542,note_on,60,0,2,,,,,,,,,1,,,,76,0
18545,note_on,30,0,13,,,,,,,,,12,,,,57,112
18547,note_on,60,0,4,,,,,,,,,3,,,,64,0
18547,note_on,0,0,4,,,,,,,,,3,,,,69,100
18570,note_on,30,0,11,,,,,,,,,10,,,,64,0
18572,note_on,30,0,2,,,,,,,,,1,,,,81,0
18572,note_on,30,0,12,,,,,,,,,11,,,,60,0
18575,note_on,30,0,13,,,,,,,,,12,,,,57,0
18577,note_on,30,0,4,,,,,,,,,3,,,,69,0
18591,note_on,110,0,5,,,,,,,,,4,,,,64,0
18593,note_on,110,0,6,,,,,,,,,5,,,,57,0
18600,set_tempo,60,1,0,,,,,,1188119,,,,,,,,
18600,note_on,30,0,11,,,,,,,,,10,,,,64,112
18601,note_on,10,0,5,,,,,,,,,4,,,,64,100
18602,note_on,30,0,2,,,,,,,,,1,,,,72,0
18602,note_on,0,0,2,,,,,,,,,1,,,,72,100
18602,note_on,0,0,2,,,,,,,,,1,,,,69,100
18602,note_on,30,0,12,,,,,,,,,11,,,,60,112
18603,note_on,10,0,6,,,,,,,,,5,,,,57,100
18605,note_on,30,0,13,,,,,,,,,12,,,,52,112
18607,note_on,0,0,4,,,,,,,,,3,,,,57,100
18607,note_on,90,0,14,,,,,,,,,13,,,,45,112
18607,note_on,0,0,4,,,,,,,,,3,,,,60,100
18607,note_on,30,0,4,,,,,,,,,3,,,,60,0
18609,note_on,90,0,15,,,,,,,,,14,,,,33,112
18630,note_on,30,0,11,,,,,,,,,10,,,,64,0
18631,note_on,30,0,5,,,,,,,,,4,,,,64,0
18632,note_on,30,0,2,,,,,,,,,1,,,,69,0
18632,note_on,0,0,2,,,,,,,,,1,,,,72,0
18632,note_on,30,0,12,,,,,,,,,11,,,,60,0
18633,note_on,30,0,6,,,,,,,,,5,,,,57,0
18635,note_on,30,0,13,,,,,,,,,12,,,,52,0
18637,note_on,0,0,4,,,,,,,,,3,,,,57,0
18637,note_on,30,0,4,,,,,,,,,3,,,,60,0
18637,note_on,30,0,14,,,,,,,,,13,,,,45,0
18639,note_on,30,0,15,,,,,,,,,14,,,,33,0
18660,note_on,30,0,11,,,,,,,,,10,,,,65,112
18660,set_tempo,60,1,0,,,,,,1111111,,,,,,,,
18661,note_on,30,0,5,,,,,,,,,4,,,,67,100
18662,note_on,30,0,12,,,,,,,,,11,,,,59,112
18662,note_on,30,0,2,,,,,,,,,1,,,,76,100
18662,note_on,0,0,2,,,,,,,,,1,,,,71,100
18663,note_on,30,0,6,,,,,,,,,5,,,,55,100
18665,note_on,30,0,13,,,,,,,,,12,,,,55,112
18667,note_on,30,0,4,,,,,,,,,3,,,,65,100
18667,note_on,0,0,4,,,,,,,,,3,,,,55,100
18667,note_on,30,0,14,,,,,,,,,13,,,,43,112
18669,note_on,30,0,15,,,,,,,,,14,,,,31,112
18669,note_on,0,0,2,,,,,,,,,1,,,,74,100
18669,note_on,7,0,2,,,,,,,,,1,,,,76,0
18676,note_on,7,0,2,,,,,,,,,1,,,,74,0
18677,note_on,1,0,2,,,,,,,,,1,,,,76,100
18684,note_on,0,0,2,,,,,,,,,1,,,,74,100
18684,note_on,7,0,2,,,,,,,,,1,,,,76,0
18690,note_on,30,0,11,,,,,,,,,10,,,,65,0
18691,note_on,7,0,2,,,,,,,,,1,,,,74,0
18691,note_on,30,0,5,,,,,,,,,4,,,,67,0
18692,note_on,1,0,2,,,,,,,,,1,,,,76,100
18692,note_on,30,0,12,,,,,,,,,11,,,,59,0
18693,note_on,30,0,6,,,,,,,,,5,,,,55,0
18694,note_on,2,0,2,,,,,,,,,1,,,,71,0
18695,note_on,30,0,13,,,,,,,,,12,,,,55,0
18697,note_on,0,0,4,,,,,,,,,3,,,,65,0
18697,note_on,30,0,4,,,,,,,,,3,,,,55,0
18697,note_on,30,0,14,,,,,,,,,13,,,,43,0
18699,note_on,5,0,2,,,,,,,,,1,,,,76,0
18699,note_on,30,0,15,,,,,,,,,14,,,,31,0
18699,note_on,0,0,2,,,,,,,,,1,,,,74,100
18706,note_on,7,0,2,,,,,,,,,1,,,,74,0
18707,note_on,1,0,2,,,,,,,,,1,,,,76,100
18714,note_on,7,0,2,,,,,,,,,1,,,,76,0
18714,note_on,0,0,2,,,,,,,,,1,,,,74,100
18720,note_on,30,0,11,,,,,,,,,10,,,,64,112
18720,set_tempo,60,1,0,,,,,,1200000,,,,,,,,
18721,note_on,7,0,2,,,,,,,,,1,,,,74,0
18721,note_on,30,0,5,,,,,,,,,4,,,,67,110
18722,note_on,1,0,2,,,,,,,,,1,,,,72,110
18722,note_on,0,0,2,,,,,,,,,1,,,,76,110
18722,note_on,30,0,12,,,,,,,,,11,,,,60,112
18723,note_on,30,0,6,,,,,,,,,5,,,,60,110
18725,note_on,30,0,13,,,,,,,,,12,,,,55,112
18727,note_on,30,0,4,,,,,,,,,3,,,,64,110
18727,note_on,0,0,4,,,,,,,,,3,,,,60,110
18727,note_on,30,0,14,,,,,,,,,13,,,,48,112
18729,note_on,30,0,15,,,,,,,,,14,,,,36,112
18750,note_on,30,0,11,,,,,,,,,10,,,,64,0
18752,note_on,30,0,12,,,,,,,,,11,,,,60,0
18755,note_on,30,0,13,,,,,,,,,12,,,,55,0
18780,set_tempo,60,1,0,,,,,,1111111,,,,,,,,
18780,note_on,30,0,11,,,,,,,,,10,,,,64,112
18782,note_on,30,0,12,,,,,,,,,11,,,,60,112
18785,note_on,30,0,13,,,,,,,,,12,,,,55,112
18787,note_on,60,0,14,,,,,,,,,13,,,,48,0
18789,note_on,60,0,15,,,,,,,,,14,,,,36,0
18810,note_on,30,0,11,,,,,,,,,10,,,,64,0
18812,note_on,30,0,12,,,,,,,,,11,,,,60,0
18815,note_on,30,0,13,,,,,,,,,12,,,,55,0
18833,note_on,112,0,5,,,,,,,,,4,,,,67,0
18834,note_on,112,0,2,,,,,,,,,1,,,,76,0
18834,note_on,0,0,2,,,,,,,,,1,,,,72,0
18835,note_on,112,0,6,,,,,,,,,5,,,,60,0
18839,note_on,112,0,4,,,,,,,,,3,,,,60,0
18839,note_on,0,0,4,,,,,,,,,3,,,,64,0
18840,set_tempo,60,1,0,,,,,,1188119,,,,,,,,
18840,note_on,30,0,11,,,,,,,,,10,,,,64,112
18841,note_on,8,0,5,,,,,,,,,4,,,,67,110
18842,note_on,8,0,2,,,,,,,,,1,,,,76,110
18842,note_on,30,0,12,,,,,,,,,11,,,,60,112
18842,note_on,0,0,2,,,,,,,,,1,,,,72,110
18843,note_on,8,0,6,,,,,,,,,5,,,,60,110
18845,note_on,30,0,13,,,,,,,,,12,,,,55,112
18847,note_on,8,0,4,,,,,,,,,3,,,,60,110
18847,note_on,0,0,4,,,,,,,,,3,,,,64,110
18847,note_on,60,0,14,,,,,,,,,13,,,,48,112
18849,note_on,60,0,15,,,,,,,,,14,,,,36,112
18870,note_on,30,0,11,,,,,,,,,10,,,,64,0
18872,note_on,30,0,12,,,,,,,,,11,,,,60,0
18875,note_on,30,0,13,,,,,,,,,12,,,,55,0
18900,set_tempo,60,1,0,,,,,,1111111,,,,,,,,
18900,note_on,30,0,11,,,,,,,,,10,,,,64,112
18902,note_on,30,0,12,,,,,,,,,11,,,,60,112
18905,note_on,30,0,13,,,,,,,,,12,,,,55,112
18907,note_on,60,0,14,,,,,,,,,13,,,,48,0
18909,note_on,60,0,15,,,,,,,,,14,,,,36,0
18930,note_on,30,0,11,,,,,,,,,10,,,,64,0
18932,note_on,30,0,12,,,,,,,,,11,,,,60,0
18935,note_on,30,0,13,,,,,,,,,12,,,,55,0
18953,note_on,112,0,5,,,,,,,,,4,,,,67,0
18954,note_on,0,0,2,,,,,,,,,1,,,,76,0
18954,note_on,112,0,2,,,,,,,,,1,,,,72,0
18955,note_on,112,0,6,,,,,,,,,5,,,,60,0
18959,note_on,0,0,4,,,,,,,,,3,,,,60,0
18959,note_on,112,0,4,,,,,,,,,3,,,,64,0
18960,note_on,30,0,11,,,,,,,,,10,,,,65,112
18960,set_tempo,60,1,0,,,,,,1200000,,,,,,,,
18962,note_on,0,0,3,,,,,,,,,2,,,,77,101
18962,note_on,8,0,2,,,,,,,,,1,,,,71,100
18962,control_change,660,0,3,,,,,,,,,2,11,64,,,
18962,note_on,30,0,12,,,,,,,,,11,,,,59,112
18965,note_on,30,0,13,,,,,,,,,12,,,,55,112
18967,note_on,60,0,14,,,,,,,,,13,,,,43,112
18969,note_on,60,0,15,,,,,,,,,14,,,,31,122
18990,note_on,30,0,11,,,,,,,,,10,,,,65,0
18992,note_on,30,0,12,,,,,,,,,11,,,,59,0
18995,note_on,30,0,13,,,,,,,,,12,,,,55,0
19007,note_on,0,0,2,,,,,,,,,1,,,,72,100
19007,note_on,45,0,2,,,,,,,,,1,,,,71,0
19020,note_on,30,0,11,,,,,,,,,10,,,,65,112
19020,set_tempo,60,1,0,,,,,,1111111,,,,,,,,
19022,note_on,15,0,2,,,,,,,,,1,,,,72,0
19022,note_on,0,0,2,,,,,,,,,1,,,,74,100
19022,note_on,30,0,12,,,,,,,,,11,,,,59,112
19025,note_on,30,0,13,,,,,,,,,12,,,,55,112
19027,note_on,60,0,14,,,,,,,,,13,,,,43,0
19029,note_on,60,0,15,,,,,,,,,14,,,,31,0
19050,note_on,30,0,11,,,,,,,,,10,,,,65,0
19052,note_on,30,0,12,,,,,,,,,11,,,,59,0
19055,note_on,30,0,13,,,,,,,,,12,,,,55,0
19067,note_on,45,0,2,,,,,,,,,1,,,,74,0
19067,note_on,0,0,2,,,,,,,,,1,,,,72,100
19077,note_on,10,0,2,,,,,,,,,1,,,,72,0
19080,set_tempo,60,1,0,,,,,,1188119,,,,,,,,
19080,note_on,30,0,11,,,,,,,,,10,,,,65,112
19082,note_on,5,0,2,,,,,,,,,1,,,,71,100
19082,note_on,120,0,3,,,,,,,,,2,,,,77,0
19082,note_on,0,0,3,,,,,,,,,2,,,,81,101
19082,note_on,30,0,12,,,,,,,,,11,,,,59,112
19085,note_on,30,0,13,,,,,,,,,12,,,,55,112
19087,note_on,60,0,14,,,,,,,,,13,,,,43,112
19089,note_on,60,0,15,,,,,,,,,14,,,,31,112
19110,note_on,30,0,11,,,,,,,,,10,,,,65,0
19112,note_on,30,0,12,,,,,,,,,11,,,,59,0
19115,note_on,30,0,13,,,,,,,,,12,,,,55,0
19127,note_on,0,0,3,,,,,,,,,2,,,,80,101
19127,note_on,45,0,3,,,,,,,,,2,,,,81,0
19140,set_tempo,60,1,0,,,,,,1111111,,,,,,,,
19140,note_on,30,0,11,,,,,,,,,10,,,,65,112
19142,note_on,15,0,3,,,,,,,,,2,,,,80,0
19142,note_on,30,0,12,,,,,,,,,11,,,,59,112
19142,note_on,0,0,3,,,,,,,,,2,,,,81,101
19145,note_on,30,0,13,,,,,,,,,12,,,,55,112
19147,note_on,60,0,14,,,,,,,,,13,,,,43,0
19149,note_on,60,0,15,,,,,,,,,14,,,,31,0
19170,note_on,30,0,11,,,,,,,,,10,,,,65,0
19172,note_on,30,0,12,,,,,,,,,11,,,,59,0
19175,note_on,30,0,13,,,,,,,,,12,,,,55,0
19187,note_on,0,0,3,,,,,,,,,2,,,,77,101
19187,note_on,45,0,3,,,,,,,,,2,,,,81,0
19197,note_on,10,0,3,,,,,,,,,2,,,,77,0
19200,note_on,30,0,11,,,,,,,,,10,,,,64,112
19200,set_tempo,60,1,0,,,,,,1200000,,,,,,,,
19202,note_on,0,0,2,,,,,,,,,1,,,,72,100
19202,note_on,120,0,2,,,,,,,,,1,,,,71,0
19202,note_on,30,0,12,,,,,,,,,11,,,,60,112
19202,note_on,5,0,3,,,,,,,,,2,,,,76,101
19205,note_on,30,0,13,,,,,,,,,12,,,,55,112
19207,note_on,60,0,14,,,,,,,,,13,,,,48,112
19209,note_on,60,0,15,,,,,,,,,14,,,,36,122
19230,note_on,30,0,11,,,,,,,,,10,,,,64,0
19232,note_on,30,0,12,,,,,,,,,11,,,,60,0
19235,note_on,30,0,13,,,,,,,,,12,,,,55,0
19247,note_on,45,0,2,,,,,,,,,1,,,,72,0
19247,note_on,0,0,2,,,,,,,,,1,,,,71,100
19260,note_on,30,0,11,,,,,,,,,10,,,,64,112
19260,set_tempo,60,1,0,,,,,,1111111,,,,,,,,
19262,note_on,15,0,2,,,,,,,,,1,,,,71,0
19262,note_on,30,0,12,,,,,,,,,11,,,,60,112
19262,note_on,0,0,2,,,,,,,,,1,,,,72,100
19265,note_on,30,0,13,,,,,,,,,12,,,,55,112
19267,note_on,60,0,14,,,,,,,,,13,,,,48,0
19269,note_on,60,0,15,,,,,,,,,14,,,,36,0
19290,note_on,30,0,11,,,,,,,,,10,,,,64,0
19292,note_on,30,0,12,,,,,,,,,11,,,,60,0
19295,note_on,30,0,13,,,,,,,,,12,,,,55,0
19307,note_on,45,0,2,,,,,,,,,1,,,,72,0
19307,note_on,0,0,2,,,,,,,,,1,,,,74,100
19317,note_on,10,0,2,,,,,,,,,1,,,,74,0
19320,note_on,30,0,11,,,,,,,,,10,,,,64,112
19320,set_tempo,60,1,0,,,,,,1188119,,,,,,,,
19322,note_on,0,0,3,,,,,,,,,2,,,,79,101
19322,note_on,5,0,2,,,,,,,,,1,,,,76,100
19322,note_on,120,0,3,,,,,,,,,2,,,,76,0
19322,note_on,30,0,12,,,,,,,,,11,,,,60,112
19325,note_on,30,0,13,,,,,,,,,12,,,,55,112
19327,note_on,60,0,14,,,,,,,,,13,,,,48,112
19329,note_on,60,0,15,,,,,,,,,14,,,,36,112
19350,note_on,30,0,11,,,,,,,,,10,,,,64,0
19352,note_on,30,0,12,,,,,,,,,11,,,,60,0
19355,note_on,30,0,13,,,,,,,,,12,,,,55,0
19367,note_on,0,0,3,,,,,,,,,2,,,,78,101
19367,note_on,45,0,3,,,,,,,,,2,,,,79,0
19380,note_on,30,0,11,,,,,,,,,10,,,,64,112
19380,set_tempo,60,1,0,,,,,,1111111,,,,,,,,
19382,note_on,30,0,12,,,,,,,,,11,,,,60,112
19382,note_on,0,0,3,,,,,,,,,2,,,,79,101
19382,note_on,15,0,3,,,,,,,,,2,,,,78,0
19385,note_on,30,0,13,,,,,,,,,12,,,,55,112
19387,note_on,60,0,14,,,,,,,,,13,,,,48,0
19389,note_on,60,0,15,,,,,,,,,14,,,,36,0
19410,note_on,30,0,11,,,,,,,,,10,,,,64,0
19412,note_on,30,0,12,,,,,,,,,11,,,,60,0
19415,note_on,30,0,13,,,,,,,,,12,,,,55,0
19427,note_on,45,0,3,,,,,,,,,2,,,,79,0
19427,note_on,0,0,3,,,,,,,,,2,,,,76,101
19437,note_on,10,0,3,,,,,,,,,2,,,,76,0
19440,note_on,30,0,11,,,,,,,,,10,,,,64,112
19440,set_tempo,60,1,0,,,,,,1200000,,,,,,,,
19442,note_on,5,0,3,,,,,,,,,2,,,,72,101
19442,note_on,30,0,12,,,,,,,,,11,,,,60,112
19442,note_on,120,0,2,,,,,,,,,1,,,,76,0
19445,note_on,30,0,13,,,,,,,,,12,,,,57,112
19447,note_on,60,0,14,,,,,,,,,13,,,,45,112
19449,note_on,60,0,15,,,,,,,,,14,,,,33,112
19470,note_on,30,0,11,,,,,,,,,10,,,,64,0
19472,note_on,30,0,12,,,,,,,,,11,,,,60,0
19475,note_on,30,0,13,,,,,,,,,12,,,,57,0
19500,note_on,30,0,11,,,,,,,,,10,,,,64,112
19500,set_tempo,60,1,0,,,,,,1111111,,,,,,,,
19502,note_on,30,0,12,,,,,,,,,11,,,,60,112
19505,note_on,30,0,13,,,,,,,,,12,,,,57,112
19507,note_on,60,0,14,,,,,,,,,13,,,,45,0
19509,note_on,60,0,15,,,,,,,,,14,,,,33,0
19530,note_on,30,0,11,,,,,,,,,10,,,,64,0
19532,note_on,30,0,12,,,,,,,,,11,,,,60,0
19535,note_on,30,0,13,,,,,,,,,12,,,,57,0
19560,note_on,30,0,11,,,,,,,,,10,,,,65,112
19560,set_tempo,60,1,0,,,,,,1188119,,,,,,,,
19561,note_on,0,0,1,,,,,,,,,0,,,,83,101
19561,control_change,1260,0,1,,,,,,,,,0,11,64,,,
19562,note_on,30,0,12,,,,,,,,,11,,,,59,112
19562,note_on,120,0,3,,,,,,,,,2,,,,72,0
19562,note_on,0,0,3,,,,,,,,,2,,,,71,101
19565,note_on,30,0,13,,,,,,,,,12,,,,57,112
19567,note_on,60,0,14,,,,,,,,,13,,,,50,112
19569,note_on,60,0,15,,,,,,,,,14,,,,38,112
19582,note_on,15,0,14,,,,,,,,,13,,,,50,0
19584,note_on,15,0,15,,,,,,,,,14,,,,38,0
19590,note_on,30,0,11,,,,,,,,,10,,,,65,0
19591,note_on,0,0,1,,,,,,,,,0,,,,84,101
19591,note_on,30,0,1,,,,,,,,,0,,,,83,0
19592,note_on,30,0,3,,,,,,,,,2,,,,71,0
19592,note_on,0,0,3,,,,,,,,,2,,,,72,101
19592,note_on,30,0,12,,,,,,,,,11,,,,59,0
19595,note_on,30,0,13,,,,,,,,,12,,,,57,0
19597,note_on,15,0,14,,,,,,,,,13,,,,52,112
19599,note_on,15,0,15,,,,,,,,,14,,,,40,112
19612,note_on,15,0,14,,,,,,,,,13,,,,52,0
19614,note_on,15,0,15,,,,,,,,,14,,,,40,0
19620,note_on,30,0,11,,,,,,,,,10,,,,65,112
19620,set_tempo,60,1,0,,,,,,1111111,,,,,,,,
19621,note_on,30,0,1,,,,,,,,,0,,,,84,0
19621,note_on,0,0,1,,,,,,,,,0,,,,86,101
19622,note_on,30,0,3,,,,,,,,,2,,,,72,0
19622,note_on,0,0,3,,,,,,,,,2,,,,74,101
19622,note_on,30,0,12,,,,,,,,,11,,,,59,112
19625,note_on,30,0,13,,,,,,,,,12,,,,57,112
19627,note_on,15,0,14,,,,,,,,,13,,,,53,112
19629,note_on,15,0,15,,,,,,,,,14,,,,41,112
19642,note_on,15,0,14,,,,,,,,,13,,,,53,0
19644,note_on,15,0,15,,,,,,,,,14,,,,41,0
19650,note_on,30,0,11,,,,,,,,,10,,,,65,0
19651,note_on,30,0,1,,,,,,,,,0,,,,86,0
19651,note_on,0,0,1,,,,,,,,,0,,,,89,101
19652,note_on,0,0,3,,,,,,,,,2,,,,77,101
19652,note_on,30,0,3,,,,,,,,,2,,,,74,0
19652,note_on,30,0,12,,,,,,,,,11,,,,59,0
19655,note_on,30,0,13,,,,,,,,,12,,,,57,0
19657,note_on,15,0,14,,,,,,,,,13,,,,50,112
19659,note_on,15,0,15,,,,,,,,,14,,,,38,112
19672,note_on,15,0,14,,,,,,,,,13,,,,50,0
19674,note_on,15,0,15,,,,,,,,,14,,,,38,0
19676,note_on,25,0,1,,,,,,,,,0,,,,89,0
19677,note_on,25,0,3,,,,,,,,,2,,,,77,0
19680,set_tempo,60,1,0,,,,,,1200000,,,,,,,,
19680,control_change,30,0,11,,,,,,,,,10,11,36,,,
19680,note_on,0,0,11,,,,,,,,,10,,,,64,112
19681,control_change,728,0,5,,,,,,,,,4,11,37,,,
19681,note_on,0,0,5,,,,,,,,,4,,,,64,100
19681,note_on,5,0,1,,,,,,,,,0,,,,89,101
19682,control_change,240,0,2,,,,,,,,,1,11,37,,,
19682,note_on,5,0,3,,,,,,,,,2,,,,77,101
19682,control_change,2445,0,7,,,,,,,,,6,11,37,,,
19682,note_on,0,0,2,,,,,,,,,1,,,,64,100
19682,control_change,30,0,12,,,,,,,,,11,11,36,,,
19682,note_on,0,0,12,,,,,,,,,11,,,,60,112
19683,control_change,728,0,6,,,,,,,,,5,11,37,,,
19684,note_on,0,0,8,,,,,,,,,7,,,,64,110
19684,note_on,0,0,8,,,,,,,,,7,,,,60,110
19684,control_change,1688,0,8,,,,,,,,,7,11,37,,,
19685,control_change,30,0,13,,,,,,,,,12,11,36,,,
19685,note_on,0,0,13,,,,,,,,,12,,,,57,112
19686,control_change,1688,0,9,,,,,,,,,8,11,37,,,
19686,note_on,0,0,9,,,,,,,,,8,,,,52,110
19687,control_change,728,0,4,,,,,,,,,3,11,37,,,
19687,note_on,0,0,4,,,,,,,,,3,,,,52,100
19687,control_change,15,0,14,,,,,,,,,13,11,36,,,
19687,note_on,0,0,14,,,,,,,,,13,,,,52,112
19689,note_on,0,0,15,,,,,,,,,14,,,,40,112
19689,control_change,15,0,15,,,,,,,,,14,11,36,,,
19691,note_on,10,0,1,,,,,,,,,0,,,,89,0
19691,note_on,0,0,1,,,,,,,,,0,,,,88,111
19692,note_on,10,0,3,,,,,,,,,2,,,,77,0
19692,note_on,0,0,3,,,,,,,,,2,,,,76,111
19694,control_change,14,0,11,,,,,,,,,10,11,39,,,
19696,control_change,14,0,12,,,,,,,,,11,11,39,,,
19698,control_change,17,0,5,,,,,,,,,4,11,40,,,
19699,control_change,17,0,2,,,,,,,,,1,11,40,,,
19699,control_change,17,0,7,,,,,,,,,6,11,40,,,
19699,control_change,14,0,13,,,,,,,,,12,11,39,,,
19700,control_change,17,0,6,,,,,,,,,5,11,40,,,
19701,control_change,17,0,8,,,,,,,,,7,11,40,,,
19701,control_change,14,0,14,,,,,,,,,13,11,39,,,
19703,control_change,14,0,15,,,,,,,,,14,11,39,,,
19703,control_change,17,0,9,,,,,,,,,8,11,40,,,
19704,control_change,17,0,4,,,,,,,,,3,11,40,,,
19708,control_change,14,0,11,,,,,,,,,10,11,42,,,
19710,note_on,2,0,11,,,,,,,,,10,,,,64,0
19710,control_change,14,0,12,,,,,,,,,11,11,42,,,
19712,note_on,0,0,2,,,,,,,,,1,,,,69,100
19712,note_on,2,0,12,,,,,,,,,11,,,,60,0
19712,note_on,13,0,2,,,,,,,,,1,,,,64,0
19713,control_change,14,0,13,,,,,,,,,12,11,42,,,
19715,note_on,2,0,13,,,,,,,,,12,,,,57,0
19715,control_change,14,0,14,,,,,,,,,13,11,42,,,
19716,control_change,18,0,5,,,,,,,,,4,11,43,,,
19717,control_change,18,0,7,,,,,,,,,6,11,43,,,
19717,note_on,0,0,4,,,,,,,,,3,,,,57,100
19717,note_on,13,0,4,,,,,,,,,3,,,,52,0
19717,control_change,14,0,15,,,,,,,,,14,11,42,,,
19717,control_change,5,0,2,,,,,,,,,1,11,43,,,
19717,note_on,2,0,14,,,,,,,,,13,,,,52,0
19718,control_change,18,0,6,,,,,,,,,5,11,43,,,
19719,control_change,18,0,8,,,,,,,,,7,11,43,,,
19719,note_on,2,0,15,,,,,,,,,14,,,,40,0
19721,control_change,18,0,9,,,,,,,,,8,11,43,,,
19722,control_change,5,0,4,,,,,,,,,3,11,43,,,
19723,control_change,13,0,11,,,,,,,,,10,11,44,,,
19725,control_change,13,0,12,,,,,,,,,11,11,44,,,
19728,control_change,13,0,13,,,,,,,,,12,11,44,,,
19730,control_change,13,0,14,,,,,,,,,13,11,44,,,
19732,control_change,13,0,15,,,,,,,,,14,11,44,,,
19733,note_on,42,0,1,,,,,,,,,0,,,,88,0
19733,note_on,17,0,5,,,,,,,,,4,,,,64,0
19734,control_change,1,0,5,,,,,,,,,4,11,46,,,
19734,note_on,42,0,3,,,,,,,,,2,,,,76,0
19735,control_change,18,0,2,,,,,,,,,1,11,46,,,
19735,control_change,18,0,7,,,,,,,,,6,11,46,,,
19736,note_on,0,0,8,,,,,,,,,7,,,,60,0
19736,note_on,17,0,8,,,,,,,,,7,,,,64,0
19736,control_change,18,0,6,,,,,,,,,5,11,46,,,
19737,control_change,14,0,11,,,,,,,,,10,11,47,,,
19737,control_change,1,0,8,,,,,,,,,7,11,46,,,
19738,note_on,17,0,9,,,,,,,,,8,,,,52,0
19739,control_change,14,0,12,,,,,,,,,11,11,47,,,
19739,control_change,1,0,9,,,,,,,,,8,11,46,,,
19740,control_change,18,0,4,,,,,,,,,3,11,46,,,
19740,set_tempo,60,1,0,,,,,,1142857,,,,,,,,
19740,note_on,3,0,11,,,,,,,,,10,,,,71,112
19741,note_on,8,0,1,,,,,,,,,0,,,,88,101
19741,note_on,7,0,5,,,,,,,,,4,,,,65,100
19742,control_change,14,0,13,,,,,,,,,12,11,47,,,
19742,note_on,7,0,2,,,,,,,,,1,,,,69,0
19742,note_on,0,0,2,,,,,,,,,1,,,,71,100
19742,note_on,8,0,3,,,,,,,,,2,,,,76,101
19742,note_on,3,0,12,,,,,,,,,11,,,,65,112
19744,control_change,14,0,14,,,,,,,,,13,11,47,,,
19744,note_on,7,0,8,,,,,,,,,7,,,,59,110
19744,note_on,0,0,8,,,,,,,,,7,,,,62,110
19745,note_on,3,0,13,,,,,,,,,12,,,,62,112
19746,control_change,14,0,15,,,,,,,,,14,11,47,,,
19746,note_on,7,0,9,,,,,,,,,8,,,,52,110
19747,note_on,0,0,4,,,,,,,,,3,,,,59,100
19747,note_on,3,0,14,,,,,,,,,13,,,,52,112
19747,note_on,7,0,4,,,,,,,,,3,,,,57,0
19749,note_on,3,0,15,,,,,,,,,14,,,,40,112
19752,control_change,11,0,5,,,,,,,,,4,11,49,,,
19752,control_change,12,0,11,,,,,,,,,10,11,50,,,
19753,control_change,11,0,2,,,,,,,,,1,11,49,,,
19753,control_change,18,0,7,,,,,,,,,6,11,49,,,
19754,control_change,18,0,6,,,,,,,,,5,11,49,,,
19754,control_change,12,0,12,,,,,,,,,11,11,50,,,
19755,control_change,11,0,8,,,,,,,,,7,11,49,,,
19757,control_change,11,0,9,,,,,,,,,8,11,49,,,
19757,control_change,12,0,13,,,,,,,,,12,11,50,,,
19758,control_change,11,0,4,,,,,,,,,3,11,49,,,
19759,control_change,12,0,14,,,,,,,,,13,11,50,,,
19761,control_change,12,0,15,,,,,,,,,14,11,50,,,
19766,control_change,14,0,11,,,,,,,,,10,11,53,,,
19768,control_change,14,0,12,,,,,,,,,11,11,53,,,
19770,note_on,4,0,11,,,,,,,,,10,,,,71,0
19770,control_change,18,0,5,,,,,,,,,4,11,52,,,
19771,control_change,14,0,13,,,,,,,,,12,11,53,,,
19771,control_change,18,0,2,,,,,,,,,1,11,52,,,
19771,control_change,18,0,7,,,,,,,,,6,11,52,,,
19772,note_on,4,0,12,,,,,,,,,11,,,,65,0
19772,note_on,0,0,2,,,,,,,,,1,,,,74,100
19772,note_on,1,0,2,,,,,,,,,1,,,,71,0
19772,control_change,18,0,6,,,,,,,,,5,11,52,,,
19773,control_change,14,0,14,,,,,,,,,13,11,53,,,
19773,control_change,18,0,8,,,,,,,,,7,11,52,,,
19775,note_on,4,0,13,,,,,,,,,12,,,,62,0
19775,control_change,18,0,9,,,,,,,,,8,11,52,,,
19775,control_change,14,0,15,,,,,,,,,14,11,53,,,
19776,control_change,18,0,4,,,,,,,,,3,11,52,,,
19777,note_on,0,0,4,,,,,,,,,3,,,,62,100
19777,note_on,4,0,14,,,,,,,,,13,,,,52,0
19777,note_on,1,0,4,,,,,,,,,3,,,,59,0
19779,note_on,4,0,15,,,,,,,,,14,,,,40,0
19780,control_change,10,0,11,,,,,,,,,10,11,56,,,
19782,control_change,10,0,12,,,,,,,,,11,11,56,,,
19783,note_on,42,0,1,,,,,,,,,0,,,,88,0
19784,note_on,42,0,3,,,,,,,,,2,,,,76,0
19785,control_change,10,0,13,,,,,,,,,12,11,56,,,
19787,control_change,10,0,14,,,,,,,,,13,11,56,,,
19788,control_change,18,0,5,,,,,,,,,4,11,55,,,
19789,control_change,10,0,15,,,,,,,,,14,11,56,,,
19789,control_change,17,0,2,,,,,,,,,1,11,55,,,
19789,control_change,18,0,7,,,,,,,,,6,11,55,,,
19790,control_change,18,0,6,,,,,,,,,5,11,55,,,
19791,control_change,18,0,8,,,,,,,,,7,11,55,,,
19793,control_change,18,0,9,,,,,,,,,8,11,55,,,
19793,note_on,5,0,5,,,,,,,,,4,,,,65,0
19794,control_change,17,0,4,,,,,,,,,3,11,55,,,
19795,control_change,15,0,11,,,,,,,,,10,11,58,,,
19796,note_on,0,0,8,,,,,,,,,7,,,,59,0
19796,note_on,5,0,8,,,,,,,,,7,,,,62,0
19797,control_change,15,0,12,,,,,,,,,11,11,58,,,
19798,note_on,5,0,9,,,,,,,,,8,,,,52,0
19800,note_on,5,0,11,,,,,,,,,10,,,,72,112
19800,set_tempo,60,1,0,,,,,,1290323,,,,,,,,
19800,control_change,15,0,13,,,,,,,,,12,11,58,,,
19801,note_on,18,0,1,,,,,,,,,0,,,,89,101
19801,note_on,8,0,5,,,,,,,,,4,,,,64,100
19802,note_on,0,0,2,,,,,,,,,1,,,,72,100
19802,control_change,15,0,14,,,,,,,,,13,11,58,,,
19802,note_on,13,0,2,,,,,,,,,1,,,,74,0
19802,note_on,5,0,12,,,,,,,,,11,,,,64,112
19802,note_on,18,0,3,,,,,,,,,2,,,,77,101
19804,note_on,0,0,8,,,,,,,,,7,,,,64,110
19804,note_on,8,0,8,,,,,,,,,7,,,,60,110
19804,control_change,15,0,15,,,,,,,,,14,11,58,,,
19805,note_on,5,0,13,,,,,,,,,12,,,,60,112
19806,note_on,8,0,9,,,,,,,,,8,,,,52,110
19806,control_change,5,0,5,,,,,,,,,4,11,56,,,
19807,note_on,5,0,14,,,,,,,,,13,,,,52,112
19807,note_on,0,0,4,,,,,,,,,3,,,,60,100
19807,note_on,13,0,4,,,,,,,,,3,,,,62,0
19807,control_change,18,0,7,,,,,,,,,6,11,56,,,
19807,control_change,5,0,2,,,,,,,,,1,11,56,,,
19808,control_change,18,0,6,,,,,,,,,5,11,56,,,
19809,note_on,5,0,15,,,,,,,,,14,,,,40,112
19809,control_change,5,0,8,,,,,,,,,7,11,56,,,
19811,control_change,5,0,9,,,,,,,,,8,11,56,,,
19811,control_change,11,0,11,,,,,,,,,10,11,57,,,
19811,note_on,0,0,1,,,,,,,,,0,,,,88,111
19811,note_on,10,0,1,,,,,,,,,0,,,,89,0
19812,note_on,10,0,3,,,,,,,,,2,,,,77,0
19812,control_change,5,0,4,,,,,,,,,3,11,56,,,
19812,note_on,0,0,3,,,,,,,,,2,,,,76,111
19813,control_change,11,0,12,,,,,,,,,11,11,57,,,
19816,control_change,11,0,13,,,,,,,,,12,11,57,,,
19818,control_change,11,0,14,,,,,,,,,13,11,57,,,
19820,control_change,11,0,15,,,,,,,,,14,11,57,,,
19824,control_change,18,0,5,,,,,,,,,4,11,53,,,
19825,control_change,18,0,2,,,,,,,,,1,11,53,,,
19825,control_change,18,0,7,,,,,,,,,6,11,53,,,
19826,control_change,18,0,6,,,,,,,,,5,11,53,,,
19827,control_change,18,0,8,,,,,,,,,7,11,53,,,
19829,control_change,18,0,11,,,,,,,,,10,11,55,,,
19829,control_change,18,0,9,,,,,,,,,8,11,53,,,
19830,note_on,1,0,11,,,,,,,,,10,,,,72,0
19830,control_change,18,0,4,,,,,,,,,3,11,53,,,
19831,control_change,18,0,12,,,,,,,,,11,11,55,,,
19832,note_on,1,0,12,,,,,,,,,11,,,,64,0
19834,control_change,18,0,13,,,,,,,,,12,11,55,,,
19835,note_on,1,0,13,,,,,,,,,12,,,,60,0
19836,control_change,18,0,14,,,,,,,,,13,11,55,,,
19837,note_on,1,0,14,,,,,,,,,13,,,,52,0
19838,control_change,18,0,15,,,,,,,,,14,11,55,,,
19839,note_on,1,0,15,,,,,,,,,14,,,,40,0
19842,control_change,18,0,5,,,,,,,,,4,11,50,,,
19843,control_change,18,0,7,,,,,,,,,6,11,50,,,
19843,control_change,18,0,2,,,,,,,,,1,11,50,,,
19844,note_on,1,0,2,,,,,,,,,1,,,,72,0
19844,control_change,18,0,6,,,,,,,,,5,11,50,,,
19845,control_change,18,0,8,,,,,,,,,7,11,50,,,
19847,control_change,17,0,11,,,,,,,,,10,11,52,,,
19847,control_change,18,0,9,,,,,,,,,8,11,50,,,
19848,control_change,18,0,4,,,,,,,,,3,11,50,,,
19849,note_on,1,0,4,,,,,,,,,3,,,,60,0
19849,control_change,17,0,12,,,,,,,,,11,11,52,,,
19852,control_change,17,0,13,,,,,,,,,12,11,52,,,
19853,note_on,11,0,5,,,,,,,,,4,,,,64,0
19853,note_on,42,0,1,,,,,,,,,0,,,,88,0
19854,note_on,42,0,3,,,,,,,,,2,,,,76,0
19854,control_change,17,0,14,,,,,,,,,13,11,52,,,
19856,note_on,0,0,8,,,,,,,,,7,,,,60,0
19856,note_on,11,0,8,,,,,,,,,7,,,,64,0
19856,control_change,17,0,15,,,,,,,,,14,11,52,,,
19858,note_on,11,0,9,,,,,,,,,8,,,,52,0
19860,control_change,7,0,5,,,,,,,,,4,11,47,,,
19860,set_tempo,60,1,0,,,,,,1188119,,,,,,,,
19860,note_on,13,0,11,,,,,,,,,10,,,,68,112
19861,control_change,17,0,2,,,,,,,,,1,11,47,,,
19861,note_on,8,0,1,,,,,,,,,0,,,,88,101
19861,note_on,1,0,5,,,,,,,,,4,,,,64,100
19861,control_change,18,0,7,,,,,,,,,6,11,47,,,
19862,control_change,18,0,6,,,,,,,,,5,11,47,,,
19862,note_on,8,0,3,,,,,,,,,2,,,,76,101
19862,note_on,1,0,2,,,,,,,,,1,,,,71,100
19862,note_on,13,0,12,,,,,,,,,11,,,,62,112
19863,control_change,7,0,8,,,,,,,,,7,11,47,,,
19864,note_on,0,0,8,,,,,,,,,7,,,,62,110
19864,note_on,1,0,8,,,,,,,,,7,,,,59,110
19865,control_change,7,0,9,,,,,,,,,8,11,47,,,
19865,note_on,13,0,13,,,,,,,,,12,,,,64,112
19865,control_change,5,0,11,,,,,,,,,10,11,49,,,
19866,control_change,17,0,4,,,,,,,,,3,11,47,,,
19866,note_on,1,0,9,,,,,,,,,8,,,,52,110
19867,note_on,13,0,14,,,,,,,,,13,,,,52,112
19867,note_on,1,0,4,,,,,,,,,3,,,,59,100
19867,control_change,5,0,12,,,,,,,,,11,11,49,,,
19869,note_on,13,0,15,,,,,,,,,14,,,,40,112
19870,control_change,5,0,13,,,,,,,,,12,11,49,,,
19872,control_change,5,0,14,,,,,,,,,13,11,49,,,
19874,control_change,5,0,15,,,,,,,,,14,11,49,,,
19878,control_change,17,0,5,,,,,,,,,4,11,44,,,
19879,control_change,17,0,2,,,,,,,,,1,11,44,,,
19879,control_change,18,0,7,,,,,,,,,6,11,44,,,
19880,control_change,18,0,6,,,,,,,,,5,11,44,,,
19881,control_change,17,0,8,,,,,,,,,7,11,44,,,
19883,control_change,18,0,11,,,,,,,,,10,11,46,,,
19883,control_change,17,0,9,,,,,,,,,8,11,44,,,
19884,control_change,17,0,4,,,,,,,,,3,11,44,,,
19885,control_change,18,0,12,,,,,,,,,11,11,46,,,
19888,control_change,18,0,13,,,,,,,,,12,11,46,,,
19890,note_on,7,0,11,,,,,,,,,10,,,,68,0
19890,control_change,18,0,14,,,,,,,,,13,11,46,,,
19890,set_tempo,30,1,0,,,,,,1500000,,,,,,,,
19892,note_on,7,0,12,,,,,,,,,11,,,,62,0
19892,control_change,18,0,15,,,,,,,,,14,11,46,,,
19895,note_on,7,0,13,,,,,,,,,12,,,,64,0
19896,control_change,18,0,5,,,,,,,,,4,11,41,,,
19897,control_change,18,0,2,,,,,,,,,1,11,41,,,
19897,control_change,18,0,7,,,,,,,,,6,11,41,,,
19897,note_on,7,0,14,,,,,,,,,13,,,,52,0
19898,control_change,18,0,6,,,,,,,,,5,11,41,,,
19899,control_change,18,0,8,,,,,,,,,7,11,41,,,
19899,note_on,7,0,15,,,,,,,,,14,,,,40,0
19901,control_change,18,0,9,,,,,,,,,8,11,41,,,
19901,control_change,11,0,11,,,,,,,,,10,11,43,,,
19902,control_change,18,0,4,,,,,,,,,3,11,41,,,
19903,control_change,11,0,12,,,,,,,,,11,11,43,,,
19903,note_on,42,0,1,,,,,,,,,0,,,,88,0
19904,note_on,7,0,2,,,,,,,,,1,,,,71,0
19904,note_on,42,0,3,,,,,,,,,2,,,,76,0
19906,control_change,11,0,13,,,,,,,,,12,11,43,,,
19908,control_change,11,0,14,,,,,,,,,13,11,43,,,
19909,note_on,7,0,4,,,,,,,,,3,,,,59,0
19910,control_change,11,0,15,,,,,,,,,14,11,43,,,
19913,note_on,17,0,5,,,,,,,,,4,,,,64,0
19914,control_change,1,0,5,,,,,,,,,4,11,38,,,
19915,control_change,11,0,2,,,,,,,,,1,11,38,,,
19915,control_change,18,0,7,,,,,,,,,6,11,38,,,
19916,control_change,18,0,6,,,,,,,,,5,11,38,,,
19916,note_on,0,0,8,,,,,,,,,7,,,,59,0
19916,note_on,17,0,8,,,,,,,,,7,,,,62,0
19917,control_change,1,0,8,,,,,,,,,7,11,38,,,
19918,note_on,17,0,9,,,,,,,,,8,,,,52,0
19919,control_change,18,0,11,,,,,,,,,10,11,41,,,
19919,control_change,1,0,9,,,,,,,,,8,11,38,,,
19920,set_tempo,30,1,0,,,,,,1200000,,,,,,,,
19920,note_on,1,0,11,,,,,,,,,10,,,,69,80
19920,control_change,11,0,4,,,,,,,,,3,11,38,,,
19921,note_on,0,0,1,,,,,,,,,0,,,,81,101
19921,control_change,18,0,1,,,,,,,,,0,11,37,,,
19921,control_change,18,0,12,,,,,,,,,11,11,41,,,
19921,note_on,7,0,5,,,,,,,,,4,,,,64,100
19922,note_on,0,0,3,,,,,,,,,2,,,,69,101
19922,control_change,18,0,3,,,,,,,,,2,11,42,,,
19922,note_on,7,0,2,,,,,,,,,1,,,,69,100
19922,note_on,1,0,12,,,,,,,,,11,,,,61,80
19924,note_on,7,0,8,,,,,,,,,7,,,,57,110
19924,note_on,0,0,8,,,,,,,,,7,,,,61,110
19924,control_change,18,0,13,,,,,,,,,12,11,41,,,
19925,note_on,1,0,13,,,,,,,,,12,,,,57,97
19926,note_on,7,0,9,,,,,,,,,8,,,,45,110
19926,control_change,18,0,14,,,,,,,,,13,11,41,,,
19927,note_on,1,0,14,,,,,,,,,13,,,,45,112
19927,note_on,7,0,4,,,,,,,,,3,,,,57,100
19928,control_change,18,0,15,,,,,,,,,14,11,41,,,
19929,control_change,7,0,3,,,,,,,,,2,11,45,,,
19929,note_on,1,0,15,,,,,,,,,14,,,,33,112
19936,control_change,7,0,3,,,,,,,,,2,11,48,,,
19943,control_change,7,0,3,,,,,,,,,2,11,51,,,
19950,control_change,7,0,3,,,,,,,,,2,11,54,,,
19958,control_change,8,0,3,,,,,,,,,2,11,57,,,
19972,control_change,14,0,3,,,,,,,,,2,11,61,,,
19980,set_tempo,60,1,0,,,,,,1111111,,,,,,,,
19980,note_on,60,0,11,,,,,,,,,10,,,,69,0
19981,note_on,60,0,1,,,,,,,,,0,,,,81,0
19981,note_on,60,0,5,,,,,,,,,4,,,,64,0
19982,note_on,0,0,12,,,,,,,,,11,,,,64,112
19982,note_on,60,0,2,,,,,,,,,1,,,,69,0
19982,note_on,60,0,12,,,,,,,,,11,,,,61,0
19984,note_on,60,0,8,,,,,,,,,7,,,,61,0
19984,note_on,0,0,8,,,,,,,,,7,,,,57,0
19985,note_on,0,0,13,,,,,,,,,12,,,,52,112
19985,note_on,60,0,13,,,,,,,,,12,,,,57,0
19986,note_on,60,0,9,,,,,,,,,8,,,,45,0
19987,note_on,60,0,4,,,,,,,,,3,,,,57,0
20040,set_tempo,60,1,0,,,,,,1188119,,,,,,,,
20042,note_on,70,0,3,,,,,,,,,2,,,,69,0
20042,note_on,0,0,3,,,,,,,,,2,,,,71,101
20042,note_on,60,0,12,,,,,,,,,11,,,,64,0
20042,note_on,0,0,12,,,,,,,,,11,,,,62,112
20045,note_on,0,0,13,,,,,,,,,12,,,,56,112
20045,note_on,60,0,13,,,,,,,,,12,,,,52,0
20070,note_on,90,0,11,,,,,,,,,10,,,,64,112
20100,set_tempo,60,1,0,,,,,,1111111,,,,,,,,
20100,note_on,0,0,11,,,,,,,,,10,,,,76,92
20100,note_on,30,0,11,,,,,,,,,10,,,,64,0
20102,note_on,0,0,12,,,,,,,,,11,,,,64,112
20102,note_on,60,0,12,,,,,,,,,11,,,,62,0
20105,note_on,60,0,13,,,,,,,,,12,,,,56,0
20105,note_on,0,0,13,,,,,,,,,12,,,,52,112
20130,note_on,0,0,11,,,,,,,,,10,,,,64,112
20130,note_on,30,0,11,,,,,,,,,10,,,,76,0
20160,set_tempo,60,1,0,,,,,,1200000,,,,,,,,
20160,note_on,0,0,11,,,,,,,,,10,,,,76,92
20160,note_on,30,0,11,,,,,,,,,10,,,,64,0
20162,note_on,0,0,3,,,,,,,,,2,,,,73,111
20162,note_on,60,0,12,,,,,,,,,11,,,,64,0
20162,note_on,120,0,3,,,,,,,,,2,,,,71,0
20162,note_on,0,0,12,,,,,,,,,11,,,,61,112
20165,note_on,0,0,13,,,,,,,,,12,,,,57,112
20165,note_on,60,0,13,,,,,,,,,12,,,,52,0
20220,note_on,0,0,11,,,,,,,,,10,,,,64,112
20220,note_on,60,0,11,,,,,,,,,10,,,,76,0
20220,set_tempo,60,1,0,,,,,,1111111,,,,,,,,
20222,note_on,60,0,3,,,,,,,,,2,,,,73,0
20222,note_on,0,0,3,,,,,,,,,2,,,,74,101
20222,note_on,60,0,12,,,,,,,,,11,,,,61,0
20224,note_on,2,0,12,,,,,,,,,11,,,,64,112
20225,note_on,0,0,13,,,,,,,,,12,,,,52,112
20225,note_on,60,0,13,,,,,,,,,12,,,,57,0
20250,note_on,30,0,11,,,,,,,,,10,,,,64,0
20252,note_on,30,0,3,,,,,,,,,2,,,,74,0
20252,note_on,0,0,3,,,,,,,,,2,,,,76,101
20277,note_on,25,0,3,,,,,,,,,2,,,,76,0
20280,set_tempo,60,1,0,,,,,,1188119,,,,,,,,
20282,note_on,5,0,3,,,,,,,,,2,,,,76,101
20282,note_on,58,0,12,,,,,,,,,11,,,,64,112
20284,note_on,2,0,12,,,,,,,,,11,,,,64,0
20285,note_on,0,0,13,,,,,,,,,12,,,,57,112
20285,note_on,60,0,13,,,,,,,,,12,,,,52,0
20310,note_on,60,0,11,,,,,,,,,10,,,,64,112
20340,note_on,0,0,11,,,,,,,,,10,,,,76,92
20340,set_tempo,60,1,0,,,,,,1111111,,,,,,,,
20340,note_on,30,0,11,,,,,,,,,10,,,,64,0
20342,note_on,0,0,12,,,,,,,,,11,,,,62,112
20342,note_on,60,0,3,,,,,,,,,2,,,,76,0
20342,note_on,0,0,3,,,,,,,,,2,,,,68,101
20342,note_on,58,0,12,,,,,,,,,11,,,,64,0
20345,note_on,0,0,13,,,,,,,,,12,,,,56,112
20345,note_on,60,0,13,,,,,,,,,12,,,,57,0
20347,control_change,0,0,14,,,,,,,,,13,11,55,,,
20347,note_on,0,0,14,,,,,,,,,13,,,,45,112
20347,note_on,420,0,14,,,,,,,,,13,,,,45,0
20349,note_on,0,0,15,,,,,,,,,14,,,,33,112
20349,control_change,0,0,15,,,,,,,,,14,11,55,,,
20349,note_on,420,0,15,,,,,,,,,14,,,,33,0
20357,note_on,10,0,14,,,,,,,,,13,,,,45,0
20359,note_on,10,0,15,,,,,,,,,14,,,,33,0
20362,note_on,5,0,14,,,,,,,,,13,,,,45,112
20364,note_on,5,0,15,,,,,,,,,14,,,,33,112
20370,note_on,30,0,11,,,,,,,,,10,,,,76,0
20370,note_on,0,0,11,,,,,,,,,10,,,,64,112
20372,note_on,10,0,14,,,,,,,,,13,,,,45,0
20374,note_on,10,0,15,,,,,,,,,14,,,,33,0
20377,note_on,5,0,14,,,,,,,,,13,,,,45,112
20379,note_on,5,0,15,,,,,,,,,14,,,,33,112
20387,note_on,10,0,14,,,,,,,,,13,,,,45,0
20389,note_on,10,0,15,,,,,,,,,14,,,,33,0
20392,note_on,5,0,14,,,,,,,,,13,,,,45,112
20394,note_on,5,0,15,,,,,,,,,14,,,,33,112
20397,note_on,55,0,3,,,,,,,,,2,,,,68,0
20397,note_on,55,0,12,,,,,,,,,11,,,,62,0
20400,set_tempo,60,1,0,,,,,,1200000,,,,,,,,
20400,note_on,30,0,11,,,,,,,,,10,,,,64,0
20400,note_on,0,0,11,,,,,,,,,10,,,,73,92
20400,note_on,55,0,13,,,,,,,,,12,,,,56,0
20402,note_on,5,0,12,,,,,,,,,11,,,,61,112
20402,note_on,5,0,3,,,,,,,,,2,,,,69,101
20402,note_on,10,0,14,,,,,,,,,13,,,,45,0
20402,note_on,0,0,2,,,,,,,,,1,,,,69,100
20402,control_change,420,0,2,,,,,,,,,1,11,44,,,
20404,note_on,10,0,15,,,,,,,,,14,,,,33,0
20405,note_on,5,0,13,,,,,,,,,12,,,,57,112
20407,control_change,5,0,14,,,,,,,,,13,11,41,,,
20407,note_on,0,0,14,,,,,,,,,13,,,,45,112
20409,control_change,5,0,15,,,,,,,,,14,11,41,,,
20409,note_on,0,0,15,,,,,,,,,14,,,,33,112
20411,control_change,9,0,2,,,,,,,,,1,11,47,,,
20420,control_change,9,0,2,,,,,,,,,1,11,50,,,
20429,control_change,9,0,2,,,,,,,,,1,11,53,,,
20438,control_change,9,0,2,,,,,,,,,1,11,56,,,
20447,control_change,9,0,2,,,,,,,,,1,11,59,,,
20456,control_change,9,0,2,,,,,,,,,1,11,62,,,
20460,note_on,60,0,11,,,,,,,,,10,,,,73,0
20460,note_on,0,0,11,,,,,,,,,10,,,,64,112
20460,set_tempo,60,1,0,,,,,,1111111,,,,,,,,
20462,note_on,60,0,12,,,,,,,,,11,,,,61,0
20462,note_on,60,0,3,,,,,,,,,2,,,,69,0
20462,note_on,0,0,12,,,,,,,,,11,,,,64,112
20465,note_on,60,0,13,,,,,,,,,12,,,,57,0
20465,note_on,0,0,13,,,,,,,,,12,,,,52,112
20490,note_on,30,0,11,,,,,,,,,10,,,,64,0
20520,set_tempo,60,1,0,,,,,,1188119,,,,,,,,
20522,note_on,60,0,12,,,,,,,,,11,,,,64,0
20522,note_on,0,0,12,,,,,,,,,11,,,,62,112
20522,note_on,66,0,2,,,,,,,,,1,,,,69,0
20522,note_on,0,0,2,,,,,,,,,1,,,,71,100
20525,note_on,60,0,13,,,,,,,,,12,,,,52,0
20525,note_on,0,0,13,,,,,,,,,12,,,,56,112
20527,note_on,120,0,14,,,,,,,,,13,,,,45,0
20550,note_on,60,0,11,,,,,,,,,10,,,,64,112
20580,note_on,30,0,11,,,,,,,,,10,,,,64,0
20580,set_tempo,60,1,0,,,,,,1111111,,,,,,,,
20580,note_on,0,0,11,,,,,,,,,10,,,,76,92
20582,note_on,0,0,12,,,,,,,,,11,,,,64,112
20582,note_on,60,0,12,,,,,,,,,11,,,,62,0
20585,note_on,0,0,13,,,,,,,,,12,,,,52,112
20585,note_on,60,0,13,,,,,,,,,12,,,,56,0
20610,note_on,0,0,11,,,,,,,,,10,,,,64,112
20610,note_on,30,0,11,,,,,,,,,10,,,,76,0
20640,set_tempo,60,1,0,,,,,,1200000,,,,,,,,
20640,note_on,30,0,11,,,,,,,,,10,,,,64,0
20640,note_on,0,0,11,,,,,,,,,10,,,,76,92
20642,note_on,180,0,3,,,,,,,,,2,,,,69,101
20642,note_on,0,0,12,,,,,,,,,11,,,,61,112
20642,note_on,60,0,12,,,,,,,,,11,,,,64,0
20642,note_on,0,0,2,,,,,,,,,1,,,,73,100
20642,note_on,120,0,2,,,,,,,,,1,,,,71,0
20645,note_on,60,0,13,,,,,,,,,12,,,,52,0
20645,note_on,0,0,13,,,,,,,,,12,,,,57,112
20647,control_change,0,0,14,,,,,,,,,13,91,1,,,
20647,control_change,0,0,14,,,,,,,,,13,11,41,,,
20647,control_change,120,0,14,,,,,,,,,13,1,30,,,
20647,note_on,0,0,14,,,,,,,,,13,,,,61,112
20660,control_change,13,0,14,,,,,,,,,13,11,46,,,
20667,control_change,7,0,14,,,,,,,,,13,11,49,,,
20674,control_change,7,0,14,,,,,,,,,13,11,52,,,
20680,control_change,6,0,14,,,,,,,,,13,11,55,,,
20697,control_change,17,0,14,,,,,,,,,13,11,60,,,
20700,note_on,0,0,11,,,,,,,,,10,,,,64,112
20700,note_on,60,0,11,,,,,,,,,10,,,,76,0
20700,set_tempo,60,1,0,,,,,,1121495,,,,,,,,
20702,note_on,60,0,12,,,,,,,,,11,,,,61,0
20702,note_on,0,0,12,,,,,,,,,11,,,,64,112
20705,note_on,0,0,13,,,,,,,,,12,,,,52,112
20705,note_on,60,0,13,,,,,,,,,12,,,,57,0
20707,note_on,0,0,14,,,,,,,,,13,,,,69,112
20707,note_on,10,0,14,,,,,,,,,13,,,,61,0
20712,control_change,5,0,14,,,,,,,,,13,11,63,,,
20727,control_change,15,0,14,,,,,,,,,13,11,66,,,
20730,note_on,30,0,11,,,,,,,,,10,,,,64,0
20742,control_change,15,0,14,,,,,,,,,13,11,69,,,
20757,control_change,15,0,14,,,,,,,,,13,11,72,,,
20760,set_tempo,60,1,0,,,,,,1224490,,,,,,,,
20762,note_on,60,0,12,,,,,,,,,11,,,,64,0
20762,note_on,0,0,12,,,,,,,,,11,,,,62,112
20762,note_on,0,0,2,,,,,,,,,1,,,,76,100
20762,note_on,120,0,2,,,,,,,,,1,,,,73,0
20762,note_on,120,0,3,,,,,,,,,2,,,,69,0
20762,note_on,0,0,3,,,,,,,,,2,,,,71,101
20765,note_on,60,0,13,,,,,,,,,12,,,,52,0
20765,note_on,0,0,13,,,,,,,,,12,,,,56,112
20767,note_on,0,0,14,,,,,,,,,13,,,,68,112
20767,note_on,10,0,14,,,,,,,,,13,,,,69,0
20775,control_change,8,0,14,,,,,,,,,13,11,72,,,
20790,note_on,60,0,11,,,,,,,,,10,,,,64,112
20791,control_change,16,0,14,,,,,,,,,13,11,71,,,
20807,control_change,16,0,14,,,,,,,,,13,11,69,,,
20820,note_on,0,0,11,,,,,,,,,10,,,,76,92
20820,note_on,30,0,11,,,,,,,,,10,,,,64,0
20820,set_tempo,60,1,0,,,,,,1132075,,,,,,,,
20822,note_on,60,0,12,,,,,,,,,11,,,,62,0
20822,note_on,0,0,12,,,,,,,,,11,,,,64,112
20823,control_change,16,0,14,,,,,,,,,13,11,67,,,
20825,note_on,0,0,13,,,,,,,,,12,,,,52,112
20825,note_on,60,0,13,,,,,,,,,12,,,,56,0
20827,note_on,4,0,14,,,,,,,,,13,,,,68,0
20827,note_on,0,0,14,,,,,,,,,13,,,,66,112
20829,note_on,0,0,15,,,,,,,,,14,,,,33,112
20829,note_on,420,0,15,,,,,,,,,14,,,,33,0
20829,control_change,0,0,15,,,,,,,,,14,11,55,,,
20839,note_on,10,0,15,,,,,,,,,14,,,,33,0
20839,control_change,12,0,14,,,,,,,,,13,11,65,,,
20844,note_on,5,0,15,,,,,,,,,14,,,,33,112
20850,note_on,30,0,11,,,,,,,,,10,,,,76,0
20850,note_on,0,0,11,,,,,,,,,10,,,,64,112
20854,note_on,10,0,15,,,,,,,,,14,,,,33,0
20855,control_change,16,0,14,,,,,,,,,13,11,63,,,
20859,note_on,5,0,15,,,,,,,,,14,,,,33,112
20869,note_on,10,0,15,,,,,,,,,14,,,,33,0
20871,control_change,16,0,14,,,,,,,,,13,11,61,,,
20874,note_on,5,0,15,,,,,,,,,14,,,,33,112
20877,note_on,115,0,3,,,,,,,,,2,,,,71,0
20877,note_on,115,0,2,,,,,,,,,1,,,,76,0
20877,note_on,55,0,12,,,,,,,,,11,,,,64,0
20880,note_on,30,0,11,,,,,,,,,10,,,,64,0
20880,set_tempo,60,1,0,,,,,,1224490,,,,,,,,
20880,note_on,55,0,13,,,,,,,,,12,,,,52,0
20880,note_on,0,0,11,,,,,,,,,10,,,,76,92
20882,note_on,5,0,3,,,,,,,,,2,,,,73,111
20882,note_on,5,0,2,,,,,,,,,1,,,,81,110
20882,note_on,5,0,12,,,,,,,,,11,,,,61,112
20882,note_on,11,0,14,,,,,,,,,13,,,,66,0
20884,note_on,10,0,15,,,,,,,,,14,,,,33,0
20885,note_on,5,0,13,,,,,,,,,12,,,,57,112
20887,control_change,5,0,14,,,,,,,,,13,11,59,,,
20887,note_on,0,0,14,,,,,,,,,13,,,,64,112
20889,control_change,5,0,15,,,,,,,,,14,11,41,,,
20889,note_on,0,0,15,,,,,,,,,14,,,,33,112
20940,note_on,60,0,11,,,,,,,,,10,,,,76,0
20940,note_on,0,0,11,,,,,,,,,10,,,,64,112
20940,set_tempo,60,1,0,,,,,,1153846,,,,,,,,
20942,note_on,60,0,12,,,,,,,,,11,,,,61,0
20942,note_on,0,0,12,,,,,,,,,11,,,,64,112
20942,note_on,0,0,2,,,,,,,,,1,,,,83,100
20942,note_on,60,0,2,,,,,,,,,1,,,,81,0
20942,note_on,0,0,3,,,,,,,,,2,,,,74,101
20942,note_on,60,0,3,,,,,,,,,2,,,,73,0
20945,note_on,60,0,13,,,,,,,,,12,,,,57,0
20945,note_on,0,0,13,,,,,,,,,12,,,,52,112
20947,note_on,0,0,14,,,,,,,,,13,,,,62,112
20947,note_on,60,0,14,,,,,,,,,13,,,,64,0
20970,note_on,30,0,11,,,,,,,,,10,,,,64,0
20972,note_on,30,0,3,,,,,,,,,2,,,,74,0
20972,note_on,0,0,3,,,,,,,,,2,,,,76,101
20972,note_on,30,0,2,,,,,,,,,1,,,,83,0
20972,note_on,0,0,2,,,,,,,,,1,,,,85,100
20977,note_on,30,0,14,,,,,,,,,13,,,,62,0
20977,note_on,0,0,14,,,,,,,,,13,,,,61,112
20997,note_on,25,0,2,,,,,,,,,1,,,,85,0
20997,note_on,25,0,3,,,,,,,,,2,,,,76,0
21000,set_tempo,60,1,0,,,,,,1263158,,,,,,,,
21002,note_on,5,0,3,,,,,,,,,2,,,,76,101
21002,note_on,5,0,2,,,,,,,,,1,,,,85,100
21002,note_on,0,0,12,,,,,,,,,11,,,,62,112
21002,note_on,60,0,12,,,,,,,,,11,,,,64,0
21005,note_on,0,0,13,,,,,,,,,12,,,,57,112
21005,note_on,60,0,13,,,,,,,,,12,,,,52,0
21007,note_on,30,0,14,,,,,,,,,13,,,,61,0
21007,note_on,0,0,14,,,,,,,,,13,,,,64,112
21030,note_on,60,0,11,,,,,,,,,10,,,,64,112
21060,note_on,0,0,11,,,,,,,,,10,,,,76,92
21060,note_on,30,0,11,,,,,,,,,10,,,,64,0
21060,set_tempo,60,1,0,,,,,,1176471,,,,,,,,
21062,note_on,0,0,3,,,,,,,,,2,,,,71,101
21062,note_on,0,0,12,,,,,,,,,11,,,,64,112
21062,note_on,60,0,3,,,,,,,,,2,,,,76,0
21062,note_on,0,0,2,,,,,,,,,1,,,,80,100
21062,note_on,60,0,2,,,,,,,,,1,,,,85,0
21062,note_on,60,0,12,,,,,,,,,11,,,,62,0
21065,note_on,60,0,13,,,,,,,,,12,,,,57,0
21065,note_on,0,0,13,,,,,,,,,12,,,,59,112
21067,note_on,0,0,14,,,,,,,,,13,,,,62,112
21067,note_on,60,0,14,,,,,,,,,13,,,,64,0
21069,note_on,180,0,15,,,,,,,,,14,,,,33,0
21069,control_change,0,0,15,,,,,,,,,14,11,55,,,
21069,note_on,0,0,15,,,,,,,,,14,,,,33,112
21079,note_on,10,0,15,,,,,,,,,14,,,,33,0
21084,note_on,5,0,15,,,,,,,,,14,,,,33,112
21090,note_on,30,0,11,,,,,,,,,10,,,,76,0
21090,note_on,0,0,11,,,,,,,,,10,,,,64,112
21090,set_tempo,30,1,0,,,,,,1318681,,,,,,,,
21092,note_on,0,0,3,,,,,,,,,2,,,,73,101
21092,note_on,30,0,3,,,,,,,,,2,,,,71,0
21094,note_on,10,0,15,,,,,,,,,14,,,,33,0
21099,note_on,5,0,15,,,,,,,,,14,,,,33,112
21109,note_on,10,0,15,,,,,,,,,14,,,,33,0
21114,note_on,5,0,15,,,,,,,,,14,,,,33,112
21117,note_on,25,0,3,,,,,,,,,2,,,,73,0
21117,note_on,55,0,2,,,,,,,,,1,,,,80,0
21120,set_tempo,30,1,0,,,,,,1250000,,,,,,,,
21120,note_on,0,0,11,,,,,,,,,10,,,,73,112
21120,note_on,30,0,11,,,,,,,,,10,,,,64,0
21122,control_change,5,0,3,,,,,,,,,2,11,64,,,
21122,note_on,0,0,3,,,,,,,,,2,,,,69,101
21122,note_on,55,0,14,,,,,,,,,13,,,,62,0
21122,note_on,0,0,2,,,,,,,,,1,,,,81,100
21122,control_change,5,0,2,,,,,,,,,1,11,64,,,
21122,note_on,0,0,12,,,,,,,,,11,,,,61,112
21122,note_on,60,0,12,,,,,,,,,11,,,,64,0
21124,note_on,10,0,15,,,,,,,,,14,,,,33,0
21125,note_on,60,0,13,,,,,,,,,12,,,,59,0
21125,note_on,0,0,13,,,,,,,,,12,,,,57,112
21127,note_on,5,0,14,,,,,,,,,13,,,,61,112
21129,control_change,5,0,15,,,,,,,,,14,11,41,,,
21129,note_on,0,0,15,,,,,,,,,14,,,,33,112
21145,control_change,23,0,3,,,,,,,,,2,11,63,,,
21145,control_change,23,0,2,,,,,,,,,1,11,63,,,
21169,control_change,24,0,2,,,,,,,,,1,11,61,,,
21169,control_change,24,0,3,,,,,,,,,2,11,61,,,
21180,set_tempo,60,1,0,,,,,,1276596,,,,,,,,
21182,note_on,0,0,12,,,,,,,,,11,,,,64,112
21182,note_on,60,0,12,,,,,,,,,11,,,,61,0
21185,note_on,0,0,13,,,,,,,,,12,,,,52,112
21185,note_on,60,0,13,,,,,,,,,12,,,,57,0
21193,control_change,24,0,2,,,,,,,,,1,11,60,,,
21193,control_change,24,0,3,,,,,,,,,2,11,60,,,
21211,note_on,84,0,14,,,,,,,,,13,,,,61,0
21217,control_change,24,0,3,,,,,,,,,2,11,58,,,
21217,control_change,24,0,2,,,,,,,,,1,11,58,,,
21227,note_on,10,0,2,,,,,,,,,1,,,,81,0
21227,note_on,10,0,3,,,,,,,,,2,,,,69,0
21240,set_tempo,60,1,0,,,,,,1290323,,,,,,,,
21241,control_change,14,0,3,,,,,,,,,2,11,57,,,
21241,control_change,14,0,2,,,,,,,,,1,11,57,,,
21242,note_on,60,0,12,,,,,,,,,11,,,,64,0
21242,note_on,0,0,12,,,,,,,,,11,,,,61,112
21242,note_on,1,0,2,,,,,,,,,1,,,,81,100
21242,note_on,1,0,3,,,,,,,,,2,,,,69,101
21245,note_on,60,0,13,,,,,,,,,12,,,,52,0
21245,note_on,0,0,13,,,,,,,,,12,,,,57,112
21247,note_on,36,0,14,,,,,,,,,13,,,,61,112
21265,control_change,23,0,3,,,,,,,,,2,11,55,,,
21265,control_change,23,0,2,,,,,,,,,1,11,55,,,
21289,control_change,24,0,2,,,,,,,,,1,11,53,,,
21289,control_change,24,0,3,,,,,,,,,2,11,53,,,
21300,control_change,180,0,11,,,,,,,,,10,11,41,,,
21300,set_tempo,60,1,0,,,,,,1318681,,,,,,,,
21302,control_change,0,0,12,,,,,,,,,11,11,41,,,
21302,note_on,60,0,12,,,,,,,,,11,,,,61,0
21302,note_on,0,0,12,,,,,,,,,11,,,,57,112
21305,note_on,0,0,13,,,,,,,,,12,,,,61,112
21305,control_change,0,0,13,,,,,,,,,12,11,41,,,
21305,note_on,60,0,13,,,,,,,,,12,,,,57,0
21307,control_change,60,0,14,,,,,,,,,13,11,59,,,
21309,control_change,180,0,15,,,,,,,,,14,11,41,,,
21313,control_change,24,0,3,,,,,,,,,2,11,51,,,
21313,control_change,24,0,2,,,,,,,,,1,11,51,,,
21318,control_change,18,0,11,,,,,,,,,10,11,38,,,
21318,control_change,11,0,14,,,,,,,,,13,11,54,,,
21320,control_change,18,0,12,,,,,,,,,11,11,38,,,
21323,control_change,5,0,14,,,,,,,,,13,11,51,,,
21323,control_change,18,0,13,,,,,,,,,12,11,38,,,
21327,control_change,18,0,15,,,,,,,,,14,11,38,,,
21329,control_change,6,0,14,,,,,,,,,13,11,48,,,
21330,set_tempo,30,1,0,,,,,,1904762,,,,,,,,
21331,note_on,2,0,14,,,,,,,,,13,,,,61,0
21334,control_change,3,0,14,,,,,,,,,13,11,45,,,
21336,control_change,18,0,11,,,,,,,,,10,11,35,,,
21337,control_change,24,0,2,,,,,,,,,1,11,49,,,
21337,control_change,24,0,3,,,,,,,,,2,11,49,,,
21338,control_change,18,0,12,,,,,,,,,11,11,35,,,
21340,control_change,6,0,14,,,,,,,,,13,11,42,,,
21341,control_change,18,0,13,,,,,,,,,12,11,35,,,
21345,control_change,18,0,15,,,,,,,,,14,11,35,,,
21347,note_on,10,0,3,,,,,,,,,2,,,,69,0
21347,note_on,10,0,2,,,,,,,,,1,,,,81,0
21350,note_on,14,0,11,,,,,,,,,10,,,,73,0
21351,control_change,11,0,14,,,,,,,,,13,11,37,,,
21352,note_on,14,0,12,,,,,,,,,11,,,,57,0
21354,note_on,9,0,15,,,,,,,,,14,,,,33,0
21354,control_change,4,0,11,,,,,,,,,10,11,32,,,
21355,note_on,14,0,13,,,,,,,,,12,,,,61,0
21356,control_change,4,0,12,,,,,,,,,11,11,32,,,
21357,control_change,6,0,14,,,,,,,,,13,11,34,,,
21359,control_change,4,0,13,,,,,,,,,12,11,32,,,
21360,set_tempo,30,1,0,,,,,,1165049,,,,,,,,
21361,note_on,0,0,5,,,,,,,,,4,,,,57,100
21361,control_change,1380,0,5,,,,,,,,,4,11,37,,,
21361,control_change,14,0,2,,,,,,,,,1,11,47,,,
21361,control_change,14,0,3,,,,,,,,,2,11,47,,,
21363,note_on,0,0,6,,,,,,,,,5,,,,57,100
21363,control_change,1447,0,6,,,,,,,,,5,11,37,,,
21363,control_change,9,0,15,,,,,,,,,14,11,32,,,
21367,control_change,0,0,14,,,,,,,,,13,11,41,,,
21367,control_change,0,0,14,,,,,,,,,13,1,1,,,
21367,note_on,0,0,4,,,,,,,,,3,,,,57,100
21367,control_change,10,0,14,,,,,,,,,13,91,68,,,
21367,control_change,1380,0,4,,,,,,,,,3,11,37,,,
21367,note_on,0,0,14,,,,,,,,,13,,,,45,112
21369,control_change,6,0,15,,,,,,,,,14,11,41,,,
21369,note_on,0,0,15,,,,,,,,,14,,,,31,112
21380,control_change,19,0,5,,,,,,,,,4,11,38,,,
21382,control_change,19,0,6,,,,,,,,,5,11,38,,,
21386,control_change,19,0,4,,,,,,,,,3,11,38,,,
21399,control_change,19,0,5,,,,,,,,,4,11,39,,,
21401,control_change,19,0,6,,,,,,,,,5,11,39,,,
21405,control_change,19,0,4,,,,,,,,,3,11,39,,,
21418,control_change,19,0,5,,,,,,,,,4,11,40,,,
21420,control_change,19,0,6,,,,,,,,,5,11,40,,,
21424,control_change,19,0,4,,,,,,,,,3,11,40,,,
21437,control_change,19,0,5,,,,,,,,,4,11,41,,,
21439,control_change,19,0,6,,,,,,,,,5,11,41,,,
21443,control_change,19,0,4,,,,,,,,,3,11,41,,,
21451,note_on,84,0,14,,,,,,,,,13,,,,45,0
21453,note_on,84,0,15,,,,,,,,,14,,,,31,0
21456,control_change,19,0,5,,,,,,,,,4,11,42,,,
21458,control_change,19,0,6,,,,,,,,,5,11,42,,,
21462,control_change,19,0,4,,,,,,,,,3,11,42,,,
21475,control_change,19,0,5,,,,,,,,,4,11,43,,,
21477,control_change,19,0,6,,,,,,,,,5,11,43,,,
21480,set_tempo,120,1,0,,,,,,1200000,,,,,,,,
21481,control_change,19,0,4,,,,,,,,,3,11,43,,,
21487,note_on,36,0,14,,,,,,,,,13,,,,45,112
21489,note_on,36,0,15,,,,,,,,,14,,,,33,112
21495,control_change,20,0,5,,,,,,,,,4,11,44,,,
21497,control_change,20,0,6,,,,,,,,,5,11,44,,,
21501,control_change,20,0,4,,,,,,,,,3,11,44,,,
21514,control_change,19,0,5,,,,,,,,,4,11,45,,,
21516,control_change,19,0,6,,,,,,,,,5,11,45,,,
21520,control_change,19,0,4,,,,,,,,,3,11,45,,,
21533,control_change,19,0,5,,,,,,,,,4,11,46,,,
21535,control_change,19,0,6,,,,,,,,,5,11,46,,,
21539,control_change,19,0,4,,,,,,,,,3,11,46,,,
21552,control_change,19,0,5,,,,,,,,,4,11,47,,,
21554,control_change,19,0,6,,,,,,,,,5,11,47,,,
21558,control_change,19,0,4,,,,,,,,,3,11,47,,,
21571,note_on,84,0,14,,,,,,,,,13,,,,45,0
21571,control_change,19,0,5,,,,,,,,,4,11,48,,,
21573,note_on,84,0,15,,,,,,,,,14,,,,33,0
21573,control_change,19,0,6,,,,,,,,,5,11,48,,,
21577,control_change,19,0,4,,,,,,,,,3,11,48,,,
21590,control_change,19,0,5,,,,,,,,,4,11,49,,,
21592,control_change,19,0,6,,,,,,,,,5,11,49,,,
21596,control_change,19,0,4,,,,,,,,,3,11,49,,,
21600,set_tempo,120,1,0,,,,,,1237113,,,,,,,,
21607,note_on,36,0,14,,,,,,,,,13,,,,43,112
21609,note_on,36,0,15,,,,,,,,,14,,,,31,112
21610,control_change,20,0,5,,,,,,,,,4,11,50,,,
21612,control_change,20,0,6,,,,,,,,,5,11,50,,,
21616,control_change,20,0,4,,,,,,,,,3,11,50,,,
21629,control_change,19,0,5,,,,,,,,,4,11,51,,,
21631,control_change,19,0,6,,,,,,,,,5,11,51,,,
21635,control_change,19,0,4,,,,,,,,,3,11,51,,,
21648,control_change,19,0,5,,,,,,,,,4,11,52,,,
21650,control_change,19,0,6,,,,,,,,,5,11,52,,,
21654,control_change,19,0,4,,,,,,,,,3,11,52,,,
21667,control_change,19,0,5,,,,,,,,,4,11,53,,,
21669,control_change,19,0,6,,,,,,,,,5,11,53,,,
21673,control_change,19,0,4,,,,,,,,,3,11,53,,,
21686,control_change,19,0,5,,,,,,,,,4,11,54,,,
21688,control_change,19,0,6,,,,,,,,,5,11,54,,,
21691,note_on,84,0,14,,,,,,,,,13,,,,43,0
21692,control_change,19,0,4,,,,,,,,,3,11,54,,,
21693,note_on,84,0,15,,,,,,,,,14,,,,31,0
21705,control_change,19,0,5,,,,,,,,,4,11,55,,,
21707,control_change,19,0,6,,,,,,,,,5,11,55,,,
21711,control_change,19,0,4,,,,,,,,,3,11,55,,,
21720,set_tempo,120,1,0,,,,,,1263158,,,,,,,,
21725,control_change,20,0,5,,,,,,,,,4,11,56,,,
21727,note_on,36,0,14,,,,,,,,,13,,,,43,112
21727,control_change,20,0,6,,,,,,,,,5,11,56,,,
21729,note_on,36,0,15,,,,,,,,,14,,,,31,112
21731,control_change,20,0,4,,,,,,,,,3,11,56,,,
21744,control_change,19,0,5,,,,,,,,,4,11,57,,,
21746,control_change,19,0,6,,,,,,,,,5,11,57,,,
21750,control_change,19,0,4,,,,,,,,,3,11,57,,,
21763,control_change,19,0,5,,,,,,,,,4,11,58,,,
21765,control_change,19,0,6,,,,,,,,,5,11,58,,,
21769,control_change,19,0,4,,,,,,,,,3,11,58,,,
21782,control_change,19,0,5,,,,,,,,,4,11,59,,,
21784,control_change,19,0,6,,,,,,,,,5,11,59,,,
21788,control_change,19,0,4,,,,,,,,,3,11,59,,,
21801,control_change,19,0,5,,,,,,,,,4,11,60,,,
21803,control_change,19,0,6,,,,,,,,,5,11,60,,,
21807,control_change,19,0,4,,,,,,,,,3,11,60,,,
21810,set_tempo,90,1,0,,,,,,1500000,,,,,,,,
21811,note_on,84,0,14,,,,,,,,,13,,,,43,0
21813,note_on,84,0,15,,,,,,,,,14,,,,31,0
21820,control_change,19,0,5,,,,,,,,,4,11,61,,,
21822,control_change,19,0,6,,,,,,,,,5,11,61,,,
21826,control_change,19,0,4,,,,,,,,,3,11,61,,,
21840,set_tempo,30,1,0,,,,,,1276596,,,,,,,,
21840,control_change,20,0,5,,,,,,,,,4,11,62,,,
21841,note_on,0,0,5,,,,,,,,,4,,,,60,100
21841,note_on,1,0,5,,,,,,,,,4,,,,57,0
21842,note_on,0,0,3,,,,,,,,,2,,,,69,101
21842,control_change,481,0,3,,,,,,,,,2,11,47,,,
21842,control_change,20,0,6,,,,,,,,,5,11,62,,,
21842,note_on,0,0,3,,,,,,,,,2,,,,65,101
21843,note_on,1,0,6,,,,,,,,,5,,,,57,0
21843,note_on,0,0,6,,,,,,,,,5,,,,60,100
21846,control_change,20,0,4,,,,,,,,,3,11,62,,,
21847,note_on,36,0,14,,,,,,,,,13,,,,41,112
21849,note_on,36,0,15,,,,,,,,,14,,,,29,112
21860,control_change,19,0,5,,,,,,,,,4,11,61,,,
21862,control_change,19,0,6,,,,,,,,,5,11,61,,,
21866,control_change,20,0,4,,,,,,,,,3,11,61,,,
21879,control_change,19,0,5,,,,,,,,,4,11,60,,,
21881,control_change,19,0,6,,,,,,,,,5,11,60,,,
21885,control_change,19,0,4,,,,,,,,,3,11,60,,,
21898,control_change,19,0,5,,,,,,,,,4,11,59,,,
21900,control_change,19,0,6,,,,,,,,,5,11,59,,,
21904,control_change,19,0,4,,,,,,,,,3,11,59,,,
21917,control_change,19,0,5,,,,,,,,,4,11,58,,,
21919,control_change,19,0,6,,,,,,,,,5,11,58,,,
21923,control_change,19,0,4,,,,,,,,,3,11,58,,,
21931,note_on,84,0,14,,,,,,,,,13,,,,41,0
21933,note_on,84,0,15,,,,,,,,,14,,,,29,0
21936,control_change,19,0,5,,,,,,,,,4,11,57,,,
21938,control_change,19,0,6,,,,,,,,,5,11,57,,,
21942,control_change,19,0,4,,,,,,,,,3,11,57,,,
21955,control_change,19,0,5,,,,,,,,,4,11,56,,,
21957,control_change,19,0,6,,,,,,,,,5,11,56,,,
21960,set_tempo,120,1,0,,,,,,1304348,,,,,,,,
21961,control_change,19,0,4,,,,,,,,,3,11,56,,,
21967,note_on,36,0,14,,,,,,,,,13,,,,41,112
21969,note_on,36,0,15,,,,,,,,,14,,,,29,112
21975,control_change,20,0,5,,,,,,,,,4,11,55,,,
21977,control_change,20,0,6,,,,,,,,,5,11,55,,,
21981,control_change,20,0,4,,,,,,,,,3,11,55,,,
21994,control_change,19,0,5,,,,,,,,,4,11,54,,,
21996,control_change,19,0,6,,,,,,,,,5,11,54,,,
22000,control_change,19,0,4,,,,,,,,,3,11,54,,,
22013,control_change,19,0,5,,,,,,,,,4,11,53,,,
22015,control_change,19,0,6,,,,,,,,,5,11,53,,,
22019,control_change,19,0,4,,,,,,,,,3,11,53,,,
22032,control_change,19,0,5,,,,,,,,,4,11,52,,,
22034,control_change,19,0,6,,,,,,,,,5,11,52,,,
22038,control_change,19,0,4,,,,,,,,,3,11,52,,,
22051,control_change,19,0,5,,,,,,,,,4,11,51,,,
22051,note_on,84,0,14,,,,,,,,,13,,,,41,0
22053,control_change,19,0,6,,,,,,,,,5,11,51,,,
22053,note_on,84,0,15,,,,,,,,,14,,,,29,0
22057,control_change,19,0,4,,,,,,,,,3,11,51,,,
22070,control_change,19,0,5,,,,,,,,,4,11,50,,,
22072,control_change,19,0,6,,,,,,,,,5,11,50,,,
22076,control_change,19,0,4,,,,,,,,,3,11,50,,,
22080,set_tempo,120,1,0,,,,,,1333333,,,,,,,,
22081,note_on,0,0,1,,,,,,,,,0,,,,81,101
22081,control_change,2100,0,1,,,,,,,,,0,11,52,,,
22082,note_on,0,0,2,,,,,,,,,1,,,,69,100
22082,note_on,0,0,2,,,,,,,,,1,,,,72,100
22082,control_change,721,0,2,,,,,,,,,1,11,52,,,
22087,note_on,36,0,14,,,,,,,,,13,,,,41,112
22089,note_on,36,0,15,,,,,,,,,14,,,,29,112
22090,control_change,20,0,5,,,,,,,,,4,11,49,,,
22092,control_change,20,0,6,,,,,,,,,5,11,49,,,
22096,control_change,20,0,4,,,,,,,,,3,11,49,,,
22109,control_change,19,0,5,,,,,,,,,4,11,48,,,
22111,control_change,19,0,6,,,,,,,,,5,11,48,,,
22115,control_change,19,0,4,,,,,,,,,3,11,48,,,
22128,control_change,19,0,5,,,,,,,,,4,11,47,,,
22130,control_change,19,0,6,,,,,,,,,5,11,47,,,
22134,control_change,19,0,4,,,,,,,,,3,11,47,,,
22147,control_change,19,0,5,,,,,,,,,4,11,46,,,
22149,control_change,19,0,6,,,,,,,,,5,11,46,,,
22153,control_change,19,0,4,,,,,,,,,3,11,46,,,
22166,control_change,19,0,5,,,,,,,,,4,11,45,,,
22168,control_change,19,0,6,,,,,,,,,5,11,45,,,
22171,note_on,84,0,14,,,,,,,,,13,,,,41,0
22172,control_change,19,0,4,,,,,,,,,3,11,45,,,
22173,note_on,84,0,15,,,,,,,,,14,,,,29,0
22185,control_change,19,0,5,,,,,,,,,4,11,44,,,
22187,control_change,19,0,6,,,,,,,,,5,11,44,,,
22191,control_change,19,0,4,,,,,,,,,3,11,44,,,
22200,set_tempo,120,1,0,,,,,,1363636,,,,,,,,
22201,control_change,120,0,1,,,,,,,,,0,11,52,,,
22202,control_change,120,0,2,,,,,,,,,1,11,52,,,
22205,control_change,20,0,5,,,,,,,,,4,11,43,,,
22207,note_on,36,0,14,,,,,,,,,13,,,,41,112
22207,control_change,20,0,6,,,,,,,,,5,11,43,,,
22209,note_on,36,0,15,,,,,,,,,14,,,,29,112
22211,control_change,20,0,4,,,,,,,,,3,11,43,,,
22216,control_change,15,0,1,,,,,,,,,0,11,50,,,
22217,control_change,15,0,2,,,,,,,,,1,11,50,,,
22224,control_change,19,0,5,,,,,,,,,4,11,42,,,
22226,control_change,19,0,6,,,,,,,,,5,11,42,,,
22230,control_change,19,0,4,,,,,,,,,3,11,42,,,
22232,control_change,16,0,1,,,,,,,,,0,11,48,,,
22233,control_change,16,0,2,,,,,,,,,1,11,48,,,
22243,control_change,19,0,5,,,,,,,,,4,11,41,,,
22245,control_change,19,0,6,,,,,,,,,5,11,41,,,
22248,control_change,16,0,1,,,,,,,,,0,11,46,,,
22249,control_change,16,0,2,,,,,,,,,1,11,46,,,
22249,control_change,19,0,4,,,,,,,,,3,11,41,,,
22262,control_change,19,0,5,,,,,,,,,4,11,40,,,
22264,control_change,19,0,6,,,,,,,,,5,11,40,,,
22264,control_change,16,0,1,,,,,,,,,0,11,44,,,
22265,control_change,16,0,2,,,,,,,,,1,11,44,,,
22268,control_change,19,0,4,,,,,,,,,3,11,40,,,
22280,control_change,16,0,1,,,,,,,,,0,11,42,,,
22281,control_change,19,0,5,,,,,,,,,4,11,39,,,
22281,control_change,16,0,2,,,,,,,,,1,11,42,,,
22283,control_change,19,0,6,,,,,,,,,5,11,39,,,
22287,control_change,19,0,4,,,,,,,,,3,11,39,,,
22290,set_tempo,90,1,0,,,,,,1791045,,,,,,,,
22291,note_on,84,0,14,,,,,,,,,13,,,,41,0
22293,note_on,84,0,15,,,,,,,,,14,,,,29,0
22296,control_change,16,0,1,,,,,,,,,0,11,40,,,
22297,control_change,16,0,2,,,,,,,,,1,11,40,,,
22300,control_change,19,0,5,,,,,,,,,4,11,38,,,
22302,control_change,19,0,6,,,,,,,,,5,11,38,,,
22306,control_change,19,0,4,,,,,,,,,3,11,38,,,
22312,control_change,16,0,1,,,,,,,,,0,11,38,,,
22313,control_change,16,0,2,,,,,,,,,1,11,38,,,
22320,set_tempo,30,1,0,,,,,,1263158,,,,,,,,
22320,control_change,20,0,5,,,,,,,,,4,11,37,,,
22320,control_change,966,0,11,,,,,,,,,10,11,45,,,
22321,note_on,1,0,5,,,,,,,,,4,,,,60,0
22321,control_change,0,0,5,,,,,,,,,4,11,42,,,
22321,note_on,9,0,1,,,,,,,,,0,,,,81,0
22321,control_change,0,0,1,,,,,,,,,0,11,42,,,
22322,control_change,0,0,2,,,,,,,,,1,11,42,,,
22322,note_on,0,0,12,,,,,,,,,11,,,,69,112
22322,control_change,966,0,12,,,,,,,,,11,11,27,,,
22322,note_on,0,0,2,,,,,,,,,1,,,,72,0
22322,note_on,9,0,2,,,,,,,,,1,,,,69,0
22322,control_change,20,0,6,,,,,,,,,5,11,37,,,
22322,control_change,2407,0,7,,,,,,,,,6,11,42,,,
22322,note_on,480,0,3,,,,,,,,,2,,,,65,0
22322,note_on,0,0,3,,,,,,,,,2,,,,69,0
22322,control_change,0,0,3,,,,,,,,,2,11,42,,,
22323,note_on,1,0,6,,,,,,,,,5,,,,60,0
22323,control_change,0,0,6,,,,,,,,,5,11,42,,,
22324,control_change,2340,0,8,,,,,,,,,7,11,42,,,
22325,control_change,966,0,13,,,,,,,,,12,11,45,,,
22326,control_change,2340,0,9,,,,,,,,,8,11,42,,,
22326,control_change,20,0,4,,,,,,,,,3,11,37,,,
22327,control_change,36,0,14,,,,,,,,,13,11,45,,,
22327,note_on,0,0,4,,,,,,,,,3,,,,53,100
22327,control_change,0,0,4,,,,,,,,,3,11,27,,,
22327,note_on,1,0,4,,,,,,,,,3,,,,57,0
22329,note_on,0,0,15,,,,,,,,,14,,,,41,112
22329,control_change,36,0,15,,,,,,,,,14,11,31,,,
22336,control_change,9,0,4,,,,,,,,,3,11,30,,,
22338,control_change,9,0,15,,,,,,,,,14,11,34,,,
22340,control_change,18,0,12,,,,,,,,,11,11,32,,,
22345,control_change,9,0,4,,,,,,,,,3,11,33,,,
22347,control_change,9,0,15,,,,,,,,,14,11,37,,,
22349,control_change,9,0,12,,,,,,,,,11,11,35,,,
22354,control_change,9,0,4,,,,,,,,,3,11,36,,,
22356,control_change,9,0,15,,,,,,,,,14,11,40,,,
22358,control_change,9,0,12,,,,,,,,,11,11,38,,,
22363,control_change,9,0,4,,,,,,,,,3,11,39,,,
22367,control_change,9,0,12,,,,,,,,,11,11,41,,,
22372,control_change,9,0,4,,,,,,,,,3,11,42,,,
22374,control_change,18,0,15,,,,,,,,,14,11,45,,,
22380,set_tempo,60,1,0,,,,,,1153846,,,,,,,,
22387,note_on,0,0,14,,,,,,,,,13,,,,60,112
22387,control_change,60,0,14,,,,,,,,,13,11,31,,,
22393,control_change,6,0,14,,,,,,,,,13,11,34,,,
22399,control_change,6,0,14,,,,,,,,,13,11,37,,,
22405,control_change,6,0,14,,,,,,,,,13,11,40,,,
22417,control_change,12,0,14,,,,,,,,,13,11,45,,,
22440,set_tempo,60,1,0,,,,,,1200000,,,,,,,,
22442,note_on,75,0,12,,,,,,,,,11,,,,69,0
22442,note_on,0,0,12,,,,,,,,,11,,,,67,112
22447,note_on,75,0,4,,,,,,,,,3,,,,53,0
22447,note_on,0,0,4,,,,,,,,,3,,,,52,100
22449,note_on,75,0,15,,,,,,,,,14,,,,41,0
22449,note_on,0,0,15,,,,,,,,,14,,,,40,112
22500,set_tempo,60,1,0,,,,,,1153846,,,,,,,,
22502,note_on,85,0,14,,,,,,,,,13,,,,60,0
22507,note_on,5,0,14,,,,,,,,,13,,,,60,112
22560,set_tempo,60,1,0,,,,,,1200000,,,,,,,,
22562,note_on,0,0,12,,,,,,,,,11,,,,65,112
22562,note_on,120,0,12,,,,,,,,,11,,,,67,0
22567,note_on,0,0,4,,,,,,,,,3,,,,50,100
22567,note_on,120,0,4,,,,,,,,,3,,,,52,0
22567,note_on,60,0,14,,,,,,,,,13,,,,60,0
22569,note_on,120,0,15,,,,,,,,,14,,,,40,0
22569,note_on,0,0,15,,,,,,,,,14,,,,38,112
22620,set_tempo,60,1,0,,,,,,1153846,,,,,,,,
22627,note_on,0,0,14,,,,,,,,,13,,,,57,112
22627,control_change,60,0,14,,,,,,,,,13,11,31,,,
22633,control_change,6,0,14,,,,,,,,,13,11,34,,,
22639,control_change,6,0,14,,,,,,,,,13,11,37,,,
22645,control_change,6,0,14,,,,,,,,,13,11,40,,,
22657,control_change,12,0,14,,,,,,,,,13,11,45,,,
22680,set_tempo,60,1,0,,,,,,1200000,,,,,,,,
22682,note_on,0,0,12,,,,,,,,,11,,,,64,112
22682,note_on,120,0,12,,,,,,,,,11,,,,65,0
22687,note_on,0,0,4,,,,,,,,,3,,,,48,100
22687,note_on,120,0,4,,,,,,,,,3,,,,50,0
22689,note_on,0,0,15,,,,,,,,,14,,,,36,112
22689,note_on,120,0,15,,,,,,,,,14,,,,38,0
22740,set_tempo,60,1,0,,,,,,1153846,,,,,,,,
22742,note_on,85,0,14,,,,,,,,,13,,,,57,0
22747,note_on,5,0,14,,,,,,,,,13,,,,57,112
22797,note_on,115,0,12,,,,,,,,,11,,,,64,0
22800,set_tempo,60,1,0,,,,,,1200000,,,,,,,,
22802,note_on,5,0,12,,,,,,,,,11,,,,62,112
22802,note_on,55,0,14,,,,,,,,,13,,,,57,0
22807,note_on,0,0,4,,,,,,,,,3,,,,46,100
22807,note_on,120,0,4,,,,,,,,,3,,,,48,0
22807,note_on,5,0,14,,,,,,,,,13,,,,53,112
22809,note_on,120,0,15,,,,,,,,,14,,,,36,0
22809,note_on,0,0,15,,,,,,,,,14,,,,34,112
22860,set_tempo,60,1,0,,,,,,1153846,,,,,,,,
22862,note_on,0,0,12,,,,,,,,,11,,,,64,112
22862,note_on,60,0,12,,,,,,,,,11,,,,62,0
22867,note_on,0,0,14,,,,,,,,,13,,,,58,112
22867,note_on,60,0,14,,,,,,,,,13,,,,53,0
22867,note_on,0,0,4,,,,,,,,,3,,,,43,100
22867,note_on,60,0,4,,,,,,,,,3,,,,46,0
22869,note_on,60,0,15,,,,,,,,,14,,,,34,0
22869,note_on,0,0,15,,,,,,,,,14,,,,31,112
22920,set_tempo,60,1,0,,,,,,1200000,,,,,,,,
22922,note_on,0,0,12,,,,,,,,,11,,,,60,112
22922,note_on,60,0,12,,,,,,,,,11,,,,64,0
22927,note_on,60,0,14,,,,,,,,,13,,,,58,0
22927,note_on,0,0,14,,,,,,,,,13,,,,60,112
22927,note_on,60,0,4,,,,,,,,,3,,,,43,0
22927,note_on,0,0,4,,,,,,,,,3,,,,45,100
22929,note_on,60,0,15,,,,,,,,,14,,,,31,0
22929,note_on,0,0,15,,,,,,,,,14,,,,33,112
22980,set_tempo,60,1,0,,,,,,1153846,,,,,,,,
22982,note_on,60,0,12,,,,,,,,,11,,,,60,0
22982,note_on,0,0,12,,,,,,,,,11,,,,65,112
22987,note_on,60,0,4,,,,,,,,,3,,,,45,0
22987,note_on,0,0,4,,,,,,,,,3,,,,50,100
22987,note_on,60,0,14,,,,,,,,,13,,,,60,0
22987,note_on,0,0,14,,,,,,,,,13,,,,57,112
22989,note_on,60,0,15,,,,,,,,,14,,,,33,0
22989,note_on,0,0,15,,,,,,,,,14,,,,38,112
23037,note_on,55,0,12,,,,,,,,,11,,,,65,0
23040,set_tempo,60,1,0,,,,,,1200000,,,,,,,,
23042,note_on,55,0,4,,,,,,,,,3,,,,50,0
23042,note_on,5,0,12,,,,,,,,,11,,,,67,112
23042,note_on,55,0,14,,,,,,,,,13,,,,57,0
23044,note_on,55,0,15,,,,,,,,,14,,,,38,0
23047,note_on,5,0,14,,,,,,,,,13,,,,62,112
23047,note_on,5,0,4,,,,,,,,,3,,,,46,100
23049,note_on,5,0,15,,,,,,,,,14,,,,34,112
23100,set_tempo,60,1,0,,,,,,1153846,,,,,,,,
23107,note_on,0,0,14,,,,,,,,,13,,,,64,112
23107,note_on,60,0,14,,,,,,,,,13,,,,62,0
23137,note_on,0,0,14,,,,,,,,,13,,,,65,112
23137,note_on,30,0,14,,,,,,,,,13,,,,64,0
23160,set_tempo,60,1,0,,,,,,1200000,,,,,,,,
23167,note_on,0,0,4,,,,,,,,,3,,,,48,100
23167,note_on,120,0,4,,,,,,,,,3,,,,46,0
23167,note_on,0,0,14,,,,,,,,,13,,,,64,112
23167,note_on,30,0,14,,,,,,,,,13,,,,65,0
23169,note_on,120,0,15,,,,,,,,,14,,,,34,0
23169,note_on,0,0,15,,,,,,,,,14,,,,36,112
23220,set_tempo,60,1,0,,,,,,1153846,,,,,,,,
23222,note_on,0,0,12,,,,,,,,,11,,,,69,112
23222,note_on,180,0,12,,,,,,,,,11,,,,67,0
23250,set_tempo,30,1,0,,,,,,1304348,,,,,,,,
23252,note_on,0,0,12,,,,,,,,,11,,,,70,112
23252,note_on,30,0,12,,,,,,,,,11,,,,69,0
23277,note_on,25,0,12,,,,,,,,,11,,,,70,0
23280,control_change,960,0,11,,,,,,,,,10,11,36,,,
23280,set_tempo,30,1,0,,,,,,1200000,,,,,,,,
23280,note_on,0,0,11,,,,,,,,,10,,,,69,112
23282,control_change,960,0,3,,,,,,,,,2,11,52,,,
23282,note_on,0,0,3,,,,,,,,,2,,,,81,101
23282,note_on,5,0,12,,,,,,,,,11,,,,69,112
23282,note_on,115,0,4,,,,,,,,,3,,,,48,0
23282,note_on,115,0,14,,,,,,,,,13,,,,64,0
23284,note_on,115,0,15,,,,,,,,,14,,,,36,0
23287,note_on,5,0,4,,,,,,,,,3,,,,53,100
23287,note_on,5,0,14,,,,,,,,,13,,,,65,112
23289,note_on,5,0,15,,,,,,,,,14,,,,41,112
23298,control_change,18,0,11,,,,,,,,,10,11,39,,,
23316,control_change,18,0,11,,,,,,,,,10,11,42,,,
23334,control_change,18,0,11,,,,,,,,,10,11,44,,,
23340,set_tempo,60,1,0,,,,,,1153846,,,,,,,,
23342,note_on,55,0,14,,,,,,,,,13,,,,65,0
23342,note_on,60,0,12,,,,,,,,,11,,,,69,0
23347,note_on,5,0,14,,,,,,,,,13,,,,60,112
23370,note_on,36,0,11,,,,,,,,,10,,,,69,0
23370,note_on,0,0,11,,,,,,,,,10,,,,70,112
23372,note_on,90,0,3,,,,,,,,,2,,,,81,0
23372,note_on,0,0,3,,,,,,,,,2,,,,82,101
23400,set_tempo,60,1,0,,,,,,1200000,,,,,,,,
23400,note_on,30,0,11,,,,,,,,,10,,,,70,0
23400,note_on,0,0,11,,,,,,,,,10,,,,69,112
23402,note_on,0,0,3,,,,,,,,,2,,,,81,101
23402,note_on,30,0,3,,,,,,,,,2,,,,82,0
23407,note_on,120,0,4,,,,,,,,,3,,,,53,0
23407,note_on,0,0,4,,,,,,,,,3,,,,51,100
23409,note_on,0,0,15,,,,,,,,,14,,,,39,112
23409,note_on,120,0,15,,,,,,,,,14,,,,41,0
23460,note_on,60,0,11,,,,,,,,,10,,,,69,0
23460,set_tempo,60,1,0,,,,,,1153846,,,,,,,,
23460,note_on,0,0,11,,,,,,,,,10,,,,67,112
23462,note_on,115,0,14,,,,,,,,,13,,,,60,0
23462,note_on,60,0,3,,,,,,,,,2,,,,81,0
23462,note_on,0,0,3,,,,,,,,,2,,,,79,101
23467,note_on,5,0,14,,,,,,,,,13,,,,60,112
23520,note_on,0,0,11,,,,,,,,,10,,,,66,112
23520,note_on,60,0,11,,,,,,,,,10,,,,67,0
23520,set_tempo,60,1,0,,,,,,1200000,,,,,,,,
23522,note_on,0,0,3,,,,,,,,,2,,,,78,101
23522,note_on,60,0,3,,,,,,,,,2,,,,79,0
23524,note_on,115,0,15,,,,,,,,,14,,,,39,0
23527,note_on,0,0,4,,,,,,,,,3,,,,50,100
23527,control_change,60,0,14,,,,,,,,,13,11,45,,,
23527,note_on,120,0,4,,,,,,,,,3,,,,51,0
23529,note_on,5,0,15,,,,,,,,,14,,,,38,112
23543,control_change,16,0,14,,,,,,,,,13,11,47,,,
23559,control_change,16,0,14,,,,,,,,,13,11,49,,,
23575,control_change,16,0,14,,,,,,,,,13,11,51,,,
23580,set_tempo,60,1,0,,,,,,1153846,,,,,,,,
23587,note_on,12,0,14,,,,,,,,,13,,,,60,0
23587,note_on,0,0,14,,,,,,,,,13,,,,57,112
23591,control_change,4,0,14,,,,,,,,,13,11,53,,,
23607,control_change,16,0,14,,,,,,,,,13,11,55,,,
23617,note_on,10,0,14,,,,,,,,,13,,,,57,0
23617,note_on,0,0,14,,,,,,,,,13,,,,58,112
23623,control_change,6,0,14,,,,,,,,,13,11,57,,,
23639,control_change,16,0,14,,,,,,,,,13,11,58,,,
23640,set_tempo,60,1,0,,,,,,1200000,,,,,,,,
23647,note_on,0,0,14,,,,,,,,,13,,,,62,112
23647,note_on,8,0,14,,,,,,,,,13,,,,58,0
23655,control_change,8,0,14,,,,,,,,,13,11,58,,,
23671,control_change,16,0,14,,,,,,,,,13,11,57,,,
23677,note_on,6,0,14,,,,,,,,,13,,,,62,0
23677,note_on,0,0,14,,,,,,,,,13,,,,60,112
23687,control_change,10,0,14,,,,,,,,,13,11,55,,,
23695,note_on,175,0,11,,,,,,,,,10,,,,66,0
23697,note_on,175,0,3,,,,,,,,,2,,,,78,0
23700,set_tempo,60,1,0,,,,,,1153846,,,,,,,,
23700,note_on,5,0,11,,,,,,,,,10,,,,63,112
23702,note_on,5,0,3,,,,,,,,,2,,,,75,101
23703,control_change,16,0,14,,,,,,,,,13,11,53,,,
23707,note_on,0,0,4,,,,,,,,,3,,,,48,100
23707,note_on,180,0,4,,,,,,,,,3,,,,50,0
23707,note_on,4,0,14,,,,,,,,,13,,,,60,0
23707,note_on,0,0,14,,,,,,,,,13,,,,57,112
23709,note_on,180,0,15,,,,,,,,,14,,,,38,0
23709,note_on,0,0,15,,,,,,,,,14,,,,36,112
23719,control_change,12,0,14,,,,,,,,,13,11,51,,,
23735,control_change,16,0,14,,,,,,,,,13,11,49,,,
23737,note_on,2,0,14,,,,,,,,,13,,,,57,0
23737,note_on,0,0,14,,,,,,,,,13,,,,54,112
23745,note_on,0,0,11,,,,,,,,,10,,,,62,112
23745,note_on,45,0,11,,,,,,,,,10,,,,63,0
23747,note_on,0,0,3,,,,,,,,,2,,,,74,101
23747,note_on,45,0,3,,,,,,,,,2,,,,75,0
23751,control_change,14,0,14,,,,,,,,,13,11,47,,,
23755,note_on,10,0,11,,,,,,,,,10,,,,62,0
23757,note_on,10,0,3,,,,,,,,,2,,,,74,0
23760,set_tempo,60,1,0,,,,,,1200000,,,,,,,,
23760,control_change,5,0,11,,,,,,,,,10,11,45,,,
23760,note_on,0,0,11,,,,,,,,,10,,,,62,112
23762,note_on,5,0,3,,,,,,,,,2,,,,74,101
23762,note_on,55,0,4,,,,,,,,,3,,,,48,0
23762,note_on,11,0,14,,,,,,,,,13,,,,54,0
23764,note_on,55,0,15,,,,,,,,,14,,,,36,0
23767,note_on,5,0,4,,,,,,,,,3,,,,46,100
23767,note_on,0,0,14,,,,,,,,,13,,,,55,112
23767,control_change,5,0,14,,,,,,,,,13,11,45,,,
23769,note_on,0,0,15,,,,,,,,,14,,,,34,112
23769,control_change,5,0,15,,,,,,,,,14,11,45,,,
23807,control_change,47,0,11,,,,,,,,,10,11,46,,,
23814,control_change,47,0,14,,,,,,,,,13,11,46,,,
23816,control_change,47,0,15,,,,,,,,,14,11,46,,,
23820,set_tempo,60,1,0,,,,,,1153846,,,,,,,,
23820,note_on,0,0,11,,,,,,,,,10,,,,67,112
23820,note_on,13,0,11,,,,,,,,,10,,,,62,0
23822,note_on,60,0,3,,,,,,,,,2,,,,74,0
23822,note_on,0,0,3,,,,,,,,,2,,,,79,101
23827,note_on,13,0,14,,,,,,,,,13,,,,55,0
23827,note_on,0,0,14,,,,,,,,,13,,,,67,112
23827,note_on,0,0,4,,,,,,,,,3,,,,51,100
23827,note_on,60,0,4,,,,,,,,,3,,,,46,0
23829,note_on,13,0,15,,,,,,,,,14,,,,34,0
23829,note_on,0,0,15,,,,,,,,,14,,,,39,112
23855,control_change,35,0,11,,,,,,,,,10,11,47,,,
23862,control_change,35,0,14,,,,,,,,,13,11,47,,,
23864,control_change,35,0,15,,,,,,,,,14,11,47,,,
23880,note_on,0,0,11,,,,,,,,,10,,,,69,112
23880,set_tempo,60,1,0,,,,,,1200000,,,,,,,,
23880,note_on,25,0,11,,,,,,,,,10,,,,67,0
23882,note_on,60,0,3,,,,,,,,,2,,,,79,0
23882,note_on,0,0,3,,,,,,,,,2,,,,81,101
23887,note_on,60,0,4,,,,,,,,,3,,,,51,0
23887,note_on,0,0,4,,,,,,,,,3,,,,48,100
23889,note_on,0,0,15,,,,,,,,,14,,,,36,112
23889,note_on,25,0,15,,,,,,,,,14,,,,39,0
23903,control_change,23,0,11,,,,,,,,,10,11,48,,,
23910,control_change,48,0,14,,,,,,,,,13,11,48,,,
23912,control_change,23,0,15,,,,,,,,,14,11,48,,,
23940,note_on,0,0,11,,,,,,,,,10,,,,70,112
23940,note_on,37,0,11,,,,,,,,,10,,,,69,0
23940,set_tempo,60,1,0,,,,,,1153846,,,,,,,,
23942,note_on,0,0,3,,,,,,,,,2,,,,82,101
23942,note_on,60,0,3,,,,,,,,,2,,,,81,0
23947,note_on,60,0,4,,,,,,,,,3,,,,48,0
23947,note_on,0,0,14,,,,,,,,,13,,,,66,112
23947,note_on,0,0,4,,,,,,,,,3,,,,50,100
23947,note_on,37,0,14,,,,,,,,,13,,,,67,0
23949,note_on,0,0,15,,,,,,,,,14,,,,38,112
23949,note_on,37,0,15,,,,,,,,,14,,,,36,0
23951,control_change,11,0,11,,,,,,,,,10,11,49,,,
23958,control_change,11,0,14,,,,,,,,,13,11,49,,,
23960,control_change,11,0,15,,,,,,,,,14,11,49,,,
23985,note_on,0,0,11,,,,,,,,,10,,,,72,112
23985,note_on,34,0,11,,,,,,,,,10,,,,70,0
23987,note_on,45,0,3,,,,,,,,,2,,,,82,0
23987,note_on,0,0,3,,,,,,,,,2,,,,84,101
23995,note_on,10,0,11,,,,,,,,,10,,,,72,0
23997,note_on,10,0,3,,,,,,,,,2,,,,84,0
23999,control_change,4,0,11,,,,,,,,,10,11,50,,,
24000,note_on,1,0,11,,,,,,,,,10,,,,70,112
24000,set_tempo,60,1,0,,,,,,1200000,,,,,,,,
24002,note_on,5,0,3,,,,,,,,,2,,,,82,101
24002,note_on,44,0,14,,,,,,,,,13,,,,66,0
24004,note_on,44,0,15,,,,,,,,,14,,,,38,0
24006,control_change,4,0,14,,,,,,,,,13,11,50,,,
24007,note_on,0,0,4,,,,,,,,,3,,,,55,100
24007,note_on,1,0,14,,,,,,,,,13,,,,67,112
24007,note_on,60,0,4,,,,,,,,,3,,,,50,0
24008,control_change,4,0,15,,,,,,,,,14,11,50,,,
24009,note_on,1,0,15,,,,,,,,,14,,,,43,112
24047,control_change,47,0,11,,,,,,,,,10,11,51,,,
24054,control_change,47,0,14,,,,,,,,,13,11,51,,,
24056,control_change,47,0,15,,,,,,,,,14,11,51,,,
24060,set_tempo,60,1,0,,,,,,1153846,,,,,,,,
24067,note_on,0,0,14,,,,,,,,,13,,,,62,112
24067,note_on,13,0,14,,,,,,,,,13,,,,67,0
24095,control_change,48,0,11,,,,,,,,,10,11,52,,,
24102,control_change,35,0,14,,,,,,,,,13,11,52,,,
24104,control_change,48,0,15,,,,,,,,,14,11,52,,,
24120,set_tempo,60,1,0,,,,,,1200000,,,,,,,,
24127,note_on,0,0,14,,,,,,,,,13,,,,61,112
24127,note_on,25,0,14,,,,,,,,,13,,,,62,0
24127,note_on,0,0,4,,,,,,,,,3,,,,53,100
24127,note_on,120,0,4,,,,,,,,,3,,,,55,0
24129,note_on,25,0,15,,,,,,,,,14,,,,43,0
24129,note_on,0,0,15,,,,,,,,,14,,,,41,112
24143,control_change,48,0,11,,,,,,,,,10,11,53,,,
24147,note_on,145,0,3,,,,,,,,,2,,,,82,0
24150,note_on,0,0,11,,,,,,,,,10,,,,67,112
24150,note_on,7,0,11,,,,,,,,,10,,,,70,0
24150,control_change,23,0,14,,,,,,,,,13,11,53,,,
24152,control_change,23,0,15,,,,,,,,,14,11,53,,,
24152,note_on,5,0,3,,,,,,,,,2,,,,79,101
24180,note_on,0,0,11,,,,,,,,,10,,,,69,112
24180,note_on,30,0,11,,,,,,,,,10,,,,67,0
24180,set_tempo,60,1,0,,,,,,1153846,,,,,,,,
24182,note_on,0,0,3,,,,,,,,,2,,,,81,101
24182,note_on,30,0,3,,,,,,,,,2,,,,79,0
24187,note_on,0,0,14,,,,,,,,,13,,,,60,112
24187,note_on,60,0,4,,,,,,,,,3,,,,53,0
24187,note_on,0,0,4,,,,,,,,,3,,,,52,100
24187,note_on,37,0,14,,,,,,,,,13,,,,61,0
24189,note_on,37,0,15,,,,,,,,,14,,,,41,0
24189,note_on,0,0,15,,,,,,,,,14,,,,40,112
24191,control_change,11,0,11,,,,,,,,,10,11,54,,,
24198,control_change,11,0,14,,,,,,,,,13,11,54,,,
24200,control_change,11,0,15,,,,,,,,,14,11,54,,,
24210,note_on,0,0,11,,,,,,,,,10,,,,70,112
24210,note_on,19,0,11,,,,,,,,,10,,,,69,0
24212,note_on,0,0,3,,,,,,,,,2,,,,82,101
24212,note_on,30,0,3,,,,,,,,,2,,,,81,0
24235,note_on,25,0,11,,,,,,,,,10,,,,70,0
24239,control_change,4,0,11,,,,,,,,,10,11,55,,,
24240,note_on,0,0,11,,,,,,,,,10,,,,69,112
24240,control_change,1,0,11,,,,,,,,,10,11,50,,,
24240,set_tempo,60,1,0,,,,,,1200000,,,,,,,,
24241,note_on,0,0,1,,,,,,,,,0,,,,81,101
24241,control_change,1920,0,1,,,,,,,,,0,11,47,,,
24242,control_change,900,0,12,,,,,,,,,11,11,50,,,
24242,note_on,0,0,12,,,,,,,,,11,,,,69,112
24242,note_on,30,0,3,,,,,,,,,2,,,,82,0
24242,note_on,0,0,3,,,,,,,,,2,,,,81,101
24242,control_change,1920,0,2,,,,,,,,,1,11,47,,,
24242,note_on,0,0,2,,,,,,,,,1,,,,72,100
24242,note_on,44,0,14,,,,,,,,,13,,,,60,0
24242,note_on,55,0,4,,,,,,,,,3,,,,52,0
24244,note_on,44,0,15,,,,,,,,,14,,,,40,0
24245,note_on,0,0,13,,,,,,,,,12,,,,60,112
24245,control_change,1920,0,13,,,,,,,,,12,11,50,,,
24246,control_change,4,0,14,,,,,,,,,13,11,55,,,
24247,note_on,0,0,4,,,,,,,,,3,,,,53,100
24247,control_change,5,0,4,,,,,,,,,3,11,47,,,
24247,note_on,0,0,14,,,,,,,,,13,,,,60,112
24247,control_change,1,0,14,,,,,,,,,13,11,50,,,
24248,control_change,4,0,15,,,,,,,,,14,11,55,,,
24249,note_on,0,0,15,,,,,,,,,14,,,,41,112
24249,control_change,1,0,15,,,,,,,,,14,11,50,,,
24264,control_change,24,0,11,,,,,,,,,10,11,52,,,
24265,control_change,24,0,1,,,,,,,,,0,11,49,,,
24266,control_change,24,0,12,,,,,,,,,11,11,52,,,
24266,control_change,24,0,2,,,,,,,,,1,11,49,,,
24269,control_change,24,0,13,,,,,,,,,12,11,52,,,
24271,control_change,24,0,14,,,,,,,,,13,11,52,,,
24271,control_change,24,0,4,,,,,,,,,3,11,49,,,
24272,note_on,0,0,2,,,,,,,,,1,,,,77,100
24272,note_on,6,0,2,,,,,,,,,1,,,,72,0
24273,control_change,24,0,15,,,,,,,,,14,11,52,,,
24275,note_on,0,0,13,,,,,,,,,12,,,,65,112
24275,note_on,6,0,13,,,,,,,,,12,,,,60,0
24277,note_on,6,0,14,,,,,,,,,13,,,,60,0
24277,note_on,0,0,14,,,,,,,,,13,,,,65,112
24288,control_change,24,0,11,,,,,,,,,10,11,54,,,
24289,control_change,24,0,1,,,,,,,,,0,11,51,,,
24290,control_change,24,0,12,,,,,,,,,11,11,54,,,
24290,control_change,18,0,2,,,,,,,,,1,11,51,,,
24293,control_change,18,0,13,,,,,,,,,12,11,54,,,
24295,control_change,24,0,4,,,,,,,,,3,11,51,,,
24295,control_change,18,0,14,,,,,,,,,13,11,54,,,
24297,control_change,24,0,15,,,,,,,,,14,11,54,,,
24300,note_on,12,0,11,,,,,,,,,10,,,,69,0
24300,set_tempo,60,1,0,,,,,,1153846,,,,,,,,
24300,note_on,0,0,11,,,,,,,,,10,,,,72,112
24301,note_on,0,0,1,,,,,,,,,0,,,,84,101
24301,note_on,12,0,1,,,,,,,,,0,,,,81,0
24302,note_on,12,0,12,,,,,,,,,11,,,,69,0
24302,note_on,0,0,12,,,,,,,,,11,,,,72,112
24302,note_on,12,0,2,,,,,,,,,1,,,,77,0
24302,note_on,60,0,3,,,,,,,,,2,,,,81,0
24302,note_on,0,0,2,,,,,,,,,1,,,,81,100
24305,note_on,12,0,13,,,,,,,,,12,,,,65,0
24305,note_on,0,0,13,,,,,,,,,12,,,,69,112
24307,note_on,12,0,14,,,,,,,,,13,,,,65,0
24307,note_on,0,0,14,,,,,,,,,13,,,,69,112
24312,control_change,12,0,11,,,,,,,,,10,11,56,,,
24313,control_change,12,0,1,,,,,,,,,0,11,53,,,
24314,control_change,12,0,12,,,,,,,,,11,11,56,,,
24314,control_change,12,0,2,,,,,,,,,1,11,53,,,
24317,control_change,12,0,13,,,,,,,,,12,11,56,,,
24319,control_change,12,0,14,,,,,,,,,13,11,56,,,
24319,control_change,24,0,4,,,,,,,,,3,11,53,,,
24321,control_change,24,0,15,,,,,,,,,14,11,56,,,
24332,note_on,18,0,2,,,,,,,,,1,,,,81,0
24332,note_on,0,0,2,,,,,,,,,1,,,,79,100
24335,note_on,18,0,13,,,,,,,,,12,,,,69,0
24335,note_on,0,0,13,,,,,,,,,12,,,,67,112
24336,control_change,24,0,11,,,,,,,,,10,11,57,,,
24337,note_on,18,0,14,,,,,,,,,13,,,,69,0
24337,note_on,0,0,14,,,,,,,,,13,,,,67,112
24337,control_change,24,0,1,,,,,,,,,0,11,55,,,
24338,control_change,6,0,2,,,,,,,,,1,11,55,,,
24338,control_change,24,0,12,,,,,,,,,11,11,57,,,
24341,control_change,6,0,13,,,,,,,,,12,11,57,,,
24343,control_change,6,0,14,,,,,,,,,13,11,57,,,
24343,control_change,24,0,4,,,,,,,,,3,11,55,,,
24345,note_on,0,0,11,,,,,,,,,10,,,,70,112
24345,note_on,9,0,11,,,,,,,,,10,,,,72,0
24345,control_change,24,0,15,,,,,,,,,14,11,57,,,
24346,note_on,0,0,1,,,,,,,,,0,,,,82,101
24346,note_on,9,0,1,,,,,,,,,0,,,,84,0
24347,note_on,0,0,12,,,,,,,,,11,,,,70,112
24347,note_on,9,0,12,,,,,,,,,11,,,,72,0
24360,set_tempo,60,1,0,,,,,,1200000,,,,,,,,
24360,note_on,0,0,11,,,,,,,,,10,,,,69,112
24360,control_change,0,0,11,,,,,,,,,10,11,59,,,
24360,note_on,15,0,11,,,,,,,,,10,,,,70,0
24361,control_change,0,0,1,,,,,,,,,0,11,57,,,
24361,note_on,0,0,1,,,,,,,,,0,,,,81,101
24361,note_on,15,0,1,,,,,,,,,0,,,,82,0
24362,note_on,15,0,12,,,,,,,,,11,,,,70,0
24362,control_change,0,0,12,,,,,,,,,11,11,59,,,
24362,note_on,0,0,12,,,,,,,,,11,,,,69,112
24362,note_on,24,0,2,,,,,,,,,1,,,,79,0
24362,control_change,0,0,2,,,,,,,,,1,11,57,,,
24362,note_on,0,0,2,,,,,,,,,1,,,,77,100
24365,control_change,0,0,13,,,,,,,,,12,11,59,,,
24365,note_on,24,0,13,,,,,,,,,12,,,,67,0
24365,note_on,0,0,13,,,,,,,,,12,,,,65,112
24367,note_on,0,0,14,,,,,,,,,13,,,,65,112
24367,control_change,0,0,14,,,,,,,,,13,11,59,,,
24367,note_on,24,0,14,,,,,,,,,13,,,,67,0
24367,control_change,24,0,4,,,,,,,,,3,11,57,,,
24369,control_change,24,0,15,,,,,,,,,14,11,59,,,
24383,control_change,23,0,11,,,,,,,,,10,11,57,,,
24384,control_change,23,0,1,,,,,,,,,0,11,55,,,
24385,control_change,23,0,12,,,,,,,,,11,11,57,,,
24385,control_change,23,0,2,,,,,,,,,1,11,55,,,
24388,control_change,23,0,13,,,,,,,,,12,11,57,,,
24390,control_change,23,0,4,,,,,,,,,3,11,55,,,
24390,control_change,23,0,14,,,,,,,,,13,11,57,,,
24392,control_change,23,0,15,,,,,,,,,14,11,57,,,
24407,control_change,24,0,11,,,,,,,,,10,11,56,,,
24408,control_change,24,0,1,,,,,,,,,0,11,53,,,
24409,control_change,24,0,2,,,,,,,,,1,11,53,,,
24409,control_change,24,0,12,,,,,,,,,11,11,56,,,
24412,control_change,24,0,13,,,,,,,,,12,11,56,,,
24414,control_change,24,0,14,,,,,,,,,13,11,56,,,
24414,control_change,24,0,4,,,,,,,,,3,11,53,,,
24416,control_change,24,0,15,,,,,,,,,14,11,56,,,
24420,note_on,13,0,11,,,,,,,,,10,,,,69,0
24420,note_on,0,0,11,,,,,,,,,10,,,,67,112
24420,set_tempo,60,1,0,,,,,,1153846,,,,,,,,
24421,note_on,0,0,1,,,,,,,,,0,,,,79,101
24421,note_on,13,0,1,,,,,,,,,0,,,,81,0
24422,note_on,13,0,12,,,,,,,,,11,,,,69,0
24422,note_on,0,0,12,,,,,,,,,11,,,,67,112
24422,note_on,0,0,2,,,,,,,,,1,,,,72,100
24422,note_on,13,0,2,,,,,,,,,1,,,,77,0
24425,note_on,13,0,13,,,,,,,,,12,,,,65,0
24425,note_on,0,0,13,,,,,,,,,12,,,,60,112
24427,note_on,13,0,4,,,,,,,,,3,,,,53,0
24427,note_on,0,0,4,,,,,,,,,3,,,,52,100
24427,note_on,0,0,14,,,,,,,,,13,,,,60,112
24427,note_on,13,0,14,,,,,,,,,13,,,,65,0
24429,note_on,0,0,15,,,,,,,,,14,,,,40,112
24429,note_on,13,0,15,,,,,,,,,14,,,,41,0
24431,control_change,11,0,11,,,,,,,,,10,11,54,,,
24432,control_change,11,0,1,,,,,,,,,0,11,51,,,
24433,control_change,11,0,2,,,,,,,,,1,11,51,,,
24433,control_change,11,0,12,,,,,,,,,11,11,54,,,
24436,control_change,11,0,13,,,,,,,,,12,11,54,,,
24438,control_change,11,0,4,,,,,,,,,3,11,51,,,
24438,control_change,11,0,14,,,,,,,,,13,11,54,,,
24440,control_change,11,0,15,,,,,,,,,14,11,54,,,
24455,control_change,24,0,11,,,,,,,,,10,11,52,,,
24456,control_change,24,0,1,,,,,,,,,0,11,49,,,
24457,control_change,24,0,2,,,,,,,,,1,11,49,,,
24457,control_change,24,0,12,,,,,,,,,11,11,52,,,
24460,control_change,24,0,13,,,,,,,,,12,11,52,,,
24462,control_change,24,0,14,,,,,,,,,13,11,52,,,
24462,control_change,24,0,4,,,,,,,,,3,11,49,,,
24464,control_change,24,0,15,,,,,,,,,14,11,52,,,
24475,note_on,20,0,11,,,,,,,,,10,,,,67,0
24476,note_on,20,0,1,,,,,,,,,0,,,,79,0
24477,note_on,20,0,12,,,,,,,,,11,,,,67,0
24477,note_on,20,0,2,,,,,,,,,1,,,,72,0
24479,control_change,4,0,11,,,,,,,,,10,11,50,,,
24480,note_on,1,0,11,,,,,,,,,10,,,,65,112
24480,control_change,4,0,1,,,,,,,,,0,11,47,,,
24480,note_on,20,0,13,,,,,,,,,12,,,,60,0
24480,set_tempo,60,1,0,,,,,,1200000,,,,,,,,
24481,control_change,4,0,2,,,,,,,,,1,11,47,,,
24481,control_change,4,0,12,,,,,,,,,11,11,50,,,
24481,note_on,1,0,1,,,,,,,,,0,,,,77,101
24482,note_on,1,0,2,,,,,,,,,1,,,,69,100
24482,note_on,1,0,12,,,,,,,,,11,,,,65,112
24482,note_on,20,0,14,,,,,,,,,13,,,,60,0
24484,note_on,20,0,15,,,,,,,,,14,,,,40,0
24484,control_change,4,0,13,,,,,,,,,12,11,50,,,
24485,note_on,1,0,13,,,,,,,,,12,,,,57,112
24486,control_change,4,0,14,,,,,,,,,13,11,50,,,
24486,control_change,24,0,4,,,,,,,,,3,11,47,,,
24487,note_on,0,0,4,,,,,,,,,3,,,,50,100
24487,note_on,1,0,4,,,,,,,,,3,,,,52,0
24487,note_on,1,0,14,,,,,,,,,13,,,,57,112
24488,control_change,4,0,15,,,,,,,,,14,11,50,,,
24489,note_on,1,0,15,,,,,,,,,14,,,,38,112
24512,note_on,30,0,2,,,,,,,,,1,,,,69,0
24512,note_on,0,0,2,,,,,,,,,1,,,,74,100
24515,note_on,0,0,13,,,,,,,,,12,,,,62,112
24515,note_on,30,0,13,,,,,,,,,12,,,,57,0
24517,note_on,30,0,14,,,,,,,,,13,,,,57,0
24517,note_on,0,0,14,,,,,,,,,13,,,,62,112
24540,set_tempo,60,1,0,,,,,,1153846,,,,,,,,
24542,note_on,0,0,2,,,,,,,,,1,,,,73,100
24542,note_on,30,0,2,,,,,,,,,1,,,,74,0
24545,note_on,30,0,13,,,,,,,,,12,,,,62,0
24545,note_on,0,0,13,,,,,,,,,12,,,,61,112
24547,note_on,30,0,14,,,,,,,,,13,,,,62,0
24547,note_on,0,0,14,,,,,,,,,13,,,,61,112
24572,note_on,0,0,2,,,,,,,,,1,,,,74,100
24572,note_on,30,0,2,,,,,,,,,1,,,,73,0
24575,note_on,30,0,13,,,,,,,,,12,,,,61,0
24575,note_on,0,0,13,,,,,,,,,12,,,,62,112
24577,note_on,30,0,14,,,,,,,,,13,,,,61,0
24577,note_on,0,0,14,,,,,,,,,13,,,,62,112
24600,set_tempo,60,1,0,,,,,,1200000,,,,,,,,
24600,note_on,0,0,11,,,,,,,,,10,,,,66,127
24600,note_on,120,0,11,,,,,,,,,10,,,,65,0
24601,note_on,0,0,1,,,,,,,,,0,,,,78,116
24601,note_on,120,0,1,,,,,,,,,0,,,,77,0
24602,note_on,120,0,12,,,,,,,,,11,,,,65,0
24602,note_on,30,0,2,,,,,,,,,1,,,,74,0
24602,note_on,0,0,2,,,,,,,,,1,,,,75,115
24602,note_on,0,0,12,,,,,,,,,11,,,,66,127
24602,note_on,115,0,4,,,,,,,,,3,,,,50,0
24605,note_on,30,0,13,,,,,,,,,12,,,,62,0
24605,note_on,0,0,13,,,,,,,,,12,,,,63,127
24607,note_on,30,0,14,,,,,,,,,13,,,,62,0
24607,note_on,0,0,14,,,,,,,,,13,,,,63,127
24607,note_on,5,0,4,,,,,,,,,3,,,,45,115
24609,note_on,0,0,15,,,,,,,,,14,,,,33,127
24609,note_on,120,0,15,,,,,,,,,14,,,,38,0
24660,set_tempo,60,1,0,,,,,,1153846,,,,,,,,
24715,note_on,115,0,11,,,,,,,,,10,,,,66,0
24716,note_on,115,0,1,,,,,,,,,0,,,,78,0
24717,note_on,115,0,2,,,,,,,,,1,,,,75,0
24717,note_on,115,0,12,,,,,,,,,11,,,,66,0
24720,set_tempo,60,1,0,,,,,,1200000,,,,,,,,
24720,note_on,115,0,13,,,,,,,,,12,,,,63,0
24720,note_on,5,0,11,,,,,,,,,10,,,,67,112
24721,note_on,5,0,1,,,,,,,,,0,,,,79,101
24722,note_on,5,0,12,,,,,,,,,11,,,,67,112
24722,note_on,115,0,4,,,,,,,,,3,,,,45,0
24722,note_on,5,0,2,,,,,,,,,1,,,,74,100
24722,note_on,115,0,14,,,,,,,,,13,,,,63,0
24724,note_on,115,0,15,,,,,,,,,14,,,,33,0
24725,note_on,5,0,13,,,,,,,,,12,,,,62,112
24727,note_on,5,0,4,,,,,,,,,3,,,,46,100
24727,note_on,5,0,14,,,,,,,,,13,,,,62,112
24729,note_on,5,0,15,,,,,,,,,14,,,,34,112
24780,note_on,0,0,11,,,,,,,,,10,,,,70,112
24780,set_tempo,60,1,0,,,,,,1153846,,,,,,,,
24780,note_on,60,0,11,,,,,,,,,10,,,,67,0
24781,note_on,60,0,1,,,,,,,,,0,,,,79,0
24781,note_on,0,0,1,,,,,,,,,0,,,,82,101
24782,note_on,0,0,12,,,,,,,,,11,,,,70,112
24782,note_on,60,0,12,,,,,,,,,11,,,,67,0
24787,note_on,60,0,4,,,,,,,,,3,,,,46,0
24787,note_on,0,0,4,,,,,,,,,3,,,,43,100
24789,note_on,0,0,15,,,,,,,,,14,,,,31,112
24789,note_on,60,0,15,,,,,,,,,14,,,,34,0
24812,note_on,90,0,2,,,,,,,,,1,,,,74,0
24812,note_on,0,0,2,,,,,,,,,1,,,,76,100
24815,note_on,0,0,13,,,,,,,,,12,,,,64,112
24815,note_on,90,0,13,,,,,,,,,12,,,,62,0
24817,note_on,0,0,14,,,,,,,,,13,,,,64,112
24817,note_on,90,0,14,,,,,,,,,13,,,,62,0
24840,note_on,0,0,11,,,,,,,,,10,,,,69,112
24840,note_on,60,0,11,,,,,,,,,10,,,,70,0
24840,set_tempo,60,1,0,,,,,,1200000,,,,,,,,
24841,note_on,60,0,1,,,,,,,,,0,,,,82,0
24841,note_on,0,0,1,,,,,,,,,0,,,,81,101
24842,note_on,0,0,12,,,,,,,,,11,,,,69,112
24842,note_on,0,0,2,,,,,,,,,1,,,,77,100
24842,note_on,30,0,2,,,,,,,,,1,,,,76,0
24842,note_on,60,0,12,,,,,,,,,11,,,,70,0
24845,note_on,30,0,13,,,,,,,,,12,,,,64,0
24845,note_on,0,0,13,,,,,,,,,12,,,,65,112
24847,note_on,60,0,4,,,,,,,,,3,,,,43,0
24847,note_on,0,0,4,,,,,,,,,3,,,,45,100
24847,note_on,0,0,14,,,,,,,,,13,,,,65,112
24847,note_on,30,0,14,,,,,,,,,13,,,,64,0
24849,note_on,0,0,15,,,,,,,,,14,,,,33,112
24849,note_on,60,0,15,,,,,,,,,14,,,,31,0
24900,note_on,60,0,11,,,,,,,,,10,,,,69,0
24900,note_on,0,0,11,,,,,,,,,10,,,,67,112
24900,set_tempo,60,1,0,,,,,,1153846,,,,,,,,
24901,note_on,60,0,1,,,,,,,,,0,,,,81,0
24901,note_on,0,0,1,,,,,,,,,0,,,,79,101
24902,note_on,60,0,2,,,,,,,,,1,,,,77,0
24902,note_on,0,0,2,,,,,,,,,1,,,,76,100
24902,note_on,60,0,12,,,,,,,,,11,,,,69,0
24902,note_on,0,0,12,,,,,,,,,11,,,,67,112
24905,note_on,0,0,13,,,,,,,,,12,,,,64,112
24905,note_on,60,0,13,,,,,,,,,12,,,,65,0
24907,note_on,0,0,14,,,,,,,,,13,,,,64,112
24907,note_on,0,0,4,,,,,,,,,3,,,,48,100
24907,note_on,60,0,4,,,,,,,,,3,,,,45,0
24907,note_on,60,0,14,,,,,,,,,13,,,,65,0
24909,note_on,60,0,15,,,,,,,,,14,,,,33,0
24909,note_on,0,0,15,,,,,,,,,14,,,,36,112
24930,note_on,0,0,11,,,,,,,,,10,,,,76,112
24930,set_tempo,30,1,0,,,,,,1304348,,,,,,,,
24930,note_on,30,0,11,,,,,,,,,10,,,,67,0
24935,note_on,0,0,13,,,,,,,,,12,,,,72,112
24935,note_on,30,0,13,,,,,,,,,12,,,,64,0
24937,note_on,30,0,14,,,,,,,,,13,,,,64,0
24955,note_on,25,0,11,,,,,,,,,10,,,,76,0
24956,note_on,55,0,1,,,,,,,,,0,,,,79,0
24957,note_on,55,0,2,,,,,,,,,1,,,,76,0
24957,note_on,55,0,12,,,,,,,,,11,,,,67,0
24960,control_change,5,0,11,,,,,,,,,10,11,55,,,
24960,note_on,25,0,13,,,,,,,,,12,,,,72,0
24960,note_on,0,0,11,,,,,,,,,10,,,,77,112
24960,set_tempo,30,1,0,,,,,,1153846,,,,,,,,
24961,note_on,5,0,1,,,,,,,,,0,,,,77,101
24962,note_on,5,0,2,,,,,,,,,1,,,,77,100
24962,note_on,55,0,4,,,,,,,,,3,,,,48,0
24962,note_on,0,0,12,,,,,,,,,11,,,,65,112
24962,note_on,0,0,12,,,,,,,,,11,,,,74,112
24962,control_change,5,0,12,,,,,,,,,11,11,55,,,
24964,note_on,55,0,15,,,,,,,,,14,,,,36,0
24965,note_on,0,0,13,,,,,,,,,12,,,,69,112
24965,control_change,5,0,13,,,,,,,,,12,11,55,,,
24967,note_on,0,0,14,,,,,,,,,13,,,,50,112
24967,control_change,30,0,14,,,,,,,,,13,11,55,,,
24969,control_change,5,0,15,,,,,,,,,14,11,55,,,
24969,note_on,0,0,15,,,,,,,,,14,,,,38,112
24978,control_change,18,0,11,,,,,,,,,10,11,60,,,
24980,control_change,18,0,12,,,,,,,,,11,11,60,,,
24983,control_change,18,0,13,,,,,,,,,12,11,60,,,
24985,control_change,18,0,14,,,,,,,,,13,11,60,,,
24987,control_change,9,0,11,,,,,,,,,10,11,63,,,
24987,control_change,18,0,15,,,,,,,,,14,11,60,,,
24989,control_change,9,0,12,,,,,,,,,11,11,63,,,
24992,control_change,9,0,13,,,,,,,,,12,11,63,,,
24994,control_change,9,0,14,,,,,,,,,13,11,63,,,
24996,control_change,9,0,15,,,,,,,,,14,11,63,,,
24996,control_change,9,0,11,,,,,,,,,10,11,66,,,
24998,control_change,9,0,12,,,,,,,,,11,11,66,,,
25001,control_change,9,0,13,,,,,,,,,12,11,66,,,
25003,control_change,9,0,14,,,,,,,,,13,11,66,,,
25005,control_change,9,0,15,,,,,,,,,14,11,66,,,
25005,control_change,9,0,11,,,,,,,,,10,11,69,,,
25007,control_change,9,0,12,,,,,,,,,11,11,69,,,
25010,control_change,9,0,13,,,,,,,,,12,11,69,,,
25012,control_change,9,0,14,,,,,,,,,13,11,69,,,
25014,control_change,9,0,11,,,,,,,,,10,11,72,,,
25014,control_change,9,0,15,,,,,,,,,14,11,69,,,
25016,control_change,9,0,12,,,,,,,,,11,11,72,,,
25019,control_change,9,0,13,,,,,,,,,12,11,72,,,
25020,set_tempo,60,1,0,,,,,,1111111,,,,,,,,
25021,note_on,60,0,1,,,,,,,,,0,,,,77,0
25021,control_change,9,0,14,,,,,,,,,13,11,72,,,
25022,note_on,60,0,2,,,,,,,,,1,,,,77,0
25023,control_change,9,0,15,,,,,,,,,14,11,72,,,
25070,note_on,56,0,11,,,,,,,,,10,,,,77,0
25072,note_on,0,0,12,,,,,,,,,11,,,,65,0
25072,note_on,56,0,12,,,,,,,,,11,,,,74,0
25075,note_on,56,0,13,,,,,,,,,12,,,,69,0
25077,note_on,56,0,14,,,,,,,,,13,,,,50,0
25079,note_on,56,0,15,,,,,,,,,14,,,,38,0
25080,set_tempo,60,1,0,,,,,,1153846,,,,,,,,
25080,note_on,10,0,11,,,,,,,,,10,,,,76,112
25082,note_on,0,0,12,,,,,,,,,11,,,,72,112
25082,note_on,10,0,12,,,,,,,,,11,,,,64,112
25085,note_on,10,0,13,,,,,,,,,12,,,,69,112
25087,note_on,10,0,14,,,,,,,,,13,,,,45,112
25089,note_on,10,0,15,,,,,,,,,14,,,,33,112
25140,set_tempo,60,1,0,,,,,,1111111,,,,,,,,
25170,set_tempo,30,1,0,,,,,,1518987,,,,,,,,
25190,note_on,110,0,11,,,,,,,,,10,,,,76,0
25192,note_on,110,0,12,,,,,,,,,11,,,,72,0
25192,note_on,0,0,12,,,,,,,,,11,,,,64,0
25195,note_on,110,0,13,,,,,,,,,12,,,,69,0
25197,note_on,110,0,14,,,,,,,,,13,,,,45,0
25199,note_on,110,0,15,,,,,,,,,14,,,,33,0
25200,set_tempo,30,1,0,,,,,,1153846,,,,,,,,
25201,control_change,180,0,1,,,,,,,,,0,11,52,,,
25201,note_on,0,0,1,,,,,,,,,0,,,,86,116
25201,note_on,0,0,1,,,,,,,,,0,,,,82,116
25201,control_change,2880,0,5,,,,,,,,,4,11,52,,,
25201,note_on,0,0,5,,,,,,,,,4,,,,65,115
25202,note_on,0,0,2,,,,,,,,,1,,,,74,115
25202,note_on,0,0,2,,,,,,,,,1,,,,77,115
25202,note_on,0,0,3,,,,,,,,,2,,,,70,116
25202,note_on,0,0,3,,,,,,,,,2,,,,65,116
25202,control_change,180,0,2,,,,,,,,,1,11,52,,,
25202,control_change,900,0,3,,,,,,,,,2,11,52,,,
25204,control_change,2880,0,8,,,,,,,,,7,11,52,,,
25204,note_on,0,0,8,,,,,,,,,7,,,,58,125
25206,note_on,0,0,9,,,,,,,,,8,,,,46,125
25206,control_change,2880,0,9,,,,,,,,,8,11,52,,,
25207,control_change,245,0,4,,,,,,,,,3,11,52,,,
25207,note_on,0,0,4,,,,,,,,,3,,,,62,115
25207,note_on,0,0,4,,,,,,,,,3,,,,58,115
25260,set_tempo,60,1,0,,,,,,1111111,,,,,,,,
25311,note_on,110,0,5,,,,,,,,,4,,,,65,0
25314,note_on,110,0,8,,,,,,,,,7,,,,58,0
25316,note_on,110,0,9,,,,,,,,,8,,,,46,0
25316,note_on,115,0,1,,,,,,,,,0,,,,82,0
25316,note_on,0,0,1,,,,,,,,,0,,,,86,0
25317,note_on,115,0,3,,,,,,,,,2,,,,70,0
25317,note_on,115,0,2,,,,,,,,,1,,,,77,0
25317,note_on,0,0,3,,,,,,,,,2,,,,65,0
25317,note_on,0,0,2,,,,,,,,,1,,,,74,0
25320,set_tempo,60,1,0,,,,,,1153846,,,,,,,,
25321,note_on,0,0,1,,,,,,,,,0,,,,81,101
25321,note_on,5,0,1,,,,,,,,,0,,,,84,101
25321,note_on,10,0,5,,,,,,,,,4,,,,65,100
25322,note_on,0,0,2,,,,,,,,,1,,,,77,100
25322,note_on,0,0,3,,,,,,,,,2,,,,69,101
25322,note_on,5,0,3,,,,,,,,,2,,,,65,101
25322,note_on,0,0,4,,,,,,,,,3,,,,62,0
25322,note_on,5,0,2,,,,,,,,,1,,,,72,100
25322,note_on,115,0,4,,,,,,,,,3,,,,58,0
25324,note_on,10,0,8,,,,,,,,,7,,,,57,110
25326,note_on,10,0,9,,,,,,,,,8,,,,45,110
25327,note_on,5,0,4,,,,,,,,,3,,,,60,100
25327,note_on,0,0,4,,,,,,,,,3,,,,57,100
25380,set_tempo,60,1,0,,,,,,1111111,,,,,,,,
25431,note_on,110,0,5,,,,,,,,,4,,,,65,0
25434,note_on,110,0,8,,,,,,,,,7,,,,57,0
25436,note_on,110,0,9,,,,,,,,,8,,,,45,0
25436,note_on,115,0,1,,,,,,,,,0,,,,81,0
25436,note_on,0,0,1,,,,,,,,,0,,,,84,0
25437,note_on,115,0,3,,,,,,,,,2,,,,69,0
25437,note_on,0,0,2,,,,,,,,,1,,,,72,0
25437,note_on,115,0,2,,,,,,,,,1,,,,77,0
25437,note_on,0,0,3,,,,,,,,,2,,,,65,0
25440,set_tempo,60,1,0,,,,,,1153846,,,,,,,,
25441,note_on,5,0,1,,,,,,,,,0,,,,83,101
25441,note_on,0,0,1,,,,,,,,,0,,,,80,101
25442,note_on,0,0,3,,,,,,,,,2,,,,68,101
25442,note_on,5,0,3,,,,,,,,,2,,,,65,101
25442,note_on,115,0,4,,,,,,,,,3,,,,57,0
25442,note_on,0,0,2,,,,,,,,,1,,,,77,100
25442,note_on,0,0,4,,,,,,,,,3,,,,60,0
25442,note_on,5,0,2,,,,,,,,,1,,,,71,100
25446,note_on,10,0,9,,,,,,,,,8,,,,50,110
25447,note_on,5,0,4,,,,,,,,,3,,,,59,100
25447,note_on,0,0,4,,,,,,,,,3,,,,56,100
25500,set_tempo,60,1,0,,,,,,1111111,,,,,,,,
25501,note_on,60,0,1,,,,,,,,,0,,,,80,0
25501,note_on,0,0,1,,,,,,,,,0,,,,84,101
25501,note_on,0,0,1,,,,,,,,,0,,,,79,101
25501,note_on,0,0,1,,,,,,,,,0,,,,83,0
25502,note_on,0,0,3,,,,,,,,,2,,,,67,101
25502,note_on,0,0,3,,,,,,,,,2,,,,60,101
25502,note_on,0,0,3,,,,,,,,,2,,,,65,0
25502,note_on,60,0,3,,,,,,,,,2,,,,68,0
25502,note_on,0,0,2,,,,,,,,,1,,,,72,100
25502,note_on,0,0,2,,,,,,,,,1,,,,71,0
25502,note_on,60,0,2,,,,,,,,,1,,,,77,0
25506,note_on,0,0,9,,,,,,,,,8,,,,52,110
25506,note_on,60,0,9,,,,,,,,,8,,,,50,0
25507,note_on,0,0,4,,,,,,,,,3,,,,59,0
25507,note_on,0,0,4,,,,,,,,,3,,,,55,100
25507,note_on,0,0,4,,,,,,,,,3,,,,58,100
25507,note_on,60,0,4,,,,,,,,,3,,,,56,0
25560,set_tempo,60,1,0,,,,,,1153846,,,,,,,,
25561,note_on,60,0,1,,,,,,,,,0,,,,79,0
25561,note_on,0,0,1,,,,,,,,,0,,,,77,101
25561,note_on,0,0,1,,,,,,,,,0,,,,81,101
25561,note_on,0,0,1,,,,,,,,,0,,,,84,0
25562,note_on,0,0,3,,,,,,,,,2,,,,65,101
25562,note_on,60,0,3,,,,,,,,,2,,,,67,0
25562,note_on,60,0,2,,,,,,,,,1,,,,69,100
25566,note_on,60,0,9,,,,,,,,,8,,,,52,0
25566,note_on,0,0,9,,,,,,,,,8,,,,53,110
25567,note_on,0,0,4,,,,,,,,,3,,,,55,0
25567,note_on,0,0,4,,,,,,,,,3,,,,53,100
25567,note_on,0,0,4,,,,,,,,,3,,,,57,100
25567,note_on,60,0,4,,,,,,,,,3,,,,58,0
25620,set_tempo,60,1,0,,,,,,1111111,,,,,,,,
25621,note_on,60,0,1,,,,,,,,,0,,,,77,0
25621,note_on,0,0,1,,,,,,,,,0,,,,81,0
25621,note_on,0,0,1,,,,,,,,,0,,,,84,101
25621,note_on,0,0,1,,,,,,,,,0,,,,74,101
25622,note_on,0,0,3,,,,,,,,,2,,,,60,0
25622,note_on,0,0,3,,,,,,,,,2,,,,62,101
25622,note_on,60,0,3,,,,,,,,,2,,,,65,0
25622,note_on,0,0,2,,,,,,,,,1,,,,74,100
25622,note_on,0,0,2,,,,,,,,,1,,,,72,100
25622,note_on,60,0,2,,,,,,,,,1,,,,69,0
25622,note_on,0,0,2,,,,,,,,,1,,,,72,0
25626,note_on,0,0,9,,,,,,,,,8,,,,46,110
25626,note_on,60,0,9,,,,,,,,,8,,,,53,0
25627,note_on,0,0,4,,,,,,,,,3,,,,60,100
25627,note_on,60,0,4,,,,,,,,,3,,,,57,0
25627,note_on,0,0,4,,,,,,,,,3,,,,53,0
25627,note_on,0,0,4,,,,,,,,,3,,,,50,100
25651,note_on,0,0,1,,,,,,,,,0,,,,79,101
25651,note_on,0,0,1,,,,,,,,,0,,,,74,0
25651,note_on,0,0,1,,,,,,,,,0,,,,82,101
25651,note_on,30,0,1,,,,,,,,,0,,,,84,0
25652,note_on,0,0,2,,,,,,,,,1,,,,70,100
25652,note_on,30,0,2,,,,,,,,,1,,,,72,0
25652,note_on,30,0,3,,,,,,,,,2,,,,67,101
25657,note_on,0,0,4,,,,,,,,,3,,,,55,100
25657,note_on,30,0,4,,,,,,,,,3,,,,60,0
25657,note_on,0,0,4,,,,,,,,,3,,,,58,100
25657,note_on,0,0,4,,,,,,,,,3,,,,50,0
25676,note_on,0,0,1,,,,,,,,,0,,,,79,0
25676,note_on,25,0,1,,,,,,,,,0,,,,82,0
25677,note_on,0,0,3,,,,,,,,,2,,,,62,0
25677,note_on,25,0,3,,,,,,,,,2,,,,67,0
25680,set_tempo,60,1,0,,,,,,1153846,,,,,,,,
25681,note_on,0,0,1,,,,,,,,,0,,,,77,101
25681,note_on,5,0,1,,,,,,,,,0,,,,81,101
25682,note_on,0,0,4,,,,,,,,,3,,,,55,0
25682,note_on,25,0,4,,,,,,,,,3,,,,58,0
25682,note_on,0,0,2,,,,,,,,,1,,,,74,0
25682,note_on,0,0,2,,,,,,,,,1,,,,69,100
25682,note_on,30,0,2,,,,,,,,,1,,,,70,0
25682,note_on,5,0,3,,,,,,,,,2,,,,69,101
25682,note_on,0,0,3,,,,,,,,,2,,,,65,101
25682,note_on,0,0,2,,,,,,,,,1,,,,72,100
25684,note_on,250,0,8,,,,,,,,,7,,,,60,110
25684,note_on,0,0,8,,,,,,,,,7,,,,57,110
25686,note_on,60,0,9,,,,,,,,,8,,,,46,0
25686,note_on,0,0,9,,,,,,,,,8,,,,48,110
25687,note_on,5,0,4,,,,,,,,,3,,,,53,100
25687,note_on,0,0,4,,,,,,,,,3,,,,57,100
25740,set_tempo,60,1,0,,,,,,1111111,,,,,,,,
25742,note_on,60,0,2,,,,,,,,,1,,,,72,0
25742,note_on,0,0,2,,,,,,,,,1,,,,69,0
25742,note_on,0,0,2,,,,,,,,,1,,,,71,100
25742,note_on,0,0,2,,,,,,,,,1,,,,74,100
25744,note_on,60,0,8,,,,,,,,,7,,,,57,0
25744,note_on,0,0,8,,,,,,,,,7,,,,59,110
25744,note_on,0,0,8,,,,,,,,,7,,,,62,110
25744,note_on,0,0,8,,,,,,,,,7,,,,60,0
25800,set_tempo,60,1,0,,,,,,1153846,,,,,,,,
25801,note_on,0,0,1,,,,,,,,,0,,,,79,101
25801,note_on,0,0,1,,,,,,,,,0,,,,76,101
25801,note_on,0,0,1,,,,,,,,,0,,,,81,0
25801,note_on,120,0,1,,,,,,,,,0,,,,77,0
25802,note_on,0,0,3,,,,,,,,,2,,,,64,101
25802,note_on,0,0,3,,,,,,,,,2,,,,67,101
25802,note_on,60,0,2,,,,,,,,,1,,,,74,0
25802,note_on,0,0,3,,,,,,,,,2,,,,69,0
25802,note_on,0,0,2,,,,,,,,,1,,,,72,100
25802,note_on,0,0,2,,,,,,,,,1,,,,76,100
25802,note_on,120,0,3,,,,,,,,,2,,,,65,0
25802,note_on,0,0,2,,,,,,,,,1,,,,71,0
25804,note_on,60,0,8,,,,,,,,,7,,,,59,0
25804,note_on,0,0,8,,,,,,,,,7,,,,64,110
25804,note_on,0,0,8,,,,,,,,,7,,,,60,110
25804,note_on,0,0,8,,,,,,,,,7,,,,62,0
25807,note_on,0,0,4,,,,,,,,,3,,,,53,0
25807,note_on,0,0,4,,,,,,,,,3,,,,52,100
25807,note_on,0,0,4,,,,,,,,,3,,,,55,100
25807,note_on,120,0,4,,,,,,,,,3,,,,57,0
25860,set_tempo,60,1,0,,,,,,1111111,,,,,,,,
25861,note_on,60,0,1,,,,,,,,,0,,,,79,0
25861,note_on,0,0,1,,,,,,,,,0,,,,76,0
25862,note_on,0,0,3,,,,,,,,,2,,,,64,0
25862,note_on,60,0,3,,,,,,,,,2,,,,67,0
25862,note_on,0,0,2,,,,,,,,,1,,,,72,0
25862,note_on,60,0,2,,,,,,,,,1,,,,76,0
25864,note_on,0,0,8,,,,,,,,,7,,,,64,0
25864,note_on,60,0,8,,,,,,,,,7,,,,60,0
25866,note_on,180,0,9,,,,,,,,,8,,,,48,0
25867,note_on,60,0,4,,,,,,,,,3,,,,55,0
25867,note_on,0,0,4,,,,,,,,,3,,,,52,0
25867,note_on,0,0,14,,,,,,,,,13,,,,48,112
25867,control_change,670,0,14,,,,,,,,,13,11,55,,,
25869,note_on,0,0,15,,,,,,,,,14,,,,36,112
25869,control_change,670,0,15,,,,,,,,,14,11,55,,,
25890,set_tempo,30,1,0,,,,,,1276596,,,,,,,,
25897,note_on,30,0,14,,,,,,,,,13,,,,48,0
25899,note_on,30,0,15,,,,,,,,,14,,,,36,0
25920,control_change,730,0,11,,,,,,,,,10,11,55,,,
25920,set_tempo,30,1,0,,,,,,1153846,,,,,,,,
25920,note_on,0,0,11,,,,,,,,,10,,,,77,112
25922,note_on,0,0,12,,,,,,,,,11,,,,74,112
25922,note_on,0,0,12,,,,,,,,,11,,,,65,112
25922,control_change,730,0,12,,,,,,,,,11,11,55,,,
25925,note_on,0,0,13,,,,,,,,,12,,,,69,112
25925,control_change,730,0,13,,,,,,,,,12,11,55,,,
25927,note_on,0,0,14,,,,,,,,,13,,,,50,112
25927,control_change,30,0,14,,,,,,,,,13,11,55,,,
25929,note_on,0,0,15,,,,,,,,,14,,,,38,112
25929,control_change,30,0,15,,,,,,,,,14,11,55,,,
25938,control_change,18,0,11,,,,,,,,,10,11,60,,,
25940,control_change,18,0,12,,,,,,,,,11,11,60,,,
25943,control_change,18,0,13,,,,,,,,,12,11,60,,,
25945,control_change,18,0,14,,,,,,,,,13,11,60,,,
25947,control_change,9,0,11,,,,,,,,,10,11,63,,,
25947,control_change,18,0,15,,,,,,,,,14,11,60,,,
25949,control_change,9,0,12,,,,,,,,,11,11,63,,,
25952,control_change,9,0,13,,,,,,,,,12,11,63,,,
25954,control_change,9,0,14,,,,,,,,,13,11,63,,,
25956,control_change,9,0,15,,,,,,,,,14,11,63,,,
25956,control_change,9,0,11,,,,,,,,,10,11,66,,,
25958,control_change,9,0,12,,,,,,,,,11,11,66,,,
25961,control_change,9,0,13,,,,,,,,,12,11,66,,,
25963,control_change,9,0,14,,,,,,,,,13,11,66,,,
25965,control_change,9,0,15,,,,,,,,,14,11,66,,,
25965,control_change,9,0,11,,,,,,,,,10,11,69,,,
25967,control_change,9,0,12,,,,,,,,,11,11,69,,,
25970,control_change,9,0,13,,,,,,,,,12,11,69,,,
25972,control_change,9,0,14,,,,,,,,,13,11,69,,,
25974,control_change,9,0,11,,,,,,,,,10,11,72,,,
25974,control_change,9,0,15,,,,,,,,,14,11,69,,,
25976,control_change,9,0,12,,,,,,,,,11,11,72,,,
25979,control_change,9,0,13,,,,,,,,,12,11,72,,,
25980,set_tempo,60,1,0,,,,,,1111111,,,,,,,,
25981,control_change,9,0,14,,,,,,,,,13,11,72,,,
25983,control_change,9,0,15,,,,,,,,,14,11,72,,,
26030,note_on,56,0,11,,,,,,,,,10,,,,77,0
26032,note_on,0,0,12,,,,,,,,,11,,,,65,0
26032,note_on,56,0,12,,,,,,,,,11,,,,74,0
26035,note_on,56,0,13,,,,,,,,,12,,,,69,0
26037,note_on,56,0,14,,,,,,,,,13,,,,50,0
26039,note_on,56,0,15,,,,,,,,,14,,,,38,0
26040,set_tempo,60,1,0,,,,,,1153846,,,,,,,,
26040,note_on,10,0,11,,,,,,,,,10,,,,76,112
26042,note_on,0,0,12,,,,,,,,,11,,,,72,112
26042,note_on,10,0,12,,,,,,,,,11,,,,64,112
26045,note_on,10,0,13,,,,,,,,,12,,,,69,112
26047,note_on,10,0,14,,,,,,,,,13,,,,45,112
26049,note_on,10,0,15,,,,,,,,,14,,,,33,112
26100,set_tempo,60,1,0,,,,,,1111111,,,,,,,,
26130,set_tempo,30,1,0,,,,,,1445783,,,,,,,,
26150,note_on,110,0,11,,,,,,,,,10,,,,76,0
26152,note_on,110,0,12,,,,,,,,,11,,,,72,0
26152,note_on,0,0,12,,,,,,,,,11,,,,64,0
26155,note_on,110,0,13,,,,,,,,,12,,,,69,0
26157,note_on,110,0,14,,,,,,,,,13,,,,45,0
26159,note_on,110,0,15,,,,,,,,,14,,,,33,0
26160,set_tempo,30,1,0,,,,,,1153846,,,,,,,,
26161,note_on,0,0,1,,,,,,,,,0,,,,86,116
26161,control_change,300,0,1,,,,,,,,,0,11,52,,,
26161,note_on,0,0,5,,,,,,,,,4,,,,65,115
26161,control_change,730,0,5,,,,,,,,,4,11,52,,,
26161,note_on,0,0,1,,,,,,,,,0,,,,82,116
26162,control_change,300,0,2,,,,,,,,,1,11,52,,,
26162,note_on,0,0,3,,,,,,,,,2,,,,70,116
26162,note_on,0,0,3,,,,,,,,,2,,,,65,116
26162,note_on,0,0,2,,,,,,,,,1,,,,74,115
26162,note_on,0,0,2,,,,,,,,,1,,,,77,115
26162,control_change,300,0,3,,,,,,,,,2,11,52,,,
26164,control_change,300,0,8,,,,,,,,,7,11,52,,,
26164,note_on,0,0,8,,,,,,,,,7,,,,58,125
26166,note_on,0,0,9,,,,,,,,,8,,,,46,125
26166,control_change,300,0,9,,,,,,,,,8,11,52,,,
26167,note_on,0,0,4,,,,,,,,,3,,,,62,115
26167,note_on,0,0,4,,,,,,,,,3,,,,58,115
26167,control_change,300,0,4,,,,,,,,,3,11,52,,,
26220,set_tempo,60,1,0,,,,,,1111111,,,,,,,,
26271,note_on,110,0,5,,,,,,,,,4,,,,65,0
26274,note_on,110,0,8,,,,,,,,,7,,,,58,0
26276,note_on,0,0,1,,,,,,,,,0,,,,86,0
26276,note_on,110,0,9,,,,,,,,,8,,,,46,0
26276,note_on,115,0,1,,,,,,,,,0,,,,82,0
26277,note_on,0,0,2,,,,,,,,,1,,,,74,0
26277,note_on,115,0,3,,,,,,,,,2,,,,70,0
26277,note_on,115,0,2,,,,,,,,,1,,,,77,0
26277,note_on,0,0,3,,,,,,,,,2,,,,65,0
26280,set_tempo,60,1,0,,,,,,1153846,,,,,,,,
26281,note_on,0,0,1,,,,,,,,,0,,,,81,101
26281,note_on,5,0,1,,,,,,,,,0,,,,84,101
26281,note_on,10,0,5,,,,,,,,,4,,,,65,100
26282,note_on,5,0,3,,,,,,,,,2,,,,65,101
26282,note_on,0,0,2,,,,,,,,,1,,,,77,100
26282,note_on,0,0,3,,,,,,,,,2,,,,69,101
26282,note_on,5,0,2,,,,,,,,,1,,,,72,100
26282,note_on,115,0,4,,,,,,,,,3,,,,58,0
26282,note_on,0,0,4,,,,,,,,,3,,,,62,0
26284,note_on,10,0,8,,,,,,,,,7,,,,57,110
26286,note_on,10,0,9,,,,,,,,,8,,,,45,110
26287,note_on,0,0,4,,,,,,,,,3,,,,57,100
26287,note_on,5,0,4,,,,,,,,,3,,,,60,100
26340,set_tempo,60,1,0,,,,,,1111111,,,,,,,,
26391,note_on,110,0,5,,,,,,,,,4,,,,65,0
26394,note_on,110,0,8,,,,,,,,,7,,,,57,0
26396,note_on,115,0,1,,,,,,,,,0,,,,81,0
26396,note_on,110,0,9,,,,,,,,,8,,,,45,0
26396,note_on,0,0,1,,,,,,,,,0,,,,84,0
26397,note_on,115,0,2,,,,,,,,,1,,,,77,0
26397,note_on,0,0,3,,,,,,,,,2,,,,65,0
26397,note_on,115,0,3,,,,,,,,,2,,,,69,0
26397,note_on,0,0,2,,,,,,,,,1,,,,72,0
26400,set_tempo,60,1,0,,,,,,1153846,,,,,,,,
26401,note_on,0,0,1,,,,,,,,,0,,,,89,101
26401,note_on,5,0,1,,,,,,,,,0,,,,83,101
26402,note_on,5,0,3,,,,,,,,,2,,,,65,101
26402,note_on,0,0,3,,,,,,,,,2,,,,77,101
26402,note_on,0,0,4,,,,,,,,,3,,,,60,0
26402,note_on,115,0,4,,,,,,,,,3,,,,57,0
26402,note_on,5,0,2,,,,,,,,,1,,,,71,100
26402,note_on,0,0,2,,,,,,,,,1,,,,77,100
26406,note_on,10,0,9,,,,,,,,,8,,,,50,110
26407,note_on,0,0,4,,,,,,,,,3,,,,65,100
26407,note_on,5,0,4,,,,,,,,,3,,,,59,100
26460,set_tempo,60,1,0,,,,,,1111111,,,,,,,,
26461,note_on,0,0,1,,,,,,,,,0,,,,83,0
26461,note_on,60,0,1,,,,,,,,,0,,,,89,0
26461,note_on,0,0,1,,,,,,,,,0,,,,91,101
26461,note_on,0,0,1,,,,,,,,,0,,,,82,101
26462,note_on,60,0,3,,,,,,,,,2,,,,77,0
26462,note_on,0,0,3,,,,,,,,,2,,,,65,0
26462,note_on,0,0,2,,,,,,,,,1,,,,71,0
26462,note_on,0,0,2,,,,,,,,,1,,,,70,100
26462,note_on,0,0,2,,,,,,,,,1,,,,79,100
26462,note_on,60,0,2,,,,,,,,,1,,,,77,0
26462,note_on,0,0,3,,,,,,,,,2,,,,79,101
26462,note_on,0,0,3,,,,,,,,,2,,,,67,101
26466,note_on,60,0,9,,,,,,,,,8,,,,50,0
26466,note_on,0,0,9,,,,,,,,,8,,,,52,110
26467,note_on,0,0,4,,,,,,,,,3,,,,58,100
26467,note_on,0,0,4,,,,,,,,,3,,,,59,0
26467,note_on,0,0,4,,,,,,,,,3,,,,67,100
26467,note_on,60,0,4,,,,,,,,,3,,,,65,0
26520,set_tempo,60,1,0,,,,,,1153846,,,,,,,,
26521,note_on,0,0,1,,,,,,,,,0,,,,88,101
26521,note_on,60,0,1,,,,,,,,,0,,,,91,0
26522,note_on,60,0,2,,,,,,,,,1,,,,79,0
26522,note_on,60,0,3,,,,,,,,,2,,,,79,0
26522,note_on,0,0,3,,,,,,,,,2,,,,76,101
26522,note_on,0,0,2,,,,,,,,,1,,,,76,100
26526,note_on,0,0,9,,,,,,,,,8,,,,48,110
26526,note_on,60,0,9,,,,,,,,,8,,,,52,0
26527,note_on,60,0,4,,,,,,,,,3,,,,67,0
26527,note_on,0,0,4,,,,,,,,,3,,,,64,100
26580,set_tempo,60,1,0,,,,,,1111111,,,,,,,,
26581,note_on,60,0,1,,,,,,,,,0,,,,88,0
26581,note_on,0,0,1,,,,,,,,,0,,,,82,0
26581,note_on,0,0,1,,,,,,,,,0,,,,81,101
26581,note_on,0,0,1,,,,,,,,,0,,,,89,101
26582,note_on,0,0,3,,,,,,,,,2,,,,77,101
26582,note_on,60,0,3,,,,,,,,,2,,,,76,0
26582,note_on,0,0,3,,,,,,,,,2,,,,67,0
26582,note_on,0,0,2,,,,,,,,,1,,,,69,100
26582,note_on,0,0,3,,,,,,,,,2,,,,65,101
26582,note_on,0,0,2,,,,,,,,,1,,,,77,100
26582,note_on,60,0,2,,,,,,,,,1,,,,76,0
26582,note_on,0,0,2,,,,,,,,,1,,,,70,0
26586,note_on,0,0,9,,,,,,,,,8,,,,50,110
26586,note_on,60,0,9,,,,,,,,,8,,,,48,0
26587,note_on,0,0,4,,,,,,,,,3,,,,65,100
26587,note_on,0,0,4,,,,,,,,,3,,,,57,100
26587,note_on,0,0,4,,,,,,,,,3,,,,58,0
26587,note_on,60,0,4,,,,,,,,,3,,,,64,0
26611,note_on,30,0,1,,,,,,,,,0,,,,81,0
26611,note_on,0,0,1,,,,,,,,,0,,,,77,101
26612,note_on,30,0,2,,,,,,,,,1,,,,69,0
26612,note_on,0,0,2,,,,,,,,,1,,,,65,100
26617,note_on,30,0,4,,,,,,,,,3,,,,57,0
26617,note_on,0,0,4,,,,,,,,,3,,,,53,100
26636,note_on,25,0,1,,,,,,,,,0,,,,77,0
26636,note_on,0,0,1,,,,,,,,,0,,,,89,0
26637,note_on,0,0,3,,,,,,,,,2,,,,65,0
26637,note_on,25,0,2,,,,,,,,,1,,,,65,0
26637,note_on,0,0,2,,,,,,,,,1,,,,77,0
26637,note_on,55,0,3,,,,,,,,,2,,,,77,0
26640,set_tempo,60,1,0,,,,,,1153846,,,,,,,,
26641,note_on,55,0,9,,,,,,,,,8,,,,50,0
26641,note_on,5,0,1,,,,,,,,,0,,,,77,101
26641,note_on,0,0,1,,,,,,,,,0,,,,79,101
26642,note_on,0,0,4,,,,,,,,,3,,,,65,0
26642,note_on,5,0,3,,,,,,,,,2,,,,67,101
26642,note_on,0,0,3,,,,,,,,,2,,,,65,101
26642,note_on,0,0,2,,,,,,,,,1,,,,67,100
26642,note_on,5,0,2,,,,,,,,,1,,,,65,100
26642,note_on,25,0,4,,,,,,,,,3,,,,53,0
26646,note_on,5,0,9,,,,,,,,,8,,,,46,110
26647,note_on,5,0,4,,,,,,,,,3,,,,55,100
26647,note_on,0,0,4,,,,,,,,,3,,,,53,100
26700,set_tempo,60,1,0,,,,,,1111111,,,,,,,,
26701,note_on,60,0,1,,,,,,,,,0,,,,79,0
26701,note_on,0,0,1,,,,,,,,,0,,,,86,101
26702,note_on,60,0,3,,,,,,,,,2,,,,67,0
26702,note_on,0,0,3,,,,,,,,,2,,,,74,101
26702,note_on,0,0,2,,,,,,,,,1,,,,74,100
26702,note_on,60,0,2,,,,,,,,,1,,,,67,0
26707,note_on,60,0,4,,,,,,,,,3,,,,55,0
26707,note_on,0,0,4,,,,,,,,,3,,,,62,100
26760,set_tempo,60,1,0,,,,,,1188119,,,,,,,,
26761,note_on,115,0,9,,,,,,,,,8,,,,46,0
26761,note_on,0,0,1,,,,,,,,,0,,,,76,101
26761,control_change,0,0,1,,,,,,,,,0,11,52,,,
26761,note_on,60,0,1,,,,,,,,,0,,,,77,0
26762,note_on,60,0,3,,,,,,,,,2,,,,65,0
26762,note_on,60,0,2,,,,,,,,,1,,,,65,0
26762,note_on,0,0,3,,,,,,,,,2,,,,64,101
26762,control_change,0,0,3,,,,,,,,,2,11,52,,,
26762,control_change,0,0,2,,,,,,,,,1,11,52,,,
26762,note_on,0,0,2,,,,,,,,,1,,,,64,100
26766,control_change,5,0,9,,,,,,,,,8,11,52,,,
26766,note_on,0,0,9,,,,,,,,,8,,,,48,110
26767,note_on,0,0,4,,,,,,,,,3,,,,52,100
26767,note_on,60,0,4,,,,,,,,,3,,,,53,0
26785,control_change,24,0,1,,,,,,,,,0,11,50,,,
26786,control_change,24,0,3,,,,,,,,,2,11,50,,,
26786,control_change,24,0,2,,,,,,,,,1,11,50,,,
26790,control_change,24,0,9,,,,,,,,,8,11,50,,,
26809,control_change,24,0,1,,,,,,,,,0,11,48,,,
26810,control_change,24,0,2,,,,,,,,,1,11,48,,,
26810,control_change,24,0,3,,,,,,,,,2,11,48,,,
26814,control_change,24,0,9,,,,,,,,,8,11,48,,,
26820,set_tempo,60,1,0,,,,,,1153846,,,,,,,,
26821,note_on,12,0,1,,,,,,,,,0,,,,86,0
26821,note_on,0,0,1,,,,,,,,,0,,,,84,101
26822,note_on,12,0,3,,,,,,,,,2,,,,74,0
26822,note_on,12,0,2,,,,,,,,,1,,,,74,0
26822,note_on,0,0,2,,,,,,,,,1,,,,72,100
26822,note_on,0,0,3,,,,,,,,,2,,,,72,101
26827,note_on,0,0,4,,,,,,,,,3,,,,60,100
26827,note_on,60,0,4,,,,,,,,,3,,,,62,0
26833,control_change,12,0,1,,,,,,,,,0,11,46,,,
26834,control_change,12,0,2,,,,,,,,,1,11,46,,,
26834,control_change,12,0,3,,,,,,,,,2,11,46,,,
26838,control_change,24,0,9,,,,,,,,,8,11,46,,,
26850,set_tempo,30,1,0,,,,,,1333333,,,,,,,,
26851,note_on,0,0,1,,,,,,,,,0,,,,82,101
26851,note_on,18,0,1,,,,,,,,,0,,,,84,0
26852,note_on,18,0,3,,,,,,,,,2,,,,72,0
26852,note_on,18,0,2,,,,,,,,,1,,,,72,0
26852,note_on,0,0,2,,,,,,,,,1,,,,70,100
26852,note_on,0,0,3,,,,,,,,,2,,,,70,101
26857,control_change,6,0,1,,,,,,,,,0,11,44,,,
26857,note_on,30,0,4,,,,,,,,,3,,,,60,0
26857,note_on,0,0,4,,,,,,,,,3,,,,58,100
26858,control_change,6,0,2,,,,,,,,,1,11,44,,,
26858,control_change,6,0,3,,,,,,,,,2,11,44,,,
26862,control_change,24,0,9,,,,,,,,,8,11,44,,,
26876,note_on,19,0,1,,,,,,,,,0,,,,82,0
26876,note_on,0,0,1,,,,,,,,,0,,,,76,0
26877,note_on,0,0,2,,,,,,,,,1,,,,64,0
26877,note_on,19,0,2,,,,,,,,,1,,,,70,0
26877,note_on,0,0,3,,,,,,,,,2,,,,64,0
26877,note_on,19,0,3,,,,,,,,,2,,,,70,0
26880,set_tempo,30,1,0,,,,,,1200000,,,,,,,,
26881,control_change,5,0,1,,,,,,,,,0,11,42,,,
26881,note_on,0,0,1,,,,,,,,,0,,,,81,101
26881,note_on,0,0,1,,,,,,,,,0,,,,77,101
26881,note_on,19,0,9,,,,,,,,,8,,,,48,0
26882,note_on,0,0,2,,,,,,,,,1,,,,65,100
26882,note_on,0,0,12,,,,,,,,,11,,,,69,112
26882,note_on,0,0,2,,,,,,,,,1,,,,69,100
26882,control_change,5,0,2,,,,,,,,,1,11,42,,,
26882,control_change,730,0,12,,,,,,,,,11,11,31,,,
26882,note_on,25,0,4,,,,,,,,,3,,,,58,0
26882,control_change,5,0,3,,,,,,,,,2,11,42,,,
26882,note_on,0,0,3,,,,,,,,,2,,,,65,101
26882,note_on,0,0,3,,,,,,,,,2,,,,69,101
26882,note_on,0,0,4,,,,,,,,,3,,,,52,0
26886,control_change,5,0,9,,,,,,,,,8,11,42,,,
26886,note_on,0,0,9,,,,,,,,,8,,,,41,110
26887,control_change,5,0,4,,,,,,,,,3,11,42,,,
26887,note_on,0,0,4,,,,,,,,,3,,,,53,100
26887,note_on,0,0,4,,,,,,,,,3,,,,57,100
26888,control_change,6,0,12,,,,,,,,,11,11,34,,,
26889,control_change,730,0,15,,,,,,,,,14,11,31,,,
26889,note_on,0,0,15,,,,,,,,,14,,,,41,112
26893,control_change,12,0,1,,,,,,,,,0,11,39,,,
26894,control_change,12,0,3,,,,,,,,,2,11,39,,,
26894,control_change,12,0,2,,,,,,,,,1,11,39,,,
26894,control_change,6,0,12,,,,,,,,,11,11,37,,,
26895,control_change,6,0,15,,,,,,,,,14,11,34,,,
26898,control_change,12,0,9,,,,,,,,,8,11,39,,,
26900,control_change,6,0,12,,,,,,,,,11,11,40,,,
26901,control_change,6,0,15,,,,,,,,,14,11,37,,,
26905,control_change,12,0,1,,,,,,,,,0,11,36,,,
26906,control_change,12,0,3,,,,,,,,,2,11,36,,,
26906,control_change,12,0,2,,,,,,,,,1,11,36,,,
26907,control_change,6,0,15,,,,,,,,,14,11,40,,,
26910,control_change,12,0,9,,,,,,,,,8,11,36,,,
26912,control_change,12,0,12,,,,,,,,,11,11,45,,,
26917,control_change,12,0,1,,,,,,,,,0,11,33,,,
26918,control_change,12,0,3,,,,,,,,,2,11,33,,,
26918,control_change,12,0,2,,,,,,,,,1,11,33,,,
26919,control_change,12,0,15,,,,,,,,,14,11,45,,,
26922,control_change,12,0,9,,,,,,,,,8,11,33,,,
26929,control_change,12,0,1,,,,,,,,,0,11,30,,,
26930,control_change,12,0,3,,,,,,,,,2,11,30,,,
26930,control_change,12,0,2,,,,,,,,,1,11,30,,,
26934,control_change,12,0,9,,,,,,,,,8,11,30,,,
26940,set_tempo,60,1,0,,,,,,1153846,,,,,,,,
26941,note_on,12,0,1,,,,,,,,,0,,,,77,0
26941,note_on,0,0,1,,,,,,,,,0,,,,81,0
26941,control_change,0,0,1,,,,,,,,,0,11,27,,,
26942,note_on,0,0,2,,,,,,,,,1,,,,69,0
26942,note_on,12,0,3,,,,,,,,,2,,,,65,0
26942,note_on,12,0,2,,,,,,,,,1,,,,65,0
26942,control_change,0,0,2,,,,,,,,,1,11,27,,,
26942,note_on,0,0,3,,,,,,,,,2,,,,69,0
26942,control_change,0,0,3,,,,,,,,,2,11,27,,,
26946,control_change,0,0,9,,,,,,,,,8,11,27,,,
26946,note_on,12,0,9,,,,,,,,,8,,,,41,0
26947,control_change,790,0,14,,,,,,,,,13,11,31,,,
26947,note_on,0,0,14,,,,,,,,,13,,,,60,112
26947,note_on,60,0,4,,,,,,,,,3,,,,57,0
26953,control_change,6,0,14,,,,,,,,,13,11,34,,,
26959,control_change,6,0,14,,,,,,,,,13,11,37,,,
26965,control_change,6,0,14,,,,,,,,,13,11,40,,,
26977,control_change,12,0,14,,,,,,,,,13,11,45,,,
27000,set_tempo,60,1,0,,,,,,1200000,,,,,,,,
27002,note_on,90,0,12,,,,,,,,,11,,,,69,0
27002,note_on,0,0,12,,,,,,,,,11,,,,67,112
27007,note_on,0,0,4,,,,,,,,,3,,,,52,100
27007,note_on,60,0,4,,,,,,,,,3,,,,53,0
27009,note_on,90,0,15,,,,,,,,,14,,,,41,0
27009,note_on,0,0,15,,,,,,,,,14,,,,40,112
27060,set_tempo,60,1,0,,,,,,1153846,,,,,,,,
27062,note_on,85,0,14,,,,,,,,,13,,,,60,0
27067,note_on,5,0,14,,,,,,,,,13,,,,60,112
27120,set_tempo,60,1,0,,,,,,1200000,,,,,,,,
27122,note_on,115,0,4,,,,,,,,,3,,,,52,0
27122,note_on,0,0,12,,,,,,,,,11,,,,65,112
27122,note_on,120,0,12,,,,,,,,,11,,,,67,0
27127,note_on,5,0,4,,,,,,,,,3,,,,50,100
27127,note_on,60,0,14,,,,,,,,,13,,,,60,0
27129,note_on,0,0,15,,,,,,,,,14,,,,38,112
27129,note_on,120,0,15,,,,,,,,,14,,,,40,0
27180,set_tempo,60,1,0,,,,,,1153846,,,,,,,,
27187,note_on,0,0,14,,,,,,,,,13,,,,57,112
27187,control_change,60,0,14,,,,,,,,,13,11,31,,,
27193,control_change,6,0,14,,,,,,,,,13,11,34,,,
27199,control_change,6,0,14,,,,,,,,,13,11,37,,,
27205,control_change,6,0,14,,,,,,,,,13,11,40,,,
27217,control_change,12,0,14,,,,,,,,,13,11,45,,,
27240,set_tempo,60,1,0,,,,,,1200000,,,,,,,,
27242,note_on,120,0,12,,,,,,,,,11,,,,65,0
27242,note_on,0,0,12,,,,,,,,,11,,,,64,112
27247,note_on,120,0,4,,,,,,,,,3,,,,50,0
27247,note_on,0,0,4,,,,,,,,,3,,,,48,100
27249,note_on,0,0,15,,,,,,,,,14,,,,36,112
27249,note_on,120,0,15,,,,,,,,,14,,,,38,0
27300,set_tempo,60,1,0,,,,,,1153846,,,,,,,,
27302,note_on,85,0,14,,,,,,,,,13,,,,57,0
27307,note_on,5,0,14,,,,,,,,,13,,,,57,112
27357,note_on,115,0,12,,,,,,,,,11,,,,64,0
27360,set_tempo,60,1,0,,,,,,1200000,,,,,,,,
27362,control_change,5,0,12,,,,,,,,,11,11,45,,,
27362,note_on,0,0,12,,,,,,,,,11,,,,62,112
27364,note_on,115,0,15,,,,,,,,,14,,,,36,0
27367,control_change,0,0,14,,,,,,,,,13,11,45,,,
27367,note_on,0,0,14,,,,,,,,,13,,,,53,112
27367,note_on,120,0,4,,,,,,,,,3,,,,48,0
27367,note_on,60,0,14,,,,,,,,,13,,,,57,0
27367,control_change,0,0,4,,,,,,,,,3,11,42,,,
27367,note_on,0,0,4,,,,,,,,,3,,,,46,100
27369,note_on,0,0,15,,,,,,,,,14,,,,34,112
27369,control_change,5,0,15,,,,,,,,,14,11,45,,,
27409,control_change,47,0,12,,,,,,,,,11,11,46,,,
27414,control_change,47,0,4,,,,,,,,,3,11,43,,,
27414,control_change,47,0,14,,,,,,,,,13,11,46,,,
27416,control_change,47,0,15,,,,,,,,,14,11,46,,,
27420,set_tempo,60,1,0,,,,,,1153846,,,,,,,,
27422,note_on,0,0,12,,,,,,,,,11,,,,64,112
27422,note_on,13,0,12,,,,,,,,,11,,,,62,0
27427,note_on,0,0,4,,,,,,,,,3,,,,43,100
27427,note_on,13,0,4,,,,,,,,,3,,,,46,0
27427,note_on,0,0,14,,,,,,,,,13,,,,58,112
27427,note_on,13,0,14,,,,,,,,,13,,,,53,0
27429,note_on,13,0,15,,,,,,,,,14,,,,34,0
27429,note_on,0,0,15,,,,,,,,,14,,,,31,112
27457,control_change,35,0,12,,,,,,,,,11,11,47,,,
27462,control_change,35,0,4,,,,,,,,,3,11,44,,,
27462,control_change,35,0,14,,,,,,,,,13,11,47,,,
27464,control_change,35,0,15,,,,,,,,,14,11,47,,,
27480,set_tempo,60,1,0,,,,,,1200000,,,,,,,,
27482,note_on,25,0,12,,,,,,,,,11,,,,64,0
27482,note_on,0,0,12,,,,,,,,,11,,,,60,112
27487,note_on,0,0,14,,,,,,,,,13,,,,60,112
27487,note_on,25,0,14,,,,,,,,,13,,,,58,0
27487,note_on,0,0,4,,,,,,,,,3,,,,45,100
27487,note_on,25,0,4,,,,,,,,,3,,,,43,0
27489,note_on,0,0,15,,,,,,,,,14,,,,33,112
27489,note_on,25,0,15,,,,,,,,,14,,,,31,0
27505,control_change,23,0,12,,,,,,,,,11,11,48,,,
27510,control_change,23,0,4,,,,,,,,,3,11,45,,,
27510,control_change,23,0,14,,,,,,,,,13,11,48,,,
27512,control_change,23,0,15,,,,,,,,,14,11,48,,,
27540,set_tempo,60,1,0,,,,,,1153846,,,,,,,,
27542,note_on,0,0,12,,,,,,,,,11,,,,65,112
27542,note_on,37,0,12,,,,,,,,,11,,,,60,0
27547,note_on,37,0,4,,,,,,,,,3,,,,45,0
27547,note_on,0,0,4,,,,,,,,,3,,,,48,100
27547,note_on,0,0,14,,,,,,,,,13,,,,57,112
27547,note_on,37,0,14,,,,,,,,,13,,,,60,0
27549,note_on,37,0,15,,,,,,,,,14,,,,33,0
27549,note_on,0,0,15,,,,,,,,,14,,,,38,112
27553,control_change,11,0,12,,,,,,,,,11,11,49,,,
27558,control_change,11,0,4,,,,,,,,,3,11,46,,,
27558,control_change,11,0,14,,,,,,,,,13,11,49,,,
27560,control_change,11,0,15,,,,,,,,,14,11,49,,,
27597,note_on,44,0,12,,,,,,,,,11,,,,65,0
27600,set_tempo,60,1,0,,,,,,1200000,,,,,,,,
27601,control_change,4,0,12,,,,,,,,,11,11,50,,,
27602,note_on,1,0,12,,,,,,,,,11,,,,67,112
27602,note_on,44,0,4,,,,,,,,,3,,,,48,0
27602,note_on,44,0,14,,,,,,,,,13,,,,57,0
27604,note_on,44,0,15,,,,,,,,,14,,,,38,0
27606,control_change,4,0,4,,,,,,,,,3,11,47,,,
27606,control_change,4,0,14,,,,,,,,,13,11,50,,,
27607,note_on,1,0,14,,,,,,,,,13,,,,62,112
27607,note_on,1,0,4,,,,,,,,,3,,,,46,100
27608,control_change,4,0,15,,,,,,,,,14,11,50,,,
27609,note_on,1,0,15,,,,,,,,,14,,,,34,112
27649,control_change,47,0,12,,,,,,,,,11,11,51,,,
27654,control_change,47,0,14,,,,,,,,,13,11,51,,,
27654,control_change,47,0,4,,,,,,,,,3,11,48,,,
27656,control_change,47,0,15,,,,,,,,,14,11,51,,,
27660,set_tempo,60,1,0,,,,,,1153846,,,,,,,,
27667,note_on,0,0,14,,,,,,,,,13,,,,64,112
27667,note_on,13,0,14,,,,,,,,,13,,,,62,0
27697,control_change,48,0,12,,,,,,,,,11,11,52,,,
27697,note_on,30,0,14,,,,,,,,,13,,,,64,0
27697,note_on,0,0,14,,,,,,,,,13,,,,65,112
27702,control_change,5,0,14,,,,,,,,,13,11,52,,,
27702,control_change,48,0,4,,,,,,,,,3,11,49,,,
27704,control_change,48,0,15,,,,,,,,,14,11,52,,,
27720,set_tempo,60,1,0,,,,,,1200000,,,,,,,,
27727,note_on,0,0,14,,,,,,,,,13,,,,64,112
27727,note_on,0,0,4,,,,,,,,,3,,,,48,100
27727,note_on,25,0,4,,,,,,,,,3,,,,46,0
27727,note_on,25,0,14,,,,,,,,,13,,,,65,0
27729,note_on,0,0,15,,,,,,,,,14,,,,36,112
27729,note_on,25,0,15,,,,,,,,,14,,,,34,0
27745,control_change,48,0,12,,,,,,,,,11,11,53,,,
27750,control_change,23,0,14,,,,,,,,,13,11,53,,,
27750,control_change,23,0,4,,,,,,,,,3,11,50,,,
27752,control_change,23,0,15,,,,,,,,,14,11,53,,,
27780,set_tempo,60,1,0,,,,,,1153846,,,,,,,,
27782,note_on,0,0,12,,,,,,,,,11,,,,69,112
27782,note_on,37,0,12,,,,,,,,,11,,,,67,0
27793,control_change,11,0,12,,,,,,,,,11,11,54,,,
27798,control_change,48,0,14,,,,,,,,,13,11,54,,,
27798,control_change,48,0,4,,,,,,,,,3,11,51,,,
27800,control_change,48,0,15,,,,,,,,,14,11,54,,,
27810,set_tempo,30,1,0,,,,,,1333333,,,,,,,,
27812,note_on,19,0,12,,,,,,,,,11,,,,69,0
27812,note_on,0,0,12,,,,,,,,,11,,,,70,112
27837,note_on,25,0,12,,,,,,,,,11,,,,70,0
27840,set_tempo,30,1,0,,,,,,1200000,,,,,,,,
27840,control_change,1690,0,11,,,,,,,,,10,11,36,,,
27840,note_on,0,0,11,,,,,,,,,10,,,,81,112
27841,control_change,4,0,12,,,,,,,,,11,11,55,,,
27842,note_on,44,0,14,,,,,,,,,13,,,,64,0
27842,note_on,44,0,4,,,,,,,,,3,,,,48,0
27842,note_on,1,0,12,,,,,,,,,11,,,,69,112
27844,note_on,44,0,15,,,,,,,,,14,,,,36,0
27845,control_change,1690,0,13,,,,,,,,,12,11,36,,,
27845,note_on,0,0,13,,,,,,,,,12,,,,65,112
27846,control_change,4,0,4,,,,,,,,,3,11,52,,,
27846,control_change,4,0,14,,,,,,,,,13,11,55,,,
27847,note_on,1,0,4,,,,,,,,,3,,,,53,100
27847,note_on,1,0,14,,,,,,,,,13,,,,65,112
27847,note_on,0,0,4,,,,,,,,,3,,,,65,100
27848,control_change,4,0,15,,,,,,,,,14,11,55,,,
27849,note_on,1,0,15,,,,,,,,,14,,,,41,112
27852,control_change,12,0,11,,,,,,,,,10,11,39,,,
27857,control_change,12,0,13,,,,,,,,,12,11,39,,,
27864,control_change,12,0,11,,,,,,,,,10,11,42,,,
27869,control_change,12,0,13,,,,,,,,,12,11,42,,,
27888,control_change,24,0,11,,,,,,,,,10,11,47,,,
27893,control_change,24,0,13,,,,,,,,,12,11,47,,,
27897,note_on,55,0,12,,,,,,,,,11,,,,69,0
27900,set_tempo,60,1,0,,,,,,1153846,,,,,,,,
27900,control_change,12,0,11,,,,,,,,,10,11,50,,,
27902,note_on,5,0,12,,,,,,,,,11,,,,72,112
27905,control_change,12,0,13,,,,,,,,,12,11,50,,,
27907,note_on,60,0,14,,,,,,,,,13,,,,65,0
27907,note_on,60,0,4,,,,,,,,,3,,,,53,0
27909,note_on,60,0,15,,,,,,,,,14,,,,41,0
27930,note_on,30,0,11,,,,,,,,,10,,,,81,0
27930,note_on,0,0,11,,,,,,,,,10,,,,82,112
27960,set_tempo,60,1,0,,,,,,1200000,,,,,,,,
27960,note_on,30,0,11,,,,,,,,,10,,,,82,0
27960,note_on,0,0,11,,,,,,,,,10,,,,81,112
27965,note_on,0,0,13,,,,,,,,,12,,,,63,112
27965,note_on,60,0,13,,,,,,,,,12,,,,65,0
27967,note_on,0,0,4,,,,,,,,,3,,,,63,100
27967,note_on,60,0,4,,,,,,,,,3,,,,65,0
28017,note_on,115,0,12,,,,,,,,,11,,,,72,0
28020,set_tempo,60,1,0,,,,,,1153846,,,,,,,,
28020,note_on,60,0,11,,,,,,,,,10,,,,81,0
28020,note_on,0,0,11,,,,,,,,,10,,,,79,112
28022,note_on,5,0,12,,,,,,,,,11,,,,72,112
28075,note_on,55,0,11,,,,,,,,,10,,,,79,0
28080,note_on,5,0,11,,,,,,,,,10,,,,78,112
28080,set_tempo,60,1,0,,,,,,1200000,,,,,,,,
28082,control_change,60,0,12,,,,,,,,,11,11,55,,,
28085,note_on,120,0,13,,,,,,,,,12,,,,63,0
28085,note_on,0,0,13,,,,,,,,,12,,,,62,112
28087,note_on,0,0,4,,,,,,,,,3,,,,62,100
28087,note_on,120,0,4,,,,,,,,,3,,,,63,0
28098,control_change,16,0,12,,,,,,,,,11,11,57,,,
28114,control_change,16,0,12,,,,,,,,,11,11,58,,,
28130,control_change,16,0,12,,,,,,,,,11,11,60,,,
28137,note_on,7,0,12,,,,,,,,,11,,,,72,0
28140,set_tempo,60,1,0,,,,,,1153846,,,,,,,,
28142,note_on,5,0,12,,,,,,,,,11,,,,69,112
28146,control_change,4,0,12,,,,,,,,,11,11,62,,,
28162,control_change,16,0,12,,,,,,,,,11,11,64,,,
28172,note_on,0,0,12,,,,,,,,,11,,,,70,112
28172,note_on,10,0,12,,,,,,,,,11,,,,69,0
28178,control_change,6,0,12,,,,,,,,,11,11,66,,,
28194,control_change,16,0,12,,,,,,,,,11,11,68,,,
28200,set_tempo,60,1,0,,,,,,1200000,,,,,,,,
28202,note_on,0,0,12,,,,,,,,,11,,,,74,112
28202,note_on,8,0,12,,,,,,,,,11,,,,70,0
28210,control_change,8,0,12,,,,,,,,,11,11,68,,,
28226,control_change,16,0,12,,,,,,,,,11,11,66,,,
28232,note_on,6,0,12,,,,,,,,,11,,,,74,0
28232,note_on,0,0,12,,,,,,,,,11,,,,72,112
28242,control_change,10,0,12,,,,,,,,,11,11,64,,,
28255,note_on,175,0,11,,,,,,,,,10,,,,78,0
28258,control_change,16,0,12,,,,,,,,,11,11,62,,,
28260,note_on,5,0,11,,,,,,,,,10,,,,78,112
28260,set_tempo,60,1,0,,,,,,1153846,,,,,,,,
28260,note_on,175,0,13,,,,,,,,,12,,,,62,0
28262,note_on,4,0,12,,,,,,,,,11,,,,72,0
28262,note_on,0,0,12,,,,,,,,,11,,,,70,112
28262,note_on,175,0,4,,,,,,,,,3,,,,62,0
28265,note_on,5,0,13,,,,,,,,,12,,,,62,112
28267,note_on,5,0,4,,,,,,,,,3,,,,62,100
28274,control_change,12,0,12,,,,,,,,,11,11,60,,,
28290,control_change,16,0,12,,,,,,,,,11,11,58,,,
28292,note_on,2,0,12,,,,,,,,,11,,,,70,0
28292,note_on,0,0,12,,,,,,,,,11,,,,69,112
28306,control_change,14,0,12,,,,,,,,,11,11,57,,,
28315,note_on,55,0,11,,,,,,,,,10,,,,78,0
28317,note_on,11,0,12,,,,,,,,,11,,,,69,0
28320,note_on,55,0,13,,,,,,,,,12,,,,62,0
28320,set_tempo,60,1,0,,,,,,1200000,,,,,,,,
28320,note_on,5,0,11,,,,,,,,,10,,,,79,112
28322,control_change,5,0,12,,,,,,,,,11,11,55,,,
28322,note_on,0,0,12,,,,,,,,,11,,,,67,112
28325,note_on,5,0,13,,,,,,,,,12,,,,63,112
28327,note_on,60,0,4,,,,,,,,,3,,,,62,0
28327,note_on,0,0,4,,,,,,,,,3,,,,63,100
28380,note_on,60,0,11,,,,,,,,,10,,,,79,0
28380,set_tempo,60,1,0,,,,,,1153846,,,,,,,,
28380,note_on,0,0,11,,,,,,,,,10,,,,81,112
28382,note_on,60,0,12,,,,,,,,,11,,,,67,0
28382,note_on,0,0,12,,,,,,,,,11,,,,75,112
28385,note_on,0,0,13,,,,,,,,,12,,,,60,112
28385,note_on,60,0,13,,,,,,,,,12,,,,63,0
28387,note_on,60,0,4,,,,,,,,,3,,,,63,0
28387,note_on,0,0,4,,,,,,,,,3,,,,60,100
28440,set_tempo,60,1,0,,,,,,1200000,,,,,,,,
28440,note_on,0,0,11,,,,,,,,,10,,,,77,112
28440,note_on,60,0,11,,,,,,,,,10,,,,81,0
28442,note_on,60,0,12,,,,,,,,,11,,,,75,0
28442,note_on,0,0,12,,,,,,,,,11,,,,77,112
28445,note_on,0,0,13,,,,,,,,,12,,,,62,112
28445,note_on,60,0,13,,,,,,,,,12,,,,60,0
28447,note_on,60,0,4,,,,,,,,,3,,,,60,0
28447,note_on,0,0,4,,,,,,,,,3,,,,62,100
28500,set_tempo,60,1,0,,,,,,1153846,,,,,,,,
28500,note_on,60,0,11,,,,,,,,,10,,,,77,0
28500,note_on,0,0,11,,,,,,,,,10,,,,82,112
28502,note_on,60,0,12,,,,,,,,,11,,,,77,0
28502,note_on,0,0,12,,,,,,,,,11,,,,74,112
28505,note_on,60,0,13,,,,,,,,,12,,,,62,0
28505,note_on,0,0,13,,,,,,,,,12,,,,67,112
28507,note_on,0,0,4,,,,,,,,,3,,,,67,100
28507,note_on,60,0,4,,,,,,,,,3,,,,62,0
28555,note_on,55,0,11,,,,,,,,,10,,,,82,0
28557,note_on,55,0,12,,,,,,,,,11,,,,74,0
28560,note_on,55,0,13,,,,,,,,,12,,,,67,0
28560,note_on,5,0,11,,,,,,,,,10,,,,84,112
28560,set_tempo,60,1,0,,,,,,1200000,,,,,,,,
28562,note_on,5,0,12,,,,,,,,,11,,,,79,112
28565,note_on,5,0,13,,,,,,,,,12,,,,63,112
28567,note_on,0,0,4,,,,,,,,,3,,,,63,100
28567,note_on,60,0,4,,,,,,,,,3,,,,67,0
28620,set_tempo,60,1,0,,,,,,1153846,,,,,,,,
28622,note_on,60,0,12,,,,,,,,,11,,,,79,0
28622,note_on,0,0,12,,,,,,,,,11,,,,81,112
28652,note_on,30,0,12,,,,,,,,,11,,,,81,0
28652,note_on,0,0,12,,,,,,,,,11,,,,82,112
28680,set_tempo,60,1,0,,,,,,1200000,,,,,,,,
28682,note_on,30,0,12,,,,,,,,,11,,,,82,0
28682,note_on,0,0,12,,,,,,,,,11,,,,81,112
28685,note_on,0,0,13,,,,,,,,,12,,,,65,112
28685,note_on,120,0,13,,,,,,,,,12,,,,63,0
28687,note_on,120,0,4,,,,,,,,,3,,,,63,0
28687,note_on,0,0,4,,,,,,,,,3,,,,65,100
28740,note_on,0,0,11,,,,,,,,,10,,,,86,112
28740,note_on,180,0,11,,,,,,,,,10,,,,84,0
28740,set_tempo,60,1,0,,,,,,1153846,,,,,,,,
28770,note_on,0,0,11,,,,,,,,,10,,,,87,112
28770,note_on,30,0,11,,,,,,,,,10,,,,86,0
28795,note_on,25,0,11,,,,,,,,,10,,,,87,0
28797,note_on,115,0,12,,,,,,,,,11,,,,81,0
28800,note_on,115,0,13,,,,,,,,,12,,,,65,0
28800,note_on,5,0,11,,,,,,,,,10,,,,86,112
28800,set_tempo,60,1,0,,,,,,1200000,,,,,,,,
28801,note_on,0,0,1,,,,,,,,,0,,,,86,101
28801,control_change,1860,0,1,,,,,,,,,0,11,47,,,
28801,note_on,0,0,1,,,,,,,,,0,,,,82,101
28802,note_on,0,0,2,,,,,,,,,1,,,,74,100
28802,note_on,0,0,2,,,,,,,,,1,,,,82,100
28802,control_change,1860,0,2,,,,,,,,,1,11,47,,,
28802,note_on,0,0,3,,,,,,,,,2,,,,70,101
28802,note_on,0,0,3,,,,,,,,,2,,,,74,101
28802,control_change,1860,0,3,,,,,,,,,2,11,47,,,
28802,note_on,5,0,12,,,,,,,,,11,,,,82,112
28802,note_on,115,0,4,,,,,,,,,3,,,,65,0
28805,note_on,5,0,13,,,,,,,,,12,,,,58,112
28806,note_on,0,0,9,,,,,,,,,8,,,,58,110
28806,control_change,1860,0,9,,,,,,,,,8,11,52,,,
28807,note_on,0,0,4,,,,,,,,,3,,,,58,100
28807,note_on,0,0,4,,,,,,,,,3,,,,46,100
28807,control_change,5,0,4,,,,,,,,,3,11,47,,,
28817,control_change,16,0,1,,,,,,,,,0,11,49,,,
28818,control_change,16,0,3,,,,,,,,,2,11,49,,,
28818,control_change,16,0,2,,,,,,,,,1,11,49,,,
28823,control_change,16,0,4,,,,,,,,,3,11,49,,,
28833,control_change,16,0,1,,,,,,,,,0,11,51,,,
28834,control_change,16,0,3,,,,,,,,,2,11,51,,,
28834,control_change,16,0,2,,,,,,,,,1,11,51,,,
28839,control_change,16,0,4,,,,,,,,,3,11,51,,,
28849,control_change,16,0,1,,,,,,,,,0,11,53,,,
28850,control_change,16,0,2,,,,,,,,,1,11,53,,,
28850,control_change,16,0,3,,,,,,,,,2,11,53,,,
28855,control_change,16,0,4,,,,,,,,,3,11,53,,,
28860,set_tempo,60,1,0,,,,,,1090909,,,,,,,,
28860,note_on,60,0,11,,,,,,,,,10,,,,86,0
28861,note_on,0,0,1,,,,,,,,,0,,,,82,0
28861,note_on,12,0,1,,,,,,,,,0,,,,86,0
28861,note_on,0,0,1,,,,,,,,,0,,,,86,101
28861,note_on,0,0,1,,,,,,,,,0,,,,89,101
28862,note_on,0,0,3,,,,,,,,,2,,,,77,101
28862,note_on,0,0,3,,,,,,,,,2,,,,74,101
28862,note_on,12,0,2,,,,,,,,,1,,,,74,0
28862,note_on,0,0,2,,,,,,,,,1,,,,82,0
28862,note_on,0,0,2,,,,,,,,,1,,,,86,100
28862,note_on,0,0,2,,,,,,,,,1,,,,77,100
28862,note_on,0,0,3,,,,,,,,,2,,,,70,0
28862,note_on,60,0,12,,,,,,,,,11,,,,82,0
28862,note_on,12,0,3,,,,,,,,,2,,,,74,0
28865,note_on,60,0,13,,,,,,,,,12,,,,58,0
28865,control_change,4,0,1,,,,,,,,,0,11,55,,,
28866,control_change,4,0,2,,,,,,,,,1,11,55,,,
28866,control_change,4,0,3,,,,,,,,,2,11,55,,,
28871,control_change,16,0,4,,,,,,,,,3,11,55,,,
28881,control_change,16,0,1,,,,,,,,,0,11,57,,,
28882,control_change,16,0,3,,,,,,,,,2,11,57,,,
28882,control_change,16,0,2,,,,,,,,,1,11,57,,,
28887,control_change,16,0,4,,,,,,,,,3,11,57,,,
28897,control_change,16,0,1,,,,,,,,,0,11,58,,,
28898,control_change,16,0,2,,,,,,,,,1,11,58,,,
28898,control_change,16,0,3,,,,,,,,,2,11,58,,,
28903,control_change,16,0,4,,,,,,,,,3,11,59,,,
28906,note_on,0,0,1,,,,,,,,,0,,,,84,101
28906,note_on,0,0,1,,,,,,,,,0,,,,87,101
28906,note_on,9,0,1,,,,,,,,,0,,,,89,0
28906,note_on,0,0,1,,,,,,,,,0,,,,86,0
28907,note_on,9,0,2,,,,,,,,,1,,,,77,0
28907,note_on,0,0,2,,,,,,,,,1,,,,75,100
28907,note_on,0,0,2,,,,,,,,,1,,,,84,100
28907,note_on,0,0,2,,,,,,,,,1,,,,86,0
28907,note_on,0,0,3,,,,,,,,,2,,,,75,101
28907,note_on,0,0,3,,,,,,,,,2,,,,72,101
28907,note_on,0,0,3,,,,,,,,,2,,,,74,0
28907,note_on,9,0,3,,,,,,,,,2,,,,77,0
28913,control_change,7,0,1,,,,,,,,,0,11,60,,,
28914,control_change,7,0,2,,,,,,,,,1,11,60,,,
28914,control_change,7,0,3,,,,,,,,,2,11,60,,,
28919,control_change,16,0,4,,,,,,,,,3,11,61,,,
28920,set_tempo,60,1,0,,,,,,1153846,,,,,,,,
28921,note_on,0,0,1,,,,,,,,,0,,,,86,101
28921,note_on,8,0,1,,,,,,,,,0,,,,87,0
28921,note_on,0,0,1,,,,,,,,,0,,,,84,0
28921,note_on,0,0,1,,,,,,,,,0,,,,82,101
28922,note_on,0,0,3,,,,,,,,,2,,,,72,0
28922,note_on,0,0,3,,,,,,,,,2,,,,70,101
28922,note_on,0,0,2,,,,,,,,,1,,,,74,100
28922,note_on,8,0,2,,,,,,,,,1,,,,75,0
28922,note_on,0,0,3,,,,,,,,,2,,,,74,101
28922,note_on,0,0,2,,,,,,,,,1,,,,82,100
28922,note_on,0,0,2,,,,,,,,,1,,,,84,0
28922,note_on,8,0,3,,,,,,,,,2,,,,75,0
28928,control_change,7,0,1,,,,,,,,,0,11,60,,,
28929,control_change,7,0,3,,,,,,,,,2,11,60,,,
28929,control_change,7,0,2,,,,,,,,,1,11,60,,,
28934,control_change,15,0,4,,,,,,,,,3,11,61,,,
28944,control_change,16,0,1,,,,,,,,,0,11,58,,,
28945,control_change,16,0,2,,,,,,,,,1,11,58,,,
28945,control_change,16,0,3,,,,,,,,,2,11,58,,,
28950,control_change,16,0,4,,,,,,,,,3,11,59,,,
28960,control_change,16,0,1,,,,,,,,,0,11,57,,,
28961,control_change,16,0,2,,,,,,,,,1,11,57,,,
28961,control_change,16,0,3,,,,,,,,,2,11,57,,,
28966,control_change,16,0,4,,,,,,,,,3,11,57,,,
28976,control_change,16,0,1,,,,,,,,,0,11,55,,,
28977,control_change,16,0,2,,,,,,,,,1,11,55,,,
28977,control_change,16,0,3,,,,,,,,,2,11,55,,,
28980,set_tempo,60,1,0,,,,,,1090909,,,,,,,,
28981,note_on,175,0,9,,,,,,,,,8,,,,58,0
28981,note_on,0,0,1,,,,,,,,,0,,,,84,101
28981,note_on,0,0,1,,,,,,,,,0,,,,77,101
28981,note_on,0,0,1,,,,,,,,,0,,,,82,0
28981,note_on,5,0,1,,,,,,,,,0,,,,86,0
28982,note_on,0,0,4,,,,,,,,,3,,,,58,0
28982,note_on,16,0,4,,,,,,,,,3,,,,46,0
28982,note_on,5,0,3,,,,,,,,,2,,,,74,0
28982,note_on,0,0,3,,,,,,,,,2,,,,70,0
28982,note_on,0,0,3,,,,,,,,,2,,,,65,101
28982,note_on,0,0,3,,,,,,,,,2,,,,72,101
28982,note_on,5,0,2,,,,,,,,,1,,,,74,0
28982,note_on,0,0,2,,,,,,,,,1,,,,72,100
28982,note_on,0,0,2,,,,,,,,,1,,,,77,100
28982,note_on,0,0,2,,,,,,,,,1,,,,82,0
28982,control_change,0,0,4,,,,,,,,,3,11,55,,,
28986,note_on,5,0,9,,,,,,,,,8,,,,57,110
28987,note_on,0,0,4,,,,,,,,,3,,,,53,100
28987,note_on,5,0,4,,,,,,,,,3,,,,45,100
28992,control_change,11,0,1,,,,,,,,,0,11,53,,,
28993,control_change,11,0,3,,,,,,,,,2,11,53,,,
28993,control_change,11,0,2,,,,,,,,,1,11,53,,,
28998,control_change,11,0,4,,,,,,,,,3,11,53,,,
29008,control_change,16,0,1,,,,,,,,,0,11,51,,,
29009,control_change,16,0,3,,,,,,,,,2,11,51,,,
29009,control_change,16,0,2,,,,,,,,,1,11,51,,,
29014,control_change,16,0,4,,,,,,,,,3,11,51,,,
29024,control_change,16,0,1,,,,,,,,,0,11,49,,,
29025,control_change,16,0,3,,,,,,,,,2,11,49,,,
29025,control_change,16,0,2,,,,,,,,,1,11,49,,,
29030,control_change,16,0,4,,,,,,,,,3,11,49,,,
29036,note_on,0,0,1,,,,,,,,,0,,,,77,0
29036,note_on,12,0,1,,,,,,,,,0,,,,84,0
29037,note_on,0,0,3,,,,,,,,,2,,,,65,0
29037,note_on,12,0,3,,,,,,,,,2,,,,72,0
29037,note_on,12,0,2,,,,,,,,,1,,,,72,0
29037,note_on,0,0,2,,,,,,,,,1,,,,77,0
29040,control_change,4,0,1,,,,,,,,,0,11,47,,,
29040,set_tempo,60,1,0,,,,,,1200000,,,,,,,,
29041,control_change,4,0,2,,,,,,,,,1,11,47,,,
29041,note_on,1,0,1,,,,,,,,,0,,,,74,101
29041,control_change,4,0,3,,,,,,,,,2,11,47,,,
29041,note_on,0,0,1,,,,,,,,,0,,,,82,101
29041,note_on,55,0,9,,,,,,,,,8,,,,57,0
29042,note_on,0,0,3,,,,,,,,,2,,,,70,101
29042,note_on,1,0,3,,,,,,,,,2,,,,62,101
29042,note_on,12,0,4,,,,,,,,,3,,,,53,0
29042,note_on,1,0,2,,,,,,,,,1,,,,74,100
29042,note_on,0,0,2,,,,,,,,,1,,,,70,100
29042,note_on,0,0,4,,,,,,,,,3,,,,45,0
29046,control_change,4,0,4,,,,,,,,,3,11,47,,,
29046,note_on,5,0,9,,,,,,,,,8,,,,55,110
29047,note_on,1,0,4,,,,,,,,,3,,,,50,100
29047,note_on,0,0,4,,,,,,,,,3,,,,43,100
29071,note_on,0,0,1,,,,,,,,,0,,,,79,101
29071,note_on,30,0,1,,,,,,,,,0,,,,74,0
29072,note_on,30,0,3,,,,,,,,,2,,,,62,0
29072,note_on,0,0,3,,,,,,,,,2,,,,67,101
29072,note_on,30,0,2,,,,,,,,,1,,,,74,0
29072,note_on,0,0,2,,,,,,,,,1,,,,79,100
29077,note_on,30,0,4,,,,,,,,,3,,,,50,0
29077,note_on,0,0,4,,,,,,,,,3,,,,55,100
29100,set_tempo,60,1,0,,,,,,1111111,,,,,,,,
29101,note_on,30,0,1,,,,,,,,,0,,,,79,0
29101,note_on,0,0,1,,,,,,,,,0,,,,78,101
29102,note_on,30,0,2,,,,,,,,,1,,,,79,0
29102,note_on,0,0,2,,,,,,,,,1,,,,78,100
29102,note_on,0,0,3,,,,,,,,,2,,,,66,101
29102,note_on,30,0,3,,,,,,,,,2,,,,67,0
29107,note_on,30,0,4,,,,,,,,,3,,,,55,0
29107,note_on,0,0,4,,,,,,,,,3,,,,54,100
29131,note_on,30,0,1,,,,,,,,,0,,,,78,0
29131,note_on,0,0,1,,,,,,,,,0,,,,79,101
29132,note_on,0,0,2,,,,,,,,,1,,,,79,100
29132,note_on,30,0,2,,,,,,,,,1,,,,78,0
29132,note_on,0,0,3,,,,,,,,,2,,,,67,101
29132,note_on,30,0,3,,,,,,,,,2,,,,66,0
29137,note_on,30,0,4,,,,,,,,,3,,,,54,0
29137,note_on,0,0,4,,,,,,,,,3,,,,55,100
29160,set_tempo,60,1,0,,,,,,1188119,,,,,,,,
29161,note_on,115,0,9,,,,,,,,,8,,,,55,0
29161,note_on,30,0,1,,,,,,,,,0,,,,79,0
29161,note_on,0,0,1,,,,,,,,,0,,,,82,0
29161,note_on,0,0,1,,,,,,,,,0,,,,83,116
29161,note_on,0,0,1,,,,,,,,,0,,,,80,116
29162,note_on,30,0,3,,,,,,,,,2,,,,67,0
29162,note_on,0,0,2,,,,,,,,,1,,,,71,115
29162,note_on,0,0,3,,,,,,,,,2,,,,68,116
29162,note_on,30,0,2,,,,,,,,,1,,,,79,0
29162,note_on,0,0,2,,,,,,,,,1,,,,70,0
29162,note_on,0,0,3,,,,,,,,,2,,,,71,116
29162,note_on,0,0,3,,,,,,,,,2,,,,70,0
29162,note_on,0,0,2,,,,,,,,,1,,,,80,115
29166,note_on,5,0,9,,,,,,,,,8,,,,50,125
29167,note_on,0,0,4,,,,,,,,,3,,,,59,115
29167,note_on,30,0,4,,,,,,,,,3,,,,55,0
29167,note_on,0,0,4,,,,,,,,,3,,,,43,0
29167,note_on,0,0,4,,,,,,,,,3,,,,56,115
29220,set_tempo,60,1,0,,,,,,1111111,,,,,,,,
29276,note_on,115,0,1,,,,,,,,,0,,,,83,0
29276,note_on,0,0,1,,,,,,,,,0,,,,80,0
29277,note_on,0,0,3,,,,,,,,,2,,,,68,0
29277,note_on,115,0,2,,,,,,,,,1,,,,71,0
29277,note_on,0,0,2,,,,,,,,,1,,,,80,0
29277,note_on,115,0,3,,,,,,,,,2,,,,71,0
29280,set_tempo,60,1,0,,,,,,1200000,,,,,,,,
29281,note_on,5,0,1,,,,,,,,,0,,,,84,101
29281,note_on,0,0,1,,,,,,,,,0,,,,79,101
29281,note_on,115,0,9,,,,,,,,,8,,,,50,0
29282,note_on,5,0,3,,,,,,,,,2,,,,72,101
29282,note_on,0,0,2,,,,,,,,,1,,,,79,100
29282,note_on,5,0,2,,,,,,,,,1,,,,72,100
29282,note_on,0,0,3,,,,,,,,,2,,,,67,101
29282,note_on,115,0,4,,,,,,,,,3,,,,59,0
29282,note_on,0,0,4,,,,,,,,,3,,,,56,0
29286,note_on,5,0,9,,,,,,,,,8,,,,51,110
29287,note_on,0,0,4,,,,,,,,,3,,,,55,100
29287,note_on,5,0,4,,,,,,,,,3,,,,60,100
29340,set_tempo,60,1,0,,,,,,1111111,,,,,,,,
29341,note_on,0,0,1,,,,,,,,,0,,,,87,101
29341,note_on,60,0,1,,,,,,,,,0,,,,84,0
29342,note_on,60,0,3,,,,,,,,,2,,,,72,0
29342,note_on,0,0,3,,,,,,,,,2,,,,75,101
29342,note_on,60,0,2,,,,,,,,,1,,,,72,0
29342,note_on,0,0,2,,,,,,,,,1,,,,75,100
29346,note_on,60,0,9,,,,,,,,,8,,,,51,0
29346,note_on,0,0,9,,,,,,,,,8,,,,48,110
29347,note_on,60,0,4,,,,,,,,,3,,,,60,0
29347,note_on,0,0,4,,,,,,,,,3,,,,63,100
29371,note_on,30,0,1,,,,,,,,,0,,,,79,0
29371,note_on,0,0,1,,,,,,,,,0,,,,81,101
29372,note_on,0,0,2,,,,,,,,,1,,,,81,100
29372,note_on,30,0,3,,,,,,,,,2,,,,67,0
29372,note_on,0,0,3,,,,,,,,,2,,,,69,101
29372,note_on,30,0,2,,,,,,,,,1,,,,79,0
29377,note_on,0,0,4,,,,,,,,,3,,,,57,100
29377,note_on,30,0,4,,,,,,,,,3,,,,55,0
29400,set_tempo,60,1,0,,,,,,1188119,,,,,,,,
29401,note_on,0,0,1,,,,,,,,,0,,,,87,0
29401,note_on,0,0,1,,,,,,,,,0,,,,86,101
29401,note_on,0,0,1,,,,,,,,,0,,,,82,101
29401,note_on,30,0,1,,,,,,,,,0,,,,81,0
29402,note_on,30,0,3,,,,,,,,,2,,,,69,0
29402,note_on,0,0,3,,,,,,,,,2,,,,75,0
29402,note_on,0,0,3,,,,,,,,,2,,,,74,101
29402,note_on,0,0,3,,,,,,,,,2,,,,70,101
29402,note_on,30,0,2,,,,,,,,,1,,,,81,0
29402,note_on,0,0,2,,,,,,,,,1,,,,75,0
29402,note_on,0,0,2,,,,,,,,,1,,,,82,100
29402,note_on,0,0,2,,,,,,,,,1,,,,74,100
29406,note_on,0,0,9,,,,,,,,,8,,,,50,110
29406,note_on,60,0,9,,,,,,,,,8,,,,48,0
29407,note_on,0,0,4,,,,,,,,,3,,,,62,100
29407,note_on,0,0,4,,,,,,,,,3,,,,58,100
29407,note_on,0,0,4,,,,,,,,,3,,,,63,0
29407,note_on,30,0,4,,,,,,,,,3,,,,57,0
29460,set_tempo,60,1,0,,,,,,1111111,,,,,,,,
29461,note_on,0,0,1,,,,,,,,,0,,,,84,101
29461,note_on,60,0,1,,,,,,,,,0,,,,86,0
29461,note_on,0,0,1,,,,,,,,,0,,,,82,0
29461,note_on,0,0,1,,,,,,,,,0,,,,81,101
29462,note_on,0,0,3,,,,,,,,,2,,,,70,0
29462,note_on,60,0,2,,,,,,,,,1,,,,74,0
29462,note_on,0,0,2,,,,,,,,,1,,,,82,0
29462,note_on,0,0,2,,,,,,,,,1,,,,72,100
29462,note_on,0,0,2,,,,,,,,,1,,,,81,100
29462,note_on,0,0,3,,,,,,,,,2,,,,72,101
29462,note_on,0,0,3,,,,,,,,,2,,,,69,101
29462,note_on,60,0,3,,,,,,,,,2,,,,74,0
29466,note_on,60,0,9,,,,,,,,,8,,,,50,0
29466,note_on,0,0,9,,,,,,,,,8,,,,53,110
29467,note_on,0,0,4,,,,,,,,,3,,,,58,0
29467,note_on,0,0,4,,,,,,,,,3,,,,60,100
29467,note_on,0,0,4,,,,,,,,,3,,,,57,100
29467,note_on,60,0,4,,,,,,,,,3,,,,62,0
29490,set_tempo,30,1,0,,,,,,1304348,,,,,,,,
29516,note_on,55,0,1,,,,,,,,,0,,,,81,0
29516,note_on,0,0,1,,,,,,,,,0,,,,84,0
29517,note_on,55,0,3,,,,,,,,,2,,,,69,0
29517,note_on,0,0,2,,,,,,,,,1,,,,72,0
29517,note_on,55,0,2,,,,,,,,,1,,,,81,0
29517,note_on,0,0,3,,,,,,,,,2,,,,72,0
29520,note_on,0,0,11,,,,,,,,,10,,,,70,112
29520,set_tempo,30,1,0,,,,,,1200000,,,,,,,,
29520,control_change,660,0,11,,,,,,,,,10,11,27,,,
29521,note_on,5,0,1,,,,,,,,,0,,,,82,101
29521,note_on,55,0,9,,,,,,,,,8,,,,53,0
29522,note_on,5,0,2,,,,,,,,,1,,,,70,100
29522,note_on,0,0,2,,,,,,,,,1,,,,82,100
29522,control_change,660,0,12,,,,,,,,,11,11,27,,,
29522,note_on,0,0,12,,,,,,,,,11,,,,70,112
29522,note_on,55,0,4,,,,,,,,,3,,,,57,0
29522,note_on,5,0,3,,,,,,,,,2,,,,70,101
29522,note_on,0,0,4,,,,,,,,,3,,,,60,0
29526,note_on,5,0,9,,,,,,,,,8,,,,55,110
29527,control_change,1620,0,14,,,,,,,,,13,11,27,,,
29527,note_on,5,0,4,,,,,,,,,3,,,,58,100
29527,note_on,0,0,14,,,,,,,,,13,,,,43,112
29529,control_change,1620,0,15,,,,,,,,,14,11,27,,,
29529,note_on,0,0,15,,,,,,,,,14,,,,31,112
29534,control_change,14,0,11,,,,,,,,,10,11,32,,,
29536,control_change,14,0,12,,,,,,,,,11,11,32,,,
29541,control_change,14,0,14,,,,,,,,,13,11,32,,,
29541,control_change,7,0,11,,,,,,,,,10,11,35,,,
29543,control_change,14,0,15,,,,,,,,,14,11,32,,,
29543,control_change,7,0,12,,,,,,,,,11,11,35,,,
29548,control_change,7,0,11,,,,,,,,,10,11,38,,,
29548,control_change,7,0,14,,,,,,,,,13,11,35,,,
29550,control_change,7,0,15,,,,,,,,,14,11,35,,,
29550,note_on,2,0,11,,,,,,,,,10,,,,70,0
29550,control_change,7,0,12,,,,,,,,,11,11,38,,,
29550,note_on,0,0,11,,,,,,,,,10,,,,74,112
29555,control_change,7,0,14,,,,,,,,,13,11,38,,,
29556,control_change,6,0,11,,,,,,,,,10,11,41,,,
29557,control_change,7,0,15,,,,,,,,,14,11,38,,,
29558,control_change,8,0,12,,,,,,,,,11,11,41,,,
29563,control_change,8,0,14,,,,,,,,,13,11,41,,,
29565,control_change,8,0,15,,,,,,,,,14,11,41,,,
29570,control_change,14,0,11,,,,,,,,,10,11,46,,,
29572,control_change,14,0,12,,,,,,,,,11,11,46,,,
29577,control_change,7,0,11,,,,,,,,,10,11,49,,,
29577,control_change,14,0,14,,,,,,,,,13,11,46,,,
29579,control_change,14,0,15,,,,,,,,,14,11,46,,,
29579,control_change,7,0,12,,,,,,,,,11,11,49,,,
29580,set_tempo,60,1,0,,,,,,1153846,,,,,,,,
29580,note_on,3,0,11,,,,,,,,,10,,,,74,0
29580,note_on,0,0,11,,,,,,,,,10,,,,73,112
29581,note_on,60,0,1,,,,,,,,,0,,,,82,0
29582,note_on,60,0,2,,,,,,,,,1,,,,82,0
29582,note_on,0,0,2,,,,,,,,,1,,,,70,0
29582,note_on,60,0,3,,,,,,,,,2,,,,70,0
29584,control_change,7,0,14,,,,,,,,,13,11,49,,,
29586,note_on,60,0,9,,,,,,,,,8,,,,55,0
29586,control_change,7,0,15,,,,,,,,,14,11,49,,,
29587,note_on,60,0,4,,,,,,,,,3,,,,58,0
29610,note_on,0,0,11,,,,,,,,,10,,,,74,112
29610,note_on,30,0,11,,,,,,,,,10,,,,73,0
29637,note_on,58,0,12,,,,,,,,,11,,,,70,0
29640,note_on,30,0,11,,,,,,,,,10,,,,74,0
29640,note_on,0,0,11,,,,,,,,,10,,,,78,127
29640,set_tempo,60,1,0,,,,,,1200000,,,,,,,,
29642,note_on,5,0,12,,,,,,,,,11,,,,75,127
29645,note_on,0,0,13,,,,,,,,,12,,,,60,127
29645,control_change,780,0,13,,,,,,,,,12,11,49,,,
29647,note_on,63,0,14,,,,,,,,,13,,,,43,0
29647,note_on,0,0,14,,,,,,,,,13,,,,45,127
29649,note_on,0,0,15,,,,,,,,,14,,,,33,127
29649,note_on,63,0,15,,,,,,,,,14,,,,31,0
29700,set_tempo,60,1,0,,,,,,1153846,,,,,,,,
29755,note_on,115,0,11,,,,,,,,,10,,,,78,0
29757,note_on,115,0,12,,,,,,,,,11,,,,75,0
29760,note_on,0,0,11,,,,,,,,,10,,,,79,112
29760,note_on,115,0,13,,,,,,,,,12,,,,60,0
29760,control_change,5,0,11,,,,,,,,,10,11,50,,,
29760,set_tempo,60,1,0,,,,,,1200000,,,,,,,,
29762,control_change,5,0,12,,,,,,,,,11,11,50,,,
29762,note_on,0,0,12,,,,,,,,,11,,,,74,112
29765,control_change,5,0,13,,,,,,,,,12,11,50,,,
29765,note_on,0,0,13,,,,,,,,,12,,,,62,112
29767,note_on,0,0,14,,,,,,,,,13,,,,46,112
29767,control_change,0,0,14,,,,,,,,,13,11,50,,,
29767,note_on,120,0,14,,,,,,,,,13,,,,45,0
29769,note_on,0,0,15,,,,,,,,,14,,,,34,112
29769,note_on,120,0,15,,,,,,,,,14,,,,33,0
29769,control_change,0,0,15,,,,,,,,,14,11,50,,,
29779,control_change,19,0,11,,,,,,,,,10,11,52,,,
29781,control_change,19,0,12,,,,,,,,,11,11,52,,,
29784,control_change,19,0,13,,,,,,,,,12,11,52,,,
29786,control_change,19,0,14,,,,,,,,,13,11,52,,,
29788,control_change,19,0,15,,,,,,,,,14,11,52,,,
29798,control_change,19,0,11,,,,,,,,,10,11,54,,,
29800,control_change,19,0,12,,,,,,,,,11,11,54,,,
29803,control_change,19,0,13,,,,,,,,,12,11,54,,,
29805,control_change,19,0,14,,,,,,,,,13,11,54,,,
29807,control_change,19,0,15,,,,,,,,,14,11,54,,,
29817,control_change,19,0,11,,,,,,,,,10,11,56,,,
29819,control_change,19,0,12,,,,,,,,,11,11,56,,,
29820,set_tempo,60,1,0,,,,,,1153846,,,,,,,,
29820,note_on,0,0,11,,,,,,,,,10,,,,82,112
29820,note_on,3,0,11,,,,,,,,,10,,,,79,0
29822,control_change,19,0,13,,,,,,,,,12,11,56,,,
29824,control_change,19,0,14,,,,,,,,,13,11,56,,,
29826,control_change,19,0,15,,,,,,,,,14,11,56,,,
29827,note_on,3,0,14,,,,,,,,,13,,,,46,0
29827,note_on,0,0,14,,,,,,,,,13,,,,43,112
29829,note_on,0,0,15,,,,,,,,,14,,,,31,112
29829,note_on,3,0,15,,,,,,,,,14,,,,34,0
29836,control_change,16,0,11,,,,,,,,,10,11,57,,,
29838,control_change,19,0,12,,,,,,,,,11,11,57,,,
29841,control_change,19,0,13,,,,,,,,,12,11,57,,,
29843,control_change,16,0,14,,,,,,,,,13,11,57,,,
29845,control_change,16,0,15,,,,,,,,,14,11,57,,,
29852,note_on,0,0,12,,,,,,,,,11,,,,76,112
29852,note_on,14,0,12,,,,,,,,,11,,,,74,0
29855,note_on,14,0,13,,,,,,,,,12,,,,62,0
29855,note_on,0,0,13,,,,,,,,,12,,,,64,112
29855,control_change,19,0,11,,,,,,,,,10,11,59,,,
29857,control_change,5,0,12,,,,,,,,,11,11,59,,,
29860,control_change,5,0,13,,,,,,,,,12,11,59,,,
29862,control_change,19,0,14,,,,,,,,,13,11,59,,,
29864,control_change,19,0,15,,,,,,,,,14,11,59,,,
29874,control_change,19,0,11,,,,,,,,,10,11,61,,,
29876,control_change,19,0,12,,,,,,,,,11,11,61,,,
29879,control_change,19,0,13,,,,,,,,,12,11,61,,,
29880,set_tempo,60,1,0,,,,,,1200000,,,,,,,,
29880,note_on,0,0,11,,,,,,,,,10,,,,81,112
29880,note_on,6,0,11,,,,,,,,,10,,,,82,0
29881,control_change,19,0,14,,,,,,,,,13,11,61,,,
29882,note_on,0,0,12,,,,,,,,,11,,,,77,112
29882,note_on,6,0,12,,,,,,,,,11,,,,76,0
29883,control_change,19,0,15,,,,,,,,,14,11,61,,,
29885,note_on,0,0,13,,,,,,,,,12,,,,65,112
29885,note_on,6,0,13,,,,,,,,,12,,,,64,0
29887,note_on,6,0,14,,,,,,,,,13,,,,43,0
29887,note_on,0,0,14,,,,,,,,,13,,,,45,112
29889,note_on,6,0,15,,,,,,,,,14,,,,31,0
29889,note_on,0,0,15,,,,,,,,,14,,,,33,112
29893,control_change,13,0,11,,,,,,,,,10,11,63,,,
29895,control_change,13,0,12,,,,,,,,,11,11,63,,,
29898,control_change,13,0,13,,,,,,,,,12,11,63,,,
29900,control_change,13,0,14,,,,,,,,,13,11,63,,,
29902,control_change,13,0,15,,,,,,,,,14,11,63,,,
29912,control_change,19,0,11,,,,,,,,,10,11,65,,,
29914,control_change,19,0,12,,,,,,,,,11,11,65,,,
29917,control_change,19,0,13,,,,,,,,,12,11,65,,,
29919,control_change,19,0,14,,,,,,,,,13,11,65,,,
29921,control_change,19,0,15,,,,,,,,,14,11,65,,,
29932,control_change,20,0,11,,,,,,,,,10,11,67,,,
29934,control_change,20,0,12,,,,,,,,,11,11,67,,,
29937,control_change,20,0,13,,,,,,,,,12,11,67,,,
29939,control_change,20,0,14,,,,,,,,,13,11,67,,,
29940,note_on,8,0,11,,,,,,,,,10,,,,81,0
29940,note_on,0,0,11,,,,,,,,,10,,,,79,112
29940,set_tempo,60,1,0,,,,,,1153846,,,,,,,,
29941,control_change,20,0,15,,,,,,,,,14,11,67,,,
29942,note_on,0,0,12,,,,,,,,,11,,,,76,112
29942,note_on,8,0,12,,,,,,,,,11,,,,77,0
29945,note_on,0,0,13,,,,,,,,,12,,,,64,112
29945,note_on,8,0,13,,,,,,,,,12,,,,65,0
29947,note_on,0,0,14,,,,,,,,,13,,,,48,112
29947,note_on,8,0,14,,,,,,,,,13,,,,45,0
29949,note_on,8,0,15,,,,,,,,,14,,,,33,0
29949,note_on,0,0,15,,,,,,,,,14,,,,36,112
29951,control_change,11,0,11,,,,,,,,,10,11,69,,,
29953,control_change,11,0,12,,,,,,,,,11,11,69,,,
29956,control_change,11,0,13,,,,,,,,,12,11,69,,,
29958,control_change,11,0,14,,,,,,,,,13,11,69,,,
29960,control_change,11,0,15,,,,,,,,,14,11,69,,,
29970,control_change,19,0,11,,,,,,,,,10,11,71,,,
29972,control_change,19,0,12,,,,,,,,,11,11,71,,,
29975,control_change,19,0,13,,,,,,,,,12,11,71,,,
29977,control_change,19,0,14,,,,,,,,,13,11,71,,,
29979,control_change,19,0,15,,,,,,,,,14,11,71,,,
29989,control_change,19,0,11,,,,,,,,,10,11,72,,,
29991,control_change,19,0,12,,,,,,,,,11,11,72,,,
29994,control_change,19,0,13,,,,,,,,,12,11,72,,,
29995,note_on,6,0,11,,,,,,,,,10,,,,79,0
29996,control_change,19,0,14,,,,,,,,,13,11,72,,,
29997,note_on,6,0,12,,,,,,,,,11,,,,76,0
29998,control_change,19,0,15,,,,,,,,,14,11,72,,,
30000,note_on,0,0,11,,,,,,,,,10,,,,69,127
30000,control_change,5,0,11,,,,,,,,,10,11,83,,,
30000,set_tempo,60,1,0,,,,,,1200000,,,,,,,,
30000,note_on,6,0,13,,,,,,,,,12,,,,64,0
30000,note_on,0,0,11,,,,,,,,,10,,,,77,127
30002,note_on,0,0,12,,,,,,,,,11,,,,74,127
30002,note_on,0,0,12,,,,,,,,,11,,,,65,127
30002,control_change,5,0,12,,,,,,,,,11,11,83,,,
30002,note_on,6,0,14,,,,,,,,,13,,,,48,0
30004,note_on,6,0,15,,,,,,,,,14,,,,36,0
30005,note_on,0,0,13,,,,,,,,,12,,,,62,112
30005,control_change,5,0,13,,,,,,,,,12,11,83,,,
30007,note_on,0,0,14,,,,,,,,,13,,,,50,112
30007,control_change,5,0,14,,,,,,,,,13,11,83,,,
30009,control_change,5,0,15,,,,,,,,,14,11,83,,,
30009,note_on,0,0,15,,,,,,,,,14,,,,38,112
30035,note_on,30,0,13,,,,,,,,,12,,,,62,0
30037,note_on,30,0,14,,,,,,,,,13,,,,50,0
30039,note_on,30,0,15,,,,,,,,,14,,,,38,0
30060,set_tempo,60,1,0,,,,,,1111111,,,,,,,,
30065,note_on,30,0,13,,,,,,,,,12,,,,69,112
30067,note_on,30,0,14,,,,,,,,,13,,,,57,112
30069,note_on,30,0,15,,,,,,,,,14,,,,45,112
30069,note_on,0,0,11,,,,,,,,,10,,,,69,0
30069,note_on,69,0,11,,,,,,,,,10,,,,77,0
30070,note_on,5,0,13,,,,,,,,,12,,,,69,0
30070,note_on,0,0,13,,,,,,,,,12,,,,68,112
30071,note_on,69,0,12,,,,,,,,,11,,,,74,0
30071,note_on,0,0,12,,,,,,,,,11,,,,65,0
30075,note_on,5,0,13,,,,,,,,,12,,,,68,0
30075,note_on,0,0,13,,,,,,,,,12,,,,69,112
30077,note_on,0,0,14,,,,,,,,,13,,,,56,112
30077,note_on,10,0,14,,,,,,,,,13,,,,57,0
30079,note_on,10,0,15,,,,,,,,,14,,,,45,0
30079,note_on,0,0,15,,,,,,,,,14,,,,44,112
30080,note_on,5,0,13,,,,,,,,,12,,,,69,0
30080,note_on,0,0,13,,,,,,,,,12,,,,68,112
30085,note_on,5,0,13,,,,,,,,,12,,,,68,0
30085,note_on,0,0,13,,,,,,,,,12,,,,69,112
30087,note_on,0,0,14,,,,,,,,,13,,,,57,112
30087,note_on,10,0,14,,,,,,,,,13,,,,56,0
30089,note_on,0,0,15,,,,,,,,,14,,,,45,112
30089,note_on,10,0,15,,,,,,,,,14,,,,44,0
30090,note_on,5,0,13,,,,,,,,,12,,,,69,0
30090,note_on,0,0,13,,,,,,,,,12,,,,68,112
30095,note_on,0,0,13,,,,,,,,,12,,,,69,112
30095,note_on,5,0,13,,,,,,,,,12,,,,68,0
30097,note_on,10,0,14,,,,,,,,,13,,,,57,0
30097,note_on,0,0,14,,,,,,,,,13,,,,56,112
30099,note_on,10,0,15,,,,,,,,,14,,,,45,0
30099,note_on,0,0,15,,,,,,,,,14,,,,44,112
30100,note_on,5,0,13,,,,,,,,,12,,,,69,0
30100,note_on,0,0,13,,,,,,,,,12,,,,68,112
30105,note_on,5,0,13,,,,,,,,,12,,,,68,0
30105,note_on,0,0,13,,,,,,,,,12,,,,69,112
30107,note_on,0,0,14,,,,,,,,,13,,,,57,112
30107,note_on,10,0,14,,,,,,,,,13,,,,56,0
30109,note_on,10,0,15,,,,,,,,,14,,,,44,0
30109,note_on,0,0,15,,,,,,,,,14,,,,45,112
30110,note_on,5,0,13,,,,,,,,,12,,,,69,0
30110,note_on,0,0,13,,,,,,,,,12,,,,68,112
30115,note_on,0,0,13,,,,,,,,,12,,,,69,112
30115,note_on,5,0,13,,,,,,,,,12,,,,68,0
30117,note_on,0,0,14,,,,,,,,,13,,,,56,112
30117,note_on,10,0,14,,,,,,,,,13,,,,57,0
30119,note_on,0,0,15,,,,,,,,,14,,,,44,112
30119,note_on,10,0,15,,,,,,,,,14,,,,45,0
30120,note_on,5,0,13,,,,,,,,,12,,,,69,0
30120,note_on,0,0,13,,,,,,,,,12,,,,68,112
30120,set_tempo,60,1,0,,,,,,1188119,,,,,,,,
30120,note_on,0,0,11,,,,,,,,,10,,,,69,127
30120,note_on,51,0,11,,,,,,,,,10,,,,76,127
30122,note_on,0,0,12,,,,,,,,,11,,,,64,127
30122,note_on,51,0,12,,,,,,,,,11,,,,72,127
30123,note_on,3,0,13,,,,,,,,,12,,,,68,0
30125,note_on,2,0,13,,,,,,,,,12,,,,69,112
30127,note_on,10,0,14,,,,,,,,,13,,,,56,0
30127,note_on,0,0,14,,,,,,,,,13,,,,57,112
30129,note_on,0,0,15,,,,,,,,,14,,,,45,112
30129,note_on,10,0,15,,,,,,,,,14,,,,44,0
30155,note_on,30,0,13,,,,,,,,,12,,,,69,0
30157,note_on,30,0,14,,,,,,,,,13,,,,57,0
30159,note_on,30,0,15,,,,,,,,,14,,,,45,0
30180,set_tempo,60,1,0,,,,,,1111111,,,,,,,,
30185,note_on,30,0,13,,,,,,,,,12,,,,57,112
30187,note_on,30,0,14,,,,,,,,,13,,,,45,112
30189,note_on,30,0,15,,,,,,,,,14,,,,33,112
30189,note_on,0,0,11,,,,,,,,,10,,,,76,0
30189,note_on,69,0,11,,,,,,,,,10,,,,69,0
30191,note_on,69,0,12,,,,,,,,,11,,,,64,0
30191,note_on,0,0,12,,,,,,,,,11,,,,72,0
30215,note_on,30,0,13,,,,,,,,,12,,,,57,0
30217,note_on,30,0,14,,,,,,,,,13,,,,45,0
30219,note_on,30,0,15,,,,,,,,,14,,,,33,0
30240,set_tempo,60,1,0,,,,,,1200000,,,,,,,,
30241,note_on,0,0,5,,,,,,,,,4,,,,65,115
30241,control_change,3850,0,5,,,,,,,,,4,11,72,,,
30241,control_change,660,0,1,,,,,,,,,0,11,68,,,
30241,note_on,0,0,1,,,,,,,,,0,,,,82,116
30241,note_on,0,0,1,,,,,,,,,0,,,,86,116
30242,control_change,660,0,3,,,,,,,,,2,11,68,,,
30242,note_on,0,0,3,,,,,,,,,2,,,,65,116
30242,note_on,0,0,3,,,,,,,,,2,,,,70,116
30242,note_on,0,0,2,,,,,,,,,1,,,,77,115
30242,note_on,0,0,2,,,,,,,,,1,,,,74,115
30242,control_change,660,0,2,,,,,,,,,1,11,68,,,
30242,control_change,7920,0,7,,,,,,,,,6,11,72,,,
30243,control_change,7920,0,6,,,,,,,,,5,11,72,,,
30243,note_on,0,0,6,,,,,,,,,5,,,,65,115
30244,control_change,3850,0,8,,,,,,,,,7,11,72,,,
30246,note_on,0,0,9,,,,,,,,,8,,,,46,110
30246,control_change,660,0,9,,,,,,,,,8,11,97,,,
30247,control_change,660,0,4,,,,,,,,,3,11,72,,,
30247,note_on,0,0,4,,,,,,,,,3,,,,62,115
30247,note_on,0,0,4,,,,,,,,,3,,,,58,115
30276,note_on,30,0,9,,,,,,,,,8,,,,46,0
30300,set_tempo,60,1,0,,,,,,1111111,,,,,,,,
30306,note_on,30,0,9,,,,,,,,,8,,,,52,110
30336,note_on,30,0,9,,,,,,,,,8,,,,52,0
30351,note_on,0,0,1,,,,,,,,,0,,,,82,0
30351,note_on,110,0,1,,,,,,,,,0,,,,86,0
30351,note_on,110,0,5,,,,,,,,,4,,,,65,0
30352,note_on,110,0,3,,,,,,,,,2,,,,70,0
30352,note_on,110,0,2,,,,,,,,,1,,,,77,0
30352,note_on,0,0,2,,,,,,,,,1,,,,74,0
30352,note_on,0,0,3,,,,,,,,,2,,,,65,0
30353,note_on,110,0,6,,,,,,,,,5,,,,65,0
30357,note_on,0,0,4,,,,,,,,,3,,,,62,0
30357,note_on,110,0,4,,,,,,,,,3,,,,58,0
30360,set_tempo,60,1,0,,,,,,1188119,,,,,,,,
30361,note_on,10,0,1,,,,,,,,,0,,,,81,116
30361,note_on,0,0,1,,,,,,,,,0,,,,84,116
30361,note_on,10,0,5,,,,,,,,,4,,,,65,115
30362,note_on,10,0,3,,,,,,,,,2,,,,65,116
30362,note_on,0,0,2,,,,,,,,,1,,,,77,115
30362,note_on,10,0,2,,,,,,,,,1,,,,72,115
30362,note_on,0,0,3,,,,,,,,,2,,,,69,116
30363,note_on,10,0,6,,,,,,,,,5,,,,65,115
30366,note_on,30,0,9,,,,,,,,,8,,,,53,110
30367,note_on,10,0,4,,,,,,,,,3,,,,57,115
30367,note_on,0,0,4,,,,,,,,,3,,,,60,115
30396,note_on,30,0,9,,,,,,,,,8,,,,53,0
30420,set_tempo,60,1,0,,,,,,1111111,,,,,,,,
30426,note_on,30,0,9,,,,,,,,,8,,,,41,110
30456,note_on,30,0,9,,,,,,,,,8,,,,41,0
30471,note_on,110,0,1,,,,,,,,,0,,,,84,0
30471,note_on,0,0,1,,,,,,,,,0,,,,81,0
30471,note_on,110,0,5,,,,,,,,,4,,,,65,0
30472,note_on,110,0,3,,,,,,,,,2,,,,69,0
30472,note_on,110,0,2,,,,,,,,,1,,,,77,0
30472,note_on,0,0,3,,,,,,,,,2,,,,65,0
30472,note_on,0,0,2,,,,,,,,,1,,,,72,0
30473,note_on,110,0,6,,,,,,,,,5,,,,65,0
30477,note_on,0,0,4,,,,,,,,,3,,,,57,0
30477,note_on,110,0,4,,,,,,,,,3,,,,60,0
30480,set_tempo,60,1,0,,,,,,1121495,,,,,,,,
30480,control_change,291,0,11,,,,,,,,,10,11,55,,,
30480,note_on,0,0,11,,,,,,,,,10,,,,71,112
30482,note_on,0,0,12,,,,,,,,,11,,,,68,112
30482,control_change,291,0,12,,,,,,,,,11,11,55,,,
30485,note_on,0,0,13,,,,,,,,,12,,,,65,112
30485,control_change,270,0,13,,,,,,,,,12,11,55,,,
30487,control_change,270,0,14,,,,,,,,,13,11,55,,,
30487,note_on,0,0,14,,,,,,,,,13,,,,50,112
30489,note_on,0,0,15,,,,,,,,,14,,,,38,112
30489,control_change,270,0,15,,,,,,,,,14,11,55,,,
30495,control_change,15,0,11,,,,,,,,,10,11,57,,,
30497,control_change,15,0,12,,,,,,,,,11,11,57,,,
30500,control_change,15,0,13,,,,,,,,,12,11,57,,,
30502,control_change,15,0,14,,,,,,,,,13,11,57,,,
30504,control_change,15,0,15,,,,,,,,,14,11,57,,,
30510,note_on,15,0,11,,,,,,,,,10,,,,71,0
30511,control_change,1,0,11,,,,,,,,,10,11,58,,,
30512,note_on,15,0,12,,,,,,,,,11,,,,68,0
30513,control_change,1,0,12,,,,,,,,,11,11,58,,,
30515,note_on,15,0,13,,,,,,,,,12,,,,65,0
30516,control_change,1,0,13,,,,,,,,,12,11,58,,,
30517,note_on,15,0,14,,,,,,,,,13,,,,50,0
30518,control_change,1,0,14,,,,,,,,,13,11,58,,,
30519,note_on,15,0,15,,,,,,,,,14,,,,38,0
30520,control_change,1,0,15,,,,,,,,,14,11,58,,,
30527,control_change,16,0,11,,,,,,,,,10,11,60,,,
30529,control_change,16,0,12,,,,,,,,,11,11,60,,,
30532,control_change,16,0,13,,,,,,,,,12,11,60,,,
30534,control_change,16,0,14,,,,,,,,,13,11,60,,,
30536,control_change,16,0,15,,,,,,,,,14,11,60,,,
30540,note_on,13,0,11,,,,,,,,,10,,,,71,112
30542,note_on,13,0,12,,,,,,,,,11,,,,69,112
30543,control_change,3,0,11,,,,,,,,,10,11,62,,,
30545,note_on,13,0,13,,,,,,,,,12,,,,66,112
30545,control_change,3,0,12,,,,,,,,,11,11,62,,,
30547,note_on,13,0,14,,,,,,,,,13,,,,51,112
30548,control_change,3,0,13,,,,,,,,,12,11,62,,,
30549,note_on,13,0,15,,,,,,,,,14,,,,39,112
30550,control_change,3,0,14,,,,,,,,,13,11,62,,,
30552,control_change,3,0,15,,,,,,,,,14,11,62,,,
30559,control_change,16,0,11,,,,,,,,,10,11,64,,,
30561,control_change,16,0,12,,,,,,,,,11,11,64,,,
30564,control_change,16,0,13,,,,,,,,,12,11,64,,,
30566,control_change,16,0,14,,,,,,,,,13,11,64,,,
30568,control_change,16,0,15,,,,,,,,,14,11,64,,,
30570,note_on,11,0,11,,,,,,,,,10,,,,71,0
30572,note_on,11,0,12,,,,,,,,,11,,,,69,0
30575,control_change,5,0,11,,,,,,,,,10,11,66,,,
30575,note_on,11,0,13,,,,,,,,,12,,,,66,0
30577,note_on,11,0,14,,,,,,,,,13,,,,51,0
30577,control_change,5,0,12,,,,,,,,,11,11,66,,,
30579,note_on,11,0,15,,,,,,,,,14,,,,39,0
30580,control_change,5,0,13,,,,,,,,,12,11,66,,,
30582,control_change,5,0,14,,,,,,,,,13,11,66,,,
30584,control_change,5,0,15,,,,,,,,,14,11,66,,,
30591,control_change,16,0,11,,,,,,,,,10,11,68,,,
30593,control_change,16,0,12,,,,,,,,,11,11,68,,,
30596,control_change,16,0,13,,,,,,,,,12,11,68,,,
30598,control_change,16,0,14,,,,,,,,,13,11,68,,,
30600,control_change,16,0,15,,,,,,,,,14,11,68,,,
30600,note_on,9,0,11,,,,,,,,,10,,,,72,112
30600,set_tempo,120,1,0,,,,,,1142857,,,,,,,,
30602,note_on,9,0,12,,,,,,,,,11,,,,69,112
30605,note_on,9,0,13,,,,,,,,,12,,,,64,112
30607,note_on,9,0,14,,,,,,,,,13,,,,52,112
30607,control_change,7,0,11,,,,,,,,,10,11,70,,,
30609,control_change,7,0,12,,,,,,,,,11,11,70,,,
30609,note_on,9,0,15,,,,,,,,,14,,,,40,112
30612,control_change,7,0,13,,,,,,,,,12,11,70,,,
30614,control_change,7,0,14,,,,,,,,,13,11,70,,,
30616,control_change,7,0,15,,,,,,,,,14,11,70,,,
30623,control_change,16,0,11,,,,,,,,,10,11,72,,,
30625,control_change,16,0,12,,,,,,,,,11,11,72,,,
30628,control_change,16,0,13,,,,,,,,,12,11,72,,,
30630,note_on,7,0,11,,,,,,,,,10,,,,72,0
30630,control_change,16,0,14,,,,,,,,,13,11,72,,,
30632,control_change,16,0,15,,,,,,,,,14,11,72,,,
30632,note_on,7,0,12,,,,,,,,,11,,,,69,0
30635,note_on,7,0,13,,,,,,,,,12,,,,64,0
30637,note_on,7,0,14,,,,,,,,,13,,,,52,0
30639,note_on,7,0,15,,,,,,,,,14,,,,40,0
30639,control_change,9,0,11,,,,,,,,,10,11,73,,,
30641,control_change,9,0,12,,,,,,,,,11,11,73,,,
30644,control_change,9,0,13,,,,,,,,,12,11,73,,,
30646,control_change,9,0,14,,,,,,,,,13,11,73,,,
30648,control_change,9,0,15,,,,,,,,,14,11,73,,,
30655,control_change,16,0,11,,,,,,,,,10,11,75,,,
30657,control_change,16,0,12,,,,,,,,,11,11,75,,,
30660,control_change,16,0,13,,,,,,,,,12,11,75,,,
30660,note_on,5,0,11,,,,,,,,,10,,,,74,112
30662,control_change,16,0,14,,,,,,,,,13,11,75,,,
30662,note_on,5,0,12,,,,,,,,,11,,,,69,112
30664,control_change,16,0,15,,,,,,,,,14,11,75,,,
30665,note_on,5,0,13,,,,,,,,,12,,,,62,112
30667,note_on,5,0,14,,,,,,,,,13,,,,53,112
30669,note_on,5,0,15,,,,,,,,,14,,,,41,112
30671,control_change,11,0,11,,,,,,,,,10,11,77,,,
30673,control_change,11,0,12,,,,,,,,,11,11,77,,,
30676,control_change,11,0,13,,,,,,,,,12,11,77,,,
30678,control_change,11,0,14,,,,,,,,,13,11,77,,,
30680,control_change,11,0,15,,,,,,,,,14,11,77,,,
30687,control_change,16,0,11,,,,,,,,,10,11,79,,,
30689,control_change,16,0,12,,,,,,,,,11,11,79,,,
30690,note_on,3,0,11,,,,,,,,,10,,,,74,0
30692,control_change,16,0,13,,,,,,,,,12,11,79,,,
30692,note_on,3,0,12,,,,,,,,,11,,,,69,0
30694,control_change,16,0,14,,,,,,,,,13,11,79,,,
30695,note_on,3,0,13,,,,,,,,,12,,,,62,0
30696,control_change,16,0,15,,,,,,,,,14,11,79,,,
30697,note_on,3,0,14,,,,,,,,,13,,,,53,0
30699,note_on,3,0,15,,,,,,,,,14,,,,41,0
30703,control_change,13,0,11,,,,,,,,,10,11,81,,,
30705,control_change,13,0,12,,,,,,,,,11,11,81,,,
30708,control_change,13,0,13,,,,,,,,,12,11,81,,,
30710,control_change,13,0,14,,,,,,,,,13,11,81,,,
30712,control_change,13,0,15,,,,,,,,,14,11,81,,,
30719,control_change,16,0,11,,,,,,,,,10,11,83,,,
30720,note_on,0,0,11,,,,,,,,,10,,,,76,127
30720,note_on,0,0,11,,,,,,,,,10,,,,69,127
30720,set_tempo,120,1,0,,,,,,1200000,,,,,,,,
30720,control_change,1,0,11,,,,,,,,,10,11,73,,,
30721,note_on,0,0,1,,,,,,,,,0,,,,88,116
30721,note_on,250,0,1,,,,,,,,,0,,,,84,116
30721,control_change,16,0,12,,,,,,,,,11,11,83,,,
30721,note_on,250,0,5,,,,,,,,,4,,,,64,115
30722,note_on,0,0,7,,,,,,,,,6,,,,64,127
30722,note_on,250,0,2,,,,,,,,,1,,,,72,115
30722,note_on,0,0,2,,,,,,,,,1,,,,81,115
30722,note_on,0,0,12,,,,,,,,,11,,,,72,127
30722,note_on,0,0,12,,,,,,,,,11,,,,64,127
30722,control_change,1,0,12,,,,,,,,,11,11,73,,,
30722,note_on,0,0,3,,,,,,,,,2,,,,72,116
30722,note_on,250,0,3,,,,,,,,,2,,,,69,116
30722,note_on,480,0,7,,,,,,,,,6,,,,76,127
30723,note_on,250,0,6,,,,,,,,,5,,,,52,115
30724,control_change,16,0,13,,,,,,,,,12,11,83,,,
30724,note_on,480,0,8,,,,,,,,,7,,,,57,125
30724,note_on,0,0,8,,,,,,,,,7,,,,60,125
30725,note_on,1,0,13,,,,,,,,,12,,,,64,127
30725,control_change,0,0,13,,,,,,,,,12,11,73,,,
30726,control_change,16,0,14,,,,,,,,,13,11,83,,,
30726,note_on,270,0,9,,,,,,,,,8,,,,52,125
30727,control_change,1,0,14,,,,,,,,,13,11,73,,,
30727,note_on,250,0,4,,,,,,,,,3,,,,60,115
30727,note_on,0,0,4,,,,,,,,,3,,,,57,115
30727,note_on,0,0,14,,,,,,,,,13,,,,52,127
30728,control_change,16,0,15,,,,,,,,,14,11,83,,,
30729,control_change,1,0,15,,,,,,,,,14,11,73,,,
30729,note_on,0,0,15,,,,,,,,,14,,,,40,127
30780,set_tempo,60,1,0,,,,,,1111111,,,,,,,,
30830,note_on,110,0,11,,,,,,,,,10,,,,76,0
30830,note_on,0,0,11,,,,,,,,,10,,,,69,0
30831,note_on,110,0,5,,,,,,,,,4,,,,64,0
30831,note_on,0,0,1,,,,,,,,,0,,,,84,0
30831,note_on,110,0,1,,,,,,,,,0,,,,88,0
30832,note_on,110,0,3,,,,,,,,,2,,,,72,0
30832,note_on,0,0,12,,,,,,,,,11,,,,64,0
30832,note_on,110,0,7,,,,,,,,,6,,,,64,0
30832,note_on,110,0,2,,,,,,,,,1,,,,81,0
30832,note_on,110,0,12,,,,,,,,,11,,,,72,0
30832,note_on,0,0,7,,,,,,,,,6,,,,76,0
30832,note_on,0,0,2,,,,,,,,,1,,,,72,0
30832,note_on,0,0,3,,,,,,,,,2,,,,69,0
30833,note_on,110,0,6,,,,,,,,,5,,,,52,0
30834,note_on,0,0,8,,,,,,,,,7,,,,57,0
30834,note_on,110,0,8,,,,,,,,,7,,,,60,0
30835,note_on,110,0,13,,,,,,,,,12,,,,64,0
30836,note_on,110,0,9,,,,,,,,,8,,,,52,0
30837,note_on,110,0,14,,,,,,,,,13,,,,52,0
30837,note_on,110,0,4,,,,,,,,,3,,,,57,0
30837,note_on,0,0,4,,,,,,,,,3,,,,60,0
30839,note_on,110,0,15,,,,,,,,,14,,,,40,0
30840,set_tempo,60,1,0,,,,,,1188119,,,,,,,,
30840,note_on,0,0,11,,,,,,,,,10,,,,76,127
30840,note_on,10,0,11,,,,,,,,,10,,,,68,127
30841,note_on,10,0,1,,,,,,,,,0,,,,83,116
30841,note_on,10,0,5,,,,,,,,,4,,,,64,115
30841,note_on,0,0,1,,,,,,,,,0,,,,88,116
30842,note_on,10,0,12,,,,,,,,,11,,,,64,127
30842,note_on,10,0,2,,,,,,,,,1,,,,71,115
30842,note_on,0,0,2,,,,,,,,,1,,,,80,115
30842,note_on,0,0,12,,,,,,,,,11,,,,71,127
30842,note_on,10,0,7,,,,,,,,,6,,,,64,127
30842,note_on,0,0,7,,,,,,,,,6,,,,76,127
30842,note_on,0,0,3,,,,,,,,,2,,,,71,116
30842,note_on,10,0,3,,,,,,,,,2,,,,68,116
30843,note_on,10,0,6,,,,,,,,,5,,,,52,115
30844,note_on,10,0,8,,,,,,,,,7,,,,56,125
30844,note_on,0,0,8,,,,,,,,,7,,,,59,125
30845,note_on,10,0,13,,,,,,,,,12,,,,64,127
30846,note_on,10,0,9,,,,,,,,,8,,,,52,125
30847,note_on,0,0,4,,,,,,,,,3,,,,59,115
30847,note_on,10,0,4,,,,,,,,,3,,,,56,115
30847,note_on,10,0,14,,,,,,,,,13,,,,52,127
30849,note_on,10,0,15,,,,,,,,,14,,,,40,127
30900,set_tempo,60,1,0,,,,,,1111111,,,,,,,,
30930,set_tempo,30,1,0,,,,,,1290323,,,,,,,,
30950,note_on,0,0,11,,,,,,,,,10,,,,68,0
30950,note_on,110,0,11,,,,,,,,,10,,,,76,0
30951,note_on,0,0,1,,,,,,,,,0,,,,83,0
30951,note_on,110,0,5,,,,,,,,,4,,,,64,0
30951,note_on,110,0,1,,,,,,,,,0,,,,88,0
30952,note_on,110,0,3,,,,,,,,,2,,,,71,0
30952,note_on,0,0,3,,,,,,,,,2,,,,68,0
30952,note_on,110,0,12,,,,,,,,,11,,,,71,0
30952,note_on,0,0,12,,,,,,,,,11,,,,64,0
30952,note_on,110,0,7,,,,,,,,,6,,,,76,0
30952,note_on,0,0,7,,,,,,,,,6,,,,64,0
30952,note_on,0,0,2,,,,,,,,,1,,,,71,0
30952,note_on,110,0,2,,,,,,,,,1,,,,80,0
30953,note_on,110,0,6,,,,,,,,,5,,,,52,0
30954,note_on,110,0,8,,,,,,,,,7,,,,59,0
30954,note_on,0,0,8,,,,,,,,,7,,,,56,0
30955,note_on,110,0,13,,,,,,,,,12,,,,64,0
30956,note_on,110,0,9,,,,,,,,,8,,,,52,0
30957,note_on,110,0,14,,,,,,,,,13,,,,52,0
30957,note_on,0,0,4,,,,,,,,,3,,,,56,0
30957,note_on,110,0,4,,,,,,,,,3,,,,59,0
30959,note_on,110,0,15,,,,,,,,,14,,,,40,0
30960,note_on,0,0,11,,,,,,,,,10,,,,76,127
30960,note_on,10,0,11,,,,,,,,,10,,,,84,127
30960,set_tempo,30,1,0,,,,,,1200000,,,,,,,,
30962,note_on,10,0,12,,,,,,,,,11,,,,81,127
30962,note_on,0,0,12,,,,,,,,,11,,,,72,127
30965,note_on,10,0,13,,,,,,,,,12,,,,57,112
30967,note_on,10,0,14,,,,,,,,,13,,,,57,112
30969,note_on,10,0,15,,,,,,,,,14,,,,45,112
30995,note_on,30,0,13,,,,,,,,,12,,,,57,0
30997,note_on,30,0,14,,,,,,,,,13,,,,57,0
30999,note_on,30,0,15,,,,,,,,,14,,,,45,0
31020,set_tempo,60,1,0,,,,,,1111111,,,,,,,,
31025,note_on,30,0,13,,,,,,,,,12,,,,64,112
31027,note_on,30,0,14,,,,,,,,,13,,,,64,112
31029,note_on,0,0,11,,,,,,,,,10,,,,84,0
31029,note_on,30,0,15,,,,,,,,,14,,,,52,112
31029,note_on,69,0,11,,,,,,,,,10,,,,76,0
31030,note_on,0,0,13,,,,,,,,,12,,,,63,112
31030,note_on,5,0,13,,,,,,,,,12,,,,64,0
31031,note_on,69,0,12,,,,,,,,,11,,,,72,0
31031,note_on,0,0,12,,,,,,,,,11,,,,81,0
31035,note_on,0,0,13,,,,,,,,,12,,,,64,112
31035,note_on,5,0,13,,,,,,,,,12,,,,63,0
31037,note_on,10,0,14,,,,,,,,,13,,,,64,0
31037,note_on,0,0,14,,,,,,,,,13,,,,63,112
31039,note_on,0,0,15,,,,,,,,,14,,,,51,112
31039,note_on,10,0,15,,,,,,,,,14,,,,52,0
31040,note_on,0,0,13,,,,,,,,,12,,,,63,112
31040,note_on,5,0,13,,,,,,,,,12,,,,64,0
31045,note_on,0,0,13,,,,,,,,,12,,,,64,112
31045,note_on,5,0,13,,,,,,,,,12,,,,63,0
31047,note_on,10,0,14,,,,,,,,,13,,,,63,0
31047,note_on,0,0,14,,,,,,,,,13,,,,64,112
31049,note_on,0,0,15,,,,,,,,,14,,,,52,112
31049,note_on,10,0,15,,,,,,,,,14,,,,51,0
31050,note_on,0,0,13,,,,,,,,,12,,,,63,112
31050,note_on,5,0,13,,,,,,,,,12,,,,64,0
31055,note_on,5,0,13,,,,,,,,,12,,,,63,0
31055,note_on,0,0,13,,,,,,,,,12,,,,64,112
31057,note_on,10,0,14,,,,,,,,,13,,,,64,0
31057,note_on,0,0,14,,,,,,,,,13,,,,63,112
31059,note_on,0,0,15,,,,,,,,,14,,,,51,112
31059,note_on,10,0,15,,,,,,,,,14,,,,52,0
31060,note_on,0,0,13,,,,,,,,,12,,,,63,112
31060,note_on,5,0,13,,,,,,,,,12,,,,64,0
31065,note_on,0,0,13,,,,,,,,,12,,,,64,112
31065,note_on,5,0,13,,,,,,,,,12,,,,63,0
31067,note_on,0,0,14,,,,,,,,,13,,,,64,112
31067,note_on,10,0,14,,,,,,,,,13,,,,63,0
31069,note_on,0,0,15,,,,,,,,,14,,,,52,112
31069,note_on,10,0,15,,,,,,,,,14,,,,51,0
31070,note_on,0,0,13,,,,,,,,,12,,,,63,112
31070,note_on,5,0,13,,,,,,,,,12,,,,64,0
31075,note_on,0,0,13,,,,,,,,,12,,,,64,112
31075,note_on,5,0,13,,,,,,,,,12,,,,63,0
31077,note_on,10,0,14,,,,,,,,,13,,,,64,0
31077,note_on,0,0,14,,,,,,,,,13,,,,63,112
31079,note_on,10,0,15,,,,,,,,,14,,,,52,0
31079,note_on,0,0,15,,,,,,,,,14,,,,51,112
31080,note_on,0,0,13,,,,,,,,,12,,,,63,112
31080,set_tempo,60,1,0,,,,,,1188119,,,,,,,,
31080,note_on,51,0,11,,,,,,,,,10,,,,76,127
31080,note_on,0,0,11,,,,,,,,,10,,,,83,127
31080,note_on,5,0,13,,,,,,,,,12,,,,64,0
31082,note_on,0,0,12,,,,,,,,,11,,,,71,127
31082,note_on,51,0,12,,,,,,,,,11,,,,79,127
31083,note_on,3,0,13,,,,,,,,,12,,,,63,0
31085,note_on,2,0,13,,,,,,,,,12,,,,64,112
31087,note_on,10,0,14,,,,,,,,,13,,,,63,0
31087,note_on,0,0,14,,,,,,,,,13,,,,64,112
31089,note_on,10,0,15,,,,,,,,,14,,,,51,0
31089,note_on,0,0,15,,,,,,,,,14,,,,52,112
31115,note_on,30,0,13,,,,,,,,,12,,,,64,0
31117,note_on,30,0,14,,,,,,,,,13,,,,64,0
31119,note_on,30,0,15,,,,,,,,,14,,,,52,0
31140,set_tempo,60,1,0,,,,,,1111111,,,,,,,,
31145,note_on,30,0,13,,,,,,,,,12,,,,52,112
31147,note_on,30,0,14,,,,,,,,,13,,,,52,112
31149,note_on,69,0,11,,,,,,,,,10,,,,83,0
31149,note_on,0,0,11,,,,,,,,,10,,,,76,0
31149,note_on,30,0,15,,,,,,,,,14,,,,40,112
31151,note_on,69,0,12,,,,,,,,,11,,,,71,0
31151,note_on,0,0,12,,,,,,,,,11,,,,79,0
31175,note_on,30,0,13,,,,,,,,,12,,,,52,0
31177,note_on,30,0,14,,,,,,,,,13,,,,52,0
31179,note_on,30,0,15,,,,,,,,,14,,,,40,0
31200,set_tempo,60,1,0,,,,,,1200000,,,,,,,,
31201,note_on,250,0,1,,,,,,,,,0,,,,89,116
31201,note_on,0,0,1,,,,,,,,,0,,,,93,116
31201,note_on,250,0,5,,,,,,,,,4,,,,60,115
31202,note_on,0,0,2,,,,,,,,,1,,,,81,115
31202,note_on,250,0,2,,,,,,,,,1,,,,84,115
31202,note_on,0,0,3,,,,,,,,,2,,,,77,116
31202,note_on,250,0,3,,,,,,,,,2,,,,72,116
31203,note_on,250,0,6,,,,,,,,,5,,,,60,115
31206,note_on,250,0,9,,,,,,,,,8,,,,53,110
31207,note_on,250,0,4,,,,,,,,,3,,,,69,115
31207,note_on,0,0,4,,,,,,,,,3,,,,65,115
31236,note_on,30,0,9,,,,,,,,,8,,,,53,0
31260,set_tempo,60,1,0,,,,,,1111111,,,,,,,,
31266,note_on,30,0,9,,,,,,,,,8,,,,59,110
31296,note_on,30,0,9,,,,,,,,,8,,,,59,0
31311,note_on,110,0,5,,,,,,,,,4,,,,60,0
31311,note_on,0,0,1,,,,,,,,,0,,,,89,0
31311,note_on,110,0,1,,,,,,,,,0,,,,93,0
31312,note_on,110,0,2,,,,,,,,,1,,,,81,0
31312,note_on,0,0,2,,,,,,,,,1,,,,84,0
31312,note_on,110,0,3,,,,,,,,,2,,,,77,0
31312,note_on,0,0,3,,,,,,,,,2,,,,72,0
31313,note_on,110,0,6,,,,,,,,,5,,,,60,0
31317,note_on,0,0,4,,,,,,,,,3,,,,69,0
31317,note_on,110,0,4,,,,,,,,,3,,,,65,0
31320,set_tempo,60,1,0,,,,,,1188119,,,,,,,,
31321,note_on,10,0,1,,,,,,,,,0,,,,88,116
31321,note_on,0,0,1,,,,,,,,,0,,,,91,116
31321,note_on,10,0,5,,,,,,,,,4,,,,60,115
31322,note_on,0,0,2,,,,,,,,,1,,,,79,115
31322,note_on,0,0,3,,,,,,,,,2,,,,76,116
31322,note_on,10,0,2,,,,,,,,,1,,,,84,115
31322,note_on,10,0,3,,,,,,,,,2,,,,72,116
31323,note_on,10,0,6,,,,,,,,,5,,,,60,115
31326,note_on,30,0,9,,,,,,,,,8,,,,60,110
31327,note_on,10,0,4,,,,,,,,,3,,,,64,115
31327,note_on,0,0,4,,,,,,,,,3,,,,67,115
31356,note_on,30,0,9,,,,,,,,,8,,,,60,0
31380,set_tempo,60,1,0,,,,,,1111111,,,,,,,,
31386,note_on,30,0,9,,,,,,,,,8,,,,48,110
31416,note_on,30,0,9,,,,,,,,,8,,,,48,0
31431,note_on,110,0,5,,,,,,,,,4,,,,60,0
31431,note_on,110,0,1,,,,,,,,,0,,,,91,0
31431,note_on,0,0,1,,,,,,,,,0,,,,88,0
31432,note_on,110,0,2,,,,,,,,,1,,,,79,0
31432,note_on,0,0,3,,,,,,,,,2,,,,72,0
31432,note_on,110,0,3,,,,,,,,,2,,,,76,0
31432,note_on,0,0,2,,,,,,,,,1,,,,84,0
31433,note_on,110,0,6,,,,,,,,,5,,,,60,0
31437,note_on,0,0,4,,,,,,,,,3,,,,64,0
31437,note_on,110,0,4,,,,,,,,,3,,,,67,0
31440,set_tempo,60,1,0,,,,,,1121495,,,,,,,,
31440,control_change,291,0,11,,,,,,,,,10,11,59,,,
31440,note_on,0,0,11,,,,,,,,,10,,,,78,112
31442,control_change,291,0,12,,,,,,,,,11,11,59,,,
31442,note_on,0,0,12,,,,,,,,,11,,,,75,112
31445,control_change,270,0,13,,,,,,,,,12,11,59,,,
31445,note_on,0,0,13,,,,,,,,,12,,,,72,112
31447,control_change,270,0,14,,,,,,,,,13,11,59,,,
31447,note_on,0,0,14,,,,,,,,,13,,,,57,112
31449,note_on,0,0,15,,,,,,,,,14,,,,45,112
31449,control_change,270,0,15,,,,,,,,,14,11,59,,,
31454,control_change,14,0,11,,,,,,,,,10,11,62,,,
31456,control_change,14,0,12,,,,,,,,,11,11,62,,,
31459,control_change,14,0,13,,,,,,,,,12,11,62,,,
31461,control_change,14,0,14,,,,,,,,,13,11,62,,,
31463,control_change,14,0,15,,,,,,,,,14,11,62,,,
31468,control_change,14,0,11,,,,,,,,,10,11,65,,,
31470,note_on,2,0,11,,,,,,,,,10,,,,78,0
31470,control_change,14,0,12,,,,,,,,,11,11,65,,,
31472,note_on,2,0,12,,,,,,,,,11,,,,75,0
31473,control_change,14,0,13,,,,,,,,,12,11,65,,,
31475,note_on,2,0,13,,,,,,,,,12,,,,72,0
31475,control_change,14,0,14,,,,,,,,,13,11,65,,,
31477,control_change,14,0,15,,,,,,,,,14,11,65,,,
31477,note_on,2,0,14,,,,,,,,,13,,,,57,0
31479,note_on,2,0,15,,,,,,,,,14,,,,45,0
31483,control_change,13,0,11,,,,,,,,,10,11,68,,,
31485,control_change,13,0,12,,,,,,,,,11,11,68,,,
31488,control_change,13,0,13,,,,,,,,,12,11,68,,,
31490,control_change,13,0,14,,,,,,,,,13,11,68,,,
31492,control_change,13,0,15,,,,,,,,,14,11,68,,,
31497,control_change,14,0,11,,,,,,,,,10,11,71,,,
31499,control_change,14,0,12,,,,,,,,,11,11,71,,,
31500,note_on,3,0,11,,,,,,,,,10,,,,78,112
31502,control_change,14,0,13,,,,,,,,,12,11,71,,,
31502,note_on,3,0,12,,,,,,,,,11,,,,74,112
31504,control_change,14,0,14,,,,,,,,,13,11,71,,,
31505,note_on,3,0,13,,,,,,,,,12,,,,72,112
31506,control_change,14,0,15,,,,,,,,,14,11,71,,,
31507,note_on,3,0,14,,,,,,,,,13,,,,57,112
31509,note_on,3,0,15,,,,,,,,,14,,,,45,112
31526,control_change,26,0,11,,,,,,,,,10,11,76,,,
31528,control_change,26,0,12,,,,,,,,,11,11,76,,,
31530,note_on,4,0,11,,,,,,,,,10,,,,78,0
31531,control_change,26,0,13,,,,,,,,,12,11,76,,,
31532,note_on,4,0,12,,,,,,,,,11,,,,74,0
31533,control_change,26,0,14,,,,,,,,,13,11,76,,,
31535,control_change,26,0,15,,,,,,,,,14,11,76,,,
31535,note_on,4,0,13,,,,,,,,,12,,,,72,0
31537,note_on,4,0,14,,,,,,,,,13,,,,57,0
31539,note_on,4,0,15,,,,,,,,,14,,,,45,0
31540,control_change,10,0,11,,,,,,,,,10,11,79,,,
31542,control_change,10,0,12,,,,,,,,,11,11,79,,,
31545,control_change,10,0,13,,,,,,,,,12,11,79,,,
31547,control_change,10,0,14,,,,,,,,,13,11,79,,,
31549,control_change,10,0,15,,,,,,,,,14,11,79,,,
31554,control_change,14,0,11,,,,,,,,,10,11,82,,,
31556,control_change,14,0,12,,,,,,,,,11,11,82,,,
31559,control_change,14,0,13,,,,,,,,,12,11,82,,,
31560,set_tempo,120,1,0,,,,,,1142857,,,,,,,,
31560,note_on,6,0,11,,,,,,,,,10,,,,79,112
31561,control_change,14,0,14,,,,,,,,,13,11,82,,,
31562,note_on,6,0,12,,,,,,,,,11,,,,74,112
31563,control_change,14,0,15,,,,,,,,,14,11,82,,,
31565,note_on,6,0,13,,,,,,,,,12,,,,74,112
31567,note_on,6,0,14,,,,,,,,,13,,,,58,112
31569,control_change,9,0,11,,,,,,,,,10,11,85,,,
31569,note_on,6,0,15,,,,,,,,,14,,,,46,112
31571,control_change,9,0,12,,,,,,,,,11,11,85,,,
31574,control_change,9,0,13,,,,,,,,,12,11,85,,,
31576,control_change,9,0,14,,,,,,,,,13,11,85,,,
31578,control_change,9,0,15,,,,,,,,,14,11,85,,,
31590,note_on,21,0,11,,,,,,,,,10,,,,79,0
31592,note_on,21,0,12,,,,,,,,,11,,,,74,0
31595,note_on,21,0,13,,,,,,,,,12,,,,74,0
31597,note_on,21,0,14,,,,,,,,,13,,,,58,0
31597,control_change,7,0,11,,,,,,,,,10,11,90,,,
31599,note_on,21,0,15,,,,,,,,,14,,,,46,0
31599,control_change,7,0,12,,,,,,,,,11,11,90,,,
31602,control_change,7,0,13,,,,,,,,,12,11,90,,,
31604,control_change,7,0,14,,,,,,,,,13,11,90,,,
31606,control_change,7,0,15,,,,,,,,,14,11,90,,,
31612,control_change,15,0,11,,,,,,,,,10,11,93,,,
31614,control_change,15,0,12,,,,,,,,,11,11,93,,,
31617,control_change,15,0,13,,,,,,,,,12,11,93,,,
31619,control_change,15,0,14,,,,,,,,,13,11,93,,,
31620,note_on,8,0,11,,,,,,,,,10,,,,80,112
31621,control_change,15,0,15,,,,,,,,,14,11,93,,,
31622,note_on,0,0,12,,,,,,,,,11,,,,74,112
31622,note_on,8,0,12,,,,,,,,,11,,,,76,112
31625,note_on,8,0,13,,,,,,,,,12,,,,58,112
31626,control_change,6,0,11,,,,,,,,,10,11,96,,,
31627,note_on,8,0,14,,,,,,,,,13,,,,46,112
31628,control_change,6,0,12,,,,,,,,,11,11,96,,,
31629,note_on,8,0,15,,,,,,,,,14,,,,34,112
31631,control_change,6,0,13,,,,,,,,,12,11,96,,,
31633,control_change,6,0,14,,,,,,,,,13,11,96,,,
31635,control_change,6,0,15,,,,,,,,,14,11,96,,,
31640,control_change,14,0,11,,,,,,,,,10,11,99,,,
31642,control_change,14,0,12,,,,,,,,,11,11,99,,,
31645,control_change,14,0,13,,,,,,,,,12,11,99,,,
31647,control_change,14,0,14,,,,,,,,,13,11,99,,,
31649,control_change,14,0,15,,,,,,,,,14,11,99,,,
31650,note_on,10,0,11,,,,,,,,,10,,,,80,0
31652,note_on,10,0,12,,,,,,,,,11,,,,74,0
31652,note_on,0,0,12,,,,,,,,,11,,,,76,0
31655,note_on,10,0,13,,,,,,,,,12,,,,58,0
31655,control_change,5,0,11,,,,,,,,,10,11,102,,,
31657,note_on,10,0,14,,,,,,,,,13,,,,46,0
31657,control_change,5,0,12,,,,,,,,,11,11,102,,,
31659,note_on,10,0,15,,,,,,,,,14,,,,34,0
31660,control_change,5,0,13,,,,,,,,,12,11,102,,,
31662,control_change,5,0,14,,,,,,,,,13,11,102,,,
31664,control_change,5,0,15,,,,,,,,,14,11,102,,,
31669,control_change,14,0,11,,,,,,,,,10,11,105,,,
31671,control_change,14,0,12,,,,,,,,,11,11,105,,,
31674,control_change,14,0,13,,,,,,,,,12,11,105,,,
31676,control_change,14,0,14,,,,,,,,,13,11,105,,,
31678,control_change,14,0,15,,,,,,,,,14,11,105,,,
31680,note_on,0,0,11,,,,,,,,,10,,,,69,127
31680,control_change,11,0,11,,,,,,,,,10,11,97,,,
31680,set_tempo,120,1,0,,,,,,1200000,,,,,,,,
31680,note_on,0,0,11,,,,,,,,,10,,,,81,127
31681,control_change,250,0,1,,,,,,,,,0,11,87,,,
31681,note_on,0,0,1,,,,,,,,,0,,,,81,116
31681,control_change,250,0,5,,,,,,,,,4,11,97,,,
31681,note_on,0,0,5,,,,,,,,,4,,,,65,115
31681,note_on,0,0,1,,,,,,,,,0,,,,77,116
31682,control_change,11,0,12,,,,,,,,,11,11,97,,,
31682,note_on,0,0,12,,,,,,,,,11,,,,77,127
31682,note_on,0,0,7,,,,,,,,,6,,,,57,127
31682,control_change,730,0,7,,,,,,,,,6,11,97,,,
31682,control_change,250,0,3,,,,,,,,,2,11,87,,,
31682,note_on,0,0,3,,,,,,,,,2,,,,69,116
31682,note_on,0,0,3,,,,,,,,,2,,,,74,116
31682,control_change,250,0,2,,,,,,,,,1,11,87,,,
31682,note_on,0,0,2,,,,,,,,,1,,,,74,115
31682,note_on,0,0,2,,,,,,,,,1,,,,77,115
31682,note_on,0,0,12,,,,,,,,,11,,,,74,127
31682,note_on,0,0,7,,,,,,,,,6,,,,69,127
31683,note_on,0,0,6,,,,,,,,,5,,,,62,115
31683,control_change,250,0,6,,,,,,,,,5,11,97,,,
31684,control_change,730,0,8,,,,,,,,,7,11,97,,,
31684,note_on,0,0,8,,,,,,,,,7,,,,62,125
31684,note_on,0,0,8,,,,,,,,,7,,,,65,125
31685,control_change,11,0,13,,,,,,,,,12,11,97,,,
31685,note_on,0,0,13,,,,,,,,,12,,,,57,127
31686,note_on,0,0,9,,,,,,,,,8,,,,57,125
31686,control_change,270,0,9,,,,,,,,,8,11,97,,,
31687,note_on,0,0,4,,,,,,,,,3,,,,62,115
31687,note_on,0,0,14,,,,,,,,,13,,,,45,127
31687,control_change,11,0,14,,,,,,,,,13,11,97,,,
31687,control_change,250,0,4,,,,,,,,,3,11,97,,,
31687,note_on,0,0,4,,,,,,,,,3,,,,57,115
31689,control_change,11,0,15,,,,,,,,,14,11,97,,,
31689,note_on,0,0,15,,,,,,,,,14,,,,33,127
31740,set_tempo,60,1,0,,,,,,1111111,,,,,,,,
31790,note_on,110,0,11,,,,,,,,,10,,,,81,0
31790,note_on,0,0,11,,,,,,,,,10,,,,69,0
31791,note_on,110,0,1,,,,,,,,,0,,,,81,0
31791,note_on,110,0,5,,,,,,,,,4,,,,65,0
31791,note_on,0,0,1,,,,,,,,,0,,,,77,0
31792,note_on,0,0,12,,,,,,,,,11,,,,74,0
31792,note_on,0,0,3,,,,,,,,,2,,,,69,0
31792,note_on,110,0,3,,,,,,,,,2,,,,74,0
31792,note_on,0,0,7,,,,,,,,,6,,,,57,0
31792,note_on,110,0,7,,,,,,,,,6,,,,69,0
31792,note_on,0,0,2,,,,,,,,,1,,,,74,0
31792,note_on,110,0,2,,,,,,,,,1,,,,77,0
31792,note_on,110,0,12,,,,,,,,,11,,,,77,0
31793,note_on,110,0,6,,,,,,,,,5,,,,62,0
31794,note_on,110,0,8,,,,,,,,,7,,,,65,0
31794,note_on,0,0,8,,,,,,,,,7,,,,62,0
31795,note_on,110,0,13,,,,,,,,,12,,,,57,0
31796,note_on,110,0,9,,,,,,,,,8,,,,57,0
31797,note_on,110,0,4,,,,,,,,,3,,,,57,0
31797,note_on,0,0,4,,,,,,,,,3,,,,62,0
31797,note_on,110,0,14,,,,,,,,,13,,,,45,0
31799,note_on,110,0,15,,,,,,,,,14,,,,33,0
31800,note_on,10,0,11,,,,,,,,,10,,,,69,127
31800,set_tempo,60,1,0,,,,,,1188119,,,,,,,,
31800,note_on,0,0,11,,,,,,,,,10,,,,81,127
31801,note_on,10,0,5,,,,,,,,,4,,,,64,115
31801,note_on,0,0,1,,,,,,,,,0,,,,81,116
31801,note_on,10,0,1,,,,,,,,,0,,,,76,116
31802,note_on,10,0,2,,,,,,,,,1,,,,73,115
31802,note_on,0,0,12,,,,,,,,,11,,,,76,127
31802,note_on,10,0,12,,,,,,,,,11,,,,73,127
31802,note_on,10,0,7,,,,,,,,,6,,,,57,127
31802,note_on,0,0,7,,,,,,,,,6,,,,69,127
31802,note_on,10,0,3,,,,,,,,,2,,,,69,116
31802,note_on,0,0,3,,,,,,,,,2,,,,73,116
31802,note_on,0,0,2,,,,,,,,,1,,,,76,115
31803,note_on,10,0,6,,,,,,,,,5,,,,57,115
31804,note_on,10,0,8,,,,,,,,,7,,,,61,125
31804,note_on,0,0,8,,,,,,,,,7,,,,64,125
31805,note_on,10,0,13,,,,,,,,,12,,,,57,127
31806,note_on,10,0,9,,,,,,,,,8,,,,57,125
31807,note_on,0,0,4,,,,,,,,,3,,,,57,115
31807,note_on,10,0,4,,,,,,,,,3,,,,61,115
31807,note_on,10,0,14,,,,,,,,,13,,,,45,127
31809,note_on,10,0,15,,,,,,,,,14,,,,33,127
31860,set_tempo,60,1,0,,,,,,1111111,,,,,,,,
31890,set_tempo,30,1,0,,,,,,1276596,,,,,,,,
31910,note_on,0,0,11,,,,,,,,,10,,,,69,0
31910,note_on,110,0,11,,,,,,,,,10,,,,81,0
31911,note_on,110,0,1,,,,,,,,,0,,,,81,0
31911,note_on,110,0,5,,,,,,,,,4,,,,64,0
31911,note_on,0,0,1,,,,,,,,,0,,,,76,0
31912,note_on,0,0,2,,,,,,,,,1,,,,73,0
31912,note_on,0,0,12,,,,,,,,,11,,,,73,0
31912,note_on,110,0,12,,,,,,,,,11,,,,76,0
31912,note_on,110,0,3,,,,,,,,,2,,,,73,0
31912,note_on,0,0,3,,,,,,,,,2,,,,69,0
31912,note_on,110,0,7,,,,,,,,,6,,,,69,0
31912,note_on,0,0,7,,,,,,,,,6,,,,57,0
31912,note_on,110,0,2,,,,,,,,,1,,,,76,0
31913,note_on,110,0,6,,,,,,,,,5,,,,57,0
31914,note_on,0,0,8,,,,,,,,,7,,,,61,0
31914,note_on,110,0,8,,,,,,,,,7,,,,64,0
31915,note_on,110,0,13,,,,,,,,,12,,,,57,0
31916,note_on,110,0,9,,,,,,,,,8,,,,57,0
31917,note_on,0,0,4,,,,,,,,,3,,,,61,0
31917,note_on,110,0,4,,,,,,,,,3,,,,57,0
31917,note_on,110,0,14,,,,,,,,,13,,,,45,0
31919,note_on,110,0,15,,,,,,,,,14,,,,33,0
31920,set_tempo,30,1,0,,,,,,1200000,,,,,,,,
31921,note_on,0,0,5,,,,,,,,,4,,,,65,115
31921,control_change,10,0,5,,,,,,,,,4,11,100,,,
31921,control_change,10,0,1,,,,,,,,,0,11,89,,,
31921,note_on,0,0,1,,,,,,,,,0,,,,86,116
31921,note_on,0,0,1,,,,,,,,,0,,,,89,116
31922,control_change,10,0,3,,,,,,,,,2,11,89,,,
31922,control_change,10,0,2,,,,,,,,,1,11,89,,,
31922,note_on,0,0,2,,,,,,,,,1,,,,81,115
31922,note_on,0,0,2,,,,,,,,,1,,,,77,115
31922,note_on,0,0,3,,,,,,,,,2,,,,74,116
31922,note_on,0,0,3,,,,,,,,,2,,,,69,116
31923,control_change,10,0,6,,,,,,,,,5,11,100,,,
31923,note_on,0,0,6,,,,,,,,,5,,,,62,115
31926,note_on,0,0,9,,,,,,,,,8,,,,50,110
31926,control_change,10,0,9,,,,,,,,,8,11,100,,,
31927,note_on,0,0,4,,,,,,,,,3,,,,57,115
31927,control_change,10,0,4,,,,,,,,,3,11,100,,,
31939,control_change,18,0,1,,,,,,,,,0,11,88,,,
31939,control_change,18,0,5,,,,,,,,,4,11,99,,,
31940,control_change,18,0,3,,,,,,,,,2,11,88,,,
31940,control_change,18,0,2,,,,,,,,,1,11,88,,,
31941,control_change,18,0,6,,,,,,,,,5,11,99,,,
31944,control_change,18,0,9,,,,,,,,,8,11,99,,,
31945,control_change,18,0,4,,,,,,,,,3,11,99,,,
31956,note_on,12,0,9,,,,,,,,,8,,,,50,0
31957,control_change,18,0,1,,,,,,,,,0,11,88,,,
31957,control_change,18,0,5,,,,,,,,,4,11,98,,,
31958,control_change,18,0,3,,,,,,,,,2,11,88,,,
31958,control_change,18,0,2,,,,,,,,,1,11,88,,,
31959,control_change,18,0,6,,,,,,,,,5,11,98,,,
31962,control_change,6,0,9,,,,,,,,,8,11,98,,,
31963,control_change,18,0,4,,,,,,,,,3,11,98,,,
31976,control_change,19,0,5,,,,,,,,,4,11,97,,,
31976,control_change,19,0,1,,,,,,,,,0,11,87,,,
31977,control_change,19,0,2,,,,,,,,,1,11,87,,,
31977,control_change,19,0,3,,,,,,,,,2,11,87,,,
31978,control_change,19,0,6,,,,,,,,,5,11,97,,,
31980,set_tempo,60,1,0,,,,,,1111111,,,,,,,,
31981,control_change,19,0,9,,,,,,,,,8,11,97,,,
31982,control_change,19,0,4,,,,,,,,,3,11,97,,,
31986,note_on,5,0,9,,,,,,,,,8,,,,56,110
31994,control_change,18,0,5,,,,,,,,,4,11,96,,,
31994,control_change,18,0,1,,,,,,,,,0,11,86,,,
31995,control_change,18,0,2,,,,,,,,,1,11,86,,,
31995,control_change,18,0,3,,,,,,,,,2,11,86,,,
31996,control_change,18,0,6,,,,,,,,,5,11,96,,,
31999,control_change,13,0,9,,,,,,,,,8,11,96,,,
32000,control_change,18,0,4,,,,,,,,,3,11,96,,,
32012,control_change,18,0,1,,,,,,,,,0,11,85,,,
32012,control_change,18,0,5,,,,,,,,,4,11,95,,,
32013,control_change,18,0,3,,,,,,,,,2,11,85,,,
32013,control_change,18,0,2,,,,,,,,,1,11,85,,,
32014,control_change,18,0,6,,,,,,,,,5,11,95,,,
32016,note_on,17,0,9,,,,,,,,,8,,,,56,0
32017,control_change,1,0,9,,,,,,,,,8,11,95,,,
32018,control_change,18,0,4,,,,,,,,,3,11,95,,,
32031,note_on,19,0,5,,,,,,,,,4,,,,65,0
32031,control_change,0,0,1,,,,,,,,,0,11,85,,,
32031,control_change,0,0,5,,,,,,,,,4,11,94,,,
32031,note_on,19,0,1,,,,,,,,,0,,,,89,0
32031,note_on,0,0,1,,,,,,,,,0,,,,86,0
32032,note_on,0,0,3,,,,,,,,,2,,,,69,0
32032,control_change,0,0,3,,,,,,,,,2,11,85,,,
32032,control_change,0,0,2,,,,,,,,,1,11,85,,,
32032,note_on,0,0,2,,,,,,,,,1,,,,81,0
32032,note_on,19,0,2,,,,,,,,,1,,,,77,0
32032,note_on,19,0,3,,,,,,,,,2,,,,74,0
32033,control_change,0,0,6,,,,,,,,,5,11,94,,,
32033,note_on,19,0,6,,,,,,,,,5,,,,62,0
32036,control_change,19,0,9,,,,,,,,,8,11,94,,,
32037,control_change,0,0,4,,,,,,,,,3,11,94,,,
32037,note_on,19,0,4,,,,,,,,,3,,,,57,0
32040,set_tempo,60,1,0,,,,,,1188119,,,,,,,,
32041,note_on,0,0,1,,,,,,,,,0,,,,88,116
32041,note_on,10,0,1,,,,,,,,,0,,,,84,116
32041,note_on,10,0,5,,,,,,,,,4,,,,64,115
32042,note_on,0,0,2,,,,,,,,,1,,,,81,115
32042,note_on,0,0,3,,,,,,,,,2,,,,72,116
32042,note_on,10,0,2,,,,,,,,,1,,,,76,115
32042,note_on,10,0,3,,,,,,,,,2,,,,69,116
32043,note_on,10,0,6,,,,,,,,,5,,,,60,115
32046,note_on,10,0,9,,,,,,,,,8,,,,57,110
32047,note_on,10,0,4,,,,,,,,,3,,,,57,115
32049,control_change,8,0,1,,,,,,,,,0,11,84,,,
32049,control_change,8,0,5,,,,,,,,,4,11,93,,,
32050,control_change,8,0,2,,,,,,,,,1,11,84,,,
32050,control_change,8,0,3,,,,,,,,,2,11,84,,,
32051,control_change,8,0,6,,,,,,,,,5,11,93,,,
32054,control_change,8,0,9,,,,,,,,,8,11,93,,,
32055,control_change,8,0,4,,,,,,,,,3,11,93,,,
32068,control_change,19,0,5,,,,,,,,,4,11,92,,,
32068,control_change,19,0,1,,,,,,,,,0,11,83,,,
32069,control_change,19,0,2,,,,,,,,,1,11,83,,,
32069,control_change,19,0,3,,,,,,,,,2,11,83,,,
32070,control_change,19,0,6,,,,,,,,,5,11,92,,,
32073,control_change,19,0,9,,,,,,,,,8,11,92,,,
32074,control_change,19,0,4,,,,,,,,,3,11,92,,,
32076,note_on,3,0,9,,,,,,,,,8,,,,57,0
32086,control_change,18,0,1,,,,,,,,,0,11,82,,,
32086,control_change,18,0,5,,,,,,,,,4,11,91,,,
32087,control_change,18,0,2,,,,,,,,,1,11,82,,,
32087,control_change,18,0,3,,,,,,,,,2,11,82,,,
32088,control_change,18,0,6,,,,,,,,,5,11,91,,,
32091,control_change,15,0,9,,,,,,,,,8,11,91,,,
32092,control_change,18,0,4,,,,,,,,,3,11,91,,,
32100,set_tempo,60,1,0,,,,,,1111111,,,,,,,,
32104,control_change,18,0,1,,,,,,,,,0,11,81,,,
32104,control_change,18,0,5,,,,,,,,,4,11,90,,,
32105,control_change,18,0,2,,,,,,,,,1,11,81,,,
32105,control_change,18,0,3,,,,,,,,,2,11,81,,,
32106,control_change,18,0,6,,,,,,,,,5,11,90,,,
32106,note_on,15,0,9,,,,,,,,,8,,,,45,110
32109,control_change,3,0,9,,,,,,,,,8,11,90,,,
32110,control_change,18,0,4,,,,,,,,,3,11,90,,,
32123,control_change,19,0,5,,,,,,,,,4,11,89,,,
32123,control_change,19,0,1,,,,,,,,,0,11,81,,,
32124,control_change,19,0,3,,,,,,,,,2,11,81,,,
32124,control_change,19,0,2,,,,,,,,,1,11,81,,,
32125,control_change,19,0,6,,,,,,,,,5,11,89,,,
32128,control_change,19,0,9,,,,,,,,,8,11,89,,,
32129,control_change,19,0,4,,,,,,,,,3,11,89,,,
32136,note_on,8,0,9,,,,,,,,,8,,,,45,0
32141,control_change,18,0,5,,,,,,,,,4,11,88,,,
32141,control_change,18,0,1,,,,,,,,,0,11,80,,,
32142,control_change,18,0,2,,,,,,,,,1,11,80,,,
32142,control_change,18,0,3,,,,,,,,,2,11,80,,,
32143,control_change,18,0,6,,,,,,,,,5,11,88,,,
32146,control_change,10,0,9,,,,,,,,,8,11,88,,,
32147,control_change,18,0,4,,,,,,,,,3,11,88,,,
32151,note_on,10,0,5,,,,,,,,,4,,,,64,0
32151,note_on,10,0,1,,,,,,,,,0,,,,88,0
32151,note_on,0,0,1,,,,,,,,,0,,,,84,0
32152,note_on,10,0,3,,,,,,,,,2,,,,72,0
32152,note_on,0,0,3,,,,,,,,,2,,,,69,0
32152,note_on,10,0,2,,,,,,,,,1,,,,81,0
32152,note_on,0,0,2,,,,,,,,,1,,,,76,0
32153,note_on,10,0,6,,,,,,,,,5,,,,60,0
32157,note_on,10,0,4,,,,,,,,,3,,,,57,0
32160,set_tempo,60,1,0,,,,,,1200000,,,,,,,,
32160,control_change,9,0,5,,,,,,,,,4,11,87,,,
32160,note_on,0,0,11,,,,,,,,,10,,,,77,112
32160,control_change,9,0,1,,,,,,,,,0,11,79,,,
32160,note_on,250,0,11,,,,,,,,,10,,,,86,112
32161,control_change,9,0,2,,,,,,,,,1,11,79,,,
32161,control_change,9,0,3,,,,,,,,,2,11,79,,,
32162,note_on,250,0,12,,,,,,,,,11,,,,82,112
32162,control_change,9,0,6,,,,,,,,,5,11,87,,,
32162,note_on,0,0,12,,,,,,,,,11,,,,74,112
32165,control_change,19,0,9,,,,,,,,,8,11,87,,,
32165,note_on,250,0,13,,,,,,,,,12,,,,58,112
32166,control_change,9,0,4,,,,,,,,,3,11,87,,,
32167,note_on,250,0,14,,,,,,,,,13,,,,58,112
32169,note_on,250,0,15,,,,,,,,,14,,,,46,112
32195,note_on,30,0,13,,,,,,,,,12,,,,58,0
32197,note_on,30,0,14,,,,,,,,,13,,,,58,0
32199,note_on,30,0,15,,,,,,,,,14,,,,46,0
32220,set_tempo,60,1,0,,,,,,1111111,,,,,,,,
32225,note_on,30,0,13,,,,,,,,,12,,,,65,112
32227,note_on,30,0,14,,,,,,,,,13,,,,65,112
32229,note_on,69,0,11,,,,,,,,,10,,,,77,0
32229,note_on,0,0,11,,,,,,,,,10,,,,86,0
32229,note_on,30,0,15,,,,,,,,,14,,,,53,112
32230,note_on,5,0,13,,,,,,,,,12,,,,65,0
32230,note_on,0,0,13,,,,,,,,,12,,,,64,112
32231,note_on,0,0,12,,,,,,,,,11,,,,82,0
32231,note_on,69,0,12,,,,,,,,,11,,,,74,0
32235,note_on,5,0,13,,,,,,,,,12,,,,64,0
32235,note_on,0,0,13,,,,,,,,,12,,,,65,112
32237,note_on,0,0,14,,,,,,,,,13,,,,64,112
32237,note_on,10,0,14,,,,,,,,,13,,,,65,0
32239,note_on,10,0,15,,,,,,,,,14,,,,53,0
32239,note_on,0,0,15,,,,,,,,,14,,,,52,112
32240,note_on,5,0,13,,,,,,,,,12,,,,65,0
32240,note_on,0,0,13,,,,,,,,,12,,,,64,112
32245,note_on,0,0,13,,,,,,,,,12,,,,65,112
32245,note_on,5,0,13,,,,,,,,,12,,,,64,0
32247,note_on,0,0,14,,,,,,,,,13,,,,65,112
32247,note_on,10,0,14,,,,,,,,,13,,,,64,0
32249,note_on,10,0,15,,,,,,,,,14,,,,52,0
32249,note_on,0,0,15,,,,,,,,,14,,,,53,112
32250,note_on,0,0,13,,,,,,,,,12,,,,64,112
32250,note_on,5,0,13,,,,,,,,,12,,,,65,0
32255,note_on,0,0,13,,,,,,,,,12,,,,65,112
32255,note_on,5,0,13,,,,,,,,,12,,,,64,0
32257,note_on,0,0,14,,,,,,,,,13,,,,64,112
32257,note_on,10,0,14,,,,,,,,,13,,,,65,0
32259,note_on,0,0,15,,,,,,,,,14,,,,52,112
32259,note_on,10,0,15,,,,,,,,,14,,,,53,0
32260,note_on,5,0,13,,,,,,,,,12,,,,65,0
32260,note_on,0,0,13,,,,,,,,,12,,,,64,112
32265,note_on,5,0,13,,,,,,,,,12,,,,64,0
32265,note_on,0,0,13,,,,,,,,,12,,,,65,112
32267,note_on,0,0,14,,,,,,,,,13,,,,65,112
32267,note_on,10,0,14,,,,,,,,,13,,,,64,0
32269,note_on,10,0,15,,,,,,,,,14,,,,52,0
32269,note_on,0,0,15,,,,,,,,,14,,,,53,112
32270,note_on,0,0,13,,,,,,,,,12,,,,64,112
32270,note_on,5,0,13,,,,,,,,,12,,,,65,0
32275,note_on,5,0,13,,,,,,,,,12,,,,64,0
32275,note_on,0,0,13,,,,,,,,,12,,,,65,112
32277,note_on,0,0,14,,,,,,,,,13,,,,64,112
32277,note_on,10,0,14,,,,,,,,,13,,,,65,0
32279,note_on,0,0,15,,,,,,,,,14,,,,52,112
32279,note_on,10,0,15,,,,,,,,,14,,,,53,0
32280,note_on,0,0,13,,,,,,,,,12,,,,64,112
32280,note_on,51,0,11,,,,,,,,,10,,,,84,112
32280,set_tempo,60,1,0,,,,,,1188119,,,,,,,,
32280,note_on,0,0,11,,,,,,,,,10,,,,77,112
32280,note_on,5,0,13,,,,,,,,,12,,,,65,0
32282,note_on,51,0,12,,,,,,,,,11,,,,72,112
32282,note_on,0,0,12,,,,,,,,,11,,,,81,112
32285,note_on,5,0,13,,,,,,,,,12,,,,64,0
32285,note_on,0,0,13,,,,,,,,,12,,,,65,112
32287,note_on,10,0,14,,,,,,,,,13,,,,64,0
32287,note_on,0,0,14,,,,,,,,,13,,,,65,112
32289,note_on,10,0,15,,,,,,,,,14,,,,52,0
32289,note_on,0,0,15,,,,,,,,,14,,,,53,112
32315,note_on,30,0,13,,,,,,,,,12,,,,65,0
32317,note_on,30,0,14,,,,,,,,,13,,,,65,0
32319,note_on,30,0,15,,,,,,,,,14,,,,53,0
32340,set_tempo,60,1,0,,,,,,1111111,,,,,,,,
32345,note_on,30,0,13,,,,,,,,,12,,,,53,112
32347,note_on,30,0,14,,,,,,,,,13,,,,53,112
32349,note_on,0,0,11,,,,,,,,,10,,,,84,0
32349,note_on,69,0,11,,,,,,,,,10,,,,77,0
32349,note_on,30,0,15,,,,,,,,,14,,,,41,112
32351,note_on,69,0,12,,,,,,,,,11,,,,81,0
32351,note_on,0,0,12,,,,,,,,,11,,,,72,0
32375,note_on,30,0,13,,,,,,,,,12,,,,53,0
32377,note_on,30,0,14,,,,,,,,,13,,,,53,0
32379,note_on,30,0,15,,,,,,,,,14,,,,41,0
32400,set_tempo,60,1,0,,,,,,1200000,,,,,,,,
32401,note_on,0,0,1,,,,,,,,,0,,,,79,101
32401,note_on,0,0,1,,,,,,,,,0,,,,82,101
32401,control_change,241,0,1,,,,,,,,,0,11,79,,,
32402,control_change,241,0,3,,,,,,,,,2,11,79,,,
32402,note_on,0,0,2,,,,,,,,,1,,,,74,100
32402,note_on,0,0,2,,,,,,,,,1,,,,70,100
32402,control_change,241,0,2,,,,,,,,,1,11,79,,,
32402,note_on,0,0,3,,,,,,,,,2,,,,67,101
32402,note_on,0,0,3,,,,,,,,,2,,,,70,101
32406,note_on,0,0,9,,,,,,,,,8,,,,55,110
32406,control_change,241,0,9,,,,,,,,,8,11,87,,,
32407,note_on,0,0,4,,,,,,,,,3,,,,62,100
32407,note_on,0,0,4,,,,,,,,,3,,,,67,100
32407,control_change,241,0,4,,,,,,,,,3,11,87,,,
32418,control_change,17,0,1,,,,,,,,,0,11,78,,,
32419,control_change,17,0,2,,,,,,,,,1,11,78,,,
32419,control_change,17,0,3,,,,,,,,,2,11,78,,,
32423,control_change,17,0,9,,,,,,,,,8,11,85,,,
32424,control_change,17,0,4,,,,,,,,,3,11,85,,,
32436,control_change,18,0,1,,,,,,,,,0,11,76,,,
32437,control_change,18,0,2,,,,,,,,,1,11,76,,,
32437,control_change,18,0,3,,,,,,,,,2,11,76,,,
32441,control_change,18,0,9,,,,,,,,,8,11,83,,,
32442,control_change,18,0,4,,,,,,,,,3,11,83,,,
32451,note_on,10,0,9,,,,,,,,,8,,,,55,0
32454,control_change,18,0,1,,,,,,,,,0,11,75,,,
32455,control_change,18,0,2,,,,,,,,,1,11,75,,,
32455,control_change,18,0,3,,,,,,,,,2,11,75,,,
32459,control_change,8,0,9,,,,,,,,,8,11,81,,,
32460,set_tempo,60,1,0,,,,,,1111111,,,,,,,,
32460,control_change,18,0,4,,,,,,,,,3,11,81,,,
32466,note_on,7,0,9,,,,,,,,,8,,,,61,110
32471,control_change,17,0,1,,,,,,,,,0,11,73,,,
32472,control_change,17,0,3,,,,,,,,,2,11,73,,,
32472,control_change,17,0,2,,,,,,,,,1,11,73,,,
32476,control_change,10,0,9,,,,,,,,,8,11,79,,,
32477,control_change,17,0,4,,,,,,,,,3,11,79,,,
32489,control_change,18,0,1,,,,,,,,,0,11,72,,,
32490,control_change,18,0,3,,,,,,,,,2,11,72,,,
32490,control_change,18,0,2,,,,,,,,,1,11,72,,,
32494,control_change,18,0,9,,,,,,,,,8,11,77,,,
32495,control_change,18,0,4,,,,,,,,,3,11,77,,,
32507,control_change,18,0,1,,,,,,,,,0,11,70,,,
32508,control_change,18,0,2,,,,,,,,,1,11,70,,,
32508,control_change,18,0,3,,,,,,,,,2,11,70,,,
32511,note_on,0,0,1,,,,,,,,,0,,,,82,0
32511,note_on,4,0,1,,,,,,,,,0,,,,79,0
32511,note_on,17,0,9,,,,,,,,,8,,,,61,0
32512,note_on,0,0,2,,,,,,,,,1,,,,70,0
32512,control_change,1,0,9,,,,,,,,,8,11,75,,,
32512,note_on,0,0,3,,,,,,,,,2,,,,67,0
32512,note_on,4,0,3,,,,,,,,,2,,,,70,0
32512,note_on,4,0,2,,,,,,,,,1,,,,74,0
32513,control_change,18,0,4,,,,,,,,,3,11,75,,,
32517,note_on,0,0,4,,,,,,,,,3,,,,67,0
32517,note_on,4,0,4,,,,,,,,,3,,,,62,0
32520,set_tempo,60,1,0,,,,,,1188119,,,,,,,,
32521,note_on,0,0,1,,,,,,,,,0,,,,81,101
32521,note_on,10,0,1,,,,,,,,,0,,,,77,101
32522,note_on,0,0,2,,,,,,,,,1,,,,74,100
32522,note_on,10,0,2,,,,,,,,,1,,,,69,100
32522,note_on,0,0,3,,,,,,,,,2,,,,69,101
32522,note_on,10,0,3,,,,,,,,,2,,,,65,101
32524,control_change,3,0,1,,,,,,,,,0,11,69,,,
32525,control_change,3,0,2,,,,,,,,,1,11,69,,,
32525,control_change,3,0,3,,,,,,,,,2,11,69,,,
32526,note_on,14,0,9,,,,,,,,,8,,,,62,110
32527,note_on,0,0,4,,,,,,,,,3,,,,65,100
32527,note_on,10,0,4,,,,,,,,,3,,,,62,100
32529,control_change,3,0,9,,,,,,,,,8,11,73,,,
32530,control_change,3,0,4,,,,,,,,,3,11,73,,,
32542,control_change,18,0,1,,,,,,,,,0,11,67,,,
32543,control_change,18,0,2,,,,,,,,,1,11,67,,,
32543,control_change,18,0,3,,,,,,,,,2,11,67,,,
32547,control_change,18,0,9,,,,,,,,,8,11,71,,,
32548,control_change,18,0,4,,,,,,,,,3,11,71,,,
32560,control_change,18,0,1,,,,,,,,,0,11,66,,,
32561,control_change,18,0,3,,,,,,,,,2,11,66,,,
32561,control_change,18,0,2,,,,,,,,,1,11,66,,,
32565,control_change,18,0,9,,,,,,,,,8,11,69,,,
32566,control_change,18,0,4,,,,,,,,,3,11,69,,,
32571,note_on,6,0,9,,,,,,,,,8,,,,62,0
32578,control_change,18,0,1,,,,,,,,,0,11,64,,,
32579,control_change,18,0,2,,,,,,,,,1,11,64,,,
32579,control_change,18,0,3,,,,,,,,,2,11,64,,,
32580,set_tempo,60,1,0,,,,,,1111111,,,,,,,,
32583,control_change,12,0,9,,,,,,,,,8,11,67,,,
32584,control_change,18,0,4,,,,,,,,,3,11,67,,,
32586,note_on,3,0,9,,,,,,,,,8,,,,50,110
32595,control_change,17,0,1,,,,,,,,,0,11,63,,,
32596,control_change,17,0,3,,,,,,,,,2,11,63,,,
32596,control_change,17,0,2,,,,,,,,,1,11,63,,,
32600,control_change,14,0,9,,,,,,,,,8,11,65,,,
32601,control_change,17,0,4,,,,,,,,,3,11,65,,,
32613,control_change,18,0,1,,,,,,,,,0,11,61,,,
32614,control_change,18,0,2,,,,,,,,,1,11,61,,,
32614,control_change,18,0,3,,,,,,,,,2,11,61,,,
32618,control_change,18,0,9,,,,,,,,,8,11,63,,,
32619,control_change,18,0,4,,,,,,,,,3,11,63,,,
32631,note_on,13,0,9,,,,,,,,,8,,,,50,0
32631,note_on,18,0,1,,,,,,,,,0,,,,81,0
32631,note_on,0,0,1,,,,,,,,,0,,,,77,0
32631,control_change,0,0,1,,,,,,,,,0,11,60,,,
32632,note_on,0,0,2,,,,,,,,,1,,,,69,0
32632,control_change,0,0,2,,,,,,,,,1,11,60,,,
32632,note_on,18,0,3,,,,,,,,,2,,,,69,0
32632,note_on,0,0,3,,,,,,,,,2,,,,65,0
32632,control_change,0,0,3,,,,,,,,,2,11,60,,,
32632,note_on,18,0,2,,,,,,,,,1,,,,74,0
32636,control_change,5,0,9,,,,,,,,,8,11,61,,,
32637,note_on,18,0,4,,,,,,,,,3,,,,65,0
32637,control_change,0,0,4,,,,,,,,,3,11,61,,,
32637,note_on,0,0,4,,,,,,,,,3,,,,62,0
32640,note_on,0,0,11,,,,,,,,,10,,,,79,112
32640,note_on,0,0,11,,,,,,,,,10,,,,70,112
32640,control_change,291,0,11,,,,,,,,,10,11,51,,,
32640,set_tempo,60,1,0,,,,,,1200000,,,,,,,,
32642,control_change,291,0,12,,,,,,,,,11,11,51,,,
32642,note_on,0,0,12,,,,,,,,,11,,,,74,112
32642,note_on,0,0,12,,,,,,,,,11,,,,67,112
32644,control_change,4,0,11,,,,,,,,,10,11,54,,,
32645,control_change,270,0,13,,,,,,,,,12,11,51,,,
32645,note_on,0,0,13,,,,,,,,,12,,,,55,112
32646,control_change,4,0,12,,,,,,,,,11,11,54,,,
32647,note_on,0,0,14,,,,,,,,,13,,,,43,112
32647,control_change,270,0,14,,,,,,,,,13,11,51,,,
32649,control_change,4,0,13,,,,,,,,,12,11,54,,,
32649,note_on,0,0,15,,,,,,,,,14,,,,31,112
32649,control_change,270,0,15,,,,,,,,,14,11,51,,,
32649,control_change,5,0,11,,,,,,,,,10,11,57,,,
32651,control_change,5,0,12,,,,,,,,,11,11,57,,,
32651,control_change,4,0,14,,,,,,,,,13,11,54,,,
32653,control_change,4,0,15,,,,,,,,,14,11,54,,,
32654,control_change,5,0,13,,,,,,,,,12,11,57,,,
32656,control_change,5,0,14,,,,,,,,,13,11,57,,,
32658,control_change,5,0,15,,,,,,,,,14,11,57,,,
32658,control_change,9,0,11,,,,,,,,,10,11,62,,,
32660,control_change,9,0,12,,,,,,,,,11,11,62,,,
32662,control_change,4,0,11,,,,,,,,,10,11,65,,,
32663,control_change,9,0,13,,,,,,,,,12,11,62,,,
32664,control_change,4,0,12,,,,,,,,,11,11,65,,,
32665,control_change,9,0,14,,,,,,,,,13,11,62,,,
32667,control_change,9,0,15,,,,,,,,,14,11,62,,,
32667,control_change,4,0,13,,,,,,,,,12,11,65,,,
32667,control_change,5,0,11,,,,,,,,,10,11,68,,,
32669,control_change,5,0,12,,,,,,,,,11,11,68,,,
32669,control_change,4,0,14,,,,,,,,,13,11,65,,,
32671,control_change,4,0,15,,,,,,,,,14,11,65,,,
32672,control_change,5,0,13,,,,,,,,,12,11,68,,,
32674,control_change,5,0,14,,,,,,,,,13,11,68,,,
32676,control_change,5,0,15,,,,,,,,,14,11,68,,,
32687,control_change,20,0,11,,,,,,,,,10,11,69,,,
32689,control_change,20,0,12,,,,,,,,,11,11,69,,,
32690,note_on,18,0,13,,,,,,,,,12,,,,55,0
32692,control_change,2,0,13,,,,,,,,,12,11,69,,,
32692,note_on,18,0,14,,,,,,,,,13,,,,43,0
32694,control_change,2,0,14,,,,,,,,,13,11,69,,,
32694,note_on,18,0,15,,,,,,,,,14,,,,31,0
32696,control_change,2,0,15,,,,,,,,,14,11,69,,,
32700,set_tempo,60,1,0,,,,,,1111111,,,,,,,,
32705,note_on,13,0,13,,,,,,,,,12,,,,62,112
32706,control_change,19,0,11,,,,,,,,,10,11,67,,,
32707,note_on,13,0,14,,,,,,,,,13,,,,50,112
32708,control_change,19,0,12,,,,,,,,,11,11,67,,,
32709,note_on,13,0,15,,,,,,,,,14,,,,38,112
32710,note_on,0,0,13,,,,,,,,,12,,,,61,112
32710,note_on,5,0,13,,,,,,,,,12,,,,62,0
32711,control_change,1,0,13,,,,,,,,,12,11,67,,,
32713,control_change,6,0,14,,,,,,,,,13,11,67,,,
32715,control_change,6,0,15,,,,,,,,,14,11,67,,,
32715,note_on,4,0,13,,,,,,,,,12,,,,61,0
32715,note_on,0,0,13,,,,,,,,,12,,,,62,112
32716,note_on,10,0,11,,,,,,,,,10,,,,79,0
32716,note_on,0,0,11,,,,,,,,,10,,,,70,0
32717,note_on,4,0,14,,,,,,,,,13,,,,50,0
32717,note_on,0,0,14,,,,,,,,,13,,,,49,112
32718,note_on,10,0,12,,,,,,,,,11,,,,67,0
32718,note_on,0,0,12,,,,,,,,,11,,,,74,0
32719,note_on,4,0,15,,,,,,,,,14,,,,38,0
32719,note_on,0,0,15,,,,,,,,,14,,,,37,112
32720,note_on,0,0,13,,,,,,,,,12,,,,61,112
32720,note_on,5,0,13,,,,,,,,,12,,,,62,0
32725,note_on,0,0,13,,,,,,,,,12,,,,62,112
32725,note_on,5,0,13,,,,,,,,,12,,,,61,0
32725,control_change,9,0,11,,,,,,,,,10,11,65,,,
32727,note_on,10,0,14,,,,,,,,,13,,,,49,0
32727,note_on,0,0,14,,,,,,,,,13,,,,50,112
32727,control_change,9,0,12,,,,,,,,,11,11,65,,,
32729,note_on,10,0,15,,,,,,,,,14,,,,37,0
32729,note_on,0,0,15,,,,,,,,,14,,,,38,112
32730,note_on,0,0,13,,,,,,,,,12,,,,61,112
32730,control_change,0,0,13,,,,,,,,,12,11,65,,,
32730,note_on,5,0,13,,,,,,,,,12,,,,62,0
32732,control_change,5,0,14,,,,,,,,,13,11,65,,,
32734,control_change,5,0,15,,,,,,,,,14,11,65,,,
32735,note_on,5,0,13,,,,,,,,,12,,,,61,0
32735,note_on,0,0,13,,,,,,,,,12,,,,62,112
32737,note_on,5,0,14,,,,,,,,,13,,,,50,0
32737,note_on,0,0,14,,,,,,,,,13,,,,49,112
32739,note_on,5,0,15,,,,,,,,,14,,,,38,0
32739,note_on,0,0,15,,,,,,,,,14,,,,37,112
32740,note_on,0,0,13,,,,,,,,,12,,,,61,112
32740,note_on,5,0,13,,,,,,,,,12,,,,62,0
32744,control_change,19,0,11,,,,,,,,,10,11,63,,,
32745,note_on,0,0,13,,,,,,,,,12,,,,62,112
32745,note_on,5,0,13,,,,,,,,,12,,,,61,0
32746,control_change,19,0,12,,,,,,,,,11,11,63,,,
32747,note_on,0,0,14,,,,,,,,,13,,,,50,112
32747,note_on,10,0,14,,,,,,,,,13,,,,49,0
32749,note_on,0,0,15,,,,,,,,,14,,,,38,112
32749,note_on,10,0,15,,,,,,,,,14,,,,37,0
32749,control_change,4,0,13,,,,,,,,,12,11,63,,,
32750,note_on,0,0,13,,,,,,,,,12,,,,61,112
32750,note_on,1,0,13,,,,,,,,,12,,,,62,0
32751,control_change,4,0,14,,,,,,,,,13,11,63,,,
32753,control_change,4,0,15,,,,,,,,,14,11,63,,,
32755,note_on,0,0,13,,,,,,,,,12,,,,62,112
32755,note_on,5,0,13,,,,,,,,,12,,,,61,0
32757,note_on,0,0,14,,,,,,,,,13,,,,49,112
32757,note_on,6,0,14,,,,,,,,,13,,,,50,0
32759,note_on,0,0,15,,,,,,,,,14,,,,37,112
32759,note_on,6,0,15,,,,,,,,,14,,,,38,0
32760,set_tempo,60,1,0,,,,,,1188119,,,,,,,,
32760,note_on,5,0,13,,,,,,,,,12,,,,62,0
32760,note_on,0,0,13,,,,,,,,,12,,,,61,112
32760,note_on,0,0,11,,,,,,,,,10,,,,77,112
32760,note_on,16,0,11,,,,,,,,,10,,,,69,112
32762,note_on,16,0,12,,,,,,,,,11,,,,74,112
32762,note_on,0,0,12,,,,,,,,,11,,,,65,112
32764,control_change,4,0,11,,,,,,,,,10,11,61,,,
32765,note_on,5,0,13,,,,,,,,,12,,,,61,0
32765,note_on,0,0,13,,,,,,,,,12,,,,62,112
32766,control_change,4,0,12,,,,,,,,,11,11,61,,,
32767,note_on,10,0,14,,,,,,,,,13,,,,49,0
32767,note_on,0,0,14,,,,,,,,,13,,,,50,112
32769,note_on,0,0,15,,,,,,,,,14,,,,38,112
32769,note_on,10,0,15,,,,,,,,,14,,,,37,0
32769,control_change,4,0,13,,,,,,,,,12,11,61,,,
32771,control_change,4,0,14,,,,,,,,,13,11,61,,,
32773,control_change,4,0,15,,,,,,,,,14,11,61,,,
32783,control_change,19,0,11,,,,,,,,,10,11,59,,,
32785,control_change,19,0,12,,,,,,,,,11,11,59,,,
32788,control_change,19,0,13,,,,,,,,,12,11,59,,,
32790,control_change,19,0,14,,,,,,,,,13,11,59,,,
32792,control_change,19,0,15,,,,,,,,,14,11,59,,,
32802,control_change,19,0,11,,,,,,,,,10,11,57,,,
32804,control_change,19,0,12,,,,,,,,,11,11,57,,,
32807,control_change,19,0,13,,,,,,,,,12,11,57,,,
32809,control_change,19,0,14,,,,,,,,,13,11,57,,,
32810,note_on,3,0,13,,,,,,,,,12,,,,62,0
32811,control_change,19,0,15,,,,,,,,,14,11,57,,,
32812,note_on,3,0,14,,,,,,,,,13,,,,50,0
32814,note_on,3,0,15,,,,,,,,,14,,,,38,0
32820,set_tempo,60,1,0,,,,,,1111111,,,,,,,,
32821,control_change,19,0,11,,,,,,,,,10,11,56,,,
32823,control_change,19,0,12,,,,,,,,,11,11,56,,,
32825,note_on,15,0,13,,,,,,,,,12,,,,50,112
32826,control_change,1,0,13,,,,,,,,,12,11,56,,,
32827,note_on,15,0,14,,,,,,,,,13,,,,53,112
32828,control_change,1,0,14,,,,,,,,,13,11,56,,,
32829,note_on,15,0,15,,,,,,,,,14,,,,41,112
32830,control_change,1,0,15,,,,,,,,,14,11,56,,,
32836,note_on,0,0,11,,,,,,,,,10,,,,69,0
32836,note_on,15,0,11,,,,,,,,,10,,,,77,0
32838,note_on,0,0,12,,,,,,,,,11,,,,74,0
32838,note_on,15,0,12,,,,,,,,,11,,,,65,0
32840,control_change,4,0,11,,,,,,,,,10,11,54,,,
32842,control_change,4,0,12,,,,,,,,,11,11,54,,,
32845,control_change,19,0,13,,,,,,,,,12,11,54,,,
32847,control_change,19,0,14,,,,,,,,,13,11,54,,,
32849,control_change,19,0,15,,,,,,,,,14,11,54,,,
32859,control_change,19,0,11,,,,,,,,,10,11,52,,,
32861,control_change,19,0,12,,,,,,,,,11,11,52,,,
32864,control_change,19,0,13,,,,,,,,,12,11,52,,,
32866,control_change,19,0,14,,,,,,,,,13,11,52,,,
32868,control_change,19,0,15,,,,,,,,,14,11,52,,,
32870,note_on,6,0,13,,,,,,,,,12,,,,50,0
32872,note_on,6,0,14,,,,,,,,,13,,,,53,0
32874,note_on,6,0,15,,,,,,,,,14,,,,41,0
32879,control_change,20,0,11,,,,,,,,,10,11,50,,,
32880,set_tempo,60,1,0,,,,,,1237113,,,,,,,,
32880,note_on,0,0,11,,,,,,,,,10,,,,69,112
32880,control_change,1,0,11,,,,,,,,,10,11,41,,,
32881,control_change,20,0,12,,,,,,,,,11,11,50,,,
32882,control_change,1,0,12,,,,,,,,,11,11,41,,,
32882,note_on,0,0,3,,,,,,,,,2,,,,76,101
32882,control_change,250,0,3,,,,,,,,,2,11,47,,,
32882,note_on,0,0,12,,,,,,,,,11,,,,67,112
32884,control_change,14,0,13,,,,,,,,,12,11,50,,,
32885,note_on,0,0,13,,,,,,,,,12,,,,57,112
32885,control_change,1,0,13,,,,,,,,,12,11,41,,,
32886,control_change,14,0,14,,,,,,,,,13,11,50,,,
32887,control_change,250,0,4,,,,,,,,,3,11,47,,,
32887,note_on,0,0,4,,,,,,,,,3,,,,64,100
32887,note_on,0,0,14,,,,,,,,,13,,,,49,112
32887,control_change,1,0,14,,,,,,,,,13,11,41,,,
32888,control_change,14,0,15,,,,,,,,,14,11,50,,,
32888,control_change,6,0,3,,,,,,,,,2,11,50,,,
32889,control_change,1,0,15,,,,,,,,,14,11,41,,,
32889,note_on,0,0,15,,,,,,,,,14,,,,37,112
32893,control_change,6,0,4,,,,,,,,,3,11,50,,,
32894,control_change,6,0,3,,,,,,,,,2,11,53,,,
32899,control_change,6,0,4,,,,,,,,,3,11,53,,,
32900,control_change,6,0,3,,,,,,,,,2,11,56,,,
32905,control_change,6,0,4,,,,,,,,,3,11,56,,,
32910,note_on,30,0,11,,,,,,,,,10,,,,69,0
32910,note_on,0,0,11,,,,,,,,,10,,,,69,112
32911,control_change,6,0,4,,,,,,,,,3,11,59,,,
32912,note_on,0,0,12,,,,,,,,,11,,,,67,112
32912,note_on,30,0,12,,,,,,,,,11,,,,67,0
32912,control_change,12,0,3,,,,,,,,,2,11,60,,,
32917,note_on,30,0,14,,,,,,,,,13,,,,49,0
32917,control_change,6,0,4,,,,,,,,,3,11,62,,,
32919,note_on,30,0,15,,,,,,,,,14,,,,37,0
32940,set_tempo,60,1,0,,,,,,1165049,,,,,,,,
32945,note_on,60,0,13,,,,,,,,,12,,,,57,0
32947,note_on,30,0,14,,,,,,,,,13,,,,57,112
32957,note_on,10,0,14,,,,,,,,,13,,,,57,0
32957,note_on,0,0,14,,,,,,,,,13,,,,56,112
32965,note_on,55,0,11,,,,,,,,,10,,,,69,0
32967,note_on,55,0,12,,,,,,,,,11,,,,67,0
32967,note_on,10,0,14,,,,,,,,,13,,,,56,0
32967,note_on,0,0,14,,,,,,,,,13,,,,57,112
32970,note_on,5,0,11,,,,,,,,,10,,,,69,112
32972,note_on,5,0,12,,,,,,,,,11,,,,67,112
32977,note_on,0,0,14,,,,,,,,,13,,,,56,112
32977,note_on,10,0,14,,,,,,,,,13,,,,57,0
32987,note_on,10,0,14,,,,,,,,,13,,,,56,0
32987,note_on,0,0,14,,,,,,,,,13,,,,57,112
32997,note_on,10,0,14,,,,,,,,,13,,,,57,0
32997,note_on,0,0,14,,,,,,,,,13,,,,56,112
33000,set_tempo,60,1,0,,,,,,1188119,,,,,,,,
33002,note_on,0,0,3,,,,,,,,,2,,,,69,101
33002,note_on,90,0,3,,,,,,,,,2,,,,76,0
33007,note_on,10,0,14,,,,,,,,,13,,,,57,112
33007,note_on,90,0,4,,,,,,,,,3,,,,64,0
33007,note_on,0,0,4,,,,,,,,,3,,,,57,100
33008,note_on,1,0,14,,,,,,,,,13,,,,56,0
33025,note_on,55,0,11,,,,,,,,,10,,,,69,0
33027,note_on,55,0,12,,,,,,,,,11,,,,67,0
33030,note_on,5,0,11,,,,,,,,,10,,,,69,112
33032,note_on,5,0,12,,,,,,,,,11,,,,67,112
33032,note_on,30,0,3,,,,,,,,,2,,,,69,0
33032,note_on,0,0,3,,,,,,,,,2,,,,76,101
33037,note_on,29,0,14,,,,,,,,,13,,,,57,0
33037,note_on,30,0,4,,,,,,,,,3,,,,57,0
33037,note_on,0,0,4,,,,,,,,,3,,,,64,100
33060,set_tempo,60,1,0,,,,,,1111111,,,,,,,,
33062,note_on,30,0,3,,,,,,,,,2,,,,76,0
33062,note_on,0,0,3,,,,,,,,,2,,,,77,101
33065,note_on,120,0,13,,,,,,,,,12,,,,57,112
33067,note_on,0,0,4,,,,,,,,,3,,,,65,100
33067,note_on,30,0,14,,,,,,,,,13,,,,49,112
33067,note_on,30,0,4,,,,,,,,,3,,,,64,0
33069,note_on,150,0,15,,,,,,,,,14,,,,37,112
33085,note_on,55,0,11,,,,,,,,,10,,,,69,0
33087,note_on,55,0,12,,,,,,,,,11,,,,67,0
33090,note_on,5,0,11,,,,,,,,,10,,,,69,112
33092,note_on,5,0,12,,,,,,,,,11,,,,67,112
33092,note_on,30,0,3,,,,,,,,,2,,,,77,0
33092,note_on,0,0,3,,,,,,,,,2,,,,76,101
33097,note_on,30,0,4,,,,,,,,,3,,,,65,0
33097,note_on,30,0,14,,,,,,,,,13,,,,49,0
33097,note_on,0,0,4,,,,,,,,,3,,,,64,100
33099,note_on,30,0,15,,,,,,,,,14,,,,37,0
33105,note_on,40,0,13,,,,,,,,,12,,,,57,0
33110,note_on,5,0,13,,,,,,,,,12,,,,57,112
33117,note_on,25,0,3,,,,,,,,,2,,,,76,0
33120,set_tempo,60,1,0,,,,,,1200000,,,,,,,,
33120,note_on,10,0,13,,,,,,,,,12,,,,57,0
33122,note_on,25,0,4,,,,,,,,,3,,,,64,0
33122,note_on,30,0,12,,,,,,,,,11,,,,67,0
33122,note_on,5,0,3,,,,,,,,,2,,,,76,101
33122,note_on,0,0,12,,,,,,,,,11,,,,65,112
33125,note_on,5,0,13,,,,,,,,,12,,,,57,112
33127,note_on,30,0,14,,,,,,,,,13,,,,50,112
33127,note_on,5,0,4,,,,,,,,,3,,,,64,100
33129,note_on,30,0,15,,,,,,,,,14,,,,38,112
33145,note_on,55,0,11,,,,,,,,,10,,,,69,0
33150,note_on,5,0,11,,,,,,,,,10,,,,69,112
33152,note_on,30,0,12,,,,,,,,,11,,,,65,0
33152,note_on,0,0,12,,,,,,,,,11,,,,65,112
33152,note_on,0,0,3,,,,,,,,,2,,,,74,101
33152,note_on,30,0,3,,,,,,,,,2,,,,76,0
33157,note_on,30,0,14,,,,,,,,,13,,,,50,0
33157,note_on,30,0,4,,,,,,,,,3,,,,64,0
33157,note_on,0,0,4,,,,,,,,,3,,,,62,100
33159,note_on,30,0,15,,,,,,,,,14,,,,38,0
33180,set_tempo,60,1,0,,,,,,1111111,,,,,,,,
33182,note_on,30,0,3,,,,,,,,,2,,,,74,0
33182,note_on,0,0,3,,,,,,,,,2,,,,73,101
33185,note_on,60,0,13,,,,,,,,,12,,,,57,0
33187,note_on,30,0,14,,,,,,,,,13,,,,57,112
33187,note_on,30,0,4,,,,,,,,,3,,,,62,0
33187,note_on,0,0,4,,,,,,,,,3,,,,61,100
33197,note_on,10,0,14,,,,,,,,,13,,,,57,0
33197,note_on,0,0,14,,,,,,,,,13,,,,56,112
33205,note_on,55,0,11,,,,,,,,,10,,,,69,0
33207,note_on,55,0,12,,,,,,,,,11,,,,65,0
33207,note_on,10,0,14,,,,,,,,,13,,,,56,0
33207,note_on,0,0,14,,,,,,,,,13,,,,57,112
33210,note_on,5,0,11,,,,,,,,,10,,,,69,112
33212,note_on,0,0,3,,,,,,,,,2,,,,74,101
33212,note_on,30,0,3,,,,,,,,,2,,,,73,0
33212,note_on,5,0,12,,,,,,,,,11,,,,65,112
33217,note_on,10,0,14,,,,,,,,,13,,,,57,0
33217,note_on,0,0,14,,,,,,,,,13,,,,56,112
33217,note_on,0,0,4,,,,,,,,,3,,,,62,100
33217,note_on,30,0,4,,,,,,,,,3,,,,61,0
33227,note_on,0,0,14,,,,,,,,,13,,,,57,112
33227,note_on,10,0,14,,,,,,,,,13,,,,56,0
33237,note_on,0,0,14,,,,,,,,,13,,,,56,112
33237,note_on,10,0,14,,,,,,,,,13,,,,57,0
33237,note_on,25,0,3,,,,,,,,,2,,,,74,0
33240,set_tempo,60,1,0,,,,,,1188119,,,,,,,,
33242,note_on,5,0,3,,,,,,,,,2,,,,69,101
33242,note_on,25,0,4,,,,,,,,,3,,,,62,0
33247,note_on,10,0,14,,,,,,,,,13,,,,57,112
33247,note_on,5,0,4,,,,,,,,,3,,,,57,100
33248,note_on,1,0,14,,,,,,,,,13,,,,56,0
33265,note_on,55,0,11,,,,,,,,,10,,,,69,0
33267,note_on,55,0,12,,,,,,,,,11,,,,65,0
33270,note_on,5,0,11,,,,,,,,,10,,,,69,112
33272,note_on,5,0,12,,,,,,,,,11,,,,65,112
33277,note_on,29,0,14,,,,,,,,,13,,,,57,0
33300,set_tempo,60,1,0,,,,,,1111111,,,,,,,,
33302,note_on,60,0,3,,,,,,,,,2,,,,69,0
33302,note_on,0,0,2,,,,,,,,,1,,,,74,100
33302,control_change,670,0,2,,,,,,,,,1,11,60,,,
33305,note_on,120,0,13,,,,,,,,,12,,,,57,112
33307,note_on,30,0,14,,,,,,,,,13,,,,50,112
33307,note_on,60,0,4,,,,,,,,,3,,,,57,0
33309,note_on,150,0,15,,,,,,,,,14,,,,38,112
33325,note_on,55,0,11,,,,,,,,,10,,,,69,0
33327,note_on,55,0,12,,,,,,,,,11,,,,65,0
33330,note_on,5,0,11,,,,,,,,,10,,,,69,112
33332,note_on,5,0,12,,,,,,,,,11,,,,65,112
33337,note_on,30,0,14,,,,,,,,,13,,,,50,0
33339,note_on,30,0,15,,,,,,,,,14,,,,38,0
33345,note_on,40,0,13,,,,,,,,,12,,,,57,0
33350,note_on,5,0,13,,,,,,,,,12,,,,57,112
33360,note_on,10,0,13,,,,,,,,,12,,,,57,0
33360,set_tempo,60,1,0,,,,,,1188119,,,,,,,,
33362,note_on,60,0,2,,,,,,,,,1,,,,74,0
33362,note_on,0,0,2,,,,,,,,,1,,,,76,100
33362,note_on,30,0,12,,,,,,,,,11,,,,65,0
33362,note_on,0,0,12,,,,,,,,,11,,,,67,112
33365,note_on,5,0,13,,,,,,,,,12,,,,57,112
33367,note_on,30,0,14,,,,,,,,,13,,,,49,112
33369,note_on,30,0,15,,,,,,,,,14,,,,37,112
33385,note_on,55,0,11,,,,,,,,,10,,,,69,0
33390,note_on,5,0,11,,,,,,,,,10,,,,69,112
33392,note_on,0,0,12,,,,,,,,,11,,,,67,112
33392,note_on,30,0,12,,,,,,,,,11,,,,67,0
33397,note_on,30,0,14,,,,,,,,,13,,,,49,0
33399,note_on,30,0,15,,,,,,,,,14,,,,37,0
33420,set_tempo,60,1,0,,,,,,1111111,,,,,,,,
33425,note_on,60,0,13,,,,,,,,,12,,,,57,0
33427,note_on,30,0,14,,,,,,,,,13,,,,57,112
33437,note_on,0,0,14,,,,,,,,,13,,,,56,112
33437,note_on,10,0,14,,,,,,,,,13,,,,57,0
33445,note_on,55,0,11,,,,,,,,,10,,,,69,0
33447,note_on,10,0,14,,,,,,,,,13,,,,56,0
33447,note_on,0,0,14,,,,,,,,,13,,,,57,112
33447,note_on,55,0,12,,,,,,,,,11,,,,67,0
33450,note_on,5,0,11,,,,,,,,,10,,,,69,112
33452,note_on,5,0,12,,,,,,,,,11,,,,67,112
33457,note_on,10,0,14,,,,,,,,,13,,,,57,0
33457,note_on,0,0,14,,,,,,,,,13,,,,56,112
33467,note_on,10,0,14,,,,,,,,,13,,,,56,0
33467,note_on,0,0,14,,,,,,,,,13,,,,57,112
33477,note_on,0,0,14,,,,,,,,,13,,,,56,112
33477,note_on,10,0,14,,,,,,,,,13,,,,57,0
33480,set_tempo,60,1,0,,,,,,1188119,,,,,,,,
33482,note_on,0,0,2,,,,,,,,,1,,,,69,100
33482,note_on,120,0,2,,,,,,,,,1,,,,76,0
33487,note_on,10,0,14,,,,,,,,,13,,,,57,112
33488,note_on,1,0,14,,,,,,,,,13,,,,56,0
33505,note_on,55,0,11,,,,,,,,,10,,,,69,0
33507,note_on,55,0,12,,,,,,,,,11,,,,67,0
33510,note_on,5,0,11,,,,,,,,,10,,,,69,112
33512,note_on,5,0,12,,,,,,,,,11,,,,67,112
33512,note_on,30,0,2,,,,,,,,,1,,,,69,0
33512,note_on,0,0,2,,,,,,,,,1,,,,76,100
33517,note_on,29,0,14,,,,,,,,,13,,,,57,0
33540,set_tempo,60,1,0,,,,,,1111111,,,,,,,,
33542,note_on,30,0,2,,,,,,,,,1,,,,76,0
33542,note_on,0,0,2,,,,,,,,,1,,,,77,100
33545,note_on,120,0,13,,,,,,,,,12,,,,57,112
33547,note_on,30,0,14,,,,,,,,,13,,,,49,112
33549,note_on,150,0,15,,,,,,,,,14,,,,37,112
33565,note_on,55,0,11,,,,,,,,,10,,,,69,0
33567,note_on,55,0,12,,,,,,,,,11,,,,67,0
33570,note_on,5,0,11,,,,,,,,,10,,,,69,112
33572,note_on,0,0,2,,,,,,,,,1,,,,76,100
33572,note_on,5,0,12,,,,,,,,,11,,,,67,112
33572,note_on,30,0,2,,,,,,,,,1,,,,77,0
33577,note_on,30,0,14,,,,,,,,,13,,,,49,0
33579,note_on,30,0,15,,,,,,,,,14,,,,37,0
33585,note_on,40,0,13,,,,,,,,,12,,,,57,0
33590,note_on,5,0,13,,,,,,,,,12,,,,57,112
33597,note_on,25,0,2,,,,,,,,,1,,,,76,0
33600,set_tempo,60,1,0,,,,,,1188119,,,,,,,,
33600,note_on,10,0,13,,,,,,,,,12,,,,57,0
33602,note_on,30,0,12,,,,,,,,,11,,,,67,0
33602,note_on,5,0,2,,,,,,,,,1,,,,76,100
33602,note_on,0,0,12,,,,,,,,,11,,,,65,112
33605,note_on,5,0,13,,,,,,,,,12,,,,57,112
33607,note_on,30,0,14,,,,,,,,,13,,,,50,112
33609,note_on,30,0,15,,,,,,,,,14,,,,38,112
33625,note_on,55,0,11,,,,,,,,,10,,,,69,0
33630,note_on,5,0,11,,,,,,,,,10,,,,69,112
33632,note_on,0,0,12,,,,,,,,,11,,,,65,112
33632,note_on,30,0,2,,,,,,,,,1,,,,76,0
33632,note_on,0,0,2,,,,,,,,,1,,,,74,100
33632,note_on,30,0,12,,,,,,,,,11,,,,65,0
33635,note_on,30,0,13,,,,,,,,,12,,,,57,0
33637,note_on,30,0,14,,,,,,,,,13,,,,50,0
33639,note_on,30,0,15,,,,,,,,,14,,,,38,0
33660,note_on,0,0,11,,,,,,,,,10,,,,72,112
33660,note_on,30,0,11,,,,,,,,,10,,,,69,0
33660,set_tempo,60,1,0,,,,,,1111111,,,,,,,,
33662,note_on,30,0,12,,,,,,,,,11,,,,65,0
33662,note_on,0,0,2,,,,,,,,,1,,,,72,100
33662,note_on,30,0,2,,,,,,,,,1,,,,74,0
33662,note_on,0,0,12,,,,,,,,,11,,,,67,112
33665,note_on,30,0,13,,,,,,,,,12,,,,62,112
33667,note_on,30,0,14,,,,,,,,,13,,,,43,112
33669,note_on,30,0,15,,,,,,,,,14,,,,31,112
33690,note_on,30,0,11,,,,,,,,,10,,,,72,0
33690,note_on,0,0,11,,,,,,,,,10,,,,70,112
33692,note_on,0,0,12,,,,,,,,,11,,,,67,112
33692,note_on,30,0,12,,,,,,,,,11,,,,67,0
33692,note_on,0,0,2,,,,,,,,,1,,,,70,100
33692,note_on,30,0,2,,,,,,,,,1,,,,72,0
33695,note_on,30,0,13,,,,,,,,,12,,,,62,0
33697,note_on,30,0,14,,,,,,,,,13,,,,43,0
33699,note_on,30,0,15,,,,,,,,,14,,,,31,0
33720,note_on,0,0,11,,,,,,,,,10,,,,69,112
33720,note_on,30,0,11,,,,,,,,,10,,,,70,0
33720,set_tempo,60,1,0,,,,,,1188119,,,,,,,,
33722,note_on,30,0,12,,,,,,,,,11,,,,67,0
33722,note_on,0,0,12,,,,,,,,,11,,,,65,112
33722,note_on,0,0,2,,,,,,,,,1,,,,69,100
33722,note_on,30,0,2,,,,,,,,,1,,,,70,0
33725,note_on,30,0,13,,,,,,,,,12,,,,57,112
33727,note_on,30,0,14,,,,,,,,,13,,,,50,112
33729,note_on,30,0,15,,,,,,,,,14,,,,38,112
33750,note_on,0,0,11,,,,,,,,,10,,,,69,112
33750,note_on,30,0,11,,,,,,,,,10,,,,69,0
33752,note_on,0,0,12,,,,,,,,,11,,,,65,112
33752,note_on,30,0,12,,,,,,,,,11,,,,65,0
33755,note_on,30,0,13,,,,,,,,,12,,,,57,0
33757,note_on,30,0,14,,,,,,,,,13,,,,50,0
33759,note_on,30,0,15,,,,,,,,,14,,,,38,0
33780,set_tempo,60,1,0,,,,,,1111111,,,,,,,,
33781,note_on,0,0,1,,,,,,,,,0,,,,74,101
33781,control_change,1150,0,1,,,,,,,,,0,11,37,,,
33782,control_change,480,0,3,,,,,,,,,2,11,37,,,
33782,note_on,60,0,2,,,,,,,,,1,,,,69,0
33782,note_on,0,0,3,,,,,,,,,2,,,,74,101
33787,note_on,0,0,4,,,,,,,,,3,,,,62,100
33787,note_on,30,0,14,,,,,,,,,13,,,,53,112
33787,control_change,480,0,4,,,,,,,,,3,11,37,,,
33790,control_change,9,0,1,,,,,,,,,0,11,40,,,
33791,control_change,9,0,3,,,,,,,,,2,11,40,,,
33796,control_change,9,0,4,,,,,,,,,3,11,40,,,
33799,control_change,9,0,1,,,,,,,,,0,11,43,,,
33800,control_change,9,0,3,,,,,,,,,2,11,43,,,
33805,note_on,55,0,11,,,,,,,,,10,,,,69,0
33805,control_change,9,0,4,,,,,,,,,3,11,43,,,
33807,note_on,55,0,12,,,,,,,,,11,,,,65,0
33808,control_change,9,0,1,,,,,,,,,0,11,46,,,
33809,control_change,9,0,3,,,,,,,,,2,11,46,,,
33810,note_on,5,0,11,,,,,,,,,10,,,,69,112
33812,note_on,5,0,12,,,,,,,,,11,,,,65,112
33814,control_change,9,0,4,,,,,,,,,3,11,46,,,
33817,note_on,30,0,14,,,,,,,,,13,,,,53,0
33840,set_tempo,60,1,0,,,,,,1176471,,,,,,,,
33840,control_change,30,0,11,,,,,,,,,10,11,41,,,
33841,note_on,33,0,1,,,,,,,,,0,,,,74,0
33841,note_on,0,0,1,,,,,,,,,0,,,,76,101
33841,control_change,0,0,1,,,,,,,,,0,11,47,,,
33842,control_change,0,0,3,,,,,,,,,2,11,47,,,
33842,note_on,0,0,3,,,,,,,,,2,,,,76,101
33842,note_on,33,0,3,,,,,,,,,2,,,,74,0
33842,note_on,30,0,12,,,,,,,,,11,,,,65,0
33842,control_change,60,0,2,,,,,,,,,1,11,47,,,
33842,note_on,0,0,12,,,,,,,,,11,,,,64,112
33842,control_change,0,0,12,,,,,,,,,11,11,41,,,
33845,note_on,90,0,13,,,,,,,,,12,,,,61,112
33845,control_change,0,0,13,,,,,,,,,12,11,41,,,
33847,note_on,0,0,4,,,,,,,,,3,,,,64,100
33847,note_on,33,0,4,,,,,,,,,3,,,,62,0
33847,note_on,0,0,14,,,,,,,,,13,,,,45,112
33847,control_change,30,0,14,,,,,,,,,13,11,41,,,
33847,control_change,0,0,4,,,,,,,,,3,11,47,,,
33849,note_on,0,0,15,,,,,,,,,14,,,,33,112
33849,control_change,90,0,15,,,,,,,,,14,11,41,,,
33855,control_change,15,0,11,,,,,,,,,10,11,42,,,
33857,control_change,15,0,12,,,,,,,,,11,11,42,,,
33857,control_change,16,0,1,,,,,,,,,0,11,48,,,
33858,control_change,16,0,2,,,,,,,,,1,11,48,,,
33858,control_change,16,0,3,,,,,,,,,2,11,48,,,
33860,control_change,15,0,13,,,,,,,,,12,11,42,,,
33862,control_change,15,0,14,,,,,,,,,13,11,42,,,
33863,control_change,16,0,4,,,,,,,,,3,11,48,,,
33864,control_change,15,0,15,,,,,,,,,14,11,42,,,
33865,note_on,10,0,11,,,,,,,,,10,,,,69,0
33870,note_on,5,0,11,,,,,,,,,10,,,,69,112
33871,control_change,1,0,11,,,,,,,,,10,11,42,,,
33872,note_on,0,0,12,,,,,,,,,11,,,,64,112
33872,note_on,15,0,12,,,,,,,,,11,,,,64,0
33873,control_change,16,0,1,,,,,,,,,0,11,49,,,
33873,control_change,1,0,12,,,,,,,,,11,11,42,,,
33874,control_change,16,0,3,,,,,,,,,2,11,49,,,
33874,control_change,16,0,2,,,,,,,,,1,11,49,,,
33875,note_on,15,0,13,,,,,,,,,12,,,,61,0
33875,note_on,0,0,13,,,,,,,,,12,,,,61,112
33876,control_change,1,0,13,,,,,,,,,12,11,42,,,
33877,note_on,15,0,14,,,,,,,,,13,,,,45,0
33878,control_change,1,0,14,,,,,,,,,13,11,42,,,
33879,control_change,16,0,4,,,,,,,,,3,11,49,,,
33879,note_on,15,0,15,,,,,,,,,14,,,,33,0
33880,control_change,1,0,15,,,,,,,,,14,11,42,,,
33887,control_change,16,0,11,,,,,,,,,10,11,43,,,
33889,control_change,16,0,12,,,,,,,,,11,11,43,,,
33889,control_change,16,0,1,,,,,,,,,0,11,50,,,
33890,control_change,16,0,3,,,,,,,,,2,11,50,,,
33890,control_change,16,0,2,,,,,,,,,1,11,50,,,
33892,control_change,16,0,13,,,,,,,,,12,11,43,,,
33894,control_change,16,0,14,,,,,,,,,13,11,43,,,
33895,control_change,16,0,4,,,,,,,,,3,11,50,,,
33896,control_change,16,0,15,,,,,,,,,14,11,43,,,
33900,set_tempo,60,1,0,,,,,,1111111,,,,,,,,
33903,control_change,16,0,11,,,,,,,,,10,11,44,,,
33905,control_change,16,0,1,,,,,,,,,0,11,51,,,
33905,control_change,16,0,12,,,,,,,,,11,11,44,,,
33906,control_change,16,0,3,,,,,,,,,2,11,51,,,
33906,control_change,16,0,2,,,,,,,,,1,11,51,,,
33907,note_on,13,0,14,,,,,,,,,13,,,,57,112
33908,control_change,16,0,13,,,,,,,,,12,11,44,,,
33909,note_on,13,0,15,,,,,,,,,14,,,,45,112
33910,control_change,3,0,14,,,,,,,,,13,11,44,,,
33911,control_change,16,0,4,,,,,,,,,3,11,51,,,
33912,control_change,3,0,15,,,,,,,,,14,11,44,,,
33919,control_change,16,0,11,,,,,,,,,10,11,45,,,
33921,control_change,16,0,12,,,,,,,,,11,11,45,,,
33921,control_change,16,0,1,,,,,,,,,0,11,52,,,
33922,control_change,16,0,2,,,,,,,,,1,11,52,,,
33922,control_change,16,0,3,,,,,,,,,2,11,52,,,
33924,control_change,16,0,13,,,,,,,,,12,11,45,,,
33925,note_on,6,0,11,,,,,,,,,10,,,,69,0
33926,control_change,16,0,14,,,,,,,,,13,11,45,,,
33927,note_on,6,0,12,,,,,,,,,11,,,,64,0
33927,control_change,16,0,4,,,,,,,,,3,11,52,,,
33928,control_change,16,0,15,,,,,,,,,14,11,45,,,
33930,note_on,6,0,13,,,,,,,,,12,,,,61,0
33930,note_on,5,0,11,,,,,,,,,10,,,,69,112
33932,note_on,5,0,12,,,,,,,,,11,,,,64,112
33935,note_on,5,0,13,,,,,,,,,12,,,,61,112
33935,control_change,5,0,11,,,,,,,,,10,11,46,,,
33937,control_change,5,0,12,,,,,,,,,11,11,46,,,
33937,note_on,11,0,14,,,,,,,,,13,,,,57,0
33937,control_change,16,0,1,,,,,,,,,0,11,53,,,
33938,control_change,16,0,2,,,,,,,,,1,11,53,,,
33938,control_change,16,0,3,,,,,,,,,2,11,53,,,
33939,note_on,11,0,15,,,,,,,,,14,,,,45,0
33940,control_change,5,0,13,,,,,,,,,12,11,46,,,
33942,control_change,5,0,14,,,,,,,,,13,11,46,,,
33943,control_change,16,0,4,,,,,,,,,3,11,53,,,
33944,control_change,5,0,15,,,,,,,,,14,11,46,,,
33951,control_change,16,0,11,,,,,,,,,10,11,47,,,
33953,control_change,16,0,1,,,,,,,,,0,11,54,,,
33953,control_change,16,0,12,,,,,,,,,11,11,47,,,
33954,control_change,16,0,3,,,,,,,,,2,11,54,,,
33954,control_change,16,0,2,,,,,,,,,1,11,54,,,
33956,control_change,16,0,13,,,,,,,,,12,11,47,,,
33958,control_change,16,0,14,,,,,,,,,13,11,47,,,
33959,control_change,16,0,4,,,,,,,,,3,11,54,,,
33960,set_tempo,60,1,0,,,,,,1188119,,,,,,,,
33960,control_change,16,0,15,,,,,,,,,14,11,47,,,
33961,note_on,8,0,1,,,,,,,,,0,,,,76,0
33961,note_on,0,0,1,,,,,,,,,0,,,,77,101
33962,note_on,0,0,12,,,,,,,,,11,,,,65,112
33962,note_on,9,0,12,,,,,,,,,11,,,,64,0
33962,note_on,0,0,3,,,,,,,,,2,,,,77,101
33962,note_on,8,0,3,,,,,,,,,2,,,,76,0
33965,note_on,9,0,13,,,,,,,,,12,,,,61,0
33965,note_on,0,0,13,,,,,,,,,12,,,,60,112
33967,note_on,0,0,4,,,,,,,,,3,,,,65,100
33967,note_on,8,0,4,,,,,,,,,3,,,,64,0
33967,control_change,16,0,11,,,,,,,,,10,11,48,,,
33969,control_change,8,0,1,,,,,,,,,0,11,55,,,
33969,control_change,7,0,12,,,,,,,,,11,11,48,,,
33970,control_change,8,0,3,,,,,,,,,2,11,55,,,
33970,control_change,16,0,2,,,,,,,,,1,11,55,,,
33972,control_change,7,0,13,,,,,,,,,12,11,48,,,
33974,control_change,16,0,14,,,,,,,,,13,11,48,,,
33975,control_change,8,0,4,,,,,,,,,3,11,55,,,
33976,control_change,16,0,15,,,,,,,,,14,11,48,,,
33983,control_change,16,0,11,,,,,,,,,10,11,49,,,
33985,note_on,2,0,11,,,,,,,,,10,,,,69,0
33985,control_change,16,0,1,,,,,,,,,0,11,56,,,
33985,control_change,16,0,12,,,,,,,,,11,11,49,,,
33986,control_change,16,0,3,,,,,,,,,2,11,56,,,
33986,control_change,16,0,2,,,,,,,,,1,11,56,,,
33988,control_change,16,0,13,,,,,,,,,12,11,49,,,
33990,control_change,16,0,14,,,,,,,,,13,11,49,,,
33990,note_on,5,0,11,,,,,,,,,10,,,,69,112
33991,control_change,16,0,4,,,,,,,,,3,11,56,,,
33992,note_on,0,0,12,,,,,,,,,11,,,,65,112
33992,control_change,16,0,15,,,,,,,,,14,11,49,,,
33992,note_on,7,0,12,,,,,,,,,11,,,,65,0
33995,note_on,0,0,13,,,,,,,,,12,,,,60,112
33995,note_on,7,0,13,,,,,,,,,12,,,,60,0
33999,control_change,9,0,11,,,,,,,,,10,11,50,,,
34001,control_change,16,0,1,,,,,,,,,0,11,57,,,
34001,control_change,9,0,12,,,,,,,,,11,11,50,,,
34002,control_change,16,0,3,,,,,,,,,2,11,57,,,
34002,control_change,16,0,2,,,,,,,,,1,11,57,,,
34004,control_change,9,0,13,,,,,,,,,12,11,50,,,
34006,control_change,16,0,14,,,,,,,,,13,11,50,,,
34007,control_change,16,0,4,,,,,,,,,3,11,57,,,
34008,control_change,16,0,15,,,,,,,,,14,11,50,,,
34015,control_change,16,0,11,,,,,,,,,10,11,51,,,
34017,control_change,16,0,12,,,,,,,,,11,11,51,,,
34017,control_change,16,0,1,,,,,,,,,0,11,57,,,
34018,control_change,16,0,2,,,,,,,,,1,11,57,,,
34018,control_change,16,0,3,,,,,,,,,2,11,57,,,
34020,set_tempo,60,1,0,,,,,,1111111,,,,,,,,
34020,control_change,16,0,13,,,,,,,,,12,11,51,,,
34021,note_on,0,0,1,,,,,,,,,0,,,,75,101
34021,note_on,0,0,1,,,,,,,,,0,,,,78,101
34021,note_on,4,0,1,,,,,,,,,0,,,,77,0
34022,note_on,5,0,12,,,,,,,,,11,,,,65,0
34022,note_on,0,0,12,,,,,,,,,11,,,,66,112
34022,control_change,16,0,14,,,,,,,,,13,11,51,,,
34022,note_on,4,0,3,,,,,,,,,2,,,,77,0
34022,note_on,0,0,3,,,,,,,,,2,,,,72,101
34022,note_on,0,0,3,,,,,,,,,2,,,,75,101
34023,control_change,16,0,4,,,,,,,,,3,11,58,,,
34024,control_change,16,0,15,,,,,,,,,14,11,51,,,
34025,note_on,0,0,13,,,,,,,,,12,,,,60,112
34025,note_on,0,0,13,,,,,,,,,12,,,,63,112
34025,note_on,5,0,13,,,,,,,,,12,,,,60,0
34027,note_on,0,0,4,,,,,,,,,3,,,,66,100
34027,note_on,5,0,14,,,,,,,,,13,,,,45,112
34027,note_on,0,0,4,,,,,,,,,3,,,,57,100
34027,note_on,4,0,4,,,,,,,,,3,,,,65,0
34029,note_on,5,0,15,,,,,,,,,14,,,,33,112
34031,control_change,16,0,11,,,,,,,,,10,11,52,,,
34033,control_change,12,0,1,,,,,,,,,0,11,58,,,
34033,control_change,11,0,12,,,,,,,,,11,11,52,,,
34034,control_change,12,0,3,,,,,,,,,2,11,58,,,
34034,control_change,16,0,2,,,,,,,,,1,11,58,,,
34036,control_change,11,0,13,,,,,,,,,12,11,52,,,
34038,control_change,11,0,14,,,,,,,,,13,11,52,,,
34039,control_change,12,0,4,,,,,,,,,3,11,59,,,
34040,control_change,11,0,15,,,,,,,,,14,11,52,,,
34045,note_on,14,0,11,,,,,,,,,10,,,,69,0
34047,control_change,2,0,11,,,,,,,,,10,11,53,,,
34049,control_change,16,0,1,,,,,,,,,0,11,59,,,
34049,control_change,16,0,12,,,,,,,,,11,11,53,,,
34050,control_change,16,0,3,,,,,,,,,2,11,59,,,
34050,control_change,16,0,2,,,,,,,,,1,11,59,,,
34050,note_on,3,0,11,,,,,,,,,10,,,,69,112
34050,set_tempo,30,1,0,,,,,,1304348,,,,,,,,
34052,control_change,16,0,13,,,,,,,,,12,11,53,,,
34052,note_on,3,0,12,,,,,,,,,11,,,,66,0
34052,note_on,0,0,12,,,,,,,,,11,,,,66,112
34054,control_change,16,0,14,,,,,,,,,13,11,53,,,
34055,note_on,3,0,13,,,,,,,,,12,,,,60,0
34055,note_on,0,0,13,,,,,,,,,12,,,,63,112
34055,note_on,0,0,13,,,,,,,,,12,,,,60,112
34055,note_on,0,0,13,,,,,,,,,12,,,,63,0
34055,control_change,16,0,4,,,,,,,,,3,11,60,,,
34056,control_change,16,0,15,,,,,,,,,14,11,53,,,
34057,note_on,3,0,14,,,,,,,,,13,,,,45,0
34059,note_on,3,0,15,,,,,,,,,14,,,,33,0
34063,control_change,13,0,11,,,,,,,,,10,11,54,,,
34065,control_change,13,0,12,,,,,,,,,11,11,54,,,
34065,control_change,16,0,1,,,,,,,,,0,11,60,,,
34066,control_change,16,0,3,,,,,,,,,2,11,60,,,
34066,control_change,16,0,2,,,,,,,,,1,11,60,,,
34068,control_change,13,0,13,,,,,,,,,12,11,54,,,
34070,control_change,13,0,14,,,,,,,,,13,11,54,,,
34071,control_change,16,0,4,,,,,,,,,3,11,61,,,
34072,control_change,13,0,15,,,,,,,,,14,11,54,,,
34079,control_change,16,0,11,,,,,,,,,10,11,55,,,
34080,set_tempo,30,1,0,,,,,,1188119,,,,,,,,
34080,note_on,0,0,11,,,,,,,,,10,,,,67,112
34080,note_on,1,0,11,,,,,,,,,10,,,,69,0
34081,note_on,0,0,1,,,,,,,,,0,,,,75,0
34081,note_on,16,0,1,,,,,,,,,0,,,,78,0
34081,control_change,16,0,12,,,,,,,,,11,11,55,,,
34081,control_change,0,0,1,,,,,,,,,0,11,60,,,
34081,note_on,0,0,1,,,,,,,,,0,,,,74,101
34081,note_on,0,0,1,,,,,,,,,0,,,,79,101
34082,note_on,1,0,12,,,,,,,,,11,,,,66,0
34082,note_on,0,0,3,,,,,,,,,2,,,,74,101
34082,control_change,0,0,3,,,,,,,,,2,11,60,,,
34082,note_on,16,0,3,,,,,,,,,2,,,,75,0
34082,control_change,16,0,2,,,,,,,,,1,11,60,,,
34082,note_on,0,0,2,,,,,,,,,1,,,,74,100
34082,note_on,0,0,12,,,,,,,,,11,,,,67,112
34082,note_on,0,0,3,,,,,,,,,2,,,,72,0
34082,note_on,0,0,3,,,,,,,,,2,,,,70,101
34084,control_change,16,0,13,,,,,,,,,12,11,55,,,
34085,note_on,0,0,13,,,,,,,,,12,,,,62,112
34085,note_on,1,0,13,,,,,,,,,12,,,,63,0
34085,note_on,0,0,13,,,,,,,,,12,,,,60,0
34086,control_change,16,0,14,,,,,,,,,13,11,55,,,
34087,note_on,1,0,14,,,,,,,,,13,,,,46,112
34087,control_change,0,0,4,,,,,,,,,3,11,62,,,
34087,note_on,0,0,4,,,,,,,,,3,,,,67,100
34087,note_on,0,0,4,,,,,,,,,3,,,,58,100
34087,note_on,0,0,4,,,,,,,,,3,,,,57,0
34087,note_on,16,0,4,,,,,,,,,3,,,,66,0
34088,control_change,16,0,15,,,,,,,,,14,11,55,,,
34089,note_on,1,0,15,,,,,,,,,14,,,,34,112
34096,control_change,15,0,1,,,,,,,,,0,11,60,,,
34097,control_change,15,0,3,,,,,,,,,2,11,60,,,
34097,control_change,15,0,2,,,,,,,,,1,11,60,,,
34102,control_change,15,0,4,,,,,,,,,3,11,61,,,
34112,control_change,16,0,1,,,,,,,,,0,11,59,,,
34113,control_change,16,0,2,,,,,,,,,1,11,59,,,
34113,control_change,16,0,3,,,,,,,,,2,11,59,,,
34117,note_on,30,0,14,,,,,,,,,13,,,,46,0
34118,control_change,16,0,4,,,,,,,,,3,11,60,,,
34119,note_on,30,0,15,,,,,,,,,14,,,,34,0
34127,control_change,47,0,11,,,,,,,,,10,11,54,,,
34128,control_change,16,0,1,,,,,,,,,0,11,58,,,
34129,control_change,16,0,3,,,,,,,,,2,11,58,,,
34129,control_change,16,0,2,,,,,,,,,1,11,58,,,
34129,control_change,47,0,12,,,,,,,,,11,11,54,,,
34132,control_change,47,0,13,,,,,,,,,12,11,54,,,
34134,control_change,16,0,4,,,,,,,,,3,11,59,,,
34134,control_change,17,0,14,,,,,,,,,13,11,54,,,
34136,control_change,17,0,15,,,,,,,,,14,11,54,,,
34140,set_tempo,60,1,0,,,,,,1132075,,,,,,,,
34140,note_on,13,0,11,,,,,,,,,10,,,,67,0
34140,note_on,0,0,11,,,,,,,,,10,,,,70,112
34141,note_on,0,0,1,,,,,,,,,0,,,,79,101
34141,note_on,0,0,1,,,,,,,,,0,,,,82,101
34141,note_on,0,0,1,,,,,,,,,0,,,,79,0
34141,note_on,13,0,1,,,,,,,,,0,,,,74,0
34142,note_on,13,0,3,,,,,,,,,2,,,,74,0
34142,note_on,0,0,12,,,,,,,,,11,,,,62,112
34142,note_on,0,0,3,,,,,,,,,2,,,,67,101
34142,note_on,0,0,3,,,,,,,,,2,,,,70,101
34142,note_on,13,0,12,,,,,,,,,11,,,,67,0
34142,note_on,0,0,3,,,,,,,,,2,,,,70,0
34144,control_change,3,0,1,,,,,,,,,0,11,57,,,
34145,control_change,3,0,3,,,,,,,,,2,11,57,,,
34145,note_on,0,0,13,,,,,,,,,12,,,,67,112
34145,note_on,13,0,13,,,,,,,,,12,,,,62,0
34145,control_change,16,0,2,,,,,,,,,1,11,57,,,
34147,note_on,13,0,4,,,,,,,,,3,,,,67,0
34147,note_on,0,0,4,,,,,,,,,3,,,,58,0
34147,note_on,13,0,14,,,,,,,,,13,,,,43,112
34147,note_on,0,0,4,,,,,,,,,3,,,,62,100
34147,note_on,0,0,4,,,,,,,,,3,,,,55,100
34149,note_on,13,0,15,,,,,,,,,14,,,,31,112
34150,control_change,3,0,4,,,,,,,,,3,11,58,,,
34160,control_change,16,0,1,,,,,,,,,0,11,57,,,
34161,control_change,16,0,2,,,,,,,,,1,11,57,,,
34161,control_change,16,0,3,,,,,,,,,2,11,57,,,
34166,control_change,16,0,4,,,,,,,,,3,11,57,,,
34172,note_on,0,0,2,,,,,,,,,1,,,,76,100
34172,note_on,11,0,2,,,,,,,,,1,,,,74,0
34172,note_on,30,0,12,,,,,,,,,11,,,,62,0
34172,note_on,0,0,12,,,,,,,,,11,,,,64,112
34175,control_change,35,0,11,,,,,,,,,10,11,53,,,
34176,control_change,16,0,1,,,,,,,,,0,11,56,,,
34177,control_change,16,0,3,,,,,,,,,2,11,56,,,
34177,note_on,0,0,4,,,,,,,,,3,,,,64,100
34177,note_on,11,0,4,,,,,,,,,3,,,,62,0
34177,control_change,5,0,12,,,,,,,,,11,11,53,,,
34177,control_change,5,0,2,,,,,,,,,1,11,56,,,
34177,note_on,30,0,14,,,,,,,,,13,,,,43,0
34179,note_on,30,0,15,,,,,,,,,14,,,,31,0
34180,control_change,35,0,13,,,,,,,,,12,11,53,,,
34182,control_change,5,0,4,,,,,,,,,3,11,56,,,
34182,control_change,5,0,14,,,,,,,,,13,11,53,,,
34184,control_change,5,0,15,,,,,,,,,14,11,53,,,
34192,control_change,16,0,1,,,,,,,,,0,11,55,,,
34193,control_change,16,0,3,,,,,,,,,2,11,55,,,
34193,control_change,16,0,2,,,,,,,,,1,11,55,,,
34198,control_change,16,0,4,,,,,,,,,3,11,55,,,
34200,note_on,25,0,11,,,,,,,,,10,,,,70,0
34200,note_on,0,0,11,,,,,,,,,10,,,,69,112
34200,set_tempo,60,1,0,,,,,,1224490,,,,,,,,
34201,note_on,0,0,1,,,,,,,,,0,,,,77,101
34201,note_on,0,0,1,,,,,,,,,0,,,,82,0
34201,note_on,9,0,1,,,,,,,,,0,,,,79,0
34201,note_on,0,0,1,,,,,,,,,0,,,,81,101
34202,note_on,0,0,12,,,,,,,,,11,,,,65,112
34202,note_on,25,0,12,,,,,,,,,11,,,,64,0
34202,note_on,0,0,3,,,,,,,,,2,,,,69,101
34202,note_on,0,0,3,,,,,,,,,2,,,,65,101
34202,note_on,0,0,3,,,,,,,,,2,,,,67,0
34202,note_on,9,0,3,,,,,,,,,2,,,,70,0
34202,note_on,0,0,2,,,,,,,,,1,,,,77,100
34202,note_on,9,0,2,,,,,,,,,1,,,,76,0
34205,note_on,0,0,13,,,,,,,,,12,,,,65,112
34205,note_on,25,0,13,,,,,,,,,12,,,,67,0
34207,note_on,0,0,4,,,,,,,,,3,,,,55,0
34207,note_on,0,0,4,,,,,,,,,3,,,,65,100
34207,note_on,0,0,4,,,,,,,,,3,,,,57,100
34207,note_on,25,0,14,,,,,,,,,13,,,,45,112
34207,note_on,9,0,4,,,,,,,,,3,,,,64,0
34208,control_change,7,0,1,,,,,,,,,0,11,54,,,
34209,control_change,7,0,2,,,,,,,,,1,11,54,,,
34209,note_on,25,0,15,,,,,,,,,14,,,,33,112
34209,control_change,7,0,3,,,,,,,,,2,11,54,,,
34214,control_change,7,0,4,,,,,,,,,3,11,54,,,
34223,control_change,23,0,11,,,,,,,,,10,11,52,,,
34224,control_change,16,0,1,,,,,,,,,0,11,53,,,
34225,control_change,16,0,2,,,,,,,,,1,11,53,,,
34225,control_change,16,0,3,,,,,,,,,2,11,53,,,
34225,control_change,23,0,12,,,,,,,,,11,11,52,,,
34228,control_change,23,0,13,,,,,,,,,12,11,52,,,
34230,control_change,23,0,14,,,,,,,,,13,11,52,,,
34230,control_change,16,0,4,,,,,,,,,3,11,53,,,
34232,note_on,7,0,2,,,,,,,,,1,,,,77,0
34232,control_change,23,0,15,,,,,,,,,14,11,52,,,
34232,note_on,0,0,2,,,,,,,,,1,,,,72,100
34237,note_on,7,0,4,,,,,,,,,3,,,,65,0
34237,note_on,7,0,14,,,,,,,,,13,,,,45,0
34237,note_on,0,0,4,,,,,,,,,3,,,,60,100
34239,note_on,7,0,15,,,,,,,,,14,,,,33,0
34240,control_change,16,0,1,,,,,,,,,0,11,52,,,
34241,control_change,16,0,3,,,,,,,,,2,11,52,,,
34241,control_change,9,0,2,,,,,,,,,1,11,52,,,
34246,control_change,9,0,4,,,,,,,,,3,11,52,,,
34256,control_change,16,0,1,,,,,,,,,0,11,51,,,
34257,control_change,16,0,2,,,,,,,,,1,11,51,,,
34257,control_change,16,0,3,,,,,,,,,2,11,51,,,
34260,note_on,37,0,11,,,,,,,,,10,,,,69,0
34260,set_tempo,60,1,0,,,,,,1153846,,,,,,,,
34260,note_on,0,0,11,,,,,,,,,10,,,,67,112
34261,note_on,5,0,1,,,,,,,,,0,,,,81,0
34261,note_on,0,0,1,,,,,,,,,0,,,,79,101
34261,note_on,0,0,1,,,,,,,,,0,,,,77,0
34261,note_on,0,0,1,,,,,,,,,0,,,,76,101
34262,note_on,37,0,12,,,,,,,,,11,,,,65,0
34262,control_change,16,0,4,,,,,,,,,3,11,51,,,
34262,note_on,0,0,12,,,,,,,,,11,,,,64,112
34262,note_on,0,0,3,,,,,,,,,2,,,,67,101
34262,note_on,0,0,3,,,,,,,,,2,,,,65,0
34262,note_on,0,0,3,,,,,,,,,2,,,,64,101
34262,note_on,5,0,3,,,,,,,,,2,,,,69,0
34262,note_on,0,0,2,,,,,,,,,1,,,,70,100
34262,note_on,5,0,2,,,,,,,,,1,,,,72,0
34265,note_on,0,0,13,,,,,,,,,12,,,,60,112
34265,note_on,37,0,13,,,,,,,,,12,,,,65,0
34267,note_on,0,0,4,,,,,,,,,3,,,,58,100
34267,note_on,0,0,4,,,,,,,,,3,,,,57,0
34267,note_on,5,0,4,,,,,,,,,3,,,,60,0
34267,note_on,30,0,14,,,,,,,,,13,,,,48,112
34267,note_on,0,0,4,,,,,,,,,3,,,,48,100
34269,note_on,30,0,15,,,,,,,,,14,,,,36,112
34271,control_change,11,0,11,,,,,,,,,10,11,51,,,
34272,control_change,11,0,1,,,,,,,,,0,11,50,,,
34273,control_change,11,0,12,,,,,,,,,11,11,51,,,
34273,control_change,11,0,3,,,,,,,,,2,11,50,,,
34273,control_change,11,0,2,,,,,,,,,1,11,50,,,
34276,control_change,11,0,13,,,,,,,,,12,11,51,,,
34278,control_change,11,0,14,,,,,,,,,13,11,51,,,
34278,control_change,11,0,4,,,,,,,,,3,11,50,,,
34280,control_change,11,0,15,,,,,,,,,14,11,51,,,
34288,control_change,16,0,1,,,,,,,,,0,11,49,,,
34289,control_change,16,0,2,,,,,,,,,1,11,49,,,
34289,control_change,16,0,3,,,,,,,,,2,11,49,,,
34290,note_on,0,0,11,,,,,,,,,10,,,,76,112
34290,note_on,19,0,11,,,,,,,,,10,,,,67,0
34290,set_tempo,30,1,0,,,,,,1304348,,,,,,,,
34292,note_on,3,0,2,,,,,,,,,1,,,,70,0
34292,note_on,0,0,2,,,,,,,,,1,,,,72,100
34292,note_on,19,0,12,,,,,,,,,11,,,,64,0
34292,note_on,0,0,12,,,,,,,,,11,,,,72,112
34294,control_change,16,0,4,,,,,,,,,3,11,49,,,
34297,note_on,19,0,14,,,,,,,,,13,,,,48,0
34297,note_on,0,0,4,,,,,,,,,3,,,,60,100
34297,note_on,3,0,4,,,,,,,,,3,,,,58,0
34299,note_on,19,0,15,,,,,,,,,14,,,,36,0
34304,control_change,16,0,1,,,,,,,,,0,11,48,,,
34305,control_change,13,0,2,,,,,,,,,1,11,48,,,
34305,control_change,16,0,3,,,,,,,,,2,11,48,,,
34310,control_change,13,0,4,,,,,,,,,3,11,48,,,
34315,note_on,25,0,11,,,,,,,,,10,,,,76,0
34317,note_on,25,0,12,,,,,,,,,11,,,,72,0
34319,control_change,4,0,11,,,,,,,,,10,11,50,,,
34320,note_on,44,0,13,,,,,,,,,12,,,,60,0
34320,set_tempo,30,1,0,,,,,,1237113,,,,,,,,
34320,control_change,16,0,1,,,,,,,,,0,11,47,,,
34320,note_on,1,0,11,,,,,,,,,10,,,,77,112
34321,note_on,0,0,1,,,,,,,,,0,,,,76,0
34321,note_on,0,0,1,,,,,,,,,0,,,,77,101
34321,control_change,16,0,3,,,,,,,,,2,11,47,,,
34321,control_change,4,0,12,,,,,,,,,11,11,50,,,
34321,note_on,1,0,1,,,,,,,,,0,,,,79,0
34321,control_change,16,0,2,,,,,,,,,1,11,47,,,
34322,note_on,1,0,2,,,,,,,,,1,,,,72,0
34322,note_on,1,0,12,,,,,,,,,11,,,,71,112
34322,note_on,0,0,2,,,,,,,,,1,,,,65,100
34322,note_on,0,0,3,,,,,,,,,2,,,,65,101
34322,note_on,1,0,3,,,,,,,,,2,,,,67,0
34322,note_on,0,0,3,,,,,,,,,2,,,,64,0
34324,control_change,4,0,13,,,,,,,,,12,11,50,,,
34325,note_on,1,0,13,,,,,,,,,12,,,,65,112
34326,control_change,29,0,14,,,,,,,,,13,11,50,,,
34326,control_change,16,0,4,,,,,,,,,3,11,47,,,
34327,note_on,1,0,4,,,,,,,,,3,,,,60,0
34327,note_on,0,0,4,,,,,,,,,3,,,,48,0
34327,note_on,1,0,14,,,,,,,,,13,,,,50,112
34327,note_on,0,0,4,,,,,,,,,3,,,,53,100
34327,note_on,0,0,4,,,,,,,,,3,,,,50,100
34328,control_change,29,0,15,,,,,,,,,14,11,50,,,
34329,note_on,1,0,15,,,,,,,,,14,,,,38,112
34344,control_change,24,0,11,,,,,,,,,10,11,52,,,
34346,control_change,24,0,12,,,,,,,,,11,11,52,,,
34349,control_change,24,0,13,,,,,,,,,12,11,52,,,
34351,control_change,24,0,14,,,,,,,,,13,11,52,,,
34353,control_change,24,0,15,,,,,,,,,14,11,52,,,
34368,control_change,24,0,11,,,,,,,,,10,11,54,,,
34370,control_change,24,0,12,,,,,,,,,11,11,54,,,
34373,control_change,24,0,13,,,,,,,,,12,11,54,,,
34375,control_change,24,0,14,,,,,,,,,13,11,54,,,
34377,control_change,24,0,15,,,,,,,,,14,11,54,,,
34380,set_tempo,60,1,0,,,,,,1165049,,,,,,,,
34380,note_on,12,0,11,,,,,,,,,10,,,,77,0
34380,note_on,0,0,11,,,,,,,,,10,,,,79,112
34381,note_on,60,0,1,,,,,,,,,0,,,,77,0
34382,note_on,60,0,3,,,,,,,,,2,,,,65,0
34382,note_on,12,0,12,,,,,,,,,11,,,,71,0
34382,note_on,0,0,12,,,,,,,,,11,,,,70,112
34382,note_on,60,0,2,,,,,,,,,1,,,,65,0
34385,note_on,0,0,13,,,,,,,,,12,,,,60,112
34385,note_on,12,0,13,,,,,,,,,12,,,,65,0
34387,note_on,12,0,14,,,,,,,,,13,,,,50,0
34387,note_on,0,0,14,,,,,,,,,13,,,,52,112
34387,note_on,60,0,4,,,,,,,,,3,,,,50,0
34387,note_on,0,0,4,,,,,,,,,3,,,,53,0
34389,note_on,0,0,15,,,,,,,,,14,,,,40,112
34389,note_on,12,0,15,,,,,,,,,14,,,,38,0
34392,control_change,12,0,11,,,,,,,,,10,11,56,,,
34394,control_change,12,0,12,,,,,,,,,11,11,56,,,
34397,control_change,12,0,13,,,,,,,,,12,11,56,,,
34399,control_change,12,0,14,,,,,,,,,13,11,56,,,
34401,control_change,12,0,15,,,,,,,,,14,11,56,,,
34416,control_change,24,0,11,,,,,,,,,10,11,57,,,
34418,control_change,24,0,12,,,,,,,,,11,11,57,,,
34421,control_change,24,0,13,,,,,,,,,12,11,57,,,
34423,control_change,24,0,14,,,,,,,,,13,11,57,,,
34425,control_change,24,0,15,,,,,,,,,14,11,57,,,
34440,control_change,0,0,11,,,,,,,,,10,11,59,,,
34440,note_on,24,0,11,,,,,,,,,10,,,,79,0
34440,note_on,0,0,11,,,,,,,,,10,,,,76,112
34440,set_tempo,60,1,0,,,,,,1263158,,,,,,,,
34442,control_change,24,0,12,,,,,,,,,11,11,59,,,
34445,control_change,0,0,13,,,,,,,,,12,11,59,,,
34445,note_on,0,0,13,,,,,,,,,12,,,,67,112
34445,note_on,24,0,13,,,,,,,,,12,,,,60,0
34447,note_on,0,0,14,,,,,,,,,13,,,,48,112
34447,note_on,24,0,14,,,,,,,,,13,,,,52,0
34447,control_change,0,0,14,,,,,,,,,13,11,59,,,
34449,note_on,24,0,15,,,,,,,,,14,,,,40,0
34449,control_change,0,0,15,,,,,,,,,14,11,59,,,
34449,note_on,0,0,15,,,,,,,,,14,,,,36,112
34464,control_change,24,0,11,,,,,,,,,10,11,57,,,
34466,control_change,24,0,12,,,,,,,,,11,11,57,,,
34469,control_change,24,0,13,,,,,,,,,12,11,57,,,
34471,control_change,24,0,14,,,,,,,,,13,11,57,,,
34473,control_change,24,0,15,,,,,,,,,14,11,57,,,
34488,control_change,24,0,11,,,,,,,,,10,11,56,,,
34490,control_change,24,0,12,,,,,,,,,11,11,56,,,
34493,control_change,24,0,13,,,,,,,,,12,11,56,,,
34495,control_change,24,0,14,,,,,,,,,13,11,56,,,
34497,control_change,24,0,15,,,,,,,,,14,11,56,,,
34500,note_on,12,0,11,,,,,,,,,10,,,,76,0
34500,note_on,0,0,11,,,,,,,,,10,,,,77,112
34500,set_tempo,60,1,0,,,,,,1188119,,,,,,,,
34502,note_on,12,0,12,,,,,,,,,11,,,,70,0
34502,note_on,0,0,12,,,,,,,,,11,,,,69,112
34505,note_on,0,0,13,,,,,,,,,12,,,,65,112
34505,note_on,12,0,13,,,,,,,,,12,,,,67,0
34507,note_on,0,0,14,,,,,,,,,13,,,,50,112
34507,note_on,12,0,14,,,,,,,,,13,,,,48,0
34509,note_on,0,0,15,,,,,,,,,14,,,,38,112
34509,note_on,12,0,15,,,,,,,,,14,,,,36,0
34512,control_change,12,0,11,,,,,,,,,10,11,54,,,
34514,control_change,12,0,12,,,,,,,,,11,11,54,,,
34517,control_change,12,0,13,,,,,,,,,12,11,54,,,
34519,control_change,12,0,14,,,,,,,,,13,11,54,,,
34521,control_change,12,0,15,,,,,,,,,14,11,54,,,
34536,control_change,24,0,11,,,,,,,,,10,11,52,,,
34538,control_change,24,0,12,,,,,,,,,11,11,52,,,
34541,control_change,24,0,13,,,,,,,,,12,11,52,,,
34543,control_change,24,0,14,,,,,,,,,13,11,52,,,
34545,control_change,24,0,15,,,,,,,,,14,11,52,,,
34555,note_on,19,0,11,,,,,,,,,10,,,,77,0
34557,note_on,19,0,12,,,,,,,,,11,,,,69,0
34560,note_on,0,0,11,,,,,,,,,10,,,,67,112
34560,set_tempo,60,1,0,,,,,,1224490,,,,,,,,
34560,note_on,19,0,13,,,,,,,,,12,,,,65,0
34560,control_change,5,0,11,,,,,,,,,10,11,50,,,
34562,control_change,5,0,12,,,,,,,,,11,11,50,,,
34562,note_on,19,0,14,,,,,,,,,13,,,,50,0
34562,note_on,0,0,12,,,,,,,,,11,,,,67,112
34563,set_tempo,3,1,0,,,,,,1276596,,,,,,,,
34564,note_on,19,0,15,,,,,,,,,14,,,,38,0
34565,control_change,0,0,13,,,,,,,,,12,11,50,,,
34565,note_on,5,0,13,,,,,,,,,12,,,,65,112
34567,control_change,5,0,14,,,,,,,,,13,11,50,,,
34567,note_on,0,0,14,,,,,,,,,13,,,,46,112
34569,control_change,5,0,15,,,,,,,,,14,11,50,,,
34569,note_on,0,0,15,,,,,,,,,14,,,,34,112
34620,set_tempo,57,1,0,,,,,,1212121,,,,,,,,
34620,note_on,0,0,11,,,,,,,,,10,,,,74,112
34620,note_on,60,0,11,,,,,,,,,10,,,,67,0
34680,set_tempo,60,1,0,,,,,,1290323,,,,,,,,
34685,note_on,0,0,13,,,,,,,,,12,,,,64,112
34685,note_on,120,0,13,,,,,,,,,12,,,,65,0
34687,note_on,120,0,14,,,,,,,,,13,,,,46,0
34687,note_on,0,0,14,,,,,,,,,13,,,,48,112
34689,note_on,0,0,15,,,,,,,,,14,,,,36,112
34689,note_on,120,0,15,,,,,,,,,14,,,,34,0
34710,note_on,0,0,11,,,,,,,,,10,,,,72,112
34710,note_on,90,0,11,,,,,,,,,10,,,,74,0
34740,note_on,0,0,11,,,,,,,,,10,,,,70,112
34740,set_tempo,60,1,0,,,,,,1363636,,,,,,,,
34740,note_on,30,0,11,,,,,,,,,10,,,,72,0
34770,note_on,30,0,11,,,,,,,,,10,,,,70,0
34770,note_on,0,0,11,,,,,,,,,10,,,,67,112
34772,note_on,0,0,12,,,,,,,,,11,,,,58,112
34772,note_on,210,0,12,,,,,,,,,11,,,,67,0
34795,note_on,25,0,11,,,,,,,,,10,,,,67,0
34797,note_on,25,0,12,,,,,,,,,11,,,,58,0
34800,note_on,115,0,13,,,,,,,,,12,,,,64,0
34800,note_on,5,0,11,,,,,,,,,10,,,,65,112
34800,set_tempo,60,1,0,,,,,,1263158,,,,,,,,
34802,note_on,5,0,12,,,,,,,,,11,,,,57,112
34802,note_on,115,0,14,,,,,,,,,13,,,,48,0
34804,note_on,0,0,8,,,,,,,,,7,,,,69,110
34804,note_on,115,0,15,,,,,,,,,14,,,,36,0
34804,control_change,2890,0,8,,,,,,,,,7,11,47,,,
34805,note_on,5,0,13,,,,,,,,,12,,,,65,112
34806,note_on,0,0,9,,,,,,,,,8,,,,53,110
34806,control_change,2170,0,9,,,,,,,,,8,11,47,,,
34807,note_on,5,0,14,,,,,,,,,13,,,,53,112
34809,note_on,5,0,15,,,,,,,,,14,,,,41,112
34830,control_change,30,0,11,,,,,,,,,10,11,50,,,
34832,control_change,30,0,12,,,,,,,,,11,11,50,,,
34835,control_change,30,0,13,,,,,,,,,12,11,50,,,
34837,control_change,30,0,14,,,,,,,,,13,11,50,,,
34838,control_change,8,0,11,,,,,,,,,10,11,47,,,
34839,control_change,30,0,15,,,,,,,,,14,11,50,,,
34840,control_change,8,0,12,,,,,,,,,11,11,47,,,
34843,control_change,8,0,13,,,,,,,,,12,11,47,,,
34845,control_change,8,0,14,,,,,,,,,13,11,47,,,
34847,control_change,9,0,11,,,,,,,,,10,11,44,,,
34847,control_change,8,0,15,,,,,,,,,14,11,47,,,
34849,control_change,9,0,12,,,,,,,,,11,11,44,,,
34852,control_change,9,0,13,,,,,,,,,12,11,44,,,
34854,control_change,9,0,14,,,,,,,,,13,11,44,,,
34856,control_change,9,0,15,,,,,,,,,14,11,44,,,
34860,note_on,13,0,11,,,,,,,,,10,,,,65,0
34860,set_tempo,60,1,0,,,,,,1212121,,,,,,,,
34862,note_on,13,0,12,,,,,,,,,11,,,,57,0
34864,note_on,60,0,8,,,,,,,,,7,,,,60,110
34865,note_on,13,0,13,,,,,,,,,12,,,,65,0
34867,note_on,13,0,14,,,,,,,,,13,,,,53,0
34869,note_on,13,0,15,,,,,,,,,14,,,,41,0
34920,set_tempo,60,1,0,,,,,,1237113,,,,,,,,
34924,note_on,60,0,8,,,,,,,,,7,,,,69,0
34924,note_on,0,0,8,,,,,,,,,7,,,,67,110
34926,note_on,120,0,9,,,,,,,,,8,,,,53,0
34926,note_on,0,0,9,,,,,,,,,8,,,,52,110
34980,set_tempo,60,1,0,,,,,,1153846,,,,,,,,
34984,note_on,0,0,8,,,,,,,,,7,,,,60,110
34984,note_on,60,0,8,,,,,,,,,7,,,,60,0
35040,set_tempo,60,1,0,,,,,,1200000,,,,,,,,
35041,control_change,660,0,1,,,,,,,,,0,11,42,,,
35041,note_on,0,0,1,,,,,,,,,0,,,,89,101
35042,control_change,660,0,2,,,,,,,,,1,11,42,,,
35042,note_on,0,0,3,,,,,,,,,2,,,,74,101
35042,control_change,660,0,3,,,,,,,,,2,11,42,,,
35044,note_on,0,0,8,,,,,,,,,7,,,,67,0
35044,note_on,0,0,8,,,,,,,,,7,,,,65,110
35044,note_on,0,0,8,,,,,,,,,7,,,,57,110
35044,note_on,60,0,8,,,,,,,,,7,,,,60,0
35046,note_on,120,0,9,,,,,,,,,8,,,,52,0
35046,note_on,0,0,9,,,,,,,,,8,,,,50,110
35100,set_tempo,60,1,0,,,,,,1111111,,,,,,,,
35102,note_on,60,0,2,,,,,,,,,1,,,,81,100
35104,note_on,60,0,8,,,,,,,,,7,,,,65,0
35104,note_on,0,0,8,,,,,,,,,7,,,,57,0
35106,note_on,60,0,9,,,,,,,,,8,,,,50,0
35160,set_tempo,60,1,0,,,,,,1188119,,,,,,,,
35161,note_on,0,0,1,,,,,,,,,0,,,,88,101
35161,note_on,120,0,1,,,,,,,,,0,,,,89,0
35162,note_on,120,0,3,,,,,,,,,2,,,,74,0
35162,note_on,0,0,3,,,,,,,,,2,,,,72,101
35220,set_tempo,60,1,0,,,,,,1111111,,,,,,,,
35222,note_on,0,0,2,,,,,,,,,1,,,,81,100
35222,note_on,120,0,2,,,,,,,,,1,,,,81,0
35280,set_tempo,60,1,0,,,,,,1224490,,,,,,,,
35280,note_on,0,0,11,,,,,,,,,10,,,,74,112
35280,control_change,420,0,11,,,,,,,,,10,11,31,,,
35281,note_on,120,0,1,,,,,,,,,0,,,,88,0
35281,note_on,0,0,1,,,,,,,,,0,,,,86,101
35282,note_on,0,0,3,,,,,,,,,2,,,,70,101
35282,note_on,120,0,3,,,,,,,,,2,,,,72,0
35282,note_on,0,0,2,,,,,,,,,1,,,,77,100
35282,note_on,60,0,2,,,,,,,,,1,,,,81,0
35285,note_on,420,0,13,,,,,,,,,12,,,,58,112
35285,control_change,0,0,13,,,,,,,,,12,11,31,,,
35298,control_change,18,0,11,,,,,,,,,10,11,34,,,
35303,control_change,18,0,13,,,,,,,,,12,11,34,,,
35316,control_change,18,0,11,,,,,,,,,10,11,37,,,
35321,control_change,18,0,13,,,,,,,,,12,11,37,,,
35334,control_change,18,0,11,,,,,,,,,10,11,40,,,
35339,control_change,18,0,13,,,,,,,,,12,11,40,,,
35340,set_tempo,60,1,0,,,,,,1153846,,,,,,,,
35341,note_on,60,0,1,,,,,,,,,0,,,,86,0
35342,control_change,480,0,12,,,,,,,,,11,11,31,,,
35342,note_on,60,0,3,,,,,,,,,2,,,,70,0
35342,note_on,60,0,2,,,,,,,,,1,,,,77,0
35342,note_on,0,0,12,,,,,,,,,11,,,,65,112
35346,control_change,4,0,12,,,,,,,,,11,11,34,,,
35351,control_change,5,0,12,,,,,,,,,11,11,37,,,
35352,control_change,18,0,11,,,,,,,,,10,11,42,,,
35355,control_change,4,0,12,,,,,,,,,11,11,40,,,
35357,control_change,18,0,13,,,,,,,,,12,11,42,,,
35364,control_change,9,0,12,,,,,,,,,11,11,45,,,
35369,control_change,5,0,12,,,,,,,,,11,11,48,,,
35370,control_change,18,0,11,,,,,,,,,10,11,45,,,
35375,control_change,18,0,13,,,,,,,,,12,11,45,,,
35388,control_change,18,0,11,,,,,,,,,10,11,48,,,
35393,control_change,18,0,13,,,,,,,,,12,11,48,,,
35400,note_on,0,0,11,,,,,,,,,10,,,,72,112
35400,set_tempo,60,1,0,,,,,,1224490,,,,,,,,
35400,note_on,12,0,11,,,,,,,,,10,,,,74,0
35405,note_on,0,0,13,,,,,,,,,12,,,,56,112
35405,note_on,12,0,13,,,,,,,,,12,,,,58,0
35457,note_on,88,0,12,,,,,,,,,11,,,,65,0
35460,set_tempo,60,1,0,,,,,,1153846,,,,,,,,
35462,note_on,5,0,12,,,,,,,,,11,,,,65,112
35515,note_on,115,0,11,,,,,,,,,10,,,,72,0
35520,note_on,5,0,11,,,,,,,,,10,,,,71,112
35520,set_tempo,60,1,0,,,,,,1200000,,,,,,,,
35525,note_on,120,0,13,,,,,,,,,12,,,,56,0
35525,note_on,0,0,13,,,,,,,,,12,,,,55,112
35527,note_on,0,0,14,,,,,,,,,13,,,,59,112
35527,control_change,660,0,14,,,,,,,,,13,11,31,,,
35527,note_on,0,0,14,,,,,,,,,13,,,,53,112
35529,control_change,660,0,15,,,,,,,,,14,11,31,,,
35529,note_on,0,0,15,,,,,,,,,14,,,,31,112
35536,control_change,9,0,14,,,,,,,,,13,11,34,,,
35538,control_change,9,0,15,,,,,,,,,14,11,34,,,
35545,control_change,9,0,14,,,,,,,,,13,11,37,,,
35547,control_change,9,0,15,,,,,,,,,14,11,37,,,
35554,control_change,9,0,14,,,,,,,,,13,11,40,,,
35556,control_change,9,0,15,,,,,,,,,14,11,40,,,
35580,set_tempo,60,1,0,,,,,,1153846,,,,,,,,
35610,control_change,90,0,11,,,,,,,,,10,11,50,,,
35612,control_change,150,0,12,,,,,,,,,11,11,50,,,
35615,control_change,90,0,13,,,,,,,,,12,11,50,,,
35618,control_change,8,0,11,,,,,,,,,10,11,47,,,
35620,control_change,8,0,12,,,,,,,,,11,11,47,,,
35623,control_change,8,0,13,,,,,,,,,12,11,47,,,
35627,control_change,9,0,11,,,,,,,,,10,11,44,,,
35629,control_change,9,0,12,,,,,,,,,11,11,44,,,
35632,control_change,9,0,13,,,,,,,,,12,11,44,,,
35640,set_tempo,60,1,0,,,,,,1200000,,,,,,,,
35640,note_on,13,0,11,,,,,,,,,10,,,,71,0
35641,note_on,0,0,5,,,,,,,,,4,,,,67,115
35641,control_change,3481,0,5,,,,,,,,,4,11,27,,,
35642,note_on,13,0,12,,,,,,,,,11,,,,65,0
35643,note_on,0,0,6,,,,,,,,,5,,,,67,115
35643,control_change,3481,0,6,,,,,,,,,5,11,27,,,
35645,note_on,13,0,13,,,,,,,,,12,,,,55,0
35647,control_change,6,0,5,,,,,,,,,4,11,30,,,
35649,control_change,6,0,6,,,,,,,,,5,11,30,,,
35654,control_change,7,0,5,,,,,,,,,4,11,33,,,
35656,control_change,7,0,6,,,,,,,,,5,11,33,,,
35661,control_change,7,0,5,,,,,,,,,4,11,36,,,
35663,control_change,7,0,6,,,,,,,,,5,11,36,,,
35668,control_change,7,0,5,,,,,,,,,4,11,39,,,
35670,control_change,7,0,6,,,,,,,,,5,11,39,,,
35674,control_change,6,0,5,,,,,,,,,4,11,42,,,
35676,control_change,6,0,6,,,,,,,,,5,11,42,,,
35681,control_change,7,0,5,,,,,,,,,4,11,45,,,
35683,control_change,7,0,6,,,,,,,,,5,11,45,,,
35700,set_tempo,60,1,0,,,,,,1153846,,,,,,,,
35760,note_on,0,0,11,,,,,,,,,10,,,,71,112
35760,control_change,120,0,11,,,,,,,,,10,11,37,,,
35760,set_tempo,60,1,0,,,,,,1200000,,,,,,,,
35761,note_on,80,0,5,,,,,,,,,4,,,,67,0
35762,note_on,0,0,12,,,,,,,,,11,,,,65,112
35762,control_change,120,0,12,,,,,,,,,11,11,37,,,
35763,note_on,80,0,6,,,,,,,,,5,,,,67,0
35765,note_on,120,0,13,,,,,,,,,12,,,,55,112
35765,control_change,0,0,13,,,,,,,,,12,11,37,,,
35767,note_on,213,0,14,,,,,,,,,13,,,,53,0
35767,note_on,0,0,14,,,,,,,,,13,,,,59,0
35769,note_on,213,0,15,,,,,,,,,14,,,,31,0
35769,control_change,9,0,11,,,,,,,,,10,11,40,,,
35771,control_change,9,0,12,,,,,,,,,11,11,40,,,
35774,control_change,9,0,13,,,,,,,,,12,11,40,,,
35787,control_change,18,0,11,,,,,,,,,10,11,45,,,
35789,control_change,18,0,12,,,,,,,,,11,11,45,,,
35792,control_change,18,0,13,,,,,,,,,12,11,45,,,
35820,set_tempo,60,1,0,,,,,,1153846,,,,,,,,
35880,set_tempo,60,1,0,,,,,,1200000,,,,,,,,
35881,control_change,0,0,5,,,,,,,,,4,11,27,,,
35881,note_on,120,0,5,,,,,,,,,4,,,,67,115
35883,control_change,0,0,6,,,,,,,,,5,11,27,,,
35883,note_on,120,0,6,,,,,,,,,5,,,,67,115
35887,control_change,6,0,5,,,,,,,,,4,11,30,,,
35889,control_change,6,0,6,,,,,,,,,5,11,30,,,
35894,control_change,7,0,5,,,,,,,,,4,11,33,,,
35896,control_change,7,0,6,,,,,,,,,5,11,33,,,
35901,control_change,7,0,5,,,,,,,,,4,11,36,,,
35903,control_change,7,0,6,,,,,,,,,5,11,36,,,
35908,control_change,7,0,5,,,,,,,,,4,11,39,,,
35910,control_change,7,0,6,,,,,,,,,5,11,39,,,
35914,control_change,6,0,5,,,,,,,,,4,11,42,,,
35916,control_change,6,0,6,,,,,,,,,5,11,42,,,
35921,control_change,7,0,5,,,,,,,,,4,11,45,,,
35923,control_change,7,0,6,,,,,,,,,5,11,45,,,
35940,set_tempo,60,1,0,,,,,,1153846,,,,,,,,
35970,control_change,183,0,11,,,,,,,,,10,11,45,,,
35972,control_change,183,0,12,,,,,,,,,11,11,45,,,
35974,control_change,4,0,11,,,,,,,,,10,11,42,,,
35975,control_change,183,0,13,,,,,,,,,12,11,45,,,
35976,control_change,4,0,12,,,,,,,,,11,11,42,,,
35979,control_change,4,0,13,,,,,,,,,12,11,42,,,
35983,control_change,9,0,11,,,,,,,,,10,11,37,,,
35985,control_change,9,0,12,,,,,,,,,11,11,37,,,
35988,control_change,5,0,11,,,,,,,,,10,11,34,,,
35988,control_change,9,0,13,,,,,,,,,12,11,37,,,
35990,control_change,5,0,12,,,,,,,,,11,11,34,,,
35992,control_change,4,0,11,,,,,,,,,10,11,31,,,
35993,control_change,5,0,13,,,,,,,,,12,11,34,,,
35994,control_change,4,0,12,,,,,,,,,11,11,31,,,
35997,control_change,4,0,13,,,,,,,,,12,11,31,,,
35997,control_change,5,0,11,,,,,,,,,10,11,28,,,
35999,control_change,5,0,12,,,,,,,,,11,11,28,,,
36000,set_tempo,60,1,0,,,,,,1200000,,,,,,,,
36000,note_on,3,0,11,,,,,,,,,10,,,,71,0
36001,note_on,80,0,5,,,,,,,,,4,,,,67,0
36002,control_change,5,0,13,,,,,,,,,12,11,28,,,
36002,note_on,3,0,12,,,,,,,,,11,,,,65,0
36003,note_on,80,0,6,,,,,,,,,5,,,,67,0
36005,note_on,3,0,13,,,,,,,,,12,,,,55,0
36007,control_change,240,0,14,,,,,,,,,13,11,31,,,
36007,note_on,0,0,14,,,,,,,,,13,,,,58,112
36007,note_on,0,0,14,,,,,,,,,13,,,,52,112
36009,control_change,240,0,15,,,,,,,,,14,11,31,,,
36009,note_on,0,0,15,,,,,,,,,14,,,,36,112
36016,control_change,9,0,14,,,,,,,,,13,11,34,,,
36018,control_change,9,0,15,,,,,,,,,14,11,34,,,
36025,control_change,9,0,14,,,,,,,,,13,11,37,,,
36027,control_change,9,0,15,,,,,,,,,14,11,37,,,
36034,control_change,9,0,14,,,,,,,,,13,11,40,,,
36036,control_change,9,0,15,,,,,,,,,14,11,40,,,
36060,set_tempo,60,1,0,,,,,,1153846,,,,,,,,
36120,set_tempo,60,1,0,,,,,,1200000,,,,,,,,
36121,note_on,120,0,5,,,,,,,,,4,,,,67,100
36121,control_change,0,0,5,,,,,,,,,4,11,27,,,
36123,note_on,120,0,6,,,,,,,,,5,,,,67,100
36123,control_change,0,0,6,,,,,,,,,5,11,27,,,
36127,control_change,6,0,5,,,,,,,,,4,11,30,,,
36129,control_change,6,0,6,,,,,,,,,5,11,30,,,
36134,control_change,7,0,5,,,,,,,,,4,11,33,,,
36136,control_change,7,0,6,,,,,,,,,5,11,33,,,
36141,control_change,7,0,5,,,,,,,,,4,11,36,,,
36143,control_change,7,0,6,,,,,,,,,5,11,36,,,
36148,control_change,7,0,5,,,,,,,,,4,11,39,,,
36150,control_change,7,0,6,,,,,,,,,5,11,39,,,
36154,control_change,6,0,5,,,,,,,,,4,11,42,,,
36156,control_change,6,0,6,,,,,,,,,5,11,42,,,
36161,control_change,7,0,5,,,,,,,,,4,11,45,,,
36163,control_change,7,0,6,,,,,,,,,5,11,45,,,
36180,set_tempo,60,1,0,,,,,,1153846,,,,,,,,
36240,set_tempo,60,1,0,,,,,,1200000,,,,,,,,
36240,note_on,0,0,11,,,,,,,,,10,,,,70,112
36240,control_change,240,0,11,,,,,,,,,10,11,33,,,
36241,note_on,80,0,5,,,,,,,,,4,,,,67,0
36242,note_on,0,0,12,,,,,,,,,11,,,,64,112
36242,control_change,240,0,12,,,,,,,,,11,11,33,,,
36243,note_on,80,0,6,,,,,,,,,5,,,,67,0
36245,note_on,0,0,13,,,,,,,,,12,,,,60,112
36245,control_change,240,0,13,,,,,,,,,12,11,33,,,
36247,note_on,0,0,14,,,,,,,,,13,,,,58,0
36247,note_on,213,0,14,,,,,,,,,13,,,,52,0
36249,control_change,9,0,11,,,,,,,,,10,11,36,,,
36249,note_on,213,0,15,,,,,,,,,14,,,,36,0
36251,control_change,9,0,12,,,,,,,,,11,11,36,,,
36254,control_change,9,0,13,,,,,,,,,12,11,36,,,
36258,control_change,9,0,11,,,,,,,,,10,11,39,,,
36260,control_change,9,0,12,,,,,,,,,11,11,39,,,
36263,control_change,9,0,13,,,,,,,,,12,11,39,,,
36267,control_change,9,0,11,,,,,,,,,10,11,42,,,
36269,control_change,9,0,12,,,,,,,,,11,11,42,,,
36272,control_change,9,0,13,,,,,,,,,12,11,42,,,
36300,set_tempo,60,1,0,,,,,,1153846,,,,,,,,
36360,set_tempo,60,1,0,,,,,,1200000,,,,,,,,
36361,note_on,120,0,5,,,,,,,,,4,,,,67,100
36361,control_change,0,0,5,,,,,,,,,4,11,27,,,
36363,control_change,0,0,6,,,,,,,,,5,11,27,,,
36363,note_on,120,0,6,,,,,,,,,5,,,,67,100
36367,control_change,6,0,5,,,,,,,,,4,11,30,,,
36369,control_change,6,0,6,,,,,,,,,5,11,30,,,
36374,control_change,7,0,5,,,,,,,,,4,11,33,,,
36376,control_change,7,0,6,,,,,,,,,5,11,33,,,
36381,control_change,7,0,5,,,,,,,,,4,11,36,,,
36383,control_change,7,0,6,,,,,,,,,5,11,36,,,
36388,control_change,7,0,5,,,,,,,,,4,11,39,,,
36390,control_change,7,0,6,,,,,,,,,5,11,39,,,
36394,control_change,6,0,5,,,,,,,,,4,11,42,,,
36396,control_change,6,0,6,,,,,,,,,5,11,42,,,
36401,control_change,7,0,5,,,,,,,,,4,11,45,,,
36403,control_change,7,0,6,,,,,,,,,5,11,45,,,
36420,set_tempo,60,1,0,,,,,,1153846,,,,,,,,
36450,control_change,183,0,11,,,,,,,,,10,11,42,,,
36452,control_change,183,0,12,,,,,,,,,11,11,42,,,
36455,control_change,183,0,13,,,,,,,,,12,11,42,,,
36455,control_change,5,0,11,,,,,,,,,10,11,39,,,
36457,control_change,5,0,12,,,,,,,,,11,11,39,,,
36460,control_change,5,0,13,,,,,,,,,12,11,39,,,
36461,control_change,6,0,11,,,,,,,,,10,11,36,,,
36463,control_change,6,0,12,,,,,,,,,11,11,36,,,
36466,control_change,6,0,13,,,,,,,,,12,11,36,,,
36466,control_change,5,0,11,,,,,,,,,10,11,33,,,
36468,control_change,5,0,12,,,,,,,,,11,11,33,,,
36471,control_change,5,0,13,,,,,,,,,12,11,33,,,
36472,control_change,6,0,11,,,,,,,,,10,11,30,,,
36474,control_change,6,0,12,,,,,,,,,11,11,30,,,
36477,control_change,6,0,13,,,,,,,,,12,11,30,,,
36478,control_change,6,0,11,,,,,,,,,10,11,27,,,
36480,control_change,6,0,12,,,,,,,,,11,11,27,,,
36480,set_tempo,60,1,0,,,,,,1200000,,,,,,,,
36480,note_on,2,0,11,,,,,,,,,10,,,,70,0
36481,note_on,80,0,5,,,,,,,,,4,,,,67,0
36481,control_change,0,0,5,,,,,,,,,4,11,47,,,
36482,note_on,2,0,12,,,,,,,,,11,,,,64,0
36483,note_on,80,0,6,,,,,,,,,5,,,,67,0
36483,control_change,6,0,13,,,,,,,,,12,11,27,,,
36483,control_change,0,0,6,,,,,,,,,5,11,47,,,
36485,note_on,2,0,13,,,,,,,,,12,,,,60,0
36487,note_on,240,0,14,,,,,,,,,13,,,,52,112
36487,control_change,0,0,14,,,,,,,,,13,11,31,,,
36487,note_on,0,0,14,,,,,,,,,13,,,,57,112
36489,control_change,240,0,15,,,,,,,,,14,11,31,,,
36489,note_on,0,0,15,,,,,,,,,14,,,,37,112
36496,control_change,9,0,14,,,,,,,,,13,11,34,,,
36498,control_change,9,0,15,,,,,,,,,14,11,34,,,
36505,control_change,9,0,14,,,,,,,,,13,11,37,,,
36507,control_change,9,0,15,,,,,,,,,14,11,37,,,
36514,control_change,9,0,14,,,,,,,,,13,11,40,,,
36516,control_change,9,0,15,,,,,,,,,14,11,40,,,
36540,set_tempo,60,1,0,,,,,,1153846,,,,,,,,
36576,control_change,95,0,5,,,,,,,,,4,11,46,,,
36578,control_change,95,0,6,,,,,,,,,5,11,46,,,
36582,control_change,68,0,14,,,,,,,,,13,11,40,,,
36584,control_change,68,0,15,,,,,,,,,14,11,40,,,
36600,set_tempo,60,1,0,,,,,,1200000,,,,,,,,
36601,note_on,25,0,5,,,,,,,,,4,,,,67,100
36603,note_on,25,0,6,,,,,,,,,5,,,,67,100
36660,set_tempo,60,1,0,,,,,,1153846,,,,,,,,
36672,control_change,71,0,5,,,,,,,,,4,11,45,,,
36674,control_change,71,0,6,,,,,,,,,5,11,45,,,
36678,control_change,96,0,14,,,,,,,,,13,11,39,,,
36680,control_change,96,0,15,,,,,,,,,14,11,39,,,
36720,control_change,240,0,11,,,,,,,,,10,11,33,,,
36720,set_tempo,60,1,0,,,,,,1200000,,,,,,,,
36720,note_on,0,0,11,,,,,,,,,10,,,,70,112
36721,note_on,49,0,5,,,,,,,,,4,,,,67,0
36722,note_on,0,0,12,,,,,,,,,11,,,,64,112
36722,control_change,240,0,12,,,,,,,,,11,11,33,,,
36723,note_on,49,0,6,,,,,,,,,5,,,,67,0
36725,control_change,0,0,13,,,,,,,,,12,11,33,,,
36725,note_on,240,0,13,,,,,,,,,12,,,,60,112
36727,note_on,0,0,14,,,,,,,,,13,,,,52,0
36727,note_on,49,0,14,,,,,,,,,13,,,,57,0
36729,control_change,9,0,11,,,,,,,,,10,11,36,,,
36729,note_on,49,0,15,,,,,,,,,14,,,,37,0
36731,control_change,9,0,12,,,,,,,,,11,11,36,,,
36734,control_change,9,0,13,,,,,,,,,12,11,36,,,
36738,control_change,9,0,11,,,,,,,,,10,11,39,,,
36740,control_change,9,0,12,,,,,,,,,11,11,39,,,
36743,control_change,9,0,13,,,,,,,,,12,11,39,,,
36747,control_change,9,0,11,,,,,,,,,10,11,42,,,
36749,control_change,9,0,12,,,,,,,,,11,11,42,,,
36752,control_change,9,0,13,,,,,,,,,12,11,42,,,
36768,control_change,47,0,5,,,,,,,,,4,11,44,,,
36770,control_change,47,0,6,,,,,,,,,5,11,44,,,
36774,control_change,47,0,14,,,,,,,,,13,11,38,,,
36776,control_change,47,0,15,,,,,,,,,14,11,38,,,
36780,set_tempo,60,1,0,,,,,,1165049,,,,,,,,
36840,set_tempo,60,1,0,,,,,,1224490,,,,,,,,
36841,note_on,73,0,5,,,,,,,,,4,,,,67,100
36843,note_on,73,0,6,,,,,,,,,5,,,,67,100
36864,control_change,23,0,5,,,,,,,,,4,11,43,,,
36866,control_change,23,0,6,,,,,,,,,5,11,43,,,
36870,control_change,96,0,14,,,,,,,,,13,11,37,,,
36872,control_change,96,0,15,,,,,,,,,14,11,37,,,
36900,set_tempo,60,1,0,,,,,,1165049,,,,,,,,
36930,control_change,183,0,11,,,,,,,,,10,11,42,,,
36932,control_change,183,0,12,,,,,,,,,11,11,42,,,
36935,control_change,183,0,13,,,,,,,,,12,11,42,,,
36935,control_change,5,0,11,,,,,,,,,10,11,39,,,
36937,control_change,5,0,12,,,,,,,,,11,11,39,,,
36940,control_change,5,0,13,,,,,,,,,12,11,39,,,
36941,control_change,6,0,11,,,,,,,,,10,11,36,,,
36943,control_change,6,0,12,,,,,,,,,11,11,36,,,
36946,control_change,6,0,13,,,,,,,,,12,11,36,,,
36946,control_change,5,0,11,,,,,,,,,10,11,33,,,
36948,control_change,5,0,12,,,,,,,,,11,11,33,,,
36951,control_change,5,0,13,,,,,,,,,12,11,33,,,
36952,control_change,6,0,11,,,,,,,,,10,11,30,,,
36954,control_change,6,0,12,,,,,,,,,11,11,30,,,
36957,control_change,6,0,13,,,,,,,,,12,11,30,,,
36958,control_change,6,0,11,,,,,,,,,10,11,27,,,
36960,control_change,96,0,5,,,,,,,,,4,11,42,,,
36960,note_on,2,0,11,,,,,,,,,10,,,,70,0
36960,set_tempo,60,1,0,,,,,,1224490,,,,,,,,
36960,control_change,6,0,12,,,,,,,,,11,11,27,,,
36961,note_on,1,0,5,,,,,,,,,4,,,,67,0
36962,note_on,2,0,12,,,,,,,,,11,,,,64,0
36962,control_change,96,0,6,,,,,,,,,5,11,42,,,
36963,note_on,1,0,6,,,,,,,,,5,,,,67,0
36963,control_change,6,0,13,,,,,,,,,12,11,27,,,
36965,note_on,2,0,13,,,,,,,,,12,,,,60,0
36967,control_change,97,0,14,,,,,,,,,13,11,36,,,
36967,note_on,0,0,14,,,,,,,,,13,,,,57,112
36967,note_on,0,0,14,,,,,,,,,13,,,,52,112
36969,control_change,97,0,15,,,,,,,,,14,11,36,,,
36969,note_on,0,0,15,,,,,,,,,14,,,,37,112
36976,control_change,9,0,14,,,,,,,,,13,11,39,,,
36978,control_change,9,0,15,,,,,,,,,14,11,39,,,
36985,control_change,9,0,14,,,,,,,,,13,11,42,,,
36987,control_change,9,0,15,,,,,,,,,14,11,42,,,
37020,set_tempo,60,1,0,,,,,,1176471,,,,,,,,
37056,control_change,95,0,5,,,,,,,,,4,11,41,,,
37058,control_change,95,0,6,,,,,,,,,5,11,41,,,
37062,control_change,77,0,14,,,,,,,,,13,11,44,,,
37064,control_change,77,0,15,,,,,,,,,14,11,44,,,
37080,set_tempo,60,1,0,,,,,,1224490,,,,,,,,
37081,note_on,25,0,5,,,,,,,,,4,,,,67,100
37083,note_on,25,0,6,,,,,,,,,5,,,,67,100
37140,set_tempo,60,1,0,,,,,,1176471,,,,,,,,
37152,control_change,71,0,5,,,,,,,,,4,11,40,,,
37154,control_change,71,0,6,,,,,,,,,5,11,40,,,
37158,control_change,96,0,14,,,,,,,,,13,11,43,,,
37160,control_change,96,0,15,,,,,,,,,14,11,43,,,
37200,note_on,0,0,11,,,,,,,,,10,,,,70,112
37200,control_change,240,0,11,,,,,,,,,10,11,33,,,
37200,set_tempo,60,1,0,,,,,,1237113,,,,,,,,
37201,note_on,49,0,5,,,,,,,,,4,,,,67,0
37202,note_on,0,0,12,,,,,,,,,11,,,,64,112
37202,control_change,240,0,12,,,,,,,,,11,11,33,,,
37203,note_on,49,0,6,,,,,,,,,5,,,,67,0
37205,control_change,0,0,13,,,,,,,,,12,11,33,,,
37205,note_on,240,0,13,,,,,,,,,12,,,,60,112
37207,note_on,0,0,14,,,,,,,,,13,,,,57,0
37207,note_on,49,0,14,,,,,,,,,13,,,,52,0
37209,note_on,49,0,15,,,,,,,,,14,,,,37,0
37209,control_change,9,0,11,,,,,,,,,10,11,36,,,
37211,control_change,9,0,12,,,,,,,,,11,11,36,,,
37214,control_change,9,0,13,,,,,,,,,12,11,36,,,
37218,control_change,9,0,11,,,,,,,,,10,11,39,,,
37220,control_change,9,0,12,,,,,,,,,11,11,39,,,
37223,control_change,9,0,13,,,,,,,,,12,11,39,,,
37227,control_change,9,0,11,,,,,,,,,10,11,42,,,
37229,control_change,9,0,12,,,,,,,,,11,11,42,,,
37232,control_change,9,0,13,,,,,,,,,12,11,42,,,
37248,control_change,47,0,5,,,,,,,,,4,11,39,,,
37250,control_change,47,0,6,,,,,,,,,5,11,39,,,
37254,control_change,47,0,14,,,,,,,,,13,11,42,,,
37256,control_change,47,0,15,,,,,,,,,14,11,42,,,
37260,set_tempo,60,1,0,,,,,,1176471,,,,,,,,
37320,set_tempo,60,1,0,,,,,,1237113,,,,,,,,
37321,note_on,73,0,5,,,,,,,,,4,,,,67,100
37323,note_on,73,0,6,,,,,,,,,5,,,,67,100
37344,control_change,23,0,5,,,,,,,,,4,11,38,,,
37346,control_change,23,0,6,,,,,,,,,5,11,38,,,
37350,control_change,96,0,14,,,,,,,,,13,11,42,,,
37352,control_change,96,0,15,,,,,,,,,14,11,42,,,
37380,set_tempo,60,1,0,,,,,,1188119,,,,,,,,
37410,control_change,183,0,11,,,,,,,,,10,11,42,,,
37412,control_change,183,0,12,,,,,,,,,11,11,42,,,
37415,control_change,5,0,11,,,,,,,,,10,11,39,,,
37415,control_change,183,0,13,,,,,,,,,12,11,42,,,
37417,control_change,5,0,12,,,,,,,,,11,11,39,,,
37420,control_change,5,0,13,,,,,,,,,12,11,39,,,
37421,control_change,6,0,11,,,,,,,,,10,11,36,,,
37423,control_change,6,0,12,,,,,,,,,11,11,36,,,
37426,control_change,6,0,13,,,,,,,,,12,11,36,,,
37426,control_change,5,0,11,,,,,,,,,10,11,33,,,
37428,control_change,5,0,12,,,,,,,,,11,11,33,,,
37431,control_change,5,0,13,,,,,,,,,12,11,33,,,
37432,control_change,6,0,11,,,,,,,,,10,11,30,,,
37434,control_change,6,0,12,,,,,,,,,11,11,30,,,
37437,control_change,6,0,13,,,,,,,,,12,11,30,,,
37438,control_change,6,0,11,,,,,,,,,10,11,27,,,
37440,note_on,2,0,11,,,,,,,,,10,,,,70,0
37440,set_tempo,60,1,0,,,,,,1250000,,,,,,,,
37440,control_change,96,0,5,,,,,,,,,4,11,37,,,
37440,control_change,6,0,12,,,,,,,,,11,11,27,,,
37441,note_on,1,0,5,,,,,,,,,4,,,,67,0
37442,note_on,2,0,12,,,,,,,,,11,,,,64,0
37442,control_change,96,0,6,,,,,,,,,5,11,37,,,
37443,control_change,6,0,13,,,,,,,,,12,11,27,,,
37443,note_on,1,0,6,,,,,,,,,5,,,,67,0
37445,note_on,2,0,13,,,,,,,,,12,,,,60,0
37447,note_on,0,0,14,,,,,,,,,13,,,,52,112
37447,control_change,97,0,14,,,,,,,,,13,11,31,,,
37447,note_on,0,0,14,,,,,,,,,13,,,,57,112
37449,control_change,97,0,15,,,,,,,,,14,11,31,,,
37449,note_on,0,0,15,,,,,,,,,14,,,,37,112
37456,control_change,9,0,14,,,,,,,,,13,11,34,,,
37458,control_change,9,0,15,,,,,,,,,14,11,34,,,
37465,control_change,9,0,14,,,,,,,,,13,11,37,,,
37467,control_change,9,0,15,,,,,,,,,14,11,37,,,
37474,control_change,9,0,14,,,,,,,,,13,11,40,,,
37476,control_change,9,0,15,,,,,,,,,14,11,40,,,
37500,set_tempo,60,1,0,,,,,,1188119,,,,,,,,
37510,control_change,36,0,14,,,,,,,,,13,11,42,,,
37512,control_change,36,0,15,,,,,,,,,14,11,42,,,
37542,control_change,32,0,14,,,,,,,,,13,11,43,,,
37544,control_change,32,0,15,,,,,,,,,14,11,43,,,
37560,control_change,120,0,11,,,,,,,,,10,11,31,,,
37560,note_on,0,0,11,,,,,,,,,10,,,,76,112
37560,set_tempo,60,1,0,,,,,,1188119,,,,,,,,
37561,control_change,120,0,5,,,,,,,,,4,11,37,,,
37561,note_on,0,0,5,,,,,,,,,4,,,,67,100
37562,control_change,120,0,12,,,,,,,,,11,11,31,,,
37562,note_on,0,0,12,,,,,,,,,11,,,,69,112
37563,control_change,0,0,6,,,,,,,,,5,11,37,,,
37563,note_on,120,0,6,,,,,,,,,5,,,,67,100
37564,control_change,4,0,11,,,,,,,,,10,11,34,,,
37565,control_change,120,0,13,,,,,,,,,12,11,31,,,
37565,note_on,0,0,13,,,,,,,,,12,,,,64,112
37565,note_on,0,0,13,,,,,,,,,12,,,,61,112
37566,control_change,4,0,12,,,,,,,,,11,11,34,,,
37569,control_change,5,0,11,,,,,,,,,10,11,37,,,
37569,control_change,4,0,13,,,,,,,,,12,11,34,,,
37571,control_change,5,0,12,,,,,,,,,11,11,37,,,
37573,control_change,4,0,11,,,,,,,,,10,11,40,,,
37574,control_change,32,0,14,,,,,,,,,13,11,44,,,
37574,control_change,5,0,13,,,,,,,,,12,11,37,,,
37575,control_change,4,0,12,,,,,,,,,11,11,40,,,
37576,control_change,32,0,15,,,,,,,,,14,11,44,,,
37578,control_change,4,0,13,,,,,,,,,12,11,40,,,
37582,control_change,9,0,11,,,,,,,,,10,11,45,,,
37584,control_change,23,0,5,,,,,,,,,4,11,38,,,
37584,control_change,9,0,12,,,,,,,,,11,11,45,,,
37586,control_change,23,0,6,,,,,,,,,5,11,38,,,
37587,control_change,9,0,13,,,,,,,,,12,11,45,,,
37587,control_change,5,0,11,,,,,,,,,10,11,48,,,
37589,control_change,5,0,12,,,,,,,,,11,11,48,,,
37592,control_change,5,0,13,,,,,,,,,12,11,48,,,
37606,control_change,32,0,14,,,,,,,,,13,11,45,,,
37608,control_change,32,0,15,,,,,,,,,14,11,45,,,
37608,control_change,24,0,5,,,,,,,,,4,11,39,,,
37610,control_change,24,0,6,,,,,,,,,5,11,39,,,
37620,set_tempo,60,1,0,,,,,,1111111,,,,,,,,
37632,control_change,24,0,5,,,,,,,,,4,11,40,,,
37634,control_change,24,0,6,,,,,,,,,5,11,40,,,
37638,control_change,32,0,14,,,,,,,,,13,11,46,,,
37640,control_change,32,0,15,,,,,,,,,14,11,46,,,
37656,control_change,24,0,5,,,,,,,,,4,11,41,,,
37658,control_change,24,0,6,,,,,,,,,5,11,41,,,
37670,control_change,32,0,14,,,,,,,,,13,11,47,,,
37672,control_change,32,0,15,,,,,,,,,14,11,47,,,
37680,control_change,24,0,5,,,,,,,,,4,11,42,,,
37680,note_on,93,0,11,,,,,,,,,10,,,,76,0
37680,set_tempo,60,1,0,,,,,,1200000,,,,,,,,
37682,control_change,24,0,6,,,,,,,,,5,11,42,,,
37682,note_on,93,0,12,,,,,,,,,11,,,,69,0
37685,note_on,93,0,13,,,,,,,,,12,,,,64,0
37685,note_on,0,0,13,,,,,,,,,12,,,,61,0
37687,note_on,0,0,14,,,,,,,,,13,,,,57,0
37687,note_on,0,0,14,,,,,,,,,13,,,,58,112
37687,note_on,0,0,14,,,,,,,,,13,,,,53,112
37687,note_on,17,0,14,,,,,,,,,13,,,,52,0
37689,note_on,17,0,15,,,,,,,,,14,,,,37,0
37689,note_on,0,0,15,,,,,,,,,14,,,,38,112
37702,control_change,15,0,14,,,,,,,,,13,11,48,,,
37704,control_change,15,0,15,,,,,,,,,14,11,48,,,
37704,control_change,24,0,5,,,,,,,,,4,11,43,,,
37706,control_change,24,0,6,,,,,,,,,5,11,43,,,
37728,control_change,24,0,5,,,,,,,,,4,11,44,,,
37730,control_change,24,0,6,,,,,,,,,5,11,44,,,
37734,control_change,32,0,14,,,,,,,,,13,11,49,,,
37736,control_change,32,0,15,,,,,,,,,14,11,49,,,
37740,set_tempo,60,1,0,,,,,,1111111,,,,,,,,
37752,control_change,24,0,5,,,,,,,,,4,11,45,,,
37754,control_change,24,0,6,,,,,,,,,5,11,45,,,
37766,control_change,32,0,14,,,,,,,,,13,11,50,,,
37768,control_change,32,0,15,,,,,,,,,14,11,50,,,
37776,control_change,24,0,5,,,,,,,,,4,11,46,,,
37778,control_change,24,0,6,,,,,,,,,5,11,46,,,
37798,control_change,32,0,14,,,,,,,,,13,11,51,,,
37800,note_on,0,0,11,,,,,,,,,10,,,,74,112
37800,set_tempo,60,1,0,,,,,,1188119,,,,,,,,
37800,control_change,120,0,11,,,,,,,,,10,11,45,,,
37800,control_change,24,0,5,,,,,,,,,4,11,47,,,
37800,control_change,32,0,15,,,,,,,,,14,11,51,,,
37801,note_on,0,0,5,,,,,,,,,4,,,,65,100
37801,note_on,1,0,5,,,,,,,,,4,,,,67,0
37802,control_change,24,0,6,,,,,,,,,5,11,47,,,
37802,control_change,120,0,12,,,,,,,,,11,11,45,,,
37802,note_on,0,0,12,,,,,,,,,11,,,,70,112
37803,note_on,1,0,6,,,,,,,,,5,,,,67,0
37803,note_on,0,0,6,,,,,,,,,5,,,,65,100
37805,note_on,0,0,13,,,,,,,,,12,,,,62,112
37805,control_change,120,0,13,,,,,,,,,12,11,45,,,
37805,note_on,0,0,13,,,,,,,,,12,,,,65,112
37809,control_change,9,0,11,,,,,,,,,10,11,48,,,
37811,control_change,9,0,12,,,,,,,,,11,11,48,,,
37814,control_change,9,0,13,,,,,,,,,12,11,48,,,
37818,control_change,9,0,11,,,,,,,,,10,11,51,,,
37820,control_change,9,0,12,,,,,,,,,11,11,51,,,
37823,control_change,9,0,13,,,,,,,,,12,11,51,,,
37824,control_change,23,0,5,,,,,,,,,4,11,48,,,
37826,control_change,23,0,6,,,,,,,,,5,11,48,,,
37827,control_change,9,0,11,,,,,,,,,10,11,54,,,
37829,control_change,9,0,12,,,,,,,,,11,11,54,,,
37830,control_change,32,0,14,,,,,,,,,13,11,52,,,
37832,control_change,9,0,13,,,,,,,,,12,11,54,,,
37832,control_change,32,0,15,,,,,,,,,14,11,52,,,
37848,control_change,24,0,5,,,,,,,,,4,11,49,,,
37850,control_change,24,0,6,,,,,,,,,5,11,49,,,
37860,set_tempo,60,1,0,,,,,,1111111,,,,,,,,
37862,control_change,32,0,14,,,,,,,,,13,11,53,,,
37864,control_change,32,0,15,,,,,,,,,14,11,53,,,
37872,control_change,24,0,5,,,,,,,,,4,11,50,,,
37874,control_change,24,0,6,,,,,,,,,5,11,50,,,
37894,control_change,32,0,14,,,,,,,,,13,11,54,,,
37896,control_change,32,0,15,,,,,,,,,14,11,54,,,
37896,control_change,24,0,5,,,,,,,,,4,11,51,,,
37898,control_change,24,0,6,,,,,,,,,5,11,51,,,
37920,set_tempo,60,1,0,,,,,,1200000,,,,,,,,
37920,note_on,93,0,11,,,,,,,,,10,,,,74,0
37920,control_change,24,0,5,,,,,,,,,4,11,52,,,
37922,note_on,93,0,12,,,,,,,,,11,,,,70,0
37922,control_change,24,0,6,,,,,,,,,5,11,52,,,
37925,note_on,0,0,13,,,,,,,,,12,,,,62,0
37925,note_on,93,0,13,,,,,,,,,12,,,,65,0
37926,control_change,32,0,14,,,,,,,,,13,11,55,,,
37927,note_on,1,0,14,,,,,,,,,13,,,,53,0
37927,note_on,0,0,14,,,,,,,,,13,,,,58,0
37927,note_on,0,0,14,,,,,,,,,13,,,,60,112
37927,note_on,0,0,14,,,,,,,,,13,,,,57,112
37928,control_change,32,0,15,,,,,,,,,14,11,55,,,
37929,note_on,1,0,15,,,,,,,,,14,,,,38,0
37929,note_on,0,0,15,,,,,,,,,14,,,,40,112
37952,control_change,32,0,5,,,,,,,,,4,11,51,,,
37954,control_change,32,0,6,,,,,,,,,5,11,51,,,
37958,control_change,31,0,14,,,,,,,,,13,11,54,,,
37960,control_change,31,0,15,,,,,,,,,14,11,54,,,
37980,set_tempo,60,1,0,,,,,,1111111,,,,,,,,
37984,control_change,32,0,5,,,,,,,,,4,11,50,,,
37986,control_change,32,0,6,,,,,,,,,5,11,50,,,
37990,control_change,32,0,14,,,,,,,,,13,11,53,,,
37992,control_change,32,0,15,,,,,,,,,14,11,53,,,
38011,note_on,27,0,5,,,,,,,,,4,,,,65,0
38011,note_on,0,0,5,,,,,,,,,4,,,,64,100
38013,note_on,27,0,6,,,,,,,,,5,,,,65,0
38013,note_on,0,0,6,,,,,,,,,5,,,,64,100
38016,control_change,5,0,5,,,,,,,,,4,11,49,,,
38018,control_change,5,0,6,,,,,,,,,5,11,49,,,
38022,control_change,32,0,14,,,,,,,,,13,11,52,,,
38024,control_change,32,0,15,,,,,,,,,14,11,52,,,
38040,set_tempo,60,1,0,,,,,,1188119,,,,,,,,
38040,control_change,120,0,11,,,,,,,,,10,11,41,,,
38040,note_on,0,0,11,,,,,,,,,10,,,,72,112
38041,note_on,0,0,5,,,,,,,,,4,,,,64,100
38041,note_on,25,0,5,,,,,,,,,4,,,,64,0
38042,note_on,0,0,12,,,,,,,,,11,,,,69,112
38042,control_change,120,0,12,,,,,,,,,11,11,41,,,
38043,note_on,0,0,6,,,,,,,,,5,,,,64,100
38043,note_on,25,0,6,,,,,,,,,5,,,,64,0
38045,control_change,0,0,13,,,,,,,,,12,11,41,,,
38045,note_on,120,0,13,,,,,,,,,12,,,,64,112
38048,control_change,7,0,5,,,,,,,,,4,11,48,,,
38050,control_change,7,0,6,,,,,,,,,5,11,48,,,
38054,control_change,32,0,14,,,,,,,,,13,11,51,,,
38056,control_change,32,0,15,,,,,,,,,14,11,51,,,
38058,control_change,18,0,11,,,,,,,,,10,11,46,,,
38060,control_change,18,0,12,,,,,,,,,11,11,46,,,
38063,control_change,18,0,13,,,,,,,,,12,11,46,,,
38067,control_change,9,0,11,,,,,,,,,10,11,49,,,
38069,control_change,9,0,12,,,,,,,,,11,11,49,,,
38072,control_change,9,0,13,,,,,,,,,12,11,49,,,
38080,control_change,32,0,5,,,,,,,,,4,11,47,,,
38082,control_change,32,0,6,,,,,,,,,5,11,47,,,
38086,control_change,32,0,14,,,,,,,,,13,11,50,,,
38088,control_change,32,0,15,,,,,,,,,14,11,50,,,
38093,note_on,13,0,5,,,,,,,,,4,,,,64,0
38095,note_on,13,0,6,,,,,,,,,5,,,,64,0
38100,set_tempo,60,1,0,,,,,,1132075,,,,,,,,
38101,note_on,8,0,5,,,,,,,,,4,,,,64,100
38103,note_on,8,0,6,,,,,,,,,5,,,,64,100
38112,control_change,11,0,5,,,,,,,,,4,11,46,,,
38114,control_change,11,0,6,,,,,,,,,5,11,46,,,
38118,control_change,32,0,14,,,,,,,,,13,11,49,,,
38120,control_change,32,0,15,,,,,,,,,14,11,49,,,
38144,control_change,32,0,5,,,,,,,,,4,11,45,,,
38146,control_change,32,0,6,,,,,,,,,5,11,45,,,
38150,control_change,32,0,14,,,,,,,,,13,11,48,,,
38152,control_change,32,0,15,,,,,,,,,14,11,48,,,
38153,note_on,9,0,5,,,,,,,,,4,,,,64,0
38155,note_on,9,0,6,,,,,,,,,5,,,,64,0
38160,set_tempo,60,1,0,,,,,,1224490,,,,,,,,
38160,note_on,93,0,11,,,,,,,,,10,,,,72,0
38161,note_on,8,0,5,,,,,,,,,4,,,,64,100
38162,note_on,93,0,12,,,,,,,,,11,,,,69,0
38163,note_on,8,0,6,,,,,,,,,5,,,,64,100
38165,note_on,93,0,13,,,,,,,,,12,,,,64,0
38167,note_on,0,0,14,,,,,,,,,13,,,,59,112
38167,note_on,0,0,14,,,,,,,,,13,,,,62,112
38167,note_on,0,0,14,,,,,,,,,13,,,,60,0
38167,note_on,17,0,14,,,,,,,,,13,,,,57,0
38169,note_on,17,0,15,,,,,,,,,14,,,,40,0
38169,note_on,0,0,15,,,,,,,,,14,,,,40,112
38176,control_change,15,0,5,,,,,,,,,4,11,44,,,
38178,control_change,15,0,6,,,,,,,,,5,11,44,,,
38182,control_change,15,0,14,,,,,,,,,13,11,47,,,
38184,control_change,15,0,15,,,,,,,,,14,11,47,,,
38208,control_change,32,0,5,,,,,,,,,4,11,43,,,
38210,control_change,32,0,6,,,,,,,,,5,11,43,,,
38213,note_on,5,0,5,,,,,,,,,4,,,,64,0
38214,control_change,32,0,14,,,,,,,,,13,11,46,,,
38215,note_on,5,0,6,,,,,,,,,5,,,,64,0
38216,control_change,32,0,15,,,,,,,,,14,11,46,,,
38220,set_tempo,60,1,0,,,,,,1142857,,,,,,,,
38221,note_on,8,0,5,,,,,,,,,4,,,,64,100
38223,note_on,8,0,6,,,,,,,,,5,,,,64,100
38240,control_change,19,0,5,,,,,,,,,4,11,42,,,
38242,control_change,19,0,6,,,,,,,,,5,11,42,,,
38246,control_change,32,0,14,,,,,,,,,13,11,45,,,
38248,control_change,32,0,15,,,,,,,,,14,11,45,,,
38272,control_change,32,0,5,,,,,,,,,4,11,41,,,
38273,note_on,1,0,5,,,,,,,,,4,,,,64,0
38274,control_change,32,0,6,,,,,,,,,5,11,41,,,
38275,note_on,1,0,6,,,,,,,,,5,,,,64,0
38278,control_change,32,0,14,,,,,,,,,13,11,44,,,
38280,set_tempo,60,1,0,,,,,,1237113,,,,,,,,
38280,note_on,0,0,11,,,,,,,,,10,,,,71,112
38280,control_change,32,0,15,,,,,,,,,14,11,44,,,
38280,control_change,120,0,11,,,,,,,,,10,11,31,,,
38281,note_on,8,0,5,,,,,,,,,4,,,,64,100
38282,control_change,120,0,12,,,,,,,,,11,11,31,,,
38282,note_on,0,0,12,,,,,,,,,11,,,,68,112
38283,note_on,8,0,6,,,,,,,,,5,,,,64,100
38285,note_on,0,0,13,,,,,,,,,12,,,,64,112
38285,control_change,120,0,13,,,,,,,,,12,11,31,,,
38285,note_on,0,0,13,,,,,,,,,12,,,,62,112
38289,control_change,9,0,11,,,,,,,,,10,11,34,,,
38291,control_change,9,0,12,,,,,,,,,11,11,34,,,
38294,control_change,9,0,13,,,,,,,,,12,11,34,,,
38298,control_change,9,0,11,,,,,,,,,10,11,37,,,
38300,control_change,9,0,12,,,,,,,,,11,11,37,,,
38303,control_change,9,0,13,,,,,,,,,12,11,37,,,
38304,control_change,23,0,5,,,,,,,,,4,11,40,,,
38306,control_change,23,0,6,,,,,,,,,5,11,40,,,
38307,control_change,9,0,11,,,,,,,,,10,11,40,,,
38309,control_change,9,0,12,,,,,,,,,11,11,40,,,
38310,control_change,32,0,14,,,,,,,,,13,11,43,,,
38312,control_change,9,0,13,,,,,,,,,12,11,40,,,
38312,control_change,32,0,15,,,,,,,,,14,11,43,,,
38333,note_on,29,0,5,,,,,,,,,4,,,,64,0
38335,note_on,29,0,6,,,,,,,,,5,,,,64,0
38336,control_change,3,0,5,,,,,,,,,4,11,39,,,
38338,control_change,3,0,6,,,,,,,,,5,11,39,,,
38340,set_tempo,60,1,0,,,,,,1176471,,,,,,,,
38341,note_on,5,0,5,,,,,,,,,4,,,,64,100
38342,control_change,32,0,14,,,,,,,,,13,11,42,,,
38343,note_on,5,0,6,,,,,,,,,5,,,,64,100
38344,control_change,32,0,15,,,,,,,,,14,11,42,,,
38368,control_change,27,0,5,,,,,,,,,4,11,38,,,
38370,control_change,27,0,6,,,,,,,,,5,11,38,,,
38370,set_tempo,30,1,0,,,,,,1500000,,,,,,,,
38374,control_change,32,0,14,,,,,,,,,13,11,42,,,
38376,control_change,32,0,15,,,,,,,,,14,11,42,,,
38393,note_on,25,0,5,,,,,,,,,4,,,,64,0
38395,note_on,25,0,6,,,,,,,,,5,,,,64,0
38400,control_change,7,0,5,,,,,,,,,4,11,37,,,
38400,control_change,0,0,11,,,,,,,,,10,11,41,,,
38400,note_on,0,0,11,,,,,,,,,10,,,,69,112
38400,set_tempo,30,1,0,,,,,,1200000,,,,,,,,
38400,note_on,93,0,11,,,,,,,,,10,,,,71,0
38401,note_on,1,0,5,,,,,,,,,4,,,,64,100
38402,control_change,6490,0,7,,,,,,,,,6,11,37,,,
38402,note_on,3060,0,2,,,,,,,,,1,,,,76,115
38402,control_change,0,0,2,,,,,,,,,1,11,32,,,
38402,note_on,93,0,12,,,,,,,,,11,,,,68,0
38402,control_change,7,0,6,,,,,,,,,5,11,37,,,
38402,note_on,0,0,12,,,,,,,,,11,,,,69,112
38402,control_change,0,0,12,,,,,,,,,11,11,41,,,
38403,note_on,1,0,6,,,,,,,,,5,,,,64,100
38405,note_on,0,0,13,,,,,,,,,12,,,,64,112
38405,control_change,0,0,13,,,,,,,,,12,11,41,,,
38405,note_on,0,0,13,,,,,,,,,12,,,,60,112
38405,control_change,3,0,2,,,,,,,,,1,11,35,,,
38405,note_on,0,0,13,,,,,,,,,12,,,,62,0
38405,note_on,93,0,13,,,,,,,,,12,,,,64,0
38406,control_change,32,0,14,,,,,,,,,13,11,41,,,
38407,note_on,0,0,14,,,,,,,,,13,,,,57,112
38407,note_on,0,0,14,,,,,,,,,13,,,,60,112
38407,note_on,0,0,14,,,,,,,,,13,,,,62,0
38407,note_on,1,0,14,,,,,,,,,13,,,,59,0
38408,control_change,32,0,15,,,,,,,,,14,11,41,,,
38408,control_change,3,0,2,,,,,,,,,1,11,38,,,
38409,note_on,0,0,15,,,,,,,,,14,,,,33,112
38409,note_on,1,0,15,,,,,,,,,14,,,,40,0
38411,control_change,3,0,2,,,,,,,,,1,11,41,,,
38414,control_change,3,0,2,,,,,,,,,1,11,44,,,
38417,control_change,3,0,2,,,,,,,,,1,11,47,,,
38420,control_change,3,0,2,,,,,,,,,1,11,50,,,
38429,control_change,9,0,2,,,,,,,,,1,11,54,,,
38432,control_change,30,0,7,,,,,,,,,6,11,52,,,
38432,note_on,0,0,7,,,,,,,,,6,,,,64,112
38435,control_change,6,0,2,,,,,,,,,1,11,57,,,
38442,note_on,10,0,7,,,,,,,,,6,,,,64,0
38447,note_on,5,0,7,,,,,,,,,6,,,,64,112
38457,control_change,22,0,2,,,,,,,,,1,11,61,,,
38457,note_on,55,0,12,,,,,,,,,11,,,,69,0
38457,note_on,10,0,7,,,,,,,,,6,,,,64,0
38460,note_on,60,0,11,,,,,,,,,10,,,,69,0
38460,set_tempo,60,1,0,,,,,,1111111,,,,,,,,
38460,note_on,55,0,13,,,,,,,,,12,,,,64,0
38460,note_on,0,0,13,,,,,,,,,12,,,,60,0
38462,note_on,5,0,12,,,,,,,,,11,,,,60,112
38462,note_on,5,0,7,,,,,,,,,6,,,,64,112
38462,note_on,0,0,12,,,,,,,,,11,,,,64,112
38465,note_on,5,0,13,,,,,,,,,12,,,,57,112
38467,note_on,60,0,14,,,,,,,,,13,,,,57,0
38467,note_on,0,0,14,,,,,,,,,13,,,,60,0
38469,note_on,60,0,15,,,,,,,,,14,,,,33,0
38479,control_change,22,0,2,,,,,,,,,1,11,63,,,
38492,note_on,0,0,12,,,,,,,,,11,,,,60,0
38492,note_on,30,0,12,,,,,,,,,11,,,,64,0
38495,note_on,30,0,13,,,,,,,,,12,,,,57,0
38502,note_on,40,0,7,,,,,,,,,6,,,,64,0
38507,note_on,5,0,7,,,,,,,,,6,,,,64,112
38517,note_on,10,0,7,,,,,,,,,6,,,,64,0
38520,set_tempo,60,1,0,,,,,,1188119,,,,,,,,
38521,note_on,120,0,5,,,,,,,,,4,,,,64,0
38522,note_on,30,0,12,,,,,,,,,11,,,,60,112
38522,note_on,0,0,12,,,,,,,,,11,,,,64,112
38522,note_on,0,0,2,,,,,,,,,1,,,,74,100
38522,note_on,43,0,2,,,,,,,,,1,,,,76,0
38522,note_on,5,0,7,,,,,,,,,6,,,,57,112
38523,note_on,120,0,6,,,,,,,,,5,,,,64,0
38525,note_on,30,0,13,,,,,,,,,12,,,,57,112
38535,control_change,13,0,2,,,,,,,,,1,11,62,,,
38537,note_on,2,0,2,,,,,,,,,1,,,,74,0
38537,note_on,0,0,2,,,,,,,,,1,,,,72,100
38552,note_on,30,0,7,,,,,,,,,6,,,,57,0
38552,note_on,0,0,12,,,,,,,,,11,,,,60,0
38552,note_on,30,0,12,,,,,,,,,11,,,,64,0
38555,note_on,30,0,13,,,,,,,,,12,,,,57,0
38557,note_on,20,0,2,,,,,,,,,1,,,,72,0
38567,note_on,10,0,2,,,,,,,,,1,,,,71,100
38574,note_on,7,0,2,,,,,,,,,1,,,,71,0
38580,set_tempo,60,1,0,,,,,,1111111,,,,,,,,
38582,note_on,0,0,12,,,,,,,,,11,,,,64,112
38582,note_on,30,0,7,,,,,,,,,6,,,,64,112
38582,note_on,30,0,12,,,,,,,,,11,,,,60,112
38582,note_on,8,0,2,,,,,,,,,1,,,,72,100
38585,note_on,30,0,13,,,,,,,,,12,,,,57,112
38612,note_on,30,0,12,,,,,,,,,11,,,,64,0
38612,note_on,0,0,12,,,,,,,,,11,,,,60,0
38612,note_on,30,0,7,,,,,,,,,6,,,,64,0
38615,note_on,30,0,13,,,,,,,,,12,,,,57,0
38616,note_on,34,0,2,,,,,,,,,1,,,,72,0
38627,note_on,11,0,2,,,,,,,,,1,,,,74,100
38634,note_on,7,0,2,,,,,,,,,1,,,,74,0
38640,set_tempo,60,1,0,,,,,,1165049,,,,,,,,
38642,note_on,30,0,12,,,,,,,,,11,,,,60,112
38642,note_on,30,0,7,,,,,,,,,6,,,,69,112
38642,note_on,0,0,12,,,,,,,,,11,,,,64,112
38642,note_on,8,0,2,,,,,,,,,1,,,,76,115
38645,note_on,30,0,13,,,,,,,,,12,,,,57,112
38647,note_on,180,0,14,,,,,,,,,13,,,,45,112
38649,note_on,180,0,15,,,,,,,,,14,,,,33,112
38671,control_change,150,0,5,,,,,,,,,4,11,47,,,
38671,note_on,0,0,5,,,,,,,,,4,,,,52,100
38672,note_on,30,0,12,,,,,,,,,11,,,,64,0
38672,note_on,0,0,12,,,,,,,,,11,,,,60,0
38675,note_on,30,0,13,,,,,,,,,12,,,,57,0
38681,note_on,10,0,5,,,,,,,,,4,,,,52,0
38686,note_on,5,0,5,,,,,,,,,4,,,,52,100
38696,note_on,10,0,5,,,,,,,,,4,,,,52,0
38700,set_tempo,60,1,0,,,,,,1111111,,,,,,,,
38701,note_on,5,0,5,,,,,,,,,4,,,,52,100
38702,note_on,30,0,12,,,,,,,,,11,,,,60,112
38702,note_on,0,0,12,,,,,,,,,11,,,,64,112
38702,note_on,60,0,2,,,,,,,,,1,,,,76,0
38702,note_on,0,0,2,,,,,,,,,1,,,,81,100
38705,note_on,30,0,13,,,,,,,,,12,,,,57,112
38707,note_on,60,0,14,,,,,,,,,13,,,,45,0
38709,note_on,60,0,15,,,,,,,,,14,,,,33,0
38732,note_on,30,0,12,,,,,,,,,11,,,,64,0
38732,note_on,30,0,2,,,,,,,,,1,,,,81,0
38732,note_on,0,0,12,,,,,,,,,11,,,,60,0
38735,note_on,30,0,13,,,,,,,,,12,,,,57,0
38741,note_on,40,0,5,,,,,,,,,4,,,,52,0
38746,note_on,5,0,5,,,,,,,,,4,,,,52,100
38756,note_on,10,0,5,,,,,,,,,4,,,,52,0
38757,note_on,115,0,7,,,,,,,,,6,,,,69,0
38760,set_tempo,60,1,0,,,,,,1188119,,,,,,,,
38761,note_on,5,0,5,,,,,,,,,4,,,,52,100
38762,note_on,30,0,12,,,,,,,,,11,,,,60,112
38762,note_on,5,0,7,,,,,,,,,6,,,,69,112
38762,note_on,30,0,2,,,,,,,,,1,,,,72,100
38765,note_on,30,0,13,,,,,,,,,12,,,,57,112
38767,note_on,60,0,14,,,,,,,,,13,,,,45,112
38769,note_on,60,0,15,,,,,,,,,14,,,,33,112
38791,note_on,30,0,5,,,,,,,,,4,,,,52,0
38792,note_on,30,0,2,,,,,,,,,1,,,,72,0
38792,note_on,30,0,12,,,,,,,,,11,,,,60,0
38795,note_on,30,0,13,,,,,,,,,12,,,,57,0
38797,note_on,30,0,14,,,,,,,,,13,,,,45,0
38799,note_on,30,0,15,,,,,,,,,14,,,,33,0
38820,set_tempo,60,1,0,,,,,,1111111,,,,,,,,
38821,note_on,30,0,5,,,,,,,,,4,,,,55,100
38822,note_on,60,0,7,,,,,,,,,6,,,,69,0
38822,note_on,30,0,12,,,,,,,,,11,,,,55,112
38822,note_on,30,0,2,,,,,,,,,1,,,,74,100
38822,note_on,0,0,12,,,,,,,,,11,,,,65,112
38825,note_on,30,0,13,,,,,,,,,12,,,,59,112
38827,note_on,30,0,14,,,,,,,,,13,,,,43,112
38829,note_on,30,0,15,,,,,,,,,14,,,,31,112
38851,note_on,30,0,5,,,,,,,,,4,,,,55,0
38852,note_on,0,0,12,,,,,,,,,11,,,,55,0
38852,note_on,30,0,2,,,,,,,,,1,,,,74,0
38852,note_on,30,0,12,,,,,,,,,11,,,,65,0
38855,note_on,30,0,13,,,,,,,,,12,,,,59,0
38857,note_on,30,0,14,,,,,,,,,13,,,,43,0
38859,note_on,30,0,15,,,,,,,,,14,,,,31,0
38880,set_tempo,60,1,0,,,,,,1165049,,,,,,,,
38881,note_on,30,0,5,,,,,,,,,4,,,,60,115
38882,note_on,30,0,12,,,,,,,,,11,,,,64,112
38882,note_on,30,0,2,,,,,,,,,1,,,,76,115
38882,note_on,0,0,12,,,,,,,,,11,,,,55,112
38885,note_on,30,0,13,,,,,,,,,12,,,,60,112
38887,note_on,30,0,14,,,,,,,,,13,,,,48,112
38889,note_on,30,0,15,,,,,,,,,14,,,,36,112
38912,note_on,30,0,12,,,,,,,,,11,,,,55,0
38912,note_on,0,0,12,,,,,,,,,11,,,,64,0
38915,note_on,30,0,13,,,,,,,,,12,,,,60,0
38940,set_tempo,60,1,0,,,,,,1111111,,,,,,,,
38942,note_on,0,0,12,,,,,,,,,11,,,,55,112
38942,note_on,30,0,12,,,,,,,,,11,,,,64,112
38945,note_on,30,0,13,,,,,,,,,12,,,,60,112
38947,note_on,60,0,14,,,,,,,,,13,,,,48,0
38949,note_on,60,0,15,,,,,,,,,14,,,,36,0
38972,note_on,30,0,12,,,,,,,,,11,,,,55,0
38972,note_on,0,0,12,,,,,,,,,11,,,,64,0
38975,note_on,30,0,13,,,,,,,,,12,,,,60,0
38992,note_on,110,0,2,,,,,,,,,1,,,,76,0
38996,note_on,115,0,5,,,,,,,,,4,,,,60,0
39000,set_tempo,60,1,0,,,,,,1188119,,,,,,,,
39001,note_on,5,0,5,,,,,,,,,4,,,,60,100
39002,note_on,30,0,12,,,,,,,,,11,,,,64,112
39002,note_on,10,0,2,,,,,,,,,1,,,,76,115
39002,note_on,0,0,12,,,,,,,,,11,,,,55,112
39005,note_on,30,0,13,,,,,,,,,12,,,,60,112
39007,note_on,60,0,14,,,,,,,,,13,,,,48,112
39009,note_on,60,0,15,,,,,,,,,14,,,,36,112
39032,note_on,30,0,12,,,,,,,,,11,,,,55,0
39032,note_on,0,0,12,,,,,,,,,11,,,,64,0
39035,note_on,30,0,13,,,,,,,,,12,,,,60,0
39060,set_tempo,60,1,0,,,,,,1111111,,,,,,,,
39061,note_on,60,0,5,,,,,,,,,4,,,,60,0
39062,note_on,0,0,12,,,,,,,,,11,,,,55,112
39062,note_on,30,0,12,,,,,,,,,11,,,,64,112
39065,note_on,30,0,13,,,,,,,,,12,,,,60,112
39067,note_on,60,0,14,,,,,,,,,13,,,,48,0
39069,note_on,60,0,15,,,,,,,,,14,,,,36,0
39090,set_tempo,30,1,0,,,,,,1333333,,,,,,,,
39092,note_on,0,0,12,,,,,,,,,11,,,,64,0
39092,note_on,30,0,12,,,,,,,,,11,,,,55,0
39095,note_on,30,0,13,,,,,,,,,12,,,,60,0
39112,note_on,110,0,2,,,,,,,,,1,,,,76,0
39120,set_tempo,30,1,0,,,,,,1165049,,,,,,,,
39122,note_on,10,0,2,,,,,,,,,1,,,,74,100
39122,note_on,30,0,12,,,,,,,,,11,,,,62,112
39122,note_on,0,0,12,,,,,,,,,11,,,,65,112
39125,note_on,30,0,13,,,,,,,,,12,,,,59,112
39127,note_on,60,0,14,,,,,,,,,13,,,,44,112
39129,note_on,60,0,15,,,,,,,,,14,,,,32,112
39150,note_on,0,0,11,,,,,,,,,10,,,,77,102
39150,control_change,690,0,11,,,,,,,,,10,11,41,,,
39152,note_on,0,0,12,,,,,,,,,11,,,,62,0
39152,note_on,30,0,12,,,,,,,,,11,,,,65,0
39155,note_on,30,0,13,,,,,,,,,12,,,,59,0
39161,note_on,11,0,11,,,,,,,,,10,,,,77,0
39165,note_on,4,0,11,,,,,,,,,10,,,,77,102
39176,note_on,11,0,11,,,,,,,,,10,,,,77,0
39180,note_on,4,0,11,,,,,,,,,10,,,,77,102
39180,set_tempo,60,1,0,,,,,,1111111,,,,,,,,
39182,note_on,0,0,12,,,,,,,,,11,,,,65,112
39182,note_on,30,0,12,,,,,,,,,11,,,,62,112
39185,note_on,30,0,13,,,,,,,,,12,,,,59,112
39187,note_on,60,0,14,,,,,,,,,13,,,,44,0
39189,note_on,60,0,15,,,,,,,,,14,,,,32,0
39212,note_on,0,0,12,,,,,,,,,11,,,,62,0
39212,note_on,30,0,12,,,,,,,,,11,,,,65,0
39214,note_on,34,0,11,,,,,,,,,10,,,,77,0
39215,note_on,30,0,13,,,,,,,,,12,,,,59,0
39225,note_on,11,0,11,,,,,,,,,10,,,,77,102
39236,note_on,11,0,11,,,,,,,,,10,,,,77,0
39240,set_tempo,60,1,0,,,,,,1188119,,,,,,,,
39240,note_on,4,0,11,,,,,,,,,10,,,,83,115
39242,note_on,120,0,2,,,,,,,,,1,,,,74,0
39242,note_on,0,0,2,,,,,,,,,1,,,,77,100
39242,note_on,30,0,12,,,,,,,,,11,,,,62,112
39242,note_on,0,0,12,,,,,,,,,11,,,,65,112
39245,note_on,30,0,13,,,,,,,,,12,,,,59,112
39247,note_on,60,0,14,,,,,,,,,13,,,,44,112
39249,note_on,60,0,15,,,,,,,,,14,,,,32,112
39272,note_on,0,0,12,,,,,,,,,11,,,,62,0
39272,note_on,30,0,12,,,,,,,,,11,,,,65,0
39275,note_on,30,0,13,,,,,,,,,12,,,,59,0
39287,note_on,0,0,2,,,,,,,,,1,,,,76,100
39287,note_on,45,0,2,,,,,,,,,1,,,,77,0
39300,note_on,60,0,11,,,,,,,,,10,,,,83,0
39300,set_tempo,60,1,0,,,,,,1111111,,,,,,,,
39300,note_on,0,0,11,,,,,,,,,10,,,,86,102
39302,note_on,30,0,12,,,,,,,,,11,,,,62,112
39302,note_on,0,0,12,,,,,,,,,11,,,,65,112
39302,note_on,0,0,2,,,,,,,,,1,,,,77,100
39302,note_on,15,0,2,,,,,,,,,1,,,,76,0
39305,note_on,30,0,13,,,,,,,,,12,,,,59,112
39307,note_on,60,0,14,,,,,,,,,13,,,,44,0
39309,note_on,60,0,15,,,,,,,,,14,,,,32,0
39330,note_on,30,0,11,,,,,,,,,10,,,,86,0
39332,note_on,30,0,12,,,,,,,,,11,,,,65,0
39332,note_on,0,0,12,,,,,,,,,11,,,,62,0
39335,note_on,30,0,13,,,,,,,,,12,,,,59,0
39347,note_on,0,0,2,,,,,,,,,1,,,,74,100
39347,note_on,45,0,2,,,,,,,,,1,,,,77,0
39354,note_on,7,0,2,,,,,,,,,1,,,,74,0
39360,set_tempo,60,1,0,,,,,,1165049,,,,,,,,
39362,note_on,0,0,12,,,,,,,,,11,,,,64,112
39362,note_on,30,0,12,,,,,,,,,11,,,,60,112
39362,note_on,8,0,2,,,,,,,,,1,,,,72,100
39365,note_on,30,0,13,,,,,,,,,12,,,,52,112
39367,note_on,60,0,14,,,,,,,,,13,,,,45,112
39369,note_on,60,0,15,,,,,,,,,14,,,,33,112
39390,note_on,60,0,11,,,,,,,,,10,,,,76,102
39392,note_on,0,0,12,,,,,,,,,11,,,,60,0
39392,note_on,30,0,12,,,,,,,,,11,,,,64,0
39395,note_on,30,0,13,,,,,,,,,12,,,,52,0
39401,note_on,11,0,11,,,,,,,,,10,,,,76,0
39405,note_on,4,0,11,,,,,,,,,10,,,,76,102
39416,note_on,11,0,11,,,,,,,,,10,,,,76,0
39420,set_tempo,60,1,0,,,,,,1111111,,,,,,,,
39420,note_on,4,0,11,,,,,,,,,10,,,,76,102
39422,note_on,30,0,12,,,,,,,,,11,,,,60,112
39422,note_on,0,0,12,,,,,,,,,11,,,,64,112
39425,note_on,30,0,13,,,,,,,,,12,,,,52,112
39427,note_on,60,0,14,,,,,,,,,13,,,,45,0
39429,note_on,60,0,15,,,,,,,,,14,,,,33,0
39452,note_on,0,0,12,,,,,,,,,11,,,,60,0
39452,note_on,30,0,12,,,,,,,,,11,,,,64,0
39454,note_on,34,0,11,,,,,,,,,10,,,,76,0
39455,note_on,30,0,13,,,,,,,,,12,,,,52,0
39465,note_on,11,0,11,,,,,,,,,10,,,,76,102
39476,note_on,11,0,11,,,,,,,,,10,,,,76,0
39480,set_tempo,60,1,0,,,,,,1188119,,,,,,,,
39480,note_on,4,0,11,,,,,,,,,10,,,,81,115
39482,note_on,0,0,2,,,,,,,,,1,,,,76,100
39482,note_on,0,0,12,,,,,,,,,11,,,,64,112
39482,note_on,30,0,12,,,,,,,,,11,,,,60,112
39482,note_on,120,0,2,,,,,,,,,1,,,,72,0
39485,note_on,30,0,13,,,,,,,,,12,,,,52,112
39487,note_on,60,0,14,,,,,,,,,13,,,,45,112
39489,note_on,60,0,15,,,,,,,,,14,,,,33,112
39512,note_on,0,0,12,,,,,,,,,11,,,,60,0
39512,note_on,30,0,12,,,,,,,,,11,,,,64,0
39515,note_on,30,0,13,,,,,,,,,12,,,,52,0
39527,note_on,0,0,2,,,,,,,,,1,,,,75,100
39527,note_on,45,0,2,,,,,,,,,1,,,,76,0
39540,note_on,60,0,11,,,,,,,,,10,,,,81,0
39540,note_on,0,0,11,,,,,,,,,10,,,,84,102
39540,set_tempo,60,1,0,,,,,,1111111,,,,,,,,
39542,note_on,0,0,12,,,,,,,,,11,,,,64,112
39542,note_on,30,0,12,,,,,,,,,11,,,,60,112
39542,note_on,0,0,2,,,,,,,,,1,,,,76,100
39542,note_on,15,0,2,,,,,,,,,1,,,,75,0
39545,note_on,30,0,13,,,,,,,,,12,,,,57,112
39547,note_on,60,0,14,,,,,,,,,13,,,,45,0
39549,note_on,60,0,15,,,,,,,,,14,,,,33,0
39570,note_on,30,0,11,,,,,,,,,10,,,,84,0
39572,note_on,0,0,12,,,,,,,,,11,,,,60,0
39572,note_on,30,0,12,,,,,,,,,11,,,,64,0
39575,note_on,30,0,13,,,,,,,,,12,,,,57,0
39587,note_on,45,0,2,,,,,,,,,1,,,,76,0
39587,note_on,0,0,2,,,,,,,,,1,,,,72,100
39594,note_on,7,0,2,,,,,,,,,1,,,,72,0
39600,set_tempo,60,1,0,,,,,,1165049,,,,,,,,
39602,note_on,30,0,12,,,,,,,,,11,,,,65,112
39602,note_on,8,0,2,,,,,,,,,1,,,,71,100
39605,note_on,30,0,13,,,,,,,,,12,,,,59,112
39605,note_on,0,0,13,,,,,,,,,12,,,,57,112
39607,note_on,60,0,14,,,,,,,,,13,,,,50,112
39609,note_on,60,0,15,,,,,,,,,14,,,,38,112
39630,note_on,60,0,11,,,,,,,,,10,,,,77,102
39632,note_on,30,0,12,,,,,,,,,11,,,,65,0
39635,note_on,30,0,13,,,,,,,,,12,,,,57,0
39635,note_on,0,0,13,,,,,,,,,12,,,,59,0
39640,note_on,10,0,11,,,,,,,,,10,,,,77,0
39645,note_on,5,0,11,,,,,,,,,10,,,,77,102
39647,note_on,45,0,2,,,,,,,,,1,,,,71,0
39647,note_on,0,0,2,,,,,,,,,1,,,,74,100
39655,note_on,10,0,11,,,,,,,,,10,,,,77,0
39660,note_on,5,0,11,,,,,,,,,10,,,,77,115
39660,set_tempo,60,1,0,,,,,,1111111,,,,,,,,
39662,note_on,15,0,2,,,,,,,,,1,,,,74,0
39662,note_on,30,0,12,,,,,,,,,11,,,,65,112
39662,note_on,0,0,2,,,,,,,,,1,,,,72,100
39665,note_on,30,0,13,,,,,,,,,12,,,,59,112
39665,note_on,0,0,13,,,,,,,,,12,,,,57,112
39667,note_on,60,0,14,,,,,,,,,13,,,,50,0
39669,note_on,60,0,15,,,,,,,,,14,,,,38,0
39692,note_on,30,0,12,,,,,,,,,11,,,,65,0
39695,note_on,30,0,13,,,,,,,,,12,,,,57,0
39695,note_on,0,0,13,,,,,,,,,12,,,,59,0
39707,note_on,0,0,2,,,,,,,,,1,,,,71,100
39707,note_on,45,0,2,,,,,,,,,1,,,,72,0
39714,note_on,7,0,2,,,,,,,,,1,,,,71,0
39720,set_tempo,60,1,0,,,,,,1188119,,,,,,,,
39720,note_on,60,0,11,,,,,,,,,10,,,,77,0
39720,control_change,0,0,11,,,,,,,,,10,11,41,,,
39722,control_change,0,0,2,,,,,,,,,1,11,60,,,
39722,note_on,8,0,2,,,,,,,,,1,,,,71,100
39722,note_on,0,0,12,,,,,,,,,11,,,,66,112
39722,control_change,30,0,12,,,,,,,,,11,11,41,,,
39725,note_on,30,0,13,,,,,,,,,12,,,,57,112
39725,note_on,0,0,13,,,,,,,,,12,,,,59,112
39725,control_change,0,0,13,,,,,,,,,12,11,41,,,
39727,note_on,0,0,14,,,,,,,,,13,,,,51,112
39727,control_change,60,0,14,,,,,,,,,13,11,41,,,
39729,control_change,60,0,15,,,,,,,,,14,11,41,,,
39729,note_on,0,0,15,,,,,,,,,14,,,,39,112
39746,control_change,24,0,2,,,,,,,,,1,11,60,,,
39750,note_on,30,0,11,,,,,,,,,10,,,,78,102
39752,note_on,30,0,12,,,,,,,,,11,,,,66,0
39755,note_on,0,0,13,,,,,,,,,12,,,,57,0
39755,note_on,30,0,13,,,,,,,,,12,,,,59,0
39756,control_change,6,0,11,,,,,,,,,10,11,40,,,
39758,control_change,6,0,12,,,,,,,,,11,11,40,,,
39760,note_on,4,0,11,,,,,,,,,10,,,,78,0
39761,control_change,6,0,13,,,,,,,,,12,11,40,,,
39763,control_change,36,0,14,,,,,,,,,13,11,40,,,
39765,note_on,5,0,11,,,,,,,,,10,,,,78,102
39765,control_change,36,0,15,,,,,,,,,14,11,40,,,
39767,note_on,0,0,2,,,,,,,,,1,,,,74,100
39767,note_on,21,0,2,,,,,,,,,1,,,,71,0
39770,control_change,3,0,2,,,,,,,,,1,11,59,,,
39775,note_on,10,0,11,,,,,,,,,10,,,,78,0
39780,set_tempo,60,1,0,,,,,,1132075,,,,,,,,
39780,note_on,5,0,11,,,,,,,,,10,,,,78,115
39782,note_on,24,0,12,,,,,,,,,11,,,,66,112
39782,note_on,0,0,2,,,,,,,,,1,,,,72,100
39782,note_on,12,0,2,,,,,,,,,1,,,,74,0
39785,note_on,0,0,13,,,,,,,,,12,,,,57,112
39785,note_on,24,0,13,,,,,,,,,12,,,,59,112
39787,note_on,24,0,14,,,,,,,,,13,,,,51,0
39789,note_on,24,0,15,,,,,,,,,14,,,,39,0
39792,control_change,12,0,11,,,,,,,,,10,11,39,,,
39794,control_change,12,0,12,,,,,,,,,11,11,39,,,
39794,control_change,12,0,2,,,,,,,,,1,11,58,,,
39797,control_change,12,0,13,,,,,,,,,12,11,39,,,
39799,control_change,12,0,14,,,,,,,,,13,11,39,,,
39801,control_change,12,0,15,,,,,,,,,14,11,39,,,
39812,note_on,18,0,12,,,,,,,,,11,,,,66,0
39815,note_on,18,0,13,,,,,,,,,12,,,,57,0
39815,note_on,0,0,13,,,,,,,,,12,,,,59,0
39818,control_change,24,0,2,,,,,,,,,1,11,57,,,
39827,note_on,9,0,2,,,,,,,,,1,,,,72,0
39827,note_on,0,0,2,,,,,,,,,1,,,,71,100
39828,control_change,36,0,11,,,,,,,,,10,11,38,,,
39830,control_change,18,0,12,,,,,,,,,11,11,38,,,
39833,control_change,18,0,13,,,,,,,,,12,11,38,,,
39834,note_on,7,0,2,,,,,,,,,1,,,,71,0
39835,control_change,36,0,14,,,,,,,,,13,11,38,,,
39837,control_change,36,0,15,,,,,,,,,14,11,38,,,
39840,note_on,12,0,11,,,,,,,,,10,,,,78,0
39840,set_tempo,60,1,0,,,,,,1176471,,,,,,,,
39842,note_on,0,0,2,,,,,,,,,1,,,,71,100
39842,control_change,8,0,2,,,,,,,,,1,11,57,,,
39842,note_on,12,0,12,,,,,,,,,11,,,,64,112
39845,note_on,12,0,13,,,,,,,,,12,,,,57,112
39845,note_on,0,0,13,,,,,,,,,12,,,,59,112
39847,note_on,12,0,14,,,,,,,,,13,,,,52,112
39849,note_on,12,0,15,,,,,,,,,14,,,,40,112
39864,control_change,24,0,11,,,,,,,,,10,11,37,,,
39866,control_change,24,0,12,,,,,,,,,11,11,37,,,
39866,control_change,24,0,2,,,,,,,,,1,11,56,,,
39869,control_change,24,0,13,,,,,,,,,12,11,37,,,
39870,note_on,6,0,11,,,,,,,,,10,,,,76,102
39871,control_change,24,0,14,,,,,,,,,13,11,37,,,
39872,note_on,6,0,12,,,,,,,,,11,,,,64,0
39873,control_change,24,0,15,,,,,,,,,14,11,37,,,
39875,note_on,6,0,13,,,,,,,,,12,,,,59,0
39875,note_on,0,0,13,,,,,,,,,12,,,,57,0
39880,note_on,10,0,11,,,,,,,,,10,,,,76,0
39885,note_on,5,0,11,,,,,,,,,10,,,,76,102
39887,note_on,21,0,2,,,,,,,,,1,,,,71,0
39887,note_on,0,0,2,,,,,,,,,1,,,,74,100
39890,control_change,3,0,2,,,,,,,,,1,11,55,,,
39895,note_on,10,0,11,,,,,,,,,10,,,,76,0
39900,note_on,0,0,11,,,,,,,,,10,,,,76,115
39900,control_change,5,0,11,,,,,,,,,10,11,36,,,
39900,set_tempo,60,1,0,,,,,,1132075,,,,,,,,
39902,note_on,0,0,2,,,,,,,,,1,,,,72,100
39902,note_on,12,0,2,,,,,,,,,1,,,,74,0
39902,control_change,30,0,12,,,,,,,,,11,11,36,,,
39902,note_on,0,0,12,,,,,,,,,11,,,,64,112
39905,note_on,0,0,13,,,,,,,,,12,,,,57,112
39905,control_change,0,0,13,,,,,,,,,12,11,36,,,
39905,note_on,30,0,13,,,,,,,,,12,,,,59,112
39907,note_on,36,0,14,,,,,,,,,13,,,,52,0
39907,control_change,0,0,14,,,,,,,,,13,11,36,,,
39909,control_change,0,0,15,,,,,,,,,14,11,36,,,
39909,note_on,36,0,15,,,,,,,,,14,,,,40,0
39914,control_change,12,0,2,,,,,,,,,1,11,54,,,
39932,note_on,30,0,12,,,,,,,,,11,,,,64,0
39935,note_on,0,0,13,,,,,,,,,12,,,,59,0
39935,note_on,30,0,13,,,,,,,,,12,,,,57,0
39936,control_change,36,0,11,,,,,,,,,10,11,35,,,
39938,control_change,6,0,12,,,,,,,,,11,11,35,,,
39938,control_change,24,0,2,,,,,,,,,1,11,53,,,
39941,control_change,6,0,13,,,,,,,,,12,11,35,,,
39943,control_change,36,0,14,,,,,,,,,13,11,35,,,
39945,control_change,36,0,15,,,,,,,,,14,11,35,,,
39947,note_on,9,0,2,,,,,,,,,1,,,,72,0
39947,note_on,0,0,2,,,,,,,,,1,,,,71,100
39954,note_on,7,0,2,,,,,,,,,1,,,,71,0
39960,set_tempo,60,1,0,,,,,,1188119,,,,,,,,
39960,note_on,24,0,11,,,,,,,,,10,,,,76,0
39962,note_on,24,0,12,,,,,,,,,11,,,,63,112
39962,control_change,8,0,2,,,,,,,,,1,11,52,,,
39962,note_on,0,0,2,,,,,,,,,1,,,,71,100
39965,note_on,0,0,13,,,,,,,,,12,,,,59,112
39965,note_on,24,0,13,,,,,,,,,12,,,,57,112
39967,note_on,24,0,14,,,,,,,,,13,,,,53,112
39969,note_on,24,0,15,,,,,,,,,14,,,,41,112
39972,control_change,12,0,11,,,,,,,,,10,11,34,,,
39974,control_change,12,0,12,,,,,,,,,11,11,34,,,
39977,control_change,12,0,13,,,,,,,,,12,11,34,,,
39979,control_change,12,0,14,,,,,,,,,13,11,34,,,
39981,control_change,12,0,15,,,,,,,,,14,11,34,,,
39986,control_change,24,0,2,,,,,,,,,1,11,51,,,
39990,note_on,18,0,11,,,,,,,,,10,,,,75,102
39992,note_on,18,0,12,,,,,,,,,11,,,,63,0
39995,note_on,0,0,13,,,,,,,,,12,,,,57,0
39995,note_on,18,0,13,,,,,,,,,12,,,,59,0
40000,note_on,10,0,11,,,,,,,,,10,,,,75,0
40005,note_on,5,0,11,,,,,,,,,10,,,,75,102
40007,note_on,21,0,2,,,,,,,,,1,,,,71,0
40007,note_on,0,0,2,,,,,,,,,1,,,,74,100
40008,control_change,3,0,11,,,,,,,,,10,11,33,,,
40010,control_change,3,0,2,,,,,,,,,1,11,50,,,
40010,control_change,18,0,12,,,,,,,,,11,11,33,,,
40013,control_change,18,0,13,,,,,,,,,12,11,33,,,
40015,note_on,7,0,11,,,,,,,,,10,,,,75,0
40015,control_change,36,0,14,,,,,,,,,13,11,33,,,
40017,control_change,36,0,15,,,,,,,,,14,11,33,,,
40020,note_on,5,0,11,,,,,,,,,10,,,,75,115
40020,set_tempo,60,1,0,,,,,,1142857,,,,,,,,
40022,note_on,0,0,2,,,,,,,,,1,,,,72,100
40022,note_on,12,0,12,,,,,,,,,11,,,,63,112
40022,note_on,12,0,2,,,,,,,,,1,,,,74,0
40025,note_on,0,0,13,,,,,,,,,12,,,,57,112
40025,note_on,12,0,13,,,,,,,,,12,,,,60,112
40027,note_on,12,0,14,,,,,,,,,13,,,,53,0
40029,note_on,12,0,15,,,,,,,,,14,,,,41,0
40034,control_change,12,0,2,,,,,,,,,1,11,49,,,
40044,control_change,24,0,11,,,,,,,,,10,11,32,,,
40046,control_change,24,0,12,,,,,,,,,11,11,32,,,
40049,control_change,24,0,13,,,,,,,,,12,11,32,,,
40051,control_change,24,0,14,,,,,,,,,13,11,32,,,
40052,note_on,6,0,12,,,,,,,,,11,,,,63,0
40053,control_change,24,0,15,,,,,,,,,14,11,32,,,
40055,note_on,6,0,13,,,,,,,,,12,,,,57,0
40055,note_on,0,0,13,,,,,,,,,12,,,,60,0
40058,control_change,24,0,2,,,,,,,,,1,11,48,,,
40067,note_on,0,0,2,,,,,,,,,1,,,,69,100
40067,note_on,9,0,2,,,,,,,,,1,,,,72,0
40070,note_on,15,0,13,,,,,,,,,12,,,,57,112
40074,note_on,7,0,2,,,,,,,,,1,,,,69,0
40080,note_on,0,0,11,,,,,,,,,10,,,,76,102
40080,set_tempo,60,1,0,,,,,,1165049,,,,,,,,
40080,note_on,10,0,13,,,,,,,,,12,,,,57,0
40080,control_change,0,0,11,,,,,,,,,10,11,31,,,
40080,note_on,36,0,11,,,,,,,,,10,,,,75,0
40082,note_on,8,0,2,,,,,,,,,1,,,,76,115
40082,note_on,0,0,12,,,,,,,,,11,,,,64,112
40082,control_change,0,0,2,,,,,,,,,1,11,47,,,
40082,control_change,30,0,12,,,,,,,,,11,11,31,,,
40085,note_on,0,0,13,,,,,,,,,12,,,,56,112
40085,note_on,0,0,13,,,,,,,,,12,,,,59,112
40085,control_change,5,0,13,,,,,,,,,12,11,31,,,
40087,note_on,0,0,4,,,,,,,,,3,,,,56,100
40087,control_change,5700,0,4,,,,,,,,,3,11,37,,,
40087,note_on,0,0,14,,,,,,,,,13,,,,52,112
40087,note_on,0,0,4,,,,,,,,,3,,,,59,100
40087,control_change,36,0,14,,,,,,,,,13,11,31,,,
40089,control_change,36,0,15,,,,,,,,,14,11,31,,,
40089,note_on,0,0,15,,,,,,,,,14,,,,40,112
40098,control_change,16,0,2,,,,,,,,,1,11,48,,,
40103,control_change,16,0,4,,,,,,,,,3,11,38,,,
40111,note_on,1050,0,5,,,,,,,,,4,,,,52,100
40111,control_change,0,0,5,,,,,,,,,4,11,37,,,
40112,note_on,30,0,12,,,,,,,,,11,,,,64,0
40114,control_change,16,0,2,,,,,,,,,1,11,49,,,
40115,note_on,0,0,13,,,,,,,,,12,,,,59,0
40115,note_on,30,0,13,,,,,,,,,12,,,,56,0
40119,control_change,16,0,4,,,,,,,,,3,11,39,,,
40121,note_on,10,0,5,,,,,,,,,4,,,,52,0
40126,note_on,5,0,5,,,,,,,,,4,,,,52,100
40130,control_change,16,0,2,,,,,,,,,1,11,50,,,
40135,control_change,16,0,4,,,,,,,,,3,11,40,,,
40136,note_on,10,0,5,,,,,,,,,4,,,,52,0
40140,set_tempo,60,1,0,,,,,,1111111,,,,,,,,
40141,note_on,5,0,5,,,,,,,,,4,,,,52,100
40142,note_on,30,0,12,,,,,,,,,11,,,,59,112
40142,note_on,0,0,12,,,,,,,,,11,,,,64,112
40145,note_on,30,0,13,,,,,,,,,12,,,,56,112
40146,control_change,16,0,2,,,,,,,,,1,11,51,,,
40147,note_on,60,0,14,,,,,,,,,13,,,,52,0
40149,note_on,60,0,15,,,,,,,,,14,,,,40,0
40151,control_change,16,0,4,,,,,,,,,3,11,41,,,
40162,control_change,16,0,2,,,,,,,,,1,11,52,,,
40166,note_on,25,0,5,,,,,,,,,4,,,,52,0
40167,control_change,16,0,4,,,,,,,,,3,11,42,,,
40171,note_on,5,0,5,,,,,,,,,4,,,,52,100
40172,note_on,0,0,12,,,,,,,,,11,,,,59,0
40172,note_on,30,0,12,,,,,,,,,11,,,,64,0
40175,note_on,30,0,13,,,,,,,,,12,,,,56,0
40178,control_change,16,0,2,,,,,,,,,1,11,53,,,
40183,control_change,16,0,4,,,,,,,,,3,11,43,,,
40187,note_on,9,0,2,,,,,,,,,1,,,,76,0
40194,control_change,7,0,2,,,,,,,,,1,11,54,,,
40196,note_on,25,0,5,,,,,,,,,4,,,,52,0
40199,control_change,16,0,4,,,,,,,,,3,11,44,,,
40200,set_tempo,60,1,0,,,,,,1188119,,,,,,,,
40200,note_on,120,0,11,,,,,,,,,10,,,,76,0
40201,note_on,5,0,5,,,,,,,,,4,,,,52,100
40202,note_on,8,0,2,,,,,,,,,1,,,,76,115
40202,note_on,0,0,12,,,,,,,,,11,,,,64,112
40202,note_on,30,0,12,,,,,,,,,11,,,,62,112
40205,note_on,30,0,13,,,,,,,,,12,,,,59,112
40207,note_on,0,0,4,,,,,,,,,3,,,,59,100
40207,note_on,0,0,4,,,,,,,,,3,,,,62,100
40207,note_on,8,0,4,,,,,,,,,3,,,,56,0
40207,note_on,0,0,4,,,,,,,,,3,,,,59,0
40210,control_change,8,0,2,,,,,,,,,1,11,55,,,
40215,control_change,8,0,4,,,,,,,,,3,11,45,,,
40221,note_on,20,0,5,,,,,,,,,4,,,,52,0
40226,control_change,16,0,2,,,,,,,,,1,11,56,,,
40230,control_change,30,0,11,,,,,,,,,10,11,36,,,
40230,note_on,0,0,11,,,,,,,,,10,,,,76,102
40231,note_on,10,0,5,,,,,,,,,4,,,,52,100
40231,control_change,16,0,4,,,,,,,,,3,11,46,,,
40232,note_on,30,0,12,,,,,,,,,11,,,,64,0
40232,note_on,0,0,12,,,,,,,,,11,,,,62,0
40235,note_on,30,0,13,,,,,,,,,12,,,,59,0
40241,note_on,11,0,11,,,,,,,,,10,,,,76,0
40242,control_change,16,0,2,,,,,,,,,1,11,57,,,
40245,note_on,4,0,11,,,,,,,,,10,,,,76,102
40247,control_change,16,0,4,,,,,,,,,3,11,47,,,
40248,control_change,3,0,11,,,,,,,,,10,11,39,,,
40251,note_on,20,0,5,,,,,,,,,4,,,,52,0
40256,note_on,8,0,11,,,,,,,,,10,,,,76,0
40258,control_change,16,0,2,,,,,,,,,1,11,57,,,
40260,note_on,4,0,11,,,,,,,,,10,,,,83,102
40260,set_tempo,60,1,0,,,,,,1111111,,,,,,,,
40261,note_on,10,0,5,,,,,,,,,4,,,,52,100
40262,note_on,0,0,12,,,,,,,,,11,,,,64,112
40262,note_on,30,0,12,,,,,,,,,11,,,,62,112
40263,control_change,16,0,4,,,,,,,,,3,11,48,,,
40265,note_on,30,0,13,,,,,,,,,12,,,,59,112
40266,control_change,6,0,11,,,,,,,,,10,11,42,,,
40274,control_change,16,0,2,,,,,,,,,1,11,58,,,
40279,control_change,16,0,4,,,,,,,,,3,11,49,,,
40281,note_on,20,0,5,,,,,,,,,4,,,,52,0
40284,control_change,18,0,11,,,,,,,,,10,11,44,,,
40290,control_change,16,0,2,,,,,,,,,1,11,59,,,
40290,note_on,6,0,11,,,,,,,,,10,,,,83,0
40290,note_on,0,0,11,,,,,,,,,10,,,,86,102
40291,note_on,10,0,5,,,,,,,,,4,,,,52,100
40292,note_on,30,0,12,,,,,,,,,11,,,,64,0
40292,note_on,0,0,12,,,,,,,,,11,,,,62,0
40295,note_on,30,0,13,,,,,,,,,12,,,,59,0
40295,control_change,16,0,4,,,,,,,,,3,11,50,,,
40306,control_change,16,0,2,,,,,,,,,1,11,60,,,
40307,note_on,1,0,2,,,,,,,,,1,,,,76,0
40311,note_on,20,0,5,,,,,,,,,4,,,,52,0
40311,control_change,16,0,4,,,,,,,,,3,11,51,,,
40320,set_tempo,60,1,0,,,,,,1212121,,,,,,,,
40320,note_on,30,0,11,,,,,,,,,10,,,,86,0
40321,note_on,10,0,5,,,,,,,,,4,,,,52,100
40322,control_change,15,0,2,,,,,,,,,1,11,60,,,
40322,note_on,0,0,2,,,,,,,,,1,,,,76,115
40322,note_on,0,0,12,,,,,,,,,11,,,,64,112
40322,note_on,30,0,12,,,,,,,,,11,,,,60,112
40322,control_change,4980,0,3,,,,,,,,,2,11,52,,,
40325,note_on,30,0,13,,,,,,,,,12,,,,57,112
40327,control_change,0,0,4,,,,,,,,,3,11,52,,,
40327,note_on,0,0,4,,,,,,,,,3,,,,57,100
40327,note_on,0,0,4,,,,,,,,,3,,,,62,0
40327,note_on,16,0,4,,,,,,,,,3,,,,59,0
40327,note_on,0,0,4,,,,,,,,,3,,,,60,100
40338,control_change,16,0,2,,,,,,,,,1,11,60,,,
40338,control_change,16,0,3,,,,,,,,,2,11,51,,,
40341,note_on,20,0,5,,,,,,,,,4,,,,52,0
40343,control_change,16,0,4,,,,,,,,,3,11,51,,,
40350,control_change,30,0,11,,,,,,,,,10,11,45,,,
40350,note_on,0,0,11,,,,,,,,,10,,,,76,102
40351,note_on,10,0,5,,,,,,,,,4,,,,52,100
40352,note_on,0,0,12,,,,,,,,,11,,,,60,0
40352,note_on,30,0,12,,,,,,,,,11,,,,64,0
40354,control_change,16,0,2,,,,,,,,,1,11,59,,,
40354,control_change,16,0,3,,,,,,,,,2,11,50,,,
40355,note_on,30,0,13,,,,,,,,,12,,,,57,0
40359,control_change,16,0,4,,,,,,,,,3,11,50,,,
40361,note_on,11,0,11,,,,,,,,,10,,,,76,0
40365,note_on,4,0,11,,,,,,,,,10,,,,76,102
40370,control_change,16,0,2,,,,,,,,,1,11,58,,,
40370,control_change,16,0,3,,,,,,,,,2,11,49,,,
40371,control_change,6,0,11,,,,,,,,,10,11,44,,,
40371,note_on,20,0,5,,,,,,,,,4,,,,52,0
40375,control_change,16,0,4,,,,,,,,,3,11,49,,,
40376,note_on,5,0,11,,,,,,,,,10,,,,76,0
40380,set_tempo,60,1,0,,,,,,1153846,,,,,,,,
40380,note_on,4,0,11,,,,,,,,,10,,,,81,102
40381,note_on,10,0,5,,,,,,,,,4,,,,52,100
40382,note_on,30,0,12,,,,,,,,,11,,,,60,112
40382,note_on,0,0,12,,,,,,,,,11,,,,64,112
40385,note_on,30,0,13,,,,,,,,,12,,,,57,112
40386,control_change,16,0,2,,,,,,,,,1,11,57,,,
40386,control_change,16,0,3,,,,,,,,,2,11,48,,,
40391,control_change,16,0,4,,,,,,,,,3,11,48,,,
40392,control_change,12,0,11,,,,,,,,,10,11,43,,,
40401,note_on,20,0,5,,,,,,,,,4,,,,52,0
40402,control_change,16,0,3,,,,,,,,,2,11,47,,,
40402,control_change,16,0,2,,,,,,,,,1,11,57,,,
40407,control_change,16,0,4,,,,,,,,,3,11,47,,,
40410,note_on,18,0,11,,,,,,,,,10,,,,81,0
40410,note_on,0,0,11,,,,,,,,,10,,,,84,102
40411,note_on,10,0,5,,,,,,,,,4,,,,52,100
40412,note_on,30,0,12,,,,,,,,,11,,,,64,0
40412,note_on,0,0,12,,,,,,,,,11,,,,60,0
40413,control_change,3,0,11,,,,,,,,,10,11,42,,,
40415,note_on,30,0,13,,,,,,,,,12,,,,57,0
40418,control_change,16,0,3,,,,,,,,,2,11,46,,,
40418,control_change,16,0,2,,,,,,,,,1,11,56,,,
40423,control_change,16,0,4,,,,,,,,,3,11,46,,,
40427,note_on,9,0,2,,,,,,,,,1,,,,76,0
40431,note_on,20,0,5,,,,,,,,,4,,,,52,0
40434,control_change,16,0,3,,,,,,,,,2,11,45,,,
40434,control_change,21,0,11,,,,,,,,,10,11,42,,,
40434,control_change,7,0,2,,,,,,,,,1,11,55,,,
40439,control_change,16,0,4,,,,,,,,,3,11,45,,,
40440,note_on,6,0,11,,,,,,,,,10,,,,84,0
40440,set_tempo,60,1,0,,,,,,1237113,,,,,,,,
40441,note_on,10,0,5,,,,,,,,,4,,,,52,100
40442,note_on,30,0,12,,,,,,,,,11,,,,59,112
40442,note_on,0,0,12,,,,,,,,,11,,,,64,112
40442,note_on,8,0,2,,,,,,,,,1,,,,76,115
40445,note_on,30,0,13,,,,,,,,,12,,,,56,112
40447,note_on,0,0,4,,,,,,,,,3,,,,57,0
40447,note_on,0,0,4,,,,,,,,,3,,,,56,100
40447,note_on,0,0,4,,,,,,,,,3,,,,59,100
40447,note_on,8,0,4,,,,,,,,,3,,,,60,0
40450,control_change,16,0,3,,,,,,,,,2,11,44,,,
40450,control_change,8,0,2,,,,,,,,,1,11,54,,,
40455,control_change,15,0,11,,,,,,,,,10,11,41,,,
40455,control_change,8,0,4,,,,,,,,,3,11,44,,,
40461,note_on,20,0,5,,,,,,,,,4,,,,52,0
40466,control_change,16,0,3,,,,,,,,,2,11,43,,,
40466,control_change,16,0,2,,,,,,,,,1,11,53,,,
40470,note_on,15,0,11,,,,,,,,,10,,,,76,102
40471,note_on,10,0,5,,,,,,,,,4,,,,52,100
40471,control_change,16,0,4,,,,,,,,,3,11,43,,,
40472,note_on,30,0,12,,,,,,,,,11,,,,64,0
40472,note_on,0,0,12,,,,,,,,,11,,,,59,0
40475,note_on,30,0,13,,,,,,,,,12,,,,56,0
40476,control_change,6,0,11,,,,,,,,,10,11,40,,,
40481,note_on,5,0,11,,,,,,,,,10,,,,76,0
40482,control_change,16,0,3,,,,,,,,,2,11,42,,,
40482,control_change,16,0,2,,,,,,,,,1,11,52,,,
40485,note_on,4,0,11,,,,,,,,,10,,,,76,102
40487,control_change,16,0,4,,,,,,,,,3,11,42,,,
40491,note_on,20,0,5,,,,,,,,,4,,,,52,0
40496,note_on,11,0,11,,,,,,,,,10,,,,76,0
40497,control_change,1,0,11,,,,,,,,,10,11,39,,,
40498,control_change,16,0,3,,,,,,,,,2,11,41,,,
40498,control_change,16,0,2,,,,,,,,,1,11,51,,,
40500,set_tempo,60,1,0,,,,,,1153846,,,,,,,,
40500,note_on,3,0,11,,,,,,,,,10,,,,80,102
40501,note_on,10,0,5,,,,,,,,,4,,,,52,100
40502,note_on,0,0,12,,,,,,,,,11,,,,64,112
40502,note_on,30,0,12,,,,,,,,,11,,,,59,112
40503,control_change,16,0,4,,,,,,,,,3,11,41,,,
40505,note_on,30,0,13,,,,,,,,,12,,,,56,112
40514,control_change,16,0,2,,,,,,,,,1,11,50,,,
40514,control_change,16,0,3,,,,,,,,,2,11,40,,,
40518,control_change,18,0,11,,,,,,,,,10,11,38,,,
40519,control_change,16,0,4,,,,,,,,,3,11,40,,,
40521,note_on,20,0,5,,,,,,,,,4,,,,52,0
40530,set_tempo,30,1,0,,,,,,1290323,,,,,,,,
40530,note_on,12,0,11,,,,,,,,,10,,,,80,0
40530,control_change,16,0,2,,,,,,,,,1,11,49,,,
40530,note_on,0,0,11,,,,,,,,,10,,,,83,102
40530,control_change,16,0,3,,,,,,,,,2,11,39,,,
40531,note_on,10,0,5,,,,,,,,,4,,,,52,100
40532,note_on,30,0,12,,,,,,,,,11,,,,64,0
40532,note_on,0,0,12,,,,,,,,,11,,,,59,0
40535,note_on,30,0,13,,,,,,,,,12,,,,56,0
40535,control_change,16,0,4,,,,,,,,,3,11,39,,,
40539,control_change,9,0,11,,,,,,,,,10,11,37,,,
40546,control_change,16,0,3,,,,,,,,,2,11,38,,,
40546,control_change,16,0,2,,,,,,,,,1,11,48,,,
40547,note_on,1,0,2,,,,,,,,,1,,,,76,0
40551,note_on,20,0,5,,,,,,,,,4,,,,52,0
40551,control_change,16,0,4,,,,,,,,,3,11,38,,,
40560,set_tempo,30,1,0,,,,,,1212121,,,,,,,,
40560,note_on,0,0,11,,,,,,,,,10,,,,81,102
40560,control_change,0,0,11,,,,,,,,,10,11,41,,,
40560,note_on,21,0,11,,,,,,,,,10,,,,83,0
40561,note_on,10,0,5,,,,,,,,,4,,,,57,100
40562,control_change,16,0,3,,,,,,,,,2,11,37,,,
40562,note_on,0,0,3,,,,,,,,,2,,,,72,116
40562,note_on,0,0,12,,,,,,,,,11,,,,64,112
40562,note_on,0,0,12,,,,,,,,,11,,,,60,112
40562,note_on,0,0,3,,,,,,,,,2,,,,76,116
40562,control_change,30,0,12,,,,,,,,,11,11,41,,,
40562,control_change,15,0,2,,,,,,,,,1,11,37,,,
40565,note_on,0,0,13,,,,,,,,,12,,,,57,112
40565,control_change,30,0,13,,,,,,,,,12,11,41,,,
40567,control_change,0,0,4,,,,,,,,,3,11,37,,,
40567,control_change,420,0,14,,,,,,,,,13,11,41,,,
40567,note_on,0,0,14,,,,,,,,,13,,,,45,112
40567,note_on,0,0,4,,,,,,,,,3,,,,57,100
40567,note_on,0,0,4,,,,,,,,,3,,,,56,0
40567,note_on,16,0,4,,,,,,,,,3,,,,59,0
40569,note_on,0,0,15,,,,,,,,,14,,,,33,112
40569,control_change,420,0,15,,,,,,,,,14,11,41,,,
40574,control_change,12,0,3,,,,,,,,,2,11,40,,,
40586,control_change,12,0,3,,,,,,,,,2,11,43,,,
40592,note_on,0,0,12,,,,,,,,,11,,,,60,0
40592,note_on,0,0,7,,,,,,,,,6,,,,64,112
40592,control_change,1770,0,7,,,,,,,,,6,11,47,,,
40592,note_on,30,0,12,,,,,,,,,11,,,,64,0
40595,note_on,30,0,13,,,,,,,,,12,,,,57,0
40598,control_change,12,0,3,,,,,,,,,2,11,46,,,
40602,note_on,10,0,7,,,,,,,,,6,,,,64,0
40607,note_on,5,0,7,,,,,,,,,6,,,,64,112
40610,control_change,12,0,3,,,,,,,,,2,11,49,,,
40617,note_on,10,0,7,,,,,,,,,6,,,,64,0
40620,note_on,60,0,11,,,,,,,,,10,,,,81,0
40620,set_tempo,60,1,0,,,,,,1111111,,,,,,,,
40621,note_on,60,0,5,,,,,,,,,4,,,,57,0
40622,control_change,12,0,3,,,,,,,,,2,11,52,,,
40622,note_on,0,0,12,,,,,,,,,11,,,,64,112
40622,note_on,30,0,12,,,,,,,,,11,,,,60,112
40622,note_on,5,0,7,,,,,,,,,6,,,,64,112
40625,note_on,30,0,13,,,,,,,,,12,,,,57,112
40627,note_on,60,0,14,,,,,,,,,13,,,,45,0
40627,note_on,60,0,4,,,,,,,,,3,,,,57,0
40629,note_on,60,0,15,,,,,,,,,14,,,,33,0
40652,note_on,30,0,12,,,,,,,,,11,,,,64,0
40652,note_on,0,0,12,,,,,,,,,11,,,,60,0
40655,note_on,30,0,13,,,,,,,,,12,,,,57,0
40662,note_on,40,0,7,,,,,,,,,6,,,,64,0
40667,note_on,5,0,7,,,,,,,,,6,,,,64,112
40677,note_on,10,0,7,,,,,,,,,6,,,,64,0
40680,set_tempo,60,1,0,,,,,,1188119,,,,,,,,
40682,note_on,0,0,3,,,,,,,,,2,,,,74,101
40682,note_on,60,0,3,,,,,,,,,2,,,,72,0
40682,note_on,0,0,3,,,,,,,,,2,,,,69,101
40682,note_on,0,0,3,,,,,,,,,2,,,,76,0
40682,note_on,0,0,12,,,,,,,,,11,,,,64,112
40682,note_on,30,0,12,,,,,,,,,11,,,,60,112
40682,note_on,5,0,7,,,,,,,,,6,,,,57,112
40685,note_on,30,0,13,,,,,,,,,12,,,,57,112
40697,note_on,0,0,3,,,,,,,,,2,,,,72,101
40697,note_on,15,0,3,,,,,,,,,2,,,,74,0
40712,note_on,0,0,12,,,,,,,,,11,,,,60,0
40712,note_on,30,0,12,,,,,,,,,11,,,,64,0
40712,note_on,30,0,7,,,,,,,,,6,,,,57,0
40715,note_on,30,0,13,,,,,,,,,12,,,,57,0
40716,note_on,19,0,3,,,,,,,,,2,,,,69,0
40717,note_on,1,0,3,,,,,,,,,2,,,,72,0
40727,note_on,10,0,3,,,,,,,,,2,,,,68,101
40727,note_on,0,0,3,,,,,,,,,2,,,,71,101
40734,note_on,7,0,3,,,,,,,,,2,,,,71,0
40734,note_on,0,0,3,,,,,,,,,2,,,,68,0
40740,set_tempo,60,1,0,,,,,,1111111,,,,,,,,
40742,note_on,8,0,3,,,,,,,,,2,,,,72,101
40742,note_on,0,0,3,,,,,,,,,2,,,,69,101
40742,note_on,0,0,12,,,,,,,,,11,,,,64,112
40742,note_on,30,0,7,,,,,,,,,6,,,,64,112
40742,note_on,30,0,12,,,,,,,,,11,,,,60,112
40745,note_on,30,0,13,,,,,,,,,12,,,,57,112
40772,note_on,30,0,12,,,,,,,,,11,,,,64,0
40772,note_on,30,0,7,,,,,,,,,6,,,,64,0
40772,note_on,0,0,12,,,,,,,,,11,,,,60,0
40775,note_on,30,0,13,,,,,,,,,12,,,,57,0
40776,note_on,0,0,3,,,,,,,,,2,,,,72,0
40776,note_on,34,0,3,,,,,,,,,2,,,,69,0
40787,note_on,0,0,3,,,,,,,,,2,,,,71,101
40787,note_on,11,0,3,,,,,,,,,2,,,,74,101
40794,note_on,0,0,3,,,,,,,,,2,,,,74,0
40794,note_on,7,0,3,,,,,,,,,2,,,,71,0
40800,set_tempo,60,1,0,,,,,,1165049,,,,,,,,
40802,note_on,0,0,12,,,,,,,,,11,,,,64,112
40802,note_on,30,0,7,,,,,,,,,6,,,,69,127
40802,note_on,0,0,3,,,,,,,,,2,,,,72,101
40802,note_on,8,0,3,,,,,,,,,2,,,,76,101
40802,note_on,30,0,12,,,,,,,,,11,,,,60,112
40805,note_on,30,0,13,,,,,,,,,12,,,,57,112
40807,note_on,180,0,14,,,,,,,,,13,,,,45,112
40809,note_on,180,0,15,,,,,,,,,14,,,,33,112
40831,note_on,0,0,5,,,,,,,,,4,,,,52,100
40831,control_change,210,0,5,,,,,,,,,4,11,45,,,
40832,note_on,30,0,12,,,,,,,,,11,,,,64,0
40832,note_on,0,0,12,,,,,,,,,11,,,,60,0
40835,note_on,30,0,13,,,,,,,,,12,,,,57,0
40841,note_on,10,0,5,,,,,,,,,4,,,,52,0
40846,note_on,5,0,5,,,,,,,,,4,,,,52,100
40856,note_on,10,0,5,,,,,,,,,4,,,,52,0
40860,set_tempo,60,1,0,,,,,,1111111,,,,,,,,
40861,note_on,5,0,5,,,,,,,,,4,,,,52,100
40862,note_on,0,0,3,,,,,,,,,2,,,,81,101
40862,note_on,0,0,12,,,,,,,,,11,,,,64,112
40862,note_on,30,0,12,,,,,,,,,11,,,,60,112
40862,note_on,60,0,3,,,,,,,,,2,,,,76,0
40865,note_on,30,0,13,,,,,,,,,12,,,,57,112
40867,note_on,60,0,14,,,,,,,,,13,,,,45,0
40869,note_on,60,0,15,,,,,,,,,14,,,,33,0
40892,note_on,30,0,12,,,,,,,,,11,,,,64,0
40892,note_on,0,0,12,,,,,,,,,11,,,,60,0
40892,note_on,30,0,3,,,,,,,,,2,,,,81,0
40895,note_on,30,0,13,,,,,,,,,12,,,,57,0
40901,note_on,40,0,5,,,,,,,,,4,,,,52,0
40906,note_on,5,0,5,,,,,,,,,4,,,,52,100
40916,note_on,10,0,5,,,,,,,,,4,,,,52,0
40917,note_on,115,0,7,,,,,,,,,6,,,,69,0
40920,set_tempo,60,1,0,,,,,,1188119,,,,,,,,
40921,note_on,5,0,5,,,,,,,,,4,,,,52,100
40922,note_on,0,0,3,,,,,,,,,2,,,,72,101
40922,note_on,30,0,3,,,,,,,,,2,,,,72,0
40922,note_on,5,0,7,,,,,,,,,6,,,,69,112
40922,note_on,0,0,12,,,,,,,,,11,,,,64,112
40922,note_on,0,0,3,,,,,,,,,2,,,,69,101
40922,note_on,30,0,12,,,,,,,,,11,,,,60,112
40925,note_on,30,0,13,,,,,,,,,12,,,,57,112
40927,note_on,60,0,14,,,,,,,,,13,,,,45,112
40929,note_on,60,0,15,,,,,,,,,14,,,,33,112
40951,note_on,30,0,5,,,,,,,,,4,,,,52,0
40952,note_on,30,0,3,,,,,,,,,2,,,,72,0
40952,note_on,0,0,3,,,,,,,,,2,,,,69,0
40952,note_on,0,0,12,,,,,,,,,11,,,,60,0
40952,note_on,30,0,12,,,,,,,,,11,,,,64,0
40955,note_on,30,0,13,,,,,,,,,12,,,,57,0
40957,note_on,30,0,14,,,,,,,,,13,,,,45,0
40959,note_on,30,0,15,,,,,,,,,14,,,,33,0
40980,set_tempo,60,1,0,,,,,,1111111,,,,,,,,
40981,note_on,30,0,5,,,,,,,,,4,,,,55,100
40982,note_on,0,0,12,,,,,,,,,11,,,,65,112
40982,note_on,30,0,12,,,,,,,,,11,,,,55,112
40982,note_on,420,0,2,,,,,,,,,1,,,,67,100
40982,note_on,0,0,3,,,,,,,,,2,,,,71,101
40982,note_on,60,0,7,,,,,,,,,6,,,,69,0
40982,note_on,30,0,3,,,,,,,,,2,,,,74,101
40985,note_on,30,0,13,,,,,,,,,12,,,,62,112
40985,note_on,0,0,13,,,,,,,,,12,,,,59,112
40987,note_on,0,0,4,,,,,,,,,3,,,,55,100
40987,note_on,360,0,4,,,,,,,,,3,,,,65,100
40987,note_on,30,0,14,,,,,,,,,13,,,,43,112
40989,note_on,30,0,15,,,,,,,,,14,,,,31,112
41011,note_on,30,0,5,,,,,,,,,4,,,,55,0
41012,note_on,0,0,3,,,,,,,,,2,,,,74,0
41012,note_on,0,0,12,,,,,,,,,11,,,,55,0
41012,note_on,30,0,12,,,,,,,,,11,,,,65,0
41012,note_on,30,0,3,,,,,,,,,2,,,,71,0
41015,note_on,0,0,13,,,,,,,,,12,,,,62,0
41015,note_on,30,0,13,,,,,,,,,12,,,,59,0
41017,note_on,30,0,4,,,,,,,,,3,,,,55,0
41017,note_on,0,0,4,,,,,,,,,3,,,,65,0
41017,note_on,30,0,14,,,,,,,,,13,,,,43,0
41019,note_on,30,0,15,,,,,,,,,14,,,,31,0
41040,set_tempo,60,1,0,,,,,,1165049,,,,,,,,
41041,note_on,30,0,5,,,,,,,,,4,,,,60,115
41042,note_on,0,0,2,,,,,,,,,1,,,,67,115
41042,note_on,30,0,3,,,,,,,,,2,,,,76,116
41042,note_on,0,0,12,,,,,,,,,11,,,,55,112
41042,note_on,60,0,2,,,,,,,,,1,,,,67,0
41042,note_on,0,0,3,,,,,,,,,2,,,,72,116
41042,note_on,30,0,12,,,,,,,,,11,,,,64,112
41045,note_on,30,0,13,,,,,,,,,12,,,,60,112
41047,note_on,0,0,4,,,,,,,,,3,,,,60,115
41047,note_on,30,0,4,,,,,,,,,3,,,,64,115
41047,note_on,30,0,14,,,,,,,,,13,,,,48,112
41049,note_on,30,0,15,,,,,,,,,14,,,,36,112
41072,note_on,0,0,12,,,,,,,,,11,,,,64,0
41072,note_on,30,0,12,,,,,,,,,11,,,,55,0
41075,note_on,30,0,13,,,,,,,,,12,,,,60,0
41100,set_tempo,60,1,0,,,,,,1111111,,,,,,,,
41102,note_on,0,0,12,,,,,,,,,11,,,,55,112
41102,note_on,30,0,12,,,,,,,,,11,,,,64,112
41105,note_on,30,0,13,,,,,,,,,12,,,,60,112
41107,note_on,60,0,14,,,,,,,,,13,,,,48,0
41109,note_on,60,0,15,,,,,,,,,14,,,,36,0
41132,note_on,30,0,12,,,,,,,,,11,,,,55,0
41132,note_on,0,0,12,,,,,,,,,11,,,,64,0
41135,note_on,30,0,13,,,,,,,,,12,,,,60,0
41151,note_on,110,0,5,,,,,,,,,4,,,,60,0
41152,note_on,110,0,2,,,,,,,,,1,,,,67,0
41152,note_on,110,0,3,,,,,,,,,2,,,,72,0
41152,note_on,0,0,3,,,,,,,,,2,,,,76,0
41157,note_on,0,0,4,,,,,,,,,3,,,,64,0
41157,note_on,110,0,4,,,,,,,,,3,,,,60,0
41160,set_tempo,60,1,0,,,,,,1188119,,,,,,,,
41161,note_on,10,0,5,,,,,,,,,4,,,,60,100
41162,note_on,10,0,3,,,,,,,,,2,,,,76,116
41162,note_on,10,0,2,,,,,,,,,1,,,,67,115
41162,note_on,0,0,3,,,,,,,,,2,,,,72,116
41162,note_on,0,0,12,,,,,,,,,11,,,,55,112
41162,note_on,30,0,12,,,,,,,,,11,,,,64,112
41165,note_on,30,0,13,,,,,,,,,12,,,,60,112
41167,note_on,60,0,14,,,,,,,,,13,,,,48,112
41167,note_on,0,0,4,,,,,,,,,3,,,,60,115
41167,note_on,10,0,4,,,,,,,,,3,,,,64,115
41169,note_on,60,0,15,,,,,,,,,14,,,,36,112
41192,note_on,0,0,12,,,,,,,,,11,,,,64,0
41192,note_on,30,0,12,,,,,,,,,11,,,,55,0
41195,note_on,30,0,13,,,,,,,,,12,,,,60,0
41220,set_tempo,60,1,0,,,,,,1111111,,,,,,,,
41221,note_on,60,0,5,,,,,,,,,4,,,,60,0
41222,note_on,0,0,12,,,,,,,,,11,,,,55,112
41222,note_on,30,0,12,,,,,,,,,11,,,,64,112
41225,note_on,30,0,13,,,,,,,,,12,,,,60,112
41227,note_on,60,0,14,,,,,,,,,13,,,,48,0
41229,note_on,60,0,15,,,,,,,,,14,,,,36,0
41252,note_on,0,0,12,,,,,,,,,11,,,,64,0
41252,note_on,30,0,12,,,,,,,,,11,,,,55,0
41255,note_on,30,0,13,,,,,,,,,12,,,,60,0
41272,note_on,110,0,3,,,,,,,,,2,,,,72,0
41272,note_on,0,0,3,,,,,,,,,2,,,,76,0
41272,note_on,110,0,2,,,,,,,,,1,,,,67,0
41277,note_on,0,0,4,,,,,,,,,3,,,,64,0
41277,note_on,110,0,4,,,,,,,,,3,,,,60,0
41280,set_tempo,60,1,0,,,,,,1165049,,,,,,,,
41282,note_on,30,0,12,,,,,,,,,11,,,,55,112
41282,note_on,0,0,12,,,,,,,,,11,,,,65,112
41282,control_change,0,0,2,,,,,,,,,1,11,52,,,
41282,note_on,0,0,3,,,,,,,,,2,,,,71,116
41282,control_change,10,0,3,,,,,,,,,2,11,52,,,
41282,note_on,10,0,2,,,,,,,,,1,,,,77,115
41285,note_on,0,0,13,,,,,,,,,12,,,,62,112
41285,note_on,30,0,13,,,,,,,,,12,,,,59,112
41287,note_on,60,0,14,,,,,,,,,13,,,,43,112
41289,note_on,60,0,15,,,,,,,,,14,,,,31,112
41310,note_on,0,0,11,,,,,,,,,10,,,,79,102
41310,control_change,690,0,11,,,,,,,,,10,11,45,,,
41312,note_on,0,0,12,,,,,,,,,11,,,,55,0
41312,note_on,30,0,12,,,,,,,,,11,,,,65,0
41315,note_on,30,0,13,,,,,,,,,12,,,,62,0
41315,note_on,0,0,13,,,,,,,,,12,,,,59,0
41321,note_on,11,0,11,,,,,,,,,10,,,,79,0
41325,note_on,4,0,11,,,,,,,,,10,,,,79,102
41327,note_on,45,0,3,,,,,,,,,2,,,,71,0
41327,note_on,0,0,3,,,,,,,,,2,,,,72,101
41336,note_on,11,0,11,,,,,,,,,10,,,,79,0
41340,set_tempo,60,1,0,,,,,,1111111,,,,,,,,
41340,note_on,4,0,11,,,,,,,,,10,,,,79,102
41342,note_on,0,0,12,,,,,,,,,11,,,,65,112
41342,note_on,30,0,12,,,,,,,,,11,,,,55,112
41342,note_on,0,0,3,,,,,,,,,2,,,,74,101
41342,note_on,15,0,3,,,,,,,,,2,,,,72,0
41345,note_on,30,0,13,,,,,,,,,12,,,,59,112
41345,note_on,0,0,13,,,,,,,,,12,,,,62,112
41347,note_on,60,0,14,,,,,,,,,13,,,,43,0
41349,note_on,60,0,15,,,,,,,,,14,,,,31,0
41372,note_on,0,0,12,,,,,,,,,11,,,,55,0
41372,note_on,30,0,12,,,,,,,,,11,,,,65,0
41374,note_on,34,0,11,,,,,,,,,10,,,,79,0
41375,note_on,0,0,13,,,,,,,,,12,,,,59,0
41375,note_on,30,0,13,,,,,,,,,12,,,,62,0
41385,note_on,11,0,11,,,,,,,,,10,,,,79,102
41387,note_on,45,0,3,,,,,,,,,2,,,,74,0
41387,note_on,0,0,3,,,,,,,,,2,,,,72,101
41396,note_on,11,0,11,,,,,,,,,10,,,,79,0
41397,note_on,10,0,3,,,,,,,,,2,,,,72,0
41400,note_on,4,0,11,,,,,,,,,10,,,,86,102
41400,set_tempo,60,1,0,,,,,,1188119,,,,,,,,
41402,note_on,120,0,2,,,,,,,,,1,,,,77,0
41402,note_on,0,0,12,,,,,,,,,11,,,,65,112
41402,note_on,5,0,3,,,,,,,,,2,,,,71,101
41402,note_on,0,0,2,,,,,,,,,1,,,,81,100
41402,note_on,30,0,12,,,,,,,,,11,,,,55,112
41405,note_on,30,0,13,,,,,,,,,12,,,,59,112
41405,note_on,0,0,13,,,,,,,,,12,,,,62,112
41407,note_on,60,0,14,,,,,,,,,13,,,,43,112
41409,note_on,60,0,15,,,,,,,,,14,,,,31,112
41432,note_on,0,0,12,,,,,,,,,11,,,,55,0
41432,note_on,30,0,12,,,,,,,,,11,,,,65,0
41435,note_on,0,0,13,,,,,,,,,12,,,,59,0
41435,note_on,30,0,13,,,,,,,,,12,,,,62,0
41447,note_on,0,0,2,,,,,,,,,1,,,,80,100
41447,note_on,45,0,2,,,,,,,,,1,,,,81,0
41460,note_on,60,0,11,,,,,,,,,10,,,,86,0
41460,set_tempo,60,1,0,,,,,,1111111,,,,,,,,
41460,note_on,0,0,11,,,,,,,,,10,,,,89,102
41462,note_on,0,0,2,,,,,,,,,1,,,,81,100
41462,note_on,15,0,2,,,,,,,,,1,,,,80,0
41462,note_on,30,0,12,,,,,,,,,11,,,,55,112
41462,note_on,0,0,12,,,,,,,,,11,,,,65,112
41465,note_on,0,0,13,,,,,,,,,12,,,,62,112
41465,note_on,30,0,13,,,,,,,,,12,,,,59,112
41467,note_on,60,0,14,,,,,,,,,13,,,,43,0
41469,note_on,60,0,15,,,,,,,,,14,,,,31,0
41490,note_on,30,0,11,,,,,,,,,10,,,,89,0
41492,note_on,30,0,12,,,,,,,,,11,,,,65,0
41492,note_on,0,0,12,,,,,,,,,11,,,,55,0
41495,note_on,0,0,13,,,,,,,,,12,,,,59,0
41495,note_on,30,0,13,,,,,,,,,12,,,,62,0
41507,note_on,45,0,2,,,,,,,,,1,,,,81,0
41507,note_on,0,0,2,,,,,,,,,1,,,,77,100
41517,note_on,10,0,2,,,,,,,,,1,,,,77,0
41520,set_tempo,60,1,0,,,,,,1200000,,,,,,,,
41522,note_on,0,0,3,,,,,,,,,2,,,,72,101
41522,note_on,120,0,3,,,,,,,,,2,,,,71,0
41522,note_on,5,0,2,,,,,,,,,1,,,,76,100
41522,note_on,30,0,12,,,,,,,,,11,,,,64,112
41522,note_on,0,0,12,,,,,,,,,11,,,,55,112
41525,note_on,30,0,13,,,,,,,,,12,,,,60,112
41527,note_on,60,0,14,,,,,,,,,13,,,,48,112
41529,note_on,60,0,15,,,,,,,,,14,,,,36,112
41550,note_on,60,0,11,,,,,,,,,10,,,,79,102
41552,note_on,30,0,12,,,,,,,,,11,,,,55,0
41552,note_on,0,0,12,,,,,,,,,11,,,,64,0
41555,note_on,30,0,13,,,,,,,,,12,,,,60,0
41561,note_on,11,0,11,,,,,,,,,10,,,,79,0
41565,note_on,4,0,11,,,,,,,,,10,,,,79,102
41567,note_on,0,0,3,,,,,,,,,2,,,,71,101
41567,note_on,45,0,3,,,,,,,,,2,,,,72,0
41576,note_on,11,0,11,,,,,,,,,10,,,,79,0
41580,set_tempo,60,1,0,,,,,,1111111,,,,,,,,
41580,note_on,4,0,11,,,,,,,,,10,,,,79,102
41582,note_on,30,0,12,,,,,,,,,11,,,,64,112
41582,note_on,0,0,3,,,,,,,,,2,,,,72,101
41582,note_on,15,0,3,,,,,,,,,2,,,,71,0
41582,note_on,0,0,12,,,,,,,,,11,,,,55,112
41585,note_on,30,0,13,,,,,,,,,12,,,,60,112
41587,note_on,60,0,14,,,,,,,,,13,,,,48,0
41589,note_on,60,0,15,,,,,,,,,14,,,,36,0
41612,note_on,30,0,12,,,,,,,,,11,,,,55,0
41612,note_on,0,0,12,,,,,,,,,11,,,,64,0
41614,note_on,34,0,11,,,,,,,,,10,,,,79,0
41615,note_on,30,0,13,,,,,,,,,12,,,,60,0
41625,note_on,11,0,11,,,,,,,,,10,,,,79,102
41627,note_on,45,0,3,,,,,,,,,2,,,,72,0
41627,note_on,0,0,3,,,,,,,,,2,,,,74,101
41636,note_on,11,0,11,,,,,,,,,10,,,,79,0
41637,note_on,10,0,3,,,,,,,,,2,,,,74,0
41640,set_tempo,60,1,0,,,,,,1188119,,,,,,,,
41640,note_on,4,0,11,,,,,,,,,10,,,,84,102
41642,note_on,120,0,2,,,,,,,,,1,,,,76,0
41642,note_on,30,0,12,,,,,,,,,11,,,,64,112
41642,note_on,0,0,12,,,,,,,,,11,,,,55,112
41642,note_on,5,0,3,,,,,,,,,2,,,,76,101
41642,note_on,0,0,2,,,,,,,,,1,,,,79,100
41645,note_on,30,0,13,,,,,,,,,12,,,,60,112
41647,note_on,60,0,14,,,,,,,,,13,,,,48,112
41649,note_on,60,0,15,,,,,,,,,14,,,,36,112
41672,note_on,0,0,12,,,,,,,,,11,,,,64,0
41672,note_on,30,0,12,,,,,,,,,11,,,,55,0
41675,note_on,30,0,13,,,,,,,,,12,,,,60,0
41687,note_on,0,0,2,,,,,,,,,1,,,,78,100
41687,note_on,45,0,2,,,,,,,,,1,,,,79,0
41700,note_on,60,0,11,,,,,,,,,10,,,,84,0
41700,note_on,0,0,11,,,,,,,,,10,,,,88,102
41700,set_tempo,60,1,0,,,,,,1111111,,,,,,,,
41702,note_on,0,0,2,,,,,,,,,1,,,,79,100
41702,note_on,15,0,2,,,,,,,,,1,,,,78,0
41702,note_on,30,0,12,,,,,,,,,11,,,,64,112
41702,note_on,0,0,12,,,,,,,,,11,,,,55,112
41705,note_on,30,0,13,,,,,,,,,12,,,,60,112
41707,note_on,60,0,14,,,,,,,,,13,,,,48,0
41709,note_on,60,0,15,,,,,,,,,14,,,,36,0
41730,note_on,30,0,11,,,,,,,,,10,,,,88,0
41732,note_on,30,0,12,,,,,,,,,11,,,,55,0
41732,note_on,0,0,12,,,,,,,,,11,,,,64,0
41735,note_on,30,0,13,,,,,,,,,12,,,,60,0
41747,note_on,0,0,2,,,,,,,,,1,,,,76,100
41747,note_on,45,0,2,,,,,,,,,1,,,,79,0
41757,note_on,10,0,2,,,,,,,,,1,,,,76,0
41760,set_tempo,60,1,0,,,,,,1165049,,,,,,,,
41762,note_on,30,0,12,,,,,,,,,11,,,,57,112
41762,note_on,0,0,12,,,,,,,,,11,,,,64,112
41762,note_on,120,0,3,,,,,,,,,2,,,,76,0
41762,note_on,5,0,2,,,,,,,,,1,,,,72,100
41765,note_on,30,0,13,,,,,,,,,12,,,,60,112
41767,note_on,60,0,14,,,,,,,,,13,,,,45,112
41769,note_on,60,0,15,,,,,,,,,14,,,,33,112
41790,note_on,60,0,11,,,,,,,,,10,,,,76,102
41792,note_on,0,0,12,,,,,,,,,11,,,,57,0
41792,note_on,30,0,12,,,,,,,,,11,,,,64,0
41795,note_on,30,0,13,,,,,,,,,12,,,,60,0
41801,note_on,11,0,11,,,,,,,,,10,,,,76,0
41805,note_on,4,0,11,,,,,,,,,10,,,,76,102
41816,note_on,11,0,11,,,,,,,,,10,,,,76,0
41820,set_tempo,60,1,0,,,,,,1090909,,,,,,,,
41820,note_on,4,0,11,,,,,,,,,10,,,,76,102
41822,note_on,30,0,12,,,,,,,,,11,,,,57,112
41822,note_on,0,0,12,,,,,,,,,11,,,,64,112
41825,note_on,30,0,13,,,,,,,,,12,,,,60,112
41827,note_on,60,0,14,,,,,,,,,13,,,,45,0
41829,note_on,60,0,15,,,,,,,,,14,,,,33,0
41852,note_on,30,0,12,,,,,,,,,11,,,,64,0
41852,note_on,0,0,12,,,,,,,,,11,,,,57,0
41854,note_on,34,0,11,,,,,,,,,10,,,,76,0
41855,note_on,30,0,13,,,,,,,,,12,,,,60,0
41865,control_change,11,0,11,,,,,,,,,10,11,55,,,
41865,note_on,0,0,11,,,,,,,,,10,,,,76,102
41876,note_on,11,0,11,,,,,,,,,10,,,,76,0
41880,note_on,4,0,11,,,,,,,,,10,,,,79,102
41880,set_tempo,60,1,0,,,,,,1142857,,,,,,,,
41881,control_change,6540,0,1,,,,,,,,,0,11,52,,,
41881,note_on,0,0,1,,,,,,,,,0,,,,83,101
41882,note_on,0,0,2,,,,,,,,,1,,,,71,100
41882,note_on,120,0,2,,,,,,,,,1,,,,72,0
41882,note_on,0,0,12,,,,,,,,,11,,,,65,112
41882,note_on,30,0,12,,,,,,,,,11,,,,57,112
41883,control_change,3,0,11,,,,,,,,,10,11,53,,,
41885,note_on,30,0,13,,,,,,,,,12,,,,59,112
41887,note_on,60,0,14,,,,,,,,,13,,,,50,112
41889,note_on,60,0,15,,,,,,,,,14,,,,38,112
41895,note_on,12,0,11,,,,,,,,,10,,,,79,0
41895,note_on,0,0,11,,,,,,,,,10,,,,77,102
41901,control_change,6,0,11,,,,,,,,,10,11,51,,,
41902,note_on,15,0,14,,,,,,,,,13,,,,50,0
41904,note_on,15,0,15,,,,,,,,,14,,,,38,0
41904,note_on,23,0,1,,,,,,,,,0,,,,83,0
41905,note_on,23,0,2,,,,,,,,,1,,,,71,0
41905,note_on,4,0,11,,,,,,,,,10,,,,77,0
41910,note_on,5,0,11,,,,,,,,,10,,,,77,102
41911,note_on,7,0,1,,,,,,,,,0,,,,84,101
41912,note_on,30,0,12,,,,,,,,,11,,,,65,0
41912,note_on,0,0,12,,,,,,,,,11,,,,57,0
41912,note_on,7,0,2,,,,,,,,,1,,,,72,100
41915,note_on,30,0,13,,,,,,,,,12,,,,59,0
41917,note_on,15,0,14,,,,,,,,,13,,,,52,112
41919,control_change,9,0,11,,,,,,,,,10,11,49,,,
41919,note_on,15,0,15,,,,,,,,,14,,,,40,112
41925,note_on,0,0,11,,,,,,,,,10,,,,76,102
41925,note_on,6,0,11,,,,,,,,,10,,,,77,0
41932,note_on,15,0,14,,,,,,,,,13,,,,52,0
41934,note_on,15,0,15,,,,,,,,,14,,,,40,0
41934,note_on,23,0,1,,,,,,,,,0,,,,84,0
41935,note_on,23,0,2,,,,,,,,,1,,,,72,0
41935,note_on,10,0,11,,,,,,,,,10,,,,76,0
41937,control_change,2,0,11,,,,,,,,,10,11,47,,,
41940,set_tempo,60,1,0,,,,,,1081081,,,,,,,,
41940,note_on,3,0,11,,,,,,,,,10,,,,76,102
41941,note_on,7,0,1,,,,,,,,,0,,,,86,101
41942,note_on,30,0,12,,,,,,,,,11,,,,57,112
41942,note_on,0,0,12,,,,,,,,,11,,,,65,112
41942,note_on,7,0,2,,,,,,,,,1,,,,74,100
41945,note_on,30,0,13,,,,,,,,,12,,,,59,112
41947,note_on,15,0,14,,,,,,,,,13,,,,53,112
41949,note_on,15,0,15,,,,,,,,,14,,,,41,112
41955,note_on,0,0,11,,,,,,,,,10,,,,74,102
41955,control_change,0,0,11,,,,,,,,,10,11,45,,,
41955,note_on,15,0,11,,,,,,,,,10,,,,76,0
41962,note_on,15,0,14,,,,,,,,,13,,,,53,0
41964,note_on,23,0,1,,,,,,,,,0,,,,86,0
41964,note_on,15,0,15,,,,,,,,,14,,,,41,0
41965,note_on,23,0,2,,,,,,,,,1,,,,74,0
41965,note_on,10,0,11,,,,,,,,,10,,,,74,0
41970,note_on,5,0,11,,,,,,,,,10,,,,74,102
41971,note_on,7,0,1,,,,,,,,,0,,,,89,101
41972,note_on,0,0,12,,,,,,,,,11,,,,57,0
41972,note_on,7,0,2,,,,,,,,,1,,,,77,100
41972,note_on,30,0,12,,,,,,,,,11,,,,65,0
41973,control_change,3,0,11,,,,,,,,,10,11,43,,,
41975,note_on,30,0,13,,,,,,,,,12,,,,59,0
41977,note_on,15,0,14,,,,,,,,,13,,,,50,112
41979,note_on,15,0,15,,,,,,,,,14,,,,38,112
41985,note_on,12,0,11,,,,,,,,,10,,,,74,0
41985,note_on,0,0,11,,,,,,,,,10,,,,72,102
41991,control_change,6,0,11,,,,,,,,,10,11,42,,,
41992,note_on,15,0,14,,,,,,,,,13,,,,50,0
41994,note_on,15,0,15,,,,,,,,,14,,,,38,0
41994,note_on,23,0,1,,,,,,,,,0,,,,89,0
41995,note_on,23,0,2,,,,,,,,,1,,,,77,0
41995,note_on,4,0,11,,,,,,,,,10,,,,72,0
42000,note_on,5,0,11,,,,,,,,,10,,,,76,112
42000,set_tempo,60,1,0,,,,,,1132075,,,,,,,,
42001,note_on,0,0,1,,,,,,,,,0,,,,89,101
42001,control_change,780,0,5,,,,,,,,,4,11,52,,,
42001,note_on,0,0,5,,,,,,,,,4,,,,64,100
42001,control_change,7,0,1,,,,,,,,,0,11,52,,,
42002,note_on,0,0,12,,,,,,,,,11,,,,57,112
42002,note_on,0,0,12,,,,,,,,,11,,,,64,112
42002,control_change,30,0,12,,,,,,,,,11,11,41,,,
42002,note_on,0,0,3,,,,,,,,,2,,,,64,101
42002,note_on,7,0,2,,,,,,,,,1,,,,77,100
42002,control_change,240,0,3,,,,,,,,,2,11,52,,,
42002,control_change,0,0,2,,,,,,,,,1,11,52,,,
42004,control_change,6900,0,8,,,,,,,,,7,11,37,,,
42004,note_on,0,0,8,,,,,,,,,7,,,,60,110
42004,note_on,0,0,8,,,,,,,,,7,,,,64,110
42005,control_change,0,0,13,,,,,,,,,12,11,41,,,
42005,note_on,30,0,13,,,,,,,,,12,,,,60,112
42006,note_on,0,0,9,,,,,,,,,8,,,,52,110
42006,control_change,6900,0,9,,,,,,,,,8,11,37,,,
42007,note_on,0,0,4,,,,,,,,,3,,,,52,100
42007,control_change,730,0,4,,,,,,,,,3,11,52,,,
42007,control_change,15,0,14,,,,,,,,,13,11,41,,,
42007,note_on,0,0,14,,,,,,,,,13,,,,52,112
42008,control_change,8,0,11,,,,,,,,,10,11,42,,,
42009,control_change,15,0,15,,,,,,,,,14,11,41,,,
42009,note_on,0,0,15,,,,,,,,,14,,,,40,112
42016,note_on,0,0,1,,,,,,,,,0,,,,88,116
42016,note_on,15,0,1,,,,,,,,,0,,,,89,0
42017,control_change,16,0,5,,,,,,,,,4,11,54,,,
42017,control_change,1,0,1,,,,,,,,,0,11,54,,,
42017,note_on,15,0,2,,,,,,,,,1,,,,77,0
42017,note_on,0,0,2,,,,,,,,,1,,,,76,115
42018,control_change,16,0,12,,,,,,,,,11,11,42,,,
42018,control_change,16,0,3,,,,,,,,,2,11,54,,,
42018,control_change,1,0,2,,,,,,,,,1,11,54,,,
42020,control_change,16,0,8,,,,,,,,,7,11,39,,,
42021,control_change,16,0,13,,,,,,,,,12,11,42,,,
42022,control_change,16,0,9,,,,,,,,,8,11,39,,,
42023,control_change,16,0,14,,,,,,,,,13,11,42,,,
42023,control_change,16,0,4,,,,,,,,,3,11,54,,,
42024,control_change,16,0,11,,,,,,,,,10,11,43,,,
42025,control_change,16,0,15,,,,,,,,,14,11,42,,,
42030,note_on,0,0,11,,,,,,,,,10,,,,81,112
42030,note_on,6,0,11,,,,,,,,,10,,,,76,0
42032,note_on,0,0,12,,,,,,,,,11,,,,64,0
42032,note_on,14,0,12,,,,,,,,,11,,,,57,0
42032,note_on,14,0,3,,,,,,,,,2,,,,64,0
42032,note_on,0,0,3,,,,,,,,,2,,,,69,101
42033,control_change,16,0,5,,,,,,,,,4,11,56,,,
42033,control_change,16,0,1,,,,,,,,,0,11,56,,,
42034,control_change,2,0,12,,,,,,,,,11,11,44,,,
42034,control_change,16,0,2,,,,,,,,,1,11,56,,,
42034,control_change,2,0,3,,,,,,,,,2,11,56,,,
42035,note_on,14,0,13,,,,,,,,,12,,,,60,0
42036,control_change,16,0,8,,,,,,,,,7,11,41,,,
42037,note_on,0,0,4,,,,,,,,,3,,,,57,100
42037,note_on,14,0,14,,,,,,,,,13,,,,52,0
42037,note_on,14,0,4,,,,,,,,,3,,,,52,0
42037,control_change,2,0,13,,,,,,,,,12,11,44,,,
42038,control_change,16,0,9,,,,,,,,,8,11,41,,,
42039,note_on,14,0,15,,,,,,,,,14,,,,40,0
42039,control_change,2,0,14,,,,,,,,,13,11,44,,,
42039,control_change,2,0,4,,,,,,,,,3,11,56,,,
42040,control_change,10,0,11,,,,,,,,,10,11,45,,,
42041,control_change,2,0,15,,,,,,,,,14,11,44,,,
42046,note_on,13,0,5,,,,,,,,,4,,,,64,0
42046,note_on,13,0,1,,,,,,,,,0,,,,88,0
42047,note_on,13,0,2,,,,,,,,,1,,,,76,0
42049,control_change,3,0,5,,,,,,,,,4,11,58,,,
42049,control_change,3,0,1,,,,,,,,,0,11,57,,,
42050,control_change,16,0,3,,,,,,,,,2,11,57,,,
42050,control_change,3,0,2,,,,,,,,,1,11,57,,,
42050,control_change,16,0,12,,,,,,,,,11,11,46,,,
42052,control_change,16,0,8,,,,,,,,,7,11,43,,,
42053,control_change,16,0,13,,,,,,,,,12,11,46,,,
42054,control_change,16,0,9,,,,,,,,,8,11,43,,,
42055,control_change,16,0,4,,,,,,,,,3,11,58,,,
42055,control_change,16,0,14,,,,,,,,,13,11,46,,,
42056,control_change,16,0,11,,,,,,,,,10,11,47,,,
42057,control_change,16,0,15,,,,,,,,,14,11,46,,,
42060,note_on,4,0,11,,,,,,,,,10,,,,81,0
42060,note_on,0,0,11,,,,,,,,,10,,,,83,112
42060,set_tempo,60,1,0,,,,,,1153846,,,,,,,,
42061,note_on,12,0,1,,,,,,,,,0,,,,88,101
42061,note_on,12,0,5,,,,,,,,,4,,,,65,100
42062,note_on,12,0,12,,,,,,,,,11,,,,62,112
42062,note_on,0,0,3,,,,,,,,,2,,,,71,101
42062,note_on,12,0,3,,,,,,,,,2,,,,69,0
42062,note_on,0,0,12,,,,,,,,,11,,,,65,112
42062,note_on,12,0,2,,,,,,,,,1,,,,76,100
42064,note_on,12,0,8,,,,,,,,,7,,,,64,0
42064,note_on,0,0,8,,,,,,,,,7,,,,60,0
42064,note_on,0,0,8,,,,,,,,,7,,,,59,110
42064,note_on,0,0,8,,,,,,,,,7,,,,62,110
42065,control_change,4,0,1,,,,,,,,,0,11,59,,,
42065,note_on,12,0,13,,,,,,,,,12,,,,59,112
42065,control_change,4,0,5,,,,,,,,,4,11,60,,,
42066,note_on,12,0,9,,,,,,,,,8,,,,52,0
42066,note_on,0,0,9,,,,,,,,,8,,,,52,110
42066,control_change,4,0,3,,,,,,,,,2,11,59,,,
42066,control_change,4,0,12,,,,,,,,,11,11,48,,,
42066,control_change,4,0,2,,,,,,,,,1,11,59,,,
42067,note_on,12,0,4,,,,,,,,,3,,,,57,0
42067,note_on,0,0,4,,,,,,,,,3,,,,59,100
42067,note_on,12,0,14,,,,,,,,,13,,,,52,112
42068,control_change,4,0,8,,,,,,,,,7,11,45,,,
42069,control_change,4,0,13,,,,,,,,,12,11,48,,,
42069,note_on,12,0,15,,,,,,,,,14,,,,40,112
42070,control_change,4,0,9,,,,,,,,,8,11,45,,,
42071,control_change,4,0,4,,,,,,,,,3,11,60,,,
42071,control_change,4,0,14,,,,,,,,,13,11,48,,,
42072,control_change,12,0,11,,,,,,,,,10,11,49,,,
42073,control_change,4,0,15,,,,,,,,,14,11,48,,,
42081,control_change,16,0,1,,,,,,,,,0,11,60,,,
42081,control_change,16,0,5,,,,,,,,,4,11,62,,,
42082,control_change,16,0,3,,,,,,,,,2,11,60,,,
42082,control_change,16,0,2,,,,,,,,,1,11,60,,,
42082,control_change,16,0,12,,,,,,,,,11,11,50,,,
42084,control_change,16,0,8,,,,,,,,,7,11,47,,,
42085,control_change,16,0,13,,,,,,,,,12,11,50,,,
42086,control_change,16,0,9,,,,,,,,,8,11,47,,,
42087,control_change,16,0,14,,,,,,,,,13,11,50,,,
42087,control_change,16,0,4,,,,,,,,,3,11,62,,,
42088,control_change,16,0,11,,,,,,,,,10,11,51,,,
42089,control_change,16,0,15,,,,,,,,,14,11,50,,,
42090,note_on,2,0,11,,,,,,,,,10,,,,83,0
42090,note_on,0,0,11,,,,,,,,,10,,,,86,112
42092,note_on,0,0,3,,,,,,,,,2,,,,74,101
42092,note_on,10,0,3,,,,,,,,,2,,,,71,0
42092,note_on,0,0,12,,,,,,,,,11,,,,62,0
42092,note_on,10,0,12,,,,,,,,,11,,,,65,0
42095,note_on,10,0,13,,,,,,,,,12,,,,59,0
42097,note_on,0,0,4,,,,,,,,,3,,,,62,100
42097,note_on,10,0,4,,,,,,,,,3,,,,59,0
42097,control_change,16,0,5,,,,,,,,,4,11,64,,,
42097,control_change,16,0,1,,,,,,,,,0,11,62,,,
42097,note_on,10,0,14,,,,,,,,,13,,,,52,0
42098,control_change,6,0,3,,,,,,,,,2,11,62,,,
42098,control_change,6,0,12,,,,,,,,,11,11,52,,,
42098,control_change,16,0,2,,,,,,,,,1,11,62,,,
42099,note_on,10,0,15,,,,,,,,,14,,,,40,0
42100,control_change,16,0,8,,,,,,,,,7,11,49,,,
42101,control_change,6,0,13,,,,,,,,,12,11,52,,,
42102,control_change,16,0,9,,,,,,,,,8,11,49,,,
42103,control_change,6,0,14,,,,,,,,,13,11,52,,,
42103,control_change,6,0,4,,,,,,,,,3,11,64,,,
42104,control_change,14,0,11,,,,,,,,,10,11,53,,,
42105,control_change,6,0,15,,,,,,,,,14,11,52,,,
42106,note_on,9,0,1,,,,,,,,,0,,,,88,0
42106,note_on,9,0,5,,,,,,,,,4,,,,65,0
42107,note_on,9,0,2,,,,,,,,,1,,,,76,0
42113,control_change,7,0,5,,,,,,,,,4,11,66,,,
42113,control_change,7,0,1,,,,,,,,,0,11,63,,,
42114,control_change,7,0,2,,,,,,,,,1,11,63,,,
42114,control_change,16,0,12,,,,,,,,,11,11,54,,,
42114,control_change,16,0,3,,,,,,,,,2,11,63,,,
42116,control_change,16,0,8,,,,,,,,,7,11,51,,,
42117,control_change,16,0,13,,,,,,,,,12,11,54,,,
42118,control_change,16,0,9,,,,,,,,,8,11,51,,,
42119,control_change,16,0,14,,,,,,,,,13,11,54,,,
42119,control_change,16,0,4,,,,,,,,,3,11,66,,,
42120,set_tempo,60,1,0,,,,,,1250000,,,,,,,,
42120,note_on,0,0,11,,,,,,,,,10,,,,84,112
42120,control_change,0,0,11,,,,,,,,,10,11,55,,,
42120,note_on,16,0,11,,,,,,,,,10,,,,86,0
42121,note_on,8,0,1,,,,,,,,,0,,,,89,101
42121,note_on,8,0,5,,,,,,,,,4,,,,64,100
42121,control_change,16,0,15,,,,,,,,,14,11,54,,,
42122,note_on,0,0,12,,,,,,,,,11,,,,64,112
42122,note_on,8,0,2,,,,,,,,,1,,,,77,100
42122,note_on,0,0,3,,,,,,,,,2,,,,72,101
42122,note_on,8,0,3,,,,,,,,,2,,,,74,0
42122,note_on,8,0,12,,,,,,,,,11,,,,60,112
42124,note_on,8,0,8,,,,,,,,,7,,,,62,0
42124,note_on,0,0,8,,,,,,,,,7,,,,59,0
42124,note_on,0,0,8,,,,,,,,,7,,,,60,110
42124,note_on,0,0,8,,,,,,,,,7,,,,64,110
42125,note_on,8,0,13,,,,,,,,,12,,,,60,112
42126,note_on,0,0,9,,,,,,,,,8,,,,52,110
42126,note_on,8,0,9,,,,,,,,,8,,,,52,0
42127,note_on,8,0,4,,,,,,,,,3,,,,62,0
42127,note_on,0,0,4,,,,,,,,,3,,,,60,100
42127,note_on,8,0,14,,,,,,,,,13,,,,52,112
42129,control_change,8,0,5,,,,,,,,,4,11,66,,,
42129,control_change,8,0,1,,,,,,,,,0,11,63,,,
42129,note_on,8,0,15,,,,,,,,,14,,,,40,112
42130,control_change,8,0,3,,,,,,,,,2,11,63,,,
42130,control_change,8,0,2,,,,,,,,,1,11,63,,,
42130,control_change,8,0,12,,,,,,,,,11,11,54,,,
42132,control_change,8,0,8,,,,,,,,,7,11,51,,,
42133,control_change,8,0,13,,,,,,,,,12,11,54,,,
42134,control_change,8,0,9,,,,,,,,,8,11,51,,,
42135,control_change,8,0,14,,,,,,,,,13,11,54,,,
42135,control_change,8,0,4,,,,,,,,,3,11,66,,,
42136,control_change,16,0,11,,,,,,,,,10,11,53,,,
42136,note_on,7,0,1,,,,,,,,,0,,,,89,0
42136,note_on,0,0,1,,,,,,,,,0,,,,88,116
42137,control_change,8,0,15,,,,,,,,,14,11,54,,,
42137,note_on,7,0,2,,,,,,,,,1,,,,77,0
42137,note_on,0,0,2,,,,,,,,,1,,,,76,115
42145,control_change,16,0,5,,,,,,,,,4,11,64,,,
42145,control_change,9,0,1,,,,,,,,,0,11,62,,,
42146,control_change,16,0,3,,,,,,,,,2,11,62,,,
42146,control_change,16,0,12,,,,,,,,,11,11,52,,,
42146,control_change,9,0,2,,,,,,,,,1,11,62,,,
42148,control_change,16,0,8,,,,,,,,,7,11,49,,,
42149,control_change,16,0,13,,,,,,,,,12,11,52,,,
42150,note_on,14,0,11,,,,,,,,,10,,,,84,0
42150,control_change,16,0,9,,,,,,,,,8,11,49,,,
42151,control_change,16,0,4,,,,,,,,,3,11,64,,,
42151,control_change,16,0,14,,,,,,,,,13,11,52,,,
42152,note_on,6,0,12,,,,,,,,,11,,,,64,0
42152,note_on,0,0,12,,,,,,,,,11,,,,60,0
42152,control_change,2,0,11,,,,,,,,,10,11,51,,,
42153,control_change,16,0,15,,,,,,,,,14,11,52,,,
42155,note_on,6,0,13,,,,,,,,,12,,,,60,0
42157,note_on,6,0,14,,,,,,,,,13,,,,52,0
42159,note_on,6,0,15,,,,,,,,,14,,,,40,0
42161,control_change,16,0,1,,,,,,,,,0,11,60,,,
42161,control_change,16,0,5,,,,,,,,,4,11,62,,,
42162,control_change,16,0,2,,,,,,,,,1,11,60,,,
42162,control_change,16,0,3,,,,,,,,,2,11,60,,,
42162,control_change,10,0,12,,,,,,,,,11,11,50,,,
42164,control_change,16,0,8,,,,,,,,,7,11,47,,,
42165,control_change,10,0,13,,,,,,,,,12,11,50,,,
42166,note_on,5,0,1,,,,,,,,,0,,,,88,0
42166,note_on,5,0,5,,,,,,,,,4,,,,64,0
42166,control_change,16,0,9,,,,,,,,,8,11,47,,,
42167,control_change,16,0,4,,,,,,,,,3,11,62,,,
42167,note_on,5,0,2,,,,,,,,,1,,,,76,0
42167,control_change,10,0,14,,,,,,,,,13,11,50,,,
42168,control_change,16,0,11,,,,,,,,,10,11,49,,,
42169,control_change,10,0,15,,,,,,,,,14,11,50,,,
42175,note_on,13,0,3,,,,,,,,,2,,,,72,0
42177,control_change,11,0,5,,,,,,,,,4,11,60,,,
42177,control_change,11,0,1,,,,,,,,,0,11,59,,,
42178,control_change,11,0,2,,,,,,,,,1,11,59,,,
42178,control_change,3,0,3,,,,,,,,,2,11,59,,,
42178,control_change,16,0,12,,,,,,,,,11,11,48,,,
42180,note_on,13,0,4,,,,,,,,,3,,,,60,0
42180,note_on,12,0,11,,,,,,,,,10,,,,83,112
42180,control_change,16,0,8,,,,,,,,,7,11,45,,,
42180,set_tempo,60,1,0,,,,,,1153846,,,,,,,,
42181,control_change,16,0,13,,,,,,,,,12,11,48,,,
42181,note_on,4,0,5,,,,,,,,,4,,,,64,100
42181,note_on,4,0,1,,,,,,,,,0,,,,88,101
42182,note_on,4,0,2,,,,,,,,,1,,,,76,100
42182,note_on,0,0,12,,,,,,,,,11,,,,59,112
42182,control_change,16,0,9,,,,,,,,,8,11,45,,,
42182,note_on,4,0,12,,,,,,,,,11,,,,68,112
42182,note_on,4,0,3,,,,,,,,,2,,,,71,101
42183,control_change,16,0,14,,,,,,,,,13,11,48,,,
42183,control_change,3,0,4,,,,,,,,,3,11,60,,,
42184,note_on,4,0,8,,,,,,,,,7,,,,60,0
42184,note_on,0,0,8,,,,,,,,,7,,,,62,110
42184,note_on,0,0,8,,,,,,,,,7,,,,59,110
42184,note_on,0,0,8,,,,,,,,,7,,,,64,0
42184,control_change,4,0,11,,,,,,,,,10,11,47,,,
42185,control_change,16,0,15,,,,,,,,,14,11,48,,,
42185,note_on,4,0,13,,,,,,,,,12,,,,62,112
42185,note_on,0,0,13,,,,,,,,,12,,,,64,112
42186,note_on,0,0,9,,,,,,,,,8,,,,52,110
42186,note_on,4,0,9,,,,,,,,,8,,,,52,0
42187,note_on,4,0,14,,,,,,,,,13,,,,52,112
42187,note_on,4,0,4,,,,,,,,,3,,,,59,100
42189,note_on,4,0,15,,,,,,,,,14,,,,40,112
42193,control_change,12,0,5,,,,,,,,,4,11,58,,,
42193,control_change,12,0,1,,,,,,,,,0,11,57,,,
42194,control_change,12,0,3,,,,,,,,,2,11,57,,,
42194,control_change,12,0,2,,,,,,,,,1,11,57,,,
42194,control_change,12,0,12,,,,,,,,,11,11,46,,,
42196,control_change,12,0,8,,,,,,,,,7,11,43,,,
42197,control_change,12,0,13,,,,,,,,,12,11,46,,,
42198,control_change,12,0,9,,,,,,,,,8,11,43,,,
42199,control_change,12,0,4,,,,,,,,,3,11,58,,,
42199,control_change,12,0,14,,,,,,,,,13,11,46,,,
42200,control_change,16,0,11,,,,,,,,,10,11,45,,,
42201,control_change,12,0,15,,,,,,,,,14,11,46,,,
42209,control_change,16,0,1,,,,,,,,,0,11,56,,,
42209,control_change,16,0,5,,,,,,,,,4,11,56,,,
42210,control_change,16,0,2,,,,,,,,,1,11,56,,,
42210,set_tempo,30,1,0,,,,,,1463415,,,,,,,,
42210,control_change,16,0,3,,,,,,,,,2,11,56,,,
42210,control_change,16,0,12,,,,,,,,,11,11,44,,,
42210,note_on,10,0,11,,,,,,,,,10,,,,83,0
42212,note_on,2,0,12,,,,,,,,,11,,,,59,0
42212,note_on,0,0,12,,,,,,,,,11,,,,68,0
42212,control_change,16,0,8,,,,,,,,,7,11,41,,,
42213,control_change,16,0,13,,,,,,,,,12,11,44,,,
42214,control_change,16,0,9,,,,,,,,,8,11,41,,,
42215,control_change,16,0,14,,,,,,,,,13,11,44,,,
42215,control_change,16,0,4,,,,,,,,,3,11,56,,,
42215,note_on,2,0,13,,,,,,,,,12,,,,64,0
42215,note_on,0,0,13,,,,,,,,,12,,,,62,0
42216,control_change,6,0,11,,,,,,,,,10,11,43,,,
42217,note_on,2,0,14,,,,,,,,,13,,,,52,0
42217,control_change,16,0,15,,,,,,,,,14,11,44,,,
42219,note_on,2,0,15,,,,,,,,,14,,,,40,0
42225,set_tempo,15,1,0,,,,,,1666667,,,,,,,,
42225,control_change,16,0,5,,,,,,,,,4,11,54,,,
42225,control_change,16,0,1,,,,,,,,,0,11,54,,,
42226,control_change,16,0,2,,,,,,,,,1,11,54,,,
42226,note_on,1,0,5,,,,,,,,,4,,,,64,0
42226,control_change,14,0,12,,,,,,,,,11,11,42,,,
42226,note_on,1,0,1,,,,,,,,,0,,,,88,0
42226,control_change,16,0,3,,,,,,,,,2,11,54,,,
42227,note_on,1,0,2,,,,,,,,,1,,,,76,0
42228,control_change,16,0,8,,,,,,,,,7,11,39,,,
42229,control_change,14,0,13,,,,,,,,,12,11,42,,,
42230,control_change,16,0,9,,,,,,,,,8,11,39,,,
42231,control_change,16,0,4,,,,,,,,,3,11,54,,,
42231,control_change,14,0,14,,,,,,,,,13,11,42,,,
42232,control_change,16,0,11,,,,,,,,,10,11,42,,,
42233,control_change,14,0,15,,,,,,,,,14,11,42,,,
42235,note_on,9,0,3,,,,,,,,,2,,,,71,0
42240,control_change,8,0,11,,,,,,,,,10,11,36,,,
42240,note_on,9,0,4,,,,,,,,,3,,,,59,0
42240,note_on,0,0,11,,,,,,,,,10,,,,81,80
42240,set_tempo,15,1,0,,,,,,1224490,,,,,,,,
42241,control_change,15,0,1,,,,,,,,,0,11,52,,,
42241,note_on,0,0,1,,,,,,,,,0,,,,81,101
42241,control_change,15,0,5,,,,,,,,,4,11,52,,,
42242,note_on,0,0,2,,,,,,,,,1,,,,69,100
42242,control_change,16,0,12,,,,,,,,,11,11,36,,,
42242,note_on,0,0,12,,,,,,,,,11,,,,61,80
42242,note_on,0,0,12,,,,,,,,,11,,,,69,80
42242,note_on,0,0,7,,,,,,,,,6,,,,61,112
42242,control_change,1260,0,7,,,,,,,,,6,11,52,,,
42242,control_change,7,0,3,,,,,,,,,2,11,57,,,
42242,control_change,15,0,2,,,,,,,,,1,11,52,,,
42242,note_on,0,0,3,,,,,,,,,2,,,,69,101
42244,note_on,0,0,8,,,,,,,,,7,,,,57,110
42244,control_change,0,0,8,,,,,,,,,7,11,37,,,
42244,note_on,0,0,8,,,,,,,,,7,,,,61,110
42244,note_on,0,0,8,,,,,,,,,7,,,,59,0
42244,note_on,16,0,8,,,,,,,,,7,,,,62,0
42245,control_change,0,0,13,,,,,,,,,12,11,36,,,
42245,note_on,0,0,13,,,,,,,,,12,,,,61,97
42245,note_on,16,0,13,,,,,,,,,12,,,,64,97
42246,note_on,0,0,9,,,,,,,,,8,,,,45,110
42246,note_on,16,0,9,,,,,,,,,8,,,,52,0
42246,control_change,0,0,9,,,,,,,,,8,11,37,,,
42247,control_change,7,0,4,,,,,,,,,3,11,52,,,
42247,note_on,0,0,4,,,,,,,,,3,,,,57,100
42247,control_change,0,0,14,,,,,,,,,13,11,41,,,
42247,note_on,16,0,14,,,,,,,,,13,,,,45,112
42249,control_change,0,0,15,,,,,,,,,14,11,41,,,
42249,note_on,16,0,15,,,,,,,,,14,,,,33,112
42271,control_change,30,0,5,,,,,,,,,4,11,42,,,
42271,note_on,0,0,5,,,,,,,,,4,,,,52,100
42281,note_on,10,0,5,,,,,,,,,4,,,,52,0
42286,note_on,5,0,5,,,,,,,,,4,,,,52,100
42296,note_on,10,0,5,,,,,,,,,4,,,,52,0
42300,set_tempo,60,1,0,,,,,,1142857,,,,,,,,
42300,note_on,60,0,11,,,,,,,,,10,,,,81,0
42301,note_on,60,0,1,,,,,,,,,0,,,,81,0
42301,note_on,5,0,5,,,,,,,,,4,,,,52,100
42302,note_on,60,0,2,,,,,,,,,1,,,,69,0
42302,note_on,0,0,12,,,,,,,,,11,,,,61,0
42302,note_on,0,0,12,,,,,,,,,11,,,,64,112
42302,control_change,0,0,12,,,,,,,,,11,11,41,,,
42302,note_on,60,0,12,,,,,,,,,11,,,,69,0
42304,note_on,0,0,8,,,,,,,,,7,,,,61,0
42304,note_on,60,0,8,,,,,,,,,7,,,,57,0
42305,note_on,60,0,13,,,,,,,,,12,,,,61,0
42305,note_on,0,0,13,,,,,,,,,12,,,,57,112
42305,note_on,0,0,13,,,,,,,,,12,,,,64,0
42305,control_change,0,0,13,,,,,,,,,12,11,41,,,
42306,note_on,60,0,9,,,,,,,,,8,,,,45,0
42307,note_on,60,0,4,,,,,,,,,3,,,,57,0
42341,note_on,40,0,5,,,,,,,,,4,,,,52,0
42346,note_on,5,0,5,,,,,,,,,4,,,,52,100
42356,note_on,10,0,5,,,,,,,,,4,,,,52,0
42360,set_tempo,60,1,0,,,,,,1224490,,,,,,,,
42361,note_on,5,0,5,,,,,,,,,4,,,,52,100
42362,note_on,60,0,12,,,,,,,,,11,,,,64,0
42362,note_on,0,0,12,,,,,,,,,11,,,,62,112
42362,note_on,0,0,7,,,,,,,,,6,,,,64,112
42362,note_on,120,0,7,,,,,,,,,6,,,,61,0
42362,note_on,0,0,3,,,,,,,,,2,,,,71,101
42362,note_on,120,0,3,,,,,,,,,2,,,,69,0
42365,note_on,0,0,13,,,,,,,,,12,,,,56,112
42365,note_on,60,0,13,,,,,,,,,12,,,,57,0
42390,control_change,90,0,11,,,,,,,,,10,11,41,,,
42390,note_on,0,0,11,,,,,,,,,10,,,,64,112
42416,note_on,55,0,5,,,,,,,,,4,,,,52,0
42420,note_on,30,0,11,,,,,,,,,10,,,,64,0
42420,set_tempo,60,1,0,,,,,,1121495,,,,,,,,
42420,note_on,0,0,11,,,,,,,,,10,,,,76,92
42421,note_on,5,0,5,,,,,,,,,4,,,,52,100
42422,note_on,60,0,12,,,,,,,,,11,,,,62,0
42422,note_on,0,0,12,,,,,,,,,11,,,,64,112
42425,note_on,60,0,13,,,,,,,,,12,,,,56,0
42425,note_on,0,0,13,,,,,,,,,12,,,,52,112
42450,note_on,0,0,11,,,,,,,,,10,,,,64,112
42450,note_on,30,0,11,,,,,,,,,10,,,,76,0
42476,note_on,55,0,5,,,,,,,,,4,,,,52,0
42480,note_on,0,0,11,,,,,,,,,10,,,,76,92
42480,note_on,30,0,11,,,,,,,,,10,,,,64,0
42480,set_tempo,60,1,0,,,,,,1200000,,,,,,,,
42482,note_on,120,0,7,,,,,,,,,6,,,,64,0
42482,note_on,60,0,12,,,,,,,,,11,,,,64,0
42482,note_on,0,0,12,,,,,,,,,11,,,,61,112
42482,note_on,0,0,3,,,,,,,,,2,,,,73,101
42482,note_on,120,0,3,,,,,,,,,2,,,,71,0
42482,note_on,0,0,7,,,,,,,,,6,,,,69,112
42485,note_on,0,0,13,,,,,,,,,12,,,,57,112
42485,note_on,60,0,13,,,,,,,,,12,,,,52,0
42511,note_on,35,0,5,,,,,,,,,4,,,,52,100
42521,note_on,10,0,5,,,,,,,,,4,,,,52,0
42526,note_on,5,0,5,,,,,,,,,4,,,,52,100
42536,note_on,10,0,5,,,,,,,,,4,,,,52,0
42540,set_tempo,60,1,0,,,,,,1111111,,,,,,,,
42540,note_on,0,0,11,,,,,,,,,10,,,,64,112
42540,note_on,60,0,11,,,,,,,,,10,,,,76,0
42541,note_on,5,0,5,,,,,,,,,4,,,,52,100
42542,note_on,0,0,3,,,,,,,,,2,,,,74,101
42542,note_on,60,0,12,,,,,,,,,11,,,,61,0
42542,note_on,60,0,3,,,,,,,,,2,,,,73,0
42542,note_on,0,0,12,,,,,,,,,11,,,,64,112
42545,note_on,0,0,13,,,,,,,,,12,,,,52,112
42545,note_on,60,0,13,,,,,,,,,12,,,,57,0
42570,note_on,30,0,11,,,,,,,,,10,,,,64,0
42572,note_on,0,0,3,,,,,,,,,2,,,,76,101
42572,note_on,30,0,3,,,,,,,,,2,,,,74,0
42581,note_on,40,0,5,,,,,,,,,4,,,,52,0
42586,note_on,5,0,5,,,,,,,,,4,,,,52,100
42596,note_on,10,0,5,,,,,,,,,4,,,,52,0
42597,note_on,25,0,3,,,,,,,,,2,,,,76,0
42600,set_tempo,60,1,0,,,,,,1188119,,,,,,,,
42601,note_on,5,0,5,,,,,,,,,4,,,,52,100
42602,note_on,120,0,7,,,,,,,,,6,,,,69,0
42602,note_on,0,0,7,,,,,,,,,6,,,,64,112
42602,note_on,5,0,3,,,,,,,,,2,,,,76,101
42602,note_on,0,0,12,,,,,,,,,11,,,,61,112
42602,note_on,60,0,12,,,,,,,,,11,,,,64,0
42605,note_on,60,0,13,,,,,,,,,12,,,,52,0
42605,note_on,0,0,13,,,,,,,,,12,,,,57,112
42630,note_on,60,0,11,,,,,,,,,10,,,,64,112
42656,note_on,55,0,5,,,,,,,,,4,,,,52,0
42660,set_tempo,60,1,0,,,,,,1111111,,,,,,,,
42660,note_on,0,0,11,,,,,,,,,10,,,,76,92
42660,note_on,30,0,11,,,,,,,,,10,,,,64,0
42661,note_on,5,0,5,,,,,,,,,4,,,,52,100
42662,note_on,60,0,12,,,,,,,,,11,,,,61,0
42662,note_on,60,0,3,,,,,,,,,2,,,,76,0
42662,note_on,0,0,3,,,,,,,,,2,,,,68,101
42662,note_on,0,0,12,,,,,,,,,11,,,,62,112
42665,note_on,0,0,13,,,,,,,,,12,,,,59,112
42665,note_on,60,0,13,,,,,,,,,12,,,,57,0
42667,note_on,0,0,14,,,,,,,,,13,,,,45,112
42667,note_on,420,0,14,,,,,,,,,13,,,,45,0
42667,control_change,0,0,14,,,,,,,,,13,11,55,,,
42669,note_on,0,0,15,,,,,,,,,14,,,,33,112
42669,note_on,420,0,15,,,,,,,,,14,,,,33,0
42669,control_change,0,0,15,,,,,,,,,14,11,55,,,
42677,note_on,10,0,14,,,,,,,,,13,,,,45,0
42679,note_on,10,0,15,,,,,,,,,14,,,,33,0
42682,note_on,5,0,14,,,,,,,,,13,,,,45,112
42684,note_on,5,0,15,,,,,,,,,14,,,,33,112
42690,note_on,30,0,11,,,,,,,,,10,,,,76,0
42690,note_on,0,0,11,,,,,,,,,10,,,,64,112
42692,note_on,10,0,14,,,,,,,,,13,,,,45,0
42694,note_on,10,0,15,,,,,,,,,14,,,,33,0
42697,note_on,5,0,14,,,,,,,,,13,,,,45,112
42699,note_on,5,0,15,,,,,,,,,14,,,,33,112
42707,note_on,10,0,14,,,,,,,,,13,,,,45,0
42709,note_on,10,0,15,,,,,,,,,14,,,,33,0
42712,note_on,5,0,14,,,,,,,,,13,,,,45,112
42714,note_on,5,0,15,,,,,,,,,14,,,,33,112
42716,note_on,55,0,5,,,,,,,,,4,,,,52,0
42717,note_on,115,0,7,,,,,,,,,6,,,,64,0
42717,note_on,55,0,3,,,,,,,,,2,,,,68,0
42717,note_on,55,0,12,,,,,,,,,11,,,,62,0
42720,note_on,55,0,13,,,,,,,,,12,,,,59,0
42720,set_tempo,60,1,0,,,,,,1165049,,,,,,,,
42720,note_on,30,0,11,,,,,,,,,10,,,,64,0
42720,note_on,0,0,11,,,,,,,,,10,,,,73,92
42722,note_on,10,0,14,,,,,,,,,13,,,,45,0
42722,note_on,420,0,2,,,,,,,,,1,,,,69,100
42722,note_on,5,0,7,,,,,,,,,6,,,,61,112
42722,note_on,5,0,3,,,,,,,,,2,,,,69,101
42722,note_on,5,0,12,,,,,,,,,11,,,,61,112
42724,note_on,10,0,15,,,,,,,,,14,,,,33,0
42725,note_on,5,0,13,,,,,,,,,12,,,,57,112
42727,control_change,5,0,14,,,,,,,,,13,11,41,,,
42727,note_on,0,0,14,,,,,,,,,13,,,,45,112
42729,control_change,5,0,15,,,,,,,,,14,11,41,,,
42729,note_on,0,0,15,,,,,,,,,14,,,,33,112
42751,note_on,35,0,5,,,,,,,,,4,,,,52,100
42761,note_on,10,0,5,,,,,,,,,4,,,,52,0
42766,note_on,5,0,5,,,,,,,,,4,,,,52,100
42776,note_on,10,0,5,,,,,,,,,4,,,,52,0
42780,note_on,0,0,11,,,,,,,,,10,,,,64,112
42780,set_tempo,60,1,0,,,,,,1111111,,,,,,,,
42780,note_on,60,0,11,,,,,,,,,10,,,,73,0
42781,note_on,5,0,5,,,,,,,,,4,,,,52,100
42782,note_on,60,0,12,,,,,,,,,11,,,,61,0
42782,note_on,0,0,12,,,,,,,,,11,,,,64,112
42782,note_on,60,0,3,,,,,,,,,2,,,,69,0
42785,note_on,60,0,13,,,,,,,,,12,,,,57,0
42785,note_on,0,0,13,,,,,,,,,12,,,,52,112
42810,note_on,30,0,11,,,,,,,,,10,,,,64,0
42821,note_on,40,0,5,,,,,,,,,4,,,,52,0
42826,note_on,5,0,5,,,,,,,,,4,,,,52,100
42836,note_on,10,0,5,,,,,,,,,4,,,,52,0
42840,set_tempo,60,1,0,,,,,,1188119,,,,,,,,
42841,note_on,5,0,5,,,,,,,,,4,,,,52,100
42842,note_on,120,0,7,,,,,,,,,6,,,,61,0
42842,note_on,0,0,12,,,,,,,,,11,,,,62,112
42842,note_on,0,0,7,,,,,,,,,6,,,,64,112
42842,note_on,0,0,2,,,,,,,,,1,,,,71,100
42842,note_on,120,0,2,,,,,,,,,1,,,,69,0
42842,note_on,60,0,12,,,,,,,,,11,,,,64,0
42845,note_on,60,0,13,,,,,,,,,12,,,,52,0
42845,note_on,0,0,13,,,,,,,,,12,,,,56,112
42870,note_on,60,0,11,,,,,,,,,10,,,,64,112
42896,note_on,55,0,5,,,,,,,,,4,,,,52,0
42900,note_on,30,0,11,,,,,,,,,10,,,,64,0
42900,set_tempo,60,1,0,,,,,,1111111,,,,,,,,
42900,note_on,0,0,11,,,,,,,,,10,,,,76,92
42901,note_on,5,0,5,,,,,,,,,4,,,,52,100
42902,note_on,60,0,12,,,,,,,,,11,,,,62,0
42902,note_on,0,0,12,,,,,,,,,11,,,,64,112
42905,note_on,60,0,13,,,,,,,,,12,,,,56,0
42905,note_on,0,0,13,,,,,,,,,12,,,,52,112
42930,note_on,0,0,11,,,,,,,,,10,,,,64,112
42930,note_on,30,0,11,,,,,,,,,10,,,,76,0
42956,note_on,55,0,5,,,,,,,,,4,,,,52,0
42960,note_on,0,0,11,,,,,,,,,10,,,,76,92
42960,set_tempo,60,1,0,,,,,,1200000,,,,,,,,
42960,note_on,30,0,11,,,,,,,,,10,,,,64,0
42962,note_on,60,0,12,,,,,,,,,11,,,,64,0
42962,note_on,0,0,2,,,,,,,,,1,,,,73,100
42962,note_on,120,0,2,,,,,,,,,1,,,,71,0
42962,note_on,180,0,3,,,,,,,,,2,,,,69,101
42962,note_on,0,0,7,,,,,,,,,6,,,,69,112
42962,note_on,120,0,7,,,,,,,,,6,,,,64,0
42962,note_on,0,0,12,,,,,,,,,11,,,,61,112
42965,note_on,60,0,13,,,,,,,,,12,,,,52,0
42965,note_on,0,0,13,,,,,,,,,12,,,,57,112
42991,note_on,35,0,5,,,,,,,,,4,,,,52,100
43001,note_on,10,0,5,,,,,,,,,4,,,,52,0
43006,note_on,5,0,5,,,,,,,,,4,,,,52,100
43016,note_on,10,0,5,,,,,,,,,4,,,,52,0
43020,set_tempo,60,1,0,,,,,,1111111,,,,,,,,
43020,note_on,0,0,11,,,,,,,,,10,,,,64,112
43020,note_on,60,0,11,,,,,,,,,10,,,,76,0
43021,note_on,5,0,5,,,,,,,,,4,,,,52,100
43022,note_on,0,0,12,,,,,,,,,11,,,,64,112
43022,note_on,60,0,12,,,,,,,,,11,,,,61,0
43025,note_on,60,0,13,,,,,,,,,12,,,,57,0
43025,note_on,0,0,13,,,,,,,,,12,,,,52,112
43050,note_on,30,0,11,,,,,,,,,10,,,,64,0
43061,note_on,40,0,5,,,,,,,,,4,,,,52,0
43066,note_on,5,0,5,,,,,,,,,4,,,,52,100
43076,note_on,10,0,5,,,,,,,,,4,,,,52,0
43080,set_tempo,60,1,0,,,,,,1188119,,,,,,,,
43081,note_on,5,0,5,,,,,,,,,4,,,,52,100
43082,note_on,60,0,12,,,,,,,,,11,,,,64,0
43082,note_on,0,0,12,,,,,,,,,11,,,,62,112
43082,note_on,0,0,7,,,,,,,,,6,,,,64,112
43082,note_on,120,0,3,,,,,,,,,2,,,,69,0
43082,note_on,120,0,7,,,,,,,,,6,,,,69,0
43082,note_on,0,0,2,,,,,,,,,1,,,,76,100
43082,note_on,120,0,2,,,,,,,,,1,,,,73,0
43082,note_on,0,0,3,,,,,,,,,2,,,,71,101
43085,note_on,0,0,13,,,,,,,,,12,,,,56,112
43085,note_on,60,0,13,,,,,,,,,12,,,,52,0
43110,note_on,60,0,11,,,,,,,,,10,,,,64,112
43136,note_on,55,0,5,,,,,,,,,4,,,,52,0
43140,note_on,30,0,11,,,,,,,,,10,,,,64,0
43140,set_tempo,60,1,0,,,,,,1111111,,,,,,,,
43140,note_on,0,0,11,,,,,,,,,10,,,,76,92
43141,note_on,5,0,5,,,,,,,,,4,,,,52,100
43142,note_on,60,0,12,,,,,,,,,11,,,,62,0
43142,note_on,0,0,12,,,,,,,,,11,,,,64,112
43145,note_on,60,0,13,,,,,,,,,12,,,,56,0
43145,note_on,0,0,13,,,,,,,,,12,,,,52,112
43147,note_on,0,0,14,,,,,,,,,13,,,,45,112
43147,control_change,0,0,14,,,,,,,,,13,11,55,,,
43147,note_on,420,0,14,,,,,,,,,13,,,,45,0
43149,note_on,0,0,15,,,,,,,,,14,,,,33,112
43149,control_change,0,0,15,,,,,,,,,14,11,55,,,
43149,note_on,420,0,15,,,,,,,,,14,,,,33,0
43157,note_on,10,0,14,,,,,,,,,13,,,,45,0
43159,note_on,10,0,15,,,,,,,,,14,,,,33,0
43162,note_on,5,0,14,,,,,,,,,13,,,,45,112
43164,note_on,5,0,15,,,,,,,,,14,,,,33,112
43170,note_on,30,0,11,,,,,,,,,10,,,,76,0
43170,note_on,0,0,11,,,,,,,,,10,,,,64,112
43172,note_on,10,0,14,,,,,,,,,13,,,,45,0
43174,note_on,10,0,15,,,,,,,,,14,,,,33,0
43177,note_on,5,0,14,,,,,,,,,13,,,,45,112
43179,note_on,5,0,15,,,,,,,,,14,,,,33,112
43187,note_on,10,0,14,,,,,,,,,13,,,,45,0
43189,note_on,10,0,15,,,,,,,,,14,,,,33,0
43192,note_on,5,0,14,,,,,,,,,13,,,,45,112
43194,note_on,5,0,15,,,,,,,,,14,,,,33,112
43196,note_on,55,0,5,,,,,,,,,4,,,,52,0
43197,note_on,115,0,3,,,,,,,,,2,,,,71,0
43197,note_on,115,0,7,,,,,,,,,6,,,,64,0
43197,note_on,115,0,2,,,,,,,,,1,,,,76,0
43197,note_on,55,0,12,,,,,,,,,11,,,,64,0
43200,set_tempo,60,1,0,,,,,,1200000,,,,,,,,
43200,note_on,30,0,11,,,,,,,,,10,,,,64,0
43200,note_on,55,0,13,,,,,,,,,12,,,,52,0
43200,note_on,0,0,11,,,,,,,,,10,,,,76,92
43202,note_on,5,0,3,,,,,,,,,2,,,,73,116
43202,note_on,10,0,14,,,,,,,,,13,,,,45,0
43202,note_on,5,0,2,,,,,,,,,1,,,,81,115
43202,note_on,5,0,12,,,,,,,,,11,,,,61,112
43202,note_on,5,0,7,,,,,,,,,6,,,,69,127
43204,note_on,10,0,15,,,,,,,,,14,,,,33,0
43205,note_on,5,0,13,,,,,,,,,12,,,,57,112
43207,note_on,0,0,14,,,,,,,,,13,,,,45,112
43207,control_change,5,0,14,,,,,,,,,13,11,41,,,
43209,control_change,5,0,15,,,,,,,,,14,11,41,,,
43209,note_on,0,0,15,,,,,,,,,14,,,,33,112
43231,note_on,35,0,5,,,,,,,,,4,,,,52,100
43241,note_on,10,0,5,,,,,,,,,4,,,,52,0
43246,note_on,5,0,5,,,,,,,,,4,,,,52,100
43256,note_on,10,0,5,,,,,,,,,4,,,,52,0
43260,note_on,0,0,11,,,,,,,,,10,,,,64,112
43260,note_on,60,0,11,,,,,,,,,10,,,,76,0
43260,set_tempo,60,1,0,,,,,,1121495,,,,,,,,
43261,note_on,5,0,5,,,,,,,,,4,,,,52,100
43262,note_on,0,0,7,,,,,,,,,6,,,,64,112
43262,note_on,60,0,2,,,,,,,,,1,,,,81,0
43262,note_on,0,0,12,,,,,,,,,11,,,,64,112
43262,note_on,60,0,3,,,,,,,,,2,,,,73,0
43262,note_on,60,0,12,,,,,,,,,11,,,,61,0
43262,note_on,0,0,3,,,,,,,,,2,,,,74,101
43262,note_on,60,0,7,,,,,,,,,6,,,,69,0
43262,note_on,0,0,2,,,,,,,,,1,,,,83,100
43265,note_on,60,0,13,,,,,,,,,12,,,,57,0
43265,note_on,0,0,13,,,,,,,,,12,,,,52,112
43290,note_on,30,0,11,,,,,,,,,10,,,,64,0
43292,note_on,0,0,7,,,,,,,,,6,,,,61,112
43292,note_on,30,0,7,,,,,,,,,6,,,,64,0
43292,note_on,30,0,2,,,,,,,,,1,,,,83,0
43292,note_on,0,0,2,,,,,,,,,1,,,,85,100
43292,note_on,30,0,3,,,,,,,,,2,,,,74,0
43292,note_on,0,0,3,,,,,,,,,2,,,,76,101
43301,note_on,40,0,5,,,,,,,,,4,,,,52,0
43306,note_on,5,0,5,,,,,,,,,4,,,,52,100
43316,note_on,10,0,5,,,,,,,,,4,,,,52,0
43317,note_on,25,0,7,,,,,,,,,6,,,,61,0
43320,set_tempo,60,1,0,,,,,,1212121,,,,,,,,
43321,note_on,5,0,5,,,,,,,,,4,,,,52,100
43322,note_on,60,0,12,,,,,,,,,11,,,,64,0
43322,note_on,0,0,12,,,,,,,,,11,,,,62,112
43322,note_on,30,0,2,,,,,,,,,1,,,,85,0
43322,note_on,0,0,2,,,,,,,,,1,,,,85,100
43322,note_on,0,0,2,,,,,,,,,1,,,,81,100
43322,note_on,30,0,3,,,,,,,,,2,,,,76,0
43322,note_on,0,0,3,,,,,,,,,2,,,,73,101
43322,note_on,0,0,3,,,,,,,,,2,,,,76,101
43322,note_on,5,0,7,,,,,,,,,6,,,,64,112
43325,note_on,0,0,13,,,,,,,,,12,,,,57,112
43325,note_on,60,0,13,,,,,,,,,12,,,,52,0
43350,note_on,60,0,11,,,,,,,,,10,,,,64,112
43352,note_on,0,0,2,,,,,,,,,1,,,,85,0
43352,note_on,30,0,2,,,,,,,,,1,,,,81,0
43352,note_on,30,0,7,,,,,,,,,6,,,,64,0
43352,note_on,30,0,3,,,,,,,,,2,,,,73,0
43352,note_on,0,0,3,,,,,,,,,2,,,,76,0
43376,note_on,55,0,5,,,,,,,,,4,,,,52,0
43380,set_tempo,60,1,0,,,,,,1165049,,,,,,,,
43380,note_on,30,0,11,,,,,,,,,10,,,,64,0
43380,note_on,0,0,11,,,,,,,,,10,,,,76,92
43381,note_on,5,0,5,,,,,,,,,4,,,,52,100
43382,note_on,0,0,2,,,,,,,,,1,,,,80,100
43382,note_on,60,0,12,,,,,,,,,11,,,,62,0
43382,note_on,0,0,12,,,,,,,,,11,,,,64,112
43382,note_on,0,0,3,,,,,,,,,2,,,,76,101
43382,note_on,30,0,3,,,,,,,,,2,,,,74,101
43382,note_on,30,0,2,,,,,,,,,1,,,,83,100
43382,note_on,30,0,7,,,,,,,,,6,,,,64,112
43385,note_on,60,0,13,,,,,,,,,12,,,,57,0
43385,note_on,0,0,13,,,,,,,,,12,,,,56,112
43387,note_on,180,0,14,,,,,,,,,13,,,,45,0
43387,control_change,0,0,14,,,,,,,,,13,11,55,,,
43387,note_on,0,0,14,,,,,,,,,13,,,,45,112
43389,note_on,180,0,15,,,,,,,,,14,,,,33,0
43389,control_change,0,0,15,,,,,,,,,14,11,55,,,
43389,note_on,0,0,15,,,,,,,,,14,,,,33,112
43397,note_on,10,0,14,,,,,,,,,13,,,,45,0
43399,note_on,10,0,15,,,,,,,,,14,,,,33,0
43402,note_on,5,0,14,,,,,,,,,13,,,,45,112
43404,note_on,5,0,15,,,,,,,,,14,,,,33,112
43410,note_on,0,0,11,,,,,,,,,10,,,,64,112
43410,note_on,30,0,11,,,,,,,,,10,,,,76,0
43412,note_on,30,0,7,,,,,,,,,6,,,,64,0
43412,note_on,10,0,14,,,,,,,,,13,,,,45,0
43412,note_on,30,0,2,,,,,,,,,1,,,,80,0
43412,note_on,0,0,2,,,,,,,,,1,,,,83,0
43412,note_on,30,0,3,,,,,,,,,2,,,,76,0
43412,note_on,0,0,3,,,,,,,,,2,,,,74,0
43414,note_on,10,0,15,,,,,,,,,14,,,,33,0
43417,note_on,5,0,14,,,,,,,,,13,,,,45,112
43419,note_on,5,0,15,,,,,,,,,14,,,,33,112
43427,note_on,10,0,14,,,,,,,,,13,,,,45,0
43429,note_on,10,0,15,,,,,,,,,14,,,,33,0
43432,note_on,5,0,14,,,,,,,,,13,,,,45,112
43434,note_on,5,0,15,,,,,,,,,14,,,,33,112
43436,note_on,55,0,5,,,,,,,,,4,,,,52,0
43440,set_tempo,60,1,0,,,,,,1290323,,,,,,,,
43440,note_on,0,0,11,,,,,,,,,10,,,,73,112
43440,note_on,30,0,11,,,,,,,,,10,,,,64,0
43442,note_on,0,0,3,,,,,,,,,2,,,,73,116
43442,note_on,30,0,3,,,,,,,,,2,,,,76,116
43442,note_on,30,0,7,,,,,,,,,6,,,,69,127
43442,note_on,10,0,14,,,,,,,,,13,,,,45,0
43442,note_on,60,0,12,,,,,,,,,11,,,,64,0
43442,note_on,30,0,2,,,,,,,,,1,,,,81,115
43442,note_on,0,0,12,,,,,,,,,11,,,,61,112
43444,note_on,10,0,15,,,,,,,,,14,,,,33,0
43445,note_on,0,0,13,,,,,,,,,12,,,,57,112
43445,note_on,60,0,13,,,,,,,,,12,,,,56,0
43447,control_change,5,0,14,,,,,,,,,13,11,41,,,
43447,note_on,0,0,14,,,,,,,,,13,,,,45,112
43449,note_on,0,0,15,,,,,,,,,14,,,,33,112
43449,control_change,5,0,15,,,,,,,,,14,11,41,,,
43500,set_tempo,60,1,0,,,,,,1212121,,,,,,,,
43502,note_on,0,0,12,,,,,,,,,11,,,,64,112
43502,note_on,60,0,12,,,,,,,,,11,,,,61,0
43505,note_on,60,0,13,,,,,,,,,12,,,,57,0
43505,note_on,0,0,13,,,,,,,,,12,,,,52,112
43552,note_on,110,0,2,,,,,,,,,1,,,,81,0
43552,note_on,0,0,3,,,,,,,,,2,,,,76,0
43552,note_on,110,0,3,,,,,,,,,2,,,,73,0
43552,note_on,110,0,7,,,,,,,,,6,,,,69,0
43560,set_tempo,60,1,0,,,,,,1263158,,,,,,,,
43562,note_on,10,0,3,,,,,,,,,2,,,,73,116
43562,note_on,0,0,3,,,,,,,,,2,,,,76,116
43562,note_on,10,0,7,,,,,,,,,6,,,,69,127
43562,note_on,0,0,12,,,,,,,,,11,,,,61,112
43562,note_on,0,0,2,,,,,,,,,1,,,,81,115
43562,note_on,10,0,2,,,,,,,,,1,,,,69,115
43562,note_on,60,0,12,,,,,,,,,11,,,,64,0
43563,set_tempo,3,1,0,,,,,,1304348,,,,,,,,
43565,note_on,0,0,13,,,,,,,,,12,,,,57,112
43565,note_on,60,0,13,,,,,,,,,12,,,,52,0
43567,note_on,120,0,14,,,,,,,,,13,,,,45,0
43567,note_on,0,0,14,,,,,,,,,13,,,,45,112
43569,note_on,120,0,15,,,,,,,,,14,,,,33,0
43569,note_on,0,0,15,,,,,,,,,14,,,,33,112
43620,set_tempo,57,1,0,,,,,,1224490,,,,,,,,
43622,note_on,0,0,12,,,,,,,,,11,,,,57,112
43622,note_on,60,0,12,,,,,,,,,11,,,,61,0
43625,note_on,60,0,13,,,,,,,,,12,,,,57,0
43625,note_on,0,0,13,,,,,,,,,12,,,,61,112
43650,set_tempo,30,1,0,,,,,,1463415,,,,,,,,
43665,note_on,225,0,11,,,,,,,,,10,,,,73,0
43667,note_on,45,0,12,,,,,,,,,11,,,,57,0
43670,note_on,45,0,13,,,,,,,,,12,,,,61,0
43672,note_on,105,0,14,,,,,,,,,13,,,,45,0
43672,note_on,110,0,2,,,,,,,,,1,,,,81,0
43672,note_on,0,0,2,,,,,,,,,1,,,,69,0
43672,note_on,0,0,3,,,,,,,,,2,,,,73,0
43672,note_on,110,0,3,,,,,,,,,2,,,,76,0
43672,note_on,110,0,7,,,,,,,,,6,,,,69,0
43674,note_on,105,0,15,,,,,,,,,14,,,,33,0
43680,control_change,15,0,11,,,,,,,,,10,11,102,,,
43680,note_on,0,0,11,,,,,,,,,10,,,,88,112
43680,note_on,0,0,11,,,,,,,,,10,,,,76,112
43680,set_tempo,30,1,0,,,,,,1165049,,,,,,,,
43681,note_on,245,0,5,,,,,,,,,4,,,,64,100
43681,control_change,0,0,5,,,,,,,,,4,11,102,,,
43681,note_on,1380,0,1,,,,,,,,,0,,,,88,101
43681,note_on,0,0,1,,,,,,,,,0,,,,80,101
43681,control_change,0,0,1,,,,,,,,,0,11,91,,,
43682,note_on,0,0,2,,,,,,,,,1,,,,71,100
43682,control_change,10,0,2,,,,,,,,,1,11,91,,,
43682,control_change,15,0,12,,,,,,,,,11,11,102,,,
43682,control_change,10,0,7,,,,,,,,,6,11,102,,,
43682,note_on,0,0,7,,,,,,,,,6,,,,76,112
43682,note_on,0,0,7,,,,,,,,,6,,,,64,112
43682,note_on,0,0,2,,,,,,,,,1,,,,80,100
43682,note_on,0,0,12,,,,,,,,,11,,,,80,112
43682,note_on,0,0,12,,,,,,,,,11,,,,71,112
43682,note_on,0,0,12,,,,,,,,,11,,,,64,112
43682,control_change,0,0,3,,,,,,,,,2,11,91,,,
43682,note_on,0,0,3,,,,,,,,,2,,,,76,101
43682,note_on,10,0,3,,,,,,,,,2,,,,68,101
43683,note_on,5160,0,6,,,,,,,,,5,,,,52,100
43683,control_change,0,0,6,,,,,,,,,5,11,102,,,
43684,note_on,0,0,8,,,,,,,,,7,,,,56,110
43684,note_on,0,0,8,,,,,,,,,7,,,,59,110
43684,control_change,1380,0,8,,,,,,,,,7,11,102,,,
43685,note_on,0,0,13,,,,,,,,,12,,,,52,112
43685,note_on,0,0,13,,,,,,,,,12,,,,59,112
43685,note_on,15,0,13,,,,,,,,,12,,,,68,112
43685,control_change,0,0,13,,,,,,,,,12,11,102,,,
43686,note_on,0,0,9,,,,,,,,,8,,,,52,110
43686,control_change,1380,0,9,,,,,,,,,8,11,102,,,
43687,control_change,0,0,4,,,,,,,,,3,11,102,,,
43687,control_change,15,0,14,,,,,,,,,13,11,102,,,
43687,note_on,0,0,14,,,,,,,,,13,,,,52,112
43687,note_on,1380,0,4,,,,,,,,,3,,,,56,100
43687,note_on,0,0,4,,,,,,,,,3,,,,59,100
43688,note_on,26460,0,10,,,,,,,,,15,,,,52,82
43689,note_on,0,0,15,,,,,,,,,14,,,,40,112
43689,control_change,15,0,15,,,,,,,,,14,11,102,,,
43717,note_on,30,0,14,,,,,,,,,13,,,,52,0
43717,note_on,0,0,14,,,,,,,,,13,,,,64,112
43719,note_on,30,0,15,,,,,,,,,14,,,,40,0
43719,note_on,0,0,15,,,,,,,,,14,,,,52,112
43727,note_on,10,0,14,,,,,,,,,13,,,,64,0
43729,note_on,10,0,15,,,,,,,,,14,,,,52,0
43732,note_on,5,0,14,,,,,,,,,13,,,,64,112
43732,note_on,52,0,11,,,,,,,,,10,,,,76,0
43732,note_on,0,0,11,,,,,,,,,10,,,,88,0
43734,note_on,52,0,12,,,,,,,,,11,,,,64,0
43734,note_on,0,0,12,,,,,,,,,11,,,,71,0
43734,note_on,0,0,12,,,,,,,,,11,,,,80,0
43734,note_on,5,0,15,,,,,,,,,14,,,,52,112
43735,note_on,54,0,5,,,,,,,,,4,,,,64,0
43735,note_on,54,0,1,,,,,,,,,0,,,,80,0
43735,note_on,0,0,1,,,,,,,,,0,,,,88,0
43736,note_on,54,0,2,,,,,,,,,1,,,,80,0
43736,note_on,54,0,7,,,,,,,,,6,,,,64,0
43736,note_on,0,0,7,,,,,,,,,6,,,,76,0
43736,note_on,0,0,2,,,,,,,,,1,,,,71,0
43736,note_on,0,0,3,,,,,,,,,2,,,,68,0
43736,note_on,54,0,3,,,,,,,,,2,,,,76,0
43737,note_on,52,0,13,,,,,,,,,12,,,,52,0
43737,note_on,0,0,13,,,,,,,,,12,,,,59,0
43737,note_on,0,0,13,,,,,,,,,12,,,,68,0
43737,note_on,54,0,6,,,,,,,,,5,,,,52,0
43738,note_on,0,0,8,,,,,,,,,7,,,,59,0
43738,note_on,54,0,8,,,,,,,,,7,,,,56,0
43740,note_on,54,0,9,,,,,,,,,8,,,,52,0
43740,set_tempo,60,1,0,,,,,,1071429,,,,,,,,
43740,note_on,8,0,11,,,,,,,,,10,,,,83,112
43741,note_on,54,0,4,,,,,,,,,3,,,,59,0
43741,note_on,0,0,4,,,,,,,,,3,,,,56,0
43742,note_on,54,0,10,,,,,,,,,15,,,,52,0
43742,note_on,10,0,14,,,,,,,,,13,,,,64,0
43742,note_on,8,0,12,,,,,,,,,11,,,,80,112
43744,note_on,10,0,15,,,,,,,,,14,,,,52,0
43745,note_on,8,0,13,,,,,,,,,12,,,,76,112
43747,note_on,5,0,14,,,,,,,,,13,,,,64,112
43749,note_on,5,0,15,,,,,,,,,14,,,,52,112
43767,note_on,20,0,14,,,,,,,,,13,,,,64,0
43769,note_on,20,0,15,,,,,,,,,14,,,,52,0
43770,note_on,30,0,11,,,,,,,,,10,,,,83,0
43772,note_on,30,0,12,,,,,,,,,11,,,,80,0
43775,note_on,30,0,13,,,,,,,,,12,,,,76,0
43777,note_on,10,0,14,,,,,,,,,13,,,,64,112
43779,note_on,10,0,15,,,,,,,,,14,,,,52,112
43797,note_on,20,0,14,,,,,,,,,13,,,,64,0
43799,note_on,20,0,15,,,,,,,,,14,,,,52,0
43800,note_on,30,0,11,,,,,,,,,10,,,,83,112
43800,set_tempo,60,1,0,,,,,,1142857,,,,,,,,
43802,note_on,30,0,12,,,,,,,,,11,,,,81,112
43805,note_on,30,0,13,,,,,,,,,12,,,,75,112
43807,note_on,10,0,14,,,,,,,,,13,,,,66,112
43809,note_on,10,0,15,,,,,,,,,14,,,,54,112
43830,note_on,30,0,11,,,,,,,,,10,,,,83,0
43832,note_on,30,0,12,,,,,,,,,11,,,,81,0
43835,note_on,30,0,13,,,,,,,,,12,,,,75,0
43837,note_on,30,0,14,,,,,,,,,13,,,,66,0
43839,note_on,30,0,15,,,,,,,,,14,,,,54,0
43860,set_tempo,60,1,0,,,,,,1071429,,,,,,,,
43860,note_on,30,0,11,,,,,,,,,10,,,,83,112
43862,note_on,30,0,12,,,,,,,,,11,,,,81,112
43865,note_on,30,0,13,,,,,,,,,12,,,,75,112
43867,note_on,30,0,14,,,,,,,,,13,,,,59,112
43869,note_on,30,0,15,,,,,,,,,14,,,,47,112
43890,note_on,30,0,11,,,,,,,,,10,,,,83,0
43892,note_on,30,0,12,,,,,,,,,11,,,,81,0
43895,note_on,30,0,13,,,,,,,,,12,,,,75,0
43897,note_on,30,0,14,,,,,,,,,13,,,,59,0
43899,note_on,30,0,15,,,,,,,,,14,,,,47,0
43920,set_tempo,60,1,0,,,,,,1165049,,,,,,,,
43920,note_on,30,0,11,,,,,,,,,10,,,,83,112
43922,note_on,30,0,12,,,,,,,,,11,,,,80,112
43925,note_on,30,0,13,,,,,,,,,12,,,,76,112
43927,note_on,30,0,14,,,,,,,,,13,,,,64,112
43929,note_on,30,0,15,,,,,,,,,14,,,,52,112
43947,note_on,27,0,11,,,,,,,,,10,,,,83,0
43949,note_on,24,0,13,,,,,,,,,12,,,,76,0
43949,note_on,27,0,12,,,,,,,,,11,,,,80,0
43957,note_on,30,0,14,,,,,,,,,13,,,,64,0
43959,note_on,30,0,15,,,,,,,,,14,,,,52,0
43965,note_on,18,0,11,,,,,,,,,10,,,,81,112
43967,note_on,18,0,12,,,,,,,,,11,,,,78,112
43974,note_on,9,0,11,,,,,,,,,10,,,,81,0
43976,note_on,9,0,12,,,,,,,,,11,,,,78,0
43980,note_on,6,0,11,,,,,,,,,10,,,,83,112
43980,set_tempo,60,1,0,,,,,,1071429,,,,,,,,
43982,note_on,6,0,12,,,,,,,,,11,,,,80,112
43985,note_on,36,0,13,,,,,,,,,12,,,,76,112
44007,note_on,27,0,11,,,,,,,,,10,,,,83,0
44009,note_on,27,0,12,,,,,,,,,11,,,,80,0
44012,note_on,27,0,13,,,,,,,,,12,,,,76,0
44025,note_on,18,0,11,,,,,,,,,10,,,,84,112
44027,note_on,18,0,12,,,,,,,,,11,,,,81,112
44030,note_on,18,0,13,,,,,,,,,12,,,,76,112
44034,note_on,9,0,11,,,,,,,,,10,,,,84,0
44036,note_on,9,0,12,,,,,,,,,11,,,,81,0
44039,note_on,9,0,13,,,,,,,,,12,,,,76,0
44040,set_tempo,60,1,0,,,,,,1142857,,,,,,,,
44040,note_on,6,0,11,,,,,,,,,10,,,,83,112
44042,note_on,6,0,12,,,,,,,,,11,,,,80,112
44045,note_on,6,0,13,,,,,,,,,12,,,,76,112
44047,note_on,90,0,14,,,,,,,,,13,,,,52,112
44049,note_on,90,0,15,,,,,,,,,14,,,,40,112
44064,note_on,24,0,11,,,,,,,,,10,,,,83,0
44066,note_on,24,0,12,,,,,,,,,11,,,,80,0
44069,note_on,24,0,13,,,,,,,,,12,,,,76,0
44087,note_on,40,0,14,,,,,,,,,13,,,,52,0
44089,note_on,40,0,15,,,,,,,,,14,,,,40,0
44092,note_on,5,0,14,,,,,,,,,13,,,,50,112
44094,note_on,5,0,15,,,,,,,,,14,,,,38,112
44100,set_tempo,60,1,0,,,,,,1071429,,,,,,,,
44100,note_on,36,0,11,,,,,,,,,10,,,,83,112
44102,note_on,36,0,12,,,,,,,,,11,,,,80,112
44102,note_on,10,0,14,,,,,,,,,13,,,,50,0
44104,note_on,10,0,15,,,,,,,,,14,,,,38,0
44105,note_on,36,0,13,,,,,,,,,12,,,,76,112
44107,note_on,5,0,14,,,,,,,,,13,,,,48,112
44109,note_on,5,0,15,,,,,,,,,14,,,,36,112
44130,note_on,30,0,11,,,,,,,,,10,,,,83,0
44130,set_tempo,30,1,0,,,,,,1263158,,,,,,,,
44132,note_on,30,0,12,,,,,,,,,11,,,,80,0
44135,note_on,30,0,13,,,,,,,,,12,,,,76,0
44147,note_on,40,0,14,,,,,,,,,13,,,,48,0
44149,note_on,40,0,15,,,,,,,,,14,,,,36,0
44152,note_on,5,0,14,,,,,,,,,13,,,,47,112
44154,note_on,5,0,15,,,,,,,,,14,,,,35,112
44160,note_on,0,0,11,,,,,,,,,10,,,,84,112
44160,control_change,30,0,11,,,,,,,,,10,11,50,,,
44160,set_tempo,30,1,0,,,,,,1165049,,,,,,,,
44161,control_change,426,0,5,,,,,,,,,4,11,47,,,
44162,note_on,10,0,14,,,,,,,,,13,,,,47,0
44162,control_change,426,0,7,,,,,,,,,6,11,47,,,
44162,control_change,0,0,2,,,,,,,,,1,11,47,,,
44162,note_on,0,0,2,,,,,,,,,1,,,,69,115
44162,note_on,426,0,2,,,,,,,,,1,,,,72,115
44162,note_on,0,0,3,,,,,,,,,2,,,,69,116
44162,note_on,426,0,3,,,,,,,,,2,,,,72,116
44162,control_change,30,0,12,,,,,,,,,11,11,50,,,
44162,note_on,0,0,12,,,,,,,,,11,,,,81,112
44162,control_change,0,0,3,,,,,,,,,2,11,47,,,
44163,control_change,426,0,6,,,,,,,,,5,11,47,,,
44164,control_change,4,0,11,,,,,,,,,10,11,47,,,
44164,note_on,10,0,15,,,,,,,,,14,,,,35,0
44165,control_change,30,0,13,,,,,,,,,12,11,50,,,
44165,note_on,0,0,13,,,,,,,,,12,,,,76,112
44166,control_change,4,0,12,,,,,,,,,11,11,47,,,
44167,note_on,0,0,4,,,,,,,,,3,,,,57,115
44167,control_change,0,0,4,,,,,,,,,3,11,47,,,
44167,note_on,426,0,4,,,,,,,,,3,,,,60,115
44167,control_change,5,0,14,,,,,,,,,13,11,50,,,
44167,note_on,0,0,14,,,,,,,,,13,,,,45,112
44169,control_change,4,0,13,,,,,,,,,12,11,47,,,
44169,control_change,5,0,11,,,,,,,,,10,11,44,,,
44169,control_change,5,0,15,,,,,,,,,14,11,50,,,
44169,note_on,0,0,15,,,,,,,,,14,,,,33,112
44171,control_change,4,0,14,,,,,,,,,13,11,47,,,
44171,control_change,5,0,12,,,,,,,,,11,11,44,,,
44173,control_change,4,0,15,,,,,,,,,14,11,47,,,
44174,control_change,5,0,13,,,,,,,,,12,11,44,,,
44176,control_change,5,0,14,,,,,,,,,13,11,44,,,
44178,control_change,5,0,15,,,,,,,,,14,11,44,,,
44192,note_on,30,0,3,,,,,,,,,2,,,,69,0
44192,note_on,0,0,3,,,,,,,,,2,,,,72,0
44192,note_on,30,0,2,,,,,,,,,1,,,,69,0
44192,note_on,0,0,2,,,,,,,,,1,,,,72,0
44192,note_on,0,0,2,,,,,,,,,1,,,,74,100
44192,note_on,0,0,2,,,,,,,,,1,,,,71,100
44192,note_on,0,0,3,,,,,,,,,2,,,,74,101
44192,note_on,0,0,3,,,,,,,,,2,,,,71,101
44192,note_on,30,0,7,,,,,,,,,6,,,,64,112
44197,note_on,0,0,4,,,,,,,,,3,,,,60,0
44197,note_on,30,0,4,,,,,,,,,3,,,,57,0
44197,note_on,0,0,4,,,,,,,,,3,,,,59,100
44197,note_on,0,0,4,,,,,,,,,3,,,,62,100
44202,note_on,10,0,7,,,,,,,,,6,,,,64,0
44205,control_change,36,0,11,,,,,,,,,10,11,41,,,
44207,control_change,36,0,12,,,,,,,,,11,11,41,,,
44207,note_on,5,0,7,,,,,,,,,6,,,,64,112
44209,control_change,4,0,11,,,,,,,,,10,11,38,,,
44210,control_change,36,0,13,,,,,,,,,12,11,41,,,
44211,control_change,4,0,12,,,,,,,,,11,11,38,,,
44212,control_change,36,0,14,,,,,,,,,13,11,41,,,
44214,control_change,36,0,15,,,,,,,,,14,11,41,,,
44214,control_change,5,0,11,,,,,,,,,10,11,35,,,
44214,control_change,4,0,13,,,,,,,,,12,11,38,,,
44216,control_change,4,0,14,,,,,,,,,13,11,38,,,
44216,control_change,5,0,12,,,,,,,,,11,11,35,,,
44217,note_on,10,0,7,,,,,,,,,6,,,,64,0
44218,control_change,4,0,11,,,,,,,,,10,11,32,,,
44218,control_change,4,0,15,,,,,,,,,14,11,38,,,
44219,control_change,5,0,13,,,,,,,,,12,11,35,,,
44220,note_on,2,0,11,,,,,,,,,10,,,,84,0
44220,set_tempo,60,1,0,,,,,,1071429,,,,,,,,
44220,control_change,4,0,12,,,,,,,,,11,11,32,,,
44221,control_change,5,0,14,,,,,,,,,13,11,35,,,
44222,note_on,2,0,12,,,,,,,,,11,,,,81,0
44222,note_on,5,0,7,,,,,,,,,6,,,,64,112
44222,note_on,30,0,3,,,,,,,,,2,,,,71,0
44222,note_on,0,0,3,,,,,,,,,2,,,,74,0
44222,note_on,0,0,3,,,,,,,,,2,,,,76,101
44222,note_on,0,0,2,,,,,,,,,1,,,,76,100
44222,note_on,0,0,2,,,,,,,,,1,,,,72,100
44222,note_on,0,0,2,,,,,,,,,1,,,,74,0
44222,note_on,30,0,2,,,,,,,,,1,,,,71,0
44222,note_on,0,0,3,,,,,,,,,2,,,,72,101
44223,control_change,4,0,13,,,,,,,,,12,11,32,,,
44223,control_change,5,0,15,,,,,,,,,14,11,35,,,
44225,note_on,2,0,13,,,,,,,,,12,,,,76,0
44225,control_change,4,0,14,,,,,,,,,13,11,32,,,
44227,note_on,0,0,4,,,,,,,,,3,,,,60,100
44227,control_change,4,0,15,,,,,,,,,14,11,32,,,
44227,note_on,0,0,4,,,,,,,,,3,,,,62,0
44227,note_on,0,0,4,,,,,,,,,3,,,,64,100
44227,note_on,30,0,4,,,,,,,,,3,,,,59,0
44227,note_on,2,0,14,,,,,,,,,13,,,,45,0
44229,note_on,2,0,15,,,,,,,,,14,,,,33,0
44252,note_on,0,0,2,,,,,,,,,1,,,,74,100
44252,note_on,0,0,2,,,,,,,,,1,,,,71,100
44252,note_on,0,0,2,,,,,,,,,1,,,,72,0
44252,note_on,30,0,2,,,,,,,,,1,,,,76,0
44252,note_on,0,0,3,,,,,,,,,2,,,,74,101
44252,note_on,0,0,3,,,,,,,,,2,,,,71,101
44252,note_on,0,0,3,,,,,,,,,2,,,,76,0
44252,note_on,30,0,3,,,,,,,,,2,,,,72,0
44257,note_on,0,0,4,,,,,,,,,3,,,,62,100
44257,note_on,0,0,4,,,,,,,,,3,,,,59,100
44257,note_on,0,0,4,,,,,,,,,3,,,,64,0
44257,note_on,30,0,4,,,,,,,,,3,,,,60,0
44262,note_on,40,0,7,,,,,,,,,6,,,,64,0
44267,note_on,5,0,7,,,,,,,,,6,,,,64,112
44277,note_on,10,0,7,,,,,,,,,6,,,,64,0
44280,set_tempo,60,1,0,,,,,,1142857,,,,,,,,
44282,note_on,5,0,7,,,,,,,,,6,,,,69,112
44282,note_on,30,0,3,,,,,,,,,2,,,,74,0
44282,note_on,0,0,3,,,,,,,,,2,,,,71,0
44282,note_on,0,0,3,,,,,,,,,2,,,,69,101
44282,note_on,0,0,3,,,,,,,,,2,,,,72,101
44282,note_on,0,0,2,,,,,,,,,1,,,,72,100
44282,note_on,0,0,2,,,,,,,,,1,,,,69,100
44282,note_on,0,0,2,,,,,,,,,1,,,,71,0
44282,note_on,30,0,2,,,,,,,,,1,,,,74,0
44287,note_on,0,0,4,,,,,,,,,3,,,,57,100
44287,note_on,30,0,4,,,,,,,,,3,,,,62,0
44287,note_on,0,0,4,,,,,,,,,3,,,,60,100
44287,note_on,0,0,4,,,,,,,,,3,,,,59,0
44312,note_on,0,0,3,,,,,,,,,2,,,,69,0
44312,note_on,30,0,3,,,,,,,,,2,,,,72,0
44312,note_on,30,0,2,,,,,,,,,1,,,,72,0
44312,note_on,0,0,2,,,,,,,,,1,,,,69,0
44313,note_on,150,0,6,,,,,,,,,5,,,,55,100
44317,note_on,0,0,4,,,,,,,,,3,,,,57,0
44317,note_on,30,0,4,,,,,,,,,3,,,,60,0
44323,note_on,10,0,6,,,,,,,,,5,,,,55,0
44328,note_on,5,0,6,,,,,,,,,5,,,,55,100
44338,note_on,10,0,6,,,,,,,,,5,,,,55,0
44340,set_tempo,60,1,0,,,,,,1071429,,,,,,,,
44341,note_on,180,0,5,,,,,,,,,4,,,,67,100
44342,note_on,0,0,3,,,,,,,,,2,,,,71,101
44342,note_on,30,0,3,,,,,,,,,2,,,,65,101
44342,note_on,0,0,2,,,,,,,,,1,,,,71,100
44342,note_on,30,0,2,,,,,,,,,1,,,,77,100
44342,note_on,60,0,7,,,,,,,,,6,,,,69,0
44343,note_on,5,0,6,,,,,,,,,5,,,,55,100
44347,control_change,120,0,14,,,,,,,,,13,11,59,,,
44347,note_on,30,0,4,,,,,,,,,3,,,,62,100
44347,note_on,0,0,14,,,,,,,,,13,,,,43,97
44347,note_on,0,0,4,,,,,,,,,3,,,,55,100
44349,control_change,120,0,15,,,,,,,,,14,11,59,,,
44349,note_on,0,0,15,,,,,,,,,14,,,,31,97
44357,note_on,10,0,14,,,,,,,,,13,,,,43,0
44359,note_on,10,0,15,,,,,,,,,14,,,,31,0
44362,note_on,5,0,14,,,,,,,,,13,,,,43,97
44364,note_on,5,0,15,,,,,,,,,14,,,,31,97
44372,note_on,30,0,2,,,,,,,,,1,,,,71,0
44372,note_on,0,0,2,,,,,,,,,1,,,,77,0
44372,note_on,30,0,3,,,,,,,,,2,,,,71,0
44372,note_on,0,0,3,,,,,,,,,2,,,,65,0
44372,note_on,10,0,14,,,,,,,,,13,,,,43,0
44374,note_on,10,0,15,,,,,,,,,14,,,,31,0
44377,note_on,0,0,4,,,,,,,,,3,,,,62,0
44377,note_on,30,0,4,,,,,,,,,3,,,,55,0
44377,note_on,5,0,14,,,,,,,,,13,,,,43,97
44379,note_on,5,0,15,,,,,,,,,14,,,,31,97
44383,note_on,40,0,6,,,,,,,,,5,,,,55,0
44387,note_on,10,0,14,,,,,,,,,13,,,,43,0
44388,note_on,5,0,6,,,,,,,,,5,,,,55,100
44389,note_on,10,0,15,,,,,,,,,14,,,,31,0
44392,note_on,5,0,14,,,,,,,,,13,,,,43,97
44394,note_on,5,0,15,,,,,,,,,14,,,,31,97
44396,note_on,55,0,5,,,,,,,,,4,,,,67,0
44398,note_on,10,0,6,,,,,,,,,5,,,,55,0
44400,set_tempo,60,1,0,,,,,,1165049,,,,,,,,
44401,note_on,5,0,5,,,,,,,,,4,,,,67,115
44402,note_on,10,0,14,,,,,,,,,13,,,,43,0
44402,note_on,30,0,2,,,,,,,,,1,,,,72,115
44402,note_on,0,0,2,,,,,,,,,1,,,,76,115
44402,note_on,30,0,3,,,,,,,,,2,,,,72,116
44402,note_on,0,0,3,,,,,,,,,2,,,,64,116
44403,note_on,5,0,6,,,,,,,,,5,,,,60,115
44404,note_on,10,0,15,,,,,,,,,14,,,,31,0
44407,control_change,5,0,14,,,,,,,,,13,11,45,,,
44407,note_on,30,0,4,,,,,,,,,3,,,,64,115
44407,note_on,0,0,14,,,,,,,,,13,,,,48,97
44407,note_on,0,0,4,,,,,,,,,3,,,,60,115
44409,control_change,5,0,15,,,,,,,,,14,11,45,,,
44409,note_on,0,0,15,,,,,,,,,14,,,,36,97
44460,note_on,0,0,11,,,,,,,,,10,,,,67,92
44460,set_tempo,60,1,0,,,,,,1071429,,,,,,,,
44460,control_change,240,0,11,,,,,,,,,10,11,45,,,
44462,note_on,0,0,12,,,,,,,,,11,,,,64,92
44462,control_change,240,0,12,,,,,,,,,11,11,45,,,
44465,control_change,240,0,13,,,,,,,,,12,11,45,,,
44465,note_on,0,0,13,,,,,,,,,12,,,,55,92
44467,note_on,60,0,14,,,,,,,,,13,,,,48,0
44469,note_on,60,0,15,,,,,,,,,14,,,,36,0
44470,note_on,10,0,11,,,,,,,,,10,,,,67,0
44472,note_on,10,0,12,,,,,,,,,11,,,,64,0
44475,note_on,10,0,13,,,,,,,,,12,,,,55,0
44475,note_on,5,0,11,,,,,,,,,10,,,,67,92
44477,note_on,5,0,12,,,,,,,,,11,,,,64,92
44480,note_on,5,0,13,,,,,,,,,12,,,,55,92
44485,note_on,10,0,11,,,,,,,,,10,,,,67,0
44487,note_on,10,0,12,,,,,,,,,11,,,,64,0
44490,note_on,5,0,11,,,,,,,,,10,,,,67,92
44490,note_on,10,0,13,,,,,,,,,12,,,,55,0
44492,note_on,5,0,12,,,,,,,,,11,,,,64,92
44495,note_on,5,0,13,,,,,,,,,12,,,,55,92
44500,note_on,10,0,11,,,,,,,,,10,,,,67,0
44502,note_on,10,0,12,,,,,,,,,11,,,,64,0
44505,note_on,5,0,11,,,,,,,,,10,,,,67,92
44505,note_on,10,0,13,,,,,,,,,12,,,,55,0
44507,note_on,5,0,12,,,,,,,,,11,,,,64,92
44510,note_on,5,0,13,,,,,,,,,12,,,,55,92
44511,note_on,110,0,5,,,,,,,,,4,,,,67,0
44512,note_on,110,0,2,,,,,,,,,1,,,,76,0
44512,note_on,110,0,3,,,,,,,,,2,,,,64,0
44512,note_on,0,0,3,,,,,,,,,2,,,,72,0
44512,note_on,0,0,2,,,,,,,,,1,,,,72,0
44513,note_on,110,0,6,,,,,,,,,5,,,,60,0
44515,note_on,10,0,11,,,,,,,,,10,,,,67,0
44517,note_on,10,0,12,,,,,,,,,11,,,,64,0
44517,note_on,110,0,4,,,,,,,,,3,,,,60,0
44517,note_on,0,0,4,,,,,,,,,3,,,,64,0
44520,note_on,10,0,13,,,,,,,,,12,,,,55,0
44520,note_on,5,0,11,,,,,,,,,10,,,,64,92
44520,set_tempo,60,1,0,,,,,,1142857,,,,,,,,
44521,note_on,10,0,5,,,,,,,,,4,,,,67,115
44522,note_on,10,0,2,,,,,,,,,1,,,,72,115
44522,note_on,10,0,3,,,,,,,,,2,,,,64,116
44522,note_on,0,0,3,,,,,,,,,2,,,,72,116
44522,note_on,5,0,12,,,,,,,,,11,,,,60,92
44522,note_on,0,0,2,,,,,,,,,1,,,,76,115
44523,note_on,10,0,6,,,,,,,,,5,,,,60,115
44525,note_on,5,0,13,,,,,,,,,12,,,,60,92
44527,note_on,10,0,4,,,,,,,,,3,,,,64,115
44527,note_on,0,0,4,,,,,,,,,3,,,,60,115
44580,set_tempo,60,1,0,,,,,,1071429,,,,,,,,
44580,note_on,60,0,11,,,,,,,,,10,,,,64,0
44582,note_on,60,0,12,,,,,,,,,11,,,,60,0
44585,note_on,60,0,13,,,,,,,,,12,,,,60,0
44588,note_on,846,0,10,,,,,,,,,15,,,,52,32
44603,note_on,15,0,10,,,,,,,,,15,,,,52,0
44603,note_on,0,0,10,,,,,,,,,15,,,,52,35
44610,set_tempo,30,1,0,,,,,,1263158,,,,,,,,
44618,note_on,0,0,10,,,,,,,,,15,,,,52,38
44618,note_on,15,0,10,,,,,,,,,15,,,,52,0
44631,note_on,110,0,5,,,,,,,,,4,,,,67,0
44632,note_on,0,0,2,,,,,,,,,1,,,,72,0
44632,note_on,0,0,3,,,,,,,,,2,,,,64,0
44632,note_on,110,0,3,,,,,,,,,2,,,,72,0
44632,note_on,110,0,2,,,,,,,,,1,,,,76,0
44633,note_on,0,0,10,,,,,,,,,15,,,,52,42
44633,note_on,15,0,10,,,,,,,,,15,,,,52,0
44633,note_on,110,0,6,,,,,,,,,5,,,,60,0
44637,note_on,0,0,4,,,,,,,,,3,,,,64,0
44637,note_on,110,0,4,,,,,,,,,3,,,,60,0
44640,set_tempo,30,1,0,,,,,,1165049,,,,,,,,
44640,note_on,0,0,11,,,,,,,,,10,,,,81,112
44640,note_on,0,0,11,,,,,,,,,10,,,,73,112
44640,control_change,60,0,11,,,,,,,,,10,11,102,,,
44640,note_on,0,0,11,,,,,,,,,10,,,,64,112
44641,note_on,906,0,1,,,,,,,,,0,,,,81,101
44641,note_on,0,0,1,,,,,,,,,0,,,,73,101
44641,control_change,10,0,5,,,,,,,,,4,11,102,,,
44641,note_on,0,0,5,,,,,,,,,4,,,,64,100
44642,control_change,0,0,3,,,,,,,,,2,11,91,,,
44642,note_on,0,0,12,,,,,,,,,11,,,,73,112
44642,note_on,300,0,7,,,,,,,,,6,,,,69,112
44642,note_on,0,0,7,,,,,,,,,6,,,,57,112
44642,control_change,0,0,7,,,,,,,,,6,11,102,,,
44642,note_on,0,0,12,,,,,,,,,11,,,,64,112
44642,control_change,10,0,2,,,,,,,,,1,11,91,,,
44642,note_on,0,0,3,,,,,,,,,2,,,,73,101
44642,note_on,0,0,2,,,,,,,,,1,,,,76,100
44642,note_on,10,0,3,,,,,,,,,2,,,,64,101
44642,control_change,60,0,12,,,,,,,,,11,11,102,,,
44642,note_on,0,0,12,,,,,,,,,11,,,,81,112
44642,note_on,0,0,2,,,,,,,,,1,,,,73,100
44643,control_change,0,0,6,,,,,,,,,5,11,102,,,
44643,note_on,10,0,6,,,,,,,,,5,,,,52,100
44644,note_on,0,0,8,,,,,,,,,7,,,,61,110
44644,note_on,906,0,8,,,,,,,,,7,,,,64,110
44645,note_on,0,0,13,,,,,,,,,12,,,,57,112
44645,note_on,0,0,13,,,,,,,,,12,,,,64,112
44645,note_on,0,0,13,,,,,,,,,12,,,,73,112
44645,control_change,60,0,13,,,,,,,,,12,11,102,,,
44646,note_on,906,0,9,,,,,,,,,8,,,,57,110
44647,note_on,0,0,14,,,,,,,,,13,,,,45,112
44647,note_on,10,0,4,,,,,,,,,3,,,,61,100
44647,note_on,0,0,4,,,,,,,,,3,,,,57,100
44647,control_change,180,0,14,,,,,,,,,13,11,102,,,
44647,control_change,0,0,4,,,,,,,,,3,11,102,,,
44648,note_on,0,0,10,,,,,,,,,15,,,,45,82
44648,note_on,15,0,10,,,,,,,,,15,,,,52,0
44649,control_change,180,0,15,,,,,,,,,14,11,102,,,
44649,note_on,0,0,15,,,,,,,,,14,,,,33,112
44682,note_on,0,0,11,,,,,,,,,10,,,,64,0
44682,note_on,0,0,11,,,,,,,,,10,,,,73,0
44682,note_on,42,0,11,,,,,,,,,10,,,,81,0
44684,note_on,0,0,12,,,,,,,,,11,,,,81,0
44684,note_on,42,0,12,,,,,,,,,11,,,,64,0
44684,note_on,0,0,12,,,,,,,,,11,,,,73,0
44687,note_on,0,0,13,,,,,,,,,12,,,,57,0
44687,note_on,0,0,13,,,,,,,,,12,,,,64,0
44687,note_on,42,0,13,,,,,,,,,12,,,,73,0
44692,note_on,45,0,14,,,,,,,,,13,,,,45,0
44692,note_on,0,0,14,,,,,,,,,13,,,,57,112
44694,note_on,0,0,15,,,,,,,,,14,,,,45,112
44694,note_on,45,0,15,,,,,,,,,14,,,,33,0
44695,note_on,0,0,1,,,,,,,,,0,,,,81,0
44695,note_on,54,0,5,,,,,,,,,4,,,,64,0
44695,note_on,54,0,1,,,,,,,,,0,,,,73,0
44696,note_on,54,0,7,,,,,,,,,6,,,,57,0
44696,note_on,0,0,7,,,,,,,,,6,,,,69,0
44696,note_on,0,0,3,,,,,,,,,2,,,,64,0
44696,note_on,54,0,3,,,,,,,,,2,,,,73,0
44696,note_on,54,0,2,,,,,,,,,1,,,,73,0
44696,note_on,0,0,2,,,,,,,,,1,,,,76,0
44697,note_on,54,0,6,,,,,,,,,5,,,,52,0
44698,note_on,54,0,8,,,,,,,,,7,,,,61,0
44698,note_on,0,0,8,,,,,,,,,7,,,,64,0
44700,note_on,18,0,11,,,,,,,,,10,,,,76,112
44700,note_on,54,0,9,,,,,,,,,8,,,,57,0
44700,set_tempo,60,1,0,,,,,,1071429,,,,,,,,
44701,note_on,54,0,4,,,,,,,,,3,,,,57,0
44701,note_on,0,0,4,,,,,,,,,3,,,,61,0
44702,note_on,54,0,10,,,,,,,,,15,,,,45,0
44702,note_on,18,0,12,,,,,,,,,11,,,,73,112
44702,note_on,10,0,14,,,,,,,,,13,,,,57,0
44704,note_on,10,0,15,,,,,,,,,14,,,,45,0
44705,note_on,18,0,13,,,,,,,,,12,,,,69,112
44707,note_on,5,0,14,,,,,,,,,13,,,,57,112
44709,note_on,5,0,15,,,,,,,,,14,,,,45,112
44730,note_on,30,0,11,,,,,,,,,10,,,,76,0
44732,note_on,30,0,12,,,,,,,,,11,,,,73,0
44735,note_on,30,0,13,,,,,,,,,12,,,,69,0
44752,note_on,45,0,14,,,,,,,,,13,,,,57,0
44752,note_on,0,0,14,,,,,,,,,13,,,,57,112
44754,note_on,45,0,15,,,,,,,,,14,,,,45,0
44754,note_on,0,0,15,,,,,,,,,14,,,,45,112
44760,note_on,30,0,11,,,,,,,,,10,,,,76,112
44760,set_tempo,60,1,0,,,,,,1142857,,,,,,,,
44762,note_on,30,0,12,,,,,,,,,11,,,,74,112
44765,note_on,30,0,13,,,,,,,,,12,,,,68,112
44767,note_on,15,0,14,,,,,,,,,13,,,,57,0
44767,note_on,0,0,14,,,,,,,,,13,,,,59,112
44769,note_on,15,0,15,,,,,,,,,14,,,,45,0
44769,note_on,0,0,15,,,,,,,,,14,,,,47,112
44790,note_on,30,0,11,,,,,,,,,10,,,,76,0
44792,note_on,30,0,12,,,,,,,,,11,,,,74,0
44795,note_on,30,0,13,,,,,,,,,12,,,,68,0
44797,note_on,30,0,14,,,,,,,,,13,,,,59,0
44799,note_on,30,0,15,,,,,,,,,14,,,,47,0
44820,set_tempo,60,1,0,,,,,,1071429,,,,,,,,
44820,note_on,30,0,11,,,,,,,,,10,,,,76,112
44822,note_on,30,0,12,,,,,,,,,11,,,,74,112
44825,note_on,30,0,13,,,,,,,,,12,,,,68,112
44827,note_on,30,0,14,,,,,,,,,13,,,,52,112
44829,note_on,30,0,15,,,,,,,,,14,,,,40,112
44850,note_on,30,0,11,,,,,,,,,10,,,,76,0
44852,note_on,30,0,12,,,,,,,,,11,,,,74,0
44855,note_on,30,0,13,,,,,,,,,12,,,,68,0
44857,note_on,30,0,14,,,,,,,,,13,,,,52,0
44859,note_on,30,0,15,,,,,,,,,14,,,,40,0
44880,set_tempo,60,1,0,,,,,,1165049,,,,,,,,
44880,note_on,30,0,11,,,,,,,,,10,,,,76,112
44882,note_on,30,0,12,,,,,,,,,11,,,,73,112
44885,note_on,30,0,13,,,,,,,,,12,,,,69,112
44887,note_on,30,0,14,,,,,,,,,13,,,,57,112
44889,note_on,30,0,15,,,,,,,,,14,,,,45,112
44914,note_on,34,0,11,,,,,,,,,10,,,,76,0
44916,note_on,34,0,12,,,,,,,,,11,,,,73,0
44917,note_on,30,0,14,,,,,,,,,13,,,,57,0
44919,note_on,30,0,15,,,,,,,,,14,,,,45,0
44919,note_on,34,0,13,,,,,,,,,12,,,,69,0
44925,note_on,11,0,11,,,,,,,,,10,,,,74,112
44927,note_on,11,0,12,,,,,,,,,11,,,,71,112
44930,note_on,11,0,13,,,,,,,,,12,,,,69,112
44934,note_on,9,0,11,,,,,,,,,10,,,,74,0
44936,note_on,9,0,12,,,,,,,,,11,,,,71,0
44939,note_on,9,0,13,,,,,,,,,12,,,,69,0
44940,note_on,6,0,11,,,,,,,,,10,,,,76,112
44940,set_tempo,60,1,0,,,,,,1071429,,,,,,,,
44942,note_on,6,0,12,,,,,,,,,11,,,,73,112
44945,note_on,6,0,13,,,,,,,,,12,,,,69,112
44967,note_on,27,0,11,,,,,,,,,10,,,,76,0
44969,note_on,27,0,12,,,,,,,,,11,,,,73,0
44972,note_on,27,0,13,,,,,,,,,12,,,,69,0
44985,note_on,18,0,11,,,,,,,,,10,,,,77,112
44987,note_on,18,0,12,,,,,,,,,11,,,,74,112
44990,note_on,18,0,13,,,,,,,,,12,,,,69,112
44994,note_on,9,0,11,,,,,,,,,10,,,,77,0
44996,note_on,9,0,12,,,,,,,,,11,,,,74,0
44999,note_on,9,0,13,,,,,,,,,12,,,,69,0
45000,set_tempo,60,1,0,,,,,,1142857,,,,,,,,
45000,note_on,6,0,11,,,,,,,,,10,,,,76,112
45002,note_on,6,0,12,,,,,,,,,11,,,,73,112
45005,note_on,6,0,13,,,,,,,,,12,,,,69,112
45007,note_on,90,0,14,,,,,,,,,13,,,,57,112
45009,note_on,90,0,15,,,,,,,,,14,,,,45,112
45024,note_on,24,0,11,,,,,,,,,10,,,,76,0
45026,note_on,24,0,12,,,,,,,,,11,,,,73,0
45029,note_on,24,0,13,,,,,,,,,12,,,,69,0
45041,note_on,34,0,14,,,,,,,,,13,,,,57,0
45043,note_on,34,0,15,,,,,,,,,14,,,,45,0
45052,note_on,11,0,14,,,,,,,,,13,,,,55,112
45054,note_on,11,0,15,,,,,,,,,14,,,,43,112
45060,note_on,36,0,11,,,,,,,,,10,,,,76,112
45060,set_tempo,60,1,0,,,,,,1071429,,,,,,,,
45062,note_on,36,0,12,,,,,,,,,11,,,,73,112
45063,note_on,11,0,14,,,,,,,,,13,,,,55,0
45065,note_on,36,0,13,,,,,,,,,12,,,,69,112
45065,note_on,11,0,15,,,,,,,,,14,,,,43,0
45067,note_on,4,0,14,,,,,,,,,13,,,,53,112
45069,note_on,4,0,15,,,,,,,,,14,,,,41,112
45090,set_tempo,30,1,0,,,,,,1263158,,,,,,,,
45090,note_on,30,0,11,,,,,,,,,10,,,,76,0
45092,note_on,30,0,12,,,,,,,,,11,,,,73,0
45095,note_on,30,0,13,,,,,,,,,12,,,,69,0
45101,note_on,34,0,14,,,,,,,,,13,,,,53,0
45103,note_on,34,0,15,,,,,,,,,14,,,,41,0
45112,note_on,11,0,14,,,,,,,,,13,,,,52,112
45114,note_on,11,0,15,,,,,,,,,14,,,,40,112
45120,set_tempo,30,1,0,,,,,,1165049,,,,,,,,
45120,control_change,30,0,11,,,,,,,,,10,11,50,,,
45120,note_on,0,0,11,,,,,,,,,10,,,,77,112
45121,note_on,0,0,1,,,,,,,,,0,,,,74,101
45121,note_on,426,0,1,,,,,,,,,0,,,,77,101
45121,control_change,426,0,5,,,,,,,,,4,11,47,,,
45121,control_change,0,0,1,,,,,,,,,0,11,47,,,
45122,note_on,0,0,12,,,,,,,,,11,,,,74,112
45122,note_on,0,0,2,,,,,,,,,1,,,,77,100
45122,control_change,0,0,3,,,,,,,,,2,11,47,,,
45122,note_on,0,0,3,,,,,,,,,2,,,,62,101
45122,note_on,426,0,3,,,,,,,,,2,,,,65,101
45122,control_change,0,0,2,,,,,,,,,1,11,47,,,
45122,note_on,426,0,2,,,,,,,,,1,,,,74,100
45122,control_change,30,0,12,,,,,,,,,11,11,50,,,
45122,control_change,426,0,7,,,,,,,,,6,11,47,,,
45123,note_on,11,0,14,,,,,,,,,13,,,,52,0
45124,control_change,4,0,11,,,,,,,,,10,11,47,,,
45125,note_on,11,0,15,,,,,,,,,14,,,,40,0
45125,note_on,30,0,13,,,,,,,,,12,,,,69,112
45125,control_change,0,0,13,,,,,,,,,12,11,50,,,
45126,control_change,4,0,12,,,,,,,,,11,11,47,,,
45127,control_change,4,0,14,,,,,,,,,13,11,50,,,
45127,note_on,0,0,14,,,,,,,,,13,,,,50,112
45129,note_on,0,0,15,,,,,,,,,14,,,,38,112
45129,control_change,4,0,15,,,,,,,,,14,11,50,,,
45129,control_change,5,0,11,,,,,,,,,10,11,44,,,
45129,control_change,4,0,13,,,,,,,,,12,11,47,,,
45131,control_change,4,0,14,,,,,,,,,13,11,47,,,
45131,control_change,5,0,12,,,,,,,,,11,11,44,,,
45133,control_change,4,0,15,,,,,,,,,14,11,47,,,
45134,control_change,5,0,13,,,,,,,,,12,11,44,,,
45136,control_change,5,0,14,,,,,,,,,13,11,44,,,
45138,control_change,5,0,15,,,,,,,,,14,11,44,,,
45151,note_on,30,0,1,,,,,,,,,0,,,,74,0
45151,note_on,0,0,1,,,,,,,,,0,,,,77,0
45151,note_on,0,0,1,,,,,,,,,0,,,,79,101
45151,note_on,0,0,1,,,,,,,,,0,,,,76,101
45152,note_on,0,0,2,,,,,,,,,1,,,,79,100
45152,note_on,0,0,3,,,,,,,,,2,,,,64,101
45152,note_on,30,0,7,,,,,,,,,6,,,,69,112
45152,note_on,0,0,2,,,,,,,,,1,,,,76,100
45152,note_on,0,0,3,,,,,,,,,2,,,,67,101
45152,note_on,0,0,3,,,,,,,,,2,,,,65,0
45152,note_on,30,0,3,,,,,,,,,2,,,,62,0
45152,note_on,30,0,2,,,,,,,,,1,,,,77,0
45152,note_on,0,0,2,,,,,,,,,1,,,,74,0
45162,note_on,10,0,7,,,,,,,,,6,,,,69,0
45165,control_change,36,0,11,,,,,,,,,10,11,41,,,
45167,note_on,5,0,7,,,,,,,,,6,,,,69,112
45167,control_change,36,0,12,,,,,,,,,11,11,41,,,
45169,control_change,4,0,11,,,,,,,,,10,11,38,,,
45170,control_change,36,0,13,,,,,,,,,12,11,41,,,
45171,control_change,4,0,12,,,,,,,,,11,11,38,,,
45172,control_change,36,0,14,,,,,,,,,13,11,41,,,
45174,control_change,4,0,13,,,,,,,,,12,11,38,,,
45174,control_change,36,0,15,,,,,,,,,14,11,41,,,
45174,control_change,5,0,11,,,,,,,,,10,11,35,,,
45176,control_change,5,0,12,,,,,,,,,11,11,35,,,
45176,control_change,4,0,14,,,,,,,,,13,11,38,,,
45177,note_on,10,0,7,,,,,,,,,6,,,,69,0
45178,control_change,4,0,11,,,,,,,,,10,11,32,,,
45178,control_change,4,0,15,,,,,,,,,14,11,38,,,
45179,control_change,5,0,13,,,,,,,,,12,11,35,,,
45180,control_change,4,0,12,,,,,,,,,11,11,32,,,
45180,note_on,2,0,11,,,,,,,,,10,,,,77,0
45180,set_tempo,60,1,0,,,,,,1071429,,,,,,,,
45181,control_change,5,0,14,,,,,,,,,13,11,35,,,
45181,note_on,0,0,1,,,,,,,,,0,,,,81,101
45181,note_on,0,0,1,,,,,,,,,0,,,,77,101
45181,note_on,30,0,1,,,,,,,,,0,,,,76,0
45181,note_on,0,0,1,,,,,,,,,0,,,,79,0
45182,note_on,5,0,7,,,,,,,,,6,,,,69,112
45182,note_on,0,0,3,,,,,,,,,2,,,,65,101
45182,note_on,30,0,2,,,,,,,,,1,,,,76,0
45182,note_on,30,0,3,,,,,,,,,2,,,,64,0
45182,note_on,0,0,3,,,,,,,,,2,,,,69,101
45182,note_on,0,0,2,,,,,,,,,1,,,,79,0
45182,note_on,0,0,2,,,,,,,,,1,,,,81,100
45182,note_on,0,0,2,,,,,,,,,1,,,,77,100
45182,note_on,2,0,12,,,,,,,,,11,,,,74,0
45182,note_on,0,0,3,,,,,,,,,2,,,,67,0
45183,control_change,5,0,15,,,,,,,,,14,11,35,,,
45183,control_change,4,0,13,,,,,,,,,12,11,32,,,
45185,control_change,4,0,14,,,,,,,,,13,11,32,,,
45185,note_on,2,0,13,,,,,,,,,12,,,,69,0
45187,note_on,2,0,14,,,,,,,,,13,,,,50,0
45187,control_change,4,0,15,,,,,,,,,14,11,32,,,
45189,note_on,2,0,15,,,,,,,,,14,,,,38,0
45211,note_on,0,0,1,,,,,,,,,0,,,,76,101
45211,note_on,0,0,1,,,,,,,,,0,,,,81,0
45211,note_on,0,0,1,,,,,,,,,0,,,,79,101
45211,note_on,30,0,1,,,,,,,,,0,,,,77,0
45212,note_on,0,0,3,,,,,,,,,2,,,,64,101
45212,note_on,0,0,3,,,,,,,,,2,,,,69,0
45212,note_on,0,0,3,,,,,,,,,2,,,,67,101
45212,note_on,30,0,2,,,,,,,,,1,,,,77,0
45212,note_on,0,0,2,,,,,,,,,1,,,,81,0
45212,note_on,0,0,2,,,,,,,,,1,,,,76,100
45212,note_on,0,0,2,,,,,,,,,1,,,,79,100
45212,note_on,30,0,3,,,,,,,,,2,,,,65,0
45222,note_on,40,0,7,,,,,,,,,6,,,,69,0
45227,note_on,5,0,7,,,,,,,,,6,,,,69,112
45237,note_on,10,0,7,,,,,,,,,6,,,,69,0
45240,set_tempo,60,1,0,,,,,,1142857,,,,,,,,
45241,note_on,0,0,1,,,,,,,,,0,,,,76,0
45241,note_on,30,0,1,,,,,,,,,0,,,,79,0
45241,note_on,0,0,1,,,,,,,,,0,,,,77,101
45241,note_on,0,0,1,,,,,,,,,0,,,,74,101
45242,note_on,30,0,3,,,,,,,,,2,,,,67,0
45242,note_on,0,0,3,,,,,,,,,2,,,,62,101
45242,note_on,30,0,2,,,,,,,,,1,,,,79,0
45242,note_on,5,0,7,,,,,,,,,6,,,,69,112
45242,note_on,0,0,3,,,,,,,,,2,,,,64,0
45242,note_on,0,0,2,,,,,,,,,1,,,,77,100
45242,note_on,0,0,2,,,,,,,,,1,,,,76,0
45242,note_on,0,0,3,,,,,,,,,2,,,,65,101
45271,note_on,0,0,1,,,,,,,,,0,,,,74,0
45271,note_on,30,0,1,,,,,,,,,0,,,,77,0
45271,note_on,150,0,5,,,,,,,,,4,,,,60,100
45272,note_on,30,0,2,,,,,,,,,1,,,,77,0
45272,note_on,30,0,3,,,,,,,,,2,,,,65,0
45272,note_on,0,0,3,,,,,,,,,2,,,,62,0
45281,note_on,10,0,5,,,,,,,,,4,,,,60,0
45286,note_on,5,0,5,,,,,,,,,4,,,,60,100
45296,note_on,10,0,5,,,,,,,,,4,,,,60,0
45300,set_tempo,60,1,0,,,,,,1071429,,,,,,,,
45301,note_on,30,0,1,,,,,,,,,0,,,,82,101
45301,note_on,5,0,5,,,,,,,,,4,,,,60,100
45301,note_on,0,0,1,,,,,,,,,0,,,,76,101
45302,note_on,30,0,2,,,,,,,,,1,,,,72,100
45302,note_on,0,0,3,,,,,,,,,2,,,,67,101
45302,note_on,30,0,3,,,,,,,,,2,,,,70,101
45302,note_on,60,0,7,,,,,,,,,6,,,,69,0
45307,control_change,120,0,14,,,,,,,,,13,11,59,,,
45307,note_on,0,0,14,,,,,,,,,13,,,,48,97
45309,note_on,0,0,15,,,,,,,,,14,,,,36,97
45309,control_change,120,0,15,,,,,,,,,14,11,59,,,
45317,note_on,10,0,14,,,,,,,,,13,,,,48,0
45319,note_on,10,0,15,,,,,,,,,14,,,,36,0
45322,note_on,5,0,14,,,,,,,,,13,,,,48,97
45324,note_on,5,0,15,,,,,,,,,14,,,,36,97
45331,note_on,0,0,1,,,,,,,,,0,,,,82,0
45331,note_on,30,0,1,,,,,,,,,0,,,,76,0
45332,note_on,30,0,2,,,,,,,,,1,,,,72,0
45332,note_on,0,0,3,,,,,,,,,2,,,,70,0
45332,note_on,10,0,14,,,,,,,,,13,,,,48,0
45332,note_on,30,0,3,,,,,,,,,2,,,,67,0
45334,note_on,10,0,15,,,,,,,,,14,,,,36,0
45337,note_on,5,0,14,,,,,,,,,13,,,,48,97
45339,note_on,5,0,15,,,,,,,,,14,,,,36,97
45341,note_on,40,0,5,,,,,,,,,4,,,,60,0
45346,note_on,5,0,5,,,,,,,,,4,,,,60,100
45347,note_on,10,0,14,,,,,,,,,13,,,,48,0
45349,note_on,10,0,15,,,,,,,,,14,,,,36,0
45352,note_on,5,0,14,,,,,,,,,13,,,,48,97
45354,note_on,5,0,15,,,,,,,,,14,,,,36,97
45356,note_on,10,0,5,,,,,,,,,4,,,,60,0
45360,set_tempo,60,1,0,,,,,,1165049,,,,,,,,
45361,note_on,5,0,5,,,,,,,,,4,,,,65,115
45361,note_on,30,0,1,,,,,,,,,0,,,,81,116
45361,note_on,0,0,1,,,,,,,,,0,,,,77,116
45362,note_on,10,0,14,,,,,,,,,13,,,,48,0
45362,note_on,30,0,3,,,,,,,,,2,,,,65,116
45362,note_on,0,0,3,,,,,,,,,2,,,,69,116
45362,note_on,30,0,2,,,,,,,,,1,,,,72,115
45364,note_on,10,0,15,,,,,,,,,14,,,,36,0
45367,control_change,5,0,14,,,,,,,,,13,11,45,,,
45367,note_on,0,0,14,,,,,,,,,13,,,,53,97
45369,note_on,0,0,15,,,,,,,,,14,,,,41,97
45369,control_change,5,0,15,,,,,,,,,14,11,45,,,
45420,set_tempo,60,1,0,,,,,,1071429,,,,,,,,
45420,control_change,240,0,11,,,,,,,,,10,11,45,,,
45420,note_on,0,0,11,,,,,,,,,10,,,,72,92
45422,control_change,240,0,12,,,,,,,,,11,11,45,,,
45422,note_on,0,0,12,,,,,,,,,11,,,,69,92
45425,control_change,240,0,13,,,,,,,,,12,11,45,,,
45425,note_on,0,0,13,,,,,,,,,12,,,,60,92
45427,note_on,60,0,14,,,,,,,,,13,,,,53,0
45429,note_on,60,0,15,,,,,,,,,14,,,,41,0
45430,note_on,10,0,11,,,,,,,,,10,,,,72,0
45432,note_on,10,0,12,,,,,,,,,11,,,,69,0
45435,note_on,5,0,11,,,,,,,,,10,,,,72,92
45435,note_on,10,0,13,,,,,,,,,12,,,,60,0
45437,note_on,5,0,12,,,,,,,,,11,,,,69,92
45440,note_on,5,0,13,,,,,,,,,12,,,,60,92
45445,note_on,10,0,11,,,,,,,,,10,,,,72,0
45447,note_on,10,0,12,,,,,,,,,11,,,,69,0
45450,note_on,5,0,11,,,,,,,,,10,,,,72,92
45450,note_on,10,0,13,,,,,,,,,12,,,,60,0
45452,note_on,5,0,12,,,,,,,,,11,,,,69,92
45455,note_on,5,0,13,,,,,,,,,12,,,,60,92
45460,note_on,10,0,11,,,,,,,,,10,,,,72,0
45462,note_on,10,0,12,,,,,,,,,11,,,,69,0
45465,note_on,5,0,11,,,,,,,,,10,,,,72,92
45465,note_on,10,0,13,,,,,,,,,12,,,,60,0
45467,note_on,5,0,12,,,,,,,,,11,,,,69,92
45470,note_on,5,0,13,,,,,,,,,12,,,,60,92
45471,note_on,0,0,1,,,,,,,,,0,,,,81,0
45471,note_on,110,0,1,,,,,,,,,0,,,,77,0
45471,note_on,110,0,5,,,,,,,,,4,,,,65,0
45472,note_on,0,0,3,,,,,,,,,2,,,,65,0
45472,note_on,110,0,2,,,,,,,,,1,,,,72,0
45472,note_on,110,0,3,,,,,,,,,2,,,,69,0
45475,note_on,10,0,11,,,,,,,,,10,,,,72,0
45477,note_on,10,0,12,,,,,,,,,11,,,,69,0
45480,set_tempo,60,1,0,,,,,,1142857,,,,,,,,
45480,note_on,5,0,11,,,,,,,,,10,,,,69,92
45480,note_on,10,0,13,,,,,,,,,12,,,,60,0
45481,note_on,10,0,1,,,,,,,,,0,,,,81,116
45481,note_on,0,0,1,,,,,,,,,0,,,,77,116
45481,note_on,10,0,5,,,,,,,,,4,,,,65,115
45482,note_on,5,0,12,,,,,,,,,11,,,,65,92
45482,note_on,0,0,3,,,,,,,,,2,,,,65,116
45482,note_on,10,0,3,,,,,,,,,2,,,,69,116
45482,note_on,10,0,2,,,,,,,,,1,,,,72,115
45485,note_on,5,0,13,,,,,,,,,12,,,,65,92
45540,set_tempo,60,1,0,,,,,,1071429,,,,,,,,
45540,note_on,60,0,11,,,,,,,,,10,,,,69,0
45542,note_on,60,0,12,,,,,,,,,11,,,,65,0
45545,note_on,60,0,13,,,,,,,,,12,,,,65,0
45548,note_on,846,0,10,,,,,,,,,15,,,,45,32
45563,note_on,0,0,10,,,,,,,,,15,,,,45,35
45563,note_on,15,0,10,,,,,,,,,15,,,,45,0
45570,set_tempo,30,1,0,,,,,,1263158,,,,,,,,
45578,note_on,15,0,10,,,,,,,,,15,,,,45,0
45578,note_on,0,0,10,,,,,,,,,15,,,,45,38
45591,note_on,110,0,5,,,,,,,,,4,,,,65,0
45591,note_on,0,0,1,,,,,,,,,0,,,,81,0
45591,note_on,110,0,1,,,,,,,,,0,,,,77,0
45592,note_on,0,0,3,,,,,,,,,2,,,,69,0
45592,note_on,110,0,3,,,,,,,,,2,,,,65,0
45592,note_on,110,0,2,,,,,,,,,1,,,,72,0
45593,note_on,15,0,10,,,,,,,,,15,,,,45,0
45593,note_on,0,0,10,,,,,,,,,15,,,,45,42
45600,set_tempo,30,1,0,,,,,,1165049,,,,,,,,
45600,note_on,0,0,11,,,,,,,,,10,,,,86,112
45600,note_on,0,0,11,,,,,,,,,10,,,,77,112
45600,note_on,0,0,11,,,,,,,,,10,,,,69,112
45600,note_on,0,0,11,,,,,,,,,10,,,,62,112
45600,control_change,60,0,11,,,,,,,,,10,11,122,,,
45601,note_on,0,0,1,,,,,,,,,0,,,,86,101
45601,control_change,0,0,1,,,,,,,,,0,11,91,,,
45601,note_on,10,0,5,,,,,,,,,4,,,,65,97
45601,control_change,0,0,5,,,,,,,,,4,11,82,,,
45601,note_on,10,0,1,,,,,,,,,0,,,,89,101
45602,control_change,60,0,12,,,,,,,,,11,11,122,,,
45602,note_on,0,0,12,,,,,,,,,11,,,,62,112
45602,note_on,0,0,12,,,,,,,,,11,,,,69,112
45602,control_change,300,0,7,,,,,,,,,6,11,82,,,
45602,note_on,0,0,12,,,,,,,,,11,,,,77,112
45602,control_change,10,0,2,,,,,,,,,1,11,91,,,
45602,control_change,0,0,3,,,,,,,,,2,11,91,,,
45602,note_on,10,0,3,,,,,,,,,2,,,,65,101
45602,note_on,0,0,2,,,,,,,,,1,,,,81,100
45602,note_on,0,0,3,,,,,,,,,2,,,,74,101
45602,note_on,0,0,2,,,,,,,,,1,,,,77,100
45603,note_on,906,0,6,,,,,,,,,5,,,,62,97
45603,control_change,0,0,6,,,,,,,,,5,11,82,,,
45604,control_change,906,0,8,,,,,,,,,7,11,102,,,
45604,note_on,0,0,8,,,,,,,,,7,,,,65,107
45604,note_on,0,0,8,,,,,,,,,7,,,,57,107
45605,note_on,0,0,13,,,,,,,,,12,,,,50,112
45605,note_on,0,0,13,,,,,,,,,12,,,,74,112
45605,control_change,60,0,13,,,,,,,,,12,11,122,,,
45605,note_on,0,0,13,,,,,,,,,12,,,,65,112
45605,note_on,0,0,13,,,,,,,,,12,,,,57,112
45606,note_on,0,0,9,,,,,,,,,8,,,,50,107
45606,control_change,906,0,9,,,,,,,,,8,11,102,,,
45607,control_change,180,0,14,,,,,,,,,13,11,122,,,
45607,note_on,906,0,4,,,,,,,,,3,,,,65,100
45607,note_on,0,0,4,,,,,,,,,3,,,,62,100
45607,control_change,7,0,11,,,,,,,,,10,11,119,,,
45607,note_on,0,0,14,,,,,,,,,13,,,,50,112
45608,note_on,0,0,10,,,,,,,,,15,,,,45,82
45608,note_on,15,0,10,,,,,,,,,15,,,,45,0
45609,control_change,180,0,15,,,,,,,,,14,11,122,,,
45609,control_change,7,0,12,,,,,,,,,11,11,119,,,
45609,note_on,0,0,15,,,,,,,,,14,,,,38,112
45611,control_change,7,0,8,,,,,,,,,7,11,99,,,
45612,control_change,7,0,13,,,,,,,,,12,11,119,,,
45613,control_change,7,0,9,,,,,,,,,8,11,99,,,
45614,control_change,7,0,14,,,,,,,,,13,11,119,,,
45615,control_change,8,0,11,,,,,,,,,10,11,116,,,
45616,control_change,7,0,15,,,,,,,,,14,11,119,,,
45617,control_change,8,0,12,,,,,,,,,11,11,116,,,
45619,control_change,8,0,8,,,,,,,,,7,11,96,,,
45620,control_change,8,0,13,,,,,,,,,12,11,116,,,
45621,control_change,8,0,9,,,,,,,,,8,11,96,,,
45622,control_change,7,0,11,,,,,,,,,10,11,113,,,
45622,control_change,8,0,14,,,,,,,,,13,11,116,,,
45624,control_change,8,0,15,,,,,,,,,14,11,116,,,
45624,control_change,7,0,12,,,,,,,,,11,11,113,,,
45626,control_change,7,0,8,,,,,,,,,7,11,93,,,
45627,control_change,7,0,13,,,,,,,,,12,11,113,,,
45628,control_change,7,0,9,,,,,,,,,8,11,93,,,
45629,control_change,7,0,14,,,,,,,,,13,11,113,,,
45630,control_change,8,0,11,,,,,,,,,10,11,110,,,
45631,control_change,7,0,15,,,,,,,,,14,11,113,,,
45632,note_on,0,0,7,,,,,,,,,6,,,,69,109
45632,note_on,30,0,7,,,,,,,,,6,,,,57,109
45632,control_change,8,0,12,,,,,,,,,11,11,110,,,
45634,note_on,8,0,8,,,,,,,,,7,,,,57,0
45634,control_change,0,0,8,,,,,,,,,7,11,90,,,
45634,note_on,0,0,8,,,,,,,,,7,,,,65,0
45635,control_change,8,0,13,,,,,,,,,12,11,110,,,
45636,control_change,0,0,9,,,,,,,,,8,11,90,,,
45636,note_on,8,0,9,,,,,,,,,8,,,,50,0
45637,control_change,7,0,11,,,,,,,,,10,11,107,,,
45637,note_on,8,0,14,,,,,,,,,13,,,,50,0
45637,control_change,0,0,14,,,,,,,,,13,11,110,,,
45639,note_on,8,0,15,,,,,,,,,14,,,,38,0
45639,control_change,7,0,12,,,,,,,,,11,11,107,,,
45639,control_change,0,0,15,,,,,,,,,14,11,110,,,
45641,note_on,40,0,5,,,,,,,,,4,,,,65,0
45641,control_change,7,0,8,,,,,,,,,7,11,87,,,
45641,note_on,0,0,13,,,,,,,,,12,,,,74,0
45641,note_on,0,0,13,,,,,,,,,12,,,,57,0
45641,note_on,0,0,13,,,,,,,,,12,,,,65,0
45641,note_on,6,0,13,,,,,,,,,12,,,,50,0
45642,note_on,10,0,7,,,,,,,,,6,,,,69,0
45642,note_on,0,0,7,,,,,,,,,6,,,,57,0
45642,control_change,1,0,13,,,,,,,,,12,11,107,,,
45643,note_on,40,0,6,,,,,,,,,5,,,,62,0
45643,control_change,7,0,9,,,,,,,,,8,11,87,,,
45644,control_change,7,0,14,,,,,,,,,13,11,107,,,
45645,control_change,8,0,11,,,,,,,,,10,11,104,,,
45646,control_change,7,0,15,,,,,,,,,14,11,107,,,
45646,note_on,5,0,5,,,,,,,,,4,,,,64,97
45647,note_on,5,0,7,,,,,,,,,6,,,,57,109
45647,control_change,8,0,12,,,,,,,,,11,11,104,,,
45647,note_on,0,0,7,,,,,,,,,6,,,,69,109
45648,note_on,5,0,6,,,,,,,,,5,,,,64,97
45649,control_change,8,0,8,,,,,,,,,7,11,84,,,
45650,control_change,8,0,13,,,,,,,,,12,11,104,,,
45651,control_change,8,0,9,,,,,,,,,8,11,84,,,
45652,note_on,0,0,4,,,,,,,,,3,,,,61,100
45652,control_change,8,0,14,,,,,,,,,13,11,104,,,
45652,note_on,0,0,4,,,,,,,,,3,,,,64,100
45652,note_on,0,0,4,,,,,,,,,3,,,,65,0
45652,note_on,45,0,4,,,,,,,,,3,,,,62,0
45654,control_change,8,0,15,,,,,,,,,14,11,104,,,
45654,note_on,9,0,11,,,,,,,,,10,,,,86,0
45654,note_on,0,0,11,,,,,,,,,10,,,,77,0
45654,note_on,0,0,11,,,,,,,,,10,,,,69,0
45654,note_on,0,0,11,,,,,,,,,10,,,,62,0
45655,note_on,54,0,1,,,,,,,,,0,,,,86,0
45655,note_on,0,0,1,,,,,,,,,0,,,,89,0
45656,note_on,0,0,2,,,,,,,,,1,,,,81,0
45656,note_on,9,0,12,,,,,,,,,11,,,,62,0
45656,note_on,0,0,12,,,,,,,,,11,,,,69,0
45656,note_on,54,0,3,,,,,,,,,2,,,,74,0
45656,note_on,54,0,2,,,,,,,,,1,,,,77,0
45656,note_on,0,0,12,,,,,,,,,11,,,,77,0
45656,note_on,0,0,3,,,,,,,,,2,,,,65,0
45656,note_on,10,0,5,,,,,,,,,4,,,,64,0
45657,note_on,10,0,7,,,,,,,,,6,,,,69,0
45657,note_on,0,0,7,,,,,,,,,6,,,,57,0
45658,note_on,10,0,6,,,,,,,,,5,,,,64,0
45660,set_tempo,60,1,0,,,,,,1071429,,,,,,,,
45661,note_on,5,0,5,,,,,,,,,4,,,,65,97
45662,note_on,5,0,7,,,,,,,,,6,,,,57,109
45662,note_on,0,0,7,,,,,,,,,6,,,,69,109
45663,note_on,5,0,6,,,,,,,,,5,,,,62,97
45664,note_on,0,0,8,,,,,,,,,7,,,,57,107
45664,note_on,15,0,8,,,,,,,,,7,,,,65,107
45665,note_on,0,0,13,,,,,,,,,12,,,,65,112
45665,note_on,0,0,13,,,,,,,,,12,,,,74,112
45665,note_on,0,0,13,,,,,,,,,12,,,,57,112
45665,note_on,15,0,13,,,,,,,,,12,,,,50,112
45666,note_on,15,0,9,,,,,,,,,8,,,,50,107
45667,note_on,0,0,4,,,,,,,,,3,,,,65,100
45667,note_on,0,0,4,,,,,,,,,3,,,,64,0
45667,note_on,15,0,4,,,,,,,,,3,,,,61,0
45667,note_on,15,0,14,,,,,,,,,13,,,,50,112
45667,note_on,0,0,4,,,,,,,,,3,,,,62,100
45668,note_on,60,0,10,,,,,,,,,15,,,,45,0
45669,note_on,15,0,15,,,,,,,,,14,,,,38,112
45694,note_on,0,0,8,,,,,,,,,7,,,,65,0
45694,note_on,30,0,8,,,,,,,,,7,,,,57,0
45696,note_on,30,0,9,,,,,,,,,8,,,,50,0
45697,note_on,30,0,14,,,,,,,,,13,,,,50,0
45699,note_on,30,0,15,,,,,,,,,14,,,,38,0
45701,note_on,40,0,5,,,,,,,,,4,,,,65,0
45702,note_on,40,0,7,,,,,,,,,6,,,,69,0
45702,note_on,0,0,7,,,,,,,,,6,,,,57,0
45703,note_on,40,0,6,,,,,,,,,5,,,,62,0
45705,note_on,40,0,13,,,,,,,,,12,,,,57,0
45705,note_on,0,0,13,,,,,,,,,12,,,,50,0
45705,note_on,0,0,13,,,,,,,,,12,,,,65,0
45705,note_on,0,0,13,,,,,,,,,12,,,,74,0
45706,note_on,5,0,5,,,,,,,,,4,,,,67,97
45707,note_on,0,0,7,,,,,,,,,6,,,,57,109
45707,note_on,5,0,7,,,,,,,,,6,,,,69,109
45708,note_on,5,0,6,,,,,,,,,5,,,,64,97
45712,note_on,0,0,4,,,,,,,,,3,,,,65,0
45712,note_on,0,0,4,,,,,,,,,3,,,,67,100
45712,note_on,45,0,4,,,,,,,,,3,,,,62,0
45712,note_on,0,0,4,,,,,,,,,3,,,,64,100
45716,note_on,10,0,5,,,,,,,,,4,,,,67,0
45717,note_on,10,0,7,,,,,,,,,6,,,,57,0
45717,note_on,0,0,7,,,,,,,,,6,,,,69,0
45718,note_on,10,0,6,,,,,,,,,5,,,,64,0
45720,set_tempo,60,1,0,,,,,,1142857,,,,,,,,
45720,note_on,66,0,11,,,,,,,,,10,,,,74,112
45721,note_on,5,0,5,,,,,,,,,4,,,,65,97
45722,note_on,66,0,12,,,,,,,,,11,,,,62,112
45722,note_on,0,0,7,,,,,,,,,6,,,,69,109
45722,note_on,5,0,7,,,,,,,,,6,,,,57,109
45723,note_on,5,0,6,,,,,,,,,5,,,,62,97
45727,note_on,0,0,4,,,,,,,,,3,,,,67,0
45727,note_on,0,0,4,,,,,,,,,3,,,,62,100
45727,note_on,15,0,4,,,,,,,,,3,,,,64,0
45727,note_on,0,0,4,,,,,,,,,3,,,,65,100
45728,note_on,60,0,10,,,,,,,,,15,,,,45,82
45751,note_on,30,0,5,,,,,,,,,4,,,,65,0
45753,note_on,30,0,6,,,,,,,,,5,,,,62,0
45754,note_on,34,0,11,,,,,,,,,10,,,,74,0
45756,note_on,34,0,12,,,,,,,,,11,,,,62,0
45757,note_on,30,0,4,,,,,,,,,3,,,,62,0
45757,note_on,0,0,4,,,,,,,,,3,,,,65,0
45765,note_on,11,0,11,,,,,,,,,10,,,,76,112
45767,note_on,11,0,12,,,,,,,,,11,,,,64,112
45776,note_on,11,0,11,,,,,,,,,10,,,,76,0
45778,note_on,11,0,12,,,,,,,,,11,,,,64,0
45780,note_on,4,0,11,,,,,,,,,10,,,,77,112
45780,set_tempo,60,1,0,,,,,,1071429,,,,,,,,
45781,note_on,30,0,5,,,,,,,,,4,,,,65,97
45782,note_on,4,0,12,,,,,,,,,11,,,,65,112
45783,note_on,30,0,6,,,,,,,,,5,,,,62,97
45787,note_on,0,0,4,,,,,,,,,3,,,,62,100
45787,note_on,30,0,4,,,,,,,,,3,,,,65,100
45788,note_on,60,0,10,,,,,,,,,15,,,,45,0
45811,note_on,30,0,5,,,,,,,,,4,,,,65,0
45813,note_on,30,0,6,,,,,,,,,5,,,,62,0
45814,note_on,34,0,11,,,,,,,,,10,,,,77,0
45816,note_on,34,0,12,,,,,,,,,11,,,,65,0
45817,note_on,0,0,4,,,,,,,,,3,,,,65,0
45817,note_on,30,0,4,,,,,,,,,3,,,,62,0
45825,note_on,11,0,11,,,,,,,,,10,,,,79,112
45827,note_on,11,0,12,,,,,,,,,11,,,,67,112
45836,note_on,11,0,11,,,,,,,,,10,,,,79,0
45837,note_on,0,0,7,,,,,,,,,6,,,,57,0
45837,note_on,115,0,7,,,,,,,,,6,,,,69,0
45838,note_on,11,0,12,,,,,,,,,11,,,,67,0
45840,note_on,0,0,11,,,,,,,,,10,,,,69,112
45840,note_on,4,0,11,,,,,,,,,10,,,,81,112
45840,set_tempo,60,1,0,,,,,,1121495,,,,,,,,
45841,note_on,186,0,1,,,,,,,,,0,,,,84,101
45841,note_on,0,0,1,,,,,,,,,0,,,,81,101
45842,note_on,0,0,3,,,,,,,,,2,,,,69,101
45842,note_on,4,0,12,,,,,,,,,11,,,,57,112
45842,note_on,186,0,3,,,,,,,,,2,,,,72,101
45842,note_on,0,0,2,,,,,,,,,1,,,,72,100
45842,note_on,0,0,12,,,,,,,,,11,,,,69,112
45842,note_on,186,0,2,,,,,,,,,1,,,,69,100
45844,note_on,0,0,8,,,,,,,,,7,,,,64,107
45844,note_on,0,0,8,,,,,,,,,7,,,,60,107
45844,control_change,150,0,8,,,,,,,,,7,11,102,,,
45845,note_on,0,0,13,,,,,,,,,12,,,,72,112
45845,note_on,140,0,13,,,,,,,,,12,,,,64,112
45845,note_on,0,0,13,,,,,,,,,12,,,,57,112
45845,control_change,0,0,13,,,,,,,,,12,11,102,,,
45846,note_on,0,0,9,,,,,,,,,8,,,,57,107
45846,control_change,150,0,9,,,,,,,,,8,11,102,,,
45847,note_on,0,0,4,,,,,,,,,3,,,,60,100
45847,note_on,30,0,4,,,,,,,,,3,,,,64,100
45847,note_on,0,0,14,,,,,,,,,13,,,,45,112
45847,control_change,150,0,14,,,,,,,,,13,11,102,,,
45849,note_on,0,0,15,,,,,,,,,14,,,,33,112
45849,control_change,150,0,15,,,,,,,,,14,11,102,,,
45851,control_change,7,0,8,,,,,,,,,7,11,99,,,
45852,control_change,7,0,13,,,,,,,,,12,11,99,,,
45853,control_change,7,0,9,,,,,,,,,8,11,99,,,
45854,control_change,7,0,14,,,,,,,,,13,11,99,,,
45856,control_change,7,0,15,,,,,,,,,14,11,99,,,
45859,control_change,8,0,8,,,,,,,,,7,11,96,,,
45860,control_change,8,0,13,,,,,,,,,12,11,96,,,
45861,control_change,8,0,9,,,,,,,,,8,11,96,,,
45862,control_change,8,0,14,,,,,,,,,13,11,96,,,
45864,control_change,8,0,15,,,,,,,,,14,11,96,,,
45866,control_change,7,0,8,,,,,,,,,7,11,93,,,
45867,control_change,7,0,13,,,,,,,,,12,11,93,,,
45868,control_change,7,0,9,,,,,,,,,8,11,93,,,
45869,control_change,7,0,14,,,,,,,,,13,11,93,,,
45870,note_on,30,0,11,,,,,,,,,10,,,,69,0
45870,note_on,0,0,11,,,,,,,,,10,,,,81,0
45871,note_on,30,0,1,,,,,,,,,0,,,,81,0
45871,note_on,0,0,1,,,,,,,,,0,,,,84,0
45871,control_change,7,0,15,,,,,,,,,14,11,93,,,
45871,note_on,60,0,5,,,,,,,,,4,,,,64,97
45871,note_on,0,0,1,,,,,,,,,0,,,,83,101
45871,note_on,0,0,1,,,,,,,,,0,,,,86,101
45872,note_on,0,0,2,,,,,,,,,1,,,,69,0
45872,note_on,30,0,12,,,,,,,,,11,,,,69,0
45872,note_on,0,0,3,,,,,,,,,2,,,,74,101
45872,note_on,0,0,2,,,,,,,,,1,,,,71,100
45872,note_on,0,0,2,,,,,,,,,1,,,,74,100
45872,note_on,0,0,3,,,,,,,,,2,,,,71,101
45872,note_on,0,0,3,,,,,,,,,2,,,,72,0
45872,note_on,30,0,3,,,,,,,,,2,,,,69,0
45872,note_on,30,0,2,,,,,,,,,1,,,,72,0
45872,note_on,0,0,12,,,,,,,,,11,,,,57,0
45873,note_on,60,0,6,,,,,,,,,5,,,,60,97
45874,control_change,0,0,8,,,,,,,,,7,11,90,,,
45874,note_on,8,0,8,,,,,,,,,7,,,,64,0
45874,note_on,0,0,8,,,,,,,,,7,,,,60,0
45875,control_change,8,0,13,,,,,,,,,12,11,90,,,
45876,control_change,0,0,9,,,,,,,,,8,11,90,,,
45876,note_on,8,0,9,,,,,,,,,8,,,,57,0
45877,control_change,8,0,14,,,,,,,,,13,11,90,,,
45879,control_change,8,0,15,,,,,,,,,14,11,90,,,
45881,note_on,10,0,5,,,,,,,,,4,,,,64,0
45881,control_change,7,0,8,,,,,,,,,7,11,87,,,
45882,control_change,7,0,13,,,,,,,,,12,11,87,,,
45883,control_change,7,0,9,,,,,,,,,8,11,87,,,
45883,note_on,10,0,6,,,,,,,,,5,,,,60,0
45884,control_change,7,0,14,,,,,,,,,13,11,87,,,
45886,control_change,7,0,15,,,,,,,,,14,11,87,,,
45886,note_on,5,0,5,,,,,,,,,4,,,,64,97
45888,note_on,5,0,6,,,,,,,,,5,,,,60,97
45889,control_change,8,0,8,,,,,,,,,7,11,84,,,
45891,control_change,8,0,9,,,,,,,,,8,11,84,,,
45896,note_on,10,0,5,,,,,,,,,4,,,,64,0
45898,note_on,10,0,6,,,,,,,,,5,,,,60,0
45900,set_tempo,60,1,0,,,,,,1071429,,,,,,,,
45900,note_on,0,0,11,,,,,,,,,10,,,,69,112
45900,note_on,30,0,11,,,,,,,,,10,,,,81,112
45901,note_on,0,0,1,,,,,,,,,0,,,,84,101
45901,note_on,5,0,5,,,,,,,,,4,,,,64,97
45901,note_on,30,0,1,,,,,,,,,0,,,,83,0
45901,note_on,0,0,1,,,,,,,,,0,,,,86,0
45901,note_on,0,0,1,,,,,,,,,0,,,,88,101
45902,note_on,30,0,3,,,,,,,,,2,,,,71,0
45902,note_on,0,0,3,,,,,,,,,2,,,,76,101
45902,note_on,30,0,2,,,,,,,,,1,,,,74,0
45902,note_on,0,0,2,,,,,,,,,1,,,,72,100
45902,note_on,0,0,2,,,,,,,,,1,,,,76,100
45902,note_on,0,0,12,,,,,,,,,11,,,,69,112
45902,note_on,30,0,12,,,,,,,,,11,,,,57,112
45902,note_on,0,0,3,,,,,,,,,2,,,,72,101
45902,note_on,0,0,3,,,,,,,,,2,,,,74,0
45902,note_on,0,0,2,,,,,,,,,1,,,,71,0
45903,note_on,5,0,6,,,,,,,,,5,,,,60,97
45904,note_on,15,0,8,,,,,,,,,7,,,,64,107
45904,note_on,0,0,8,,,,,,,,,7,,,,60,107
45905,note_on,23,0,13,,,,,,,,,12,,,,57,0
45905,note_on,0,0,13,,,,,,,,,12,,,,64,0
45905,note_on,0,0,13,,,,,,,,,12,,,,72,0
45906,note_on,15,0,9,,,,,,,,,8,,,,57,107
45907,note_on,23,0,14,,,,,,,,,13,,,,45,0
45907,note_on,0,0,4,,,,,,,,,3,,,,64,0
45907,note_on,60,0,4,,,,,,,,,3,,,,60,0
45909,note_on,23,0,15,,,,,,,,,14,,,,33,0
45930,note_on,0,0,11,,,,,,,,,10,,,,81,0
45930,note_on,30,0,11,,,,,,,,,10,,,,69,0
45931,note_on,30,0,1,,,,,,,,,0,,,,84,0
45931,note_on,0,0,1,,,,,,,,,0,,,,92,101
45931,note_on,0,0,1,,,,,,,,,0,,,,88,0
45931,note_on,0,0,1,,,,,,,,,0,,,,83,101
45932,note_on,0,0,2,,,,,,,,,1,,,,71,100
45932,note_on,30,0,12,,,,,,,,,11,,,,69,0
45932,note_on,0,0,12,,,,,,,,,11,,,,57,0
45932,note_on,0,0,3,,,,,,,,,2,,,,76,101
45932,note_on,0,0,3,,,,,,,,,2,,,,76,0
45932,note_on,0,0,2,,,,,,,,,1,,,,80,100
45932,note_on,0,0,2,,,,,,,,,1,,,,72,0
45932,note_on,30,0,3,,,,,,,,,2,,,,72,0
45932,note_on,0,0,3,,,,,,,,,2,,,,80,101
45932,note_on,30,0,2,,,,,,,,,1,,,,76,0
45934,note_on,30,0,8,,,,,,,,,7,,,,60,0
45934,note_on,0,0,8,,,,,,,,,7,,,,64,0
45936,note_on,30,0,9,,,,,,,,,8,,,,57,0
45941,note_on,40,0,5,,,,,,,,,4,,,,64,0
45943,note_on,40,0,6,,,,,,,,,5,,,,60,0
45946,note_on,5,0,5,,,,,,,,,4,,,,64,97
45948,note_on,5,0,6,,,,,,,,,5,,,,60,97
45956,note_on,10,0,5,,,,,,,,,4,,,,64,0
45958,note_on,10,0,6,,,,,,,,,5,,,,60,0
45960,set_tempo,60,1,0,,,,,,1142857,,,,,,,,
45961,note_on,0,0,1,,,,,,,,,0,,,,93,101
45961,note_on,0,0,1,,,,,,,,,0,,,,84,101
45961,note_on,30,0,1,,,,,,,,,0,,,,92,0
45961,note_on,5,0,5,,,,,,,,,4,,,,64,97
45961,note_on,0,0,1,,,,,,,,,0,,,,83,0
45962,note_on,0,0,2,,,,,,,,,1,,,,81,100
45962,note_on,0,0,2,,,,,,,,,1,,,,72,100
45962,note_on,0,0,2,,,,,,,,,1,,,,71,0
45962,note_on,30,0,2,,,,,,,,,1,,,,80,0
45962,note_on,0,0,3,,,,,,,,,2,,,,80,0
45962,note_on,0,0,3,,,,,,,,,2,,,,81,101
45962,note_on,0,0,3,,,,,,,,,2,,,,72,101
45962,note_on,30,0,3,,,,,,,,,2,,,,76,0
45963,note_on,5,0,6,,,,,,,,,5,,,,60,97
45965,note_on,60,0,13,,,,,,,,,12,,,,69,112
45967,note_on,60,0,14,,,,,,,,,13,,,,57,112
45969,note_on,60,0,15,,,,,,,,,14,,,,45,112
45991,note_on,0,0,1,,,,,,,,,0,,,,93,0
45991,note_on,30,0,1,,,,,,,,,0,,,,84,0
45992,note_on,30,0,3,,,,,,,,,2,,,,72,0
45992,note_on,0,0,3,,,,,,,,,2,,,,81,0
45992,note_on,0,0,2,,,,,,,,,1,,,,72,0
45992,note_on,30,0,2,,,,,,,,,1,,,,81,0
45999,note_on,34,0,13,,,,,,,,,12,,,,69,0
46001,note_on,34,0,14,,,,,,,,,13,,,,57,0
46003,note_on,34,0,15,,,,,,,,,14,,,,45,0
46010,note_on,11,0,13,,,,,,,,,12,,,,67,112
46012,note_on,11,0,14,,,,,,,,,13,,,,55,112
46014,note_on,11,0,15,,,,,,,,,14,,,,43,112
46020,set_tempo,60,1,0,,,,,,1071429,,,,,,,,
46021,note_on,11,0,13,,,,,,,,,12,,,,67,0
46021,note_on,30,0,1,,,,,,,,,0,,,,93,101
46021,note_on,0,0,1,,,,,,,,,0,,,,84,101
46022,note_on,0,0,3,,,,,,,,,2,,,,72,101
46022,note_on,0,0,2,,,,,,,,,1,,,,81,100
46022,note_on,30,0,3,,,,,,,,,2,,,,81,101
46022,note_on,30,0,2,,,,,,,,,1,,,,72,100
46023,note_on,11,0,14,,,,,,,,,13,,,,55,0
46025,note_on,4,0,13,,,,,,,,,12,,,,65,112
46025,note_on,11,0,15,,,,,,,,,14,,,,43,0
46027,note_on,4,0,14,,,,,,,,,13,,,,53,112
46029,note_on,4,0,15,,,,,,,,,14,,,,41,112
46051,note_on,30,0,1,,,,,,,,,0,,,,84,0
46051,note_on,0,0,1,,,,,,,,,0,,,,93,0
46052,note_on,0,0,2,,,,,,,,,1,,,,72,0
46052,note_on,30,0,2,,,,,,,,,1,,,,81,0
46052,note_on,0,0,3,,,,,,,,,2,,,,81,0
46052,note_on,30,0,3,,,,,,,,,2,,,,72,0
46059,note_on,34,0,13,,,,,,,,,12,,,,65,0
46061,note_on,34,0,14,,,,,,,,,13,,,,53,0
46063,note_on,34,0,15,,,,,,,,,14,,,,41,0
46070,note_on,11,0,13,,,,,,,,,12,,,,64,112
46072,note_on,11,0,14,,,,,,,,,13,,,,52,112
46074,note_on,11,0,15,,,,,,,,,14,,,,40,112
46076,note_on,115,0,5,,,,,,,,,4,,,,64,0
46078,note_on,115,0,6,,,,,,,,,5,,,,60,0
46080,control_change,150,0,11,,,,,,,,,10,11,102,,,
46080,note_on,0,0,11,,,,,,,,,10,,,,86,112
46080,note_on,0,0,11,,,,,,,,,10,,,,77,112
46080,note_on,0,0,11,,,,,,,,,10,,,,69,112
46080,set_tempo,60,1,0,,,,,,1132075,,,,,,,,
46081,note_on,0,0,1,,,,,,,,,0,,,,86,101
46081,note_on,5,0,5,,,,,,,,,4,,,,65,97
46081,control_change,30,0,1,,,,,,,,,0,11,91,,,
46081,note_on,0,0,1,,,,,,,,,0,,,,89,101
46081,note_on,11,0,13,,,,,,,,,12,,,,64,0
46082,control_change,150,0,12,,,,,,,,,11,11,102,,,
46082,control_change,0,0,2,,,,,,,,,1,11,91,,,
46082,note_on,30,0,2,,,,,,,,,1,,,,81,100
46082,note_on,0,0,3,,,,,,,,,2,,,,74,101
46082,note_on,0,0,3,,,,,,,,,2,,,,65,101
46082,control_change,30,0,3,,,,,,,,,2,11,91,,,
46082,note_on,0,0,12,,,,,,,,,11,,,,69,112
46082,note_on,0,0,12,,,,,,,,,11,,,,77,112
46082,note_on,0,0,2,,,,,,,,,1,,,,77,100
46082,note_on,0,0,12,,,,,,,,,11,,,,62,112
46083,note_on,11,0,14,,,,,,,,,13,,,,52,0
46083,note_on,5,0,6,,,,,,,,,5,,,,62,97
46084,control_change,150,0,8,,,,,,,,,7,11,102,,,
46084,note_on,0,0,8,,,,,,,,,7,,,,57,107
46084,note_on,0,0,8,,,,,,,,,7,,,,65,107
46085,note_on,4,0,13,,,,,,,,,12,,,,62,112
46085,note_on,11,0,15,,,,,,,,,14,,,,40,0
46085,control_change,0,0,13,,,,,,,,,12,11,102,,,
46086,note_on,0,0,9,,,,,,,,,8,,,,50,107
46086,control_change,150,0,9,,,,,,,,,8,11,102,,,
46087,note_on,0,0,4,,,,,,,,,3,,,,62,100
46087,control_change,7,0,11,,,,,,,,,10,11,99,,,
46087,note_on,180,0,4,,,,,,,,,3,,,,65,100
46087,control_change,4,0,14,,,,,,,,,13,11,102,,,
46087,note_on,0,0,14,,,,,,,,,13,,,,50,112
46088,note_on,300,0,10,,,,,,,,,15,,,,45,82
46088,control_change,7,0,1,,,,,,,,,0,11,88,,,
46089,control_change,7,0,2,,,,,,,,,1,11,88,,,
46089,control_change,7,0,12,,,,,,,,,11,11,99,,,
46089,control_change,7,0,3,,,,,,,,,2,11,88,,,
46089,control_change,4,0,15,,,,,,,,,14,11,102,,,
46089,note_on,0,0,15,,,,,,,,,14,,,,38,112
46091,control_change,7,0,8,,,,,,,,,7,11,99,,,
46092,control_change,7,0,13,,,,,,,,,12,11,99,,,
46093,control_change,7,0,9,,,,,,,,,8,11,99,,,
46094,control_change,7,0,14,,,,,,,,,13,11,99,,,
46095,control_change,8,0,11,,,,,,,,,10,11,96,,,
46096,control_change,7,0,15,,,,,,,,,14,11,99,,,
46097,control_change,8,0,12,,,,,,,,,11,11,96,,,
46099,control_change,8,0,8,,,,,,,,,7,11,96,,,
46100,control_change,8,0,13,,,,,,,,,12,11,96,,,
46101,control_change,8,0,9,,,,,,,,,8,11,96,,,
46102,control_change,8,0,14,,,,,,,,,13,11,96,,,
46102,control_change,7,0,11,,,,,,,,,10,11,93,,,
46103,control_change,15,0,1,,,,,,,,,0,11,84,,,
46104,control_change,7,0,12,,,,,,,,,11,11,93,,,
46104,control_change,8,0,15,,,,,,,,,14,11,96,,,
46104,control_change,15,0,2,,,,,,,,,1,11,84,,,
46104,control_change,15,0,3,,,,,,,,,2,11,84,,,
46106,control_change,7,0,8,,,,,,,,,7,11,93,,,
46107,control_change,7,0,13,,,,,,,,,12,11,93,,,
46108,control_change,7,0,9,,,,,,,,,8,11,93,,,
46109,control_change,7,0,14,,,,,,,,,13,11,93,,,
46110,control_change,8,0,11,,,,,,,,,10,11,90,,,
46111,control_change,7,0,15,,,,,,,,,14,11,93,,,
46111,control_change,8,0,1,,,,,,,,,0,11,81,,,
46112,control_change,8,0,12,,,,,,,,,11,11,90,,,
46112,control_change,8,0,2,,,,,,,,,1,11,81,,,
46112,note_on,0,0,7,,,,,,,,,6,,,,57,109
46112,note_on,275,0,7,,,,,,,,,6,,,,69,109
46112,control_change,8,0,3,,,,,,,,,2,11,81,,,
46114,note_on,8,0,8,,,,,,,,,7,,,,65,0
46114,note_on,0,0,8,,,,,,,,,7,,,,57,0
46114,control_change,0,0,8,,,,,,,,,7,11,90,,,
46115,control_change,0,0,13,,,,,,,,,12,11,90,,,
46115,note_on,8,0,13,,,,,,,,,12,,,,62,0
46116,control_change,0,0,9,,,,,,,,,8,11,90,,,
46116,note_on,8,0,9,,,,,,,,,8,,,,50,0
46117,control_change,7,0,11,,,,,,,,,10,11,87,,,
46117,note_on,8,0,14,,,,,,,,,13,,,,50,0
46117,control_change,0,0,14,,,,,,,,,13,11,90,,,
46119,control_change,7,0,12,,,,,,,,,11,11,87,,,
46119,note_on,8,0,15,,,,,,,,,14,,,,38,0
46119,control_change,0,0,15,,,,,,,,,14,11,90,,,
46121,control_change,7,0,8,,,,,,,,,7,11,87,,,
46121,note_on,40,0,5,,,,,,,,,4,,,,65,0
46122,control_change,7,0,13,,,,,,,,,12,11,87,,,
46122,note_on,10,0,7,,,,,,,,,6,,,,57,0
46122,note_on,0,0,7,,,,,,,,,6,,,,69,0
46123,control_change,7,0,9,,,,,,,,,8,11,87,,,
46123,note_on,40,0,6,,,,,,,,,5,,,,62,0
46124,control_change,7,0,14,,,,,,,,,13,11,87,,,
46126,control_change,7,0,15,,,,,,,,,14,11,87,,,
46126,control_change,15,0,1,,,,,,,,,0,11,77,,,
46126,note_on,5,0,5,,,,,,,,,4,,,,64,97
46127,control_change,15,0,3,,,,,,,,,2,11,77,,,
46127,note_on,0,0,7,,,,,,,,,6,,,,69,109
46127,control_change,15,0,2,,,,,,,,,1,11,77,,,
46127,note_on,5,0,7,,,,,,,,,6,,,,57,109
46128,note_on,5,0,6,,,,,,,,,5,,,,64,97
46129,control_change,8,0,8,,,,,,,,,7,11,84,,,
46131,control_change,8,0,9,,,,,,,,,8,11,84,,,
46132,note_on,0,0,4,,,,,,,,,3,,,,64,100
46132,note_on,0,0,4,,,,,,,,,3,,,,61,100
46132,note_on,0,0,4,,,,,,,,,3,,,,65,0
46132,note_on,45,0,4,,,,,,,,,3,,,,62,0
46134,note_on,17,0,11,,,,,,,,,10,,,,69,0
46134,note_on,0,0,11,,,,,,,,,10,,,,86,0
46134,note_on,0,0,11,,,,,,,,,10,,,,77,0
46135,note_on,9,0,1,,,,,,,,,0,,,,86,0
46135,note_on,0,0,1,,,,,,,,,0,,,,89,0
46136,note_on,9,0,2,,,,,,,,,1,,,,77,0
46136,note_on,0,0,2,,,,,,,,,1,,,,81,0
46136,note_on,9,0,3,,,,,,,,,2,,,,74,0
46136,note_on,17,0,12,,,,,,,,,11,,,,62,0
46136,note_on,0,0,12,,,,,,,,,11,,,,69,0
46136,note_on,0,0,12,,,,,,,,,11,,,,77,0
46136,note_on,0,0,3,,,,,,,,,2,,,,65,0
46136,note_on,10,0,5,,,,,,,,,4,,,,64,0
46137,note_on,10,0,7,,,,,,,,,6,,,,69,0
46137,note_on,0,0,7,,,,,,,,,6,,,,57,0
46138,note_on,10,0,6,,,,,,,,,5,,,,64,0
46140,set_tempo,60,1,0,,,,,,1071429,,,,,,,,
46141,note_on,5,0,5,,,,,,,,,4,,,,65,97
46142,note_on,0,0,7,,,,,,,,,6,,,,57,109
46142,note_on,5,0,7,,,,,,,,,6,,,,69,109
46143,note_on,5,0,6,,,,,,,,,5,,,,62,97
46144,note_on,15,0,8,,,,,,,,,7,,,,57,107
46144,note_on,0,0,8,,,,,,,,,7,,,,65,107
46145,note_on,23,0,13,,,,,,,,,12,,,,62,112
46146,note_on,15,0,9,,,,,,,,,8,,,,50,107
46147,note_on,0,0,4,,,,,,,,,3,,,,65,100
46147,note_on,0,0,4,,,,,,,,,3,,,,61,0
46147,note_on,0,0,4,,,,,,,,,3,,,,62,100
46147,note_on,23,0,14,,,,,,,,,13,,,,50,112
46147,note_on,15,0,4,,,,,,,,,3,,,,64,0
46148,note_on,60,0,10,,,,,,,,,15,,,,45,0
46149,note_on,23,0,15,,,,,,,,,14,,,,38,112
46174,note_on,0,0,8,,,,,,,,,7,,,,57,0
46174,note_on,30,0,8,,,,,,,,,7,,,,65,0
46175,note_on,30,0,13,,,,,,,,,12,,,,62,0
46176,note_on,30,0,9,,,,,,,,,8,,,,50,0
46177,note_on,30,0,14,,,,,,,,,13,,,,50,0
46179,note_on,30,0,15,,,,,,,,,14,,,,38,0
46181,note_on,40,0,5,,,,,,,,,4,,,,65,0
46182,note_on,0,0,7,,,,,,,,,6,,,,69,0
46182,note_on,40,0,7,,,,,,,,,6,,,,57,0
46183,note_on,40,0,6,,,,,,,,,5,,,,62,0
46186,note_on,5,0,5,,,,,,,,,4,,,,67,97
46187,note_on,0,0,7,,,,,,,,,6,,,,57,109
46187,note_on,5,0,7,,,,,,,,,6,,,,69,109
46188,note_on,5,0,6,,,,,,,,,5,,,,64,97
46192,note_on,0,0,4,,,,,,,,,3,,,,65,0
46192,note_on,45,0,4,,,,,,,,,3,,,,62,0
46192,note_on,0,0,4,,,,,,,,,3,,,,64,100
46192,note_on,0,0,4,,,,,,,,,3,,,,67,100
46196,note_on,10,0,5,,,,,,,,,4,,,,67,0
46197,note_on,0,0,7,,,,,,,,,6,,,,69,0
46197,note_on,10,0,7,,,,,,,,,6,,,,57,0
46198,note_on,10,0,6,,,,,,,,,5,,,,64,0
46200,note_on,66,0,11,,,,,,,,,10,,,,74,112
46200,set_tempo,60,1,0,,,,,,1142857,,,,,,,,
46201,note_on,5,0,5,,,,,,,,,4,,,,65,97
46202,note_on,0,0,7,,,,,,,,,6,,,,57,109
46202,note_on,5,0,7,,,,,,,,,6,,,,69,109
46202,note_on,66,0,12,,,,,,,,,11,,,,62,112
46203,note_on,5,0,6,,,,,,,,,5,,,,62,97
46207,note_on,0,0,4,,,,,,,,,3,,,,62,100
46207,note_on,0,0,4,,,,,,,,,3,,,,65,100
46207,note_on,15,0,4,,,,,,,,,3,,,,64,0
46207,note_on,0,0,4,,,,,,,,,3,,,,67,0
46208,note_on,60,0,10,,,,,,,,,15,,,,45,82
46231,note_on,30,0,5,,,,,,,,,4,,,,65,0
46233,note_on,30,0,6,,,,,,,,,5,,,,62,0
46234,note_on,34,0,11,,,,,,,,,10,,,,74,0
46236,note_on,34,0,12,,,,,,,,,11,,,,62,0
46245,note_on,11,0,11,,,,,,,,,10,,,,76,112
46247,note_on,11,0,12,,,,,,,,,11,,,,64,112
46252,note_on,45,0,4,,,,,,,,,3,,,,62,0
46252,note_on,0,0,4,,,,,,,,,3,,,,65,0
46256,note_on,11,0,11,,,,,,,,,10,,,,76,0
46258,note_on,11,0,12,,,,,,,,,11,,,,64,0
46260,note_on,4,0,11,,,,,,,,,10,,,,77,112
46260,set_tempo,60,1,0,,,,,,1071429,,,,,,,,
46261,note_on,30,0,5,,,,,,,,,4,,,,65,97
46262,note_on,4,0,12,,,,,,,,,11,,,,65,112
46263,note_on,30,0,6,,,,,,,,,5,,,,62,97
46267,note_on,0,0,4,,,,,,,,,3,,,,62,100
46267,note_on,15,0,4,,,,,,,,,3,,,,65,100
46268,note_on,60,0,10,,,,,,,,,15,,,,45,0
46291,note_on,30,0,5,,,,,,,,,4,,,,65,0
46293,note_on,30,0,6,,,,,,,,,5,,,,62,0
46294,note_on,34,0,11,,,,,,,,,10,,,,77,0
46296,note_on,34,0,12,,,,,,,,,11,,,,65,0
46305,note_on,11,0,11,,,,,,,,,10,,,,79,112
46307,note_on,11,0,12,,,,,,,,,11,,,,67,112
46312,note_on,45,0,4,,,,,,,,,3,,,,62,0
46312,note_on,0,0,4,,,,,,,,,3,,,,65,0
46316,note_on,11,0,11,,,,,,,,,10,,,,79,0
46317,note_on,115,0,7,,,,,,,,,6,,,,57,0
46317,note_on,0,0,7,,,,,,,,,6,,,,69,0
46318,note_on,11,0,12,,,,,,,,,11,,,,67,0
46320,note_on,0,0,11,,,,,,,,,10,,,,81,112
46320,note_on,0,0,11,,,,,,,,,10,,,,69,112
46320,control_change,4,0,11,,,,,,,,,10,11,102,,,
46320,set_tempo,60,1,0,,,,,,1132075,,,,,,,,
46321,note_on,0,0,1,,,,,,,,,0,,,,81,101
46321,note_on,186,0,1,,,,,,,,,0,,,,84,101
46322,note_on,186,0,2,,,,,,,,,1,,,,72,100
46322,note_on,0,0,12,,,,,,,,,11,,,,57,112
46322,note_on,0,0,2,,,,,,,,,1,,,,69,100
46322,note_on,0,0,3,,,,,,,,,2,,,,69,101
46322,note_on,186,0,3,,,,,,,,,2,,,,72,101
46322,note_on,0,0,12,,,,,,,,,11,,,,69,112
46322,control_change,4,0,12,,,,,,,,,11,11,102,,,
46324,note_on,0,0,8,,,,,,,,,7,,,,60,107
46324,note_on,0,0,8,,,,,,,,,7,,,,64,107
46324,control_change,150,0,8,,,,,,,,,7,11,102,,,
46325,note_on,150,0,13,,,,,,,,,12,,,,64,112
46325,control_change,0,0,13,,,,,,,,,12,11,102,,,
46325,note_on,0,0,13,,,,,,,,,12,,,,72,112
46325,note_on,0,0,13,,,,,,,,,12,,,,57,112
46326,note_on,0,0,9,,,,,,,,,8,,,,57,107
46326,control_change,150,0,9,,,,,,,,,8,11,102,,,
46327,note_on,0,0,4,,,,,,,,,3,,,,60,100
46327,control_change,7,0,11,,,,,,,,,10,11,99,,,
46327,control_change,150,0,14,,,,,,,,,13,11,102,,,
46327,note_on,15,0,4,,,,,,,,,3,,,,64,100
46327,note_on,0,0,14,,,,,,,,,13,,,,45,112
46329,note_on,0,0,15,,,,,,,,,14,,,,33,112
46329,control_change,150,0,15,,,,,,,,,14,11,102,,,
46329,control_change,7,0,12,,,,,,,,,11,11,99,,,
46331,control_change,7,0,8,,,,,,,,,7,11,99,,,
46332,control_change,7,0,13,,,,,,,,,12,11,99,,,
46333,control_change,7,0,9,,,,,,,,,8,11,99,,,
46334,control_change,7,0,14,,,,,,,,,13,11,99,,,
46335,control_change,8,0,11,,,,,,,,,10,11,96,,,
46336,control_change,7,0,15,,,,,,,,,14,11,99,,,
46337,control_change,8,0,12,,,,,,,,,11,11,96,,,
46339,control_change,8,0,8,,,,,,,,,7,11,96,,,
46340,control_change,8,0,13,,,,,,,,,12,11,96,,,
46341,control_change,8,0,9,,,,,,,,,8,11,96,,,
46342,control_change,7,0,11,,,,,,,,,10,11,93,,,
46342,control_change,8,0,14,,,,,,,,,13,11,96,,,
46344,control_change,7,0,12,,,,,,,,,11,11,93,,,
46344,control_change,8,0,15,,,,,,,,,14,11,96,,,
46346,control_change,7,0,8,,,,,,,,,7,11,93,,,
46347,control_change,7,0,13,,,,,,,,,12,11,93,,,
46348,control_change,7,0,9,,,,,,,,,8,11,93,,,
46349,control_change,7,0,14,,,,,,,,,13,11,93,,,
46350,note_on,0,0,11,,,,,,,,,10,,,,81,0
46350,control_change,0,0,11,,,,,,,,,10,11,90,,,
46350,note_on,8,0,11,,,,,,,,,10,,,,69,0
46351,note_on,0,0,1,,,,,,,,,0,,,,84,0
46351,note_on,60,0,5,,,,,,,,,4,,,,64,97
46351,note_on,0,0,1,,,,,,,,,0,,,,83,101
46351,note_on,30,0,1,,,,,,,,,0,,,,81,0
46351,control_change,7,0,15,,,,,,,,,14,11,93,,,
46351,note_on,0,0,1,,,,,,,,,0,,,,86,101
46352,note_on,30,0,3,,,,,,,,,2,,,,69,0
46352,note_on,30,0,2,,,,,,,,,1,,,,69,0
46352,note_on,0,0,3,,,,,,,,,2,,,,72,0
46352,note_on,0,0,3,,,,,,,,,2,,,,71,101
46352,note_on,0,0,2,,,,,,,,,1,,,,74,100
46352,note_on,0,0,2,,,,,,,,,1,,,,71,100
46352,note_on,8,0,12,,,,,,,,,11,,,,69,0
46352,note_on,0,0,12,,,,,,,,,11,,,,57,0
46352,control_change,0,0,12,,,,,,,,,11,11,90,,,
46352,note_on,0,0,3,,,,,,,,,2,,,,74,101
46352,note_on,0,0,2,,,,,,,,,1,,,,72,0
46353,note_on,60,0,6,,,,,,,,,5,,,,60,97
46354,control_change,0,0,8,,,,,,,,,7,11,90,,,
46354,note_on,0,0,8,,,,,,,,,7,,,,64,0
46354,note_on,8,0,8,,,,,,,,,7,,,,60,0
46355,control_change,8,0,13,,,,,,,,,12,11,90,,,
46356,control_change,0,0,9,,,,,,,,,8,11,90,,,
46356,note_on,8,0,9,,,,,,,,,8,,,,57,0
46357,control_change,8,0,14,,,,,,,,,13,11,90,,,
46357,control_change,7,0,11,,,,,,,,,10,11,87,,,
46359,control_change,8,0,15,,,,,,,,,14,11,90,,,
46359,control_change,7,0,12,,,,,,,,,11,11,87,,,
46361,control_change,7,0,8,,,,,,,,,7,11,87,,,
46361,note_on,10,0,5,,,,,,,,,4,,,,64,0
46362,control_change,7,0,13,,,,,,,,,12,11,87,,,
46363,note_on,10,0,6,,,,,,,,,5,,,,60,0
46363,control_change,7,0,9,,,,,,,,,8,11,87,,,
46364,control_change,7,0,14,,,,,,,,,13,11,87,,,
46366,control_change,7,0,15,,,,,,,,,14,11,87,,,
46366,note_on,5,0,5,,,,,,,,,4,,,,64,97
46368,note_on,5,0,6,,,,,,,,,5,,,,60,97
46369,control_change,8,0,8,,,,,,,,,7,11,84,,,
46371,control_change,8,0,9,,,,,,,,,8,11,84,,,
46376,note_on,10,0,5,,,,,,,,,4,,,,64,0
46378,note_on,10,0,6,,,,,,,,,5,,,,60,0
46380,set_tempo,60,1,0,,,,,,1071429,,,,,,,,
46380,note_on,0,0,11,,,,,,,,,10,,,,69,112
46380,note_on,23,0,11,,,,,,,,,10,,,,81,112
46381,note_on,0,0,1,,,,,,,,,0,,,,84,101
46381,note_on,0,0,1,,,,,,,,,0,,,,86,0
46381,note_on,30,0,1,,,,,,,,,0,,,,83,0
46381,note_on,5,0,5,,,,,,,,,4,,,,64,97
46381,note_on,0,0,1,,,,,,,,,0,,,,88,101
46382,note_on,30,0,2,,,,,,,,,1,,,,71,0
46382,note_on,0,0,2,,,,,,,,,1,,,,72,100
46382,note_on,0,0,2,,,,,,,,,1,,,,76,100
46382,note_on,0,0,2,,,,,,,,,1,,,,74,0
46382,note_on,0,0,3,,,,,,,,,2,,,,76,101
46382,note_on,0,0,3,,,,,,,,,2,,,,72,101
46382,note_on,0,0,3,,,,,,,,,2,,,,74,0
46382,note_on,30,0,3,,,,,,,,,2,,,,71,0
46382,note_on,23,0,12,,,,,,,,,11,,,,57,112
46382,note_on,0,0,12,,,,,,,,,11,,,,69,112
46383,note_on,5,0,6,,,,,,,,,5,,,,60,97
46384,note_on,15,0,8,,,,,,,,,7,,,,60,107
46384,note_on,0,0,8,,,,,,,,,7,,,,64,107
46385,note_on,0,0,13,,,,,,,,,12,,,,57,0
46385,note_on,0,0,13,,,,,,,,,12,,,,64,0
46385,note_on,23,0,13,,,,,,,,,12,,,,72,0
46386,note_on,15,0,9,,,,,,,,,8,,,,57,107
46387,note_on,0,0,4,,,,,,,,,3,,,,64,0
46387,note_on,60,0,4,,,,,,,,,3,,,,60,0
46387,note_on,23,0,14,,,,,,,,,13,,,,45,0
46389,note_on,23,0,15,,,,,,,,,14,,,,33,0
46410,note_on,0,0,11,,,,,,,,,10,,,,81,0
46410,note_on,30,0,11,,,,,,,,,10,,,,69,0
46411,note_on,0,0,1,,,,,,,,,0,,,,88,0
46411,note_on,30,0,1,,,,,,,,,0,,,,84,0
46411,note_on,0,0,1,,,,,,,,,0,,,,92,101
46411,note_on,0,0,1,,,,,,,,,0,,,,83,101
46412,note_on,0,0,3,,,,,,,,,2,,,,72,0
46412,note_on,30,0,12,,,,,,,,,11,,,,69,0
46412,note_on,30,0,2,,,,,,,,,1,,,,72,0
46412,note_on,0,0,12,,,,,,,,,11,,,,57,0
46412,note_on,0,0,2,,,,,,,,,1,,,,76,0
46412,note_on,0,0,2,,,,,,,,,1,,,,80,100
46412,note_on,0,0,3,,,,,,,,,2,,,,80,101
46412,note_on,30,0,3,,,,,,,,,2,,,,76,0
46412,note_on,0,0,2,,,,,,,,,1,,,,71,100
46412,note_on,0,0,3,,,,,,,,,2,,,,76,101
46414,note_on,30,0,8,,,,,,,,,7,,,,64,0
46414,note_on,0,0,8,,,,,,,,,7,,,,60,0
46416,note_on,30,0,9,,,,,,,,,8,,,,57,0
46421,note_on,40,0,5,,,,,,,,,4,,,,64,0
46423,note_on,40,0,6,,,,,,,,,5,,,,60,0
46426,note_on,5,0,5,,,,,,,,,4,,,,64,97
46428,note_on,5,0,6,,,,,,,,,5,,,,60,97
46436,note_on,10,0,5,,,,,,,,,4,,,,64,0
46438,note_on,10,0,6,,,,,,,,,5,,,,60,0
46440,set_tempo,60,1,0,,,,,,1142857,,,,,,,,
46440,note_on,30,0,11,,,,,,,,,10,,,,81,112
46441,note_on,0,0,1,,,,,,,,,0,,,,83,0
46441,note_on,5,0,5,,,,,,,,,4,,,,64,97
46441,note_on,0,0,1,,,,,,,,,0,,,,93,101
46441,note_on,0,0,1,,,,,,,,,0,,,,84,101
46441,note_on,30,0,1,,,,,,,,,0,,,,92,0
46442,note_on,0,0,2,,,,,,,,,1,,,,72,100
46442,note_on,0,0,3,,,,,,,,,2,,,,80,0
46442,note_on,0,0,2,,,,,,,,,1,,,,81,100
46442,note_on,0,0,2,,,,,,,,,1,,,,80,0
46442,note_on,30,0,2,,,,,,,,,1,,,,71,0
46442,note_on,30,0,3,,,,,,,,,2,,,,76,0
46442,note_on,30,0,12,,,,,,,,,11,,,,69,112
46442,note_on,0,0,3,,,,,,,,,2,,,,72,101
46442,note_on,0,0,3,,,,,,,,,2,,,,81,101
46443,note_on,5,0,6,,,,,,,,,5,,,,60,97
46445,note_on,60,0,13,,,,,,,,,12,,,,57,112
46447,note_on,60,0,4,,,,,,,,,3,,,,45,100
46447,note_on,0,0,4,,,,,,,,,3,,,,57,100
46447,note_on,60,0,14,,,,,,,,,13,,,,57,112
46449,note_on,60,0,15,,,,,,,,,14,,,,45,112
46467,note_on,27,0,11,,,,,,,,,10,,,,81,0
46469,note_on,27,0,12,,,,,,,,,11,,,,69,0
46472,note_on,27,0,13,,,,,,,,,12,,,,57,0
46474,note_on,27,0,14,,,,,,,,,13,,,,57,0
46475,note_on,34,0,1,,,,,,,,,0,,,,84,0
46475,note_on,0,0,1,,,,,,,,,0,,,,93,0
46476,note_on,34,0,3,,,,,,,,,2,,,,72,0
46476,note_on,34,0,2,,,,,,,,,1,,,,72,0
46476,note_on,27,0,15,,,,,,,,,14,,,,45,0
46476,note_on,0,0,2,,,,,,,,,1,,,,81,0
46476,note_on,0,0,3,,,,,,,,,2,,,,81,0
46481,note_on,34,0,4,,,,,,,,,3,,,,57,0
46481,note_on,40,0,5,,,,,,,,,4,,,,64,0
46481,note_on,0,0,4,,,,,,,,,3,,,,45,0
46483,note_on,40,0,6,,,,,,,,,5,,,,60,0
46485,note_on,18,0,11,,,,,,,,,10,,,,83,112
46486,note_on,11,0,1,,,,,,,,,0,,,,83,101
46486,note_on,5,0,5,,,,,,,,,4,,,,62,97
46487,note_on,0,0,3,,,,,,,,,2,,,,71,101
46487,note_on,18,0,12,,,,,,,,,11,,,,71,112
46487,note_on,11,0,3,,,,,,,,,2,,,,59,101
46487,note_on,11,0,2,,,,,,,,,1,,,,71,100
46488,note_on,5,0,6,,,,,,,,,5,,,,62,97
46490,note_on,18,0,13,,,,,,,,,12,,,,59,112
46492,note_on,18,0,14,,,,,,,,,13,,,,59,112
46492,note_on,0,0,4,,,,,,,,,3,,,,47,100
46492,note_on,11,0,4,,,,,,,,,3,,,,59,100
46494,note_on,9,0,11,,,,,,,,,10,,,,83,0
46494,note_on,18,0,15,,,,,,,,,14,,,,47,112
46496,note_on,10,0,5,,,,,,,,,4,,,,62,0
46496,note_on,9,0,12,,,,,,,,,11,,,,71,0
46497,note_on,11,0,1,,,,,,,,,0,,,,83,0
46498,note_on,0,0,3,,,,,,,,,2,,,,59,0
46498,note_on,11,0,2,,,,,,,,,1,,,,71,0
46498,note_on,11,0,3,,,,,,,,,2,,,,71,0
46498,note_on,10,0,6,,,,,,,,,5,,,,62,0
46499,note_on,9,0,13,,,,,,,,,12,,,,59,0
46500,set_tempo,60,1,0,,,,,,1071429,,,,,,,,
46500,note_on,6,0,11,,,,,,,,,10,,,,84,112
46501,note_on,9,0,14,,,,,,,,,13,,,,59,0
46501,note_on,5,0,5,,,,,,,,,4,,,,60,97
46501,note_on,4,0,1,,,,,,,,,0,,,,84,101
46502,note_on,6,0,12,,,,,,,,,11,,,,72,112
46502,note_on,0,0,3,,,,,,,,,2,,,,72,101
46502,note_on,4,0,3,,,,,,,,,2,,,,60,101
46502,note_on,4,0,2,,,,,,,,,1,,,,72,100
46503,note_on,5,0,6,,,,,,,,,5,,,,60,97
46503,note_on,0,0,4,,,,,,,,,3,,,,59,0
46503,note_on,11,0,4,,,,,,,,,3,,,,47,0
46503,note_on,9,0,15,,,,,,,,,14,,,,47,0
46505,note_on,6,0,13,,,,,,,,,12,,,,60,112
46507,note_on,0,0,4,,,,,,,,,3,,,,60,100
46507,note_on,4,0,4,,,,,,,,,3,,,,48,100
46507,note_on,6,0,14,,,,,,,,,13,,,,60,112
46509,note_on,6,0,15,,,,,,,,,14,,,,48,112
46527,note_on,27,0,11,,,,,,,,,10,,,,84,0
46529,note_on,27,0,12,,,,,,,,,11,,,,72,0
46532,note_on,27,0,13,,,,,,,,,12,,,,60,0
46534,note_on,27,0,14,,,,,,,,,13,,,,60,0
46535,note_on,34,0,1,,,,,,,,,0,,,,84,0
46536,note_on,34,0,2,,,,,,,,,1,,,,72,0
46536,note_on,27,0,15,,,,,,,,,14,,,,48,0
46536,note_on,34,0,3,,,,,,,,,2,,,,72,0
46536,note_on,0,0,3,,,,,,,,,2,,,,60,0
46541,note_on,40,0,5,,,,,,,,,4,,,,60,0
46541,note_on,34,0,4,,,,,,,,,3,,,,60,0
46541,note_on,0,0,4,,,,,,,,,3,,,,48,0
46543,note_on,40,0,6,,,,,,,,,5,,,,60,0
46545,note_on,18,0,11,,,,,,,,,10,,,,86,112
46546,note_on,11,0,1,,,,,,,,,0,,,,86,101
46546,note_on,5,0,5,,,,,,,,,4,,,,62,97
46547,note_on,11,0,2,,,,,,,,,1,,,,74,100
46547,note_on,18,0,12,,,,,,,,,11,,,,74,112
46547,note_on,11,0,3,,,,,,,,,2,,,,62,101
46547,note_on,0,0,3,,,,,,,,,2,,,,74,101
46548,note_on,5,0,6,,,,,,,,,5,,,,62,97
46550,note_on,18,0,13,,,,,,,,,12,,,,62,112
46552,note_on,18,0,14,,,,,,,,,13,,,,62,112
46552,note_on,0,0,4,,,,,,,,,3,,,,50,100
46552,note_on,11,0,4,,,,,,,,,3,,,,62,100
46554,note_on,18,0,15,,,,,,,,,14,,,,50,112
46554,note_on,9,0,11,,,,,,,,,10,,,,86,0
46556,note_on,9,0,12,,,,,,,,,11,,,,74,0
46556,note_on,10,0,5,,,,,,,,,4,,,,62,0
46557,note_on,11,0,1,,,,,,,,,0,,,,86,0
46558,note_on,0,0,3,,,,,,,,,2,,,,62,0
46558,note_on,11,0,2,,,,,,,,,1,,,,74,0
46558,note_on,11,0,3,,,,,,,,,2,,,,74,0
46558,note_on,10,0,6,,,,,,,,,5,,,,62,0
46559,note_on,9,0,13,,,,,,,,,12,,,,62,0
46560,note_on,6,0,11,,,,,,,,,10,,,,88,112
46560,set_tempo,60,1,0,,,,,,1121495,,,,,,,,
46561,note_on,4,0,1,,,,,,,,,0,,,,88,101
46561,note_on,5,0,5,,,,,,,,,4,,,,64,97
46561,note_on,9,0,14,,,,,,,,,13,,,,62,0
46562,note_on,4,0,2,,,,,,,,,1,,,,76,100
46562,note_on,4,0,3,,,,,,,,,2,,,,64,101
46562,note_on,6,0,12,,,,,,,,,11,,,,76,112
46562,note_on,0,0,3,,,,,,,,,2,,,,76,101
46563,note_on,9,0,15,,,,,,,,,14,,,,50,0
46563,note_on,0,0,4,,,,,,,,,3,,,,62,0
46563,note_on,11,0,4,,,,,,,,,3,,,,50,0
46563,note_on,5,0,6,,,,,,,,,5,,,,64,97
46565,note_on,6,0,13,,,,,,,,,12,,,,64,112
46567,note_on,4,0,4,,,,,,,,,3,,,,52,100
46567,note_on,0,0,4,,,,,,,,,3,,,,64,100
46567,note_on,6,0,14,,,,,,,,,13,,,,64,112
46568,note_on,300,0,10,,,,,,,,,15,,,,52,82
46569,note_on,6,0,15,,,,,,,,,14,,,,52,112
46587,note_on,27,0,11,,,,,,,,,10,,,,88,0
46589,note_on,27,0,12,,,,,,,,,11,,,,76,0
46592,note_on,27,0,13,,,,,,,,,12,,,,64,0
46594,note_on,27,0,14,,,,,,,,,13,,,,64,0
46595,note_on,34,0,1,,,,,,,,,0,,,,88,0
46596,note_on,0,0,3,,,,,,,,,2,,,,64,0
46596,note_on,34,0,3,,,,,,,,,2,,,,76,0
46596,note_on,27,0,15,,,,,,,,,14,,,,52,0
46596,note_on,34,0,2,,,,,,,,,1,,,,76,0
46601,note_on,40,0,5,,,,,,,,,4,,,,64,0
46601,note_on,0,0,4,,,,,,,,,3,,,,52,0
46601,note_on,34,0,4,,,,,,,,,3,,,,64,0
46603,note_on,40,0,6,,,,,,,,,5,,,,64,0
46605,note_on,18,0,11,,,,,,,,,10,,,,86,112
46606,note_on,5,0,5,,,,,,,,,4,,,,62,97
46606,note_on,11,0,1,,,,,,,,,0,,,,86,101
46607,note_on,11,0,3,,,,,,,,,2,,,,62,101
46607,note_on,18,0,12,,,,,,,,,11,,,,74,112
46607,note_on,11,0,2,,,,,,,,,1,,,,74,100
46607,note_on,0,0,3,,,,,,,,,2,,,,74,101
46608,note_on,5,0,6,,,,,,,,,5,,,,62,97
46610,note_on,18,0,13,,,,,,,,,12,,,,62,112
46612,note_on,0,0,4,,,,,,,,,3,,,,62,100
46612,note_on,11,0,4,,,,,,,,,3,,,,50,100
46612,note_on,18,0,14,,,,,,,,,13,,,,62,112
46613,note_on,7,0,1,,,,,,,,,0,,,,86,0
46614,note_on,0,0,3,,,,,,,,,2,,,,62,0
46614,note_on,7,0,3,,,,,,,,,2,,,,74,0
46614,note_on,18,0,15,,,,,,,,,14,,,,50,112
46614,note_on,9,0,11,,,,,,,,,10,,,,86,0
46614,note_on,7,0,2,,,,,,,,,1,,,,74,0
46616,note_on,9,0,12,,,,,,,,,11,,,,74,0
46616,note_on,10,0,5,,,,,,,,,4,,,,62,0
46618,note_on,10,0,6,,,,,,,,,5,,,,62,0
46619,note_on,9,0,13,,,,,,,,,12,,,,62,0
46619,note_on,0,0,4,,,,,,,,,3,,,,50,0
46619,note_on,7,0,4,,,,,,,,,3,,,,62,0
46620,note_on,6,0,11,,,,,,,,,10,,,,84,112
46620,set_tempo,60,1,0,,,,,,1043478,,,,,,,,
46621,note_on,5,0,5,,,,,,,,,4,,,,60,97
46621,note_on,8,0,1,,,,,,,,,0,,,,84,101
46621,note_on,9,0,14,,,,,,,,,13,,,,62,0
46622,note_on,8,0,2,,,,,,,,,1,,,,72,100
46622,note_on,6,0,12,,,,,,,,,11,,,,72,112
46622,note_on,0,0,3,,,,,,,,,2,,,,72,101
46622,note_on,8,0,3,,,,,,,,,2,,,,60,101
46623,note_on,5,0,6,,,,,,,,,5,,,,60,97
46623,note_on,9,0,15,,,,,,,,,14,,,,50,0
46625,note_on,6,0,13,,,,,,,,,12,,,,60,112
46627,note_on,6,0,14,,,,,,,,,13,,,,60,112
46627,note_on,8,0,4,,,,,,,,,3,,,,48,100
46627,note_on,0,0,4,,,,,,,,,3,,,,60,100
46628,note_on,60,0,10,,,,,,,,,15,,,,52,0
46629,note_on,6,0,15,,,,,,,,,14,,,,48,112
46647,note_on,27,0,11,,,,,,,,,10,,,,84,0
46649,note_on,27,0,12,,,,,,,,,11,,,,72,0
46652,note_on,27,0,13,,,,,,,,,12,,,,60,0
46654,note_on,27,0,14,,,,,,,,,13,,,,60,0
46655,note_on,34,0,1,,,,,,,,,0,,,,84,0
46656,note_on,0,0,3,,,,,,,,,2,,,,60,0
46656,note_on,34,0,3,,,,,,,,,2,,,,72,0
46656,note_on,34,0,2,,,,,,,,,1,,,,72,0
46656,note_on,27,0,15,,,,,,,,,14,,,,48,0
46661,note_on,0,0,4,,,,,,,,,3,,,,48,0
46661,note_on,34,0,4,,,,,,,,,3,,,,60,0
46661,note_on,40,0,5,,,,,,,,,4,,,,60,0
46663,note_on,40,0,6,,,,,,,,,5,,,,60,0
46665,note_on,18,0,11,,,,,,,,,10,,,,86,112
46666,note_on,11,0,1,,,,,,,,,0,,,,86,101
46666,note_on,5,0,5,,,,,,,,,4,,,,62,97
46667,note_on,11,0,3,,,,,,,,,2,,,,62,101
46667,note_on,0,0,3,,,,,,,,,2,,,,74,101
46667,note_on,11,0,2,,,,,,,,,1,,,,74,100
46667,note_on,18,0,12,,,,,,,,,11,,,,74,112
46668,note_on,5,0,6,,,,,,,,,5,,,,62,97
46670,note_on,18,0,13,,,,,,,,,12,,,,62,112
46672,note_on,11,0,4,,,,,,,,,3,,,,50,100
46672,note_on,0,0,4,,,,,,,,,3,,,,62,100
46672,note_on,18,0,14,,,,,,,,,13,,,,62,112
46673,note_on,7,0,1,,,,,,,,,0,,,,86,0
46674,note_on,18,0,15,,,,,,,,,14,,,,50,112
46674,note_on,7,0,2,,,,,,,,,1,,,,74,0
46674,note_on,9,0,11,,,,,,,,,10,,,,86,0
46674,note_on,0,0,3,,,,,,,,,2,,,,62,0
46674,note_on,7,0,3,,,,,,,,,2,,,,74,0
46676,note_on,10,0,5,,,,,,,,,4,,,,62,0
46676,note_on,9,0,12,,,,,,,,,11,,,,74,0
46678,note_on,10,0,6,,,,,,,,,5,,,,62,0
46679,note_on,7,0,4,,,,,,,,,3,,,,62,0
46679,note_on,0,0,4,,,,,,,,,3,,,,50,0
46679,note_on,9,0,13,,,,,,,,,12,,,,62,0
46680,set_tempo,60,1,0,,,,,,1100917,,,,,,,,
46680,note_on,6,0,11,,,,,,,,,10,,,,88,112
46681,note_on,8,0,1,,,,,,,,,0,,,,88,101
46681,note_on,5,0,5,,,,,,,,,4,,,,64,97
46681,note_on,9,0,14,,,,,,,,,13,,,,62,0
46682,note_on,8,0,3,,,,,,,,,2,,,,64,101
46682,note_on,0,0,3,,,,,,,,,2,,,,76,101
46682,note_on,6,0,12,,,,,,,,,11,,,,76,112
46682,note_on,8,0,2,,,,,,,,,1,,,,76,100
46683,note_on,5,0,6,,,,,,,,,5,,,,64,97
46683,note_on,9,0,15,,,,,,,,,14,,,,50,0
46685,note_on,6,0,13,,,,,,,,,12,,,,64,112
46687,note_on,8,0,4,,,,,,,,,3,,,,52,100
46687,note_on,0,0,4,,,,,,,,,3,,,,64,100
46687,note_on,6,0,14,,,,,,,,,13,,,,64,112
46688,note_on,60,0,10,,,,,,,,,15,,,,52,82
46689,note_on,6,0,15,,,,,,,,,14,,,,52,112
46707,note_on,27,0,11,,,,,,,,,10,,,,88,0
46709,note_on,27,0,12,,,,,,,,,11,,,,76,0
46712,note_on,27,0,13,,,,,,,,,12,,,,64,0
46714,note_on,27,0,14,,,,,,,,,13,,,,64,0
46715,note_on,34,0,1,,,,,,,,,0,,,,88,0
46716,note_on,34,0,3,,,,,,,,,2,,,,76,0
46716,note_on,27,0,15,,,,,,,,,14,,,,52,0
46716,note_on,34,0,2,,,,,,,,,1,,,,76,0
46716,note_on,0,0,3,,,,,,,,,2,,,,64,0
46721,note_on,34,0,4,,,,,,,,,3,,,,64,0
46721,note_on,0,0,4,,,,,,,,,3,,,,52,0
46721,note_on,40,0,5,,,,,,,,,4,,,,64,0
46723,note_on,40,0,6,,,,,,,,,5,,,,64,0
46725,note_on,18,0,11,,,,,,,,,10,,,,86,112
46726,note_on,5,0,5,,,,,,,,,4,,,,62,97
46726,note_on,11,0,1,,,,,,,,,0,,,,86,101
46727,note_on,11,0,3,,,,,,,,,2,,,,62,101
46727,note_on,0,0,3,,,,,,,,,2,,,,74,101
46727,note_on,11,0,2,,,,,,,,,1,,,,74,100
46727,note_on,18,0,12,,,,,,,,,11,,,,74,112
46728,note_on,5,0,6,,,,,,,,,5,,,,62,97
46730,note_on,18,0,13,,,,,,,,,12,,,,62,112
46732,note_on,18,0,14,,,,,,,,,13,,,,62,112
46732,note_on,11,0,4,,,,,,,,,3,,,,50,100
46732,note_on,0,0,4,,,,,,,,,3,,,,62,100
46733,note_on,7,0,1,,,,,,,,,0,,,,86,0
46734,note_on,0,0,3,,,,,,,,,2,,,,62,0
46734,note_on,7,0,3,,,,,,,,,2,,,,74,0
46734,note_on,7,0,2,,,,,,,,,1,,,,74,0
46734,note_on,18,0,15,,,,,,,,,14,,,,50,112
46734,note_on,9,0,11,,,,,,,,,10,,,,86,0
46736,note_on,10,0,5,,,,,,,,,4,,,,62,0
46736,note_on,9,0,12,,,,,,,,,11,,,,74,0
46738,note_on,10,0,6,,,,,,,,,5,,,,62,0
46739,note_on,7,0,4,,,,,,,,,3,,,,62,0
46739,note_on,9,0,13,,,,,,,,,12,,,,62,0
46739,note_on,0,0,4,,,,,,,,,3,,,,50,0
46740,note_on,6,0,11,,,,,,,,,10,,,,84,112
46740,set_tempo,60,1,0,,,,,,1043478,,,,,,,,
46741,note_on,9,0,14,,,,,,,,,13,,,,62,0
46741,note_on,5,0,5,,,,,,,,,4,,,,60,97
46741,note_on,8,0,1,,,,,,,,,0,,,,84,101
46742,note_on,6,0,12,,,,,,,,,11,,,,72,112
46742,note_on,0,0,3,,,,,,,,,2,,,,72,101
46742,note_on,8,0,3,,,,,,,,,2,,,,60,101
46742,note_on,8,0,2,,,,,,,,,1,,,,72,100
46743,note_on,5,0,6,,,,,,,,,5,,,,60,97
46743,note_on,9,0,15,,,,,,,,,14,,,,50,0
46745,note_on,6,0,13,,,,,,,,,12,,,,60,112
46747,note_on,6,0,14,,,,,,,,,13,,,,60,112
46747,note_on,8,0,4,,,,,,,,,3,,,,48,100
46747,note_on,0,0,4,,,,,,,,,3,,,,60,100
46748,note_on,60,0,10,,,,,,,,,15,,,,52,0
46749,note_on,6,0,15,,,,,,,,,14,,,,48,112
46767,note_on,27,0,11,,,,,,,,,10,,,,84,0
46769,note_on,27,0,12,,,,,,,,,11,,,,72,0
46772,note_on,27,0,13,,,,,,,,,12,,,,60,0
46774,note_on,27,0,14,,,,,,,,,13,,,,60,0
46775,note_on,34,0,1,,,,,,,,,0,,,,84,0
46776,note_on,27,0,15,,,,,,,,,14,,,,48,0
46776,note_on,34,0,3,,,,,,,,,2,,,,72,0
46776,note_on,34,0,2,,,,,,,,,1,,,,72,0
46776,note_on,0,0,3,,,,,,,,,2,,,,60,0
46781,note_on,0,0,4,,,,,,,,,3,,,,48,0
46781,note_on,34,0,4,,,,,,,,,3,,,,60,0
46781,note_on,40,0,5,,,,,,,,,4,,,,60,0
46783,note_on,40,0,6,,,,,,,,,5,,,,60,0
46785,note_on,18,0,11,,,,,,,,,10,,,,86,112
46786,note_on,5,0,5,,,,,,,,,4,,,,62,97
46786,note_on,11,0,1,,,,,,,,,0,,,,86,101
46787,note_on,18,0,12,,,,,,,,,11,,,,74,112
46787,note_on,11,0,2,,,,,,,,,1,,,,74,100
46787,note_on,0,0,3,,,,,,,,,2,,,,74,101
46787,note_on,11,0,3,,,,,,,,,2,,,,62,101
46788,note_on,5,0,6,,,,,,,,,5,,,,62,97
46790,note_on,18,0,13,,,,,,,,,12,,,,62,112
46792,note_on,11,0,4,,,,,,,,,3,,,,50,100
46792,note_on,18,0,14,,,,,,,,,13,,,,62,112
46792,note_on,0,0,4,,,,,,,,,3,,,,62,100
46793,note_on,7,0,1,,,,,,,,,0,,,,86,0
46794,note_on,0,0,3,,,,,,,,,2,,,,62,0
46794,note_on,7,0,3,,,,,,,,,2,,,,74,0
46794,note_on,9,0,11,,,,,,,,,10,,,,86,0
46794,note_on,7,0,2,,,,,,,,,1,,,,74,0
46794,note_on,18,0,15,,,,,,,,,14,,,,50,112
46796,note_on,10,0,5,,,,,,,,,4,,,,62,0
46796,note_on,9,0,12,,,,,,,,,11,,,,74,0
46798,note_on,10,0,6,,,,,,,,,5,,,,62,0
46799,note_on,0,0,4,,,,,,,,,3,,,,50,0
46799,note_on,7,0,4,,,,,,,,,3,,,,62,0
46799,note_on,9,0,13,,,,,,,,,12,,,,62,0
46800,set_tempo,60,1,0,,,,,,1121495,,,,,,,,
46800,note_on,6,0,11,,,,,,,,,10,,,,88,127
46801,note_on,8,0,1,,,,,,,,,0,,,,88,116
46801,note_on,9,0,14,,,,,,,,,13,,,,62,0
46801,note_on,5,0,5,,,,,,,,,4,,,,64,115
46802,note_on,0,0,7,,,,,,,,,6,,,,76,127
46802,note_on,485,0,7,,,,,,,,,6,,,,64,127
46802,note_on,8,0,2,,,,,,,,,1,,,,76,115
46802,note_on,8,0,3,,,,,,,,,2,,,,64,116
46802,note_on,6,0,12,,,,,,,,,11,,,,64,127
46802,note_on,0,0,12,,,,,,,,,11,,,,76,127
46802,note_on,0,0,3,,,,,,,,,2,,,,76,116
46803,note_on,5,0,6,,,,,,,,,5,,,,64,115
46803,note_on,9,0,15,,,,,,,,,14,,,,50,0
46804,note_on,0,0,8,,,,,,,,,7,,,,52,125
46804,note_on,390,0,8,,,,,,,,,7,,,,64,125
46805,note_on,6,0,13,,,,,,,,,12,,,,64,127
46806,note_on,390,0,9,,,,,,,,,8,,,,52,125
46807,note_on,0,0,4,,,,,,,,,3,,,,64,115
46807,note_on,8,0,4,,,,,,,,,3,,,,52,115
46807,note_on,6,0,14,,,,,,,,,13,,,,64,127
46808,note_on,60,0,10,,,,,,,,,15,,,,52,82
46809,note_on,6,0,15,,,,,,,,,14,,,,52,127
46860,set_tempo,60,1,0,,,,,,1043478,,,,,,,,
46868,note_on,60,0,10,,,,,,,,,15,,,,52,0
46910,note_on,110,0,11,,,,,,,,,10,,,,88,0
46911,note_on,110,0,5,,,,,,,,,4,,,,64,0
46911,note_on,110,0,1,,,,,,,,,0,,,,88,0
46912,note_on,0,0,12,,,,,,,,,11,,,,64,0
46912,note_on,110,0,12,,,,,,,,,11,,,,76,0
46912,note_on,0,0,7,,,,,,,,,6,,,,64,0
46912,note_on,110,0,7,,,,,,,,,6,,,,76,0
46912,note_on,110,0,3,,,,,,,,,2,,,,76,0
46912,note_on,110,0,2,,,,,,,,,1,,,,76,0
46912,note_on,0,0,3,,,,,,,,,2,,,,64,0
46913,note_on,110,0,6,,,,,,,,,5,,,,64,0
46914,note_on,0,0,8,,,,,,,,,7,,,,64,0
46914,note_on,110,0,8,,,,,,,,,7,,,,52,0
46915,note_on,110,0,13,,,,,,,,,12,,,,64,0
46916,note_on,110,0,9,,,,,,,,,8,,,,52,0
46917,note_on,110,0,14,,,,,,,,,13,,,,64,0
46917,note_on,0,0,4,,,,,,,,,3,,,,52,0
46917,note_on,110,0,4,,,,,,,,,3,,,,64,0
46919,note_on,110,0,15,,,,,,,,,14,,,,52,0
46920,set_tempo,60,1,0,,,,,,1100917,,,,,,,,
46920,note_on,10,0,11,,,,,,,,,10,,,,88,127
46921,note_on,10,0,5,,,,,,,,,4,,,,64,115
46921,note_on,10,0,1,,,,,,,,,0,,,,88,116
46922,note_on,10,0,3,,,,,,,,,2,,,,64,116
46922,note_on,0,0,3,,,,,,,,,2,,,,76,116
46922,note_on,10,0,7,,,,,,,,,6,,,,76,127
46922,note_on,10,0,2,,,,,,,,,1,,,,76,115
46922,note_on,0,0,7,,,,,,,,,6,,,,64,127
46922,note_on,0,0,12,,,,,,,,,11,,,,76,127
46922,note_on,10,0,12,,,,,,,,,11,,,,64,127
46923,note_on,10,0,6,,,,,,,,,5,,,,64,115
46924,note_on,0,0,8,,,,,,,,,7,,,,52,125
46924,note_on,10,0,8,,,,,,,,,7,,,,64,125
46925,note_on,10,0,13,,,,,,,,,12,,,,64,127
46926,note_on,10,0,9,,,,,,,,,8,,,,52,125
46927,note_on,10,0,4,,,,,,,,,3,,,,52,115
46927,note_on,0,0,4,,,,,,,,,3,,,,64,115
46927,note_on,10,0,14,,,,,,,,,13,,,,64,127
46928,note_on,60,0,10,,,,,,,,,15,,,,52,82
46929,note_on,10,0,15,,,,,,,,,14,,,,52,127
46980,set_tempo,60,1,0,,,,,,1043478,,,,,,,,
46988,note_on,60,0,10,,,,,,,,,15,,,,52,0
47010,set_tempo,30,1,0,,,,,,1500000,,,,,,,,
47030,note_on,110,0,11,,,,,,,,,10,,,,88,0
47031,note_on,110,0,5,,,,,,,,,4,,,,64,0
47031,note_on,110,0,1,,,,,,,,,0,,,,88,0
47032,note_on,110,0,2,,,,,,,,,1,,,,76,0
47032,note_on,110,0,12,,,,,,,,,11,,,,76,0
47032,note_on,110,0,7,,,,,,,,,6,,,,64,0
47032,note_on,0,0,7,,,,,,,,,6,,,,76,0
47032,note_on,0,0,3,,,,,,,,,2,,,,64,0
47032,note_on,110,0,3,,,,,,,,,2,,,,76,0
47032,note_on,0,0,12,,,,,,,,,11,,,,64,0
47033,note_on,110,0,6,,,,,,,,,5,,,,64,0
47034,note_on,110,0,8,,,,,,,,,7,,,,52,0
47034,note_on,0,0,8,,,,,,,,,7,,,,64,0
47035,note_on,110,0,13,,,,,,,,,12,,,,64,0
47036,note_on,110,0,9,,,,,,,,,8,,,,52,0
47037,note_on,110,0,4,,,,,,,,,3,,,,64,0
47037,note_on,0,0,4,,,,,,,,,3,,,,52,0
47037,note_on,110,0,14,,,,,,,,,13,,,,64,0
47039,note_on,110,0,15,,,,,,,,,14,,,,52,0
47040,set_tempo,30,1,0,,,,,,1224490,,,,,,,,
47041,control_change,0,0,5,,,,,,,,,4,11,47,,,
47041,note_on,10,0,5,,,,,,,,,4,,,,64,115
47042,control_change,10,0,3,,,,,,,,,2,11,47,,,
47042,note_on,0,0,3,,,,,,,,,2,,,,76,116
47042,note_on,0,0,3,,,,,,,,,2,,,,64,116
47043,control_change,10,0,6,,,,,,,,,5,11,47,,,
47043,note_on,0,0,6,,,,,,,,,5,,,,52,115
47065,control_change,24,0,5,,,,,,,,,4,11,46,,,
47066,control_change,24,0,3,,,,,,,,,2,11,46,,,
47067,control_change,24,0,6,,,,,,,,,5,11,46,,,
47089,control_change,24,0,5,,,,,,,,,4,11,45,,,
47090,control_change,24,0,3,,,,,,,,,2,11,45,,,
47091,control_change,24,0,6,,,,,,,,,5,11,45,,,
47113,control_change,24,0,5,,,,,,,,,4,11,44,,,
47114,control_change,24,0,3,,,,,,,,,2,11,44,,,
47115,control_change,24,0,6,,,,,,,,,5,11,44,,,
47137,control_change,24,0,5,,,,,,,,,4,11,43,,,
47138,control_change,24,0,3,,,,,,,,,2,11,43,,,
47139,control_change,24,0,6,,,,,,,,,5,11,43,,,
47151,note_on,14,0,5,,,,,,,,,4,,,,64,0
47152,note_on,0,0,3,,,,,,,,,2,,,,76,0
47152,note_on,14,0,3,,,,,,,,,2,,,,64,0
47153,note_on,14,0,6,,,,,,,,,5,,,,52,0
47160,set_tempo,120,1,0,,,,,,1250000,,,,,,,,
47161,control_change,0,0,5,,,,,,,,,4,11,42,,,
47161,note_on,10,0,5,,,,,,,,,4,,,,64,115
47162,note_on,0,0,3,,,,,,,,,2,,,,64,116
47162,note_on,0,0,3,,,,,,,,,2,,,,76,116
47162,control_change,10,0,3,,,,,,,,,2,11,42,,,
47163,note_on,0,0,6,,,,,,,,,5,,,,52,115
47163,control_change,10,0,6,,,,,,,,,5,11,42,,,
47185,control_change,24,0,5,,,,,,,,,4,11,41,,,
47186,control_change,24,0,3,,,,,,,,,2,11,41,,,
47187,control_change,24,0,6,,,,,,,,,5,11,41,,,
47209,control_change,24,0,5,,,,,,,,,4,11,40,,,
47210,control_change,24,0,3,,,,,,,,,2,11,40,,,
47211,control_change,24,0,6,,,,,,,,,5,11,40,,,
47233,control_change,24,0,5,,,,,,,,,4,11,39,,,
47234,control_change,24,0,3,,,,,,,,,2,11,39,,,
47235,control_change,24,0,6,,,,,,,,,5,11,39,,,
47250,set_tempo,90,1,0,,,,,,1500000,,,,,,,,
47257,control_change,24,0,5,,,,,,,,,4,11,38,,,
47258,control_change,24,0,3,,,,,,,,,2,11,38,,,
47259,control_change,24,0,6,,,,,,,,,5,11,38,,,
47271,note_on,14,0,5,,,,,,,,,4,,,,64,0
47272,note_on,0,0,3,,,,,,,,,2,,,,76,0
47272,note_on,14,0,3,,,,,,,,,2,,,,64,0
47273,note_on,14,0,6,,,,,,,,,5,,,,52,0
47280,set_tempo,30,1,0,,,,,,1200000,,,,,,,,
47280,control_change,250,0,11,,,,,,,,,10,11,41,,,
47281,control_change,250,0,1,,,,,,,,,0,11,47,,,
47281,note_on,10,0,5,,,,,,,,,4,,,,64,97
47281,control_change,0,0,5,,,,,,,,,4,11,47,,,
47282,control_change,0,0,2,,,,,,,,,1,11,37,,,
47282,note_on,250,0,2,,,,,,,,,1,,,,72,115
47282,control_change,250,0,7,,,,,,,,,6,11,47,,,
47282,note_on,0,0,12,,,,,,,,,11,,,,60,112
47282,note_on,0,0,12,,,,,,,,,11,,,,64,112
47282,control_change,250,0,12,,,,,,,,,11,11,31,,,
47282,note_on,0,0,2,,,,,,,,,1,,,,76,115
47282,control_change,10,0,3,,,,,,,,,2,11,47,,,
47283,note_on,10,0,6,,,,,,,,,5,,,,60,97
47283,control_change,0,0,6,,,,,,,,,5,11,47,,,
47284,control_change,250,0,8,,,,,,,,,7,11,47,,,
47285,control_change,0,0,13,,,,,,,,,12,11,31,,,
47285,note_on,250,0,13,,,,,,,,,12,,,,57,112
47286,control_change,250,0,9,,,,,,,,,8,11,47,,,
47287,control_change,250,0,4,,,,,,,,,3,11,37,,,
47287,note_on,0,0,14,,,,,,,,,13,,,,45,112
47287,control_change,250,0,14,,,,,,,,,13,11,41,,,
47287,note_on,0,0,4,,,,,,,,,3,,,,64,115
47287,note_on,0,0,4,,,,,,,,,3,,,,60,115
47289,control_change,250,0,15,,,,,,,,,14,11,41,,,
47289,note_on,0,0,15,,,,,,,,,14,,,,33,112
47291,control_change,9,0,12,,,,,,,,,11,11,34,,,
47294,control_change,9,0,13,,,,,,,,,12,11,34,,,
47294,control_change,12,0,2,,,,,,,,,1,11,41,,,
47295,control_change,8,0,4,,,,,,,,,3,11,41,,,
47300,control_change,9,0,12,,,,,,,,,11,11,37,,,
47301,control_change,6,0,4,,,,,,,,,3,11,44,,,
47303,control_change,9,0,13,,,,,,,,,12,11,37,,,
47303,control_change,9,0,2,,,,,,,,,1,11,44,,,
47307,control_change,6,0,4,,,,,,,,,3,11,47,,,
47309,control_change,9,0,12,,,,,,,,,11,11,40,,,
47312,control_change,9,0,2,,,,,,,,,1,11,47,,,
47312,note_on,0,0,7,,,,,,,,,6,,,,64,109
47312,control_change,30,0,7,,,,,,,,,6,11,47,,,
47312,control_change,9,0,13,,,,,,,,,12,11,40,,,
47312,note_on,0,0,12,,,,,,,,,11,,,,64,0
47312,note_on,3,0,12,,,,,,,,,11,,,,60,0
47313,control_change,6,0,4,,,,,,,,,3,11,50,,,
47315,note_on,3,0,13,,,,,,,,,12,,,,57,0
47322,note_on,10,0,7,,,,,,,,,6,,,,64,0
47327,note_on,5,0,7,,,,,,,,,6,,,,64,109
47337,note_on,10,0,7,,,,,,,,,6,,,,64,0
47340,set_tempo,60,1,0,,,,,,1111111,,,,,,,,
47342,note_on,0,0,12,,,,,,,,,11,,,,64,112
47342,note_on,5,0,7,,,,,,,,,6,,,,64,109
47342,note_on,30,0,12,,,,,,,,,11,,,,60,112
47345,note_on,30,0,13,,,,,,,,,12,,,,57,112
47347,note_on,60,0,14,,,,,,,,,13,,,,45,0
47349,note_on,60,0,15,,,,,,,,,14,,,,33,0
47372,note_on,30,0,12,,,,,,,,,11,,,,64,0
47372,note_on,0,0,12,,,,,,,,,11,,,,60,0
47375,note_on,30,0,13,,,,,,,,,12,,,,57,0
47382,note_on,40,0,7,,,,,,,,,6,,,,64,0
47387,note_on,5,0,7,,,,,,,,,6,,,,64,109
47397,note_on,10,0,7,,,,,,,,,6,,,,64,0
47400,set_tempo,60,1,0,,,,,,1188119,,,,,,,,
47401,note_on,120,0,5,,,,,,,,,4,,,,64,0
47402,note_on,30,0,12,,,,,,,,,11,,,,60,112
47402,note_on,0,0,12,,,,,,,,,11,,,,64,112
47402,note_on,0,0,2,,,,,,,,,1,,,,71,100
47402,note_on,0,0,2,,,,,,,,,1,,,,74,100
47402,note_on,0,0,2,,,,,,,,,1,,,,72,0
47402,note_on,90,0,2,,,,,,,,,1,,,,76,0
47402,note_on,5,0,7,,,,,,,,,6,,,,57,109
47403,note_on,120,0,6,,,,,,,,,5,,,,60,0
47405,note_on,30,0,13,,,,,,,,,12,,,,57,112
47407,note_on,94,0,4,,,,,,,,,3,,,,60,0
47407,note_on,0,0,4,,,,,,,,,3,,,,62,100
47407,note_on,0,0,4,,,,,,,,,3,,,,59,100
47407,note_on,0,0,4,,,,,,,,,3,,,,64,0
47417,note_on,15,0,2,,,,,,,,,1,,,,71,0
47417,note_on,0,0,2,,,,,,,,,1,,,,74,0
47417,note_on,0,0,2,,,,,,,,,1,,,,72,100
47417,note_on,0,0,2,,,,,,,,,1,,,,69,100
47422,note_on,15,0,4,,,,,,,,,3,,,,62,0
47422,note_on,0,0,4,,,,,,,,,3,,,,59,0
47422,note_on,0,0,4,,,,,,,,,3,,,,57,100
47422,note_on,0,0,4,,,,,,,,,3,,,,60,100
47432,note_on,0,0,12,,,,,,,,,11,,,,60,0
47432,note_on,30,0,7,,,,,,,,,6,,,,57,0
47432,note_on,30,0,12,,,,,,,,,11,,,,64,0
47435,note_on,30,0,13,,,,,,,,,12,,,,57,0
47437,note_on,20,0,2,,,,,,,,,1,,,,69,0
47437,note_on,0,0,2,,,,,,,,,1,,,,72,0
47442,note_on,0,0,4,,,,,,,,,3,,,,57,0
47442,note_on,20,0,4,,,,,,,,,3,,,,60,0
47447,note_on,0,0,2,,,,,,,,,1,,,,68,100
47447,note_on,10,0,2,,,,,,,,,1,,,,71,100
47452,note_on,10,0,4,,,,,,,,,3,,,,56,100
47452,note_on,0,0,4,,,,,,,,,3,,,,59,100
47454,note_on,0,0,2,,,,,,,,,1,,,,71,0
47454,note_on,7,0,2,,,,,,,,,1,,,,68,0
47459,note_on,7,0,4,,,,,,,,,3,,,,59,0
47459,note_on,0,0,4,,,,,,,,,3,,,,56,0
47460,set_tempo,60,1,0,,,,,,1111111,,,,,,,,
47462,note_on,8,0,2,,,,,,,,,1,,,,72,100
47462,note_on,0,0,2,,,,,,,,,1,,,,69,100
47462,note_on,30,0,7,,,,,,,,,6,,,,64,109
47462,note_on,0,0,12,,,,,,,,,11,,,,64,112
47462,note_on,30,0,12,,,,,,,,,11,,,,60,112
47465,note_on,30,0,13,,,,,,,,,12,,,,57,112
47467,note_on,0,0,4,,,,,,,,,3,,,,57,100
47467,note_on,8,0,4,,,,,,,,,3,,,,60,100
47492,note_on,0,0,12,,,,,,,,,11,,,,60,0
47492,note_on,30,0,12,,,,,,,,,11,,,,64,0
47492,note_on,30,0,7,,,,,,,,,6,,,,64,0
47495,note_on,30,0,13,,,,,,,,,12,,,,57,0
47496,note_on,34,0,2,,,,,,,,,1,,,,69,0
47496,note_on,0,0,2,,,,,,,,,1,,,,72,0
47501,note_on,0,0,4,,,,,,,,,3,,,,60,0
47501,note_on,34,0,4,,,,,,,,,3,,,,57,0
47507,note_on,11,0,2,,,,,,,,,1,,,,71,100
47507,note_on,0,0,2,,,,,,,,,1,,,,74,100
47512,note_on,11,0,4,,,,,,,,,3,,,,62,100
47512,note_on,0,0,4,,,,,,,,,3,,,,59,100
47514,note_on,7,0,2,,,,,,,,,1,,,,74,0
47514,note_on,0,0,2,,,,,,,,,1,,,,71,0
47519,note_on,7,0,4,,,,,,,,,3,,,,59,0
47519,note_on,0,0,4,,,,,,,,,3,,,,62,0
47520,set_tempo,60,1,0,,,,,,1224490,,,,,,,,
47522,note_on,0,0,12,,,,,,,,,11,,,,64,112
47522,note_on,30,0,7,,,,,,,,,6,,,,69,127
47522,note_on,8,0,2,,,,,,,,,1,,,,72,115
47522,note_on,0,0,2,,,,,,,,,1,,,,76,100
47522,note_on,30,0,12,,,,,,,,,11,,,,60,112
47525,note_on,30,0,13,,,,,,,,,12,,,,57,112
47527,note_on,0,0,4,,,,,,,,,3,,,,60,115
47527,note_on,180,0,14,,,,,,,,,13,,,,45,112
47527,note_on,8,0,4,,,,,,,,,3,,,,64,100
47529,note_on,180,0,15,,,,,,,,,14,,,,33,112
47552,note_on,30,0,12,,,,,,,,,11,,,,64,0
47552,note_on,0,0,12,,,,,,,,,11,,,,60,0
47553,note_on,150,0,6,,,,,,,,,5,,,,52,97
47555,note_on,30,0,13,,,,,,,,,12,,,,57,0
47563,note_on,10,0,6,,,,,,,,,5,,,,52,0
47568,note_on,5,0,6,,,,,,,,,5,,,,52,97
47578,note_on,10,0,6,,,,,,,,,5,,,,52,0
47580,set_tempo,60,1,0,,,,,,1111111,,,,,,,,
47582,note_on,30,0,12,,,,,,,,,11,,,,60,112
47582,note_on,0,0,12,,,,,,,,,11,,,,64,112
47582,note_on,0,0,2,,,,,,,,,1,,,,81,100
47582,note_on,60,0,2,,,,,,,,,1,,,,76,0
47583,note_on,5,0,6,,,,,,,,,5,,,,52,97
47585,note_on,30,0,13,,,,,,,,,12,,,,57,112
47587,note_on,60,0,14,,,,,,,,,13,,,,45,0
47587,note_on,0,0,4,,,,,,,,,3,,,,69,100
47587,note_on,60,0,4,,,,,,,,,3,,,,64,0
47589,note_on,60,0,15,,,,,,,,,14,,,,33,0
47612,note_on,30,0,12,,,,,,,,,11,,,,64,0
47612,note_on,30,0,2,,,,,,,,,1,,,,81,0
47612,note_on,0,0,12,,,,,,,,,11,,,,60,0
47615,note_on,30,0,13,,,,,,,,,12,,,,57,0
47617,note_on,30,0,4,,,,,,,,,3,,,,69,0
47623,note_on,40,0,6,,,,,,,,,5,,,,52,0
47628,note_on,5,0,6,,,,,,,,,5,,,,52,97
47637,note_on,115,0,7,,,,,,,,,6,,,,69,0
47638,note_on,10,0,6,,,,,,,,,5,,,,52,0
47640,set_tempo,60,1,0,,,,,,1188119,,,,,,,,
47642,note_on,30,0,2,,,,,,,,,1,,,,72,0
47642,note_on,0,0,2,,,,,,,,,1,,,,72,100
47642,note_on,5,0,7,,,,,,,,,6,,,,69,109
47642,note_on,0,0,12,,,,,,,,,11,,,,64,112
47642,note_on,0,0,2,,,,,,,,,1,,,,69,100
47642,note_on,30,0,12,,,,,,,,,11,,,,60,112
47643,note_on,5,0,6,,,,,,,,,5,,,,52,97
47645,note_on,30,0,13,,,,,,,,,12,,,,57,112
47647,note_on,0,0,4,,,,,,,,,3,,,,64,100
47647,note_on,0,0,4,,,,,,,,,3,,,,60,100
47647,note_on,60,0,14,,,,,,,,,13,,,,45,112
47647,note_on,30,0,4,,,,,,,,,3,,,,60,0
47649,note_on,60,0,15,,,,,,,,,14,,,,33,112
47672,note_on,0,0,12,,,,,,,,,11,,,,60,0
47672,note_on,0,0,2,,,,,,,,,1,,,,72,0
47672,note_on,30,0,2,,,,,,,,,1,,,,69,0
47672,note_on,30,0,12,,,,,,,,,11,,,,64,0
47673,note_on,30,0,6,,,,,,,,,5,,,,52,0
47675,note_on,30,0,13,,,,,,,,,12,,,,57,0
47677,note_on,0,0,4,,,,,,,,,3,,,,60,0
47677,note_on,30,0,4,,,,,,,,,3,,,,64,0
47677,note_on,30,0,14,,,,,,,,,13,,,,45,0
47679,note_on,30,0,15,,,,,,,,,14,,,,33,0
47700,set_tempo,60,1,0,,,,,,1111111,,,,,,,,
47702,note_on,30,0,2,,,,,,,,,1,,,,76,100
47702,note_on,0,0,12,,,,,,,,,11,,,,55,112
47702,note_on,30,0,12,,,,,,,,,11,,,,65,112
47702,note_on,420,0,3,,,,,,,,,2,,,,67,101
47702,note_on,0,0,2,,,,,,,,,1,,,,71,100
47702,note_on,60,0,7,,,,,,,,,6,,,,69,0
47703,note_on,30,0,6,,,,,,,,,5,,,,55,97
47705,note_on,30,0,13,,,,,,,,,12,,,,62,112
47705,note_on,0,0,13,,,,,,,,,12,,,,59,112
47707,note_on,0,0,4,,,,,,,,,3,,,,59,100
47707,note_on,30,0,4,,,,,,,,,3,,,,69,100
47707,note_on,30,0,14,,,,,,,,,13,,,,43,112
47708,note_on,6,0,2,,,,,,,,,1,,,,74,100
47709,note_on,30,0,15,,,,,,,,,14,,,,31,112
47709,note_on,1,0,2,,,,,,,,,1,,,,76,0
47715,note_on,0,0,2,,,,,,,,,1,,,,76,100
47715,note_on,6,0,2,,,,,,,,,1,,,,74,0
47721,note_on,6,0,2,,,,,,,,,1,,,,74,100
47722,note_on,1,0,2,,,,,,,,,1,,,,76,0
47728,note_on,6,0,2,,,,,,,,,1,,,,74,0
47729,note_on,1,0,2,,,,,,,,,1,,,,76,100
47732,note_on,30,0,12,,,,,,,,,11,,,,55,0
47732,note_on,3,0,2,,,,,,,,,1,,,,71,0
47732,note_on,0,0,12,,,,,,,,,11,,,,65,0
47733,note_on,30,0,6,,,,,,,,,5,,,,55,0
47735,note_on,0,0,13,,,,,,,,,12,,,,62,0
47735,note_on,30,0,13,,,,,,,,,12,,,,59,0
47735,note_on,3,0,2,,,,,,,,,1,,,,74,100
47736,note_on,1,0,2,,,,,,,,,1,,,,76,0
47737,note_on,0,0,4,,,,,,,,,3,,,,69,0
47737,note_on,30,0,4,,,,,,,,,3,,,,59,0
47737,note_on,30,0,14,,,,,,,,,13,,,,43,0
47739,note_on,30,0,15,,,,,,,,,14,,,,31,0
47742,note_on,0,0,2,,,,,,,,,1,,,,76,100
47742,note_on,6,0,2,,,,,,,,,1,,,,74,0
47748,note_on,6,0,2,,,,,,,,,1,,,,74,100
47749,note_on,1,0,2,,,,,,,,,1,,,,76,0
47755,note_on,6,0,2,,,,,,,,,1,,,,74,0
47760,set_tempo,60,1,0,,,,,,1200000,,,,,,,,
47762,note_on,0,0,3,,,,,,,,,2,,,,67,116
47762,note_on,0,0,12,,,,,,,,,11,,,,64,112
47762,note_on,30,0,12,,,,,,,,,11,,,,55,112
47762,note_on,7,0,2,,,,,,,,,1,,,,72,115
47762,note_on,60,0,3,,,,,,,,,2,,,,67,0
47762,note_on,0,0,2,,,,,,,,,1,,,,76,115
47763,note_on,30,0,6,,,,,,,,,5,,,,60,115
47765,note_on,30,0,13,,,,,,,,,12,,,,60,112
47767,note_on,0,0,4,,,,,,,,,3,,,,67,115
47767,note_on,30,0,14,,,,,,,,,13,,,,48,112
47767,note_on,30,0,4,,,,,,,,,3,,,,64,115
47769,note_on,30,0,15,,,,,,,,,14,,,,36,112
47792,note_on,30,0,12,,,,,,,,,11,,,,64,0
47792,note_on,0,0,12,,,,,,,,,11,,,,55,0
47795,note_on,30,0,13,,,,,,,,,12,,,,60,0
47820,set_tempo,60,1,0,,,,,,1111111,,,,,,,,
47822,note_on,30,0,12,,,,,,,,,11,,,,55,112
47822,note_on,0,0,12,,,,,,,,,11,,,,64,112
47825,note_on,30,0,13,,,,,,,,,12,,,,60,112
47827,note_on,60,0,14,,,,,,,,,13,,,,48,0
47829,note_on,60,0,15,,,,,,,,,14,,,,36,0
47852,note_on,30,0,12,,,,,,,,,11,,,,64,0
47852,note_on,0,0,12,,,,,,,,,11,,,,55,0
47855,note_on,30,0,13,,,,,,,,,12,,,,60,0
47872,note_on,110,0,2,,,,,,,,,1,,,,76,0
47872,note_on,110,0,3,,,,,,,,,2,,,,67,0
47872,note_on,0,0,2,,,,,,,,,1,,,,72,0
47873,note_on,110,0,6,,,,,,,,,5,,,,60,0
47877,note_on,110,0,4,,,,,,,,,3,,,,67,0
47877,note_on,0,0,4,,,,,,,,,3,,,,64,0
47880,set_tempo,60,1,0,,,,,,1188119,,,,,,,,
47882,note_on,10,0,3,,,,,,,,,2,,,,67,116
47882,note_on,0,0,2,,,,,,,,,1,,,,76,115
47882,note_on,30,0,12,,,,,,,,,11,,,,55,112
47882,note_on,0,0,12,,,,,,,,,11,,,,64,112
47882,note_on,10,0,2,,,,,,,,,1,,,,72,115
47883,note_on,10,0,6,,,,,,,,,5,,,,60,97
47885,note_on,30,0,13,,,,,,,,,12,,,,60,112
47887,note_on,0,0,4,,,,,,,,,3,,,,64,115
47887,note_on,60,0,14,,,,,,,,,13,,,,48,112
47887,note_on,10,0,4,,,,,,,,,3,,,,67,115
47889,note_on,60,0,15,,,,,,,,,14,,,,36,112
47912,note_on,30,0,12,,,,,,,,,11,,,,64,0
47912,note_on,0,0,12,,,,,,,,,11,,,,55,0
47915,note_on,30,0,13,,,,,,,,,12,,,,60,0
47940,set_tempo,60,1,0,,,,,,1111111,,,,,,,,
47942,note_on,0,0,12,,,,,,,,,11,,,,64,112
47942,note_on,30,0,12,,,,,,,,,11,,,,55,112
47943,note_on,60,0,6,,,,,,,,,5,,,,60,0
47945,note_on,30,0,13,,,,,,,,,12,,,,60,112
47947,note_on,60,0,14,,,,,,,,,13,,,,48,0
47949,note_on,60,0,15,,,,,,,,,14,,,,36,0
47970,set_tempo,30,1,0,,,,,,1348315,,,,,,,,
47972,note_on,0,0,12,,,,,,,,,11,,,,55,0
47972,note_on,30,0,12,,,,,,,,,11,,,,64,0
47975,note_on,30,0,13,,,,,,,,,12,,,,60,0
47992,note_on,110,0,3,,,,,,,,,2,,,,67,0
47992,note_on,0,0,2,,,,,,,,,1,,,,72,0
47992,note_on,110,0,2,,,,,,,,,1,,,,76,0
47997,note_on,110,0,4,,,,,,,,,3,,,,64,0
47997,note_on,0,0,4,,,,,,,,,3,,,,67,0
48000,set_tempo,30,1,0,,,,,,1200000,,,,,,,,
48002,note_on,0,0,3,,,,,,,,,2,,,,77,116
48002,control_change,0,0,2,,,,,,,,,1,11,52,,,
48002,note_on,10,0,2,,,,,,,,,1,,,,71,115
48002,control_change,10,0,3,,,,,,,,,2,11,52,,,
48002,note_on,0,0,12,,,,,,,,,11,,,,55,112
48002,note_on,30,0,12,,,,,,,,,11,,,,65,112
48005,note_on,0,0,13,,,,,,,,,12,,,,59,112
48005,note_on,30,0,13,,,,,,,,,12,,,,62,112
48007,note_on,60,0,14,,,,,,,,,13,,,,43,127
48009,note_on,60,0,15,,,,,,,,,14,,,,31,127
48030,control_change,750,0,11,,,,,,,,,10,11,45,,,
48030,note_on,0,0,11,,,,,,,,,10,,,,79,102
48032,note_on,0,0,12,,,,,,,,,11,,,,65,0
48032,note_on,30,0,12,,,,,,,,,11,,,,55,0
48035,note_on,0,0,13,,,,,,,,,12,,,,62,0
48035,note_on,30,0,13,,,,,,,,,12,,,,59,0
48041,note_on,11,0,11,,,,,,,,,10,,,,79,0
48045,note_on,4,0,11,,,,,,,,,10,,,,79,102
48047,note_on,0,0,2,,,,,,,,,1,,,,72,100
48047,note_on,45,0,2,,,,,,,,,1,,,,71,0
48056,note_on,11,0,11,,,,,,,,,10,,,,79,0
48060,note_on,4,0,11,,,,,,,,,10,,,,79,102
48060,set_tempo,60,1,0,,,,,,1111111,,,,,,,,
48062,note_on,15,0,2,,,,,,,,,1,,,,72,0
48062,note_on,0,0,2,,,,,,,,,1,,,,74,100
48062,note_on,30,0,12,,,,,,,,,11,,,,65,112
48062,note_on,0,0,12,,,,,,,,,11,,,,55,112
48065,note_on,30,0,13,,,,,,,,,12,,,,59,112
48065,note_on,0,0,13,,,,,,,,,12,,,,62,112
48067,note_on,60,0,14,,,,,,,,,13,,,,43,0
48069,note_on,60,0,15,,,,,,,,,14,,,,31,0
48092,note_on,30,0,12,,,,,,,,,11,,,,55,0
48092,note_on,0,0,12,,,,,,,,,11,,,,65,0
48094,note_on,34,0,11,,,,,,,,,10,,,,79,0
48095,note_on,0,0,13,,,,,,,,,12,,,,59,0
48095,note_on,30,0,13,,,,,,,,,12,,,,62,0
48105,note_on,11,0,11,,,,,,,,,10,,,,79,102
48107,note_on,0,0,2,,,,,,,,,1,,,,72,100
48107,note_on,45,0,2,,,,,,,,,1,,,,74,0
48116,note_on,11,0,11,,,,,,,,,10,,,,79,0
48120,set_tempo,60,1,0,,,,,,1188119,,,,,,,,
48120,note_on,4,0,11,,,,,,,,,10,,,,86,102
48122,note_on,15,0,2,,,,,,,,,1,,,,72,0
48122,note_on,0,0,2,,,,,,,,,1,,,,71,100
48122,note_on,30,0,12,,,,,,,,,11,,,,65,112
48122,note_on,120,0,3,,,,,,,,,2,,,,77,0
48122,note_on,0,0,12,,,,,,,,,11,,,,55,112
48122,note_on,0,0,3,,,,,,,,,2,,,,81,101
48125,note_on,30,0,13,,,,,,,,,12,,,,62,112
48125,note_on,0,0,13,,,,,,,,,12,,,,59,112
48127,note_on,60,0,14,,,,,,,,,13,,,,43,112
48129,note_on,60,0,15,,,,,,,,,14,,,,31,112
48152,note_on,0,0,12,,,,,,,,,11,,,,65,0
48152,note_on,30,0,12,,,,,,,,,11,,,,55,0
48155,note_on,0,0,13,,,,,,,,,12,,,,62,0
48155,note_on,30,0,13,,,,,,,,,12,,,,59,0
48167,note_on,0,0,3,,,,,,,,,2,,,,80,101
48167,note_on,45,0,3,,,,,,,,,2,,,,81,0
48180,note_on,0,0,11,,,,,,,,,10,,,,89,102
48180,set_tempo,60,1,0,,,,,,1111111,,,,,,,,
48180,note_on,60,0,11,,,,,,,,,10,,,,86,0
48182,note_on,0,0,3,,,,,,,,,2,,,,81,101
48182,note_on,0,0,12,,,,,,,,,11,,,,55,112
48182,note_on,30,0,12,,,,,,,,,11,,,,65,112
48182,note_on,15,0,3,,,,,,,,,2,,,,80,0
48185,note_on,30,0,13,,,,,,,,,12,,,,62,112
48185,note_on,0,0,13,,,,,,,,,12,,,,59,112
48187,note_on,60,0,14,,,,,,,,,13,,,,43,0
48189,note_on,60,0,15,,,,,,,,,14,,,,31,0
48210,note_on,30,0,11,,,,,,,,,10,,,,89,0
48212,note_on,0,0,12,,,,,,,,,11,,,,65,0
48212,note_on,30,0,12,,,,,,,,,11,,,,55,0
48215,note_on,0,0,13,,,,,,,,,12,,,,62,0
48215,note_on,30,0,13,,,,,,,,,12,,,,59,0
48227,note_on,0,0,3,,,,,,,,,2,,,,77,101
48227,note_on,45,0,3,,,,,,,,,2,,,,81,0
48237,note_on,10,0,3,,,,,,,,,2,,,,77,0
48240,set_tempo,60,1,0,,,,,,1200000,,,,,,,,
48242,note_on,120,0,2,,,,,,,,,1,,,,71,0
48242,note_on,5,0,3,,,,,,,,,2,,,,76,116
48242,note_on,30,0,12,,,,,,,,,11,,,,55,112
48242,note_on,0,0,2,,,,,,,,,1,,,,72,115
48242,note_on,0,0,12,,,,,,,,,11,,,,64,112
48245,note_on,30,0,13,,,,,,,,,12,,,,60,112
48247,note_on,60,0,14,,,,,,,,,13,,,,48,127
48249,note_on,60,0,15,,,,,,,,,14,,,,36,127
48270,note_on,60,0,11,,,,,,,,,10,,,,79,102
48272,note_on,0,0,12,,,,,,,,,11,,,,55,0
48272,note_on,30,0,12,,,,,,,,,11,,,,64,0
48275,note_on,30,0,13,,,,,,,,,12,,,,60,0
48281,note_on,11,0,11,,,,,,,,,10,,,,79,0
48285,note_on,4,0,11,,,,,,,,,10,,,,79,102
48287,note_on,45,0,2,,,,,,,,,1,,,,72,0
48287,note_on,0,0,2,,,,,,,,,1,,,,71,100
48296,note_on,11,0,11,,,,,,,,,10,,,,79,0
48300,set_tempo,60,1,0,,,,,,1111111,,,,,,,,
48300,note_on,4,0,11,,,,,,,,,10,,,,79,102
48302,note_on,30,0,12,,,,,,,,,11,,,,55,112
48302,note_on,0,0,12,,,,,,,,,11,,,,64,112
48302,note_on,0,0,2,,,,,,,,,1,,,,72,100
48302,note_on,15,0,2,,,,,,,,,1,,,,71,0
48305,note_on,30,0,13,,,,,,,,,12,,,,60,112
48307,note_on,60,0,14,,,,,,,,,13,,,,48,0
48309,note_on,60,0,15,,,,,,,,,14,,,,36,0
48332,note_on,30,0,12,,,,,,,,,11,,,,64,0
48332,note_on,0,0,12,,,,,,,,,11,,,,55,0
48334,note_on,34,0,11,,,,,,,,,10,,,,79,0
48335,note_on,30,0,13,,,,,,,,,12,,,,60,0
48345,note_on,11,0,11,,,,,,,,,10,,,,79,102
48347,note_on,0,0,2,,,,,,,,,1,,,,74,100
48347,note_on,45,0,2,,,,,,,,,1,,,,72,0
48356,note_on,11,0,11,,,,,,,,,10,,,,79,0
48360,note_on,4,0,11,,,,,,,,,10,,,,84,102
48360,set_tempo,60,1,0,,,,,,1188119,,,,,,,,
48362,note_on,30,0,12,,,,,,,,,11,,,,55,112
48362,note_on,0,0,2,,,,,,,,,1,,,,76,100
48362,note_on,0,0,12,,,,,,,,,11,,,,64,112
48362,note_on,0,0,3,,,,,,,,,2,,,,79,101
48362,note_on,120,0,3,,,,,,,,,2,,,,76,0
48362,note_on,15,0,2,,,,,,,,,1,,,,74,0
48365,note_on,30,0,13,,,,,,,,,12,,,,60,112
48367,note_on,60,0,14,,,,,,,,,13,,,,48,112
48369,note_on,60,0,15,,,,,,,,,14,,,,36,112
48392,note_on,30,0,12,,,,,,,,,11,,,,64,0
48392,note_on,0,0,12,,,,,,,,,11,,,,55,0
48395,note_on,30,0,13,,,,,,,,,12,,,,60,0
48407,note_on,45,0,3,,,,,,,,,2,,,,79,0
48407,note_on,0,0,3,,,,,,,,,2,,,,78,101
48420,set_tempo,60,1,0,,,,,,1111111,,,,,,,,
48420,note_on,60,0,11,,,,,,,,,10,,,,84,0
48420,note_on,0,0,11,,,,,,,,,10,,,,88,102
48422,note_on,30,0,12,,,,,,,,,11,,,,55,112
48422,note_on,15,0,3,,,,,,,,,2,,,,78,0
48422,note_on,0,0,3,,,,,,,,,2,,,,79,101
48422,note_on,0,0,12,,,,,,,,,11,,,,64,112
48425,note_on,30,0,13,,,,,,,,,12,,,,60,112
48427,note_on,60,0,14,,,,,,,,,13,,,,48,0
48429,note_on,60,0,15,,,,,,,,,14,,,,36,0
48450,note_on,30,0,11,,,,,,,,,10,,,,88,0
48452,note_on,30,0,12,,,,,,,,,11,,,,64,0
48452,note_on,0,0,12,,,,,,,,,11,,,,55,0
48455,note_on,30,0,13,,,,,,,,,12,,,,60,0
48467,note_on,0,0,3,,,,,,,,,2,,,,76,101
48467,note_on,45,0,3,,,,,,,,,2,,,,79,0
48477,note_on,10,0,3,,,,,,,,,2,,,,76,0
48480,set_tempo,60,1,0,,,,,,1165049,,,,,,,,
48482,note_on,120,0,2,,,,,,,,,1,,,,76,0
48482,note_on,30,0,12,,,,,,,,,11,,,,57,112
48482,note_on,0,0,12,,,,,,,,,11,,,,64,112
48482,note_on,5,0,3,,,,,,,,,2,,,,72,101
48485,note_on,30,0,13,,,,,,,,,12,,,,60,112
48487,note_on,60,0,14,,,,,,,,,13,,,,45,112
48489,note_on,60,0,15,,,,,,,,,14,,,,33,112
48510,note_on,60,0,11,,,,,,,,,10,,,,76,102
48512,note_on,30,0,12,,,,,,,,,11,,,,64,0
48512,note_on,0,0,12,,,,,,,,,11,,,,57,0
48515,note_on,30,0,13,,,,,,,,,12,,,,60,0
48521,note_on,11,0,11,,,,,,,,,10,,,,76,0
48525,note_on,4,0,11,,,,,,,,,10,,,,76,102
48536,note_on,11,0,11,,,,,,,,,10,,,,76,0
48540,set_tempo,60,1,0,,,,,,1090909,,,,,,,,
48540,note_on,4,0,11,,,,,,,,,10,,,,76,102
48542,note_on,30,0,12,,,,,,,,,11,,,,57,112
48542,note_on,0,0,12,,,,,,,,,11,,,,64,112
48545,note_on,30,0,13,,,,,,,,,12,,,,60,112
48547,note_on,60,0,14,,,,,,,,,13,,,,45,0
48549,note_on,60,0,15,,,,,,,,,14,,,,33,0
48572,note_on,30,0,12,,,,,,,,,11,,,,64,0
48572,note_on,0,0,12,,,,,,,,,11,,,,57,0
48574,note_on,34,0,11,,,,,,,,,10,,,,76,0
48575,note_on,30,0,13,,,,,,,,,12,,,,60,0
48585,note_on,0,0,11,,,,,,,,,10,,,,76,102
48585,control_change,11,0,11,,,,,,,,,10,11,55,,,
48596,note_on,11,0,11,,,,,,,,,10,,,,76,0
48600,set_tempo,60,1,0,,,,,,1142857,,,,,,,,
48600,note_on,4,0,11,,,,,,,,,10,,,,79,102
48601,control_change,1320,0,1,,,,,,,,,0,11,52,,,
48601,note_on,0,0,1,,,,,,,,,0,,,,83,101
48602,control_change,0,0,3,,,,,,,,,2,11,52,,,
48602,note_on,0,0,3,,,,,,,,,2,,,,71,101
48602,note_on,0,0,12,,,,,,,,,11,,,,65,112
48602,note_on,30,0,12,,,,,,,,,11,,,,57,112
48602,note_on,120,0,3,,,,,,,,,2,,,,72,0
48603,control_change,3,0,11,,,,,,,,,10,11,53,,,
48605,note_on,30,0,13,,,,,,,,,12,,,,59,112
48607,note_on,60,0,14,,,,,,,,,13,,,,50,112
48609,note_on,60,0,15,,,,,,,,,14,,,,38,112
48615,note_on,12,0,11,,,,,,,,,10,,,,79,0
48615,note_on,0,0,11,,,,,,,,,10,,,,77,102
48621,control_change,6,0,11,,,,,,,,,10,11,51,,,
48622,note_on,15,0,14,,,,,,,,,13,,,,50,0
48624,note_on,15,0,15,,,,,,,,,14,,,,38,0
48624,note_on,3,0,11,,,,,,,,,10,,,,77,0
48627,note_on,26,0,1,,,,,,,,,0,,,,83,0
48628,note_on,26,0,3,,,,,,,,,2,,,,71,0
48630,note_on,6,0,11,,,,,,,,,10,,,,77,102
48631,note_on,4,0,1,,,,,,,,,0,,,,84,101
48632,note_on,0,0,12,,,,,,,,,11,,,,57,0
48632,note_on,4,0,3,,,,,,,,,2,,,,72,101
48632,note_on,30,0,12,,,,,,,,,11,,,,65,0
48635,note_on,30,0,13,,,,,,,,,12,,,,59,0
48637,note_on,15,0,14,,,,,,,,,13,,,,52,112
48639,control_change,9,0,11,,,,,,,,,10,11,49,,,
48639,note_on,15,0,15,,,,,,,,,14,,,,40,112
48645,note_on,6,0,11,,,,,,,,,10,,,,77,0
48645,note_on,0,0,11,,,,,,,,,10,,,,76,102
48652,note_on,15,0,14,,,,,,,,,13,,,,52,0
48654,note_on,9,0,11,,,,,,,,,10,,,,76,0
48654,note_on,15,0,15,,,,,,,,,14,,,,40,0
48657,note_on,26,0,1,,,,,,,,,0,,,,84,0
48657,control_change,3,0,11,,,,,,,,,10,11,47,,,
48658,note_on,26,0,3,,,,,,,,,2,,,,72,0
48660,note_on,3,0,11,,,,,,,,,10,,,,76,102
48660,set_tempo,60,1,0,,,,,,1081081,,,,,,,,
48661,note_on,4,0,1,,,,,,,,,0,,,,86,101
48662,note_on,0,0,12,,,,,,,,,11,,,,65,112
48662,note_on,30,0,12,,,,,,,,,11,,,,57,112
48662,note_on,4,0,3,,,,,,,,,2,,,,74,101
48665,note_on,30,0,13,,,,,,,,,12,,,,59,112
48667,note_on,15,0,14,,,,,,,,,13,,,,53,112
48669,note_on,15,0,15,,,,,,,,,14,,,,41,112
48675,note_on,15,0,11,,,,,,,,,10,,,,76,0
48675,control_change,0,0,11,,,,,,,,,10,11,45,,,
48675,note_on,0,0,11,,,,,,,,,10,,,,74,102
48682,note_on,15,0,14,,,,,,,,,13,,,,53,0
48684,note_on,15,0,15,,,,,,,,,14,,,,41,0
48684,note_on,9,0,11,,,,,,,,,10,,,,74,0
48687,note_on,26,0,1,,,,,,,,,0,,,,86,0
48688,note_on,26,0,3,,,,,,,,,2,,,,74,0
48690,note_on,6,0,11,,,,,,,,,10,,,,74,102
48691,note_on,4,0,1,,,,,,,,,0,,,,89,101
48692,note_on,4,0,3,,,,,,,,,2,,,,77,101
48692,note_on,30,0,12,,,,,,,,,11,,,,65,0
48692,note_on,0,0,12,,,,,,,,,11,,,,57,0
48693,control_change,3,0,11,,,,,,,,,10,11,43,,,
48695,note_on,30,0,13,,,,,,,,,12,,,,59,0
48697,note_on,15,0,14,,,,,,,,,13,,,,50,112
48699,note_on,15,0,15,,,,,,,,,14,,,,38,112
48705,note_on,12,0,11,,,,,,,,,10,,,,74,0
48705,note_on,0,0,11,,,,,,,,,10,,,,72,102
48711,control_change,6,0,11,,,,,,,,,10,11,42,,,
48712,note_on,15,0,14,,,,,,,,,13,,,,50,0
48714,note_on,3,0,11,,,,,,,,,10,,,,72,0
48714,note_on,15,0,15,,,,,,,,,14,,,,38,0
48717,note_on,26,0,1,,,,,,,,,0,,,,89,0
48718,note_on,26,0,3,,,,,,,,,2,,,,77,0
48720,note_on,6,0,11,,,,,,,,,10,,,,76,112
48720,set_tempo,60,1,0,,,,,,1132075,,,,,,,,
48721,control_change,0,0,5,,,,,,,,,4,11,52,,,
48721,note_on,1320,0,5,,,,,,,,,4,,,,64,100
48721,control_change,4,0,1,,,,,,,,,0,11,52,,,
48721,note_on,0,0,1,,,,,,,,,0,,,,89,101
48722,note_on,0,0,12,,,,,,,,,11,,,,64,112
48722,note_on,0,0,2,,,,,,,,,1,,,,64,100
48722,control_change,240,0,2,,,,,,,,,1,11,52,,,
48722,note_on,0,0,12,,,,,,,,,11,,,,57,112
48722,note_on,0,0,3,,,,,,,,,2,,,,77,101
48722,control_change,4,0,3,,,,,,,,,2,11,52,,,
48722,control_change,30,0,12,,,,,,,,,11,11,41,,,
48724,control_change,1440,0,8,,,,,,,,,7,11,47,,,
48724,note_on,0,0,8,,,,,,,,,7,,,,60,110
48724,note_on,0,0,8,,,,,,,,,7,,,,64,110
48725,control_change,0,0,13,,,,,,,,,12,11,41,,,
48725,note_on,30,0,13,,,,,,,,,12,,,,60,112
48726,note_on,0,0,9,,,,,,,,,8,,,,52,110
48726,control_change,1440,0,9,,,,,,,,,8,11,47,,,
48727,note_on,0,0,4,,,,,,,,,3,,,,52,100
48727,note_on,0,0,14,,,,,,,,,13,,,,52,112
48727,control_change,15,0,14,,,,,,,,,13,11,41,,,
48727,control_change,730,0,4,,,,,,,,,3,11,52,,,
48728,control_change,8,0,11,,,,,,,,,10,11,42,,,
48729,note_on,15,0,15,,,,,,,,,14,,,,40,112
48736,note_on,0,0,1,,,,,,,,,0,,,,88,116
48736,note_on,15,0,1,,,,,,,,,0,,,,89,0
48737,note_on,15,0,3,,,,,,,,,2,,,,77,0
48737,control_change,16,0,5,,,,,,,,,4,11,54,,,
48737,note_on,0,0,3,,,,,,,,,2,,,,76,116
48737,control_change,1,0,1,,,,,,,,,0,11,54,,,
48738,control_change,16,0,12,,,,,,,,,11,11,42,,,
48738,control_change,1,0,3,,,,,,,,,2,11,54,,,
48738,control_change,16,0,2,,,,,,,,,1,11,54,,,
48740,control_change,16,0,8,,,,,,,,,7,11,49,,,
48741,control_change,16,0,13,,,,,,,,,12,11,42,,,
48742,control_change,16,0,9,,,,,,,,,8,11,49,,,
48743,control_change,16,0,4,,,,,,,,,3,11,54,,,
48743,control_change,16,0,14,,,,,,,,,13,11,42,,,
48744,control_change,16,0,11,,,,,,,,,10,11,43,,,
48750,note_on,6,0,11,,,,,,,,,10,,,,76,0
48750,note_on,0,0,11,,,,,,,,,10,,,,81,112
48752,note_on,14,0,2,,,,,,,,,1,,,,64,0
48752,note_on,0,0,2,,,,,,,,,1,,,,69,100
48752,note_on,14,0,12,,,,,,,,,11,,,,64,0
48752,note_on,0,0,12,,,,,,,,,11,,,,57,0
48753,control_change,16,0,1,,,,,,,,,0,11,56,,,
48753,control_change,16,0,5,,,,,,,,,4,11,56,,,
48754,control_change,16,0,3,,,,,,,,,2,11,56,,,
48754,control_change,2,0,12,,,,,,,,,11,11,44,,,
48754,control_change,2,0,2,,,,,,,,,1,11,56,,,
48755,note_on,14,0,13,,,,,,,,,12,,,,60,0
48756,note_on,3,0,1,,,,,,,,,0,,,,88,0
48756,control_change,16,0,8,,,,,,,,,7,11,51,,,
48757,note_on,14,0,14,,,,,,,,,13,,,,52,0
48757,note_on,3,0,3,,,,,,,,,2,,,,76,0
48757,control_change,2,0,13,,,,,,,,,12,11,44,,,
48757,note_on,0,0,4,,,,,,,,,3,,,,57,100
48757,note_on,14,0,4,,,,,,,,,3,,,,52,0
48758,control_change,16,0,9,,,,,,,,,8,11,51,,,
48759,control_change,2,0,4,,,,,,,,,3,11,56,,,
48759,note_on,30,0,15,,,,,,,,,14,,,,40,0
48759,control_change,2,0,14,,,,,,,,,13,11,44,,,
48760,control_change,10,0,11,,,,,,,,,10,11,45,,,
48764,note_on,8,0,8,,,,,,,,,7,,,,64,0
48764,note_on,0,0,8,,,,,,,,,7,,,,60,0
48766,note_on,13,0,5,,,,,,,,,4,,,,64,0
48766,note_on,8,0,9,,,,,,,,,8,,,,52,0
48769,control_change,3,0,5,,,,,,,,,4,11,58,,,
48769,control_change,13,0,1,,,,,,,,,0,11,57,,,
48770,control_change,16,0,2,,,,,,,,,1,11,57,,,
48770,control_change,16,0,12,,,,,,,,,11,11,46,,,
48770,control_change,13,0,3,,,,,,,,,2,11,57,,,
48772,control_change,8,0,8,,,,,,,,,7,11,53,,,
48773,control_change,16,0,13,,,,,,,,,12,11,46,,,
48774,control_change,8,0,9,,,,,,,,,8,11,53,,,
48775,control_change,16,0,14,,,,,,,,,13,11,46,,,
48775,control_change,16,0,4,,,,,,,,,3,11,58,,,
48776,control_change,16,0,11,,,,,,,,,10,11,47,,,
48780,note_on,4,0,11,,,,,,,,,10,,,,81,0
48780,note_on,0,0,11,,,,,,,,,10,,,,83,112
48780,set_tempo,60,1,0,,,,,,1176471,,,,,,,,
48781,note_on,12,0,1,,,,,,,,,0,,,,88,101
48781,note_on,12,0,5,,,,,,,,,4,,,,65,100
48782,note_on,0,0,2,,,,,,,,,1,,,,71,100
48782,note_on,12,0,12,,,,,,,,,11,,,,65,112
48782,note_on,0,0,12,,,,,,,,,11,,,,62,112
48782,note_on,12,0,2,,,,,,,,,1,,,,69,0
48782,note_on,12,0,3,,,,,,,,,2,,,,76,101
48784,note_on,0,0,8,,,,,,,,,7,,,,62,110
48784,note_on,12,0,8,,,,,,,,,7,,,,59,110
48785,note_on,12,0,13,,,,,,,,,12,,,,59,112
48785,control_change,4,0,5,,,,,,,,,4,11,60,,,
48785,control_change,4,0,1,,,,,,,,,0,11,59,,,
48786,control_change,4,0,12,,,,,,,,,11,11,48,,,
48786,control_change,4,0,3,,,,,,,,,2,11,59,,,
48786,note_on,12,0,9,,,,,,,,,8,,,,52,110
48786,control_change,4,0,2,,,,,,,,,1,11,59,,,
48787,note_on,0,0,4,,,,,,,,,3,,,,59,100
48787,note_on,12,0,14,,,,,,,,,13,,,,52,112
48787,note_on,12,0,4,,,,,,,,,3,,,,57,0
48788,control_change,4,0,8,,,,,,,,,7,11,55,,,
48789,note_on,30,0,15,,,,,,,,,14,,,,40,112
48789,control_change,4,0,13,,,,,,,,,12,11,48,,,
48790,control_change,4,0,9,,,,,,,,,8,11,55,,,
48791,control_change,4,0,14,,,,,,,,,13,11,48,,,
48791,control_change,4,0,4,,,,,,,,,3,11,60,,,
48792,control_change,12,0,11,,,,,,,,,10,11,49,,,
48801,control_change,16,0,5,,,,,,,,,4,11,62,,,
48801,control_change,16,0,1,,,,,,,,,0,11,60,,,
48802,control_change,16,0,12,,,,,,,,,11,11,50,,,
48802,control_change,16,0,2,,,,,,,,,1,11,60,,,
48802,control_change,16,0,3,,,,,,,,,2,11,60,,,
48804,control_change,16,0,8,,,,,,,,,7,11,57,,,
48805,control_change,16,0,13,,,,,,,,,12,11,50,,,
48806,control_change,16,0,9,,,,,,,,,8,11,57,,,
48807,control_change,16,0,14,,,,,,,,,13,11,50,,,
48807,control_change,16,0,4,,,,,,,,,3,11,62,,,
48808,control_change,16,0,11,,,,,,,,,10,11,51,,,
48810,note_on,2,0,11,,,,,,,,,10,,,,83,0
48810,note_on,0,0,11,,,,,,,,,10,,,,86,112
48811,note_on,10,0,1,,,,,,,,,0,,,,88,0
48812,note_on,0,0,2,,,,,,,,,1,,,,74,100
48812,note_on,10,0,2,,,,,,,,,1,,,,71,0
48812,note_on,10,0,12,,,,,,,,,11,,,,62,0
48812,note_on,0,0,12,,,,,,,,,11,,,,65,0
48812,note_on,10,0,3,,,,,,,,,2,,,,76,0
48815,note_on,10,0,13,,,,,,,,,12,,,,59,0
48817,control_change,6,0,1,,,,,,,,,0,11,62,,,
48817,note_on,10,0,4,,,,,,,,,3,,,,59,0
48817,note_on,0,0,4,,,,,,,,,3,,,,62,100
48817,note_on,10,0,14,,,,,,,,,13,,,,52,0
48817,control_change,16,0,5,,,,,,,,,4,11,64,,,
48818,control_change,6,0,2,,,,,,,,,1,11,62,,,
48818,control_change,6,0,12,,,,,,,,,11,11,52,,,
48818,control_change,6,0,3,,,,,,,,,2,11,62,,,
48819,note_on,30,0,15,,,,,,,,,14,,,,40,0
48820,control_change,16,0,8,,,,,,,,,7,11,59,,,
48821,control_change,6,0,13,,,,,,,,,12,11,52,,,
48822,control_change,16,0,9,,,,,,,,,8,11,59,,,
48823,control_change,6,0,4,,,,,,,,,3,11,64,,,
48823,control_change,6,0,14,,,,,,,,,13,11,52,,,
48824,note_on,4,0,8,,,,,,,,,7,,,,62,0
48824,control_change,14,0,11,,,,,,,,,10,11,53,,,
48824,note_on,0,0,8,,,,,,,,,7,,,,59,0
48826,note_on,9,0,5,,,,,,,,,4,,,,65,0
48826,note_on,4,0,9,,,,,,,,,8,,,,52,0
48833,control_change,7,0,5,,,,,,,,,4,11,66,,,
48833,control_change,16,0,1,,,,,,,,,0,11,63,,,
48834,control_change,16,0,12,,,,,,,,,11,11,54,,,
48834,control_change,16,0,3,,,,,,,,,2,11,63,,,
48834,control_change,16,0,2,,,,,,,,,1,11,63,,,
48835,note_on,11,0,11,,,,,,,,,10,,,,86,0
48836,control_change,12,0,8,,,,,,,,,7,11,61,,,
48837,control_change,16,0,13,,,,,,,,,12,11,54,,,
48838,control_change,12,0,9,,,,,,,,,8,11,61,,,
48839,control_change,16,0,14,,,,,,,,,13,11,54,,,
48839,control_change,16,0,4,,,,,,,,,3,11,66,,,
48840,control_change,5,0,11,,,,,,,,,10,11,55,,,
48840,note_on,0,0,11,,,,,,,,,10,,,,84,112
48840,set_tempo,60,1,0,,,,,,1250000,,,,,,,,
48841,note_on,8,0,5,,,,,,,,,4,,,,64,100
48841,note_on,8,0,1,,,,,,,,,0,,,,89,101
48842,note_on,0,0,2,,,,,,,,,1,,,,72,100
48842,note_on,8,0,2,,,,,,,,,1,,,,74,0
48842,note_on,8,0,12,,,,,,,,,11,,,,60,112
48842,note_on,8,0,3,,,,,,,,,2,,,,77,101
48842,note_on,0,0,12,,,,,,,,,11,,,,64,112
48844,note_on,0,0,8,,,,,,,,,7,,,,60,110
48844,note_on,8,0,8,,,,,,,,,7,,,,64,110
48845,note_on,8,0,13,,,,,,,,,12,,,,64,112
48846,note_on,8,0,9,,,,,,,,,8,,,,52,110
48847,note_on,8,0,14,,,,,,,,,13,,,,52,112
48847,note_on,0,0,4,,,,,,,,,3,,,,60,100
48847,note_on,8,0,4,,,,,,,,,3,,,,62,0
48849,note_on,30,0,15,,,,,,,,,14,,,,40,112
48849,control_change,8,0,5,,,,,,,,,4,11,66,,,
48849,control_change,8,0,1,,,,,,,,,0,11,63,,,
48850,control_change,8,0,12,,,,,,,,,11,11,54,,,
48850,control_change,8,0,3,,,,,,,,,2,11,63,,,
48850,control_change,8,0,2,,,,,,,,,1,11,63,,,
48852,control_change,8,0,8,,,,,,,,,7,11,61,,,
48853,control_change,8,0,13,,,,,,,,,12,11,54,,,
48854,control_change,8,0,9,,,,,,,,,8,11,61,,,
48855,control_change,8,0,4,,,,,,,,,3,11,66,,,
48855,control_change,8,0,14,,,,,,,,,13,11,54,,,
48856,note_on,0,0,1,,,,,,,,,0,,,,88,116
48856,note_on,7,0,1,,,,,,,,,0,,,,89,0
48856,control_change,16,0,11,,,,,,,,,10,11,53,,,
48857,note_on,0,0,3,,,,,,,,,2,,,,76,116
48857,note_on,7,0,3,,,,,,,,,2,,,,77,0
48865,control_change,9,0,1,,,,,,,,,0,11,62,,,
48865,control_change,16,0,5,,,,,,,,,4,11,64,,,
48866,control_change,16,0,2,,,,,,,,,1,11,62,,,
48866,control_change,16,0,12,,,,,,,,,11,11,52,,,
48866,control_change,9,0,3,,,,,,,,,2,11,62,,,
48868,control_change,16,0,8,,,,,,,,,7,11,59,,,
48869,control_change,16,0,13,,,,,,,,,12,11,52,,,
48870,note_on,14,0,11,,,,,,,,,10,,,,84,0
48870,control_change,16,0,9,,,,,,,,,8,11,59,,,
48871,control_change,16,0,14,,,,,,,,,13,11,52,,,
48871,control_change,16,0,4,,,,,,,,,3,11,64,,,
48872,note_on,6,0,12,,,,,,,,,11,,,,64,0
48872,control_change,2,0,11,,,,,,,,,10,11,51,,,
48872,note_on,0,0,12,,,,,,,,,11,,,,60,0
48872,note_on,6,0,2,,,,,,,,,1,,,,72,0
48875,note_on,6,0,13,,,,,,,,,12,,,,64,0
48876,note_on,11,0,1,,,,,,,,,0,,,,88,0
48877,note_on,6,0,4,,,,,,,,,3,,,,60,0
48877,note_on,6,0,14,,,,,,,,,13,,,,52,0
48877,note_on,11,0,3,,,,,,,,,2,,,,76,0
48879,note_on,30,0,15,,,,,,,,,14,,,,40,0
48881,control_change,16,0,5,,,,,,,,,4,11,62,,,
48881,control_change,5,0,1,,,,,,,,,0,11,60,,,
48882,control_change,10,0,2,,,,,,,,,1,11,60,,,
48882,control_change,5,0,3,,,,,,,,,2,11,60,,,
48882,control_change,10,0,12,,,,,,,,,11,11,50,,,
48884,note_on,16,0,8,,,,,,,,,7,,,,60,0
48884,control_change,0,0,8,,,,,,,,,7,11,57,,,
48884,note_on,0,0,8,,,,,,,,,7,,,,64,0
48885,control_change,10,0,13,,,,,,,,,12,11,50,,,
48886,note_on,16,0,9,,,,,,,,,8,,,,52,0
48886,control_change,0,0,9,,,,,,,,,8,11,57,,,
48886,note_on,5,0,5,,,,,,,,,4,,,,64,0
48887,control_change,10,0,14,,,,,,,,,13,11,50,,,
48887,control_change,10,0,4,,,,,,,,,3,11,62,,,
48888,control_change,16,0,11,,,,,,,,,10,11,49,,,
48897,control_change,16,0,1,,,,,,,,,0,11,59,,,
48897,control_change,11,0,5,,,,,,,,,4,11,60,,,
48898,control_change,16,0,3,,,,,,,,,2,11,59,,,
48898,control_change,16,0,2,,,,,,,,,1,11,59,,,
48898,control_change,16,0,12,,,,,,,,,11,11,48,,,
48900,control_change,16,0,8,,,,,,,,,7,11,55,,,
48900,set_tempo,60,1,0,,,,,,1153846,,,,,,,,
48900,note_on,12,0,11,,,,,,,,,10,,,,83,112
48901,control_change,16,0,13,,,,,,,,,12,11,48,,,
48901,note_on,4,0,5,,,,,,,,,4,,,,64,100
48901,note_on,4,0,1,,,,,,,,,0,,,,88,101
48902,note_on,4,0,12,,,,,,,,,11,,,,59,112
48902,note_on,4,0,2,,,,,,,,,1,,,,71,100
48902,note_on,0,0,12,,,,,,,,,11,,,,68,112
48902,note_on,4,0,3,,,,,,,,,2,,,,76,101
48902,control_change,16,0,9,,,,,,,,,8,11,55,,,
48903,control_change,16,0,4,,,,,,,,,3,11,60,,,
48903,control_change,16,0,14,,,,,,,,,13,11,48,,,
48904,note_on,4,0,8,,,,,,,,,7,,,,59,110
48904,note_on,0,0,8,,,,,,,,,7,,,,62,110
48904,control_change,4,0,11,,,,,,,,,10,11,47,,,
48905,note_on,0,0,13,,,,,,,,,12,,,,64,112
48905,note_on,4,0,13,,,,,,,,,12,,,,62,112
48906,note_on,4,0,9,,,,,,,,,8,,,,52,110
48907,note_on,4,0,14,,,,,,,,,13,,,,52,112
48907,note_on,4,0,4,,,,,,,,,3,,,,59,100
48909,note_on,30,0,15,,,,,,,,,14,,,,40,112
48913,control_change,12,0,1,,,,,,,,,0,11,57,,,
48913,control_change,12,0,5,,,,,,,,,4,11,58,,,
48914,control_change,12,0,12,,,,,,,,,11,11,46,,,
48914,control_change,12,0,3,,,,,,,,,2,11,57,,,
48914,control_change,12,0,2,,,,,,,,,1,11,57,,,
48916,control_change,12,0,8,,,,,,,,,7,11,53,,,
48917,control_change,12,0,13,,,,,,,,,12,11,46,,,
48918,control_change,12,0,9,,,,,,,,,8,11,53,,,
48919,control_change,12,0,4,,,,,,,,,3,11,58,,,
48919,control_change,12,0,14,,,,,,,,,13,11,46,,,
48920,control_change,16,0,11,,,,,,,,,10,11,45,,,
48929,control_change,16,0,5,,,,,,,,,4,11,56,,,
48929,control_change,16,0,1,,,,,,,,,0,11,56,,,
48930,control_change,16,0,3,,,,,,,,,2,11,56,,,
48930,control_change,16,0,12,,,,,,,,,11,11,44,,,
48930,note_on,10,0,11,,,,,,,,,10,,,,83,0
48930,set_tempo,30,1,0,,,,,,1500000,,,,,,,,
48930,control_change,16,0,2,,,,,,,,,1,11,56,,,
48931,note_on,2,0,1,,,,,,,,,0,,,,88,0
48932,control_change,16,0,8,,,,,,,,,7,11,51,,,
48932,note_on,2,0,12,,,,,,,,,11,,,,68,0
48932,note_on,0,0,12,,,,,,,,,11,,,,59,0
48932,note_on,2,0,3,,,,,,,,,2,,,,76,0
48932,note_on,2,0,2,,,,,,,,,1,,,,71,0
48933,control_change,16,0,13,,,,,,,,,12,11,44,,,
48934,control_change,16,0,9,,,,,,,,,8,11,51,,,
48935,control_change,16,0,4,,,,,,,,,3,11,56,,,
48935,control_change,16,0,14,,,,,,,,,13,11,44,,,
48935,note_on,0,0,13,,,,,,,,,12,,,,62,0
48935,note_on,2,0,13,,,,,,,,,12,,,,64,0
48936,control_change,6,0,11,,,,,,,,,10,11,43,,,
48937,note_on,2,0,4,,,,,,,,,3,,,,59,0
48937,note_on,2,0,14,,,,,,,,,13,,,,52,0
48939,note_on,30,0,15,,,,,,,,,14,,,,40,0
48944,note_on,12,0,8,,,,,,,,,7,,,,62,0
48944,note_on,0,0,8,,,,,,,,,7,,,,59,0
48945,control_change,14,0,1,,,,,,,,,0,11,54,,,
48945,control_change,16,0,5,,,,,,,,,4,11,54,,,
48946,note_on,12,0,9,,,,,,,,,8,,,,52,0
48946,note_on,1,0,5,,,,,,,,,4,,,,64,0
48946,control_change,14,0,3,,,,,,,,,2,11,54,,,
48946,control_change,14,0,2,,,,,,,,,1,11,54,,,
48946,control_change,14,0,12,,,,,,,,,11,11,42,,,
48948,control_change,4,0,8,,,,,,,,,7,11,49,,,
48949,control_change,14,0,13,,,,,,,,,12,11,42,,,
48950,control_change,4,0,9,,,,,,,,,8,11,49,,,
48951,control_change,14,0,4,,,,,,,,,3,11,54,,,
48951,control_change,14,0,14,,,,,,,,,13,11,42,,,
48952,control_change,16,0,11,,,,,,,,,10,11,42,,,
48960,control_change,8,0,11,,,,,,,,,10,11,36,,,
48960,set_tempo,30,1,0,,,,,,1224490,,,,,,,,
48960,note_on,0,0,11,,,,,,,,,10,,,,81,80
48961,control_change,16,0,1,,,,,,,,,0,11,52,,,
48961,note_on,0,0,1,,,,,,,,,0,,,,81,101
48961,control_change,15,0,5,,,,,,,,,4,11,52,,,
48962,control_change,16,0,3,,,,,,,,,2,11,52,,,
48962,note_on,0,0,12,,,,,,,,,11,,,,61,80
48962,control_change,0,0,2,,,,,,,,,1,11,52,,,
48962,note_on,16,0,2,,,,,,,,,1,,,,69,100
48962,note_on,0,0,12,,,,,,,,,11,,,,69,80
48962,control_change,1260,0,7,,,,,,,,,6,11,47,,,
48962,note_on,0,0,7,,,,,,,,,6,,,,61,112
48962,control_change,16,0,12,,,,,,,,,11,11,36,,,
48962,note_on,0,0,3,,,,,,,,,2,,,,69,101
48964,control_change,16,0,8,,,,,,,,,7,11,47,,,
48964,note_on,0,0,8,,,,,,,,,7,,,,57,110
48964,note_on,0,0,8,,,,,,,,,7,,,,61,110
48965,note_on,0,0,13,,,,,,,,,12,,,,61,97
48965,note_on,0,0,13,,,,,,,,,12,,,,64,97
48965,control_change,16,0,13,,,,,,,,,12,11,36,,,
48966,note_on,0,0,9,,,,,,,,,8,,,,45,110
48966,control_change,16,0,9,,,,,,,,,8,11,47,,,
48967,note_on,0,0,14,,,,,,,,,13,,,,45,112
48967,control_change,16,0,14,,,,,,,,,13,11,41,,,
48967,note_on,0,0,4,,,,,,,,,3,,,,57,100
48967,control_change,16,0,4,,,,,,,,,3,11,52,,,
48969,control_change,30,0,15,,,,,,,,,14,11,41,,,
48969,note_on,0,0,15,,,,,,,,,14,,,,33,112
48991,note_on,30,0,5,,,,,,,,,4,,,,52,100
48991,control_change,0,0,5,,,,,,,,,4,11,47,,,
49001,note_on,10,0,5,,,,,,,,,4,,,,52,0
49006,note_on,5,0,5,,,,,,,,,4,,,,52,100
49016,note_on,10,0,5,,,,,,,,,4,,,,52,0
49020,note_on,60,0,11,,,,,,,,,10,,,,81,0
49020,set_tempo,60,1,0,,,,,,1142857,,,,,,,,
49021,note_on,5,0,5,,,,,,,,,4,,,,52,100
49021,note_on,60,0,1,,,,,,,,,0,,,,81,0
49022,control_change,0,0,12,,,,,,,,,11,11,41,,,
49022,note_on,0,0,12,,,,,,,,,11,,,,64,112
49022,note_on,0,0,12,,,,,,,,,11,,,,69,0
49022,note_on,60,0,2,,,,,,,,,1,,,,69,0
49022,note_on,60,0,12,,,,,,,,,11,,,,61,0
49024,note_on,60,0,8,,,,,,,,,7,,,,57,0
49024,note_on,0,0,8,,,,,,,,,7,,,,61,0
49025,control_change,0,0,13,,,,,,,,,12,11,41,,,
49025,note_on,0,0,13,,,,,,,,,12,,,,52,112
49025,note_on,0,0,13,,,,,,,,,12,,,,61,0
49025,note_on,60,0,13,,,,,,,,,12,,,,64,0
49026,note_on,60,0,9,,,,,,,,,8,,,,45,0
49027,note_on,60,0,4,,,,,,,,,3,,,,57,0
49061,note_on,40,0,5,,,,,,,,,4,,,,52,0
49066,note_on,5,0,5,,,,,,,,,4,,,,52,100
49076,note_on,10,0,5,,,,,,,,,4,,,,52,0
49080,set_tempo,60,1,0,,,,,,1224490,,,,,,,,
49081,note_on,5,0,5,,,,,,,,,4,,,,52,100
49082,note_on,0,0,7,,,,,,,,,6,,,,64,112
49082,note_on,120,0,7,,,,,,,,,6,,,,61,0
49082,note_on,60,0,12,,,,,,,,,11,,,,64,0
49082,note_on,0,0,12,,,,,,,,,11,,,,62,112
49082,note_on,120,0,3,,,,,,,,,2,,,,69,0
49082,note_on,0,0,3,,,,,,,,,2,,,,71,101
49085,note_on,0,0,13,,,,,,,,,12,,,,56,112
49085,note_on,60,0,13,,,,,,,,,12,,,,52,0
49110,control_change,90,0,11,,,,,,,,,10,11,41,,,
49110,note_on,0,0,11,,,,,,,,,10,,,,64,112
49136,note_on,55,0,5,,,,,,,,,4,,,,52,0
49140,set_tempo,60,1,0,,,,,,1121495,,,,,,,,
49140,note_on,30,0,11,,,,,,,,,10,,,,64,0
49140,note_on,0,0,11,,,,,,,,,10,,,,76,92
49141,note_on,5,0,5,,,,,,,,,4,,,,52,100
49142,note_on,60,0,12,,,,,,,,,11,,,,62,0
49142,note_on,0,0,12,,,,,,,,,11,,,,64,112
49145,note_on,60,0,13,,,,,,,,,12,,,,56,0
49145,note_on,0,0,13,,,,,,,,,12,,,,52,112
49170,note_on,30,0,11,,,,,,,,,10,,,,76,0
49170,note_on,0,0,11,,,,,,,,,10,,,,64,112
49196,note_on,55,0,5,,,,,,,,,4,,,,52,0
49200,note_on,30,0,11,,,,,,,,,10,,,,64,0
49200,set_tempo,60,1,0,,,,,,1200000,,,,,,,,
49200,note_on,0,0,11,,,,,,,,,10,,,,76,92
49202,note_on,0,0,12,,,,,,,,,11,,,,61,112
49202,note_on,60,0,12,,,,,,,,,11,,,,64,0
49202,note_on,0,0,7,,,,,,,,,6,,,,69,112
49202,note_on,120,0,3,,,,,,,,,2,,,,71,0
49202,note_on,0,0,3,,,,,,,,,2,,,,73,101
49202,note_on,120,0,7,,,,,,,,,6,,,,64,0
49205,note_on,0,0,13,,,,,,,,,12,,,,57,112
49205,note_on,60,0,13,,,,,,,,,12,,,,52,0
49231,note_on,35,0,5,,,,,,,,,4,,,,52,100
49241,note_on,10,0,5,,,,,,,,,4,,,,52,0
49246,note_on,5,0,5,,,,,,,,,4,,,,52,100
49256,note_on,10,0,5,,,,,,,,,4,,,,52,0
49260,note_on,60,0,11,,,,,,,,,10,,,,76,0
49260,set_tempo,60,1,0,,,,,,1111111,,,,,,,,
49260,note_on,0,0,11,,,,,,,,,10,,,,64,112
49261,note_on,5,0,5,,,,,,,,,4,,,,52,100
49262,note_on,60,0,3,,,,,,,,,2,,,,73,0
49262,note_on,0,0,12,,,,,,,,,11,,,,64,112
49262,note_on,60,0,12,,,,,,,,,11,,,,61,0
49262,note_on,0,0,3,,,,,,,,,2,,,,74,101
49265,note_on,0,0,13,,,,,,,,,12,,,,52,112
49265,note_on,60,0,13,,,,,,,,,12,,,,57,0
49290,note_on,30,0,11,,,,,,,,,10,,,,64,0
49292,note_on,30,0,3,,,,,,,,,2,,,,74,0
49292,note_on,0,0,3,,,,,,,,,2,,,,76,101
49301,note_on,40,0,5,,,,,,,,,4,,,,52,0
49306,note_on,5,0,5,,,,,,,,,4,,,,52,100
49316,note_on,10,0,5,,,,,,,,,4,,,,52,0
49317,note_on,115,0,7,,,,,,,,,6,,,,69,0
49317,note_on,25,0,3,,,,,,,,,2,,,,76,0
49320,set_tempo,60,1,0,,,,,,1188119,,,,,,,,
49321,note_on,5,0,5,,,,,,,,,4,,,,52,100
49322,note_on,0,0,12,,,,,,,,,11,,,,61,112
49322,note_on,5,0,3,,,,,,,,,2,,,,76,101
49322,note_on,5,0,7,,,,,,,,,6,,,,69,112
49322,note_on,60,0,12,,,,,,,,,11,,,,64,0
49325,note_on,60,0,13,,,,,,,,,12,,,,52,0
49325,note_on,0,0,13,,,,,,,,,12,,,,57,112
49350,note_on,60,0,11,,,,,,,,,10,,,,64,112
49352,note_on,30,0,7,,,,,,,,,6,,,,69,0
49376,note_on,55,0,5,,,,,,,,,4,,,,52,0
49380,note_on,30,0,11,,,,,,,,,10,,,,64,0
49380,note_on,0,0,11,,,,,,,,,10,,,,76,92
49380,set_tempo,60,1,0,,,,,,1111111,,,,,,,,
49381,note_on,5,0,5,,,,,,,,,4,,,,52,100
49382,note_on,30,0,7,,,,,,,,,6,,,,64,112
49382,note_on,60,0,12,,,,,,,,,11,,,,61,0
49382,note_on,0,0,12,,,,,,,,,11,,,,62,112
49382,note_on,60,0,3,,,,,,,,,2,,,,76,0
49382,note_on,0,0,3,,,,,,,,,2,,,,68,101
49385,note_on,0,0,13,,,,,,,,,12,,,,59,112
49385,note_on,60,0,13,,,,,,,,,12,,,,57,0
49387,note_on,420,0,14,,,,,,,,,13,,,,45,0
49387,control_change,0,0,14,,,,,,,,,13,11,55,,,
49387,note_on,0,0,14,,,,,,,,,13,,,,45,112
49389,control_change,0,0,15,,,,,,,,,14,11,55,,,
49389,note_on,0,0,15,,,,,,,,,14,,,,33,112
49389,note_on,420,0,15,,,,,,,,,14,,,,33,0
49397,note_on,10,0,14,,,,,,,,,13,,,,45,0
49399,note_on,10,0,15,,,,,,,,,14,,,,33,0
49402,note_on,5,0,14,,,,,,,,,13,,,,45,112
49404,note_on,5,0,15,,,,,,,,,14,,,,33,112
49410,note_on,0,0,11,,,,,,,,,10,,,,64,112
49410,note_on,30,0,11,,,,,,,,,10,,,,76,0
49412,note_on,10,0,14,,,,,,,,,13,,,,45,0
49412,note_on,30,0,7,,,,,,,,,6,,,,64,0
49414,note_on,10,0,15,,,,,,,,,14,,,,33,0
49417,note_on,5,0,14,,,,,,,,,13,,,,45,112
49419,note_on,5,0,15,,,,,,,,,14,,,,33,112
49427,note_on,10,0,14,,,,,,,,,13,,,,45,0
49429,note_on,10,0,15,,,,,,,,,14,,,,33,0
49432,note_on,5,0,14,,,,,,,,,13,,,,45,112
49434,note_on,5,0,15,,,,,,,,,14,,,,33,112
49436,note_on,55,0,5,,,,,,,,,4,,,,52,0
49437,note_on,55,0,12,,,,,,,,,11,,,,62,0
49440,set_tempo,60,1,0,,,,,,1200000,,,,,,,,
49440,note_on,30,0,11,,,,,,,,,10,,,,64,0
49440,note_on,0,0,11,,,,,,,,,10,,,,73,92
49440,note_on,55,0,13,,,,,,,,,12,,,,59,0
49442,note_on,0,0,3,,,,,,,,,2,,,,69,101
49442,note_on,420,0,2,,,,,,,,,1,,,,69,100
49442,note_on,60,0,3,,,,,,,,,2,,,,68,0
49442,note_on,30,0,7,,,,,,,,,6,,,,61,112
49442,note_on,5,0,12,,,,,,,,,11,,,,61,112
49442,control_change,0,0,2,,,,,,,,,1,11,52,,,
49442,note_on,10,0,14,,,,,,,,,13,,,,45,0
49444,note_on,10,0,15,,,,,,,,,14,,,,33,0
49445,note_on,5,0,13,,,,,,,,,12,,,,57,112
49447,control_change,5,0,14,,,,,,,,,13,11,41,,,
49447,note_on,0,0,14,,,,,,,,,13,,,,45,112
49449,note_on,0,0,15,,,,,,,,,14,,,,33,112
49449,control_change,5,0,15,,,,,,,,,14,11,41,,,
49471,note_on,35,0,5,,,,,,,,,4,,,,52,100
49481,note_on,10,0,5,,,,,,,,,4,,,,52,0
49486,note_on,5,0,5,,,,,,,,,4,,,,52,100
49496,note_on,10,0,5,,,,,,,,,4,,,,52,0
49500,note_on,0,0,11,,,,,,,,,10,,,,64,112
49500,note_on,60,0,11,,,,,,,,,10,,,,73,0
49500,set_tempo,60,1,0,,,,,,1111111,,,,,,,,
49501,note_on,5,0,5,,,,,,,,,4,,,,52,100
49502,note_on,0,0,12,,,,,,,,,11,,,,64,112
49502,note_on,60,0,12,,,,,,,,,11,,,,61,0
49502,note_on,60,0,3,,,,,,,,,2,,,,69,0
49505,note_on,60,0,13,,,,,,,,,12,,,,57,0
49505,note_on,0,0,13,,,,,,,,,12,,,,52,112
49530,note_on,30,0,11,,,,,,,,,10,,,,64,0
49541,note_on,40,0,5,,,,,,,,,4,,,,52,0
49546,note_on,5,0,5,,,,,,,,,4,,,,52,100
49556,note_on,10,0,5,,,,,,,,,4,,,,52,0
49560,set_tempo,60,1,0,,,,,,1188119,,,,,,,,
49561,note_on,5,0,5,,,,,,,,,4,,,,52,100
49562,note_on,60,0,12,,,,,,,,,11,,,,64,0
49562,note_on,0,0,2,,,,,,,,,1,,,,71,100
49562,note_on,120,0,2,,,,,,,,,1,,,,69,0
49562,note_on,0,0,7,,,,,,,,,6,,,,64,112
49562,note_on,120,0,7,,,,,,,,,6,,,,61,0
49562,note_on,0,0,12,,,,,,,,,11,,,,62,112
49565,note_on,0,0,13,,,,,,,,,12,,,,56,112
49565,note_on,60,0,13,,,,,,,,,12,,,,52,0
49567,note_on,120,0,14,,,,,,,,,13,,,,45,0
49590,note_on,60,0,11,,,,,,,,,10,,,,64,112
49616,note_on,55,0,5,,,,,,,,,4,,,,52,0
49620,note_on,0,0,11,,,,,,,,,10,,,,76,92
49620,note_on,30,0,11,,,,,,,,,10,,,,64,0
49620,set_tempo,60,1,0,,,,,,1111111,,,,,,,,
49621,note_on,5,0,5,,,,,,,,,4,,,,52,100
49622,note_on,60,0,12,,,,,,,,,11,,,,62,0
49622,note_on,0,0,12,,,,,,,,,11,,,,64,112
49625,note_on,0,0,13,,,,,,,,,12,,,,52,112
49625,note_on,60,0,13,,,,,,,,,12,,,,56,0
49650,note_on,30,0,11,,,,,,,,,10,,,,76,0
49650,note_on,0,0,11,,,,,,,,,10,,,,64,112
49676,note_on,55,0,5,,,,,,,,,4,,,,52,0
49680,set_tempo,60,1,0,,,,,,1200000,,,,,,,,
49680,note_on,30,0,11,,,,,,,,,10,,,,64,0
49680,note_on,0,0,11,,,,,,,,,10,,,,76,92
49682,note_on,60,0,12,,,,,,,,,11,,,,64,0
49682,note_on,0,0,12,,,,,,,,,11,,,,61,112
49682,note_on,0,0,7,,,,,,,,,6,,,,69,112
49682,note_on,120,0,7,,,,,,,,,6,,,,64,0
49682,note_on,180,0,3,,,,,,,,,2,,,,69,101
49682,note_on,120,0,2,,,,,,,,,1,,,,71,0
49682,note_on,0,0,2,,,,,,,,,1,,,,73,100
49685,note_on,0,0,13,,,,,,,,,12,,,,57,112
49685,note_on,60,0,13,,,,,,,,,12,,,,52,0
49687,note_on,0,0,14,,,,,,,,,13,,,,61,112
49687,control_change,0,0,14,,,,,,,,,13,1,30,,,
49687,control_change,0,0,14,,,,,,,,,13,11,45,,,
49687,control_change,120,0,14,,,,,,,,,13,91,1,,,
49699,control_change,12,0,14,,,,,,,,,13,11,48,,,
49711,control_change,12,0,14,,,,,,,,,13,11,51,,,
49711,note_on,35,0,5,,,,,,,,,4,,,,52,100
49721,note_on,10,0,5,,,,,,,,,4,,,,52,0
49723,control_change,12,0,14,,,,,,,,,13,11,54,,,
49726,note_on,5,0,5,,,,,,,,,4,,,,52,100
49735,control_change,12,0,14,,,,,,,,,13,11,57,,,
49736,note_on,10,0,5,,,,,,,,,4,,,,52,0
49740,set_tempo,60,1,0,,,,,,1132075,,,,,,,,
49740,note_on,60,0,11,,,,,,,,,10,,,,76,0
49740,note_on,0,0,11,,,,,,,,,10,,,,64,112
49741,note_on,5,0,5,,,,,,,,,4,,,,52,100
49742,note_on,60,0,12,,,,,,,,,11,,,,61,0
49742,note_on,0,0,12,,,,,,,,,11,,,,64,112
49745,note_on,60,0,13,,,,,,,,,12,,,,57,0
49745,note_on,0,0,13,,,,,,,,,12,,,,52,112
49747,note_on,12,0,14,,,,,,,,,13,,,,61,0
49747,note_on,0,0,14,,,,,,,,,13,,,,69,112
49759,control_change,12,0,14,,,,,,,,,13,11,60,,,
49770,note_on,30,0,11,,,,,,,,,10,,,,64,0
49781,note_on,40,0,5,,,,,,,,,4,,,,52,0
49783,control_change,24,0,14,,,,,,,,,13,11,67,,,
49786,note_on,5,0,5,,,,,,,,,4,,,,52,100
49795,control_change,12,0,14,,,,,,,,,13,11,71,,,
49796,note_on,10,0,5,,,,,,,,,4,,,,52,0
49800,set_tempo,60,1,0,,,,,,1188119,,,,,,,,
49801,note_on,5,0,5,,,,,,,,,4,,,,52,100
49802,note_on,120,0,3,,,,,,,,,2,,,,69,0
49802,note_on,0,0,3,,,,,,,,,2,,,,71,101
49802,note_on,0,0,2,,,,,,,,,1,,,,76,100
49802,note_on,0,0,12,,,,,,,,,11,,,,62,112
49802,note_on,60,0,12,,,,,,,,,11,,,,64,0
49802,note_on,120,0,7,,,,,,,,,6,,,,69,0
49802,note_on,0,0,7,,,,,,,,,6,,,,64,112
49802,note_on,120,0,2,,,,,,,,,1,,,,73,0
49805,note_on,0,0,13,,,,,,,,,12,,,,56,112
49805,note_on,60,0,13,,,,,,,,,12,,,,52,0
49807,note_on,0,0,14,,,,,,,,,13,,,,68,112
49807,note_on,12,0,14,,,,,,,,,13,,,,69,0
49830,note_on,60,0,11,,,,,,,,,10,,,,64,112
49831,control_change,24,0,14,,,,,,,,,13,11,72,,,
49855,control_change,24,0,14,,,,,,,,,13,11,70,,,
49856,note_on,55,0,5,,,,,,,,,4,,,,52,0
49860,note_on,0,0,11,,,,,,,,,10,,,,76,92
49860,note_on,30,0,11,,,,,,,,,10,,,,64,0
49860,set_tempo,60,1,0,,,,,,1153846,,,,,,,,
49861,note_on,5,0,5,,,,,,,,,4,,,,52,100
49862,note_on,60,0,12,,,,,,,,,11,,,,62,0
49862,note_on,0,0,12,,,,,,,,,11,,,,64,112
49865,note_on,0,0,13,,,,,,,,,12,,,,52,112
49865,note_on,60,0,13,,,,,,,,,12,,,,56,0
49867,note_on,12,0,14,,,,,,,,,13,,,,68,0
49867,note_on,0,0,14,,,,,,,,,13,,,,66,112
49869,control_change,0,0,15,,,,,,,,,14,11,55,,,
49869,note_on,0,0,15,,,,,,,,,14,,,,33,112
49869,note_on,420,0,15,,,,,,,,,14,,,,33,0
49879,note_on,10,0,15,,,,,,,,,14,,,,33,0
49879,control_change,12,0,14,,,,,,,,,13,11,68,,,
49884,note_on,5,0,15,,,,,,,,,14,,,,33,112
49890,note_on,30,0,11,,,,,,,,,10,,,,76,0
49890,note_on,0,0,11,,,,,,,,,10,,,,64,112
49894,note_on,10,0,15,,,,,,,,,14,,,,33,0
49899,note_on,5,0,15,,,,,,,,,14,,,,33,112
49903,control_change,24,0,14,,,,,,,,,13,11,66,,,
49909,note_on,10,0,15,,,,,,,,,14,,,,33,0
49914,note_on,5,0,15,,,,,,,,,14,,,,33,112
49916,note_on,55,0,5,,,,,,,,,4,,,,52,0
49917,note_on,55,0,12,,,,,,,,,11,,,,64,0
49917,note_on,115,0,3,,,,,,,,,2,,,,71,0
49917,note_on,115,0,2,,,,,,,,,1,,,,76,0
49920,note_on,0,0,11,,,,,,,,,10,,,,76,92
49920,note_on,55,0,13,,,,,,,,,12,,,,52,0
49920,note_on,30,0,11,,,,,,,,,10,,,,64,0
49920,set_tempo,60,1,0,,,,,,1200000,,,,,,,,
49922,note_on,5,0,2,,,,,,,,,1,,,,81,100
49922,note_on,5,0,3,,,,,,,,,2,,,,73,101
49922,note_on,0,0,7,,,,,,,,,6,,,,69,112
49922,note_on,120,0,7,,,,,,,,,6,,,,64,0
49922,note_on,5,0,12,,,,,,,,,11,,,,61,112
49922,note_on,19,0,14,,,,,,,,,13,,,,66,0
49924,note_on,10,0,15,,,,,,,,,14,,,,33,0
49925,note_on,5,0,13,,,,,,,,,12,,,,57,112
49927,control_change,5,0,14,,,,,,,,,13,11,64,,,
49927,note_on,0,0,14,,,,,,,,,13,,,,64,112
49929,control_change,5,0,15,,,,,,,,,14,11,41,,,
49929,note_on,0,0,15,,,,,,,,,14,,,,33,112
49951,note_on,35,0,5,,,,,,,,,4,,,,52,100
49961,note_on,10,0,5,,,,,,,,,4,,,,52,0
49966,note_on,5,0,5,,,,,,,,,4,,,,52,100
49976,note_on,10,0,5,,,,,,,,,4,,,,52,0
49980,set_tempo,60,1,0,,,,,,1153846,,,,,,,,
49980,note_on,0,0,11,,,,,,,,,10,,,,64,112
49980,note_on,60,0,11,,,,,,,,,10,,,,76,0
49981,note_on,5,0,5,,,,,,,,,4,,,,52,100
49982,note_on,0,0,12,,,,,,,,,11,,,,64,112
49982,note_on,60,0,2,,,,,,,,,1,,,,81,0
49982,note_on,60,0,7,,,,,,,,,6,,,,69,0
49982,note_on,0,0,7,,,,,,,,,6,,,,64,112
49982,note_on,0,0,2,,,,,,,,,1,,,,83,100
49982,note_on,60,0,3,,,,,,,,,2,,,,73,0
49982,note_on,60,0,12,,,,,,,,,11,,,,61,0
49982,note_on,0,0,3,,,,,,,,,2,,,,74,101
49985,note_on,60,0,13,,,,,,,,,12,,,,57,0
49985,note_on,0,0,13,,,,,,,,,12,,,,52,112
49987,note_on,0,0,14,,,,,,,,,13,,,,62,112
49987,note_on,60,0,14,,,,,,,,,13,,,,64,0
50010,note_on,30,0,11,,,,,,,,,10,,,,64,0
50012,note_on,30,0,3,,,,,,,,,2,,,,74,0
50012,note_on,30,0,2,,,,,,,,,1,,,,83,0
50012,note_on,0,0,2,,,,,,,,,1,,,,85,100
50012,note_on,30,0,7,,,,,,,,,6,,,,64,0
50012,note_on,0,0,7,,,,,,,,,6,,,,61,112
50012,note_on,0,0,3,,,,,,,,,2,,,,76,101
50017,note_on,30,0,14,,,,,,,,,13,,,,62,0
50017,note_on,0,0,14,,,,,,,,,13,,,,61,112
50021,note_on,40,0,5,,,,,,,,,4,,,,52,0
50026,note_on,5,0,5,,,,,,,,,4,,,,52,100
50036,note_on,10,0,5,,,,,,,,,4,,,,52,0
50037,note_on,25,0,3,,,,,,,,,2,,,,76,0
50037,note_on,25,0,2,,,,,,,,,1,,,,85,0
50040,set_tempo,60,1,0,,,,,,1237113,,,,,,,,
50041,note_on,5,0,5,,,,,,,,,4,,,,52,100
50042,note_on,30,0,7,,,,,,,,,6,,,,61,0
50042,note_on,5,0,3,,,,,,,,,2,,,,76,101
50042,note_on,0,0,2,,,,,,,,,1,,,,81,100
50042,note_on,0,0,7,,,,,,,,,6,,,,64,112
50042,note_on,0,0,3,,,,,,,,,2,,,,73,101
50042,note_on,60,0,12,,,,,,,,,11,,,,64,0
50042,note_on,0,0,12,,,,,,,,,11,,,,61,112
50042,note_on,5,0,2,,,,,,,,,1,,,,85,100
50045,note_on,0,0,13,,,,,,,,,12,,,,57,112
50045,note_on,60,0,13,,,,,,,,,12,,,,52,0
50047,note_on,0,0,14,,,,,,,,,13,,,,64,112
50047,note_on,30,0,14,,,,,,,,,13,,,,61,0
50070,note_on,60,0,11,,,,,,,,,10,,,,64,112
50072,note_on,30,0,7,,,,,,,,,6,,,,64,0
50072,note_on,30,0,2,,,,,,,,,1,,,,81,0
50072,note_on,0,0,2,,,,,,,,,1,,,,85,0
50072,note_on,30,0,3,,,,,,,,,2,,,,73,0
50072,note_on,0,0,3,,,,,,,,,2,,,,76,0
50096,note_on,55,0,5,,,,,,,,,4,,,,52,0
50100,set_tempo,60,1,0,,,,,,1153846,,,,,,,,
50100,note_on,0,0,11,,,,,,,,,10,,,,76,92
50100,note_on,30,0,11,,,,,,,,,10,,,,64,0
50101,note_on,5,0,5,,,,,,,,,4,,,,52,100
50102,note_on,30,0,7,,,,,,,,,6,,,,64,112
50102,note_on,0,0,3,,,,,,,,,2,,,,76,101
50102,note_on,0,0,12,,,,,,,,,11,,,,64,112
50102,note_on,0,0,2,,,,,,,,,1,,,,80,100
50102,note_on,30,0,3,,,,,,,,,2,,,,74,101
50102,note_on,60,0,12,,,,,,,,,11,,,,61,0
50102,note_on,30,0,2,,,,,,,,,1,,,,83,100
50105,note_on,0,0,13,,,,,,,,,12,,,,59,112
50105,note_on,60,0,13,,,,,,,,,12,,,,57,0
50107,note_on,60,0,14,,,,,,,,,13,,,,64,0
50107,note_on,0,0,14,,,,,,,,,13,,,,62,112
50109,control_change,0,0,15,,,,,,,,,14,11,55,,,
50109,note_on,180,0,15,,,,,,,,,14,,,,33,0
50109,note_on,0,0,15,,,,,,,,,14,,,,33,112
50124,note_on,15,0,15,,,,,,,,,14,,,,33,0
50124,note_on,0,0,15,,,,,,,,,14,,,,33,112
50130,set_tempo,30,1,0,,,,,,1379310,,,,,,,,
50130,note_on,30,0,11,,,,,,,,,10,,,,76,0
50130,note_on,0,0,11,,,,,,,,,10,,,,64,112
50132,note_on,30,0,3,,,,,,,,,2,,,,76,0
50132,note_on,30,0,2,,,,,,,,,1,,,,80,0
50132,note_on,0,0,2,,,,,,,,,1,,,,83,0
50132,note_on,0,0,3,,,,,,,,,2,,,,74,0
50132,note_on,30,0,7,,,,,,,,,6,,,,64,0
50139,note_on,0,0,15,,,,,,,,,14,,,,33,112
50139,note_on,15,0,15,,,,,,,,,14,,,,33,0
50154,note_on,0,0,15,,,,,,,,,14,,,,33,112
50154,note_on,15,0,15,,,,,,,,,14,,,,33,0
50156,note_on,55,0,5,,,,,,,,,4,,,,52,0
50160,note_on,0,0,11,,,,,,,,,10,,,,73,112
50160,note_on,30,0,11,,,,,,,,,10,,,,64,0
50160,set_tempo,30,1,0,,,,,,1276596,,,,,,,,
50162,note_on,30,0,7,,,,,,,,,6,,,,69,112
50162,note_on,30,0,3,,,,,,,,,2,,,,76,116
50162,note_on,60,0,12,,,,,,,,,11,,,,64,0
50162,note_on,0,0,12,,,,,,,,,11,,,,61,112
50162,note_on,30,0,2,,,,,,,,,1,,,,81,115
50162,note_on,55,0,14,,,,,,,,,13,,,,62,0
50162,note_on,0,0,3,,,,,,,,,2,,,,73,116
50165,note_on,60,0,13,,,,,,,,,12,,,,59,0
50165,note_on,0,0,13,,,,,,,,,12,,,,57,112
50167,note_on,5,0,14,,,,,,,,,13,,,,61,112
50169,control_change,0,0,15,,,,,,,,,14,11,41,,,
50169,note_on,15,0,15,,,,,,,,,14,,,,33,0
50169,note_on,0,0,15,,,,,,,,,14,,,,33,112
50220,set_tempo,60,1,0,,,,,,1188119,,,,,,,,
50222,note_on,60,0,12,,,,,,,,,11,,,,61,0
50222,note_on,0,0,12,,,,,,,,,11,,,,64,112
50225,note_on,0,0,13,,,,,,,,,12,,,,52,112
50225,note_on,60,0,13,,,,,,,,,12,,,,57,0
50272,note_on,110,0,2,,,,,,,,,1,,,,81,0
50272,note_on,0,0,3,,,,,,,,,2,,,,76,0
50272,note_on,110,0,3,,,,,,,,,2,,,,73,0
50272,note_on,110,0,7,,,,,,,,,6,,,,69,0
50272,note_on,105,0,14,,,,,,,,,13,,,,61,0
50274,note_on,105,0,15,,,,,,,,,14,,,,33,0
50280,set_tempo,60,1,0,,,,,,1318681,,,,,,,,
50282,note_on,10,0,7,,,,,,,,,6,,,,69,112
50282,note_on,10,0,3,,,,,,,,,2,,,,76,116
50282,note_on,0,0,3,,,,,,,,,2,,,,73,116
50282,note_on,10,0,2,,,,,,,,,1,,,,81,115
50282,note_on,60,0,12,,,,,,,,,11,,,,64,0
50282,note_on,0,0,12,,,,,,,,,11,,,,61,112
50285,note_on,0,0,13,,,,,,,,,12,,,,57,112
50285,note_on,60,0,13,,,,,,,,,12,,,,52,0
50287,note_on,0,0,14,,,,,,,,,13,,,,61,112
50287,control_change,15,0,14,,,,,,,,,13,11,64,,,
50289,note_on,15,0,15,,,,,,,,,14,,,,33,112
50305,control_change,18,0,14,,,,,,,,,13,11,61,,,
50323,control_change,18,0,14,,,,,,,,,13,11,58,,,
50340,set_tempo,60,1,0,,,,,,1237113,,,,,,,,
50341,control_change,18,0,14,,,,,,,,,13,11,56,,,
50342,note_on,60,0,12,,,,,,,,,11,,,,61,0
50342,note_on,0,0,12,,,,,,,,,11,,,,64,112
50345,note_on,60,0,13,,,,,,,,,12,,,,57,0
50345,note_on,0,0,13,,,,,,,,,12,,,,52,112
50359,control_change,18,0,14,,,,,,,,,13,11,53,,,
50370,set_tempo,30,1,0,,,,,,1500000,,,,,,,,
50377,control_change,18,0,14,,,,,,,,,13,11,50,,,
50385,note_on,225,0,11,,,,,,,,,10,,,,73,0
50387,note_on,45,0,12,,,,,,,,,11,,,,64,0
50390,note_on,45,0,13,,,,,,,,,12,,,,52,0
50392,note_on,110,0,2,,,,,,,,,1,,,,81,0
50392,note_on,0,0,3,,,,,,,,,2,,,,76,0
50392,note_on,110,0,3,,,,,,,,,2,,,,73,0
50392,note_on,110,0,7,,,,,,,,,6,,,,69,0
50392,note_on,15,0,14,,,,,,,,,13,,,,61,0
50394,note_on,105,0,15,,,,,,,,,14,,,,33,0
50395,control_change,3,0,14,,,,,,,,,13,11,47,,,
50400,note_on,0,0,11,,,,,,,,,10,,,,88,112
50400,note_on,0,0,11,,,,,,,,,10,,,,76,112
50400,control_change,15,0,11,,,,,,,,,10,11,102,,,
50400,set_tempo,30,1,0,,,,,,1250000,,,,,,,,
50401,control_change,245,0,5,,,,,,,,,4,11,102,,,
50401,note_on,0,0,5,,,,,,,,,4,,,,64,100
50401,note_on,1380,0,1,,,,,,,,,0,,,,88,101
50401,note_on,0,0,1,,,,,,,,,0,,,,80,101
50401,control_change,0,0,1,,,,,,,,,0,11,91,,,
50402,note_on,0,0,12,,,,,,,,,11,,,,64,112
50402,note_on,0,0,7,,,,,,,,,6,,,,64,112
50402,control_change,0,0,2,,,,,,,,,1,11,91,,,
50402,note_on,0,0,2,,,,,,,,,1,,,,83,100
50402,control_change,10,0,3,,,,,,,,,2,11,91,,,
50402,note_on,0,0,3,,,,,,,,,2,,,,71,101
50402,note_on,0,0,3,,,,,,,,,2,,,,68,101
50402,note_on,10,0,2,,,,,,,,,1,,,,76,100
50402,control_change,15,0,12,,,,,,,,,11,11,102,,,
50402,note_on,0,0,7,,,,,,,,,6,,,,76,112
50402,control_change,10,0,7,,,,,,,,,6,11,102,,,
50402,note_on,0,0,12,,,,,,,,,11,,,,71,112
50402,note_on,0,0,12,,,,,,,,,11,,,,80,112
50403,control_change,0,0,6,,,,,,,,,5,11,102,,,
50403,note_on,2460,0,6,,,,,,,,,5,,,,52,100
50404,note_on,0,0,8,,,,,,,,,7,,,,59,110
50404,note_on,0,0,8,,,,,,,,,7,,,,56,110
50404,control_change,1380,0,8,,,,,,,,,7,11,102,,,
50405,control_change,15,0,13,,,,,,,,,12,11,102,,,
50405,note_on,0,0,13,,,,,,,,,12,,,,52,112
50405,note_on,0,0,13,,,,,,,,,12,,,,59,112
50405,note_on,0,0,13,,,,,,,,,12,,,,68,112
50406,control_change,1380,0,9,,,,,,,,,8,11,102,,,
50406,note_on,0,0,9,,,,,,,,,8,,,,52,110
50407,control_change,0,0,14,,,,,,,,,13,91,68,,,
50407,control_change,12,0,14,,,,,,,,,13,1,1,,,
50407,control_change,0,0,4,,,,,,,,,3,11,102,,,
50407,control_change,0,0,14,,,,,,,,,13,11,102,,,
50407,note_on,1380,0,4,,,,,,,,,3,,,,59,100
50407,note_on,0,0,14,,,,,,,,,13,,,,52,112
50407,note_on,0,0,4,,,,,,,,,3,,,,56,100
50408,note_on,3420,0,10,,,,,,,,,15,,,,52,82
50409,note_on,0,0,15,,,,,,,,,14,,,,40,112
50409,control_change,15,0,15,,,,,,,,,14,11,102,,,
50435,note_on,0,0,11,,,,,,,,,10,,,,88,0
50435,note_on,35,0,11,,,,,,,,,10,,,,76,0
50437,note_on,0,0,12,,,,,,,,,11,,,,64,0
50437,note_on,0,0,12,,,,,,,,,11,,,,71,0
50437,note_on,35,0,12,,,,,,,,,11,,,,80,0
50437,note_on,0,0,14,,,,,,,,,13,,,,64,112
50437,note_on,30,0,14,,,,,,,,,13,,,,52,0
50439,note_on,0,0,15,,,,,,,,,14,,,,52,112
50439,note_on,30,0,15,,,,,,,,,14,,,,40,0
50440,note_on,0,0,13,,,,,,,,,12,,,,52,0
50440,note_on,35,0,13,,,,,,,,,12,,,,68,0
50440,note_on,0,0,13,,,,,,,,,12,,,,59,0
50447,note_on,10,0,14,,,,,,,,,13,,,,64,0
50449,note_on,10,0,15,,,,,,,,,14,,,,52,0
50452,note_on,5,0,14,,,,,,,,,13,,,,64,112
50454,note_on,5,0,15,,,,,,,,,14,,,,52,112
50460,set_tempo,60,1,0,,,,,,1121495,,,,,,,,
50460,note_on,25,0,11,,,,,,,,,10,,,,83,112
50461,note_on,60,0,1,,,,,,,,,0,,,,80,0
50461,note_on,0,0,1,,,,,,,,,0,,,,88,0
50461,note_on,60,0,5,,,,,,,,,4,,,,64,0
50462,note_on,60,0,2,,,,,,,,,1,,,,83,0
50462,note_on,60,0,7,,,,,,,,,6,,,,64,0
50462,note_on,25,0,12,,,,,,,,,11,,,,80,112
50462,note_on,0,0,2,,,,,,,,,1,,,,76,0
50462,note_on,0,0,7,,,,,,,,,6,,,,76,0
50462,note_on,60,0,3,,,,,,,,,2,,,,68,0
50462,note_on,10,0,14,,,,,,,,,13,,,,64,0
50462,note_on,0,0,3,,,,,,,,,2,,,,71,0
50463,note_on,60,0,6,,,,,,,,,5,,,,52,0
50464,note_on,10,0,15,,,,,,,,,14,,,,52,0
50464,note_on,60,0,8,,,,,,,,,7,,,,59,0
50464,note_on,0,0,8,,,,,,,,,7,,,,56,0
50465,note_on,25,0,13,,,,,,,,,12,,,,76,112
50466,note_on,60,0,9,,,,,,,,,8,,,,52,0
50467,note_on,60,0,4,,,,,,,,,3,,,,56,0
50467,note_on,0,0,4,,,,,,,,,3,,,,59,0
50467,note_on,5,0,14,,,,,,,,,13,,,,64,112
50468,note_on,60,0,10,,,,,,,,,15,,,,52,0
50469,note_on,5,0,15,,,,,,,,,14,,,,52,112
50487,note_on,20,0,14,,,,,,,,,13,,,,64,0
50489,note_on,20,0,15,,,,,,,,,14,,,,52,0
50490,note_on,30,0,11,,,,,,,,,10,,,,83,0
50492,note_on,30,0,12,,,,,,,,,11,,,,80,0
50495,note_on,30,0,13,,,,,,,,,12,,,,76,0
50497,note_on,10,0,14,,,,,,,,,13,,,,64,112
50499,note_on,10,0,15,,,,,,,,,14,,,,52,112
50517,note_on,20,0,14,,,,,,,,,13,,,,64,0
50519,note_on,20,0,15,,,,,,,,,14,,,,52,0
50520,note_on,30,0,11,,,,,,,,,10,,,,83,112
50520,set_tempo,60,1,0,,,,,,1142857,,,,,,,,
50522,note_on,30,0,12,,,,,,,,,11,,,,81,112
50525,note_on,30,0,13,,,,,,,,,12,,,,75,112
50527,note_on,10,0,14,,,,,,,,,13,,,,66,112
50529,note_on,10,0,15,,,,,,,,,14,,,,54,112
50550,note_on,30,0,11,,,,,,,,,10,,,,83,0
50552,note_on,30,0,12,,,,,,,,,11,,,,81,0
50555,note_on,30,0,13,,,,,,,,,12,,,,75,0
50557,note_on,30,0,14,,,,,,,,,13,,,,66,0
50559,note_on,30,0,15,,,,,,,,,14,,,,54,0
50580,note_on,30,0,11,,,,,,,,,10,,,,83,112
50580,set_tempo,60,1,0,,,,,,1071429,,,,,,,,
50582,note_on,30,0,12,,,,,,,,,11,,,,81,112
50585,note_on,30,0,13,,,,,,,,,12,,,,75,112
50587,note_on,30,0,14,,,,,,,,,13,,,,59,112
50589,note_on,30,0,15,,,,,,,,,14,,,,47,112
50610,note_on,30,0,11,,,,,,,,,10,,,,83,0
50612,note_on,30,0,12,,,,,,,,,11,,,,81,0
50615,note_on,30,0,13,,,,,,,,,12,,,,75,0
50617,note_on,30,0,14,,,,,,,,,13,,,,59,0
50619,note_on,30,0,15,,,,,,,,,14,,,,47,0
50640,set_tempo,60,1,0,,,,,,1153846,,,,,,,,
50640,note_on,30,0,11,,,,,,,,,10,,,,83,112
50642,note_on,30,0,12,,,,,,,,,11,,,,80,112
50645,note_on,30,0,13,,,,,,,,,12,,,,76,112
50647,note_on,30,0,14,,,,,,,,,13,,,,64,112
50649,note_on,30,0,15,,,,,,,,,14,,,,52,112
50667,note_on,27,0,11,,,,,,,,,10,,,,83,0
50669,note_on,27,0,12,,,,,,,,,11,,,,80,0
50672,note_on,27,0,13,,,,,,,,,12,,,,76,0
50685,note_on,18,0,11,,,,,,,,,10,,,,81,112
50687,note_on,18,0,12,,,,,,,,,11,,,,78,112
50690,note_on,18,0,13,,,,,,,,,12,,,,76,112
50694,note_on,9,0,11,,,,,,,,,10,,,,81,0
50696,note_on,9,0,12,,,,,,,,,11,,,,78,0
50699,note_on,9,0,13,,,,,,,,,12,,,,76,0
50700,note_on,6,0,11,,,,,,,,,10,,,,83,112
50700,set_tempo,60,1,0,,,,,,1071429,,,,,,,,
50702,note_on,6,0,12,,,,,,,,,11,,,,80,112
50705,note_on,6,0,13,,,,,,,,,12,,,,76,112
50707,note_on,60,0,14,,,,,,,,,13,,,,64,0
50709,note_on,60,0,15,,,,,,,,,14,,,,52,0
50727,note_on,27,0,11,,,,,,,,,10,,,,83,0
50729,note_on,27,0,12,,,,,,,,,11,,,,80,0
50732,note_on,27,0,13,,,,,,,,,12,,,,76,0
50745,note_on,18,0,11,,,,,,,,,10,,,,84,112
50747,note_on,18,0,12,,,,,,,,,11,,,,81,112
50750,note_on,18,0,13,,,,,,,,,12,,,,76,112
50754,note_on,9,0,11,,,,,,,,,10,,,,84,0
50756,note_on,9,0,12,,,,,,,,,11,,,,81,0
50759,note_on,9,0,13,,,,,,,,,12,,,,76,0
50760,note_on,6,0,11,,,,,,,,,10,,,,83,112
50760,set_tempo,60,1,0,,,,,,1142857,,,,,,,,
50762,note_on,6,0,12,,,,,,,,,11,,,,80,112
50765,note_on,6,0,13,,,,,,,,,12,,,,76,112
50767,note_on,60,0,14,,,,,,,,,13,,,,52,112
50769,note_on,60,0,15,,,,,,,,,14,,,,40,112
50790,note_on,30,0,11,,,,,,,,,10,,,,83,0
50792,note_on,30,0,12,,,,,,,,,11,,,,80,0
50795,note_on,30,0,13,,,,,,,,,12,,,,76,0
50797,note_on,0,0,14,,,,,,,,,13,,,,54,112
50797,note_on,30,0,14,,,,,,,,,13,,,,52,0
50799,note_on,30,0,15,,,,,,,,,14,,,,40,0
50799,note_on,0,0,15,,,,,,,,,14,,,,42,112
50820,set_tempo,60,1,0,,,,,,1071429,,,,,,,,
50820,note_on,30,0,11,,,,,,,,,10,,,,83,112
50822,note_on,30,0,12,,,,,,,,,11,,,,80,112
50825,note_on,30,0,13,,,,,,,,,12,,,,76,112
50827,note_on,0,0,14,,,,,,,,,13,,,,56,112
50827,note_on,30,0,14,,,,,,,,,13,,,,54,0
50829,note_on,30,0,15,,,,,,,,,14,,,,42,0
50829,note_on,0,0,15,,,,,,,,,14,,,,44,112
50850,note_on,30,0,11,,,,,,,,,10,,,,83,0
50852,note_on,30,0,12,,,,,,,,,11,,,,80,0
50855,note_on,30,0,13,,,,,,,,,12,,,,76,0
50857,note_on,0,0,14,,,,,,,,,13,,,,54,112
50857,note_on,30,0,14,,,,,,,,,13,,,,56,0
50859,note_on,0,0,15,,,,,,,,,14,,,,42,112
50859,note_on,30,0,15,,,,,,,,,14,,,,44,0
50880,set_tempo,60,1,0,,,,,,1153846,,,,,,,,
50881,control_change,420,0,1,,,,,,,,,0,11,68,,,
50881,note_on,0,0,5,,,,,,,,,4,,,,64,100
50881,control_change,420,0,5,,,,,,,,,4,11,72,,,
50881,note_on,0,0,1,,,,,,,,,0,,,,79,101
50881,note_on,0,0,1,,,,,,,,,0,,,,88,101
50882,note_on,0,0,3,,,,,,,,,2,,,,67,101
50882,note_on,0,0,3,,,,,,,,,2,,,,71,101
50882,control_change,420,0,3,,,,,,,,,2,11,68,,,
50882,note_on,0,0,2,,,,,,,,,1,,,,76,100
50882,note_on,25,0,14,,,,,,,,,13,,,,54,0
50882,note_on,420,0,2,,,,,,,,,1,,,,83,100
50882,control_change,0,0,2,,,,,,,,,1,11,68,,,
50883,control_change,0,0,6,,,,,,,,,5,11,72,,,
50883,note_on,420,0,6,,,,,,,,,5,,,,52,100
50884,note_on,25,0,15,,,,,,,,,14,,,,42,0
50887,control_change,420,0,4,,,,,,,,,3,11,72,,,
50887,note_on,5,0,14,,,,,,,,,13,,,,52,112
50887,note_on,0,0,4,,,,,,,,,3,,,,55,100
50887,note_on,0,0,4,,,,,,,,,3,,,,59,100
50889,note_on,5,0,15,,,,,,,,,14,,,,40,112
50910,control_change,60,0,11,,,,,,,,,10,11,64,,,
50910,note_on,0,0,11,,,,,,,,,10,,,,64,112
50911,note_on,30,0,1,,,,,,,,,0,,,,79,0
50911,note_on,0,0,1,,,,,,,,,0,,,,88,0
50912,note_on,0,0,2,,,,,,,,,1,,,,83,0
50912,control_change,60,0,12,,,,,,,,,11,11,64,,,
50912,note_on,0,0,12,,,,,,,,,11,,,,64,112
50912,note_on,0,0,3,,,,,,,,,2,,,,71,0
50912,note_on,30,0,3,,,,,,,,,2,,,,67,0
50912,note_on,30,0,2,,,,,,,,,1,,,,76,0
50915,control_change,0,0,13,,,,,,,,,12,11,64,,,
50915,note_on,60,0,13,,,,,,,,,12,,,,64,112
50917,note_on,0,0,4,,,,,,,,,3,,,,59,0
50917,note_on,30,0,4,,,,,,,,,3,,,,55,0
50920,note_on,10,0,11,,,,,,,,,10,,,,64,0
50922,note_on,10,0,12,,,,,,,,,11,,,,64,0
50925,note_on,5,0,11,,,,,,,,,10,,,,64,112
50925,note_on,10,0,13,,,,,,,,,12,,,,64,0
50927,note_on,5,0,12,,,,,,,,,11,,,,64,112
50930,note_on,5,0,13,,,,,,,,,12,,,,64,112
50932,note_on,45,0,14,,,,,,,,,13,,,,52,0
50934,note_on,45,0,15,,,,,,,,,14,,,,40,0
50935,note_on,10,0,11,,,,,,,,,10,,,,64,0
50937,note_on,10,0,12,,,,,,,,,11,,,,64,0
50940,note_on,10,0,13,,,,,,,,,12,,,,64,0
50940,set_tempo,60,1,0,,,,,,1071429,,,,,,,,
50940,note_on,5,0,11,,,,,,,,,10,,,,64,112
50941,note_on,60,0,5,,,,,,,,,4,,,,64,0
50941,note_on,0,0,1,,,,,,,,,0,,,,83,101
50941,control_change,30,0,1,,,,,,,,,0,11,47,,,
50941,note_on,0,0,1,,,,,,,,,0,,,,79,101
50942,note_on,0,0,2,,,,,,,,,1,,,,71,100
50942,control_change,0,0,2,,,,,,,,,1,11,47,,,
50942,note_on,0,0,3,,,,,,,,,2,,,,71,101
50942,note_on,30,0,2,,,,,,,,,1,,,,76,100
50942,note_on,5,0,12,,,,,,,,,11,,,,64,112
50942,control_change,30,0,3,,,,,,,,,2,11,47,,,
50942,note_on,0,0,3,,,,,,,,,2,,,,67,101
50943,note_on,60,0,6,,,,,,,,,5,,,,52,0
50945,note_on,5,0,13,,,,,,,,,12,,,,64,112
50947,note_on,0,0,4,,,,,,,,,3,,,,64,100
50947,control_change,30,0,4,,,,,,,,,3,11,47,,,
50965,note_on,25,0,11,,,,,,,,,10,,,,64,0
50967,note_on,25,0,12,,,,,,,,,11,,,,64,0
50970,note_on,25,0,13,,,,,,,,,12,,,,64,0
50970,note_on,5,0,11,,,,,,,,,10,,,,64,112
50971,note_on,30,0,1,,,,,,,,,0,,,,79,0
50971,note_on,0,0,1,,,,,,,,,0,,,,83,0
50972,note_on,5,0,12,,,,,,,,,11,,,,64,112
50972,note_on,30,0,2,,,,,,,,,1,,,,71,0
50972,note_on,0,0,2,,,,,,,,,1,,,,76,0
50972,note_on,0,0,3,,,,,,,,,2,,,,71,0
50972,note_on,30,0,3,,,,,,,,,2,,,,67,0
50975,note_on,5,0,13,,,,,,,,,12,,,,64,112
50977,note_on,30,0,4,,,,,,,,,3,,,,64,0
50995,note_on,25,0,11,,,,,,,,,10,,,,64,0
50997,note_on,25,0,12,,,,,,,,,11,,,,64,0
51000,note_on,0,0,11,,,,,,,,,10,,,,66,112
51000,control_change,5,0,11,,,,,,,,,10,11,45,,,
51000,set_tempo,60,1,0,,,,,,1142857,,,,,,,,
51000,note_on,25,0,13,,,,,,,,,12,,,,64,0
51001,note_on,0,0,1,,,,,,,,,0,,,,81,101
51001,note_on,30,0,1,,,,,,,,,0,,,,83,101
51002,note_on,0,0,12,,,,,,,,,11,,,,66,112
51002,control_change,5,0,12,,,,,,,,,11,11,45,,,
51002,note_on,0,0,2,,,,,,,,,1,,,,75,100
51002,note_on,30,0,3,,,,,,,,,2,,,,71,101
51002,note_on,30,0,2,,,,,,,,,1,,,,71,100
51002,note_on,0,0,3,,,,,,,,,2,,,,69,101
51005,control_change,0,0,13,,,,,,,,,12,11,45,,,
51005,note_on,5,0,13,,,,,,,,,12,,,,66,112
51007,note_on,30,0,4,,,,,,,,,3,,,,63,100
51030,note_on,30,0,11,,,,,,,,,10,,,,66,0
51031,note_on,30,0,1,,,,,,,,,0,,,,81,0
51031,note_on,0,0,1,,,,,,,,,0,,,,83,0
51032,note_on,0,0,3,,,,,,,,,2,,,,71,0
51032,note_on,30,0,3,,,,,,,,,2,,,,69,0
51032,note_on,30,0,2,,,,,,,,,1,,,,75,0
51032,note_on,0,0,2,,,,,,,,,1,,,,71,0
51032,note_on,30,0,12,,,,,,,,,11,,,,66,0
51035,note_on,30,0,13,,,,,,,,,12,,,,66,0
51037,note_on,30,0,4,,,,,,,,,3,,,,63,0
51060,note_on,30,0,11,,,,,,,,,10,,,,59,112
51060,set_tempo,60,1,0,,,,,,1071429,,,,,,,,
51061,note_on,0,0,1,,,,,,,,,0,,,,81,101
51061,note_on,30,0,1,,,,,,,,,0,,,,83,101
51062,note_on,0,0,3,,,,,,,,,2,,,,69,101
51062,note_on,30,0,12,,,,,,,,,11,,,,59,112
51062,note_on,30,0,3,,,,,,,,,2,,,,71,101
51062,note_on,30,0,2,,,,,,,,,1,,,,71,100
51062,note_on,0,0,2,,,,,,,,,1,,,,75,100
51065,note_on,30,0,13,,,,,,,,,12,,,,59,112
51067,note_on,30,0,4,,,,,,,,,3,,,,63,100
51090,note_on,30,0,11,,,,,,,,,10,,,,59,0
51091,note_on,30,0,1,,,,,,,,,0,,,,81,0
51091,note_on,0,0,1,,,,,,,,,0,,,,83,0
51092,note_on,30,0,12,,,,,,,,,11,,,,59,0
51092,note_on,30,0,2,,,,,,,,,1,,,,75,0
51092,note_on,0,0,3,,,,,,,,,2,,,,71,0
51092,note_on,0,0,2,,,,,,,,,1,,,,71,0
51092,note_on,30,0,3,,,,,,,,,2,,,,69,0
51095,note_on,30,0,13,,,,,,,,,12,,,,59,0
51097,note_on,30,0,4,,,,,,,,,3,,,,63,0
51120,note_on,30,0,11,,,,,,,,,10,,,,64,112
51120,set_tempo,60,1,0,,,,,,1153846,,,,,,,,
51121,note_on,30,0,1,,,,,,,,,0,,,,83,101
51121,note_on,0,0,1,,,,,,,,,0,,,,79,101
51122,note_on,0,0,2,,,,,,,,,1,,,,76,100
51122,note_on,30,0,3,,,,,,,,,2,,,,71,101
51122,note_on,0,0,3,,,,,,,,,2,,,,67,101
51122,note_on,30,0,12,,,,,,,,,11,,,,64,112
51122,note_on,30,0,2,,,,,,,,,1,,,,71,100
51125,note_on,30,0,13,,,,,,,,,12,,,,64,112
51127,note_on,30,0,4,,,,,,,,,3,,,,64,100
51150,note_on,30,0,11,,,,,,,,,10,,,,64,0
51152,note_on,30,0,12,,,,,,,,,11,,,,64,0
51155,note_on,30,0,13,,,,,,,,,12,,,,64,0
51155,note_on,0,0,1,,,,,,,,,0,,,,83,0
51155,note_on,34,0,1,,,,,,,,,0,,,,79,0
51156,note_on,34,0,2,,,,,,,,,1,,,,71,0
51156,note_on,0,0,3,,,,,,,,,2,,,,71,0
51156,note_on,34,0,3,,,,,,,,,2,,,,67,0
51166,note_on,0,0,1,,,,,,,,,0,,,,81,101
51166,note_on,11,0,1,,,,,,,,,0,,,,78,101
51167,note_on,0,0,2,,,,,,,,,1,,,,69,100
51167,note_on,11,0,3,,,,,,,,,2,,,,66,101
51167,note_on,11,0,2,,,,,,,,,1,,,,76,0
51167,note_on,0,0,3,,,,,,,,,2,,,,69,101
51172,note_on,45,0,4,,,,,,,,,3,,,,64,0
51173,note_on,7,0,1,,,,,,,,,0,,,,81,0
51173,note_on,0,0,1,,,,,,,,,0,,,,78,0
51174,note_on,7,0,2,,,,,,,,,1,,,,69,0
51174,note_on,0,0,3,,,,,,,,,2,,,,66,0
51174,note_on,7,0,3,,,,,,,,,2,,,,69,0
51180,set_tempo,60,1,0,,,,,,1071429,,,,,,,,
51181,note_on,0,0,1,,,,,,,,,0,,,,79,101
51181,note_on,8,0,1,,,,,,,,,0,,,,83,101
51182,note_on,0,0,3,,,,,,,,,2,,,,67,101
51182,note_on,8,0,3,,,,,,,,,2,,,,71,101
51182,note_on,0,0,2,,,,,,,,,1,,,,71,100
51182,note_on,8,0,2,,,,,,,,,1,,,,76,100
51187,note_on,15,0,4,,,,,,,,,3,,,,64,100
51215,note_on,34,0,1,,,,,,,,,0,,,,79,0
51215,note_on,0,0,1,,,,,,,,,0,,,,83,0
51216,note_on,0,0,3,,,,,,,,,2,,,,71,0
51216,note_on,34,0,3,,,,,,,,,2,,,,67,0
51216,note_on,0,0,2,,,,,,,,,1,,,,76,0
51216,note_on,34,0,2,,,,,,,,,1,,,,71,0
51221,note_on,34,0,4,,,,,,,,,3,,,,64,0
51226,note_on,11,0,1,,,,,,,,,0,,,,84,101
51226,note_on,0,0,1,,,,,,,,,0,,,,81,101
51227,note_on,11,0,3,,,,,,,,,2,,,,72,101
51227,note_on,0,0,3,,,,,,,,,2,,,,69,101
51227,note_on,11,0,2,,,,,,,,,1,,,,76,100
51227,note_on,0,0,2,,,,,,,,,1,,,,72,100
51232,note_on,11,0,4,,,,,,,,,3,,,,64,100
51233,note_on,0,0,1,,,,,,,,,0,,,,84,0
51233,note_on,7,0,1,,,,,,,,,0,,,,81,0
51234,note_on,7,0,3,,,,,,,,,2,,,,69,0
51234,note_on,0,0,3,,,,,,,,,2,,,,72,0
51234,note_on,7,0,2,,,,,,,,,1,,,,72,0
51234,note_on,0,0,2,,,,,,,,,1,,,,76,0
51239,note_on,7,0,4,,,,,,,,,3,,,,64,0
51240,set_tempo,60,1,0,,,,,,1142857,,,,,,,,
51241,note_on,0,0,1,,,,,,,,,0,,,,79,101
51241,note_on,8,0,1,,,,,,,,,0,,,,83,101
51242,note_on,8,0,2,,,,,,,,,1,,,,76,100
51242,note_on,0,0,2,,,,,,,,,1,,,,71,100
51242,note_on,8,0,3,,,,,,,,,2,,,,71,101
51242,note_on,0,0,3,,,,,,,,,2,,,,67,101
51247,control_change,315,0,14,,,,,,,,,13,11,50,,,
51247,note_on,0,0,14,,,,,,,,,13,,,,52,112
51247,note_on,8,0,4,,,,,,,,,3,,,,64,100
51249,note_on,0,0,15,,,,,,,,,14,,,,40,112
51249,control_change,315,0,15,,,,,,,,,14,11,50,,,
51271,note_on,0,0,1,,,,,,,,,0,,,,83,0
51271,note_on,30,0,1,,,,,,,,,0,,,,79,0
51272,note_on,0,0,2,,,,,,,,,1,,,,76,0
51272,note_on,0,0,3,,,,,,,,,2,,,,71,0
51272,note_on,30,0,3,,,,,,,,,2,,,,67,0
51272,note_on,30,0,2,,,,,,,,,1,,,,71,0
51277,note_on,30,0,4,,,,,,,,,3,,,,64,0
51277,note_on,30,0,14,,,,,,,,,13,,,,52,0
51277,note_on,0,0,14,,,,,,,,,13,,,,54,112
51279,note_on,30,0,15,,,,,,,,,14,,,,40,0
51279,note_on,0,0,15,,,,,,,,,14,,,,42,112
51300,set_tempo,60,1,0,,,,,,1071429,,,,,,,,
51301,note_on,0,0,1,,,,,,,,,0,,,,79,101
51301,note_on,30,0,1,,,,,,,,,0,,,,83,101
51302,note_on,30,0,3,,,,,,,,,2,,,,71,101
51302,note_on,30,0,2,,,,,,,,,1,,,,76,100
51302,note_on,0,0,2,,,,,,,,,1,,,,71,100
51302,note_on,0,0,3,,,,,,,,,2,,,,67,101
51307,note_on,30,0,4,,,,,,,,,3,,,,64,100
51307,note_on,0,0,14,,,,,,,,,13,,,,55,112
51307,note_on,30,0,14,,,,,,,,,13,,,,54,0
51309,note_on,30,0,15,,,,,,,,,14,,,,42,0
51309,note_on,0,0,15,,,,,,,,,14,,,,43,112
51330,set_tempo,30,1,0,,,,,,1200000,,,,,,,,
51331,note_on,30,0,1,,,,,,,,,0,,,,79,0
51331,note_on,0,0,1,,,,,,,,,0,,,,83,0
51332,note_on,0,0,3,,,,,,,,,2,,,,71,0
51332,note_on,0,0,2,,,,,,,,,1,,,,76,0
51332,note_on,30,0,2,,,,,,,,,1,,,,71,0
51332,note_on,30,0,3,,,,,,,,,2,,,,67,0
51337,note_on,30,0,4,,,,,,,,,3,,,,64,0
51337,note_on,30,0,14,,,,,,,,,13,,,,55,0
51337,note_on,0,0,14,,,,,,,,,13,,,,54,112
51339,note_on,0,0,15,,,,,,,,,14,,,,42,112
51339,note_on,30,0,15,,,,,,,,,14,,,,43,0
51360,control_change,210,0,11,,,,,,,,,10,11,102,,,
51360,note_on,0,0,11,,,,,,,,,10,,,,76,112
51360,set_tempo,30,1,0,,,,,,1153846,,,,,,,,
51360,note_on,0,0,11,,,,,,,,,10,,,,88,112
51361,note_on,0,0,1,,,,,,,,,0,,,,80,101
51361,control_change,30,0,1,,,,,,,,,0,11,91,,,
51361,control_change,0,0,5,,,,,,,,,4,11,102,,,
51361,note_on,0,0,1,,,,,,,,,0,,,,88,101
51361,note_on,420,0,5,,,,,,,,,4,,,,64,100
51362,note_on,0,0,7,,,,,,,,,6,,,,76,112
51362,control_change,30,0,2,,,,,,,,,1,11,91,,,
51362,note_on,0,0,3,,,,,,,,,2,,,,71,101
51362,note_on,0,0,3,,,,,,,,,2,,,,68,101
51362,note_on,900,0,7,,,,,,,,,6,,,,64,112
51362,note_on,0,0,2,,,,,,,,,1,,,,80,100
51362,note_on,0,0,2,,,,,,,,,1,,,,71,100
51362,note_on,0,0,12,,,,,,,,,11,,,,71,112
51362,note_on,0,0,12,,,,,,,,,11,,,,64,112
51362,note_on,0,0,12,,,,,,,,,11,,,,80,112
51362,control_change,210,0,12,,,,,,,,,11,11,102,,,
51362,control_change,30,0,3,,,,,,,,,2,11,91,,,
51362,note_on,25,0,14,,,,,,,,,13,,,,54,0
51363,control_change,0,0,6,,,,,,,,,5,11,102,,,
51363,note_on,420,0,6,,,,,,,,,5,,,,52,100
51364,note_on,25,0,15,,,,,,,,,14,,,,42,0
51364,note_on,0,0,8,,,,,,,,,7,,,,59,110
51364,note_on,900,0,8,,,,,,,,,7,,,,56,110
51365,control_change,0,0,13,,,,,,,,,12,11,102,,,
51365,note_on,0,0,13,,,,,,,,,12,,,,52,112
51365,note_on,0,0,13,,,,,,,,,12,,,,59,112
51365,note_on,210,0,13,,,,,,,,,12,,,,68,112
51366,note_on,900,0,9,,,,,,,,,8,,,,52,110
51367,control_change,30,0,4,,,,,,,,,3,11,102,,,
51367,note_on,0,0,4,,,,,,,,,3,,,,56,100
51367,note_on,0,0,4,,,,,,,,,3,,,,59,100
51367,note_on,0,0,14,,,,,,,,,13,,,,52,112
51367,control_change,5,0,14,,,,,,,,,13,11,102,,,
51368,note_on,900,0,10,,,,,,,,,15,,,,52,82
51369,note_on,0,0,15,,,,,,,,,14,,,,40,112
51369,control_change,5,0,15,,,,,,,,,14,11,102,,,
51395,note_on,35,0,11,,,,,,,,,10,,,,76,0
51395,note_on,0,0,11,,,,,,,,,10,,,,88,0
51397,note_on,35,0,12,,,,,,,,,11,,,,71,0
51397,note_on,0,0,12,,,,,,,,,11,,,,80,0
51397,note_on,30,0,14,,,,,,,,,13,,,,52,0
51397,note_on,0,0,14,,,,,,,,,13,,,,64,112
51397,note_on,0,0,12,,,,,,,,,11,,,,64,0
51399,note_on,0,0,15,,,,,,,,,14,,,,52,112
51399,note_on,30,0,15,,,,,,,,,14,,,,40,0
51400,note_on,35,0,13,,,,,,,,,12,,,,52,0
51400,note_on,0,0,13,,,,,,,,,12,,,,59,0
51400,note_on,0,0,13,,,,,,,,,12,,,,68,0
51407,note_on,10,0,14,,,,,,,,,13,,,,64,0
51409,note_on,10,0,15,,,,,,,,,14,,,,52,0
51412,note_on,5,0,14,,,,,,,,,13,,,,64,112
51414,note_on,5,0,15,,,,,,,,,14,,,,52,112
51420,note_on,25,0,11,,,,,,,,,10,,,,83,112
51420,set_tempo,60,1,0,,,,,,1071429,,,,,,,,
51421,note_on,0,0,1,,,,,,,,,0,,,,88,0
51421,note_on,60,0,1,,,,,,,,,0,,,,80,0
51421,note_on,60,0,5,,,,,,,,,4,,,,64,0
51422,note_on,10,0,14,,,,,,,,,13,,,,64,0
51422,note_on,60,0,2,,,,,,,,,1,,,,71,0
51422,note_on,0,0,3,,,,,,,,,2,,,,68,0
51422,note_on,0,0,2,,,,,,,,,1,,,,80,0
51422,note_on,25,0,12,,,,,,,,,11,,,,80,112
51422,note_on,0,0,7,,,,,,,,,6,,,,64,0
51422,note_on,60,0,3,,,,,,,,,2,,,,71,0
51422,note_on,60,0,7,,,,,,,,,6,,,,76,0
51423,note_on,60,0,6,,,,,,,,,5,,,,52,0
51424,note_on,0,0,8,,,,,,,,,7,,,,56,0
51424,note_on,60,0,8,,,,,,,,,7,,,,59,0
51424,note_on,10,0,15,,,,,,,,,14,,,,52,0
51425,note_on,25,0,13,,,,,,,,,12,,,,76,112
51426,note_on,60,0,9,,,,,,,,,8,,,,52,0
51427,note_on,0,0,4,,,,,,,,,3,,,,56,0
51427,note_on,5,0,14,,,,,,,,,13,,,,64,112
51427,note_on,60,0,4,,,,,,,,,3,,,,59,0
51428,note_on,60,0,10,,,,,,,,,15,,,,52,0
51429,note_on,5,0,15,,,,,,,,,14,,,,52,112
51447,note_on,20,0,14,,,,,,,,,13,,,,64,0
51449,note_on,20,0,15,,,,,,,,,14,,,,52,0
51450,note_on,30,0,11,,,,,,,,,10,,,,83,0
51452,note_on,30,0,12,,,,,,,,,11,,,,80,0
51455,note_on,30,0,13,,,,,,,,,12,,,,76,0
51457,note_on,10,0,14,,,,,,,,,13,,,,64,112
51459,note_on,10,0,15,,,,,,,,,14,,,,52,112
51477,note_on,20,0,14,,,,,,,,,13,,,,64,0
51479,note_on,20,0,15,,,,,,,,,14,,,,52,0
51480,set_tempo,60,1,0,,,,,,1142857,,,,,,,,
51480,note_on,30,0,11,,,,,,,,,10,,,,83,112
51482,note_on,30,0,12,,,,,,,,,11,,,,81,112
51485,note_on,30,0,13,,,,,,,,,12,,,,75,112
51487,note_on,10,0,14,,,,,,,,,13,,,,66,112
51489,note_on,10,0,15,,,,,,,,,14,,,,54,112
51510,note_on,30,0,11,,,,,,,,,10,,,,83,0
51512,note_on,30,0,12,,,,,,,,,11,,,,81,0
51515,note_on,30,0,13,,,,,,,,,12,,,,75,0
51517,note_on,30,0,14,,,,,,,,,13,,,,66,0
51519,note_on,30,0,15,,,,,,,,,14,,,,54,0
51540,note_on,30,0,11,,,,,,,,,10,,,,83,112
51540,set_tempo,60,1,0,,,,,,1071429,,,,,,,,
51542,note_on,30,0,12,,,,,,,,,11,,,,81,112
51545,note_on,30,0,13,,,,,,,,,12,,,,75,112
51547,note_on,30,0,14,,,,,,,,,13,,,,59,112
51549,note_on,30,0,15,,,,,,,,,14,,,,47,112
51570,note_on,30,0,11,,,,,,,,,10,,,,83,0
51572,note_on,30,0,12,,,,,,,,,11,,,,81,0
51575,note_on,30,0,13,,,,,,,,,12,,,,75,0
51577,note_on,30,0,14,,,,,,,,,13,,,,59,0
51579,note_on,30,0,15,,,,,,,,,14,,,,47,0
51600,set_tempo,60,1,0,,,,,,1153846,,,,,,,,
51600,note_on,30,0,11,,,,,,,,,10,,,,83,112
51602,note_on,30,0,12,,,,,,,,,11,,,,80,112
51605,note_on,30,0,13,,,,,,,,,12,,,,76,112
51607,note_on,30,0,14,,,,,,,,,13,,,,64,112
51609,note_on,30,0,15,,,,,,,,,14,,,,52,112
51627,note_on,27,0,11,,,,,,,,,10,,,,83,0
51629,note_on,27,0,12,,,,,,,,,11,,,,80,0
51632,note_on,27,0,13,,,,,,,,,12,,,,76,0
51637,note_on,30,0,14,,,,,,,,,13,,,,64,0
51639,note_on,30,0,15,,,,,,,,,14,,,,52,0
51645,note_on,18,0,11,,,,,,,,,10,,,,81,112
51647,note_on,18,0,12,,,,,,,,,11,,,,78,112
51650,note_on,18,0,13,,,,,,,,,12,,,,76,112
51654,note_on,9,0,11,,,,,,,,,10,,,,81,0
51656,note_on,9,0,12,,,,,,,,,11,,,,78,0
51659,note_on,9,0,13,,,,,,,,,12,,,,76,0
51660,note_on,6,0,11,,,,,,,,,10,,,,83,112
51660,set_tempo,60,1,0,,,,,,1071429,,,,,,,,
51662,note_on,6,0,12,,,,,,,,,11,,,,80,112
51665,note_on,6,0,13,,,,,,,,,12,,,,76,112
51687,note_on,27,0,11,,,,,,,,,10,,,,83,0
51689,note_on,27,0,12,,,,,,,,,11,,,,80,0
51692,note_on,27,0,13,,,,,,,,,12,,,,76,0
51705,note_on,18,0,11,,,,,,,,,10,,,,84,112
51707,note_on,18,0,12,,,,,,,,,11,,,,81,112
51710,note_on,18,0,13,,,,,,,,,12,,,,76,112
51714,note_on,9,0,11,,,,,,,,,10,,,,84,0
51716,note_on,9,0,12,,,,,,,,,11,,,,81,0
51719,note_on,9,0,13,,,,,,,,,12,,,,76,0
51720,note_on,6,0,11,,,,,,,,,10,,,,83,112
51720,set_tempo,60,1,0,,,,,,1142857,,,,,,,,
51722,note_on,6,0,12,,,,,,,,,11,,,,80,112
51725,note_on,6,0,13,,,,,,,,,12,,,,76,112
51727,note_on,90,0,14,,,,,,,,,13,,,,52,112
51729,note_on,90,0,15,,,,,,,,,14,,,,40,112
51744,note_on,24,0,11,,,,,,,,,10,,,,83,0
51746,note_on,24,0,12,,,,,,,,,11,,,,80,0
51749,note_on,24,0,13,,,,,,,,,12,,,,76,0
51757,note_on,0,0,14,,,,,,,,,13,,,,54,112
51757,note_on,30,0,14,,,,,,,,,13,,,,52,0
51759,note_on,0,0,15,,,,,,,,,14,,,,42,112
51759,note_on,30,0,15,,,,,,,,,14,,,,40,0
51780,set_tempo,60,1,0,,,,,,1071429,,,,,,,,
51780,note_on,36,0,11,,,,,,,,,10,,,,83,112
51782,note_on,36,0,12,,,,,,,,,11,,,,80,112
51785,note_on,36,0,13,,,,,,,,,12,,,,76,112
51787,note_on,0,0,14,,,,,,,,,13,,,,56,112
51787,note_on,30,0,14,,,,,,,,,13,,,,54,0
51789,note_on,0,0,15,,,,,,,,,14,,,,44,112
51789,note_on,30,0,15,,,,,,,,,14,,,,42,0
51810,note_on,30,0,11,,,,,,,,,10,,,,83,0
51812,note_on,30,0,12,,,,,,,,,11,,,,80,0
51815,note_on,30,0,13,,,,,,,,,12,,,,76,0
51817,note_on,30,0,14,,,,,,,,,13,,,,56,0
51817,note_on,0,0,14,,,,,,,,,13,,,,52,112
51819,note_on,30,0,15,,,,,,,,,14,,,,44,0
51819,note_on,0,0,15,,,,,,,,,14,,,,40,112
51840,note_on,30,0,11,,,,,,,,,10,,,,84,127
51840,set_tempo,60,1,0,,,,,,1153846,,,,,,,,
51841,note_on,420,0,5,,,,,,,,,4,,,,60,115
51842,note_on,0,0,2,,,,,,,,,1,,,,69,115
51842,note_on,0,0,3,,,,,,,,,2,,,,72,116
51842,note_on,30,0,12,,,,,,,,,11,,,,81,127
51842,note_on,420,0,3,,,,,,,,,2,,,,69,116
51842,note_on,420,0,2,,,,,,,,,1,,,,72,115
51843,note_on,420,0,6,,,,,,,,,5,,,,60,115
51845,note_on,30,0,13,,,,,,,,,12,,,,57,112
51847,note_on,420,0,4,,,,,,,,,3,,,,57,100
51847,note_on,30,0,14,,,,,,,,,13,,,,52,0
51847,note_on,0,0,14,,,,,,,,,13,,,,57,112
51849,note_on,0,0,15,,,,,,,,,14,,,,45,112
51849,note_on,30,0,15,,,,,,,,,14,,,,40,0
51879,note_on,34,0,13,,,,,,,,,12,,,,57,0
51881,note_on,34,0,14,,,,,,,,,13,,,,57,0
51881,note_on,34,0,4,,,,,,,,,3,,,,57,0
51883,note_on,34,0,15,,,,,,,,,14,,,,45,0
51890,note_on,11,0,13,,,,,,,,,12,,,,56,112
51892,note_on,11,0,4,,,,,,,,,3,,,,56,100
51892,note_on,11,0,14,,,,,,,,,13,,,,56,112
51894,note_on,11,0,15,,,,,,,,,14,,,,44,112
51899,note_on,7,0,4,,,,,,,,,3,,,,56,0
51900,set_tempo,60,1,0,,,,,,1071429,,,,,,,,
51901,note_on,11,0,13,,,,,,,,,12,,,,56,0
51903,note_on,11,0,14,,,,,,,,,13,,,,56,0
51905,note_on,4,0,13,,,,,,,,,12,,,,57,112
51905,note_on,11,0,15,,,,,,,,,14,,,,44,0
51907,note_on,4,0,14,,,,,,,,,13,,,,57,112
51907,note_on,8,0,4,,,,,,,,,3,,,,57,100
51909,note_on,4,0,15,,,,,,,,,14,,,,45,112
51939,note_on,34,0,13,,,,,,,,,12,,,,57,0
51941,note_on,34,0,14,,,,,,,,,13,,,,57,0
51941,note_on,34,0,4,,,,,,,,,3,,,,57,0
51943,note_on,34,0,15,,,,,,,,,14,,,,45,0
51950,note_on,110,0,11,,,,,,,,,10,,,,84,0
51950,note_on,11,0,13,,,,,,,,,12,,,,60,112
51952,note_on,110,0,12,,,,,,,,,11,,,,81,0
51952,note_on,11,0,14,,,,,,,,,13,,,,60,112
51952,note_on,11,0,4,,,,,,,,,3,,,,60,100
51954,note_on,11,0,15,,,,,,,,,14,,,,48,112
51959,note_on,7,0,4,,,,,,,,,3,,,,60,0
51960,note_on,10,0,11,,,,,,,,,10,,,,89,112
51960,set_tempo,60,1,0,,,,,,1142857,,,,,,,,
51961,note_on,11,0,13,,,,,,,,,12,,,,60,0
51961,note_on,120,0,5,,,,,,,,,4,,,,60,0
51962,note_on,0,0,3,,,,,,,,,2,,,,72,101
51962,note_on,10,0,12,,,,,,,,,11,,,,84,112
51962,note_on,120,0,2,,,,,,,,,1,,,,69,0
51962,note_on,0,0,3,,,,,,,,,2,,,,77,101
51962,note_on,0,0,3,,,,,,,,,2,,,,69,0
51962,note_on,0,0,2,,,,,,,,,1,,,,72,100
51962,note_on,0,0,2,,,,,,,,,1,,,,77,100
51962,note_on,0,0,2,,,,,,,,,1,,,,72,0
51962,note_on,120,0,3,,,,,,,,,2,,,,72,0
51963,note_on,11,0,14,,,,,,,,,13,,,,60,0
51963,note_on,120,0,6,,,,,,,,,5,,,,60,0
51965,note_on,4,0,13,,,,,,,,,12,,,,55,127
51965,note_on,11,0,15,,,,,,,,,14,,,,48,0
51967,note_on,8,0,4,,,,,,,,,3,,,,55,115
51967,note_on,4,0,14,,,,,,,,,13,,,,55,127
51969,note_on,4,0,15,,,,,,,,,14,,,,43,127
51977,note_on,15,0,12,,,,,,,,,11,,,,84,0
51977,note_on,0,0,12,,,,,,,,,11,,,,83,112
51977,note_on,15,0,2,,,,,,,,,1,,,,72,0
51977,note_on,0,0,2,,,,,,,,,1,,,,71,100
51977,note_on,15,0,3,,,,,,,,,2,,,,72,0
51977,note_on,0,0,3,,,,,,,,,2,,,,71,101
51990,note_on,30,0,11,,,,,,,,,10,,,,89,0
51997,note_on,20,0,2,,,,,,,,,1,,,,71,0
51997,note_on,20,0,12,,,,,,,,,11,,,,83,0
51997,note_on,20,0,3,,,,,,,,,2,,,,71,0
52007,note_on,0,0,3,,,,,,,,,2,,,,69,101
52007,note_on,10,0,3,,,,,,,,,2,,,,77,0
52007,note_on,10,0,2,,,,,,,,,1,,,,77,0
52007,note_on,0,0,2,,,,,,,,,1,,,,69,100
52007,note_on,10,0,12,,,,,,,,,11,,,,81,112
52018,note_on,11,0,3,,,,,,,,,2,,,,69,0
52018,note_on,11,0,2,,,,,,,,,1,,,,69,0
52018,note_on,11,0,12,,,,,,,,,11,,,,81,0
52020,note_on,30,0,11,,,,,,,,,10,,,,89,112
52020,set_tempo,60,1,0,,,,,,1071429,,,,,,,,
52022,note_on,4,0,12,,,,,,,,,11,,,,83,112
52022,note_on,0,0,2,,,,,,,,,1,,,,71,100
52022,note_on,0,0,3,,,,,,,,,2,,,,77,101
52022,note_on,4,0,3,,,,,,,,,2,,,,71,101
52022,note_on,4,0,2,,,,,,,,,1,,,,77,100
52050,note_on,30,0,11,,,,,,,,,10,,,,89,0
52056,note_on,34,0,3,,,,,,,,,2,,,,71,0
52056,note_on,34,0,12,,,,,,,,,11,,,,83,0
52056,note_on,34,0,2,,,,,,,,,1,,,,71,0
52067,note_on,11,0,3,,,,,,,,,2,,,,77,0
52067,note_on,11,0,12,,,,,,,,,11,,,,86,112
52067,note_on,0,0,3,,,,,,,,,2,,,,74,101
52067,note_on,11,0,2,,,,,,,,,1,,,,77,0
52067,note_on,0,0,2,,,,,,,,,1,,,,74,100
52078,note_on,11,0,2,,,,,,,,,1,,,,74,0
52078,note_on,11,0,3,,,,,,,,,2,,,,74,0
52078,note_on,11,0,12,,,,,,,,,11,,,,86,0
52080,note_on,30,0,11,,,,,,,,,10,,,,88,127
52080,set_tempo,60,1,0,,,,,,1153846,,,,,,,,
52081,note_on,120,0,5,,,,,,,,,4,,,,64,115
52081,note_on,0,0,1,,,,,,,,,0,,,,76,101
52081,note_on,660,0,1,,,,,,,,,0,,,,72,101
52082,note_on,0,0,2,,,,,,,,,1,,,,76,100
52082,note_on,4,0,12,,,,,,,,,11,,,,84,127
52082,note_on,4,0,2,,,,,,,,,1,,,,72,100
52082,note_on,0,0,3,,,,,,,,,2,,,,76,101
52082,note_on,4,0,3,,,,,,,,,2,,,,72,101
52083,note_on,120,0,6,,,,,,,,,5,,,,60,115
52085,note_on,120,0,13,,,,,,,,,12,,,,55,0
52085,note_on,0,0,13,,,,,,,,,12,,,,60,112
52087,note_on,0,0,14,,,,,,,,,13,,,,60,112
52087,note_on,120,0,14,,,,,,,,,13,,,,55,0
52087,note_on,120,0,4,,,,,,,,,3,,,,55,0
52087,note_on,0,0,4,,,,,,,,,3,,,,60,100
52087,note_on,0,0,4,,,,,,,,,3,,,,48,100
52089,note_on,0,0,15,,,,,,,,,14,,,,48,112
52089,note_on,120,0,15,,,,,,,,,14,,,,43,0
52119,note_on,34,0,13,,,,,,,,,12,,,,60,0
52121,note_on,34,0,4,,,,,,,,,3,,,,60,0
52121,note_on,0,0,4,,,,,,,,,3,,,,48,0
52121,note_on,34,0,14,,,,,,,,,13,,,,60,0
52123,note_on,34,0,15,,,,,,,,,14,,,,48,0
52130,note_on,11,0,13,,,,,,,,,12,,,,59,112
52132,note_on,11,0,4,,,,,,,,,3,,,,47,100
52132,note_on,0,0,4,,,,,,,,,3,,,,59,100
52132,note_on,11,0,14,,,,,,,,,13,,,,59,112
52134,note_on,11,0,15,,,,,,,,,14,,,,47,112
52140,set_tempo,60,1,0,,,,,,1071429,,,,,,,,
52141,note_on,11,0,13,,,,,,,,,12,,,,59,0
52143,note_on,11,0,14,,,,,,,,,13,,,,59,0
52143,note_on,11,0,4,,,,,,,,,3,,,,59,0
52143,note_on,0,0,4,,,,,,,,,3,,,,47,0
52145,note_on,11,0,15,,,,,,,,,14,,,,47,0
52145,note_on,4,0,13,,,,,,,,,12,,,,60,112
52147,note_on,0,0,4,,,,,,,,,3,,,,60,100
52147,note_on,4,0,4,,,,,,,,,3,,,,48,100
52147,note_on,4,0,14,,,,,,,,,13,,,,60,112
52149,note_on,4,0,15,,,,,,,,,14,,,,48,112
52179,note_on,34,0,13,,,,,,,,,12,,,,60,0
52181,note_on,0,0,4,,,,,,,,,3,,,,48,0
52181,note_on,34,0,4,,,,,,,,,3,,,,60,0
52181,note_on,34,0,14,,,,,,,,,13,,,,60,0
52183,note_on,34,0,15,,,,,,,,,14,,,,48,0
52190,note_on,110,0,11,,,,,,,,,10,,,,88,0
52190,note_on,11,0,13,,,,,,,,,12,,,,64,112
52192,note_on,11,0,14,,,,,,,,,13,,,,64,112
52192,note_on,110,0,12,,,,,,,,,11,,,,84,0
52192,note_on,0,0,4,,,,,,,,,3,,,,64,100
52192,note_on,11,0,4,,,,,,,,,3,,,,52,100
52194,note_on,11,0,15,,,,,,,,,14,,,,52,112
52200,note_on,10,0,11,,,,,,,,,10,,,,81,112
52200,set_tempo,60,1,0,,,,,,1142857,,,,,,,,
52201,note_on,0,0,1,,,,,,,,,0,,,,81,101
52201,note_on,0,0,1,,,,,,,,,0,,,,76,101
52201,note_on,0,0,1,,,,,,,,,0,,,,72,0
52201,note_on,11,0,13,,,,,,,,,12,,,,64,0
52201,note_on,120,0,1,,,,,,,,,0,,,,76,0
52201,note_on,120,0,5,,,,,,,,,4,,,,64,0
52202,note_on,0,0,3,,,,,,,,,2,,,,72,0
52202,note_on,120,0,2,,,,,,,,,1,,,,76,0
52202,note_on,0,0,2,,,,,,,,,1,,,,72,0
52202,note_on,0,0,2,,,,,,,,,1,,,,76,100
52202,note_on,0,0,3,,,,,,,,,2,,,,76,101
52202,note_on,10,0,12,,,,,,,,,11,,,,76,112
52202,note_on,0,0,2,,,,,,,,,1,,,,81,100
52202,note_on,0,0,3,,,,,,,,,2,,,,69,101
52202,note_on,120,0,3,,,,,,,,,2,,,,76,0
52203,note_on,11,0,4,,,,,,,,,3,,,,64,0
52203,note_on,120,0,6,,,,,,,,,5,,,,60,0
52203,note_on,0,0,4,,,,,,,,,3,,,,52,0
52203,note_on,11,0,14,,,,,,,,,13,,,,64,0
52205,note_on,4,0,13,,,,,,,,,12,,,,59,127
52205,note_on,11,0,15,,,,,,,,,14,,,,52,0
52207,note_on,0,0,4,,,,,,,,,3,,,,59,100
52207,note_on,4,0,4,,,,,,,,,3,,,,47,100
52207,note_on,4,0,14,,,,,,,,,13,,,,59,127
52209,note_on,4,0,15,,,,,,,,,14,,,,47,127
52216,note_on,15,0,1,,,,,,,,,0,,,,76,0
52216,note_on,0,0,1,,,,,,,,,0,,,,75,101
52217,note_on,0,0,3,,,,,,,,,2,,,,75,101
52217,note_on,15,0,3,,,,,,,,,2,,,,76,0
52217,note_on,0,0,12,,,,,,,,,11,,,,75,112
52217,note_on,0,0,2,,,,,,,,,1,,,,75,100
52217,note_on,15,0,2,,,,,,,,,1,,,,76,0
52217,note_on,15,0,12,,,,,,,,,11,,,,76,0
52230,note_on,30,0,11,,,,,,,,,10,,,,81,0
52231,note_on,15,0,1,,,,,,,,,0,,,,81,0
52232,note_on,15,0,2,,,,,,,,,1,,,,81,0
52232,note_on,15,0,3,,,,,,,,,2,,,,69,0
52236,note_on,5,0,1,,,,,,,,,0,,,,75,0
52237,note_on,5,0,2,,,,,,,,,1,,,,75,0
52237,note_on,5,0,3,,,,,,,,,2,,,,75,0
52237,note_on,20,0,12,,,,,,,,,11,,,,75,0
52246,note_on,10,0,1,,,,,,,,,0,,,,73,101
52247,note_on,10,0,12,,,,,,,,,11,,,,73,112
52247,note_on,10,0,3,,,,,,,,,2,,,,73,101
52247,note_on,10,0,2,,,,,,,,,1,,,,73,100
52257,note_on,11,0,1,,,,,,,,,0,,,,73,0
52258,note_on,11,0,3,,,,,,,,,2,,,,73,0
52258,note_on,11,0,12,,,,,,,,,11,,,,73,0
52258,note_on,11,0,2,,,,,,,,,1,,,,73,0
52260,note_on,30,0,11,,,,,,,,,10,,,,81,112
52260,set_tempo,60,1,0,,,,,,1071429,,,,,,,,
52261,note_on,0,0,1,,,,,,,,,0,,,,81,101
52261,note_on,4,0,1,,,,,,,,,0,,,,75,101
52262,note_on,0,0,3,,,,,,,,,2,,,,69,101
52262,note_on,4,0,3,,,,,,,,,2,,,,75,101
52262,note_on,0,0,2,,,,,,,,,1,,,,81,100
52262,note_on,4,0,12,,,,,,,,,11,,,,75,112
52262,note_on,4,0,2,,,,,,,,,1,,,,75,100
52290,note_on,30,0,11,,,,,,,,,10,,,,81,0
52291,note_on,30,0,1,,,,,,,,,0,,,,81,0
52292,note_on,30,0,3,,,,,,,,,2,,,,69,0
52292,note_on,30,0,2,,,,,,,,,1,,,,81,0
52295,note_on,4,0,1,,,,,,,,,0,,,,75,0
52296,note_on,34,0,12,,,,,,,,,11,,,,75,0
52296,note_on,4,0,2,,,,,,,,,1,,,,75,0
52296,note_on,4,0,3,,,,,,,,,2,,,,75,0
52306,note_on,11,0,1,,,,,,,,,0,,,,78,101
52307,note_on,11,0,12,,,,,,,,,11,,,,78,112
52307,note_on,11,0,2,,,,,,,,,1,,,,78,100
52307,note_on,11,0,3,,,,,,,,,2,,,,78,101
52317,note_on,11,0,1,,,,,,,,,0,,,,78,0
52318,note_on,11,0,3,,,,,,,,,2,,,,78,0
52318,note_on,11,0,12,,,,,,,,,11,,,,78,0
52318,note_on,11,0,2,,,,,,,,,1,,,,78,0
52320,set_tempo,60,1,0,,,,,,1090909,,,,,,,,
52320,note_on,30,0,11,,,,,,,,,10,,,,79,112
52321,note_on,0,0,1,,,,,,,,,0,,,,76,101
52321,note_on,4,0,1,,,,,,,,,0,,,,79,101
52322,note_on,4,0,12,,,,,,,,,11,,,,76,112
52322,note_on,4,0,2,,,,,,,,,1,,,,76,100
52322,note_on,0,0,2,,,,,,,,,1,,,,79,100
52322,note_on,0,0,3,,,,,,,,,2,,,,67,101
52322,note_on,4,0,3,,,,,,,,,2,,,,76,101
52325,note_on,120,0,13,,,,,,,,,12,,,,59,0
52325,note_on,0,0,13,,,,,,,,,12,,,,71,112
52327,note_on,0,0,14,,,,,,,,,13,,,,64,112
52327,note_on,120,0,14,,,,,,,,,13,,,,59,0
52327,note_on,0,0,4,,,,,,,,,3,,,,64,100
52327,note_on,0,0,4,,,,,,,,,3,,,,47,0
52327,note_on,0,0,4,,,,,,,,,3,,,,52,100
52327,note_on,120,0,4,,,,,,,,,3,,,,59,0
52329,note_on,0,0,15,,,,,,,,,14,,,,52,112
52329,note_on,120,0,15,,,,,,,,,14,,,,47,0
52350,note_on,30,0,11,,,,,,,,,10,,,,79,0
52351,note_on,30,0,1,,,,,,,,,0,,,,76,0
52351,note_on,0,0,1,,,,,,,,,0,,,,79,0
52352,note_on,0,0,2,,,,,,,,,1,,,,76,0
52352,note_on,30,0,2,,,,,,,,,1,,,,79,0
52352,note_on,30,0,12,,,,,,,,,11,,,,76,0
52352,note_on,0,0,3,,,,,,,,,2,,,,76,0
52352,note_on,30,0,3,,,,,,,,,2,,,,67,0
52355,note_on,30,0,13,,,,,,,,,12,,,,71,0
52357,note_on,0,0,4,,,,,,,,,3,,,,64,0
52357,note_on,30,0,4,,,,,,,,,3,,,,52,0
52357,note_on,30,0,14,,,,,,,,,13,,,,64,0
52359,note_on,30,0,15,,,,,,,,,14,,,,52,0
52380,note_on,30,0,11,,,,,,,,,10,,,,81,112
52381,note_on,30,0,1,,,,,,,,,0,,,,81,101
52381,note_on,0,0,1,,,,,,,,,0,,,,78,101
52382,note_on,30,0,2,,,,,,,,,1,,,,74,100
52382,note_on,30,0,3,,,,,,,,,2,,,,69,101
52382,note_on,0,0,3,,,,,,,,,2,,,,66,101
52382,note_on,30,0,12,,,,,,,,,11,,,,78,112
52382,note_on,0,0,2,,,,,,,,,1,,,,69,100
52385,note_on,30,0,13,,,,,,,,,12,,,,74,112
52387,note_on,30,0,4,,,,,,,,,3,,,,62,100
52387,note_on,0,0,4,,,,,,,,,3,,,,50,100
52387,note_on,30,0,14,,,,,,,,,13,,,,62,112
52389,note_on,30,0,15,,,,,,,,,14,,,,50,112
52410,note_on,30,0,11,,,,,,,,,10,,,,81,0
52411,note_on,0,0,1,,,,,,,,,0,,,,81,0
52411,note_on,30,0,1,,,,,,,,,0,,,,78,0
52412,note_on,0,0,2,,,,,,,,,1,,,,74,0
52412,note_on,30,0,12,,,,,,,,,11,,,,78,0
52412,note_on,30,0,2,,,,,,,,,1,,,,69,0
52412,note_on,30,0,3,,,,,,,,,2,,,,66,0
52412,note_on,0,0,3,,,,,,,,,2,,,,69,0
52415,note_on,30,0,13,,,,,,,,,12,,,,74,0
52417,note_on,30,0,4,,,,,,,,,3,,,,50,0
52417,note_on,30,0,14,,,,,,,,,13,,,,62,0
52417,note_on,0,0,4,,,,,,,,,3,,,,62,0
52419,note_on,30,0,15,,,,,,,,,14,,,,50,0
52440,set_tempo,120,1,0,,,,,,1100917,,,,,,,,
52440,note_on,30,0,11,,,,,,,,,10,,,,83,112
52441,note_on,30,0,1,,,,,,,,,0,,,,83,101
52441,note_on,0,0,1,,,,,,,,,0,,,,79,101
52442,note_on,30,0,2,,,,,,,,,1,,,,74,100
52442,note_on,0,0,3,,,,,,,,,2,,,,67,101
52442,note_on,30,0,3,,,,,,,,,2,,,,71,101
52442,note_on,30,0,12,,,,,,,,,11,,,,79,112
52442,note_on,0,0,2,,,,,,,,,1,,,,71,100
52445,note_on,30,0,13,,,,,,,,,12,,,,71,112
52447,note_on,30,0,14,,,,,,,,,13,,,,55,112
52447,note_on,30,0,4,,,,,,,,,3,,,,67,100
52447,note_on,0,0,4,,,,,,,,,3,,,,55,100
52449,note_on,30,0,15,,,,,,,,,14,,,,43,112
52470,note_on,30,0,11,,,,,,,,,10,,,,83,0
52471,note_on,30,0,1,,,,,,,,,0,,,,79,0
52471,note_on,0,0,1,,,,,,,,,0,,,,83,0
52472,note_on,0,0,3,,,,,,,,,2,,,,71,0
52472,note_on,30,0,3,,,,,,,,,2,,,,67,0
52472,note_on,30,0,12,,,,,,,,,11,,,,79,0
52472,note_on,30,0,2,,,,,,,,,1,,,,71,0
52472,note_on,0,0,2,,,,,,,,,1,,,,74,0
52475,note_on,30,0,13,,,,,,,,,12,,,,71,0
52477,note_on,30,0,14,,,,,,,,,13,,,,55,0
52477,note_on,30,0,4,,,,,,,,,3,,,,55,0
52477,note_on,0,0,4,,,,,,,,,3,,,,67,0
52479,note_on,30,0,15,,,,,,,,,14,,,,43,0
52500,note_on,30,0,11,,,,,,,,,10,,,,85,112
52501,note_on,0,0,1,,,,,,,,,0,,,,82,101
52501,note_on,30,0,1,,,,,,,,,0,,,,85,101
52502,note_on,0,0,2,,,,,,,,,1,,,,78,100
52502,note_on,30,0,2,,,,,,,,,1,,,,73,100
52502,note_on,30,0,12,,,,,,,,,11,,,,73,112
52502,note_on,0,0,3,,,,,,,,,2,,,,70,101
52502,note_on,30,0,3,,,,,,,,,2,,,,73,101
52505,note_on,30,0,13,,,,,,,,,12,,,,70,112
52507,note_on,30,0,4,,,,,,,,,3,,,,66,100
52507,note_on,0,0,4,,,,,,,,,3,,,,54,100
52507,note_on,30,0,14,,,,,,,,,13,,,,54,112
52509,note_on,30,0,15,,,,,,,,,14,,,,42,112
52530,note_on,30,0,11,,,,,,,,,10,,,,85,0
52531,note_on,30,0,1,,,,,,,,,0,,,,82,0
52531,note_on,0,0,1,,,,,,,,,0,,,,85,0
52532,note_on,30,0,3,,,,,,,,,2,,,,70,0
52532,note_on,0,0,3,,,,,,,,,2,,,,73,0
52532,note_on,30,0,2,,,,,,,,,1,,,,78,0
52532,note_on,0,0,2,,,,,,,,,1,,,,73,0
52532,note_on,30,0,12,,,,,,,,,11,,,,73,0
52535,note_on,30,0,13,,,,,,,,,12,,,,70,0
52537,note_on,0,0,4,,,,,,,,,3,,,,66,0
52537,note_on,30,0,4,,,,,,,,,3,,,,54,0
52537,note_on,30,0,14,,,,,,,,,13,,,,54,0
52539,note_on,30,0,15,,,,,,,,,14,,,,42,0
52560,note_on,30,0,11,,,,,,,,,10,,,,87,127
52560,set_tempo,120,1,0,,,,,,1153846,,,,,,,,
52562,note_on,1140,0,7,,,,,,,,,6,,,,57,127
52562,note_on,30,0,12,,,,,,,,,11,,,,78,127
52562,note_on,0,0,7,,,,,,,,,6,,,,69,127
52565,note_on,30,0,13,,,,,,,,,12,,,,69,127
52567,note_on,30,0,14,,,,,,,,,13,,,,47,127
52568,note_on,1140,0,10,,,,,,,,,15,,,,45,82
52569,note_on,30,0,15,,,,,,,,,14,,,,35,127
52575,note_on,0,0,10,,,,,,,,,15,,,,45,82
52575,note_on,7,0,10,,,,,,,,,15,,,,45,0
52582,note_on,7,0,10,,,,,,,,,15,,,,45,0
52583,note_on,1,0,10,,,,,,,,,15,,,,45,82
52590,note_on,7,0,10,,,,,,,,,15,,,,45,0
52590,note_on,0,0,10,,,,,,,,,15,,,,45,82
52597,note_on,7,0,10,,,,,,,,,15,,,,45,0
52598,note_on,1,0,10,,,,,,,,,15,,,,45,82
52605,note_on,7,0,10,,,,,,,,,15,,,,45,0
52605,note_on,0,0,10,,,,,,,,,15,,,,45,82
52612,note_on,7,0,10,,,,,,,,,15,,,,45,0
52613,note_on,1,0,10,,,,,,,,,15,,,,45,82
52620,set_tempo,60,1,0,,,,,,1071429,,,,,,,,
52620,note_on,7,0,10,,,,,,,,,15,,,,45,0
52620,note_on,0,0,10,,,,,,,,,15,,,,45,82
52627,note_on,7,0,10,,,,,,,,,15,,,,45,0
52628,note_on,1,0,10,,,,,,,,,15,,,,45,82
52635,note_on,0,0,10,,,,,,,,,15,,,,45,82
52635,note_on,7,0,10,,,,,,,,,15,,,,45,0
52642,note_on,7,0,10,,,,,,,,,15,,,,45,0
52643,note_on,1,0,10,,,,,,,,,15,,,,45,82
52650,note_on,7,0,10,,,,,,,,,15,,,,45,0
52650,note_on,0,0,10,,,,,,,,,15,,,,45,82
52657,note_on,7,0,10,,,,,,,,,15,,,,45,0
52658,note_on,1,0,10,,,,,,,,,15,,,,45,82
52665,note_on,7,0,10,,,,,,,,,15,,,,45,0
52665,note_on,0,0,10,,,,,,,,,15,,,,45,82
52672,note_on,7,0,10,,,,,,,,,15,,,,45,0
52673,note_on,1,0,10,,,,,,,,,15,,,,45,82
52680,note_on,7,0,10,,,,,,,,,15,,,,45,0
52680,set_tempo,60,1,0,,,,,,1142857,,,,,,,,
52680,note_on,0,0,10,,,,,,,,,15,,,,45,82
52681,control_change,150,0,1,,,,,,,,,0,11,106,,,
52681,note_on,0,0,1,,,,,,,,,0,,,,81,101
52681,note_on,0,0,1,,,,,,,,,0,,,,87,101
52682,note_on,150,0,2,,,,,,,,,1,,,,78,100
52682,note_on,0,0,3,,,,,,,,,2,,,,66,101
52682,note_on,0,0,3,,,,,,,,,2,,,,69,101
52682,control_change,150,0,3,,,,,,,,,2,11,106,,,
52682,note_on,0,0,2,,,,,,,,,1,,,,75,100
52682,control_change,0,0,2,,,,,,,,,1,11,106,,,
52684,note_on,0,0,8,,,,,,,,,7,,,,63,125
52684,note_on,0,0,8,,,,,,,,,7,,,,57,125
52684,control_change,1260,0,8,,,,,,,,,7,11,122,,,
52685,control_change,4,0,1,,,,,,,,,0,11,103,,,
52686,note_on,0,0,9,,,,,,,,,8,,,,47,125
52686,control_change,4,0,3,,,,,,,,,2,11,103,,,
52686,control_change,4,0,2,,,,,,,,,1,11,103,,,
52686,control_change,1260,0,9,,,,,,,,,8,11,122,,,
52687,note_on,0,0,4,,,,,,,,,3,,,,59,100
52687,note_on,7,0,10,,,,,,,,,15,,,,45,0
52687,note_on,0,0,4,,,,,,,,,3,,,,63,100
52687,control_change,150,0,4,,,,,,,,,3,11,122,,,
52688,control_change,4,0,8,,,,,,,,,7,11,119,,,
52688,note_on,1,0,10,,,,,,,,,15,,,,45,82
52690,control_change,4,0,9,,,,,,,,,8,11,119,,,
52691,control_change,4,0,4,,,,,,,,,3,11,119,,,
52693,control_change,5,0,8,,,,,,,,,7,11,116,,,
52694,control_change,9,0,1,,,,,,,,,0,11,99,,,
52695,control_change,9,0,2,,,,,,,,,1,11,99,,,
52695,control_change,9,0,3,,,,,,,,,2,11,99,,,
52695,control_change,5,0,9,,,,,,,,,8,11,116,,,
52696,control_change,5,0,4,,,,,,,,,3,11,116,,,
52697,control_change,4,0,8,,,,,,,,,7,11,113,,,
52699,control_change,4,0,9,,,,,,,,,8,11,113,,,
52700,control_change,4,0,4,,,,,,,,,3,11,113,,,
52702,control_change,5,0,8,,,,,,,,,7,11,110,,,
52703,control_change,9,0,1,,,,,,,,,0,11,94,,,
52704,control_change,9,0,3,,,,,,,,,2,11,94,,,
52704,control_change,5,0,9,,,,,,,,,8,11,110,,,
52704,control_change,9,0,2,,,,,,,,,1,11,94,,,
52705,control_change,5,0,4,,,,,,,,,3,11,110,,,
52706,control_change,4,0,8,,,,,,,,,7,11,107,,,
52708,control_change,4,0,9,,,,,,,,,8,11,107,,,
52709,control_change,4,0,4,,,,,,,,,3,11,107,,,
52711,control_change,5,0,8,,,,,,,,,7,11,104,,,
52713,control_change,5,0,9,,,,,,,,,8,11,104,,,
52714,control_change,5,0,4,,,,,,,,,3,11,104,,,
52740,set_tempo,60,1,0,,,,,,1071429,,,,,,,,
52748,note_on,60,0,10,,,,,,,,,15,,,,45,0
52790,note_on,230,0,11,,,,,,,,,10,,,,87,0
52792,note_on,0,0,7,,,,,,,,,6,,,,57,0
52792,note_on,230,0,12,,,,,,,,,11,,,,78,0
52792,note_on,230,0,7,,,,,,,,,6,,,,69,0
52795,note_on,230,0,13,,,,,,,,,12,,,,69,0
52797,note_on,230,0,14,,,,,,,,,13,,,,47,0
52799,note_on,230,0,15,,,,,,,,,14,,,,35,0
52800,note_on,10,0,11,,,,,,,,,10,,,,88,127
52800,set_tempo,60,1,0,,,,,,1153846,,,,,,,,
52801,note_on,98,0,1,,,,,,,,,0,,,,81,0
52801,note_on,0,0,1,,,,,,,,,0,,,,87,0
52802,note_on,98,0,3,,,,,,,,,2,,,,66,0
52802,note_on,10,0,12,,,,,,,,,11,,,,81,127
52802,note_on,0,0,3,,,,,,,,,2,,,,69,0
52802,note_on,0,0,7,,,,,,,,,6,,,,69,127
52802,note_on,0,0,2,,,,,,,,,1,,,,78,0
52802,note_on,98,0,2,,,,,,,,,1,,,,75,0
52802,note_on,10,0,7,,,,,,,,,6,,,,57,127
52804,note_on,93,0,8,,,,,,,,,7,,,,63,0
52804,note_on,0,0,8,,,,,,,,,7,,,,57,0
52805,note_on,10,0,13,,,,,,,,,12,,,,72,127
52806,note_on,93,0,9,,,,,,,,,8,,,,47,0
52807,note_on,10,0,14,,,,,,,,,13,,,,45,127
52807,note_on,0,0,4,,,,,,,,,3,,,,63,0
52807,note_on,93,0,4,,,,,,,,,3,,,,59,0
52808,note_on,60,0,10,,,,,,,,,15,,,,45,82
52809,note_on,10,0,15,,,,,,,,,14,,,,33,127
52815,note_on,0,0,10,,,,,,,,,15,,,,45,82
52815,note_on,7,0,10,,,,,,,,,15,,,,45,0
52822,note_on,7,0,10,,,,,,,,,15,,,,45,0
52823,note_on,1,0,10,,,,,,,,,15,,,,45,82
52830,note_on,0,0,10,,,,,,,,,15,,,,45,82
52830,note_on,7,0,10,,,,,,,,,15,,,,45,0
52837,note_on,7,0,10,,,,,,,,,15,,,,45,0
52838,note_on,1,0,10,,,,,,,,,15,,,,45,82
52845,note_on,7,0,10,,,,,,,,,15,,,,45,0
52845,note_on,0,0,10,,,,,,,,,15,,,,45,82
52852,note_on,7,0,10,,,,,,,,,15,,,,45,0
52853,note_on,1,0,10,,,,,,,,,15,,,,45,82
52860,note_on,0,0,10,,,,,,,,,15,,,,45,82
52860,note_on,7,0,10,,,,,,,,,15,,,,45,0
52860,set_tempo,60,1,0,,,,,,1071429,,,,,,,,
52867,note_on,7,0,10,,,,,,,,,15,,,,45,0
52868,note_on,1,0,10,,,,,,,,,15,,,,45,82
52875,note_on,7,0,10,,,,,,,,,15,,,,45,0
52875,note_on,0,0,10,,,,,,,,,15,,,,45,82
52882,note_on,7,0,10,,,,,,,,,15,,,,45,0
52883,note_on,1,0,10,,,,,,,,,15,,,,45,82
52890,note_on,0,0,10,,,,,,,,,15,,,,45,82
52890,note_on,7,0,10,,,,,,,,,15,,,,45,0
52897,note_on,7,0,10,,,,,,,,,15,,,,45,0
52898,note_on,1,0,10,,,,,,,,,15,,,,45,82
52905,note_on,7,0,10,,,,,,,,,15,,,,45,0
52905,note_on,0,0,10,,,,,,,,,15,,,,45,82
52912,note_on,7,0,10,,,,,,,,,15,,,,45,0
52913,note_on,1,0,10,,,,,,,,,15,,,,45,82
52920,set_tempo,60,1,0,,,,,,1142857,,,,,,,,
52920,note_on,7,0,10,,,,,,,,,15,,,,45,0
52920,note_on,0,0,10,,,,,,,,,15,,,,45,82
52921,note_on,0,0,1,,,,,,,,,0,,,,84,116
52921,control_change,120,0,1,,,,,,,,,0,11,106,,,
52921,note_on,0,0,5,,,,,,,,,4,,,,64,115
52921,control_change,720,0,5,,,,,,,,,4,11,122,,,
52921,note_on,0,0,1,,,,,,,,,0,,,,88,116
52922,note_on,0,0,3,,,,,,,,,2,,,,72,116
52922,note_on,120,0,2,,,,,,,,,1,,,,76,115
52922,control_change,0,0,2,,,,,,,,,1,11,106,,,
52922,note_on,0,0,2,,,,,,,,,1,,,,81,115
52922,note_on,0,0,3,,,,,,,,,2,,,,69,116
52922,control_change,120,0,3,,,,,,,,,2,11,106,,,
52923,note_on,720,0,6,,,,,,,,,5,,,,60,115
52923,control_change,0,0,6,,,,,,,,,5,11,122,,,
52924,control_change,120,0,8,,,,,,,,,7,11,122,,,
52924,note_on,0,0,8,,,,,,,,,7,,,,60,125
52924,note_on,0,0,8,,,,,,,,,7,,,,64,125
52925,control_change,4,0,1,,,,,,,,,0,11,103,,,
52925,control_change,4,0,5,,,,,,,,,4,11,119,,,
52926,note_on,0,0,9,,,,,,,,,8,,,,45,125
52926,control_change,120,0,9,,,,,,,,,8,11,122,,,
52926,control_change,4,0,3,,,,,,,,,2,11,103,,,
52926,control_change,4,0,2,,,,,,,,,1,11,103,,,
52927,control_change,4,0,6,,,,,,,,,5,11,119,,,
52927,note_on,7,0,10,,,,,,,,,15,,,,45,0
52927,note_on,0,0,4,,,,,,,,,3,,,,60,115
52927,note_on,0,0,4,,,,,,,,,3,,,,64,115
52927,control_change,120,0,4,,,,,,,,,3,11,122,,,
52928,control_change,4,0,8,,,,,,,,,7,11,119,,,
52928,note_on,1,0,10,,,,,,,,,15,,,,45,82
52930,control_change,4,0,9,,,,,,,,,8,11,119,,,
52930,control_change,5,0,5,,,,,,,,,4,11,116,,,
52931,control_change,4,0,4,,,,,,,,,3,11,119,,,
52932,control_change,5,0,6,,,,,,,,,5,11,116,,,
52933,control_change,5,0,8,,,,,,,,,7,11,116,,,
52934,control_change,9,0,1,,,,,,,,,0,11,99,,,
52934,control_change,4,0,5,,,,,,,,,4,11,113,,,
52935,control_change,5,0,9,,,,,,,,,8,11,116,,,
52935,control_change,9,0,2,,,,,,,,,1,11,99,,,
52935,control_change,9,0,3,,,,,,,,,2,11,99,,,
52936,control_change,4,0,6,,,,,,,,,5,11,113,,,
52936,control_change,5,0,4,,,,,,,,,3,11,116,,,
52937,control_change,4,0,8,,,,,,,,,7,11,113,,,
52939,control_change,5,0,5,,,,,,,,,4,11,110,,,
52939,control_change,4,0,9,,,,,,,,,8,11,113,,,
52940,control_change,4,0,4,,,,,,,,,3,11,113,,,
52941,control_change,5,0,6,,,,,,,,,5,11,110,,,
52942,control_change,5,0,8,,,,,,,,,7,11,110,,,
52943,control_change,4,0,5,,,,,,,,,4,11,107,,,
52943,control_change,9,0,1,,,,,,,,,0,11,94,,,
52944,control_change,9,0,2,,,,,,,,,1,11,94,,,
52944,control_change,5,0,9,,,,,,,,,8,11,110,,,
52944,control_change,9,0,3,,,,,,,,,2,11,94,,,
52945,control_change,5,0,4,,,,,,,,,3,11,110,,,
52945,control_change,4,0,6,,,,,,,,,5,11,107,,,
52946,control_change,4,0,8,,,,,,,,,7,11,107,,,
52948,control_change,5,0,5,,,,,,,,,4,11,104,,,
52948,control_change,4,0,9,,,,,,,,,8,11,107,,,
52949,control_change,4,0,4,,,,,,,,,3,11,107,,,
52950,control_change,5,0,6,,,,,,,,,5,11,104,,,
52951,control_change,5,0,8,,,,,,,,,7,11,104,,,
52953,control_change,5,0,9,,,,,,,,,8,11,104,,,
52954,control_change,5,0,4,,,,,,,,,3,11,104,,,
52980,set_tempo,60,1,0,,,,,,1071429,,,,,,,,
52988,note_on,60,0,10,,,,,,,,,15,,,,45,0
53030,note_on,230,0,11,,,,,,,,,10,,,,88,0
53032,note_on,230,0,12,,,,,,,,,11,,,,81,0
53032,note_on,230,0,7,,,,,,,,,6,,,,69,0
53032,note_on,0,0,7,,,,,,,,,6,,,,57,0
53035,note_on,230,0,13,,,,,,,,,12,,,,72,0
53037,note_on,230,0,14,,,,,,,,,13,,,,45,0
53039,note_on,230,0,15,,,,,,,,,14,,,,33,0
53040,set_tempo,60,1,0,,,,,,1153846,,,,,,,,
53040,control_change,10,0,11,,,,,,,,,10,11,122,,,
53040,note_on,0,0,11,,,,,,,,,10,,,,89,112
53041,note_on,0,0,1,,,,,,,,,0,,,,89,101
53041,note_on,0,0,1,,,,,,,,,0,,,,88,0
53041,note_on,0,0,1,,,,,,,,,0,,,,86,101
53041,note_on,0,0,5,,,,,,,,,4,,,,65,100
53041,note_on,98,0,1,,,,,,,,,0,,,,84,0
53041,note_on,93,0,5,,,,,,,,,4,,,,64,0
53042,note_on,0,0,12,,,,,,,,,11,,,,62,112
53042,note_on,98,0,2,,,,,,,,,1,,,,81,0
53042,note_on,0,0,2,,,,,,,,,1,,,,76,0
53042,note_on,0,0,2,,,,,,,,,1,,,,77,100
53042,note_on,0,0,2,,,,,,,,,1,,,,81,100
53042,note_on,0,0,7,,,,,,,,,6,,,,69,127
53042,note_on,0,0,7,,,,,,,,,6,,,,57,127
53042,control_change,10,0,7,,,,,,,,,6,11,122,,,
53042,note_on,98,0,3,,,,,,,,,2,,,,69,0
53042,note_on,0,0,3,,,,,,,,,2,,,,72,0
53042,note_on,0,0,3,,,,,,,,,2,,,,74,101
53042,note_on,0,0,12,,,,,,,,,11,,,,77,112
53042,note_on,0,0,12,,,,,,,,,11,,,,69,112
53042,control_change,10,0,12,,,,,,,,,11,11,122,,,
53042,note_on,0,0,3,,,,,,,,,2,,,,65,101
53043,note_on,0,0,6,,,,,,,,,5,,,,62,100
53043,note_on,93,0,6,,,,,,,,,5,,,,60,0
53044,control_change,0,0,8,,,,,,,,,7,11,122,,,
53044,note_on,0,0,8,,,,,,,,,7,,,,64,0
53044,note_on,93,0,8,,,,,,,,,7,,,,60,0
53044,note_on,0,0,8,,,,,,,,,7,,,,57,110
53044,note_on,0,0,8,,,,,,,,,7,,,,65,110
53045,note_on,0,0,13,,,,,,,,,12,,,,50,112
53045,note_on,10,0,13,,,,,,,,,12,,,,74,112
53045,note_on,0,0,13,,,,,,,,,12,,,,65,112
53045,note_on,0,0,13,,,,,,,,,12,,,,57,112
53045,control_change,0,0,13,,,,,,,,,12,11,122,,,
53046,note_on,93,0,9,,,,,,,,,8,,,,45,0
53046,note_on,0,0,9,,,,,,,,,8,,,,50,110
53047,control_change,7,0,11,,,,,,,,,10,11,119,,,
53047,note_on,0,0,4,,,,,,,,,3,,,,64,0
53047,note_on,0,0,4,,,,,,,,,3,,,,65,100
53047,note_on,0,0,4,,,,,,,,,3,,,,62,100
53047,control_change,10,0,14,,,,,,,,,13,11,122,,,
53047,note_on,0,0,14,,,,,,,,,13,,,,50,112
53047,note_on,93,0,4,,,,,,,,,3,,,,60,0
53048,note_on,60,0,10,,,,,,,,,15,,,,45,82
53049,control_change,7,0,12,,,,,,,,,11,11,119,,,
53049,control_change,7,0,7,,,,,,,,,6,11,119,,,
53049,note_on,0,0,15,,,,,,,,,14,,,,38,112
53049,control_change,10,0,15,,,,,,,,,14,11,122,,,
53051,control_change,7,0,8,,,,,,,,,7,11,119,,,
53052,control_change,7,0,13,,,,,,,,,12,11,119,,,
53054,control_change,7,0,14,,,,,,,,,13,11,119,,,
53055,control_change,8,0,11,,,,,,,,,10,11,116,,,
53056,control_change,7,0,15,,,,,,,,,14,11,119,,,
53057,control_change,8,0,12,,,,,,,,,11,11,116,,,
53057,control_change,8,0,7,,,,,,,,,6,11,116,,,
53059,control_change,8,0,8,,,,,,,,,7,11,116,,,
53060,control_change,8,0,13,,,,,,,,,12,11,116,,,
53062,control_change,8,0,14,,,,,,,,,13,11,116,,,
53062,control_change,7,0,11,,,,,,,,,10,11,113,,,
53064,control_change,8,0,15,,,,,,,,,14,11,116,,,
53064,control_change,7,0,7,,,,,,,,,6,11,113,,,
53064,control_change,7,0,12,,,,,,,,,11,11,113,,,
53066,control_change,7,0,8,,,,,,,,,7,11,113,,,
53067,control_change,7,0,13,,,,,,,,,12,11,113,,,
53069,control_change,7,0,14,,,,,,,,,13,11,113,,,
53070,control_change,8,0,11,,,,,,,,,10,11,110,,,
53071,control_change,7,0,15,,,,,,,,,14,11,113,,,
53072,control_change,8,0,7,,,,,,,,,6,11,110,,,
53072,control_change,8,0,12,,,,,,,,,11,11,110,,,
53074,control_change,0,0,8,,,,,,,,,7,11,110,,,
53074,note_on,0,0,8,,,,,,,,,7,,,,65,0
53074,note_on,8,0,8,,,,,,,,,7,,,,57,0
53075,control_change,8,0,13,,,,,,,,,12,11,110,,,
53075,note_on,34,0,5,,,,,,,,,4,,,,65,0
53076,note_on,30,0,9,,,,,,,,,8,,,,50,0
53077,note_on,8,0,14,,,,,,,,,13,,,,50,0
53077,control_change,0,0,14,,,,,,,,,13,11,110,,,
53077,control_change,7,0,11,,,,,,,,,10,11,107,,,
53077,note_on,34,0,6,,,,,,,,,5,,,,62,0
53079,control_change,0,0,15,,,,,,,,,14,11,110,,,
53079,control_change,7,0,12,,,,,,,,,11,11,107,,,
53079,note_on,8,0,15,,,,,,,,,14,,,,38,0
53079,control_change,7,0,7,,,,,,,,,6,11,107,,,
53081,note_on,0,0,13,,,,,,,,,12,,,,65,0
53081,note_on,0,0,13,,,,,,,,,12,,,,57,0
53081,note_on,0,0,13,,,,,,,,,12,,,,74,0
53081,note_on,6,0,13,,,,,,,,,12,,,,50,0
53081,note_on,34,0,4,,,,,,,,,3,,,,62,0
53081,note_on,0,0,4,,,,,,,,,3,,,,65,0
53081,control_change,7,0,8,,,,,,,,,7,11,107,,,
53082,control_change,1,0,13,,,,,,,,,12,11,107,,,
53084,control_change,7,0,14,,,,,,,,,13,11,107,,,
53085,control_change,8,0,11,,,,,,,,,10,11,104,,,
53086,control_change,7,0,15,,,,,,,,,14,11,107,,,
53086,note_on,11,0,5,,,,,,,,,4,,,,64,100
53087,control_change,8,0,12,,,,,,,,,11,11,104,,,
53087,control_change,8,0,7,,,,,,,,,6,11,104,,,
53088,note_on,11,0,6,,,,,,,,,5,,,,64,100
53089,control_change,8,0,8,,,,,,,,,7,11,104,,,
53090,control_change,8,0,13,,,,,,,,,12,11,104,,,
53092,control_change,8,0,14,,,,,,,,,13,11,104,,,
53092,note_on,11,0,4,,,,,,,,,3,,,,64,100
53092,note_on,0,0,4,,,,,,,,,3,,,,61,100
53093,note_on,7,0,5,,,,,,,,,4,,,,64,0
53094,control_change,8,0,15,,,,,,,,,14,11,104,,,
53095,note_on,7,0,6,,,,,,,,,5,,,,64,0
53099,note_on,7,0,4,,,,,,,,,3,,,,61,0
53099,note_on,0,0,4,,,,,,,,,3,,,,64,0
53100,note_on,15,0,11,,,,,,,,,10,,,,89,0
53100,set_tempo,60,1,0,,,,,,1071429,,,,,,,,
53101,note_on,60,0,1,,,,,,,,,0,,,,86,0
53101,note_on,8,0,5,,,,,,,,,4,,,,65,100
53101,note_on,0,0,1,,,,,,,,,0,,,,89,0
53102,note_on,0,0,2,,,,,,,,,1,,,,77,0
53102,note_on,0,0,3,,,,,,,,,2,,,,65,0
53102,note_on,15,0,12,,,,,,,,,11,,,,77,0
53102,note_on,0,0,12,,,,,,,,,11,,,,69,0
53102,note_on,0,0,12,,,,,,,,,11,,,,62,0
53102,note_on,60,0,3,,,,,,,,,2,,,,74,0
53102,note_on,60,0,2,,,,,,,,,1,,,,81,0
53103,note_on,8,0,6,,,,,,,,,5,,,,62,100
53105,note_on,15,0,13,,,,,,,,,12,,,,57,112
53105,note_on,0,0,13,,,,,,,,,12,,,,74,112
53105,note_on,0,0,13,,,,,,,,,12,,,,50,112
53105,note_on,0,0,13,,,,,,,,,12,,,,65,112
53107,note_on,8,0,4,,,,,,,,,3,,,,65,100
53107,note_on,0,0,4,,,,,,,,,3,,,,62,100
53107,note_on,15,0,14,,,,,,,,,13,,,,50,112
53108,note_on,60,0,10,,,,,,,,,15,,,,45,0
53109,note_on,15,0,15,,,,,,,,,14,,,,38,112
53135,note_on,34,0,5,,,,,,,,,4,,,,65,0
53137,note_on,30,0,14,,,,,,,,,13,,,,50,0
53137,note_on,34,0,6,,,,,,,,,5,,,,62,0
53139,note_on,30,0,15,,,,,,,,,14,,,,38,0
53141,note_on,0,0,13,,,,,,,,,12,,,,50,0
53141,note_on,0,0,13,,,,,,,,,12,,,,74,0
53141,note_on,0,0,13,,,,,,,,,12,,,,57,0
53141,note_on,36,0,13,,,,,,,,,12,,,,65,0
53141,note_on,34,0,4,,,,,,,,,3,,,,62,0
53141,note_on,0,0,4,,,,,,,,,3,,,,65,0
53146,note_on,11,0,5,,,,,,,,,4,,,,67,100
53148,note_on,11,0,6,,,,,,,,,5,,,,64,100
53152,note_on,11,0,4,,,,,,,,,3,,,,67,100
53152,note_on,0,0,4,,,,,,,,,3,,,,64,100
53153,note_on,7,0,5,,,,,,,,,4,,,,67,0
53155,note_on,7,0,6,,,,,,,,,5,,,,64,0
53159,note_on,0,0,4,,,,,,,,,3,,,,67,0
53159,note_on,7,0,4,,,,,,,,,3,,,,64,0
53160,set_tempo,60,1,0,,,,,,1142857,,,,,,,,
53160,note_on,60,0,11,,,,,,,,,10,,,,74,112
53161,note_on,8,0,5,,,,,,,,,4,,,,65,100
53162,note_on,60,0,12,,,,,,,,,11,,,,62,112
53162,note_on,75,0,7,,,,,,,,,6,,,,69,0
53162,note_on,0,0,7,,,,,,,,,6,,,,57,127
53162,note_on,0,0,7,,,,,,,,,6,,,,69,127
53162,note_on,0,0,7,,,,,,,,,6,,,,57,0
53163,note_on,8,0,6,,,,,,,,,5,,,,62,100
53164,note_on,0,0,8,,,,,,,,,7,,,,57,110
53164,note_on,75,0,8,,,,,,,,,7,,,,65,110
53166,note_on,90,0,9,,,,,,,,,8,,,,50,110
53167,note_on,8,0,4,,,,,,,,,3,,,,65,100
53167,note_on,0,0,4,,,,,,,,,3,,,,62,100
53168,note_on,60,0,10,,,,,,,,,15,,,,45,82
53191,note_on,30,0,5,,,,,,,,,4,,,,65,0
53193,note_on,30,0,6,,,,,,,,,5,,,,62,0
53194,note_on,34,0,11,,,,,,,,,10,,,,74,0
53194,note_on,30,0,8,,,,,,,,,7,,,,57,0
53194,note_on,0,0,8,,,,,,,,,7,,,,65,0
53196,note_on,34,0,12,,,,,,,,,11,,,,62,0
53196,note_on,30,0,9,,,,,,,,,8,,,,50,0
53197,note_on,0,0,4,,,,,,,,,3,,,,65,0
53197,note_on,30,0,4,,,,,,,,,3,,,,62,0
53205,note_on,11,0,11,,,,,,,,,10,,,,76,112
53207,note_on,11,0,12,,,,,,,,,11,,,,64,112
53216,note_on,11,0,11,,,,,,,,,10,,,,76,0
53218,note_on,11,0,12,,,,,,,,,11,,,,64,0
53220,set_tempo,60,1,0,,,,,,1071429,,,,,,,,
53220,note_on,4,0,11,,,,,,,,,10,,,,77,112
53221,note_on,30,0,5,,,,,,,,,4,,,,65,100
53222,note_on,4,0,12,,,,,,,,,11,,,,65,112
53223,note_on,30,0,6,,,,,,,,,5,,,,62,100
53227,note_on,30,0,4,,,,,,,,,3,,,,65,100
53227,note_on,0,0,4,,,,,,,,,3,,,,62,100
53228,note_on,60,0,10,,,,,,,,,15,,,,45,0
53251,note_on,30,0,5,,,,,,,,,4,,,,65,0
53253,note_on,30,0,6,,,,,,,,,5,,,,62,0
53254,note_on,34,0,11,,,,,,,,,10,,,,77,0
53256,note_on,34,0,12,,,,,,,,,11,,,,65,0
53257,note_on,30,0,4,,,,,,,,,3,,,,62,0
53257,note_on,0,0,4,,,,,,,,,3,,,,65,0
53265,note_on,11,0,11,,,,,,,,,10,,,,79,112
53267,note_on,11,0,12,,,,,,,,,11,,,,67,112
53276,note_on,11,0,11,,,,,,,,,10,,,,79,0
53278,note_on,11,0,12,,,,,,,,,11,,,,67,0
53280,note_on,0,0,11,,,,,,,,,10,,,,69,112
53280,note_on,0,0,11,,,,,,,,,10,,,,81,112
53280,control_change,4,0,11,,,,,,,,,10,11,122,,,
53280,set_tempo,60,1,0,,,,,,1153846,,,,,,,,
53281,note_on,0,0,1,,,,,,,,,0,,,,81,116
53281,note_on,180,0,1,,,,,,,,,0,,,,84,116
53281,note_on,30,0,5,,,,,,,,,4,,,,64,115
53282,note_on,0,0,2,,,,,,,,,1,,,,69,115
53282,note_on,180,0,2,,,,,,,,,1,,,,72,115
53282,control_change,0,0,7,,,,,,,,,6,11,122,,,
53282,note_on,0,0,7,,,,,,,,,6,,,,57,0
53282,note_on,120,0,7,,,,,,,,,6,,,,69,0
53282,control_change,4,0,12,,,,,,,,,11,11,122,,,
53282,note_on,0,0,12,,,,,,,,,11,,,,57,112
53282,note_on,0,0,12,,,,,,,,,11,,,,69,112
53282,note_on,180,0,3,,,,,,,,,2,,,,72,116
53282,note_on,0,0,3,,,,,,,,,2,,,,69,116
53283,note_on,30,0,6,,,,,,,,,5,,,,60,115
53284,note_on,0,0,8,,,,,,,,,7,,,,60,110
53284,control_change,90,0,8,,,,,,,,,7,11,122,,,
53284,note_on,0,0,8,,,,,,,,,7,,,,64,110
53285,note_on,144,0,13,,,,,,,,,12,,,,57,112
53285,note_on,0,0,13,,,,,,,,,12,,,,72,112
53285,note_on,0,0,13,,,,,,,,,12,,,,64,112
53285,control_change,0,0,13,,,,,,,,,12,11,122,,,
53286,note_on,90,0,9,,,,,,,,,8,,,,57,110
53287,control_change,150,0,14,,,,,,,,,13,11,122,,,
53287,note_on,0,0,4,,,,,,,,,3,,,,60,100
53287,control_change,7,0,11,,,,,,,,,10,11,119,,,
53287,control_change,30,0,4,,,,,,,,,3,11,122,,,
53287,note_on,0,0,14,,,,,,,,,13,,,,45,112
53287,note_on,0,0,4,,,,,,,,,3,,,,64,100
53289,control_change,7,0,7,,,,,,,,,6,11,119,,,
53289,control_change,7,0,12,,,,,,,,,11,11,119,,,
53289,control_change,150,0,15,,,,,,,,,14,11,122,,,
53289,note_on,0,0,15,,,,,,,,,14,,,,33,112
53291,control_change,7,0,8,,,,,,,,,7,11,119,,,
53292,control_change,7,0,13,,,,,,,,,12,11,119,,,
53294,control_change,7,0,4,,,,,,,,,3,11,119,,,
53294,control_change,7,0,14,,,,,,,,,13,11,119,,,
53295,control_change,8,0,11,,,,,,,,,10,11,116,,,
53296,control_change,7,0,15,,,,,,,,,14,11,119,,,
53297,control_change,8,0,7,,,,,,,,,6,11,116,,,
53297,control_change,8,0,12,,,,,,,,,11,11,116,,,
53299,control_change,8,0,8,,,,,,,,,7,11,116,,,
53300,control_change,8,0,13,,,,,,,,,12,11,116,,,
53302,control_change,7,0,11,,,,,,,,,10,11,113,,,
53302,control_change,8,0,4,,,,,,,,,3,11,116,,,
53302,control_change,8,0,14,,,,,,,,,13,11,116,,,
53304,control_change,7,0,7,,,,,,,,,6,11,113,,,
53304,control_change,7,0,12,,,,,,,,,11,11,113,,,
53304,control_change,8,0,15,,,,,,,,,14,11,116,,,
53306,control_change,7,0,8,,,,,,,,,7,11,113,,,
53307,control_change,7,0,13,,,,,,,,,12,11,113,,,
53309,control_change,7,0,14,,,,,,,,,13,11,113,,,
53309,control_change,7,0,4,,,,,,,,,3,11,113,,,
53310,note_on,0,0,11,,,,,,,,,10,,,,81,0
53310,note_on,8,0,11,,,,,,,,,10,,,,69,0
53310,control_change,0,0,11,,,,,,,,,10,11,110,,,
53311,note_on,30,0,1,,,,,,,,,0,,,,81,0
53311,note_on,0,0,1,,,,,,,,,0,,,,84,0
53311,note_on,0,0,1,,,,,,,,,0,,,,86,101
53311,note_on,0,0,1,,,,,,,,,0,,,,83,101
53311,control_change,7,0,15,,,,,,,,,14,11,113,,,
53312,note_on,0,0,3,,,,,,,,,2,,,,74,101
53312,note_on,0,0,3,,,,,,,,,2,,,,72,0
53312,note_on,30,0,3,,,,,,,,,2,,,,69,0
53312,note_on,8,0,12,,,,,,,,,11,,,,69,0
53312,control_change,8,0,7,,,,,,,,,6,11,110,,,
53312,note_on,0,0,3,,,,,,,,,2,,,,71,101
53312,note_on,30,0,2,,,,,,,,,1,,,,69,0
53312,note_on,0,0,2,,,,,,,,,1,,,,74,100
53312,control_change,0,0,12,,,,,,,,,11,11,110,,,
53312,note_on,0,0,2,,,,,,,,,1,,,,72,0
53312,note_on,0,0,2,,,,,,,,,1,,,,71,100
53312,note_on,0,0,12,,,,,,,,,11,,,,57,0
53314,control_change,0,0,8,,,,,,,,,7,11,110,,,
53314,note_on,0,0,8,,,,,,,,,7,,,,60,0
53314,note_on,8,0,8,,,,,,,,,7,,,,64,0
53315,control_change,8,0,13,,,,,,,,,12,11,110,,,
53316,note_on,30,0,9,,,,,,,,,8,,,,57,0
53317,control_change,8,0,14,,,,,,,,,13,11,110,,,
53317,control_change,8,0,4,,,,,,,,,3,11,110,,,
53317,control_change,7,0,11,,,,,,,,,10,11,107,,,
53319,control_change,7,0,7,,,,,,,,,6,11,107,,,
53319,control_change,7,0,12,,,,,,,,,11,11,107,,,
53319,control_change,8,0,15,,,,,,,,,14,11,110,,,
53321,control_change,7,0,8,,,,,,,,,7,11,107,,,
53322,control_change,7,0,13,,,,,,,,,12,11,107,,,
53324,control_change,7,0,4,,,,,,,,,3,11,107,,,
53324,control_change,7,0,14,,,,,,,,,13,11,107,,,
53325,control_change,8,0,11,,,,,,,,,10,11,104,,,
53326,control_change,7,0,15,,,,,,,,,14,11,107,,,
53327,control_change,8,0,7,,,,,,,,,6,11,104,,,
53327,control_change,8,0,12,,,,,,,,,11,11,104,,,
53329,control_change,8,0,8,,,,,,,,,7,11,104,,,
53330,control_change,8,0,13,,,,,,,,,12,11,104,,,
53332,control_change,8,0,14,,,,,,,,,13,11,104,,,
53332,control_change,8,0,4,,,,,,,,,3,11,104,,,
53334,control_change,8,0,15,,,,,,,,,14,11,104,,,
53340,note_on,15,0,11,,,,,,,,,10,,,,69,112
53340,note_on,0,0,11,,,,,,,,,10,,,,81,112
53340,set_tempo,60,1,0,,,,,,1071429,,,,,,,,
53341,note_on,0,0,1,,,,,,,,,0,,,,84,101
53341,note_on,0,0,1,,,,,,,,,0,,,,88,101
53341,note_on,0,0,1,,,,,,,,,0,,,,86,0
53341,note_on,30,0,1,,,,,,,,,0,,,,83,0
53342,note_on,0,0,2,,,,,,,,,1,,,,76,100
53342,note_on,0,0,3,,,,,,,,,2,,,,72,101
53342,note_on,0,0,2,,,,,,,,,1,,,,74,0
53342,note_on,0,0,3,,,,,,,,,2,,,,76,101
53342,note_on,30,0,3,,,,,,,,,2,,,,71,0
53342,note_on,0,0,3,,,,,,,,,2,,,,74,0
53342,note_on,0,0,2,,,,,,,,,1,,,,72,100
53342,note_on,30,0,2,,,,,,,,,1,,,,71,0
53342,note_on,15,0,12,,,,,,,,,11,,,,57,112
53342,note_on,0,0,12,,,,,,,,,11,,,,69,112
53344,note_on,0,0,8,,,,,,,,,7,,,,60,110
53344,note_on,15,0,8,,,,,,,,,7,,,,64,110
53345,note_on,0,0,13,,,,,,,,,12,,,,57,0
53345,note_on,0,0,13,,,,,,,,,12,,,,72,0
53345,note_on,15,0,13,,,,,,,,,12,,,,64,0
53346,note_on,30,0,9,,,,,,,,,8,,,,57,110
53347,note_on,0,0,4,,,,,,,,,3,,,,64,0
53347,note_on,15,0,4,,,,,,,,,3,,,,60,0
53347,note_on,15,0,14,,,,,,,,,13,,,,45,0
53349,note_on,15,0,15,,,,,,,,,14,,,,33,0
53370,note_on,0,0,11,,,,,,,,,10,,,,69,0
53370,note_on,30,0,11,,,,,,,,,10,,,,81,0
53371,note_on,30,0,1,,,,,,,,,0,,,,84,0
53371,note_on,0,0,1,,,,,,,,,0,,,,88,0
53371,note_on,0,0,1,,,,,,,,,0,,,,92,101
53371,note_on,0,0,1,,,,,,,,,0,,,,83,101
53372,note_on,30,0,2,,,,,,,,,1,,,,76,0
53372,note_on,0,0,3,,,,,,,,,2,,,,80,101
53372,note_on,0,0,3,,,,,,,,,2,,,,71,101
53372,note_on,0,0,3,,,,,,,,,2,,,,72,0
53372,note_on,0,0,12,,,,,,,,,11,,,,57,0
53372,note_on,30,0,12,,,,,,,,,11,,,,69,0
53372,note_on,0,0,2,,,,,,,,,1,,,,72,0
53372,note_on,0,0,2,,,,,,,,,1,,,,71,100
53372,note_on,0,0,2,,,,,,,,,1,,,,80,100
53372,note_on,30,0,3,,,,,,,,,2,,,,76,0
53374,note_on,30,0,8,,,,,,,,,7,,,,60,0
53374,note_on,0,0,8,,,,,,,,,7,,,,64,0
53376,note_on,30,0,9,,,,,,,,,8,,,,57,0
53391,note_on,110,0,5,,,,,,,,,4,,,,64,0
53393,note_on,110,0,6,,,,,,,,,5,,,,60,0
53400,set_tempo,60,1,0,,,,,,1142857,,,,,,,,
53401,note_on,30,0,1,,,,,,,,,0,,,,83,0
53401,note_on,0,0,1,,,,,,,,,0,,,,92,0
53401,note_on,10,0,5,,,,,,,,,4,,,,64,115
53401,note_on,0,0,1,,,,,,,,,0,,,,84,101
53401,note_on,0,0,1,,,,,,,,,0,,,,93,101
53402,note_on,0,0,2,,,,,,,,,1,,,,72,100
53402,note_on,0,0,2,,,,,,,,,1,,,,71,0
53402,note_on,30,0,2,,,,,,,,,1,,,,80,0
53402,note_on,0,0,3,,,,,,,,,2,,,,72,101
53402,note_on,0,0,3,,,,,,,,,2,,,,71,0
53402,note_on,0,0,2,,,,,,,,,1,,,,81,100
53402,note_on,30,0,3,,,,,,,,,2,,,,80,0
53402,note_on,0,0,3,,,,,,,,,2,,,,81,101
53403,note_on,10,0,6,,,,,,,,,5,,,,60,115
53405,note_on,60,0,13,,,,,,,,,12,,,,57,112
53407,note_on,60,0,14,,,,,,,,,13,,,,57,112
53409,note_on,60,0,15,,,,,,,,,14,,,,45,112
53431,note_on,30,0,1,,,,,,,,,0,,,,84,0
53431,note_on,0,0,1,,,,,,,,,0,,,,93,0
53432,note_on,0,0,2,,,,,,,,,1,,,,81,0
53432,note_on,30,0,2,,,,,,,,,1,,,,72,0
53432,note_on,30,0,3,,,,,,,,,2,,,,81,0
53432,note_on,0,0,3,,,,,,,,,2,,,,72,0
53439,note_on,34,0,13,,,,,,,,,12,,,,57,0
53441,note_on,34,0,14,,,,,,,,,13,,,,57,0
53443,note_on,34,0,15,,,,,,,,,14,,,,45,0
53450,note_on,11,0,13,,,,,,,,,12,,,,59,112
53452,note_on,11,0,14,,,,,,,,,13,,,,59,112
53454,note_on,11,0,15,,,,,,,,,14,,,,47,112
53460,set_tempo,60,1,0,,,,,,1071429,,,,,,,,
53461,note_on,30,0,1,,,,,,,,,0,,,,93,101
53461,note_on,0,0,1,,,,,,,,,0,,,,84,101
53461,note_on,11,0,13,,,,,,,,,12,,,,59,0
53462,note_on,0,0,2,,,,,,,,,1,,,,72,100
53462,note_on,30,0,2,,,,,,,,,1,,,,81,100
53462,note_on,30,0,3,,,,,,,,,2,,,,72,101
53462,note_on,0,0,3,,,,,,,,,2,,,,81,101
53463,note_on,11,0,14,,,,,,,,,13,,,,59,0
53465,note_on,11,0,15,,,,,,,,,14,,,,47,0
53465,note_on,4,0,13,,,,,,,,,12,,,,60,112
53467,note_on,4,0,14,,,,,,,,,13,,,,60,112
53469,note_on,4,0,15,,,,,,,,,14,,,,48,112
53491,note_on,0,0,1,,,,,,,,,0,,,,93,0
53491,note_on,30,0,1,,,,,,,,,0,,,,84,0
53492,note_on,0,0,3,,,,,,,,,2,,,,72,0
53492,note_on,30,0,3,,,,,,,,,2,,,,81,0
53492,note_on,0,0,2,,,,,,,,,1,,,,81,0
53492,note_on,30,0,2,,,,,,,,,1,,,,72,0
53499,note_on,34,0,13,,,,,,,,,12,,,,60,0
53501,note_on,34,0,14,,,,,,,,,13,,,,60,0
53503,note_on,34,0,15,,,,,,,,,14,,,,48,0
53510,note_on,11,0,13,,,,,,,,,12,,,,59,112
53511,note_on,110,0,5,,,,,,,,,4,,,,64,0
53512,note_on,11,0,14,,,,,,,,,13,,,,59,112
53513,note_on,110,0,6,,,,,,,,,5,,,,60,0
53514,note_on,11,0,15,,,,,,,,,14,,,,47,112
53520,control_change,150,0,11,,,,,,,,,10,11,122,,,
53520,set_tempo,60,1,0,,,,,,1153846,,,,,,,,
53520,note_on,0,0,11,,,,,,,,,10,,,,72,112
53520,note_on,0,0,11,,,,,,,,,10,,,,81,112
53520,note_on,0,0,11,,,,,,,,,10,,,,64,112
53521,note_on,10,0,5,,,,,,,,,4,,,,60,100
53521,note_on,0,0,1,,,,,,,,,0,,,,84,101
53521,control_change,30,0,1,,,,,,,,,0,11,106,,,
53521,note_on,0,0,1,,,,,,,,,0,,,,93,101
53521,note_on,11,0,13,,,,,,,,,12,,,,59,0
53522,control_change,150,0,12,,,,,,,,,11,11,122,,,
53522,note_on,0,0,12,,,,,,,,,11,,,,72,112
53522,note_on,0,0,12,,,,,,,,,11,,,,64,112
53522,note_on,0,0,12,,,,,,,,,11,,,,57,112
53522,note_on,0,0,7,,,,,,,,,6,,,,69,112
53522,control_change,195,0,7,,,,,,,,,6,11,122,,,
53522,note_on,0,0,3,,,,,,,,,2,,,,69,101
53522,note_on,30,0,3,,,,,,,,,2,,,,72,101
53522,note_on,30,0,2,,,,,,,,,1,,,,72,100
53522,control_change,0,0,2,,,,,,,,,1,11,106,,,
53522,note_on,0,0,2,,,,,,,,,1,,,,81,100
53522,note_on,0,0,7,,,,,,,,,6,,,,57,112
53523,note_on,10,0,6,,,,,,,,,5,,,,60,100
53523,note_on,11,0,14,,,,,,,,,13,,,,59,0
53524,note_on,0,0,8,,,,,,,,,7,,,,64,110
53524,note_on,0,0,8,,,,,,,,,7,,,,60,110
53524,control_change,150,0,8,,,,,,,,,7,11,122,,,
53525,note_on,11,0,15,,,,,,,,,14,,,,47,0
53525,control_change,0,0,13,,,,,,,,,12,11,122,,,
53525,note_on,4,0,13,,,,,,,,,12,,,,57,112
53526,note_on,150,0,9,,,,,,,,,8,,,,57,110
53527,note_on,0,0,14,,,,,,,,,13,,,,57,112
53527,control_change,7,0,11,,,,,,,,,10,11,119,,,
53527,control_change,4,0,14,,,,,,,,,13,11,122,,,
53527,note_on,180,0,4,,,,,,,,,3,,,,57,100
53528,note_on,300,0,10,,,,,,,,,15,,,,45,82
53528,control_change,7,0,1,,,,,,,,,0,11,103,,,
53529,control_change,7,0,12,,,,,,,,,11,11,119,,,
53529,control_change,4,0,15,,,,,,,,,14,11,122,,,
53529,control_change,7,0,2,,,,,,,,,1,11,103,,,
53529,control_change,7,0,7,,,,,,,,,6,11,119,,,
53529,note_on,0,0,15,,,,,,,,,14,,,,45,112
53531,control_change,7,0,8,,,,,,,,,7,11,119,,,
53532,control_change,7,0,13,,,,,,,,,12,11,119,,,
53534,control_change,7,0,14,,,,,,,,,13,11,119,,,
53535,control_change,8,0,11,,,,,,,,,10,11,116,,,
53536,control_change,7,0,15,,,,,,,,,14,11,119,,,
53537,control_change,8,0,7,,,,,,,,,6,11,116,,,
53537,control_change,8,0,12,,,,,,,,,11,11,116,,,
53539,control_change,8,0,8,,,,,,,,,7,11,116,,,
53540,control_change,8,0,13,,,,,,,,,12,11,116,,,
53542,control_change,7,0,11,,,,,,,,,10,11,113,,,
53542,control_change,8,0,14,,,,,,,,,13,11,116,,,
53543,control_change,15,0,1,,,,,,,,,0,11,99,,,
53544,control_change,7,0,12,,,,,,,,,11,11,113,,,
53544,control_change,7,0,7,,,,,,,,,6,11,113,,,
53544,control_change,15,0,2,,,,,,,,,1,11,99,,,
53544,control_change,8,0,15,,,,,,,,,14,11,116,,,
53546,control_change,7,0,8,,,,,,,,,7,11,113,,,
53547,control_change,7,0,13,,,,,,,,,12,11,113,,,
53549,control_change,7,0,14,,,,,,,,,13,11,113,,,
53550,control_change,8,0,11,,,,,,,,,10,11,110,,,
53551,control_change,7,0,15,,,,,,,,,14,11,113,,,
53552,control_change,8,0,12,,,,,,,,,11,11,110,,,
53552,note_on,30,0,3,,,,,,,,,2,,,,69,0
53552,control_change,8,0,7,,,,,,,,,6,11,110,,,
53552,note_on,0,0,3,,,,,,,,,2,,,,72,0
53554,control_change,0,0,8,,,,,,,,,7,11,110,,,
53554,note_on,0,0,8,,,,,,,,,7,,,,64,0
53554,note_on,8,0,8,,,,,,,,,7,,,,60,0
53555,note_on,8,0,13,,,,,,,,,12,,,,57,0
53555,note_on,34,0,5,,,,,,,,,4,,,,60,0
53555,control_change,0,0,13,,,,,,,,,12,11,110,,,
53556,note_on,30,0,9,,,,,,,,,8,,,,57,0
53557,control_change,7,0,11,,,,,,,,,10,11,107,,,
53557,control_change,0,0,14,,,,,,,,,13,11,110,,,
53557,note_on,8,0,14,,,,,,,,,13,,,,57,0
53557,note_on,30,0,4,,,,,,,,,3,,,,57,0
53557,note_on,34,0,6,,,,,,,,,5,,,,60,0
53558,control_change,15,0,1,,,,,,,,,0,11,94,,,
53559,note_on,8,0,15,,,,,,,,,14,,,,45,0
53559,control_change,15,0,2,,,,,,,,,1,11,94,,,
53559,control_change,0,0,15,,,,,,,,,14,11,110,,,
53559,control_change,7,0,12,,,,,,,,,11,11,107,,,
53559,control_change,7,0,7,,,,,,,,,6,11,107,,,
53561,control_change,7,0,8,,,,,,,,,7,11,107,,,
53562,control_change,7,0,13,,,,,,,,,12,11,107,,,
53564,control_change,7,0,14,,,,,,,,,13,11,107,,,
53565,control_change,8,0,11,,,,,,,,,10,11,104,,,
53566,note_on,11,0,5,,,,,,,,,4,,,,62,100
53566,control_change,7,0,15,,,,,,,,,14,11,107,,,
53567,control_change,8,0,7,,,,,,,,,6,11,104,,,
53567,control_change,8,0,12,,,,,,,,,11,11,104,,,
53567,note_on,0,0,3,,,,,,,,,2,,,,68,101
53567,note_on,15,0,3,,,,,,,,,2,,,,71,101
53568,note_on,11,0,6,,,,,,,,,5,,,,62,100
53569,control_change,8,0,8,,,,,,,,,7,11,104,,,
53570,control_change,8,0,13,,,,,,,,,12,11,104,,,
53572,control_change,8,0,14,,,,,,,,,13,11,104,,,
53572,note_on,15,0,4,,,,,,,,,3,,,,56,100
53573,note_on,7,0,5,,,,,,,,,4,,,,62,0
53574,control_change,8,0,15,,,,,,,,,14,11,104,,,
53575,note_on,7,0,6,,,,,,,,,5,,,,62,0
53577,note_on,10,0,3,,,,,,,,,2,,,,68,0
53577,note_on,0,0,3,,,,,,,,,2,,,,71,0
53580,set_tempo,60,1,0,,,,,,1071429,,,,,,,,
53580,note_on,0,0,11,,,,,,,,,10,,,,81,0
53580,note_on,0,0,11,,,,,,,,,10,,,,72,0
53580,note_on,15,0,11,,,,,,,,,10,,,,64,0
53581,note_on,0,0,1,,,,,,,,,0,,,,93,0
53581,note_on,23,0,1,,,,,,,,,0,,,,84,0
53581,note_on,8,0,5,,,,,,,,,4,,,,60,100
53582,note_on,23,0,2,,,,,,,,,1,,,,81,0
53582,note_on,10,0,4,,,,,,,,,3,,,,56,0
53582,note_on,0,0,2,,,,,,,,,1,,,,72,0
53582,note_on,0,0,12,,,,,,,,,11,,,,72,0
53582,note_on,0,0,3,,,,,,,,,2,,,,72,101
53582,note_on,5,0,3,,,,,,,,,2,,,,69,101
53582,note_on,0,0,12,,,,,,,,,11,,,,64,0
53582,note_on,15,0,12,,,,,,,,,11,,,,57,0
53583,note_on,8,0,6,,,,,,,,,5,,,,60,100
53584,note_on,15,0,8,,,,,,,,,7,,,,64,110
53584,note_on,0,0,8,,,,,,,,,7,,,,60,110
53585,note_on,15,0,13,,,,,,,,,12,,,,57,112
53586,note_on,30,0,9,,,,,,,,,8,,,,57,110
53587,note_on,5,0,4,,,,,,,,,3,,,,57,100
53587,note_on,15,0,14,,,,,,,,,13,,,,57,112
53588,note_on,60,0,10,,,,,,,,,15,,,,45,0
53589,note_on,15,0,15,,,,,,,,,14,,,,45,112
53612,note_on,30,0,3,,,,,,,,,2,,,,72,0
53612,note_on,0,0,3,,,,,,,,,2,,,,69,0
53614,note_on,0,0,8,,,,,,,,,7,,,,64,0
53614,note_on,30,0,8,,,,,,,,,7,,,,60,0
53615,note_on,34,0,5,,,,,,,,,4,,,,60,0
53615,note_on,30,0,13,,,,,,,,,12,,,,57,0
53616,note_on,30,0,9,,,,,,,,,8,,,,57,0
53617,note_on,30,0,4,,,,,,,,,3,,,,57,0
53617,note_on,34,0,6,,,,,,,,,5,,,,60,0
53617,note_on,30,0,14,,,,,,,,,13,,,,57,0
53619,note_on,30,0,15,,,,,,,,,14,,,,45,0
53626,note_on,11,0,5,,,,,,,,,4,,,,62,100
53627,note_on,15,0,3,,,,,,,,,2,,,,74,101
53627,note_on,0,0,3,,,,,,,,,2,,,,71,101
53628,note_on,11,0,6,,,,,,,,,5,,,,62,100
53632,note_on,0,0,7,,,,,,,,,6,,,,57,0
53632,note_on,15,0,4,,,,,,,,,3,,,,59,100
53632,note_on,65,0,7,,,,,,,,,6,,,,69,0
53633,note_on,7,0,5,,,,,,,,,4,,,,62,0
53635,note_on,7,0,6,,,,,,,,,5,,,,62,0
53637,note_on,0,0,3,,,,,,,,,2,,,,74,0
53637,note_on,10,0,3,,,,,,,,,2,,,,71,0
53640,note_on,60,0,11,,,,,,,,,10,,,,81,112
53640,set_tempo,60,1,0,,,,,,1142857,,,,,,,,
53641,note_on,8,0,5,,,,,,,,,4,,,,60,100
53642,note_on,5,0,3,,,,,,,,,2,,,,69,101
53642,note_on,10,0,4,,,,,,,,,3,,,,59,0
53642,note_on,0,0,3,,,,,,,,,2,,,,72,101
53642,note_on,0,0,7,,,,,,,,,6,,,,69,112
53642,note_on,60,0,12,,,,,,,,,11,,,,69,112
53642,note_on,10,0,7,,,,,,,,,6,,,,57,112
53643,note_on,8,0,6,,,,,,,,,5,,,,60,100
53647,note_on,5,0,4,,,,,,,,,3,,,,57,100
53648,note_on,60,0,10,,,,,,,,,15,,,,45,82
53671,note_on,30,0,5,,,,,,,,,4,,,,60,0
53672,note_on,0,0,3,,,,,,,,,2,,,,69,0
53672,note_on,30,0,3,,,,,,,,,2,,,,72,0
53673,note_on,30,0,6,,,,,,,,,5,,,,60,0
53674,note_on,34,0,11,,,,,,,,,10,,,,81,0
53676,note_on,34,0,12,,,,,,,,,11,,,,69,0
53677,note_on,30,0,4,,,,,,,,,3,,,,57,0
53685,note_on,11,0,11,,,,,,,,,10,,,,83,112
53687,note_on,11,0,12,,,,,,,,,11,,,,71,112
53696,note_on,11,0,11,,,,,,,,,10,,,,83,0
53698,note_on,11,0,12,,,,,,,,,11,,,,71,0
53700,note_on,4,0,11,,,,,,,,,10,,,,84,112
53700,set_tempo,60,1,0,,,,,,1071429,,,,,,,,
53701,note_on,30,0,5,,,,,,,,,4,,,,60,100
53702,note_on,4,0,12,,,,,,,,,11,,,,72,112
53702,note_on,30,0,3,,,,,,,,,2,,,,69,101
53702,note_on,0,0,3,,,,,,,,,2,,,,72,101
53703,note_on,30,0,6,,,,,,,,,5,,,,60,100
53707,note_on,30,0,4,,,,,,,,,3,,,,57,100
53708,note_on,60,0,10,,,,,,,,,15,,,,45,0
53731,note_on,30,0,5,,,,,,,,,4,,,,60,0
53732,note_on,0,0,3,,,,,,,,,2,,,,69,0
53732,note_on,30,0,3,,,,,,,,,2,,,,72,0
53733,note_on,30,0,6,,,,,,,,,5,,,,60,0
53734,note_on,34,0,11,,,,,,,,,10,,,,84,0
53736,note_on,34,0,12,,,,,,,,,11,,,,72,0
53737,note_on,30,0,4,,,,,,,,,3,,,,57,0
53745,note_on,11,0,11,,,,,,,,,10,,,,86,112
53747,note_on,11,0,12,,,,,,,,,11,,,,74,112
53752,note_on,110,0,7,,,,,,,,,6,,,,69,0
53752,note_on,0,0,7,,,,,,,,,6,,,,57,0
53756,note_on,11,0,11,,,,,,,,,10,,,,86,0
53758,note_on,11,0,12,,,,,,,,,11,,,,74,0
53760,set_tempo,60,1,0,,,,,,1153846,,,,,,,,
53760,note_on,0,0,11,,,,,,,,,10,,,,88,112
53760,control_change,4,0,11,,,,,,,,,10,11,122,,,
53760,note_on,0,0,11,,,,,,,,,10,,,,76,112
53761,note_on,30,0,5,,,,,,,,,4,,,,64,100
53761,note_on,180,0,1,,,,,,,,,0,,,,76,101
53761,note_on,0,0,1,,,,,,,,,0,,,,79,101
53762,note_on,0,0,12,,,,,,,,,11,,,,64,112
53762,note_on,180,0,2,,,,,,,,,1,,,,67,100
53762,note_on,30,0,3,,,,,,,,,2,,,,64,101
53762,note_on,0,0,12,,,,,,,,,11,,,,76,112
53762,control_change,4,0,12,,,,,,,,,11,11,122,,,
53762,note_on,0,0,2,,,,,,,,,1,,,,64,100
53762,control_change,10,0,7,,,,,,,,,6,11,122,,,
53762,note_on,0,0,3,,,,,,,,,2,,,,67,101
53763,note_on,30,0,6,,,,,,,,,5,,,,59,100
53764,note_on,0,0,8,,,,,,,,,7,,,,59,110
53764,control_change,150,0,8,,,,,,,,,7,11,122,,,
53764,note_on,0,0,8,,,,,,,,,7,,,,67,110
53765,note_on,150,0,13,,,,,,,,,12,,,,59,112
53765,note_on,0,0,13,,,,,,,,,12,,,,52,112
53765,note_on,0,0,13,,,,,,,,,12,,,,67,112
53765,control_change,0,0,13,,,,,,,,,12,11,122,,,
53766,note_on,150,0,9,,,,,,,,,8,,,,52,110
53767,note_on,0,0,14,,,,,,,,,13,,,,52,112
53767,control_change,7,0,11,,,,,,,,,10,11,119,,,
53767,note_on,30,0,4,,,,,,,,,3,,,,59,105
53767,control_change,150,0,14,,,,,,,,,13,11,122,,,
53769,note_on,0,0,15,,,,,,,,,14,,,,40,112
53769,control_change,150,0,15,,,,,,,,,14,11,122,,,
53769,control_change,7,0,7,,,,,,,,,6,11,119,,,
53769,control_change,7,0,12,,,,,,,,,11,11,119,,,
53771,control_change,7,0,8,,,,,,,,,7,11,119,,,
53772,control_change,7,0,13,,,,,,,,,12,11,119,,,
53774,control_change,7,0,14,,,,,,,,,13,11,119,,,
53775,control_change,8,0,11,,,,,,,,,10,11,116,,,
53776,control_change,7,0,15,,,,,,,,,14,11,119,,,
53777,control_change,8,0,12,,,,,,,,,11,11,116,,,
53777,control_change,8,0,7,,,,,,,,,6,11,116,,,
53779,control_change,8,0,8,,,,,,,,,7,11,116,,,
53780,control_change,8,0,13,,,,,,,,,12,11,116,,,
53782,control_change,7,0,11,,,,,,,,,10,11,113,,,
53782,control_change,8,0,14,,,,,,,,,13,11,116,,,
53784,control_change,7,0,7,,,,,,,,,6,11,113,,,
53784,control_change,7,0,12,,,,,,,,,11,11,113,,,
53784,control_change,8,0,15,,,,,,,,,14,11,116,,,
53786,control_change,7,0,8,,,,,,,,,7,11,113,,,
53787,control_change,7,0,13,,,,,,,,,12,11,113,,,
53789,control_change,7,0,14,,,,,,,,,13,11,113,,,
53790,note_on,8,0,11,,,,,,,,,10,,,,88,0
53790,note_on,0,0,11,,,,,,,,,10,,,,76,0
53790,control_change,0,0,11,,,,,,,,,10,11,110,,,
53791,note_on,0,0,1,,,,,,,,,0,,,,76,0
53791,note_on,0,0,1,,,,,,,,,0,,,,78,101
53791,note_on,0,0,1,,,,,,,,,0,,,,81,101
53791,note_on,30,0,1,,,,,,,,,0,,,,79,0
53791,control_change,7,0,15,,,,,,,,,14,11,113,,,
53792,note_on,0,0,3,,,,,,,,,2,,,,69,101
53792,note_on,0,0,3,,,,,,,,,2,,,,66,101
53792,note_on,0,0,3,,,,,,,,,2,,,,64,0
53792,note_on,30,0,3,,,,,,,,,2,,,,67,0
53792,note_on,0,0,2,,,,,,,,,1,,,,69,100
53792,note_on,0,0,2,,,,,,,,,1,,,,66,100
53792,control_change,0,0,12,,,,,,,,,11,11,110,,,
53792,note_on,0,0,12,,,,,,,,,11,,,,76,0
53792,note_on,8,0,12,,,,,,,,,11,,,,64,0
53792,note_on,0,0,2,,,,,,,,,1,,,,67,0
53792,note_on,30,0,2,,,,,,,,,1,,,,64,0
53792,control_change,8,0,7,,,,,,,,,6,11,110,,,
53794,note_on,8,0,8,,,,,,,,,7,,,,59,0
53794,note_on,0,0,8,,,,,,,,,7,,,,67,0
53794,control_change,0,0,8,,,,,,,,,7,11,110,,,
53795,note_on,8,0,13,,,,,,,,,12,,,,52,0
53795,note_on,0,0,13,,,,,,,,,12,,,,67,0
53795,note_on,0,0,13,,,,,,,,,12,,,,59,0
53795,control_change,0,0,13,,,,,,,,,12,11,110,,,
53796,note_on,30,0,9,,,,,,,,,8,,,,52,0
53797,control_change,0,0,14,,,,,,,,,13,11,110,,,
53797,note_on,8,0,14,,,,,,,,,13,,,,52,0
53797,control_change,7,0,11,,,,,,,,,10,11,107,,,
53799,control_change,7,0,7,,,,,,,,,6,11,107,,,
53799,control_change,7,0,12,,,,,,,,,11,11,107,,,
53799,note_on,8,0,15,,,,,,,,,14,,,,40,0
53799,control_change,0,0,15,,,,,,,,,14,11,110,,,
53801,control_change,7,0,8,,,,,,,,,7,11,107,,,
53802,control_change,7,0,13,,,,,,,,,12,11,107,,,
53804,control_change,7,0,14,,,,,,,,,13,11,107,,,
53805,control_change,8,0,11,,,,,,,,,10,11,104,,,
53806,control_change,7,0,15,,,,,,,,,14,11,107,,,
53807,control_change,8,0,12,,,,,,,,,11,11,104,,,
53807,control_change,8,0,7,,,,,,,,,6,11,104,,,
53809,control_change,8,0,8,,,,,,,,,7,11,104,,,
53810,control_change,8,0,13,,,,,,,,,12,11,104,,,
53812,control_change,8,0,14,,,,,,,,,13,11,104,,,
53814,control_change,8,0,15,,,,,,,,,14,11,104,,,
53820,note_on,0,0,11,,,,,,,,,10,,,,88,112
53820,note_on,15,0,11,,,,,,,,,10,,,,76,112
53820,set_tempo,60,1,0,,,,,,1071429,,,,,,,,
53821,note_on,0,0,1,,,,,,,,,0,,,,83,101
53821,note_on,0,0,1,,,,,,,,,0,,,,78,0
53821,note_on,0,0,1,,,,,,,,,0,,,,79,101
53821,note_on,30,0,1,,,,,,,,,0,,,,81,0
53822,note_on,15,0,12,,,,,,,,,11,,,,64,112
53822,note_on,0,0,12,,,,,,,,,11,,,,76,112
53822,note_on,0,0,2,,,,,,,,,1,,,,67,100
53822,note_on,0,0,2,,,,,,,,,1,,,,71,100
53822,note_on,0,0,2,,,,,,,,,1,,,,69,0
53822,note_on,30,0,2,,,,,,,,,1,,,,66,0
53822,note_on,0,0,3,,,,,,,,,2,,,,67,101
53822,note_on,0,0,3,,,,,,,,,2,,,,66,0
53822,note_on,0,0,3,,,,,,,,,2,,,,71,101
53822,note_on,30,0,3,,,,,,,,,2,,,,69,0
53824,note_on,0,0,8,,,,,,,,,7,,,,67,110
53824,note_on,15,0,8,,,,,,,,,7,,,,59,110
53826,note_on,30,0,9,,,,,,,,,8,,,,52,110
53827,note_on,60,0,4,,,,,,,,,3,,,,59,0
53850,note_on,30,0,11,,,,,,,,,10,,,,88,0
53850,note_on,0,0,11,,,,,,,,,10,,,,76,0
53851,note_on,0,0,1,,,,,,,,,0,,,,78,101
53851,note_on,30,0,1,,,,,,,,,0,,,,79,0
53851,note_on,0,0,1,,,,,,,,,0,,,,83,0
53851,note_on,0,0,1,,,,,,,,,0,,,,87,101
53852,note_on,0,0,2,,,,,,,,,1,,,,66,100
53852,note_on,0,0,2,,,,,,,,,1,,,,75,100
53852,note_on,0,0,3,,,,,,,,,2,,,,75,101
53852,note_on,30,0,12,,,,,,,,,11,,,,76,0
53852,note_on,0,0,12,,,,,,,,,11,,,,64,0
53852,note_on,30,0,3,,,,,,,,,2,,,,67,0
53852,note_on,0,0,2,,,,,,,,,1,,,,71,0
53852,note_on,30,0,2,,,,,,,,,1,,,,67,0
53852,note_on,0,0,3,,,,,,,,,2,,,,71,0
53852,note_on,0,0,3,,,,,,,,,2,,,,66,101
53854,note_on,0,0,8,,,,,,,,,7,,,,59,0
53854,note_on,30,0,8,,,,,,,,,7,,,,67,0
53856,note_on,30,0,9,,,,,,,,,8,,,,52,0
53880,note_on,30,0,11,,,,,,,,,10,,,,76,112
53880,set_tempo,60,1,0,,,,,,1142857,,,,,,,,
53881,note_on,0,0,1,,,,,,,,,0,,,,76,101
53881,note_on,30,0,1,,,,,,,,,0,,,,78,0
53881,note_on,0,0,1,,,,,,,,,0,,,,87,0
53881,note_on,120,0,5,,,,,,,,,4,,,,64,0
53882,note_on,0,0,2,,,,,,,,,1,,,,76,100
53882,note_on,30,0,3,,,,,,,,,2,,,,66,0
53882,note_on,0,0,2,,,,,,,,,1,,,,64,100
53882,note_on,0,0,2,,,,,,,,,1,,,,75,0
53882,note_on,0,0,3,,,,,,,,,2,,,,75,0
53882,note_on,30,0,2,,,,,,,,,1,,,,66,0
53882,note_on,0,0,3,,,,,,,,,2,,,,76,101
53882,note_on,0,0,3,,,,,,,,,2,,,,64,101
53882,note_on,30,0,12,,,,,,,,,11,,,,64,112
53883,note_on,120,0,6,,,,,,,,,5,,,,59,0
53885,note_on,75,0,13,,,,,,,,,12,,,,64,112
53887,note_on,60,0,4,,,,,,,,,3,,,,52,100
53887,note_on,75,0,14,,,,,,,,,13,,,,52,112
53889,note_on,75,0,15,,,,,,,,,14,,,,40,112
53907,note_on,27,0,11,,,,,,,,,10,,,,76,0
53909,note_on,27,0,12,,,,,,,,,11,,,,64,0
53912,note_on,27,0,13,,,,,,,,,12,,,,64,0
53914,note_on,27,0,14,,,,,,,,,13,,,,52,0
53915,note_on,34,0,1,,,,,,,,,0,,,,76,0
53916,note_on,0,0,2,,,,,,,,,1,,,,76,0
53916,note_on,34,0,2,,,,,,,,,1,,,,64,0
53916,note_on,0,0,3,,,,,,,,,2,,,,76,0
53916,note_on,34,0,3,,,,,,,,,2,,,,64,0
53916,note_on,27,0,15,,,,,,,,,14,,,,40,0
53921,note_on,34,0,4,,,,,,,,,3,,,,52,0
53925,note_on,18,0,11,,,,,,,,,10,,,,78,112
53926,note_on,11,0,1,,,,,,,,,0,,,,78,101
53927,note_on,0,0,2,,,,,,,,,1,,,,78,100
53927,note_on,11,0,2,,,,,,,,,1,,,,66,100
53927,note_on,11,0,3,,,,,,,,,2,,,,66,101
53927,note_on,18,0,12,,,,,,,,,11,,,,66,112
53930,note_on,18,0,13,,,,,,,,,12,,,,66,112
53932,note_on,11,0,4,,,,,,,,,3,,,,54,100
53932,note_on,18,0,14,,,,,,,,,13,,,,54,112
53933,note_on,7,0,1,,,,,,,,,0,,,,78,0
53934,note_on,18,0,15,,,,,,,,,14,,,,42,112
53934,note_on,0,0,2,,,,,,,,,1,,,,66,0
53934,note_on,7,0,2,,,,,,,,,1,,,,78,0
53934,note_on,9,0,11,,,,,,,,,10,,,,78,0
53934,note_on,7,0,3,,,,,,,,,2,,,,66,0
53936,note_on,9,0,12,,,,,,,,,11,,,,66,0
53939,note_on,9,0,13,,,,,,,,,12,,,,66,0
53939,note_on,7,0,4,,,,,,,,,3,,,,54,0
53940,set_tempo,60,1,0,,,,,,1071429,,,,,,,,
53940,note_on,6,0,11,,,,,,,,,10,,,,79,112
53941,note_on,8,0,1,,,,,,,,,0,,,,79,101
53941,note_on,9,0,14,,,,,,,,,13,,,,54,0
53942,note_on,8,0,3,,,,,,,,,2,,,,67,101
53942,note_on,0,0,2,,,,,,,,,1,,,,67,100
53942,note_on,8,0,2,,,,,,,,,1,,,,79,100
53942,note_on,6,0,12,,,,,,,,,11,,,,67,112
53943,note_on,9,0,15,,,,,,,,,14,,,,42,0
53945,note_on,6,0,13,,,,,,,,,12,,,,67,112
53947,note_on,6,0,14,,,,,,,,,13,,,,55,112
53947,note_on,8,0,4,,,,,,,,,3,,,,55,100
53949,note_on,6,0,15,,,,,,,,,14,,,,43,112
53967,note_on,27,0,11,,,,,,,,,10,,,,79,0
53969,note_on,27,0,12,,,,,,,,,11,,,,67,0
53972,note_on,27,0,13,,,,,,,,,12,,,,67,0
53974,note_on,27,0,14,,,,,,,,,13,,,,55,0
53975,note_on,34,0,1,,,,,,,,,0,,,,79,0
53976,note_on,0,0,2,,,,,,,,,1,,,,79,0
53976,note_on,34,0,2,,,,,,,,,1,,,,67,0
53976,note_on,34,0,3,,,,,,,,,2,,,,67,0
53976,note_on,27,0,15,,,,,,,,,14,,,,43,0
53981,note_on,34,0,4,,,,,,,,,3,,,,55,0
53985,note_on,18,0,11,,,,,,,,,10,,,,81,112
53986,note_on,11,0,1,,,,,,,,,0,,,,81,101
53987,note_on,11,0,3,,,,,,,,,2,,,,69,101
53987,note_on,18,0,12,,,,,,,,,11,,,,69,112
53987,note_on,0,0,2,,,,,,,,,1,,,,81,100
53987,note_on,11,0,2,,,,,,,,,1,,,,69,100
53990,note_on,18,0,13,,,,,,,,,12,,,,69,112
53992,note_on,11,0,4,,,,,,,,,3,,,,57,100
53992,note_on,18,0,14,,,,,,,,,13,,,,57,112
53993,note_on,7,0,1,,,,,,,,,0,,,,81,0
53994,note_on,7,0,3,,,,,,,,,2,,,,69,0
53994,note_on,18,0,15,,,,,,,,,14,,,,45,112
53994,note_on,7,0,2,,,,,,,,,1,,,,81,0
53994,note_on,0,0,2,,,,,,,,,1,,,,69,0
53994,note_on,9,0,11,,,,,,,,,10,,,,81,0
53996,note_on,9,0,12,,,,,,,,,11,,,,69,0
53999,note_on,7,0,4,,,,,,,,,3,,,,57,0
53999,note_on,9,0,13,,,,,,,,,12,,,,69,0
54000,set_tempo,60,1,0,,,,,,1121495,,,,,,,,
54000,note_on,6,0,11,,,,,,,,,10,,,,83,112
54001,note_on,8,0,1,,,,,,,,,0,,,,83,101
54001,note_on,9,0,14,,,,,,,,,13,,,,57,0
54002,note_on,0,0,2,,,,,,,,,1,,,,71,100
54002,note_on,195,0,7,,,,,,,,,6,,,,71,112
54002,note_on,8,0,3,,,,,,,,,2,,,,71,101
54002,note_on,8,0,2,,,,,,,,,1,,,,83,100
54002,note_on,6,0,12,,,,,,,,,11,,,,71,112
54003,note_on,9,0,15,,,,,,,,,14,,,,45,0
54005,note_on,6,0,13,,,,,,,,,12,,,,71,112
54007,note_on,8,0,4,,,,,,,,,3,,,,59,100
54007,note_on,6,0,14,,,,,,,,,13,,,,59,112
54009,note_on,6,0,15,,,,,,,,,14,,,,47,112
54027,note_on,27,0,11,,,,,,,,,10,,,,83,0
54029,note_on,27,0,12,,,,,,,,,11,,,,71,0
54032,note_on,27,0,13,,,,,,,,,12,,,,71,0
54034,note_on,27,0,14,,,,,,,,,13,,,,59,0
54035,note_on,34,0,1,,,,,,,,,0,,,,83,0
54036,note_on,0,0,2,,,,,,,,,1,,,,83,0
54036,note_on,34,0,2,,,,,,,,,1,,,,71,0
54036,note_on,27,0,15,,,,,,,,,14,,,,47,0
54036,note_on,34,0,3,,,,,,,,,2,,,,71,0
54041,note_on,34,0,4,,,,,,,,,3,,,,59,0
54045,note_on,18,0,11,,,,,,,,,10,,,,81,112
54046,note_on,11,0,1,,,,,,,,,0,,,,81,101
54047,note_on,18,0,12,,,,,,,,,11,,,,69,112
54047,note_on,11,0,2,,,,,,,,,1,,,,69,100
54047,note_on,0,0,2,,,,,,,,,1,,,,81,100
54047,note_on,11,0,3,,,,,,,,,2,,,,69,101
54050,note_on,18,0,13,,,,,,,,,12,,,,69,112
54052,note_on,18,0,14,,,,,,,,,13,,,,57,112
54052,note_on,11,0,4,,,,,,,,,3,,,,57,100
54053,note_on,7,0,1,,,,,,,,,0,,,,81,0
54054,note_on,9,0,11,,,,,,,,,10,,,,81,0
54054,note_on,7,0,2,,,,,,,,,1,,,,81,0
54054,note_on,0,0,2,,,,,,,,,1,,,,69,0
54054,note_on,7,0,3,,,,,,,,,2,,,,69,0
54054,note_on,18,0,15,,,,,,,,,14,,,,45,112
54056,note_on,9,0,12,,,,,,,,,11,,,,69,0
54059,note_on,7,0,4,,,,,,,,,3,,,,57,0
54059,note_on,9,0,13,,,,,,,,,12,,,,69,0
54060,set_tempo,60,1,0,,,,,,1043478,,,,,,,,
54060,note_on,6,0,11,,,,,,,,,10,,,,79,112
54061,note_on,9,0,14,,,,,,,,,13,,,,57,0
54061,note_on,8,0,1,,,,,,,,,0,,,,79,101
54062,note_on,0,0,2,,,,,,,,,1,,,,67,100
54062,note_on,8,0,2,,,,,,,,,1,,,,79,100
54062,note_on,8,0,3,,,,,,,,,2,,,,67,101
54062,note_on,60,0,7,,,,,,,,,6,,,,71,0
54062,note_on,6,0,12,,,,,,,,,11,,,,67,112
54063,note_on,9,0,15,,,,,,,,,14,,,,45,0
54065,note_on,6,0,13,,,,,,,,,12,,,,67,112
54067,note_on,6,0,14,,,,,,,,,13,,,,55,112
54067,note_on,8,0,4,,,,,,,,,3,,,,55,100
54069,note_on,6,0,15,,,,,,,,,14,,,,43,112
54087,note_on,27,0,11,,,,,,,,,10,,,,79,0
54089,note_on,27,0,12,,,,,,,,,11,,,,67,0
54092,note_on,27,0,13,,,,,,,,,12,,,,67,0
54094,note_on,27,0,14,,,,,,,,,13,,,,55,0
54095,note_on,34,0,1,,,,,,,,,0,,,,79,0
54096,note_on,27,0,15,,,,,,,,,14,,,,43,0
54096,note_on,34,0,3,,,,,,,,,2,,,,67,0
54096,note_on,34,0,2,,,,,,,,,1,,,,67,0
54096,note_on,0,0,2,,,,,,,,,1,,,,79,0
54101,note_on,34,0,4,,,,,,,,,3,,,,55,0
54105,note_on,18,0,11,,,,,,,,,10,,,,81,112
54106,note_on,11,0,1,,,,,,,,,0,,,,81,101
54107,note_on,0,0,2,,,,,,,,,1,,,,81,100
54107,note_on,11,0,3,,,,,,,,,2,,,,69,101
54107,note_on,11,0,2,,,,,,,,,1,,,,69,100
54107,note_on,18,0,12,,,,,,,,,11,,,,69,112
54110,note_on,18,0,13,,,,,,,,,12,,,,69,112
54112,note_on,11,0,4,,,,,,,,,3,,,,57,100
54112,note_on,18,0,14,,,,,,,,,13,,,,57,112
54113,note_on,7,0,1,,,,,,,,,0,,,,81,0
54114,note_on,7,0,2,,,,,,,,,1,,,,81,0
54114,note_on,0,0,2,,,,,,,,,1,,,,69,0
54114,note_on,9,0,11,,,,,,,,,10,,,,81,0
54114,note_on,18,0,15,,,,,,,,,14,,,,45,112
54114,note_on,7,0,3,,,,,,,,,2,,,,69,0
54116,note_on,9,0,12,,,,,,,,,11,,,,69,0
54119,note_on,7,0,4,,,,,,,,,3,,,,57,0
54119,note_on,9,0,13,,,,,,,,,12,,,,69,0
54120,note_on,6,0,11,,,,,,,,,10,,,,83,112
54120,set_tempo,60,1,0,,,,,,1100917,,,,,,,,
54121,note_on,8,0,1,,,,,,,,,0,,,,83,101
54121,note_on,9,0,14,,,,,,,,,13,,,,57,0
54122,note_on,60,0,7,,,,,,,,,6,,,,71,112
54122,note_on,8,0,2,,,,,,,,,1,,,,83,100
54122,note_on,6,0,12,,,,,,,,,11,,,,71,112
54122,note_on,0,0,2,,,,,,,,,1,,,,71,100
54122,note_on,8,0,3,,,,,,,,,2,,,,71,101
54123,note_on,9,0,15,,,,,,,,,14,,,,45,0
54125,note_on,6,0,13,,,,,,,,,12,,,,71,112
54127,note_on,8,0,4,,,,,,,,,3,,,,59,100
54127,note_on,6,0,14,,,,,,,,,13,,,,59,112
54129,note_on,6,0,15,,,,,,,,,14,,,,47,112
54147,note_on,27,0,11,,,,,,,,,10,,,,83,0
54149,note_on,27,0,12,,,,,,,,,11,,,,71,0
54152,note_on,27,0,13,,,,,,,,,12,,,,71,0
54154,note_on,27,0,14,,,,,,,,,13,,,,59,0
54155,note_on,34,0,1,,,,,,,,,0,,,,83,0
54156,note_on,0,0,2,,,,,,,,,1,,,,83,0
54156,note_on,34,0,2,,,,,,,,,1,,,,71,0
54156,note_on,34,0,3,,,,,,,,,2,,,,71,0
54156,note_on,27,0,15,,,,,,,,,14,,,,47,0
54161,note_on,34,0,4,,,,,,,,,3,,,,59,0
54165,note_on,18,0,11,,,,,,,,,10,,,,81,112
54166,note_on,11,0,1,,,,,,,,,0,,,,81,101
54167,note_on,11,0,2,,,,,,,,,1,,,,69,100
54167,note_on,18,0,12,,,,,,,,,11,,,,69,112
54167,note_on,11,0,3,,,,,,,,,2,,,,69,101
54167,note_on,0,0,2,,,,,,,,,1,,,,81,100
54170,note_on,18,0,13,,,,,,,,,12,,,,69,112
54172,note_on,11,0,4,,,,,,,,,3,,,,57,100
54172,note_on,18,0,14,,,,,,,,,13,,,,57,112
54173,note_on,7,0,1,,,,,,,,,0,,,,81,0
54174,note_on,7,0,3,,,,,,,,,2,,,,69,0
54174,note_on,18,0,15,,,,,,,,,14,,,,45,112
54174,note_on,9,0,11,,,,,,,,,10,,,,81,0
54174,note_on,7,0,2,,,,,,,,,1,,,,81,0
54174,note_on,0,0,2,,,,,,,,,1,,,,69,0
54176,note_on,9,0,12,,,,,,,,,11,,,,69,0
54179,note_on,9,0,13,,,,,,,,,12,,,,69,0
54179,note_on,7,0,4,,,,,,,,,3,,,,57,0
54180,set_tempo,60,1,0,,,,,,1043478,,,,,,,,
54180,note_on,6,0,11,,,,,,,,,10,,,,79,112
54181,note_on,8,0,1,,,,,,,,,0,,,,79,101
54181,note_on,9,0,14,,,,,,,,,13,,,,57,0
54182,note_on,8,0,2,,,,,,,,,1,,,,79,100
54182,note_on,6,0,12,,,,,,,,,11,,,,67,112
54182,note_on,8,0,3,,,,,,,,,2,,,,67,101
54182,note_on,60,0,7,,,,,,,,,6,,,,71,0
54182,note_on,0,0,2,,,,,,,,,1,,,,67,100
54183,note_on,9,0,15,,,,,,,,,14,,,,45,0
54185,note_on,6,0,13,,,,,,,,,12,,,,67,112
54187,note_on,6,0,14,,,,,,,,,13,,,,55,112
54187,note_on,8,0,4,,,,,,,,,3,,,,55,100
54189,note_on,6,0,15,,,,,,,,,14,,,,43,112
54207,note_on,27,0,11,,,,,,,,,10,,,,79,0
54209,note_on,27,0,12,,,,,,,,,11,,,,67,0
54212,note_on,27,0,13,,,,,,,,,12,,,,67,0
54214,note_on,27,0,14,,,,,,,,,13,,,,55,0
54215,note_on,34,0,1,,,,,,,,,0,,,,79,0
54216,note_on,34,0,3,,,,,,,,,2,,,,67,0
54216,note_on,27,0,15,,,,,,,,,14,,,,43,0
54216,note_on,34,0,2,,,,,,,,,1,,,,67,0
54216,note_on,0,0,2,,,,,,,,,1,,,,79,0
54221,note_on,34,0,4,,,,,,,,,3,,,,55,0
54225,note_on,18,0,11,,,,,,,,,10,,,,81,112
54226,note_on,11,0,1,,,,,,,,,0,,,,81,101
54227,note_on,18,0,12,,,,,,,,,11,,,,69,112
54227,note_on,11,0,2,,,,,,,,,1,,,,69,100
54227,note_on,0,0,2,,,,,,,,,1,,,,81,100
54227,note_on,11,0,3,,,,,,,,,2,,,,69,101
54230,note_on,18,0,13,,,,,,,,,12,,,,69,112
54232,note_on,18,0,14,,,,,,,,,13,,,,57,112
54232,note_on,11,0,4,,,,,,,,,3,,,,57,100
54233,note_on,7,0,1,,,,,,,,,0,,,,81,0
54234,note_on,18,0,15,,,,,,,,,14,,,,45,112
54234,note_on,0,0,2,,,,,,,,,1,,,,69,0
54234,note_on,7,0,3,,,,,,,,,2,,,,69,0
54234,note_on,9,0,11,,,,,,,,,10,,,,81,0
54234,note_on,7,0,2,,,,,,,,,1,,,,81,0
54236,note_on,9,0,12,,,,,,,,,11,,,,69,0
54239,note_on,9,0,13,,,,,,,,,12,,,,69,0
54239,note_on,7,0,4,,,,,,,,,3,,,,57,0
54240,note_on,6,0,11,,,,,,,,,10,,,,83,127
54240,set_tempo,60,1,0,,,,,,1121495,,,,,,,,
54241,note_on,8,0,1,,,,,,,,,0,,,,83,116
54241,note_on,9,0,14,,,,,,,,,13,,,,57,0
54242,note_on,6,0,12,,,,,,,,,11,,,,71,127
54242,note_on,60,0,7,,,,,,,,,6,,,,71,127
54242,note_on,0,0,2,,,,,,,,,1,,,,71,115
54242,note_on,8,0,2,,,,,,,,,1,,,,83,115
54242,note_on,8,0,3,,,,,,,,,2,,,,71,116
54243,note_on,9,0,15,,,,,,,,,14,,,,45,0
54245,note_on,6,0,13,,,,,,,,,12,,,,71,127
54247,note_on,8,0,4,,,,,,,,,3,,,,59,115
54247,note_on,6,0,14,,,,,,,,,13,,,,59,127
54249,note_on,6,0,15,,,,,,,,,14,,,,47,127
54300,set_tempo,60,1,0,,,,,,1043478,,,,,,,,
54345,note_on,105,0,11,,,,,,,,,10,,,,83,0
54347,note_on,105,0,12,,,,,,,,,11,,,,71,0
54350,note_on,105,0,13,,,,,,,,,12,,,,71,0
54351,note_on,110,0,1,,,,,,,,,0,,,,83,0
54352,note_on,110,0,7,,,,,,,,,6,,,,71,0
54352,note_on,110,0,3,,,,,,,,,2,,,,71,0
54352,note_on,110,0,2,,,,,,,,,1,,,,71,0
54352,note_on,105,0,14,,,,,,,,,13,,,,59,0
54352,note_on,0,0,2,,,,,,,,,1,,,,83,0
54354,note_on,105,0,15,,,,,,,,,14,,,,47,0
54357,note_on,110,0,4,,,,,,,,,3,,,,59,0
54360,set_tempo,60,1,0,,,,,,1100917,,,,,,,,
54360,note_on,15,0,11,,,,,,,,,10,,,,83,127
54361,note_on,10,0,1,,,,,,,,,0,,,,83,116
54362,note_on,15,0,12,,,,,,,,,11,,,,71,127
54362,note_on,10,0,7,,,,,,,,,6,,,,71,127
54362,note_on,0,0,2,,,,,,,,,1,,,,83,115
54362,note_on,10,0,3,,,,,,,,,2,,,,71,116
54362,note_on,10,0,2,,,,,,,,,1,,,,71,115
54365,note_on,15,0,13,,,,,,,,,12,,,,71,127
54367,note_on,15,0,14,,,,,,,,,13,,,,59,127
54367,note_on,10,0,4,,,,,,,,,3,,,,59,115
54369,note_on,15,0,15,,,,,,,,,14,,,,47,127
54420,set_tempo,60,1,0,,,,,,1043478,,,,,,,,
54450,set_tempo,30,1,0,,,,,,1481481,,,,,,,,
54465,note_on,105,0,11,,,,,,,,,10,,,,83,0
54467,note_on,105,0,12,,,,,,,,,11,,,,71,0
54470,note_on,105,0,13,,,,,,,,,12,,,,71,0
54471,note_on,110,0,1,,,,,,,,,0,,,,83,0
54472,note_on,110,0,3,,,,,,,,,2,,,,71,0
54472,note_on,110,0,7,,,,,,,,,6,,,,71,0
54472,note_on,110,0,2,,,,,,,,,1,,,,83,0
54472,note_on,0,0,2,,,,,,,,,1,,,,71,0
54472,note_on,105,0,14,,,,,,,,,13,,,,59,0
54474,note_on,105,0,15,,,,,,,,,14,,,,47,0
54477,note_on,110,0,4,,,,,,,,,3,,,,59,0
54480,set_tempo,30,1,0,,,,,,1165049,,,,,,,,
54481,note_on,0,0,1,,,,,,,,,0,,,,82,116
54481,note_on,600,0,5,,,,,,,,,4,,,,64,115
54481,note_on,10,0,1,,,,,,,,,0,,,,88,116
54482,note_on,10,0,3,,,,,,,,,2,,,,70,116
54482,note_on,0,0,3,,,,,,,,,2,,,,76,116
54482,note_on,0,0,2,,,,,,,,,1,,,,76,115
54482,note_on,10,0,2,,,,,,,,,1,,,,82,115
54483,note_on,600,0,6,,,,,,,,,5,,,,52,115
54484,note_on,630,0,8,,,,,,,,,7,,,,60,125
54485,program_change,629,0,9,,,,,,,,58,8,,,,,
54486,note_on,1,0,9,,,,,,,,,8,,,,48,125
54487,note_on,0,0,4,,,,,,,,,3,,,,58,115
54487,note_on,10,0,4,,,,,,,,,3,,,,64,115
54540,set_tempo,60,1,0,,,,,,1071429,,,,,,,,
54591,note_on,110,0,5,,,,,,,,,4,,,,64,0
54591,note_on,110,0,1,,,,,,,,,0,,,,82,0
54591,note_on,0,0,1,,,,,,,,,0,,,,88,0
54592,note_on,110,0,2,,,,,,,,,1,,,,76,0
54592,note_on,0,0,2,,,,,,,,,1,,,,82,0
54592,note_on,110,0,3,,,,,,,,,2,,,,76,0
54592,note_on,0,0,3,,,,,,,,,2,,,,70,0
54593,note_on,110,0,6,,,,,,,,,5,,,,52,0
54594,note_on,110,0,8,,,,,,,,,7,,,,60,0
54596,note_on,110,0,9,,,,,,,,,8,,,,48,0
54597,note_on,110,0,4,,,,,,,,,3,,,,58,0
54597,note_on,0,0,4,,,,,,,,,3,,,,64,0
54600,set_tempo,60,1,0,,,,,,1142857,,,,,,,,
54601,note_on,10,0,1,,,,,,,,,0,,,,88,116
54601,note_on,0,0,1,,,,,,,,,0,,,,82,116
54601,note_on,10,0,5,,,,,,,,,4,,,,64,115
54602,note_on,0,0,2,,,,,,,,,1,,,,76,115
54602,note_on,10,0,2,,,,,,,,,1,,,,82,115
54602,note_on,10,0,3,,,,,,,,,2,,,,70,116
54602,note_on,0,0,3,,,,,,,,,2,,,,76,116
54603,note_on,10,0,6,,,,,,,,,5,,,,52,115
54604,note_on,10,0,8,,,,,,,,,7,,,,60,125
54606,note_on,10,0,9,,,,,,,,,8,,,,48,125
54607,note_on,0,0,4,,,,,,,,,3,,,,58,115
54607,note_on,10,0,4,,,,,,,,,3,,,,64,115
54660,set_tempo,60,1,0,,,,,,1071429,,,,,,,,
54690,set_tempo,30,1,0,,,,,,1304348,,,,,,,,
54711,note_on,110,0,5,,,,,,,,,4,,,,64,0
54711,note_on,110,0,1,,,,,,,,,0,,,,82,0
54711,note_on,0,0,1,,,,,,,,,0,,,,88,0
54712,note_on,110,0,3,,,,,,,,,2,,,,76,0
54712,note_on,0,0,3,,,,,,,,,2,,,,70,0
54712,note_on,110,0,2,,,,,,,,,1,,,,76,0
54712,note_on,0,0,2,,,,,,,,,1,,,,82,0
54713,note_on,110,0,6,,,,,,,,,5,,,,52,0
54714,note_on,110,0,8,,,,,,,,,7,,,,60,0
54716,note_on,110,0,9,,,,,,,,,8,,,,48,0
54717,note_on,0,0,4,,,,,,,,,3,,,,64,0
54717,note_on,110,0,4,,,,,,,,,3,,,,58,0
54720,note_on,255,0,11,,,,,,,,,10,,,,83,127
54720,set_tempo,30,1,0,,,,,,1153846,,,,,,,,
54721,note_on,10,0,1,,,,,,,,,0,,,,83,116
54722,note_on,250,0,7,,,,,,,,,6,,,,71,127
54722,note_on,10,0,3,,,,,,,,,2,,,,71,116
54722,note_on,10,0,2,,,,,,,,,1,,,,71,115
54722,note_on,0,0,2,,,,,,,,,1,,,,83,115
54722,note_on,255,0,12,,,,,,,,,11,,,,71,127
54725,note_on,255,0,13,,,,,,,,,12,,,,71,127
54727,note_on,255,0,14,,,,,,,,,13,,,,59,127
54727,note_on,10,0,4,,,,,,,,,3,,,,59,115
54729,note_on,255,0,15,,,,,,,,,14,,,,47,127
54780,set_tempo,60,1,0,,,,,,1071429,,,,,,,,
54825,note_on,105,0,11,,,,,,,,,10,,,,83,0
54827,note_on,105,0,12,,,,,,,,,11,,,,71,0
54830,note_on,105,0,13,,,,,,,,,12,,,,71,0
54831,note_on,110,0,1,,,,,,,,,0,,,,83,0
54832,note_on,110,0,7,,,,,,,,,6,,,,71,0
54832,note_on,0,0,2,,,,,,,,,1,,,,71,0
54832,note_on,110,0,2,,,,,,,,,1,,,,83,0
54832,note_on,105,0,14,,,,,,,,,13,,,,59,0
54832,note_on,110,0,3,,,,,,,,,2,,,,71,0
54834,note_on,105,0,15,,,,,,,,,14,,,,47,0
54837,note_on,110,0,4,,,,,,,,,3,,,,59,0
54840,note_on,15,0,11,,,,,,,,,10,,,,83,127
54840,set_tempo,60,1,0,,,,,,1142857,,,,,,,,
54841,note_on,10,0,1,,,,,,,,,0,,,,83,116
54842,note_on,10,0,7,,,,,,,,,6,,,,71,127
54842,note_on,15,0,12,,,,,,,,,11,,,,71,127
54842,note_on,10,0,3,,,,,,,,,2,,,,71,116
54842,note_on,10,0,2,,,,,,,,,1,,,,83,115
54842,note_on,0,0,2,,,,,,,,,1,,,,71,115
54845,note_on,15,0,13,,,,,,,,,12,,,,71,127
54847,note_on,10,0,4,,,,,,,,,3,,,,59,115
54847,note_on,15,0,14,,,,,,,,,13,,,,59,127
54849,note_on,15,0,15,,,,,,,,,14,,,,47,127
54900,set_tempo,60,1,0,,,,,,1071429,,,,,,,,
54930,set_tempo,30,1,0,,,,,,1463415,,,,,,,,
54945,note_on,105,0,11,,,,,,,,,10,,,,83,0
54947,note_on,105,0,12,,,,,,,,,11,,,,71,0
54950,note_on,105,0,13,,,,,,,,,12,,,,71,0
54951,note_on,110,0,1,,,,,,,,,0,,,,83,0
54952,note_on,110,0,7,,,,,,,,,6,,,,71,0
54952,note_on,105,0,14,,,,,,,,,13,,,,59,0
54952,note_on,110,0,3,,,,,,,,,2,,,,71,0
54952,note_on,0,0,2,,,,,,,,,1,,,,83,0
54952,note_on,110,0,2,,,,,,,,,1,,,,71,0
54954,note_on,105,0,15,,,,,,,,,14,,,,47,0
54957,note_on,110,0,4,,,,,,,,,3,,,,59,0
54960,set_tempo,30,1,0,,,,,,1165049,,,,,,,,
54961,note_on,10,0,1,,,,,,,,,0,,,,82,116
54961,note_on,0,0,1,,,,,,,,,0,,,,88,116
54961,note_on,250,0,5,,,,,,,,,4,,,,64,115
54962,note_on,0,0,3,,,,,,,,,2,,,,70,116
54962,note_on,10,0,3,,,,,,,,,2,,,,76,116
54962,note_on,0,0,2,,,,,,,,,1,,,,82,115
54962,note_on,10,0,2,,,,,,,,,1,,,,76,115
54963,note_on,250,0,6,,,,,,,,,5,,,,52,115
54964,note_on,250,0,8,,,,,,,,,7,,,,60,125
54966,note_on,250,0,9,,,,,,,,,8,,,,48,125
54967,note_on,0,0,4,,,,,,,,,3,,,,64,115
54967,note_on,10,0,4,,,,,,,,,3,,,,58,115
55020,set_tempo,60,1,0,,,,,,1071429,,,,,,,,
55071,note_on,110,0,5,,,,,,,,,4,,,,64,0
55071,note_on,0,0,1,,,,,,,,,0,,,,82,0
55071,note_on,110,0,1,,,,,,,,,0,,,,88,0
55072,note_on,110,0,3,,,,,,,,,2,,,,70,0
55072,note_on,110,0,2,,,,,,,,,1,,,,82,0
55072,note_on,0,0,2,,,,,,,,,1,,,,76,0
55072,note_on,0,0,3,,,,,,,,,2,,,,76,0
55073,note_on,110,0,6,,,,,,,,,5,,,,52,0
55074,note_on,110,0,8,,,,,,,,,7,,,,60,0
55076,note_on,110,0,9,,,,,,,,,8,,,,48,0
55077,note_on,110,0,4,,,,,,,,,3,,,,64,0
55077,note_on,0,0,4,,,,,,,,,3,,,,58,0
55080,set_tempo,60,1,0,,,,,,1142857,,,,,,,,
55081,note_on,0,0,1,,,,,,,,,0,,,,82,116
55081,note_on,10,0,1,,,,,,,,,0,,,,88,116
55081,note_on,10,0,5,,,,,,,,,4,,,,64,115
55082,note_on,0,0,3,,,,,,,,,2,,,,70,116
55082,note_on,0,0,2,,,,,,,,,1,,,,82,115
55082,note_on,10,0,2,,,,,,,,,1,,,,76,115
55082,note_on,10,0,3,,,,,,,,,2,,,,76,116
55083,note_on,10,0,6,,,,,,,,,5,,,,52,115
55084,note_on,10,0,8,,,,,,,,,7,,,,60,125
55086,note_on,10,0,9,,,,,,,,,8,,,,48,125
55087,note_on,0,0,4,,,,,,,,,3,,,,64,115
55087,note_on,10,0,4,,,,,,,,,3,,,,58,115
55140,set_tempo,60,1,0,,,,,,1071429,,,,,,,,
55191,note_on,0,0,1,,,,,,,,,0,,,,88,0
55191,note_on,110,0,1,,,,,,,,,0,,,,82,0
55191,note_on,110,0,5,,,,,,,,,4,,,,64,0
55192,note_on,110,0,2,,,,,,,,,1,,,,82,0
55192,note_on,0,0,2,,,,,,,,,1,,,,76,0
55192,note_on,110,0,3,,,,,,,,,2,,,,70,0
55192,note_on,0,0,3,,,,,,,,,2,,,,76,0
55193,note_on,110,0,6,,,,,,,,,5,,,,52,0
55194,note_on,110,0,8,,,,,,,,,7,,,,60,0
55196,note_on,110,0,9,,,,,,,,,8,,,,48,0
55197,note_on,0,0,4,,,,,,,,,3,,,,58,0
55197,note_on,110,0,4,,,,,,,,,3,,,,64,0
55200,set_tempo,60,1,0,,,,,,1165049,,,,,,,,
55200,note_on,255,0,11,,,,,,,,,10,,,,83,127
55202,note_on,255,0,12,,,,,,,,,11,,,,71,127
55202,note_on,250,0,7,,,,,,,,,6,,,,71,127
55205,note_on,255,0,13,,,,,,,,,12,,,,71,127
55207,note_on,255,0,14,,,,,,,,,13,,,,59,127
55209,note_on,255,0,15,,,,,,,,,14,,,,47,127
55260,set_tempo,60,1,0,,,,,,1071429,,,,,,,,
55305,note_on,105,0,11,,,,,,,,,10,,,,83,0
55307,note_on,105,0,12,,,,,,,,,11,,,,71,0
55310,note_on,105,0,13,,,,,,,,,12,,,,71,0
55312,note_on,110,0,7,,,,,,,,,6,,,,71,0
55312,note_on,105,0,14,,,,,,,,,13,,,,59,0
55314,note_on,105,0,15,,,,,,,,,14,,,,47,0
55320,set_tempo,60,1,0,,,,,,1142857,,,,,,,,
55320,note_on,15,0,11,,,,,,,,,10,,,,83,127
55322,note_on,10,0,7,,,,,,,,,6,,,,71,127
55322,note_on,15,0,12,,,,,,,,,11,,,,71,127
55325,note_on,15,0,13,,,,,,,,,12,,,,71,127
55327,note_on,15,0,14,,,,,,,,,13,,,,59,127
55329,note_on,15,0,15,,,,,,,,,14,,,,47,127
55380,set_tempo,60,1,0,,,,,,1071429,,,,,,,,
55425,note_on,105,0,11,,,,,,,,,10,,,,83,0
55427,note_on,105,0,12,,,,,,,,,11,,,,71,0
55430,note_on,105,0,13,,,,,,,,,12,,,,71,0
55432,note_on,110,0,7,,,,,,,,,6,,,,71,0
55432,note_on,105,0,14,,,,,,,,,13,,,,59,0
55434,note_on,105,0,15,,,,,,,,,14,,,,47,0
55440,set_tempo,60,1,0,,,,,,1165049,,,,,,,,
55440,note_on,0,0,11,,,,,,,,,10,,,,83,127
55440,control_change,15,0,11,,,,,,,,,10,11,112,,,
55441,control_change,250,0,1,,,,,,,,,0,11,98,,,
55441,note_on,0,0,1,,,,,,,,,0,,,,83,116
55442,note_on,0,0,3,,,,,,,,,2,,,,71,116
55442,control_change,15,0,12,,,,,,,,,11,11,112,,,
55442,control_change,10,0,7,,,,,,,,,6,11,112,,,
55442,note_on,0,0,12,,,,,,,,,11,,,,71,127
55442,note_on,0,0,2,,,,,,,,,1,,,,71,115
55442,note_on,0,0,7,,,,,,,,,6,,,,71,127
55442,control_change,250,0,3,,,,,,,,,2,11,98,,,
55442,control_change,250,0,2,,,,,,,,,1,11,98,,,
55442,note_on,0,0,2,,,,,,,,,1,,,,83,115
55444,note_on,0,0,8,,,,,,,,,7,,,,59,125
55444,control_change,250,0,8,,,,,,,,,7,11,122,,,
55445,control_change,0,0,13,,,,,,,,,12,11,112,,,
55445,note_on,15,0,13,,,,,,,,,12,,,,71,127
55446,note_on,0,0,9,,,,,,,,,8,,,,47,125
55446,control_change,250,0,9,,,,,,,,,8,11,122,,,
55447,control_change,15,0,14,,,,,,,,,13,11,122,,,
55447,note_on,0,0,14,,,,,,,,,13,,,,47,127
55447,note_on,0,0,4,,,,,,,,,3,,,,59,115
55447,control_change,250,0,4,,,,,,,,,3,11,112,,,
55449,note_on,0,0,15,,,,,,,,,14,,,,35,127
55449,control_change,15,0,15,,,,,,,,,14,11,122,,,
55500,set_tempo,60,1,0,,,,,,1142857,,,,,,,,
55545,note_on,105,0,11,,,,,,,,,10,,,,83,0
55547,note_on,105,0,12,,,,,,,,,11,,,,71,0
55550,note_on,105,0,13,,,,,,,,,12,,,,71,0
55551,note_on,110,0,1,,,,,,,,,0,,,,83,0
55552,note_on,110,0,3,,,,,,,,,2,,,,71,0
55552,note_on,105,0,14,,,,,,,,,13,,,,47,0
55552,note_on,110,0,2,,,,,,,,,1,,,,71,0
55552,note_on,110,0,7,,,,,,,,,6,,,,71,0
55552,note_on,0,0,2,,,,,,,,,1,,,,83,0
55554,note_on,105,0,15,,,,,,,,,14,,,,35,0
55554,note_on,110,0,8,,,,,,,,,7,,,,59,0
55556,note_on,110,0,9,,,,,,,,,8,,,,47,0
55557,note_on,110,0,4,,,,,,,,,3,,,,59,0
55560,note_on,15,0,11,,,,,,,,,10,,,,83,127
55560,set_tempo,60,1,0,,,,,,1165049,,,,,,,,
55561,note_on,10,0,1,,,,,,,,,0,,,,83,116
55562,note_on,10,0,2,,,,,,,,,1,,,,83,115
55562,note_on,0,0,2,,,,,,,,,1,,,,71,115
55562,note_on,10,0,7,,,,,,,,,6,,,,71,127
55562,note_on,10,0,3,,,,,,,,,2,,,,71,116
55562,note_on,15,0,12,,,,,,,,,11,,,,71,127
55564,note_on,10,0,8,,,,,,,,,7,,,,59,125
55565,note_on,15,0,13,,,,,,,,,12,,,,71,127
55566,note_on,10,0,9,,,,,,,,,8,,,,47,125
55567,note_on,10,0,4,,,,,,,,,3,,,,59,115
55567,note_on,15,0,14,,,,,,,,,13,,,,47,127
55569,note_on,15,0,15,,,,,,,,,14,,,,35,127
55620,set_tempo,60,1,0,,,,,,1132075,,,,,,,,
55665,note_on,105,0,11,,,,,,,,,10,,,,83,0
55667,note_on,105,0,12,,,,,,,,,11,,,,71,0
55670,note_on,105,0,13,,,,,,,,,12,,,,71,0
55671,note_on,110,0,1,,,,,,,,,0,,,,83,0
55672,note_on,110,0,2,,,,,,,,,1,,,,71,0
55672,note_on,110,0,7,,,,,,,,,6,,,,71,0
55672,note_on,0,0,2,,,,,,,,,1,,,,83,0
55672,note_on,105,0,14,,,,,,,,,13,,,,47,0
55672,note_on,110,0,3,,,,,,,,,2,,,,71,0
55674,note_on,105,0,15,,,,,,,,,14,,,,35,0
55674,note_on,110,0,8,,,,,,,,,7,,,,59,0
55676,note_on,110,0,9,,,,,,,,,8,,,,47,0
55677,note_on,110,0,4,,,,,,,,,3,,,,59,0
55680,note_on,0,0,11,,,,,,,,,10,,,,77,112
55680,note_on,0,0,11,,,,,,,,,10,,,,86,112
55680,control_change,15,0,11,,,,,,,,,10,11,122,,,
55680,set_tempo,60,1,0,,,,,,1132075,,,,,,,,
55681,control_change,10,0,1,,,,,,,,,0,11,79,,,
55681,note_on,0,0,1,,,,,,,,,0,,,,86,116
55681,note_on,0,0,1,,,,,,,,,0,,,,89,116
55682,note_on,10,0,2,,,,,,,,,1,,,,83,115
55682,control_change,0,0,2,,,,,,,,,1,11,79,,,
55682,control_change,15,0,12,,,,,,,,,11,11,122,,,
55682,note_on,0,0,12,,,,,,,,,11,,,,74,112
55682,note_on,0,0,2,,,,,,,,,1,,,,77,115
55682,note_on,0,0,12,,,,,,,,,11,,,,83,112
55682,control_change,10,0,7,,,,,,,,,6,11,127,,,
55682,control_change,10,0,3,,,,,,,,,2,11,91,,,
55684,control_change,10,0,8,,,,,,,,,7,11,127,,,
55684,note_on,0,0,8,,,,,,,,,7,,,,62,125
55684,note_on,0,0,8,,,,,,,,,7,,,,65,125
55685,note_on,0,0,13,,,,,,,,,12,,,,56,112
55685,control_change,15,0,13,,,,,,,,,12,11,102,,,
55685,program_change,9,0,9,,,,,,,,61,8,,,,,
55686,control_change,1,0,9,,,,,,,,,8,11,127,,,
55686,note_on,0,0,9,,,,,,,,,8,,,,44,125
55687,control_change,10,0,4,,,,,,,,,3,11,102,,,
55687,note_on,0,0,14,,,,,,,,,13,,,,44,112
55687,control_change,7,0,11,,,,,,,,,10,11,119,,,
55687,control_change,15,0,14,,,,,,,,,13,11,102,,,
55689,control_change,7,0,12,,,,,,,,,11,11,119,,,
55689,note_on,0,0,15,,,,,,,,,14,,,,32,112
55689,control_change,15,0,15,,,,,,,,,14,11,102,,,
55695,control_change,8,0,11,,,,,,,,,10,11,116,,,
55697,control_change,8,0,12,,,,,,,,,11,11,116,,,
55702,control_change,7,0,11,,,,,,,,,10,11,113,,,
55704,control_change,7,0,12,,,,,,,,,11,11,113,,,
55710,note_on,8,0,11,,,,,,,,,10,,,,77,0
55710,note_on,0,0,11,,,,,,,,,10,,,,86,0
55710,control_change,0,0,11,,,,,,,,,10,11,110,,,
55711,program_change,29,0,7,,,,,,,,56,6,,,,,
55712,note_on,0,0,12,,,,,,,,,11,,,,83,0
55712,control_change,0,0,12,,,,,,,,,11,11,110,,,
55712,note_on,1,0,7,,,,,,,,,6,,,,74,127
55712,note_on,0,0,7,,,,,,,,,6,,,,71,127
55712,note_on,8,0,12,,,,,,,,,11,,,,74,0
55717,control_change,7,0,11,,,,,,,,,10,11,107,,,
55719,control_change,7,0,12,,,,,,,,,11,11,107,,,
55723,note_on,11,0,7,,,,,,,,,6,,,,71,0
55723,note_on,0,0,7,,,,,,,,,6,,,,74,0
55725,control_change,8,0,11,,,,,,,,,10,11,104,,,
55727,note_on,4,0,7,,,,,,,,,6,,,,71,127
55727,note_on,0,0,7,,,,,,,,,6,,,,74,127
55727,control_change,8,0,12,,,,,,,,,11,11,104,,,
55738,note_on,11,0,7,,,,,,,,,6,,,,74,0
55738,note_on,0,0,7,,,,,,,,,6,,,,71,0
55740,note_on,15,0,11,,,,,,,,,10,,,,86,112
55740,set_tempo,60,1,0,,,,,,1061947,,,,,,,,
55740,note_on,0,0,11,,,,,,,,,10,,,,77,112
55742,note_on,4,0,7,,,,,,,,,6,,,,71,127
55742,note_on,15,0,12,,,,,,,,,11,,,,83,112
55742,note_on,0,0,12,,,,,,,,,11,,,,74,112
55742,note_on,0,0,7,,,,,,,,,6,,,,74,127
55745,note_on,60,0,13,,,,,,,,,12,,,,56,0
55747,note_on,60,0,14,,,,,,,,,13,,,,44,0
55749,note_on,60,0,15,,,,,,,,,14,,,,32,0
55764,note_on,22,0,7,,,,,,,,,6,,,,74,0
55764,note_on,0,0,7,,,,,,,,,6,,,,71,0
55770,note_on,0,0,11,,,,,,,,,10,,,,86,0
55770,note_on,30,0,11,,,,,,,,,10,,,,77,0
55772,note_on,0,0,7,,,,,,,,,6,,,,74,127
55772,note_on,8,0,7,,,,,,,,,6,,,,71,127
55772,note_on,30,0,12,,,,,,,,,11,,,,74,0
55772,note_on,0,0,12,,,,,,,,,11,,,,83,0
55791,note_on,110,0,1,,,,,,,,,0,,,,86,0
55791,note_on,0,0,1,,,,,,,,,0,,,,89,0
55792,note_on,0,0,2,,,,,,,,,1,,,,83,0
55792,note_on,110,0,2,,,,,,,,,1,,,,77,0
55794,note_on,22,0,7,,,,,,,,,6,,,,74,0
55794,note_on,110,0,8,,,,,,,,,7,,,,65,0
55794,note_on,0,0,8,,,,,,,,,7,,,,62,0
55794,note_on,0,0,7,,,,,,,,,6,,,,71,0
55796,note_on,110,0,9,,,,,,,,,8,,,,44,0
55800,set_tempo,60,1,0,,,,,,1111111,,,,,,,,
55801,note_on,0,0,1,,,,,,,,,0,,,,86,116
55801,note_on,10,0,1,,,,,,,,,0,,,,89,116
55802,note_on,10,0,2,,,,,,,,,1,,,,83,115
55802,note_on,8,0,7,,,,,,,,,6,,,,71,127
55802,note_on,0,0,7,,,,,,,,,6,,,,74,127
55802,note_on,0,0,2,,,,,,,,,1,,,,77,115
55804,note_on,10,0,8,,,,,,,,,7,,,,65,125
55804,note_on,0,0,8,,,,,,,,,7,,,,62,125
55805,control_change,0,0,13,,,,,,,,,12,11,122,,,
55805,note_on,60,0,13,,,,,,,,,12,,,,68,112
55806,note_on,10,0,9,,,,,,,,,8,,,,44,125
55807,note_on,0,0,14,,,,,,,,,13,,,,56,112
55807,control_change,60,0,14,,,,,,,,,13,11,122,,,
55809,note_on,0,0,15,,,,,,,,,14,,,,44,112
55809,control_change,60,0,15,,,,,,,,,14,11,122,,,
55812,control_change,7,0,13,,,,,,,,,12,11,119,,,
55814,control_change,7,0,14,,,,,,,,,13,11,119,,,
55816,control_change,7,0,15,,,,,,,,,14,11,119,,,
55820,control_change,8,0,13,,,,,,,,,12,11,116,,,
55822,control_change,8,0,14,,,,,,,,,13,11,116,,,
55824,control_change,8,0,15,,,,,,,,,14,11,116,,,
55827,control_change,7,0,13,,,,,,,,,12,11,113,,,
55829,control_change,7,0,14,,,,,,,,,13,11,113,,,
55831,control_change,7,0,15,,,,,,,,,14,11,113,,,
55835,note_on,8,0,13,,,,,,,,,12,,,,68,0
55835,control_change,0,0,13,,,,,,,,,12,11,110,,,
55837,note_on,8,0,14,,,,,,,,,13,,,,56,0
55837,control_change,0,0,14,,,,,,,,,13,11,110,,,
55839,control_change,0,0,15,,,,,,,,,14,11,110,,,
55839,note_on,8,0,15,,,,,,,,,14,,,,44,0
55842,control_change,7,0,13,,,,,,,,,12,11,107,,,
55844,control_change,7,0,14,,,,,,,,,13,11,107,,,
55846,control_change,7,0,15,,,,,,,,,14,11,107,,,
55850,control_change,8,0,13,,,,,,,,,12,11,104,,,
55852,control_change,8,0,14,,,,,,,,,13,11,104,,,
55854,control_change,8,0,15,,,,,,,,,14,11,104,,,
55860,set_tempo,60,1,0,,,,,,1034483,,,,,,,,
55865,note_on,15,0,13,,,,,,,,,12,,,,68,112
55867,note_on,15,0,14,,,,,,,,,13,,,,56,112
55869,note_on,15,0,15,,,,,,,,,14,,,,44,112
55895,note_on,30,0,13,,,,,,,,,12,,,,68,0
55897,note_on,30,0,14,,,,,,,,,13,,,,56,0
55899,note_on,30,0,15,,,,,,,,,14,,,,44,0
55911,note_on,0,0,1,,,,,,,,,0,,,,89,0
55911,note_on,110,0,1,,,,,,,,,0,,,,86,0
55912,note_on,110,0,2,,,,,,,,,1,,,,77,0
55912,note_on,0,0,2,,,,,,,,,1,,,,83,0
55914,note_on,0,0,8,,,,,,,,,7,,,,65,0
55914,note_on,110,0,8,,,,,,,,,7,,,,62,0
55916,note_on,110,0,9,,,,,,,,,8,,,,44,0
55920,set_tempo,60,1,0,,,,,,1100917,,,,,,,,
55920,note_on,150,0,11,,,,,,,,,10,,,,89,112
55922,note_on,240,0,3,,,,,,,,,2,,,,77,116
55922,note_on,0,0,7,,,,,,,,,6,,,,71,0
55922,note_on,120,0,7,,,,,,,,,6,,,,74,0
55922,note_on,150,0,12,,,,,,,,,11,,,,77,112
55922,note_on,0,0,3,,,,,,,,,2,,,,74,116
55927,note_on,240,0,4,,,,,,,,,3,,,,65,115
55927,note_on,0,0,4,,,,,,,,,3,,,,62,115
55947,note_on,27,0,11,,,,,,,,,10,,,,89,0
55949,note_on,27,0,12,,,,,,,,,11,,,,77,0
55951,control_change,760,0,5,,,,,,,,,4,11,127,,,
55951,note_on,0,0,5,,,,,,,,,4,,,,65,100
55953,note_on,760,0,6,,,,,,,,,5,,,,62,100
55953,control_change,0,0,6,,,,,,,,,5,11,127,,,
55962,note_on,11,0,5,,,,,,,,,4,,,,65,0
55964,note_on,11,0,6,,,,,,,,,5,,,,62,0
55965,note_on,18,0,11,,,,,,,,,10,,,,88,112
55966,note_on,4,0,5,,,,,,,,,4,,,,65,100
55967,note_on,18,0,12,,,,,,,,,11,,,,76,112
55968,note_on,4,0,6,,,,,,,,,5,,,,62,100
55974,note_on,9,0,11,,,,,,,,,10,,,,88,0
55976,note_on,9,0,12,,,,,,,,,11,,,,76,0
55977,note_on,11,0,5,,,,,,,,,4,,,,65,0
55979,note_on,11,0,6,,,,,,,,,5,,,,62,0
55980,set_tempo,60,1,0,,,,,,1016949,,,,,,,,
55980,note_on,6,0,11,,,,,,,,,10,,,,86,112
55981,note_on,4,0,5,,,,,,,,,4,,,,65,100
55982,note_on,6,0,12,,,,,,,,,11,,,,74,112
55983,note_on,4,0,6,,,,,,,,,5,,,,62,100
56005,note_on,24,0,5,,,,,,,,,4,,,,65,0
56007,note_on,24,0,6,,,,,,,,,5,,,,62,0
56007,note_on,27,0,11,,,,,,,,,10,,,,86,0
56009,note_on,27,0,12,,,,,,,,,11,,,,74,0
56011,note_on,6,0,5,,,,,,,,,4,,,,65,100
56013,note_on,6,0,6,,,,,,,,,5,,,,62,100
56025,note_on,18,0,11,,,,,,,,,10,,,,88,112
56027,note_on,18,0,12,,,,,,,,,11,,,,76,112
56032,note_on,0,0,3,,,,,,,,,2,,,,77,0
56032,note_on,110,0,3,,,,,,,,,2,,,,74,0
56034,note_on,9,0,11,,,,,,,,,10,,,,88,0
56035,note_on,24,0,5,,,,,,,,,4,,,,65,0
56036,note_on,9,0,12,,,,,,,,,11,,,,76,0
56037,note_on,24,0,6,,,,,,,,,5,,,,62,0
56037,note_on,0,0,4,,,,,,,,,3,,,,65,0
56037,note_on,110,0,4,,,,,,,,,3,,,,62,0
56040,set_tempo,60,1,0,,,,,,1081081,,,,,,,,
56040,note_on,6,0,11,,,,,,,,,10,,,,86,112
56041,note_on,6,0,5,,,,,,,,,4,,,,65,115
56042,note_on,6,0,12,,,,,,,,,11,,,,74,112
56042,note_on,0,0,3,,,,,,,,,2,,,,74,116
56042,note_on,10,0,3,,,,,,,,,2,,,,77,116
56043,note_on,6,0,6,,,,,,,,,5,,,,62,115
56045,note_on,150,0,13,,,,,,,,,12,,,,65,112
56047,note_on,150,0,14,,,,,,,,,13,,,,65,112
56047,note_on,0,0,4,,,,,,,,,3,,,,62,115
56047,note_on,10,0,4,,,,,,,,,3,,,,65,115
56049,note_on,150,0,15,,,,,,,,,14,,,,53,112
56067,note_on,27,0,11,,,,,,,,,10,,,,86,0
56069,note_on,27,0,12,,,,,,,,,11,,,,74,0
56072,note_on,27,0,13,,,,,,,,,12,,,,65,0
56074,note_on,27,0,14,,,,,,,,,13,,,,65,0
56076,note_on,27,0,15,,,,,,,,,14,,,,53,0
56085,note_on,18,0,11,,,,,,,,,10,,,,84,112
56087,note_on,18,0,12,,,,,,,,,11,,,,72,112
56090,note_on,18,0,13,,,,,,,,,12,,,,64,112
56092,note_on,18,0,14,,,,,,,,,13,,,,64,112
56094,note_on,9,0,11,,,,,,,,,10,,,,84,0
56094,note_on,18,0,15,,,,,,,,,14,,,,52,112
56096,note_on,9,0,12,,,,,,,,,11,,,,72,0
56099,note_on,9,0,13,,,,,,,,,12,,,,64,0
56100,set_tempo,60,1,0,,,,,,1016949,,,,,,,,
56100,note_on,6,0,11,,,,,,,,,10,,,,83,112
56101,note_on,9,0,14,,,,,,,,,13,,,,64,0
56102,note_on,6,0,12,,,,,,,,,11,,,,71,112
56103,note_on,9,0,15,,,,,,,,,14,,,,52,0
56105,note_on,6,0,13,,,,,,,,,12,,,,62,112
56107,note_on,6,0,14,,,,,,,,,13,,,,62,112
56109,note_on,6,0,15,,,,,,,,,14,,,,50,112
56127,note_on,27,0,11,,,,,,,,,10,,,,83,0
56129,note_on,27,0,12,,,,,,,,,11,,,,71,0
56132,note_on,27,0,13,,,,,,,,,12,,,,62,0
56134,note_on,27,0,14,,,,,,,,,13,,,,62,0
56136,note_on,27,0,15,,,,,,,,,14,,,,50,0
56145,note_on,18,0,11,,,,,,,,,10,,,,84,112
56147,note_on,18,0,12,,,,,,,,,11,,,,72,112
56150,note_on,18,0,13,,,,,,,,,12,,,,64,112
56152,note_on,18,0,14,,,,,,,,,13,,,,64,112
56152,note_on,110,0,3,,,,,,,,,2,,,,74,0
56152,note_on,0,0,3,,,,,,,,,2,,,,77,0
56154,note_on,18,0,15,,,,,,,,,14,,,,52,112
56154,note_on,9,0,11,,,,,,,,,10,,,,84,0
56156,note_on,9,0,12,,,,,,,,,11,,,,72,0
56157,note_on,110,0,4,,,,,,,,,3,,,,62,0
56157,note_on,0,0,4,,,,,,,,,3,,,,65,0
56159,note_on,9,0,13,,,,,,,,,12,,,,64,0
56160,set_tempo,60,1,0,,,,,,1090909,,,,,,,,
56160,note_on,6,0,11,,,,,,,,,10,,,,83,112
56161,note_on,120,0,5,,,,,,,,,4,,,,65,0
56161,note_on,9,0,14,,,,,,,,,13,,,,64,0
56161,note_on,250,0,1,,,,,,,,,0,,,,86,116
56161,note_on,0,0,1,,,,,,,,,0,,,,89,116
56162,note_on,0,0,2,,,,,,,,,1,,,,83,115
56162,note_on,250,0,2,,,,,,,,,1,,,,77,115
56162,note_on,6,0,12,,,,,,,,,11,,,,71,112
56163,note_on,120,0,6,,,,,,,,,5,,,,62,0
56163,note_on,9,0,15,,,,,,,,,14,,,,52,0
56164,note_on,250,0,8,,,,,,,,,7,,,,62,125
56164,note_on,0,0,8,,,,,,,,,7,,,,65,125
56165,note_on,6,0,13,,,,,,,,,12,,,,62,112
56166,note_on,250,0,9,,,,,,,,,8,,,,44,125
56167,note_on,6,0,14,,,,,,,,,13,,,,62,112
56169,note_on,6,0,15,,,,,,,,,14,,,,50,112
56187,note_on,27,0,11,,,,,,,,,10,,,,83,0
56189,note_on,27,0,12,,,,,,,,,11,,,,71,0
56192,note_on,0,0,7,,,,,,,,,6,,,,74,127
56192,note_on,270,0,7,,,,,,,,,6,,,,71,127
56192,note_on,27,0,13,,,,,,,,,12,,,,62,0
56194,note_on,27,0,14,,,,,,,,,13,,,,62,0
56196,note_on,27,0,15,,,,,,,,,14,,,,50,0
56203,note_on,11,0,7,,,,,,,,,6,,,,74,0
56203,note_on,0,0,7,,,,,,,,,6,,,,71,0
56205,note_on,18,0,11,,,,,,,,,10,,,,81,112
56207,note_on,0,0,7,,,,,,,,,6,,,,71,127
56207,note_on,4,0,7,,,,,,,,,6,,,,74,127
56207,note_on,18,0,12,,,,,,,,,11,,,,69,112
56210,note_on,18,0,13,,,,,,,,,12,,,,60,112
56212,note_on,18,0,14,,,,,,,,,13,,,,60,112
56214,note_on,9,0,11,,,,,,,,,10,,,,81,0
56214,note_on,18,0,15,,,,,,,,,14,,,,48,112
56216,note_on,9,0,12,,,,,,,,,11,,,,69,0
56218,note_on,11,0,7,,,,,,,,,6,,,,71,0
56218,note_on,0,0,7,,,,,,,,,6,,,,74,0
56219,note_on,9,0,13,,,,,,,,,12,,,,60,0
56220,note_on,6,0,11,,,,,,,,,10,,,,80,112
56220,set_tempo,60,1,0,,,,,,1016949,,,,,,,,
56221,note_on,9,0,14,,,,,,,,,13,,,,60,0
56222,note_on,4,0,7,,,,,,,,,6,,,,74,127
56222,note_on,0,0,7,,,,,,,,,6,,,,71,127
56222,note_on,6,0,12,,,,,,,,,11,,,,68,112
56223,note_on,9,0,15,,,,,,,,,14,,,,48,0
56225,note_on,6,0,13,,,,,,,,,12,,,,59,112
56227,note_on,6,0,14,,,,,,,,,13,,,,59,112
56229,note_on,6,0,15,,,,,,,,,14,,,,47,112
56244,note_on,0,0,7,,,,,,,,,6,,,,74,0
56244,note_on,22,0,7,,,,,,,,,6,,,,71,0
56247,note_on,27,0,11,,,,,,,,,10,,,,80,0
56249,note_on,27,0,12,,,,,,,,,11,,,,68,0
56252,note_on,8,0,7,,,,,,,,,6,,,,74,127
56252,note_on,0,0,7,,,,,,,,,6,,,,71,127
56252,note_on,27,0,13,,,,,,,,,12,,,,59,0
56254,note_on,27,0,14,,,,,,,,,13,,,,59,0
56256,note_on,27,0,15,,,,,,,,,14,,,,47,0
56265,note_on,18,0,11,,,,,,,,,10,,,,81,112
56267,note_on,18,0,12,,,,,,,,,11,,,,69,112
56270,note_on,18,0,13,,,,,,,,,12,,,,60,112
56271,note_on,0,0,1,,,,,,,,,0,,,,86,0
56271,note_on,110,0,1,,,,,,,,,0,,,,89,0
56272,note_on,0,0,2,,,,,,,,,1,,,,77,0
56272,note_on,110,0,2,,,,,,,,,1,,,,83,0
56272,note_on,18,0,14,,,,,,,,,13,,,,60,112
56274,note_on,0,0,8,,,,,,,,,7,,,,62,0
56274,note_on,110,0,8,,,,,,,,,7,,,,65,0
56274,note_on,0,0,7,,,,,,,,,6,,,,74,0
56274,note_on,9,0,11,,,,,,,,,10,,,,81,0
56274,note_on,22,0,7,,,,,,,,,6,,,,71,0
56274,note_on,18,0,15,,,,,,,,,14,,,,48,112
56276,note_on,9,0,12,,,,,,,,,11,,,,69,0
56276,note_on,110,0,9,,,,,,,,,8,,,,44,0
56279,note_on,9,0,13,,,,,,,,,12,,,,60,0
56280,set_tempo,60,1,0,,,,,,1081081,,,,,,,,
56280,note_on,6,0,11,,,,,,,,,10,,,,83,112
56281,note_on,10,0,1,,,,,,,,,0,,,,86,116
56281,note_on,9,0,14,,,,,,,,,13,,,,60,0
56281,note_on,0,0,1,,,,,,,,,0,,,,89,116
56282,note_on,6,0,12,,,,,,,,,11,,,,71,112
56282,note_on,8,0,7,,,,,,,,,6,,,,74,127
56282,note_on,0,0,7,,,,,,,,,6,,,,71,127
56282,note_on,0,0,2,,,,,,,,,1,,,,83,115
56282,note_on,10,0,2,,,,,,,,,1,,,,77,115
56283,note_on,9,0,15,,,,,,,,,14,,,,48,0
56284,note_on,0,0,8,,,,,,,,,7,,,,65,125
56284,note_on,10,0,8,,,,,,,,,7,,,,62,125
56285,note_on,6,0,13,,,,,,,,,12,,,,62,112
56286,note_on,10,0,9,,,,,,,,,8,,,,44,125
56287,note_on,6,0,14,,,,,,,,,13,,,,62,112
56289,note_on,6,0,15,,,,,,,,,14,,,,50,112
56307,note_on,27,0,11,,,,,,,,,10,,,,83,0
56309,note_on,27,0,12,,,,,,,,,11,,,,71,0
56312,note_on,27,0,13,,,,,,,,,12,,,,62,0
56314,note_on,27,0,14,,,,,,,,,13,,,,62,0
56316,note_on,27,0,15,,,,,,,,,14,,,,50,0
56325,note_on,18,0,11,,,,,,,,,10,,,,84,112
56327,note_on,18,0,12,,,,,,,,,11,,,,72,112
56330,note_on,18,0,13,,,,,,,,,12,,,,60,112
56332,note_on,18,0,14,,,,,,,,,13,,,,60,112
56334,note_on,9,0,11,,,,,,,,,10,,,,84,0
56334,note_on,18,0,15,,,,,,,,,14,,,,48,112
56336,note_on,9,0,12,,,,,,,,,11,,,,72,0
56339,note_on,9,0,13,,,,,,,,,12,,,,60,0
56340,note_on,6,0,11,,,,,,,,,10,,,,86,112
56340,set_tempo,60,1,0,,,,,,1016949,,,,,,,,
56341,note_on,9,0,14,,,,,,,,,13,,,,60,0
56342,note_on,6,0,12,,,,,,,,,11,,,,74,112
56343,note_on,9,0,15,,,,,,,,,14,,,,48,0
56345,note_on,6,0,13,,,,,,,,,12,,,,59,112
56347,note_on,6,0,14,,,,,,,,,13,,,,59,112
56349,note_on,6,0,15,,,,,,,,,14,,,,47,112
56367,note_on,27,0,11,,,,,,,,,10,,,,86,0
56369,note_on,27,0,12,,,,,,,,,11,,,,74,0
56372,note_on,27,0,13,,,,,,,,,12,,,,59,0
56374,note_on,27,0,14,,,,,,,,,13,,,,59,0
56376,note_on,27,0,15,,,,,,,,,14,,,,47,0
56385,note_on,18,0,11,,,,,,,,,10,,,,88,112
56387,note_on,18,0,12,,,,,,,,,11,,,,76,112
56390,note_on,18,0,13,,,,,,,,,12,,,,57,112
56391,note_on,110,0,1,,,,,,,,,0,,,,89,0
56391,note_on,0,0,1,,,,,,,,,0,,,,86,0
56392,note_on,110,0,2,,,,,,,,,1,,,,83,0
56392,note_on,0,0,2,,,,,,,,,1,,,,77,0
56392,note_on,18,0,14,,,,,,,,,13,,,,57,112
56394,note_on,18,0,15,,,,,,,,,14,,,,45,112
56394,note_on,110,0,8,,,,,,,,,7,,,,65,0
56394,note_on,9,0,11,,,,,,,,,10,,,,88,0
56394,note_on,0,0,8,,,,,,,,,7,,,,62,0
56396,note_on,9,0,12,,,,,,,,,11,,,,76,0
56396,note_on,110,0,9,,,,,,,,,8,,,,44,0
56399,note_on,9,0,13,,,,,,,,,12,,,,57,0
56400,set_tempo,60,1,0,,,,,,1100917,,,,,,,,
56400,control_change,6,0,11,,,,,,,,,10,11,122,,,
56400,note_on,0,0,11,,,,,,,,,10,,,,86,112
56400,note_on,0,0,11,,,,,,,,,10,,,,77,112
56401,note_on,9,0,14,,,,,,,,,13,,,,57,0
56402,note_on,120,0,7,,,,,,,,,6,,,,71,0
56402,note_on,250,0,3,,,,,,,,,2,,,,74,116
56402,note_on,0,0,12,,,,,,,,,11,,,,74,112
56402,note_on,0,0,12,,,,,,,,,11,,,,83,112
56402,control_change,6,0,12,,,,,,,,,11,11,122,,,
56402,note_on,0,0,3,,,,,,,,,2,,,,77,116
56402,note_on,0,0,7,,,,,,,,,6,,,,74,0
56403,note_on,9,0,15,,,,,,,,,14,,,,45,0
56405,note_on,6,0,13,,,,,,,,,12,,,,56,112
56405,control_change,0,0,13,,,,,,,,,12,11,122,,,
56407,note_on,250,0,4,,,,,,,,,3,,,,62,115
56407,note_on,0,0,14,,,,,,,,,13,,,,56,112
56407,control_change,6,0,14,,,,,,,,,13,11,122,,,
56407,note_on,0,0,4,,,,,,,,,3,,,,65,115
56409,control_change,6,0,15,,,,,,,,,14,11,122,,,
56409,note_on,0,0,15,,,,,,,,,14,,,,44,112
56417,control_change,17,0,11,,,,,,,,,10,11,120,,,
56419,control_change,17,0,12,,,,,,,,,11,11,120,,,
56422,control_change,17,0,13,,,,,,,,,12,11,120,,,
56424,control_change,17,0,14,,,,,,,,,13,11,120,,,
56426,control_change,17,0,15,,,,,,,,,14,11,120,,,
56430,note_on,0,0,11,,,,,,,,,10,,,,86,0
56430,note_on,13,0,11,,,,,,,,,10,,,,77,0
56431,note_on,270,0,5,,,,,,,,,4,,,,65,100
56432,note_on,0,0,12,,,,,,,,,11,,,,83,0
56432,note_on,13,0,12,,,,,,,,,11,,,,74,0
56433,note_on,270,0,6,,,,,,,,,5,,,,62,100
56434,control_change,4,0,11,,,,,,,,,10,11,118,,,
56436,control_change,4,0,12,,,,,,,,,11,11,118,,,
56439,control_change,17,0,13,,,,,,,,,12,11,118,,,
56441,control_change,17,0,14,,,,,,,,,13,11,118,,,
56442,note_on,11,0,5,,,,,,,,,4,,,,65,0
56443,control_change,17,0,15,,,,,,,,,14,11,118,,,
56444,note_on,11,0,6,,,,,,,,,5,,,,62,0
56446,note_on,4,0,5,,,,,,,,,4,,,,65,100
56448,note_on,4,0,6,,,,,,,,,5,,,,62,100
56451,control_change,17,0,11,,,,,,,,,10,11,116,,,
56453,control_change,17,0,12,,,,,,,,,11,11,116,,,
56456,control_change,17,0,13,,,,,,,,,12,11,116,,,
56457,note_on,11,0,5,,,,,,,,,4,,,,65,0
56458,control_change,17,0,14,,,,,,,,,13,11,116,,,
56459,note_on,11,0,6,,,,,,,,,5,,,,62,0
56460,set_tempo,60,1,0,,,,,,1016949,,,,,,,,
56460,note_on,0,0,11,,,,,,,,,10,,,,77,112
56460,note_on,9,0,11,,,,,,,,,10,,,,86,112
56460,control_change,17,0,15,,,,,,,,,14,11,116,,,
56461,note_on,4,0,5,,,,,,,,,4,,,,65,100
56462,note_on,9,0,12,,,,,,,,,11,,,,83,112
56462,note_on,0,0,12,,,,,,,,,11,,,,74,112
56463,note_on,4,0,6,,,,,,,,,5,,,,62,100
56465,note_on,9,0,13,,,,,,,,,12,,,,56,0
56467,note_on,9,0,14,,,,,,,,,13,,,,56,0
56468,control_change,8,0,11,,,,,,,,,10,11,114,,,
56469,note_on,9,0,15,,,,,,,,,14,,,,44,0
56470,control_change,8,0,12,,,,,,,,,11,11,114,,,
56473,control_change,8,0,13,,,,,,,,,12,11,114,,,
56475,control_change,8,0,14,,,,,,,,,13,11,114,,,
56477,control_change,8,0,15,,,,,,,,,14,11,114,,,
56485,note_on,24,0,5,,,,,,,,,4,,,,65,0
56485,control_change,17,0,11,,,,,,,,,10,11,112,,,
56487,note_on,24,0,6,,,,,,,,,5,,,,62,0
56487,control_change,17,0,12,,,,,,,,,11,11,112,,,
56490,note_on,0,0,11,,,,,,,,,10,,,,86,0
56490,control_change,17,0,13,,,,,,,,,12,11,112,,,
56490,note_on,5,0,11,,,,,,,,,10,,,,77,0
56491,note_on,6,0,5,,,,,,,,,4,,,,65,100
56492,note_on,5,0,12,,,,,,,,,11,,,,74,0
56492,note_on,0,0,12,,,,,,,,,11,,,,83,0
56492,control_change,17,0,14,,,,,,,,,13,11,112,,,
56493,note_on,6,0,6,,,,,,,,,5,,,,62,100
56494,control_change,17,0,15,,,,,,,,,14,11,112,,,
56502,control_change,12,0,11,,,,,,,,,10,11,110,,,
56504,control_change,12,0,12,,,,,,,,,11,11,110,,,
56507,control_change,17,0,13,,,,,,,,,12,11,110,,,
56509,control_change,17,0,14,,,,,,,,,13,11,110,,,
56511,control_change,17,0,15,,,,,,,,,14,11,110,,,
56512,note_on,0,0,3,,,,,,,,,2,,,,74,0
56512,note_on,110,0,3,,,,,,,,,2,,,,77,0
56515,note_on,24,0,5,,,,,,,,,4,,,,65,0
56517,note_on,0,0,4,,,,,,,,,3,,,,62,0
56517,note_on,24,0,6,,,,,,,,,5,,,,62,0
56517,note_on,110,0,4,,,,,,,,,3,,,,65,0
56520,set_tempo,60,1,0,,,,,,1081081,,,,,,,,
56521,note_on,6,0,5,,,,,,,,,4,,,,65,115
56522,note_on,10,0,3,,,,,,,,,2,,,,74,116
56522,note_on,0,0,3,,,,,,,,,2,,,,77,116
56523,note_on,6,0,6,,,,,,,,,5,,,,62,115
56524,control_change,17,0,13,,,,,,,,,12,11,108,,,
56525,note_on,1,0,13,,,,,,,,,12,,,,68,112
56526,control_change,17,0,14,,,,,,,,,13,11,108,,,
56527,note_on,1,0,14,,,,,,,,,13,,,,56,112
56527,note_on,10,0,4,,,,,,,,,3,,,,62,115
56527,note_on,0,0,4,,,,,,,,,3,,,,65,115
56528,control_change,17,0,15,,,,,,,,,14,11,108,,,
56529,note_on,1,0,15,,,,,,,,,14,,,,44,112
56541,control_change,16,0,13,,,,,,,,,12,11,106,,,
56543,control_change,16,0,14,,,,,,,,,13,11,106,,,
56545,control_change,16,0,15,,,,,,,,,14,11,106,,,
56555,note_on,14,0,13,,,,,,,,,12,,,,68,0
56557,note_on,14,0,14,,,,,,,,,13,,,,56,0
56558,control_change,3,0,13,,,,,,,,,12,11,104,,,
56559,note_on,14,0,15,,,,,,,,,14,,,,44,0
56560,control_change,3,0,14,,,,,,,,,13,11,104,,,
56562,control_change,3,0,15,,,,,,,,,14,11,104,,,
56575,control_change,17,0,13,,,,,,,,,12,11,102,,,
56577,control_change,17,0,14,,,,,,,,,13,11,102,,,
56579,control_change,17,0,15,,,,,,,,,14,11,102,,,
56580,set_tempo,60,1,0,,,,,,1016949,,,,,,,,
56585,note_on,10,0,13,,,,,,,,,12,,,,68,112
56587,note_on,10,0,14,,,,,,,,,13,,,,56,112
56589,note_on,10,0,15,,,,,,,,,14,,,,44,112
56615,note_on,30,0,13,,,,,,,,,12,,,,68,0
56617,note_on,30,0,14,,,,,,,,,13,,,,56,0
56619,note_on,30,0,15,,,,,,,,,14,,,,44,0
56632,note_on,0,0,3,,,,,,,,,2,,,,74,0
56632,note_on,110,0,3,,,,,,,,,2,,,,77,0
56637,note_on,110,0,4,,,,,,,,,3,,,,65,0
56637,note_on,0,0,4,,,,,,,,,3,,,,62,0
56640,set_tempo,60,1,0,,,,,,1100917,,,,,,,,
56640,control_change,0,0,11,,,,,,,,,10,11,102,,,
56640,note_on,138,0,11,,,,,,,,,10,,,,89,112
56641,note_on,250,0,1,,,,,,,,,0,,,,89,116
56641,note_on,120,0,5,,,,,,,,,4,,,,65,0
56641,note_on,0,0,1,,,,,,,,,0,,,,86,116
56642,note_on,0,0,2,,,,,,,,,1,,,,77,115
56642,note_on,250,0,2,,,,,,,,,1,,,,83,115
56642,control_change,0,0,12,,,,,,,,,11,11,102,,,
56642,note_on,138,0,12,,,,,,,,,11,,,,77,112
56643,note_on,120,0,6,,,,,,,,,5,,,,62,0
56644,note_on,250,0,8,,,,,,,,,7,,,,65,125
56644,note_on,0,0,8,,,,,,,,,7,,,,62,125
56646,note_on,250,0,9,,,,,,,,,8,,,,56,125
56667,note_on,27,0,11,,,,,,,,,10,,,,89,0
56669,note_on,27,0,12,,,,,,,,,11,,,,77,0
56672,note_on,0,0,7,,,,,,,,,6,,,,71,127
56672,note_on,270,0,7,,,,,,,,,6,,,,74,127
56683,note_on,11,0,7,,,,,,,,,6,,,,71,0
56683,note_on,0,0,7,,,,,,,,,6,,,,74,0
56685,note_on,18,0,11,,,,,,,,,10,,,,88,112
56687,note_on,4,0,7,,,,,,,,,6,,,,71,127
56687,note_on,18,0,12,,,,,,,,,11,,,,76,112
56687,note_on,0,0,7,,,,,,,,,6,,,,74,127
56694,note_on,9,0,11,,,,,,,,,10,,,,88,0
56696,note_on,9,0,12,,,,,,,,,11,,,,76,0
56698,note_on,11,0,7,,,,,,,,,6,,,,74,0
56698,note_on,0,0,7,,,,,,,,,6,,,,71,0
56700,note_on,6,0,11,,,,,,,,,10,,,,86,112
56700,set_tempo,60,1,0,,,,,,1016949,,,,,,,,
56702,note_on,0,0,7,,,,,,,,,6,,,,74,127
56702,note_on,6,0,12,,,,,,,,,11,,,,74,112
56702,note_on,4,0,7,,,,,,,,,6,,,,71,127
56724,note_on,22,0,7,,,,,,,,,6,,,,74,0
56724,note_on,0,0,7,,,,,,,,,6,,,,71,0
56727,note_on,27,0,11,,,,,,,,,10,,,,86,0
56729,note_on,27,0,12,,,,,,,,,11,,,,74,0
56732,note_on,8,0,7,,,,,,,,,6,,,,71,127
56732,note_on,0,0,7,,,,,,,,,6,,,,74,127
56745,note_on,18,0,11,,,,,,,,,10,,,,88,112
56747,note_on,18,0,12,,,,,,,,,11,,,,76,112
56751,note_on,0,0,1,,,,,,,,,0,,,,89,0
56751,note_on,110,0,1,,,,,,,,,0,,,,86,0
56752,note_on,0,0,2,,,,,,,,,1,,,,83,0
56752,note_on,110,0,2,,,,,,,,,1,,,,77,0
56754,note_on,22,0,7,,,,,,,,,6,,,,74,0
56754,note_on,0,0,7,,,,,,,,,6,,,,71,0
56754,note_on,110,0,8,,,,,,,,,7,,,,62,0
56754,note_on,0,0,8,,,,,,,,,7,,,,65,0
56754,note_on,9,0,11,,,,,,,,,10,,,,88,0
56756,note_on,110,0,9,,,,,,,,,8,,,,56,0
56756,note_on,9,0,12,,,,,,,,,11,,,,76,0
56760,note_on,6,0,11,,,,,,,,,10,,,,86,112
56760,set_tempo,60,1,0,,,,,,1081081,,,,,,,,
56761,note_on,0,0,1,,,,,,,,,0,,,,86,116
56761,note_on,10,0,1,,,,,,,,,0,,,,89,116
56762,note_on,8,0,7,,,,,,,,,6,,,,74,127
56762,note_on,0,0,7,,,,,,,,,6,,,,71,127
56762,note_on,10,0,2,,,,,,,,,1,,,,83,115
56762,note_on,6,0,12,,,,,,,,,11,,,,74,112
56762,note_on,0,0,2,,,,,,,,,1,,,,77,115
56764,note_on,10,0,8,,,,,,,,,7,,,,65,125
56764,note_on,0,0,8,,,,,,,,,7,,,,62,125
56765,note_on,150,0,13,,,,,,,,,12,,,,65,112
56766,note_on,10,0,9,,,,,,,,,8,,,,56,125
56767,note_on,150,0,14,,,,,,,,,13,,,,65,112
56769,note_on,150,0,15,,,,,,,,,14,,,,53,112
56787,note_on,27,0,11,,,,,,,,,10,,,,86,0
56789,note_on,27,0,12,,,,,,,,,11,,,,74,0
56792,note_on,27,0,13,,,,,,,,,12,,,,65,0
56794,note_on,27,0,14,,,,,,,,,13,,,,65,0
56796,note_on,27,0,15,,,,,,,,,14,,,,53,0
56805,note_on,18,0,11,,,,,,,,,10,,,,84,112
56807,note_on,18,0,12,,,,,,,,,11,,,,72,112
56810,note_on,18,0,13,,,,,,,,,12,,,,64,112
56812,note_on,18,0,14,,,,,,,,,13,,,,64,112
56814,note_on,18,0,15,,,,,,,,,14,,,,52,112
56814,note_on,9,0,11,,,,,,,,,10,,,,84,0
56816,note_on,9,0,12,,,,,,,,,11,,,,72,0
56819,note_on,9,0,13,,,,,,,,,12,,,,64,0
56820,set_tempo,60,1,0,,,,,,1016949,,,,,,,,
56820,note_on,6,0,11,,,,,,,,,10,,,,83,112
56821,note_on,9,0,14,,,,,,,,,13,,,,64,0
56822,note_on,6,0,12,,,,,,,,,11,,,,71,112
56823,note_on,9,0,15,,,,,,,,,14,,,,52,0
56825,note_on,6,0,13,,,,,,,,,12,,,,62,112
56827,note_on,6,0,14,,,,,,,,,13,,,,62,112
56829,note_on,6,0,15,,,,,,,,,14,,,,50,112
56847,note_on,27,0,11,,,,,,,,,10,,,,83,0
56849,note_on,27,0,12,,,,,,,,,11,,,,71,0
56852,note_on,27,0,13,,,,,,,,,12,,,,62,0
56854,note_on,27,0,14,,,,,,,,,13,,,,62,0
56856,note_on,27,0,15,,,,,,,,,14,,,,50,0
56865,note_on,18,0,11,,,,,,,,,10,,,,84,112
56867,note_on,18,0,12,,,,,,,,,11,,,,72,112
56870,note_on,18,0,13,,,,,,,,,12,,,,64,112
56871,note_on,0,0,1,,,,,,,,,0,,,,89,0
56871,note_on,110,0,1,,,,,,,,,0,,,,86,0
56872,note_on,110,0,2,,,,,,,,,1,,,,77,0
56872,note_on,0,0,2,,,,,,,,,1,,,,83,0
56872,note_on,18,0,14,,,,,,,,,13,,,,64,112
56874,note_on,9,0,11,,,,,,,,,10,,,,84,0
56874,note_on,0,0,8,,,,,,,,,7,,,,65,0
56874,note_on,110,0,8,,,,,,,,,7,,,,62,0
56874,note_on,18,0,15,,,,,,,,,14,,,,52,112
56876,note_on,110,0,9,,,,,,,,,8,,,,56,0
56876,note_on,9,0,12,,,,,,,,,11,,,,72,0
56879,note_on,9,0,13,,,,,,,,,12,,,,64,0
56880,note_on,6,0,11,,,,,,,,,10,,,,83,112
56880,set_tempo,60,1,0,,,,,,1100917,,,,,,,,
56881,note_on,9,0,14,,,,,,,,,13,,,,64,0
56882,note_on,120,0,7,,,,,,,,,6,,,,71,0
56882,note_on,0,0,7,,,,,,,,,6,,,,74,0
56882,note_on,6,0,12,,,,,,,,,11,,,,71,112
56882,note_on,250,0,3,,,,,,,,,2,,,,77,116
56882,note_on,0,0,3,,,,,,,,,2,,,,74,116
56883,note_on,9,0,15,,,,,,,,,14,,,,52,0
56885,note_on,6,0,13,,,,,,,,,12,,,,62,112
56887,note_on,250,0,4,,,,,,,,,3,,,,65,115
56887,note_on,6,0,14,,,,,,,,,13,,,,62,112
56887,note_on,0,0,4,,,,,,,,,3,,,,62,115
56889,note_on,6,0,15,,,,,,,,,14,,,,50,112
56907,note_on,27,0,11,,,,,,,,,10,,,,83,0
56909,note_on,27,0,12,,,,,,,,,11,,,,71,0
56911,note_on,270,0,5,,,,,,,,,4,,,,65,100
56912,note_on,27,0,13,,,,,,,,,12,,,,62,0
56913,note_on,270,0,6,,,,,,,,,5,,,,62,100
56914,note_on,27,0,14,,,,,,,,,13,,,,62,0
56916,note_on,27,0,15,,,,,,,,,14,,,,50,0
56922,note_on,11,0,5,,,,,,,,,4,,,,65,0
56924,note_on,11,0,6,,,,,,,,,5,,,,62,0
56925,note_on,18,0,11,,,,,,,,,10,,,,81,112
56926,note_on,4,0,5,,,,,,,,,4,,,,65,100
56927,note_on,18,0,12,,,,,,,,,11,,,,69,112
56928,note_on,4,0,6,,,,,,,,,5,,,,62,100
56930,note_on,18,0,13,,,,,,,,,12,,,,60,112
56932,note_on,18,0,14,,,,,,,,,13,,,,60,112
56934,note_on,9,0,11,,,,,,,,,10,,,,81,0
56934,note_on,18,0,15,,,,,,,,,14,,,,48,112
56936,note_on,9,0,12,,,,,,,,,11,,,,69,0
56937,note_on,11,0,5,,,,,,,,,4,,,,65,0
56939,note_on,11,0,6,,,,,,,,,5,,,,62,0
56939,note_on,9,0,13,,,,,,,,,12,,,,60,0
56940,set_tempo,60,1,0,,,,,,1016949,,,,,,,,
56940,note_on,6,0,11,,,,,,,,,10,,,,80,112
56941,note_on,9,0,14,,,,,,,,,13,,,,60,0
56941,note_on,4,0,5,,,,,,,,,4,,,,65,100
56942,note_on,6,0,12,,,,,,,,,11,,,,68,112
56943,note_on,4,0,6,,,,,,,,,5,,,,62,100
56943,note_on,9,0,15,,,,,,,,,14,,,,48,0
56945,note_on,6,0,13,,,,,,,,,12,,,,59,112
56947,note_on,6,0,14,,,,,,,,,13,,,,59,112
56949,note_on,6,0,15,,,,,,,,,14,,,,47,112
56965,note_on,24,0,5,,,,,,,,,4,,,,65,0
56967,note_on,27,0,11,,,,,,,,,10,,,,80,0
56967,note_on,24,0,6,,,,,,,,,5,,,,62,0
56969,note_on,27,0,12,,,,,,,,,11,,,,68,0
56971,note_on,6,0,5,,,,,,,,,4,,,,65,100
56972,note_on,27,0,13,,,,,,,,,12,,,,59,0
56973,note_on,6,0,6,,,,,,,,,5,,,,62,100
56974,note_on,27,0,14,,,,,,,,,13,,,,59,0
56976,note_on,27,0,15,,,,,,,,,14,,,,47,0
56985,note_on,18,0,11,,,,,,,,,10,,,,81,112
56987,note_on,18,0,12,,,,,,,,,11,,,,69,112
56990,note_on,18,0,13,,,,,,,,,12,,,,60,112
56992,note_on,18,0,14,,,,,,,,,13,,,,60,112
56992,note_on,110,0,3,,,,,,,,,2,,,,74,0
56992,note_on,0,0,3,,,,,,,,,2,,,,77,0
56994,note_on,9,0,11,,,,,,,,,10,,,,81,0
56994,note_on,18,0,15,,,,,,,,,14,,,,48,112
56995,note_on,24,0,5,,,,,,,,,4,,,,65,0
56996,note_on,9,0,12,,,,,,,,,11,,,,69,0
56997,note_on,24,0,6,,,,,,,,,5,,,,62,0
56997,note_on,0,0,4,,,,,,,,,3,,,,65,0
56997,note_on,110,0,4,,,,,,,,,3,,,,62,0
56999,note_on,9,0,13,,,,,,,,,12,,,,60,0
57000,note_on,6,0,11,,,,,,,,,10,,,,83,112
57000,set_tempo,60,1,0,,,,,,1081081,,,,,,,,
57001,note_on,6,0,5,,,,,,,,,4,,,,65,115
57001,note_on,9,0,14,,,,,,,,,13,,,,60,0
57002,note_on,6,0,12,,,,,,,,,11,,,,71,112
57002,note_on,0,0,3,,,,,,,,,2,,,,74,116
57002,note_on,10,0,3,,,,,,,,,2,,,,77,116
57003,note_on,9,0,15,,,,,,,,,14,,,,48,0
57003,note_on,6,0,6,,,,,,,,,5,,,,62,115
57005,note_on,6,0,13,,,,,,,,,12,,,,62,112
57007,note_on,10,0,4,,,,,,,,,3,,,,65,115
57007,note_on,6,0,14,,,,,,,,,13,,,,62,112
57007,note_on,0,0,4,,,,,,,,,3,,,,62,115
57009,note_on,6,0,15,,,,,,,,,14,,,,50,112
57027,note_on,27,0,11,,,,,,,,,10,,,,83,0
57029,note_on,27,0,12,,,,,,,,,11,,,,71,0
57032,note_on,27,0,13,,,,,,,,,12,,,,62,0
57034,note_on,27,0,14,,,,,,,,,13,,,,62,0
57036,note_on,27,0,15,,,,,,,,,14,,,,50,0
57045,note_on,18,0,11,,,,,,,,,10,,,,84,112
57047,note_on,18,0,12,,,,,,,,,11,,,,72,112
57050,note_on,18,0,13,,,,,,,,,12,,,,60,112
57052,note_on,18,0,14,,,,,,,,,13,,,,60,112
57054,note_on,9,0,11,,,,,,,,,10,,,,84,0
57054,note_on,18,0,15,,,,,,,,,14,,,,48,112
57056,note_on,9,0,12,,,,,,,,,11,,,,72,0
57059,note_on,9,0,13,,,,,,,,,12,,,,60,0
57060,set_tempo,60,1,0,,,,,,1016949,,,,,,,,
57060,note_on,6,0,11,,,,,,,,,10,,,,86,112
57061,note_on,9,0,14,,,,,,,,,13,,,,60,0
57062,note_on,6,0,12,,,,,,,,,11,,,,74,112
57063,note_on,9,0,15,,,,,,,,,14,,,,48,0
57065,note_on,6,0,13,,,,,,,,,12,,,,59,112
57067,note_on,6,0,14,,,,,,,,,13,,,,59,112
57069,note_on,6,0,15,,,,,,,,,14,,,,47,112
57087,note_on,27,0,11,,,,,,,,,10,,,,86,0
57089,note_on,27,0,12,,,,,,,,,11,,,,74,0
57092,note_on,27,0,13,,,,,,,,,12,,,,59,0
57094,note_on,27,0,14,,,,,,,,,13,,,,59,0
57096,note_on,27,0,15,,,,,,,,,14,,,,47,0
57105,note_on,18,0,11,,,,,,,,,10,,,,88,112
57107,note_on,18,0,12,,,,,,,,,11,,,,76,112
57110,note_on,18,0,13,,,,,,,,,12,,,,57,112
57112,note_on,18,0,14,,,,,,,,,13,,,,57,112
57112,note_on,0,0,3,,,,,,,,,2,,,,77,0
57112,note_on,110,0,3,,,,,,,,,2,,,,74,0
57114,note_on,9,0,11,,,,,,,,,10,,,,88,0
57114,note_on,18,0,15,,,,,,,,,14,,,,45,112
57116,note_on,9,0,12,,,,,,,,,11,,,,76,0
57117,note_on,0,0,4,,,,,,,,,3,,,,65,0
57117,note_on,110,0,4,,,,,,,,,3,,,,62,0
57119,note_on,9,0,13,,,,,,,,,12,,,,57,0
57120,control_change,6,0,11,,,,,,,,,10,11,122,,,
57120,note_on,0,0,11,,,,,,,,,10,,,,89,112
57120,set_tempo,60,1,0,,,,,,1071429,,,,,,,,
57121,note_on,9,0,14,,,,,,,,,13,,,,57,0
57121,note_on,120,0,5,,,,,,,,,4,,,,65,0
57121,note_on,0,0,1,,,,,,,,,0,,,,86,116
57121,note_on,250,0,1,,,,,,,,,0,,,,89,116
57122,note_on,250,0,2,,,,,,,,,1,,,,77,115
57122,note_on,0,0,12,,,,,,,,,11,,,,74,112
57122,note_on,0,0,12,,,,,,,,,11,,,,83,112
57122,control_change,6,0,12,,,,,,,,,11,11,122,,,
57122,note_on,0,0,2,,,,,,,,,1,,,,83,115
57123,note_on,9,0,15,,,,,,,,,14,,,,45,0
57123,note_on,120,0,6,,,,,,,,,5,,,,62,0
57124,note_on,250,0,8,,,,,,,,,7,,,,65,125
57124,note_on,0,0,8,,,,,,,,,7,,,,62,125
57125,note_on,6,0,13,,,,,,,,,12,,,,55,112
57126,note_on,250,0,9,,,,,,,,,8,,,,55,125
57127,note_on,6,0,14,,,,,,,,,13,,,,55,112
57127,control_change,7,0,11,,,,,,,,,10,11,119,,,
57129,control_change,7,0,12,,,,,,,,,11,11,119,,,
57129,note_on,6,0,15,,,,,,,,,14,,,,43,112
57135,control_change,8,0,11,,,,,,,,,10,11,116,,,
57137,control_change,8,0,12,,,,,,,,,11,11,116,,,
57142,control_change,7,0,11,,,,,,,,,10,11,113,,,
57144,control_change,7,0,12,,,,,,,,,11,11,113,,,
57150,control_change,0,0,11,,,,,,,,,10,11,110,,,
57150,note_on,8,0,11,,,,,,,,,10,,,,89,0
57152,note_on,270,0,7,,,,,,,,,6,,,,71,127
57152,control_change,0,0,12,,,,,,,,,11,11,110,,,
57152,note_on,0,0,7,,,,,,,,,6,,,,74,127
57152,note_on,0,0,12,,,,,,,,,11,,,,83,0
57152,note_on,8,0,12,,,,,,,,,11,,,,74,0
57157,control_change,7,0,11,,,,,,,,,10,11,107,,,
57159,control_change,7,0,12,,,,,,,,,11,11,107,,,
57163,note_on,0,0,7,,,,,,,,,6,,,,71,0
57163,note_on,11,0,7,,,,,,,,,6,,,,74,0
57165,control_change,8,0,11,,,,,,,,,10,11,104,,,
57167,note_on,4,0,7,,,,,,,,,6,,,,74,127
57167,note_on,0,0,7,,,,,,,,,6,,,,71,127
57167,control_change,8,0,12,,,,,,,,,11,11,104,,,
57178,note_on,11,0,7,,,,,,,,,6,,,,71,0
57178,note_on,0,0,7,,,,,,,,,6,,,,74,0
57180,note_on,15,0,11,,,,,,,,,10,,,,89,112
57180,set_tempo,60,1,0,,,,,,1016949,,,,,,,,
57182,note_on,0,0,7,,,,,,,,,6,,,,71,127
57182,note_on,4,0,7,,,,,,,,,6,,,,74,127
57182,note_on,15,0,12,,,,,,,,,11,,,,83,112
57182,note_on,0,0,12,,,,,,,,,11,,,,74,112
57185,note_on,60,0,13,,,,,,,,,12,,,,55,0
57187,note_on,60,0,14,,,,,,,,,13,,,,55,0
57189,note_on,60,0,15,,,,,,,,,14,,,,43,0
57204,note_on,22,0,7,,,,,,,,,6,,,,71,0
57204,note_on,0,0,7,,,,,,,,,6,,,,74,0
57210,note_on,30,0,11,,,,,,,,,10,,,,89,0
57212,note_on,0,0,12,,,,,,,,,11,,,,83,0
57212,note_on,30,0,12,,,,,,,,,11,,,,74,0
57212,note_on,0,0,7,,,,,,,,,6,,,,71,127
57212,note_on,8,0,7,,,,,,,,,6,,,,74,127
57231,note_on,0,0,1,,,,,,,,,0,,,,89,0
57231,note_on,110,0,1,,,,,,,,,0,,,,86,0
57232,note_on,110,0,2,,,,,,,,,1,,,,83,0
57232,note_on,0,0,2,,,,,,,,,1,,,,77,0
57234,note_on,0,0,8,,,,,,,,,7,,,,65,0
57234,note_on,22,0,7,,,,,,,,,6,,,,71,0
57234,note_on,0,0,7,,,,,,,,,6,,,,74,0
57234,note_on,110,0,8,,,,,,,,,7,,,,62,0
57236,note_on,110,0,9,,,,,,,,,8,,,,55,0
57240,set_tempo,60,1,0,,,,,,1052632,,,,,,,,
57241,note_on,10,0,1,,,,,,,,,0,,,,89,116
57241,note_on,0,0,1,,,,,,,,,0,,,,86,116
57242,note_on,0,0,2,,,,,,,,,1,,,,83,115
57242,note_on,10,0,2,,,,,,,,,1,,,,77,115
57242,note_on,8,0,7,,,,,,,,,6,,,,74,127
57242,note_on,0,0,7,,,,,,,,,6,,,,71,127
57244,note_on,10,0,8,,,,,,,,,7,,,,65,125
57244,note_on,0,0,8,,,,,,,,,7,,,,62,125
57245,note_on,0,0,13,,,,,,,,,12,,,,55,112
57245,note_on,60,0,13,,,,,,,,,12,,,,67,112
57245,control_change,0,0,13,,,,,,,,,12,11,122,,,
57246,note_on,10,0,9,,,,,,,,,8,,,,55,125
57247,note_on,0,0,14,,,,,,,,,13,,,,43,112
57247,control_change,60,0,14,,,,,,,,,13,11,122,,,
57249,control_change,60,0,15,,,,,,,,,14,11,122,,,
57249,note_on,0,0,15,,,,,,,,,14,,,,31,112
57252,control_change,7,0,13,,,,,,,,,12,11,119,,,
57254,control_change,7,0,14,,,,,,,,,13,11,119,,,
57256,control_change,7,0,15,,,,,,,,,14,11,119,,,
57260,control_change,8,0,13,,,,,,,,,12,11,116,,,
57262,control_change,8,0,14,,,,,,,,,13,11,116,,,
57264,control_change,8,0,15,,,,,,,,,14,11,116,,,
57267,control_change,7,0,13,,,,,,,,,12,11,113,,,
57269,control_change,7,0,14,,,,,,,,,13,11,113,,,
57271,control_change,7,0,15,,,,,,,,,14,11,113,,,
57275,control_change,0,0,13,,,,,,,,,12,11,110,,,
57275,note_on,8,0,13,,,,,,,,,12,,,,55,0
57275,note_on,0,0,13,,,,,,,,,12,,,,67,0
57277,note_on,8,0,14,,,,,,,,,13,,,,43,0
57277,control_change,0,0,14,,,,,,,,,13,11,110,,,
57279,control_change,0,0,15,,,,,,,,,14,11,110,,,
57279,note_on,8,0,15,,,,,,,,,14,,,,31,0
57282,control_change,7,0,13,,,,,,,,,12,11,107,,,
57284,control_change,7,0,14,,,,,,,,,13,11,107,,,
57286,control_change,7,0,15,,,,,,,,,14,11,107,,,
57290,control_change,8,0,13,,,,,,,,,12,11,104,,,
57292,control_change,8,0,14,,,,,,,,,13,11,104,,,
57294,control_change,8,0,15,,,,,,,,,14,11,104,,,
57300,set_tempo,60,1,0,,,,,,991736,,,,,,,,
57305,note_on,0,0,13,,,,,,,,,12,,,,55,112
57305,note_on,15,0,13,,,,,,,,,12,,,,67,112
57307,note_on,15,0,14,,,,,,,,,13,,,,43,112
57309,note_on,15,0,15,,,,,,,,,14,,,,31,112
57335,note_on,0,0,13,,,,,,,,,12,,,,67,0
57335,note_on,30,0,13,,,,,,,,,12,,,,55,0
57337,note_on,30,0,14,,,,,,,,,13,,,,43,0
57339,note_on,30,0,15,,,,,,,,,14,,,,31,0
57351,note_on,110,0,1,,,,,,,,,0,,,,86,0
57351,note_on,0,0,1,,,,,,,,,0,,,,89,0
57352,note_on,0,0,2,,,,,,,,,1,,,,77,0
57352,note_on,110,0,2,,,,,,,,,1,,,,83,0
57354,note_on,0,0,8,,,,,,,,,7,,,,65,0
57354,note_on,110,0,8,,,,,,,,,7,,,,62,0
57356,note_on,110,0,9,,,,,,,,,8,,,,55,0
57360,note_on,150,0,11,,,,,,,,,10,,,,77,112
57360,set_tempo,60,1,0,,,,,,1061947,,,,,,,,
57362,note_on,120,0,7,,,,,,,,,6,,,,71,0
57362,note_on,150,0,12,,,,,,,,,11,,,,77,112
57362,note_on,250,0,3,,,,,,,,,2,,,,74,116
57362,note_on,0,0,3,,,,,,,,,2,,,,77,116
57362,note_on,0,0,7,,,,,,,,,6,,,,74,0
57367,note_on,0,0,4,,,,,,,,,3,,,,65,115
57367,note_on,250,0,4,,,,,,,,,3,,,,62,115
57387,note_on,27,0,11,,,,,,,,,10,,,,77,0
57389,note_on,27,0,12,,,,,,,,,11,,,,77,0
57391,note_on,270,0,5,,,,,,,,,4,,,,65,100
57393,note_on,270,0,6,,,,,,,,,5,,,,62,100
57402,note_on,11,0,5,,,,,,,,,4,,,,65,0
57404,note_on,11,0,6,,,,,,,,,5,,,,62,0
57405,note_on,18,0,11,,,,,,,,,10,,,,76,112
57406,note_on,4,0,5,,,,,,,,,4,,,,65,100
57407,note_on,18,0,12,,,,,,,,,11,,,,76,112
57408,note_on,4,0,6,,,,,,,,,5,,,,62,100
57414,note_on,9,0,11,,,,,,,,,10,,,,76,0
57416,note_on,9,0,12,,,,,,,,,11,,,,76,0
57417,note_on,11,0,5,,,,,,,,,4,,,,65,0
57419,note_on,11,0,6,,,,,,,,,5,,,,62,0
57420,note_on,6,0,11,,,,,,,,,10,,,,74,112
57420,set_tempo,60,1,0,,,,,,983607,,,,,,,,
57421,note_on,4,0,5,,,,,,,,,4,,,,65,100
57422,note_on,6,0,12,,,,,,,,,11,,,,74,112
57423,note_on,4,0,6,,,,,,,,,5,,,,62,100
57445,note_on,24,0,5,,,,,,,,,4,,,,65,0
57447,note_on,27,0,11,,,,,,,,,10,,,,74,0
57447,note_on,24,0,6,,,,,,,,,5,,,,62,0
57449,note_on,27,0,12,,,,,,,,,11,,,,74,0
57451,note_on,6,0,5,,,,,,,,,4,,,,65,100
57453,note_on,6,0,6,,,,,,,,,5,,,,62,100
57465,note_on,18,0,11,,,,,,,,,10,,,,76,112
57467,note_on,18,0,12,,,,,,,,,11,,,,76,112
57472,note_on,0,0,3,,,,,,,,,2,,,,74,0
57472,note_on,110,0,3,,,,,,,,,2,,,,77,0
57474,note_on,9,0,11,,,,,,,,,10,,,,76,0
57475,note_on,24,0,5,,,,,,,,,4,,,,65,0
57476,note_on,9,0,12,,,,,,,,,11,,,,76,0
57477,note_on,0,0,4,,,,,,,,,3,,,,62,0
57477,note_on,110,0,4,,,,,,,,,3,,,,65,0
57477,note_on,24,0,6,,,,,,,,,5,,,,62,0
57480,set_tempo,60,1,0,,,,,,1052632,,,,,,,,
57480,note_on,6,0,11,,,,,,,,,10,,,,74,112
57481,note_on,6,0,5,,,,,,,,,4,,,,65,115
57482,note_on,6,0,12,,,,,,,,,11,,,,74,112
57482,note_on,0,0,3,,,,,,,,,2,,,,77,116
57482,note_on,10,0,3,,,,,,,,,2,,,,74,116
57483,note_on,6,0,6,,,,,,,,,5,,,,62,115
57485,note_on,150,0,13,,,,,,,,,12,,,,65,112
57487,note_on,0,0,4,,,,,,,,,3,,,,65,115
57487,note_on,150,0,14,,,,,,,,,13,,,,65,112
57487,note_on,10,0,4,,,,,,,,,3,,,,62,115
57489,note_on,150,0,15,,,,,,,,,14,,,,53,112
57507,note_on,27,0,11,,,,,,,,,10,,,,74,0
57509,note_on,27,0,12,,,,,,,,,11,,,,74,0
57512,note_on,27,0,13,,,,,,,,,12,,,,65,0
57514,note_on,27,0,14,,,,,,,,,13,,,,65,0
57516,note_on,27,0,15,,,,,,,,,14,,,,53,0
57525,note_on,18,0,11,,,,,,,,,10,,,,72,112
57527,note_on,18,0,12,,,,,,,,,11,,,,72,112
57530,note_on,18,0,13,,,,,,,,,12,,,,64,112
57532,note_on,18,0,14,,,,,,,,,13,,,,64,112
57534,note_on,9,0,11,,,,,,,,,10,,,,72,0
57534,note_on,18,0,15,,,,,,,,,14,,,,52,112
57536,note_on,9,0,12,,,,,,,,,11,,,,72,0
57539,note_on,9,0,13,,,,,,,,,12,,,,64,0
57540,set_tempo,60,1,0,,,,,,983607,,,,,,,,
57540,note_on,6,0,11,,,,,,,,,10,,,,71,112
57541,note_on,9,0,14,,,,,,,,,13,,,,64,0
57542,note_on,6,0,12,,,,,,,,,11,,,,71,112
57543,note_on,9,0,15,,,,,,,,,14,,,,52,0
57545,note_on,6,0,13,,,,,,,,,12,,,,62,112
57547,note_on,6,0,14,,,,,,,,,13,,,,62,112
57549,note_on,6,0,15,,,,,,,,,14,,,,50,112
57567,note_on,27,0,11,,,,,,,,,10,,,,71,0
57569,note_on,27,0,12,,,,,,,,,11,,,,71,0
57572,note_on,27,0,13,,,,,,,,,12,,,,62,0
57574,note_on,27,0,14,,,,,,,,,13,,,,62,0
57576,note_on,27,0,15,,,,,,,,,14,,,,50,0
57585,note_on,18,0,11,,,,,,,,,10,,,,72,112
57587,note_on,18,0,12,,,,,,,,,11,,,,72,112
57590,note_on,18,0,13,,,,,,,,,12,,,,64,112
57592,note_on,18,0,14,,,,,,,,,13,,,,64,112
57592,note_on,110,0,3,,,,,,,,,2,,,,77,0
57592,note_on,0,0,3,,,,,,,,,2,,,,74,0
57594,note_on,9,0,11,,,,,,,,,10,,,,72,0
57594,note_on,18,0,15,,,,,,,,,14,,,,52,112
57596,note_on,9,0,12,,,,,,,,,11,,,,72,0
57597,note_on,110,0,4,,,,,,,,,3,,,,65,0
57597,note_on,0,0,4,,,,,,,,,3,,,,62,0
57599,note_on,9,0,13,,,,,,,,,12,,,,64,0
57600,set_tempo,60,1,0,,,,,,1061947,,,,,,,,
57600,note_on,6,0,11,,,,,,,,,10,,,,71,112
57601,note_on,120,0,5,,,,,,,,,4,,,,65,0
57601,note_on,0,0,1,,,,,,,,,0,,,,86,116
57601,note_on,250,0,1,,,,,,,,,0,,,,89,116
57601,note_on,9,0,14,,,,,,,,,13,,,,64,0
57602,note_on,250,0,2,,,,,,,,,1,,,,83,115
57602,note_on,0,0,2,,,,,,,,,1,,,,77,115
57602,note_on,6,0,12,,,,,,,,,11,,,,71,112
57603,note_on,120,0,6,,,,,,,,,5,,,,62,0
57603,note_on,9,0,15,,,,,,,,,14,,,,52,0
57604,note_on,250,0,8,,,,,,,,,7,,,,62,125
57604,note_on,0,0,8,,,,,,,,,7,,,,65,125
57605,note_on,6,0,13,,,,,,,,,12,,,,62,112
57606,note_on,250,0,9,,,,,,,,,8,,,,55,125
57607,note_on,6,0,14,,,,,,,,,13,,,,62,112
57609,note_on,6,0,15,,,,,,,,,14,,,,50,112
57627,note_on,27,0,11,,,,,,,,,10,,,,71,0
57629,note_on,27,0,12,,,,,,,,,11,,,,71,0
57632,note_on,270,0,7,,,,,,,,,6,,,,74,127
57632,note_on,27,0,13,,,,,,,,,12,,,,62,0
57632,note_on,0,0,7,,,,,,,,,6,,,,71,127
57634,note_on,27,0,14,,,,,,,,,13,,,,62,0
57636,note_on,27,0,15,,,,,,,,,14,,,,50,0
57643,note_on,0,0,7,,,,,,,,,6,,,,74,0
57643,note_on,11,0,7,,,,,,,,,6,,,,71,0
57645,note_on,18,0,11,,,,,,,,,10,,,,72,112
57647,note_on,4,0,7,,,,,,,,,6,,,,71,127
57647,note_on,0,0,7,,,,,,,,,6,,,,74,127
57647,note_on,18,0,12,,,,,,,,,11,,,,72,112
57650,note_on,18,0,13,,,,,,,,,12,,,,60,112
57652,note_on,18,0,14,,,,,,,,,13,,,,60,112
57654,note_on,9,0,11,,,,,,,,,10,,,,72,0
57654,note_on,18,0,15,,,,,,,,,14,,,,48,112
57656,note_on,9,0,12,,,,,,,,,11,,,,72,0
57658,note_on,11,0,7,,,,,,,,,6,,,,74,0
57658,note_on,0,0,7,,,,,,,,,6,,,,71,0
57659,note_on,9,0,13,,,,,,,,,12,,,,60,0
57660,note_on,6,0,11,,,,,,,,,10,,,,74,112
57660,set_tempo,60,1,0,,,,,,983607,,,,,,,,
57661,note_on,9,0,14,,,,,,,,,13,,,,60,0
57662,note_on,4,0,7,,,,,,,,,6,,,,71,127
57662,note_on,0,0,7,,,,,,,,,6,,,,74,127
57662,note_on,6,0,12,,,,,,,,,11,,,,74,112
57663,note_on,9,0,15,,,,,,,,,14,,,,48,0
57665,note_on,6,0,13,,,,,,,,,12,,,,59,112
57667,note_on,6,0,14,,,,,,,,,13,,,,59,112
57669,note_on,6,0,15,,,,,,,,,14,,,,47,112
57684,note_on,22,0,7,,,,,,,,,6,,,,74,0
57684,note_on,0,0,7,,,,,,,,,6,,,,71,0
57687,note_on,27,0,11,,,,,,,,,10,,,,74,0
57689,note_on,27,0,12,,,,,,,,,11,,,,74,0
57692,note_on,8,0,7,,,,,,,,,6,,,,71,127
57692,note_on,0,0,7,,,,,,,,,6,,,,74,127
57692,note_on,27,0,13,,,,,,,,,12,,,,59,0
57694,note_on,27,0,14,,,,,,,,,13,,,,59,0
57696,note_on,27,0,15,,,,,,,,,14,,,,47,0
57705,note_on,18,0,11,,,,,,,,,10,,,,76,112
57707,note_on,18,0,12,,,,,,,,,11,,,,76,112
57710,note_on,18,0,13,,,,,,,,,12,,,,60,112
57711,note_on,0,0,1,,,,,,,,,0,,,,89,0
57711,note_on,110,0,1,,,,,,,,,0,,,,86,0
57712,note_on,0,0,2,,,,,,,,,1,,,,83,0
57712,note_on,110,0,2,,,,,,,,,1,,,,77,0
57712,note_on,18,0,14,,,,,,,,,13,,,,60,112
57714,note_on,0,0,8,,,,,,,,,7,,,,62,0
57714,note_on,110,0,8,,,,,,,,,7,,,,65,0
57714,note_on,9,0,11,,,,,,,,,10,,,,76,0
57714,note_on,22,0,7,,,,,,,,,6,,,,74,0
57714,note_on,18,0,15,,,,,,,,,14,,,,48,112
57714,note_on,0,0,7,,,,,,,,,6,,,,71,0
57716,note_on,9,0,12,,,,,,,,,11,,,,76,0
57716,note_on,110,0,9,,,,,,,,,8,,,,55,0
57719,note_on,9,0,13,,,,,,,,,12,,,,60,0
57720,set_tempo,60,1,0,,,,,,1052632,,,,,,,,
57720,note_on,6,0,11,,,,,,,,,10,,,,74,112
57721,note_on,10,0,1,,,,,,,,,0,,,,89,116
57721,note_on,9,0,14,,,,,,,,,13,,,,60,0
57721,note_on,0,0,1,,,,,,,,,0,,,,86,116
57722,note_on,0,0,7,,,,,,,,,6,,,,71,127
57722,note_on,8,0,7,,,,,,,,,6,,,,74,127
57722,note_on,10,0,2,,,,,,,,,1,,,,83,115
57722,note_on,0,0,2,,,,,,,,,1,,,,77,115
57722,note_on,6,0,12,,,,,,,,,11,,,,74,112
57723,note_on,9,0,15,,,,,,,,,14,,,,48,0
57724,note_on,10,0,8,,,,,,,,,7,,,,65,125
57724,note_on,0,0,8,,,,,,,,,7,,,,62,125
57725,note_on,6,0,13,,,,,,,,,12,,,,62,112
57726,note_on,10,0,9,,,,,,,,,8,,,,55,125
57727,note_on,6,0,14,,,,,,,,,13,,,,62,112
57729,note_on,6,0,15,,,,,,,,,14,,,,50,112
57747,note_on,27,0,11,,,,,,,,,10,,,,74,0
57749,note_on,27,0,12,,,,,,,,,11,,,,74,0
57752,note_on,27,0,13,,,,,,,,,12,,,,62,0
57754,note_on,27,0,14,,,,,,,,,13,,,,62,0
57756,note_on,27,0,15,,,,,,,,,14,,,,50,0
57765,note_on,18,0,11,,,,,,,,,10,,,,76,112
57767,note_on,18,0,12,,,,,,,,,11,,,,76,112
57770,note_on,18,0,13,,,,,,,,,12,,,,60,112
57772,note_on,18,0,14,,,,,,,,,13,,,,60,112
57774,note_on,18,0,15,,,,,,,,,14,,,,48,112
57774,note_on,9,0,11,,,,,,,,,10,,,,76,0
57776,note_on,9,0,12,,,,,,,,,11,,,,76,0
57779,note_on,9,0,13,,,,,,,,,12,,,,60,0
57780,note_on,6,0,11,,,,,,,,,10,,,,77,112
57780,set_tempo,60,1,0,,,,,,983607,,,,,,,,
57781,note_on,9,0,14,,,,,,,,,13,,,,60,0
57782,note_on,6,0,12,,,,,,,,,11,,,,77,112
57783,note_on,9,0,15,,,,,,,,,14,,,,48,0
57785,note_on,6,0,13,,,,,,,,,12,,,,59,112
57787,note_on,6,0,14,,,,,,,,,13,,,,59,112
57789,note_on,6,0,15,,,,,,,,,14,,,,47,112
57807,note_on,27,0,11,,,,,,,,,10,,,,77,0
57809,note_on,27,0,12,,,,,,,,,11,,,,77,0
57812,note_on,27,0,13,,,,,,,,,12,,,,59,0
57814,note_on,27,0,14,,,,,,,,,13,,,,59,0
57816,note_on,27,0,15,,,,,,,,,14,,,,47,0
57825,note_on,18,0,11,,,,,,,,,10,,,,79,112
57827,note_on,18,0,12,,,,,,,,,11,,,,79,112
57830,note_on,18,0,13,,,,,,,,,12,,,,57,112
57831,note_on,110,0,1,,,,,,,,,0,,,,86,0
57831,note_on,0,0,1,,,,,,,,,0,,,,89,0
57832,note_on,18,0,14,,,,,,,,,13,,,,57,112
57832,note_on,0,0,2,,,,,,,,,1,,,,83,0
57832,note_on,110,0,2,,,,,,,,,1,,,,77,0
57834,note_on,9,0,11,,,,,,,,,10,,,,79,0
57834,note_on,18,0,15,,,,,,,,,14,,,,45,112
57834,note_on,0,0,8,,,,,,,,,7,,,,65,0
57834,note_on,110,0,8,,,,,,,,,7,,,,62,0
57836,note_on,110,0,9,,,,,,,,,8,,,,55,0
57836,note_on,9,0,12,,,,,,,,,11,,,,79,0
57839,note_on,9,0,13,,,,,,,,,12,,,,57,0
57840,note_on,0,0,11,,,,,,,,,10,,,,80,112
57840,set_tempo,60,1,0,,,,,,1061947,,,,,,,,
57840,control_change,6,0,11,,,,,,,,,10,11,122,,,
57840,note_on,0,0,11,,,,,,,,,10,,,,71,112
57841,note_on,9,0,14,,,,,,,,,13,,,,57,0
57842,note_on,0,0,12,,,,,,,,,11,,,,77,112
57842,note_on,120,0,7,,,,,,,,,6,,,,71,0
57842,note_on,0,0,7,,,,,,,,,6,,,,74,0
57842,control_change,6,0,12,,,,,,,,,11,11,122,,,
57842,note_on,0,0,3,,,,,,,,,2,,,,80,116
57842,note_on,0,0,12,,,,,,,,,11,,,,74,112
57842,note_on,250,0,3,,,,,,,,,2,,,,77,116
57843,note_on,9,0,15,,,,,,,,,14,,,,45,0
57845,note_on,6,0,13,,,,,,,,,12,,,,55,112
57847,note_on,6,0,14,,,,,,,,,13,,,,55,112
57847,control_change,7,0,11,,,,,,,,,10,11,119,,,
57847,note_on,250,0,4,,,,,,,,,3,,,,68,115
57847,note_on,0,0,4,,,,,,,,,3,,,,59,115
57849,control_change,7,0,12,,,,,,,,,11,11,119,,,
57849,note_on,6,0,15,,,,,,,,,14,,,,43,112
57855,control_change,8,0,11,,,,,,,,,10,11,116,,,
57857,control_change,8,0,12,,,,,,,,,11,11,116,,,
57862,control_change,7,0,11,,,,,,,,,10,11,113,,,
57864,control_change,7,0,12,,,,,,,,,11,11,113,,,
57870,note_on,8,0,11,,,,,,,,,10,,,,80,0
57870,control_change,0,0,11,,,,,,,,,10,11,110,,,
57870,note_on,0,0,11,,,,,,,,,10,,,,71,0
57871,note_on,270,0,5,,,,,,,,,4,,,,65,100
57872,note_on,0,0,12,,,,,,,,,11,,,,77,0
57872,note_on,8,0,12,,,,,,,,,11,,,,74,0
57872,control_change,0,0,12,,,,,,,,,11,11,110,,,
57873,note_on,270,0,6,,,,,,,,,5,,,,62,100
57877,control_change,7,0,11,,,,,,,,,10,11,107,,,
57879,control_change,7,0,12,,,,,,,,,11,11,107,,,
57882,note_on,11,0,5,,,,,,,,,4,,,,65,0
57884,note_on,11,0,6,,,,,,,,,5,,,,62,0
57885,control_change,8,0,11,,,,,,,,,10,11,104,,,
57886,note_on,4,0,5,,,,,,,,,4,,,,65,100
57887,control_change,8,0,12,,,,,,,,,11,11,104,,,
57888,note_on,4,0,6,,,,,,,,,5,,,,62,100
57897,note_on,11,0,5,,,,,,,,,4,,,,65,0
57899,note_on,11,0,6,,,,,,,,,5,,,,62,0
57900,note_on,15,0,11,,,,,,,,,10,,,,71,112
57900,set_tempo,60,1,0,,,,,,983607,,,,,,,,
57900,note_on,0,0,11,,,,,,,,,10,,,,80,112
57901,note_on,4,0,5,,,,,,,,,4,,,,65,100
57902,note_on,15,0,12,,,,,,,,,11,,,,77,112
57902,note_on,0,0,12,,,,,,,,,11,,,,74,112
57903,note_on,4,0,6,,,,,,,,,5,,,,62,100
57905,note_on,60,0,13,,,,,,,,,12,,,,55,0
57907,note_on,60,0,14,,,,,,,,,13,,,,55,0
57909,note_on,60,0,15,,,,,,,,,14,,,,43,0
57925,note_on,24,0,5,,,,,,,,,4,,,,65,0
57927,note_on,24,0,6,,,,,,,,,5,,,,62,0
57930,note_on,30,0,11,,,,,,,,,10,,,,80,0
57930,note_on,0,0,11,,,,,,,,,10,,,,71,0
57931,note_on,6,0,5,,,,,,,,,4,,,,65,100
57932,note_on,30,0,12,,,,,,,,,11,,,,74,0
57932,note_on,0,0,12,,,,,,,,,11,,,,77,0
57933,note_on,6,0,6,,,,,,,,,5,,,,62,100
57952,note_on,0,0,3,,,,,,,,,2,,,,77,0
57952,note_on,110,0,3,,,,,,,,,2,,,,80,0
57955,note_on,24,0,5,,,,,,,,,4,,,,65,0
57957,note_on,24,0,6,,,,,,,,,5,,,,62,0
57957,note_on,110,0,4,,,,,,,,,3,,,,59,0
57957,note_on,0,0,4,,,,,,,,,3,,,,68,0
57960,set_tempo,60,1,0,,,,,,1052632,,,,,,,,
57961,note_on,6,0,5,,,,,,,,,4,,,,65,115
57962,note_on,0,0,3,,,,,,,,,2,,,,80,116
57962,note_on,10,0,3,,,,,,,,,2,,,,77,116
57963,note_on,6,0,6,,,,,,,,,5,,,,62,115
57965,control_change,0,0,13,,,,,,,,,12,11,122,,,
57965,note_on,60,0,13,,,,,,,,,12,,,,55,112
57967,note_on,0,0,4,,,,,,,,,3,,,,59,115
57967,control_change,60,0,14,,,,,,,,,13,11,122,,,
57967,note_on,0,0,14,,,,,,,,,13,,,,43,112
57967,note_on,10,0,4,,,,,,,,,3,,,,68,115
57969,note_on,0,0,15,,,,,,,,,14,,,,31,112
57969,control_change,60,0,15,,,,,,,,,14,11,122,,,
57972,control_change,7,0,13,,,,,,,,,12,11,119,,,
57974,control_change,7,0,14,,,,,,,,,13,11,119,,,
57976,control_change,7,0,15,,,,,,,,,14,11,119,,,
57980,control_change,8,0,13,,,,,,,,,12,11,116,,,
57982,control_change,8,0,14,,,,,,,,,13,11,116,,,
57984,control_change,8,0,15,,,,,,,,,14,11,116,,,
57987,control_change,7,0,13,,,,,,,,,12,11,113,,,
57989,control_change,7,0,14,,,,,,,,,13,11,113,,,
57991,control_change,7,0,15,,,,,,,,,14,11,113,,,
57995,note_on,8,0,13,,,,,,,,,12,,,,55,0
57995,control_change,0,0,13,,,,,,,,,12,11,110,,,
57997,control_change,0,0,14,,,,,,,,,13,11,110,,,
57997,note_on,8,0,14,,,,,,,,,13,,,,43,0
57999,note_on,8,0,15,,,,,,,,,14,,,,31,0
57999,control_change,0,0,15,,,,,,,,,14,11,110,,,
58002,control_change,7,0,13,,,,,,,,,12,11,107,,,
58004,control_change,7,0,14,,,,,,,,,13,11,107,,,
58006,control_change,7,0,15,,,,,,,,,14,11,107,,,
58010,control_change,8,0,13,,,,,,,,,12,11,104,,,
58012,control_change,8,0,14,,,,,,,,,13,11,104,,,
58014,control_change,8,0,15,,,,,,,,,14,11,104,,,
58020,set_tempo,60,1,0,,,,,,983607,,,,,,,,
58025,note_on,15,0,13,,,,,,,,,12,,,,55,112
58027,note_on,15,0,14,,,,,,,,,13,,,,43,112
58029,note_on,15,0,15,,,,,,,,,14,,,,31,112
58055,note_on,30,0,13,,,,,,,,,12,,,,55,0
58057,note_on,30,0,14,,,,,,,,,13,,,,43,0
58059,note_on,30,0,15,,,,,,,,,14,,,,31,0
58072,note_on,110,0,3,,,,,,,,,2,,,,80,0
58072,note_on,0,0,3,,,,,,,,,2,,,,77,0
58077,note_on,110,0,4,,,,,,,,,3,,,,59,0
58077,note_on,0,0,4,,,,,,,,,3,,,,68,0
58080,note_on,150,0,11,,,,,,,,,10,,,,80,112
58080,set_tempo,60,1,0,,,,,,1061947,,,,,,,,
58081,note_on,120,0,5,,,,,,,,,4,,,,65,0
58081,note_on,0,0,1,,,,,,,,,0,,,,89,116
58081,note_on,250,0,1,,,,,,,,,0,,,,92,101
58082,note_on,10,0,3,,,,,,,,,2,,,,80,116
58082,note_on,250,0,2,,,,,,,,,1,,,,86,115
58082,note_on,0,0,2,,,,,,,,,1,,,,83,115
58082,note_on,0,0,3,,,,,,,,,2,,,,77,116
58082,note_on,150,0,12,,,,,,,,,11,,,,80,112
58083,note_on,120,0,6,,,,,,,,,5,,,,62,0
58084,note_on,250,0,8,,,,,,,,,7,,,,65,125
58084,note_on,0,0,8,,,,,,,,,7,,,,62,125
58086,note_on,250,0,9,,,,,,,,,8,,,,55,125
58107,note_on,27,0,11,,,,,,,,,10,,,,80,0
58109,note_on,27,0,12,,,,,,,,,11,,,,80,0
58112,note_on,270,0,7,,,,,,,,,6,,,,71,127
58112,note_on,0,0,7,,,,,,,,,6,,,,74,127
58123,note_on,0,0,7,,,,,,,,,6,,,,71,0
58123,note_on,11,0,7,,,,,,,,,6,,,,74,0
58125,note_on,18,0,11,,,,,,,,,10,,,,79,112
58127,note_on,0,0,7,,,,,,,,,6,,,,71,127
58127,note_on,4,0,7,,,,,,,,,6,,,,74,127
58127,note_on,18,0,12,,,,,,,,,11,,,,79,112
58134,note_on,9,0,11,,,,,,,,,10,,,,79,0
58136,note_on,9,0,12,,,,,,,,,11,,,,79,0
58138,note_on,11,0,7,,,,,,,,,6,,,,71,0
58138,note_on,0,0,7,,,,,,,,,6,,,,74,0
58140,set_tempo,60,1,0,,,,,,983607,,,,,,,,
58140,note_on,6,0,11,,,,,,,,,10,,,,77,112
58142,note_on,4,0,7,,,,,,,,,6,,,,74,127
58142,note_on,0,0,7,,,,,,,,,6,,,,71,127
58142,note_on,6,0,12,,,,,,,,,11,,,,77,112
58164,note_on,0,0,7,,,,,,,,,6,,,,74,0
58164,note_on,22,0,7,,,,,,,,,6,,,,71,0
58167,note_on,27,0,11,,,,,,,,,10,,,,77,0
58169,note_on,27,0,12,,,,,,,,,11,,,,77,0
58172,note_on,8,0,7,,,,,,,,,6,,,,74,127
58172,note_on,0,0,7,,,,,,,,,6,,,,71,127
58185,note_on,18,0,11,,,,,,,,,10,,,,79,112
58187,note_on,18,0,12,,,,,,,,,11,,,,79,112
58191,note_on,0,0,1,,,,,,,,,0,,,,92,0
58191,note_on,110,0,1,,,,,,,,,0,,,,89,0
58192,note_on,110,0,2,,,,,,,,,1,,,,83,0
58192,note_on,0,0,2,,,,,,,,,1,,,,86,0
58192,note_on,0,0,3,,,,,,,,,2,,,,80,0
58192,note_on,110,0,3,,,,,,,,,2,,,,77,0
58194,note_on,22,0,7,,,,,,,,,6,,,,71,0
58194,note_on,0,0,7,,,,,,,,,6,,,,74,0
58194,note_on,0,0,8,,,,,,,,,7,,,,65,0
58194,note_on,9,0,11,,,,,,,,,10,,,,79,0
58194,note_on,110,0,8,,,,,,,,,7,,,,62,0
58196,note_on,110,0,9,,,,,,,,,8,,,,55,0
58196,note_on,9,0,12,,,,,,,,,11,,,,79,0
58200,set_tempo,60,1,0,,,,,,1052632,,,,,,,,
58200,note_on,6,0,11,,,,,,,,,10,,,,77,112
58201,note_on,10,0,1,,,,,,,,,0,,,,92,101
58201,note_on,0,0,1,,,,,,,,,0,,,,89,116
58202,note_on,8,0,7,,,,,,,,,6,,,,74,127
58202,note_on,10,0,3,,,,,,,,,2,,,,80,116
58202,note_on,10,0,2,,,,,,,,,1,,,,86,115
58202,note_on,0,0,2,,,,,,,,,1,,,,83,115
58202,note_on,6,0,12,,,,,,,,,11,,,,77,112
58202,note_on,0,0,3,,,,,,,,,2,,,,77,116
58202,note_on,0,0,7,,,,,,,,,6,,,,71,127
58204,note_on,10,0,8,,,,,,,,,7,,,,65,125
58204,note_on,0,0,8,,,,,,,,,7,,,,62,125
58205,note_on,150,0,13,,,,,,,,,12,,,,68,112
58206,note_on,10,0,9,,,,,,,,,8,,,,55,125
58207,note_on,150,0,14,,,,,,,,,13,,,,68,112
58209,note_on,150,0,15,,,,,,,,,14,,,,56,112
58227,note_on,27,0,11,,,,,,,,,10,,,,77,0
58229,note_on,27,0,12,,,,,,,,,11,,,,77,0
58232,note_on,27,0,13,,,,,,,,,12,,,,68,0
58234,note_on,27,0,14,,,,,,,,,13,,,,68,0
58236,note_on,27,0,15,,,,,,,,,14,,,,56,0
58245,note_on,18,0,11,,,,,,,,,10,,,,76,112
58247,note_on,18,0,12,,,,,,,,,11,,,,76,112
58250,note_on,18,0,13,,,,,,,,,12,,,,67,112
58252,note_on,18,0,14,,,,,,,,,13,,,,67,112
58254,note_on,18,0,15,,,,,,,,,14,,,,55,112
58254,note_on,9,0,11,,,,,,,,,10,,,,76,0
58256,note_on,9,0,12,,,,,,,,,11,,,,76,0
58259,note_on,9,0,13,,,,,,,,,12,,,,67,0
58260,set_tempo,60,1,0,,,,,,983607,,,,,,,,
58260,note_on,6,0,11,,,,,,,,,10,,,,74,112
58261,note_on,9,0,14,,,,,,,,,13,,,,67,0
58262,note_on,6,0,12,,,,,,,,,11,,,,74,112
58263,note_on,9,0,15,,,,,,,,,14,,,,55,0
58265,note_on,6,0,13,,,,,,,,,12,,,,65,112
58267,note_on,6,0,14,,,,,,,,,13,,,,65,112
58269,note_on,6,0,15,,,,,,,,,14,,,,53,112
58287,note_on,27,0,11,,,,,,,,,10,,,,74,0
58289,note_on,27,0,12,,,,,,,,,11,,,,74,0
58292,note_on,27,0,13,,,,,,,,,12,,,,65,0
58294,note_on,27,0,14,,,,,,,,,13,,,,65,0
58296,note_on,27,0,15,,,,,,,,,14,,,,53,0
58305,note_on,18,0,11,,,,,,,,,10,,,,76,112
58307,note_on,18,0,12,,,,,,,,,11,,,,76,112
58310,note_on,18,0,13,,,,,,,,,12,,,,67,112
58311,note_on,110,0,1,,,,,,,,,0,,,,89,0
58311,note_on,0,0,1,,,,,,,,,0,,,,92,0
58312,note_on,0,0,3,,,,,,,,,2,,,,80,0
58312,note_on,110,0,3,,,,,,,,,2,,,,77,0
58312,note_on,18,0,14,,,,,,,,,13,,,,67,112
58312,note_on,110,0,2,,,,,,,,,1,,,,83,0
58312,note_on,0,0,2,,,,,,,,,1,,,,86,0
58314,note_on,18,0,15,,,,,,,,,14,,,,55,112
58314,note_on,0,0,8,,,,,,,,,7,,,,65,0
58314,note_on,110,0,8,,,,,,,,,7,,,,62,0
58314,note_on,9,0,11,,,,,,,,,10,,,,76,0
58316,note_on,9,0,12,,,,,,,,,11,,,,76,0
58316,note_on,110,0,9,,,,,,,,,8,,,,55,0
58319,note_on,9,0,13,,,,,,,,,12,,,,67,0
58320,note_on,6,0,11,,,,,,,,,10,,,,74,112
58320,set_tempo,60,1,0,,,,,,1061947,,,,,,,,
58321,note_on,9,0,14,,,,,,,,,13,,,,67,0
58322,note_on,10,0,3,,,,,,,,,2,,,,80,116
58322,note_on,0,0,3,,,,,,,,,2,,,,77,116
58322,note_on,0,0,7,,,,,,,,,6,,,,74,0
58322,note_on,120,0,7,,,,,,,,,6,,,,71,0
58322,note_on,6,0,12,,,,,,,,,11,,,,74,112
58323,note_on,9,0,15,,,,,,,,,14,,,,55,0
58325,note_on,6,0,13,,,,,,,,,12,,,,65,112
58327,note_on,6,0,14,,,,,,,,,13,,,,65,112
58327,note_on,250,0,4,,,,,,,,,3,,,,68,115
58327,note_on,0,0,4,,,,,,,,,3,,,,59,115
58329,note_on,6,0,15,,,,,,,,,14,,,,53,112
58347,note_on,27,0,11,,,,,,,,,10,,,,74,0
58349,note_on,27,0,12,,,,,,,,,11,,,,74,0
58351,note_on,270,0,5,,,,,,,,,4,,,,65,100
58352,note_on,27,0,13,,,,,,,,,12,,,,65,0
58353,note_on,270,0,6,,,,,,,,,5,,,,62,100
58354,note_on,27,0,14,,,,,,,,,13,,,,65,0
58356,note_on,27,0,15,,,,,,,,,14,,,,53,0
58362,note_on,11,0,5,,,,,,,,,4,,,,65,0
58364,note_on,11,0,6,,,,,,,,,5,,,,62,0
58365,note_on,18,0,11,,,,,,,,,10,,,,72,112
58366,note_on,4,0,5,,,,,,,,,4,,,,65,100
58367,note_on,18,0,12,,,,,,,,,11,,,,72,112
58368,note_on,4,0,6,,,,,,,,,5,,,,62,100
58370,note_on,18,0,13,,,,,,,,,12,,,,64,112
58372,note_on,18,0,14,,,,,,,,,13,,,,64,112
58374,note_on,18,0,15,,,,,,,,,14,,,,52,112
58374,note_on,9,0,11,,,,,,,,,10,,,,72,0
58376,note_on,9,0,12,,,,,,,,,11,,,,72,0
58377,note_on,11,0,5,,,,,,,,,4,,,,65,0
58379,note_on,9,0,13,,,,,,,,,12,,,,64,0
58379,note_on,11,0,6,,,,,,,,,5,,,,62,0
58380,set_tempo,60,1,0,,,,,,983607,,,,,,,,
58380,note_on,6,0,11,,,,,,,,,10,,,,71,112
58381,note_on,4,0,5,,,,,,,,,4,,,,65,100
58381,note_on,9,0,14,,,,,,,,,13,,,,64,0
58382,note_on,6,0,12,,,,,,,,,11,,,,71,112
58383,note_on,4,0,6,,,,,,,,,5,,,,62,100
58383,note_on,9,0,15,,,,,,,,,14,,,,52,0
58385,note_on,6,0,13,,,,,,,,,12,,,,62,112
58387,note_on,6,0,14,,,,,,,,,13,,,,62,112
58389,note_on,6,0,15,,,,,,,,,14,,,,50,112
58405,note_on,24,0,5,,,,,,,,,4,,,,65,0
58407,note_on,27,0,11,,,,,,,,,10,,,,71,0
58407,note_on,24,0,6,,,,,,,,,5,,,,62,0
58409,note_on,27,0,12,,,,,,,,,11,,,,71,0
58411,note_on,6,0,5,,,,,,,,,4,,,,65,100
58412,note_on,27,0,13,,,,,,,,,12,,,,62,0
58413,note_on,6,0,6,,,,,,,,,5,,,,62,100
58414,note_on,27,0,14,,,,,,,,,13,,,,62,0
58416,note_on,27,0,15,,,,,,,,,14,,,,50,0
58425,note_on,18,0,11,,,,,,,,,10,,,,72,112
58427,note_on,18,0,12,,,,,,,,,11,,,,72,112
58430,note_on,18,0,13,,,,,,,,,12,,,,60,112
58432,note_on,18,0,14,,,,,,,,,13,,,,60,112
58432,note_on,110,0,3,,,,,,,,,2,,,,77,0
58432,note_on,0,0,3,,,,,,,,,2,,,,80,0
58434,note_on,9,0,11,,,,,,,,,10,,,,72,0
58434,note_on,18,0,15,,,,,,,,,14,,,,48,112
58435,note_on,24,0,5,,,,,,,,,4,,,,65,0
58436,note_on,9,0,12,,,,,,,,,11,,,,72,0
58437,note_on,24,0,6,,,,,,,,,5,,,,62,0
58437,note_on,110,0,4,,,,,,,,,3,,,,59,0
58437,note_on,0,0,4,,,,,,,,,3,,,,68,0
58439,note_on,9,0,13,,,,,,,,,12,,,,60,0
58440,note_on,6,0,11,,,,,,,,,10,,,,74,112
58440,set_tempo,60,1,0,,,,,,1052632,,,,,,,,
58441,note_on,6,0,5,,,,,,,,,4,,,,65,115
58441,note_on,9,0,14,,,,,,,,,13,,,,60,0
58442,note_on,0,0,3,,,,,,,,,2,,,,77,116
58442,note_on,10,0,3,,,,,,,,,2,,,,80,116
58442,note_on,6,0,12,,,,,,,,,11,,,,74,112
58443,note_on,9,0,15,,,,,,,,,14,,,,48,0
58443,note_on,6,0,6,,,,,,,,,5,,,,62,115
58445,note_on,6,0,13,,,,,,,,,12,,,,59,112
58447,note_on,0,0,4,,,,,,,,,3,,,,59,115
58447,note_on,6,0,14,,,,,,,,,13,,,,59,112
58447,note_on,10,0,4,,,,,,,,,3,,,,68,115
58449,note_on,6,0,15,,,,,,,,,14,,,,47,112
58467,note_on,27,0,11,,,,,,,,,10,,,,74,0
58469,note_on,27,0,12,,,,,,,,,11,,,,74,0
58472,note_on,27,0,13,,,,,,,,,12,,,,59,0
58472,note_on,0,0,7,,,,,,,,,6,,,,71,127
58472,note_on,150,0,7,,,,,,,,,6,,,,74,127
58474,note_on,27,0,14,,,,,,,,,13,,,,59,0
58476,note_on,27,0,15,,,,,,,,,14,,,,47,0
58483,note_on,11,0,7,,,,,,,,,6,,,,71,0
58483,note_on,0,0,7,,,,,,,,,6,,,,74,0
58485,note_on,18,0,11,,,,,,,,,10,,,,76,112
58487,note_on,18,0,12,,,,,,,,,11,,,,76,112
58487,note_on,4,0,7,,,,,,,,,6,,,,71,127
58487,note_on,0,0,7,,,,,,,,,6,,,,74,127
58490,note_on,18,0,13,,,,,,,,,12,,,,60,112
58492,note_on,18,0,14,,,,,,,,,13,,,,60,112
58494,note_on,18,0,15,,,,,,,,,14,,,,48,112
58494,note_on,9,0,11,,,,,,,,,10,,,,76,0
58496,note_on,9,0,12,,,,,,,,,11,,,,76,0
58498,note_on,0,0,7,,,,,,,,,6,,,,71,0
58498,note_on,11,0,7,,,,,,,,,6,,,,74,0
58499,note_on,9,0,13,,,,,,,,,12,,,,60,0
58500,note_on,6,0,11,,,,,,,,,10,,,,77,112
58500,set_tempo,60,1,0,,,,,,983607,,,,,,,,
58501,note_on,9,0,14,,,,,,,,,13,,,,60,0
58502,note_on,6,0,12,,,,,,,,,11,,,,77,112
58502,note_on,4,0,7,,,,,,,,,6,,,,74,127
58502,note_on,0,0,7,,,,,,,,,6,,,,71,127
58503,note_on,9,0,15,,,,,,,,,14,,,,48,0
58505,note_on,6,0,13,,,,,,,,,12,,,,59,112
58507,note_on,6,0,14,,,,,,,,,13,,,,59,112
58509,note_on,6,0,15,,,,,,,,,14,,,,47,112
58524,note_on,22,0,7,,,,,,,,,6,,,,71,0
58524,note_on,0,0,7,,,,,,,,,6,,,,74,0
58527,note_on,27,0,11,,,,,,,,,10,,,,77,0
58529,note_on,27,0,12,,,,,,,,,11,,,,77,0
58532,note_on,27,0,13,,,,,,,,,12,,,,59,0
58532,note_on,0,0,7,,,,,,,,,6,,,,71,127
58532,note_on,8,0,7,,,,,,,,,6,,,,74,127
58534,note_on,27,0,14,,,,,,,,,13,,,,59,0
58536,note_on,27,0,15,,,,,,,,,14,,,,47,0
58545,note_on,18,0,11,,,,,,,,,10,,,,79,112
58547,note_on,18,0,12,,,,,,,,,11,,,,79,112
58550,note_on,18,0,13,,,,,,,,,12,,,,57,112
58552,note_on,110,0,3,,,,,,,,,2,,,,77,0
58552,note_on,18,0,14,,,,,,,,,13,,,,57,112
58552,note_on,0,0,3,,,,,,,,,2,,,,80,0
58554,note_on,22,0,7,,,,,,,,,6,,,,71,0
58554,note_on,0,0,7,,,,,,,,,6,,,,74,0
58554,note_on,9,0,11,,,,,,,,,10,,,,79,0
58554,note_on,18,0,15,,,,,,,,,14,,,,45,112
58556,note_on,9,0,12,,,,,,,,,11,,,,79,0
58557,note_on,0,0,4,,,,,,,,,3,,,,68,0
58557,note_on,110,0,4,,,,,,,,,3,,,,59,0
58559,note_on,9,0,13,,,,,,,,,12,,,,57,0
58560,set_tempo,60,1,0,,,,,,1061947,,,,,,,,
58560,note_on,0,0,11,,,,,,,,,10,,,,80,112
58560,note_on,0,0,11,,,,,,,,,10,,,,71,112
58560,control_change,6,0,11,,,,,,,,,10,11,122,,,
58561,note_on,250,0,1,,,,,,,,,0,,,,92,116
58561,note_on,120,0,5,,,,,,,,,4,,,,65,0
58561,note_on,9,0,14,,,,,,,,,13,,,,57,0
58561,note_on,0,0,1,,,,,,,,,0,,,,89,116
58562,note_on,10,0,3,,,,,,,,,2,,,,77,101
58562,note_on,0,0,12,,,,,,,,,11,,,,77,112
58562,note_on,0,0,12,,,,,,,,,11,,,,74,112
58562,control_change,6,0,12,,,,,,,,,11,11,122,,,
58562,note_on,0,0,2,,,,,,,,,1,,,,83,115
58562,note_on,0,0,7,,,,,,,,,6,,,,74,127
58562,note_on,0,0,3,,,,,,,,,2,,,,74,101
58562,note_on,8,0,7,,,,,,,,,6,,,,71,127
58562,note_on,250,0,2,,,,,,,,,1,,,,86,115
58563,note_on,120,0,6,,,,,,,,,5,,,,62,0
58563,note_on,9,0,15,,,,,,,,,14,,,,45,0
58564,note_on,250,0,8,,,,,,,,,7,,,,62,125
58564,note_on,0,0,8,,,,,,,,,7,,,,59,125
58565,note_on,6,0,13,,,,,,,,,12,,,,55,112
58566,note_on,250,0,9,,,,,,,,,8,,,,55,125
58567,control_change,7,0,11,,,,,,,,,10,11,119,,,
58567,note_on,10,0,4,,,,,,,,,3,,,,62,100
58567,note_on,6,0,14,,,,,,,,,13,,,,55,112
58567,note_on,0,0,4,,,,,,,,,3,,,,65,100
58569,control_change,7,0,12,,,,,,,,,11,11,119,,,
58569,note_on,6,0,15,,,,,,,,,14,,,,43,112
58575,control_change,8,0,11,,,,,,,,,10,11,116,,,
58577,control_change,8,0,12,,,,,,,,,11,11,116,,,
58582,control_change,7,0,11,,,,,,,,,10,11,113,,,
58584,control_change,7,0,12,,,,,,,,,11,11,113,,,
58590,control_change,0,0,11,,,,,,,,,10,11,110,,,
58590,note_on,0,0,11,,,,,,,,,10,,,,80,0
58590,note_on,8,0,11,,,,,,,,,10,,,,71,0
58591,note_on,30,0,5,,,,,,,,,4,,,,65,100
58592,note_on,8,0,12,,,,,,,,,11,,,,77,0
58592,note_on,0,0,12,,,,,,,,,11,,,,74,0
58592,control_change,0,0,12,,,,,,,,,11,11,110,,,
58593,note_on,30,0,6,,,,,,,,,5,,,,62,100
58596,note_on,0,0,3,,,,,,,,,2,,,,77,0
58596,note_on,34,0,3,,,,,,,,,2,,,,74,0
58597,control_change,7,0,11,,,,,,,,,10,11,107,,,
58599,control_change,7,0,12,,,,,,,,,11,11,107,,,
58601,note_on,0,0,4,,,,,,,,,3,,,,62,0
58601,note_on,34,0,4,,,,,,,,,3,,,,65,0
58602,note_on,11,0,5,,,,,,,,,4,,,,65,0
58604,note_on,11,0,6,,,,,,,,,5,,,,62,0
58605,control_change,8,0,11,,,,,,,,,10,11,104,,,
58606,note_on,4,0,5,,,,,,,,,4,,,,65,100
58607,note_on,0,0,3,,,,,,,,,2,,,,76,101
58607,note_on,11,0,3,,,,,,,,,2,,,,72,101
58607,control_change,8,0,12,,,,,,,,,11,11,104,,,
58608,note_on,4,0,6,,,,,,,,,5,,,,62,100
58612,note_on,11,0,4,,,,,,,,,3,,,,60,100
58612,note_on,0,0,4,,,,,,,,,3,,,,64,100
58614,note_on,7,0,3,,,,,,,,,2,,,,76,0
58614,note_on,0,0,3,,,,,,,,,2,,,,72,0
58617,note_on,11,0,5,,,,,,,,,4,,,,65,0
58619,note_on,0,0,4,,,,,,,,,3,,,,60,0
58619,note_on,7,0,4,,,,,,,,,3,,,,64,0
58619,note_on,11,0,6,,,,,,,,,5,,,,62,0
58620,set_tempo,60,1,0,,,,,,983607,,,,,,,,
58620,note_on,15,0,11,,,,,,,,,10,,,,80,112
58620,note_on,0,0,11,,,,,,,,,10,,,,71,112
58621,note_on,4,0,5,,,,,,,,,4,,,,65,100
58622,note_on,0,0,3,,,,,,,,,2,,,,74,101
58622,note_on,15,0,12,,,,,,,,,11,,,,77,112
58622,note_on,8,0,3,,,,,,,,,2,,,,71,101
58622,note_on,0,0,12,,,,,,,,,11,,,,74,112
58623,note_on,4,0,6,,,,,,,,,5,,,,62,100
58625,note_on,60,0,13,,,,,,,,,12,,,,55,0
58627,note_on,8,0,4,,,,,,,,,3,,,,59,100
58627,note_on,0,0,4,,,,,,,,,3,,,,62,100
58627,note_on,60,0,14,,,,,,,,,13,,,,55,0
58629,note_on,60,0,15,,,,,,,,,14,,,,43,0
58645,note_on,24,0,5,,,,,,,,,4,,,,65,0
58647,note_on,24,0,6,,,,,,,,,5,,,,62,0
58650,note_on,30,0,11,,,,,,,,,10,,,,71,0
58650,note_on,0,0,11,,,,,,,,,10,,,,80,0
58651,note_on,6,0,5,,,,,,,,,4,,,,65,100
58652,note_on,30,0,12,,,,,,,,,11,,,,74,0
58652,note_on,0,0,12,,,,,,,,,11,,,,77,0
58653,note_on,6,0,6,,,,,,,,,5,,,,62,100
58656,note_on,0,0,3,,,,,,,,,2,,,,71,0
58656,note_on,34,0,3,,,,,,,,,2,,,,74,0
58661,note_on,34,0,4,,,,,,,,,3,,,,62,0
58661,note_on,0,0,4,,,,,,,,,3,,,,59,0
58667,note_on,11,0,3,,,,,,,,,2,,,,72,101
58667,note_on,0,0,3,,,,,,,,,2,,,,76,101
58671,note_on,0,0,1,,,,,,,,,0,,,,92,0
58671,note_on,110,0,1,,,,,,,,,0,,,,89,0
58672,note_on,0,0,4,,,,,,,,,3,,,,60,100
58672,note_on,11,0,4,,,,,,,,,3,,,,64,100
58672,note_on,0,0,2,,,,,,,,,1,,,,86,0
58672,note_on,110,0,2,,,,,,,,,1,,,,83,0
58674,note_on,7,0,3,,,,,,,,,2,,,,76,0
58674,note_on,0,0,3,,,,,,,,,2,,,,72,0
58674,note_on,0,0,8,,,,,,,,,7,,,,62,0
58674,note_on,110,0,8,,,,,,,,,7,,,,59,0
58675,note_on,24,0,5,,,,,,,,,4,,,,65,0
58676,note_on,110,0,9,,,,,,,,,8,,,,55,0
58677,note_on,24,0,6,,,,,,,,,5,,,,62,0
58679,note_on,0,0,4,,,,,,,,,3,,,,64,0
58679,note_on,7,0,4,,,,,,,,,3,,,,60,0
58680,set_tempo,60,1,0,,,,,,1052632,,,,,,,,
58681,note_on,6,0,5,,,,,,,,,4,,,,65,115
58681,note_on,10,0,1,,,,,,,,,0,,,,86,101
58681,note_on,0,0,1,,,,,,,,,0,,,,89,101
58682,note_on,0,0,3,,,,,,,,,2,,,,74,101
58682,note_on,10,0,2,,,,,,,,,1,,,,74,100
58682,note_on,0,0,2,,,,,,,,,1,,,,77,100
58682,note_on,8,0,3,,,,,,,,,2,,,,77,101
58682,note_on,120,0,7,,,,,,,,,6,,,,74,0
58682,note_on,0,0,7,,,,,,,,,6,,,,71,0
58683,note_on,6,0,6,,,,,,,,,5,,,,62,115
58684,note_on,0,0,8,,,,,,,,,7,,,,59,125
58684,note_on,10,0,8,,,,,,,,,7,,,,62,125
58685,control_change,0,0,13,,,,,,,,,12,11,122,,,
58685,note_on,60,0,13,,,,,,,,,12,,,,55,112
58686,note_on,10,0,9,,,,,,,,,8,,,,55,125
58687,control_change,60,0,14,,,,,,,,,13,11,122,,,
58687,note_on,8,0,4,,,,,,,,,3,,,,65,100
58687,note_on,0,0,14,,,,,,,,,13,,,,43,112
58687,note_on,0,0,4,,,,,,,,,3,,,,62,100
58689,control_change,60,0,15,,,,,,,,,14,11,122,,,
58689,note_on,0,0,15,,,,,,,,,14,,,,31,112
58692,control_change,7,0,13,,,,,,,,,12,11,119,,,
58694,control_change,7,0,14,,,,,,,,,13,11,119,,,
58696,control_change,7,0,15,,,,,,,,,14,11,119,,,
58700,control_change,8,0,13,,,,,,,,,12,11,116,,,
58702,control_change,8,0,14,,,,,,,,,13,11,116,,,
58704,control_change,8,0,15,,,,,,,,,14,11,116,,,
58707,control_change,7,0,13,,,,,,,,,12,11,113,,,
58709,control_change,7,0,14,,,,,,,,,13,11,113,,,
58711,control_change,7,0,15,,,,,,,,,14,11,113,,,
58712,note_on,0,0,7,,,,,,,,,6,,,,74,127
58712,note_on,30,0,3,,,,,,,,,2,,,,74,0
58712,note_on,0,0,3,,,,,,,,,2,,,,77,0
58712,note_on,30,0,7,,,,,,,,,6,,,,71,127
58715,control_change,0,0,13,,,,,,,,,12,11,110,,,
58715,note_on,8,0,13,,,,,,,,,12,,,,55,0
58715,note_on,0,0,1,,,,,,,,,0,,,,86,0
58715,note_on,34,0,1,,,,,,,,,0,,,,89,0
58716,note_on,34,0,2,,,,,,,,,1,,,,77,0
58716,note_on,0,0,2,,,,,,,,,1,,,,74,0
58717,note_on,0,0,4,,,,,,,,,3,,,,65,0
58717,note_on,30,0,4,,,,,,,,,3,,,,62,0
58717,note_on,8,0,14,,,,,,,,,13,,,,43,0
58717,control_change,0,0,14,,,,,,,,,13,11,110,,,
58719,note_on,8,0,15,,,,,,,,,14,,,,31,0
58719,control_change,0,0,15,,,,,,,,,14,11,110,,,
58722,control_change,7,0,13,,,,,,,,,12,11,107,,,
58723,note_on,11,0,7,,,,,,,,,6,,,,74,0
58723,note_on,0,0,7,,,,,,,,,6,,,,71,0
58724,control_change,7,0,14,,,,,,,,,13,11,107,,,
58726,control_change,7,0,15,,,,,,,,,14,11,107,,,
58726,note_on,0,0,1,,,,,,,,,0,,,,88,101
58726,note_on,11,0,1,,,,,,,,,0,,,,84,101
58727,note_on,0,0,7,,,,,,,,,6,,,,71,127
58727,note_on,4,0,7,,,,,,,,,6,,,,74,127
58727,note_on,11,0,2,,,,,,,,,1,,,,72,100
58727,note_on,0,0,2,,,,,,,,,1,,,,76,100
58730,control_change,8,0,13,,,,,,,,,12,11,104,,,
58732,control_change,8,0,14,,,,,,,,,13,11,104,,,
58733,note_on,0,0,1,,,,,,,,,0,,,,84,0
58733,note_on,7,0,1,,,,,,,,,0,,,,88,0
58734,note_on,7,0,2,,,,,,,,,1,,,,76,0
58734,note_on,0,0,2,,,,,,,,,1,,,,72,0
58734,control_change,8,0,15,,,,,,,,,14,11,104,,,
58738,note_on,0,0,7,,,,,,,,,6,,,,74,0
58738,note_on,11,0,7,,,,,,,,,6,,,,71,0
58740,set_tempo,60,1,0,,,,,,983607,,,,,,,,
58741,note_on,8,0,1,,,,,,,,,0,,,,83,101
58741,note_on,0,0,1,,,,,,,,,0,,,,86,101
58742,note_on,4,0,7,,,,,,,,,6,,,,74,127
58742,note_on,0,0,7,,,,,,,,,6,,,,71,127
58742,note_on,0,0,2,,,,,,,,,1,,,,74,100
58742,note_on,8,0,2,,,,,,,,,1,,,,71,100
58745,note_on,15,0,13,,,,,,,,,12,,,,55,112
58747,note_on,15,0,14,,,,,,,,,13,,,,43,112
58749,note_on,15,0,15,,,,,,,,,14,,,,31,112
58764,note_on,22,0,7,,,,,,,,,6,,,,71,0
58764,note_on,0,0,7,,,,,,,,,6,,,,74,0
58772,note_on,0,0,7,,,,,,,,,6,,,,71,127
58772,note_on,8,0,7,,,,,,,,,6,,,,74,127
58775,note_on,0,0,1,,,,,,,,,0,,,,83,0
58775,note_on,34,0,1,,,,,,,,,0,,,,86,0
58775,note_on,30,0,13,,,,,,,,,12,,,,55,0
58776,note_on,34,0,2,,,,,,,,,1,,,,74,0
58776,note_on,0,0,2,,,,,,,,,1,,,,71,0
58777,note_on,30,0,14,,,,,,,,,13,,,,43,0
58779,note_on,30,0,15,,,,,,,,,14,,,,31,0
58786,note_on,11,0,1,,,,,,,,,0,,,,88,101
58786,note_on,0,0,1,,,,,,,,,0,,,,84,101
58787,note_on,0,0,2,,,,,,,,,1,,,,76,100
58787,note_on,11,0,2,,,,,,,,,1,,,,72,100
58793,note_on,7,0,1,,,,,,,,,0,,,,84,0
58793,note_on,0,0,1,,,,,,,,,0,,,,88,0
58794,note_on,0,0,8,,,,,,,,,7,,,,62,0
58794,note_on,7,0,2,,,,,,,,,1,,,,76,0
58794,note_on,22,0,7,,,,,,,,,6,,,,71,0
58794,note_on,0,0,7,,,,,,,,,6,,,,74,0
58794,note_on,0,0,2,,,,,,,,,1,,,,72,0
58794,note_on,110,0,8,,,,,,,,,7,,,,59,0
58796,note_on,110,0,9,,,,,,,,,8,,,,55,0
58800,note_on,0,0,11,,,,,,,,,10,,,,71,112
58800,control_change,150,0,11,,,,,,,,,10,11,122,,,
58800,note_on,0,0,11,,,,,,,,,10,,,,80,112
58800,set_tempo,60,1,0,,,,,,1061947,,,,,,,,
58801,note_on,8,0,1,,,,,,,,,0,,,,89,101
58801,note_on,0,0,1,,,,,,,,,0,,,,86,101
58801,note_on,120,0,5,,,,,,,,,4,,,,65,0
58802,note_on,90,0,3,,,,,,,,,2,,,,74,101
58802,control_change,150,0,12,,,,,,,,,11,11,122,,,
58802,note_on,0,0,12,,,,,,,,,11,,,,77,112
58802,note_on,0,0,12,,,,,,,,,11,,,,74,112
58802,note_on,8,0,2,,,,,,,,,1,,,,77,100
58802,note_on,0,0,3,,,,,,,,,2,,,,77,101
58802,note_on,0,0,7,,,,,,,,,6,,,,71,127
58802,note_on,0,0,2,,,,,,,,,1,,,,74,100
58802,note_on,8,0,7,,,,,,,,,6,,,,74,127
58803,note_on,120,0,6,,,,,,,,,5,,,,62,0
58804,note_on,0,0,8,,,,,,,,,7,,,,59,125
58804,note_on,10,0,8,,,,,,,,,7,,,,62,125
58806,note_on,10,0,9,,,,,,,,,8,,,,55,125
58807,note_on,0,0,4,,,,,,,,,3,,,,62,100
58807,note_on,90,0,4,,,,,,,,,3,,,,65,100
58807,control_change,7,0,11,,,,,,,,,10,11,119,,,
58809,control_change,7,0,12,,,,,,,,,11,11,119,,,
58815,control_change,8,0,11,,,,,,,,,10,11,116,,,
58816,note_on,0,0,1,,,,,,,,,0,,,,89,0
58816,note_on,15,0,1,,,,,,,,,0,,,,86,0
58817,note_on,0,0,2,,,,,,,,,1,,,,77,0
58817,control_change,8,0,12,,,,,,,,,11,11,116,,,
58817,note_on,15,0,2,,,,,,,,,1,,,,74,0
58822,control_change,7,0,11,,,,,,,,,10,11,113,,,
58824,control_change,7,0,12,,,,,,,,,11,11,113,,,
58830,note_on,0,0,11,,,,,,,,,10,,,,71,0
58830,note_on,8,0,11,,,,,,,,,10,,,,80,0
58830,control_change,0,0,11,,,,,,,,,10,11,110,,,
58831,note_on,30,0,5,,,,,,,,,4,,,,65,100
58832,control_change,0,0,12,,,,,,,,,11,11,110,,,
58832,note_on,0,0,12,,,,,,,,,11,,,,77,0
58832,note_on,8,0,12,,,,,,,,,11,,,,74,0
58833,note_on,30,0,6,,,,,,,,,5,,,,62,100
58836,note_on,0,0,3,,,,,,,,,2,,,,74,0
58836,note_on,34,0,3,,,,,,,,,2,,,,77,0
58837,control_change,7,0,11,,,,,,,,,10,11,107,,,
58839,control_change,7,0,12,,,,,,,,,11,11,107,,,
58841,note_on,34,0,4,,,,,,,,,3,,,,62,0
58841,note_on,0,0,4,,,,,,,,,3,,,,65,0
58842,note_on,11,0,5,,,,,,,,,4,,,,65,0
58844,note_on,11,0,6,,,,,,,,,5,,,,62,0
58845,control_change,8,0,11,,,,,,,,,10,11,104,,,
58846,note_on,4,0,5,,,,,,,,,4,,,,65,100
58847,note_on,11,0,3,,,,,,,,,2,,,,76,101
58847,note_on,0,0,3,,,,,,,,,2,,,,72,101
58847,control_change,8,0,12,,,,,,,,,11,11,104,,,
58848,note_on,4,0,6,,,,,,,,,5,,,,62,100
58852,note_on,0,0,4,,,,,,,,,3,,,,60,100
58852,note_on,11,0,4,,,,,,,,,3,,,,64,100
58854,note_on,7,0,3,,,,,,,,,2,,,,72,0
58854,note_on,0,0,3,,,,,,,,,2,,,,76,0
58857,note_on,11,0,5,,,,,,,,,4,,,,65,0
58859,note_on,7,0,4,,,,,,,,,3,,,,60,0
58859,note_on,0,0,4,,,,,,,,,3,,,,64,0
58859,note_on,11,0,6,,,,,,,,,5,,,,62,0
58860,note_on,0,0,11,,,,,,,,,10,,,,80,112
58860,set_tempo,60,1,0,,,,,,1016949,,,,,,,,
58860,note_on,15,0,11,,,,,,,,,10,,,,71,112
58861,note_on,4,0,5,,,,,,,,,4,,,,65,100
58862,note_on,15,0,12,,,,,,,,,11,,,,77,112
58862,note_on,0,0,3,,,,,,,,,2,,,,71,101
58862,note_on,8,0,3,,,,,,,,,2,,,,74,101
58862,note_on,0,0,12,,,,,,,,,11,,,,74,112
58863,note_on,4,0,6,,,,,,,,,5,,,,62,100
58867,note_on,0,0,4,,,,,,,,,3,,,,59,100
58867,note_on,8,0,4,,,,,,,,,3,,,,62,100
58885,note_on,24,0,5,,,,,,,,,4,,,,65,0
58887,note_on,24,0,6,,,,,,,,,5,,,,62,0
58890,note_on,0,0,11,,,,,,,,,10,,,,71,0
58890,note_on,30,0,11,,,,,,,,,10,,,,80,0
58891,note_on,6,0,5,,,,,,,,,4,,,,65,100
58892,note_on,0,0,12,,,,,,,,,11,,,,77,0
58892,note_on,30,0,12,,,,,,,,,11,,,,74,0
58893,note_on,6,0,6,,,,,,,,,5,,,,62,100
58896,note_on,0,0,3,,,,,,,,,2,,,,74,0
58896,note_on,34,0,3,,,,,,,,,2,,,,71,0
58901,note_on,0,0,4,,,,,,,,,3,,,,62,0
58901,note_on,34,0,4,,,,,,,,,3,,,,59,0
58907,note_on,0,0,3,,,,,,,,,2,,,,72,101
58907,note_on,11,0,3,,,,,,,,,2,,,,76,101
58912,note_on,0,0,4,,,,,,,,,3,,,,64,100
58912,note_on,11,0,4,,,,,,,,,3,,,,60,100
58914,note_on,110,0,8,,,,,,,,,7,,,,59,0
58914,note_on,0,0,8,,,,,,,,,7,,,,62,0
58914,note_on,0,0,3,,,,,,,,,2,,,,76,0
58914,note_on,7,0,3,,,,,,,,,2,,,,72,0
58915,note_on,24,0,5,,,,,,,,,4,,,,65,0
58916,note_on,110,0,9,,,,,,,,,8,,,,55,0
58917,note_on,24,0,6,,,,,,,,,5,,,,62,0
58919,note_on,0,0,4,,,,,,,,,3,,,,60,0
58919,note_on,7,0,4,,,,,,,,,3,,,,64,0
58920,set_tempo,60,1,0,,,,,,1081081,,,,,,,,
58921,note_on,0,0,1,,,,,,,,,0,,,,89,101
58921,note_on,105,0,1,,,,,,,,,0,,,,86,101
58921,note_on,6,0,5,,,,,,,,,4,,,,65,115
58922,note_on,105,0,2,,,,,,,,,1,,,,77,100
58922,note_on,0,0,7,,,,,,,,,6,,,,74,0
58922,note_on,8,0,3,,,,,,,,,2,,,,77,101
58922,note_on,0,0,3,,,,,,,,,2,,,,74,101
58922,note_on,0,0,2,,,,,,,,,1,,,,74,100
58922,note_on,120,0,7,,,,,,,,,6,,,,71,0
58923,note_on,6,0,6,,,,,,,,,5,,,,62,115
58924,note_on,0,0,8,,,,,,,,,7,,,,59,125
58924,note_on,10,0,8,,,,,,,,,7,,,,62,125
58925,control_change,0,0,13,,,,,,,,,12,11,122,,,
58925,note_on,150,0,13,,,,,,,,,12,,,,55,112
58926,note_on,10,0,9,,,,,,,,,8,,,,55,125
58927,control_change,150,0,14,,,,,,,,,13,11,122,,,
58927,note_on,8,0,4,,,,,,,,,3,,,,65,100
58927,note_on,0,0,4,,,,,,,,,3,,,,62,100
58927,note_on,0,0,14,,,,,,,,,13,,,,55,112
58929,note_on,0,0,15,,,,,,,,,14,,,,43,112
58929,control_change,150,0,15,,,,,,,,,14,11,122,,,
58932,control_change,7,0,13,,,,,,,,,12,11,119,,,
58934,control_change,7,0,14,,,,,,,,,13,11,119,,,
58936,control_change,7,0,15,,,,,,,,,14,11,119,,,
58940,control_change,8,0,13,,,,,,,,,12,11,116,,,
58942,control_change,8,0,14,,,,,,,,,13,11,116,,,
58944,control_change,8,0,15,,,,,,,,,14,11,116,,,
58947,control_change,7,0,13,,,,,,,,,12,11,113,,,
58949,control_change,7,0,14,,,,,,,,,13,11,113,,,
58951,control_change,7,0,15,,,,,,,,,14,11,113,,,
58952,note_on,0,0,3,,,,,,,,,2,,,,77,0
58952,note_on,30,0,3,,,,,,,,,2,,,,74,0
58952,note_on,30,0,7,,,,,,,,,6,,,,74,127
58952,note_on,0,0,7,,,,,,,,,6,,,,71,127
58955,note_on,34,0,1,,,,,,,,,0,,,,89,0
58955,note_on,8,0,13,,,,,,,,,12,,,,55,0
58955,control_change,0,0,13,,,,,,,,,12,11,110,,,
58955,note_on,0,0,1,,,,,,,,,0,,,,86,0
58956,note_on,34,0,2,,,,,,,,,1,,,,74,0
58956,note_on,0,0,2,,,,,,,,,1,,,,77,0
58957,note_on,0,0,4,,,,,,,,,3,,,,65,0
58957,note_on,8,0,14,,,,,,,,,13,,,,55,0
58957,note_on,30,0,4,,,,,,,,,3,,,,62,0
58957,control_change,0,0,14,,,,,,,,,13,11,110,,,
58959,note_on,8,0,15,,,,,,,,,14,,,,43,0
58959,control_change,0,0,15,,,,,,,,,14,11,110,,,
58962,control_change,7,0,13,,,,,,,,,12,11,107,,,
58963,note_on,11,0,7,,,,,,,,,6,,,,71,0
58963,note_on,0,0,7,,,,,,,,,6,,,,74,0
58964,control_change,7,0,14,,,,,,,,,13,11,107,,,
58966,note_on,0,0,1,,,,,,,,,0,,,,88,101
58966,control_change,7,0,15,,,,,,,,,14,11,107,,,
58966,note_on,11,0,1,,,,,,,,,0,,,,84,101
58967,note_on,4,0,7,,,,,,,,,6,,,,71,127
58967,note_on,11,0,2,,,,,,,,,1,,,,76,100
58967,note_on,0,0,2,,,,,,,,,1,,,,72,100
58967,note_on,0,0,7,,,,,,,,,6,,,,74,127
58970,control_change,8,0,13,,,,,,,,,12,11,104,,,
58972,control_change,8,0,14,,,,,,,,,13,11,104,,,
58973,note_on,0,0,1,,,,,,,,,0,,,,84,0
58973,note_on,7,0,1,,,,,,,,,0,,,,88,0
58974,control_change,8,0,15,,,,,,,,,14,11,104,,,
58974,note_on,0,0,2,,,,,,,,,1,,,,76,0
58974,note_on,7,0,2,,,,,,,,,1,,,,72,0
58978,note_on,11,0,7,,,,,,,,,6,,,,74,0
58978,note_on,0,0,7,,,,,,,,,6,,,,71,0
58980,set_tempo,60,1,0,,,,,,1016949,,,,,,,,
58981,note_on,8,0,1,,,,,,,,,0,,,,86,101
58981,note_on,0,0,1,,,,,,,,,0,,,,83,101
58982,note_on,8,0,2,,,,,,,,,1,,,,71,100
58982,note_on,0,0,2,,,,,,,,,1,,,,74,100
58982,note_on,0,0,7,,,,,,,,,6,,,,71,127
58982,note_on,4,0,7,,,,,,,,,6,,,,74,127
58985,note_on,15,0,13,,,,,,,,,12,,,,55,112
58987,note_on,15,0,14,,,,,,,,,13,,,,55,112
58989,note_on,15,0,15,,,,,,,,,14,,,,43,112
59004,note_on,22,0,7,,,,,,,,,6,,,,71,0
59004,note_on,0,0,7,,,,,,,,,6,,,,74,0
59012,note_on,8,0,7,,,,,,,,,6,,,,74,127
59012,note_on,0,0,7,,,,,,,,,6,,,,71,127
59015,note_on,34,0,1,,,,,,,,,0,,,,83,0
59015,note_on,30,0,13,,,,,,,,,12,,,,55,0
59015,note_on,0,0,1,,,,,,,,,0,,,,86,0
59016,note_on,0,0,2,,,,,,,,,1,,,,71,0
59016,note_on,34,0,2,,,,,,,,,1,,,,74,0
59017,note_on,30,0,14,,,,,,,,,13,,,,55,0
59019,note_on,30,0,15,,,,,,,,,14,,,,43,0
59026,note_on,11,0,1,,,,,,,,,0,,,,88,101
59026,note_on,0,0,1,,,,,,,,,0,,,,84,101
59027,note_on,11,0,2,,,,,,,,,1,,,,72,100
59027,note_on,0,0,2,,,,,,,,,1,,,,76,100
59033,note_on,7,0,1,,,,,,,,,0,,,,84,0
59033,note_on,0,0,1,,,,,,,,,0,,,,88,0
59034,note_on,7,0,2,,,,,,,,,1,,,,76,0
59034,note_on,0,0,7,,,,,,,,,6,,,,74,0
59034,note_on,22,0,7,,,,,,,,,6,,,,71,0
59034,note_on,0,0,8,,,,,,,,,7,,,,62,0
59034,note_on,110,0,8,,,,,,,,,7,,,,59,0
59034,note_on,0,0,2,,,,,,,,,1,,,,72,0
59036,note_on,110,0,9,,,,,,,,,8,,,,55,0
59040,set_tempo,60,1,0,,,,,,1081081,,,,,,,,
59041,note_on,0,0,1,,,,,,,,,0,,,,86,101
59041,note_on,8,0,1,,,,,,,,,0,,,,89,101
59041,note_on,120,0,5,,,,,,,,,4,,,,65,0
59042,note_on,90,0,3,,,,,,,,,2,,,,77,101
59042,note_on,0,0,2,,,,,,,,,1,,,,77,100
59042,note_on,8,0,2,,,,,,,,,1,,,,74,100
59042,note_on,0,0,3,,,,,,,,,2,,,,74,101
59042,note_on,0,0,7,,,,,,,,,6,,,,74,127
59042,note_on,8,0,7,,,,,,,,,6,,,,71,127
59043,note_on,120,0,6,,,,,,,,,5,,,,62,0
59044,note_on,10,0,8,,,,,,,,,7,,,,62,110
59044,note_on,0,0,8,,,,,,,,,7,,,,59,110
59045,note_on,30,0,13,,,,,,,,,12,,,,53,112
59046,note_on,10,0,9,,,,,,,,,8,,,,53,110
59047,note_on,30,0,14,,,,,,,,,13,,,,53,112
59047,note_on,90,0,4,,,,,,,,,3,,,,62,100
59047,note_on,0,0,4,,,,,,,,,3,,,,65,100
59049,note_on,30,0,15,,,,,,,,,14,,,,41,112
59056,note_on,15,0,1,,,,,,,,,0,,,,86,0
59056,note_on,0,0,1,,,,,,,,,0,,,,89,0
59057,note_on,15,0,2,,,,,,,,,1,,,,77,0
59057,note_on,0,0,2,,,,,,,,,1,,,,74,0
59071,note_on,30,0,5,,,,,,,,,4,,,,65,100
59073,note_on,30,0,6,,,,,,,,,5,,,,62,100
59075,note_on,30,0,13,,,,,,,,,12,,,,53,0
59076,note_on,0,0,3,,,,,,,,,2,,,,77,0
59076,note_on,34,0,3,,,,,,,,,2,,,,74,0
59077,note_on,30,0,14,,,,,,,,,13,,,,53,0
59079,note_on,30,0,15,,,,,,,,,14,,,,41,0
59081,note_on,0,0,4,,,,,,,,,3,,,,62,0
59081,note_on,34,0,4,,,,,,,,,3,,,,65,0
59082,note_on,11,0,5,,,,,,,,,4,,,,65,0
59084,note_on,11,0,6,,,,,,,,,5,,,,62,0
59086,control_change,30,0,1,,,,,,,,,0,11,91,,,
59086,note_on,4,0,5,,,,,,,,,4,,,,65,100
59087,note_on,0,0,3,,,,,,,,,2,,,,76,101
59087,note_on,0,0,3,,,,,,,,,2,,,,72,101
59087,control_change,11,0,3,,,,,,,,,2,11,91,,,
59087,control_change,30,0,2,,,,,,,,,1,11,91,,,
59088,note_on,4,0,6,,,,,,,,,5,,,,62,100
59092,control_change,11,0,4,,,,,,,,,3,11,102,,,
59092,note_on,0,0,4,,,,,,,,,3,,,,60,100
59092,note_on,0,0,4,,,,,,,,,3,,,,64,100
59094,note_on,0,0,3,,,,,,,,,2,,,,72,0
59094,note_on,7,0,3,,,,,,,,,2,,,,76,0
59097,note_on,11,0,5,,,,,,,,,4,,,,65,0
59099,note_on,7,0,4,,,,,,,,,3,,,,64,0
59099,note_on,0,0,4,,,,,,,,,3,,,,60,0
59099,note_on,11,0,6,,,,,,,,,5,,,,62,0
59100,set_tempo,60,1,0,,,,,,1043478,,,,,,,,
59101,note_on,4,0,5,,,,,,,,,4,,,,65,100
59102,note_on,8,0,3,,,,,,,,,2,,,,71,101
59102,note_on,0,0,3,,,,,,,,,2,,,,74,101
59103,note_on,4,0,6,,,,,,,,,5,,,,62,100
59105,note_on,30,0,13,,,,,,,,,12,,,,53,112
59107,note_on,0,0,4,,,,,,,,,3,,,,62,100
59107,note_on,8,0,4,,,,,,,,,3,,,,59,100
59107,control_change,21,0,1,,,,,,,,,0,11,91,,,
59107,note_on,30,0,14,,,,,,,,,13,,,,53,112
59108,control_change,21,0,2,,,,,,,,,1,11,91,,,
59108,control_change,6,0,3,,,,,,,,,2,11,91,,,
59109,note_on,30,0,15,,,,,,,,,14,,,,41,112
59113,control_change,6,0,4,,,,,,,,,3,11,103,,,
59125,note_on,24,0,5,,,,,,,,,4,,,,65,0
59127,note_on,24,0,6,,,,,,,,,5,,,,62,0
59129,control_change,22,0,1,,,,,,,,,0,11,92,,,
59130,control_change,22,0,2,,,,,,,,,1,11,92,,,
59130,control_change,22,0,3,,,,,,,,,2,11,92,,,
59131,note_on,6,0,5,,,,,,,,,4,,,,65,100
59133,note_on,6,0,6,,,,,,,,,5,,,,62,100
59135,note_on,30,0,13,,,,,,,,,12,,,,53,0
59135,control_change,22,0,4,,,,,,,,,3,11,104,,,
59136,note_on,0,0,3,,,,,,,,,2,,,,71,0
59136,note_on,6,0,3,,,,,,,,,2,,,,74,0
59137,note_on,30,0,14,,,,,,,,,13,,,,53,0
59139,note_on,30,0,15,,,,,,,,,14,,,,41,0
59141,note_on,0,0,4,,,,,,,,,3,,,,59,0
59141,note_on,6,0,4,,,,,,,,,3,,,,62,0
59147,note_on,11,0,3,,,,,,,,,2,,,,72,101
59147,note_on,0,0,3,,,,,,,,,2,,,,76,101
59151,control_change,22,0,1,,,,,,,,,0,11,93,,,
59152,control_change,5,0,3,,,,,,,,,2,11,93,,,
59152,control_change,22,0,2,,,,,,,,,1,11,93,,,
59152,note_on,11,0,4,,,,,,,,,3,,,,64,100
59152,note_on,0,0,4,,,,,,,,,3,,,,60,100
59154,note_on,110,0,8,,,,,,,,,7,,,,59,0
59154,note_on,0,0,3,,,,,,,,,2,,,,72,0
59154,note_on,0,0,8,,,,,,,,,7,,,,62,0
59154,note_on,2,0,3,,,,,,,,,2,,,,76,0
59155,note_on,24,0,5,,,,,,,,,4,,,,65,0
59156,note_on,110,0,9,,,,,,,,,8,,,,53,0
59157,control_change,5,0,4,,,,,,,,,3,11,105,,,
59157,note_on,24,0,6,,,,,,,,,5,,,,62,0
59159,note_on,0,0,4,,,,,,,,,3,,,,64,0
59159,note_on,2,0,4,,,,,,,,,3,,,,60,0
59160,note_on,0,0,11,,,,,,,,,10,,,,80,112
59160,set_tempo,60,1,0,,,,,,1111111,,,,,,,,
59160,note_on,0,0,11,,,,,,,,,10,,,,71,112
59160,control_change,270,0,11,,,,,,,,,10,11,122,,,
59161,note_on,6,0,5,,,,,,,,,4,,,,65,100
59161,note_on,0,0,1,,,,,,,,,0,,,,89,101
59161,note_on,10,0,1,,,,,,,,,0,,,,86,101
59162,note_on,10,0,2,,,,,,,,,1,,,,74,100
59162,control_change,270,0,12,,,,,,,,,11,11,122,,,
59162,note_on,0,0,12,,,,,,,,,11,,,,77,112
59162,note_on,0,0,3,,,,,,,,,2,,,,74,101
59162,note_on,8,0,3,,,,,,,,,2,,,,77,101
59162,note_on,120,0,7,,,,,,,,,6,,,,74,0
59162,note_on,0,0,7,,,,,,,,,6,,,,71,0
59162,note_on,0,0,12,,,,,,,,,11,,,,74,112
59162,note_on,0,0,2,,,,,,,,,1,,,,77,100
59163,note_on,6,0,6,,,,,,,,,5,,,,62,100
59164,note_on,0,0,8,,,,,,,,,7,,,,59,110
59164,note_on,10,0,8,,,,,,,,,7,,,,62,110
59166,note_on,10,0,9,,,,,,,,,8,,,,53,110
59167,note_on,0,0,4,,,,,,,,,3,,,,62,100
59167,note_on,8,0,4,,,,,,,,,3,,,,65,100
59167,control_change,7,0,11,,,,,,,,,10,11,119,,,
59169,control_change,7,0,12,,,,,,,,,11,11,119,,,
59173,control_change,12,0,1,,,,,,,,,0,11,94,,,
59174,control_change,12,0,2,,,,,,,,,1,11,94,,,
59174,control_change,12,0,3,,,,,,,,,2,11,94,,,
59175,control_change,8,0,11,,,,,,,,,10,11,116,,,
59177,control_change,8,0,12,,,,,,,,,11,11,116,,,
59179,control_change,12,0,4,,,,,,,,,3,11,106,,,
59182,control_change,7,0,11,,,,,,,,,10,11,113,,,
59184,control_change,7,0,12,,,,,,,,,11,11,113,,,
59190,note_on,8,0,11,,,,,,,,,10,,,,80,0
59190,note_on,0,0,11,,,,,,,,,10,,,,71,0
59190,control_change,0,0,11,,,,,,,,,10,11,110,,,
59192,note_on,0,0,7,,,,,,,,,6,,,,74,127
59192,note_on,0,0,3,,,,,,,,,2,,,,77,0
59192,note_on,18,0,3,,,,,,,,,2,,,,74,0
59192,note_on,8,0,12,,,,,,,,,11,,,,74,0
59192,note_on,30,0,7,,,,,,,,,6,,,,71,127
59192,note_on,0,0,12,,,,,,,,,11,,,,77,0
59192,control_change,0,0,12,,,,,,,,,11,11,110,,,
59194,control_change,21,0,1,,,,,,,,,0,11,94,,,
59195,control_change,21,0,2,,,,,,,,,1,11,94,,,
59195,control_change,3,0,3,,,,,,,,,2,11,94,,,
59195,note_on,0,0,1,,,,,,,,,0,,,,86,0
59195,note_on,1,0,1,,,,,,,,,0,,,,89,0
59196,note_on,1,0,2,,,,,,,,,1,,,,77,0
59196,note_on,0,0,2,,,,,,,,,1,,,,74,0
59197,note_on,18,0,4,,,,,,,,,3,,,,62,0
59197,control_change,7,0,11,,,,,,,,,10,11,107,,,
59197,note_on,0,0,4,,,,,,,,,3,,,,65,0
59199,control_change,7,0,12,,,,,,,,,11,11,107,,,
59200,control_change,3,0,4,,,,,,,,,3,11,107,,,
59203,note_on,11,0,7,,,,,,,,,6,,,,74,0
59203,note_on,0,0,7,,,,,,,,,6,,,,71,0
59205,control_change,8,0,11,,,,,,,,,10,11,104,,,
59206,note_on,11,0,1,,,,,,,,,0,,,,84,101
59206,note_on,0,0,1,,,,,,,,,0,,,,88,101
59207,note_on,0,0,7,,,,,,,,,6,,,,71,127
59207,control_change,8,0,12,,,,,,,,,11,11,104,,,
59207,note_on,4,0,7,,,,,,,,,6,,,,74,127
59207,note_on,0,0,2,,,,,,,,,1,,,,76,100
59207,note_on,11,0,2,,,,,,,,,1,,,,72,100
59213,note_on,0,0,1,,,,,,,,,0,,,,84,0
59213,note_on,7,0,1,,,,,,,,,0,,,,88,0
59214,note_on,0,0,2,,,,,,,,,1,,,,72,0
59214,note_on,7,0,2,,,,,,,,,1,,,,76,0
59216,control_change,3,0,1,,,,,,,,,0,11,95,,,
59217,control_change,22,0,3,,,,,,,,,2,11,95,,,
59217,control_change,3,0,2,,,,,,,,,1,11,95,,,
59218,note_on,11,0,7,,,,,,,,,6,,,,71,0
59218,note_on,0,0,7,,,,,,,,,6,,,,74,0
59220,set_tempo,60,1,0,,,,,,1071429,,,,,,,,
59220,note_on,15,0,11,,,,,,,,,10,,,,71,112
59220,note_on,0,0,11,,,,,,,,,10,,,,80,112
59221,note_on,5,0,1,,,,,,,,,0,,,,83,101
59221,note_on,0,0,1,,,,,,,,,0,,,,86,101
59222,note_on,0,0,7,,,,,,,,,6,,,,71,127
59222,note_on,4,0,7,,,,,,,,,6,,,,74,127
59222,note_on,0,0,2,,,,,,,,,1,,,,71,100
59222,control_change,22,0,4,,,,,,,,,3,11,108,,,
59222,note_on,5,0,2,,,,,,,,,1,,,,74,100
59222,note_on,15,0,12,,,,,,,,,11,,,,77,112
59222,note_on,0,0,12,,,,,,,,,11,,,,74,112
59238,control_change,17,0,1,,,,,,,,,0,11,96,,,
59239,control_change,17,0,2,,,,,,,,,1,11,96,,,
59239,control_change,22,0,3,,,,,,,,,2,11,96,,,
59244,control_change,22,0,4,,,,,,,,,3,11,109,,,
59244,note_on,0,0,7,,,,,,,,,6,,,,74,0
59244,note_on,22,0,7,,,,,,,,,6,,,,71,0
59250,note_on,30,0,11,,,,,,,,,10,,,,80,0
59250,note_on,0,0,11,,,,,,,,,10,,,,71,0
59252,note_on,30,0,12,,,,,,,,,11,,,,74,0
59252,note_on,0,0,12,,,,,,,,,11,,,,77,0
59252,note_on,0,0,7,,,,,,,,,6,,,,71,127
59252,note_on,8,0,7,,,,,,,,,6,,,,74,127
59255,note_on,17,0,1,,,,,,,,,0,,,,86,0
59255,note_on,0,0,1,,,,,,,,,0,,,,83,0
59256,note_on,17,0,2,,,,,,,,,1,,,,71,0
59256,note_on,0,0,2,,,,,,,,,1,,,,74,0
59260,control_change,5,0,1,,,,,,,,,0,11,97,,,
59261,control_change,22,0,3,,,,,,,,,2,11,97,,,
59261,control_change,5,0,2,,,,,,,,,1,11,97,,,
59266,note_on,6,0,1,,,,,,,,,0,,,,88,101
59266,control_change,22,0,4,,,,,,,,,3,11,110,,,
59266,note_on,0,0,1,,,,,,,,,0,,,,84,101
59267,note_on,6,0,2,,,,,,,,,1,,,,76,100
59267,note_on,0,0,2,,,,,,,,,1,,,,72,100
59273,note_on,7,0,1,,,,,,,,,0,,,,84,0
59273,note_on,0,0,1,,,,,,,,,0,,,,88,0
59274,note_on,0,0,8,,,,,,,,,7,,,,62,0
59274,note_on,110,0,8,,,,,,,,,7,,,,59,0
59274,note_on,7,0,2,,,,,,,,,1,,,,72,0
59274,note_on,0,0,7,,,,,,,,,6,,,,74,0
59274,note_on,22,0,7,,,,,,,,,6,,,,71,0
59274,note_on,0,0,2,,,,,,,,,1,,,,76,0
59276,note_on,110,0,9,,,,,,,,,8,,,,53,0
59280,set_tempo,60,1,0,,,,,,1200000,,,,,,,,
59281,note_on,0,0,1,,,,,,,,,0,,,,86,101
59281,control_change,8,0,1,,,,,,,,,0,11,97,,,
59281,note_on,0,0,1,,,,,,,,,0,,,,89,101
59281,note_on,120,0,5,,,,,,,,,4,,,,65,0
59282,note_on,0,0,3,,,,,,,,,2,,,,74,101
59282,control_change,0,0,2,,,,,,,,,1,11,97,,,
59282,note_on,0,0,3,,,,,,,,,2,,,,77,101
59282,note_on,0,0,2,,,,,,,,,1,,,,74,100
59282,control_change,21,0,3,,,,,,,,,2,11,97,,,
59282,note_on,8,0,7,,,,,,,,,6,,,,74,127
59282,note_on,0,0,7,,,,,,,,,6,,,,71,127
59282,note_on,8,0,2,,,,,,,,,1,,,,77,100
59283,note_on,120,0,6,,,,,,,,,5,,,,62,0
59284,note_on,0,0,8,,,,,,,,,7,,,,59,110
59284,note_on,10,0,8,,,,,,,,,7,,,,62,110
59285,note_on,150,0,13,,,,,,,,,12,,,,50,112
59285,control_change,0,0,13,,,,,,,,,12,11,122,,,
59286,note_on,10,0,9,,,,,,,,,8,,,,50,110
59287,control_change,150,0,14,,,,,,,,,13,11,122,,,
59287,note_on,0,0,4,,,,,,,,,3,,,,65,100
59287,note_on,0,0,4,,,,,,,,,3,,,,62,100
59287,note_on,0,0,14,,,,,,,,,13,,,,50,112
59287,control_change,21,0,4,,,,,,,,,3,11,111,,,
59289,control_change,150,0,15,,,,,,,,,14,11,122,,,
59289,note_on,0,0,15,,,,,,,,,14,,,,38,112
59292,control_change,7,0,13,,,,,,,,,12,11,119,,,
59294,control_change,7,0,14,,,,,,,,,13,11,119,,,
59296,control_change,7,0,15,,,,,,,,,14,11,119,,,
59296,note_on,0,0,1,,,,,,,,,0,,,,89,0
59296,note_on,15,0,1,,,,,,,,,0,,,,86,0
59297,note_on,15,0,2,,,,,,,,,1,,,,74,0
59297,note_on,0,0,2,,,,,,,,,1,,,,77,0
59300,control_change,8,0,13,,,,,,,,,12,11,116,,,
59302,control_change,8,0,14,,,,,,,,,13,11,116,,,
59303,control_change,7,0,1,,,,,,,,,0,11,98,,,
59304,control_change,22,0,3,,,,,,,,,2,11,98,,,
59304,control_change,7,0,2,,,,,,,,,1,11,98,,,
59304,control_change,8,0,15,,,,,,,,,14,11,116,,,
59307,control_change,7,0,13,,,,,,,,,12,11,113,,,
59309,control_change,22,0,4,,,,,,,,,3,11,112,,,
59309,control_change,7,0,14,,,,,,,,,13,11,113,,,
59311,control_change,7,0,15,,,,,,,,,14,11,113,,,
59311,note_on,30,0,5,,,,,,,,,4,,,,65,100
59313,note_on,30,0,6,,,,,,,,,5,,,,62,100
59315,control_change,0,0,13,,,,,,,,,12,11,110,,,
59315,note_on,8,0,13,,,,,,,,,12,,,,50,0
59316,note_on,12,0,3,,,,,,,,,2,,,,77,0
59316,note_on,0,0,3,,,,,,,,,2,,,,74,0
59317,control_change,0,0,14,,,,,,,,,13,11,110,,,
59317,note_on,8,0,14,,,,,,,,,13,,,,50,0
59319,control_change,0,0,15,,,,,,,,,14,11,110,,,
59319,note_on,8,0,15,,,,,,,,,14,,,,38,0
59321,note_on,12,0,4,,,,,,,,,3,,,,62,0
59321,note_on,0,0,4,,,,,,,,,3,,,,65,0
59322,control_change,7,0,13,,,,,,,,,12,11,107,,,
59322,note_on,11,0,5,,,,,,,,,4,,,,65,0
59324,note_on,11,0,6,,,,,,,,,5,,,,62,0
59324,control_change,7,0,14,,,,,,,,,13,11,107,,,
59325,control_change,22,0,1,,,,,,,,,0,11,99,,,
59326,control_change,10,0,3,,,,,,,,,2,11,99,,,
59326,control_change,22,0,2,,,,,,,,,1,11,99,,,
59326,note_on,4,0,5,,,,,,,,,4,,,,65,100
59326,control_change,7,0,15,,,,,,,,,14,11,107,,,
59327,note_on,0,0,3,,,,,,,,,2,,,,72,101
59327,note_on,1,0,3,,,,,,,,,2,,,,76,101
59328,note_on,4,0,6,,,,,,,,,5,,,,62,100
59330,control_change,8,0,13,,,,,,,,,12,11,104,,,
59331,control_change,10,0,4,,,,,,,,,3,11,113,,,
59332,control_change,8,0,14,,,,,,,,,13,11,104,,,
59332,note_on,1,0,4,,,,,,,,,3,,,,64,100
59332,note_on,0,0,4,,,,,,,,,3,,,,60,100
59334,control_change,8,0,15,,,,,,,,,14,11,104,,,
59334,note_on,0,0,3,,,,,,,,,2,,,,76,0
59334,note_on,7,0,3,,,,,,,,,2,,,,72,0
59337,note_on,11,0,5,,,,,,,,,4,,,,65,0
59339,note_on,11,0,6,,,,,,,,,5,,,,62,0
59339,note_on,7,0,4,,,,,,,,,3,,,,60,0
59339,note_on,0,0,4,,,,,,,,,3,,,,64,0
59340,set_tempo,60,1,0,,,,,,1090909,,,,,,,,
59341,note_on,4,0,5,,,,,,,,,4,,,,65,100
59342,note_on,0,0,3,,,,,,,,,2,,,,71,101
59342,note_on,8,0,3,,,,,,,,,2,,,,74,101
59343,note_on,4,0,6,,,,,,,,,5,,,,62,100
59345,note_on,15,0,13,,,,,,,,,12,,,,50,112
59347,note_on,0,0,4,,,,,,,,,3,,,,59,100
59347,control_change,22,0,1,,,,,,,,,0,11,100,,,
59347,note_on,15,0,14,,,,,,,,,13,,,,50,112
59347,note_on,8,0,4,,,,,,,,,3,,,,62,100
59348,control_change,22,0,2,,,,,,,,,1,11,100,,,
59348,control_change,6,0,3,,,,,,,,,2,11,100,,,
59349,note_on,15,0,15,,,,,,,,,14,,,,38,112
59353,control_change,6,0,4,,,,,,,,,3,11,114,,,
59365,note_on,24,0,5,,,,,,,,,4,,,,65,0
59367,note_on,24,0,6,,,,,,,,,5,,,,62,0
59368,control_change,21,0,1,,,,,,,,,0,11,100,,,
59369,control_change,21,0,3,,,,,,,,,2,11,100,,,
59369,control_change,21,0,2,,,,,,,,,1,11,100,,,
59371,note_on,6,0,5,,,,,,,,,4,,,,65,100
59373,note_on,6,0,6,,,,,,,,,5,,,,62,100
59374,control_change,21,0,4,,,,,,,,,3,11,115,,,
59375,note_on,30,0,13,,,,,,,,,12,,,,50,0
59376,note_on,7,0,3,,,,,,,,,2,,,,71,0
59376,note_on,0,0,3,,,,,,,,,2,,,,74,0
59377,note_on,30,0,14,,,,,,,,,13,,,,50,0
59379,note_on,30,0,15,,,,,,,,,14,,,,38,0
59381,note_on,7,0,4,,,,,,,,,3,,,,59,0
59381,note_on,0,0,4,,,,,,,,,3,,,,62,0
59387,note_on,11,0,3,,,,,,,,,2,,,,76,101
59387,note_on,0,0,3,,,,,,,,,2,,,,72,101
59390,control_change,22,0,1,,,,,,,,,0,11,101,,,
59391,control_change,22,0,2,,,,,,,,,1,11,101,,,
59391,control_change,4,0,3,,,,,,,,,2,11,101,,,
59392,note_on,11,0,4,,,,,,,,,3,,,,60,100
59392,note_on,0,0,4,,,,,,,,,3,,,,64,100
59394,note_on,0,0,8,,,,,,,,,7,,,,62,0
59394,note_on,110,0,8,,,,,,,,,7,,,,59,0
59394,note_on,0,0,3,,,,,,,,,2,,,,76,0
59394,note_on,3,0,3,,,,,,,,,2,,,,72,0
59395,note_on,24,0,5,,,,,,,,,4,,,,65,0
59396,note_on,110,0,9,,,,,,,,,8,,,,50,0
59396,control_change,4,0,4,,,,,,,,,3,11,116,,,
59397,note_on,24,0,6,,,,,,,,,5,,,,62,0
59399,note_on,3,0,4,,,,,,,,,3,,,,64,0
59399,note_on,0,0,4,,,,,,,,,3,,,,60,0
59400,note_on,0,0,11,,,,,,,,,10,,,,74,112
59400,set_tempo,60,1,0,,,,,,1250000,,,,,,,,
59400,note_on,150,0,11,,,,,,,,,10,,,,83,112
59401,note_on,6,0,5,,,,,,,,,4,,,,65,100
59401,note_on,0,0,1,,,,,,,,,0,,,,89,101
59401,note_on,11,0,1,,,,,,,,,0,,,,86,101
59402,note_on,8,0,3,,,,,,,,,2,,,,77,101
59402,note_on,150,0,12,,,,,,,,,11,,,,68,112
59402,note_on,0,0,12,,,,,,,,,11,,,,77,112
59402,note_on,0,0,7,,,,,,,,,6,,,,74,0
59402,note_on,120,0,7,,,,,,,,,6,,,,71,0
59402,note_on,11,0,2,,,,,,,,,1,,,,74,100
59402,note_on,0,0,3,,,,,,,,,2,,,,74,101
59402,note_on,0,0,2,,,,,,,,,1,,,,77,100
59403,note_on,6,0,6,,,,,,,,,5,,,,62,100
59404,note_on,0,0,8,,,,,,,,,7,,,,59,110
59404,note_on,10,0,8,,,,,,,,,7,,,,62,110
59406,note_on,10,0,9,,,,,,,,,8,,,,50,110
59407,note_on,0,0,4,,,,,,,,,3,,,,62,100
59407,note_on,8,0,4,,,,,,,,,3,,,,65,100
59412,control_change,11,0,1,,,,,,,,,0,11,102,,,
59413,control_change,11,0,3,,,,,,,,,2,11,102,,,
59413,control_change,11,0,2,,,,,,,,,1,11,102,,,
59418,control_change,11,0,4,,,,,,,,,3,11,117,,,
59425,note_on,24,0,5,,,,,,,,,4,,,,65,0
59427,note_on,24,0,6,,,,,,,,,5,,,,62,0
59430,note_on,30,0,11,,,,,,,,,10,,,,74,0
59430,note_on,0,0,11,,,,,,,,,10,,,,83,0
59431,note_on,6,0,5,,,,,,,,,4,,,,65,100
59432,note_on,0,0,3,,,,,,,,,2,,,,77,0
59432,note_on,19,0,3,,,,,,,,,2,,,,74,0
59432,note_on,0,0,7,,,,,,,,,6,,,,71,127
59432,note_on,30,0,7,,,,,,,,,6,,,,74,127
59432,note_on,0,0,12,,,,,,,,,11,,,,68,0
59432,note_on,30,0,12,,,,,,,,,11,,,,77,0
59433,note_on,6,0,6,,,,,,,,,5,,,,62,100
59434,control_change,22,0,1,,,,,,,,,0,11,103,,,
59435,control_change,22,0,2,,,,,,,,,1,11,103,,,
59435,note_on,1,0,1,,,,,,,,,0,,,,89,0
59435,note_on,0,0,1,,,,,,,,,0,,,,86,0
59435,control_change,3,0,3,,,,,,,,,2,11,103,,,
59436,note_on,0,0,2,,,,,,,,,1,,,,74,0
59436,note_on,1,0,2,,,,,,,,,1,,,,77,0
59437,note_on,0,0,4,,,,,,,,,3,,,,65,0
59437,note_on,19,0,4,,,,,,,,,3,,,,62,0
59440,control_change,3,0,4,,,,,,,,,3,11,118,,,
59442,note_on,11,0,5,,,,,,,,,4,,,,65,0
59443,note_on,0,0,7,,,,,,,,,6,,,,74,0
59443,note_on,11,0,7,,,,,,,,,6,,,,71,0
59444,note_on,11,0,6,,,,,,,,,5,,,,62,0
59446,note_on,0,0,1,,,,,,,,,0,,,,88,101
59446,note_on,4,0,5,,,,,,,,,4,,,,65,100
59446,note_on,11,0,1,,,,,,,,,0,,,,84,101
59447,note_on,11,0,2,,,,,,,,,1,,,,72,100
59447,note_on,4,0,7,,,,,,,,,6,,,,71,127
59447,note_on,0,0,7,,,,,,,,,6,,,,74,127
59447,note_on,0,0,2,,,,,,,,,1,,,,76,100
59448,note_on,4,0,6,,,,,,,,,5,,,,62,100
59453,note_on,7,0,1,,,,,,,,,0,,,,88,0
59453,note_on,0,0,1,,,,,,,,,0,,,,84,0
59454,note_on,0,0,2,,,,,,,,,1,,,,72,0
59454,note_on,7,0,2,,,,,,,,,1,,,,76,0
59455,control_change,2,0,1,,,,,,,,,0,11,103,,,
59456,control_change,2,0,2,,,,,,,,,1,11,103,,,
59456,control_change,21,0,3,,,,,,,,,2,11,103,,,
59457,note_on,11,0,5,,,,,,,,,4,,,,65,0
59458,note_on,0,0,7,,,,,,,,,6,,,,71,0
59458,note_on,11,0,7,,,,,,,,,6,,,,74,0
59459,note_on,11,0,6,,,,,,,,,5,,,,62,0
59460,set_tempo,60,1,0,,,,,,1111111,,,,,,,,
59460,note_on,30,0,11,,,,,,,,,10,,,,83,112
59460,note_on,0,0,11,,,,,,,,,10,,,,74,112
59461,note_on,6,0,1,,,,,,,,,0,,,,86,101
59461,note_on,4,0,5,,,,,,,,,4,,,,65,100
59461,control_change,21,0,4,,,,,,,,,3,11,119,,,
59461,note_on,0,0,1,,,,,,,,,0,,,,83,101
59462,note_on,0,0,7,,,,,,,,,6,,,,71,127
59462,note_on,4,0,7,,,,,,,,,6,,,,74,127
59462,note_on,0,0,12,,,,,,,,,11,,,,77,112
59462,note_on,0,0,2,,,,,,,,,1,,,,74,100
59462,note_on,6,0,2,,,,,,,,,1,,,,71,100
59462,note_on,30,0,12,,,,,,,,,11,,,,68,112
59463,note_on,4,0,6,,,,,,,,,5,,,,62,100
59477,control_change,16,0,1,,,,,,,,,0,11,104,,,
59478,control_change,16,0,2,,,,,,,,,1,11,104,,,
59478,control_change,22,0,3,,,,,,,,,2,11,104,,,
59483,control_change,22,0,4,,,,,,,,,3,11,120,,,
59484,note_on,22,0,7,,,,,,,,,6,,,,71,0
59484,note_on,0,0,7,,,,,,,,,6,,,,74,0
59485,note_on,24,0,5,,,,,,,,,4,,,,65,0
59487,note_on,24,0,6,,,,,,,,,5,,,,62,0
59490,note_on,30,0,11,,,,,,,,,10,,,,74,0
59490,note_on,0,0,11,,,,,,,,,10,,,,83,0
59490,set_tempo,30,1,0,,,,,,1600000,,,,,,,,
59491,note_on,6,0,5,,,,,,,,,4,,,,65,100
59492,note_on,0,0,12,,,,,,,,,11,,,,68,0
59492,note_on,0,0,7,,,,,,,,,6,,,,71,127
59492,note_on,8,0,7,,,,,,,,,6,,,,74,127
59492,note_on,30,0,12,,,,,,,,,11,,,,77,0
59493,note_on,6,0,6,,,,,,,,,5,,,,62,100
59495,note_on,0,0,1,,,,,,,,,0,,,,86,0
59495,note_on,18,0,1,,,,,,,,,0,,,,83,0
59496,note_on,18,0,2,,,,,,,,,1,,,,74,0
59496,note_on,0,0,2,,,,,,,,,1,,,,71,0
59499,control_change,4,0,1,,,,,,,,,0,11,105,,,
59500,control_change,22,0,3,,,,,,,,,2,11,105,,,
59500,control_change,4,0,2,,,,,,,,,1,11,105,,,
59505,control_change,22,0,4,,,,,,,,,3,11,121,,,
59506,note_on,0,0,1,,,,,,,,,0,,,,84,101
59506,note_on,7,0,1,,,,,,,,,0,,,,88,101
59507,note_on,7,0,2,,,,,,,,,1,,,,72,100
59507,note_on,0,0,2,,,,,,,,,1,,,,76,100
59513,note_on,7,0,1,,,,,,,,,0,,,,84,0
59513,note_on,0,0,1,,,,,,,,,0,,,,88,0
59514,note_on,110,0,8,,,,,,,,,7,,,,59,0
59514,note_on,22,0,7,,,,,,,,,6,,,,71,0
59514,note_on,0,0,7,,,,,,,,,6,,,,74,0
59514,note_on,0,0,8,,,,,,,,,7,,,,62,0
59514,note_on,7,0,2,,,,,,,,,1,,,,76,0
59514,note_on,0,0,2,,,,,,,,,1,,,,72,0
59515,note_on,24,0,5,,,,,,,,,4,,,,65,0
59516,note_on,110,0,9,,,,,,,,,8,,,,50,0
59517,note_on,24,0,6,,,,,,,,,5,,,,62,0
59520,control_change,0,0,11,,,,,,,,,10,11,127,,,
59520,set_tempo,30,1,0,,,,,,1290323,,,,,,,,
59520,note_on,30,0,11,,,,,,,,,10,,,,84,112
59521,note_on,6,0,5,,,,,,,,,4,,,,60,100
59521,control_change,8,0,1,,,,,,,,,0,11,106,,,
59521,note_on,0,0,1,,,,,,,,,0,,,,90,101
59521,note_on,0,0,1,,,,,,,,,0,,,,84,101
59522,note_on,8,0,2,,,,,,,,,1,,,,78,100
59522,control_change,30,0,12,,,,,,,,,11,11,127,,,
59522,note_on,8,0,7,,,,,,,,,6,,,,69,124
59522,note_on,0,0,2,,,,,,,,,1,,,,81,100
59522,note_on,0,0,12,,,,,,,,,11,,,,81,112
59522,control_change,22,0,3,,,,,,,,,2,11,106,,,
59522,note_on,0,0,3,,,,,,,,,2,,,,78,101
59522,control_change,0,0,2,,,,,,,,,1,11,106,,,
59522,note_on,0,0,3,,,,,,,,,2,,,,72,101
59523,note_on,6,0,6,,,,,,,,,5,,,,60,100
59525,control_change,0,0,13,,,,,,,,,12,11,127,,,
59525,note_on,150,0,13,,,,,,,,,12,,,,78,112
59527,control_change,150,0,14,,,,,,,,,13,11,127,,,
59527,note_on,0,0,4,,,,,,,,,3,,,,66,100
59527,note_on,0,0,4,,,,,,,,,3,,,,63,100
59527,control_change,22,0,4,,,,,,,,,3,11,122,,,
59527,note_on,0,0,14,,,,,,,,,13,,,,51,127
59528,note_on,5820,0,10,,,,,,,,,15,,,,45,115
59529,control_change,150,0,15,,,,,,,,,14,11,127,,,
59529,note_on,0,0,15,,,,,,,,,14,,,,39,127
59535,note_on,7,0,10,,,,,,,,,15,,,,45,0
59535,note_on,0,0,11,,,,,,,,,10,,,,84,112
59535,note_on,0,0,10,,,,,,,,,15,,,,45,114
59535,note_on,15,0,11,,,,,,,,,10,,,,84,0
59537,note_on,15,0,12,,,,,,,,,11,,,,81,0
59537,note_on,0,0,12,,,,,,,,,11,,,,81,112
59540,note_on,0,0,13,,,,,,,,,12,,,,78,112
59540,note_on,15,0,13,,,,,,,,,12,,,,78,0
59542,note_on,7,0,10,,,,,,,,,15,,,,45,0
59543,note_on,1,0,10,,,,,,,,,15,,,,45,112
59550,note_on,0,0,11,,,,,,,,,10,,,,84,112
59550,note_on,0,0,10,,,,,,,,,15,,,,45,111
59550,note_on,15,0,11,,,,,,,,,10,,,,84,0
59550,note_on,7,0,10,,,,,,,,,15,,,,45,0
59552,note_on,15,0,12,,,,,,,,,11,,,,81,0
59552,note_on,0,0,12,,,,,,,,,11,,,,81,112
59555,note_on,15,0,13,,,,,,,,,12,,,,78,0
59555,note_on,0,0,13,,,,,,,,,12,,,,78,112
59557,note_on,30,0,14,,,,,,,,,13,,,,51,0
59557,note_on,7,0,10,,,,,,,,,15,,,,45,0
59558,note_on,1,0,10,,,,,,,,,15,,,,45,109
59559,note_on,30,0,15,,,,,,,,,14,,,,39,0
59565,note_on,15,0,11,,,,,,,,,10,,,,84,0
59565,note_on,0,0,11,,,,,,,,,10,,,,84,112
59565,note_on,7,0,10,,,,,,,,,15,,,,45,0
59565,note_on,0,0,10,,,,,,,,,15,,,,45,108
59567,note_on,15,0,12,,,,,,,,,11,,,,81,0
59567,note_on,0,0,12,,,,,,,,,11,,,,81,112
59570,note_on,0,0,13,,,,,,,,,12,,,,78,112
59570,note_on,15,0,13,,,,,,,,,12,,,,78,0
59572,note_on,7,0,10,,,,,,,,,15,,,,45,0
59573,note_on,1,0,10,,,,,,,,,15,,,,45,106
59580,note_on,7,0,10,,,,,,,,,15,,,,45,0
59580,note_on,0,0,10,,,,,,,,,15,,,,45,105
59580,note_on,15,0,11,,,,,,,,,10,,,,84,0
59580,note_on,0,0,11,,,,,,,,,10,,,,84,112
59580,set_tempo,60,1,0,,,,,,1224490,,,,,,,,
59582,note_on,0,0,12,,,,,,,,,11,,,,81,112
59582,note_on,15,0,12,,,,,,,,,11,,,,81,0
59585,note_on,15,0,13,,,,,,,,,12,,,,78,0
59585,note_on,0,0,13,,,,,,,,,12,,,,78,112
59587,note_on,7,0,10,,,,,,,,,15,,,,45,0
59587,note_on,30,0,14,,,,,,,,,13,,,,51,127
59588,note_on,1,0,10,,,,,,,,,15,,,,45,103
59589,note_on,30,0,15,,,,,,,,,14,,,,39,127
59595,note_on,0,0,10,,,,,,,,,15,,,,45,101
59595,note_on,7,0,10,,,,,,,,,15,,,,45,0
59595,note_on,15,0,11,,,,,,,,,10,,,,84,0
59595,note_on,0,0,11,,,,,,,,,10,,,,84,112
59597,note_on,0,0,12,,,,,,,,,11,,,,81,112
59597,note_on,15,0,12,,,,,,,,,11,,,,81,0
59600,note_on,15,0,13,,,,,,,,,12,,,,78,0
59600,note_on,0,0,13,,,,,,,,,12,,,,78,112
59602,note_on,7,0,10,,,,,,,,,15,,,,45,0
59603,note_on,1,0,10,,,,,,,,,15,,,,45,100
59610,note_on,0,0,11,,,,,,,,,10,,,,84,112
59610,note_on,15,0,11,,,,,,,,,10,,,,84,0
59610,note_on,7,0,10,,,,,,,,,15,,,,45,0
59610,note_on,0,0,10,,,,,,,,,15,,,,45,98
59612,note_on,0,0,12,,,,,,,,,11,,,,81,112
59612,note_on,15,0,12,,,,,,,,,11,,,,81,0
59615,note_on,0,0,13,,,,,,,,,12,,,,78,112
59615,note_on,15,0,13,,,,,,,,,12,,,,78,0
59617,note_on,30,0,14,,,,,,,,,13,,,,51,0
59617,note_on,7,0,10,,,,,,,,,15,,,,45,0
59618,note_on,1,0,10,,,,,,,,,15,,,,45,97
59619,note_on,30,0,15,,,,,,,,,14,,,,39,0
59625,note_on,0,0,10,,,,,,,,,15,,,,45,95
59625,note_on,15,0,11,,,,,,,,,10,,,,84,0
59625,note_on,0,0,11,,,,,,,,,10,,,,84,112
59625,note_on,7,0,10,,,,,,,,,15,,,,45,0
59627,note_on,15,0,12,,,,,,,,,11,,,,81,0
59627,note_on,0,0,12,,,,,,,,,11,,,,81,112
59630,note_on,15,0,13,,,,,,,,,12,,,,78,0
59630,note_on,0,0,13,,,,,,,,,12,,,,78,112
59632,note_on,7,0,10,,,,,,,,,15,,,,45,0
59633,note_on,1,0,10,,,,,,,,,15,,,,45,93
59640,set_tempo,60,1,0,,,,,,1363636,,,,,,,,
59640,note_on,15,0,11,,,,,,,,,10,,,,84,0
59640,note_on,0,0,11,,,,,,,,,10,,,,84,112
59640,note_on,7,0,10,,,,,,,,,15,,,,45,0
59640,note_on,0,0,10,,,,,,,,,15,,,,45,92
59642,note_on,0,0,12,,,,,,,,,11,,,,81,112
59642,program_change,128,0,8,,,,,,,,58,7,,,,,
59642,note_on,15,0,12,,,,,,,,,11,,,,81,0
59644,note_on,0,0,8,,,,,,,,,7,,,,63,115
59644,note_on,0,0,8,,,,,,,,,7,,,,51,115
59644,control_change,2,0,8,,,,,,,,,7,11,127,,,
59645,note_on,0,0,13,,,,,,,,,12,,,,78,112
59645,note_on,15,0,13,,,,,,,,,12,,,,78,0
59646,note_on,0,0,9,,,,,,,,,8,,,,51,115
59646,note_on,0,0,9,,,,,,,,,8,,,,63,115
59646,control_change,130,0,9,,,,,,,,,8,11,127,,,
59647,note_on,7,0,10,,,,,,,,,15,,,,45,0
59648,note_on,1,0,10,,,,,,,,,15,,,,45,90
59655,note_on,15,0,11,,,,,,,,,10,,,,84,0
59655,note_on,7,0,10,,,,,,,,,15,,,,45,0
59655,note_on,0,0,10,,,,,,,,,15,,,,45,90
59655,note_on,0,0,11,,,,,,,,,10,,,,84,112
59657,note_on,15,0,12,,,,,,,,,11,,,,81,0
59657,note_on,0,0,12,,,,,,,,,11,,,,81,112
59660,note_on,0,0,13,,,,,,,,,12,,,,78,112
59660,note_on,15,0,13,,,,,,,,,12,,,,78,0
59662,note_on,7,0,10,,,,,,,,,15,,,,45,0
59663,note_on,1,0,10,,,,,,,,,15,,,,45,90
59670,note_on,15,0,11,,,,,,,,,10,,,,84,0
59670,note_on,0,0,10,,,,,,,,,15,,,,45,90
59670,note_on,7,0,10,,,,,,,,,15,,,,45,0
59670,note_on,0,0,11,,,,,,,,,10,,,,84,112
59672,note_on,0,0,12,,,,,,,,,11,,,,81,112
59672,note_on,15,0,12,,,,,,,,,11,,,,81,0
59674,note_on,0,0,8,,,,,,,,,7,,,,51,0
59674,note_on,30,0,8,,,,,,,,,7,,,,63,0
59675,note_on,15,0,13,,,,,,,,,12,,,,78,0
59675,note_on,0,0,13,,,,,,,,,12,,,,78,112
59676,note_on,0,0,9,,,,,,,,,8,,,,63,0
59676,note_on,30,0,9,,,,,,,,,8,,,,51,0
59677,note_on,7,0,10,,,,,,,,,15,,,,45,0
59678,note_on,1,0,10,,,,,,,,,15,,,,45,90
59685,note_on,0,0,10,,,,,,,,,15,,,,45,90
59685,note_on,7,0,10,,,,,,,,,15,,,,45,0
59685,note_on,15,0,11,,,,,,,,,10,,,,84,0
59685,note_on,0,0,11,,,,,,,,,10,,,,84,112
59687,note_on,15,0,12,,,,,,,,,11,,,,81,0
59687,note_on,0,0,12,,,,,,,,,11,,,,81,112
59690,note_on,0,0,13,,,,,,,,,12,,,,78,112
59690,note_on,15,0,13,,,,,,,,,12,,,,78,0
59692,note_on,7,0,10,,,,,,,,,15,,,,45,0
59693,note_on,1,0,10,,,,,,,,,15,,,,45,90
59700,note_on,7,0,10,,,,,,,,,15,,,,45,0
59700,note_on,0,0,10,,,,,,,,,15,,,,45,90
59700,note_on,0,0,11,,,,,,,,,10,,,,84,112
59700,set_tempo,60,1,0,,,,,,1304348,,,,,,,,
59700,note_on,15,0,11,,,,,,,,,10,,,,84,0
59702,note_on,15,0,12,,,,,,,,,11,,,,81,0
59702,note_on,0,0,12,,,,,,,,,11,,,,81,112
59704,note_on,30,0,8,,,,,,,,,7,,,,51,115
59704,note_on,0,0,8,,,,,,,,,7,,,,63,115
59705,note_on,15,0,13,,,,,,,,,12,,,,78,0
59705,note_on,0,0,13,,,,,,,,,12,,,,78,112
59706,note_on,30,0,9,,,,,,,,,8,,,,63,115
59706,note_on,0,0,9,,,,,,,,,8,,,,51,115
59707,note_on,7,0,10,,,,,,,,,15,,,,45,0
59708,note_on,1,0,10,,,,,,,,,15,,,,45,90
59715,note_on,7,0,10,,,,,,,,,15,,,,45,0
59715,note_on,0,0,10,,,,,,,,,15,,,,45,90
59715,note_on,0,0,11,,,,,,,,,10,,,,84,112
59715,note_on,15,0,11,,,,,,,,,10,,,,84,0
59717,note_on,0,0,12,,,,,,,,,11,,,,81,112
59717,note_on,15,0,12,,,,,,,,,11,,,,81,0
59720,note_on,0,0,13,,,,,,,,,12,,,,78,112
59720,note_on,15,0,13,,,,,,,,,12,,,,78,0
59722,note_on,7,0,10,,,,,,,,,15,,,,45,0
59723,note_on,1,0,10,,,,,,,,,15,,,,45,90
59730,note_on,7,0,10,,,,,,,,,15,,,,45,0
59730,note_on,0,0,10,,,,,,,,,15,,,,45,90
59730,note_on,0,0,11,,,,,,,,,10,,,,84,112
59730,note_on,15,0,11,,,,,,,,,10,,,,84,0
59732,note_on,15,0,12,,,,,,,,,11,,,,81,0
59732,note_on,0,0,12,,,,,,,,,11,,,,81,112
59734,note_on,30,0,8,,,,,,,,,7,,,,63,0
59734,note_on,0,0,8,,,,,,,,,7,,,,51,0
59735,note_on,15,0,13,,,,,,,,,12,,,,78,0
59735,note_on,0,0,13,,,,,,,,,12,,,,78,112
59736,note_on,0,0,9,,,,,,,,,8,,,,63,0
59736,note_on,30,0,9,,,,,,,,,8,,,,51,0
59737,note_on,7,0,10,,,,,,,,,15,,,,45,0
59738,note_on,1,0,10,,,,,,,,,15,,,,45,90
59745,note_on,0,0,11,,,,,,,,,10,,,,84,112
59745,note_on,7,0,10,,,,,,,,,15,,,,45,0
59745,note_on,0,0,10,,,,,,,,,15,,,,45,90
59745,note_on,15,0,11,,,,,,,,,10,,,,84,0
59747,note_on,15,0,12,,,,,,,,,11,,,,81,0
59747,note_on,0,0,12,,,,,,,,,11,,,,81,112
59750,note_on,15,0,13,,,,,,,,,12,,,,78,0
59750,note_on,0,0,13,,,,,,,,,12,,,,78,112
59752,note_on,7,0,10,,,,,,,,,15,,,,45,0
59753,note_on,8,0,11,,,,,,,,,10,,,,84,0
59755,note_on,8,0,12,,,,,,,,,11,,,,81,0
59757,note_on,5,0,10,,,,,,,,,15,,,,45,90
59758,note_on,8,0,13,,,,,,,,,12,,,,78,0
59760,note_on,7,0,11,,,,,,,,,10,,,,84,112
59760,set_tempo,60,1,0,,,,,,1481481,,,,,,,,
59762,note_on,7,0,12,,,,,,,,,11,,,,81,112
59764,note_on,7,0,10,,,,,,,,,15,,,,45,0
59765,note_on,7,0,13,,,,,,,,,12,,,,78,112
59768,note_on,4,0,10,,,,,,,,,15,,,,45,105
59790,note_on,30,0,11,,,,,,,,,10,,,,84,0
59792,note_on,30,0,12,,,,,,,,,11,,,,81,0
59795,note_on,30,0,13,,,,,,,,,12,,,,78,0
59820,note_on,30,0,11,,,,,,,,,10,,,,84,112
59820,set_tempo,60,1,0,,,,,,1621622,,,,,,,,
59821,note_on,300,0,5,,,,,,,,,4,,,,60,0
59821,note_on,0,0,1,,,,,,,,,0,,,,90,0
59821,note_on,300,0,1,,,,,,,,,0,,,,84,0
59822,note_on,300,0,3,,,,,,,,,2,,,,72,0
59822,note_on,300,0,2,,,,,,,,,1,,,,81,0
59822,note_on,0,0,2,,,,,,,,,1,,,,78,0
59822,note_on,300,0,7,,,,,,,,,6,,,,69,0
59822,note_on,30,0,12,,,,,,,,,11,,,,81,112
59822,note_on,0,0,3,,,,,,,,,2,,,,78,0
59823,note_on,300,0,6,,,,,,,,,5,,,,60,0
59825,note_on,30,0,13,,,,,,,,,12,,,,78,112
59827,note_on,300,0,4,,,,,,,,,3,,,,63,0
59827,note_on,0,0,4,,,,,,,,,3,,,,66,0
59828,note_on,60,0,10,,,,,,,,,15,,,,45,0
59850,note_on,30,0,11,,,,,,,,,10,,,,84,0
59852,note_on,30,0,12,,,,,,,,,11,,,,81,0
59855,note_on,30,0,13,,,,,,,,,12,,,,78,0
59880,set_tempo,60,1,0,,,,,,1121495,,,,,,,,
60239,program_change,389,0,11,,,,,,,,45,10,,,,,
60240,note_on,0,0,11,,,,,,,,,10,,,,72,42
60240,control_change,1,0,11,,,,,,,,,10,11,57,,,
60240,set_tempo,360,1,0,,,,,,1538462,,,,,,,,
60241,program_change,389,0,12,,,,,,,,45,11,,,,,
60242,control_change,1,0,12,,,,,,,,,11,11,57,,,
60242,note_on,0,0,12,,,,,,,,,11,,,,65,49
60244,program_change,389,0,13,,,,,,,,45,12,,,,,
60245,control_change,1,0,13,,,,,,,,,12,11,57,,,
60245,note_on,0,0,13,,,,,,,,,12,,,,57,49
60246,program_change,629,0,14,,,,,,,,45,13,,,,,
60247,control_change,1,0,14,,,,,,,,,13,11,57,,,
60247,note_on,0,0,14,,,,,,,,,13,,,,51,49
60248,program_change,629,0,15,,,,,,,,45,14,,,,,
60249,note_on,0,0,15,,,,,,,,,14,,,,39,49
60249,control_change,1,0,15,,,,,,,,,14,11,67,,,
60285,note_on,45,0,11,,,,,,,,,10,,,,72,0
60287,note_on,45,0,12,,,,,,,,,11,,,,65,0
60290,note_on,45,0,13,,,,,,,,,12,,,,57,0
60292,note_on,45,0,14,,,,,,,,,13,,,,51,0
60294,note_on,45,0,15,,,,,,,,,14,,,,39,0
60300,note_on,15,0,11,,,,,,,,,10,,,,72,42
60302,note_on,15,0,12,,,,,,,,,11,,,,65,49
60305,note_on,15,0,13,,,,,,,,,12,,,,57,49
60307,note_on,15,0,14,,,,,,,,,13,,,,51,49
60309,note_on,15,0,15,,,,,,,,,14,,,,39,49
60345,note_on,45,0,11,,,,,,,,,10,,,,72,0
60347,note_on,45,0,12,,,,,,,,,11,,,,65,0
60350,note_on,45,0,13,,,,,,,,,12,,,,57,0
60352,note_on,45,0,14,,,,,,,,,13,,,,51,0
60354,note_on,45,0,15,,,,,,,,,14,,,,39,0
60480,note_on,135,0,11,,,,,,,,,10,,,,72,42
60480,set_tempo,240,1,0,,,,,,1463415,,,,,,,,
60482,note_on,135,0,12,,,,,,,,,11,,,,65,49
60485,note_on,135,0,13,,,,,,,,,12,,,,57,49
60487,note_on,135,0,14,,,,,,,,,13,,,,51,49
60489,note_on,135,0,15,,,,,,,,,14,,,,39,49
60525,note_on,45,0,11,,,,,,,,,10,,,,72,0
60527,note_on,45,0,12,,,,,,,,,11,,,,65,0
60530,note_on,45,0,13,,,,,,,,,12,,,,57,0
60532,note_on,45,0,14,,,,,,,,,13,,,,51,0
60534,note_on,45,0,15,,,,,,,,,14,,,,39,0
60540,note_on,15,0,11,,,,,,,,,10,,,,72,42
60542,note_on,15,0,12,,,,,,,,,11,,,,65,49
60545,note_on,15,0,13,,,,,,,,,12,,,,57,49
60547,note_on,15,0,14,,,,,,,,,13,,,,51,49
60549,note_on,15,0,15,,,,,,,,,14,,,,39,49
60585,note_on,45,0,11,,,,,,,,,10,,,,72,0
60587,note_on,45,0,12,,,,,,,,,11,,,,65,0
60590,note_on,45,0,13,,,,,,,,,12,,,,57,0
60592,note_on,45,0,14,,,,,,,,,13,,,,51,0
60594,note_on,45,0,15,,,,,,,,,14,,,,39,0
60720,set_tempo,240,1,0,,,,,,1518987,,,,,,,,
60720,note_on,135,0,11,,,,,,,,,10,,,,72,42
60722,note_on,135,0,12,,,,,,,,,11,,,,65,49
60725,note_on,135,0,13,,,,,,,,,12,,,,57,49
60726,program_change,134,0,14,,,,,,,,48,13,,,,,
60727,control_change,0,0,14,,,,,,,,,13,11,31,,,
60727,control_change,0,0,14,,,,,,,,,13,91,1,,,
60727,note_on,1,0,14,,,,,,,,,13,,,,60,112
60727,control_change,0,0,14,,,,,,,,,13,1,30,,,
60729,note_on,135,0,15,,,,,,,,,14,,,,39,49
60745,control_change,18,0,14,,,,,,,,,13,11,34,,,
60763,control_change,18,0,14,,,,,,,,,13,11,37,,,
60765,note_on,45,0,11,,,,,,,,,10,,,,72,0
60767,note_on,45,0,12,,,,,,,,,11,,,,65,0
60770,note_on,45,0,13,,,,,,,,,12,,,,57,0
60774,note_on,45,0,15,,,,,,,,,14,,,,39,0
60780,note_on,15,0,11,,,,,,,,,10,,,,72,42
60780,set_tempo,60,1,0,,,,,,1395349,,,,,,,,
60781,control_change,18,0,14,,,,,,,,,13,11,40,,,
60782,note_on,15,0,12,,,,,,,,,11,,,,65,49
60785,note_on,15,0,13,,,,,,,,,12,,,,57,49
60789,note_on,15,0,15,,,,,,,,,14,,,,39,49
60799,control_change,18,0,14,,,,,,,,,13,11,42,,,
60817,control_change,18,0,14,,,,,,,,,13,11,45,,,
60825,note_on,45,0,11,,,,,,,,,10,,,,72,0
60827,note_on,45,0,12,,,,,,,,,11,,,,65,0
60830,note_on,45,0,13,,,,,,,,,12,,,,57,0
60834,note_on,45,0,15,,,,,,,,,14,,,,39,0
60835,control_change,18,0,14,,,,,,,,,13,11,48,,,
60840,set_tempo,60,1,0,,,,,,1500000,,,,,,,,
60847,note_on,12,0,14,,,,,,,,,13,,,,60,0
60847,note_on,0,0,14,,,,,,,,,13,,,,63,112
60857,note_on,10,0,14,,,,,,,,,13,,,,63,0
60857,note_on,0,0,14,,,,,,,,,13,,,,62,112
60863,control_change,6,0,14,,,,,,,,,13,11,52,,,
60879,control_change,16,0,14,,,,,,,,,13,11,54,,,
60892,note_on,0,0,14,,,,,,,,,13,,,,60,112
60892,note_on,13,0,14,,,,,,,,,13,,,,62,0
60895,control_change,3,0,14,,,,,,,,,13,11,56,,,
60900,set_tempo,60,1,0,,,,,,1379310,,,,,,,,
60907,note_on,12,0,14,,,,,,,,,13,,,,60,0
60907,note_on,0,0,14,,,,,,,,,13,,,,62,112
60911,control_change,4,0,14,,,,,,,,,13,11,57,,,
60927,control_change,16,0,14,,,,,,,,,13,11,59,,,
60943,control_change,16,0,14,,,,,,,,,13,11,61,,,
60952,note_on,0,0,14,,,,,,,,,13,,,,63,112
60952,note_on,9,0,14,,,,,,,,,13,,,,62,0
60959,control_change,7,0,14,,,,,,,,,13,11,63,,,
60960,note_on,135,0,11,,,,,,,,,10,,,,74,42
60960,set_tempo,60,1,0,,,,,,1518987,,,,,,,,
60962,note_on,135,0,12,,,,,,,,,11,,,,65,49
60962,note_on,3,0,14,,,,,,,,,13,,,,63,0
60965,note_on,135,0,13,,,,,,,,,12,,,,58,49
60967,note_on,5,0,14,,,,,,,,,13,,,,65,112
60969,note_on,135,0,15,,,,,,,,,14,,,,38,49
60983,control_change,16,0,14,,,,,,,,,13,11,63,,,
60999,control_change,16,0,14,,,,,,,,,13,11,62,,,
61005,note_on,45,0,11,,,,,,,,,10,,,,74,0
61007,note_on,45,0,12,,,,,,,,,11,,,,65,0
61010,note_on,45,0,13,,,,,,,,,12,,,,58,0
61014,note_on,45,0,15,,,,,,,,,14,,,,38,0
61015,control_change,16,0,14,,,,,,,,,13,11,61,,,
61020,set_tempo,60,1,0,,,,,,1395349,,,,,,,,
61020,note_on,15,0,11,,,,,,,,,10,,,,74,42
61022,note_on,15,0,12,,,,,,,,,11,,,,65,49
61025,note_on,15,0,13,,,,,,,,,12,,,,58,49
61029,note_on,15,0,15,,,,,,,,,14,,,,38,49
61031,control_change,16,0,14,,,,,,,,,13,11,60,,,
61047,control_change,16,0,14,,,,,,,,,13,11,59,,,
61063,control_change,16,0,14,,,,,,,,,13,11,58,,,
61065,note_on,45,0,11,,,,,,,,,10,,,,74,0
61067,note_on,45,0,12,,,,,,,,,11,,,,65,0
61070,note_on,45,0,13,,,,,,,,,12,,,,58,0
61074,note_on,45,0,15,,,,,,,,,14,,,,38,0
61079,control_change,16,0,14,,,,,,,,,13,11,57,,,
61080,set_tempo,60,1,0,,,,,,1500000,,,,,,,,
61095,control_change,16,0,14,,,,,,,,,13,11,57,,,
61111,control_change,16,0,14,,,,,,,,,13,11,56,,,
61127,control_change,16,0,14,,,,,,,,,13,11,55,,,
61140,set_tempo,60,1,0,,,,,,1379310,,,,,,,,
61143,control_change,16,0,14,,,,,,,,,13,11,54,,,
61147,note_on,0,0,14,,,,,,,,,13,,,,63,112
61147,note_on,4,0,14,,,,,,,,,13,,,,65,0
61159,control_change,12,0,14,,,,,,,,,13,11,53,,,
61175,control_change,16,0,14,,,,,,,,,13,11,52,,,
61177,note_on,2,0,14,,,,,,,,,13,,,,63,0
61177,note_on,0,0,14,,,,,,,,,13,,,,62,112
61191,control_change,14,0,14,,,,,,,,,13,11,51,,,
61200,set_tempo,60,1,0,,,,,,1518987,,,,,,,,
61200,note_on,135,0,11,,,,,,,,,10,,,,72,42
61202,note_on,11,0,14,,,,,,,,,13,,,,62,0
61202,note_on,135,0,12,,,,,,,,,11,,,,65,49
61205,note_on,135,0,13,,,,,,,,,12,,,,57,49
61207,note_on,0,0,14,,,,,,,,,13,,,,60,112
61207,control_change,5,0,14,,,,,,,,,13,11,50,,,
61209,note_on,135,0,15,,,,,,,,,14,,,,39,49
61245,note_on,45,0,11,,,,,,,,,10,,,,72,0
61247,note_on,45,0,12,,,,,,,,,11,,,,65,0
61250,note_on,45,0,13,,,,,,,,,12,,,,57,0
61254,note_on,45,0,15,,,,,,,,,14,,,,39,0
61260,set_tempo,60,1,0,,,,,,1395349,,,,,,,,
61260,note_on,15,0,11,,,,,,,,,10,,,,72,42
61262,note_on,15,0,12,,,,,,,,,11,,,,65,49
61265,note_on,15,0,13,,,,,,,,,12,,,,57,49
61269,note_on,15,0,15,,,,,,,,,14,,,,39,49
61305,note_on,45,0,11,,,,,,,,,10,,,,72,0
61307,note_on,45,0,12,,,,,,,,,11,,,,65,0
61310,note_on,45,0,13,,,,,,,,,12,,,,57,0
61314,note_on,45,0,15,,,,,,,,,14,,,,39,0
61320,set_tempo,60,1,0,,,,,,1500000,,,,,,,,
61327,note_on,0,0,14,,,,,,,,,13,,,,63,112
61327,note_on,120,0,14,,,,,,,,,13,,,,60,0
61327,control_change,0,0,14,,,,,,,,,13,11,50,,,
61337,note_on,0,0,14,,,,,,,,,13,,,,62,112
61337,note_on,10,0,14,,,,,,,,,13,,,,63,0
61343,control_change,6,0,14,,,,,,,,,13,11,52,,,
61359,control_change,16,0,14,,,,,,,,,13,11,54,,,
61372,note_on,13,0,14,,,,,,,,,13,,,,62,0
61372,note_on,0,0,14,,,,,,,,,13,,,,60,112
61375,control_change,3,0,14,,,,,,,,,13,11,56,,,
61380,set_tempo,60,1,0,,,,,,1379310,,,,,,,,
61387,note_on,12,0,14,,,,,,,,,13,,,,60,0
61387,note_on,0,0,14,,,,,,,,,13,,,,62,112
61391,control_change,4,0,14,,,,,,,,,13,11,57,,,
61407,control_change,16,0,14,,,,,,,,,13,11,59,,,
61423,control_change,16,0,14,,,,,,,,,13,11,61,,,
61432,note_on,0,0,14,,,,,,,,,13,,,,63,112
61432,note_on,9,0,14,,,,,,,,,13,,,,62,0
61439,control_change,7,0,14,,,,,,,,,13,11,63,,,
61440,set_tempo,60,1,0,,,,,,1518987,,,,,,,,
61440,note_on,135,0,11,,,,,,,,,10,,,,74,42
61442,note_on,3,0,14,,,,,,,,,13,,,,63,0
61442,note_on,135,0,12,,,,,,,,,11,,,,65,49
61445,note_on,135,0,13,,,,,,,,,12,,,,58,49
61447,note_on,5,0,14,,,,,,,,,13,,,,65,112
61449,note_on,135,0,15,,,,,,,,,14,,,,38,49
61463,control_change,16,0,14,,,,,,,,,13,11,63,,,
61479,control_change,16,0,14,,,,,,,,,13,11,62,,,
61485,note_on,45,0,11,,,,,,,,,10,,,,74,0
61487,note_on,45,0,12,,,,,,,,,11,,,,65,0
61490,note_on,45,0,13,,,,,,,,,12,,,,58,0
61494,note_on,45,0,15,,,,,,,,,14,,,,38,0
61495,control_change,16,0,14,,,,,,,,,13,11,61,,,
61500,set_tempo,60,1,0,,,,,,1395349,,,,,,,,
61500,note_on,15,0,11,,,,,,,,,10,,,,74,42
61502,note_on,15,0,12,,,,,,,,,11,,,,65,49
61505,note_on,15,0,13,,,,,,,,,12,,,,58,49
61509,note_on,15,0,15,,,,,,,,,14,,,,38,49
61511,control_change,16,0,14,,,,,,,,,13,11,60,,,
61527,control_change,16,0,14,,,,,,,,,13,11,59,,,
61543,control_change,16,0,14,,,,,,,,,13,11,58,,,
61545,note_on,45,0,11,,,,,,,,,10,,,,74,0
61547,note_on,45,0,12,,,,,,,,,11,,,,65,0
61550,note_on,45,0,13,,,,,,,,,12,,,,58,0
61554,note_on,45,0,15,,,,,,,,,14,,,,38,0
61559,control_change,16,0,14,,,,,,,,,13,11,57,,,
61560,set_tempo,60,1,0,,,,,,1500000,,,,,,,,
61575,control_change,16,0,14,,,,,,,,,13,11,57,,,
61591,control_change,16,0,14,,,,,,,,,13,11,56,,,
61607,control_change,16,0,14,,,,,,,,,13,11,55,,,
61620,set_tempo,60,1,0,,,,,,1379310,,,,,,,,
61623,control_change,16,0,14,,,,,,,,,13,11,54,,,
61624,note_on,1,0,14,,,,,,,,,13,,,,65,0
61627,note_on,3,0,14,,,,,,,,,13,,,,65,112
61639,control_change,12,0,14,,,,,,,,,13,11,53,,,
61655,control_change,16,0,14,,,,,,,,,13,11,52,,,
61671,control_change,16,0,14,,,,,,,,,13,11,51,,,
61680,note_on,135,0,11,,,,,,,,,10,,,,71,42
61680,set_tempo,60,1,0,,,,,,1558442,,,,,,,,
61682,control_change,0,0,2,,,,,,,,,1,11,52,,,
61682,note_on,1860,0,2,,,,,,,,,1,,,,71,100
61682,note_on,135,0,12,,,,,,,,,11,,,,64,49
61685,note_on,135,0,13,,,,,,,,,12,,,,56,49
61687,control_change,0,0,14,,,,,,,,,13,11,50,,,
61687,note_on,0,0,14,,,,,,,,,13,,,,64,112
61687,note_on,16,0,14,,,,,,,,,13,,,,65,0
61689,note_on,135,0,15,,,,,,,,,14,,,,38,49
61711,control_change,24,0,14,,,,,,,,,13,11,52,,,
61725,note_on,45,0,11,,,,,,,,,10,,,,71,0
61727,note_on,45,0,12,,,,,,,,,11,,,,64,0
61730,note_on,45,0,13,,,,,,,,,12,,,,56,0
61734,note_on,45,0,15,,,,,,,,,14,,,,38,0
61735,control_change,24,0,14,,,,,,,,,13,11,54,,,
61740,set_tempo,60,1,0,,,,,,1428571,,,,,,,,
61740,note_on,15,0,11,,,,,,,,,10,,,,71,42
61742,note_on,15,0,12,,,,,,,,,11,,,,64,49
61745,note_on,15,0,13,,,,,,,,,12,,,,56,49
61749,note_on,15,0,15,,,,,,,,,14,,,,38,49
61759,control_change,24,0,14,,,,,,,,,13,11,56,,,
61783,control_change,24,0,14,,,,,,,,,13,11,57,,,
61785,note_on,45,0,11,,,,,,,,,10,,,,71,0
61787,note_on,45,0,12,,,,,,,,,11,,,,64,0
61790,note_on,45,0,13,,,,,,,,,12,,,,56,0
61794,note_on,45,0,15,,,,,,,,,14,,,,38,0
61797,note_on,115,0,2,,,,,,,,,1,,,,71,0
61800,set_tempo,60,1,0,,,,,,1558442,,,,,,,,
61802,control_change,0,0,2,,,,,,,,,1,11,52,,,
61802,note_on,5,0,2,,,,,,,,,1,,,,74,100
61807,control_change,24,0,14,,,,,,,,,13,11,59,,,
61812,note_on,0,0,2,,,,,,,,,1,,,,72,100
61812,note_on,10,0,2,,,,,,,,,1,,,,74,0
61818,control_change,6,0,2,,,,,,,,,1,11,54,,,
61831,control_change,24,0,14,,,,,,,,,13,11,61,,,
61834,control_change,16,0,2,,,,,,,,,1,11,56,,,
61847,note_on,0,0,2,,,,,,,,,1,,,,71,100
61847,note_on,13,0,2,,,,,,,,,1,,,,72,0
61850,control_change,3,0,2,,,,,,,,,1,11,57,,,
61855,control_change,24,0,14,,,,,,,,,13,11,63,,,
61860,set_tempo,60,1,0,,,,,,1445783,,,,,,,,
61862,note_on,0,0,2,,,,,,,,,1,,,,72,100
61862,note_on,12,0,2,,,,,,,,,1,,,,71,0
61866,control_change,4,0,2,,,,,,,,,1,11,59,,,
61879,control_change,24,0,14,,,,,,,,,13,11,65,,,
61882,control_change,16,0,2,,,,,,,,,1,11,60,,,
61898,control_change,16,0,2,,,,,,,,,1,11,62,,,
61903,control_change,24,0,14,,,,,,,,,13,11,67,,,
61907,note_on,9,0,2,,,,,,,,,1,,,,72,0
61907,note_on,0,0,2,,,,,,,,,1,,,,74,100
61914,control_change,7,0,2,,,,,,,,,1,11,63,,,
61917,note_on,3,0,2,,,,,,,,,1,,,,74,0
61920,set_tempo,60,1,0,,,,,,1518987,,,,,,,,
61922,set_tempo,2,1,0,,,,,,1578947,,,,,,,,
61922,note_on,5,0,2,,,,,,,,,1,,,,76,100
61927,control_change,24,0,14,,,,,,,,,13,11,69,,,
61929,note_on,135,0,15,,,,,,,,,14,,,,36,49
61936,control_change,14,0,2,,,,,,,,,1,11,63,,,
61957,note_on,0,0,14,,,,,,,,,13,,,,69,112
61957,control_change,0,0,14,,,,,,,,,13,11,69,,,
61957,note_on,30,0,14,,,,,,,,,13,,,,64,0
61964,control_change,28,0,2,,,,,,,,,1,11,62,,,
61980,set_tempo,58,1,0,,,,,,1463415,,,,,,,,
61980,note_on,195,0,11,,,,,,,,,10,,,,76,49
61981,control_change,24,0,14,,,,,,,,,13,11,67,,,
61982,note_on,195,0,12,,,,,,,,,11,,,,64,49
61982,note_on,0,0,12,,,,,,,,,11,,,,72,49
61985,note_on,195,0,13,,,,,,,,,12,,,,57,49
61987,note_on,0,0,14,,,,,,,,,13,,,,64,112
61987,note_on,6,0,14,,,,,,,,,13,,,,69,0
61989,note_on,60,0,15,,,,,,,,,14,,,,36,0
61992,control_change,28,0,2,,,,,,,,,1,11,60,,,
62005,control_change,18,0,14,,,,,,,,,13,11,65,,,
62017,note_on,12,0,14,,,,,,,,,13,,,,64,0
62017,note_on,0,0,14,,,,,,,,,13,,,,60,112
62020,control_change,28,0,2,,,,,,,,,1,11,59,,,
62029,control_change,12,0,14,,,,,,,,,13,11,63,,,
62040,note_on,60,0,11,,,,,,,,,10,,,,76,0
62040,set_tempo,60,1,0,,,,,,1558442,,,,,,,,
62042,note_on,0,0,12,,,,,,,,,11,,,,64,0
62042,note_on,60,0,12,,,,,,,,,11,,,,72,0
62045,note_on,60,0,13,,,,,,,,,12,,,,57,0
62047,note_on,18,0,14,,,,,,,,,13,,,,60,0
62047,note_on,0,0,14,,,,,,,,,13,,,,58,112
62048,control_change,28,0,2,,,,,,,,,1,11,57,,,
62049,note_on,60,0,15,,,,,,,,,14,,,,38,49
62053,control_change,6,0,14,,,,,,,,,13,11,61,,,
62067,note_on,19,0,2,,,,,,,,,1,,,,76,0
62072,note_on,5,0,2,,,,,,,,,1,,,,77,100
62076,control_change,4,0,2,,,,,,,,,1,11,56,,,
62077,note_on,0,0,14,,,,,,,,,13,,,,62,112
62077,control_change,0,0,14,,,,,,,,,13,11,59,,,
62077,note_on,24,0,14,,,,,,,,,13,,,,58,0
62100,note_on,60,0,11,,,,,,,,,10,,,,74,49
62100,set_tempo,60,1,0,,,,,,1481481,,,,,,,,
62101,control_change,24,0,14,,,,,,,,,13,11,57,,,
62102,note_on,26,0,2,,,,,,,,,1,,,,77,0
62102,note_on,60,0,12,,,,,,,,,11,,,,70,49
62102,note_on,0,0,2,,,,,,,,,1,,,,74,100
62104,control_change,2,0,2,,,,,,,,,1,11,54,,,
62105,note_on,60,0,13,,,,,,,,,12,,,,65,49
62107,note_on,0,0,14,,,,,,,,,13,,,,65,112
62107,note_on,6,0,14,,,,,,,,,13,,,,62,0
62109,note_on,60,0,15,,,,,,,,,14,,,,38,0
62125,control_change,18,0,14,,,,,,,,,13,11,56,,,
62132,note_on,28,0,2,,,,,,,,,1,,,,74,0
62132,note_on,0,0,2,,,,,,,,,1,,,,70,100
62132,control_change,0,0,2,,,,,,,,,1,11,52,,,
62137,note_on,0,0,14,,,,,,,,,13,,,,62,112
62137,note_on,12,0,14,,,,,,,,,13,,,,65,0
62157,note_on,25,0,2,,,,,,,,,1,,,,70,0
62160,note_on,60,0,11,,,,,,,,,10,,,,74,0
62160,set_tempo,60,1,0,,,,,,1578947,,,,,,,,
62162,note_on,5,0,2,,,,,,,,,1,,,,69,100
62162,note_on,60,0,12,,,,,,,,,11,,,,70,0
62162,note_on,25,0,14,,,,,,,,,13,,,,62,0
62165,note_on,60,0,13,,,,,,,,,12,,,,65,0
62167,note_on,5,0,14,,,,,,,,,13,,,,60,112
62169,note_on,60,0,15,,,,,,,,,14,,,,40,49
62220,note_on,60,0,11,,,,,,,,,10,,,,72,49
62220,set_tempo,60,1,0,,,,,,1500000,,,,,,,,
62222,note_on,60,0,12,,,,,,,,,11,,,,69,49
62225,note_on,60,0,13,,,,,,,,,12,,,,64,49
62229,note_on,60,0,15,,,,,,,,,14,,,,40,0
62280,set_tempo,60,1,0,,,,,,1600000,,,,,,,,
62280,note_on,60,0,11,,,,,,,,,10,,,,72,0
62282,note_on,120,0,2,,,,,,,,,1,,,,69,0
62282,note_on,60,0,12,,,,,,,,,11,,,,69,0
62282,note_on,0,0,2,,,,,,,,,1,,,,68,100
62285,note_on,60,0,13,,,,,,,,,12,,,,64,0
62287,note_on,120,0,14,,,,,,,,,13,,,,60,0
62287,note_on,0,0,14,,,,,,,,,13,,,,59,112
62289,note_on,60,0,15,,,,,,,,,14,,,,40,49
62340,note_on,60,0,11,,,,,,,,,10,,,,71,49
62340,set_tempo,60,1,0,,,,,,1500000,,,,,,,,
62342,note_on,60,0,12,,,,,,,,,11,,,,68,49
62345,note_on,60,0,13,,,,,,,,,12,,,,64,49
62347,control_change,60,0,14,,,,,,,,,13,11,55,,,
62349,note_on,60,0,15,,,,,,,,,14,,,,40,0
62359,control_change,12,0,14,,,,,,,,,13,11,52,,,
62370,set_tempo,30,1,0,,,,,,1818182,,,,,,,,
62371,control_change,12,0,14,,,,,,,,,13,11,49,,,
62383,control_change,12,0,14,,,,,,,,,13,11,46,,,
62385,set_tempo,15,1,0,,,,,,2222222,,,,,,,,
62395,control_change,12,0,14,,,,,,,,,13,11,43,,,
62397,note_on,2,0,14,,,,,,,,,13,,,,59,0
62400,note_on,0,0,11,,,,,,,,,10,,,,72,41
62400,set_tempo,15,1,0,,,,,,1481481,,,,,,,,
62400,note_on,60,0,11,,,,,,,,,10,,,,71,0
62402,note_on,0,0,12,,,,,,,,,11,,,,65,49
62402,control_change,0,0,2,,,,,,,,,1,11,52,,,
62402,note_on,0,0,2,,,,,,,,,1,,,,69,100
62402,note_on,120,0,2,,,,,,,,,1,,,,68,0
62402,note_on,60,0,12,,,,,,,,,11,,,,68,0
62405,note_on,0,0,13,,,,,,,,,12,,,,57,49
62405,note_on,60,0,13,,,,,,,,,12,,,,64,0
62407,note_on,10,0,14,,,,,,,,,13,,,,60,112
62409,note_on,60,0,15,,,,,,,,,14,,,,39,49
62414,control_change,12,0,2,,,,,,,,,1,11,49,,,
62422,control_change,15,0,14,,,,,,,,,13,11,43,,,
62426,control_change,12,0,2,,,,,,,,,1,11,46,,,
62438,control_change,16,0,14,,,,,,,,,13,11,46,,,
62438,control_change,12,0,2,,,,,,,,,1,11,43,,,
62450,control_change,12,0,2,,,,,,,,,1,11,40,,,
62453,control_change,15,0,14,,,,,,,,,13,11,49,,,
62460,note_on,60,0,11,,,,,,,,,10,,,,72,0
62460,set_tempo,60,1,0,,,,,,1363636,,,,,,,,
62460,note_on,0,0,11,,,,,,,,,10,,,,72,41
62462,control_change,0,0,2,,,,,,,,,1,11,37,,,
62462,note_on,60,0,12,,,,,,,,,11,,,,65,0
62462,note_on,0,0,12,,,,,,,,,11,,,,65,49
62462,note_on,12,0,2,,,,,,,,,1,,,,69,0
62465,note_on,60,0,13,,,,,,,,,12,,,,57,0
62465,note_on,0,0,13,,,,,,,,,12,,,,57,49
62469,note_on,0,0,15,,,,,,,,,14,,,,39,49
62469,control_change,16,0,14,,,,,,,,,13,11,52,,,
62469,note_on,60,0,15,,,,,,,,,14,,,,39,0
62485,control_change,16,0,14,,,,,,,,,13,11,55,,,
62500,control_change,15,0,14,,,,,,,,,13,11,57,,,
62516,control_change,16,0,14,,,,,,,,,13,11,60,,,
62520,note_on,60,0,11,,,,,,,,,10,,,,72,0
62520,set_tempo,60,1,0,,,,,,1500000,,,,,,,,
62521,control_change,2700,0,5,,,,,,,,,4,11,27,,,
62521,note_on,0,0,5,,,,,,,,,4,,,,65,115
62522,note_on,60,0,12,,,,,,,,,11,,,,65,0
62522,control_change,2700,0,3,,,,,,,,,2,11,27,,,
62522,note_on,0,0,3,,,,,,,,,2,,,,69,116
62522,note_on,0,0,3,,,,,,,,,2,,,,77,116
62523,note_on,0,0,6,,,,,,,,,5,,,,60,115
62523,control_change,2700,0,6,,,,,,,,,5,11,27,,,
62525,note_on,60,0,13,,,,,,,,,12,,,,57,0
62527,control_change,2700,0,4,,,,,,,,,3,11,27,,,
62527,note_on,0,0,4,,,,,,,,,3,,,,53,115
62527,note_on,0,0,4,,,,,,,,,3,,,,51,115
62527,note_on,0,0,14,,,,,,,,,13,,,,63,112
62527,note_on,11,0,14,,,,,,,,,13,,,,60,0
62529,note_on,60,0,15,,,,,,,,,14,,,,39,0
62533,control_change,12,0,5,,,,,,,,,4,11,31,,,
62534,control_change,12,0,3,,,,,,,,,2,11,31,,,
62535,control_change,8,0,14,,,,,,,,,13,11,62,,,
62535,control_change,12,0,6,,,,,,,,,5,11,31,,,
62537,note_on,2,0,14,,,,,,,,,13,,,,63,0
62537,note_on,0,0,14,,,,,,,,,13,,,,62,112
62539,control_change,12,0,4,,,,,,,,,3,11,31,,,
62542,control_change,9,0,5,,,,,,,,,4,11,34,,,
62543,control_change,9,0,3,,,,,,,,,2,11,34,,,
62544,control_change,9,0,6,,,,,,,,,5,11,34,,,
62548,control_change,9,0,4,,,,,,,,,3,11,34,,,
62551,control_change,14,0,14,,,,,,,,,13,11,63,,,
62551,control_change,9,0,5,,,,,,,,,4,11,37,,,
62552,control_change,9,0,3,,,,,,,,,2,11,37,,,
62553,control_change,9,0,6,,,,,,,,,5,11,37,,,
62557,control_change,9,0,4,,,,,,,,,3,11,37,,,
62564,note_on,12,0,3,,,,,,,,,2,,,,77,0
62564,note_on,0,0,3,,,,,,,,,2,,,,69,0
62567,control_change,16,0,14,,,,,,,,,13,11,64,,,
62569,note_on,18,0,5,,,,,,,,,4,,,,65,0
62569,note_on,0,0,4,,,,,,,,,3,,,,53,0
62569,note_on,12,0,4,,,,,,,,,3,,,,51,0
62571,note_on,18,0,6,,,,,,,,,5,,,,60,0
62572,note_on,0,0,14,,,,,,,,,13,,,,60,112
62572,note_on,5,0,14,,,,,,,,,13,,,,62,0
62580,set_tempo,60,1,0,,,,,,1363636,,,,,,,,
62581,note_on,12,0,5,,,,,,,,,4,,,,65,100
62582,note_on,18,0,3,,,,,,,,,2,,,,69,101
62582,note_on,0,0,3,,,,,,,,,2,,,,77,101
62583,note_on,12,0,6,,,,,,,,,5,,,,60,100
62583,control_change,11,0,14,,,,,,,,,13,11,65,,,
62587,note_on,0,0,4,,,,,,,,,3,,,,51,100
62587,note_on,18,0,4,,,,,,,,,3,,,,53,100
62587,note_on,4,0,14,,,,,,,,,13,,,,60,0
62587,note_on,0,0,14,,,,,,,,,13,,,,62,112
62599,control_change,12,0,14,,,,,,,,,13,11,66,,,
62615,control_change,16,0,14,,,,,,,,,13,11,67,,,
62624,note_on,42,0,3,,,,,,,,,2,,,,77,0
62624,note_on,0,0,3,,,,,,,,,2,,,,69,0
62629,note_on,48,0,5,,,,,,,,,4,,,,65,0
62629,note_on,42,0,4,,,,,,,,,3,,,,51,0
62629,note_on,0,0,4,,,,,,,,,3,,,,53,0
62631,control_change,16,0,14,,,,,,,,,13,11,68,,,
62631,note_on,48,0,6,,,,,,,,,5,,,,60,0
62632,note_on,0,0,14,,,,,,,,,13,,,,63,112
62632,note_on,1,0,14,,,,,,,,,13,,,,62,0
62640,note_on,120,0,11,,,,,,,,,10,,,,74,41
62640,set_tempo,60,1,0,,,,,,1481481,,,,,,,,
62642,note_on,120,0,12,,,,,,,,,11,,,,65,49
62645,note_on,120,0,13,,,,,,,,,12,,,,58,49
62647,control_change,0,0,14,,,,,,,,,13,11,69,,,
62647,note_on,0,0,14,,,,,,,,,13,,,,67,112
62647,note_on,15,0,14,,,,,,,,,13,,,,63,0
62649,note_on,120,0,15,,,,,,,,,14,,,,38,49
62663,control_change,16,0,14,,,,,,,,,13,11,68,,,
62679,control_change,16,0,14,,,,,,,,,13,11,67,,,
62695,control_change,16,0,14,,,,,,,,,13,11,66,,,
62700,note_on,0,0,11,,,,,,,,,10,,,,74,41
62700,note_on,60,0,11,,,,,,,,,10,,,,74,0
62700,set_tempo,60,1,0,,,,,,1363636,,,,,,,,
62702,note_on,0,0,12,,,,,,,,,11,,,,65,49
62702,note_on,60,0,12,,,,,,,,,11,,,,65,0
62705,note_on,60,0,13,,,,,,,,,12,,,,58,0
62705,note_on,0,0,13,,,,,,,,,12,,,,58,49
62707,note_on,0,0,14,,,,,,,,,13,,,,65,112
62707,note_on,12,0,14,,,,,,,,,13,,,,67,0
62709,note_on,60,0,15,,,,,,,,,14,,,,38,0
62709,note_on,0,0,15,,,,,,,,,14,,,,38,49
62711,control_change,4,0,14,,,,,,,,,13,11,65,,,
62727,control_change,16,0,14,,,,,,,,,13,11,64,,,
62743,control_change,16,0,14,,,,,,,,,13,11,63,,,
62759,control_change,16,0,14,,,,,,,,,13,11,62,,,
62760,set_tempo,60,1,0,,,,,,1500000,,,,,,,,
62760,note_on,60,0,11,,,,,,,,,10,,,,74,0
62761,note_on,132,0,5,,,,,,,,,4,,,,65,115
62762,note_on,0,0,3,,,,,,,,,2,,,,77,116
62762,note_on,60,0,12,,,,,,,,,11,,,,65,0
62762,note_on,138,0,3,,,,,,,,,2,,,,70,116
62763,note_on,132,0,6,,,,,,,,,5,,,,62,115
62765,note_on,60,0,13,,,,,,,,,12,,,,58,0
62767,note_on,0,0,4,,,,,,,,,3,,,,53,115
62767,note_on,138,0,4,,,,,,,,,3,,,,50,115
62769,note_on,60,0,15,,,,,,,,,14,,,,38,0
62775,control_change,16,0,14,,,,,,,,,13,11,61,,,
62791,control_change,16,0,14,,,,,,,,,13,11,60,,,
62804,note_on,42,0,3,,,,,,,,,2,,,,77,0
62804,note_on,0,0,3,,,,,,,,,2,,,,70,0
62807,control_change,16,0,14,,,,,,,,,13,11,59,,,
62809,note_on,42,0,4,,,,,,,,,3,,,,53,0
62809,note_on,0,0,4,,,,,,,,,3,,,,50,0
62809,note_on,48,0,5,,,,,,,,,4,,,,65,0
62811,note_on,48,0,6,,,,,,,,,5,,,,62,0
62820,set_tempo,60,1,0,,,,,,1363636,,,,,,,,
62821,note_on,12,0,5,,,,,,,,,4,,,,65,100
62822,note_on,0,0,3,,,,,,,,,2,,,,77,101
62822,note_on,18,0,3,,,,,,,,,2,,,,70,101
62823,control_change,16,0,14,,,,,,,,,13,11,58,,,
62823,note_on,12,0,6,,,,,,,,,5,,,,62,100
62827,note_on,18,0,4,,,,,,,,,3,,,,50,100
62827,note_on,0,0,14,,,,,,,,,13,,,,63,112
62827,note_on,4,0,14,,,,,,,,,13,,,,65,0
62827,note_on,0,0,4,,,,,,,,,3,,,,53,100
62839,control_change,12,0,14,,,,,,,,,13,11,57,,,
62855,control_change,16,0,14,,,,,,,,,13,11,57,,,
62857,note_on,2,0,14,,,,,,,,,13,,,,63,0
62857,note_on,0,0,14,,,,,,,,,13,,,,62,112
62864,note_on,42,0,3,,,,,,,,,2,,,,77,0
62864,note_on,0,0,3,,,,,,,,,2,,,,70,0
62869,note_on,0,0,4,,,,,,,,,3,,,,50,0
62869,note_on,42,0,4,,,,,,,,,3,,,,53,0
62869,note_on,48,0,5,,,,,,,,,4,,,,65,0
62871,control_change,14,0,14,,,,,,,,,13,11,56,,,
62871,note_on,48,0,6,,,,,,,,,5,,,,62,0
62880,note_on,120,0,11,,,,,,,,,10,,,,72,41
62880,set_tempo,60,1,0,,,,,,1481481,,,,,,,,
62882,note_on,11,0,14,,,,,,,,,13,,,,62,0
62882,note_on,120,0,12,,,,,,,,,11,,,,65,49
62885,note_on,120,0,13,,,,,,,,,12,,,,57,49
62887,note_on,0,0,14,,,,,,,,,13,,,,62,112
62887,control_change,5,0,14,,,,,,,,,13,11,55,,,
62889,note_on,120,0,15,,,,,,,,,14,,,,39,49
62940,note_on,0,0,11,,,,,,,,,10,,,,72,41
62940,note_on,60,0,11,,,,,,,,,10,,,,72,0
62940,set_tempo,60,1,0,,,,,,1363636,,,,,,,,
62942,note_on,60,0,12,,,,,,,,,11,,,,65,0
62942,note_on,0,0,12,,,,,,,,,11,,,,65,49
62945,note_on,60,0,13,,,,,,,,,12,,,,57,0
62945,note_on,0,0,13,,,,,,,,,12,,,,57,49
62947,note_on,60,0,14,,,,,,,,,13,,,,62,0
62947,note_on,0,0,14,,,,,,,,,13,,,,60,112
62949,note_on,0,0,15,,,,,,,,,14,,,,39,49
62949,note_on,60,0,15,,,,,,,,,14,,,,39,0
63000,set_tempo,60,1,0,,,,,,1500000,,,,,,,,
63000,note_on,60,0,11,,,,,,,,,10,,,,72,0
63001,note_on,132,0,5,,,,,,,,,4,,,,65,115
63002,note_on,60,0,12,,,,,,,,,11,,,,65,0
63002,note_on,55,0,14,,,,,,,,,13,,,,60,0
63002,note_on,0,0,3,,,,,,,,,2,,,,69,116
63002,note_on,138,0,3,,,,,,,,,2,,,,77,116
63003,note_on,132,0,6,,,,,,,,,5,,,,60,115
63005,note_on,60,0,13,,,,,,,,,12,,,,57,0
63007,control_change,5,0,14,,,,,,,,,13,11,55,,,
63007,note_on,138,0,4,,,,,,,,,3,,,,53,115
63007,note_on,0,0,4,,,,,,,,,3,,,,51,115
63007,note_on,0,0,14,,,,,,,,,13,,,,63,112
63009,note_on,60,0,15,,,,,,,,,14,,,,39,0
63017,note_on,0,0,14,,,,,,,,,13,,,,62,112
63017,note_on,10,0,14,,,,,,,,,13,,,,63,0
63023,control_change,6,0,14,,,,,,,,,13,11,57,,,
63039,control_change,16,0,14,,,,,,,,,13,11,58,,,
63044,note_on,42,0,3,,,,,,,,,2,,,,69,0
63044,note_on,0,0,3,,,,,,,,,2,,,,77,0
63049,note_on,42,0,4,,,,,,,,,3,,,,51,0
63049,note_on,0,0,4,,,,,,,,,3,,,,53,0
63049,note_on,48,0,5,,,,,,,,,4,,,,65,0
63051,note_on,48,0,6,,,,,,,,,5,,,,60,0
63052,note_on,13,0,14,,,,,,,,,13,,,,62,0
63052,note_on,0,0,14,,,,,,,,,13,,,,60,112
63055,control_change,3,0,14,,,,,,,,,13,11,60,,,
63060,set_tempo,60,1,0,,,,,,1363636,,,,,,,,
63061,note_on,12,0,5,,,,,,,,,4,,,,65,100
63062,note_on,0,0,3,,,,,,,,,2,,,,69,101
63062,note_on,18,0,3,,,,,,,,,2,,,,77,101
63063,note_on,12,0,6,,,,,,,,,5,,,,60,100
63067,note_on,0,0,4,,,,,,,,,3,,,,51,100
63067,note_on,12,0,14,,,,,,,,,13,,,,60,0
63067,note_on,0,0,14,,,,,,,,,13,,,,62,112
63067,note_on,18,0,4,,,,,,,,,3,,,,53,100
63071,control_change,4,0,14,,,,,,,,,13,11,62,,,
63087,control_change,16,0,14,,,,,,,,,13,11,64,,,
63103,control_change,16,0,14,,,,,,,,,13,11,66,,,
63104,note_on,0,0,3,,,,,,,,,2,,,,77,0
63104,note_on,42,0,3,,,,,,,,,2,,,,69,0
63109,note_on,0,0,4,,,,,,,,,3,,,,53,0
63109,note_on,48,0,5,,,,,,,,,4,,,,65,0
63109,note_on,42,0,4,,,,,,,,,3,,,,51,0
63111,note_on,48,0,6,,,,,,,,,5,,,,60,0
63112,note_on,9,0,14,,,,,,,,,13,,,,62,0
63112,note_on,0,0,14,,,,,,,,,13,,,,63,112
63119,control_change,7,0,14,,,,,,,,,13,11,68,,,
63120,note_on,120,0,11,,,,,,,,,10,,,,74,41
63120,set_tempo,60,1,0,,,,,,1500000,,,,,,,,
63122,note_on,120,0,12,,,,,,,,,11,,,,65,49
63122,note_on,3,0,14,,,,,,,,,13,,,,63,0
63125,note_on,120,0,13,,,,,,,,,12,,,,58,49
63127,note_on,5,0,14,,,,,,,,,13,,,,65,112
63129,note_on,120,0,15,,,,,,,,,14,,,,38,49
63143,control_change,16,0,14,,,,,,,,,13,11,68,,,
63159,control_change,16,0,14,,,,,,,,,13,11,67,,,
63175,control_change,16,0,14,,,,,,,,,13,11,66,,,
63180,note_on,0,0,11,,,,,,,,,10,,,,74,41
63180,note_on,60,0,11,,,,,,,,,10,,,,74,0
63180,set_tempo,60,1,0,,,,,,1363636,,,,,,,,
63182,note_on,0,0,12,,,,,,,,,11,,,,65,49
63182,note_on,60,0,12,,,,,,,,,11,,,,65,0
63185,note_on,0,0,13,,,,,,,,,12,,,,58,49
63185,note_on,60,0,13,,,,,,,,,12,,,,58,0
63189,note_on,60,0,15,,,,,,,,,14,,,,38,0
63189,note_on,0,0,15,,,,,,,,,14,,,,38,49
63191,control_change,16,0,14,,,,,,,,,13,11,65,,,
63207,control_change,16,0,14,,,,,,,,,13,11,64,,,
63223,control_change,16,0,14,,,,,,,,,13,11,63,,,
63239,control_change,16,0,14,,,,,,,,,13,11,62,,,
63240,note_on,60,0,11,,,,,,,,,10,,,,74,0
63240,set_tempo,60,1,0,,,,,,1500000,,,,,,,,
63241,note_on,132,0,5,,,,,,,,,4,,,,65,115
63242,note_on,60,0,12,,,,,,,,,11,,,,65,0
63242,note_on,138,0,3,,,,,,,,,2,,,,70,116
63242,note_on,0,0,3,,,,,,,,,2,,,,77,116
63243,note_on,132,0,6,,,,,,,,,5,,,,62,115
63245,note_on,60,0,13,,,,,,,,,12,,,,58,0
63247,note_on,0,0,4,,,,,,,,,3,,,,53,115
63247,note_on,138,0,4,,,,,,,,,3,,,,50,115
63249,note_on,60,0,15,,,,,,,,,14,,,,38,0
63255,control_change,16,0,14,,,,,,,,,13,11,61,,,
63271,control_change,16,0,14,,,,,,,,,13,11,60,,,
63284,note_on,42,0,3,,,,,,,,,2,,,,77,0
63284,note_on,0,0,3,,,,,,,,,2,,,,70,0
63287,control_change,16,0,14,,,,,,,,,13,11,59,,,
63289,note_on,48,0,5,,,,,,,,,4,,,,65,0
63289,note_on,0,0,4,,,,,,,,,3,,,,50,0
63289,note_on,42,0,4,,,,,,,,,3,,,,53,0
63291,note_on,48,0,6,,,,,,,,,5,,,,62,0
63300,set_tempo,60,1,0,,,,,,1363636,,,,,,,,
63301,note_on,12,0,5,,,,,,,,,4,,,,65,100
63302,note_on,0,0,3,,,,,,,,,2,,,,77,101
63302,note_on,18,0,3,,,,,,,,,2,,,,70,101
63303,control_change,0,0,14,,,,,,,,,13,11,58,,,
63303,note_on,16,0,14,,,,,,,,,13,,,,65,0
63303,note_on,12,0,6,,,,,,,,,5,,,,62,100
63307,note_on,0,0,4,,,,,,,,,3,,,,53,100
63307,note_on,18,0,4,,,,,,,,,3,,,,50,100
63307,note_on,4,0,14,,,,,,,,,13,,,,65,112
63319,control_change,12,0,14,,,,,,,,,13,11,57,,,
63330,set_tempo,30,1,0,,,,,,1666667,,,,,,,,
63335,control_change,16,0,14,,,,,,,,,13,11,57,,,
63344,note_on,42,0,3,,,,,,,,,2,,,,77,0
63344,note_on,0,0,3,,,,,,,,,2,,,,70,0
63349,note_on,48,0,5,,,,,,,,,4,,,,65,0
63349,note_on,0,0,4,,,,,,,,,3,,,,50,0
63349,note_on,42,0,4,,,,,,,,,3,,,,53,0
63351,note_on,48,0,6,,,,,,,,,5,,,,62,0
63351,control_change,16,0,14,,,,,,,,,13,11,56,,,
63360,note_on,120,0,11,,,,,,,,,10,,,,71,41
63360,set_tempo,30,1,0,,,,,,1500000,,,,,,,,
63362,note_on,0,0,2,,,,,,,,,1,,,,71,100
63362,control_change,900,0,2,,,,,,,,,1,11,52,,,
63362,note_on,120,0,12,,,,,,,,,11,,,,64,49
63365,note_on,120,0,13,,,,,,,,,12,,,,56,49
63367,note_on,0,0,14,,,,,,,,,13,,,,64,112
63367,note_on,16,0,14,,,,,,,,,13,,,,65,0
63367,control_change,0,0,14,,,,,,,,,13,11,55,,,
63369,note_on,120,0,15,,,,,,,,,14,,,,38,49
63420,set_tempo,60,1,0,,,,,,1379310,,,,,,,,
63420,note_on,60,0,11,,,,,,,,,10,,,,71,0
63420,note_on,0,0,11,,,,,,,,,10,,,,71,41
63422,note_on,60,0,12,,,,,,,,,11,,,,64,0
63422,note_on,0,0,12,,,,,,,,,11,,,,64,49
63425,note_on,0,0,13,,,,,,,,,12,,,,56,49
63425,note_on,60,0,13,,,,,,,,,12,,,,56,0
63429,note_on,60,0,15,,,,,,,,,14,,,,38,0
63429,note_on,0,0,15,,,,,,,,,14,,,,38,49
63480,note_on,60,0,11,,,,,,,,,10,,,,71,0
63480,set_tempo,60,1,0,,,,,,1500000,,,,,,,,
63481,note_on,132,0,5,,,,,,,,,4,,,,64,115
63482,note_on,0,0,2,,,,,,,,,1,,,,74,100
63482,note_on,120,0,2,,,,,,,,,1,,,,71,0
63482,note_on,60,0,12,,,,,,,,,11,,,,64,0
63482,note_on,0,0,3,,,,,,,,,2,,,,76,116
63482,note_on,138,0,3,,,,,,,,,2,,,,68,116
63483,note_on,132,0,6,,,,,,,,,5,,,,52,115
63485,note_on,60,0,13,,,,,,,,,12,,,,56,0
63487,note_on,138,0,4,,,,,,,,,3,,,,50,115
63487,note_on,0,0,4,,,,,,,,,3,,,,59,115
63489,note_on,60,0,15,,,,,,,,,14,,,,38,0
63492,note_on,0,0,2,,,,,,,,,1,,,,73,100
63492,note_on,10,0,2,,,,,,,,,1,,,,74,0
63510,note_on,0,0,3,,,,,,,,,2,,,,68,0
63510,note_on,28,0,3,,,,,,,,,2,,,,76,0
63512,note_on,0,0,2,,,,,,,,,1,,,,71,100
63512,note_on,20,0,2,,,,,,,,,1,,,,73,0
63515,note_on,0,0,4,,,,,,,,,3,,,,50,0
63515,note_on,28,0,4,,,,,,,,,3,,,,59,0
63529,note_on,48,0,5,,,,,,,,,4,,,,64,0
63531,note_on,48,0,6,,,,,,,,,5,,,,52,0
63540,set_tempo,60,1,0,,,,,,1395349,,,,,,,,
63541,note_on,12,0,5,,,,,,,,,4,,,,64,100
63542,note_on,30,0,2,,,,,,,,,1,,,,71,0
63542,note_on,0,0,3,,,,,,,,,2,,,,76,101
63542,note_on,0,0,2,,,,,,,,,1,,,,73,100
63542,note_on,32,0,3,,,,,,,,,2,,,,68,101
63543,note_on,12,0,6,,,,,,,,,5,,,,52,100
63547,note_on,32,0,4,,,,,,,,,3,,,,50,100
63547,note_on,0,0,4,,,,,,,,,3,,,,59,100
63570,note_on,0,0,3,,,,,,,,,2,,,,68,0
63570,note_on,28,0,3,,,,,,,,,2,,,,76,0
63572,note_on,0,0,2,,,,,,,,,1,,,,74,100
63572,note_on,30,0,2,,,,,,,,,1,,,,73,0
63575,note_on,28,0,4,,,,,,,,,3,,,,59,0
63575,note_on,0,0,4,,,,,,,,,3,,,,50,0
63589,note_on,48,0,5,,,,,,,,,4,,,,64,0
63591,note_on,48,0,6,,,,,,,,,5,,,,52,0
63597,note_on,25,0,2,,,,,,,,,1,,,,74,0
63600,note_on,120,0,11,,,,,,,,,10,,,,76,49
63600,set_tempo,60,1,0,,,,,,1500000,,,,,,,,
63602,note_on,5,0,2,,,,,,,,,1,,,,76,100
63602,note_on,120,0,12,,,,,,,,,11,,,,64,49
63602,control_change,0,0,2,,,,,,,,,1,11,52,,,
63605,note_on,120,0,13,,,,,,,,,12,,,,57,49
63609,note_on,120,0,15,,,,,,,,,14,,,,37,49
63620,control_change,18,0,2,,,,,,,,,1,11,55,,,
63637,note_on,270,0,14,,,,,,,,,13,,,,64,0
63637,note_on,0,0,14,,,,,,,,,13,,,,69,112
63637,control_change,0,0,14,,,,,,,,,13,11,55,,,
63638,control_change,18,0,2,,,,,,,,,1,11,57,,,
63655,control_change,18,0,14,,,,,,,,,13,11,57,,,
63656,control_change,18,0,2,,,,,,,,,1,11,60,,,
63660,note_on,60,0,11,,,,,,,,,10,,,,76,0
63660,set_tempo,60,1,0,,,,,,1411765,,,,,,,,
63661,note_on,72,0,5,,,,,,,,,4,,,,64,100
63662,note_on,60,0,12,,,,,,,,,11,,,,64,0
63662,note_on,92,0,3,,,,,,,,,2,,,,69,101
63662,note_on,0,0,3,,,,,,,,,2,,,,76,101
63663,note_on,72,0,6,,,,,,,,,5,,,,52,100
63665,note_on,60,0,13,,,,,,,,,12,,,,57,0
63667,note_on,12,0,14,,,,,,,,,13,,,,69,0
63667,note_on,0,0,14,,,,,,,,,13,,,,64,112
63667,note_on,92,0,4,,,,,,,,,3,,,,57,100
63667,note_on,0,0,4,,,,,,,,,3,,,,49,100
63669,note_on,60,0,15,,,,,,,,,14,,,,37,0
63673,control_change,6,0,14,,,,,,,,,13,11,60,,,
63674,control_change,18,0,2,,,,,,,,,1,11,62,,,
63691,control_change,18,0,14,,,,,,,,,13,11,63,,,
63691,note_on,30,0,5,,,,,,,,,4,,,,64,0
63692,note_on,0,0,3,,,,,,,,,2,,,,69,0
63692,control_change,18,0,2,,,,,,,,,1,11,64,,,
63692,note_on,30,0,3,,,,,,,,,2,,,,76,0
63693,note_on,30,0,6,,,,,,,,,5,,,,52,0
63697,note_on,0,0,4,,,,,,,,,3,,,,57,0
63697,note_on,0,0,14,,,,,,,,,13,,,,61,112
63697,note_on,6,0,14,,,,,,,,,13,,,,64,0
63697,note_on,30,0,4,,,,,,,,,3,,,,49,0
63709,control_change,12,0,14,,,,,,,,,13,11,66,,,
63710,control_change,18,0,2,,,,,,,,,1,11,66,,,
63720,note_on,60,0,11,,,,,,,,,10,,,,74,49
63720,set_tempo,60,1,0,,,,,,1538462,,,,,,,,
63722,note_on,12,0,2,,,,,,,,,1,,,,76,0
63722,note_on,0,0,2,,,,,,,,,1,,,,77,100
63722,note_on,60,0,12,,,,,,,,,11,,,,71,49
63725,note_on,60,0,13,,,,,,,,,12,,,,66,49
63727,note_on,0,0,14,,,,,,,,,13,,,,59,112
63727,note_on,18,0,14,,,,,,,,,13,,,,61,0
63727,control_change,0,0,14,,,,,,,,,13,11,69,,,
63728,control_change,6,0,2,,,,,,,,,1,11,67,,,
63729,note_on,60,0,15,,,,,,,,,14,,,,38,49
63743,control_change,16,0,14,,,,,,,,,13,11,67,,,
63746,control_change,18,0,2,,,,,,,,,1,11,65,,,
63752,note_on,6,0,2,,,,,,,,,1,,,,77,0
63752,note_on,0,0,2,,,,,,,,,1,,,,78,100
63757,note_on,0,0,14,,,,,,,,,13,,,,62,112
63757,note_on,14,0,14,,,,,,,,,13,,,,59,0
63759,control_change,2,0,14,,,,,,,,,13,11,65,,,
63764,control_change,12,0,2,,,,,,,,,1,11,63,,,
63775,control_change,16,0,14,,,,,,,,,13,11,63,,,
63780,note_on,60,0,11,,,,,,,,,10,,,,74,0
63780,set_tempo,60,1,0,,,,,,1428571,,,,,,,,
63782,note_on,90,0,3,,,,,,,,,2,,,,71,101
63782,note_on,0,0,2,,,,,,,,,1,,,,74,100
63782,note_on,60,0,12,,,,,,,,,11,,,,71,0
63782,note_on,18,0,2,,,,,,,,,1,,,,78,0
63782,note_on,0,0,3,,,,,,,,,2,,,,74,101
63782,control_change,0,0,2,,,,,,,,,1,11,60,,,
63785,note_on,60,0,13,,,,,,,,,12,,,,66,0
63787,note_on,90,0,4,,,,,,,,,3,,,,66,100
63787,note_on,0,0,4,,,,,,,,,3,,,,50,100
63787,note_on,12,0,14,,,,,,,,,13,,,,62,0
63787,note_on,0,0,14,,,,,,,,,13,,,,66,112
63789,note_on,60,0,15,,,,,,,,,14,,,,38,0
63791,control_change,4,0,14,,,,,,,,,13,11,61,,,
63800,control_change,18,0,2,,,,,,,,,1,11,58,,,
63807,control_change,16,0,14,,,,,,,,,13,11,59,,,
63812,note_on,12,0,2,,,,,,,,,1,,,,74,0
63812,note_on,0,0,2,,,,,,,,,1,,,,71,100
63812,note_on,30,0,3,,,,,,,,,2,,,,74,0
63812,note_on,0,0,3,,,,,,,,,2,,,,71,0
63817,note_on,0,0,14,,,,,,,,,13,,,,62,112
63817,note_on,10,0,14,,,,,,,,,13,,,,66,0
63817,note_on,30,0,4,,,,,,,,,3,,,,50,0
63817,note_on,0,0,4,,,,,,,,,3,,,,66,0
63818,control_change,6,0,2,,,,,,,,,1,11,56,,,
63823,control_change,6,0,14,,,,,,,,,13,11,57,,,
63836,control_change,18,0,2,,,,,,,,,1,11,53,,,
63837,note_on,1,0,2,,,,,,,,,1,,,,71,0
63839,control_change,16,0,14,,,,,,,,,13,11,56,,,
63840,set_tempo,60,1,0,,,,,,1578947,,,,,,,,
63840,note_on,60,0,11,,,,,,,,,10,,,,73,41
63842,note_on,3,0,14,,,,,,,,,13,,,,62,0
63842,note_on,60,0,12,,,,,,,,,11,,,,69,49
63842,note_on,5,0,2,,,,,,,,,1,,,,69,100
63845,note_on,60,0,13,,,,,,,,,12,,,,64,49
63847,note_on,5,0,14,,,,,,,,,13,,,,61,112
63849,note_on,60,0,15,,,,,,,,,14,,,,40,49
63863,control_change,16,0,14,,,,,,,,,13,11,54,,,
63879,control_change,16,0,14,,,,,,,,,13,11,53,,,
63895,control_change,16,0,14,,,,,,,,,13,11,52,,,
63900,set_tempo,60,1,0,,,,,,1445783,,,,,,,,
63900,note_on,60,0,11,,,,,,,,,10,,,,73,0
63901,note_on,210,0,5,,,,,,,,,4,,,,64,100
63902,note_on,0,0,3,,,,,,,,,2,,,,73,101
63902,note_on,90,0,3,,,,,,,,,2,,,,69,101
63902,note_on,60,0,12,,,,,,,,,11,,,,69,0
63903,note_on,210,0,6,,,,,,,,,5,,,,52,100
63905,note_on,60,0,13,,,,,,,,,12,,,,64,0
63907,note_on,90,0,4,,,,,,,,,3,,,,61,100
63907,note_on,0,0,4,,,,,,,,,3,,,,52,100
63909,note_on,60,0,15,,,,,,,,,14,,,,40,0
63911,control_change,16,0,14,,,,,,,,,13,11,51,,,
63927,note_on,0,0,14,,,,,,,,,13,,,,62,112
63927,note_on,16,0,14,,,,,,,,,13,,,,61,0
63927,control_change,0,0,14,,,,,,,,,13,11,50,,,
63931,note_on,30,0,5,,,,,,,,,4,,,,64,0
63932,note_on,30,0,3,,,,,,,,,2,,,,73,0
63932,note_on,0,0,3,,,,,,,,,2,,,,69,0
63933,note_on,30,0,6,,,,,,,,,5,,,,52,0
63937,note_on,10,0,14,,,,,,,,,13,,,,62,0
63937,note_on,30,0,4,,,,,,,,,3,,,,52,0
63937,note_on,0,0,14,,,,,,,,,13,,,,61,112
63937,note_on,0,0,4,,,,,,,,,3,,,,61,0
63943,control_change,6,0,14,,,,,,,,,13,11,49,,,
63947,note_on,4,0,14,,,,,,,,,13,,,,61,0
63947,note_on,0,0,14,,,,,,,,,13,,,,59,112
63957,note_on,0,0,14,,,,,,,,,13,,,,61,112
63957,note_on,10,0,14,,,,,,,,,13,,,,59,0
63959,control_change,2,0,14,,,,,,,,,13,11,48,,,
63960,note_on,60,0,11,,,,,,,,,10,,,,71,41
63960,set_tempo,60,1,0,,,,,,1621622,,,,,,,,
63962,control_change,0,0,2,,,,,,,,,1,11,52,,,
63962,note_on,0,0,2,,,,,,,,,1,,,,69,100
63962,note_on,120,0,2,,,,,,,,,1,,,,69,0
63962,note_on,60,0,12,,,,,,,,,11,,,,68,49
63965,note_on,60,0,13,,,,,,,,,12,,,,64,49
63967,note_on,0,0,14,,,,,,,,,13,,,,64,112
63967,note_on,8,0,14,,,,,,,,,13,,,,61,0
63969,note_on,60,0,15,,,,,,,,,14,,,,40,49
63969,note_on,7,0,2,,,,,,,,,1,,,,68,100
63971,note_on,2,0,2,,,,,,,,,1,,,,69,0
63975,control_change,8,0,14,,,,,,,,,13,11,47,,,
63977,note_on,6,0,2,,,,,,,,,1,,,,69,100
63978,note_on,1,0,2,,,,,,,,,1,,,,68,0
63980,control_change,2,0,2,,,,,,,,,1,11,50,,,
63984,note_on,4,0,2,,,,,,,,,1,,,,68,100
63986,note_on,2,0,2,,,,,,,,,1,,,,69,0
63991,control_change,16,0,14,,,,,,,,,13,11,46,,,
63992,note_on,6,0,2,,,,,,,,,1,,,,69,100
63993,note_on,1,0,2,,,,,,,,,1,,,,68,0
63998,control_change,5,0,2,,,,,,,,,1,11,48,,,
63999,note_on,1,0,2,,,,,,,,,1,,,,68,100
64001,note_on,2,0,2,,,,,,,,,1,,,,69,0
64007,control_change,16,0,14,,,,,,,,,13,11,45,,,
64007,note_on,6,0,2,,,,,,,,,1,,,,69,100
64008,note_on,1,0,2,,,,,,,,,1,,,,68,0
64014,note_on,6,0,2,,,,,,,,,1,,,,68,100
64016,control_change,0,0,2,,,,,,,,,1,11,46,,,
64016,note_on,2,0,2,,,,,,,,,1,,,,69,0
64020,set_tempo,60,1,0,,,,,,1411765,,,,,,,,
64020,note_on,60,0,11,,,,,,,,,10,,,,71,0
64021,note_on,90,0,5,,,,,,,,,4,,,,64,100
64022,note_on,90,0,3,,,,,,,,,2,,,,68,101
64022,note_on,0,0,3,,,,,,,,,2,,,,71,101
64022,note_on,60,0,12,,,,,,,,,11,,,,68,0
64022,note_on,6,0,2,,,,,,,,,1,,,,69,100
64023,note_on,90,0,6,,,,,,,,,5,,,,52,100
64023,control_change,16,0,14,,,,,,,,,13,11,44,,,
64023,note_on,1,0,2,,,,,,,,,1,,,,68,0
64025,note_on,60,0,13,,,,,,,,,12,,,,64,0
64027,note_on,90,0,4,,,,,,,,,3,,,,62,100
64027,note_on,0,0,4,,,,,,,,,3,,,,52,100
64029,note_on,60,0,15,,,,,,,,,14,,,,40,0
64029,note_on,6,0,2,,,,,,,,,1,,,,68,100
64031,note_on,2,0,2,,,,,,,,,1,,,,69,0
64034,control_change,3,0,2,,,,,,,,,1,11,44,,,
64037,note_on,3,0,2,,,,,,,,,1,,,,69,100
64038,note_on,1,0,2,,,,,,,,,1,,,,68,0
64039,control_change,16,0,14,,,,,,,,,13,11,43,,,
64044,note_on,6,0,2,,,,,,,,,1,,,,68,100
64046,note_on,2,0,2,,,,,,,,,1,,,,69,0
64051,note_on,30,0,5,,,,,,,,,4,,,,64,0
64052,note_on,30,0,3,,,,,,,,,2,,,,71,0
64052,note_on,0,0,2,,,,,,,,,1,,,,66,100
64052,control_change,6,0,2,,,,,,,,,1,11,42,,,
64052,note_on,0,0,3,,,,,,,,,2,,,,68,0
64053,note_on,30,0,6,,,,,,,,,5,,,,52,0
64053,note_on,1,0,2,,,,,,,,,1,,,,68,0
64055,control_change,16,0,14,,,,,,,,,13,11,42,,,
64057,note_on,0,0,14,,,,,,,,,13,,,,62,112
64057,note_on,30,0,4,,,,,,,,,3,,,,52,0
64057,note_on,0,0,4,,,,,,,,,3,,,,62,0
64057,note_on,2,0,14,,,,,,,,,13,,,,64,0
64067,note_on,0,0,2,,,,,,,,,1,,,,68,100
64067,note_on,14,0,2,,,,,,,,,1,,,,66,0
64071,control_change,14,0,14,,,,,,,,,13,11,42,,,
64079,program_change,59,0,11,,,,,,,,48,10,,,,,
64080,key_signature,60,1,0,,,,,A,,,,,,,,,
64080,set_tempo,0,1,0,,,,,,1348315,,,,,,,,
64080,note_on,0,0,11,,,,,,,,,10,,,,69,112
64080,control_change,1,0,11,,,,,,,,,10,11,31,,,
64081,note_on,4260,0,1,,,,,,,,,0,,,,85,101
64081,program_change,59,0,12,,,,,,,,48,11,,,,,
64081,control_change,0,0,1,,,,,,,,,0,11,27,,,
64082,note_on,0,0,12,,,,,,,,,11,,,,69,112
64082,control_change,1,0,12,,,,,,,,,11,11,31,,,
64082,control_change,0,0,3,,,,,,,,,2,11,27,,,
64082,note_on,30,0,3,,,,,,,,,2,,,,73,101
64082,note_on,0,0,2,,,,,,,,,1,,,,69,100
64082,note_on,15,0,2,,,,,,,,,1,,,,68,0
64082,note_on,11,0,14,,,,,,,,,13,,,,62,0
64084,program_change,59,0,13,,,,,,,,48,12,,,,,
64085,note_on,0,0,13,,,,,,,,,12,,,,69,112
64085,control_change,1,0,13,,,,,,,,,12,11,31,,,
64087,note_on,0,0,14,,,,,,,,,13,,,,61,112
64087,control_change,5,0,14,,,,,,,,,13,11,41,,,
64087,control_change,0,0,14,,,,,,,,,13,1,1,,,
64089,note_on,60,0,15,,,,,,,,,14,,,,45,49
64093,control_change,12,0,1,,,,,,,,,0,11,30,,,
64094,control_change,12,0,3,,,,,,,,,2,11,30,,,
64098,control_change,18,0,11,,,,,,,,,10,11,34,,,
64100,control_change,18,0,12,,,,,,,,,11,11,34,,,
64103,control_change,18,0,13,,,,,,,,,12,11,34,,,
64105,control_change,12,0,1,,,,,,,,,0,11,33,,,
64106,control_change,12,0,3,,,,,,,,,2,11,33,,,
64112,note_on,12,0,12,,,,,,,,,11,,,,69,0
64112,note_on,0,0,12,,,,,,,,,11,,,,68,112
64115,note_on,0,0,13,,,,,,,,,12,,,,68,112
64115,note_on,12,0,13,,,,,,,,,12,,,,69,0
64116,control_change,18,0,11,,,,,,,,,10,11,37,,,
64117,control_change,12,0,1,,,,,,,,,0,11,36,,,
64118,control_change,6,0,12,,,,,,,,,11,11,37,,,
64118,control_change,12,0,3,,,,,,,,,2,11,36,,,
64121,control_change,6,0,13,,,,,,,,,12,11,37,,,
64129,control_change,12,0,1,,,,,,,,,0,11,39,,,
64130,control_change,12,0,3,,,,,,,,,2,11,39,,,
64134,control_change,18,0,11,,,,,,,,,10,11,40,,,
64136,control_change,18,0,12,,,,,,,,,11,11,40,,,
64139,control_change,18,0,13,,,,,,,,,12,11,40,,,
64140,note_on,0,0,11,,,,,,,,,10,,,,73,127
64140,note_on,6,0,11,,,,,,,,,10,,,,69,0
64140,set_tempo,60,1,0,,,,,,1237113,,,,,,,,
64141,control_change,12,0,1,,,,,,,,,0,11,42,,,
64142,note_on,60,0,2,,,,,,,,,1,,,,69,0
64142,note_on,0,0,12,,,,,,,,,11,,,,66,112
64142,note_on,6,0,12,,,,,,,,,11,,,,68,0
64142,control_change,12,0,3,,,,,,,,,2,11,42,,,
64145,note_on,0,0,13,,,,,,,,,12,,,,66,112
64145,note_on,6,0,13,,,,,,,,,12,,,,68,0
64147,note_on,60,0,14,,,,,,,,,13,,,,61,0
64149,note_on,60,0,15,,,,,,,,,14,,,,45,0
64172,note_on,0,0,12,,,,,,,,,11,,,,64,112
64172,note_on,30,0,12,,,,,,,,,11,,,,66,0
64175,note_on,30,0,13,,,,,,,,,12,,,,66,0
64175,note_on,0,0,13,,,,,,,,,12,,,,64,112
64197,note_on,25,0,12,,,,,,,,,11,,,,64,0
64200,set_tempo,60,1,0,,,,,,1318681,,,,,,,,
64200,note_on,60,0,11,,,,,,,,,10,,,,73,0
64200,note_on,25,0,13,,,,,,,,,12,,,,64,0
64201,note_on,0,0,1,,,,,,,,,0,,,,83,101
64201,note_on,60,0,1,,,,,,,,,0,,,,85,0
64202,note_on,5,0,12,,,,,,,,,11,,,,64,112
64202,note_on,60,0,3,,,,,,,,,2,,,,73,0
64202,note_on,0,0,3,,,,,,,,,2,,,,71,101
64205,note_on,5,0,13,,,,,,,,,12,,,,64,112
64206,program_change,59,0,14,,,,,,,,45,13,,,,,
64207,control_change,0,0,14,,,,,,,,,13,91,68,,,
64207,control_change,0,0,14,,,,,,,,,13,11,57,,,
64207,note_on,1,0,14,,,,,,,,,13,,,,56,49
64209,note_on,60,0,15,,,,,,,,,14,,,,44,49
64232,note_on,30,0,12,,,,,,,,,11,,,,64,0
64232,note_on,0,0,12,,,,,,,,,11,,,,62,112
64235,note_on,30,0,13,,,,,,,,,12,,,,64,0
64235,note_on,0,0,13,,,,,,,,,12,,,,62,112
64260,note_on,60,0,11,,,,,,,,,10,,,,76,127
64260,set_tempo,60,1,0,,,,,,1200000,,,,,,,,
64262,note_on,30,0,12,,,,,,,,,11,,,,62,0
64262,note_on,0,0,12,,,,,,,,,11,,,,61,112
64265,note_on,0,0,13,,,,,,,,,12,,,,61,112
64265,note_on,30,0,13,,,,,,,,,12,,,,62,0
64267,note_on,60,0,14,,,,,,,,,13,,,,56,0
64269,note_on,60,0,15,,,,,,,,,14,,,,44,0
64292,note_on,30,0,12,,,,,,,,,11,,,,61,0
64292,note_on,0,0,12,,,,,,,,,11,,,,59,112
64295,note_on,30,0,13,,,,,,,,,12,,,,61,0
64295,note_on,0,0,13,,,,,,,,,12,,,,59,112
64317,note_on,25,0,12,,,,,,,,,11,,,,59,0
64320,set_tempo,60,1,0,,,,,,1250000,,,,,,,,
64320,note_on,60,0,11,,,,,,,,,10,,,,76,0
64320,note_on,25,0,13,,,,,,,,,12,,,,59,0
64321,note_on,120,0,1,,,,,,,,,0,,,,83,0
64321,note_on,0,0,1,,,,,,,,,0,,,,81,101
64322,note_on,120,0,3,,,,,,,,,2,,,,71,0
64322,note_on,5,0,12,,,,,,,,,11,,,,57,112
64322,note_on,0,0,3,,,,,,,,,2,,,,69,101
64325,note_on,5,0,13,,,,,,,,,12,,,,57,112
64327,note_on,60,0,14,,,,,,,,,13,,,,54,49
64329,note_on,60,0,15,,,,,,,,,14,,,,42,49
64352,note_on,30,0,12,,,,,,,,,11,,,,57,0
64352,note_on,0,0,12,,,,,,,,,11,,,,59,112
64355,note_on,30,0,13,,,,,,,,,12,,,,57,0
64355,note_on,0,0,13,,,,,,,,,12,,,,59,112
64380,set_tempo,60,1,0,,,,,,1176471,,,,,,,,
64380,note_on,60,0,11,,,,,,,,,10,,,,81,127
64382,note_on,30,0,12,,,,,,,,,11,,,,59,0
64382,note_on,0,0,12,,,,,,,,,11,,,,61,112
64385,note_on,0,0,13,,,,,,,,,12,,,,61,112
64385,note_on,30,0,13,,,,,,,,,12,,,,59,0
64387,note_on,60,0,14,,,,,,,,,13,,,,54,0
64389,note_on,60,0,15,,,,,,,,,14,,,,42,0
64412,note_on,0,0,12,,,,,,,,,11,,,,60,112
64412,note_on,30,0,12,,,,,,,,,11,,,,61,0
64415,note_on,0,0,13,,,,,,,,,12,,,,60,112
64415,note_on,30,0,13,,,,,,,,,12,,,,61,0
64440,note_on,60,0,11,,,,,,,,,10,,,,81,0
64440,set_tempo,60,1,0,,,,,,1224490,,,,,,,,
64441,note_on,120,0,1,,,,,,,,,0,,,,81,0
64441,note_on,0,0,1,,,,,,,,,0,,,,80,101
64442,note_on,0,0,3,,,,,,,,,2,,,,68,101
64442,note_on,120,0,3,,,,,,,,,2,,,,69,0
64442,note_on,0,0,12,,,,,,,,,11,,,,61,112
64442,note_on,30,0,12,,,,,,,,,11,,,,60,0
64445,note_on,30,0,13,,,,,,,,,12,,,,60,0
64445,note_on,0,0,13,,,,,,,,,12,,,,61,112
64447,note_on,60,0,14,,,,,,,,,13,,,,52,49
64449,note_on,60,0,15,,,,,,,,,14,,,,40,49
64472,note_on,0,0,12,,,,,,,,,11,,,,63,112
64472,note_on,30,0,12,,,,,,,,,11,,,,61,0
64475,note_on,0,0,13,,,,,,,,,12,,,,63,112
64475,note_on,30,0,13,,,,,,,,,12,,,,61,0
64500,set_tempo,60,1,0,,,,,,1165049,,,,,,,,
64500,note_on,60,0,11,,,,,,,,,10,,,,85,127
64502,note_on,0,0,12,,,,,,,,,11,,,,64,112
64502,note_on,30,0,12,,,,,,,,,11,,,,63,0
64505,note_on,30,0,13,,,,,,,,,12,,,,63,0
64505,note_on,0,0,13,,,,,,,,,12,,,,64,112
64507,note_on,60,0,14,,,,,,,,,13,,,,52,0
64509,note_on,60,0,15,,,,,,,,,14,,,,40,0
64532,note_on,30,0,12,,,,,,,,,11,,,,64,0
64532,note_on,0,0,12,,,,,,,,,11,,,,61,112
64535,note_on,0,0,13,,,,,,,,,12,,,,61,112
64535,note_on,30,0,13,,,,,,,,,12,,,,64,0
64556,note_on,115,0,1,,,,,,,,,0,,,,80,0
64557,note_on,25,0,12,,,,,,,,,11,,,,61,0
64557,note_on,115,0,3,,,,,,,,,2,,,,68,0
64560,note_on,25,0,13,,,,,,,,,12,,,,61,0
64560,note_on,60,0,11,,,,,,,,,10,,,,85,0
64560,control_change,0,0,11,,,,,,,,,10,11,41,,,
64560,set_tempo,60,1,0,,,,,,1212121,,,,,,,,
64561,note_on,5,0,1,,,,,,,,,0,,,,78,101
64561,control_change,0,0,1,,,,,,,,,0,11,42,,,
64562,control_change,5,0,3,,,,,,,,,2,11,42,,,
64562,control_change,0,0,12,,,,,,,,,11,11,41,,,
64562,note_on,5,0,12,,,,,,,,,11,,,,57,112
64562,note_on,0,0,3,,,,,,,,,2,,,,66,101
64565,control_change,0,0,13,,,,,,,,,12,11,41,,,
64565,note_on,5,0,13,,,,,,,,,12,,,,57,112
64567,note_on,60,0,14,,,,,,,,,13,,,,50,49
64569,note_on,60,0,15,,,,,,,,,14,,,,38,49
64584,control_change,24,0,11,,,,,,,,,10,11,42,,,
64586,control_change,24,0,12,,,,,,,,,11,11,42,,,
64589,control_change,24,0,13,,,,,,,,,12,11,42,,,
64589,control_change,28,0,1,,,,,,,,,0,11,43,,,
64590,note_on,6,0,11,,,,,,,,,10,,,,90,112
64590,control_change,28,0,3,,,,,,,,,2,11,43,,,
64592,note_on,0,0,12,,,,,,,,,11,,,,66,112
64592,note_on,6,0,12,,,,,,,,,11,,,,57,0
64595,note_on,0,0,13,,,,,,,,,12,,,,66,112
64595,note_on,6,0,13,,,,,,,,,12,,,,57,0
64608,control_change,18,0,11,,,,,,,,,10,11,42,,,
64610,control_change,18,0,12,,,,,,,,,11,11,42,,,
64612,note_on,45,0,14,,,,,,,,,13,,,,50,0
64613,note_on,5,0,11,,,,,,,,,10,,,,90,0
64613,control_change,18,0,13,,,,,,,,,12,11,42,,,
64614,note_on,45,0,15,,,,,,,,,14,,,,38,0
64617,control_change,28,0,1,,,,,,,,,0,11,44,,,
64618,control_change,28,0,3,,,,,,,,,2,11,44,,,
64620,set_tempo,60,1,0,,,,,,1165049,,,,,,,,
64621,note_on,0,0,1,,,,,,,,,0,,,,80,101
64621,note_on,4,0,1,,,,,,,,,0,,,,78,0
64622,note_on,0,0,12,,,,,,,,,11,,,,64,112
64622,note_on,12,0,12,,,,,,,,,11,,,,66,0
64622,note_on,4,0,3,,,,,,,,,2,,,,66,0
64622,note_on,0,0,3,,,,,,,,,2,,,,68,101
64625,note_on,12,0,13,,,,,,,,,12,,,,66,0
64625,note_on,0,0,13,,,,,,,,,12,,,,64,112
64627,note_on,15,0,14,,,,,,,,,13,,,,47,49
64629,note_on,15,0,15,,,,,,,,,14,,,,35,51
64632,control_change,19,0,11,,,,,,,,,10,11,43,,,
64634,control_change,12,0,12,,,,,,,,,11,11,43,,,
64637,control_change,12,0,13,,,,,,,,,12,11,43,,,
64645,control_change,24,0,1,,,,,,,,,0,11,45,,,
64646,control_change,24,0,3,,,,,,,,,2,11,45,,,
64650,note_on,18,0,11,,,,,,,,,10,,,,88,112
64652,note_on,0,0,12,,,,,,,,,11,,,,62,112
64652,note_on,18,0,12,,,,,,,,,11,,,,64,0
64655,note_on,0,0,13,,,,,,,,,12,,,,62,112
64655,note_on,18,0,13,,,,,,,,,12,,,,64,0
64656,control_change,6,0,11,,,,,,,,,10,11,44,,,
64658,control_change,6,0,12,,,,,,,,,11,11,44,,,
64661,control_change,6,0,13,,,,,,,,,12,11,44,,,
64672,note_on,45,0,14,,,,,,,,,13,,,,47,0
64673,note_on,17,0,11,,,,,,,,,10,,,,88,0
64673,control_change,28,0,1,,,,,,,,,0,11,46,,,
64674,control_change,28,0,3,,,,,,,,,2,11,46,,,
64674,note_on,45,0,15,,,,,,,,,14,,,,35,0
64680,control_change,7,0,11,,,,,,,,,10,11,45,,,
64680,set_tempo,60,1,0,,,,,,1200000,,,,,,,,
64681,note_on,0,0,1,,,,,,,,,0,,,,76,101
64681,note_on,8,0,1,,,,,,,,,0,,,,80,0
64682,note_on,24,0,12,,,,,,,,,11,,,,62,0
64682,control_change,0,0,12,,,,,,,,,11,11,45,,,
64682,note_on,8,0,3,,,,,,,,,2,,,,68,0
64682,note_on,0,0,12,,,,,,,,,11,,,,64,112
64682,note_on,0,0,3,,,,,,,,,2,,,,64,101
64685,note_on,0,0,13,,,,,,,,,12,,,,64,112
64685,control_change,0,0,13,,,,,,,,,12,11,45,,,
64685,note_on,24,0,13,,,,,,,,,12,,,,62,0
64687,note_on,15,0,14,,,,,,,,,13,,,,49,54
64689,note_on,15,0,15,,,,,,,,,14,,,,37,54
64701,control_change,20,0,1,,,,,,,,,0,11,47,,,
64702,control_change,20,0,3,,,,,,,,,2,11,47,,,
64704,control_change,24,0,11,,,,,,,,,10,11,46,,,
64706,control_change,24,0,12,,,,,,,,,11,11,46,,,
64709,control_change,24,0,13,,,,,,,,,12,11,46,,,
64710,note_on,6,0,11,,,,,,,,,10,,,,85,112
64712,note_on,0,0,12,,,,,,,,,11,,,,61,112
64712,note_on,6,0,12,,,,,,,,,11,,,,64,0
64715,note_on,0,0,13,,,,,,,,,12,,,,61,112
64715,note_on,6,0,13,,,,,,,,,12,,,,64,0
64728,control_change,18,0,11,,,,,,,,,10,11,47,,,
64729,control_change,28,0,1,,,,,,,,,0,11,48,,,
64730,control_change,18,0,12,,,,,,,,,11,11,47,,,
64730,control_change,28,0,3,,,,,,,,,2,11,48,,,
64732,note_on,45,0,14,,,,,,,,,13,,,,49,0
64733,control_change,18,0,13,,,,,,,,,12,11,47,,,
64733,note_on,5,0,11,,,,,,,,,10,,,,85,0
64734,note_on,45,0,15,,,,,,,,,14,,,,37,0
64740,set_tempo,60,1,0,,,,,,1153846,,,,,,,,
64741,note_on,0,0,1,,,,,,,,,0,,,,81,101
64741,note_on,12,0,1,,,,,,,,,0,,,,76,0
64742,note_on,12,0,12,,,,,,,,,11,,,,61,0
64742,note_on,0,0,12,,,,,,,,,11,,,,57,112
64742,note_on,0,0,3,,,,,,,,,2,,,,69,101
64742,note_on,12,0,3,,,,,,,,,2,,,,64,0
64745,note_on,12,0,13,,,,,,,,,12,,,,61,0
64745,note_on,0,0,13,,,,,,,,,12,,,,57,112
64747,note_on,15,0,14,,,,,,,,,13,,,,54,56
64749,note_on,15,0,15,,,,,,,,,14,,,,42,56
64752,control_change,19,0,11,,,,,,,,,10,11,48,,,
64754,control_change,12,0,12,,,,,,,,,11,11,48,,,
64757,control_change,16,0,1,,,,,,,,,0,11,49,,,
64757,control_change,12,0,13,,,,,,,,,12,11,48,,,
64758,control_change,16,0,3,,,,,,,,,2,11,49,,,
64770,note_on,18,0,11,,,,,,,,,10,,,,81,112
64772,note_on,0,0,12,,,,,,,,,11,,,,69,112
64772,note_on,18,0,12,,,,,,,,,11,,,,57,0
64775,note_on,18,0,13,,,,,,,,,12,,,,57,0
64775,note_on,0,0,13,,,,,,,,,12,,,,69,112
64776,control_change,6,0,11,,,,,,,,,10,11,49,,,
64778,control_change,6,0,12,,,,,,,,,11,11,49,,,
64781,control_change,6,0,13,,,,,,,,,12,11,49,,,
64785,control_change,28,0,1,,,,,,,,,0,11,50,,,
64786,control_change,28,0,3,,,,,,,,,2,11,50,,,
64792,note_on,45,0,14,,,,,,,,,13,,,,54,0
64793,note_on,17,0,11,,,,,,,,,10,,,,81,0
64794,note_on,45,0,15,,,,,,,,,14,,,,42,0
64796,note_on,11,0,1,,,,,,,,,0,,,,81,0
64797,note_on,11,0,3,,,,,,,,,2,,,,69,0
64797,note_on,19,0,12,,,,,,,,,11,,,,69,0
64800,control_change,7,0,11,,,,,,,,,10,11,50,,,
64800,set_tempo,60,1,0,,,,,,1200000,,,,,,,,
64800,note_on,19,0,13,,,,,,,,,12,,,,69,0
64801,note_on,5,0,1,,,,,,,,,0,,,,83,101
64802,note_on,5,0,3,,,,,,,,,2,,,,71,101
64802,control_change,0,0,12,,,,,,,,,11,11,50,,,
64802,note_on,5,0,12,,,,,,,,,11,,,,66,112
64805,control_change,0,0,13,,,,,,,,,12,11,50,,,
64805,note_on,5,0,13,,,,,,,,,12,,,,66,112
64807,note_on,15,0,14,,,,,,,,,13,,,,50,59
64809,note_on,15,0,15,,,,,,,,,14,,,,38,59
64813,control_change,12,0,1,,,,,,,,,0,11,51,,,
64814,control_change,12,0,3,,,,,,,,,2,11,51,,,
64824,control_change,24,0,11,,,,,,,,,10,11,51,,,
64826,control_change,24,0,12,,,,,,,,,11,11,51,,,
64829,control_change,24,0,13,,,,,,,,,12,11,51,,,
64832,note_on,6,0,12,,,,,,,,,11,,,,66,0
64832,note_on,0,0,12,,,,,,,,,11,,,,69,112
64835,note_on,6,0,13,,,,,,,,,12,,,,66,0
64835,note_on,0,0,13,,,,,,,,,12,,,,69,112
64841,control_change,28,0,1,,,,,,,,,0,11,52,,,
64842,control_change,28,0,3,,,,,,,,,2,11,52,,,
64848,control_change,24,0,11,,,,,,,,,10,11,52,,,
64850,control_change,18,0,12,,,,,,,,,11,11,52,,,
64853,control_change,18,0,13,,,,,,,,,12,11,52,,,
64860,note_on,12,0,11,,,,,,,,,10,,,,78,127
64860,set_tempo,60,1,0,,,,,,1153846,,,,,,,,
64862,note_on,0,0,12,,,,,,,,,11,,,,68,112
64862,note_on,12,0,12,,,,,,,,,11,,,,69,0
64865,note_on,0,0,13,,,,,,,,,12,,,,68,112
64865,note_on,12,0,13,,,,,,,,,12,,,,69,0
64867,note_on,60,0,14,,,,,,,,,13,,,,50,0
64869,control_change,28,0,1,,,,,,,,,0,11,53,,,
64869,note_on,60,0,15,,,,,,,,,14,,,,38,0
64870,control_change,28,0,3,,,,,,,,,2,11,53,,,
64872,control_change,12,0,11,,,,,,,,,10,11,53,,,
64874,control_change,12,0,12,,,,,,,,,11,11,53,,,
64877,control_change,12,0,13,,,,,,,,,12,11,53,,,
64892,note_on,18,0,12,,,,,,,,,11,,,,68,0
64892,note_on,0,0,12,,,,,,,,,11,,,,66,112
64895,note_on,18,0,13,,,,,,,,,12,,,,68,0
64895,note_on,0,0,13,,,,,,,,,12,,,,66,112
64896,control_change,24,0,11,,,,,,,,,10,11,54,,,
64897,control_change,28,0,1,,,,,,,,,0,11,54,,,
64898,control_change,6,0,12,,,,,,,,,11,11,54,,,
64898,control_change,28,0,3,,,,,,,,,2,11,54,,,
64901,control_change,6,0,13,,,,,,,,,12,11,54,,,
64920,note_on,24,0,11,,,,,,,,,10,,,,78,0
64920,control_change,0,0,11,,,,,,,,,10,11,55,,,
64920,set_tempo,60,1,0,,,,,,1200000,,,,,,,,
64922,note_on,24,0,12,,,,,,,,,11,,,,66,0
64922,note_on,0,0,12,,,,,,,,,11,,,,68,112
64922,control_change,0,0,12,,,,,,,,,11,11,55,,,
64925,note_on,24,0,13,,,,,,,,,12,,,,66,0
64925,note_on,0,0,13,,,,,,,,,12,,,,68,112
64925,control_change,0,0,13,,,,,,,,,12,11,55,,,
64925,control_change,28,0,1,,,,,,,,,0,11,55,,,
64926,control_change,28,0,3,,,,,,,,,2,11,55,,,
64927,note_on,60,0,14,,,,,,,,,13,,,,52,64
64929,note_on,60,0,15,,,,,,,,,14,,,,40,64
64936,control_change,16,0,11,,,,,,,,,10,11,53,,,
64938,control_change,16,0,12,,,,,,,,,11,11,53,,,
64941,control_change,16,0,13,,,,,,,,,12,11,53,,,
64952,control_change,16,0,11,,,,,,,,,10,11,51,,,
64952,note_on,0,0,12,,,,,,,,,11,,,,71,112
64952,note_on,14,0,12,,,,,,,,,11,,,,68,0
64953,control_change,28,0,1,,,,,,,,,0,11,56,,,
64954,control_change,28,0,3,,,,,,,,,2,11,56,,,
64954,control_change,2,0,12,,,,,,,,,11,11,51,,,
64955,note_on,14,0,13,,,,,,,,,12,,,,68,0
64955,note_on,0,0,13,,,,,,,,,12,,,,71,112
64957,control_change,2,0,13,,,,,,,,,12,11,51,,,
64968,control_change,16,0,11,,,,,,,,,10,11,49,,,
64970,control_change,16,0,12,,,,,,,,,11,11,49,,,
64973,control_change,16,0,13,,,,,,,,,12,11,49,,,
64980,set_tempo,60,1,0,,,,,,1153846,,,,,,,,
64980,note_on,12,0,11,,,,,,,,,10,,,,76,127
64981,control_change,0,0,1,,,,,,,,,0,11,57,,,
64981,note_on,28,0,1,,,,,,,,,0,,,,83,0
64981,note_on,0,0,1,,,,,,,,,0,,,,85,101
64982,note_on,12,0,12,,,,,,,,,11,,,,71,0
64982,note_on,28,0,3,,,,,,,,,2,,,,71,0
64982,note_on,0,0,3,,,,,,,,,2,,,,73,101
64982,control_change,0,0,3,,,,,,,,,2,11,57,,,
64982,note_on,0,0,12,,,,,,,,,11,,,,69,112
64984,control_change,4,0,11,,,,,,,,,10,11,47,,,
64985,note_on,0,0,13,,,,,,,,,12,,,,69,112
64985,note_on,12,0,13,,,,,,,,,12,,,,71,0
64986,control_change,4,0,12,,,,,,,,,11,11,47,,,
64987,note_on,60,0,14,,,,,,,,,13,,,,52,0
64989,control_change,4,0,13,,,,,,,,,12,11,47,,,
64989,note_on,60,0,15,,,,,,,,,14,,,,40,0
65000,control_change,16,0,11,,,,,,,,,10,11,45,,,
65002,control_change,16,0,12,,,,,,,,,11,11,45,,,
65005,control_change,16,0,13,,,,,,,,,12,11,45,,,
65011,note_on,0,0,1,,,,,,,,,0,,,,86,101
65011,control_change,0,0,1,,,,,,,,,0,11,57,,,
65011,note_on,30,0,1,,,,,,,,,0,,,,85,0
65012,note_on,30,0,3,,,,,,,,,2,,,,73,0
65012,note_on,0,0,12,,,,,,,,,11,,,,68,112
65012,note_on,0,0,3,,,,,,,,,2,,,,74,101
65012,control_change,0,0,3,,,,,,,,,2,11,57,,,
65012,note_on,10,0,12,,,,,,,,,11,,,,69,0
65015,note_on,0,0,13,,,,,,,,,12,,,,68,112
65015,note_on,10,0,13,,,,,,,,,12,,,,69,0
65016,control_change,16,0,11,,,,,,,,,10,11,43,,,
65018,control_change,6,0,12,,,,,,,,,11,11,43,,,
65020,control_change,9,0,1,,,,,,,,,0,11,54,,,
65021,control_change,9,0,3,,,,,,,,,2,11,54,,,
65021,control_change,6,0,13,,,,,,,,,12,11,43,,,
65029,control_change,9,0,1,,,,,,,,,0,11,51,,,
65030,control_change,9,0,3,,,,,,,,,2,11,51,,,
65032,control_change,16,0,11,,,,,,,,,10,11,42,,,
65034,control_change,16,0,12,,,,,,,,,11,11,42,,,
65037,control_change,16,0,13,,,,,,,,,12,11,42,,,
65037,note_on,3,0,12,,,,,,,,,11,,,,68,0
65038,control_change,9,0,1,,,,,,,,,0,11,48,,,
65039,control_change,9,0,3,,,,,,,,,2,11,48,,,
65040,note_on,3,0,13,,,,,,,,,12,,,,68,0
65040,set_tempo,60,1,0,,,,,,1200000,,,,,,,,
65040,note_on,8,0,11,,,,,,,,,10,,,,76,0
65041,note_on,0,0,1,,,,,,,,,0,,,,85,101
65041,note_on,3,0,1,,,,,,,,,0,,,,86,0
65042,note_on,5,0,12,,,,,,,,,11,,,,69,112
65042,note_on,0,0,2,,,,,,,,,1,,,,73,100
65042,note_on,0,0,3,,,,,,,,,2,,,,73,101
65042,note_on,3,0,3,,,,,,,,,2,,,,74,0
65042,note_on,900,0,2,,,,,,,,,1,,,,64,100
65042,control_change,0,0,2,,,,,,,,,1,11,47,,,
65045,note_on,5,0,13,,,,,,,,,12,,,,69,112
65047,note_on,0,0,4,,,,,,,,,3,,,,57,100
65047,note_on,990,0,4,,,,,,,,,3,,,,61,100
65047,control_change,0,0,4,,,,,,,,,3,11,47,,,
65047,note_on,60,0,14,,,,,,,,,13,,,,57,50
65049,note_on,60,0,15,,,,,,,,,14,,,,45,50
65072,note_on,0,0,12,,,,,,,,,11,,,,68,112
65072,note_on,30,0,12,,,,,,,,,11,,,,69,0
65075,note_on,30,0,13,,,,,,,,,12,,,,69,0
65075,note_on,0,0,13,,,,,,,,,12,,,,68,112
65100,set_tempo,60,1,0,,,,,,1153846,,,,,,,,
65100,note_on,60,0,11,,,,,,,,,10,,,,73,127
65101,note_on,60,0,1,,,,,,,,,0,,,,85,0
65102,note_on,0,0,12,,,,,,,,,11,,,,66,112
65102,note_on,60,0,3,,,,,,,,,2,,,,73,0
65102,note_on,30,0,12,,,,,,,,,11,,,,68,0
65105,note_on,0,0,13,,,,,,,,,12,,,,66,112
65105,note_on,30,0,13,,,,,,,,,12,,,,68,0
65107,note_on,60,0,14,,,,,,,,,13,,,,57,0
65109,note_on,60,0,15,,,,,,,,,14,,,,45,0
65132,note_on,0,0,12,,,,,,,,,11,,,,64,112
65132,note_on,30,0,12,,,,,,,,,11,,,,66,0
65135,note_on,0,0,13,,,,,,,,,12,,,,64,112
65135,note_on,30,0,13,,,,,,,,,12,,,,66,0
65157,note_on,25,0,12,,,,,,,,,11,,,,64,0
65160,note_on,60,0,11,,,,,,,,,10,,,,73,0
65160,note_on,25,0,13,,,,,,,,,12,,,,64,0
65160,set_tempo,60,1,0,,,,,,1200000,,,,,,,,
65162,note_on,0,0,2,,,,,,,,,1,,,,71,100
65162,note_on,120,0,2,,,,,,,,,1,,,,73,0
65162,note_on,5,0,12,,,,,,,,,11,,,,64,112
65165,note_on,5,0,13,,,,,,,,,12,,,,64,112
65167,note_on,120,0,4,,,,,,,,,3,,,,57,0
65167,note_on,0,0,4,,,,,,,,,3,,,,61,0
65167,note_on,0,0,4,,,,,,,,,3,,,,56,100
65167,note_on,0,0,4,,,,,,,,,3,,,,59,100
65167,note_on,60,0,14,,,,,,,,,13,,,,56,50
65169,note_on,60,0,15,,,,,,,,,14,,,,44,50
65192,note_on,0,0,12,,,,,,,,,11,,,,62,112
65192,note_on,30,0,12,,,,,,,,,11,,,,64,0
65195,note_on,0,0,13,,,,,,,,,12,,,,62,112
65195,note_on,30,0,13,,,,,,,,,12,,,,64,0
65220,set_tempo,60,1,0,,,,,,1153846,,,,,,,,
65220,note_on,60,0,11,,,,,,,,,10,,,,76,127
65222,note_on,30,0,12,,,,,,,,,11,,,,62,0
65222,note_on,0,0,12,,,,,,,,,11,,,,61,112
65225,note_on,30,0,13,,,,,,,,,12,,,,62,0
65225,note_on,0,0,13,,,,,,,,,12,,,,61,112
65227,note_on,60,0,14,,,,,,,,,13,,,,56,0
65227,note_on,60,0,4,,,,,,,,,3,,,,56,0
65227,note_on,0,0,4,,,,,,,,,3,,,,55,100
65227,note_on,0,0,14,,,,,,,,,13,,,,55,50
65229,note_on,60,0,15,,,,,,,,,14,,,,44,0
65229,note_on,0,0,15,,,,,,,,,14,,,,43,50
65252,note_on,0,0,12,,,,,,,,,11,,,,59,112
65252,note_on,30,0,12,,,,,,,,,11,,,,61,0
65255,note_on,30,0,13,,,,,,,,,12,,,,61,0
65255,note_on,0,0,13,,,,,,,,,12,,,,59,112
65277,note_on,25,0,12,,,,,,,,,11,,,,59,0
65280,set_tempo,60,1,0,,,,,,1200000,,,,,,,,
65280,note_on,60,0,11,,,,,,,,,10,,,,76,0
65280,note_on,25,0,13,,,,,,,,,12,,,,59,0
65282,note_on,0,0,2,,,,,,,,,1,,,,70,100
65282,note_on,120,0,2,,,,,,,,,1,,,,71,0
65282,control_change,0,0,2,,,,,,,,,1,11,47,,,
65282,note_on,5,0,12,,,,,,,,,11,,,,61,112
65285,note_on,5,0,13,,,,,,,,,12,,,,61,112
65287,note_on,60,0,4,,,,,,,,,3,,,,55,0
65287,note_on,0,0,4,,,,,,,,,3,,,,59,0
65287,note_on,0,0,4,,,,,,,,,3,,,,54,100
65287,note_on,0,0,4,,,,,,,,,3,,,,61,100
65287,control_change,0,0,4,,,,,,,,,3,11,47,,,
65287,note_on,0,0,14,,,,,,,,,13,,,,54,50
65287,note_on,60,0,14,,,,,,,,,13,,,,55,0
65289,note_on,60,0,15,,,,,,,,,14,,,,43,0
65289,note_on,0,0,15,,,,,,,,,14,,,,42,50
65303,control_change,21,0,2,,,,,,,,,1,11,48,,,
65308,control_change,21,0,4,,,,,,,,,3,11,48,,,
65312,note_on,0,0,12,,,,,,,,,11,,,,63,112
65312,note_on,30,0,12,,,,,,,,,11,,,,61,0
65315,note_on,0,0,13,,,,,,,,,12,,,,63,112
65315,note_on,30,0,13,,,,,,,,,12,,,,61,0
65324,control_change,21,0,2,,,,,,,,,1,11,49,,,
65329,control_change,21,0,4,,,,,,,,,3,11,49,,,
65340,set_tempo,60,1,0,,,,,,1153846,,,,,,,,
65340,note_on,60,0,11,,,,,,,,,10,,,,78,127
65342,note_on,30,0,12,,,,,,,,,11,,,,63,0
65342,note_on,0,0,12,,,,,,,,,11,,,,64,112
65345,note_on,30,0,13,,,,,,,,,12,,,,63,0
65345,control_change,21,0,2,,,,,,,,,1,11,50,,,
65345,note_on,0,0,13,,,,,,,,,12,,,,64,112
65347,note_on,60,0,14,,,,,,,,,13,,,,54,0
65349,note_on,60,0,15,,,,,,,,,14,,,,42,0
65350,control_change,21,0,4,,,,,,,,,3,11,50,,,
65366,control_change,21,0,2,,,,,,,,,1,11,51,,,
65371,control_change,21,0,4,,,,,,,,,3,11,51,,,
65372,note_on,30,0,12,,,,,,,,,11,,,,64,0
65372,note_on,0,0,12,,,,,,,,,11,,,,65,112
65375,note_on,30,0,13,,,,,,,,,12,,,,64,0
65375,note_on,0,0,13,,,,,,,,,12,,,,65,112
65387,control_change,21,0,2,,,,,,,,,1,11,52,,,
65392,control_change,21,0,4,,,,,,,,,3,11,52,,,
65400,set_tempo,60,1,0,,,,,,1200000,,,,,,,,
65400,note_on,60,0,11,,,,,,,,,10,,,,78,0
65402,note_on,0,0,12,,,,,,,,,11,,,,66,112
65402,note_on,30,0,12,,,,,,,,,11,,,,65,0
65405,note_on,30,0,13,,,,,,,,,12,,,,65,0
65405,note_on,0,0,13,,,,,,,,,12,,,,66,112
65408,control_change,21,0,2,,,,,,,,,1,11,53,,,
65413,control_change,21,0,4,,,,,,,,,3,11,53,,,
65429,control_change,21,0,2,,,,,,,,,1,11,54,,,
65432,note_on,0,0,12,,,,,,,,,11,,,,64,112
65432,note_on,30,0,12,,,,,,,,,11,,,,66,0
65434,control_change,21,0,4,,,,,,,,,3,11,54,,,
65435,note_on,0,0,13,,,,,,,,,12,,,,64,112
65435,note_on,30,0,13,,,,,,,,,12,,,,66,0
65450,control_change,21,0,2,,,,,,,,,1,11,55,,,
65455,control_change,21,0,4,,,,,,,,,3,11,55,,,
65457,note_on,7,0,2,,,,,,,,,1,,,,70,0
65457,note_on,0,0,2,,,,,,,,,1,,,,64,0
65460,note_on,60,0,11,,,,,,,,,10,,,,82,127
65460,set_tempo,60,1,0,,,,,,1153846,,,,,,,,
65462,note_on,0,0,12,,,,,,,,,11,,,,61,112
65462,note_on,30,0,12,,,,,,,,,11,,,,64,0
65462,note_on,7,0,4,,,,,,,,,3,,,,61,0
65462,note_on,5,0,2,,,,,,,,,1,,,,67,115
65462,note_on,0,0,4,,,,,,,,,3,,,,54,0
65465,note_on,30,0,13,,,,,,,,,12,,,,64,0
65465,note_on,0,0,13,,,,,,,,,12,,,,61,112
65467,note_on,120,0,14,,,,,,,,,13,,,,52,50
65467,note_on,0,0,4,,,,,,,,,3,,,,58,100
65467,note_on,5,0,4,,,,,,,,,3,,,,61,100
65469,note_on,120,0,15,,,,,,,,,14,,,,40,50
65471,control_change,9,0,2,,,,,,,,,1,11,56,,,
65476,control_change,9,0,4,,,,,,,,,3,11,56,,,
65492,note_on,30,0,12,,,,,,,,,11,,,,61,0
65492,control_change,21,0,2,,,,,,,,,1,11,57,,,
65492,note_on,0,0,12,,,,,,,,,11,,,,58,112
65495,note_on,30,0,13,,,,,,,,,12,,,,61,0
65495,note_on,0,0,13,,,,,,,,,12,,,,58,112
65497,control_change,21,0,4,,,,,,,,,3,11,57,,,
65507,note_on,15,0,2,,,,,,,,,1,,,,67,0
65507,note_on,0,0,2,,,,,,,,,1,,,,66,100
65513,control_change,6,0,2,,,,,,,,,1,11,57,,,
65517,note_on,4,0,2,,,,,,,,,1,,,,66,0
65517,note_on,25,0,12,,,,,,,,,11,,,,58,0
65518,control_change,21,0,4,,,,,,,,,3,11,58,,,
65520,set_tempo,60,1,0,,,,,,1200000,,,,,,,,
65520,note_on,60,0,11,,,,,,,,,10,,,,82,0
65520,note_on,25,0,13,,,,,,,,,12,,,,58,0
65522,note_on,5,0,12,,,,,,,,,11,,,,59,112
65522,note_on,5,0,2,,,,,,,,,1,,,,66,100
65525,note_on,5,0,13,,,,,,,,,12,,,,59,112
65527,note_on,0,0,4,,,,,,,,,3,,,,61,0
65527,note_on,9,0,4,,,,,,,,,3,,,,58,0
65527,note_on,0,0,4,,,,,,,,,3,,,,62,100
65527,note_on,0,0,4,,,,,,,,,3,,,,59,100
65527,note_on,0,0,14,,,,,,,,,13,,,,50,50
65527,note_on,60,0,14,,,,,,,,,13,,,,52,0
65529,note_on,60,0,15,,,,,,,,,14,,,,40,0
65529,note_on,0,0,15,,,,,,,,,14,,,,38,50
65534,control_change,12,0,2,,,,,,,,,1,11,58,,,
65539,control_change,12,0,4,,,,,,,,,3,11,59,,,
65550,note_on,30,0,11,,,,,,,,,10,,,,83,112
65552,note_on,0,0,12,,,,,,,,,11,,,,62,112
65552,note_on,30,0,12,,,,,,,,,11,,,,59,0
65555,note_on,30,0,13,,,,,,,,,12,,,,59,0
65555,control_change,21,0,2,,,,,,,,,1,11,59,,,
65555,note_on,0,0,13,,,,,,,,,12,,,,62,112
65560,control_change,21,0,4,,,,,,,,,3,11,60,,,
65573,note_on,23,0,11,,,,,,,,,10,,,,83,0
65576,control_change,21,0,2,,,,,,,,,1,11,60,,,
65580,set_tempo,60,1,0,,,,,,1153846,,,,,,,,
65581,control_change,21,0,4,,,,,,,,,3,11,61,,,
65582,note_on,30,0,12,,,,,,,,,11,,,,62,0
65582,note_on,6,0,2,,,,,,,,,1,,,,66,0
65582,note_on,0,0,2,,,,,,,,,1,,,,71,100
65582,note_on,0,0,12,,,,,,,,,11,,,,61,112
65585,note_on,0,0,13,,,,,,,,,12,,,,61,112
65585,note_on,30,0,13,,,,,,,,,12,,,,62,0
65587,note_on,0,0,14,,,,,,,,,13,,,,55,50
65587,note_on,60,0,14,,,,,,,,,13,,,,50,0
65589,note_on,0,0,15,,,,,,,,,14,,,,43,50
65589,note_on,60,0,15,,,,,,,,,14,,,,38,0
65597,control_change,15,0,2,,,,,,,,,1,11,60,,,
65602,control_change,21,0,4,,,,,,,,,3,11,62,,,
65610,note_on,37,0,11,,,,,,,,,10,,,,74,112
65612,note_on,0,0,12,,,,,,,,,11,,,,59,112
65612,note_on,30,0,12,,,,,,,,,11,,,,61,0
65615,note_on,0,0,13,,,,,,,,,12,,,,59,112
65615,note_on,30,0,13,,,,,,,,,12,,,,61,0
65618,control_change,21,0,2,,,,,,,,,1,11,61,,,
65623,control_change,21,0,4,,,,,,,,,3,11,63,,,
65633,note_on,23,0,11,,,,,,,,,10,,,,74,0
65637,note_on,25,0,12,,,,,,,,,11,,,,59,0
65639,control_change,21,0,2,,,,,,,,,1,11,62,,,
65640,set_tempo,60,1,0,,,,,,1200000,,,,,,,,
65640,note_on,25,0,13,,,,,,,,,12,,,,59,0
65642,note_on,5,0,12,,,,,,,,,11,,,,61,112
65642,note_on,3,0,2,,,,,,,,,1,,,,73,100
65644,control_change,21,0,4,,,,,,,,,3,11,64,,,
65645,note_on,5,0,13,,,,,,,,,12,,,,61,112
65647,note_on,0,0,4,,,,,,,,,3,,,,61,100
65647,note_on,0,0,14,,,,,,,,,13,,,,52,50
65647,note_on,60,0,14,,,,,,,,,13,,,,55,0
65647,note_on,3,0,4,,,,,,,,,3,,,,62,0
65649,note_on,0,0,15,,,,,,,,,14,,,,40,50
65649,note_on,60,0,15,,,,,,,,,14,,,,43,0
65660,control_change,18,0,2,,,,,,,,,1,11,63,,,
65665,control_change,18,0,4,,,,,,,,,3,11,65,,,
65670,note_on,37,0,11,,,,,,,,,10,,,,79,112
65672,note_on,30,0,12,,,,,,,,,11,,,,61,0
65672,note_on,0,0,12,,,,,,,,,11,,,,67,112
65675,note_on,30,0,13,,,,,,,,,12,,,,61,0
65675,note_on,0,0,13,,,,,,,,,12,,,,67,112
65681,control_change,21,0,2,,,,,,,,,1,11,63,,,
65686,control_change,21,0,4,,,,,,,,,3,11,66,,,
65693,note_on,23,0,11,,,,,,,,,10,,,,79,0
65700,set_tempo,60,1,0,,,,,,1153846,,,,,,,,
65702,control_change,0,0,2,,,,,,,,,1,11,64,,,
65702,note_on,0,0,12,,,,,,,,,11,,,,66,112
65702,note_on,30,0,12,,,,,,,,,11,,,,67,0
65702,note_on,21,0,2,,,,,,,,,1,,,,73,0
65702,note_on,0,0,2,,,,,,,,,1,,,,71,0
65702,note_on,0,0,2,,,,,,,,,1,,,,70,100
65702,note_on,0,0,2,,,,,,,,,1,,,,74,100
65705,note_on,30,0,13,,,,,,,,,12,,,,67,0
65705,note_on,0,0,13,,,,,,,,,12,,,,66,112
65707,note_on,0,0,4,,,,,,,,,3,,,,62,100
65707,note_on,0,0,4,,,,,,,,,3,,,,58,100
65707,note_on,0,0,4,,,,,,,,,3,,,,59,0
65707,note_on,21,0,4,,,,,,,,,3,,,,61,0
65707,control_change,0,0,4,,,,,,,,,3,11,67,,,
65707,note_on,0,0,14,,,,,,,,,13,,,,54,50
65707,note_on,60,0,14,,,,,,,,,13,,,,52,0
65709,note_on,0,0,15,,,,,,,,,14,,,,42,50
65709,note_on,60,0,15,,,,,,,,,14,,,,40,0
65719,control_change,12,0,4,,,,,,,,,3,11,64,,,
65726,control_change,24,0,2,,,,,,,,,1,11,60,,,
65730,note_on,37,0,11,,,,,,,,,10,,,,78,112
65731,control_change,12,0,4,,,,,,,,,3,11,61,,,
65732,note_on,0,0,2,,,,,,,,,1,,,,76,100
65732,note_on,6,0,2,,,,,,,,,1,,,,74,0
65732,note_on,0,0,12,,,,,,,,,11,,,,64,112
65732,note_on,30,0,12,,,,,,,,,11,,,,66,0
65735,note_on,30,0,13,,,,,,,,,12,,,,66,0
65735,note_on,0,0,13,,,,,,,,,12,,,,64,112
65737,note_on,6,0,4,,,,,,,,,3,,,,62,0
65737,note_on,0,0,4,,,,,,,,,3,,,,64,100
65738,control_change,6,0,2,,,,,,,,,1,11,57,,,
65743,control_change,6,0,4,,,,,,,,,3,11,58,,,
65753,note_on,23,0,11,,,,,,,,,10,,,,78,0
65755,control_change,12,0,4,,,,,,,,,3,11,55,,,
65757,note_on,25,0,12,,,,,,,,,11,,,,64,0
65757,note_on,19,0,2,,,,,,,,,1,,,,76,0
65757,note_on,0,0,2,,,,,,,,,1,,,,70,0
65760,note_on,25,0,13,,,,,,,,,12,,,,64,0
65760,set_tempo,60,1,0,,,,,,1200000,,,,,,,,
65762,note_on,5,0,2,,,,,,,,,1,,,,71,100
65762,control_change,0,0,2,,,,,,,,,1,11,52,,,
65762,note_on,0,0,2,,,,,,,,,1,,,,74,100
65762,note_on,0,0,4,,,,,,,,,3,,,,58,0
65762,note_on,7,0,4,,,,,,,,,3,,,,64,0
65762,note_on,5,0,12,,,,,,,,,11,,,,62,112
65765,note_on,5,0,13,,,,,,,,,12,,,,62,112
65767,note_on,0,0,4,,,,,,,,,3,,,,59,100
65767,note_on,0,0,4,,,,,,,,,3,,,,62,100
65767,control_change,5,0,4,,,,,,,,,3,11,52,,,
65767,note_on,60,0,14,,,,,,,,,13,,,,54,0
65767,note_on,0,0,14,,,,,,,,,13,,,,59,50
65769,note_on,60,0,15,,,,,,,,,14,,,,42,0
65769,note_on,0,0,15,,,,,,,,,14,,,,47,50
65792,note_on,0,0,12,,,,,,,,,11,,,,59,112
65792,note_on,30,0,12,,,,,,,,,11,,,,62,0
65795,note_on,0,0,13,,,,,,,,,12,,,,59,112
65795,note_on,30,0,13,,,,,,,,,12,,,,62,0
65820,set_tempo,60,1,0,,,,,,1153846,,,,,,,,
65820,note_on,67,0,11,,,,,,,,,10,,,,74,112
65822,note_on,0,0,12,,,,,,,,,11,,,,62,112
65822,note_on,30,0,12,,,,,,,,,11,,,,59,0
65825,note_on,0,0,13,,,,,,,,,12,,,,62,112
65825,note_on,30,0,13,,,,,,,,,12,,,,59,0
65827,note_on,0,0,4,,,,,,,,,3,,,,62,0
65827,note_on,60,0,14,,,,,,,,,13,,,,59,0
65827,note_on,0,0,14,,,,,,,,,13,,,,57,50
65827,note_on,0,0,4,,,,,,,,,3,,,,65,100
65827,note_on,0,0,4,,,,,,,,,3,,,,57,100
65827,note_on,60,0,4,,,,,,,,,3,,,,59,0
65829,note_on,60,0,15,,,,,,,,,14,,,,47,0
65829,note_on,0,0,15,,,,,,,,,14,,,,45,50
65852,note_on,0,0,12,,,,,,,,,11,,,,65,112
65852,note_on,30,0,12,,,,,,,,,11,,,,62,0
65855,note_on,0,0,13,,,,,,,,,12,,,,65,112
65855,note_on,30,0,13,,,,,,,,,12,,,,62,0
65877,note_on,25,0,12,,,,,,,,,11,,,,65,0
65880,set_tempo,60,1,0,,,,,,1200000,,,,,,,,
65880,control_change,0,0,11,,,,,,,,,10,11,41,,,
65880,note_on,25,0,13,,,,,,,,,12,,,,65,0
65880,note_on,60,0,11,,,,,,,,,10,,,,74,0
65882,note_on,5,0,12,,,,,,,,,11,,,,64,112
65882,control_change,0,0,12,,,,,,,,,11,11,41,,,
65885,note_on,5,0,13,,,,,,,,,12,,,,64,112
65885,control_change,0,0,13,,,,,,,,,12,11,41,,,
65887,note_on,60,0,4,,,,,,,,,3,,,,57,0
65887,note_on,0,0,4,,,,,,,,,3,,,,56,100
65887,note_on,0,0,14,,,,,,,,,13,,,,56,49
65887,note_on,60,0,14,,,,,,,,,13,,,,57,0
65887,note_on,0,0,4,,,,,,,,,3,,,,64,100
65887,note_on,0,0,4,,,,,,,,,3,,,,65,0
65889,note_on,60,0,15,,,,,,,,,14,,,,45,0
65889,note_on,0,0,15,,,,,,,,,14,,,,44,49
65896,control_change,16,0,11,,,,,,,,,10,11,42,,,
65898,control_change,16,0,12,,,,,,,,,11,11,42,,,
65901,control_change,16,0,13,,,,,,,,,12,11,42,,,
65912,control_change,16,0,11,,,,,,,,,10,11,44,,,
65912,note_on,0,0,12,,,,,,,,,11,,,,74,112
65912,note_on,14,0,12,,,,,,,,,11,,,,64,0
65912,note_on,150,0,2,,,,,,,,,1,,,,74,0
65912,note_on,0,0,2,,,,,,,,,1,,,,71,100
65914,control_change,2,0,12,,,,,,,,,11,11,44,,,
65915,note_on,14,0,13,,,,,,,,,12,,,,64,0
65915,note_on,0,0,13,,,,,,,,,12,,,,74,112
65917,control_change,2,0,13,,,,,,,,,12,11,44,,,
65928,control_change,16,0,11,,,,,,,,,10,11,46,,,
65930,control_change,16,0,12,,,,,,,,,11,11,46,,,
65933,control_change,16,0,13,,,,,,,,,12,11,46,,,
65940,note_on,12,0,11,,,,,,,,,10,,,,76,112
65940,set_tempo,60,1,0,,,,,,1153846,,,,,,,,
65942,note_on,0,0,2,,,,,,,,,1,,,,73,100
65942,note_on,12,0,12,,,,,,,,,11,,,,74,0
65942,note_on,0,0,12,,,,,,,,,11,,,,73,112
65942,note_on,30,0,2,,,,,,,,,1,,,,71,0
65942,note_on,0,0,2,,,,,,,,,1,,,,71,0
65944,control_change,4,0,11,,,,,,,,,10,11,48,,,
65945,note_on,12,0,13,,,,,,,,,12,,,,74,0
65945,note_on,0,0,13,,,,,,,,,12,,,,73,112
65946,control_change,4,0,12,,,,,,,,,11,11,48,,,
65947,note_on,60,0,14,,,,,,,,,13,,,,56,0
65949,note_on,60,0,15,,,,,,,,,14,,,,44,0
65949,control_change,4,0,13,,,,,,,,,12,11,48,,,
65960,control_change,16,0,11,,,,,,,,,10,11,50,,,
65962,control_change,16,0,12,,,,,,,,,11,11,50,,,
65965,control_change,16,0,13,,,,,,,,,12,11,50,,,
65970,set_tempo,30,1,0,,,,,,1318681,,,,,,,,
65972,note_on,10,0,12,,,,,,,,,11,,,,73,0
65972,note_on,0,0,12,,,,,,,,,11,,,,71,112
65972,note_on,30,0,2,,,,,,,,,1,,,,73,0
65972,note_on,0,0,2,,,,,,,,,1,,,,74,100
65975,note_on,0,0,13,,,,,,,,,12,,,,71,112
65975,note_on,10,0,13,,,,,,,,,12,,,,73,0
65976,control_change,16,0,11,,,,,,,,,10,11,52,,,
65978,control_change,6,0,12,,,,,,,,,11,11,52,,,
65981,control_change,6,0,13,,,,,,,,,12,11,52,,,
65992,control_change,16,0,11,,,,,,,,,10,11,54,,,
65994,control_change,16,0,12,,,,,,,,,11,11,54,,,
65997,control_change,16,0,13,,,,,,,,,12,11,54,,,
65997,note_on,25,0,2,,,,,,,,,1,,,,74,0
65997,note_on,3,0,12,,,,,,,,,11,,,,71,0
66000,note_on,8,0,11,,,,,,,,,10,,,,76,0
66000,note_on,3,0,13,,,,,,,,,12,,,,71,0
66000,set_tempo,30,1,0,,,,,,1200000,,,,,,,,
66001,note_on,900,0,1,,,,,,,,,0,,,,81,101
66001,control_change,0,0,1,,,,,,,,,0,11,47,,,
66001,note_on,0,0,1,,,,,,,,,0,,,,85,101
66002,note_on,5,0,12,,,,,,,,,11,,,,69,112
66002,note_on,0,0,2,,,,,,,,,1,,,,73,100
66002,note_on,0,0,4,,,,,,,,,3,,,,64,0
66002,note_on,115,0,4,,,,,,,,,3,,,,56,0
66002,note_on,0,0,2,,,,,,,,,1,,,,69,100
66002,control_change,5,0,2,,,,,,,,,1,11,47,,,
66002,note_on,900,0,3,,,,,,,,,2,,,,73,101
66002,control_change,0,0,3,,,,,,,,,2,11,47,,,
66002,note_on,0,0,3,,,,,,,,,2,,,,69,101
66005,control_change,4,0,1,,,,,,,,,0,11,50,,,
66005,note_on,5,0,13,,,,,,,,,12,,,,69,112
66006,control_change,4,0,3,,,,,,,,,2,11,50,,,
66006,control_change,4,0,2,,,,,,,,,1,11,50,,,
66007,note_on,60,0,14,,,,,,,,,13,,,,57,63
66009,note_on,60,0,15,,,,,,,,,14,,,,45,63
66010,control_change,5,0,1,,,,,,,,,0,11,53,,,
66011,control_change,5,0,2,,,,,,,,,1,11,53,,,
66011,control_change,5,0,3,,,,,,,,,2,11,53,,,
66014,control_change,4,0,1,,,,,,,,,0,11,56,,,
66015,control_change,4,0,3,,,,,,,,,2,11,56,,,
66015,control_change,4,0,2,,,,,,,,,1,11,56,,,
66023,control_change,9,0,1,,,,,,,,,0,11,60,,,
66024,control_change,9,0,3,,,,,,,,,2,11,60,,,
66024,control_change,9,0,2,,,,,,,,,1,11,60,,,
66028,control_change,5,0,1,,,,,,,,,0,11,63,,,
66029,control_change,5,0,2,,,,,,,,,1,11,63,,,
66029,control_change,5,0,3,,,,,,,,,2,11,63,,,
66032,note_on,30,0,12,,,,,,,,,11,,,,69,0
66032,note_on,0,0,12,,,,,,,,,11,,,,64,112
66035,note_on,0,0,13,,,,,,,,,12,,,,64,112
66035,note_on,30,0,13,,,,,,,,,12,,,,69,0
66060,set_tempo,60,1,0,,,,,,1111111,,,,,,,,
66060,note_on,60,0,11,,,,,,,,,10,,,,73,112
66061,note_on,0,0,1,,,,,,,,,0,,,,85,101
66061,note_on,33,0,1,,,,,,,,,0,,,,85,0
66061,note_on,0,0,1,,,,,,,,,0,,,,88,101
66061,note_on,0,0,1,,,,,,,,,0,,,,81,0
66062,note_on,30,0,12,,,,,,,,,11,,,,64,0
66062,note_on,0,0,12,,,,,,,,,11,,,,61,112
66062,note_on,0,0,3,,,,,,,,,2,,,,73,101
66062,note_on,0,0,2,,,,,,,,,1,,,,73,100
66062,note_on,0,0,2,,,,,,,,,1,,,,69,0
66062,note_on,33,0,2,,,,,,,,,1,,,,73,0
66062,note_on,33,0,3,,,,,,,,,2,,,,69,0
66062,note_on,0,0,3,,,,,,,,,2,,,,76,101
66062,note_on,0,0,3,,,,,,,,,2,,,,73,0
66062,note_on,0,0,2,,,,,,,,,1,,,,76,100
66065,note_on,0,0,13,,,,,,,,,12,,,,61,112
66065,note_on,30,0,13,,,,,,,,,12,,,,64,0
66067,note_on,60,0,14,,,,,,,,,13,,,,57,0
66069,note_on,60,0,15,,,,,,,,,14,,,,45,0
66092,note_on,30,0,12,,,,,,,,,11,,,,61,0
66092,note_on,0,0,12,,,,,,,,,11,,,,64,112
66095,note_on,0,0,13,,,,,,,,,12,,,,64,112
66095,note_on,30,0,13,,,,,,,,,12,,,,61,0
66106,note_on,0,0,1,,,,,,,,,0,,,,88,0
66106,note_on,0,0,1,,,,,,,,,0,,,,83,101
66106,note_on,0,0,1,,,,,,,,,0,,,,86,101
66106,note_on,45,0,1,,,,,,,,,0,,,,85,0
66107,note_on,45,0,2,,,,,,,,,1,,,,76,0
66107,note_on,0,0,3,,,,,,,,,2,,,,71,101
66107,note_on,0,0,2,,,,,,,,,1,,,,71,100
66107,note_on,45,0,3,,,,,,,,,2,,,,76,0
66107,note_on,0,0,2,,,,,,,,,1,,,,73,0
66107,note_on,0,0,3,,,,,,,,,2,,,,74,101
66107,note_on,0,0,3,,,,,,,,,2,,,,73,0
66107,note_on,0,0,2,,,,,,,,,1,,,,74,100
66120,note_on,60,0,11,,,,,,,,,10,,,,73,0
66120,set_tempo,60,1,0,,,,,,1188119,,,,,,,,
66121,note_on,15,0,1,,,,,,,,,0,,,,83,0
66121,note_on,0,0,1,,,,,,,,,0,,,,85,101
66121,note_on,0,0,1,,,,,,,,,0,,,,81,101
66121,note_on,0,0,1,,,,,,,,,0,,,,86,0
66122,note_on,0,0,12,,,,,,,,,11,,,,69,112
66122,note_on,30,0,12,,,,,,,,,11,,,,64,0
66122,note_on,0,0,3,,,,,,,,,2,,,,73,101
66122,note_on,0,0,2,,,,,,,,,1,,,,69,100
66122,note_on,0,0,2,,,,,,,,,1,,,,73,100
66122,note_on,0,0,2,,,,,,,,,1,,,,74,0
66122,note_on,15,0,3,,,,,,,,,2,,,,74,0
66122,note_on,0,0,3,,,,,,,,,2,,,,71,0
66122,note_on,0,0,3,,,,,,,,,2,,,,69,101
66122,note_on,15,0,2,,,,,,,,,1,,,,71,0
66125,note_on,0,0,13,,,,,,,,,12,,,,69,112
66125,note_on,30,0,13,,,,,,,,,12,,,,64,0
66127,note_on,60,0,14,,,,,,,,,13,,,,57,63
66129,note_on,60,0,15,,,,,,,,,14,,,,45,63
66152,note_on,30,0,12,,,,,,,,,11,,,,69,0
66152,note_on,0,0,12,,,,,,,,,11,,,,64,112
66155,note_on,0,0,13,,,,,,,,,12,,,,64,112
66155,note_on,30,0,13,,,,,,,,,12,,,,69,0
66180,set_tempo,60,1,0,,,,,,1111111,,,,,,,,
66180,note_on,60,0,11,,,,,,,,,10,,,,76,112
66181,note_on,60,0,1,,,,,,,,,0,,,,85,0
66181,note_on,0,0,1,,,,,,,,,0,,,,76,101
66181,note_on,0,0,1,,,,,,,,,0,,,,83,101
66181,note_on,0,0,1,,,,,,,,,0,,,,81,0
66182,note_on,0,0,2,,,,,,,,,1,,,,76,100
66182,note_on,30,0,12,,,,,,,,,11,,,,64,0
66182,note_on,60,0,2,,,,,,,,,1,,,,69,0
66182,note_on,0,0,2,,,,,,,,,1,,,,73,0
66182,note_on,60,0,3,,,,,,,,,2,,,,73,0
66182,note_on,0,0,3,,,,,,,,,2,,,,64,101
66182,note_on,0,0,3,,,,,,,,,2,,,,71,101
66182,note_on,0,0,2,,,,,,,,,1,,,,71,100
66182,note_on,0,0,12,,,,,,,,,11,,,,66,112
66182,note_on,0,0,3,,,,,,,,,2,,,,69,0
66185,note_on,30,0,13,,,,,,,,,12,,,,64,0
66185,note_on,0,0,13,,,,,,,,,12,,,,66,112
66187,note_on,60,0,14,,,,,,,,,13,,,,57,0
66187,note_on,0,0,14,,,,,,,,,13,,,,56,63
66189,note_on,0,0,15,,,,,,,,,14,,,,44,63
66189,note_on,60,0,15,,,,,,,,,14,,,,45,0
66212,note_on,0,0,12,,,,,,,,,11,,,,68,112
66212,note_on,30,0,12,,,,,,,,,11,,,,66,0
66215,note_on,30,0,13,,,,,,,,,12,,,,66,0
66215,note_on,0,0,13,,,,,,,,,12,,,,68,112
66236,note_on,0,0,1,,,,,,,,,0,,,,76,0
66236,note_on,55,0,1,,,,,,,,,0,,,,83,0
66237,note_on,55,0,3,,,,,,,,,2,,,,71,0
66237,note_on,0,0,2,,,,,,,,,1,,,,71,0
66237,note_on,55,0,2,,,,,,,,,1,,,,76,0
66237,note_on,25,0,12,,,,,,,,,11,,,,68,0
66237,note_on,0,0,3,,,,,,,,,2,,,,64,0
66240,set_tempo,60,1,0,,,,,,1200000,,,,,,,,
66240,note_on,60,0,11,,,,,,,,,10,,,,76,0
66240,note_on,25,0,13,,,,,,,,,12,,,,68,0
66241,note_on,5,0,1,,,,,,,,,0,,,,81,101
66241,note_on,0,0,1,,,,,,,,,0,,,,73,101
66242,note_on,0,0,2,,,,,,,,,1,,,,73,100
66242,note_on,5,0,2,,,,,,,,,1,,,,69,100
66242,note_on,0,0,3,,,,,,,,,2,,,,61,101
66242,note_on,5,0,3,,,,,,,,,2,,,,69,101
66242,note_on,5,0,12,,,,,,,,,11,,,,69,112
66245,note_on,5,0,13,,,,,,,,,12,,,,69,112
66247,note_on,60,0,14,,,,,,,,,13,,,,56,0
66247,note_on,0,0,14,,,,,,,,,13,,,,54,63
66249,note_on,0,0,15,,,,,,,,,14,,,,42,63
66249,note_on,60,0,15,,,,,,,,,14,,,,44,0
66272,note_on,0,0,12,,,,,,,,,11,,,,57,112
66272,note_on,30,0,12,,,,,,,,,11,,,,69,0
66275,note_on,0,0,13,,,,,,,,,12,,,,57,112
66275,note_on,30,0,13,,,,,,,,,12,,,,69,0
66300,note_on,60,0,11,,,,,,,,,10,,,,81,112
66300,set_tempo,60,1,0,,,,,,1111111,,,,,,,,
66302,note_on,30,0,12,,,,,,,,,11,,,,57,0
66302,note_on,0,0,12,,,,,,,,,11,,,,61,112
66305,note_on,0,0,13,,,,,,,,,12,,,,61,112
66305,note_on,30,0,13,,,,,,,,,12,,,,57,0
66307,note_on,60,0,14,,,,,,,,,13,,,,54,0
66309,note_on,60,0,15,,,,,,,,,14,,,,42,0
66332,note_on,0,0,12,,,,,,,,,11,,,,66,112
66332,note_on,30,0,12,,,,,,,,,11,,,,61,0
66335,note_on,0,0,13,,,,,,,,,12,,,,66,112
66335,note_on,30,0,13,,,,,,,,,12,,,,61,0
66360,set_tempo,60,1,0,,,,,,1188119,,,,,,,,
66360,note_on,60,0,11,,,,,,,,,10,,,,81,0
66361,note_on,0,0,1,,,,,,,,,0,,,,82,116
66361,note_on,0,0,1,,,,,,,,,0,,,,79,116
66361,note_on,0,0,1,,,,,,,,,0,,,,81,0
66361,note_on,120,0,1,,,,,,,,,0,,,,73,0
66362,note_on,0,0,2,,,,,,,,,1,,,,70,115
66362,note_on,0,0,2,,,,,,,,,1,,,,76,115
66362,note_on,120,0,2,,,,,,,,,1,,,,73,0
66362,note_on,120,0,3,,,,,,,,,2,,,,61,0
66362,note_on,0,0,2,,,,,,,,,1,,,,69,0
66362,note_on,0,0,3,,,,,,,,,2,,,,70,116
66362,note_on,0,0,3,,,,,,,,,2,,,,69,0
66362,note_on,0,0,12,,,,,,,,,11,,,,67,112
66362,note_on,0,0,3,,,,,,,,,2,,,,67,116
66362,note_on,30,0,12,,,,,,,,,11,,,,66,0
66365,note_on,30,0,13,,,,,,,,,12,,,,66,0
66365,note_on,0,0,13,,,,,,,,,12,,,,67,112
66367,note_on,60,0,14,,,,,,,,,13,,,,49,63
66369,note_on,60,0,15,,,,,,,,,14,,,,37,63
66392,note_on,30,0,12,,,,,,,,,11,,,,67,0
66392,note_on,0,0,12,,,,,,,,,11,,,,64,112
66395,note_on,0,0,13,,,,,,,,,12,,,,64,112
66395,note_on,30,0,13,,,,,,,,,12,,,,67,0
66420,set_tempo,60,1,0,,,,,,1111111,,,,,,,,
66420,note_on,60,0,11,,,,,,,,,10,,,,88,112
66422,note_on,30,0,12,,,,,,,,,11,,,,64,0
66422,note_on,0,0,12,,,,,,,,,11,,,,61,112
66425,note_on,0,0,13,,,,,,,,,12,,,,61,112
66425,note_on,30,0,13,,,,,,,,,12,,,,64,0
66427,note_on,60,0,14,,,,,,,,,13,,,,49,0
66429,note_on,60,0,15,,,,,,,,,14,,,,37,0
66452,note_on,30,0,12,,,,,,,,,11,,,,61,0
66452,note_on,0,0,12,,,,,,,,,11,,,,58,112
66455,note_on,30,0,13,,,,,,,,,12,,,,61,0
66455,note_on,0,0,13,,,,,,,,,12,,,,58,112
66476,note_on,115,0,1,,,,,,,,,0,,,,82,0
66476,note_on,0,0,1,,,,,,,,,0,,,,79,0
66477,note_on,0,0,2,,,,,,,,,1,,,,76,0
66477,note_on,115,0,2,,,,,,,,,1,,,,70,0
66477,note_on,0,0,3,,,,,,,,,2,,,,70,0
66477,note_on,25,0,12,,,,,,,,,11,,,,58,0
66477,note_on,115,0,3,,,,,,,,,2,,,,67,0
66480,note_on,25,0,13,,,,,,,,,12,,,,58,0
66480,note_on,60,0,11,,,,,,,,,10,,,,88,0
66480,set_tempo,60,1,0,,,,,,1200000,,,,,,,,
66481,note_on,5,0,1,,,,,,,,,0,,,,83,101
66481,note_on,0,0,1,,,,,,,,,0,,,,78,101
66482,note_on,5,0,12,,,,,,,,,11,,,,59,112
66482,note_on,5,0,2,,,,,,,,,1,,,,74,100
66482,note_on,0,0,3,,,,,,,,,2,,,,66,101
66482,note_on,0,0,2,,,,,,,,,1,,,,71,100
66482,note_on,5,0,3,,,,,,,,,2,,,,71,101
66485,note_on,5,0,13,,,,,,,,,12,,,,59,112
66487,note_on,60,0,14,,,,,,,,,13,,,,50,63
66489,note_on,60,0,15,,,,,,,,,14,,,,38,63
66510,note_on,30,0,11,,,,,,,,,10,,,,86,112
66512,note_on,30,0,12,,,,,,,,,11,,,,59,0
66512,note_on,0,0,12,,,,,,,,,11,,,,62,112
66515,note_on,0,0,13,,,,,,,,,12,,,,62,112
66515,note_on,30,0,13,,,,,,,,,12,,,,59,0
66532,note_on,45,0,14,,,,,,,,,13,,,,50,0
66533,note_on,23,0,11,,,,,,,,,10,,,,86,0
66534,note_on,45,0,15,,,,,,,,,14,,,,38,0
66540,set_tempo,60,1,0,,,,,,1111111,,,,,,,,
66541,note_on,60,0,1,,,,,,,,,0,,,,83,0
66541,note_on,0,0,1,,,,,,,,,0,,,,86,101
66542,note_on,0,0,12,,,,,,,,,11,,,,66,112
66542,note_on,30,0,12,,,,,,,,,11,,,,62,0
66542,note_on,0,0,3,,,,,,,,,2,,,,74,101
66542,note_on,60,0,3,,,,,,,,,2,,,,71,0
66542,note_on,0,0,2,,,,,,,,,1,,,,74,100
66542,note_on,60,0,2,,,,,,,,,1,,,,71,0
66545,note_on,0,0,13,,,,,,,,,12,,,,66,112
66545,note_on,30,0,13,,,,,,,,,12,,,,62,0
66547,note_on,15,0,14,,,,,,,,,13,,,,47,63
66549,note_on,15,0,15,,,,,,,,,14,,,,35,63
66570,note_on,37,0,11,,,,,,,,,10,,,,90,112
66571,note_on,0,0,1,,,,,,,,,0,,,,80,101
66571,note_on,30,0,1,,,,,,,,,0,,,,78,0
66572,note_on,30,0,3,,,,,,,,,2,,,,66,0
66572,note_on,0,0,3,,,,,,,,,2,,,,68,101
66572,note_on,30,0,12,,,,,,,,,11,,,,66,0
66572,note_on,0,0,12,,,,,,,,,11,,,,68,112
66575,note_on,0,0,13,,,,,,,,,12,,,,68,112
66575,note_on,30,0,13,,,,,,,,,12,,,,66,0
66592,note_on,45,0,14,,,,,,,,,13,,,,47,0
66593,note_on,23,0,11,,,,,,,,,10,,,,90,0
66594,note_on,45,0,15,,,,,,,,,14,,,,35,0
66600,set_tempo,60,1,0,,,,,,1188119,,,,,,,,
66601,note_on,0,0,1,,,,,,,,,0,,,,85,101
66601,note_on,0,0,1,,,,,,,,,0,,,,86,0
66601,note_on,30,0,1,,,,,,,,,0,,,,80,0
66601,note_on,0,0,1,,,,,,,,,0,,,,81,101
66602,note_on,0,0,3,,,,,,,,,2,,,,73,101
66602,note_on,0,0,3,,,,,,,,,2,,,,69,101
66602,note_on,0,0,12,,,,,,,,,11,,,,69,112
66602,note_on,30,0,12,,,,,,,,,11,,,,68,0
66602,note_on,0,0,2,,,,,,,,,1,,,,73,100
66602,note_on,0,0,2,,,,,,,,,1,,,,76,100
66602,note_on,0,0,3,,,,,,,,,2,,,,74,0
66602,note_on,30,0,3,,,,,,,,,2,,,,68,0
66602,note_on,0,0,2,,,,,,,,,1,,,,74,0
66602,note_on,60,0,2,,,,,,,,,1,,,,74,0
66605,note_on,0,0,13,,,,,,,,,12,,,,69,112
66605,note_on,30,0,13,,,,,,,,,12,,,,68,0
66607,note_on,15,0,14,,,,,,,,,13,,,,49,63
66609,note_on,15,0,15,,,,,,,,,14,,,,37,63
66630,note_on,37,0,11,,,,,,,,,10,,,,88,112
66632,note_on,0,0,12,,,,,,,,,11,,,,73,112
66632,note_on,30,0,12,,,,,,,,,11,,,,69,0
66635,note_on,30,0,13,,,,,,,,,12,,,,69,0
66635,note_on,0,0,13,,,,,,,,,12,,,,73,112
66652,note_on,45,0,14,,,,,,,,,13,,,,49,0
66653,note_on,23,0,11,,,,,,,,,10,,,,88,0
66654,note_on,45,0,15,,,,,,,,,14,,,,37,0
66660,set_tempo,60,1,0,,,,,,1111111,,,,,,,,
66661,note_on,0,0,1,,,,,,,,,0,,,,80,101
66661,note_on,0,0,1,,,,,,,,,0,,,,83,101
66661,note_on,0,0,1,,,,,,,,,0,,,,81,0
66661,note_on,60,0,1,,,,,,,,,0,,,,85,0
66662,note_on,60,0,2,,,,,,,,,1,,,,73,0
66662,note_on,0,0,12,,,,,,,,,11,,,,71,112
66662,note_on,0,0,3,,,,,,,,,2,,,,71,101
66662,note_on,0,0,3,,,,,,,,,2,,,,68,101
66662,note_on,0,0,3,,,,,,,,,2,,,,73,0
66662,note_on,60,0,3,,,,,,,,,2,,,,69,0
66662,note_on,0,0,2,,,,,,,,,1,,,,71,100
66662,note_on,30,0,12,,,,,,,,,11,,,,73,0
66665,note_on,0,0,13,,,,,,,,,12,,,,71,112
66665,note_on,30,0,13,,,,,,,,,12,,,,73,0
66667,note_on,15,0,14,,,,,,,,,13,,,,52,63
66669,note_on,15,0,15,,,,,,,,,14,,,,40,63
66690,set_tempo,30,1,0,,,,,,1379310,,,,,,,,
66690,note_on,37,0,11,,,,,,,,,10,,,,80,112
66692,note_on,30,0,12,,,,,,,,,11,,,,71,0
66692,note_on,0,0,12,,,,,,,,,11,,,,68,112
66695,note_on,30,0,13,,,,,,,,,12,,,,71,0
66695,note_on,0,0,13,,,,,,,,,12,,,,68,112
66712,note_on,45,0,14,,,,,,,,,13,,,,52,0
66713,note_on,23,0,11,,,,,,,,,10,,,,80,0
66714,note_on,45,0,15,,,,,,,,,14,,,,40,0
66716,note_on,55,0,1,,,,,,,,,0,,,,83,0
66717,note_on,25,0,12,,,,,,,,,11,,,,68,0
66717,note_on,55,0,3,,,,,,,,,2,,,,71,0
66717,note_on,55,0,2,,,,,,,,,1,,,,71,0
66717,note_on,0,0,2,,,,,,,,,1,,,,76,0
66720,control_change,7,0,11,,,,,,,,,10,11,45,,,
66720,note_on,0,0,11,,,,,,,,,10,,,,81,112
66720,set_tempo,30,1,0,,,,,,1200000,,,,,,,,
66720,note_on,25,0,13,,,,,,,,,12,,,,68,0
66721,control_change,5,0,1,,,,,,,,,0,11,64,,,
66721,note_on,0,0,1,,,,,,,,,0,,,,81,101
66722,control_change,5,0,12,,,,,,,,,11,11,45,,,
66722,note_on,0,0,12,,,,,,,,,11,,,,66,112
66722,control_change,0,0,3,,,,,,,,,2,11,64,,,
66722,note_on,5,0,3,,,,,,,,,2,,,,69,101
66725,control_change,0,0,13,,,,,,,,,12,11,45,,,
66725,note_on,5,0,13,,,,,,,,,12,,,,66,112
66727,note_on,15,0,14,,,,,,,,,13,,,,54,54
66729,note_on,15,0,15,,,,,,,,,14,,,,42,54
66733,control_change,12,0,1,,,,,,,,,0,11,60,,,
66734,control_change,12,0,3,,,,,,,,,2,11,60,,,
66739,control_change,6,0,1,,,,,,,,,0,11,57,,,
66740,control_change,6,0,3,,,,,,,,,2,11,57,,,
66751,control_change,12,0,1,,,,,,,,,0,11,52,,,
66752,note_on,0,0,12,,,,,,,,,11,,,,68,112
66752,note_on,30,0,12,,,,,,,,,11,,,,66,0
66752,control_change,12,0,3,,,,,,,,,2,11,52,,,
66755,note_on,30,0,13,,,,,,,,,12,,,,66,0
66755,note_on,0,0,13,,,,,,,,,12,,,,68,112
66775,note_on,55,0,11,,,,,,,,,10,,,,81,0
66776,note_on,25,0,1,,,,,,,,,0,,,,80,0
66777,note_on,25,0,3,,,,,,,,,2,,,,68,0
66780,note_on,5,0,11,,,,,,,,,10,,,,85,112
66780,set_tempo,60,1,0,,,,,,1153846,,,,,,,,
66781,note_on,5,0,1,,,,,,,,,0,,,,78,101
66782,note_on,5,0,3,,,,,,,,,2,,,,66,101
66782,note_on,0,0,12,,,,,,,,,11,,,,69,112
66782,note_on,30,0,12,,,,,,,,,11,,,,68,0
66785,note_on,0,0,13,,,,,,,,,12,,,,69,112
66785,note_on,30,0,13,,,,,,,,,12,,,,68,0
66787,note_on,60,0,14,,,,,,,,,13,,,,54,0
66789,note_on,60,0,15,,,,,,,,,14,,,,42,0
66812,note_on,0,0,12,,,,,,,,,11,,,,71,112
66812,note_on,30,0,12,,,,,,,,,11,,,,69,0
66815,note_on,30,0,13,,,,,,,,,12,,,,69,0
66815,note_on,0,0,13,,,,,,,,,12,,,,71,112
66840,note_on,60,0,11,,,,,,,,,10,,,,85,0
66840,set_tempo,60,1,0,,,,,,1200000,,,,,,,,
66841,note_on,0,0,1,,,,,,,,,0,,,,80,101
66841,note_on,60,0,1,,,,,,,,,0,,,,81,0
66842,note_on,60,0,3,,,,,,,,,2,,,,69,0
66842,note_on,0,0,3,,,,,,,,,2,,,,68,101
66842,note_on,30,0,12,,,,,,,,,11,,,,71,0
66842,note_on,0,0,12,,,,,,,,,11,,,,73,112
66845,note_on,30,0,13,,,,,,,,,12,,,,71,0
66845,note_on,0,0,13,,,,,,,,,12,,,,73,112
66847,note_on,60,0,14,,,,,,,,,13,,,,49,54
66849,note_on,60,0,15,,,,,,,,,14,,,,37,54
66872,note_on,30,0,12,,,,,,,,,11,,,,73,0
66872,note_on,0,0,12,,,,,,,,,11,,,,75,112
66875,note_on,0,0,13,,,,,,,,,12,,,,75,112
66875,note_on,30,0,13,,,,,,,,,12,,,,73,0
66900,set_tempo,60,1,0,,,,,,1153846,,,,,,,,
66900,note_on,60,0,11,,,,,,,,,10,,,,85,112
66901,note_on,0,0,1,,,,,,,,,0,,,,76,101
66901,note_on,60,0,1,,,,,,,,,0,,,,78,0
66902,note_on,60,0,3,,,,,,,,,2,,,,66,0
66902,note_on,0,0,3,,,,,,,,,2,,,,64,101
66902,note_on,30,0,12,,,,,,,,,11,,,,75,0
66902,note_on,0,0,12,,,,,,,,,11,,,,76,112
66905,note_on,30,0,13,,,,,,,,,12,,,,75,0
66905,note_on,0,0,13,,,,,,,,,12,,,,76,112
66907,note_on,60,0,14,,,,,,,,,13,,,,49,0
66909,note_on,60,0,15,,,,,,,,,14,,,,37,0
66932,note_on,0,0,12,,,,,,,,,11,,,,73,112
66932,note_on,30,0,12,,,,,,,,,11,,,,76,0
66935,note_on,30,0,13,,,,,,,,,12,,,,76,0
66935,note_on,0,0,13,,,,,,,,,12,,,,73,112
66956,note_on,55,0,1,,,,,,,,,0,,,,80,0
66957,note_on,55,0,3,,,,,,,,,2,,,,68,0
66957,note_on,25,0,12,,,,,,,,,11,,,,73,0
66960,set_tempo,60,1,0,,,,,,1200000,,,,,,,,
66960,note_on,60,0,11,,,,,,,,,10,,,,85,0
66960,note_on,25,0,13,,,,,,,,,12,,,,73,0
66961,note_on,5,0,1,,,,,,,,,0,,,,90,101
66962,note_on,245,0,2,,,,,,,,,1,,,,78,100
66962,control_change,0,0,2,,,,,,,,,1,11,52,,,
66962,note_on,5,0,3,,,,,,,,,2,,,,66,101
66962,note_on,5,0,12,,,,,,,,,11,,,,62,112
66965,note_on,5,0,13,,,,,,,,,12,,,,62,112
66967,note_on,60,0,14,,,,,,,,,13,,,,50,54
66969,note_on,60,0,15,,,,,,,,,14,,,,38,54
66992,note_on,0,0,12,,,,,,,,,11,,,,64,112
66992,note_on,30,0,12,,,,,,,,,11,,,,62,0
66995,note_on,0,0,13,,,,,,,,,12,,,,64,112
66995,note_on,30,0,13,,,,,,,,,12,,,,62,0
67020,note_on,60,0,11,,,,,,,,,10,,,,81,112
67020,set_tempo,60,1,0,,,,,,1153846,,,,,,,,
67021,note_on,0,0,1,,,,,,,,,0,,,,74,101
67021,note_on,60,0,1,,,,,,,,,0,,,,76,0
67022,note_on,60,0,2,,,,,,,,,1,,,,74,100
67022,note_on,0,0,3,,,,,,,,,2,,,,62,101
67022,note_on,60,0,3,,,,,,,,,2,,,,64,0
67022,note_on,0,0,12,,,,,,,,,11,,,,66,112
67022,note_on,30,0,12,,,,,,,,,11,,,,64,0
67025,note_on,0,0,13,,,,,,,,,12,,,,66,112
67025,note_on,30,0,13,,,,,,,,,12,,,,64,0
67027,note_on,60,0,14,,,,,,,,,13,,,,50,0
67029,note_on,60,0,15,,,,,,,,,14,,,,38,0
67051,note_on,30,0,1,,,,,,,,,0,,,,74,0
67051,note_on,0,0,1,,,,,,,,,0,,,,86,101
67052,note_on,0,0,12,,,,,,,,,11,,,,68,112
67052,note_on,30,0,12,,,,,,,,,11,,,,66,0
67055,note_on,30,0,13,,,,,,,,,12,,,,66,0
67055,note_on,0,0,13,,,,,,,,,12,,,,68,112
67080,set_tempo,60,1,0,,,,,,1200000,,,,,,,,
67080,note_on,60,0,11,,,,,,,,,10,,,,81,0
67081,note_on,0,0,1,,,,,,,,,0,,,,88,101
67081,note_on,30,0,1,,,,,,,,,0,,,,90,0
67082,note_on,60,0,3,,,,,,,,,2,,,,66,0
67082,note_on,0,0,3,,,,,,,,,2,,,,64,101
67082,note_on,30,0,12,,,,,,,,,11,,,,68,0
67082,note_on,60,0,2,,,,,,,,,1,,,,78,0
67082,note_on,0,0,12,,,,,,,,,11,,,,69,112
67082,note_on,0,0,2,,,,,,,,,1,,,,76,100
67085,note_on,0,0,13,,,,,,,,,12,,,,69,112
67085,note_on,30,0,13,,,,,,,,,12,,,,68,0
67087,note_on,60,0,14,,,,,,,,,13,,,,45,54
67089,note_on,60,0,15,,,,,,,,,14,,,,33,54
67112,note_on,30,0,12,,,,,,,,,11,,,,69,0
67112,note_on,0,0,12,,,,,,,,,11,,,,71,112
67115,note_on,0,0,13,,,,,,,,,12,,,,71,112
67115,note_on,30,0,13,,,,,,,,,12,,,,69,0
67140,set_tempo,60,1,0,,,,,,1153846,,,,,,,,
67140,note_on,60,0,11,,,,,,,,,10,,,,81,112
67141,note_on,0,0,1,,,,,,,,,0,,,,85,101
67141,note_on,60,0,1,,,,,,,,,0,,,,86,0
67142,note_on,60,0,2,,,,,,,,,1,,,,74,0
67142,note_on,0,0,12,,,,,,,,,11,,,,73,112
67142,note_on,30,0,12,,,,,,,,,11,,,,71,0
67142,note_on,60,0,3,,,,,,,,,2,,,,62,0
67142,note_on,0,0,3,,,,,,,,,2,,,,61,101
67142,note_on,0,0,2,,,,,,,,,1,,,,73,100
67145,note_on,0,0,13,,,,,,,,,12,,,,73,112
67145,note_on,30,0,13,,,,,,,,,12,,,,71,0
67147,note_on,60,0,14,,,,,,,,,13,,,,45,0
67149,note_on,60,0,15,,,,,,,,,14,,,,33,0
67172,note_on,0,0,12,,,,,,,,,11,,,,69,112
67172,note_on,30,0,12,,,,,,,,,11,,,,73,0
67175,note_on,30,0,13,,,,,,,,,12,,,,73,0
67175,note_on,0,0,13,,,,,,,,,12,,,,69,112
67196,note_on,55,0,1,,,,,,,,,0,,,,88,0
67197,note_on,55,0,2,,,,,,,,,1,,,,76,0
67197,note_on,25,0,12,,,,,,,,,11,,,,69,0
67197,note_on,55,0,3,,,,,,,,,2,,,,64,0
67200,note_on,60,0,11,,,,,,,,,10,,,,81,0
67200,control_change,0,0,11,,,,,,,,,10,11,45,,,
67200,set_tempo,60,1,0,,,,,,1200000,,,,,,,,
67200,note_on,25,0,13,,,,,,,,,12,,,,69,0
67201,note_on,5,0,1,,,,,,,,,0,,,,85,0
67201,control_change,0,0,1,,,,,,,,,0,11,52,,,
67201,note_on,0,0,1,,,,,,,,,0,,,,81,101
67201,note_on,0,0,1,,,,,,,,,0,,,,87,101
67202,note_on,5,0,2,,,,,,,,,1,,,,73,0
67202,control_change,0,0,12,,,,,,,,,11,11,45,,,
67202,note_on,5,0,12,,,,,,,,,11,,,,69,112
67202,control_change,0,0,3,,,,,,,,,2,11,52,,,
67202,note_on,0,0,3,,,,,,,,,2,,,,75,101
67202,note_on,0,0,3,,,,,,,,,2,,,,69,101
67202,note_on,5,0,3,,,,,,,,,2,,,,61,0
67205,control_change,0,0,13,,,,,,,,,12,11,45,,,
67205,note_on,5,0,13,,,,,,,,,12,,,,69,112
67207,note_on,60,0,14,,,,,,,,,13,,,,54,54
67209,note_on,60,0,15,,,,,,,,,14,,,,42,54
67219,control_change,18,0,1,,,,,,,,,0,11,55,,,
67220,control_change,18,0,3,,,,,,,,,2,11,55,,,
67224,control_change,24,0,11,,,,,,,,,10,11,47,,,
67226,control_change,24,0,12,,,,,,,,,11,11,47,,,
67229,control_change,24,0,13,,,,,,,,,12,11,47,,,
67230,note_on,6,0,11,,,,,,,,,10,,,,83,112
67232,note_on,0,0,12,,,,,,,,,11,,,,66,112
67232,note_on,6,0,12,,,,,,,,,11,,,,69,0
67235,note_on,6,0,13,,,,,,,,,12,,,,69,0
67235,note_on,0,0,13,,,,,,,,,12,,,,66,112
67237,control_change,18,0,1,,,,,,,,,0,11,57,,,
67238,control_change,18,0,3,,,,,,,,,2,11,57,,,
67248,control_change,18,0,11,,,,,,,,,10,11,49,,,
67250,control_change,18,0,12,,,,,,,,,11,11,49,,,
67252,note_on,45,0,14,,,,,,,,,13,,,,54,0
67253,note_on,5,0,11,,,,,,,,,10,,,,83,0
67253,control_change,18,0,13,,,,,,,,,12,11,49,,,
67254,note_on,45,0,15,,,,,,,,,14,,,,42,0
67255,control_change,18,0,1,,,,,,,,,0,11,60,,,
67256,control_change,18,0,3,,,,,,,,,2,11,60,,,
67260,set_tempo,60,1,0,,,,,,1153846,,,,,,,,
67261,note_on,6,0,1,,,,,,,,,0,,,,87,0
67261,note_on,0,0,1,,,,,,,,,0,,,,81,0
67261,note_on,0,0,1,,,,,,,,,0,,,,83,101
67261,note_on,0,0,1,,,,,,,,,0,,,,88,101
67262,note_on,0,0,12,,,,,,,,,11,,,,64,112
67262,note_on,0,0,3,,,,,,,,,2,,,,71,101
67262,note_on,12,0,12,,,,,,,,,11,,,,66,0
67262,note_on,0,0,3,,,,,,,,,2,,,,76,101
67262,note_on,0,0,3,,,,,,,,,2,,,,75,0
67262,note_on,6,0,3,,,,,,,,,2,,,,69,0
67265,note_on,0,0,13,,,,,,,,,12,,,,64,112
67265,note_on,12,0,13,,,,,,,,,12,,,,66,0
67267,note_on,15,0,14,,,,,,,,,13,,,,56,58
67269,note_on,15,0,15,,,,,,,,,14,,,,44,58
67272,control_change,19,0,11,,,,,,,,,10,11,51,,,
67273,control_change,12,0,1,,,,,,,,,0,11,62,,,
67274,control_change,12,0,3,,,,,,,,,2,11,62,,,
67274,control_change,12,0,12,,,,,,,,,11,11,51,,,
67277,control_change,12,0,13,,,,,,,,,12,11,51,,,
67290,note_on,18,0,11,,,,,,,,,10,,,,76,112
67291,control_change,18,0,1,,,,,,,,,0,11,64,,,
67292,control_change,18,0,3,,,,,,,,,2,11,64,,,
67292,note_on,18,0,12,,,,,,,,,11,,,,64,0
67292,note_on,0,0,12,,,,,,,,,11,,,,74,112
67295,note_on,0,0,13,,,,,,,,,12,,,,74,112
67295,note_on,18,0,13,,,,,,,,,12,,,,64,0
67296,control_change,6,0,11,,,,,,,,,10,11,53,,,
67298,control_change,6,0,12,,,,,,,,,11,11,53,,,
67301,control_change,6,0,13,,,,,,,,,12,11,53,,,
67309,control_change,18,0,1,,,,,,,,,0,11,66,,,
67310,control_change,18,0,3,,,,,,,,,2,11,66,,,
67312,note_on,45,0,14,,,,,,,,,13,,,,56,0
67313,note_on,17,0,11,,,,,,,,,10,,,,76,0
67314,note_on,45,0,15,,,,,,,,,14,,,,44,0
67320,control_change,7,0,11,,,,,,,,,10,11,55,,,
67320,set_tempo,60,1,0,,,,,,1200000,,,,,,,,
67321,note_on,0,0,1,,,,,,,,,0,,,,83,0
67321,note_on,12,0,1,,,,,,,,,0,,,,88,0
67321,note_on,0,0,1,,,,,,,,,0,,,,80,101
67321,note_on,0,0,1,,,,,,,,,0,,,,85,101
67322,control_change,0,0,12,,,,,,,,,11,11,55,,,
67322,control_change,120,0,2,,,,,,,,,1,11,68,,,
67322,note_on,0,0,12,,,,,,,,,11,,,,73,112
67322,note_on,0,0,3,,,,,,,,,2,,,,68,101
67322,note_on,0,0,3,,,,,,,,,2,,,,76,0
67322,note_on,0,0,3,,,,,,,,,2,,,,73,101
67322,note_on,24,0,12,,,,,,,,,11,,,,74,0
67322,note_on,12,0,3,,,,,,,,,2,,,,71,0
67325,note_on,0,0,13,,,,,,,,,12,,,,73,112
67325,control_change,0,0,13,,,,,,,,,12,11,55,,,
67325,note_on,24,0,13,,,,,,,,,12,,,,74,0
67327,control_change,6,0,1,,,,,,,,,0,11,67,,,
67327,note_on,15,0,14,,,,,,,,,13,,,,53,64
67328,control_change,6,0,3,,,,,,,,,2,11,67,,,
67329,note_on,15,0,15,,,,,,,,,14,,,,41,64
67340,control_change,18,0,2,,,,,,,,,1,11,66,,,
67344,control_change,24,0,11,,,,,,,,,10,11,57,,,
67345,control_change,18,0,1,,,,,,,,,0,11,65,,,
67346,control_change,18,0,3,,,,,,,,,2,11,65,,,
67346,control_change,24,0,12,,,,,,,,,11,11,57,,,
67349,control_change,24,0,13,,,,,,,,,12,11,57,,,
67350,note_on,6,0,11,,,,,,,,,10,,,,85,112
67352,note_on,0,0,12,,,,,,,,,11,,,,68,112
67352,note_on,6,0,12,,,,,,,,,11,,,,73,0
67355,note_on,0,0,13,,,,,,,,,12,,,,68,112
67355,note_on,6,0,13,,,,,,,,,12,,,,73,0
67358,control_change,18,0,2,,,,,,,,,1,11,63,,,
67363,control_change,18,0,1,,,,,,,,,0,11,63,,,
67364,control_change,18,0,3,,,,,,,,,2,11,63,,,
67368,control_change,18,0,11,,,,,,,,,10,11,58,,,
67370,control_change,18,0,12,,,,,,,,,11,11,58,,,
67372,note_on,45,0,14,,,,,,,,,13,,,,53,0
67373,control_change,18,0,13,,,,,,,,,12,11,58,,,
67373,note_on,5,0,11,,,,,,,,,10,,,,85,0
67374,note_on,45,0,15,,,,,,,,,14,,,,41,0
67376,control_change,18,0,2,,,,,,,,,1,11,61,,,
67380,set_tempo,60,1,0,,,,,,1153846,,,,,,,,
67381,control_change,0,0,1,,,,,,,,,0,11,60,,,
67381,note_on,0,0,1,,,,,,,,,0,,,,88,101
67381,note_on,0,0,1,,,,,,,,,0,,,,81,101
67381,note_on,0,0,1,,,,,,,,,0,,,,80,0
67381,note_on,18,0,1,,,,,,,,,0,,,,85,0
67382,note_on,18,0,3,,,,,,,,,2,,,,73,0
67382,note_on,0,0,3,,,,,,,,,2,,,,69,101
67382,control_change,0,0,3,,,,,,,,,2,11,60,,,
67382,note_on,0,0,3,,,,,,,,,2,,,,76,101
67382,note_on,0,0,12,,,,,,,,,11,,,,69,112
67382,note_on,0,0,3,,,,,,,,,2,,,,68,0
67382,note_on,12,0,12,,,,,,,,,11,,,,68,0
67384,control_change,11,0,11,,,,,,,,,10,11,58,,,
67385,note_on,0,0,13,,,,,,,,,12,,,,69,112
67385,note_on,12,0,13,,,,,,,,,12,,,,68,0
67386,control_change,4,0,12,,,,,,,,,11,11,58,,,
67387,note_on,15,0,14,,,,,,,,,13,,,,54,68
67389,note_on,15,0,15,,,,,,,,,14,,,,42,68
67389,control_change,4,0,13,,,,,,,,,12,11,58,,,
67394,control_change,18,0,2,,,,,,,,,1,11,59,,,
67399,control_change,18,0,1,,,,,,,,,0,11,58,,,
67400,control_change,18,0,3,,,,,,,,,2,11,58,,,
67408,control_change,24,0,11,,,,,,,,,10,11,53,,,
67410,note_on,2,0,11,,,,,,,,,10,,,,81,112
67410,control_change,24,0,12,,,,,,,,,11,11,53,,,
67411,note_on,0,0,1,,,,,,,,,0,,,,86,101
67411,note_on,12,0,1,,,,,,,,,0,,,,88,0
67412,note_on,0,0,3,,,,,,,,,2,,,,74,101
67412,control_change,18,0,2,,,,,,,,,1,11,57,,,
67412,note_on,12,0,3,,,,,,,,,2,,,,76,0
67412,note_on,0,0,12,,,,,,,,,11,,,,66,112
67412,note_on,2,0,12,,,,,,,,,11,,,,69,0
67413,control_change,24,0,13,,,,,,,,,12,11,53,,,
67415,note_on,2,0,13,,,,,,,,,12,,,,69,0
67415,note_on,0,0,13,,,,,,,,,12,,,,66,112
67417,control_change,6,0,1,,,,,,,,,0,11,56,,,
67418,control_change,6,0,3,,,,,,,,,2,11,56,,,
67420,control_change,10,0,11,,,,,,,,,10,11,50,,,
67422,control_change,10,0,12,,,,,,,,,11,11,50,,,
67425,control_change,10,0,13,,,,,,,,,12,11,50,,,
67430,control_change,18,0,2,,,,,,,,,1,11,54,,,
67432,control_change,12,0,11,,,,,,,,,10,11,47,,,
67432,note_on,45,0,14,,,,,,,,,13,,,,54,0
67433,note_on,1,0,11,,,,,,,,,10,,,,81,0
67434,control_change,12,0,12,,,,,,,,,11,11,47,,,
67434,note_on,45,0,15,,,,,,,,,14,,,,42,0
67435,control_change,18,0,1,,,,,,,,,0,11,53,,,
67436,control_change,18,0,3,,,,,,,,,2,11,53,,,
67436,note_on,0,0,1,,,,,,,,,0,,,,81,0
67436,note_on,1,0,1,,,,,,,,,0,,,,86,0
67437,control_change,12,0,13,,,,,,,,,12,11,47,,,
67437,note_on,3,0,12,,,,,,,,,11,,,,66,0
67437,note_on,1,0,3,,,,,,,,,2,,,,74,0
67437,note_on,0,0,3,,,,,,,,,2,,,,69,0
67440,note_on,3,0,13,,,,,,,,,12,,,,66,0
67440,set_tempo,60,1,0,,,,,,1200000,,,,,,,,
67441,note_on,5,0,1,,,,,,,,,0,,,,85,101
67441,note_on,0,0,1,,,,,,,,,0,,,,81,101
67442,note_on,0,0,3,,,,,,,,,2,,,,73,101
67442,note_on,12,0,2,,,,,,,,,1,,,,73,100
67442,note_on,0,0,2,,,,,,,,,1,,,,76,100
67442,note_on,5,0,12,,,,,,,,,11,,,,69,112
67442,note_on,5,0,3,,,,,,,,,2,,,,69,101
67445,note_on,5,0,13,,,,,,,,,12,,,,69,112
67447,note_on,15,0,14,,,,,,,,,13,,,,52,56
67449,note_on,15,0,15,,,,,,,,,14,,,,40,56
67472,note_on,30,0,12,,,,,,,,,11,,,,69,0
67472,note_on,0,0,12,,,,,,,,,11,,,,73,112
67475,note_on,30,0,13,,,,,,,,,12,,,,69,0
67475,note_on,0,0,13,,,,,,,,,12,,,,73,112
67500,set_tempo,60,1,0,,,,,,1153846,,,,,,,,
67500,note_on,67,0,11,,,,,,,,,10,,,,90,112
67502,note_on,0,0,2,,,,,,,,,1,,,,75,100
67502,note_on,0,0,12,,,,,,,,,11,,,,71,112
67502,note_on,30,0,12,,,,,,,,,11,,,,73,0
67502,note_on,0,0,2,,,,,,,,,1,,,,73,0
67502,note_on,60,0,2,,,,,,,,,1,,,,76,0
67502,note_on,0,0,2,,,,,,,,,1,,,,78,100
67505,note_on,0,0,13,,,,,,,,,12,,,,71,112
67505,note_on,30,0,13,,,,,,,,,12,,,,73,0
67507,note_on,60,0,14,,,,,,,,,13,,,,52,0
67509,note_on,60,0,15,,,,,,,,,14,,,,40,0
67532,note_on,30,0,12,,,,,,,,,11,,,,71,0
67532,note_on,0,0,12,,,,,,,,,11,,,,69,112
67535,note_on,0,0,13,,,,,,,,,12,,,,69,112
67535,note_on,30,0,13,,,,,,,,,12,,,,71,0
67560,note_on,60,0,11,,,,,,,,,10,,,,90,0
67560,set_tempo,60,1,0,,,,,,1200000,,,,,,,,
67561,note_on,0,0,1,,,,,,,,,0,,,,83,101
67561,note_on,0,0,1,,,,,,,,,0,,,,80,101
67561,note_on,0,0,1,,,,,,,,,0,,,,85,0
67561,note_on,120,0,1,,,,,,,,,0,,,,81,0
67562,note_on,30,0,12,,,,,,,,,11,,,,69,0
67562,note_on,0,0,2,,,,,,,,,1,,,,76,100
67562,note_on,0,0,2,,,,,,,,,1,,,,80,100
67562,note_on,120,0,3,,,,,,,,,2,,,,73,0
67562,note_on,0,0,12,,,,,,,,,11,,,,68,112
67562,note_on,0,0,2,,,,,,,,,1,,,,75,0
67562,note_on,60,0,2,,,,,,,,,1,,,,78,0
67562,note_on,0,0,3,,,,,,,,,2,,,,69,0
67562,note_on,0,0,3,,,,,,,,,2,,,,68,101
67562,note_on,0,0,3,,,,,,,,,2,,,,71,101
67565,note_on,30,0,13,,,,,,,,,12,,,,69,0
67565,note_on,0,0,13,,,,,,,,,12,,,,68,112
67592,note_on,30,0,12,,,,,,,,,11,,,,68,0
67592,note_on,0,0,12,,,,,,,,,11,,,,66,112
67595,note_on,0,0,13,,,,,,,,,12,,,,66,112
67595,note_on,30,0,13,,,,,,,,,12,,,,68,0
67620,note_on,60,0,11,,,,,,,,,10,,,,83,112
67620,set_tempo,60,1,0,,,,,,1153846,,,,,,,,
67621,note_on,0,0,1,,,,,,,,,0,,,,80,0
67621,note_on,60,0,1,,,,,,,,,0,,,,83,0
67622,note_on,0,0,2,,,,,,,,,1,,,,80,100
67622,note_on,0,0,2,,,,,,,,,1,,,,76,0
67622,note_on,30,0,12,,,,,,,,,11,,,,66,0
67622,note_on,0,0,12,,,,,,,,,11,,,,64,112
67622,note_on,0,0,3,,,,,,,,,2,,,,68,101
67622,note_on,0,0,3,,,,,,,,,2,,,,68,0
67622,note_on,60,0,3,,,,,,,,,2,,,,71,0
67622,note_on,60,0,2,,,,,,,,,1,,,,80,0
67625,note_on,0,0,13,,,,,,,,,12,,,,64,112
67625,note_on,30,0,13,,,,,,,,,12,,,,66,0
67626,program_change,119,0,14,,,,,,,,48,13,,,,,
67627,control_change,1,0,14,,,,,,,,,13,11,47,,,
67627,note_on,0,0,14,,,,,,,,,13,,,,52,112
67629,note_on,120,0,15,,,,,,,,,14,,,,40,56
67650,set_tempo,30,1,0,,,,,,1411765,,,,,,,,
67652,note_on,30,0,12,,,,,,,,,11,,,,64,0
67652,note_on,0,0,12,,,,,,,,,11,,,,74,112
67655,note_on,30,0,13,,,,,,,,,12,,,,64,0
67655,note_on,0,0,13,,,,,,,,,12,,,,62,112
67677,note_on,25,0,12,,,,,,,,,11,,,,74,0
67680,note_on,60,0,11,,,,,,,,,10,,,,83,0
67680,set_tempo,30,1,0,,,,,,1200000,,,,,,,,
67680,note_on,25,0,13,,,,,,,,,12,,,,62,0
67682,control_change,60,0,3,,,,,,,,,2,11,47,,,
67682,note_on,0,0,3,,,,,,,,,2,,,,69,101
67682,note_on,0,0,2,,,,,,,,,1,,,,80,100
67682,note_on,60,0,2,,,,,,,,,1,,,,80,0
67682,note_on,0,0,12,,,,,,,,,11,,,,73,112
67682,control_change,5,0,12,,,,,,,,,11,11,41,,,
67682,control_change,0,0,2,,,,,,,,,1,11,47,,,
67682,note_on,0,0,2,,,,,,,,,1,,,,81,100
67685,note_on,0,0,13,,,,,,,,,12,,,,61,112
67685,control_change,5,0,13,,,,,,,,,12,11,41,,,
67687,note_on,0,0,14,,,,,,,,,13,,,,54,112
67687,control_change,0,0,14,,,,,,,,,13,11,47,,,
67687,control_change,0,0,14,,,,,,,,,13,11,50,,,
67687,note_on,60,0,14,,,,,,,,,13,,,,52,0
67689,note_on,60,0,15,,,,,,,,,14,,,,40,0
67689,note_on,0,0,15,,,,,,,,,14,,,,42,49
67711,control_change,24,0,14,,,,,,,,,13,11,48,,,
67717,note_on,0,0,14,,,,,,,,,13,,,,56,112
67717,note_on,6,0,14,,,,,,,,,13,,,,54,0
67735,control_change,18,0,14,,,,,,,,,13,11,46,,,
67740,note_on,0,0,11,,,,,,,,,10,,,,81,112
67740,set_tempo,60,1,0,,,,,,1153846,,,,,,,,
67740,control_change,60,0,11,,,,,,,,,10,11,41,,,
67742,note_on,0,0,2,,,,,,,,,1,,,,78,100
67742,note_on,0,0,3,,,,,,,,,2,,,,66,101
67742,note_on,60,0,3,,,,,,,,,2,,,,68,0
67742,note_on,60,0,2,,,,,,,,,1,,,,80,0
67747,note_on,12,0,14,,,,,,,,,13,,,,56,0
67747,note_on,0,0,14,,,,,,,,,13,,,,57,112
67749,note_on,60,0,15,,,,,,,,,14,,,,42,0
67759,control_change,12,0,14,,,,,,,,,13,11,44,,,
67777,note_on,0,0,14,,,,,,,,,13,,,,59,112
67777,note_on,18,0,14,,,,,,,,,13,,,,57,0
67783,control_change,6,0,14,,,,,,,,,13,11,42,,,
67800,note_on,60,0,11,,,,,,,,,10,,,,81,0
67800,set_tempo,60,1,0,,,,,,1200000,,,,,,,,
67802,note_on,0,0,2,,,,,,,,,1,,,,80,100
67802,note_on,60,0,2,,,,,,,,,1,,,,81,0
67802,note_on,60,0,3,,,,,,,,,2,,,,69,0
67802,note_on,0,0,3,,,,,,,,,2,,,,68,101
67807,control_change,0,0,14,,,,,,,,,13,11,41,,,
67807,note_on,0,0,14,,,,,,,,,13,,,,61,112
67807,note_on,24,0,14,,,,,,,,,13,,,,59,0
67809,note_on,60,0,15,,,,,,,,,14,,,,37,49
67837,note_on,30,0,14,,,,,,,,,13,,,,61,0
67837,note_on,0,0,14,,,,,,,,,13,,,,63,112
67860,set_tempo,60,1,0,,,,,,1153846,,,,,,,,
67860,note_on,60,0,11,,,,,,,,,10,,,,85,112
67862,note_on,60,0,3,,,,,,,,,2,,,,66,0
67862,note_on,60,0,2,,,,,,,,,1,,,,78,0
67862,note_on,0,0,2,,,,,,,,,1,,,,76,100
67862,note_on,0,0,3,,,,,,,,,2,,,,64,101
67867,note_on,30,0,14,,,,,,,,,13,,,,63,0
67867,note_on,0,0,14,,,,,,,,,13,,,,64,112
67869,note_on,60,0,15,,,,,,,,,14,,,,37,0
67897,note_on,0,0,14,,,,,,,,,13,,,,61,112
67897,note_on,30,0,14,,,,,,,,,13,,,,64,0
67920,set_tempo,60,1,0,,,,,,1200000,,,,,,,,
67920,note_on,60,0,11,,,,,,,,,10,,,,85,0
67922,note_on,0,0,3,,,,,,,,,2,,,,68,0
67922,note_on,60,0,3,,,,,,,,,2,,,,64,0
67922,note_on,25,0,14,,,,,,,,,13,,,,61,0
67922,note_on,0,0,2,,,,,,,,,1,,,,78,100
67922,note_on,60,0,2,,,,,,,,,1,,,,80,0
67927,note_on,5,0,14,,,,,,,,,13,,,,50,112
67927,note_on,1925,0,4,,,,,,,,,3,,,,66,100
67929,note_on,60,0,15,,,,,,,,,14,,,,38,49
67957,note_on,30,0,14,,,,,,,,,13,,,,50,0
67957,note_on,0,0,14,,,,,,,,,13,,,,52,112
67980,note_on,60,0,11,,,,,,,,,10,,,,78,112
67980,set_tempo,60,1,0,,,,,,1153846,,,,,,,,
67982,note_on,60,0,2,,,,,,,,,1,,,,76,0
67982,note_on,0,0,2,,,,,,,,,1,,,,74,100
67987,note_on,30,0,14,,,,,,,,,13,,,,52,0
67987,note_on,0,0,14,,,,,,,,,13,,,,54,112
67987,note_on,60,0,4,,,,,,,,,3,,,,62,100
67989,note_on,60,0,15,,,,,,,,,14,,,,38,0
68017,note_on,30,0,14,,,,,,,,,13,,,,54,0
68017,note_on,0,0,14,,,,,,,,,13,,,,56,112
68040,set_tempo,60,1,0,,,,,,1200000,,,,,,,,
68040,note_on,60,0,11,,,,,,,,,10,,,,78,0
68042,note_on,60,0,2,,,,,,,,,1,,,,78,0
68042,note_on,0,0,2,,,,,,,,,1,,,,76,100
68047,note_on,0,0,14,,,,,,,,,13,,,,57,112
68047,note_on,0,0,4,,,,,,,,,3,,,,64,100
68047,note_on,60,0,4,,,,,,,,,3,,,,66,0
68047,note_on,30,0,14,,,,,,,,,13,,,,56,0
68049,note_on,60,0,15,,,,,,,,,14,,,,33,49
68077,note_on,0,0,14,,,,,,,,,13,,,,59,112
68077,note_on,30,0,14,,,,,,,,,13,,,,57,0
68100,set_tempo,60,1,0,,,,,,1153846,,,,,,,,
68100,note_on,60,0,11,,,,,,,,,10,,,,81,112
68102,note_on,0,0,2,,,,,,,,,1,,,,73,100
68102,note_on,60,0,2,,,,,,,,,1,,,,74,0
68107,note_on,60,0,4,,,,,,,,,3,,,,62,0
68107,note_on,0,0,14,,,,,,,,,13,,,,61,112
68107,note_on,30,0,14,,,,,,,,,13,,,,59,0
68107,note_on,0,0,4,,,,,,,,,3,,,,61,100
68109,note_on,60,0,15,,,,,,,,,14,,,,33,0
68137,note_on,0,0,14,,,,,,,,,13,,,,57,112
68137,note_on,30,0,14,,,,,,,,,13,,,,61,0
68157,note_on,55,0,2,,,,,,,,,1,,,,73,0
68157,note_on,0,0,2,,,,,,,,,1,,,,76,0
68160,set_tempo,60,1,0,,,,,,1200000,,,,,,,,
68160,note_on,60,0,11,,,,,,,,,10,,,,81,0
68162,note_on,480,0,12,,,,,,,,,11,,,,73,0
68162,note_on,0,0,4,,,,,,,,,3,,,,64,0
68162,note_on,0,0,3,,,,,,,,,2,,,,69,101
68162,control_change,240,0,3,,,,,,,,,2,11,47,,,
68162,note_on,5,0,2,,,,,,,,,1,,,,75,100
68162,control_change,0,0,2,,,,,,,,,1,11,47,,,
68162,note_on,0,0,2,,,,,,,,,1,,,,81,100
68162,note_on,25,0,14,,,,,,,,,13,,,,57,0
68162,note_on,55,0,4,,,,,,,,,3,,,,61,0
68165,note_on,480,0,13,,,,,,,,,12,,,,61,0
68167,note_on,5,0,14,,,,,,,,,13,,,,54,112
68167,control_change,5,0,4,,,,,,,,,3,11,47,,,
68167,note_on,0,0,4,,,,,,,,,3,,,,63,100
68169,note_on,60,0,15,,,,,,,,,14,,,,42,49
68183,control_change,21,0,2,,,,,,,,,1,11,48,,,
68183,control_change,21,0,3,,,,,,,,,2,11,48,,,
68188,control_change,21,0,4,,,,,,,,,3,11,48,,,
68190,note_on,30,0,11,,,,,,,,,10,,,,83,112
68197,note_on,0,0,14,,,,,,,,,13,,,,57,112
68197,note_on,30,0,14,,,,,,,,,13,,,,54,0
68204,control_change,21,0,3,,,,,,,,,2,11,49,,,
68204,control_change,21,0,2,,,,,,,,,1,11,49,,,
68209,control_change,21,0,4,,,,,,,,,3,11,49,,,
68213,note_on,23,0,11,,,,,,,,,10,,,,83,0
68214,note_on,45,0,15,,,,,,,,,14,,,,42,0
68220,set_tempo,60,1,0,,,,,,1153846,,,,,,,,
68222,note_on,0,0,2,,,,,,,,,1,,,,74,100
68222,note_on,0,0,3,,,,,,,,,2,,,,71,101
68222,note_on,18,0,3,,,,,,,,,2,,,,69,0
68222,note_on,0,0,2,,,,,,,,,1,,,,83,100
68222,note_on,0,0,2,,,,,,,,,1,,,,75,0
68222,note_on,18,0,2,,,,,,,,,1,,,,81,0
68225,control_change,3,0,3,,,,,,,,,2,11,50,,,
68225,control_change,3,0,2,,,,,,,,,1,11,50,,,
68227,note_on,30,0,14,,,,,,,,,13,,,,57,0
68227,note_on,18,0,4,,,,,,,,,3,,,,63,0
68227,note_on,0,0,14,,,,,,,,,13,,,,56,112
68227,note_on,0,0,4,,,,,,,,,3,,,,62,100
68229,note_on,15,0,15,,,,,,,,,14,,,,44,49
68230,control_change,3,0,4,,,,,,,,,3,11,50,,,
68246,control_change,21,0,3,,,,,,,,,2,11,51,,,
68246,control_change,21,0,2,,,,,,,,,1,11,51,,,
68250,note_on,37,0,11,,,,,,,,,10,,,,76,112
68251,control_change,21,0,4,,,,,,,,,3,11,51,,,
68257,note_on,30,0,14,,,,,,,,,13,,,,56,0
68257,note_on,0,0,14,,,,,,,,,13,,,,54,112
68267,control_change,21,0,3,,,,,,,,,2,11,52,,,
68267,control_change,21,0,2,,,,,,,,,1,11,52,,,
68272,control_change,21,0,4,,,,,,,,,3,11,52,,,
68273,note_on,23,0,11,,,,,,,,,10,,,,76,0
68274,note_on,45,0,15,,,,,,,,,14,,,,44,0
68280,set_tempo,60,1,0,,,,,,1200000,,,,,,,,
68282,note_on,0,0,3,,,,,,,,,2,,,,68,101
68282,note_on,15,0,2,,,,,,,,,1,,,,83,0
68282,note_on,0,0,2,,,,,,,,,1,,,,80,100
68282,note_on,15,0,3,,,,,,,,,2,,,,71,0
68287,note_on,30,0,14,,,,,,,,,13,,,,54,0
68287,note_on,0,0,14,,,,,,,,,13,,,,53,112
68288,control_change,6,0,3,,,,,,,,,2,11,53,,,
68288,control_change,6,0,2,,,,,,,,,1,11,53,,,
68289,note_on,15,0,15,,,,,,,,,14,,,,41,49
68293,control_change,21,0,4,,,,,,,,,3,11,53,,,
68309,control_change,21,0,2,,,,,,,,,1,11,54,,,
68309,control_change,21,0,3,,,,,,,,,2,11,54,,,
68310,note_on,37,0,11,,,,,,,,,10,,,,83,112
68314,control_change,21,0,4,,,,,,,,,3,11,54,,,
68317,note_on,0,0,14,,,,,,,,,13,,,,56,112
68317,note_on,30,0,14,,,,,,,,,13,,,,53,0
68330,control_change,21,0,3,,,,,,,,,2,11,55,,,
68330,control_change,21,0,2,,,,,,,,,1,11,55,,,
68333,note_on,23,0,11,,,,,,,,,10,,,,83,0
68334,note_on,45,0,15,,,,,,,,,14,,,,41,0
68335,control_change,21,0,4,,,,,,,,,3,11,55,,,
68340,set_tempo,60,1,0,,,,,,1153846,,,,,,,,
68342,note_on,12,0,2,,,,,,,,,1,,,,80,0
68342,note_on,0,0,2,,,,,,,,,1,,,,81,100
68342,note_on,0,0,2,,,,,,,,,1,,,,73,100
68342,note_on,12,0,3,,,,,,,,,2,,,,68,0
68342,note_on,0,0,3,,,,,,,,,2,,,,69,101
68342,note_on,0,0,2,,,,,,,,,1,,,,74,0
68342,note_on,180,0,12,,,,,,,,,11,,,,69,112
68345,note_on,180,0,13,,,,,,,,,12,,,,57,112
68347,note_on,0,0,4,,,,,,,,,3,,,,61,100
68347,note_on,12,0,4,,,,,,,,,3,,,,62,0
68347,note_on,0,0,14,,,,,,,,,13,,,,54,112
68347,note_on,30,0,14,,,,,,,,,13,,,,56,0
68349,note_on,15,0,15,,,,,,,,,14,,,,42,49
68351,control_change,9,0,3,,,,,,,,,2,11,56,,,
68351,control_change,9,0,2,,,,,,,,,1,11,56,,,
68356,control_change,9,0,4,,,,,,,,,3,11,56,,,
68370,note_on,37,0,11,,,,,,,,,10,,,,81,112
68372,control_change,21,0,3,,,,,,,,,2,11,57,,,
68372,control_change,21,0,2,,,,,,,,,1,11,57,,,
68377,note_on,30,0,14,,,,,,,,,13,,,,54,0
68377,note_on,0,0,14,,,,,,,,,13,,,,52,112
68377,control_change,21,0,4,,,,,,,,,3,11,57,,,
68393,note_on,23,0,11,,,,,,,,,10,,,,81,0
68393,control_change,21,0,3,,,,,,,,,2,11,57,,,
68393,control_change,21,0,2,,,,,,,,,1,11,57,,,
68394,note_on,45,0,15,,,,,,,,,14,,,,42,0
68397,note_on,0,0,2,,,,,,,,,1,,,,81,0
68397,note_on,4,0,3,,,,,,,,,2,,,,69,0
68397,note_on,4,0,2,,,,,,,,,1,,,,73,0
68397,note_on,55,0,12,,,,,,,,,11,,,,69,0
68398,control_change,21,0,4,,,,,,,,,3,11,58,,,
68400,set_tempo,60,1,0,,,,,,1200000,,,,,,,,
68400,note_on,55,0,13,,,,,,,,,12,,,,57,0
68402,note_on,5,0,2,,,,,,,,,1,,,,71,100
68402,note_on,4,0,4,,,,,,,,,3,,,,61,0
68402,note_on,25,0,14,,,,,,,,,13,,,,52,0
68402,note_on,5,0,12,,,,,,,,,11,,,,69,112
68405,note_on,5,0,13,,,,,,,,,12,,,,57,112
68407,note_on,5,0,14,,,,,,,,,13,,,,50,112
68407,note_on,5,0,4,,,,,,,,,3,,,,59,100
68409,note_on,15,0,15,,,,,,,,,14,,,,38,49
68414,control_change,12,0,2,,,,,,,,,1,11,58,,,
68414,control_change,17,0,3,,,,,,,,,2,11,58,,,
68419,control_change,12,0,4,,,,,,,,,3,11,59,,,
68435,control_change,21,0,3,,,,,,,,,2,11,59,,,
68435,control_change,21,0,2,,,,,,,,,1,11,59,,,
68437,note_on,30,0,14,,,,,,,,,13,,,,50,0
68437,note_on,0,0,14,,,,,,,,,13,,,,47,112
68440,control_change,21,0,4,,,,,,,,,3,11,60,,,
68456,control_change,21,0,3,,,,,,,,,2,11,60,,,
68456,control_change,21,0,2,,,,,,,,,1,11,60,,,
68460,set_tempo,60,1,0,,,,,,1153846,,,,,,,,
68460,note_on,67,0,11,,,,,,,,,10,,,,78,112
68461,control_change,21,0,4,,,,,,,,,3,11,61,,,
68462,note_on,6,0,2,,,,,,,,,1,,,,78,100
68467,note_on,6,0,4,,,,,,,,,3,,,,66,100
68467,note_on,30,0,14,,,,,,,,,13,,,,47,0
68467,note_on,0,0,14,,,,,,,,,13,,,,49,112
68469,note_on,60,0,15,,,,,,,,,14,,,,38,0
68477,control_change,21,0,3,,,,,,,,,2,11,60,,,
68477,control_change,15,0,2,,,,,,,,,1,11,60,,,
68482,control_change,15,0,4,,,,,,,,,3,11,62,,,
68497,note_on,30,0,14,,,,,,,,,13,,,,49,0
68497,note_on,0,0,14,,,,,,,,,13,,,,50,112
68498,control_change,21,0,2,,,,,,,,,1,11,61,,,
68498,control_change,21,0,3,,,,,,,,,2,11,61,,,
68503,control_change,21,0,4,,,,,,,,,3,11,63,,,
68519,control_change,21,0,3,,,,,,,,,2,11,62,,,
68519,control_change,21,0,2,,,,,,,,,1,11,62,,,
68520,note_on,60,0,11,,,,,,,,,10,,,,78,0
68520,set_tempo,60,1,0,,,,,,1200000,,,,,,,,
68522,note_on,120,0,12,,,,,,,,,11,,,,69,0
68522,note_on,0,0,12,,,,,,,,,11,,,,68,112
68524,control_change,21,0,4,,,,,,,,,3,11,64,,,
68525,note_on,120,0,13,,,,,,,,,12,,,,57,0
68525,note_on,0,0,13,,,,,,,,,12,,,,56,112
68527,note_on,30,0,14,,,,,,,,,13,,,,50,0
68527,note_on,0,0,14,,,,,,,,,13,,,,52,112
68529,note_on,60,0,15,,,,,,,,,14,,,,40,49
68540,control_change,21,0,3,,,,,,,,,2,11,63,,,
68540,control_change,21,0,2,,,,,,,,,1,11,63,,,
68545,control_change,21,0,4,,,,,,,,,3,11,65,,,
68557,note_on,30,0,14,,,,,,,,,13,,,,52,0
68557,note_on,0,0,14,,,,,,,,,13,,,,50,112
68561,control_change,21,0,3,,,,,,,,,2,11,63,,,
68561,control_change,21,0,2,,,,,,,,,1,11,63,,,
68566,control_change,21,0,4,,,,,,,,,3,11,66,,,
68580,set_tempo,60,1,0,,,,,,1153846,,,,,,,,
68580,note_on,60,0,11,,,,,,,,,10,,,,76,112
68582,control_change,21,0,3,,,,,,,,,2,11,64,,,
68582,control_change,0,0,2,,,,,,,,,1,11,64,,,
68582,note_on,0,0,2,,,,,,,,,1,,,,76,100
68582,note_on,0,0,2,,,,,,,,,1,,,,73,100
68582,note_on,21,0,2,,,,,,,,,1,,,,78,0
68582,note_on,0,0,2,,,,,,,,,1,,,,71,0
68587,note_on,0,0,4,,,,,,,,,3,,,,64,100
68587,note_on,0,0,14,,,,,,,,,13,,,,49,112
68587,note_on,0,0,4,,,,,,,,,3,,,,61,100
68587,note_on,0,0,4,,,,,,,,,3,,,,59,0
68587,note_on,30,0,14,,,,,,,,,13,,,,50,0
68587,control_change,0,0,4,,,,,,,,,3,11,67,,,
68587,note_on,21,0,4,,,,,,,,,3,,,,66,0
68589,note_on,60,0,15,,,,,,,,,14,,,,40,0
68599,control_change,12,0,4,,,,,,,,,3,11,64,,,
68606,control_change,24,0,2,,,,,,,,,1,11,60,,,
68606,control_change,24,0,3,,,,,,,,,2,11,60,,,
68610,set_tempo,30,1,0,,,,,,1333333,,,,,,,,
68611,control_change,12,0,4,,,,,,,,,3,11,61,,,
68612,note_on,0,0,2,,,,,,,,,1,,,,74,100
68612,note_on,6,0,2,,,,,,,,,1,,,,76,0
68612,note_on,0,0,2,,,,,,,,,1,,,,73,0
68617,note_on,6,0,4,,,,,,,,,3,,,,64,0
68617,note_on,0,0,4,,,,,,,,,3,,,,61,0
68617,note_on,0,0,4,,,,,,,,,3,,,,62,100
68617,note_on,0,0,14,,,,,,,,,13,,,,47,112
68617,note_on,30,0,14,,,,,,,,,13,,,,49,0
68618,control_change,6,0,2,,,,,,,,,1,11,57,,,
68618,control_change,12,0,3,,,,,,,,,2,11,57,,,
68623,control_change,6,0,4,,,,,,,,,3,11,58,,,
68635,control_change,12,0,4,,,,,,,,,3,11,55,,,
68637,note_on,19,0,2,,,,,,,,,1,,,,74,0
68637,note_on,115,0,12,,,,,,,,,11,,,,68,0
68640,note_on,60,0,11,,,,,,,,,10,,,,76,0
68640,note_on,115,0,13,,,,,,,,,12,,,,56,0
68640,set_tempo,30,1,0,,,,,,1224490,,,,,,,,
68641,control_change,1020,0,1,,,,,,,,,0,11,37,,,
68641,note_on,0,0,1,,,,,,,,,0,,,,85,101
68642,control_change,24,0,3,,,,,,,,,2,11,37,,,
68642,note_on,0,0,12,,,,,,,,,11,,,,69,112
68642,control_change,5,0,2,,,,,,,,,1,11,52,,,
68642,note_on,7,0,4,,,,,,,,,3,,,,62,0
68642,note_on,25,0,14,,,,,,,,,13,,,,47,0
68642,note_on,0,0,2,,,,,,,,,1,,,,73,100
68642,control_change,5,0,12,,,,,,,,,11,11,31,,,
68642,note_on,0,0,3,,,,,,,,,2,,,,73,101
68645,control_change,5,0,13,,,,,,,,,12,11,31,,,
68645,note_on,0,0,13,,,,,,,,,12,,,,69,112
68647,control_change,0,0,4,,,,,,,,,3,11,52,,,
68647,note_on,5,0,14,,,,,,,,,13,,,,45,112
68647,control_change,6,0,1,,,,,,,,,0,11,40,,,
68647,note_on,5,0,4,,,,,,,,,3,,,,61,100
68649,note_on,60,0,15,,,,,,,,,14,,,,45,49
68650,control_change,8,0,3,,,,,,,,,2,11,41,,,
68651,control_change,9,0,12,,,,,,,,,11,11,34,,,
68653,control_change,6,0,1,,,,,,,,,0,11,43,,,
68654,control_change,9,0,13,,,,,,,,,12,11,34,,,
68656,control_change,6,0,3,,,,,,,,,2,11,44,,,
68659,control_change,6,0,1,,,,,,,,,0,11,46,,,
68660,control_change,9,0,12,,,,,,,,,11,11,37,,,
68662,control_change,6,0,3,,,,,,,,,2,11,47,,,
68663,control_change,9,0,13,,,,,,,,,12,11,37,,,
68665,control_change,6,0,1,,,,,,,,,0,11,49,,,
68668,control_change,6,0,3,,,,,,,,,2,11,50,,,
68669,control_change,9,0,12,,,,,,,,,11,11,40,,,
68671,control_change,6,0,1,,,,,,,,,0,11,52,,,
68672,control_change,9,0,13,,,,,,,,,12,11,40,,,
68672,note_on,3,0,12,,,,,,,,,11,,,,69,0
68672,note_on,0,0,12,,,,,,,,,11,,,,68,112
68675,note_on,3,0,13,,,,,,,,,12,,,,69,0
68675,note_on,0,0,13,,,,,,,,,12,,,,68,112
68691,control_change,19,0,12,,,,,,,,,11,11,42,,,
68694,control_change,19,0,13,,,,,,,,,12,11,42,,,
68700,set_tempo,60,1,0,,,,,,1153846,,,,,,,,
68700,note_on,60,0,11,,,,,,,,,10,,,,73,112
68702,note_on,0,0,12,,,,,,,,,11,,,,66,112
68702,note_on,60,0,2,,,,,,,,,1,,,,73,0
68702,note_on,11,0,12,,,,,,,,,11,,,,68,0
68705,note_on,0,0,13,,,,,,,,,12,,,,66,112
68705,note_on,11,0,13,,,,,,,,,12,,,,68,0
68707,note_on,60,0,4,,,,,,,,,3,,,,61,0
68707,note_on,60,0,14,,,,,,,,,13,,,,45,0
68709,note_on,60,0,15,,,,,,,,,14,,,,45,0
68711,control_change,9,0,12,,,,,,,,,11,11,42,,,
68714,control_change,9,0,13,,,,,,,,,12,11,42,,,
68731,control_change,20,0,12,,,,,,,,,11,11,43,,,
68732,note_on,0,0,12,,,,,,,,,11,,,,64,112
68732,note_on,1,0,12,,,,,,,,,11,,,,66,0
68734,control_change,20,0,13,,,,,,,,,12,11,43,,,
68735,note_on,1,0,13,,,,,,,,,12,,,,66,0
68735,note_on,0,0,13,,,,,,,,,12,,,,64,112
68751,control_change,19,0,12,,,,,,,,,11,11,44,,,
68754,control_change,19,0,13,,,,,,,,,12,11,44,,,
68757,note_on,6,0,12,,,,,,,,,11,,,,64,0
68760,note_on,6,0,13,,,,,,,,,12,,,,64,0
68760,set_tempo,60,1,0,,,,,,1188119,,,,,,,,
68760,note_on,60,0,11,,,,,,,,,10,,,,73,0
68761,note_on,90,0,1,,,,,,,,,0,,,,85,0
68761,note_on,0,0,1,,,,,,,,,0,,,,83,101
68762,note_on,94,0,3,,,,,,,,,2,,,,73,0
68762,note_on,5,0,12,,,,,,,,,11,,,,64,112
68762,note_on,0,0,3,,,,,,,,,2,,,,71,101
68765,note_on,5,0,13,,,,,,,,,12,,,,64,112
68766,program_change,59,0,14,,,,,,,,45,13,,,,,
68767,control_change,1,0,14,,,,,,,,,13,11,57,,,
68767,note_on,0,0,14,,,,,,,,,13,,,,56,49
68769,note_on,60,0,15,,,,,,,,,14,,,,44,49
68771,control_change,9,0,12,,,,,,,,,11,11,45,,,
68774,control_change,9,0,13,,,,,,,,,12,11,45,,,
68791,control_change,20,0,12,,,,,,,,,11,11,46,,,
68792,note_on,1,0,12,,,,,,,,,11,,,,64,0
68792,note_on,0,0,12,,,,,,,,,11,,,,62,112
68794,control_change,20,0,13,,,,,,,,,12,11,46,,,
68795,note_on,0,0,13,,,,,,,,,12,,,,62,112
68795,note_on,1,0,13,,,,,,,,,12,,,,64,0
68811,control_change,19,0,12,,,,,,,,,11,11,47,,,
68814,control_change,19,0,13,,,,,,,,,12,11,47,,,
68820,note_on,60,0,11,,,,,,,,,10,,,,76,112
68820,set_tempo,60,1,0,,,,,,1111111,,,,,,,,
68822,note_on,11,0,12,,,,,,,,,11,,,,62,0
68822,note_on,0,0,12,,,,,,,,,11,,,,61,112
68825,note_on,0,0,13,,,,,,,,,12,,,,61,112
68825,note_on,11,0,13,,,,,,,,,12,,,,62,0
68827,note_on,60,0,14,,,,,,,,,13,,,,56,0
68829,note_on,60,0,15,,,,,,,,,14,,,,44,0
68831,control_change,9,0,12,,,,,,,,,11,11,48,,,
68834,control_change,9,0,13,,,,,,,,,12,11,48,,,
68851,control_change,20,0,12,,,,,,,,,11,11,49,,,
68852,note_on,0,0,12,,,,,,,,,11,,,,59,112
68852,note_on,1,0,12,,,,,,,,,11,,,,61,0
68854,control_change,20,0,13,,,,,,,,,12,11,49,,,
68855,note_on,1,0,13,,,,,,,,,12,,,,61,0
68855,note_on,0,0,13,,,,,,,,,12,,,,59,112
68871,control_change,19,0,12,,,,,,,,,11,11,50,,,
68874,control_change,19,0,13,,,,,,,,,12,11,50,,,
68877,note_on,6,0,12,,,,,,,,,11,,,,59,0
68880,note_on,60,0,11,,,,,,,,,10,,,,76,0
68880,set_tempo,60,1,0,,,,,,1200000,,,,,,,,
68880,note_on,6,0,13,,,,,,,,,12,,,,59,0
68881,note_on,0,0,1,,,,,,,,,0,,,,81,101
68881,note_on,120,0,1,,,,,,,,,0,,,,83,0
68882,note_on,0,0,3,,,,,,,,,2,,,,69,101
68882,note_on,5,0,12,,,,,,,,,11,,,,57,112
68882,note_on,120,0,3,,,,,,,,,2,,,,71,0
68885,note_on,5,0,13,,,,,,,,,12,,,,57,112
68887,note_on,60,0,14,,,,,,,,,13,,,,54,49
68889,note_on,60,0,15,,,,,,,,,14,,,,42,49
68903,control_change,21,0,12,,,,,,,,,11,11,49,,,
68906,control_change,21,0,13,,,,,,,,,12,11,49,,,
68912,note_on,0,0,12,,,,,,,,,11,,,,59,112
68912,note_on,9,0,12,,,,,,,,,11,,,,57,0
68915,note_on,0,0,13,,,,,,,,,12,,,,59,112
68915,note_on,9,0,13,,,,,,,,,12,,,,57,0
68924,control_change,12,0,12,,,,,,,,,11,11,48,,,
68927,control_change,12,0,13,,,,,,,,,12,11,48,,,
68940,set_tempo,60,1,0,,,,,,1111111,,,,,,,,
68940,note_on,60,0,11,,,,,,,,,10,,,,81,112
68942,note_on,18,0,12,,,,,,,,,11,,,,59,0
68942,note_on,0,0,12,,,,,,,,,11,,,,61,112
68945,note_on,18,0,13,,,,,,,,,12,,,,59,0
68945,note_on,0,0,13,,,,,,,,,12,,,,61,112
68945,control_change,3,0,12,,,,,,,,,11,11,47,,,
68947,note_on,60,0,14,,,,,,,,,13,,,,54,0
68948,control_change,3,0,13,,,,,,,,,12,11,47,,,
68949,note_on,60,0,15,,,,,,,,,14,,,,42,0
68966,control_change,21,0,12,,,,,,,,,11,11,46,,,
68969,control_change,21,0,13,,,,,,,,,12,11,46,,,
68972,note_on,6,0,12,,,,,,,,,11,,,,61,0
68972,note_on,0,0,12,,,,,,,,,11,,,,60,112
68975,note_on,6,0,13,,,,,,,,,12,,,,61,0
68975,note_on,0,0,13,,,,,,,,,12,,,,60,112
68987,control_change,15,0,12,,,,,,,,,11,11,45,,,
68990,control_change,15,0,13,,,,,,,,,12,11,45,,,
69000,set_tempo,60,1,0,,,,,,1188119,,,,,,,,
69000,note_on,60,0,11,,,,,,,,,10,,,,81,0
69001,note_on,0,0,1,,,,,,,,,0,,,,80,101
69001,note_on,120,0,1,,,,,,,,,0,,,,81,0
69002,note_on,120,0,3,,,,,,,,,2,,,,69,0
69002,note_on,0,0,3,,,,,,,,,2,,,,68,101
69002,note_on,0,0,12,,,,,,,,,11,,,,61,112
69002,note_on,15,0,12,,,,,,,,,11,,,,60,0
69005,note_on,0,0,13,,,,,,,,,12,,,,61,112
69005,note_on,15,0,13,,,,,,,,,12,,,,60,0
69007,note_on,60,0,14,,,,,,,,,13,,,,52,49
69008,control_change,6,0,12,,,,,,,,,11,11,44,,,
69009,note_on,60,0,15,,,,,,,,,14,,,,40,49
69011,control_change,6,0,13,,,,,,,,,12,11,44,,,
69029,control_change,21,0,12,,,,,,,,,11,11,43,,,
69032,control_change,21,0,13,,,,,,,,,12,11,43,,,
69032,note_on,0,0,12,,,,,,,,,11,,,,63,112
69032,note_on,3,0,12,,,,,,,,,11,,,,61,0
69035,note_on,0,0,13,,,,,,,,,12,,,,63,112
69035,note_on,3,0,13,,,,,,,,,12,,,,61,0
69050,control_change,18,0,12,,,,,,,,,11,11,42,,,
69053,control_change,18,0,13,,,,,,,,,12,11,42,,,
69060,set_tempo,60,1,0,,,,,,1111111,,,,,,,,
69060,note_on,60,0,11,,,,,,,,,10,,,,85,112
69062,note_on,12,0,12,,,,,,,,,11,,,,63,0
69062,note_on,0,0,12,,,,,,,,,11,,,,64,112
69065,note_on,12,0,13,,,,,,,,,12,,,,63,0
69065,note_on,0,0,13,,,,,,,,,12,,,,64,112
69067,note_on,60,0,14,,,,,,,,,13,,,,52,0
69069,note_on,60,0,15,,,,,,,,,14,,,,40,0
69071,control_change,9,0,12,,,,,,,,,11,11,42,,,
69074,control_change,9,0,13,,,,,,,,,12,11,42,,,
69092,note_on,21,0,12,,,,,,,,,11,,,,64,0
69092,control_change,0,0,12,,,,,,,,,11,11,41,,,
69092,note_on,0,0,12,,,,,,,,,11,,,,61,112
69095,note_on,21,0,13,,,,,,,,,12,,,,64,0
69095,note_on,0,0,13,,,,,,,,,12,,,,61,112
69095,control_change,0,0,13,,,,,,,,,12,11,41,,,
69116,note_on,115,0,1,,,,,,,,,0,,,,80,0
69117,note_on,25,0,12,,,,,,,,,11,,,,61,0
69117,note_on,115,0,3,,,,,,,,,2,,,,68,0
69120,note_on,60,0,11,,,,,,,,,10,,,,85,0
69120,control_change,0,0,11,,,,,,,,,10,11,41,,,
69120,set_tempo,60,1,0,,,,,,1200000,,,,,,,,
69120,note_on,25,0,13,,,,,,,,,12,,,,61,0
69121,note_on,0,0,1,,,,,,,,,0,,,,78,101
69121,control_change,5,0,1,,,,,,,,,0,11,52,,,
69122,note_on,5,0,3,,,,,,,,,2,,,,66,101
69122,control_change,0,0,3,,,,,,,,,2,11,52,,,
69122,note_on,0,0,12,,,,,,,,,11,,,,57,112
69122,control_change,5,0,12,,,,,,,,,11,11,41,,,
69125,control_change,0,0,13,,,,,,,,,12,11,41,,,
69125,note_on,5,0,13,,,,,,,,,12,,,,57,112
69127,note_on,60,0,14,,,,,,,,,13,,,,50,49
69129,note_on,60,0,15,,,,,,,,,14,,,,38,49
69146,control_change,26,0,11,,,,,,,,,10,11,42,,,
69148,control_change,26,0,12,,,,,,,,,11,11,42,,,
69149,control_change,28,0,1,,,,,,,,,0,11,53,,,
69150,control_change,28,0,3,,,,,,,,,2,11,53,,,
69150,note_on,4,0,11,,,,,,,,,10,,,,90,112
69151,control_change,26,0,13,,,,,,,,,12,11,42,,,
69152,note_on,0,0,12,,,,,,,,,11,,,,66,112
69152,note_on,4,0,12,,,,,,,,,11,,,,57,0
69155,note_on,4,0,13,,,,,,,,,12,,,,57,0
69155,note_on,0,0,13,,,,,,,,,12,,,,66,112
69172,control_change,22,0,11,,,,,,,,,10,11,42,,,
69172,note_on,45,0,14,,,,,,,,,13,,,,50,0
69173,note_on,1,0,11,,,,,,,,,10,,,,90,0
69174,note_on,45,0,15,,,,,,,,,14,,,,38,0
69174,control_change,22,0,12,,,,,,,,,11,11,42,,,
69177,control_change,28,0,1,,,,,,,,,0,11,54,,,
69177,control_change,22,0,13,,,,,,,,,12,11,42,,,
69178,control_change,28,0,3,,,,,,,,,2,11,54,,,
69180,set_tempo,60,1,0,,,,,,1111111,,,,,,,,
69181,note_on,0,0,1,,,,,,,,,0,,,,80,101
69181,note_on,4,0,1,,,,,,,,,0,,,,78,0
69182,note_on,4,0,3,,,,,,,,,2,,,,66,0
69182,note_on,0,0,3,,,,,,,,,2,,,,68,101
69182,note_on,0,0,12,,,,,,,,,11,,,,64,112
69182,note_on,8,0,12,,,,,,,,,11,,,,66,0
69185,note_on,8,0,13,,,,,,,,,12,,,,66,0
69185,note_on,0,0,13,,,,,,,,,12,,,,64,112
69187,note_on,15,0,14,,,,,,,,,13,,,,47,51
69189,note_on,15,0,15,,,,,,,,,14,,,,35,51
69198,control_change,25,0,11,,,,,,,,,10,11,43,,,
69200,control_change,18,0,12,,,,,,,,,11,11,43,,,
69203,control_change,18,0,13,,,,,,,,,12,11,43,,,
69205,control_change,24,0,1,,,,,,,,,0,11,55,,,
69206,control_change,24,0,3,,,,,,,,,2,11,55,,,
69210,note_on,12,0,11,,,,,,,,,10,,,,88,112
69212,note_on,0,0,12,,,,,,,,,11,,,,62,112
69212,note_on,12,0,12,,,,,,,,,11,,,,64,0
69215,note_on,0,0,13,,,,,,,,,12,,,,62,112
69215,note_on,12,0,13,,,,,,,,,12,,,,64,0
69224,control_change,14,0,11,,,,,,,,,10,11,44,,,
69226,control_change,14,0,12,,,,,,,,,11,11,44,,,
69229,control_change,14,0,13,,,,,,,,,12,11,44,,,
69232,note_on,45,0,14,,,,,,,,,13,,,,47,0
69233,note_on,9,0,11,,,,,,,,,10,,,,88,0
69233,control_change,28,0,1,,,,,,,,,0,11,56,,,
69234,control_change,28,0,3,,,,,,,,,2,11,56,,,
69234,note_on,45,0,15,,,,,,,,,14,,,,35,0
69240,set_tempo,60,1,0,,,,,,1188119,,,,,,,,
69241,note_on,0,0,1,,,,,,,,,0,,,,76,101
69241,note_on,8,0,1,,,,,,,,,0,,,,80,0
69242,note_on,8,0,3,,,,,,,,,2,,,,68,0
69242,note_on,16,0,12,,,,,,,,,11,,,,62,0
69242,note_on,0,0,12,,,,,,,,,11,,,,64,112
69242,note_on,0,0,3,,,,,,,,,2,,,,64,101
69245,note_on,16,0,13,,,,,,,,,12,,,,62,0
69245,note_on,0,0,13,,,,,,,,,12,,,,64,112
69247,note_on,15,0,14,,,,,,,,,13,,,,49,53
69249,note_on,15,0,15,,,,,,,,,14,,,,37,53
69250,control_change,17,0,11,,,,,,,,,10,11,45,,,
69252,control_change,10,0,12,,,,,,,,,11,11,45,,,
69255,control_change,10,0,13,,,,,,,,,12,11,45,,,
69261,control_change,20,0,1,,,,,,,,,0,11,57,,,
69262,control_change,20,0,3,,,,,,,,,2,11,57,,,
69270,note_on,20,0,11,,,,,,,,,10,,,,85,112
69272,note_on,0,0,12,,,,,,,,,11,,,,61,112
69272,note_on,20,0,12,,,,,,,,,11,,,,64,0
69275,note_on,0,0,13,,,,,,,,,12,,,,61,112
69275,note_on,20,0,13,,,,,,,,,12,,,,64,0
69276,control_change,6,0,11,,,,,,,,,10,11,46,,,
69278,control_change,6,0,12,,,,,,,,,11,11,46,,,
69281,control_change,6,0,13,,,,,,,,,12,11,46,,,
69289,control_change,28,0,1,,,,,,,,,0,11,57,,,
69290,control_change,28,0,3,,,,,,,,,2,11,57,,,
69292,note_on,45,0,14,,,,,,,,,13,,,,49,0
69293,note_on,17,0,11,,,,,,,,,10,,,,85,0
69294,note_on,45,0,15,,,,,,,,,14,,,,37,0
69300,set_tempo,60,1,0,,,,,,1111111,,,,,,,,
69301,note_on,0,0,1,,,,,,,,,0,,,,81,101
69301,note_on,12,0,1,,,,,,,,,0,,,,76,0
69302,note_on,12,0,3,,,,,,,,,2,,,,64,0
69302,control_change,9,0,11,,,,,,,,,10,11,47,,,
69302,note_on,0,0,3,,,,,,,,,2,,,,69,101
69302,note_on,0,0,12,,,,,,,,,11,,,,57,112
69302,note_on,24,0,12,,,,,,,,,11,,,,61,0
69304,control_change,2,0,12,,,,,,,,,11,11,47,,,
69305,note_on,24,0,13,,,,,,,,,12,,,,61,0
69305,note_on,0,0,13,,,,,,,,,12,,,,57,112
69307,control_change,2,0,13,,,,,,,,,12,11,47,,,
69307,note_on,15,0,14,,,,,,,,,13,,,,54,55
69309,note_on,15,0,15,,,,,,,,,14,,,,42,55
69317,control_change,16,0,1,,,,,,,,,0,11,58,,,
69318,control_change,16,0,3,,,,,,,,,2,11,58,,,
69328,control_change,26,0,11,,,,,,,,,10,11,48,,,
69330,control_change,26,0,12,,,,,,,,,11,11,48,,,
69330,note_on,2,0,11,,,,,,,,,10,,,,81,112
69332,note_on,0,0,12,,,,,,,,,11,,,,69,112
69332,note_on,2,0,12,,,,,,,,,11,,,,57,0
69333,control_change,26,0,13,,,,,,,,,12,11,48,,,
69335,note_on,0,0,13,,,,,,,,,12,,,,69,112
69335,note_on,2,0,13,,,,,,,,,12,,,,57,0
69345,control_change,28,0,1,,,,,,,,,0,11,59,,,
69346,control_change,28,0,3,,,,,,,,,2,11,59,,,
69352,note_on,45,0,14,,,,,,,,,13,,,,54,0
69353,note_on,23,0,11,,,,,,,,,10,,,,81,0
69354,note_on,45,0,15,,,,,,,,,14,,,,42,0
69354,control_change,1,0,11,,,,,,,,,10,11,49,,,
69356,note_on,11,0,1,,,,,,,,,0,,,,81,0
69356,control_change,24,0,12,,,,,,,,,11,11,49,,,
69357,note_on,1,0,12,,,,,,,,,11,,,,69,0
69357,note_on,11,0,3,,,,,,,,,2,,,,69,0
69359,control_change,24,0,13,,,,,,,,,12,11,49,,,
69360,note_on,1,0,13,,,,,,,,,12,,,,69,0
69360,set_tempo,60,1,0,,,,,,1200000,,,,,,,,
69361,note_on,5,0,1,,,,,,,,,0,,,,83,101
69362,note_on,5,0,3,,,,,,,,,2,,,,71,101
69362,note_on,5,0,12,,,,,,,,,11,,,,66,112
69365,note_on,5,0,13,,,,,,,,,12,,,,66,112
69367,note_on,15,0,14,,,,,,,,,13,,,,50,58
69369,note_on,15,0,15,,,,,,,,,14,,,,38,58
69373,control_change,12,0,1,,,,,,,,,0,11,60,,,
69374,control_change,12,0,3,,,,,,,,,2,11,60,,,
69380,control_change,26,0,11,,,,,,,,,10,11,50,,,
69382,control_change,20,0,12,,,,,,,,,11,11,50,,,
69385,control_change,20,0,13,,,,,,,,,12,11,50,,,
69392,note_on,0,0,12,,,,,,,,,11,,,,69,112
69392,note_on,10,0,12,,,,,,,,,11,,,,66,0
69395,note_on,0,0,13,,,,,,,,,12,,,,69,112
69395,note_on,10,0,13,,,,,,,,,12,,,,66,0
69401,control_change,28,0,1,,,,,,,,,0,11,60,,,
69402,control_change,28,0,3,,,,,,,,,2,11,60,,,
69406,control_change,26,0,11,,,,,,,,,10,11,51,,,
69408,control_change,16,0,12,,,,,,,,,11,11,51,,,
69411,control_change,16,0,13,,,,,,,,,12,11,51,,,
69420,set_tempo,60,1,0,,,,,,1111111,,,,,,,,
69420,note_on,14,0,11,,,,,,,,,10,,,,78,112
69422,note_on,0,0,12,,,,,,,,,11,,,,68,112
69422,note_on,14,0,12,,,,,,,,,11,,,,69,0
69425,note_on,14,0,13,,,,,,,,,12,,,,69,0
69425,note_on,0,0,13,,,,,,,,,12,,,,68,112
69427,note_on,60,0,14,,,,,,,,,13,,,,50,0
69429,note_on,60,0,15,,,,,,,,,14,,,,38,0
69429,control_change,28,0,1,,,,,,,,,0,11,61,,,
69430,control_change,28,0,3,,,,,,,,,2,11,61,,,
69432,control_change,12,0,11,,,,,,,,,10,11,52,,,
69434,control_change,12,0,12,,,,,,,,,11,11,52,,,
69437,control_change,12,0,13,,,,,,,,,12,11,52,,,
69452,note_on,0,0,12,,,,,,,,,11,,,,66,112
69452,note_on,18,0,12,,,,,,,,,11,,,,68,0
69455,note_on,0,0,13,,,,,,,,,12,,,,66,112
69455,note_on,18,0,13,,,,,,,,,12,,,,68,0
69457,control_change,28,0,1,,,,,,,,,0,11,62,,,
69458,control_change,28,0,3,,,,,,,,,2,11,62,,,
69458,control_change,26,0,11,,,,,,,,,10,11,53,,,
69460,control_change,8,0,12,,,,,,,,,11,11,53,,,
69463,control_change,8,0,13,,,,,,,,,12,11,53,,,
69480,note_on,22,0,11,,,,,,,,,10,,,,78,0
69480,set_tempo,60,1,0,,,,,,1188119,,,,,,,,
69482,note_on,22,0,12,,,,,,,,,11,,,,66,0
69482,note_on,0,0,12,,,,,,,,,11,,,,68,112
69484,control_change,4,0,11,,,,,,,,,10,11,54,,,
69485,control_change,28,0,1,,,,,,,,,0,11,63,,,
69485,note_on,22,0,13,,,,,,,,,12,,,,66,0
69485,note_on,0,0,13,,,,,,,,,12,,,,68,112
69486,control_change,4,0,12,,,,,,,,,11,11,54,,,
69486,control_change,28,0,3,,,,,,,,,2,11,63,,,
69487,note_on,60,0,14,,,,,,,,,13,,,,52,62
69489,note_on,60,0,15,,,,,,,,,14,,,,40,62
69489,control_change,4,0,13,,,,,,,,,12,11,54,,,
69510,control_change,26,0,11,,,,,,,,,10,11,55,,,
69512,note_on,0,0,12,,,,,,,,,11,,,,71,112
69512,note_on,26,0,12,,,,,,,,,11,,,,68,0
69512,control_change,0,0,12,,,,,,,,,11,11,55,,,
69513,control_change,28,0,1,,,,,,,,,0,11,63,,,
69514,control_change,28,0,3,,,,,,,,,2,11,63,,,
69515,note_on,26,0,13,,,,,,,,,12,,,,68,0
69515,control_change,0,0,13,,,,,,,,,12,11,55,,,
69515,note_on,0,0,13,,,,,,,,,12,,,,71,112
69540,control_change,0,0,11,,,,,,,,,10,11,55,,,
69540,note_on,30,0,11,,,,,,,,,10,,,,78,92
69540,set_tempo,60,1,0,,,,,,1111111,,,,,,,,
69541,control_change,0,0,1,,,,,,,,,0,11,64,,,
69541,note_on,28,0,1,,,,,,,,,0,,,,83,0
69541,note_on,0,0,1,,,,,,,,,0,,,,85,101
69542,control_change,0,0,3,,,,,,,,,2,11,64,,,
69542,note_on,0,0,12,,,,,,,,,11,,,,69,112
69542,control_change,0,0,12,,,,,,,,,11,11,55,,,
69542,note_on,0,0,3,,,,,,,,,2,,,,73,101
69542,note_on,30,0,12,,,,,,,,,11,,,,71,0
69542,note_on,28,0,3,,,,,,,,,2,,,,71,0
69545,note_on,0,0,13,,,,,,,,,12,,,,69,112
69545,control_change,0,0,13,,,,,,,,,12,11,55,,,
69545,note_on,30,0,13,,,,,,,,,12,,,,71,0
69547,note_on,60,0,14,,,,,,,,,13,,,,52,0
69549,note_on,60,0,15,,,,,,,,,14,,,,40,0
69552,control_change,12,0,11,,,,,,,,,10,11,52,,,
69554,control_change,12,0,12,,,,,,,,,11,11,52,,,
69557,control_change,12,0,13,,,,,,,,,12,11,52,,,
69564,control_change,12,0,11,,,,,,,,,10,11,49,,,
69565,control_change,24,0,1,,,,,,,,,0,11,60,,,
69566,control_change,24,0,3,,,,,,,,,2,11,60,,,
69566,control_change,12,0,12,,,,,,,,,11,11,49,,,
69569,control_change,12,0,13,,,,,,,,,12,11,49,,,
69570,set_tempo,30,1,0,,,,,,1304348,,,,,,,,
69571,note_on,0,0,1,,,,,,,,,0,,,,86,101
69571,note_on,6,0,1,,,,,,,,,0,,,,85,0
69572,note_on,6,0,3,,,,,,,,,2,,,,73,0
69572,note_on,0,0,3,,,,,,,,,2,,,,74,101
69572,note_on,6,0,12,,,,,,,,,11,,,,69,0
69572,note_on,0,0,12,,,,,,,,,11,,,,68,112
69575,note_on,6,0,13,,,,,,,,,12,,,,69,0
69575,note_on,0,0,13,,,,,,,,,12,,,,68,112
69576,control_change,12,0,11,,,,,,,,,10,11,46,,,
69577,control_change,6,0,1,,,,,,,,,0,11,57,,,
69578,control_change,6,0,12,,,,,,,,,11,11,46,,,
69578,control_change,6,0,3,,,,,,,,,2,11,57,,,
69581,control_change,6,0,13,,,,,,,,,12,11,46,,,
69588,control_change,12,0,11,,,,,,,,,10,11,43,,,
69590,control_change,12,0,12,,,,,,,,,11,11,43,,,
69593,control_change,12,0,13,,,,,,,,,12,11,43,,,
69596,note_on,19,0,1,,,,,,,,,0,,,,86,0
69597,note_on,19,0,3,,,,,,,,,2,,,,74,0
69597,note_on,7,0,12,,,,,,,,,11,,,,68,0
69600,note_on,7,0,13,,,,,,,,,12,,,,68,0
69600,note_on,12,0,11,,,,,,,,,10,,,,78,0
69600,set_tempo,30,1,0,,,,,,1200000,,,,,,,,
69601,note_on,5,0,1,,,,,,,,,0,,,,85,101
69601,control_change,0,0,1,,,,,,,,,0,11,52,,,
69602,control_change,0,0,3,,,,,,,,,2,11,52,,,
69602,note_on,5,0,3,,,,,,,,,2,,,,73,101
69602,note_on,0,0,2,,,,,,,,,1,,,,73,100
69602,note_on,5,0,12,,,,,,,,,11,,,,69,112
69602,note_on,900,0,2,,,,,,,,,1,,,,64,100
69602,control_change,0,0,2,,,,,,,,,1,11,52,,,
69605,note_on,5,0,13,,,,,,,,,12,,,,69,112
69607,note_on,900,0,4,,,,,,,,,3,,,,61,100
69607,note_on,60,0,14,,,,,,,,,13,,,,57,49
69607,note_on,0,0,4,,,,,,,,,3,,,,57,100
69607,control_change,0,0,4,,,,,,,,,3,11,52,,,
69609,note_on,60,0,15,,,,,,,,,14,,,,45,49
69632,note_on,30,0,12,,,,,,,,,11,,,,69,0
69632,note_on,0,0,12,,,,,,,,,11,,,,68,112
69635,note_on,0,0,13,,,,,,,,,12,,,,68,112
69635,note_on,30,0,13,,,,,,,,,12,,,,69,0
69660,note_on,60,0,11,,,,,,,,,10,,,,73,112
69660,set_tempo,60,1,0,,,,,,1153846,,,,,,,,
69661,note_on,60,0,1,,,,,,,,,0,,,,85,0
69662,note_on,30,0,12,,,,,,,,,11,,,,68,0
69662,note_on,0,0,12,,,,,,,,,11,,,,66,112
69662,note_on,60,0,3,,,,,,,,,2,,,,73,0
69665,note_on,30,0,13,,,,,,,,,12,,,,68,0
69665,note_on,0,0,13,,,,,,,,,12,,,,66,112
69667,note_on,60,0,14,,,,,,,,,13,,,,57,0
69669,note_on,60,0,15,,,,,,,,,14,,,,45,0
69692,note_on,0,0,12,,,,,,,,,11,,,,64,112
69692,note_on,30,0,12,,,,,,,,,11,,,,66,0
69695,note_on,0,0,13,,,,,,,,,12,,,,64,112
69695,note_on,30,0,13,,,,,,,,,12,,,,66,0
69717,note_on,25,0,12,,,,,,,,,11,,,,64,0
69720,note_on,25,0,13,,,,,,,,,12,,,,64,0
69720,note_on,60,0,11,,,,,,,,,10,,,,73,0
69720,set_tempo,60,1,0,,,,,,1200000,,,,,,,,
69722,note_on,5,0,12,,,,,,,,,11,,,,64,112
69722,note_on,120,0,2,,,,,,,,,1,,,,73,0
69722,note_on,0,0,2,,,,,,,,,1,,,,71,100
69725,note_on,5,0,13,,,,,,,,,12,,,,64,112
69727,note_on,60,0,14,,,,,,,,,13,,,,56,49
69727,note_on,120,0,4,,,,,,,,,3,,,,57,0
69727,note_on,0,0,4,,,,,,,,,3,,,,61,0
69727,note_on,0,0,4,,,,,,,,,3,,,,56,100
69727,note_on,0,0,4,,,,,,,,,3,,,,59,100
69729,note_on,60,0,15,,,,,,,,,14,,,,44,49
69752,note_on,0,0,12,,,,,,,,,11,,,,62,112
69752,note_on,30,0,12,,,,,,,,,11,,,,64,0
69755,note_on,30,0,13,,,,,,,,,12,,,,64,0
69755,note_on,0,0,13,,,,,,,,,12,,,,62,112
69780,set_tempo,60,1,0,,,,,,1153846,,,,,,,,
69780,note_on,60,0,11,,,,,,,,,10,,,,76,112
69782,note_on,0,0,12,,,,,,,,,11,,,,61,112
69782,note_on,30,0,12,,,,,,,,,11,,,,62,0
69785,note_on,0,0,13,,,,,,,,,12,,,,61,112
69785,note_on,30,0,13,,,,,,,,,12,,,,62,0
69787,note_on,60,0,4,,,,,,,,,3,,,,56,0
69787,note_on,0,0,4,,,,,,,,,3,,,,55,100
69787,note_on,0,0,14,,,,,,,,,13,,,,55,49
69787,note_on,60,0,14,,,,,,,,,13,,,,56,0
69789,note_on,0,0,15,,,,,,,,,14,,,,43,49
69789,note_on,60,0,15,,,,,,,,,14,,,,44,0
69812,note_on,30,0,12,,,,,,,,,11,,,,61,0
69812,note_on,0,0,12,,,,,,,,,11,,,,59,112
69815,note_on,0,0,13,,,,,,,,,12,,,,59,112
69815,note_on,30,0,13,,,,,,,,,12,,,,61,0
69837,note_on,25,0,12,,,,,,,,,11,,,,59,0
69840,note_on,25,0,13,,,,,,,,,12,,,,59,0
69840,set_tempo,60,1,0,,,,,,1200000,,,,,,,,
69840,note_on,60,0,11,,,,,,,,,10,,,,76,0
69842,note_on,120,0,2,,,,,,,,,1,,,,71,0
69842,note_on,5,0,12,,,,,,,,,11,,,,61,112
69842,note_on,0,0,2,,,,,,,,,1,,,,70,100
69845,note_on,5,0,13,,,,,,,,,12,,,,61,112
69847,note_on,0,0,4,,,,,,,,,3,,,,54,100
69847,note_on,0,0,4,,,,,,,,,3,,,,59,0
69847,note_on,60,0,4,,,,,,,,,3,,,,55,0
69847,note_on,60,0,14,,,,,,,,,13,,,,55,0
69847,note_on,0,0,14,,,,,,,,,13,,,,54,49
69847,note_on,0,0,4,,,,,,,,,3,,,,61,100
69849,note_on,0,0,15,,,,,,,,,14,,,,42,49
69849,note_on,60,0,15,,,,,,,,,14,,,,43,0
69872,note_on,30,0,12,,,,,,,,,11,,,,61,0
69872,note_on,0,0,12,,,,,,,,,11,,,,66,112
69875,note_on,0,0,13,,,,,,,,,12,,,,66,112
69875,note_on,30,0,13,,,,,,,,,12,,,,61,0
69900,note_on,60,0,11,,,,,,,,,10,,,,78,112
69900,set_tempo,60,1,0,,,,,,1153846,,,,,,,,
69902,note_on,30,0,12,,,,,,,,,11,,,,66,0
69902,note_on,0,0,12,,,,,,,,,11,,,,61,112
69905,note_on,30,0,13,,,,,,,,,12,,,,66,0
69905,note_on,0,0,13,,,,,,,,,12,,,,61,112
69907,note_on,60,0,14,,,,,,,,,13,,,,54,0
69909,note_on,60,0,15,,,,,,,,,14,,,,42,0
69932,note_on,0,0,12,,,,,,,,,11,,,,62,112
69932,note_on,30,0,12,,,,,,,,,11,,,,61,0
69935,note_on,30,0,13,,,,,,,,,12,,,,61,0
69935,note_on,0,0,13,,,,,,,,,12,,,,62,112
69960,set_tempo,60,1,0,,,,,,1200000,,,,,,,,
69960,note_on,60,0,11,,,,,,,,,10,,,,78,0
69962,note_on,30,0,12,,,,,,,,,11,,,,62,0
69962,note_on,0,0,12,,,,,,,,,11,,,,66,112
69965,note_on,30,0,13,,,,,,,,,12,,,,62,0
69965,note_on,0,0,13,,,,,,,,,12,,,,66,112
69992,note_on,0,0,12,,,,,,,,,11,,,,64,112
69992,note_on,30,0,12,,,,,,,,,11,,,,66,0
69995,note_on,0,0,13,,,,,,,,,12,,,,64,112
69995,note_on,30,0,13,,,,,,,,,12,,,,66,0
70017,note_on,0,0,2,,,,,,,,,1,,,,64,0
70017,note_on,175,0,2,,,,,,,,,1,,,,70,0
70020,set_tempo,60,1,0,,,,,,1153846,,,,,,,,
70020,note_on,60,0,11,,,,,,,,,10,,,,82,112
70022,note_on,30,0,12,,,,,,,,,11,,,,64,0
70022,note_on,175,0,4,,,,,,,,,3,,,,61,0
70022,note_on,0,0,4,,,,,,,,,3,,,,54,0
70022,note_on,0,0,2,,,,,,,,,1,,,,70,100
70022,control_change,0,0,2,,,,,,,,,1,11,52,,,
70022,note_on,5,0,2,,,,,,,,,1,,,,67,100
70022,note_on,0,0,12,,,,,,,,,11,,,,62,112
70025,note_on,0,0,13,,,,,,,,,12,,,,62,112
70025,note_on,30,0,13,,,,,,,,,12,,,,64,0
70027,note_on,0,0,4,,,,,,,,,3,,,,55,100
70027,note_on,120,0,14,,,,,,,,,13,,,,52,49
70027,control_change,5,0,4,,,,,,,,,3,11,52,,,
70027,note_on,0,0,4,,,,,,,,,3,,,,58,100
70029,note_on,120,0,15,,,,,,,,,14,,,,40,49
70052,note_on,0,0,12,,,,,,,,,11,,,,61,112
70052,note_on,30,0,12,,,,,,,,,11,,,,62,0
70054,control_change,32,0,2,,,,,,,,,1,11,53,,,
70055,note_on,30,0,13,,,,,,,,,12,,,,62,0
70055,note_on,0,0,13,,,,,,,,,12,,,,61,112
70059,control_change,32,0,4,,,,,,,,,3,11,53,,,
70077,note_on,25,0,12,,,,,,,,,11,,,,61,0
70080,set_tempo,60,1,0,,,,,,1200000,,,,,,,,
70080,note_on,60,0,11,,,,,,,,,10,,,,82,0
70080,note_on,25,0,13,,,,,,,,,12,,,,61,0
70080,control_change,0,0,11,,,,,,,,,10,11,41,,,
70082,note_on,28,0,2,,,,,,,,,1,,,,70,0
70082,note_on,0,0,2,,,,,,,,,1,,,,67,0
70082,note_on,0,0,2,,,,,,,,,1,,,,66,100
70082,note_on,0,0,2,,,,,,,,,1,,,,71,100
70082,control_change,0,0,12,,,,,,,,,11,11,41,,,
70082,note_on,5,0,12,,,,,,,,,11,,,,62,112
70085,control_change,0,0,13,,,,,,,,,12,11,41,,,
70085,note_on,5,0,13,,,,,,,,,12,,,,62,112
70086,control_change,4,0,2,,,,,,,,,1,11,54,,,
70087,note_on,0,0,14,,,,,,,,,13,,,,50,49
70087,note_on,0,0,4,,,,,,,,,3,,,,59,100
70087,note_on,0,0,4,,,,,,,,,3,,,,54,100
70087,note_on,0,0,4,,,,,,,,,3,,,,55,0
70087,note_on,60,0,14,,,,,,,,,13,,,,52,0
70087,note_on,28,0,4,,,,,,,,,3,,,,58,0
70089,note_on,60,0,15,,,,,,,,,14,,,,40,0
70089,note_on,0,0,15,,,,,,,,,14,,,,38,49
70091,control_change,4,0,4,,,,,,,,,3,11,54,,,
70110,note_on,30,0,11,,,,,,,,,10,,,,83,112
70112,note_on,0,0,12,,,,,,,,,11,,,,71,112
70112,note_on,30,0,12,,,,,,,,,11,,,,62,0
70112,control_change,2,0,11,,,,,,,,,10,11,42,,,
70114,control_change,2,0,12,,,,,,,,,11,11,42,,,
70115,note_on,0,0,13,,,,,,,,,12,,,,71,112
70115,note_on,30,0,13,,,,,,,,,12,,,,62,0
70117,control_change,2,0,13,,,,,,,,,12,11,42,,,
70118,control_change,32,0,2,,,,,,,,,1,11,55,,,
70123,control_change,32,0,4,,,,,,,,,3,11,55,,,
70132,note_on,45,0,14,,,,,,,,,13,,,,50,0
70133,note_on,21,0,11,,,,,,,,,10,,,,83,0
70134,note_on,45,0,15,,,,,,,,,14,,,,38,0
70140,set_tempo,60,1,0,,,,,,1153846,,,,,,,,
70142,note_on,24,0,2,,,,,,,,,1,,,,71,0
70142,note_on,28,0,12,,,,,,,,,11,,,,71,0
70142,note_on,0,0,2,,,,,,,,,1,,,,73,100
70142,note_on,0,0,2,,,,,,,,,1,,,,67,100
70142,note_on,0,0,2,,,,,,,,,1,,,,66,0
70142,note_on,0,0,12,,,,,,,,,11,,,,69,112
70144,control_change,11,0,11,,,,,,,,,10,11,42,,,
70145,note_on,0,0,13,,,,,,,,,12,,,,69,112
70145,note_on,28,0,13,,,,,,,,,12,,,,71,0
70146,control_change,4,0,12,,,,,,,,,11,11,42,,,
70147,note_on,24,0,4,,,,,,,,,3,,,,59,0
70147,note_on,0,0,4,,,,,,,,,3,,,,55,100
70147,note_on,15,0,14,,,,,,,,,13,,,,52,50
70147,note_on,0,0,4,,,,,,,,,3,,,,54,0
70147,note_on,0,0,4,,,,,,,,,3,,,,61,100
70149,note_on,15,0,15,,,,,,,,,14,,,,40,50
70149,control_change,4,0,13,,,,,,,,,12,11,42,,,
70150,control_change,8,0,2,,,,,,,,,1,11,56,,,
70155,control_change,8,0,4,,,,,,,,,3,11,56,,,
70170,note_on,26,0,11,,,,,,,,,10,,,,81,112
70172,note_on,26,0,12,,,,,,,,,11,,,,69,0
70172,note_on,0,0,12,,,,,,,,,11,,,,67,112
70175,note_on,0,0,13,,,,,,,,,12,,,,67,112
70175,note_on,26,0,13,,,,,,,,,12,,,,69,0
70176,control_change,6,0,11,,,,,,,,,10,11,43,,,
70178,control_change,6,0,12,,,,,,,,,11,11,43,,,
70181,control_change,6,0,13,,,,,,,,,12,11,43,,,
70182,control_change,32,0,2,,,,,,,,,1,11,57,,,
70187,control_change,32,0,4,,,,,,,,,3,11,57,,,
70192,note_on,45,0,14,,,,,,,,,13,,,,52,0
70193,note_on,17,0,11,,,,,,,,,10,,,,81,0
70194,note_on,45,0,15,,,,,,,,,14,,,,40,0
70200,set_tempo,60,1,0,,,,,,1200000,,,,,,,,
70202,note_on,0,0,12,,,,,,,,,11,,,,69,112
70202,note_on,24,0,12,,,,,,,,,11,,,,67,0
70202,note_on,0,0,2,,,,,,,,,1,,,,67,0
70202,note_on,20,0,2,,,,,,,,,1,,,,73,0
70202,note_on,0,0,2,,,,,,,,,1,,,,69,100
70205,note_on,0,0,13,,,,,,,,,12,,,,69,112
70205,note_on,24,0,13,,,,,,,,,12,,,,67,0
70207,note_on,15,0,14,,,,,,,,,13,,,,54,52
70207,note_on,20,0,4,,,,,,,,,3,,,,61,0
70207,note_on,0,0,4,,,,,,,,,3,,,,57,100
70207,note_on,0,0,4,,,,,,,,,3,,,,55,0
70208,control_change,15,0,11,,,,,,,,,10,11,44,,,
70209,note_on,15,0,15,,,,,,,,,14,,,,42,52
70210,control_change,8,0,12,,,,,,,,,11,11,44,,,
70213,control_change,8,0,13,,,,,,,,,12,11,44,,,
70214,control_change,12,0,2,,,,,,,,,1,11,57,,,
70219,control_change,12,0,4,,,,,,,,,3,11,58,,,
70230,note_on,22,0,11,,,,,,,,,10,,,,78,112
70232,note_on,22,0,12,,,,,,,,,11,,,,69,0
70232,note_on,0,0,12,,,,,,,,,11,,,,66,112
70235,note_on,0,0,13,,,,,,,,,12,,,,66,112
70235,note_on,22,0,13,,,,,,,,,12,,,,69,0
70240,control_change,10,0,11,,,,,,,,,10,11,45,,,
70242,control_change,10,0,12,,,,,,,,,11,11,45,,,
70245,control_change,10,0,13,,,,,,,,,12,11,45,,,
70246,control_change,32,0,2,,,,,,,,,1,11,58,,,
70251,control_change,32,0,4,,,,,,,,,3,11,59,,,
70252,note_on,45,0,14,,,,,,,,,13,,,,54,0
70253,note_on,13,0,11,,,,,,,,,10,,,,78,0
70254,note_on,45,0,15,,,,,,,,,14,,,,42,0
70260,set_tempo,60,1,0,,,,,,1153846,,,,,,,,
70262,note_on,0,0,2,,,,,,,,,1,,,,74,100
70262,note_on,0,0,2,,,,,,,,,1,,,,66,100
70262,note_on,0,0,12,,,,,,,,,11,,,,62,112
70262,note_on,20,0,12,,,,,,,,,11,,,,66,0
70262,note_on,16,0,2,,,,,,,,,1,,,,69,0
70265,note_on,20,0,13,,,,,,,,,12,,,,66,0
70265,note_on,0,0,13,,,,,,,,,12,,,,62,112
70267,note_on,0,0,4,,,,,,,,,3,,,,54,100
70267,note_on,0,0,4,,,,,,,,,3,,,,62,100
70267,note_on,15,0,14,,,,,,,,,13,,,,59,54
70267,note_on,16,0,4,,,,,,,,,3,,,,57,0
70269,note_on,15,0,15,,,,,,,,,14,,,,47,54
70272,control_change,19,0,11,,,,,,,,,10,11,46,,,
70274,control_change,12,0,12,,,,,,,,,11,11,46,,,
70277,control_change,12,0,13,,,,,,,,,12,11,46,,,
70278,control_change,16,0,2,,,,,,,,,1,11,59,,,
70283,control_change,16,0,4,,,,,,,,,3,11,60,,,
70290,note_on,18,0,11,,,,,,,,,10,,,,74,112
70292,note_on,18,0,12,,,,,,,,,11,,,,62,0
70292,note_on,0,0,12,,,,,,,,,11,,,,74,112
70295,note_on,0,0,13,,,,,,,,,12,,,,74,112
70295,note_on,18,0,13,,,,,,,,,12,,,,62,0
70304,control_change,14,0,11,,,,,,,,,10,11,47,,,
70306,control_change,14,0,12,,,,,,,,,11,11,47,,,
70309,control_change,14,0,13,,,,,,,,,12,11,47,,,
70310,control_change,32,0,2,,,,,,,,,1,11,60,,,
70312,note_on,45,0,14,,,,,,,,,13,,,,59,0
70313,note_on,9,0,11,,,,,,,,,10,,,,74,0
70314,note_on,45,0,15,,,,,,,,,14,,,,47,0
70315,control_change,32,0,4,,,,,,,,,3,11,61,,,
70317,note_on,11,0,12,,,,,,,,,11,,,,74,0
70317,note_on,7,0,2,,,,,,,,,1,,,,66,0
70317,note_on,0,0,2,,,,,,,,,1,,,,74,0
70320,note_on,11,0,13,,,,,,,,,12,,,,74,0
70320,set_tempo,60,1,0,,,,,,1200000,,,,,,,,
70322,note_on,5,0,2,,,,,,,,,1,,,,71,100
70322,note_on,7,0,4,,,,,,,,,3,,,,62,0
70322,note_on,0,0,4,,,,,,,,,3,,,,54,0
70322,note_on,5,0,12,,,,,,,,,11,,,,71,112
70322,note_on,0,0,2,,,,,,,,,1,,,,76,100
70325,note_on,5,0,13,,,,,,,,,12,,,,59,112
70327,note_on,15,0,14,,,,,,,,,13,,,,55,56
70327,note_on,5,0,4,,,,,,,,,3,,,,64,100
70327,note_on,0,0,4,,,,,,,,,3,,,,59,100
70329,note_on,15,0,15,,,,,,,,,14,,,,43,56
70336,control_change,23,0,11,,,,,,,,,10,11,48,,,
70338,control_change,16,0,12,,,,,,,,,11,11,48,,,
70341,control_change,16,0,13,,,,,,,,,12,11,48,,,
70342,control_change,20,0,2,,,,,,,,,1,11,60,,,
70347,control_change,20,0,4,,,,,,,,,3,11,62,,,
70352,note_on,14,0,12,,,,,,,,,11,,,,71,0
70352,note_on,0,0,12,,,,,,,,,11,,,,74,112
70355,note_on,0,0,13,,,,,,,,,12,,,,62,112
70355,note_on,14,0,13,,,,,,,,,12,,,,59,0
70368,control_change,32,0,11,,,,,,,,,10,11,49,,,
70370,control_change,18,0,12,,,,,,,,,11,11,49,,,
70373,control_change,18,0,13,,,,,,,,,12,11,49,,,
70374,control_change,32,0,2,,,,,,,,,1,11,61,,,
70379,control_change,32,0,4,,,,,,,,,3,11,63,,,
70380,note_on,12,0,11,,,,,,,,,10,,,,83,112
70380,set_tempo,60,1,0,,,,,,1153846,,,,,,,,
70382,note_on,8,0,2,,,,,,,,,1,,,,71,0
70382,note_on,0,0,2,,,,,,,,,1,,,,73,100
70382,note_on,12,0,12,,,,,,,,,11,,,,74,0
70382,note_on,0,0,12,,,,,,,,,11,,,,73,112
70385,note_on,0,0,13,,,,,,,,,12,,,,61,112
70385,note_on,12,0,13,,,,,,,,,12,,,,62,0
70387,note_on,8,0,4,,,,,,,,,3,,,,59,0
70387,note_on,60,0,14,,,,,,,,,13,,,,55,0
70387,note_on,0,0,4,,,,,,,,,3,,,,61,100
70389,note_on,60,0,15,,,,,,,,,14,,,,43,0
70400,control_change,20,0,11,,,,,,,,,10,11,50,,,
70402,control_change,20,0,12,,,,,,,,,11,11,50,,,
70405,control_change,20,0,13,,,,,,,,,12,11,50,,,
70406,control_change,24,0,2,,,,,,,,,1,11,62,,,
70411,control_change,24,0,4,,,,,,,,,3,11,64,,,
70412,note_on,10,0,12,,,,,,,,,11,,,,73,0
70412,note_on,0,0,12,,,,,,,,,11,,,,71,112
70412,note_on,0,0,2,,,,,,,,,1,,,,74,100
70412,note_on,6,0,2,,,,,,,,,1,,,,73,0
70415,note_on,0,0,13,,,,,,,,,12,,,,59,112
70415,note_on,10,0,13,,,,,,,,,12,,,,61,0
70417,note_on,0,0,4,,,,,,,,,3,,,,62,100
70417,note_on,6,0,4,,,,,,,,,3,,,,61,0
70432,control_change,32,0,11,,,,,,,,,10,11,51,,,
70434,control_change,22,0,12,,,,,,,,,11,11,51,,,
70437,control_change,22,0,13,,,,,,,,,12,11,51,,,
70438,control_change,26,0,2,,,,,,,,,1,11,63,,,
70440,note_on,8,0,11,,,,,,,,,10,,,,83,0
70440,set_tempo,60,1,0,,,,,,1200000,,,,,,,,
70442,note_on,0,0,2,,,,,,,,,1,,,,73,100
70442,note_on,8,0,12,,,,,,,,,11,,,,71,0
70442,note_on,0,0,12,,,,,,,,,11,,,,73,112
70442,note_on,4,0,2,,,,,,,,,1,,,,74,0
70443,control_change,26,0,4,,,,,,,,,3,11,65,,,
70445,note_on,0,0,13,,,,,,,,,12,,,,61,112
70445,note_on,8,0,13,,,,,,,,,12,,,,59,0
70447,note_on,60,0,14,,,,,,,,,13,,,,57,60
70447,note_on,4,0,4,,,,,,,,,3,,,,62,0
70447,note_on,0,0,4,,,,,,,,,3,,,,61,100
70449,note_on,60,0,15,,,,,,,,,14,,,,45,60
70464,control_change,24,0,11,,,,,,,,,10,11,52,,,
70466,control_change,24,0,12,,,,,,,,,11,11,52,,,
70469,control_change,24,0,13,,,,,,,,,12,11,52,,,
70470,control_change,28,0,2,,,,,,,,,1,11,63,,,
70472,note_on,0,0,12,,,,,,,,,11,,,,76,112
70472,note_on,6,0,12,,,,,,,,,11,,,,73,0
70475,note_on,0,0,13,,,,,,,,,12,,,,64,112
70475,note_on,6,0,13,,,,,,,,,12,,,,61,0
70475,control_change,28,0,4,,,,,,,,,3,11,66,,,
70496,control_change,32,0,11,,,,,,,,,10,11,53,,,
70498,control_change,26,0,12,,,,,,,,,11,11,53,,,
70500,set_tempo,60,1,0,,,,,,1153846,,,,,,,,
70500,note_on,4,0,11,,,,,,,,,10,,,,81,112
70501,control_change,26,0,13,,,,,,,,,12,11,53,,,
70502,control_change,0,0,2,,,,,,,,,1,11,64,,,
70502,note_on,4,0,12,,,,,,,,,11,,,,76,0
70502,note_on,0,0,12,,,,,,,,,11,,,,74,112
70502,note_on,0,0,2,,,,,,,,,1,,,,78,100
70502,note_on,32,0,2,,,,,,,,,1,,,,76,0
70505,note_on,4,0,13,,,,,,,,,12,,,,64,0
70505,note_on,0,0,13,,,,,,,,,12,,,,62,112
70507,note_on,0,0,4,,,,,,,,,3,,,,66,100
70507,note_on,32,0,4,,,,,,,,,3,,,,64,0
70507,control_change,0,0,4,,,,,,,,,3,11,67,,,
70507,note_on,60,0,14,,,,,,,,,13,,,,57,0
70509,note_on,60,0,15,,,,,,,,,14,,,,45,0
70519,control_change,12,0,4,,,,,,,,,3,11,64,,,
70526,control_change,24,0,2,,,,,,,,,1,11,60,,,
70528,control_change,28,0,11,,,,,,,,,10,11,54,,,
70530,control_change,28,0,12,,,,,,,,,11,11,54,,,
70531,control_change,12,0,4,,,,,,,,,3,11,61,,,
70532,note_on,0,0,2,,,,,,,,,1,,,,79,100
70532,note_on,2,0,12,,,,,,,,,11,,,,74,0
70532,note_on,0,0,12,,,,,,,,,11,,,,73,112
70532,note_on,6,0,2,,,,,,,,,1,,,,78,0
70533,control_change,28,0,13,,,,,,,,,12,11,54,,,
70535,note_on,0,0,13,,,,,,,,,12,,,,61,112
70535,note_on,2,0,13,,,,,,,,,12,,,,62,0
70537,note_on,0,0,4,,,,,,,,,3,,,,67,100
70537,note_on,6,0,4,,,,,,,,,3,,,,66,0
70538,control_change,6,0,2,,,,,,,,,1,11,57,,,
70543,control_change,6,0,4,,,,,,,,,3,11,58,,,
70555,control_change,12,0,4,,,,,,,,,3,11,55,,,
70557,note_on,25,0,12,,,,,,,,,11,,,,73,0
70560,control_change,0,0,11,,,,,,,,,10,11,55,,,
70560,set_tempo,60,1,0,,,,,,1165049,,,,,,,,
70560,note_on,25,0,13,,,,,,,,,12,,,,61,0
70560,note_on,32,0,11,,,,,,,,,10,,,,81,0
70561,control_change,0,0,1,,,,,,,,,0,11,55,,,
70561,note_on,0,0,1,,,,,,,,,0,,,,90,101
70561,note_on,900,0,1,,,,,,,,,0,,,,86,101
70562,note_on,0,0,12,,,,,,,,,11,,,,74,112
70562,control_change,5,0,12,,,,,,,,,11,11,55,,,
70562,note_on,0,0,2,,,,,,,,,1,,,,73,0
70562,note_on,0,0,2,,,,,,,,,1,,,,74,100
70562,note_on,900,0,3,,,,,,,,,2,,,,78,101
70562,note_on,0,0,3,,,,,,,,,2,,,,74,101
70562,control_change,0,0,3,,,,,,,,,2,11,55,,,
70562,note_on,24,0,2,,,,,,,,,1,,,,79,0
70562,note_on,0,0,2,,,,,,,,,1,,,,78,100
70565,control_change,5,0,13,,,,,,,,,12,11,55,,,
70565,note_on,0,0,13,,,,,,,,,12,,,,62,112
70567,note_on,0,0,4,,,,,,,,,3,,,,61,0
70567,note_on,0,0,4,,,,,,,,,3,,,,66,100
70567,note_on,60,0,14,,,,,,,,,13,,,,50,64
70567,note_on,0,0,4,,,,,,,,,3,,,,62,100
70567,note_on,12,0,4,,,,,,,,,3,,,,67,0
70568,control_change,6,0,2,,,,,,,,,1,11,57,,,
70569,note_on,60,0,15,,,,,,,,,14,,,,38,64
70573,control_change,6,0,4,,,,,,,,,3,11,58,,,
70585,control_change,24,0,1,,,,,,,,,0,11,60,,,
70586,control_change,24,0,3,,,,,,,,,2,11,60,,,
70586,control_change,18,0,2,,,,,,,,,1,11,60,,,
70591,control_change,18,0,4,,,,,,,,,3,11,61,,,
70592,note_on,30,0,12,,,,,,,,,11,,,,74,0
70592,note_on,0,0,12,,,,,,,,,11,,,,69,112
70595,note_on,30,0,13,,,,,,,,,12,,,,62,0
70595,note_on,0,0,13,,,,,,,,,12,,,,57,112
70603,control_change,18,0,1,,,,,,,,,0,11,62,,,
70604,control_change,18,0,2,,,,,,,,,1,11,62,,,
70604,control_change,18,0,3,,,,,,,,,2,11,62,,,
70609,control_change,18,0,4,,,,,,,,,3,11,64,,,
70620,note_on,60,0,11,,,,,,,,,10,,,,78,112
70620,set_tempo,60,1,0,,,,,,1132075,,,,,,,,
70621,note_on,0,0,1,,,,,,,,,0,,,,90,101
70621,note_on,18,0,1,,,,,,,,,0,,,,90,0
70621,note_on,0,0,1,,,,,,,,,0,,,,93,101
70621,note_on,0,0,1,,,,,,,,,0,,,,86,0
70621,control_change,0,0,1,,,,,,,,,0,11,64,,,
70622,note_on,0,0,3,,,,,,,,,2,,,,78,101
70622,note_on,0,0,3,,,,,,,,,2,,,,81,101
70622,control_change,0,0,3,,,,,,,,,2,11,64,,,
70622,control_change,0,0,2,,,,,,,,,1,11,64,,,
70622,note_on,0,0,2,,,,,,,,,1,,,,78,0
70622,note_on,18,0,2,,,,,,,,,1,,,,74,0
70622,note_on,0,0,12,,,,,,,,,11,,,,66,112
70622,note_on,18,0,3,,,,,,,,,2,,,,74,0
70622,note_on,30,0,12,,,,,,,,,11,,,,69,0
70622,note_on,0,0,3,,,,,,,,,2,,,,78,0
70625,note_on,30,0,13,,,,,,,,,12,,,,57,0
70625,note_on,0,0,13,,,,,,,,,12,,,,54,112
70627,note_on,60,0,14,,,,,,,,,13,,,,50,0
70627,note_on,18,0,4,,,,,,,,,3,,,,62,0
70627,note_on,0,0,4,,,,,,,,,3,,,,66,0
70627,note_on,0,0,4,,,,,,,,,3,,,,66,100
70627,note_on,0,0,4,,,,,,,,,3,,,,69,100
70627,control_change,0,0,4,,,,,,,,,3,11,67,,,
70629,note_on,60,0,15,,,,,,,,,14,,,,38,0
70639,control_change,18,0,1,,,,,,,,,0,11,66,,,
70640,control_change,18,0,2,,,,,,,,,1,11,66,,,
70640,control_change,18,0,3,,,,,,,,,2,11,66,,,
70645,control_change,18,0,4,,,,,,,,,3,11,70,,,
70652,note_on,0,0,12,,,,,,,,,11,,,,69,112
70652,note_on,30,0,12,,,,,,,,,11,,,,66,0
70655,note_on,0,0,13,,,,,,,,,12,,,,57,112
70655,note_on,30,0,13,,,,,,,,,12,,,,54,0
70657,control_change,18,0,1,,,,,,,,,0,11,69,,,
70658,control_change,18,0,2,,,,,,,,,1,11,69,,,
70658,control_change,18,0,3,,,,,,,,,2,11,69,,,
70663,control_change,18,0,4,,,,,,,,,3,11,73,,,
70666,note_on,0,0,1,,,,,,,,,0,,,,88,101
70666,note_on,0,0,1,,,,,,,,,0,,,,93,0
70666,note_on,9,0,1,,,,,,,,,0,,,,90,0
70666,note_on,0,0,1,,,,,,,,,0,,,,91,101
70667,note_on,0,0,3,,,,,,,,,2,,,,76,101
70667,note_on,0,0,3,,,,,,,,,2,,,,78,0
70667,note_on,9,0,3,,,,,,,,,2,,,,81,0
70667,note_on,0,0,3,,,,,,,,,2,,,,79,101
70672,note_on,0,0,4,,,,,,,,,3,,,,66,0
70672,note_on,9,0,4,,,,,,,,,3,,,,69,0
70672,note_on,0,0,4,,,,,,,,,3,,,,64,100
70672,note_on,0,0,4,,,,,,,,,3,,,,67,100
70675,control_change,9,0,1,,,,,,,,,0,11,71,,,
70676,control_change,9,0,3,,,,,,,,,2,11,71,,,
70676,control_change,18,0,2,,,,,,,,,1,11,71,,,
70680,note_on,60,0,11,,,,,,,,,10,,,,78,0
70680,set_tempo,60,1,0,,,,,,1153846,,,,,,,,
70681,note_on,0,0,1,,,,,,,,,0,,,,88,0
70681,note_on,6,0,1,,,,,,,,,0,,,,91,0
70681,control_change,9,0,4,,,,,,,,,3,11,76,,,
70681,note_on,0,0,1,,,,,,,,,0,,,,86,101
70681,note_on,0,0,1,,,,,,,,,0,,,,90,101
70682,note_on,30,0,12,,,,,,,,,11,,,,69,0
70682,note_on,0,0,12,,,,,,,,,11,,,,74,112
70682,note_on,6,0,3,,,,,,,,,2,,,,76,0
70682,note_on,0,0,3,,,,,,,,,2,,,,78,101
70682,note_on,0,0,3,,,,,,,,,2,,,,74,101
70682,note_on,0,0,3,,,,,,,,,2,,,,79,0
70685,note_on,0,0,13,,,,,,,,,12,,,,62,112
70685,note_on,30,0,13,,,,,,,,,12,,,,57,0
70687,note_on,60,0,14,,,,,,,,,13,,,,62,64
70687,note_on,0,0,4,,,,,,,,,3,,,,67,0
70687,note_on,0,0,4,,,,,,,,,3,,,,66,100
70687,note_on,0,0,4,,,,,,,,,3,,,,62,100
70687,note_on,6,0,4,,,,,,,,,3,,,,64,0
70689,note_on,60,0,15,,,,,,,,,14,,,,50,64
70693,control_change,12,0,1,,,,,,,,,0,11,70,,,
70694,control_change,12,0,3,,,,,,,,,2,11,70,,,
70699,control_change,12,0,4,,,,,,,,,3,11,75,,,
70711,control_change,18,0,1,,,,,,,,,0,11,68,,,
70712,control_change,18,0,3,,,,,,,,,2,11,68,,,
70712,note_on,30,0,12,,,,,,,,,11,,,,74,0
70712,note_on,0,0,12,,,,,,,,,11,,,,69,112
70715,note_on,0,0,13,,,,,,,,,12,,,,57,112
70715,note_on,30,0,13,,,,,,,,,12,,,,62,0
70717,control_change,18,0,4,,,,,,,,,3,11,72,,,
70729,control_change,18,0,1,,,,,,,,,0,11,66,,,
70730,control_change,18,0,3,,,,,,,,,2,11,66,,,
70735,control_change,18,0,4,,,,,,,,,3,11,69,,,
70740,set_tempo,60,1,0,,,,,,1111111,,,,,,,,
70740,note_on,60,0,11,,,,,,,,,10,,,,81,112
70741,note_on,0,0,1,,,,,,,,,0,,,,86,0
70741,note_on,0,0,1,,,,,,,,,0,,,,81,101
70741,note_on,0,0,1,,,,,,,,,0,,,,88,101
70741,note_on,12,0,1,,,,,,,,,0,,,,90,0
70742,note_on,0,0,3,,,,,,,,,2,,,,76,101
70742,note_on,0,0,3,,,,,,,,,2,,,,69,101
70742,note_on,0,0,3,,,,,,,,,2,,,,74,0
70742,note_on,12,0,3,,,,,,,,,2,,,,78,0
70742,note_on,0,0,12,,,,,,,,,11,,,,71,112
70742,note_on,30,0,12,,,,,,,,,11,,,,69,0
70745,note_on,30,0,13,,,,,,,,,12,,,,57,0
70745,note_on,0,0,13,,,,,,,,,12,,,,59,112
70747,control_change,6,0,1,,,,,,,,,0,11,63,,,
70747,note_on,0,0,4,,,,,,,,,3,,,,57,100
70747,note_on,0,0,4,,,,,,,,,3,,,,66,0
70747,note_on,0,0,14,,,,,,,,,13,,,,61,64
70747,note_on,12,0,4,,,,,,,,,3,,,,62,0
70747,note_on,0,0,4,,,,,,,,,3,,,,64,100
70747,note_on,60,0,14,,,,,,,,,13,,,,62,0
70748,control_change,6,0,3,,,,,,,,,2,11,63,,,
70749,note_on,60,0,15,,,,,,,,,14,,,,50,0
70749,note_on,0,0,15,,,,,,,,,14,,,,49,64
70753,control_change,6,0,4,,,,,,,,,3,11,66,,,
70765,control_change,18,0,1,,,,,,,,,0,11,61,,,
70766,control_change,18,0,3,,,,,,,,,2,11,61,,,
70771,control_change,18,0,4,,,,,,,,,3,11,63,,,
70772,note_on,0,0,12,,,,,,,,,11,,,,73,112
70772,note_on,30,0,12,,,,,,,,,11,,,,71,0
70775,note_on,30,0,13,,,,,,,,,12,,,,59,0
70775,note_on,0,0,13,,,,,,,,,12,,,,61,112
70783,control_change,18,0,1,,,,,,,,,0,11,59,,,
70784,control_change,18,0,3,,,,,,,,,2,11,59,,,
70789,control_change,18,0,4,,,,,,,,,3,11,60,,,
70796,note_on,13,0,1,,,,,,,,,0,,,,88,0
70796,note_on,0,0,1,,,,,,,,,0,,,,81,0
70797,note_on,0,0,3,,,,,,,,,2,,,,69,0
70797,note_on,13,0,3,,,,,,,,,2,,,,76,0
70797,note_on,25,0,12,,,,,,,,,11,,,,73,0
70800,note_on,25,0,13,,,,,,,,,12,,,,61,0
70800,set_tempo,60,1,0,,,,,,1153846,,,,,,,,
70800,note_on,60,0,11,,,,,,,,,10,,,,81,0
70800,control_change,0,0,11,,,,,,,,,10,11,55,,,
70801,control_change,5,0,1,,,,,,,,,0,11,57,,,
70801,note_on,0,0,1,,,,,,,,,0,,,,78,101
70801,note_on,0,0,1,,,,,,,,,0,,,,86,101
70802,control_change,5,0,3,,,,,,,,,2,11,57,,,
70802,note_on,0,0,3,,,,,,,,,2,,,,66,101
70802,note_on,13,0,4,,,,,,,,,3,,,,57,0
70802,note_on,5,0,12,,,,,,,,,11,,,,74,112
70802,control_change,0,0,12,,,,,,,,,11,11,55,,,
70802,note_on,0,0,4,,,,,,,,,3,,,,64,0
70802,note_on,0,0,3,,,,,,,,,2,,,,74,101
70805,control_change,0,0,13,,,,,,,,,12,11,55,,,
70805,note_on,5,0,13,,,,,,,,,12,,,,62,112
70807,control_change,5,0,4,,,,,,,,,3,11,57,,,
70807,note_on,0,0,4,,,,,,,,,3,,,,54,100
70807,note_on,0,0,14,,,,,,,,,13,,,,59,64
70807,note_on,60,0,14,,,,,,,,,13,,,,61,0
70807,note_on,0,0,4,,,,,,,,,3,,,,62,100
70809,note_on,60,0,15,,,,,,,,,14,,,,49,0
70809,note_on,0,0,15,,,,,,,,,14,,,,47,64
70824,control_change,24,0,11,,,,,,,,,10,11,54,,,
70826,control_change,24,0,12,,,,,,,,,11,11,54,,,
70829,control_change,24,0,13,,,,,,,,,12,11,54,,,
70832,note_on,6,0,12,,,,,,,,,11,,,,74,0
70832,note_on,0,0,12,,,,,,,,,11,,,,62,112
70835,note_on,6,0,13,,,,,,,,,12,,,,62,0
70835,note_on,0,0,13,,,,,,,,,12,,,,50,112
70848,control_change,24,0,11,,,,,,,,,10,11,53,,,
70850,control_change,18,0,12,,,,,,,,,11,11,53,,,
70853,control_change,18,0,13,,,,,,,,,12,11,53,,,
70860,note_on,12,0,11,,,,,,,,,10,,,,86,112
70860,set_tempo,60,1,0,,,,,,1111111,,,,,,,,
70862,note_on,0,0,12,,,,,,,,,11,,,,66,112
70862,note_on,12,0,12,,,,,,,,,11,,,,62,0
70865,note_on,0,0,13,,,,,,,,,12,,,,54,112
70865,note_on,12,0,13,,,,,,,,,12,,,,50,0
70867,note_on,60,0,14,,,,,,,,,13,,,,59,0
70869,note_on,60,0,15,,,,,,,,,14,,,,47,0
70872,control_change,12,0,11,,,,,,,,,10,11,52,,,
70874,control_change,12,0,12,,,,,,,,,11,11,52,,,
70877,control_change,12,0,13,,,,,,,,,12,11,52,,,
70892,note_on,18,0,12,,,,,,,,,11,,,,66,0
70892,note_on,0,0,12,,,,,,,,,11,,,,69,112
70895,note_on,0,0,13,,,,,,,,,12,,,,57,112
70895,note_on,18,0,13,,,,,,,,,12,,,,54,0
70896,control_change,24,0,11,,,,,,,,,10,11,51,,,
70898,control_change,6,0,12,,,,,,,,,11,11,51,,,
70901,control_change,6,0,13,,,,,,,,,12,11,51,,,
70920,control_change,0,0,11,,,,,,,,,10,11,50,,,
70920,note_on,24,0,11,,,,,,,,,10,,,,86,0
70920,set_tempo,60,1,0,,,,,,1200000,,,,,,,,
70921,note_on,120,0,1,,,,,,,,,0,,,,86,0
70921,note_on,0,0,1,,,,,,,,,0,,,,78,0
70921,note_on,0,0,1,,,,,,,,,0,,,,84,116
70921,note_on,0,0,1,,,,,,,,,0,,,,87,116
70922,control_change,0,0,12,,,,,,,,,11,11,50,,,
70922,note_on,120,0,3,,,,,,,,,2,,,,66,0
70922,note_on,0,0,3,,,,,,,,,2,,,,74,0
70922,note_on,24,0,12,,,,,,,,,11,,,,69,0
70922,note_on,0,0,12,,,,,,,,,11,,,,72,112
70922,note_on,0,0,3,,,,,,,,,2,,,,75,116
70922,note_on,0,0,3,,,,,,,,,2,,,,72,116
70925,note_on,24,0,13,,,,,,,,,12,,,,57,0
70925,control_change,0,0,13,,,,,,,,,12,11,50,,,
70925,note_on,0,0,13,,,,,,,,,12,,,,60,112
70927,note_on,60,0,14,,,,,,,,,13,,,,54,60
70927,note_on,0,0,4,,,,,,,,,3,,,,63,115
70927,note_on,120,0,4,,,,,,,,,3,,,,54,0
70927,note_on,0,0,4,,,,,,,,,3,,,,60,115
70927,note_on,0,0,4,,,,,,,,,3,,,,62,0
70929,note_on,60,0,15,,,,,,,,,14,,,,42,59
70944,control_change,24,0,11,,,,,,,,,10,11,49,,,
70946,control_change,24,0,12,,,,,,,,,11,11,49,,,
70949,control_change,24,0,13,,,,,,,,,12,11,49,,,
70952,note_on,6,0,12,,,,,,,,,11,,,,72,0
70952,note_on,0,0,12,,,,,,,,,11,,,,69,112
70955,note_on,0,0,13,,,,,,,,,12,,,,57,112
70955,note_on,6,0,13,,,,,,,,,12,,,,60,0
70968,control_change,24,0,11,,,,,,,,,10,11,48,,,
70970,control_change,18,0,12,,,,,,,,,11,11,48,,,
70973,control_change,18,0,13,,,,,,,,,12,11,48,,,
70980,set_tempo,60,1,0,,,,,,1153846,,,,,,,,
70980,note_on,12,0,11,,,,,,,,,10,,,,81,112
70982,note_on,12,0,12,,,,,,,,,11,,,,69,0
70982,note_on,0,0,12,,,,,,,,,11,,,,66,112
70985,note_on,12,0,13,,,,,,,,,12,,,,57,0
70985,note_on,0,0,13,,,,,,,,,12,,,,54,112
70987,note_on,60,0,14,,,,,,,,,13,,,,54,0
70989,note_on,60,0,15,,,,,,,,,14,,,,42,0
70992,control_change,12,0,11,,,,,,,,,10,11,47,,,
70994,control_change,12,0,12,,,,,,,,,11,11,47,,,
70997,control_change,12,0,13,,,,,,,,,12,11,47,,,
71012,note_on,0,0,12,,,,,,,,,11,,,,63,112
71012,note_on,18,0,12,,,,,,,,,11,,,,66,0
71015,note_on,18,0,13,,,,,,,,,12,,,,54,0
71015,note_on,0,0,13,,,,,,,,,12,,,,51,112
71016,control_change,24,0,11,,,,,,,,,10,11,46,,,
71018,control_change,6,0,12,,,,,,,,,11,11,46,,,
71021,control_change,6,0,13,,,,,,,,,12,11,46,,,
71037,note_on,19,0,12,,,,,,,,,11,,,,63,0
71040,set_tempo,60,1,0,,,,,,1200000,,,,,,,,
71040,control_change,0,0,11,,,,,,,,,10,11,45,,,
71040,note_on,24,0,11,,,,,,,,,10,,,,81,0
71040,note_on,19,0,13,,,,,,,,,12,,,,51,0
71041,note_on,0,0,1,,,,,,,,,0,,,,88,101
71041,note_on,120,0,1,,,,,,,,,0,,,,84,0
71041,note_on,0,0,1,,,,,,,,,0,,,,87,0
71041,note_on,0,0,1,,,,,,,,,0,,,,83,101
71042,note_on,120,0,3,,,,,,,,,2,,,,72,0
71042,note_on,0,0,3,,,,,,,,,2,,,,75,0
71042,note_on,0,0,3,,,,,,,,,2,,,,76,101
71042,control_change,0,0,12,,,,,,,,,11,11,45,,,
71042,note_on,5,0,12,,,,,,,,,11,,,,64,112
71042,note_on,0,0,3,,,,,,,,,2,,,,71,101
71045,control_change,0,0,13,,,,,,,,,12,11,45,,,
71045,note_on,5,0,13,,,,,,,,,12,,,,52,112
71047,note_on,0,0,4,,,,,,,,,3,,,,59,100
71047,note_on,120,0,4,,,,,,,,,3,,,,63,0
71047,note_on,0,0,4,,,,,,,,,3,,,,60,0
71047,note_on,0,0,4,,,,,,,,,3,,,,64,100
71047,note_on,60,0,14,,,,,,,,,13,,,,55,54
71049,note_on,60,0,15,,,,,,,,,14,,,,43,54
71064,control_change,24,0,11,,,,,,,,,10,11,44,,,
71066,control_change,24,0,12,,,,,,,,,11,11,44,,,
71069,control_change,24,0,13,,,,,,,,,12,11,44,,,
71070,note_on,6,0,11,,,,,,,,,10,,,,79,112
71072,note_on,6,0,12,,,,,,,,,11,,,,64,0
71072,note_on,0,0,12,,,,,,,,,11,,,,67,112
71075,note_on,6,0,13,,,,,,,,,12,,,,52,0
71075,note_on,0,0,13,,,,,,,,,12,,,,55,112
71088,control_change,18,0,11,,,,,,,,,10,11,43,,,
71090,control_change,18,0,12,,,,,,,,,11,11,43,,,
71092,note_on,45,0,14,,,,,,,,,13,,,,55,0
71093,control_change,18,0,13,,,,,,,,,12,11,43,,,
71093,note_on,5,0,11,,,,,,,,,10,,,,79,0
71094,note_on,45,0,15,,,,,,,,,14,,,,43,0
71100,set_tempo,60,1,0,,,,,,1153846,,,,,,,,
71101,note_on,60,0,1,,,,,,,,,0,,,,88,0
71101,note_on,0,0,1,,,,,,,,,0,,,,91,101
71102,note_on,60,0,3,,,,,,,,,2,,,,76,0
71102,note_on,0,0,3,,,,,,,,,2,,,,79,101
71102,note_on,12,0,12,,,,,,,,,11,,,,67,0
71102,note_on,0,0,12,,,,,,,,,11,,,,71,112
71105,note_on,0,0,13,,,,,,,,,12,,,,59,112
71105,note_on,12,0,13,,,,,,,,,12,,,,55,0
71107,note_on,0,0,4,,,,,,,,,3,,,,67,100
71107,note_on,60,0,4,,,,,,,,,3,,,,64,0
71107,note_on,15,0,14,,,,,,,,,13,,,,52,52
71109,note_on,15,0,15,,,,,,,,,14,,,,40,52
71112,control_change,19,0,11,,,,,,,,,10,11,42,,,
71114,control_change,12,0,12,,,,,,,,,11,11,42,,,
71117,control_change,12,0,13,,,,,,,,,12,11,42,,,
71130,note_on,18,0,11,,,,,,,,,10,,,,83,112
71131,note_on,0,0,1,,,,,,,,,0,,,,85,101
71131,note_on,30,0,1,,,,,,,,,0,,,,83,0
71132,note_on,18,0,12,,,,,,,,,11,,,,71,0
71132,note_on,0,0,12,,,,,,,,,11,,,,73,112
71132,note_on,0,0,3,,,,,,,,,2,,,,73,101
71132,note_on,30,0,3,,,,,,,,,2,,,,71,0
71135,note_on,18,0,13,,,,,,,,,12,,,,59,0
71135,note_on,0,0,13,,,,,,,,,12,,,,61,112
71136,control_change,6,0,11,,,,,,,,,10,11,42,,,
71137,note_on,30,0,4,,,,,,,,,3,,,,59,0
71137,note_on,0,0,4,,,,,,,,,3,,,,61,100
71138,control_change,6,0,12,,,,,,,,,11,11,42,,,
71141,control_change,6,0,13,,,,,,,,,12,11,42,,,
71152,note_on,45,0,14,,,,,,,,,13,,,,52,0
71153,note_on,17,0,11,,,,,,,,,10,,,,83,0
71154,note_on,45,0,15,,,,,,,,,14,,,,40,0
71160,set_tempo,60,1,0,,,,,,1200000,,,,,,,,
71160,control_change,7,0,11,,,,,,,,,10,11,41,,,
71161,note_on,0,0,1,,,,,,,,,0,,,,86,101
71161,note_on,0,0,1,,,,,,,,,0,,,,90,101
71161,note_on,0,0,1,,,,,,,,,0,,,,91,0
71161,note_on,30,0,1,,,,,,,,,0,,,,85,0
71162,note_on,24,0,12,,,,,,,,,11,,,,73,0
71162,note_on,0,0,3,,,,,,,,,2,,,,79,0
71162,note_on,30,0,3,,,,,,,,,2,,,,73,0
71162,note_on,0,0,3,,,,,,,,,2,,,,74,101
71162,control_change,0,0,12,,,,,,,,,11,11,41,,,
71162,note_on,0,0,3,,,,,,,,,2,,,,78,101
71162,note_on,0,0,12,,,,,,,,,11,,,,74,112
71165,note_on,0,0,13,,,,,,,,,12,,,,62,112
71165,control_change,0,0,13,,,,,,,,,12,11,41,,,
71165,note_on,24,0,13,,,,,,,,,12,,,,61,0
71167,note_on,0,0,4,,,,,,,,,3,,,,66,100
71167,note_on,0,0,4,,,,,,,,,3,,,,62,100
71167,note_on,30,0,4,,,,,,,,,3,,,,61,0
71167,note_on,0,0,4,,,,,,,,,3,,,,67,0
71167,note_on,15,0,14,,,,,,,,,13,,,,54,50
71169,note_on,15,0,15,,,,,,,,,14,,,,42,49
71184,control_change,24,0,11,,,,,,,,,10,11,40,,,
71186,control_change,24,0,12,,,,,,,,,11,11,40,,,
71189,control_change,24,0,13,,,,,,,,,12,11,40,,,
71190,note_on,6,0,11,,,,,,,,,10,,,,81,112
71192,note_on,0,0,12,,,,,,,,,11,,,,78,112
71192,note_on,6,0,12,,,,,,,,,11,,,,74,0
71195,note_on,6,0,13,,,,,,,,,12,,,,62,0
71195,note_on,0,0,13,,,,,,,,,12,,,,66,112
71208,control_change,18,0,11,,,,,,,,,10,11,39,,,
71210,control_change,18,0,12,,,,,,,,,11,11,39,,,
71212,note_on,45,0,14,,,,,,,,,13,,,,54,0
71213,note_on,5,0,11,,,,,,,,,10,,,,81,0
71213,control_change,18,0,13,,,,,,,,,12,11,39,,,
71214,note_on,45,0,15,,,,,,,,,14,,,,42,0
71220,set_tempo,60,1,0,,,,,,1153846,,,,,,,,
71221,note_on,0,0,1,,,,,,,,,0,,,,85,101
71221,note_on,60,0,1,,,,,,,,,0,,,,86,0
71221,note_on,0,0,1,,,,,,,,,0,,,,88,101
71221,note_on,0,0,1,,,,,,,,,0,,,,90,0
71222,note_on,60,0,3,,,,,,,,,2,,,,74,0
71222,note_on,0,0,3,,,,,,,,,2,,,,76,101
71222,note_on,0,0,3,,,,,,,,,2,,,,78,0
71222,note_on,0,0,3,,,,,,,,,2,,,,73,101
71222,note_on,0,0,12,,,,,,,,,11,,,,79,112
71222,note_on,12,0,12,,,,,,,,,11,,,,78,0
71225,note_on,12,0,13,,,,,,,,,12,,,,66,0
71225,note_on,0,0,13,,,,,,,,,12,,,,67,112
71227,note_on,0,0,4,,,,,,,,,3,,,,62,0
71227,note_on,60,0,4,,,,,,,,,3,,,,66,0
71227,note_on,0,0,4,,,,,,,,,3,,,,64,100
71227,note_on,0,0,4,,,,,,,,,3,,,,61,100
71227,note_on,15,0,14,,,,,,,,,13,,,,57,47
71229,note_on,15,0,15,,,,,,,,,14,,,,45,47
71232,control_change,19,0,11,,,,,,,,,10,11,38,,,
71234,control_change,12,0,12,,,,,,,,,11,11,38,,,
71237,control_change,12,0,13,,,,,,,,,12,11,38,,,
71250,note_on,18,0,11,,,,,,,,,10,,,,73,112
71252,note_on,18,0,12,,,,,,,,,11,,,,79,0
71252,note_on,0,0,12,,,,,,,,,11,,,,76,112
71255,note_on,0,0,13,,,,,,,,,12,,,,64,112
71255,note_on,18,0,13,,,,,,,,,12,,,,67,0
71256,control_change,6,0,11,,,,,,,,,10,11,37,,,
71258,control_change,6,0,12,,,,,,,,,11,11,37,,,
71261,control_change,6,0,13,,,,,,,,,12,11,37,,,
71272,note_on,45,0,14,,,,,,,,,13,,,,57,0
71273,note_on,17,0,11,,,,,,,,,10,,,,73,0
71274,note_on,45,0,15,,,,,,,,,14,,,,45,0
71277,note_on,19,0,12,,,,,,,,,11,,,,76,0
71280,note_on,19,0,13,,,,,,,,,12,,,,64,0
71280,control_change,7,0,11,,,,,,,,,10,11,36,,,
71280,set_tempo,60,1,0,,,,,,1200000,,,,,,,,
71281,note_on,0,0,1,,,,,,,,,0,,,,86,101
71281,note_on,0,0,1,,,,,,,,,0,,,,88,0
71281,note_on,60,0,1,,,,,,,,,0,,,,85,0
71282,note_on,60,0,3,,,,,,,,,2,,,,76,0
71282,control_change,5,0,12,,,,,,,,,11,11,50,,,
71282,note_on,0,0,12,,,,,,,,,11,,,,62,112
71282,note_on,0,0,3,,,,,,,,,2,,,,73,0
71282,note_on,0,0,3,,,,,,,,,2,,,,74,101
71285,note_on,5,0,13,,,,,,,,,12,,,,62,112
71285,control_change,0,0,13,,,,,,,,,12,11,50,,,
71287,note_on,60,0,4,,,,,,,,,3,,,,61,0
71287,note_on,0,0,4,,,,,,,,,3,,,,64,0
71287,note_on,15,0,14,,,,,,,,,13,,,,59,59
71287,note_on,0,0,4,,,,,,,,,3,,,,62,100
71289,note_on,15,0,15,,,,,,,,,14,,,,47,59
71312,note_on,30,0,12,,,,,,,,,11,,,,62,0
71312,note_on,0,0,12,,,,,,,,,11,,,,66,112
71315,note_on,0,0,13,,,,,,,,,12,,,,66,112
71315,note_on,30,0,13,,,,,,,,,12,,,,62,0
71340,set_tempo,60,1,0,,,,,,1142857,,,,,,,,
71340,note_on,0,0,11,,,,,,,,,10,,,,74,112
71340,control_change,60,0,11,,,,,,,,,10,11,50,,,
71341,note_on,60,0,1,,,,,,,,,0,,,,86,0
71342,control_change,0,0,2,,,,,,,,,1,11,47,,,
71342,control_change,0,0,3,,,,,,,,,2,11,47,,,
71342,note_on,0,0,3,,,,,,,,,2,,,,66,101
71342,note_on,60,0,3,,,,,,,,,2,,,,74,0
71342,note_on,30,0,12,,,,,,,,,11,,,,66,0
71342,note_on,0,0,12,,,,,,,,,11,,,,64,112
71342,note_on,666,0,2,,,,,,,,,1,,,,78,100
71345,note_on,30,0,13,,,,,,,,,12,,,,66,0
71345,note_on,0,0,13,,,,,,,,,12,,,,64,112
71347,note_on,60,0,4,,,,,,,,,3,,,,62,0
71347,note_on,60,0,14,,,,,,,,,13,,,,59,0
71349,note_on,60,0,15,,,,,,,,,14,,,,47,0
71372,note_on,30,0,12,,,,,,,,,11,,,,64,0
71372,note_on,0,0,12,,,,,,,,,11,,,,62,112
71375,note_on,0,0,13,,,,,,,,,12,,,,62,112
71375,note_on,30,0,13,,,,,,,,,12,,,,64,0
71400,note_on,60,0,11,,,,,,,,,10,,,,74,0
71400,set_tempo,60,1,0,,,,,,1212121,,,,,,,,
71402,note_on,30,0,12,,,,,,,,,11,,,,62,0
71402,note_on,60,0,3,,,,,,,,,2,,,,66,0
71402,note_on,0,0,12,,,,,,,,,11,,,,67,112
71402,note_on,0,0,3,,,,,,,,,2,,,,67,116
71402,note_on,0,0,3,,,,,,,,,2,,,,70,116
71402,note_on,0,0,2,,,,,,,,,1,,,,79,115
71402,note_on,0,0,2,,,,,,,,,1,,,,82,115
71402,note_on,60,0,2,,,,,,,,,1,,,,78,0
71405,note_on,0,0,13,,,,,,,,,12,,,,67,112
71405,note_on,30,0,13,,,,,,,,,12,,,,62,0
71407,note_on,60,0,14,,,,,,,,,13,,,,49,59
71409,note_on,60,0,15,,,,,,,,,14,,,,37,59
71432,note_on,30,0,12,,,,,,,,,11,,,,67,0
71432,note_on,0,0,12,,,,,,,,,11,,,,64,112
71435,note_on,30,0,13,,,,,,,,,12,,,,67,0
71435,note_on,0,0,13,,,,,,,,,12,,,,64,112
71460,set_tempo,60,1,0,,,,,,1132075,,,,,,,,
71460,note_on,60,0,11,,,,,,,,,10,,,,88,112
71462,note_on,30,0,12,,,,,,,,,11,,,,64,0
71462,note_on,0,0,12,,,,,,,,,11,,,,61,112
71465,note_on,0,0,13,,,,,,,,,12,,,,61,112
71465,note_on,30,0,13,,,,,,,,,12,,,,64,0
71467,note_on,60,0,14,,,,,,,,,13,,,,49,0
71469,note_on,60,0,15,,,,,,,,,14,,,,37,0
71492,note_on,30,0,12,,,,,,,,,11,,,,61,0
71492,note_on,0,0,12,,,,,,,,,11,,,,58,112
71495,note_on,0,0,13,,,,,,,,,12,,,,58,112
71495,note_on,30,0,13,,,,,,,,,12,,,,61,0
71517,note_on,25,0,12,,,,,,,,,11,,,,58,0
71520,note_on,25,0,13,,,,,,,,,12,,,,58,0
71520,note_on,60,0,11,,,,,,,,,10,,,,88,0
71520,set_tempo,60,1,0,,,,,,1212121,,,,,,,,
71522,note_on,5,0,12,,,,,,,,,11,,,,59,112
71522,note_on,120,0,2,,,,,,,,,1,,,,79,0
71522,note_on,0,0,2,,,,,,,,,1,,,,82,0
71522,note_on,0,0,2,,,,,,,,,1,,,,83,100
71522,note_on,0,0,2,,,,,,,,,1,,,,78,100
71522,note_on,120,0,3,,,,,,,,,2,,,,70,0
71522,note_on,0,0,3,,,,,,,,,2,,,,67,0
71522,note_on,0,0,3,,,,,,,,,2,,,,71,101
71522,note_on,0,0,3,,,,,,,,,2,,,,66,101
71525,note_on,5,0,13,,,,,,,,,12,,,,59,112
71527,note_on,60,0,14,,,,,,,,,13,,,,50,59
71529,note_on,60,0,15,,,,,,,,,14,,,,38,59
71550,note_on,30,0,11,,,,,,,,,10,,,,86,112
71552,note_on,30,0,12,,,,,,,,,11,,,,59,0
71552,note_on,0,0,12,,,,,,,,,11,,,,62,112
71555,note_on,0,0,13,,,,,,,,,12,,,,62,112
71555,note_on,30,0,13,,,,,,,,,12,,,,59,0
71572,note_on,45,0,14,,,,,,,,,13,,,,50,0
71573,note_on,23,0,11,,,,,,,,,10,,,,86,0
71574,note_on,45,0,15,,,,,,,,,14,,,,38,0
71580,set_tempo,60,1,0,,,,,,1121495,,,,,,,,
71582,note_on,60,0,2,,,,,,,,,1,,,,83,0
71582,note_on,60,0,3,,,,,,,,,2,,,,71,0
71582,note_on,30,0,12,,,,,,,,,11,,,,62,0
71582,note_on,0,0,12,,,,,,,,,11,,,,66,112
71582,note_on,0,0,3,,,,,,,,,2,,,,74,101
71582,note_on,0,0,2,,,,,,,,,1,,,,86,100
71585,note_on,0,0,13,,,,,,,,,12,,,,66,112
71585,note_on,30,0,13,,,,,,,,,12,,,,62,0
71587,note_on,15,0,14,,,,,,,,,13,,,,47,59
71589,note_on,15,0,15,,,,,,,,,14,,,,35,59
71610,note_on,37,0,11,,,,,,,,,10,,,,90,112
71612,note_on,30,0,12,,,,,,,,,11,,,,66,0
71612,note_on,30,0,3,,,,,,,,,2,,,,66,0
71612,note_on,0,0,3,,,,,,,,,2,,,,68,101
71612,note_on,0,0,12,,,,,,,,,11,,,,68,112
71612,note_on,0,0,2,,,,,,,,,1,,,,80,100
71612,note_on,30,0,2,,,,,,,,,1,,,,78,0
71615,note_on,30,0,13,,,,,,,,,12,,,,66,0
71615,note_on,0,0,13,,,,,,,,,12,,,,68,112
71632,note_on,45,0,14,,,,,,,,,13,,,,47,0
71633,note_on,23,0,11,,,,,,,,,10,,,,90,0
71634,note_on,45,0,15,,,,,,,,,14,,,,35,0
71640,set_tempo,60,1,0,,,,,,1200000,,,,,,,,
71642,control_change,0,0,2,,,,,,,,,1,11,47,,,
71642,note_on,0,0,12,,,,,,,,,11,,,,69,112
71642,note_on,0,0,2,,,,,,,,,1,,,,85,100
71642,note_on,0,0,3,,,,,,,,,2,,,,73,101
71642,control_change,0,0,3,,,,,,,,,2,11,47,,,
71642,note_on,30,0,2,,,,,,,,,1,,,,80,0
71642,note_on,0,0,2,,,,,,,,,1,,,,86,0
71642,note_on,30,0,3,,,,,,,,,2,,,,68,0
71642,note_on,0,0,2,,,,,,,,,1,,,,81,100
71642,note_on,0,0,3,,,,,,,,,2,,,,74,0
71642,note_on,0,0,3,,,,,,,,,2,,,,69,101
71642,note_on,30,0,12,,,,,,,,,11,,,,68,0
71645,note_on,30,0,13,,,,,,,,,12,,,,68,0
71645,note_on,0,0,13,,,,,,,,,12,,,,69,112
71647,note_on,15,0,14,,,,,,,,,13,,,,49,59
71649,note_on,15,0,15,,,,,,,,,14,,,,37,59
71654,control_change,12,0,3,,,,,,,,,2,11,50,,,
71654,control_change,12,0,2,,,,,,,,,1,11,50,,,
71666,control_change,12,0,3,,,,,,,,,2,11,53,,,
71666,control_change,12,0,2,,,,,,,,,1,11,53,,,
71670,note_on,37,0,11,,,,,,,,,10,,,,88,112
71672,note_on,30,0,12,,,,,,,,,11,,,,69,0
71672,note_on,0,0,12,,,,,,,,,11,,,,64,112
71675,note_on,30,0,13,,,,,,,,,12,,,,69,0
71675,note_on,0,0,13,,,,,,,,,12,,,,64,112
71678,control_change,12,0,2,,,,,,,,,1,11,56,,,
71678,control_change,12,0,3,,,,,,,,,2,11,56,,,
71692,note_on,45,0,14,,,,,,,,,13,,,,49,0
71693,note_on,23,0,11,,,,,,,,,10,,,,88,0
71694,note_on,45,0,15,,,,,,,,,14,,,,37,0
71700,set_tempo,60,1,0,,,,,,1111111,,,,,,,,
71702,control_change,0,0,3,,,,,,,,,2,11,60,,,
71702,note_on,0,0,3,,,,,,,,,2,,,,71,101
71702,note_on,0,0,3,,,,,,,,,2,,,,68,101
71702,note_on,0,0,3,,,,,,,,,2,,,,73,0
71702,note_on,24,0,3,,,,,,,,,2,,,,69,0
71702,note_on,30,0,12,,,,,,,,,11,,,,64,0
71702,note_on,0,0,2,,,,,,,,,1,,,,81,0
71702,note_on,0,0,2,,,,,,,,,1,,,,80,100
71702,note_on,0,0,2,,,,,,,,,1,,,,83,100
71702,control_change,0,0,2,,,,,,,,,1,11,60,,,
71702,note_on,0,0,12,,,,,,,,,11,,,,62,112
71702,note_on,24,0,2,,,,,,,,,1,,,,85,0
71705,note_on,0,0,13,,,,,,,,,12,,,,62,112
71705,note_on,30,0,13,,,,,,,,,12,,,,64,0
71707,note_on,15,0,14,,,,,,,,,13,,,,52,59
71709,note_on,15,0,15,,,,,,,,,14,,,,40,59
71714,control_change,12,0,2,,,,,,,,,1,11,63,,,
71714,control_change,12,0,3,,,,,,,,,2,11,63,,,
71730,note_on,37,0,11,,,,,,,,,10,,,,80,112
71730,set_tempo,30,1,0,,,,,,1263158,,,,,,,,
71732,note_on,30,0,12,,,,,,,,,11,,,,62,0
71732,note_on,0,0,12,,,,,,,,,11,,,,59,112
71735,note_on,30,0,13,,,,,,,,,12,,,,62,0
71735,note_on,0,0,13,,,,,,,,,12,,,,59,112
71738,control_change,24,0,3,,,,,,,,,2,11,67,,,
71738,control_change,24,0,2,,,,,,,,,1,11,67,,,
71752,note_on,45,0,14,,,,,,,,,13,,,,52,0
71753,note_on,23,0,11,,,,,,,,,10,,,,80,0
71754,note_on,45,0,15,,,,,,,,,14,,,,40,0
71757,note_on,25,0,12,,,,,,,,,11,,,,59,0
71760,note_on,0,0,11,,,,,,,,,10,,,,73,112
71760,control_change,0,0,11,,,,,,,,,10,11,78,,,
71760,note_on,7,0,11,,,,,,,,,10,,,,81,112
71760,set_tempo,30,1,0,,,,,,1153846,,,,,,,,
71760,note_on,25,0,13,,,,,,,,,12,,,,59,0
71762,control_change,0,0,12,,,,,,,,,11,11,78,,,
71762,note_on,0,0,2,,,,,,,,,1,,,,78,115
71762,control_change,0,0,2,,,,,,,,,1,11,72,,,
71762,note_on,0,0,2,,,,,,,,,1,,,,81,115
71762,note_on,0,0,2,,,,,,,,,1,,,,80,0
71762,note_on,24,0,2,,,,,,,,,1,,,,83,0
71762,note_on,24,0,3,,,,,,,,,2,,,,71,0
71762,note_on,0,0,3,,,,,,,,,2,,,,68,0
71762,note_on,0,0,3,,,,,,,,,2,,,,69,116
71762,control_change,0,0,3,,,,,,,,,2,11,72,,,
71762,note_on,0,0,12,,,,,,,,,11,,,,69,112
71762,note_on,5,0,12,,,,,,,,,11,,,,78,112
71765,control_change,5,0,13,,,,,,,,,12,11,78,,,
71765,note_on,0,0,13,,,,,,,,,12,,,,57,112
71766,program_change,14,0,14,,,,,,,,48,13,,,,,
71767,note_on,0,0,4,,,,,,,,,3,,,,61,115
71767,note_on,0,0,4,,,,,,,,,3,,,,66,115
71767,control_change,420,0,4,,,,,,,,,3,11,77,,,
71767,note_on,0,0,14,,,,,,,,,13,,,,54,112
71767,control_change,1,0,14,,,,,,,,,13,11,78,,,
71768,program_change,14,0,15,,,,,,,,48,14,,,,,
71769,note_on,0,0,15,,,,,,,,,14,,,,42,112
71769,control_change,1,0,15,,,,,,,,,14,11,78,,,
71780,note_on,15,0,13,,,,,,,,,12,,,,57,0
71782,note_on,15,0,14,,,,,,,,,13,,,,54,0
71784,note_on,15,0,15,,,,,,,,,14,,,,42,0
71795,note_on,15,0,13,,,,,,,,,12,,,,56,112
71797,note_on,15,0,14,,,,,,,,,13,,,,56,112
71799,note_on,15,0,15,,,,,,,,,14,,,,44,112
71810,note_on,15,0,13,,,,,,,,,12,,,,56,0
71812,note_on,15,0,14,,,,,,,,,13,,,,56,0
71814,note_on,15,0,15,,,,,,,,,14,,,,44,0
71820,set_tempo,60,1,0,,,,,,1111111,,,,,,,,
71822,note_on,60,0,3,,,,,,,,,2,,,,73,101
71825,note_on,15,0,13,,,,,,,,,12,,,,57,112
71827,note_on,15,0,14,,,,,,,,,13,,,,57,112
71829,note_on,15,0,15,,,,,,,,,14,,,,45,112
71840,note_on,15,0,13,,,,,,,,,12,,,,57,0
71842,note_on,15,0,14,,,,,,,,,13,,,,57,0
71844,note_on,15,0,15,,,,,,,,,14,,,,45,0
71847,note_on,87,0,11,,,,,,,,,10,,,,73,0
71847,note_on,0,0,11,,,,,,,,,10,,,,81,0
71849,note_on,0,0,12,,,,,,,,,11,,,,78,0
71849,note_on,87,0,12,,,,,,,,,11,,,,69,0
71855,note_on,15,0,13,,,,,,,,,12,,,,59,112
71857,note_on,15,0,14,,,,,,,,,13,,,,59,112
71859,note_on,15,0,15,,,,,,,,,14,,,,47,112
71870,note_on,15,0,13,,,,,,,,,12,,,,59,0
71872,note_on,15,0,14,,,,,,,,,13,,,,59,0
71874,note_on,15,0,15,,,,,,,,,14,,,,47,0
71877,note_on,55,0,3,,,,,,,,,2,,,,73,0
71877,note_on,0,0,3,,,,,,,,,2,,,,69,0
71877,note_on,0,0,2,,,,,,,,,1,,,,81,0
71877,note_on,115,0,2,,,,,,,,,1,,,,78,0
71880,set_tempo,60,1,0,,,,,,1153846,,,,,,,,
71880,note_on,33,0,11,,,,,,,,,10,,,,73,112
71880,note_on,0,0,11,,,,,,,,,10,,,,80,112
71882,note_on,5,0,2,,,,,,,,,1,,,,76,115
71882,note_on,115,0,4,,,,,,,,,3,,,,61,0
71882,note_on,0,0,4,,,,,,,,,3,,,,66,0
71882,note_on,0,0,3,,,,,,,,,2,,,,73,116
71882,note_on,5,0,3,,,,,,,,,2,,,,68,116
71882,note_on,0,0,2,,,,,,,,,1,,,,80,115
71882,note_on,33,0,12,,,,,,,,,11,,,,76,112
71882,note_on,0,0,12,,,,,,,,,11,,,,68,112
71885,note_on,15,0,13,,,,,,,,,12,,,,61,112
71887,note_on,0,0,4,,,,,,,,,3,,,,64,115
71887,note_on,5,0,4,,,,,,,,,3,,,,61,115
71887,note_on,15,0,14,,,,,,,,,13,,,,61,112
71889,note_on,15,0,15,,,,,,,,,14,,,,49,112
71900,note_on,15,0,13,,,,,,,,,12,,,,61,0
71902,note_on,15,0,14,,,,,,,,,13,,,,61,0
71904,note_on,15,0,15,,,,,,,,,14,,,,49,0
71915,note_on,15,0,13,,,,,,,,,12,,,,63,112
71917,note_on,15,0,14,,,,,,,,,13,,,,63,112
71919,note_on,15,0,15,,,,,,,,,14,,,,51,112
71930,note_on,15,0,13,,,,,,,,,12,,,,63,0
71932,note_on,15,0,14,,,,,,,,,13,,,,63,0
71934,note_on,15,0,15,,,,,,,,,14,,,,51,0
71940,set_tempo,60,1,0,,,,,,1111111,,,,,,,,
71945,note_on,15,0,13,,,,,,,,,12,,,,64,112
71947,note_on,15,0,14,,,,,,,,,13,,,,64,112
71949,note_on,15,0,15,,,,,,,,,14,,,,52,112
71960,note_on,15,0,13,,,,,,,,,12,,,,64,0
71962,note_on,15,0,14,,,,,,,,,13,,,,64,0
71964,note_on,15,0,15,,,,,,,,,14,,,,52,0
71967,note_on,0,0,11,,,,,,,,,10,,,,73,0
71967,note_on,87,0,11,,,,,,,,,10,,,,80,0
71969,note_on,0,0,12,,,,,,,,,11,,,,76,0
71969,note_on,87,0,12,,,,,,,,,11,,,,68,0
71975,note_on,15,0,13,,,,,,,,,12,,,,61,112
71977,note_on,15,0,14,,,,,,,,,13,,,,61,112
71979,note_on,15,0,15,,,,,,,,,14,,,,49,112
71990,note_on,15,0,13,,,,,,,,,12,,,,61,0
71992,note_on,15,0,14,,,,,,,,,13,,,,61,0
71994,note_on,15,0,15,,,,,,,,,14,,,,49,0
71997,note_on,115,0,2,,,,,,,,,1,,,,80,0
71997,note_on,115,0,3,,,,,,,,,2,,,,73,0
71997,note_on,0,0,3,,,,,,,,,2,,,,68,0
71997,note_on,0,0,2,,,,,,,,,1,,,,76,0
72000,set_tempo,60,1,0,,,,,,1153846,,,,,,,,
72000,note_on,33,0,11,,,,,,,,,10,,,,74,112
72001,note_on,0,0,1,,,,,,,,,0,,,,86,116
72001,control_change,0,0,1,,,,,,,,,0,11,72,,,
72001,control_change,0,0,5,,,,,,,,,4,11,77,,,
72001,note_on,660,0,1,,,,,,,,,0,,,,90,116
72001,note_on,7950,0,5,,,,,,,,,4,,,,57,115
72002,note_on,5,0,3,,,,,,,,,2,,,,66,116
72002,note_on,12180,0,7,,,,,,,,,6,,,,69,127
72002,note_on,0,0,4,,,,,,,,,3,,,,61,0
72002,note_on,0,0,7,,,,,,,,,6,,,,57,127
72002,control_change,0,0,7,,,,,,,,,6,11,77,,,
72002,note_on,33,0,12,,,,,,,,,11,,,,62,112
72002,note_on,0,0,2,,,,,,,,,1,,,,78,115
72002,note_on,5,0,2,,,,,,,,,1,,,,74,115
72002,note_on,0,0,3,,,,,,,,,2,,,,74,116
72002,note_on,115,0,4,,,,,,,,,3,,,,64,0
72003,note_on,0,0,6,,,,,,,,,5,,,,57,115
72003,control_change,7950,0,6,,,,,,,,,5,11,77,,,
72003,program_change,12269,0,8,,,,,,,,57,7,,,,,
72004,control_change,0,0,8,,,,,,,,,7,11,77,,,
72004,note_on,1,0,8,,,,,,,,,7,,,,62,125
72005,note_on,15,0,13,,,,,,,,,12,,,,62,112
72005,program_change,12269,0,9,,,,,,,,57,8,,,,,
72006,control_change,0,0,9,,,,,,,,,8,11,77,,,
72006,note_on,1,0,9,,,,,,,,,8,,,,50,125
72007,note_on,15,0,14,,,,,,,,,13,,,,62,112
72007,note_on,0,0,4,,,,,,,,,3,,,,62,115
72007,note_on,5,0,4,,,,,,,,,3,,,,66,115
72008,note_on,12180,0,10,,,,,,,,,15,,,,45,65
72009,note_on,15,0,15,,,,,,,,,14,,,,50,112
72015,note_on,15,0,11,,,,,,,,,10,,,,74,0
72017,note_on,15,0,12,,,,,,,,,11,,,,62,0
72030,note_on,15,0,11,,,,,,,,,10,,,,76,112
72032,note_on,15,0,12,,,,,,,,,11,,,,64,112
72035,note_on,30,0,13,,,,,,,,,12,,,,62,0
72037,note_on,30,0,14,,,,,,,,,13,,,,62,0
72039,note_on,30,0,15,,,,,,,,,14,,,,50,0
72045,note_on,15,0,11,,,,,,,,,10,,,,76,0
72047,note_on,15,0,12,,,,,,,,,11,,,,64,0
72060,set_tempo,60,1,0,,,,,,1111111,,,,,,,,
72060,note_on,15,0,11,,,,,,,,,10,,,,78,112
72062,note_on,15,0,12,,,,,,,,,11,,,,66,112
72065,note_on,0,0,13,,,,,,,,,12,,,,66,112
72065,note_on,0,0,13,,,,,,,,,12,,,,57,112
72065,note_on,0,0,13,,,,,,,,,12,,,,50,112
72065,note_on,30,0,13,,,,,,,,,12,,,,74,112
72067,note_on,30,0,14,,,,,,,,,13,,,,50,112
72068,note_on,60,0,10,,,,,,,,,15,,,,45,0
72069,note_on,30,0,15,,,,,,,,,14,,,,38,112
72075,note_on,15,0,11,,,,,,,,,10,,,,78,0
72077,note_on,15,0,12,,,,,,,,,11,,,,66,0
72090,note_on,15,0,11,,,,,,,,,10,,,,80,112
72092,note_on,15,0,12,,,,,,,,,11,,,,68,112
72095,note_on,30,0,13,,,,,,,,,12,,,,57,0
72095,note_on,0,0,13,,,,,,,,,12,,,,74,0
72095,note_on,0,0,13,,,,,,,,,12,,,,66,0
72095,note_on,0,0,13,,,,,,,,,12,,,,50,0
72097,note_on,30,0,14,,,,,,,,,13,,,,50,0
72099,note_on,30,0,15,,,,,,,,,14,,,,38,0
72105,note_on,15,0,11,,,,,,,,,10,,,,80,0
72107,note_on,15,0,12,,,,,,,,,11,,,,68,0
72111,note_on,110,0,5,,,,,,,,,4,,,,57,0
72112,note_on,0,0,7,,,,,,,,,6,,,,69,0
72112,note_on,110,0,7,,,,,,,,,6,,,,57,0
72113,note_on,110,0,6,,,,,,,,,5,,,,57,0
72114,note_on,110,0,8,,,,,,,,,7,,,,62,0
72116,note_on,0,0,1,,,,,,,,,0,,,,90,0
72116,note_on,115,0,1,,,,,,,,,0,,,,86,0
72116,note_on,110,0,9,,,,,,,,,8,,,,50,0
72117,note_on,115,0,2,,,,,,,,,1,,,,78,0
72117,note_on,0,0,3,,,,,,,,,2,,,,66,0
72117,note_on,0,0,2,,,,,,,,,1,,,,74,0
72117,note_on,115,0,3,,,,,,,,,2,,,,74,0
72120,note_on,15,0,11,,,,,,,,,10,,,,81,112
72120,set_tempo,60,1,0,,,,,,1153846,,,,,,,,
72121,note_on,5,0,1,,,,,,,,,0,,,,88,116
72121,note_on,10,0,5,,,,,,,,,4,,,,57,115
72121,note_on,0,0,1,,,,,,,,,0,,,,85,116
72122,note_on,0,0,3,,,,,,,,,2,,,,64,116
72122,note_on,115,0,4,,,,,,,,,3,,,,62,0
72122,note_on,5,0,2,,,,,,,,,1,,,,76,115
72122,note_on,15,0,12,,,,,,,,,11,,,,69,112
72122,note_on,0,0,4,,,,,,,,,3,,,,66,0
72122,note_on,0,0,2,,,,,,,,,1,,,,73,115
72122,note_on,5,0,3,,,,,,,,,2,,,,73,116
72122,note_on,10,0,7,,,,,,,,,6,,,,69,127
72122,note_on,0,0,7,,,,,,,,,6,,,,57,127
72123,note_on,10,0,6,,,,,,,,,5,,,,57,115
72124,note_on,10,0,8,,,,,,,,,7,,,,57,125
72126,note_on,10,0,9,,,,,,,,,8,,,,45,125
72127,note_on,0,0,4,,,,,,,,,3,,,,64,115
72127,note_on,5,0,4,,,,,,,,,3,,,,61,115
72128,note_on,60,0,10,,,,,,,,,15,,,,45,65
72135,note_on,15,0,11,,,,,,,,,10,,,,81,0
72137,note_on,15,0,12,,,,,,,,,11,,,,69,0
72150,note_on,15,0,11,,,,,,,,,10,,,,83,112
72152,note_on,15,0,12,,,,,,,,,11,,,,71,112
72165,note_on,15,0,11,,,,,,,,,10,,,,83,0
72167,note_on,15,0,12,,,,,,,,,11,,,,71,0
72180,note_on,15,0,11,,,,,,,,,10,,,,85,112
72180,set_tempo,60,1,0,,,,,,1111111,,,,,,,,
72182,note_on,15,0,12,,,,,,,,,11,,,,73,112
72185,note_on,0,0,13,,,,,,,,,12,,,,64,112
72185,note_on,90,0,13,,,,,,,,,12,,,,73,112
72185,note_on,0,0,13,,,,,,,,,12,,,,57,112
72187,note_on,90,0,14,,,,,,,,,13,,,,45,112
72188,note_on,60,0,10,,,,,,,,,15,,,,45,0
72189,note_on,90,0,15,,,,,,,,,14,,,,33,112
72195,note_on,15,0,11,,,,,,,,,10,,,,85,0
72197,note_on,15,0,12,,,,,,,,,11,,,,73,0
72210,note_on,15,0,11,,,,,,,,,10,,,,81,112
72210,set_tempo,30,1,0,,,,,,1237113,,,,,,,,
72212,note_on,15,0,12,,,,,,,,,11,,,,69,112
72215,note_on,0,0,13,,,,,,,,,12,,,,57,0
72215,note_on,0,0,13,,,,,,,,,12,,,,73,0
72215,note_on,30,0,13,,,,,,,,,12,,,,64,0
72217,note_on,30,0,14,,,,,,,,,13,,,,45,0
72219,note_on,30,0,15,,,,,,,,,14,,,,33,0
72225,note_on,15,0,11,,,,,,,,,10,,,,81,0
72227,note_on,15,0,12,,,,,,,,,11,,,,69,0
72231,note_on,110,0,5,,,,,,,,,4,,,,57,0
72232,note_on,110,0,7,,,,,,,,,6,,,,57,0
72232,note_on,0,0,7,,,,,,,,,6,,,,69,0
72233,note_on,110,0,6,,,,,,,,,5,,,,57,0
72234,note_on,110,0,8,,,,,,,,,7,,,,57,0
72236,note_on,0,0,1,,,,,,,,,0,,,,88,0
72236,note_on,115,0,1,,,,,,,,,0,,,,85,0
72236,note_on,110,0,9,,,,,,,,,8,,,,45,0
72237,note_on,0,0,2,,,,,,,,,1,,,,76,0
72237,note_on,0,0,3,,,,,,,,,2,,,,73,0
72237,note_on,115,0,3,,,,,,,,,2,,,,64,0
72237,note_on,115,0,2,,,,,,,,,1,,,,73,0
72240,set_tempo,30,1,0,,,,,,1153846,,,,,,,,
72240,control_change,0,0,11,,,,,,,,,10,11,78,,,
72240,note_on,15,0,11,,,,,,,,,10,,,,73,112
72242,control_change,15,0,12,,,,,,,,,11,11,78,,,
72242,note_on,0,0,12,,,,,,,,,11,,,,61,112
72242,note_on,115,0,4,,,,,,,,,3,,,,64,0
72242,note_on,0,0,4,,,,,,,,,3,,,,61,0
72245,note_on,0,0,13,,,,,,,,,12,,,,64,112
72245,control_change,30,0,13,,,,,,,,,12,11,78,,,
72247,control_change,0,0,14,,,,,,,,,13,11,78,,,
72247,note_on,30,0,14,,,,,,,,,13,,,,64,112
72249,control_change,0,0,15,,,,,,,,,14,11,78,,,
72249,note_on,30,0,15,,,,,,,,,14,,,,52,112
72255,note_on,15,0,11,,,,,,,,,10,,,,73,0
72257,note_on,15,0,12,,,,,,,,,11,,,,61,0
72260,note_on,15,0,13,,,,,,,,,12,,,,64,0
72262,note_on,15,0,14,,,,,,,,,13,,,,64,0
72264,control_change,9,0,11,,,,,,,,,10,11,79,,,
72264,note_on,15,0,15,,,,,,,,,14,,,,52,0
72266,control_change,9,0,12,,,,,,,,,11,11,79,,,
72269,control_change,9,0,13,,,,,,,,,12,11,79,,,
72270,note_on,6,0,11,,,,,,,,,10,,,,75,112
72271,control_change,9,0,14,,,,,,,,,13,11,79,,,
72272,note_on,6,0,12,,,,,,,,,11,,,,63,112
72273,control_change,9,0,15,,,,,,,,,14,11,79,,,
72275,note_on,6,0,13,,,,,,,,,12,,,,63,112
72277,note_on,6,0,14,,,,,,,,,13,,,,63,112
72279,note_on,6,0,15,,,,,,,,,14,,,,51,112
72285,note_on,15,0,11,,,,,,,,,10,,,,75,0
72287,note_on,15,0,12,,,,,,,,,11,,,,63,0
72288,control_change,3,0,11,,,,,,,,,10,11,80,,,
72290,control_change,3,0,12,,,,,,,,,11,11,80,,,
72290,note_on,15,0,13,,,,,,,,,12,,,,63,0
72292,note_on,15,0,14,,,,,,,,,13,,,,63,0
72293,control_change,3,0,13,,,,,,,,,12,11,80,,,
72294,note_on,15,0,15,,,,,,,,,14,,,,51,0
72295,control_change,3,0,14,,,,,,,,,13,11,80,,,
72297,control_change,3,0,15,,,,,,,,,14,11,80,,,
72300,note_on,12,0,11,,,,,,,,,10,,,,76,112
72300,set_tempo,60,1,0,,,,,,1111111,,,,,,,,
72302,note_on,12,0,12,,,,,,,,,11,,,,64,112
72305,note_on,12,0,13,,,,,,,,,12,,,,61,112
72307,note_on,12,0,14,,,,,,,,,13,,,,61,112
72309,note_on,12,0,15,,,,,,,,,14,,,,49,112
72312,control_change,12,0,11,,,,,,,,,10,11,81,,,
72314,control_change,12,0,12,,,,,,,,,11,11,81,,,
72315,note_on,3,0,11,,,,,,,,,10,,,,76,0
72317,control_change,12,0,13,,,,,,,,,12,11,81,,,
72317,note_on,3,0,12,,,,,,,,,11,,,,64,0
72319,control_change,12,0,14,,,,,,,,,13,11,81,,,
72320,note_on,3,0,13,,,,,,,,,12,,,,61,0
72321,control_change,12,0,15,,,,,,,,,14,11,81,,,
72322,note_on,3,0,14,,,,,,,,,13,,,,61,0
72324,note_on,3,0,15,,,,,,,,,14,,,,49,0
72330,note_on,15,0,11,,,,,,,,,10,,,,75,112
72332,note_on,15,0,12,,,,,,,,,11,,,,63,112
72335,note_on,15,0,13,,,,,,,,,12,,,,63,112
72336,control_change,6,0,11,,,,,,,,,10,11,82,,,
72337,note_on,15,0,14,,,,,,,,,13,,,,63,112
72338,control_change,6,0,12,,,,,,,,,11,11,82,,,
72339,note_on,15,0,15,,,,,,,,,14,,,,51,112
72341,control_change,6,0,13,,,,,,,,,12,11,82,,,
72343,control_change,6,0,14,,,,,,,,,13,11,82,,,
72345,note_on,9,0,11,,,,,,,,,10,,,,75,0
72345,control_change,6,0,15,,,,,,,,,14,11,82,,,
72347,note_on,9,0,12,,,,,,,,,11,,,,63,0
72350,note_on,9,0,13,,,,,,,,,12,,,,63,0
72352,note_on,9,0,14,,,,,,,,,13,,,,63,0
72354,note_on,9,0,15,,,,,,,,,14,,,,51,0
72360,set_tempo,60,1,0,,,,,,1153846,,,,,,,,
72360,control_change,15,0,11,,,,,,,,,10,11,83,,,
72360,note_on,0,0,11,,,,,,,,,10,,,,76,112
72362,control_change,15,0,12,,,,,,,,,11,11,83,,,
72362,note_on,0,0,12,,,,,,,,,11,,,,64,112
72365,control_change,0,0,13,,,,,,,,,12,11,83,,,
72365,note_on,15,0,13,,,,,,,,,12,,,,61,112
72367,control_change,0,0,14,,,,,,,,,13,11,83,,,
72367,note_on,15,0,14,,,,,,,,,13,,,,61,112
72369,note_on,0,0,15,,,,,,,,,14,,,,49,112
72369,control_change,15,0,15,,,,,,,,,14,11,83,,,
72375,note_on,15,0,11,,,,,,,,,10,,,,76,0
72377,note_on,15,0,12,,,,,,,,,11,,,,64,0
72380,note_on,15,0,13,,,,,,,,,12,,,,61,0
72382,note_on,15,0,14,,,,,,,,,13,,,,61,0
72384,note_on,15,0,15,,,,,,,,,14,,,,49,0
72384,control_change,9,0,11,,,,,,,,,10,11,84,,,
72386,control_change,9,0,12,,,,,,,,,11,11,84,,,
72389,control_change,9,0,13,,,,,,,,,12,11,84,,,
72390,note_on,6,0,11,,,,,,,,,10,,,,78,112
72391,control_change,9,0,14,,,,,,,,,13,11,84,,,
72392,note_on,6,0,12,,,,,,,,,11,,,,66,112
72393,control_change,9,0,15,,,,,,,,,14,11,84,,,
72395,note_on,6,0,13,,,,,,,,,12,,,,59,112
72397,note_on,6,0,14,,,,,,,,,13,,,,59,112
72399,note_on,6,0,15,,,,,,,,,14,,,,47,112
72405,note_on,15,0,11,,,,,,,,,10,,,,78,0
72407,note_on,15,0,12,,,,,,,,,11,,,,66,0
72408,control_change,3,0,11,,,,,,,,,10,11,85,,,
72410,note_on,15,0,13,,,,,,,,,12,,,,59,0
72410,control_change,3,0,12,,,,,,,,,11,11,85,,,
72412,note_on,15,0,14,,,,,,,,,13,,,,59,0
72413,control_change,3,0,13,,,,,,,,,12,11,85,,,
72414,note_on,15,0,15,,,,,,,,,14,,,,47,0
72415,control_change,3,0,14,,,,,,,,,13,11,85,,,
72417,control_change,3,0,15,,,,,,,,,14,11,85,,,
72420,note_on,12,0,11,,,,,,,,,10,,,,80,112
72420,set_tempo,60,1,0,,,,,,1111111,,,,,,,,
72422,note_on,12,0,12,,,,,,,,,11,,,,68,112
72425,note_on,12,0,13,,,,,,,,,12,,,,57,112
72427,note_on,12,0,14,,,,,,,,,13,,,,57,112
72429,note_on,12,0,15,,,,,,,,,14,,,,45,112
72432,control_change,12,0,11,,,,,,,,,10,11,86,,,
72434,control_change,12,0,12,,,,,,,,,11,11,86,,,
72435,note_on,3,0,11,,,,,,,,,10,,,,80,0
72437,note_on,3,0,12,,,,,,,,,11,,,,68,0
72437,control_change,12,0,13,,,,,,,,,12,11,86,,,
72439,control_change,12,0,14,,,,,,,,,13,11,86,,,
72440,note_on,3,0,13,,,,,,,,,12,,,,57,0
72441,control_change,12,0,15,,,,,,,,,14,11,86,,,
72442,note_on,3,0,14,,,,,,,,,13,,,,57,0
72444,note_on,3,0,15,,,,,,,,,14,,,,45,0
72450,note_on,15,0,11,,,,,,,,,10,,,,79,112
72452,note_on,15,0,12,,,,,,,,,11,,,,67,112
72455,note_on,15,0,13,,,,,,,,,12,,,,61,112
72456,control_change,6,0,11,,,,,,,,,10,11,87,,,
72457,note_on,15,0,14,,,,,,,,,13,,,,61,112
72458,control_change,6,0,12,,,,,,,,,11,11,87,,,
72459,note_on,15,0,15,,,,,,,,,14,,,,49,112
72461,control_change,6,0,13,,,,,,,,,12,11,87,,,
72463,control_change,6,0,14,,,,,,,,,13,11,87,,,
72465,control_change,6,0,15,,,,,,,,,14,11,87,,,
72465,note_on,9,0,11,,,,,,,,,10,,,,79,0
72467,note_on,9,0,12,,,,,,,,,11,,,,67,0
72470,note_on,9,0,13,,,,,,,,,12,,,,61,0
72472,note_on,9,0,14,,,,,,,,,13,,,,61,0
72474,note_on,9,0,15,,,,,,,,,14,,,,49,0
72480,set_tempo,60,1,0,,,,,,1153846,,,,,,,,
72480,note_on,15,0,11,,,,,,,,,10,,,,73,112
72480,note_on,0,0,11,,,,,,,,,10,,,,80,112
72480,control_change,0,0,11,,,,,,,,,10,11,87,,,
72482,note_on,0,0,3,,,,,,,,,2,,,,61,116
72482,note_on,0,0,3,,,,,,,,,2,,,,64,116
72482,control_change,245,0,3,,,,,,,,,2,11,87,,,
72482,note_on,15,0,12,,,,,,,,,11,,,,68,112
72482,control_change,245,0,2,,,,,,,,,1,11,87,,,
72482,control_change,0,0,12,,,,,,,,,11,11,87,,,
72482,note_on,0,0,2,,,,,,,,,1,,,,68,115
72482,note_on,0,0,2,,,,,,,,,1,,,,73,115
72482,note_on,0,0,12,,,,,,,,,11,,,,76,112
72484,note_on,250,0,8,,,,,,,,,7,,,,64,110
72484,note_on,0,0,8,,,,,,,,,7,,,,61,110
72484,control_change,0,0,8,,,,,,,,,7,11,87,,,
72485,note_on,15,0,13,,,,,,,,,12,,,,56,112
72485,control_change,0,0,13,,,,,,,,,12,11,87,,,
72486,note_on,0,0,9,,,,,,,,,8,,,,56,110
72486,control_change,250,0,9,,,,,,,,,8,11,87,,,
72487,note_on,245,0,4,,,,,,,,,3,,,,56,115
72487,control_change,0,0,4,,,,,,,,,3,11,97,,,
72487,note_on,15,0,14,,,,,,,,,13,,,,56,112
72487,control_change,0,0,14,,,,,,,,,13,11,87,,,
72487,note_on,0,0,4,,,,,,,,,3,,,,52,115
72489,control_change,15,0,15,,,,,,,,,14,11,87,,,
72489,note_on,0,0,15,,,,,,,,,14,,,,44,112
72497,note_on,0,0,2,,,,,,,,,1,,,,68,0
72497,note_on,15,0,2,,,,,,,,,1,,,,73,0
72497,note_on,0,0,3,,,,,,,,,2,,,,64,0
72497,note_on,15,0,3,,,,,,,,,2,,,,61,0
72502,note_on,0,0,4,,,,,,,,,3,,,,56,0
72502,note_on,15,0,4,,,,,,,,,3,,,,52,0
72512,note_on,0,0,3,,,,,,,,,2,,,,64,101
72512,note_on,15,0,3,,,,,,,,,2,,,,68,101
72512,note_on,0,0,2,,,,,,,,,1,,,,76,100
72512,note_on,15,0,2,,,,,,,,,1,,,,73,100
72517,note_on,0,0,4,,,,,,,,,3,,,,61,100
72517,note_on,15,0,4,,,,,,,,,3,,,,56,100
72527,note_on,15,0,3,,,,,,,,,2,,,,64,0
72527,note_on,0,0,3,,,,,,,,,2,,,,68,0
72527,note_on,15,0,2,,,,,,,,,1,,,,76,0
72527,note_on,0,0,2,,,,,,,,,1,,,,73,0
72532,note_on,15,0,4,,,,,,,,,3,,,,61,0
72532,note_on,0,0,4,,,,,,,,,3,,,,56,0
72540,set_tempo,60,1,0,,,,,,1111111,,,,,,,,
72542,note_on,15,0,3,,,,,,,,,2,,,,64,116
72542,note_on,0,0,3,,,,,,,,,2,,,,68,116
72542,note_on,15,0,2,,,,,,,,,1,,,,73,115
72542,note_on,0,0,2,,,,,,,,,1,,,,76,115
72547,note_on,15,0,4,,,,,,,,,3,,,,61,115
72547,note_on,0,0,4,,,,,,,,,3,,,,56,115
72557,note_on,0,0,2,,,,,,,,,1,,,,73,0
72557,note_on,15,0,2,,,,,,,,,1,,,,76,0
72557,note_on,15,0,3,,,,,,,,,2,,,,68,0
72557,note_on,0,0,3,,,,,,,,,2,,,,64,0
72562,note_on,0,0,4,,,,,,,,,3,,,,61,0
72562,note_on,15,0,4,,,,,,,,,3,,,,56,0
72572,note_on,0,0,3,,,,,,,,,2,,,,73,101
72572,note_on,15,0,2,,,,,,,,,1,,,,76,100
72572,note_on,0,0,2,,,,,,,,,1,,,,80,100
72572,note_on,15,0,3,,,,,,,,,2,,,,68,101
72577,note_on,0,0,4,,,,,,,,,3,,,,61,100
72577,note_on,15,0,4,,,,,,,,,3,,,,64,100
72587,note_on,15,0,3,,,,,,,,,2,,,,73,0
72587,note_on,0,0,3,,,,,,,,,2,,,,68,0
72587,note_on,15,0,2,,,,,,,,,1,,,,80,0
72587,note_on,0,0,2,,,,,,,,,1,,,,76,0
72589,note_on,0,0,11,,,,,,,,,10,,,,73,0
72589,note_on,109,0,11,,,,,,,,,10,,,,80,0
72591,note_on,0,0,12,,,,,,,,,11,,,,68,0
72591,note_on,109,0,12,,,,,,,,,11,,,,76,0
72592,note_on,0,0,4,,,,,,,,,3,,,,64,0
72592,note_on,15,0,4,,,,,,,,,3,,,,61,0
72594,note_on,110,0,8,,,,,,,,,7,,,,61,0
72594,note_on,0,0,8,,,,,,,,,7,,,,64,0
72595,note_on,110,0,13,,,,,,,,,12,,,,56,0
72596,note_on,110,0,9,,,,,,,,,8,,,,56,0
72597,note_on,110,0,14,,,,,,,,,13,,,,56,0
72599,note_on,110,0,15,,,,,,,,,14,,,,44,0
72600,set_tempo,60,1,0,,,,,,1153846,,,,,,,,
72600,note_on,11,0,11,,,,,,,,,10,,,,72,112
72600,note_on,0,0,11,,,,,,,,,10,,,,80,112
72601,note_on,0,0,1,,,,,,,,,0,,,,75,116
72601,note_on,0,0,1,,,,,,,,,0,,,,80,116
72601,control_change,365,0,1,,,,,,,,,0,11,87,,,
72602,note_on,15,0,3,,,,,,,,,2,,,,63,116
72602,note_on,15,0,2,,,,,,,,,1,,,,72,115
72602,note_on,0,0,2,,,,,,,,,1,,,,68,115
72602,note_on,11,0,12,,,,,,,,,11,,,,75,112
72602,note_on,0,0,12,,,,,,,,,11,,,,68,112
72602,note_on,0,0,3,,,,,,,,,2,,,,60,116
72604,note_on,0,0,8,,,,,,,,,7,,,,63,110
72604,note_on,10,0,8,,,,,,,,,7,,,,60,110
72605,note_on,10,0,13,,,,,,,,,12,,,,56,112
72606,note_on,10,0,9,,,,,,,,,8,,,,56,110
72607,note_on,15,0,4,,,,,,,,,3,,,,63,100
72607,note_on,0,0,4,,,,,,,,,3,,,,56,100
72607,note_on,10,0,14,,,,,,,,,13,,,,56,112
72609,note_on,10,0,15,,,,,,,,,14,,,,44,112
72616,note_on,0,0,1,,,,,,,,,0,,,,80,0
72616,note_on,15,0,1,,,,,,,,,0,,,,75,0
72617,note_on,0,0,2,,,,,,,,,1,,,,72,0
72617,note_on,15,0,3,,,,,,,,,2,,,,60,0
72617,note_on,0,0,3,,,,,,,,,2,,,,63,0
72617,note_on,15,0,2,,,,,,,,,1,,,,68,0
72631,note_on,15,0,1,,,,,,,,,0,,,,80,101
72631,note_on,0,0,1,,,,,,,,,0,,,,84,101
72632,note_on,15,0,2,,,,,,,,,1,,,,75,100
72632,note_on,0,0,2,,,,,,,,,1,,,,72,100
72632,note_on,15,0,3,,,,,,,,,2,,,,68,101
72632,note_on,0,0,3,,,,,,,,,2,,,,63,101
72646,note_on,15,0,1,,,,,,,,,0,,,,84,0
72646,note_on,0,0,1,,,,,,,,,0,,,,80,0
72647,note_on,0,0,3,,,,,,,,,2,,,,68,0
72647,note_on,15,0,2,,,,,,,,,1,,,,72,0
72647,note_on,0,0,2,,,,,,,,,1,,,,75,0
72647,note_on,15,0,3,,,,,,,,,2,,,,63,0
72660,set_tempo,60,1,0,,,,,,1111111,,,,,,,,
72661,note_on,15,0,1,,,,,,,,,0,,,,84,116
72661,note_on,0,0,1,,,,,,,,,0,,,,80,116
72662,note_on,0,0,2,,,,,,,,,1,,,,72,115
72662,note_on,0,0,3,,,,,,,,,2,,,,63,116
72662,note_on,15,0,3,,,,,,,,,2,,,,68,116
72662,note_on,15,0,2,,,,,,,,,1,,,,75,115
72667,note_on,60,0,4,,,,,,,,,3,,,,56,0
72667,note_on,0,0,4,,,,,,,,,3,,,,63,0
72676,note_on,15,0,1,,,,,,,,,0,,,,80,0
72676,note_on,0,0,1,,,,,,,,,0,,,,84,0
72677,note_on,0,0,3,,,,,,,,,2,,,,68,0
72677,note_on,0,0,2,,,,,,,,,1,,,,75,0
72677,note_on,15,0,2,,,,,,,,,1,,,,72,0
72677,note_on,15,0,3,,,,,,,,,2,,,,63,0
72690,set_tempo,30,1,0,,,,,,1290323,,,,,,,,
72691,note_on,15,0,1,,,,,,,,,0,,,,84,101
72691,note_on,0,0,1,,,,,,,,,0,,,,87,101
72692,note_on,15,0,2,,,,,,,,,1,,,,80,100
72692,note_on,0,0,3,,,,,,,,,2,,,,68,101
72692,note_on,15,0,3,,,,,,,,,2,,,,72,101
72692,note_on,0,0,2,,,,,,,,,1,,,,75,100
72705,set_tempo,15,1,0,,,,,,1411765,,,,,,,,
72706,note_on,0,0,1,,,,,,,,,0,,,,84,0
72706,note_on,15,0,1,,,,,,,,,0,,,,87,0
72707,note_on,0,0,2,,,,,,,,,1,,,,80,0
72707,note_on,15,0,3,,,,,,,,,2,,,,68,0
72707,note_on,15,0,2,,,,,,,,,1,,,,75,0
72707,note_on,0,0,3,,,,,,,,,2,,,,72,0
72709,note_on,0,0,11,,,,,,,,,10,,,,72,0
72709,note_on,109,0,11,,,,,,,,,10,,,,80,0
72711,note_on,109,0,12,,,,,,,,,11,,,,68,0
72711,note_on,0,0,12,,,,,,,,,11,,,,75,0
72714,note_on,0,0,8,,,,,,,,,7,,,,60,0
72714,note_on,110,0,8,,,,,,,,,7,,,,63,0
72715,note_on,110,0,13,,,,,,,,,12,,,,56,0
72716,note_on,110,0,9,,,,,,,,,8,,,,56,0
72717,note_on,110,0,14,,,,,,,,,13,,,,56,0
72719,note_on,110,0,15,,,,,,,,,14,,,,44,0
72720,note_on,11,0,11,,,,,,,,,10,,,,88,112
72720,set_tempo,15,1,0,,,,,,1153846,,,,,,,,
72721,note_on,0,0,1,,,,,,,,,0,,,,88,101
72721,control_change,15,0,1,,,,,,,,,0,11,79,,,
72721,note_on,0,0,1,,,,,,,,,0,,,,85,101
72722,note_on,0,0,2,,,,,,,,,1,,,,76,100
72722,note_on,11,0,12,,,,,,,,,11,,,,85,112
72722,control_change,15,0,3,,,,,,,,,2,11,79,,,
72722,note_on,0,0,3,,,,,,,,,2,,,,73,101
72722,note_on,0,0,12,,,,,,,,,11,,,,76,112
72722,note_on,0,0,3,,,,,,,,,2,,,,64,101
72722,control_change,0,0,2,,,,,,,,,1,11,79,,,
72722,note_on,15,0,2,,,,,,,,,1,,,,73,100
72725,note_on,10,0,13,,,,,,,,,12,,,,61,112
72727,note_on,0,0,4,,,,,,,,,3,,,,61,100
72727,note_on,10,0,14,,,,,,,,,13,,,,49,112
72727,note_on,0,0,4,,,,,,,,,3,,,,56,100
72727,control_change,60,0,4,,,,,,,,,3,11,87,,,
72729,note_on,10,0,15,,,,,,,,,14,,,,37,112
72740,note_on,15,0,13,,,,,,,,,12,,,,61,0
72742,note_on,15,0,14,,,,,,,,,13,,,,49,0
72744,note_on,15,0,15,,,,,,,,,14,,,,37,0
72755,note_on,15,0,13,,,,,,,,,12,,,,63,112
72757,note_on,15,0,14,,,,,,,,,13,,,,51,112
72759,note_on,15,0,15,,,,,,,,,14,,,,39,112
72770,note_on,15,0,13,,,,,,,,,12,,,,63,0
72772,note_on,15,0,14,,,,,,,,,13,,,,51,0
72774,note_on,15,0,15,,,,,,,,,14,,,,39,0
72780,set_tempo,60,1,0,,,,,,1111111,,,,,,,,
72781,note_on,0,0,1,,,,,,,,,0,,,,88,0
72781,note_on,60,0,1,,,,,,,,,0,,,,85,0
72782,note_on,60,0,3,,,,,,,,,2,,,,73,0
72782,note_on,0,0,3,,,,,,,,,2,,,,68,101
72785,note_on,15,0,13,,,,,,,,,12,,,,64,112
72787,note_on,15,0,14,,,,,,,,,13,,,,52,112
72789,note_on,15,0,15,,,,,,,,,14,,,,40,112
72800,note_on,15,0,13,,,,,,,,,12,,,,64,0
72802,note_on,15,0,14,,,,,,,,,13,,,,52,0
72804,note_on,15,0,15,,,,,,,,,14,,,,40,0
72807,note_on,87,0,11,,,,,,,,,10,,,,88,0
72809,note_on,87,0,12,,,,,,,,,11,,,,76,0
72809,note_on,0,0,12,,,,,,,,,11,,,,85,0
72815,note_on,15,0,13,,,,,,,,,12,,,,66,112
72817,note_on,15,0,14,,,,,,,,,13,,,,54,112
72819,note_on,15,0,15,,,,,,,,,14,,,,42,112
72830,note_on,15,0,13,,,,,,,,,12,,,,66,0
72832,note_on,15,0,14,,,,,,,,,13,,,,54,0
72834,note_on,15,0,15,,,,,,,,,14,,,,42,0
72837,note_on,0,0,2,,,,,,,,,1,,,,73,0
72837,note_on,0,0,3,,,,,,,,,2,,,,64,0
72837,note_on,55,0,3,,,,,,,,,2,,,,68,0
72837,note_on,115,0,2,,,,,,,,,1,,,,76,0
72840,note_on,33,0,11,,,,,,,,,10,,,,87,112
72840,set_tempo,60,1,0,,,,,,1153846,,,,,,,,
72842,note_on,0,0,3,,,,,,,,,2,,,,68,101
72842,note_on,5,0,3,,,,,,,,,2,,,,63,101
72842,note_on,0,0,2,,,,,,,,,1,,,,71,100
72842,note_on,0,0,4,,,,,,,,,3,,,,61,0
72842,note_on,5,0,2,,,,,,,,,1,,,,75,100
72842,note_on,115,0,4,,,,,,,,,3,,,,56,0
72842,note_on,0,0,12,,,,,,,,,11,,,,75,112
72842,note_on,33,0,12,,,,,,,,,11,,,,83,112
72845,note_on,15,0,13,,,,,,,,,12,,,,68,112
72847,note_on,5,0,4,,,,,,,,,3,,,,59,100
72847,note_on,0,0,4,,,,,,,,,3,,,,56,100
72847,note_on,15,0,14,,,,,,,,,13,,,,56,112
72849,note_on,15,0,15,,,,,,,,,14,,,,44,112
72860,note_on,15,0,13,,,,,,,,,12,,,,68,0
72862,note_on,15,0,14,,,,,,,,,13,,,,56,0
72864,note_on,15,0,15,,,,,,,,,14,,,,44,0
72875,note_on,15,0,13,,,,,,,,,12,,,,70,112
72877,note_on,15,0,14,,,,,,,,,13,,,,58,112
72879,note_on,15,0,15,,,,,,,,,14,,,,46,112
72890,note_on,15,0,13,,,,,,,,,12,,,,70,0
72892,note_on,15,0,14,,,,,,,,,13,,,,58,0
72894,note_on,15,0,15,,,,,,,,,14,,,,46,0
72900,set_tempo,60,1,0,,,,,,1111111,,,,,,,,
72905,note_on,15,0,13,,,,,,,,,12,,,,71,112
72907,note_on,15,0,14,,,,,,,,,13,,,,59,112
72909,note_on,15,0,15,,,,,,,,,14,,,,47,112
72920,note_on,15,0,13,,,,,,,,,12,,,,71,0
72922,note_on,15,0,14,,,,,,,,,13,,,,59,0
72924,note_on,15,0,15,,,,,,,,,14,,,,47,0
72927,note_on,87,0,11,,,,,,,,,10,,,,87,0
72929,note_on,87,0,12,,,,,,,,,11,,,,75,0
72929,note_on,0,0,12,,,,,,,,,11,,,,83,0
72935,note_on,15,0,13,,,,,,,,,12,,,,68,112
72937,note_on,15,0,14,,,,,,,,,13,,,,56,112
72939,note_on,15,0,15,,,,,,,,,14,,,,44,112
72950,note_on,15,0,13,,,,,,,,,12,,,,68,0
72952,note_on,15,0,14,,,,,,,,,13,,,,56,0
72954,note_on,15,0,15,,,,,,,,,14,,,,44,0
72957,note_on,115,0,3,,,,,,,,,2,,,,68,0
72957,note_on,0,0,3,,,,,,,,,2,,,,63,0
72957,note_on,115,0,2,,,,,,,,,1,,,,71,0
72957,note_on,0,0,2,,,,,,,,,1,,,,75,0
72960,set_tempo,60,1,0,,,,,,1153846,,,,,,,,
72960,note_on,33,0,11,,,,,,,,,10,,,,69,112
72961,note_on,0,0,1,,,,,,,,,0,,,,85,116
72961,note_on,180,0,1,,,,,,,,,0,,,,81,116
72961,note_on,730,0,5,,,,,,,,,4,,,,64,115
72962,note_on,0,0,3,,,,,,,,,2,,,,69,116
72962,note_on,115,0,4,,,,,,,,,3,,,,56,0
72962,note_on,0,0,4,,,,,,,,,3,,,,59,0
72962,note_on,0,0,2,,,,,,,,,1,,,,81,115
72962,note_on,33,0,12,,,,,,,,,11,,,,57,112
72962,note_on,5,0,3,,,,,,,,,2,,,,73,116
72962,note_on,730,0,7,,,,,,,,,6,,,,64,127
72962,note_on,0,0,7,,,,,,,,,6,,,,76,127
72962,note_on,5,0,2,,,,,,,,,1,,,,73,115
72963,note_on,730,0,6,,,,,,,,,5,,,,52,115
72964,note_on,250,0,8,,,,,,,,,7,,,,57,125
72965,note_on,15,0,13,,,,,,,,,12,,,,69,112
72966,note_on,250,0,9,,,,,,,,,8,,,,57,125
72967,note_on,15,0,14,,,,,,,,,13,,,,57,112
72967,note_on,0,0,4,,,,,,,,,3,,,,61,115
72967,note_on,5,0,4,,,,,,,,,3,,,,57,115
72968,note_on,780,0,10,,,,,,,,,15,,,,52,65
72969,note_on,15,0,15,,,,,,,,,14,,,,45,112
72975,note_on,15,0,11,,,,,,,,,10,,,,69,0
72977,note_on,15,0,12,,,,,,,,,11,,,,57,0
72990,note_on,15,0,11,,,,,,,,,10,,,,71,112
72992,note_on,15,0,12,,,,,,,,,11,,,,59,112
72995,note_on,30,0,13,,,,,,,,,12,,,,69,0
72997,note_on,30,0,14,,,,,,,,,13,,,,57,0
72999,note_on,30,0,15,,,,,,,,,14,,,,45,0
73005,note_on,15,0,11,,,,,,,,,10,,,,71,0
73007,note_on,15,0,12,,,,,,,,,11,,,,59,0
73020,set_tempo,60,1,0,,,,,,1111111,,,,,,,,
73020,note_on,15,0,11,,,,,,,,,10,,,,73,112
73022,note_on,15,0,12,,,,,,,,,11,,,,61,112
73025,note_on,0,0,13,,,,,,,,,12,,,,64,112
73025,note_on,30,0,13,,,,,,,,,12,,,,73,112
73025,note_on,0,0,13,,,,,,,,,12,,,,57,112
73027,note_on,30,0,14,,,,,,,,,13,,,,45,112
73028,note_on,60,0,10,,,,,,,,,15,,,,52,0
73029,note_on,30,0,15,,,,,,,,,14,,,,33,112
73035,note_on,15,0,11,,,,,,,,,10,,,,73,0
73037,note_on,15,0,12,,,,,,,,,11,,,,61,0
73050,note_on,15,0,11,,,,,,,,,10,,,,75,112
73052,note_on,15,0,12,,,,,,,,,11,,,,63,112
73055,note_on,0,0,13,,,,,,,,,12,,,,73,0
73055,note_on,0,0,13,,,,,,,,,12,,,,57,0
73055,note_on,30,0,13,,,,,,,,,12,,,,64,0
73057,note_on,30,0,14,,,,,,,,,13,,,,45,0
73059,note_on,30,0,15,,,,,,,,,14,,,,33,0
73065,note_on,15,0,11,,,,,,,,,10,,,,75,0
73067,note_on,15,0,12,,,,,,,,,11,,,,63,0
73071,note_on,110,0,5,,,,,,,,,4,,,,64,0
73072,note_on,0,0,7,,,,,,,,,6,,,,64,0
73072,note_on,110,0,7,,,,,,,,,6,,,,76,0
73073,note_on,110,0,6,,,,,,,,,5,,,,52,0
73074,note_on,110,0,8,,,,,,,,,7,,,,57,0
73076,note_on,0,0,1,,,,,,,,,0,,,,81,0
73076,note_on,115,0,1,,,,,,,,,0,,,,85,0
73076,note_on,110,0,9,,,,,,,,,8,,,,57,0
73077,note_on,0,0,3,,,,,,,,,2,,,,73,0
73077,note_on,115,0,3,,,,,,,,,2,,,,69,0
73077,note_on,0,0,2,,,,,,,,,1,,,,73,0
73077,note_on,115,0,2,,,,,,,,,1,,,,81,0
73080,note_on,15,0,11,,,,,,,,,10,,,,76,112
73080,set_tempo,60,1,0,,,,,,1153846,,,,,,,,
73081,note_on,10,0,5,,,,,,,,,4,,,,64,115
73081,note_on,0,0,1,,,,,,,,,0,,,,83,116
73081,note_on,5,0,1,,,,,,,,,0,,,,80,116
73082,note_on,0,0,2,,,,,,,,,1,,,,71,115
73082,note_on,5,0,3,,,,,,,,,2,,,,68,116
73082,note_on,10,0,7,,,,,,,,,6,,,,76,127
73082,note_on,0,0,7,,,,,,,,,6,,,,64,127
73082,note_on,5,0,2,,,,,,,,,1,,,,80,115
73082,note_on,0,0,3,,,,,,,,,2,,,,71,116
73082,note_on,0,0,4,,,,,,,,,3,,,,57,0
73082,note_on,115,0,4,,,,,,,,,3,,,,61,0
73082,note_on,15,0,12,,,,,,,,,11,,,,64,112
73083,note_on,10,0,6,,,,,,,,,5,,,,52,115
73084,note_on,0,0,8,,,,,,,,,7,,,,52,125
73084,note_on,10,0,8,,,,,,,,,7,,,,64,125
73086,note_on,10,0,9,,,,,,,,,8,,,,52,125
73087,note_on,0,0,4,,,,,,,,,3,,,,56,115
73087,note_on,5,0,4,,,,,,,,,3,,,,59,115
73088,note_on,60,0,10,,,,,,,,,15,,,,52,65
73095,note_on,15,0,11,,,,,,,,,10,,,,76,0
73097,note_on,15,0,12,,,,,,,,,11,,,,64,0
73110,note_on,15,0,11,,,,,,,,,10,,,,78,112
73112,note_on,15,0,12,,,,,,,,,11,,,,66,112
73125,note_on,15,0,11,,,,,,,,,10,,,,78,0
73127,note_on,15,0,12,,,,,,,,,11,,,,66,0
73140,set_tempo,60,1,0,,,,,,1111111,,,,,,,,
73140,note_on,15,0,11,,,,,,,,,10,,,,80,112
73142,note_on,15,0,12,,,,,,,,,11,,,,68,112
73145,note_on,0,0,13,,,,,,,,,12,,,,59,112
73145,note_on,0,0,13,,,,,,,,,12,,,,52,112
73145,note_on,90,0,13,,,,,,,,,12,,,,68,112
73147,note_on,90,0,14,,,,,,,,,13,,,,52,112
73148,note_on,60,0,10,,,,,,,,,15,,,,52,0
73149,note_on,90,0,15,,,,,,,,,14,,,,40,112
73155,note_on,15,0,11,,,,,,,,,10,,,,80,0
73157,note_on,15,0,12,,,,,,,,,11,,,,68,0
73170,note_on,15,0,11,,,,,,,,,10,,,,76,112
73170,set_tempo,30,1,0,,,,,,1276596,,,,,,,,
73172,note_on,15,0,12,,,,,,,,,11,,,,64,112
73175,note_on,30,0,13,,,,,,,,,12,,,,59,0
73175,note_on,0,0,13,,,,,,,,,12,,,,52,0
73175,note_on,0,0,13,,,,,,,,,12,,,,68,0
73177,note_on,30,0,14,,,,,,,,,13,,,,52,0
73179,note_on,30,0,15,,,,,,,,,14,,,,40,0
73185,note_on,15,0,11,,,,,,,,,10,,,,76,0
73187,note_on,15,0,12,,,,,,,,,11,,,,64,0
73191,note_on,110,0,5,,,,,,,,,4,,,,64,0
73192,note_on,110,0,7,,,,,,,,,6,,,,64,0
73192,note_on,0,0,7,,,,,,,,,6,,,,76,0
73193,note_on,110,0,6,,,,,,,,,5,,,,52,0
73194,note_on,110,0,8,,,,,,,,,7,,,,52,0
73194,note_on,0,0,8,,,,,,,,,7,,,,64,0
73196,note_on,115,0,1,,,,,,,,,0,,,,83,0
73196,note_on,0,0,1,,,,,,,,,0,,,,80,0
73196,note_on,110,0,9,,,,,,,,,8,,,,52,0
73197,note_on,115,0,2,,,,,,,,,1,,,,71,0
73197,note_on,0,0,2,,,,,,,,,1,,,,80,0
73197,note_on,0,0,3,,,,,,,,,2,,,,68,0
73197,note_on,115,0,3,,,,,,,,,2,,,,71,0
73200,set_tempo,30,1,0,,,,,,1153846,,,,,,,,
73200,note_on,0,0,11,,,,,,,,,10,,,,76,112
73200,control_change,15,0,11,,,,,,,,,10,11,87,,,
73202,control_change,15,0,12,,,,,,,,,11,11,87,,,
73202,note_on,115,0,4,,,,,,,,,3,,,,56,0
73202,note_on,0,0,12,,,,,,,,,11,,,,64,112
73202,note_on,0,0,4,,,,,,,,,3,,,,59,0
73205,control_change,0,0,13,,,,,,,,,12,11,87,,,
73205,note_on,30,0,13,,,,,,,,,12,,,,68,112
73207,note_on,0,0,14,,,,,,,,,13,,,,56,112
73207,control_change,30,0,14,,,,,,,,,13,11,87,,,
73209,control_change,30,0,15,,,,,,,,,14,11,87,,,
73209,note_on,0,0,15,,,,,,,,,14,,,,44,112
73215,note_on,15,0,11,,,,,,,,,10,,,,76,0
73217,note_on,15,0,12,,,,,,,,,11,,,,64,0
73219,control_change,4,0,11,,,,,,,,,10,11,89,,,
73220,note_on,15,0,13,,,,,,,,,12,,,,68,0
73221,control_change,4,0,12,,,,,,,,,11,11,89,,,
73222,note_on,15,0,14,,,,,,,,,13,,,,56,0
73224,control_change,4,0,13,,,,,,,,,12,11,89,,,
73224,note_on,15,0,15,,,,,,,,,14,,,,44,0
73226,control_change,4,0,14,,,,,,,,,13,11,89,,,
73228,control_change,4,0,15,,,,,,,,,14,11,89,,,
73230,note_on,11,0,11,,,,,,,,,10,,,,78,112
73232,note_on,11,0,12,,,,,,,,,11,,,,66,112
73235,note_on,11,0,13,,,,,,,,,12,,,,66,112
73237,note_on,11,0,14,,,,,,,,,13,,,,54,112
73238,control_change,8,0,11,,,,,,,,,10,11,91,,,
73239,note_on,11,0,15,,,,,,,,,14,,,,42,112
73240,control_change,8,0,12,,,,,,,,,11,11,91,,,
73243,control_change,8,0,13,,,,,,,,,12,11,91,,,
73245,control_change,8,0,14,,,,,,,,,13,11,91,,,
73245,note_on,7,0,11,,,,,,,,,10,,,,78,0
73247,note_on,7,0,12,,,,,,,,,11,,,,66,0
73247,control_change,8,0,15,,,,,,,,,14,11,91,,,
73250,note_on,7,0,13,,,,,,,,,12,,,,66,0
73252,note_on,7,0,14,,,,,,,,,13,,,,54,0
73254,note_on,7,0,15,,,,,,,,,14,,,,42,0
73257,control_change,12,0,11,,,,,,,,,10,11,93,,,
73259,control_change,12,0,12,,,,,,,,,11,11,93,,,
73260,note_on,3,0,11,,,,,,,,,10,,,,79,112
73260,set_tempo,60,1,0,,,,,,1111111,,,,,,,,
73262,note_on,3,0,12,,,,,,,,,11,,,,67,112
73262,control_change,12,0,13,,,,,,,,,12,11,93,,,
73264,control_change,12,0,14,,,,,,,,,13,11,93,,,
73265,note_on,3,0,13,,,,,,,,,12,,,,64,112
73266,control_change,12,0,15,,,,,,,,,14,11,93,,,
73267,note_on,3,0,14,,,,,,,,,13,,,,52,112
73269,note_on,3,0,15,,,,,,,,,14,,,,40,112
73275,note_on,15,0,11,,,,,,,,,10,,,,79,0
73276,control_change,1,0,11,,,,,,,,,10,11,95,,,
73277,note_on,15,0,12,,,,,,,,,11,,,,67,0
73278,control_change,1,0,12,,,,,,,,,11,11,95,,,
73280,note_on,15,0,13,,,,,,,,,12,,,,64,0
73281,control_change,1,0,13,,,,,,,,,12,11,95,,,
73282,note_on,15,0,14,,,,,,,,,13,,,,52,0
73283,control_change,1,0,14,,,,,,,,,13,11,95,,,
73284,note_on,15,0,15,,,,,,,,,14,,,,40,0
73285,control_change,1,0,15,,,,,,,,,14,11,95,,,
73290,note_on,14,0,11,,,,,,,,,10,,,,80,112
73292,note_on,14,0,12,,,,,,,,,11,,,,68,112
73295,control_change,5,0,11,,,,,,,,,10,11,97,,,
73295,note_on,14,0,13,,,,,,,,,12,,,,62,112
73297,control_change,5,0,12,,,,,,,,,11,11,97,,,
73297,note_on,14,0,14,,,,,,,,,13,,,,50,112
73299,note_on,14,0,15,,,,,,,,,14,,,,38,112
73300,control_change,5,0,13,,,,,,,,,12,11,97,,,
73302,control_change,5,0,14,,,,,,,,,13,11,97,,,
73304,control_change,5,0,15,,,,,,,,,14,11,97,,,
73305,note_on,10,0,11,,,,,,,,,10,,,,80,0
73307,note_on,10,0,12,,,,,,,,,11,,,,68,0
73310,note_on,10,0,13,,,,,,,,,12,,,,62,0
73312,note_on,10,0,14,,,,,,,,,13,,,,50,0
73314,control_change,9,0,11,,,,,,,,,10,11,99,,,
73314,note_on,10,0,15,,,,,,,,,14,,,,38,0
73316,control_change,9,0,12,,,,,,,,,11,11,99,,,
73319,control_change,9,0,13,,,,,,,,,12,11,99,,,
73320,set_tempo,60,1,0,,,,,,1153846,,,,,,,,
73320,note_on,6,0,11,,,,,,,,,10,,,,81,112
73321,control_change,9,0,14,,,,,,,,,13,11,99,,,
73322,note_on,6,0,12,,,,,,,,,11,,,,69,112
73323,control_change,9,0,15,,,,,,,,,14,11,99,,,
73325,note_on,6,0,13,,,,,,,,,12,,,,61,112
73327,note_on,6,0,14,,,,,,,,,13,,,,49,112
73329,note_on,6,0,15,,,,,,,,,14,,,,37,112
73333,control_change,13,0,11,,,,,,,,,10,11,101,,,
73335,note_on,2,0,11,,,,,,,,,10,,,,81,0
73335,control_change,13,0,12,,,,,,,,,11,11,101,,,
73337,note_on,2,0,12,,,,,,,,,11,,,,69,0
73338,control_change,13,0,13,,,,,,,,,12,11,101,,,
73340,control_change,13,0,14,,,,,,,,,13,11,101,,,
73340,note_on,2,0,13,,,,,,,,,12,,,,61,0
73342,note_on,2,0,14,,,,,,,,,13,,,,49,0
73342,control_change,13,0,15,,,,,,,,,14,11,101,,,
73344,note_on,2,0,15,,,,,,,,,14,,,,37,0
73350,note_on,15,0,11,,,,,,,,,10,,,,83,112
73352,control_change,2,0,11,,,,,,,,,10,11,103,,,
73352,note_on,15,0,12,,,,,,,,,11,,,,71,112
73354,control_change,2,0,12,,,,,,,,,11,11,103,,,
73355,note_on,15,0,13,,,,,,,,,12,,,,62,112
73357,note_on,15,0,14,,,,,,,,,13,,,,47,112
73357,control_change,2,0,13,,,,,,,,,12,11,103,,,
73359,control_change,2,0,14,,,,,,,,,13,11,103,,,
73359,note_on,15,0,15,,,,,,,,,14,,,,35,112
73361,control_change,2,0,15,,,,,,,,,14,11,103,,,
73365,note_on,13,0,11,,,,,,,,,10,,,,83,0
73367,note_on,13,0,12,,,,,,,,,11,,,,71,0
73370,note_on,13,0,13,,,,,,,,,12,,,,62,0
73372,note_on,13,0,14,,,,,,,,,13,,,,47,0
73372,control_change,7,0,11,,,,,,,,,10,11,105,,,
73374,note_on,13,0,15,,,,,,,,,14,,,,35,0
73374,control_change,7,0,12,,,,,,,,,11,11,105,,,
73377,control_change,7,0,13,,,,,,,,,12,11,105,,,
73379,control_change,7,0,14,,,,,,,,,13,11,105,,,
73380,note_on,8,0,11,,,,,,,,,10,,,,85,112
73380,set_tempo,60,1,0,,,,,,1111111,,,,,,,,
73381,control_change,7,0,15,,,,,,,,,14,11,105,,,
73382,note_on,8,0,12,,,,,,,,,11,,,,73,112
73385,note_on,8,0,13,,,,,,,,,12,,,,61,112
73387,note_on,8,0,14,,,,,,,,,13,,,,45,112
73389,note_on,8,0,15,,,,,,,,,14,,,,33,112
73391,control_change,11,0,11,,,,,,,,,10,11,107,,,
73393,control_change,11,0,12,,,,,,,,,11,11,107,,,
73395,note_on,4,0,11,,,,,,,,,10,,,,85,0
73396,control_change,11,0,13,,,,,,,,,12,11,107,,,
73397,note_on,4,0,12,,,,,,,,,11,,,,73,0
73398,control_change,11,0,14,,,,,,,,,13,11,107,,,
73400,control_change,11,0,15,,,,,,,,,14,11,107,,,
73400,note_on,4,0,13,,,,,,,,,12,,,,61,0
73402,note_on,4,0,14,,,,,,,,,13,,,,45,0
73404,note_on,4,0,15,,,,,,,,,14,,,,33,0
73410,note_on,0,0,11,,,,,,,,,10,,,,84,112
73410,control_change,15,0,11,,,,,,,,,10,11,109,,,
73412,note_on,0,0,12,,,,,,,,,11,,,,72,112
73412,control_change,15,0,12,,,,,,,,,11,11,109,,,
73415,control_change,0,0,13,,,,,,,,,12,11,109,,,
73415,note_on,15,0,13,,,,,,,,,12,,,,66,112
73417,note_on,0,0,14,,,,,,,,,13,,,,50,112
73417,control_change,15,0,14,,,,,,,,,13,11,109,,,
73419,control_change,15,0,15,,,,,,,,,14,11,109,,,
73419,note_on,0,0,15,,,,,,,,,14,,,,38,112
73425,note_on,15,0,11,,,,,,,,,10,,,,84,0
73427,note_on,15,0,12,,,,,,,,,11,,,,72,0
73429,control_change,4,0,11,,,,,,,,,10,11,111,,,
73430,note_on,15,0,13,,,,,,,,,12,,,,66,0
73431,control_change,4,0,12,,,,,,,,,11,11,111,,,
73432,note_on,15,0,14,,,,,,,,,13,,,,50,0
73434,note_on,15,0,15,,,,,,,,,14,,,,38,0
73434,control_change,4,0,13,,,,,,,,,12,11,111,,,
73436,control_change,4,0,14,,,,,,,,,13,11,111,,,
73438,control_change,4,0,15,,,,,,,,,14,11,111,,,
73440,control_change,11,0,11,,,,,,,,,10,11,102,,,
73440,note_on,0,0,11,,,,,,,,,10,,,,73,127
73440,set_tempo,60,1,0,,,,,,1153846,,,,,,,,
73440,note_on,0,0,11,,,,,,,,,10,,,,85,127
73442,note_on,245,0,2,,,,,,,,,1,,,,73,115
73442,control_change,0,0,2,,,,,,,,,1,11,98,,,
73442,note_on,0,0,2,,,,,,,,,1,,,,78,115
73442,note_on,0,0,12,,,,,,,,,11,,,,81,127
73442,control_change,0,0,12,,,,,,,,,11,11,102,,,
73442,note_on,11,0,12,,,,,,,,,11,,,,73,127
73442,control_change,0,0,3,,,,,,,,,2,11,98,,,
73442,note_on,0,0,3,,,,,,,,,2,,,,66,116
73442,note_on,245,0,3,,,,,,,,,2,,,,69,116
73444,control_change,0,0,8,,,,,,,,,7,11,102,,,
73444,note_on,250,0,8,,,,,,,,,7,,,,57,110
73444,note_on,0,0,8,,,,,,,,,7,,,,66,110
73445,control_change,0,0,13,,,,,,,,,12,11,102,,,
73445,note_on,11,0,13,,,,,,,,,12,,,,78,127
73446,note_on,0,0,9,,,,,,,,,8,,,,49,110
73446,control_change,250,0,9,,,,,,,,,8,11,102,,,
73447,control_change,0,0,14,,,,,,,,,13,11,102,,,
73447,note_on,0,0,4,,,,,,,,,3,,,,61,115
73447,note_on,11,0,14,,,,,,,,,13,,,,49,127
73447,control_change,0,0,4,,,,,,,,,3,11,112,,,
73447,note_on,245,0,4,,,,,,,,,3,,,,57,115
73449,control_change,11,0,15,,,,,,,,,14,11,102,,,
73449,note_on,0,0,15,,,,,,,,,14,,,,37,127
73457,note_on,15,0,3,,,,,,,,,2,,,,66,0
73457,note_on,15,0,2,,,,,,,,,1,,,,78,0
73457,note_on,0,0,2,,,,,,,,,1,,,,73,0
73457,note_on,0,0,3,,,,,,,,,2,,,,69,0
73462,note_on,15,0,4,,,,,,,,,3,,,,61,0
73462,note_on,0,0,4,,,,,,,,,3,,,,57,0
73472,note_on,15,0,2,,,,,,,,,1,,,,81,100
73472,note_on,0,0,2,,,,,,,,,1,,,,78,100
73472,note_on,15,0,3,,,,,,,,,2,,,,69,101
73472,note_on,0,0,3,,,,,,,,,2,,,,73,101
73477,note_on,15,0,4,,,,,,,,,3,,,,66,100
73477,note_on,0,0,4,,,,,,,,,3,,,,61,100
73487,note_on,0,0,2,,,,,,,,,1,,,,81,0
73487,note_on,0,0,3,,,,,,,,,2,,,,69,0
73487,note_on,15,0,2,,,,,,,,,1,,,,78,0
73487,note_on,15,0,3,,,,,,,,,2,,,,73,0
73492,note_on,15,0,4,,,,,,,,,3,,,,61,0
73492,note_on,0,0,4,,,,,,,,,3,,,,66,0
73500,set_tempo,60,1,0,,,,,,1111111,,,,,,,,
73502,note_on,15,0,3,,,,,,,,,2,,,,69,116
73502,note_on,0,0,3,,,,,,,,,2,,,,73,116
73502,note_on,0,0,2,,,,,,,,,1,,,,78,115
73502,note_on,15,0,2,,,,,,,,,1,,,,81,115
73507,note_on,15,0,4,,,,,,,,,3,,,,66,115
73507,note_on,0,0,4,,,,,,,,,3,,,,61,115
73517,note_on,15,0,2,,,,,,,,,1,,,,78,0
73517,note_on,15,0,3,,,,,,,,,2,,,,73,0
73517,note_on,0,0,2,,,,,,,,,1,,,,81,0
73517,note_on,0,0,3,,,,,,,,,2,,,,69,0
73522,note_on,0,0,4,,,,,,,,,3,,,,66,0
73522,note_on,15,0,4,,,,,,,,,3,,,,61,0
73532,note_on,0,0,2,,,,,,,,,1,,,,81,100
73532,note_on,15,0,2,,,,,,,,,1,,,,85,100
73532,note_on,0,0,3,,,,,,,,,2,,,,78,101
73532,note_on,15,0,3,,,,,,,,,2,,,,73,101
73537,note_on,0,0,4,,,,,,,,,3,,,,66,100
73537,note_on,15,0,4,,,,,,,,,3,,,,69,100
73547,note_on,0,0,2,,,,,,,,,1,,,,85,0
73547,note_on,0,0,3,,,,,,,,,2,,,,73,0
73547,note_on,15,0,3,,,,,,,,,2,,,,78,0
73547,note_on,15,0,2,,,,,,,,,1,,,,81,0
73549,note_on,0,0,11,,,,,,,,,10,,,,73,0
73549,note_on,109,0,11,,,,,,,,,10,,,,85,0
73551,note_on,0,0,12,,,,,,,,,11,,,,73,0
73551,note_on,109,0,12,,,,,,,,,11,,,,81,0
73552,note_on,15,0,4,,,,,,,,,3,,,,66,0
73552,note_on,0,0,4,,,,,,,,,3,,,,69,0
73554,note_on,110,0,8,,,,,,,,,7,,,,66,0
73554,note_on,0,0,8,,,,,,,,,7,,,,57,0
73555,note_on,110,0,13,,,,,,,,,12,,,,78,0
73556,note_on,110,0,9,,,,,,,,,8,,,,49,0
73557,note_on,110,0,14,,,,,,,,,13,,,,49,0
73559,note_on,110,0,15,,,,,,,,,14,,,,37,0
73560,note_on,0,0,11,,,,,,,,,10,,,,85,127
73560,set_tempo,60,1,0,,,,,,1153846,,,,,,,,
73560,note_on,11,0,11,,,,,,,,,10,,,,73,127
73561,control_change,365,0,1,,,,,,,,,0,11,98,,,
73561,note_on,0,0,1,,,,,,,,,0,,,,80,116
73561,note_on,0,0,1,,,,,,,,,0,,,,85,116
73562,note_on,15,0,3,,,,,,,,,2,,,,68,116
73562,note_on,0,0,2,,,,,,,,,1,,,,73,115
73562,note_on,15,0,2,,,,,,,,,1,,,,77,115
73562,note_on,0,0,3,,,,,,,,,2,,,,65,116
73562,note_on,0,0,12,,,,,,,,,11,,,,80,127
73562,note_on,11,0,12,,,,,,,,,11,,,,73,127
73564,note_on,10,0,8,,,,,,,,,7,,,,56,110
73564,note_on,0,0,8,,,,,,,,,7,,,,65,110
73565,note_on,10,0,13,,,,,,,,,12,,,,77,127
73566,note_on,10,0,9,,,,,,,,,8,,,,49,110
73567,note_on,15,0,4,,,,,,,,,3,,,,68,115
73567,note_on,10,0,14,,,,,,,,,13,,,,49,127
73567,note_on,0,0,4,,,,,,,,,3,,,,61,115
73569,note_on,10,0,15,,,,,,,,,14,,,,37,127
73576,note_on,15,0,1,,,,,,,,,0,,,,80,0
73576,note_on,0,0,1,,,,,,,,,0,,,,85,0
73577,note_on,0,0,3,,,,,,,,,2,,,,68,0
73577,note_on,0,0,2,,,,,,,,,1,,,,77,0
73577,note_on,15,0,3,,,,,,,,,2,,,,65,0
73577,note_on,15,0,2,,,,,,,,,1,,,,73,0
73591,note_on,15,0,1,,,,,,,,,0,,,,85,101
73591,note_on,0,0,1,,,,,,,,,0,,,,89,101
73592,note_on,15,0,2,,,,,,,,,1,,,,80,100
73592,note_on,0,0,2,,,,,,,,,1,,,,77,100
73592,note_on,15,0,3,,,,,,,,,2,,,,73,101
73592,note_on,0,0,3,,,,,,,,,2,,,,68,101
73606,note_on,15,0,1,,,,,,,,,0,,,,89,0
73606,note_on,0,0,1,,,,,,,,,0,,,,85,0
73607,note_on,15,0,2,,,,,,,,,1,,,,77,0
73607,note_on,0,0,2,,,,,,,,,1,,,,80,0
73607,note_on,0,0,3,,,,,,,,,2,,,,73,0
73607,note_on,15,0,3,,,,,,,,,2,,,,68,0
73620,set_tempo,60,1,0,,,,,,1111111,,,,,,,,
73621,note_on,15,0,1,,,,,,,,,0,,,,89,116
73621,note_on,0,0,1,,,,,,,,,0,,,,85,116
73622,note_on,15,0,2,,,,,,,,,1,,,,77,115
73622,note_on,0,0,2,,,,,,,,,1,,,,80,115
73622,note_on,15,0,3,,,,,,,,,2,,,,73,116
73622,note_on,0,0,3,,,,,,,,,2,,,,68,116
73627,note_on,60,0,4,,,,,,,,,3,,,,61,0
73627,note_on,0,0,4,,,,,,,,,3,,,,68,0
73636,note_on,15,0,1,,,,,,,,,0,,,,85,0
73636,note_on,0,0,1,,,,,,,,,0,,,,89,0
73637,note_on,15,0,3,,,,,,,,,2,,,,68,0
73637,note_on,15,0,2,,,,,,,,,1,,,,80,0
73637,note_on,0,0,2,,,,,,,,,1,,,,77,0
73637,note_on,0,0,3,,,,,,,,,2,,,,73,0
73650,set_tempo,30,1,0,,,,,,1333333,,,,,,,,
73651,note_on,15,0,1,,,,,,,,,0,,,,92,101
73651,note_on,0,0,1,,,,,,,,,0,,,,89,101
73652,note_on,0,0,3,,,,,,,,,2,,,,73,101
73652,note_on,15,0,3,,,,,,,,,2,,,,77,101
73652,note_on,0,0,2,,,,,,,,,1,,,,80,100
73652,note_on,15,0,2,,,,,,,,,1,,,,85,100
73666,note_on,15,0,1,,,,,,,,,0,,,,89,0
73666,note_on,0,0,1,,,,,,,,,0,,,,92,0
73667,note_on,0,0,3,,,,,,,,,2,,,,77,0
73667,note_on,15,0,3,,,,,,,,,2,,,,73,0
73667,note_on,0,0,2,,,,,,,,,1,,,,85,0
73667,note_on,15,0,2,,,,,,,,,1,,,,80,0
73669,note_on,109,0,11,,,,,,,,,10,,,,85,0
73669,note_on,0,0,11,,,,,,,,,10,,,,73,0
73671,note_on,109,0,12,,,,,,,,,11,,,,80,0
73671,note_on,0,0,12,,,,,,,,,11,,,,73,0
73674,note_on,110,0,8,,,,,,,,,7,,,,65,0
73674,note_on,0,0,8,,,,,,,,,7,,,,56,0
73675,note_on,110,0,13,,,,,,,,,12,,,,77,0
73676,note_on,110,0,9,,,,,,,,,8,,,,49,0
73677,note_on,110,0,14,,,,,,,,,13,,,,49,0
73679,note_on,110,0,15,,,,,,,,,14,,,,37,0
73680,set_tempo,30,1,0,,,,,,1200000,,,,,,,,
73680,note_on,11,0,11,,,,,,,,,10,,,,78,112
73681,control_change,15,0,1,,,,,,,,,0,11,91,,,
73681,note_on,0,0,1,,,,,,,,,0,,,,93,101
73681,note_on,0,0,1,,,,,,,,,0,,,,90,101
73682,note_on,0,0,3,,,,,,,,,2,,,,69,101
73682,note_on,11,0,12,,,,,,,,,11,,,,66,112
73682,note_on,490,0,7,,,,,,,,,6,,,,73,112
73682,note_on,0,0,7,,,,,,,,,6,,,,61,112
73682,control_change,15,0,3,,,,,,,,,2,11,91,,,
73682,note_on,0,0,2,,,,,,,,,1,,,,78,100
73682,note_on,0,0,3,,,,,,,,,2,,,,78,101
73682,note_on,0,0,2,,,,,,,,,1,,,,81,100
73682,control_change,15,0,2,,,,,,,,,1,11,91,,,
73686,note_on,10,0,9,,,,,,,,,8,,,,54,110
73687,note_on,0,0,4,,,,,,,,,3,,,,57,100
73687,note_on,0,0,4,,,,,,,,,3,,,,66,100
73687,control_change,60,0,4,,,,,,,,,3,11,102,,,
73697,note_on,17,0,11,,,,,,,,,10,,,,78,0
73699,note_on,17,0,12,,,,,,,,,11,,,,66,0
73710,note_on,13,0,11,,,,,,,,,10,,,,80,112
73712,note_on,13,0,12,,,,,,,,,11,,,,68,112
73727,note_on,17,0,11,,,,,,,,,10,,,,80,0
73729,note_on,17,0,12,,,,,,,,,11,,,,68,0
73740,note_on,13,0,11,,,,,,,,,10,,,,81,112
73740,set_tempo,60,1,0,,,,,,1111111,,,,,,,,
73742,note_on,13,0,12,,,,,,,,,11,,,,69,112
73757,note_on,17,0,11,,,,,,,,,10,,,,81,0
73759,note_on,17,0,12,,,,,,,,,11,,,,69,0
73770,note_on,13,0,11,,,,,,,,,10,,,,83,112
73772,note_on,13,0,12,,,,,,,,,11,,,,71,112
73787,note_on,17,0,11,,,,,,,,,10,,,,83,0
73789,note_on,17,0,12,,,,,,,,,11,,,,71,0
73792,note_on,110,0,7,,,,,,,,,6,,,,61,0
73792,note_on,0,0,7,,,,,,,,,6,,,,73,0
73796,note_on,0,0,1,,,,,,,,,0,,,,90,0
73796,note_on,115,0,1,,,,,,,,,0,,,,93,0
73796,note_on,110,0,9,,,,,,,,,8,,,,54,0
73797,note_on,0,0,2,,,,,,,,,1,,,,78,0
73797,note_on,115,0,3,,,,,,,,,2,,,,78,0
73797,note_on,0,0,3,,,,,,,,,2,,,,69,0
73797,note_on,115,0,2,,,,,,,,,1,,,,81,0
73800,note_on,13,0,11,,,,,,,,,10,,,,85,112
73800,set_tempo,60,1,0,,,,,,1188119,,,,,,,,
73801,note_on,5,0,1,,,,,,,,,0,,,,88,101
73801,note_on,0,0,1,,,,,,,,,0,,,,92,101
73802,note_on,0,0,3,,,,,,,,,2,,,,68,101
73802,note_on,115,0,4,,,,,,,,,3,,,,57,0
73802,note_on,5,0,2,,,,,,,,,1,,,,80,100
73802,note_on,13,0,12,,,,,,,,,11,,,,73,112
73802,note_on,0,0,2,,,,,,,,,1,,,,76,100
73802,note_on,0,0,7,,,,,,,,,6,,,,73,112
73802,note_on,10,0,7,,,,,,,,,6,,,,61,112
73802,note_on,0,0,4,,,,,,,,,3,,,,66,0
73802,note_on,5,0,3,,,,,,,,,2,,,,76,101
73806,note_on,10,0,9,,,,,,,,,8,,,,49,110
73807,note_on,0,0,4,,,,,,,,,3,,,,64,100
73807,note_on,5,0,4,,,,,,,,,3,,,,56,100
73817,note_on,17,0,11,,,,,,,,,10,,,,85,0
73819,note_on,17,0,12,,,,,,,,,11,,,,73,0
73830,note_on,13,0,11,,,,,,,,,10,,,,87,112
73832,note_on,13,0,12,,,,,,,,,11,,,,75,112
73847,note_on,17,0,11,,,,,,,,,10,,,,87,0
73849,note_on,17,0,12,,,,,,,,,11,,,,75,0
73860,set_tempo,60,1,0,,,,,,1111111,,,,,,,,
73860,note_on,13,0,11,,,,,,,,,10,,,,88,112
73862,note_on,13,0,12,,,,,,,,,11,,,,76,112
73877,note_on,17,0,11,,,,,,,,,10,,,,88,0
73879,note_on,17,0,12,,,,,,,,,11,,,,76,0
73890,set_tempo,30,1,0,,,,,,1276596,,,,,,,,
73890,note_on,13,0,11,,,,,,,,,10,,,,85,112
73892,note_on,13,0,12,,,,,,,,,11,,,,73,112
73907,note_on,17,0,11,,,,,,,,,10,,,,85,0
73909,note_on,17,0,12,,,,,,,,,11,,,,73,0
73912,note_on,0,0,7,,,,,,,,,6,,,,61,0
73912,note_on,110,0,7,,,,,,,,,6,,,,73,0
73916,note_on,110,0,9,,,,,,,,,8,,,,49,0
73916,note_on,0,0,1,,,,,,,,,0,,,,88,0
73916,note_on,115,0,1,,,,,,,,,0,,,,92,0
73917,note_on,0,0,3,,,,,,,,,2,,,,76,0
73917,note_on,115,0,3,,,,,,,,,2,,,,68,0
73917,note_on,0,0,2,,,,,,,,,1,,,,80,0
73917,note_on,115,0,2,,,,,,,,,1,,,,76,0
73920,set_tempo,30,1,0,,,,,,1200000,,,,,,,,
73920,note_on,13,0,11,,,,,,,,,10,,,,78,112
73920,note_on,0,0,11,,,,,,,,,10,,,,69,112
73922,note_on,13,0,12,,,,,,,,,11,,,,66,112
73922,note_on,5,0,2,,,,,,,,,1,,,,78,100
73922,note_on,0,0,2,,,,,,,,,1,,,,74,100
73922,note_on,0,0,12,,,,,,,,,11,,,,74,112
73922,note_on,5,0,3,,,,,,,,,2,,,,69,101
73922,note_on,0,0,4,,,,,,,,,3,,,,56,0
73922,note_on,0,0,3,,,,,,,,,2,,,,66,101
73922,note_on,115,0,4,,,,,,,,,3,,,,64,0
73925,note_on,250,0,13,,,,,,,,,12,,,,50,112
73927,note_on,5,0,4,,,,,,,,,3,,,,62,100
73927,note_on,250,0,14,,,,,,,,,13,,,,50,112
73927,note_on,0,0,4,,,,,,,,,3,,,,66,100
73929,note_on,250,0,15,,,,,,,,,14,,,,38,112
73942,note_on,17,0,13,,,,,,,,,12,,,,50,0
73944,note_on,17,0,14,,,,,,,,,13,,,,50,0
73946,note_on,17,0,15,,,,,,,,,14,,,,38,0
73955,note_on,13,0,13,,,,,,,,,12,,,,52,112
73957,note_on,13,0,14,,,,,,,,,13,,,,52,112
73959,note_on,13,0,15,,,,,,,,,14,,,,40,112
73972,note_on,17,0,13,,,,,,,,,12,,,,52,0
73974,note_on,17,0,14,,,,,,,,,13,,,,52,0
73976,note_on,17,0,15,,,,,,,,,14,,,,40,0
73980,set_tempo,60,1,0,,,,,,1111111,,,,,,,,
73985,note_on,13,0,13,,,,,,,,,12,,,,54,112
73987,note_on,13,0,14,,,,,,,,,13,,,,54,112
73989,note_on,13,0,15,,,,,,,,,14,,,,42,112
74002,note_on,17,0,13,,,,,,,,,12,,,,54,0
74004,note_on,17,0,14,,,,,,,,,13,,,,54,0
74006,note_on,17,0,15,,,,,,,,,14,,,,42,0
74007,note_on,0,0,11,,,,,,,,,10,,,,78,0
74007,note_on,87,0,11,,,,,,,,,10,,,,69,0
74009,note_on,0,0,12,,,,,,,,,11,,,,66,0
74009,note_on,87,0,12,,,,,,,,,11,,,,74,0
74015,note_on,13,0,13,,,,,,,,,12,,,,56,112
74017,note_on,13,0,14,,,,,,,,,13,,,,56,112
74019,note_on,13,0,15,,,,,,,,,14,,,,44,112
74032,note_on,17,0,13,,,,,,,,,12,,,,56,0
74034,note_on,17,0,14,,,,,,,,,13,,,,56,0
74036,note_on,17,0,15,,,,,,,,,14,,,,44,0
74037,note_on,115,0,3,,,,,,,,,2,,,,66,0
74037,note_on,0,0,3,,,,,,,,,2,,,,69,0
74037,note_on,0,0,2,,,,,,,,,1,,,,78,0
74037,note_on,115,0,2,,,,,,,,,1,,,,74,0
74040,note_on,0,0,11,,,,,,,,,10,,,,69,112
74040,set_tempo,60,1,0,,,,,,1188119,,,,,,,,
74040,note_on,33,0,11,,,,,,,,,10,,,,76,112
74040,control_change,0,0,11,,,,,,,,,10,11,102,,,
74042,control_change,33,0,12,,,,,,,,,11,11,102,,,
74042,note_on,0,0,12,,,,,,,,,11,,,,73,112
74042,note_on,0,0,12,,,,,,,,,11,,,,64,112
74042,note_on,0,0,3,,,,,,,,,2,,,,69,101
74042,note_on,0,0,2,,,,,,,,,1,,,,73,100
74042,note_on,5,0,3,,,,,,,,,2,,,,64,101
74042,note_on,5,0,2,,,,,,,,,1,,,,76,100
74042,note_on,115,0,4,,,,,,,,,3,,,,66,0
74042,note_on,0,0,4,,,,,,,,,3,,,,62,0
74045,note_on,13,0,13,,,,,,,,,12,,,,57,112
74047,note_on,5,0,4,,,,,,,,,3,,,,61,100
74047,note_on,0,0,4,,,,,,,,,3,,,,64,100
74047,note_on,13,0,14,,,,,,,,,13,,,,57,112
74049,note_on,13,0,15,,,,,,,,,14,,,,45,112
74062,note_on,17,0,13,,,,,,,,,12,,,,57,0
74064,control_change,24,0,11,,,,,,,,,10,11,101,,,
74064,note_on,17,0,14,,,,,,,,,13,,,,57,0
74066,control_change,24,0,12,,,,,,,,,11,11,101,,,
74066,note_on,17,0,15,,,,,,,,,14,,,,45,0
74075,note_on,13,0,13,,,,,,,,,12,,,,59,112
74077,note_on,13,0,14,,,,,,,,,13,,,,59,112
74079,note_on,13,0,15,,,,,,,,,14,,,,47,112
74088,control_change,24,0,11,,,,,,,,,10,11,100,,,
74090,control_change,24,0,12,,,,,,,,,11,11,100,,,
74092,note_on,17,0,13,,,,,,,,,12,,,,59,0
74094,note_on,17,0,14,,,,,,,,,13,,,,59,0
74096,note_on,17,0,15,,,,,,,,,14,,,,47,0
74100,set_tempo,60,1,0,,,,,,1111111,,,,,,,,
74105,note_on,13,0,13,,,,,,,,,12,,,,61,112
74107,note_on,13,0,14,,,,,,,,,13,,,,61,112
74109,note_on,13,0,15,,,,,,,,,14,,,,49,112
74112,control_change,24,0,11,,,,,,,,,10,11,99,,,
74114,control_change,24,0,12,,,,,,,,,11,11,99,,,
74122,note_on,17,0,13,,,,,,,,,12,,,,61,0
74124,note_on,17,0,14,,,,,,,,,13,,,,61,0
74126,note_on,17,0,15,,,,,,,,,14,,,,49,0
74127,note_on,0,0,11,,,,,,,,,10,,,,76,0
74127,note_on,15,0,11,,,,,,,,,10,,,,69,0
74129,note_on,15,0,12,,,,,,,,,11,,,,64,0
74129,note_on,0,0,12,,,,,,,,,11,,,,73,0
74130,set_tempo,30,1,0,,,,,,1333333,,,,,,,,
74135,note_on,13,0,13,,,,,,,,,12,,,,57,112
74136,control_change,9,0,11,,,,,,,,,10,11,98,,,
74137,note_on,13,0,14,,,,,,,,,13,,,,57,112
74138,control_change,9,0,12,,,,,,,,,11,11,98,,,
74139,note_on,13,0,15,,,,,,,,,14,,,,45,112
74152,note_on,17,0,13,,,,,,,,,12,,,,57,0
74154,note_on,17,0,14,,,,,,,,,13,,,,57,0
74156,note_on,17,0,15,,,,,,,,,14,,,,45,0
74157,note_on,115,0,2,,,,,,,,,1,,,,73,0
74157,note_on,0,0,2,,,,,,,,,1,,,,76,0
74157,note_on,0,0,3,,,,,,,,,2,,,,64,0
74157,note_on,115,0,3,,,,,,,,,2,,,,69,0
74160,control_change,24,0,11,,,,,,,,,10,11,97,,,
74160,note_on,0,0,11,,,,,,,,,10,,,,71,112
74160,set_tempo,30,1,0,,,,,,1200000,,,,,,,,
74161,control_change,245,0,1,,,,,,,,,0,11,91,,,
74161,note_on,0,0,1,,,,,,,,,0,,,,86,101
74161,note_on,0,0,1,,,,,,,,,0,,,,83,101
74162,control_change,0,0,2,,,,,,,,,1,11,91,,,
74162,note_on,0,0,12,,,,,,,,,11,,,,59,112
74162,control_change,24,0,12,,,,,,,,,11,11,97,,,
74162,note_on,115,0,4,,,,,,,,,3,,,,64,0
74162,control_change,5,0,3,,,,,,,,,2,11,91,,,
74162,note_on,0,0,3,,,,,,,,,2,,,,66,101
74162,note_on,0,0,3,,,,,,,,,2,,,,71,101
74162,note_on,0,0,4,,,,,,,,,3,,,,61,0
74162,note_on,5,0,2,,,,,,,,,1,,,,74,100
74162,note_on,0,0,2,,,,,,,,,1,,,,78,100
74166,control_change,0,0,9,,,,,,,,,8,11,102,,,
74166,note_on,250,0,9,,,,,,,,,8,,,,47,110
74167,control_change,0,0,4,,,,,,,,,3,11,102,,,
74167,note_on,0,0,4,,,,,,,,,3,,,,62,100
74167,note_on,5,0,4,,,,,,,,,3,,,,59,100
74177,note_on,17,0,11,,,,,,,,,10,,,,71,0
74177,control_change,16,0,1,,,,,,,,,0,11,89,,,
74178,control_change,16,0,3,,,,,,,,,2,11,89,,,
74178,control_change,16,0,2,,,,,,,,,1,11,89,,,
74179,note_on,17,0,12,,,,,,,,,11,,,,59,0
74182,control_change,16,0,9,,,,,,,,,8,11,100,,,
74183,control_change,16,0,4,,,,,,,,,3,11,100,,,
74184,control_change,7,0,11,,,,,,,,,10,11,96,,,
74186,control_change,7,0,12,,,,,,,,,11,11,96,,,
74190,note_on,6,0,11,,,,,,,,,10,,,,73,112
74192,note_on,6,0,12,,,,,,,,,11,,,,61,112
74193,control_change,16,0,1,,,,,,,,,0,11,88,,,
74194,control_change,16,0,3,,,,,,,,,2,11,88,,,
74194,control_change,16,0,2,,,,,,,,,1,11,88,,,
74198,control_change,16,0,9,,,,,,,,,8,11,98,,,
74199,control_change,16,0,4,,,,,,,,,3,11,98,,,
74207,note_on,17,0,11,,,,,,,,,10,,,,73,0
74208,control_change,1,0,11,,,,,,,,,10,11,95,,,
74209,note_on,17,0,12,,,,,,,,,11,,,,61,0
74209,control_change,16,0,1,,,,,,,,,0,11,86,,,
74210,control_change,1,0,12,,,,,,,,,11,11,95,,,
74210,control_change,16,0,3,,,,,,,,,2,11,86,,,
74210,control_change,16,0,2,,,,,,,,,1,11,86,,,
74214,control_change,16,0,9,,,,,,,,,8,11,96,,,
74215,control_change,16,0,4,,,,,,,,,3,11,96,,,
74220,note_on,12,0,11,,,,,,,,,10,,,,74,112
74220,set_tempo,60,1,0,,,,,,1111111,,,,,,,,
74222,note_on,12,0,12,,,,,,,,,11,,,,62,112
74225,control_change,16,0,1,,,,,,,,,0,11,85,,,
74226,control_change,16,0,3,,,,,,,,,2,11,85,,,
74226,control_change,16,0,2,,,,,,,,,1,11,85,,,
74230,control_change,16,0,9,,,,,,,,,8,11,94,,,
74231,control_change,16,0,4,,,,,,,,,3,11,94,,,
74232,control_change,12,0,11,,,,,,,,,10,11,94,,,
74234,control_change,12,0,12,,,,,,,,,11,11,94,,,
74237,note_on,5,0,11,,,,,,,,,10,,,,74,0
74239,note_on,5,0,12,,,,,,,,,11,,,,62,0
74241,control_change,16,0,1,,,,,,,,,0,11,83,,,
74242,control_change,16,0,3,,,,,,,,,2,11,83,,,
74242,control_change,16,0,2,,,,,,,,,1,11,83,,,
74246,control_change,16,0,9,,,,,,,,,8,11,92,,,
74247,control_change,16,0,4,,,,,,,,,3,11,92,,,
74250,note_on,13,0,11,,,,,,,,,10,,,,76,112
74252,note_on,13,0,12,,,,,,,,,11,,,,64,112
74256,control_change,6,0,11,,,,,,,,,10,11,93,,,
74257,control_change,16,0,1,,,,,,,,,0,11,81,,,
74258,control_change,6,0,12,,,,,,,,,11,11,93,,,
74258,control_change,16,0,2,,,,,,,,,1,11,81,,,
74258,control_change,16,0,3,,,,,,,,,2,11,81,,,
74262,control_change,16,0,9,,,,,,,,,8,11,90,,,
74263,control_change,16,0,4,,,,,,,,,3,11,90,,,
74267,note_on,11,0,11,,,,,,,,,10,,,,76,0
74269,note_on,11,0,12,,,,,,,,,11,,,,64,0
74273,control_change,16,0,1,,,,,,,,,0,11,80,,,
74274,control_change,16,0,3,,,,,,,,,2,11,80,,,
74274,control_change,16,0,2,,,,,,,,,1,11,80,,,
74276,note_on,0,0,1,,,,,,,,,0,,,,83,0
74276,note_on,3,0,1,,,,,,,,,0,,,,86,0
74276,note_on,14,0,9,,,,,,,,,8,,,,47,0
74277,note_on,3,0,3,,,,,,,,,2,,,,71,0
74277,note_on,0,0,2,,,,,,,,,1,,,,74,0
74277,note_on,0,0,3,,,,,,,,,2,,,,66,0
74277,note_on,3,0,2,,,,,,,,,1,,,,78,0
74278,control_change,2,0,9,,,,,,,,,8,11,88,,,
74279,control_change,16,0,4,,,,,,,,,3,11,88,,,
74280,control_change,13,0,11,,,,,,,,,10,11,92,,,
74280,set_tempo,60,1,0,,,,,,1188119,,,,,,,,
74280,note_on,0,0,11,,,,,,,,,10,,,,78,112
74281,note_on,0,0,1,,,,,,,,,0,,,,81,101
74281,note_on,5,0,1,,,,,,,,,0,,,,85,101
74282,note_on,0,0,12,,,,,,,,,11,,,,66,112
74282,note_on,5,0,3,,,,,,,,,2,,,,66,101
74282,note_on,0,0,4,,,,,,,,,3,,,,59,0
74282,note_on,0,0,2,,,,,,,,,1,,,,78,100
74282,note_on,5,0,2,,,,,,,,,1,,,,73,100
74282,note_on,3,0,4,,,,,,,,,3,,,,62,0
74282,control_change,13,0,12,,,,,,,,,11,11,92,,,
74282,note_on,0,0,3,,,,,,,,,2,,,,69,101
74286,note_on,8,0,9,,,,,,,,,8,,,,42,110
74287,note_on,0,0,4,,,,,,,,,3,,,,61,100
74287,note_on,5,0,4,,,,,,,,,3,,,,57,100
74297,note_on,17,0,11,,,,,,,,,10,,,,78,0
74299,note_on,17,0,12,,,,,,,,,11,,,,66,0
74304,control_change,7,0,11,,,,,,,,,10,11,91,,,
74306,control_change,7,0,12,,,,,,,,,11,11,91,,,
74310,note_on,6,0,11,,,,,,,,,10,,,,80,112
74312,note_on,6,0,12,,,,,,,,,11,,,,68,112
74327,note_on,17,0,11,,,,,,,,,10,,,,80,0
74328,control_change,1,0,11,,,,,,,,,10,11,90,,,
74329,note_on,17,0,12,,,,,,,,,11,,,,68,0
74330,control_change,1,0,12,,,,,,,,,11,11,90,,,
74340,set_tempo,60,1,0,,,,,,1111111,,,,,,,,
74340,note_on,12,0,11,,,,,,,,,10,,,,81,112
74342,note_on,12,0,12,,,,,,,,,11,,,,69,112
74352,control_change,12,0,11,,,,,,,,,10,11,89,,,
74354,control_change,12,0,12,,,,,,,,,11,11,89,,,
74357,note_on,5,0,11,,,,,,,,,10,,,,81,0
74359,note_on,5,0,12,,,,,,,,,11,,,,69,0
74370,set_tempo,30,1,0,,,,,,1276596,,,,,,,,
74370,note_on,13,0,11,,,,,,,,,10,,,,78,112
74372,note_on,13,0,12,,,,,,,,,11,,,,66,112
74376,control_change,6,0,11,,,,,,,,,10,11,88,,,
74378,control_change,6,0,12,,,,,,,,,11,11,88,,,
74387,note_on,11,0,11,,,,,,,,,10,,,,78,0
74389,note_on,11,0,12,,,,,,,,,11,,,,66,0
74396,note_on,110,0,9,,,,,,,,,8,,,,42,0
74396,note_on,115,0,1,,,,,,,,,0,,,,81,0
74396,note_on,0,0,1,,,,,,,,,0,,,,85,0
74397,note_on,115,0,2,,,,,,,,,1,,,,78,0
74397,note_on,0,0,2,,,,,,,,,1,,,,73,0
74397,note_on,115,0,3,,,,,,,,,2,,,,69,0
74397,note_on,0,0,3,,,,,,,,,2,,,,66,0
74400,control_change,13,0,11,,,,,,,,,10,11,87,,,
74400,note_on,0,0,11,,,,,,,,,10,,,,71,112
74400,set_tempo,30,1,0,,,,,,1200000,,,,,,,,
74402,note_on,13,0,12,,,,,,,,,11,,,,66,112
74402,control_change,0,0,12,,,,,,,,,11,11,87,,,
74402,note_on,0,0,4,,,,,,,,,3,,,,57,0
74402,note_on,115,0,4,,,,,,,,,3,,,,61,0
74405,control_change,0,0,13,,,,,,,,,12,11,87,,,
74405,note_on,253,0,13,,,,,,,,,12,,,,62,112
74407,control_change,0,0,14,,,,,,,,,13,11,87,,,
74407,note_on,253,0,14,,,,,,,,,13,,,,47,112
74409,note_on,253,0,15,,,,,,,,,14,,,,35,112
74409,control_change,0,0,15,,,,,,,,,14,11,87,,,
74424,note_on,17,0,14,,,,,,,,,13,,,,47,0
74426,note_on,17,0,15,,,,,,,,,14,,,,35,0
74428,control_change,28,0,11,,,,,,,,,10,11,82,,,
74430,control_change,28,0,12,,,,,,,,,11,11,82,,,
74433,control_change,28,0,13,,,,,,,,,12,11,82,,,
74435,control_change,11,0,14,,,,,,,,,13,11,82,,,
74437,control_change,11,0,15,,,,,,,,,14,11,82,,,
74437,note_on,2,0,14,,,,,,,,,13,,,,49,112
74439,note_on,2,0,15,,,,,,,,,14,,,,37,112
74443,control_change,15,0,11,,,,,,,,,10,11,79,,,
74445,control_change,15,0,12,,,,,,,,,11,11,79,,,
74448,control_change,15,0,13,,,,,,,,,12,11,79,,,
74450,control_change,13,0,14,,,,,,,,,13,11,79,,,
74452,control_change,13,0,15,,,,,,,,,14,11,79,,,
74454,note_on,4,0,14,,,,,,,,,13,,,,49,0
74456,note_on,4,0,15,,,,,,,,,14,,,,37,0
74457,control_change,14,0,11,,,,,,,,,10,11,76,,,
74459,control_change,14,0,12,,,,,,,,,11,11,76,,,
74460,set_tempo,60,1,0,,,,,,1111111,,,,,,,,
74462,control_change,14,0,13,,,,,,,,,12,11,76,,,
74464,control_change,10,0,14,,,,,,,,,13,11,76,,,
74466,control_change,10,0,15,,,,,,,,,14,11,76,,,
74467,note_on,3,0,14,,,,,,,,,13,,,,50,112
74469,note_on,3,0,15,,,,,,,,,14,,,,38,112
74472,control_change,15,0,11,,,,,,,,,10,11,73,,,
74474,control_change,15,0,12,,,,,,,,,11,11,73,,,
74477,control_change,15,0,13,,,,,,,,,12,11,73,,,
74479,control_change,12,0,14,,,,,,,,,13,11,73,,,
74481,control_change,12,0,15,,,,,,,,,14,11,73,,,
74484,note_on,5,0,14,,,,,,,,,13,,,,50,0
74486,note_on,5,0,15,,,,,,,,,14,,,,38,0
74497,note_on,13,0,14,,,,,,,,,13,,,,52,112
74499,note_on,27,0,11,,,,,,,,,10,,,,71,0
74499,note_on,13,0,15,,,,,,,,,14,,,,40,112
74500,control_change,1,0,11,,,,,,,,,10,11,68,,,
74501,note_on,27,0,12,,,,,,,,,11,,,,66,0
74502,control_change,1,0,12,,,,,,,,,11,11,68,,,
74504,note_on,27,0,13,,,,,,,,,12,,,,62,0
74505,control_change,1,0,13,,,,,,,,,12,11,68,,,
74507,control_change,10,0,14,,,,,,,,,13,11,68,,,
74509,control_change,10,0,15,,,,,,,,,14,11,68,,,
74514,note_on,7,0,14,,,,,,,,,13,,,,52,0
74515,control_change,15,0,11,,,,,,,,,10,11,65,,,
74516,note_on,7,0,15,,,,,,,,,14,,,,40,0
74517,control_change,15,0,12,,,,,,,,,11,11,65,,,
74520,note_on,5,0,11,,,,,,,,,10,,,,69,112
74520,set_tempo,60,1,0,,,,,,1188119,,,,,,,,
74520,control_change,15,0,13,,,,,,,,,12,11,65,,,
74522,note_on,5,0,12,,,,,,,,,11,,,,66,112
74522,control_change,8,0,14,,,,,,,,,13,11,65,,,
74524,control_change,8,0,15,,,,,,,,,14,11,65,,,
74525,note_on,5,0,13,,,,,,,,,12,,,,61,112
74527,note_on,5,0,14,,,,,,,,,13,,,,54,112
74529,control_change,9,0,11,,,,,,,,,10,11,62,,,
74529,note_on,5,0,15,,,,,,,,,14,,,,42,112
74531,control_change,9,0,12,,,,,,,,,11,11,62,,,
74534,control_change,9,0,13,,,,,,,,,12,11,62,,,
74536,control_change,9,0,14,,,,,,,,,13,11,62,,,
74538,control_change,9,0,15,,,,,,,,,14,11,62,,,
74544,control_change,15,0,11,,,,,,,,,10,11,59,,,
74544,note_on,8,0,14,,,,,,,,,13,,,,54,0
74546,note_on,8,0,15,,,,,,,,,14,,,,42,0
74546,control_change,15,0,12,,,,,,,,,11,11,59,,,
74549,control_change,15,0,13,,,,,,,,,12,11,59,,,
74551,control_change,7,0,14,,,,,,,,,13,11,59,,,
74553,control_change,7,0,15,,,,,,,,,14,11,59,,,
74557,note_on,6,0,14,,,,,,,,,13,,,,56,112
74559,note_on,6,0,15,,,,,,,,,14,,,,44,112
74572,control_change,28,0,11,,,,,,,,,10,11,54,,,
74574,control_change,28,0,12,,,,,,,,,11,11,54,,,
74574,note_on,17,0,14,,,,,,,,,13,,,,56,0
74576,note_on,17,0,15,,,,,,,,,14,,,,44,0
74577,control_change,28,0,13,,,,,,,,,12,11,54,,,
74579,control_change,5,0,14,,,,,,,,,13,11,54,,,
74580,set_tempo,60,1,0,,,,,,1111111,,,,,,,,
74581,control_change,5,0,15,,,,,,,,,14,11,54,,,
74587,note_on,8,0,14,,,,,,,,,13,,,,57,112
74587,control_change,15,0,11,,,,,,,,,10,11,51,,,
74589,note_on,8,0,15,,,,,,,,,14,,,,45,112
74589,control_change,15,0,12,,,,,,,,,11,11,51,,,
74592,control_change,15,0,13,,,,,,,,,12,11,51,,,
74594,control_change,7,0,14,,,,,,,,,13,11,51,,,
74596,control_change,7,0,15,,,,,,,,,14,11,51,,,
74601,control_change,14,0,11,,,,,,,,,10,11,48,,,
74603,control_change,14,0,12,,,,,,,,,11,11,48,,,
74604,note_on,10,0,14,,,,,,,,,13,,,,57,0
74606,note_on,10,0,15,,,,,,,,,14,,,,45,0
74606,control_change,14,0,13,,,,,,,,,12,11,48,,,
74608,control_change,4,0,14,,,,,,,,,13,11,48,,,
74610,set_tempo,30,1,0,,,,,,1348315,,,,,,,,
74610,control_change,4,0,15,,,,,,,,,14,11,48,,,
74616,control_change,15,0,11,,,,,,,,,10,11,45,,,
74617,note_on,9,0,14,,,,,,,,,13,,,,54,112
74618,control_change,15,0,12,,,,,,,,,11,11,45,,,
74619,note_on,3,0,11,,,,,,,,,10,,,,69,0
74619,note_on,9,0,15,,,,,,,,,14,,,,42,112
74621,control_change,15,0,13,,,,,,,,,12,11,45,,,
74621,note_on,3,0,12,,,,,,,,,11,,,,66,0
74623,control_change,6,0,14,,,,,,,,,13,11,45,,,
74624,note_on,3,0,13,,,,,,,,,12,,,,61,0
74625,control_change,6,0,15,,,,,,,,,14,11,45,,,
74630,control_change,11,0,11,,,,,,,,,10,11,42,,,
74632,control_change,11,0,12,,,,,,,,,11,11,42,,,
74634,note_on,11,0,14,,,,,,,,,13,,,,54,0
74635,control_change,11,0,13,,,,,,,,,12,11,42,,,
74636,note_on,11,0,15,,,,,,,,,14,,,,42,0
74637,control_change,3,0,14,,,,,,,,,13,11,42,,,
74639,control_change,3,0,15,,,,,,,,,14,11,42,,,
74640,set_tempo,30,1,0,,,,,,1200000,,,,,,,,
74642,note_on,10,0,12,,,,,,,,,11,,,,73,112
74642,note_on,245,0,2,,,,,,,,,1,,,,80,100
74642,control_change,0,0,2,,,,,,,,,1,11,47,,,
74642,control_change,0,0,7,,,,,,,,,6,11,57,,,
74642,note_on,730,0,7,,,,,,,,,6,,,,61,112
74645,note_on,10,0,13,,,,,,,,,12,,,,71,112
74647,note_on,10,0,14,,,,,,,,,13,,,,49,112
74649,note_on,10,0,15,,,,,,,,,14,,,,37,112
74662,note_on,15,0,14,,,,,,,,,13,,,,49,0
74670,note_on,28,0,12,,,,,,,,,11,,,,73,0
74672,note_on,2,0,12,,,,,,,,,11,,,,73,112
74673,note_on,28,0,13,,,,,,,,,12,,,,71,0
74675,note_on,2,0,13,,,,,,,,,12,,,,71,112
74677,note_on,15,0,14,,,,,,,,,13,,,,51,112
74692,note_on,15,0,14,,,,,,,,,13,,,,51,0
74700,set_tempo,60,1,0,,,,,,1111111,,,,,,,,
74702,note_on,60,0,7,,,,,,,,,6,,,,61,0
74707,note_on,15,0,14,,,,,,,,,13,,,,53,112
74709,note_on,60,0,15,,,,,,,,,14,,,,37,0
74722,note_on,15,0,14,,,,,,,,,13,,,,53,0
74727,note_on,55,0,12,,,,,,,,,11,,,,73,0
74730,note_on,55,0,13,,,,,,,,,12,,,,71,0
74732,note_on,5,0,12,,,,,,,,,11,,,,73,112
74735,note_on,5,0,13,,,,,,,,,12,,,,71,112
74737,note_on,15,0,14,,,,,,,,,13,,,,54,112
74752,note_on,15,0,14,,,,,,,,,13,,,,54,0
74760,set_tempo,60,1,0,,,,,,1188119,,,,,,,,
74762,note_on,0,0,2,,,,,,,,,1,,,,73,100
74762,note_on,120,0,2,,,,,,,,,1,,,,80,0
74767,note_on,15,0,14,,,,,,,,,13,,,,56,112
74782,note_on,15,0,14,,,,,,,,,13,,,,56,0
74787,note_on,55,0,12,,,,,,,,,11,,,,73,0
74790,note_on,55,0,13,,,,,,,,,12,,,,71,0
74792,note_on,5,0,12,,,,,,,,,11,,,,73,112
74792,note_on,30,0,2,,,,,,,,,1,,,,73,0
74792,note_on,0,0,2,,,,,,,,,1,,,,80,100
74795,note_on,5,0,13,,,,,,,,,12,,,,71,112
74797,note_on,15,0,14,,,,,,,,,13,,,,53,112
74812,note_on,15,0,14,,,,,,,,,13,,,,53,0
74820,set_tempo,60,1,0,,,,,,1111111,,,,,,,,
74822,note_on,120,0,7,,,,,,,,,6,,,,61,112
74822,note_on,0,0,2,,,,,,,,,1,,,,81,100
74822,note_on,30,0,2,,,,,,,,,1,,,,80,0
74827,note_on,15,0,14,,,,,,,,,13,,,,49,112
74828,program_change,119,0,15,,,,,,,,45,14,,,,,
74829,note_on,0,0,15,,,,,,,,,14,,,,37,51
74829,control_change,1,0,15,,,,,,,,,14,11,67,,,
74842,note_on,15,0,14,,,,,,,,,13,,,,49,0
74847,note_on,55,0,12,,,,,,,,,11,,,,73,0
74850,note_on,55,0,13,,,,,,,,,12,,,,71,0
74852,note_on,5,0,12,,,,,,,,,11,,,,73,112
74852,note_on,30,0,2,,,,,,,,,1,,,,81,0
74852,note_on,0,0,2,,,,,,,,,1,,,,80,100
74855,note_on,5,0,13,,,,,,,,,12,,,,71,112
74857,note_on,15,0,14,,,,,,,,,13,,,,53,112
74862,note_on,40,0,7,,,,,,,,,6,,,,61,0
74867,note_on,5,0,7,,,,,,,,,6,,,,61,112
74872,note_on,15,0,14,,,,,,,,,13,,,,53,0
74874,note_on,45,0,15,,,,,,,,,14,,,,37,0
74877,note_on,10,0,7,,,,,,,,,6,,,,61,0
74877,note_on,25,0,2,,,,,,,,,1,,,,80,0
74880,control_change,0,0,11,,,,,,,,,10,11,36,,,
74880,set_tempo,60,1,0,,,,,,1200000,,,,,,,,
74880,note_on,250,0,11,,,,,,,,,10,,,,73,112
74882,note_on,5,0,2,,,,,,,,,1,,,,80,100
74882,note_on,5,0,7,,,,,,,,,6,,,,61,112
74885,note_on,0,0,13,,,,,,,,,12,,,,69,112
74885,note_on,30,0,13,,,,,,,,,12,,,,71,0
74887,note_on,15,0,14,,,,,,,,,13,,,,54,112
74889,note_on,15,0,15,,,,,,,,,14,,,,37,51
74895,note_on,15,0,11,,,,,,,,,10,,,,73,0
74907,note_on,55,0,12,,,,,,,,,11,,,,73,0
74910,note_on,15,0,11,,,,,,,,,10,,,,78,112
74912,note_on,5,0,12,,,,,,,,,11,,,,73,112
74912,note_on,0,0,2,,,,,,,,,1,,,,78,100
74912,note_on,30,0,2,,,,,,,,,1,,,,80,0
74913,note_on,28,0,13,,,,,,,,,12,,,,69,0
74915,note_on,2,0,13,,,,,,,,,12,,,,69,112
74917,note_on,30,0,14,,,,,,,,,13,,,,54,0
74925,note_on,15,0,11,,,,,,,,,10,,,,78,0
74934,note_on,45,0,15,,,,,,,,,14,,,,37,0
74937,note_on,55,0,7,,,,,,,,,6,,,,61,0
74940,set_tempo,60,1,0,,,,,,1111111,,,,,,,,
74940,note_on,15,0,11,,,,,,,,,10,,,,80,112
74942,note_on,30,0,2,,,,,,,,,1,,,,78,0
74942,note_on,0,0,2,,,,,,,,,1,,,,77,100
74955,note_on,15,0,11,,,,,,,,,10,,,,80,0
74967,note_on,55,0,12,,,,,,,,,11,,,,73,0
74970,note_on,15,0,11,,,,,,,,,10,,,,81,112
74970,note_on,55,0,13,,,,,,,,,12,,,,69,0
74972,note_on,5,0,12,,,,,,,,,11,,,,73,112
74972,note_on,0,0,2,,,,,,,,,1,,,,78,100
74972,note_on,30,0,2,,,,,,,,,1,,,,77,0
74975,note_on,5,0,13,,,,,,,,,12,,,,69,112
74985,note_on,15,0,11,,,,,,,,,10,,,,81,0
74997,note_on,25,0,2,,,,,,,,,1,,,,78,0
75000,note_on,15,0,11,,,,,,,,,10,,,,85,112
75000,set_tempo,60,1,0,,,,,,1188119,,,,,,,,
75002,note_on,5,0,2,,,,,,,,,1,,,,73,100
75015,note_on,15,0,11,,,,,,,,,10,,,,85,0
75027,note_on,55,0,12,,,,,,,,,11,,,,73,0
75030,note_on,15,0,11,,,,,,,,,10,,,,81,112
75030,note_on,55,0,13,,,,,,,,,12,,,,69,0
75032,note_on,5,0,12,,,,,,,,,11,,,,73,112
75035,note_on,5,0,13,,,,,,,,,12,,,,69,112
75045,note_on,15,0,11,,,,,,,,,10,,,,81,0
75060,note_on,15,0,11,,,,,,,,,10,,,,78,112
75060,set_tempo,60,1,0,,,,,,1111111,,,,,,,,
75062,note_on,125,0,7,,,,,,,,,6,,,,61,112
75069,note_on,135,0,15,,,,,,,,,14,,,,37,51
75075,note_on,15,0,11,,,,,,,,,10,,,,78,0
75087,note_on,55,0,12,,,,,,,,,11,,,,73,0
75090,note_on,15,0,11,,,,,,,,,10,,,,81,112
75090,note_on,55,0,13,,,,,,,,,12,,,,69,0
75092,note_on,5,0,12,,,,,,,,,11,,,,73,112
75095,note_on,5,0,13,,,,,,,,,12,,,,69,112
75102,note_on,40,0,7,,,,,,,,,6,,,,61,0
75105,note_on,15,0,11,,,,,,,,,10,,,,81,0
75107,note_on,5,0,7,,,,,,,,,6,,,,61,112
75114,note_on,45,0,15,,,,,,,,,14,,,,37,0
75117,note_on,10,0,7,,,,,,,,,6,,,,61,0
75120,note_on,15,0,11,,,,,,,,,10,,,,85,112
75120,set_tempo,60,1,0,,,,,,1200000,,,,,,,,
75122,note_on,5,0,7,,,,,,,,,6,,,,61,112
75122,note_on,725,0,3,,,,,,,,,2,,,,80,101
75122,control_change,0,0,3,,,,,,,,,2,11,52,,,
75122,note_on,120,0,2,,,,,,,,,1,,,,73,0
75125,note_on,30,0,13,,,,,,,,,12,,,,69,0
75125,note_on,0,0,13,,,,,,,,,12,,,,71,112
75126,program_change,209,0,14,,,,,,,,45,13,,,,,
75127,control_change,1,0,14,,,,,,,,,13,11,57,,,
75127,note_on,0,0,14,,,,,,,,,13,,,,49,51
75129,note_on,15,0,15,,,,,,,,,14,,,,37,51
75147,note_on,55,0,12,,,,,,,,,11,,,,73,0
75150,note_on,23,0,14,,,,,,,,,13,,,,49,0
75150,note_on,30,0,11,,,,,,,,,10,,,,85,0
75152,note_on,5,0,12,,,,,,,,,11,,,,73,112
75153,note_on,28,0,13,,,,,,,,,12,,,,71,0
75155,note_on,2,0,13,,,,,,,,,12,,,,71,112
75157,note_on,7,0,14,,,,,,,,,13,,,,51,51
75174,note_on,45,0,15,,,,,,,,,14,,,,37,0
75177,note_on,55,0,7,,,,,,,,,6,,,,61,0
75180,note_on,23,0,14,,,,,,,,,13,,,,51,0
75180,set_tempo,60,1,0,,,,,,1111111,,,,,,,,
75187,note_on,7,0,14,,,,,,,,,13,,,,53,51
75207,note_on,55,0,12,,,,,,,,,11,,,,73,0
75210,note_on,23,0,14,,,,,,,,,13,,,,53,0
75210,note_on,55,0,13,,,,,,,,,12,,,,71,0
75212,note_on,5,0,12,,,,,,,,,11,,,,73,112
75215,note_on,5,0,13,,,,,,,,,12,,,,71,112
75217,note_on,7,0,14,,,,,,,,,13,,,,54,51
75240,set_tempo,60,1,0,,,,,,1188119,,,,,,,,
75240,note_on,23,0,14,,,,,,,,,13,,,,54,0
75242,note_on,120,0,3,,,,,,,,,2,,,,80,0
75242,note_on,0,0,3,,,,,,,,,2,,,,73,101
75247,note_on,7,0,14,,,,,,,,,13,,,,56,51
75267,note_on,55,0,12,,,,,,,,,11,,,,73,0
75270,note_on,23,0,14,,,,,,,,,13,,,,56,0
75270,note_on,55,0,13,,,,,,,,,12,,,,71,0
75272,note_on,0,0,3,,,,,,,,,2,,,,80,101
75272,note_on,30,0,3,,,,,,,,,2,,,,73,0
75272,note_on,5,0,12,,,,,,,,,11,,,,73,112
75275,note_on,5,0,13,,,,,,,,,12,,,,71,112
75277,note_on,7,0,14,,,,,,,,,13,,,,53,51
75300,note_on,23,0,14,,,,,,,,,13,,,,53,0
75300,set_tempo,60,1,0,,,,,,1111111,,,,,,,,
75302,note_on,30,0,3,,,,,,,,,2,,,,80,0
75302,note_on,125,0,7,,,,,,,,,6,,,,61,112
75302,note_on,0,0,3,,,,,,,,,2,,,,81,101
75307,note_on,7,0,14,,,,,,,,,13,,,,49,51
75309,note_on,135,0,15,,,,,,,,,14,,,,37,51
75327,note_on,55,0,12,,,,,,,,,11,,,,73,0
75330,note_on,55,0,13,,,,,,,,,12,,,,71,0
75330,note_on,23,0,14,,,,,,,,,13,,,,49,0
75332,note_on,0,0,3,,,,,,,,,2,,,,80,101
75332,note_on,5,0,12,,,,,,,,,11,,,,73,112
75332,note_on,30,0,3,,,,,,,,,2,,,,81,0
75335,note_on,5,0,13,,,,,,,,,12,,,,71,112
75337,note_on,7,0,14,,,,,,,,,13,,,,53,51
75342,note_on,40,0,7,,,,,,,,,6,,,,61,0
75347,note_on,5,0,7,,,,,,,,,6,,,,61,112
75354,note_on,45,0,15,,,,,,,,,14,,,,37,0
75357,note_on,25,0,3,,,,,,,,,2,,,,80,0
75357,note_on,10,0,7,,,,,,,,,6,,,,61,0
75359,program_change,209,0,11,,,,,,,,45,10,,,,,
75360,set_tempo,60,1,0,,,,,,1200000,,,,,,,,
75360,note_on,23,0,14,,,,,,,,,13,,,,53,0
75360,control_change,1,0,11,,,,,,,,,10,11,57,,,
75360,note_on,0,0,11,,,,,,,,,10,,,,73,59
75362,note_on,5,0,3,,,,,,,,,2,,,,80,101
75362,note_on,5,0,7,,,,,,,,,6,,,,61,112
75365,note_on,30,0,13,,,,,,,,,12,,,,71,0
75365,note_on,0,0,13,,,,,,,,,12,,,,69,112
75367,note_on,7,0,14,,,,,,,,,13,,,,54,51
75369,note_on,15,0,15,,,,,,,,,14,,,,42,51
75383,note_on,23,0,11,,,,,,,,,10,,,,73,0
75387,note_on,55,0,12,,,,,,,,,11,,,,73,0
75390,note_on,7,0,11,,,,,,,,,10,,,,78,59
75392,note_on,30,0,3,,,,,,,,,2,,,,80,0
75392,note_on,5,0,12,,,,,,,,,11,,,,73,112
75392,note_on,0,0,3,,,,,,,,,2,,,,78,101
75393,note_on,28,0,13,,,,,,,,,12,,,,69,0
75395,note_on,2,0,13,,,,,,,,,12,,,,69,112
75412,note_on,45,0,14,,,,,,,,,13,,,,54,0
75413,note_on,23,0,11,,,,,,,,,10,,,,78,0
75414,note_on,45,0,15,,,,,,,,,14,,,,42,0
75417,note_on,55,0,7,,,,,,,,,6,,,,61,0
75420,note_on,7,0,11,,,,,,,,,10,,,,80,59
75420,set_tempo,60,1,0,,,,,,1111111,,,,,,,,
75422,note_on,30,0,12,,,,,,,,,11,,,,73,0
75422,note_on,0,0,12,,,,,,,,,11,,,,74,112
75422,note_on,30,0,3,,,,,,,,,2,,,,78,0
75422,note_on,0,0,3,,,,,,,,,2,,,,76,101
75425,note_on,0,0,13,,,,,,,,,12,,,,66,112
75425,note_on,30,0,13,,,,,,,,,12,,,,69,0
75427,note_on,15,0,14,,,,,,,,,13,,,,47,51
75429,note_on,15,0,15,,,,,,,,,14,,,,35,51
75443,note_on,23,0,11,,,,,,,,,10,,,,80,0
75450,note_on,7,0,11,,,,,,,,,10,,,,83,59
75450,note_on,28,0,12,,,,,,,,,11,,,,74,0
75452,note_on,2,0,12,,,,,,,,,11,,,,74,112
75452,note_on,30,0,3,,,,,,,,,2,,,,76,0
75452,note_on,0,0,3,,,,,,,,,2,,,,74,101
75453,note_on,28,0,13,,,,,,,,,12,,,,66,0
75455,note_on,2,0,13,,,,,,,,,12,,,,66,112
75472,note_on,45,0,14,,,,,,,,,13,,,,47,0
75473,note_on,23,0,11,,,,,,,,,10,,,,83,0
75474,note_on,45,0,15,,,,,,,,,14,,,,35,0
75480,set_tempo,60,1,0,,,,,,1188119,,,,,,,,
75480,note_on,7,0,11,,,,,,,,,10,,,,85,59
75482,note_on,0,0,3,,,,,,,,,2,,,,73,101
75482,note_on,30,0,3,,,,,,,,,2,,,,74,0
75482,note_on,0,0,12,,,,,,,,,11,,,,73,112
75482,note_on,30,0,12,,,,,,,,,11,,,,74,0
75485,note_on,0,0,13,,,,,,,,,12,,,,69,112
75485,note_on,30,0,13,,,,,,,,,12,,,,66,0
75487,note_on,15,0,14,,,,,,,,,13,,,,54,51
75489,note_on,15,0,15,,,,,,,,,14,,,,42,51
75503,note_on,23,0,11,,,,,,,,,10,,,,85,0
75510,note_on,28,0,12,,,,,,,,,11,,,,73,0
75510,note_on,7,0,11,,,,,,,,,10,,,,81,59
75512,note_on,2,0,12,,,,,,,,,11,,,,73,112
75513,note_on,28,0,13,,,,,,,,,12,,,,69,0
75515,note_on,2,0,13,,,,,,,,,12,,,,69,112
75532,note_on,45,0,14,,,,,,,,,13,,,,54,0
75533,note_on,23,0,11,,,,,,,,,10,,,,81,0
75534,note_on,45,0,15,,,,,,,,,14,,,,42,0
75540,note_on,7,0,11,,,,,,,,,10,,,,78,59
75540,set_tempo,60,1,0,,,,,,1111111,,,,,,,,
75541,note_on,0,0,1,,,,,,,,,0,,,,78,101
75541,control_change,1145,0,1,,,,,,,,,0,11,52,,,
75542,note_on,125,0,7,,,,,,,,,6,,,,61,112
75563,note_on,23,0,11,,,,,,,,,10,,,,78,0
75567,note_on,55,0,12,,,,,,,,,11,,,,73,0
75570,note_on,55,0,13,,,,,,,,,12,,,,69,0
75570,note_on,7,0,11,,,,,,,,,10,,,,81,59
75572,note_on,5,0,12,,,,,,,,,11,,,,73,112
75575,note_on,5,0,13,,,,,,,,,12,,,,69,112
75582,note_on,40,0,7,,,,,,,,,6,,,,61,0
75587,note_on,5,0,7,,,,,,,,,6,,,,61,112
75593,note_on,23,0,11,,,,,,,,,10,,,,81,0
75597,note_on,10,0,7,,,,,,,,,6,,,,61,0
75600,note_on,7,0,11,,,,,,,,,10,,,,85,59
75600,set_tempo,60,1,0,,,,,,1200000,,,,,,,,
75601,control_change,0,0,1,,,,,,,,,0,11,52,,,
75601,note_on,0,0,1,,,,,,,,,0,,,,77,101
75601,note_on,0,0,1,,,,,,,,,0,,,,80,101
75601,note_on,60,0,1,,,,,,,,,0,,,,78,0
75602,note_on,120,0,3,,,,,,,,,2,,,,73,0
75602,note_on,5,0,7,,,,,,,,,6,,,,61,112
75602,control_change,0,0,3,,,,,,,,,2,11,52,,,
75602,control_change,480,0,2,,,,,,,,,1,11,52,,,
75605,note_on,0,0,13,,,,,,,,,12,,,,65,112
75605,note_on,0,0,13,,,,,,,,,12,,,,68,112
75605,note_on,30,0,13,,,,,,,,,12,,,,69,0
75607,note_on,75,0,14,,,,,,,,,13,,,,49,51
75607,control_change,0,0,4,,,,,,,,,3,11,52,,,
75607,note_on,1205,0,4,,,,,,,,,3,,,,61,100
75609,note_on,75,0,15,,,,,,,,,14,,,,37,51
75625,control_change,24,0,1,,,,,,,,,0,11,54,,,
75626,control_change,24,0,2,,,,,,,,,1,11,54,,,
75626,control_change,24,0,3,,,,,,,,,2,11,54,,,
75627,note_on,55,0,12,,,,,,,,,11,,,,73,0
75630,note_on,23,0,14,,,,,,,,,13,,,,49,0
75631,control_change,24,0,4,,,,,,,,,3,11,54,,,
75632,note_on,5,0,12,,,,,,,,,11,,,,73,112
75633,note_on,0,0,13,,,,,,,,,12,,,,68,0
75633,note_on,28,0,13,,,,,,,,,12,,,,65,0
75635,note_on,2,0,13,,,,,,,,,12,,,,65,112
75635,note_on,0,0,13,,,,,,,,,12,,,,68,112
75637,note_on,7,0,14,,,,,,,,,13,,,,53,51
75645,note_on,45,0,11,,,,,,,,,10,,,,85,0
75649,control_change,24,0,1,,,,,,,,,0,11,56,,,
75650,control_change,24,0,2,,,,,,,,,1,11,56,,,
75650,control_change,24,0,3,,,,,,,,,2,11,56,,,
75655,control_change,24,0,4,,,,,,,,,3,11,56,,,
75657,note_on,55,0,7,,,,,,,,,6,,,,61,0
75660,note_on,23,0,14,,,,,,,,,13,,,,53,0
75660,set_tempo,60,1,0,,,,,,1111111,,,,,,,,
75662,note_on,12,0,3,,,,,,,,,2,,,,68,101
75662,note_on,0,0,3,,,,,,,,,2,,,,65,101
75667,note_on,7,0,14,,,,,,,,,13,,,,56,51
75669,note_on,60,0,15,,,,,,,,,14,,,,37,0
75673,control_change,24,0,1,,,,,,,,,0,11,57,,,
75674,control_change,24,0,2,,,,,,,,,1,11,57,,,
75674,control_change,12,0,3,,,,,,,,,2,11,57,,,
75679,control_change,24,0,4,,,,,,,,,3,11,58,,,
75687,note_on,55,0,12,,,,,,,,,11,,,,73,0
75690,note_on,23,0,14,,,,,,,,,13,,,,56,0
75690,note_on,0,0,13,,,,,,,,,12,,,,65,0
75690,note_on,55,0,13,,,,,,,,,12,,,,68,0
75692,note_on,5,0,12,,,,,,,,,11,,,,73,112
75695,note_on,5,0,13,,,,,,,,,12,,,,65,112
75695,note_on,0,0,13,,,,,,,,,12,,,,68,112
75697,control_change,24,0,1,,,,,,,,,0,11,59,,,
75697,note_on,7,0,14,,,,,,,,,13,,,,61,51
75698,control_change,24,0,2,,,,,,,,,1,11,59,,,
75698,control_change,24,0,3,,,,,,,,,2,11,59,,,
75703,control_change,24,0,4,,,,,,,,,3,11,60,,,
75720,set_tempo,60,1,0,,,,,,1188119,,,,,,,,
75720,note_on,75,0,11,,,,,,,,,10,,,,73,59
75720,note_on,23,0,14,,,,,,,,,13,,,,61,0
75721,control_change,0,0,1,,,,,,,,,0,11,60,,,
75721,note_on,24,0,1,,,,,,,,,0,,,,77,0
75721,note_on,0,0,1,,,,,,,,,0,,,,76,101
75721,note_on,0,0,1,,,,,,,,,0,,,,81,101
75721,note_on,0,0,1,,,,,,,,,0,,,,80,0
75722,control_change,0,0,3,,,,,,,,,2,11,60,,,
75722,note_on,0,0,3,,,,,,,,,2,,,,64,101
75722,note_on,0,0,3,,,,,,,,,2,,,,69,101
75722,note_on,24,0,3,,,,,,,,,2,,,,65,0
75722,control_change,24,0,2,,,,,,,,,1,11,60,,,
75722,note_on,0,0,3,,,,,,,,,2,,,,68,0
75725,note_on,0,0,13,,,,,,,,,12,,,,69,112
75725,note_on,0,0,13,,,,,,,,,12,,,,64,112
75725,note_on,0,0,13,,,,,,,,,12,,,,65,0
75725,note_on,30,0,13,,,,,,,,,12,,,,68,0
75727,control_change,24,0,4,,,,,,,,,3,11,62,,,
75727,note_on,7,0,14,,,,,,,,,13,,,,61,51
75743,note_on,23,0,11,,,,,,,,,10,,,,73,0
75745,control_change,24,0,1,,,,,,,,,0,11,62,,,
75746,control_change,24,0,2,,,,,,,,,1,11,62,,,
75746,control_change,24,0,3,,,,,,,,,2,11,62,,,
75747,note_on,55,0,12,,,,,,,,,11,,,,73,0
75750,note_on,7,0,11,,,,,,,,,10,,,,76,59
75750,note_on,23,0,14,,,,,,,,,13,,,,61,0
75751,control_change,24,0,4,,,,,,,,,3,11,64,,,
75752,note_on,5,0,12,,,,,,,,,11,,,,73,112
75753,note_on,0,0,13,,,,,,,,,12,,,,69,0
75753,note_on,28,0,13,,,,,,,,,12,,,,64,0
75755,note_on,2,0,13,,,,,,,,,12,,,,69,112
75755,note_on,0,0,13,,,,,,,,,12,,,,64,112
75757,note_on,7,0,14,,,,,,,,,13,,,,61,51
75769,control_change,24,0,1,,,,,,,,,0,11,63,,,
75770,control_change,24,0,3,,,,,,,,,2,11,63,,,
75770,control_change,24,0,2,,,,,,,,,1,11,63,,,
75773,note_on,23,0,11,,,,,,,,,10,,,,76,0
75775,control_change,24,0,4,,,,,,,,,3,11,66,,,
75777,note_on,25,0,12,,,,,,,,,11,,,,73,0
75780,set_tempo,60,1,0,,,,,,1111111,,,,,,,,
75780,note_on,23,0,14,,,,,,,,,13,,,,61,0
75780,note_on,7,0,11,,,,,,,,,10,,,,79,59
75781,note_on,0,0,1,,,,,,,,,0,,,,82,101
75781,note_on,12,0,1,,,,,,,,,0,,,,76,0
75781,note_on,0,0,1,,,,,,,,,0,,,,81,0
75781,note_on,0,0,1,,,,,,,,,0,,,,79,101
75782,note_on,0,0,3,,,,,,,,,2,,,,70,101
75782,note_on,12,0,3,,,,,,,,,2,,,,64,0
75782,note_on,0,0,3,,,,,,,,,2,,,,67,101
75782,note_on,12,0,2,,,,,,,,,1,,,,76,100
75782,note_on,0,0,3,,,,,,,,,2,,,,69,0
75782,note_on,5,0,12,,,,,,,,,11,,,,76,112
75785,note_on,0,0,13,,,,,,,,,12,,,,67,112
75785,note_on,30,0,13,,,,,,,,,12,,,,64,0
75785,note_on,0,0,13,,,,,,,,,12,,,,69,0
75785,note_on,0,0,13,,,,,,,,,12,,,,70,112
75787,note_on,0,0,4,,,,,,,,,3,,,,64,100
75787,note_on,12,0,4,,,,,,,,,3,,,,61,0
75787,note_on,7,0,14,,,,,,,,,13,,,,61,51
75789,note_on,120,0,15,,,,,,,,,14,,,,37,51
75793,control_change,12,0,1,,,,,,,,,0,11,65,,,
75794,control_change,12,0,2,,,,,,,,,1,11,65,,,
75794,control_change,12,0,3,,,,,,,,,2,11,65,,,
75799,control_change,12,0,4,,,,,,,,,3,11,68,,,
75803,note_on,23,0,11,,,,,,,,,10,,,,79,0
75810,note_on,23,0,14,,,,,,,,,13,,,,61,0
75810,note_on,7,0,11,,,,,,,,,10,,,,82,59
75810,note_on,28,0,12,,,,,,,,,11,,,,76,0
75812,note_on,2,0,12,,,,,,,,,11,,,,76,112
75813,note_on,28,0,13,,,,,,,,,12,,,,67,0
75813,note_on,0,0,13,,,,,,,,,12,,,,70,0
75815,note_on,2,0,13,,,,,,,,,12,,,,70,112
75815,note_on,0,0,13,,,,,,,,,12,,,,67,112
75817,note_on,7,0,14,,,,,,,,,13,,,,61,51
75817,control_change,24,0,1,,,,,,,,,0,11,66,,,
75818,control_change,24,0,3,,,,,,,,,2,11,66,,,
75818,control_change,24,0,2,,,,,,,,,1,11,66,,,
75823,control_change,24,0,4,,,,,,,,,3,11,70,,,
75833,note_on,23,0,11,,,,,,,,,10,,,,82,0
75836,note_on,0,0,1,,,,,,,,,0,,,,82,0
75836,note_on,19,0,1,,,,,,,,,0,,,,79,0
75837,note_on,19,0,3,,,,,,,,,2,,,,70,0
75837,note_on,0,0,3,,,,,,,,,2,,,,67,0
75840,note_on,7,0,11,,,,,,,,,10,,,,83,59
75840,note_on,23,0,14,,,,,,,,,13,,,,61,0
75840,set_tempo,60,1,0,,,,,,1200000,,,,,,,,
75841,note_on,0,0,1,,,,,,,,,0,,,,83,101
75841,control_change,0,0,1,,,,,,,,,0,11,68,,,
75841,note_on,5,0,1,,,,,,,,,0,,,,78,101
75842,note_on,5,0,3,,,,,,,,,2,,,,71,101
75842,control_change,0,0,3,,,,,,,,,2,11,68,,,
75842,note_on,0,0,3,,,,,,,,,2,,,,66,101
75842,control_change,24,0,2,,,,,,,,,1,11,68,,,
75845,note_on,0,0,13,,,,,,,,,12,,,,66,112
75845,note_on,30,0,13,,,,,,,,,12,,,,67,0
75845,note_on,0,0,13,,,,,,,,,12,,,,70,0
75845,note_on,0,0,13,,,,,,,,,12,,,,71,112
75847,note_on,7,0,14,,,,,,,,,13,,,,62,51
75847,control_change,24,0,4,,,,,,,,,3,11,72,,,
75849,note_on,60,0,15,,,,,,,,,14,,,,37,0
75849,note_on,0,0,15,,,,,,,,,14,,,,38,51
75862,note_on,50,0,12,,,,,,,,,11,,,,76,0
75863,note_on,23,0,11,,,,,,,,,10,,,,83,0
75865,control_change,24,0,1,,,,,,,,,0,11,66,,,
75866,control_change,24,0,2,,,,,,,,,1,11,66,,,
75866,control_change,24,0,3,,,,,,,,,2,11,66,,,
75870,note_on,23,0,14,,,,,,,,,13,,,,62,0
75871,control_change,24,0,4,,,,,,,,,3,11,70,,,
75872,note_on,10,0,12,,,,,,,,,11,,,,76,112
75873,note_on,28,0,13,,,,,,,,,12,,,,66,0
75875,note_on,2,0,13,,,,,,,,,12,,,,66,112
75877,note_on,7,0,14,,,,,,,,,13,,,,61,51
75889,control_change,24,0,1,,,,,,,,,0,11,65,,,
75890,control_change,24,0,3,,,,,,,,,2,11,65,,,
75890,control_change,24,0,2,,,,,,,,,1,11,65,,,
75895,control_change,24,0,4,,,,,,,,,3,11,68,,,
75900,set_tempo,60,1,0,,,,,,1111111,,,,,,,,
75900,note_on,37,0,11,,,,,,,,,10,,,,78,59
75900,note_on,23,0,14,,,,,,,,,13,,,,61,0
75901,note_on,0,0,1,,,,,,,,,0,,,,86,101
75901,note_on,0,0,1,,,,,,,,,0,,,,80,101
75901,note_on,12,0,1,,,,,,,,,0,,,,83,0
75902,note_on,12,0,2,,,,,,,,,1,,,,76,0
75902,note_on,0,0,2,,,,,,,,,1,,,,74,100
75902,note_on,0,0,12,,,,,,,,,11,,,,74,112
75902,note_on,12,0,3,,,,,,,,,2,,,,71,0
75902,note_on,30,0,12,,,,,,,,,11,,,,76,0
75905,note_on,30,0,13,,,,,,,,,12,,,,71,0
75907,note_on,7,0,14,,,,,,,,,13,,,,59,51
75907,note_on,12,0,4,,,,,,,,,3,,,,64,0
75907,note_on,0,0,4,,,,,,,,,3,,,,62,100
75909,note_on,0,0,15,,,,,,,,,14,,,,35,51
75909,note_on,60,0,15,,,,,,,,,14,,,,38,0
75913,control_change,12,0,1,,,,,,,,,0,11,63,,,
75914,control_change,12,0,2,,,,,,,,,1,11,63,,,
75914,control_change,12,0,3,,,,,,,,,2,11,63,,,
75919,control_change,12,0,4,,,,,,,,,3,11,66,,,
75923,note_on,23,0,11,,,,,,,,,10,,,,78,0
75925,note_on,23,0,12,,,,,,,,,11,,,,74,0
75930,note_on,25,0,13,,,,,,,,,12,,,,66,0
75930,note_on,23,0,14,,,,,,,,,13,,,,59,0
75931,note_on,18,0,1,,,,,,,,,0,,,,80,0
75931,note_on,0,0,1,,,,,,,,,0,,,,78,0
75932,note_on,7,0,12,,,,,,,,,11,,,,74,112
75932,note_on,18,0,3,,,,,,,,,2,,,,66,0
75932,note_on,0,0,3,,,,,,,,,2,,,,68,101
75935,note_on,5,0,13,,,,,,,,,12,,,,68,112
75937,control_change,6,0,1,,,,,,,,,0,11,62,,,
75937,note_on,7,0,14,,,,,,,,,13,,,,47,51
75938,control_change,24,0,2,,,,,,,,,1,11,62,,,
75938,control_change,6,0,3,,,,,,,,,2,11,62,,,
75943,control_change,24,0,4,,,,,,,,,3,11,64,,,
75960,note_on,37,0,11,,,,,,,,,10,,,,76,59
75960,set_tempo,60,1,0,,,,,,1188119,,,,,,,,
75960,note_on,23,0,14,,,,,,,,,13,,,,47,0
75961,note_on,0,0,1,,,,,,,,,0,,,,81,101
75961,note_on,24,0,1,,,,,,,,,0,,,,86,0
75961,control_change,0,0,1,,,,,,,,,0,11,60,,,
75961,note_on,0,0,1,,,,,,,,,0,,,,85,101
75962,note_on,0,0,2,,,,,,,,,1,,,,73,100
75962,note_on,0,0,12,,,,,,,,,11,,,,73,112
75962,control_change,0,0,3,,,,,,,,,2,11,60,,,
75962,note_on,0,0,3,,,,,,,,,2,,,,69,101
75962,control_change,0,0,2,,,,,,,,,1,11,60,,,
75962,note_on,24,0,3,,,,,,,,,2,,,,68,0
75962,note_on,24,0,2,,,,,,,,,1,,,,74,0
75962,note_on,30,0,12,,,,,,,,,11,,,,74,0
75965,note_on,30,0,13,,,,,,,,,12,,,,68,0
75965,note_on,0,0,13,,,,,,,,,12,,,,69,112
75967,note_on,0,0,4,,,,,,,,,3,,,,61,100
75967,control_change,0,0,4,,,,,,,,,3,11,62,,,
75967,note_on,24,0,4,,,,,,,,,3,,,,62,0
75967,note_on,7,0,14,,,,,,,,,13,,,,49,51
75969,note_on,0,0,15,,,,,,,,,14,,,,37,51
75969,note_on,60,0,15,,,,,,,,,14,,,,35,0
75983,note_on,23,0,11,,,,,,,,,10,,,,76,0
75985,control_change,24,0,1,,,,,,,,,0,11,59,,,
75986,control_change,24,0,3,,,,,,,,,2,11,59,,,
75986,control_change,24,0,2,,,,,,,,,1,11,59,,,
75990,note_on,23,0,14,,,,,,,,,13,,,,49,0
75991,control_change,24,0,4,,,,,,,,,3,11,60,,,
75992,note_on,30,0,12,,,,,,,,,11,,,,73,0
75993,note_on,28,0,13,,,,,,,,,12,,,,69,0
75995,note_on,2,0,13,,,,,,,,,12,,,,64,112
75997,note_on,7,0,14,,,,,,,,,13,,,,50,51
76009,control_change,24,0,1,,,,,,,,,0,11,57,,,
76010,control_change,24,0,3,,,,,,,,,2,11,57,,,
76010,control_change,24,0,2,,,,,,,,,1,11,57,,,
76015,control_change,24,0,4,,,,,,,,,3,11,58,,,
76020,note_on,23,0,14,,,,,,,,,13,,,,50,0
76020,note_on,37,0,11,,,,,,,,,10,,,,68,59
76020,set_tempo,60,1,0,,,,,,1111111,,,,,,,,
76021,note_on,12,0,1,,,,,,,,,0,,,,81,0
76021,note_on,0,0,1,,,,,,,,,0,,,,85,0
76021,note_on,0,0,1,,,,,,,,,0,,,,80,101
76021,note_on,0,0,1,,,,,,,,,0,,,,83,101
76022,note_on,0,0,2,,,,,,,,,1,,,,71,100
76022,note_on,0,0,3,,,,,,,,,2,,,,68,101
76022,note_on,12,0,2,,,,,,,,,1,,,,73,0
76022,note_on,12,0,3,,,,,,,,,2,,,,69,0
76022,note_on,30,0,12,,,,,,,,,11,,,,71,112
76027,note_on,0,0,4,,,,,,,,,3,,,,64,100
76027,note_on,7,0,14,,,,,,,,,13,,,,52,51
76027,note_on,12,0,4,,,,,,,,,3,,,,61,0
76029,note_on,60,0,15,,,,,,,,,14,,,,37,0
76029,note_on,0,0,15,,,,,,,,,14,,,,40,51
76033,control_change,12,0,1,,,,,,,,,0,11,56,,,
76034,control_change,12,0,2,,,,,,,,,1,11,56,,,
76034,control_change,12,0,3,,,,,,,,,2,11,56,,,
76039,control_change,12,0,4,,,,,,,,,3,11,56,,,
76043,note_on,23,0,11,,,,,,,,,10,,,,68,0
76050,set_tempo,30,1,0,,,,,,1276596,,,,,,,,
76050,note_on,23,0,14,,,,,,,,,13,,,,52,0
76050,note_on,55,0,13,,,,,,,,,12,,,,64,0
76052,note_on,30,0,12,,,,,,,,,11,,,,71,0
76055,note_on,5,0,13,,,,,,,,,12,,,,64,112
76057,note_on,7,0,14,,,,,,,,,13,,,,52,51
76057,control_change,24,0,1,,,,,,,,,0,11,54,,,
76058,control_change,24,0,3,,,,,,,,,2,11,54,,,
76058,control_change,24,0,2,,,,,,,,,1,11,54,,,
76063,control_change,24,0,4,,,,,,,,,3,11,54,,,
76076,note_on,0,0,1,,,,,,,,,0,,,,80,0
76076,note_on,19,0,1,,,,,,,,,0,,,,83,0
76077,note_on,19,0,3,,,,,,,,,2,,,,68,0
76077,note_on,19,0,2,,,,,,,,,1,,,,71,0
76079,program_change,36,0,11,,,,,,,,48,10,,,,,
76080,control_change,1,0,11,,,,,,,,,10,11,31,,,
76080,set_tempo,30,1,0,,,,,,1200000,,,,,,,,
76080,note_on,23,0,14,,,,,,,,,13,,,,52,0
76080,note_on,0,0,11,,,,,,,,,10,,,,81,112
76081,note_on,5,0,1,,,,,,,,,0,,,,81,81
76081,control_change,0,0,1,,,,,,,,,0,11,52,,,
76081,program_change,29,0,12,,,,,,,,45,11,,,,,
76082,note_on,0,0,12,,,,,,,,,11,,,,75,51
76082,note_on,19,0,4,,,,,,,,,3,,,,64,0
76082,control_change,1,0,12,,,,,,,,,11,11,57,,,
76082,note_on,5,0,3,,,,,,,,,2,,,,69,81
76082,control_change,0,0,3,,,,,,,,,2,11,52,,,
76082,note_on,5,0,2,,,,,,,,,1,,,,69,80
76082,control_change,0,0,2,,,,,,,,,1,11,52,,,
76085,note_on,0,0,13,,,,,,,,,12,,,,63,112
76085,note_on,30,0,13,,,,,,,,,12,,,,64,0
76087,control_change,0,0,4,,,,,,,,,3,11,52,,,
76087,note_on,5,0,4,,,,,,,,,3,,,,57,80
76087,note_on,7,0,14,,,,,,,,,13,,,,54,51
76089,note_on,60,0,15,,,,,,,,,14,,,,40,0
76089,note_on,0,0,15,,,,,,,,,14,,,,42,51
76093,control_change,13,0,11,,,,,,,,,10,11,34,,,
76105,note_on,23,0,12,,,,,,,,,11,,,,75,0
76107,control_change,14,0,11,,,,,,,,,10,11,37,,,
76112,note_on,7,0,12,,,,,,,,,11,,,,78,51
76120,control_change,13,0,11,,,,,,,,,10,11,40,,,
76132,note_on,45,0,14,,,,,,,,,13,,,,54,0
76134,note_on,45,0,15,,,,,,,,,14,,,,42,0
76135,note_on,23,0,12,,,,,,,,,11,,,,78,0
76140,note_on,20,0,11,,,,,,,,,10,,,,81,0
76140,set_tempo,60,1,0,,,,,,1132075,,,,,,,,
76140,note_on,0,0,11,,,,,,,,,10,,,,83,112
76141,note_on,60,0,1,,,,,,,,,0,,,,81,0
76142,note_on,7,0,12,,,,,,,,,11,,,,76,51
76142,note_on,60,0,3,,,,,,,,,2,,,,69,0
76142,note_on,60,0,2,,,,,,,,,1,,,,69,0
76145,note_on,60,0,13,,,,,,,,,12,,,,63,0
76145,note_on,0,0,13,,,,,,,,,12,,,,64,112
76147,note_on,60,0,4,,,,,,,,,3,,,,57,0
76147,note_on,15,0,14,,,,,,,,,13,,,,56,51
76149,note_on,15,0,15,,,,,,,,,14,,,,44,51
76165,note_on,23,0,12,,,,,,,,,11,,,,76,0
76172,note_on,7,0,12,,,,,,,,,11,,,,74,51
76192,note_on,45,0,14,,,,,,,,,13,,,,56,0
76194,note_on,45,0,15,,,,,,,,,14,,,,44,0
76195,note_on,23,0,12,,,,,,,,,11,,,,74,0
76200,set_tempo,60,1,0,,,,,,1176471,,,,,,,,
76200,note_on,0,0,11,,,,,,,,,10,,,,80,112
76200,note_on,60,0,11,,,,,,,,,10,,,,83,0
76202,note_on,7,0,12,,,,,,,,,11,,,,73,51
76205,note_on,60,0,13,,,,,,,,,12,,,,64,0
76205,note_on,0,0,13,,,,,,,,,12,,,,68,112
76207,note_on,15,0,14,,,,,,,,,13,,,,53,51
76209,note_on,15,0,15,,,,,,,,,14,,,,41,51
76225,note_on,23,0,12,,,,,,,,,11,,,,73,0
76232,note_on,7,0,12,,,,,,,,,11,,,,71,51
76252,note_on,45,0,14,,,,,,,,,13,,,,53,0
76254,note_on,45,0,15,,,,,,,,,14,,,,41,0
76255,note_on,23,0,12,,,,,,,,,11,,,,71,0
76260,note_on,0,0,11,,,,,,,,,10,,,,81,112
76260,set_tempo,60,1,0,,,,,,1142857,,,,,,,,
76260,note_on,60,0,11,,,,,,,,,10,,,,80,0
76262,note_on,7,0,12,,,,,,,,,11,,,,69,51
76265,note_on,60,0,13,,,,,,,,,12,,,,68,0
76265,note_on,0,0,13,,,,,,,,,12,,,,61,112
76267,note_on,15,0,14,,,,,,,,,13,,,,54,51
76269,note_on,15,0,15,,,,,,,,,14,,,,42,51
76285,note_on,23,0,12,,,,,,,,,11,,,,69,0
76292,note_on,7,0,12,,,,,,,,,11,,,,68,51
76312,note_on,45,0,14,,,,,,,,,13,,,,54,0
76314,note_on,45,0,15,,,,,,,,,14,,,,42,0
76315,note_on,23,0,12,,,,,,,,,11,,,,68,0
76320,note_on,60,0,11,,,,,,,,,10,,,,81,0
76320,set_tempo,60,1,0,,,,,,1237113,,,,,,,,
76322,note_on,180,0,2,,,,,,,,,1,,,,71,100
76322,control_change,0,0,2,,,,,,,,,1,11,32,,,
76322,note_on,7,0,12,,,,,,,,,11,,,,66,59
76324,control_change,2,0,2,,,,,,,,,1,11,35,,,
76325,note_on,60,0,13,,,,,,,,,12,,,,61,0
76326,control_change,2,0,2,,,,,,,,,1,11,38,,,
76327,note_on,15,0,14,,,,,,,,,13,,,,50,59
76329,control_change,3,0,2,,,,,,,,,1,11,42,,,
76329,note_on,15,0,15,,,,,,,,,14,,,,38,59
76332,control_change,3,0,2,,,,,,,,,1,11,46,,,
76335,control_change,3,0,2,,,,,,,,,1,11,50,,,
76345,note_on,23,0,12,,,,,,,,,11,,,,66,0
76352,note_on,7,0,12,,,,,,,,,11,,,,69,59
76375,note_on,23,0,12,,,,,,,,,11,,,,69,0
76380,set_tempo,60,1,0,,,,,,1142857,,,,,,,,
76382,note_on,7,0,12,,,,,,,,,11,,,,68,59
76382,note_on,47,0,2,,,,,,,,,1,,,,71,0
76382,note_on,0,0,2,,,,,,,,,1,,,,78,100
76387,note_on,60,0,14,,,,,,,,,13,,,,50,0
76389,note_on,60,0,15,,,,,,,,,14,,,,38,0
76405,note_on,23,0,12,,,,,,,,,11,,,,68,0
76412,note_on,7,0,12,,,,,,,,,11,,,,66,59
76435,note_on,23,0,12,,,,,,,,,11,,,,66,0
76440,set_tempo,60,1,0,,,,,,1212121,,,,,,,,
76442,note_on,7,0,12,,,,,,,,,11,,,,68,59
76447,note_on,60,0,14,,,,,,,,,13,,,,52,59
76449,note_on,60,0,15,,,,,,,,,14,,,,40,59
76465,note_on,23,0,12,,,,,,,,,11,,,,68,0
76472,note_on,0,0,2,,,,,,,,,1,,,,76,100
76472,note_on,90,0,2,,,,,,,,,1,,,,78,0
76472,note_on,7,0,12,,,,,,,,,11,,,,71,59
76495,note_on,23,0,12,,,,,,,,,11,,,,71,0
76500,set_tempo,60,1,0,,,,,,1142857,,,,,,,,
76502,note_on,0,0,2,,,,,,,,,1,,,,74,100
76502,note_on,30,0,2,,,,,,,,,1,,,,76,0
76502,note_on,7,0,12,,,,,,,,,11,,,,68,59
76507,note_on,60,0,14,,,,,,,,,13,,,,52,0
76509,note_on,60,0,15,,,,,,,,,14,,,,40,0
76525,note_on,23,0,12,,,,,,,,,11,,,,68,0
76530,set_tempo,30,1,0,,,,,,1348315,,,,,,,,
76532,note_on,7,0,12,,,,,,,,,11,,,,62,59
76532,note_on,30,0,2,,,,,,,,,1,,,,74,0
76532,note_on,0,0,2,,,,,,,,,1,,,,71,100
76555,note_on,23,0,12,,,,,,,,,11,,,,62,0
76559,program_change,239,0,11,,,,,,,,45,10,,,,,
76560,control_change,1,0,11,,,,,,,,,10,11,57,,,
76560,note_on,0,0,11,,,,,,,,,10,,,,69,59
76560,set_tempo,30,1,0,,,,,,1250000,,,,,,,,
76561,note_on,0,0,5,,,,,,,,,4,,,,64,100
76561,control_change,3370,0,5,,,,,,,,,4,11,52,,,
76561,control_change,420,0,1,,,,,,,,,0,11,52,,,
76562,note_on,0,0,2,,,,,,,,,1,,,,69,100
76562,control_change,0,0,2,,,,,,,,,1,11,52,,,
76562,control_change,420,0,3,,,,,,,,,2,11,52,,,
76562,note_on,30,0,2,,,,,,,,,1,,,,71,0
76562,note_on,0,0,3,,,,,,,,,2,,,,73,101
76562,note_on,7,0,12,,,,,,,,,11,,,,61,59
76567,control_change,0,0,4,,,,,,,,,3,11,52,,,
76567,note_on,60,0,14,,,,,,,,,13,,,,45,59
76567,note_on,420,0,4,,,,,,,,,3,,,,57,100
76569,note_on,60,0,15,,,,,,,,,14,,,,33,59
76583,note_on,23,0,11,,,,,,,,,10,,,,69,0
76590,note_on,7,0,11,,,,,,,,,10,,,,73,59
76613,note_on,23,0,11,,,,,,,,,10,,,,73,0
76620,note_on,7,0,11,,,,,,,,,10,,,,74,59
76620,set_tempo,60,1,0,,,,,,1176471,,,,,,,,
76622,note_on,60,0,2,,,,,,,,,1,,,,69,0
76622,note_on,60,0,12,,,,,,,,,11,,,,61,0
76627,note_on,60,0,14,,,,,,,,,13,,,,45,0
76629,note_on,60,0,15,,,,,,,,,14,,,,33,0
76643,note_on,23,0,11,,,,,,,,,10,,,,74,0
76650,note_on,7,0,11,,,,,,,,,10,,,,76,59
76657,control_change,96,0,5,,,,,,,,,4,11,51,,,
76657,control_change,96,0,1,,,,,,,,,0,11,51,,,
76658,control_change,36,0,2,,,,,,,,,1,11,51,,,
76658,control_change,96,0,3,,,,,,,,,2,11,51,,,
76663,control_change,96,0,4,,,,,,,,,3,11,51,,,
76673,note_on,23,0,11,,,,,,,,,10,,,,76,0
76680,set_tempo,60,1,0,,,,,,1224490,,,,,,,,
76680,note_on,7,0,11,,,,,,,,,10,,,,76,59
76682,note_on,0,0,3,,,,,,,,,2,,,,71,101
76682,note_on,24,0,3,,,,,,,,,2,,,,73,0
76687,note_on,24,0,4,,,,,,,,,3,,,,57,0
76687,note_on,0,0,4,,,,,,,,,3,,,,56,100
76703,note_on,23,0,11,,,,,,,,,10,,,,76,0
76710,note_on,7,0,11,,,,,,,,,10,,,,80,59
76733,note_on,23,0,11,,,,,,,,,10,,,,80,0
76740,note_on,7,0,11,,,,,,,,,10,,,,81,59
76740,set_tempo,60,1,0,,,,,,1165049,,,,,,,,
76749,note_on,120,0,15,,,,,,,,,14,,,,40,59
76753,control_change,96,0,5,,,,,,,,,4,11,50,,,
76753,control_change,96,0,1,,,,,,,,,0,11,50,,,
76754,control_change,96,0,2,,,,,,,,,1,11,50,,,
76754,control_change,72,0,3,,,,,,,,,2,11,50,,,
76759,control_change,72,0,4,,,,,,,,,3,11,50,,,
76763,note_on,23,0,11,,,,,,,,,10,,,,81,0
76770,note_on,7,0,11,,,,,,,,,10,,,,83,59
76793,note_on,23,0,11,,,,,,,,,10,,,,83,0
76800,set_tempo,60,1,0,,,,,,1250000,,,,,,,,
76800,note_on,7,0,11,,,,,,,,,10,,,,81,59
76801,note_on,48,0,1,,,,,,,,,0,,,,85,101
76801,note_on,0,0,1,,,,,,,,,0,,,,93,101
76801,note_on,0,0,5,,,,,,,,,4,,,,61,100
76801,note_on,48,0,5,,,,,,,,,4,,,,64,0
76802,note_on,0,0,3,,,,,,,,,2,,,,69,101
76802,note_on,48,0,3,,,,,,,,,2,,,,71,0
76802,note_on,48,0,2,,,,,,,,,1,,,,78,100
76807,note_on,180,0,14,,,,,,,,,13,,,,54,59
76807,note_on,0,0,4,,,,,,,,,3,,,,54,100
76807,note_on,48,0,4,,,,,,,,,3,,,,56,0
76809,note_on,60,0,15,,,,,,,,,14,,,,40,0
76809,note_on,0,0,15,,,,,,,,,14,,,,42,59
76830,note_on,23,0,14,,,,,,,,,13,,,,54,0
76837,note_on,7,0,14,,,,,,,,,13,,,,57,59
76849,control_change,48,0,1,,,,,,,,,0,11,49,,,
76849,control_change,48,0,5,,,,,,,,,4,11,49,,,
76850,control_change,48,0,3,,,,,,,,,2,11,49,,,
76850,control_change,48,0,2,,,,,,,,,1,11,49,,,
76855,control_change,48,0,4,,,,,,,,,3,11,49,,,
76860,note_on,23,0,14,,,,,,,,,13,,,,57,0
76860,set_tempo,60,1,0,,,,,,1176471,,,,,,,,
76860,note_on,60,0,11,,,,,,,,,10,,,,81,0
76861,note_on,12,0,5,,,,,,,,,4,,,,61,0
76862,note_on,12,0,3,,,,,,,,,2,,,,69,0
76867,note_on,7,0,14,,,,,,,,,13,,,,59,59
76867,note_on,12,0,4,,,,,,,,,3,,,,54,0
76869,note_on,60,0,15,,,,,,,,,14,,,,42,0
76890,note_on,23,0,14,,,,,,,,,13,,,,59,0
76897,note_on,7,0,14,,,,,,,,,13,,,,61,59
76920,note_on,23,0,14,,,,,,,,,13,,,,61,0
76920,set_tempo,60,1,0,,,,,,1224490,,,,,,,,
76921,note_on,0,0,1,,,,,,,,,0,,,,92,101
76921,note_on,72,0,1,,,,,,,,,0,,,,93,0
76922,note_on,0,0,2,,,,,,,,,1,,,,76,100
76922,note_on,72,0,2,,,,,,,,,1,,,,78,0
76927,note_on,7,0,14,,,,,,,,,13,,,,61,59
76945,control_change,24,0,1,,,,,,,,,0,11,48,,,
76945,control_change,84,0,5,,,,,,,,,4,11,48,,,
76946,control_change,24,0,2,,,,,,,,,1,11,48,,,
76950,note_on,23,0,14,,,,,,,,,13,,,,61,0
76951,control_change,84,0,4,,,,,,,,,3,11,48,,,
76957,note_on,7,0,14,,,,,,,,,13,,,,64,59
76980,note_on,23,0,14,,,,,,,,,13,,,,64,0
76980,set_tempo,60,1,0,,,,,,1165049,,,,,,,,
76987,note_on,7,0,14,,,,,,,,,13,,,,66,59
76989,note_on,120,0,15,,,,,,,,,14,,,,37,59
77010,note_on,23,0,14,,,,,,,,,13,,,,66,0
77017,note_on,7,0,14,,,,,,,,,13,,,,68,59
77040,set_tempo,60,1,0,,,,,,1250000,,,,,,,,
77040,note_on,23,0,14,,,,,,,,,13,,,,68,0
77041,note_on,0,0,1,,,,,,,,,0,,,,85,0
77041,note_on,0,0,1,,,,,,,,,0,,,,90,101
77041,note_on,96,0,1,,,,,,,,,0,,,,92,0
77041,note_on,0,0,1,,,,,,,,,0,,,,81,101
77041,control_change,0,0,1,,,,,,,,,0,11,47,,,
77042,note_on,96,0,2,,,,,,,,,1,,,,76,0
77042,note_on,0,0,2,,,,,,,,,1,,,,74,100
77042,note_on,420,0,12,,,,,,,,,11,,,,62,59
77042,control_change,0,0,2,,,,,,,,,1,11,47,,,
77044,control_change,0,0,8,,,,,,,,,7,11,47,,,
77044,note_on,0,0,8,,,,,,,,,7,,,,66,110
77044,note_on,3370,0,8,,,,,,,,,7,,,,57,110
77046,control_change,2650,0,9,,,,,,,,,8,11,47,,,
77046,note_on,0,0,9,,,,,,,,,8,,,,50,110
77047,note_on,7,0,14,,,,,,,,,13,,,,66,59
77049,note_on,60,0,15,,,,,,,,,14,,,,37,0
77049,note_on,0,0,15,,,,,,,,,14,,,,38,59
77065,note_on,23,0,12,,,,,,,,,11,,,,62,0
77072,note_on,7,0,12,,,,,,,,,11,,,,66,59
77095,note_on,23,0,12,,,,,,,,,11,,,,66,0
77100,set_tempo,60,1,0,,,,,,1176471,,,,,,,,
77101,note_on,60,0,1,,,,,,,,,0,,,,81,0
77101,note_on,0,0,1,,,,,,,,,0,,,,90,0
77102,note_on,7,0,12,,,,,,,,,11,,,,68,59
77102,note_on,60,0,2,,,,,,,,,1,,,,74,0
77107,note_on,60,0,14,,,,,,,,,13,,,,66,0
77109,note_on,60,0,15,,,,,,,,,14,,,,38,0
77125,note_on,23,0,12,,,,,,,,,11,,,,68,0
77132,note_on,7,0,12,,,,,,,,,11,,,,69,59
77140,control_change,96,0,8,,,,,,,,,7,11,46,,,
77142,control_change,96,0,9,,,,,,,,,8,11,46,,,
77155,note_on,23,0,12,,,,,,,,,11,,,,69,0
77160,set_tempo,60,1,0,,,,,,1224490,,,,,,,,
77162,note_on,7,0,12,,,,,,,,,11,,,,69,59
77164,note_on,0,0,8,,,,,,,,,7,,,,64,110
77164,note_on,24,0,8,,,,,,,,,7,,,,66,0
77166,note_on,24,0,9,,,,,,,,,8,,,,50,0
77166,note_on,0,0,9,,,,,,,,,8,,,,48,110
77185,note_on,23,0,12,,,,,,,,,11,,,,69,0
77192,note_on,7,0,12,,,,,,,,,11,,,,72,59
77215,note_on,23,0,12,,,,,,,,,11,,,,72,0
77220,set_tempo,60,1,0,,,,,,1165049,,,,,,,,
77222,note_on,7,0,12,,,,,,,,,11,,,,74,59
77229,note_on,120,0,15,,,,,,,,,14,,,,36,59
77236,control_change,72,0,8,,,,,,,,,7,11,45,,,
77238,control_change,72,0,9,,,,,,,,,8,11,45,,,
77245,note_on,23,0,12,,,,,,,,,11,,,,74,0
77252,note_on,7,0,12,,,,,,,,,11,,,,76,59
77275,note_on,23,0,12,,,,,,,,,11,,,,76,0
77280,note_on,420,0,11,,,,,,,,,10,,,,71,59
77280,set_tempo,60,1,0,,,,,,1250000,,,,,,,,
77282,note_on,7,0,12,,,,,,,,,11,,,,78,59
77284,note_on,0,0,8,,,,,,,,,7,,,,57,117
77284,note_on,0,0,8,,,,,,,,,7,,,,63,117
77284,note_on,0,0,8,,,,,,,,,7,,,,57,0
77284,note_on,48,0,8,,,,,,,,,7,,,,64,0
77286,note_on,48,0,9,,,,,,,,,8,,,,48,0
77286,note_on,0,0,9,,,,,,,,,8,,,,47,117
77289,note_on,60,0,15,,,,,,,,,14,,,,36,0
77303,note_on,23,0,11,,,,,,,,,10,,,,71,0
77310,note_on,7,0,11,,,,,,,,,10,,,,75,59
77332,control_change,48,0,8,,,,,,,,,7,11,44,,,
77333,note_on,23,0,11,,,,,,,,,10,,,,75,0
77334,control_change,48,0,9,,,,,,,,,8,11,44,,,
77340,note_on,7,0,11,,,,,,,,,10,,,,76,59
77340,set_tempo,60,1,0,,,,,,1176471,,,,,,,,
77342,note_on,60,0,12,,,,,,,,,11,,,,78,0
77347,note_on,240,0,14,,,,,,,,,13,,,,47,59
77349,note_on,60,0,15,,,,,,,,,14,,,,35,59
77363,note_on,23,0,11,,,,,,,,,10,,,,76,0
77370,note_on,7,0,11,,,,,,,,,10,,,,78,59
77393,note_on,23,0,11,,,,,,,,,10,,,,78,0
77400,set_tempo,60,1,0,,,,,,1250000,,,,,,,,
77402,control_change,540,0,3,,,,,,,,,2,11,44,,,
77402,note_on,60,0,12,,,,,,,,,11,,,,63,59
77402,note_on,0,0,3,,,,,,,,,2,,,,71,108
77407,note_on,60,0,14,,,,,,,,,13,,,,47,0
77409,note_on,60,0,15,,,,,,,,,14,,,,35,0
77411,control_change,9,0,3,,,,,,,,,2,11,47,,,
77420,control_change,9,0,3,,,,,,,,,2,11,50,,,
77425,note_on,23,0,12,,,,,,,,,11,,,,63,0
77428,control_change,96,0,8,,,,,,,,,7,11,43,,,
77429,control_change,9,0,3,,,,,,,,,2,11,53,,,
77430,control_change,96,0,9,,,,,,,,,8,11,43,,,
77432,note_on,7,0,12,,,,,,,,,11,,,,66,59
77455,note_on,23,0,12,,,,,,,,,11,,,,66,0
77460,set_tempo,60,1,0,,,,,,1188119,,,,,,,,
77462,note_on,7,0,12,,,,,,,,,11,,,,69,59
77485,note_on,23,0,12,,,,,,,,,11,,,,69,0
77492,note_on,7,0,12,,,,,,,,,11,,,,71,59
77515,note_on,23,0,12,,,,,,,,,11,,,,71,0
77517,note_on,89,0,8,,,,,,,,,7,,,,57,0
77517,note_on,0,0,8,,,,,,,,,7,,,,63,0
77519,note_on,89,0,9,,,,,,,,,8,,,,47,0
77520,set_tempo,60,1,0,,,,,,1250000,,,,,,,,
77520,note_on,127,0,11,,,,,,,,,10,,,,71,59
77522,note_on,93,0,3,,,,,,,,,2,,,,71,0
77522,control_change,0,0,3,,,,,,,,,2,11,52,,,
77524,control_change,7,0,8,,,,,,,,,7,11,42,,,
77524,note_on,0,0,8,,,,,,,,,7,,,,57,117
77524,note_on,0,0,8,,,,,,,,,7,,,,63,117
77526,note_on,0,0,9,,,,,,,,,8,,,,47,117
77526,control_change,7,0,9,,,,,,,,,8,11,42,,,
77543,note_on,23,0,11,,,,,,,,,10,,,,71,0
77550,note_on,7,0,11,,,,,,,,,10,,,,75,59
77573,note_on,23,0,11,,,,,,,,,10,,,,75,0
77580,set_tempo,60,1,0,,,,,,1212121,,,,,,,,
77580,note_on,7,0,11,,,,,,,,,10,,,,76,59
77587,note_on,180,0,14,,,,,,,,,13,,,,47,59
77589,note_on,180,0,15,,,,,,,,,14,,,,35,59
77603,note_on,23,0,11,,,,,,,,,10,,,,76,0
77610,note_on,7,0,11,,,,,,,,,10,,,,78,59
77618,control_change,96,0,3,,,,,,,,,2,11,51,,,
77620,control_change,96,0,8,,,,,,,,,7,11,41,,,
77622,control_change,96,0,9,,,,,,,,,8,11,41,,,
77633,note_on,23,0,11,,,,,,,,,10,,,,78,0
77640,set_tempo,60,1,0,,,,,,1263158,,,,,,,,
77642,control_change,24,0,3,,,,,,,,,2,11,40,,,
77642,note_on,0,0,3,,,,,,,,,2,,,,71,108
77642,note_on,127,0,12,,,,,,,,,11,,,,63,59
77647,note_on,60,0,14,,,,,,,,,13,,,,47,0
77649,note_on,60,0,15,,,,,,,,,14,,,,35,0
77651,control_change,9,0,3,,,,,,,,,2,11,43,,,
77660,control_change,9,0,3,,,,,,,,,2,11,46,,,
77665,note_on,23,0,12,,,,,,,,,11,,,,63,0
77669,control_change,9,0,3,,,,,,,,,2,11,49,,,
77672,note_on,7,0,12,,,,,,,,,11,,,,66,59
77695,note_on,23,0,12,,,,,,,,,11,,,,66,0
77700,set_tempo,60,1,0,,,,,,1224490,,,,,,,,
77702,note_on,7,0,12,,,,,,,,,11,,,,69,59
77714,control_change,45,0,3,,,,,,,,,2,11,50,,,
77716,control_change,96,0,8,,,,,,,,,7,11,40,,,
77718,control_change,96,0,9,,,,,,,,,8,11,40,,,
77725,note_on,23,0,12,,,,,,,,,11,,,,69,0
77732,note_on,7,0,12,,,,,,,,,11,,,,71,59
77755,note_on,23,0,12,,,,,,,,,11,,,,71,0
77757,note_on,41,0,8,,,,,,,,,7,,,,63,0
77757,note_on,0,0,8,,,,,,,,,7,,,,57,0
77759,note_on,41,0,9,,,,,,,,,8,,,,47,0
77760,note_on,127,0,11,,,,,,,,,10,,,,71,59
77760,set_tempo,60,1,0,,,,,,1250000,,,,,,,,
77761,control_change,0,0,5,,,,,,,,,4,11,40,,,
77761,note_on,816,0,5,,,,,,,,,4,,,,66,107
77762,note_on,48,0,3,,,,,,,,,2,,,,71,0
77764,note_on,7,0,8,,,,,,,,,7,,,,56,117
77764,note_on,0,0,8,,,,,,,,,7,,,,62,117
77766,note_on,7,0,9,,,,,,,,,8,,,,52,117
77783,note_on,23,0,11,,,,,,,,,10,,,,71,0
77790,note_on,7,0,11,,,,,,,,,10,,,,74,59
77809,control_change,48,0,5,,,,,,,,,4,11,39,,,
77810,control_change,48,0,3,,,,,,,,,2,11,49,,,
77812,control_change,48,0,8,,,,,,,,,7,11,39,,,
77813,note_on,23,0,11,,,,,,,,,10,,,,74,0
77814,control_change,48,0,9,,,,,,,,,8,11,39,,,
77820,note_on,7,0,11,,,,,,,,,10,,,,76,58
77820,set_tempo,60,1,0,,,,,,1224490,,,,,,,,
77824,program_change,1499,0,13,,,,,,,,45,12,,,,,
77825,control_change,1,0,13,,,,,,,,,12,11,57,,,
77825,note_on,0,0,13,,,,,,,,,12,,,,52,58
77827,note_on,180,0,14,,,,,,,,,13,,,,40,58
77829,note_on,180,0,15,,,,,,,,,14,,,,40,58
77843,note_on,23,0,11,,,,,,,,,10,,,,76,0
77850,note_on,7,0,11,,,,,,,,,10,,,,77,57
77873,note_on,23,0,11,,,,,,,,,10,,,,77,0
77880,set_tempo,60,1,0,,,,,,1263158,,,,,,,,
77882,note_on,0,0,3,,,,,,,,,2,,,,71,108
77882,control_change,72,0,3,,,,,,,,,2,11,38,,,
77882,note_on,127,0,12,,,,,,,,,11,,,,62,56
77885,note_on,60,0,13,,,,,,,,,12,,,,52,0
77887,note_on,60,0,14,,,,,,,,,13,,,,40,0
77889,note_on,60,0,15,,,,,,,,,14,,,,40,0
77891,control_change,9,0,3,,,,,,,,,2,11,41,,,
77900,control_change,9,0,3,,,,,,,,,2,11,44,,,
77905,control_change,96,0,5,,,,,,,,,4,11,38,,,
77905,note_on,23,0,12,,,,,,,,,11,,,,62,0
77908,control_change,96,0,8,,,,,,,,,7,11,38,,,
77909,control_change,9,0,3,,,,,,,,,2,11,47,,,
77910,control_change,96,0,9,,,,,,,,,8,11,38,,,
77912,note_on,7,0,12,,,,,,,,,11,,,,65,55
77935,note_on,23,0,12,,,,,,,,,11,,,,65,0
77940,set_tempo,60,1,0,,,,,,1224490,,,,,,,,
77942,note_on,7,0,12,,,,,,,,,11,,,,68,54
77965,note_on,23,0,12,,,,,,,,,11,,,,68,0
77972,note_on,7,0,12,,,,,,,,,11,,,,71,54
77994,note_on,89,0,5,,,,,,,,,4,,,,66,0
77995,note_on,23,0,12,,,,,,,,,11,,,,71,0
77997,note_on,89,0,8,,,,,,,,,7,,,,62,0
77997,note_on,0,0,8,,,,,,,,,7,,,,56,0
77999,note_on,89,0,9,,,,,,,,,8,,,,52,0
78000,note_on,127,0,11,,,,,,,,,10,,,,71,53
78000,set_tempo,60,1,0,,,,,,1263158,,,,,,,,
78001,control_change,0,0,5,,,,,,,,,4,11,37,,,
78001,note_on,7,0,5,,,,,,,,,4,,,,66,107
78002,note_on,93,0,3,,,,,,,,,2,,,,71,0
78002,control_change,0,0,3,,,,,,,,,2,11,47,,,
78004,note_on,0,0,8,,,,,,,,,7,,,,56,117
78004,note_on,0,0,8,,,,,,,,,7,,,,62,117
78004,control_change,7,0,8,,,,,,,,,7,11,37,,,
78006,control_change,0,0,9,,,,,,,,,8,11,37,,,
78006,note_on,7,0,9,,,,,,,,,8,,,,52,117
78023,note_on,23,0,11,,,,,,,,,10,,,,71,0
78030,note_on,7,0,11,,,,,,,,,10,,,,74,52
78053,note_on,23,0,11,,,,,,,,,10,,,,74,0
78060,set_tempo,60,1,0,,,,,,1224490,,,,,,,,
78060,note_on,7,0,11,,,,,,,,,10,,,,76,51
78065,note_on,180,0,13,,,,,,,,,12,,,,52,51
78067,note_on,180,0,14,,,,,,,,,13,,,,40,51
78069,note_on,180,0,15,,,,,,,,,14,,,,40,51
78083,note_on,23,0,11,,,,,,,,,10,,,,76,0
78090,note_on,7,0,11,,,,,,,,,10,,,,77,50
78113,note_on,23,0,11,,,,,,,,,10,,,,77,0
78120,set_tempo,60,1,0,,,,,,1263158,,,,,,,,
78122,control_change,120,0,3,,,,,,,,,2,11,37,,,
78122,note_on,0,0,3,,,,,,,,,2,,,,71,108
78122,note_on,127,0,12,,,,,,,,,11,,,,62,49
78125,note_on,60,0,13,,,,,,,,,12,,,,52,0
78127,note_on,60,0,14,,,,,,,,,13,,,,40,0
78129,note_on,60,0,15,,,,,,,,,14,,,,40,0
78131,control_change,9,0,3,,,,,,,,,2,11,40,,,
78140,control_change,9,0,3,,,,,,,,,2,11,43,,,
78145,note_on,23,0,12,,,,,,,,,11,,,,62,0
78149,control_change,9,0,3,,,,,,,,,2,11,46,,,
78152,note_on,7,0,12,,,,,,,,,11,,,,65,49
78175,note_on,23,0,12,,,,,,,,,11,,,,65,0
78180,set_tempo,60,1,0,,,,,,1224490,,,,,,,,
78182,note_on,7,0,12,,,,,,,,,11,,,,68,49
78205,note_on,23,0,12,,,,,,,,,11,,,,68,0
78212,note_on,7,0,12,,,,,,,,,11,,,,71,49
78234,note_on,233,0,5,,,,,,,,,4,,,,66,0
78235,note_on,23,0,12,,,,,,,,,11,,,,71,0
78237,note_on,0,0,8,,,,,,,,,7,,,,56,0
78237,note_on,233,0,8,,,,,,,,,7,,,,62,0
78239,note_on,233,0,9,,,,,,,,,8,,,,52,0
78240,note_on,127,0,11,,,,,,,,,10,,,,71,49
78240,set_tempo,60,1,0,,,,,,1263158,,,,,,,,
78241,note_on,7,0,5,,,,,,,,,4,,,,64,107
78242,note_on,93,0,3,,,,,,,,,2,,,,71,0
78244,note_on,0,0,8,,,,,,,,,7,,,,62,117
78244,note_on,7,0,8,,,,,,,,,7,,,,57,117
78246,note_on,7,0,9,,,,,,,,,8,,,,52,117
78263,note_on,23,0,11,,,,,,,,,10,,,,71,0
78270,note_on,7,0,11,,,,,,,,,10,,,,72,49
78293,note_on,23,0,11,,,,,,,,,10,,,,72,0
78300,set_tempo,60,1,0,,,,,,1224490,,,,,,,,
78300,note_on,7,0,11,,,,,,,,,10,,,,74,49
78305,note_on,180,0,13,,,,,,,,,12,,,,52,49
78307,note_on,180,0,14,,,,,,,,,13,,,,40,49
78309,note_on,180,0,15,,,,,,,,,14,,,,40,49
78323,note_on,23,0,11,,,,,,,,,10,,,,74,0
78330,note_on,7,0,11,,,,,,,,,10,,,,76,49
78353,note_on,23,0,11,,,,,,,,,10,,,,76,0
78360,set_tempo,60,1,0,,,,,,1263158,,,,,,,,
78362,note_on,0,0,3,,,,,,,,,2,,,,71,108
78362,control_change,120,0,3,,,,,,,,,2,11,37,,,
78362,note_on,127,0,12,,,,,,,,,11,,,,62,49
78365,note_on,60,0,13,,,,,,,,,12,,,,52,0
78367,note_on,60,0,14,,,,,,,,,13,,,,40,0
78369,note_on,60,0,15,,,,,,,,,14,,,,40,0
78371,control_change,9,0,3,,,,,,,,,2,11,40,,,
78380,control_change,9,0,3,,,,,,,,,2,11,43,,,
78385,note_on,23,0,12,,,,,,,,,11,,,,62,0
78389,control_change,9,0,3,,,,,,,,,2,11,46,,,
78392,note_on,7,0,12,,,,,,,,,11,,,,64,49
78415,note_on,23,0,12,,,,,,,,,11,,,,64,0
78420,set_tempo,60,1,0,,,,,,1224490,,,,,,,,
78422,note_on,7,0,12,,,,,,,,,11,,,,68,49
78445,note_on,23,0,12,,,,,,,,,11,,,,68,0
78452,note_on,7,0,12,,,,,,,,,11,,,,69,49
78474,note_on,233,0,5,,,,,,,,,4,,,,64,0
78475,note_on,23,0,12,,,,,,,,,11,,,,69,0
78477,note_on,0,0,8,,,,,,,,,7,,,,57,0
78477,note_on,233,0,8,,,,,,,,,7,,,,62,0
78479,note_on,233,0,9,,,,,,,,,8,,,,52,0
78480,note_on,127,0,11,,,,,,,,,10,,,,69,49
78480,set_tempo,60,1,0,,,,,,1290323,,,,,,,,
78481,note_on,7,0,5,,,,,,,,,4,,,,64,107
78482,note_on,93,0,3,,,,,,,,,2,,,,71,0
78484,note_on,0,0,8,,,,,,,,,7,,,,60,117
78484,note_on,7,0,8,,,,,,,,,7,,,,57,117
78486,note_on,7,0,9,,,,,,,,,8,,,,52,117
78503,note_on,23,0,11,,,,,,,,,10,,,,69,0
78510,note_on,7,0,11,,,,,,,,,10,,,,72,49
78533,note_on,23,0,11,,,,,,,,,10,,,,72,0
78540,set_tempo,60,1,0,,,,,,1237113,,,,,,,,
78540,note_on,7,0,11,,,,,,,,,10,,,,74,49
78545,note_on,180,0,13,,,,,,,,,12,,,,52,49
78547,note_on,180,0,14,,,,,,,,,13,,,,40,49
78549,note_on,180,0,15,,,,,,,,,14,,,,40,49
78563,note_on,23,0,11,,,,,,,,,10,,,,74,0
78570,note_on,7,0,11,,,,,,,,,10,,,,76,49
78593,note_on,23,0,11,,,,,,,,,10,,,,76,0
78600,set_tempo,60,1,0,,,,,,1290323,,,,,,,,
78602,control_change,120,0,3,,,,,,,,,2,11,37,,,
78602,note_on,0,0,3,,,,,,,,,2,,,,69,108
78602,note_on,127,0,12,,,,,,,,,11,,,,60,49
78605,note_on,60,0,13,,,,,,,,,12,,,,52,0
78607,note_on,60,0,14,,,,,,,,,13,,,,40,0
78609,note_on,60,0,15,,,,,,,,,14,,,,40,0
78611,control_change,9,0,3,,,,,,,,,2,11,40,,,
78620,control_change,9,0,3,,,,,,,,,2,11,43,,,
78625,note_on,23,0,12,,,,,,,,,11,,,,60,0
78629,control_change,9,0,3,,,,,,,,,2,11,46,,,
78632,note_on,7,0,12,,,,,,,,,11,,,,64,49
78655,note_on,23,0,12,,,,,,,,,11,,,,64,0
78660,set_tempo,60,1,0,,,,,,1237113,,,,,,,,
78662,note_on,7,0,12,,,,,,,,,11,,,,68,49
78685,note_on,23,0,12,,,,,,,,,11,,,,68,0
78692,note_on,7,0,12,,,,,,,,,11,,,,69,49
78714,note_on,233,0,5,,,,,,,,,4,,,,64,0
78715,note_on,23,0,12,,,,,,,,,11,,,,69,0
78717,note_on,0,0,8,,,,,,,,,7,,,,57,0
78717,note_on,233,0,8,,,,,,,,,7,,,,60,0
78719,note_on,233,0,9,,,,,,,,,8,,,,52,0
78720,set_tempo,60,1,0,,,,,,1290323,,,,,,,,
78720,note_on,127,0,11,,,,,,,,,10,,,,69,49
78721,note_on,7,0,5,,,,,,,,,4,,,,64,107
78722,note_on,93,0,3,,,,,,,,,2,,,,69,0
78724,note_on,0,0,8,,,,,,,,,7,,,,62,117
78724,note_on,7,0,8,,,,,,,,,7,,,,59,117
78726,note_on,7,0,9,,,,,,,,,8,,,,52,117
78743,note_on,23,0,11,,,,,,,,,10,,,,69,0
78750,note_on,7,0,11,,,,,,,,,10,,,,71,49
78773,note_on,23,0,11,,,,,,,,,10,,,,71,0
78780,set_tempo,60,1,0,,,,,,1250000,,,,,,,,
78780,note_on,7,0,11,,,,,,,,,10,,,,74,49
78785,note_on,180,0,13,,,,,,,,,12,,,,52,49
78787,note_on,180,0,14,,,,,,,,,13,,,,40,49
78789,note_on,180,0,15,,,,,,,,,14,,,,40,49
78803,note_on,23,0,11,,,,,,,,,10,,,,74,0
78810,note_on,7,0,11,,,,,,,,,10,,,,76,49
78833,note_on,23,0,11,,,,,,,,,10,,,,76,0
78840,set_tempo,60,1,0,,,,,,1290323,,,,,,,,
78842,note_on,127,0,12,,,,,,,,,11,,,,59,49
78842,control_change,120,0,3,,,,,,,,,2,11,37,,,
78842,note_on,0,0,3,,,,,,,,,2,,,,69,108
78845,note_on,60,0,13,,,,,,,,,12,,,,52,0
78847,note_on,60,0,14,,,,,,,,,13,,,,40,0
78849,note_on,60,0,15,,,,,,,,,14,,,,40,0
78851,control_change,9,0,3,,,,,,,,,2,11,40,,,
78860,control_change,9,0,3,,,,,,,,,2,11,43,,,
78865,note_on,23,0,12,,,,,,,,,11,,,,59,0
78869,control_change,9,0,3,,,,,,,,,2,11,46,,,
78872,note_on,7,0,12,,,,,,,,,11,,,,62,49
78895,note_on,23,0,12,,,,,,,,,11,,,,62,0
78900,set_tempo,60,1,0,,,,,,1250000,,,,,,,,
78902,note_on,7,0,12,,,,,,,,,11,,,,64,49
78925,note_on,23,0,12,,,,,,,,,11,,,,64,0
78932,note_on,7,0,12,,,,,,,,,11,,,,69,49
78954,note_on,233,0,5,,,,,,,,,4,,,,64,0
78955,note_on,23,0,12,,,,,,,,,11,,,,69,0
78957,note_on,0,0,8,,,,,,,,,7,,,,59,0
78957,note_on,233,0,8,,,,,,,,,7,,,,62,0
78959,note_on,233,0,9,,,,,,,,,8,,,,52,0
78960,set_tempo,60,1,0,,,,,,1290323,,,,,,,,
78960,note_on,127,0,11,,,,,,,,,10,,,,68,49
78961,note_on,7,0,5,,,,,,,,,4,,,,64,107
78962,note_on,93,0,3,,,,,,,,,2,,,,69,0
78964,note_on,7,0,8,,,,,,,,,7,,,,59,117
78964,note_on,0,0,8,,,,,,,,,7,,,,62,117
78966,note_on,7,0,9,,,,,,,,,8,,,,52,117
78983,note_on,23,0,11,,,,,,,,,10,,,,68,0
78990,note_on,7,0,11,,,,,,,,,10,,,,71,49
79013,note_on,23,0,11,,,,,,,,,10,,,,71,0
79020,set_tempo,60,1,0,,,,,,1263158,,,,,,,,
79020,note_on,7,0,11,,,,,,,,,10,,,,75,49
79025,note_on,180,0,13,,,,,,,,,12,,,,52,49
79027,note_on,180,0,14,,,,,,,,,13,,,,40,49
79029,note_on,180,0,15,,,,,,,,,14,,,,40,49
79043,note_on,23,0,11,,,,,,,,,10,,,,75,0
79050,note_on,7,0,11,,,,,,,,,10,,,,76,49
79073,note_on,23,0,11,,,,,,,,,10,,,,76,0
79080,set_tempo,60,1,0,,,,,,1304348,,,,,,,,
79082,note_on,127,0,12,,,,,,,,,11,,,,59,49
79082,control_change,120,0,3,,,,,,,,,2,11,37,,,
79082,note_on,0,0,3,,,,,,,,,2,,,,68,108
79085,note_on,60,0,13,,,,,,,,,12,,,,52,0
79087,note_on,60,0,14,,,,,,,,,13,,,,40,0
79089,note_on,60,0,15,,,,,,,,,14,,,,40,0
79091,control_change,9,0,3,,,,,,,,,2,11,40,,,
79100,control_change,9,0,3,,,,,,,,,2,11,43,,,
79105,note_on,23,0,12,,,,,,,,,11,,,,59,0
79109,control_change,9,0,3,,,,,,,,,2,11,46,,,
79112,note_on,7,0,12,,,,,,,,,11,,,,62,49
79135,note_on,23,0,12,,,,,,,,,11,,,,62,0
79140,set_tempo,60,1,0,,,,,,1224490,,,,,,,,
79142,note_on,7,0,12,,,,,,,,,11,,,,64,49
79165,note_on,23,0,12,,,,,,,,,11,,,,64,0
79170,set_tempo,30,1,0,,,,,,1379310,,,,,,,,
79172,note_on,7,0,12,,,,,,,,,11,,,,68,49
79194,note_on,233,0,5,,,,,,,,,4,,,,64,0
79195,note_on,23,0,12,,,,,,,,,11,,,,68,0
79197,note_on,233,0,8,,,,,,,,,7,,,,62,0
79197,note_on,0,0,8,,,,,,,,,7,,,,59,0
79199,note_on,233,0,9,,,,,,,,,8,,,,52,0
79200,note_on,127,0,11,,,,,,,,,10,,,,69,49
79200,note_on,0,0,11,,,,,,,,,10,,,,60,49
79200,set_tempo,0,1,0,,,,,,1237113,,,,,,,,
79200,key_signature,30,1,0,,,,,C,,,,,,,,,
79201,note_on,0,0,5,,,,,,,,,4,,,,60,100
79201,control_change,7,0,5,,,,,,,,,4,11,37,,,
79202,note_on,2100,0,2,,,,,,,,,1,,,,76,115
79202,note_on,93,0,3,,,,,,,,,2,,,,68,0
79202,note_on,7,0,12,,,,,,,,,11,,,,60,49
79202,note_on,0,0,12,,,,,,,,,11,,,,69,49
79202,note_on,0,0,2,,,,,,,,,1,,,,72,115
79202,note_on,0,0,3,,,,,,,,,2,,,,69,101
79202,control_change,0,0,3,,,,,,,,,2,11,37,,,
79202,control_change,0,0,2,,,,,,,,,1,11,37,,,
79203,control_change,6010,0,6,,,,,,,,,5,11,37,,,
79203,note_on,0,0,6,,,,,,,,,5,,,,57,100
79204,control_change,0,0,8,,,,,,,,,7,11,37,,,
79204,note_on,0,0,8,,,,,,,,,7,,,,60,110
79204,note_on,7,0,8,,,,,,,,,7,,,,57,110
79205,note_on,120,0,13,,,,,,,,,12,,,,52,49
79206,note_on,7,0,9,,,,,,,,,8,,,,45,110
79206,control_change,0,0,9,,,,,,,,,8,11,37,,,
79207,control_change,0,0,4,,,,,,,,,3,11,37,,,
79207,note_on,0,0,4,,,,,,,,,3,,,,57,115
79207,note_on,2256,0,4,,,,,,,,,3,,,,64,115
79207,note_on,120,0,14,,,,,,,,,13,,,,45,49
79209,note_on,120,0,15,,,,,,,,,14,,,,33,49
79210,control_change,9,0,5,,,,,,,,,4,11,40,,,
79211,control_change,9,0,3,,,,,,,,,2,11,40,,,
79211,control_change,9,0,2,,,,,,,,,1,11,40,,,
79212,control_change,9,0,6,,,,,,,,,5,11,40,,,
79216,control_change,9,0,4,,,,,,,,,3,11,40,,,
79219,control_change,9,0,5,,,,,,,,,4,11,43,,,
79220,control_change,9,0,2,,,,,,,,,1,11,43,,,
79220,control_change,9,0,3,,,,,,,,,2,11,43,,,
79221,control_change,9,0,6,,,,,,,,,5,11,43,,,
79225,control_change,9,0,4,,,,,,,,,3,11,43,,,
79228,control_change,9,0,5,,,,,,,,,4,11,46,,,
79229,control_change,9,0,2,,,,,,,,,1,11,46,,,
79229,control_change,9,0,3,,,,,,,,,2,11,46,,,
79230,control_change,9,0,6,,,,,,,,,5,11,46,,,
79234,control_change,9,0,4,,,,,,,,,3,11,46,,,
79260,set_tempo,60,1,0,,,,,,1111111,,,,,,,,
79260,note_on,60,0,11,,,,,,,,,10,,,,60,0
79260,note_on,0,0,11,,,,,,,,,10,,,,69,0
79262,note_on,0,0,12,,,,,,,,,11,,,,60,0
79262,note_on,60,0,12,,,,,,,,,11,,,,69,0
79265,note_on,60,0,13,,,,,,,,,12,,,,52,0
79267,note_on,60,0,14,,,,,,,,,13,,,,45,0
79269,note_on,60,0,15,,,,,,,,,14,,,,33,0
79320,set_tempo,60,1,0,,,,,,1188119,,,,,,,,
79321,note_on,93,0,5,,,,,,,,,4,,,,60,0
79322,note_on,93,0,3,,,,,,,,,2,,,,69,0
79322,note_on,0,0,2,,,,,,,,,1,,,,69,100
79322,note_on,0,0,2,,,,,,,,,1,,,,74,100
79322,note_on,0,0,2,,,,,,,,,1,,,,76,0
79322,note_on,93,0,2,,,,,,,,,1,,,,72,0
79323,note_on,93,0,6,,,,,,,,,5,,,,57,0
79324,note_on,120,0,8,,,,,,,,,7,,,,60,0
79324,note_on,0,0,8,,,,,,,,,7,,,,57,0
79326,note_on,120,0,9,,,,,,,,,8,,,,45,0
79327,note_on,0,0,4,,,,,,,,,3,,,,62,100
79327,note_on,0,0,4,,,,,,,,,3,,,,57,100
79327,note_on,0,0,4,,,,,,,,,3,,,,64,0
79327,note_on,93,0,4,,,,,,,,,3,,,,57,0
79337,note_on,15,0,2,,,,,,,,,1,,,,74,0
79337,note_on,0,0,2,,,,,,,,,1,,,,72,100
79342,note_on,15,0,4,,,,,,,,,3,,,,62,0
79342,note_on,0,0,4,,,,,,,,,3,,,,60,100
79353,note_on,16,0,2,,,,,,,,,1,,,,72,0
79357,note_on,4,0,2,,,,,,,,,1,,,,69,0
79358,note_on,16,0,4,,,,,,,,,3,,,,60,0
79362,note_on,4,0,4,,,,,,,,,3,,,,57,0
79367,note_on,0,0,2,,,,,,,,,1,,,,71,100
79367,note_on,10,0,2,,,,,,,,,1,,,,68,100
79372,note_on,10,0,4,,,,,,,,,3,,,,56,100
79372,note_on,0,0,4,,,,,,,,,3,,,,59,100
79374,note_on,7,0,2,,,,,,,,,1,,,,71,0
79374,note_on,0,0,2,,,,,,,,,1,,,,68,0
79379,note_on,0,0,4,,,,,,,,,3,,,,56,0
79379,note_on,7,0,4,,,,,,,,,3,,,,59,0
79380,set_tempo,60,1,0,,,,,,1111111,,,,,,,,
79382,note_on,8,0,2,,,,,,,,,1,,,,72,100
79382,note_on,0,0,2,,,,,,,,,1,,,,69,100
79387,note_on,8,0,4,,,,,,,,,3,,,,60,100
79387,note_on,0,0,4,,,,,,,,,3,,,,57,100
79412,note_on,30,0,2,,,,,,,,,1,,,,69,0
79412,note_on,0,0,2,,,,,,,,,1,,,,72,0
79417,note_on,30,0,4,,,,,,,,,3,,,,57,0
79417,note_on,0,0,4,,,,,,,,,3,,,,60,0
79427,note_on,0,0,2,,,,,,,,,1,,,,71,100
79427,note_on,15,0,2,,,,,,,,,1,,,,74,100
79432,note_on,0,0,4,,,,,,,,,3,,,,59,100
79432,note_on,15,0,4,,,,,,,,,3,,,,62,100
79434,note_on,0,0,2,,,,,,,,,1,,,,74,0
79434,note_on,7,0,2,,,,,,,,,1,,,,71,0
79439,note_on,0,0,4,,,,,,,,,3,,,,62,0
79439,note_on,7,0,4,,,,,,,,,3,,,,59,0
79440,set_tempo,60,1,0,,,,,,1200000,,,,,,,,
79441,note_on,120,0,5,,,,,,,,,4,,,,64,100
79442,note_on,0,0,2,,,,,,,,,1,,,,72,100
79442,note_on,8,0,2,,,,,,,,,1,,,,76,100
79443,note_on,120,0,6,,,,,,,,,5,,,,57,100
79447,note_on,8,0,4,,,,,,,,,3,,,,64,100
79447,note_on,0,0,4,,,,,,,,,3,,,,60,100
79500,set_tempo,60,1,0,,,,,,1111111,,,,,,,,
79502,note_on,0,0,2,,,,,,,,,1,,,,81,100
79502,note_on,60,0,2,,,,,,,,,1,,,,76,0
79532,note_on,30,0,2,,,,,,,,,1,,,,81,0
79560,set_tempo,60,1,0,,,,,,1188119,,,,,,,,
79561,note_on,0,0,5,,,,,,,,,4,,,,60,100
79561,note_on,120,0,5,,,,,,,,,4,,,,64,0
79562,note_on,30,0,2,,,,,,,,,1,,,,72,0
79562,note_on,0,0,2,,,,,,,,,1,,,,69,100
79562,note_on,0,0,2,,,,,,,,,1,,,,72,100
79563,note_on,120,0,6,,,,,,,,,5,,,,57,0
79563,note_on,0,0,6,,,,,,,,,5,,,,57,100
79567,note_on,120,0,4,,,,,,,,,3,,,,60,0
79567,note_on,0,0,4,,,,,,,,,3,,,,64,0
79567,note_on,0,0,4,,,,,,,,,3,,,,64,100
79567,note_on,0,0,4,,,,,,,,,3,,,,57,100
79591,note_on,30,0,5,,,,,,,,,4,,,,60,0
79592,note_on,0,0,2,,,,,,,,,1,,,,69,0
79592,note_on,30,0,2,,,,,,,,,1,,,,72,0
79593,note_on,30,0,6,,,,,,,,,5,,,,57,0
79597,note_on,30,0,4,,,,,,,,,3,,,,57,0
79597,note_on,0,0,4,,,,,,,,,3,,,,64,0
79620,set_tempo,60,1,0,,,,,,1111111,,,,,,,,
79621,note_on,30,0,5,,,,,,,,,4,,,,67,100
79622,note_on,30,0,2,,,,,,,,,1,,,,71,100
79622,note_on,0,0,2,,,,,,,,,1,,,,74,100
79623,note_on,30,0,6,,,,,,,,,5,,,,55,100
79627,note_on,30,0,4,,,,,,,,,3,,,,65,100
79627,note_on,0,0,4,,,,,,,,,3,,,,55,100
79651,note_on,30,0,5,,,,,,,,,4,,,,67,0
79652,note_on,0,0,2,,,,,,,,,1,,,,71,0
79652,note_on,30,0,2,,,,,,,,,1,,,,74,0
79653,note_on,30,0,6,,,,,,,,,5,,,,55,0
79657,note_on,30,0,4,,,,,,,,,3,,,,55,0
79657,note_on,0,0,4,,,,,,,,,3,,,,65,0
79680,set_tempo,60,1,0,,,,,,1200000,,,,,,,,
79681,note_on,30,0,5,,,,,,,,,4,,,,67,115
79682,note_on,0,0,2,,,,,,,,,1,,,,76,115
79682,note_on,30,0,2,,,,,,,,,1,,,,72,115
79683,note_on,30,0,6,,,,,,,,,5,,,,60,115
79687,note_on,0,0,4,,,,,,,,,3,,,,60,115
79687,note_on,30,0,4,,,,,,,,,3,,,,64,115
79740,set_tempo,60,1,0,,,,,,1111111,,,,,,,,
79796,note_on,115,0,5,,,,,,,,,4,,,,67,0
79797,note_on,115,0,2,,,,,,,,,1,,,,76,0
79797,note_on,0,0,2,,,,,,,,,1,,,,72,0
79798,note_on,115,0,6,,,,,,,,,5,,,,60,0
79799,program_change,539,0,11,,,,,,,,48,10,,,,,
79800,note_on,0,0,11,,,,,,,,,10,,,,76,112
79800,set_tempo,60,1,0,,,,,,1188119,,,,,,,,
79800,control_change,1,0,11,,,,,,,,,10,11,55,,,
79801,program_change,539,0,12,,,,,,,,48,11,,,,,
79801,note_on,5,0,5,,,,,,,,,4,,,,67,100
79802,note_on,0,0,12,,,,,,,,,11,,,,72,112
79802,control_change,1,0,12,,,,,,,,,11,11,55,,,
79802,note_on,115,0,4,,,,,,,,,3,,,,60,0
79802,note_on,0,0,4,,,,,,,,,3,,,,64,0
79802,note_on,5,0,2,,,,,,,,,1,,,,72,100
79802,note_on,0,0,2,,,,,,,,,1,,,,76,100
79803,note_on,5,0,6,,,,,,,,,5,,,,60,100
79804,program_change,539,0,13,,,,,,,,48,12,,,,,
79805,note_on,0,0,13,,,,,,,,,12,,,,67,112
79805,control_change,1,0,13,,,,,,,,,12,11,55,,,
79806,program_change,539,0,14,,,,,,,,48,13,,,,,
79807,note_on,0,0,14,,,,,,,,,13,,,,48,112
79807,control_change,1,0,14,,,,,,,,,13,11,55,,,
79807,note_on,5,0,4,,,,,,,,,3,,,,64,100
79807,note_on,0,0,4,,,,,,,,,3,,,,60,100
79808,program_change,539,0,15,,,,,,,,48,14,,,,,
79809,note_on,0,0,15,,,,,,,,,14,,,,36,112
79809,control_change,1,0,15,,,,,,,,,14,11,55,,,
79816,control_change,16,0,11,,,,,,,,,10,11,57,,,
79818,control_change,16,0,12,,,,,,,,,11,11,57,,,
79821,control_change,16,0,13,,,,,,,,,12,11,57,,,
79823,control_change,16,0,14,,,,,,,,,13,11,57,,,
79825,control_change,16,0,15,,,,,,,,,14,11,57,,,
79830,note_on,14,0,11,,,,,,,,,10,,,,76,0
79831,note_on,30,0,5,,,,,,,,,4,,,,67,0
79832,note_on,14,0,12,,,,,,,,,11,,,,72,0
79832,note_on,0,0,2,,,,,,,,,1,,,,72,0
79832,note_on,30,0,2,,,,,,,,,1,,,,76,0
79832,control_change,2,0,11,,,,,,,,,10,11,58,,,
79833,note_on,30,0,6,,,,,,,,,5,,,,60,0
79834,control_change,2,0,12,,,,,,,,,11,11,58,,,
79835,note_on,14,0,13,,,,,,,,,12,,,,67,0
79837,note_on,30,0,4,,,,,,,,,3,,,,60,0
79837,note_on,0,0,4,,,,,,,,,3,,,,64,0
79837,note_on,14,0,14,,,,,,,,,13,,,,48,0
79837,control_change,2,0,13,,,,,,,,,12,11,58,,,
79839,control_change,2,0,14,,,,,,,,,13,11,58,,,
79839,note_on,14,0,15,,,,,,,,,14,,,,36,0
79841,control_change,2,0,15,,,,,,,,,14,11,58,,,
79848,control_change,16,0,11,,,,,,,,,10,11,60,,,
79850,control_change,16,0,12,,,,,,,,,11,11,60,,,
79853,control_change,16,0,13,,,,,,,,,12,11,60,,,
79855,control_change,16,0,14,,,,,,,,,13,11,60,,,
79857,control_change,16,0,15,,,,,,,,,14,11,60,,,
79860,note_on,12,0,11,,,,,,,,,10,,,,78,112
79860,set_tempo,60,1,0,,,,,,1111111,,,,,,,,
79862,note_on,12,0,12,,,,,,,,,11,,,,75,112
79864,control_change,4,0,11,,,,,,,,,10,11,62,,,
79865,note_on,12,0,13,,,,,,,,,12,,,,71,112
79866,control_change,4,0,12,,,,,,,,,11,11,62,,,
79867,note_on,12,0,14,,,,,,,,,13,,,,47,112
79869,note_on,12,0,15,,,,,,,,,14,,,,35,112
79869,control_change,4,0,13,,,,,,,,,12,11,62,,,
79871,control_change,4,0,14,,,,,,,,,13,11,62,,,
79873,control_change,4,0,15,,,,,,,,,14,11,62,,,
79880,control_change,16,0,11,,,,,,,,,10,11,64,,,
79882,control_change,16,0,12,,,,,,,,,11,11,64,,,
79885,control_change,16,0,13,,,,,,,,,12,11,64,,,
79887,control_change,16,0,14,,,,,,,,,13,11,64,,,
79889,control_change,16,0,15,,,,,,,,,14,11,64,,,
79890,note_on,10,0,11,,,,,,,,,10,,,,78,0
79892,note_on,10,0,12,,,,,,,,,11,,,,75,0
79895,note_on,10,0,13,,,,,,,,,12,,,,71,0
79896,control_change,6,0,11,,,,,,,,,10,11,66,,,
79897,note_on,10,0,14,,,,,,,,,13,,,,47,0
79898,control_change,6,0,12,,,,,,,,,11,11,66,,,
79899,note_on,10,0,15,,,,,,,,,14,,,,35,0
79901,control_change,6,0,13,,,,,,,,,12,11,66,,,
79903,control_change,6,0,14,,,,,,,,,13,11,66,,,
79905,control_change,6,0,15,,,,,,,,,14,11,66,,,
79912,control_change,16,0,11,,,,,,,,,10,11,68,,,
79914,control_change,16,0,12,,,,,,,,,11,11,68,,,
79917,control_change,16,0,13,,,,,,,,,12,11,68,,,
79919,control_change,16,0,14,,,,,,,,,13,11,68,,,
79920,note_on,8,0,11,,,,,,,,,10,,,,71,112
79920,note_on,0,0,11,,,,,,,,,10,,,,79,112
79920,set_tempo,60,1,0,,,,,,1200000,,,,,,,,
79921,control_change,16,0,15,,,,,,,,,14,11,68,,,
79922,note_on,8,0,12,,,,,,,,,11,,,,76,112
79925,note_on,8,0,13,,,,,,,,,12,,,,71,112
79927,note_on,8,0,14,,,,,,,,,13,,,,52,112
79928,control_change,8,0,11,,,,,,,,,10,11,70,,,
79929,note_on,8,0,15,,,,,,,,,14,,,,40,112
79930,control_change,8,0,12,,,,,,,,,11,11,70,,,
79933,control_change,8,0,13,,,,,,,,,12,11,70,,,
79935,control_change,8,0,14,,,,,,,,,13,11,70,,,
79937,control_change,8,0,15,,,,,,,,,14,11,70,,,
79944,control_change,16,0,11,,,,,,,,,10,11,72,,,
79946,control_change,16,0,12,,,,,,,,,11,11,72,,,
79949,control_change,16,0,13,,,,,,,,,12,11,72,,,
79951,control_change,16,0,14,,,,,,,,,13,11,72,,,
79953,control_change,16,0,15,,,,,,,,,14,11,72,,,
79960,control_change,16,0,11,,,,,,,,,10,11,73,,,
79962,control_change,16,0,12,,,,,,,,,11,11,73,,,
79965,control_change,16,0,13,,,,,,,,,12,11,73,,,
79967,control_change,16,0,14,,,,,,,,,13,11,73,,,
79969,control_change,16,0,15,,,,,,,,,14,11,73,,,
79976,control_change,16,0,11,,,,,,,,,10,11,75,,,
79978,control_change,16,0,12,,,,,,,,,11,11,75,,,
79980,set_tempo,60,1,0,,,,,,1111111,,,,,,,,
79981,control_change,16,0,13,,,,,,,,,12,11,75,,,
79983,control_change,16,0,14,,,,,,,,,13,11,75,,,
79985,control_change,16,0,15,,,,,,,,,14,11,75,,,
79992,control_change,16,0,11,,,,,,,,,10,11,77,,,
79994,control_change,16,0,12,,,,,,,,,11,11,77,,,
79997,control_change,16,0,13,,,,,,,,,12,11,77,,,
79999,control_change,16,0,14,,,,,,,,,13,11,77,,,
80001,control_change,16,0,15,,,,,,,,,14,11,77,,,
80008,control_change,16,0,11,,,,,,,,,10,11,79,,,
80010,control_change,16,0,12,,,,,,,,,11,11,79,,,
80013,control_change,16,0,13,,,,,,,,,12,11,79,,,
80015,control_change,16,0,14,,,,,,,,,13,11,79,,,
80017,control_change,16,0,15,,,,,,,,,14,11,79,,,
80019,note_on,11,0,11,,,,,,,,,10,,,,79,0
80019,note_on,0,0,11,,,,,,,,,10,,,,71,0
80021,note_on,11,0,12,,,,,,,,,11,,,,76,0
80024,control_change,5,0,11,,,,,,,,,10,11,81,,,
80024,note_on,11,0,13,,,,,,,,,12,,,,71,0
80026,control_change,5,0,12,,,,,,,,,11,11,81,,,
80026,note_on,11,0,14,,,,,,,,,13,,,,52,0
80028,note_on,11,0,15,,,,,,,,,14,,,,40,0
80029,control_change,5,0,13,,,,,,,,,12,11,81,,,
80031,control_change,5,0,14,,,,,,,,,13,11,81,,,
80033,control_change,5,0,15,,,,,,,,,14,11,81,,,
80040,note_on,0,0,11,,,,,,,,,10,,,,71,112
80040,control_change,0,0,11,,,,,,,,,10,11,83,,,
80040,set_tempo,60,1,0,,,,,,1188119,,,,,,,,
80040,note_on,16,0,11,,,,,,,,,10,,,,79,112
80041,note_on,0,0,1,,,,,,,,,0,,,,76,101
80041,note_on,0,0,1,,,,,,,,,0,,,,79,101
80041,control_change,2940,0,1,,,,,,,,,0,11,75,,,
80041,control_change,0,0,5,,,,,,,,,4,11,82,,,
80041,note_on,210,0,5,,,,,,,,,4,,,,64,100
80042,note_on,0,0,12,,,,,,,,,11,,,,76,112
80042,control_change,0,0,12,,,,,,,,,11,11,83,,,
80042,note_on,210,0,2,,,,,,,,,1,,,,71,100
80042,note_on,0,0,3,,,,,,,,,2,,,,71,101
80042,control_change,0,0,2,,,,,,,,,1,11,75,,,
80042,note_on,0,0,2,,,,,,,,,1,,,,79,100
80042,control_change,720,0,3,,,,,,,,,2,11,75,,,
80042,note_on,16,0,12,,,,,,,,,11,,,,67,112
80042,note_on,0,0,3,,,,,,,,,2,,,,76,101
80043,control_change,0,0,6,,,,,,,,,5,11,82,,,
80043,note_on,210,0,6,,,,,,,,,5,,,,64,100
80045,note_on,16,0,13,,,,,,,,,12,,,,64,112
80045,control_change,0,0,13,,,,,,,,,12,11,83,,,
80046,note_on,0,0,9,,,,,,,,,8,,,,52,110
80046,control_change,720,0,9,,,,,,,,,8,11,82,,,
80047,note_on,0,0,4,,,,,,,,,3,,,,67,100
80047,control_change,0,0,14,,,,,,,,,13,11,83,,,
80047,note_on,16,0,14,,,,,,,,,13,,,,52,112
80047,control_change,210,0,4,,,,,,,,,3,11,82,,,
80047,note_on,0,0,4,,,,,,,,,3,,,,59,100
80049,note_on,16,0,15,,,,,,,,,14,,,,40,112
80049,control_change,0,0,15,,,,,,,,,14,11,83,,,
80070,note_on,0,0,11,,,,,,,,,10,,,,79,0
80070,note_on,30,0,11,,,,,,,,,10,,,,71,0
80071,note_on,0,0,1,,,,,,,,,0,,,,79,0
80071,note_on,30,0,1,,,,,,,,,0,,,,76,0
80071,note_on,30,0,5,,,,,,,,,4,,,,64,0
80072,note_on,0,0,12,,,,,,,,,11,,,,67,0
80072,note_on,30,0,12,,,,,,,,,11,,,,76,0
80072,note_on,30,0,2,,,,,,,,,1,,,,79,0
80072,note_on,0,0,2,,,,,,,,,1,,,,71,0
80072,note_on,0,0,3,,,,,,,,,2,,,,71,0
80072,note_on,30,0,3,,,,,,,,,2,,,,76,0
80073,note_on,30,0,6,,,,,,,,,5,,,,64,0
80075,note_on,30,0,13,,,,,,,,,12,,,,64,0
80076,note_on,30,0,9,,,,,,,,,8,,,,52,0
80077,note_on,30,0,4,,,,,,,,,3,,,,59,0
80077,note_on,30,0,14,,,,,,,,,13,,,,52,0
80077,note_on,0,0,4,,,,,,,,,3,,,,67,0
80079,note_on,30,0,15,,,,,,,,,14,,,,40,0
80100,note_on,0,0,11,,,,,,,,,10,,,,74,112
80100,note_on,30,0,11,,,,,,,,,10,,,,81,112
80100,set_tempo,60,1,0,,,,,,1111111,,,,,,,,
80101,note_on,30,0,5,,,,,,,,,4,,,,62,100
80101,note_on,30,0,1,,,,,,,,,0,,,,81,101
80101,note_on,0,0,1,,,,,,,,,0,,,,78,101
80102,note_on,0,0,2,,,,,,,,,1,,,,81,100
80102,note_on,30,0,2,,,,,,,,,1,,,,74,100
80102,note_on,0,0,12,,,,,,,,,11,,,,78,112
80102,note_on,0,0,3,,,,,,,,,2,,,,78,101
80102,note_on,30,0,3,,,,,,,,,2,,,,74,101
80102,note_on,30,0,12,,,,,,,,,11,,,,69,112
80103,note_on,30,0,6,,,,,,,,,5,,,,62,100
80105,note_on,30,0,13,,,,,,,,,12,,,,62,112
80106,note_on,30,0,9,,,,,,,,,8,,,,50,110
80107,note_on,30,0,14,,,,,,,,,13,,,,50,112
80107,note_on,0,0,4,,,,,,,,,3,,,,66,100
80107,note_on,30,0,4,,,,,,,,,3,,,,69,100
80109,note_on,30,0,15,,,,,,,,,14,,,,38,112
80130,note_on,30,0,11,,,,,,,,,10,,,,74,0
80130,note_on,0,0,11,,,,,,,,,10,,,,81,0
80131,note_on,30,0,5,,,,,,,,,4,,,,62,0
80131,note_on,30,0,1,,,,,,,,,0,,,,78,0
80131,note_on,0,0,1,,,,,,,,,0,,,,81,0
80132,note_on,0,0,2,,,,,,,,,1,,,,74,0
80132,note_on,30,0,2,,,,,,,,,1,,,,81,0
80132,note_on,0,0,12,,,,,,,,,11,,,,69,0
80132,note_on,30,0,3,,,,,,,,,2,,,,78,0
80132,note_on,0,0,3,,,,,,,,,2,,,,74,0
80132,note_on,30,0,12,,,,,,,,,11,,,,78,0
80133,note_on,30,0,6,,,,,,,,,5,,,,62,0
80135,note_on,30,0,13,,,,,,,,,12,,,,62,0
80136,note_on,30,0,9,,,,,,,,,8,,,,50,0
80137,note_on,30,0,14,,,,,,,,,13,,,,50,0
80137,note_on,0,0,4,,,,,,,,,3,,,,69,0
80137,note_on,30,0,4,,,,,,,,,3,,,,66,0
80139,note_on,30,0,15,,,,,,,,,14,,,,38,0
80160,control_change,30,0,11,,,,,,,,,10,11,102,,,
80160,set_tempo,60,1,0,,,,,,1200000,,,,,,,,
80160,note_on,0,0,11,,,,,,,,,10,,,,71,127
80160,note_on,0,0,11,,,,,,,,,10,,,,83,127
80161,control_change,30,0,5,,,,,,,,,4,11,102,,,
80161,control_change,30,0,1,,,,,,,,,0,11,91,,,
80161,note_on,0,0,1,,,,,,,,,0,,,,83,116
80161,note_on,0,0,1,,,,,,,,,0,,,,77,116
80161,note_on,0,0,5,,,,,,,,,4,,,,65,115
80162,note_on,0,0,2,,,,,,,,,1,,,,83,115
80162,control_change,4505,0,7,,,,,,,,,6,11,102,,,
80162,note_on,0,0,7,,,,,,,,,6,,,,71,127
80162,control_change,30,0,12,,,,,,,,,11,11,102,,,
80162,note_on,0,0,2,,,,,,,,,1,,,,74,115
80162,control_change,30,0,3,,,,,,,,,2,11,91,,,
80162,note_on,0,0,3,,,,,,,,,2,,,,77,116
80162,note_on,0,0,3,,,,,,,,,2,,,,74,116
80162,note_on,0,0,12,,,,,,,,,11,,,,77,127
80162,note_on,0,0,12,,,,,,,,,11,,,,74,127
80162,control_change,30,0,2,,,,,,,,,1,11,91,,,
80163,note_on,0,0,6,,,,,,,,,5,,,,62,115
80163,control_change,30,0,6,,,,,,,,,5,11,102,,,
80164,control_change,840,0,8,,,,,,,,,7,11,102,,,
80164,note_on,0,0,8,,,,,,,,,7,,,,56,125
80165,note_on,30,0,13,,,,,,,,,12,,,,56,127
80165,control_change,0,0,13,,,,,,,,,12,11,102,,,
80166,note_on,0,0,9,,,,,,,,,8,,,,44,125
80166,control_change,30,0,9,,,,,,,,,8,11,102,,,
80167,control_change,30,0,14,,,,,,,,,13,11,102,,,
80167,note_on,0,0,14,,,,,,,,,13,,,,56,127
80167,note_on,0,0,4,,,,,,,,,3,,,,62,115
80167,control_change,30,0,4,,,,,,,,,3,11,102,,,
80167,note_on,0,0,4,,,,,,,,,3,,,,65,115
80169,note_on,0,0,15,,,,,,,,,14,,,,44,127
80169,control_change,30,0,15,,,,,,,,,14,11,102,,,
80220,set_tempo,60,1,0,,,,,,1153846,,,,,,,,
80259,note_on,99,0,11,,,,,,,,,10,,,,83,0
80259,note_on,0,0,11,,,,,,,,,10,,,,71,0
80261,note_on,99,0,12,,,,,,,,,11,,,,77,0
80261,note_on,0,0,12,,,,,,,,,11,,,,74,0
80264,note_on,99,0,13,,,,,,,,,12,,,,56,0
80266,note_on,99,0,14,,,,,,,,,13,,,,56,0
80268,note_on,99,0,15,,,,,,,,,14,,,,44,0
80271,note_on,110,0,5,,,,,,,,,4,,,,65,0
80271,note_on,110,0,1,,,,,,,,,0,,,,77,0
80271,note_on,0,0,1,,,,,,,,,0,,,,83,0
80272,note_on,110,0,2,,,,,,,,,1,,,,74,0
80272,note_on,0,0,3,,,,,,,,,2,,,,77,0
80272,note_on,110,0,3,,,,,,,,,2,,,,74,0
80272,note_on,110,0,7,,,,,,,,,6,,,,71,0
80272,note_on,0,0,2,,,,,,,,,1,,,,83,0
80273,note_on,110,0,6,,,,,,,,,5,,,,62,0
80274,note_on,110,0,8,,,,,,,,,7,,,,56,0
80276,note_on,110,0,9,,,,,,,,,8,,,,44,0
80277,note_on,0,0,4,,,,,,,,,3,,,,65,0
80277,note_on,110,0,4,,,,,,,,,3,,,,62,0
80280,set_tempo,60,1,0,,,,,,1188119,,,,,,,,
80280,note_on,21,0,11,,,,,,,,,10,,,,71,127
80280,note_on,0,0,11,,,,,,,,,10,,,,83,127
80281,note_on,0,0,1,,,,,,,,,0,,,,77,116
80281,note_on,10,0,5,,,,,,,,,4,,,,65,115
80281,note_on,10,0,1,,,,,,,,,0,,,,83,116
80282,note_on,0,0,2,,,,,,,,,1,,,,74,115
80282,note_on,10,0,3,,,,,,,,,2,,,,77,116
80282,note_on,0,0,3,,,,,,,,,2,,,,74,116
80282,note_on,21,0,12,,,,,,,,,11,,,,74,127
80282,note_on,0,0,12,,,,,,,,,11,,,,77,127
80282,note_on,10,0,2,,,,,,,,,1,,,,83,115
80282,note_on,10,0,7,,,,,,,,,6,,,,71,127
80283,note_on,10,0,6,,,,,,,,,5,,,,62,115
80284,note_on,10,0,8,,,,,,,,,7,,,,56,125
80285,note_on,21,0,13,,,,,,,,,12,,,,56,127
80286,note_on,10,0,9,,,,,,,,,8,,,,44,125
80287,note_on,0,0,4,,,,,,,,,3,,,,65,115
80287,note_on,21,0,14,,,,,,,,,13,,,,56,127
80287,note_on,10,0,4,,,,,,,,,3,,,,62,115
80289,note_on,21,0,15,,,,,,,,,14,,,,44,127
80340,set_tempo,60,1,0,,,,,,1165049,,,,,,,,
80370,set_tempo,30,1,0,,,,,,1348315,,,,,,,,
80379,note_on,0,0,11,,,,,,,,,10,,,,71,0
80379,note_on,99,0,11,,,,,,,,,10,,,,83,0
80381,note_on,0,0,12,,,,,,,,,11,,,,74,0
80381,note_on,99,0,12,,,,,,,,,11,,,,77,0
80384,note_on,99,0,13,,,,,,,,,12,,,,56,0
80386,note_on,99,0,14,,,,,,,,,13,,,,56,0
80388,note_on,99,0,15,,,,,,,,,14,,,,44,0
80391,note_on,0,0,1,,,,,,,,,0,,,,83,0
80391,note_on,110,0,1,,,,,,,,,0,,,,77,0
80391,note_on,110,0,5,,,,,,,,,4,,,,65,0
80392,note_on,110,0,3,,,,,,,,,2,,,,74,0
80392,note_on,0,0,3,,,,,,,,,2,,,,77,0
80392,note_on,0,0,2,,,,,,,,,1,,,,83,0
80392,note_on,110,0,2,,,,,,,,,1,,,,74,0
80392,note_on,110,0,7,,,,,,,,,6,,,,71,0
80393,note_on,110,0,6,,,,,,,,,5,,,,62,0
80394,note_on,110,0,8,,,,,,,,,7,,,,56,0
80396,note_on,110,0,9,,,,,,,,,8,,,,44,0
80397,note_on,0,0,4,,,,,,,,,3,,,,62,0
80397,note_on,110,0,4,,,,,,,,,3,,,,65,0
80400,set_tempo,30,1,0,,,,,,1200000,,,,,,,,
80402,control_change,10,0,3,,,,,,,,,2,11,47,,,
80402,note_on,0,0,3,,,,,,,,,2,,,,76,101
80402,note_on,0,0,3,,,,,,,,,2,,,,74,101
80407,note_on,0,0,4,,,,,,,,,3,,,,62,115
80407,control_change,10,0,4,,,,,,,,,3,11,47,,,
80407,note_on,0,0,4,,,,,,,,,3,,,,64,115
80460,set_tempo,60,1,0,,,,,,1111111,,,,,,,,
80505,note_on,0,0,3,,,,,,,,,2,,,,74,0
80505,note_on,103,0,3,,,,,,,,,2,,,,76,0
80510,note_on,103,0,4,,,,,,,,,3,,,,64,0
80510,note_on,0,0,4,,,,,,,,,3,,,,62,0
80520,set_tempo,60,1,0,,,,,,1188119,,,,,,,,
80522,note_on,0,0,3,,,,,,,,,2,,,,76,101
80522,note_on,17,0,3,,,,,,,,,2,,,,74,101
80527,note_on,0,0,4,,,,,,,,,3,,,,64,115
80527,note_on,17,0,4,,,,,,,,,3,,,,62,115
80580,set_tempo,60,1,0,,,,,,1111111,,,,,,,,
80610,set_tempo,30,1,0,,,,,,1304348,,,,,,,,
80625,note_on,103,0,3,,,,,,,,,2,,,,76,0
80625,note_on,0,0,3,,,,,,,,,2,,,,74,0
80630,note_on,0,0,4,,,,,,,,,3,,,,62,0
80630,note_on,103,0,4,,,,,,,,,3,,,,64,0
80640,set_tempo,30,1,0,,,,,,1200000,,,,,,,,
80641,note_on,0,0,5,,,,,,,,,4,,,,65,115
80641,control_change,250,0,5,,,,,,,,,4,11,47,,,
80642,control_change,0,0,2,,,,,,,,,1,11,57,,,
80642,note_on,250,0,2,,,,,,,,,1,,,,74,100
80643,note_on,250,0,6,,,,,,,,,5,,,,62,115
80643,control_change,0,0,6,,,,,,,,,5,11,47,,,
80644,control_change,250,0,8,,,,,,,,,7,11,47,,,
80644,note_on,0,0,8,,,,,,,,,7,,,,53,125
80644,note_on,0,0,8,,,,,,,,,7,,,,59,125
80646,note_on,0,0,9,,,,,,,,,8,,,,44,125
80646,control_change,250,0,9,,,,,,,,,8,11,47,,,
80700,set_tempo,60,1,0,,,,,,1111111,,,,,,,,
80751,note_on,110,0,5,,,,,,,,,4,,,,65,0
80753,note_on,110,0,6,,,,,,,,,5,,,,62,0
80754,note_on,0,0,8,,,,,,,,,7,,,,53,0
80754,note_on,110,0,8,,,,,,,,,7,,,,59,0
80756,note_on,110,0,9,,,,,,,,,8,,,,44,0
80760,set_tempo,60,1,0,,,,,,1200000,,,,,,,,
80761,note_on,10,0,5,,,,,,,,,4,,,,65,115
80762,note_on,120,0,2,,,,,,,,,1,,,,74,0
80762,note_on,0,0,2,,,,,,,,,1,,,,77,100
80763,note_on,10,0,6,,,,,,,,,5,,,,62,115
80764,note_on,0,0,8,,,,,,,,,7,,,,59,125
80764,note_on,10,0,8,,,,,,,,,7,,,,53,125
80766,note_on,10,0,9,,,,,,,,,8,,,,44,125
80807,note_on,45,0,2,,,,,,,,,1,,,,77,0
80807,note_on,0,0,2,,,,,,,,,1,,,,76,100
80820,set_tempo,60,1,0,,,,,,1121495,,,,,,,,
80822,note_on,0,0,2,,,,,,,,,1,,,,77,100
80822,note_on,15,0,2,,,,,,,,,1,,,,76,0
80867,note_on,0,0,2,,,,,,,,,1,,,,74,100
80867,note_on,45,0,2,,,,,,,,,1,,,,77,0
80871,note_on,110,0,5,,,,,,,,,4,,,,65,0
80873,note_on,110,0,6,,,,,,,,,5,,,,62,0
80874,note_on,110,0,8,,,,,,,,,7,,,,59,0
80874,note_on,0,0,8,,,,,,,,,7,,,,53,0
80876,note_on,110,0,9,,,,,,,,,8,,,,44,0
80877,note_on,10,0,2,,,,,,,,,1,,,,74,0
80880,note_on,0,0,11,,,,,,,,,10,,,,64,112
80880,control_change,501,0,11,,,,,,,,,10,11,31,,,
80880,set_tempo,60,1,0,,,,,,1212121,,,,,,,,
80881,control_change,490,0,1,,,,,,,,,0,11,57,,,
80881,note_on,0,0,1,,,,,,,,,0,,,,84,101
80882,note_on,5,0,2,,,,,,,,,1,,,,72,100
80882,note_on,0,0,12,,,,,,,,,11,,,,60,112
80882,control_change,501,0,12,,,,,,,,,11,11,31,,,
80885,control_change,501,0,13,,,,,,,,,12,11,31,,,
80885,note_on,0,0,13,,,,,,,,,12,,,,52,112
80887,control_change,501,0,14,,,,,,,,,13,11,31,,,
80887,note_on,0,0,14,,,,,,,,,13,,,,45,112
80889,note_on,0,0,15,,,,,,,,,14,,,,33,112
80889,control_change,501,0,15,,,,,,,,,14,11,31,,,
80889,control_change,9,0,11,,,,,,,,,10,11,34,,,
80891,control_change,9,0,12,,,,,,,,,11,11,34,,,
80894,control_change,9,0,13,,,,,,,,,12,11,34,,,
80896,control_change,9,0,14,,,,,,,,,13,11,34,,,
80898,control_change,9,0,11,,,,,,,,,10,11,37,,,
80898,control_change,9,0,15,,,,,,,,,14,11,34,,,
80900,control_change,9,0,12,,,,,,,,,11,11,37,,,
80903,control_change,9,0,13,,,,,,,,,12,11,37,,,
80905,control_change,9,0,14,,,,,,,,,13,11,37,,,
80907,control_change,9,0,15,,,,,,,,,14,11,37,,,
80907,control_change,9,0,11,,,,,,,,,10,11,40,,,
80909,control_change,9,0,12,,,,,,,,,11,11,40,,,
80912,control_change,9,0,13,,,,,,,,,12,11,40,,,
80914,control_change,9,0,14,,,,,,,,,13,11,40,,,
80916,control_change,9,0,15,,,,,,,,,14,11,40,,,
80940,set_tempo,60,1,0,,,,,,1153846,,,,,,,,
80942,note_on,60,0,2,,,,,,,,,1,,,,72,0
80990,note_on,83,0,11,,,,,,,,,10,,,,64,0
80992,note_on,83,0,12,,,,,,,,,11,,,,60,0
80995,note_on,83,0,13,,,,,,,,,12,,,,52,0
80997,note_on,83,0,14,,,,,,,,,13,,,,45,0
80999,note_on,83,0,15,,,,,,,,,14,,,,33,0
81000,set_tempo,60,1,0,,,,,,1263158,,,,,,,,
81000,note_on,10,0,11,,,,,,,,,10,,,,64,112
81001,note_on,0,0,1,,,,,,,,,0,,,,88,101
81001,note_on,120,0,1,,,,,,,,,0,,,,84,0
81002,note_on,10,0,12,,,,,,,,,11,,,,60,112
81005,note_on,10,0,13,,,,,,,,,12,,,,52,112
81007,note_on,10,0,14,,,,,,,,,13,,,,45,112
81009,note_on,10,0,15,,,,,,,,,14,,,,33,112
81046,note_on,45,0,1,,,,,,,,,0,,,,88,0
81046,note_on,0,0,1,,,,,,,,,0,,,,87,101
81060,set_tempo,60,1,0,,,,,,1165049,,,,,,,,
81061,note_on,0,0,1,,,,,,,,,0,,,,88,101
81061,note_on,15,0,1,,,,,,,,,0,,,,87,0
81106,note_on,0,0,1,,,,,,,,,0,,,,84,101
81106,note_on,45,0,1,,,,,,,,,0,,,,88,0
81110,note_on,110,0,11,,,,,,,,,10,,,,64,0
81112,note_on,110,0,12,,,,,,,,,11,,,,60,0
81115,note_on,110,0,13,,,,,,,,,12,,,,52,0
81116,note_on,10,0,1,,,,,,,,,0,,,,84,0
81117,note_on,110,0,14,,,,,,,,,13,,,,45,0
81119,note_on,110,0,15,,,,,,,,,14,,,,33,0
81120,set_tempo,60,1,0,,,,,,1250000,,,,,,,,
81121,note_on,5,0,1,,,,,,,,,0,,,,83,101
81121,note_on,250,0,5,,,,,,,,,4,,,,65,100
81122,control_change,497,0,3,,,,,,,,,2,11,57,,,
81122,note_on,0,0,3,,,,,,,,,2,,,,71,101
81124,note_on,250,0,8,,,,,,,,,7,,,,59,110
81124,note_on,0,0,8,,,,,,,,,7,,,,57,110
81126,note_on,250,0,9,,,,,,,,,8,,,,50,110
81151,note_on,30,0,1,,,,,,,,,0,,,,83,0
81167,note_on,45,0,3,,,,,,,,,2,,,,71,0
81167,note_on,0,0,3,,,,,,,,,2,,,,74,101
81180,set_tempo,60,1,0,,,,,,1142857,,,,,,,,
81182,note_on,0,0,3,,,,,,,,,2,,,,72,101
81182,note_on,15,0,3,,,,,,,,,2,,,,74,0
81216,note_on,34,0,3,,,,,,,,,2,,,,72,0
81227,note_on,11,0,3,,,,,,,,,2,,,,71,101
81234,note_on,7,0,3,,,,,,,,,2,,,,71,0
81240,set_tempo,60,1,0,,,,,,1237113,,,,,,,,
81240,note_on,0,0,11,,,,,,,,,10,,,,66,97
81240,control_change,130,0,11,,,,,,,,,10,11,31,,,
81241,note_on,120,0,5,,,,,,,,,4,,,,65,0
81242,note_on,0,0,12,,,,,,,,,11,,,,59,97
81242,control_change,130,0,12,,,,,,,,,11,11,31,,,
81242,note_on,8,0,3,,,,,,,,,2,,,,71,101
81244,note_on,120,0,8,,,,,,,,,7,,,,57,0
81244,note_on,0,0,8,,,,,,,,,7,,,,59,0
81245,note_on,0,0,13,,,,,,,,,12,,,,57,97
81245,control_change,130,0,13,,,,,,,,,12,11,31,,,
81246,note_on,120,0,9,,,,,,,,,8,,,,50,0
81247,note_on,0,0,14,,,,,,,,,13,,,,51,97
81247,control_change,130,0,14,,,,,,,,,13,11,31,,,
81249,control_change,130,0,15,,,,,,,,,14,11,31,,,
81249,control_change,9,0,11,,,,,,,,,10,11,34,,,
81249,note_on,0,0,15,,,,,,,,,14,,,,39,97
81251,control_change,9,0,12,,,,,,,,,11,11,34,,,
81254,control_change,9,0,13,,,,,,,,,12,11,34,,,
81256,control_change,9,0,14,,,,,,,,,13,11,34,,,
81258,control_change,9,0,15,,,,,,,,,14,11,34,,,
81258,control_change,9,0,11,,,,,,,,,10,11,37,,,
81260,control_change,9,0,12,,,,,,,,,11,11,37,,,
81263,control_change,9,0,13,,,,,,,,,12,11,37,,,
81265,control_change,9,0,14,,,,,,,,,13,11,37,,,
81267,control_change,9,0,11,,,,,,,,,10,11,40,,,
81267,control_change,9,0,15,,,,,,,,,14,11,37,,,
81269,control_change,9,0,12,,,,,,,,,11,11,40,,,
81272,control_change,9,0,13,,,,,,,,,12,11,40,,,
81274,control_change,9,0,14,,,,,,,,,13,11,40,,,
81276,control_change,9,0,15,,,,,,,,,14,11,40,,,
81287,note_on,45,0,3,,,,,,,,,2,,,,71,0
81287,note_on,0,0,3,,,,,,,,,2,,,,74,101
81300,set_tempo,60,1,0,,,,,,1153846,,,,,,,,
81302,note_on,15,0,3,,,,,,,,,2,,,,74,0
81302,note_on,0,0,3,,,,,,,,,2,,,,72,101
81336,note_on,34,0,3,,,,,,,,,2,,,,72,0
81347,note_on,11,0,3,,,,,,,,,2,,,,71,101
81354,note_on,7,0,3,,,,,,,,,2,,,,71,0
81360,set_tempo,60,1,0,,,,,,1250000,,,,,,,,
81360,note_on,93,0,11,,,,,,,,,10,,,,66,0
81361,note_on,120,0,5,,,,,,,,,4,,,,64,100
81362,control_change,8,0,3,,,,,,,,,2,11,57,,,
81362,note_on,0,0,3,,,,,,,,,2,,,,71,101
81362,note_on,93,0,12,,,,,,,,,11,,,,59,0
81364,note_on,0,0,8,,,,,,,,,7,,,,57,110
81364,note_on,120,0,8,,,,,,,,,7,,,,59,110
81365,note_on,93,0,13,,,,,,,,,12,,,,57,0
81366,note_on,120,0,9,,,,,,,,,8,,,,52,110
81367,note_on,93,0,14,,,,,,,,,13,,,,51,0
81369,note_on,93,0,15,,,,,,,,,14,,,,39,0
81407,note_on,45,0,3,,,,,,,,,2,,,,71,0
81407,note_on,0,0,3,,,,,,,,,2,,,,74,101
81409,control_change,2,0,3,,,,,,,,,2,11,56,,,
81420,set_tempo,60,1,0,,,,,,1142857,,,,,,,,
81422,note_on,0,0,3,,,,,,,,,2,,,,72,101
81422,note_on,13,0,3,,,,,,,,,2,,,,74,0
81456,note_on,34,0,3,,,,,,,,,2,,,,72,0
81457,control_change,1,0,3,,,,,,,,,2,11,55,,,
81467,note_on,10,0,3,,,,,,,,,2,,,,71,101
81474,note_on,7,0,3,,,,,,,,,2,,,,71,0
81480,note_on,0,0,11,,,,,,,,,10,,,,63,97
81480,set_tempo,60,1,0,,,,,,1237113,,,,,,,,
81480,control_change,120,0,11,,,,,,,,,10,11,31,,,
81481,note_on,120,0,5,,,,,,,,,4,,,,64,0
81482,control_change,120,0,12,,,,,,,,,11,11,31,,,
81482,note_on,8,0,3,,,,,,,,,2,,,,71,101
81482,note_on,0,0,12,,,,,,,,,11,,,,59,97
81484,note_on,0,0,8,,,,,,,,,7,,,,59,0
81484,note_on,120,0,8,,,,,,,,,7,,,,57,0
81485,control_change,0,0,13,,,,,,,,,12,11,31,,,
81485,note_on,120,0,13,,,,,,,,,12,,,,57,97
81486,note_on,120,0,9,,,,,,,,,8,,,,52,0
81487,note_on,0,0,14,,,,,,,,,13,,,,53,97
81487,control_change,120,0,14,,,,,,,,,13,11,31,,,
81489,control_change,120,0,15,,,,,,,,,14,11,31,,,
81489,note_on,0,0,15,,,,,,,,,14,,,,41,97
81489,control_change,9,0,11,,,,,,,,,10,11,34,,,
81491,control_change,9,0,12,,,,,,,,,11,11,34,,,
81494,control_change,9,0,13,,,,,,,,,12,11,34,,,
81496,control_change,9,0,14,,,,,,,,,13,11,34,,,
81498,control_change,9,0,11,,,,,,,,,10,11,37,,,
81498,control_change,9,0,15,,,,,,,,,14,11,34,,,
81500,control_change,9,0,12,,,,,,,,,11,11,37,,,
81503,control_change,9,0,13,,,,,,,,,12,11,37,,,
81505,control_change,23,0,3,,,,,,,,,2,11,54,,,
81505,control_change,9,0,14,,,,,,,,,13,11,37,,,
81507,control_change,9,0,11,,,,,,,,,10,11,40,,,
81507,control_change,9,0,15,,,,,,,,,14,11,37,,,
81509,control_change,9,0,12,,,,,,,,,11,11,40,,,
81512,control_change,9,0,13,,,,,,,,,12,11,40,,,
81514,control_change,9,0,14,,,,,,,,,13,11,40,,,
81516,control_change,9,0,15,,,,,,,,,14,11,40,,,
81527,note_on,0,0,3,,,,,,,,,2,,,,74,101
81527,note_on,22,0,3,,,,,,,,,2,,,,71,0
81540,set_tempo,60,1,0,,,,,,1153846,,,,,,,,
81542,note_on,15,0,3,,,,,,,,,2,,,,74,0
81542,note_on,0,0,3,,,,,,,,,2,,,,72,101
81553,control_change,11,0,3,,,,,,,,,2,11,53,,,
81576,note_on,23,0,3,,,,,,,,,2,,,,72,0
81587,note_on,11,0,3,,,,,,,,,2,,,,71,101
81594,note_on,7,0,3,,,,,,,,,2,,,,71,0
81600,note_on,93,0,11,,,,,,,,,10,,,,63,0
81600,set_tempo,60,1,0,,,,,,1250000,,,,,,,,
81601,control_change,7,0,3,,,,,,,,,2,11,52,,,
81602,note_on,1,0,3,,,,,,,,,2,,,,71,101
81602,note_on,93,0,12,,,,,,,,,11,,,,59,0
81604,note_on,120,0,8,,,,,,,,,7,,,,59,110
81604,note_on,0,0,8,,,,,,,,,7,,,,57,110
81605,note_on,93,0,13,,,,,,,,,12,,,,57,0
81606,note_on,120,0,9,,,,,,,,,8,,,,54,110
81607,note_on,93,0,14,,,,,,,,,13,,,,53,0
81607,control_change,977,0,4,,,,,,,,,3,11,47,,,
81607,note_on,0,0,4,,,,,,,,,3,,,,63,100
81609,note_on,93,0,15,,,,,,,,,14,,,,41,0
81647,note_on,0,0,3,,,,,,,,,2,,,,74,101
81647,note_on,45,0,3,,,,,,,,,2,,,,71,0
81649,control_change,2,0,3,,,,,,,,,2,11,51,,,
81655,control_change,48,0,4,,,,,,,,,3,11,46,,,
81660,set_tempo,60,1,0,,,,,,1200000,,,,,,,,
81662,note_on,0,0,3,,,,,,,,,2,,,,72,101
81662,note_on,13,0,3,,,,,,,,,2,,,,74,0
81696,note_on,34,0,3,,,,,,,,,2,,,,72,0
81697,control_change,1,0,3,,,,,,,,,2,11,50,,,
81703,control_change,48,0,4,,,,,,,,,3,11,45,,,
81707,note_on,10,0,3,,,,,,,,,2,,,,71,101
81714,note_on,7,0,3,,,,,,,,,2,,,,71,0
81720,note_on,0,0,11,,,,,,,,,10,,,,63,97
81720,control_change,120,0,11,,,,,,,,,10,11,31,,,
81720,set_tempo,60,1,0,,,,,,1237113,,,,,,,,
81722,control_change,120,0,12,,,,,,,,,11,11,31,,,
81722,note_on,8,0,3,,,,,,,,,2,,,,71,101
81722,note_on,0,0,12,,,,,,,,,11,,,,59,97
81724,note_on,120,0,8,,,,,,,,,7,,,,57,0
81724,note_on,0,0,8,,,,,,,,,7,,,,59,0
81725,note_on,120,0,13,,,,,,,,,12,,,,57,97
81725,control_change,0,0,13,,,,,,,,,12,11,31,,,
81726,note_on,120,0,9,,,,,,,,,8,,,,54,0
81727,note_on,24,0,4,,,,,,,,,3,,,,63,0
81727,control_change,120,0,14,,,,,,,,,13,11,31,,,
81727,note_on,0,0,14,,,,,,,,,13,,,,54,97
81729,control_change,120,0,15,,,,,,,,,14,11,31,,,
81729,control_change,9,0,11,,,,,,,,,10,11,34,,,
81729,note_on,0,0,15,,,,,,,,,14,,,,42,97
81731,control_change,9,0,12,,,,,,,,,11,11,34,,,
81734,control_change,9,0,13,,,,,,,,,12,11,34,,,
81736,control_change,9,0,14,,,,,,,,,13,11,34,,,
81738,control_change,9,0,11,,,,,,,,,10,11,37,,,
81738,control_change,9,0,15,,,,,,,,,14,11,34,,,
81740,control_change,9,0,12,,,,,,,,,11,11,37,,,
81743,control_change,9,0,13,,,,,,,,,12,11,37,,,
81745,control_change,9,0,14,,,,,,,,,13,11,37,,,
81745,control_change,23,0,3,,,,,,,,,2,11,49,,,
81747,control_change,9,0,11,,,,,,,,,10,11,40,,,
81747,control_change,9,0,15,,,,,,,,,14,11,37,,,
81749,control_change,9,0,12,,,,,,,,,11,11,40,,,
81751,control_change,24,0,4,,,,,,,,,3,11,44,,,
81752,control_change,9,0,13,,,,,,,,,12,11,40,,,
81754,control_change,9,0,14,,,,,,,,,13,11,40,,,
81756,control_change,9,0,15,,,,,,,,,14,11,40,,,
81767,note_on,22,0,3,,,,,,,,,2,,,,71,0
81767,note_on,0,0,3,,,,,,,,,2,,,,74,101
81768,control_change,21,0,11,,,,,,,,,10,11,40,,,
81770,control_change,21,0,12,,,,,,,,,11,11,40,,,
81773,control_change,21,0,13,,,,,,,,,12,11,40,,,
81775,control_change,21,0,14,,,,,,,,,13,11,40,,,
81777,control_change,21,0,15,,,,,,,,,14,11,40,,,
81780,set_tempo,60,1,0,,,,,,1200000,,,,,,,,
81782,note_on,0,0,3,,,,,,,,,2,,,,72,101
81782,note_on,15,0,3,,,,,,,,,2,,,,74,0
81793,control_change,11,0,3,,,,,,,,,2,11,48,,,
81799,control_change,48,0,4,,,,,,,,,3,11,43,,,
81816,note_on,23,0,3,,,,,,,,,2,,,,72,0
81816,control_change,48,0,11,,,,,,,,,10,11,39,,,
81818,control_change,48,0,12,,,,,,,,,11,11,39,,,
81821,control_change,48,0,13,,,,,,,,,12,11,39,,,
81823,control_change,48,0,14,,,,,,,,,13,11,39,,,
81825,control_change,48,0,15,,,,,,,,,14,11,39,,,
81827,note_on,11,0,3,,,,,,,,,2,,,,71,101
81834,note_on,7,0,3,,,,,,,,,2,,,,71,0
81840,set_tempo,60,1,0,,,,,,1250000,,,,,,,,
81840,note_on,24,0,11,,,,,,,,,10,,,,63,0
81841,control_change,7,0,3,,,,,,,,,2,11,47,,,
81842,note_on,24,0,12,,,,,,,,,11,,,,59,0
81842,note_on,1,0,3,,,,,,,,,2,,,,71,101
81844,note_on,0,0,8,,,,,,,,,7,,,,57,110
81844,note_on,120,0,8,,,,,,,,,7,,,,59,110
81845,note_on,24,0,13,,,,,,,,,12,,,,57,0
81846,note_on,120,0,9,,,,,,,,,8,,,,54,110
81847,control_change,48,0,4,,,,,,,,,3,11,42,,,
81847,note_on,24,0,14,,,,,,,,,13,,,,54,0
81847,note_on,0,0,4,,,,,,,,,3,,,,63,100
81849,note_on,24,0,15,,,,,,,,,14,,,,42,0
81864,control_change,24,0,11,,,,,,,,,10,11,38,,,
81866,control_change,24,0,12,,,,,,,,,11,11,38,,,
81869,control_change,24,0,13,,,,,,,,,12,11,38,,,
81871,control_change,24,0,14,,,,,,,,,13,11,38,,,
81873,control_change,24,0,15,,,,,,,,,14,11,38,,,
81887,note_on,45,0,3,,,,,,,,,2,,,,71,0
81887,note_on,0,0,3,,,,,,,,,2,,,,74,101
81895,control_change,48,0,4,,,,,,,,,3,11,41,,,
81900,set_tempo,60,1,0,,,,,,1200000,,,,,,,,
81902,note_on,0,0,3,,,,,,,,,2,,,,72,101
81902,note_on,15,0,3,,,,,,,,,2,,,,74,0
81912,control_change,48,0,11,,,,,,,,,10,11,37,,,
81914,control_change,48,0,12,,,,,,,,,11,11,37,,,
81917,control_change,48,0,13,,,,,,,,,12,11,37,,,
81919,control_change,48,0,14,,,,,,,,,13,11,37,,,
81921,control_change,48,0,15,,,,,,,,,14,11,37,,,
81943,control_change,48,0,4,,,,,,,,,3,11,40,,,
81947,note_on,0,0,3,,,,,,,,,2,,,,71,101
81947,note_on,45,0,3,,,,,,,,,2,,,,72,0
81957,note_on,10,0,3,,,,,,,,,2,,,,71,0
81960,set_tempo,60,1,0,,,,,,1237113,,,,,,,,
81960,control_change,48,0,11,,,,,,,,,10,11,27,,,
81960,note_on,0,0,11,,,,,,,,,10,,,,63,97
81962,control_change,48,0,12,,,,,,,,,11,11,27,,,
81962,note_on,0,0,12,,,,,,,,,11,,,,59,97
81962,note_on,5,0,3,,,,,,,,,2,,,,71,101
81964,note_on,0,0,8,,,,,,,,,7,,,,59,0
81964,note_on,120,0,8,,,,,,,,,7,,,,57,0
81965,note_on,48,0,13,,,,,,,,,12,,,,57,97
81965,control_change,0,0,13,,,,,,,,,12,11,27,,,
81966,note_on,120,0,9,,,,,,,,,8,,,,54,0
81967,note_on,24,0,4,,,,,,,,,3,,,,63,0
81967,note_on,0,0,14,,,,,,,,,13,,,,54,97
81967,control_change,48,0,14,,,,,,,,,13,11,27,,,
81969,control_change,48,0,15,,,,,,,,,14,11,27,,,
81969,note_on,0,0,15,,,,,,,,,14,,,,42,97
81978,control_change,18,0,11,,,,,,,,,10,11,32,,,
81980,control_change,18,0,12,,,,,,,,,11,11,32,,,
81983,control_change,18,0,13,,,,,,,,,12,11,32,,,
81985,control_change,18,0,14,,,,,,,,,13,11,32,,,
81987,control_change,9,0,11,,,,,,,,,10,11,35,,,
81987,control_change,18,0,15,,,,,,,,,14,11,32,,,
81989,control_change,9,0,12,,,,,,,,,11,11,35,,,
81991,control_change,24,0,4,,,,,,,,,3,11,39,,,
81992,control_change,9,0,13,,,,,,,,,12,11,35,,,
81994,control_change,9,0,14,,,,,,,,,13,11,35,,,
81996,control_change,9,0,15,,,,,,,,,14,11,35,,,
82007,note_on,45,0,3,,,,,,,,,2,,,,71,0
82007,note_on,0,0,3,,,,,,,,,2,,,,74,101
82008,control_change,21,0,11,,,,,,,,,10,11,35,,,
82010,control_change,21,0,12,,,,,,,,,11,11,35,,,
82013,control_change,21,0,13,,,,,,,,,12,11,35,,,
82015,control_change,21,0,14,,,,,,,,,13,11,35,,,
82017,control_change,21,0,15,,,,,,,,,14,11,35,,,
82020,set_tempo,60,1,0,,,,,,1200000,,,,,,,,
82022,note_on,15,0,3,,,,,,,,,2,,,,74,0
82022,note_on,0,0,3,,,,,,,,,2,,,,72,101
82039,control_change,48,0,4,,,,,,,,,3,11,38,,,
82056,control_change,48,0,11,,,,,,,,,10,11,34,,,
82058,control_change,48,0,12,,,,,,,,,11,11,34,,,
82061,control_change,48,0,13,,,,,,,,,12,11,34,,,
82063,control_change,48,0,14,,,,,,,,,13,11,34,,,
82065,control_change,48,0,15,,,,,,,,,14,11,34,,,
82067,note_on,45,0,3,,,,,,,,,2,,,,72,0
82067,note_on,0,0,3,,,,,,,,,2,,,,71,101
82077,note_on,10,0,3,,,,,,,,,2,,,,71,0
82080,set_tempo,60,1,0,,,,,,1276596,,,,,,,,
82080,note_on,24,0,11,,,,,,,,,10,,,,63,0
82081,note_on,0,0,5,,,,,,,,,4,,,,67,100
82081,control_change,600,0,5,,,,,,,,,4,11,32,,,
82082,note_on,24,0,12,,,,,,,,,11,,,,59,0
82082,note_on,5,0,3,,,,,,,,,2,,,,71,101
82083,note_on,0,0,6,,,,,,,,,5,,,,55,100
82083,control_change,1210,0,6,,,,,,,,,5,11,32,,,
82084,note_on,120,0,8,,,,,,,,,7,,,,59,110
82085,note_on,24,0,13,,,,,,,,,12,,,,57,0
82086,note_on,120,0,9,,,,,,,,,8,,,,55,110
82087,control_change,48,0,4,,,,,,,,,3,11,37,,,
82087,note_on,0,0,4,,,,,,,,,3,,,,62,100
82087,note_on,24,0,14,,,,,,,,,13,,,,54,0
82089,note_on,24,0,15,,,,,,,,,14,,,,42,0
82093,control_change,12,0,5,,,,,,,,,4,11,35,,,
82095,control_change,12,0,6,,,,,,,,,5,11,35,,,
82104,control_change,24,0,11,,,,,,,,,10,11,33,,,
82105,control_change,12,0,5,,,,,,,,,4,11,38,,,
82106,control_change,24,0,12,,,,,,,,,11,11,33,,,
82107,control_change,12,0,6,,,,,,,,,5,11,38,,,
82109,control_change,24,0,13,,,,,,,,,12,11,33,,,
82111,control_change,24,0,14,,,,,,,,,13,11,33,,,
82113,control_change,24,0,15,,,,,,,,,14,11,33,,,
82117,control_change,12,0,5,,,,,,,,,4,11,41,,,
82119,control_change,12,0,6,,,,,,,,,5,11,41,,,
82127,note_on,45,0,3,,,,,,,,,2,,,,71,0
82127,note_on,0,0,3,,,,,,,,,2,,,,74,101
82129,control_change,12,0,5,,,,,,,,,4,11,44,,,
82131,control_change,12,0,6,,,,,,,,,5,11,44,,,
82140,set_tempo,60,1,0,,,,,,1200000,,,,,,,,
82141,control_change,12,0,5,,,,,,,,,4,11,47,,,
82142,note_on,15,0,3,,,,,,,,,2,,,,74,0
82142,note_on,0,0,3,,,,,,,,,2,,,,72,101
82143,control_change,12,0,6,,,,,,,,,5,11,47,,,
82152,control_change,48,0,11,,,,,,,,,10,11,32,,,
82154,control_change,48,0,12,,,,,,,,,11,11,32,,,
82157,control_change,48,0,13,,,,,,,,,12,11,32,,,
82159,control_change,48,0,14,,,,,,,,,13,11,32,,,
82161,control_change,48,0,15,,,,,,,,,14,11,32,,,
82187,note_on,45,0,3,,,,,,,,,2,,,,72,0
82187,note_on,0,0,3,,,,,,,,,2,,,,71,101
82200,set_tempo,60,1,0,,,,,,1263158,,,,,,,,
82200,note_on,0,0,11,,,,,,,,,10,,,,62,97
82200,control_change,48,0,11,,,,,,,,,10,11,27,,,
82202,note_on,0,0,12,,,,,,,,,11,,,,59,97
82202,control_change,48,0,12,,,,,,,,,11,11,27,,,
82202,note_on,15,0,3,,,,,,,,,2,,,,71,0
82202,note_on,1260,0,2,,,,,,,,,1,,,,71,115
82204,note_on,120,0,8,,,,,,,,,7,,,,59,0
82205,note_on,48,0,13,,,,,,,,,12,,,,59,97
82205,control_change,0,0,13,,,,,,,,,12,11,27,,,
82206,note_on,120,0,9,,,,,,,,,8,,,,55,0
82207,note_on,120,0,4,,,,,,,,,3,,,,62,0
82207,note_on,0,0,14,,,,,,,,,13,,,,55,97
82207,control_change,48,0,14,,,,,,,,,13,11,27,,,
82209,control_change,48,0,15,,,,,,,,,14,11,27,,,
82209,note_on,0,0,15,,,,,,,,,14,,,,43,97
82218,control_change,18,0,11,,,,,,,,,10,11,29,,,
82220,control_change,18,0,12,,,,,,,,,11,11,29,,,
82223,control_change,18,0,13,,,,,,,,,12,11,29,,,
82225,control_change,18,0,14,,,,,,,,,13,11,29,,,
82227,control_change,18,0,15,,,,,,,,,14,11,29,,,
82232,control_change,14,0,11,,,,,,,,,10,11,32,,,
82234,control_change,14,0,12,,,,,,,,,11,11,32,,,
82237,control_change,14,0,13,,,,,,,,,12,11,32,,,
82239,control_change,14,0,14,,,,,,,,,13,11,32,,,
82241,control_change,14,0,15,,,,,,,,,14,11,32,,,
82247,note_on,0,0,2,,,,,,,,,1,,,,77,100
82247,note_on,45,0,2,,,,,,,,,1,,,,71,0
82260,set_tempo,60,1,0,,,,,,1200000,,,,,,,,
82262,note_on,15,0,2,,,,,,,,,1,,,,77,0
82262,note_on,0,0,2,,,,,,,,,1,,,,76,100
82264,control_change,32,0,11,,,,,,,,,10,11,33,,,
82266,control_change,32,0,12,,,,,,,,,11,11,33,,,
82269,control_change,32,0,13,,,,,,,,,12,11,33,,,
82271,control_change,32,0,14,,,,,,,,,13,11,33,,,
82273,control_change,32,0,15,,,,,,,,,14,11,33,,,
82296,control_change,32,0,11,,,,,,,,,10,11,34,,,
82298,control_change,32,0,12,,,,,,,,,11,11,34,,,
82301,control_change,32,0,13,,,,,,,,,12,11,34,,,
82303,control_change,32,0,14,,,,,,,,,13,11,34,,,
82305,control_change,32,0,15,,,,,,,,,14,11,34,,,
82307,note_on,0,0,2,,,,,,,,,1,,,,74,100
82307,note_on,45,0,2,,,,,,,,,1,,,,76,0
82320,set_tempo,60,1,0,,,,,,1250000,,,,,,,,
82320,note_on,24,0,11,,,,,,,,,10,,,,62,0
82321,note_on,1170,0,1,,,,,,,,,0,,,,83,116
82322,note_on,15,0,2,,,,,,,,,1,,,,74,0
82322,note_on,120,0,3,,,,,,,,,2,,,,71,116
82322,note_on,24,0,12,,,,,,,,,11,,,,59,0
82324,note_on,120,0,8,,,,,,,,,7,,,,59,110
82324,note_on,0,0,8,,,,,,,,,7,,,,50,110
82325,note_on,24,0,13,,,,,,,,,12,,,,59,0
82326,note_on,120,0,9,,,,,,,,,8,,,,43,110
82327,note_on,24,0,14,,,,,,,,,13,,,,55,0
82327,note_on,120,0,4,,,,,,,,,3,,,,65,100
82328,control_change,8,0,11,,,,,,,,,10,11,35,,,
82329,note_on,24,0,15,,,,,,,,,14,,,,43,0
82330,control_change,8,0,12,,,,,,,,,11,11,35,,,
82333,control_change,8,0,13,,,,,,,,,12,11,35,,,
82335,control_change,8,0,14,,,,,,,,,13,11,35,,,
82337,control_change,8,0,15,,,,,,,,,14,11,35,,,
82360,control_change,32,0,11,,,,,,,,,10,11,36,,,
82362,control_change,32,0,12,,,,,,,,,11,11,36,,,
82365,control_change,32,0,13,,,,,,,,,12,11,36,,,
82366,note_on,0,0,1,,,,,,,,,0,,,,86,101
82366,note_on,45,0,1,,,,,,,,,0,,,,83,0
82367,note_on,0,0,3,,,,,,,,,2,,,,74,101
82367,note_on,45,0,3,,,,,,,,,2,,,,71,0
82367,control_change,32,0,14,,,,,,,,,13,11,36,,,
82369,control_change,32,0,15,,,,,,,,,14,11,36,,,
82380,set_tempo,60,1,0,,,,,,1188119,,,,,,,,
82381,note_on,0,0,1,,,,,,,,,0,,,,84,101
82381,note_on,15,0,1,,,,,,,,,0,,,,86,0
82382,note_on,15,0,3,,,,,,,,,2,,,,74,0
82382,note_on,0,0,3,,,,,,,,,2,,,,72,101
82392,control_change,32,0,11,,,,,,,,,10,11,37,,,
82394,control_change,32,0,12,,,,,,,,,11,11,37,,,
82397,control_change,32,0,13,,,,,,,,,12,11,37,,,
82399,control_change,32,0,14,,,,,,,,,13,11,37,,,
82401,control_change,32,0,15,,,,,,,,,14,11,37,,,
82424,control_change,32,0,11,,,,,,,,,10,11,38,,,
82426,note_on,0,0,1,,,,,,,,,0,,,,83,101
82426,control_change,32,0,12,,,,,,,,,11,11,38,,,
82426,note_on,45,0,1,,,,,,,,,0,,,,84,0
82427,note_on,0,0,3,,,,,,,,,2,,,,71,101
82427,note_on,45,0,3,,,,,,,,,2,,,,72,0
82429,control_change,32,0,13,,,,,,,,,12,11,38,,,
82431,control_change,32,0,14,,,,,,,,,13,11,38,,,
82433,control_change,32,0,15,,,,,,,,,14,11,38,,,
82440,control_change,16,0,11,,,,,,,,,10,11,30,,,
82440,set_tempo,60,1,0,,,,,,1237113,,,,,,,,
82440,note_on,0,0,11,,,,,,,,,10,,,,65,97
82441,note_on,15,0,1,,,,,,,,,0,,,,83,0
82442,note_on,0,0,12,,,,,,,,,11,,,,59,97
82442,note_on,15,0,3,,,,,,,,,2,,,,71,0
82442,note_on,120,0,2,,,,,,,,,1,,,,71,115
82442,control_change,16,0,12,,,,,,,,,11,11,30,,,
82444,note_on,120,0,8,,,,,,,,,7,,,,50,0
82444,note_on,0,0,8,,,,,,,,,7,,,,59,0
82445,control_change,16,0,13,,,,,,,,,12,11,30,,,
82445,note_on,0,0,13,,,,,,,,,12,,,,55,97
82446,note_on,120,0,9,,,,,,,,,8,,,,43,0
82447,control_change,16,0,14,,,,,,,,,13,11,30,,,
82447,note_on,0,0,14,,,,,,,,,13,,,,55,97
82447,note_on,120,0,4,,,,,,,,,3,,,,65,0
82449,control_change,16,0,15,,,,,,,,,14,11,30,,,
82449,note_on,0,0,15,,,,,,,,,14,,,,43,97
82449,control_change,9,0,11,,,,,,,,,10,11,33,,,
82451,control_change,9,0,12,,,,,,,,,11,11,33,,,
82454,control_change,9,0,13,,,,,,,,,12,11,33,,,
82456,control_change,9,0,14,,,,,,,,,13,11,33,,,
82458,control_change,9,0,15,,,,,,,,,14,11,33,,,
82458,control_change,9,0,11,,,,,,,,,10,11,36,,,
82460,control_change,9,0,12,,,,,,,,,11,11,36,,,
82463,control_change,9,0,13,,,,,,,,,12,11,36,,,
82465,control_change,9,0,14,,,,,,,,,13,11,36,,,
82467,control_change,9,0,11,,,,,,,,,10,11,39,,,
82467,control_change,9,0,15,,,,,,,,,14,11,36,,,
82469,control_change,9,0,12,,,,,,,,,11,11,39,,,
82472,control_change,9,0,13,,,,,,,,,12,11,39,,,
82474,control_change,9,0,14,,,,,,,,,13,11,39,,,
82476,control_change,9,0,15,,,,,,,,,14,11,39,,,
82487,note_on,0,0,2,,,,,,,,,1,,,,77,100
82487,note_on,45,0,2,,,,,,,,,1,,,,71,0
82488,control_change,21,0,11,,,,,,,,,10,11,40,,,
82490,control_change,21,0,12,,,,,,,,,11,11,40,,,
82493,control_change,21,0,13,,,,,,,,,12,11,40,,,
82495,control_change,21,0,14,,,,,,,,,13,11,40,,,
82497,control_change,21,0,15,,,,,,,,,14,11,40,,,
82500,set_tempo,60,1,0,,,,,,1188119,,,,,,,,
82502,note_on,0,0,2,,,,,,,,,1,,,,76,100
82502,note_on,15,0,2,,,,,,,,,1,,,,77,0
82520,control_change,32,0,11,,,,,,,,,10,11,41,,,
82522,control_change,32,0,12,,,,,,,,,11,11,41,,,
82525,control_change,32,0,13,,,,,,,,,12,11,41,,,
82527,control_change,32,0,14,,,,,,,,,13,11,41,,,
82529,control_change,32,0,15,,,,,,,,,14,11,41,,,
82547,note_on,45,0,2,,,,,,,,,1,,,,76,0
82547,note_on,0,0,2,,,,,,,,,1,,,,74,100
82552,control_change,32,0,11,,,,,,,,,10,11,42,,,
82554,control_change,32,0,12,,,,,,,,,11,11,42,,,
82557,control_change,32,0,13,,,,,,,,,12,11,42,,,
82559,control_change,32,0,14,,,,,,,,,13,11,42,,,
82560,set_tempo,60,1,0,,,,,,1250000,,,,,,,,
82560,note_on,8,0,11,,,,,,,,,10,,,,65,0
82561,control_change,32,0,15,,,,,,,,,14,11,42,,,
82561,note_on,120,0,1,,,,,,,,,0,,,,84,116
82562,note_on,120,0,3,,,,,,,,,2,,,,72,116
82562,note_on,15,0,2,,,,,,,,,1,,,,74,0
82562,note_on,8,0,12,,,,,,,,,11,,,,59,0
82564,note_on,120,0,8,,,,,,,,,7,,,,60,110
82564,note_on,0,0,8,,,,,,,,,7,,,,52,110
82565,note_on,8,0,13,,,,,,,,,12,,,,55,0
82566,note_on,120,0,9,,,,,,,,,8,,,,43,110
82567,note_on,120,0,4,,,,,,,,,3,,,,64,100
82567,note_on,8,0,14,,,,,,,,,13,,,,55,0
82569,note_on,8,0,15,,,,,,,,,14,,,,43,0
82584,control_change,24,0,11,,,,,,,,,10,11,42,,,
82586,control_change,24,0,12,,,,,,,,,11,11,42,,,
82589,control_change,24,0,13,,,,,,,,,12,11,42,,,
82591,control_change,24,0,14,,,,,,,,,13,11,42,,,
82593,control_change,24,0,15,,,,,,,,,14,11,42,,,
82606,note_on,45,0,1,,,,,,,,,0,,,,84,0
82606,note_on,0,0,1,,,,,,,,,0,,,,88,101
82607,note_on,45,0,3,,,,,,,,,2,,,,72,0
82607,note_on,0,0,3,,,,,,,,,2,,,,76,101
82616,control_change,32,0,11,,,,,,,,,10,11,43,,,
82618,control_change,32,0,12,,,,,,,,,11,11,43,,,
82620,set_tempo,60,1,0,,,,,,1165049,,,,,,,,
82621,control_change,32,0,13,,,,,,,,,12,11,43,,,
82621,note_on,15,0,1,,,,,,,,,0,,,,88,0
82621,note_on,0,0,1,,,,,,,,,0,,,,86,101
82622,note_on,15,0,3,,,,,,,,,2,,,,76,0
82622,note_on,0,0,3,,,,,,,,,2,,,,74,101
82623,control_change,32,0,14,,,,,,,,,13,11,43,,,
82625,control_change,32,0,15,,,,,,,,,14,11,43,,,
82648,control_change,32,0,11,,,,,,,,,10,11,44,,,
82650,control_change,32,0,12,,,,,,,,,11,11,44,,,
82653,control_change,32,0,13,,,,,,,,,12,11,44,,,
82655,control_change,32,0,14,,,,,,,,,13,11,44,,,
82657,control_change,32,0,15,,,,,,,,,14,11,44,,,
82666,note_on,45,0,1,,,,,,,,,0,,,,86,0
82666,note_on,0,0,1,,,,,,,,,0,,,,84,101
82667,note_on,45,0,3,,,,,,,,,2,,,,74,0
82667,note_on,0,0,3,,,,,,,,,2,,,,72,101
82680,note_on,0,0,11,,,,,,,,,10,,,,64,97
82680,control_change,32,0,11,,,,,,,,,10,11,36,,,
82680,set_tempo,60,1,0,,,,,,1237113,,,,,,,,
82681,note_on,15,0,1,,,,,,,,,0,,,,84,0
82682,note_on,0,0,12,,,,,,,,,11,,,,60,97
82682,note_on,120,0,2,,,,,,,,,1,,,,72,115
82682,note_on,15,0,3,,,,,,,,,2,,,,72,0
82682,control_change,32,0,12,,,,,,,,,11,11,36,,,
82684,note_on,120,0,8,,,,,,,,,7,,,,52,0
82684,note_on,0,0,8,,,,,,,,,7,,,,60,0
82685,note_on,32,0,13,,,,,,,,,12,,,,55,97
82685,control_change,0,0,13,,,,,,,,,12,11,36,,,
82686,note_on,120,0,9,,,,,,,,,8,,,,43,0
82687,note_on,0,0,14,,,,,,,,,13,,,,55,97
82687,control_change,32,0,14,,,,,,,,,13,11,36,,,
82687,note_on,120,0,4,,,,,,,,,3,,,,64,0
82689,control_change,32,0,15,,,,,,,,,14,11,36,,,
82689,note_on,0,0,15,,,,,,,,,14,,,,43,97
82691,control_change,9,0,12,,,,,,,,,11,11,39,,,
82692,control_change,12,0,11,,,,,,,,,10,11,40,,,
82694,control_change,9,0,13,,,,,,,,,12,11,39,,,
82696,control_change,9,0,14,,,,,,,,,13,11,39,,,
82698,control_change,9,0,15,,,,,,,,,14,11,39,,,
82700,control_change,9,0,12,,,,,,,,,11,11,42,,,
82703,control_change,9,0,13,,,,,,,,,12,11,42,,,
82705,control_change,9,0,14,,,,,,,,,13,11,42,,,
82707,control_change,9,0,15,,,,,,,,,14,11,42,,,
82710,control_change,18,0,11,,,,,,,,,10,11,45,,,
82727,note_on,0,0,2,,,,,,,,,1,,,,79,100
82727,note_on,45,0,2,,,,,,,,,1,,,,72,0
82740,set_tempo,60,1,0,,,,,,1176471,,,,,,,,
82742,note_on,0,0,2,,,,,,,,,1,,,,77,100
82742,note_on,15,0,2,,,,,,,,,1,,,,79,0
82776,control_change,66,0,11,,,,,,,,,10,11,44,,,
82778,control_change,78,0,12,,,,,,,,,11,11,44,,,
82781,control_change,78,0,13,,,,,,,,,12,11,44,,,
82783,control_change,78,0,14,,,,,,,,,13,11,44,,,
82785,control_change,78,0,15,,,,,,,,,14,11,44,,,
82787,note_on,0,0,2,,,,,,,,,1,,,,76,100
82787,note_on,45,0,2,,,,,,,,,1,,,,77,0
82800,note_on,24,0,11,,,,,,,,,10,,,,64,0
82800,set_tempo,60,1,0,,,,,,1263158,,,,,,,,
82802,note_on,120,0,3,,,,,,,,,2,,,,71,101
82802,note_on,24,0,12,,,,,,,,,11,,,,60,0
82802,note_on,15,0,2,,,,,,,,,1,,,,76,0
82804,note_on,0,0,8,,,,,,,,,7,,,,55,110
82804,note_on,120,0,8,,,,,,,,,7,,,,59,110
82805,note_on,24,0,13,,,,,,,,,12,,,,55,0
82806,note_on,120,0,9,,,,,,,,,8,,,,43,110
82807,note_on,120,0,4,,,,,,,,,3,,,,62,100
82807,note_on,24,0,14,,,,,,,,,13,,,,55,0
82809,note_on,24,0,15,,,,,,,,,14,,,,43,0
82847,note_on,0,0,3,,,,,,,,,2,,,,74,101
82847,note_on,45,0,3,,,,,,,,,2,,,,71,0
82860,set_tempo,60,1,0,,,,,,1176471,,,,,,,,
82862,note_on,0,0,3,,,,,,,,,2,,,,72,101
82862,note_on,15,0,3,,,,,,,,,2,,,,74,0
82872,control_change,72,0,11,,,,,,,,,10,11,43,,,
82874,control_change,72,0,12,,,,,,,,,11,11,43,,,
82877,control_change,72,0,13,,,,,,,,,12,11,43,,,
82879,control_change,72,0,14,,,,,,,,,13,11,43,,,
82881,control_change,72,0,15,,,,,,,,,14,11,43,,,
82907,note_on,0,0,3,,,,,,,,,2,,,,71,101
82907,note_on,45,0,3,,,,,,,,,2,,,,72,0
82920,note_on,0,0,11,,,,,,,,,10,,,,62,97
82920,set_tempo,60,1,0,,,,,,1263158,,,,,,,,
82920,control_change,48,0,11,,,,,,,,,10,11,33,,,
82922,control_change,48,0,12,,,,,,,,,11,11,33,,,
82922,note_on,0,0,12,,,,,,,,,11,,,,59,97
82922,note_on,15,0,3,,,,,,,,,2,,,,71,0
82922,note_on,120,0,2,,,,,,,,,1,,,,71,100
82923,note_on,780,0,6,,,,,,,,,5,,,,55,0
82924,note_on,120,0,8,,,,,,,,,7,,,,55,0
82924,note_on,0,0,8,,,,,,,,,7,,,,59,0
82925,note_on,48,0,13,,,,,,,,,12,,,,55,97
82925,control_change,0,0,13,,,,,,,,,12,11,33,,,
82926,note_on,120,0,9,,,,,,,,,8,,,,43,0
82927,note_on,120,0,4,,,,,,,,,3,,,,62,0
82927,control_change,48,0,14,,,,,,,,,13,11,33,,,
82927,note_on,0,0,14,,,,,,,,,13,,,,55,97
82929,control_change,9,0,11,,,,,,,,,10,11,36,,,
82929,control_change,48,0,15,,,,,,,,,14,11,33,,,
82929,note_on,0,0,15,,,,,,,,,14,,,,43,97
82931,control_change,9,0,12,,,,,,,,,11,11,36,,,
82934,control_change,9,0,13,,,,,,,,,12,11,36,,,
82936,control_change,9,0,14,,,,,,,,,13,11,36,,,
82938,control_change,9,0,11,,,,,,,,,10,11,39,,,
82938,control_change,9,0,15,,,,,,,,,14,11,36,,,
82940,control_change,9,0,12,,,,,,,,,11,11,39,,,
82943,control_change,9,0,13,,,,,,,,,12,11,39,,,
82945,control_change,9,0,14,,,,,,,,,13,11,39,,,
82947,control_change,9,0,11,,,,,,,,,10,11,42,,,
82947,control_change,9,0,15,,,,,,,,,14,11,39,,,
82949,control_change,9,0,12,,,,,,,,,11,11,42,,,
82952,control_change,9,0,13,,,,,,,,,12,11,42,,,
82954,control_change,9,0,14,,,,,,,,,13,11,42,,,
82956,control_change,9,0,15,,,,,,,,,14,11,42,,,
82967,note_on,45,0,2,,,,,,,,,1,,,,71,0
82967,note_on,0,0,2,,,,,,,,,1,,,,77,100
82968,control_change,21,0,11,,,,,,,,,10,11,42,,,
82970,control_change,21,0,12,,,,,,,,,11,11,42,,,
82973,control_change,21,0,13,,,,,,,,,12,11,42,,,
82975,control_change,21,0,14,,,,,,,,,13,11,42,,,
82977,control_change,21,0,15,,,,,,,,,14,11,42,,,
82980,set_tempo,60,1,0,,,,,,1176471,,,,,,,,
82982,note_on,0,0,2,,,,,,,,,1,,,,76,100
82982,note_on,15,0,2,,,,,,,,,1,,,,77,0
83027,note_on,45,0,2,,,,,,,,,1,,,,76,0
83027,note_on,0,0,2,,,,,,,,,1,,,,74,100
83040,set_tempo,60,1,0,,,,,,1290323,,,,,,,,
83040,note_on,72,0,11,,,,,,,,,10,,,,62,0
83041,note_on,900,0,5,,,,,,,,,4,,,,67,0
83041,note_on,0,0,5,,,,,,,,,4,,,,65,100
83042,note_on,120,0,3,,,,,,,,,2,,,,71,101
83042,note_on,72,0,12,,,,,,,,,11,,,,59,0
83042,note_on,15,0,2,,,,,,,,,1,,,,74,0
83044,note_on,120,0,8,,,,,,,,,7,,,,59,110
83044,note_on,0,0,8,,,,,,,,,7,,,,57,110
83045,note_on,72,0,13,,,,,,,,,12,,,,55,0
83046,note_on,120,0,9,,,,,,,,,8,,,,53,110
83047,note_on,72,0,14,,,,,,,,,13,,,,55,0
83047,note_on,120,0,4,,,,,,,,,3,,,,62,100
83049,note_on,72,0,15,,,,,,,,,14,,,,43,0
83064,control_change,24,0,11,,,,,,,,,10,11,42,,,
83066,control_change,24,0,12,,,,,,,,,11,11,42,,,
83069,control_change,24,0,13,,,,,,,,,12,11,42,,,
83071,control_change,24,0,14,,,,,,,,,13,11,42,,,
83073,control_change,24,0,15,,,,,,,,,14,11,42,,,
83087,note_on,0,0,3,,,,,,,,,2,,,,74,101
83087,note_on,45,0,3,,,,,,,,,2,,,,71,0
83100,set_tempo,60,1,0,,,,,,1188119,,,,,,,,
83102,note_on,15,0,3,,,,,,,,,2,,,,74,0
83102,note_on,0,0,3,,,,,,,,,2,,,,72,101
83147,note_on,45,0,3,,,,,,,,,2,,,,72,0
83147,note_on,0,0,3,,,,,,,,,2,,,,71,101
83160,note_on,0,0,11,,,,,,,,,10,,,,62,97
83160,set_tempo,60,1,0,,,,,,1276596,,,,,,,,
83160,control_change,96,0,11,,,,,,,,,10,11,31,,,
83162,control_change,96,0,12,,,,,,,,,11,11,31,,,
83162,note_on,15,0,3,,,,,,,,,2,,,,71,0
83162,note_on,120,0,2,,,,,,,,,1,,,,71,100
83162,note_on,0,0,12,,,,,,,,,11,,,,59,97
83164,note_on,0,0,8,,,,,,,,,7,,,,59,0
83164,note_on,120,0,8,,,,,,,,,7,,,,57,0
83165,control_change,96,0,13,,,,,,,,,12,11,31,,,
83165,note_on,0,0,13,,,,,,,,,12,,,,57,97
83166,control_change,6,0,11,,,,,,,,,10,11,34,,,
83166,note_on,120,0,9,,,,,,,,,8,,,,53,0
83167,control_change,96,0,14,,,,,,,,,13,11,31,,,
83167,note_on,0,0,14,,,,,,,,,13,,,,53,97
83167,note_on,120,0,4,,,,,,,,,3,,,,62,0
83168,control_change,6,0,12,,,,,,,,,11,11,34,,,
83169,note_on,0,0,15,,,,,,,,,14,,,,41,97
83169,control_change,96,0,15,,,,,,,,,14,11,31,,,
83171,control_change,6,0,13,,,,,,,,,12,11,34,,,
83172,control_change,6,0,11,,,,,,,,,10,11,37,,,
83173,control_change,6,0,14,,,,,,,,,13,11,34,,,
83174,control_change,6,0,12,,,,,,,,,11,11,37,,,
83175,control_change,6,0,15,,,,,,,,,14,11,34,,,
83177,control_change,6,0,13,,,,,,,,,12,11,37,,,
83178,control_change,6,0,11,,,,,,,,,10,11,40,,,
83179,control_change,6,0,14,,,,,,,,,13,11,37,,,
83180,control_change,6,0,12,,,,,,,,,11,11,40,,,
83181,control_change,6,0,15,,,,,,,,,14,11,37,,,
83183,control_change,6,0,13,,,,,,,,,12,11,40,,,
83185,control_change,6,0,14,,,,,,,,,13,11,40,,,
83187,control_change,6,0,15,,,,,,,,,14,11,40,,,
83190,control_change,12,0,11,,,,,,,,,10,11,45,,,
83192,control_change,12,0,12,,,,,,,,,11,11,45,,,
83195,control_change,12,0,13,,,,,,,,,12,11,45,,,
83197,control_change,12,0,14,,,,,,,,,13,11,45,,,
83199,control_change,12,0,15,,,,,,,,,14,11,45,,,
83207,note_on,0,0,2,,,,,,,,,1,,,,77,100
83207,note_on,45,0,2,,,,,,,,,1,,,,71,0
83220,set_tempo,60,1,0,,,,,,1212121,,,,,,,,
83222,note_on,15,0,2,,,,,,,,,1,,,,77,0
83222,note_on,0,0,2,,,,,,,,,1,,,,76,100
83267,note_on,0,0,2,,,,,,,,,1,,,,74,100
83267,note_on,45,0,2,,,,,,,,,1,,,,76,0
83280,set_tempo,60,1,0,,,,,,1276596,,,,,,,,
83280,note_on,90,0,11,,,,,,,,,10,,,,62,0
83281,note_on,0,0,5,,,,,,,,,4,,,,64,100
83281,note_on,240,0,5,,,,,,,,,4,,,,65,0
83282,note_on,120,0,3,,,,,,,,,2,,,,71,101
83282,note_on,15,0,2,,,,,,,,,1,,,,74,0
83282,note_on,90,0,12,,,,,,,,,11,,,,59,0
83284,note_on,120,0,8,,,,,,,,,7,,,,59,110
83284,note_on,0,0,8,,,,,,,,,7,,,,56,110
83285,note_on,90,0,13,,,,,,,,,12,,,,57,0
83286,note_on,120,0,9,,,,,,,,,8,,,,52,110
83287,note_on,90,0,14,,,,,,,,,13,,,,53,0
83287,note_on,120,0,4,,,,,,,,,3,,,,62,100
83289,note_on,90,0,15,,,,,,,,,14,,,,41,0
83327,note_on,45,0,3,,,,,,,,,2,,,,71,0
83327,note_on,0,0,3,,,,,,,,,2,,,,74,101
83340,set_tempo,60,1,0,,,,,,1224490,,,,,,,,
83342,note_on,15,0,3,,,,,,,,,2,,,,74,0
83342,note_on,0,0,3,,,,,,,,,2,,,,72,101
83387,note_on,45,0,3,,,,,,,,,2,,,,72,0
83387,note_on,0,0,3,,,,,,,,,2,,,,71,101
83400,control_change,120,0,11,,,,,,,,,10,11,41,,,
83400,note_on,0,0,11,,,,,,,,,10,,,,64,97
83400,set_tempo,60,1,0,,,,,,1290323,,,,,,,,
83402,note_on,0,0,12,,,,,,,,,11,,,,62,97
83402,note_on,0,0,12,,,,,,,,,11,,,,59,97
83402,note_on,15,0,3,,,,,,,,,2,,,,71,0
83402,note_on,120,0,2,,,,,,,,,1,,,,71,100
83402,control_change,120,0,12,,,,,,,,,11,11,41,,,
83404,note_on,0,0,8,,,,,,,,,7,,,,59,0
83404,note_on,120,0,8,,,,,,,,,7,,,,56,0
83405,note_on,0,0,13,,,,,,,,,12,,,,56,97
83405,control_change,120,0,13,,,,,,,,,12,11,41,,,
83406,note_on,120,0,9,,,,,,,,,8,,,,52,0
83407,note_on,120,0,4,,,,,,,,,3,,,,62,0
83407,control_change,120,0,14,,,,,,,,,13,11,41,,,
83407,note_on,0,0,14,,,,,,,,,13,,,,52,97
83409,note_on,0,0,15,,,,,,,,,14,,,,40,97
83409,control_change,120,0,15,,,,,,,,,14,11,41,,,
83418,control_change,18,0,11,,,,,,,,,10,11,46,,,
83420,control_change,18,0,12,,,,,,,,,11,11,46,,,
83423,control_change,18,0,13,,,,,,,,,12,11,46,,,
83425,control_change,18,0,14,,,,,,,,,13,11,46,,,
83427,control_change,9,0,11,,,,,,,,,10,11,49,,,
83427,control_change,18,0,15,,,,,,,,,14,11,46,,,
83429,control_change,9,0,12,,,,,,,,,11,11,49,,,
83432,control_change,9,0,13,,,,,,,,,12,11,49,,,
83434,control_change,9,0,14,,,,,,,,,13,11,49,,,
83436,control_change,9,0,15,,,,,,,,,14,11,49,,,
83447,note_on,45,0,2,,,,,,,,,1,,,,71,0
83447,note_on,0,0,2,,,,,,,,,1,,,,76,100
83460,set_tempo,60,1,0,,,,,,1237113,,,,,,,,
83462,note_on,15,0,2,,,,,,,,,1,,,,76,0
83462,note_on,0,0,2,,,,,,,,,1,,,,74,100
83490,set_tempo,30,1,0,,,,,,1395349,,,,,,,,
83507,note_on,0,0,2,,,,,,,,,1,,,,71,100
83507,note_on,45,0,2,,,,,,,,,1,,,,74,0
83520,note_on,93,0,11,,,,,,,,,10,,,,64,0
83520,set_tempo,30,1,0,,,,,,1263158,,,,,,,,
83521,note_on,0,0,5,,,,,,,,,4,,,,64,100
83521,note_on,240,0,5,,,,,,,,,4,,,,64,0
83522,note_on,93,0,12,,,,,,,,,11,,,,59,0
83522,note_on,15,0,2,,,,,,,,,1,,,,71,0
83522,note_on,0,0,12,,,,,,,,,11,,,,62,0
83522,note_on,120,0,3,,,,,,,,,2,,,,72,116
83522,note_on,0,0,3,,,,,,,,,2,,,,76,116
83523,note_on,600,0,6,,,,,,,,,5,,,,57,100
83524,note_on,120,0,8,,,,,,,,,7,,,,57,110
83525,note_on,93,0,13,,,,,,,,,12,,,,56,0
83526,note_on,120,0,9,,,,,,,,,8,,,,45,110
83527,note_on,93,0,14,,,,,,,,,13,,,,52,0
83527,note_on,120,0,4,,,,,,,,,3,,,,60,115
83527,note_on,0,0,4,,,,,,,,,3,,,,57,115
83529,note_on,93,0,15,,,,,,,,,14,,,,40,0
83580,set_tempo,60,1,0,,,,,,1111111,,,,,,,,
83640,set_tempo,60,1,0,,,,,,1188119,,,,,,,,
83641,note_on,120,0,5,,,,,,,,,4,,,,64,0
83642,note_on,0,0,3,,,,,,,,,2,,,,74,101
83642,note_on,0,0,3,,,,,,,,,2,,,,72,0
83642,note_on,0,0,3,,,,,,,,,2,,,,69,101
83642,note_on,120,0,3,,,,,,,,,2,,,,76,0
83643,note_on,120,0,6,,,,,,,,,5,,,,57,0
83644,note_on,120,0,8,,,,,,,,,7,,,,57,0
83646,note_on,120,0,9,,,,,,,,,8,,,,45,0
83647,note_on,0,0,4,,,,,,,,,3,,,,57,100
83647,note_on,120,0,4,,,,,,,,,3,,,,57,0
83647,note_on,0,0,4,,,,,,,,,3,,,,60,0
83647,note_on,0,0,4,,,,,,,,,3,,,,62,100
83657,note_on,0,0,3,,,,,,,,,2,,,,72,101
83657,note_on,15,0,3,,,,,,,,,2,,,,74,0
83662,note_on,0,0,4,,,,,,,,,3,,,,60,100
83662,note_on,15,0,4,,,,,,,,,3,,,,62,0
83673,note_on,16,0,3,,,,,,,,,2,,,,72,0
83677,note_on,4,0,3,,,,,,,,,2,,,,69,0
83678,note_on,16,0,4,,,,,,,,,3,,,,60,0
83682,note_on,4,0,4,,,,,,,,,3,,,,57,0
83687,note_on,10,0,3,,,,,,,,,2,,,,68,101
83687,note_on,0,0,3,,,,,,,,,2,,,,71,101
83692,note_on,10,0,4,,,,,,,,,3,,,,56,100
83692,note_on,0,0,4,,,,,,,,,3,,,,59,100
83694,note_on,0,0,3,,,,,,,,,2,,,,68,0
83694,note_on,7,0,3,,,,,,,,,2,,,,71,0
83699,note_on,7,0,4,,,,,,,,,3,,,,59,0
83699,note_on,0,0,4,,,,,,,,,3,,,,56,0
83700,set_tempo,60,1,0,,,,,,1111111,,,,,,,,
83702,note_on,0,0,3,,,,,,,,,2,,,,69,101
83702,note_on,8,0,3,,,,,,,,,2,,,,72,101
83707,note_on,8,0,4,,,,,,,,,3,,,,60,100
83707,note_on,0,0,4,,,,,,,,,3,,,,57,100
83732,note_on,0,0,3,,,,,,,,,2,,,,72,0
83732,note_on,30,0,3,,,,,,,,,2,,,,69,0
83737,note_on,0,0,4,,,,,,,,,3,,,,60,0
83737,note_on,30,0,4,,,,,,,,,3,,,,57,0
83747,note_on,15,0,3,,,,,,,,,2,,,,74,101
83747,note_on,0,0,3,,,,,,,,,2,,,,71,101
83752,note_on,15,0,4,,,,,,,,,3,,,,62,100
83752,note_on,0,0,4,,,,,,,,,3,,,,59,100
83754,note_on,0,0,3,,,,,,,,,2,,,,74,0
83754,note_on,7,0,3,,,,,,,,,2,,,,71,0
83759,note_on,0,0,4,,,,,,,,,3,,,,62,0
83759,note_on,7,0,4,,,,,,,,,3,,,,59,0
83760,set_tempo,60,1,0,,,,,,1200000,,,,,,,,
83761,note_on,120,0,5,,,,,,,,,4,,,,64,100
83762,note_on,8,0,3,,,,,,,,,2,,,,76,101
83762,note_on,0,0,3,,,,,,,,,2,,,,72,101
83763,note_on,120,0,6,,,,,,,,,5,,,,57,100
83767,note_on,8,0,4,,,,,,,,,3,,,,64,100
83767,note_on,0,0,4,,,,,,,,,3,,,,60,100
83820,set_tempo,60,1,0,,,,,,1111111,,,,,,,,
83822,note_on,60,0,3,,,,,,,,,2,,,,76,0
83822,note_on,0,0,3,,,,,,,,,2,,,,81,101
83852,note_on,30,0,3,,,,,,,,,2,,,,81,0
83880,set_tempo,60,1,0,,,,,,1188119,,,,,,,,
83881,note_on,0,0,5,,,,,,,,,4,,,,60,100
83881,note_on,120,0,5,,,,,,,,,4,,,,64,0
83882,note_on,30,0,3,,,,,,,,,2,,,,72,0
83882,note_on,0,0,3,,,,,,,,,2,,,,69,101
83882,note_on,0,0,3,,,,,,,,,2,,,,72,101
83883,note_on,0,0,6,,,,,,,,,5,,,,57,100
83883,note_on,120,0,6,,,,,,,,,5,,,,57,0
83887,note_on,0,0,4,,,,,,,,,3,,,,60,100
83887,note_on,0,0,4,,,,,,,,,3,,,,57,100
83887,note_on,120,0,4,,,,,,,,,3,,,,60,0
83887,note_on,0,0,4,,,,,,,,,3,,,,64,0
83911,note_on,30,0,5,,,,,,,,,4,,,,60,0
83912,note_on,0,0,3,,,,,,,,,2,,,,72,0
83912,note_on,30,0,3,,,,,,,,,2,,,,69,0
83913,note_on,30,0,6,,,,,,,,,5,,,,57,0
83917,note_on,30,0,4,,,,,,,,,3,,,,57,0
83917,note_on,0,0,4,,,,,,,,,3,,,,60,0
83940,set_tempo,60,1,0,,,,,,1111111,,,,,,,,
83941,note_on,30,0,5,,,,,,,,,4,,,,67,100
83942,note_on,0,0,3,,,,,,,,,2,,,,71,101
83942,note_on,30,0,3,,,,,,,,,2,,,,74,101
83943,note_on,30,0,6,,,,,,,,,5,,,,55,100
83947,note_on,0,0,4,,,,,,,,,3,,,,55,100
83947,note_on,30,0,4,,,,,,,,,3,,,,65,100
83971,note_on,30,0,5,,,,,,,,,4,,,,67,0
83972,note_on,0,0,3,,,,,,,,,2,,,,74,0
83972,note_on,30,0,3,,,,,,,,,2,,,,71,0
83973,note_on,30,0,6,,,,,,,,,5,,,,55,0
83977,note_on,30,0,4,,,,,,,,,3,,,,55,0
83977,note_on,0,0,4,,,,,,,,,3,,,,65,0
84000,set_tempo,60,1,0,,,,,,1200000,,,,,,,,
84001,note_on,30,0,5,,,,,,,,,4,,,,67,115
84002,note_on,30,0,3,,,,,,,,,2,,,,76,116
84002,note_on,0,0,3,,,,,,,,,2,,,,72,116
84003,note_on,30,0,6,,,,,,,,,5,,,,60,115
84007,note_on,30,0,4,,,,,,,,,3,,,,64,115
84007,note_on,0,0,4,,,,,,,,,3,,,,60,115
84060,set_tempo,60,1,0,,,,,,1111111,,,,,,,,
84116,note_on,115,0,5,,,,,,,,,4,,,,67,0
84117,note_on,115,0,3,,,,,,,,,2,,,,72,0
84117,note_on,0,0,3,,,,,,,,,2,,,,76,0
84118,note_on,115,0,6,,,,,,,,,5,,,,60,0
84120,control_change,600,0,11,,,,,,,,,10,11,50,,,
84120,note_on,0,0,11,,,,,,,,,10,,,,76,112
84120,set_tempo,60,1,0,,,,,,1121495,,,,,,,,
84121,note_on,5,0,5,,,,,,,,,4,,,,67,100
84122,note_on,115,0,4,,,,,,,,,3,,,,60,0
84122,note_on,0,0,4,,,,,,,,,3,,,,64,0
84122,note_on,0,0,12,,,,,,,,,11,,,,72,112
84122,note_on,0,0,3,,,,,,,,,2,,,,72,101
84122,note_on,5,0,3,,,,,,,,,2,,,,76,101
84122,control_change,600,0,12,,,,,,,,,11,11,50,,,
84123,note_on,5,0,6,,,,,,,,,5,,,,60,100
84125,note_on,600,0,13,,,,,,,,,12,,,,67,112
84125,control_change,0,0,13,,,,,,,,,12,11,50,,,
84127,note_on,0,0,4,,,,,,,,,3,,,,60,100
84127,note_on,5,0,4,,,,,,,,,3,,,,64,100
84127,note_on,0,0,14,,,,,,,,,13,,,,60,112
84127,control_change,600,0,14,,,,,,,,,13,11,50,,,
84129,control_change,600,0,15,,,,,,,,,14,11,50,,,
84129,note_on,0,0,15,,,,,,,,,14,,,,48,112
84139,control_change,19,0,11,,,,,,,,,10,11,53,,,
84141,control_change,19,0,12,,,,,,,,,11,11,53,,,
84144,control_change,19,0,13,,,,,,,,,12,11,53,,,
84146,control_change,19,0,14,,,,,,,,,13,11,53,,,
84148,control_change,19,0,15,,,,,,,,,14,11,53,,,
84150,note_on,11,0,11,,,,,,,,,10,,,,76,0
84151,note_on,30,0,5,,,,,,,,,4,,,,67,0
84152,note_on,11,0,12,,,,,,,,,11,,,,72,0
84152,note_on,0,0,3,,,,,,,,,2,,,,76,0
84152,note_on,30,0,3,,,,,,,,,2,,,,72,0
84153,note_on,30,0,6,,,,,,,,,5,,,,60,0
84155,note_on,11,0,13,,,,,,,,,12,,,,67,0
84157,note_on,0,0,4,,,,,,,,,3,,,,64,0
84157,note_on,30,0,4,,,,,,,,,3,,,,60,0
84157,note_on,11,0,14,,,,,,,,,13,,,,60,0
84159,note_on,11,0,15,,,,,,,,,14,,,,48,0
84159,control_change,9,0,11,,,,,,,,,10,11,56,,,
84161,control_change,9,0,12,,,,,,,,,11,11,56,,,
84164,control_change,9,0,13,,,,,,,,,12,11,56,,,
84166,control_change,9,0,14,,,,,,,,,13,11,56,,,
84168,control_change,9,0,15,,,,,,,,,14,11,56,,,
84178,control_change,19,0,11,,,,,,,,,10,11,58,,,
84180,control_change,19,0,12,,,,,,,,,11,11,58,,,
84180,note_on,2,0,11,,,,,,,,,10,,,,78,112
84182,note_on,2,0,12,,,,,,,,,11,,,,75,112
84183,control_change,19,0,13,,,,,,,,,12,11,58,,,
84185,control_change,19,0,14,,,,,,,,,13,11,58,,,
84185,note_on,2,0,13,,,,,,,,,12,,,,71,112
84187,note_on,2,0,14,,,,,,,,,13,,,,59,112
84187,control_change,19,0,15,,,,,,,,,14,11,58,,,
84189,note_on,2,0,15,,,,,,,,,14,,,,47,112
84198,control_change,18,0,11,,,,,,,,,10,11,61,,,
84200,control_change,18,0,12,,,,,,,,,11,11,61,,,
84203,control_change,18,0,13,,,,,,,,,12,11,61,,,
84205,control_change,18,0,14,,,,,,,,,13,11,61,,,
84207,control_change,18,0,15,,,,,,,,,14,11,61,,,
84210,note_on,12,0,11,,,,,,,,,10,,,,78,0
84212,note_on,12,0,12,,,,,,,,,11,,,,75,0
84215,note_on,12,0,13,,,,,,,,,12,,,,71,0
84217,note_on,12,0,14,,,,,,,,,13,,,,59,0
84218,control_change,8,0,11,,,,,,,,,10,11,64,,,
84219,note_on,12,0,15,,,,,,,,,14,,,,47,0
84220,control_change,8,0,12,,,,,,,,,11,11,64,,,
84223,control_change,8,0,13,,,,,,,,,12,11,64,,,
84225,control_change,8,0,14,,,,,,,,,13,11,64,,,
84227,control_change,8,0,15,,,,,,,,,14,11,64,,,
84237,control_change,19,0,11,,,,,,,,,10,11,67,,,
84239,control_change,19,0,12,,,,,,,,,11,11,67,,,
84240,note_on,3,0,11,,,,,,,,,10,,,,79,112
84240,set_tempo,120,1,0,,,,,,1132075,,,,,,,,
84241,control_change,1560,0,1,,,,,,,,,0,11,60,,,
84242,note_on,0,0,3,,,,,,,,,2,,,,67,101
84242,control_change,90,0,3,,,,,,,,,2,11,60,,,
84242,control_change,720,0,2,,,,,,,,,1,11,60,,,
84242,note_on,3,0,12,,,,,,,,,11,,,,76,112
84242,note_on,0,0,3,,,,,,,,,2,,,,64,101
84242,control_change,19,0,13,,,,,,,,,12,11,67,,,
84244,control_change,19,0,14,,,,,,,,,13,11,67,,,
84245,note_on,3,0,13,,,,,,,,,12,,,,71,112
84246,control_change,19,0,15,,,,,,,,,14,11,67,,,
84247,note_on,3,0,14,,,,,,,,,13,,,,64,112
84247,note_on,0,0,4,,,,,,,,,3,,,,52,100
84247,note_on,0,0,4,,,,,,,,,3,,,,55,100
84247,control_change,90,0,4,,,,,,,,,3,11,62,,,
84249,note_on,3,0,15,,,,,,,,,14,,,,52,112
84257,control_change,17,0,11,,,,,,,,,10,11,70,,,
84259,control_change,17,0,12,,,,,,,,,11,11,70,,,
84262,control_change,21,0,1,,,,,,,,,0,11,63,,,
84262,control_change,17,0,13,,,,,,,,,12,11,70,,,
84263,control_change,21,0,2,,,,,,,,,1,11,63,,,
84263,control_change,21,0,3,,,,,,,,,2,11,63,,,
84264,control_change,17,0,14,,,,,,,,,13,11,70,,,
84266,control_change,17,0,15,,,,,,,,,14,11,70,,,
84268,control_change,21,0,4,,,,,,,,,3,11,65,,,
84270,note_on,13,0,11,,,,,,,,,10,,,,79,0
84272,note_on,13,0,12,,,,,,,,,11,,,,76,0
84272,note_on,9,0,3,,,,,,,,,2,,,,64,0
84272,note_on,0,0,3,,,,,,,,,2,,,,67,0
84275,note_on,13,0,13,,,,,,,,,12,,,,71,0
84277,note_on,9,0,4,,,,,,,,,3,,,,52,0
84277,note_on,13,0,14,,,,,,,,,13,,,,64,0
84277,control_change,7,0,11,,,,,,,,,10,11,72,,,
84277,note_on,0,0,4,,,,,,,,,3,,,,55,0
84277,control_change,15,0,1,,,,,,,,,0,11,64,,,
84278,control_change,6,0,3,,,,,,,,,2,11,64,,,
84278,control_change,15,0,2,,,,,,,,,1,11,64,,,
84279,note_on,13,0,15,,,,,,,,,14,,,,52,0
84279,control_change,7,0,12,,,,,,,,,11,11,72,,,
84282,control_change,7,0,13,,,,,,,,,12,11,72,,,
84283,control_change,6,0,4,,,,,,,,,3,11,67,,,
84284,control_change,7,0,14,,,,,,,,,13,11,72,,,
84286,control_change,7,0,15,,,,,,,,,14,11,72,,,
84296,control_change,19,0,11,,,,,,,,,10,11,75,,,
84298,control_change,19,0,12,,,,,,,,,11,11,75,,,
84298,control_change,21,0,1,,,,,,,,,0,11,66,,,
84299,control_change,21,0,2,,,,,,,,,1,11,66,,,
84299,control_change,21,0,3,,,,,,,,,2,11,66,,,
84300,note_on,4,0,11,,,,,,,,,10,,,,81,112
84301,control_change,19,0,13,,,,,,,,,12,11,75,,,
84302,note_on,0,0,12,,,,,,,,,11,,,,78,112
84302,note_on,0,0,3,,,,,,,,,2,,,,66,101
84302,note_on,3,0,3,,,,,,,,,2,,,,69,101
84302,note_on,4,0,12,,,,,,,,,11,,,,69,112
84303,control_change,19,0,14,,,,,,,,,13,11,75,,,
84304,control_change,21,0,4,,,,,,,,,3,11,70,,,
84305,note_on,4,0,13,,,,,,,,,12,,,,74,112
84305,control_change,19,0,15,,,,,,,,,14,11,75,,,
84307,note_on,4,0,14,,,,,,,,,13,,,,62,112
84307,note_on,3,0,4,,,,,,,,,3,,,,62,100
84307,note_on,0,0,4,,,,,,,,,3,,,,57,100
84309,note_on,4,0,15,,,,,,,,,14,,,,50,112
84313,control_change,15,0,1,,,,,,,,,0,11,68,,,
84314,control_change,12,0,3,,,,,,,,,2,11,68,,,
84314,control_change,15,0,2,,,,,,,,,1,11,68,,,
84316,control_change,16,0,11,,,,,,,,,10,11,78,,,
84318,control_change,16,0,12,,,,,,,,,11,11,78,,,
84319,control_change,12,0,4,,,,,,,,,3,11,72,,,
84321,control_change,16,0,13,,,,,,,,,12,11,78,,,
84323,control_change,16,0,14,,,,,,,,,13,11,78,,,
84325,control_change,16,0,15,,,,,,,,,14,11,78,,,
84330,note_on,14,0,11,,,,,,,,,10,,,,81,0
84332,note_on,14,0,12,,,,,,,,,11,,,,78,0
84332,note_on,18,0,3,,,,,,,,,2,,,,66,0
84332,note_on,0,0,3,,,,,,,,,2,,,,69,0
84332,note_on,0,0,12,,,,,,,,,11,,,,69,0
84334,control_change,21,0,1,,,,,,,,,0,11,70,,,
84335,note_on,14,0,13,,,,,,,,,12,,,,74,0
84335,control_change,21,0,2,,,,,,,,,1,11,70,,,
84335,control_change,3,0,3,,,,,,,,,2,11,70,,,
84336,control_change,6,0,11,,,,,,,,,10,11,81,,,
84337,note_on,0,0,4,,,,,,,,,3,,,,62,0
84337,note_on,18,0,4,,,,,,,,,3,,,,57,0
84337,note_on,14,0,14,,,,,,,,,13,,,,62,0
84338,control_change,6,0,12,,,,,,,,,11,11,81,,,
84339,note_on,14,0,15,,,,,,,,,14,,,,50,0
84340,control_change,3,0,4,,,,,,,,,3,11,75,,,
84341,control_change,6,0,13,,,,,,,,,12,11,81,,,
84343,control_change,6,0,14,,,,,,,,,13,11,81,,,
84345,control_change,6,0,15,,,,,,,,,14,11,81,,,
84349,control_change,15,0,1,,,,,,,,,0,11,72,,,
84350,control_change,15,0,2,,,,,,,,,1,11,72,,,
84350,control_change,15,0,3,,,,,,,,,2,11,72,,,
84355,control_change,19,0,11,,,,,,,,,10,11,84,,,
84355,control_change,15,0,4,,,,,,,,,3,11,77,,,
84357,control_change,19,0,12,,,,,,,,,11,11,84,,,
84360,note_on,5,0,11,,,,,,,,,10,,,,83,112
84360,control_change,19,0,13,,,,,,,,,12,11,84,,,
84360,set_tempo,120,1,0,,,,,,1142857,,,,,,,,
84361,note_on,12,0,1,,,,,,,,,0,,,,83,101
84361,note_on,0,0,1,,,,,,,,,0,,,,79,101
84362,note_on,0,0,3,,,,,,,,,2,,,,67,101
84362,note_on,0,0,12,,,,,,,,,11,,,,79,112
84362,note_on,12,0,2,,,,,,,,,1,,,,71,100
84362,control_change,19,0,14,,,,,,,,,13,11,84,,,
84362,note_on,0,0,2,,,,,,,,,1,,,,74,100
84362,note_on,12,0,3,,,,,,,,,2,,,,71,101
84362,note_on,5,0,12,,,,,,,,,11,,,,71,112
84364,control_change,19,0,15,,,,,,,,,14,11,84,,,
84365,note_on,5,0,13,,,,,,,,,12,,,,74,112
84367,note_on,0,0,4,,,,,,,,,3,,,,59,100
84367,note_on,12,0,4,,,,,,,,,3,,,,62,100
84367,note_on,5,0,14,,,,,,,,,13,,,,55,112
84369,note_on,5,0,15,,,,,,,,,14,,,,43,112
84370,control_change,9,0,1,,,,,,,,,0,11,74,,,
84371,control_change,9,0,2,,,,,,,,,1,11,74,,,
84371,control_change,9,0,3,,,,,,,,,2,11,74,,,
84375,control_change,15,0,11,,,,,,,,,10,11,87,,,
84376,control_change,9,0,4,,,,,,,,,3,11,80,,,
84377,control_change,15,0,12,,,,,,,,,11,11,87,,,
84380,control_change,15,0,13,,,,,,,,,12,11,87,,,
84382,control_change,15,0,14,,,,,,,,,13,11,87,,,
84384,control_change,15,0,15,,,,,,,,,14,11,87,,,
84385,control_change,15,0,1,,,,,,,,,0,11,75,,,
84386,control_change,15,0,2,,,,,,,,,1,11,75,,,
84386,control_change,15,0,3,,,,,,,,,2,11,75,,,
84390,note_on,15,0,11,,,,,,,,,10,,,,83,0
84391,note_on,6,0,1,,,,,,,,,0,,,,79,0
84391,note_on,0,0,1,,,,,,,,,0,,,,83,0
84391,control_change,15,0,4,,,,,,,,,3,11,82,,,
84392,note_on,0,0,3,,,,,,,,,2,,,,71,0
84392,note_on,15,0,12,,,,,,,,,11,,,,79,0
84392,note_on,0,0,12,,,,,,,,,11,,,,71,0
84392,note_on,6,0,3,,,,,,,,,2,,,,67,0
84392,note_on,6,0,2,,,,,,,,,1,,,,74,0
84392,note_on,0,0,2,,,,,,,,,1,,,,71,0
84394,control_change,4,0,11,,,,,,,,,10,11,89,,,
84395,note_on,15,0,13,,,,,,,,,12,,,,74,0
84396,control_change,4,0,12,,,,,,,,,11,11,89,,,
84397,note_on,0,0,4,,,,,,,,,3,,,,62,0
84397,note_on,6,0,4,,,,,,,,,3,,,,59,0
84397,note_on,15,0,14,,,,,,,,,13,,,,55,0
84399,control_change,4,0,13,,,,,,,,,12,11,89,,,
84399,note_on,15,0,15,,,,,,,,,14,,,,43,0
84401,control_change,4,0,14,,,,,,,,,13,11,89,,,
84403,control_change,4,0,15,,,,,,,,,14,11,89,,,
84406,control_change,15,0,1,,,,,,,,,0,11,78,,,
84407,control_change,15,0,2,,,,,,,,,1,11,78,,,
84407,control_change,15,0,3,,,,,,,,,2,11,78,,,
84412,control_change,15,0,4,,,,,,,,,3,11,85,,,
84414,control_change,20,0,11,,,,,,,,,10,11,92,,,
84416,control_change,20,0,12,,,,,,,,,11,11,92,,,
84419,control_change,20,0,13,,,,,,,,,12,11,92,,,
84420,note_on,6,0,11,,,,,,,,,10,,,,85,112
84421,note_on,0,0,1,,,,,,,,,0,,,,85,101
84421,note_on,0,0,1,,,,,,,,,0,,,,82,101
84421,control_change,20,0,14,,,,,,,,,13,11,92,,,
84421,control_change,15,0,1,,,,,,,,,0,11,79,,,
84422,control_change,15,0,3,,,,,,,,,2,11,79,,,
84422,note_on,0,0,2,,,,,,,,,1,,,,78,100
84422,control_change,15,0,2,,,,,,,,,1,11,79,,,
84422,note_on,0,0,12,,,,,,,,,11,,,,82,112
84422,note_on,0,0,3,,,,,,,,,2,,,,73,101
84422,note_on,6,0,12,,,,,,,,,11,,,,73,112
84422,note_on,0,0,2,,,,,,,,,1,,,,73,100
84422,note_on,0,0,3,,,,,,,,,2,,,,70,101
84423,control_change,20,0,15,,,,,,,,,14,11,92,,,
84425,note_on,6,0,13,,,,,,,,,12,,,,66,112
84427,note_on,0,0,4,,,,,,,,,3,,,,66,100
84427,note_on,0,0,4,,,,,,,,,3,,,,61,100
84427,control_change,15,0,4,,,,,,,,,3,11,87,,,
84427,note_on,6,0,14,,,,,,,,,13,,,,54,112
84429,note_on,6,0,15,,,,,,,,,14,,,,42,112
84434,control_change,14,0,11,,,,,,,,,10,11,95,,,
84436,control_change,14,0,12,,,,,,,,,11,11,95,,,
84439,control_change,14,0,13,,,,,,,,,12,11,95,,,
84441,control_change,14,0,14,,,,,,,,,13,11,95,,,
84443,control_change,14,0,15,,,,,,,,,14,11,95,,,
84450,note_on,16,0,11,,,,,,,,,10,,,,85,0
84451,note_on,0,0,1,,,,,,,,,0,,,,85,0
84451,note_on,30,0,1,,,,,,,,,0,,,,82,0
84452,note_on,0,0,2,,,,,,,,,1,,,,73,0
84452,note_on,30,0,3,,,,,,,,,2,,,,70,0
84452,note_on,16,0,12,,,,,,,,,11,,,,82,0
84452,note_on,0,0,3,,,,,,,,,2,,,,73,0
84452,note_on,30,0,2,,,,,,,,,1,,,,78,0
84452,note_on,0,0,12,,,,,,,,,11,,,,73,0
84453,control_change,3,0,11,,,,,,,,,10,11,98,,,
84455,control_change,3,0,12,,,,,,,,,11,11,98,,,
84455,note_on,16,0,13,,,,,,,,,12,,,,66,0
84457,note_on,0,0,4,,,,,,,,,3,,,,66,0
84457,note_on,30,0,4,,,,,,,,,3,,,,61,0
84457,note_on,16,0,14,,,,,,,,,13,,,,54,0
84458,control_change,3,0,13,,,,,,,,,12,11,98,,,
84459,note_on,16,0,15,,,,,,,,,14,,,,42,0
84460,control_change,3,0,14,,,,,,,,,13,11,98,,,
84462,control_change,3,0,15,,,,,,,,,14,11,98,,,
84473,control_change,20,0,11,,,,,,,,,10,11,101,,,
84475,control_change,20,0,12,,,,,,,,,11,11,101,,,
84478,control_change,20,0,13,,,,,,,,,12,11,101,,,
84480,note_on,7,0,11,,,,,,,,,10,,,,87,112
84480,control_change,20,0,14,,,,,,,,,13,11,101,,,
84480,set_tempo,120,1,0,,,,,,1200000,,,,,,,,
84482,note_on,0,0,7,,,,,,,,,6,,,,69,112
84482,control_change,4090,0,7,,,,,,,,,6,11,102,,,
84482,control_change,20,0,15,,,,,,,,,14,11,101,,,
84482,note_on,0,0,7,,,,,,,,,6,,,,57,112
84482,note_on,7,0,12,,,,,,,,,11,,,,78,112
84485,note_on,7,0,13,,,,,,,,,12,,,,69,112
84486,note_on,0,0,9,,,,,,,,,8,,,,47,110
84486,control_change,840,0,9,,,,,,,,,8,11,102,,,
84487,note_on,7,0,14,,,,,,,,,13,,,,47,112
84488,note_on,11340,0,10,,,,,,,,,15,,,,45,73
84489,note_on,7,0,15,,,,,,,,,14,,,,35,112
84495,note_on,7,0,10,,,,,,,,,15,,,,45,73
84496,note_on,1,0,10,,,,,,,,,15,,,,45,0
84503,note_on,0,0,10,,,,,,,,,15,,,,45,73
84503,note_on,7,0,10,,,,,,,,,15,,,,45,0
84510,note_on,7,0,10,,,,,,,,,15,,,,45,73
84511,note_on,1,0,10,,,,,,,,,15,,,,45,0
84518,note_on,0,0,10,,,,,,,,,15,,,,45,73
84518,note_on,7,0,10,,,,,,,,,15,,,,45,0
84525,note_on,7,0,10,,,,,,,,,15,,,,45,73
84526,note_on,1,0,10,,,,,,,,,15,,,,45,0
84533,note_on,0,0,10,,,,,,,,,15,,,,45,73
84533,note_on,7,0,10,,,,,,,,,15,,,,45,0
84540,set_tempo,60,1,0,,,,,,1111111,,,,,,,,
84540,note_on,7,0,10,,,,,,,,,15,,,,45,73
84541,note_on,1,0,10,,,,,,,,,15,,,,45,0
84548,note_on,0,0,10,,,,,,,,,15,,,,45,73
84548,note_on,7,0,10,,,,,,,,,15,,,,45,0
84555,note_on,7,0,10,,,,,,,,,15,,,,45,73
84556,note_on,1,0,10,,,,,,,,,15,,,,45,0
84563,note_on,7,0,10,,,,,,,,,15,,,,45,0
84563,note_on,0,0,10,,,,,,,,,15,,,,45,73
84570,note_on,7,0,10,,,,,,,,,15,,,,45,73
84571,note_on,1,0,10,,,,,,,,,15,,,,45,0
84578,note_on,0,0,10,,,,,,,,,15,,,,45,73
84578,note_on,7,0,10,,,,,,,,,15,,,,45,0
84585,note_on,7,0,10,,,,,,,,,15,,,,45,73
84586,note_on,1,0,10,,,,,,,,,15,,,,45,0
84593,note_on,0,0,10,,,,,,,,,15,,,,45,73
84593,note_on,7,0,10,,,,,,,,,15,,,,45,0
84600,set_tempo,60,1,0,,,,,,1188119,,,,,,,,
84600,note_on,7,0,10,,,,,,,,,15,,,,45,73
84601,note_on,1,0,10,,,,,,,,,15,,,,45,0
84601,note_on,0,0,1,,,,,,,,,0,,,,87,116
84601,note_on,0,0,1,,,,,,,,,0,,,,81,116
84601,control_change,150,0,1,,,,,,,,,0,11,91,,,
84602,note_on,0,0,2,,,,,,,,,1,,,,78,115
84602,control_change,0,0,2,,,,,,,,,1,11,91,,,
84602,note_on,150,0,2,,,,,,,,,1,,,,75,115
84602,control_change,150,0,3,,,,,,,,,2,11,91,,,
84602,note_on,0,0,3,,,,,,,,,2,,,,69,116
84602,note_on,0,0,3,,,,,,,,,2,,,,66,116
84607,note_on,0,0,4,,,,,,,,,3,,,,59,115
84607,note_on,0,0,4,,,,,,,,,3,,,,63,115
84607,control_change,150,0,4,,,,,,,,,3,11,102,,,
84608,note_on,7,0,10,,,,,,,,,15,,,,45,0
84608,note_on,0,0,10,,,,,,,,,15,,,,45,82
84660,set_tempo,60,1,0,,,,,,1111111,,,,,,,,
84668,note_on,60,0,10,,,,,,,,,15,,,,45,0
84690,set_tempo,30,1,0,,,,,,1276596,,,,,,,,
84710,note_on,230,0,11,,,,,,,,,10,,,,87,0
84712,note_on,230,0,12,,,,,,,,,11,,,,78,0
84712,note_on,230,0,7,,,,,,,,,6,,,,57,0
84712,note_on,0,0,7,,,,,,,,,6,,,,69,0
84715,note_on,230,0,13,,,,,,,,,12,,,,69,0
84716,note_on,115,0,1,,,,,,,,,0,,,,81,0
84716,note_on,230,0,9,,,,,,,,,8,,,,47,0
84716,note_on,0,0,1,,,,,,,,,0,,,,87,0
84717,note_on,115,0,2,,,,,,,,,1,,,,78,0
84717,note_on,115,0,3,,,,,,,,,2,,,,69,0
84717,note_on,0,0,3,,,,,,,,,2,,,,66,0
84717,note_on,0,0,2,,,,,,,,,1,,,,75,0
84717,note_on,230,0,14,,,,,,,,,13,,,,47,0
84719,note_on,230,0,15,,,,,,,,,14,,,,35,0
84720,set_tempo,30,1,0,,,,,,1200000,,,,,,,,
84720,note_on,10,0,11,,,,,,,,,10,,,,88,112
84722,note_on,10,0,12,,,,,,,,,11,,,,81,112
84722,note_on,0,0,7,,,,,,,,,6,,,,57,112
84722,note_on,10,0,7,,,,,,,,,6,,,,69,112
84722,note_on,115,0,4,,,,,,,,,3,,,,59,0
84722,note_on,0,0,4,,,,,,,,,3,,,,63,0
84725,note_on,10,0,13,,,,,,,,,12,,,,72,112
84726,note_on,10,0,9,,,,,,,,,8,,,,45,110
84727,note_on,10,0,14,,,,,,,,,13,,,,45,112
84728,note_on,60,0,10,,,,,,,,,15,,,,45,73
84729,note_on,10,0,15,,,,,,,,,14,,,,33,112
84735,note_on,7,0,10,,,,,,,,,15,,,,45,73
84736,note_on,1,0,10,,,,,,,,,15,,,,45,0
84743,note_on,0,0,10,,,,,,,,,15,,,,45,73
84743,note_on,7,0,10,,,,,,,,,15,,,,45,0
84750,note_on,7,0,10,,,,,,,,,15,,,,45,73
84751,note_on,1,0,10,,,,,,,,,15,,,,45,0
84758,note_on,0,0,10,,,,,,,,,15,,,,45,73
84758,note_on,7,0,10,,,,,,,,,15,,,,45,0
84765,note_on,7,0,10,,,,,,,,,15,,,,45,73
84766,note_on,1,0,10,,,,,,,,,15,,,,45,0
84773,note_on,0,0,10,,,,,,,,,15,,,,45,73
84773,note_on,7,0,10,,,,,,,,,15,,,,45,0
84780,note_on,7,0,10,,,,,,,,,15,,,,45,73
84780,set_tempo,60,1,0,,,,,,1111111,,,,,,,,
84781,note_on,1,0,10,,,,,,,,,15,,,,45,0
84788,note_on,0,0,10,,,,,,,,,15,,,,45,73
84788,note_on,7,0,10,,,,,,,,,15,,,,45,0
84795,note_on,7,0,10,,,,,,,,,15,,,,45,73
84796,note_on,1,0,10,,,,,,,,,15,,,,45,0
84803,note_on,0,0,10,,,,,,,,,15,,,,45,73
84803,note_on,7,0,10,,,,,,,,,15,,,,45,0
84810,note_on,7,0,10,,,,,,,,,15,,,,45,73
84811,note_on,1,0,10,,,,,,,,,15,,,,45,0
84818,note_on,0,0,10,,,,,,,,,15,,,,45,73
84818,note_on,7,0,10,,,,,,,,,15,,,,45,0
84825,note_on,7,0,10,,,,,,,,,15,,,,45,73
84826,note_on,1,0,10,,,,,,,,,15,,,,45,0
84833,note_on,0,0,10,,,,,,,,,15,,,,45,73
84833,note_on,7,0,10,,,,,,,,,15,,,,45,0
84840,set_tempo,60,1,0,,,,,,1188119,,,,,,,,
84840,note_on,7,0,10,,,,,,,,,15,,,,45,73
84841,note_on,0,0,1,,,,,,,,,0,,,,88,116
84841,note_on,0,0,5,,,,,,,,,4,,,,64,115
84841,note_on,1,0,10,,,,,,,,,15,,,,45,0
84841,note_on,125,0,1,,,,,,,,,0,,,,84,116
84841,control_change,690,0,5,,,,,,,,,4,11,102,,,
84842,note_on,125,0,2,,,,,,,,,1,,,,76,115
84842,note_on,0,0,2,,,,,,,,,1,,,,81,115
84842,note_on,125,0,3,,,,,,,,,2,,,,69,116
84842,note_on,0,0,3,,,,,,,,,2,,,,72,116
84843,control_change,0,0,6,,,,,,,,,5,11,102,,,
84843,note_on,690,0,6,,,,,,,,,5,,,,60,115
84847,note_on,0,0,4,,,,,,,,,3,,,,64,115
84847,note_on,125,0,4,,,,,,,,,3,,,,60,115
84848,note_on,0,0,10,,,,,,,,,15,,,,45,82
84848,note_on,7,0,10,,,,,,,,,15,,,,45,0
84900,set_tempo,60,1,0,,,,,,1111111,,,,,,,,
84908,note_on,60,0,10,,,,,,,,,15,,,,45,0
84930,set_tempo,30,1,0,,,,,,1363636,,,,,,,,
84950,note_on,230,0,11,,,,,,,,,10,,,,88,0
84951,note_on,110,0,5,,,,,,,,,4,,,,64,0
84952,note_on,230,0,12,,,,,,,,,11,,,,81,0
84952,note_on,0,0,7,,,,,,,,,6,,,,69,0
84952,note_on,230,0,7,,,,,,,,,6,,,,57,0
84953,note_on,110,0,6,,,,,,,,,5,,,,60,0
84955,note_on,230,0,13,,,,,,,,,12,,,,72,0
84956,note_on,0,0,1,,,,,,,,,0,,,,84,0
84956,note_on,115,0,1,,,,,,,,,0,,,,88,0
84956,note_on,230,0,9,,,,,,,,,8,,,,45,0
84957,note_on,0,0,3,,,,,,,,,2,,,,69,0
84957,note_on,115,0,2,,,,,,,,,1,,,,81,0
84957,note_on,115,0,3,,,,,,,,,2,,,,72,0
84957,note_on,230,0,14,,,,,,,,,13,,,,45,0
84957,note_on,0,0,2,,,,,,,,,1,,,,76,0
84959,note_on,230,0,15,,,,,,,,,14,,,,33,0
84960,set_tempo,30,1,0,,,,,,1200000,,,,,,,,
84961,note_on,0,0,5,,,,,,,,,4,,,,62,115
84961,control_change,10,0,5,,,,,,,,,4,11,42,,,
84962,note_on,115,0,4,,,,,,,,,3,,,,64,0
84962,note_on,0,0,3,,,,,,,,,2,,,,68,116
84962,note_on,0,0,4,,,,,,,,,3,,,,60,0
84962,note_on,0,0,2,,,,,,,,,1,,,,74,115
84962,note_on,0,0,2,,,,,,,,,1,,,,80,115
84962,control_change,5,0,2,,,,,,,,,1,11,42,,,
84962,note_on,0,0,3,,,,,,,,,2,,,,71,116
84962,control_change,5,0,3,,,,,,,,,2,11,42,,,
84963,note_on,0,0,6,,,,,,,,,5,,,,52,115
84963,control_change,10,0,6,,,,,,,,,5,11,42,,,
84966,control_change,10,0,9,,,,,,,,,8,11,47,,,
84966,note_on,0,0,9,,,,,,,,,8,,,,52,110
84967,note_on,0,0,4,,,,,,,,,3,,,,59,115
84967,note_on,0,0,4,,,,,,,,,3,,,,56,115
84967,control_change,5,0,4,,,,,,,,,3,11,42,,,
85079,program_change,129,0,11,,,,,,,,45,10,,,,,
85080,note_on,0,0,11,,,,,,,,,10,,,,68,59
85080,control_change,1,0,11,,,,,,,,,10,11,57,,,
85081,program_change,129,0,12,,,,,,,,45,11,,,,,
85082,control_change,1,0,12,,,,,,,,,11,11,57,,,
85082,note_on,0,0,12,,,,,,,,,11,,,,62,59
85084,program_change,129,0,13,,,,,,,,45,12,,,,,
85085,control_change,1,0,13,,,,,,,,,12,11,57,,,
85085,note_on,0,0,13,,,,,,,,,12,,,,59,59
85086,program_change,129,0,14,,,,,,,,45,13,,,,,
85087,note_on,0,0,14,,,,,,,,,13,,,,52,59
85087,control_change,1,0,14,,,,,,,,,13,11,57,,,
85088,program_change,129,0,15,,,,,,,,45,14,,,,,
85089,control_change,1,0,15,,,,,,,,,14,11,67,,,
85089,note_on,0,0,15,,,,,,,,,14,,,,40,59
85140,note_on,60,0,11,,,,,,,,,10,,,,68,0
85142,note_on,60,0,12,,,,,,,,,11,,,,62,0
85145,note_on,60,0,13,,,,,,,,,12,,,,59,0
85147,note_on,60,0,14,,,,,,,,,13,,,,52,0
85149,note_on,60,0,15,,,,,,,,,14,,,,40,0
85191,note_on,230,0,5,,,,,,,,,4,,,,62,0
85192,note_on,230,0,3,,,,,,,,,2,,,,71,0
85192,note_on,230,0,2,,,,,,,,,1,,,,74,0
85192,note_on,0,0,2,,,,,,,,,1,,,,80,0
85192,note_on,0,0,3,,,,,,,,,2,,,,68,0
85193,note_on,230,0,6,,,,,,,,,5,,,,52,0
85196,note_on,230,0,9,,,,,,,,,8,,,,52,0
85197,note_on,230,0,4,,,,,,,,,3,,,,59,0
85197,note_on,0,0,4,,,,,,,,,3,,,,56,0
85200,set_tempo,240,1,0,,,,,,1237113,,,,,,,,
85201,note_on,10,0,5,,,,,,,,,4,,,,65,115
85202,note_on,0,0,2,,,,,,,,,1,,,,81,115
85202,note_on,10,0,3,,,,,,,,,2,,,,69,116
85202,note_on,0,0,3,,,,,,,,,2,,,,74,116
85202,note_on,10,0,2,,,,,,,,,1,,,,77,115
85203,note_on,10,0,6,,,,,,,,,5,,,,62,115
85206,note_on,10,0,9,,,,,,,,,8,,,,50,110
85207,note_on,0,0,4,,,,,,,,,3,,,,62,115
85207,note_on,10,0,4,,,,,,,,,3,,,,57,115
85320,note_on,180,0,11,,,,,,,,,10,,,,69,49
85322,note_on,180,0,12,,,,,,,,,11,,,,65,49
85325,note_on,180,0,13,,,,,,,,,12,,,,62,59
85327,note_on,180,0,14,,,,,,,,,13,,,,50,59
85329,note_on,180,0,15,,,,,,,,,14,,,,38,59
85380,note_on,60,0,11,,,,,,,,,10,,,,69,0
85382,note_on,60,0,12,,,,,,,,,11,,,,65,0
85385,note_on,60,0,13,,,,,,,,,12,,,,62,0
85387,note_on,60,0,14,,,,,,,,,13,,,,50,0
85389,note_on,60,0,15,,,,,,,,,14,,,,38,0
85431,note_on,230,0,5,,,,,,,,,4,,,,65,0
85432,note_on,230,0,2,,,,,,,,,1,,,,81,0
85432,note_on,0,0,2,,,,,,,,,1,,,,77,0
85432,note_on,230,0,3,,,,,,,,,2,,,,74,0
85432,note_on,0,0,3,,,,,,,,,2,,,,69,0
85433,note_on,230,0,6,,,,,,,,,5,,,,62,0
85436,note_on,230,0,9,,,,,,,,,8,,,,50,0
85437,note_on,230,0,4,,,,,,,,,3,,,,62,0
85437,note_on,0,0,4,,,,,,,,,3,,,,57,0
85440,set_tempo,240,1,0,,,,,,1200000,,,,,,,,
85441,note_on,0,0,1,,,,,,,,,0,,,,81,101
85441,note_on,0,0,1,,,,,,,,,0,,,,84,101
85441,note_on,10,0,5,,,,,,,,,4,,,,60,100
85441,control_change,485,0,1,,,,,,,,,0,11,47,,,
85442,note_on,10,0,3,,,,,,,,,2,,,,69,101
85442,note_on,10,0,2,,,,,,,,,1,,,,81,100
85442,note_on,0,0,2,,,,,,,,,1,,,,72,100
85442,note_on,0,0,3,,,,,,,,,2,,,,72,101
85443,note_on,10,0,6,,,,,,,,,5,,,,52,100
85447,note_on,10,0,4,,,,,,,,,3,,,,52,100
85447,note_on,0,0,4,,,,,,,,,3,,,,57,100
85500,set_tempo,60,1,0,,,,,,1111111,,,,,,,,
85501,note_on,60,0,5,,,,,,,,,4,,,,60,0
85501,note_on,60,0,1,,,,,,,,,0,,,,81,0
85501,note_on,0,0,1,,,,,,,,,0,,,,84,0
85501,note_on,0,0,1,,,,,,,,,0,,,,86,101
85501,note_on,0,0,1,,,,,,,,,0,,,,83,101
85501,note_on,0,0,5,,,,,,,,,4,,,,62,100
85502,note_on,0,0,3,,,,,,,,,2,,,,69,0
85502,note_on,0,0,2,,,,,,,,,1,,,,83,100
85502,note_on,0,0,2,,,,,,,,,1,,,,74,100
85502,note_on,0,0,2,,,,,,,,,1,,,,81,0
85502,note_on,60,0,3,,,,,,,,,2,,,,72,0
85502,note_on,0,0,3,,,,,,,,,2,,,,74,101
85502,note_on,60,0,2,,,,,,,,,1,,,,72,0
85502,note_on,0,0,3,,,,,,,,,2,,,,71,101
85507,note_on,60,0,4,,,,,,,,,3,,,,57,0
85507,note_on,0,0,4,,,,,,,,,3,,,,59,100
85531,note_on,30,0,1,,,,,,,,,0,,,,83,0
85531,note_on,30,0,5,,,,,,,,,4,,,,62,0
85531,note_on,0,0,1,,,,,,,,,0,,,,84,101
85531,note_on,0,0,1,,,,,,,,,0,,,,88,101
85531,note_on,0,0,1,,,,,,,,,0,,,,86,0
85531,note_on,0,0,5,,,,,,,,,4,,,,64,100
85532,note_on,0,0,3,,,,,,,,,2,,,,76,101
85532,note_on,30,0,2,,,,,,,,,1,,,,83,0
85532,note_on,0,0,2,,,,,,,,,1,,,,84,100
85532,note_on,30,0,3,,,,,,,,,2,,,,71,0
85532,note_on,0,0,3,,,,,,,,,2,,,,74,0
85532,note_on,0,0,2,,,,,,,,,1,,,,74,0
85532,note_on,0,0,3,,,,,,,,,2,,,,72,101
85532,note_on,0,0,2,,,,,,,,,1,,,,76,100
85537,note_on,0,0,4,,,,,,,,,3,,,,60,100
85537,note_on,30,0,4,,,,,,,,,3,,,,59,0
85556,note_on,25,0,5,,,,,,,,,4,,,,64,0
85556,note_on,25,0,1,,,,,,,,,0,,,,84,0
85556,note_on,0,0,1,,,,,,,,,0,,,,88,0
85557,note_on,0,0,3,,,,,,,,,2,,,,72,0
85557,note_on,25,0,3,,,,,,,,,2,,,,76,0
85557,note_on,25,0,2,,,,,,,,,1,,,,84,0
85557,note_on,0,0,2,,,,,,,,,1,,,,76,0
85558,note_on,115,0,6,,,,,,,,,5,,,,52,0
85560,note_on,180,0,11,,,,,,,,,10,,,,64,59
85560,set_tempo,60,1,0,,,,,,1188119,,,,,,,,
85561,note_on,5,0,5,,,,,,,,,4,,,,60,100
85561,note_on,0,0,1,,,,,,,,,0,,,,84,101
85561,note_on,5,0,1,,,,,,,,,0,,,,81,101
85562,note_on,180,0,12,,,,,,,,,11,,,,64,59
85562,note_on,5,0,2,,,,,,,,,1,,,,81,100
85562,note_on,25,0,4,,,,,,,,,3,,,,60,0
85562,note_on,0,0,2,,,,,,,,,1,,,,72,100
85562,note_on,0,0,3,,,,,,,,,2,,,,72,101
85562,note_on,5,0,3,,,,,,,,,2,,,,69,101
85563,note_on,5,0,6,,,,,,,,,5,,,,52,100
85565,note_on,180,0,13,,,,,,,,,12,,,,64,59
85567,note_on,0,0,4,,,,,,,,,3,,,,57,100
85567,note_on,5,0,4,,,,,,,,,3,,,,52,0
85567,note_on,180,0,14,,,,,,,,,13,,,,52,59
85567,note_on,0,0,4,,,,,,,,,3,,,,52,100
85569,note_on,180,0,15,,,,,,,,,14,,,,40,59
85591,note_on,30,0,5,,,,,,,,,4,,,,60,0
85591,note_on,30,0,1,,,,,,,,,0,,,,84,0
85591,note_on,0,0,1,,,,,,,,,0,,,,81,0
85592,note_on,0,0,3,,,,,,,,,2,,,,69,0
85592,note_on,30,0,2,,,,,,,,,1,,,,72,0
85592,note_on,30,0,3,,,,,,,,,2,,,,72,0
85592,note_on,0,0,2,,,,,,,,,1,,,,81,0
85593,note_on,30,0,6,,,,,,,,,5,,,,52,0
85597,note_on,0,0,4,,,,,,,,,3,,,,52,0
85597,note_on,30,0,4,,,,,,,,,3,,,,57,0
85620,set_tempo,60,1,0,,,,,,1111111,,,,,,,,
85620,note_on,0,0,11,,,,,,,,,10,,,,64,59
85620,note_on,60,0,11,,,,,,,,,10,,,,64,0
85621,note_on,0,0,1,,,,,,,,,0,,,,80,101
85621,note_on,30,0,5,,,,,,,,,4,,,,64,100
85621,note_on,30,0,1,,,,,,,,,0,,,,83,101
85622,note_on,0,0,12,,,,,,,,,11,,,,64,59
85622,note_on,0,0,3,,,,,,,,,2,,,,68,101
85622,note_on,30,0,3,,,,,,,,,2,,,,71,101
85622,note_on,60,0,12,,,,,,,,,11,,,,64,0
85622,note_on,30,0,2,,,,,,,,,1,,,,71,100
85622,note_on,0,0,2,,,,,,,,,1,,,,76,100
85623,note_on,30,0,6,,,,,,,,,5,,,,52,100
85625,note_on,0,0,13,,,,,,,,,12,,,,64,59
85625,note_on,60,0,13,,,,,,,,,12,,,,64,0
85627,note_on,60,0,14,,,,,,,,,13,,,,52,0
85627,note_on,0,0,14,,,,,,,,,13,,,,52,59
85627,note_on,0,0,4,,,,,,,,,3,,,,59,100
85627,note_on,30,0,4,,,,,,,,,3,,,,56,100
85629,note_on,60,0,15,,,,,,,,,14,,,,40,0
85629,note_on,0,0,15,,,,,,,,,14,,,,40,59
85651,note_on,30,0,5,,,,,,,,,4,,,,64,0
85651,note_on,30,0,1,,,,,,,,,0,,,,80,0
85651,note_on,0,0,1,,,,,,,,,0,,,,83,0
85652,note_on,0,0,3,,,,,,,,,2,,,,71,0
85652,note_on,30,0,2,,,,,,,,,1,,,,76,0
85652,note_on,0,0,2,,,,,,,,,1,,,,71,0
85652,note_on,30,0,3,,,,,,,,,2,,,,68,0
85653,note_on,30,0,6,,,,,,,,,5,,,,52,0
85657,note_on,30,0,4,,,,,,,,,3,,,,59,0
85657,note_on,0,0,4,,,,,,,,,3,,,,56,0
85680,note_on,0,0,11,,,,,,,,,10,,,,57,59
85680,note_on,60,0,11,,,,,,,,,10,,,,64,0
85680,set_tempo,60,1,0,,,,,,1200000,,,,,,,,
85681,note_on,30,0,5,,,,,,,,,4,,,,64,100
85681,note_on,30,0,1,,,,,,,,,0,,,,81,101
85682,note_on,30,0,2,,,,,,,,,1,,,,69,100
85682,note_on,0,0,12,,,,,,,,,11,,,,57,59
85682,note_on,60,0,12,,,,,,,,,11,,,,64,0
85682,note_on,30,0,3,,,,,,,,,2,,,,69,101
85682,control_change,0,0,2,,,,,,,,,1,11,52,,,
85683,note_on,30,0,6,,,,,,,,,5,,,,57,100
85685,note_on,0,0,13,,,,,,,,,12,,,,57,59
85685,note_on,60,0,13,,,,,,,,,12,,,,64,0
85687,note_on,30,0,4,,,,,,,,,3,,,,57,100
85687,note_on,0,0,14,,,,,,,,,13,,,,45,59
85687,note_on,60,0,14,,,,,,,,,13,,,,52,0
85689,note_on,60,0,15,,,,,,,,,14,,,,40,0
85689,note_on,0,0,15,,,,,,,,,14,,,,33,59
85740,note_on,60,0,11,,,,,,,,,10,,,,57,0
85740,note_on,0,0,11,,,,,,,,,10,,,,64,49
85740,set_tempo,60,1,0,,,,,,1111111,,,,,,,,
85741,note_on,60,0,1,,,,,,,,,0,,,,81,0
85741,note_on,60,0,5,,,,,,,,,4,,,,64,0
85742,note_on,0,0,12,,,,,,,,,11,,,,60,49
85742,note_on,60,0,12,,,,,,,,,11,,,,57,0
85742,note_on,60,0,3,,,,,,,,,2,,,,69,0
85743,note_on,60,0,6,,,,,,,,,5,,,,57,0
85745,note_on,0,0,13,,,,,,,,,12,,,,57,49
85745,note_on,60,0,13,,,,,,,,,12,,,,57,0
85747,note_on,60,0,14,,,,,,,,,13,,,,45,0
85747,note_on,60,0,4,,,,,,,,,3,,,,57,0
85749,note_on,60,0,15,,,,,,,,,14,,,,33,0
85800,note_on,60,0,11,,,,,,,,,10,,,,64,0
85800,set_tempo,60,1,0,,,,,,1188119,,,,,,,,
85800,note_on,0,0,11,,,,,,,,,10,,,,64,49
85802,note_on,0,0,12,,,,,,,,,11,,,,62,49
85802,note_on,120,0,2,,,,,,,,,1,,,,69,0
85802,note_on,60,0,12,,,,,,,,,11,,,,60,0
85802,note_on,0,0,2,,,,,,,,,1,,,,71,100
85805,note_on,60,0,13,,,,,,,,,12,,,,57,0
85805,note_on,0,0,13,,,,,,,,,12,,,,56,49
85860,set_tempo,60,1,0,,,,,,1111111,,,,,,,,
85860,note_on,60,0,11,,,,,,,,,10,,,,64,0
85862,note_on,60,0,12,,,,,,,,,11,,,,62,0
85865,note_on,60,0,13,,,,,,,,,12,,,,56,0
85869,note_on,120,0,15,,,,,,,,,14,,,,40,49
85920,set_tempo,60,1,0,,,,,,1200000,,,,,,,,
85922,note_on,0,0,2,,,,,,,,,1,,,,72,100
85922,control_change,180,0,3,,,,,,,,,2,11,52,,,
85922,note_on,0,0,3,,,,,,,,,2,,,,69,101
85922,note_on,120,0,2,,,,,,,,,1,,,,71,0
85922,control_change,0,0,2,,,,,,,,,1,11,52,,,
85929,note_on,0,0,15,,,,,,,,,14,,,,33,49
85929,note_on,60,0,15,,,,,,,,,14,,,,40,0
85958,control_change,36,0,3,,,,,,,,,2,11,53,,,
85958,control_change,36,0,2,,,,,,,,,1,11,53,,,
85980,set_tempo,60,1,0,,,,,,1111111,,,,,,,,
85980,note_on,120,0,11,,,,,,,,,10,,,,64,49
85982,note_on,120,0,12,,,,,,,,,11,,,,60,49
85985,note_on,120,0,13,,,,,,,,,12,,,,57,49
85989,note_on,60,0,15,,,,,,,,,14,,,,33,0
85994,control_change,36,0,2,,,,,,,,,1,11,54,,,
85994,control_change,36,0,3,,,,,,,,,2,11,54,,,
86030,control_change,36,0,2,,,,,,,,,1,11,55,,,
86030,control_change,36,0,3,,,,,,,,,2,11,55,,,
86040,note_on,60,0,11,,,,,,,,,10,,,,64,0
86040,note_on,0,0,11,,,,,,,,,10,,,,64,51
86040,set_tempo,60,1,0,,,,,,1142857,,,,,,,,
86042,note_on,0,0,12,,,,,,,,,11,,,,62,51
86042,note_on,12,0,2,,,,,,,,,1,,,,72,0
86042,note_on,0,0,2,,,,,,,,,1,,,,76,100
86042,note_on,60,0,12,,,,,,,,,11,,,,60,0
86042,note_on,0,0,3,,,,,,,,,2,,,,71,101
86042,note_on,12,0,3,,,,,,,,,2,,,,69,0
86045,note_on,0,0,13,,,,,,,,,12,,,,56,51
86045,note_on,60,0,13,,,,,,,,,12,,,,57,0
86046,program_change,299,0,14,,,,,,,,48,13,,,,,
86047,control_change,1,0,14,,,,,,,,,13,11,32,,,
86047,control_change,0,0,14,,,,,,,,,13,1,30,,,
86047,control_change,0,0,14,,,,,,,,,13,91,1,,,
86047,note_on,0,0,14,,,,,,,,,13,,,,64,112
86050,control_change,3,0,14,,,,,,,,,13,11,35,,,
86053,control_change,3,0,14,,,,,,,,,13,11,38,,,
86057,control_change,4,0,14,,,,,,,,,13,11,41,,,
86060,control_change,3,0,14,,,,,,,,,13,11,44,,,
86065,control_change,5,0,14,,,,,,,,,13,11,48,,,
86066,control_change,24,0,3,,,,,,,,,2,11,56,,,
86066,control_change,24,0,2,,,,,,,,,1,11,56,,,
86071,control_change,6,0,14,,,,,,,,,13,11,51,,,
86083,control_change,12,0,14,,,,,,,,,13,11,54,,,
86095,control_change,12,0,14,,,,,,,,,13,11,57,,,
86100,note_on,60,0,11,,,,,,,,,10,,,,64,0
86102,note_on,60,0,12,,,,,,,,,11,,,,62,0
86102,control_change,36,0,2,,,,,,,,,1,11,57,,,
86102,control_change,36,0,3,,,,,,,,,2,11,57,,,
86105,note_on,60,0,13,,,,,,,,,12,,,,56,0
86109,note_on,120,0,15,,,,,,,,,14,,,,40,53
86138,control_change,36,0,3,,,,,,,,,2,11,57,,,
86138,control_change,36,0,2,,,,,,,,,1,11,57,,,
86161,note_on,0,0,1,,,,,,,,,0,,,,81,101
86161,control_change,420,0,1,,,,,,,,,0,11,52,,,
86162,note_on,0,0,3,,,,,,,,,2,,,,72,101
86162,note_on,24,0,3,,,,,,,,,2,,,,71,0
86169,note_on,0,0,15,,,,,,,,,14,,,,33,55
86169,note_on,60,0,15,,,,,,,,,14,,,,40,0
86174,control_change,36,0,2,,,,,,,,,1,11,58,,,
86174,control_change,12,0,3,,,,,,,,,2,11,58,,,
86185,control_change,24,0,1,,,,,,,,,0,11,53,,,
86209,control_change,24,0,1,,,,,,,,,0,11,54,,,
86210,control_change,36,0,3,,,,,,,,,2,11,59,,,
86210,control_change,36,0,2,,,,,,,,,1,11,59,,,
86220,note_on,120,0,11,,,,,,,,,10,,,,64,57
86222,note_on,120,0,12,,,,,,,,,11,,,,60,57
86222,note_on,127,0,14,,,,,,,,,13,,,,64,0
86225,note_on,120,0,13,,,,,,,,,12,,,,57,57
86227,note_on,0,0,14,,,,,,,,,13,,,,69,112
86227,control_change,5,0,14,,,,,,,,,13,11,59,,,
86229,note_on,60,0,15,,,,,,,,,14,,,,33,0
86233,control_change,24,0,1,,,,,,,,,0,11,55,,,
86246,control_change,36,0,3,,,,,,,,,2,11,60,,,
86246,control_change,36,0,2,,,,,,,,,1,11,60,,,
86248,control_change,21,0,14,,,,,,,,,13,11,60,,,
86257,control_change,24,0,1,,,,,,,,,0,11,56,,,
86269,control_change,21,0,14,,,,,,,,,13,11,61,,,
86280,note_on,60,0,11,,,,,,,,,10,,,,64,0
86280,note_on,0,0,11,,,,,,,,,10,,,,67,59
86281,note_on,0,0,1,,,,,,,,,0,,,,83,101
86281,control_change,0,0,1,,,,,,,,,0,11,57,,,
86281,note_on,24,0,1,,,,,,,,,0,,,,81,0
86282,note_on,0,0,12,,,,,,,,,11,,,,62,59
86282,note_on,36,0,3,,,,,,,,,2,,,,72,0
86282,note_on,0,0,3,,,,,,,,,2,,,,74,101
86282,note_on,60,0,12,,,,,,,,,11,,,,60,0
86282,control_change,0,0,3,,,,,,,,,2,11,60,,,
86282,note_on,36,0,2,,,,,,,,,1,,,,76,0
86282,control_change,0,0,2,,,,,,,,,1,11,60,,,
86282,note_on,0,0,2,,,,,,,,,1,,,,79,100
86285,note_on,0,0,13,,,,,,,,,12,,,,55,59
86285,note_on,60,0,13,,,,,,,,,12,,,,57,0
86287,note_on,0,0,14,,,,,,,,,13,,,,67,112
86287,note_on,18,0,14,,,,,,,,,13,,,,69,0
86290,control_change,3,0,14,,,,,,,,,13,11,62,,,
86305,control_change,24,0,1,,,,,,,,,0,11,57,,,
86311,control_change,21,0,14,,,,,,,,,13,11,63,,,
86318,control_change,36,0,2,,,,,,,,,1,11,61,,,
86318,control_change,36,0,3,,,,,,,,,2,11,61,,,
86329,control_change,24,0,1,,,,,,,,,0,11,58,,,
86332,control_change,21,0,14,,,,,,,,,13,11,64,,,
86340,note_on,60,0,11,,,,,,,,,10,,,,67,0
86342,note_on,60,0,12,,,,,,,,,11,,,,62,0
86345,note_on,60,0,13,,,,,,,,,12,,,,55,0
86347,note_on,15,0,14,,,,,,,,,13,,,,67,0
86347,note_on,0,0,14,,,,,,,,,13,,,,65,112
86349,note_on,120,0,15,,,,,,,,,14,,,,31,61
86353,control_change,6,0,14,,,,,,,,,13,11,65,,,
86353,control_change,24,0,1,,,,,,,,,0,11,59,,,
86354,control_change,36,0,2,,,,,,,,,1,11,62,,,
86354,control_change,36,0,3,,,,,,,,,2,11,62,,,
86374,control_change,21,0,14,,,,,,,,,13,11,66,,,
86377,control_change,24,0,1,,,,,,,,,0,11,60,,,
86390,control_change,36,0,2,,,,,,,,,1,11,63,,,
86390,control_change,36,0,3,,,,,,,,,2,11,63,,,
86395,control_change,21,0,14,,,,,,,,,13,11,67,,,
86401,note_on,24,0,1,,,,,,,,,0,,,,83,0
86401,note_on,0,0,1,,,,,,,,,0,,,,84,101
86401,control_change,0,0,1,,,,,,,,,0,11,60,,,
86402,note_on,0,0,3,,,,,,,,,2,,,,76,101
86402,note_on,12,0,3,,,,,,,,,2,,,,74,0
86407,note_on,0,0,14,,,,,,,,,13,,,,64,112
86407,note_on,12,0,14,,,,,,,,,13,,,,65,0
86409,note_on,0,0,15,,,,,,,,,14,,,,36,63
86409,note_on,60,0,15,,,,,,,,,14,,,,31,0
86416,control_change,9,0,14,,,,,,,,,13,11,68,,,
86425,control_change,24,0,1,,,,,,,,,0,11,61,,,
86426,control_change,36,0,2,,,,,,,,,1,11,63,,,
86426,control_change,24,0,3,,,,,,,,,2,11,63,,,
86437,control_change,21,0,14,,,,,,,,,13,11,69,,,
86449,control_change,24,0,1,,,,,,,,,0,11,62,,,
86458,control_change,21,0,14,,,,,,,,,13,11,70,,,
86460,note_on,120,0,11,,,,,,,,,10,,,,67,65
86461,note_on,12,0,1,,,,,,,,,0,,,,84,0
86461,note_on,0,0,1,,,,,,,,,0,,,,86,101
86462,note_on,36,0,3,,,,,,,,,2,,,,76,0
86462,control_change,0,0,3,,,,,,,,,2,11,64,,,
86462,note_on,0,0,3,,,,,,,,,2,,,,77,101
86462,control_change,36,0,2,,,,,,,,,1,11,64,,,
86462,note_on,120,0,12,,,,,,,,,11,,,,64,65
86465,note_on,120,0,13,,,,,,,,,12,,,,60,68
86467,note_on,9,0,14,,,,,,,,,13,,,,64,0
86467,note_on,0,0,14,,,,,,,,,13,,,,62,112
86469,note_on,60,0,15,,,,,,,,,14,,,,36,0
86473,control_change,12,0,1,,,,,,,,,0,11,63,,,
86479,control_change,12,0,14,,,,,,,,,13,11,71,,,
86491,note_on,0,0,1,,,,,,,,,0,,,,88,101
86491,note_on,18,0,1,,,,,,,,,0,,,,86,0
86492,note_on,30,0,3,,,,,,,,,2,,,,77,0
86492,note_on,0,0,3,,,,,,,,,2,,,,79,101
86497,control_change,6,0,1,,,,,,,,,0,11,63,,,
86497,note_on,0,0,14,,,,,,,,,13,,,,60,112
86497,note_on,18,0,14,,,,,,,,,13,,,,62,0
86498,control_change,36,0,2,,,,,,,,,1,11,65,,,
86498,control_change,6,0,3,,,,,,,,,2,11,65,,,
86500,control_change,3,0,14,,,,,,,,,13,11,72,,,
86516,note_on,19,0,1,,,,,,,,,0,,,,88,0
86517,note_on,19,0,3,,,,,,,,,2,,,,79,0
86520,note_on,60,0,11,,,,,,,,,10,,,,67,0
86520,note_on,0,0,11,,,,,,,,,10,,,,67,67
86521,control_change,5,0,1,,,,,,,,,0,11,64,,,
86521,note_on,0,0,1,,,,,,,,,0,,,,84,101
86521,control_change,21,0,14,,,,,,,,,13,11,72,,,
86522,note_on,0,0,12,,,,,,,,,11,,,,64,67
86522,note_on,60,0,12,,,,,,,,,11,,,,64,0
86522,note_on,5,0,3,,,,,,,,,2,,,,76,101
86522,note_on,24,0,2,,,,,,,,,1,,,,79,0
86522,note_on,0,0,2,,,,,,,,,1,,,,79,100
86525,note_on,60,0,13,,,,,,,,,12,,,,60,0
86525,note_on,0,0,13,,,,,,,,,12,,,,60,67
86527,note_on,0,0,14,,,,,,,,,13,,,,64,112
86527,note_on,6,0,14,,,,,,,,,13,,,,60,0
86534,control_change,12,0,3,,,,,,,,,2,11,66,,,
86534,control_change,12,0,2,,,,,,,,,1,11,66,,,
86542,control_change,15,0,14,,,,,,,,,13,11,73,,,
86545,control_change,24,0,1,,,,,,,,,0,11,65,,,
86551,note_on,6,0,1,,,,,,,,,0,,,,84,0
86552,note_on,18,0,2,,,,,,,,,1,,,,79,0
86552,note_on,18,0,3,,,,,,,,,2,,,,76,0
86563,control_change,21,0,14,,,,,,,,,13,11,74,,,
86569,control_change,18,0,1,,,,,,,,,0,11,66,,,
86570,control_change,18,0,3,,,,,,,,,2,11,66,,,
86570,control_change,18,0,2,,,,,,,,,1,11,66,,,
86580,note_on,0,0,11,,,,,,,,,10,,,,67,69
86580,note_on,60,0,11,,,,,,,,,10,,,,67,0
86581,note_on,12,0,1,,,,,,,,,0,,,,79,101
86582,note_on,12,0,3,,,,,,,,,2,,,,71,101
86582,note_on,0,0,12,,,,,,,,,11,,,,65,69
86582,note_on,12,0,2,,,,,,,,,1,,,,77,100
86582,note_on,60,0,12,,,,,,,,,11,,,,64,0
86584,control_change,21,0,14,,,,,,,,,13,11,75,,,
86585,note_on,60,0,13,,,,,,,,,12,,,,60,0
86585,note_on,0,0,13,,,,,,,,,12,,,,62,69
86587,note_on,3,0,14,,,,,,,,,13,,,,64,0
86587,note_on,0,0,14,,,,,,,,,13,,,,67,112
86589,note_on,120,0,15,,,,,,,,,14,,,,43,69
86593,control_change,12,0,1,,,,,,,,,0,11,66,,,
86605,control_change,18,0,14,,,,,,,,,13,11,76,,,
86606,control_change,24,0,2,,,,,,,,,1,11,67,,,
86606,control_change,24,0,3,,,,,,,,,2,11,67,,,
86611,note_on,18,0,1,,,,,,,,,0,,,,79,0
86612,note_on,6,0,3,,,,,,,,,2,,,,71,0
86612,note_on,6,0,2,,,,,,,,,1,,,,77,0
86617,control_change,6,0,1,,,,,,,,,0,11,67,,,
86626,control_change,21,0,14,,,,,,,,,13,11,77,,,
86640,note_on,60,0,11,,,,,,,,,10,,,,67,0
86641,note_on,0,0,1,,,,,,,,,0,,,,84,101
86641,control_change,24,0,1,,,,,,,,,0,11,68,,,
86642,control_change,30,0,2,,,,,,,,,1,11,68,,,
86642,note_on,0,0,2,,,,,,,,,1,,,,76,100
86642,note_on,0,0,3,,,,,,,,,2,,,,72,101
86642,control_change,30,0,3,,,,,,,,,2,11,68,,,
86642,note_on,60,0,12,,,,,,,,,11,,,,65,0
86645,note_on,60,0,13,,,,,,,,,12,,,,62,0
86647,control_change,0,0,14,,,,,,,,,13,11,78,,,
86647,note_on,0,0,14,,,,,,,,,13,,,,64,112
86647,note_on,21,0,14,,,,,,,,,13,,,,67,0
86649,note_on,60,0,15,,,,,,,,,14,,,,43,0
86649,note_on,0,0,15,,,,,,,,,14,,,,36,69
86653,control_change,6,0,14,,,,,,,,,13,11,75,,,
86659,control_change,6,0,14,,,,,,,,,13,11,72,,,
86671,control_change,12,0,14,,,,,,,,,13,11,67,,,
86677,control_change,6,0,14,,,,,,,,,13,11,64,,,
86683,control_change,6,0,14,,,,,,,,,13,11,61,,,
86689,control_change,6,0,14,,,,,,,,,13,11,58,,,
86700,note_on,60,0,11,,,,,,,,,10,,,,67,69
86701,control_change,12,0,14,,,,,,,,,13,11,53,,,
86702,note_on,60,0,12,,,,,,,,,11,,,,64,69
86705,note_on,60,0,13,,,,,,,,,12,,,,60,69
86707,note_on,6,0,14,,,,,,,,,13,,,,64,0
86707,control_change,0,0,14,,,,,,,,,13,11,50,,,
86709,note_on,60,0,15,,,,,,,,,14,,,,36,0
86760,note_on,60,0,11,,,,,,,,,10,,,,67,0
86760,note_on,0,0,11,,,,,,,,,10,,,,67,69
86760,set_tempo,720,1,0,,,,,,1188119,,,,,,,,
86761,note_on,0,0,1,,,,,,,,,0,,,,79,101
86761,note_on,120,0,1,,,,,,,,,0,,,,84,0
86762,note_on,60,0,12,,,,,,,,,11,,,,64,0
86762,note_on,0,0,12,,,,,,,,,11,,,,65,69
86762,note_on,0,0,3,,,,,,,,,2,,,,71,101
86762,note_on,120,0,2,,,,,,,,,1,,,,76,0
86762,note_on,0,0,2,,,,,,,,,1,,,,74,100
86762,note_on,120,0,3,,,,,,,,,2,,,,72,0
86765,note_on,60,0,13,,,,,,,,,12,,,,60,0
86765,note_on,0,0,13,,,,,,,,,12,,,,62,69
86820,note_on,60,0,11,,,,,,,,,10,,,,67,0
86820,set_tempo,60,1,0,,,,,,1111111,,,,,,,,
86822,note_on,60,0,12,,,,,,,,,11,,,,65,0
86825,note_on,60,0,13,,,,,,,,,12,,,,62,0
86826,program_change,119,0,14,,,,,,,,45,13,,,,,
86827,control_change,0,0,14,,,,,,,,,13,91,68,,,
86827,note_on,0,0,14,,,,,,,,,13,,,,43,69
86827,control_change,1,0,14,,,,,,,,,13,11,57,,,
86827,control_change,0,0,14,,,,,,,,,13,1,1,,,
86829,note_on,120,0,15,,,,,,,,,14,,,,31,69
86880,set_tempo,60,1,0,,,,,,1200000,,,,,,,,
86881,note_on,0,0,1,,,,,,,,,0,,,,76,101
86881,control_change,0,0,1,,,,,,,,,0,11,68,,,
86881,note_on,120,0,1,,,,,,,,,0,,,,79,0
86882,note_on,0,0,3,,,,,,,,,2,,,,72,101
86882,note_on,120,0,3,,,,,,,,,2,,,,71,0
86882,control_change,0,0,3,,,,,,,,,2,11,68,,,
86882,note_on,0,0,2,,,,,,,,,1,,,,72,100
86882,control_change,0,0,2,,,,,,,,,1,11,68,,,
86882,note_on,120,0,2,,,,,,,,,1,,,,74,0
86887,note_on,0,0,14,,,,,,,,,13,,,,48,69
86887,control_change,1140,0,4,,,,,,,,,3,11,72,,,
86887,note_on,0,0,4,,,,,,,,,3,,,,67,100
86887,note_on,60,0,14,,,,,,,,,13,,,,43,0
86889,note_on,0,0,15,,,,,,,,,14,,,,36,69
86889,note_on,60,0,15,,,,,,,,,14,,,,31,0
86901,control_change,14,0,4,,,,,,,,,3,11,69,,,
86909,control_change,28,0,1,,,,,,,,,0,11,63,,,
86910,control_change,28,0,2,,,,,,,,,1,11,63,,,
86910,control_change,28,0,3,,,,,,,,,2,11,63,,,
86915,control_change,14,0,4,,,,,,,,,3,11,66,,,
86924,control_change,15,0,1,,,,,,,,,0,11,61,,,
86925,control_change,15,0,2,,,,,,,,,1,11,61,,,
86925,control_change,15,0,3,,,,,,,,,2,11,61,,,
86930,control_change,15,0,4,,,,,,,,,3,11,63,,,
86940,set_tempo,60,1,0,,,,,,1111111,,,,,,,,
86940,note_on,120,0,11,,,,,,,,,10,,,,67,69
86942,note_on,120,0,12,,,,,,,,,11,,,,64,69
86944,control_change,14,0,4,,,,,,,,,3,11,60,,,
86945,note_on,120,0,13,,,,,,,,,12,,,,60,69
86947,note_on,60,0,14,,,,,,,,,13,,,,48,0
86949,note_on,60,0,15,,,,,,,,,14,,,,36,0
86953,control_change,29,0,1,,,,,,,,,0,11,57,,,
86954,control_change,29,0,3,,,,,,,,,2,11,57,,,
86954,control_change,29,0,2,,,,,,,,,1,11,57,,,
86959,control_change,15,0,4,,,,,,,,,3,11,57,,,
86967,control_change,14,0,1,,,,,,,,,0,11,54,,,
86968,control_change,14,0,3,,,,,,,,,2,11,54,,,
86968,control_change,14,0,2,,,,,,,,,1,11,54,,,
86973,control_change,14,0,4,,,,,,,,,3,11,54,,,
86981,control_change,14,0,1,,,,,,,,,0,11,51,,,
86982,control_change,14,0,3,,,,,,,,,2,11,51,,,
86982,control_change,14,0,2,,,,,,,,,1,11,51,,,
86987,control_change,14,0,4,,,,,,,,,3,11,51,,,
86996,control_change,15,0,1,,,,,,,,,0,11,48,,,
86997,control_change,15,0,2,,,,,,,,,1,11,48,,,
86997,control_change,15,0,3,,,,,,,,,2,11,48,,,
87000,note_on,60,0,11,,,,,,,,,10,,,,67,0
87000,note_on,0,0,11,,,,,,,,,10,,,,71,69
87000,set_tempo,60,1,0,,,,,,1188119,,,,,,,,
87001,note_on,5,0,1,,,,,,,,,0,,,,76,0
87002,note_on,0,0,3,,,,,,,,,2,,,,71,116
87002,note_on,5,0,3,,,,,,,,,2,,,,72,0
87002,note_on,0,0,12,,,,,,,,,11,,,,65,69
87002,note_on,60,0,12,,,,,,,,,11,,,,64,0
87002,control_change,15,0,4,,,,,,,,,3,11,48,,,
87002,note_on,0,0,2,,,,,,,,,1,,,,74,115
87002,note_on,5,0,2,,,,,,,,,1,,,,72,0
87005,note_on,60,0,13,,,,,,,,,12,,,,60,0
87005,note_on,0,0,13,,,,,,,,,12,,,,62,69
87007,note_on,5,0,4,,,,,,,,,3,,,,67,0
87007,note_on,0,0,4,,,,,,,,,3,,,,65,115
87060,set_tempo,60,1,0,,,,,,1111111,,,,,,,,
87060,note_on,60,0,11,,,,,,,,,10,,,,71,0
87062,note_on,60,0,12,,,,,,,,,11,,,,65,0
87065,note_on,60,0,13,,,,,,,,,12,,,,62,0
87067,note_on,120,0,14,,,,,,,,,13,,,,50,69
87069,note_on,120,0,15,,,,,,,,,14,,,,38,69
87120,set_tempo,60,1,0,,,,,,1200000,,,,,,,,
87122,note_on,120,0,3,,,,,,,,,2,,,,71,0
87122,note_on,0,0,3,,,,,,,,,2,,,,69,101
87122,note_on,120,0,2,,,,,,,,,1,,,,74,0
87122,note_on,0,0,2,,,,,,,,,1,,,,72,100
87127,note_on,0,0,14,,,,,,,,,13,,,,52,69
87127,note_on,0,0,4,,,,,,,,,3,,,,64,100
87127,note_on,120,0,4,,,,,,,,,3,,,,65,0
87127,note_on,60,0,14,,,,,,,,,13,,,,50,0
87129,note_on,0,0,15,,,,,,,,,14,,,,40,69
87129,note_on,60,0,15,,,,,,,,,14,,,,38,0
87180,set_tempo,60,1,0,,,,,,1153846,,,,,,,,
87180,note_on,120,0,11,,,,,,,,,10,,,,72,69
87182,note_on,0,0,3,,,,,,,,,2,,,,71,101
87182,note_on,60,0,2,,,,,,,,,1,,,,72,0
87182,note_on,120,0,12,,,,,,,,,11,,,,69,69
87182,note_on,0,0,2,,,,,,,,,1,,,,74,100
87182,note_on,60,0,3,,,,,,,,,2,,,,69,0
87185,note_on,120,0,13,,,,,,,,,12,,,,64,69
87187,note_on,60,0,14,,,,,,,,,13,,,,52,0
87189,note_on,60,0,15,,,,,,,,,14,,,,40,0
87212,note_on,30,0,2,,,,,,,,,1,,,,74,0
87212,note_on,0,0,3,,,,,,,,,2,,,,72,101
87212,note_on,0,0,2,,,,,,,,,1,,,,76,100
87212,note_on,30,0,3,,,,,,,,,2,,,,71,0
87237,note_on,25,0,2,,,,,,,,,1,,,,76,0
87237,note_on,25,0,3,,,,,,,,,2,,,,72,0
87240,set_tempo,60,1,0,,,,,,1200000,,,,,,,,
87240,note_on,0,0,11,,,,,,,,,10,,,,69,63
87240,note_on,60,0,11,,,,,,,,,10,,,,72,0
87241,control_change,0,0,5,,,,,,,,,4,11,37,,,
87241,note_on,1500,0,5,,,,,,,,,4,,,,64,100
87242,note_on,5,0,2,,,,,,,,,1,,,,72,100
87242,note_on,5,0,3,,,,,,,,,2,,,,69,101
87242,note_on,60,0,12,,,,,,,,,11,,,,69,0
87242,note_on,115,0,4,,,,,,,,,3,,,,64,0
87242,note_on,0,0,12,,,,,,,,,11,,,,64,63
87243,note_on,1500,0,6,,,,,,,,,5,,,,60,100
87243,control_change,0,0,6,,,,,,,,,5,11,37,,,
87245,note_on,0,0,13,,,,,,,,,12,,,,60,63
87245,note_on,60,0,13,,,,,,,,,12,,,,64,0
87247,note_on,5,0,4,,,,,,,,,3,,,,64,100
87247,note_on,60,0,14,,,,,,,,,13,,,,52,63
87249,note_on,60,0,15,,,,,,,,,14,,,,40,63
87271,note_on,30,0,5,,,,,,,,,4,,,,64,0
87272,note_on,30,0,3,,,,,,,,,2,,,,69,0
87272,note_on,30,0,2,,,,,,,,,1,,,,72,0
87273,note_on,30,0,6,,,,,,,,,5,,,,60,0
87277,note_on,30,0,4,,,,,,,,,3,,,,64,0
87300,set_tempo,60,1,0,,,,,,1153846,,,,,,,,
87300,note_on,0,0,11,,,,,,,,,10,,,,68,57
87300,note_on,60,0,11,,,,,,,,,10,,,,69,0
87301,note_on,30,0,5,,,,,,,,,4,,,,64,100
87302,note_on,30,0,3,,,,,,,,,2,,,,68,101
87302,note_on,60,0,12,,,,,,,,,11,,,,64,0
87302,note_on,0,0,12,,,,,,,,,11,,,,64,57
87302,note_on,30,0,2,,,,,,,,,1,,,,71,100
87303,note_on,30,0,6,,,,,,,,,5,,,,62,100
87305,note_on,60,0,13,,,,,,,,,12,,,,60,0
87305,note_on,0,0,13,,,,,,,,,12,,,,62,57
87307,note_on,60,0,14,,,,,,,,,13,,,,52,0
87307,note_on,0,0,14,,,,,,,,,13,,,,52,57
87307,note_on,30,0,4,,,,,,,,,3,,,,52,100
87309,note_on,0,0,15,,,,,,,,,14,,,,40,57
87309,note_on,60,0,15,,,,,,,,,14,,,,40,0
87331,note_on,30,0,5,,,,,,,,,4,,,,64,0
87332,note_on,30,0,2,,,,,,,,,1,,,,71,0
87332,note_on,30,0,3,,,,,,,,,2,,,,68,0
87333,note_on,30,0,6,,,,,,,,,5,,,,62,0
87337,note_on,30,0,4,,,,,,,,,3,,,,52,0
87360,note_on,60,0,11,,,,,,,,,10,,,,68,0
87360,note_on,0,0,11,,,,,,,,,10,,,,69,49
87360,set_tempo,60,1,0,,,,,,1200000,,,,,,,,
87361,note_on,30,0,5,,,,,,,,,4,,,,64,115
87362,note_on,60,0,12,,,,,,,,,11,,,,64,0
87362,note_on,30,0,3,,,,,,,,,2,,,,69,116
87362,note_on,30,0,2,,,,,,,,,1,,,,69,115
87362,note_on,0,0,12,,,,,,,,,11,,,,64,49
87363,note_on,30,0,6,,,,,,,,,5,,,,60,115
87365,note_on,0,0,13,,,,,,,,,12,,,,60,49
87365,note_on,60,0,13,,,,,,,,,12,,,,62,0
87367,note_on,30,0,4,,,,,,,,,3,,,,57,115
87367,note_on,60,0,14,,,,,,,,,13,,,,52,0
87367,note_on,0,0,14,,,,,,,,,13,,,,45,49
87369,note_on,0,0,15,,,,,,,,,14,,,,33,49
87369,note_on,60,0,15,,,,,,,,,14,,,,40,0
87420,set_tempo,60,1,0,,,,,,1153846,,,,,,,,
87420,note_on,60,0,11,,,,,,,,,10,,,,69,0
87422,note_on,60,0,12,,,,,,,,,11,,,,64,0
87425,note_on,60,0,13,,,,,,,,,12,,,,60,0
87427,note_on,60,0,14,,,,,,,,,13,,,,45,0
87429,note_on,60,0,15,,,,,,,,,14,,,,33,0
87471,note_on,110,0,5,,,,,,,,,4,,,,64,0
87472,note_on,110,0,2,,,,,,,,,1,,,,69,0
87472,note_on,110,0,3,,,,,,,,,2,,,,69,0
87473,note_on,110,0,6,,,,,,,,,5,,,,60,0
87477,note_on,110,0,4,,,,,,,,,3,,,,57,0
87479,program_change,59,0,11,,,,,,,,48,10,,,,,
87480,set_tempo,60,1,0,,,,,,1200000,,,,,,,,
87480,note_on,0,0,11,,,,,,,,,10,,,,60,112
87480,control_change,1,0,11,,,,,,,,,10,11,41,,,
87481,program_change,59,0,12,,,,,,,,48,11,,,,,
87481,note_on,10,0,5,,,,,,,,,4,,,,64,100
87482,note_on,10,0,3,,,,,,,,,2,,,,69,101
87482,note_on,0,0,12,,,,,,,,,11,,,,57,112
87482,control_change,1,0,12,,,,,,,,,11,11,41,,,
87482,note_on,10,0,2,,,,,,,,,1,,,,69,100
87483,note_on,10,0,6,,,,,,,,,5,,,,60,100
87484,program_change,59,0,13,,,,,,,,48,12,,,,,
87485,control_change,1,0,13,,,,,,,,,12,11,41,,,
87485,note_on,0,0,13,,,,,,,,,12,,,,52,112
87486,program_change,59,0,14,,,,,,,,48,13,,,,,
87487,control_change,1,0,14,,,,,,,,,13,11,41,,,
87487,note_on,0,0,14,,,,,,,,,13,,,,45,112
87487,note_on,10,0,4,,,,,,,,,3,,,,57,100
87488,program_change,59,0,15,,,,,,,,48,14,,,,,
87489,control_change,1,0,15,,,,,,,,,14,11,41,,,
87489,note_on,0,0,15,,,,,,,,,14,,,,33,112
87510,note_on,30,0,11,,,,,,,,,10,,,,60,0
87511,note_on,30,0,5,,,,,,,,,4,,,,64,0
87512,note_on,30,0,12,,,,,,,,,11,,,,57,0
87512,note_on,30,0,3,,,,,,,,,2,,,,69,0
87512,note_on,30,0,2,,,,,,,,,1,,,,69,0
87513,note_on,30,0,6,,,,,,,,,5,,,,60,0
87515,note_on,30,0,13,,,,,,,,,12,,,,52,0
87517,note_on,30,0,14,,,,,,,,,13,,,,45,0
87517,note_on,30,0,4,,,,,,,,,3,,,,57,0
87519,note_on,30,0,15,,,,,,,,,14,,,,33,0
87540,set_tempo,60,1,0,,,,,,1153846,,,,,,,,
87540,note_on,30,0,11,,,,,,,,,10,,,,62,112
87542,note_on,30,0,12,,,,,,,,,11,,,,59,112
87545,note_on,30,0,13,,,,,,,,,12,,,,55,112
87547,note_on,30,0,14,,,,,,,,,13,,,,43,112
87549,note_on,30,0,15,,,,,,,,,14,,,,31,112
87570,note_on,30,0,11,,,,,,,,,10,,,,62,0
87572,note_on,30,0,12,,,,,,,,,11,,,,59,0
87575,note_on,30,0,13,,,,,,,,,12,,,,55,0
87577,note_on,30,0,14,,,,,,,,,13,,,,43,0
87579,note_on,30,0,15,,,,,,,,,14,,,,31,0
87600,note_on,30,0,11,,,,,,,,,10,,,,64,127
87600,set_tempo,60,1,0,,,,,,1200000,,,,,,,,
87602,note_on,30,0,12,,,,,,,,,11,,,,60,127
87605,note_on,30,0,13,,,,,,,,,12,,,,55,127
87607,note_on,30,0,14,,,,,,,,,13,,,,48,127
87609,note_on,30,0,15,,,,,,,,,14,,,,36,127
87660,set_tempo,60,1,0,,,,,,1153846,,,,,,,,
87710,note_on,110,0,11,,,,,,,,,10,,,,64,0
87712,note_on,110,0,12,,,,,,,,,11,,,,60,0
87715,note_on,110,0,13,,,,,,,,,12,,,,55,0
87717,note_on,110,0,14,,,,,,,,,13,,,,48,0
87719,note_on,110,0,15,,,,,,,,,14,,,,36,0
87720,set_tempo,60,1,0,,,,,,1200000,,,,,,,,
87720,note_on,10,0,11,,,,,,,,,10,,,,64,112
87721,note_on,720,0,1,,,,,,,,,0,,,,76,101
87721,note_on,210,0,5,,,,,,,,,4,,,,64,100
87722,note_on,0,0,2,,,,,,,,,1,,,,72,100
87722,note_on,10,0,12,,,,,,,,,11,,,,60,112
87722,note_on,210,0,2,,,,,,,,,1,,,,76,100
87723,note_on,210,0,6,,,,,,,,,5,,,,60,100
87725,note_on,10,0,13,,,,,,,,,12,,,,60,112
87727,note_on,210,0,4,,,,,,,,,3,,,,52,100
87727,note_on,10,0,14,,,,,,,,,13,,,,48,112
87729,note_on,10,0,15,,,,,,,,,14,,,,36,112
87750,note_on,30,0,11,,,,,,,,,10,,,,64,0
87751,note_on,30,0,5,,,,,,,,,4,,,,64,0
87751,note_on,30,0,1,,,,,,,,,0,,,,76,0
87752,note_on,30,0,12,,,,,,,,,11,,,,60,0
87752,note_on,0,0,2,,,,,,,,,1,,,,76,0
87752,note_on,30,0,2,,,,,,,,,1,,,,72,0
87753,note_on,30,0,6,,,,,,,,,5,,,,60,0
87755,note_on,30,0,13,,,,,,,,,12,,,,60,0
87757,note_on,30,0,14,,,,,,,,,13,,,,48,0
87757,note_on,30,0,4,,,,,,,,,3,,,,52,0
87759,note_on,30,0,15,,,,,,,,,14,,,,36,0
87780,set_tempo,60,1,0,,,,,,1153846,,,,,,,,
87781,note_on,30,0,1,,,,,,,,,0,,,,80,101
87781,note_on,0,0,1,,,,,,,,,0,,,,76,101
87781,note_on,30,0,5,,,,,,,,,4,,,,64,100
87782,note_on,30,0,2,,,,,,,,,1,,,,74,100
87782,note_on,0,0,2,,,,,,,,,1,,,,71,100
87783,note_on,30,0,6,,,,,,,,,5,,,,62,100
87787,note_on,30,0,4,,,,,,,,,3,,,,52,100
87811,note_on,30,0,1,,,,,,,,,0,,,,76,0
87811,note_on,0,0,1,,,,,,,,,0,,,,80,0
87811,note_on,30,0,5,,,,,,,,,4,,,,64,0
87812,note_on,0,0,2,,,,,,,,,1,,,,74,0
87812,note_on,30,0,2,,,,,,,,,1,,,,71,0
87813,note_on,30,0,6,,,,,,,,,5,,,,62,0
87817,note_on,30,0,4,,,,,,,,,3,,,,52,0
87840,set_tempo,60,1,0,,,,,,1200000,,,,,,,,
87841,note_on,30,0,1,,,,,,,,,0,,,,81,116
87841,note_on,0,0,1,,,,,,,,,0,,,,76,116
87841,note_on,30,0,5,,,,,,,,,4,,,,64,115
87842,note_on,30,0,2,,,,,,,,,1,,,,72,115
87842,note_on,0,0,2,,,,,,,,,1,,,,69,115
87843,note_on,30,0,6,,,,,,,,,5,,,,60,115
87847,note_on,30,0,4,,,,,,,,,3,,,,57,115
87900,set_tempo,60,1,0,,,,,,1153846,,,,,,,,
87951,note_on,110,0,1,,,,,,,,,0,,,,76,0
87951,note_on,0,0,1,,,,,,,,,0,,,,81,0
87951,note_on,110,0,5,,,,,,,,,4,,,,64,0
87952,note_on,110,0,2,,,,,,,,,1,,,,69,0
87952,note_on,0,0,2,,,,,,,,,1,,,,72,0
87953,note_on,110,0,6,,,,,,,,,5,,,,60,0
87957,note_on,110,0,4,,,,,,,,,3,,,,57,0
87960,note_on,210,0,11,,,,,,,,,10,,,,60,112
87960,set_tempo,60,1,0,,,,,,1200000,,,,,,,,
87961,note_on,10,0,1,,,,,,,,,0,,,,81,101
87961,note_on,10,0,5,,,,,,,,,4,,,,64,100
87961,note_on,0,0,1,,,,,,,,,0,,,,76,101
87962,note_on,0,0,2,,,,,,,,,1,,,,69,100
87962,note_on,210,0,12,,,,,,,,,11,,,,57,112
87962,note_on,10,0,2,,,,,,,,,1,,,,72,100
87963,note_on,10,0,6,,,,,,,,,5,,,,60,100
87965,note_on,210,0,13,,,,,,,,,12,,,,52,112
87967,note_on,10,0,4,,,,,,,,,3,,,,57,100
87967,note_on,210,0,14,,,,,,,,,13,,,,45,112
87969,note_on,210,0,15,,,,,,,,,14,,,,33,112
87991,note_on,0,0,1,,,,,,,,,0,,,,81,0
87991,note_on,30,0,1,,,,,,,,,0,,,,76,0
87991,note_on,30,0,5,,,,,,,,,4,,,,64,0
87992,note_on,0,0,2,,,,,,,,,1,,,,72,0
87992,note_on,30,0,2,,,,,,,,,1,,,,69,0
87993,note_on,30,0,6,,,,,,,,,5,,,,60,0
87994,note_on,34,0,11,,,,,,,,,10,,,,60,0
87996,note_on,34,0,12,,,,,,,,,11,,,,57,0
87997,note_on,30,0,4,,,,,,,,,3,,,,57,0
88005,note_on,11,0,11,,,,,,,,,10,,,,59,112
88007,note_on,11,0,12,,,,,,,,,11,,,,55,112
88010,note_on,45,0,13,,,,,,,,,12,,,,52,0
88012,note_on,45,0,14,,,,,,,,,13,,,,45,0
88012,note_on,7,0,11,,,,,,,,,10,,,,59,0
88014,note_on,7,0,12,,,,,,,,,11,,,,55,0
88014,note_on,45,0,15,,,,,,,,,14,,,,33,0
88020,note_on,8,0,11,,,,,,,,,10,,,,60,112
88020,set_tempo,60,1,0,,,,,,1153846,,,,,,,,
88022,note_on,8,0,12,,,,,,,,,11,,,,57,112
88025,note_on,15,0,13,,,,,,,,,12,,,,52,112
88027,note_on,15,0,14,,,,,,,,,13,,,,45,112
88029,note_on,15,0,15,,,,,,,,,14,,,,33,112
88043,note_on,23,0,11,,,,,,,,,10,,,,60,0
88045,note_on,23,0,12,,,,,,,,,11,,,,57,0
88048,note_on,23,0,13,,,,,,,,,12,,,,52,0
88050,note_on,23,0,14,,,,,,,,,13,,,,45,0
88052,note_on,23,0,15,,,,,,,,,14,,,,33,0
88065,note_on,22,0,11,,,,,,,,,10,,,,62,112
88067,note_on,22,0,12,,,,,,,,,11,,,,59,112
88070,note_on,22,0,13,,,,,,,,,12,,,,55,112
88072,note_on,7,0,11,,,,,,,,,10,,,,62,0
88072,note_on,22,0,14,,,,,,,,,13,,,,43,112
88074,note_on,7,0,12,,,,,,,,,11,,,,59,0
88074,note_on,22,0,15,,,,,,,,,14,,,,31,112
88077,note_on,7,0,13,,,,,,,,,12,,,,55,0
88079,note_on,7,0,14,,,,,,,,,13,,,,43,0
88080,note_on,8,0,11,,,,,,,,,10,,,,64,127
88080,set_tempo,60,1,0,,,,,,1200000,,,,,,,,
88081,note_on,7,0,15,,,,,,,,,14,,,,31,0
88082,note_on,8,0,12,,,,,,,,,11,,,,60,127
88085,note_on,8,0,13,,,,,,,,,12,,,,55,127
88087,note_on,8,0,14,,,,,,,,,13,,,,48,127
88089,note_on,8,0,15,,,,,,,,,14,,,,36,127
88140,set_tempo,60,1,0,,,,,,1153846,,,,,,,,
88190,note_on,110,0,11,,,,,,,,,10,,,,64,0
88192,note_on,110,0,12,,,,,,,,,11,,,,60,0
88195,note_on,110,0,13,,,,,,,,,12,,,,55,0
88197,note_on,110,0,14,,,,,,,,,13,,,,48,0
88199,note_on,110,0,15,,,,,,,,,14,,,,36,0
88200,set_tempo,60,1,0,,,,,,1200000,,,,,,,,
88200,note_on,10,0,11,,,,,,,,,10,,,,64,112
88201,note_on,210,0,1,,,,,,,,,0,,,,76,101
88201,note_on,210,0,5,,,,,,,,,4,,,,64,100
88202,note_on,210,0,2,,,,,,,,,1,,,,76,100
88202,note_on,0,0,2,,,,,,,,,1,,,,72,100
88202,note_on,10,0,12,,,,,,,,,11,,,,60,112
88203,note_on,210,0,6,,,,,,,,,5,,,,60,100
88205,note_on,10,0,13,,,,,,,,,12,,,,60,112
88207,note_on,10,0,14,,,,,,,,,13,,,,48,112
88207,note_on,210,0,4,,,,,,,,,3,,,,52,100
88209,note_on,10,0,15,,,,,,,,,14,,,,36,112
88230,note_on,30,0,11,,,,,,,,,10,,,,64,0
88231,note_on,30,0,5,,,,,,,,,4,,,,64,0
88232,note_on,30,0,2,,,,,,,,,1,,,,72,0
88232,note_on,0,0,2,,,,,,,,,1,,,,76,0
88232,note_on,30,0,12,,,,,,,,,11,,,,60,0
88233,note_on,30,0,6,,,,,,,,,5,,,,60,0
88235,note_on,30,0,13,,,,,,,,,12,,,,60,0
88237,note_on,30,0,4,,,,,,,,,3,,,,52,0
88237,note_on,30,0,14,,,,,,,,,13,,,,48,0
88239,note_on,30,0,15,,,,,,,,,14,,,,36,0
88246,note_on,0,0,1,,,,,,,,,0,,,,77,101
88246,note_on,45,0,1,,,,,,,,,0,,,,76,0
88260,set_tempo,60,1,0,,,,,,1153846,,,,,,,,
88261,note_on,15,0,1,,,,,,,,,0,,,,77,0
88261,note_on,0,0,1,,,,,,,,,0,,,,76,101
88261,note_on,30,0,5,,,,,,,,,4,,,,64,100
88262,note_on,0,0,2,,,,,,,,,1,,,,71,100
88262,note_on,30,0,2,,,,,,,,,1,,,,74,100
88263,note_on,30,0,6,,,,,,,,,5,,,,62,100
88267,note_on,30,0,4,,,,,,,,,3,,,,52,100
88291,note_on,30,0,5,,,,,,,,,4,,,,64,0
88292,note_on,30,0,2,,,,,,,,,1,,,,71,0
88292,note_on,0,0,2,,,,,,,,,1,,,,74,0
88293,note_on,30,0,6,,,,,,,,,5,,,,62,0
88297,note_on,30,0,4,,,,,,,,,3,,,,52,0
88306,note_on,0,0,1,,,,,,,,,0,,,,76,101
88306,note_on,45,0,1,,,,,,,,,0,,,,76,0
88306,note_on,0,0,1,,,,,,,,,0,,,,80,101
88320,set_tempo,60,1,0,,,,,,1200000,,,,,,,,
88321,note_on,0,0,1,,,,,,,,,0,,,,80,0
88321,note_on,0,0,1,,,,,,,,,0,,,,81,116
88321,note_on,15,0,1,,,,,,,,,0,,,,76,0
88321,note_on,30,0,5,,,,,,,,,4,,,,64,115
88321,note_on,0,0,1,,,,,,,,,0,,,,76,116
88322,note_on,0,0,2,,,,,,,,,1,,,,69,115
88322,note_on,30,0,2,,,,,,,,,1,,,,72,115
88323,note_on,30,0,6,,,,,,,,,5,,,,60,115
88327,note_on,30,0,4,,,,,,,,,3,,,,57,115
88380,set_tempo,60,1,0,,,,,,1153846,,,,,,,,
88431,note_on,110,0,5,,,,,,,,,4,,,,64,0
88431,note_on,0,0,1,,,,,,,,,0,,,,81,0
88431,note_on,110,0,1,,,,,,,,,0,,,,76,0
88432,note_on,110,0,2,,,,,,,,,1,,,,69,0
88432,note_on,0,0,2,,,,,,,,,1,,,,72,0
88433,note_on,110,0,6,,,,,,,,,5,,,,60,0
88437,note_on,110,0,4,,,,,,,,,3,,,,57,0
88440,set_tempo,60,1,0,,,,,,1200000,,,,,,,,
88440,note_on,0,0,11,,,,,,,,,10,,,,60,112
88440,control_change,210,0,11,,,,,,,,,10,11,41,,,
88441,note_on,10,0,1,,,,,,,,,0,,,,81,101
88441,note_on,0,0,1,,,,,,,,,0,,,,76,101
88441,note_on,10,0,5,,,,,,,,,4,,,,64,100
88442,note_on,0,0,12,,,,,,,,,11,,,,57,112
88442,note_on,10,0,2,,,,,,,,,1,,,,72,100
88442,control_change,210,0,12,,,,,,,,,11,11,41,,,
88442,note_on,0,0,2,,,,,,,,,1,,,,69,100
88443,note_on,10,0,6,,,,,,,,,5,,,,60,100
88445,note_on,0,0,13,,,,,,,,,12,,,,52,112
88445,control_change,210,0,13,,,,,,,,,12,11,41,,,
88447,control_change,210,0,14,,,,,,,,,13,11,41,,,
88447,note_on,10,0,4,,,,,,,,,3,,,,57,100
88447,note_on,0,0,14,,,,,,,,,13,,,,45,112
88449,control_change,210,0,15,,,,,,,,,14,11,41,,,
88449,note_on,0,0,15,,,,,,,,,14,,,,33,112
88460,note_on,0,0,11,,,,,,,,,10,,,,64,112
88460,note_on,20,0,11,,,,,,,,,10,,,,60,0
88462,note_on,20,0,12,,,,,,,,,11,,,,57,0
88462,note_on,0,0,12,,,,,,,,,11,,,,60,112
88464,control_change,4,0,11,,,,,,,,,10,11,46,,,
88466,control_change,4,0,12,,,,,,,,,11,11,46,,,
88469,control_change,24,0,13,,,,,,,,,12,11,46,,,
88471,note_on,30,0,5,,,,,,,,,4,,,,64,0
88471,control_change,24,0,14,,,,,,,,,13,11,46,,,
88471,note_on,0,0,1,,,,,,,,,0,,,,81,0
88471,note_on,30,0,1,,,,,,,,,0,,,,76,0
88472,note_on,30,0,2,,,,,,,,,1,,,,69,0
88472,note_on,0,0,2,,,,,,,,,1,,,,72,0
88473,note_on,30,0,6,,,,,,,,,5,,,,60,0
88473,control_change,24,0,15,,,,,,,,,14,11,46,,,
88475,note_on,6,0,13,,,,,,,,,12,,,,52,0
88476,control_change,12,0,11,,,,,,,,,10,11,49,,,
88477,note_on,6,0,14,,,,,,,,,13,,,,45,0
88477,note_on,30,0,4,,,,,,,,,3,,,,57,0
88478,control_change,12,0,12,,,,,,,,,11,11,49,,,
88479,note_on,6,0,15,,,,,,,,,14,,,,33,0
88480,note_on,4,0,11,,,,,,,,,10,,,,64,0
88480,note_on,0,0,11,,,,,,,,,10,,,,62,112
88481,control_change,6,0,13,,,,,,,,,12,11,49,,,
88482,note_on,0,0,12,,,,,,,,,11,,,,59,112
88482,note_on,4,0,12,,,,,,,,,11,,,,60,0
88483,control_change,6,0,14,,,,,,,,,13,11,49,,,
88485,control_change,6,0,15,,,,,,,,,14,11,49,,,
88488,control_change,8,0,11,,,,,,,,,10,11,52,,,
88490,control_change,8,0,12,,,,,,,,,11,11,52,,,
88493,control_change,12,0,13,,,,,,,,,12,11,52,,,
88495,control_change,12,0,14,,,,,,,,,13,11,52,,,
88495,note_on,7,0,11,,,,,,,,,10,,,,62,0
88497,control_change,12,0,15,,,,,,,,,14,11,52,,,
88497,note_on,7,0,12,,,,,,,,,11,,,,59,0
88500,set_tempo,60,1,0,,,,,,1153846,,,,,,,,
88500,note_on,0,0,11,,,,,,,,,10,,,,62,112
88500,control_change,5,0,11,,,,,,,,,10,11,55,,,
88502,control_change,5,0,12,,,,,,,,,11,11,55,,,
88502,note_on,0,0,12,,,,,,,,,11,,,,59,112
88505,control_change,12,0,13,,,,,,,,,12,11,55,,,
88505,note_on,0,0,13,,,,,,,,,12,,,,55,112
88507,note_on,0,0,14,,,,,,,,,13,,,,43,112
88507,control_change,12,0,14,,,,,,,,,13,11,55,,,
88509,control_change,12,0,15,,,,,,,,,14,11,55,,,
88509,note_on,0,0,15,,,,,,,,,14,,,,31,112
88520,note_on,20,0,11,,,,,,,,,10,,,,62,0
88520,note_on,0,0,11,,,,,,,,,10,,,,65,112
88522,note_on,20,0,12,,,,,,,,,11,,,,59,0
88522,note_on,0,0,12,,,,,,,,,11,,,,62,112
88524,control_change,4,0,11,,,,,,,,,10,11,60,,,
88526,control_change,4,0,12,,,,,,,,,11,11,60,,,
88529,control_change,24,0,13,,,,,,,,,12,11,60,,,
88531,control_change,24,0,14,,,,,,,,,13,11,60,,,
88533,control_change,24,0,15,,,,,,,,,14,11,60,,,
88535,note_on,6,0,13,,,,,,,,,12,,,,55,0
88536,control_change,12,0,11,,,,,,,,,10,11,63,,,
88537,note_on,6,0,14,,,,,,,,,13,,,,43,0
88538,control_change,12,0,12,,,,,,,,,11,11,63,,,
88539,note_on,6,0,15,,,,,,,,,14,,,,31,0
88540,note_on,0,0,11,,,,,,,,,10,,,,64,112
88540,note_on,4,0,11,,,,,,,,,10,,,,65,0
88541,control_change,6,0,13,,,,,,,,,12,11,63,,,
88542,note_on,4,0,12,,,,,,,,,11,,,,62,0
88542,note_on,0,0,12,,,,,,,,,11,,,,60,112
88543,control_change,6,0,14,,,,,,,,,13,11,63,,,
88545,control_change,6,0,15,,,,,,,,,14,11,63,,,
88548,control_change,8,0,11,,,,,,,,,10,11,66,,,
88550,control_change,8,0,12,,,,,,,,,11,11,66,,,
88553,control_change,12,0,13,,,,,,,,,12,11,66,,,
88555,note_on,7,0,11,,,,,,,,,10,,,,64,0
88555,control_change,12,0,14,,,,,,,,,13,11,66,,,
88557,note_on,7,0,12,,,,,,,,,11,,,,60,0
88557,control_change,12,0,15,,,,,,,,,14,11,66,,,
88560,set_tempo,60,1,0,,,,,,1200000,,,,,,,,
88560,note_on,0,0,11,,,,,,,,,10,,,,64,127
88560,control_change,5,0,11,,,,,,,,,10,11,69,,,
88562,note_on,0,0,12,,,,,,,,,11,,,,60,127
88562,control_change,5,0,12,,,,,,,,,11,11,69,,,
88565,control_change,12,0,13,,,,,,,,,12,11,69,,,
88565,note_on,0,0,13,,,,,,,,,12,,,,55,127
88567,note_on,0,0,14,,,,,,,,,13,,,,48,127
88567,control_change,12,0,14,,,,,,,,,13,11,69,,,
88569,control_change,12,0,15,,,,,,,,,14,11,69,,,
88569,note_on,0,0,15,,,,,,,,,14,,,,36,127
88620,set_tempo,60,1,0,,,,,,1153846,,,,,,,,
88670,note_on,110,0,11,,,,,,,,,10,,,,64,0
88672,note_on,110,0,12,,,,,,,,,11,,,,60,0
88675,note_on,110,0,13,,,,,,,,,12,,,,55,0
88677,note_on,110,0,14,,,,,,,,,13,,,,48,0
88679,note_on,110,0,15,,,,,,,,,14,,,,36,0
88680,note_on,0,0,11,,,,,,,,,10,,,,64,112
88680,set_tempo,60,1,0,,,,,,1200000,,,,,,,,
88680,control_change,10,0,11,,,,,,,,,10,11,69,,,
88681,control_change,0,0,5,,,,,,,,,4,11,62,,,
88681,note_on,210,0,5,,,,,,,,,4,,,,64,100
88682,control_change,0,0,2,,,,,,,,,1,11,60,,,
88682,note_on,210,0,2,,,,,,,,,1,,,,64,100
88682,note_on,0,0,12,,,,,,,,,11,,,,60,112
88682,control_change,10,0,12,,,,,,,,,11,11,69,,,
88683,note_on,0,0,6,,,,,,,,,5,,,,60,100
88683,control_change,210,0,6,,,,,,,,,5,11,62,,,
88684,control_change,4,0,11,,,,,,,,,10,11,66,,,
88685,control_change,10,0,13,,,,,,,,,12,11,69,,,
88685,note_on,0,0,13,,,,,,,,,12,,,,60,112
88686,control_change,3250,0,9,,,,,,,,,8,11,37,,,
88686,control_change,4,0,12,,,,,,,,,11,11,66,,,
88686,note_on,0,0,9,,,,,,,,,8,,,,52,110
88687,note_on,0,0,4,,,,,,,,,3,,,,52,100
88687,note_on,0,0,4,,,,,,,,,3,,,,60,100
88687,control_change,210,0,4,,,,,,,,,3,11,62,,,
88687,control_change,10,0,14,,,,,,,,,13,11,69,,,
88687,note_on,0,0,14,,,,,,,,,13,,,,48,112
88688,control_change,4,0,11,,,,,,,,,10,11,63,,,
88689,note_on,0,0,15,,,,,,,,,14,,,,36,112
88689,control_change,10,0,15,,,,,,,,,14,11,69,,,
88689,control_change,4,0,13,,,,,,,,,12,11,66,,,
88690,control_change,4,0,12,,,,,,,,,11,11,63,,,
88691,control_change,4,0,14,,,,,,,,,13,11,66,,,
88693,control_change,4,0,15,,,,,,,,,14,11,66,,,
88693,control_change,4,0,13,,,,,,,,,12,11,63,,,
88693,control_change,5,0,11,,,,,,,,,10,11,60,,,
88695,control_change,5,0,12,,,,,,,,,11,11,60,,,
88695,control_change,4,0,14,,,,,,,,,13,11,63,,,
88697,control_change,4,0,11,,,,,,,,,10,11,57,,,
88697,control_change,4,0,15,,,,,,,,,14,11,63,,,
88697,control_change,16,0,5,,,,,,,,,4,11,60,,,
88698,control_change,5,0,13,,,,,,,,,12,11,60,,,
88698,control_change,16,0,2,,,,,,,,,1,11,59,,,
88699,control_change,4,0,12,,,,,,,,,11,11,57,,,
88699,control_change,16,0,6,,,,,,,,,5,11,60,,,
88700,control_change,5,0,14,,,,,,,,,13,11,60,,,
88702,control_change,5,0,15,,,,,,,,,14,11,60,,,
88702,note_on,0,0,2,,,,,,,,,1,,,,69,100
88702,note_on,4,0,2,,,,,,,,,1,,,,64,0
88702,control_change,4,0,13,,,,,,,,,12,11,57,,,
88703,control_change,16,0,4,,,,,,,,,3,11,60,,,
88704,control_change,4,0,14,,,,,,,,,13,11,57,,,
88706,control_change,9,0,11,,,,,,,,,10,11,52,,,
88706,control_change,4,0,15,,,,,,,,,14,11,57,,,
88708,control_change,9,0,12,,,,,,,,,11,11,52,,,
88710,control_change,0,0,11,,,,,,,,,10,11,49,,,
88710,note_on,4,0,11,,,,,,,,,10,,,,64,0
88711,note_on,14,0,5,,,,,,,,,4,,,,64,0
88711,control_change,9,0,13,,,,,,,,,12,11,52,,,
88712,control_change,0,0,12,,,,,,,,,11,11,49,,,
88712,note_on,4,0,12,,,,,,,,,11,,,,60,0
88713,control_change,2,0,5,,,,,,,,,4,11,58,,,
88713,note_on,14,0,6,,,,,,,,,5,,,,60,0
88713,control_change,9,0,14,,,,,,,,,13,11,52,,,
88714,control_change,12,0,2,,,,,,,,,1,11,57,,,
88715,control_change,2,0,6,,,,,,,,,5,11,58,,,
88715,control_change,5,0,11,,,,,,,,,10,11,46,,,
88715,note_on,4,0,13,,,,,,,,,12,,,,60,0
88715,control_change,0,0,13,,,,,,,,,12,11,49,,,
88715,control_change,9,0,15,,,,,,,,,14,11,52,,,
88716,note_on,30,0,9,,,,,,,,,8,,,,52,0
88717,note_on,0,0,4,,,,,,,,,3,,,,52,0
88717,control_change,5,0,12,,,,,,,,,11,11,46,,,
88717,control_change,0,0,14,,,,,,,,,13,11,49,,,
88717,note_on,4,0,14,,,,,,,,,13,,,,48,0
88717,note_on,14,0,4,,,,,,,,,3,,,,60,0
88719,control_change,2,0,4,,,,,,,,,3,11,58,,,
88719,control_change,0,0,15,,,,,,,,,14,11,49,,,
88719,control_change,4,0,11,,,,,,,,,10,11,43,,,
88719,note_on,4,0,15,,,,,,,,,14,,,,36,0
88720,control_change,5,0,13,,,,,,,,,12,11,46,,,
88721,control_change,4,0,12,,,,,,,,,11,11,43,,,
88722,note_on,8,0,2,,,,,,,,,1,,,,69,0
88722,control_change,5,0,14,,,,,,,,,13,11,46,,,
88722,note_on,0,0,2,,,,,,,,,1,,,,68,100
88724,control_change,5,0,15,,,,,,,,,14,11,46,,,
88724,control_change,4,0,13,,,,,,,,,12,11,43,,,
88726,control_change,4,0,14,,,,,,,,,13,11,43,,,
88728,control_change,4,0,15,,,,,,,,,14,11,43,,,
88729,control_change,16,0,5,,,,,,,,,4,11,56,,,
88730,control_change,8,0,2,,,,,,,,,1,11,56,,,
88731,control_change,16,0,6,,,,,,,,,5,11,56,,,
88735,control_change,16,0,4,,,,,,,,,3,11,56,,,
88737,note_on,7,0,2,,,,,,,,,1,,,,68,0
88740,set_tempo,60,1,0,,,,,,1153846,,,,,,,,
88741,note_on,12,0,5,,,,,,,,,4,,,,64,100
88742,note_on,5,0,2,,,,,,,,,1,,,,68,100
88743,note_on,12,0,6,,,,,,,,,5,,,,62,100
88745,control_change,4,0,5,,,,,,,,,4,11,54,,,
88746,control_change,4,0,2,,,,,,,,,1,11,54,,,
88746,note_on,30,0,9,,,,,,,,,8,,,,52,110
88747,note_on,12,0,4,,,,,,,,,3,,,,52,100
88747,note_on,0,0,4,,,,,,,,,3,,,,59,100
88747,control_change,4,0,6,,,,,,,,,5,11,54,,,
88751,control_change,4,0,4,,,,,,,,,3,11,54,,,
88761,control_change,16,0,5,,,,,,,,,4,11,52,,,
88762,note_on,0,0,2,,,,,,,,,1,,,,71,100
88762,control_change,0,0,2,,,,,,,,,1,11,52,,,
88762,note_on,16,0,2,,,,,,,,,1,,,,68,0
88763,control_change,16,0,6,,,,,,,,,5,11,52,,,
88767,control_change,16,0,4,,,,,,,,,3,11,52,,,
88771,note_on,10,0,5,,,,,,,,,4,,,,64,0
88773,note_on,10,0,6,,,,,,,,,5,,,,62,0
88776,note_on,30,0,9,,,,,,,,,8,,,,52,0
88777,note_on,10,0,4,,,,,,,,,3,,,,59,0
88777,control_change,6,0,5,,,,,,,,,4,11,50,,,
88777,note_on,0,0,4,,,,,,,,,3,,,,52,0
88778,control_change,16,0,2,,,,,,,,,1,11,50,,,
88779,control_change,6,0,6,,,,,,,,,5,11,50,,,
88782,note_on,0,0,2,,,,,,,,,1,,,,69,100
88782,note_on,4,0,2,,,,,,,,,1,,,,71,0
88783,control_change,6,0,4,,,,,,,,,3,11,50,,,
88793,control_change,16,0,5,,,,,,,,,4,11,48,,,
88794,control_change,12,0,2,,,,,,,,,1,11,48,,,
88795,control_change,16,0,6,,,,,,,,,5,11,48,,,
88797,note_on,3,0,2,,,,,,,,,1,,,,69,0
88799,control_change,16,0,4,,,,,,,,,3,11,48,,,
88800,set_tempo,60,1,0,,,,,,1200000,,,,,,,,
88801,note_on,8,0,5,,,,,,,,,4,,,,64,100
88802,note_on,5,0,2,,,,,,,,,1,,,,69,115
88803,note_on,8,0,6,,,,,,,,,5,,,,60,100
88806,note_on,30,0,9,,,,,,,,,8,,,,45,110
88807,note_on,0,0,4,,,,,,,,,3,,,,57,100
88807,note_on,8,0,4,,,,,,,,,3,,,,52,100
88860,set_tempo,60,1,0,,,,,,1165049,,,,,,,,
88911,note_on,110,0,5,,,,,,,,,4,,,,64,0
88912,note_on,110,0,2,,,,,,,,,1,,,,69,0
88913,note_on,110,0,6,,,,,,,,,5,,,,60,0
88916,note_on,110,0,9,,,,,,,,,8,,,,45,0
88917,note_on,0,0,4,,,,,,,,,3,,,,52,0
88917,note_on,110,0,4,,,,,,,,,3,,,,57,0
88920,set_tempo,60,1,0,,,,,,1237113,,,,,,,,
88921,note_on,10,0,5,,,,,,,,,4,,,,64,100
88922,note_on,10,0,2,,,,,,,,,1,,,,69,100
88923,note_on,10,0,6,,,,,,,,,5,,,,60,100
88926,note_on,10,0,9,,,,,,,,,8,,,,45,110
88927,note_on,10,0,4,,,,,,,,,3,,,,52,100
88927,note_on,0,0,4,,,,,,,,,3,,,,57,100
88980,set_tempo,60,1,0,,,,,,1165049,,,,,,,,
89010,set_tempo,30,1,0,,,,,,1558442,,,,,,,,
89031,note_on,110,0,5,,,,,,,,,4,,,,64,0
89032,note_on,110,0,2,,,,,,,,,1,,,,69,0
89033,note_on,110,0,6,,,,,,,,,5,,,,60,0
89036,note_on,110,0,9,,,,,,,,,8,,,,45,0
89037,note_on,110,0,4,,,,,,,,,3,,,,57,0
89037,note_on,0,0,4,,,,,,,,,3,,,,52,0
89040,set_tempo,30,1,0,,,,,,1250000,,,,,,,,
89040,note_on,0,0,11,,,,,,,,,10,,,,88,127
89040,control_change,321,0,11,,,,,,,,,10,11,102,,,
89041,note_on,0,0,1,,,,,,,,,0,,,,88,116
89041,control_change,570,0,1,,,,,,,,,0,11,91,,,
89041,note_on,0,0,5,,,,,,,,,4,,,,64,115
89041,note_on,0,0,1,,,,,,,,,0,,,,76,116
89041,control_change,10,0,5,,,,,,,,,4,11,102,,,
89042,note_on,0,0,2,,,,,,,,,1,,,,76,115
89042,note_on,0,0,12,,,,,,,,,11,,,,76,127
89042,control_change,0,0,2,,,,,,,,,1,11,91,,,
89042,note_on,10,0,2,,,,,,,,,1,,,,64,115
89042,note_on,0,0,3,,,,,,,,,2,,,,76,116
89042,note_on,0,0,3,,,,,,,,,2,,,,64,116
89042,control_change,1530,0,3,,,,,,,,,2,11,91,,,
89042,note_on,0,0,7,,,,,,,,,6,,,,76,127
89042,note_on,0,0,12,,,,,,,,,11,,,,64,127
89042,control_change,321,0,12,,,,,,,,,11,11,102,,,
89042,control_change,4090,0,7,,,,,,,,,6,11,102,,,
89042,note_on,0,0,7,,,,,,,,,6,,,,64,127
89043,control_change,10,0,6,,,,,,,,,5,11,102,,,
89043,note_on,0,0,6,,,,,,,,,5,,,,52,115
89044,note_on,0,0,8,,,,,,,,,7,,,,64,125
89044,note_on,0,0,8,,,,,,,,,7,,,,52,125
89044,control_change,5400,0,8,,,,,,,,,7,11,102,,,
89045,control_change,321,0,13,,,,,,,,,12,11,102,,,
89045,note_on,0,0,13,,,,,,,,,12,,,,76,127
89045,note_on,0,0,13,,,,,,,,,12,,,,64,127
89046,control_change,10,0,9,,,,,,,,,8,11,102,,,
89046,note_on,0,0,9,,,,,,,,,8,,,,52,125
89047,control_change,321,0,14,,,,,,,,,13,11,102,,,
89047,note_on,0,0,4,,,,,,,,,3,,,,40,115
89047,note_on,0,0,4,,,,,,,,,3,,,,52,115
89047,note_on,0,0,14,,,,,,,,,13,,,,52,127
89047,control_change,10,0,4,,,,,,,,,3,11,102,,,
89048,note_on,4140,0,10,,,,,,,,,15,,,,52,82
89049,note_on,0,0,15,,,,,,,,,14,,,,40,127
89049,control_change,321,0,15,,,,,,,,,14,11,102,,,
89100,set_tempo,60,1,0,,,,,,1165049,,,,,,,,
89104,note_on,56,0,10,,,,,,,,,15,,,,52,0
89142,note_on,102,0,11,,,,,,,,,10,,,,88,0
89143,note_on,102,0,5,,,,,,,,,4,,,,64,0
89143,note_on,102,0,1,,,,,,,,,0,,,,76,0
89143,note_on,0,0,1,,,,,,,,,0,,,,88,0
89144,note_on,0,0,2,,,,,,,,,1,,,,64,0
89144,note_on,0,0,7,,,,,,,,,6,,,,64,0
89144,note_on,102,0,7,,,,,,,,,6,,,,76,0
89144,note_on,102,0,2,,,,,,,,,1,,,,76,0
89144,note_on,0,0,3,,,,,,,,,2,,,,64,0
89144,note_on,102,0,3,,,,,,,,,2,,,,76,0
89144,note_on,0,0,12,,,,,,,,,11,,,,64,0
89144,note_on,102,0,12,,,,,,,,,11,,,,76,0
89145,note_on,102,0,6,,,,,,,,,5,,,,52,0
89146,note_on,0,0,8,,,,,,,,,7,,,,52,0
89146,note_on,102,0,8,,,,,,,,,7,,,,64,0
89147,note_on,0,0,13,,,,,,,,,12,,,,76,0
89147,note_on,102,0,13,,,,,,,,,12,,,,64,0
89148,note_on,102,0,9,,,,,,,,,8,,,,52,0
89149,note_on,102,0,4,,,,,,,,,3,,,,52,0
89149,note_on,102,0,14,,,,,,,,,13,,,,52,0
89149,note_on,0,0,4,,,,,,,,,3,,,,40,0
89151,note_on,102,0,15,,,,,,,,,14,,,,40,0
89160,set_tempo,60,1,0,,,,,,1237113,,,,,,,,
89160,note_on,18,0,11,,,,,,,,,10,,,,88,127
89161,note_on,0,0,1,,,,,,,,,0,,,,76,116
89161,note_on,18,0,5,,,,,,,,,4,,,,64,115
89161,note_on,18,0,1,,,,,,,,,0,,,,88,116
89162,note_on,18,0,12,,,,,,,,,11,,,,64,127
89162,note_on,0,0,12,,,,,,,,,11,,,,76,127
89162,note_on,0,0,7,,,,,,,,,6,,,,76,127
89162,note_on,0,0,3,,,,,,,,,2,,,,76,116
89162,note_on,18,0,3,,,,,,,,,2,,,,64,116
89162,note_on,0,0,2,,,,,,,,,1,,,,76,115
89162,note_on,18,0,2,,,,,,,,,1,,,,64,115
89162,note_on,18,0,7,,,,,,,,,6,,,,64,127
89163,note_on,18,0,6,,,,,,,,,5,,,,52,115
89164,note_on,18,0,8,,,,,,,,,7,,,,52,125
89164,note_on,0,0,8,,,,,,,,,7,,,,64,125
89165,note_on,18,0,13,,,,,,,,,12,,,,76,127
89165,note_on,0,0,13,,,,,,,,,12,,,,64,127
89166,note_on,18,0,9,,,,,,,,,8,,,,52,125
89167,note_on,0,0,4,,,,,,,,,3,,,,52,115
89167,note_on,18,0,4,,,,,,,,,3,,,,40,115
89167,note_on,18,0,14,,,,,,,,,13,,,,52,127
89168,note_on,64,0,10,,,,,,,,,15,,,,52,82
89169,note_on,18,0,15,,,,,,,,,14,,,,40,127
89220,set_tempo,60,1,0,,,,,,1165049,,,,,,,,
89224,note_on,56,0,10,,,,,,,,,15,,,,52,0
89250,set_tempo,30,1,0,,,,,,1445783,,,,,,,,
89262,note_on,102,0,11,,,,,,,,,10,,,,88,0
89263,note_on,0,0,1,,,,,,,,,0,,,,88,0
89263,note_on,102,0,5,,,,,,,,,4,,,,64,0
89263,note_on,102,0,1,,,,,,,,,0,,,,76,0
89264,note_on,0,0,12,,,,,,,,,11,,,,64,0
89264,note_on,102,0,12,,,,,,,,,11,,,,76,0
89264,note_on,0,0,3,,,,,,,,,2,,,,64,0
89264,note_on,102,0,3,,,,,,,,,2,,,,76,0
89264,note_on,102,0,2,,,,,,,,,1,,,,76,0
89264,note_on,0,0,2,,,,,,,,,1,,,,64,0
89264,note_on,102,0,7,,,,,,,,,6,,,,76,0
89264,note_on,0,0,7,,,,,,,,,6,,,,64,0
89265,note_on,102,0,6,,,,,,,,,5,,,,52,0
89266,note_on,102,0,8,,,,,,,,,7,,,,64,0
89266,note_on,0,0,8,,,,,,,,,7,,,,52,0
89267,note_on,0,0,13,,,,,,,,,12,,,,76,0
89267,note_on,102,0,13,,,,,,,,,12,,,,64,0
89268,note_on,102,0,9,,,,,,,,,8,,,,52,0
89269,note_on,0,0,4,,,,,,,,,3,,,,40,0
89269,note_on,102,0,4,,,,,,,,,3,,,,52,0
89269,note_on,102,0,14,,,,,,,,,13,,,,52,0
89271,note_on,102,0,15,,,,,,,,,14,,,,40,0
89280,set_tempo,30,1,0,,,,,,1250000,,,,,,,,
89281,control_change,18,0,5,,,,,,,,,4,11,47,,,
89281,note_on,0,0,5,,,,,,,,,4,,,,64,100
89282,note_on,0,0,2,,,,,,,,,1,,,,69,115
89282,control_change,18,0,2,,,,,,,,,1,11,47,,,
89283,note_on,0,0,6,,,,,,,,,5,,,,60,100
89283,control_change,18,0,6,,,,,,,,,5,11,47,,,
89286,control_change,18,0,9,,,,,,,,,8,11,47,,,
89286,note_on,0,0,9,,,,,,,,,8,,,,45,90
89287,control_change,18,0,4,,,,,,,,,3,11,47,,,
89287,note_on,0,0,4,,,,,,,,,3,,,,57,115
89287,note_on,0,0,4,,,,,,,,,3,,,,52,115
89340,set_tempo,60,1,0,,,,,,1165049,,,,,,,,
89391,note_on,110,0,5,,,,,,,,,4,,,,64,0
89392,note_on,110,0,2,,,,,,,,,1,,,,69,0
89393,note_on,110,0,6,,,,,,,,,5,,,,60,0
89396,note_on,110,0,9,,,,,,,,,8,,,,45,0
89397,note_on,110,0,4,,,,,,,,,3,,,,57,0
89397,note_on,0,0,4,,,,,,,,,3,,,,52,0
89400,set_tempo,60,1,0,,,,,,1237113,,,,,,,,
89401,note_on,10,0,5,,,,,,,,,4,,,,64,100
89402,note_on,10,0,2,,,,,,,,,1,,,,69,100
89403,note_on,10,0,6,,,,,,,,,5,,,,60,100
89406,note_on,10,0,9,,,,,,,,,8,,,,45,90
89407,note_on,0,0,4,,,,,,,,,3,,,,57,100
89407,note_on,10,0,4,,,,,,,,,3,,,,52,100
89460,set_tempo,60,1,0,,,,,,1165049,,,,,,,,
89490,set_tempo,30,1,0,,,,,,1363636,,,,,,,,
89511,note_on,110,0,5,,,,,,,,,4,,,,64,0
89512,note_on,110,0,2,,,,,,,,,1,,,,69,0
89513,note_on,110,0,6,,,,,,,,,5,,,,60,0
89516,note_on,110,0,9,,,,,,,,,8,,,,45,0
89517,note_on,0,0,4,,,,,,,,,3,,,,52,0
89517,note_on,110,0,4,,,,,,,,,3,,,,57,0
89520,set_tempo,30,1,0,,,,,,1250000,,,,,,,,
89520,note_on,258,0,11,,,,,,,,,10,,,,77,127
89521,note_on,0,0,1,,,,,,,,,0,,,,77,116
89521,control_change,10,0,5,,,,,,,,,4,11,102,,,
89521,note_on,0,0,5,,,,,,,,,4,,,,65,115
89521,note_on,258,0,1,,,,,,,,,0,,,,89,116
89522,note_on,258,0,12,,,,,,,,,11,,,,65,127
89522,note_on,0,0,2,,,,,,,,,1,,,,65,115
89522,control_change,0,0,2,,,,,,,,,1,11,91,,,
89522,note_on,10,0,2,,,,,,,,,1,,,,77,115
89522,note_on,0,0,3,,,,,,,,,2,,,,65,116
89522,note_on,258,0,3,,,,,,,,,2,,,,77,116
89523,note_on,10,0,6,,,,,,,,,5,,,,65,115
89523,control_change,0,0,6,,,,,,,,,5,11,102,,,
89524,note_on,0,0,8,,,,,,,,,7,,,,65,125
89524,control_change,258,0,8,,,,,,,,,7,11,102,,,
89525,note_on,258,0,13,,,,,,,,,12,,,,65,127
89526,control_change,10,0,9,,,,,,,,,8,11,102,,,
89526,note_on,0,0,9,,,,,,,,,8,,,,53,125
89527,control_change,10,0,4,,,,,,,,,3,11,102,,,
89527,note_on,258,0,14,,,,,,,,,13,,,,53,127
89527,note_on,0,0,4,,,,,,,,,3,,,,41,115
89527,note_on,0,0,4,,,,,,,,,3,,,,53,115
89529,note_on,258,0,15,,,,,,,,,14,,,,41,127
89580,set_tempo,60,1,0,,,,,,1165049,,,,,,,,
89622,note_on,102,0,11,,,,,,,,,10,,,,77,0
89623,note_on,102,0,1,,,,,,,,,0,,,,77,0
89623,note_on,0,0,1,,,,,,,,,0,,,,89,0
89623,note_on,102,0,5,,,,,,,,,4,,,,65,0
89624,note_on,0,0,2,,,,,,,,,1,,,,77,0
89624,note_on,102,0,12,,,,,,,,,11,,,,65,0
89624,note_on,0,0,3,,,,,,,,,2,,,,77,0
89624,note_on,102,0,3,,,,,,,,,2,,,,65,0
89624,note_on,102,0,2,,,,,,,,,1,,,,65,0
89625,note_on,102,0,6,,,,,,,,,5,,,,65,0
89626,note_on,102,0,8,,,,,,,,,7,,,,65,0
89627,note_on,102,0,13,,,,,,,,,12,,,,65,0
89628,note_on,102,0,9,,,,,,,,,8,,,,53,0
89629,note_on,102,0,4,,,,,,,,,3,,,,53,0
89629,note_on,102,0,14,,,,,,,,,13,,,,53,0
89629,note_on,0,0,4,,,,,,,,,3,,,,41,0
89631,note_on,102,0,15,,,,,,,,,14,,,,41,0
89640,set_tempo,60,1,0,,,,,,1237113,,,,,,,,
89640,note_on,18,0,11,,,,,,,,,10,,,,77,127
89641,note_on,0,0,1,,,,,,,,,0,,,,77,116
89641,note_on,18,0,1,,,,,,,,,0,,,,89,116
89641,note_on,18,0,5,,,,,,,,,4,,,,65,115
89642,note_on,0,0,2,,,,,,,,,1,,,,65,115
89642,note_on,18,0,2,,,,,,,,,1,,,,77,115
89642,note_on,18,0,12,,,,,,,,,11,,,,65,127
89642,note_on,18,0,3,,,,,,,,,2,,,,77,116
89642,note_on,0,0,3,,,,,,,,,2,,,,65,116
89643,note_on,18,0,6,,,,,,,,,5,,,,65,115
89644,note_on,18,0,8,,,,,,,,,7,,,,65,125
89645,note_on,18,0,13,,,,,,,,,12,,,,65,127
89646,note_on,18,0,9,,,,,,,,,8,,,,53,125
89647,note_on,0,0,4,,,,,,,,,3,,,,53,115
89647,note_on,18,0,4,,,,,,,,,3,,,,41,115
89647,note_on,18,0,14,,,,,,,,,13,,,,53,127
89649,note_on,18,0,15,,,,,,,,,14,,,,41,127
89700,set_tempo,60,1,0,,,,,,1165049,,,,,,,,
89730,set_tempo,30,1,0,,,,,,1481481,,,,,,,,
89742,note_on,102,0,11,,,,,,,,,10,,,,77,0
89743,note_on,0,0,1,,,,,,,,,0,,,,89,0
89743,note_on,102,0,1,,,,,,,,,0,,,,77,0
89743,note_on,102,0,5,,,,,,,,,4,,,,65,0
89744,note_on,102,0,12,,,,,,,,,11,,,,65,0
89744,note_on,0,0,3,,,,,,,,,2,,,,77,0
89744,note_on,102,0,3,,,,,,,,,2,,,,65,0
89744,note_on,102,0,2,,,,,,,,,1,,,,65,0
89744,note_on,0,0,2,,,,,,,,,1,,,,77,0
89745,note_on,102,0,6,,,,,,,,,5,,,,65,0
89746,note_on,102,0,8,,,,,,,,,7,,,,65,0
89747,note_on,102,0,13,,,,,,,,,12,,,,65,0
89748,note_on,102,0,9,,,,,,,,,8,,,,53,0
89749,note_on,102,0,4,,,,,,,,,3,,,,53,0
89749,note_on,102,0,14,,,,,,,,,13,,,,53,0
89749,note_on,0,0,4,,,,,,,,,3,,,,41,0
89751,note_on,102,0,15,,,,,,,,,14,,,,41,0
89760,set_tempo,30,1,0,,,,,,1276596,,,,,,,,
89761,control_change,0,0,5,,,,,,,,,4,11,67,,,
89761,note_on,18,0,5,,,,,,,,,4,,,,64,100
89762,control_change,18,0,2,,,,,,,,,1,11,64,,,
89762,note_on,0,0,2,,,,,,,,,1,,,,69,115
89762,note_on,0,0,2,,,,,,,,,1,,,,76,115
89763,note_on,0,0,6,,,,,,,,,5,,,,60,100
89763,control_change,18,0,6,,,,,,,,,5,11,67,,,
89766,control_change,18,0,9,,,,,,,,,8,11,67,,,
89766,note_on,0,0,9,,,,,,,,,8,,,,48,90
89767,control_change,18,0,4,,,,,,,,,3,11,67,,,
89767,note_on,0,0,4,,,,,,,,,3,,,,52,100
89767,note_on,0,0,4,,,,,,,,,3,,,,57,100
89871,note_on,110,0,5,,,,,,,,,4,,,,64,0
89872,note_on,110,0,2,,,,,,,,,1,,,,69,0
89872,note_on,0,0,2,,,,,,,,,1,,,,76,0
89873,note_on,110,0,6,,,,,,,,,5,,,,60,0
89876,note_on,110,0,9,,,,,,,,,8,,,,48,0
89877,note_on,0,0,4,,,,,,,,,3,,,,52,0
89877,note_on,110,0,4,,,,,,,,,3,,,,57,0
89880,set_tempo,120,1,0,,,,,,1318681,,,,,,,,
89881,note_on,10,0,5,,,,,,,,,4,,,,64,100
89882,note_on,10,0,2,,,,,,,,,1,,,,76,100
89882,note_on,0,0,2,,,,,,,,,1,,,,69,100
89883,note_on,10,0,6,,,,,,,,,5,,,,60,100
89886,note_on,10,0,9,,,,,,,,,8,,,,48,90
89887,note_on,10,0,4,,,,,,,,,3,,,,52,100
89887,note_on,0,0,4,,,,,,,,,3,,,,57,100
89991,note_on,110,0,5,,,,,,,,,4,,,,64,0
89992,note_on,110,0,2,,,,,,,,,1,,,,69,0
89992,note_on,0,0,2,,,,,,,,,1,,,,76,0
89993,note_on,110,0,6,,,,,,,,,5,,,,60,0
89996,note_on,110,0,9,,,,,,,,,8,,,,48,0
89997,note_on,0,0,4,,,,,,,,,3,,,,52,0
89997,note_on,110,0,4,,,,,,,,,3,,,,57,0
90000,note_on,0,0,11,,,,,,,,,10,,,,68,127
90000,set_tempo,120,1,0,,,,,,1348315,,,,,,,,
90000,control_change,258,0,11,,,,,,,,,10,11,31,,,
90002,note_on,0,0,12,,,,,,,,,11,,,,62,127
90002,control_change,258,0,12,,,,,,,,,11,11,31,,,
90002,note_on,0,0,12,,,,,,,,,11,,,,64,127
90005,control_change,258,0,13,,,,,,,,,12,11,31,,,
90005,note_on,0,0,13,,,,,,,,,12,,,,59,127
90007,note_on,0,0,14,,,,,,,,,13,,,,52,127
90007,control_change,258,0,14,,,,,,,,,13,11,31,,,
90008,control_change,8,0,11,,,,,,,,,10,11,34,,,
90009,control_change,258,0,15,,,,,,,,,14,11,31,,,
90009,note_on,0,0,15,,,,,,,,,14,,,,40,127
90010,control_change,8,0,12,,,,,,,,,11,11,34,,,
90013,control_change,8,0,13,,,,,,,,,12,11,34,,,
90015,control_change,8,0,14,,,,,,,,,13,11,34,,,
90017,control_change,8,0,15,,,,,,,,,14,11,34,,,
90018,control_change,10,0,11,,,,,,,,,10,11,37,,,
90020,control_change,10,0,12,,,,,,,,,11,11,37,,,
90023,control_change,10,0,13,,,,,,,,,12,11,37,,,
90025,control_change,10,0,14,,,,,,,,,13,11,37,,,
90026,control_change,8,0,11,,,,,,,,,10,11,40,,,
90027,control_change,10,0,15,,,,,,,,,14,11,37,,,
90028,control_change,8,0,12,,,,,,,,,11,11,40,,,
90031,control_change,8,0,13,,,,,,,,,12,11,40,,,
90033,control_change,8,0,14,,,,,,,,,13,11,40,,,
90035,control_change,8,0,15,,,,,,,,,14,11,40,,,
90044,control_change,18,0,11,,,,,,,,,10,11,45,,,
90046,control_change,18,0,12,,,,,,,,,11,11,45,,,
90049,control_change,18,0,13,,,,,,,,,12,11,45,,,
90051,control_change,18,0,14,,,,,,,,,13,11,45,,,
90053,control_change,18,0,15,,,,,,,,,14,11,45,,,
90054,control_change,10,0,11,,,,,,,,,10,11,48,,,
90056,control_change,10,0,12,,,,,,,,,11,11,48,,,
90059,control_change,10,0,13,,,,,,,,,12,11,48,,,
90061,control_change,10,0,14,,,,,,,,,13,11,48,,,
90063,control_change,10,0,15,,,,,,,,,14,11,48,,,
90110,note_on,56,0,11,,,,,,,,,10,,,,68,0
90112,note_on,0,0,12,,,,,,,,,11,,,,62,0
90112,note_on,56,0,12,,,,,,,,,11,,,,64,0
90115,note_on,56,0,13,,,,,,,,,12,,,,59,0
90117,note_on,56,0,14,,,,,,,,,13,,,,52,0
90119,note_on,56,0,15,,,,,,,,,14,,,,40,0
90120,note_on,10,0,11,,,,,,,,,10,,,,68,127
90120,set_tempo,120,1,0,,,,,,1363636,,,,,,,,
90122,note_on,0,0,12,,,,,,,,,11,,,,64,127
90122,note_on,10,0,12,,,,,,,,,11,,,,62,127
90125,note_on,10,0,13,,,,,,,,,12,,,,59,127
90127,note_on,10,0,14,,,,,,,,,13,,,,52,127
90129,note_on,10,0,15,,,,,,,,,14,,,,40,127
90230,note_on,110,0,11,,,,,,,,,10,,,,68,0
90232,note_on,0,0,12,,,,,,,,,11,,,,62,0
90232,note_on,110,0,12,,,,,,,,,11,,,,64,0
90235,note_on,110,0,13,,,,,,,,,12,,,,59,0
90237,note_on,110,0,14,,,,,,,,,13,,,,52,0
90239,note_on,110,0,15,,,,,,,,,14,,,,40,0
90240,note_on,0,0,11,,,,,,,,,10,,,,69,112
90240,control_change,10,0,11,,,,,,,,,10,11,41,,,
90240,set_tempo,120,1,0,,,,,,1379310,,,,,,,,
90241,control_change,0,0,5,,,,,,,,,4,11,37,,,
90241,note_on,250,0,5,,,,,,,,,4,,,,64,115
90242,note_on,0,0,12,,,,,,,,,11,,,,60,112
90242,note_on,0,0,12,,,,,,,,,11,,,,64,112
90242,control_change,10,0,12,,,,,,,,,11,11,41,,,
90243,control_change,0,0,6,,,,,,,,,5,11,37,,,
90243,note_on,250,0,6,,,,,,,,,5,,,,64,115
90244,control_change,498,0,8,,,,,,,,,7,11,37,,,
90244,note_on,0,0,8,,,,,,,,,7,,,,57,125
90244,note_on,0,0,8,,,,,,,,,7,,,,60,125
90245,note_on,0,0,13,,,,,,,,,12,,,,57,112
90245,control_change,10,0,13,,,,,,,,,12,11,41,,,
90247,control_change,10,0,14,,,,,,,,,13,11,41,,,
90247,note_on,0,0,14,,,,,,,,,13,,,,45,112
90249,control_change,10,0,15,,,,,,,,,14,11,41,,,
90249,note_on,0,0,15,,,,,,,,,14,,,,33,112
90276,control_change,36,0,11,,,,,,,,,10,11,40,,,
90278,control_change,36,0,12,,,,,,,,,11,11,40,,,
90281,control_change,36,0,13,,,,,,,,,12,11,40,,,
90283,control_change,36,0,14,,,,,,,,,13,11,40,,,
90285,control_change,36,0,15,,,,,,,,,14,11,40,,,
90312,control_change,36,0,11,,,,,,,,,10,11,39,,,
90314,control_change,36,0,12,,,,,,,,,11,11,39,,,
90317,control_change,36,0,13,,,,,,,,,12,11,39,,,
90319,control_change,36,0,14,,,,,,,,,13,11,39,,,
90321,control_change,36,0,15,,,,,,,,,14,11,39,,,
90343,note_on,102,0,5,,,,,,,,,4,,,,64,0
90345,note_on,102,0,6,,,,,,,,,5,,,,64,0
90346,note_on,0,0,8,,,,,,,,,7,,,,57,0
90346,note_on,102,0,8,,,,,,,,,7,,,,60,0
90348,control_change,36,0,11,,,,,,,,,10,11,38,,,
90350,control_change,36,0,12,,,,,,,,,11,11,38,,,
90353,control_change,36,0,13,,,,,,,,,12,11,38,,,
90355,control_change,36,0,14,,,,,,,,,13,11,38,,,
90357,control_change,36,0,15,,,,,,,,,14,11,38,,,
90360,set_tempo,120,1,0,,,,,,1395349,,,,,,,,
90361,note_on,18,0,5,,,,,,,,,4,,,,64,100
90363,note_on,18,0,6,,,,,,,,,5,,,,64,100
90364,note_on,0,0,8,,,,,,,,,7,,,,60,110
90364,note_on,18,0,8,,,,,,,,,7,,,,57,110
90384,control_change,36,0,11,,,,,,,,,10,11,37,,,
90386,control_change,36,0,12,,,,,,,,,11,11,37,,,
90389,control_change,36,0,13,,,,,,,,,12,11,37,,,
90391,control_change,36,0,14,,,,,,,,,13,11,37,,,
90393,control_change,36,0,15,,,,,,,,,14,11,37,,,
90420,control_change,36,0,11,,,,,,,,,10,11,36,,,
90422,control_change,36,0,12,,,,,,,,,11,11,36,,,
90425,control_change,36,0,13,,,,,,,,,12,11,36,,,
90427,control_change,36,0,14,,,,,,,,,13,11,36,,,
90429,control_change,36,0,15,,,,,,,,,14,11,36,,,
90456,control_change,36,0,11,,,,,,,,,10,11,35,,,
90458,control_change,36,0,12,,,,,,,,,11,11,35,,,
90461,control_change,36,0,13,,,,,,,,,12,11,35,,,
90463,note_on,102,0,5,,,,,,,,,4,,,,64,0
90463,control_change,36,0,14,,,,,,,,,13,11,35,,,
90465,note_on,102,0,6,,,,,,,,,5,,,,64,0
90465,control_change,36,0,15,,,,,,,,,14,11,35,,,
90466,note_on,0,0,8,,,,,,,,,7,,,,57,0
90466,note_on,102,0,8,,,,,,,,,7,,,,60,0
90480,set_tempo,120,1,0,,,,,,1411765,,,,,,,,
90481,note_on,18,0,5,,,,,,,,,4,,,,64,115
90483,note_on,18,0,6,,,,,,,,,5,,,,64,115
90484,note_on,18,0,8,,,,,,,,,7,,,,57,125
90484,note_on,0,0,8,,,,,,,,,7,,,,60,125
90492,control_change,36,0,11,,,,,,,,,10,11,34,,,
90494,control_change,36,0,12,,,,,,,,,11,11,34,,,
90497,control_change,36,0,13,,,,,,,,,12,11,34,,,
90499,control_change,36,0,14,,,,,,,,,13,11,34,,,
90501,control_change,36,0,15,,,,,,,,,14,11,34,,,
90528,control_change,36,0,11,,,,,,,,,10,11,33,,,
90530,control_change,36,0,12,,,,,,,,,11,11,33,,,
90533,control_change,36,0,13,,,,,,,,,12,11,33,,,
90535,control_change,36,0,14,,,,,,,,,13,11,33,,,
90537,control_change,36,0,15,,,,,,,,,14,11,33,,,
90564,control_change,36,0,11,,,,,,,,,10,11,32,,,
90566,control_change,36,0,12,,,,,,,,,11,11,32,,,
90569,control_change,36,0,13,,,,,,,,,12,11,32,,,
90571,control_change,36,0,14,,,,,,,,,13,11,32,,,
90573,control_change,36,0,15,,,,,,,,,14,11,32,,,
90583,note_on,102,0,5,,,,,,,,,4,,,,64,0
90585,note_on,102,0,6,,,,,,,,,5,,,,64,0
90586,note_on,0,0,8,,,,,,,,,7,,,,57,0
90586,note_on,102,0,8,,,,,,,,,7,,,,60,0
90600,control_change,36,0,11,,,,,,,,,10,11,31,,,
90600,set_tempo,120,1,0,,,,,,1428571,,,,,,,,
90601,note_on,18,0,5,,,,,,,,,4,,,,64,100
90602,control_change,36,0,12,,,,,,,,,11,11,31,,,
90603,note_on,18,0,6,,,,,,,,,5,,,,64,100
90604,note_on,18,0,8,,,,,,,,,7,,,,57,110
90604,note_on,0,0,8,,,,,,,,,7,,,,60,110
90605,control_change,36,0,13,,,,,,,,,12,11,31,,,
90607,control_change,36,0,14,,,,,,,,,13,11,31,,,
90609,control_change,36,0,15,,,,,,,,,14,11,31,,,
90703,note_on,102,0,5,,,,,,,,,4,,,,64,0
90705,note_on,102,0,6,,,,,,,,,5,,,,64,0
90706,note_on,0,0,8,,,,,,,,,7,,,,57,0
90706,note_on,102,0,8,,,,,,,,,7,,,,60,0
90720,set_tempo,120,1,0,,,,,,1445783,,,,,,,,
90721,control_change,978,0,1,,,,,,,,,0,11,32,,,
90721,note_on,0,0,5,,,,,,,,,4,,,,64,100
90721,control_change,18,0,5,,,,,,,,,4,11,47,,,
90721,note_on,0,0,1,,,,,,,,,0,,,,76,91
90721,note_on,0,0,1,,,,,,,,,0,,,,81,91
90722,note_on,0,0,3,,,,,,,,,2,,,,72,91
90722,note_on,0,0,3,,,,,,,,,2,,,,69,91
90722,control_change,978,0,3,,,,,,,,,2,11,32,,,
90723,note_on,18,0,6,,,,,,,,,5,,,,64,100
90723,control_change,0,0,6,,,,,,,,,5,11,47,,,
90724,note_on,0,0,8,,,,,,,,,7,,,,57,110
90724,note_on,0,0,8,,,,,,,,,7,,,,60,110
90724,control_change,18,0,8,,,,,,,,,7,11,47,,,
90725,control_change,4,0,1,,,,,,,,,0,11,35,,,
90726,control_change,4,0,3,,,,,,,,,2,11,35,,,
90730,control_change,5,0,1,,,,,,,,,0,11,38,,,
90731,control_change,5,0,3,,,,,,,,,2,11,38,,,
90734,control_change,4,0,1,,,,,,,,,0,11,41,,,
90735,control_change,4,0,3,,,,,,,,,2,11,41,,,
90757,control_change,23,0,1,,,,,,,,,0,11,41,,,
90758,control_change,23,0,3,,,,,,,,,2,11,41,,,
90780,control_change,180,0,11,,,,,,,,,10,11,31,,,
90782,control_change,180,0,12,,,,,,,,,11,11,31,,,
90785,control_change,180,0,13,,,,,,,,,12,11,31,,,
90787,control_change,180,0,14,,,,,,,,,13,11,31,,,
90789,control_change,180,0,15,,,,,,,,,14,11,31,,,
90793,control_change,36,0,1,,,,,,,,,0,11,40,,,
90794,control_change,36,0,3,,,,,,,,,2,11,40,,,
90797,control_change,17,0,11,,,,,,,,,10,11,28,,,
90799,control_change,17,0,12,,,,,,,,,11,11,28,,,
90802,control_change,17,0,13,,,,,,,,,12,11,28,,,
90804,control_change,17,0,14,,,,,,,,,13,11,28,,,
90806,control_change,17,0,15,,,,,,,,,14,11,28,,,
90815,control_change,18,0,11,,,,,,,,,10,11,21,,,
90817,control_change,18,0,12,,,,,,,,,11,11,21,,,
90820,control_change,18,0,13,,,,,,,,,12,11,21,,,
90822,control_change,18,0,14,,,,,,,,,13,11,21,,,
90824,control_change,18,0,15,,,,,,,,,14,11,21,,,
90829,control_change,36,0,1,,,,,,,,,0,11,39,,,
90830,control_change,36,0,3,,,,,,,,,2,11,39,,,
90831,note_on,2,0,1,,,,,,,,,0,,,,76,0
90831,note_on,0,0,1,,,,,,,,,0,,,,81,0
90832,note_on,0,0,3,,,,,,,,,2,,,,69,0
90832,note_on,2,0,3,,,,,,,,,2,,,,72,0
90833,control_change,18,0,11,,,,,,,,,10,11,18,,,
90835,control_change,18,0,12,,,,,,,,,11,11,18,,,
90838,control_change,18,0,13,,,,,,,,,12,11,18,,,
90840,control_change,18,0,14,,,,,,,,,13,11,18,,,
90840,set_tempo,120,1,0,,,,,,1463415,,,,,,,,
90840,note_on,7,0,11,,,,,,,,,10,,,,69,0
90841,note_on,0,0,1,,,,,,,,,0,,,,76,89
90841,note_on,10,0,1,,,,,,,,,0,,,,81,89
90842,control_change,18,0,15,,,,,,,,,14,11,18,,,
90842,note_on,7,0,12,,,,,,,,,11,,,,64,0
90842,note_on,0,0,3,,,,,,,,,2,,,,72,89
90842,note_on,0,0,12,,,,,,,,,11,,,,60,0
90842,note_on,10,0,3,,,,,,,,,2,,,,69,89
90845,note_on,7,0,13,,,,,,,,,12,,,,57,0
90847,note_on,7,0,14,,,,,,,,,13,,,,45,0
90849,note_on,7,0,15,,,,,,,,,14,,,,33,0
90865,control_change,24,0,1,,,,,,,,,0,11,38,,,
90866,control_change,24,0,3,,,,,,,,,2,11,38,,,
90901,control_change,36,0,1,,,,,,,,,0,11,37,,,
90902,control_change,36,0,3,,,,,,,,,2,11,37,,,
90937,control_change,36,0,1,,,,,,,,,0,11,36,,,
90938,control_change,36,0,3,,,,,,,,,2,11,36,,,
90951,note_on,14,0,1,,,,,,,,,0,,,,76,0
90951,note_on,0,0,1,,,,,,,,,0,,,,81,0
90952,note_on,14,0,3,,,,,,,,,2,,,,72,0
90952,note_on,0,0,3,,,,,,,,,2,,,,69,0
90960,set_tempo,120,1,0,,,,,,1500000,,,,,,,,
90961,note_on,10,0,1,,,,,,,,,0,,,,81,86
90961,note_on,0,0,1,,,,,,,,,0,,,,76,86
90961,control_change,240,0,5,,,,,,,,,4,11,47,,,
90962,note_on,10,0,3,,,,,,,,,2,,,,69,86
90962,note_on,0,0,3,,,,,,,,,2,,,,72,86
90963,control_change,240,0,6,,,,,,,,,5,11,47,,,
90964,control_change,240,0,8,,,,,,,,,7,11,47,,,
90973,control_change,12,0,1,,,,,,,,,0,11,35,,,
90974,control_change,12,0,3,,,,,,,,,2,11,35,,,
90984,control_change,23,0,5,,,,,,,,,4,11,46,,,
90986,control_change,23,0,6,,,,,,,,,5,11,46,,,
90987,control_change,23,0,8,,,,,,,,,7,11,46,,,
91008,control_change,24,0,5,,,,,,,,,4,11,45,,,
91009,control_change,36,0,1,,,,,,,,,0,11,34,,,
91010,control_change,24,0,6,,,,,,,,,5,11,45,,,
91010,control_change,36,0,3,,,,,,,,,2,11,34,,,
91011,control_change,24,0,8,,,,,,,,,7,11,45,,,
91032,control_change,24,0,5,,,,,,,,,4,11,44,,,
91034,control_change,24,0,6,,,,,,,,,5,11,44,,,
91035,control_change,24,0,8,,,,,,,,,7,11,44,,,
91045,control_change,36,0,1,,,,,,,,,0,11,33,,,
91046,control_change,36,0,3,,,,,,,,,2,11,33,,,
91056,control_change,24,0,5,,,,,,,,,4,11,43,,,
91058,control_change,24,0,6,,,,,,,,,5,11,43,,,
91059,control_change,24,0,8,,,,,,,,,7,11,43,,,
91071,note_on,26,0,1,,,,,,,,,0,,,,76,0
91071,note_on,0,0,1,,,,,,,,,0,,,,81,0
91072,note_on,0,0,3,,,,,,,,,2,,,,69,0
91072,note_on,26,0,3,,,,,,,,,2,,,,72,0
91080,set_tempo,120,1,0,,,,,,1518987,,,,,,,,
91080,control_change,24,0,5,,,,,,,,,4,11,42,,,
91081,note_on,0,0,1,,,,,,,,,0,,,,81,83
91081,note_on,0,0,1,,,,,,,,,0,,,,76,83
91081,control_change,10,0,1,,,,,,,,,0,11,32,,,
91082,note_on,0,0,3,,,,,,,,,2,,,,69,83
91082,control_change,10,0,3,,,,,,,,,2,11,32,,,
91082,control_change,24,0,6,,,,,,,,,5,11,42,,,
91082,note_on,0,0,3,,,,,,,,,2,,,,72,83
91083,control_change,24,0,8,,,,,,,,,7,11,42,,,
91104,control_change,24,0,5,,,,,,,,,4,11,41,,,
91106,control_change,24,0,6,,,,,,,,,5,11,41,,,
91107,control_change,24,0,8,,,,,,,,,7,11,41,,,
91128,control_change,24,0,5,,,,,,,,,4,11,40,,,
91130,control_change,24,0,6,,,,,,,,,5,11,40,,,
91131,control_change,24,0,8,,,,,,,,,7,11,40,,,
91152,control_change,24,0,5,,,,,,,,,4,11,39,,,
91154,control_change,24,0,6,,,,,,,,,5,11,39,,,
91155,control_change,24,0,8,,,,,,,,,7,11,39,,,
91176,control_change,24,0,5,,,,,,,,,4,11,38,,,
91178,control_change,24,0,6,,,,,,,,,5,11,38,,,
91179,control_change,24,0,8,,,,,,,,,7,11,38,,,
91191,note_on,110,0,1,,,,,,,,,0,,,,76,0
91191,note_on,0,0,1,,,,,,,,,0,,,,81,0
91192,note_on,110,0,3,,,,,,,,,2,,,,72,0
91192,note_on,0,0,3,,,,,,,,,2,,,,69,0
91196,note_on,20,0,5,,,,,,,,,4,,,,64,0
91198,note_on,20,0,6,,,,,,,,,5,,,,64,0
91199,note_on,20,0,8,,,,,,,,,7,,,,60,0
91199,note_on,0,0,8,,,,,,,,,7,,,,57,0
91200,control_change,360,0,11,,,,,,,,,10,11,31,,,
91200,note_on,0,0,11,,,,,,,,,10,,,,69,112
91200,control_change,4,0,5,,,,,,,,,4,11,37,,,
91200,note_on,0,0,11,,,,,,,,,10,,,,60,112
91200,set_tempo,120,1,0,,,,,,3750000,,,,,,,,
91201,note_on,0,0,1,,,,,,,,,0,,,,81,101
91201,control_change,10,0,1,,,,,,,,,0,11,27,,,
91201,note_on,0,0,1,,,,,,,,,0,,,,76,101
91201,note_on,1,0,5,,,,,,,,,4,,,,64,100
91202,note_on,0,0,12,,,,,,,,,11,,,,64,112
91202,control_change,1938,0,7,,,,,,,,,6,11,27,,,
91202,note_on,0,0,12,,,,,,,,,11,,,,60,112
91202,note_on,0,0,3,,,,,,,,,2,,,,69,101
91202,control_change,10,0,3,,,,,,,,,2,11,27,,,
91202,note_on,0,0,3,,,,,,,,,2,,,,72,101
91202,note_on,0,0,7,,,,,,,,,6,,,,57,112
91202,note_on,0,0,2,,,,,,,,,1,,,,72,100
91202,control_change,0,0,2,,,,,,,,,1,11,27,,,
91202,note_on,1210,0,2,,,,,,,,,1,,,,76,100
91202,control_change,4,0,6,,,,,,,,,5,11,37,,,
91202,control_change,360,0,12,,,,,,,,,11,11,31,,,
91202,note_on,0,0,7,,,,,,,,,6,,,,64,112
91203,note_on,1,0,6,,,,,,,,,5,,,,64,100
91203,control_change,4,0,8,,,,,,,,,7,11,37,,,
91204,note_on,1,0,8,,,,,,,,,7,,,,57,110
91204,note_on,0,0,8,,,,,,,,,7,,,,60,110
91204,control_change,3,0,5,,,,,,,,,4,11,28,,,
91205,control_change,360,0,13,,,,,,,,,12,11,31,,,
91205,note_on,0,0,13,,,,,,,,,12,,,,57,112
91206,control_change,1210,0,9,,,,,,,,,8,11,27,,,
91206,note_on,0,0,9,,,,,,,,,8,,,,45,110
91206,control_change,3,0,6,,,,,,,,,5,11,28,,,
91207,note_on,0,0,14,,,,,,,,,13,,,,45,112
91207,control_change,3,0,8,,,,,,,,,7,11,28,,,
91207,control_change,1210,0,4,,,,,,,,,3,11,27,,,
91207,note_on,0,0,4,,,,,,,,,3,,,,52,100
91207,note_on,0,0,4,,,,,,,,,3,,,,48,100
91207,control_change,360,0,14,,,,,,,,,13,11,31,,,
91208,note_on,1984,0,10,,,,,,,,,15,,,,45,27
91209,note_on,0,0,15,,,,,,,,,14,,,,33,112
91209,control_change,8,0,1,,,,,,,,,0,11,30,,,
91209,control_change,360,0,15,,,,,,,,,14,11,31,,,
91210,control_change,8,0,2,,,,,,,,,1,11,30,,,
91210,control_change,8,0,3,,,,,,,,,2,11,30,,,
91211,control_change,9,0,7,,,,,,,,,6,11,30,,,
91211,note_on,3,0,10,,,,,,,,,15,,,,45,0
91211,control_change,11,0,11,,,,,,,,,10,11,34,,,
91211,note_on,0,0,10,,,,,,,,,15,,,,45,27
91213,control_change,9,0,5,,,,,,,,,4,11,31,,,
91213,control_change,11,0,12,,,,,,,,,11,11,34,,,
91214,note_on,3,0,10,,,,,,,,,15,,,,45,0
91215,control_change,9,0,6,,,,,,,,,5,11,31,,,
91215,note_on,1,0,10,,,,,,,,,15,,,,45,27
91215,control_change,8,0,4,,,,,,,,,3,11,30,,,
91215,control_change,9,0,9,,,,,,,,,8,11,30,,,
91216,control_change,11,0,13,,,,,,,,,12,11,34,,,
91216,control_change,9,0,8,,,,,,,,,7,11,31,,,
91218,control_change,9,0,1,,,,,,,,,0,11,33,,,
91218,note_on,0,0,10,,,,,,,,,15,,,,45,28
91218,control_change,11,0,14,,,,,,,,,13,11,34,,,
91218,note_on,3,0,10,,,,,,,,,15,,,,45,0
91219,control_change,9,0,2,,,,,,,,,1,11,33,,,
91219,control_change,9,0,3,,,,,,,,,2,11,33,,,
91220,control_change,11,0,15,,,,,,,,,14,11,34,,,
91220,control_change,9,0,7,,,,,,,,,6,11,33,,,
91221,note_on,3,0,10,,,,,,,,,15,,,,45,0
91221,note_on,0,0,10,,,,,,,,,15,,,,45,28
91222,control_change,9,0,5,,,,,,,,,4,11,34,,,
91223,control_change,12,0,11,,,,,,,,,10,11,37,,,
91224,note_on,0,0,10,,,,,,,,,15,,,,45,28
91224,note_on,3,0,10,,,,,,,,,15,,,,45,0
91224,control_change,9,0,4,,,,,,,,,3,11,33,,,
91224,control_change,9,0,6,,,,,,,,,5,11,34,,,
91224,control_change,9,0,9,,,,,,,,,8,11,33,,,
91225,control_change,9,0,8,,,,,,,,,7,11,34,,,
91225,control_change,12,0,12,,,,,,,,,11,11,37,,,
91227,note_on,3,0,10,,,,,,,,,15,,,,45,0
91227,control_change,9,0,1,,,,,,,,,0,11,36,,,
91227,note_on,0,0,10,,,,,,,,,15,,,,45,28
91228,control_change,12,0,13,,,,,,,,,12,11,37,,,
91228,control_change,9,0,3,,,,,,,,,2,11,36,,,
91228,control_change,9,0,2,,,,,,,,,1,11,36,,,
91229,control_change,9,0,7,,,,,,,,,6,11,36,,,
91230,note_on,3,0,10,,,,,,,,,15,,,,45,0
91230,control_change,12,0,14,,,,,,,,,13,11,37,,,
91231,control_change,9,0,5,,,,,,,,,4,11,37,,,
91231,note_on,1,0,10,,,,,,,,,15,,,,45,29
91232,control_change,12,0,15,,,,,,,,,14,11,37,,,
91233,control_change,9,0,6,,,,,,,,,5,11,37,,,
91233,control_change,9,0,4,,,,,,,,,3,11,36,,,
91233,control_change,9,0,9,,,,,,,,,8,11,36,,,
91234,control_change,9,0,8,,,,,,,,,7,11,37,,,
91234,note_on,0,0,10,,,,,,,,,15,,,,45,29
91234,note_on,3,0,10,,,,,,,,,15,,,,45,0
91235,control_change,12,0,11,,,,,,,,,10,11,40,,,
91236,control_change,9,0,1,,,,,,,,,0,11,39,,,
91237,control_change,9,0,2,,,,,,,,,1,11,39,,,
91237,note_on,3,0,10,,,,,,,,,15,,,,45,0
91237,note_on,0,0,10,,,,,,,,,15,,,,45,30
91237,control_change,12,0,12,,,,,,,,,11,11,40,,,
91237,control_change,9,0,3,,,,,,,,,2,11,39,,,
91238,control_change,9,0,7,,,,,,,,,6,11,39,,,
91240,control_change,9,0,5,,,,,,,,,4,11,40,,,
91240,control_change,12,0,13,,,,,,,,,12,11,40,,,
91240,note_on,0,0,10,,,,,,,,,15,,,,45,30
91240,note_on,3,0,10,,,,,,,,,15,,,,45,0
91242,control_change,9,0,4,,,,,,,,,3,11,39,,,
91242,control_change,9,0,6,,,,,,,,,5,11,40,,,
91242,control_change,12,0,14,,,,,,,,,13,11,40,,,
91242,control_change,9,0,9,,,,,,,,,8,11,39,,,
91243,control_change,9,0,8,,,,,,,,,7,11,40,,,
91243,note_on,0,0,10,,,,,,,,,15,,,,45,31
91243,note_on,3,0,10,,,,,,,,,15,,,,45,0
91244,control_change,12,0,15,,,,,,,,,14,11,40,,,
91245,control_change,9,0,1,,,,,,,,,0,11,42,,,
91246,control_change,9,0,2,,,,,,,,,1,11,42,,,
91246,control_change,9,0,3,,,,,,,,,2,11,42,,,
91246,note_on,3,0,10,,,,,,,,,15,,,,45,0
91247,control_change,9,0,7,,,,,,,,,6,11,42,,,
91247,note_on,1,0,10,,,,,,,,,15,,,,45,31
91249,control_change,9,0,5,,,,,,,,,4,11,43,,,
91250,note_on,3,0,10,,,,,,,,,15,,,,45,0
91250,note_on,0,0,10,,,,,,,,,15,,,,45,32
91251,control_change,9,0,9,,,,,,,,,8,11,42,,,
91251,control_change,9,0,4,,,,,,,,,3,11,42,,,
91251,control_change,9,0,6,,,,,,,,,5,11,43,,,
91252,control_change,9,0,8,,,,,,,,,7,11,43,,,
91253,note_on,3,0,10,,,,,,,,,15,,,,45,0
91253,note_on,0,0,10,,,,,,,,,15,,,,45,32
91254,control_change,9,0,1,,,,,,,,,0,11,45,,,
91255,control_change,9,0,3,,,,,,,,,2,11,45,,,
91255,control_change,9,0,2,,,,,,,,,1,11,45,,,
91256,control_change,9,0,7,,,,,,,,,6,11,45,,,
91256,note_on,3,0,10,,,,,,,,,15,,,,45,0
91256,note_on,0,0,10,,,,,,,,,15,,,,45,33
91258,control_change,9,0,5,,,,,,,,,4,11,46,,,
91259,note_on,0,0,10,,,,,,,,,15,,,,45,33
91259,note_on,3,0,10,,,,,,,,,15,,,,45,0
91259,control_change,24,0,11,,,,,,,,,10,11,45,,,
91260,control_change,9,0,6,,,,,,,,,5,11,46,,,
91260,control_change,9,0,4,,,,,,,,,3,11,45,,,
91260,control_change,9,0,9,,,,,,,,,8,11,45,,,
91261,control_change,24,0,12,,,,,,,,,11,11,45,,,
91261,control_change,9,0,8,,,,,,,,,7,11,46,,,
91262,note_on,3,0,10,,,,,,,,,15,,,,45,0
91263,note_on,1,0,10,,,,,,,,,15,,,,45,33
91263,control_change,9,0,1,,,,,,,,,0,11,48,,,
91264,control_change,24,0,13,,,,,,,,,12,11,45,,,
91264,control_change,9,0,3,,,,,,,,,2,11,48,,,
91264,control_change,9,0,2,,,,,,,,,1,11,48,,,
91265,control_change,9,0,7,,,,,,,,,6,11,48,,,
91266,note_on,3,0,10,,,,,,,,,15,,,,45,0
91266,control_change,24,0,14,,,,,,,,,13,11,45,,,
91266,note_on,0,0,10,,,,,,,,,15,,,,45,34
91267,control_change,9,0,5,,,,,,,,,4,11,49,,,
91268,control_change,24,0,15,,,,,,,,,14,11,45,,,
91269,note_on,3,0,10,,,,,,,,,15,,,,45,0
91269,control_change,9,0,6,,,,,,,,,5,11,49,,,
91269,control_change,9,0,4,,,,,,,,,3,11,48,,,
91269,control_change,9,0,9,,,,,,,,,8,11,48,,,
91269,note_on,0,0,10,,,,,,,,,15,,,,45,34
91270,control_change,9,0,8,,,,,,,,,7,11,49,,,
91271,control_change,12,0,11,,,,,,,,,10,11,48,,,
91272,control_change,9,0,1,,,,,,,,,0,11,51,,,
91272,note_on,0,0,10,,,,,,,,,15,,,,45,34
91272,note_on,3,0,10,,,,,,,,,15,,,,45,0
91273,control_change,12,0,12,,,,,,,,,11,11,48,,,
91273,control_change,9,0,2,,,,,,,,,1,11,51,,,
91273,control_change,9,0,3,,,,,,,,,2,11,51,,,
91274,control_change,9,0,7,,,,,,,,,6,11,51,,,
91275,note_on,3,0,10,,,,,,,,,15,,,,45,0
91275,note_on,0,0,10,,,,,,,,,15,,,,45,34
91276,control_change,12,0,13,,,,,,,,,12,11,48,,,
91276,control_change,9,0,5,,,,,,,,,4,11,52,,,
91278,control_change,9,0,9,,,,,,,,,8,11,51,,,
91278,control_change,9,0,4,,,,,,,,,3,11,51,,,
91278,control_change,12,0,14,,,,,,,,,13,11,48,,,
91278,control_change,9,0,6,,,,,,,,,5,11,52,,,
91278,note_on,3,0,10,,,,,,,,,15,,,,45,0
91279,note_on,1,0,10,,,,,,,,,15,,,,45,35
91279,control_change,9,0,8,,,,,,,,,7,11,52,,,
91280,control_change,12,0,15,,,,,,,,,14,11,48,,,
91281,control_change,9,0,1,,,,,,,,,0,11,54,,,
91282,note_on,3,0,10,,,,,,,,,15,,,,45,0
91282,note_on,0,0,10,,,,,,,,,15,,,,45,35
91282,control_change,9,0,3,,,,,,,,,2,11,54,,,
91282,control_change,9,0,2,,,,,,,,,1,11,54,,,
91283,control_change,9,0,7,,,,,,,,,6,11,54,,,
91283,control_change,12,0,11,,,,,,,,,10,11,51,,,
91285,control_change,9,0,5,,,,,,,,,4,11,55,,,
91285,note_on,3,0,10,,,,,,,,,15,,,,45,0
91285,note_on,0,0,10,,,,,,,,,15,,,,45,36
91285,control_change,12,0,12,,,,,,,,,11,11,51,,,
91287,control_change,9,0,6,,,,,,,,,5,11,55,,,
91287,control_change,9,0,9,,,,,,,,,8,11,54,,,
91287,control_change,9,0,4,,,,,,,,,3,11,54,,,
91288,note_on,0,0,10,,,,,,,,,15,,,,45,36
91288,note_on,3,0,10,,,,,,,,,15,,,,45,0
91288,control_change,9,0,8,,,,,,,,,7,11,55,,,
91288,control_change,12,0,13,,,,,,,,,12,11,51,,,
91290,control_change,12,0,14,,,,,,,,,13,11,51,,,
91290,control_change,9,0,1,,,,,,,,,0,11,57,,,
91291,note_on,3,0,10,,,,,,,,,15,,,,45,0
91291,note_on,0,0,10,,,,,,,,,15,,,,45,37
91291,control_change,9,0,2,,,,,,,,,1,11,57,,,
91291,control_change,9,0,3,,,,,,,,,2,11,57,,,
91292,control_change,9,0,7,,,,,,,,,6,11,57,,,
91292,control_change,12,0,15,,,,,,,,,14,11,51,,,
91294,control_change,9,0,5,,,,,,,,,4,11,58,,,
91294,note_on,3,0,10,,,,,,,,,15,,,,45,0
91295,control_change,12,0,11,,,,,,,,,10,11,54,,,
91295,note_on,1,0,10,,,,,,,,,15,,,,45,37
91296,control_change,9,0,4,,,,,,,,,3,11,57,,,
91296,control_change,9,0,9,,,,,,,,,8,11,57,,,
91296,control_change,9,0,6,,,,,,,,,5,11,58,,,
91297,control_change,12,0,12,,,,,,,,,11,11,54,,,
91297,control_change,9,0,8,,,,,,,,,7,11,58,,,
91298,note_on,0,0,10,,,,,,,,,15,,,,45,38
91298,note_on,3,0,10,,,,,,,,,15,,,,45,0
91300,control_change,12,0,13,,,,,,,,,12,11,54,,,
91301,control_change,9,0,7,,,,,,,,,6,11,60,,,
91301,note_on,0,0,10,,,,,,,,,15,,,,45,38
91301,note_on,3,0,10,,,,,,,,,15,,,,45,0
91302,control_change,12,0,14,,,,,,,,,13,11,54,,,
91303,control_change,9,0,5,,,,,,,,,4,11,61,,,
91304,note_on,0,0,10,,,,,,,,,15,,,,45,39
91304,note_on,3,0,10,,,,,,,,,15,,,,45,0
91304,control_change,12,0,15,,,,,,,,,14,11,54,,,
91305,control_change,9,0,4,,,,,,,,,3,11,60,,,
91305,control_change,9,0,6,,,,,,,,,5,11,61,,,
91305,control_change,9,0,9,,,,,,,,,8,11,60,,,
91306,control_change,9,0,8,,,,,,,,,7,11,61,,,
91307,control_change,12,0,11,,,,,,,,,10,11,57,,,
91307,note_on,0,0,10,,,,,,,,,15,,,,45,39
91307,note_on,3,0,10,,,,,,,,,15,,,,45,0
91308,control_change,18,0,1,,,,,,,,,0,11,61,,,
91309,control_change,18,0,3,,,,,,,,,2,11,61,,,
91309,control_change,18,0,2,,,,,,,,,1,11,61,,,
91309,control_change,12,0,12,,,,,,,,,11,11,57,,,
91310,control_change,9,0,7,,,,,,,,,6,11,63,,,
91310,note_on,3,0,10,,,,,,,,,15,,,,45,0
91311,note_on,1,0,10,,,,,,,,,15,,,,45,39
91312,control_change,12,0,13,,,,,,,,,12,11,57,,,
91312,control_change,9,0,5,,,,,,,,,4,11,64,,,
91314,control_change,9,0,4,,,,,,,,,3,11,63,,,
91314,note_on,0,0,10,,,,,,,,,15,,,,45,39
91314,note_on,3,0,10,,,,,,,,,15,,,,45,0
91314,control_change,9,0,6,,,,,,,,,5,11,64,,,
91314,control_change,12,0,14,,,,,,,,,13,11,57,,,
91314,control_change,9,0,9,,,,,,,,,8,11,63,,,
91315,control_change,9,0,8,,,,,,,,,7,11,64,,,
91316,control_change,12,0,15,,,,,,,,,14,11,57,,,
91317,note_on,0,0,10,,,,,,,,,15,,,,45,39
91317,note_on,3,0,10,,,,,,,,,15,,,,45,0
91319,control_change,9,0,7,,,,,,,,,6,11,66,,,
91320,note_on,0,0,10,,,,,,,,,15,,,,45,39
91320,note_on,3,0,10,,,,,,,,,15,,,,45,0
91321,control_change,9,0,5,,,,,,,,,4,11,67,,,
91323,control_change,9,0,4,,,,,,,,,3,11,66,,,
91323,control_change,9,0,6,,,,,,,,,5,11,67,,,
91323,note_on,0,0,10,,,,,,,,,15,,,,45,38
91323,note_on,3,0,10,,,,,,,,,15,,,,45,0
91323,control_change,9,0,9,,,,,,,,,8,11,66,,,
91324,control_change,9,0,8,,,,,,,,,7,11,67,,,
91326,note_on,3,0,10,,,,,,,,,15,,,,45,0
91327,note_on,1,0,10,,,,,,,,,15,,,,45,38
91329,control_change,8,0,5,,,,,,,,,4,11,64,,,
91330,note_on,0,0,10,,,,,,,,,15,,,,45,37
91330,note_on,3,0,10,,,,,,,,,15,,,,45,0
91331,control_change,8,0,6,,,,,,,,,5,11,64,,,
91331,control_change,24,0,11,,,,,,,,,10,11,57,,,
91332,control_change,8,0,8,,,,,,,,,7,11,64,,,
91332,control_change,24,0,1,,,,,,,,,0,11,61,,,
91333,note_on,0,0,10,,,,,,,,,15,,,,45,37
91333,note_on,3,0,10,,,,,,,,,15,,,,45,0
91333,control_change,24,0,12,,,,,,,,,11,11,57,,,
91333,control_change,14,0,7,,,,,,,,,6,11,63,,,
91333,control_change,24,0,2,,,,,,,,,1,11,61,,,
91333,control_change,24,0,3,,,,,,,,,2,11,61,,,
91336,control_change,24,0,13,,,,,,,,,12,11,57,,,
91336,note_on,3,0,10,,,,,,,,,15,,,,45,0
91336,note_on,0,0,10,,,,,,,,,15,,,,45,36
91337,control_change,14,0,9,,,,,,,,,8,11,63,,,
91338,control_change,15,0,4,,,,,,,,,3,11,63,,,
91338,control_change,24,0,14,,,,,,,,,13,11,57,,,
91338,control_change,9,0,5,,,,,,,,,4,11,61,,,
91339,note_on,3,0,10,,,,,,,,,15,,,,45,0
91339,note_on,0,0,10,,,,,,,,,15,,,,45,36
91340,control_change,24,0,15,,,,,,,,,14,11,57,,,
91340,control_change,9,0,6,,,,,,,,,5,11,61,,,
91341,control_change,9,0,8,,,,,,,,,7,11,61,,,
91342,note_on,3,0,10,,,,,,,,,15,,,,45,0
91342,control_change,9,0,7,,,,,,,,,6,11,60,,,
91343,note_on,1,0,10,,,,,,,,,15,,,,45,35
91343,control_change,12,0,11,,,,,,,,,10,11,54,,,
91345,control_change,12,0,12,,,,,,,,,11,11,54,,,
91346,note_on,3,0,10,,,,,,,,,15,,,,45,0
91346,note_on,0,0,10,,,,,,,,,15,,,,45,35
91346,control_change,9,0,9,,,,,,,,,8,11,60,,,
91347,control_change,9,0,4,,,,,,,,,3,11,60,,,
91347,control_change,9,0,5,,,,,,,,,4,11,58,,,
91348,control_change,12,0,13,,,,,,,,,12,11,54,,,
91349,note_on,3,0,10,,,,,,,,,15,,,,45,0
91349,note_on,0,0,10,,,,,,,,,15,,,,45,34
91349,control_change,9,0,6,,,,,,,,,5,11,58,,,
91350,control_change,18,0,1,,,,,,,,,0,11,57,,,
91350,control_change,9,0,8,,,,,,,,,7,11,58,,,
91350,control_change,12,0,14,,,,,,,,,13,11,54,,,
91351,control_change,18,0,2,,,,,,,,,1,11,57,,,
91351,control_change,18,0,3,,,,,,,,,2,11,57,,,
91351,control_change,9,0,7,,,,,,,,,6,11,57,,,
91352,control_change,12,0,15,,,,,,,,,14,11,54,,,
91352,note_on,3,0,10,,,,,,,,,15,,,,45,0
91352,note_on,0,0,10,,,,,,,,,15,,,,45,34
91355,note_on,0,0,10,,,,,,,,,15,,,,45,34
91355,control_change,9,0,9,,,,,,,,,8,11,57,,,
91355,control_change,12,0,11,,,,,,,,,10,11,51,,,
91355,note_on,3,0,10,,,,,,,,,15,,,,45,0
91356,control_change,9,0,5,,,,,,,,,4,11,55,,,
91356,control_change,9,0,4,,,,,,,,,3,11,57,,,
91357,control_change,12,0,12,,,,,,,,,11,11,51,,,
91358,note_on,3,0,10,,,,,,,,,15,,,,45,0
91358,control_change,9,0,6,,,,,,,,,5,11,55,,,
91359,control_change,9,0,1,,,,,,,,,0,11,54,,,
91359,note_on,1,0,10,,,,,,,,,15,,,,45,34
91359,control_change,9,0,8,,,,,,,,,7,11,55,,,
91360,control_change,12,0,13,,,,,,,,,12,11,51,,,
91360,control_change,9,0,7,,,,,,,,,6,11,54,,,
91360,control_change,9,0,3,,,,,,,,,2,11,54,,,
91360,control_change,9,0,2,,,,,,,,,1,11,54,,,
91362,control_change,12,0,14,,,,,,,,,13,11,51,,,
91362,note_on,0,0,10,,,,,,,,,15,,,,45,33
91362,note_on,3,0,10,,,,,,,,,15,,,,45,0
91364,control_change,12,0,15,,,,,,,,,14,11,51,,,
91364,control_change,9,0,9,,,,,,,,,8,11,54,,,
91365,control_change,9,0,4,,,,,,,,,3,11,54,,,
91365,control_change,9,0,5,,,,,,,,,4,11,52,,,
91365,note_on,3,0,10,,,,,,,,,15,,,,45,0
91365,note_on,0,0,10,,,,,,,,,15,,,,45,33
91367,control_change,9,0,6,,,,,,,,,5,11,52,,,
91367,control_change,12,0,11,,,,,,,,,10,11,48,,,
91368,control_change,9,0,8,,,,,,,,,7,11,52,,,
91368,note_on,3,0,10,,,,,,,,,15,,,,45,0
91368,note_on,0,0,10,,,,,,,,,15,,,,45,32
91368,control_change,9,0,1,,,,,,,,,0,11,51,,,
91369,control_change,9,0,2,,,,,,,,,1,11,51,,,
91369,control_change,9,0,7,,,,,,,,,6,11,51,,,
91369,control_change,12,0,12,,,,,,,,,11,11,48,,,
91369,control_change,9,0,3,,,,,,,,,2,11,51,,,
91371,note_on,0,0,10,,,,,,,,,15,,,,45,32
91371,note_on,3,0,10,,,,,,,,,15,,,,45,0
91372,control_change,12,0,13,,,,,,,,,12,11,48,,,
91373,control_change,9,0,9,,,,,,,,,8,11,51,,,
91374,control_change,9,0,5,,,,,,,,,4,11,49,,,
91374,control_change,12,0,14,,,,,,,,,13,11,48,,,
91374,control_change,9,0,4,,,,,,,,,3,11,51,,,
91374,note_on,3,0,10,,,,,,,,,15,,,,45,0
91375,note_on,1,0,10,,,,,,,,,15,,,,45,31
91376,control_change,9,0,6,,,,,,,,,5,11,49,,,
91376,control_change,12,0,15,,,,,,,,,14,11,48,,,
91377,control_change,9,0,8,,,,,,,,,7,11,49,,,
91377,control_change,9,0,1,,,,,,,,,0,11,48,,,
91378,note_on,0,0,10,,,,,,,,,15,,,,45,31
91378,control_change,9,0,2,,,,,,,,,1,11,48,,,
91378,note_on,3,0,10,,,,,,,,,15,,,,45,0
91378,control_change,9,0,3,,,,,,,,,2,11,48,,,
91378,control_change,9,0,7,,,,,,,,,6,11,48,,,
91379,control_change,12,0,11,,,,,,,,,10,11,45,,,
91381,control_change,12,0,12,,,,,,,,,11,11,45,,,
91381,note_on,0,0,10,,,,,,,,,15,,,,45,30
91381,note_on,3,0,10,,,,,,,,,15,,,,45,0
91382,control_change,9,0,9,,,,,,,,,8,11,48,,,
91383,control_change,9,0,4,,,,,,,,,3,11,48,,,
91383,control_change,9,0,5,,,,,,,,,4,11,46,,,
91384,note_on,3,0,10,,,,,,,,,15,,,,45,0
91384,note_on,0,0,10,,,,,,,,,15,,,,45,30
91384,control_change,12,0,13,,,,,,,,,12,11,45,,,
91385,control_change,9,0,6,,,,,,,,,5,11,46,,,
91386,control_change,9,0,8,,,,,,,,,7,11,46,,,
91386,control_change,9,0,1,,,,,,,,,0,11,45,,,
91386,control_change,12,0,14,,,,,,,,,13,11,45,,,
91387,note_on,0,0,10,,,,,,,,,15,,,,45,29
91387,control_change,9,0,2,,,,,,,,,1,11,45,,,
91387,control_change,9,0,3,,,,,,,,,2,11,45,,,
91387,control_change,9,0,7,,,,,,,,,6,11,45,,,
91387,note_on,3,0,10,,,,,,,,,15,,,,45,0
91388,control_change,12,0,15,,,,,,,,,14,11,45,,,
91390,note_on,3,0,10,,,,,,,,,15,,,,45,0
91391,control_change,12,0,11,,,,,,,,,10,11,42,,,
91391,control_change,9,0,9,,,,,,,,,8,11,45,,,
91391,note_on,1,0,10,,,,,,,,,15,,,,45,29
91392,control_change,9,0,5,,,,,,,,,4,11,43,,,
91392,control_change,9,0,4,,,,,,,,,3,11,45,,,
91393,control_change,12,0,12,,,,,,,,,11,11,42,,,
91394,note_on,0,0,10,,,,,,,,,15,,,,45,28
91394,control_change,9,0,6,,,,,,,,,5,11,43,,,
91394,note_on,3,0,10,,,,,,,,,15,,,,45,0
91395,control_change,9,0,1,,,,,,,,,0,11,42,,,
91395,control_change,9,0,8,,,,,,,,,7,11,43,,,
91396,control_change,9,0,2,,,,,,,,,1,11,42,,,
91396,control_change,12,0,13,,,,,,,,,12,11,42,,,
91396,control_change,9,0,3,,,,,,,,,2,11,42,,,
91396,control_change,9,0,7,,,,,,,,,6,11,42,,,
91397,note_on,3,0,10,,,,,,,,,15,,,,45,0
91397,note_on,0,0,10,,,,,,,,,15,,,,45,28
91398,control_change,12,0,14,,,,,,,,,13,11,42,,,
91400,control_change,12,0,15,,,,,,,,,14,11,42,,,
91400,control_change,9,0,9,,,,,,,,,8,11,42,,,
91400,note_on,3,0,10,,,,,,,,,15,,,,45,0
91400,note_on,0,0,10,,,,,,,,,15,,,,45,28
91401,control_change,9,0,5,,,,,,,,,4,11,40,,,
91401,control_change,9,0,4,,,,,,,,,3,11,42,,,
91403,note_on,3,0,10,,,,,,,,,15,,,,45,0
91403,control_change,9,0,6,,,,,,,,,5,11,40,,,
91403,note_on,0,0,10,,,,,,,,,15,,,,45,27
91404,control_change,9,0,8,,,,,,,,,7,11,40,,,
91404,control_change,9,0,1,,,,,,,,,0,11,39,,,
91405,control_change,9,0,3,,,,,,,,,2,11,39,,,
91405,control_change,9,0,7,,,,,,,,,6,11,39,,,
91405,control_change,9,0,2,,,,,,,,,1,11,39,,,
91406,note_on,3,0,10,,,,,,,,,15,,,,45,0
91407,note_on,1,0,10,,,,,,,,,15,,,,45,26
91409,control_change,9,0,9,,,,,,,,,8,11,39,,,
91410,note_on,0,0,10,,,,,,,,,15,,,,45,24
91410,note_on,3,0,10,,,,,,,,,15,,,,45,0
91410,control_change,9,0,5,,,,,,,,,4,11,37,,,
91410,control_change,9,0,4,,,,,,,,,3,11,39,,,
91411,control_change,7,0,1,,,,,,,,,0,11,34,,,
91411,control_change,20,0,11,,,,,,,,,10,11,37,,,
91411,control_change,1,0,5,,,,,,,,,4,11,34,,,
91412,control_change,7,0,2,,,,,,,,,1,11,34,,,
91412,control_change,7,0,3,,,,,,,,,2,11,34,,,
91412,control_change,7,0,7,,,,,,,,,6,11,34,,,
91412,control_change,9,0,6,,,,,,,,,5,11,37,,,
91413,note_on,3,0,10,,,,,,,,,15,,,,45,0
91413,control_change,20,0,12,,,,,,,,,11,11,37,,,
91413,control_change,9,0,8,,,,,,,,,7,11,37,,,
91413,note_on,0,0,10,,,,,,,,,15,,,,45,23
91413,control_change,1,0,6,,,,,,,,,5,11,34,,,
91414,control_change,1,0,8,,,,,,,,,7,11,34,,,
91416,note_on,3,0,10,,,,,,,,,15,,,,45,0
91416,control_change,5,0,1,,,,,,,,,0,11,31,,,
91416,control_change,7,0,9,,,,,,,,,8,11,34,,,
91416,note_on,0,0,10,,,,,,,,,15,,,,45,22
91416,control_change,5,0,5,,,,,,,,,4,11,31,,,
91416,control_change,5,0,11,,,,,,,,,10,11,34,,,
91416,control_change,20,0,13,,,,,,,,,12,11,37,,,
91417,control_change,7,0,4,,,,,,,,,3,11,34,,,
91417,control_change,5,0,7,,,,,,,,,6,11,31,,,
91417,control_change,5,0,3,,,,,,,,,2,11,31,,,
91417,control_change,5,0,2,,,,,,,,,1,11,31,,,
91418,control_change,5,0,6,,,,,,,,,5,11,31,,,
91418,control_change,5,0,12,,,,,,,,,11,11,34,,,
91418,control_change,20,0,14,,,,,,,,,13,11,37,,,
91419,note_on,0,0,10,,,,,,,,,15,,,,45,21
91419,control_change,5,0,8,,,,,,,,,7,11,31,,,
91419,note_on,3,0,10,,,,,,,,,15,,,,45,0
91420,control_change,20,0,15,,,,,,,,,14,11,37,,,
91421,control_change,5,0,5,,,,,,,,,4,11,28,,,
91421,control_change,5,0,11,,,,,,,,,10,11,31,,,
91421,control_change,5,0,13,,,,,,,,,12,11,34,,,
91421,control_change,5,0,1,,,,,,,,,0,11,28,,,
91421,control_change,5,0,9,,,,,,,,,8,11,31,,,
91422,control_change,5,0,3,,,,,,,,,2,11,28,,,
91422,control_change,5,0,4,,,,,,,,,3,11,31,,,
91422,note_on,3,0,10,,,,,,,,,15,,,,45,0
91422,control_change,5,0,2,,,,,,,,,1,11,28,,,
91422,control_change,5,0,7,,,,,,,,,6,11,28,,,
91423,control_change,5,0,12,,,,,,,,,11,11,31,,,
91423,control_change,5,0,14,,,,,,,,,13,11,34,,,
91423,control_change,5,0,6,,,,,,,,,5,11,28,,,
91423,note_on,1,0,10,,,,,,,,,15,,,,45,20
91424,control_change,5,0,8,,,,,,,,,7,11,28,,,
91425,control_change,5,0,15,,,,,,,,,14,11,34,,,
91426,control_change,5,0,5,,,,,,,,,4,11,25,,,
91426,control_change,5,0,1,,,,,,,,,0,11,25,,,
91426,note_on,0,0,10,,,,,,,,,15,,,,45,18
91426,control_change,5,0,13,,,,,,,,,12,11,31,,,
91426,control_change,5,0,9,,,,,,,,,8,11,28,,,
91426,note_on,3,0,10,,,,,,,,,15,,,,45,0
91427,control_change,5,0,7,,,,,,,,,6,11,25,,,
91427,control_change,6,0,11,,,,,,,,,10,11,28,,,
91427,control_change,5,0,4,,,,,,,,,3,11,28,,,
91427,control_change,5,0,2,,,,,,,,,1,11,25,,,
91427,control_change,5,0,3,,,,,,,,,2,11,25,,,
91428,control_change,5,0,14,,,,,,,,,13,11,31,,,
91428,control_change,5,0,6,,,,,,,,,5,11,25,,,
91429,control_change,5,0,8,,,,,,,,,7,11,25,,,
91429,note_on,3,0,10,,,,,,,,,15,,,,45,0
91429,control_change,6,0,12,,,,,,,,,11,11,28,,,
91429,note_on,0,0,10,,,,,,,,,15,,,,45,17
91430,control_change,5,0,15,,,,,,,,,14,11,31,,,
91431,control_change,5,0,9,,,,,,,,,8,11,25,,,
91431,control_change,5,0,5,,,,,,,,,4,11,22,,,
91431,control_change,5,0,1,,,,,,,,,0,11,22,,,
91432,control_change,5,0,3,,,,,,,,,2,11,22,,,
91432,control_change,6,0,13,,,,,,,,,12,11,28,,,
91432,control_change,5,0,11,,,,,,,,,10,11,21,,,
91432,note_on,3,0,10,,,,,,,,,15,,,,45,0
91432,note_on,0,0,10,,,,,,,,,15,,,,45,17
91432,control_change,5,0,7,,,,,,,,,6,11,22,,,
91432,control_change,5,0,4,,,,,,,,,3,11,25,,,
91432,control_change,5,0,2,,,,,,,,,1,11,22,,,
91433,control_change,5,0,6,,,,,,,,,5,11,22,,,
91434,control_change,5,0,12,,,,,,,,,11,11,21,,,
91434,control_change,6,0,14,,,,,,,,,13,11,28,,,
91434,control_change,5,0,8,,,,,,,,,7,11,22,,,
91435,note_on,3,0,10,,,,,,,,,15,,,,45,0
91435,note_on,0,0,10,,,,,,,,,15,,,,45,15
91436,control_change,5,0,9,,,,,,,,,8,11,22,,,
91436,control_change,5,0,1,,,,,,,,,0,11,19,,,
91436,control_change,6,0,15,,,,,,,,,14,11,28,,,
91436,control_change,5,0,5,,,,,,,,,4,11,19,,,
91437,control_change,5,0,3,,,,,,,,,2,11,19,,,
91437,control_change,5,0,11,,,,,,,,,10,11,18,,,
91437,control_change,5,0,2,,,,,,,,,1,11,19,,,
91437,control_change,5,0,7,,,,,,,,,6,11,19,,,
91437,control_change,5,0,4,,,,,,,,,3,11,22,,,
91437,control_change,5,0,13,,,,,,,,,12,11,21,,,
91438,note_on,3,0,10,,,,,,,,,15,,,,45,0
91438,control_change,5,0,6,,,,,,,,,5,11,19,,,
91439,control_change,5,0,14,,,,,,,,,13,11,21,,,
91439,control_change,5,0,8,,,,,,,,,7,11,19,,,
91439,control_change,5,0,12,,,,,,,,,11,11,18,,,
91440,note_on,0,0,11,,,,,,,,,10,,,,60,0
91440,note_on,3,0,11,,,,,,,,,10,,,,69,0
91441,control_change,5,0,15,,,,,,,,,14,11,21,,,
91441,control_change,5,0,9,,,,,,,,,8,11,19,,,
91441,note_on,5,0,1,,,,,,,,,0,,,,76,0
91441,note_on,5,0,5,,,,,,,,,4,,,,64,0
91441,note_on,0,0,1,,,,,,,,,0,,,,81,0
91442,note_on,5,0,3,,,,,,,,,2,,,,69,0
91442,note_on,0,0,3,,,,,,,,,2,,,,72,0
91442,note_on,5,0,2,,,,,,,,,1,,,,72,0
91442,note_on,0,0,12,,,,,,,,,11,,,,60,0
91442,note_on,0,0,2,,,,,,,,,1,,,,76,0
91442,note_on,3,0,12,,,,,,,,,11,,,,64,0
91442,note_on,5,0,7,,,,,,,,,6,,,,64,0
91442,note_on,0,0,7,,,,,,,,,6,,,,57,0
91442,control_change,5,0,4,,,,,,,,,3,11,19,,,
91442,control_change,5,0,13,,,,,,,,,12,11,18,,,
91443,note_on,5,0,6,,,,,,,,,5,,,,64,0
91444,control_change,5,0,14,,,,,,,,,13,11,18,,,
91444,note_on,5,0,8,,,,,,,,,7,,,,60,0
91444,note_on,0,0,8,,,,,,,,,7,,,,57,0
91445,note_on,3,0,13,,,,,,,,,12,,,,57,0
91446,control_change,5,0,15,,,,,,,,,14,11,18,,,
91446,note_on,5,0,9,,,,,,,,,8,,,,45,0
91447,note_on,3,0,14,,,,,,,,,13,,,,45,0
91447,note_on,0,0,4,,,,,,,,,3,,,,52,0
91447,note_on,5,0,4,,,,,,,,,3,,,,48,0
91449,note_on,3,0,15,,,,,,,,,14,,,,33,0
91470,end_of_track,0,1,0,,,,,,,,,,,,,,
91470,set_tempo,270,1,0,,,,,,857143,,,,,,,,
91680,control_change,240,0,11,,,,,,,,,10,121,0,,,
91680,end_of_track,0,1,11,,,,,,,,,,,,,,
91681,end_of_track,0,1,5,,,,,,,,,,,,,,
91681,control_change,240,0,5,,,,,,,,,4,121,0,,,
91681,end_of_track,0,1,1,,,,,,,,,,,,,,
91681,control_change,240,0,1,,,,,,,,,0,121,0,,,
91682,control_change,240,0,3,,,,,,,,,2,121,0,,,
91682,control_change,240,0,2,,,,,,,,,1,121,0,,,
91682,end_of_track,0,1,3,,,,,,,,,,,,,,
91682,end_of_track,0,1,2,,,,,,,,,,,,,,
91682,end_of_track,0,1,7,,,,,,,,,,,,,,
91682,control_change,240,0,7,,,,,,,,,6,121,0,,,
91682,end_of_track,0,1,12,,,,,,,,,,,,,,
91682,control_change,240,0,12,,,,,,,,,11,121,0,,,
91683,end_of_track,0,1,6,,,,,,,,,,,,,,
91683,control_change,240,0,6,,,,,,,,,5,121,0,,,
91684,end_of_track,0,1,8,,,,,,,,,,,,,,
91684,control_change,240,0,8,,,,,,,,,7,121,0,,,
91685,end_of_track,0,1,13,,,,,,,,,,,,,,
91685,control_change,240,0,13,,,,,,,,,12,121,0,,,
91686,control_change,240,0,9,,,,,,,,,8,121,0,,,
91686,end_of_track,0,1,9,,,,,,,,,,,,,,
91687,end_of_track,0,1,4,,,,,,,,,,,,,,
91687,end_of_track,0,1,14,,,,,,,,,,,,,,
91687,control_change,240,0,14,,,,,,,,,13,121,0,,,
91687,control_change,240,0,4,,,,,,,,,3,121,0,,,
91688,control_change,250,0,10,,,,,,,,,15,121,0,,,
91688,end_of_track,0,1,10,,,,,,,,,,,,,,
91689,end_of_track,0,1,15,,,,,,,,,,,,,,
91689,control_change,240,0,15,,,,,,,,,14,121,0,,,
