tick,type,time,meta,track,numerator,denominator,clocks_per_click,notated_32nd_notes_per_beat,key,tempo,port,program,channel,control,value,pitch,note,velocity
0,track_name,0,1,0,,,,,,,,,,,,,,
0,control_change,0,0,6,,,,,,,,,10,121,0,,,
0,control_change,0,0,6,,,,,,,,,10,10,12,,,
0,control_change,0,0,6,,,,,,,,,10,7,127,,,
0,program_change,0,0,6,,,,,,,,48,10,,,,,
0,track_name,0,1,6,,,,,,,,,,,,,,
0,midi_port,0,1,6,,,,,,,0,,,,,,,
0,control_change,0,0,5,,,,,,,,,5,10,28,,,
0,control_change,0,0,5,,,,,,,,,5,7,127,,,
0,program_change,0,0,5,,,,,,,,60,5,,,,,
0,track_name,0,1,5,,,,,,,,,,,,,,
0,midi_port,0,1,5,,,,,,,0,,,,,,,
0,control_change,0,0,4,,,,,,,,,4,10,24,,,
0,control_change,0,0,4,,,,,,,,,4,7,127,,,
0,program_change,0,0,4,,,,,,,,60,4,,,,,
0,track_name,0,1,4,,,,,,,,,,,,,,
0,midi_port,0,1,4,,,,,,,0,,,,,,,
0,control_change,0,0,3,,,,,,,,,3,10,80,,,
0,control_change,0,0,3,,,,,,,,,3,7,127,,,
0,program_change,0,0,3,,,,,,,,70,3,,,,,
0,track_name,0,1,3,,,,,,,,,,,,,,
0,midi_port,0,1,3,,,,,,,0,,,,,,,
0,control_change,0,0,2,,,,,,,,,1,10,72,,,
0,control_change,0,0,2,,,,,,,,,1,7,127,,,
0,program_change,0,0,2,,,,,,,,68,1,,,,,
0,track_name,0,1,2,,,,,,,,,,,,,,
0,midi_port,0,1,2,,,,,,,0,,,,,,,
0,control_change,0,0,1,,,,,,,,,0,10,52,,,
0,control_change,0,0,1,,,,,,,,,0,7,127,,,
0,program_change,0,0,1,,,,,,,,73,0,,,,,
0,midi_port,0,1,7,,,,,,,0,,,,,,,
0,track_name,0,1,7,,,,,,,,,,,,,,
0,program_change,0,0,7,,,,,,,,48,11,,,,,
0,control_change,0,0,7,,,,,,,,,11,7,127,,,
0,midi_port,0,1,15,,,,,,,0,,,,,,,
0,end_of_track,0,1,14,,,,,,,,,,,,,,
0,track_name,0,1,14,,,,,,,,,,,,,,
0,midi_port,0,1,14,,,,,,,0,,,,,,,
0,end_of_track,0,1,13,,,,,,,,,,,,,,
0,track_name,0,1,13,,,,,,,,,,,,,,
0,midi_port,0,1,13,,,,,,,0,,,,,,,
0,end_of_track,0,1,12,,,,,,,,,,,,,,
0,track_name,0,1,12,,,,,,,,,,,,,,
0,midi_port,0,1,12,,,,,,,0,,,,,,,
0,end_of_track,0,1,11,,,,,,,,,,,,,,
0,track_name,0,1,11,,,,,,,,,,,,,,
0,midi_port,0,1,11,,,,,,,0,,,,,,,
0,control_change,0,0,10,,,,,,,,,14,10,127,,,
0,track_name,0,1,1,,,,,,,,,,,,,,
0,control_change,0,0,10,,,,,,,,,14,7,127,,,
0,track_name,0,1,10,,,,,,,,,,,,,,
0,midi_port,0,1,10,,,,,,,0,,,,,,,
0,control_change,0,0,9,,,,,,,,,13,10,100,,,
0,control_change,0,0,9,,,,,,,,,13,7,127,,,
0,program_change,0,0,9,,,,,,,,48,13,,,,,
0,track_name,0,1,9,,,,,,,,,,,,,,
0,midi_port,0,1,9,,,,,,,0,,,,,,,
0,control_change,0,0,8,,,,,,,,,12,10,40,,,
0,control_change,0,0,8,,,,,,,,,12,7,127,,,
0,program_change,0,0,8,,,,,,,,48,12,,,,,
0,track_name,0,1,8,,,,,,,,,,,,,,
0,midi_port,0,1,8,,,,,,,0,,,,,,,
0,track_name,0,1,15,,,,,,,,,,,,,,
0,control_change,0,0,7,,,,,,,,,11,10,90,,,
0,program_change,0,0,10,,,,,,,,48,14,,,,,
0,midi_port,0,1,1,,,,,,,0,,,,,,,
0,end_of_track,0,1,15,,,,,,,,,,,,,,
0,marker,0,1,0,,,,,,,,,,,,,,
0,time_signature,0,1,0,2,4,24,8,,,,,,,,,,
0,text,0,1,0,,,,,,,,,,,,,,
0,text,0,1,0,,,,,,,,,,,,,,
0,text,0,1,0,,,,,,,,,,,,,,
0,text,0,1,0,,,,,,,,,,,,,,
0,text,0,1,0,,,,,,,,,,,,,,
0,text,0,1,0,,,,,,,,,,,,,,
0,text,0,1,0,,,,,,,,,,,,,,
0,key_signature,0,1,0,,,,,Bb,,,,,,,,,
0,text,0,1,0,,,,,,,,,,,,,,
0,text,0,1,0,,,,,,,,,,,,,,
0,text,0,1,0,,,,,,,,,,,,,,
0,text,0,1,0,,,,,,,,,,,,,,
0,text,0,1,0,,,,,,,,,,,,,,
0,text,0,1,0,,,,,,,,,,,,,,
0,text,0,1,0,,,,,,,,,,,,,,
0,text,0,1,0,,,,,,,,,,,,,,
0,text,0,1,0,,,,,,,,,,,,,,
0,copyright,0,1,0,,,,,,,,,,,,,,
0,track_name,0,1,0,,,,,,,,,,,,,,
0,text,0,1,0,,,,,,,,,,,,,,
0,set_tempo,0,1,0,,,,,,300000,,,,,,,,
3,control_change,3,0,7,,,,,,,,,11,121,0,,,
3,control_change,3,0,1,,,,,,,,,0,121,0,,,
4,control_change,4,0,4,,,,,,,,,4,121,0,,,
5,program_change,5,0,6,,,,,,,,48,10,,,,,
5,control_change,5,0,2,,,,,,,,,1,121,0,,,
6,control_change,6,0,8,,,,,,,,,12,121,0,,,
6,control_change,6,0,5,,,,,,,,,5,121,0,,,
8,program_change,5,0,1,,,,,,,,73,0,,,,,
8,program_change,5,0,7,,,,,,,,48,11,,,,,
9,program_change,5,0,4,,,,,,,,60,4,,,,,
10,pitchwheel,5,0,6,,,,,,,,,10,,,300,,
10,program_change,5,0,2,,,,,,,,68,1,,,,,
11,program_change,5,0,8,,,,,,,,48,12,,,,,
11,control_change,11,0,9,,,,,,,,,13,121,0,,,
11,program_change,5,0,5,,,,,,,,60,5,,,,,
12,control_change,12,0,3,,,,,,,,,3,121,0,,,
13,pitchwheel,5,0,1,,,,,,,,,0,,,0,,
13,pitchwheel,5,0,7,,,,,,,,,11,,,-300,,
13,control_change,13,0,10,,,,,,,,,14,121,0,,,
14,pitchwheel,5,0,4,,,,,,,,,4,,,100,,
15,pitchwheel,5,0,2,,,,,,,,,1,,,0,,
15,control_change,5,0,6,,,,,,,,,10,11,47,,,
16,pitchwheel,5,0,8,,,,,,,,,12,,,300,,
16,pitchwheel,5,0,5,,,,,,,,,5,,,-100,,
16,program_change,5,0,9,,,,,,,,48,13,,,,,
17,program_change,5,0,3,,,,,,,,70,3,,,,,
18,program_change,5,0,10,,,,,,,,48,14,,,,,
18,control_change,5,0,7,,,,,,,,,11,11,47,,,
18,control_change,5,0,1,,,,,,,,,0,11,47,,,
19,control_change,5,0,4,,,,,,,,,4,11,47,,,
20,control_change,5,0,6,,,,,,,,,10,7,127,,,
20,control_change,5,0,2,,,,,,,,,1,11,47,,,
21,control_change,5,0,8,,,,,,,,,12,11,47,,,
21,control_change,5,0,5,,,,,,,,,5,11,47,,,
21,pitchwheel,5,0,9,,,,,,,,,13,,,-300,,
22,pitchwheel,5,0,3,,,,,,,,,3,,,0,,
23,control_change,5,0,1,,,,,,,,,0,7,127,,,
23,pitchwheel,5,0,10,,,,,,,,,14,,,300,,
23,control_change,5,0,7,,,,,,,,,11,7,127,,,
24,control_change,5,0,4,,,,,,,,,4,7,127,,,
25,control_change,5,0,2,,,,,,,,,1,7,127,,,
25,control_change,5,0,6,,,,,,,,,10,91,15,,,
26,control_change,5,0,9,,,,,,,,,13,11,47,,,
26,control_change,5,0,8,,,,,,,,,12,7,127,,,
26,control_change,5,0,5,,,,,,,,,5,7,127,,,
27,control_change,5,0,3,,,,,,,,,3,11,47,,,
28,control_change,5,0,1,,,,,,,,,0,91,30,,,
28,control_change,5,0,10,,,,,,,,,14,11,47,,,
28,control_change,5,0,7,,,,,,,,,11,91,10,,,
29,control_change,5,0,4,,,,,,,,,4,91,40,,,
30,control_change,5,0,2,,,,,,,,,1,91,30,,,
30,control_change,5,0,6,,,,,,,,,10,93,20,,,
31,control_change,5,0,5,,,,,,,,,5,91,40,,,
31,control_change,5,0,8,,,,,,,,,12,91,10,,,
31,control_change,5,0,9,,,,,,,,,13,7,127,,,
32,control_change,5,0,3,,,,,,,,,3,7,127,,,
33,control_change,5,0,1,,,,,,,,,0,93,15,,,
33,control_change,5,0,10,,,,,,,,,14,7,127,,,
33,control_change,5,0,7,,,,,,,,,11,93,20,,,
34,control_change,5,0,4,,,,,,,,,4,93,15,,,
35,control_change,5,0,2,,,,,,,,,1,93,15,,,
35,control_change,5,0,6,,,,,,,,,10,1,15,,,
36,control_change,5,0,5,,,,,,,,,5,93,20,,,
36,control_change,5,0,9,,,,,,,,,13,91,10,,,
36,control_change,5,0,8,,,,,,,,,12,93,17,,,
37,control_change,5,0,3,,,,,,,,,3,91,25,,,
38,control_change,5,0,7,,,,,,,,,11,1,15,,,
38,control_change,5,0,10,,,,,,,,,14,91,5,,,
41,control_change,5,0,8,,,,,,,,,12,1,15,,,
41,control_change,5,0,9,,,,,,,,,13,93,15,,,
42,control_change,5,0,3,,,,,,,,,3,93,15,,,
43,control_change,5,0,10,,,,,,,,,14,93,5,,,
46,control_change,5,0,9,,,,,,,,,13,1,15,,,
48,control_change,5,0,10,,,,,,,,,14,1,15,,,
120,set_tempo,120,1,0,,,,,,382166,,,,,,,,
180,note_on,0,0,6,,,,,,,,,10,,,,65,92
180,control_change,145,0,6,,,,,,,,,10,11,47,,,
230,note_on,50,0,6,,,,,,,,,10,,,,65,0
240,note_on,10,0,6,,,,,,,,,10,,,,65,100
240,set_tempo,120,1,0,,,,,,355030,,,,,,,,
240,marker,0,1,0,,,,,,,,,,,,,,
243,control_change,205,0,7,,,,,,,,,11,11,47,,,
243,note_on,0,0,7,,,,,,,,,11,,,,58,67
246,note_on,0,0,8,,,,,,,,,12,,,,53,54
246,control_change,205,0,8,,,,,,,,,12,11,47,,,
251,note_on,0,0,9,,,,,,,,,13,,,,50,45
251,control_change,205,0,9,,,,,,,,,13,11,47,,,
253,note_on,0,0,10,,,,,,,,,14,,,,38,33
253,control_change,205,0,10,,,,,,,,,14,11,47,,,
300,note_on,0,0,6,,,,,,,,,10,,,,67,100
300,note_on,60,0,6,,,,,,,,,10,,,,65,0
350,note_on,50,0,6,,,,,,,,,10,,,,67,0
360,set_tempo,120,1,0,,,,,,382166,,,,,,,,
360,note_on,10,0,6,,,,,,,,,10,,,,69,100
363,note_on,120,0,7,,,,,,,,,11,,,,58,0
366,note_on,120,0,8,,,,,,,,,12,,,,53,0
371,note_on,120,0,9,,,,,,,,,13,,,,50,0
373,note_on,120,0,10,,,,,,,,,14,,,,38,0
390,note_on,30,0,6,,,,,,,,,10,,,,69,0
420,note_on,30,0,6,,,,,,,,,10,,,,70,100
450,note_on,30,0,6,,,,,,,,,10,,,,70,0
480,set_tempo,120,1,0,,,,,,355030,,,,,,,,
480,note_on,30,0,6,,,,,,,,,10,,,,70,100
483,note_on,120,0,7,,,,,,,,,11,,,,60,73
486,note_on,120,0,8,,,,,,,,,12,,,,53,60
491,note_on,120,0,9,,,,,,,,,13,,,,51,51
493,note_on,120,0,10,,,,,,,,,14,,,,39,38
540,note_on,0,0,6,,,,,,,,,10,,,,69,100
540,note_on,60,0,6,,,,,,,,,10,,,,70,0
590,note_on,50,0,6,,,,,,,,,10,,,,69,0
600,set_tempo,120,1,0,,,,,,382166,,,,,,,,
600,note_on,10,0,6,,,,,,,,,10,,,,67,100
603,note_on,120,0,7,,,,,,,,,11,,,,60,0
606,note_on,120,0,8,,,,,,,,,12,,,,53,0
611,note_on,120,0,9,,,,,,,,,13,,,,51,0
613,note_on,120,0,10,,,,,,,,,14,,,,39,0
630,note_on,30,0,6,,,,,,,,,10,,,,67,0
660,note_on,30,0,6,,,,,,,,,10,,,,65,100
690,note_on,30,0,6,,,,,,,,,10,,,,65,0
720,set_tempo,120,1,0,,,,,,355030,,,,,,,,
720,note_on,30,0,6,,,,,,,,,10,,,,70,100
723,note_on,120,0,7,,,,,,,,,11,,,,65,80
726,note_on,120,0,8,,,,,,,,,12,,,,58,66
731,note_on,120,0,9,,,,,,,,,13,,,,50,57
733,note_on,120,0,10,,,,,,,,,14,,,,38,43
750,note_on,30,0,6,,,,,,,,,10,,,,70,0
780,note_on,30,0,6,,,,,,,,,10,,,,70,100
783,note_on,60,0,7,,,,,,,,,11,,,,65,0
786,note_on,60,0,8,,,,,,,,,12,,,,58,0
791,note_on,60,0,9,,,,,,,,,13,,,,50,0
793,note_on,60,0,10,,,,,,,,,14,,,,38,0
810,note_on,30,0,6,,,,,,,,,10,,,,70,0
840,note_on,30,0,6,,,,,,,,,10,,,,74,100
840,set_tempo,120,1,0,,,,,,382166,,,,,,,,
843,note_on,60,0,7,,,,,,,,,11,,,,69,80
846,note_on,60,0,8,,,,,,,,,12,,,,60,66
851,note_on,60,0,9,,,,,,,,,13,,,,53,57
853,note_on,60,0,10,,,,,,,,,14,,,,41,43
870,note_on,30,0,6,,,,,,,,,10,,,,74,0
870,note_on,0,0,6,,,,,,,,,10,,,,72,100
890,note_on,20,0,6,,,,,,,,,10,,,,72,0
900,note_on,10,0,6,,,,,,,,,10,,,,70,100
903,note_on,60,0,7,,,,,,,,,11,,,,69,0
906,note_on,60,0,8,,,,,,,,,12,,,,60,0
911,note_on,60,0,9,,,,,,,,,13,,,,53,0
913,note_on,60,0,10,,,,,,,,,14,,,,41,0
915,note_on,15,0,6,,,,,,,,,10,,,,70,0
930,note_on,15,0,6,,,,,,,,,10,,,,72,100
945,note_on,15,0,6,,,,,,,,,10,,,,72,0
960,set_tempo,120,1,0,,,,,,355030,,,,,,,,
960,note_on,15,0,6,,,,,,,,,10,,,,74,100
963,note_on,60,0,7,,,,,,,,,11,,,,70,80
966,note_on,60,0,8,,,,,,,,,12,,,,62,66
971,note_on,60,0,9,,,,,,,,,13,,,,58,57
973,note_on,60,0,10,,,,,,,,,14,,,,46,43
1080,set_tempo,120,1,0,,,,,,382166,,,,,,,,
1080,note_on,120,0,6,,,,,,,,,10,,,,74,0
1080,note_on,0,0,6,,,,,,,,,10,,,,70,100
1083,note_on,120,0,7,,,,,,,,,11,,,,70,0
1086,note_on,120,0,8,,,,,,,,,12,,,,62,0
1091,note_on,120,0,9,,,,,,,,,13,,,,58,0
1093,note_on,120,0,10,,,,,,,,,14,,,,46,0
1130,note_on,50,0,6,,,,,,,,,10,,,,70,0
1140,note_on,10,0,6,,,,,,,,,10,,,,77,100
1190,note_on,50,0,6,,,,,,,,,10,,,,77,0
1200,note_on,10,0,6,,,,,,,,,10,,,,74,115
1200,set_tempo,120,1,0,,,,,,355030,,,,,,,,
1203,note_on,120,0,7,,,,,,,,,11,,,,68,92
1206,note_on,120,0,8,,,,,,,,,12,,,,65,75
1211,note_on,120,0,9,,,,,,,,,13,,,,59,66
1213,note_on,120,0,10,,,,,,,,,14,,,,47,52
1320,set_tempo,120,1,0,,,,,,382166,,,,,,,,
1320,note_on,120,0,6,,,,,,,,,10,,,,74,0
1320,note_on,0,0,6,,,,,,,,,10,,,,75,100
1323,note_on,0,0,7,,,,,,,,,11,,,,67,80
1323,note_on,120,0,7,,,,,,,,,11,,,,68,0
1326,note_on,0,0,8,,,,,,,,,12,,,,63,66
1326,note_on,120,0,8,,,,,,,,,12,,,,65,0
1331,note_on,0,0,9,,,,,,,,,13,,,,60,57
1331,note_on,120,0,9,,,,,,,,,13,,,,59,0
1333,note_on,120,0,10,,,,,,,,,14,,,,47,0
1333,note_on,0,0,10,,,,,,,,,14,,,,48,43
1370,note_on,50,0,6,,,,,,,,,10,,,,75,0
1380,note_on,10,0,6,,,,,,,,,10,,,,75,100
1383,note_on,60,0,7,,,,,,,,,11,,,,67,0
1386,note_on,60,0,8,,,,,,,,,12,,,,63,0
1391,note_on,60,0,9,,,,,,,,,13,,,,60,0
1393,note_on,60,0,10,,,,,,,,,14,,,,48,0
1430,note_on,50,0,6,,,,,,,,,10,,,,75,0
1440,note_on,10,0,6,,,,,,,,,10,,,,72,115
1440,set_tempo,120,1,0,,,,,,355030,,,,,,,,
1443,note_on,60,0,7,,,,,,,,,11,,,,66,92
1446,note_on,60,0,8,,,,,,,,,12,,,,63,75
1451,note_on,60,0,9,,,,,,,,,13,,,,57,66
1453,note_on,60,0,10,,,,,,,,,14,,,,45,52
1560,note_on,0,0,6,,,,,,,,,10,,,,74,100
1560,note_on,120,0,6,,,,,,,,,10,,,,72,0
1560,set_tempo,120,1,0,,,,,,382166,,,,,,,,
1563,note_on,0,0,7,,,,,,,,,11,,,,65,80
1563,note_on,120,0,7,,,,,,,,,11,,,,66,0
1566,note_on,120,0,8,,,,,,,,,12,,,,63,0
1566,note_on,0,0,8,,,,,,,,,12,,,,62,66
1571,note_on,120,0,9,,,,,,,,,13,,,,57,0
1571,note_on,0,0,9,,,,,,,,,13,,,,58,57
1573,note_on,0,0,10,,,,,,,,,14,,,,46,43
1573,note_on,120,0,10,,,,,,,,,14,,,,45,0
1610,note_on,50,0,6,,,,,,,,,10,,,,74,0
1620,note_on,10,0,6,,,,,,,,,10,,,,70,100
1623,note_on,60,0,7,,,,,,,,,11,,,,65,0
1626,note_on,60,0,8,,,,,,,,,12,,,,62,0
1631,note_on,60,0,9,,,,,,,,,13,,,,58,0
1633,note_on,60,0,10,,,,,,,,,14,,,,46,0
1670,note_on,50,0,6,,,,,,,,,10,,,,70,0
1680,set_tempo,120,1,0,,,,,,355030,,,,,,,,
1680,note_on,10,0,6,,,,,,,,,10,,,,67,100
1683,note_on,60,0,7,,,,,,,,,11,,,,58,80
1686,note_on,60,0,8,,,,,,,,,12,,,,55,66
1691,note_on,60,0,9,,,,,,,,,13,,,,51,57
1693,note_on,60,0,10,,,,,,,,,14,,,,39,43
1710,note_on,30,0,6,,,,,,,,,10,,,,67,0
1740,note_on,30,0,6,,,,,,,,,10,,,,69,100
1743,note_on,60,0,7,,,,,,,,,11,,,,58,0
1746,note_on,60,0,8,,,,,,,,,12,,,,55,0
1751,note_on,60,0,9,,,,,,,,,13,,,,51,0
1753,note_on,60,0,10,,,,,,,,,14,,,,39,0
1770,note_on,30,0,6,,,,,,,,,10,,,,69,0
1800,set_tempo,120,1,0,,,,,,382166,,,,,,,,
1800,note_on,30,0,6,,,,,,,,,10,,,,70,100
1803,note_on,60,0,7,,,,,,,,,11,,,,60,80
1806,note_on,60,0,8,,,,,,,,,12,,,,55,66
1811,note_on,60,0,9,,,,,,,,,13,,,,52,57
1813,note_on,60,0,10,,,,,,,,,14,,,,40,43
1830,note_on,30,0,6,,,,,,,,,10,,,,70,0
1860,note_on,30,0,6,,,,,,,,,10,,,,72,100
1863,note_on,60,0,7,,,,,,,,,11,,,,60,0
1866,note_on,60,0,8,,,,,,,,,12,,,,55,0
1871,note_on,60,0,9,,,,,,,,,13,,,,52,0
1873,note_on,60,0,10,,,,,,,,,14,,,,40,0
1890,note_on,30,0,6,,,,,,,,,10,,,,72,0
1920,note_on,30,0,6,,,,,,,,,10,,,,65,100
1920,set_tempo,120,1,0,,,,,,359281,,,,,,,,
1923,note_on,60,0,7,,,,,,,,,11,,,,57,80
1926,note_on,60,0,8,,,,,,,,,12,,,,53,66
1931,note_on,60,0,9,,,,,,,,,13,,,,53,57
1933,note_on,60,0,10,,,,,,,,,14,,,,41,43
1956,note_on,30,0,8,,,,,,,,,12,,,,53,0
1961,note_on,30,0,9,,,,,,,,,13,,,,53,0
1963,note_on,30,0,10,,,,,,,,,14,,,,41,0
1986,note_on,30,0,8,,,,,,,,,12,,,,65,98
1991,note_on,30,0,9,,,,,,,,,13,,,,53,89
1993,note_on,30,0,10,,,,,,,,,14,,,,41,73
2040,set_tempo,120,1,0,,,,,,400000,,,,,,,,
2040,note_on,120,0,6,,,,,,,,,10,,,,65,0
2043,note_on,120,0,7,,,,,,,,,11,,,,57,0
2046,note_on,0,0,8,,,,,,,,,12,,,,64,98
2046,note_on,60,0,8,,,,,,,,,12,,,,65,0
2051,note_on,0,0,9,,,,,,,,,13,,,,52,89
2051,note_on,60,0,9,,,,,,,,,13,,,,53,0
2053,note_on,0,0,10,,,,,,,,,14,,,,40,73
2053,note_on,60,0,10,,,,,,,,,14,,,,41,0
2100,note_on,60,0,6,,,,,,,,,10,,,,77,80
2103,control_change,2070,0,1,,,,,,,,,0,11,47,,,
2103,note_on,0,0,1,,,,,,,,,0,,,,77,82
2103,note_on,60,0,7,,,,,,,,,11,,,,65,100
2106,note_on,60,0,8,,,,,,,,,12,,,,64,0
2106,note_on,0,0,8,,,,,,,,,12,,,,63,98
2111,note_on,0,0,9,,,,,,,,,13,,,,51,89
2111,note_on,60,0,9,,,,,,,,,13,,,,52,0
2113,note_on,0,0,10,,,,,,,,,14,,,,39,73
2113,note_on,60,0,10,,,,,,,,,14,,,,40,0
2150,note_on,50,0,6,,,,,,,,,10,,,,77,0
2153,note_on,50,0,1,,,,,,,,,0,,,,77,0
2153,note_on,50,0,7,,,,,,,,,11,,,,65,0
2156,note_on,50,0,8,,,,,,,,,12,,,,63,0
2160,set_tempo,120,1,0,,,,,,368098,,,,,,,,
2160,note_on,10,0,6,,,,,,,,,10,,,,77,80
2161,note_on,50,0,9,,,,,,,,,13,,,,51,0
2163,note_on,10,0,1,,,,,,,,,0,,,,77,82
2163,note_on,10,0,7,,,,,,,,,11,,,,65,100
2163,note_on,50,0,10,,,,,,,,,14,,,,39,0
2165,control_change,2130,0,2,,,,,,,,,1,11,47,,,
2165,note_on,0,0,2,,,,,,,,,1,,,,77,81
2165,note_on,0,0,2,,,,,,,,,1,,,,65,81
2166,note_on,10,0,8,,,,,,,,,12,,,,62,98
2171,note_on,10,0,9,,,,,,,,,13,,,,50,89
2172,control_change,2130,0,3,,,,,,,,,3,11,47,,,
2172,note_on,0,0,3,,,,,,,,,3,,,,58,81
2172,note_on,0,0,3,,,,,,,,,3,,,,50,81
2173,note_on,10,0,10,,,,,,,,,14,,,,38,73
2220,note_on,60,0,6,,,,,,,,,10,,,,77,0
2220,note_on,0,0,6,,,,,,,,,10,,,,79,80
2223,note_on,0,0,7,,,,,,,,,11,,,,67,100
2223,note_on,0,0,1,,,,,,,,,0,,,,79,82
2223,note_on,60,0,7,,,,,,,,,11,,,,65,0
2223,note_on,60,0,1,,,,,,,,,0,,,,77,0
2270,note_on,50,0,6,,,,,,,,,10,,,,79,0
2273,note_on,50,0,7,,,,,,,,,11,,,,67,0
2273,note_on,50,0,1,,,,,,,,,0,,,,79,0
2280,set_tempo,120,1,0,,,,,,382166,,,,,,,,
2280,note_on,10,0,6,,,,,,,,,10,,,,81,80
2283,note_on,10,0,1,,,,,,,,,0,,,,81,82
2283,note_on,10,0,7,,,,,,,,,11,,,,69,100
2286,note_on,120,0,8,,,,,,,,,12,,,,62,0
2291,note_on,120,0,9,,,,,,,,,13,,,,50,0
2292,note_on,0,0,3,,,,,,,,,3,,,,58,0
2292,note_on,120,0,3,,,,,,,,,3,,,,50,0
2293,note_on,120,0,10,,,,,,,,,14,,,,38,0
2310,note_on,30,0,6,,,,,,,,,10,,,,81,0
2313,note_on,30,0,7,,,,,,,,,11,,,,69,0
2313,note_on,30,0,1,,,,,,,,,0,,,,81,0
2340,note_on,30,0,6,,,,,,,,,10,,,,82,80
2343,note_on,30,0,7,,,,,,,,,11,,,,70,100
2343,note_on,30,0,1,,,,,,,,,0,,,,82,82
2370,note_on,30,0,6,,,,,,,,,10,,,,82,0
2373,note_on,30,0,1,,,,,,,,,0,,,,82,0
2373,note_on,30,0,7,,,,,,,,,11,,,,70,0
2400,note_on,30,0,6,,,,,,,,,10,,,,82,80
2400,set_tempo,120,1,0,,,,,,355030,,,,,,,,
2403,note_on,30,0,7,,,,,,,,,11,,,,70,100
2403,note_on,30,0,1,,,,,,,,,0,,,,82,82
2406,note_on,120,0,8,,,,,,,,,12,,,,63,98
2411,note_on,120,0,9,,,,,,,,,13,,,,51,89
2412,note_on,120,0,3,,,,,,,,,3,,,,60,81
2412,note_on,0,0,3,,,,,,,,,3,,,,51,81
2413,note_on,120,0,10,,,,,,,,,14,,,,39,73
2460,note_on,60,0,6,,,,,,,,,10,,,,82,0
2460,note_on,0,0,6,,,,,,,,,10,,,,81,80
2463,note_on,0,0,1,,,,,,,,,0,,,,81,82
2463,note_on,60,0,7,,,,,,,,,11,,,,70,0
2463,note_on,0,0,7,,,,,,,,,11,,,,69,100
2463,note_on,60,0,1,,,,,,,,,0,,,,82,0
2510,note_on,50,0,6,,,,,,,,,10,,,,81,0
2513,note_on,50,0,1,,,,,,,,,0,,,,81,0
2513,note_on,50,0,7,,,,,,,,,11,,,,69,0
2520,note_on,10,0,6,,,,,,,,,10,,,,79,80
2520,set_tempo,120,1,0,,,,,,382166,,,,,,,,
2523,note_on,10,0,1,,,,,,,,,0,,,,79,82
2523,note_on,10,0,7,,,,,,,,,11,,,,67,100
2526,note_on,120,0,8,,,,,,,,,12,,,,63,0
2531,note_on,120,0,9,,,,,,,,,13,,,,51,0
2532,note_on,0,0,3,,,,,,,,,3,,,,60,0
2532,note_on,120,0,3,,,,,,,,,3,,,,51,0
2533,note_on,120,0,10,,,,,,,,,14,,,,39,0
2550,note_on,30,0,6,,,,,,,,,10,,,,79,0
2553,note_on,30,0,7,,,,,,,,,11,,,,67,0
2553,note_on,30,0,1,,,,,,,,,0,,,,79,0
2580,note_on,30,0,6,,,,,,,,,10,,,,77,80
2583,note_on,30,0,7,,,,,,,,,11,,,,65,100
2583,note_on,30,0,1,,,,,,,,,0,,,,77,82
2610,note_on,30,0,6,,,,,,,,,10,,,,77,0
2613,note_on,30,0,1,,,,,,,,,0,,,,77,0
2613,note_on,30,0,7,,,,,,,,,11,,,,65,0
2640,note_on,30,0,6,,,,,,,,,10,,,,82,80
2640,set_tempo,120,1,0,,,,,,355030,,,,,,,,
2643,note_on,30,0,1,,,,,,,,,0,,,,82,82
2643,note_on,30,0,7,,,,,,,,,11,,,,70,100
2646,note_on,120,0,8,,,,,,,,,12,,,,62,98
2651,note_on,120,0,9,,,,,,,,,13,,,,50,89
2652,note_on,0,0,3,,,,,,,,,3,,,,58,81
2652,note_on,120,0,3,,,,,,,,,3,,,,50,81
2653,note_on,120,0,10,,,,,,,,,14,,,,38,73
2670,note_on,30,0,6,,,,,,,,,10,,,,82,0
2673,note_on,30,0,1,,,,,,,,,0,,,,82,0
2673,note_on,30,0,7,,,,,,,,,11,,,,70,0
2700,note_on,30,0,6,,,,,,,,,10,,,,82,80
2703,note_on,30,0,1,,,,,,,,,0,,,,82,82
2703,note_on,30,0,7,,,,,,,,,11,,,,70,100
2706,note_on,60,0,8,,,,,,,,,12,,,,62,0
2711,note_on,60,0,9,,,,,,,,,13,,,,50,0
2712,note_on,60,0,3,,,,,,,,,3,,,,58,0
2712,note_on,0,0,3,,,,,,,,,3,,,,50,0
2713,note_on,60,0,10,,,,,,,,,14,,,,38,0
2730,note_on,30,0,6,,,,,,,,,10,,,,82,0
2733,note_on,30,0,7,,,,,,,,,11,,,,70,0
2733,note_on,30,0,1,,,,,,,,,0,,,,82,0
2760,set_tempo,120,1,0,,,,,,382166,,,,,,,,
2760,note_on,30,0,6,,,,,,,,,10,,,,86,80
2763,note_on,30,0,1,,,,,,,,,0,,,,86,82
2763,note_on,30,0,7,,,,,,,,,11,,,,74,100
2766,note_on,60,0,8,,,,,,,,,12,,,,69,98
2771,note_on,60,0,9,,,,,,,,,13,,,,53,89
2772,note_on,60,0,3,,,,,,,,,3,,,,60,81
2772,note_on,0,0,3,,,,,,,,,3,,,,53,81
2773,note_on,60,0,10,,,,,,,,,14,,,,41,73
2790,note_on,0,0,6,,,,,,,,,10,,,,84,80
2790,note_on,30,0,6,,,,,,,,,10,,,,86,0
2793,note_on,0,0,1,,,,,,,,,0,,,,84,82
2793,note_on,30,0,7,,,,,,,,,11,,,,74,0
2793,note_on,0,0,7,,,,,,,,,11,,,,72,100
2793,note_on,30,0,1,,,,,,,,,0,,,,86,0
2810,note_on,20,0,6,,,,,,,,,10,,,,84,0
2813,note_on,20,0,7,,,,,,,,,11,,,,72,0
2813,note_on,20,0,1,,,,,,,,,0,,,,84,0
2820,note_on,10,0,6,,,,,,,,,10,,,,82,80
2823,note_on,10,0,7,,,,,,,,,11,,,,70,100
2823,note_on,10,0,1,,,,,,,,,0,,,,82,82
2826,note_on,60,0,8,,,,,,,,,12,,,,69,0
2831,note_on,60,0,9,,,,,,,,,13,,,,53,0
2832,note_on,0,0,3,,,,,,,,,3,,,,60,0
2832,note_on,60,0,3,,,,,,,,,3,,,,53,0
2833,note_on,60,0,10,,,,,,,,,14,,,,41,0
2835,note_on,15,0,6,,,,,,,,,10,,,,82,0
2838,note_on,15,0,7,,,,,,,,,11,,,,70,0
2838,note_on,15,0,1,,,,,,,,,0,,,,82,0
2850,note_on,15,0,6,,,,,,,,,10,,,,84,80
2853,note_on,15,0,7,,,,,,,,,11,,,,72,100
2853,note_on,15,0,1,,,,,,,,,0,,,,84,82
2865,note_on,15,0,6,,,,,,,,,10,,,,84,0
2868,note_on,15,0,1,,,,,,,,,0,,,,84,0
2868,note_on,15,0,7,,,,,,,,,11,,,,72,0
2880,set_tempo,120,1,0,,,,,,355030,,,,,,,,
2880,note_on,15,0,6,,,,,,,,,10,,,,86,80
2883,note_on,15,0,7,,,,,,,,,11,,,,74,100
2883,note_on,15,0,1,,,,,,,,,0,,,,86,82
2886,note_on,60,0,8,,,,,,,,,12,,,,70,98
2891,note_on,60,0,9,,,,,,,,,13,,,,58,89
2892,note_on,0,0,3,,,,,,,,,3,,,,62,81
2892,note_on,60,0,3,,,,,,,,,3,,,,58,81
2893,note_on,60,0,10,,,,,,,,,14,,,,46,73
3000,note_on,120,0,6,,,,,,,,,10,,,,86,0
3000,set_tempo,120,1,0,,,,,,382166,,,,,,,,
3000,note_on,0,0,6,,,,,,,,,10,,,,82,80
3003,note_on,0,0,7,,,,,,,,,11,,,,70,100
3003,note_on,0,0,1,,,,,,,,,0,,,,82,82
3003,note_on,120,0,1,,,,,,,,,0,,,,86,0
3003,note_on,120,0,7,,,,,,,,,11,,,,74,0
3005,note_on,0,0,2,,,,,,,,,1,,,,77,0
3005,note_on,840,0,2,,,,,,,,,1,,,,65,0
3006,note_on,120,0,8,,,,,,,,,12,,,,70,0
3011,note_on,120,0,9,,,,,,,,,13,,,,58,0
3012,note_on,120,0,3,,,,,,,,,3,,,,62,0
3012,note_on,0,0,3,,,,,,,,,3,,,,58,0
3013,note_on,120,0,10,,,,,,,,,14,,,,46,0
3050,note_on,50,0,6,,,,,,,,,10,,,,82,0
3053,note_on,50,0,7,,,,,,,,,11,,,,70,0
3053,note_on,50,0,1,,,,,,,,,0,,,,82,0
3060,note_on,10,0,6,,,,,,,,,10,,,,82,80
3063,note_on,10,0,1,,,,,,,,,0,,,,82,82
3063,note_on,10,0,7,,,,,,,,,11,,,,70,100
3120,set_tempo,120,1,0,,,,,,355030,,,,,,,,
3120,note_on,60,0,6,,,,,,,,,10,,,,82,0
3120,note_on,0,0,6,,,,,,,,,10,,,,86,80
3123,note_on,60,0,7,,,,,,,,,11,,,,70,0
3123,note_on,0,0,7,,,,,,,,,11,,,,74,100
3123,note_on,0,0,1,,,,,,,,,0,,,,86,82
3123,note_on,60,0,1,,,,,,,,,0,,,,82,0
3125,note_on,0,0,2,,,,,,,,,1,,,,74,81
3125,note_on,120,0,2,,,,,,,,,1,,,,70,81
3126,note_on,0,0,8,,,,,,,,,12,,,,58,98
3126,note_on,120,0,8,,,,,,,,,12,,,,62,98
3131,note_on,120,0,9,,,,,,,,,13,,,,46,89
3132,note_on,120,0,3,,,,,,,,,3,,,,46,81
3133,note_on,120,0,10,,,,,,,,,14,,,,34,73
3180,note_on,0,0,6,,,,,,,,,10,,,,82,80
3180,note_on,60,0,6,,,,,,,,,10,,,,86,0
3183,note_on,0,0,7,,,,,,,,,11,,,,70,100
3183,note_on,60,0,7,,,,,,,,,11,,,,74,0
3183,note_on,60,0,1,,,,,,,,,0,,,,86,0
3183,note_on,0,0,1,,,,,,,,,0,,,,82,82
3230,note_on,50,0,6,,,,,,,,,10,,,,82,0
3233,note_on,50,0,1,,,,,,,,,0,,,,82,0
3233,note_on,50,0,7,,,,,,,,,11,,,,70,0
3240,note_on,10,0,6,,,,,,,,,10,,,,77,80
3240,set_tempo,120,1,0,,,,,,382166,,,,,,,,
3243,note_on,10,0,7,,,,,,,,,11,,,,65,100
3243,note_on,10,0,1,,,,,,,,,0,,,,77,82
3245,note_on,120,0,2,,,,,,,,,1,,,,74,0
3245,note_on,0,0,2,,,,,,,,,1,,,,70,0
3246,note_on,0,0,8,,,,,,,,,12,,,,62,0
3246,note_on,120,0,8,,,,,,,,,12,,,,58,0
3251,note_on,120,0,9,,,,,,,,,13,,,,46,0
3252,note_on,120,0,3,,,,,,,,,3,,,,46,0
3253,note_on,120,0,10,,,,,,,,,14,,,,34,0
3270,note_on,30,0,6,,,,,,,,,10,,,,77,0
3273,note_on,30,0,7,,,,,,,,,11,,,,65,0
3273,note_on,30,0,1,,,,,,,,,0,,,,77,0
3300,note_on,30,0,6,,,,,,,,,10,,,,77,80
3303,note_on,30,0,1,,,,,,,,,0,,,,77,82
3303,note_on,30,0,7,,,,,,,,,11,,,,65,100
3330,note_on,30,0,6,,,,,,,,,10,,,,77,0
3333,note_on,30,0,1,,,,,,,,,0,,,,77,0
3333,note_on,30,0,7,,,,,,,,,11,,,,65,0
3360,note_on,30,0,6,,,,,,,,,10,,,,82,80
3360,set_tempo,120,1,0,,,,,,355030,,,,,,,,
3363,note_on,30,0,7,,,,,,,,,11,,,,70,100
3363,note_on,30,0,1,,,,,,,,,0,,,,82,82
3365,note_on,0,0,2,,,,,,,,,1,,,,77,81
3365,note_on,120,0,2,,,,,,,,,1,,,,70,81
3366,note_on,120,0,8,,,,,,,,,12,,,,62,98
3366,note_on,0,0,8,,,,,,,,,12,,,,65,98
3371,note_on,120,0,9,,,,,,,,,13,,,,50,89
3372,note_on,120,0,3,,,,,,,,,3,,,,50,81
3373,note_on,120,0,10,,,,,,,,,14,,,,38,73
3420,note_on,0,0,6,,,,,,,,,10,,,,77,80
3420,note_on,60,0,6,,,,,,,,,10,,,,82,0
3423,note_on,0,0,1,,,,,,,,,0,,,,77,82
3423,note_on,60,0,7,,,,,,,,,11,,,,70,0
3423,note_on,0,0,7,,,,,,,,,11,,,,65,100
3423,note_on,60,0,1,,,,,,,,,0,,,,82,0
3470,note_on,50,0,6,,,,,,,,,10,,,,77,0
3473,note_on,50,0,1,,,,,,,,,0,,,,77,0
3473,note_on,50,0,7,,,,,,,,,11,,,,65,0
3480,set_tempo,120,1,0,,,,,,382166,,,,,,,,
3480,note_on,10,0,6,,,,,,,,,10,,,,74,80
3483,note_on,10,0,1,,,,,,,,,0,,,,74,82
3483,note_on,10,0,7,,,,,,,,,11,,,,62,100
3485,note_on,0,0,2,,,,,,,,,1,,,,70,0
3485,note_on,120,0,2,,,,,,,,,1,,,,77,0
3486,note_on,0,0,8,,,,,,,,,12,,,,62,0
3486,note_on,120,0,8,,,,,,,,,12,,,,65,0
3491,note_on,120,0,9,,,,,,,,,13,,,,50,0
3492,note_on,120,0,3,,,,,,,,,3,,,,50,0
3493,note_on,120,0,10,,,,,,,,,14,,,,38,0
3510,note_on,30,0,6,,,,,,,,,10,,,,74,0
3513,note_on,30,0,1,,,,,,,,,0,,,,74,0
3513,note_on,30,0,7,,,,,,,,,11,,,,62,0
3540,note_on,30,0,6,,,,,,,,,10,,,,74,80
3543,note_on,30,0,7,,,,,,,,,11,,,,62,100
3543,note_on,30,0,1,,,,,,,,,0,,,,74,82
3545,note_on,0,0,2,,,,,,,,,1,,,,70,81
3545,note_on,60,0,2,,,,,,,,,1,,,,74,81
3546,note_on,60,0,8,,,,,,,,,12,,,,70,98
3551,note_on,60,0,9,,,,,,,,,13,,,,52,89
3552,note_on,60,0,3,,,,,,,,,3,,,,52,81
3553,note_on,60,0,10,,,,,,,,,14,,,,40,73
3570,note_on,30,0,6,,,,,,,,,10,,,,74,0
3573,note_on,30,0,1,,,,,,,,,0,,,,74,0
3573,note_on,30,0,7,,,,,,,,,11,,,,62,0
3595,note_on,50,0,2,,,,,,,,,1,,,,70,0
3595,note_on,0,0,2,,,,,,,,,1,,,,74,0
3596,note_on,50,0,8,,,,,,,,,12,,,,70,0
3600,set_tempo,120,1,0,,,,,,369231,,,,,,,,
3600,note_on,30,0,6,,,,,,,,,10,,,,74,100
3601,note_on,50,0,9,,,,,,,,,13,,,,52,0
3602,note_on,50,0,3,,,,,,,,,3,,,,52,0
3603,note_on,30,0,7,,,,,,,,,11,,,,70,100
3603,note_on,30,0,1,,,,,,,,,0,,,,74,82
3603,note_on,50,0,10,,,,,,,,,14,,,,40,0
3605,note_on,0,0,2,,,,,,,,,1,,,,70,81
3605,note_on,10,0,2,,,,,,,,,1,,,,74,81
3606,note_on,10,0,8,,,,,,,,,12,,,,65,98
3611,note_on,10,0,9,,,,,,,,,13,,,,53,89
3612,note_on,10,0,3,,,,,,,,,3,,,,53,81
3613,note_on,10,0,10,,,,,,,,,14,,,,41,73
3660,note_on,60,0,6,,,,,,,,,10,,,,74,0
3660,note_on,0,0,6,,,,,,,,,10,,,,77,100
3663,note_on,60,0,1,,,,,,,,,0,,,,74,0
3663,note_on,0,0,1,,,,,,,,,0,,,,77,82
3663,note_on,60,0,7,,,,,,,,,11,,,,70,0
3663,note_on,0,0,7,,,,,,,,,11,,,,74,100
3665,note_on,60,0,2,,,,,,,,,1,,,,70,0
3665,note_on,0,0,2,,,,,,,,,1,,,,74,0
3665,note_on,0,0,2,,,,,,,,,1,,,,74,81
3665,note_on,0,0,2,,,,,,,,,1,,,,77,81
3710,note_on,50,0,6,,,,,,,,,10,,,,77,0
3713,note_on,50,0,1,,,,,,,,,0,,,,77,0
3713,note_on,50,0,7,,,,,,,,,11,,,,74,0
3715,note_on,50,0,2,,,,,,,,,1,,,,77,0
3715,note_on,0,0,2,,,,,,,,,1,,,,74,0
3716,note_on,110,0,8,,,,,,,,,12,,,,65,0
3720,note_on,10,0,6,,,,,,,,,10,,,,75,100
3720,set_tempo,120,1,0,,,,,,398671,,,,,,,,
3721,note_on,110,0,9,,,,,,,,,13,,,,53,0
3722,note_on,110,0,3,,,,,,,,,3,,,,53,0
3723,note_on,110,0,10,,,,,,,,,14,,,,41,0
3723,note_on,10,0,7,,,,,,,,,11,,,,72,100
3723,note_on,10,0,1,,,,,,,,,0,,,,75,82
3725,note_on,10,0,2,,,,,,,,,1,,,,75,81
3725,note_on,0,0,2,,,,,,,,,1,,,,72,81
3726,note_on,10,0,8,,,,,,,,,12,,,,53,98
3731,note_on,10,0,9,,,,,,,,,13,,,,41,89
3732,note_on,10,0,3,,,,,,,,,3,,,,41,81
3733,note_on,10,0,10,,,,,,,,,14,,,,29,73
3750,note_on,30,0,6,,,,,,,,,10,,,,75,0
3753,note_on,30,0,1,,,,,,,,,0,,,,75,0
3753,note_on,30,0,7,,,,,,,,,11,,,,72,0
3761,note_on,0,0,2,,,,,,,,,1,,,,75,0
3761,note_on,36,0,2,,,,,,,,,1,,,,72,0
3780,note_on,30,0,6,,,,,,,,,10,,,,72,100
3783,note_on,30,0,1,,,,,,,,,0,,,,72,82
3783,note_on,30,0,7,,,,,,,,,11,,,,69,100
3785,note_on,24,0,2,,,,,,,,,1,,,,69,81
3785,note_on,0,0,2,,,,,,,,,1,,,,72,81
3810,note_on,30,0,6,,,,,,,,,10,,,,72,0
3813,note_on,30,0,7,,,,,,,,,11,,,,69,0
3813,note_on,30,0,1,,,,,,,,,0,,,,72,0
3821,note_on,0,0,2,,,,,,,,,1,,,,69,0
3821,note_on,36,0,2,,,,,,,,,1,,,,72,0
3836,note_on,110,0,8,,,,,,,,,12,,,,53,0
3840,note_on,30,0,6,,,,,,,,,10,,,,70,80
3840,set_tempo,120,1,0,,,,,,392157,,,,,,,,
3841,note_on,110,0,9,,,,,,,,,13,,,,41,0
3842,note_on,110,0,3,,,,,,,,,3,,,,41,0
3843,note_on,30,0,7,,,,,,,,,11,,,,70,80
3843,note_on,110,0,10,,,,,,,,,14,,,,29,0
3843,note_on,30,0,1,,,,,,,,,0,,,,70,82
3845,note_on,24,0,2,,,,,,,,,1,,,,70,81
3846,note_on,10,0,8,,,,,,,,,12,,,,58,78
3851,note_on,10,0,9,,,,,,,,,13,,,,46,69
3852,note_on,10,0,3,,,,,,,,,3,,,,46,81
3853,note_on,10,0,10,,,,,,,,,14,,,,34,55
3960,set_tempo,120,1,0,,,,,,382166,,,,,,,,
3960,note_on,120,0,6,,,,,,,,,10,,,,70,0
3963,note_on,120,0,1,,,,,,,,,0,,,,70,0
3963,note_on,120,0,7,,,,,,,,,11,,,,70,0
3965,note_on,120,0,2,,,,,,,,,1,,,,70,0
3966,note_on,120,0,8,,,,,,,,,12,,,,58,0
3971,note_on,120,0,9,,,,,,,,,13,,,,46,0
3972,note_on,120,0,3,,,,,,,,,3,,,,46,0
3973,note_on,120,0,10,,,,,,,,,14,,,,34,0
4080,set_tempo,120,1,0,,,,,,370370,,,,,,,,
4080,note_on,0,0,6,,,,,,,,,10,,,,74,100
4080,control_change,120,0,6,,,,,,,,,10,11,37,,,
4083,control_change,120,0,7,,,,,,,,,11,11,37,,,
4083,note_on,0,0,7,,,,,,,,,11,,,,70,100
4140,note_on,0,0,6,,,,,,,,,10,,,,77,100
4140,note_on,60,0,6,,,,,,,,,10,,,,74,0
4143,note_on,0,0,7,,,,,,,,,11,,,,74,100
4143,note_on,60,0,7,,,,,,,,,11,,,,70,0
4190,note_on,50,0,6,,,,,,,,,10,,,,77,0
4193,note_on,50,0,7,,,,,,,,,11,,,,74,0
4200,set_tempo,120,1,0,,,,,,382166,,,,,,,,
4200,note_on,10,0,6,,,,,,,,,10,,,,75,100
4203,note_on,10,0,7,,,,,,,,,11,,,,72,100
4230,note_on,30,0,6,,,,,,,,,10,,,,75,0
4233,note_on,30,0,7,,,,,,,,,11,,,,72,0
4260,note_on,30,0,6,,,,,,,,,10,,,,72,100
4263,note_on,30,0,7,,,,,,,,,11,,,,69,100
4290,note_on,30,0,6,,,,,,,,,10,,,,72,0
4293,note_on,30,0,7,,,,,,,,,11,,,,69,0
4320,set_tempo,120,1,0,,,,,,362538,,,,,,,,
4320,note_on,30,0,6,,,,,,,,,10,,,,74,100
4323,note_on,30,0,7,,,,,,,,,11,,,,70,100
4380,note_on,60,0,6,,,,,,,,,10,,,,74,0
4380,note_on,0,0,6,,,,,,,,,10,,,,77,100
4383,note_on,0,0,7,,,,,,,,,11,,,,74,100
4383,note_on,60,0,7,,,,,,,,,11,,,,70,0
4430,note_on,50,0,6,,,,,,,,,10,,,,77,0
4433,note_on,50,0,7,,,,,,,,,11,,,,74,0
4440,set_tempo,120,1,0,,,,,,382166,,,,,,,,
4440,note_on,10,0,6,,,,,,,,,10,,,,75,100
4443,note_on,10,0,7,,,,,,,,,11,,,,72,100
4470,note_on,30,0,6,,,,,,,,,10,,,,75,0
4473,note_on,30,0,7,,,,,,,,,11,,,,72,0
4500,note_on,30,0,6,,,,,,,,,10,,,,72,100
4503,note_on,30,0,7,,,,,,,,,11,,,,69,100
4530,note_on,30,0,6,,,,,,,,,10,,,,72,0
4533,note_on,30,0,7,,,,,,,,,11,,,,69,0
4560,note_on,30,0,6,,,,,,,,,10,,,,74,100
4560,set_tempo,120,1,0,,,,,,363636,,,,,,,,
4563,note_on,30,0,7,,,,,,,,,11,,,,70,100
4620,note_on,60,0,6,,,,,,,,,10,,,,74,0
4620,note_on,0,0,6,,,,,,,,,10,,,,77,100
4623,note_on,60,0,7,,,,,,,,,11,,,,70,0
4623,note_on,0,0,7,,,,,,,,,11,,,,74,100
4670,note_on,50,0,6,,,,,,,,,10,,,,77,0
4673,note_on,50,0,7,,,,,,,,,11,,,,74,0
4680,set_tempo,120,1,0,,,,,,382166,,,,,,,,
4680,note_on,10,0,6,,,,,,,,,10,,,,75,100
4683,note_on,10,0,7,,,,,,,,,11,,,,72,100
4710,note_on,30,0,6,,,,,,,,,10,,,,75,0
4713,note_on,30,0,7,,,,,,,,,11,,,,72,0
4740,note_on,30,0,6,,,,,,,,,10,,,,72,100
4743,note_on,30,0,7,,,,,,,,,11,,,,69,100
4770,note_on,30,0,6,,,,,,,,,10,,,,72,0
4773,note_on,30,0,7,,,,,,,,,11,,,,69,0
4800,note_on,0,0,6,,,,,,,,,10,,,,70,100
4800,control_change,30,0,6,,,,,,,,,10,11,37,,,
4800,set_tempo,120,1,0,,,,,,375000,,,,,,,,
4803,control_change,30,0,7,,,,,,,,,11,11,37,,,
4803,note_on,0,0,7,,,,,,,,,11,,,,67,100
4824,control_change,24,0,6,,,,,,,,,10,11,38,,,
4827,control_change,24,0,7,,,,,,,,,11,11,38,,,
4848,control_change,24,0,6,,,,,,,,,10,11,39,,,
4851,control_change,24,0,7,,,,,,,,,11,11,39,,,
4860,note_on,0,0,6,,,,,,,,,10,,,,74,100
4860,note_on,12,0,6,,,,,,,,,10,,,,70,0
4863,note_on,12,0,7,,,,,,,,,11,,,,67,0
4863,note_on,0,0,7,,,,,,,,,11,,,,70,100
4872,control_change,12,0,6,,,,,,,,,10,11,40,,,
4875,control_change,12,0,7,,,,,,,,,11,11,40,,,
4896,control_change,24,0,6,,,,,,,,,10,11,41,,,
4899,control_change,24,0,7,,,,,,,,,11,11,41,,,
4910,note_on,14,0,6,,,,,,,,,10,,,,74,0
4913,note_on,14,0,7,,,,,,,,,11,,,,70,0
4920,set_tempo,120,1,0,,,,,,382166,,,,,,,,
4920,note_on,0,0,6,,,,,,,,,10,,,,72,100
4920,control_change,10,0,6,,,,,,,,,10,11,42,,,
4923,control_change,10,0,7,,,,,,,,,11,11,42,,,
4923,note_on,0,0,7,,,,,,,,,11,,,,69,100
4944,control_change,24,0,6,,,,,,,,,10,11,43,,,
4947,control_change,24,0,7,,,,,,,,,11,11,43,,,
4950,note_on,6,0,6,,,,,,,,,10,,,,72,0
4953,note_on,6,0,7,,,,,,,,,11,,,,69,0
4968,control_change,18,0,6,,,,,,,,,10,11,44,,,
4971,control_change,18,0,7,,,,,,,,,11,11,44,,,
4980,note_on,12,0,6,,,,,,,,,10,,,,69,100
4983,note_on,12,0,7,,,,,,,,,11,,,,65,100
4992,control_change,12,0,6,,,,,,,,,10,11,45,,,
4995,control_change,12,0,7,,,,,,,,,11,11,45,,,
5010,note_on,18,0,6,,,,,,,,,10,,,,69,0
5013,note_on,18,0,7,,,,,,,,,11,,,,65,0
5016,control_change,6,0,6,,,,,,,,,10,11,46,,,
5019,control_change,6,0,7,,,,,,,,,11,11,46,,,
5040,control_change,24,0,6,,,,,,,,,10,11,47,,,
5040,note_on,0,0,6,,,,,,,,,10,,,,67,100
5040,set_tempo,120,1,0,,,,,,363636,,,,,,,,
5043,control_change,24,0,7,,,,,,,,,11,11,47,,,
5043,note_on,0,0,1,,,,,,,,,0,,,,82,121
5043,control_change,1080,0,1,,,,,,,,,0,11,32,,,
5043,note_on,0,0,7,,,,,,,,,11,,,,64,100
5045,note_on,0,0,2,,,,,,,,,1,,,,70,120
5045,control_change,1080,0,2,,,,,,,,,1,11,32,,,
5046,control_change,1080,0,8,,,,,,,,,12,11,27,,,
5046,note_on,0,0,8,,,,,,,,,12,,,,60,98
5051,control_change,1080,0,9,,,,,,,,,13,11,27,,,
5051,note_on,0,0,9,,,,,,,,,13,,,,48,89
5052,note_on,0,0,3,,,,,,,,,3,,,,48,81
5052,note_on,0,0,3,,,,,,,,,3,,,,60,81
5052,control_change,1080,0,3,,,,,,,,,3,11,27,,,
5053,control_change,1080,0,10,,,,,,,,,14,11,27,,,
5053,note_on,0,0,10,,,,,,,,,14,,,,36,73
5064,control_change,24,0,6,,,,,,,,,10,11,46,,,
5066,control_change,23,0,1,,,,,,,,,0,11,33,,,
5067,control_change,24,0,7,,,,,,,,,11,11,46,,,
5068,control_change,23,0,2,,,,,,,,,1,11,33,,,
5069,control_change,23,0,8,,,,,,,,,12,11,28,,,
5074,control_change,23,0,9,,,,,,,,,13,11,28,,,
5075,control_change,23,0,3,,,,,,,,,3,11,28,,,
5076,control_change,23,0,10,,,,,,,,,14,11,28,,,
5088,control_change,24,0,6,,,,,,,,,10,11,45,,,
5090,control_change,24,0,1,,,,,,,,,0,11,34,,,
5091,control_change,24,0,7,,,,,,,,,11,11,45,,,
5092,control_change,24,0,2,,,,,,,,,1,11,34,,,
5093,control_change,24,0,8,,,,,,,,,12,11,29,,,
5098,control_change,24,0,9,,,,,,,,,13,11,29,,,
5099,control_change,24,0,3,,,,,,,,,3,11,29,,,
5100,control_change,24,0,10,,,,,,,,,14,11,29,,,
5103,note_on,13,0,1,,,,,,,,,0,,,,82,0
5103,note_on,0,0,1,,,,,,,,,0,,,,86,121
5105,note_on,13,0,2,,,,,,,,,1,,,,70,0
5105,note_on,0,0,2,,,,,,,,,1,,,,74,120
5112,control_change,24,0,6,,,,,,,,,10,11,44,,,
5114,control_change,11,0,1,,,,,,,,,0,11,35,,,
5115,control_change,24,0,7,,,,,,,,,11,11,44,,,
5116,control_change,11,0,2,,,,,,,,,1,11,35,,,
5117,control_change,24,0,8,,,,,,,,,12,11,30,,,
5122,control_change,24,0,9,,,,,,,,,13,11,30,,,
5123,control_change,24,0,3,,,,,,,,,3,11,30,,,
5124,control_change,24,0,10,,,,,,,,,14,11,30,,,
5136,control_change,24,0,6,,,,,,,,,10,11,43,,,
5138,control_change,24,0,1,,,,,,,,,0,11,36,,,
5139,control_change,24,0,7,,,,,,,,,11,11,43,,,
5140,control_change,24,0,2,,,,,,,,,1,11,36,,,
5141,control_change,24,0,8,,,,,,,,,12,11,31,,,
5146,control_change,24,0,9,,,,,,,,,13,11,31,,,
5147,control_change,24,0,3,,,,,,,,,3,11,31,,,
5148,control_change,24,0,10,,,,,,,,,14,11,31,,,
5160,control_change,24,0,6,,,,,,,,,10,11,42,,,
5160,set_tempo,120,1,0,,,,,,382166,,,,,,,,
5162,control_change,24,0,1,,,,,,,,,0,11,37,,,
5163,note_on,0,0,1,,,,,,,,,0,,,,82,121
5163,note_on,1,0,1,,,,,,,,,0,,,,86,0
5163,control_change,24,0,7,,,,,,,,,11,11,42,,,
5164,control_change,24,0,2,,,,,,,,,1,11,37,,,
5165,control_change,24,0,8,,,,,,,,,12,11,32,,,
5165,note_on,0,0,2,,,,,,,,,1,,,,70,120
5165,note_on,1,0,2,,,,,,,,,1,,,,74,0
5170,control_change,24,0,9,,,,,,,,,13,11,32,,,
5171,control_change,24,0,3,,,,,,,,,3,11,32,,,
5172,control_change,24,0,10,,,,,,,,,14,11,32,,,
5184,control_change,24,0,6,,,,,,,,,10,11,41,,,
5186,control_change,23,0,1,,,,,,,,,0,11,38,,,
5187,control_change,24,0,7,,,,,,,,,11,11,41,,,
5188,control_change,23,0,2,,,,,,,,,1,11,38,,,
5189,control_change,24,0,8,,,,,,,,,12,11,33,,,
5194,control_change,24,0,9,,,,,,,,,13,11,33,,,
5195,control_change,24,0,3,,,,,,,,,3,11,33,,,
5196,control_change,24,0,10,,,,,,,,,14,11,33,,,
5208,control_change,24,0,6,,,,,,,,,10,11,40,,,
5210,control_change,24,0,1,,,,,,,,,0,11,39,,,
5211,control_change,24,0,7,,,,,,,,,11,11,40,,,
5212,control_change,24,0,2,,,,,,,,,1,11,39,,,
5213,control_change,24,0,8,,,,,,,,,12,11,34,,,
5218,control_change,24,0,9,,,,,,,,,13,11,34,,,
5219,control_change,24,0,3,,,,,,,,,3,11,34,,,
5220,note_on,12,0,6,,,,,,,,,10,,,,67,0
5220,note_on,0,0,6,,,,,,,,,10,,,,69,100
5220,control_change,24,0,10,,,,,,,,,14,11,34,,,
5223,note_on,12,0,7,,,,,,,,,11,,,,64,0
5223,note_on,13,0,1,,,,,,,,,0,,,,82,0
5223,note_on,0,0,1,,,,,,,,,0,,,,81,121
5223,note_on,0,0,7,,,,,,,,,11,,,,65,100
5225,note_on,13,0,2,,,,,,,,,1,,,,70,0
5225,note_on,0,0,2,,,,,,,,,1,,,,69,120
5232,control_change,12,0,6,,,,,,,,,10,11,39,,,
5234,control_change,11,0,1,,,,,,,,,0,11,40,,,
5235,control_change,12,0,7,,,,,,,,,11,11,39,,,
5236,control_change,11,0,2,,,,,,,,,1,11,40,,,
5237,control_change,24,0,8,,,,,,,,,12,11,35,,,
5242,control_change,24,0,9,,,,,,,,,13,11,35,,,
5243,control_change,24,0,3,,,,,,,,,3,11,35,,,
5244,control_change,24,0,10,,,,,,,,,14,11,35,,,
5256,control_change,24,0,6,,,,,,,,,10,11,38,,,
5258,control_change,24,0,1,,,,,,,,,0,11,41,,,
5259,control_change,24,0,7,,,,,,,,,11,11,38,,,
5260,control_change,24,0,2,,,,,,,,,1,11,41,,,
5261,control_change,24,0,8,,,,,,,,,12,11,36,,,
5266,control_change,24,0,9,,,,,,,,,13,11,36,,,
5267,control_change,24,0,3,,,,,,,,,3,11,36,,,
5268,control_change,24,0,10,,,,,,,,,14,11,36,,,
5270,note_on,14,0,6,,,,,,,,,10,,,,69,0
5273,note_on,14,0,7,,,,,,,,,11,,,,65,0
5273,note_on,15,0,1,,,,,,,,,0,,,,81,0
5275,note_on,15,0,2,,,,,,,,,1,,,,69,0
5276,note_on,15,0,8,,,,,,,,,12,,,,60,0
5280,control_change,10,0,6,,,,,,,,,10,11,37,,,
5280,note_on,0,0,6,,,,,,,,,10,,,,70,100
5280,set_tempo,120,1,0,,,,,,360360,,,,,,,,
5282,control_change,9,0,1,,,,,,,,,0,11,42,,,
5282,note_on,15,0,3,,,,,,,,,3,,,,60,0
5283,note_on,1,0,1,,,,,,,,,0,,,,79,121
5283,note_on,0,0,7,,,,,,,,,11,,,,67,100
5283,control_change,10,0,7,,,,,,,,,11,11,37,,,
5284,control_change,9,0,2,,,,,,,,,1,11,42,,,
5285,control_change,9,0,8,,,,,,,,,12,11,37,,,
5285,note_on,1,0,2,,,,,,,,,1,,,,67,120
5286,note_on,1,0,8,,,,,,,,,12,,,,64,98
5290,control_change,24,0,9,,,,,,,,,13,11,37,,,
5291,control_change,9,0,3,,,,,,,,,3,11,37,,,
5292,control_change,24,0,10,,,,,,,,,14,11,37,,,
5292,note_on,1,0,3,,,,,,,,,3,,,,64,81
5340,note_on,0,0,6,,,,,,,,,10,,,,74,100
5340,note_on,60,0,6,,,,,,,,,10,,,,70,0
5343,note_on,60,0,7,,,,,,,,,11,,,,67,0
5343,note_on,0,0,7,,,,,,,,,11,,,,70,100
5400,note_on,60,0,6,,,,,,,,,10,,,,74,0
5400,note_on,0,0,6,,,,,,,,,10,,,,72,100
5400,set_tempo,120,1,0,,,,,,382166,,,,,,,,
5403,note_on,60,0,7,,,,,,,,,11,,,,70,0
5403,note_on,0,0,7,,,,,,,,,11,,,,69,100
5460,note_on,60,0,6,,,,,,,,,10,,,,72,0
5460,note_on,0,0,6,,,,,,,,,10,,,,69,100
5463,note_on,0,0,1,,,,,,,,,0,,,,81,121
5463,note_on,180,0,1,,,,,,,,,0,,,,79,0
5463,note_on,0,0,7,,,,,,,,,11,,,,65,100
5463,note_on,60,0,7,,,,,,,,,11,,,,69,0
5465,note_on,180,0,2,,,,,,,,,1,,,,67,0
5465,note_on,0,0,2,,,,,,,,,1,,,,69,120
5466,note_on,0,0,8,,,,,,,,,12,,,,65,98
5466,note_on,180,0,8,,,,,,,,,12,,,,64,0
5472,note_on,0,0,3,,,,,,,,,3,,,,65,81
5472,note_on,180,0,3,,,,,,,,,3,,,,64,0
5510,note_on,50,0,6,,,,,,,,,10,,,,69,0
5513,note_on,50,0,1,,,,,,,,,0,,,,81,0
5513,note_on,50,0,7,,,,,,,,,11,,,,65,0
5515,note_on,50,0,2,,,,,,,,,1,,,,69,0
5516,note_on,50,0,8,,,,,,,,,12,,,,65,0
5520,set_tempo,120,1,0,,,,,,360360,,,,,,,,
5520,note_on,10,0,6,,,,,,,,,10,,,,67,100
5522,note_on,50,0,3,,,,,,,,,3,,,,65,0
5523,note_on,10,0,7,,,,,,,,,11,,,,64,100
5523,note_on,10,0,1,,,,,,,,,0,,,,82,121
5525,note_on,10,0,2,,,,,,,,,1,,,,70,120
5526,note_on,10,0,8,,,,,,,,,12,,,,60,98
5532,note_on,10,0,3,,,,,,,,,3,,,,60,81
5583,note_on,60,0,1,,,,,,,,,0,,,,82,0
5583,note_on,0,0,1,,,,,,,,,0,,,,86,121
5585,note_on,60,0,2,,,,,,,,,1,,,,70,0
5585,note_on,0,0,2,,,,,,,,,1,,,,74,120
5640,set_tempo,120,1,0,,,,,,382166,,,,,,,,
5643,note_on,0,0,1,,,,,,,,,0,,,,82,121
5643,note_on,60,0,1,,,,,,,,,0,,,,86,0
5645,note_on,60,0,2,,,,,,,,,1,,,,74,0
5645,note_on,0,0,2,,,,,,,,,1,,,,70,120
5700,note_on,0,0,6,,,,,,,,,10,,,,69,100
5700,note_on,180,0,6,,,,,,,,,10,,,,67,0
5703,note_on,180,0,7,,,,,,,,,11,,,,64,0
5703,note_on,0,0,1,,,,,,,,,0,,,,81,121
5703,note_on,60,0,1,,,,,,,,,0,,,,82,0
5703,note_on,0,0,7,,,,,,,,,11,,,,65,100
5705,note_on,60,0,2,,,,,,,,,1,,,,70,0
5705,note_on,0,0,2,,,,,,,,,1,,,,69,120
5750,note_on,50,0,6,,,,,,,,,10,,,,69,0
5753,note_on,50,0,1,,,,,,,,,0,,,,81,0
5753,note_on,50,0,7,,,,,,,,,11,,,,65,0
5755,note_on,50,0,2,,,,,,,,,1,,,,69,0
5756,note_on,230,0,8,,,,,,,,,12,,,,60,0
5760,note_on,10,0,6,,,,,,,,,10,,,,70,100
5760,set_tempo,120,1,0,,,,,,358209,,,,,,,,
5763,note_on,10,0,7,,,,,,,,,11,,,,67,100
5763,note_on,10,0,1,,,,,,,,,0,,,,79,121
5765,note_on,10,0,2,,,,,,,,,1,,,,67,120
5766,note_on,10,0,8,,,,,,,,,12,,,,64,98
5772,note_on,0,0,3,,,,,,,,,3,,,,64,81
5772,note_on,240,0,3,,,,,,,,,3,,,,60,0
5820,note_on,60,0,6,,,,,,,,,10,,,,70,0
5820,note_on,0,0,6,,,,,,,,,10,,,,74,100
5823,note_on,0,0,7,,,,,,,,,11,,,,70,100
5823,note_on,60,0,7,,,,,,,,,11,,,,67,0
5880,set_tempo,120,1,0,,,,,,382166,,,,,,,,
5880,note_on,60,0,6,,,,,,,,,10,,,,74,0
5880,note_on,0,0,6,,,,,,,,,10,,,,72,100
5883,note_on,60,0,7,,,,,,,,,11,,,,70,0
5883,note_on,0,0,7,,,,,,,,,11,,,,69,100
5940,note_on,0,0,6,,,,,,,,,10,,,,69,100
5940,note_on,60,0,6,,,,,,,,,10,,,,72,0
5943,note_on,180,0,1,,,,,,,,,0,,,,79,0
5943,note_on,0,0,1,,,,,,,,,0,,,,81,121
5943,note_on,60,0,7,,,,,,,,,11,,,,69,0
5943,note_on,0,0,7,,,,,,,,,11,,,,65,100
5945,note_on,180,0,2,,,,,,,,,1,,,,67,0
5945,note_on,0,0,2,,,,,,,,,1,,,,69,120
5946,note_on,0,0,8,,,,,,,,,12,,,,65,98
5946,note_on,180,0,8,,,,,,,,,12,,,,64,0
5952,note_on,0,0,3,,,,,,,,,3,,,,65,81
5952,note_on,180,0,3,,,,,,,,,3,,,,64,0
5990,note_on,50,0,6,,,,,,,,,10,,,,69,0
5993,note_on,50,0,1,,,,,,,,,0,,,,81,0
5993,note_on,50,0,7,,,,,,,,,11,,,,65,0
5995,note_on,50,0,2,,,,,,,,,1,,,,69,0
5996,note_on,50,0,8,,,,,,,,,12,,,,65,0
6000,note_on,10,0,6,,,,,,,,,10,,,,67,100
6000,set_tempo,120,1,0,,,,,,355030,,,,,,,,
6002,note_on,50,0,3,,,,,,,,,3,,,,65,0
6003,note_on,10,0,7,,,,,,,,,11,,,,64,100
6003,note_on,10,0,1,,,,,,,,,0,,,,82,121
6005,note_on,10,0,2,,,,,,,,,1,,,,70,120
6006,note_on,10,0,8,,,,,,,,,12,,,,60,98
6012,note_on,10,0,3,,,,,,,,,3,,,,67,81
6030,note_on,30,0,6,,,,,,,,,10,,,,67,0
6060,note_on,30,0,6,,,,,,,,,10,,,,69,100
6063,note_on,0,0,1,,,,,,,,,0,,,,81,121
6063,note_on,60,0,1,,,,,,,,,0,,,,82,0
6065,note_on,60,0,2,,,,,,,,,1,,,,70,0
6065,note_on,0,0,2,,,,,,,,,1,,,,69,120
6090,note_on,30,0,6,,,,,,,,,10,,,,69,0
6113,note_on,50,0,1,,,,,,,,,0,,,,81,0
6115,note_on,50,0,2,,,,,,,,,1,,,,69,0
6120,note_on,30,0,6,,,,,,,,,10,,,,70,100
6120,set_tempo,120,1,0,,,,,,382166,,,,,,,,
6123,note_on,10,0,1,,,,,,,,,0,,,,82,121
6125,note_on,10,0,2,,,,,,,,,1,,,,70,120
6150,note_on,30,0,6,,,,,,,,,10,,,,70,0
6159,note_on,36,0,1,,,,,,,,,0,,,,82,0
6161,note_on,36,0,2,,,,,,,,,1,,,,70,0
6180,note_on,30,0,6,,,,,,,,,10,,,,72,100
6183,note_on,24,0,1,,,,,,,,,0,,,,84,121
6185,note_on,24,0,2,,,,,,,,,1,,,,72,120
6210,note_on,30,0,6,,,,,,,,,10,,,,72,0
6219,note_on,36,0,1,,,,,,,,,0,,,,84,0
6221,note_on,36,0,2,,,,,,,,,1,,,,72,0
6238,note_on,235,0,7,,,,,,,,,11,,,,64,0
6240,set_tempo,120,1,0,,,,,,368098,,,,,,,,
6240,control_change,30,0,6,,,,,,,,,10,11,37,,,
6240,note_on,0,0,6,,,,,,,,,10,,,,69,100
6241,note_on,951,0,9,,,,,,,,,13,,,,48,0
6242,note_on,230,0,3,,,,,,,,,3,,,,48,0
6243,control_change,5,0,7,,,,,,,,,11,11,37,,,
6243,note_on,0,0,1,,,,,,,,,0,,,,81,105
6243,note_on,951,0,10,,,,,,,,,14,,,,36,0
6243,control_change,24,0,1,,,,,,,,,0,11,42,,,
6243,note_on,0,0,7,,,,,,,,,11,,,,65,100
6245,control_change,24,0,2,,,,,,,,,1,11,42,,,
6245,note_on,0,0,2,,,,,,,,,1,,,,65,104
6245,note_on,0,0,2,,,,,,,,,1,,,,69,104
6251,note_on,10,0,9,,,,,,,,,13,,,,53,89
6252,note_on,0,0,3,,,,,,,,,3,,,,53,81
6252,note_on,0,0,3,,,,,,,,,3,,,,65,81
6252,note_on,10,0,3,,,,,,,,,3,,,,67,0
6253,note_on,10,0,10,,,,,,,,,14,,,,41,73
6258,control_change,18,0,6,,,,,,,,,10,11,40,,,
6261,control_change,18,0,1,,,,,,,,,0,11,45,,,
6261,control_change,18,0,7,,,,,,,,,11,11,40,,,
6263,control_change,18,0,2,,,,,,,,,1,11,45,,,
6270,note_on,12,0,6,,,,,,,,,10,,,,69,0
6276,control_change,6,0,6,,,,,,,,,10,11,43,,,
6279,control_change,18,0,7,,,,,,,,,11,11,43,,,
6279,note_on,18,0,1,,,,,,,,,0,,,,81,0
6279,control_change,0,0,1,,,,,,,,,0,11,48,,,
6281,control_change,0,0,2,,,,,,,,,1,11,48,,,
6281,note_on,0,0,2,,,,,,,,,1,,,,65,0
6281,note_on,18,0,2,,,,,,,,,1,,,,69,0
6293,note_on,14,0,7,,,,,,,,,11,,,,65,0
6294,control_change,18,0,6,,,,,,,,,10,11,46,,,
6297,control_change,4,0,7,,,,,,,,,11,11,46,,,
6297,control_change,18,0,1,,,,,,,,,0,11,51,,,
6299,control_change,18,0,2,,,,,,,,,1,11,51,,,
6300,note_on,6,0,6,,,,,,,,,10,,,,70,100
6303,note_on,6,0,7,,,,,,,,,11,,,,67,100
6303,note_on,6,0,1,,,,,,,,,0,,,,82,105
6305,note_on,6,0,2,,,,,,,,,1,,,,70,104
6305,note_on,0,0,2,,,,,,,,,1,,,,67,104
6312,control_change,12,0,6,,,,,,,,,10,11,49,,,
6315,control_change,12,0,1,,,,,,,,,0,11,54,,,
6315,control_change,12,0,7,,,,,,,,,11,11,49,,,
6317,control_change,12,0,2,,,,,,,,,1,11,54,,,
6330,note_on,18,0,6,,,,,,,,,10,,,,70,0
6330,control_change,0,0,6,,,,,,,,,10,11,52,,,
6333,control_change,0,0,7,,,,,,,,,11,11,52,,,
6333,control_change,18,0,1,,,,,,,,,0,11,57,,,
6333,note_on,18,0,7,,,,,,,,,11,,,,67,0
6335,control_change,18,0,2,,,,,,,,,1,11,57,,,
6339,note_on,6,0,1,,,,,,,,,0,,,,82,0
6341,note_on,0,0,2,,,,,,,,,1,,,,70,0
6341,note_on,6,0,2,,,,,,,,,1,,,,67,0
6348,control_change,18,0,6,,,,,,,,,10,11,55,,,
6351,control_change,12,0,1,,,,,,,,,0,11,60,,,
6351,control_change,18,0,7,,,,,,,,,11,11,55,,,
6353,control_change,12,0,2,,,,,,,,,1,11,60,,,
6356,note_on,350,0,8,,,,,,,,,12,,,,60,0
6360,note_on,12,0,6,,,,,,,,,10,,,,72,100
6360,set_tempo,120,1,0,,,,,,382166,,,,,,,,
6363,note_on,12,0,1,,,,,,,,,0,,,,84,105
6363,note_on,12,0,7,,,,,,,,,11,,,,69,100
6365,note_on,0,0,2,,,,,,,,,1,,,,72,104
6365,note_on,12,0,2,,,,,,,,,1,,,,69,104
6366,control_change,6,0,6,,,,,,,,,10,11,58,,,
6369,control_change,6,0,1,,,,,,,,,0,11,62,,,
6369,control_change,6,0,7,,,,,,,,,11,11,58,,,
6371,note_on,120,0,9,,,,,,,,,13,,,,53,0
6371,control_change,6,0,2,,,,,,,,,1,11,62,,,
6372,note_on,0,0,3,,,,,,,,,3,,,,53,0
6372,note_on,120,0,3,,,,,,,,,3,,,,65,0
6373,note_on,120,0,10,,,,,,,,,14,,,,41,0
6384,control_change,18,0,6,,,,,,,,,10,11,61,,,
6387,control_change,18,0,1,,,,,,,,,0,11,64,,,
6387,control_change,18,0,7,,,,,,,,,11,11,61,,,
6389,control_change,18,0,2,,,,,,,,,1,11,64,,,
6390,note_on,6,0,6,,,,,,,,,10,,,,72,0
6393,note_on,6,0,7,,,,,,,,,11,,,,69,0
6399,note_on,12,0,1,,,,,,,,,0,,,,84,0
6401,note_on,12,0,2,,,,,,,,,1,,,,72,0
6401,note_on,0,0,2,,,,,,,,,1,,,,69,0
6402,control_change,12,0,6,,,,,,,,,10,11,63,,,
6405,control_change,12,0,7,,,,,,,,,11,11,63,,,
6405,control_change,6,0,1,,,,,,,,,0,11,66,,,
6407,control_change,6,0,2,,,,,,,,,1,11,66,,,
6420,control_change,18,0,6,,,,,,,,,10,11,65,,,
6420,note_on,0,0,6,,,,,,,,,10,,,,74,100
6423,control_change,18,0,7,,,,,,,,,11,11,65,,,
6423,control_change,18,0,1,,,,,,,,,0,11,68,,,
6423,note_on,0,0,1,,,,,,,,,0,,,,86,105
6423,note_on,0,0,7,,,,,,,,,11,,,,70,100
6425,note_on,0,0,2,,,,,,,,,1,,,,70,104
6425,control_change,18,0,2,,,,,,,,,1,11,68,,,
6425,note_on,0,0,2,,,,,,,,,1,,,,74,104
6438,control_change,18,0,6,,,,,,,,,10,11,67,,,
6441,control_change,18,0,1,,,,,,,,,0,11,71,,,
6441,control_change,18,0,7,,,,,,,,,11,11,67,,,
6443,control_change,18,0,2,,,,,,,,,1,11,71,,,
6450,note_on,12,0,6,,,,,,,,,10,,,,74,0
6453,note_on,12,0,7,,,,,,,,,11,,,,70,0
6456,control_change,6,0,6,,,,,,,,,10,11,69,,,
6459,control_change,6,0,7,,,,,,,,,11,11,69,,,
6459,control_change,0,0,1,,,,,,,,,0,11,73,,,
6459,note_on,18,0,1,,,,,,,,,0,,,,86,0
6461,note_on,18,0,2,,,,,,,,,1,,,,70,0
6461,control_change,0,0,2,,,,,,,,,1,11,73,,,
6461,note_on,0,0,2,,,,,,,,,1,,,,74,0
6474,control_change,18,0,6,,,,,,,,,10,11,71,,,
6477,control_change,18,0,7,,,,,,,,,11,11,71,,,
6477,control_change,18,0,1,,,,,,,,,0,11,75,,,
6479,control_change,18,0,2,,,,,,,,,1,11,75,,,
6480,note_on,6,0,6,,,,,,,,,10,,,,75,100
6480,set_tempo,120,1,0,,,,,,363636,,,,,,,,
6483,note_on,6,0,7,,,,,,,,,11,,,,72,100
6483,note_on,6,0,1,,,,,,,,,0,,,,87,82
6484,control_change,6450,0,4,,,,,,,,,4,11,72,,,
6484,note_on,0,0,4,,,,,,,,,4,,,,53,86
6485,note_on,0,0,2,,,,,,,,,1,,,,72,81
6485,note_on,6,0,2,,,,,,,,,1,,,,75,81
6486,note_on,0,0,5,,,,,,,,,5,,,,41,86
6486,note_on,0,0,8,,,,,,,,,12,,,,57,98
6486,control_change,130,0,8,,,,,,,,,12,11,72,,,
6486,control_change,6450,0,5,,,,,,,,,5,11,72,,,
6491,note_on,0,0,9,,,,,,,,,13,,,,53,89
6491,control_change,120,0,9,,,,,,,,,13,11,72,,,
6492,control_change,120,0,3,,,,,,,,,3,11,72,,,
6492,note_on,0,0,3,,,,,,,,,3,,,,57,81
6493,control_change,120,0,10,,,,,,,,,14,11,72,,,
6493,note_on,0,0,10,,,,,,,,,14,,,,41,73
6540,note_on,0,0,6,,,,,,,,,10,,,,79,100
6540,note_on,60,0,6,,,,,,,,,10,,,,75,0
6543,note_on,0,0,7,,,,,,,,,11,,,,75,100
6543,note_on,60,0,7,,,,,,,,,11,,,,72,0
6543,note_on,60,0,1,,,,,,,,,0,,,,87,0
6543,note_on,0,0,1,,,,,,,,,0,,,,91,82
6545,note_on,0,0,2,,,,,,,,,1,,,,79,81
6545,note_on,0,0,2,,,,,,,,,1,,,,75,0
6545,note_on,0,0,2,,,,,,,,,1,,,,75,81
6545,note_on,60,0,2,,,,,,,,,1,,,,72,0
6590,note_on,50,0,6,,,,,,,,,10,,,,79,0
6593,note_on,50,0,1,,,,,,,,,0,,,,91,0
6593,note_on,50,0,7,,,,,,,,,11,,,,75,0
6595,note_on,0,0,2,,,,,,,,,1,,,,75,0
6595,note_on,50,0,2,,,,,,,,,1,,,,79,0
6600,set_tempo,120,1,0,,,,,,382166,,,,,,,,
6600,note_on,10,0,6,,,,,,,,,10,,,,75,100
6603,note_on,10,0,1,,,,,,,,,0,,,,87,82
6603,note_on,10,0,7,,,,,,,,,11,,,,72,100
6605,note_on,0,0,2,,,,,,,,,1,,,,72,81
6605,note_on,10,0,2,,,,,,,,,1,,,,75,81
6630,note_on,30,0,6,,,,,,,,,10,,,,75,0
6633,note_on,30,0,7,,,,,,,,,11,,,,72,0
6639,note_on,36,0,1,,,,,,,,,0,,,,87,0
6641,note_on,36,0,2,,,,,,,,,1,,,,72,0
6641,note_on,0,0,2,,,,,,,,,1,,,,75,0
6660,note_on,30,0,6,,,,,,,,,10,,,,74,100
6663,note_on,24,0,1,,,,,,,,,0,,,,86,82
6663,note_on,30,0,7,,,,,,,,,11,,,,70,100
6665,note_on,24,0,2,,,,,,,,,1,,,,74,81
6665,note_on,0,0,2,,,,,,,,,1,,,,70,81
6666,note_on,0,0,8,,,,,,,,,12,,,,58,98
6666,note_on,180,0,8,,,,,,,,,12,,,,57,0
6672,note_on,0,0,3,,,,,,,,,3,,,,58,81
6672,note_on,180,0,3,,,,,,,,,3,,,,57,0
6690,note_on,30,0,6,,,,,,,,,10,,,,74,0
6693,note_on,30,0,7,,,,,,,,,11,,,,70,0
6699,note_on,36,0,1,,,,,,,,,0,,,,86,0
6701,note_on,0,0,2,,,,,,,,,1,,,,74,0
6701,note_on,36,0,2,,,,,,,,,1,,,,70,0
6716,note_on,50,0,8,,,,,,,,,12,,,,58,0
6720,note_on,30,0,6,,,,,,,,,10,,,,72,100
6720,set_tempo,120,1,0,,,,,,360360,,,,,,,,
6721,note_on,230,0,9,,,,,,,,,13,,,,53,0
6722,note_on,50,0,3,,,,,,,,,3,,,,58,0
6723,note_on,24,0,1,,,,,,,,,0,,,,84,82
6723,note_on,230,0,10,,,,,,,,,14,,,,41,0
6723,note_on,30,0,7,,,,,,,,,11,,,,69,100
6725,note_on,24,0,2,,,,,,,,,1,,,,69,81
6725,note_on,0,0,2,,,,,,,,,1,,,,72,81
6726,note_on,10,0,8,,,,,,,,,12,,,,65,98
6731,note_on,10,0,9,,,,,,,,,13,,,,53,89
6732,note_on,10,0,3,,,,,,,,,3,,,,65,81
6733,note_on,10,0,10,,,,,,,,,14,,,,41,73
6786,note_on,60,0,8,,,,,,,,,12,,,,65,0
6786,note_on,0,0,8,,,,,,,,,12,,,,64,98
6792,note_on,60,0,3,,,,,,,,,3,,,,65,0
6792,note_on,0,0,3,,,,,,,,,3,,,,64,81
6840,set_tempo,120,1,0,,,,,,382166,,,,,,,,
6846,note_on,0,0,8,,,,,,,,,12,,,,63,98
6846,note_on,60,0,8,,,,,,,,,12,,,,64,0
6852,note_on,0,0,3,,,,,,,,,3,,,,63,81
6852,note_on,60,0,3,,,,,,,,,3,,,,64,0
6900,note_on,180,0,6,,,,,,,,,10,,,,72,0
6900,note_on,0,0,6,,,,,,,,,10,,,,74,100
6903,note_on,0,0,7,,,,,,,,,11,,,,70,100
6903,note_on,180,0,7,,,,,,,,,11,,,,69,0
6903,note_on,180,0,1,,,,,,,,,0,,,,84,0
6903,note_on,0,0,1,,,,,,,,,0,,,,86,82
6905,note_on,0,0,2,,,,,,,,,1,,,,74,81
6905,note_on,0,0,2,,,,,,,,,1,,,,69,0
6905,note_on,180,0,2,,,,,,,,,1,,,,72,0
6905,note_on,0,0,2,,,,,,,,,1,,,,70,81
6906,note_on,0,0,8,,,,,,,,,12,,,,62,98
6906,note_on,60,0,8,,,,,,,,,12,,,,63,0
6912,note_on,60,0,3,,,,,,,,,3,,,,63,0
6912,note_on,0,0,3,,,,,,,,,3,,,,62,81
6950,note_on,50,0,6,,,,,,,,,10,,,,74,0
6953,note_on,50,0,1,,,,,,,,,0,,,,86,0
6953,note_on,50,0,7,,,,,,,,,11,,,,70,0
6955,note_on,50,0,2,,,,,,,,,1,,,,74,0
6955,note_on,0,0,2,,,,,,,,,1,,,,70,0
6956,note_on,50,0,8,,,,,,,,,12,,,,62,0
6960,set_tempo,120,1,0,,,,,,359281,,,,,,,,
6960,note_on,10,0,6,,,,,,,,,10,,,,75,100
6961,note_on,230,0,9,,,,,,,,,13,,,,53,0
6962,note_on,50,0,3,,,,,,,,,3,,,,62,0
6963,note_on,230,0,10,,,,,,,,,14,,,,41,0
6963,note_on,10,0,7,,,,,,,,,11,,,,72,100
6963,note_on,10,0,1,,,,,,,,,0,,,,87,82
6965,note_on,0,0,2,,,,,,,,,1,,,,75,81
6965,note_on,10,0,2,,,,,,,,,1,,,,72,81
6966,note_on,10,0,8,,,,,,,,,12,,,,57,98
6971,note_on,10,0,9,,,,,,,,,13,,,,53,89
6972,note_on,10,0,3,,,,,,,,,3,,,,57,81
6973,note_on,10,0,10,,,,,,,,,14,,,,41,73
7020,note_on,60,0,6,,,,,,,,,10,,,,75,0
7020,note_on,0,0,6,,,,,,,,,10,,,,79,100
7023,note_on,60,0,7,,,,,,,,,11,,,,72,0
7023,note_on,0,0,7,,,,,,,,,11,,,,75,100
7023,note_on,60,0,1,,,,,,,,,0,,,,87,0
7023,note_on,0,0,1,,,,,,,,,0,,,,91,82
7025,note_on,0,0,2,,,,,,,,,1,,,,72,0
7025,note_on,60,0,2,,,,,,,,,1,,,,75,0
7025,note_on,0,0,2,,,,,,,,,1,,,,75,81
7025,note_on,0,0,2,,,,,,,,,1,,,,79,81
7070,note_on,50,0,6,,,,,,,,,10,,,,79,0
7073,note_on,50,0,7,,,,,,,,,11,,,,75,0
7073,note_on,50,0,1,,,,,,,,,0,,,,91,0
7075,note_on,50,0,2,,,,,,,,,1,,,,79,0
7075,note_on,0,0,2,,,,,,,,,1,,,,75,0
7080,note_on,10,0,6,,,,,,,,,10,,,,75,100
7080,set_tempo,120,1,0,,,,,,382166,,,,,,,,
7083,note_on,10,0,7,,,,,,,,,11,,,,72,100
7083,note_on,10,0,1,,,,,,,,,0,,,,87,82
7085,note_on,0,0,2,,,,,,,,,1,,,,75,81
7085,note_on,10,0,2,,,,,,,,,1,,,,72,81
7110,note_on,30,0,6,,,,,,,,,10,,,,75,0
7113,note_on,30,0,7,,,,,,,,,11,,,,72,0
7119,note_on,36,0,1,,,,,,,,,0,,,,87,0
7121,note_on,36,0,2,,,,,,,,,1,,,,75,0
7121,note_on,0,0,2,,,,,,,,,1,,,,72,0
7140,note_on,30,0,6,,,,,,,,,10,,,,74,100
7143,note_on,30,0,7,,,,,,,,,11,,,,70,100
7143,note_on,24,0,1,,,,,,,,,0,,,,86,82
7145,note_on,24,0,2,,,,,,,,,1,,,,70,81
7145,note_on,0,0,2,,,,,,,,,1,,,,74,81
7146,note_on,0,0,8,,,,,,,,,12,,,,58,98
7146,note_on,180,0,8,,,,,,,,,12,,,,57,0
7152,note_on,0,0,3,,,,,,,,,3,,,,58,81
7152,note_on,180,0,3,,,,,,,,,3,,,,57,0
7170,note_on,30,0,6,,,,,,,,,10,,,,74,0
7173,note_on,30,0,7,,,,,,,,,11,,,,70,0
7179,note_on,36,0,1,,,,,,,,,0,,,,86,0
7181,note_on,0,0,2,,,,,,,,,1,,,,70,0
7181,note_on,36,0,2,,,,,,,,,1,,,,74,0
7196,note_on,50,0,8,,,,,,,,,12,,,,58,0
7200,note_on,30,0,6,,,,,,,,,10,,,,72,100
7200,set_tempo,120,1,0,,,,,,357143,,,,,,,,
7201,note_on,230,0,9,,,,,,,,,13,,,,53,0
7202,note_on,50,0,3,,,,,,,,,3,,,,58,0
7203,note_on,30,0,7,,,,,,,,,11,,,,69,100
7203,note_on,24,0,1,,,,,,,,,0,,,,84,82
7203,note_on,230,0,10,,,,,,,,,14,,,,41,0
7205,note_on,24,0,2,,,,,,,,,1,,,,69,81
7205,note_on,0,0,2,,,,,,,,,1,,,,72,81
7206,note_on,10,0,8,,,,,,,,,12,,,,65,98
7211,note_on,10,0,9,,,,,,,,,13,,,,53,89
7212,note_on,10,0,3,,,,,,,,,3,,,,65,81
7213,note_on,10,0,10,,,,,,,,,14,,,,41,73
7266,note_on,60,0,8,,,,,,,,,12,,,,65,0
7266,note_on,0,0,8,,,,,,,,,12,,,,64,98
7272,note_on,60,0,3,,,,,,,,,3,,,,65,0
7272,note_on,0,0,3,,,,,,,,,3,,,,64,81
7320,set_tempo,120,1,0,,,,,,382166,,,,,,,,
7326,note_on,0,0,8,,,,,,,,,12,,,,63,98
7326,note_on,60,0,8,,,,,,,,,12,,,,64,0
7332,note_on,60,0,3,,,,,,,,,3,,,,64,0
7332,note_on,0,0,3,,,,,,,,,3,,,,63,81
7380,note_on,0,0,6,,,,,,,,,10,,,,74,100
7380,note_on,180,0,6,,,,,,,,,10,,,,72,0
7383,note_on,180,0,7,,,,,,,,,11,,,,69,0
7383,note_on,180,0,1,,,,,,,,,0,,,,84,0
7383,note_on,0,0,1,,,,,,,,,0,,,,86,82
7383,note_on,0,0,7,,,,,,,,,11,,,,70,100
7385,note_on,180,0,2,,,,,,,,,1,,,,72,0
7385,note_on,0,0,2,,,,,,,,,1,,,,70,81
7385,note_on,0,0,2,,,,,,,,,1,,,,74,81
7385,note_on,0,0,2,,,,,,,,,1,,,,69,0
7386,note_on,60,0,8,,,,,,,,,12,,,,63,0
7386,note_on,0,0,8,,,,,,,,,12,,,,62,98
7392,note_on,60,0,3,,,,,,,,,3,,,,63,0
7392,note_on,0,0,3,,,,,,,,,3,,,,62,81
7430,note_on,50,0,6,,,,,,,,,10,,,,74,0
7433,note_on,50,0,1,,,,,,,,,0,,,,86,0
7433,note_on,50,0,7,,,,,,,,,11,,,,70,0
7435,note_on,50,0,2,,,,,,,,,1,,,,70,0
7435,note_on,0,0,2,,,,,,,,,1,,,,74,0
7436,note_on,50,0,8,,,,,,,,,12,,,,62,0
7440,note_on,10,0,6,,,,,,,,,10,,,,75,100
7440,set_tempo,120,1,0,,,,,,355030,,,,,,,,
7441,note_on,230,0,9,,,,,,,,,13,,,,53,0
7442,note_on,50,0,3,,,,,,,,,3,,,,62,0
7443,note_on,10,0,7,,,,,,,,,11,,,,72,100
7443,note_on,10,0,1,,,,,,,,,0,,,,87,82
7443,note_on,230,0,10,,,,,,,,,14,,,,41,0
7444,note_on,0,0,4,,,,,,,,,4,,,,53,86
7444,note_on,960,0,4,,,,,,,,,4,,,,53,0
7445,note_on,0,0,2,,,,,,,,,1,,,,75,81
7445,note_on,10,0,2,,,,,,,,,1,,,,72,81
7446,note_on,10,0,8,,,,,,,,,12,,,,53,98
7446,note_on,0,0,5,,,,,,,,,5,,,,41,86
7446,note_on,960,0,5,,,,,,,,,5,,,,41,0
7451,note_on,10,0,9,,,,,,,,,13,,,,53,89
7452,note_on,10,0,3,,,,,,,,,3,,,,53,81
7453,note_on,10,0,10,,,,,,,,,14,,,,41,73
7460,note_on,20,0,6,,,,,,,,,10,,,,75,0
7463,note_on,20,0,7,,,,,,,,,11,,,,72,0
7470,note_on,10,0,6,,,,,,,,,10,,,,75,92
7473,note_on,10,0,7,,,,,,,,,11,,,,72,92
7490,note_on,20,0,6,,,,,,,,,10,,,,75,0
7493,note_on,20,0,7,,,,,,,,,11,,,,72,0
7493,note_on,50,0,1,,,,,,,,,0,,,,87,0
7495,note_on,0,0,2,,,,,,,,,1,,,,72,0
7495,note_on,50,0,2,,,,,,,,,1,,,,75,0
7496,note_on,50,0,8,,,,,,,,,12,,,,53,0
7500,note_on,10,0,6,,,,,,,,,10,,,,74,100
7501,note_on,50,0,9,,,,,,,,,13,,,,53,0
7502,note_on,50,0,3,,,,,,,,,3,,,,53,0
7503,note_on,10,0,7,,,,,,,,,11,,,,71,100
7503,note_on,10,0,1,,,,,,,,,0,,,,86,82
7503,note_on,50,0,10,,,,,,,,,14,,,,41,0
7504,note_on,60,0,4,,,,,,,,,4,,,,53,0
7504,note_on,0,0,4,,,,,,,,,4,,,,53,86
7505,note_on,10,0,2,,,,,,,,,1,,,,71,81
7505,note_on,0,0,2,,,,,,,,,1,,,,74,81
7506,note_on,60,0,5,,,,,,,,,5,,,,41,0
7506,note_on,10,0,8,,,,,,,,,12,,,,65,98
7506,note_on,0,0,5,,,,,,,,,5,,,,41,86
7511,note_on,10,0,9,,,,,,,,,13,,,,53,89
7512,note_on,10,0,3,,,,,,,,,3,,,,53,81
7513,note_on,10,0,10,,,,,,,,,14,,,,41,73
7520,note_on,20,0,6,,,,,,,,,10,,,,74,0
7523,note_on,20,0,7,,,,,,,,,11,,,,71,0
7530,note_on,10,0,6,,,,,,,,,10,,,,74,92
7533,note_on,10,0,7,,,,,,,,,11,,,,71,92
7550,note_on,20,0,6,,,,,,,,,10,,,,74,0
7553,note_on,50,0,1,,,,,,,,,0,,,,86,0
7553,note_on,20,0,7,,,,,,,,,11,,,,71,0
7555,note_on,50,0,2,,,,,,,,,1,,,,74,0
7555,note_on,0,0,2,,,,,,,,,1,,,,71,0
7556,note_on,50,0,8,,,,,,,,,12,,,,65,0
7560,set_tempo,120,1,0,,,,,,382166,,,,,,,,
7560,note_on,10,0,6,,,,,,,,,10,,,,75,100
7561,note_on,50,0,9,,,,,,,,,13,,,,53,0
7562,note_on,50,0,3,,,,,,,,,3,,,,53,0
7563,note_on,10,0,7,,,,,,,,,11,,,,72,100
7563,note_on,50,0,10,,,,,,,,,14,,,,41,0
7563,note_on,10,0,1,,,,,,,,,0,,,,87,82
7564,note_on,60,0,4,,,,,,,,,4,,,,53,0
7564,note_on,0,0,4,,,,,,,,,4,,,,53,86
7565,note_on,10,0,2,,,,,,,,,1,,,,72,81
7565,note_on,0,0,2,,,,,,,,,1,,,,75,81
7566,note_on,0,0,5,,,,,,,,,5,,,,41,86
7566,note_on,60,0,5,,,,,,,,,5,,,,41,0
7566,note_on,10,0,8,,,,,,,,,12,,,,65,98
7571,note_on,10,0,9,,,,,,,,,13,,,,53,89
7572,note_on,10,0,3,,,,,,,,,3,,,,53,81
7573,note_on,10,0,10,,,,,,,,,14,,,,41,73
7580,note_on,20,0,6,,,,,,,,,10,,,,75,0
7583,note_on,20,0,7,,,,,,,,,11,,,,72,0
7590,note_on,10,0,6,,,,,,,,,10,,,,75,92
7593,note_on,10,0,7,,,,,,,,,11,,,,72,92
7610,note_on,20,0,6,,,,,,,,,10,,,,75,0
7613,note_on,50,0,1,,,,,,,,,0,,,,87,0
7613,note_on,20,0,7,,,,,,,,,11,,,,72,0
7615,note_on,0,0,2,,,,,,,,,1,,,,72,0
7615,note_on,50,0,2,,,,,,,,,1,,,,75,0
7616,note_on,50,0,8,,,,,,,,,12,,,,65,0
7620,note_on,10,0,6,,,,,,,,,10,,,,74,100
7621,note_on,50,0,9,,,,,,,,,13,,,,53,0
7622,note_on,50,0,3,,,,,,,,,3,,,,53,0
7623,note_on,10,0,7,,,,,,,,,11,,,,71,100
7623,note_on,10,0,1,,,,,,,,,0,,,,86,82
7623,note_on,50,0,10,,,,,,,,,14,,,,41,0
7624,note_on,0,0,4,,,,,,,,,4,,,,53,86
7624,note_on,60,0,4,,,,,,,,,4,,,,53,0
7625,note_on,10,0,2,,,,,,,,,1,,,,74,81
7625,note_on,0,0,2,,,,,,,,,1,,,,71,81
7626,note_on,60,0,5,,,,,,,,,5,,,,41,0
7626,note_on,0,0,5,,,,,,,,,5,,,,41,86
7626,note_on,10,0,8,,,,,,,,,12,,,,65,98
7631,note_on,10,0,9,,,,,,,,,13,,,,53,89
7632,note_on,10,0,3,,,,,,,,,3,,,,53,81
7633,note_on,10,0,10,,,,,,,,,14,,,,41,73
7640,note_on,20,0,6,,,,,,,,,10,,,,74,0
7643,note_on,20,0,7,,,,,,,,,11,,,,71,0
7650,note_on,10,0,6,,,,,,,,,10,,,,74,92
7653,note_on,10,0,7,,,,,,,,,11,,,,71,92
7670,note_on,20,0,6,,,,,,,,,10,,,,74,0
7673,note_on,50,0,1,,,,,,,,,0,,,,86,0
7673,note_on,20,0,7,,,,,,,,,11,,,,71,0
7675,note_on,0,0,2,,,,,,,,,1,,,,74,0
7675,note_on,50,0,2,,,,,,,,,1,,,,71,0
7676,note_on,50,0,8,,,,,,,,,12,,,,65,0
7680,set_tempo,120,1,0,,,,,,355030,,,,,,,,
7680,note_on,10,0,6,,,,,,,,,10,,,,75,100
7681,note_on,50,0,9,,,,,,,,,13,,,,53,0
7682,note_on,50,0,3,,,,,,,,,3,,,,53,0
7683,note_on,50,0,10,,,,,,,,,14,,,,41,0
7683,note_on,10,0,1,,,,,,,,,0,,,,87,82
7683,note_on,10,0,7,,,,,,,,,11,,,,72,100
7684,note_on,60,0,4,,,,,,,,,4,,,,53,0
7684,note_on,0,0,4,,,,,,,,,4,,,,53,86
7685,note_on,0,0,2,,,,,,,,,1,,,,75,81
7685,note_on,10,0,2,,,,,,,,,1,,,,72,81
7686,note_on,0,0,5,,,,,,,,,5,,,,41,86
7686,note_on,60,0,5,,,,,,,,,5,,,,41,0
7686,note_on,10,0,8,,,,,,,,,12,,,,65,98
7691,note_on,10,0,9,,,,,,,,,13,,,,53,89
7692,note_on,10,0,3,,,,,,,,,3,,,,53,81
7693,note_on,10,0,10,,,,,,,,,14,,,,41,73
7700,note_on,20,0,6,,,,,,,,,10,,,,75,0
7703,note_on,20,0,7,,,,,,,,,11,,,,72,0
7710,note_on,10,0,6,,,,,,,,,10,,,,75,92
7713,note_on,10,0,7,,,,,,,,,11,,,,72,92
7730,note_on,20,0,6,,,,,,,,,10,,,,75,0
7733,note_on,20,0,7,,,,,,,,,11,,,,72,0
7733,note_on,50,0,1,,,,,,,,,0,,,,87,0
7735,note_on,0,0,2,,,,,,,,,1,,,,72,0
7735,note_on,50,0,2,,,,,,,,,1,,,,75,0
7736,note_on,50,0,8,,,,,,,,,12,,,,65,0
7740,note_on,10,0,6,,,,,,,,,10,,,,74,100
7741,note_on,50,0,9,,,,,,,,,13,,,,53,0
7742,note_on,50,0,3,,,,,,,,,3,,,,53,0
7743,note_on,10,0,1,,,,,,,,,0,,,,86,82
7743,note_on,10,0,7,,,,,,,,,11,,,,71,100
7743,note_on,50,0,10,,,,,,,,,14,,,,41,0
7744,note_on,0,0,4,,,,,,,,,4,,,,53,86
7744,note_on,60,0,4,,,,,,,,,4,,,,53,0
7745,note_on,0,0,2,,,,,,,,,1,,,,71,81
7745,note_on,10,0,2,,,,,,,,,1,,,,74,81
7746,note_on,60,0,5,,,,,,,,,5,,,,41,0
7746,note_on,10,0,8,,,,,,,,,12,,,,65,98
7746,note_on,0,0,5,,,,,,,,,5,,,,41,86
7751,note_on,10,0,9,,,,,,,,,13,,,,53,89
7752,note_on,10,0,3,,,,,,,,,3,,,,53,81
7753,note_on,10,0,10,,,,,,,,,14,,,,41,73
7760,note_on,20,0,6,,,,,,,,,10,,,,74,0
7763,note_on,20,0,7,,,,,,,,,11,,,,71,0
7770,note_on,10,0,6,,,,,,,,,10,,,,74,92
7773,note_on,10,0,7,,,,,,,,,11,,,,71,92
7790,note_on,20,0,6,,,,,,,,,10,,,,74,0
7793,note_on,50,0,1,,,,,,,,,0,,,,86,0
7793,note_on,20,0,7,,,,,,,,,11,,,,71,0
7795,note_on,50,0,2,,,,,,,,,1,,,,71,0
7795,note_on,0,0,2,,,,,,,,,1,,,,74,0
7796,note_on,50,0,8,,,,,,,,,12,,,,65,0
7800,set_tempo,120,1,0,,,,,,382166,,,,,,,,
7800,note_on,10,0,6,,,,,,,,,10,,,,75,100
7801,note_on,50,0,9,,,,,,,,,13,,,,53,0
7802,note_on,50,0,3,,,,,,,,,3,,,,53,0
7803,note_on,10,0,1,,,,,,,,,0,,,,87,82
7803,note_on,50,0,10,,,,,,,,,14,,,,41,0
7803,note_on,10,0,7,,,,,,,,,11,,,,72,100
7804,note_on,0,0,4,,,,,,,,,4,,,,53,86
7804,note_on,60,0,4,,,,,,,,,4,,,,53,0
7805,note_on,0,0,2,,,,,,,,,1,,,,72,81
7805,note_on,10,0,2,,,,,,,,,1,,,,75,81
7806,note_on,10,0,8,,,,,,,,,12,,,,65,98
7806,note_on,0,0,5,,,,,,,,,5,,,,41,86
7806,note_on,60,0,5,,,,,,,,,5,,,,41,0
7811,note_on,10,0,9,,,,,,,,,13,,,,53,89
7812,note_on,10,0,3,,,,,,,,,3,,,,53,81
7813,note_on,10,0,10,,,,,,,,,14,,,,41,73
7820,note_on,20,0,6,,,,,,,,,10,,,,75,0
7823,note_on,20,0,7,,,,,,,,,11,,,,72,0
7830,note_on,10,0,6,,,,,,,,,10,,,,75,92
7833,note_on,10,0,7,,,,,,,,,11,,,,72,92
7850,note_on,20,0,6,,,,,,,,,10,,,,75,0
7853,note_on,20,0,7,,,,,,,,,11,,,,72,0
7853,note_on,50,0,1,,,,,,,,,0,,,,87,0
7855,note_on,0,0,2,,,,,,,,,1,,,,75,0
7855,note_on,50,0,2,,,,,,,,,1,,,,72,0
7856,note_on,50,0,8,,,,,,,,,12,,,,65,0
7860,note_on,10,0,6,,,,,,,,,10,,,,74,100
7861,note_on,50,0,9,,,,,,,,,13,,,,53,0
7862,note_on,50,0,3,,,,,,,,,3,,,,53,0
7863,note_on,10,0,1,,,,,,,,,0,,,,86,82
7863,note_on,10,0,7,,,,,,,,,11,,,,71,100
7863,note_on,50,0,10,,,,,,,,,14,,,,41,0
7864,note_on,60,0,4,,,,,,,,,4,,,,53,0
7864,note_on,0,0,4,,,,,,,,,4,,,,53,86
7865,note_on,0,0,2,,,,,,,,,1,,,,71,81
7865,note_on,10,0,2,,,,,,,,,1,,,,74,81
7866,note_on,0,0,5,,,,,,,,,5,,,,41,86
7866,note_on,60,0,5,,,,,,,,,5,,,,41,0
7866,note_on,10,0,8,,,,,,,,,12,,,,65,98
7871,note_on,10,0,9,,,,,,,,,13,,,,53,89
7872,note_on,10,0,3,,,,,,,,,3,,,,53,81
7873,note_on,10,0,10,,,,,,,,,14,,,,41,73
7880,note_on,20,0,6,,,,,,,,,10,,,,74,0
7883,note_on,20,0,7,,,,,,,,,11,,,,71,0
7890,note_on,10,0,6,,,,,,,,,10,,,,74,92
7893,note_on,10,0,7,,,,,,,,,11,,,,71,92
7910,note_on,20,0,6,,,,,,,,,10,,,,74,0
7913,note_on,50,0,1,,,,,,,,,0,,,,86,0
7913,note_on,20,0,7,,,,,,,,,11,,,,71,0
7915,note_on,50,0,2,,,,,,,,,1,,,,71,0
7915,note_on,0,0,2,,,,,,,,,1,,,,74,0
7916,note_on,50,0,8,,,,,,,,,12,,,,65,0
7920,set_tempo,120,1,0,,,,,,400000,,,,,,,,
7920,note_on,10,0,6,,,,,,,,,10,,,,75,100
7921,note_on,50,0,9,,,,,,,,,13,,,,53,0
7922,note_on,50,0,3,,,,,,,,,3,,,,53,0
7923,note_on,50,0,10,,,,,,,,,14,,,,41,0
7923,note_on,10,0,1,,,,,,,,,0,,,,87,82
7923,note_on,10,0,7,,,,,,,,,11,,,,72,100
7924,note_on,0,0,4,,,,,,,,,4,,,,53,86
7924,note_on,60,0,4,,,,,,,,,4,,,,53,0
7925,note_on,10,0,2,,,,,,,,,1,,,,72,81
7925,note_on,0,0,2,,,,,,,,,1,,,,75,81
7926,note_on,0,0,5,,,,,,,,,5,,,,41,86
7926,note_on,60,0,5,,,,,,,,,5,,,,41,0
7926,note_on,10,0,8,,,,,,,,,12,,,,65,98
7931,note_on,10,0,9,,,,,,,,,13,,,,53,89
7932,note_on,10,0,3,,,,,,,,,3,,,,53,81
7933,note_on,10,0,10,,,,,,,,,14,,,,41,73
7980,note_on,60,0,6,,,,,,,,,10,,,,75,0
7983,note_on,60,0,7,,,,,,,,,11,,,,72,0
7983,note_on,60,0,1,,,,,,,,,0,,,,87,0
7984,note_on,60,0,4,,,,,,,,,4,,,,53,0
7985,note_on,60,0,2,,,,,,,,,1,,,,75,0
7985,note_on,0,0,2,,,,,,,,,1,,,,72,0
7986,note_on,60,0,8,,,,,,,,,12,,,,65,0
7986,note_on,60,0,5,,,,,,,,,5,,,,41,0
7991,note_on,60,0,9,,,,,,,,,13,,,,53,0
7992,note_on,60,0,3,,,,,,,,,3,,,,53,0
7993,note_on,60,0,10,,,,,,,,,14,,,,41,0
8040,note_on,0,0,6,,,,,,,,,10,,,,75,100
8040,note_on,60,0,6,,,,,,,,,10,,,,84,100
8040,set_tempo,120,1,0,,,,,,461538,,,,,,,,
8043,note_on,0,0,7,,,,,,,,,11,,,,81,100
8043,note_on,0,0,7,,,,,,,,,11,,,,72,100
8043,note_on,60,0,1,,,,,,,,,0,,,,81,82
8043,note_on,60,0,7,,,,,,,,,11,,,,65,100
8044,note_on,60,0,4,,,,,,,,,4,,,,53,86
8045,note_on,60,0,2,,,,,,,,,1,,,,69,81
8045,note_on,0,0,2,,,,,,,,,1,,,,75,81
8046,note_on,60,0,5,,,,,,,,,5,,,,41,86
8046,note_on,60,0,8,,,,,,,,,12,,,,53,98
8051,note_on,60,0,9,,,,,,,,,13,,,,41,89
8052,note_on,60,0,3,,,,,,,,,3,,,,41,81
8053,note_on,60,0,10,,,,,,,,,14,,,,29,73
8100,note_on,60,0,6,,,,,,,,,10,,,,75,0
8100,note_on,0,0,6,,,,,,,,,10,,,,84,0
8103,note_on,0,0,7,,,,,,,,,11,,,,81,0
8103,note_on,0,0,7,,,,,,,,,11,,,,65,0
8103,note_on,60,0,7,,,,,,,,,11,,,,72,0
8103,note_on,60,0,1,,,,,,,,,0,,,,81,0
8104,note_on,60,0,4,,,,,,,,,4,,,,53,0
8105,note_on,0,0,2,,,,,,,,,1,,,,69,0
8105,note_on,60,0,2,,,,,,,,,1,,,,75,0
8106,note_on,60,0,5,,,,,,,,,5,,,,41,0
8106,note_on,60,0,8,,,,,,,,,12,,,,53,0
8111,note_on,60,0,9,,,,,,,,,13,,,,41,0
8112,note_on,60,0,3,,,,,,,,,3,,,,41,0
8113,note_on,60,0,10,,,,,,,,,14,,,,29,0
8280,set_tempo,240,1,0,,,,,,382166,,,,,,,,
8340,set_tempo,60,1,0,,,,,,409556,,,,,,,,
8340,note_on,0,0,6,,,,,,,,,10,,,,77,73
8340,control_change,240,0,6,,,,,,,,,10,11,37,,,
8343,note_on,0,0,7,,,,,,,,,11,,,,65,92
8343,control_change,240,0,7,,,,,,,,,11,11,37,,,
8358,control_change,18,0,6,,,,,,,,,10,11,40,,,
8361,control_change,18,0,7,,,,,,,,,11,11,40,,,
8376,control_change,18,0,6,,,,,,,,,10,11,43,,,
8379,control_change,18,0,7,,,,,,,,,11,11,43,,,
8390,note_on,14,0,6,,,,,,,,,10,,,,77,0
8393,note_on,14,0,7,,,,,,,,,11,,,,65,0
8394,control_change,4,0,6,,,,,,,,,10,11,46,,,
8397,control_change,4,0,7,,,,,,,,,11,11,46,,,
8400,set_tempo,60,1,0,,,,,,372671,,,,,,,,
8400,note_on,6,0,6,,,,,,,,,10,,,,77,80
8403,note_on,6,0,7,,,,,,,,,11,,,,65,100
8405,note_on,0,0,2,,,,,,,,,1,,,,77,81
8405,note_on,0,0,2,,,,,,,,,1,,,,65,81
8405,control_change,300,0,2,,,,,,,,,1,11,47,,,
8406,note_on,0,0,8,,,,,,,,,12,,,,62,83
8406,control_change,300,0,8,,,,,,,,,12,11,47,,,
8411,control_change,300,0,9,,,,,,,,,13,11,47,,,
8411,note_on,0,0,9,,,,,,,,,13,,,,50,74
8412,control_change,300,0,3,,,,,,,,,3,11,47,,,
8412,note_on,0,0,3,,,,,,,,,3,,,,50,81
8412,note_on,0,0,3,,,,,,,,,3,,,,58,81
8413,control_change,300,0,10,,,,,,,,,14,11,47,,,
8413,note_on,0,0,10,,,,,,,,,14,,,,38,59
8460,note_on,60,0,6,,,,,,,,,10,,,,77,0
8460,note_on,0,0,6,,,,,,,,,10,,,,79,80
8463,note_on,0,0,7,,,,,,,,,11,,,,67,100
8463,note_on,60,0,7,,,,,,,,,11,,,,65,0
8510,note_on,50,0,6,,,,,,,,,10,,,,79,0
8513,note_on,50,0,7,,,,,,,,,11,,,,67,0
8520,set_tempo,120,1,0,,,,,,382166,,,,,,,,
8520,note_on,10,0,6,,,,,,,,,10,,,,81,80
8523,note_on,10,0,7,,,,,,,,,11,,,,69,100
8526,note_on,120,0,8,,,,,,,,,12,,,,62,0
8531,note_on,120,0,9,,,,,,,,,13,,,,50,0
8532,note_on,0,0,3,,,,,,,,,3,,,,50,0
8532,note_on,120,0,3,,,,,,,,,3,,,,58,0
8533,note_on,120,0,10,,,,,,,,,14,,,,38,0
8550,note_on,30,0,6,,,,,,,,,10,,,,81,0
8553,note_on,30,0,7,,,,,,,,,11,,,,69,0
8580,note_on,30,0,6,,,,,,,,,10,,,,82,80
8583,note_on,30,0,7,,,,,,,,,11,,,,70,100
8610,note_on,30,0,6,,,,,,,,,10,,,,82,0
8613,note_on,30,0,7,,,,,,,,,11,,,,70,0
8640,note_on,30,0,6,,,,,,,,,10,,,,82,80
8640,set_tempo,120,1,0,,,,,,355030,,,,,,,,
8643,note_on,30,0,7,,,,,,,,,11,,,,70,100
8646,note_on,120,0,8,,,,,,,,,12,,,,63,83
8651,note_on,120,0,9,,,,,,,,,13,,,,51,74
8652,note_on,0,0,3,,,,,,,,,3,,,,60,81
8652,note_on,120,0,3,,,,,,,,,3,,,,51,81
8653,note_on,120,0,10,,,,,,,,,14,,,,39,59
8700,note_on,60,0,6,,,,,,,,,10,,,,82,0
8700,note_on,0,0,6,,,,,,,,,10,,,,81,80
8703,note_on,0,0,7,,,,,,,,,11,,,,69,100
8703,note_on,60,0,7,,,,,,,,,11,,,,70,0
8750,note_on,50,0,6,,,,,,,,,10,,,,81,0
8753,note_on,50,0,7,,,,,,,,,11,,,,69,0
8760,note_on,10,0,6,,,,,,,,,10,,,,79,80
8760,set_tempo,120,1,0,,,,,,382166,,,,,,,,
8763,note_on,10,0,7,,,,,,,,,11,,,,67,100
8766,note_on,120,0,8,,,,,,,,,12,,,,63,0
8771,note_on,120,0,9,,,,,,,,,13,,,,51,0
8772,note_on,120,0,3,,,,,,,,,3,,,,60,0
8772,note_on,0,0,3,,,,,,,,,3,,,,51,0
8773,note_on,120,0,10,,,,,,,,,14,,,,39,0
8790,note_on,30,0,6,,,,,,,,,10,,,,79,0
8793,note_on,30,0,7,,,,,,,,,11,,,,67,0
8820,note_on,30,0,6,,,,,,,,,10,,,,77,80
8823,note_on,30,0,7,,,,,,,,,11,,,,65,100
8850,note_on,30,0,6,,,,,,,,,10,,,,77,0
8853,note_on,30,0,7,,,,,,,,,11,,,,65,0
8880,control_change,30,0,6,,,,,,,,,10,11,47,,,
8880,note_on,0,0,6,,,,,,,,,10,,,,82,80
8880,set_tempo,120,1,0,,,,,,355030,,,,,,,,
8883,note_on,0,0,7,,,,,,,,,11,,,,70,100
8883,control_change,780,0,1,,,,,,,,,0,11,47,,,
8883,note_on,0,0,1,,,,,,,,,0,,,,82,82
8883,control_change,30,0,7,,,,,,,,,11,11,47,,,
8885,control_change,0,0,2,,,,,,,,,1,11,47,,,
8885,note_on,0,0,2,,,,,,,,,1,,,,65,0
8885,note_on,0,0,2,,,,,,,,,1,,,,70,81
8885,note_on,480,0,2,,,,,,,,,1,,,,77,0
8885,note_on,0,0,2,,,,,,,,,1,,,,65,81
8886,note_on,0,0,8,,,,,,,,,12,,,,62,83
8886,control_change,120,0,8,,,,,,,,,12,11,47,,,
8891,control_change,120,0,9,,,,,,,,,13,11,47,,,
8891,note_on,0,0,9,,,,,,,,,13,,,,50,74
8892,note_on,0,0,3,,,,,,,,,3,,,,58,81
8892,note_on,0,0,3,,,,,,,,,3,,,,50,81
8892,control_change,120,0,3,,,,,,,,,3,11,47,,,
8893,control_change,120,0,10,,,,,,,,,14,11,47,,,
8893,note_on,0,0,10,,,,,,,,,14,,,,38,59
8903,control_change,23,0,6,,,,,,,,,10,11,49,,,
8906,control_change,23,0,7,,,,,,,,,11,11,49,,,
8906,control_change,23,0,1,,,,,,,,,0,11,49,,,
8908,control_change,23,0,2,,,,,,,,,1,11,49,,,
8909,control_change,23,0,8,,,,,,,,,12,11,49,,,
8914,control_change,23,0,9,,,,,,,,,13,11,49,,,
8915,control_change,23,0,3,,,,,,,,,3,11,49,,,
8916,control_change,23,0,10,,,,,,,,,14,11,49,,,
8927,control_change,24,0,6,,,,,,,,,10,11,51,,,
8930,control_change,24,0,1,,,,,,,,,0,11,51,,,
8930,control_change,24,0,7,,,,,,,,,11,11,51,,,
8930,note_on,3,0,6,,,,,,,,,10,,,,82,0
8932,control_change,24,0,2,,,,,,,,,1,11,51,,,
8933,control_change,24,0,8,,,,,,,,,12,11,51,,,
8933,note_on,3,0,7,,,,,,,,,11,,,,70,0
8938,control_change,24,0,9,,,,,,,,,13,11,51,,,
8939,control_change,24,0,3,,,,,,,,,3,11,51,,,
8940,control_change,24,0,10,,,,,,,,,14,11,51,,,
8940,note_on,10,0,6,,,,,,,,,10,,,,82,80
8943,note_on,13,0,1,,,,,,,,,0,,,,82,0
8943,note_on,10,0,7,,,,,,,,,11,,,,70,100
8945,note_on,13,0,2,,,,,,,,,1,,,,65,0
8945,note_on,0,0,2,,,,,,,,,1,,,,70,0
8946,note_on,13,0,8,,,,,,,,,12,,,,62,0
8951,note_on,13,0,9,,,,,,,,,13,,,,50,0
8951,control_change,11,0,6,,,,,,,,,10,11,53,,,
8952,note_on,13,0,3,,,,,,,,,3,,,,58,0
8952,note_on,0,0,3,,,,,,,,,3,,,,50,0
8953,note_on,13,0,10,,,,,,,,,14,,,,38,0
8954,control_change,11,0,1,,,,,,,,,0,11,53,,,
8954,control_change,11,0,7,,,,,,,,,11,11,53,,,
8956,control_change,11,0,2,,,,,,,,,1,11,53,,,
8957,control_change,11,0,8,,,,,,,,,12,11,53,,,
8962,control_change,11,0,9,,,,,,,,,13,11,53,,,
8963,control_change,11,0,3,,,,,,,,,3,11,53,,,
8964,control_change,11,0,10,,,,,,,,,14,11,53,,,
8975,control_change,24,0,6,,,,,,,,,10,11,55,,,
8978,control_change,24,0,1,,,,,,,,,0,11,55,,,
8978,control_change,24,0,7,,,,,,,,,11,11,55,,,
8980,control_change,24,0,2,,,,,,,,,1,11,55,,,
8981,control_change,24,0,8,,,,,,,,,12,11,55,,,
8986,control_change,24,0,9,,,,,,,,,13,11,55,,,
8987,control_change,24,0,3,,,,,,,,,3,11,55,,,
8988,control_change,24,0,10,,,,,,,,,14,11,55,,,
8990,note_on,15,0,6,,,,,,,,,10,,,,82,0
8993,note_on,15,0,7,,,,,,,,,11,,,,70,0
8999,control_change,9,0,6,,,,,,,,,10,11,57,,,
9000,note_on,1,0,6,,,,,,,,,10,,,,86,80
9000,set_tempo,120,1,0,,,,,,382166,,,,,,,,
9002,control_change,9,0,7,,,,,,,,,11,11,57,,,
9002,control_change,24,0,1,,,,,,,,,0,11,57,,,
9003,note_on,1,0,7,,,,,,,,,11,,,,74,100
9003,note_on,1,0,1,,,,,,,,,0,,,,84,82
9004,control_change,24,0,2,,,,,,,,,1,11,57,,,
9005,note_on,0,0,2,,,,,,,,,1,,,,69,81
9005,control_change,24,0,8,,,,,,,,,12,11,57,,,
9005,note_on,1,0,2,,,,,,,,,1,,,,72,81
9006,note_on,1,0,8,,,,,,,,,12,,,,69,83
9010,control_change,24,0,9,,,,,,,,,13,11,57,,,
9011,control_change,24,0,3,,,,,,,,,3,11,57,,,
9011,note_on,1,0,9,,,,,,,,,13,,,,53,74
9012,note_on,1,0,3,,,,,,,,,3,,,,53,81
9012,note_on,0,0,3,,,,,,,,,3,,,,60,81
9012,control_change,24,0,10,,,,,,,,,14,11,57,,,
9013,note_on,1,0,10,,,,,,,,,14,,,,41,59
9023,control_change,23,0,6,,,,,,,,,10,11,59,,,
9026,control_change,23,0,7,,,,,,,,,11,11,59,,,
9026,control_change,23,0,1,,,,,,,,,0,11,59,,,
9028,control_change,23,0,2,,,,,,,,,1,11,59,,,
9029,control_change,23,0,8,,,,,,,,,12,11,59,,,
9030,note_on,7,0,6,,,,,,,,,10,,,,86,0
9030,note_on,0,0,6,,,,,,,,,10,,,,84,80
9033,note_on,0,0,7,,,,,,,,,11,,,,72,100
9033,note_on,7,0,7,,,,,,,,,11,,,,74,0
9034,control_change,23,0,9,,,,,,,,,13,11,59,,,
9035,control_change,23,0,3,,,,,,,,,3,11,59,,,
9036,control_change,23,0,10,,,,,,,,,14,11,59,,,
9047,control_change,17,0,6,,,,,,,,,10,11,61,,,
9050,note_on,3,0,6,,,,,,,,,10,,,,84,0
9050,control_change,17,0,7,,,,,,,,,11,11,61,,,
9050,control_change,24,0,1,,,,,,,,,0,11,61,,,
9052,control_change,24,0,2,,,,,,,,,1,11,61,,,
9053,control_change,24,0,8,,,,,,,,,12,11,61,,,
9053,note_on,3,0,7,,,,,,,,,11,,,,72,0
9058,control_change,24,0,9,,,,,,,,,13,11,61,,,
9059,control_change,24,0,3,,,,,,,,,3,11,61,,,
9060,control_change,24,0,10,,,,,,,,,14,11,61,,,
9060,note_on,10,0,6,,,,,,,,,10,,,,82,80
9063,note_on,10,0,7,,,,,,,,,11,,,,70,100
9063,note_on,13,0,1,,,,,,,,,0,,,,84,0
9065,note_on,13,0,2,,,,,,,,,1,,,,69,0
9065,note_on,0,0,2,,,,,,,,,1,,,,72,0
9066,note_on,13,0,8,,,,,,,,,12,,,,69,0
9071,note_on,13,0,9,,,,,,,,,13,,,,53,0
9071,control_change,11,0,6,,,,,,,,,10,11,62,,,
9072,note_on,0,0,3,,,,,,,,,3,,,,53,0
9072,note_on,13,0,3,,,,,,,,,3,,,,60,0
9073,note_on,13,0,10,,,,,,,,,14,,,,41,0
9074,control_change,11,0,7,,,,,,,,,11,11,62,,,
9074,control_change,11,0,1,,,,,,,,,0,11,62,,,
9076,control_change,11,0,2,,,,,,,,,1,11,62,,,
9077,control_change,11,0,8,,,,,,,,,12,11,62,,,
9080,note_on,9,0,6,,,,,,,,,10,,,,82,0
9082,control_change,11,0,9,,,,,,,,,13,11,62,,,
9083,control_change,11,0,3,,,,,,,,,3,11,62,,,
9083,note_on,9,0,7,,,,,,,,,11,,,,70,0
9084,control_change,11,0,10,,,,,,,,,14,11,62,,,
9090,note_on,10,0,6,,,,,,,,,10,,,,84,80
9093,note_on,10,0,7,,,,,,,,,11,,,,72,100
9095,control_change,5,0,6,,,,,,,,,10,11,64,,,
9098,control_change,24,0,1,,,,,,,,,0,11,64,,,
9098,control_change,5,0,7,,,,,,,,,11,11,64,,,
9100,control_change,24,0,2,,,,,,,,,1,11,64,,,
9101,control_change,24,0,8,,,,,,,,,12,11,64,,,
9106,control_change,24,0,9,,,,,,,,,13,11,64,,,
9107,control_change,24,0,3,,,,,,,,,3,11,64,,,
9108,control_change,24,0,10,,,,,,,,,14,11,64,,,
9110,note_on,15,0,6,,,,,,,,,10,,,,84,0
9113,note_on,15,0,7,,,,,,,,,11,,,,72,0
9119,control_change,9,0,6,,,,,,,,,10,11,65,,,
9120,set_tempo,120,1,0,,,,,,355030,,,,,,,,
9120,note_on,1,0,6,,,,,,,,,10,,,,86,80
9122,control_change,9,0,7,,,,,,,,,11,11,65,,,
9122,control_change,24,0,1,,,,,,,,,0,11,65,,,
9123,note_on,1,0,7,,,,,,,,,11,,,,74,100
9123,note_on,1,0,1,,,,,,,,,0,,,,86,82
9124,control_change,24,0,2,,,,,,,,,1,11,65,,,
9125,control_change,24,0,8,,,,,,,,,12,11,65,,,
9125,note_on,0,0,2,,,,,,,,,1,,,,70,81
9125,note_on,1,0,2,,,,,,,,,1,,,,74,81
9126,note_on,1,0,8,,,,,,,,,12,,,,70,83
9130,control_change,24,0,9,,,,,,,,,13,11,65,,,
9131,control_change,24,0,3,,,,,,,,,3,11,65,,,
9131,note_on,1,0,9,,,,,,,,,13,,,,58,74
9132,note_on,1,0,3,,,,,,,,,3,,,,58,81
9132,note_on,0,0,3,,,,,,,,,3,,,,62,81
9132,control_change,24,0,10,,,,,,,,,14,11,65,,,
9133,note_on,1,0,10,,,,,,,,,14,,,,46,59
9143,control_change,23,0,6,,,,,,,,,10,11,66,,,
9146,control_change,23,0,1,,,,,,,,,0,11,66,,,
9146,control_change,23,0,7,,,,,,,,,11,11,66,,,
9148,control_change,23,0,2,,,,,,,,,1,11,66,,,
9149,control_change,23,0,8,,,,,,,,,12,11,66,,,
9154,control_change,23,0,9,,,,,,,,,13,11,66,,,
9155,control_change,23,0,3,,,,,,,,,3,11,66,,,
9156,control_change,23,0,10,,,,,,,,,14,11,66,,,
9167,control_change,24,0,6,,,,,,,,,10,11,68,,,
9170,control_change,24,0,1,,,,,,,,,0,11,68,,,
9170,note_on,3,0,6,,,,,,,,,10,,,,86,0
9170,control_change,24,0,7,,,,,,,,,11,11,68,,,
9172,control_change,24,0,2,,,,,,,,,1,11,68,,,
9173,control_change,24,0,8,,,,,,,,,12,11,68,,,
9173,note_on,3,0,7,,,,,,,,,11,,,,74,0
9178,control_change,24,0,9,,,,,,,,,13,11,68,,,
9179,control_change,24,0,3,,,,,,,,,3,11,68,,,
9180,control_change,24,0,10,,,,,,,,,14,11,68,,,
9180,note_on,10,0,6,,,,,,,,,10,,,,86,80
9183,note_on,13,0,1,,,,,,,,,0,,,,86,0
9183,note_on,10,0,7,,,,,,,,,11,,,,74,100
9185,note_on,0,0,2,,,,,,,,,1,,,,74,0
9185,note_on,13,0,2,,,,,,,,,1,,,,70,0
9186,note_on,13,0,8,,,,,,,,,12,,,,70,0
9191,note_on,13,0,9,,,,,,,,,13,,,,58,0
9191,control_change,11,0,6,,,,,,,,,10,11,69,,,
9192,note_on,13,0,3,,,,,,,,,3,,,,62,0
9192,note_on,0,0,3,,,,,,,,,3,,,,58,0
9193,note_on,13,0,10,,,,,,,,,14,,,,46,0
9194,control_change,11,0,1,,,,,,,,,0,11,69,,,
9194,control_change,11,0,7,,,,,,,,,11,11,69,,,
9196,control_change,11,0,2,,,,,,,,,1,11,69,,,
9197,control_change,11,0,8,,,,,,,,,12,11,69,,,
9202,control_change,11,0,9,,,,,,,,,13,11,69,,,
9203,control_change,11,0,3,,,,,,,,,3,11,69,,,
9204,control_change,11,0,10,,,,,,,,,14,11,69,,,
9215,control_change,24,0,6,,,,,,,,,10,11,71,,,
9218,control_change,24,0,7,,,,,,,,,11,11,71,,,
9218,control_change,24,0,1,,,,,,,,,0,11,71,,,
9220,control_change,24,0,2,,,,,,,,,1,11,71,,,
9221,control_change,24,0,8,,,,,,,,,12,11,71,,,
9226,control_change,24,0,9,,,,,,,,,13,11,71,,,
9227,control_change,24,0,3,,,,,,,,,3,11,71,,,
9228,control_change,24,0,10,,,,,,,,,14,11,71,,,
9230,note_on,15,0,6,,,,,,,,,10,,,,86,0
9233,note_on,15,0,7,,,,,,,,,11,,,,74,0
9239,control_change,9,0,6,,,,,,,,,10,11,72,,,
9240,note_on,1,0,6,,,,,,,,,10,,,,89,80
9240,set_tempo,120,1,0,,,,,,382166,,,,,,,,
9242,control_change,24,0,1,,,,,,,,,0,11,72,,,
9242,control_change,9,0,7,,,,,,,,,11,11,72,,,
9243,note_on,1,0,1,,,,,,,,,0,,,,87,82
9243,note_on,1,0,7,,,,,,,,,11,,,,77,100
9244,control_change,24,0,2,,,,,,,,,1,11,72,,,
9245,note_on,0,0,2,,,,,,,,,1,,,,75,81
9245,control_change,24,0,8,,,,,,,,,12,11,72,,,
9245,note_on,1,0,2,,,,,,,,,1,,,,72,81
9246,note_on,1,0,8,,,,,,,,,12,,,,72,83
9250,control_change,24,0,9,,,,,,,,,13,11,72,,,
9251,control_change,24,0,3,,,,,,,,,3,11,72,,,
9252,note_on,1,0,3,,,,,,,,,3,,,,60,81
9252,note_on,0,0,3,,,,,,,,,3,,,,63,81
9252,control_change,24,0,10,,,,,,,,,14,11,72,,,
9263,control_change,23,0,6,,,,,,,,,10,11,73,,,
9266,control_change,23,0,7,,,,,,,,,11,11,73,,,
9266,control_change,23,0,1,,,,,,,,,0,11,73,,,
9268,control_change,23,0,2,,,,,,,,,1,11,73,,,
9269,control_change,23,0,8,,,,,,,,,12,11,73,,,
9270,note_on,7,0,6,,,,,,,,,10,,,,89,0
9270,note_on,0,0,6,,,,,,,,,10,,,,87,80
9273,note_on,0,0,7,,,,,,,,,11,,,,75,100
9273,note_on,7,0,7,,,,,,,,,11,,,,77,0
9274,control_change,24,0,9,,,,,,,,,13,11,73,,,
9275,control_change,23,0,3,,,,,,,,,3,11,73,,,
9276,control_change,24,0,10,,,,,,,,,14,11,73,,,
9287,control_change,17,0,6,,,,,,,,,10,11,75,,,
9290,control_change,17,0,7,,,,,,,,,11,11,75,,,
9290,control_change,24,0,1,,,,,,,,,0,11,75,,,
9290,note_on,3,0,6,,,,,,,,,10,,,,87,0
9292,control_change,24,0,2,,,,,,,,,1,11,75,,,
9293,note_on,3,0,7,,,,,,,,,11,,,,75,0
9293,control_change,24,0,8,,,,,,,,,12,11,75,,,
9298,control_change,24,0,9,,,,,,,,,13,11,75,,,
9299,control_change,24,0,3,,,,,,,,,3,11,75,,,
9300,control_change,24,0,10,,,,,,,,,14,11,75,,,
9300,note_on,10,0,6,,,,,,,,,10,,,,86,80
9303,note_on,13,0,1,,,,,,,,,0,,,,87,0
9303,note_on,10,0,7,,,,,,,,,11,,,,74,100
9305,note_on,0,0,2,,,,,,,,,1,,,,72,0
9305,note_on,13,0,2,,,,,,,,,1,,,,75,0
9306,note_on,13,0,8,,,,,,,,,12,,,,72,0
9311,note_on,13,0,9,,,,,,,,,13,,,,53,89
9311,control_change,11,0,6,,,,,,,,,10,11,76,,,
9312,note_on,13,0,3,,,,,,,,,3,,,,63,0
9312,note_on,0,0,3,,,,,,,,,3,,,,60,0
9313,note_on,13,0,10,,,,,,,,,14,,,,41,73
9314,control_change,11,0,7,,,,,,,,,11,11,76,,,
9314,control_change,11,0,1,,,,,,,,,0,11,76,,,
9316,control_change,11,0,2,,,,,,,,,1,11,76,,,
9317,control_change,11,0,8,,,,,,,,,12,11,76,,,
9320,note_on,9,0,6,,,,,,,,,10,,,,86,0
9322,control_change,11,0,9,,,,,,,,,13,11,76,,,
9323,control_change,11,0,3,,,,,,,,,3,11,76,,,
9323,note_on,9,0,7,,,,,,,,,11,,,,74,0
9324,control_change,11,0,10,,,,,,,,,14,11,76,,,
9330,note_on,10,0,6,,,,,,,,,10,,,,87,80
9333,note_on,10,0,7,,,,,,,,,11,,,,75,100
9335,control_change,5,0,6,,,,,,,,,10,11,77,,,
9338,control_change,24,0,1,,,,,,,,,0,11,77,,,
9338,control_change,5,0,7,,,,,,,,,11,11,77,,,
9340,control_change,24,0,2,,,,,,,,,1,11,77,,,
9341,control_change,24,0,8,,,,,,,,,12,11,77,,,
9346,control_change,24,0,9,,,,,,,,,13,11,77,,,
9347,control_change,24,0,3,,,,,,,,,3,11,77,,,
9348,control_change,24,0,10,,,,,,,,,14,11,77,,,
9350,note_on,15,0,6,,,,,,,,,10,,,,87,0
9353,note_on,15,0,7,,,,,,,,,11,,,,75,0
9359,control_change,9,0,6,,,,,,,,,10,11,79,,,
9360,set_tempo,120,1,0,,,,,,355030,,,,,,,,
9360,note_on,1,0,6,,,,,,,,,10,,,,89,100
9362,control_change,24,0,1,,,,,,,,,0,11,79,,,
9362,control_change,9,0,7,,,,,,,,,11,11,79,,,
9363,note_on,1,0,7,,,,,,,,,11,,,,74,100
9363,note_on,0,0,7,,,,,,,,,11,,,,77,100
9363,note_on,1,0,1,,,,,,,,,0,,,,89,82
9364,control_change,24,0,2,,,,,,,,,1,11,79,,,
9364,note_on,1260,0,4,,,,,,,,,4,,,,62,86
9365,control_change,24,0,8,,,,,,,,,12,11,79,,,
9365,note_on,0,0,2,,,,,,,,,1,,,,77,81
9365,note_on,1,0,2,,,,,,,,,1,,,,74,81
9366,note_on,1,0,8,,,,,,,,,12,,,,65,98
9366,note_on,1260,0,5,,,,,,,,,5,,,,58,86
9370,control_change,24,0,9,,,,,,,,,13,11,79,,,
9371,note_on,1,0,9,,,,,,,,,13,,,,53,0
9371,note_on,0,0,9,,,,,,,,,13,,,,53,89
9371,control_change,24,0,3,,,,,,,,,3,11,79,,,
9372,control_change,24,0,10,,,,,,,,,14,11,79,,,
9372,note_on,1,0,3,,,,,,,,,3,,,,65,81
9372,note_on,0,0,3,,,,,,,,,3,,,,62,81
9373,note_on,0,0,10,,,,,,,,,14,,,,41,73
9373,note_on,1,0,10,,,,,,,,,14,,,,41,0
9380,note_on,20,0,6,,,,,,,,,10,,,,89,0
9383,note_on,20,0,7,,,,,,,,,11,,,,77,0
9383,note_on,0,0,7,,,,,,,,,11,,,,74,0
9390,note_on,10,0,6,,,,,,,,,10,,,,89,92
9393,note_on,0,0,7,,,,,,,,,11,,,,77,92
9393,note_on,10,0,7,,,,,,,,,11,,,,74,92
9410,note_on,20,0,6,,,,,,,,,10,,,,89,0
9413,note_on,20,0,7,,,,,,,,,11,,,,77,0
9413,note_on,0,0,7,,,,,,,,,11,,,,74,0
9420,note_on,10,0,6,,,,,,,,,10,,,,89,100
9423,note_on,0,0,7,,,,,,,,,11,,,,77,100
9423,note_on,10,0,7,,,,,,,,,11,,,,74,100
9426,note_on,60,0,8,,,,,,,,,12,,,,65,0
9426,note_on,0,0,8,,,,,,,,,12,,,,67,98
9431,note_on,0,0,9,,,,,,,,,13,,,,55,89
9431,note_on,60,0,9,,,,,,,,,13,,,,53,0
9433,note_on,0,0,10,,,,,,,,,14,,,,43,73
9433,note_on,60,0,10,,,,,,,,,14,,,,41,0
9440,note_on,20,0,6,,,,,,,,,10,,,,89,0
9443,note_on,20,0,7,,,,,,,,,11,,,,77,0
9443,note_on,0,0,7,,,,,,,,,11,,,,74,0
9450,note_on,10,0,6,,,,,,,,,10,,,,89,92
9453,note_on,10,0,7,,,,,,,,,11,,,,77,92
9453,note_on,0,0,7,,,,,,,,,11,,,,74,92
9470,note_on,20,0,6,,,,,,,,,10,,,,89,0
9473,note_on,20,0,7,,,,,,,,,11,,,,74,0
9473,note_on,0,0,7,,,,,,,,,11,,,,77,0
9476,note_on,50,0,8,,,,,,,,,12,,,,67,0
9480,note_on,10,0,6,,,,,,,,,10,,,,89,100
9480,set_tempo,120,1,0,,,,,,382166,,,,,,,,
9481,note_on,50,0,9,,,,,,,,,13,,,,55,0
9483,note_on,0,0,7,,,,,,,,,11,,,,74,100
9483,note_on,50,0,10,,,,,,,,,14,,,,43,0
9483,note_on,10,0,7,,,,,,,,,11,,,,77,100
9486,note_on,10,0,8,,,,,,,,,12,,,,69,98
9491,note_on,10,0,9,,,,,,,,,13,,,,57,89
9493,note_on,10,0,10,,,,,,,,,14,,,,45,73
9500,note_on,20,0,6,,,,,,,,,10,,,,89,0
9503,note_on,0,0,7,,,,,,,,,11,,,,77,0
9503,note_on,20,0,7,,,,,,,,,11,,,,74,0
9510,note_on,10,0,6,,,,,,,,,10,,,,89,92
9513,note_on,10,0,7,,,,,,,,,11,,,,74,92
9513,note_on,0,0,7,,,,,,,,,11,,,,77,92
9516,note_on,30,0,8,,,,,,,,,12,,,,69,0
9521,note_on,30,0,9,,,,,,,,,13,,,,57,0
9523,note_on,30,0,10,,,,,,,,,14,,,,45,0
9530,note_on,20,0,6,,,,,,,,,10,,,,89,0
9533,note_on,20,0,7,,,,,,,,,11,,,,77,0
9533,note_on,0,0,7,,,,,,,,,11,,,,74,0
9540,note_on,10,0,6,,,,,,,,,10,,,,89,100
9543,note_on,10,0,7,,,,,,,,,11,,,,77,100
9543,note_on,0,0,7,,,,,,,,,11,,,,74,100
9546,note_on,30,0,8,,,,,,,,,12,,,,70,98
9551,note_on,30,0,9,,,,,,,,,13,,,,58,89
9553,note_on,30,0,10,,,,,,,,,14,,,,46,73
9560,note_on,20,0,6,,,,,,,,,10,,,,89,0
9563,note_on,20,0,7,,,,,,,,,11,,,,74,0
9563,note_on,0,0,7,,,,,,,,,11,,,,77,0
9570,note_on,10,0,6,,,,,,,,,10,,,,89,92
9573,note_on,0,0,7,,,,,,,,,11,,,,77,92
9573,note_on,10,0,7,,,,,,,,,11,,,,74,92
9576,note_on,30,0,8,,,,,,,,,12,,,,70,0
9581,note_on,30,0,9,,,,,,,,,13,,,,58,0
9583,note_on,30,0,10,,,,,,,,,14,,,,46,0
9590,note_on,20,0,6,,,,,,,,,10,,,,89,0
9593,note_on,20,0,7,,,,,,,,,11,,,,77,0
9593,note_on,0,0,7,,,,,,,,,11,,,,74,0
9600,note_on,10,0,6,,,,,,,,,10,,,,89,100
9600,set_tempo,120,1,0,,,,,,355030,,,,,,,,
9603,note_on,0,0,7,,,,,,,,,11,,,,75,100
9603,note_on,10,0,7,,,,,,,,,11,,,,77,100
9604,note_on,240,0,4,,,,,,,,,4,,,,62,0
9604,note_on,0,0,4,,,,,,,,,4,,,,63,86
9605,note_on,0,0,2,,,,,,,,,1,,,,75,81
9605,note_on,240,0,2,,,,,,,,,1,,,,74,0
9606,note_on,240,0,5,,,,,,,,,5,,,,58,0
9606,note_on,30,0,8,,,,,,,,,12,,,,70,98
9606,note_on,0,0,5,,,,,,,,,5,,,,60,86
9611,note_on,30,0,9,,,,,,,,,13,,,,58,89
9612,note_on,0,0,3,,,,,,,,,3,,,,63,81
9612,note_on,240,0,3,,,,,,,,,3,,,,62,0
9613,note_on,30,0,10,,,,,,,,,14,,,,46,73
9620,note_on,20,0,6,,,,,,,,,10,,,,89,0
9623,note_on,0,0,7,,,,,,,,,11,,,,77,0
9623,note_on,20,0,7,,,,,,,,,11,,,,75,0
9630,note_on,10,0,6,,,,,,,,,10,,,,89,92
9633,note_on,0,0,7,,,,,,,,,11,,,,75,92
9633,note_on,10,0,7,,,,,,,,,11,,,,77,92
9650,note_on,20,0,6,,,,,,,,,10,,,,89,0
9653,note_on,0,0,7,,,,,,,,,11,,,,77,0
9653,note_on,20,0,7,,,,,,,,,11,,,,75,0
9660,note_on,10,0,6,,,,,,,,,10,,,,89,100
9663,note_on,10,0,7,,,,,,,,,11,,,,77,100
9663,note_on,0,0,7,,,,,,,,,11,,,,75,100
9666,note_on,0,0,8,,,,,,,,,12,,,,69,98
9666,note_on,60,0,8,,,,,,,,,12,,,,70,0
9671,note_on,60,0,9,,,,,,,,,13,,,,58,0
9671,note_on,0,0,9,,,,,,,,,13,,,,57,89
9673,note_on,60,0,10,,,,,,,,,14,,,,46,0
9673,note_on,0,0,10,,,,,,,,,14,,,,45,73
9680,note_on,20,0,6,,,,,,,,,10,,,,89,0
9683,note_on,0,0,7,,,,,,,,,11,,,,77,0
9683,note_on,20,0,7,,,,,,,,,11,,,,75,0
9690,note_on,10,0,6,,,,,,,,,10,,,,89,92
9693,note_on,0,0,7,,,,,,,,,11,,,,75,92
9693,note_on,10,0,7,,,,,,,,,11,,,,77,92
9710,note_on,20,0,6,,,,,,,,,10,,,,89,0
9713,note_on,0,0,7,,,,,,,,,11,,,,77,0
9713,note_on,20,0,7,,,,,,,,,11,,,,75,0
9716,note_on,50,0,8,,,,,,,,,12,,,,69,0
9720,note_on,10,0,6,,,,,,,,,10,,,,89,100
9720,set_tempo,120,1,0,,,,,,382166,,,,,,,,
9721,note_on,50,0,9,,,,,,,,,13,,,,57,0
9723,note_on,50,0,10,,,,,,,,,14,,,,45,0
9723,note_on,0,0,7,,,,,,,,,11,,,,77,100
9723,note_on,10,0,7,,,,,,,,,11,,,,75,100
9726,note_on,10,0,8,,,,,,,,,12,,,,67,98
9731,note_on,10,0,9,,,,,,,,,13,,,,55,89
9733,note_on,10,0,10,,,,,,,,,14,,,,43,73
9740,note_on,20,0,6,,,,,,,,,10,,,,89,0
9743,note_on,20,0,7,,,,,,,,,11,,,,77,0
9743,note_on,0,0,7,,,,,,,,,11,,,,75,0
9750,note_on,10,0,6,,,,,,,,,10,,,,89,92
9753,note_on,0,0,7,,,,,,,,,11,,,,75,92
9753,note_on,10,0,7,,,,,,,,,11,,,,77,92
9756,note_on,30,0,8,,,,,,,,,12,,,,67,0
9761,note_on,30,0,9,,,,,,,,,13,,,,55,0
9763,note_on,30,0,10,,,,,,,,,14,,,,43,0
9770,note_on,20,0,6,,,,,,,,,10,,,,89,0
9773,note_on,0,0,7,,,,,,,,,11,,,,77,0
9773,note_on,20,0,7,,,,,,,,,11,,,,75,0
9780,note_on,10,0,6,,,,,,,,,10,,,,89,100
9783,note_on,10,0,7,,,,,,,,,11,,,,75,100
9783,note_on,0,0,7,,,,,,,,,11,,,,77,100
9786,note_on,30,0,8,,,,,,,,,12,,,,65,98
9791,note_on,30,0,9,,,,,,,,,13,,,,53,89
9793,note_on,30,0,10,,,,,,,,,14,,,,41,73
9800,note_on,20,0,6,,,,,,,,,10,,,,89,0
9803,note_on,0,0,7,,,,,,,,,11,,,,75,0
9803,note_on,20,0,7,,,,,,,,,11,,,,77,0
9810,note_on,10,0,6,,,,,,,,,10,,,,89,92
9813,note_on,10,0,7,,,,,,,,,11,,,,75,92
9813,note_on,0,0,7,,,,,,,,,11,,,,77,92
9816,note_on,30,0,8,,,,,,,,,12,,,,65,0
9821,note_on,30,0,9,,,,,,,,,13,,,,53,0
9823,note_on,30,0,10,,,,,,,,,14,,,,41,0
9830,note_on,20,0,6,,,,,,,,,10,,,,89,0
9833,note_on,0,0,7,,,,,,,,,11,,,,75,0
9833,note_on,20,0,7,,,,,,,,,11,,,,77,0
9840,set_tempo,120,1,0,,,,,,355030,,,,,,,,
9840,note_on,10,0,6,,,,,,,,,10,,,,89,100
9843,note_on,10,0,7,,,,,,,,,11,,,,74,100
9843,note_on,0,0,7,,,,,,,,,11,,,,77,100
9844,note_on,240,0,4,,,,,,,,,4,,,,63,0
9844,note_on,0,0,4,,,,,,,,,4,,,,62,86
9845,note_on,0,0,2,,,,,,,,,1,,,,74,81
9845,note_on,240,0,2,,,,,,,,,1,,,,75,0
9845,note_on,0,0,2,,,,,,,,,1,,,,77,81
9845,note_on,0,0,2,,,,,,,,,1,,,,77,0
9846,note_on,0,0,5,,,,,,,,,5,,,,58,86
9846,note_on,240,0,5,,,,,,,,,5,,,,60,0
9846,note_on,30,0,8,,,,,,,,,12,,,,65,98
9851,note_on,30,0,9,,,,,,,,,13,,,,53,89
9852,note_on,240,0,3,,,,,,,,,3,,,,63,0
9852,note_on,0,0,3,,,,,,,,,3,,,,65,0
9852,note_on,0,0,3,,,,,,,,,3,,,,65,81
9852,note_on,0,0,3,,,,,,,,,3,,,,62,81
9853,note_on,30,0,10,,,,,,,,,14,,,,41,73
9860,note_on,20,0,6,,,,,,,,,10,,,,89,0
9863,note_on,20,0,7,,,,,,,,,11,,,,77,0
9863,note_on,0,0,7,,,,,,,,,11,,,,74,0
9870,note_on,10,0,6,,,,,,,,,10,,,,89,92
9873,note_on,0,0,7,,,,,,,,,11,,,,74,92
9873,note_on,10,0,7,,,,,,,,,11,,,,77,92
9890,note_on,20,0,6,,,,,,,,,10,,,,89,0
9893,note_on,20,0,7,,,,,,,,,11,,,,74,0
9893,note_on,0,0,7,,,,,,,,,11,,,,77,0
9900,note_on,10,0,6,,,,,,,,,10,,,,89,100
9903,note_on,0,0,7,,,,,,,,,11,,,,77,100
9903,note_on,10,0,7,,,,,,,,,11,,,,74,100
9906,note_on,0,0,8,,,,,,,,,12,,,,67,98
9906,note_on,60,0,8,,,,,,,,,12,,,,65,0
9911,note_on,0,0,9,,,,,,,,,13,,,,55,89
9911,note_on,60,0,9,,,,,,,,,13,,,,53,0
9913,note_on,60,0,10,,,,,,,,,14,,,,41,0
9913,note_on,0,0,10,,,,,,,,,14,,,,43,73
9920,note_on,20,0,6,,,,,,,,,10,,,,89,0
9923,note_on,0,0,7,,,,,,,,,11,,,,74,0
9923,note_on,20,0,7,,,,,,,,,11,,,,77,0
9930,note_on,10,0,6,,,,,,,,,10,,,,89,92
9933,note_on,0,0,7,,,,,,,,,11,,,,74,92
9933,note_on,10,0,7,,,,,,,,,11,,,,77,92
9950,note_on,20,0,6,,,,,,,,,10,,,,89,0
9953,note_on,0,0,7,,,,,,,,,11,,,,77,0
9953,note_on,20,0,7,,,,,,,,,11,,,,74,0
9956,note_on,50,0,8,,,,,,,,,12,,,,67,0
9960,note_on,10,0,6,,,,,,,,,10,,,,89,100
9960,set_tempo,120,1,0,,,,,,382166,,,,,,,,
9961,note_on,50,0,9,,,,,,,,,13,,,,55,0
9963,note_on,50,0,10,,,,,,,,,14,,,,43,0
9963,note_on,10,0,7,,,,,,,,,11,,,,74,100
9963,note_on,0,0,7,,,,,,,,,11,,,,77,100
9966,note_on,10,0,8,,,,,,,,,12,,,,69,98
9971,note_on,10,0,9,,,,,,,,,13,,,,57,89
9973,note_on,10,0,10,,,,,,,,,14,,,,45,73
9980,note_on,20,0,6,,,,,,,,,10,,,,89,0
9983,note_on,20,0,7,,,,,,,,,11,,,,77,0
9983,note_on,0,0,7,,,,,,,,,11,,,,74,0
9990,note_on,10,0,6,,,,,,,,,10,,,,89,92
9993,note_on,10,0,7,,,,,,,,,11,,,,77,92
9993,note_on,0,0,7,,,,,,,,,11,,,,74,92
9996,note_on,30,0,8,,,,,,,,,12,,,,69,0
10001,note_on,30,0,9,,,,,,,,,13,,,,57,0
10003,note_on,30,0,10,,,,,,,,,14,,,,45,0
10010,note_on,20,0,6,,,,,,,,,10,,,,89,0
10013,note_on,20,0,7,,,,,,,,,11,,,,74,0
10013,note_on,0,0,7,,,,,,,,,11,,,,77,0
10020,note_on,10,0,6,,,,,,,,,10,,,,89,100
10023,note_on,0,0,7,,,,,,,,,11,,,,77,100
10023,note_on,10,0,7,,,,,,,,,11,,,,74,100
10026,note_on,30,0,8,,,,,,,,,12,,,,70,98
10031,note_on,30,0,9,,,,,,,,,13,,,,58,89
10033,note_on,30,0,10,,,,,,,,,14,,,,46,73
10040,note_on,20,0,6,,,,,,,,,10,,,,89,0
10043,note_on,0,0,7,,,,,,,,,11,,,,74,0
10043,note_on,20,0,7,,,,,,,,,11,,,,77,0
10050,note_on,10,0,6,,,,,,,,,10,,,,89,92
10053,note_on,0,0,7,,,,,,,,,11,,,,74,92
10053,note_on,10,0,7,,,,,,,,,11,,,,77,92
10056,note_on,30,0,8,,,,,,,,,12,,,,70,0
10061,note_on,30,0,9,,,,,,,,,13,,,,58,0
10063,note_on,30,0,10,,,,,,,,,14,,,,46,0
10070,note_on,20,0,6,,,,,,,,,10,,,,89,0
10073,note_on,20,0,7,,,,,,,,,11,,,,74,0
10073,note_on,0,0,7,,,,,,,,,11,,,,77,0
10080,note_on,10,0,6,,,,,,,,,10,,,,89,100
10080,set_tempo,120,1,0,,,,,,355030,,,,,,,,
10083,note_on,0,0,7,,,,,,,,,11,,,,75,100
10083,note_on,10,0,7,,,,,,,,,11,,,,77,100
10084,note_on,240,0,4,,,,,,,,,4,,,,62,0
10084,note_on,0,0,4,,,,,,,,,4,,,,63,86
10085,note_on,0,0,2,,,,,,,,,1,,,,75,81
10085,note_on,240,0,2,,,,,,,,,1,,,,74,0
10086,note_on,0,0,5,,,,,,,,,5,,,,60,86
10086,note_on,240,0,5,,,,,,,,,5,,,,58,0
10086,note_on,30,0,8,,,,,,,,,12,,,,70,98
10091,note_on,30,0,9,,,,,,,,,13,,,,58,89
10092,note_on,240,0,3,,,,,,,,,3,,,,62,0
10092,note_on,0,0,3,,,,,,,,,3,,,,63,81
10093,note_on,30,0,10,,,,,,,,,14,,,,46,73
10100,note_on,20,0,6,,,,,,,,,10,,,,89,0
10103,note_on,20,0,7,,,,,,,,,11,,,,75,0
10103,note_on,0,0,7,,,,,,,,,11,,,,77,0
10110,note_on,10,0,6,,,,,,,,,10,,,,89,92
10113,note_on,0,0,7,,,,,,,,,11,,,,75,92
10113,note_on,10,0,7,,,,,,,,,11,,,,77,92
10130,note_on,20,0,6,,,,,,,,,10,,,,89,0
10133,note_on,0,0,7,,,,,,,,,11,,,,77,0
10133,note_on,20,0,7,,,,,,,,,11,,,,75,0
10140,note_on,10,0,6,,,,,,,,,10,,,,89,100
10143,note_on,0,0,7,,,,,,,,,11,,,,75,100
10143,note_on,10,0,7,,,,,,,,,11,,,,77,100
10146,note_on,0,0,8,,,,,,,,,12,,,,69,98
10146,note_on,60,0,8,,,,,,,,,12,,,,70,0
10151,note_on,0,0,9,,,,,,,,,13,,,,57,89
10151,note_on,60,0,9,,,,,,,,,13,,,,58,0
10153,note_on,0,0,10,,,,,,,,,14,,,,45,73
10153,note_on,60,0,10,,,,,,,,,14,,,,46,0
10160,note_on,20,0,6,,,,,,,,,10,,,,89,0
10163,note_on,20,0,7,,,,,,,,,11,,,,75,0
10163,note_on,0,0,7,,,,,,,,,11,,,,77,0
10170,note_on,10,0,6,,,,,,,,,10,,,,89,92
10173,note_on,0,0,7,,,,,,,,,11,,,,77,92
10173,note_on,10,0,7,,,,,,,,,11,,,,75,92
10190,note_on,20,0,6,,,,,,,,,10,,,,89,0
10193,note_on,20,0,7,,,,,,,,,11,,,,77,0
10193,note_on,0,0,7,,,,,,,,,11,,,,75,0
10196,note_on,50,0,8,,,,,,,,,12,,,,69,0
10200,set_tempo,120,1,0,,,,,,382166,,,,,,,,
10200,note_on,10,0,6,,,,,,,,,10,,,,89,100
10201,note_on,50,0,9,,,,,,,,,13,,,,57,0
10203,note_on,0,0,7,,,,,,,,,11,,,,77,100
10203,note_on,10,0,7,,,,,,,,,11,,,,75,100
10203,note_on,50,0,10,,,,,,,,,14,,,,45,0
10206,note_on,10,0,8,,,,,,,,,12,,,,67,98
10211,note_on,10,0,9,,,,,,,,,13,,,,55,89
10213,note_on,10,0,10,,,,,,,,,14,,,,43,73
10220,note_on,20,0,6,,,,,,,,,10,,,,89,0
10223,note_on,20,0,7,,,,,,,,,11,,,,77,0
10223,note_on,0,0,7,,,,,,,,,11,,,,75,0
10230,note_on,10,0,6,,,,,,,,,10,,,,89,92
10233,note_on,10,0,7,,,,,,,,,11,,,,75,92
10233,note_on,0,0,7,,,,,,,,,11,,,,77,92
10236,note_on,30,0,8,,,,,,,,,12,,,,67,0
10241,note_on,30,0,9,,,,,,,,,13,,,,55,0
10243,note_on,30,0,10,,,,,,,,,14,,,,43,0
10250,note_on,20,0,6,,,,,,,,,10,,,,89,0
10253,note_on,20,0,7,,,,,,,,,11,,,,77,0
10253,note_on,0,0,7,,,,,,,,,11,,,,75,0
10260,note_on,10,0,6,,,,,,,,,10,,,,89,100
10263,note_on,0,0,7,,,,,,,,,11,,,,75,100
10263,note_on,10,0,7,,,,,,,,,11,,,,77,100
10266,note_on,30,0,8,,,,,,,,,12,,,,65,98
10271,note_on,30,0,9,,,,,,,,,13,,,,53,89
10273,note_on,30,0,10,,,,,,,,,14,,,,41,73
10280,note_on,20,0,6,,,,,,,,,10,,,,89,0
10283,note_on,20,0,7,,,,,,,,,11,,,,75,0
10283,note_on,0,0,7,,,,,,,,,11,,,,77,0
10290,note_on,10,0,6,,,,,,,,,10,,,,89,92
10293,note_on,0,0,7,,,,,,,,,11,,,,77,92
10293,note_on,10,0,7,,,,,,,,,11,,,,75,92
10296,note_on,30,0,8,,,,,,,,,12,,,,65,0
10301,note_on,30,0,9,,,,,,,,,13,,,,53,0
10303,note_on,30,0,10,,,,,,,,,14,,,,41,0
10310,note_on,20,0,6,,,,,,,,,10,,,,89,0
10313,note_on,0,0,7,,,,,,,,,11,,,,75,0
10313,note_on,20,0,7,,,,,,,,,11,,,,77,0
10320,note_on,10,0,6,,,,,,,,,10,,,,77,100
10320,set_tempo,120,1,0,,,,,,355030,,,,,,,,
10323,note_on,0,0,1,,,,,,,,,0,,,,89,82
10323,note_on,10,0,7,,,,,,,,,11,,,,74,100
10323,note_on,960,0,1,,,,,,,,,0,,,,89,0
10324,note_on,240,0,4,,,,,,,,,4,,,,63,0
10324,note_on,0,0,4,,,,,,,,,4,,,,62,86
10325,note_on,0,0,2,,,,,,,,,1,,,,74,81
10325,note_on,0,0,2,,,,,,,,,1,,,,77,81
10325,note_on,0,0,2,,,,,,,,,1,,,,77,0
10325,note_on,240,0,2,,,,,,,,,1,,,,75,0
10326,note_on,240,0,5,,,,,,,,,5,,,,60,0
10326,note_on,30,0,8,,,,,,,,,12,,,,70,98
10326,note_on,0,0,5,,,,,,,,,5,,,,62,86
10331,note_on,30,0,9,,,,,,,,,13,,,,58,89
10332,note_on,240,0,3,,,,,,,,,3,,,,63,0
10332,note_on,0,0,3,,,,,,,,,3,,,,65,0
10332,note_on,0,0,3,,,,,,,,,3,,,,58,81
10333,note_on,30,0,10,,,,,,,,,14,,,,46,73
10370,note_on,50,0,6,,,,,,,,,10,,,,77,0
10373,note_on,50,0,7,,,,,,,,,11,,,,74,0
10373,note_on,50,0,1,,,,,,,,,0,,,,89,0
10375,note_on,0,0,2,,,,,,,,,1,,,,77,0
10375,note_on,50,0,2,,,,,,,,,1,,,,74,0
10376,note_on,50,0,8,,,,,,,,,12,,,,70,0
10380,note_on,10,0,6,,,,,,,,,10,,,,77,100
10381,note_on,50,0,9,,,,,,,,,13,,,,58,0
10382,note_on,50,0,3,,,,,,,,,3,,,,58,0
10383,note_on,10,0,1,,,,,,,,,0,,,,89,82
10383,note_on,10,0,7,,,,,,,,,11,,,,74,100
10383,note_on,50,0,10,,,,,,,,,14,,,,46,0
10384,note_on,0,0,4,,,,,,,,,4,,,,62,86
10384,note_on,60,0,4,,,,,,,,,4,,,,62,0
10385,note_on,0,0,2,,,,,,,,,1,,,,77,81
10385,note_on,10,0,2,,,,,,,,,1,,,,74,81
10386,note_on,60,0,5,,,,,,,,,5,,,,62,0
10386,note_on,10,0,8,,,,,,,,,12,,,,70,98
10386,note_on,0,0,5,,,,,,,,,5,,,,62,86
10391,note_on,10,0,9,,,,,,,,,13,,,,58,89
10392,note_on,10,0,3,,,,,,,,,3,,,,58,81
10393,note_on,10,0,10,,,,,,,,,14,,,,46,73
10430,note_on,50,0,6,,,,,,,,,10,,,,77,0
10433,note_on,50,0,7,,,,,,,,,11,,,,74,0
10433,note_on,50,0,1,,,,,,,,,0,,,,89,0
10435,note_on,0,0,2,,,,,,,,,1,,,,74,0
10435,note_on,50,0,2,,,,,,,,,1,,,,77,0
10436,note_on,50,0,8,,,,,,,,,12,,,,70,0
10440,set_tempo,120,1,0,,,,,,382166,,,,,,,,
10440,note_on,10,0,6,,,,,,,,,10,,,,79,115
10441,note_on,50,0,9,,,,,,,,,13,,,,58,0
10442,note_on,50,0,3,,,,,,,,,3,,,,58,0
10443,note_on,50,0,10,,,,,,,,,14,,,,46,0
10443,note_on,10,0,1,,,,,,,,,0,,,,91,95
10443,note_on,10,0,7,,,,,,,,,11,,,,72,115
10444,note_on,60,0,4,,,,,,,,,4,,,,62,0
10444,note_on,0,0,4,,,,,,,,,4,,,,60,99
10445,note_on,0,0,2,,,,,,,,,1,,,,72,94
10445,note_on,10,0,2,,,,,,,,,1,,,,79,94
10446,note_on,0,0,5,,,,,,,,,5,,,,60,99
10446,note_on,60,0,5,,,,,,,,,5,,,,62,0
10446,note_on,10,0,8,,,,,,,,,12,,,,68,113
10451,note_on,10,0,9,,,,,,,,,13,,,,56,104
10452,note_on,10,0,3,,,,,,,,,3,,,,56,94
10453,note_on,10,0,10,,,,,,,,,14,,,,44,86
10470,note_on,0,0,6,,,,,,,,,10,,,,78,100
10470,note_on,30,0,6,,,,,,,,,10,,,,79,0
10473,note_on,0,0,1,,,,,,,,,0,,,,90,82
10473,note_on,30,0,1,,,,,,,,,0,,,,91,0
10475,note_on,30,0,2,,,,,,,,,1,,,,79,0
10475,note_on,0,0,2,,,,,,,,,1,,,,78,81
10490,note_on,20,0,6,,,,,,,,,10,,,,78,0
10493,note_on,20,0,1,,,,,,,,,0,,,,90,0
10495,note_on,20,0,2,,,,,,,,,1,,,,78,0
10500,note_on,10,0,6,,,,,,,,,10,,,,76,100
10503,note_on,10,0,1,,,,,,,,,0,,,,88,82
10505,note_on,10,0,2,,,,,,,,,1,,,,76,81
10520,note_on,20,0,6,,,,,,,,,10,,,,76,0
10523,note_on,20,0,1,,,,,,,,,0,,,,88,0
10525,note_on,20,0,2,,,,,,,,,1,,,,76,0
10530,note_on,10,0,6,,,,,,,,,10,,,,78,100
10533,note_on,10,0,1,,,,,,,,,0,,,,90,82
10535,note_on,10,0,2,,,,,,,,,1,,,,78,81
10550,note_on,20,0,6,,,,,,,,,10,,,,78,0
10553,note_on,20,0,1,,,,,,,,,0,,,,90,0
10553,note_on,110,0,7,,,,,,,,,11,,,,72,0
10555,note_on,20,0,2,,,,,,,,,1,,,,78,0
10555,note_on,0,0,2,,,,,,,,,1,,,,72,0
10556,note_on,110,0,8,,,,,,,,,12,,,,68,0
10560,note_on,10,0,6,,,,,,,,,10,,,,79,100
10560,set_tempo,120,1,0,,,,,,355030,,,,,,,,
10561,note_on,110,0,9,,,,,,,,,13,,,,56,0
10562,note_on,110,0,3,,,,,,,,,3,,,,56,0
10563,note_on,10,0,1,,,,,,,,,0,,,,91,82
10563,note_on,10,0,7,,,,,,,,,11,,,,71,100
10563,note_on,110,0,10,,,,,,,,,14,,,,44,0
10564,note_on,0,0,4,,,,,,,,,4,,,,62,86
10564,note_on,120,0,4,,,,,,,,,4,,,,60,0
10565,note_on,0,0,2,,,,,,,,,1,,,,71,81
10565,note_on,10,0,2,,,,,,,,,1,,,,79,81
10566,note_on,0,0,5,,,,,,,,,5,,,,62,86
10566,note_on,10,0,8,,,,,,,,,12,,,,67,98
10566,note_on,120,0,5,,,,,,,,,5,,,,60,0
10571,note_on,10,0,9,,,,,,,,,13,,,,55,89
10572,note_on,10,0,3,,,,,,,,,3,,,,55,81
10573,note_on,10,0,10,,,,,,,,,14,,,,43,73
10590,note_on,30,0,6,,,,,,,,,10,,,,79,0
10593,note_on,30,0,1,,,,,,,,,0,,,,91,0
10593,note_on,30,0,7,,,,,,,,,11,,,,71,0
10595,note_on,0,0,2,,,,,,,,,1,,,,79,0
10595,note_on,30,0,2,,,,,,,,,1,,,,71,0
10596,note_on,30,0,8,,,,,,,,,12,,,,67,0
10600,note_on,36,0,4,,,,,,,,,4,,,,62,0
10601,note_on,30,0,9,,,,,,,,,13,,,,55,0
10602,note_on,36,0,5,,,,,,,,,5,,,,62,0
10602,note_on,30,0,3,,,,,,,,,3,,,,55,0
10603,note_on,30,0,10,,,,,,,,,14,,,,43,0
10620,note_on,30,0,6,,,,,,,,,10,,,,79,100
10623,note_on,30,0,1,,,,,,,,,0,,,,91,82
10623,note_on,30,0,7,,,,,,,,,11,,,,71,100
10624,note_on,24,0,4,,,,,,,,,4,,,,62,86
10625,note_on,30,0,2,,,,,,,,,1,,,,71,81
10625,note_on,0,0,2,,,,,,,,,1,,,,79,81
10626,note_on,30,0,8,,,,,,,,,12,,,,67,98
10626,note_on,24,0,5,,,,,,,,,5,,,,62,86
10631,note_on,30,0,9,,,,,,,,,13,,,,55,89
10632,note_on,30,0,3,,,,,,,,,3,,,,55,81
10633,note_on,30,0,10,,,,,,,,,14,,,,43,73
10650,note_on,30,0,6,,,,,,,,,10,,,,79,0
10653,note_on,30,0,1,,,,,,,,,0,,,,91,0
10653,note_on,30,0,7,,,,,,,,,11,,,,71,0
10655,note_on,0,0,2,,,,,,,,,1,,,,71,0
10655,note_on,30,0,2,,,,,,,,,1,,,,79,0
10656,note_on,30,0,8,,,,,,,,,12,,,,67,0
10660,note_on,36,0,4,,,,,,,,,4,,,,62,0
10661,note_on,30,0,9,,,,,,,,,13,,,,55,0
10662,note_on,30,0,3,,,,,,,,,3,,,,55,0
10662,note_on,36,0,5,,,,,,,,,5,,,,62,0
10663,note_on,30,0,10,,,,,,,,,14,,,,43,0
10680,note_on,30,0,6,,,,,,,,,10,,,,76,100
10680,set_tempo,120,1,0,,,,,,382166,,,,,,,,
10683,note_on,30,0,7,,,,,,,,,11,,,,70,100
10683,note_on,30,0,1,,,,,,,,,0,,,,88,82
10684,note_on,24,0,4,,,,,,,,,4,,,,60,86
10685,note_on,30,0,2,,,,,,,,,1,,,,70,81
10685,note_on,0,0,2,,,,,,,,,1,,,,76,81
10686,note_on,24,0,5,,,,,,,,,5,,,,60,86
10686,note_on,30,0,8,,,,,,,,,12,,,,60,98
10691,note_on,30,0,9,,,,,,,,,13,,,,60,89
10692,note_on,30,0,3,,,,,,,,,3,,,,60,81
10693,note_on,30,0,10,,,,,,,,,14,,,,48,73
10710,note_on,30,0,6,,,,,,,,,10,,,,76,0
10713,note_on,30,0,7,,,,,,,,,11,,,,70,0
10713,note_on,30,0,1,,,,,,,,,0,,,,88,0
10715,note_on,0,0,2,,,,,,,,,1,,,,70,0
10715,note_on,30,0,2,,,,,,,,,1,,,,76,0
10716,note_on,30,0,8,,,,,,,,,12,,,,60,0
10720,note_on,36,0,4,,,,,,,,,4,,,,60,0
10721,note_on,30,0,9,,,,,,,,,13,,,,60,0
10722,note_on,30,0,3,,,,,,,,,3,,,,60,0
10722,note_on,36,0,5,,,,,,,,,5,,,,60,0
10723,note_on,30,0,10,,,,,,,,,14,,,,48,0
10740,note_on,30,0,6,,,,,,,,,10,,,,76,100
10743,note_on,30,0,7,,,,,,,,,11,,,,70,100
10743,note_on,30,0,1,,,,,,,,,0,,,,88,82
10744,note_on,24,0,4,,,,,,,,,4,,,,60,86
10745,note_on,30,0,2,,,,,,,,,1,,,,76,81
10745,note_on,0,0,2,,,,,,,,,1,,,,70,81
10746,note_on,24,0,5,,,,,,,,,5,,,,60,86
10746,note_on,30,0,8,,,,,,,,,12,,,,60,98
10751,note_on,30,0,9,,,,,,,,,13,,,,60,89
10752,note_on,30,0,3,,,,,,,,,3,,,,60,81
10753,note_on,30,0,10,,,,,,,,,14,,,,48,73
10770,note_on,30,0,6,,,,,,,,,10,,,,76,0
10773,note_on,30,0,7,,,,,,,,,11,,,,70,0
10773,note_on,30,0,1,,,,,,,,,0,,,,88,0
10775,note_on,0,0,2,,,,,,,,,1,,,,76,0
10775,note_on,30,0,2,,,,,,,,,1,,,,70,0
10776,note_on,30,0,8,,,,,,,,,12,,,,60,0
10780,note_on,36,0,4,,,,,,,,,4,,,,60,0
10781,note_on,30,0,9,,,,,,,,,13,,,,60,0
10782,note_on,36,0,5,,,,,,,,,5,,,,60,0
10782,note_on,30,0,3,,,,,,,,,3,,,,60,0
10783,note_on,30,0,10,,,,,,,,,14,,,,48,0
10800,set_tempo,120,1,0,,,,,,368098,,,,,,,,
10800,note_on,30,0,6,,,,,,,,,10,,,,77,100
10803,note_on,30,0,1,,,,,,,,,0,,,,89,82
10803,note_on,30,0,7,,,,,,,,,11,,,,69,100
10804,note_on,24,0,4,,,,,,,,,4,,,,60,86
10805,note_on,30,0,2,,,,,,,,,1,,,,77,81
10805,note_on,0,0,2,,,,,,,,,1,,,,69,81
10806,note_on,24,0,5,,,,,,,,,5,,,,60,86
10806,note_on,30,0,8,,,,,,,,,12,,,,65,98
10811,note_on,30,0,9,,,,,,,,,13,,,,53,89
10812,note_on,30,0,3,,,,,,,,,3,,,,53,81
10813,note_on,30,0,10,,,,,,,,,14,,,,41,73
10830,note_on,30,0,6,,,,,,,,,10,,,,77,0
10833,note_on,30,0,7,,,,,,,,,11,,,,69,0
10833,note_on,30,0,1,,,,,,,,,0,,,,89,0
10835,note_on,0,0,2,,,,,,,,,1,,,,77,0
10835,note_on,30,0,2,,,,,,,,,1,,,,69,0
10836,note_on,30,0,8,,,,,,,,,12,,,,65,0
10840,note_on,36,0,4,,,,,,,,,4,,,,60,0
10841,note_on,30,0,9,,,,,,,,,13,,,,53,0
10842,note_on,36,0,5,,,,,,,,,5,,,,60,0
10842,note_on,30,0,3,,,,,,,,,3,,,,53,0
10843,note_on,30,0,10,,,,,,,,,14,,,,41,0
10860,note_on,30,0,6,,,,,,,,,10,,,,74,100
10863,note_on,30,0,7,,,,,,,,,11,,,,68,100
10863,note_on,30,0,1,,,,,,,,,0,,,,86,82
10864,note_on,24,0,4,,,,,,,,,4,,,,58,86
10865,note_on,30,0,2,,,,,,,,,1,,,,68,81
10865,note_on,0,0,2,,,,,,,,,1,,,,74,81
10866,note_on,30,0,8,,,,,,,,,12,,,,58,98
10866,note_on,24,0,5,,,,,,,,,5,,,,58,86
10871,note_on,30,0,9,,,,,,,,,13,,,,58,89
10872,note_on,30,0,3,,,,,,,,,3,,,,58,81
10873,note_on,30,0,10,,,,,,,,,14,,,,46,73
10890,note_on,30,0,6,,,,,,,,,10,,,,74,0
10893,note_on,30,0,7,,,,,,,,,11,,,,68,0
10893,note_on,30,0,1,,,,,,,,,0,,,,86,0
10895,note_on,0,0,2,,,,,,,,,1,,,,68,0
10895,note_on,30,0,2,,,,,,,,,1,,,,74,0
10896,note_on,30,0,8,,,,,,,,,12,,,,58,0
10900,note_on,36,0,4,,,,,,,,,4,,,,58,0
10901,note_on,30,0,9,,,,,,,,,13,,,,58,0
10902,note_on,36,0,5,,,,,,,,,5,,,,58,0
10902,note_on,30,0,3,,,,,,,,,3,,,,58,0
10903,note_on,30,0,10,,,,,,,,,14,,,,46,0
10920,note_on,30,0,6,,,,,,,,,10,,,,75,100
10920,set_tempo,120,1,0,,,,,,387097,,,,,,,,
10923,note_on,30,0,7,,,,,,,,,11,,,,67,100
10923,note_on,30,0,1,,,,,,,,,0,,,,87,82
10924,note_on,24,0,4,,,,,,,,,4,,,,58,86
10925,note_on,30,0,2,,,,,,,,,1,,,,67,81
10925,note_on,0,0,2,,,,,,,,,1,,,,75,81
10926,note_on,30,0,8,,,,,,,,,12,,,,63,98
10926,note_on,24,0,5,,,,,,,,,5,,,,58,86
10931,note_on,30,0,9,,,,,,,,,13,,,,51,89
10932,note_on,30,0,3,,,,,,,,,3,,,,51,81
10933,note_on,30,0,10,,,,,,,,,14,,,,39,73
10950,note_on,30,0,6,,,,,,,,,10,,,,75,0
10953,note_on,30,0,1,,,,,,,,,0,,,,87,0
10953,note_on,30,0,7,,,,,,,,,11,,,,67,0
10955,note_on,30,0,2,,,,,,,,,1,,,,75,0
10955,note_on,0,0,2,,,,,,,,,1,,,,67,0
10956,note_on,30,0,8,,,,,,,,,12,,,,63,0
10960,note_on,36,0,4,,,,,,,,,4,,,,58,0
10961,note_on,30,0,9,,,,,,,,,13,,,,51,0
10962,note_on,36,0,5,,,,,,,,,5,,,,58,0
10962,note_on,30,0,3,,,,,,,,,3,,,,51,0
10963,note_on,30,0,10,,,,,,,,,14,,,,39,0
10980,note_on,30,0,6,,,,,,,,,10,,,,72,100
10983,note_on,30,0,7,,,,,,,,,11,,,,63,100
10983,note_on,30,0,1,,,,,,,,,0,,,,84,82
10984,note_on,24,0,4,,,,,,,,,4,,,,60,86
10985,note_on,30,0,2,,,,,,,,,1,,,,72,81
10985,note_on,0,0,2,,,,,,,,,1,,,,63,81
10986,note_on,24,0,5,,,,,,,,,5,,,,53,86
10986,note_on,30,0,8,,,,,,,,,12,,,,65,98
10991,note_on,30,0,9,,,,,,,,,13,,,,53,89
10992,note_on,30,0,3,,,,,,,,,3,,,,53,81
10993,note_on,30,0,10,,,,,,,,,14,,,,41,73
11010,note_on,30,0,6,,,,,,,,,10,,,,72,0
11013,note_on,30,0,1,,,,,,,,,0,,,,84,0
11013,note_on,30,0,7,,,,,,,,,11,,,,63,0
11015,note_on,0,0,2,,,,,,,,,1,,,,72,0
11015,note_on,30,0,2,,,,,,,,,1,,,,63,0
11016,note_on,30,0,8,,,,,,,,,12,,,,65,0
11020,note_on,36,0,4,,,,,,,,,4,,,,60,0
11021,note_on,30,0,9,,,,,,,,,13,,,,53,0
11022,note_on,30,0,3,,,,,,,,,3,,,,53,0
11022,note_on,36,0,5,,,,,,,,,5,,,,53,0
11023,note_on,30,0,10,,,,,,,,,14,,,,41,0
11040,set_tempo,120,1,0,,,,,,365854,,,,,,,,
11040,note_on,30,0,6,,,,,,,,,10,,,,70,73
11043,note_on,30,0,7,,,,,,,,,11,,,,62,73
11043,note_on,30,0,1,,,,,,,,,0,,,,82,75
11044,note_on,24,0,4,,,,,,,,,4,,,,58,78
11045,note_on,0,0,2,,,,,,,,,1,,,,70,74
11045,note_on,30,0,2,,,,,,,,,1,,,,62,74
11046,note_on,24,0,5,,,,,,,,,5,,,,50,78
11046,note_on,30,0,8,,,,,,,,,12,,,,58,71
11051,note_on,30,0,9,,,,,,,,,13,,,,46,62
11052,note_on,30,0,3,,,,,,,,,3,,,,46,74
11053,note_on,30,0,10,,,,,,,,,14,,,,34,48
11160,note_on,120,0,6,,,,,,,,,10,,,,70,0
11163,note_on,120,0,1,,,,,,,,,0,,,,82,0
11163,note_on,120,0,7,,,,,,,,,11,,,,62,0
11164,note_on,120,0,4,,,,,,,,,4,,,,58,0
11165,note_on,120,0,2,,,,,,,,,1,,,,70,0
11165,note_on,0,0,2,,,,,,,,,1,,,,62,0
11166,note_on,120,0,8,,,,,,,,,12,,,,58,0
11166,note_on,120,0,5,,,,,,,,,5,,,,50,0
11171,note_on,120,0,9,,,,,,,,,13,,,,46,0
11172,note_on,120,0,3,,,,,,,,,3,,,,46,0
11173,note_on,120,0,10,,,,,,,,,14,,,,34,0
11280,set_tempo,240,1,0,,,,,,370370,,,,,,,,
11280,note_on,0,0,6,,,,,,,,,10,,,,74,100
11280,control_change,120,0,6,,,,,,,,,10,11,37,,,
11283,note_on,0,0,7,,,,,,,,,11,,,,70,100
11283,control_change,120,0,7,,,,,,,,,11,11,37,,,
11340,note_on,0,0,6,,,,,,,,,10,,,,77,100
11340,note_on,60,0,6,,,,,,,,,10,,,,74,0
11343,note_on,0,0,7,,,,,,,,,11,,,,74,100
11343,note_on,60,0,7,,,,,,,,,11,,,,70,0
11390,note_on,50,0,6,,,,,,,,,10,,,,77,0
11393,note_on,50,0,7,,,,,,,,,11,,,,74,0
11400,note_on,10,0,6,,,,,,,,,10,,,,75,100
11400,set_tempo,120,1,0,,,,,,382166,,,,,,,,
11403,note_on,10,0,7,,,,,,,,,11,,,,72,100
11430,note_on,30,0,6,,,,,,,,,10,,,,75,0
11433,note_on,30,0,7,,,,,,,,,11,,,,72,0
11460,note_on,30,0,6,,,,,,,,,10,,,,72,100
11463,note_on,30,0,7,,,,,,,,,11,,,,69,100
11490,note_on,30,0,6,,,,,,,,,10,,,,72,0
11493,note_on,30,0,7,,,,,,,,,11,,,,69,0
11520,set_tempo,120,1,0,,,,,,362538,,,,,,,,
11520,note_on,30,0,6,,,,,,,,,10,,,,74,100
11523,note_on,30,0,7,,,,,,,,,11,,,,70,100
11580,note_on,60,0,6,,,,,,,,,10,,,,74,0
11580,note_on,0,0,6,,,,,,,,,10,,,,77,100
11583,note_on,60,0,7,,,,,,,,,11,,,,70,0
11583,note_on,0,0,7,,,,,,,,,11,,,,74,100
11630,note_on,50,0,6,,,,,,,,,10,,,,77,0
11633,note_on,50,0,7,,,,,,,,,11,,,,74,0
11640,set_tempo,120,1,0,,,,,,382166,,,,,,,,
11640,note_on,10,0,6,,,,,,,,,10,,,,75,100
11643,note_on,10,0,7,,,,,,,,,11,,,,72,100
11670,note_on,30,0,6,,,,,,,,,10,,,,75,0
11673,note_on,30,0,7,,,,,,,,,11,,,,72,0
11700,note_on,30,0,6,,,,,,,,,10,,,,72,100
11703,note_on,30,0,7,,,,,,,,,11,,,,69,100
11730,note_on,30,0,6,,,,,,,,,10,,,,72,0
11733,note_on,30,0,7,,,,,,,,,11,,,,69,0
11760,note_on,30,0,6,,,,,,,,,10,,,,74,100
11760,set_tempo,120,1,0,,,,,,363636,,,,,,,,
11763,note_on,30,0,7,,,,,,,,,11,,,,70,100
11820,note_on,60,0,6,,,,,,,,,10,,,,74,0
11820,note_on,0,0,6,,,,,,,,,10,,,,77,100
11823,note_on,60,0,7,,,,,,,,,11,,,,70,0
11823,note_on,0,0,7,,,,,,,,,11,,,,74,100
11870,note_on,50,0,6,,,,,,,,,10,,,,77,0
11873,note_on,50,0,7,,,,,,,,,11,,,,74,0
11880,note_on,10,0,6,,,,,,,,,10,,,,75,100
11880,set_tempo,120,1,0,,,,,,382166,,,,,,,,
11883,note_on,10,0,7,,,,,,,,,11,,,,72,100
11910,note_on,30,0,6,,,,,,,,,10,,,,75,0
11913,note_on,30,0,7,,,,,,,,,11,,,,72,0
11940,note_on,30,0,6,,,,,,,,,10,,,,72,100
11943,note_on,30,0,7,,,,,,,,,11,,,,69,100
11970,note_on,30,0,6,,,,,,,,,10,,,,72,0
11973,note_on,30,0,7,,,,,,,,,11,,,,69,0
12000,set_tempo,120,1,0,,,,,,375000,,,,,,,,
12000,control_change,30,0,6,,,,,,,,,10,11,37,,,
12000,note_on,0,0,6,,,,,,,,,10,,,,70,100
12003,control_change,30,0,7,,,,,,,,,11,11,37,,,
12003,note_on,0,0,7,,,,,,,,,11,,,,67,100
12024,control_change,24,0,6,,,,,,,,,10,11,38,,,
12027,control_change,24,0,7,,,,,,,,,11,11,38,,,
12048,control_change,24,0,6,,,,,,,,,10,11,39,,,
12051,control_change,24,0,7,,,,,,,,,11,11,39,,,
12060,note_on,12,0,6,,,,,,,,,10,,,,70,0
12060,note_on,0,0,6,,,,,,,,,10,,,,74,100
12063,note_on,12,0,7,,,,,,,,,11,,,,67,0
12063,note_on,0,0,7,,,,,,,,,11,,,,70,100
12072,control_change,12,0,6,,,,,,,,,10,11,40,,,
12075,control_change,12,0,7,,,,,,,,,11,11,40,,,
12096,control_change,24,0,6,,,,,,,,,10,11,41,,,
12099,control_change,24,0,7,,,,,,,,,11,11,41,,,
12110,note_on,14,0,6,,,,,,,,,10,,,,74,0
12113,note_on,14,0,7,,,,,,,,,11,,,,70,0
12120,control_change,10,0,6,,,,,,,,,10,11,42,,,
12120,set_tempo,120,1,0,,,,,,382166,,,,,,,,
12120,note_on,0,0,6,,,,,,,,,10,,,,72,100
12123,control_change,10,0,7,,,,,,,,,11,11,42,,,
12123,note_on,0,0,7,,,,,,,,,11,,,,69,100
12144,control_change,24,0,6,,,,,,,,,10,11,43,,,
12147,control_change,24,0,7,,,,,,,,,11,11,43,,,
12150,note_on,6,0,6,,,,,,,,,10,,,,72,0
12153,note_on,6,0,7,,,,,,,,,11,,,,69,0
12168,control_change,18,0,6,,,,,,,,,10,11,44,,,
12171,control_change,18,0,7,,,,,,,,,11,11,44,,,
12180,note_on,12,0,6,,,,,,,,,10,,,,69,100
12183,note_on,12,0,7,,,,,,,,,11,,,,65,100
12192,control_change,12,0,6,,,,,,,,,10,11,45,,,
12195,control_change,12,0,7,,,,,,,,,11,11,45,,,
12210,note_on,18,0,6,,,,,,,,,10,,,,69,0
12213,note_on,18,0,7,,,,,,,,,11,,,,65,0
12216,control_change,6,0,6,,,,,,,,,10,11,46,,,
12219,control_change,6,0,7,,,,,,,,,11,11,46,,,
12240,control_change,24,0,6,,,,,,,,,10,11,47,,,
12240,note_on,0,0,6,,,,,,,,,10,,,,67,100
12240,set_tempo,120,1,0,,,,,,363636,,,,,,,,
12243,note_on,0,0,1,,,,,,,,,0,,,,82,121
12243,control_change,1080,0,1,,,,,,,,,0,11,27,,,
12243,note_on,0,0,7,,,,,,,,,11,,,,64,100
12243,control_change,24,0,7,,,,,,,,,11,11,47,,,
12245,note_on,0,0,2,,,,,,,,,1,,,,70,120
12245,control_change,1080,0,2,,,,,,,,,1,11,27,,,
12246,control_change,1080,0,8,,,,,,,,,12,11,27,,,
12246,note_on,0,0,8,,,,,,,,,12,,,,60,98
12251,control_change,1080,0,9,,,,,,,,,13,11,27,,,
12251,note_on,0,0,9,,,,,,,,,13,,,,48,89
12252,note_on,0,0,3,,,,,,,,,3,,,,48,81
12252,note_on,0,0,3,,,,,,,,,3,,,,60,81
12252,control_change,1080,0,3,,,,,,,,,3,11,27,,,
12253,note_on,0,0,10,,,,,,,,,14,,,,36,73
12253,control_change,1080,0,10,,,,,,,,,14,11,27,,,
12264,control_change,24,0,6,,,,,,,,,10,11,46,,,
12266,control_change,23,0,1,,,,,,,,,0,11,28,,,
12267,control_change,24,0,7,,,,,,,,,11,11,46,,,
12268,control_change,23,0,2,,,,,,,,,1,11,28,,,
12269,control_change,23,0,8,,,,,,,,,12,11,28,,,
12274,control_change,23,0,9,,,,,,,,,13,11,28,,,
12275,control_change,23,0,3,,,,,,,,,3,11,28,,,
12276,control_change,23,0,10,,,,,,,,,14,11,28,,,
12288,control_change,24,0,6,,,,,,,,,10,11,45,,,
12290,control_change,24,0,1,,,,,,,,,0,11,29,,,
12291,control_change,24,0,7,,,,,,,,,11,11,45,,,
12292,control_change,24,0,2,,,,,,,,,1,11,29,,,
12293,control_change,24,0,8,,,,,,,,,12,11,29,,,
12298,control_change,24,0,9,,,,,,,,,13,11,29,,,
12299,control_change,24,0,3,,,,,,,,,3,11,29,,,
12300,control_change,24,0,10,,,,,,,,,14,11,29,,,
12303,note_on,13,0,1,,,,,,,,,0,,,,82,0
12303,note_on,0,0,1,,,,,,,,,0,,,,86,121
12305,note_on,0,0,2,,,,,,,,,1,,,,74,120
12305,note_on,13,0,2,,,,,,,,,1,,,,70,0
12312,control_change,24,0,6,,,,,,,,,10,11,44,,,
12314,control_change,11,0,1,,,,,,,,,0,11,30,,,
12315,control_change,24,0,7,,,,,,,,,11,11,44,,,
12316,control_change,11,0,2,,,,,,,,,1,11,30,,,
12317,control_change,24,0,8,,,,,,,,,12,11,30,,,
12322,control_change,24,0,9,,,,,,,,,13,11,30,,,
12323,control_change,24,0,3,,,,,,,,,3,11,30,,,
12324,control_change,24,0,10,,,,,,,,,14,11,30,,,
12336,control_change,24,0,6,,,,,,,,,10,11,43,,,
12338,control_change,24,0,1,,,,,,,,,0,11,31,,,
12339,control_change,24,0,7,,,,,,,,,11,11,43,,,
12340,control_change,24,0,2,,,,,,,,,1,11,31,,,
12341,control_change,24,0,8,,,,,,,,,12,11,31,,,
12346,control_change,24,0,9,,,,,,,,,13,11,31,,,
12347,control_change,24,0,3,,,,,,,,,3,11,31,,,
12348,control_change,24,0,10,,,,,,,,,14,11,31,,,
12360,set_tempo,120,1,0,,,,,,382166,,,,,,,,
12360,control_change,24,0,6,,,,,,,,,10,11,42,,,
12362,control_change,24,0,1,,,,,,,,,0,11,32,,,
12363,control_change,24,0,7,,,,,,,,,11,11,42,,,
12363,note_on,1,0,1,,,,,,,,,0,,,,86,0
12363,note_on,0,0,1,,,,,,,,,0,,,,82,121
12364,control_change,24,0,2,,,,,,,,,1,11,32,,,
12365,note_on,0,0,2,,,,,,,,,1,,,,70,120
12365,control_change,24,0,8,,,,,,,,,12,11,32,,,
12365,note_on,1,0,2,,,,,,,,,1,,,,74,0
12370,control_change,24,0,9,,,,,,,,,13,11,32,,,
12371,control_change,24,0,3,,,,,,,,,3,11,32,,,
12372,control_change,24,0,10,,,,,,,,,14,11,32,,,
12384,control_change,24,0,6,,,,,,,,,10,11,41,,,
12386,control_change,23,0,1,,,,,,,,,0,11,33,,,
12387,control_change,24,0,7,,,,,,,,,11,11,41,,,
12388,control_change,23,0,2,,,,,,,,,1,11,33,,,
12389,control_change,24,0,8,,,,,,,,,12,11,33,,,
12394,control_change,24,0,9,,,,,,,,,13,11,33,,,
12395,control_change,24,0,3,,,,,,,,,3,11,33,,,
12396,control_change,24,0,10,,,,,,,,,14,11,33,,,
12408,control_change,24,0,6,,,,,,,,,10,11,40,,,
12410,control_change,24,0,1,,,,,,,,,0,11,34,,,
12411,control_change,24,0,7,,,,,,,,,11,11,40,,,
12412,control_change,24,0,2,,,,,,,,,1,11,34,,,
12413,control_change,24,0,8,,,,,,,,,12,11,34,,,
12418,control_change,24,0,9,,,,,,,,,13,11,34,,,
12419,control_change,24,0,3,,,,,,,,,3,11,34,,,
12420,control_change,24,0,10,,,,,,,,,14,11,34,,,
12420,note_on,0,0,6,,,,,,,,,10,,,,69,100
12420,note_on,12,0,6,,,,,,,,,10,,,,67,0
12423,note_on,12,0,7,,,,,,,,,11,,,,64,0
12423,note_on,0,0,7,,,,,,,,,11,,,,65,100
12423,note_on,0,0,1,,,,,,,,,0,,,,81,121
12423,note_on,13,0,1,,,,,,,,,0,,,,82,0
12425,note_on,0,0,2,,,,,,,,,1,,,,69,120
12425,note_on,13,0,2,,,,,,,,,1,,,,70,0
12432,control_change,12,0,6,,,,,,,,,10,11,39,,,
12434,control_change,11,0,1,,,,,,,,,0,11,35,,,
12435,control_change,12,0,7,,,,,,,,,11,11,39,,,
12436,control_change,11,0,2,,,,,,,,,1,11,35,,,
12437,control_change,24,0,8,,,,,,,,,12,11,35,,,
12442,control_change,24,0,9,,,,,,,,,13,11,35,,,
12443,control_change,24,0,3,,,,,,,,,3,11,35,,,
12444,control_change,24,0,10,,,,,,,,,14,11,35,,,
12456,control_change,24,0,6,,,,,,,,,10,11,38,,,
12458,control_change,24,0,1,,,,,,,,,0,11,36,,,
12459,control_change,24,0,7,,,,,,,,,11,11,38,,,
12460,control_change,24,0,2,,,,,,,,,1,11,36,,,
12461,control_change,24,0,8,,,,,,,,,12,11,36,,,
12466,control_change,24,0,9,,,,,,,,,13,11,36,,,
12467,control_change,24,0,3,,,,,,,,,3,11,36,,,
12468,control_change,24,0,10,,,,,,,,,14,11,36,,,
12470,note_on,14,0,6,,,,,,,,,10,,,,69,0
12473,note_on,14,0,7,,,,,,,,,11,,,,65,0
12473,note_on,15,0,1,,,,,,,,,0,,,,81,0
12475,note_on,15,0,2,,,,,,,,,1,,,,69,0
12476,note_on,15,0,8,,,,,,,,,12,,,,60,0
12480,set_tempo,120,1,0,,,,,,360360,,,,,,,,
12480,control_change,10,0,6,,,,,,,,,10,11,37,,,
12480,note_on,0,0,6,,,,,,,,,10,,,,70,100
12482,note_on,15,0,3,,,,,,,,,3,,,,60,0
12482,control_change,9,0,1,,,,,,,,,0,11,37,,,
12483,note_on,0,0,7,,,,,,,,,11,,,,67,100
12483,control_change,10,0,7,,,,,,,,,11,11,37,,,
12483,note_on,1,0,1,,,,,,,,,0,,,,79,121
12484,control_change,9,0,2,,,,,,,,,1,11,37,,,
12485,note_on,1,0,2,,,,,,,,,1,,,,67,120
12485,control_change,9,0,8,,,,,,,,,12,11,37,,,
12486,note_on,1,0,8,,,,,,,,,12,,,,64,98
12490,control_change,24,0,9,,,,,,,,,13,11,37,,,
12491,control_change,9,0,3,,,,,,,,,3,11,37,,,
12492,note_on,1,0,3,,,,,,,,,3,,,,64,81
12492,control_change,24,0,10,,,,,,,,,14,11,37,,,
12540,note_on,0,0,6,,,,,,,,,10,,,,74,100
12540,note_on,60,0,6,,,,,,,,,10,,,,70,0
12543,note_on,0,0,7,,,,,,,,,11,,,,70,100
12543,note_on,60,0,7,,,,,,,,,11,,,,67,0
12600,set_tempo,120,1,0,,,,,,382166,,,,,,,,
12600,note_on,60,0,6,,,,,,,,,10,,,,74,0
12600,note_on,0,0,6,,,,,,,,,10,,,,72,100
12603,note_on,0,0,7,,,,,,,,,11,,,,69,100
12603,note_on,60,0,7,,,,,,,,,11,,,,70,0
12660,note_on,0,0,6,,,,,,,,,10,,,,69,100
12660,note_on,60,0,6,,,,,,,,,10,,,,72,0
12663,note_on,60,0,7,,,,,,,,,11,,,,69,0
12663,note_on,180,0,1,,,,,,,,,0,,,,79,0
12663,note_on,0,0,1,,,,,,,,,0,,,,81,121
12663,note_on,0,0,7,,,,,,,,,11,,,,65,100
12665,note_on,0,0,2,,,,,,,,,1,,,,69,120
12665,note_on,180,0,2,,,,,,,,,1,,,,67,0
12666,note_on,180,0,8,,,,,,,,,12,,,,64,0
12666,note_on,0,0,8,,,,,,,,,12,,,,65,98
12672,note_on,180,0,3,,,,,,,,,3,,,,64,0
12672,note_on,0,0,3,,,,,,,,,3,,,,65,81
12710,note_on,50,0,6,,,,,,,,,10,,,,69,0
12713,note_on,50,0,1,,,,,,,,,0,,,,81,0
12713,note_on,50,0,7,,,,,,,,,11,,,,65,0
12715,note_on,50,0,2,,,,,,,,,1,,,,69,0
12716,note_on,50,0,8,,,,,,,,,12,,,,65,0
12720,set_tempo,120,1,0,,,,,,360360,,,,,,,,
12720,note_on,10,0,6,,,,,,,,,10,,,,67,100
12722,note_on,50,0,3,,,,,,,,,3,,,,65,0
12723,note_on,10,0,7,,,,,,,,,11,,,,64,100
12723,note_on,10,0,1,,,,,,,,,0,,,,82,121
12725,note_on,10,0,2,,,,,,,,,1,,,,70,120
12726,note_on,10,0,8,,,,,,,,,12,,,,60,98
12732,note_on,10,0,3,,,,,,,,,3,,,,60,81
12783,note_on,0,0,1,,,,,,,,,0,,,,86,121
12783,note_on,60,0,1,,,,,,,,,0,,,,82,0
12785,note_on,60,0,2,,,,,,,,,1,,,,70,0
12785,note_on,0,0,2,,,,,,,,,1,,,,74,120
12840,set_tempo,120,1,0,,,,,,382166,,,,,,,,
12843,note_on,60,0,1,,,,,,,,,0,,,,86,0
12843,note_on,0,0,1,,,,,,,,,0,,,,82,121
12845,note_on,60,0,2,,,,,,,,,1,,,,74,0
12845,note_on,0,0,2,,,,,,,,,1,,,,70,120
12900,note_on,0,0,6,,,,,,,,,10,,,,69,100
12900,note_on,180,0,6,,,,,,,,,10,,,,67,0
12903,note_on,180,0,7,,,,,,,,,11,,,,64,0
12903,note_on,0,0,1,,,,,,,,,0,,,,81,121
12903,note_on,0,0,7,,,,,,,,,11,,,,65,100
12903,note_on,60,0,1,,,,,,,,,0,,,,82,0
12905,note_on,60,0,2,,,,,,,,,1,,,,70,0
12905,note_on,0,0,2,,,,,,,,,1,,,,69,120
12950,note_on,50,0,6,,,,,,,,,10,,,,69,0
12953,note_on,50,0,7,,,,,,,,,11,,,,65,0
12953,note_on,50,0,1,,,,,,,,,0,,,,81,0
12955,note_on,50,0,2,,,,,,,,,1,,,,69,0
12956,note_on,230,0,8,,,,,,,,,12,,,,60,0
12960,note_on,10,0,6,,,,,,,,,10,,,,70,100
12960,set_tempo,120,1,0,,,,,,358209,,,,,,,,
12963,note_on,10,0,7,,,,,,,,,11,,,,67,100
12963,note_on,10,0,1,,,,,,,,,0,,,,79,121
12965,note_on,10,0,2,,,,,,,,,1,,,,67,120
12966,note_on,10,0,8,,,,,,,,,12,,,,64,98
12972,note_on,0,0,3,,,,,,,,,3,,,,64,81
12972,note_on,240,0,3,,,,,,,,,3,,,,60,0
13020,note_on,60,0,6,,,,,,,,,10,,,,70,0
13020,note_on,0,0,6,,,,,,,,,10,,,,74,100
13023,note_on,60,0,7,,,,,,,,,11,,,,67,0
13023,note_on,0,0,7,,,,,,,,,11,,,,70,100
13080,set_tempo,120,1,0,,,,,,382166,,,,,,,,
13080,note_on,60,0,6,,,,,,,,,10,,,,74,0
13080,note_on,0,0,6,,,,,,,,,10,,,,72,100
13083,note_on,60,0,7,,,,,,,,,11,,,,70,0
13083,note_on,0,0,7,,,,,,,,,11,,,,69,100
13140,note_on,0,0,6,,,,,,,,,10,,,,69,100
13140,note_on,60,0,6,,,,,,,,,10,,,,72,0
13143,note_on,0,0,7,,,,,,,,,11,,,,65,100
13143,note_on,0,0,1,,,,,,,,,0,,,,81,121
13143,note_on,180,0,1,,,,,,,,,0,,,,79,0
13143,note_on,60,0,7,,,,,,,,,11,,,,69,0
13145,note_on,0,0,2,,,,,,,,,1,,,,69,120
13145,note_on,180,0,2,,,,,,,,,1,,,,67,0
13146,note_on,0,0,8,,,,,,,,,12,,,,65,98
13146,note_on,180,0,8,,,,,,,,,12,,,,64,0
13152,note_on,180,0,3,,,,,,,,,3,,,,64,0
13152,note_on,0,0,3,,,,,,,,,3,,,,65,81
13190,note_on,50,0,6,,,,,,,,,10,,,,69,0
13193,note_on,50,0,7,,,,,,,,,11,,,,65,0
13193,note_on,50,0,1,,,,,,,,,0,,,,81,0
13195,note_on,50,0,2,,,,,,,,,1,,,,69,0
13196,note_on,50,0,8,,,,,,,,,12,,,,65,0
13200,note_on,10,0,6,,,,,,,,,10,,,,67,100
13200,set_tempo,120,1,0,,,,,,355030,,,,,,,,
13202,note_on,50,0,3,,,,,,,,,3,,,,65,0
13203,note_on,10,0,1,,,,,,,,,0,,,,82,121
13203,note_on,10,0,7,,,,,,,,,11,,,,64,100
13205,note_on,10,0,2,,,,,,,,,1,,,,70,120
13206,note_on,10,0,8,,,,,,,,,12,,,,60,98
13212,note_on,10,0,3,,,,,,,,,3,,,,67,81
13230,note_on,30,0,6,,,,,,,,,10,,,,67,0
13260,note_on,30,0,6,,,,,,,,,10,,,,69,100
13263,note_on,60,0,1,,,,,,,,,0,,,,82,0
13263,note_on,0,0,1,,,,,,,,,0,,,,81,121
13265,note_on,0,0,2,,,,,,,,,1,,,,69,120
13265,note_on,60,0,2,,,,,,,,,1,,,,70,0
13290,note_on,30,0,6,,,,,,,,,10,,,,69,0
13313,note_on,50,0,1,,,,,,,,,0,,,,81,0
13315,note_on,50,0,2,,,,,,,,,1,,,,69,0
13320,note_on,30,0,6,,,,,,,,,10,,,,70,100
13320,set_tempo,120,1,0,,,,,,382166,,,,,,,,
13323,note_on,10,0,1,,,,,,,,,0,,,,82,121
13325,note_on,10,0,2,,,,,,,,,1,,,,70,120
13350,note_on,30,0,6,,,,,,,,,10,,,,70,0
13359,note_on,36,0,1,,,,,,,,,0,,,,82,0
13361,note_on,36,0,2,,,,,,,,,1,,,,70,0
13380,note_on,30,0,6,,,,,,,,,10,,,,72,100
13383,note_on,24,0,1,,,,,,,,,0,,,,84,121
13385,note_on,24,0,2,,,,,,,,,1,,,,72,120
13410,note_on,30,0,6,,,,,,,,,10,,,,72,0
13419,note_on,36,0,1,,,,,,,,,0,,,,84,0
13421,note_on,36,0,2,,,,,,,,,1,,,,72,0
13438,note_on,235,0,7,,,,,,,,,11,,,,64,0
13440,set_tempo,120,1,0,,,,,,368098,,,,,,,,
13440,note_on,0,0,6,,,,,,,,,10,,,,69,100
13440,control_change,30,0,6,,,,,,,,,10,11,37,,,
13441,note_on,951,0,9,,,,,,,,,13,,,,48,0
13442,note_on,230,0,3,,,,,,,,,3,,,,48,0
13443,note_on,0,0,7,,,,,,,,,11,,,,65,100
13443,control_change,5,0,7,,,,,,,,,11,11,37,,,
13443,note_on,951,0,10,,,,,,,,,14,,,,36,0
13443,note_on,0,0,1,,,,,,,,,0,,,,81,105
13443,control_change,24,0,1,,,,,,,,,0,11,37,,,
13445,note_on,0,0,2,,,,,,,,,1,,,,65,104
13445,note_on,0,0,2,,,,,,,,,1,,,,69,104
13445,control_change,24,0,2,,,,,,,,,1,11,37,,,
13451,note_on,10,0,9,,,,,,,,,13,,,,53,89
13452,note_on,10,0,3,,,,,,,,,3,,,,67,0
13452,note_on,0,0,3,,,,,,,,,3,,,,53,81
13452,note_on,0,0,3,,,,,,,,,3,,,,65,81
13453,note_on,10,0,10,,,,,,,,,14,,,,41,73
13458,control_change,18,0,6,,,,,,,,,10,11,40,,,
13461,control_change,18,0,7,,,,,,,,,11,11,40,,,
13461,control_change,18,0,1,,,,,,,,,0,11,40,,,
13463,control_change,18,0,2,,,,,,,,,1,11,40,,,
13470,note_on,12,0,6,,,,,,,,,10,,,,69,0
13476,control_change,6,0,6,,,,,,,,,10,11,43,,,
13479,control_change,18,0,7,,,,,,,,,11,11,43,,,
13479,note_on,18,0,1,,,,,,,,,0,,,,81,0
13479,control_change,0,0,1,,,,,,,,,0,11,43,,,
13481,note_on,18,0,2,,,,,,,,,1,,,,65,0
13481,note_on,0,0,2,,,,,,,,,1,,,,69,0
13481,control_change,0,0,2,,,,,,,,,1,11,43,,,
13493,note_on,14,0,7,,,,,,,,,11,,,,65,0
13494,control_change,18,0,6,,,,,,,,,10,11,46,,,
13497,control_change,18,0,1,,,,,,,,,0,11,46,,,
13497,control_change,4,0,7,,,,,,,,,11,11,46,,,
13499,control_change,18,0,2,,,,,,,,,1,11,46,,,
13500,note_on,6,0,6,,,,,,,,,10,,,,70,100
13503,note_on,6,0,1,,,,,,,,,0,,,,82,105
13503,note_on,6,0,7,,,,,,,,,11,,,,67,100
13505,note_on,6,0,2,,,,,,,,,1,,,,67,104
13505,note_on,0,0,2,,,,,,,,,1,,,,70,104
13512,control_change,12,0,6,,,,,,,,,10,11,49,,,
13515,control_change,12,0,1,,,,,,,,,0,11,49,,,
13515,control_change,12,0,7,,,,,,,,,11,11,49,,,
13517,control_change,12,0,2,,,,,,,,,1,11,49,,,
13530,note_on,18,0,6,,,,,,,,,10,,,,70,0
13530,control_change,0,0,6,,,,,,,,,10,11,52,,,
13533,control_change,18,0,1,,,,,,,,,0,11,52,,,
13533,control_change,0,0,7,,,,,,,,,11,11,52,,,
13533,note_on,18,0,7,,,,,,,,,11,,,,67,0
13535,control_change,18,0,2,,,,,,,,,1,11,52,,,
13539,note_on,6,0,1,,,,,,,,,0,,,,82,0
13541,note_on,6,0,2,,,,,,,,,1,,,,70,0
13541,note_on,0,0,2,,,,,,,,,1,,,,67,0
13548,control_change,18,0,6,,,,,,,,,10,11,55,,,
13551,control_change,12,0,1,,,,,,,,,0,11,55,,,
13551,control_change,18,0,7,,,,,,,,,11,11,55,,,
13553,control_change,12,0,2,,,,,,,,,1,11,55,,,
13556,note_on,350,0,8,,,,,,,,,12,,,,60,0
13560,set_tempo,120,1,0,,,,,,382166,,,,,,,,
13560,note_on,12,0,6,,,,,,,,,10,,,,72,100
13563,note_on,12,0,7,,,,,,,,,11,,,,69,100
13563,note_on,12,0,1,,,,,,,,,0,,,,84,105
13565,note_on,12,0,2,,,,,,,,,1,,,,72,104
13565,note_on,0,0,2,,,,,,,,,1,,,,69,104
13566,control_change,6,0,6,,,,,,,,,10,11,58,,,
13569,control_change,6,0,1,,,,,,,,,0,11,58,,,
13569,control_change,6,0,7,,,,,,,,,11,11,58,,,
13571,control_change,6,0,2,,,,,,,,,1,11,58,,,
13571,note_on,120,0,9,,,,,,,,,13,,,,53,0
13572,note_on,120,0,3,,,,,,,,,3,,,,65,0
13572,note_on,0,0,3,,,,,,,,,3,,,,53,0
13573,note_on,120,0,10,,,,,,,,,14,,,,41,0
13584,control_change,18,0,6,,,,,,,,,10,11,61,,,
13587,control_change,18,0,7,,,,,,,,,11,11,61,,,
13587,control_change,18,0,1,,,,,,,,,0,11,61,,,
13589,control_change,18,0,2,,,,,,,,,1,11,61,,,
13590,note_on,6,0,6,,,,,,,,,10,,,,72,0
13593,note_on,6,0,7,,,,,,,,,11,,,,69,0
13599,note_on,12,0,1,,,,,,,,,0,,,,84,0
13601,note_on,12,0,2,,,,,,,,,1,,,,69,0
13601,note_on,0,0,2,,,,,,,,,1,,,,72,0
13602,control_change,12,0,6,,,,,,,,,10,11,63,,,
13605,control_change,6,0,1,,,,,,,,,0,11,63,,,
13605,control_change,12,0,7,,,,,,,,,11,11,63,,,
13607,control_change,6,0,2,,,,,,,,,1,11,63,,,
13620,control_change,18,0,6,,,,,,,,,10,11,65,,,
13620,note_on,0,0,6,,,,,,,,,10,,,,74,100
13623,control_change,18,0,1,,,,,,,,,0,11,65,,,
13623,control_change,18,0,7,,,,,,,,,11,11,65,,,
13623,note_on,0,0,7,,,,,,,,,11,,,,70,100
13623,note_on,0,0,1,,,,,,,,,0,,,,86,105
13625,note_on,0,0,2,,,,,,,,,1,,,,74,104
13625,note_on,0,0,2,,,,,,,,,1,,,,70,104
13625,control_change,18,0,2,,,,,,,,,1,11,65,,,
13638,control_change,18,0,6,,,,,,,,,10,11,67,,,
13641,control_change,18,0,1,,,,,,,,,0,11,67,,,
13641,control_change,18,0,7,,,,,,,,,11,11,67,,,
13643,control_change,18,0,2,,,,,,,,,1,11,67,,,
13650,note_on,12,0,6,,,,,,,,,10,,,,74,0
13653,note_on,12,0,7,,,,,,,,,11,,,,70,0
13656,control_change,6,0,6,,,,,,,,,10,11,69,,,
13659,control_change,0,0,1,,,,,,,,,0,11,69,,,
13659,note_on,18,0,1,,,,,,,,,0,,,,86,0
13659,control_change,6,0,7,,,,,,,,,11,11,69,,,
13661,note_on,18,0,2,,,,,,,,,1,,,,74,0
13661,control_change,0,0,2,,,,,,,,,1,11,69,,,
13661,note_on,0,0,2,,,,,,,,,1,,,,70,0
13674,control_change,18,0,6,,,,,,,,,10,11,71,,,
13677,control_change,18,0,1,,,,,,,,,0,11,71,,,
13677,control_change,18,0,7,,,,,,,,,11,11,71,,,
13679,control_change,18,0,2,,,,,,,,,1,11,71,,,
13680,note_on,6,0,6,,,,,,,,,10,,,,75,100
13680,set_tempo,120,1,0,,,,,,363636,,,,,,,,
13683,note_on,6,0,7,,,,,,,,,11,,,,72,100
13683,note_on,6,0,1,,,,,,,,,0,,,,87,82
13684,note_on,0,0,4,,,,,,,,,4,,,,53,86
13684,control_change,2520,0,4,,,,,,,,,4,11,72,,,
13685,note_on,6,0,2,,,,,,,,,1,,,,72,81
13685,note_on,0,0,2,,,,,,,,,1,,,,75,81
13686,note_on,0,0,5,,,,,,,,,5,,,,41,86
13686,control_change,2520,0,5,,,,,,,,,5,11,72,,,
13686,control_change,130,0,8,,,,,,,,,12,11,72,,,
13686,note_on,0,0,8,,,,,,,,,12,,,,57,98
13691,control_change,120,0,9,,,,,,,,,13,11,72,,,
13691,note_on,0,0,9,,,,,,,,,13,,,,53,89
13692,control_change,120,0,3,,,,,,,,,3,11,72,,,
13692,note_on,0,0,3,,,,,,,,,3,,,,57,81
13693,control_change,120,0,10,,,,,,,,,14,11,72,,,
13693,note_on,0,0,10,,,,,,,,,14,,,,41,73
13740,note_on,60,0,6,,,,,,,,,10,,,,75,0
13740,note_on,0,0,6,,,,,,,,,10,,,,79,100
13743,note_on,60,0,7,,,,,,,,,11,,,,72,0
13743,note_on,0,0,7,,,,,,,,,11,,,,75,100
13743,note_on,0,0,1,,,,,,,,,0,,,,91,82
13743,note_on,60,0,1,,,,,,,,,0,,,,87,0
13745,note_on,0,0,2,,,,,,,,,1,,,,79,81
13745,note_on,0,0,2,,,,,,,,,1,,,,75,81
13745,note_on,0,0,2,,,,,,,,,1,,,,72,0
13745,note_on,60,0,2,,,,,,,,,1,,,,75,0
13790,note_on,50,0,6,,,,,,,,,10,,,,79,0
13793,note_on,50,0,1,,,,,,,,,0,,,,91,0
13793,note_on,50,0,7,,,,,,,,,11,,,,75,0
13795,note_on,50,0,2,,,,,,,,,1,,,,75,0
13795,note_on,0,0,2,,,,,,,,,1,,,,79,0
13800,note_on,10,0,6,,,,,,,,,10,,,,75,100
13800,set_tempo,120,1,0,,,,,,382166,,,,,,,,
13803,note_on,10,0,7,,,,,,,,,11,,,,72,100
13803,note_on,10,0,1,,,,,,,,,0,,,,87,82
13805,note_on,10,0,2,,,,,,,,,1,,,,75,81
13805,note_on,0,0,2,,,,,,,,,1,,,,72,81
13830,note_on,30,0,6,,,,,,,,,10,,,,75,0
13833,note_on,30,0,7,,,,,,,,,11,,,,72,0
13839,note_on,36,0,1,,,,,,,,,0,,,,87,0
13841,note_on,36,0,2,,,,,,,,,1,,,,72,0
13841,note_on,0,0,2,,,,,,,,,1,,,,75,0
13860,note_on,30,0,6,,,,,,,,,10,,,,74,100
13863,note_on,30,0,7,,,,,,,,,11,,,,70,100
13863,note_on,24,0,1,,,,,,,,,0,,,,86,82
13865,note_on,24,0,2,,,,,,,,,1,,,,70,81
13865,note_on,0,0,2,,,,,,,,,1,,,,74,81
13866,note_on,180,0,8,,,,,,,,,12,,,,57,0
13866,note_on,0,0,8,,,,,,,,,12,,,,58,98
13872,note_on,180,0,3,,,,,,,,,3,,,,57,0
13872,note_on,0,0,3,,,,,,,,,3,,,,58,81
13890,note_on,30,0,6,,,,,,,,,10,,,,74,0
13893,note_on,30,0,7,,,,,,,,,11,,,,70,0
13899,note_on,36,0,1,,,,,,,,,0,,,,86,0
13901,note_on,36,0,2,,,,,,,,,1,,,,74,0
13901,note_on,0,0,2,,,,,,,,,1,,,,70,0
13916,note_on,50,0,8,,,,,,,,,12,,,,58,0
13920,set_tempo,120,1,0,,,,,,360360,,,,,,,,
13920,note_on,30,0,6,,,,,,,,,10,,,,72,100
13921,note_on,230,0,9,,,,,,,,,13,,,,53,0
13922,note_on,50,0,3,,,,,,,,,3,,,,58,0
13923,note_on,30,0,7,,,,,,,,,11,,,,69,100
13923,note_on,230,0,10,,,,,,,,,14,,,,41,0
13923,note_on,24,0,1,,,,,,,,,0,,,,84,82
13925,note_on,24,0,2,,,,,,,,,1,,,,72,81
13925,note_on,0,0,2,,,,,,,,,1,,,,69,81
13926,note_on,10,0,8,,,,,,,,,12,,,,65,98
13931,note_on,10,0,9,,,,,,,,,13,,,,53,89
13932,note_on,10,0,3,,,,,,,,,3,,,,65,81
13933,note_on,10,0,10,,,,,,,,,14,,,,41,73
13986,note_on,60,0,8,,,,,,,,,12,,,,65,0
13986,note_on,0,0,8,,,,,,,,,12,,,,64,98
13992,note_on,0,0,3,,,,,,,,,3,,,,64,81
13992,note_on,60,0,3,,,,,,,,,3,,,,65,0
14040,set_tempo,120,1,0,,,,,,382166,,,,,,,,
14046,note_on,60,0,8,,,,,,,,,12,,,,64,0
14046,note_on,0,0,8,,,,,,,,,12,,,,63,98
14052,note_on,60,0,3,,,,,,,,,3,,,,64,0
14052,note_on,0,0,3,,,,,,,,,3,,,,63,81
14100,note_on,180,0,6,,,,,,,,,10,,,,72,0
14100,note_on,0,0,6,,,,,,,,,10,,,,74,100
14103,note_on,180,0,1,,,,,,,,,0,,,,84,0
14103,note_on,0,0,1,,,,,,,,,0,,,,86,82
14103,note_on,0,0,7,,,,,,,,,11,,,,70,100
14103,note_on,180,0,7,,,,,,,,,11,,,,69,0
14105,note_on,0,0,2,,,,,,,,,1,,,,70,81
14105,note_on,0,0,2,,,,,,,,,1,,,,74,81
14105,note_on,0,0,2,,,,,,,,,1,,,,72,0
14105,note_on,180,0,2,,,,,,,,,1,,,,69,0
14106,note_on,0,0,8,,,,,,,,,12,,,,62,98
14106,note_on,60,0,8,,,,,,,,,12,,,,63,0
14112,note_on,0,0,3,,,,,,,,,3,,,,62,81
14112,note_on,60,0,3,,,,,,,,,3,,,,63,0
14150,note_on,50,0,6,,,,,,,,,10,,,,74,0
14153,note_on,50,0,1,,,,,,,,,0,,,,86,0
14153,note_on,50,0,7,,,,,,,,,11,,,,70,0
14155,note_on,50,0,2,,,,,,,,,1,,,,70,0
14155,note_on,0,0,2,,,,,,,,,1,,,,74,0
14156,note_on,50,0,8,,,,,,,,,12,,,,62,0
14160,set_tempo,120,1,0,,,,,,359281,,,,,,,,
14160,note_on,10,0,6,,,,,,,,,10,,,,75,100
14161,note_on,230,0,9,,,,,,,,,13,,,,53,0
14162,note_on,50,0,3,,,,,,,,,3,,,,62,0
14163,note_on,230,0,10,,,,,,,,,14,,,,41,0
14163,note_on,10,0,7,,,,,,,,,11,,,,72,100
14163,note_on,10,0,1,,,,,,,,,0,,,,87,82
14165,note_on,10,0,2,,,,,,,,,1,,,,75,81
14165,note_on,0,0,2,,,,,,,,,1,,,,72,81
14166,note_on,10,0,8,,,,,,,,,12,,,,57,98
14171,note_on,10,0,9,,,,,,,,,13,,,,53,89
14172,note_on,10,0,3,,,,,,,,,3,,,,57,81
14173,note_on,10,0,10,,,,,,,,,14,,,,41,73
14220,note_on,0,0,6,,,,,,,,,10,,,,79,100
14220,note_on,60,0,6,,,,,,,,,10,,,,75,0
14223,note_on,0,0,7,,,,,,,,,11,,,,75,100
14223,note_on,60,0,7,,,,,,,,,11,,,,72,0
14223,note_on,60,0,1,,,,,,,,,0,,,,87,0
14223,note_on,0,0,1,,,,,,,,,0,,,,91,82
14225,note_on,0,0,2,,,,,,,,,1,,,,79,81
14225,note_on,0,0,2,,,,,,,,,1,,,,75,0
14225,note_on,60,0,2,,,,,,,,,1,,,,72,0
14225,note_on,0,0,2,,,,,,,,,1,,,,75,81
14270,note_on,50,0,6,,,,,,,,,10,,,,79,0
14273,note_on,50,0,7,,,,,,,,,11,,,,75,0
14273,note_on,50,0,1,,,,,,,,,0,,,,91,0
14275,note_on,50,0,2,,,,,,,,,1,,,,75,0
14275,note_on,0,0,2,,,,,,,,,1,,,,79,0
14280,note_on,10,0,6,,,,,,,,,10,,,,75,100
14280,set_tempo,120,1,0,,,,,,382166,,,,,,,,
14283,note_on,10,0,7,,,,,,,,,11,,,,72,100
14283,note_on,10,0,1,,,,,,,,,0,,,,87,82
14285,note_on,10,0,2,,,,,,,,,1,,,,72,81
14285,note_on,0,0,2,,,,,,,,,1,,,,75,81
14310,note_on,30,0,6,,,,,,,,,10,,,,75,0
14313,note_on,30,0,7,,,,,,,,,11,,,,72,0
14319,note_on,36,0,1,,,,,,,,,0,,,,87,0
14321,note_on,0,0,2,,,,,,,,,1,,,,72,0
14321,note_on,36,0,2,,,,,,,,,1,,,,75,0
14340,note_on,30,0,6,,,,,,,,,10,,,,74,100
14343,note_on,24,0,1,,,,,,,,,0,,,,86,82
14343,note_on,30,0,7,,,,,,,,,11,,,,70,100
14345,note_on,24,0,2,,,,,,,,,1,,,,70,81
14345,note_on,0,0,2,,,,,,,,,1,,,,74,81
14346,note_on,0,0,8,,,,,,,,,12,,,,58,98
14346,note_on,180,0,8,,,,,,,,,12,,,,57,0
14352,note_on,0,0,3,,,,,,,,,3,,,,58,81
14352,note_on,180,0,3,,,,,,,,,3,,,,57,0
14370,note_on,30,0,6,,,,,,,,,10,,,,74,0
14373,note_on,30,0,7,,,,,,,,,11,,,,70,0
14379,note_on,36,0,1,,,,,,,,,0,,,,86,0
14381,note_on,0,0,2,,,,,,,,,1,,,,70,0
14381,note_on,36,0,2,,,,,,,,,1,,,,74,0
14396,note_on,50,0,8,,,,,,,,,12,,,,58,0
14400,set_tempo,120,1,0,,,,,,357143,,,,,,,,
14400,note_on,30,0,6,,,,,,,,,10,,,,72,100
14401,note_on,230,0,9,,,,,,,,,13,,,,53,0
14402,note_on,50,0,3,,,,,,,,,3,,,,58,0
14403,note_on,30,0,7,,,,,,,,,11,,,,69,100
14403,note_on,230,0,10,,,,,,,,,14,,,,41,0
14403,note_on,24,0,1,,,,,,,,,0,,,,84,82
14405,note_on,0,0,2,,,,,,,,,1,,,,69,81
14405,note_on,24,0,2,,,,,,,,,1,,,,72,81
14406,note_on,10,0,8,,,,,,,,,12,,,,65,98
14411,note_on,10,0,9,,,,,,,,,13,,,,53,89
14412,note_on,10,0,3,,,,,,,,,3,,,,65,81
14413,note_on,10,0,10,,,,,,,,,14,,,,41,73
14466,note_on,60,0,8,,,,,,,,,12,,,,65,0
14466,note_on,0,0,8,,,,,,,,,12,,,,64,98
14472,note_on,0,0,3,,,,,,,,,3,,,,64,81
14472,note_on,60,0,3,,,,,,,,,3,,,,65,0
14520,set_tempo,120,1,0,,,,,,382166,,,,,,,,
14526,note_on,60,0,8,,,,,,,,,12,,,,64,0
14526,note_on,0,0,8,,,,,,,,,12,,,,63,98
14532,note_on,0,0,3,,,,,,,,,3,,,,63,81
14532,note_on,60,0,3,,,,,,,,,3,,,,64,0
14580,note_on,0,0,6,,,,,,,,,10,,,,74,100
14580,note_on,180,0,6,,,,,,,,,10,,,,72,0
14583,note_on,180,0,7,,,,,,,,,11,,,,69,0
14583,note_on,180,0,1,,,,,,,,,0,,,,84,0
14583,note_on,0,0,7,,,,,,,,,11,,,,70,100
14583,note_on,0,0,1,,,,,,,,,0,,,,86,82
14585,note_on,0,0,2,,,,,,,,,1,,,,74,81
14585,note_on,0,0,2,,,,,,,,,1,,,,70,81
14585,note_on,0,0,2,,,,,,,,,1,,,,72,0
14585,note_on,180,0,2,,,,,,,,,1,,,,69,0
14586,note_on,0,0,8,,,,,,,,,12,,,,62,98
14586,note_on,60,0,8,,,,,,,,,12,,,,63,0
14592,note_on,60,0,3,,,,,,,,,3,,,,63,0
14592,note_on,0,0,3,,,,,,,,,3,,,,62,81
14630,note_on,50,0,6,,,,,,,,,10,,,,74,0
14633,note_on,50,0,1,,,,,,,,,0,,,,86,0
14633,note_on,50,0,7,,,,,,,,,11,,,,70,0
14635,note_on,50,0,2,,,,,,,,,1,,,,74,0
14635,note_on,0,0,2,,,,,,,,,1,,,,70,0
14636,note_on,50,0,8,,,,,,,,,12,,,,62,0
14640,note_on,10,0,6,,,,,,,,,10,,,,75,100
14640,set_tempo,120,1,0,,,,,,355030,,,,,,,,
14641,note_on,230,0,9,,,,,,,,,13,,,,53,0
14642,note_on,50,0,3,,,,,,,,,3,,,,62,0
14643,note_on,10,0,7,,,,,,,,,11,,,,72,100
14643,note_on,230,0,10,,,,,,,,,14,,,,41,0
14643,note_on,10,0,1,,,,,,,,,0,,,,87,82
14644,note_on,0,0,4,,,,,,,,,4,,,,53,86
14644,note_on,960,0,4,,,,,,,,,4,,,,53,0
14645,note_on,0,0,2,,,,,,,,,1,,,,75,81
14645,note_on,10,0,2,,,,,,,,,1,,,,72,81
14646,note_on,0,0,5,,,,,,,,,5,,,,41,86
14646,note_on,960,0,5,,,,,,,,,5,,,,41,0
14646,note_on,10,0,8,,,,,,,,,12,,,,53,98
14651,note_on,10,0,9,,,,,,,,,13,,,,53,89
14652,note_on,10,0,3,,,,,,,,,3,,,,53,81
14653,note_on,10,0,10,,,,,,,,,14,,,,41,73
14660,note_on,20,0,6,,,,,,,,,10,,,,75,0
14663,note_on,20,0,7,,,,,,,,,11,,,,72,0
14670,note_on,10,0,6,,,,,,,,,10,,,,75,92
14673,note_on,10,0,7,,,,,,,,,11,,,,72,92
14690,note_on,20,0,6,,,,,,,,,10,,,,75,0
14693,note_on,50,0,1,,,,,,,,,0,,,,87,0
14693,note_on,20,0,7,,,,,,,,,11,,,,72,0
14695,note_on,0,0,2,,,,,,,,,1,,,,72,0
14695,note_on,50,0,2,,,,,,,,,1,,,,75,0
14696,note_on,50,0,8,,,,,,,,,12,,,,53,0
14700,note_on,10,0,6,,,,,,,,,10,,,,74,100
14701,note_on,50,0,9,,,,,,,,,13,,,,53,0
14702,note_on,50,0,3,,,,,,,,,3,,,,53,0
14703,note_on,50,0,10,,,,,,,,,14,,,,41,0
14703,note_on,10,0,1,,,,,,,,,0,,,,86,82
14703,note_on,10,0,7,,,,,,,,,11,,,,71,100
14704,note_on,60,0,4,,,,,,,,,4,,,,53,0
14704,note_on,0,0,4,,,,,,,,,4,,,,53,86
14705,note_on,0,0,2,,,,,,,,,1,,,,74,81
14705,note_on,10,0,2,,,,,,,,,1,,,,71,81
14706,note_on,10,0,8,,,,,,,,,12,,,,65,98
14706,note_on,60,0,5,,,,,,,,,5,,,,41,0
14706,note_on,0,0,5,,,,,,,,,5,,,,41,86
14711,note_on,10,0,9,,,,,,,,,13,,,,53,89
14712,note_on,10,0,3,,,,,,,,,3,,,,53,81
14713,note_on,10,0,10,,,,,,,,,14,,,,41,73
14720,note_on,20,0,6,,,,,,,,,10,,,,74,0
14723,note_on,20,0,7,,,,,,,,,11,,,,71,0
14730,note_on,10,0,6,,,,,,,,,10,,,,74,92
14733,note_on,10,0,7,,,,,,,,,11,,,,71,92
14750,note_on,20,0,6,,,,,,,,,10,,,,74,0
14753,note_on,20,0,7,,,,,,,,,11,,,,71,0
14753,note_on,50,0,1,,,,,,,,,0,,,,86,0
14755,note_on,0,0,2,,,,,,,,,1,,,,71,0
14755,note_on,50,0,2,,,,,,,,,1,,,,74,0
14756,note_on,50,0,8,,,,,,,,,12,,,,65,0
14760,note_on,10,0,6,,,,,,,,,10,,,,75,100
14760,set_tempo,120,1,0,,,,,,382166,,,,,,,,
14761,note_on,50,0,9,,,,,,,,,13,,,,53,0
14762,note_on,50,0,3,,,,,,,,,3,,,,53,0
14763,note_on,10,0,7,,,,,,,,,11,,,,72,100
14763,note_on,10,0,1,,,,,,,,,0,,,,87,82
14763,note_on,50,0,10,,,,,,,,,14,,,,41,0
14764,note_on,0,0,4,,,,,,,,,4,,,,53,86
14764,note_on,60,0,4,,,,,,,,,4,,,,53,0
14765,note_on,10,0,2,,,,,,,,,1,,,,72,81
14765,note_on,0,0,2,,,,,,,,,1,,,,75,81
14766,note_on,0,0,5,,,,,,,,,5,,,,41,86
14766,note_on,60,0,5,,,,,,,,,5,,,,41,0
14766,note_on,10,0,8,,,,,,,,,12,,,,65,98
14771,note_on,10,0,9,,,,,,,,,13,,,,53,89
14772,note_on,10,0,3,,,,,,,,,3,,,,53,81
14773,note_on,10,0,10,,,,,,,,,14,,,,41,73
14780,note_on,20,0,6,,,,,,,,,10,,,,75,0
14783,note_on,20,0,7,,,,,,,,,11,,,,72,0
14790,note_on,10,0,6,,,,,,,,,10,,,,75,92
14793,note_on,10,0,7,,,,,,,,,11,,,,72,92
14810,note_on,20,0,6,,,,,,,,,10,,,,75,0
14813,note_on,20,0,7,,,,,,,,,11,,,,72,0
14813,note_on,50,0,1,,,,,,,,,0,,,,87,0
14815,note_on,0,0,2,,,,,,,,,1,,,,72,0
14815,note_on,50,0,2,,,,,,,,,1,,,,75,0
14816,note_on,50,0,8,,,,,,,,,12,,,,65,0
14820,note_on,10,0,6,,,,,,,,,10,,,,74,100
14821,note_on,50,0,9,,,,,,,,,13,,,,53,0
14822,note_on,50,0,3,,,,,,,,,3,,,,53,0
14823,note_on,10,0,7,,,,,,,,,11,,,,71,100
14823,note_on,10,0,1,,,,,,,,,0,,,,86,82
14823,note_on,50,0,10,,,,,,,,,14,,,,41,0
14824,note_on,60,0,4,,,,,,,,,4,,,,53,0
14824,note_on,0,0,4,,,,,,,,,4,,,,53,86
14825,note_on,0,0,2,,,,,,,,,1,,,,74,81
14825,note_on,10,0,2,,,,,,,,,1,,,,71,81
14826,note_on,0,0,5,,,,,,,,,5,,,,41,86
14826,note_on,10,0,8,,,,,,,,,12,,,,65,98
14826,note_on,60,0,5,,,,,,,,,5,,,,41,0
14831,note_on,10,0,9,,,,,,,,,13,,,,53,89
14832,note_on,10,0,3,,,,,,,,,3,,,,53,81
14833,note_on,10,0,10,,,,,,,,,14,,,,41,73
14840,note_on,20,0,6,,,,,,,,,10,,,,74,0
14843,note_on,20,0,7,,,,,,,,,11,,,,71,0
14850,note_on,10,0,6,,,,,,,,,10,,,,74,92
14853,note_on,10,0,7,,,,,,,,,11,,,,71,92
14870,note_on,20,0,6,,,,,,,,,10,,,,74,0
14873,note_on,20,0,7,,,,,,,,,11,,,,71,0
14873,note_on,50,0,1,,,,,,,,,0,,,,86,0
14875,note_on,50,0,2,,,,,,,,,1,,,,74,0
14875,note_on,0,0,2,,,,,,,,,1,,,,71,0
14876,note_on,50,0,8,,,,,,,,,12,,,,65,0
14880,set_tempo,120,1,0,,,,,,355030,,,,,,,,
14880,note_on,10,0,6,,,,,,,,,10,,,,75,100
14881,note_on,50,0,9,,,,,,,,,13,,,,53,0
14882,note_on,50,0,3,,,,,,,,,3,,,,53,0
14883,note_on,10,0,1,,,,,,,,,0,,,,87,82
14883,note_on,10,0,7,,,,,,,,,11,,,,72,100
14883,note_on,50,0,10,,,,,,,,,14,,,,41,0
14884,note_on,0,0,4,,,,,,,,,4,,,,53,86
14884,note_on,60,0,4,,,,,,,,,4,,,,53,0
14885,note_on,10,0,2,,,,,,,,,1,,,,72,81
14885,note_on,0,0,2,,,,,,,,,1,,,,75,81
14886,note_on,10,0,8,,,,,,,,,12,,,,65,98
14886,note_on,60,0,5,,,,,,,,,5,,,,41,0
14886,note_on,0,0,5,,,,,,,,,5,,,,41,86
14891,note_on,10,0,9,,,,,,,,,13,,,,53,89
14892,note_on,10,0,3,,,,,,,,,3,,,,53,81
14893,note_on,10,0,10,,,,,,,,,14,,,,41,73
14900,note_on,20,0,6,,,,,,,,,10,,,,75,0
14903,note_on,20,0,7,,,,,,,,,11,,,,72,0
14910,note_on,10,0,6,,,,,,,,,10,,,,75,92
14913,note_on,10,0,7,,,,,,,,,11,,,,72,92
14930,note_on,20,0,6,,,,,,,,,10,,,,75,0
14933,note_on,50,0,1,,,,,,,,,0,,,,87,0
14933,note_on,20,0,7,,,,,,,,,11,,,,72,0
14935,note_on,0,0,2,,,,,,,,,1,,,,72,0
14935,note_on,50,0,2,,,,,,,,,1,,,,75,0
14936,note_on,50,0,8,,,,,,,,,12,,,,65,0
14940,note_on,10,0,6,,,,,,,,,10,,,,74,100
14941,note_on,50,0,9,,,,,,,,,13,,,,53,0
14942,note_on,50,0,3,,,,,,,,,3,,,,53,0
14943,note_on,50,0,10,,,,,,,,,14,,,,41,0
14943,note_on,10,0,7,,,,,,,,,11,,,,71,100
14943,note_on,10,0,1,,,,,,,,,0,,,,86,82
14944,note_on,0,0,4,,,,,,,,,4,,,,53,86
14944,note_on,60,0,4,,,,,,,,,4,,,,53,0
14945,note_on,10,0,2,,,,,,,,,1,,,,74,81
14945,note_on,0,0,2,,,,,,,,,1,,,,71,81
14946,note_on,10,0,8,,,,,,,,,12,,,,65,98
14946,note_on,0,0,5,,,,,,,,,5,,,,41,86
14946,note_on,60,0,5,,,,,,,,,5,,,,41,0
14951,note_on,10,0,9,,,,,,,,,13,,,,53,89
14952,note_on,10,0,3,,,,,,,,,3,,,,53,81
14953,note_on,10,0,10,,,,,,,,,14,,,,41,73
14960,note_on,20,0,6,,,,,,,,,10,,,,74,0
14963,note_on,20,0,7,,,,,,,,,11,,,,71,0
14970,note_on,10,0,6,,,,,,,,,10,,,,74,92
14973,note_on,10,0,7,,,,,,,,,11,,,,71,92
14990,note_on,20,0,6,,,,,,,,,10,,,,74,0
14993,note_on,50,0,1,,,,,,,,,0,,,,86,0
14993,note_on,20,0,7,,,,,,,,,11,,,,71,0
14995,note_on,0,0,2,,,,,,,,,1,,,,74,0
14995,note_on,50,0,2,,,,,,,,,1,,,,71,0
14996,note_on,50,0,8,,,,,,,,,12,,,,65,0
15000,set_tempo,120,1,0,,,,,,382166,,,,,,,,
15000,note_on,10,0,6,,,,,,,,,10,,,,75,100
15001,note_on,50,0,9,,,,,,,,,13,,,,53,0
15002,note_on,50,0,3,,,,,,,,,3,,,,53,0
15003,note_on,50,0,10,,,,,,,,,14,,,,41,0
15003,note_on,10,0,1,,,,,,,,,0,,,,87,82
15003,note_on,10,0,7,,,,,,,,,11,,,,72,100
15004,note_on,60,0,4,,,,,,,,,4,,,,53,0
15004,note_on,0,0,4,,,,,,,,,4,,,,53,86
15005,note_on,10,0,2,,,,,,,,,1,,,,75,81
15005,note_on,0,0,2,,,,,,,,,1,,,,72,81
15006,note_on,60,0,5,,,,,,,,,5,,,,41,0
15006,note_on,0,0,5,,,,,,,,,5,,,,41,86
15006,note_on,10,0,8,,,,,,,,,12,,,,65,98
15011,note_on,10,0,9,,,,,,,,,13,,,,53,89
15012,note_on,10,0,3,,,,,,,,,3,,,,53,81
15013,note_on,10,0,10,,,,,,,,,14,,,,41,73
15020,note_on,20,0,6,,,,,,,,,10,,,,75,0
15023,note_on,20,0,7,,,,,,,,,11,,,,72,0
15030,note_on,10,0,6,,,,,,,,,10,,,,75,92
15033,note_on,10,0,7,,,,,,,,,11,,,,72,92
15050,note_on,20,0,6,,,,,,,,,10,,,,75,0
15053,note_on,50,0,1,,,,,,,,,0,,,,87,0
15053,note_on,20,0,7,,,,,,,,,11,,,,72,0
15055,note_on,0,0,2,,,,,,,,,1,,,,75,0
15055,note_on,50,0,2,,,,,,,,,1,,,,72,0
15056,note_on,50,0,8,,,,,,,,,12,,,,65,0
15060,note_on,10,0,6,,,,,,,,,10,,,,74,100
15061,note_on,50,0,9,,,,,,,,,13,,,,53,0
15062,note_on,50,0,3,,,,,,,,,3,,,,53,0
15063,note_on,50,0,10,,,,,,,,,14,,,,41,0
15063,note_on,10,0,1,,,,,,,,,0,,,,86,82
15063,note_on,10,0,7,,,,,,,,,11,,,,71,100
15064,note_on,60,0,4,,,,,,,,,4,,,,53,0
15064,note_on,0,0,4,,,,,,,,,4,,,,53,86
15065,note_on,10,0,2,,,,,,,,,1,,,,74,81
15065,note_on,0,0,2,,,,,,,,,1,,,,71,81
15066,note_on,60,0,5,,,,,,,,,5,,,,41,0
15066,note_on,0,0,5,,,,,,,,,5,,,,41,86
15066,note_on,10,0,8,,,,,,,,,12,,,,65,98
15071,note_on,10,0,9,,,,,,,,,13,,,,53,89
15072,note_on,10,0,3,,,,,,,,,3,,,,53,81
15073,note_on,10,0,10,,,,,,,,,14,,,,41,73
15080,note_on,20,0,6,,,,,,,,,10,,,,74,0
15083,note_on,20,0,7,,,,,,,,,11,,,,71,0
15090,note_on,10,0,6,,,,,,,,,10,,,,74,92
15093,note_on,10,0,7,,,,,,,,,11,,,,71,92
15110,note_on,20,0,6,,,,,,,,,10,,,,74,0
15113,note_on,20,0,7,,,,,,,,,11,,,,71,0
15113,note_on,50,0,1,,,,,,,,,0,,,,86,0
15115,note_on,50,0,2,,,,,,,,,1,,,,71,0
15115,note_on,0,0,2,,,,,,,,,1,,,,74,0
15116,note_on,50,0,8,,,,,,,,,12,,,,65,0
15120,set_tempo,120,1,0,,,,,,400000,,,,,,,,
15120,note_on,10,0,6,,,,,,,,,10,,,,75,100
15121,note_on,50,0,9,,,,,,,,,13,,,,53,0
15122,note_on,50,0,3,,,,,,,,,3,,,,53,0
15123,note_on,10,0,7,,,,,,,,,11,,,,72,100
15123,note_on,50,0,10,,,,,,,,,14,,,,41,0
15123,note_on,10,0,1,,,,,,,,,0,,,,87,82
15124,note_on,0,0,4,,,,,,,,,4,,,,53,86
15124,note_on,60,0,4,,,,,,,,,4,,,,53,0
15125,note_on,10,0,2,,,,,,,,,1,,,,72,81
15125,note_on,0,0,2,,,,,,,,,1,,,,75,81
15126,note_on,60,0,5,,,,,,,,,5,,,,41,0
15126,note_on,0,0,5,,,,,,,,,5,,,,41,86
15126,note_on,10,0,8,,,,,,,,,12,,,,65,98
15131,note_on,10,0,9,,,,,,,,,13,,,,53,89
15132,note_on,10,0,3,,,,,,,,,3,,,,53,81
15133,note_on,10,0,10,,,,,,,,,14,,,,41,73
15180,note_on,60,0,6,,,,,,,,,10,,,,75,0
15183,note_on,60,0,7,,,,,,,,,11,,,,72,0
15183,note_on,60,0,1,,,,,,,,,0,,,,87,0
15184,note_on,60,0,4,,,,,,,,,4,,,,53,0
15185,note_on,60,0,2,,,,,,,,,1,,,,75,0
15185,note_on,0,0,2,,,,,,,,,1,,,,72,0
15186,note_on,60,0,8,,,,,,,,,12,,,,65,0
15186,note_on,60,0,5,,,,,,,,,5,,,,41,0
15191,note_on,60,0,9,,,,,,,,,13,,,,53,0
15192,note_on,60,0,3,,,,,,,,,3,,,,53,0
15193,note_on,60,0,10,,,,,,,,,14,,,,41,0
15240,set_tempo,120,1,0,,,,,,461538,,,,,,,,
15240,note_on,60,0,6,,,,,,,,,10,,,,84,100
15240,note_on,0,0,6,,,,,,,,,10,,,,75,100
15243,note_on,0,0,7,,,,,,,,,11,,,,65,100
15243,note_on,0,0,7,,,,,,,,,11,,,,81,100
15243,note_on,60,0,7,,,,,,,,,11,,,,72,100
15243,note_on,60,0,1,,,,,,,,,0,,,,81,82
15244,note_on,60,0,4,,,,,,,,,4,,,,53,86
15245,note_on,60,0,2,,,,,,,,,1,,,,75,81
15245,note_on,0,0,2,,,,,,,,,1,,,,69,81
15246,note_on,60,0,5,,,,,,,,,5,,,,41,86
15246,note_on,60,0,8,,,,,,,,,12,,,,53,98
15251,note_on,60,0,9,,,,,,,,,13,,,,41,89
15252,note_on,60,0,3,,,,,,,,,3,,,,41,81
15253,note_on,60,0,10,,,,,,,,,14,,,,29,73
15300,note_on,60,0,6,,,,,,,,,10,,,,75,0
15300,note_on,0,0,6,,,,,,,,,10,,,,84,0
15303,note_on,60,0,7,,,,,,,,,11,,,,65,0
15303,note_on,0,0,7,,,,,,,,,11,,,,81,0
15303,note_on,0,0,7,,,,,,,,,11,,,,72,0
15303,note_on,60,0,1,,,,,,,,,0,,,,81,0
15304,note_on,60,0,4,,,,,,,,,4,,,,53,0
15305,note_on,0,0,2,,,,,,,,,1,,,,75,0
15305,note_on,60,0,2,,,,,,,,,1,,,,69,0
15306,note_on,60,0,5,,,,,,,,,5,,,,41,0
15306,note_on,60,0,8,,,,,,,,,12,,,,53,0
15311,note_on,60,0,9,,,,,,,,,13,,,,41,0
15312,note_on,60,0,3,,,,,,,,,3,,,,41,0
15313,note_on,60,0,10,,,,,,,,,14,,,,29,0
15480,set_tempo,240,1,0,,,,,,382166,,,,,,,,
15540,note_on,0,0,6,,,,,,,,,10,,,,77,73
15540,set_tempo,60,1,0,,,,,,409556,,,,,,,,
15540,control_change,240,0,6,,,,,,,,,10,11,37,,,
15543,control_change,240,0,7,,,,,,,,,11,11,37,,,
15543,note_on,0,0,7,,,,,,,,,11,,,,65,92
15558,control_change,18,0,6,,,,,,,,,10,11,40,,,
15561,control_change,18,0,7,,,,,,,,,11,11,40,,,
15576,control_change,18,0,6,,,,,,,,,10,11,43,,,
15579,control_change,18,0,7,,,,,,,,,11,11,43,,,
15590,note_on,14,0,6,,,,,,,,,10,,,,77,0
15593,note_on,14,0,7,,,,,,,,,11,,,,65,0
15594,control_change,4,0,6,,,,,,,,,10,11,46,,,
15597,control_change,4,0,7,,,,,,,,,11,11,46,,,
15600,note_on,6,0,6,,,,,,,,,10,,,,77,80
15600,set_tempo,60,1,0,,,,,,372671,,,,,,,,
15603,note_on,6,0,7,,,,,,,,,11,,,,65,100
15605,control_change,300,0,2,,,,,,,,,1,11,47,,,
15605,note_on,0,0,2,,,,,,,,,1,,,,77,81
15605,note_on,0,0,2,,,,,,,,,1,,,,65,81
15606,note_on,0,0,8,,,,,,,,,12,,,,62,83
15606,control_change,300,0,8,,,,,,,,,12,11,47,,,
15611,note_on,0,0,9,,,,,,,,,13,,,,50,74
15611,control_change,300,0,9,,,,,,,,,13,11,47,,,
15612,control_change,300,0,3,,,,,,,,,3,11,47,,,
15612,note_on,0,0,3,,,,,,,,,3,,,,50,81
15612,note_on,0,0,3,,,,,,,,,3,,,,58,81
15613,control_change,300,0,10,,,,,,,,,14,11,47,,,
15613,note_on,0,0,10,,,,,,,,,14,,,,38,59
15660,note_on,60,0,6,,,,,,,,,10,,,,77,0
15660,note_on,0,0,6,,,,,,,,,10,,,,79,80
15663,note_on,0,0,7,,,,,,,,,11,,,,67,100
15663,note_on,60,0,7,,,,,,,,,11,,,,65,0
15710,note_on,50,0,6,,,,,,,,,10,,,,79,0
15713,note_on,50,0,7,,,,,,,,,11,,,,67,0
15720,note_on,10,0,6,,,,,,,,,10,,,,81,80
15720,set_tempo,120,1,0,,,,,,382166,,,,,,,,
15723,note_on,10,0,7,,,,,,,,,11,,,,69,100
15726,note_on,120,0,8,,,,,,,,,12,,,,62,0
15731,note_on,120,0,9,,,,,,,,,13,,,,50,0
15732,note_on,120,0,3,,,,,,,,,3,,,,58,0
15732,note_on,0,0,3,,,,,,,,,3,,,,50,0
15733,note_on,120,0,10,,,,,,,,,14,,,,38,0
15750,note_on,30,0,6,,,,,,,,,10,,,,81,0
15753,note_on,30,0,7,,,,,,,,,11,,,,69,0
15780,note_on,30,0,6,,,,,,,,,10,,,,82,80
15783,note_on,30,0,7,,,,,,,,,11,,,,70,100
15810,note_on,30,0,6,,,,,,,,,10,,,,82,0
15813,note_on,30,0,7,,,,,,,,,11,,,,70,0
15840,set_tempo,120,1,0,,,,,,355030,,,,,,,,
15840,note_on,30,0,6,,,,,,,,,10,,,,82,80
15843,note_on,30,0,7,,,,,,,,,11,,,,70,100
15846,note_on,120,0,8,,,,,,,,,12,,,,63,83
15851,note_on,120,0,9,,,,,,,,,13,,,,51,74
15852,note_on,0,0,3,,,,,,,,,3,,,,60,81
15852,note_on,120,0,3,,,,,,,,,3,,,,51,81
15853,note_on,120,0,10,,,,,,,,,14,,,,39,59
15900,note_on,0,0,6,,,,,,,,,10,,,,81,80
15900,note_on,60,0,6,,,,,,,,,10,,,,82,0
15903,note_on,60,0,7,,,,,,,,,11,,,,70,0
15903,note_on,0,0,7,,,,,,,,,11,,,,69,100
15950,note_on,50,0,6,,,,,,,,,10,,,,81,0
15953,note_on,50,0,7,,,,,,,,,11,,,,69,0
15960,set_tempo,120,1,0,,,,,,382166,,,,,,,,
15960,note_on,10,0,6,,,,,,,,,10,,,,79,80
15963,note_on,10,0,7,,,,,,,,,11,,,,67,100
15966,note_on,120,0,8,,,,,,,,,12,,,,63,0
15971,note_on,120,0,9,,,,,,,,,13,,,,51,0
15972,note_on,0,0,3,,,,,,,,,3,,,,51,0
15972,note_on,120,0,3,,,,,,,,,3,,,,60,0
15973,note_on,120,0,10,,,,,,,,,14,,,,39,0
15990,note_on,30,0,6,,,,,,,,,10,,,,79,0
15993,note_on,30,0,7,,,,,,,,,11,,,,67,0
16020,note_on,30,0,6,,,,,,,,,10,,,,77,80
16023,note_on,30,0,7,,,,,,,,,11,,,,65,100
16050,note_on,30,0,6,,,,,,,,,10,,,,77,0
16053,note_on,30,0,7,,,,,,,,,11,,,,65,0
16080,control_change,30,0,6,,,,,,,,,10,11,47,,,
16080,note_on,0,0,6,,,,,,,,,10,,,,82,80
16080,set_tempo,120,1,0,,,,,,355030,,,,,,,,
16083,note_on,0,0,7,,,,,,,,,11,,,,70,100
16083,note_on,0,0,1,,,,,,,,,0,,,,82,82
16083,control_change,30,0,7,,,,,,,,,11,11,47,,,
16083,control_change,780,0,1,,,,,,,,,0,11,47,,,
16085,note_on,0,0,2,,,,,,,,,1,,,,77,0
16085,note_on,480,0,2,,,,,,,,,1,,,,65,0
16085,note_on,0,0,2,,,,,,,,,1,,,,70,81
16085,control_change,0,0,2,,,,,,,,,1,11,47,,,
16085,note_on,0,0,2,,,,,,,,,1,,,,65,81
16086,control_change,120,0,8,,,,,,,,,12,11,47,,,
16086,note_on,0,0,8,,,,,,,,,12,,,,62,83
16091,control_change,120,0,9,,,,,,,,,13,11,47,,,
16091,note_on,0,0,9,,,,,,,,,13,,,,50,74
16092,note_on,0,0,3,,,,,,,,,3,,,,50,81
16092,note_on,0,0,3,,,,,,,,,3,,,,58,81
16092,control_change,120,0,3,,,,,,,,,3,11,47,,,
16093,control_change,120,0,10,,,,,,,,,14,11,47,,,
16093,note_on,0,0,10,,,,,,,,,14,,,,38,59
16103,control_change,23,0,6,,,,,,,,,10,11,49,,,
16106,control_change,23,0,7,,,,,,,,,11,11,49,,,
16106,control_change,23,0,1,,,,,,,,,0,11,49,,,
16108,control_change,23,0,2,,,,,,,,,1,11,49,,,
16109,control_change,23,0,8,,,,,,,,,12,11,49,,,
16114,control_change,23,0,9,,,,,,,,,13,11,49,,,
16115,control_change,23,0,3,,,,,,,,,3,11,49,,,
16116,control_change,23,0,10,,,,,,,,,14,11,49,,,
16127,control_change,24,0,6,,,,,,,,,10,11,51,,,
16130,note_on,3,0,6,,,,,,,,,10,,,,82,0
16130,control_change,24,0,7,,,,,,,,,11,11,51,,,
16130,control_change,24,0,1,,,,,,,,,0,11,51,,,
16132,control_change,24,0,2,,,,,,,,,1,11,51,,,
16133,note_on,3,0,7,,,,,,,,,11,,,,70,0
16133,control_change,24,0,8,,,,,,,,,12,11,51,,,
16138,control_change,24,0,9,,,,,,,,,13,11,51,,,
16139,control_change,24,0,3,,,,,,,,,3,11,51,,,
16140,note_on,10,0,6,,,,,,,,,10,,,,82,80
16140,control_change,24,0,10,,,,,,,,,14,11,51,,,
16143,note_on,10,0,7,,,,,,,,,11,,,,70,100
16143,note_on,13,0,1,,,,,,,,,0,,,,82,0
16145,note_on,0,0,2,,,,,,,,,1,,,,65,0
16145,note_on,13,0,2,,,,,,,,,1,,,,70,0
16146,note_on,13,0,8,,,,,,,,,12,,,,62,0
16151,control_change,11,0,6,,,,,,,,,10,11,53,,,
16151,note_on,13,0,9,,,,,,,,,13,,,,50,0
16152,note_on,13,0,3,,,,,,,,,3,,,,50,0
16152,note_on,0,0,3,,,,,,,,,3,,,,58,0
16153,note_on,13,0,10,,,,,,,,,14,,,,38,0
16154,control_change,11,0,7,,,,,,,,,11,11,53,,,
16154,control_change,11,0,1,,,,,,,,,0,11,53,,,
16156,control_change,11,0,2,,,,,,,,,1,11,53,,,
16157,control_change,11,0,8,,,,,,,,,12,11,53,,,
16162,control_change,11,0,9,,,,,,,,,13,11,53,,,
16163,control_change,11,0,3,,,,,,,,,3,11,53,,,
16164,control_change,11,0,10,,,,,,,,,14,11,53,,,
16175,control_change,24,0,6,,,,,,,,,10,11,55,,,
16178,control_change,24,0,7,,,,,,,,,11,11,55,,,
16178,control_change,24,0,1,,,,,,,,,0,11,55,,,
16180,control_change,24,0,2,,,,,,,,,1,11,55,,,
16181,control_change,24,0,8,,,,,,,,,12,11,55,,,
16186,control_change,24,0,9,,,,,,,,,13,11,55,,,
16187,control_change,24,0,3,,,,,,,,,3,11,55,,,
16188,control_change,24,0,10,,,,,,,,,14,11,55,,,
16190,note_on,15,0,6,,,,,,,,,10,,,,82,0
16193,note_on,15,0,7,,,,,,,,,11,,,,70,0
16199,control_change,9,0,6,,,,,,,,,10,11,57,,,
16200,note_on,1,0,6,,,,,,,,,10,,,,86,80
16200,set_tempo,120,1,0,,,,,,382166,,,,,,,,
16202,control_change,24,0,1,,,,,,,,,0,11,57,,,
16202,control_change,9,0,7,,,,,,,,,11,11,57,,,
16203,note_on,1,0,1,,,,,,,,,0,,,,84,82
16203,note_on,1,0,7,,,,,,,,,11,,,,74,100
16204,control_change,24,0,2,,,,,,,,,1,11,57,,,
16205,control_change,24,0,8,,,,,,,,,12,11,57,,,
16205,note_on,1,0,2,,,,,,,,,1,,,,69,81
16205,note_on,0,0,2,,,,,,,,,1,,,,72,81
16206,note_on,1,0,8,,,,,,,,,12,,,,69,83
16210,control_change,24,0,9,,,,,,,,,13,11,57,,,
16211,control_change,24,0,3,,,,,,,,,3,11,57,,,
16211,note_on,1,0,9,,,,,,,,,13,,,,53,74
16212,control_change,24,0,10,,,,,,,,,14,11,57,,,
16212,note_on,0,0,3,,,,,,,,,3,,,,60,81
16212,note_on,1,0,3,,,,,,,,,3,,,,53,81
16213,note_on,1,0,10,,,,,,,,,14,,,,41,59
16223,control_change,23,0,6,,,,,,,,,10,11,59,,,
16226,control_change,23,0,1,,,,,,,,,0,11,59,,,
16226,control_change,23,0,7,,,,,,,,,11,11,59,,,
16228,control_change,23,0,2,,,,,,,,,1,11,59,,,
16229,control_change,23,0,8,,,,,,,,,12,11,59,,,
16230,note_on,7,0,6,,,,,,,,,10,,,,86,0
16230,note_on,0,0,6,,,,,,,,,10,,,,84,80
16233,note_on,0,0,7,,,,,,,,,11,,,,72,100
16233,note_on,7,0,7,,,,,,,,,11,,,,74,0
16234,control_change,23,0,9,,,,,,,,,13,11,59,,,
16235,control_change,23,0,3,,,,,,,,,3,11,59,,,
16236,control_change,23,0,10,,,,,,,,,14,11,59,,,
16247,control_change,17,0,6,,,,,,,,,10,11,61,,,
16250,control_change,17,0,7,,,,,,,,,11,11,61,,,
16250,note_on,3,0,6,,,,,,,,,10,,,,84,0
16250,control_change,24,0,1,,,,,,,,,0,11,61,,,
16252,control_change,24,0,2,,,,,,,,,1,11,61,,,
16253,control_change,24,0,8,,,,,,,,,12,11,61,,,
16253,note_on,3,0,7,,,,,,,,,11,,,,72,0
16258,control_change,24,0,9,,,,,,,,,13,11,61,,,
16259,control_change,24,0,3,,,,,,,,,3,11,61,,,
16260,note_on,10,0,6,,,,,,,,,10,,,,82,80
16260,control_change,24,0,10,,,,,,,,,14,11,61,,,
16263,note_on,10,0,7,,,,,,,,,11,,,,70,100
16263,note_on,13,0,1,,,,,,,,,0,,,,84,0
16265,note_on,0,0,2,,,,,,,,,1,,,,69,0
16265,note_on,13,0,2,,,,,,,,,1,,,,72,0
16266,note_on,13,0,8,,,,,,,,,12,,,,69,0
16271,note_on,13,0,9,,,,,,,,,13,,,,53,0
16271,control_change,11,0,6,,,,,,,,,10,11,62,,,
16272,note_on,0,0,3,,,,,,,,,3,,,,53,0
16272,note_on,13,0,3,,,,,,,,,3,,,,60,0
16273,note_on,13,0,10,,,,,,,,,14,,,,41,0
16274,control_change,11,0,1,,,,,,,,,0,11,62,,,
16274,control_change,11,0,7,,,,,,,,,11,11,62,,,
16276,control_change,11,0,2,,,,,,,,,1,11,62,,,
16277,control_change,11,0,8,,,,,,,,,12,11,62,,,
16280,note_on,9,0,6,,,,,,,,,10,,,,82,0
16282,control_change,11,0,9,,,,,,,,,13,11,62,,,
16283,control_change,11,0,3,,,,,,,,,3,11,62,,,
16283,note_on,9,0,7,,,,,,,,,11,,,,70,0
16284,control_change,11,0,10,,,,,,,,,14,11,62,,,
16290,note_on,10,0,6,,,,,,,,,10,,,,84,80
16293,note_on,10,0,7,,,,,,,,,11,,,,72,100
16295,control_change,5,0,6,,,,,,,,,10,11,64,,,
16298,control_change,5,0,7,,,,,,,,,11,11,64,,,
16298,control_change,24,0,1,,,,,,,,,0,11,64,,,
16300,control_change,24,0,2,,,,,,,,,1,11,64,,,
16301,control_change,24,0,8,,,,,,,,,12,11,64,,,
16306,control_change,24,0,9,,,,,,,,,13,11,64,,,
16307,control_change,24,0,3,,,,,,,,,3,11,64,,,
16308,control_change,24,0,10,,,,,,,,,14,11,64,,,
16310,note_on,15,0,6,,,,,,,,,10,,,,84,0
16313,note_on,15,0,7,,,,,,,,,11,,,,72,0
16319,control_change,9,0,6,,,,,,,,,10,11,65,,,
16320,set_tempo,120,1,0,,,,,,355030,,,,,,,,
16320,note_on,1,0,6,,,,,,,,,10,,,,86,80
16322,control_change,24,0,1,,,,,,,,,0,11,65,,,
16322,control_change,9,0,7,,,,,,,,,11,11,65,,,
16323,note_on,1,0,1,,,,,,,,,0,,,,86,82
16323,note_on,1,0,7,,,,,,,,,11,,,,74,100
16324,control_change,24,0,2,,,,,,,,,1,11,65,,,
16325,control_change,24,0,8,,,,,,,,,12,11,65,,,
16325,note_on,0,0,2,,,,,,,,,1,,,,74,81
16325,note_on,1,0,2,,,,,,,,,1,,,,70,81
16326,note_on,1,0,8,,,,,,,,,12,,,,70,83
16330,control_change,24,0,9,,,,,,,,,13,11,65,,,
16331,note_on,1,0,9,,,,,,,,,13,,,,58,74
16331,control_change,24,0,3,,,,,,,,,3,11,65,,,
16332,control_change,24,0,10,,,,,,,,,14,11,65,,,
16332,note_on,1,0,3,,,,,,,,,3,,,,58,81
16332,note_on,0,0,3,,,,,,,,,3,,,,62,81
16333,note_on,1,0,10,,,,,,,,,14,,,,46,59
16343,control_change,23,0,6,,,,,,,,,10,11,66,,,
16346,control_change,23,0,1,,,,,,,,,0,11,66,,,
16346,control_change,23,0,7,,,,,,,,,11,11,66,,,
16348,control_change,23,0,2,,,,,,,,,1,11,66,,,
16349,control_change,23,0,8,,,,,,,,,12,11,66,,,
16354,control_change,23,0,9,,,,,,,,,13,11,66,,,
16355,control_change,23,0,3,,,,,,,,,3,11,66,,,
16356,control_change,23,0,10,,,,,,,,,14,11,66,,,
16367,control_change,24,0,6,,,,,,,,,10,11,68,,,
16370,note_on,3,0,6,,,,,,,,,10,,,,86,0
16370,control_change,24,0,1,,,,,,,,,0,11,68,,,
16370,control_change,24,0,7,,,,,,,,,11,11,68,,,
16372,control_change,24,0,2,,,,,,,,,1,11,68,,,
16373,control_change,24,0,8,,,,,,,,,12,11,68,,,
16373,note_on,3,0,7,,,,,,,,,11,,,,74,0
16378,control_change,24,0,9,,,,,,,,,13,11,68,,,
16379,control_change,24,0,3,,,,,,,,,3,11,68,,,
16380,note_on,10,0,6,,,,,,,,,10,,,,86,80
16380,control_change,24,0,10,,,,,,,,,14,11,68,,,
16383,note_on,13,0,1,,,,,,,,,0,,,,86,0
16383,note_on,10,0,7,,,,,,,,,11,,,,74,100
16385,note_on,0,0,2,,,,,,,,,1,,,,70,0
16385,note_on,13,0,2,,,,,,,,,1,,,,74,0
16386,note_on,13,0,8,,,,,,,,,12,,,,70,0
16391,note_on,13,0,9,,,,,,,,,13,,,,58,0
16391,control_change,11,0,6,,,,,,,,,10,11,69,,,
16392,note_on,13,0,3,,,,,,,,,3,,,,62,0
16392,note_on,0,0,3,,,,,,,,,3,,,,58,0
16393,note_on,13,0,10,,,,,,,,,14,,,,46,0
16394,control_change,11,0,7,,,,,,,,,11,11,69,,,
16394,control_change,11,0,1,,,,,,,,,0,11,69,,,
16396,control_change,11,0,2,,,,,,,,,1,11,69,,,
16397,control_change,11,0,8,,,,,,,,,12,11,69,,,
16402,control_change,11,0,9,,,,,,,,,13,11,69,,,
16403,control_change,11,0,3,,,,,,,,,3,11,69,,,
16404,control_change,11,0,10,,,,,,,,,14,11,69,,,
16415,control_change,24,0,6,,,,,,,,,10,11,71,,,
16418,control_change,24,0,1,,,,,,,,,0,11,71,,,
16418,control_change,24,0,7,,,,,,,,,11,11,71,,,
16420,control_change,24,0,2,,,,,,,,,1,11,71,,,
16421,control_change,24,0,8,,,,,,,,,12,11,71,,,
16426,control_change,24,0,9,,,,,,,,,13,11,71,,,
16427,control_change,24,0,3,,,,,,,,,3,11,71,,,
16428,control_change,24,0,10,,,,,,,,,14,11,71,,,
16430,note_on,15,0,6,,,,,,,,,10,,,,86,0
16433,note_on,15,0,7,,,,,,,,,11,,,,74,0
16439,control_change,9,0,6,,,,,,,,,10,11,72,,,
16440,note_on,1,0,6,,,,,,,,,10,,,,89,80
16440,set_tempo,120,1,0,,,,,,382166,,,,,,,,
16442,control_change,9,0,7,,,,,,,,,11,11,72,,,
16442,control_change,24,0,1,,,,,,,,,0,11,72,,,
16443,note_on,1,0,7,,,,,,,,,11,,,,77,100
16443,note_on,1,0,1,,,,,,,,,0,,,,87,82
16444,control_change,24,0,2,,,,,,,,,1,11,72,,,
16445,note_on,1,0,2,,,,,,,,,1,,,,75,81
16445,control_change,24,0,8,,,,,,,,,12,11,72,,,
16445,note_on,0,0,2,,,,,,,,,1,,,,72,81
16446,note_on,1,0,8,,,,,,,,,12,,,,72,83
16450,control_change,24,0,9,,,,,,,,,13,11,72,,,
16451,control_change,24,0,3,,,,,,,,,3,11,72,,,
16452,note_on,1,0,3,,,,,,,,,3,,,,63,81
16452,note_on,0,0,3,,,,,,,,,3,,,,60,81
16452,control_change,24,0,10,,,,,,,,,14,11,72,,,
16463,control_change,23,0,6,,,,,,,,,10,11,73,,,
16466,control_change,23,0,1,,,,,,,,,0,11,73,,,
16466,control_change,23,0,7,,,,,,,,,11,11,73,,,
16468,control_change,23,0,2,,,,,,,,,1,11,73,,,
16469,control_change,23,0,8,,,,,,,,,12,11,73,,,
16470,note_on,0,0,6,,,,,,,,,10,,,,87,80
16470,note_on,7,0,6,,,,,,,,,10,,,,89,0
16473,note_on,0,0,7,,,,,,,,,11,,,,75,100
16473,note_on,7,0,7,,,,,,,,,11,,,,77,0
16474,control_change,24,0,9,,,,,,,,,13,11,73,,,
16475,control_change,23,0,3,,,,,,,,,3,11,73,,,
16476,control_change,24,0,10,,,,,,,,,14,11,73,,,
16487,control_change,17,0,6,,,,,,,,,10,11,75,,,
16490,control_change,17,0,7,,,,,,,,,11,11,75,,,
16490,control_change,24,0,1,,,,,,,,,0,11,75,,,
16490,note_on,3,0,6,,,,,,,,,10,,,,87,0
16492,control_change,24,0,2,,,,,,,,,1,11,75,,,
16493,control_change,24,0,8,,,,,,,,,12,11,75,,,
16493,note_on,3,0,7,,,,,,,,,11,,,,75,0
16498,control_change,24,0,9,,,,,,,,,13,11,75,,,
16499,control_change,24,0,3,,,,,,,,,3,11,75,,,
16500,control_change,24,0,10,,,,,,,,,14,11,75,,,
16500,note_on,10,0,6,,,,,,,,,10,,,,86,80
16503,note_on,13,0,1,,,,,,,,,0,,,,87,0
16503,note_on,10,0,7,,,,,,,,,11,,,,74,100
16505,note_on,13,0,2,,,,,,,,,1,,,,72,0
16505,note_on,0,0,2,,,,,,,,,1,,,,75,0
16506,note_on,13,0,8,,,,,,,,,12,,,,72,0
16511,note_on,13,0,9,,,,,,,,,13,,,,53,89
16511,control_change,11,0,6,,,,,,,,,10,11,76,,,
16512,note_on,0,0,3,,,,,,,,,3,,,,63,0
16512,note_on,13,0,3,,,,,,,,,3,,,,60,0
16513,note_on,13,0,10,,,,,,,,,14,,,,41,73
16514,control_change,11,0,1,,,,,,,,,0,11,76,,,
16514,control_change,11,0,7,,,,,,,,,11,11,76,,,
16516,control_change,11,0,2,,,,,,,,,1,11,76,,,
16517,control_change,11,0,8,,,,,,,,,12,11,76,,,
16520,note_on,9,0,6,,,,,,,,,10,,,,86,0
16522,control_change,11,0,9,,,,,,,,,13,11,76,,,
16523,note_on,9,0,7,,,,,,,,,11,,,,74,0
16523,control_change,11,0,3,,,,,,,,,3,11,76,,,
16524,control_change,11,0,10,,,,,,,,,14,11,76,,,
16530,note_on,10,0,6,,,,,,,,,10,,,,87,80
16533,note_on,10,0,7,,,,,,,,,11,,,,75,100
16535,control_change,5,0,6,,,,,,,,,10,11,77,,,
16538,control_change,24,0,1,,,,,,,,,0,11,77,,,
16538,control_change,5,0,7,,,,,,,,,11,11,77,,,
16540,control_change,24,0,2,,,,,,,,,1,11,77,,,
16541,control_change,24,0,8,,,,,,,,,12,11,77,,,
16546,control_change,24,0,9,,,,,,,,,13,11,77,,,
16547,control_change,24,0,3,,,,,,,,,3,11,77,,,
16548,control_change,24,0,10,,,,,,,,,14,11,77,,,
16550,note_on,15,0,6,,,,,,,,,10,,,,87,0
16553,note_on,15,0,7,,,,,,,,,11,,,,75,0
16559,control_change,9,0,6,,,,,,,,,10,11,79,,,
16560,set_tempo,120,1,0,,,,,,355030,,,,,,,,
16560,note_on,1,0,6,,,,,,,,,10,,,,89,100
16562,control_change,9,0,7,,,,,,,,,11,11,79,,,
16562,control_change,24,0,1,,,,,,,,,0,11,79,,,
16563,note_on,1,0,7,,,,,,,,,11,,,,74,100
16563,note_on,0,0,7,,,,,,,,,11,,,,77,100
16563,note_on,1,0,1,,,,,,,,,0,,,,89,82
16564,note_on,1260,0,4,,,,,,,,,4,,,,62,86
16564,control_change,24,0,2,,,,,,,,,1,11,79,,,
16565,note_on,1,0,2,,,,,,,,,1,,,,74,81
16565,note_on,0,0,2,,,,,,,,,1,,,,77,81
16565,control_change,24,0,8,,,,,,,,,12,11,79,,,
16566,note_on,1260,0,5,,,,,,,,,5,,,,58,86
16566,note_on,1,0,8,,,,,,,,,12,,,,65,98
16570,control_change,24,0,9,,,,,,,,,13,11,79,,,
16571,note_on,1,0,9,,,,,,,,,13,,,,53,0
16571,note_on,0,0,9,,,,,,,,,13,,,,53,89
16571,control_change,24,0,3,,,,,,,,,3,11,79,,,
16572,note_on,0,0,3,,,,,,,,,3,,,,62,81
16572,control_change,24,0,10,,,,,,,,,14,11,79,,,
16572,note_on,1,0,3,,,,,,,,,3,,,,65,81
16573,note_on,1,0,10,,,,,,,,,14,,,,41,0
16573,note_on,0,0,10,,,,,,,,,14,,,,41,73
16580,note_on,20,0,6,,,,,,,,,10,,,,89,0
16583,note_on,20,0,7,,,,,,,,,11,,,,77,0
16583,note_on,0,0,7,,,,,,,,,11,,,,74,0
16590,note_on,10,0,6,,,,,,,,,10,,,,89,92
16593,note_on,10,0,7,,,,,,,,,11,,,,77,92
16593,note_on,0,0,7,,,,,,,,,11,,,,74,92
16610,note_on,20,0,6,,,,,,,,,10,,,,89,0
16613,note_on,0,0,7,,,,,,,,,11,,,,77,0
16613,note_on,20,0,7,,,,,,,,,11,,,,74,0
16620,note_on,10,0,6,,,,,,,,,10,,,,89,100
16623,note_on,10,0,7,,,,,,,,,11,,,,77,100
16623,note_on,0,0,7,,,,,,,,,11,,,,74,100
16626,note_on,0,0,8,,,,,,,,,12,,,,67,98
16626,note_on,60,0,8,,,,,,,,,12,,,,65,0
16631,note_on,60,0,9,,,,,,,,,13,,,,53,0
16631,note_on,0,0,9,,,,,,,,,13,,,,55,89
16633,note_on,0,0,10,,,,,,,,,14,,,,43,73
16633,note_on,60,0,10,,,,,,,,,14,,,,41,0
16640,note_on,20,0,6,,,,,,,,,10,,,,89,0
16643,note_on,20,0,7,,,,,,,,,11,,,,74,0
16643,note_on,0,0,7,,,,,,,,,11,,,,77,0
16650,note_on,10,0,6,,,,,,,,,10,,,,89,92
16653,note_on,10,0,7,,,,,,,,,11,,,,77,92
16653,note_on,0,0,7,,,,,,,,,11,,,,74,92
16670,note_on,20,0,6,,,,,,,,,10,,,,89,0
16673,note_on,0,0,7,,,,,,,,,11,,,,77,0
16673,note_on,20,0,7,,,,,,,,,11,,,,74,0
16676,note_on,50,0,8,,,,,,,,,12,,,,67,0
16680,set_tempo,120,1,0,,,,,,382166,,,,,,,,
16680,note_on,10,0,6,,,,,,,,,10,,,,89,100
16681,note_on,50,0,9,,,,,,,,,13,,,,55,0
16683,note_on,0,0,7,,,,,,,,,11,,,,74,100
16683,note_on,50,0,10,,,,,,,,,14,,,,43,0
16683,note_on,10,0,7,,,,,,,,,11,,,,77,100
16686,note_on,10,0,8,,,,,,,,,12,,,,69,98
16691,note_on,10,0,9,,,,,,,,,13,,,,57,89
16693,note_on,10,0,10,,,,,,,,,14,,,,45,73
16700,note_on,20,0,6,,,,,,,,,10,,,,89,0
16703,note_on,20,0,7,,,,,,,,,11,,,,74,0
16703,note_on,0,0,7,,,,,,,,,11,,,,77,0
16710,note_on,10,0,6,,,,,,,,,10,,,,89,92
16713,note_on,10,0,7,,,,,,,,,11,,,,77,92
16713,note_on,0,0,7,,,,,,,,,11,,,,74,92
16716,note_on,30,0,8,,,,,,,,,12,,,,69,0
16721,note_on,30,0,9,,,,,,,,,13,,,,57,0
16723,note_on,30,0,10,,,,,,,,,14,,,,45,0
16730,note_on,20,0,6,,,,,,,,,10,,,,89,0
16733,note_on,20,0,7,,,,,,,,,11,,,,74,0
16733,note_on,0,0,7,,,,,,,,,11,,,,77,0
16740,note_on,10,0,6,,,,,,,,,10,,,,89,100
16743,note_on,0,0,7,,,,,,,,,11,,,,74,100
16743,note_on,10,0,7,,,,,,,,,11,,,,77,100
16746,note_on,30,0,8,,,,,,,,,12,,,,70,98
16751,note_on,30,0,9,,,,,,,,,13,,,,58,89
16753,note_on,30,0,10,,,,,,,,,14,,,,46,73
16760,note_on,20,0,6,,,,,,,,,10,,,,89,0
16763,note_on,0,0,7,,,,,,,,,11,,,,77,0
16763,note_on,20,0,7,,,,,,,,,11,,,,74,0
16770,note_on,10,0,6,,,,,,,,,10,,,,89,92
16773,note_on,10,0,7,,,,,,,,,11,,,,74,92
16773,note_on,0,0,7,,,,,,,,,11,,,,77,92
16776,note_on,30,0,8,,,,,,,,,12,,,,70,0
16781,note_on,30,0,9,,,,,,,,,13,,,,58,0
16783,note_on,30,0,10,,,,,,,,,14,,,,46,0
16790,note_on,20,0,6,,,,,,,,,10,,,,89,0
16793,note_on,0,0,7,,,,,,,,,11,,,,74,0
16793,note_on,20,0,7,,,,,,,,,11,,,,77,0
16800,set_tempo,120,1,0,,,,,,355030,,,,,,,,
16800,note_on,10,0,6,,,,,,,,,10,,,,89,100
16803,note_on,0,0,7,,,,,,,,,11,,,,75,100
16803,note_on,10,0,7,,,,,,,,,11,,,,77,100
16804,note_on,0,0,4,,,,,,,,,4,,,,63,86
16804,note_on,240,0,4,,,,,,,,,4,,,,62,0
16805,note_on,240,0,2,,,,,,,,,1,,,,74,0
16805,note_on,0,0,2,,,,,,,,,1,,,,75,81
16806,note_on,30,0,8,,,,,,,,,12,,,,70,98
16806,note_on,0,0,5,,,,,,,,,5,,,,60,86
16806,note_on,240,0,5,,,,,,,,,5,,,,58,0
16811,note_on,30,0,9,,,,,,,,,13,,,,58,89
16812,note_on,0,0,3,,,,,,,,,3,,,,63,81
16812,note_on,240,0,3,,,,,,,,,3,,,,62,0
16813,note_on,30,0,10,,,,,,,,,14,,,,46,73
16820,note_on,20,0,6,,,,,,,,,10,,,,89,0
16823,note_on,0,0,7,,,,,,,,,11,,,,77,0
16823,note_on,20,0,7,,,,,,,,,11,,,,75,0
16830,note_on,10,0,6,,,,,,,,,10,,,,89,92
16833,note_on,10,0,7,,,,,,,,,11,,,,75,92
16833,note_on,0,0,7,,,,,,,,,11,,,,77,92
16850,note_on,20,0,6,,,,,,,,,10,,,,89,0
16853,note_on,0,0,7,,,,,,,,,11,,,,75,0
16853,note_on,20,0,7,,,,,,,,,11,,,,77,0
16860,note_on,10,0,6,,,,,,,,,10,,,,89,100
16863,note_on,10,0,7,,,,,,,,,11,,,,77,100
16863,note_on,0,0,7,,,,,,,,,11,,,,75,100
16866,note_on,60,0,8,,,,,,,,,12,,,,70,0
16866,note_on,0,0,8,,,,,,,,,12,,,,69,98
16871,note_on,0,0,9,,,,,,,,,13,,,,57,89
16871,note_on,60,0,9,,,,,,,,,13,,,,58,0
16873,note_on,60,0,10,,,,,,,,,14,,,,46,0
16873,note_on,0,0,10,,,,,,,,,14,,,,45,73
16880,note_on,20,0,6,,,,,,,,,10,,,,89,0
16883,note_on,20,0,7,,,,,,,,,11,,,,75,0
16883,note_on,0,0,7,,,,,,,,,11,,,,77,0
16890,note_on,10,0,6,,,,,,,,,10,,,,89,92
16893,note_on,10,0,7,,,,,,,,,11,,,,75,92
16893,note_on,0,0,7,,,,,,,,,11,,,,77,92
16910,note_on,20,0,6,,,,,,,,,10,,,,89,0
16913,note_on,20,0,7,,,,,,,,,11,,,,77,0
16913,note_on,0,0,7,,,,,,,,,11,,,,75,0
16916,note_on,50,0,8,,,,,,,,,12,,,,69,0
16920,note_on,10,0,6,,,,,,,,,10,,,,89,100
16920,set_tempo,120,1,0,,,,,,382166,,,,,,,,
16921,note_on,50,0,9,,,,,,,,,13,,,,57,0
16923,note_on,0,0,7,,,,,,,,,11,,,,77,100
16923,note_on,10,0,7,,,,,,,,,11,,,,75,100
16923,note_on,50,0,10,,,,,,,,,14,,,,45,0
16926,note_on,10,0,8,,,,,,,,,12,,,,67,98
16931,note_on,10,0,9,,,,,,,,,13,,,,55,89
16933,note_on,10,0,10,,,,,,,,,14,,,,43,73
16940,note_on,20,0,6,,,,,,,,,10,,,,89,0
16943,note_on,0,0,7,,,,,,,,,11,,,,75,0
16943,note_on,20,0,7,,,,,,,,,11,,,,77,0
16950,note_on,10,0,6,,,,,,,,,10,,,,89,92
16953,note_on,10,0,7,,,,,,,,,11,,,,77,92
16953,note_on,0,0,7,,,,,,,,,11,,,,75,92
16956,note_on,30,0,8,,,,,,,,,12,,,,67,0
16961,note_on,30,0,9,,,,,,,,,13,,,,55,0
16963,note_on,30,0,10,,,,,,,,,14,,,,43,0
16970,note_on,20,0,6,,,,,,,,,10,,,,89,0
16973,note_on,20,0,7,,,,,,,,,11,,,,75,0
16973,note_on,0,0,7,,,,,,,,,11,,,,77,0
16980,note_on,10,0,6,,,,,,,,,10,,,,89,100
16983,note_on,0,0,7,,,,,,,,,11,,,,77,100
16983,note_on,10,0,7,,,,,,,,,11,,,,75,100
16986,note_on,30,0,8,,,,,,,,,12,,,,65,98
16991,note_on,30,0,9,,,,,,,,,13,,,,53,89
16993,note_on,30,0,10,,,,,,,,,14,,,,41,73
17000,note_on,20,0,6,,,,,,,,,10,,,,89,0
17003,note_on,0,0,7,,,,,,,,,11,,,,75,0
17003,note_on,20,0,7,,,,,,,,,11,,,,77,0
17010,note_on,10,0,6,,,,,,,,,10,,,,89,92
17013,note_on,10,0,7,,,,,,,,,11,,,,77,92
17013,note_on,0,0,7,,,,,,,,,11,,,,75,92
17016,note_on,30,0,8,,,,,,,,,12,,,,65,0
17021,note_on,30,0,9,,,,,,,,,13,,,,53,0
17023,note_on,30,0,10,,,,,,,,,14,,,,41,0
17030,note_on,20,0,6,,,,,,,,,10,,,,89,0
17033,note_on,20,0,7,,,,,,,,,11,,,,75,0
17033,note_on,0,0,7,,,,,,,,,11,,,,77,0
17040,set_tempo,120,1,0,,,,,,355030,,,,,,,,
17040,note_on,10,0,6,,,,,,,,,10,,,,89,100
17043,note_on,10,0,7,,,,,,,,,11,,,,74,100
17043,note_on,0,0,7,,,,,,,,,11,,,,77,100
17044,note_on,0,0,4,,,,,,,,,4,,,,62,86
17044,note_on,240,0,4,,,,,,,,,4,,,,63,0
17045,note_on,240,0,2,,,,,,,,,1,,,,75,0
17045,note_on,0,0,2,,,,,,,,,1,,,,77,0
17045,note_on,0,0,2,,,,,,,,,1,,,,74,81
17045,note_on,0,0,2,,,,,,,,,1,,,,77,81
17046,note_on,0,0,5,,,,,,,,,5,,,,58,86
17046,note_on,240,0,5,,,,,,,,,5,,,,60,0
17046,note_on,30,0,8,,,,,,,,,12,,,,65,98
17051,note_on,30,0,9,,,,,,,,,13,,,,53,89
17052,note_on,0,0,3,,,,,,,,,3,,,,65,81
17052,note_on,0,0,3,,,,,,,,,3,,,,62,81
17052,note_on,0,0,3,,,,,,,,,3,,,,65,0
17052,note_on,240,0,3,,,,,,,,,3,,,,63,0
17053,note_on,30,0,10,,,,,,,,,14,,,,41,73
17060,note_on,20,0,6,,,,,,,,,10,,,,89,0
17063,note_on,0,0,7,,,,,,,,,11,,,,74,0
17063,note_on,20,0,7,,,,,,,,,11,,,,77,0
17070,note_on,10,0,6,,,,,,,,,10,,,,89,92
17073,note_on,10,0,7,,,,,,,,,11,,,,77,92
17073,note_on,0,0,7,,,,,,,,,11,,,,74,92
17090,note_on,20,0,6,,,,,,,,,10,,,,89,0
17093,note_on,20,0,7,,,,,,,,,11,,,,74,0
17093,note_on,0,0,7,,,,,,,,,11,,,,77,0
17100,note_on,10,0,6,,,,,,,,,10,,,,89,100
17103,note_on,0,0,7,,,,,,,,,11,,,,74,100
17103,note_on,10,0,7,,,,,,,,,11,,,,77,100
17106,note_on,60,0,8,,,,,,,,,12,,,,65,0
17106,note_on,0,0,8,,,,,,,,,12,,,,67,98
17111,note_on,60,0,9,,,,,,,,,13,,,,53,0
17111,note_on,0,0,9,,,,,,,,,13,,,,55,89
17113,note_on,60,0,10,,,,,,,,,14,,,,41,0
17113,note_on,0,0,10,,,,,,,,,14,,,,43,73
17120,note_on,20,0,6,,,,,,,,,10,,,,89,0
17123,note_on,0,0,7,,,,,,,,,11,,,,77,0
17123,note_on,20,0,7,,,,,,,,,11,,,,74,0
17130,note_on,10,0,6,,,,,,,,,10,,,,89,92
17133,note_on,10,0,7,,,,,,,,,11,,,,74,92
17133,note_on,0,0,7,,,,,,,,,11,,,,77,92
17150,note_on,20,0,6,,,,,,,,,10,,,,89,0
17153,note_on,20,0,7,,,,,,,,,11,,,,77,0
17153,note_on,0,0,7,,,,,,,,,11,,,,74,0
17156,note_on,50,0,8,,,,,,,,,12,,,,67,0
17160,note_on,10,0,6,,,,,,,,,10,,,,89,100
17160,set_tempo,120,1,0,,,,,,382166,,,,,,,,
17161,note_on,50,0,9,,,,,,,,,13,,,,55,0
17163,note_on,0,0,7,,,,,,,,,11,,,,77,100
17163,note_on,50,0,10,,,,,,,,,14,,,,43,0
17163,note_on,10,0,7,,,,,,,,,11,,,,74,100
17166,note_on,10,0,8,,,,,,,,,12,,,,69,98
17171,note_on,10,0,9,,,,,,,,,13,,,,57,89
17173,note_on,10,0,10,,,,,,,,,14,,,,45,73
17180,note_on,20,0,6,,,,,,,,,10,,,,89,0
17183,note_on,20,0,7,,,,,,,,,11,,,,77,0
17183,note_on,0,0,7,,,,,,,,,11,,,,74,0
17190,note_on,10,0,6,,,,,,,,,10,,,,89,92
17193,note_on,10,0,7,,,,,,,,,11,,,,77,92
17193,note_on,0,0,7,,,,,,,,,11,,,,74,92
17196,note_on,30,0,8,,,,,,,,,12,,,,69,0
17201,note_on,30,0,9,,,,,,,,,13,,,,57,0
17203,note_on,30,0,10,,,,,,,,,14,,,,45,0
17210,note_on,20,0,6,,,,,,,,,10,,,,89,0
17213,note_on,20,0,7,,,,,,,,,11,,,,74,0
17213,note_on,0,0,7,,,,,,,,,11,,,,77,0
17220,note_on,10,0,6,,,,,,,,,10,,,,89,100
17223,note_on,0,0,7,,,,,,,,,11,,,,77,100
17223,note_on,10,0,7,,,,,,,,,11,,,,74,100
17226,note_on,30,0,8,,,,,,,,,12,,,,70,98
17231,note_on,30,0,9,,,,,,,,,13,,,,58,89
17233,note_on,30,0,10,,,,,,,,,14,,,,46,73
17240,note_on,20,0,6,,,,,,,,,10,,,,89,0
17243,note_on,20,0,7,,,,,,,,,11,,,,77,0
17243,note_on,0,0,7,,,,,,,,,11,,,,74,0
17250,note_on,10,0,6,,,,,,,,,10,,,,89,92
17253,note_on,0,0,7,,,,,,,,,11,,,,77,92
17253,note_on,10,0,7,,,,,,,,,11,,,,74,92
17256,note_on,30,0,8,,,,,,,,,12,,,,70,0
17261,note_on,30,0,9,,,,,,,,,13,,,,58,0
17263,note_on,30,0,10,,,,,,,,,14,,,,46,0
17270,note_on,20,0,6,,,,,,,,,10,,,,89,0
17273,note_on,0,0,7,,,,,,,,,11,,,,74,0
17273,note_on,20,0,7,,,,,,,,,11,,,,77,0
17280,note_on,10,0,6,,,,,,,,,10,,,,89,100
17280,set_tempo,120,1,0,,,,,,355030,,,,,,,,
17283,note_on,10,0,7,,,,,,,,,11,,,,77,100
17283,note_on,0,0,7,,,,,,,,,11,,,,75,100
17284,note_on,240,0,4,,,,,,,,,4,,,,62,0
17284,note_on,0,0,4,,,,,,,,,4,,,,63,86
17285,note_on,0,0,2,,,,,,,,,1,,,,75,81
17285,note_on,240,0,2,,,,,,,,,1,,,,74,0
17286,note_on,30,0,8,,,,,,,,,12,,,,70,98
17286,note_on,0,0,5,,,,,,,,,5,,,,60,86
17286,note_on,240,0,5,,,,,,,,,5,,,,58,0
17291,note_on,30,0,9,,,,,,,,,13,,,,58,89
17292,note_on,0,0,3,,,,,,,,,3,,,,63,81
17292,note_on,240,0,3,,,,,,,,,3,,,,62,0
17293,note_on,30,0,10,,,,,,,,,14,,,,46,73
17300,note_on,20,0,6,,,,,,,,,10,,,,89,0
17303,note_on,0,0,7,,,,,,,,,11,,,,77,0
17303,note_on,20,0,7,,,,,,,,,11,,,,75,0
17310,note_on,10,0,6,,,,,,,,,10,,,,89,92
17313,note_on,0,0,7,,,,,,,,,11,,,,75,92
17313,note_on,10,0,7,,,,,,,,,11,,,,77,92
17330,note_on,20,0,6,,,,,,,,,10,,,,89,0
17333,note_on,20,0,7,,,,,,,,,11,,,,75,0
17333,note_on,0,0,7,,,,,,,,,11,,,,77,0
17340,note_on,10,0,6,,,,,,,,,10,,,,89,100
17343,note_on,10,0,7,,,,,,,,,11,,,,75,100
17343,note_on,0,0,7,,,,,,,,,11,,,,77,100
17346,note_on,60,0,8,,,,,,,,,12,,,,70,0
17346,note_on,0,0,8,,,,,,,,,12,,,,69,98
17351,note_on,60,0,9,,,,,,,,,13,,,,58,0
17351,note_on,0,0,9,,,,,,,,,13,,,,57,89
17353,note_on,60,0,10,,,,,,,,,14,,,,46,0
17353,note_on,0,0,10,,,,,,,,,14,,,,45,73
17360,note_on,20,0,6,,,,,,,,,10,,,,89,0
17363,note_on,0,0,7,,,,,,,,,11,,,,75,0
17363,note_on,20,0,7,,,,,,,,,11,,,,77,0
17370,note_on,10,0,6,,,,,,,,,10,,,,89,92
17373,note_on,0,0,7,,,,,,,,,11,,,,77,92
17373,note_on,10,0,7,,,,,,,,,11,,,,75,92
17390,note_on,20,0,6,,,,,,,,,10,,,,89,0
17393,note_on,0,0,7,,,,,,,,,11,,,,75,0
17393,note_on,20,0,7,,,,,,,,,11,,,,77,0
17396,note_on,50,0,8,,,,,,,,,12,,,,69,0
17400,set_tempo,120,1,0,,,,,,382166,,,,,,,,
17400,note_on,10,0,6,,,,,,,,,10,,,,89,100
17401,note_on,50,0,9,,,,,,,,,13,,,,57,0
17403,note_on,50,0,10,,,,,,,,,14,,,,45,0
17403,note_on,10,0,7,,,,,,,,,11,,,,77,100
17403,note_on,0,0,7,,,,,,,,,11,,,,75,100
17406,note_on,10,0,8,,,,,,,,,12,,,,67,98
17411,note_on,10,0,9,,,,,,,,,13,,,,55,89
17413,note_on,10,0,10,,,,,,,,,14,,,,43,73
17420,note_on,20,0,6,,,,,,,,,10,,,,89,0
17423,note_on,20,0,7,,,,,,,,,11,,,,75,0
17423,note_on,0,0,7,,,,,,,,,11,,,,77,0
17430,note_on,10,0,6,,,,,,,,,10,,,,89,92
17433,note_on,10,0,7,,,,,,,,,11,,,,75,92
17433,note_on,0,0,7,,,,,,,,,11,,,,77,92
17436,note_on,30,0,8,,,,,,,,,12,,,,67,0
17441,note_on,30,0,9,,,,,,,,,13,,,,55,0
17443,note_on,30,0,10,,,,,,,,,14,,,,43,0
17450,note_on,20,0,6,,,,,,,,,10,,,,89,0
17453,note_on,20,0,7,,,,,,,,,11,,,,77,0
17453,note_on,0,0,7,,,,,,,,,11,,,,75,0
17460,note_on,10,0,6,,,,,,,,,10,,,,89,100
17463,note_on,0,0,7,,,,,,,,,11,,,,75,100
17463,note_on,10,0,7,,,,,,,,,11,,,,77,100
17466,note_on,30,0,8,,,,,,,,,12,,,,65,98
17471,note_on,30,0,9,,,,,,,,,13,,,,53,89
17473,note_on,30,0,10,,,,,,,,,14,,,,41,73
17480,note_on,20,0,6,,,,,,,,,10,,,,89,0
17483,note_on,0,0,7,,,,,,,,,11,,,,77,0
17483,note_on,20,0,7,,,,,,,,,11,,,,75,0
17490,note_on,10,0,6,,,,,,,,,10,,,,89,92
17493,note_on,0,0,7,,,,,,,,,11,,,,77,92
17493,note_on,10,0,7,,,,,,,,,11,,,,75,92
17496,note_on,30,0,8,,,,,,,,,12,,,,65,0
17501,note_on,30,0,9,,,,,,,,,13,,,,53,0
17503,note_on,30,0,10,,,,,,,,,14,,,,41,0
17510,note_on,20,0,6,,,,,,,,,10,,,,89,0
17513,note_on,20,0,7,,,,,,,,,11,,,,77,0
17513,note_on,0,0,7,,,,,,,,,11,,,,75,0
17520,set_tempo,120,1,0,,,,,,355030,,,,,,,,
17520,note_on,10,0,6,,,,,,,,,10,,,,77,100
17523,note_on,10,0,7,,,,,,,,,11,,,,74,100
17523,note_on,960,0,1,,,,,,,,,0,,,,89,0
17523,note_on,0,0,1,,,,,,,,,0,,,,89,82
17524,note_on,240,0,4,,,,,,,,,4,,,,63,0
17524,note_on,0,0,4,,,,,,,,,4,,,,62,86
17525,note_on,0,0,2,,,,,,,,,1,,,,77,81
17525,note_on,240,0,2,,,,,,,,,1,,,,75,0
17525,note_on,0,0,2,,,,,,,,,1,,,,77,0
17525,note_on,0,0,2,,,,,,,,,1,,,,74,81
17526,note_on,240,0,5,,,,,,,,,5,,,,60,0
17526,note_on,0,0,5,,,,,,,,,5,,,,62,86
17526,note_on,30,0,8,,,,,,,,,12,,,,70,98
17531,note_on,30,0,9,,,,,,,,,13,,,,58,89
17532,note_on,0,0,3,,,,,,,,,3,,,,65,0
17532,note_on,0,0,3,,,,,,,,,3,,,,58,81
17532,note_on,240,0,3,,,,,,,,,3,,,,63,0
17533,note_on,30,0,10,,,,,,,,,14,,,,46,73
17570,note_on,50,0,6,,,,,,,,,10,,,,77,0
17573,note_on,50,0,7,,,,,,,,,11,,,,74,0
17573,note_on,50,0,1,,,,,,,,,0,,,,89,0
17575,note_on,50,0,2,,,,,,,,,1,,,,77,0
17575,note_on,0,0,2,,,,,,,,,1,,,,74,0
17576,note_on,50,0,8,,,,,,,,,12,,,,70,0
17580,note_on,10,0,6,,,,,,,,,10,,,,77,100
17581,note_on,50,0,9,,,,,,,,,13,,,,58,0
17582,note_on,50,0,3,,,,,,,,,3,,,,58,0
17583,note_on,10,0,7,,,,,,,,,11,,,,74,100
17583,note_on,10,0,1,,,,,,,,,0,,,,89,82
17583,note_on,50,0,10,,,,,,,,,14,,,,46,0
17584,note_on,0,0,4,,,,,,,,,4,,,,62,86
17584,note_on,60,0,4,,,,,,,,,4,,,,62,0
17585,note_on,10,0,2,,,,,,,,,1,,,,74,81
17585,note_on,0,0,2,,,,,,,,,1,,,,77,81
17586,note_on,60,0,5,,,,,,,,,5,,,,62,0
17586,note_on,0,0,5,,,,,,,,,5,,,,62,86
17586,note_on,10,0,8,,,,,,,,,12,,,,70,98
17591,note_on,10,0,9,,,,,,,,,13,,,,58,89
17592,note_on,10,0,3,,,,,,,,,3,,,,58,81
17593,note_on,10,0,10,,,,,,,,,14,,,,46,73
17630,note_on,50,0,6,,,,,,,,,10,,,,77,0
17633,note_on,50,0,1,,,,,,,,,0,,,,89,0
17633,note_on,50,0,7,,,,,,,,,11,,,,74,0
17635,note_on,0,0,2,,,,,,,,,1,,,,74,0
17635,note_on,50,0,2,,,,,,,,,1,,,,77,0
17636,note_on,50,0,8,,,,,,,,,12,,,,70,0
17640,note_on,10,0,6,,,,,,,,,10,,,,79,115
17640,set_tempo,120,1,0,,,,,,382166,,,,,,,,
17641,note_on,50,0,9,,,,,,,,,13,,,,58,0
17642,note_on,50,0,3,,,,,,,,,3,,,,58,0
17643,note_on,10,0,7,,,,,,,,,11,,,,72,115
17643,note_on,50,0,10,,,,,,,,,14,,,,46,0
17643,note_on,10,0,1,,,,,,,,,0,,,,91,95
17644,note_on,60,0,4,,,,,,,,,4,,,,62,0
17644,note_on,0,0,4,,,,,,,,,4,,,,60,99
17645,note_on,10,0,2,,,,,,,,,1,,,,79,94
17645,note_on,0,0,2,,,,,,,,,1,,,,72,94
17646,note_on,0,0,5,,,,,,,,,5,,,,60,99
17646,note_on,60,0,5,,,,,,,,,5,,,,62,0
17646,note_on,10,0,8,,,,,,,,,12,,,,68,113
17651,note_on,10,0,9,,,,,,,,,13,,,,56,104
17652,note_on,10,0,3,,,,,,,,,3,,,,56,94
17653,note_on,10,0,10,,,,,,,,,14,,,,44,86
17670,note_on,30,0,6,,,,,,,,,10,,,,79,0
17670,note_on,0,0,6,,,,,,,,,10,,,,78,100
17673,note_on,30,0,1,,,,,,,,,0,,,,91,0
17673,note_on,0,0,1,,,,,,,,,0,,,,90,82
17675,note_on,0,0,2,,,,,,,,,1,,,,78,81
17675,note_on,30,0,2,,,,,,,,,1,,,,79,0
17690,note_on,20,0,6,,,,,,,,,10,,,,78,0
17693,note_on,20,0,1,,,,,,,,,0,,,,90,0
17695,note_on,20,0,2,,,,,,,,,1,,,,78,0
17700,note_on,10,0,6,,,,,,,,,10,,,,76,100
17703,note_on,10,0,1,,,,,,,,,0,,,,88,82
17705,note_on,10,0,2,,,,,,,,,1,,,,76,81
17720,note_on,20,0,6,,,,,,,,,10,,,,76,0
17723,note_on,20,0,1,,,,,,,,,0,,,,88,0
17725,note_on,20,0,2,,,,,,,,,1,,,,76,0
17730,note_on,10,0,6,,,,,,,,,10,,,,78,100
17733,note_on,10,0,1,,,,,,,,,0,,,,90,82
17735,note_on,10,0,2,,,,,,,,,1,,,,78,81
17750,note_on,20,0,6,,,,,,,,,10,,,,78,0
17753,note_on,110,0,7,,,,,,,,,11,,,,72,0
17753,note_on,20,0,1,,,,,,,,,0,,,,90,0
17755,note_on,20,0,2,,,,,,,,,1,,,,78,0
17755,note_on,0,0,2,,,,,,,,,1,,,,72,0
17756,note_on,110,0,8,,,,,,,,,12,,,,68,0
17760,note_on,10,0,6,,,,,,,,,10,,,,79,100
17760,set_tempo,120,1,0,,,,,,355030,,,,,,,,
17761,note_on,110,0,9,,,,,,,,,13,,,,56,0
17762,note_on,110,0,3,,,,,,,,,3,,,,56,0
17763,note_on,10,0,7,,,,,,,,,11,,,,71,100
17763,note_on,10,0,1,,,,,,,,,0,,,,91,82
17763,note_on,110,0,10,,,,,,,,,14,,,,44,0
17764,note_on,120,0,4,,,,,,,,,4,,,,60,0
17764,note_on,0,0,4,,,,,,,,,4,,,,62,86
17765,note_on,0,0,2,,,,,,,,,1,,,,79,81
17765,note_on,10,0,2,,,,,,,,,1,,,,71,81
17766,note_on,0,0,5,,,,,,,,,5,,,,62,86
17766,note_on,120,0,5,,,,,,,,,5,,,,60,0
17766,note_on,10,0,8,,,,,,,,,12,,,,67,98
17771,note_on,10,0,9,,,,,,,,,13,,,,55,89
17772,note_on,10,0,3,,,,,,,,,3,,,,55,81
17773,note_on,10,0,10,,,,,,,,,14,,,,43,73
17790,note_on,30,0,6,,,,,,,,,10,,,,79,0
17793,note_on,30,0,1,,,,,,,,,0,,,,91,0
17793,note_on,30,0,7,,,,,,,,,11,,,,71,0
17795,note_on,30,0,2,,,,,,,,,1,,,,79,0
17795,note_on,0,0,2,,,,,,,,,1,,,,71,0
17796,note_on,30,0,8,,,,,,,,,12,,,,67,0
17800,note_on,36,0,4,,,,,,,,,4,,,,62,0
17801,note_on,30,0,9,,,,,,,,,13,,,,55,0
17802,note_on,30,0,3,,,,,,,,,3,,,,55,0
17802,note_on,36,0,5,,,,,,,,,5,,,,62,0
17803,note_on,30,0,10,,,,,,,,,14,,,,43,0
17820,note_on,30,0,6,,,,,,,,,10,,,,79,100
17823,note_on,30,0,7,,,,,,,,,11,,,,71,100
17823,note_on,30,0,1,,,,,,,,,0,,,,91,82
17824,note_on,24,0,4,,,,,,,,,4,,,,62,86
17825,note_on,30,0,2,,,,,,,,,1,,,,71,81
17825,note_on,0,0,2,,,,,,,,,1,,,,79,81
17826,note_on,30,0,8,,,,,,,,,12,,,,67,98
17826,note_on,24,0,5,,,,,,,,,5,,,,62,86
17831,note_on,30,0,9,,,,,,,,,13,,,,55,89
17832,note_on,30,0,3,,,,,,,,,3,,,,55,81
17833,note_on,30,0,10,,,,,,,,,14,,,,43,73
17850,note_on,30,0,6,,,,,,,,,10,,,,79,0
17853,note_on,30,0,7,,,,,,,,,11,,,,71,0
17853,note_on,30,0,1,,,,,,,,,0,,,,91,0
17855,note_on,30,0,2,,,,,,,,,1,,,,79,0
17855,note_on,0,0,2,,,,,,,,,1,,,,71,0
17856,note_on,30,0,8,,,,,,,,,12,,,,67,0
17860,note_on,36,0,4,,,,,,,,,4,,,,62,0
17861,note_on,30,0,9,,,,,,,,,13,,,,55,0
17862,note_on,30,0,3,,,,,,,,,3,,,,55,0
17862,note_on,36,0,5,,,,,,,,,5,,,,62,0
17863,note_on,30,0,10,,,,,,,,,14,,,,43,0
17880,set_tempo,120,1,0,,,,,,382166,,,,,,,,
17880,note_on,30,0,6,,,,,,,,,10,,,,76,100
17883,note_on,30,0,1,,,,,,,,,0,,,,88,82
17883,note_on,30,0,7,,,,,,,,,11,,,,70,100
17884,note_on,24,0,4,,,,,,,,,4,,,,60,86
17885,note_on,0,0,2,,,,,,,,,1,,,,70,81
17885,note_on,30,0,2,,,,,,,,,1,,,,76,81
17886,note_on,30,0,8,,,,,,,,,12,,,,60,98
17886,note_on,24,0,5,,,,,,,,,5,,,,60,86
17891,note_on,30,0,9,,,,,,,,,13,,,,60,89
17892,note_on,30,0,3,,,,,,,,,3,,,,60,81
17893,note_on,30,0,10,,,,,,,,,14,,,,48,73
17910,note_on,30,0,6,,,,,,,,,10,,,,76,0
17913,note_on,30,0,7,,,,,,,,,11,,,,70,0
17913,note_on,30,0,1,,,,,,,,,0,,,,88,0
17915,note_on,30,0,2,,,,,,,,,1,,,,70,0
17915,note_on,0,0,2,,,,,,,,,1,,,,76,0
17916,note_on,30,0,8,,,,,,,,,12,,,,60,0
17920,note_on,36,0,4,,,,,,,,,4,,,,60,0
17921,note_on,30,0,9,,,,,,,,,13,,,,60,0
17922,note_on,30,0,3,,,,,,,,,3,,,,60,0
17922,note_on,36,0,5,,,,,,,,,5,,,,60,0
17923,note_on,30,0,10,,,,,,,,,14,,,,48,0
17940,note_on,30,0,6,,,,,,,,,10,,,,76,100
17943,note_on,30,0,1,,,,,,,,,0,,,,88,82
17943,note_on,30,0,7,,,,,,,,,11,,,,70,100
17944,note_on,24,0,4,,,,,,,,,4,,,,60,86
17945,note_on,0,0,2,,,,,,,,,1,,,,70,81
17945,note_on,30,0,2,,,,,,,,,1,,,,76,81
17946,note_on,24,0,5,,,,,,,,,5,,,,60,86
17946,note_on,30,0,8,,,,,,,,,12,,,,60,98
17951,note_on,30,0,9,,,,,,,,,13,,,,60,89
17952,note_on,30,0,3,,,,,,,,,3,,,,60,81
17953,note_on,30,0,10,,,,,,,,,14,,,,48,73
17970,note_on,30,0,6,,,,,,,,,10,,,,76,0
17973,note_on,30,0,7,,,,,,,,,11,,,,70,0
17973,note_on,30,0,1,,,,,,,,,0,,,,88,0
17975,note_on,30,0,2,,,,,,,,,1,,,,70,0
17975,note_on,0,0,2,,,,,,,,,1,,,,76,0
17976,note_on,30,0,8,,,,,,,,,12,,,,60,0
17980,note_on,36,0,4,,,,,,,,,4,,,,60,0
17981,note_on,30,0,9,,,,,,,,,13,,,,60,0
17982,note_on,30,0,3,,,,,,,,,3,,,,60,0
17982,note_on,36,0,5,,,,,,,,,5,,,,60,0
17983,note_on,30,0,10,,,,,,,,,14,,,,48,0
18000,set_tempo,120,1,0,,,,,,355030,,,,,,,,
18000,note_on,30,0,6,,,,,,,,,10,,,,77,100
18003,note_on,30,0,1,,,,,,,,,0,,,,89,82
18003,note_on,30,0,7,,,,,,,,,11,,,,69,100
18004,note_on,24,0,4,,,,,,,,,4,,,,60,86
18005,note_on,30,0,2,,,,,,,,,1,,,,77,81
18005,note_on,0,0,2,,,,,,,,,1,,,,69,81
18006,note_on,30,0,8,,,,,,,,,12,,,,65,98
18006,note_on,24,0,5,,,,,,,,,5,,,,53,86
18011,note_on,30,0,9,,,,,,,,,13,,,,53,89
18012,note_on,30,0,3,,,,,,,,,3,,,,53,81
18013,note_on,30,0,10,,,,,,,,,14,,,,41,73
18030,note_on,30,0,6,,,,,,,,,10,,,,77,0
18033,note_on,30,0,1,,,,,,,,,0,,,,89,0
18033,note_on,30,0,7,,,,,,,,,11,,,,69,0
18035,note_on,0,0,2,,,,,,,,,1,,,,77,0
18035,note_on,30,0,2,,,,,,,,,1,,,,69,0
18036,note_on,30,0,8,,,,,,,,,12,,,,65,0
18040,note_on,36,0,4,,,,,,,,,4,,,,60,0
18041,note_on,30,0,9,,,,,,,,,13,,,,53,0
18042,note_on,36,0,5,,,,,,,,,5,,,,53,0
18042,note_on,30,0,3,,,,,,,,,3,,,,53,0
18043,note_on,30,0,10,,,,,,,,,14,,,,41,0
18060,note_on,30,0,6,,,,,,,,,10,,,,77,100
18063,note_on,30,0,1,,,,,,,,,0,,,,89,82
18063,note_on,30,0,7,,,,,,,,,11,,,,69,100
18064,note_on,24,0,4,,,,,,,,,4,,,,60,86
18065,note_on,0,0,2,,,,,,,,,1,,,,69,81
18065,note_on,30,0,2,,,,,,,,,1,,,,77,81
18066,note_on,24,0,5,,,,,,,,,5,,,,53,86
18066,note_on,30,0,8,,,,,,,,,12,,,,65,98
18071,note_on,30,0,9,,,,,,,,,13,,,,53,89
18072,note_on,30,0,3,,,,,,,,,3,,,,53,81
18073,note_on,30,0,10,,,,,,,,,14,,,,41,73
18090,note_on,30,0,6,,,,,,,,,10,,,,77,0
18093,note_on,30,0,1,,,,,,,,,0,,,,89,0
18093,note_on,30,0,7,,,,,,,,,11,,,,69,0
18095,note_on,30,0,2,,,,,,,,,1,,,,69,0
18095,note_on,0,0,2,,,,,,,,,1,,,,77,0
18096,note_on,30,0,8,,,,,,,,,12,,,,65,0
18100,note_on,36,0,4,,,,,,,,,4,,,,60,0
18101,note_on,30,0,9,,,,,,,,,13,,,,53,0
18102,note_on,30,0,3,,,,,,,,,3,,,,53,0
18102,note_on,36,0,5,,,,,,,,,5,,,,53,0
18103,note_on,30,0,10,,,,,,,,,14,,,,41,0
18120,note_on,30,0,6,,,,,,,,,10,,,,74,100
18120,set_tempo,120,1,0,,,,,,382166,,,,,,,,
18123,note_on,30,0,7,,,,,,,,,11,,,,68,100
18123,note_on,30,0,1,,,,,,,,,0,,,,86,82
18124,note_on,24,0,4,,,,,,,,,4,,,,58,86
18125,note_on,30,0,2,,,,,,,,,1,,,,74,81
18125,note_on,0,0,2,,,,,,,,,1,,,,68,81
18126,note_on,30,0,8,,,,,,,,,12,,,,58,98
18126,note_on,24,0,5,,,,,,,,,5,,,,58,86
18131,note_on,30,0,9,,,,,,,,,13,,,,58,89
18132,note_on,30,0,3,,,,,,,,,3,,,,58,81
18133,note_on,30,0,10,,,,,,,,,14,,,,46,73
18150,note_on,30,0,6,,,,,,,,,10,,,,74,0
18153,note_on,30,0,1,,,,,,,,,0,,,,86,0
18153,note_on,30,0,7,,,,,,,,,11,,,,68,0
18155,note_on,0,0,2,,,,,,,,,1,,,,74,0
18155,note_on,30,0,2,,,,,,,,,1,,,,68,0
18156,note_on,30,0,8,,,,,,,,,12,,,,58,0
18160,note_on,36,0,4,,,,,,,,,4,,,,58,0
18161,note_on,30,0,9,,,,,,,,,13,,,,58,0
18162,note_on,36,0,5,,,,,,,,,5,,,,58,0
18162,note_on,30,0,3,,,,,,,,,3,,,,58,0
18163,note_on,30,0,10,,,,,,,,,14,,,,46,0
18180,note_on,30,0,6,,,,,,,,,10,,,,74,100
18183,note_on,30,0,1,,,,,,,,,0,,,,86,82
18183,note_on,30,0,7,,,,,,,,,11,,,,68,100
18184,note_on,24,0,4,,,,,,,,,4,,,,58,86
18185,note_on,30,0,2,,,,,,,,,1,,,,68,81
18185,note_on,0,0,2,,,,,,,,,1,,,,74,81
18186,note_on,24,0,5,,,,,,,,,5,,,,58,86
18186,note_on,30,0,8,,,,,,,,,12,,,,58,98
18191,note_on,30,0,9,,,,,,,,,13,,,,58,89
18192,note_on,30,0,3,,,,,,,,,3,,,,58,81
18193,note_on,30,0,10,,,,,,,,,14,,,,46,73
18210,note_on,30,0,6,,,,,,,,,10,,,,74,0
18213,note_on,30,0,7,,,,,,,,,11,,,,68,0
18213,note_on,30,0,1,,,,,,,,,0,,,,86,0
18215,note_on,0,0,2,,,,,,,,,1,,,,68,0
18215,note_on,30,0,2,,,,,,,,,1,,,,74,0
18216,note_on,30,0,8,,,,,,,,,12,,,,58,0
18220,note_on,36,0,4,,,,,,,,,4,,,,58,0
18221,note_on,30,0,9,,,,,,,,,13,,,,58,0
18222,note_on,36,0,5,,,,,,,,,5,,,,58,0
18222,note_on,30,0,3,,,,,,,,,3,,,,58,0
18223,note_on,30,0,10,,,,,,,,,14,,,,46,0
18240,note_on,30,0,6,,,,,,,,,10,,,,75,100
18240,set_tempo,120,1,0,,,,,,363636,,,,,,,,
18243,note_on,30,0,1,,,,,,,,,0,,,,87,82
18243,note_on,30,0,7,,,,,,,,,11,,,,67,100
18244,note_on,24,0,4,,,,,,,,,4,,,,58,86
18245,note_on,30,0,2,,,,,,,,,1,,,,67,81
18245,note_on,0,0,2,,,,,,,,,1,,,,75,81
18246,note_on,30,0,8,,,,,,,,,12,,,,63,98
18246,note_on,24,0,5,,,,,,,,,5,,,,58,86
18251,note_on,30,0,9,,,,,,,,,13,,,,51,89
18252,note_on,30,0,3,,,,,,,,,3,,,,51,81
18253,note_on,30,0,10,,,,,,,,,14,,,,39,73
18270,note_on,30,0,6,,,,,,,,,10,,,,75,0
18273,note_on,30,0,1,,,,,,,,,0,,,,87,0
18273,note_on,30,0,7,,,,,,,,,11,,,,67,0
18275,note_on,30,0,2,,,,,,,,,1,,,,75,0
18275,note_on,0,0,2,,,,,,,,,1,,,,67,0
18276,note_on,30,0,8,,,,,,,,,12,,,,63,0
18280,note_on,36,0,4,,,,,,,,,4,,,,58,0
18281,note_on,30,0,9,,,,,,,,,13,,,,51,0
18282,note_on,36,0,5,,,,,,,,,5,,,,58,0
18282,note_on,30,0,3,,,,,,,,,3,,,,51,0
18283,note_on,30,0,10,,,,,,,,,14,,,,39,0
18300,note_on,30,0,6,,,,,,,,,10,,,,75,100
18303,note_on,30,0,1,,,,,,,,,0,,,,87,82
18303,note_on,30,0,7,,,,,,,,,11,,,,67,100
18304,note_on,24,0,4,,,,,,,,,4,,,,58,86
18305,note_on,30,0,2,,,,,,,,,1,,,,75,81
18305,note_on,0,0,2,,,,,,,,,1,,,,67,81
18306,note_on,30,0,8,,,,,,,,,12,,,,63,98
18306,note_on,24,0,5,,,,,,,,,5,,,,58,86
18311,note_on,30,0,9,,,,,,,,,13,,,,51,89
18312,note_on,30,0,3,,,,,,,,,3,,,,51,81
18313,note_on,30,0,10,,,,,,,,,14,,,,39,73
18330,note_on,30,0,6,,,,,,,,,10,,,,75,0
18333,note_on,30,0,7,,,,,,,,,11,,,,67,0
18333,note_on,30,0,1,,,,,,,,,0,,,,87,0
18335,note_on,30,0,2,,,,,,,,,1,,,,67,0
18335,note_on,0,0,2,,,,,,,,,1,,,,75,0
18336,note_on,30,0,8,,,,,,,,,12,,,,63,0
18340,note_on,36,0,4,,,,,,,,,4,,,,58,0
18341,note_on,30,0,9,,,,,,,,,13,,,,51,0
18342,note_on,36,0,5,,,,,,,,,5,,,,58,0
18342,note_on,30,0,3,,,,,,,,,3,,,,51,0
18343,note_on,30,0,10,,,,,,,,,14,,,,39,0
18360,set_tempo,120,1,0,,,,,,385852,,,,,,,,
18360,note_on,30,0,6,,,,,,,,,10,,,,72,100
18363,note_on,30,0,1,,,,,,,,,0,,,,84,82
18363,note_on,30,0,7,,,,,,,,,11,,,,69,100
18363,note_on,0,0,7,,,,,,,,,11,,,,63,100
18364,note_on,24,0,4,,,,,,,,,4,,,,60,86
18365,note_on,0,0,2,,,,,,,,,1,,,,72,81
18365,note_on,30,0,2,,,,,,,,,1,,,,69,81
18366,note_on,24,0,5,,,,,,,,,5,,,,53,86
18366,note_on,30,0,8,,,,,,,,,12,,,,65,98
18371,note_on,30,0,9,,,,,,,,,13,,,,53,89
18372,note_on,30,0,3,,,,,,,,,3,,,,53,81
18373,note_on,30,0,10,,,,,,,,,14,,,,41,73
18390,note_on,30,0,6,,,,,,,,,10,,,,72,0
18393,note_on,30,0,7,,,,,,,,,11,,,,63,0
18393,note_on,0,0,7,,,,,,,,,11,,,,69,0
18393,note_on,30,0,1,,,,,,,,,0,,,,84,0
18395,note_on,30,0,2,,,,,,,,,1,,,,72,0
18395,note_on,0,0,2,,,,,,,,,1,,,,69,0
18396,note_on,30,0,8,,,,,,,,,12,,,,65,0
18400,note_on,36,0,4,,,,,,,,,4,,,,60,0
18401,note_on,30,0,9,,,,,,,,,13,,,,53,0
18402,note_on,30,0,3,,,,,,,,,3,,,,53,0
18402,note_on,36,0,5,,,,,,,,,5,,,,53,0
18403,note_on,30,0,10,,,,,,,,,14,,,,41,0
18420,note_on,30,0,6,,,,,,,,,10,,,,72,100
18423,note_on,0,0,7,,,,,,,,,11,,,,69,100
18423,note_on,30,0,7,,,,,,,,,11,,,,63,100
18423,note_on,30,0,1,,,,,,,,,0,,,,84,82
18424,note_on,24,0,4,,,,,,,,,4,,,,60,86
18425,note_on,0,0,2,,,,,,,,,1,,,,69,81
18425,note_on,30,0,2,,,,,,,,,1,,,,72,81
18426,note_on,30,0,8,,,,,,,,,12,,,,65,98
18426,note_on,24,0,5,,,,,,,,,5,,,,53,86
18431,note_on,30,0,9,,,,,,,,,13,,,,53,89
18432,note_on,30,0,3,,,,,,,,,3,,,,53,81
18433,note_on,30,0,10,,,,,,,,,14,,,,41,73
18450,set_tempo,90,1,0,,,,,,465116,,,,,,,,
18450,note_on,30,0,6,,,,,,,,,10,,,,72,0
18453,note_on,0,0,7,,,,,,,,,11,,,,63,0
18453,note_on,30,0,1,,,,,,,,,0,,,,84,0
18453,note_on,30,0,7,,,,,,,,,11,,,,69,0
18455,note_on,0,0,2,,,,,,,,,1,,,,72,0
18455,note_on,30,0,2,,,,,,,,,1,,,,69,0
18456,note_on,30,0,8,,,,,,,,,12,,,,65,0
18460,note_on,36,0,4,,,,,,,,,4,,,,60,0
18461,note_on,30,0,9,,,,,,,,,13,,,,53,0
18462,note_on,36,0,5,,,,,,,,,5,,,,53,0
18462,note_on,30,0,3,,,,,,,,,3,,,,53,0
18463,note_on,30,0,10,,,,,,,,,14,,,,41,0
18480,set_tempo,30,1,0,,,,,,355030,,,,,,,,
18480,note_on,0,0,6,,,,,,,,,10,,,,70,100
18480,control_change,30,0,6,,,,,,,,,10,11,89,,,
18483,note_on,0,0,7,,,,,,,,,11,,,,58,100
18483,note_on,0,0,1,,,,,,,,,0,,,,82,82
18483,control_change,30,0,7,,,,,,,,,11,11,89,,,
18483,control_change,30,0,1,,,,,,,,,0,11,89,,,
18484,control_change,24,0,4,,,,,,,,,4,11,89,,,
18484,note_on,0,0,4,,,,,,,,,4,,,,58,86
18485,note_on,0,0,2,,,,,,,,,1,,,,70,81
18485,control_change,30,0,2,,,,,,,,,1,11,89,,,
18486,note_on,0,0,8,,,,,,,,,12,,,,61,98
18486,control_change,24,0,5,,,,,,,,,5,11,89,,,
18486,control_change,30,0,8,,,,,,,,,12,11,89,,,
18486,note_on,0,0,5,,,,,,,,,5,,,,46,86
18491,note_on,0,0,9,,,,,,,,,13,,,,46,89
18491,control_change,30,0,9,,,,,,,,,13,11,89,,,
18492,control_change,30,0,3,,,,,,,,,3,11,89,,,
18492,note_on,0,0,3,,,,,,,,,3,,,,61,81
18492,note_on,0,0,3,,,,,,,,,3,,,,58,81
18493,note_on,0,0,10,,,,,,,,,14,,,,34,73
18493,control_change,30,0,10,,,,,,,,,14,11,89,,,
18506,note_on,20,0,8,,,,,,,,,12,,,,61,0
18511,note_on,20,0,9,,,,,,,,,13,,,,46,0
18513,note_on,20,0,10,,,,,,,,,14,,,,34,0
18516,note_on,10,0,8,,,,,,,,,12,,,,61,90
18521,note_on,10,0,9,,,,,,,,,13,,,,58,81
18523,note_on,10,0,10,,,,,,,,,14,,,,46,65
18536,note_on,20,0,8,,,,,,,,,12,,,,61,0
18541,note_on,20,0,9,,,,,,,,,13,,,,58,0
18543,note_on,20,0,10,,,,,,,,,14,,,,46,0
18546,note_on,10,0,8,,,,,,,,,12,,,,61,98
18551,note_on,10,0,9,,,,,,,,,13,,,,58,89
18553,note_on,10,0,10,,,,,,,,,14,,,,46,73
18566,note_on,20,0,8,,,,,,,,,12,,,,61,0
18571,note_on,20,0,9,,,,,,,,,13,,,,58,0
18573,note_on,20,0,10,,,,,,,,,14,,,,46,0
18576,note_on,10,0,8,,,,,,,,,12,,,,61,90
18581,note_on,10,0,9,,,,,,,,,13,,,,58,81
18583,note_on,10,0,10,,,,,,,,,14,,,,46,65
18596,note_on,20,0,8,,,,,,,,,12,,,,61,0
18600,set_tempo,120,1,0,,,,,,382166,,,,,,,,
18601,note_on,20,0,9,,,,,,,,,13,,,,58,0
18603,note_on,20,0,10,,,,,,,,,14,,,,46,0
18606,note_on,10,0,8,,,,,,,,,12,,,,61,98
18611,note_on,10,0,9,,,,,,,,,13,,,,58,89
18613,note_on,10,0,10,,,,,,,,,14,,,,46,73
18626,note_on,20,0,8,,,,,,,,,12,,,,61,0
18631,note_on,20,0,9,,,,,,,,,13,,,,58,0
18633,note_on,20,0,10,,,,,,,,,14,,,,46,0
18636,note_on,10,0,8,,,,,,,,,12,,,,61,90
18641,note_on,10,0,9,,,,,,,,,13,,,,58,81
18643,note_on,10,0,10,,,,,,,,,14,,,,46,65
18656,note_on,20,0,8,,,,,,,,,12,,,,61,0
18661,note_on,20,0,9,,,,,,,,,13,,,,58,0
18663,note_on,20,0,10,,,,,,,,,14,,,,46,0
18666,note_on,10,0,8,,,,,,,,,12,,,,61,98
18671,note_on,10,0,9,,,,,,,,,13,,,,58,89
18673,note_on,10,0,10,,,,,,,,,14,,,,46,73
18686,note_on,20,0,8,,,,,,,,,12,,,,61,0
18691,note_on,20,0,9,,,,,,,,,13,,,,58,0
18693,note_on,20,0,10,,,,,,,,,14,,,,46,0
18696,note_on,10,0,8,,,,,,,,,12,,,,61,90
18701,note_on,10,0,9,,,,,,,,,13,,,,58,81
18703,note_on,10,0,10,,,,,,,,,14,,,,46,65
18710,note_on,230,0,6,,,,,,,,,10,,,,70,0
18713,note_on,230,0,7,,,,,,,,,11,,,,58,0
18713,note_on,230,0,1,,,,,,,,,0,,,,82,0
18714,note_on,230,0,4,,,,,,,,,4,,,,58,0
18715,note_on,230,0,2,,,,,,,,,1,,,,70,0
18716,note_on,230,0,5,,,,,,,,,5,,,,46,0
18716,note_on,20,0,8,,,,,,,,,12,,,,61,0
18720,control_change,10,0,6,,,,,,,,,10,11,103,,,
18720,note_on,0,0,6,,,,,,,,,10,,,,73,100
18720,set_tempo,120,1,0,,,,,,355030,,,,,,,,
18721,note_on,20,0,9,,,,,,,,,13,,,,58,0
18722,note_on,230,0,3,,,,,,,,,3,,,,58,0
18722,note_on,0,0,3,,,,,,,,,3,,,,61,0
18723,note_on,0,0,7,,,,,,,,,11,,,,61,100
18723,note_on,20,0,10,,,,,,,,,14,,,,46,0
18723,note_on,0,0,1,,,,,,,,,0,,,,85,82
18723,control_change,10,0,1,,,,,,,,,0,11,103,,,
18723,control_change,10,0,7,,,,,,,,,11,11,103,,,
18724,control_change,10,0,4,,,,,,,,,4,11,103,,,
18724,note_on,0,0,4,,,,,,,,,4,,,,58,86
18725,note_on,0,0,2,,,,,,,,,1,,,,73,81
18725,control_change,10,0,2,,,,,,,,,1,11,103,,,
18726,control_change,10,0,5,,,,,,,,,5,11,103,,,
18726,note_on,0,0,5,,,,,,,,,5,,,,46,86
18726,control_change,10,0,8,,,,,,,,,12,11,103,,,
18726,note_on,0,0,8,,,,,,,,,12,,,,61,98
18731,note_on,0,0,9,,,,,,,,,13,,,,58,89
18731,control_change,10,0,9,,,,,,,,,13,11,103,,,
18732,control_change,10,0,3,,,,,,,,,3,11,103,,,
18732,note_on,0,0,3,,,,,,,,,3,,,,58,81
18732,note_on,0,0,3,,,,,,,,,3,,,,61,81
18733,note_on,0,0,10,,,,,,,,,14,,,,46,73
18733,control_change,10,0,10,,,,,,,,,14,11,103,,,
18737,control_change,17,0,6,,,,,,,,,10,11,101,,,
18740,control_change,17,0,7,,,,,,,,,11,11,101,,,
18740,control_change,17,0,1,,,,,,,,,0,11,101,,,
18741,control_change,17,0,4,,,,,,,,,4,11,101,,,
18742,control_change,17,0,2,,,,,,,,,1,11,101,,,
18743,control_change,17,0,5,,,,,,,,,5,11,101,,,
18743,control_change,17,0,8,,,,,,,,,12,11,101,,,
18746,note_on,3,0,8,,,,,,,,,12,,,,61,0
18748,control_change,17,0,9,,,,,,,,,13,11,101,,,
18749,control_change,17,0,3,,,,,,,,,3,11,101,,,
18750,control_change,17,0,10,,,,,,,,,14,11,101,,,
18751,note_on,3,0,9,,,,,,,,,13,,,,58,0
18753,note_on,3,0,10,,,,,,,,,14,,,,46,0
18755,control_change,18,0,6,,,,,,,,,10,11,99,,,
18756,note_on,10,0,8,,,,,,,,,12,,,,61,90
18758,control_change,18,0,1,,,,,,,,,0,11,99,,,
18758,control_change,18,0,7,,,,,,,,,11,11,99,,,
18759,control_change,18,0,4,,,,,,,,,4,11,99,,,
18760,control_change,18,0,2,,,,,,,,,1,11,99,,,
18761,note_on,10,0,9,,,,,,,,,13,,,,58,81
18761,control_change,5,0,8,,,,,,,,,12,11,99,,,
18761,control_change,18,0,5,,,,,,,,,5,11,99,,,
18763,note_on,10,0,10,,,,,,,,,14,,,,46,65
18766,control_change,5,0,9,,,,,,,,,13,11,99,,,
18767,control_change,18,0,3,,,,,,,,,3,11,99,,,
18768,control_change,5,0,10,,,,,,,,,14,11,99,,,
18773,control_change,18,0,6,,,,,,,,,10,11,97,,,
18776,note_on,15,0,8,,,,,,,,,12,,,,61,0
18776,control_change,18,0,1,,,,,,,,,0,11,97,,,
18776,control_change,18,0,7,,,,,,,,,11,11,97,,,
18777,control_change,18,0,4,,,,,,,,,4,11,97,,,
18778,control_change,18,0,2,,,,,,,,,1,11,97,,,
18779,control_change,3,0,8,,,,,,,,,12,11,97,,,
18779,control_change,18,0,5,,,,,,,,,5,11,97,,,
18781,note_on,15,0,9,,,,,,,,,13,,,,58,0
18783,note_on,15,0,10,,,,,,,,,14,,,,46,0
18784,control_change,3,0,9,,,,,,,,,13,11,97,,,
18785,control_change,18,0,3,,,,,,,,,3,11,97,,,
18786,note_on,7,0,8,,,,,,,,,12,,,,61,98
18786,control_change,3,0,10,,,,,,,,,14,11,97,,,
18791,note_on,7,0,9,,,,,,,,,13,,,,58,89
18791,control_change,18,0,6,,,,,,,,,10,11,95,,,
18793,note_on,7,0,10,,,,,,,,,14,,,,46,73
18794,control_change,18,0,7,,,,,,,,,11,11,95,,,
18794,control_change,18,0,1,,,,,,,,,0,11,95,,,
18795,control_change,18,0,4,,,,,,,,,4,11,95,,,
18796,control_change,18,0,2,,,,,,,,,1,11,95,,,
18797,control_change,18,0,5,,,,,,,,,5,11,95,,,
18797,control_change,11,0,8,,,,,,,,,12,11,95,,,
18802,control_change,11,0,9,,,,,,,,,13,11,95,,,
18803,control_change,18,0,3,,,,,,,,,3,11,95,,,
18804,control_change,11,0,10,,,,,,,,,14,11,95,,,
18806,note_on,9,0,8,,,,,,,,,12,,,,61,0
18809,control_change,18,0,6,,,,,,,,,10,11,93,,,
18811,note_on,9,0,9,,,,,,,,,13,,,,58,0
18812,control_change,18,0,1,,,,,,,,,0,11,93,,,
18812,control_change,18,0,7,,,,,,,,,11,11,93,,,
18813,note_on,9,0,10,,,,,,,,,14,,,,46,0
18813,control_change,18,0,4,,,,,,,,,4,11,93,,,
18814,control_change,18,0,2,,,,,,,,,1,11,93,,,
18815,control_change,18,0,5,,,,,,,,,5,11,93,,,
18815,control_change,9,0,8,,,,,,,,,12,11,93,,,
18816,note_on,1,0,8,,,,,,,,,12,,,,61,90
18820,control_change,9,0,9,,,,,,,,,13,11,93,,,
18821,control_change,18,0,3,,,,,,,,,3,11,93,,,
18821,note_on,1,0,9,,,,,,,,,13,,,,58,81
18822,control_change,9,0,10,,,,,,,,,14,11,93,,,
18823,note_on,1,0,10,,,,,,,,,14,,,,46,65
18827,control_change,18,0,6,,,,,,,,,10,11,91,,,
18830,control_change,18,0,1,,,,,,,,,0,11,91,,,
18830,control_change,18,0,7,,,,,,,,,11,11,91,,,
18831,control_change,18,0,4,,,,,,,,,4,11,91,,,
18832,control_change,18,0,2,,,,,,,,,1,11,91,,,
18833,control_change,17,0,8,,,,,,,,,12,11,91,,,
18833,control_change,18,0,5,,,,,,,,,5,11,91,,,
18836,note_on,3,0,8,,,,,,,,,12,,,,61,0
18838,control_change,17,0,9,,,,,,,,,13,11,91,,,
18839,control_change,18,0,3,,,,,,,,,3,11,91,,,
18840,control_change,17,0,10,,,,,,,,,14,11,91,,,
18840,set_tempo,120,1,0,,,,,,382166,,,,,,,,
18841,note_on,3,0,9,,,,,,,,,13,,,,58,0
18843,note_on,3,0,10,,,,,,,,,14,,,,46,0
18846,note_on,10,0,8,,,,,,,,,12,,,,61,98
18851,note_on,10,0,9,,,,,,,,,13,,,,58,89
18853,note_on,10,0,10,,,,,,,,,14,,,,46,73
18866,note_on,20,0,8,,,,,,,,,12,,,,61,0
18871,note_on,20,0,9,,,,,,,,,13,,,,58,0
18873,note_on,20,0,10,,,,,,,,,14,,,,46,0
18876,note_on,10,0,8,,,,,,,,,12,,,,61,90
18881,note_on,10,0,9,,,,,,,,,13,,,,58,81
18883,note_on,10,0,10,,,,,,,,,14,,,,46,65
18896,note_on,20,0,8,,,,,,,,,12,,,,61,0
18901,note_on,20,0,9,,,,,,,,,13,,,,58,0
18903,note_on,20,0,10,,,,,,,,,14,,,,46,0
18906,note_on,10,0,8,,,,,,,,,12,,,,61,98
18911,note_on,10,0,9,,,,,,,,,13,,,,58,89
18913,note_on,10,0,10,,,,,,,,,14,,,,46,73
18926,note_on,20,0,8,,,,,,,,,12,,,,61,0
18931,note_on,20,0,9,,,,,,,,,13,,,,58,0
18933,note_on,20,0,10,,,,,,,,,14,,,,46,0
18936,note_on,10,0,8,,,,,,,,,12,,,,61,90
18941,note_on,10,0,9,,,,,,,,,13,,,,58,81
18943,note_on,10,0,10,,,,,,,,,14,,,,46,65
18950,note_on,123,0,6,,,,,,,,,10,,,,73,0
18953,note_on,123,0,1,,,,,,,,,0,,,,85,0
18953,note_on,123,0,7,,,,,,,,,11,,,,61,0
18954,note_on,123,0,4,,,,,,,,,4,,,,58,0
18955,note_on,123,0,2,,,,,,,,,1,,,,73,0
18956,note_on,123,0,5,,,,,,,,,5,,,,46,0
18956,note_on,20,0,8,,,,,,,,,12,,,,61,0
18960,note_on,0,0,6,,,,,,,,,10,,,,78,100
18960,control_change,10,0,6,,,,,,,,,10,11,103,,,
18960,set_tempo,120,1,0,,,,,,355030,,,,,,,,
18961,note_on,20,0,9,,,,,,,,,13,,,,58,0
18962,note_on,0,0,3,,,,,,,,,3,,,,58,0
18962,note_on,123,0,3,,,,,,,,,3,,,,61,0
18963,note_on,20,0,10,,,,,,,,,14,,,,46,0
18963,note_on,0,0,7,,,,,,,,,11,,,,66,100
18963,control_change,10,0,7,,,,,,,,,11,11,103,,,
18963,control_change,10,0,1,,,,,,,,,0,11,103,,,
18963,note_on,0,0,1,,,,,,,,,0,,,,90,82
18964,note_on,0,0,4,,,,,,,,,4,,,,58,86
18964,control_change,10,0,4,,,,,,,,,4,11,103,,,
18965,control_change,10,0,2,,,,,,,,,1,11,103,,,
18965,note_on,0,0,2,,,,,,,,,1,,,,78,81
18966,note_on,0,0,5,,,,,,,,,5,,,,46,86
18966,control_change,10,0,5,,,,,,,,,5,11,103,,,
18966,note_on,0,0,8,,,,,,,,,12,,,,61,98
18966,control_change,10,0,8,,,,,,,,,12,11,103,,,
18971,note_on,0,0,9,,,,,,,,,13,,,,58,89
18971,control_change,10,0,9,,,,,,,,,13,11,103,,,
18972,control_change,10,0,3,,,,,,,,,3,11,103,,,
18972,note_on,0,0,3,,,,,,,,,3,,,,58,81
18972,note_on,0,0,3,,,,,,,,,3,,,,61,81
18973,note_on,0,0,10,,,,,,,,,14,,,,46,73
18973,control_change,10,0,10,,,,,,,,,14,11,103,,,
18977,control_change,17,0,6,,,,,,,,,10,11,101,,,
18980,control_change,17,0,7,,,,,,,,,11,11,101,,,
18980,control_change,17,0,1,,,,,,,,,0,11,101,,,
18981,control_change,17,0,4,,,,,,,,,4,11,101,,,
18982,control_change,17,0,2,,,,,,,,,1,11,101,,,
18983,control_change,17,0,8,,,,,,,,,12,11,101,,,
18983,control_change,17,0,5,,,,,,,,,5,11,101,,,
18986,note_on,3,0,8,,,,,,,,,12,,,,61,0
18988,control_change,17,0,9,,,,,,,,,13,11,101,,,
18989,control_change,17,0,3,,,,,,,,,3,11,101,,,
18990,control_change,17,0,10,,,,,,,,,14,11,101,,,
18991,note_on,3,0,9,,,,,,,,,13,,,,58,0
18993,note_on,3,0,10,,,,,,,,,14,,,,46,0
18995,control_change,18,0,6,,,,,,,,,10,11,99,,,
18996,note_on,10,0,8,,,,,,,,,12,,,,61,90
18998,control_change,18,0,7,,,,,,,,,11,11,99,,,
18998,control_change,18,0,1,,,,,,,,,0,11,99,,,
18999,control_change,18,0,4,,,,,,,,,4,11,99,,,
19000,control_change,18,0,2,,,,,,,,,1,11,99,,,
19001,control_change,5,0,8,,,,,,,,,12,11,99,,,
19001,note_on,10,0,9,,,,,,,,,13,,,,58,81
19001,control_change,18,0,5,,,,,,,,,5,11,99,,,
19003,note_on,10,0,10,,,,,,,,,14,,,,46,65
19006,control_change,5,0,9,,,,,,,,,13,11,99,,,
19007,control_change,18,0,3,,,,,,,,,3,11,99,,,
19008,control_change,5,0,10,,,,,,,,,14,11,99,,,
19013,control_change,18,0,6,,,,,,,,,10,11,97,,,
19016,control_change,18,0,7,,,,,,,,,11,11,97,,,
19016,note_on,15,0,8,,,,,,,,,12,,,,61,0
19016,control_change,18,0,1,,,,,,,,,0,11,97,,,
19017,control_change,18,0,4,,,,,,,,,4,11,97,,,
19018,control_change,18,0,2,,,,,,,,,1,11,97,,,
19019,control_change,18,0,5,,,,,,,,,5,11,97,,,
19019,control_change,3,0,8,,,,,,,,,12,11,97,,,
19021,note_on,15,0,9,,,,,,,,,13,,,,58,0
19023,note_on,15,0,10,,,,,,,,,14,,,,46,0
19024,control_change,3,0,9,,,,,,,,,13,11,97,,,
19025,control_change,18,0,3,,,,,,,,,3,11,97,,,
19026,control_change,3,0,10,,,,,,,,,14,11,97,,,
19026,note_on,7,0,8,,,,,,,,,12,,,,61,98
19031,control_change,18,0,6,,,,,,,,,10,11,95,,,
19031,note_on,7,0,9,,,,,,,,,13,,,,58,89
19033,note_on,7,0,10,,,,,,,,,14,,,,46,73
19034,control_change,18,0,7,,,,,,,,,11,11,95,,,
19034,control_change,18,0,1,,,,,,,,,0,11,95,,,
19035,control_change,18,0,4,,,,,,,,,4,11,95,,,
19036,control_change,18,0,2,,,,,,,,,1,11,95,,,
19037,control_change,18,0,5,,,,,,,,,5,11,95,,,
19037,control_change,11,0,8,,,,,,,,,12,11,95,,,
19042,control_change,11,0,9,,,,,,,,,13,11,95,,,
19043,control_change,18,0,3,,,,,,,,,3,11,95,,,
19044,control_change,11,0,10,,,,,,,,,14,11,95,,,
19046,note_on,9,0,8,,,,,,,,,12,,,,61,0
19049,control_change,18,0,6,,,,,,,,,10,11,93,,,
19051,note_on,9,0,9,,,,,,,,,13,,,,58,0
19052,control_change,18,0,1,,,,,,,,,0,11,93,,,
19052,control_change,18,0,7,,,,,,,,,11,11,93,,,
19053,control_change,18,0,4,,,,,,,,,4,11,93,,,
19053,note_on,9,0,10,,,,,,,,,14,,,,46,0
19054,control_change,18,0,2,,,,,,,,,1,11,93,,,
19055,control_change,18,0,5,,,,,,,,,5,11,93,,,
19055,control_change,9,0,8,,,,,,,,,12,11,93,,,
19056,note_on,1,0,8,,,,,,,,,12,,,,61,90
19060,control_change,9,0,9,,,,,,,,,13,11,93,,,
19061,note_on,1,0,9,,,,,,,,,13,,,,58,81
19061,control_change,18,0,3,,,,,,,,,3,11,93,,,
19062,control_change,9,0,10,,,,,,,,,14,11,93,,,
19063,note_on,1,0,10,,,,,,,,,14,,,,46,65
19067,control_change,18,0,6,,,,,,,,,10,11,91,,,
19070,control_change,18,0,7,,,,,,,,,11,11,91,,,
19070,control_change,18,0,1,,,,,,,,,0,11,91,,,
19071,control_change,18,0,4,,,,,,,,,4,11,91,,,
19072,control_change,18,0,2,,,,,,,,,1,11,91,,,
19073,control_change,17,0,8,,,,,,,,,12,11,91,,,
19073,control_change,18,0,5,,,,,,,,,5,11,91,,,
19076,note_on,3,0,8,,,,,,,,,12,,,,61,0
19078,control_change,17,0,9,,,,,,,,,13,11,91,,,
19079,control_change,18,0,3,,,,,,,,,3,11,91,,,
19080,control_change,17,0,10,,,,,,,,,14,11,91,,,
19080,set_tempo,120,1,0,,,,,,382166,,,,,,,,
19081,note_on,3,0,9,,,,,,,,,13,,,,58,0
19083,note_on,3,0,10,,,,,,,,,14,,,,46,0
19086,note_on,10,0,8,,,,,,,,,12,,,,61,98
19091,note_on,10,0,9,,,,,,,,,13,,,,58,89
19093,note_on,10,0,10,,,,,,,,,14,,,,46,73
19106,note_on,20,0,8,,,,,,,,,12,,,,61,0
19111,note_on,20,0,9,,,,,,,,,13,,,,58,0
19113,note_on,20,0,10,,,,,,,,,14,,,,46,0
19116,note_on,10,0,8,,,,,,,,,12,,,,61,90
19121,note_on,10,0,9,,,,,,,,,13,,,,58,81
19123,note_on,10,0,10,,,,,,,,,14,,,,46,65
19136,note_on,20,0,8,,,,,,,,,12,,,,61,0
19141,note_on,20,0,9,,,,,,,,,13,,,,58,0
19143,note_on,20,0,10,,,,,,,,,14,,,,46,0
19146,note_on,10,0,8,,,,,,,,,12,,,,61,98
19151,note_on,10,0,9,,,,,,,,,13,,,,58,89
19153,note_on,10,0,10,,,,,,,,,14,,,,46,73
19166,note_on,20,0,8,,,,,,,,,12,,,,61,0
19171,note_on,20,0,9,,,,,,,,,13,,,,58,0
19173,note_on,20,0,10,,,,,,,,,14,,,,46,0
19176,note_on,10,0,8,,,,,,,,,12,,,,61,90
19181,note_on,10,0,9,,,,,,,,,13,,,,58,81
19183,note_on,10,0,10,,,,,,,,,14,,,,46,65
19190,note_on,123,0,6,,,,,,,,,10,,,,78,0
19193,note_on,123,0,7,,,,,,,,,11,,,,66,0
19193,note_on,123,0,1,,,,,,,,,0,,,,90,0
19194,note_on,123,0,4,,,,,,,,,4,,,,58,0
19195,note_on,123,0,2,,,,,,,,,1,,,,78,0
19196,note_on,123,0,5,,,,,,,,,5,,,,46,0
19196,note_on,20,0,8,,,,,,,,,12,,,,61,0
19200,set_tempo,120,1,0,,,,,,355030,,,,,,,,
19200,note_on,10,0,6,,,,,,,,,10,,,,82,100
19201,note_on,20,0,9,,,,,,,,,13,,,,58,0
19202,note_on,123,0,3,,,,,,,,,3,,,,61,0
19202,note_on,0,0,3,,,,,,,,,3,,,,58,0
19203,note_on,20,0,10,,,,,,,,,14,,,,46,0
19203,note_on,10,0,7,,,,,,,,,11,,,,70,100
19203,note_on,10,0,1,,,,,,,,,0,,,,82,82
19204,note_on,10,0,4,,,,,,,,,4,,,,58,86
19205,note_on,0,0,2,,,,,,,,,1,,,,70,81
19205,note_on,10,0,2,,,,,,,,,1,,,,82,81
19206,note_on,10,0,8,,,,,,,,,12,,,,61,98
19206,note_on,10,0,5,,,,,,,,,5,,,,46,86
19211,note_on,10,0,9,,,,,,,,,13,,,,58,89
19212,note_on,0,0,3,,,,,,,,,3,,,,58,81
19212,note_on,10,0,3,,,,,,,,,3,,,,61,81
19213,note_on,10,0,10,,,,,,,,,14,,,,46,73
19226,note_on,20,0,8,,,,,,,,,12,,,,61,0
19231,note_on,20,0,9,,,,,,,,,13,,,,58,0
19233,note_on,20,0,10,,,,,,,,,14,,,,46,0
19236,note_on,10,0,8,,,,,,,,,12,,,,61,90
19241,note_on,10,0,9,,,,,,,,,13,,,,58,81
19243,note_on,10,0,10,,,,,,,,,14,,,,46,65
19256,note_on,20,0,8,,,,,,,,,12,,,,61,0
19261,note_on,20,0,9,,,,,,,,,13,,,,58,0
19263,note_on,20,0,10,,,,,,,,,14,,,,46,0
19266,note_on,10,0,8,,,,,,,,,12,,,,61,98
19271,note_on,10,0,9,,,,,,,,,13,,,,58,89
19273,note_on,10,0,10,,,,,,,,,14,,,,46,73
19286,note_on,20,0,8,,,,,,,,,12,,,,61,0
19291,note_on,20,0,9,,,,,,,,,13,,,,58,0
19293,note_on,20,0,10,,,,,,,,,14,,,,46,0
19296,note_on,10,0,8,,,,,,,,,12,,,,61,90
19300,note_on,100,0,6,,,,,,,,,10,,,,82,0
19301,note_on,10,0,9,,,,,,,,,13,,,,58,81
19303,note_on,10,0,10,,,,,,,,,14,,,,46,65
19303,note_on,100,0,7,,,,,,,,,11,,,,70,0
19303,note_on,100,0,1,,,,,,,,,0,,,,82,0
19305,note_on,0,0,2,,,,,,,,,1,,,,82,0
19305,note_on,100,0,2,,,,,,,,,1,,,,70,0
19316,note_on,20,0,8,,,,,,,,,12,,,,61,0
19320,note_on,20,0,6,,,,,,,,,10,,,,85,100
19320,set_tempo,120,1,0,,,,,,382166,,,,,,,,
19321,note_on,20,0,9,,,,,,,,,13,,,,58,0
19323,note_on,20,0,10,,,,,,,,,14,,,,46,0
19323,note_on,20,0,1,,,,,,,,,0,,,,85,82
19323,note_on,20,0,7,,,,,,,,,11,,,,73,100
19325,note_on,20,0,2,,,,,,,,,1,,,,85,81
19325,note_on,0,0,2,,,,,,,,,1,,,,73,81
19326,note_on,10,0,8,,,,,,,,,12,,,,61,98
19331,note_on,10,0,9,,,,,,,,,13,,,,58,89
19333,note_on,10,0,10,,,,,,,,,14,,,,46,73
19346,note_on,20,0,8,,,,,,,,,12,,,,61,0
19351,note_on,20,0,9,,,,,,,,,13,,,,58,0
19353,note_on,20,0,10,,,,,,,,,14,,,,46,0
19356,note_on,10,0,8,,,,,,,,,12,,,,61,90
19361,note_on,10,0,9,,,,,,,,,13,,,,58,81
19363,note_on,10,0,10,,,,,,,,,14,,,,46,65
19376,note_on,20,0,8,,,,,,,,,12,,,,61,0
19381,note_on,20,0,9,,,,,,,,,13,,,,58,0
19383,note_on,20,0,10,,,,,,,,,14,,,,46,0
19386,note_on,10,0,8,,,,,,,,,12,,,,61,98
19391,note_on,10,0,9,,,,,,,,,13,,,,58,89
19393,note_on,10,0,10,,,,,,,,,14,,,,46,73
19406,note_on,20,0,8,,,,,,,,,12,,,,61,0
19411,note_on,20,0,9,,,,,,,,,13,,,,58,0
19413,note_on,20,0,10,,,,,,,,,14,,,,46,0
19416,note_on,10,0,8,,,,,,,,,12,,,,61,90
19420,note_on,100,0,6,,,,,,,,,10,,,,85,0
19421,note_on,10,0,9,,,,,,,,,13,,,,58,81
19423,note_on,100,0,1,,,,,,,,,0,,,,85,0
19423,note_on,100,0,7,,,,,,,,,11,,,,73,0
19423,note_on,10,0,10,,,,,,,,,14,,,,46,65
19425,note_on,0,0,2,,,,,,,,,1,,,,85,0
19425,note_on,100,0,2,,,,,,,,,1,,,,73,0
19434,note_on,230,0,4,,,,,,,,,4,,,,58,0
19436,note_on,20,0,8,,,,,,,,,12,,,,61,0
19436,note_on,230,0,5,,,,,,,,,5,,,,46,0
19440,note_on,0,0,6,,,,,,,,,10,,,,76,100
19440,control_change,20,0,6,,,,,,,,,10,11,103,,,
19440,set_tempo,120,1,0,,,,,,355030,,,,,,,,
19441,note_on,20,0,9,,,,,,,,,13,,,,58,0
19442,note_on,0,0,3,,,,,,,,,3,,,,61,0
19442,note_on,230,0,3,,,,,,,,,3,,,,58,0
19443,control_change,20,0,7,,,,,,,,,11,11,103,,,
19443,note_on,20,0,10,,,,,,,,,14,,,,46,0
19443,note_on,0,0,1,,,,,,,,,0,,,,88,82
19443,note_on,0,0,7,,,,,,,,,11,,,,64,100
19443,control_change,20,0,1,,,,,,,,,0,11,103,,,
19444,note_on,0,0,4,,,,,,,,,4,,,,60,86
19444,control_change,10,0,4,,,,,,,,,4,11,103,,,
19445,note_on,0,0,2,,,,,,,,,1,,,,76,81
19445,note_on,0,0,2,,,,,,,,,1,,,,67,81
19445,control_change,20,0,2,,,,,,,,,1,11,103,,,
19446,control_change,10,0,5,,,,,,,,,5,11,103,,,
19446,note_on,0,0,8,,,,,,,,,12,,,,60,98
19446,note_on,0,0,5,,,,,,,,,5,,,,58,86
19446,control_change,10,0,8,,,,,,,,,12,11,103,,,
19451,note_on,0,0,9,,,,,,,,,13,,,,58,89
19451,control_change,10,0,9,,,,,,,,,13,11,103,,,
19452,control_change,10,0,3,,,,,,,,,3,11,103,,,
19452,note_on,0,0,3,,,,,,,,,3,,,,60,81
19452,note_on,0,0,3,,,,,,,,,3,,,,58,81
19453,control_change,10,0,10,,,,,,,,,14,11,103,,,
19453,note_on,0,0,10,,,,,,,,,14,,,,46,73
19457,control_change,17,0,6,,,,,,,,,10,11,101,,,
19460,control_change,17,0,1,,,,,,,,,0,11,101,,,
19460,control_change,17,0,7,,,,,,,,,11,11,101,,,
19461,control_change,17,0,4,,,,,,,,,4,11,101,,,
19462,control_change,17,0,2,,,,,,,,,1,11,101,,,
19462,note_on,5,0,6,,,,,,,,,10,,,,76,0
19463,control_change,17,0,8,,,,,,,,,12,11,101,,,
19463,control_change,17,0,5,,,,,,,,,5,11,101,,,
19465,note_on,5,0,7,,,,,,,,,11,,,,64,0
19466,note_on,3,0,8,,,,,,,,,12,,,,60,0
19468,control_change,17,0,9,,,,,,,,,13,11,101,,,
19469,control_change,17,0,3,,,,,,,,,3,11,101,,,
19470,note_on,8,0,6,,,,,,,,,10,,,,77,100
19470,control_change,17,0,10,,,,,,,,,14,11,101,,,
19471,note_on,3,0,9,,,,,,,,,13,,,,58,0
19473,note_on,3,0,10,,,,,,,,,14,,,,46,0
19473,note_on,8,0,7,,,,,,,,,11,,,,65,100
19475,control_change,5,0,6,,,,,,,,,10,11,99,,,
19476,note_on,10,0,8,,,,,,,,,12,,,,60,90
19478,control_change,5,0,7,,,,,,,,,11,11,99,,,
19478,control_change,18,0,1,,,,,,,,,0,11,99,,,
19479,control_change,18,0,4,,,,,,,,,4,11,99,,,
19480,control_change,18,0,2,,,,,,,,,1,11,99,,,
19481,note_on,10,0,9,,,,,,,,,13,,,,58,81
19481,control_change,18,0,5,,,,,,,,,5,11,99,,,
19481,control_change,5,0,8,,,,,,,,,12,11,99,,,
19483,note_on,10,0,10,,,,,,,,,14,,,,46,65
19486,control_change,5,0,9,,,,,,,,,13,11,99,,,
19487,control_change,18,0,3,,,,,,,,,3,11,99,,,
19488,control_change,5,0,10,,,,,,,,,14,11,99,,,
19492,note_on,17,0,6,,,,,,,,,10,,,,77,0
19493,control_change,1,0,6,,,,,,,,,10,11,97,,,
19495,note_on,17,0,7,,,,,,,,,11,,,,65,0
19496,control_change,1,0,7,,,,,,,,,11,11,97,,,
19496,control_change,18,0,1,,,,,,,,,0,11,97,,,
19496,note_on,15,0,8,,,,,,,,,12,,,,60,0
19497,control_change,18,0,4,,,,,,,,,4,11,97,,,
19498,control_change,18,0,2,,,,,,,,,1,11,97,,,
19499,control_change,3,0,8,,,,,,,,,12,11,97,,,
19499,control_change,18,0,5,,,,,,,,,5,11,97,,,
19500,note_on,7,0,6,,,,,,,,,10,,,,79,100
19501,note_on,15,0,9,,,,,,,,,13,,,,58,0
19503,note_on,15,0,10,,,,,,,,,14,,,,46,0
19503,note_on,7,0,7,,,,,,,,,11,,,,67,100
19504,control_change,3,0,9,,,,,,,,,13,11,97,,,
19505,control_change,18,0,3,,,,,,,,,3,11,97,,,
19506,control_change,3,0,10,,,,,,,,,14,11,97,,,
19506,note_on,7,0,8,,,,,,,,,12,,,,60,98
19511,control_change,11,0,6,,,,,,,,,10,11,95,,,
19511,note_on,7,0,9,,,,,,,,,13,,,,58,89
19513,note_on,7,0,10,,,,,,,,,14,,,,46,73
19514,control_change,11,0,7,,,,,,,,,11,11,95,,,
19514,control_change,18,0,1,,,,,,,,,0,11,95,,,
19515,control_change,18,0,4,,,,,,,,,4,11,95,,,
19516,control_change,18,0,2,,,,,,,,,1,11,95,,,
19517,control_change,11,0,8,,,,,,,,,12,11,95,,,
19517,control_change,18,0,5,,,,,,,,,5,11,95,,,
19522,control_change,11,0,9,,,,,,,,,13,11,95,,,
19522,note_on,11,0,6,,,,,,,,,10,,,,79,0
19523,control_change,18,0,3,,,,,,,,,3,11,95,,,
19524,control_change,11,0,10,,,,,,,,,14,11,95,,,
19525,note_on,11,0,7,,,,,,,,,11,,,,67,0
19526,note_on,9,0,8,,,,,,,,,12,,,,60,0
19529,control_change,7,0,6,,,,,,,,,10,11,93,,,
19530,note_on,1,0,6,,,,,,,,,10,,,,81,100
19531,note_on,9,0,9,,,,,,,,,13,,,,58,0
19532,control_change,18,0,1,,,,,,,,,0,11,93,,,
19532,control_change,7,0,7,,,,,,,,,11,11,93,,,
19533,note_on,9,0,10,,,,,,,,,14,,,,46,0
19533,control_change,18,0,4,,,,,,,,,4,11,93,,,
19533,note_on,1,0,7,,,,,,,,,11,,,,69,100
19534,control_change,18,0,2,,,,,,,,,1,11,93,,,
19535,control_change,9,0,8,,,,,,,,,12,11,93,,,
19535,control_change,18,0,5,,,,,,,,,5,11,93,,,
19536,note_on,1,0,8,,,,,,,,,12,,,,60,90
19540,control_change,9,0,9,,,,,,,,,13,11,93,,,
19541,control_change,18,0,3,,,,,,,,,3,11,93,,,
19541,note_on,1,0,9,,,,,,,,,13,,,,58,81
19542,control_change,9,0,10,,,,,,,,,14,11,93,,,
19543,note_on,1,0,10,,,,,,,,,14,,,,46,65
19547,control_change,17,0,6,,,,,,,,,10,11,91,,,
19550,control_change,17,0,7,,,,,,,,,11,11,91,,,
19550,control_change,18,0,1,,,,,,,,,0,11,91,,,
19551,control_change,18,0,4,,,,,,,,,4,11,91,,,
19552,note_on,5,0,6,,,,,,,,,10,,,,81,0
19552,control_change,18,0,2,,,,,,,,,1,11,91,,,
19553,control_change,18,0,5,,,,,,,,,5,11,91,,,
19553,control_change,17,0,8,,,,,,,,,12,11,91,,,
19555,note_on,5,0,7,,,,,,,,,11,,,,69,0
19556,note_on,3,0,8,,,,,,,,,12,,,,60,0
19558,control_change,17,0,9,,,,,,,,,13,11,91,,,
19559,control_change,18,0,3,,,,,,,,,3,11,91,,,
19560,note_on,8,0,6,,,,,,,,,10,,,,82,100
19560,control_change,17,0,10,,,,,,,,,14,11,91,,,
19560,set_tempo,120,1,0,,,,,,382166,,,,,,,,
19561,note_on,3,0,9,,,,,,,,,13,,,,58,0
19563,note_on,8,0,7,,,,,,,,,11,,,,70,100
19563,note_on,3,0,10,,,,,,,,,14,,,,46,0
19566,note_on,10,0,8,,,,,,,,,12,,,,60,98
19571,note_on,10,0,9,,,,,,,,,13,,,,58,89
19573,note_on,10,0,10,,,,,,,,,14,,,,46,73
19582,note_on,22,0,6,,,,,,,,,10,,,,82,0
19585,note_on,22,0,7,,,,,,,,,11,,,,70,0
19586,note_on,20,0,8,,,,,,,,,12,,,,60,0
19590,note_on,8,0,6,,,,,,,,,10,,,,84,100
19591,note_on,20,0,9,,,,,,,,,13,,,,58,0
19593,note_on,8,0,7,,,,,,,,,11,,,,72,100
19593,note_on,20,0,10,,,,,,,,,14,,,,46,0
19596,note_on,10,0,8,,,,,,,,,12,,,,60,90
19601,note_on,10,0,9,,,,,,,,,13,,,,58,81
19603,note_on,10,0,10,,,,,,,,,14,,,,46,65
19612,note_on,22,0,6,,,,,,,,,10,,,,84,0
19615,note_on,22,0,7,,,,,,,,,11,,,,72,0
19616,note_on,20,0,8,,,,,,,,,12,,,,60,0
19620,note_on,8,0,6,,,,,,,,,10,,,,86,100
19621,note_on,20,0,9,,,,,,,,,13,,,,58,0
19623,note_on,20,0,10,,,,,,,,,14,,,,46,0
19623,note_on,8,0,7,,,,,,,,,11,,,,74,100
19626,note_on,10,0,8,,,,,,,,,12,,,,60,98
19631,note_on,10,0,9,,,,,,,,,13,,,,58,89
19633,note_on,10,0,10,,,,,,,,,14,,,,46,73
19642,note_on,22,0,6,,,,,,,,,10,,,,86,0
19645,note_on,22,0,7,,,,,,,,,11,,,,74,0
19646,note_on,20,0,8,,,,,,,,,12,,,,60,0
19650,note_on,8,0,6,,,,,,,,,10,,,,88,100
19651,note_on,20,0,9,,,,,,,,,13,,,,58,0
19653,note_on,20,0,10,,,,,,,,,14,,,,46,0
19653,note_on,8,0,7,,,,,,,,,11,,,,76,100
19656,note_on,10,0,8,,,,,,,,,12,,,,60,90
19661,note_on,10,0,9,,,,,,,,,13,,,,58,81
19663,note_on,10,0,10,,,,,,,,,14,,,,46,65
19672,note_on,22,0,6,,,,,,,,,10,,,,88,0
19673,note_on,123,0,1,,,,,,,,,0,,,,88,0
19674,note_on,123,0,4,,,,,,,,,4,,,,60,0
19675,note_on,0,0,2,,,,,,,,,1,,,,67,0
19675,note_on,123,0,2,,,,,,,,,1,,,,76,0
19675,note_on,22,0,7,,,,,,,,,11,,,,76,0
19676,note_on,123,0,5,,,,,,,,,5,,,,58,0
19676,note_on,20,0,8,,,,,,,,,12,,,,60,0
19680,set_tempo,120,1,0,,,,,,355030,,,,,,,,
19680,control_change,8,0,6,,,,,,,,,10,11,103,,,
19680,note_on,0,0,6,,,,,,,,,10,,,,89,100
19681,note_on,20,0,9,,,,,,,,,13,,,,58,0
19682,note_on,123,0,3,,,,,,,,,3,,,,58,0
19682,note_on,0,0,3,,,,,,,,,3,,,,60,0
19683,note_on,0,0,1,,,,,,,,,0,,,,89,82
19683,note_on,20,0,10,,,,,,,,,14,,,,46,0
19683,note_on,0,0,7,,,,,,,,,11,,,,77,100
19683,control_change,8,0,7,,,,,,,,,11,11,103,,,
19683,control_change,10,0,1,,,,,,,,,0,11,103,,,
19684,control_change,10,0,4,,,,,,,,,4,11,103,,,
19684,note_on,0,0,4,,,,,,,,,4,,,,60,86
19685,note_on,0,0,2,,,,,,,,,1,,,,72,81
19685,control_change,10,0,2,,,,,,,,,1,11,103,,,
19685,note_on,0,0,2,,,,,,,,,1,,,,77,81
19686,note_on,0,0,5,,,,,,,,,5,,,,53,86
19686,control_change,10,0,5,,,,,,,,,5,11,103,,,
19686,note_on,0,0,8,,,,,,,,,12,,,,60,98
19686,control_change,10,0,8,,,,,,,,,12,11,103,,,
19691,note_on,0,0,9,,,,,,,,,13,,,,56,89
19691,control_change,10,0,9,,,,,,,,,13,11,103,,,
19692,note_on,0,0,3,,,,,,,,,3,,,,60,81
19692,note_on,0,0,3,,,,,,,,,3,,,,56,81
19692,control_change,10,0,3,,,,,,,,,3,11,103,,,
19693,control_change,10,0,10,,,,,,,,,14,11,103,,,
19693,note_on,0,0,10,,,,,,,,,14,,,,44,73
19697,control_change,17,0,6,,,,,,,,,10,11,101,,,
19700,control_change,17,0,7,,,,,,,,,11,11,101,,,
19700,control_change,17,0,1,,,,,,,,,0,11,101,,,
19701,control_change,17,0,4,,,,,,,,,4,11,101,,,
19702,control_change,17,0,2,,,,,,,,,1,11,101,,,
19703,control_change,17,0,8,,,,,,,,,12,11,101,,,
19703,control_change,17,0,5,,,,,,,,,5,11,101,,,
19706,note_on,3,0,8,,,,,,,,,12,,,,60,0
19708,control_change,17,0,9,,,,,,,,,13,11,101,,,
19709,control_change,17,0,3,,,,,,,,,3,11,101,,,
19710,control_change,17,0,10,,,,,,,,,14,11,101,,,
19711,note_on,3,0,9,,,,,,,,,13,,,,56,0
19713,note_on,3,0,10,,,,,,,,,14,,,,44,0
19715,control_change,18,0,6,,,,,,,,,10,11,99,,,
19716,note_on,10,0,8,,,,,,,,,12,,,,60,90
19718,control_change,18,0,7,,,,,,,,,11,11,99,,,
19718,control_change,18,0,1,,,,,,,,,0,11,99,,,
19719,control_change,18,0,4,,,,,,,,,4,11,99,,,
19720,control_change,18,0,2,,,,,,,,,1,11,99,,,
19721,control_change,18,0,5,,,,,,,,,5,11,99,,,
19721,control_change,5,0,8,,,,,,,,,12,11,99,,,
19721,note_on,10,0,9,,,,,,,,,13,,,,55,89
19723,note_on,10,0,10,,,,,,,,,14,,,,43,73
19726,control_change,5,0,9,,,,,,,,,13,11,99,,,
19727,control_change,18,0,3,,,,,,,,,3,11,99,,,
19728,control_change,5,0,10,,,,,,,,,14,11,99,,,
19733,control_change,18,0,6,,,,,,,,,10,11,97,,,
19736,note_on,15,0,8,,,,,,,,,12,,,,60,0
19736,control_change,18,0,7,,,,,,,,,11,11,97,,,
19736,control_change,18,0,1,,,,,,,,,0,11,97,,,
19737,control_change,18,0,4,,,,,,,,,4,11,97,,,
19738,control_change,18,0,2,,,,,,,,,1,11,97,,,
19739,control_change,18,0,5,,,,,,,,,5,11,97,,,
19739,control_change,3,0,8,,,,,,,,,12,11,97,,,
19741,note_on,15,0,9,,,,,,,,,13,,,,55,0
19743,note_on,15,0,10,,,,,,,,,14,,,,43,0
19744,control_change,3,0,9,,,,,,,,,13,11,97,,,
19745,control_change,18,0,3,,,,,,,,,3,11,97,,,
19746,control_change,3,0,10,,,,,,,,,14,11,97,,,
19746,note_on,7,0,8,,,,,,,,,12,,,,60,98
19751,note_on,7,0,9,,,,,,,,,13,,,,53,89
19751,control_change,18,0,6,,,,,,,,,10,11,95,,,
19753,note_on,7,0,10,,,,,,,,,14,,,,41,73
19754,control_change,18,0,7,,,,,,,,,11,11,95,,,
19754,control_change,18,0,1,,,,,,,,,0,11,95,,,
19755,control_change,18,0,4,,,,,,,,,4,11,95,,,
19756,control_change,18,0,2,,,,,,,,,1,11,95,,,
19757,control_change,11,0,8,,,,,,,,,12,11,95,,,
19757,control_change,18,0,5,,,,,,,,,5,11,95,,,
19762,control_change,11,0,9,,,,,,,,,13,11,95,,,
19763,control_change,18,0,3,,,,,,,,,3,11,95,,,
19764,control_change,11,0,10,,,,,,,,,14,11,95,,,
19766,note_on,9,0,8,,,,,,,,,12,,,,60,0
19769,control_change,18,0,6,,,,,,,,,10,11,93,,,
19771,note_on,9,0,9,,,,,,,,,13,,,,53,0
19772,control_change,18,0,1,,,,,,,,,0,11,93,,,
19772,control_change,18,0,7,,,,,,,,,11,11,93,,,
19773,note_on,9,0,10,,,,,,,,,14,,,,41,0
19773,control_change,18,0,4,,,,,,,,,4,11,93,,,
19774,control_change,18,0,2,,,,,,,,,1,11,93,,,
19775,control_change,9,0,8,,,,,,,,,12,11,93,,,
19775,control_change,18,0,5,,,,,,,,,5,11,93,,,
19776,note_on,1,0,8,,,,,,,,,12,,,,60,90
19780,control_change,9,0,9,,,,,,,,,13,11,93,,,
19781,note_on,1,0,9,,,,,,,,,13,,,,51,89
19781,control_change,18,0,3,,,,,,,,,3,11,93,,,
19782,control_change,9,0,10,,,,,,,,,14,11,93,,,
19783,note_on,1,0,10,,,,,,,,,14,,,,39,73
19787,control_change,18,0,6,,,,,,,,,10,11,91,,,
19790,control_change,18,0,1,,,,,,,,,0,11,91,,,
19790,control_change,18,0,7,,,,,,,,,11,11,91,,,
19791,control_change,18,0,4,,,,,,,,,4,11,91,,,
19792,control_change,18,0,2,,,,,,,,,1,11,91,,,
19793,control_change,18,0,5,,,,,,,,,5,11,91,,,
19793,control_change,17,0,8,,,,,,,,,12,11,91,,,
19796,note_on,3,0,8,,,,,,,,,12,,,,60,0
19798,control_change,17,0,9,,,,,,,,,13,11,91,,,
19799,control_change,18,0,3,,,,,,,,,3,11,91,,,
19800,set_tempo,120,1,0,,,,,,382166,,,,,,,,
19800,control_change,17,0,10,,,,,,,,,14,11,91,,,
19801,note_on,3,0,9,,,,,,,,,13,,,,51,0
19803,note_on,3,0,10,,,,,,,,,14,,,,39,0
19806,note_on,10,0,8,,,,,,,,,12,,,,60,98
19811,note_on,10,0,9,,,,,,,,,13,,,,49,89
19813,note_on,10,0,10,,,,,,,,,14,,,,37,73
19826,note_on,20,0,8,,,,,,,,,12,,,,60,0
19831,note_on,20,0,9,,,,,,,,,13,,,,49,0
19833,note_on,20,0,10,,,,,,,,,14,,,,37,0
19836,note_on,10,0,8,,,,,,,,,12,,,,60,90
19841,note_on,10,0,9,,,,,,,,,13,,,,48,89
19843,note_on,10,0,10,,,,,,,,,14,,,,36,73
19856,note_on,20,0,8,,,,,,,,,12,,,,60,0
19861,note_on,20,0,9,,,,,,,,,13,,,,48,0
19863,note_on,20,0,10,,,,,,,,,14,,,,36,0
19866,note_on,10,0,8,,,,,,,,,12,,,,60,98
19871,note_on,10,0,9,,,,,,,,,13,,,,46,89
19873,note_on,10,0,10,,,,,,,,,14,,,,34,73
19886,note_on,20,0,8,,,,,,,,,12,,,,60,0
19891,note_on,20,0,9,,,,,,,,,13,,,,46,0
19893,note_on,20,0,10,,,,,,,,,14,,,,34,0
19896,note_on,10,0,8,,,,,,,,,12,,,,60,90
19901,note_on,10,0,9,,,,,,,,,13,,,,44,89
19903,note_on,10,0,10,,,,,,,,,14,,,,32,73
19910,note_on,123,0,6,,,,,,,,,10,,,,89,0
19913,note_on,123,0,7,,,,,,,,,11,,,,77,0
19913,note_on,123,0,1,,,,,,,,,0,,,,89,0
19914,note_on,123,0,4,,,,,,,,,4,,,,60,0
19915,note_on,123,0,2,,,,,,,,,1,,,,77,0
19915,note_on,0,0,2,,,,,,,,,1,,,,72,0
19916,note_on,123,0,5,,,,,,,,,5,,,,53,0
19916,note_on,20,0,8,,,,,,,,,12,,,,60,0
19920,set_tempo,120,1,0,,,,,,355030,,,,,,,,
19920,note_on,0,0,6,,,,,,,,,10,,,,74,100
19920,control_change,10,0,6,,,,,,,,,10,11,103,,,
19921,note_on,20,0,9,,,,,,,,,13,,,,44,0
19922,note_on,123,0,3,,,,,,,,,3,,,,60,0
19922,note_on,0,0,3,,,,,,,,,3,,,,56,0
19923,control_change,10,0,1,,,,,,,,,0,11,103,,,
19923,note_on,20,0,10,,,,,,,,,14,,,,32,0
19923,note_on,0,0,7,,,,,,,,,11,,,,62,100
19923,note_on,0,0,1,,,,,,,,,0,,,,86,82
19923,control_change,10,0,7,,,,,,,,,11,11,103,,,
19924,note_on,0,0,4,,,,,,,,,4,,,,58,86
19924,control_change,10,0,4,,,,,,,,,4,11,103,,,
19925,note_on,0,0,2,,,,,,,,,1,,,,65,81
19925,note_on,0,0,2,,,,,,,,,1,,,,74,81
19925,control_change,10,0,2,,,,,,,,,1,11,103,,,
19926,note_on,0,0,5,,,,,,,,,5,,,,46,86
19926,note_on,0,0,8,,,,,,,,,12,,,,58,98
19926,control_change,10,0,5,,,,,,,,,5,11,103,,,
19926,control_change,10,0,8,,,,,,,,,12,11,103,,,
19931,note_on,0,0,9,,,,,,,,,13,,,,56,89
19931,control_change,10,0,9,,,,,,,,,13,11,103,,,
19932,note_on,0,0,3,,,,,,,,,3,,,,58,81
19932,control_change,10,0,3,,,,,,,,,3,11,103,,,
19932,note_on,0,0,3,,,,,,,,,3,,,,56,81
19933,control_change,10,0,10,,,,,,,,,14,11,103,,,
19933,note_on,0,0,10,,,,,,,,,14,,,,44,73
19937,control_change,17,0,6,,,,,,,,,10,11,101,,,
19940,control_change,17,0,7,,,,,,,,,11,11,101,,,
19940,control_change,17,0,1,,,,,,,,,0,11,101,,,
19941,control_change,17,0,4,,,,,,,,,4,11,101,,,
19942,note_on,5,0,6,,,,,,,,,10,,,,74,0
19942,control_change,17,0,2,,,,,,,,,1,11,101,,,
19943,control_change,17,0,5,,,,,,,,,5,11,101,,,
19943,control_change,17,0,8,,,,,,,,,12,11,101,,,
19945,note_on,5,0,7,,,,,,,,,11,,,,62,0
19946,note_on,3,0,8,,,,,,,,,12,,,,58,0
19948,control_change,17,0,9,,,,,,,,,13,11,101,,,
19949,control_change,17,0,3,,,,,,,,,3,11,101,,,
19950,note_on,8,0,6,,,,,,,,,10,,,,75,100
19950,control_change,17,0,10,,,,,,,,,14,11,101,,,
19951,note_on,3,0,9,,,,,,,,,13,,,,56,0
19953,note_on,3,0,10,,,,,,,,,14,,,,44,0
19953,note_on,8,0,7,,,,,,,,,11,,,,63,100
19955,control_change,5,0,6,,,,,,,,,10,11,99,,,
19956,note_on,10,0,8,,,,,,,,,12,,,,58,90
19958,control_change,5,0,7,,,,,,,,,11,11,99,,,
19958,control_change,18,0,1,,,,,,,,,0,11,99,,,
19959,control_change,18,0,4,,,,,,,,,4,11,99,,,
19960,control_change,18,0,2,,,,,,,,,1,11,99,,,
19961,note_on,10,0,9,,,,,,,,,13,,,,56,81
19961,control_change,18,0,5,,,,,,,,,5,11,99,,,
19961,control_change,5,0,8,,,,,,,,,12,11,99,,,
19963,note_on,10,0,10,,,,,,,,,14,,,,44,65
19966,control_change,5,0,9,,,,,,,,,13,11,99,,,
19967,control_change,18,0,3,,,,,,,,,3,11,99,,,
19968,control_change,5,0,10,,,,,,,,,14,11,99,,,
19972,note_on,17,0,6,,,,,,,,,10,,,,75,0
19973,control_change,1,0,6,,,,,,,,,10,11,97,,,
19975,note_on,17,0,7,,,,,,,,,11,,,,63,0
19976,note_on,15,0,8,,,,,,,,,12,,,,58,0
19976,control_change,18,0,1,,,,,,,,,0,11,97,,,
19976,control_change,1,0,7,,,,,,,,,11,11,97,,,
19977,control_change,18,0,4,,,,,,,,,4,11,97,,,
19978,control_change,18,0,2,,,,,,,,,1,11,97,,,
19979,control_change,3,0,8,,,,,,,,,12,11,97,,,
19979,control_change,18,0,5,,,,,,,,,5,11,97,,,
19980,note_on,7,0,6,,,,,,,,,10,,,,77,100
19981,note_on,15,0,9,,,,,,,,,13,,,,56,0
19983,note_on,7,0,7,,,,,,,,,11,,,,65,100
19983,note_on,15,0,10,,,,,,,,,14,,,,44,0
19984,control_change,3,0,9,,,,,,,,,13,11,97,,,
19985,control_change,18,0,3,,,,,,,,,3,11,97,,,
19986,note_on,7,0,8,,,,,,,,,12,,,,58,98
19986,control_change,3,0,10,,,,,,,,,14,11,97,,,
19991,control_change,11,0,6,,,,,,,,,10,11,95,,,
19991,note_on,7,0,9,,,,,,,,,13,,,,56,89
19993,note_on,7,0,10,,,,,,,,,14,,,,44,73
19994,control_change,18,0,1,,,,,,,,,0,11,95,,,
19994,control_change,11,0,7,,,,,,,,,11,11,95,,,
19995,control_change,18,0,4,,,,,,,,,4,11,95,,,
19996,control_change,18,0,2,,,,,,,,,1,11,95,,,
19997,control_change,18,0,5,,,,,,,,,5,11,95,,,
19997,control_change,11,0,8,,,,,,,,,12,11,95,,,
20002,control_change,11,0,9,,,,,,,,,13,11,95,,,
20002,note_on,11,0,6,,,,,,,,,10,,,,77,0
20003,control_change,18,0,3,,,,,,,,,3,11,95,,,
20004,control_change,11,0,10,,,,,,,,,14,11,95,,,
20005,note_on,11,0,7,,,,,,,,,11,,,,65,0
20006,note_on,9,0,8,,,,,,,,,12,,,,58,0
20009,control_change,7,0,6,,,,,,,,,10,11,93,,,
20010,note_on,1,0,6,,,,,,,,,10,,,,79,100
20011,note_on,9,0,9,,,,,,,,,13,,,,56,0
20012,control_change,18,0,1,,,,,,,,,0,11,93,,,
20012,control_change,7,0,7,,,,,,,,,11,11,93,,,
20013,control_change,18,0,4,,,,,,,,,4,11,93,,,
20013,note_on,9,0,10,,,,,,,,,14,,,,44,0
20013,note_on,1,0,7,,,,,,,,,11,,,,67,100
20014,control_change,18,0,2,,,,,,,,,1,11,93,,,
20015,control_change,18,0,5,,,,,,,,,5,11,93,,,
20015,control_change,9,0,8,,,,,,,,,12,11,93,,,
20016,note_on,1,0,8,,,,,,,,,12,,,,58,90
20020,control_change,9,0,9,,,,,,,,,13,11,93,,,
20021,note_on,1,0,9,,,,,,,,,13,,,,56,81
20021,control_change,18,0,3,,,,,,,,,3,11,93,,,
20022,control_change,9,0,10,,,,,,,,,14,11,93,,,
20023,note_on,1,0,10,,,,,,,,,14,,,,44,65
20027,control_change,17,0,6,,,,,,,,,10,11,91,,,
20030,control_change,17,0,7,,,,,,,,,11,11,91,,,
20030,control_change,18,0,1,,,,,,,,,0,11,91,,,
20031,control_change,18,0,4,,,,,,,,,4,11,91,,,
20032,control_change,18,0,2,,,,,,,,,1,11,91,,,
20032,note_on,5,0,6,,,,,,,,,10,,,,79,0
20033,control_change,18,0,5,,,,,,,,,5,11,91,,,
20033,control_change,17,0,8,,,,,,,,,12,11,91,,,
20035,note_on,5,0,7,,,,,,,,,11,,,,67,0
20036,note_on,3,0,8,,,,,,,,,12,,,,58,0
20038,control_change,17,0,9,,,,,,,,,13,11,91,,,
20039,control_change,18,0,3,,,,,,,,,3,11,91,,,
20040,set_tempo,120,1,0,,,,,,382166,,,,,,,,
20040,note_on,8,0,6,,,,,,,,,10,,,,80,100
20040,control_change,17,0,10,,,,,,,,,14,11,91,,,
20041,note_on,3,0,9,,,,,,,,,13,,,,56,0
20043,note_on,3,0,10,,,,,,,,,14,,,,44,0
20043,note_on,8,0,7,,,,,,,,,11,,,,68,100
20046,note_on,10,0,8,,,,,,,,,12,,,,58,98
20051,note_on,10,0,9,,,,,,,,,13,,,,56,89
20053,note_on,10,0,10,,,,,,,,,14,,,,44,73
20062,note_on,22,0,6,,,,,,,,,10,,,,80,0
20065,note_on,22,0,7,,,,,,,,,11,,,,68,0
20066,note_on,20,0,8,,,,,,,,,12,,,,58,0
20070,note_on,8,0,6,,,,,,,,,10,,,,82,100
20071,note_on,20,0,9,,,,,,,,,13,,,,56,0
20073,note_on,20,0,10,,,,,,,,,14,,,,44,0
20073,note_on,8,0,7,,,,,,,,,11,,,,70,100
20076,note_on,10,0,8,,,,,,,,,12,,,,58,90
20081,note_on,10,0,9,,,,,,,,,13,,,,56,81
20083,note_on,10,0,10,,,,,,,,,14,,,,44,65
20092,note_on,22,0,6,,,,,,,,,10,,,,82,0
20095,note_on,22,0,7,,,,,,,,,11,,,,70,0
20096,note_on,20,0,8,,,,,,,,,12,,,,58,0
20100,note_on,8,0,6,,,,,,,,,10,,,,84,100
20101,note_on,20,0,9,,,,,,,,,13,,,,56,0
20103,note_on,8,0,7,,,,,,,,,11,,,,72,100
20103,note_on,20,0,10,,,,,,,,,14,,,,44,0
20106,note_on,10,0,8,,,,,,,,,12,,,,58,98
20111,note_on,10,0,9,,,,,,,,,13,,,,56,89
20113,note_on,10,0,10,,,,,,,,,14,,,,44,73
20122,note_on,22,0,6,,,,,,,,,10,,,,84,0
20125,note_on,22,0,7,,,,,,,,,11,,,,72,0
20126,note_on,20,0,8,,,,,,,,,12,,,,58,0
20130,note_on,8,0,6,,,,,,,,,10,,,,86,100
20131,note_on,20,0,9,,,,,,,,,13,,,,56,0
20133,note_on,8,0,7,,,,,,,,,11,,,,74,100
20133,note_on,20,0,10,,,,,,,,,14,,,,44,0
20136,note_on,10,0,8,,,,,,,,,12,,,,58,90
20141,note_on,10,0,9,,,,,,,,,13,,,,56,81
20143,note_on,10,0,10,,,,,,,,,14,,,,44,65
20152,note_on,22,0,6,,,,,,,,,10,,,,86,0
20153,note_on,123,0,1,,,,,,,,,0,,,,86,0
20154,note_on,123,0,4,,,,,,,,,4,,,,58,0
20155,note_on,22,0,7,,,,,,,,,11,,,,74,0
20155,note_on,0,0,2,,,,,,,,,1,,,,74,0
20155,note_on,123,0,2,,,,,,,,,1,,,,65,0
20156,note_on,123,0,5,,,,,,,,,5,,,,46,0
20156,note_on,20,0,8,,,,,,,,,12,,,,58,0
20160,set_tempo,120,1,0,,,,,,355030,,,,,,,,
20160,note_on,0,0,6,,,,,,,,,10,,,,87,100
20160,control_change,8,0,6,,,,,,,,,10,11,103,,,
20161,note_on,20,0,9,,,,,,,,,13,,,,56,0
20162,note_on,0,0,3,,,,,,,,,3,,,,56,0
20162,note_on,123,0,3,,,,,,,,,3,,,,58,0
20163,note_on,20,0,10,,,,,,,,,14,,,,44,0
20163,note_on,0,0,1,,,,,,,,,0,,,,87,82
20163,control_change,10,0,1,,,,,,,,,0,11,103,,,
20163,note_on,0,0,7,,,,,,,,,11,,,,75,100
20163,control_change,8,0,7,,,,,,,,,11,11,103,,,
20164,note_on,0,0,4,,,,,,,,,4,,,,58,86
20164,control_change,10,0,4,,,,,,,,,4,11,103,,,
20165,control_change,10,0,2,,,,,,,,,1,11,103,,,
20165,note_on,0,0,2,,,,,,,,,1,,,,70,81
20165,note_on,0,0,2,,,,,,,,,1,,,,75,81
20166,note_on,0,0,5,,,,,,,,,5,,,,46,86
20166,note_on,0,0,8,,,,,,,,,12,,,,58,98
20166,control_change,10,0,8,,,,,,,,,12,11,103,,,
20166,control_change,10,0,5,,,,,,,,,5,11,103,,,
20171,control_change,10,0,9,,,,,,,,,13,11,103,,,
20171,note_on,0,0,9,,,,,,,,,13,,,,54,89
20172,note_on,0,0,3,,,,,,,,,3,,,,54,81
20172,control_change,10,0,3,,,,,,,,,3,11,103,,,
20172,note_on,0,0,3,,,,,,,,,3,,,,58,81
20173,control_change,10,0,10,,,,,,,,,14,11,103,,,
20173,note_on,0,0,10,,,,,,,,,14,,,,42,73
20177,control_change,17,0,6,,,,,,,,,10,11,101,,,
20180,control_change,17,0,7,,,,,,,,,11,11,101,,,
20180,control_change,17,0,1,,,,,,,,,0,11,101,,,
20181,control_change,17,0,4,,,,,,,,,4,11,101,,,
20182,control_change,17,0,2,,,,,,,,,1,11,101,,,
20183,control_change,17,0,8,,,,,,,,,12,11,101,,,
20183,control_change,17,0,5,,,,,,,,,5,11,101,,,
20186,note_on,3,0,8,,,,,,,,,12,,,,58,0
20188,control_change,17,0,9,,,,,,,,,13,11,101,,,
20189,control_change,17,0,3,,,,,,,,,3,11,101,,,
20190,control_change,17,0,10,,,,,,,,,14,11,101,,,
20191,note_on,3,0,9,,,,,,,,,13,,,,54,0
20193,note_on,3,0,10,,,,,,,,,14,,,,42,0
20195,control_change,18,0,6,,,,,,,,,10,11,99,,,
20196,note_on,10,0,8,,,,,,,,,12,,,,58,90
20198,control_change,18,0,1,,,,,,,,,0,11,99,,,
20198,control_change,18,0,7,,,,,,,,,11,11,99,,,
20199,control_change,18,0,4,,,,,,,,,4,11,99,,,
20200,control_change,18,0,2,,,,,,,,,1,11,99,,,
20201,control_change,5,0,8,,,,,,,,,12,11,99,,,
20201,note_on,10,0,9,,,,,,,,,13,,,,53,89
20201,control_change,18,0,5,,,,,,,,,5,11,99,,,
20203,note_on,10,0,10,,,,,,,,,14,,,,41,73
20206,control_change,5,0,9,,,,,,,,,13,11,99,,,
20207,control_change,18,0,3,,,,,,,,,3,11,99,,,
20208,control_change,5,0,10,,,,,,,,,14,11,99,,,
20213,control_change,18,0,6,,,,,,,,,10,11,97,,,
20216,control_change,18,0,7,,,,,,,,,11,11,97,,,
20216,note_on,15,0,8,,,,,,,,,12,,,,58,0
20216,control_change,18,0,1,,,,,,,,,0,11,97,,,
20217,control_change,18,0,4,,,,,,,,,4,11,97,,,
20218,control_change,18,0,2,,,,,,,,,1,11,97,,,
20219,control_change,18,0,5,,,,,,,,,5,11,97,,,
20219,control_change,3,0,8,,,,,,,,,12,11,97,,,
20221,note_on,15,0,9,,,,,,,,,13,,,,53,0
20223,note_on,15,0,10,,,,,,,,,14,,,,41,0
20224,control_change,3,0,9,,,,,,,,,13,11,97,,,
20225,control_change,18,0,3,,,,,,,,,3,11,97,,,
20226,control_change,3,0,10,,,,,,,,,14,11,97,,,
20226,note_on,7,0,8,,,,,,,,,12,,,,58,98
20231,control_change,18,0,6,,,,,,,,,10,11,95,,,
20231,note_on,7,0,9,,,,,,,,,13,,,,51,89
20233,note_on,7,0,10,,,,,,,,,14,,,,39,73
20234,control_change,18,0,1,,,,,,,,,0,11,95,,,
20234,control_change,18,0,7,,,,,,,,,11,11,95,,,
20235,control_change,18,0,4,,,,,,,,,4,11,95,,,
20236,control_change,18,0,2,,,,,,,,,1,11,95,,,
20237,control_change,11,0,8,,,,,,,,,12,11,95,,,
20237,control_change,18,0,5,,,,,,,,,5,11,95,,,
20242,control_change,11,0,9,,,,,,,,,13,11,95,,,
20243,control_change,18,0,3,,,,,,,,,3,11,95,,,
20244,control_change,11,0,10,,,,,,,,,14,11,95,,,
20246,note_on,9,0,8,,,,,,,,,12,,,,58,0
20249,control_change,18,0,6,,,,,,,,,10,11,93,,,
20251,note_on,9,0,9,,,,,,,,,13,,,,51,0
20252,control_change,18,0,1,,,,,,,,,0,11,93,,,
20252,control_change,18,0,7,,,,,,,,,11,11,93,,,
20253,note_on,9,0,10,,,,,,,,,14,,,,39,0
20253,control_change,18,0,4,,,,,,,,,4,11,93,,,
20254,control_change,18,0,2,,,,,,,,,1,11,93,,,
20255,control_change,18,0,5,,,,,,,,,5,11,93,,,
20255,control_change,9,0,8,,,,,,,,,12,11,93,,,
20256,note_on,1,0,8,,,,,,,,,12,,,,58,90
20260,control_change,9,0,9,,,,,,,,,13,11,93,,,
20261,note_on,1,0,9,,,,,,,,,13,,,,49,89
20261,control_change,18,0,3,,,,,,,,,3,11,93,,,
20262,control_change,9,0,10,,,,,,,,,14,11,93,,,
20263,note_on,1,0,10,,,,,,,,,14,,,,37,73
20267,control_change,18,0,6,,,,,,,,,10,11,91,,,
20270,control_change,18,0,1,,,,,,,,,0,11,91,,,
20270,control_change,18,0,7,,,,,,,,,11,11,91,,,
20271,control_change,18,0,4,,,,,,,,,4,11,91,,,
20272,control_change,18,0,2,,,,,,,,,1,11,91,,,
20273,control_change,18,0,5,,,,,,,,,5,11,91,,,
20273,control_change,17,0,8,,,,,,,,,12,11,91,,,
20276,note_on,3,0,8,,,,,,,,,12,,,,58,0
20278,control_change,17,0,9,,,,,,,,,13,11,91,,,
20279,control_change,18,0,3,,,,,,,,,3,11,91,,,
20280,control_change,17,0,10,,,,,,,,,14,11,91,,,
20280,set_tempo,120,1,0,,,,,,382166,,,,,,,,
20281,note_on,3,0,9,,,,,,,,,13,,,,49,0
20283,note_on,3,0,10,,,,,,,,,14,,,,37,0
20286,note_on,10,0,8,,,,,,,,,12,,,,58,98
20291,note_on,10,0,9,,,,,,,,,13,,,,47,89
20293,note_on,10,0,10,,,,,,,,,14,,,,35,73
20306,note_on,20,0,8,,,,,,,,,12,,,,58,0
20311,note_on,20,0,9,,,,,,,,,13,,,,47,0
20313,note_on,20,0,10,,,,,,,,,14,,,,35,0
20316,note_on,10,0,8,,,,,,,,,12,,,,58,90
20321,note_on,10,0,9,,,,,,,,,13,,,,46,89
20323,note_on,10,0,10,,,,,,,,,14,,,,34,73
20336,note_on,20,0,8,,,,,,,,,12,,,,58,0
20341,note_on,20,0,9,,,,,,,,,13,,,,46,0
20343,note_on,20,0,10,,,,,,,,,14,,,,34,0
20346,note_on,10,0,8,,,,,,,,,12,,,,58,98
20351,note_on,10,0,9,,,,,,,,,13,,,,44,89
20353,note_on,10,0,10,,,,,,,,,14,,,,32,73
20366,note_on,20,0,8,,,,,,,,,12,,,,58,0
20371,note_on,20,0,9,,,,,,,,,13,,,,44,0
20373,note_on,20,0,10,,,,,,,,,14,,,,32,0
20376,note_on,10,0,8,,,,,,,,,12,,,,58,90
20381,note_on,10,0,9,,,,,,,,,13,,,,42,89
20383,note_on,10,0,10,,,,,,,,,14,,,,30,73
20390,note_on,123,0,6,,,,,,,,,10,,,,87,0
20393,note_on,123,0,7,,,,,,,,,11,,,,75,0
20393,note_on,123,0,1,,,,,,,,,0,,,,87,0
20394,note_on,123,0,4,,,,,,,,,4,,,,58,0
20395,note_on,0,0,2,,,,,,,,,1,,,,75,0
20395,note_on,123,0,2,,,,,,,,,1,,,,70,0
20396,note_on,123,0,5,,,,,,,,,5,,,,46,0
20396,note_on,20,0,8,,,,,,,,,12,,,,58,0
20400,set_tempo,120,1,0,,,,,,355030,,,,,,,,
20400,note_on,10,0,6,,,,,,,,,10,,,,84,100
20401,note_on,20,0,9,,,,,,,,,13,,,,42,0
20402,note_on,0,0,3,,,,,,,,,3,,,,58,0
20402,note_on,123,0,3,,,,,,,,,3,,,,54,0
20403,note_on,10,0,1,,,,,,,,,0,,,,84,95
20403,note_on,20,0,10,,,,,,,,,14,,,,30,0
20403,note_on,10,0,7,,,,,,,,,11,,,,82,100
20404,note_on,10,0,4,,,,,,,,,4,,,,60,99
20405,note_on,10,0,2,,,,,,,,,1,,,,70,94
20405,note_on,0,0,2,,,,,,,,,1,,,,72,94
20406,note_on,0,0,8,,,,,,,,,12,,,,63,98
20406,control_change,10,0,8,,,,,,,,,12,11,103,,,
20406,note_on,10,0,5,,,,,,,,,5,,,,58,99
20411,note_on,0,0,9,,,,,,,,,13,,,,51,89
20411,control_change,10,0,9,,,,,,,,,13,11,103,,,
20412,note_on,0,0,3,,,,,,,,,3,,,,51,81
20412,control_change,10,0,3,,,,,,,,,3,11,103,,,
20413,control_change,10,0,10,,,,,,,,,14,11,103,,,
20413,note_on,0,0,10,,,,,,,,,14,,,,39,73
20424,control_change,18,0,8,,,,,,,,,12,11,101,,,
20429,control_change,18,0,9,,,,,,,,,13,11,101,,,
20430,control_change,18,0,3,,,,,,,,,3,11,101,,,
20431,control_change,18,0,10,,,,,,,,,14,11,101,,,
20442,control_change,18,0,8,,,,,,,,,12,11,99,,,
20447,control_change,18,0,9,,,,,,,,,13,11,99,,,
20448,control_change,18,0,3,,,,,,,,,3,11,99,,,
20449,control_change,18,0,10,,,,,,,,,14,11,99,,,
20450,note_on,50,0,6,,,,,,,,,10,,,,84,0
20453,note_on,50,0,7,,,,,,,,,11,,,,82,0
20460,note_on,10,0,6,,,,,,,,,10,,,,84,100
20460,control_change,18,0,8,,,,,,,,,12,11,97,,,
20463,note_on,10,0,7,,,,,,,,,11,,,,82,100
20465,control_change,18,0,9,,,,,,,,,13,11,97,,,
20466,control_change,18,0,3,,,,,,,,,3,11,97,,,
20467,control_change,18,0,10,,,,,,,,,14,11,97,,,
20478,control_change,18,0,8,,,,,,,,,12,11,95,,,
20483,control_change,18,0,9,,,,,,,,,13,11,95,,,
20484,control_change,18,0,3,,,,,,,,,3,11,95,,,
20485,control_change,18,0,10,,,,,,,,,14,11,95,,,
20496,control_change,18,0,8,,,,,,,,,12,11,93,,,
20501,control_change,18,0,9,,,,,,,,,13,11,93,,,
20502,control_change,18,0,3,,,,,,,,,3,11,93,,,
20503,control_change,18,0,10,,,,,,,,,14,11,93,,,
20514,control_change,18,0,8,,,,,,,,,12,11,91,,,
20516,note_on,2,0,8,,,,,,,,,12,,,,63,0
20519,control_change,18,0,9,,,,,,,,,13,11,91,,,
20520,control_change,18,0,3,,,,,,,,,3,11,91,,,
20520,set_tempo,120,1,0,,,,,,382166,,,,,,,,
20521,note_on,2,0,9,,,,,,,,,13,,,,51,0
20521,control_change,18,0,10,,,,,,,,,14,11,91,,,
20522,note_on,2,0,3,,,,,,,,,3,,,,51,0
20523,note_on,2,0,10,,,,,,,,,14,,,,39,0
20526,note_on,0,0,8,,,,,,,,,12,,,,65,98
20526,control_change,10,0,8,,,,,,,,,12,11,103,,,
20531,control_change,10,0,9,,,,,,,,,13,11,103,,,
20531,note_on,0,0,9,,,,,,,,,13,,,,53,89
20532,control_change,10,0,3,,,,,,,,,3,11,103,,,
20532,note_on,0,0,3,,,,,,,,,3,,,,53,81
20533,note_on,0,0,10,,,,,,,,,14,,,,41,73
20533,control_change,10,0,10,,,,,,,,,14,11,103,,,
20544,control_change,18,0,8,,,,,,,,,12,11,101,,,
20549,control_change,18,0,9,,,,,,,,,13,11,101,,,
20550,control_change,18,0,3,,,,,,,,,3,11,101,,,
20551,control_change,18,0,10,,,,,,,,,14,11,101,,,
20562,control_change,18,0,8,,,,,,,,,12,11,99,,,
20567,control_change,18,0,9,,,,,,,,,13,11,99,,,
20568,control_change,18,0,3,,,,,,,,,3,11,99,,,
20569,control_change,18,0,10,,,,,,,,,14,11,99,,,
20570,note_on,110,0,6,,,,,,,,,10,,,,84,0
20573,note_on,110,0,7,,,,,,,,,11,,,,82,0
20580,control_change,18,0,8,,,,,,,,,12,11,97,,,
20580,note_on,10,0,6,,,,,,,,,10,,,,84,100
20583,note_on,10,0,7,,,,,,,,,11,,,,82,100
20585,control_change,18,0,9,,,,,,,,,13,11,97,,,
20586,control_change,18,0,3,,,,,,,,,3,11,97,,,
20587,control_change,18,0,10,,,,,,,,,14,11,97,,,
20598,control_change,18,0,8,,,,,,,,,12,11,95,,,
20603,control_change,18,0,9,,,,,,,,,13,11,95,,,
20604,control_change,18,0,3,,,,,,,,,3,11,95,,,
20605,control_change,18,0,10,,,,,,,,,14,11,95,,,
20616,control_change,18,0,8,,,,,,,,,12,11,93,,,
20621,control_change,18,0,9,,,,,,,,,13,11,93,,,
20622,control_change,18,0,3,,,,,,,,,3,11,93,,,
20623,control_change,18,0,10,,,,,,,,,14,11,93,,,
20634,control_change,18,0,8,,,,,,,,,12,11,91,,,
20636,note_on,2,0,8,,,,,,,,,12,,,,65,0
20639,control_change,18,0,9,,,,,,,,,13,11,91,,,
20640,set_tempo,120,1,0,,,,,,355030,,,,,,,,
20640,control_change,18,0,3,,,,,,,,,3,11,91,,,
20641,note_on,2,0,9,,,,,,,,,13,,,,53,0
20641,control_change,18,0,10,,,,,,,,,14,11,91,,,
20642,note_on,2,0,3,,,,,,,,,3,,,,53,0
20643,note_on,2,0,10,,,,,,,,,14,,,,41,0
20646,note_on,0,0,8,,,,,,,,,12,,,,66,98
20646,control_change,10,0,8,,,,,,,,,12,11,103,,,
20651,control_change,10,0,9,,,,,,,,,13,11,103,,,
20651,note_on,0,0,9,,,,,,,,,13,,,,54,89
20652,note_on,0,0,3,,,,,,,,,3,,,,54,81
20652,control_change,10,0,3,,,,,,,,,3,11,103,,,
20653,control_change,10,0,10,,,,,,,,,14,11,103,,,
20653,note_on,0,0,10,,,,,,,,,14,,,,42,73
20664,control_change,18,0,8,,,,,,,,,12,11,101,,,
20669,control_change,18,0,9,,,,,,,,,13,11,101,,,
20670,control_change,18,0,3,,,,,,,,,3,11,101,,,
20671,control_change,18,0,10,,,,,,,,,14,11,101,,,
20682,control_change,18,0,8,,,,,,,,,12,11,99,,,
20687,control_change,18,0,9,,,,,,,,,13,11,99,,,
20688,control_change,18,0,3,,,,,,,,,3,11,99,,,
20689,control_change,18,0,10,,,,,,,,,14,11,99,,,
20690,note_on,110,0,6,,,,,,,,,10,,,,84,0
20693,note_on,110,0,7,,,,,,,,,11,,,,82,0
20700,note_on,10,0,6,,,,,,,,,10,,,,84,100
20700,control_change,18,0,8,,,,,,,,,12,11,97,,,
20703,note_on,10,0,7,,,,,,,,,11,,,,82,100
20705,control_change,18,0,9,,,,,,,,,13,11,97,,,
20706,control_change,18,0,3,,,,,,,,,3,11,97,,,
20707,control_change,18,0,10,,,,,,,,,14,11,97,,,
20718,control_change,18,0,8,,,,,,,,,12,11,95,,,
20723,control_change,18,0,9,,,,,,,,,13,11,95,,,
20724,control_change,18,0,3,,,,,,,,,3,11,95,,,
20725,control_change,18,0,10,,,,,,,,,14,11,95,,,
20736,control_change,18,0,8,,,,,,,,,12,11,93,,,
20741,control_change,18,0,9,,,,,,,,,13,11,93,,,
20742,control_change,18,0,3,,,,,,,,,3,11,93,,,
20743,control_change,18,0,10,,,,,,,,,14,11,93,,,
20754,control_change,18,0,8,,,,,,,,,12,11,91,,,
20756,note_on,2,0,8,,,,,,,,,12,,,,66,0
20759,control_change,18,0,9,,,,,,,,,13,11,91,,,
20760,control_change,18,0,3,,,,,,,,,3,11,91,,,
20760,set_tempo,120,1,0,,,,,,382166,,,,,,,,
20761,control_change,18,0,10,,,,,,,,,14,11,91,,,
20761,note_on,2,0,9,,,,,,,,,13,,,,54,0
20762,note_on,2,0,3,,,,,,,,,3,,,,54,0
20763,note_on,2,0,10,,,,,,,,,14,,,,42,0
20766,control_change,10,0,8,,,,,,,,,12,11,103,,,
20766,note_on,0,0,8,,,,,,,,,12,,,,65,98
20771,control_change,10,0,9,,,,,,,,,13,11,103,,,
20771,note_on,0,0,9,,,,,,,,,13,,,,53,89
20772,control_change,10,0,3,,,,,,,,,3,11,103,,,
20772,note_on,0,0,3,,,,,,,,,3,,,,53,81
20773,control_change,10,0,10,,,,,,,,,14,11,103,,,
20773,note_on,0,0,10,,,,,,,,,14,,,,41,73
20784,control_change,18,0,8,,,,,,,,,12,11,101,,,
20789,control_change,18,0,9,,,,,,,,,13,11,101,,,
20790,control_change,18,0,3,,,,,,,,,3,11,101,,,
20791,control_change,18,0,10,,,,,,,,,14,11,101,,,
20802,control_change,18,0,8,,,,,,,,,12,11,99,,,
20807,control_change,18,0,9,,,,,,,,,13,11,99,,,
20808,control_change,18,0,3,,,,,,,,,3,11,99,,,
20809,control_change,18,0,10,,,,,,,,,14,11,99,,,
20810,note_on,110,0,6,,,,,,,,,10,,,,84,0
20813,note_on,110,0,7,,,,,,,,,11,,,,82,0
20820,note_on,10,0,6,,,,,,,,,10,,,,84,100
20820,control_change,18,0,8,,,,,,,,,12,11,97,,,
20823,note_on,10,0,7,,,,,,,,,11,,,,82,100
20825,control_change,18,0,9,,,,,,,,,13,11,97,,,
20826,control_change,18,0,3,,,,,,,,,3,11,97,,,
20827,control_change,18,0,10,,,,,,,,,14,11,97,,,
20838,control_change,18,0,8,,,,,,,,,12,11,95,,,
20843,control_change,18,0,9,,,,,,,,,13,11,95,,,
20844,control_change,18,0,3,,,,,,,,,3,11,95,,,
20845,control_change,18,0,10,,,,,,,,,14,11,95,,,
20856,control_change,18,0,8,,,,,,,,,12,11,93,,,
20861,control_change,18,0,9,,,,,,,,,13,11,93,,,
20862,control_change,18,0,3,,,,,,,,,3,11,93,,,
20863,control_change,18,0,10,,,,,,,,,14,11,93,,,
20873,note_on,470,0,1,,,,,,,,,0,,,,84,0
20874,control_change,18,0,8,,,,,,,,,12,11,91,,,
20874,note_on,470,0,4,,,,,,,,,4,,,,60,0
20875,note_on,0,0,2,,,,,,,,,1,,,,70,0
20875,note_on,470,0,2,,,,,,,,,1,,,,72,0
20876,note_on,470,0,5,,,,,,,,,5,,,,58,0
20876,note_on,2,0,8,,,,,,,,,12,,,,65,0
20879,control_change,18,0,9,,,,,,,,,13,11,91,,,
20880,control_change,18,0,3,,,,,,,,,3,11,91,,,
20880,set_tempo,120,1,0,,,,,,355030,,,,,,,,
20881,control_change,18,0,10,,,,,,,,,14,11,91,,,
20881,note_on,2,0,9,,,,,,,,,13,,,,53,0
20882,note_on,2,0,3,,,,,,,,,3,,,,53,0
20883,note_on,2,0,10,,,,,,,,,14,,,,41,0
20883,note_on,10,0,1,,,,,,,,,0,,,,84,95
20883,note_on,60,0,7,,,,,,,,,11,,,,72,100
20884,note_on,10,0,4,,,,,,,,,4,,,,60,99
20885,note_on,0,0,2,,,,,,,,,1,,,,72,94
20885,note_on,10,0,2,,,,,,,,,1,,,,70,94
20886,note_on,10,0,5,,,,,,,,,5,,,,58,99
20886,note_on,10,0,8,,,,,,,,,12,,,,63,98
20891,note_on,10,0,9,,,,,,,,,13,,,,51,89
20892,note_on,10,0,3,,,,,,,,,3,,,,51,81
20893,note_on,10,0,10,,,,,,,,,14,,,,39,73
20930,note_on,110,0,6,,,,,,,,,10,,,,84,0
20933,note_on,50,0,7,,,,,,,,,11,,,,72,0
20933,note_on,0,0,7,,,,,,,,,11,,,,82,0
20936,note_on,50,0,8,,,,,,,,,12,,,,63,0
20940,note_on,10,0,6,,,,,,,,,10,,,,84,100
20941,note_on,50,0,9,,,,,,,,,13,,,,51,0
20942,note_on,50,0,3,,,,,,,,,3,,,,51,0
20943,note_on,10,0,7,,,,,,,,,11,,,,72,100
20943,note_on,50,0,10,,,,,,,,,14,,,,39,0
20943,note_on,0,0,7,,,,,,,,,11,,,,82,100
20946,note_on,10,0,8,,,,,,,,,12,,,,63,98
20951,note_on,10,0,9,,,,,,,,,13,,,,51,89
20952,note_on,10,0,3,,,,,,,,,3,,,,51,81
20953,note_on,10,0,10,,,,,,,,,14,,,,39,73
20996,note_on,50,0,8,,,,,,,,,12,,,,63,0
21000,set_tempo,120,1,0,,,,,,382166,,,,,,,,
21001,note_on,50,0,9,,,,,,,,,13,,,,51,0
21002,note_on,50,0,3,,,,,,,,,3,,,,51,0
21003,note_on,50,0,10,,,,,,,,,14,,,,39,0
21006,note_on,10,0,8,,,,,,,,,12,,,,65,98
21011,note_on,10,0,9,,,,,,,,,13,,,,53,89
21012,note_on,10,0,3,,,,,,,,,3,,,,53,81
21013,note_on,10,0,10,,,,,,,,,14,,,,41,73
21050,note_on,110,0,6,,,,,,,,,10,,,,84,0
21053,note_on,0,0,7,,,,,,,,,11,,,,72,0
21053,note_on,110,0,7,,,,,,,,,11,,,,82,0
21056,note_on,50,0,8,,,,,,,,,12,,,,65,0
21060,note_on,10,0,6,,,,,,,,,10,,,,84,100
21061,note_on,50,0,9,,,,,,,,,13,,,,53,0
21062,note_on,50,0,3,,,,,,,,,3,,,,53,0
21063,note_on,10,0,7,,,,,,,,,11,,,,82,100
21063,note_on,0,0,7,,,,,,,,,11,,,,72,100
21063,note_on,50,0,10,,,,,,,,,14,,,,41,0
21066,note_on,10,0,8,,,,,,,,,12,,,,65,98
21071,note_on,10,0,9,,,,,,,,,13,,,,53,89
21072,note_on,10,0,3,,,,,,,,,3,,,,53,81
21073,note_on,10,0,10,,,,,,,,,14,,,,41,73
21116,note_on,50,0,8,,,,,,,,,12,,,,65,0
21120,set_tempo,120,1,0,,,,,,355030,,,,,,,,
21121,note_on,50,0,9,,,,,,,,,13,,,,53,0
21122,note_on,50,0,3,,,,,,,,,3,,,,53,0
21123,note_on,50,0,10,,,,,,,,,14,,,,41,0
21126,note_on,10,0,8,,,,,,,,,12,,,,66,98
21131,note_on,10,0,9,,,,,,,,,13,,,,54,89
21132,note_on,10,0,3,,,,,,,,,3,,,,54,81
21133,note_on,10,0,10,,,,,,,,,14,,,,42,73
21170,note_on,110,0,6,,,,,,,,,10,,,,84,0
21173,note_on,110,0,7,,,,,,,,,11,,,,72,0
21173,note_on,0,0,7,,,,,,,,,11,,,,82,0
21176,note_on,50,0,8,,,,,,,,,12,,,,66,0
21180,note_on,10,0,6,,,,,,,,,10,,,,84,100
21181,note_on,50,0,9,,,,,,,,,13,,,,54,0
21182,note_on,50,0,3,,,,,,,,,3,,,,54,0
21183,note_on,10,0,7,,,,,,,,,11,,,,82,100
21183,note_on,0,0,7,,,,,,,,,11,,,,72,100
21183,note_on,50,0,10,,,,,,,,,14,,,,42,0
21186,note_on,10,0,8,,,,,,,,,12,,,,66,98
21191,note_on,10,0,9,,,,,,,,,13,,,,54,89
21192,note_on,10,0,3,,,,,,,,,3,,,,54,81
21193,note_on,10,0,10,,,,,,,,,14,,,,42,73
21236,note_on,50,0,8,,,,,,,,,12,,,,66,0
21240,set_tempo,120,1,0,,,,,,382166,,,,,,,,
21241,note_on,50,0,9,,,,,,,,,13,,,,54,0
21242,note_on,50,0,3,,,,,,,,,3,,,,54,0
21243,note_on,50,0,10,,,,,,,,,14,,,,42,0
21246,note_on,10,0,8,,,,,,,,,12,,,,65,98
21251,note_on,10,0,9,,,,,,,,,13,,,,53,89
21252,note_on,10,0,3,,,,,,,,,3,,,,53,81
21253,note_on,10,0,10,,,,,,,,,14,,,,41,73
21290,note_on,110,0,6,,,,,,,,,10,,,,84,0
21293,note_on,0,0,7,,,,,,,,,11,,,,82,0
21293,note_on,110,0,7,,,,,,,,,11,,,,72,0
21296,note_on,50,0,8,,,,,,,,,12,,,,65,0
21300,note_on,10,0,6,,,,,,,,,10,,,,84,100
21301,note_on,50,0,9,,,,,,,,,13,,,,53,0
21302,note_on,50,0,3,,,,,,,,,3,,,,53,0
21303,note_on,10,0,7,,,,,,,,,11,,,,72,100
21303,note_on,50,0,10,,,,,,,,,14,,,,41,0
21303,note_on,0,0,7,,,,,,,,,11,,,,82,100
21306,note_on,10,0,8,,,,,,,,,12,,,,65,98
21311,note_on,10,0,9,,,,,,,,,13,,,,53,89
21312,note_on,10,0,3,,,,,,,,,3,,,,53,81
21313,note_on,10,0,10,,,,,,,,,14,,,,41,73
21350,note_on,50,0,6,,,,,,,,,10,,,,84,0
21353,note_on,470,0,1,,,,,,,,,0,,,,84,0
21353,note_on,0,0,7,,,,,,,,,11,,,,72,0
21353,note_on,50,0,7,,,,,,,,,11,,,,82,0
21354,note_on,470,0,4,,,,,,,,,4,,,,60,0
21355,note_on,0,0,2,,,,,,,,,1,,,,70,0
21355,note_on,470,0,2,,,,,,,,,1,,,,72,0
21356,note_on,470,0,5,,,,,,,,,5,,,,58,0
21356,note_on,50,0,8,,,,,,,,,12,,,,65,0
21360,note_on,10,0,6,,,,,,,,,10,,,,84,100
21360,set_tempo,120,1,0,,,,,,355030,,,,,,,,
21361,note_on,50,0,9,,,,,,,,,13,,,,53,0
21362,note_on,50,0,3,,,,,,,,,3,,,,53,0
21363,note_on,10,0,7,,,,,,,,,11,,,,72,100
21363,note_on,0,0,7,,,,,,,,,11,,,,82,100
21363,note_on,50,0,10,,,,,,,,,14,,,,41,0
21363,note_on,10,0,1,,,,,,,,,0,,,,84,95
21364,note_on,10,0,4,,,,,,,,,4,,,,60,99
21365,note_on,0,0,2,,,,,,,,,1,,,,70,94
21365,note_on,10,0,2,,,,,,,,,1,,,,72,94
21366,note_on,10,0,8,,,,,,,,,12,,,,64,98
21366,note_on,10,0,5,,,,,,,,,5,,,,58,99
21371,note_on,10,0,9,,,,,,,,,13,,,,52,89
21372,note_on,10,0,3,,,,,,,,,3,,,,52,81
21373,note_on,10,0,10,,,,,,,,,14,,,,40,73
21380,note_on,20,0,6,,,,,,,,,10,,,,84,0
21383,note_on,0,0,7,,,,,,,,,11,,,,72,0
21383,note_on,20,0,7,,,,,,,,,11,,,,82,0
21386,note_on,20,0,8,,,,,,,,,12,,,,64,0
21390,note_on,10,0,6,,,,,,,,,10,,,,84,92
21391,note_on,20,0,9,,,,,,,,,13,,,,52,0
21393,note_on,20,0,10,,,,,,,,,14,,,,40,0
21393,note_on,0,0,7,,,,,,,,,11,,,,82,92
21393,note_on,10,0,7,,,,,,,,,11,,,,72,92
21396,note_on,10,0,8,,,,,,,,,12,,,,64,90
21401,note_on,10,0,9,,,,,,,,,13,,,,52,81
21403,note_on,10,0,10,,,,,,,,,14,,,,40,65
21410,note_on,20,0,6,,,,,,,,,10,,,,84,0
21413,note_on,20,0,7,,,,,,,,,11,,,,82,0
21413,note_on,0,0,7,,,,,,,,,11,,,,72,0
21416,note_on,20,0,8,,,,,,,,,12,,,,64,0
21420,note_on,10,0,6,,,,,,,,,10,,,,84,100
21421,note_on,20,0,9,,,,,,,,,13,,,,52,0
21423,note_on,20,0,10,,,,,,,,,14,,,,40,0
21423,note_on,10,0,7,,,,,,,,,11,,,,82,100
21423,note_on,0,0,7,,,,,,,,,11,,,,72,100
21426,note_on,10,0,8,,,,,,,,,12,,,,64,98
21431,note_on,10,0,9,,,,,,,,,13,,,,52,89
21433,note_on,10,0,10,,,,,,,,,14,,,,40,73
21440,note_on,20,0,6,,,,,,,,,10,,,,84,0
21443,note_on,20,0,7,,,,,,,,,11,,,,72,0
21443,note_on,0,0,7,,,,,,,,,11,,,,82,0
21446,note_on,20,0,8,,,,,,,,,12,,,,64,0
21450,note_on,10,0,6,,,,,,,,,10,,,,84,92
21451,note_on,20,0,9,,,,,,,,,13,,,,52,0
21453,note_on,0,0,7,,,,,,,,,11,,,,72,92
21453,note_on,10,0,7,,,,,,,,,11,,,,82,92
21453,note_on,20,0,10,,,,,,,,,14,,,,40,0
21456,note_on,10,0,8,,,,,,,,,12,,,,64,90
21461,note_on,10,0,9,,,,,,,,,13,,,,52,81
21463,note_on,10,0,10,,,,,,,,,14,,,,40,65
21470,note_on,20,0,6,,,,,,,,,10,,,,84,0
21473,note_on,20,0,7,,,,,,,,,11,,,,72,0
21473,note_on,0,0,7,,,,,,,,,11,,,,82,0
21476,note_on,20,0,8,,,,,,,,,12,,,,64,0
21480,note_on,10,0,6,,,,,,,,,10,,,,84,100
21480,set_tempo,120,1,0,,,,,,382166,,,,,,,,
21481,note_on,20,0,9,,,,,,,,,13,,,,52,0
21483,note_on,10,0,7,,,,,,,,,11,,,,72,100
21483,note_on,0,0,7,,,,,,,,,11,,,,82,100
21483,note_on,20,0,10,,,,,,,,,14,,,,40,0
21486,note_on,10,0,8,,,,,,,,,12,,,,64,98
21491,note_on,10,0,9,,,,,,,,,13,,,,52,89
21493,note_on,10,0,10,,,,,,,,,14,,,,40,73
21500,note_on,20,0,6,,,,,,,,,10,,,,84,0
21503,note_on,20,0,7,,,,,,,,,11,,,,82,0
21503,note_on,0,0,7,,,,,,,,,11,,,,72,0
21506,note_on,20,0,8,,,,,,,,,12,,,,64,0
21510,note_on,10,0,6,,,,,,,,,10,,,,84,92
21511,note_on,20,0,9,,,,,,,,,13,,,,52,0
21513,note_on,10,0,7,,,,,,,,,11,,,,72,92
21513,note_on,0,0,7,,,,,,,,,11,,,,82,92
21513,note_on,20,0,10,,,,,,,,,14,,,,40,0
21516,note_on,10,0,8,,,,,,,,,12,,,,64,90
21521,note_on,10,0,9,,,,,,,,,13,,,,52,81
21523,note_on,10,0,10,,,,,,,,,14,,,,40,65
21530,note_on,20,0,6,,,,,,,,,10,,,,84,0
21533,note_on,20,0,7,,,,,,,,,11,,,,82,0
21533,note_on,0,0,7,,,,,,,,,11,,,,72,0
21536,note_on,20,0,8,,,,,,,,,12,,,,64,0
21540,note_on,10,0,6,,,,,,,,,10,,,,84,100
21541,note_on,20,0,9,,,,,,,,,13,,,,52,0
21543,note_on,10,0,7,,,,,,,,,11,,,,72,100
21543,note_on,20,0,10,,,,,,,,,14,,,,40,0
21543,note_on,0,0,7,,,,,,,,,11,,,,82,100
21546,note_on,10,0,8,,,,,,,,,12,,,,64,98
21551,note_on,10,0,9,,,,,,,,,13,,,,52,89
21553,note_on,10,0,10,,,,,,,,,14,,,,40,73
21560,note_on,20,0,6,,,,,,,,,10,,,,84,0
21563,note_on,0,0,7,,,,,,,,,11,,,,72,0
21563,note_on,20,0,7,,,,,,,,,11,,,,82,0
21566,note_on,20,0,8,,,,,,,,,12,,,,64,0
21570,note_on,10,0,6,,,,,,,,,10,,,,84,92
21571,note_on,20,0,9,,,,,,,,,13,,,,52,0
21573,note_on,10,0,7,,,,,,,,,11,,,,72,92
21573,note_on,0,0,7,,,,,,,,,11,,,,82,92
21573,note_on,20,0,10,,,,,,,,,14,,,,40,0
21576,note_on,10,0,8,,,,,,,,,12,,,,64,90
21581,note_on,10,0,9,,,,,,,,,13,,,,52,81
21583,note_on,10,0,10,,,,,,,,,14,,,,40,65
21590,note_on,20,0,6,,,,,,,,,10,,,,84,0
21593,note_on,20,0,7,,,,,,,,,11,,,,82,0
21593,note_on,0,0,7,,,,,,,,,11,,,,72,0
21595,note_on,230,0,2,,,,,,,,,1,,,,70,0
21596,note_on,20,0,8,,,,,,,,,12,,,,64,0
21600,set_tempo,120,1,0,,,,,,365854,,,,,,,,
21600,note_on,10,0,6,,,,,,,,,10,,,,84,105
21601,note_on,20,0,9,,,,,,,,,13,,,,52,0
21602,note_on,230,0,3,,,,,,,,,3,,,,52,0
21603,note_on,10,0,7,,,,,,,,,11,,,,81,105
21603,note_on,20,0,10,,,,,,,,,14,,,,40,0
21603,note_on,0,0,7,,,,,,,,,11,,,,72,105
21605,note_on,10,0,2,,,,,,,,,1,,,,69,74
21606,note_on,10,0,8,,,,,,,,,12,,,,65,103
21606,note_on,240,0,5,,,,,,,,,5,,,,58,0
21606,note_on,0,0,5,,,,,,,,,5,,,,53,78
21611,note_on,10,0,9,,,,,,,,,13,,,,53,94
21612,note_on,10,0,3,,,,,,,,,3,,,,53,74
21613,note_on,10,0,10,,,,,,,,,14,,,,41,77
21720,set_tempo,120,1,0,,,,,,421053,,,,,,,,
21720,note_on,120,0,6,,,,,,,,,10,,,,84,0
21723,note_on,360,0,1,,,,,,,,,0,,,,84,0
21723,note_on,120,0,7,,,,,,,,,11,,,,72,0
21723,note_on,0,0,7,,,,,,,,,11,,,,81,0
21724,note_on,360,0,4,,,,,,,,,4,,,,60,0
21725,note_on,120,0,2,,,,,,,,,1,,,,69,0
21725,note_on,0,0,2,,,,,,,,,1,,,,72,0
21726,note_on,120,0,8,,,,,,,,,12,,,,65,0
21726,note_on,120,0,5,,,,,,,,,5,,,,53,0
21731,note_on,120,0,9,,,,,,,,,13,,,,53,0
21732,note_on,120,0,3,,,,,,,,,3,,,,53,0
21733,note_on,120,0,10,,,,,,,,,14,,,,41,0
21840,note_on,120,0,6,,,,,,,,,10,,,,65,100
21840,set_tempo,120,1,0,,,,,,355030,,,,,,,,
21843,note_on,120,0,1,,,,,,,,,0,,,,77,82
21843,note_on,120,0,7,,,,,,,,,11,,,,65,100
21844,note_on,120,0,4,,,,,,,,,4,,,,65,86
21845,note_on,120,0,2,,,,,,,,,1,,,,65,81
21846,note_on,120,0,5,,,,,,,,,5,,,,53,86
21846,note_on,120,0,8,,,,,,,,,12,,,,56,98
21851,note_on,120,0,9,,,,,,,,,13,,,,53,89
21852,note_on,0,0,3,,,,,,,,,3,,,,56,81
21852,note_on,120,0,3,,,,,,,,,3,,,,53,81
21853,note_on,120,0,10,,,,,,,,,14,,,,41,73
21866,note_on,20,0,8,,,,,,,,,12,,,,56,0
21871,note_on,20,0,9,,,,,,,,,13,,,,53,0
21873,note_on,20,0,10,,,,,,,,,14,,,,41,0
21876,note_on,10,0,8,,,,,,,,,12,,,,56,90
21881,note_on,10,0,9,,,,,,,,,13,,,,53,81
21883,note_on,10,0,10,,,,,,,,,14,,,,41,65
21896,note_on,20,0,8,,,,,,,,,12,,,,56,0
21901,note_on,20,0,9,,,,,,,,,13,,,,53,0
21903,note_on,20,0,10,,,,,,,,,14,,,,41,0
21906,note_on,10,0,8,,,,,,,,,12,,,,56,98
21911,note_on,10,0,9,,,,,,,,,13,,,,53,89
21913,note_on,10,0,10,,,,,,,,,14,,,,41,73
21926,note_on,20,0,8,,,,,,,,,12,,,,56,0
21931,note_on,20,0,9,,,,,,,,,13,,,,53,0
21933,note_on,20,0,10,,,,,,,,,14,,,,41,0
21936,note_on,10,0,8,,,,,,,,,12,,,,56,90
21941,note_on,10,0,9,,,,,,,,,13,,,,53,81
21943,note_on,10,0,10,,,,,,,,,14,,,,41,65
21956,note_on,20,0,8,,,,,,,,,12,,,,56,0
21960,set_tempo,120,1,0,,,,,,382166,,,,,,,,
21961,note_on,20,0,9,,,,,,,,,13,,,,53,0
21963,note_on,20,0,10,,,,,,,,,14,,,,41,0
21966,note_on,10,0,8,,,,,,,,,12,,,,56,98
21971,note_on,10,0,9,,,,,,,,,13,,,,53,89
21973,note_on,10,0,10,,,,,,,,,14,,,,41,73
21986,note_on,20,0,8,,,,,,,,,12,,,,56,0
21991,note_on,20,0,9,,,,,,,,,13,,,,53,0
21993,note_on,20,0,10,,,,,,,,,14,,,,41,0
21996,note_on,10,0,8,,,,,,,,,12,,,,56,90
22001,note_on,10,0,9,,,,,,,,,13,,,,53,81
22003,note_on,10,0,10,,,,,,,,,14,,,,41,65
22016,note_on,20,0,8,,,,,,,,,12,,,,56,0
22021,note_on,20,0,9,,,,,,,,,13,,,,53,0
22023,note_on,20,0,10,,,,,,,,,14,,,,41,0
22026,note_on,10,0,8,,,,,,,,,12,,,,56,98
22031,note_on,10,0,9,,,,,,,,,13,,,,53,89
22033,note_on,10,0,10,,,,,,,,,14,,,,41,73
22046,note_on,20,0,8,,,,,,,,,12,,,,56,0
22051,note_on,20,0,9,,,,,,,,,13,,,,53,0
22053,note_on,20,0,10,,,,,,,,,14,,,,41,0
22056,note_on,10,0,8,,,,,,,,,12,,,,56,90
22061,note_on,10,0,9,,,,,,,,,13,,,,53,81
22063,note_on,10,0,10,,,,,,,,,14,,,,41,65
22070,note_on,230,0,6,,,,,,,,,10,,,,65,0
22073,note_on,230,0,7,,,,,,,,,11,,,,65,0
22073,note_on,230,0,1,,,,,,,,,0,,,,77,0
22074,note_on,230,0,4,,,,,,,,,4,,,,65,0
22075,note_on,230,0,2,,,,,,,,,1,,,,65,0
22076,note_on,20,0,8,,,,,,,,,12,,,,56,0
22076,note_on,230,0,5,,,,,,,,,5,,,,53,0
22080,set_tempo,120,1,0,,,,,,355030,,,,,,,,
22080,note_on,10,0,6,,,,,,,,,10,,,,68,100
22081,note_on,20,0,9,,,,,,,,,13,,,,53,0
22082,note_on,230,0,3,,,,,,,,,3,,,,56,0
22082,note_on,0,0,3,,,,,,,,,3,,,,53,0
22083,note_on,10,0,7,,,,,,,,,11,,,,56,100
22083,note_on,20,0,10,,,,,,,,,14,,,,41,0
22083,note_on,10,0,1,,,,,,,,,0,,,,80,82
22084,note_on,10,0,4,,,,,,,,,4,,,,65,86
22085,note_on,10,0,2,,,,,,,,,1,,,,68,81
22086,note_on,10,0,5,,,,,,,,,5,,,,53,86
22086,note_on,10,0,8,,,,,,,,,12,,,,56,98
22091,note_on,10,0,9,,,,,,,,,13,,,,53,89
22092,note_on,0,0,3,,,,,,,,,3,,,,53,81
22092,note_on,10,0,3,,,,,,,,,3,,,,56,81
22093,note_on,10,0,10,,,,,,,,,14,,,,41,73
22106,note_on,20,0,8,,,,,,,,,12,,,,56,0
22111,note_on,20,0,9,,,,,,,,,13,,,,53,0
22113,note_on,20,0,10,,,,,,,,,14,,,,41,0
22116,note_on,10,0,8,,,,,,,,,12,,,,56,90
22121,note_on,10,0,9,,,,,,,,,13,,,,53,81
22123,note_on,10,0,10,,,,,,,,,14,,,,41,65
22136,note_on,20,0,8,,,,,,,,,12,,,,56,0
22141,note_on,20,0,9,,,,,,,,,13,,,,53,0
22143,note_on,20,0,10,,,,,,,,,14,,,,41,0
22146,note_on,10,0,8,,,,,,,,,12,,,,56,98
22151,note_on,10,0,9,,,,,,,,,13,,,,53,89
22153,note_on,10,0,10,,,,,,,,,14,,,,41,73
22166,note_on,20,0,8,,,,,,,,,12,,,,56,0
22171,note_on,20,0,9,,,,,,,,,13,,,,53,0
22173,note_on,20,0,10,,,,,,,,,14,,,,41,0
22176,note_on,10,0,8,,,,,,,,,12,,,,56,90
22181,note_on,10,0,9,,,,,,,,,13,,,,53,81
22183,note_on,10,0,10,,,,,,,,,14,,,,41,65
22196,note_on,20,0,8,,,,,,,,,12,,,,56,0
22200,set_tempo,120,1,0,,,,,,382166,,,,,,,,
22201,note_on,20,0,9,,,,,,,,,13,,,,53,0
22203,note_on,20,0,10,,,,,,,,,14,,,,41,0
22206,note_on,10,0,8,,,,,,,,,12,,,,56,98
22211,note_on,10,0,9,,,,,,,,,13,,,,53,89
22213,note_on,10,0,10,,,,,,,,,14,,,,41,73
22226,note_on,20,0,8,,,,,,,,,12,,,,56,0
22231,note_on,20,0,9,,,,,,,,,13,,,,53,0
22233,note_on,20,0,10,,,,,,,,,14,,,,41,0
22236,note_on,10,0,8,,,,,,,,,12,,,,56,90
22241,note_on,10,0,9,,,,,,,,,13,,,,53,81
22243,note_on,10,0,10,,,,,,,,,14,,,,41,65
22256,note_on,20,0,8,,,,,,,,,12,,,,56,0
22261,note_on,20,0,9,,,,,,,,,13,,,,53,0
22263,note_on,20,0,10,,,,,,,,,14,,,,41,0
22266,note_on,10,0,8,,,,,,,,,12,,,,56,98
22271,note_on,10,0,9,,,,,,,,,13,,,,53,89
22273,note_on,10,0,10,,,,,,,,,14,,,,41,73
22286,note_on,20,0,8,,,,,,,,,12,,,,56,0
22291,note_on,20,0,9,,,,,,,,,13,,,,53,0
22293,note_on,20,0,10,,,,,,,,,14,,,,41,0
22296,note_on,10,0,8,,,,,,,,,12,,,,56,90
22301,note_on,10,0,9,,,,,,,,,13,,,,53,81
22303,note_on,10,0,10,,,,,,,,,14,,,,41,65
22310,note_on,230,0,6,,,,,,,,,10,,,,68,0
22313,note_on,230,0,7,,,,,,,,,11,,,,56,0
22313,note_on,230,0,1,,,,,,,,,0,,,,80,0
22314,note_on,230,0,4,,,,,,,,,4,,,,65,0
22315,note_on,230,0,2,,,,,,,,,1,,,,68,0
22316,note_on,20,0,8,,,,,,,,,12,,,,56,0
22316,note_on,230,0,5,,,,,,,,,5,,,,53,0
22320,set_tempo,120,1,0,,,,,,355030,,,,,,,,
22320,note_on,10,0,6,,,,,,,,,10,,,,73,100
22321,note_on,20,0,9,,,,,,,,,13,,,,53,0
22322,note_on,0,0,3,,,,,,,,,3,,,,56,0
22322,note_on,230,0,3,,,,,,,,,3,,,,53,0
22323,note_on,10,0,1,,,,,,,,,0,,,,85,82
22323,note_on,10,0,7,,,,,,,,,11,,,,61,100
22323,note_on,20,0,10,,,,,,,,,14,,,,41,0
22324,note_on,10,0,4,,,,,,,,,4,,,,65,86
22325,note_on,10,0,2,,,,,,,,,1,,,,73,81
22326,note_on,10,0,8,,,,,,,,,12,,,,56,98
22326,note_on,10,0,5,,,,,,,,,5,,,,53,86
22331,note_on,10,0,9,,,,,,,,,13,,,,53,89
22332,note_on,10,0,3,,,,,,,,,3,,,,56,81
22332,note_on,0,0,3,,,,,,,,,3,,,,53,81
22333,note_on,10,0,10,,,,,,,,,14,,,,41,73
22346,note_on,20,0,8,,,,,,,,,12,,,,56,0
22351,note_on,20,0,9,,,,,,,,,13,,,,53,0
22353,note_on,20,0,10,,,,,,,,,14,,,,41,0
22356,note_on,10,0,8,,,,,,,,,12,,,,56,90
22361,note_on,10,0,9,,,,,,,,,13,,,,53,81
22363,note_on,10,0,10,,,,,,,,,14,,,,41,65
22376,note_on,20,0,8,,,,,,,,,12,,,,56,0
22381,note_on,20,0,9,,,,,,,,,13,,,,53,0
22383,note_on,20,0,10,,,,,,,,,14,,,,41,0
22386,note_on,10,0,8,,,,,,,,,12,,,,56,98
22391,note_on,10,0,9,,,,,,,,,13,,,,53,89
22393,note_on,10,0,10,,,,,,,,,14,,,,41,73
22406,note_on,20,0,8,,,,,,,,,12,,,,56,0
22411,note_on,20,0,9,,,,,,,,,13,,,,53,0
22413,note_on,20,0,10,,,,,,,,,14,,,,41,0
22416,note_on,10,0,8,,,,,,,,,12,,,,56,90
22421,note_on,10,0,9,,,,,,,,,13,,,,53,81
22423,note_on,10,0,10,,,,,,,,,14,,,,41,65
22436,note_on,20,0,8,,,,,,,,,12,,,,56,0
22440,set_tempo,120,1,0,,,,,,382166,,,,,,,,
22441,note_on,20,0,9,,,,,,,,,13,,,,53,0
22443,note_on,20,0,10,,,,,,,,,14,,,,41,0
22446,note_on,10,0,8,,,,,,,,,12,,,,56,98
22451,note_on,10,0,9,,,,,,,,,13,,,,53,89
22453,note_on,10,0,10,,,,,,,,,14,,,,41,73
22466,note_on,20,0,8,,,,,,,,,12,,,,56,0
22471,note_on,20,0,9,,,,,,,,,13,,,,53,0
22473,note_on,20,0,10,,,,,,,,,14,,,,41,0
22476,note_on,10,0,8,,,,,,,,,12,,,,56,90
22481,note_on,10,0,9,,,,,,,,,13,,,,53,81
22483,note_on,10,0,10,,,,,,,,,14,,,,41,65
22496,note_on,20,0,8,,,,,,,,,12,,,,56,0
22501,note_on,20,0,9,,,,,,,,,13,,,,53,0
22503,note_on,20,0,10,,,,,,,,,14,,,,41,0
22506,note_on,10,0,8,,,,,,,,,12,,,,56,98
22511,note_on,10,0,9,,,,,,,,,13,,,,53,89
22513,note_on,10,0,10,,,,,,,,,14,,,,41,73
22526,note_on,20,0,8,,,,,,,,,12,,,,56,0
22531,note_on,20,0,9,,,,,,,,,13,,,,53,0
22533,note_on,20,0,10,,,,,,,,,14,,,,41,0
22536,note_on,10,0,8,,,,,,,,,12,,,,56,90
22541,note_on,10,0,9,,,,,,,,,13,,,,53,81
22543,note_on,10,0,10,,,,,,,,,14,,,,41,65
22550,note_on,230,0,6,,,,,,,,,10,,,,73,0
22553,note_on,230,0,1,,,,,,,,,0,,,,85,0
22553,note_on,230,0,7,,,,,,,,,11,,,,61,0
22554,note_on,230,0,4,,,,,,,,,4,,,,65,0
22555,note_on,230,0,2,,,,,,,,,1,,,,73,0
22556,note_on,230,0,5,,,,,,,,,5,,,,53,0
22556,note_on,20,0,8,,,,,,,,,12,,,,56,0
22560,set_tempo,120,1,0,,,,,,355030,,,,,,,,
22560,note_on,10,0,6,,,,,,,,,10,,,,77,100
22561,note_on,20,0,9,,,,,,,,,13,,,,53,0
22562,note_on,230,0,3,,,,,,,,,3,,,,53,0
22562,note_on,0,0,3,,,,,,,,,3,,,,56,0
22563,note_on,20,0,10,,,,,,,,,14,,,,41,0
22563,note_on,10,0,1,,,,,,,,,0,,,,89,82
22563,note_on,10,0,7,,,,,,,,,11,,,,65,100
22564,note_on,10,0,4,,,,,,,,,4,,,,65,86
22565,note_on,10,0,2,,,,,,,,,1,,,,77,81
22566,note_on,10,0,8,,,,,,,,,12,,,,56,98
22566,note_on,10,0,5,,,,,,,,,5,,,,53,86
22571,note_on,10,0,9,,,,,,,,,13,,,,53,89
22572,note_on,10,0,3,,,,,,,,,3,,,,53,81
22572,note_on,0,0,3,,,,,,,,,3,,,,56,81
22573,note_on,10,0,10,,,,,,,,,14,,,,41,73
22586,note_on,20,0,8,,,,,,,,,12,,,,56,0
22591,note_on,20,0,9,,,,,,,,,13,,,,53,0
22593,note_on,20,0,10,,,,,,,,,14,,,,41,0
22596,note_on,10,0,8,,,,,,,,,12,,,,56,90
22601,note_on,10,0,9,,,,,,,,,13,,,,53,81
22603,note_on,10,0,10,,,,,,,,,14,,,,41,65
22616,note_on,20,0,8,,,,,,,,,12,,,,56,0
22621,note_on,20,0,9,,,,,,,,,13,,,,53,0
22623,note_on,20,0,10,,,,,,,,,14,,,,41,0
22626,note_on,10,0,8,,,,,,,,,12,,,,56,98
22631,note_on,10,0,9,,,,,,,,,13,,,,53,89
22633,note_on,10,0,10,,,,,,,,,14,,,,41,73
22646,note_on,20,0,8,,,,,,,,,12,,,,56,0
22651,note_on,20,0,9,,,,,,,,,13,,,,53,0
22653,note_on,20,0,10,,,,,,,,,14,,,,41,0
22656,note_on,10,0,8,,,,,,,,,12,,,,56,90
22660,note_on,100,0,6,,,,,,,,,10,,,,77,0
22661,note_on,10,0,9,,,,,,,,,13,,,,53,81
22663,note_on,10,0,10,,,,,,,,,14,,,,41,65
22663,note_on,100,0,1,,,,,,,,,0,,,,89,0
22663,note_on,100,0,7,,,,,,,,,11,,,,65,0
22665,note_on,100,0,2,,,,,,,,,1,,,,77,0
22676,note_on,20,0,8,,,,,,,,,12,,,,56,0
22680,note_on,20,0,6,,,,,,,,,10,,,,80,100
22680,set_tempo,120,1,0,,,,,,382166,,,,,,,,
22681,note_on,20,0,9,,,,,,,,,13,,,,53,0
22683,note_on,20,0,10,,,,,,,,,14,,,,41,0
22683,note_on,20,0,7,,,,,,,,,11,,,,68,100
22683,note_on,20,0,1,,,,,,,,,0,,,,92,82
22685,note_on,20,0,2,,,,,,,,,1,,,,80,81
22686,note_on,10,0,8,,,,,,,,,12,,,,56,98
22691,note_on,10,0,9,,,,,,,,,13,,,,53,89
22693,note_on,10,0,10,,,,,,,,,14,,,,41,73
22706,note_on,20,0,8,,,,,,,,,12,,,,56,0
22711,note_on,20,0,9,,,,,,,,,13,,,,53,0
22713,note_on,20,0,10,,,,,,,,,14,,,,41,0
22716,note_on,10,0,8,,,,,,,,,12,,,,56,90
22721,note_on,10,0,9,,,,,,,,,13,,,,53,81
22723,note_on,10,0,10,,,,,,,,,14,,,,41,65
22736,note_on,20,0,8,,,,,,,,,12,,,,56,0
22741,note_on,20,0,9,,,,,,,,,13,,,,53,0
22743,note_on,20,0,10,,,,,,,,,14,,,,41,0
22746,note_on,10,0,8,,,,,,,,,12,,,,56,98
22751,note_on,10,0,9,,,,,,,,,13,,,,53,89
22753,note_on,10,0,10,,,,,,,,,14,,,,41,73
22766,note_on,20,0,8,,,,,,,,,12,,,,56,0
22771,note_on,20,0,9,,,,,,,,,13,,,,53,0
22773,note_on,20,0,10,,,,,,,,,14,,,,41,0
22776,note_on,10,0,8,,,,,,,,,12,,,,56,90
22780,note_on,100,0,6,,,,,,,,,10,,,,80,0
22781,note_on,10,0,9,,,,,,,,,13,,,,53,81
22783,note_on,10,0,10,,,,,,,,,14,,,,41,65
22783,note_on,100,0,1,,,,,,,,,0,,,,92,0
22783,note_on,100,0,7,,,,,,,,,11,,,,68,0
22785,note_on,100,0,2,,,,,,,,,1,,,,80,0
22794,note_on,230,0,4,,,,,,,,,4,,,,65,0
22796,note_on,20,0,8,,,,,,,,,12,,,,56,0
22796,note_on,230,0,5,,,,,,,,,5,,,,53,0
22800,note_on,20,0,6,,,,,,,,,10,,,,71,100
22800,set_tempo,120,1,0,,,,,,355030,,,,,,,,
22801,note_on,20,0,9,,,,,,,,,13,,,,53,0
22802,note_on,0,0,3,,,,,,,,,3,,,,53,0
22802,note_on,230,0,3,,,,,,,,,3,,,,56,0
22803,note_on,20,0,7,,,,,,,,,11,,,,59,100
22803,note_on,20,0,1,,,,,,,,,0,,,,83,82
22803,note_on,20,0,10,,,,,,,,,14,,,,41,0
22804,note_on,10,0,4,,,,,,,,,4,,,,62,86
22805,note_on,20,0,2,,,,,,,,,1,,,,71,81
22805,note_on,0,0,2,,,,,,,,,1,,,,79,81
22806,note_on,10,0,5,,,,,,,,,5,,,,62,86
22806,note_on,10,0,8,,,,,,,,,12,,,,55,98
22811,note_on,10,0,9,,,,,,,,,13,,,,53,89
22812,note_on,10,0,3,,,,,,,,,3,,,,55,81
22812,note_on,0,0,3,,,,,,,,,3,,,,53,81
22813,note_on,10,0,10,,,,,,,,,14,,,,41,73
22822,note_on,22,0,6,,,,,,,,,10,,,,71,0
22825,note_on,22,0,7,,,,,,,,,11,,,,59,0
22826,note_on,20,0,8,,,,,,,,,12,,,,55,0
22830,note_on,8,0,6,,,,,,,,,10,,,,72,100
22831,note_on,20,0,9,,,,,,,,,13,,,,53,0
22833,note_on,20,0,10,,,,,,,,,14,,,,41,0
22833,note_on,8,0,7,,,,,,,,,11,,,,60,100
22836,note_on,10,0,8,,,,,,,,,12,,,,55,90
22841,note_on,10,0,9,,,,,,,,,13,,,,53,81
22843,note_on,10,0,10,,,,,,,,,14,,,,41,65
22852,note_on,22,0,6,,,,,,,,,10,,,,72,0
22855,note_on,22,0,7,,,,,,,,,11,,,,60,0
22856,note_on,20,0,8,,,,,,,,,12,,,,55,0
22860,note_on,8,0,6,,,,,,,,,10,,,,74,100
22861,note_on,20,0,9,,,,,,,,,13,,,,53,0
22863,note_on,8,0,7,,,,,,,,,11,,,,62,100
22863,note_on,20,0,10,,,,,,,,,14,,,,41,0
22866,note_on,10,0,8,,,,,,,,,12,,,,55,98
22871,note_on,10,0,9,,,,,,,,,13,,,,53,89
22873,note_on,10,0,10,,,,,,,,,14,,,,41,73
22882,note_on,22,0,6,,,,,,,,,10,,,,74,0
22885,note_on,22,0,7,,,,,,,,,11,,,,62,0
22886,note_on,20,0,8,,,,,,,,,12,,,,55,0
22890,note_on,8,0,6,,,,,,,,,10,,,,75,100
22891,note_on,20,0,9,,,,,,,,,13,,,,53,0
22893,note_on,8,0,7,,,,,,,,,11,,,,63,100
22893,note_on,20,0,10,,,,,,,,,14,,,,41,0
22896,note_on,10,0,8,,,,,,,,,12,,,,55,90
22901,note_on,10,0,9,,,,,,,,,13,,,,53,81
22903,note_on,10,0,10,,,,,,,,,14,,,,41,65
22912,note_on,22,0,6,,,,,,,,,10,,,,75,0
22915,note_on,22,0,7,,,,,,,,,11,,,,63,0
22916,note_on,20,0,8,,,,,,,,,12,,,,55,0
22920,set_tempo,120,1,0,,,,,,382166,,,,,,,,
22920,note_on,8,0,6,,,,,,,,,10,,,,77,100
22921,note_on,20,0,9,,,,,,,,,13,,,,53,0
22923,note_on,8,0,7,,,,,,,,,11,,,,65,100
22923,note_on,20,0,10,,,,,,,,,14,,,,41,0
22926,note_on,10,0,8,,,,,,,,,12,,,,55,98
22931,note_on,10,0,9,,,,,,,,,13,,,,53,89
22933,note_on,10,0,10,,,,,,,,,14,,,,41,73
22942,note_on,22,0,6,,,,,,,,,10,,,,77,0
22945,note_on,22,0,7,,,,,,,,,11,,,,65,0
22946,note_on,20,0,8,,,,,,,,,12,,,,55,0
22950,note_on,8,0,6,,,,,,,,,10,,,,79,100
22951,note_on,20,0,9,,,,,,,,,13,,,,53,0
22953,note_on,8,0,7,,,,,,,,,11,,,,67,100
22953,note_on,20,0,10,,,,,,,,,14,,,,41,0
22956,note_on,10,0,8,,,,,,,,,12,,,,55,90
22961,note_on,10,0,9,,,,,,,,,13,,,,53,81
22963,note_on,10,0,10,,,,,,,,,14,,,,41,65
22972,note_on,22,0,6,,,,,,,,,10,,,,79,0
22975,note_on,22,0,7,,,,,,,,,11,,,,67,0
22976,note_on,20,0,8,,,,,,,,,12,,,,55,0
22980,note_on,8,0,6,,,,,,,,,10,,,,80,100
22981,note_on,20,0,9,,,,,,,,,13,,,,53,0
22983,note_on,8,0,7,,,,,,,,,11,,,,68,100
22983,note_on,20,0,10,,,,,,,,,14,,,,41,0
22986,note_on,10,0,8,,,,,,,,,12,,,,55,98
22991,note_on,10,0,9,,,,,,,,,13,,,,53,89
22993,note_on,10,0,10,,,,,,,,,14,,,,41,73
23002,note_on,22,0,6,,,,,,,,,10,,,,80,0
23005,note_on,22,0,7,,,,,,,,,11,,,,68,0
23006,note_on,20,0,8,,,,,,,,,12,,,,55,0
23010,note_on,8,0,6,,,,,,,,,10,,,,83,100
23011,note_on,20,0,9,,,,,,,,,13,,,,53,0
23013,note_on,20,0,10,,,,,,,,,14,,,,41,0
23013,note_on,8,0,7,,,,,,,,,11,,,,71,100
23016,note_on,10,0,8,,,,,,,,,12,,,,55,90
23021,note_on,10,0,9,,,,,,,,,13,,,,53,81
23023,note_on,10,0,10,,,,,,,,,14,,,,41,65
23032,note_on,22,0,6,,,,,,,,,10,,,,83,0
23033,note_on,230,0,1,,,,,,,,,0,,,,83,0
23034,note_on,230,0,4,,,,,,,,,4,,,,62,0
23035,note_on,230,0,2,,,,,,,,,1,,,,79,0
23035,note_on,22,0,7,,,,,,,,,11,,,,71,0
23035,note_on,0,0,2,,,,,,,,,1,,,,71,0
23036,note_on,20,0,8,,,,,,,,,12,,,,55,0
23036,note_on,230,0,5,,,,,,,,,5,,,,62,0
23040,set_tempo,120,1,0,,,,,,355030,,,,,,,,
23040,note_on,8,0,6,,,,,,,,,10,,,,84,100
23041,note_on,20,0,9,,,,,,,,,13,,,,53,0
23042,note_on,0,0,3,,,,,,,,,3,,,,55,0
23042,note_on,230,0,3,,,,,,,,,3,,,,53,0
23043,note_on,8,0,7,,,,,,,,,11,,,,72,100
23043,note_on,20,0,10,,,,,,,,,14,,,,41,0
23043,note_on,10,0,1,,,,,,,,,0,,,,84,82
23044,note_on,10,0,4,,,,,,,,,4,,,,60,86
23045,note_on,0,0,2,,,,,,,,,1,,,,79,81
23045,note_on,10,0,2,,,,,,,,,1,,,,72,81
23046,note_on,10,0,8,,,,,,,,,12,,,,55,98
23046,note_on,10,0,5,,,,,,,,,5,,,,60,86
23051,note_on,10,0,9,,,,,,,,,13,,,,51,89
23052,note_on,0,0,3,,,,,,,,,3,,,,55,81
23052,note_on,10,0,3,,,,,,,,,3,,,,51,81
23053,note_on,10,0,10,,,,,,,,,14,,,,39,73
23066,note_on,20,0,8,,,,,,,,,12,,,,55,0
23071,note_on,20,0,9,,,,,,,,,13,,,,51,0
23073,note_on,20,0,10,,,,,,,,,14,,,,39,0
23076,note_on,10,0,8,,,,,,,,,12,,,,55,90
23081,note_on,10,0,9,,,,,,,,,13,,,,53,89
23083,note_on,10,0,10,,,,,,,,,14,,,,41,73
23096,note_on,20,0,8,,,,,,,,,12,,,,55,0
23101,note_on,20,0,9,,,,,,,,,13,,,,53,0
23103,note_on,20,0,10,,,,,,,,,14,,,,41,0
23106,note_on,10,0,8,,,,,,,,,12,,,,55,98
23111,note_on,10,0,9,,,,,,,,,13,,,,55,89
23113,note_on,10,0,10,,,,,,,,,14,,,,43,73
23126,note_on,20,0,8,,,,,,,,,12,,,,55,0
23131,note_on,20,0,9,,,,,,,,,13,,,,55,0
23133,note_on,20,0,10,,,,,,,,,14,,,,43,0
23136,note_on,10,0,8,,,,,,,,,12,,,,55,90
23141,note_on,10,0,9,,,,,,,,,13,,,,57,89
23143,note_on,10,0,10,,,,,,,,,14,,,,45,73
23156,note_on,20,0,8,,,,,,,,,12,,,,55,0
23160,set_tempo,120,1,0,,,,,,382166,,,,,,,,
23161,note_on,20,0,9,,,,,,,,,13,,,,57,0
23163,note_on,20,0,10,,,,,,,,,14,,,,45,0
23166,note_on,10,0,8,,,,,,,,,12,,,,55,98
23171,note_on,10,0,9,,,,,,,,,13,,,,59,89
23173,note_on,10,0,10,,,,,,,,,14,,,,47,73
23186,note_on,20,0,8,,,,,,,,,12,,,,55,0
23191,note_on,20,0,9,,,,,,,,,13,,,,59,0
23193,note_on,20,0,10,,,,,,,,,14,,,,47,0
23196,note_on,10,0,8,,,,,,,,,12,,,,55,90
23201,note_on,10,0,9,,,,,,,,,13,,,,60,89
23203,note_on,10,0,10,,,,,,,,,14,,,,48,73
23216,note_on,20,0,8,,,,,,,,,12,,,,55,0
23221,note_on,20,0,9,,,,,,,,,13,,,,60,0
23223,note_on,20,0,10,,,,,,,,,14,,,,48,0
23226,note_on,10,0,8,,,,,,,,,12,,,,55,98
23231,note_on,10,0,9,,,,,,,,,13,,,,62,89
23233,note_on,10,0,10,,,,,,,,,14,,,,50,73
23246,note_on,20,0,8,,,,,,,,,12,,,,55,0
23251,note_on,20,0,9,,,,,,,,,13,,,,62,0
23253,note_on,20,0,10,,,,,,,,,14,,,,50,0
23256,note_on,10,0,8,,,,,,,,,12,,,,55,90
23261,note_on,10,0,9,,,,,,,,,13,,,,63,89
23263,note_on,10,0,10,,,,,,,,,14,,,,51,73
23270,note_on,230,0,6,,,,,,,,,10,,,,84,0
23273,note_on,230,0,7,,,,,,,,,11,,,,72,0
23273,note_on,230,0,1,,,,,,,,,0,,,,84,0
23274,note_on,230,0,4,,,,,,,,,4,,,,60,0
23275,note_on,230,0,2,,,,,,,,,1,,,,79,0
23275,note_on,0,0,2,,,,,,,,,1,,,,72,0
23276,note_on,20,0,8,,,,,,,,,12,,,,55,0
23276,note_on,230,0,5,,,,,,,,,5,,,,60,0
23280,note_on,10,0,6,,,,,,,,,10,,,,69,100
23280,set_tempo,120,1,0,,,,,,355030,,,,,,,,
23281,note_on,20,0,9,,,,,,,,,13,,,,63,0
23282,note_on,230,0,3,,,,,,,,,3,,,,55,0
23282,note_on,0,0,3,,,,,,,,,3,,,,51,0
23283,note_on,10,0,1,,,,,,,,,0,,,,81,82
23283,note_on,20,0,10,,,,,,,,,14,,,,51,0
23283,note_on,10,0,7,,,,,,,,,11,,,,57,100
23284,note_on,10,0,4,,,,,,,,,4,,,,60,86
23285,note_on,0,0,2,,,,,,,,,1,,,,69,81
23285,note_on,10,0,2,,,,,,,,,1,,,,77,81
23286,note_on,10,0,5,,,,,,,,,5,,,,53,86
23286,note_on,10,0,8,,,,,,,,,12,,,,53,98
23291,note_on,10,0,9,,,,,,,,,13,,,,51,89
23292,note_on,10,0,3,,,,,,,,,3,,,,51,81
23292,note_on,0,0,3,,,,,,,,,3,,,,53,81
23293,note_on,10,0,10,,,,,,,,,14,,,,39,73
23302,note_on,22,0,6,,,,,,,,,10,,,,69,0
23305,note_on,22,0,7,,,,,,,,,11,,,,57,0
23306,note_on,20,0,8,,,,,,,,,12,,,,53,0
23310,note_on,8,0,6,,,,,,,,,10,,,,70,100
23311,note_on,20,0,9,,,,,,,,,13,,,,51,0
23313,note_on,8,0,7,,,,,,,,,11,,,,58,100
23313,note_on,20,0,10,,,,,,,,,14,,,,39,0
23316,note_on,10,0,8,,,,,,,,,12,,,,53,90
23321,note_on,10,0,9,,,,,,,,,13,,,,51,81
23323,note_on,10,0,10,,,,,,,,,14,,,,39,65
23332,note_on,22,0,6,,,,,,,,,10,,,,70,0
23335,note_on,22,0,7,,,,,,,,,11,,,,58,0
23336,note_on,20,0,8,,,,,,,,,12,,,,53,0
23340,note_on,8,0,6,,,,,,,,,10,,,,72,100
23341,note_on,20,0,9,,,,,,,,,13,,,,51,0
23343,note_on,8,0,7,,,,,,,,,11,,,,60,100
23343,note_on,20,0,10,,,,,,,,,14,,,,39,0
23346,note_on,10,0,8,,,,,,,,,12,,,,53,98
23351,note_on,10,0,9,,,,,,,,,13,,,,51,89
23353,note_on,10,0,10,,,,,,,,,14,,,,39,73
23362,note_on,22,0,6,,,,,,,,,10,,,,72,0
23365,note_on,22,0,7,,,,,,,,,11,,,,60,0
23366,note_on,20,0,8,,,,,,,,,12,,,,53,0
23370,note_on,8,0,6,,,,,,,,,10,,,,74,100
23371,note_on,20,0,9,,,,,,,,,13,,,,51,0
23373,note_on,8,0,7,,,,,,,,,11,,,,62,100
23373,note_on,20,0,10,,,,,,,,,14,,,,39,0
23376,note_on,10,0,8,,,,,,,,,12,,,,53,90
23381,note_on,10,0,9,,,,,,,,,13,,,,51,81
23383,note_on,10,0,10,,,,,,,,,14,,,,39,65
23392,note_on,22,0,6,,,,,,,,,10,,,,74,0
23395,note_on,22,0,7,,,,,,,,,11,,,,62,0
23396,note_on,20,0,8,,,,,,,,,12,,,,53,0
23400,set_tempo,120,1,0,,,,,,382166,,,,,,,,
23400,note_on,8,0,6,,,,,,,,,10,,,,75,100
23401,note_on,20,0,9,,,,,,,,,13,,,,51,0
23403,note_on,8,0,7,,,,,,,,,11,,,,63,100
23403,note_on,20,0,10,,,,,,,,,14,,,,39,0
23406,note_on,10,0,8,,,,,,,,,12,,,,53,98
23411,note_on,10,0,9,,,,,,,,,13,,,,51,89
23413,note_on,10,0,10,,,,,,,,,14,,,,39,73
23422,note_on,22,0,6,,,,,,,,,10,,,,75,0
23425,note_on,22,0,7,,,,,,,,,11,,,,63,0
23426,note_on,20,0,8,,,,,,,,,12,,,,53,0
23430,note_on,8,0,6,,,,,,,,,10,,,,77,100
23431,note_on,20,0,9,,,,,,,,,13,,,,51,0
23433,note_on,20,0,10,,,,,,,,,14,,,,39,0
23433,note_on,8,0,7,,,,,,,,,11,,,,65,100
23436,note_on,10,0,8,,,,,,,,,12,,,,53,90
23441,note_on,10,0,9,,,,,,,,,13,,,,51,81
23443,note_on,10,0,10,,,,,,,,,14,,,,39,65
23452,note_on,22,0,6,,,,,,,,,10,,,,77,0
23455,note_on,22,0,7,,,,,,,,,11,,,,65,0
23456,note_on,20,0,8,,,,,,,,,12,,,,53,0
23460,note_on,8,0,6,,,,,,,,,10,,,,79,100
23461,note_on,20,0,9,,,,,,,,,13,,,,51,0
23463,note_on,8,0,7,,,,,,,,,11,,,,67,100
23463,note_on,20,0,10,,,,,,,,,14,,,,39,0
23466,note_on,10,0,8,,,,,,,,,12,,,,53,98
23471,note_on,10,0,9,,,,,,,,,13,,,,51,89
23473,note_on,10,0,10,,,,,,,,,14,,,,39,73
23482,note_on,22,0,6,,,,,,,,,10,,,,79,0
23485,note_on,22,0,7,,,,,,,,,11,,,,67,0
23486,note_on,20,0,8,,,,,,,,,12,,,,53,0
23490,note_on,8,0,6,,,,,,,,,10,,,,81,100
23491,note_on,20,0,9,,,,,,,,,13,,,,51,0
23493,note_on,8,0,7,,,,,,,,,11,,,,69,100
23493,note_on,20,0,10,,,,,,,,,14,,,,39,0
23496,note_on,10,0,8,,,,,,,,,12,,,,53,90
23501,note_on,10,0,9,,,,,,,,,13,,,,51,81
23503,note_on,10,0,10,,,,,,,,,14,,,,39,65
23512,note_on,22,0,6,,,,,,,,,10,,,,81,0
23513,note_on,230,0,1,,,,,,,,,0,,,,81,0
23514,note_on,230,0,4,,,,,,,,,4,,,,60,0
23515,note_on,230,0,2,,,,,,,,,1,,,,69,0
23515,note_on,0,0,2,,,,,,,,,1,,,,77,0
23515,note_on,22,0,7,,,,,,,,,11,,,,69,0
23516,note_on,230,0,5,,,,,,,,,5,,,,53,0
23516,note_on,20,0,8,,,,,,,,,12,,,,53,0
23520,note_on,8,0,6,,,,,,,,,10,,,,82,100
23520,set_tempo,120,1,0,,,,,,355030,,,,,,,,
23521,note_on,20,0,9,,,,,,,,,13,,,,51,0
23522,note_on,230,0,3,,,,,,,,,3,,,,53,0
23522,note_on,0,0,3,,,,,,,,,3,,,,51,0
23523,note_on,8,0,7,,,,,,,,,11,,,,70,100
23523,note_on,20,0,10,,,,,,,,,14,,,,39,0
23523,note_on,10,0,1,,,,,,,,,0,,,,82,82
23524,note_on,10,0,4,,,,,,,,,4,,,,58,86
23525,note_on,0,0,2,,,,,,,,,1,,,,70,81
23525,note_on,10,0,2,,,,,,,,,1,,,,77,81
23526,note_on,10,0,5,,,,,,,,,5,,,,58,86
23526,note_on,10,0,8,,,,,,,,,12,,,,53,98
23531,note_on,10,0,9,,,,,,,,,13,,,,49,89
23532,note_on,10,0,3,,,,,,,,,3,,,,49,81
23532,note_on,0,0,3,,,,,,,,,3,,,,53,81
23533,note_on,10,0,10,,,,,,,,,14,,,,37,73
23546,note_on,20,0,8,,,,,,,,,12,,,,53,0
23551,note_on,20,0,9,,,,,,,,,13,,,,49,0
23553,note_on,20,0,10,,,,,,,,,14,,,,37,0
23556,note_on,10,0,8,,,,,,,,,12,,,,53,90
23561,note_on,10,0,9,,,,,,,,,13,,,,51,89
23563,note_on,10,0,10,,,,,,,,,14,,,,39,73
23576,note_on,20,0,8,,,,,,,,,12,,,,53,0
23581,note_on,20,0,9,,,,,,,,,13,,,,51,0
23583,note_on,20,0,10,,,,,,,,,14,,,,39,0
23586,note_on,10,0,8,,,,,,,,,12,,,,53,98
23591,note_on,10,0,9,,,,,,,,,13,,,,53,89
23593,note_on,10,0,10,,,,,,,,,14,,,,41,73
23606,note_on,20,0,8,,,,,,,,,12,,,,53,0
23611,note_on,20,0,9,,,,,,,,,13,,,,53,0
23613,note_on,20,0,10,,,,,,,,,14,,,,41,0
23616,note_on,10,0,8,,,,,,,,,12,,,,53,90
23621,note_on,10,0,9,,,,,,,,,13,,,,55,89
23623,note_on,10,0,10,,,,,,,,,14,,,,43,73
23636,note_on,20,0,8,,,,,,,,,12,,,,53,0
23640,set_tempo,120,1,0,,,,,,382166,,,,,,,,
23641,note_on,20,0,9,,,,,,,,,13,,,,55,0
23643,note_on,20,0,10,,,,,,,,,14,,,,43,0
23646,note_on,10,0,8,,,,,,,,,12,,,,53,98
23651,note_on,10,0,9,,,,,,,,,13,,,,57,89
23653,note_on,10,0,10,,,,,,,,,14,,,,45,73
23666,note_on,20,0,8,,,,,,,,,12,,,,53,0
23671,note_on,20,0,9,,,,,,,,,13,,,,57,0
23673,note_on,20,0,10,,,,,,,,,14,,,,45,0
23676,note_on,10,0,8,,,,,,,,,12,,,,53,90
23681,note_on,10,0,9,,,,,,,,,13,,,,58,89
23683,note_on,10,0,10,,,,,,,,,14,,,,46,73
23696,note_on,20,0,8,,,,,,,,,12,,,,53,0
23701,note_on,20,0,9,,,,,,,,,13,,,,58,0
23703,note_on,20,0,10,,,,,,,,,14,,,,46,0
23706,note_on,10,0,8,,,,,,,,,12,,,,53,98
23711,note_on,10,0,9,,,,,,,,,13,,,,60,89
23713,note_on,10,0,10,,,,,,,,,14,,,,48,73
23726,note_on,20,0,8,,,,,,,,,12,,,,53,0
23731,note_on,20,0,9,,,,,,,,,13,,,,60,0
23733,note_on,20,0,10,,,,,,,,,14,,,,48,0
23736,note_on,10,0,8,,,,,,,,,12,,,,53,90
23741,note_on,10,0,9,,,,,,,,,13,,,,61,89
23743,note_on,10,0,10,,,,,,,,,14,,,,49,73
23750,note_on,230,0,6,,,,,,,,,10,,,,82,0
23753,note_on,230,0,7,,,,,,,,,11,,,,70,0
23753,note_on,230,0,1,,,,,,,,,0,,,,82,0
23754,note_on,230,0,4,,,,,,,,,4,,,,58,0
23755,note_on,0,0,2,,,,,,,,,1,,,,77,0
23755,note_on,230,0,2,,,,,,,,,1,,,,70,0
23756,note_on,20,0,8,,,,,,,,,12,,,,53,0
23756,note_on,230,0,5,,,,,,,,,5,,,,58,0
23760,note_on,10,0,6,,,,,,,,,10,,,,79,100
23760,set_tempo,120,1,0,,,,,,355030,,,,,,,,
23761,note_on,20,0,9,,,,,,,,,13,,,,61,0
23762,note_on,230,0,3,,,,,,,,,3,,,,53,0
23762,note_on,0,0,3,,,,,,,,,3,,,,49,0
23763,note_on,20,0,10,,,,,,,,,14,,,,49,0
23763,note_on,10,0,1,,,,,,,,,0,,,,79,95
23763,note_on,10,0,7,,,,,,,,,11,,,,77,100
23764,note_on,10,0,4,,,,,,,,,4,,,,65,99
23765,note_on,10,0,2,,,,,,,,,1,,,,67,94
23765,note_on,0,0,2,,,,,,,,,1,,,,77,94
23766,note_on,10,0,5,,,,,,,,,5,,,,53,99
23766,note_on,10,0,8,,,,,,,,,12,,,,58,98
23771,note_on,10,0,9,,,,,,,,,13,,,,46,89
23772,note_on,10,0,3,,,,,,,,,3,,,,46,81
23773,note_on,10,0,10,,,,,,,,,14,,,,34,73
23810,note_on,50,0,6,,,,,,,,,10,,,,79,0
23813,note_on,50,0,7,,,,,,,,,11,,,,77,0
23820,note_on,10,0,6,,,,,,,,,10,,,,79,100
23823,note_on,10,0,7,,,,,,,,,11,,,,77,100
23876,note_on,110,0,8,,,,,,,,,12,,,,58,0
23880,set_tempo,120,1,0,,,,,,382166,,,,,,,,
23881,note_on,110,0,9,,,,,,,,,13,,,,46,0
23882,note_on,110,0,3,,,,,,,,,3,,,,46,0
23883,note_on,110,0,10,,,,,,,,,14,,,,34,0
23886,note_on,10,0,8,,,,,,,,,12,,,,60,98
23891,note_on,10,0,9,,,,,,,,,13,,,,48,89
23892,note_on,10,0,3,,,,,,,,,3,,,,48,81
23893,note_on,10,0,10,,,,,,,,,14,,,,36,73
23930,note_on,110,0,6,,,,,,,,,10,,,,79,0
23933,note_on,110,0,7,,,,,,,,,11,,,,77,0
23940,note_on,10,0,6,,,,,,,,,10,,,,79,100
23943,note_on,10,0,7,,,,,,,,,11,,,,77,100
23996,note_on,110,0,8,,,,,,,,,12,,,,60,0
24000,set_tempo,120,1,0,,,,,,355030,,,,,,,,
24001,note_on,110,0,9,,,,,,,,,13,,,,48,0
24002,note_on,110,0,3,,,,,,,,,3,,,,48,0
24003,note_on,110,0,10,,,,,,,,,14,,,,36,0
24006,note_on,10,0,8,,,,,,,,,12,,,,61,98
24011,note_on,10,0,9,,,,,,,,,13,,,,49,89
24012,note_on,10,0,3,,,,,,,,,3,,,,49,81
24013,note_on,10,0,10,,,,,,,,,14,,,,37,73
24050,note_on,110,0,6,,,,,,,,,10,,,,79,0
24053,note_on,110,0,7,,,,,,,,,11,,,,77,0
24060,note_on,10,0,6,,,,,,,,,10,,,,79,100
24063,note_on,10,0,7,,,,,,,,,11,,,,77,100
24116,note_on,110,0,8,,,,,,,,,12,,,,61,0
24120,set_tempo,120,1,0,,,,,,382166,,,,,,,,
24121,note_on,110,0,9,,,,,,,,,13,,,,49,0
24122,note_on,110,0,3,,,,,,,,,3,,,,49,0
24123,note_on,110,0,10,,,,,,,,,14,,,,37,0
24126,note_on,10,0,8,,,,,,,,,12,,,,60,98
24131,note_on,10,0,9,,,,,,,,,13,,,,48,89
24132,note_on,10,0,3,,,,,,,,,3,,,,48,81
24133,note_on,10,0,10,,,,,,,,,14,,,,36,73
24170,note_on,110,0,6,,,,,,,,,10,,,,79,0
24173,note_on,110,0,7,,,,,,,,,11,,,,77,0
24180,note_on,10,0,6,,,,,,,,,10,,,,79,100
24183,note_on,10,0,7,,,,,,,,,11,,,,77,100
24233,note_on,470,0,1,,,,,,,,,0,,,,79,0
24234,note_on,470,0,4,,,,,,,,,4,,,,65,0
24235,note_on,470,0,2,,,,,,,,,1,,,,77,0
24235,note_on,0,0,2,,,,,,,,,1,,,,67,0
24236,note_on,110,0,8,,,,,,,,,12,,,,60,0
24236,note_on,470,0,5,,,,,,,,,5,,,,53,0
24240,set_tempo,120,1,0,,,,,,355030,,,,,,,,
24241,note_on,110,0,9,,,,,,,,,13,,,,48,0
24242,note_on,110,0,3,,,,,,,,,3,,,,48,0
24243,note_on,10,0,1,,,,,,,,,0,,,,79,95
24243,note_on,110,0,10,,,,,,,,,14,,,,36,0
24244,note_on,10,0,4,,,,,,,,,4,,,,65,99
24245,note_on,0,0,2,,,,,,,,,1,,,,67,94
24245,note_on,10,0,2,,,,,,,,,1,,,,77,94
24246,note_on,10,0,5,,,,,,,,,5,,,,53,99
24246,note_on,10,0,8,,,,,,,,,12,,,,58,98
24251,note_on,10,0,9,,,,,,,,,13,,,,46,89
24252,note_on,10,0,3,,,,,,,,,3,,,,46,81
24253,note_on,10,0,10,,,,,,,,,14,,,,34,73
24290,note_on,110,0,6,,,,,,,,,10,,,,79,0
24293,note_on,110,0,7,,,,,,,,,11,,,,77,0
24296,note_on,50,0,8,,,,,,,,,12,,,,58,0
24300,note_on,10,0,6,,,,,,,,,10,,,,79,100
24301,note_on,50,0,9,,,,,,,,,13,,,,46,0
24302,note_on,50,0,3,,,,,,,,,3,,,,46,0
24303,note_on,10,0,7,,,,,,,,,11,,,,77,100
24303,note_on,50,0,10,,,,,,,,,14,,,,34,0
24306,note_on,10,0,8,,,,,,,,,12,,,,58,98
24311,note_on,10,0,9,,,,,,,,,13,,,,46,89
24312,note_on,10,0,3,,,,,,,,,3,,,,46,81
24313,note_on,10,0,10,,,,,,,,,14,,,,34,73
24356,note_on,50,0,8,,,,,,,,,12,,,,58,0
24360,set_tempo,120,1,0,,,,,,382166,,,,,,,,
24361,note_on,50,0,9,,,,,,,,,13,,,,46,0
24362,note_on,50,0,3,,,,,,,,,3,,,,46,0
24363,note_on,50,0,10,,,,,,,,,14,,,,34,0
24366,note_on,10,0,8,,,,,,,,,12,,,,60,98
24371,note_on,10,0,9,,,,,,,,,13,,,,48,89
24372,note_on,10,0,3,,,,,,,,,3,,,,48,81
24373,note_on,10,0,10,,,,,,,,,14,,,,36,73
24410,note_on,110,0,6,,,,,,,,,10,,,,79,0
24413,note_on,110,0,7,,,,,,,,,11,,,,77,0
24416,note_on,50,0,8,,,,,,,,,12,,,,60,0
24420,note_on,10,0,6,,,,,,,,,10,,,,79,100
24421,note_on,50,0,9,,,,,,,,,13,,,,48,0
24422,note_on,50,0,3,,,,,,,,,3,,,,48,0
24423,note_on,10,0,7,,,,,,,,,11,,,,77,100
24423,note_on,50,0,10,,,,,,,,,14,,,,36,0
24426,note_on,10,0,8,,,,,,,,,12,,,,60,98
24431,note_on,10,0,9,,,,,,,,,13,,,,48,89
24432,note_on,10,0,3,,,,,,,,,3,,,,48,81
24433,note_on,10,0,10,,,,,,,,,14,,,,36,73
24476,note_on,50,0,8,,,,,,,,,12,,,,60,0
24480,set_tempo,120,1,0,,,,,,355030,,,,,,,,
24481,note_on,50,0,9,,,,,,,,,13,,,,48,0
24482,note_on,50,0,3,,,,,,,,,3,,,,48,0
24483,note_on,50,0,10,,,,,,,,,14,,,,36,0
24486,note_on,10,0,8,,,,,,,,,12,,,,61,98
24491,note_on,10,0,9,,,,,,,,,13,,,,49,89
24492,note_on,10,0,3,,,,,,,,,3,,,,49,81
24493,note_on,10,0,10,,,,,,,,,14,,,,37,73
24530,note_on,110,0,6,,,,,,,,,10,,,,79,0
24533,note_on,110,0,7,,,,,,,,,11,,,,77,0
24536,note_on,50,0,8,,,,,,,,,12,,,,61,0
24540,note_on,10,0,6,,,,,,,,,10,,,,79,100
24541,note_on,50,0,9,,,,,,,,,13,,,,49,0
24542,note_on,50,0,3,,,,,,,,,3,,,,49,0
24543,note_on,10,0,7,,,,,,,,,11,,,,77,100
24543,note_on,50,0,10,,,,,,,,,14,,,,37,0
24546,note_on,10,0,8,,,,,,,,,12,,,,61,98
24551,note_on,10,0,9,,,,,,,,,13,,,,49,89
24552,note_on,10,0,3,,,,,,,,,3,,,,49,81
24553,note_on,10,0,10,,,,,,,,,14,,,,37,73
24596,note_on,50,0,8,,,,,,,,,12,,,,61,0
24600,set_tempo,120,1,0,,,,,,382166,,,,,,,,
24601,note_on,50,0,9,,,,,,,,,13,,,,49,0
24602,note_on,50,0,3,,,,,,,,,3,,,,49,0
24603,note_on,50,0,10,,,,,,,,,14,,,,37,0
24606,note_on,10,0,8,,,,,,,,,12,,,,60,98
24611,note_on,10,0,9,,,,,,,,,13,,,,48,89
24612,note_on,10,0,3,,,,,,,,,3,,,,48,81
24613,note_on,10,0,10,,,,,,,,,14,,,,36,73
24650,note_on,110,0,6,,,,,,,,,10,,,,79,0
24653,note_on,110,0,7,,,,,,,,,11,,,,77,0
24656,note_on,50,0,8,,,,,,,,,12,,,,60,0
24660,note_on,10,0,6,,,,,,,,,10,,,,79,100
24661,note_on,50,0,9,,,,,,,,,13,,,,48,0
24662,note_on,50,0,3,,,,,,,,,3,,,,48,0
24663,note_on,50,0,10,,,,,,,,,14,,,,36,0
24663,note_on,10,0,7,,,,,,,,,11,,,,77,100
24666,note_on,10,0,8,,,,,,,,,12,,,,60,98
24671,note_on,10,0,9,,,,,,,,,13,,,,48,89
24672,note_on,10,0,3,,,,,,,,,3,,,,48,81
24673,note_on,10,0,10,,,,,,,,,14,,,,36,73
24710,note_on,50,0,6,,,,,,,,,10,,,,79,0
24713,note_on,50,0,7,,,,,,,,,11,,,,77,0
24713,note_on,470,0,1,,,,,,,,,0,,,,79,0
24714,note_on,470,0,4,,,,,,,,,4,,,,65,0
24715,note_on,470,0,2,,,,,,,,,1,,,,67,0
24715,note_on,0,0,2,,,,,,,,,1,,,,77,0
24716,note_on,50,0,8,,,,,,,,,12,,,,60,0
24716,note_on,470,0,5,,,,,,,,,5,,,,53,0
24720,set_tempo,120,1,0,,,,,,355030,,,,,,,,
24720,note_on,10,0,6,,,,,,,,,10,,,,79,115
24721,note_on,50,0,9,,,,,,,,,13,,,,48,0
24722,note_on,50,0,3,,,,,,,,,3,,,,48,0
24723,note_on,10,0,1,,,,,,,,,0,,,,79,95
24723,note_on,10,0,7,,,,,,,,,11,,,,77,115
24723,note_on,50,0,10,,,,,,,,,14,,,,36,0
24724,note_on,10,0,4,,,,,,,,,4,,,,65,99
24725,note_on,0,0,2,,,,,,,,,1,,,,67,94
24725,note_on,10,0,2,,,,,,,,,1,,,,77,94
24726,note_on,10,0,5,,,,,,,,,5,,,,53,99
24726,note_on,10,0,8,,,,,,,,,12,,,,59,113
24731,note_on,10,0,9,,,,,,,,,13,,,,47,104
24732,note_on,10,0,3,,,,,,,,,3,,,,47,94
24733,note_on,10,0,10,,,,,,,,,14,,,,35,86
24740,note_on,20,0,6,,,,,,,,,10,,,,79,0
24743,note_on,20,0,7,,,,,,,,,11,,,,77,0
24746,note_on,20,0,8,,,,,,,,,12,,,,59,0
24750,note_on,10,0,6,,,,,,,,,10,,,,79,103
24751,note_on,20,0,9,,,,,,,,,13,,,,47,0
24753,note_on,20,0,10,,,,,,,,,14,,,,35,0
24753,note_on,10,0,7,,,,,,,,,11,,,,77,103
24756,note_on,10,0,8,,,,,,,,,12,,,,59,101
24761,note_on,10,0,9,,,,,,,,,13,,,,47,92
24763,note_on,10,0,10,,,,,,,,,14,,,,35,75
24770,note_on,20,0,6,,,,,,,,,10,,,,79,0
24773,note_on,20,0,7,,,,,,,,,11,,,,77,0
24776,note_on,20,0,8,,,,,,,,,12,,,,59,0
24780,note_on,10,0,6,,,,,,,,,10,,,,79,108
24781,note_on,20,0,9,,,,,,,,,13,,,,47,0
24783,note_on,20,0,10,,,,,,,,,14,,,,35,0
24783,note_on,10,0,7,,,,,,,,,11,,,,77,108
24786,note_on,10,0,8,,,,,,,,,12,,,,59,106
24791,note_on,10,0,9,,,,,,,,,13,,,,47,97
24793,note_on,10,0,10,,,,,,,,,14,,,,35,80
24800,note_on,20,0,6,,,,,,,,,10,,,,79,0
24803,note_on,20,0,7,,,,,,,,,11,,,,77,0
24806,note_on,20,0,8,,,,,,,,,12,,,,59,0
24810,note_on,10,0,6,,,,,,,,,10,,,,79,95
24811,note_on,20,0,9,,,,,,,,,13,,,,47,0
24813,note_on,10,0,7,,,,,,,,,11,,,,77,95
24813,note_on,20,0,10,,,,,,,,,14,,,,35,0
24816,note_on,10,0,8,,,,,,,,,12,,,,59,93
24821,note_on,10,0,9,,,,,,,,,13,,,,47,84
24823,note_on,10,0,10,,,,,,,,,14,,,,35,68
24830,note_on,20,0,6,,,,,,,,,10,,,,79,0
24833,note_on,20,0,7,,,,,,,,,11,,,,77,0
24836,note_on,20,0,8,,,,,,,,,12,,,,59,0
24840,set_tempo,120,1,0,,,,,,382166,,,,,,,,
24840,note_on,10,0,6,,,,,,,,,10,,,,79,100
24841,note_on,20,0,9,,,,,,,,,13,,,,47,0
24843,note_on,10,0,7,,,,,,,,,11,,,,77,100
24843,note_on,20,0,10,,,,,,,,,14,,,,35,0
24846,note_on,10,0,8,,,,,,,,,12,,,,59,98
24851,note_on,10,0,9,,,,,,,,,13,,,,47,89
24853,note_on,10,0,10,,,,,,,,,14,,,,35,73
24860,note_on,20,0,6,,,,,,,,,10,,,,79,0
24863,note_on,20,0,7,,,,,,,,,11,,,,77,0
24866,note_on,20,0,8,,,,,,,,,12,,,,59,0
24870,note_on,10,0,6,,,,,,,,,10,,,,79,92
24871,note_on,20,0,9,,,,,,,,,13,,,,47,0
24873,note_on,20,0,10,,,,,,,,,14,,,,35,0
24873,note_on,10,0,7,,,,,,,,,11,,,,77,92
24876,note_on,10,0,8,,,,,,,,,12,,,,59,90
24881,note_on,10,0,9,,,,,,,,,13,,,,47,81
24883,note_on,10,0,10,,,,,,,,,14,,,,35,65
24890,note_on,20,0,6,,,,,,,,,10,,,,79,0
24893,note_on,20,0,7,,,,,,,,,11,,,,77,0
24896,note_on,20,0,8,,,,,,,,,12,,,,59,0
24900,note_on,10,0,6,,,,,,,,,10,,,,79,100
24901,note_on,20,0,9,,,,,,,,,13,,,,47,0
24903,note_on,10,0,7,,,,,,,,,11,,,,77,100
24903,note_on,20,0,10,,,,,,,,,14,,,,35,0
24906,note_on,10,0,8,,,,,,,,,12,,,,59,98
24911,note_on,10,0,9,,,,,,,,,13,,,,47,89
24913,note_on,10,0,10,,,,,,,,,14,,,,35,73
24920,note_on,20,0,6,,,,,,,,,10,,,,79,0
24923,note_on,20,0,7,,,,,,,,,11,,,,77,0
24926,note_on,20,0,8,,,,,,,,,12,,,,59,0
24930,note_on,10,0,6,,,,,,,,,10,,,,79,92
24931,note_on,20,0,9,,,,,,,,,13,,,,47,0
24933,note_on,20,0,10,,,,,,,,,14,,,,35,0
24933,note_on,10,0,7,,,,,,,,,11,,,,77,92
24936,note_on,10,0,8,,,,,,,,,12,,,,59,90
24941,note_on,10,0,9,,,,,,,,,13,,,,47,81
24943,note_on,10,0,10,,,,,,,,,14,,,,35,65
24950,note_on,20,0,6,,,,,,,,,10,,,,79,0
24953,note_on,20,0,7,,,,,,,,,11,,,,77,0
24955,note_on,230,0,2,,,,,,,,,1,,,,77,0
24956,note_on,20,0,8,,,,,,,,,12,,,,59,0
24960,set_tempo,120,1,0,,,,,,355030,,,,,,,,
24960,note_on,10,0,6,,,,,,,,,10,,,,79,100
24961,note_on,20,0,9,,,,,,,,,13,,,,47,0
24962,note_on,230,0,3,,,,,,,,,3,,,,47,0
24963,note_on,10,0,7,,,,,,,,,11,,,,76,100
24963,note_on,20,0,10,,,,,,,,,14,,,,35,0
24964,note_on,240,0,4,,,,,,,,,4,,,,65,0
24964,note_on,0,0,4,,,,,,,,,4,,,,60,86
24965,note_on,10,0,2,,,,,,,,,1,,,,76,81
24966,note_on,0,0,5,,,,,,,,,5,,,,60,86
24966,note_on,240,0,5,,,,,,,,,5,,,,53,0
24966,note_on,10,0,8,,,,,,,,,12,,,,60,98
24971,note_on,10,0,9,,,,,,,,,13,,,,48,89
24972,note_on,10,0,3,,,,,,,,,3,,,,48,81
24973,note_on,10,0,10,,,,,,,,,14,,,,36,73
25016,note_on,50,0,8,,,,,,,,,12,,,,60,0
25021,note_on,50,0,9,,,,,,,,,13,,,,48,0
25022,note_on,50,0,3,,,,,,,,,3,,,,48,0
25023,note_on,50,0,10,,,,,,,,,14,,,,36,0
25026,note_on,10,0,8,,,,,,,,,12,,,,72,98
25031,note_on,10,0,9,,,,,,,,,13,,,,60,89
25032,note_on,10,0,3,,,,,,,,,3,,,,60,81
25033,note_on,10,0,10,,,,,,,,,14,,,,48,73
25060,note_on,100,0,6,,,,,,,,,10,,,,79,0
25063,note_on,100,0,7,,,,,,,,,11,,,,76,0
25064,note_on,100,0,4,,,,,,,,,4,,,,60,0
25065,note_on,100,0,2,,,,,,,,,1,,,,76,0
25066,note_on,100,0,5,,,,,,,,,5,,,,60,0
25073,note_on,350,0,1,,,,,,,,,0,,,,79,0
25075,note_on,10,0,2,,,,,,,,,1,,,,67,0
25076,note_on,50,0,8,,,,,,,,,12,,,,72,0
25080,set_tempo,120,1,0,,,,,,382166,,,,,,,,
25080,note_on,20,0,6,,,,,,,,,10,,,,67,70
25080,note_on,0,0,6,,,,,,,,,10,,,,72,70
25081,note_on,50,0,9,,,,,,,,,13,,,,60,0
25082,note_on,50,0,3,,,,,,,,,3,,,,60,0
25083,note_on,20,0,7,,,,,,,,,11,,,,72,70
25083,note_on,0,0,7,,,,,,,,,11,,,,67,70
25083,note_on,10,0,1,,,,,,,,,0,,,,88,82
25083,note_on,50,0,10,,,,,,,,,14,,,,48,0
25084,note_on,20,0,4,,,,,,,,,4,,,,60,86
25085,note_on,0,0,2,,,,,,,,,1,,,,76,81
25085,note_on,10,0,2,,,,,,,,,1,,,,67,81
25086,note_on,20,0,5,,,,,,,,,5,,,,60,86
25086,note_on,10,0,8,,,,,,,,,12,,,,70,98
25090,note_on,10,0,6,,,,,,,,,10,,,,76,100
25091,note_on,10,0,9,,,,,,,,,13,,,,58,89
25092,note_on,10,0,3,,,,,,,,,3,,,,58,81
25093,note_on,10,0,7,,,,,,,,,11,,,,76,100
25093,note_on,10,0,10,,,,,,,,,14,,,,46,73
25136,note_on,50,0,8,,,,,,,,,12,,,,70,0
25141,note_on,50,0,9,,,,,,,,,13,,,,58,0
25142,note_on,50,0,3,,,,,,,,,3,,,,58,0
25143,note_on,50,0,10,,,,,,,,,14,,,,46,0
25146,note_on,10,0,8,,,,,,,,,12,,,,72,98
25151,note_on,10,0,9,,,,,,,,,13,,,,60,89
25152,note_on,10,0,3,,,,,,,,,3,,,,60,81
25153,note_on,10,0,10,,,,,,,,,14,,,,48,73
25180,note_on,0,0,6,,,,,,,,,10,,,,67,0
25180,note_on,90,0,6,,,,,,,,,10,,,,72,0
25183,note_on,100,0,1,,,,,,,,,0,,,,88,0
25183,note_on,90,0,7,,,,,,,,,11,,,,67,0
25183,note_on,0,0,7,,,,,,,,,11,,,,72,0
25184,note_on,100,0,4,,,,,,,,,4,,,,60,0
25185,note_on,0,0,2,,,,,,,,,1,,,,67,0
25185,note_on,100,0,2,,,,,,,,,1,,,,76,0
25186,note_on,100,0,5,,,,,,,,,5,,,,60,0
25190,note_on,10,0,6,,,,,,,,,10,,,,76,0
25193,note_on,10,0,7,,,,,,,,,11,,,,76,0
25196,note_on,50,0,8,,,,,,,,,12,,,,72,0
25200,set_tempo,120,1,0,,,,,,360360,,,,,,,,
25200,note_on,10,0,6,,,,,,,,,10,,,,72,70
25200,note_on,0,0,6,,,,,,,,,10,,,,65,70
25201,note_on,50,0,9,,,,,,,,,13,,,,60,0
25202,note_on,50,0,3,,,,,,,,,3,,,,60,0
25203,note_on,50,0,10,,,,,,,,,14,,,,48,0
25203,note_on,0,0,7,,,,,,,,,11,,,,72,70
25203,note_on,20,0,1,,,,,,,,,0,,,,89,82
25203,note_on,10,0,7,,,,,,,,,11,,,,65,70
25204,note_on,20,0,4,,,,,,,,,4,,,,60,86
25205,note_on,0,0,2,,,,,,,,,1,,,,77,81
25205,note_on,20,0,2,,,,,,,,,1,,,,68,81
25206,note_on,20,0,5,,,,,,,,,5,,,,60,86
25206,note_on,10,0,8,,,,,,,,,12,,,,68,98
25210,note_on,10,0,6,,,,,,,,,10,,,,77,100
25211,note_on,10,0,9,,,,,,,,,13,,,,56,89
25212,note_on,10,0,3,,,,,,,,,3,,,,56,81
25213,note_on,10,0,7,,,,,,,,,11,,,,77,100
25213,note_on,10,0,10,,,,,,,,,14,,,,44,73
25256,note_on,50,0,8,,,,,,,,,12,,,,68,0
25261,note_on,50,0,9,,,,,,,,,13,,,,56,0
25262,note_on,50,0,3,,,,,,,,,3,,,,56,0
25263,note_on,50,0,10,,,,,,,,,14,,,,44,0
25266,note_on,10,0,8,,,,,,,,,12,,,,72,98
25271,note_on,10,0,9,,,,,,,,,13,,,,60,89
25272,note_on,10,0,3,,,,,,,,,3,,,,60,81
25273,note_on,10,0,10,,,,,,,,,14,,,,48,73
25300,note_on,0,0,6,,,,,,,,,10,,,,72,0
25300,note_on,90,0,6,,,,,,,,,10,,,,65,0
25303,note_on,100,0,1,,,,,,,,,0,,,,89,0
25303,note_on,0,0,7,,,,,,,,,11,,,,65,0
25303,note_on,90,0,7,,,,,,,,,11,,,,72,0
25304,note_on,100,0,4,,,,,,,,,4,,,,60,0
25305,note_on,100,0,2,,,,,,,,,1,,,,77,0
25305,note_on,0,0,2,,,,,,,,,1,,,,68,0
25306,note_on,100,0,5,,,,,,,,,5,,,,60,0
25310,note_on,10,0,6,,,,,,,,,10,,,,77,0
25313,note_on,10,0,7,,,,,,,,,11,,,,77,0
25316,note_on,50,0,8,,,,,,,,,12,,,,72,0
25320,set_tempo,120,1,0,,,,,,390879,,,,,,,,
25320,note_on,0,0,6,,,,,,,,,10,,,,65,70
25320,note_on,10,0,6,,,,,,,,,10,,,,72,70
25321,note_on,50,0,9,,,,,,,,,13,,,,60,0
25322,note_on,50,0,3,,,,,,,,,3,,,,60,0
25323,note_on,50,0,10,,,,,,,,,14,,,,48,0
25323,note_on,20,0,1,,,,,,,,,0,,,,80,82
25323,note_on,0,0,7,,,,,,,,,11,,,,65,70
25323,note_on,10,0,7,,,,,,,,,11,,,,72,70
25324,note_on,20,0,4,,,,,,,,,4,,,,60,86
25325,note_on,20,0,2,,,,,,,,,1,,,,77,81
25325,note_on,0,0,2,,,,,,,,,1,,,,68,81
25326,note_on,20,0,5,,,,,,,,,5,,,,60,86
25326,note_on,10,0,8,,,,,,,,,12,,,,68,98
25330,note_on,10,0,6,,,,,,,,,10,,,,80,100
25331,note_on,10,0,9,,,,,,,,,13,,,,56,89
25332,note_on,10,0,3,,,,,,,,,3,,,,56,81
25333,note_on,10,0,7,,,,,,,,,11,,,,80,100
25333,note_on,10,0,10,,,,,,,,,14,,,,44,73
25376,note_on,50,0,8,,,,,,,,,12,,,,68,0
25381,note_on,50,0,9,,,,,,,,,13,,,,56,0
25382,note_on,50,0,3,,,,,,,,,3,,,,56,0
25383,note_on,50,0,10,,,,,,,,,14,,,,44,0
25386,note_on,10,0,8,,,,,,,,,12,,,,65,98
25391,note_on,10,0,9,,,,,,,,,13,,,,53,89
25392,note_on,10,0,3,,,,,,,,,3,,,,53,81
25393,note_on,10,0,10,,,,,,,,,14,,,,41,73
25420,note_on,0,0,6,,,,,,,,,10,,,,72,0
25420,note_on,90,0,6,,,,,,,,,10,,,,65,0
25423,note_on,100,0,1,,,,,,,,,0,,,,80,0
25423,note_on,0,0,7,,,,,,,,,11,,,,72,0
25423,note_on,90,0,7,,,,,,,,,11,,,,65,0
25424,note_on,100,0,4,,,,,,,,,4,,,,60,0
25425,note_on,0,0,2,,,,,,,,,1,,,,77,0
25425,note_on,100,0,2,,,,,,,,,1,,,,68,0
25426,note_on,100,0,5,,,,,,,,,5,,,,60,0
25430,note_on,10,0,6,,,,,,,,,10,,,,80,0
25433,note_on,10,0,7,,,,,,,,,11,,,,80,0
25436,note_on,50,0,8,,,,,,,,,12,,,,65,0
25440,note_on,10,0,6,,,,,,,,,10,,,,64,70
25440,note_on,0,0,6,,,,,,,,,10,,,,72,70
25440,set_tempo,120,1,0,,,,,,369231,,,,,,,,
25441,note_on,50,0,9,,,,,,,,,13,,,,53,0
25442,note_on,50,0,3,,,,,,,,,3,,,,53,0
25443,note_on,0,0,7,,,,,,,,,11,,,,64,70
25443,note_on,10,0,7,,,,,,,,,11,,,,72,70
25443,note_on,20,0,1,,,,,,,,,0,,,,79,82
25443,note_on,50,0,10,,,,,,,,,14,,,,41,0
25444,note_on,20,0,4,,,,,,,,,4,,,,60,86
25445,note_on,20,0,2,,,,,,,,,1,,,,76,81
25445,note_on,0,0,2,,,,,,,,,1,,,,67,81
25446,note_on,20,0,5,,,,,,,,,5,,,,60,86
25446,note_on,10,0,8,,,,,,,,,12,,,,60,98
25450,note_on,10,0,6,,,,,,,,,10,,,,79,100
25451,note_on,10,0,9,,,,,,,,,13,,,,48,89
25452,note_on,10,0,3,,,,,,,,,3,,,,48,81
25453,note_on,10,0,10,,,,,,,,,14,,,,36,73
25453,note_on,10,0,7,,,,,,,,,11,,,,79,100
25496,note_on,50,0,8,,,,,,,,,12,,,,60,0
25501,note_on,50,0,9,,,,,,,,,13,,,,48,0
25502,note_on,50,0,3,,,,,,,,,3,,,,48,0
25503,note_on,50,0,10,,,,,,,,,14,,,,36,0
25506,note_on,10,0,8,,,,,,,,,12,,,,72,98
25511,note_on,10,0,9,,,,,,,,,13,,,,60,89
25512,note_on,10,0,3,,,,,,,,,3,,,,60,81
25513,note_on,10,0,10,,,,,,,,,14,,,,48,73
25540,note_on,90,0,6,,,,,,,,,10,,,,72,0
25540,note_on,0,0,6,,,,,,,,,10,,,,64,0
25543,note_on,0,0,7,,,,,,,,,11,,,,72,0
25543,note_on,100,0,1,,,,,,,,,0,,,,79,0
25543,note_on,90,0,7,,,,,,,,,11,,,,64,0
25544,note_on,100,0,4,,,,,,,,,4,,,,60,0
25545,note_on,0,0,2,,,,,,,,,1,,,,76,0
25545,note_on,100,0,2,,,,,,,,,1,,,,67,0
25546,note_on,100,0,5,,,,,,,,,5,,,,60,0
25550,note_on,10,0,6,,,,,,,,,10,,,,79,0
25553,note_on,10,0,7,,,,,,,,,11,,,,79,0
25556,note_on,50,0,8,,,,,,,,,12,,,,72,0
25560,note_on,0,0,6,,,,,,,,,10,,,,72,70
25560,note_on,10,0,6,,,,,,,,,10,,,,67,70
25560,set_tempo,120,1,0,,,,,,405405,,,,,,,,
25561,note_on,50,0,9,,,,,,,,,13,,,,60,0
25562,note_on,50,0,3,,,,,,,,,3,,,,60,0
25563,note_on,20,0,1,,,,,,,,,0,,,,88,82
25563,note_on,50,0,10,,,,,,,,,14,,,,48,0
25563,note_on,0,0,7,,,,,,,,,11,,,,72,70
25563,note_on,10,0,7,,,,,,,,,11,,,,67,70
25564,note_on,20,0,4,,,,,,,,,4,,,,60,86
25565,note_on,20,0,2,,,,,,,,,1,,,,76,81
25565,note_on,0,0,2,,,,,,,,,1,,,,67,81
25566,note_on,20,0,5,,,,,,,,,5,,,,60,86
25566,note_on,10,0,8,,,,,,,,,12,,,,70,98
25570,note_on,10,0,6,,,,,,,,,10,,,,76,100
25571,note_on,10,0,9,,,,,,,,,13,,,,58,89
25572,note_on,10,0,3,,,,,,,,,3,,,,58,81
25573,note_on,10,0,10,,,,,,,,,14,,,,46,73
25573,note_on,10,0,7,,,,,,,,,11,,,,76,100
25616,note_on,50,0,8,,,,,,,,,12,,,,70,0
25621,note_on,50,0,9,,,,,,,,,13,,,,58,0
25622,note_on,50,0,3,,,,,,,,,3,,,,58,0
25623,note_on,50,0,10,,,,,,,,,14,,,,46,0
25626,note_on,10,0,8,,,,,,,,,12,,,,72,98
25631,note_on,10,0,9,,,,,,,,,13,,,,60,89
25632,note_on,10,0,3,,,,,,,,,3,,,,60,81
25633,note_on,10,0,10,,,,,,,,,14,,,,48,73
25660,note_on,90,0,6,,,,,,,,,10,,,,72,0
25660,note_on,0,0,6,,,,,,,,,10,,,,67,0
25663,note_on,0,0,7,,,,,,,,,11,,,,67,0
25663,note_on,90,0,7,,,,,,,,,11,,,,72,0
25663,note_on,100,0,1,,,,,,,,,0,,,,88,0
25664,note_on,100,0,4,,,,,,,,,4,,,,60,0
25665,note_on,0,0,2,,,,,,,,,1,,,,76,0
25665,note_on,100,0,2,,,,,,,,,1,,,,67,0
25666,note_on,100,0,5,,,,,,,,,5,,,,60,0
25670,note_on,10,0,6,,,,,,,,,10,,,,76,0
25673,note_on,10,0,7,,,,,,,,,11,,,,76,0
25676,note_on,50,0,8,,,,,,,,,12,,,,72,0
25680,set_tempo,120,1,0,,,,,,380952,,,,,,,,
25680,note_on,10,0,6,,,,,,,,,10,,,,65,70
25680,note_on,0,0,6,,,,,,,,,10,,,,72,70
25681,note_on,50,0,9,,,,,,,,,13,,,,60,0
25682,note_on,50,0,3,,,,,,,,,3,,,,60,0
25683,note_on,10,0,7,,,,,,,,,11,,,,65,70
25683,note_on,0,0,7,,,,,,,,,11,,,,72,70
25683,note_on,20,0,1,,,,,,,,,0,,,,89,82
25683,note_on,50,0,10,,,,,,,,,14,,,,48,0
25684,note_on,20,0,4,,,,,,,,,4,,,,60,86
25685,note_on,20,0,2,,,,,,,,,1,,,,68,81
25685,note_on,0,0,2,,,,,,,,,1,,,,77,81
25686,note_on,10,0,8,,,,,,,,,12,,,,68,98
25686,note_on,20,0,5,,,,,,,,,5,,,,60,86
25690,note_on,10,0,6,,,,,,,,,10,,,,77,100
25691,note_on,10,0,9,,,,,,,,,13,,,,56,89
25692,note_on,10,0,3,,,,,,,,,3,,,,56,81
25693,note_on,10,0,10,,,,,,,,,14,,,,44,73
25693,note_on,10,0,7,,,,,,,,,11,,,,77,100
25736,note_on,50,0,8,,,,,,,,,12,,,,68,0
25741,note_on,50,0,9,,,,,,,,,13,,,,56,0
25742,note_on,50,0,3,,,,,,,,,3,,,,56,0
25743,note_on,50,0,10,,,,,,,,,14,,,,44,0
25746,note_on,10,0,8,,,,,,,,,12,,,,72,98
25751,note_on,10,0,9,,,,,,,,,13,,,,60,89
25752,note_on,10,0,3,,,,,,,,,3,,,,60,81
25753,note_on,10,0,10,,,,,,,,,14,,,,48,73
25780,note_on,90,0,6,,,,,,,,,10,,,,72,0
25780,note_on,0,0,6,,,,,,,,,10,,,,65,0
25783,note_on,100,0,1,,,,,,,,,0,,,,89,0
25783,note_on,0,0,7,,,,,,,,,11,,,,65,0
25783,note_on,90,0,7,,,,,,,,,11,,,,72,0
25784,note_on,100,0,4,,,,,,,,,4,,,,60,0
25785,note_on,100,0,2,,,,,,,,,1,,,,77,0
25785,note_on,0,0,2,,,,,,,,,1,,,,68,0
25786,note_on,100,0,5,,,,,,,,,5,,,,60,0
25790,note_on,10,0,6,,,,,,,,,10,,,,77,0
25793,note_on,10,0,7,,,,,,,,,11,,,,77,0
25796,note_on,50,0,8,,,,,,,,,12,,,,72,0
25800,note_on,10,0,6,,,,,,,,,10,,,,65,70
25800,note_on,0,0,6,,,,,,,,,10,,,,72,70
25800,set_tempo,120,1,0,,,,,,428571,,,,,,,,
25801,note_on,50,0,9,,,,,,,,,13,,,,60,0
25802,note_on,50,0,3,,,,,,,,,3,,,,60,0
25803,note_on,0,0,7,,,,,,,,,11,,,,72,70
25803,note_on,10,0,7,,,,,,,,,11,,,,65,70
25803,note_on,50,0,10,,,,,,,,,14,,,,48,0
25803,note_on,20,0,1,,,,,,,,,0,,,,80,82
25804,note_on,20,0,4,,,,,,,,,4,,,,60,86
25805,note_on,20,0,2,,,,,,,,,1,,,,68,81
25805,note_on,0,0,2,,,,,,,,,1,,,,77,81
25806,note_on,20,0,5,,,,,,,,,5,,,,60,86
25806,note_on,10,0,8,,,,,,,,,12,,,,68,98
25810,note_on,10,0,6,,,,,,,,,10,,,,80,100
25811,note_on,10,0,9,,,,,,,,,13,,,,56,89
25812,note_on,10,0,3,,,,,,,,,3,,,,56,81
25813,note_on,10,0,10,,,,,,,,,14,,,,44,73
25813,note_on,10,0,7,,,,,,,,,11,,,,80,100
25856,note_on,50,0,8,,,,,,,,,12,,,,68,0
25861,note_on,50,0,9,,,,,,,,,13,,,,56,0
25862,note_on,50,0,3,,,,,,,,,3,,,,56,0
25863,note_on,50,0,10,,,,,,,,,14,,,,44,0
25866,note_on,10,0,8,,,,,,,,,12,,,,65,98
25871,note_on,10,0,9,,,,,,,,,13,,,,53,89
25872,note_on,10,0,3,,,,,,,,,3,,,,53,81
25873,note_on,10,0,10,,,,,,,,,14,,,,41,73
25900,note_on,0,0,6,,,,,,,,,10,,,,65,0
25900,note_on,90,0,6,,,,,,,,,10,,,,72,0
25903,note_on,100,0,1,,,,,,,,,0,,,,80,0
25903,note_on,90,0,7,,,,,,,,,11,,,,72,0
25903,note_on,0,0,7,,,,,,,,,11,,,,65,0
25904,note_on,100,0,4,,,,,,,,,4,,,,60,0
25905,note_on,0,0,2,,,,,,,,,1,,,,68,0
25905,note_on,100,0,2,,,,,,,,,1,,,,77,0
25906,note_on,100,0,5,,,,,,,,,5,,,,60,0
25910,note_on,10,0,6,,,,,,,,,10,,,,80,0
25913,note_on,10,0,7,,,,,,,,,11,,,,80,0
25916,note_on,50,0,8,,,,,,,,,12,,,,65,0
25920,note_on,0,0,6,,,,,,,,,10,,,,72,70
25920,note_on,10,0,6,,,,,,,,,10,,,,67,70
25920,set_tempo,120,1,0,,,,,,500000,,,,,,,,
25921,note_on,50,0,9,,,,,,,,,13,,,,53,0
25922,note_on,50,0,3,,,,,,,,,3,,,,53,0
25923,note_on,20,0,1,,,,,,,,,0,,,,79,82
25923,note_on,50,0,10,,,,,,,,,14,,,,41,0
25923,note_on,0,0,7,,,,,,,,,11,,,,72,70
25923,note_on,10,0,7,,,,,,,,,11,,,,64,70
25924,note_on,20,0,4,,,,,,,,,4,,,,60,86
25925,note_on,0,0,2,,,,,,,,,1,,,,67,81
25925,note_on,20,0,2,,,,,,,,,1,,,,76,81
25926,note_on,20,0,5,,,,,,,,,5,,,,60,86
25926,note_on,10,0,8,,,,,,,,,12,,,,60,98
25930,note_on,10,0,6,,,,,,,,,10,,,,84,100
25931,note_on,10,0,9,,,,,,,,,13,,,,48,89
25932,note_on,10,0,3,,,,,,,,,3,,,,48,81
25933,note_on,10,0,10,,,,,,,,,14,,,,36,73
25933,note_on,10,0,7,,,,,,,,,11,,,,79,100
26040,note_on,110,0,6,,,,,,,,,10,,,,72,0
26040,note_on,0,0,6,,,,,,,,,10,,,,67,0
26040,set_tempo,120,1,0,,,,,,1000000,,,,,,,,
26043,note_on,110,0,7,,,,,,,,,11,,,,72,0
26043,note_on,0,0,7,,,,,,,,,11,,,,64,0
26043,note_on,120,0,1,,,,,,,,,0,,,,79,0
26044,note_on,120,0,4,,,,,,,,,4,,,,60,0
26045,note_on,120,0,2,,,,,,,,,1,,,,67,0
26045,note_on,0,0,2,,,,,,,,,1,,,,76,0
26046,note_on,120,0,5,,,,,,,,,5,,,,60,0
26046,note_on,120,0,8,,,,,,,,,12,,,,60,0
26050,note_on,10,0,6,,,,,,,,,10,,,,84,0
26051,note_on,120,0,9,,,,,,,,,13,,,,48,0
26052,note_on,120,0,3,,,,,,,,,3,,,,48,0
26053,note_on,120,0,10,,,,,,,,,14,,,,36,0
26053,note_on,10,0,7,,,,,,,,,11,,,,79,0
26160,note_on,0,0,6,,,,,,,,,10,,,,81,100
26160,set_tempo,120,1,0,,,,,,415225,,,,,,,,
26160,control_change,110,0,6,,,,,,,,,10,11,22,,,
26163,control_change,110,0,7,,,,,,,,,11,11,47,,,
26163,note_on,0,0,7,,,,,,,,,11,,,,69,100
26166,control_change,120,0,8,,,,,,,,,12,11,47,,,
26166,note_on,0,0,8,,,,,,,,,12,,,,53,62
26171,note_on,0,0,9,,,,,,,,,13,,,,53,43
26171,control_change,120,0,9,,,,,,,,,13,11,47,,,
26173,control_change,120,0,10,,,,,,,,,14,11,47,,,
26173,note_on,0,0,10,,,,,,,,,14,,,,41,31
26174,control_change,14,0,6,,,,,,,,,10,11,25,,,
26188,control_change,14,0,6,,,,,,,,,10,11,28,,,
26203,control_change,15,0,6,,,,,,,,,10,11,31,,,
26217,control_change,14,0,6,,,,,,,,,10,11,34,,,
26223,note_on,60,0,7,,,,,,,,,11,,,,69,0
26223,note_on,0,0,7,,,,,,,,,11,,,,72,100
26232,control_change,15,0,6,,,,,,,,,10,11,37,,,
26246,control_change,14,0,6,,,,,,,,,10,11,40,,,
26260,control_change,14,0,6,,,,,,,,,10,11,43,,,
26273,note_on,50,0,7,,,,,,,,,11,,,,72,0
26275,control_change,15,0,6,,,,,,,,,10,11,46,,,
26280,set_tempo,120,1,0,,,,,,379747,,,,,,,,
26283,note_on,10,0,7,,,,,,,,,11,,,,72,100
26286,note_on,120,0,8,,,,,,,,,12,,,,53,0
26291,note_on,120,0,9,,,,,,,,,13,,,,53,0
26293,note_on,120,0,10,,,,,,,,,14,,,,41,0
26313,note_on,30,0,7,,,,,,,,,11,,,,72,0
26343,note_on,30,0,7,,,,,,,,,11,,,,72,100
26373,note_on,30,0,7,,,,,,,,,11,,,,72,0
26400,note_on,125,0,6,,,,,,,,,10,,,,81,0
26400,set_tempo,120,1,0,,,,,,389610,,,,,,,,
26400,note_on,0,0,6,,,,,,,,,10,,,,84,100
26403,note_on,30,0,7,,,,,,,,,11,,,,70,100
26406,note_on,120,0,8,,,,,,,,,12,,,,55,62
26411,note_on,120,0,9,,,,,,,,,13,,,,55,43
26413,note_on,120,0,10,,,,,,,,,14,,,,43,31
26460,note_on,0,0,6,,,,,,,,,10,,,,82,100
26460,note_on,60,0,6,,,,,,,,,10,,,,84,0
26463,note_on,60,0,7,,,,,,,,,11,,,,70,0
26463,note_on,0,0,7,,,,,,,,,11,,,,72,100
26513,note_on,50,0,7,,,,,,,,,11,,,,72,0
26520,set_tempo,120,1,0,,,,,,372671,,,,,,,,
26520,note_on,0,0,6,,,,,,,,,10,,,,74,100
26520,note_on,60,0,6,,,,,,,,,10,,,,82,0
26523,note_on,10,0,7,,,,,,,,,11,,,,72,100
26526,note_on,120,0,8,,,,,,,,,12,,,,55,0
26531,note_on,120,0,9,,,,,,,,,13,,,,55,0
26533,note_on,120,0,10,,,,,,,,,14,,,,43,0
26553,note_on,30,0,7,,,,,,,,,11,,,,72,0
26580,note_on,60,0,6,,,,,,,,,10,,,,74,0
26580,note_on,0,0,6,,,,,,,,,10,,,,76,100
26583,note_on,30,0,7,,,,,,,,,11,,,,72,100
26613,note_on,30,0,7,,,,,,,,,11,,,,72,0
26630,note_on,50,0,6,,,,,,,,,10,,,,76,0
26640,set_tempo,120,1,0,,,,,,389610,,,,,,,,
26640,note_on,10,0,6,,,,,,,,,10,,,,79,100
26643,note_on,30,0,7,,,,,,,,,11,,,,65,100
26646,note_on,120,0,8,,,,,,,,,12,,,,57,62
26651,note_on,120,0,9,,,,,,,,,13,,,,57,43
26653,note_on,120,0,10,,,,,,,,,14,,,,45,31
26700,note_on,0,0,6,,,,,,,,,10,,,,77,100
26700,note_on,60,0,6,,,,,,,,,10,,,,79,0
26703,note_on,60,0,7,,,,,,,,,11,,,,65,0
26703,note_on,0,0,7,,,,,,,,,11,,,,72,100
26753,note_on,50,0,7,,,,,,,,,11,,,,72,0
26760,note_on,0,0,6,,,,,,,,,10,,,,76,100
26760,set_tempo,120,1,0,,,,,,372671,,,,,,,,
26760,note_on,60,0,6,,,,,,,,,10,,,,77,0
26763,note_on,10,0,7,,,,,,,,,11,,,,72,100
26766,note_on,120,0,8,,,,,,,,,12,,,,57,0
26771,note_on,120,0,9,,,,,,,,,13,,,,57,0
26773,note_on,120,0,10,,,,,,,,,14,,,,45,0
26793,note_on,30,0,7,,,,,,,,,11,,,,72,0
26820,note_on,0,0,6,,,,,,,,,10,,,,74,100
26820,note_on,60,0,6,,,,,,,,,10,,,,76,0
26823,note_on,30,0,7,,,,,,,,,11,,,,72,100
26853,note_on,30,0,7,,,,,,,,,11,,,,72,0
26870,note_on,50,0,6,,,,,,,,,10,,,,74,0
26880,note_on,10,0,6,,,,,,,,,10,,,,72,100
26880,set_tempo,120,1,0,,,,,,389610,,,,,,,,
26883,note_on,30,0,7,,,,,,,,,11,,,,64,100
26886,note_on,120,0,8,,,,,,,,,12,,,,60,62
26891,note_on,120,0,9,,,,,,,,,13,,,,60,43
26893,note_on,120,0,10,,,,,,,,,14,,,,48,31
26943,note_on,60,0,7,,,,,,,,,11,,,,64,0
26943,note_on,0,0,7,,,,,,,,,11,,,,72,100
26993,note_on,50,0,7,,,,,,,,,11,,,,72,0
27000,set_tempo,120,1,0,,,,,,372671,,,,,,,,
27000,note_on,120,0,6,,,,,,,,,10,,,,72,0
27000,note_on,0,0,6,,,,,,,,,10,,,,74,100
27003,note_on,10,0,7,,,,,,,,,11,,,,72,100
27006,note_on,120,0,8,,,,,,,,,12,,,,60,0
27011,note_on,120,0,9,,,,,,,,,13,,,,60,0
27013,note_on,120,0,10,,,,,,,,,14,,,,48,0
27030,note_on,0,0,6,,,,,,,,,10,,,,76,100
27030,note_on,30,0,6,,,,,,,,,10,,,,74,0
27033,note_on,30,0,7,,,,,,,,,11,,,,72,0
27060,note_on,0,0,6,,,,,,,,,10,,,,77,100
27060,note_on,30,0,6,,,,,,,,,10,,,,76,0
27063,note_on,30,0,7,,,,,,,,,11,,,,72,100
27090,note_on,30,0,6,,,,,,,,,10,,,,77,0
27090,note_on,0,0,6,,,,,,,,,10,,,,79,100
27093,note_on,30,0,7,,,,,,,,,11,,,,72,0
27110,note_on,20,0,6,,,,,,,,,10,,,,79,0
27120,set_tempo,120,1,0,,,,,,389610,,,,,,,,
27120,note_on,10,0,6,,,,,,,,,10,,,,81,100
27123,note_on,30,0,7,,,,,,,,,11,,,,69,100
27126,note_on,120,0,8,,,,,,,,,12,,,,53,62
27131,note_on,120,0,9,,,,,,,,,13,,,,53,43
27133,note_on,120,0,10,,,,,,,,,14,,,,41,31
27183,note_on,60,0,7,,,,,,,,,11,,,,69,0
27183,note_on,0,0,7,,,,,,,,,11,,,,72,100
27233,note_on,50,0,7,,,,,,,,,11,,,,72,0
27240,set_tempo,120,1,0,,,,,,372671,,,,,,,,
27243,note_on,10,0,7,,,,,,,,,11,,,,72,100
27246,note_on,120,0,8,,,,,,,,,12,,,,53,0
27251,note_on,120,0,9,,,,,,,,,13,,,,53,0
27253,note_on,120,0,10,,,,,,,,,14,,,,41,0
27273,note_on,30,0,7,,,,,,,,,11,,,,72,0
27303,note_on,30,0,7,,,,,,,,,11,,,,72,100
27333,note_on,30,0,7,,,,,,,,,11,,,,72,0
27350,note_on,230,0,6,,,,,,,,,10,,,,81,0
27360,set_tempo,120,1,0,,,,,,389610,,,,,,,,
27360,note_on,10,0,6,,,,,,,,,10,,,,84,100
27363,note_on,30,0,7,,,,,,,,,11,,,,70,100
27366,note_on,120,0,8,,,,,,,,,12,,,,55,62
27371,note_on,120,0,9,,,,,,,,,13,,,,55,43
27373,note_on,120,0,10,,,,,,,,,14,,,,43,31
27420,note_on,60,0,6,,,,,,,,,10,,,,84,0
27420,note_on,0,0,6,,,,,,,,,10,,,,82,100
27423,note_on,60,0,7,,,,,,,,,11,,,,70,0
27423,note_on,0,0,7,,,,,,,,,11,,,,72,100
27473,note_on,50,0,7,,,,,,,,,11,,,,72,0
27480,set_tempo,120,1,0,,,,,,372671,,,,,,,,
27480,note_on,60,0,6,,,,,,,,,10,,,,82,0
27480,note_on,0,0,6,,,,,,,,,10,,,,74,100
27483,note_on,10,0,7,,,,,,,,,11,,,,72,100
27486,note_on,120,0,8,,,,,,,,,12,,,,55,0
27491,note_on,120,0,9,,,,,,,,,13,,,,55,0
27493,note_on,120,0,10,,,,,,,,,14,,,,43,0
27513,note_on,30,0,7,,,,,,,,,11,,,,72,0
27540,note_on,60,0,6,,,,,,,,,10,,,,74,0
27540,note_on,0,0,6,,,,,,,,,10,,,,76,100
27543,note_on,30,0,7,,,,,,,,,11,,,,72,100
27573,note_on,30,0,7,,,,,,,,,11,,,,72,0
27590,note_on,50,0,6,,,,,,,,,10,,,,76,0
27600,note_on,10,0,6,,,,,,,,,10,,,,79,100
27600,set_tempo,120,1,0,,,,,,389610,,,,,,,,
27603,note_on,30,0,7,,,,,,,,,11,,,,65,100
27606,note_on,120,0,8,,,,,,,,,12,,,,57,62
27611,note_on,120,0,9,,,,,,,,,13,,,,57,43
27613,note_on,120,0,10,,,,,,,,,14,,,,45,31
27660,note_on,0,0,6,,,,,,,,,10,,,,77,100
27660,note_on,60,0,6,,,,,,,,,10,,,,79,0
27663,note_on,0,0,7,,,,,,,,,11,,,,72,100
27663,note_on,60,0,7,,,,,,,,,11,,,,65,0
27713,note_on,50,0,7,,,,,,,,,11,,,,72,0
27720,note_on,0,0,6,,,,,,,,,10,,,,76,100
27720,set_tempo,120,1,0,,,,,,372671,,,,,,,,
27720,note_on,60,0,6,,,,,,,,,10,,,,77,0
27723,note_on,10,0,7,,,,,,,,,11,,,,72,100
27726,note_on,120,0,8,,,,,,,,,12,,,,57,0
27731,note_on,120,0,9,,,,,,,,,13,,,,57,0
27733,note_on,120,0,10,,,,,,,,,14,,,,45,0
27753,note_on,30,0,7,,,,,,,,,11,,,,72,0
27760,note_on,40,0,6,,,,,,,,,10,,,,76,0
27760,note_on,0,0,6,,,,,,,,,10,,,,77,100
27783,note_on,30,0,7,,,,,,,,,11,,,,72,100
27800,note_on,0,0,6,,,,,,,,,10,,,,74,100
27800,note_on,40,0,6,,,,,,,,,10,,,,77,0
27813,note_on,30,0,7,,,,,,,,,11,,,,72,0
27830,note_on,30,0,6,,,,,,,,,10,,,,74,0
27840,note_on,10,0,6,,,,,,,,,10,,,,72,100
27840,set_tempo,120,1,0,,,,,,413793,,,,,,,,
27843,note_on,30,0,7,,,,,,,,,11,,,,64,100
27846,note_on,120,0,8,,,,,,,,,12,,,,60,62
27851,note_on,120,0,9,,,,,,,,,13,,,,60,43
27853,note_on,120,0,10,,,,,,,,,14,,,,48,31
27903,note_on,0,0,7,,,,,,,,,11,,,,72,100
27903,note_on,60,0,7,,,,,,,,,11,,,,64,0
27953,note_on,50,0,7,,,,,,,,,11,,,,72,0
27960,set_tempo,120,1,0,,,,,,372671,,,,,,,,
27963,note_on,10,0,7,,,,,,,,,11,,,,72,100
27966,note_on,120,0,8,,,,,,,,,12,,,,60,0
27971,note_on,120,0,9,,,,,,,,,13,,,,60,0
27973,note_on,120,0,10,,,,,,,,,14,,,,48,0
27993,note_on,30,0,7,,,,,,,,,11,,,,72,0
28023,note_on,30,0,7,,,,,,,,,11,,,,72,100
28053,note_on,30,0,7,,,,,,,,,11,,,,72,0
28070,note_on,230,0,6,,,,,,,,,10,,,,72,0
28080,note_on,0,0,6,,,,,,,,,10,,,,72,80
28080,set_tempo,120,1,0,,,,,,389610,,,,,,,,
28080,control_change,10,0,6,,,,,,,,,10,11,47,,,
28083,note_on,0,0,7,,,,,,,,,11,,,,60,80
28083,control_change,30,0,7,,,,,,,,,11,11,47,,,
28085,control_change,2040,0,2,,,,,,,,,1,11,47,,,
28085,note_on,0,0,2,,,,,,,,,1,,,,72,81
28085,note_on,0,0,2,,,,,,,,,1,,,,81,81
28086,control_change,120,0,8,,,,,,,,,12,11,47,,,
28086,note_on,0,0,8,,,,,,,,,12,,,,65,62
28091,note_on,0,0,9,,,,,,,,,13,,,,53,43
28091,control_change,120,0,9,,,,,,,,,13,11,47,,,
28092,control_change,2040,0,3,,,,,,,,,3,11,47,,,
28092,note_on,0,0,3,,,,,,,,,3,,,,65,81
28093,control_change,120,0,10,,,,,,,,,14,11,47,,,
28093,note_on,0,0,10,,,,,,,,,14,,,,41,31
28111,control_change,31,0,6,,,,,,,,,10,11,48,,,
28114,control_change,31,0,7,,,,,,,,,11,11,48,,,
28117,control_change,31,0,8,,,,,,,,,12,11,48,,,
28122,control_change,31,0,9,,,,,,,,,13,11,48,,,
28124,control_change,31,0,10,,,,,,,,,14,11,48,,,
28140,note_on,29,0,6,,,,,,,,,10,,,,72,0
28140,note_on,0,0,6,,,,,,,,,10,,,,81,80
28143,note_on,0,0,7,,,,,,,,,11,,,,69,80
28143,note_on,29,0,7,,,,,,,,,11,,,,60,0
28143,control_change,3,0,6,,,,,,,,,10,11,49,,,
28146,control_change,3,0,7,,,,,,,,,11,11,49,,,
28149,control_change,32,0,8,,,,,,,,,12,11,49,,,
28154,control_change,32,0,9,,,,,,,,,13,11,49,,,
28156,control_change,32,0,10,,,,,,,,,14,11,49,,,
28175,control_change,32,0,6,,,,,,,,,10,11,50,,,
28178,control_change,32,0,7,,,,,,,,,11,11,50,,,
28181,control_change,32,0,8,,,,,,,,,12,11,50,,,
28186,control_change,32,0,9,,,,,,,,,13,11,50,,,
28188,control_change,32,0,10,,,,,,,,,14,11,50,,,
28190,note_on,15,0,6,,,,,,,,,10,,,,81,0
28193,note_on,15,0,7,,,,,,,,,11,,,,69,0
28200,note_on,10,0,6,,,,,,,,,10,,,,81,80
28200,set_tempo,120,1,0,,,,,,372671,,,,,,,,
28203,note_on,10,0,7,,,,,,,,,11,,,,69,80
28206,note_on,25,0,8,,,,,,,,,12,,,,65,0
28207,control_change,7,0,6,,,,,,,,,10,11,51,,,
28210,control_change,7,0,7,,,,,,,,,11,11,51,,,
28211,note_on,25,0,9,,,,,,,,,13,,,,53,0
28213,note_on,25,0,10,,,,,,,,,14,,,,41,0
28213,control_change,7,0,8,,,,,,,,,12,11,51,,,
28218,control_change,7,0,9,,,,,,,,,13,11,51,,,
28220,control_change,7,0,10,,,,,,,,,14,11,51,,,
28230,note_on,23,0,6,,,,,,,,,10,,,,81,0
28233,note_on,23,0,7,,,,,,,,,11,,,,69,0
28239,control_change,9,0,6,,,,,,,,,10,11,52,,,
28242,control_change,9,0,7,,,,,,,,,11,11,52,,,
28245,control_change,32,0,8,,,,,,,,,12,11,52,,,
28250,control_change,32,0,9,,,,,,,,,13,11,52,,,
28252,control_change,32,0,10,,,,,,,,,14,11,52,,,
28260,note_on,21,0,6,,,,,,,,,10,,,,81,80
28263,note_on,21,0,7,,,,,,,,,11,,,,69,80
28271,control_change,11,0,6,,,,,,,,,10,11,53,,,
28274,control_change,11,0,7,,,,,,,,,11,11,53,,,
28277,control_change,32,0,8,,,,,,,,,12,11,53,,,
28282,control_change,32,0,9,,,,,,,,,13,11,53,,,
28284,control_change,32,0,10,,,,,,,,,14,11,53,,,
28290,note_on,19,0,6,,,,,,,,,10,,,,81,0
28293,note_on,19,0,7,,,,,,,,,11,,,,69,0
28303,control_change,13,0,6,,,,,,,,,10,11,54,,,
28306,control_change,13,0,7,,,,,,,,,11,11,54,,,
28309,control_change,32,0,8,,,,,,,,,12,11,54,,,
28314,control_change,32,0,9,,,,,,,,,13,11,54,,,
28316,control_change,32,0,10,,,,,,,,,14,11,54,,,
28320,set_tempo,120,1,0,,,,,,389610,,,,,,,,
28320,note_on,17,0,6,,,,,,,,,10,,,,81,80
28323,note_on,17,0,7,,,,,,,,,11,,,,69,80
28325,note_on,240,0,2,,,,,,,,,1,,,,81,0
28325,note_on,0,0,2,,,,,,,,,1,,,,79,81
28326,note_on,17,0,8,,,,,,,,,12,,,,64,62
28331,note_on,17,0,9,,,,,,,,,13,,,,52,43
28332,note_on,240,0,3,,,,,,,,,3,,,,65,0
28332,note_on,0,0,3,,,,,,,,,3,,,,64,81
28333,note_on,17,0,10,,,,,,,,,14,,,,40,31
28335,control_change,15,0,6,,,,,,,,,10,11,55,,,
28338,control_change,15,0,7,,,,,,,,,11,11,55,,,
28341,control_change,15,0,8,,,,,,,,,12,11,55,,,
28346,control_change,15,0,9,,,,,,,,,13,11,55,,,
28348,control_change,15,0,10,,,,,,,,,14,11,55,,,
28367,control_change,32,0,6,,,,,,,,,10,11,56,,,
28370,control_change,32,0,7,,,,,,,,,11,11,56,,,
28373,control_change,32,0,8,,,,,,,,,12,11,56,,,
28378,control_change,32,0,9,,,,,,,,,13,11,56,,,
28380,control_change,32,0,10,,,,,,,,,14,11,56,,,
28380,note_on,13,0,6,,,,,,,,,10,,,,81,0
28380,note_on,0,0,6,,,,,,,,,10,,,,79,80
28383,note_on,13,0,7,,,,,,,,,11,,,,69,0
28383,note_on,0,0,7,,,,,,,,,11,,,,67,80
28399,control_change,19,0,6,,,,,,,,,10,11,57,,,
28402,control_change,19,0,7,,,,,,,,,11,11,57,,,
28405,control_change,32,0,8,,,,,,,,,12,11,57,,,
28410,control_change,32,0,9,,,,,,,,,13,11,57,,,
28412,control_change,32,0,10,,,,,,,,,14,11,57,,,
28430,note_on,31,0,6,,,,,,,,,10,,,,79,0
28431,control_change,1,0,6,,,,,,,,,10,11,58,,,
28433,note_on,31,0,7,,,,,,,,,11,,,,67,0
28434,control_change,1,0,7,,,,,,,,,11,11,58,,,
28437,control_change,32,0,8,,,,,,,,,12,11,58,,,
28440,note_on,9,0,6,,,,,,,,,10,,,,76,80
28440,set_tempo,120,1,0,,,,,,372671,,,,,,,,
28442,control_change,32,0,9,,,,,,,,,13,11,58,,,
28443,note_on,9,0,7,,,,,,,,,11,,,,64,80
28444,control_change,32,0,10,,,,,,,,,14,11,58,,,
28446,note_on,9,0,8,,,,,,,,,12,,,,64,0
28451,note_on,9,0,9,,,,,,,,,13,,,,52,0
28453,note_on,9,0,10,,,,,,,,,14,,,,40,0
28463,control_change,23,0,6,,,,,,,,,10,11,59,,,
28466,control_change,23,0,7,,,,,,,,,11,11,59,,,
28469,control_change,23,0,8,,,,,,,,,12,11,59,,,
28470,note_on,7,0,6,,,,,,,,,10,,,,76,0
28473,note_on,7,0,7,,,,,,,,,11,,,,64,0
28474,control_change,23,0,9,,,,,,,,,13,11,59,,,
28476,control_change,23,0,10,,,,,,,,,14,11,59,,,
28495,control_change,25,0,6,,,,,,,,,10,11,60,,,
28498,control_change,25,0,7,,,,,,,,,11,11,60,,,
28500,note_on,5,0,6,,,,,,,,,10,,,,72,80
28501,control_change,32,0,8,,,,,,,,,12,11,60,,,
28503,note_on,5,0,7,,,,,,,,,11,,,,60,80
28506,control_change,32,0,9,,,,,,,,,13,11,60,,,
28508,control_change,32,0,10,,,,,,,,,14,11,60,,,
28527,control_change,27,0,6,,,,,,,,,10,11,61,,,
28530,control_change,27,0,7,,,,,,,,,11,11,61,,,
28530,note_on,3,0,6,,,,,,,,,10,,,,72,0
28533,note_on,3,0,7,,,,,,,,,11,,,,60,0
28533,control_change,32,0,8,,,,,,,,,12,11,61,,,
28538,control_change,32,0,9,,,,,,,,,13,11,61,,,
28540,control_change,32,0,10,,,,,,,,,14,11,61,,,
28559,control_change,29,0,6,,,,,,,,,10,11,62,,,
28560,set_tempo,120,1,0,,,,,,389610,,,,,,,,
28560,note_on,1,0,6,,,,,,,,,10,,,,72,80
28562,control_change,29,0,7,,,,,,,,,11,11,62,,,
28563,note_on,1,0,7,,,,,,,,,11,,,,60,80
28565,note_on,0,0,2,,,,,,,,,1,,,,77,81
28565,control_change,32,0,8,,,,,,,,,12,11,62,,,
28565,note_on,240,0,2,,,,,,,,,1,,,,79,0
28566,note_on,1,0,8,,,,,,,,,12,,,,62,78
28570,control_change,32,0,9,,,,,,,,,13,11,62,,,
28571,note_on,1,0,9,,,,,,,,,13,,,,50,57
28572,note_on,0,0,3,,,,,,,,,3,,,,62,81
28572,control_change,32,0,10,,,,,,,,,14,11,62,,,
28572,note_on,240,0,3,,,,,,,,,3,,,,64,0
28573,note_on,1,0,10,,,,,,,,,14,,,,38,44
28575,control_change,15,0,6,,,,,,,,,10,11,61,,,
28578,control_change,15,0,7,,,,,,,,,11,11,61,,,
28581,control_change,15,0,8,,,,,,,,,12,11,61,,,
28586,control_change,15,0,9,,,,,,,,,13,11,61,,,
28588,control_change,15,0,10,,,,,,,,,14,11,61,,,
28591,control_change,16,0,6,,,,,,,,,10,11,60,,,
28594,control_change,16,0,7,,,,,,,,,11,11,60,,,
28597,control_change,16,0,8,,,,,,,,,12,11,60,,,
28602,control_change,16,0,9,,,,,,,,,13,11,60,,,
28604,control_change,16,0,10,,,,,,,,,14,11,60,,,
28607,control_change,16,0,6,,,,,,,,,10,11,59,,,
28610,control_change,16,0,7,,,,,,,,,11,11,59,,,
28613,control_change,16,0,8,,,,,,,,,12,11,59,,,
28618,control_change,16,0,9,,,,,,,,,13,11,59,,,
28620,control_change,16,0,10,,,,,,,,,14,11,59,,,
28620,note_on,13,0,6,,,,,,,,,10,,,,72,0
28620,note_on,0,0,6,,,,,,,,,10,,,,71,80
28623,note_on,13,0,7,,,,,,,,,11,,,,60,0
28623,note_on,0,0,7,,,,,,,,,11,,,,59,80
28623,control_change,3,0,6,,,,,,,,,10,11,58,,,
28625,note_on,0,0,2,,,,,,,,,1,,,,71,81
28625,note_on,60,0,2,,,,,,,,,1,,,,72,0
28626,control_change,3,0,7,,,,,,,,,11,11,58,,,
28629,control_change,16,0,8,,,,,,,,,12,11,58,,,
28634,control_change,16,0,9,,,,,,,,,13,11,58,,,
28636,control_change,16,0,10,,,,,,,,,14,11,58,,,
28639,control_change,16,0,6,,,,,,,,,10,11,57,,,
28642,control_change,16,0,7,,,,,,,,,11,11,57,,,
28645,control_change,16,0,8,,,,,,,,,12,11,57,,,
28650,control_change,16,0,9,,,,,,,,,13,11,57,,,
28652,control_change,16,0,10,,,,,,,,,14,11,57,,,
28655,control_change,16,0,6,,,,,,,,,10,11,56,,,
28658,control_change,16,0,7,,,,,,,,,11,11,56,,,
28661,control_change,16,0,8,,,,,,,,,12,11,56,,,
28666,control_change,16,0,9,,,,,,,,,13,11,56,,,
28668,control_change,16,0,10,,,,,,,,,14,11,56,,,
28671,control_change,16,0,6,,,,,,,,,10,11,55,,,
28674,control_change,16,0,7,,,,,,,,,11,11,55,,,
28677,control_change,16,0,8,,,,,,,,,12,11,55,,,
28680,note_on,0,0,6,,,,,,,,,10,,,,74,80
28680,note_on,9,0,6,,,,,,,,,10,,,,71,0
28680,set_tempo,120,1,0,,,,,,372671,,,,,,,,
28682,control_change,16,0,9,,,,,,,,,13,11,55,,,
28683,note_on,0,0,7,,,,,,,,,11,,,,62,80
28683,note_on,9,0,7,,,,,,,,,11,,,,59,0
28684,control_change,16,0,10,,,,,,,,,14,11,55,,,
28685,note_on,60,0,2,,,,,,,,,1,,,,71,0
28685,note_on,0,0,2,,,,,,,,,1,,,,69,81
28686,note_on,9,0,8,,,,,,,,,12,,,,62,0
28686,note_on,0,0,8,,,,,,,,,12,,,,55,78
28687,control_change,7,0,6,,,,,,,,,10,11,54,,,
28690,control_change,7,0,7,,,,,,,,,11,11,54,,,
28691,note_on,0,0,9,,,,,,,,,13,,,,43,57
28691,note_on,9,0,9,,,,,,,,,13,,,,50,0
28692,note_on,0,0,3,,,,,,,,,3,,,,55,81
28692,note_on,120,0,3,,,,,,,,,3,,,,62,0
28693,note_on,9,0,10,,,,,,,,,14,,,,38,0
28693,control_change,7,0,8,,,,,,,,,12,11,54,,,
28693,note_on,0,0,10,,,,,,,,,14,,,,31,44
28698,control_change,7,0,9,,,,,,,,,13,11,54,,,
28700,control_change,7,0,10,,,,,,,,,14,11,54,,,
28703,control_change,16,0,6,,,,,,,,,10,11,53,,,
28706,control_change,16,0,7,,,,,,,,,11,11,53,,,
28709,control_change,16,0,8,,,,,,,,,12,11,53,,,
28714,control_change,16,0,9,,,,,,,,,13,11,53,,,
28716,control_change,16,0,10,,,,,,,,,14,11,53,,,
28719,control_change,16,0,6,,,,,,,,,10,11,52,,,
28722,control_change,16,0,7,,,,,,,,,11,11,52,,,
28725,control_change,16,0,8,,,,,,,,,12,11,52,,,
28730,control_change,16,0,9,,,,,,,,,13,11,52,,,
28732,control_change,16,0,10,,,,,,,,,14,11,52,,,
28735,control_change,16,0,6,,,,,,,,,10,11,51,,,
28738,control_change,16,0,7,,,,,,,,,11,11,51,,,
28740,note_on,0,0,6,,,,,,,,,10,,,,77,80
28740,note_on,5,0,6,,,,,,,,,10,,,,74,0
28741,control_change,16,0,8,,,,,,,,,12,11,51,,,
28743,note_on,5,0,7,,,,,,,,,11,,,,62,0
28743,note_on,0,0,7,,,,,,,,,11,,,,65,80
28745,note_on,60,0,2,,,,,,,,,1,,,,69,0
28745,note_on,0,0,2,,,,,,,,,1,,,,71,81
28746,control_change,16,0,9,,,,,,,,,13,11,51,,,
28748,control_change,16,0,10,,,,,,,,,14,11,51,,,
28751,control_change,11,0,6,,,,,,,,,10,11,50,,,
28754,control_change,11,0,7,,,,,,,,,11,11,50,,,
28757,control_change,16,0,8,,,,,,,,,12,11,50,,,
28762,control_change,16,0,9,,,,,,,,,13,11,50,,,
28764,control_change,16,0,10,,,,,,,,,14,11,50,,,
28767,control_change,16,0,6,,,,,,,,,10,11,49,,,
28770,control_change,16,0,7,,,,,,,,,11,11,49,,,
28773,control_change,16,0,8,,,,,,,,,12,11,49,,,
28778,control_change,16,0,9,,,,,,,,,13,11,49,,,
28780,control_change,16,0,10,,,,,,,,,14,11,49,,,
28783,control_change,16,0,6,,,,,,,,,10,11,48,,,
28786,control_change,16,0,7,,,,,,,,,11,11,48,,,
28789,control_change,16,0,8,,,,,,,,,12,11,48,,,
28790,note_on,7,0,6,,,,,,,,,10,,,,77,0
28793,note_on,7,0,7,,,,,,,,,11,,,,65,0
28794,control_change,16,0,9,,,,,,,,,13,11,48,,,
28795,note_on,50,0,2,,,,,,,,,1,,,,71,0
28795,note_on,0,0,2,,,,,,,,,1,,,,77,0
28796,control_change,16,0,10,,,,,,,,,14,11,48,,,
28799,control_change,9,0,6,,,,,,,,,10,11,47,,,
28800,note_on,1,0,6,,,,,,,,,10,,,,77,80
28800,set_tempo,120,1,0,,,,,,389610,,,,,,,,
28802,control_change,9,0,7,,,,,,,,,11,11,47,,,
28802,note_on,110,0,3,,,,,,,,,3,,,,55,0
28803,note_on,1,0,7,,,,,,,,,11,,,,65,80
28805,note_on,10,0,2,,,,,,,,,1,,,,77,81
28805,note_on,0,0,2,,,,,,,,,1,,,,71,81
28805,control_change,16,0,8,,,,,,,,,12,11,47,,,
28806,note_on,1,0,8,,,,,,,,,12,,,,55,0
28806,note_on,0,0,8,,,,,,,,,12,,,,60,78
28810,control_change,16,0,9,,,,,,,,,13,11,47,,,
28811,note_on,1,0,9,,,,,,,,,13,,,,43,0
28811,note_on,0,0,9,,,,,,,,,13,,,,48,57
28812,note_on,10,0,3,,,,,,,,,3,,,,60,81
28812,control_change,16,0,10,,,,,,,,,14,11,47,,,
28813,note_on,1,0,10,,,,,,,,,14,,,,31,0
28813,note_on,0,0,10,,,,,,,,,14,,,,36,44
28920,set_tempo,120,1,0,,,,,,372671,,,,,,,,
28920,note_on,0,0,6,,,,,,,,,10,,,,76,80
28920,note_on,120,0,6,,,,,,,,,10,,,,77,0
28923,note_on,120,0,7,,,,,,,,,11,,,,65,0
28923,note_on,0,0,7,,,,,,,,,11,,,,64,80
28925,note_on,120,0,2,,,,,,,,,1,,,,71,0
28925,note_on,0,0,2,,,,,,,,,1,,,,77,0
28925,note_on,0,0,2,,,,,,,,,1,,,,72,81
28925,note_on,0,0,2,,,,,,,,,1,,,,76,81
28926,note_on,120,0,8,,,,,,,,,12,,,,60,0
28931,note_on,120,0,9,,,,,,,,,13,,,,48,0
28933,note_on,120,0,10,,,,,,,,,14,,,,36,0
29030,note_on,110,0,6,,,,,,,,,10,,,,76,0
29033,note_on,110,0,7,,,,,,,,,11,,,,64,0
29035,note_on,110,0,2,,,,,,,,,1,,,,76,0
29035,note_on,0,0,2,,,,,,,,,1,,,,72,0
29040,note_on,0,0,6,,,,,,,,,10,,,,77,80
29040,set_tempo,120,1,0,,,,,,389610,,,,,,,,
29040,control_change,10,0,6,,,,,,,,,10,11,47,,,
29042,note_on,230,0,3,,,,,,,,,3,,,,60,0
29043,control_change,10,0,7,,,,,,,,,11,11,47,,,
29043,note_on,0,0,7,,,,,,,,,11,,,,65,80
29045,note_on,0,0,2,,,,,,,,,1,,,,65,81
29045,note_on,10,0,2,,,,,,,,,1,,,,74,81
29046,note_on,0,0,8,,,,,,,,,12,,,,58,78
29046,control_change,120,0,8,,,,,,,,,12,11,47,,,
29051,note_on,0,0,9,,,,,,,,,13,,,,46,57
29051,control_change,120,0,9,,,,,,,,,13,11,47,,,
29052,note_on,10,0,3,,,,,,,,,3,,,,58,81
29053,note_on,0,0,10,,,,,,,,,14,,,,34,44
29053,control_change,120,0,10,,,,,,,,,14,11,47,,,
29063,control_change,23,0,6,,,,,,,,,10,11,48,,,
29066,control_change,23,0,7,,,,,,,,,11,11,48,,,
29069,control_change,23,0,8,,,,,,,,,12,11,48,,,
29074,control_change,23,0,9,,,,,,,,,13,11,48,,,
29076,control_change,23,0,10,,,,,,,,,14,11,48,,,
29087,control_change,24,0,6,,,,,,,,,10,11,49,,,
29090,control_change,24,0,7,,,,,,,,,11,11,49,,,
29093,control_change,24,0,8,,,,,,,,,12,11,49,,,
29098,control_change,24,0,9,,,,,,,,,13,11,49,,,
29100,note_on,13,0,6,,,,,,,,,10,,,,77,0
29100,note_on,0,0,6,,,,,,,,,10,,,,86,80
29100,control_change,24,0,10,,,,,,,,,14,11,49,,,
29103,note_on,13,0,7,,,,,,,,,11,,,,65,0
29103,note_on,0,0,7,,,,,,,,,11,,,,74,80
29111,control_change,11,0,6,,,,,,,,,10,11,50,,,
29114,control_change,11,0,7,,,,,,,,,11,11,50,,,
29117,control_change,24,0,8,,,,,,,,,12,11,50,,,
29122,control_change,24,0,9,,,,,,,,,13,11,50,,,
29124,control_change,24,0,10,,,,,,,,,14,11,50,,,
29135,control_change,24,0,6,,,,,,,,,10,11,51,,,
29138,control_change,24,0,7,,,,,,,,,11,11,51,,,
29141,control_change,24,0,8,,,,,,,,,12,11,51,,,
29146,control_change,24,0,9,,,,,,,,,13,11,51,,,
29148,control_change,24,0,10,,,,,,,,,14,11,51,,,
29150,note_on,15,0,6,,,,,,,,,10,,,,86,0
29153,note_on,15,0,7,,,,,,,,,11,,,,74,0
29159,control_change,9,0,6,,,,,,,,,10,11,52,,,
29160,note_on,1,0,6,,,,,,,,,10,,,,86,80
29160,set_tempo,120,1,0,,,,,,372671,,,,,,,,
29162,control_change,9,0,7,,,,,,,,,11,11,52,,,
29163,note_on,1,0,7,,,,,,,,,11,,,,74,80
29165,control_change,24,0,8,,,,,,,,,12,11,52,,,
29166,note_on,1,0,8,,,,,,,,,12,,,,58,0
29170,control_change,24,0,9,,,,,,,,,13,11,52,,,
29171,note_on,1,0,9,,,,,,,,,13,,,,46,0
29172,control_change,24,0,10,,,,,,,,,14,11,52,,,
29173,note_on,1,0,10,,,,,,,,,14,,,,34,0
29183,control_change,23,0,6,,,,,,,,,10,11,53,,,
29186,control_change,23,0,7,,,,,,,,,11,11,53,,,
29189,control_change,23,0,8,,,,,,,,,12,11,53,,,
29190,note_on,7,0,6,,,,,,,,,10,,,,86,0
29193,note_on,7,0,7,,,,,,,,,11,,,,74,0
29194,control_change,23,0,9,,,,,,,,,13,11,53,,,
29196,control_change,23,0,10,,,,,,,,,14,11,53,,,
29207,control_change,17,0,6,,,,,,,,,10,11,54,,,
29210,control_change,17,0,7,,,,,,,,,11,11,54,,,
29213,control_change,24,0,8,,,,,,,,,12,11,54,,,
29218,control_change,24,0,9,,,,,,,,,13,11,54,,,
29220,control_change,24,0,10,,,,,,,,,14,11,54,,,
29220,note_on,13,0,6,,,,,,,,,10,,,,86,80
29223,note_on,13,0,7,,,,,,,,,11,,,,74,80
29231,control_change,11,0,6,,,,,,,,,10,11,55,,,
29234,control_change,11,0,7,,,,,,,,,11,11,55,,,
29237,control_change,24,0,8,,,,,,,,,12,11,55,,,
29242,control_change,24,0,9,,,,,,,,,13,11,55,,,
29244,control_change,24,0,10,,,,,,,,,14,11,55,,,
29250,note_on,19,0,6,,,,,,,,,10,,,,86,0
29253,note_on,19,0,7,,,,,,,,,11,,,,74,0
29255,control_change,5,0,6,,,,,,,,,10,11,56,,,
29258,control_change,5,0,7,,,,,,,,,11,11,56,,,
29261,control_change,24,0,8,,,,,,,,,12,11,56,,,
29266,control_change,24,0,9,,,,,,,,,13,11,56,,,
29268,control_change,24,0,10,,,,,,,,,14,11,56,,,
29279,control_change,24,0,6,,,,,,,,,10,11,57,,,
29280,set_tempo,120,1,0,,,,,,389610,,,,,,,,
29280,note_on,1,0,6,,,,,,,,,10,,,,86,80
29282,control_change,24,0,7,,,,,,,,,11,11,57,,,
29283,note_on,1,0,7,,,,,,,,,11,,,,74,80
29285,control_change,24,0,8,,,,,,,,,12,11,57,,,
29285,note_on,0,0,2,,,,,,,,,1,,,,72,81
29285,note_on,240,0,2,,,,,,,,,1,,,,74,0
29286,note_on,1,0,8,,,,,,,,,12,,,,57,78
29290,control_change,24,0,9,,,,,,,,,13,11,57,,,
29291,note_on,1,0,9,,,,,,,,,13,,,,45,57
29292,note_on,0,0,3,,,,,,,,,3,,,,57,81
29292,note_on,240,0,3,,,,,,,,,3,,,,58,0
29292,control_change,24,0,10,,,,,,,,,14,11,57,,,
29293,note_on,1,0,10,,,,,,,,,14,,,,33,44
29303,control_change,23,0,6,,,,,,,,,10,11,58,,,
29306,control_change,23,0,7,,,,,,,,,11,11,58,,,
29309,control_change,23,0,8,,,,,,,,,12,11,58,,,
29314,control_change,23,0,9,,,,,,,,,13,11,58,,,
29316,control_change,23,0,10,,,,,,,,,14,11,58,,,
29327,control_change,24,0,6,,,,,,,,,10,11,59,,,
29330,control_change,24,0,7,,,,,,,,,11,11,59,,,
29333,control_change,24,0,8,,,,,,,,,12,11,59,,,
29338,control_change,24,0,9,,,,,,,,,13,11,59,,,
29340,note_on,13,0,6,,,,,,,,,10,,,,86,0
29340,note_on,0,0,6,,,,,,,,,10,,,,84,80
29340,control_change,24,0,10,,,,,,,,,14,11,59,,,
29343,note_on,13,0,7,,,,,,,,,11,,,,74,0
29343,note_on,0,0,7,,,,,,,,,11,,,,72,80
29351,control_change,11,0,6,,,,,,,,,10,11,60,,,
29354,control_change,11,0,7,,,,,,,,,11,11,60,,,
29357,control_change,24,0,8,,,,,,,,,12,11,60,,,
29362,control_change,24,0,9,,,,,,,,,13,11,60,,,
29364,control_change,24,0,10,,,,,,,,,14,11,60,,,
29375,control_change,24,0,6,,,,,,,,,10,11,61,,,
29378,control_change,24,0,7,,,,,,,,,11,11,61,,,
29381,control_change,24,0,8,,,,,,,,,12,11,61,,,
29386,control_change,24,0,9,,,,,,,,,13,11,61,,,
29388,control_change,24,0,10,,,,,,,,,14,11,61,,,
29390,note_on,15,0,6,,,,,,,,,10,,,,84,0
29393,note_on,15,0,7,,,,,,,,,11,,,,72,0
29399,control_change,9,0,6,,,,,,,,,10,11,62,,,
29400,note_on,1,0,6,,,,,,,,,10,,,,82,80
29400,set_tempo,120,1,0,,,,,,372671,,,,,,,,
29402,control_change,9,0,7,,,,,,,,,11,11,62,,,
29403,note_on,1,0,7,,,,,,,,,11,,,,70,80
29405,control_change,24,0,8,,,,,,,,,12,11,62,,,
29405,note_on,0,0,2,,,,,,,,,1,,,,69,81
29405,note_on,120,0,2,,,,,,,,,1,,,,65,0
29406,note_on,0,0,8,,,,,,,,,12,,,,53,78
29406,note_on,1,0,8,,,,,,,,,12,,,,57,0
29410,control_change,24,0,9,,,,,,,,,13,11,62,,,
29411,note_on,0,0,9,,,,,,,,,13,,,,41,57
29411,note_on,1,0,9,,,,,,,,,13,,,,45,0
29412,note_on,0,0,3,,,,,,,,,3,,,,53,81
29412,note_on,120,0,3,,,,,,,,,3,,,,57,0
29412,control_change,24,0,10,,,,,,,,,14,11,62,,,
29413,note_on,0,0,10,,,,,,,,,14,,,,29,44
29413,note_on,1,0,10,,,,,,,,,14,,,,33,0
29423,control_change,23,0,6,,,,,,,,,10,11,61,,,
29426,control_change,23,0,7,,,,,,,,,11,11,61,,,
29429,control_change,23,0,8,,,,,,,,,12,11,61,,,
29430,note_on,7,0,6,,,,,,,,,10,,,,82,0
29433,note_on,7,0,7,,,,,,,,,11,,,,70,0
29434,control_change,23,0,9,,,,,,,,,13,11,61,,,
29436,control_change,23,0,10,,,,,,,,,14,11,61,,,
29447,control_change,17,0,6,,,,,,,,,10,11,60,,,
29450,control_change,17,0,7,,,,,,,,,11,11,60,,,
29453,control_change,24,0,8,,,,,,,,,12,11,60,,,
29458,control_change,24,0,9,,,,,,,,,13,11,60,,,
29460,note_on,13,0,6,,,,,,,,,10,,,,81,80
29460,control_change,24,0,10,,,,,,,,,14,11,60,,,
29463,note_on,13,0,7,,,,,,,,,11,,,,69,80
29465,note_on,0,0,2,,,,,,,,,1,,,,77,81
29465,note_on,60,0,2,,,,,,,,,1,,,,72,0
29471,control_change,11,0,6,,,,,,,,,10,11,59,,,
29474,control_change,11,0,7,,,,,,,,,11,11,59,,,
29477,control_change,24,0,8,,,,,,,,,12,11,59,,,
29482,control_change,24,0,9,,,,,,,,,13,11,59,,,
29484,control_change,24,0,10,,,,,,,,,14,11,59,,,
29490,note_on,19,0,6,,,,,,,,,10,,,,81,0
29493,note_on,19,0,7,,,,,,,,,11,,,,69,0
29495,control_change,5,0,6,,,,,,,,,10,11,58,,,
29498,control_change,5,0,7,,,,,,,,,11,11,58,,,
29501,control_change,24,0,8,,,,,,,,,12,11,58,,,
29506,control_change,24,0,9,,,,,,,,,13,11,58,,,
29508,control_change,24,0,10,,,,,,,,,14,11,58,,,
29515,note_on,50,0,2,,,,,,,,,1,,,,77,0
29515,note_on,0,0,2,,,,,,,,,1,,,,69,0
29519,control_change,24,0,6,,,,,,,,,10,11,57,,,
29520,set_tempo,120,1,0,,,,,,409556,,,,,,,,
29520,note_on,1,0,6,,,,,,,,,10,,,,81,80
29522,control_change,24,0,7,,,,,,,,,11,11,57,,,
29523,note_on,1,0,7,,,,,,,,,11,,,,69,80
29525,control_change,24,0,8,,,,,,,,,12,11,57,,,
29525,note_on,10,0,2,,,,,,,,,1,,,,74,81
29526,note_on,1,0,8,,,,,,,,,12,,,,53,0
29526,note_on,0,0,8,,,,,,,,,12,,,,58,78
29530,control_change,24,0,9,,,,,,,,,13,11,57,,,
29531,note_on,0,0,9,,,,,,,,,13,,,,46,57
29531,note_on,1,0,9,,,,,,,,,13,,,,41,0
29532,control_change,24,0,10,,,,,,,,,14,11,57,,,
29532,note_on,120,0,3,,,,,,,,,3,,,,53,0
29532,note_on,0,0,3,,,,,,,,,3,,,,58,81
29533,note_on,1,0,10,,,,,,,,,14,,,,29,0
29533,note_on,0,0,10,,,,,,,,,14,,,,34,44
29543,control_change,23,0,6,,,,,,,,,10,11,56,,,
29546,control_change,23,0,7,,,,,,,,,11,11,56,,,
29549,control_change,23,0,8,,,,,,,,,12,11,56,,,
29554,control_change,23,0,9,,,,,,,,,13,11,56,,,
29556,control_change,23,0,10,,,,,,,,,14,11,56,,,
29567,control_change,24,0,6,,,,,,,,,10,11,55,,,
29570,control_change,24,0,7,,,,,,,,,11,11,55,,,
29573,control_change,24,0,8,,,,,,,,,12,11,55,,,
29578,control_change,24,0,9,,,,,,,,,13,11,55,,,
29580,note_on,13,0,6,,,,,,,,,10,,,,81,0
29580,control_change,24,0,10,,,,,,,,,14,11,55,,,
29580,note_on,0,0,6,,,,,,,,,10,,,,79,80
29583,note_on,13,0,7,,,,,,,,,11,,,,69,0
29583,note_on,0,0,7,,,,,,,,,11,,,,67,80
29585,note_on,60,0,2,,,,,,,,,1,,,,79,81
29591,control_change,11,0,6,,,,,,,,,10,11,54,,,
29594,control_change,11,0,7,,,,,,,,,11,11,54,,,
29597,control_change,24,0,8,,,,,,,,,12,11,54,,,
29602,control_change,24,0,9,,,,,,,,,13,11,54,,,
29604,control_change,24,0,10,,,,,,,,,14,11,54,,,
29615,control_change,24,0,6,,,,,,,,,10,11,53,,,
29618,control_change,24,0,7,,,,,,,,,11,11,53,,,
29621,control_change,24,0,8,,,,,,,,,12,11,53,,,
29626,control_change,24,0,9,,,,,,,,,13,11,53,,,
29628,control_change,24,0,10,,,,,,,,,14,11,53,,,
29630,note_on,15,0,6,,,,,,,,,10,,,,79,0
29633,note_on,15,0,7,,,,,,,,,11,,,,67,0
29639,control_change,9,0,6,,,,,,,,,10,11,52,,,
29640,set_tempo,120,1,0,,,,,,389610,,,,,,,,
29640,note_on,1,0,6,,,,,,,,,10,,,,77,80
29642,control_change,9,0,7,,,,,,,,,11,11,52,,,
29643,note_on,1,0,7,,,,,,,,,11,,,,65,80
29645,note_on,0,0,2,,,,,,,,,1,,,,70,81
29645,note_on,0,0,2,,,,,,,,,1,,,,77,81
29645,note_on,0,0,2,,,,,,,,,1,,,,74,0
29645,control_change,24,0,8,,,,,,,,,12,11,52,,,
29645,note_on,60,0,2,,,,,,,,,1,,,,79,0
29646,note_on,0,0,8,,,,,,,,,12,,,,60,78
29646,note_on,1,0,8,,,,,,,,,12,,,,58,0
29650,control_change,24,0,9,,,,,,,,,13,11,52,,,
29651,note_on,1,0,9,,,,,,,,,13,,,,46,0
29651,note_on,0,0,9,,,,,,,,,13,,,,48,57
29652,note_on,120,0,3,,,,,,,,,3,,,,58,0
29652,note_on,0,0,3,,,,,,,,,3,,,,60,81
29652,control_change,24,0,10,,,,,,,,,14,11,52,,,
29653,note_on,0,0,10,,,,,,,,,14,,,,36,44
29653,note_on,1,0,10,,,,,,,,,14,,,,34,0
29663,control_change,23,0,6,,,,,,,,,10,11,51,,,
29666,control_change,23,0,7,,,,,,,,,11,11,51,,,
29669,control_change,23,0,8,,,,,,,,,12,11,51,,,
29670,note_on,7,0,6,,,,,,,,,10,,,,77,0
29673,note_on,7,0,7,,,,,,,,,11,,,,65,0
29674,control_change,23,0,9,,,,,,,,,13,11,51,,,
29676,control_change,23,0,10,,,,,,,,,14,11,51,,,
29687,control_change,17,0,6,,,,,,,,,10,11,50,,,
29690,control_change,17,0,7,,,,,,,,,11,11,50,,,
29693,control_change,24,0,8,,,,,,,,,12,11,50,,,
29698,control_change,24,0,9,,,,,,,,,13,11,50,,,
29700,note_on,13,0,6,,,,,,,,,10,,,,76,80
29700,control_change,24,0,10,,,,,,,,,14,11,50,,,
29703,note_on,13,0,7,,,,,,,,,11,,,,64,80
29705,note_on,60,0,2,,,,,,,,,1,,,,77,0
29705,note_on,0,0,2,,,,,,,,,1,,,,76,81
29711,control_change,11,0,6,,,,,,,,,10,11,49,,,
29714,control_change,11,0,7,,,,,,,,,11,11,49,,,
29717,control_change,24,0,8,,,,,,,,,12,11,49,,,
29722,control_change,24,0,9,,,,,,,,,13,11,49,,,
29724,control_change,24,0,10,,,,,,,,,14,11,49,,,
29730,note_on,19,0,6,,,,,,,,,10,,,,76,0
29733,note_on,19,0,7,,,,,,,,,11,,,,64,0
29735,control_change,5,0,6,,,,,,,,,10,11,48,,,
29738,control_change,5,0,7,,,,,,,,,11,11,48,,,
29741,control_change,24,0,8,,,,,,,,,12,11,48,,,
29746,control_change,24,0,9,,,,,,,,,13,11,48,,,
29748,control_change,24,0,10,,,,,,,,,14,11,48,,,
29755,note_on,0,0,2,,,,,,,,,1,,,,70,0
29755,note_on,50,0,2,,,,,,,,,1,,,,76,0
29759,control_change,24,0,6,,,,,,,,,10,11,47,,,
29760,note_on,1,0,6,,,,,,,,,10,,,,77,80
29760,set_tempo,120,1,0,,,,,,428571,,,,,,,,
29762,note_on,110,0,3,,,,,,,,,3,,,,60,0
29762,control_change,24,0,7,,,,,,,,,11,11,47,,,
29763,note_on,1,0,7,,,,,,,,,11,,,,65,80
29765,control_change,24,0,8,,,,,,,,,12,11,47,,,
29765,note_on,10,0,2,,,,,,,,,1,,,,69,81
29765,note_on,0,0,2,,,,,,,,,1,,,,77,81
29766,note_on,0,0,8,,,,,,,,,12,,,,53,78
29766,note_on,1,0,8,,,,,,,,,12,,,,60,0
29770,control_change,24,0,9,,,,,,,,,13,11,47,,,
29771,note_on,1,0,9,,,,,,,,,13,,,,48,0
29771,note_on,0,0,9,,,,,,,,,13,,,,41,57
29772,note_on,10,0,3,,,,,,,,,3,,,,53,81
29772,control_change,24,0,10,,,,,,,,,14,11,47,,,
29773,note_on,0,0,10,,,,,,,,,14,,,,29,44
29773,note_on,1,0,10,,,,,,,,,14,,,,36,0
29820,note_on,0,0,6,,,,,,,,,10,,,,72,100
29820,note_on,60,0,6,,,,,,,,,10,,,,77,0
29820,set_tempo,60,1,0,,,,,,461538,,,,,,,,
29870,note_on,50,0,6,,,,,,,,,10,,,,72,0
29880,note_on,10,0,6,,,,,,,,,10,,,,72,100
29880,set_tempo,60,1,0,,,,,,428571,,,,,,,,
29883,note_on,120,0,7,,,,,,,,,11,,,,65,0
29885,note_on,120,0,2,,,,,,,,,1,,,,77,0
29885,note_on,0,0,2,,,,,,,,,1,,,,69,0
29886,note_on,120,0,8,,,,,,,,,12,,,,53,0
29891,note_on,120,0,9,,,,,,,,,13,,,,41,0
29892,note_on,120,0,3,,,,,,,,,3,,,,53,0
29893,note_on,120,0,10,,,,,,,,,14,,,,29,0
29910,note_on,30,0,6,,,,,,,,,10,,,,72,0
29940,note_on,30,0,6,,,,,,,,,10,,,,72,100
29970,note_on,30,0,6,,,,,,,,,10,,,,72,0
30000,set_tempo,120,1,0,,,,,,431655,,,,,,,,
30000,control_change,30,0,6,,,,,,,,,10,11,37,,,
30000,note_on,0,0,6,,,,,,,,,10,,,,69,100
30003,control_change,3960,0,1,,,,,,,,,0,11,37,,,
30003,note_on,0,0,1,,,,,,,,,0,,,,81,82
30003,note_on,120,0,7,,,,,,,,,11,,,,57,100
30005,control_change,120,0,2,,,,,,,,,1,11,37,,,
30005,note_on,0,0,2,,,,,,,,,1,,,,72,81
30006,note_on,120,0,8,,,,,,,,,12,,,,53,62
30011,note_on,120,0,9,,,,,,,,,13,,,,53,53
30012,note_on,0,0,3,,,,,,,,,3,,,,57,81
30012,note_on,0,0,3,,,,,,,,,3,,,,53,81
30012,control_change,120,0,3,,,,,,,,,3,11,37,,,
30013,note_on,120,0,10,,,,,,,,,14,,,,41,40
30024,control_change,24,0,6,,,,,,,,,10,11,39,,,
30027,control_change,24,0,1,,,,,,,,,0,11,39,,,
30029,control_change,24,0,2,,,,,,,,,1,11,39,,,
30036,control_change,24,0,3,,,,,,,,,3,11,39,,,
30048,control_change,24,0,6,,,,,,,,,10,11,41,,,
30051,control_change,24,0,1,,,,,,,,,0,11,41,,,
30053,control_change,24,0,2,,,,,,,,,1,11,41,,,
30060,control_change,24,0,3,,,,,,,,,3,11,41,,,
30063,note_on,0,0,7,,,,,,,,,11,,,,60,100
30063,note_on,60,0,7,,,,,,,,,11,,,,57,0
30072,control_change,24,0,6,,,,,,,,,10,11,43,,,
30075,control_change,24,0,1,,,,,,,,,0,11,43,,,
30077,control_change,24,0,2,,,,,,,,,1,11,43,,,
30084,control_change,24,0,3,,,,,,,,,3,11,43,,,
30096,control_change,24,0,6,,,,,,,,,10,11,45,,,
30099,control_change,24,0,1,,,,,,,,,0,11,45,,,
30101,control_change,24,0,2,,,,,,,,,1,11,45,,,
30108,control_change,24,0,3,,,,,,,,,3,11,45,,,
30113,note_on,50,0,7,,,,,,,,,11,,,,60,0
30120,control_change,24,0,6,,,,,,,,,10,11,47,,,
30120,set_tempo,120,1,0,,,,,,392157,,,,,,,,
30123,note_on,10,0,7,,,,,,,,,11,,,,60,100
30123,control_change,24,0,1,,,,,,,,,0,11,47,,,
30124,control_change,4080,0,4,,,,,,,,,4,11,47,,,
30124,note_on,0,0,4,,,,,,,,,4,,,,60,86
30125,control_change,24,0,2,,,,,,,,,1,11,47,,,
30126,note_on,120,0,8,,,,,,,,,12,,,,53,0
30131,note_on,120,0,9,,,,,,,,,13,,,,53,0
30132,control_change,24,0,3,,,,,,,,,3,11,47,,,
30133,note_on,120,0,10,,,,,,,,,14,,,,41,0
30153,note_on,30,0,7,,,,,,,,,11,,,,60,0
30183,note_on,30,0,7,,,,,,,,,11,,,,60,100
30213,note_on,30,0,7,,,,,,,,,11,,,,60,0
30230,note_on,110,0,6,,,,,,,,,10,,,,69,0
30233,note_on,110,0,1,,,,,,,,,0,,,,81,0
30240,set_tempo,120,1,0,,,,,,401338,,,,,,,,
30240,note_on,10,0,6,,,,,,,,,10,,,,72,100
30243,note_on,30,0,7,,,,,,,,,11,,,,58,100
30243,note_on,10,0,1,,,,,,,,,0,,,,84,82
30244,note_on,120,0,4,,,,,,,,,4,,,,60,0
30246,note_on,120,0,8,,,,,,,,,12,,,,55,62
30251,note_on,120,0,9,,,,,,,,,13,,,,55,53
30252,note_on,0,0,3,,,,,,,,,3,,,,55,81
30252,note_on,0,0,3,,,,,,,,,3,,,,53,0
30252,note_on,120,0,3,,,,,,,,,3,,,,57,0
30252,note_on,0,0,3,,,,,,,,,3,,,,58,81
30253,note_on,120,0,10,,,,,,,,,14,,,,43,40
30300,note_on,60,0,6,,,,,,,,,10,,,,72,0
30300,note_on,0,0,6,,,,,,,,,10,,,,70,100
30303,note_on,0,0,1,,,,,,,,,0,,,,82,82
30303,note_on,60,0,7,,,,,,,,,11,,,,58,0
30303,note_on,0,0,7,,,,,,,,,11,,,,60,100
30303,note_on,60,0,1,,,,,,,,,0,,,,84,0
30353,note_on,50,0,7,,,,,,,,,11,,,,60,0
30360,set_tempo,120,1,0,,,,,,380952,,,,,,,,
30360,note_on,60,0,6,,,,,,,,,10,,,,70,0
30360,note_on,0,0,6,,,,,,,,,10,,,,62,100
30363,note_on,60,0,1,,,,,,,,,0,,,,82,0
30363,note_on,0,0,1,,,,,,,,,0,,,,74,82
30363,note_on,10,0,7,,,,,,,,,11,,,,60,100
30364,note_on,120,0,4,,,,,,,,,4,,,,60,86
30366,note_on,120,0,8,,,,,,,,,12,,,,55,0
30371,note_on,120,0,9,,,,,,,,,13,,,,55,0
30373,note_on,120,0,10,,,,,,,,,14,,,,43,0
30393,note_on,30,0,7,,,,,,,,,11,,,,60,0
30420,note_on,60,0,6,,,,,,,,,10,,,,62,0
30420,note_on,0,0,6,,,,,,,,,10,,,,64,100
30423,note_on,30,0,7,,,,,,,,,11,,,,60,100
30423,note_on,60,0,1,,,,,,,,,0,,,,74,0
30423,note_on,0,0,1,,,,,,,,,0,,,,76,82
30453,note_on,30,0,7,,,,,,,,,11,,,,60,0
30470,note_on,50,0,6,,,,,,,,,10,,,,64,0
30473,note_on,50,0,1,,,,,,,,,0,,,,76,0
30480,note_on,10,0,6,,,,,,,,,10,,,,67,100
30480,set_tempo,120,1,0,,,,,,389610,,,,,,,,
30482,note_on,0,0,3,,,,,,,,,3,,,,55,0
30482,note_on,230,0,3,,,,,,,,,3,,,,58,0
30483,note_on,30,0,7,,,,,,,,,11,,,,57,100
30483,note_on,10,0,1,,,,,,,,,0,,,,79,82
30484,note_on,120,0,4,,,,,,,,,4,,,,60,0
30486,note_on,120,0,8,,,,,,,,,12,,,,57,62
30491,note_on,120,0,9,,,,,,,,,13,,,,57,53
30492,note_on,0,0,3,,,,,,,,,3,,,,60,81
30492,note_on,10,0,3,,,,,,,,,3,,,,57,81
30493,note_on,120,0,10,,,,,,,,,14,,,,45,40
30540,note_on,0,0,6,,,,,,,,,10,,,,65,100
30540,note_on,60,0,6,,,,,,,,,10,,,,67,0
30543,note_on,0,0,1,,,,,,,,,0,,,,77,82
30543,note_on,60,0,7,,,,,,,,,11,,,,57,0
30543,note_on,60,0,1,,,,,,,,,0,,,,79,0
30543,note_on,0,0,7,,,,,,,,,11,,,,60,100
30593,note_on,50,0,7,,,,,,,,,11,,,,60,0
30600,note_on,0,0,6,,,,,,,,,10,,,,64,100
30600,note_on,60,0,6,,,,,,,,,10,,,,65,0
30600,set_tempo,120,1,0,,,,,,372671,,,,,,,,
30603,note_on,10,0,7,,,,,,,,,11,,,,60,100
30603,note_on,0,0,1,,,,,,,,,0,,,,76,82
30603,note_on,60,0,1,,,,,,,,,0,,,,77,0
30604,note_on,120,0,4,,,,,,,,,4,,,,60,86
30606,note_on,120,0,8,,,,,,,,,12,,,,57,0
30611,note_on,120,0,9,,,,,,,,,13,,,,57,0
30613,note_on,120,0,10,,,,,,,,,14,,,,45,0
30633,note_on,30,0,7,,,,,,,,,11,,,,60,0
30660,note_on,60,0,6,,,,,,,,,10,,,,64,0
30660,note_on,0,0,6,,,,,,,,,10,,,,62,100
30663,note_on,0,0,1,,,,,,,,,0,,,,74,82
30663,note_on,60,0,1,,,,,,,,,0,,,,76,0
30663,note_on,30,0,7,,,,,,,,,11,,,,60,100
30672,note_on,0,0,3,,,,,,,,,3,,,,65,81
30672,note_on,180,0,3,,,,,,,,,3,,,,60,0
30693,note_on,30,0,7,,,,,,,,,11,,,,60,0
30710,note_on,50,0,6,,,,,,,,,10,,,,62,0
30713,note_on,50,0,1,,,,,,,,,0,,,,74,0
30720,note_on,10,0,6,,,,,,,,,10,,,,60,100
30720,set_tempo,120,1,0,,,,,,389610,,,,,,,,
30723,note_on,30,0,7,,,,,,,,,11,,,,64,100
30723,note_on,10,0,1,,,,,,,,,0,,,,72,82
30724,note_on,120,0,4,,,,,,,,,4,,,,60,0
30726,note_on,120,0,8,,,,,,,,,12,,,,60,62
30731,note_on,120,0,9,,,,,,,,,13,,,,60,53
30732,note_on,0,0,3,,,,,,,,,3,,,,57,0
30732,note_on,60,0,3,,,,,,,,,3,,,,65,0
30732,note_on,0,0,3,,,,,,,,,3,,,,64,81
30732,note_on,0,0,3,,,,,,,,,3,,,,60,81
30733,note_on,120,0,10,,,,,,,,,14,,,,48,40
30783,note_on,60,0,7,,,,,,,,,11,,,,64,0
30783,note_on,0,0,7,,,,,,,,,11,,,,60,100
30833,note_on,50,0,7,,,,,,,,,11,,,,60,0
30840,note_on,0,0,6,,,,,,,,,10,,,,62,100
30840,note_on,120,0,6,,,,,,,,,10,,,,60,0
30840,set_tempo,120,1,0,,,,,,372671,,,,,,,,
30843,note_on,0,0,1,,,,,,,,,0,,,,74,82
30843,note_on,120,0,1,,,,,,,,,0,,,,72,0
30843,note_on,10,0,7,,,,,,,,,11,,,,60,100
30844,note_on,120,0,4,,,,,,,,,4,,,,60,86
30846,note_on,120,0,8,,,,,,,,,12,,,,60,0
30851,note_on,120,0,9,,,,,,,,,13,,,,60,0
30852,note_on,120,0,3,,,,,,,,,3,,,,64,0
30852,note_on,0,0,3,,,,,,,,,3,,,,60,0
30853,note_on,120,0,10,,,,,,,,,14,,,,48,0
30870,note_on,30,0,6,,,,,,,,,10,,,,62,0
30870,note_on,0,0,6,,,,,,,,,10,,,,64,100
30873,note_on,30,0,7,,,,,,,,,11,,,,60,0
30873,note_on,0,0,1,,,,,,,,,0,,,,76,82
30873,note_on,30,0,1,,,,,,,,,0,,,,74,0
30900,note_on,0,0,6,,,,,,,,,10,,,,65,100
30900,note_on,30,0,6,,,,,,,,,10,,,,64,0
30903,note_on,0,0,1,,,,,,,,,0,,,,77,82
30903,note_on,30,0,1,,,,,,,,,0,,,,76,0
30903,note_on,30,0,7,,,,,,,,,11,,,,60,100
30930,note_on,0,0,6,,,,,,,,,10,,,,67,100
30930,note_on,30,0,6,,,,,,,,,10,,,,65,0
30933,note_on,0,0,1,,,,,,,,,0,,,,79,82
30933,note_on,30,0,1,,,,,,,,,0,,,,77,0
30933,note_on,30,0,7,,,,,,,,,11,,,,60,0
30950,note_on,20,0,6,,,,,,,,,10,,,,67,0
30953,note_on,20,0,1,,,,,,,,,0,,,,79,0
30960,set_tempo,120,1,0,,,,,,389610,,,,,,,,
30960,note_on,10,0,6,,,,,,,,,10,,,,69,100
30963,note_on,10,0,1,,,,,,,,,0,,,,81,82
30963,note_on,30,0,7,,,,,,,,,11,,,,57,100
30964,note_on,120,0,4,,,,,,,,,4,,,,60,0
30966,note_on,120,0,8,,,,,,,,,12,,,,53,62
30971,note_on,120,0,9,,,,,,,,,13,,,,53,53
30972,note_on,120,0,3,,,,,,,,,3,,,,53,81
30972,note_on,0,0,3,,,,,,,,,3,,,,57,81
30973,note_on,120,0,10,,,,,,,,,14,,,,41,40
31023,note_on,60,0,7,,,,,,,,,11,,,,57,0
31023,note_on,0,0,7,,,,,,,,,11,,,,60,100
31073,note_on,50,0,7,,,,,,,,,11,,,,60,0
31080,set_tempo,120,1,0,,,,,,372671,,,,,,,,
31083,note_on,10,0,7,,,,,,,,,11,,,,60,100
31084,note_on,120,0,4,,,,,,,,,4,,,,60,86
31086,note_on,120,0,8,,,,,,,,,12,,,,53,0
31091,note_on,120,0,9,,,,,,,,,13,,,,53,0
31093,note_on,120,0,10,,,,,,,,,14,,,,41,0
31113,note_on,30,0,7,,,,,,,,,11,,,,60,0
31143,note_on,30,0,7,,,,,,,,,11,,,,60,100
31173,note_on,30,0,7,,,,,,,,,11,,,,60,0
31190,note_on,230,0,6,,,,,,,,,10,,,,69,0
31193,note_on,230,0,1,,,,,,,,,0,,,,81,0
31200,note_on,10,0,6,,,,,,,,,10,,,,72,100
31200,set_tempo,120,1,0,,,,,,389610,,,,,,,,
31203,note_on,10,0,1,,,,,,,,,0,,,,84,82
31203,note_on,30,0,7,,,,,,,,,11,,,,58,100
31204,note_on,120,0,4,,,,,,,,,4,,,,60,0
31206,note_on,120,0,8,,,,,,,,,12,,,,55,62
31211,note_on,120,0,9,,,,,,,,,13,,,,55,53
31212,note_on,0,0,3,,,,,,,,,3,,,,55,81
31212,note_on,0,0,3,,,,,,,,,3,,,,58,81
31212,note_on,0,0,3,,,,,,,,,3,,,,53,0
31212,note_on,240,0,3,,,,,,,,,3,,,,57,0
31213,note_on,120,0,10,,,,,,,,,14,,,,43,40
31260,note_on,60,0,6,,,,,,,,,10,,,,72,0
31260,note_on,0,0,6,,,,,,,,,10,,,,70,100
31263,note_on,0,0,1,,,,,,,,,0,,,,82,82
31263,note_on,60,0,1,,,,,,,,,0,,,,84,0
31263,note_on,0,0,7,,,,,,,,,11,,,,60,100
31263,note_on,60,0,7,,,,,,,,,11,,,,58,0
31313,note_on,50,0,7,,,,,,,,,11,,,,60,0
31320,note_on,60,0,6,,,,,,,,,10,,,,70,0
31320,note_on,0,0,6,,,,,,,,,10,,,,62,100
31320,set_tempo,120,1,0,,,,,,372671,,,,,,,,
31323,note_on,10,0,7,,,,,,,,,11,,,,60,100
31323,note_on,60,0,1,,,,,,,,,0,,,,82,0
31323,note_on,0,0,1,,,,,,,,,0,,,,74,82
31324,note_on,120,0,4,,,,,,,,,4,,,,60,86
31326,note_on,120,0,8,,,,,,,,,12,,,,55,0
31331,note_on,120,0,9,,,,,,,,,13,,,,55,0
31333,note_on,120,0,10,,,,,,,,,14,,,,43,0
31353,note_on,30,0,7,,,,,,,,,11,,,,60,0
31380,note_on,60,0,6,,,,,,,,,10,,,,62,0
31380,note_on,0,0,6,,,,,,,,,10,,,,64,100
31383,note_on,60,0,1,,,,,,,,,0,,,,74,0
31383,note_on,0,0,1,,,,,,,,,0,,,,76,82
31383,note_on,30,0,7,,,,,,,,,11,,,,60,100
31413,note_on,30,0,7,,,,,,,,,11,,,,60,0
31430,note_on,50,0,6,,,,,,,,,10,,,,64,0
31433,note_on,50,0,1,,,,,,,,,0,,,,76,0
31440,note_on,10,0,6,,,,,,,,,10,,,,67,100
31440,set_tempo,120,1,0,,,,,,389610,,,,,,,,
31442,note_on,230,0,3,,,,,,,,,3,,,,55,0
31442,note_on,0,0,3,,,,,,,,,3,,,,58,0
31443,note_on,10,0,1,,,,,,,,,0,,,,79,82
31443,note_on,30,0,7,,,,,,,,,11,,,,57,100
31444,note_on,120,0,4,,,,,,,,,4,,,,60,0
31446,note_on,120,0,8,,,,,,,,,12,,,,57,62
31451,note_on,120,0,9,,,,,,,,,13,,,,57,53
31452,note_on,0,0,3,,,,,,,,,3,,,,60,81
31452,note_on,10,0,3,,,,,,,,,3,,,,57,81
31453,note_on,120,0,10,,,,,,,,,14,,,,45,40
31500,note_on,60,0,6,,,,,,,,,10,,,,67,0
31500,note_on,0,0,6,,,,,,,,,10,,,,65,100
31503,note_on,60,0,7,,,,,,,,,11,,,,57,0
31503,note_on,0,0,7,,,,,,,,,11,,,,60,100
31503,note_on,60,0,1,,,,,,,,,0,,,,79,0
31503,note_on,0,0,1,,,,,,,,,0,,,,77,82
31553,note_on,50,0,7,,,,,,,,,11,,,,60,0
31560,set_tempo,120,1,0,,,,,,372671,,,,,,,,
31560,note_on,60,0,6,,,,,,,,,10,,,,65,0
31560,note_on,0,0,6,,,,,,,,,10,,,,64,100
31563,note_on,10,0,7,,,,,,,,,11,,,,60,100
31563,note_on,60,0,1,,,,,,,,,0,,,,77,0
31563,note_on,0,0,1,,,,,,,,,0,,,,76,82
31564,note_on,120,0,4,,,,,,,,,4,,,,60,86
31566,note_on,120,0,8,,,,,,,,,12,,,,57,0
31571,note_on,120,0,9,,,,,,,,,13,,,,57,0
31573,note_on,120,0,10,,,,,,,,,14,,,,45,0
31593,note_on,30,0,7,,,,,,,,,11,,,,60,0
31600,note_on,0,0,6,,,,,,,,,10,,,,65,100
31600,note_on,40,0,6,,,,,,,,,10,,,,64,0
31603,note_on,40,0,1,,,,,,,,,0,,,,76,0
31603,note_on,0,0,1,,,,,,,,,0,,,,77,82
31623,note_on,30,0,7,,,,,,,,,11,,,,60,100
31632,note_on,0,0,3,,,,,,,,,3,,,,65,81
31632,note_on,180,0,3,,,,,,,,,3,,,,60,0
31640,note_on,40,0,6,,,,,,,,,10,,,,65,0
31640,note_on,0,0,6,,,,,,,,,10,,,,62,100
31643,note_on,40,0,1,,,,,,,,,0,,,,77,0
31643,note_on,0,0,1,,,,,,,,,0,,,,74,82
31653,note_on,30,0,7,,,,,,,,,11,,,,60,0
31670,note_on,30,0,6,,,,,,,,,10,,,,62,0
31673,note_on,30,0,1,,,,,,,,,0,,,,74,0
31680,set_tempo,120,1,0,,,,,,413793,,,,,,,,
31680,note_on,10,0,6,,,,,,,,,10,,,,60,100
31683,note_on,30,0,7,,,,,,,,,11,,,,64,100
31683,note_on,10,0,1,,,,,,,,,0,,,,72,82
31684,note_on,120,0,4,,,,,,,,,4,,,,60,0
31686,note_on,120,0,8,,,,,,,,,12,,,,60,62
31691,note_on,120,0,9,,,,,,,,,13,,,,60,53
31692,note_on,0,0,3,,,,,,,,,3,,,,64,81
31692,note_on,60,0,3,,,,,,,,,3,,,,65,0
31692,note_on,0,0,3,,,,,,,,,3,,,,60,81
31692,note_on,0,0,3,,,,,,,,,3,,,,57,0
31693,note_on,120,0,10,,,,,,,,,14,,,,48,40
31743,note_on,0,0,7,,,,,,,,,11,,,,60,100
31743,note_on,60,0,7,,,,,,,,,11,,,,64,0
31793,note_on,50,0,7,,,,,,,,,11,,,,60,0
31800,set_tempo,120,1,0,,,,,,372671,,,,,,,,
31803,note_on,10,0,7,,,,,,,,,11,,,,60,100
31804,note_on,120,0,4,,,,,,,,,4,,,,60,86
31806,note_on,120,0,8,,,,,,,,,12,,,,60,0
31811,note_on,120,0,9,,,,,,,,,13,,,,60,0
31812,note_on,0,0,3,,,,,,,,,3,,,,60,0
31812,note_on,120,0,3,,,,,,,,,3,,,,64,0
31813,note_on,120,0,10,,,,,,,,,14,,,,48,0
31833,note_on,30,0,7,,,,,,,,,11,,,,60,0
31863,note_on,30,0,7,,,,,,,,,11,,,,60,100
31893,note_on,30,0,7,,,,,,,,,11,,,,60,0
31910,note_on,230,0,6,,,,,,,,,10,,,,60,0
31913,note_on,230,0,1,,,,,,,,,0,,,,72,0
31920,set_tempo,120,1,0,,,,,,389610,,,,,,,,
31920,control_change,10,0,6,,,,,,,,,10,11,47,,,
31920,note_on,0,0,6,,,,,,,,,10,,,,60,100
31923,control_change,10,0,1,,,,,,,,,0,11,47,,,
31923,control_change,30,0,7,,,,,,,,,11,11,47,,,
31923,note_on,0,0,7,,,,,,,,,11,,,,60,100
31923,note_on,0,0,1,,,,,,,,,0,,,,72,82
31924,note_on,120,0,4,,,,,,,,,4,,,,60,0
31925,note_on,0,0,2,,,,,,,,,1,,,,72,81
31925,note_on,0,0,2,,,,,,,,,1,,,,69,81
31925,control_change,0,0,2,,,,,,,,,1,11,47,,,
31925,note_on,1800,0,2,,,,,,,,,1,,,,72,0
31926,note_on,0,0,8,,,,,,,,,12,,,,53,98
31926,control_change,120,0,8,,,,,,,,,12,11,32,,,
31931,note_on,0,0,9,,,,,,,,,13,,,,53,89
31931,control_change,120,0,9,,,,,,,,,13,11,32,,,
31932,control_change,120,0,3,,,,,,,,,3,11,47,,,
31932,note_on,0,0,3,,,,,,,,,3,,,,53,81
31932,note_on,0,0,3,,,,,,,,,3,,,,65,81
31933,note_on,0,0,10,,,,,,,,,14,,,,41,73
31933,control_change,120,0,10,,,,,,,,,14,11,32,,,
31935,control_change,15,0,6,,,,,,,,,10,11,48,,,
31938,control_change,15,0,7,,,,,,,,,11,11,48,,,
31938,control_change,15,0,1,,,,,,,,,0,11,48,,,
31940,control_change,15,0,2,,,,,,,,,1,11,48,,,
31942,control_change,16,0,8,,,,,,,,,12,11,34,,,
31947,control_change,15,0,3,,,,,,,,,3,11,48,,,
31947,control_change,16,0,9,,,,,,,,,13,11,34,,,
31949,control_change,16,0,10,,,,,,,,,14,11,34,,,
31951,control_change,16,0,6,,,,,,,,,10,11,49,,,
31954,control_change,16,0,1,,,,,,,,,0,11,49,,,
31954,control_change,16,0,7,,,,,,,,,11,11,49,,,
31956,control_change,16,0,2,,,,,,,,,1,11,49,,,
31958,control_change,16,0,8,,,,,,,,,12,11,36,,,
31963,control_change,16,0,9,,,,,,,,,13,11,36,,,
31963,control_change,16,0,3,,,,,,,,,3,11,49,,,
31965,control_change,16,0,10,,,,,,,,,14,11,36,,,
31967,control_change,16,0,6,,,,,,,,,10,11,50,,,
31970,control_change,16,0,7,,,,,,,,,11,11,50,,,
31970,control_change,16,0,1,,,,,,,,,0,11,50,,,
31972,control_change,16,0,2,,,,,,,,,1,11,50,,,
31974,control_change,16,0,8,,,,,,,,,12,11,38,,,
31979,control_change,16,0,9,,,,,,,,,13,11,38,,,
31979,control_change,16,0,3,,,,,,,,,3,11,50,,,
31980,note_on,0,0,6,,,,,,,,,10,,,,69,100
31980,note_on,13,0,6,,,,,,,,,10,,,,60,0
31981,control_change,16,0,10,,,,,,,,,14,11,38,,,
31983,control_change,3,0,6,,,,,,,,,10,11,51,,,
31983,note_on,13,0,1,,,,,,,,,0,,,,72,0
31983,note_on,0,0,1,,,,,,,,,0,,,,81,82
31986,control_change,3,0,1,,,,,,,,,0,11,51,,,
31986,control_change,16,0,7,,,,,,,,,11,11,51,,,
31988,control_change,16,0,2,,,,,,,,,1,11,51,,,
31990,control_change,16,0,8,,,,,,,,,12,11,40,,,
31995,control_change,16,0,9,,,,,,,,,13,11,40,,,
31995,control_change,16,0,3,,,,,,,,,3,11,51,,,
31997,control_change,16,0,10,,,,,,,,,14,11,40,,,
31999,control_change,16,0,6,,,,,,,,,10,11,52,,,
32002,control_change,16,0,7,,,,,,,,,11,11,52,,,
32002,control_change,16,0,1,,,,,,,,,0,11,52,,,
32004,control_change,16,0,2,,,,,,,,,1,11,52,,,
32006,control_change,16,0,8,,,,,,,,,12,11,42,,,
32011,control_change,16,0,3,,,,,,,,,3,11,52,,,
32011,control_change,16,0,9,,,,,,,,,13,11,42,,,
32013,control_change,16,0,10,,,,,,,,,14,11,42,,,
32015,control_change,16,0,6,,,,,,,,,10,11,53,,,
32018,control_change,16,0,7,,,,,,,,,11,11,53,,,
32018,control_change,16,0,1,,,,,,,,,0,11,53,,,
32020,control_change,16,0,2,,,,,,,,,1,11,53,,,
32022,control_change,16,0,8,,,,,,,,,12,11,44,,,
32027,control_change,16,0,3,,,,,,,,,3,11,53,,,
32027,control_change,16,0,9,,,,,,,,,13,11,44,,,
32029,control_change,16,0,10,,,,,,,,,14,11,44,,,
32030,note_on,15,0,6,,,,,,,,,10,,,,69,0
32031,control_change,1,0,6,,,,,,,,,10,11,54,,,
32033,note_on,15,0,1,,,,,,,,,0,,,,81,0
32034,control_change,16,0,7,,,,,,,,,11,11,54,,,
32034,control_change,1,0,1,,,,,,,,,0,11,54,,,
32036,control_change,16,0,2,,,,,,,,,1,11,54,,,
32038,control_change,16,0,8,,,,,,,,,12,11,46,,,
32040,set_tempo,120,1,0,,,,,,372671,,,,,,,,
32040,note_on,9,0,6,,,,,,,,,10,,,,69,100
32043,control_change,16,0,9,,,,,,,,,13,11,46,,,
32043,control_change,16,0,3,,,,,,,,,3,11,54,,,
32043,note_on,9,0,1,,,,,,,,,0,,,,81,82
32045,control_change,16,0,10,,,,,,,,,14,11,46,,,
32047,control_change,7,0,6,,,,,,,,,10,11,55,,,
32050,control_change,16,0,7,,,,,,,,,11,11,55,,,
32050,control_change,7,0,1,,,,,,,,,0,11,55,,,
32052,control_change,16,0,2,,,,,,,,,1,11,55,,,
32053,control_change,15,0,8,,,,,,,,,12,11,55,,,
32058,control_change,15,0,9,,,,,,,,,13,11,55,,,
32059,control_change,16,0,3,,,,,,,,,3,11,55,,,
32060,control_change,15,0,10,,,,,,,,,14,11,55,,,
32063,control_change,16,0,6,,,,,,,,,10,11,56,,,
32066,control_change,16,0,7,,,,,,,,,11,11,56,,,
32066,control_change,16,0,1,,,,,,,,,0,11,56,,,
32068,control_change,16,0,2,,,,,,,,,1,11,56,,,
32069,control_change,16,0,8,,,,,,,,,12,11,56,,,
32070,note_on,7,0,6,,,,,,,,,10,,,,69,0
32073,note_on,7,0,1,,,,,,,,,0,,,,81,0
32074,control_change,16,0,9,,,,,,,,,13,11,56,,,
32075,control_change,16,0,3,,,,,,,,,3,11,56,,,
32076,control_change,16,0,10,,,,,,,,,14,11,56,,,
32079,control_change,9,0,6,,,,,,,,,10,11,57,,,
32082,control_change,9,0,1,,,,,,,,,0,11,57,,,
32082,control_change,16,0,7,,,,,,,,,11,11,57,,,
32084,control_change,16,0,2,,,,,,,,,1,11,57,,,
32085,control_change,16,0,8,,,,,,,,,12,11,57,,,
32090,control_change,16,0,9,,,,,,,,,13,11,57,,,
32091,control_change,16,0,3,,,,,,,,,3,11,57,,,
32092,control_change,16,0,10,,,,,,,,,14,11,57,,,
32095,control_change,16,0,6,,,,,,,,,10,11,58,,,
32098,control_change,16,0,1,,,,,,,,,0,11,58,,,
32098,control_change,16,0,7,,,,,,,,,11,11,58,,,
32100,control_change,16,0,2,,,,,,,,,1,11,58,,,
32100,note_on,5,0,6,,,,,,,,,10,,,,69,100
32101,control_change,16,0,8,,,,,,,,,12,11,58,,,
32103,note_on,5,0,1,,,,,,,,,0,,,,81,82
32106,control_change,16,0,9,,,,,,,,,13,11,58,,,
32107,control_change,16,0,3,,,,,,,,,3,11,58,,,
32108,control_change,16,0,10,,,,,,,,,14,11,58,,,
32111,control_change,11,0,6,,,,,,,,,10,11,59,,,
32114,control_change,16,0,7,,,,,,,,,11,11,59,,,
32114,control_change,11,0,1,,,,,,,,,0,11,59,,,
32116,control_change,16,0,2,,,,,,,,,1,11,59,,,
32117,control_change,16,0,8,,,,,,,,,12,11,59,,,
32122,control_change,16,0,9,,,,,,,,,13,11,59,,,
32123,control_change,16,0,3,,,,,,,,,3,11,59,,,
32124,control_change,16,0,10,,,,,,,,,14,11,59,,,
32127,control_change,16,0,6,,,,,,,,,10,11,60,,,
32130,note_on,3,0,6,,,,,,,,,10,,,,69,0
32130,control_change,16,0,7,,,,,,,,,11,11,60,,,
32130,control_change,16,0,1,,,,,,,,,0,11,60,,,
32132,control_change,16,0,2,,,,,,,,,1,11,60,,,
32133,note_on,3,0,1,,,,,,,,,0,,,,81,0
32133,control_change,16,0,8,,,,,,,,,12,11,60,,,
32138,control_change,16,0,9,,,,,,,,,13,11,60,,,
32139,control_change,16,0,3,,,,,,,,,3,11,60,,,
32140,control_change,16,0,10,,,,,,,,,14,11,60,,,
32143,control_change,13,0,6,,,,,,,,,10,11,61,,,
32146,control_change,13,0,1,,,,,,,,,0,11,61,,,
32146,control_change,16,0,7,,,,,,,,,11,11,61,,,
32148,control_change,16,0,2,,,,,,,,,1,11,61,,,
32149,control_change,16,0,8,,,,,,,,,12,11,61,,,
32154,control_change,16,0,9,,,,,,,,,13,11,61,,,
32155,control_change,16,0,3,,,,,,,,,3,11,61,,,
32156,control_change,16,0,10,,,,,,,,,14,11,61,,,
32159,control_change,16,0,6,,,,,,,,,10,11,62,,,
32160,note_on,1,0,6,,,,,,,,,10,,,,69,100
32160,set_tempo,120,1,0,,,,,,389610,,,,,,,,
32162,control_change,16,0,1,,,,,,,,,0,11,62,,,
32162,control_change,16,0,7,,,,,,,,,11,11,62,,,
32163,note_on,1,0,1,,,,,,,,,0,,,,81,82
32164,control_change,16,0,2,,,,,,,,,1,11,62,,,
32165,note_on,1,0,2,,,,,,,,,1,,,,69,0
32165,control_change,16,0,8,,,,,,,,,12,11,62,,,
32165,note_on,0,0,2,,,,,,,,,1,,,,67,81
32166,note_on,0,0,8,,,,,,,,,12,,,,52,98
32166,note_on,1,0,8,,,,,,,,,12,,,,53,0
32170,control_change,16,0,9,,,,,,,,,13,11,62,,,
32171,note_on,1,0,9,,,,,,,,,13,,,,53,0
32171,note_on,0,0,9,,,,,,,,,13,,,,52,89
32171,control_change,16,0,3,,,,,,,,,3,11,62,,,
32172,note_on,0,0,3,,,,,,,,,3,,,,64,81
32172,note_on,0,0,3,,,,,,,,,3,,,,52,81
32172,note_on,0,0,3,,,,,,,,,3,,,,53,0
32172,note_on,1,0,3,,,,,,,,,3,,,,65,0
32172,control_change,16,0,10,,,,,,,,,14,11,62,,,
32173,note_on,0,0,10,,,,,,,,,14,,,,40,73
32173,note_on,1,0,10,,,,,,,,,14,,,,41,0
32183,control_change,23,0,6,,,,,,,,,10,11,61,,,
32186,control_change,24,0,7,,,,,,,,,11,11,61,,,
32186,control_change,23,0,1,,,,,,,,,0,11,61,,,
32188,control_change,23,0,2,,,,,,,,,1,11,61,,,
32189,control_change,23,0,8,,,,,,,,,12,11,61,,,
32194,control_change,23,0,9,,,,,,,,,13,11,61,,,
32195,control_change,23,0,3,,,,,,,,,3,11,61,,,
32196,control_change,23,0,10,,,,,,,,,14,11,61,,,
32207,control_change,24,0,6,,,,,,,,,10,11,60,,,
32210,control_change,24,0,1,,,,,,,,,0,11,60,,,
32210,control_change,24,0,7,,,,,,,,,11,11,60,,,
32212,control_change,24,0,2,,,,,,,,,1,11,60,,,
32213,control_change,24,0,8,,,,,,,,,12,11,60,,,
32218,control_change,24,0,9,,,,,,,,,13,11,60,,,
32219,control_change,24,0,3,,,,,,,,,3,11,60,,,
32220,control_change,24,0,10,,,,,,,,,14,11,60,,,
32220,note_on,13,0,6,,,,,,,,,10,,,,69,0
32220,note_on,0,0,6,,,,,,,,,10,,,,67,100
32223,note_on,13,0,1,,,,,,,,,0,,,,81,0
32223,note_on,0,0,1,,,,,,,,,0,,,,79,82
32231,control_change,11,0,6,,,,,,,,,10,11,59,,,
32234,control_change,24,0,7,,,,,,,,,11,11,59,,,
32234,control_change,11,0,1,,,,,,,,,0,11,59,,,
32236,control_change,24,0,2,,,,,,,,,1,11,59,,,
32237,control_change,24,0,8,,,,,,,,,12,11,59,,,
32242,control_change,24,0,9,,,,,,,,,13,11,59,,,
32243,control_change,24,0,3,,,,,,,,,3,11,59,,,
32244,control_change,24,0,10,,,,,,,,,14,11,59,,,
32255,control_change,24,0,6,,,,,,,,,10,11,58,,,
32258,control_change,24,0,1,,,,,,,,,0,11,58,,,
32258,control_change,24,0,7,,,,,,,,,11,11,58,,,
32260,control_change,24,0,2,,,,,,,,,1,11,58,,,
32261,control_change,24,0,8,,,,,,,,,12,11,58,,,
32266,control_change,24,0,9,,,,,,,,,13,11,58,,,
32267,control_change,24,0,3,,,,,,,,,3,11,58,,,
32268,control_change,24,0,10,,,,,,,,,14,11,58,,,
32270,note_on,15,0,6,,,,,,,,,10,,,,67,0
32273,note_on,15,0,1,,,,,,,,,0,,,,79,0
32279,control_change,9,0,6,,,,,,,,,10,11,57,,,
32280,set_tempo,120,1,0,,,,,,372671,,,,,,,,
32280,note_on,1,0,6,,,,,,,,,10,,,,64,100
32282,control_change,9,0,1,,,,,,,,,0,11,57,,,
32282,control_change,24,0,7,,,,,,,,,11,11,57,,,
32283,note_on,1,0,1,,,,,,,,,0,,,,76,82
32284,control_change,24,0,2,,,,,,,,,1,11,57,,,
32285,control_change,24,0,8,,,,,,,,,12,11,57,,,
32290,control_change,24,0,9,,,,,,,,,13,11,57,,,
32291,control_change,24,0,3,,,,,,,,,3,11,57,,,
32292,control_change,24,0,10,,,,,,,,,14,11,57,,,
32303,control_change,23,0,6,,,,,,,,,10,11,56,,,
32306,control_change,24,0,7,,,,,,,,,11,11,56,,,
32306,control_change,23,0,1,,,,,,,,,0,11,56,,,
32308,control_change,24,0,2,,,,,,,,,1,11,56,,,
32309,control_change,24,0,8,,,,,,,,,12,11,56,,,
32310,note_on,7,0,6,,,,,,,,,10,,,,64,0
32313,note_on,7,0,1,,,,,,,,,0,,,,76,0
32314,control_change,24,0,9,,,,,,,,,13,11,56,,,
32315,control_change,24,0,3,,,,,,,,,3,11,56,,,
32316,control_change,24,0,10,,,,,,,,,14,11,56,,,
32327,control_change,17,0,6,,,,,,,,,10,11,55,,,
32330,control_change,24,0,7,,,,,,,,,11,11,55,,,
32330,control_change,17,0,1,,,,,,,,,0,11,55,,,
32332,control_change,24,0,2,,,,,,,,,1,11,55,,,
32333,control_change,24,0,8,,,,,,,,,12,11,55,,,
32338,control_change,24,0,9,,,,,,,,,13,11,55,,,
32339,control_change,24,0,3,,,,,,,,,3,11,55,,,
32340,control_change,24,0,10,,,,,,,,,14,11,55,,,
32340,note_on,13,0,6,,,,,,,,,10,,,,60,100
32343,note_on,13,0,1,,,,,,,,,0,,,,72,82
32351,control_change,11,0,6,,,,,,,,,10,11,54,,,
32354,control_change,24,0,7,,,,,,,,,11,11,54,,,
32354,control_change,11,0,1,,,,,,,,,0,11,54,,,
32356,control_change,24,0,2,,,,,,,,,1,11,54,,,
32357,control_change,24,0,8,,,,,,,,,12,11,54,,,
32362,control_change,24,0,9,,,,,,,,,13,11,54,,,
32363,control_change,24,0,3,,,,,,,,,3,11,54,,,
32364,control_change,24,0,10,,,,,,,,,14,11,54,,,
32370,note_on,19,0,6,,,,,,,,,10,,,,60,0
32373,note_on,19,0,1,,,,,,,,,0,,,,72,0
32375,control_change,5,0,6,,,,,,,,,10,11,53,,,
32378,control_change,24,0,7,,,,,,,,,11,11,53,,,
32378,control_change,5,0,1,,,,,,,,,0,11,53,,,
32380,control_change,24,0,2,,,,,,,,,1,11,53,,,
32381,control_change,24,0,8,,,,,,,,,12,11,53,,,
32386,control_change,24,0,9,,,,,,,,,13,11,53,,,
32387,control_change,24,0,3,,,,,,,,,3,11,53,,,
32388,control_change,24,0,10,,,,,,,,,14,11,53,,,
32393,note_on,15,0,7,,,,,,,,,11,,,,60,0
32396,note_on,15,0,8,,,,,,,,,12,,,,52,0
32399,control_change,24,0,6,,,,,,,,,10,11,52,,,
32400,note_on,1,0,6,,,,,,,,,10,,,,60,100
32400,set_tempo,120,1,0,,,,,,389610,,,,,,,,
32401,note_on,15,0,9,,,,,,,,,13,,,,52,0
32402,note_on,0,0,3,,,,,,,,,3,,,,52,0
32402,note_on,15,0,3,,,,,,,,,3,,,,64,0
32402,control_change,24,0,1,,,,,,,,,0,11,52,,,
32402,control_change,9,0,7,,,,,,,,,11,11,52,,,
32403,note_on,1,0,7,,,,,,,,,11,,,,60,100
32403,note_on,1,0,1,,,,,,,,,0,,,,72,82
32403,note_on,15,0,10,,,,,,,,,14,,,,40,0
32404,control_change,24,0,2,,,,,,,,,1,11,52,,,
32405,note_on,1,0,2,,,,,,,,,1,,,,67,0
32405,control_change,9,0,8,,,,,,,,,12,11,52,,,
32405,note_on,0,0,2,,,,,,,,,1,,,,65,81
32406,note_on,1,0,8,,,,,,,,,12,,,,50,98
32410,control_change,9,0,9,,,,,,,,,13,11,52,,,
32411,note_on,1,0,9,,,,,,,,,13,,,,50,89
32411,control_change,9,0,3,,,,,,,,,3,11,52,,,
32412,control_change,9,0,10,,,,,,,,,14,11,52,,,
32412,note_on,0,0,3,,,,,,,,,3,,,,62,81
32412,note_on,1,0,3,,,,,,,,,3,,,,50,81
32413,note_on,1,0,10,,,,,,,,,14,,,,38,73
32423,control_change,23,0,6,,,,,,,,,10,11,51,,,
32426,control_change,23,0,1,,,,,,,,,0,11,51,,,
32426,control_change,23,0,7,,,,,,,,,11,11,51,,,
32428,control_change,23,0,2,,,,,,,,,1,11,51,,,
32429,control_change,23,0,8,,,,,,,,,12,11,51,,,
32434,control_change,23,0,9,,,,,,,,,13,11,51,,,
32435,control_change,23,0,3,,,,,,,,,3,11,51,,,
32436,control_change,23,0,10,,,,,,,,,14,11,51,,,
32447,control_change,24,0,6,,,,,,,,,10,11,50,,,
32450,control_change,24,0,1,,,,,,,,,0,11,50,,,
32450,control_change,24,0,7,,,,,,,,,11,11,50,,,
32452,control_change,24,0,2,,,,,,,,,1,11,50,,,
32453,control_change,24,0,8,,,,,,,,,12,11,50,,,
32458,control_change,24,0,9,,,,,,,,,13,11,50,,,
32459,control_change,24,0,3,,,,,,,,,3,11,50,,,
32460,note_on,0,0,6,,,,,,,,,10,,,,59,100
32460,control_change,24,0,10,,,,,,,,,14,11,50,,,
32460,note_on,13,0,6,,,,,,,,,10,,,,60,0
32463,note_on,0,0,1,,,,,,,,,0,,,,71,82
32463,note_on,13,0,7,,,,,,,,,11,,,,60,0
32463,note_on,0,0,7,,,,,,,,,11,,,,59,100
32463,note_on,13,0,1,,,,,,,,,0,,,,72,0
32465,note_on,13,0,2,,,,,,,,,1,,,,72,0
32465,note_on,0,0,2,,,,,,,,,1,,,,71,81
32471,control_change,11,0,6,,,,,,,,,10,11,49,,,
32474,control_change,11,0,1,,,,,,,,,0,11,49,,,
32474,control_change,11,0,7,,,,,,,,,11,11,49,,,
32476,control_change,11,0,2,,,,,,,,,1,11,49,,,
32477,control_change,24,0,8,,,,,,,,,12,11,49,,,
32482,control_change,24,0,9,,,,,,,,,13,11,49,,,
32483,control_change,24,0,3,,,,,,,,,3,11,49,,,
32484,control_change,24,0,10,,,,,,,,,14,11,49,,,
32495,control_change,24,0,6,,,,,,,,,10,11,48,,,
32498,control_change,24,0,1,,,,,,,,,0,11,48,,,
32498,control_change,24,0,7,,,,,,,,,11,11,48,,,
32500,control_change,24,0,2,,,,,,,,,1,11,48,,,
32501,control_change,24,0,8,,,,,,,,,12,11,48,,,
32506,control_change,24,0,9,,,,,,,,,13,11,48,,,
32507,control_change,24,0,3,,,,,,,,,3,11,48,,,
32508,control_change,24,0,10,,,,,,,,,14,11,48,,,
32516,note_on,15,0,8,,,,,,,,,12,,,,50,0
32519,control_change,24,0,6,,,,,,,,,10,11,47,,,
32520,note_on,1,0,6,,,,,,,,,10,,,,59,0
32520,note_on,0,0,6,,,,,,,,,10,,,,62,100
32520,set_tempo,120,1,0,,,,,,372671,,,,,,,,
32521,note_on,15,0,9,,,,,,,,,13,,,,50,0
32522,control_change,24,0,1,,,,,,,,,0,11,47,,,
32522,control_change,24,0,7,,,,,,,,,11,11,47,,,
32523,note_on,1,0,1,,,,,,,,,0,,,,71,0
32523,note_on,15,0,10,,,,,,,,,14,,,,38,0
32523,note_on,0,0,7,,,,,,,,,11,,,,62,100
32523,note_on,0,0,1,,,,,,,,,0,,,,74,82
32523,note_on,1,0,7,,,,,,,,,11,,,,59,0
32524,control_change,24,0,2,,,,,,,,,1,11,47,,,
32525,control_change,9,0,8,,,,,,,,,12,11,47,,,
32525,note_on,1,0,2,,,,,,,,,1,,,,71,0
32525,note_on,0,0,2,,,,,,,,,1,,,,69,81
32526,note_on,1,0,8,,,,,,,,,12,,,,55,98
32530,control_change,9,0,9,,,,,,,,,13,11,47,,,
32531,control_change,24,0,3,,,,,,,,,3,11,47,,,
32531,note_on,1,0,9,,,,,,,,,13,,,,43,89
32532,note_on,1,0,3,,,,,,,,,3,,,,62,0
32532,note_on,0,0,3,,,,,,,,,3,,,,50,0
32532,control_change,9,0,10,,,,,,,,,14,11,47,,,
32532,note_on,0,0,3,,,,,,,,,3,,,,55,81
32532,note_on,0,0,3,,,,,,,,,3,,,,43,81
32533,note_on,1,0,10,,,,,,,,,14,,,,31,73
32580,note_on,0,0,6,,,,,,,,,10,,,,65,100
32580,note_on,60,0,6,,,,,,,,,10,,,,62,0
32583,note_on,0,0,1,,,,,,,,,0,,,,77,82
32583,note_on,60,0,7,,,,,,,,,11,,,,62,0
32583,note_on,0,0,7,,,,,,,,,11,,,,65,100
32583,note_on,60,0,1,,,,,,,,,0,,,,74,0
32585,note_on,0,0,2,,,,,,,,,1,,,,71,81
32585,note_on,60,0,2,,,,,,,,,1,,,,69,0
32630,note_on,50,0,6,,,,,,,,,10,,,,65,0
32633,note_on,50,0,1,,,,,,,,,0,,,,77,0
32633,note_on,50,0,7,,,,,,,,,11,,,,65,0
32635,note_on,50,0,2,,,,,,,,,1,,,,71,0
32635,note_on,0,0,2,,,,,,,,,1,,,,65,0
32636,note_on,110,0,8,,,,,,,,,12,,,,55,0
32640,note_on,10,0,6,,,,,,,,,10,,,,65,100
32640,set_tempo,120,1,0,,,,,,389610,,,,,,,,
32641,note_on,110,0,9,,,,,,,,,13,,,,43,0
32642,note_on,110,0,3,,,,,,,,,3,,,,55,0
32642,note_on,0,0,3,,,,,,,,,3,,,,43,0
32643,note_on,10,0,7,,,,,,,,,11,,,,59,100
32643,note_on,110,0,10,,,,,,,,,14,,,,31,0
32643,note_on,10,0,1,,,,,,,,,0,,,,77,82
32645,note_on,0,0,2,,,,,,,,,1,,,,71,81
32645,note_on,10,0,2,,,,,,,,,1,,,,65,81
32646,note_on,10,0,8,,,,,,,,,12,,,,55,98
32651,note_on,10,0,9,,,,,,,,,13,,,,48,89
32652,note_on,0,0,3,,,,,,,,,3,,,,48,81
32652,note_on,10,0,3,,,,,,,,,3,,,,55,81
32653,note_on,10,0,10,,,,,,,,,14,,,,36,73
32760,note_on,0,0,6,,,,,,,,,10,,,,64,100
32760,note_on,120,0,6,,,,,,,,,10,,,,65,0
32760,set_tempo,120,1,0,,,,,,372671,,,,,,,,
32763,note_on,0,0,7,,,,,,,,,11,,,,60,100
32763,note_on,120,0,7,,,,,,,,,11,,,,59,0
32763,note_on,0,0,1,,,,,,,,,0,,,,76,82
32763,note_on,120,0,1,,,,,,,,,0,,,,77,0
32765,note_on,0,0,2,,,,,,,,,1,,,,65,0
32765,note_on,120,0,2,,,,,,,,,1,,,,71,0
32765,note_on,0,0,2,,,,,,,,,1,,,,72,81
32765,note_on,0,0,2,,,,,,,,,1,,,,64,81
32870,note_on,110,0,6,,,,,,,,,10,,,,64,0
32873,note_on,110,0,1,,,,,,,,,0,,,,76,0
32873,note_on,110,0,7,,,,,,,,,11,,,,60,0
32875,note_on,110,0,2,,,,,,,,,1,,,,72,0
32875,note_on,0,0,2,,,,,,,,,1,,,,64,0
32876,note_on,230,0,8,,,,,,,,,12,,,,55,0
32880,set_tempo,120,1,0,,,,,,389610,,,,,,,,
32880,control_change,10,0,6,,,,,,,,,10,11,47,,,
32880,note_on,0,0,6,,,,,,,,,10,,,,65,100
32881,note_on,230,0,9,,,,,,,,,13,,,,48,0
32882,note_on,0,0,3,,,,,,,,,3,,,,55,0
32882,note_on,230,0,3,,,,,,,,,3,,,,48,0
32883,note_on,230,0,10,,,,,,,,,14,,,,36,0
32883,control_change,10,0,1,,,,,,,,,0,11,47,,,
32883,note_on,0,0,7,,,,,,,,,11,,,,65,100
32883,control_change,10,0,7,,,,,,,,,11,11,47,,,
32883,note_on,0,0,1,,,,,,,,,0,,,,77,82
32885,control_change,10,0,2,,,,,,,,,1,11,47,,,
32885,note_on,0,0,2,,,,,,,,,1,,,,74,81
32885,note_on,0,0,2,,,,,,,,,1,,,,65,81
32886,control_change,10,0,8,,,,,,,,,12,11,47,,,
32886,note_on,0,0,8,,,,,,,,,12,,,,58,98
32891,note_on,0,0,9,,,,,,,,,13,,,,46,89
32891,control_change,10,0,9,,,,,,,,,13,11,47,,,
32892,control_change,10,0,3,,,,,,,,,3,11,47,,,
32892,note_on,0,0,3,,,,,,,,,3,,,,46,81
32892,note_on,0,0,3,,,,,,,,,3,,,,58,81
32893,note_on,0,0,10,,,,,,,,,14,,,,34,73
32893,control_change,10,0,10,,,,,,,,,14,11,47,,,
32903,control_change,23,0,6,,,,,,,,,10,11,48,,,
32906,control_change,23,0,7,,,,,,,,,11,11,48,,,
32906,control_change,23,0,1,,,,,,,,,0,11,48,,,
32908,control_change,23,0,2,,,,,,,,,1,11,48,,,
32909,control_change,23,0,8,,,,,,,,,12,11,48,,,
32914,control_change,23,0,9,,,,,,,,,13,11,48,,,
32915,control_change,23,0,3,,,,,,,,,3,11,48,,,
32916,control_change,23,0,10,,,,,,,,,14,11,48,,,
32927,control_change,24,0,6,,,,,,,,,10,11,49,,,
32930,control_change,24,0,7,,,,,,,,,11,11,49,,,
32930,control_change,24,0,1,,,,,,,,,0,11,49,,,
32932,control_change,24,0,2,,,,,,,,,1,11,49,,,
32933,control_change,24,0,8,,,,,,,,,12,11,49,,,
32938,control_change,24,0,9,,,,,,,,,13,11,49,,,
32939,control_change,24,0,3,,,,,,,,,3,11,49,,,
32940,control_change,24,0,10,,,,,,,,,14,11,49,,,
32940,note_on,13,0,6,,,,,,,,,10,,,,65,0
32940,note_on,0,0,6,,,,,,,,,10,,,,74,100
32943,note_on,13,0,1,,,,,,,,,0,,,,77,0
32943,note_on,0,0,1,,,,,,,,,0,,,,86,82
32951,control_change,11,0,6,,,,,,,,,10,11,50,,,
32954,control_change,11,0,1,,,,,,,,,0,11,50,,,
32954,control_change,24,0,7,,,,,,,,,11,11,50,,,
32956,control_change,24,0,2,,,,,,,,,1,11,50,,,
32957,control_change,24,0,8,,,,,,,,,12,11,50,,,
32962,control_change,24,0,9,,,,,,,,,13,11,50,,,
32963,control_change,24,0,3,,,,,,,,,3,11,50,,,
32964,control_change,24,0,10,,,,,,,,,14,11,50,,,
32975,control_change,24,0,6,,,,,,,,,10,11,51,,,
32978,control_change,24,0,7,,,,,,,,,11,11,51,,,
32978,control_change,24,0,1,,,,,,,,,0,11,51,,,
32980,control_change,24,0,2,,,,,,,,,1,11,51,,,
32981,control_change,24,0,8,,,,,,,,,12,11,51,,,
32986,control_change,24,0,9,,,,,,,,,13,11,51,,,
32987,control_change,24,0,3,,,,,,,,,3,11,51,,,
32988,control_change,24,0,10,,,,,,,,,14,11,51,,,
32990,note_on,15,0,6,,,,,,,,,10,,,,74,0
32993,note_on,15,0,1,,,,,,,,,0,,,,86,0
32999,control_change,9,0,6,,,,,,,,,10,11,52,,,
33000,set_tempo,120,1,0,,,,,,372671,,,,,,,,
33000,note_on,1,0,6,,,,,,,,,10,,,,74,100
33002,control_change,9,0,1,,,,,,,,,0,11,52,,,
33002,control_change,24,0,7,,,,,,,,,11,11,52,,,
33003,note_on,1,0,1,,,,,,,,,0,,,,86,82
33004,control_change,24,0,2,,,,,,,,,1,11,52,,,
33005,control_change,24,0,8,,,,,,,,,12,11,52,,,
33010,control_change,24,0,9,,,,,,,,,13,11,52,,,
33011,control_change,24,0,3,,,,,,,,,3,11,52,,,
33012,control_change,24,0,10,,,,,,,,,14,11,52,,,
33023,control_change,23,0,6,,,,,,,,,10,11,53,,,
33026,control_change,23,0,1,,,,,,,,,0,11,53,,,
33026,control_change,24,0,7,,,,,,,,,11,11,53,,,
33028,control_change,24,0,2,,,,,,,,,1,11,53,,,
33029,control_change,24,0,8,,,,,,,,,12,11,53,,,
33030,note_on,7,0,6,,,,,,,,,10,,,,74,0
33033,note_on,7,0,1,,,,,,,,,0,,,,86,0
33034,control_change,24,0,9,,,,,,,,,13,11,53,,,
33035,control_change,24,0,3,,,,,,,,,3,11,53,,,
33036,control_change,24,0,10,,,,,,,,,14,11,53,,,
33047,control_change,17,0,6,,,,,,,,,10,11,54,,,
33050,control_change,24,0,7,,,,,,,,,11,11,54,,,
33050,control_change,17,0,1,,,,,,,,,0,11,54,,,
33052,control_change,24,0,2,,,,,,,,,1,11,54,,,
33053,control_change,24,0,8,,,,,,,,,12,11,54,,,
33058,control_change,24,0,9,,,,,,,,,13,11,54,,,
33059,control_change,24,0,3,,,,,,,,,3,11,54,,,
33060,control_change,24,0,10,,,,,,,,,14,11,54,,,
33060,note_on,13,0,6,,,,,,,,,10,,,,74,100
33063,note_on,13,0,1,,,,,,,,,0,,,,86,82
33071,control_change,11,0,6,,,,,,,,,10,11,55,,,
33074,control_change,11,0,1,,,,,,,,,0,11,55,,,
33074,control_change,24,0,7,,,,,,,,,11,11,55,,,
33076,control_change,24,0,2,,,,,,,,,1,11,55,,,
33077,control_change,24,0,8,,,,,,,,,12,11,55,,,
33082,control_change,24,0,9,,,,,,,,,13,11,55,,,
33083,control_change,24,0,3,,,,,,,,,3,11,55,,,
33084,control_change,24,0,10,,,,,,,,,14,11,55,,,
33090,note_on,19,0,6,,,,,,,,,10,,,,74,0
33093,note_on,19,0,1,,,,,,,,,0,,,,86,0
33095,control_change,5,0,6,,,,,,,,,10,11,56,,,
33098,control_change,24,0,7,,,,,,,,,11,11,56,,,
33098,control_change,5,0,1,,,,,,,,,0,11,56,,,
33100,control_change,24,0,2,,,,,,,,,1,11,56,,,
33101,control_change,24,0,8,,,,,,,,,12,11,56,,,
33106,control_change,24,0,9,,,,,,,,,13,11,56,,,
33107,control_change,24,0,3,,,,,,,,,3,11,56,,,
33108,control_change,24,0,10,,,,,,,,,14,11,56,,,
33119,control_change,24,0,6,,,,,,,,,10,11,57,,,
33120,set_tempo,120,1,0,,,,,,389610,,,,,,,,
33120,note_on,1,0,6,,,,,,,,,10,,,,74,100
33122,control_change,24,0,1,,,,,,,,,0,11,57,,,
33122,control_change,24,0,7,,,,,,,,,11,11,57,,,
33123,note_on,1,0,1,,,,,,,,,0,,,,86,82
33124,control_change,24,0,2,,,,,,,,,1,11,57,,,
33125,control_change,24,0,8,,,,,,,,,12,11,57,,,
33125,note_on,0,0,2,,,,,,,,,1,,,,72,81
33125,note_on,1,0,2,,,,,,,,,1,,,,74,0
33126,note_on,0,0,8,,,,,,,,,12,,,,57,98
33126,note_on,1,0,8,,,,,,,,,12,,,,58,0
33130,control_change,24,0,9,,,,,,,,,13,11,57,,,
33131,note_on,1,0,9,,,,,,,,,13,,,,46,0
33131,note_on,0,0,9,,,,,,,,,13,,,,45,89
33131,control_change,24,0,3,,,,,,,,,3,11,57,,,
33132,control_change,24,0,10,,,,,,,,,14,11,57,,,
33132,note_on,1,0,3,,,,,,,,,3,,,,58,0
33132,note_on,0,0,3,,,,,,,,,3,,,,46,0
33132,note_on,0,0,3,,,,,,,,,3,,,,45,81
33132,note_on,0,0,3,,,,,,,,,3,,,,57,81
33133,note_on,1,0,10,,,,,,,,,14,,,,34,0
33133,note_on,0,0,10,,,,,,,,,14,,,,33,73
33143,control_change,23,0,6,,,,,,,,,10,11,58,,,
33146,control_change,24,0,7,,,,,,,,,11,11,58,,,
33146,control_change,23,0,1,,,,,,,,,0,11,58,,,
33148,control_change,23,0,2,,,,,,,,,1,11,58,,,
33149,control_change,23,0,8,,,,,,,,,12,11,58,,,
33154,control_change,23,0,9,,,,,,,,,13,11,58,,,
33155,control_change,23,0,3,,,,,,,,,3,11,58,,,
33156,control_change,23,0,10,,,,,,,,,14,11,58,,,
33167,control_change,24,0,6,,,,,,,,,10,11,59,,,
33170,control_change,24,0,7,,,,,,,,,11,11,59,,,
33170,control_change,24,0,1,,,,,,,,,0,11,59,,,
33172,control_change,24,0,2,,,,,,,,,1,11,59,,,
33173,control_change,24,0,8,,,,,,,,,12,11,59,,,
33178,control_change,24,0,9,,,,,,,,,13,11,59,,,
33179,control_change,24,0,3,,,,,,,,,3,11,59,,,
33180,note_on,0,0,6,,,,,,,,,10,,,,72,100
33180,control_change,24,0,10,,,,,,,,,14,11,59,,,
33180,note_on,13,0,6,,,,,,,,,10,,,,74,0
33183,note_on,13,0,1,,,,,,,,,0,,,,86,0
33183,note_on,0,0,1,,,,,,,,,0,,,,84,82
33191,control_change,11,0,6,,,,,,,,,10,11,60,,,
33194,control_change,24,0,7,,,,,,,,,11,11,60,,,
33194,control_change,11,0,1,,,,,,,,,0,11,60,,,
33196,control_change,24,0,2,,,,,,,,,1,11,60,,,
33197,control_change,24,0,8,,,,,,,,,12,11,60,,,
33202,control_change,24,0,9,,,,,,,,,13,11,60,,,
33203,control_change,24,0,3,,,,,,,,,3,11,60,,,
33204,control_change,24,0,10,,,,,,,,,14,11,60,,,
33215,control_change,24,0,6,,,,,,,,,10,11,61,,,
33218,control_change,24,0,1,,,,,,,,,0,11,61,,,
33218,control_change,24,0,7,,,,,,,,,11,11,61,,,
33220,control_change,24,0,2,,,,,,,,,1,11,61,,,
33221,control_change,24,0,8,,,,,,,,,12,11,61,,,
33226,control_change,24,0,9,,,,,,,,,13,11,61,,,
33227,control_change,24,0,3,,,,,,,,,3,11,61,,,
33228,control_change,24,0,10,,,,,,,,,14,11,61,,,
33230,note_on,15,0,6,,,,,,,,,10,,,,72,0
33233,note_on,15,0,1,,,,,,,,,0,,,,84,0
33239,control_change,9,0,6,,,,,,,,,10,11,62,,,
33240,note_on,1,0,6,,,,,,,,,10,,,,70,100
33240,set_tempo,120,1,0,,,,,,372671,,,,,,,,
33242,control_change,9,0,1,,,,,,,,,0,11,62,,,
33242,control_change,24,0,7,,,,,,,,,11,11,62,,,
33243,note_on,1,0,1,,,,,,,,,0,,,,82,82
33244,control_change,24,0,2,,,,,,,,,1,11,62,,,
33245,note_on,0,0,2,,,,,,,,,1,,,,69,81
33245,note_on,1,0,2,,,,,,,,,1,,,,65,0
33245,control_change,24,0,8,,,,,,,,,12,11,62,,,
33246,note_on,1,0,8,,,,,,,,,12,,,,57,0
33246,note_on,0,0,8,,,,,,,,,12,,,,53,98
33250,control_change,24,0,9,,,,,,,,,13,11,62,,,
33251,control_change,24,0,3,,,,,,,,,3,11,62,,,
33251,note_on,1,0,9,,,,,,,,,13,,,,45,0
33251,note_on,0,0,9,,,,,,,,,13,,,,41,89
33252,note_on,0,0,3,,,,,,,,,3,,,,57,0
33252,note_on,0,0,3,,,,,,,,,3,,,,41,81
33252,control_change,24,0,10,,,,,,,,,14,11,62,,,
33252,note_on,1,0,3,,,,,,,,,3,,,,45,0
33252,note_on,0,0,3,,,,,,,,,3,,,,53,81
33253,note_on,1,0,10,,,,,,,,,14,,,,33,0
33253,note_on,0,0,10,,,,,,,,,14,,,,29,73
33263,control_change,23,0,6,,,,,,,,,10,11,61,,,
33266,control_change,24,0,7,,,,,,,,,11,11,61,,,
33266,control_change,23,0,1,,,,,,,,,0,11,61,,,
33268,control_change,23,0,2,,,,,,,,,1,11,61,,,
33269,control_change,23,0,8,,,,,,,,,12,11,61,,,
33270,note_on,7,0,6,,,,,,,,,10,,,,70,0
33273,note_on,7,0,1,,,,,,,,,0,,,,82,0
33274,control_change,23,0,9,,,,,,,,,13,11,61,,,
33275,control_change,23,0,3,,,,,,,,,3,11,61,,,
33276,control_change,23,0,10,,,,,,,,,14,11,61,,,
33287,control_change,17,0,6,,,,,,,,,10,11,60,,,
33290,control_change,24,0,7,,,,,,,,,11,11,60,,,
33290,control_change,17,0,1,,,,,,,,,0,11,60,,,
33292,control_change,24,0,2,,,,,,,,,1,11,60,,,
33293,control_change,24,0,8,,,,,,,,,12,11,60,,,
33298,control_change,24,0,9,,,,,,,,,13,11,60,,,
33299,control_change,24,0,3,,,,,,,,,3,11,60,,,
33300,control_change,24,0,10,,,,,,,,,14,11,60,,,
33300,note_on,13,0,6,,,,,,,,,10,,,,69,100
33303,note_on,13,0,1,,,,,,,,,0,,,,81,82
33305,note_on,13,0,2,,,,,,,,,1,,,,72,0
33305,note_on,0,0,2,,,,,,,,,1,,,,77,81
33311,control_change,11,0,6,,,,,,,,,10,11,59,,,
33314,control_change,11,0,1,,,,,,,,,0,11,59,,,
33314,control_change,24,0,7,,,,,,,,,11,11,59,,,
33316,control_change,11,0,2,,,,,,,,,1,11,59,,,
33317,control_change,24,0,8,,,,,,,,,12,11,59,,,
33322,control_change,24,0,9,,,,,,,,,13,11,59,,,
33323,control_change,24,0,3,,,,,,,,,3,11,59,,,
33324,control_change,24,0,10,,,,,,,,,14,11,59,,,
33330,note_on,19,0,6,,,,,,,,,10,,,,69,0
33333,note_on,19,0,1,,,,,,,,,0,,,,81,0
33335,control_change,5,0,6,,,,,,,,,10,11,58,,,
33338,control_change,24,0,7,,,,,,,,,11,11,58,,,
33338,control_change,5,0,1,,,,,,,,,0,11,58,,,
33340,control_change,24,0,2,,,,,,,,,1,11,58,,,
33341,control_change,24,0,8,,,,,,,,,12,11,58,,,
33346,control_change,24,0,9,,,,,,,,,13,11,58,,,
33347,control_change,24,0,3,,,,,,,,,3,11,58,,,
33348,control_change,24,0,10,,,,,,,,,14,11,58,,,
33353,note_on,15,0,7,,,,,,,,,11,,,,65,0
33355,note_on,0,0,2,,,,,,,,,1,,,,69,0
33355,note_on,15,0,2,,,,,,,,,1,,,,77,0
33356,note_on,15,0,8,,,,,,,,,12,,,,53,0
33359,control_change,24,0,6,,,,,,,,,10,11,57,,,
33360,note_on,1,0,6,,,,,,,,,10,,,,69,100
33360,set_tempo,120,1,0,,,,,,401338,,,,,,,,
33361,note_on,15,0,9,,,,,,,,,13,,,,41,0
33362,note_on,15,0,3,,,,,,,,,3,,,,53,0
33362,note_on,0,0,3,,,,,,,,,3,,,,41,0
33362,control_change,24,0,1,,,,,,,,,0,11,57,,,
33362,control_change,9,0,7,,,,,,,,,11,11,57,,,
33363,note_on,1,0,1,,,,,,,,,0,,,,81,82
33363,note_on,1,0,7,,,,,,,,,11,,,,62,100
33363,note_on,15,0,10,,,,,,,,,14,,,,29,0
33364,control_change,9,0,2,,,,,,,,,1,11,57,,,
33365,control_change,9,0,8,,,,,,,,,12,11,57,,,
33365,note_on,1,0,2,,,,,,,,,1,,,,74,81
33366,note_on,1,0,8,,,,,,,,,12,,,,58,98
33370,control_change,9,0,9,,,,,,,,,13,11,57,,,
33371,control_change,9,0,3,,,,,,,,,3,11,57,,,
33371,note_on,1,0,9,,,,,,,,,13,,,,46,89
33372,note_on,1,0,3,,,,,,,,,3,,,,58,81
33372,note_on,0,0,3,,,,,,,,,3,,,,46,81
33372,control_change,9,0,10,,,,,,,,,14,11,57,,,
33373,note_on,1,0,10,,,,,,,,,14,,,,34,73
33383,control_change,23,0,6,,,,,,,,,10,11,56,,,
33386,control_change,23,0,1,,,,,,,,,0,11,56,,,
33386,control_change,23,0,7,,,,,,,,,11,11,56,,,
33388,control_change,23,0,2,,,,,,,,,1,11,56,,,
33389,control_change,23,0,8,,,,,,,,,12,11,56,,,
33394,control_change,23,0,9,,,,,,,,,13,11,56,,,
33395,control_change,23,0,3,,,,,,,,,3,11,56,,,
33396,control_change,23,0,10,,,,,,,,,14,11,56,,,
33407,control_change,24,0,6,,,,,,,,,10,11,55,,,
33410,control_change,24,0,7,,,,,,,,,11,11,55,,,
33410,control_change,24,0,1,,,,,,,,,0,11,55,,,
33412,control_change,24,0,2,,,,,,,,,1,11,55,,,
33413,control_change,24,0,8,,,,,,,,,12,11,55,,,
33418,control_change,24,0,9,,,,,,,,,13,11,55,,,
33419,control_change,24,0,3,,,,,,,,,3,11,55,,,
33420,note_on,13,0,6,,,,,,,,,10,,,,69,0
33420,note_on,0,0,6,,,,,,,,,10,,,,67,100
33420,control_change,24,0,10,,,,,,,,,14,11,55,,,
33423,note_on,0,0,1,,,,,,,,,0,,,,79,82
33423,note_on,13,0,1,,,,,,,,,0,,,,81,0
33425,note_on,13,0,2,,,,,,,,,1,,,,79,81
33431,control_change,11,0,6,,,,,,,,,10,11,54,,,
33434,control_change,11,0,1,,,,,,,,,0,11,54,,,
33434,control_change,24,0,7,,,,,,,,,11,11,54,,,
33436,control_change,11,0,2,,,,,,,,,1,11,54,,,
33437,control_change,24,0,8,,,,,,,,,12,11,54,,,
33442,control_change,24,0,9,,,,,,,,,13,11,54,,,
33443,control_change,24,0,3,,,,,,,,,3,11,54,,,
33444,control_change,24,0,10,,,,,,,,,14,11,54,,,
33455,control_change,24,0,6,,,,,,,,,10,11,53,,,
33458,control_change,24,0,7,,,,,,,,,11,11,53,,,
33458,control_change,24,0,1,,,,,,,,,0,11,53,,,
33460,control_change,24,0,2,,,,,,,,,1,11,53,,,
33461,control_change,24,0,8,,,,,,,,,12,11,53,,,
33466,control_change,24,0,9,,,,,,,,,13,11,53,,,
33467,control_change,24,0,3,,,,,,,,,3,11,53,,,
33468,control_change,24,0,10,,,,,,,,,14,11,53,,,
33470,note_on,15,0,6,,,,,,,,,10,,,,67,0
33473,note_on,15,0,1,,,,,,,,,0,,,,79,0
33479,control_change,9,0,6,,,,,,,,,10,11,52,,,
33480,set_tempo,120,1,0,,,,,,382166,,,,,,,,
33480,note_on,1,0,6,,,,,,,,,10,,,,65,100
33482,control_change,24,0,7,,,,,,,,,11,11,52,,,
33482,control_change,9,0,1,,,,,,,,,0,11,52,,,
33483,note_on,0,0,7,,,,,,,,,11,,,,58,100
33483,note_on,1,0,7,,,,,,,,,11,,,,62,0
33483,note_on,1,0,1,,,,,,,,,0,,,,77,82
33484,control_change,24,0,2,,,,,,,,,1,11,52,,,
33485,control_change,24,0,8,,,,,,,,,12,11,52,,,
33485,note_on,1,0,2,,,,,,,,,1,,,,79,0
33485,note_on,0,0,2,,,,,,,,,1,,,,74,0
33485,note_on,0,0,2,,,,,,,,,1,,,,70,81
33485,note_on,0,0,2,,,,,,,,,1,,,,77,81
33486,note_on,1,0,8,,,,,,,,,12,,,,58,0
33486,note_on,0,0,8,,,,,,,,,12,,,,60,98
33490,control_change,24,0,9,,,,,,,,,13,11,52,,,
33491,control_change,24,0,3,,,,,,,,,3,11,52,,,
33491,note_on,0,0,9,,,,,,,,,13,,,,48,89
33491,note_on,1,0,9,,,,,,,,,13,,,,46,0
33492,note_on,0,0,3,,,,,,,,,3,,,,58,0
33492,note_on,0,0,3,,,,,,,,,3,,,,48,81
33492,note_on,0,0,3,,,,,,,,,3,,,,60,81
33492,control_change,24,0,10,,,,,,,,,14,11,52,,,
33492,note_on,1,0,3,,,,,,,,,3,,,,46,0
33493,note_on,1,0,10,,,,,,,,,14,,,,34,0
33493,note_on,0,0,10,,,,,,,,,14,,,,36,73
33503,control_change,23,0,6,,,,,,,,,10,11,51,,,
33506,control_change,23,0,1,,,,,,,,,0,11,51,,,
33506,control_change,23,0,7,,,,,,,,,11,11,51,,,
33508,control_change,23,0,2,,,,,,,,,1,11,51,,,
33509,control_change,23,0,8,,,,,,,,,12,11,51,,,
33510,note_on,7,0,6,,,,,,,,,10,,,,65,0
33513,note_on,7,0,1,,,,,,,,,0,,,,77,0
33514,control_change,23,0,9,,,,,,,,,13,11,51,,,
33515,control_change,23,0,3,,,,,,,,,3,11,51,,,
33516,control_change,23,0,10,,,,,,,,,14,11,51,,,
33527,control_change,17,0,6,,,,,,,,,10,11,50,,,
33530,control_change,17,0,1,,,,,,,,,0,11,50,,,
33530,control_change,24,0,7,,,,,,,,,11,11,50,,,
33532,control_change,24,0,2,,,,,,,,,1,11,50,,,
33533,control_change,24,0,8,,,,,,,,,12,11,50,,,
33538,control_change,24,0,9,,,,,,,,,13,11,50,,,
33539,control_change,24,0,3,,,,,,,,,3,11,50,,,
33540,control_change,24,0,10,,,,,,,,,14,11,50,,,
33540,note_on,13,0,6,,,,,,,,,10,,,,64,100
33543,note_on,13,0,1,,,,,,,,,0,,,,76,82
33545,note_on,13,0,2,,,,,,,,,1,,,,77,0
33545,note_on,0,0,2,,,,,,,,,1,,,,76,81
33551,control_change,11,0,6,,,,,,,,,10,11,49,,,
33554,control_change,24,0,7,,,,,,,,,11,11,49,,,
33554,control_change,11,0,1,,,,,,,,,0,11,49,,,
33556,control_change,11,0,2,,,,,,,,,1,11,49,,,
33557,control_change,24,0,8,,,,,,,,,12,11,49,,,
33562,control_change,24,0,9,,,,,,,,,13,11,49,,,
33563,control_change,24,0,3,,,,,,,,,3,11,49,,,
33564,control_change,24,0,10,,,,,,,,,14,11,49,,,
33570,note_on,19,0,6,,,,,,,,,10,,,,64,0
33573,note_on,19,0,1,,,,,,,,,0,,,,76,0
33575,control_change,5,0,6,,,,,,,,,10,11,48,,,
33578,control_change,24,0,7,,,,,,,,,11,11,48,,,
33578,control_change,5,0,1,,,,,,,,,0,11,48,,,
33580,control_change,24,0,2,,,,,,,,,1,11,48,,,
33581,control_change,24,0,8,,,,,,,,,12,11,48,,,
33586,control_change,24,0,9,,,,,,,,,13,11,48,,,
33587,control_change,24,0,3,,,,,,,,,3,11,48,,,
33588,control_change,24,0,10,,,,,,,,,14,11,48,,,
33593,note_on,15,0,7,,,,,,,,,11,,,,58,0
33595,note_on,0,0,2,,,,,,,,,1,,,,70,0
33595,note_on,15,0,2,,,,,,,,,1,,,,76,0
33596,note_on,15,0,8,,,,,,,,,12,,,,60,0
33599,control_change,24,0,6,,,,,,,,,10,11,47,,,
33600,set_tempo,120,1,0,,,,,,431655,,,,,,,,
33600,note_on,1,0,6,,,,,,,,,10,,,,65,100
33601,note_on,15,0,9,,,,,,,,,13,,,,48,0
33602,control_change,24,0,1,,,,,,,,,0,11,47,,,
33602,note_on,15,0,3,,,,,,,,,3,,,,60,0
33602,control_change,9,0,7,,,,,,,,,11,11,47,,,
33602,note_on,0,0,3,,,,,,,,,3,,,,48,0
33603,note_on,1,0,7,,,,,,,,,11,,,,57,100
33603,note_on,15,0,10,,,,,,,,,14,,,,36,0
33603,note_on,1,0,1,,,,,,,,,0,,,,77,82
33604,control_change,9,0,2,,,,,,,,,1,11,47,,,
33605,note_on,0,0,2,,,,,,,,,1,,,,69,81
33605,note_on,1,0,2,,,,,,,,,1,,,,77,81
33605,control_change,9,0,8,,,,,,,,,12,11,47,,,
33606,note_on,1,0,8,,,,,,,,,12,,,,53,98
33610,control_change,9,0,9,,,,,,,,,13,11,47,,,
33611,note_on,1,0,9,,,,,,,,,13,,,,41,89
33611,control_change,9,0,3,,,,,,,,,3,11,47,,,
33612,control_change,9,0,10,,,,,,,,,14,11,47,,,
33612,note_on,1,0,3,,,,,,,,,3,,,,53,81
33612,note_on,0,0,3,,,,,,,,,3,,,,41,81
33613,note_on,1,0,10,,,,,,,,,14,,,,29,73
33660,set_tempo,60,1,0,,,,,,461538,,,,,,,,
33664,note_on,0,0,4,,,,,,,,,4,,,,53,86
33664,control_change,1740,0,4,,,,,,,,,4,11,47,,,
33666,note_on,0,0,5,,,,,,,,,5,,,,41,86
33666,control_change,7620,0,5,,,,,,,,,5,11,47,,,
33720,set_tempo,60,1,0,,,,,,428571,,,,,,,,
33720,note_on,120,0,6,,,,,,,,,10,,,,65,0
33723,note_on,120,0,1,,,,,,,,,0,,,,77,0
33723,note_on,120,0,7,,,,,,,,,11,,,,57,0
33724,note_on,0,0,4,,,,,,,,,4,,,,53,86
33724,note_on,60,0,4,,,,,,,,,4,,,,53,0
33725,note_on,0,0,2,,,,,,,,,1,,,,77,0
33725,note_on,120,0,2,,,,,,,,,1,,,,69,0
33726,note_on,0,0,5,,,,,,,,,5,,,,41,86
33726,note_on,120,0,8,,,,,,,,,12,,,,53,0
33726,note_on,60,0,5,,,,,,,,,5,,,,41,0
33731,note_on,120,0,9,,,,,,,,,13,,,,41,0
33732,note_on,0,0,3,,,,,,,,,3,,,,53,0
33732,note_on,120,0,3,,,,,,,,,3,,,,41,0
33733,note_on,120,0,10,,,,,,,,,14,,,,29,0
33780,set_tempo,60,1,0,,,,,,400000,,,,,,,,
33784,note_on,60,0,4,,,,,,,,,4,,,,53,0
33784,note_on,0,0,4,,,,,,,,,4,,,,53,86
33786,note_on,0,0,5,,,,,,,,,5,,,,41,86
33786,note_on,60,0,5,,,,,,,,,5,,,,41,0
33840,set_tempo,60,1,0,,,,,,389610,,,,,,,,
33843,note_on,120,0,1,,,,,,,,,0,,,,89,95
33844,note_on,60,0,4,,,,,,,,,4,,,,53,0
33844,note_on,0,0,4,,,,,,,,,4,,,,53,86
33845,note_on,120,0,2,,,,,,,,,1,,,,73,94
33845,note_on,0,0,2,,,,,,,,,1,,,,77,94
33846,note_on,0,0,5,,,,,,,,,5,,,,41,86
33846,note_on,60,0,5,,,,,,,,,5,,,,41,0
33846,note_on,120,0,8,,,,,,,,,12,,,,58,98
33851,note_on,120,0,9,,,,,,,,,13,,,,46,89
33852,note_on,120,0,3,,,,,,,,,3,,,,65,94
33852,note_on,0,0,3,,,,,,,,,3,,,,61,94
33853,note_on,120,0,10,,,,,,,,,14,,,,34,73
33960,note_on,240,0,6,,,,,,,,,10,,,,58,100
33960,set_tempo,120,1,0,,,,,,372671,,,,,,,,
33961,note_on,115,0,8,,,,,,,,,12,,,,58,0
33963,note_on,240,0,7,,,,,,,,,11,,,,58,100
33966,note_on,115,0,9,,,,,,,,,13,,,,46,0
33968,note_on,115,0,10,,,,,,,,,14,,,,34,0
34080,set_tempo,120,1,0,,,,,,389610,,,,,,,,
34080,note_on,120,0,6,,,,,,,,,10,,,,58,0
34083,note_on,120,0,7,,,,,,,,,11,,,,58,0
34086,note_on,125,0,8,,,,,,,,,12,,,,61,98
34091,note_on,125,0,9,,,,,,,,,13,,,,49,89
34093,note_on,125,0,10,,,,,,,,,14,,,,37,73
34200,set_tempo,120,1,0,,,,,,372671,,,,,,,,
34200,note_on,120,0,6,,,,,,,,,10,,,,61,100
34201,note_on,115,0,8,,,,,,,,,12,,,,61,0
34203,note_on,120,0,7,,,,,,,,,11,,,,61,100
34203,note_on,0,0,1,,,,,,,,,0,,,,87,82
34203,note_on,360,0,1,,,,,,,,,0,,,,89,0
34205,note_on,0,0,2,,,,,,,,,1,,,,72,81
34205,note_on,0,0,2,,,,,,,,,1,,,,75,81
34205,note_on,0,0,2,,,,,,,,,1,,,,73,0
34205,note_on,360,0,2,,,,,,,,,1,,,,77,0
34206,note_on,115,0,9,,,,,,,,,13,,,,49,0
34208,note_on,115,0,10,,,,,,,,,14,,,,37,0
34212,note_on,0,0,3,,,,,,,,,3,,,,65,0
34212,note_on,360,0,3,,,,,,,,,3,,,,61,0
34212,note_on,0,0,3,,,,,,,,,3,,,,60,81
34212,note_on,0,0,3,,,,,,,,,3,,,,63,81
34263,note_on,60,0,1,,,,,,,,,0,,,,87,0
34263,note_on,0,0,1,,,,,,,,,0,,,,85,82
34265,note_on,0,0,2,,,,,,,,,1,,,,73,81
34265,note_on,0,0,2,,,,,,,,,1,,,,70,81
34265,note_on,0,0,2,,,,,,,,,1,,,,75,0
34265,note_on,60,0,2,,,,,,,,,1,,,,72,0
34272,note_on,60,0,3,,,,,,,,,3,,,,60,0
34272,note_on,0,0,3,,,,,,,,,3,,,,63,0
34272,note_on,0,0,3,,,,,,,,,3,,,,58,81
34272,note_on,0,0,3,,,,,,,,,3,,,,61,81
34313,note_on,50,0,1,,,,,,,,,0,,,,85,0
34315,note_on,0,0,2,,,,,,,,,1,,,,70,0
34315,note_on,50,0,2,,,,,,,,,1,,,,73,0
34320,set_tempo,120,1,0,,,,,,389610,,,,,,,,
34320,note_on,120,0,6,,,,,,,,,10,,,,61,0
34322,note_on,50,0,3,,,,,,,,,3,,,,61,0
34322,note_on,0,0,3,,,,,,,,,3,,,,58,0
34323,note_on,10,0,1,,,,,,,,,0,,,,84,82
34323,note_on,120,0,7,,,,,,,,,11,,,,61,0
34325,note_on,10,0,2,,,,,,,,,1,,,,69,81
34325,note_on,0,0,2,,,,,,,,,1,,,,72,81
34326,note_on,125,0,8,,,,,,,,,12,,,,65,98
34331,note_on,125,0,9,,,,,,,,,13,,,,53,89
34332,note_on,10,0,3,,,,,,,,,3,,,,57,81
34332,note_on,0,0,3,,,,,,,,,3,,,,60,81
34333,note_on,125,0,10,,,,,,,,,14,,,,41,73
34440,note_on,120,0,6,,,,,,,,,10,,,,65,100
34440,set_tempo,120,1,0,,,,,,372671,,,,,,,,
34441,note_on,115,0,8,,,,,,,,,12,,,,65,0
34443,note_on,120,0,1,,,,,,,,,0,,,,84,0
34443,note_on,120,0,7,,,,,,,,,11,,,,65,80
34443,note_on,0,0,1,,,,,,,,,0,,,,87,95
34445,note_on,120,0,2,,,,,,,,,1,,,,72,0
34445,note_on,0,0,2,,,,,,,,,1,,,,69,0
34445,note_on,0,0,2,,,,,,,,,1,,,,72,94
34445,note_on,0,0,2,,,,,,,,,1,,,,75,94
34446,note_on,115,0,9,,,,,,,,,13,,,,53,0
34448,note_on,115,0,10,,,,,,,,,14,,,,41,0
34452,note_on,0,0,3,,,,,,,,,3,,,,60,94
34452,note_on,0,0,3,,,,,,,,,3,,,,63,94
34452,note_on,0,0,3,,,,,,,,,3,,,,57,0
34452,note_on,120,0,3,,,,,,,,,3,,,,60,0
34560,note_on,120,0,6,,,,,,,,,10,,,,65,0
34560,set_tempo,120,1,0,,,,,,389610,,,,,,,,
34560,note_on,0,0,6,,,,,,,,,10,,,,58,100
34563,note_on,0,0,7,,,,,,,,,11,,,,58,80
34563,note_on,120,0,7,,,,,,,,,11,,,,65,0
34566,note_on,125,0,8,,,,,,,,,12,,,,58,98
34571,note_on,125,0,9,,,,,,,,,13,,,,46,89
34573,note_on,125,0,10,,,,,,,,,14,,,,34,73
34623,note_on,180,0,1,,,,,,,,,0,,,,87,0
34623,note_on,0,0,1,,,,,,,,,0,,,,85,82
34625,note_on,0,0,2,,,,,,,,,1,,,,72,0
34625,note_on,0,0,2,,,,,,,,,1,,,,73,81
34625,note_on,180,0,2,,,,,,,,,1,,,,75,0
34625,note_on,0,0,2,,,,,,,,,1,,,,70,81
34632,note_on,0,0,3,,,,,,,,,3,,,,60,0
34632,note_on,0,0,3,,,,,,,,,3,,,,61,81
34632,note_on,0,0,3,,,,,,,,,3,,,,58,81
34632,note_on,180,0,3,,,,,,,,,3,,,,63,0
34680,note_on,0,0,6,,,,,,,,,10,,,,60,100
34680,note_on,120,0,6,,,,,,,,,10,,,,58,0
34680,set_tempo,120,1,0,,,,,,372671,,,,,,,,
34683,note_on,60,0,1,,,,,,,,,0,,,,85,0
34683,note_on,0,0,1,,,,,,,,,0,,,,84,82
34683,note_on,120,0,7,,,,,,,,,11,,,,58,0
34683,note_on,0,0,7,,,,,,,,,11,,,,60,80
34684,note_on,840,0,4,,,,,,,,,4,,,,53,0
34685,note_on,60,0,2,,,,,,,,,1,,,,70,0
34685,note_on,0,0,2,,,,,,,,,1,,,,73,0
34685,note_on,0,0,2,,,,,,,,,1,,,,72,81
34685,note_on,0,0,2,,,,,,,,,1,,,,68,81
34686,note_on,840,0,5,,,,,,,,,5,,,,41,0
34686,note_on,120,0,8,,,,,,,,,12,,,,58,0
34686,note_on,0,0,8,,,,,,,,,12,,,,60,98
34691,note_on,120,0,9,,,,,,,,,13,,,,46,0
34691,note_on,0,0,9,,,,,,,,,13,,,,48,89
34692,note_on,0,0,3,,,,,,,,,3,,,,56,81
34692,note_on,0,0,3,,,,,,,,,3,,,,60,81
34692,note_on,60,0,3,,,,,,,,,3,,,,58,0
34692,note_on,0,0,3,,,,,,,,,3,,,,61,0
34693,note_on,120,0,10,,,,,,,,,14,,,,34,0
34693,note_on,0,0,10,,,,,,,,,14,,,,36,73
34740,note_on,60,0,6,,,,,,,,,10,,,,60,0
34740,note_on,0,0,6,,,,,,,,,10,,,,61,100
34743,note_on,0,0,7,,,,,,,,,11,,,,61,80
34743,note_on,60,0,7,,,,,,,,,11,,,,60,0
34743,note_on,0,0,1,,,,,,,,,0,,,,82,82
34743,note_on,60,0,1,,,,,,,,,0,,,,84,0
34745,note_on,0,0,2,,,,,,,,,1,,,,67,81
34745,note_on,0,0,2,,,,,,,,,1,,,,70,81
34745,note_on,60,0,2,,,,,,,,,1,,,,68,0
34745,note_on,0,0,2,,,,,,,,,1,,,,72,0
34746,note_on,60,0,8,,,,,,,,,12,,,,60,0
34746,note_on,0,0,8,,,,,,,,,12,,,,61,98
34751,note_on,0,0,9,,,,,,,,,13,,,,49,89
34751,note_on,60,0,9,,,,,,,,,13,,,,48,0
34752,note_on,0,0,3,,,,,,,,,3,,,,58,81
34752,note_on,0,0,3,,,,,,,,,3,,,,60,0
34752,note_on,60,0,3,,,,,,,,,3,,,,56,0
34752,note_on,0,0,3,,,,,,,,,3,,,,55,81
34753,note_on,60,0,10,,,,,,,,,14,,,,36,0
34753,note_on,0,0,10,,,,,,,,,14,,,,37,73
34790,note_on,50,0,6,,,,,,,,,10,,,,61,0
34793,note_on,50,0,1,,,,,,,,,0,,,,82,0
34793,note_on,50,0,7,,,,,,,,,11,,,,61,0
34795,note_on,50,0,2,,,,,,,,,1,,,,67,0
34795,note_on,0,0,2,,,,,,,,,1,,,,70,0
34796,note_on,50,0,8,,,,,,,,,12,,,,61,0
34800,set_tempo,120,1,0,,,,,,389610,,,,,,,,
34800,note_on,10,0,6,,,,,,,,,10,,,,60,100
34801,note_on,50,0,9,,,,,,,,,13,,,,49,0
34802,note_on,50,0,3,,,,,,,,,3,,,,58,0
34802,note_on,0,0,3,,,,,,,,,3,,,,55,0
34803,note_on,50,0,10,,,,,,,,,14,,,,37,0
34803,note_on,10,0,1,,,,,,,,,0,,,,80,82
34803,note_on,10,0,7,,,,,,,,,11,,,,60,80
34805,note_on,10,0,2,,,,,,,,,1,,,,68,81
34805,note_on,0,0,2,,,,,,,,,1,,,,65,81
34806,note_on,10,0,8,,,,,,,,,12,,,,60,98
34811,note_on,10,0,9,,,,,,,,,13,,,,48,89
34812,note_on,10,0,3,,,,,,,,,3,,,,53,81
34812,note_on,0,0,3,,,,,,,,,3,,,,56,81
34813,note_on,10,0,10,,,,,,,,,14,,,,36,73
34910,note_on,110,0,6,,,,,,,,,10,,,,60,0
34913,note_on,110,0,7,,,,,,,,,11,,,,60,0
34920,note_on,10,0,6,,,,,,,,,10,,,,73,100
34920,set_tempo,120,1,0,,,,,,372671,,,,,,,,
34923,note_on,10,0,7,,,,,,,,,11,,,,61,80
34926,note_on,120,0,8,,,,,,,,,12,,,,60,0
34931,note_on,120,0,9,,,,,,,,,13,,,,48,0
34933,note_on,120,0,10,,,,,,,,,14,,,,36,0
34940,note_on,20,0,6,,,,,,,,,10,,,,73,0
34940,note_on,0,0,6,,,,,,,,,10,,,,72,100
34943,note_on,20,0,7,,,,,,,,,11,,,,61,0
34943,note_on,0,0,7,,,,,,,,,11,,,,60,80
34980,note_on,40,0,6,,,,,,,,,10,,,,72,0
34980,note_on,0,0,6,,,,,,,,,10,,,,71,100
34983,note_on,0,0,7,,,,,,,,,11,,,,59,80
34983,note_on,40,0,7,,,,,,,,,11,,,,60,0
35030,note_on,50,0,6,,,,,,,,,10,,,,71,0
35033,note_on,50,0,7,,,,,,,,,11,,,,59,0
35040,set_tempo,120,1,0,,,,,,389610,,,,,,,,
35040,note_on,10,0,6,,,,,,,,,10,,,,72,100
35043,note_on,10,0,7,,,,,,,,,11,,,,60,80
35043,note_on,240,0,1,,,,,,,,,0,,,,80,0
35043,note_on,0,0,1,,,,,,,,,0,,,,79,82
35045,note_on,240,0,2,,,,,,,,,1,,,,65,0
35045,note_on,0,0,2,,,,,,,,,1,,,,68,0
35045,note_on,0,0,2,,,,,,,,,1,,,,64,81
35045,note_on,0,0,2,,,,,,,,,1,,,,67,81
35046,note_on,120,0,8,,,,,,,,,12,,,,48,98
35051,note_on,120,0,9,,,,,,,,,13,,,,48,89
35052,note_on,0,0,3,,,,,,,,,3,,,,53,0
35052,note_on,0,0,3,,,,,,,,,3,,,,52,81
35052,note_on,0,0,3,,,,,,,,,3,,,,55,81
35052,note_on,240,0,3,,,,,,,,,3,,,,56,0
35053,note_on,120,0,10,,,,,,,,,14,,,,36,73
35100,note_on,0,0,6,,,,,,,,,10,,,,73,100
35100,note_on,60,0,6,,,,,,,,,10,,,,72,0
35103,note_on,60,0,7,,,,,,,,,11,,,,60,0
35103,note_on,0,0,7,,,,,,,,,11,,,,61,80
35150,note_on,50,0,6,,,,,,,,,10,,,,73,0
35153,note_on,50,0,7,,,,,,,,,11,,,,61,0
35160,note_on,10,0,6,,,,,,,,,10,,,,72,100
35160,set_tempo,120,1,0,,,,,,372671,,,,,,,,
35163,note_on,10,0,7,,,,,,,,,11,,,,60,80
35166,note_on,120,0,8,,,,,,,,,12,,,,48,0
35171,note_on,120,0,9,,,,,,,,,13,,,,48,0
35173,note_on,120,0,10,,,,,,,,,14,,,,36,0
35190,note_on,30,0,6,,,,,,,,,10,,,,72,0
35193,note_on,30,0,7,,,,,,,,,11,,,,60,0
35220,note_on,30,0,6,,,,,,,,,10,,,,72,100
35223,note_on,30,0,7,,,,,,,,,11,,,,60,80
35250,note_on,30,0,6,,,,,,,,,10,,,,72,0
35253,note_on,30,0,7,,,,,,,,,11,,,,60,0
35273,note_on,230,0,1,,,,,,,,,0,,,,79,0
35275,note_on,0,0,2,,,,,,,,,1,,,,64,0
35275,note_on,230,0,2,,,,,,,,,1,,,,67,0
35280,set_tempo,120,1,0,,,,,,389610,,,,,,,,
35280,note_on,30,0,6,,,,,,,,,10,,,,65,87
35282,note_on,230,0,3,,,,,,,,,3,,,,55,0
35282,note_on,0,0,3,,,,,,,,,3,,,,52,0
35283,note_on,10,0,1,,,,,,,,,0,,,,77,82
35283,note_on,30,0,7,,,,,,,,,11,,,,65,87
35285,note_on,10,0,2,,,,,,,,,1,,,,65,81
35286,note_on,120,0,8,,,,,,,,,12,,,,53,85
35291,note_on,120,0,9,,,,,,,,,13,,,,41,76
35292,note_on,10,0,3,,,,,,,,,3,,,,53,81
35293,note_on,120,0,10,,,,,,,,,14,,,,29,61
35390,note_on,110,0,6,,,,,,,,,10,,,,65,0
35393,note_on,110,0,7,,,,,,,,,11,,,,65,0
35396,note_on,110,0,8,,,,,,,,,12,,,,53,0
35400,note_on,10,0,6,,,,,,,,,10,,,,65,100
35400,set_tempo,120,1,0,,,,,,372671,,,,,,,,
35401,note_on,110,0,9,,,,,,,,,13,,,,41,0
35403,note_on,110,0,10,,,,,,,,,14,,,,29,0
35403,note_on,120,0,1,,,,,,,,,0,,,,77,0
35403,note_on,10,0,7,,,,,,,,,11,,,,65,100
35405,note_on,120,0,2,,,,,,,,,1,,,,65,0
35406,note_on,10,0,8,,,,,,,,,12,,,,53,98
35411,note_on,10,0,9,,,,,,,,,13,,,,53,89
35412,note_on,120,0,3,,,,,,,,,3,,,,53,0
35413,note_on,10,0,10,,,,,,,,,14,,,,41,73
35450,note_on,50,0,6,,,,,,,,,10,,,,65,0
35453,note_on,50,0,7,,,,,,,,,11,,,,65,0
35456,note_on,50,0,8,,,,,,,,,12,,,,53,0
35460,note_on,10,0,6,,,,,,,,,10,,,,65,100
35461,note_on,50,0,9,,,,,,,,,13,,,,53,0
35463,note_on,50,0,10,,,,,,,,,14,,,,41,0
35463,note_on,10,0,7,,,,,,,,,11,,,,65,100
35466,note_on,10,0,8,,,,,,,,,12,,,,53,98
35471,note_on,10,0,9,,,,,,,,,13,,,,53,89
35473,note_on,10,0,10,,,,,,,,,14,,,,41,73
35510,note_on,50,0,6,,,,,,,,,10,,,,65,0
35513,note_on,50,0,7,,,,,,,,,11,,,,65,0
35516,note_on,50,0,8,,,,,,,,,12,,,,53,0
35520,set_tempo,120,1,0,,,,,,389610,,,,,,,,
35520,note_on,10,0,6,,,,,,,,,10,,,,64,100
35521,note_on,50,0,9,,,,,,,,,13,,,,53,0
35523,note_on,10,0,7,,,,,,,,,11,,,,64,100
35523,note_on,50,0,10,,,,,,,,,14,,,,41,0
35526,note_on,10,0,8,,,,,,,,,12,,,,52,98
35531,note_on,10,0,9,,,,,,,,,13,,,,52,89
35533,note_on,10,0,10,,,,,,,,,14,,,,40,73
35580,note_on,60,0,6,,,,,,,,,10,,,,64,0
35580,note_on,0,0,6,,,,,,,,,10,,,,65,100
35583,note_on,60,0,7,,,,,,,,,11,,,,64,0
35583,note_on,0,0,7,,,,,,,,,11,,,,65,100
35586,note_on,60,0,8,,,,,,,,,12,,,,52,0
35586,note_on,0,0,8,,,,,,,,,12,,,,53,98
35591,note_on,0,0,9,,,,,,,,,13,,,,53,89
35591,note_on,60,0,9,,,,,,,,,13,,,,52,0
35593,note_on,60,0,10,,,,,,,,,14,,,,40,0
35593,note_on,0,0,10,,,,,,,,,14,,,,41,73
35640,set_tempo,120,1,0,,,,,,372671,,,,,,,,
35640,note_on,60,0,6,,,,,,,,,10,,,,65,0
35640,note_on,0,0,6,,,,,,,,,10,,,,64,100
35643,note_on,0,0,7,,,,,,,,,11,,,,64,100
35643,note_on,60,0,7,,,,,,,,,11,,,,65,0
35646,note_on,60,0,8,,,,,,,,,12,,,,53,0
35646,note_on,0,0,8,,,,,,,,,12,,,,52,98
35651,note_on,0,0,9,,,,,,,,,13,,,,52,89
35651,note_on,60,0,9,,,,,,,,,13,,,,53,0
35653,note_on,60,0,10,,,,,,,,,14,,,,41,0
35653,note_on,0,0,10,,,,,,,,,14,,,,40,73
35700,note_on,60,0,6,,,,,,,,,10,,,,64,0
35700,note_on,0,0,6,,,,,,,,,10,,,,65,100
35703,note_on,0,0,7,,,,,,,,,11,,,,65,100
35703,note_on,60,0,7,,,,,,,,,11,,,,64,0
35706,note_on,60,0,8,,,,,,,,,12,,,,52,0
35706,note_on,0,0,8,,,,,,,,,12,,,,53,98
35711,note_on,0,0,9,,,,,,,,,13,,,,53,89
35711,note_on,60,0,9,,,,,,,,,13,,,,52,0
35713,note_on,0,0,10,,,,,,,,,14,,,,41,73
35713,note_on,60,0,10,,,,,,,,,14,,,,40,0
35750,note_on,50,0,6,,,,,,,,,10,,,,65,0
35753,note_on,50,0,7,,,,,,,,,11,,,,65,0
35756,note_on,50,0,8,,,,,,,,,12,,,,53,0
35760,set_tempo,120,1,0,,,,,,389610,,,,,,,,
35760,note_on,10,0,6,,,,,,,,,10,,,,70,80
35761,note_on,50,0,9,,,,,,,,,13,,,,53,0
35763,note_on,10,0,7,,,,,,,,,11,,,,58,100
35763,note_on,360,0,1,,,,,,,,,0,,,,89,95
35763,note_on,50,0,10,,,,,,,,,14,,,,41,0
35764,note_on,1080,0,4,,,,,,,,,4,,,,53,86
35765,note_on,360,0,2,,,,,,,,,1,,,,73,94
35765,note_on,0,0,2,,,,,,,,,1,,,,77,94
35766,note_on,1080,0,5,,,,,,,,,5,,,,41,67
35766,note_on,10,0,8,,,,,,,,,12,,,,58,98
35771,note_on,10,0,9,,,,,,,,,13,,,,46,89
35772,note_on,0,0,3,,,,,,,,,3,,,,65,94
35772,note_on,360,0,3,,,,,,,,,3,,,,61,94
35773,note_on,10,0,10,,,,,,,,,14,,,,34,73
35820,note_on,60,0,6,,,,,,,,,10,,,,70,0
35823,note_on,60,0,7,,,,,,,,,11,,,,58,0
35880,set_tempo,120,1,0,,,,,,372671,,,,,,,,
35880,note_on,60,0,6,,,,,,,,,10,,,,70,80
35883,note_on,60,0,7,,,,,,,,,11,,,,58,100
35886,note_on,120,0,8,,,,,,,,,12,,,,58,0
35891,note_on,120,0,9,,,,,,,,,13,,,,46,0
35893,note_on,120,0,10,,,,,,,,,14,,,,34,0
35940,note_on,60,0,6,,,,,,,,,10,,,,70,0
35943,note_on,60,0,7,,,,,,,,,11,,,,58,0
36000,set_tempo,120,1,0,,,,,,389610,,,,,,,,
36006,note_on,120,0,8,,,,,,,,,12,,,,61,98
36011,note_on,120,0,9,,,,,,,,,13,,,,49,89
36013,note_on,120,0,10,,,,,,,,,14,,,,37,73
36066,note_on,60,0,8,,,,,,,,,12,,,,61,0
36071,note_on,60,0,9,,,,,,,,,13,,,,49,0
36073,note_on,60,0,10,,,,,,,,,14,,,,37,0
36120,set_tempo,120,1,0,,,,,,372671,,,,,,,,
36120,note_on,180,0,6,,,,,,,,,10,,,,73,80
36123,note_on,180,0,7,,,,,,,,,11,,,,61,80
36123,note_on,360,0,1,,,,,,,,,0,,,,89,0
36123,note_on,0,0,1,,,,,,,,,0,,,,87,82
36125,note_on,360,0,2,,,,,,,,,1,,,,77,0
36125,note_on,0,0,2,,,,,,,,,1,,,,73,0
36125,note_on,0,0,2,,,,,,,,,1,,,,72,81
36125,note_on,0,0,2,,,,,,,,,1,,,,75,81
36132,note_on,0,0,3,,,,,,,,,3,,,,60,81
36132,note_on,0,0,3,,,,,,,,,3,,,,61,0
36132,note_on,360,0,3,,,,,,,,,3,,,,65,0
36132,note_on,0,0,3,,,,,,,,,3,,,,63,81
36180,note_on,60,0,6,,,,,,,,,10,,,,73,0
36183,note_on,60,0,7,,,,,,,,,11,,,,61,0
36183,note_on,0,0,1,,,,,,,,,0,,,,85,82
36183,note_on,60,0,1,,,,,,,,,0,,,,87,0
36185,note_on,60,0,2,,,,,,,,,1,,,,75,0
36185,note_on,0,0,2,,,,,,,,,1,,,,70,81
36185,note_on,0,0,2,,,,,,,,,1,,,,73,81
36185,note_on,0,0,2,,,,,,,,,1,,,,72,0
36192,note_on,0,0,3,,,,,,,,,3,,,,61,81
36192,note_on,0,0,3,,,,,,,,,3,,,,58,81
36192,note_on,0,0,3,,,,,,,,,3,,,,60,0
36192,note_on,60,0,3,,,,,,,,,3,,,,63,0
36233,note_on,50,0,1,,,,,,,,,0,,,,85,0
36235,note_on,50,0,2,,,,,,,,,1,,,,70,0
36235,note_on,0,0,2,,,,,,,,,1,,,,73,0
36240,note_on,60,0,6,,,,,,,,,10,,,,77,80
36240,set_tempo,120,1,0,,,,,,389610,,,,,,,,
36242,note_on,0,0,3,,,,,,,,,3,,,,58,0
36242,note_on,50,0,3,,,,,,,,,3,,,,61,0
36243,note_on,60,0,7,,,,,,,,,11,,,,65,80
36243,note_on,10,0,1,,,,,,,,,0,,,,84,82
36245,note_on,10,0,2,,,,,,,,,1,,,,72,81
36245,note_on,0,0,2,,,,,,,,,1,,,,69,81
36246,note_on,180,0,8,,,,,,,,,12,,,,65,98
36251,note_on,180,0,9,,,,,,,,,13,,,,53,89
36252,note_on,0,0,3,,,,,,,,,3,,,,60,81
36252,note_on,10,0,3,,,,,,,,,3,,,,57,81
36253,note_on,180,0,10,,,,,,,,,14,,,,41,73
36300,note_on,60,0,6,,,,,,,,,10,,,,77,0
36303,note_on,60,0,7,,,,,,,,,11,,,,65,0
36306,note_on,60,0,8,,,,,,,,,12,,,,65,0
36311,note_on,60,0,9,,,,,,,,,13,,,,53,0
36313,note_on,60,0,10,,,,,,,,,14,,,,41,0
36360,set_tempo,120,1,0,,,,,,372671,,,,,,,,
36360,note_on,60,0,6,,,,,,,,,10,,,,81,80
36363,note_on,0,0,1,,,,,,,,,0,,,,87,95
36363,note_on,120,0,1,,,,,,,,,0,,,,84,0
36363,note_on,60,0,7,,,,,,,,,11,,,,69,80
36365,note_on,0,0,2,,,,,,,,,1,,,,75,94
36365,note_on,0,0,2,,,,,,,,,1,,,,72,94
36365,note_on,0,0,2,,,,,,,,,1,,,,72,0
36365,note_on,120,0,2,,,,,,,,,1,,,,69,0
36372,note_on,0,0,3,,,,,,,,,3,,,,60,94
36372,note_on,120,0,3,,,,,,,,,3,,,,60,0
36372,note_on,0,0,3,,,,,,,,,3,,,,57,0
36372,note_on,0,0,3,,,,,,,,,3,,,,63,94
36480,note_on,120,0,6,,,,,,,,,10,,,,81,0
36480,set_tempo,120,1,0,,,,,,389610,,,,,,,,
36480,note_on,0,0,6,,,,,,,,,10,,,,82,80
36483,note_on,120,0,7,,,,,,,,,11,,,,69,0
36483,note_on,0,0,7,,,,,,,,,11,,,,70,80
36486,note_on,180,0,8,,,,,,,,,12,,,,58,98
36491,note_on,180,0,9,,,,,,,,,13,,,,46,89
36493,note_on,180,0,10,,,,,,,,,14,,,,34,73
36543,note_on,180,0,1,,,,,,,,,0,,,,87,0
36543,note_on,0,0,1,,,,,,,,,0,,,,85,82
36545,note_on,180,0,2,,,,,,,,,1,,,,75,0
36545,note_on,0,0,2,,,,,,,,,1,,,,72,0
36545,note_on,0,0,2,,,,,,,,,1,,,,73,81
36545,note_on,0,0,2,,,,,,,,,1,,,,70,81
36546,note_on,60,0,8,,,,,,,,,12,,,,58,0
36551,note_on,60,0,9,,,,,,,,,13,,,,46,0
36552,note_on,0,0,3,,,,,,,,,3,,,,58,81
36552,note_on,0,0,3,,,,,,,,,3,,,,61,81
36552,note_on,0,0,3,,,,,,,,,3,,,,63,0
36552,note_on,180,0,3,,,,,,,,,3,,,,60,0
36553,note_on,60,0,10,,,,,,,,,14,,,,34,0
36600,note_on,0,0,6,,,,,,,,,10,,,,84,80
36600,set_tempo,120,1,0,,,,,,372671,,,,,,,,
36600,note_on,120,0,6,,,,,,,,,10,,,,82,0
36603,note_on,120,0,7,,,,,,,,,11,,,,70,0
36603,note_on,60,0,1,,,,,,,,,0,,,,85,0
36603,note_on,0,0,7,,,,,,,,,11,,,,72,80
36603,note_on,0,0,1,,,,,,,,,0,,,,84,82
36604,note_on,840,0,4,,,,,,,,,4,,,,53,0
36605,note_on,0,0,2,,,,,,,,,1,,,,68,81
36605,note_on,0,0,2,,,,,,,,,1,,,,73,0
36605,note_on,60,0,2,,,,,,,,,1,,,,70,0
36605,note_on,0,0,2,,,,,,,,,1,,,,72,81
36606,note_on,840,0,5,,,,,,,,,5,,,,41,0
36612,note_on,0,0,3,,,,,,,,,3,,,,61,0
36612,note_on,0,0,3,,,,,,,,,3,,,,60,81
36612,note_on,60,0,3,,,,,,,,,3,,,,58,0
36612,note_on,0,0,3,,,,,,,,,3,,,,56,81
36660,note_on,60,0,6,,,,,,,,,10,,,,84,0
36660,note_on,0,0,6,,,,,,,,,10,,,,85,80
36663,note_on,60,0,1,,,,,,,,,0,,,,84,0
36663,note_on,0,0,1,,,,,,,,,0,,,,82,82
36663,note_on,0,0,7,,,,,,,,,11,,,,73,80
36663,note_on,60,0,7,,,,,,,,,11,,,,72,0
36665,note_on,0,0,2,,,,,,,,,1,,,,67,81
36665,note_on,0,0,2,,,,,,,,,1,,,,70,81
36665,note_on,0,0,2,,,,,,,,,1,,,,68,0
36665,note_on,60,0,2,,,,,,,,,1,,,,72,0
36672,note_on,0,0,3,,,,,,,,,3,,,,60,0
36672,note_on,0,0,3,,,,,,,,,3,,,,55,81
36672,note_on,60,0,3,,,,,,,,,3,,,,56,0
36672,note_on,0,0,3,,,,,,,,,3,,,,58,81
36710,note_on,50,0,6,,,,,,,,,10,,,,85,0
36713,note_on,50,0,7,,,,,,,,,11,,,,73,0
36713,note_on,50,0,1,,,,,,,,,0,,,,82,0
36715,note_on,50,0,2,,,,,,,,,1,,,,70,0
36715,note_on,0,0,2,,,,,,,,,1,,,,67,0
36720,note_on,10,0,6,,,,,,,,,10,,,,85,80
36720,set_tempo,120,1,0,,,,,,389610,,,,,,,,
36722,note_on,50,0,3,,,,,,,,,3,,,,55,0
36722,note_on,0,0,3,,,,,,,,,3,,,,58,0
36723,note_on,10,0,1,,,,,,,,,0,,,,80,82
36723,note_on,10,0,7,,,,,,,,,11,,,,73,80
36725,note_on,0,0,2,,,,,,,,,1,,,,65,81
36725,note_on,10,0,2,,,,,,,,,1,,,,68,81
36726,note_on,180,0,8,,,,,,,,,12,,,,60,98
36731,note_on,180,0,9,,,,,,,,,13,,,,48,89
36732,note_on,10,0,3,,,,,,,,,3,,,,56,81
36732,note_on,0,0,3,,,,,,,,,3,,,,53,81
36733,note_on,180,0,10,,,,,,,,,14,,,,36,73
36780,note_on,0,0,6,,,,,,,,,10,,,,84,80
36780,note_on,60,0,6,,,,,,,,,10,,,,85,0
36783,note_on,60,0,7,,,,,,,,,11,,,,73,0
36783,note_on,0,0,7,,,,,,,,,11,,,,72,80
36830,note_on,50,0,6,,,,,,,,,10,,,,84,0
36833,note_on,50,0,7,,,,,,,,,11,,,,72,0
36840,set_tempo,120,1,0,,,,,,366972,,,,,,,,
36840,note_on,10,0,6,,,,,,,,,10,,,,84,80
36843,note_on,10,0,7,,,,,,,,,11,,,,72,80
36846,note_on,120,0,8,,,,,,,,,12,,,,60,0
36851,note_on,120,0,9,,,,,,,,,13,,,,48,0
36853,note_on,120,0,10,,,,,,,,,14,,,,36,0
36870,note_on,30,0,6,,,,,,,,,10,,,,84,0
36873,note_on,30,0,7,,,,,,,,,11,,,,72,0
36900,note_on,30,0,6,,,,,,,,,10,,,,84,80
36903,note_on,30,0,7,,,,,,,,,11,,,,72,80
36930,note_on,30,0,6,,,,,,,,,10,,,,84,0
36933,note_on,30,0,7,,,,,,,,,11,,,,72,0
36960,note_on,30,0,6,,,,,,,,,10,,,,84,80
36960,set_tempo,120,1,0,,,,,,383387,,,,,,,,
36963,note_on,240,0,1,,,,,,,,,0,,,,80,0
36963,note_on,30,0,7,,,,,,,,,11,,,,72,80
36963,note_on,0,0,1,,,,,,,,,0,,,,79,82
36965,note_on,0,0,2,,,,,,,,,1,,,,67,81
36965,note_on,240,0,2,,,,,,,,,1,,,,65,0
36965,note_on,0,0,2,,,,,,,,,1,,,,68,0
36965,note_on,0,0,2,,,,,,,,,1,,,,64,81
36966,note_on,120,0,8,,,,,,,,,12,,,,48,98
36971,note_on,120,0,9,,,,,,,,,13,,,,48,89
36972,note_on,0,0,3,,,,,,,,,3,,,,55,81
36972,note_on,0,0,3,,,,,,,,,3,,,,52,81
36972,note_on,240,0,3,,,,,,,,,3,,,,53,0
36972,note_on,0,0,3,,,,,,,,,3,,,,56,0
36973,note_on,120,0,10,,,,,,,,,14,,,,36,73
37020,note_on,60,0,6,,,,,,,,,10,,,,84,0
37020,note_on,0,0,6,,,,,,,,,10,,,,85,80
37023,note_on,60,0,7,,,,,,,,,11,,,,72,0
37023,note_on,0,0,7,,,,,,,,,11,,,,73,80
37070,note_on,50,0,6,,,,,,,,,10,,,,85,0
37073,note_on,50,0,7,,,,,,,,,11,,,,73,0
37080,note_on,10,0,6,,,,,,,,,10,,,,84,80
37080,set_tempo,120,1,0,,,,,,372671,,,,,,,,
37083,note_on,10,0,7,,,,,,,,,11,,,,72,80
37086,note_on,120,0,8,,,,,,,,,12,,,,48,0
37091,note_on,120,0,9,,,,,,,,,13,,,,48,0
37093,note_on,120,0,10,,,,,,,,,14,,,,36,0
37110,note_on,30,0,6,,,,,,,,,10,,,,84,0
37113,note_on,30,0,7,,,,,,,,,11,,,,72,0
37140,note_on,30,0,6,,,,,,,,,10,,,,84,80
37143,note_on,30,0,7,,,,,,,,,11,,,,72,80
37170,note_on,30,0,6,,,,,,,,,10,,,,84,0
37170,set_tempo,90,1,0,,,,,,428571,,,,,,,,
37173,note_on,30,0,7,,,,,,,,,11,,,,72,0
37193,note_on,230,0,1,,,,,,,,,0,,,,79,0
37195,note_on,0,0,2,,,,,,,,,1,,,,64,0
37195,note_on,230,0,2,,,,,,,,,1,,,,67,0
37200,note_on,30,0,6,,,,,,,,,10,,,,77,100
37200,set_tempo,30,1,0,,,,,,362538,,,,,,,,
37202,note_on,230,0,3,,,,,,,,,3,,,,52,0
37202,note_on,0,0,3,,,,,,,,,3,,,,55,0
37203,note_on,30,0,7,,,,,,,,,11,,,,72,80
37203,note_on,10,0,1,,,,,,,,,0,,,,77,82
37205,note_on,10,0,2,,,,,,,,,1,,,,65,81
37206,note_on,120,0,8,,,,,,,,,12,,,,69,98
37211,note_on,120,0,9,,,,,,,,,13,,,,41,89
37212,note_on,10,0,3,,,,,,,,,3,,,,53,81
37213,note_on,120,0,10,,,,,,,,,14,,,,29,73
37230,note_on,30,0,6,,,,,,,,,10,,,,77,0
37240,set_tempo,40,1,0,,,,,,346821,,,,,,,,
37240,note_on,10,0,6,,,,,,,,,10,,,,81,100
37263,note_on,60,0,7,,,,,,,,,11,,,,72,0
37266,note_on,60,0,8,,,,,,,,,12,,,,69,0
37270,note_on,30,0,6,,,,,,,,,10,,,,81,0
37280,note_on,10,0,6,,,,,,,,,10,,,,77,100
37310,note_on,30,0,6,,,,,,,,,10,,,,77,0
37320,set_tempo,80,1,0,,,,,,390879,,,,,,,,
37320,note_on,10,0,6,,,,,,,,,10,,,,76,100
37323,note_on,120,0,1,,,,,,,,,0,,,,77,0
37323,note_on,60,0,7,,,,,,,,,11,,,,70,100
37325,note_on,120,0,2,,,,,,,,,1,,,,65,0
37326,note_on,60,0,8,,,,,,,,,12,,,,67,98
37331,note_on,120,0,9,,,,,,,,,13,,,,41,0
37332,note_on,120,0,3,,,,,,,,,3,,,,53,0
37333,note_on,120,0,10,,,,,,,,,14,,,,29,0
37350,note_on,30,0,6,,,,,,,,,10,,,,76,0
37360,note_on,10,0,6,,,,,,,,,10,,,,79,100
37360,set_tempo,40,1,0,,,,,,373832,,,,,,,,
37383,note_on,60,0,7,,,,,,,,,11,,,,70,0
37386,note_on,60,0,8,,,,,,,,,12,,,,67,0
37390,note_on,30,0,6,,,,,,,,,10,,,,79,0
37400,note_on,10,0,6,,,,,,,,,10,,,,76,100
37430,note_on,30,0,6,,,,,,,,,10,,,,76,0
37440,note_on,10,0,6,,,,,,,,,10,,,,74,100
37440,set_tempo,80,1,0,,,,,,362538,,,,,,,,
37443,note_on,60,0,7,,,,,,,,,11,,,,69,100
37446,note_on,60,0,8,,,,,,,,,12,,,,65,98
37470,note_on,30,0,6,,,,,,,,,10,,,,74,0
37480,note_on,10,0,6,,,,,,,,,10,,,,77,100
37480,set_tempo,40,1,0,,,,,,346821,,,,,,,,
37503,note_on,60,0,7,,,,,,,,,11,,,,69,0
37506,note_on,60,0,8,,,,,,,,,12,,,,65,0
37510,note_on,30,0,6,,,,,,,,,10,,,,77,0
37520,note_on,10,0,6,,,,,,,,,10,,,,74,100
37550,note_on,30,0,6,,,,,,,,,10,,,,74,0
37560,note_on,10,0,6,,,,,,,,,10,,,,72,100
37560,set_tempo,80,1,0,,,,,,390879,,,,,,,,
37563,note_on,60,0,7,,,,,,,,,11,,,,67,100
37566,note_on,60,0,8,,,,,,,,,12,,,,64,98
37590,note_on,30,0,6,,,,,,,,,10,,,,72,0
37600,set_tempo,40,1,0,,,,,,373832,,,,,,,,
37600,note_on,10,0,6,,,,,,,,,10,,,,76,100
37623,note_on,60,0,7,,,,,,,,,11,,,,67,0
37626,note_on,60,0,8,,,,,,,,,12,,,,64,0
37630,note_on,30,0,6,,,,,,,,,10,,,,76,0
37640,note_on,10,0,6,,,,,,,,,10,,,,72,100
37670,note_on,30,0,6,,,,,,,,,10,,,,72,0
37680,set_tempo,80,1,0,,,,,,362538,,,,,,,,
37680,note_on,10,0,6,,,,,,,,,10,,,,70,100
37683,note_on,60,0,7,,,,,,,,,11,,,,65,100
37686,note_on,60,0,8,,,,,,,,,12,,,,62,98
37710,note_on,30,0,6,,,,,,,,,10,,,,70,0
37720,set_tempo,40,1,0,,,,,,346821,,,,,,,,
37720,note_on,10,0,6,,,,,,,,,10,,,,74,100
37743,note_on,60,0,7,,,,,,,,,11,,,,65,0
37746,note_on,60,0,8,,,,,,,,,12,,,,62,0
37750,note_on,30,0,6,,,,,,,,,10,,,,74,0
37760,note_on,10,0,6,,,,,,,,,10,,,,70,100
37790,note_on,30,0,6,,,,,,,,,10,,,,70,0
37800,set_tempo,80,1,0,,,,,,390879,,,,,,,,
37800,note_on,10,0,6,,,,,,,,,10,,,,69,100
37803,note_on,60,0,7,,,,,,,,,11,,,,64,100
37806,note_on,60,0,8,,,,,,,,,12,,,,60,98
37830,note_on,30,0,6,,,,,,,,,10,,,,69,0
37840,note_on,10,0,6,,,,,,,,,10,,,,72,100
37840,set_tempo,40,1,0,,,,,,373832,,,,,,,,
37863,note_on,60,0,7,,,,,,,,,11,,,,64,0
37866,note_on,60,0,8,,,,,,,,,12,,,,60,0
37870,note_on,30,0,6,,,,,,,,,10,,,,72,0
37880,note_on,10,0,6,,,,,,,,,10,,,,69,100
37910,note_on,30,0,6,,,,,,,,,10,,,,69,0
37920,set_tempo,80,1,0,,,,,,362538,,,,,,,,
37920,note_on,10,0,6,,,,,,,,,10,,,,67,100
37923,note_on,60,0,7,,,,,,,,,11,,,,62,100
37926,note_on,60,0,8,,,,,,,,,12,,,,58,98
37950,note_on,30,0,6,,,,,,,,,10,,,,67,0
37960,note_on,10,0,6,,,,,,,,,10,,,,70,100
37960,set_tempo,40,1,0,,,,,,346821,,,,,,,,
37983,note_on,60,0,7,,,,,,,,,11,,,,62,0
37986,note_on,60,0,8,,,,,,,,,12,,,,58,0
37990,note_on,30,0,6,,,,,,,,,10,,,,70,0
38000,note_on,10,0,6,,,,,,,,,10,,,,67,100
38030,note_on,30,0,6,,,,,,,,,10,,,,67,0
38040,note_on,10,0,6,,,,,,,,,10,,,,65,100
38040,set_tempo,80,1,0,,,,,,390879,,,,,,,,
38043,note_on,60,0,7,,,,,,,,,11,,,,60,100
38046,note_on,60,0,8,,,,,,,,,12,,,,57,98
38070,note_on,30,0,6,,,,,,,,,10,,,,65,0
38080,note_on,10,0,6,,,,,,,,,10,,,,69,100
38080,set_tempo,40,1,0,,,,,,373832,,,,,,,,
38103,note_on,60,0,7,,,,,,,,,11,,,,60,0
38106,note_on,60,0,8,,,,,,,,,12,,,,57,0
38110,note_on,30,0,6,,,,,,,,,10,,,,69,0
38120,note_on,10,0,6,,,,,,,,,10,,,,65,100
38145,control_change,25,0,6,,,,,,,,,10,11,47,,,
38147,control_change,2,0,6,,,,,,,,,10,11,51,,,
38148,control_change,45,0,7,,,,,,,,,11,11,47,,,
38149,control_change,2,0,6,,,,,,,,,10,11,55,,,
38150,note_on,1,0,6,,,,,,,,,10,,,,65,0
38150,control_change,2,0,7,,,,,,,,,11,11,51,,,
38151,control_change,1,0,6,,,,,,,,,10,11,59,,,
38151,control_change,45,0,8,,,,,,,,,12,11,47,,,
38152,control_change,2,0,7,,,,,,,,,11,11,55,,,
38153,control_change,2,0,8,,,,,,,,,12,11,51,,,
38153,control_change,2,0,6,,,,,,,,,10,11,62,,,
38154,control_change,2,0,7,,,,,,,,,11,11,59,,,
38155,control_change,2,0,8,,,,,,,,,12,11,55,,,
38155,control_change,2,0,6,,,,,,,,,10,11,65,,,
38156,control_change,825,0,9,,,,,,,,,13,11,47,,,
38156,control_change,2,0,7,,,,,,,,,11,11,62,,,
38157,control_change,2,0,8,,,,,,,,,12,11,59,,,
38157,control_change,2,0,6,,,,,,,,,10,11,68,,,
38158,control_change,2,0,9,,,,,,,,,13,11,51,,,
38158,control_change,825,0,10,,,,,,,,,14,11,47,,,
38158,control_change,2,0,7,,,,,,,,,11,11,65,,,
38159,control_change,2,0,8,,,,,,,,,12,11,62,,,
38159,control_change,2,0,6,,,,,,,,,10,11,71,,,
38160,set_tempo,80,1,0,,,,,,362538,,,,,,,,
38160,control_change,2,0,7,,,,,,,,,11,11,68,,,
38160,control_change,2,0,10,,,,,,,,,14,11,51,,,
38160,note_on,1,0,6,,,,,,,,,10,,,,74,100
38160,control_change,2,0,9,,,,,,,,,13,11,55,,,
38161,control_change,2,0,8,,,,,,,,,12,11,65,,,
38162,control_change,2,0,9,,,,,,,,,13,11,59,,,
38162,control_change,2,0,10,,,,,,,,,14,11,55,,,
38162,control_change,2,0,7,,,,,,,,,11,11,71,,,
38163,control_change,2,0,8,,,,,,,,,12,11,68,,,
38163,control_change,3,0,6,,,,,,,,,10,11,76,,,
38163,note_on,0,0,7,,,,,,,,,11,,,,70,100
38163,note_on,1,0,7,,,,,,,,,11,,,,62,100
38163,note_on,0,0,1,,,,,,,,,0,,,,86,82
38163,control_change,840,0,1,,,,,,,,,0,11,79,,,
38164,control_change,2,0,10,,,,,,,,,14,11,59,,,
38164,note_on,0,0,4,,,,,,,,,4,,,,62,86
38164,control_change,1560,0,4,,,,,,,,,4,11,79,,,
38164,control_change,2,0,9,,,,,,,,,13,11,62,,,
38165,control_change,840,0,2,,,,,,,,,1,11,79,,,
38165,control_change,2,0,6,,,,,,,,,10,11,79,,,
38165,note_on,0,0,2,,,,,,,,,1,,,,74,81
38165,control_change,2,0,8,,,,,,,,,12,11,71,,,
38165,note_on,0,0,2,,,,,,,,,1,,,,70,81
38166,control_change,2,0,9,,,,,,,,,13,11,65,,,
38166,note_on,1,0,8,,,,,,,,,12,,,,58,98
38166,control_change,1560,0,5,,,,,,,,,5,11,79,,,
38166,control_change,3,0,7,,,,,,,,,11,11,76,,,
38166,note_on,0,0,5,,,,,,,,,5,,,,53,86
38166,control_change,2,0,10,,,,,,,,,14,11,62,,,
38168,control_change,2,0,9,,,,,,,,,13,11,68,,,
38168,control_change,2,0,7,,,,,,,,,11,11,79,,,
38168,control_change,2,0,10,,,,,,,,,14,11,65,,,
38169,control_change,3,0,8,,,,,,,,,12,11,76,,,
38170,control_change,2,0,10,,,,,,,,,14,11,68,,,
38170,control_change,2,0,9,,,,,,,,,13,11,71,,,
38171,control_change,2,0,8,,,,,,,,,12,11,79,,,
38171,note_on,1,0,9,,,,,,,,,13,,,,46,89
38172,note_on,0,0,3,,,,,,,,,3,,,,58,81
38172,control_change,840,0,3,,,,,,,,,3,11,79,,,
38172,note_on,0,0,3,,,,,,,,,3,,,,46,81
38172,control_change,2,0,10,,,,,,,,,14,11,71,,,
38173,note_on,1,0,10,,,,,,,,,14,,,,34,73
38174,control_change,3,0,9,,,,,,,,,13,11,76,,,
38176,control_change,2,0,9,,,,,,,,,13,11,79,,,
38176,control_change,3,0,10,,,,,,,,,14,11,76,,,
38178,control_change,2,0,10,,,,,,,,,14,11,79,,,
38190,note_on,25,0,6,,,,,,,,,10,,,,74,0
38193,note_on,25,0,7,,,,,,,,,11,,,,70,0
38193,note_on,0,0,7,,,,,,,,,11,,,,62,0
38196,note_on,25,0,8,,,,,,,,,12,,,,58,0
38200,set_tempo,40,1,0,,,,,,346821,,,,,,,,
38200,note_on,10,0,6,,,,,,,,,10,,,,74,92
38201,note_on,25,0,9,,,,,,,,,13,,,,46,0
38203,note_on,0,0,7,,,,,,,,,11,,,,62,92
38203,note_on,10,0,7,,,,,,,,,11,,,,70,92
38203,note_on,25,0,10,,,,,,,,,14,,,,34,0
38206,note_on,10,0,8,,,,,,,,,12,,,,58,90
38211,note_on,10,0,9,,,,,,,,,13,,,,46,81
38213,note_on,10,0,10,,,,,,,,,14,,,,34,65
38230,note_on,30,0,6,,,,,,,,,10,,,,74,0
38233,note_on,0,0,7,,,,,,,,,11,,,,70,0
38233,note_on,30,0,7,,,,,,,,,11,,,,62,0
38236,note_on,30,0,8,,,,,,,,,12,,,,58,0
38240,note_on,10,0,6,,,,,,,,,10,,,,74,100
38241,note_on,30,0,9,,,,,,,,,13,,,,46,0
38243,note_on,0,0,7,,,,,,,,,11,,,,62,100
38243,note_on,10,0,7,,,,,,,,,11,,,,70,100
38243,note_on,30,0,10,,,,,,,,,14,,,,34,0
38246,note_on,10,0,8,,,,,,,,,12,,,,58,98
38251,note_on,10,0,9,,,,,,,,,13,,,,46,89
38253,note_on,10,0,10,,,,,,,,,14,,,,34,73
38270,note_on,30,0,6,,,,,,,,,10,,,,74,0
38273,note_on,30,0,7,,,,,,,,,11,,,,62,0
38273,note_on,0,0,7,,,,,,,,,11,,,,70,0
38276,note_on,30,0,8,,,,,,,,,12,,,,58,0
38280,note_on,10,0,6,,,,,,,,,10,,,,74,92
38280,set_tempo,80,1,0,,,,,,390879,,,,,,,,
38281,note_on,30,0,9,,,,,,,,,13,,,,46,0
38283,note_on,0,0,7,,,,,,,,,11,,,,62,92
38283,note_on,30,0,10,,,,,,,,,14,,,,34,0
38283,note_on,10,0,7,,,,,,,,,11,,,,70,92
38286,note_on,10,0,8,,,,,,,,,12,,,,58,90
38291,note_on,10,0,9,,,,,,,,,13,,,,46,81
38293,note_on,10,0,10,,,,,,,,,14,,,,34,65
38310,note_on,30,0,6,,,,,,,,,10,,,,74,0
38313,note_on,30,0,7,,,,,,,,,11,,,,62,0
38313,note_on,0,0,7,,,,,,,,,11,,,,70,0
38316,note_on,30,0,8,,,,,,,,,12,,,,58,0
38320,set_tempo,40,1,0,,,,,,373832,,,,,,,,
38320,note_on,10,0,6,,,,,,,,,10,,,,74,100
38321,note_on,30,0,9,,,,,,,,,13,,,,46,0
38323,note_on,30,0,10,,,,,,,,,14,,,,34,0
38323,note_on,0,0,7,,,,,,,,,11,,,,70,100
38323,note_on,10,0,7,,,,,,,,,11,,,,62,100
38326,note_on,10,0,8,,,,,,,,,12,,,,58,98
38331,note_on,10,0,9,,,,,,,,,13,,,,46,89
38333,note_on,10,0,10,,,,,,,,,14,,,,34,73
38338,note_on,175,0,1,,,,,,,,,0,,,,86,0
38339,note_on,175,0,4,,,,,,,,,4,,,,62,0
38340,note_on,0,0,2,,,,,,,,,1,,,,70,0
38340,note_on,175,0,2,,,,,,,,,1,,,,74,0
38341,note_on,175,0,5,,,,,,,,,5,,,,53,0
38343,note_on,5,0,1,,,,,,,,,0,,,,86,82
38344,note_on,5,0,4,,,,,,,,,4,,,,62,86
38345,note_on,0,0,2,,,,,,,,,1,,,,70,81
38345,note_on,5,0,2,,,,,,,,,1,,,,74,81
38346,note_on,5,0,5,,,,,,,,,5,,,,53,86
38347,note_on,175,0,3,,,,,,,,,3,,,,46,0
38347,note_on,0,0,3,,,,,,,,,3,,,,58,0
38350,note_on,30,0,6,,,,,,,,,10,,,,74,0
38352,note_on,5,0,3,,,,,,,,,3,,,,58,81
38352,note_on,0,0,3,,,,,,,,,3,,,,46,81
38353,note_on,30,0,7,,,,,,,,,11,,,,70,0
38353,note_on,0,0,7,,,,,,,,,11,,,,62,0
38356,note_on,30,0,8,,,,,,,,,12,,,,58,0
38360,note_on,10,0,6,,,,,,,,,10,,,,74,92
38361,note_on,30,0,9,,,,,,,,,13,,,,46,0
38363,note_on,0,0,7,,,,,,,,,11,,,,62,92
38363,note_on,30,0,10,,,,,,,,,14,,,,34,0
38363,note_on,10,0,7,,,,,,,,,11,,,,70,92
38366,note_on,10,0,8,,,,,,,,,12,,,,58,90
38371,note_on,10,0,9,,,,,,,,,13,,,,46,81
38373,note_on,10,0,10,,,,,,,,,14,,,,34,65
38390,note_on,30,0,6,,,,,,,,,10,,,,74,0
38393,note_on,30,0,7,,,,,,,,,11,,,,62,0
38393,note_on,0,0,7,,,,,,,,,11,,,,70,0
38396,note_on,30,0,8,,,,,,,,,12,,,,58,0
38398,note_on,55,0,1,,,,,,,,,0,,,,86,0
38399,note_on,55,0,4,,,,,,,,,4,,,,62,0
38400,set_tempo,80,1,0,,,,,,362538,,,,,,,,
38400,note_on,0,0,2,,,,,,,,,1,,,,74,0
38400,note_on,55,0,2,,,,,,,,,1,,,,70,0
38400,note_on,10,0,6,,,,,,,,,10,,,,77,100
38401,note_on,30,0,9,,,,,,,,,13,,,,46,0
38401,note_on,55,0,5,,,,,,,,,5,,,,53,0
38403,note_on,0,0,7,,,,,,,,,11,,,,70,100
38403,note_on,10,0,7,,,,,,,,,11,,,,65,100
38403,note_on,30,0,10,,,,,,,,,14,,,,34,0
38403,note_on,5,0,1,,,,,,,,,0,,,,89,82
38404,note_on,5,0,4,,,,,,,,,4,,,,65,86
38405,note_on,0,0,2,,,,,,,,,1,,,,70,81
38405,note_on,5,0,2,,,,,,,,,1,,,,77,81
38406,note_on,5,0,5,,,,,,,,,5,,,,53,86
38406,note_on,10,0,8,,,,,,,,,12,,,,62,98
38407,note_on,55,0,3,,,,,,,,,3,,,,46,0
38407,note_on,0,0,3,,,,,,,,,3,,,,58,0
38411,note_on,10,0,9,,,,,,,,,13,,,,50,89
38412,note_on,5,0,3,,,,,,,,,3,,,,62,81
38412,note_on,0,0,3,,,,,,,,,3,,,,50,81
38413,note_on,10,0,10,,,,,,,,,14,,,,38,73
38430,note_on,30,0,6,,,,,,,,,10,,,,77,0
38433,note_on,30,0,7,,,,,,,,,11,,,,70,0
38433,note_on,0,0,7,,,,,,,,,11,,,,65,0
38436,note_on,30,0,8,,,,,,,,,12,,,,62,0
38440,note_on,10,0,6,,,,,,,,,10,,,,77,92
38440,set_tempo,40,1,0,,,,,,346821,,,,,,,,
38441,note_on,30,0,9,,,,,,,,,13,,,,50,0
38443,note_on,0,0,7,,,,,,,,,11,,,,65,92
38443,note_on,30,0,10,,,,,,,,,14,,,,38,0
38443,note_on,10,0,7,,,,,,,,,11,,,,70,92
38446,note_on,10,0,8,,,,,,,,,12,,,,62,90
38451,note_on,10,0,9,,,,,,,,,13,,,,50,81
38453,note_on,10,0,10,,,,,,,,,14,,,,38,65
38470,note_on,30,0,6,,,,,,,,,10,,,,77,0
38473,note_on,0,0,7,,,,,,,,,11,,,,70,0
38473,note_on,30,0,7,,,,,,,,,11,,,,65,0
38476,note_on,30,0,8,,,,,,,,,12,,,,62,0
38480,note_on,10,0,6,,,,,,,,,10,,,,77,100
38481,note_on,30,0,9,,,,,,,,,13,,,,50,0
38483,note_on,10,0,7,,,,,,,,,11,,,,70,100
38483,note_on,30,0,10,,,,,,,,,14,,,,38,0
38483,note_on,0,0,7,,,,,,,,,11,,,,65,100
38486,note_on,10,0,8,,,,,,,,,12,,,,62,98
38491,note_on,10,0,9,,,,,,,,,13,,,,50,89
38493,note_on,10,0,10,,,,,,,,,14,,,,38,73
38510,note_on,30,0,6,,,,,,,,,10,,,,77,0
38513,note_on,0,0,7,,,,,,,,,11,,,,70,0
38513,note_on,30,0,7,,,,,,,,,11,,,,65,0
38516,note_on,30,0,8,,,,,,,,,12,,,,62,0
38520,set_tempo,80,1,0,,,,,,390879,,,,,,,,
38520,note_on,10,0,6,,,,,,,,,10,,,,77,92
38521,note_on,30,0,9,,,,,,,,,13,,,,50,0
38523,note_on,10,0,7,,,,,,,,,11,,,,65,92
38523,note_on,0,0,7,,,,,,,,,11,,,,70,92
38523,note_on,30,0,10,,,,,,,,,14,,,,38,0
38526,note_on,10,0,8,,,,,,,,,12,,,,62,90
38531,note_on,10,0,9,,,,,,,,,13,,,,50,81
38533,note_on,10,0,10,,,,,,,,,14,,,,38,65
38550,note_on,30,0,6,,,,,,,,,10,,,,77,0
38553,note_on,30,0,7,,,,,,,,,11,,,,70,0
38553,note_on,0,0,7,,,,,,,,,11,,,,65,0
38556,note_on,30,0,8,,,,,,,,,12,,,,62,0
38560,set_tempo,40,1,0,,,,,,373832,,,,,,,,
38560,note_on,10,0,6,,,,,,,,,10,,,,77,100
38561,note_on,30,0,9,,,,,,,,,13,,,,50,0
38563,note_on,10,0,7,,,,,,,,,11,,,,65,100
38563,note_on,30,0,10,,,,,,,,,14,,,,38,0
38563,note_on,0,0,7,,,,,,,,,11,,,,70,100
38566,note_on,10,0,8,,,,,,,,,12,,,,62,98
38571,note_on,10,0,9,,,,,,,,,13,,,,50,89
38573,note_on,10,0,10,,,,,,,,,14,,,,38,73
38578,note_on,175,0,1,,,,,,,,,0,,,,89,0
38579,note_on,175,0,4,,,,,,,,,4,,,,65,0
38580,note_on,0,0,2,,,,,,,,,1,,,,77,0
38580,note_on,175,0,2,,,,,,,,,1,,,,70,0
38581,note_on,175,0,5,,,,,,,,,5,,,,53,0
38583,note_on,5,0,1,,,,,,,,,0,,,,89,82
38584,note_on,5,0,4,,,,,,,,,4,,,,65,86
38585,note_on,0,0,2,,,,,,,,,1,,,,70,81
38585,note_on,5,0,2,,,,,,,,,1,,,,77,81
38586,note_on,5,0,5,,,,,,,,,5,,,,53,86
38587,note_on,0,0,3,,,,,,,,,3,,,,62,0
38587,note_on,175,0,3,,,,,,,,,3,,,,50,0
38590,note_on,30,0,6,,,,,,,,,10,,,,77,0
38592,note_on,5,0,3,,,,,,,,,3,,,,50,81
38592,note_on,0,0,3,,,,,,,,,3,,,,62,81
38593,note_on,0,0,7,,,,,,,,,11,,,,65,0
38593,note_on,30,0,7,,,,,,,,,11,,,,70,0
38596,note_on,30,0,8,,,,,,,,,12,,,,62,0
38600,note_on,10,0,6,,,,,,,,,10,,,,77,92
38601,note_on,30,0,9,,,,,,,,,13,,,,50,0
38603,note_on,0,0,7,,,,,,,,,11,,,,65,92
38603,note_on,10,0,7,,,,,,,,,11,,,,70,92
38603,note_on,30,0,10,,,,,,,,,14,,,,38,0
38606,note_on,10,0,8,,,,,,,,,12,,,,62,90
38611,note_on,10,0,9,,,,,,,,,13,,,,50,81
38613,note_on,10,0,10,,,,,,,,,14,,,,38,65
38630,note_on,30,0,6,,,,,,,,,10,,,,77,0
38633,note_on,30,0,7,,,,,,,,,11,,,,65,0
38633,note_on,0,0,7,,,,,,,,,11,,,,70,0
38636,note_on,30,0,8,,,,,,,,,12,,,,62,0
38638,note_on,55,0,1,,,,,,,,,0,,,,89,0
38639,note_on,55,0,4,,,,,,,,,4,,,,65,0
38640,note_on,10,0,6,,,,,,,,,10,,,,77,100
38640,note_on,0,0,2,,,,,,,,,1,,,,77,0
38640,note_on,55,0,2,,,,,,,,,1,,,,70,0
38640,set_tempo,80,1,0,,,,,,362538,,,,,,,,
38641,note_on,55,0,5,,,,,,,,,5,,,,53,0
38641,note_on,30,0,9,,,,,,,,,13,,,,50,0
38643,note_on,10,0,7,,,,,,,,,11,,,,69,100
38643,note_on,0,0,7,,,,,,,,,11,,,,65,100
38643,note_on,30,0,10,,,,,,,,,14,,,,38,0
38643,note_on,5,0,1,,,,,,,,,0,,,,89,82
38644,note_on,5,0,4,,,,,,,,,4,,,,65,86
38645,note_on,0,0,2,,,,,,,,,1,,,,69,81
38645,note_on,5,0,2,,,,,,,,,1,,,,77,81
38646,note_on,10,0,8,,,,,,,,,12,,,,65,98
38646,note_on,5,0,5,,,,,,,,,5,,,,53,86
38647,note_on,55,0,3,,,,,,,,,3,,,,62,0
38647,note_on,0,0,3,,,,,,,,,3,,,,50,0
38651,note_on,10,0,9,,,,,,,,,13,,,,53,89
38652,note_on,5,0,3,,,,,,,,,3,,,,65,81
38652,note_on,0,0,3,,,,,,,,,3,,,,53,81
38653,note_on,10,0,10,,,,,,,,,14,,,,41,73
38670,note_on,30,0,6,,,,,,,,,10,,,,77,0
38673,note_on,30,0,7,,,,,,,,,11,,,,65,0
38673,note_on,0,0,7,,,,,,,,,11,,,,69,0
38676,note_on,30,0,8,,,,,,,,,12,,,,65,0
38680,set_tempo,40,1,0,,,,,,346821,,,,,,,,
38680,note_on,10,0,6,,,,,,,,,10,,,,77,92
38681,note_on,30,0,9,,,,,,,,,13,,,,53,0
38683,note_on,30,0,10,,,,,,,,,14,,,,41,0
38683,note_on,0,0,7,,,,,,,,,11,,,,69,92
38683,note_on,10,0,7,,,,,,,,,11,,,,65,92
38686,note_on,10,0,8,,,,,,,,,12,,,,65,90
38691,note_on,10,0,9,,,,,,,,,13,,,,53,81
38693,note_on,10,0,10,,,,,,,,,14,,,,41,65
38710,note_on,30,0,6,,,,,,,,,10,,,,77,0
38713,note_on,0,0,7,,,,,,,,,11,,,,65,0
38713,note_on,30,0,7,,,,,,,,,11,,,,69,0
38716,note_on,30,0,8,,,,,,,,,12,,,,65,0
38720,note_on,10,0,6,,,,,,,,,10,,,,77,100
38721,note_on,30,0,9,,,,,,,,,13,,,,53,0
38723,note_on,30,0,10,,,,,,,,,14,,,,41,0
38723,note_on,0,0,7,,,,,,,,,11,,,,65,100
38723,note_on,10,0,7,,,,,,,,,11,,,,69,100
38726,note_on,10,0,8,,,,,,,,,12,,,,65,98
38731,note_on,10,0,9,,,,,,,,,13,,,,53,89
38733,note_on,10,0,10,,,,,,,,,14,,,,41,73
38750,note_on,30,0,6,,,,,,,,,10,,,,77,0
38753,note_on,30,0,7,,,,,,,,,11,,,,65,0
38753,note_on,0,0,7,,,,,,,,,11,,,,69,0
38756,note_on,30,0,8,,,,,,,,,12,,,,65,0
38760,note_on,10,0,6,,,,,,,,,10,,,,81,92
38760,set_tempo,80,1,0,,,,,,390879,,,,,,,,
38761,note_on,30,0,9,,,,,,,,,13,,,,53,0
38763,note_on,10,0,7,,,,,,,,,11,,,,69,92
38763,note_on,30,0,10,,,,,,,,,14,,,,41,0
38766,note_on,10,0,8,,,,,,,,,12,,,,69,90
38767,note_on,115,0,3,,,,,,,,,3,,,,53,0
38767,note_on,0,0,3,,,,,,,,,3,,,,65,0
38771,note_on,10,0,9,,,,,,,,,13,,,,57,81
38772,note_on,0,0,3,,,,,,,,,3,,,,45,81
38772,note_on,5,0,3,,,,,,,,,3,,,,57,81
38773,note_on,10,0,10,,,,,,,,,14,,,,45,65
38790,note_on,30,0,6,,,,,,,,,10,,,,81,0
38793,note_on,30,0,7,,,,,,,,,11,,,,69,0
38796,note_on,30,0,8,,,,,,,,,12,,,,69,0
38800,set_tempo,40,1,0,,,,,,373832,,,,,,,,
38800,note_on,10,0,6,,,,,,,,,10,,,,81,100
38801,note_on,30,0,9,,,,,,,,,13,,,,57,0
38803,note_on,30,0,10,,,,,,,,,14,,,,45,0
38803,note_on,10,0,7,,,,,,,,,11,,,,69,100
38806,note_on,10,0,8,,,,,,,,,12,,,,69,98
38811,note_on,10,0,9,,,,,,,,,13,,,,57,89
38813,note_on,10,0,10,,,,,,,,,14,,,,45,73
38830,note_on,30,0,6,,,,,,,,,10,,,,81,0
38833,note_on,30,0,7,,,,,,,,,11,,,,69,0
38836,note_on,30,0,8,,,,,,,,,12,,,,69,0
38840,note_on,10,0,6,,,,,,,,,10,,,,81,92
38841,note_on,30,0,9,,,,,,,,,13,,,,57,0
38843,note_on,10,0,7,,,,,,,,,11,,,,69,92
38843,note_on,30,0,10,,,,,,,,,14,,,,45,0
38846,note_on,10,0,8,,,,,,,,,12,,,,69,90
38851,note_on,10,0,9,,,,,,,,,13,,,,57,81
38853,note_on,10,0,10,,,,,,,,,14,,,,45,65
38870,note_on,30,0,6,,,,,,,,,10,,,,81,0
38873,note_on,30,0,7,,,,,,,,,11,,,,69,0
38876,note_on,30,0,8,,,,,,,,,12,,,,69,0
38880,note_on,10,0,6,,,,,,,,,10,,,,86,100
38880,set_tempo,80,1,0,,,,,,362538,,,,,,,,
38881,note_on,30,0,9,,,,,,,,,13,,,,57,0
38883,note_on,10,0,7,,,,,,,,,11,,,,74,100
38883,note_on,30,0,10,,,,,,,,,14,,,,45,0
38886,note_on,10,0,8,,,,,,,,,12,,,,74,98
38887,note_on,0,0,3,,,,,,,,,3,,,,57,0
38887,note_on,115,0,3,,,,,,,,,3,,,,45,0
38891,note_on,10,0,9,,,,,,,,,13,,,,62,89
38892,note_on,0,0,3,,,,,,,,,3,,,,62,81
38892,note_on,5,0,3,,,,,,,,,3,,,,50,81
38893,note_on,10,0,10,,,,,,,,,14,,,,50,73
38910,note_on,30,0,6,,,,,,,,,10,,,,86,0
38913,note_on,30,0,7,,,,,,,,,11,,,,74,0
38916,note_on,30,0,8,,,,,,,,,12,,,,74,0
38920,set_tempo,40,1,0,,,,,,346821,,,,,,,,
38920,note_on,10,0,6,,,,,,,,,10,,,,86,92
38921,note_on,30,0,9,,,,,,,,,13,,,,62,0
38923,note_on,30,0,10,,,,,,,,,14,,,,50,0
38923,note_on,10,0,7,,,,,,,,,11,,,,74,92
38926,note_on,10,0,8,,,,,,,,,12,,,,74,90
38931,note_on,10,0,9,,,,,,,,,13,,,,62,81
38933,note_on,10,0,10,,,,,,,,,14,,,,50,65
38950,note_on,30,0,6,,,,,,,,,10,,,,86,0
38953,note_on,30,0,7,,,,,,,,,11,,,,74,0
38956,note_on,30,0,8,,,,,,,,,12,,,,74,0
38960,note_on,10,0,6,,,,,,,,,10,,,,86,100
38961,note_on,30,0,9,,,,,,,,,13,,,,62,0
38963,note_on,10,0,7,,,,,,,,,11,,,,74,100
38963,note_on,30,0,10,,,,,,,,,14,,,,50,0
38966,note_on,10,0,8,,,,,,,,,12,,,,74,98
38971,note_on,10,0,9,,,,,,,,,13,,,,62,89
38973,note_on,10,0,10,,,,,,,,,14,,,,50,73
38990,note_on,30,0,6,,,,,,,,,10,,,,86,0
38993,note_on,30,0,7,,,,,,,,,11,,,,74,0
38996,note_on,30,0,8,,,,,,,,,12,,,,74,0
38998,note_on,355,0,1,,,,,,,,,0,,,,89,0
38999,note_on,355,0,4,,,,,,,,,4,,,,65,0
39000,note_on,355,0,2,,,,,,,,,1,,,,69,0
39000,note_on,0,0,2,,,,,,,,,1,,,,77,0
39000,note_on,10,0,6,,,,,,,,,10,,,,83,92
39000,set_tempo,80,1,0,,,,,,390879,,,,,,,,
39001,note_on,355,0,5,,,,,,,,,5,,,,53,0
39001,note_on,30,0,9,,,,,,,,,13,,,,62,0
39003,note_on,10,0,7,,,,,,,,,11,,,,71,92
39003,note_on,30,0,10,,,,,,,,,14,,,,50,0
39003,note_on,5,0,1,,,,,,,,,0,,,,83,82
39004,note_on,5,0,4,,,,,,,,,4,,,,65,86
39005,note_on,0,0,2,,,,,,,,,1,,,,71,81
39005,note_on,5,0,2,,,,,,,,,1,,,,77,81
39006,note_on,5,0,5,,,,,,,,,5,,,,53,86
39006,note_on,10,0,8,,,,,,,,,12,,,,62,90
39007,note_on,0,0,3,,,,,,,,,3,,,,50,0
39007,note_on,115,0,3,,,,,,,,,3,,,,62,0
39011,note_on,10,0,9,,,,,,,,,13,,,,50,81
39012,note_on,0,0,3,,,,,,,,,3,,,,62,81
39012,note_on,5,0,3,,,,,,,,,3,,,,50,81
39013,note_on,10,0,10,,,,,,,,,14,,,,38,65
39030,note_on,30,0,6,,,,,,,,,10,,,,83,0
39033,note_on,30,0,7,,,,,,,,,11,,,,71,0
39036,note_on,30,0,8,,,,,,,,,12,,,,62,0
39040,set_tempo,40,1,0,,,,,,373832,,,,,,,,
39040,note_on,10,0,6,,,,,,,,,10,,,,83,100
39041,note_on,30,0,9,,,,,,,,,13,,,,50,0
39043,note_on,10,0,7,,,,,,,,,11,,,,71,100
39043,note_on,30,0,10,,,,,,,,,14,,,,38,0
39046,note_on,10,0,8,,,,,,,,,12,,,,62,98
39051,note_on,10,0,9,,,,,,,,,13,,,,50,89
39053,note_on,10,0,10,,,,,,,,,14,,,,38,73
39070,note_on,30,0,6,,,,,,,,,10,,,,83,0
39073,note_on,30,0,7,,,,,,,,,11,,,,71,0
39076,note_on,30,0,8,,,,,,,,,12,,,,62,0
39080,note_on,10,0,6,,,,,,,,,10,,,,83,92
39081,note_on,30,0,9,,,,,,,,,13,,,,50,0
39083,note_on,30,0,10,,,,,,,,,14,,,,38,0
39083,note_on,10,0,7,,,,,,,,,11,,,,71,92
39086,note_on,10,0,8,,,,,,,,,12,,,,62,90
39091,note_on,10,0,9,,,,,,,,,13,,,,50,81
39093,note_on,10,0,10,,,,,,,,,14,,,,38,65
39110,note_on,30,0,6,,,,,,,,,10,,,,83,0
39113,note_on,30,0,7,,,,,,,,,11,,,,71,0
39116,note_on,30,0,8,,,,,,,,,12,,,,62,0
39118,note_on,115,0,1,,,,,,,,,0,,,,83,0
39119,note_on,115,0,4,,,,,,,,,4,,,,65,0
39120,note_on,115,0,2,,,,,,,,,1,,,,71,0
39120,note_on,10,0,6,,,,,,,,,10,,,,84,100
39120,note_on,0,0,2,,,,,,,,,1,,,,77,0
39120,set_tempo,80,1,0,,,,,,362538,,,,,,,,
39121,note_on,115,0,5,,,,,,,,,5,,,,53,0
39121,note_on,30,0,9,,,,,,,,,13,,,,50,0
39123,note_on,0,0,7,,,,,,,,,11,,,,72,100
39123,note_on,10,0,7,,,,,,,,,11,,,,81,100
39123,note_on,30,0,10,,,,,,,,,14,,,,38,0
39123,note_on,5,0,1,,,,,,,,,0,,,,84,95
39124,note_on,5,0,4,,,,,,,,,4,,,,60,86
39125,note_on,0,0,2,,,,,,,,,1,,,,81,94
39125,note_on,5,0,2,,,,,,,,,1,,,,72,94
39126,note_on,10,0,8,,,,,,,,,12,,,,60,98
39126,note_on,5,0,5,,,,,,,,,5,,,,60,86
39127,note_on,0,0,3,,,,,,,,,3,,,,50,0
39127,note_on,115,0,3,,,,,,,,,3,,,,62,0
39131,note_on,10,0,9,,,,,,,,,13,,,,48,89
39132,note_on,5,0,3,,,,,,,,,3,,,,60,94
39132,note_on,0,0,3,,,,,,,,,3,,,,48,94
39133,note_on,10,0,10,,,,,,,,,14,,,,36,73
39150,note_on,30,0,6,,,,,,,,,10,,,,84,0
39153,note_on,0,0,7,,,,,,,,,11,,,,81,0
39153,note_on,30,0,7,,,,,,,,,11,,,,72,0
39156,note_on,30,0,8,,,,,,,,,12,,,,60,0
39160,set_tempo,40,1,0,,,,,,346821,,,,,,,,
39160,note_on,10,0,6,,,,,,,,,10,,,,84,92
39161,note_on,30,0,9,,,,,,,,,13,,,,48,0
39163,note_on,30,0,10,,,,,,,,,14,,,,36,0
39163,note_on,10,0,7,,,,,,,,,11,,,,81,92
39163,note_on,0,0,7,,,,,,,,,11,,,,72,92
39166,note_on,10,0,8,,,,,,,,,12,,,,60,90
39171,note_on,10,0,9,,,,,,,,,13,,,,48,81
39173,note_on,10,0,10,,,,,,,,,14,,,,36,65
39190,note_on,30,0,6,,,,,,,,,10,,,,84,0
39193,note_on,30,0,7,,,,,,,,,11,,,,72,0
39193,note_on,0,0,7,,,,,,,,,11,,,,81,0
39196,note_on,30,0,8,,,,,,,,,12,,,,60,0
39200,note_on,10,0,6,,,,,,,,,10,,,,84,100
39201,note_on,30,0,9,,,,,,,,,13,,,,48,0
39203,note_on,30,0,10,,,,,,,,,14,,,,36,0
39203,note_on,10,0,7,,,,,,,,,11,,,,81,100
39203,note_on,0,0,7,,,,,,,,,11,,,,72,100
39206,note_on,10,0,8,,,,,,,,,12,,,,60,98
39211,note_on,10,0,9,,,,,,,,,13,,,,48,89
39213,note_on,10,0,10,,,,,,,,,14,,,,36,73
39230,note_on,30,0,6,,,,,,,,,10,,,,84,0
39233,note_on,0,0,7,,,,,,,,,11,,,,81,0
39233,note_on,30,0,7,,,,,,,,,11,,,,72,0
39236,note_on,30,0,8,,,,,,,,,12,,,,60,0
39240,note_on,10,0,6,,,,,,,,,10,,,,84,92
39240,set_tempo,80,1,0,,,,,,390879,,,,,,,,
39241,note_on,30,0,9,,,,,,,,,13,,,,48,0
39243,note_on,30,0,10,,,,,,,,,14,,,,36,0
39243,note_on,10,0,7,,,,,,,,,11,,,,81,92
39243,note_on,0,0,7,,,,,,,,,11,,,,72,92
39246,note_on,10,0,8,,,,,,,,,12,,,,60,90
39251,note_on,10,0,9,,,,,,,,,13,,,,48,81
39253,note_on,10,0,10,,,,,,,,,14,,,,36,65
39270,note_on,30,0,6,,,,,,,,,10,,,,84,0
39273,note_on,0,0,7,,,,,,,,,11,,,,81,0
39273,note_on,30,0,7,,,,,,,,,11,,,,72,0
39276,note_on,30,0,8,,,,,,,,,12,,,,60,0
39280,note_on,10,0,6,,,,,,,,,10,,,,84,100
39280,set_tempo,40,1,0,,,,,,373832,,,,,,,,
39281,note_on,30,0,9,,,,,,,,,13,,,,48,0
39283,note_on,0,0,7,,,,,,,,,11,,,,81,100
39283,note_on,10,0,7,,,,,,,,,11,,,,72,100
39283,note_on,30,0,10,,,,,,,,,14,,,,36,0
39286,note_on,10,0,8,,,,,,,,,12,,,,60,98
39291,note_on,10,0,9,,,,,,,,,13,,,,48,89
39293,note_on,10,0,10,,,,,,,,,14,,,,36,73
39310,note_on,30,0,6,,,,,,,,,10,,,,84,0
39313,note_on,30,0,7,,,,,,,,,11,,,,81,0
39313,note_on,0,0,7,,,,,,,,,11,,,,72,0
39316,note_on,30,0,8,,,,,,,,,12,,,,60,0
39320,note_on,10,0,6,,,,,,,,,10,,,,84,92
39321,note_on,30,0,9,,,,,,,,,13,,,,48,0
39323,note_on,30,0,10,,,,,,,,,14,,,,36,0
39323,note_on,10,0,7,,,,,,,,,11,,,,81,92
39323,note_on,0,0,7,,,,,,,,,11,,,,72,92
39326,note_on,10,0,8,,,,,,,,,12,,,,60,90
39331,note_on,10,0,9,,,,,,,,,13,,,,48,81
39333,note_on,10,0,10,,,,,,,,,14,,,,36,65
39350,note_on,30,0,6,,,,,,,,,10,,,,84,0
39353,note_on,0,0,7,,,,,,,,,11,,,,81,0
39353,note_on,30,0,7,,,,,,,,,11,,,,72,0
39356,note_on,30,0,8,,,,,,,,,12,,,,60,0
39360,set_tempo,80,1,0,,,,,,362538,,,,,,,,
39360,note_on,10,0,6,,,,,,,,,10,,,,82,100
39361,note_on,30,0,9,,,,,,,,,13,,,,48,0
39363,note_on,240,0,1,,,,,,,,,0,,,,84,0
39363,note_on,0,0,1,,,,,,,,,0,,,,82,82
39363,note_on,10,0,7,,,,,,,,,11,,,,72,100
39363,note_on,0,0,7,,,,,,,,,11,,,,79,100
39363,note_on,30,0,10,,,,,,,,,14,,,,36,0
39365,note_on,0,0,2,,,,,,,,,1,,,,79,81
39365,note_on,240,0,2,,,,,,,,,1,,,,81,0
39366,note_on,10,0,8,,,,,,,,,12,,,,60,98
39371,note_on,10,0,9,,,,,,,,,13,,,,48,89
39373,note_on,10,0,10,,,,,,,,,14,,,,36,73
39390,note_on,30,0,6,,,,,,,,,10,,,,82,0
39393,note_on,0,0,7,,,,,,,,,11,,,,72,0
39393,note_on,30,0,7,,,,,,,,,11,,,,79,0
39396,note_on,30,0,8,,,,,,,,,12,,,,60,0
39400,set_tempo,40,1,0,,,,,,346821,,,,,,,,
39400,note_on,10,0,6,,,,,,,,,10,,,,82,92
39401,note_on,30,0,9,,,,,,,,,13,,,,48,0
39403,note_on,0,0,7,,,,,,,,,11,,,,72,92
39403,note_on,10,0,7,,,,,,,,,11,,,,79,92
39403,note_on,30,0,10,,,,,,,,,14,,,,36,0
39406,note_on,10,0,8,,,,,,,,,12,,,,60,90
39411,note_on,10,0,9,,,,,,,,,13,,,,48,81
39413,note_on,10,0,10,,,,,,,,,14,,,,36,65
39430,note_on,30,0,6,,,,,,,,,10,,,,82,0
39433,note_on,30,0,7,,,,,,,,,11,,,,72,0
39433,note_on,0,0,7,,,,,,,,,11,,,,79,0
39436,note_on,30,0,8,,,,,,,,,12,,,,60,0
39440,note_on,10,0,6,,,,,,,,,10,,,,82,100
39441,note_on,30,0,9,,,,,,,,,13,,,,48,0
39443,note_on,30,0,10,,,,,,,,,14,,,,36,0
39443,note_on,0,0,7,,,,,,,,,11,,,,79,100
39443,note_on,10,0,7,,,,,,,,,11,,,,72,100
39446,note_on,10,0,8,,,,,,,,,12,,,,60,98
39451,note_on,10,0,9,,,,,,,,,13,,,,48,89
39453,note_on,10,0,10,,,,,,,,,14,,,,36,73
39470,note_on,30,0,6,,,,,,,,,10,,,,82,0
39473,note_on,30,0,7,,,,,,,,,11,,,,79,0
39473,note_on,0,0,7,,,,,,,,,11,,,,72,0
39476,note_on,30,0,8,,,,,,,,,12,,,,60,0
39480,note_on,10,0,6,,,,,,,,,10,,,,79,92
39480,set_tempo,80,1,0,,,,,,390879,,,,,,,,
39481,note_on,30,0,9,,,,,,,,,13,,,,48,0
39483,note_on,10,0,7,,,,,,,,,11,,,,70,92
39483,note_on,30,0,10,,,,,,,,,14,,,,36,0
39483,note_on,120,0,1,,,,,,,,,0,,,,82,0
39483,note_on,0,0,1,,,,,,,,,0,,,,79,82
39483,note_on,0,0,7,,,,,,,,,11,,,,76,92
39485,note_on,120,0,2,,,,,,,,,1,,,,79,0
39485,note_on,0,0,2,,,,,,,,,1,,,,72,0
39485,note_on,0,0,2,,,,,,,,,1,,,,76,81
39485,note_on,0,0,2,,,,,,,,,1,,,,70,81
39486,note_on,10,0,8,,,,,,,,,12,,,,60,90
39491,note_on,10,0,9,,,,,,,,,13,,,,48,81
39493,note_on,10,0,10,,,,,,,,,14,,,,36,65
39510,note_on,30,0,6,,,,,,,,,10,,,,79,0
39513,note_on,0,0,7,,,,,,,,,11,,,,70,0
39513,note_on,30,0,7,,,,,,,,,11,,,,76,0
39516,note_on,30,0,8,,,,,,,,,12,,,,60,0
39520,set_tempo,40,1,0,,,,,,373832,,,,,,,,
39520,note_on,10,0,6,,,,,,,,,10,,,,79,100
39521,note_on,30,0,9,,,,,,,,,13,,,,48,0
39523,note_on,0,0,7,,,,,,,,,11,,,,76,100
39523,note_on,10,0,7,,,,,,,,,11,,,,70,100
39523,note_on,30,0,10,,,,,,,,,14,,,,36,0
39526,note_on,10,0,8,,,,,,,,,12,,,,60,98
39531,note_on,10,0,9,,,,,,,,,13,,,,48,89
39533,note_on,10,0,10,,,,,,,,,14,,,,36,73
39550,note_on,30,0,6,,,,,,,,,10,,,,79,0
39553,note_on,0,0,7,,,,,,,,,11,,,,70,0
39553,note_on,30,0,7,,,,,,,,,11,,,,76,0
39556,note_on,30,0,8,,,,,,,,,12,,,,60,0
39560,note_on,10,0,6,,,,,,,,,10,,,,79,92
39561,note_on,30,0,9,,,,,,,,,13,,,,48,0
39563,note_on,10,0,7,,,,,,,,,11,,,,76,92
39563,note_on,0,0,7,,,,,,,,,11,,,,70,92
39563,note_on,30,0,10,,,,,,,,,14,,,,36,0
39566,note_on,10,0,8,,,,,,,,,12,,,,60,90
39570,set_tempo,50,1,0,,,,,,461538,,,,,,,,
39571,note_on,10,0,9,,,,,,,,,13,,,,48,81
39573,note_on,10,0,10,,,,,,,,,14,,,,36,65
39590,note_on,30,0,6,,,,,,,,,10,,,,79,0
39593,note_on,30,0,7,,,,,,,,,11,,,,70,0
39593,note_on,0,0,7,,,,,,,,,11,,,,76,0
39593,note_on,110,0,1,,,,,,,,,0,,,,79,0
39595,note_on,0,0,2,,,,,,,,,1,,,,76,0
39595,control_change,5,0,6,,,,,,,,,10,11,79,,,
39595,note_on,110,0,2,,,,,,,,,1,,,,70,0
39596,note_on,30,0,8,,,,,,,,,12,,,,60,0
39598,control_change,5,0,7,,,,,,,,,11,11,79,,,
39599,control_change,4,0,6,,,,,,,,,10,11,76,,,
39599,note_on,475,0,4,,,,,,,,,4,,,,60,0
39600,note_on,1,0,6,,,,,,,,,10,,,,77,100
39600,set_tempo,30,1,0,,,,,,362538,,,,,,,,
39601,note_on,30,0,9,,,,,,,,,13,,,,48,0
39601,control_change,5,0,8,,,,,,,,,12,11,79,,,
39601,note_on,475,0,5,,,,,,,,,5,,,,60,0
39602,control_change,4,0,7,,,,,,,,,11,11,76,,,
39602,note_on,0,0,3,,,,,,,,,3,,,,60,0
39602,note_on,470,0,3,,,,,,,,,3,,,,48,0
39603,control_change,10,0,1,,,,,,,,,0,11,47,,,
39603,note_on,0,0,1,,,,,,,,,0,,,,89,82
39603,note_on,30,0,10,,,,,,,,,14,,,,36,0
39603,note_on,0,0,7,,,,,,,,,11,,,,77,100
39603,note_on,1,0,7,,,,,,,,,11,,,,69,100
39603,control_change,3,0,6,,,,,,,,,10,11,73,,,
39604,note_on,0,0,4,,,,,,,,,4,,,,53,86
39604,control_change,5,0,4,,,,,,,,,4,11,47,,,
39605,control_change,10,0,2,,,,,,,,,1,11,47,,,
39605,control_change,4,0,8,,,,,,,,,12,11,76,,,
39605,note_on,0,0,2,,,,,,,,,1,,,,84,81
39605,note_on,0,0,2,,,,,,,,,1,,,,81,81
39606,control_change,3,0,7,,,,,,,,,11,11,73,,,
39606,note_on,0,0,5,,,,,,,,,5,,,,53,86
39606,control_change,5,0,9,,,,,,,,,13,11,79,,,
39606,note_on,1,0,8,,,,,,,,,12,,,,65,98
39606,control_change,5,0,5,,,,,,,,,5,11,47,,,
39608,control_change,5,0,10,,,,,,,,,14,11,79,,,
39609,control_change,3,0,8,,,,,,,,,12,11,73,,,
39610,control_change,4,0,9,,,,,,,,,13,11,76,,,
39611,control_change,8,0,6,,,,,,,,,10,11,68,,,
39611,note_on,1,0,9,,,,,,,,,13,,,,53,89
39612,control_change,10,0,3,,,,,,,,,3,11,47,,,
39612,control_change,4,0,10,,,,,,,,,14,11,76,,,
39612,note_on,0,0,3,,,,,,,,,3,,,,41,81
39612,note_on,0,0,3,,,,,,,,,3,,,,53,81
39613,note_on,1,0,10,,,,,,,,,14,,,,41,73
39614,control_change,3,0,9,,,,,,,,,13,11,73,,,
39614,control_change,8,0,7,,,,,,,,,11,11,68,,,
39615,control_change,4,0,6,,,,,,,,,10,11,65,,,
39616,control_change,3,0,10,,,,,,,,,14,11,73,,,
39617,control_change,8,0,8,,,,,,,,,12,11,68,,,
39618,control_change,4,0,7,,,,,,,,,11,11,65,,,
39619,control_change,4,0,6,,,,,,,,,10,11,62,,,
39621,control_change,4,0,8,,,,,,,,,12,11,65,,,
39622,control_change,4,0,7,,,,,,,,,11,11,62,,,
39622,control_change,8,0,9,,,,,,,,,13,11,68,,,
39623,control_change,4,0,6,,,,,,,,,10,11,59,,,
39624,control_change,8,0,10,,,,,,,,,14,11,68,,,
39625,control_change,4,0,8,,,,,,,,,12,11,62,,,
39626,control_change,4,0,9,,,,,,,,,13,11,65,,,
39626,control_change,4,0,7,,,,,,,,,11,11,59,,,
39627,control_change,4,0,6,,,,,,,,,10,11,55,,,
39628,control_change,4,0,10,,,,,,,,,14,11,65,,,
39629,control_change,4,0,8,,,,,,,,,12,11,59,,,
39630,note_on,3,0,6,,,,,,,,,10,,,,77,0
39630,control_change,4,0,9,,,,,,,,,13,11,62,,,
39630,control_change,4,0,7,,,,,,,,,11,11,55,,,
39631,control_change,1,0,6,,,,,,,,,10,11,51,,,
39632,control_change,4,0,10,,,,,,,,,14,11,62,,,
39633,control_change,4,0,8,,,,,,,,,12,11,55,,,
39634,control_change,4,0,9,,,,,,,,,13,11,59,,,
39634,control_change,4,0,7,,,,,,,,,11,11,51,,,
39635,control_change,4,0,6,,,,,,,,,10,11,47,,,
39636,control_change,4,0,10,,,,,,,,,14,11,59,,,
39637,control_change,4,0,8,,,,,,,,,12,11,51,,,
39638,control_change,4,0,9,,,,,,,,,13,11,55,,,
39638,control_change,4,0,7,,,,,,,,,11,11,47,,,
39640,set_tempo,40,1,0,,,,,,346821,,,,,,,,
39640,control_change,4,0,10,,,,,,,,,14,11,55,,,
39640,note_on,5,0,6,,,,,,,,,10,,,,81,100
39641,control_change,4,0,8,,,,,,,,,12,11,47,,,
39642,control_change,4,0,9,,,,,,,,,13,11,51,,,
39644,control_change,4,0,10,,,,,,,,,14,11,51,,,
39646,control_change,4,0,9,,,,,,,,,13,11,47,,,
39648,control_change,4,0,10,,,,,,,,,14,11,47,,,
39663,note_on,0,0,7,,,,,,,,,11,,,,69,0
39663,note_on,25,0,7,,,,,,,,,11,,,,77,0
39663,note_on,60,0,1,,,,,,,,,0,,,,89,0
39665,note_on,60,0,2,,,,,,,,,1,,,,81,0
39665,note_on,0,0,2,,,,,,,,,1,,,,84,0
39666,note_on,25,0,8,,,,,,,,,12,,,,65,0
39670,note_on,30,0,6,,,,,,,,,10,,,,81,0
39680,note_on,10,0,6,,,,,,,,,10,,,,77,100
39710,note_on,30,0,6,,,,,,,,,10,,,,77,0
39720,set_tempo,80,1,0,,,,,,390879,,,,,,,,
39720,note_on,10,0,6,,,,,,,,,10,,,,76,100
39723,note_on,60,0,1,,,,,,,,,0,,,,88,82
39723,note_on,60,0,7,,,,,,,,,11,,,,67,100
39724,note_on,120,0,4,,,,,,,,,4,,,,53,0
39725,note_on,0,0,2,,,,,,,,,1,,,,79,81
39725,note_on,60,0,2,,,,,,,,,1,,,,84,81
39726,note_on,60,0,8,,,,,,,,,12,,,,60,98
39726,note_on,120,0,5,,,,,,,,,5,,,,53,0
39731,note_on,85,0,9,,,,,,,,,13,,,,53,0
39732,note_on,120,0,3,,,,,,,,,3,,,,41,0
39732,note_on,0,0,3,,,,,,,,,3,,,,53,0
39733,note_on,85,0,10,,,,,,,,,14,,,,41,0
39750,note_on,30,0,6,,,,,,,,,10,,,,76,0
39760,set_tempo,40,1,0,,,,,,373832,,,,,,,,
39760,note_on,10,0,6,,,,,,,,,10,,,,79,100
39783,note_on,60,0,1,,,,,,,,,0,,,,88,0
39783,note_on,60,0,7,,,,,,,,,11,,,,67,0
39785,note_on,0,0,2,,,,,,,,,1,,,,84,0
39785,note_on,60,0,2,,,,,,,,,1,,,,79,0
39786,note_on,60,0,8,,,,,,,,,12,,,,60,0
39790,note_on,30,0,6,,,,,,,,,10,,,,79,0
39800,note_on,10,0,6,,,,,,,,,10,,,,76,100
39830,note_on,30,0,6,,,,,,,,,10,,,,76,0
39840,note_on,10,0,6,,,,,,,,,10,,,,74,100
39840,set_tempo,80,1,0,,,,,,362538,,,,,,,,
39843,note_on,60,0,7,,,,,,,,,11,,,,65,100
39843,note_on,60,0,1,,,,,,,,,0,,,,86,82
39845,note_on,60,0,2,,,,,,,,,1,,,,81,81
39845,note_on,0,0,2,,,,,,,,,1,,,,77,81
39846,note_on,60,0,8,,,,,,,,,12,,,,62,98
39870,note_on,30,0,6,,,,,,,,,10,,,,74,0
39880,set_tempo,40,1,0,,,,,,346821,,,,,,,,
39880,note_on,10,0,6,,,,,,,,,10,,,,77,100
39903,note_on,60,0,1,,,,,,,,,0,,,,86,0
39903,note_on,60,0,7,,,,,,,,,11,,,,65,0
39905,note_on,0,0,2,,,,,,,,,1,,,,81,0
39905,note_on,60,0,2,,,,,,,,,1,,,,77,0
39906,note_on,60,0,8,,,,,,,,,12,,,,62,0
39910,note_on,30,0,6,,,,,,,,,10,,,,77,0
39920,note_on,10,0,6,,,,,,,,,10,,,,74,100
39950,note_on,30,0,6,,,,,,,,,10,,,,74,0
39960,note_on,10,0,6,,,,,,,,,10,,,,72,100
39960,set_tempo,80,1,0,,,,,,390879,,,,,,,,
39963,note_on,60,0,1,,,,,,,,,0,,,,84,82
39963,note_on,60,0,7,,,,,,,,,11,,,,64,100
39965,note_on,0,0,2,,,,,,,,,1,,,,81,81
39965,note_on,60,0,2,,,,,,,,,1,,,,76,81
39966,note_on,60,0,8,,,,,,,,,12,,,,57,98
39990,note_on,30,0,6,,,,,,,,,10,,,,72,0
40000,note_on,10,0,6,,,,,,,,,10,,,,76,100
40000,set_tempo,40,1,0,,,,,,373832,,,,,,,,
40023,note_on,60,0,7,,,,,,,,,11,,,,64,0
40023,note_on,60,0,1,,,,,,,,,0,,,,84,0
40025,note_on,60,0,2,,,,,,,,,1,,,,81,0
40025,note_on,0,0,2,,,,,,,,,1,,,,76,0
40026,note_on,60,0,8,,,,,,,,,12,,,,57,0
40030,note_on,30,0,6,,,,,,,,,10,,,,76,0
40040,note_on,10,0,6,,,,,,,,,10,,,,72,100
40070,note_on,30,0,6,,,,,,,,,10,,,,72,0
40080,set_tempo,80,1,0,,,,,,362538,,,,,,,,
40080,note_on,10,0,6,,,,,,,,,10,,,,70,100
40083,note_on,60,0,1,,,,,,,,,0,,,,82,82
40083,note_on,60,0,7,,,,,,,,,11,,,,62,100
40085,note_on,60,0,2,,,,,,,,,1,,,,77,81
40085,note_on,0,0,2,,,,,,,,,1,,,,74,81
40086,note_on,60,0,8,,,,,,,,,12,,,,58,98
40110,note_on,30,0,6,,,,,,,,,10,,,,70,0
40120,note_on,10,0,6,,,,,,,,,10,,,,74,100
40120,set_tempo,40,1,0,,,,,,346821,,,,,,,,
40143,note_on,60,0,1,,,,,,,,,0,,,,82,0
40143,note_on,60,0,7,,,,,,,,,11,,,,62,0
40145,note_on,0,0,2,,,,,,,,,1,,,,77,0
40145,note_on,60,0,2,,,,,,,,,1,,,,74,0
40146,note_on,60,0,8,,,,,,,,,12,,,,58,0
40150,note_on,30,0,6,,,,,,,,,10,,,,74,0
40160,note_on,10,0,6,,,,,,,,,10,,,,70,100
40190,note_on,30,0,6,,,,,,,,,10,,,,70,0
40200,note_on,10,0,6,,,,,,,,,10,,,,69,100
40200,set_tempo,80,1,0,,,,,,390879,,,,,,,,
40203,note_on,60,0,1,,,,,,,,,0,,,,81,82
40203,note_on,60,0,7,,,,,,,,,11,,,,60,100
40205,note_on,60,0,2,,,,,,,,,1,,,,72,81
40205,note_on,0,0,2,,,,,,,,,1,,,,77,81
40206,note_on,60,0,8,,,,,,,,,12,,,,53,98
40230,note_on,30,0,6,,,,,,,,,10,,,,69,0
40240,note_on,10,0,6,,,,,,,,,10,,,,72,100
40240,set_tempo,40,1,0,,,,,,373832,,,,,,,,
40263,note_on,60,0,1,,,,,,,,,0,,,,81,0
40263,note_on,60,0,7,,,,,,,,,11,,,,60,0
40265,note_on,0,0,2,,,,,,,,,1,,,,72,0
40265,note_on,60,0,2,,,,,,,,,1,,,,77,0
40266,note_on,60,0,8,,,,,,,,,12,,,,53,0
40270,note_on,30,0,6,,,,,,,,,10,,,,72,0
40280,note_on,10,0,6,,,,,,,,,10,,,,69,100
40310,note_on,30,0,6,,,,,,,,,10,,,,69,0
40320,note_on,10,0,6,,,,,,,,,10,,,,67,100
40320,set_tempo,80,1,0,,,,,,362538,,,,,,,,
40323,note_on,60,0,1,,,,,,,,,0,,,,79,82
40323,note_on,60,0,7,,,,,,,,,11,,,,58,100
40325,note_on,60,0,2,,,,,,,,,1,,,,74,81
40325,note_on,0,0,2,,,,,,,,,1,,,,70,81
40326,note_on,60,0,8,,,,,,,,,12,,,,55,98
40350,note_on,30,0,6,,,,,,,,,10,,,,67,0
40360,set_tempo,40,1,0,,,,,,346821,,,,,,,,
40360,note_on,10,0,6,,,,,,,,,10,,,,70,100
40383,note_on,60,0,7,,,,,,,,,11,,,,58,0
40383,note_on,60,0,1,,,,,,,,,0,,,,79,0
40385,note_on,0,0,2,,,,,,,,,1,,,,74,0
40385,note_on,60,0,2,,,,,,,,,1,,,,70,0
40386,note_on,60,0,8,,,,,,,,,12,,,,55,0
40390,note_on,30,0,6,,,,,,,,,10,,,,70,0
40400,note_on,10,0,6,,,,,,,,,10,,,,67,100
40430,note_on,30,0,6,,,,,,,,,10,,,,67,0
40440,set_tempo,80,1,0,,,,,,390879,,,,,,,,
40440,note_on,10,0,6,,,,,,,,,10,,,,65,100
40443,note_on,60,0,1,,,,,,,,,0,,,,77,82
40443,note_on,60,0,7,,,,,,,,,11,,,,57,100
40445,note_on,0,0,2,,,,,,,,,1,,,,69,81
40445,note_on,60,0,2,,,,,,,,,1,,,,74,81
40446,note_on,60,0,8,,,,,,,,,12,,,,50,98
40470,note_on,30,0,6,,,,,,,,,10,,,,65,0
40480,set_tempo,40,1,0,,,,,,373832,,,,,,,,
40480,note_on,10,0,6,,,,,,,,,10,,,,69,100
40503,note_on,60,0,1,,,,,,,,,0,,,,77,0
40503,note_on,60,0,7,,,,,,,,,11,,,,57,0
40505,note_on,60,0,2,,,,,,,,,1,,,,69,0
40505,note_on,0,0,2,,,,,,,,,1,,,,74,0
40506,note_on,60,0,8,,,,,,,,,12,,,,50,0
40510,note_on,30,0,6,,,,,,,,,10,,,,69,0
40520,note_on,10,0,6,,,,,,,,,10,,,,65,100
40545,control_change,25,0,6,,,,,,,,,10,11,47,,,
40547,control_change,2,0,6,,,,,,,,,10,11,51,,,
40548,control_change,45,0,7,,,,,,,,,11,11,47,,,
40549,control_change,2,0,6,,,,,,,,,10,11,55,,,
40550,note_on,1,0,6,,,,,,,,,10,,,,65,0
40550,control_change,2,0,7,,,,,,,,,11,11,51,,,
40551,control_change,1,0,6,,,,,,,,,10,11,59,,,
40551,control_change,45,0,8,,,,,,,,,12,11,47,,,
40552,control_change,2,0,7,,,,,,,,,11,11,55,,,
40553,control_change,2,0,8,,,,,,,,,12,11,51,,,
40553,control_change,2,0,6,,,,,,,,,10,11,62,,,
40554,control_change,2,0,7,,,,,,,,,11,11,59,,,
40555,control_change,2,0,8,,,,,,,,,12,11,55,,,
40555,control_change,2,0,6,,,,,,,,,10,11,65,,,
40556,control_change,825,0,9,,,,,,,,,13,11,47,,,
40556,control_change,2,0,7,,,,,,,,,11,11,62,,,
40557,control_change,2,0,6,,,,,,,,,10,11,68,,,
40557,control_change,2,0,8,,,,,,,,,12,11,59,,,
40558,control_change,2,0,9,,,,,,,,,13,11,51,,,
40558,control_change,825,0,10,,,,,,,,,14,11,47,,,
40558,control_change,2,0,7,,,,,,,,,11,11,65,,,
40559,control_change,2,0,6,,,,,,,,,10,11,71,,,
40559,control_change,2,0,8,,,,,,,,,12,11,62,,,
40560,control_change,2,0,10,,,,,,,,,14,11,51,,,
40560,note_on,1,0,6,,,,,,,,,10,,,,74,100
40560,set_tempo,80,1,0,,,,,,362538,,,,,,,,
40560,control_change,2,0,9,,,,,,,,,13,11,55,,,
40560,control_change,2,0,7,,,,,,,,,11,11,68,,,
40561,control_change,2,0,8,,,,,,,,,12,11,65,,,
40562,control_change,2,0,7,,,,,,,,,11,11,71,,,
40562,control_change,2,0,9,,,,,,,,,13,11,59,,,
40562,control_change,2,0,10,,,,,,,,,14,11,55,,,
40563,note_on,0,0,7,,,,,,,,,11,,,,62,100
40563,note_on,1,0,7,,,,,,,,,11,,,,70,100
40563,control_change,2,0,8,,,,,,,,,12,11,68,,,
40563,note_on,0,0,1,,,,,,,,,0,,,,86,82
40563,control_change,3,0,6,,,,,,,,,10,11,76,,,
40563,control_change,60,0,1,,,,,,,,,0,11,89,,,
40564,control_change,2,0,10,,,,,,,,,14,11,59,,,
40564,control_change,2,0,9,,,,,,,,,13,11,62,,,
40564,control_change,840,0,4,,,,,,,,,4,11,79,,,
40564,note_on,0,0,4,,,,,,,,,4,,,,62,86
40565,control_change,2,0,6,,,,,,,,,10,11,79,,,
40565,control_change,60,0,2,,,,,,,,,1,11,89,,,
40565,note_on,0,0,2,,,,,,,,,1,,,,70,81
40565,note_on,0,0,2,,,,,,,,,1,,,,74,81
40565,control_change,2,0,8,,,,,,,,,12,11,71,,,
40566,control_change,2,0,9,,,,,,,,,13,11,65,,,
40566,control_change,3,0,7,,,,,,,,,11,11,76,,,
40566,note_on,1,0,8,,,,,,,,,12,,,,58,98
40566,control_change,840,0,5,,,,,,,,,5,11,79,,,
40566,control_change,2,0,10,,,,,,,,,14,11,62,,,
40566,note_on,0,0,5,,,,,,,,,5,,,,53,86
40568,control_change,2,0,10,,,,,,,,,14,11,65,,,
40568,control_change,2,0,9,,,,,,,,,13,11,68,,,
40568,control_change,2,0,7,,,,,,,,,11,11,79,,,
40569,control_change,3,0,8,,,,,,,,,12,11,76,,,
40570,control_change,2,0,10,,,,,,,,,14,11,68,,,
40570,control_change,2,0,9,,,,,,,,,13,11,71,,,
40571,control_change,2,0,8,,,,,,,,,12,11,79,,,
40571,note_on,1,0,9,,,,,,,,,13,,,,46,89
40572,control_change,840,0,3,,,,,,,,,3,11,89,,,
40572,note_on,0,0,3,,,,,,,,,3,,,,46,81
40572,note_on,0,0,3,,,,,,,,,3,,,,58,81
40572,control_change,2,0,10,,,,,,,,,14,11,71,,,
40573,note_on,1,0,10,,,,,,,,,14,,,,34,73
40574,control_change,3,0,9,,,,,,,,,13,11,76,,,
40576,control_change,3,0,10,,,,,,,,,14,11,76,,,
40576,control_change,2,0,9,,,,,,,,,13,11,79,,,
40578,control_change,2,0,10,,,,,,,,,14,11,79,,,
40590,note_on,25,0,6,,,,,,,,,10,,,,74,0
40593,note_on,25,0,7,,,,,,,,,11,,,,62,0
40593,note_on,0,0,7,,,,,,,,,11,,,,70,0
40596,note_on,25,0,8,,,,,,,,,12,,,,58,0
40600,note_on,10,0,6,,,,,,,,,10,,,,74,92
40600,set_tempo,40,1,0,,,,,,346821,,,,,,,,
40601,note_on,25,0,9,,,,,,,,,13,,,,46,0
40603,note_on,25,0,10,,,,,,,,,14,,,,34,0
40603,note_on,0,0,7,,,,,,,,,11,,,,70,92
40603,note_on,10,0,7,,,,,,,,,11,,,,62,92
40606,note_on,10,0,8,,,,,,,,,12,,,,58,90
40611,note_on,10,0,9,,,,,,,,,13,,,,46,81
40613,note_on,10,0,10,,,,,,,,,14,,,,34,65
40630,note_on,30,0,6,,,,,,,,,10,,,,74,0
40633,note_on,30,0,7,,,,,,,,,11,,,,70,0
40633,note_on,0,0,7,,,,,,,,,11,,,,62,0
40636,note_on,30,0,8,,,,,,,,,12,,,,58,0
40640,note_on,10,0,6,,,,,,,,,10,,,,74,100
40641,note_on,30,0,9,,,,,,,,,13,,,,46,0
40643,note_on,0,0,7,,,,,,,,,11,,,,70,100
40643,note_on,30,0,10,,,,,,,,,14,,,,34,0
40643,note_on,10,0,7,,,,,,,,,11,,,,62,100
40646,note_on,10,0,8,,,,,,,,,12,,,,58,98
40651,note_on,10,0,9,,,,,,,,,13,,,,46,89
40653,note_on,10,0,10,,,,,,,,,14,,,,34,73
40670,note_on,30,0,6,,,,,,,,,10,,,,74,0
40673,note_on,0,0,7,,,,,,,,,11,,,,62,0
40673,note_on,30,0,7,,,,,,,,,11,,,,70,0
40676,note_on,30,0,8,,,,,,,,,12,,,,58,0
40680,note_on,10,0,6,,,,,,,,,10,,,,74,92
40680,set_tempo,80,1,0,,,,,,390879,,,,,,,,
40681,note_on,30,0,9,,,,,,,,,13,,,,46,0
40683,note_on,0,0,7,,,,,,,,,11,,,,70,92
40683,note_on,10,0,7,,,,,,,,,11,,,,62,92
40683,note_on,30,0,10,,,,,,,,,14,,,,34,0
40686,note_on,10,0,8,,,,,,,,,12,,,,58,90
40691,note_on,10,0,9,,,,,,,,,13,,,,46,81
40693,note_on,10,0,10,,,,,,,,,14,,,,34,65
40710,note_on,30,0,6,,,,,,,,,10,,,,74,0
40713,note_on,0,0,7,,,,,,,,,11,,,,62,0
40713,note_on,30,0,7,,,,,,,,,11,,,,70,0
40716,note_on,30,0,8,,,,,,,,,12,,,,58,0
40720,set_tempo,40,1,0,,,,,,373832,,,,,,,,
40720,note_on,10,0,6,,,,,,,,,10,,,,74,100
40721,note_on,30,0,9,,,,,,,,,13,,,,46,0
40723,note_on,0,0,7,,,,,,,,,11,,,,62,100
40723,note_on,10,0,7,,,,,,,,,11,,,,70,100
40723,note_on,30,0,10,,,,,,,,,14,,,,34,0
40726,note_on,10,0,8,,,,,,,,,12,,,,58,98
40731,note_on,10,0,9,,,,,,,,,13,,,,46,89
40733,note_on,10,0,10,,,,,,,,,14,,,,34,73
40738,note_on,175,0,1,,,,,,,,,0,,,,86,0
40739,note_on,175,0,4,,,,,,,,,4,,,,62,0
40740,note_on,175,0,2,,,,,,,,,1,,,,74,0
40740,note_on,0,0,2,,,,,,,,,1,,,,70,0
40741,note_on,175,0,5,,,,,,,,,5,,,,53,0
40743,note_on,5,0,1,,,,,,,,,0,,,,86,82
40744,note_on,5,0,4,,,,,,,,,4,,,,62,86
40745,note_on,5,0,2,,,,,,,,,1,,,,74,81
40745,note_on,0,0,2,,,,,,,,,1,,,,70,81
40746,note_on,5,0,5,,,,,,,,,5,,,,53,86
40747,note_on,175,0,3,,,,,,,,,3,,,,58,0
40747,note_on,0,0,3,,,,,,,,,3,,,,46,0
40750,note_on,30,0,6,,,,,,,,,10,,,,74,0
40752,note_on,0,0,3,,,,,,,,,3,,,,46,81
40752,note_on,5,0,3,,,,,,,,,3,,,,58,81
40753,note_on,0,0,7,,,,,,,,,11,,,,70,0
40753,note_on,30,0,7,,,,,,,,,11,,,,62,0
40756,note_on,30,0,8,,,,,,,,,12,,,,58,0
40760,note_on,10,0,6,,,,,,,,,10,,,,74,92
40761,note_on,30,0,9,,,,,,,,,13,,,,46,0
40763,note_on,30,0,10,,,,,,,,,14,,,,34,0
40763,note_on,0,0,7,,,,,,,,,11,,,,62,92
40763,note_on,10,0,7,,,,,,,,,11,,,,70,92
40766,note_on,10,0,8,,,,,,,,,12,,,,58,90
40771,note_on,10,0,9,,,,,,,,,13,,,,46,81
40773,note_on,10,0,10,,,,,,,,,14,,,,34,65
40790,note_on,30,0,6,,,,,,,,,10,,,,74,0
40793,note_on,30,0,7,,,,,,,,,11,,,,62,0
40793,note_on,0,0,7,,,,,,,,,11,,,,70,0
40796,note_on,30,0,8,,,,,,,,,12,,,,58,0
40798,note_on,55,0,1,,,,,,,,,0,,,,86,0
40799,note_on,55,0,4,,,,,,,,,4,,,,62,0
40800,note_on,55,0,2,,,,,,,,,1,,,,70,0
40800,set_tempo,80,1,0,,,,,,362538,,,,,,,,
40800,note_on,10,0,6,,,,,,,,,10,,,,77,100
40800,note_on,0,0,2,,,,,,,,,1,,,,74,0
40801,note_on,30,0,9,,,,,,,,,13,,,,46,0
40801,note_on,55,0,5,,,,,,,,,5,,,,53,0
40803,note_on,10,0,7,,,,,,,,,11,,,,70,100
40803,note_on,5,0,1,,,,,,,,,0,,,,89,82
40803,note_on,30,0,10,,,,,,,,,14,,,,34,0
40803,note_on,0,0,7,,,,,,,,,11,,,,65,100
40804,note_on,5,0,4,,,,,,,,,4,,,,65,86
40805,note_on,0,0,2,,,,,,,,,1,,,,70,81
40805,note_on,5,0,2,,,,,,,,,1,,,,77,81
40806,note_on,5,0,5,,,,,,,,,5,,,,53,86
40806,note_on,10,0,8,,,,,,,,,12,,,,62,98
40807,note_on,55,0,3,,,,,,,,,3,,,,46,0
40807,note_on,0,0,3,,,,,,,,,3,,,,58,0
40811,note_on,10,0,9,,,,,,,,,13,,,,50,89
40812,note_on,5,0,3,,,,,,,,,3,,,,50,81
40812,note_on,0,0,3,,,,,,,,,3,,,,62,81
40813,note_on,10,0,10,,,,,,,,,14,,,,38,73
40830,note_on,30,0,6,,,,,,,,,10,,,,77,0
40833,note_on,0,0,7,,,,,,,,,11,,,,70,0
40833,note_on,30,0,7,,,,,,,,,11,,,,65,0
40836,note_on,30,0,8,,,,,,,,,12,,,,62,0
40840,note_on,10,0,6,,,,,,,,,10,,,,77,92
40840,set_tempo,40,1,0,,,,,,346821,,,,,,,,
40841,note_on,30,0,9,,,,,,,,,13,,,,50,0
40843,note_on,0,0,7,,,,,,,,,11,,,,65,92
40843,note_on,10,0,7,,,,,,,,,11,,,,70,92
40843,note_on,30,0,10,,,,,,,,,14,,,,38,0
40846,note_on,10,0,8,,,,,,,,,12,,,,62,90
40851,note_on,10,0,9,,,,,,,,,13,,,,50,81
40853,note_on,10,0,10,,,,,,,,,14,,,,38,65
40870,note_on,30,0,6,,,,,,,,,10,,,,77,0
40873,note_on,0,0,7,,,,,,,,,11,,,,70,0
40873,note_on,30,0,7,,,,,,,,,11,,,,65,0
40876,note_on,30,0,8,,,,,,,,,12,,,,62,0
40880,note_on,10,0,6,,,,,,,,,10,,,,77,100
40881,note_on,30,0,9,,,,,,,,,13,,,,50,0
40883,note_on,30,0,10,,,,,,,,,14,,,,38,0
40883,note_on,0,0,7,,,,,,,,,11,,,,65,100
40883,note_on,10,0,7,,,,,,,,,11,,,,70,100
40886,note_on,10,0,8,,,,,,,,,12,,,,62,98
40891,note_on,10,0,9,,,,,,,,,13,,,,50,89
40893,note_on,10,0,10,,,,,,,,,14,,,,38,73
40910,note_on,30,0,6,,,,,,,,,10,,,,77,0
40913,note_on,0,0,7,,,,,,,,,11,,,,70,0
40913,note_on,30,0,7,,,,,,,,,11,,,,65,0
40916,note_on,30,0,8,,,,,,,,,12,,,,62,0
40920,set_tempo,80,1,0,,,,,,390879,,,,,,,,
40920,note_on,10,0,6,,,,,,,,,10,,,,77,92
40921,note_on,30,0,9,,,,,,,,,13,,,,50,0
40923,note_on,10,0,7,,,,,,,,,11,,,,70,92
40923,note_on,30,0,10,,,,,,,,,14,,,,38,0
40923,note_on,0,0,7,,,,,,,,,11,,,,65,92
40926,note_on,10,0,8,,,,,,,,,12,,,,62,90
40931,note_on,10,0,9,,,,,,,,,13,,,,50,81
40933,note_on,10,0,10,,,,,,,,,14,,,,38,65
40950,note_on,30,0,6,,,,,,,,,10,,,,77,0
40953,note_on,30,0,7,,,,,,,,,11,,,,65,0
40953,note_on,0,0,7,,,,,,,,,11,,,,70,0
40956,note_on,30,0,8,,,,,,,,,12,,,,62,0
40960,set_tempo,40,1,0,,,,,,373832,,,,,,,,
40960,note_on,10,0,6,,,,,,,,,10,,,,77,100
40961,note_on,30,0,9,,,,,,,,,13,,,,50,0
40963,note_on,10,0,7,,,,,,,,,11,,,,70,100
40963,note_on,0,0,7,,,,,,,,,11,,,,65,100
40963,note_on,30,0,10,,,,,,,,,14,,,,38,0
40966,note_on,10,0,8,,,,,,,,,12,,,,62,98
40971,note_on,10,0,9,,,,,,,,,13,,,,50,89
40973,note_on,10,0,10,,,,,,,,,14,,,,38,73
40978,note_on,175,0,1,,,,,,,,,0,,,,89,0
40979,note_on,175,0,4,,,,,,,,,4,,,,65,0
40980,note_on,175,0,2,,,,,,,,,1,,,,70,0
40980,note_on,0,0,2,,,,,,,,,1,,,,77,0
40981,note_on,175,0,5,,,,,,,,,5,,,,53,0
40983,note_on,5,0,1,,,,,,,,,0,,,,89,82
40984,note_on,5,0,4,,,,,,,,,4,,,,65,86
40985,note_on,5,0,2,,,,,,,,,1,,,,77,81
40985,note_on,0,0,2,,,,,,,,,1,,,,70,81
40986,note_on,5,0,5,,,,,,,,,5,,,,53,86
40987,note_on,0,0,3,,,,,,,,,3,,,,50,0
40987,note_on,175,0,3,,,,,,,,,3,,,,62,0
40990,note_on,30,0,6,,,,,,,,,10,,,,77,0
40992,note_on,0,0,3,,,,,,,,,3,,,,50,81
40992,note_on,5,0,3,,,,,,,,,3,,,,62,81
40993,note_on,0,0,7,,,,,,,,,11,,,,70,0
40993,note_on,30,0,7,,,,,,,,,11,,,,65,0
40996,note_on,30,0,8,,,,,,,,,12,,,,62,0
41000,note_on,10,0,6,,,,,,,,,10,,,,77,92
41001,note_on,30,0,9,,,,,,,,,13,,,,50,0
41003,note_on,0,0,7,,,,,,,,,11,,,,65,92
41003,note_on,10,0,7,,,,,,,,,11,,,,70,92
41003,note_on,30,0,10,,,,,,,,,14,,,,38,0
41006,note_on,10,0,8,,,,,,,,,12,,,,62,90
41011,note_on,10,0,9,,,,,,,,,13,,,,50,81
41013,note_on,10,0,10,,,,,,,,,14,,,,38,65
41030,note_on,30,0,6,,,,,,,,,10,,,,77,0
41033,note_on,30,0,7,,,,,,,,,11,,,,65,0
41033,note_on,0,0,7,,,,,,,,,11,,,,70,0
41036,note_on,30,0,8,,,,,,,,,12,,,,62,0
41038,note_on,55,0,1,,,,,,,,,0,,,,89,0
41039,note_on,55,0,4,,,,,,,,,4,,,,65,0
41040,note_on,55,0,2,,,,,,,,,1,,,,70,0
41040,note_on,0,0,2,,,,,,,,,1,,,,77,0
41040,note_on,10,0,6,,,,,,,,,10,,,,77,100
41040,set_tempo,80,1,0,,,,,,362538,,,,,,,,
41041,note_on,55,0,5,,,,,,,,,5,,,,53,0
41041,note_on,30,0,9,,,,,,,,,13,,,,50,0
41043,note_on,10,0,7,,,,,,,,,11,,,,65,100
41043,note_on,30,0,10,,,,,,,,,14,,,,38,0
41043,note_on,5,0,1,,,,,,,,,0,,,,89,82
41043,note_on,0,0,7,,,,,,,,,11,,,,69,100
41044,note_on,5,0,4,,,,,,,,,4,,,,65,86
41045,note_on,0,0,2,,,,,,,,,1,,,,77,81
41045,note_on,5,0,2,,,,,,,,,1,,,,69,81
41046,note_on,10,0,8,,,,,,,,,12,,,,65,98
41046,note_on,5,0,5,,,,,,,,,5,,,,53,86
41047,note_on,0,0,3,,,,,,,,,3,,,,62,0
41047,note_on,55,0,3,,,,,,,,,3,,,,50,0
41051,note_on,10,0,9,,,,,,,,,13,,,,53,89
41052,note_on,5,0,3,,,,,,,,,3,,,,53,81
41052,note_on,0,0,3,,,,,,,,,3,,,,65,81
41053,note_on,10,0,10,,,,,,,,,14,,,,41,73
41070,note_on,30,0,6,,,,,,,,,10,,,,77,0
41073,note_on,0,0,7,,,,,,,,,11,,,,65,0
41073,note_on,30,0,7,,,,,,,,,11,,,,69,0
41076,note_on,30,0,8,,,,,,,,,12,,,,65,0
41080,set_tempo,40,1,0,,,,,,346821,,,,,,,,
41080,note_on,10,0,6,,,,,,,,,10,,,,77,92
41081,note_on,30,0,9,,,,,,,,,13,,,,53,0
41083,note_on,30,0,10,,,,,,,,,14,,,,41,0
41083,note_on,0,0,7,,,,,,,,,11,,,,65,92
41083,note_on,10,0,7,,,,,,,,,11,,,,69,92
41086,note_on,10,0,8,,,,,,,,,12,,,,65,90
41091,note_on,10,0,9,,,,,,,,,13,,,,53,81
41093,note_on,10,0,10,,,,,,,,,14,,,,41,65
41110,note_on,30,0,6,,,,,,,,,10,,,,77,0
41113,note_on,0,0,7,,,,,,,,,11,,,,69,0
41113,note_on,30,0,7,,,,,,,,,11,,,,65,0
41116,note_on,30,0,8,,,,,,,,,12,,,,65,0
41120,note_on,10,0,6,,,,,,,,,10,,,,77,100
41121,note_on,30,0,9,,,,,,,,,13,,,,53,0
41123,note_on,10,0,7,,,,,,,,,11,,,,69,100
41123,note_on,0,0,7,,,,,,,,,11,,,,65,100
41123,note_on,30,0,10,,,,,,,,,14,,,,41,0
41126,note_on,10,0,8,,,,,,,,,12,,,,65,98
41131,note_on,10,0,9,,,,,,,,,13,,,,53,89
41133,note_on,10,0,10,,,,,,,,,14,,,,41,73
41150,note_on,30,0,6,,,,,,,,,10,,,,77,0
41153,note_on,30,0,7,,,,,,,,,11,,,,65,0
41153,note_on,0,0,7,,,,,,,,,11,,,,69,0
41156,note_on,30,0,8,,,,,,,,,12,,,,65,0
41160,set_tempo,80,1,0,,,,,,390879,,,,,,,,
41160,note_on,10,0,6,,,,,,,,,10,,,,81,92
41161,note_on,30,0,9,,,,,,,,,13,,,,53,0
41163,note_on,10,0,7,,,,,,,,,11,,,,69,92
41163,note_on,30,0,10,,,,,,,,,14,,,,41,0
41166,note_on,10,0,8,,,,,,,,,12,,,,69,90
41167,note_on,115,0,3,,,,,,,,,3,,,,65,0
41167,note_on,0,0,3,,,,,,,,,3,,,,53,0
41171,note_on,10,0,9,,,,,,,,,13,,,,57,81
41172,note_on,5,0,3,,,,,,,,,3,,,,57,81
41172,note_on,0,0,3,,,,,,,,,3,,,,45,81
41173,note_on,10,0,10,,,,,,,,,14,,,,45,65
41190,note_on,30,0,6,,,,,,,,,10,,,,81,0
41193,note_on,30,0,7,,,,,,,,,11,,,,69,0
41196,note_on,30,0,8,,,,,,,,,12,,,,69,0
41200,set_tempo,40,1,0,,,,,,373832,,,,,,,,
41200,note_on,10,0,6,,,,,,,,,10,,,,81,100
41201,note_on,30,0,9,,,,,,,,,13,,,,57,0
41203,note_on,10,0,7,,,,,,,,,11,,,,69,100
41203,note_on,30,0,10,,,,,,,,,14,,,,45,0
41206,note_on,10,0,8,,,,,,,,,12,,,,69,98
41211,note_on,10,0,9,,,,,,,,,13,,,,57,89
41213,note_on,10,0,10,,,,,,,,,14,,,,45,73
41230,note_on,30,0,6,,,,,,,,,10,,,,81,0
41233,note_on,30,0,7,,,,,,,,,11,,,,69,0
41236,note_on,30,0,8,,,,,,,,,12,,,,69,0
41240,note_on,10,0,6,,,,,,,,,10,,,,81,92
41241,note_on,30,0,9,,,,,,,,,13,,,,57,0
41243,note_on,30,0,10,,,,,,,,,14,,,,45,0
41243,note_on,10,0,7,,,,,,,,,11,,,,69,92
41246,note_on,10,0,8,,,,,,,,,12,,,,69,90
41251,note_on,10,0,9,,,,,,,,,13,,,,57,81
41253,note_on,10,0,10,,,,,,,,,14,,,,45,65
41270,note_on,30,0,6,,,,,,,,,10,,,,81,0
41273,note_on,30,0,7,,,,,,,,,11,,,,69,0
41276,note_on,30,0,8,,,,,,,,,12,,,,69,0
41280,note_on,10,0,6,,,,,,,,,10,,,,86,100
41280,set_tempo,80,1,0,,,,,,362538,,,,,,,,
41281,note_on,30,0,9,,,,,,,,,13,,,,57,0
41283,note_on,30,0,10,,,,,,,,,14,,,,45,0
41283,note_on,10,0,7,,,,,,,,,11,,,,74,100
41286,note_on,10,0,8,,,,,,,,,12,,,,74,98
41287,note_on,115,0,3,,,,,,,,,3,,,,45,0
41287,note_on,0,0,3,,,,,,,,,3,,,,57,0
41291,note_on,10,0,9,,,,,,,,,13,,,,62,89
41292,note_on,0,0,3,,,,,,,,,3,,,,62,81
41292,note_on,5,0,3,,,,,,,,,3,,,,50,81
41293,note_on,10,0,10,,,,,,,,,14,,,,50,73
41310,note_on,30,0,6,,,,,,,,,10,,,,86,0
41313,note_on,30,0,7,,,,,,,,,11,,,,74,0
41316,note_on,30,0,8,,,,,,,,,12,,,,74,0
41320,note_on,10,0,6,,,,,,,,,10,,,,86,92
41320,set_tempo,40,1,0,,,,,,346821,,,,,,,,
41321,note_on,30,0,9,,,,,,,,,13,,,,62,0
41323,note_on,10,0,7,,,,,,,,,11,,,,74,92
41323,note_on,30,0,10,,,,,,,,,14,,,,50,0
41326,note_on,10,0,8,,,,,,,,,12,,,,74,90
41331,note_on,10,0,9,,,,,,,,,13,,,,62,81
41333,note_on,10,0,10,,,,,,,,,14,,,,50,65
41350,note_on,30,0,6,,,,,,,,,10,,,,86,0
41353,note_on,30,0,7,,,,,,,,,11,,,,74,0
41356,note_on,30,0,8,,,,,,,,,12,,,,74,0
41360,note_on,10,0,6,,,,,,,,,10,,,,86,100
41361,note_on,30,0,9,,,,,,,,,13,,,,62,0
41363,note_on,30,0,10,,,,,,,,,14,,,,50,0
41363,note_on,10,0,7,,,,,,,,,11,,,,74,100
41366,note_on,10,0,8,,,,,,,,,12,,,,74,98
41371,note_on,10,0,9,,,,,,,,,13,,,,62,89
41373,note_on,10,0,10,,,,,,,,,14,,,,50,73
41390,note_on,30,0,6,,,,,,,,,10,,,,86,0
41393,note_on,30,0,7,,,,,,,,,11,,,,74,0
41396,note_on,30,0,8,,,,,,,,,12,,,,74,0
41398,note_on,355,0,1,,,,,,,,,0,,,,89,0
41399,note_on,355,0,4,,,,,,,,,4,,,,65,0
41400,note_on,0,0,2,,,,,,,,,1,,,,69,0
41400,set_tempo,80,1,0,,,,,,390879,,,,,,,,
41400,note_on,10,0,6,,,,,,,,,10,,,,83,92
41400,note_on,355,0,2,,,,,,,,,1,,,,77,0
41401,note_on,30,0,9,,,,,,,,,13,,,,62,0
41401,note_on,355,0,5,,,,,,,,,5,,,,53,0
41403,note_on,10,0,7,,,,,,,,,11,,,,71,92
41403,note_on,5,0,1,,,,,,,,,0,,,,83,82
41403,note_on,30,0,10,,,,,,,,,14,,,,50,0
41404,note_on,5,0,4,,,,,,,,,4,,,,65,86
41405,note_on,5,0,2,,,,,,,,,1,,,,71,81
41405,note_on,0,0,2,,,,,,,,,1,,,,77,81
41406,note_on,10,0,8,,,,,,,,,12,,,,62,90
41406,note_on,5,0,5,,,,,,,,,5,,,,53,86
41407,note_on,0,0,3,,,,,,,,,3,,,,50,0
41407,note_on,115,0,3,,,,,,,,,3,,,,62,0
41411,note_on,10,0,9,,,,,,,,,13,,,,50,81
41412,note_on,0,0,3,,,,,,,,,3,,,,50,81
41412,note_on,5,0,3,,,,,,,,,3,,,,62,81
41413,note_on,10,0,10,,,,,,,,,14,,,,38,65
41430,note_on,30,0,6,,,,,,,,,10,,,,83,0
41433,note_on,30,0,7,,,,,,,,,11,,,,71,0
41436,note_on,30,0,8,,,,,,,,,12,,,,62,0
41440,note_on,10,0,6,,,,,,,,,10,,,,83,100
41440,set_tempo,40,1,0,,,,,,373832,,,,,,,,
41441,note_on,30,0,9,,,,,,,,,13,,,,50,0
41443,note_on,10,0,7,,,,,,,,,11,,,,71,100
41443,note_on,30,0,10,,,,,,,,,14,,,,38,0
41446,note_on,10,0,8,,,,,,,,,12,,,,62,98
41451,note_on,10,0,9,,,,,,,,,13,,,,50,89
41453,note_on,10,0,10,,,,,,,,,14,,,,38,73
41470,note_on,30,0,6,,,,,,,,,10,,,,83,0
41473,note_on,30,0,7,,,,,,,,,11,,,,71,0
41476,note_on,30,0,8,,,,,,,,,12,,,,62,0
41480,note_on,10,0,6,,,,,,,,,10,,,,83,92
41481,note_on,30,0,9,,,,,,,,,13,,,,50,0
41483,note_on,30,0,10,,,,,,,,,14,,,,38,0
41483,note_on,10,0,7,,,,,,,,,11,,,,71,92
41486,note_on,10,0,8,,,,,,,,,12,,,,62,90
41491,note_on,10,0,9,,,,,,,,,13,,,,50,81
41493,note_on,10,0,10,,,,,,,,,14,,,,38,65
41510,note_on,30,0,6,,,,,,,,,10,,,,83,0
41513,note_on,30,0,7,,,,,,,,,11,,,,71,0
41516,note_on,30,0,8,,,,,,,,,12,,,,62,0
41518,note_on,115,0,1,,,,,,,,,0,,,,83,0
41519,note_on,115,0,4,,,,,,,,,4,,,,65,0
41520,set_tempo,80,1,0,,,,,,362538,,,,,,,,
41520,note_on,115,0,2,,,,,,,,,1,,,,77,0
41520,note_on,0,0,2,,,,,,,,,1,,,,71,0
41520,note_on,10,0,6,,,,,,,,,10,,,,84,100
41521,note_on,115,0,5,,,,,,,,,5,,,,53,0
41521,note_on,30,0,9,,,,,,,,,13,,,,50,0
41523,note_on,0,0,7,,,,,,,,,11,,,,72,100
41523,note_on,10,0,7,,,,,,,,,11,,,,81,100
41523,note_on,5,0,1,,,,,,,,,0,,,,84,95
41523,note_on,30,0,10,,,,,,,,,14,,,,38,0
41524,note_on,5,0,4,,,,,,,,,4,,,,60,86
41525,note_on,5,0,2,,,,,,,,,1,,,,72,94
41525,note_on,0,0,2,,,,,,,,,1,,,,81,94
41526,note_on,10,0,8,,,,,,,,,12,,,,60,98
41526,note_on,5,0,5,,,,,,,,,5,,,,60,86
41527,note_on,115,0,3,,,,,,,,,3,,,,50,0
41527,note_on,0,0,3,,,,,,,,,3,,,,62,0
41531,note_on,10,0,9,,,,,,,,,13,,,,48,89
41532,note_on,5,0,3,,,,,,,,,3,,,,48,94
41532,note_on,0,0,3,,,,,,,,,3,,,,60,94
41533,note_on,10,0,10,,,,,,,,,14,,,,36,73
41550,note_on,30,0,6,,,,,,,,,10,,,,84,0
41553,note_on,0,0,7,,,,,,,,,11,,,,81,0
41553,note_on,30,0,7,,,,,,,,,11,,,,72,0
41556,note_on,30,0,8,,,,,,,,,12,,,,60,0
41560,note_on,10,0,6,,,,,,,,,10,,,,84,92
41560,set_tempo,40,1,0,,,,,,346821,,,,,,,,
41561,note_on,30,0,9,,,,,,,,,13,,,,48,0
41563,note_on,0,0,7,,,,,,,,,11,,,,81,92
41563,note_on,30,0,10,,,,,,,,,14,,,,36,0
41563,note_on,10,0,7,,,,,,,,,11,,,,72,92
41566,note_on,10,0,8,,,,,,,,,12,,,,60,90
41571,note_on,10,0,9,,,,,,,,,13,,,,48,81
41573,note_on,10,0,10,,,,,,,,,14,,,,36,65
41590,note_on,30,0,6,,,,,,,,,10,,,,84,0
41593,note_on,30,0,7,,,,,,,,,11,,,,81,0
41593,note_on,0,0,7,,,,,,,,,11,,,,72,0
41596,note_on,30,0,8,,,,,,,,,12,,,,60,0
41600,note_on,10,0,6,,,,,,,,,10,,,,84,100
41601,note_on,30,0,9,,,,,,,,,13,,,,48,0
41603,note_on,10,0,7,,,,,,,,,11,,,,81,100
41603,note_on,0,0,7,,,,,,,,,11,,,,72,100
41603,note_on,30,0,10,,,,,,,,,14,,,,36,0
41606,note_on,10,0,8,,,,,,,,,12,,,,60,98
41611,note_on,10,0,9,,,,,,,,,13,,,,48,89
41613,note_on,10,0,10,,,,,,,,,14,,,,36,73
41630,note_on,30,0,6,,,,,,,,,10,,,,84,0
41633,note_on,0,0,7,,,,,,,,,11,,,,81,0
41633,note_on,30,0,7,,,,,,,,,11,,,,72,0
41636,note_on,30,0,8,,,,,,,,,12,,,,60,0
41640,note_on,10,0,6,,,,,,,,,10,,,,84,92
41640,set_tempo,80,1,0,,,,,,390879,,,,,,,,
41641,note_on,30,0,9,,,,,,,,,13,,,,48,0
41643,note_on,30,0,10,,,,,,,,,14,,,,36,0
41643,note_on,0,0,7,,,,,,,,,11,,,,72,92
41643,note_on,10,0,7,,,,,,,,,11,,,,81,92
41646,note_on,10,0,8,,,,,,,,,12,,,,60,90
41651,note_on,10,0,9,,,,,,,,,13,,,,48,81
41653,note_on,10,0,10,,,,,,,,,14,,,,36,65
41670,note_on,30,0,6,,,,,,,,,10,,,,84,0
41673,note_on,0,0,7,,,,,,,,,11,,,,81,0
41673,note_on,30,0,7,,,,,,,,,11,,,,72,0
41676,note_on,30,0,8,,,,,,,,,12,,,,60,0
41680,set_tempo,40,1,0,,,,,,373832,,,,,,,,
41680,note_on,10,0,6,,,,,,,,,10,,,,84,100
41681,note_on,30,0,9,,,,,,,,,13,,,,48,0
41683,note_on,0,0,7,,,,,,,,,11,,,,81,100
41683,note_on,30,0,10,,,,,,,,,14,,,,36,0
41683,note_on,10,0,7,,,,,,,,,11,,,,72,100
41686,note_on,10,0,8,,,,,,,,,12,,,,60,98
41691,note_on,10,0,9,,,,,,,,,13,,,,48,89
41693,note_on,10,0,10,,,,,,,,,14,,,,36,73
41710,note_on,30,0,6,,,,,,,,,10,,,,84,0
41713,note_on,30,0,7,,,,,,,,,11,,,,81,0
41713,note_on,0,0,7,,,,,,,,,11,,,,72,0
41716,note_on,30,0,8,,,,,,,,,12,,,,60,0
41720,note_on,10,0,6,,,,,,,,,10,,,,84,92
41721,note_on,30,0,9,,,,,,,,,13,,,,48,0
41723,note_on,10,0,7,,,,,,,,,11,,,,72,92
41723,note_on,0,0,7,,,,,,,,,11,,,,81,92
41723,note_on,30,0,10,,,,,,,,,14,,,,36,0
41726,note_on,10,0,8,,,,,,,,,12,,,,60,90
41731,note_on,10,0,9,,,,,,,,,13,,,,48,81
41733,note_on,10,0,10,,,,,,,,,14,,,,36,65
41750,note_on,30,0,6,,,,,,,,,10,,,,84,0
41753,note_on,0,0,7,,,,,,,,,11,,,,72,0
41753,note_on,30,0,7,,,,,,,,,11,,,,81,0
41756,note_on,30,0,8,,,,,,,,,12,,,,60,0
41760,note_on,10,0,6,,,,,,,,,10,,,,82,100
41760,set_tempo,80,1,0,,,,,,362538,,,,,,,,
41761,note_on,30,0,9,,,,,,,,,13,,,,48,0
41763,note_on,0,0,7,,,,,,,,,11,,,,72,100
41763,note_on,10,0,7,,,,,,,,,11,,,,79,100
41763,note_on,240,0,1,,,,,,,,,0,,,,84,0
41763,note_on,0,0,1,,,,,,,,,0,,,,82,82
41763,note_on,30,0,10,,,,,,,,,14,,,,36,0
41765,note_on,240,0,2,,,,,,,,,1,,,,81,0
41765,note_on,0,0,2,,,,,,,,,1,,,,79,81
41766,note_on,10,0,8,,,,,,,,,12,,,,60,98
41771,note_on,10,0,9,,,,,,,,,13,,,,48,89
41773,note_on,10,0,10,,,,,,,,,14,,,,36,73
41790,note_on,30,0,6,,,,,,,,,10,,,,82,0
41793,note_on,30,0,7,,,,,,,,,11,,,,72,0
41793,note_on,0,0,7,,,,,,,,,11,,,,79,0
41796,note_on,30,0,8,,,,,,,,,12,,,,60,0
41800,set_tempo,40,1,0,,,,,,346821,,,,,,,,
41800,note_on,10,0,6,,,,,,,,,10,,,,82,92
41801,note_on,30,0,9,,,,,,,,,13,,,,48,0
41803,note_on,30,0,10,,,,,,,,,14,,,,36,0
41803,note_on,10,0,7,,,,,,,,,11,,,,79,92
41803,note_on,0,0,7,,,,,,,,,11,,,,72,92
41806,note_on,10,0,8,,,,,,,,,12,,,,60,90
41811,note_on,10,0,9,,,,,,,,,13,,,,48,81
41813,note_on,10,0,10,,,,,,,,,14,,,,36,65
41830,note_on,30,0,6,,,,,,,,,10,,,,82,0
41833,note_on,0,0,7,,,,,,,,,11,,,,79,0
41833,note_on,30,0,7,,,,,,,,,11,,,,72,0
41836,note_on,30,0,8,,,,,,,,,12,,,,60,0
41840,note_on,10,0,6,,,,,,,,,10,,,,82,100
41841,note_on,30,0,9,,,,,,,,,13,,,,48,0
41843,note_on,10,0,7,,,,,,,,,11,,,,72,100
41843,note_on,30,0,10,,,,,,,,,14,,,,36,0
41843,note_on,0,0,7,,,,,,,,,11,,,,79,100
41846,note_on,10,0,8,,,,,,,,,12,,,,60,98
41851,note_on,10,0,9,,,,,,,,,13,,,,48,89
41853,note_on,10,0,10,,,,,,,,,14,,,,36,73
41870,note_on,30,0,6,,,,,,,,,10,,,,82,0
41873,note_on,0,0,7,,,,,,,,,11,,,,72,0
41873,note_on,30,0,7,,,,,,,,,11,,,,79,0
41876,note_on,30,0,8,,,,,,,,,12,,,,60,0
41880,note_on,10,0,6,,,,,,,,,10,,,,79,92
41880,set_tempo,80,1,0,,,,,,390879,,,,,,,,
41881,note_on,30,0,9,,,,,,,,,13,,,,48,0
41883,note_on,120,0,1,,,,,,,,,0,,,,82,0
41883,note_on,0,0,1,,,,,,,,,0,,,,79,82
41883,note_on,0,0,7,,,,,,,,,11,,,,70,92
41883,note_on,30,0,10,,,,,,,,,14,,,,36,0
41883,note_on,10,0,7,,,,,,,,,11,,,,76,92
41885,note_on,0,0,2,,,,,,,,,1,,,,72,0
41885,note_on,120,0,2,,,,,,,,,1,,,,79,0
41885,note_on,0,0,2,,,,,,,,,1,,,,76,81
41885,note_on,0,0,2,,,,,,,,,1,,,,70,81
41886,note_on,10,0,8,,,,,,,,,12,,,,60,90
41891,note_on,10,0,9,,,,,,,,,13,,,,48,81
41893,note_on,10,0,10,,,,,,,,,14,,,,36,65
41910,note_on,30,0,6,,,,,,,,,10,,,,79,0
41913,note_on,30,0,7,,,,,,,,,11,,,,70,0
41913,note_on,0,0,7,,,,,,,,,11,,,,76,0
41916,note_on,30,0,8,,,,,,,,,12,,,,60,0
41920,set_tempo,40,1,0,,,,,,373832,,,,,,,,
41920,note_on,10,0,6,,,,,,,,,10,,,,79,100
41921,note_on,30,0,9,,,,,,,,,13,,,,48,0
41923,note_on,30,0,10,,,,,,,,,14,,,,36,0
41923,note_on,10,0,7,,,,,,,,,11,,,,70,100
41923,note_on,0,0,7,,,,,,,,,11,,,,76,100
41926,note_on,10,0,8,,,,,,,,,12,,,,60,98
41931,note_on,10,0,9,,,,,,,,,13,,,,48,89
41933,note_on,10,0,10,,,,,,,,,14,,,,36,73
41950,note_on,30,0,6,,,,,,,,,10,,,,79,0
41953,note_on,0,0,7,,,,,,,,,11,,,,70,0
41953,note_on,30,0,7,,,,,,,,,11,,,,76,0
41956,note_on,30,0,8,,,,,,,,,12,,,,60,0
41960,note_on,10,0,6,,,,,,,,,10,,,,79,92
41961,note_on,30,0,9,,,,,,,,,13,,,,48,0
41963,note_on,0,0,7,,,,,,,,,11,,,,70,92
41963,note_on,10,0,7,,,,,,,,,11,,,,76,92
41963,note_on,30,0,10,,,,,,,,,14,,,,36,0
41966,note_on,10,0,8,,,,,,,,,12,,,,60,90
41970,set_tempo,50,1,0,,,,,,459770,,,,,,,,
41971,note_on,10,0,9,,,,,,,,,13,,,,48,81
41973,note_on,10,0,10,,,,,,,,,14,,,,36,65
41990,control_change,0,0,6,,,,,,,,,10,11,79,,,
41990,note_on,30,0,6,,,,,,,,,10,,,,79,0
41993,control_change,0,0,7,,,,,,,,,11,11,79,,,
41993,note_on,110,0,1,,,,,,,,,0,,,,79,0
41993,note_on,0,0,7,,,,,,,,,11,,,,76,0
41993,note_on,30,0,7,,,,,,,,,11,,,,70,0
41995,note_on,110,0,2,,,,,,,,,1,,,,76,0
41995,note_on,0,0,2,,,,,,,,,1,,,,70,0
41996,note_on,30,0,8,,,,,,,,,12,,,,60,0
41996,control_change,0,0,8,,,,,,,,,12,11,79,,,
41999,control_change,9,0,6,,,,,,,,,10,11,75,,,
41999,note_on,475,0,4,,,,,,,,,4,,,,60,0
42000,note_on,1,0,6,,,,,,,,,10,,,,77,100
42000,set_tempo,30,1,0,,,,,,362538,,,,,,,,
42001,note_on,475,0,5,,,,,,,,,5,,,,60,0
42001,note_on,30,0,9,,,,,,,,,13,,,,48,0
42001,control_change,0,0,9,,,,,,,,,13,11,79,,,
42002,note_on,470,0,3,,,,,,,,,3,,,,60,0
42002,control_change,9,0,7,,,,,,,,,11,11,75,,,
42002,note_on,0,0,3,,,,,,,,,3,,,,48,0
42003,note_on,1,0,7,,,,,,,,,11,,,,65,100
42003,note_on,10,0,1,,,,,,,,,0,,,,77,82
42003,control_change,0,0,10,,,,,,,,,14,11,79,,,
42003,note_on,30,0,10,,,,,,,,,14,,,,36,0
42004,note_on,0,0,4,,,,,,,,,4,,,,60,86
42004,control_change,5,0,4,,,,,,,,,4,11,79,,,
42005,note_on,10,0,2,,,,,,,,,1,,,,77,81
42005,note_on,0,0,2,,,,,,,,,1,,,,69,81
42005,control_change,9,0,8,,,,,,,,,12,11,75,,,
42006,note_on,1,0,8,,,,,,,,,12,,,,57,98
42006,note_on,0,0,5,,,,,,,,,5,,,,60,86
42006,control_change,5,0,5,,,,,,,,,5,11,79,,,
42008,control_change,8,0,6,,,,,,,,,10,11,71,,,
42010,control_change,9,0,9,,,,,,,,,13,11,75,,,
42011,note_on,1,0,9,,,,,,,,,13,,,,53,89
42011,control_change,8,0,7,,,,,,,,,11,11,71,,,
42012,control_change,9,0,10,,,,,,,,,14,11,75,,,
42012,note_on,10,0,3,,,,,,,,,3,,,,53,81
42012,control_change,4,0,6,,,,,,,,,10,11,68,,,
42013,note_on,1,0,10,,,,,,,,,14,,,,41,73
42014,control_change,8,0,8,,,,,,,,,12,11,71,,,
42015,control_change,4,0,7,,,,,,,,,11,11,68,,,
42016,control_change,12,0,4,,,,,,,,,4,11,75,,,
42018,control_change,4,0,8,,,,,,,,,12,11,68,,,
42018,control_change,12,0,5,,,,,,,,,5,11,75,,,
42019,control_change,8,0,9,,,,,,,,,13,11,71,,,
42021,control_change,9,0,6,,,,,,,,,10,11,64,,,
42021,control_change,8,0,10,,,,,,,,,14,11,71,,,
42023,control_change,4,0,9,,,,,,,,,13,11,68,,,
42024,control_change,9,0,7,,,,,,,,,11,11,64,,,
42025,control_change,4,0,10,,,,,,,,,14,11,68,,,
42027,control_change,9,0,8,,,,,,,,,12,11,64,,,
42028,control_change,12,0,4,,,,,,,,,4,11,71,,,
42030,note_on,9,0,6,,,,,,,,,10,,,,77,0
42030,control_change,12,0,5,,,,,,,,,5,11,71,,,
42030,control_change,0,0,6,,,,,,,,,10,11,60,,,
42032,control_change,9,0,9,,,,,,,,,13,11,64,,,
42033,note_on,9,0,7,,,,,,,,,11,,,,65,0
42033,control_change,0,0,7,,,,,,,,,11,11,60,,,
42034,control_change,6,0,4,,,,,,,,,4,11,68,,,
42034,control_change,9,0,10,,,,,,,,,14,11,64,,,
42035,control_change,5,0,6,,,,,,,,,10,11,57,,,
42036,control_change,6,0,5,,,,,,,,,5,11,68,,,
42036,control_change,9,0,8,,,,,,,,,12,11,60,,,
42038,control_change,5,0,7,,,,,,,,,11,11,57,,,
42039,control_change,4,0,6,,,,,,,,,10,11,54,,,
42040,set_tempo,40,1,0,,,,,,346821,,,,,,,,
42040,note_on,1,0,6,,,,,,,,,10,,,,81,100
42041,control_change,9,0,9,,,,,,,,,13,11,60,,,
42041,control_change,5,0,8,,,,,,,,,12,11,57,,,
42042,control_change,4,0,7,,,,,,,,,11,11,54,,,
42043,note_on,1,0,7,,,,,,,,,11,,,,69,100
42043,control_change,9,0,10,,,,,,,,,14,11,60,,,
42044,control_change,4,0,6,,,,,,,,,10,11,51,,,
42045,control_change,4,0,8,,,,,,,,,12,11,54,,,
42046,control_change,5,0,9,,,,,,,,,13,11,57,,,
42047,control_change,4,0,7,,,,,,,,,11,11,51,,,
42048,control_change,4,0,6,,,,,,,,,10,11,48,,,
42048,control_change,5,0,10,,,,,,,,,14,11,57,,,
42050,control_change,5,0,8,,,,,,,,,12,11,51,,,
42050,control_change,4,0,9,,,,,,,,,13,11,54,,,
42051,control_change,4,0,7,,,,,,,,,11,11,48,,,
42052,control_change,4,0,10,,,,,,,,,14,11,54,,,
42054,control_change,4,0,8,,,,,,,,,12,11,48,,,
42055,control_change,5,0,9,,,,,,,,,13,11,51,,,
42057,control_change,5,0,10,,,,,,,,,14,11,51,,,
42059,control_change,4,0,9,,,,,,,,,13,11,48,,,
42061,control_change,4,0,10,,,,,,,,,14,11,48,,,
42063,note_on,60,0,1,,,,,,,,,0,,,,77,0
42064,note_on,30,0,4,,,,,,,,,4,,,,60,0
42065,note_on,0,0,2,,,,,,,,,1,,,,77,0
42065,note_on,60,0,2,,,,,,,,,1,,,,69,0
42066,note_on,12,0,8,,,,,,,,,12,,,,57,0
42066,note_on,30,0,5,,,,,,,,,5,,,,60,0
42070,note_on,22,0,6,,,,,,,,,10,,,,81,0
42071,note_on,12,0,9,,,,,,,,,13,,,,53,0
42072,note_on,60,0,3,,,,,,,,,3,,,,53,0
42073,note_on,12,0,10,,,,,,,,,14,,,,41,0
42073,note_on,22,0,7,,,,,,,,,11,,,,69,0
42080,note_on,10,0,6,,,,,,,,,10,,,,77,100
42083,note_on,10,0,7,,,,,,,,,11,,,,65,100
42110,note_on,30,0,6,,,,,,,,,10,,,,77,0
42113,note_on,30,0,7,,,,,,,,,11,,,,65,0
42120,note_on,10,0,6,,,,,,,,,10,,,,76,100
42120,set_tempo,80,1,0,,,,,,390879,,,,,,,,
42123,control_change,60,0,1,,,,,,,,,0,11,47,,,
42123,note_on,10,0,7,,,,,,,,,11,,,,64,100
42123,note_on,0,0,1,,,,,,,,,0,,,,88,82
42124,control_change,60,0,4,,,,,,,,,4,11,47,,,
42124,note_on,0,0,4,,,,,,,,,4,,,,60,86
42125,control_change,60,0,2,,,,,,,,,1,11,47,,,
42125,note_on,0,0,2,,,,,,,,,1,,,,79,81
42125,note_on,0,0,2,,,,,,,,,1,,,,76,81
42126,note_on,60,0,8,,,,,,,,,12,,,,58,98
42126,note_on,0,0,5,,,,,,,,,5,,,,60,86
42126,control_change,60,0,5,,,,,,,,,5,11,47,,,
42131,note_on,60,0,9,,,,,,,,,13,,,,48,89
42132,note_on,0,0,3,,,,,,,,,3,,,,58,81
42132,note_on,0,0,3,,,,,,,,,3,,,,48,81
42132,control_change,60,0,3,,,,,,,,,3,11,47,,,
42133,note_on,60,0,10,,,,,,,,,14,,,,36,73
42150,note_on,30,0,6,,,,,,,,,10,,,,76,0
42153,note_on,30,0,7,,,,,,,,,11,,,,64,0
42160,note_on,10,0,6,,,,,,,,,10,,,,79,100
42160,set_tempo,40,1,0,,,,,,373832,,,,,,,,
42163,note_on,10,0,7,,,,,,,,,11,,,,67,100
42183,note_on,60,0,1,,,,,,,,,0,,,,88,0
42184,note_on,60,0,4,,,,,,,,,4,,,,60,0
42185,note_on,60,0,2,,,,,,,,,1,,,,79,0
42185,note_on,0,0,2,,,,,,,,,1,,,,76,0
42186,note_on,60,0,5,,,,,,,,,5,,,,60,0
42186,note_on,60,0,8,,,,,,,,,12,,,,58,0
42190,note_on,30,0,6,,,,,,,,,10,,,,79,0
42191,note_on,60,0,9,,,,,,,,,13,,,,48,0
42192,note_on,60,0,3,,,,,,,,,3,,,,58,0
42192,note_on,0,0,3,,,,,,,,,3,,,,48,0
42193,note_on,60,0,10,,,,,,,,,14,,,,36,0
42193,note_on,30,0,7,,,,,,,,,11,,,,67,0
42200,note_on,10,0,6,,,,,,,,,10,,,,76,100
42203,note_on,10,0,7,,,,,,,,,11,,,,64,100
42230,note_on,30,0,6,,,,,,,,,10,,,,76,0
42233,note_on,30,0,7,,,,,,,,,11,,,,64,0
42240,set_tempo,80,1,0,,,,,,362538,,,,,,,,
42240,note_on,10,0,6,,,,,,,,,10,,,,77,100
42243,note_on,60,0,1,,,,,,,,,0,,,,89,82
42243,note_on,10,0,7,,,,,,,,,11,,,,65,100
42244,note_on,60,0,4,,,,,,,,,4,,,,60,86
42245,note_on,0,0,2,,,,,,,,,1,,,,81,81
42245,note_on,60,0,2,,,,,,,,,1,,,,77,81
42246,note_on,60,0,5,,,,,,,,,5,,,,60,86
42246,note_on,60,0,8,,,,,,,,,12,,,,57,98
42251,note_on,60,0,9,,,,,,,,,13,,,,53,89
42252,note_on,0,0,3,,,,,,,,,3,,,,57,81
42252,note_on,60,0,3,,,,,,,,,3,,,,53,81
42253,note_on,60,0,10,,,,,,,,,14,,,,41,73
42270,note_on,30,0,6,,,,,,,,,10,,,,77,0
42273,note_on,30,0,7,,,,,,,,,11,,,,65,0
42280,note_on,10,0,6,,,,,,,,,10,,,,81,100
42280,set_tempo,40,1,0,,,,,,346821,,,,,,,,
42283,note_on,10,0,7,,,,,,,,,11,,,,69,100
42303,note_on,60,0,1,,,,,,,,,0,,,,89,0
42304,note_on,60,0,4,,,,,,,,,4,,,,60,0
42305,note_on,60,0,2,,,,,,,,,1,,,,81,0
42305,note_on,0,0,2,,,,,,,,,1,,,,77,0
42306,note_on,60,0,5,,,,,,,,,5,,,,60,0
42306,note_on,60,0,8,,,,,,,,,12,,,,57,0
42310,note_on,30,0,6,,,,,,,,,10,,,,81,0
42311,note_on,60,0,9,,,,,,,,,13,,,,53,0
42312,note_on,60,0,3,,,,,,,,,3,,,,57,0
42312,note_on,0,0,3,,,,,,,,,3,,,,53,0
42313,note_on,60,0,10,,,,,,,,,14,,,,41,0
42313,note_on,30,0,7,,,,,,,,,11,,,,69,0
42320,note_on,10,0,6,,,,,,,,,10,,,,77,100
42323,note_on,10,0,7,,,,,,,,,11,,,,65,100
42350,note_on,30,0,6,,,,,,,,,10,,,,77,0
42353,note_on,30,0,7,,,,,,,,,11,,,,65,0
42360,note_on,10,0,6,,,,,,,,,10,,,,76,100
42360,set_tempo,80,1,0,,,,,,390879,,,,,,,,
42363,note_on,60,0,1,,,,,,,,,0,,,,88,82
42363,note_on,10,0,7,,,,,,,,,11,,,,64,100
42364,note_on,60,0,4,,,,,,,,,4,,,,60,86
42365,note_on,0,0,2,,,,,,,,,1,,,,76,81
42365,note_on,60,0,2,,,,,,,,,1,,,,79,81
42366,note_on,60,0,5,,,,,,,,,5,,,,60,86
42366,note_on,60,0,8,,,,,,,,,12,,,,58,98
42371,note_on,60,0,9,,,,,,,,,13,,,,48,89
42372,note_on,0,0,3,,,,,,,,,3,,,,48,81
42372,note_on,60,0,3,,,,,,,,,3,,,,58,81
42373,note_on,60,0,10,,,,,,,,,14,,,,36,73
42390,note_on,30,0,6,,,,,,,,,10,,,,76,0
42393,note_on,30,0,7,,,,,,,,,11,,,,64,0
42400,set_tempo,40,1,0,,,,,,373832,,,,,,,,
42400,note_on,10,0,6,,,,,,,,,10,,,,79,100
42403,note_on,10,0,7,,,,,,,,,11,,,,67,100
42423,note_on,60,0,1,,,,,,,,,0,,,,88,0
42424,note_on,60,0,4,,,,,,,,,4,,,,60,0
42425,note_on,60,0,2,,,,,,,,,1,,,,76,0
42425,note_on,0,0,2,,,,,,,,,1,,,,79,0
42426,note_on,60,0,5,,,,,,,,,5,,,,60,0
42426,note_on,60,0,8,,,,,,,,,12,,,,58,0
42430,note_on,30,0,6,,,,,,,,,10,,,,79,0
42431,note_on,60,0,9,,,,,,,,,13,,,,48,0
42432,note_on,0,0,3,,,,,,,,,3,,,,58,0
42432,note_on,60,0,3,,,,,,,,,3,,,,48,0
42433,note_on,30,0,7,,,,,,,,,11,,,,67,0
42433,note_on,60,0,10,,,,,,,,,14,,,,36,0
42440,note_on,10,0,6,,,,,,,,,10,,,,76,100
42443,note_on,10,0,7,,,,,,,,,11,,,,64,100
42470,note_on,30,0,6,,,,,,,,,10,,,,76,0
42473,note_on,30,0,7,,,,,,,,,11,,,,64,0
42480,control_change,10,0,6,,,,,,,,,10,11,47,,,
42480,note_on,0,0,6,,,,,,,,,10,,,,77,100
42480,set_tempo,80,1,0,,,,,,362538,,,,,,,,
42483,control_change,10,0,7,,,,,,,,,11,11,47,,,
42483,note_on,0,0,7,,,,,,,,,11,,,,65,100
42483,note_on,60,0,1,,,,,,,,,0,,,,89,82
42484,note_on,60,0,4,,,,,,,,,4,,,,60,86
42485,note_on,60,0,2,,,,,,,,,1,,,,77,81
42485,note_on,0,0,2,,,,,,,,,1,,,,81,81
42486,control_change,60,0,8,,,,,,,,,12,11,47,,,
42486,note_on,60,0,5,,,,,,,,,5,,,,60,86
42486,note_on,0,0,8,,,,,,,,,12,,,,57,98
42491,control_change,60,0,9,,,,,,,,,13,11,47,,,
42491,note_on,0,0,9,,,,,,,,,13,,,,53,89
42492,note_on,60,0,3,,,,,,,,,3,,,,57,81
42492,note_on,0,0,3,,,,,,,,,3,,,,53,81
42493,control_change,60,0,10,,,,,,,,,14,11,47,,,
42493,note_on,0,0,10,,,,,,,,,14,,,,41,73
42504,control_change,24,0,6,,,,,,,,,10,11,49,,,
42507,control_change,24,0,7,,,,,,,,,11,11,49,,,
42510,note_on,6,0,6,,,,,,,,,10,,,,77,0
42510,control_change,24,0,8,,,,,,,,,12,11,49,,,
42513,note_on,6,0,7,,,,,,,,,11,,,,65,0
42515,control_change,24,0,9,,,,,,,,,13,11,49,,,
42517,control_change,24,0,10,,,,,,,,,14,11,49,,,
42520,set_tempo,40,1,0,,,,,,346821,,,,,,,,
42520,note_on,10,0,6,,,,,,,,,10,,,,81,100
42523,note_on,10,0,7,,,,,,,,,11,,,,69,100
42528,control_change,8,0,6,,,,,,,,,10,11,51,,,
42531,control_change,8,0,7,,,,,,,,,11,11,51,,,
42534,control_change,24,0,8,,,,,,,,,12,11,51,,,
42539,control_change,24,0,9,,,,,,,,,13,11,51,,,
42541,control_change,24,0,10,,,,,,,,,14,11,51,,,
42543,note_on,60,0,1,,,,,,,,,0,,,,89,0
42544,note_on,60,0,4,,,,,,,,,4,,,,60,0
42545,note_on,0,0,2,,,,,,,,,1,,,,77,0
42545,note_on,60,0,2,,,,,,,,,1,,,,81,0
42546,note_on,12,0,8,,,,,,,,,12,,,,57,0
42546,note_on,60,0,5,,,,,,,,,5,,,,60,0
42550,note_on,22,0,6,,,,,,,,,10,,,,81,0
42551,note_on,12,0,9,,,,,,,,,13,,,,53,0
42552,control_change,2,0,6,,,,,,,,,10,11,53,,,
42552,note_on,0,0,3,,,,,,,,,3,,,,57,0
42552,note_on,60,0,3,,,,,,,,,3,,,,53,0
42553,note_on,22,0,7,,,,,,,,,11,,,,69,0
42553,note_on,12,0,10,,,,,,,,,14,,,,41,0
42555,control_change,2,0,7,,,,,,,,,11,11,53,,,
42558,control_change,12,0,8,,,,,,,,,12,11,53,,,
42560,note_on,8,0,6,,,,,,,,,10,,,,77,100
42563,control_change,12,0,9,,,,,,,,,13,11,53,,,
42563,note_on,8,0,7,,,,,,,,,11,,,,65,100
42565,control_change,12,0,10,,,,,,,,,14,11,53,,,
42576,control_change,16,0,6,,,,,,,,,10,11,55,,,
42579,control_change,16,0,7,,,,,,,,,11,11,55,,,
42582,control_change,24,0,8,,,,,,,,,12,11,55,,,
42587,control_change,24,0,9,,,,,,,,,13,11,55,,,
42589,control_change,24,0,10,,,,,,,,,14,11,55,,,
42590,note_on,14,0,6,,,,,,,,,10,,,,77,0
42593,note_on,14,0,7,,,,,,,,,11,,,,65,0
42600,note_on,0,0,6,,,,,,,,,10,,,,76,100
42600,control_change,10,0,6,,,,,,,,,10,11,57,,,
42600,set_tempo,80,1,0,,,,,,390879,,,,,,,,
42603,control_change,10,0,7,,,,,,,,,11,11,57,,,
42603,control_change,60,0,1,,,,,,,,,0,11,65,,,
42603,note_on,0,0,1,,,,,,,,,0,,,,88,82
42603,note_on,0,0,7,,,,,,,,,11,,,,64,100
42604,note_on,0,0,4,,,,,,,,,4,,,,60,86
42604,control_change,60,0,4,,,,,,,,,4,11,65,,,
42605,note_on,0,0,2,,,,,,,,,1,,,,76,81
42605,control_change,60,0,2,,,,,,,,,1,11,65,,,
42605,note_on,0,0,2,,,,,,,,,1,,,,79,81
42606,control_change,24,0,8,,,,,,,,,12,11,57,,,
42606,note_on,0,0,5,,,,,,,,,5,,,,60,86
42606,control_change,60,0,5,,,,,,,,,5,11,65,,,
42606,note_on,0,0,8,,,,,,,,,12,,,,58,98
42611,note_on,0,0,9,,,,,,,,,13,,,,48,89
42611,control_change,24,0,9,,,,,,,,,13,11,57,,,
42612,note_on,0,0,3,,,,,,,,,3,,,,58,81
42612,note_on,0,0,3,,,,,,,,,3,,,,48,81
42612,control_change,60,0,3,,,,,,,,,3,11,65,,,
42613,control_change,24,0,10,,,,,,,,,14,11,57,,,
42613,note_on,0,0,10,,,,,,,,,14,,,,36,73
42619,control_change,16,0,1,,,,,,,,,0,11,66,,,
42620,control_change,16,0,4,,,,,,,,,4,11,66,,,
42621,control_change,16,0,2,,,,,,,,,1,11,66,,,
42622,control_change,16,0,5,,,,,,,,,5,11,66,,,
42624,control_change,24,0,6,,,,,,,,,10,11,59,,,
42627,control_change,24,0,7,,,,,,,,,11,11,59,,,
42628,control_change,16,0,3,,,,,,,,,3,11,66,,,
42630,control_change,24,0,8,,,,,,,,,12,11,59,,,
42630,note_on,6,0,6,,,,,,,,,10,,,,76,0
42633,note_on,6,0,7,,,,,,,,,11,,,,64,0
42635,control_change,24,0,9,,,,,,,,,13,11,59,,,
42636,note_on,6,0,8,,,,,,,,,12,,,,58,0
42636,control_change,17,0,1,,,,,,,,,0,11,66,,,
42637,control_change,17,0,4,,,,,,,,,4,11,66,,,
42637,control_change,24,0,10,,,,,,,,,14,11,59,,,
42638,control_change,17,0,2,,,,,,,,,1,11,66,,,
42639,control_change,17,0,5,,,,,,,,,5,11,66,,,
42640,set_tempo,40,1,0,,,,,,373832,,,,,,,,
42640,note_on,10,0,6,,,,,,,,,10,,,,79,100
42641,note_on,6,0,9,,,,,,,,,13,,,,48,0
42643,note_on,6,0,10,,,,,,,,,14,,,,36,0
42643,note_on,10,0,7,,,,,,,,,11,,,,67,100
42645,control_change,17,0,3,,,,,,,,,3,11,66,,,
42646,note_on,10,0,8,,,,,,,,,12,,,,58,98
42648,control_change,8,0,6,,,,,,,,,10,11,61,,,
42651,note_on,10,0,9,,,,,,,,,13,,,,48,89
42651,control_change,8,0,7,,,,,,,,,11,11,61,,,
42652,control_change,16,0,1,,,,,,,,,0,11,67,,,
42653,note_on,10,0,10,,,,,,,,,14,,,,36,73
42653,control_change,16,0,4,,,,,,,,,4,11,67,,,
42654,control_change,8,0,8,,,,,,,,,12,11,61,,,
42654,control_change,16,0,2,,,,,,,,,1,11,67,,,
42655,control_change,16,0,5,,,,,,,,,5,11,67,,,
42659,control_change,8,0,9,,,,,,,,,13,11,61,,,
42661,control_change,8,0,10,,,,,,,,,14,11,61,,,
42661,control_change,16,0,3,,,,,,,,,3,11,67,,,
42669,control_change,17,0,1,,,,,,,,,0,11,68,,,
42670,note_on,22,0,6,,,,,,,,,10,,,,79,0
42670,control_change,17,0,4,,,,,,,,,4,11,68,,,
42671,control_change,17,0,2,,,,,,,,,1,11,68,,,
42672,control_change,2,0,6,,,,,,,,,10,11,62,,,
42672,control_change,17,0,5,,,,,,,,,5,11,68,,,
42673,note_on,22,0,7,,,,,,,,,11,,,,67,0
42675,control_change,2,0,7,,,,,,,,,11,11,62,,,
42676,note_on,22,0,8,,,,,,,,,12,,,,58,0
42678,control_change,17,0,3,,,,,,,,,3,11,68,,,
42678,control_change,2,0,8,,,,,,,,,12,11,62,,,
42680,note_on,8,0,6,,,,,,,,,10,,,,76,100
42681,note_on,22,0,9,,,,,,,,,13,,,,48,0
42683,control_change,2,0,9,,,,,,,,,13,11,62,,,
42683,note_on,8,0,7,,,,,,,,,11,,,,64,100
42683,note_on,22,0,10,,,,,,,,,14,,,,36,0
42683,note_on,14,0,1,,,,,,,,,0,,,,88,0
42685,note_on,0,0,2,,,,,,,,,1,,,,76,0
42685,note_on,14,0,2,,,,,,,,,1,,,,79,0
42685,control_change,2,0,10,,,,,,,,,14,11,62,,,
42685,control_change,2,0,1,,,,,,,,,0,11,68,,,
42686,note_on,8,0,8,,,,,,,,,12,,,,58,98
42686,control_change,16,0,4,,,,,,,,,4,11,68,,,
42687,control_change,2,0,2,,,,,,,,,1,11,68,,,
42688,control_change,16,0,5,,,,,,,,,5,11,68,,,
42689,note_on,3,0,4,,,,,,,,,4,,,,60,0
42691,note_on,3,0,5,,,,,,,,,5,,,,60,0
42691,note_on,8,0,9,,,,,,,,,13,,,,48,89
42692,note_on,14,0,3,,,,,,,,,3,,,,58,0
42692,note_on,0,0,3,,,,,,,,,3,,,,48,0
42693,note_on,8,0,10,,,,,,,,,14,,,,36,73
42693,note_on,8,0,1,,,,,,,,,0,,,,88,82
42694,note_on,5,0,4,,,,,,,,,4,,,,60,86
42694,control_change,2,0,3,,,,,,,,,3,11,68,,,
42695,note_on,0,0,2,,,,,,,,,1,,,,76,81
42695,note_on,8,0,2,,,,,,,,,1,,,,79,81
42696,control_change,16,0,6,,,,,,,,,10,11,64,,,
42696,note_on,5,0,5,,,,,,,,,5,,,,60,86
42699,control_change,16,0,7,,,,,,,,,11,11,64,,,
42702,note_on,8,0,3,,,,,,,,,3,,,,58,81
42702,note_on,0,0,3,,,,,,,,,3,,,,48,81
42702,control_change,9,0,1,,,,,,,,,0,11,69,,,
42702,control_change,16,0,8,,,,,,,,,12,11,64,,,
42703,control_change,9,0,4,,,,,,,,,4,11,69,,,
42704,control_change,9,0,2,,,,,,,,,1,11,69,,,
42705,control_change,9,0,5,,,,,,,,,5,11,69,,,
42707,control_change,16,0,9,,,,,,,,,13,11,64,,,
42709,control_change,16,0,10,,,,,,,,,14,11,64,,,
42710,note_on,14,0,6,,,,,,,,,10,,,,76,0
42711,control_change,9,0,3,,,,,,,,,3,11,69,,,
42713,note_on,14,0,7,,,,,,,,,11,,,,64,0
42713,note_on,11,0,1,,,,,,,,,0,,,,88,0
42715,note_on,0,0,2,,,,,,,,,1,,,,79,0
42715,note_on,11,0,2,,,,,,,,,1,,,,76,0
42716,note_on,14,0,8,,,,,,,,,12,,,,58,0
42718,control_change,5,0,1,,,,,,,,,0,11,70,,,
42719,control_change,0,0,4,,,,,,,,,4,11,70,,,
42719,note_on,16,0,4,,,,,,,,,4,,,,60,0
42720,note_on,0,0,6,,,,,,,,,10,,,,77,100
42720,control_change,5,0,2,,,,,,,,,1,11,70,,,
42720,set_tempo,80,1,0,,,,,,362538,,,,,,,,
42720,control_change,10,0,6,,,,,,,,,10,11,65,,,
42721,note_on,16,0,5,,,,,,,,,5,,,,60,0
42721,note_on,14,0,9,,,,,,,,,13,,,,48,0
42721,control_change,0,0,5,,,,,,,,,5,11,70,,,
42722,note_on,0,0,3,,,,,,,,,3,,,,58,0
42722,note_on,11,0,3,,,,,,,,,3,,,,48,0
42723,note_on,5,0,1,,,,,,,,,0,,,,89,82
42723,note_on,0,0,7,,,,,,,,,11,,,,65,100
42723,note_on,14,0,10,,,,,,,,,14,,,,36,0
42723,control_change,10,0,7,,,,,,,,,11,11,65,,,
42724,note_on,5,0,4,,,,,,,,,4,,,,60,86
42725,note_on,0,0,2,,,,,,,,,1,,,,81,81
42725,note_on,5,0,2,,,,,,,,,1,,,,77,81
42726,control_change,10,0,8,,,,,,,,,12,11,65,,,
42726,note_on,0,0,8,,,,,,,,,12,,,,57,98
42726,note_on,5,0,5,,,,,,,,,5,,,,60,86
42727,control_change,5,0,3,,,,,,,,,3,11,70,,,
42731,note_on,0,0,9,,,,,,,,,13,,,,53,89
42731,control_change,10,0,9,,,,,,,,,13,11,65,,,
42732,note_on,5,0,3,,,,,,,,,3,,,,53,81
42732,note_on,0,0,3,,,,,,,,,3,,,,57,81
42733,control_change,10,0,10,,,,,,,,,14,11,65,,,
42733,note_on,0,0,10,,,,,,,,,14,,,,41,73
42735,control_change,12,0,1,,,,,,,,,0,11,71,,,
42736,control_change,12,0,4,,,,,,,,,4,11,71,,,
42737,control_change,12,0,2,,,,,,,,,1,11,71,,,
42738,control_change,12,0,5,,,,,,,,,5,11,71,,,
42744,control_change,12,0,3,,,,,,,,,3,11,71,,,
42744,control_change,24,0,6,,,,,,,,,10,11,66,,,
42747,control_change,24,0,7,,,,,,,,,11,11,66,,,
42750,control_change,24,0,8,,,,,,,,,12,11,66,,,
42750,note_on,6,0,6,,,,,,,,,10,,,,77,0
42751,control_change,16,0,1,,,,,,,,,0,11,71,,,
42752,control_change,16,0,4,,,,,,,,,4,11,71,,,
42753,note_on,6,0,7,,,,,,,,,11,,,,65,0
42753,control_change,16,0,2,,,,,,,,,1,11,71,,,
42754,control_change,16,0,5,,,,,,,,,5,11,71,,,
42755,control_change,24,0,9,,,,,,,,,13,11,66,,,
42756,note_on,6,0,8,,,,,,,,,12,,,,57,0
42757,control_change,24,0,10,,,,,,,,,14,11,66,,,
42760,note_on,10,0,6,,,,,,,,,10,,,,81,100
42760,set_tempo,40,1,0,,,,,,346821,,,,,,,,
42760,control_change,16,0,3,,,,,,,,,3,11,71,,,
42761,note_on,6,0,9,,,,,,,,,13,,,,53,0
42763,note_on,6,0,10,,,,,,,,,14,,,,41,0
42763,note_on,10,0,7,,,,,,,,,11,,,,69,100
42766,note_on,10,0,8,,,,,,,,,12,,,,57,98
42768,control_change,8,0,6,,,,,,,,,10,11,68,,,
42768,control_change,17,0,1,,,,,,,,,0,11,72,,,
42769,control_change,17,0,4,,,,,,,,,4,11,72,,,
42770,control_change,17,0,2,,,,,,,,,1,11,72,,,
42771,control_change,17,0,5,,,,,,,,,5,11,72,,,
42771,control_change,8,0,7,,,,,,,,,11,11,68,,,
42771,note_on,10,0,9,,,,,,,,,13,,,,53,89
42773,note_on,10,0,10,,,,,,,,,14,,,,41,73
42774,control_change,8,0,8,,,,,,,,,12,11,68,,,
42777,control_change,17,0,3,,,,,,,,,3,11,72,,,
42779,control_change,8,0,9,,,,,,,,,13,11,68,,,
42781,control_change,8,0,10,,,,,,,,,14,11,68,,,
42784,control_change,16,0,1,,,,,,,,,0,11,73,,,
42785,control_change,16,0,4,,,,,,,,,4,11,73,,,
42786,control_change,16,0,2,,,,,,,,,1,11,73,,,
42787,control_change,16,0,5,,,,,,,,,5,11,73,,,
42790,note_on,22,0,6,,,,,,,,,10,,,,81,0
42792,control_change,2,0,6,,,,,,,,,10,11,69,,,
42793,control_change,16,0,3,,,,,,,,,3,11,73,,,
42793,note_on,22,0,7,,,,,,,,,11,,,,69,0
42795,control_change,2,0,7,,,,,,,,,11,11,69,,,
42796,note_on,22,0,8,,,,,,,,,12,,,,57,0
42798,control_change,2,0,8,,,,,,,,,12,11,69,,,
42800,note_on,8,0,6,,,,,,,,,10,,,,77,100
42801,note_on,22,0,9,,,,,,,,,13,,,,53,0
42801,control_change,17,0,1,,,,,,,,,0,11,73,,,
42802,control_change,17,0,4,,,,,,,,,4,11,73,,,
42803,note_on,8,0,7,,,,,,,,,11,,,,65,100
42803,note_on,2,0,1,,,,,,,,,0,,,,89,0
42803,note_on,22,0,10,,,,,,,,,14,,,,41,0
42803,control_change,2,0,9,,,,,,,,,13,11,69,,,
42803,control_change,17,0,2,,,,,,,,,1,11,73,,,
42804,control_change,17,0,5,,,,,,,,,5,11,73,,,
42805,note_on,2,0,2,,,,,,,,,1,,,,81,0
42805,note_on,0,0,2,,,,,,,,,1,,,,77,0
42805,control_change,2,0,10,,,,,,,,,14,11,69,,,
42806,note_on,8,0,8,,,,,,,,,12,,,,57,98
42809,note_on,7,0,4,,,,,,,,,4,,,,60,0
42810,control_change,17,0,3,,,,,,,,,3,11,73,,,
42811,note_on,8,0,9,,,,,,,,,13,,,,53,89
42811,note_on,7,0,5,,,,,,,,,5,,,,60,0
42812,note_on,2,0,3,,,,,,,,,3,,,,57,0
42812,note_on,0,0,3,,,,,,,,,3,,,,53,0
42813,note_on,8,0,10,,,,,,,,,14,,,,41,73
42813,note_on,10,0,1,,,,,,,,,0,,,,89,82
42814,note_on,5,0,4,,,,,,,,,4,,,,60,86
42815,note_on,10,0,2,,,,,,,,,1,,,,81,81
42815,note_on,0,0,2,,,,,,,,,1,,,,77,81
42816,control_change,16,0,6,,,,,,,,,10,11,71,,,
42816,note_on,5,0,5,,,,,,,,,5,,,,60,86
42817,control_change,4,0,1,,,,,,,,,0,11,74,,,
42818,control_change,4,0,4,,,,,,,,,4,11,74,,,
42819,control_change,4,0,2,,,,,,,,,1,11,74,,,
42819,control_change,16,0,7,,,,,,,,,11,11,71,,,
42820,control_change,4,0,5,,,,,,,,,5,11,74,,,
42822,note_on,0,0,3,,,,,,,,,3,,,,53,81
42822,control_change,16,0,8,,,,,,,,,12,11,71,,,
42822,note_on,10,0,3,,,,,,,,,3,,,,57,81
42826,control_change,4,0,3,,,,,,,,,3,11,74,,,
42827,control_change,16,0,9,,,,,,,,,13,11,71,,,
42829,control_change,16,0,10,,,,,,,,,14,11,71,,,
42830,note_on,14,0,6,,,,,,,,,10,,,,77,0
42833,note_on,14,0,7,,,,,,,,,11,,,,65,0
42833,note_on,16,0,1,,,,,,,,,0,,,,89,0
42834,control_change,1,0,1,,,,,,,,,0,11,75,,,
42835,note_on,16,0,2,,,,,,,,,1,,,,77,0
42835,control_change,17,0,4,,,,,,,,,4,11,75,,,
42835,note_on,0,0,2,,,,,,,,,1,,,,81,0
42836,note_on,14,0,8,,,,,,,,,12,,,,57,0
42836,control_change,1,0,2,,,,,,,,,1,11,75,,,
42837,control_change,17,0,5,,,,,,,,,5,11,75,,,
42839,note_on,4,0,4,,,,,,,,,4,,,,60,0
42840,set_tempo,80,1,0,,,,,,390879,,,,,,,,
42840,note_on,0,0,6,,,,,,,,,10,,,,76,100
42840,control_change,10,0,6,,,,,,,,,10,11,72,,,
42841,note_on,4,0,5,,,,,,,,,5,,,,60,0
42841,note_on,14,0,9,,,,,,,,,13,,,,53,0
42842,note_on,0,0,3,,,,,,,,,3,,,,57,0
42842,note_on,16,0,3,,,,,,,,,3,,,,53,0
42843,note_on,0,0,7,,,,,,,,,11,,,,64,100
42843,control_change,10,0,7,,,,,,,,,11,11,72,,,
42843,note_on,14,0,10,,,,,,,,,14,,,,41,0
42843,note_on,9,0,1,,,,,,,,,0,,,,88,82
42843,control_change,1,0,3,,,,,,,,,3,11,75,,,
42844,note_on,5,0,4,,,,,,,,,4,,,,60,86
42845,note_on,9,0,2,,,,,,,,,1,,,,76,81
42845,note_on,0,0,2,,,,,,,,,1,,,,79,81
42846,note_on,0,0,8,,,,,,,,,12,,,,58,98
42846,control_change,10,0,8,,,,,,,,,12,11,72,,,
42846,note_on,5,0,5,,,,,,,,,5,,,,60,86
42850,control_change,7,0,1,,,,,,,,,0,11,75,,,
42851,control_change,7,0,4,,,,,,,,,4,11,75,,,
42851,note_on,0,0,9,,,,,,,,,13,,,,48,89
42851,control_change,10,0,9,,,,,,,,,13,11,72,,,
42852,control_change,7,0,2,,,,,,,,,1,11,75,,,
42852,note_on,0,0,3,,,,,,,,,3,,,,48,81
42852,note_on,9,0,3,,,,,,,,,3,,,,58,81
42853,note_on,0,0,10,,,,,,,,,14,,,,36,73
42853,control_change,10,0,10,,,,,,,,,14,11,72,,,
42853,control_change,7,0,5,,,,,,,,,5,11,75,,,
42859,control_change,7,0,3,,,,,,,,,3,11,75,,,
42864,control_change,24,0,6,,,,,,,,,10,11,73,,,
42867,control_change,24,0,7,,,,,,,,,11,11,73,,,
42867,control_change,17,0,1,,,,,,,,,0,11,76,,,
42868,control_change,17,0,4,,,,,,,,,4,11,76,,,
42869,control_change,17,0,2,,,,,,,,,1,11,76,,,
42870,control_change,24,0,8,,,,,,,,,12,11,73,,,
42870,control_change,17,0,5,,,,,,,,,5,11,76,,,
42870,note_on,6,0,6,,,,,,,,,10,,,,76,0
42873,note_on,6,0,7,,,,,,,,,11,,,,64,0
42875,control_change,24,0,9,,,,,,,,,13,11,73,,,
42876,note_on,6,0,8,,,,,,,,,12,,,,58,0
42876,control_change,17,0,3,,,,,,,,,3,11,76,,,
42877,control_change,24,0,10,,,,,,,,,14,11,73,,,
42880,note_on,10,0,6,,,,,,,,,10,,,,79,100
42880,set_tempo,40,1,0,,,,,,373832,,,,,,,,
42881,note_on,6,0,9,,,,,,,,,13,,,,48,0
42883,note_on,10,0,7,,,,,,,,,11,,,,67,100
42883,note_on,6,0,10,,,,,,,,,14,,,,36,0
42883,control_change,16,0,1,,,,,,,,,0,11,77,,,
42884,control_change,16,0,4,,,,,,,,,4,11,77,,,
42885,control_change,16,0,2,,,,,,,,,1,11,77,,,
42886,note_on,10,0,8,,,,,,,,,12,,,,58,98
42886,control_change,16,0,5,,,,,,,,,5,11,77,,,
42888,control_change,8,0,6,,,,,,,,,10,11,75,,,
42891,note_on,10,0,9,,,,,,,,,13,,,,48,89
42891,control_change,8,0,7,,,,,,,,,11,11,75,,,
42892,control_change,16,0,3,,,,,,,,,3,11,77,,,
42893,note_on,10,0,10,,,,,,,,,14,,,,36,73
42894,control_change,8,0,8,,,,,,,,,12,11,75,,,
42899,control_change,8,0,9,,,,,,,,,13,11,75,,,
42900,control_change,17,0,1,,,,,,,,,0,11,77,,,
42901,control_change,17,0,4,,,,,,,,,4,11,77,,,
42901,control_change,8,0,10,,,,,,,,,14,11,75,,,
42902,control_change,17,0,2,,,,,,,,,1,11,77,,,
42903,control_change,17,0,5,,,,,,,,,5,11,77,,,
42909,control_change,17,0,3,,,,,,,,,3,11,77,,,
42910,note_on,22,0,6,,,,,,,,,10,,,,79,0
42912,control_change,2,0,6,,,,,,,,,10,11,76,,,
42913,note_on,22,0,7,,,,,,,,,11,,,,67,0
42915,control_change,2,0,7,,,,,,,,,11,11,76,,,
42916,note_on,22,0,8,,,,,,,,,12,,,,58,0
42916,control_change,16,0,1,,,,,,,,,0,11,78,,,
42917,control_change,16,0,4,,,,,,,,,4,11,78,,,
42918,control_change,2,0,8,,,,,,,,,12,11,76,,,
42918,control_change,16,0,2,,,,,,,,,1,11,78,,,
42919,control_change,16,0,5,,,,,,,,,5,11,78,,,
42920,note_on,8,0,6,,,,,,,,,10,,,,76,100
42921,note_on,22,0,9,,,,,,,,,13,,,,48,0
42923,note_on,8,0,7,,,,,,,,,11,,,,64,100
42923,note_on,22,0,10,,,,,,,,,14,,,,36,0
42923,note_on,7,0,1,,,,,,,,,0,,,,88,0
42923,control_change,2,0,9,,,,,,,,,13,11,76,,,
42925,note_on,7,0,2,,,,,,,,,1,,,,79,0
42925,note_on,0,0,2,,,,,,,,,1,,,,76,0
42925,control_change,2,0,10,,,,,,,,,14,11,76,,,
42925,control_change,16,0,3,,,,,,,,,3,11,78,,,
42926,note_on,8,0,8,,,,,,,,,12,,,,58,98
42929,note_on,12,0,4,,,,,,,,,4,,,,60,0
42931,note_on,8,0,9,,,,,,,,,13,,,,48,89
42931,note_on,12,0,5,,,,,,,,,5,,,,60,0
42932,note_on,7,0,3,,,,,,,,,3,,,,48,0
42932,note_on,0,0,3,,,,,,,,,3,,,,58,0
42933,note_on,8,0,10,,,,,,,,,14,,,,36,73
42933,note_on,0,0,1,,,,,,,,,0,,,,88,82
42933,control_change,10,0,1,,,,,,,,,0,11,79,,,
42934,note_on,0,0,4,,,,,,,,,4,,,,60,86
42934,control_change,5,0,4,,,,,,,,,4,11,79,,,
42935,control_change,10,0,2,,,,,,,,,1,11,79,,,
42935,note_on,0,0,2,,,,,,,,,1,,,,76,81
42935,note_on,0,0,2,,,,,,,,,1,,,,79,81
42936,note_on,0,0,5,,,,,,,,,5,,,,60,86
42936,control_change,16,0,6,,,,,,,,,10,11,77,,,
42936,control_change,5,0,5,,,,,,,,,5,11,79,,,
42939,control_change,16,0,7,,,,,,,,,11,11,77,,,
42942,control_change,16,0,8,,,,,,,,,12,11,77,,,
42942,note_on,0,0,3,,,,,,,,,3,,,,48,81
42942,note_on,0,0,3,,,,,,,,,3,,,,58,81
42942,control_change,10,0,3,,,,,,,,,3,11,79,,,
42947,control_change,16,0,9,,,,,,,,,13,11,77,,,
42949,control_change,16,0,10,,,,,,,,,14,11,77,,,
42950,note_on,14,0,6,,,,,,,,,10,,,,76,0
42953,note_on,20,0,1,,,,,,,,,0,,,,88,0
42953,note_on,14,0,7,,,,,,,,,11,,,,64,0
42955,note_on,20,0,2,,,,,,,,,1,,,,79,0
42955,note_on,0,0,2,,,,,,,,,1,,,,76,0
42956,note_on,14,0,8,,,,,,,,,12,,,,58,0
42959,note_on,25,0,4,,,,,,,,,4,,,,60,0
42960,note_on,0,0,6,,,,,,,,,10,,,,77,100
42960,set_tempo,80,1,0,,,,,,355030,,,,,,,,
42960,control_change,10,0,6,,,,,,,,,10,11,79,,,
42961,note_on,25,0,5,,,,,,,,,5,,,,60,0
42961,note_on,14,0,9,,,,,,,,,13,,,,48,0
42962,note_on,0,0,3,,,,,,,,,3,,,,58,0
42962,note_on,20,0,3,,,,,,,,,3,,,,48,0
42963,note_on,14,0,10,,,,,,,,,14,,,,36,0
42963,note_on,0,0,7,,,,,,,,,11,,,,65,100
42963,control_change,10,0,7,,,,,,,,,11,11,79,,,
42963,note_on,10,0,1,,,,,,,,,0,,,,89,82
42964,note_on,5,0,4,,,,,,,,,4,,,,60,86
42965,note_on,0,0,2,,,,,,,,,1,,,,77,81
42965,note_on,10,0,2,,,,,,,,,1,,,,81,81
42966,note_on,5,0,5,,,,,,,,,5,,,,60,86
42966,note_on,0,0,8,,,,,,,,,12,,,,57,98
42966,control_change,10,0,8,,,,,,,,,12,11,79,,,
42971,control_change,10,0,9,,,,,,,,,13,11,79,,,
42971,note_on,0,0,9,,,,,,,,,13,,,,53,89
42972,note_on,0,0,3,,,,,,,,,3,,,,57,81
42972,note_on,10,0,3,,,,,,,,,3,,,,53,81
42973,control_change,10,0,10,,,,,,,,,14,11,79,,,
42973,note_on,0,0,10,,,,,,,,,14,,,,41,73
43080,note_on,120,0,6,,,,,,,,,10,,,,77,0
43080,set_tempo,120,1,0,,,,,,406780,,,,,,,,
43083,note_on,120,0,7,,,,,,,,,11,,,,65,0
43083,note_on,120,0,1,,,,,,,,,0,,,,89,0
43084,note_on,120,0,4,,,,,,,,,4,,,,60,0
43085,note_on,0,0,2,,,,,,,,,1,,,,81,0
43085,note_on,120,0,2,,,,,,,,,1,,,,77,0
43086,note_on,120,0,5,,,,,,,,,5,,,,60,0
43086,note_on,120,0,8,,,,,,,,,12,,,,57,0
43091,note_on,120,0,9,,,,,,,,,13,,,,53,0
43092,note_on,120,0,3,,,,,,,,,3,,,,57,0
43092,note_on,0,0,3,,,,,,,,,3,,,,53,0
43093,note_on,120,0,10,,,,,,,,,14,,,,41,0
43200,set_tempo,120,1,0,,,,,,369231,,,,,,,,
43200,note_on,0,0,6,,,,,,,,,10,,,,65,100
43200,note_on,0,0,6,,,,,,,,,10,,,,81,100
43200,note_on,120,0,6,,,,,,,,,10,,,,72,100
43203,note_on,0,0,7,,,,,,,,,11,,,,81,100
43203,note_on,0,0,7,,,,,,,,,11,,,,72,100
43203,note_on,120,0,1,,,,,,,,,0,,,,93,82
43203,note_on,120,0,7,,,,,,,,,11,,,,65,100
43204,note_on,120,0,4,,,,,,,,,4,,,,60,86
43205,note_on,120,0,2,,,,,,,,,1,,,,72,81
43205,note_on,0,0,2,,,,,,,,,1,,,,81,81
43206,note_on,0,0,8,,,,,,,,,12,,,,65,98
43206,note_on,120,0,8,,,,,,,,,12,,,,53,98
43206,note_on,0,0,8,,,,,,,,,12,,,,60,98
43206,note_on,120,0,5,,,,,,,,,5,,,,53,86
43211,note_on,120,0,9,,,,,,,,,13,,,,53,89
43212,note_on,120,0,3,,,,,,,,,3,,,,53,81
43213,note_on,120,0,10,,,,,,,,,14,,,,41,73
43320,note_on,0,0,6,,,,,,,,,10,,,,72,0
43320,note_on,0,0,6,,,,,,,,,10,,,,81,0
43320,note_on,120,0,6,,,,,,,,,10,,,,65,0
43320,set_tempo,120,1,0,,,,,,428571,,,,,,,,
43323,note_on,0,0,7,,,,,,,,,11,,,,65,0
43323,note_on,0,0,7,,,,,,,,,11,,,,81,0
43323,note_on,120,0,7,,,,,,,,,11,,,,72,0
43323,note_on,120,0,1,,,,,,,,,0,,,,93,0
43324,note_on,120,0,4,,,,,,,,,4,,,,60,0
43325,note_on,0,0,2,,,,,,,,,1,,,,72,0
43325,note_on,120,0,2,,,,,,,,,1,,,,81,0
43326,note_on,0,0,8,,,,,,,,,12,,,,53,0
43326,note_on,0,0,8,,,,,,,,,12,,,,60,0
43326,note_on,120,0,8,,,,,,,,,12,,,,65,0
43326,note_on,120,0,5,,,,,,,,,5,,,,53,0
43331,note_on,120,0,9,,,,,,,,,13,,,,53,0
43332,note_on,120,0,3,,,,,,,,,3,,,,53,0
43333,note_on,120,0,10,,,,,,,,,14,,,,41,0
43440,set_tempo,120,1,0,,,,,,495868,,,,,,,,
43440,note_on,0,0,6,,,,,,,,,10,,,,65,100
43440,note_on,120,0,6,,,,,,,,,10,,,,57,100
43443,note_on,120,0,1,,,,,,,,,0,,,,89,82
43443,note_on,0,0,7,,,,,,,,,11,,,,65,100
43443,note_on,120,0,7,,,,,,,,,11,,,,57,100
43444,note_on,120,0,4,,,,,,,,,4,,,,60,86
43445,note_on,0,0,2,,,,,,,,,1,,,,69,81
43445,note_on,120,0,2,,,,,,,,,1,,,,77,81
43446,note_on,120,0,8,,,,,,,,,12,,,,53,98
43446,note_on,120,0,5,,,,,,,,,5,,,,53,86
43451,note_on,120,0,9,,,,,,,,,13,,,,41,89
43452,note_on,120,0,3,,,,,,,,,3,,,,41,81
43453,note_on,120,0,10,,,,,,,,,14,,,,29,73
43560,set_tempo,120,1,0,,,,,,384615,,,,,,,,
43560,note_on,120,0,6,,,,,,,,,10,,,,65,0
43560,note_on,0,0,6,,,,,,,,,10,,,,57,0
43563,note_on,120,0,7,,,,,,,,,11,,,,65,0
43563,note_on,0,0,7,,,,,,,,,11,,,,57,0
43563,note_on,120,0,1,,,,,,,,,0,,,,89,0
43564,note_on,120,0,4,,,,,,,,,4,,,,60,0
43565,note_on,120,0,2,,,,,,,,,1,,,,69,0
43565,note_on,0,0,2,,,,,,,,,1,,,,77,0
43566,note_on,120,0,8,,,,,,,,,12,,,,53,0
43566,note_on,120,0,5,,,,,,,,,5,,,,53,0
43571,note_on,120,0,9,,,,,,,,,13,,,,41,0
43572,note_on,120,0,3,,,,,,,,,3,,,,41,0
43573,note_on,120,0,10,,,,,,,,,14,,,,29,0
43800,set_tempo,240,1,0,,,,,,382166,,,,,,,,
43860,note_on,0,0,6,,,,,,,,,10,,,,65,92
43860,control_change,300,0,6,,,,,,,,,10,11,47,,,
43910,note_on,50,0,6,,,,,,,,,10,,,,65,0
43920,set_tempo,120,1,0,,,,,,382166,,,,,,,,
43920,note_on,10,0,6,,,,,,,,,10,,,,65,100
43923,note_on,0,0,7,,,,,,,,,11,,,,58,67
43923,control_change,360,0,7,,,,,,,,,11,11,47,,,
43926,control_change,360,0,8,,,,,,,,,12,11,47,,,
43926,note_on,0,0,8,,,,,,,,,12,,,,53,54
43931,control_change,360,0,9,,,,,,,,,13,11,47,,,
43931,note_on,0,0,9,,,,,,,,,13,,,,50,45
43933,control_change,360,0,10,,,,,,,,,14,11,47,,,
43933,note_on,0,0,10,,,,,,,,,14,,,,38,33
43980,note_on,0,0,6,,,,,,,,,10,,,,67,100
43980,note_on,60,0,6,,,,,,,,,10,,,,65,0
44030,note_on,50,0,6,,,,,,,,,10,,,,67,0
44040,note_on,10,0,6,,,,,,,,,10,,,,69,100
44040,set_tempo,120,1,0,,,,,,382166,,,,,,,,
44043,note_on,120,0,7,,,,,,,,,11,,,,58,0
44046,note_on,120,0,8,,,,,,,,,12,,,,53,0
44051,note_on,120,0,9,,,,,,,,,13,,,,50,0
44053,note_on,120,0,10,,,,,,,,,14,,,,38,0
44070,note_on,30,0,6,,,,,,,,,10,,,,69,0
44100,note_on,30,0,6,,,,,,,,,10,,,,70,100
44130,note_on,30,0,6,,,,,,,,,10,,,,70,0
44160,set_tempo,120,1,0,,,,,,355030,,,,,,,,
44160,note_on,30,0,6,,,,,,,,,10,,,,70,100
44163,note_on,120,0,7,,,,,,,,,11,,,,60,73
44166,note_on,120,0,8,,,,,,,,,12,,,,53,60
44171,note_on,120,0,9,,,,,,,,,13,,,,51,51
44173,note_on,120,0,10,,,,,,,,,14,,,,39,38
44220,note_on,60,0,6,,,,,,,,,10,,,,70,0
44220,note_on,0,0,6,,,,,,,,,10,,,,69,100
44270,note_on,50,0,6,,,,,,,,,10,,,,69,0
44280,set_tempo,120,1,0,,,,,,382166,,,,,,,,
44280,note_on,10,0,6,,,,,,,,,10,,,,67,100
44283,note_on,120,0,7,,,,,,,,,11,,,,60,0
44286,note_on,120,0,8,,,,,,,,,12,,,,53,0
44291,note_on,120,0,9,,,,,,,,,13,,,,51,0
44293,note_on,120,0,10,,,,,,,,,14,,,,39,0
44310,note_on,30,0,6,,,,,,,,,10,,,,67,0
44340,note_on,30,0,6,,,,,,,,,10,,,,65,100
44370,note_on,30,0,6,,,,,,,,,10,,,,65,0
44400,note_on,30,0,6,,,,,,,,,10,,,,70,100
44400,set_tempo,120,1,0,,,,,,355030,,,,,,,,
44403,note_on,120,0,7,,,,,,,,,11,,,,65,80
44406,note_on,120,0,8,,,,,,,,,12,,,,58,66
44411,note_on,120,0,9,,,,,,,,,13,,,,50,57
44413,note_on,120,0,10,,,,,,,,,14,,,,38,43
44430,note_on,30,0,6,,,,,,,,,10,,,,70,0
44460,note_on,30,0,6,,,,,,,,,10,,,,70,100
44463,note_on,60,0,7,,,,,,,,,11,,,,65,0
44466,note_on,60,0,8,,,,,,,,,12,,,,58,0
44471,note_on,60,0,9,,,,,,,,,13,,,,50,0
44473,note_on,60,0,10,,,,,,,,,14,,,,38,0
44490,note_on,30,0,6,,,,,,,,,10,,,,70,0
44520,set_tempo,120,1,0,,,,,,382166,,,,,,,,
44520,note_on,30,0,6,,,,,,,,,10,,,,74,100
44523,note_on,60,0,7,,,,,,,,,11,,,,69,80
44526,note_on,60,0,8,,,,,,,,,12,,,,60,66
44531,note_on,60,0,9,,,,,,,,,13,,,,53,57
44533,note_on,60,0,10,,,,,,,,,14,,,,41,43
44550,note_on,30,0,6,,,,,,,,,10,,,,74,0
44550,note_on,0,0,6,,,,,,,,,10,,,,72,100
44570,note_on,20,0,6,,,,,,,,,10,,,,72,0
44580,note_on,10,0,6,,,,,,,,,10,,,,70,100
44583,note_on,60,0,7,,,,,,,,,11,,,,69,0
44586,note_on,60,0,8,,,,,,,,,12,,,,60,0
44591,note_on,60,0,9,,,,,,,,,13,,,,53,0
44593,note_on,60,0,10,,,,,,,,,14,,,,41,0
44595,note_on,15,0,6,,,,,,,,,10,,,,70,0
44610,note_on,15,0,6,,,,,,,,,10,,,,72,100
44625,note_on,15,0,6,,,,,,,,,10,,,,72,0
44640,set_tempo,120,1,0,,,,,,355030,,,,,,,,
44640,note_on,15,0,6,,,,,,,,,10,,,,74,100
44643,note_on,60,0,7,,,,,,,,,11,,,,70,80
44646,note_on,60,0,8,,,,,,,,,12,,,,62,66
44651,note_on,60,0,9,,,,,,,,,13,,,,58,57
44653,note_on,60,0,10,,,,,,,,,14,,,,46,43
44760,note_on,120,0,6,,,,,,,,,10,,,,74,0
44760,note_on,0,0,6,,,,,,,,,10,,,,70,100
44760,set_tempo,120,1,0,,,,,,382166,,,,,,,,
44763,note_on,120,0,7,,,,,,,,,11,,,,70,0
44766,note_on,120,0,8,,,,,,,,,12,,,,62,0
44771,note_on,120,0,9,,,,,,,,,13,,,,58,0
44773,note_on,120,0,10,,,,,,,,,14,,,,46,0
44810,note_on,50,0,6,,,,,,,,,10,,,,70,0
44820,note_on,10,0,6,,,,,,,,,10,,,,77,100
44870,note_on,50,0,6,,,,,,,,,10,,,,77,0
44880,note_on,10,0,6,,,,,,,,,10,,,,74,115
44880,set_tempo,120,1,0,,,,,,355030,,,,,,,,
44883,note_on,120,0,7,,,,,,,,,11,,,,68,92
44886,note_on,120,0,8,,,,,,,,,12,,,,65,75
44891,note_on,120,0,9,,,,,,,,,13,,,,59,66
44893,note_on,120,0,10,,,,,,,,,14,,,,47,52
45000,note_on,0,0,6,,,,,,,,,10,,,,75,100
45000,note_on,120,0,6,,,,,,,,,10,,,,74,0
45000,set_tempo,120,1,0,,,,,,382166,,,,,,,,
45003,note_on,0,0,7,,,,,,,,,11,,,,67,80
45003,note_on,120,0,7,,,,,,,,,11,,,,68,0
45006,note_on,0,0,8,,,,,,,,,12,,,,63,66
45006,note_on,120,0,8,,,,,,,,,12,,,,65,0
45011,note_on,0,0,9,,,,,,,,,13,,,,60,57
45011,note_on,120,0,9,,,,,,,,,13,,,,59,0
45013,note_on,0,0,10,,,,,,,,,14,,,,48,43
45013,note_on,120,0,10,,,,,,,,,14,,,,47,0
45050,note_on,50,0,6,,,,,,,,,10,,,,75,0
45060,note_on,10,0,6,,,,,,,,,10,,,,75,100
45063,note_on,60,0,7,,,,,,,,,11,,,,67,0
45066,note_on,60,0,8,,,,,,,,,12,,,,63,0
45071,note_on,60,0,9,,,,,,,,,13,,,,60,0
45073,note_on,60,0,10,,,,,,,,,14,,,,48,0
45110,note_on,50,0,6,,,,,,,,,10,,,,75,0
45120,set_tempo,120,1,0,,,,,,355030,,,,,,,,
45120,note_on,10,0,6,,,,,,,,,10,,,,72,115
45123,note_on,60,0,7,,,,,,,,,11,,,,66,92
45126,note_on,60,0,8,,,,,,,,,12,,,,63,75
45131,note_on,60,0,9,,,,,,,,,13,,,,57,66
45133,note_on,60,0,10,,,,,,,,,14,,,,45,52
45240,note_on,0,0,6,,,,,,,,,10,,,,74,100
45240,set_tempo,120,1,0,,,,,,382166,,,,,,,,
45240,note_on,120,0,6,,,,,,,,,10,,,,72,0
45243,note_on,120,0,7,,,,,,,,,11,,,,66,0
45243,note_on,0,0,7,,,,,,,,,11,,,,65,80
45246,note_on,120,0,8,,,,,,,,,12,,,,63,0
45246,note_on,0,0,8,,,,,,,,,12,,,,62,66
45251,note_on,120,0,9,,,,,,,,,13,,,,57,0
45251,note_on,0,0,9,,,,,,,,,13,,,,58,57
45253,note_on,0,0,10,,,,,,,,,14,,,,46,43
45253,note_on,120,0,10,,,,,,,,,14,,,,45,0
45290,note_on,50,0,6,,,,,,,,,10,,,,74,0
45300,note_on,10,0,6,,,,,,,,,10,,,,70,100
45303,note_on,60,0,7,,,,,,,,,11,,,,65,0
45306,note_on,60,0,8,,,,,,,,,12,,,,62,0
45311,note_on,60,0,9,,,,,,,,,13,,,,58,0
45313,note_on,60,0,10,,,,,,,,,14,,,,46,0
45350,note_on,50,0,6,,,,,,,,,10,,,,70,0
45360,set_tempo,120,1,0,,,,,,355030,,,,,,,,
45360,note_on,10,0,6,,,,,,,,,10,,,,67,100
45363,note_on,60,0,7,,,,,,,,,11,,,,58,80
45366,note_on,60,0,8,,,,,,,,,12,,,,55,66
45371,note_on,60,0,9,,,,,,,,,13,,,,51,57
45373,note_on,60,0,10,,,,,,,,,14,,,,39,43
45390,note_on,30,0,6,,,,,,,,,10,,,,67,0
45420,note_on,30,0,6,,,,,,,,,10,,,,69,100
45423,note_on,60,0,7,,,,,,,,,11,,,,58,0
45426,note_on,60,0,8,,,,,,,,,12,,,,55,0
45431,note_on,60,0,9,,,,,,,,,13,,,,51,0
45433,note_on,60,0,10,,,,,,,,,14,,,,39,0
45450,note_on,30,0,6,,,,,,,,,10,,,,69,0
45480,set_tempo,120,1,0,,,,,,382166,,,,,,,,
45480,note_on,30,0,6,,,,,,,,,10,,,,70,100
45483,note_on,60,0,7,,,,,,,,,11,,,,60,80
45486,note_on,60,0,8,,,,,,,,,12,,,,55,66
45491,note_on,60,0,9,,,,,,,,,13,,,,52,57
45493,note_on,60,0,10,,,,,,,,,14,,,,40,43
45510,note_on,30,0,6,,,,,,,,,10,,,,70,0
45540,note_on,30,0,6,,,,,,,,,10,,,,72,100
45543,note_on,60,0,7,,,,,,,,,11,,,,60,0
45546,note_on,60,0,8,,,,,,,,,12,,,,55,0
45551,note_on,60,0,9,,,,,,,,,13,,,,52,0
45553,note_on,60,0,10,,,,,,,,,14,,,,40,0
45570,note_on,30,0,6,,,,,,,,,10,,,,72,0
45600,note_on,30,0,6,,,,,,,,,10,,,,65,100
45600,set_tempo,120,1,0,,,,,,359281,,,,,,,,
45603,note_on,60,0,7,,,,,,,,,11,,,,57,80
45606,note_on,60,0,8,,,,,,,,,12,,,,53,66
45611,note_on,60,0,9,,,,,,,,,13,,,,53,57
45613,note_on,60,0,10,,,,,,,,,14,,,,41,43
45636,note_on,30,0,8,,,,,,,,,12,,,,53,0
45641,note_on,30,0,9,,,,,,,,,13,,,,53,0
45643,note_on,30,0,10,,,,,,,,,14,,,,41,0
45666,note_on,30,0,8,,,,,,,,,12,,,,65,98
45671,note_on,30,0,9,,,,,,,,,13,,,,53,89
45673,note_on,30,0,10,,,,,,,,,14,,,,41,73
45720,set_tempo,120,1,0,,,,,,400000,,,,,,,,
45720,note_on,120,0,6,,,,,,,,,10,,,,65,0
45723,note_on,120,0,7,,,,,,,,,11,,,,57,0
45726,note_on,0,0,8,,,,,,,,,12,,,,64,98
45726,note_on,60,0,8,,,,,,,,,12,,,,65,0
45731,note_on,60,0,9,,,,,,,,,13,,,,53,0
45731,note_on,0,0,9,,,,,,,,,13,,,,52,89
45733,note_on,0,0,10,,,,,,,,,14,,,,40,73
45733,note_on,60,0,10,,,,,,,,,14,,,,41,0
45780,note_on,60,0,6,,,,,,,,,10,,,,77,80
45783,note_on,0,0,1,,,,,,,,,0,,,,77,82
45783,control_change,2220,0,1,,,,,,,,,0,11,47,,,
45783,note_on,60,0,7,,,,,,,,,11,,,,65,100
45786,note_on,60,0,8,,,,,,,,,12,,,,64,0
45786,note_on,0,0,8,,,,,,,,,12,,,,63,98
45791,note_on,60,0,9,,,,,,,,,13,,,,52,0
45791,note_on,0,0,9,,,,,,,,,13,,,,51,89
45793,note_on,0,0,10,,,,,,,,,14,,,,39,73
45793,note_on,60,0,10,,,,,,,,,14,,,,40,0
45830,note_on,50,0,6,,,,,,,,,10,,,,77,0
45833,note_on,50,0,1,,,,,,,,,0,,,,77,0
45833,note_on,50,0,7,,,,,,,,,11,,,,65,0
45836,note_on,50,0,8,,,,,,,,,12,,,,63,0
45840,note_on,10,0,6,,,,,,,,,10,,,,77,80
45840,set_tempo,120,1,0,,,,,,368098,,,,,,,,
45841,note_on,50,0,9,,,,,,,,,13,,,,51,0
45843,note_on,10,0,1,,,,,,,,,0,,,,77,82
45843,note_on,10,0,7,,,,,,,,,11,,,,65,100
45843,note_on,50,0,10,,,,,,,,,14,,,,39,0
45845,note_on,0,0,2,,,,,,,,,1,,,,77,81
45845,control_change,2280,0,2,,,,,,,,,1,11,47,,,
45845,note_on,0,0,2,,,,,,,,,1,,,,65,81
45846,note_on,10,0,8,,,,,,,,,12,,,,62,98
45851,note_on,10,0,9,,,,,,,,,13,,,,50,89
45852,control_change,2280,0,3,,,,,,,,,3,11,47,,,
45852,note_on,0,0,3,,,,,,,,,3,,,,58,81
45852,note_on,0,0,3,,,,,,,,,3,,,,50,81
45853,note_on,10,0,10,,,,,,,,,14,,,,38,73
45900,note_on,0,0,6,,,,,,,,,10,,,,79,80
45900,note_on,60,0,6,,,,,,,,,10,,,,77,0
45903,note_on,0,0,7,,,,,,,,,11,,,,67,100
45903,note_on,60,0,1,,,,,,,,,0,,,,77,0
45903,note_on,60,0,7,,,,,,,,,11,,,,65,0
45903,note_on,0,0,1,,,,,,,,,0,,,,79,82
45950,note_on,50,0,6,,,,,,,,,10,,,,79,0
45953,note_on,50,0,7,,,,,,,,,11,,,,67,0
45953,note_on,50,0,1,,,,,,,,,0,,,,79,0
45960,note_on,10,0,6,,,,,,,,,10,,,,81,80
45960,set_tempo,120,1,0,,,,,,382166,,,,,,,,
45963,note_on,10,0,1,,,,,,,,,0,,,,81,82
45963,note_on,10,0,7,,,,,,,,,11,,,,69,100
45966,note_on,120,0,8,,,,,,,,,12,,,,62,0
45971,note_on,120,0,9,,,,,,,,,13,,,,50,0
45972,note_on,120,0,3,,,,,,,,,3,,,,50,0
45972,note_on,0,0,3,,,,,,,,,3,,,,58,0
45973,note_on,120,0,10,,,,,,,,,14,,,,38,0
45990,note_on,30,0,6,,,,,,,,,10,,,,81,0
45993,note_on,30,0,7,,,,,,,,,11,,,,69,0
45993,note_on,30,0,1,,,,,,,,,0,,,,81,0
46020,note_on,30,0,6,,,,,,,,,10,,,,82,80
46023,note_on,30,0,1,,,,,,,,,0,,,,82,82
46023,note_on,30,0,7,,,,,,,,,11,,,,70,100
46050,note_on,30,0,6,,,,,,,,,10,,,,82,0
46053,note_on,30,0,1,,,,,,,,,0,,,,82,0
46053,note_on,30,0,7,,,,,,,,,11,,,,70,0
46080,set_tempo,120,1,0,,,,,,355030,,,,,,,,
46080,note_on,30,0,6,,,,,,,,,10,,,,82,80
46083,note_on,30,0,1,,,,,,,,,0,,,,82,82
46083,note_on,30,0,7,,,,,,,,,11,,,,70,100
46086,note_on,120,0,8,,,,,,,,,12,,,,63,98
46091,note_on,120,0,9,,,,,,,,,13,,,,51,89
46092,note_on,0,0,3,,,,,,,,,3,,,,51,81
46092,note_on,120,0,3,,,,,,,,,3,,,,60,81
46093,note_on,120,0,10,,,,,,,,,14,,,,39,73
46140,note_on,60,0,6,,,,,,,,,10,,,,82,0
46140,note_on,0,0,6,,,,,,,,,10,,,,81,80
46143,note_on,0,0,1,,,,,,,,,0,,,,81,82
46143,note_on,60,0,1,,,,,,,,,0,,,,82,0
46143,note_on,60,0,7,,,,,,,,,11,,,,70,0
46143,note_on,0,0,7,,,,,,,,,11,,,,69,100
46190,note_on,50,0,6,,,,,,,,,10,,,,81,0
46193,note_on,50,0,7,,,,,,,,,11,,,,69,0
46193,note_on,50,0,1,,,,,,,,,0,,,,81,0
46200,set_tempo,120,1,0,,,,,,382166,,,,,,,,
46200,note_on,10,0,6,,,,,,,,,10,,,,79,80
46203,note_on,10,0,1,,,,,,,,,0,,,,79,82
46203,note_on,10,0,7,,,,,,,,,11,,,,67,100
46206,note_on,120,0,8,,,,,,,,,12,,,,63,0
46211,note_on,120,0,9,,,,,,,,,13,,,,51,0
46212,note_on,120,0,3,,,,,,,,,3,,,,51,0
46212,note_on,0,0,3,,,,,,,,,3,,,,60,0
46213,note_on,120,0,10,,,,,,,,,14,,,,39,0
46230,note_on,30,0,6,,,,,,,,,10,,,,79,0
46233,note_on,30,0,1,,,,,,,,,0,,,,79,0
46233,note_on,30,0,7,,,,,,,,,11,,,,67,0
46260,note_on,30,0,6,,,,,,,,,10,,,,77,80
46263,note_on,30,0,1,,,,,,,,,0,,,,77,82
46263,note_on,30,0,7,,,,,,,,,11,,,,65,100
46290,note_on,30,0,6,,,,,,,,,10,,,,77,0
46293,note_on,30,0,1,,,,,,,,,0,,,,77,0
46293,note_on,30,0,7,,,,,,,,,11,,,,65,0
46320,set_tempo,120,1,0,,,,,,355030,,,,,,,,
46320,note_on,30,0,6,,,,,,,,,10,,,,82,80
46323,note_on,30,0,1,,,,,,,,,0,,,,82,82
46323,note_on,30,0,7,,,,,,,,,11,,,,70,100
46326,note_on,120,0,8,,,,,,,,,12,,,,62,98
46331,note_on,120,0,9,,,,,,,,,13,,,,50,89
46332,note_on,0,0,3,,,,,,,,,3,,,,58,81
46332,note_on,120,0,3,,,,,,,,,3,,,,50,81
46333,note_on,120,0,10,,,,,,,,,14,,,,38,73
46350,note_on,30,0,6,,,,,,,,,10,,,,82,0
46353,note_on,30,0,7,,,,,,,,,11,,,,70,0
46353,note_on,30,0,1,,,,,,,,,0,,,,82,0
46380,note_on,30,0,6,,,,,,,,,10,,,,82,80
46383,note_on,30,0,7,,,,,,,,,11,,,,70,100
46383,note_on,30,0,1,,,,,,,,,0,,,,82,82
46386,note_on,60,0,8,,,,,,,,,12,,,,62,0
46391,note_on,60,0,9,,,,,,,,,13,,,,50,0
46392,note_on,60,0,3,,,,,,,,,3,,,,58,0
46392,note_on,0,0,3,,,,,,,,,3,,,,50,0
46393,note_on,60,0,10,,,,,,,,,14,,,,38,0
46410,note_on,30,0,6,,,,,,,,,10,,,,82,0
46413,note_on,30,0,1,,,,,,,,,0,,,,82,0
46413,note_on,30,0,7,,,,,,,,,11,,,,70,0
46440,set_tempo,120,1,0,,,,,,382166,,,,,,,,
46440,note_on,30,0,6,,,,,,,,,10,,,,86,80
46443,note_on,30,0,7,,,,,,,,,11,,,,74,100
46443,note_on,30,0,1,,,,,,,,,0,,,,86,82
46446,note_on,60,0,8,,,,,,,,,12,,,,69,98
46451,note_on,60,0,9,,,,,,,,,13,,,,53,89
46452,note_on,60,0,3,,,,,,,,,3,,,,60,81
46452,note_on,0,0,3,,,,,,,,,3,,,,53,81
46453,note_on,60,0,10,,,,,,,,,14,,,,41,73
46470,note_on,30,0,6,,,,,,,,,10,,,,86,0
46470,note_on,0,0,6,,,,,,,,,10,,,,84,80
46473,note_on,0,0,7,,,,,,,,,11,,,,72,100
46473,note_on,0,0,1,,,,,,,,,0,,,,84,82
46473,note_on,30,0,7,,,,,,,,,11,,,,74,0
46473,note_on,30,0,1,,,,,,,,,0,,,,86,0
46490,note_on,20,0,6,,,,,,,,,10,,,,84,0
46493,note_on,20,0,7,,,,,,,,,11,,,,72,0
46493,note_on,20,0,1,,,,,,,,,0,,,,84,0
46500,note_on,10,0,6,,,,,,,,,10,,,,82,80
46503,note_on,10,0,7,,,,,,,,,11,,,,70,100
46503,note_on,10,0,1,,,,,,,,,0,,,,82,82
46506,note_on,60,0,8,,,,,,,,,12,,,,69,0
46511,note_on,60,0,9,,,,,,,,,13,,,,53,0
46512,note_on,0,0,3,,,,,,,,,3,,,,60,0
46512,note_on,60,0,3,,,,,,,,,3,,,,53,0
46513,note_on,60,0,10,,,,,,,,,14,,,,41,0
46515,note_on,15,0,6,,,,,,,,,10,,,,82,0
46518,note_on,15,0,7,,,,,,,,,11,,,,70,0
46518,note_on,15,0,1,,,,,,,,,0,,,,82,0
46530,note_on,15,0,6,,,,,,,,,10,,,,84,80
46533,note_on,15,0,1,,,,,,,,,0,,,,84,82
46533,note_on,15,0,7,,,,,,,,,11,,,,72,100
46545,note_on,15,0,6,,,,,,,,,10,,,,84,0
46548,note_on,15,0,7,,,,,,,,,11,,,,72,0
46548,note_on,15,0,1,,,,,,,,,0,,,,84,0
46560,note_on,15,0,6,,,,,,,,,10,,,,86,80
46560,set_tempo,120,1,0,,,,,,355030,,,,,,,,
46563,note_on,15,0,7,,,,,,,,,11,,,,74,100
46563,note_on,15,0,1,,,,,,,,,0,,,,86,82
46566,note_on,60,0,8,,,,,,,,,12,,,,70,98
46571,note_on,60,0,9,,,,,,,,,13,,,,58,89
46572,note_on,0,0,3,,,,,,,,,3,,,,62,81
46572,note_on,60,0,3,,,,,,,,,3,,,,58,81
46573,note_on,60,0,10,,,,,,,,,14,,,,46,73
46680,note_on,120,0,6,,,,,,,,,10,,,,86,0
46680,note_on,0,0,6,,,,,,,,,10,,,,82,80
46680,set_tempo,120,1,0,,,,,,382166,,,,,,,,
46683,note_on,0,0,1,,,,,,,,,0,,,,82,82
46683,note_on,120,0,7,,,,,,,,,11,,,,74,0
46683,note_on,120,0,1,,,,,,,,,0,,,,86,0
46683,note_on,0,0,7,,,,,,,,,11,,,,70,100
46685,note_on,0,0,2,,,,,,,,,1,,,,65,0
46685,note_on,840,0,2,,,,,,,,,1,,,,77,0
46686,note_on,120,0,8,,,,,,,,,12,,,,70,0
46691,note_on,120,0,9,,,,,,,,,13,,,,58,0
46692,note_on,120,0,3,,,,,,,,,3,,,,62,0
46692,note_on,0,0,3,,,,,,,,,3,,,,58,0
46693,note_on,120,0,10,,,,,,,,,14,,,,46,0
46730,note_on,50,0,6,,,,,,,,,10,,,,82,0
46733,note_on,50,0,1,,,,,,,,,0,,,,82,0
46733,note_on,50,0,7,,,,,,,,,11,,,,70,0
46740,note_on,10,0,6,,,,,,,,,10,,,,82,80
46743,note_on,10,0,1,,,,,,,,,0,,,,82,82
46743,note_on,10,0,7,,,,,,,,,11,,,,70,100
46800,set_tempo,120,1,0,,,,,,355030,,,,,,,,
46800,note_on,0,0,6,,,,,,,,,10,,,,86,80
46800,note_on,60,0,6,,,,,,,,,10,,,,82,0
46803,note_on,60,0,1,,,,,,,,,0,,,,82,0
46803,note_on,0,0,7,,,,,,,,,11,,,,74,100
46803,note_on,60,0,7,,,,,,,,,11,,,,70,0
46803,note_on,0,0,1,,,,,,,,,0,,,,86,82
46805,note_on,120,0,2,,,,,,,,,1,,,,74,81
46805,note_on,0,0,2,,,,,,,,,1,,,,70,81
46806,note_on,0,0,8,,,,,,,,,12,,,,62,98
46806,note_on,120,0,8,,,,,,,,,12,,,,58,98
46811,note_on,120,0,9,,,,,,,,,13,,,,46,89
46812,note_on,120,0,3,,,,,,,,,3,,,,46,81
46813,note_on,120,0,10,,,,,,,,,14,,,,34,73
46860,note_on,60,0,6,,,,,,,,,10,,,,86,0
46860,note_on,0,0,6,,,,,,,,,10,,,,82,80
46863,note_on,60,0,7,,,,,,,,,11,,,,74,0
46863,note_on,0,0,7,,,,,,,,,11,,,,70,100
46863,note_on,60,0,1,,,,,,,,,0,,,,86,0
46863,note_on,0,0,1,,,,,,,,,0,,,,82,82
46910,note_on,50,0,6,,,,,,,,,10,,,,82,0
46913,note_on,50,0,1,,,,,,,,,0,,,,82,0
46913,note_on,50,0,7,,,,,,,,,11,,,,70,0
46920,note_on,10,0,6,,,,,,,,,10,,,,77,80
46920,set_tempo,120,1,0,,,,,,382166,,,,,,,,
46923,note_on,10,0,7,,,,,,,,,11,,,,65,100
46923,note_on,10,0,1,,,,,,,,,0,,,,77,82
46925,note_on,0,0,2,,,,,,,,,1,,,,74,0
46925,note_on,120,0,2,,,,,,,,,1,,,,70,0
46926,note_on,120,0,8,,,,,,,,,12,,,,62,0
46926,note_on,0,0,8,,,,,,,,,12,,,,58,0
46931,note_on,120,0,9,,,,,,,,,13,,,,46,0
46932,note_on,120,0,3,,,,,,,,,3,,,,46,0
46933,note_on,120,0,10,,,,,,,,,14,,,,34,0
46950,note_on,30,0,6,,,,,,,,,10,,,,77,0
46953,note_on,30,0,1,,,,,,,,,0,,,,77,0
46953,note_on,30,0,7,,,,,,,,,11,,,,65,0
46980,note_on,30,0,6,,,,,,,,,10,,,,77,80
46983,note_on,30,0,7,,,,,,,,,11,,,,65,100
46983,note_on,30,0,1,,,,,,,,,0,,,,77,82
47010,note_on,30,0,6,,,,,,,,,10,,,,77,0
47013,note_on,30,0,7,,,,,,,,,11,,,,65,0
47013,note_on,30,0,1,,,,,,,,,0,,,,77,0
47040,set_tempo,120,1,0,,,,,,355030,,,,,,,,
47040,note_on,30,0,6,,,,,,,,,10,,,,82,80
47043,note_on,30,0,1,,,,,,,,,0,,,,82,82
47043,note_on,30,0,7,,,,,,,,,11,,,,70,100
47045,note_on,120,0,2,,,,,,,,,1,,,,70,81
47045,note_on,0,0,2,,,,,,,,,1,,,,77,81
47046,note_on,0,0,8,,,,,,,,,12,,,,62,98
47046,note_on,120,0,8,,,,,,,,,12,,,,65,98
47051,note_on,120,0,9,,,,,,,,,13,,,,50,89
47052,note_on,120,0,3,,,,,,,,,3,,,,50,81
47053,note_on,120,0,10,,,,,,,,,14,,,,38,73
47100,note_on,0,0,6,,,,,,,,,10,,,,77,80
47100,note_on,60,0,6,,,,,,,,,10,,,,82,0
47103,note_on,60,0,7,,,,,,,,,11,,,,70,0
47103,note_on,0,0,1,,,,,,,,,0,,,,77,82
47103,note_on,60,0,1,,,,,,,,,0,,,,82,0
47103,note_on,0,0,7,,,,,,,,,11,,,,65,100
47150,note_on,50,0,6,,,,,,,,,10,,,,77,0
47153,note_on,50,0,7,,,,,,,,,11,,,,65,0
47153,note_on,50,0,1,,,,,,,,,0,,,,77,0
47160,note_on,10,0,6,,,,,,,,,10,,,,74,80
47160,set_tempo,120,1,0,,,,,,382166,,,,,,,,
47163,note_on,10,0,7,,,,,,,,,11,,,,62,100
47163,note_on,10,0,1,,,,,,,,,0,,,,74,82
47165,note_on,0,0,2,,,,,,,,,1,,,,70,0
47165,note_on,120,0,2,,,,,,,,,1,,,,77,0
47166,note_on,0,0,8,,,,,,,,,12,,,,65,0
47166,note_on,120,0,8,,,,,,,,,12,,,,62,0
47171,note_on,120,0,9,,,,,,,,,13,,,,50,0
47172,note_on,120,0,3,,,,,,,,,3,,,,50,0
47173,note_on,120,0,10,,,,,,,,,14,,,,38,0
47190,note_on,30,0,6,,,,,,,,,10,,,,74,0
47193,note_on,30,0,7,,,,,,,,,11,,,,62,0
47193,note_on,30,0,1,,,,,,,,,0,,,,74,0
47220,note_on,30,0,6,,,,,,,,,10,,,,74,80
47223,note_on,30,0,1,,,,,,,,,0,,,,74,82
47223,note_on,30,0,7,,,,,,,,,11,,,,62,100
47225,note_on,60,0,2,,,,,,,,,1,,,,70,81
47225,note_on,0,0,2,,,,,,,,,1,,,,74,81
47226,note_on,60,0,8,,,,,,,,,12,,,,70,98
47231,note_on,60,0,9,,,,,,,,,13,,,,52,89
47232,note_on,60,0,3,,,,,,,,,3,,,,52,81
47233,note_on,60,0,10,,,,,,,,,14,,,,40,73
47250,note_on,30,0,6,,,,,,,,,10,,,,74,0
47253,note_on,30,0,1,,,,,,,,,0,,,,74,0
47253,note_on,30,0,7,,,,,,,,,11,,,,62,0
47275,note_on,0,0,2,,,,,,,,,1,,,,70,0
47275,note_on,50,0,2,,,,,,,,,1,,,,74,0
47276,note_on,50,0,8,,,,,,,,,12,,,,70,0
47280,note_on,30,0,6,,,,,,,,,10,,,,74,100
47280,set_tempo,120,1,0,,,,,,369231,,,,,,,,
47281,note_on,50,0,9,,,,,,,,,13,,,,52,0
47282,note_on,50,0,3,,,,,,,,,3,,,,52,0
47283,note_on,30,0,7,,,,,,,,,11,,,,70,100
47283,note_on,50,0,10,,,,,,,,,14,,,,40,0
47283,note_on,30,0,1,,,,,,,,,0,,,,74,82
47285,note_on,10,0,2,,,,,,,,,1,,,,74,81
47285,note_on,0,0,2,,,,,,,,,1,,,,70,81
47286,note_on,10,0,8,,,,,,,,,12,,,,65,98
47291,note_on,10,0,9,,,,,,,,,13,,,,53,89
47292,note_on,10,0,3,,,,,,,,,3,,,,53,81
47293,note_on,10,0,10,,,,,,,,,14,,,,41,73
47340,note_on,60,0,6,,,,,,,,,10,,,,74,0
47340,note_on,0,0,6,,,,,,,,,10,,,,77,100
47343,note_on,60,0,7,,,,,,,,,11,,,,70,0
47343,note_on,0,0,7,,,,,,,,,11,,,,74,100
47343,note_on,0,0,1,,,,,,,,,0,,,,77,82
47343,note_on,60,0,1,,,,,,,,,0,,,,74,0
47345,note_on,0,0,2,,,,,,,,,1,,,,77,81
47345,note_on,0,0,2,,,,,,,,,1,,,,74,81
47345,note_on,0,0,2,,,,,,,,,1,,,,74,0
47345,note_on,60,0,2,,,,,,,,,1,,,,70,0
47390,note_on,50,0,6,,,,,,,,,10,,,,77,0
47393,note_on,50,0,7,,,,,,,,,11,,,,74,0
47393,note_on,50,0,1,,,,,,,,,0,,,,77,0
47395,note_on,0,0,2,,,,,,,,,1,,,,74,0
47395,note_on,50,0,2,,,,,,,,,1,,,,77,0
47396,note_on,110,0,8,,,,,,,,,12,,,,65,0
47400,set_tempo,120,1,0,,,,,,398671,,,,,,,,
47400,note_on,10,0,6,,,,,,,,,10,,,,75,100
47401,note_on,110,0,9,,,,,,,,,13,,,,53,0
47402,note_on,110,0,3,,,,,,,,,3,,,,53,0
47403,note_on,10,0,7,,,,,,,,,11,,,,72,100
47403,note_on,110,0,10,,,,,,,,,14,,,,41,0
47403,note_on,10,0,1,,,,,,,,,0,,,,75,82
47405,note_on,10,0,2,,,,,,,,,1,,,,75,81
47405,note_on,0,0,2,,,,,,,,,1,,,,72,81
47406,note_on,10,0,8,,,,,,,,,12,,,,53,98
47411,note_on,10,0,9,,,,,,,,,13,,,,41,89
47412,note_on,10,0,3,,,,,,,,,3,,,,41,81
47413,note_on,10,0,10,,,,,,,,,14,,,,29,73
47430,note_on,30,0,6,,,,,,,,,10,,,,75,0
47433,note_on,30,0,7,,,,,,,,,11,,,,72,0
47433,note_on,30,0,1,,,,,,,,,0,,,,75,0
47441,note_on,36,0,2,,,,,,,,,1,,,,72,0
47441,note_on,0,0,2,,,,,,,,,1,,,,75,0
47460,note_on,30,0,6,,,,,,,,,10,,,,72,100
47463,note_on,30,0,7,,,,,,,,,11,,,,69,100
47463,note_on,30,0,1,,,,,,,,,0,,,,72,82
47465,note_on,24,0,2,,,,,,,,,1,,,,69,81
47465,note_on,0,0,2,,,,,,,,,1,,,,72,81
47490,note_on,30,0,6,,,,,,,,,10,,,,72,0
47493,note_on,30,0,1,,,,,,,,,0,,,,72,0
47493,note_on,30,0,7,,,,,,,,,11,,,,69,0
47501,note_on,36,0,2,,,,,,,,,1,,,,72,0
47501,note_on,0,0,2,,,,,,,,,1,,,,69,0
47516,note_on,110,0,8,,,,,,,,,12,,,,53,0
47520,set_tempo,120,1,0,,,,,,392157,,,,,,,,
47520,note_on,30,0,6,,,,,,,,,10,,,,70,80
47521,note_on,110,0,9,,,,,,,,,13,,,,41,0
47522,note_on,110,0,3,,,,,,,,,3,,,,41,0
47523,note_on,30,0,7,,,,,,,,,11,,,,70,80
47523,note_on,30,0,1,,,,,,,,,0,,,,70,82
47523,note_on,110,0,10,,,,,,,,,14,,,,29,0
47525,note_on,24,0,2,,,,,,,,,1,,,,70,81
47526,note_on,10,0,8,,,,,,,,,12,,,,58,78
47531,note_on,10,0,9,,,,,,,,,13,,,,46,69
47532,note_on,10,0,3,,,,,,,,,3,,,,46,81
47533,note_on,10,0,10,,,,,,,,,14,,,,34,55
47640,set_tempo,120,1,0,,,,,,382166,,,,,,,,
47640,note_on,120,0,6,,,,,,,,,10,,,,70,0
47643,note_on,120,0,7,,,,,,,,,11,,,,70,0
47643,note_on,120,0,1,,,,,,,,,0,,,,70,0
47645,note_on,120,0,2,,,,,,,,,1,,,,70,0
47646,note_on,120,0,8,,,,,,,,,12,,,,58,0
47651,note_on,120,0,9,,,,,,,,,13,,,,46,0
47652,note_on,120,0,3,,,,,,,,,3,,,,46,0
47653,note_on,120,0,10,,,,,,,,,14,,,,34,0
47760,note_on,0,0,6,,,,,,,,,10,,,,74,100
47760,set_tempo,120,1,0,,,,,,370370,,,,,,,,
47760,control_change,120,0,6,,,,,,,,,10,11,37,,,
47763,note_on,0,0,7,,,,,,,,,11,,,,70,100
47763,control_change,120,0,7,,,,,,,,,11,11,37,,,
47820,note_on,0,0,6,,,,,,,,,10,,,,77,100
47820,note_on,60,0,6,,,,,,,,,10,,,,74,0
47823,note_on,0,0,7,,,,,,,,,11,,,,74,100
47823,note_on,60,0,7,,,,,,,,,11,,,,70,0
47870,note_on,50,0,6,,,,,,,,,10,,,,77,0
47873,note_on,50,0,7,,,,,,,,,11,,,,74,0
47880,set_tempo,120,1,0,,,,,,382166,,,,,,,,
47880,note_on,10,0,6,,,,,,,,,10,,,,75,100
47883,note_on,10,0,7,,,,,,,,,11,,,,72,100
47910,note_on,30,0,6,,,,,,,,,10,,,,75,0
47913,note_on,30,0,7,,,,,,,,,11,,,,72,0
47940,note_on,30,0,6,,,,,,,,,10,,,,72,100
47943,note_on,30,0,7,,,,,,,,,11,,,,69,100
47970,note_on,30,0,6,,,,,,,,,10,,,,72,0
47973,note_on,30,0,7,,,,,,,,,11,,,,69,0
48000,note_on,30,0,6,,,,,,,,,10,,,,74,100
48000,set_tempo,120,1,0,,,,,,362538,,,,,,,,
48003,note_on,30,0,7,,,,,,,,,11,,,,70,100
48060,note_on,0,0,6,,,,,,,,,10,,,,77,100
48060,note_on,60,0,6,,,,,,,,,10,,,,74,0
48063,note_on,0,0,7,,,,,,,,,11,,,,74,100
48063,note_on,60,0,7,,,,,,,,,11,,,,70,0
48110,note_on,50,0,6,,,,,,,,,10,,,,77,0
48113,note_on,50,0,7,,,,,,,,,11,,,,74,0
48120,note_on,10,0,6,,,,,,,,,10,,,,75,100
48120,set_tempo,120,1,0,,,,,,382166,,,,,,,,
48123,note_on,10,0,7,,,,,,,,,11,,,,72,100
48150,note_on,30,0,6,,,,,,,,,10,,,,75,0
48153,note_on,30,0,7,,,,,,,,,11,,,,72,0
48180,note_on,30,0,6,,,,,,,,,10,,,,72,100
48183,note_on,30,0,7,,,,,,,,,11,,,,69,100
48210,note_on,30,0,6,,,,,,,,,10,,,,72,0
48213,note_on,30,0,7,,,,,,,,,11,,,,69,0
48240,set_tempo,120,1,0,,,,,,363636,,,,,,,,
48240,note_on,30,0,6,,,,,,,,,10,,,,74,100
48243,note_on,30,0,7,,,,,,,,,11,,,,70,100
48300,note_on,60,0,6,,,,,,,,,10,,,,74,0
48300,note_on,0,0,6,,,,,,,,,10,,,,77,100
48303,note_on,60,0,7,,,,,,,,,11,,,,70,0
48303,note_on,0,0,7,,,,,,,,,11,,,,74,100
48350,note_on,50,0,6,,,,,,,,,10,,,,77,0
48353,note_on,50,0,7,,,,,,,,,11,,,,74,0
48360,note_on,10,0,6,,,,,,,,,10,,,,75,100
48360,set_tempo,120,1,0,,,,,,382166,,,,,,,,
48363,note_on,10,0,7,,,,,,,,,11,,,,72,100
48390,note_on,30,0,6,,,,,,,,,10,,,,75,0
48393,note_on,30,0,7,,,,,,,,,11,,,,72,0
48420,note_on,30,0,6,,,,,,,,,10,,,,72,100
48423,note_on,30,0,7,,,,,,,,,11,,,,69,100
48450,note_on,30,0,6,,,,,,,,,10,,,,72,0
48453,note_on,30,0,7,,,,,,,,,11,,,,69,0
48480,note_on,0,0,6,,,,,,,,,10,,,,70,100
48480,control_change,30,0,6,,,,,,,,,10,11,37,,,
48480,set_tempo,120,1,0,,,,,,375000,,,,,,,,
48483,control_change,30,0,7,,,,,,,,,11,11,37,,,
48483,note_on,0,0,7,,,,,,,,,11,,,,67,100
48504,control_change,24,0,6,,,,,,,,,10,11,38,,,
48507,control_change,24,0,7,,,,,,,,,11,11,38,,,
48528,control_change,24,0,6,,,,,,,,,10,11,39,,,
48531,control_change,24,0,7,,,,,,,,,11,11,39,,,
48540,note_on,0,0,6,,,,,,,,,10,,,,74,100
48540,note_on,12,0,6,,,,,,,,,10,,,,70,0
48543,note_on,0,0,7,,,,,,,,,11,,,,70,100
48543,note_on,12,0,7,,,,,,,,,11,,,,67,0
48552,control_change,12,0,6,,,,,,,,,10,11,40,,,
48555,control_change,12,0,7,,,,,,,,,11,11,40,,,
48576,control_change,24,0,6,,,,,,,,,10,11,41,,,
48579,control_change,24,0,7,,,,,,,,,11,11,41,,,
48590,note_on,14,0,6,,,,,,,,,10,,,,74,0
48593,note_on,14,0,7,,,,,,,,,11,,,,70,0
48600,control_change,10,0,6,,,,,,,,,10,11,42,,,
48600,note_on,0,0,6,,,,,,,,,10,,,,72,100
48600,set_tempo,120,1,0,,,,,,382166,,,,,,,,
48603,note_on,0,0,7,,,,,,,,,11,,,,69,100
48603,control_change,10,0,7,,,,,,,,,11,11,42,,,
48624,control_change,24,0,6,,,,,,,,,10,11,43,,,
48627,control_change,24,0,7,,,,,,,,,11,11,43,,,
48630,note_on,6,0,6,,,,,,,,,10,,,,72,0
48633,note_on,6,0,7,,,,,,,,,11,,,,69,0
48648,control_change,18,0,6,,,,,,,,,10,11,44,,,
48651,control_change,18,0,7,,,,,,,,,11,11,44,,,
48660,note_on,12,0,6,,,,,,,,,10,,,,69,100
48663,note_on,12,0,7,,,,,,,,,11,,,,65,100
48672,control_change,12,0,6,,,,,,,,,10,11,45,,,
48675,control_change,12,0,7,,,,,,,,,11,11,45,,,
48690,note_on,18,0,6,,,,,,,,,10,,,,69,0
48693,note_on,18,0,7,,,,,,,,,11,,,,65,0
48696,control_change,6,0,6,,,,,,,,,10,11,46,,,
48699,control_change,6,0,7,,,,,,,,,11,11,46,,,
48720,set_tempo,120,1,0,,,,,,363636,,,,,,,,
48720,control_change,24,0,6,,,,,,,,,10,11,47,,,
48720,note_on,0,0,6,,,,,,,,,10,,,,67,100
48723,control_change,1080,0,1,,,,,,,,,0,11,32,,,
48723,note_on,0,0,7,,,,,,,,,11,,,,64,100
48723,control_change,24,0,7,,,,,,,,,11,11,47,,,
48723,note_on,0,0,1,,,,,,,,,0,,,,82,121
48725,note_on,0,0,2,,,,,,,,,1,,,,70,120
48725,control_change,1080,0,2,,,,,,,,,1,11,32,,,
48726,control_change,1080,0,8,,,,,,,,,12,11,27,,,
48726,note_on,0,0,8,,,,,,,,,12,,,,60,98
48731,control_change,1080,0,9,,,,,,,,,13,11,27,,,
48731,note_on,0,0,9,,,,,,,,,13,,,,48,89
48732,note_on,0,0,3,,,,,,,,,3,,,,60,81
48732,note_on,0,0,3,,,,,,,,,3,,,,48,81
48732,control_change,1080,0,3,,,,,,,,,3,11,27,,,
48733,note_on,0,0,10,,,,,,,,,14,,,,36,73
48733,control_change,1080,0,10,,,,,,,,,14,11,27,,,
48744,control_change,24,0,6,,,,,,,,,10,11,46,,,
48746,control_change,23,0,1,,,,,,,,,0,11,33,,,
48747,control_change,24,0,7,,,,,,,,,11,11,46,,,
48748,control_change,23,0,2,,,,,,,,,1,11,33,,,
48749,control_change,23,0,8,,,,,,,,,12,11,28,,,
48754,control_change,23,0,9,,,,,,,,,13,11,28,,,
48755,control_change,23,0,3,,,,,,,,,3,11,28,,,
48756,control_change,23,0,10,,,,,,,,,14,11,28,,,
48768,control_change,24,0,6,,,,,,,,,10,11,45,,,
48770,control_change,24,0,1,,,,,,,,,0,11,34,,,
48771,control_change,24,0,7,,,,,,,,,11,11,45,,,
48772,control_change,24,0,2,,,,,,,,,1,11,34,,,
48773,control_change,24,0,8,,,,,,,,,12,11,29,,,
48778,control_change,24,0,9,,,,,,,,,13,11,29,,,
48779,control_change,24,0,3,,,,,,,,,3,11,29,,,
48780,control_change,24,0,10,,,,,,,,,14,11,29,,,
48783,note_on,13,0,1,,,,,,,,,0,,,,82,0
48783,note_on,0,0,1,,,,,,,,,0,,,,86,121
48785,note_on,0,0,2,,,,,,,,,1,,,,74,120
48785,note_on,13,0,2,,,,,,,,,1,,,,70,0
48792,control_change,24,0,6,,,,,,,,,10,11,44,,,
48794,control_change,11,0,1,,,,,,,,,0,11,35,,,
48795,control_change,24,0,7,,,,,,,,,11,11,44,,,
48796,control_change,11,0,2,,,,,,,,,1,11,35,,,
48797,control_change,24,0,8,,,,,,,,,12,11,30,,,
48802,control_change,24,0,9,,,,,,,,,13,11,30,,,
48803,control_change,24,0,3,,,,,,,,,3,11,30,,,
48804,control_change,24,0,10,,,,,,,,,14,11,30,,,
48816,control_change,24,0,6,,,,,,,,,10,11,43,,,
48818,control_change,24,0,1,,,,,,,,,0,11,36,,,
48819,control_change,24,0,7,,,,,,,,,11,11,43,,,
48820,control_change,24,0,2,,,,,,,,,1,11,36,,,
48821,control_change,24,0,8,,,,,,,,,12,11,31,,,
48826,control_change,24,0,9,,,,,,,,,13,11,31,,,
48827,control_change,24,0,3,,,,,,,,,3,11,31,,,
48828,control_change,24,0,10,,,,,,,,,14,11,31,,,
48840,control_change,24,0,6,,,,,,,,,10,11,42,,,
48840,set_tempo,120,1,0,,,,,,382166,,,,,,,,
48842,control_change,24,0,1,,,,,,,,,0,11,37,,,
48843,note_on,1,0,1,,,,,,,,,0,,,,86,0
48843,note_on,0,0,1,,,,,,,,,0,,,,82,121
48843,control_change,24,0,7,,,,,,,,,11,11,42,,,
48844,control_change,24,0,2,,,,,,,,,1,11,37,,,
48845,control_change,24,0,8,,,,,,,,,12,11,32,,,
48845,note_on,0,0,2,,,,,,,,,1,,,,70,120
48845,note_on,1,0,2,,,,,,,,,1,,,,74,0
48850,control_change,24,0,9,,,,,,,,,13,11,32,,,
48851,control_change,24,0,3,,,,,,,,,3,11,32,,,
48852,control_change,24,0,10,,,,,,,,,14,11,32,,,
48864,control_change,24,0,6,,,,,,,,,10,11,41,,,
48866,control_change,23,0,1,,,,,,,,,0,11,38,,,
48867,control_change,24,0,7,,,,,,,,,11,11,41,,,
48868,control_change,23,0,2,,,,,,,,,1,11,38,,,
48869,control_change,24,0,8,,,,,,,,,12,11,33,,,
48874,control_change,24,0,9,,,,,,,,,13,11,33,,,
48875,control_change,24,0,3,,,,,,,,,3,11,33,,,
48876,control_change,24,0,10,,,,,,,,,14,11,33,,,
48888,control_change,24,0,6,,,,,,,,,10,11,40,,,
48890,control_change,24,0,1,,,,,,,,,0,11,39,,,
48891,control_change,24,0,7,,,,,,,,,11,11,40,,,
48892,control_change,24,0,2,,,,,,,,,1,11,39,,,
48893,control_change,24,0,8,,,,,,,,,12,11,34,,,
48898,control_change,24,0,9,,,,,,,,,13,11,34,,,
48899,control_change,24,0,3,,,,,,,,,3,11,34,,,
48900,note_on,0,0,6,,,,,,,,,10,,,,69,100
48900,control_change,24,0,10,,,,,,,,,14,11,34,,,
48900,note_on,12,0,6,,,,,,,,,10,,,,67,0
48903,note_on,12,0,7,,,,,,,,,11,,,,64,0
48903,note_on,0,0,7,,,,,,,,,11,,,,65,100
48903,note_on,13,0,1,,,,,,,,,0,,,,82,0
48903,note_on,0,0,1,,,,,,,,,0,,,,81,121
48905,note_on,0,0,2,,,,,,,,,1,,,,69,120
48905,note_on,13,0,2,,,,,,,,,1,,,,70,0
48912,control_change,12,0,6,,,,,,,,,10,11,39,,,
48914,control_change,11,0,1,,,,,,,,,0,11,40,,,
48915,control_change,12,0,7,,,,,,,,,11,11,39,,,
48916,control_change,11,0,2,,,,,,,,,1,11,40,,,
48917,control_change,24,0,8,,,,,,,,,12,11,35,,,
48922,control_change,24,0,9,,,,,,,,,13,11,35,,,
48923,control_change,24,0,3,,,,,,,,,3,11,35,,,
48924,control_change,24,0,10,,,,,,,,,14,11,35,,,
48936,control_change,24,0,6,,,,,,,,,10,11,38,,,
48938,control_change,24,0,1,,,,,,,,,0,11,41,,,
48939,control_change,24,0,7,,,,,,,,,11,11,38,,,
48940,control_change,24,0,2,,,,,,,,,1,11,41,,,
48941,control_change,24,0,8,,,,,,,,,12,11,36,,,
48946,control_change,24,0,9,,,,,,,,,13,11,36,,,
48947,control_change,24,0,3,,,,,,,,,3,11,36,,,
48948,control_change,24,0,10,,,,,,,,,14,11,36,,,
48950,note_on,14,0,6,,,,,,,,,10,,,,69,0
48953,note_on,15,0,1,,,,,,,,,0,,,,81,0
48953,note_on,14,0,7,,,,,,,,,11,,,,65,0
48955,note_on,15,0,2,,,,,,,,,1,,,,69,0
48956,note_on,15,0,8,,,,,,,,,12,,,,60,0
48960,set_tempo,120,1,0,,,,,,360360,,,,,,,,
48960,note_on,0,0,6,,,,,,,,,10,,,,70,100
48960,control_change,10,0,6,,,,,,,,,10,11,37,,,
48962,control_change,9,0,1,,,,,,,,,0,11,42,,,
48962,note_on,15,0,3,,,,,,,,,3,,,,60,0
48963,note_on,1,0,1,,,,,,,,,0,,,,79,121
48963,control_change,10,0,7,,,,,,,,,11,11,37,,,
48963,note_on,0,0,7,,,,,,,,,11,,,,67,100
48964,control_change,9,0,2,,,,,,,,,1,11,42,,,
48965,note_on,1,0,2,,,,,,,,,1,,,,67,120
48965,control_change,9,0,8,,,,,,,,,12,11,37,,,
48966,note_on,1,0,8,,,,,,,,,12,,,,64,98
48970,control_change,24,0,9,,,,,,,,,13,11,37,,,
48971,control_change,9,0,3,,,,,,,,,3,11,37,,,
48972,note_on,1,0,3,,,,,,,,,3,,,,64,81
48972,control_change,24,0,10,,,,,,,,,14,11,37,,,
49020,note_on,60,0,6,,,,,,,,,10,,,,70,0
49020,note_on,0,0,6,,,,,,,,,10,,,,74,100
49023,note_on,60,0,7,,,,,,,,,11,,,,67,0
49023,note_on,0,0,7,,,,,,,,,11,,,,70,100
49080,set_tempo,120,1,0,,,,,,382166,,,,,,,,
49080,note_on,0,0,6,,,,,,,,,10,,,,72,100
49080,note_on,60,0,6,,,,,,,,,10,,,,74,0
49083,note_on,60,0,7,,,,,,,,,11,,,,70,0
49083,note_on,0,0,7,,,,,,,,,11,,,,69,100
49140,note_on,60,0,6,,,,,,,,,10,,,,72,0
49140,note_on,0,0,6,,,,,,,,,10,,,,69,100
49143,note_on,0,0,7,,,,,,,,,11,,,,65,100
49143,note_on,0,0,1,,,,,,,,,0,,,,81,121
49143,note_on,60,0,7,,,,,,,,,11,,,,69,0
49143,note_on,180,0,1,,,,,,,,,0,,,,79,0
49145,note_on,0,0,2,,,,,,,,,1,,,,69,120
49145,note_on,180,0,2,,,,,,,,,1,,,,67,0
49146,note_on,0,0,8,,,,,,,,,12,,,,65,98
49146,note_on,180,0,8,,,,,,,,,12,,,,64,0
49152,note_on,180,0,3,,,,,,,,,3,,,,64,0
49152,note_on,0,0,3,,,,,,,,,3,,,,65,81
49190,note_on,50,0,6,,,,,,,,,10,,,,69,0
49193,note_on,50,0,1,,,,,,,,,0,,,,81,0
49193,note_on,50,0,7,,,,,,,,,11,,,,65,0
49195,note_on,50,0,2,,,,,,,,,1,,,,69,0
49196,note_on,50,0,8,,,,,,,,,12,,,,65,0
49200,set_tempo,120,1,0,,,,,,360360,,,,,,,,
49200,note_on,10,0,6,,,,,,,,,10,,,,67,100
49202,note_on,50,0,3,,,,,,,,,3,,,,65,0
49203,note_on,10,0,1,,,,,,,,,0,,,,82,121
49203,note_on,10,0,7,,,,,,,,,11,,,,64,100
49205,note_on,10,0,2,,,,,,,,,1,,,,70,120
49206,note_on,10,0,8,,,,,,,,,12,,,,60,98
49212,note_on,10,0,3,,,,,,,,,3,,,,60,81
49263,note_on,60,0,1,,,,,,,,,0,,,,82,0
49263,note_on,0,0,1,,,,,,,,,0,,,,86,121
49265,note_on,0,0,2,,,,,,,,,1,,,,74,120
49265,note_on,60,0,2,,,,,,,,,1,,,,70,0
49320,set_tempo,120,1,0,,,,,,382166,,,,,,,,
49323,note_on,0,0,1,,,,,,,,,0,,,,82,121
49323,note_on,60,0,1,,,,,,,,,0,,,,86,0
49325,note_on,60,0,2,,,,,,,,,1,,,,74,0
49325,note_on,0,0,2,,,,,,,,,1,,,,70,120
49380,note_on,180,0,6,,,,,,,,,10,,,,67,0
49380,note_on,0,0,6,,,,,,,,,10,,,,69,100
49383,note_on,0,0,1,,,,,,,,,0,,,,81,121
49383,note_on,0,0,7,,,,,,,,,11,,,,65,100
49383,note_on,180,0,7,,,,,,,,,11,,,,64,0
49383,note_on,60,0,1,,,,,,,,,0,,,,82,0
49385,note_on,0,0,2,,,,,,,,,1,,,,69,120
49385,note_on,60,0,2,,,,,,,,,1,,,,70,0
49430,note_on,50,0,6,,,,,,,,,10,,,,69,0
49433,note_on,50,0,1,,,,,,,,,0,,,,81,0
49433,note_on,50,0,7,,,,,,,,,11,,,,65,0
49435,note_on,50,0,2,,,,,,,,,1,,,,69,0
49436,note_on,230,0,8,,,,,,,,,12,,,,60,0
49440,note_on,10,0,6,,,,,,,,,10,,,,70,100
49440,set_tempo,120,1,0,,,,,,358209,,,,,,,,
49443,note_on,10,0,1,,,,,,,,,0,,,,79,121
49443,note_on,10,0,7,,,,,,,,,11,,,,67,100
49445,note_on,10,0,2,,,,,,,,,1,,,,67,120
49446,note_on,10,0,8,,,,,,,,,12,,,,64,98
49452,note_on,0,0,3,,,,,,,,,3,,,,64,81
49452,note_on,240,0,3,,,,,,,,,3,,,,60,0
49500,note_on,0,0,6,,,,,,,,,10,,,,74,100
49500,note_on,60,0,6,,,,,,,,,10,,,,70,0
49503,note_on,60,0,7,,,,,,,,,11,,,,67,0
49503,note_on,0,0,7,,,,,,,,,11,,,,70,100
49560,note_on,60,0,6,,,,,,,,,10,,,,74,0
49560,note_on,0,0,6,,,,,,,,,10,,,,72,100
49560,set_tempo,120,1,0,,,,,,382166,,,,,,,,
49563,note_on,0,0,7,,,,,,,,,11,,,,69,100
49563,note_on,60,0,7,,,,,,,,,11,,,,70,0
49620,note_on,0,0,6,,,,,,,,,10,,,,69,100
49620,note_on,60,0,6,,,,,,,,,10,,,,72,0
49623,note_on,0,0,7,,,,,,,,,11,,,,65,100
49623,note_on,180,0,1,,,,,,,,,0,,,,79,0
49623,note_on,0,0,1,,,,,,,,,0,,,,81,121
49623,note_on,60,0,7,,,,,,,,,11,,,,69,0
49625,note_on,180,0,2,,,,,,,,,1,,,,67,0
49625,note_on,0,0,2,,,,,,,,,1,,,,69,120
49626,note_on,0,0,8,,,,,,,,,12,,,,65,98
49626,note_on,180,0,8,,,,,,,,,12,,,,64,0
49632,note_on,0,0,3,,,,,,,,,3,,,,65,81
49632,note_on,180,0,3,,,,,,,,,3,,,,64,0
49670,note_on,50,0,6,,,,,,,,,10,,,,69,0
49673,note_on,50,0,7,,,,,,,,,11,,,,65,0
49673,note_on,50,0,1,,,,,,,,,0,,,,81,0
49675,note_on,50,0,2,,,,,,,,,1,,,,69,0
49676,note_on,50,0,8,,,,,,,,,12,,,,65,0
49680,note_on,10,0,6,,,,,,,,,10,,,,67,100
49680,set_tempo,120,1,0,,,,,,355030,,,,,,,,
49682,note_on,50,0,3,,,,,,,,,3,,,,65,0
49683,note_on,10,0,7,,,,,,,,,11,,,,64,100
49683,note_on,10,0,1,,,,,,,,,0,,,,82,121
49685,note_on,10,0,2,,,,,,,,,1,,,,70,120
49686,note_on,10,0,8,,,,,,,,,12,,,,60,98
49692,note_on,10,0,3,,,,,,,,,3,,,,67,81
49710,note_on,30,0,6,,,,,,,,,10,,,,67,0
49740,note_on,30,0,6,,,,,,,,,10,,,,69,100
49743,note_on,0,0,1,,,,,,,,,0,,,,81,121
49743,note_on,60,0,1,,,,,,,,,0,,,,82,0
49745,note_on,60,0,2,,,,,,,,,1,,,,70,0
49745,note_on,0,0,2,,,,,,,,,1,,,,69,120
49770,note_on,30,0,6,,,,,,,,,10,,,,69,0
49793,note_on,50,0,1,,,,,,,,,0,,,,81,0
49795,note_on,50,0,2,,,,,,,,,1,,,,69,0
49800,set_tempo,120,1,0,,,,,,382166,,,,,,,,
49800,note_on,30,0,6,,,,,,,,,10,,,,70,100
49803,note_on,10,0,1,,,,,,,,,0,,,,82,121
49805,note_on,10,0,2,,,,,,,,,1,,,,70,120
49830,note_on,30,0,6,,,,,,,,,10,,,,70,0
49839,note_on,36,0,1,,,,,,,,,0,,,,82,0
49841,note_on,36,0,2,,,,,,,,,1,,,,70,0
49860,note_on,30,0,6,,,,,,,,,10,,,,72,100
49863,note_on,24,0,1,,,,,,,,,0,,,,84,121
49865,note_on,24,0,2,,,,,,,,,1,,,,72,120
49890,note_on,30,0,6,,,,,,,,,10,,,,72,0
49899,note_on,36,0,1,,,,,,,,,0,,,,84,0
49901,note_on,36,0,2,,,,,,,,,1,,,,72,0
49918,note_on,235,0,7,,,,,,,,,11,,,,64,0
49920,control_change,30,0,6,,,,,,,,,10,11,37,,,
49920,note_on,0,0,6,,,,,,,,,10,,,,69,100
49920,set_tempo,120,1,0,,,,,,368098,,,,,,,,
49921,note_on,951,0,9,,,,,,,,,13,,,,48,0
49922,note_on,230,0,3,,,,,,,,,3,,,,48,0
49923,note_on,0,0,7,,,,,,,,,11,,,,65,100
49923,note_on,951,0,10,,,,,,,,,14,,,,36,0
49923,control_change,5,0,7,,,,,,,,,11,11,37,,,
49923,note_on,0,0,1,,,,,,,,,0,,,,81,105
49923,control_change,24,0,1,,,,,,,,,0,11,42,,,
49925,control_change,24,0,2,,,,,,,,,1,11,42,,,
49925,note_on,0,0,2,,,,,,,,,1,,,,65,104
49925,note_on,0,0,2,,,,,,,,,1,,,,69,104
49931,note_on,10,0,9,,,,,,,,,13,,,,53,89
49932,note_on,0,0,3,,,,,,,,,3,,,,65,81
49932,note_on,0,0,3,,,,,,,,,3,,,,53,81
49932,note_on,10,0,3,,,,,,,,,3,,,,67,0
49933,note_on,10,0,10,,,,,,,,,14,,,,41,73
49938,control_change,18,0,6,,,,,,,,,10,11,40,,,
49941,control_change,18,0,1,,,,,,,,,0,11,45,,,
49941,control_change,18,0,7,,,,,,,,,11,11,40,,,
49943,control_change,18,0,2,,,,,,,,,1,11,45,,,
49950,note_on,12,0,6,,,,,,,,,10,,,,69,0
49956,control_change,6,0,6,,,,,,,,,10,11,43,,,
49959,note_on,18,0,1,,,,,,,,,0,,,,81,0
49959,control_change,18,0,7,,,,,,,,,11,11,43,,,
49959,control_change,0,0,1,,,,,,,,,0,11,48,,,
49961,control_change,0,0,2,,,,,,,,,1,11,48,,,
49961,note_on,18,0,2,,,,,,,,,1,,,,69,0
49961,note_on,0,0,2,,,,,,,,,1,,,,65,0
49973,note_on,14,0,7,,,,,,,,,11,,,,65,0
49974,control_change,18,0,6,,,,,,,,,10,11,46,,,
49977,control_change,18,0,1,,,,,,,,,0,11,51,,,
49977,control_change,4,0,7,,,,,,,,,11,11,46,,,
49979,control_change,18,0,2,,,,,,,,,1,11,51,,,
49980,note_on,6,0,6,,,,,,,,,10,,,,70,100
49983,note_on,6,0,1,,,,,,,,,0,,,,82,105
49983,note_on,6,0,7,,,,,,,,,11,,,,67,100
49985,note_on,0,0,2,,,,,,,,,1,,,,67,104
49985,note_on,6,0,2,,,,,,,,,1,,,,70,104
49992,control_change,12,0,6,,,,,,,,,10,11,49,,,
49995,control_change,12,0,1,,,,,,,,,0,11,54,,,
49995,control_change,12,0,7,,,,,,,,,11,11,49,,,
49997,control_change,12,0,2,,,,,,,,,1,11,54,,,
50010,note_on,18,0,6,,,,,,,,,10,,,,70,0
50010,control_change,0,0,6,,,,,,,,,10,11,52,,,
50013,control_change,18,0,1,,,,,,,,,0,11,57,,,
50013,note_on,18,0,7,,,,,,,,,11,,,,67,0
50013,control_change,0,0,7,,,,,,,,,11,11,52,,,
50015,control_change,18,0,2,,,,,,,,,1,11,57,,,
50019,note_on,6,0,1,,,,,,,,,0,,,,82,0
50021,note_on,6,0,2,,,,,,,,,1,,,,67,0
50021,note_on,0,0,2,,,,,,,,,1,,,,70,0
50028,control_change,18,0,6,,,,,,,,,10,11,55,,,
50031,control_change,12,0,1,,,,,,,,,0,11,60,,,
50031,control_change,18,0,7,,,,,,,,,11,11,55,,,
50033,control_change,12,0,2,,,,,,,,,1,11,60,,,
50036,note_on,350,0,8,,,,,,,,,12,,,,60,0
50040,set_tempo,120,1,0,,,,,,382166,,,,,,,,
50040,note_on,12,0,6,,,,,,,,,10,,,,72,100
50043,note_on,12,0,7,,,,,,,,,11,,,,69,100
50043,note_on,12,0,1,,,,,,,,,0,,,,84,105
50045,note_on,0,0,2,,,,,,,,,1,,,,69,104
50045,note_on,12,0,2,,,,,,,,,1,,,,72,104
50046,control_change,6,0,6,,,,,,,,,10,11,58,,,
50049,control_change,6,0,7,,,,,,,,,11,11,58,,,
50049,control_change,6,0,1,,,,,,,,,0,11,62,,,
50051,control_change,6,0,2,,,,,,,,,1,11,62,,,
50051,note_on,120,0,9,,,,,,,,,13,,,,53,0
50052,note_on,120,0,3,,,,,,,,,3,,,,65,0
50052,note_on,0,0,3,,,,,,,,,3,,,,53,0
50053,note_on,120,0,10,,,,,,,,,14,,,,41,0
50064,control_change,18,0,6,,,,,,,,,10,11,61,,,
50067,control_change,18,0,1,,,,,,,,,0,11,64,,,
50067,control_change,18,0,7,,,,,,,,,11,11,61,,,
50069,control_change,18,0,2,,,,,,,,,1,11,64,,,
50070,note_on,6,0,6,,,,,,,,,10,,,,72,0
50073,note_on,6,0,7,,,,,,,,,11,,,,69,0
50079,note_on,12,0,1,,,,,,,,,0,,,,84,0
50081,note_on,12,0,2,,,,,,,,,1,,,,69,0
50081,note_on,0,0,2,,,,,,,,,1,,,,72,0
50082,control_change,12,0,6,,,,,,,,,10,11,63,,,
50085,control_change,6,0,1,,,,,,,,,0,11,66,,,
50085,control_change,12,0,7,,,,,,,,,11,11,63,,,
50087,control_change,6,0,2,,,,,,,,,1,11,66,,,
50100,note_on,0,0,6,,,,,,,,,10,,,,74,100
50100,control_change,18,0,6,,,,,,,,,10,11,65,,,
50103,note_on,0,0,7,,,,,,,,,11,,,,70,100
50103,control_change,18,0,7,,,,,,,,,11,11,65,,,
50103,note_on,0,0,1,,,,,,,,,0,,,,86,105
50103,control_change,18,0,1,,,,,,,,,0,11,68,,,
50105,note_on,0,0,2,,,,,,,,,1,,,,74,104
50105,control_change,18,0,2,,,,,,,,,1,11,68,,,
50105,note_on,0,0,2,,,,,,,,,1,,,,70,104
50118,control_change,18,0,6,,,,,,,,,10,11,67,,,
50121,control_change,18,0,1,,,,,,,,,0,11,71,,,
50121,control_change,18,0,7,,,,,,,,,11,11,67,,,
50123,control_change,18,0,2,,,,,,,,,1,11,71,,,
50130,note_on,12,0,6,,,,,,,,,10,,,,74,0
50133,note_on,12,0,7,,,,,,,,,11,,,,70,0
50136,control_change,6,0,6,,,,,,,,,10,11,69,,,
50139,control_change,6,0,7,,,,,,,,,11,11,69,,,
50139,note_on,18,0,1,,,,,,,,,0,,,,86,0
50139,control_change,0,0,1,,,,,,,,,0,11,73,,,
50141,control_change,0,0,2,,,,,,,,,1,11,73,,,
50141,note_on,0,0,2,,,,,,,,,1,,,,74,0
50141,note_on,18,0,2,,,,,,,,,1,,,,70,0
50154,control_change,18,0,6,,,,,,,,,10,11,71,,,
50157,control_change,18,0,1,,,,,,,,,0,11,75,,,
50157,control_change,18,0,7,,,,,,,,,11,11,71,,,
50159,control_change,18,0,2,,,,,,,,,1,11,75,,,
50160,note_on,6,0,6,,,,,,,,,10,,,,75,100
50160,set_tempo,120,1,0,,,,,,363636,,,,,,,,
50163,note_on,6,0,1,,,,,,,,,0,,,,87,82
50163,note_on,6,0,7,,,,,,,,,11,,,,72,100
50164,note_on,0,0,4,,,,,,,,,4,,,,53,86
50164,control_change,6600,0,4,,,,,,,,,4,11,72,,,
50165,note_on,0,0,2,,,,,,,,,1,,,,72,81
50165,note_on,6,0,2,,,,,,,,,1,,,,75,81
50166,control_change,130,0,8,,,,,,,,,12,11,72,,,
50166,note_on,0,0,8,,,,,,,,,12,,,,57,98
50166,control_change,6600,0,5,,,,,,,,,5,11,72,,,
50166,note_on,0,0,5,,,,,,,,,5,,,,41,86
50171,note_on,0,0,9,,,,,,,,,13,,,,53,89
50171,control_change,120,0,9,,,,,,,,,13,11,72,,,
50172,note_on,0,0,3,,,,,,,,,3,,,,57,81
50172,control_change,120,0,3,,,,,,,,,3,11,72,,,
50173,control_change,120,0,10,,,,,,,,,14,11,72,,,
50173,note_on,0,0,10,,,,,,,,,14,,,,41,73
50220,note_on,60,0,6,,,,,,,,,10,,,,75,0
50220,note_on,0,0,6,,,,,,,,,10,,,,79,100
50223,note_on,0,0,7,,,,,,,,,11,,,,75,100
50223,note_on,60,0,7,,,,,,,,,11,,,,72,0
50223,note_on,0,0,1,,,,,,,,,0,,,,91,82
50223,note_on,60,0,1,,,,,,,,,0,,,,87,0
50225,note_on,0,0,2,,,,,,,,,1,,,,75,0
50225,note_on,60,0,2,,,,,,,,,1,,,,72,0
50225,note_on,0,0,2,,,,,,,,,1,,,,75,81
50225,note_on,0,0,2,,,,,,,,,1,,,,79,81
50270,note_on,50,0,6,,,,,,,,,10,,,,79,0
50273,note_on,50,0,7,,,,,,,,,11,,,,75,0
50273,note_on,50,0,1,,,,,,,,,0,,,,91,0
50275,note_on,0,0,2,,,,,,,,,1,,,,75,0
50275,note_on,50,0,2,,,,,,,,,1,,,,79,0
50280,note_on,10,0,6,,,,,,,,,10,,,,75,100
50280,set_tempo,120,1,0,,,,,,382166,,,,,,,,
50283,note_on,10,0,7,,,,,,,,,11,,,,72,100
50283,note_on,10,0,1,,,,,,,,,0,,,,87,82
50285,note_on,0,0,2,,,,,,,,,1,,,,72,81
50285,note_on,10,0,2,,,,,,,,,1,,,,75,81
50310,note_on,30,0,6,,,,,,,,,10,,,,75,0
50313,note_on,30,0,7,,,,,,,,,11,,,,72,0
50319,note_on,36,0,1,,,,,,,,,0,,,,87,0
50321,note_on,0,0,2,,,,,,,,,1,,,,75,0
50321,note_on,36,0,2,,,,,,,,,1,,,,72,0
50340,note_on,30,0,6,,,,,,,,,10,,,,74,100
50343,note_on,24,0,1,,,,,,,,,0,,,,86,82
50343,note_on,30,0,7,,,,,,,,,11,,,,70,100
50345,note_on,0,0,2,,,,,,,,,1,,,,70,81
50345,note_on,24,0,2,,,,,,,,,1,,,,74,81
50346,note_on,180,0,8,,,,,,,,,12,,,,57,0
50346,note_on,0,0,8,,,,,,,,,12,,,,58,98
50352,note_on,180,0,3,,,,,,,,,3,,,,57,0
50352,note_on,0,0,3,,,,,,,,,3,,,,58,81
50370,note_on,30,0,6,,,,,,,,,10,,,,74,0
50373,note_on,30,0,7,,,,,,,,,11,,,,70,0
50379,note_on,36,0,1,,,,,,,,,0,,,,86,0
50381,note_on,36,0,2,,,,,,,,,1,,,,70,0
50381,note_on,0,0,2,,,,,,,,,1,,,,74,0
50396,note_on,50,0,8,,,,,,,,,12,,,,58,0
50400,note_on,30,0,6,,,,,,,,,10,,,,72,100
50400,set_tempo,120,1,0,,,,,,360360,,,,,,,,
50401,note_on,230,0,9,,,,,,,,,13,,,,53,0
50402,note_on,50,0,3,,,,,,,,,3,,,,58,0
50403,note_on,230,0,10,,,,,,,,,14,,,,41,0
50403,note_on,24,0,1,,,,,,,,,0,,,,84,82
50403,note_on,30,0,7,,,,,,,,,11,,,,69,100
50405,note_on,24,0,2,,,,,,,,,1,,,,72,81
50405,note_on,0,0,2,,,,,,,,,1,,,,69,81
50406,note_on,10,0,8,,,,,,,,,12,,,,65,98
50411,note_on,10,0,9,,,,,,,,,13,,,,53,89
50412,note_on,10,0,3,,,,,,,,,3,,,,65,81
50413,note_on,10,0,10,,,,,,,,,14,,,,41,73
50466,note_on,0,0,8,,,,,,,,,12,,,,64,98
50466,note_on,60,0,8,,,,,,,,,12,,,,65,0
50472,note_on,0,0,3,,,,,,,,,3,,,,64,81
50472,note_on,60,0,3,,,,,,,,,3,,,,65,0
50520,set_tempo,120,1,0,,,,,,382166,,,,,,,,
50526,note_on,0,0,8,,,,,,,,,12,,,,63,98
50526,note_on,60,0,8,,,,,,,,,12,,,,64,0
50532,note_on,60,0,3,,,,,,,,,3,,,,64,0
50532,note_on,0,0,3,,,,,,,,,3,,,,63,81
50580,note_on,180,0,6,,,,,,,,,10,,,,72,0
50580,note_on,0,0,6,,,,,,,,,10,,,,74,100
50583,note_on,180,0,7,,,,,,,,,11,,,,69,0
50583,note_on,0,0,7,,,,,,,,,11,,,,70,100
50583,note_on,0,0,1,,,,,,,,,0,,,,86,82
50583,note_on,180,0,1,,,,,,,,,0,,,,84,0
50585,note_on,0,0,2,,,,,,,,,1,,,,70,81
50585,note_on,0,0,2,,,,,,,,,1,,,,74,81
50585,note_on,0,0,2,,,,,,,,,1,,,,72,0
50585,note_on,180,0,2,,,,,,,,,1,,,,69,0
50586,note_on,0,0,8,,,,,,,,,12,,,,62,98
50586,note_on,60,0,8,,,,,,,,,12,,,,63,0
50592,note_on,0,0,3,,,,,,,,,3,,,,62,81
50592,note_on,60,0,3,,,,,,,,,3,,,,63,0
50630,note_on,50,0,6,,,,,,,,,10,,,,74,0
50633,note_on,50,0,7,,,,,,,,,11,,,,70,0
50633,note_on,50,0,1,,,,,,,,,0,,,,86,0
50635,note_on,0,0,2,,,,,,,,,1,,,,74,0
50635,note_on,50,0,2,,,,,,,,,1,,,,70,0
50636,note_on,50,0,8,,,,,,,,,12,,,,62,0
50640,note_on,10,0,6,,,,,,,,,10,,,,75,100
50640,set_tempo,120,1,0,,,,,,359281,,,,,,,,
50641,note_on,230,0,9,,,,,,,,,13,,,,53,0
50642,note_on,50,0,3,,,,,,,,,3,,,,62,0
50643,note_on,10,0,7,,,,,,,,,11,,,,72,100
50643,note_on,10,0,1,,,,,,,,,0,,,,87,82
50643,note_on,230,0,10,,,,,,,,,14,,,,41,0
50645,note_on,10,0,2,,,,,,,,,1,,,,72,81
50645,note_on,0,0,2,,,,,,,,,1,,,,75,81
50646,note_on,10,0,8,,,,,,,,,12,,,,57,98
50651,note_on,10,0,9,,,,,,,,,13,,,,53,89
50652,note_on,10,0,3,,,,,,,,,3,,,,57,81
50653,note_on,10,0,10,,,,,,,,,14,,,,41,73
50700,note_on,0,0,6,,,,,,,,,10,,,,79,100
50700,note_on,60,0,6,,,,,,,,,10,,,,75,0
50703,note_on,0,0,7,,,,,,,,,11,,,,75,100
50703,note_on,60,0,7,,,,,,,,,11,,,,72,0
50703,note_on,0,0,1,,,,,,,,,0,,,,91,82
50703,note_on,60,0,1,,,,,,,,,0,,,,87,0
50705,note_on,60,0,2,,,,,,,,,1,,,,75,0
50705,note_on,0,0,2,,,,,,,,,1,,,,75,81
50705,note_on,0,0,2,,,,,,,,,1,,,,79,81
50705,note_on,0,0,2,,,,,,,,,1,,,,72,0
50750,note_on,50,0,6,,,,,,,,,10,,,,79,0
50753,note_on,50,0,1,,,,,,,,,0,,,,91,0
50753,note_on,50,0,7,,,,,,,,,11,,,,75,0
50755,note_on,0,0,2,,,,,,,,,1,,,,75,0
50755,note_on,50,0,2,,,,,,,,,1,,,,79,0
50760,note_on,10,0,6,,,,,,,,,10,,,,75,100
50760,set_tempo,120,1,0,,,,,,382166,,,,,,,,
50763,note_on,10,0,1,,,,,,,,,0,,,,87,82
50763,note_on,10,0,7,,,,,,,,,11,,,,72,100
50765,note_on,10,0,2,,,,,,,,,1,,,,72,81
50765,note_on,0,0,2,,,,,,,,,1,,,,75,81
50790,note_on,30,0,6,,,,,,,,,10,,,,75,0
50793,note_on,30,0,7,,,,,,,,,11,,,,72,0
50799,note_on,36,0,1,,,,,,,,,0,,,,87,0
50801,note_on,0,0,2,,,,,,,,,1,,,,72,0
50801,note_on,36,0,2,,,,,,,,,1,,,,75,0
50820,note_on,30,0,6,,,,,,,,,10,,,,74,100
50823,note_on,24,0,1,,,,,,,,,0,,,,86,82
50823,note_on,30,0,7,,,,,,,,,11,,,,70,100
50825,note_on,24,0,2,,,,,,,,,1,,,,70,81
50825,note_on,0,0,2,,,,,,,,,1,,,,74,81
50826,note_on,0,0,8,,,,,,,,,12,,,,58,98
50826,note_on,180,0,8,,,,,,,,,12,,,,57,0
50832,note_on,0,0,3,,,,,,,,,3,,,,58,81
50832,note_on,180,0,3,,,,,,,,,3,,,,57,0
50850,note_on,30,0,6,,,,,,,,,10,,,,74,0
50853,note_on,30,0,7,,,,,,,,,11,,,,70,0
50859,note_on,36,0,1,,,,,,,,,0,,,,86,0
50861,note_on,0,0,2,,,,,,,,,1,,,,70,0
50861,note_on,36,0,2,,,,,,,,,1,,,,74,0
50876,note_on,50,0,8,,,,,,,,,12,,,,58,0
50880,note_on,30,0,6,,,,,,,,,10,,,,72,100
50880,set_tempo,120,1,0,,,,,,357143,,,,,,,,
50881,note_on,230,0,9,,,,,,,,,13,,,,53,0
50882,note_on,50,0,3,,,,,,,,,3,,,,58,0
50883,note_on,30,0,7,,,,,,,,,11,,,,69,100
50883,note_on,24,0,1,,,,,,,,,0,,,,84,82
50883,note_on,230,0,10,,,,,,,,,14,,,,41,0
50885,note_on,0,0,2,,,,,,,,,1,,,,72,81
50885,note_on,24,0,2,,,,,,,,,1,,,,69,81
50886,note_on,10,0,8,,,,,,,,,12,,,,65,98
50891,note_on,10,0,9,,,,,,,,,13,,,,53,89
50892,note_on,10,0,3,,,,,,,,,3,,,,65,81
50893,note_on,10,0,10,,,,,,,,,14,,,,41,73
50946,note_on,60,0,8,,,,,,,,,12,,,,65,0
50946,note_on,0,0,8,,,,,,,,,12,,,,64,98
50952,note_on,0,0,3,,,,,,,,,3,,,,64,81
50952,note_on,60,0,3,,,,,,,,,3,,,,65,0
51000,set_tempo,120,1,0,,,,,,382166,,,,,,,,
51006,note_on,60,0,8,,,,,,,,,12,,,,64,0
51006,note_on,0,0,8,,,,,,,,,12,,,,63,98
51012,note_on,60,0,3,,,,,,,,,3,,,,64,0
51012,note_on,0,0,3,,,,,,,,,3,,,,63,81
51060,note_on,180,0,6,,,,,,,,,10,,,,72,0
51060,note_on,0,0,6,,,,,,,,,10,,,,74,100
51063,note_on,0,0,1,,,,,,,,,0,,,,86,82
51063,note_on,180,0,1,,,,,,,,,0,,,,84,0
51063,note_on,0,0,7,,,,,,,,,11,,,,70,100
51063,note_on,180,0,7,,,,,,,,,11,,,,69,0
51065,note_on,0,0,2,,,,,,,,,1,,,,69,0
51065,note_on,180,0,2,,,,,,,,,1,,,,72,0
51065,note_on,0,0,2,,,,,,,,,1,,,,70,81
51065,note_on,0,0,2,,,,,,,,,1,,,,74,81
51066,note_on,0,0,8,,,,,,,,,12,,,,62,98
51066,note_on,60,0,8,,,,,,,,,12,,,,63,0
51072,note_on,0,0,3,,,,,,,,,3,,,,62,81
51072,note_on,60,0,3,,,,,,,,,3,,,,63,0
51110,note_on,50,0,6,,,,,,,,,10,,,,74,0
51113,note_on,50,0,7,,,,,,,,,11,,,,70,0
51113,note_on,50,0,1,,,,,,,,,0,,,,86,0
51115,note_on,50,0,2,,,,,,,,,1,,,,74,0
51115,note_on,0,0,2,,,,,,,,,1,,,,70,0
51116,note_on,50,0,8,,,,,,,,,12,,,,62,0
51120,set_tempo,120,1,0,,,,,,355030,,,,,,,,
51120,note_on,10,0,6,,,,,,,,,10,,,,75,100
51121,note_on,230,0,9,,,,,,,,,13,,,,53,0
51122,note_on,50,0,3,,,,,,,,,3,,,,62,0
51123,note_on,230,0,10,,,,,,,,,14,,,,41,0
51123,note_on,10,0,1,,,,,,,,,0,,,,87,82
51123,note_on,10,0,7,,,,,,,,,11,,,,72,100
51124,note_on,960,0,4,,,,,,,,,4,,,,53,0
51124,note_on,0,0,4,,,,,,,,,4,,,,53,86
51125,note_on,0,0,2,,,,,,,,,1,,,,72,81
51125,note_on,10,0,2,,,,,,,,,1,,,,75,81
51126,note_on,0,0,5,,,,,,,,,5,,,,41,86
51126,note_on,960,0,5,,,,,,,,,5,,,,41,0
51126,note_on,10,0,8,,,,,,,,,12,,,,53,98
51131,note_on,10,0,9,,,,,,,,,13,,,,53,89
51132,note_on,10,0,3,,,,,,,,,3,,,,53,81
51133,note_on,10,0,10,,,,,,,,,14,,,,41,73
51140,note_on,20,0,6,,,,,,,,,10,,,,75,0
51143,note_on,20,0,7,,,,,,,,,11,,,,72,0
51150,note_on,10,0,6,,,,,,,,,10,,,,75,92
51153,note_on,10,0,7,,,,,,,,,11,,,,72,92
51170,note_on,20,0,6,,,,,,,,,10,,,,75,0
51173,note_on,20,0,7,,,,,,,,,11,,,,72,0
51173,note_on,50,0,1,,,,,,,,,0,,,,87,0
51175,note_on,0,0,2,,,,,,,,,1,,,,75,0
51175,note_on,50,0,2,,,,,,,,,1,,,,72,0
51176,note_on,50,0,8,,,,,,,,,12,,,,53,0
51180,note_on,10,0,6,,,,,,,,,10,,,,74,100
51181,note_on,50,0,9,,,,,,,,,13,,,,53,0
51182,note_on,50,0,3,,,,,,,,,3,,,,53,0
51183,note_on,50,0,10,,,,,,,,,14,,,,41,0
51183,note_on,10,0,1,,,,,,,,,0,,,,86,82
51183,note_on,10,0,7,,,,,,,,,11,,,,71,100
51184,note_on,60,0,4,,,,,,,,,4,,,,53,0
51184,note_on,0,0,4,,,,,,,,,4,,,,53,86
51185,note_on,10,0,2,,,,,,,,,1,,,,74,81
51185,note_on,0,0,2,,,,,,,,,1,,,,71,81
51186,note_on,60,0,5,,,,,,,,,5,,,,41,0
51186,note_on,0,0,5,,,,,,,,,5,,,,41,86
51186,note_on,10,0,8,,,,,,,,,12,,,,65,98
51191,note_on,10,0,9,,,,,,,,,13,,,,53,89
51192,note_on,10,0,3,,,,,,,,,3,,,,53,81
51193,note_on,10,0,10,,,,,,,,,14,,,,41,73
51200,note_on,20,0,6,,,,,,,,,10,,,,74,0
51203,note_on,20,0,7,,,,,,,,,11,,,,71,0
51210,note_on,10,0,6,,,,,,,,,10,,,,74,92
51213,note_on,10,0,7,,,,,,,,,11,,,,71,92
51230,note_on,20,0,6,,,,,,,,,10,,,,74,0
51233,note_on,20,0,7,,,,,,,,,11,,,,71,0
51233,note_on,50,0,1,,,,,,,,,0,,,,86,0
51235,note_on,50,0,2,,,,,,,,,1,,,,71,0
51235,note_on,0,0,2,,,,,,,,,1,,,,74,0
51236,note_on,50,0,8,,,,,,,,,12,,,,65,0
51240,set_tempo,120,1,0,,,,,,382166,,,,,,,,
51240,note_on,10,0,6,,,,,,,,,10,,,,75,100
51241,note_on,50,0,9,,,,,,,,,13,,,,53,0
51242,note_on,50,0,3,,,,,,,,,3,,,,53,0
51243,note_on,10,0,7,,,,,,,,,11,,,,72,100
51243,note_on,10,0,1,,,,,,,,,0,,,,87,82
51243,note_on,50,0,10,,,,,,,,,14,,,,41,0
51244,note_on,0,0,4,,,,,,,,,4,,,,53,86
51244,note_on,60,0,4,,,,,,,,,4,,,,53,0
51245,note_on,10,0,2,,,,,,,,,1,,,,72,81
51245,note_on,0,0,2,,,,,,,,,1,,,,75,81
51246,note_on,10,0,8,,,,,,,,,12,,,,65,98
51246,note_on,0,0,5,,,,,,,,,5,,,,41,86
51246,note_on,60,0,5,,,,,,,,,5,,,,41,0
51251,note_on,10,0,9,,,,,,,,,13,,,,53,89
51252,note_on,10,0,3,,,,,,,,,3,,,,53,81
51253,note_on,10,0,10,,,,,,,,,14,,,,41,73
51260,note_on,20,0,6,,,,,,,,,10,,,,75,0
51263,note_on,20,0,7,,,,,,,,,11,,,,72,0
51270,note_on,10,0,6,,,,,,,,,10,,,,75,92
51273,note_on,10,0,7,,,,,,,,,11,,,,72,92
51290,note_on,20,0,6,,,,,,,,,10,,,,75,0
51293,note_on,50,0,1,,,,,,,,,0,,,,87,0
51293,note_on,20,0,7,,,,,,,,,11,,,,72,0
51295,note_on,0,0,2,,,,,,,,,1,,,,72,0
51295,note_on,50,0,2,,,,,,,,,1,,,,75,0
51296,note_on,50,0,8,,,,,,,,,12,,,,65,0
51300,note_on,10,0,6,,,,,,,,,10,,,,74,100
51301,note_on,50,0,9,,,,,,,,,13,,,,53,0
51302,note_on,50,0,3,,,,,,,,,3,,,,53,0
51303,note_on,50,0,10,,,,,,,,,14,,,,41,0
51303,note_on,10,0,1,,,,,,,,,0,,,,86,82
51303,note_on,10,0,7,,,,,,,,,11,,,,71,100
51304,note_on,60,0,4,,,,,,,,,4,,,,53,0
51304,note_on,0,0,4,,,,,,,,,4,,,,53,86
51305,note_on,0,0,2,,,,,,,,,1,,,,71,81
51305,note_on,10,0,2,,,,,,,,,1,,,,74,81
51306,note_on,60,0,5,,,,,,,,,5,,,,41,0
51306,note_on,0,0,5,,,,,,,,,5,,,,41,86
51306,note_on,10,0,8,,,,,,,,,12,,,,65,98
51311,note_on,10,0,9,,,,,,,,,13,,,,53,89
51312,note_on,10,0,3,,,,,,,,,3,,,,53,81
51313,note_on,10,0,10,,,,,,,,,14,,,,41,73
51320,note_on,20,0,6,,,,,,,,,10,,,,74,0
51323,note_on,20,0,7,,,,,,,,,11,,,,71,0
51330,note_on,10,0,6,,,,,,,,,10,,,,74,92
51333,note_on,10,0,7,,,,,,,,,11,,,,71,92
51350,note_on,20,0,6,,,,,,,,,10,,,,74,0
51353,note_on,20,0,7,,,,,,,,,11,,,,71,0
51353,note_on,50,0,1,,,,,,,,,0,,,,86,0
51355,note_on,50,0,2,,,,,,,,,1,,,,71,0
51355,note_on,0,0,2,,,,,,,,,1,,,,74,0
51356,note_on,50,0,8,,,,,,,,,12,,,,65,0
51360,note_on,10,0,6,,,,,,,,,10,,,,75,100
51360,set_tempo,120,1,0,,,,,,355030,,,,,,,,
51361,note_on,50,0,9,,,,,,,,,13,,,,53,0
51362,note_on,50,0,3,,,,,,,,,3,,,,53,0
51363,note_on,50,0,10,,,,,,,,,14,,,,41,0
51363,note_on,10,0,7,,,,,,,,,11,,,,72,100
51363,note_on,10,0,1,,,,,,,,,0,,,,87,82
51364,note_on,0,0,4,,,,,,,,,4,,,,53,86
51364,note_on,60,0,4,,,,,,,,,4,,,,53,0
51365,note_on,10,0,2,,,,,,,,,1,,,,72,81
51365,note_on,0,0,2,,,,,,,,,1,,,,75,81
51366,note_on,0,0,5,,,,,,,,,5,,,,41,86
51366,note_on,10,0,8,,,,,,,,,12,,,,65,98
51366,note_on,60,0,5,,,,,,,,,5,,,,41,0
51371,note_on,10,0,9,,,,,,,,,13,,,,53,89
51372,note_on,10,0,3,,,,,,,,,3,,,,53,81
51373,note_on,10,0,10,,,,,,,,,14,,,,41,73
51380,note_on,20,0,6,,,,,,,,,10,,,,75,0
51383,note_on,20,0,7,,,,,,,,,11,,,,72,0
51390,note_on,10,0,6,,,,,,,,,10,,,,75,92
51393,note_on,10,0,7,,,,,,,,,11,,,,72,92
51410,note_on,20,0,6,,,,,,,,,10,,,,75,0
51413,note_on,20,0,7,,,,,,,,,11,,,,72,0
51413,note_on,50,0,1,,,,,,,,,0,,,,87,0
51415,note_on,0,0,2,,,,,,,,,1,,,,72,0
51415,note_on,50,0,2,,,,,,,,,1,,,,75,0
51416,note_on,50,0,8,,,,,,,,,12,,,,65,0
51420,note_on,10,0,6,,,,,,,,,10,,,,74,100
51421,note_on,50,0,9,,,,,,,,,13,,,,53,0
51422,note_on,50,0,3,,,,,,,,,3,,,,53,0
51423,note_on,10,0,7,,,,,,,,,11,,,,71,100
51423,note_on,50,0,10,,,,,,,,,14,,,,41,0
51423,note_on,10,0,1,,,,,,,,,0,,,,86,82
51424,note_on,0,0,4,,,,,,,,,4,,,,53,86
51424,note_on,60,0,4,,,,,,,,,4,,,,53,0
51425,note_on,0,0,2,,,,,,,,,1,,,,71,81
51425,note_on,10,0,2,,,,,,,,,1,,,,74,81
51426,note_on,60,0,5,,,,,,,,,5,,,,41,0
51426,note_on,0,0,5,,,,,,,,,5,,,,41,86
51426,note_on,10,0,8,,,,,,,,,12,,,,65,98
51431,note_on,10,0,9,,,,,,,,,13,,,,53,89
51432,note_on,10,0,3,,,,,,,,,3,,,,53,81
51433,note_on,10,0,10,,,,,,,,,14,,,,41,73
51440,note_on,20,0,6,,,,,,,,,10,,,,74,0
51443,note_on,20,0,7,,,,,,,,,11,,,,71,0
51450,note_on,10,0,6,,,,,,,,,10,,,,74,92
51453,note_on,10,0,7,,,,,,,,,11,,,,71,92
51470,note_on,20,0,6,,,,,,,,,10,,,,74,0
51473,note_on,50,0,1,,,,,,,,,0,,,,86,0
51473,note_on,20,0,7,,,,,,,,,11,,,,71,0
51475,note_on,0,0,2,,,,,,,,,1,,,,74,0
51475,note_on,50,0,2,,,,,,,,,1,,,,71,0
51476,note_on,50,0,8,,,,,,,,,12,,,,65,0
51480,set_tempo,120,1,0,,,,,,382166,,,,,,,,
51480,note_on,10,0,6,,,,,,,,,10,,,,75,100
51481,note_on,50,0,9,,,,,,,,,13,,,,53,0
51482,note_on,50,0,3,,,,,,,,,3,,,,53,0
51483,note_on,10,0,7,,,,,,,,,11,,,,72,100
51483,note_on,50,0,10,,,,,,,,,14,,,,41,0
51483,note_on,10,0,1,,,,,,,,,0,,,,87,82
51484,note_on,0,0,4,,,,,,,,,4,,,,53,86
51484,note_on,60,0,4,,,,,,,,,4,,,,53,0
51485,note_on,0,0,2,,,,,,,,,1,,,,72,81
51485,note_on,10,0,2,,,,,,,,,1,,,,75,81
51486,note_on,0,0,5,,,,,,,,,5,,,,41,86
51486,note_on,10,0,8,,,,,,,,,12,,,,65,98
51486,note_on,60,0,5,,,,,,,,,5,,,,41,0
51491,note_on,10,0,9,,,,,,,,,13,,,,53,89
51492,note_on,10,0,3,,,,,,,,,3,,,,53,81
51493,note_on,10,0,10,,,,,,,,,14,,,,41,73
51500,note_on,20,0,6,,,,,,,,,10,,,,75,0
51503,note_on,20,0,7,,,,,,,,,11,,,,72,0
51510,note_on,10,0,6,,,,,,,,,10,,,,75,92
51513,note_on,10,0,7,,,,,,,,,11,,,,72,92
51530,note_on,20,0,6,,,,,,,,,10,,,,75,0
51533,note_on,20,0,7,,,,,,,,,11,,,,72,0
51533,note_on,50,0,1,,,,,,,,,0,,,,87,0
51535,note_on,0,0,2,,,,,,,,,1,,,,75,0
51535,note_on,50,0,2,,,,,,,,,1,,,,72,0
51536,note_on,50,0,8,,,,,,,,,12,,,,65,0
51540,note_on,10,0,6,,,,,,,,,10,,,,74,100
51541,note_on,50,0,9,,,,,,,,,13,,,,53,0
51542,note_on,50,0,3,,,,,,,,,3,,,,53,0
51543,note_on,10,0,1,,,,,,,,,0,,,,86,82
51543,note_on,10,0,7,,,,,,,,,11,,,,71,100
51543,note_on,50,0,10,,,,,,,,,14,,,,41,0
51544,note_on,0,0,4,,,,,,,,,4,,,,53,86
51544,note_on,60,0,4,,,,,,,,,4,,,,53,0
51545,note_on,10,0,2,,,,,,,,,1,,,,74,81
51545,note_on,0,0,2,,,,,,,,,1,,,,71,81
51546,note_on,10,0,8,,,,,,,,,12,,,,65,98
51546,note_on,60,0,5,,,,,,,,,5,,,,41,0
51546,note_on,0,0,5,,,,,,,,,5,,,,41,86
51551,note_on,10,0,9,,,,,,,,,13,,,,53,89
51552,note_on,10,0,3,,,,,,,,,3,,,,53,81
51553,note_on,10,0,10,,,,,,,,,14,,,,41,73
51560,note_on,20,0,6,,,,,,,,,10,,,,74,0
51563,note_on,20,0,7,,,,,,,,,11,,,,71,0
51570,note_on,10,0,6,,,,,,,,,10,,,,74,92
51573,note_on,10,0,7,,,,,,,,,11,,,,71,92
51590,note_on,20,0,6,,,,,,,,,10,,,,74,0
51593,note_on,50,0,1,,,,,,,,,0,,,,86,0
51593,note_on,20,0,7,,,,,,,,,11,,,,71,0
51595,note_on,50,0,2,,,,,,,,,1,,,,71,0
51595,note_on,0,0,2,,,,,,,,,1,,,,74,0
51596,note_on,50,0,8,,,,,,,,,12,,,,65,0
51600,set_tempo,120,1,0,,,,,,400000,,,,,,,,
51600,note_on,10,0,6,,,,,,,,,10,,,,75,100
51601,note_on,50,0,9,,,,,,,,,13,,,,53,0
51602,note_on,50,0,3,,,,,,,,,3,,,,53,0
51603,note_on,10,0,7,,,,,,,,,11,,,,72,100
51603,note_on,50,0,10,,,,,,,,,14,,,,41,0
51603,note_on,10,0,1,,,,,,,,,0,,,,87,82
51604,note_on,0,0,4,,,,,,,,,4,,,,53,86
51604,note_on,60,0,4,,,,,,,,,4,,,,53,0
51605,note_on,10,0,2,,,,,,,,,1,,,,72,81
51605,note_on,0,0,2,,,,,,,,,1,,,,75,81
51606,note_on,60,0,5,,,,,,,,,5,,,,41,0
51606,note_on,10,0,8,,,,,,,,,12,,,,65,98
51606,note_on,0,0,5,,,,,,,,,5,,,,41,86
51611,note_on,10,0,9,,,,,,,,,13,,,,53,89
51612,note_on,10,0,3,,,,,,,,,3,,,,53,81
51613,note_on,10,0,10,,,,,,,,,14,,,,41,73
51660,note_on,60,0,6,,,,,,,,,10,,,,75,0
51663,note_on,60,0,1,,,,,,,,,0,,,,87,0
51663,note_on,60,0,7,,,,,,,,,11,,,,72,0
51664,note_on,60,0,4,,,,,,,,,4,,,,53,0
51665,note_on,60,0,2,,,,,,,,,1,,,,75,0
51665,note_on,0,0,2,,,,,,,,,1,,,,72,0
51666,note_on,60,0,8,,,,,,,,,12,,,,65,0
51666,note_on,60,0,5,,,,,,,,,5,,,,41,0
51671,note_on,60,0,9,,,,,,,,,13,,,,53,0
51672,note_on,60,0,3,,,,,,,,,3,,,,53,0
51673,note_on,60,0,10,,,,,,,,,14,,,,41,0
51720,set_tempo,120,1,0,,,,,,461538,,,,,,,,
51720,note_on,60,0,6,,,,,,,,,10,,,,84,100
51720,note_on,0,0,6,,,,,,,,,10,,,,75,100
51723,note_on,0,0,7,,,,,,,,,11,,,,81,100
51723,note_on,60,0,1,,,,,,,,,0,,,,81,82
51723,note_on,60,0,7,,,,,,,,,11,,,,65,100
51723,note_on,0,0,7,,,,,,,,,11,,,,72,100
51724,note_on,60,0,4,,,,,,,,,4,,,,53,86
51725,note_on,0,0,2,,,,,,,,,1,,,,75,81
51725,note_on,60,0,2,,,,,,,,,1,,,,69,81
51726,note_on,60,0,5,,,,,,,,,5,,,,41,86
51726,note_on,60,0,8,,,,,,,,,12,,,,53,98
51731,note_on,60,0,9,,,,,,,,,13,,,,41,89
51732,note_on,60,0,3,,,,,,,,,3,,,,41,81
51733,note_on,60,0,10,,,,,,,,,14,,,,29,73
51780,note_on,0,0,6,,,,,,,,,10,,,,84,0
51780,note_on,60,0,6,,,,,,,,,10,,,,75,0
51783,note_on,0,0,7,,,,,,,,,11,,,,81,0
51783,note_on,60,0,7,,,,,,,,,11,,,,72,0
51783,note_on,60,0,1,,,,,,,,,0,,,,81,0
51783,note_on,0,0,7,,,,,,,,,11,,,,65,0
51784,note_on,60,0,4,,,,,,,,,4,,,,53,0
51785,note_on,0,0,2,,,,,,,,,1,,,,69,0
51785,note_on,60,0,2,,,,,,,,,1,,,,75,0
51786,note_on,60,0,8,,,,,,,,,12,,,,53,0
51786,note_on,60,0,5,,,,,,,,,5,,,,41,0
51791,note_on,60,0,9,,,,,,,,,13,,,,41,0
51792,note_on,60,0,3,,,,,,,,,3,,,,41,0
51793,note_on,60,0,10,,,,,,,,,14,,,,29,0
51960,set_tempo,240,1,0,,,,,,382166,,,,,,,,
52020,control_change,240,0,6,,,,,,,,,10,11,37,,,
52020,note_on,0,0,6,,,,,,,,,10,,,,77,73
52020,set_tempo,60,1,0,,,,,,409556,,,,,,,,
52023,note_on,0,0,7,,,,,,,,,11,,,,65,92
52023,control_change,240,0,7,,,,,,,,,11,11,37,,,
52038,control_change,18,0,6,,,,,,,,,10,11,40,,,
52041,control_change,18,0,7,,,,,,,,,11,11,40,,,
52056,control_change,18,0,6,,,,,,,,,10,11,43,,,
52059,control_change,18,0,7,,,,,,,,,11,11,43,,,
52070,note_on,14,0,6,,,,,,,,,10,,,,77,0
52073,note_on,14,0,7,,,,,,,,,11,,,,65,0
52074,control_change,4,0,6,,,,,,,,,10,11,46,,,
52077,control_change,4,0,7,,,,,,,,,11,11,46,,,
52080,set_tempo,60,1,0,,,,,,372671,,,,,,,,
52080,note_on,6,0,6,,,,,,,,,10,,,,77,80
52083,note_on,6,0,7,,,,,,,,,11,,,,65,100
52085,control_change,300,0,2,,,,,,,,,1,11,47,,,
52085,note_on,0,0,2,,,,,,,,,1,,,,77,81
52085,note_on,0,0,2,,,,,,,,,1,,,,65,81
52086,control_change,300,0,8,,,,,,,,,12,11,47,,,
52086,note_on,0,0,8,,,,,,,,,12,,,,62,83
52091,note_on,0,0,9,,,,,,,,,13,,,,50,74
52091,control_change,300,0,9,,,,,,,,,13,11,47,,,
52092,note_on,0,0,3,,,,,,,,,3,,,,58,81
52092,note_on,0,0,3,,,,,,,,,3,,,,50,81
52092,control_change,300,0,3,,,,,,,,,3,11,47,,,
52093,note_on,0,0,10,,,,,,,,,14,,,,38,59
52093,control_change,300,0,10,,,,,,,,,14,11,47,,,
52140,note_on,60,0,6,,,,,,,,,10,,,,77,0
52140,note_on,0,0,6,,,,,,,,,10,,,,79,80
52143,note_on,0,0,7,,,,,,,,,11,,,,67,100
52143,note_on,60,0,7,,,,,,,,,11,,,,65,0
52190,note_on,50,0,6,,,,,,,,,10,,,,79,0
52193,note_on,50,0,7,,,,,,,,,11,,,,67,0
52200,set_tempo,120,1,0,,,,,,382166,,,,,,,,
52200,note_on,10,0,6,,,,,,,,,10,,,,81,80
52203,note_on,10,0,7,,,,,,,,,11,,,,69,100
52206,note_on,120,0,8,,,,,,,,,12,,,,62,0
52211,note_on,120,0,9,,,,,,,,,13,,,,50,0
52212,note_on,0,0,3,,,,,,,,,3,,,,50,0
52212,note_on,120,0,3,,,,,,,,,3,,,,58,0
52213,note_on,120,0,10,,,,,,,,,14,,,,38,0
52230,note_on,30,0,6,,,,,,,,,10,,,,81,0
52233,note_on,30,0,7,,,,,,,,,11,,,,69,0
52260,note_on,30,0,6,,,,,,,,,10,,,,82,80
52263,note_on,30,0,7,,,,,,,,,11,,,,70,100
52290,note_on,30,0,6,,,,,,,,,10,,,,82,0
52293,note_on,30,0,7,,,,,,,,,11,,,,70,0
52320,set_tempo,120,1,0,,,,,,355030,,,,,,,,
52320,note_on,30,0,6,,,,,,,,,10,,,,82,80
52323,note_on,30,0,7,,,,,,,,,11,,,,70,100
52326,note_on,120,0,8,,,,,,,,,12,,,,63,83
52331,note_on,120,0,9,,,,,,,,,13,,,,51,74
52332,note_on,120,0,3,,,,,,,,,3,,,,51,81
52332,note_on,0,0,3,,,,,,,,,3,,,,60,81
52333,note_on,120,0,10,,,,,,,,,14,,,,39,59
52380,note_on,0,0,6,,,,,,,,,10,,,,81,80
52380,note_on,60,0,6,,,,,,,,,10,,,,82,0
52383,note_on,60,0,7,,,,,,,,,11,,,,70,0
52383,note_on,0,0,7,,,,,,,,,11,,,,69,100
52430,note_on,50,0,6,,,,,,,,,10,,,,81,0
52433,note_on,50,0,7,,,,,,,,,11,,,,69,0
52440,set_tempo,120,1,0,,,,,,382166,,,,,,,,
52440,note_on,10,0,6,,,,,,,,,10,,,,79,80
52443,note_on,10,0,7,,,,,,,,,11,,,,67,100
52446,note_on,120,0,8,,,,,,,,,12,,,,63,0
52451,note_on,120,0,9,,,,,,,,,13,,,,51,0
52452,note_on,0,0,3,,,,,,,,,3,,,,51,0
52452,note_on,120,0,3,,,,,,,,,3,,,,60,0
52453,note_on,120,0,10,,,,,,,,,14,,,,39,0
52470,note_on,30,0,6,,,,,,,,,10,,,,79,0
52473,note_on,30,0,7,,,,,,,,,11,,,,67,0
52500,note_on,30,0,6,,,,,,,,,10,,,,77,80
52503,note_on,30,0,7,,,,,,,,,11,,,,65,100
52530,note_on,30,0,6,,,,,,,,,10,,,,77,0
52533,note_on,30,0,7,,,,,,,,,11,,,,65,0
52560,control_change,30,0,6,,,,,,,,,10,11,47,,,
52560,note_on,0,0,6,,,,,,,,,10,,,,82,80
52560,set_tempo,120,1,0,,,,,,355030,,,,,,,,
52563,control_change,30,0,7,,,,,,,,,11,11,47,,,
52563,note_on,0,0,7,,,,,,,,,11,,,,70,100
52563,control_change,780,0,1,,,,,,,,,0,11,47,,,
52563,note_on,0,0,1,,,,,,,,,0,,,,82,82
52565,control_change,0,0,2,,,,,,,,,1,11,47,,,
52565,note_on,0,0,2,,,,,,,,,1,,,,77,0
52565,note_on,0,0,2,,,,,,,,,1,,,,65,81
52565,note_on,0,0,2,,,,,,,,,1,,,,70,81
52565,note_on,480,0,2,,,,,,,,,1,,,,65,0
52566,control_change,120,0,8,,,,,,,,,12,11,47,,,
52566,note_on,0,0,8,,,,,,,,,12,,,,62,83
52571,note_on,0,0,9,,,,,,,,,13,,,,50,74
52571,control_change,120,0,9,,,,,,,,,13,11,47,,,
52572,control_change,120,0,3,,,,,,,,,3,11,47,,,
52572,note_on,0,0,3,,,,,,,,,3,,,,50,81
52572,note_on,0,0,3,,,,,,,,,3,,,,58,81
52573,control_change,120,0,10,,,,,,,,,14,11,47,,,
52573,note_on,0,0,10,,,,,,,,,14,,,,38,59
52583,control_change,23,0,6,,,,,,,,,10,11,49,,,
52586,control_change,23,0,1,,,,,,,,,0,11,49,,,
52586,control_change,23,0,7,,,,,,,,,11,11,49,,,
52588,control_change,23,0,2,,,,,,,,,1,11,49,,,
52589,control_change,23,0,8,,,,,,,,,12,11,49,,,
52594,control_change,23,0,9,,,,,,,,,13,11,49,,,
52595,control_change,23,0,3,,,,,,,,,3,11,49,,,
52596,control_change,23,0,10,,,,,,,,,14,11,49,,,
52607,control_change,24,0,6,,,,,,,,,10,11,51,,,
52610,control_change,24,0,7,,,,,,,,,11,11,51,,,
52610,control_change,24,0,1,,,,,,,,,0,11,51,,,
52610,note_on,3,0,6,,,,,,,,,10,,,,82,0
52612,control_change,24,0,2,,,,,,,,,1,11,51,,,
52613,note_on,3,0,7,,,,,,,,,11,,,,70,0
52613,control_change,24,0,8,,,,,,,,,12,11,51,,,
52618,control_change,24,0,9,,,,,,,,,13,11,51,,,
52619,control_change,24,0,3,,,,,,,,,3,11,51,,,
52620,note_on,10,0,6,,,,,,,,,10,,,,82,80
52620,control_change,24,0,10,,,,,,,,,14,11,51,,,
52623,note_on,13,0,1,,,,,,,,,0,,,,82,0
52623,note_on,10,0,7,,,,,,,,,11,,,,70,100
52625,note_on,13,0,2,,,,,,,,,1,,,,65,0
52625,note_on,0,0,2,,,,,,,,,1,,,,70,0
52626,note_on,13,0,8,,,,,,,,,12,,,,62,0
52631,note_on,13,0,9,,,,,,,,,13,,,,50,0
52631,control_change,11,0,6,,,,,,,,,10,11,53,,,
52632,note_on,13,0,3,,,,,,,,,3,,,,58,0
52632,note_on,0,0,3,,,,,,,,,3,,,,50,0
52633,note_on,13,0,10,,,,,,,,,14,,,,38,0
52634,control_change,11,0,7,,,,,,,,,11,11,53,,,
52634,control_change,11,0,1,,,,,,,,,0,11,53,,,
52636,control_change,11,0,2,,,,,,,,,1,11,53,,,
52637,control_change,11,0,8,,,,,,,,,12,11,53,,,
52642,control_change,11,0,9,,,,,,,,,13,11,53,,,
52643,control_change,11,0,3,,,,,,,,,3,11,53,,,
52644,control_change,11,0,10,,,,,,,,,14,11,53,,,
52655,control_change,24,0,6,,,,,,,,,10,11,55,,,
52658,control_change,24,0,7,,,,,,,,,11,11,55,,,
52658,control_change,24,0,1,,,,,,,,,0,11,55,,,
52660,control_change,24,0,2,,,,,,,,,1,11,55,,,
52661,control_change,24,0,8,,,,,,,,,12,11,55,,,
52666,control_change,24,0,9,,,,,,,,,13,11,55,,,
52667,control_change,24,0,3,,,,,,,,,3,11,55,,,
52668,control_change,24,0,10,,,,,,,,,14,11,55,,,
52670,note_on,15,0,6,,,,,,,,,10,,,,82,0
52673,note_on,15,0,7,,,,,,,,,11,,,,70,0
52679,control_change,9,0,6,,,,,,,,,10,11,57,,,
52680,note_on,1,0,6,,,,,,,,,10,,,,86,80
52680,set_tempo,120,1,0,,,,,,382166,,,,,,,,
52682,control_change,24,0,1,,,,,,,,,0,11,57,,,
52682,control_change,9,0,7,,,,,,,,,11,11,57,,,
52683,note_on,1,0,1,,,,,,,,,0,,,,84,82
52683,note_on,1,0,7,,,,,,,,,11,,,,74,100
52684,control_change,24,0,2,,,,,,,,,1,11,57,,,
52685,note_on,0,0,2,,,,,,,,,1,,,,69,81
52685,note_on,1,0,2,,,,,,,,,1,,,,72,81
52685,control_change,24,0,8,,,,,,,,,12,11,57,,,
52686,note_on,1,0,8,,,,,,,,,12,,,,69,83
52690,control_change,24,0,9,,,,,,,,,13,11,57,,,
52691,note_on,1,0,9,,,,,,,,,13,,,,53,74
52691,control_change,24,0,3,,,,,,,,,3,11,57,,,
52692,control_change,24,0,10,,,,,,,,,14,11,57,,,
52692,note_on,1,0,3,,,,,,,,,3,,,,60,81
52692,note_on,0,0,3,,,,,,,,,3,,,,53,81
52693,note_on,1,0,10,,,,,,,,,14,,,,41,59
52703,control_change,23,0,6,,,,,,,,,10,11,59,,,
52706,control_change,23,0,1,,,,,,,,,0,11,59,,,
52706,control_change,23,0,7,,,,,,,,,11,11,59,,,
52708,control_change,23,0,2,,,,,,,,,1,11,59,,,
52709,control_change,23,0,8,,,,,,,,,12,11,59,,,
52710,note_on,0,0,6,,,,,,,,,10,,,,84,80
52710,note_on,7,0,6,,,,,,,,,10,,,,86,0
52713,note_on,0,0,7,,,,,,,,,11,,,,72,100
52713,note_on,7,0,7,,,,,,,,,11,,,,74,0
52714,control_change,23,0,9,,,,,,,,,13,11,59,,,
52715,control_change,23,0,3,,,,,,,,,3,11,59,,,
52716,control_change,23,0,10,,,,,,,,,14,11,59,,,
52727,control_change,17,0,6,,,,,,,,,10,11,61,,,
52730,control_change,24,0,1,,,,,,,,,0,11,61,,,
52730,note_on,3,0,6,,,,,,,,,10,,,,84,0
52730,control_change,17,0,7,,,,,,,,,11,11,61,,,
52732,control_change,24,0,2,,,,,,,,,1,11,61,,,
52733,control_change,24,0,8,,,,,,,,,12,11,61,,,
52733,note_on,3,0,7,,,,,,,,,11,,,,72,0
52738,control_change,24,0,9,,,,,,,,,13,11,61,,,
52739,control_change,24,0,3,,,,,,,,,3,11,61,,,
52740,control_change,24,0,10,,,,,,,,,14,11,61,,,
52740,note_on,10,0,6,,,,,,,,,10,,,,82,80
52743,note_on,10,0,7,,,,,,,,,11,,,,70,100
52743,note_on,13,0,1,,,,,,,,,0,,,,84,0
52745,note_on,0,0,2,,,,,,,,,1,,,,72,0
52745,note_on,13,0,2,,,,,,,,,1,,,,69,0
52746,note_on,13,0,8,,,,,,,,,12,,,,69,0
52751,note_on,13,0,9,,,,,,,,,13,,,,53,0
52751,control_change,11,0,6,,,,,,,,,10,11,62,,,
52752,note_on,13,0,3,,,,,,,,,3,,,,53,0
52752,note_on,0,0,3,,,,,,,,,3,,,,60,0
52753,note_on,13,0,10,,,,,,,,,14,,,,41,0
52754,control_change,11,0,7,,,,,,,,,11,11,62,,,
52754,control_change,11,0,1,,,,,,,,,0,11,62,,,
52756,control_change,11,0,2,,,,,,,,,1,11,62,,,
52757,control_change,11,0,8,,,,,,,,,12,11,62,,,
52760,note_on,9,0,6,,,,,,,,,10,,,,82,0
52762,control_change,11,0,9,,,,,,,,,13,11,62,,,
52763,control_change,11,0,3,,,,,,,,,3,11,62,,,
52763,note_on,9,0,7,,,,,,,,,11,,,,70,0
52764,control_change,11,0,10,,,,,,,,,14,11,62,,,
52770,note_on,10,0,6,,,,,,,,,10,,,,84,80
52773,note_on,10,0,7,,,,,,,,,11,,,,72,100
52775,control_change,5,0,6,,,,,,,,,10,11,64,,,
52778,control_change,24,0,1,,,,,,,,,0,11,64,,,
52778,control_change,5,0,7,,,,,,,,,11,11,64,,,
52780,control_change,24,0,2,,,,,,,,,1,11,64,,,
52781,control_change,24,0,8,,,,,,,,,12,11,64,,,
52786,control_change,24,0,9,,,,,,,,,13,11,64,,,
52787,control_change,24,0,3,,,,,,,,,3,11,64,,,
52788,control_change,24,0,10,,,,,,,,,14,11,64,,,
52790,note_on,15,0,6,,,,,,,,,10,,,,84,0
52793,note_on,15,0,7,,,,,,,,,11,,,,72,0
52799,control_change,9,0,6,,,,,,,,,10,11,65,,,
52800,note_on,1,0,6,,,,,,,,,10,,,,86,80
52800,set_tempo,120,1,0,,,,,,355030,,,,,,,,
52802,control_change,9,0,7,,,,,,,,,11,11,65,,,
52802,control_change,24,0,1,,,,,,,,,0,11,65,,,
52803,note_on,1,0,7,,,,,,,,,11,,,,74,100
52803,note_on,1,0,1,,,,,,,,,0,,,,86,82
52804,control_change,24,0,2,,,,,,,,,1,11,65,,,
52805,note_on,1,0,2,,,,,,,,,1,,,,70,81
52805,control_change,24,0,8,,,,,,,,,12,11,65,,,
52805,note_on,0,0,2,,,,,,,,,1,,,,74,81
52806,note_on,1,0,8,,,,,,,,,12,,,,70,83
52810,control_change,24,0,9,,,,,,,,,13,11,65,,,
52811,note_on,1,0,9,,,,,,,,,13,,,,58,74
52811,control_change,24,0,3,,,,,,,,,3,11,65,,,
52812,control_change,24,0,10,,,,,,,,,14,11,65,,,
52812,note_on,1,0,3,,,,,,,,,3,,,,58,81
52812,note_on,0,0,3,,,,,,,,,3,,,,62,81
52813,note_on,1,0,10,,,,,,,,,14,,,,46,59
52823,control_change,23,0,6,,,,,,,,,10,11,66,,,
52826,control_change,23,0,7,,,,,,,,,11,11,66,,,
52826,control_change,23,0,1,,,,,,,,,0,11,66,,,
52828,control_change,23,0,2,,,,,,,,,1,11,66,,,
52829,control_change,23,0,8,,,,,,,,,12,11,66,,,
52834,control_change,23,0,9,,,,,,,,,13,11,66,,,
52835,control_change,23,0,3,,,,,,,,,3,11,66,,,
52836,control_change,23,0,10,,,,,,,,,14,11,66,,,
52847,control_change,24,0,6,,,,,,,,,10,11,68,,,
52850,note_on,3,0,6,,,,,,,,,10,,,,86,0
52850,control_change,24,0,1,,,,,,,,,0,11,68,,,
52850,control_change,24,0,7,,,,,,,,,11,11,68,,,
52852,control_change,24,0,2,,,,,,,,,1,11,68,,,
52853,control_change,24,0,8,,,,,,,,,12,11,68,,,
52853,note_on,3,0,7,,,,,,,,,11,,,,74,0
52858,control_change,24,0,9,,,,,,,,,13,11,68,,,
52859,control_change,24,0,3,,,,,,,,,3,11,68,,,
52860,control_change,24,0,10,,,,,,,,,14,11,68,,,
52860,note_on,10,0,6,,,,,,,,,10,,,,86,80
52863,note_on,10,0,7,,,,,,,,,11,,,,74,100
52863,note_on,13,0,1,,,,,,,,,0,,,,86,0
52865,note_on,0,0,2,,,,,,,,,1,,,,70,0
52865,note_on,13,0,2,,,,,,,,,1,,,,74,0
52866,note_on,13,0,8,,,,,,,,,12,,,,70,0
52871,control_change,11,0,6,,,,,,,,,10,11,69,,,
52871,note_on,13,0,9,,,,,,,,,13,,,,58,0
52872,note_on,0,0,3,,,,,,,,,3,,,,58,0
52872,note_on,13,0,3,,,,,,,,,3,,,,62,0
52873,note_on,13,0,10,,,,,,,,,14,,,,46,0
52874,control_change,11,0,7,,,,,,,,,11,11,69,,,
52874,control_change,11,0,1,,,,,,,,,0,11,69,,,
52876,control_change,11,0,2,,,,,,,,,1,11,69,,,
52877,control_change,11,0,8,,,,,,,,,12,11,69,,,
52882,control_change,11,0,9,,,,,,,,,13,11,69,,,
52883,control_change,11,0,3,,,,,,,,,3,11,69,,,
52884,control_change,11,0,10,,,,,,,,,14,11,69,,,
52895,control_change,24,0,6,,,,,,,,,10,11,71,,,
52898,control_change,24,0,1,,,,,,,,,0,11,71,,,
52898,control_change,24,0,7,,,,,,,,,11,11,71,,,
52900,control_change,24,0,2,,,,,,,,,1,11,71,,,
52901,control_change,24,0,8,,,,,,,,,12,11,71,,,
52906,control_change,24,0,9,,,,,,,,,13,11,71,,,
52907,control_change,24,0,3,,,,,,,,,3,11,71,,,
52908,control_change,24,0,10,,,,,,,,,14,11,71,,,
52910,note_on,15,0,6,,,,,,,,,10,,,,86,0
52913,note_on,15,0,7,,,,,,,,,11,,,,74,0
52919,control_change,9,0,6,,,,,,,,,10,11,72,,,
52920,set_tempo,120,1,0,,,,,,382166,,,,,,,,
52920,note_on,1,0,6,,,,,,,,,10,,,,89,80
52922,control_change,24,0,1,,,,,,,,,0,11,72,,,
52922,control_change,9,0,7,,,,,,,,,11,11,72,,,
52923,note_on,1,0,7,,,,,,,,,11,,,,77,100
52923,note_on,1,0,1,,,,,,,,,0,,,,87,82
52924,control_change,24,0,2,,,,,,,,,1,11,72,,,
52925,control_change,24,0,8,,,,,,,,,12,11,72,,,
52925,note_on,0,0,2,,,,,,,,,1,,,,72,81
52925,note_on,1,0,2,,,,,,,,,1,,,,75,81
52926,note_on,1,0,8,,,,,,,,,12,,,,72,83
52930,control_change,24,0,9,,,,,,,,,13,11,72,,,
52931,control_change,24,0,3,,,,,,,,,3,11,72,,,
52932,control_change,24,0,10,,,,,,,,,14,11,72,,,
52932,note_on,0,0,3,,,,,,,,,3,,,,60,81
52932,note_on,1,0,3,,,,,,,,,3,,,,63,81
52943,control_change,23,0,6,,,,,,,,,10,11,73,,,
52946,control_change,23,0,1,,,,,,,,,0,11,73,,,
52946,control_change,23,0,7,,,,,,,,,11,11,73,,,
52948,control_change,23,0,2,,,,,,,,,1,11,73,,,
52949,control_change,23,0,8,,,,,,,,,12,11,73,,,
52950,note_on,0,0,6,,,,,,,,,10,,,,87,80
52950,note_on,7,0,6,,,,,,,,,10,,,,89,0
52953,note_on,0,0,7,,,,,,,,,11,,,,75,100
52953,note_on,7,0,7,,,,,,,,,11,,,,77,0
52954,control_change,24,0,9,,,,,,,,,13,11,73,,,
52955,control_change,23,0,3,,,,,,,,,3,11,73,,,
52956,control_change,24,0,10,,,,,,,,,14,11,73,,,
52967,control_change,17,0,6,,,,,,,,,10,11,75,,,
52970,note_on,3,0,6,,,,,,,,,10,,,,87,0
52970,control_change,24,0,1,,,,,,,,,0,11,75,,,
52970,control_change,17,0,7,,,,,,,,,11,11,75,,,
52972,control_change,24,0,2,,,,,,,,,1,11,75,,,
52973,control_change,24,0,8,,,,,,,,,12,11,75,,,
52973,note_on,3,0,7,,,,,,,,,11,,,,75,0
52978,control_change,24,0,9,,,,,,,,,13,11,75,,,
52979,control_change,24,0,3,,,,,,,,,3,11,75,,,
52980,control_change,24,0,10,,,,,,,,,14,11,75,,,
52980,note_on,10,0,6,,,,,,,,,10,,,,86,80
52983,note_on,10,0,7,,,,,,,,,11,,,,74,100
52983,note_on,13,0,1,,,,,,,,,0,,,,87,0
52985,note_on,13,0,2,,,,,,,,,1,,,,72,0
52985,note_on,0,0,2,,,,,,,,,1,,,,75,0
52986,note_on,13,0,8,,,,,,,,,12,,,,72,0
52991,control_change,11,0,6,,,,,,,,,10,11,76,,,
52991,note_on,13,0,9,,,,,,,,,13,,,,53,89
52992,note_on,13,0,3,,,,,,,,,3,,,,60,0
52992,note_on,0,0,3,,,,,,,,,3,,,,63,0
52993,note_on,13,0,10,,,,,,,,,14,,,,41,73
52994,control_change,11,0,7,,,,,,,,,11,11,76,,,
52994,control_change,11,0,1,,,,,,,,,0,11,76,,,
52996,control_change,11,0,2,,,,,,,,,1,11,76,,,
52997,control_change,11,0,8,,,,,,,,,12,11,76,,,
53000,note_on,9,0,6,,,,,,,,,10,,,,86,0
53002,control_change,11,0,9,,,,,,,,,13,11,76,,,
53003,control_change,11,0,3,,,,,,,,,3,11,76,,,
53003,note_on,9,0,7,,,,,,,,,11,,,,74,0
53004,control_change,11,0,10,,,,,,,,,14,11,76,,,
53010,note_on,10,0,6,,,,,,,,,10,,,,87,80
53013,note_on,10,0,7,,,,,,,,,11,,,,75,100
53015,control_change,5,0,6,,,,,,,,,10,11,77,,,
53018,control_change,5,0,7,,,,,,,,,11,11,77,,,
53018,control_change,24,0,1,,,,,,,,,0,11,77,,,
53020,control_change,24,0,2,,,,,,,,,1,11,77,,,
53021,control_change,24,0,8,,,,,,,,,12,11,77,,,
53026,control_change,24,0,9,,,,,,,,,13,11,77,,,
53027,control_change,24,0,3,,,,,,,,,3,11,77,,,
53028,control_change,24,0,10,,,,,,,,,14,11,77,,,
53030,note_on,15,0,6,,,,,,,,,10,,,,87,0
53033,note_on,15,0,7,,,,,,,,,11,,,,75,0
53039,control_change,9,0,6,,,,,,,,,10,11,79,,,
53040,note_on,1,0,6,,,,,,,,,10,,,,89,100
53040,set_tempo,120,1,0,,,,,,355030,,,,,,,,
53042,control_change,9,0,7,,,,,,,,,11,11,79,,,
53042,control_change,24,0,1,,,,,,,,,0,11,79,,,
53043,note_on,1,0,1,,,,,,,,,0,,,,89,82
53043,note_on,0,0,7,,,,,,,,,11,,,,77,100
53043,note_on,1,0,7,,,,,,,,,11,,,,74,100
53044,note_on,1260,0,4,,,,,,,,,4,,,,62,86
53044,control_change,24,0,2,,,,,,,,,1,11,79,,,
53045,control_change,24,0,8,,,,,,,,,12,11,79,,,
53045,note_on,1,0,2,,,,,,,,,1,,,,77,81
53045,note_on,0,0,2,,,,,,,,,1,,,,74,81
53046,note_on,1,0,8,,,,,,,,,12,,,,65,98
53046,note_on,1260,0,5,,,,,,,,,5,,,,58,86
53050,control_change,24,0,9,,,,,,,,,13,11,79,,,
53051,control_change,24,0,3,,,,,,,,,3,11,79,,,
53051,note_on,0,0,9,,,,,,,,,13,,,,53,89
53051,note_on,1,0,9,,,,,,,,,13,,,,53,0
53052,note_on,0,0,3,,,,,,,,,3,,,,62,81
53052,note_on,1,0,3,,,,,,,,,3,,,,65,81
53052,control_change,24,0,10,,,,,,,,,14,11,79,,,
53053,note_on,1,0,10,,,,,,,,,14,,,,41,0
53053,note_on,0,0,10,,,,,,,,,14,,,,41,73
53060,note_on,20,0,6,,,,,,,,,10,,,,89,0
53063,note_on,0,0,7,,,,,,,,,11,,,,74,0
53063,note_on,20,0,7,,,,,,,,,11,,,,77,0
53070,note_on,10,0,6,,,,,,,,,10,,,,89,92
53073,note_on,10,0,7,,,,,,,,,11,,,,74,92
53073,note_on,0,0,7,,,,,,,,,11,,,,77,92
53090,note_on,20,0,6,,,,,,,,,10,,,,89,0
53093,note_on,20,0,7,,,,,,,,,11,,,,77,0
53093,note_on,0,0,7,,,,,,,,,11,,,,74,0
53100,note_on,10,0,6,,,,,,,,,10,,,,89,100
53103,note_on,0,0,7,,,,,,,,,11,,,,77,100
53103,note_on,10,0,7,,,,,,,,,11,,,,74,100
53106,note_on,0,0,8,,,,,,,,,12,,,,67,98
53106,note_on,60,0,8,,,,,,,,,12,,,,65,0
53111,note_on,60,0,9,,,,,,,,,13,,,,53,0
53111,note_on,0,0,9,,,,,,,,,13,,,,55,89
53113,note_on,0,0,10,,,,,,,,,14,,,,43,73
53113,note_on,60,0,10,,,,,,,,,14,,,,41,0
53120,note_on,20,0,6,,,,,,,,,10,,,,89,0
53123,note_on,0,0,7,,,,,,,,,11,,,,74,0
53123,note_on,20,0,7,,,,,,,,,11,,,,77,0
53130,note_on,10,0,6,,,,,,,,,10,,,,89,92
53133,note_on,0,0,7,,,,,,,,,11,,,,77,92
53133,note_on,10,0,7,,,,,,,,,11,,,,74,92
53150,note_on,20,0,6,,,,,,,,,10,,,,89,0
53153,note_on,0,0,7,,,,,,,,,11,,,,74,0
53153,note_on,20,0,7,,,,,,,,,11,,,,77,0
53156,note_on,50,0,8,,,,,,,,,12,,,,67,0
53160,set_tempo,120,1,0,,,,,,382166,,,,,,,,
53160,note_on,10,0,6,,,,,,,,,10,,,,89,100
53161,note_on,50,0,9,,,,,,,,,13,,,,55,0
53163,note_on,10,0,7,,,,,,,,,11,,,,74,100
53163,note_on,50,0,10,,,,,,,,,14,,,,43,0
53163,note_on,0,0,7,,,,,,,,,11,,,,77,100
53166,note_on,10,0,8,,,,,,,,,12,,,,69,98
53171,note_on,10,0,9,,,,,,,,,13,,,,57,89
53173,note_on,10,0,10,,,,,,,,,14,,,,45,73
53180,note_on,20,0,6,,,,,,,,,10,,,,89,0
53183,note_on,0,0,7,,,,,,,,,11,,,,74,0
53183,note_on,20,0,7,,,,,,,,,11,,,,77,0
53190,note_on,10,0,6,,,,,,,,,10,,,,89,92
53193,note_on,10,0,7,,,,,,,,,11,,,,74,92
53193,note_on,0,0,7,,,,,,,,,11,,,,77,92
53196,note_on,30,0,8,,,,,,,,,12,,,,69,0
53201,note_on,30,0,9,,,,,,,,,13,,,,57,0
53203,note_on,30,0,10,,,,,,,,,14,,,,45,0
53210,note_on,20,0,6,,,,,,,,,10,,,,89,0
53213,note_on,20,0,7,,,,,,,,,11,,,,77,0
53213,note_on,0,0,7,,,,,,,,,11,,,,74,0
53220,note_on,10,0,6,,,,,,,,,10,,,,89,100
53223,note_on,0,0,7,,,,,,,,,11,,,,74,100
53223,note_on,10,0,7,,,,,,,,,11,,,,77,100
53226,note_on,30,0,8,,,,,,,,,12,,,,70,98
53231,note_on,30,0,9,,,,,,,,,13,,,,58,89
53233,note_on,30,0,10,,,,,,,,,14,,,,46,73
53240,note_on,20,0,6,,,,,,,,,10,,,,89,0
53243,note_on,0,0,7,,,,,,,,,11,,,,77,0
53243,note_on,20,0,7,,,,,,,,,11,,,,74,0
53250,note_on,10,0,6,,,,,,,,,10,,,,89,92
53253,note_on,0,0,7,,,,,,,,,11,,,,77,92
53253,note_on,10,0,7,,,,,,,,,11,,,,74,92
53256,note_on,30,0,8,,,,,,,,,12,,,,70,0
53261,note_on,30,0,9,,,,,,,,,13,,,,58,0
53263,note_on,30,0,10,,,,,,,,,14,,,,46,0
53270,note_on,20,0,6,,,,,,,,,10,,,,89,0
53273,note_on,20,0,7,,,,,,,,,11,,,,77,0
53273,note_on,0,0,7,,,,,,,,,11,,,,74,0
53280,note_on,10,0,6,,,,,,,,,10,,,,89,100
53280,set_tempo,120,1,0,,,,,,355030,,,,,,,,
53283,note_on,10,0,7,,,,,,,,,11,,,,75,100
53283,note_on,0,0,7,,,,,,,,,11,,,,77,100
53284,note_on,240,0,4,,,,,,,,,4,,,,62,0
53284,note_on,0,0,4,,,,,,,,,4,,,,63,86
53285,note_on,0,0,2,,,,,,,,,1,,,,75,81
53285,note_on,240,0,2,,,,,,,,,1,,,,74,0
53286,note_on,240,0,5,,,,,,,,,5,,,,58,0
53286,note_on,0,0,5,,,,,,,,,5,,,,60,86
53286,note_on,30,0,8,,,,,,,,,12,,,,70,98
53291,note_on,30,0,9,,,,,,,,,13,,,,58,89
53292,note_on,0,0,3,,,,,,,,,3,,,,63,81
53292,note_on,240,0,3,,,,,,,,,3,,,,62,0
53293,note_on,30,0,10,,,,,,,,,14,,,,46,73
53300,note_on,20,0,6,,,,,,,,,10,,,,89,0
53303,note_on,20,0,7,,,,,,,,,11,,,,77,0
53303,note_on,0,0,7,,,,,,,,,11,,,,75,0
53310,note_on,10,0,6,,,,,,,,,10,,,,89,92
53313,note_on,0,0,7,,,,,,,,,11,,,,77,92
53313,note_on,10,0,7,,,,,,,,,11,,,,75,92
53330,note_on,20,0,6,,,,,,,,,10,,,,89,0
53333,note_on,20,0,7,,,,,,,,,11,,,,77,0
53333,note_on,0,0,7,,,,,,,,,11,,,,75,0
53340,note_on,10,0,6,,,,,,,,,10,,,,89,100
53343,note_on,0,0,7,,,,,,,,,11,,,,75,100
53343,note_on,10,0,7,,,,,,,,,11,,,,77,100
53346,note_on,60,0,8,,,,,,,,,12,,,,70,0
53346,note_on,0,0,8,,,,,,,,,12,,,,69,98
53351,note_on,0,0,9,,,,,,,,,13,,,,57,89
53351,note_on,60,0,9,,,,,,,,,13,,,,58,0
53353,note_on,60,0,10,,,,,,,,,14,,,,46,0
53353,note_on,0,0,10,,,,,,,,,14,,,,45,73
53360,note_on,20,0,6,,,,,,,,,10,,,,89,0
53363,note_on,0,0,7,,,,,,,,,11,,,,77,0
53363,note_on,20,0,7,,,,,,,,,11,,,,75,0
53370,note_on,10,0,6,,,,,,,,,10,,,,89,92
53373,note_on,0,0,7,,,,,,,,,11,,,,75,92
53373,note_on,10,0,7,,,,,,,,,11,,,,77,92
53390,note_on,20,0,6,,,,,,,,,10,,,,89,0
53393,note_on,0,0,7,,,,,,,,,11,,,,77,0
53393,note_on,20,0,7,,,,,,,,,11,,,,75,0
53396,note_on,50,0,8,,,,,,,,,12,,,,69,0
53400,set_tempo,120,1,0,,,,,,382166,,,,,,,,
53400,note_on,10,0,6,,,,,,,,,10,,,,89,100
53401,note_on,50,0,9,,,,,,,,,13,,,,57,0
53403,note_on,0,0,7,,,,,,,,,11,,,,77,100
53403,note_on,50,0,10,,,,,,,,,14,,,,45,0
53403,note_on,10,0,7,,,,,,,,,11,,,,75,100
53406,note_on,10,0,8,,,,,,,,,12,,,,67,98
53411,note_on,10,0,9,,,,,,,,,13,,,,55,89
53413,note_on,10,0,10,,,,,,,,,14,,,,43,73
53420,note_on,20,0,6,,,,,,,,,10,,,,89,0
53423,note_on,0,0,7,,,,,,,,,11,,,,75,0
53423,note_on,20,0,7,,,,,,,,,11,,,,77,0
53430,note_on,10,0,6,,,,,,,,,10,,,,89,92
53433,note_on,0,0,7,,,,,,,,,11,,,,77,92
53433,note_on,10,0,7,,,,,,,,,11,,,,75,92
53436,note_on,30,0,8,,,,,,,,,12,,,,67,0
53441,note_on,30,0,9,,,,,,,,,13,,,,55,0
53443,note_on,30,0,10,,,,,,,,,14,,,,43,0
53450,note_on,20,0,6,,,,,,,,,10,,,,89,0
53453,note_on,0,0,7,,,,,,,,,11,,,,75,0
53453,note_on,20,0,7,,,,,,,,,11,,,,77,0
53460,note_on,10,0,6,,,,,,,,,10,,,,89,100
53463,note_on,0,0,7,,,,,,,,,11,,,,77,100
53463,note_on,10,0,7,,,,,,,,,11,,,,75,100
53466,note_on,30,0,8,,,,,,,,,12,,,,65,98
53471,note_on,30,0,9,,,,,,,,,13,,,,53,89
53473,note_on,30,0,10,,,,,,,,,14,,,,41,73
53480,note_on,20,0,6,,,,,,,,,10,,,,89,0
53483,note_on,20,0,7,,,,,,,,,11,,,,77,0
53483,note_on,0,0,7,,,,,,,,,11,,,,75,0
53490,note_on,10,0,6,,,,,,,,,10,,,,89,92
53493,note_on,10,0,7,,,,,,,,,11,,,,77,92
53493,note_on,0,0,7,,,,,,,,,11,,,,75,92
53496,note_on,30,0,8,,,,,,,,,12,,,,65,0
53501,note_on,30,0,9,,,,,,,,,13,,,,53,0
53503,note_on,30,0,10,,,,,,,,,14,,,,41,0
53510,note_on,20,0,6,,,,,,,,,10,,,,89,0
53513,note_on,20,0,7,,,,,,,,,11,,,,75,0
53513,note_on,0,0,7,,,,,,,,,11,,,,77,0
53520,note_on,10,0,6,,,,,,,,,10,,,,89,100
53520,set_tempo,120,1,0,,,,,,355030,,,,,,,,
53523,note_on,10,0,7,,,,,,,,,11,,,,74,100
53523,note_on,0,0,7,,,,,,,,,11,,,,77,100
53524,note_on,0,0,4,,,,,,,,,4,,,,62,86
53524,note_on,240,0,4,,,,,,,,,4,,,,63,0
53525,note_on,0,0,2,,,,,,,,,1,,,,77,0
53525,note_on,0,0,2,,,,,,,,,1,,,,77,81
53525,note_on,0,0,2,,,,,,,,,1,,,,74,81
53525,note_on,240,0,2,,,,,,,,,1,,,,75,0
53526,note_on,0,0,5,,,,,,,,,5,,,,58,86
53526,note_on,240,0,5,,,,,,,,,5,,,,60,0
53526,note_on,30,0,8,,,,,,,,,12,,,,65,98
53531,note_on,30,0,9,,,,,,,,,13,,,,53,89
53532,note_on,0,0,3,,,,,,,,,3,,,,62,81
53532,note_on,0,0,3,,,,,,,,,3,,,,65,81
53532,note_on,0,0,3,,,,,,,,,3,,,,65,0
53532,note_on,240,0,3,,,,,,,,,3,,,,63,0
53533,note_on,30,0,10,,,,,,,,,14,,,,41,73
53540,note_on,20,0,6,,,,,,,,,10,,,,89,0
53543,note_on,20,0,7,,,,,,,,,11,,,,77,0
53543,note_on,0,0,7,,,,,,,,,11,,,,74,0
53550,note_on,10,0,6,,,,,,,,,10,,,,89,92
53553,note_on,10,0,7,,,,,,,,,11,,,,77,92
53553,note_on,0,0,7,,,,,,,,,11,,,,74,92
53570,note_on,20,0,6,,,,,,,,,10,,,,89,0
53573,note_on,20,0,7,,,,,,,,,11,,,,74,0
53573,note_on,0,0,7,,,,,,,,,11,,,,77,0
53580,note_on,10,0,6,,,,,,,,,10,,,,89,100
53583,note_on,10,0,7,,,,,,,,,11,,,,77,100
53583,note_on,0,0,7,,,,,,,,,11,,,,74,100
53586,note_on,0,0,8,,,,,,,,,12,,,,67,98
53586,note_on,60,0,8,,,,,,,,,12,,,,65,0
53591,note_on,0,0,9,,,,,,,,,13,,,,55,89
53591,note_on,60,0,9,,,,,,,,,13,,,,53,0
53593,note_on,60,0,10,,,,,,,,,14,,,,41,0
53593,note_on,0,0,10,,,,,,,,,14,,,,43,73
53600,note_on,20,0,6,,,,,,,,,10,,,,89,0
53603,note_on,0,0,7,,,,,,,,,11,,,,77,0
53603,note_on,20,0,7,,,,,,,,,11,,,,74,0
53610,note_on,10,0,6,,,,,,,,,10,,,,89,92
53613,note_on,0,0,7,,,,,,,,,11,,,,74,92
53613,note_on,10,0,7,,,,,,,,,11,,,,77,92
53630,note_on,20,0,6,,,,,,,,,10,,,,89,0
53633,note_on,0,0,7,,,,,,,,,11,,,,77,0
53633,note_on,20,0,7,,,,,,,,,11,,,,74,0
53636,note_on,50,0,8,,,,,,,,,12,,,,67,0
53640,set_tempo,120,1,0,,,,,,382166,,,,,,,,
53640,note_on,10,0,6,,,,,,,,,10,,,,89,100
53641,note_on,50,0,9,,,,,,,,,13,,,,55,0
53643,note_on,0,0,7,,,,,,,,,11,,,,77,100
53643,note_on,10,0,7,,,,,,,,,11,,,,74,100
53643,note_on,50,0,10,,,,,,,,,14,,,,43,0
53646,note_on,10,0,8,,,,,,,,,12,,,,69,98
53651,note_on,10,0,9,,,,,,,,,13,,,,57,89
53653,note_on,10,0,10,,,,,,,,,14,,,,45,73
53660,note_on,20,0,6,,,,,,,,,10,,,,89,0
53663,note_on,20,0,7,,,,,,,,,11,,,,77,0
53663,note_on,0,0,7,,,,,,,,,11,,,,74,0
53670,note_on,10,0,6,,,,,,,,,10,,,,89,92
53673,note_on,0,0,7,,,,,,,,,11,,,,77,92
53673,note_on,10,0,7,,,,,,,,,11,,,,74,92
53676,note_on,30,0,8,,,,,,,,,12,,,,69,0
53681,note_on,30,0,9,,,,,,,,,13,,,,57,0
53683,note_on,30,0,10,,,,,,,,,14,,,,45,0
53690,note_on,20,0,6,,,,,,,,,10,,,,89,0
53693,note_on,20,0,7,,,,,,,,,11,,,,77,0
53693,note_on,0,0,7,,,,,,,,,11,,,,74,0
53700,note_on,10,0,6,,,,,,,,,10,,,,89,100
53703,note_on,10,0,7,,,,,,,,,11,,,,74,100
53703,note_on,0,0,7,,,,,,,,,11,,,,77,100
53706,note_on,30,0,8,,,,,,,,,12,,,,70,98
53711,note_on,30,0,9,,,,,,,,,13,,,,58,89
53713,note_on,30,0,10,,,,,,,,,14,,,,46,73
53720,note_on,20,0,6,,,,,,,,,10,,,,89,0
53723,note_on,20,0,7,,,,,,,,,11,,,,77,0
53723,note_on,0,0,7,,,,,,,,,11,,,,74,0
53730,note_on,10,0,6,,,,,,,,,10,,,,89,92
53733,note_on,10,0,7,,,,,,,,,11,,,,77,92
53733,note_on,0,0,7,,,,,,,,,11,,,,74,92
53736,note_on,30,0,8,,,,,,,,,12,,,,70,0
53741,note_on,30,0,9,,,,,,,,,13,,,,58,0
53743,note_on,30,0,10,,,,,,,,,14,,,,46,0
53750,note_on,20,0,6,,,,,,,,,10,,,,89,0
53753,note_on,20,0,7,,,,,,,,,11,,,,74,0
53753,note_on,0,0,7,,,,,,,,,11,,,,77,0
53760,set_tempo,120,1,0,,,,,,355030,,,,,,,,
53760,note_on,10,0,6,,,,,,,,,10,,,,89,100
53763,note_on,0,0,7,,,,,,,,,11,,,,75,100
53763,note_on,10,0,7,,,,,,,,,11,,,,77,100
53764,note_on,0,0,4,,,,,,,,,4,,,,63,86
53764,note_on,240,0,4,,,,,,,,,4,,,,62,0
53765,note_on,0,0,2,,,,,,,,,1,,,,75,81
53765,note_on,240,0,2,,,,,,,,,1,,,,74,0
53766,note_on,30,0,8,,,,,,,,,12,,,,70,98
53766,note_on,0,0,5,,,,,,,,,5,,,,60,86
53766,note_on,240,0,5,,,,,,,,,5,,,,58,0
53771,note_on,30,0,9,,,,,,,,,13,,,,58,89
53772,note_on,0,0,3,,,,,,,,,3,,,,63,81
53772,note_on,240,0,3,,,,,,,,,3,,,,62,0
53773,note_on,30,0,10,,,,,,,,,14,,,,46,73
53780,note_on,20,0,6,,,,,,,,,10,,,,89,0
53783,note_on,0,0,7,,,,,,,,,11,,,,77,0
53783,note_on,20,0,7,,,,,,,,,11,,,,75,0
53790,note_on,10,0,6,,,,,,,,,10,,,,89,92
53793,note_on,10,0,7,,,,,,,,,11,,,,77,92
53793,note_on,0,0,7,,,,,,,,,11,,,,75,92
53810,note_on,20,0,6,,,,,,,,,10,,,,89,0
53813,note_on,20,0,7,,,,,,,,,11,,,,75,0
53813,note_on,0,0,7,,,,,,,,,11,,,,77,0
53820,note_on,10,0,6,,,,,,,,,10,,,,89,100
53823,note_on,10,0,7,,,,,,,,,11,,,,75,100
53823,note_on,0,0,7,,,,,,,,,11,,,,77,100
53826,note_on,0,0,8,,,,,,,,,12,,,,69,98
53826,note_on,60,0,8,,,,,,,,,12,,,,70,0
53831,note_on,0,0,9,,,,,,,,,13,,,,57,89
53831,note_on,60,0,9,,,,,,,,,13,,,,58,0
53833,note_on,60,0,10,,,,,,,,,14,,,,46,0
53833,note_on,0,0,10,,,,,,,,,14,,,,45,73
53840,note_on,20,0,6,,,,,,,,,10,,,,89,0
53843,note_on,0,0,7,,,,,,,,,11,,,,75,0
53843,note_on,20,0,7,,,,,,,,,11,,,,77,0
53850,note_on,10,0,6,,,,,,,,,10,,,,89,92
53853,note_on,10,0,7,,,,,,,,,11,,,,75,92
53853,note_on,0,0,7,,,,,,,,,11,,,,77,92
53870,note_on,20,0,6,,,,,,,,,10,,,,89,0
53873,note_on,0,0,7,,,,,,,,,11,,,,75,0
53873,note_on,20,0,7,,,,,,,,,11,,,,77,0
53876,note_on,50,0,8,,,,,,,,,12,,,,69,0
53880,note_on,10,0,6,,,,,,,,,10,,,,89,100
53880,set_tempo,120,1,0,,,,,,382166,,,,,,,,
53881,note_on,50,0,9,,,,,,,,,13,,,,57,0
53883,note_on,50,0,10,,,,,,,,,14,,,,45,0
53883,note_on,10,0,7,,,,,,,,,11,,,,75,100
53883,note_on,0,0,7,,,,,,,,,11,,,,77,100
53886,note_on,10,0,8,,,,,,,,,12,,,,67,98
53891,note_on,10,0,9,,,,,,,,,13,,,,55,89
53893,note_on,10,0,10,,,,,,,,,14,,,,43,73
53900,note_on,20,0,6,,,,,,,,,10,,,,89,0
53903,note_on,0,0,7,,,,,,,,,11,,,,75,0
53903,note_on,20,0,7,,,,,,,,,11,,,,77,0
53910,note_on,10,0,6,,,,,,,,,10,,,,89,92
53913,note_on,10,0,7,,,,,,,,,11,,,,75,92
53913,note_on,0,0,7,,,,,,,,,11,,,,77,92
53916,note_on,30,0,8,,,,,,,,,12,,,,67,0
53921,note_on,30,0,9,,,,,,,,,13,,,,55,0
53923,note_on,30,0,10,,,,,,,,,14,,,,43,0
53930,note_on,20,0,6,,,,,,,,,10,,,,89,0
53933,note_on,0,0,7,,,,,,,,,11,,,,75,0
53933,note_on,20,0,7,,,,,,,,,11,,,,77,0
53940,note_on,10,0,6,,,,,,,,,10,,,,89,100
53943,note_on,0,0,7,,,,,,,,,11,,,,75,100
53943,note_on,10,0,7,,,,,,,,,11,,,,77,100
53946,note_on,30,0,8,,,,,,,,,12,,,,65,98
53951,note_on,30,0,9,,,,,,,,,13,,,,53,89
53953,note_on,30,0,10,,,,,,,,,14,,,,41,73
53960,note_on,20,0,6,,,,,,,,,10,,,,89,0
53963,note_on,0,0,7,,,,,,,,,11,,,,77,0
53963,note_on,20,0,7,,,,,,,,,11,,,,75,0
53970,note_on,10,0,6,,,,,,,,,10,,,,89,92
53973,note_on,0,0,7,,,,,,,,,11,,,,77,92
53973,note_on,10,0,7,,,,,,,,,11,,,,75,92
53976,note_on,30,0,8,,,,,,,,,12,,,,65,0
53981,note_on,30,0,9,,,,,,,,,13,,,,53,0
53983,note_on,30,0,10,,,,,,,,,14,,,,41,0
53990,note_on,20,0,6,,,,,,,,,10,,,,89,0
53993,note_on,20,0,7,,,,,,,,,11,,,,77,0
53993,note_on,0,0,7,,,,,,,,,11,,,,75,0
54000,set_tempo,120,1,0,,,,,,355030,,,,,,,,
54000,note_on,10,0,6,,,,,,,,,10,,,,77,100
54003,note_on,10,0,7,,,,,,,,,11,,,,74,100
54003,note_on,960,0,1,,,,,,,,,0,,,,89,0
54003,note_on,0,0,1,,,,,,,,,0,,,,89,82
54004,note_on,0,0,4,,,,,,,,,4,,,,62,86
54004,note_on,240,0,4,,,,,,,,,4,,,,63,0
54005,note_on,0,0,2,,,,,,,,,1,,,,77,81
54005,note_on,0,0,2,,,,,,,,,1,,,,74,81
54005,note_on,0,0,2,,,,,,,,,1,,,,77,0
54005,note_on,240,0,2,,,,,,,,,1,,,,75,0
54006,note_on,240,0,5,,,,,,,,,5,,,,60,0
54006,note_on,0,0,5,,,,,,,,,5,,,,62,86
54006,note_on,30,0,8,,,,,,,,,12,,,,70,98
54011,note_on,30,0,9,,,,,,,,,13,,,,58,89
54012,note_on,0,0,3,,,,,,,,,3,,,,58,81
54012,note_on,0,0,3,,,,,,,,,3,,,,65,0
54012,note_on,240,0,3,,,,,,,,,3,,,,63,0
54013,note_on,30,0,10,,,,,,,,,14,,,,46,73
54050,note_on,50,0,6,,,,,,,,,10,,,,77,0
54053,note_on,50,0,7,,,,,,,,,11,,,,74,0
54053,note_on,50,0,1,,,,,,,,,0,,,,89,0
54055,note_on,0,0,2,,,,,,,,,1,,,,74,0
54055,note_on,50,0,2,,,,,,,,,1,,,,77,0
54056,note_on,50,0,8,,,,,,,,,12,,,,70,0
54060,note_on,10,0,6,,,,,,,,,10,,,,77,100
54061,note_on,50,0,9,,,,,,,,,13,,,,58,0
54062,note_on,50,0,3,,,,,,,,,3,,,,58,0
54063,note_on,10,0,7,,,,,,,,,11,,,,74,100
54063,note_on,50,0,10,,,,,,,,,14,,,,46,0
54063,note_on,10,0,1,,,,,,,,,0,,,,89,82
54064,note_on,0,0,4,,,,,,,,,4,,,,62,86
54064,note_on,60,0,4,,,,,,,,,4,,,,62,0
54065,note_on,10,0,2,,,,,,,,,1,,,,77,81
54065,note_on,0,0,2,,,,,,,,,1,,,,74,81
54066,note_on,10,0,8,,,,,,,,,12,,,,70,98
54066,note_on,0,0,5,,,,,,,,,5,,,,62,86
54066,note_on,60,0,5,,,,,,,,,5,,,,62,0
54071,note_on,10,0,9,,,,,,,,,13,,,,58,89
54072,note_on,10,0,3,,,,,,,,,3,,,,58,81
54073,note_on,10,0,10,,,,,,,,,14,,,,46,73
54110,note_on,50,0,6,,,,,,,,,10,,,,77,0
54113,note_on,50,0,7,,,,,,,,,11,,,,74,0
54113,note_on,50,0,1,,,,,,,,,0,,,,89,0
54115,note_on,0,0,2,,,,,,,,,1,,,,77,0
54115,note_on,50,0,2,,,,,,,,,1,,,,74,0
54116,note_on,50,0,8,,,,,,,,,12,,,,70,0
54120,note_on,10,0,6,,,,,,,,,10,,,,79,115
54120,set_tempo,120,1,0,,,,,,382166,,,,,,,,
54121,note_on,50,0,9,,,,,,,,,13,,,,58,0
54122,note_on,50,0,3,,,,,,,,,3,,,,58,0
54123,note_on,50,0,10,,,,,,,,,14,,,,46,0
54123,note_on,10,0,1,,,,,,,,,0,,,,91,95
54123,note_on,10,0,7,,,,,,,,,11,,,,72,115
54124,note_on,0,0,4,,,,,,,,,4,,,,60,99
54124,note_on,60,0,4,,,,,,,,,4,,,,62,0
54125,note_on,10,0,2,,,,,,,,,1,,,,79,94
54125,note_on,0,0,2,,,,,,,,,1,,,,72,94
54126,note_on,10,0,8,,,,,,,,,12,,,,68,113
54126,note_on,0,0,5,,,,,,,,,5,,,,60,99
54126,note_on,60,0,5,,,,,,,,,5,,,,62,0
54131,note_on,10,0,9,,,,,,,,,13,,,,56,104
54132,note_on,10,0,3,,,,,,,,,3,,,,56,94
54133,note_on,10,0,10,,,,,,,,,14,,,,44,86
54150,note_on,30,0,6,,,,,,,,,10,,,,79,0
54150,note_on,0,0,6,,,,,,,,,10,,,,78,100
54153,note_on,30,0,1,,,,,,,,,0,,,,91,0
54153,note_on,0,0,1,,,,,,,,,0,,,,90,82
54155,note_on,0,0,2,,,,,,,,,1,,,,78,81
54155,note_on,30,0,2,,,,,,,,,1,,,,79,0
54170,note_on,20,0,6,,,,,,,,,10,,,,78,0
54173,note_on,20,0,1,,,,,,,,,0,,,,90,0
54175,note_on,20,0,2,,,,,,,,,1,,,,78,0
54180,note_on,10,0,6,,,,,,,,,10,,,,76,100
54183,note_on,10,0,1,,,,,,,,,0,,,,88,82
54185,note_on,10,0,2,,,,,,,,,1,,,,76,81
54200,note_on,20,0,6,,,,,,,,,10,,,,76,0
54203,note_on,20,0,1,,,,,,,,,0,,,,88,0
54205,note_on,20,0,2,,,,,,,,,1,,,,76,0
54210,note_on,10,0,6,,,,,,,,,10,,,,78,100
54213,note_on,10,0,1,,,,,,,,,0,,,,90,82
54215,note_on,10,0,2,,,,,,,,,1,,,,78,81
54230,note_on,20,0,6,,,,,,,,,10,,,,78,0
54233,note_on,110,0,7,,,,,,,,,11,,,,72,0
54233,note_on,20,0,1,,,,,,,,,0,,,,90,0
54235,note_on,0,0,2,,,,,,,,,1,,,,72,0
54235,note_on,20,0,2,,,,,,,,,1,,,,78,0
54236,note_on,110,0,8,,,,,,,,,12,,,,68,0
54240,note_on,10,0,6,,,,,,,,,10,,,,79,100
54240,set_tempo,120,1,0,,,,,,355030,,,,,,,,
54241,note_on,110,0,9,,,,,,,,,13,,,,56,0
54242,note_on,110,0,3,,,,,,,,,3,,,,56,0
54243,note_on,10,0,7,,,,,,,,,11,,,,71,100
54243,note_on,10,0,1,,,,,,,,,0,,,,91,82
54243,note_on,110,0,10,,,,,,,,,14,,,,44,0
54244,note_on,120,0,4,,,,,,,,,4,,,,60,0
54244,note_on,0,0,4,,,,,,,,,4,,,,62,86
54245,note_on,10,0,2,,,,,,,,,1,,,,71,81
54245,note_on,0,0,2,,,,,,,,,1,,,,79,81
54246,note_on,10,0,8,,,,,,,,,12,,,,67,98
54246,note_on,0,0,5,,,,,,,,,5,,,,62,86
54246,note_on,120,0,5,,,,,,,,,5,,,,60,0
54251,note_on,10,0,9,,,,,,,,,13,,,,55,89
54252,note_on,10,0,3,,,,,,,,,3,,,,55,81
54253,note_on,10,0,10,,,,,,,,,14,,,,43,73
54270,note_on,30,0,6,,,,,,,,,10,,,,79,0
54273,note_on,30,0,7,,,,,,,,,11,,,,71,0
54273,note_on,30,0,1,,,,,,,,,0,,,,91,0
54275,note_on,0,0,2,,,,,,,,,1,,,,71,0
54275,note_on,30,0,2,,,,,,,,,1,,,,79,0
54276,note_on,30,0,8,,,,,,,,,12,,,,67,0
54280,note_on,36,0,4,,,,,,,,,4,,,,62,0
54281,note_on,30,0,9,,,,,,,,,13,,,,55,0
54282,note_on,30,0,3,,,,,,,,,3,,,,55,0
54282,note_on,36,0,5,,,,,,,,,5,,,,62,0
54283,note_on,30,0,10,,,,,,,,,14,,,,43,0
54300,note_on,30,0,6,,,,,,,,,10,,,,79,100
54303,note_on,30,0,1,,,,,,,,,0,,,,91,82
54303,note_on,30,0,7,,,,,,,,,11,,,,71,100
54304,note_on,24,0,4,,,,,,,,,4,,,,62,86
54305,note_on,0,0,2,,,,,,,,,1,,,,71,81
54305,note_on,30,0,2,,,,,,,,,1,,,,79,81
54306,note_on,30,0,8,,,,,,,,,12,,,,67,98
54306,note_on,24,0,5,,,,,,,,,5,,,,62,86
54311,note_on,30,0,9,,,,,,,,,13,,,,55,89
54312,note_on,30,0,3,,,,,,,,,3,,,,55,81
54313,note_on,30,0,10,,,,,,,,,14,,,,43,73
54330,note_on,30,0,6,,,,,,,,,10,,,,79,0
54333,note_on,30,0,7,,,,,,,,,11,,,,71,0
54333,note_on,30,0,1,,,,,,,,,0,,,,91,0
54335,note_on,0,0,2,,,,,,,,,1,,,,79,0
54335,note_on,30,0,2,,,,,,,,,1,,,,71,0
54336,note_on,30,0,8,,,,,,,,,12,,,,67,0
54340,note_on,36,0,4,,,,,,,,,4,,,,62,0
54341,note_on,30,0,9,,,,,,,,,13,,,,55,0
54342,note_on,30,0,3,,,,,,,,,3,,,,55,0
54342,note_on,36,0,5,,,,,,,,,5,,,,62,0
54343,note_on,30,0,10,,,,,,,,,14,,,,43,0
54360,set_tempo,120,1,0,,,,,,382166,,,,,,,,
54360,note_on,30,0,6,,,,,,,,,10,,,,76,100
54363,note_on,30,0,7,,,,,,,,,11,,,,70,100
54363,note_on,30,0,1,,,,,,,,,0,,,,88,82
54364,note_on,24,0,4,,,,,,,,,4,,,,60,86
54365,note_on,0,0,2,,,,,,,,,1,,,,70,81
54365,note_on,30,0,2,,,,,,,,,1,,,,76,81
54366,note_on,30,0,8,,,,,,,,,12,,,,60,98
54366,note_on,24,0,5,,,,,,,,,5,,,,60,86
54371,note_on,30,0,9,,,,,,,,,13,,,,60,89
54372,note_on,30,0,3,,,,,,,,,3,,,,60,81
54373,note_on,30,0,10,,,,,,,,,14,,,,48,73
54390,note_on,30,0,6,,,,,,,,,10,,,,76,0
54393,note_on,30,0,7,,,,,,,,,11,,,,70,0
54393,note_on,30,0,1,,,,,,,,,0,,,,88,0
54395,note_on,0,0,2,,,,,,,,,1,,,,76,0
54395,note_on,30,0,2,,,,,,,,,1,,,,70,0
54396,note_on,30,0,8,,,,,,,,,12,,,,60,0
54400,note_on,36,0,4,,,,,,,,,4,,,,60,0
54401,note_on,30,0,9,,,,,,,,,13,,,,60,0
54402,note_on,36,0,5,,,,,,,,,5,,,,60,0
54402,note_on,30,0,3,,,,,,,,,3,,,,60,0
54403,note_on,30,0,10,,,,,,,,,14,,,,48,0
54420,note_on,30,0,6,,,,,,,,,10,,,,76,100
54423,note_on,30,0,7,,,,,,,,,11,,,,70,100
54423,note_on,30,0,1,,,,,,,,,0,,,,88,82
54424,note_on,24,0,4,,,,,,,,,4,,,,60,86
54425,note_on,30,0,2,,,,,,,,,1,,,,76,81
54425,note_on,0,0,2,,,,,,,,,1,,,,70,81
54426,note_on,24,0,5,,,,,,,,,5,,,,60,86
54426,note_on,30,0,8,,,,,,,,,12,,,,60,98
54431,note_on,30,0,9,,,,,,,,,13,,,,60,89
54432,note_on,30,0,3,,,,,,,,,3,,,,60,81
54433,note_on,30,0,10,,,,,,,,,14,,,,48,73
54450,note_on,30,0,6,,,,,,,,,10,,,,76,0
54453,note_on,30,0,7,,,,,,,,,11,,,,70,0
54453,note_on,30,0,1,,,,,,,,,0,,,,88,0
54455,note_on,30,0,2,,,,,,,,,1,,,,70,0
54455,note_on,0,0,2,,,,,,,,,1,,,,76,0
54456,note_on,30,0,8,,,,,,,,,12,,,,60,0
54460,note_on,36,0,4,,,,,,,,,4,,,,60,0
54461,note_on,30,0,9,,,,,,,,,13,,,,60,0
54462,note_on,30,0,3,,,,,,,,,3,,,,60,0
54462,note_on,36,0,5,,,,,,,,,5,,,,60,0
54463,note_on,30,0,10,,,,,,,,,14,,,,48,0
54480,note_on,30,0,6,,,,,,,,,10,,,,77,100
54480,set_tempo,120,1,0,,,,,,368098,,,,,,,,
54483,note_on,30,0,7,,,,,,,,,11,,,,69,100
54483,note_on,30,0,1,,,,,,,,,0,,,,89,82
54484,note_on,24,0,4,,,,,,,,,4,,,,60,86
54485,note_on,0,0,2,,,,,,,,,1,,,,77,81
54485,note_on,30,0,2,,,,,,,,,1,,,,69,81
54486,note_on,24,0,5,,,,,,,,,5,,,,60,86
54486,note_on,30,0,8,,,,,,,,,12,,,,65,98
54491,note_on,30,0,9,,,,,,,,,13,,,,53,89
54492,note_on,30,0,3,,,,,,,,,3,,,,53,81
54493,note_on,30,0,10,,,,,,,,,14,,,,41,73
54510,note_on,30,0,6,,,,,,,,,10,,,,77,0
54513,note_on,30,0,1,,,,,,,,,0,,,,89,0
54513,note_on,30,0,7,,,,,,,,,11,,,,69,0
54515,note_on,30,0,2,,,,,,,,,1,,,,77,0
54515,note_on,0,0,2,,,,,,,,,1,,,,69,0
54516,note_on,30,0,8,,,,,,,,,12,,,,65,0
54520,note_on,36,0,4,,,,,,,,,4,,,,60,0
54521,note_on,30,0,9,,,,,,,,,13,,,,53,0
54522,note_on,36,0,5,,,,,,,,,5,,,,60,0
54522,note_on,30,0,3,,,,,,,,,3,,,,53,0
54523,note_on,30,0,10,,,,,,,,,14,,,,41,0
54540,note_on,30,0,6,,,,,,,,,10,,,,74,100
54543,note_on,30,0,7,,,,,,,,,11,,,,68,100
54543,note_on,30,0,1,,,,,,,,,0,,,,86,82
54544,note_on,24,0,4,,,,,,,,,4,,,,58,86
54545,note_on,30,0,2,,,,,,,,,1,,,,74,81
54545,note_on,0,0,2,,,,,,,,,1,,,,68,81
54546,note_on,24,0,5,,,,,,,,,5,,,,58,86
54546,note_on,30,0,8,,,,,,,,,12,,,,58,98
54551,note_on,30,0,9,,,,,,,,,13,,,,58,89
54552,note_on,30,0,3,,,,,,,,,3,,,,58,81
54553,note_on,30,0,10,,,,,,,,,14,,,,46,73
54570,note_on,30,0,6,,,,,,,,,10,,,,74,0
54573,note_on,30,0,7,,,,,,,,,11,,,,68,0
54573,note_on,30,0,1,,,,,,,,,0,,,,86,0
54575,note_on,30,0,2,,,,,,,,,1,,,,68,0
54575,note_on,0,0,2,,,,,,,,,1,,,,74,0
54576,note_on,30,0,8,,,,,,,,,12,,,,58,0
54580,note_on,36,0,4,,,,,,,,,4,,,,58,0
54581,note_on,30,0,9,,,,,,,,,13,,,,58,0
54582,note_on,30,0,3,,,,,,,,,3,,,,58,0
54582,note_on,36,0,5,,,,,,,,,5,,,,58,0
54583,note_on,30,0,10,,,,,,,,,14,,,,46,0
54600,note_on,30,0,6,,,,,,,,,10,,,,75,100
54600,set_tempo,120,1,0,,,,,,387097,,,,,,,,
54603,note_on,30,0,7,,,,,,,,,11,,,,67,100
54603,note_on,30,0,1,,,,,,,,,0,,,,87,82
54604,note_on,24,0,4,,,,,,,,,4,,,,58,86
54605,note_on,30,0,2,,,,,,,,,1,,,,75,81
54605,note_on,0,0,2,,,,,,,,,1,,,,67,81
54606,note_on,24,0,5,,,,,,,,,5,,,,58,86
54606,note_on,30,0,8,,,,,,,,,12,,,,63,98
54611,note_on,30,0,9,,,,,,,,,13,,,,51,89
54612,note_on,30,0,3,,,,,,,,,3,,,,51,81
54613,note_on,30,0,10,,,,,,,,,14,,,,39,73
54630,note_on,30,0,6,,,,,,,,,10,,,,75,0
54633,note_on,30,0,7,,,,,,,,,11,,,,67,0
54633,note_on,30,0,1,,,,,,,,,0,,,,87,0
54635,note_on,0,0,2,,,,,,,,,1,,,,75,0
54635,note_on,30,0,2,,,,,,,,,1,,,,67,0
54636,note_on,30,0,8,,,,,,,,,12,,,,63,0
54640,note_on,36,0,4,,,,,,,,,4,,,,58,0
54641,note_on,30,0,9,,,,,,,,,13,,,,51,0
54642,note_on,36,0,5,,,,,,,,,5,,,,58,0
54642,note_on,30,0,3,,,,,,,,,3,,,,51,0
54643,note_on,30,0,10,,,,,,,,,14,,,,39,0
54660,note_on,30,0,6,,,,,,,,,10,,,,72,100
54663,note_on,30,0,1,,,,,,,,,0,,,,84,82
54663,note_on,30,0,7,,,,,,,,,11,,,,63,100
54664,note_on,24,0,4,,,,,,,,,4,,,,60,86
54665,note_on,0,0,2,,,,,,,,,1,,,,72,81
54665,note_on,30,0,2,,,,,,,,,1,,,,63,81
54666,note_on,30,0,8,,,,,,,,,12,,,,65,98
54666,note_on,24,0,5,,,,,,,,,5,,,,53,86
54671,note_on,30,0,9,,,,,,,,,13,,,,53,89
54672,note_on,30,0,3,,,,,,,,,3,,,,53,81
54673,note_on,30,0,10,,,,,,,,,14,,,,41,73
54690,note_on,30,0,6,,,,,,,,,10,,,,72,0
54693,note_on,30,0,1,,,,,,,,,0,,,,84,0
54693,note_on,30,0,7,,,,,,,,,11,,,,63,0
54695,note_on,0,0,2,,,,,,,,,1,,,,63,0
54695,note_on,30,0,2,,,,,,,,,1,,,,72,0
54696,note_on,30,0,8,,,,,,,,,12,,,,65,0
54700,note_on,36,0,4,,,,,,,,,4,,,,60,0
54701,note_on,30,0,9,,,,,,,,,13,,,,53,0
54702,note_on,36,0,5,,,,,,,,,5,,,,53,0
54702,note_on,30,0,3,,,,,,,,,3,,,,53,0
54703,note_on,30,0,10,,,,,,,,,14,,,,41,0
54720,note_on,30,0,6,,,,,,,,,10,,,,70,73
54720,set_tempo,120,1,0,,,,,,365854,,,,,,,,
54723,note_on,30,0,7,,,,,,,,,11,,,,62,73
54723,note_on,30,0,1,,,,,,,,,0,,,,82,75
54724,note_on,24,0,4,,,,,,,,,4,,,,58,78
54725,note_on,30,0,2,,,,,,,,,1,,,,62,74
54725,note_on,0,0,2,,,,,,,,,1,,,,70,74
54726,note_on,24,0,5,,,,,,,,,5,,,,50,78
54726,note_on,30,0,8,,,,,,,,,12,,,,58,71
54731,note_on,30,0,9,,,,,,,,,13,,,,46,62
54732,note_on,30,0,3,,,,,,,,,3,,,,46,74
54733,note_on,30,0,10,,,,,,,,,14,,,,34,48
54840,note_on,120,0,6,,,,,,,,,10,,,,70,0
54843,note_on,120,0,1,,,,,,,,,0,,,,82,0
54843,note_on,120,0,7,,,,,,,,,11,,,,62,0
54844,note_on,120,0,4,,,,,,,,,4,,,,58,0
54845,note_on,0,0,2,,,,,,,,,1,,,,62,0
54845,note_on,120,0,2,,,,,,,,,1,,,,70,0
54846,note_on,120,0,5,,,,,,,,,5,,,,50,0
54846,note_on,120,0,8,,,,,,,,,12,,,,58,0
54851,note_on,120,0,9,,,,,,,,,13,,,,46,0
54852,note_on,120,0,3,,,,,,,,,3,,,,46,0
54853,note_on,120,0,10,,,,,,,,,14,,,,34,0
54960,control_change,120,0,6,,,,,,,,,10,11,37,,,
54960,note_on,0,0,6,,,,,,,,,10,,,,74,100
54960,set_tempo,240,1,0,,,,,,370370,,,,,,,,
54963,control_change,120,0,7,,,,,,,,,11,11,37,,,
54963,note_on,0,0,7,,,,,,,,,11,,,,70,100
55020,note_on,60,0,6,,,,,,,,,10,,,,74,0
55020,note_on,0,0,6,,,,,,,,,10,,,,77,100
55023,note_on,0,0,7,,,,,,,,,11,,,,74,100
55023,note_on,60,0,7,,,,,,,,,11,,,,70,0
55070,note_on,50,0,6,,,,,,,,,10,,,,77,0
55073,note_on,50,0,7,,,,,,,,,11,,,,74,0
55080,set_tempo,120,1,0,,,,,,382166,,,,,,,,
55080,note_on,10,0,6,,,,,,,,,10,,,,75,100
55083,note_on,10,0,7,,,,,,,,,11,,,,72,100
55110,note_on,30,0,6,,,,,,,,,10,,,,75,0
55113,note_on,30,0,7,,,,,,,,,11,,,,72,0
55140,note_on,30,0,6,,,,,,,,,10,,,,72,100
55143,note_on,30,0,7,,,,,,,,,11,,,,69,100
55170,note_on,30,0,6,,,,,,,,,10,,,,72,0
55173,note_on,30,0,7,,,,,,,,,11,,,,69,0
55200,set_tempo,120,1,0,,,,,,362538,,,,,,,,
55200,note_on,30,0,6,,,,,,,,,10,,,,74,100
55203,note_on,30,0,7,,,,,,,,,11,,,,70,100
55260,note_on,60,0,6,,,,,,,,,10,,,,74,0
55260,note_on,0,0,6,,,,,,,,,10,,,,77,100
55263,note_on,60,0,7,,,,,,,,,11,,,,70,0
55263,note_on,0,0,7,,,,,,,,,11,,,,74,100
55310,note_on,50,0,6,,,,,,,,,10,,,,77,0
55313,note_on,50,0,7,,,,,,,,,11,,,,74,0
55320,set_tempo,120,1,0,,,,,,382166,,,,,,,,
55320,note_on,10,0,6,,,,,,,,,10,,,,75,100
55323,note_on,10,0,7,,,,,,,,,11,,,,72,100
55350,note_on,30,0,6,,,,,,,,,10,,,,75,0
55353,note_on,30,0,7,,,,,,,,,11,,,,72,0
55380,note_on,30,0,6,,,,,,,,,10,,,,72,100
55383,note_on,30,0,7,,,,,,,,,11,,,,69,100
55410,note_on,30,0,6,,,,,,,,,10,,,,72,0
55413,note_on,30,0,7,,,,,,,,,11,,,,69,0
55440,note_on,30,0,6,,,,,,,,,10,,,,74,100
55440,set_tempo,120,1,0,,,,,,363636,,,,,,,,
55443,note_on,30,0,7,,,,,,,,,11,,,,70,100
55500,note_on,0,0,6,,,,,,,,,10,,,,77,100
55500,note_on,60,0,6,,,,,,,,,10,,,,74,0
55503,note_on,0,0,7,,,,,,,,,11,,,,74,100
55503,note_on,60,0,7,,,,,,,,,11,,,,70,0
55550,note_on,50,0,6,,,,,,,,,10,,,,77,0
55553,note_on,50,0,7,,,,,,,,,11,,,,74,0
55560,set_tempo,120,1,0,,,,,,382166,,,,,,,,
55560,note_on,10,0,6,,,,,,,,,10,,,,75,100
55563,note_on,10,0,7,,,,,,,,,11,,,,72,100
55590,note_on,30,0,6,,,,,,,,,10,,,,75,0
55593,note_on,30,0,7,,,,,,,,,11,,,,72,0
55620,note_on,30,0,6,,,,,,,,,10,,,,72,100
55623,note_on,30,0,7,,,,,,,,,11,,,,69,100
55650,note_on,30,0,6,,,,,,,,,10,,,,72,0
55653,note_on,30,0,7,,,,,,,,,11,,,,69,0
55680,note_on,0,0,6,,,,,,,,,10,,,,70,100
55680,control_change,30,0,6,,,,,,,,,10,11,37,,,
55680,set_tempo,120,1,0,,,,,,375000,,,,,,,,
55683,control_change,30,0,7,,,,,,,,,11,11,37,,,
55683,note_on,0,0,7,,,,,,,,,11,,,,67,100
55704,control_change,24,0,6,,,,,,,,,10,11,38,,,
55707,control_change,24,0,7,,,,,,,,,11,11,38,,,
55728,control_change,24,0,6,,,,,,,,,10,11,39,,,
55731,control_change,24,0,7,,,,,,,,,11,11,39,,,
55740,note_on,12,0,6,,,,,,,,,10,,,,70,0
55740,note_on,0,0,6,,,,,,,,,10,,,,74,100
55743,note_on,0,0,7,,,,,,,,,11,,,,70,100
55743,note_on,12,0,7,,,,,,,,,11,,,,67,0
55752,control_change,12,0,6,,,,,,,,,10,11,40,,,
55755,control_change,12,0,7,,,,,,,,,11,11,40,,,
55776,control_change,24,0,6,,,,,,,,,10,11,41,,,
55779,control_change,24,0,7,,,,,,,,,11,11,41,,,
55790,note_on,14,0,6,,,,,,,,,10,,,,74,0
55793,note_on,14,0,7,,,,,,,,,11,,,,70,0
55800,note_on,0,0,6,,,,,,,,,10,,,,72,100
55800,set_tempo,120,1,0,,,,,,382166,,,,,,,,
55800,control_change,10,0,6,,,,,,,,,10,11,42,,,
55803,control_change,10,0,7,,,,,,,,,11,11,42,,,
55803,note_on,0,0,7,,,,,,,,,11,,,,69,100
55824,control_change,24,0,6,,,,,,,,,10,11,43,,,
55827,control_change,24,0,7,,,,,,,,,11,11,43,,,
55830,note_on,6,0,6,,,,,,,,,10,,,,72,0
55833,note_on,6,0,7,,,,,,,,,11,,,,69,0
55848,control_change,18,0,6,,,,,,,,,10,11,44,,,
55851,control_change,18,0,7,,,,,,,,,11,11,44,,,
55860,note_on,12,0,6,,,,,,,,,10,,,,69,100
55863,note_on,12,0,7,,,,,,,,,11,,,,65,100
55872,control_change,12,0,6,,,,,,,,,10,11,45,,,
55875,control_change,12,0,7,,,,,,,,,11,11,45,,,
55890,note_on,18,0,6,,,,,,,,,10,,,,69,0
55893,note_on,18,0,7,,,,,,,,,11,,,,65,0
55896,control_change,6,0,6,,,,,,,,,10,11,46,,,
55899,control_change,6,0,7,,,,,,,,,11,11,46,,,
55920,control_change,24,0,6,,,,,,,,,10,11,47,,,
55920,set_tempo,120,1,0,,,,,,363636,,,,,,,,
55920,note_on,0,0,6,,,,,,,,,10,,,,67,100
55923,control_change,24,0,7,,,,,,,,,11,11,47,,,
55923,note_on,0,0,7,,,,,,,,,11,,,,64,100
55923,control_change,1080,0,1,,,,,,,,,0,11,27,,,
55923,note_on,0,0,1,,,,,,,,,0,,,,82,121
55925,control_change,1080,0,2,,,,,,,,,1,11,27,,,
55925,note_on,0,0,2,,,,,,,,,1,,,,70,120
55926,note_on,0,0,8,,,,,,,,,12,,,,60,98
55926,control_change,1080,0,8,,,,,,,,,12,11,27,,,
55931,note_on,0,0,9,,,,,,,,,13,,,,48,89
55931,control_change,1080,0,9,,,,,,,,,13,11,27,,,
55932,control_change,1080,0,3,,,,,,,,,3,11,27,,,
55932,note_on,0,0,3,,,,,,,,,3,,,,48,81
55932,note_on,0,0,3,,,,,,,,,3,,,,60,81
55933,control_change,1080,0,10,,,,,,,,,14,11,27,,,
55933,note_on,0,0,10,,,,,,,,,14,,,,36,73
55944,control_change,24,0,6,,,,,,,,,10,11,46,,,
55946,control_change,23,0,1,,,,,,,,,0,11,28,,,
55947,control_change,24,0,7,,,,,,,,,11,11,46,,,
55948,control_change,23,0,2,,,,,,,,,1,11,28,,,
55949,control_change,23,0,8,,,,,,,,,12,11,28,,,
55954,control_change,23,0,9,,,,,,,,,13,11,28,,,
55955,control_change,23,0,3,,,,,,,,,3,11,28,,,
55956,control_change,23,0,10,,,,,,,,,14,11,28,,,
55968,control_change,24,0,6,,,,,,,,,10,11,45,,,
55970,control_change,24,0,1,,,,,,,,,0,11,29,,,
55971,control_change,24,0,7,,,,,,,,,11,11,45,,,
55972,control_change,24,0,2,,,,,,,,,1,11,29,,,
55973,control_change,24,0,8,,,,,,,,,12,11,29,,,
55978,control_change,24,0,9,,,,,,,,,13,11,29,,,
55979,control_change,24,0,3,,,,,,,,,3,11,29,,,
55980,control_change,24,0,10,,,,,,,,,14,11,29,,,
55983,note_on,0,0,1,,,,,,,,,0,,,,86,121
55983,note_on,13,0,1,,,,,,,,,0,,,,82,0
55985,note_on,0,0,2,,,,,,,,,1,,,,74,120
55985,note_on,13,0,2,,,,,,,,,1,,,,70,0
55992,control_change,24,0,6,,,,,,,,,10,11,44,,,
55994,control_change,11,0,1,,,,,,,,,0,11,30,,,
55995,control_change,24,0,7,,,,,,,,,11,11,44,,,
55996,control_change,11,0,2,,,,,,,,,1,11,30,,,
55997,control_change,24,0,8,,,,,,,,,12,11,30,,,
56002,control_change,24,0,9,,,,,,,,,13,11,30,,,
56003,control_change,24,0,3,,,,,,,,,3,11,30,,,
56004,control_change,24,0,10,,,,,,,,,14,11,30,,,
56016,control_change,24,0,6,,,,,,,,,10,11,43,,,
56018,control_change,24,0,1,,,,,,,,,0,11,31,,,
56019,control_change,24,0,7,,,,,,,,,11,11,43,,,
56020,control_change,24,0,2,,,,,,,,,1,11,31,,,
56021,control_change,24,0,8,,,,,,,,,12,11,31,,,
56026,control_change,24,0,9,,,,,,,,,13,11,31,,,
56027,control_change,24,0,3,,,,,,,,,3,11,31,,,
56028,control_change,24,0,10,,,,,,,,,14,11,31,,,
56040,control_change,24,0,6,,,,,,,,,10,11,42,,,
56040,set_tempo,120,1,0,,,,,,382166,,,,,,,,
56042,control_change,24,0,1,,,,,,,,,0,11,32,,,
56043,note_on,0,0,1,,,,,,,,,0,,,,82,121
56043,note_on,1,0,1,,,,,,,,,0,,,,86,0
56043,control_change,24,0,7,,,,,,,,,11,11,42,,,
56044,control_change,24,0,2,,,,,,,,,1,11,32,,,
56045,note_on,0,0,2,,,,,,,,,1,,,,70,120
56045,note_on,1,0,2,,,,,,,,,1,,,,74,0
56045,control_change,24,0,8,,,,,,,,,12,11,32,,,
56050,control_change,24,0,9,,,,,,,,,13,11,32,,,
56051,control_change,24,0,3,,,,,,,,,3,11,32,,,
56052,control_change,24,0,10,,,,,,,,,14,11,32,,,
56064,control_change,24,0,6,,,,,,,,,10,11,41,,,
56066,control_change,23,0,1,,,,,,,,,0,11,33,,,
56067,control_change,24,0,7,,,,,,,,,11,11,41,,,
56068,control_change,23,0,2,,,,,,,,,1,11,33,,,
56069,control_change,24,0,8,,,,,,,,,12,11,33,,,
56074,control_change,24,0,9,,,,,,,,,13,11,33,,,
56075,control_change,24,0,3,,,,,,,,,3,11,33,,,
56076,control_change,24,0,10,,,,,,,,,14,11,33,,,
56088,control_change,24,0,6,,,,,,,,,10,11,40,,,
56090,control_change,24,0,1,,,,,,,,,0,11,34,,,
56091,control_change,24,0,7,,,,,,,,,11,11,40,,,
56092,control_change,24,0,2,,,,,,,,,1,11,34,,,
56093,control_change,24,0,8,,,,,,,,,12,11,34,,,
56098,control_change,24,0,9,,,,,,,,,13,11,34,,,
56099,control_change,24,0,3,,,,,,,,,3,11,34,,,
56100,control_change,24,0,10,,,,,,,,,14,11,34,,,
56100,note_on,12,0,6,,,,,,,,,10,,,,67,0
56100,note_on,0,0,6,,,,,,,,,10,,,,69,100
56103,note_on,0,0,1,,,,,,,,,0,,,,81,121
56103,note_on,13,0,1,,,,,,,,,0,,,,82,0
56103,note_on,12,0,7,,,,,,,,,11,,,,64,0
56103,note_on,0,0,7,,,,,,,,,11,,,,65,100
56105,note_on,13,0,2,,,,,,,,,1,,,,70,0
56105,note_on,0,0,2,,,,,,,,,1,,,,69,120
56112,control_change,12,0,6,,,,,,,,,10,11,39,,,
56114,control_change,11,0,1,,,,,,,,,0,11,35,,,
56115,control_change,12,0,7,,,,,,,,,11,11,39,,,
56116,control_change,11,0,2,,,,,,,,,1,11,35,,,
56117,control_change,24,0,8,,,,,,,,,12,11,35,,,
56122,control_change,24,0,9,,,,,,,,,13,11,35,,,
56123,control_change,24,0,3,,,,,,,,,3,11,35,,,
56124,control_change,24,0,10,,,,,,,,,14,11,35,,,
56136,control_change,24,0,6,,,,,,,,,10,11,38,,,
56138,control_change,24,0,1,,,,,,,,,0,11,36,,,
56139,control_change,24,0,7,,,,,,,,,11,11,38,,,
56140,control_change,24,0,2,,,,,,,,,1,11,36,,,
56141,control_change,24,0,8,,,,,,,,,12,11,36,,,
56146,control_change,24,0,9,,,,,,,,,13,11,36,,,
56147,control_change,24,0,3,,,,,,,,,3,11,36,,,
56148,control_change,24,0,10,,,,,,,,,14,11,36,,,
56150,note_on,14,0,6,,,,,,,,,10,,,,69,0
56153,note_on,15,0,1,,,,,,,,,0,,,,81,0
56153,note_on,14,0,7,,,,,,,,,11,,,,65,0
56155,note_on,15,0,2,,,,,,,,,1,,,,69,0
56156,note_on,15,0,8,,,,,,,,,12,,,,60,0
56160,note_on,0,0,6,,,,,,,,,10,,,,70,100
56160,control_change,10,0,6,,,,,,,,,10,11,37,,,
56160,set_tempo,120,1,0,,,,,,360360,,,,,,,,
56162,control_change,9,0,1,,,,,,,,,0,11,37,,,
56162,note_on,15,0,3,,,,,,,,,3,,,,60,0
56163,note_on,0,0,7,,,,,,,,,11,,,,67,100
56163,note_on,1,0,1,,,,,,,,,0,,,,79,121
56163,control_change,10,0,7,,,,,,,,,11,11,37,,,
56164,control_change,9,0,2,,,,,,,,,1,11,37,,,
56165,note_on,1,0,2,,,,,,,,,1,,,,67,120
56165,control_change,9,0,8,,,,,,,,,12,11,37,,,
56166,note_on,1,0,8,,,,,,,,,12,,,,64,98
56170,control_change,24,0,9,,,,,,,,,13,11,37,,,
56171,control_change,9,0,3,,,,,,,,,3,11,37,,,
56172,note_on,1,0,3,,,,,,,,,3,,,,64,81
56172,control_change,24,0,10,,,,,,,,,14,11,37,,,
56220,note_on,0,0,6,,,,,,,,,10,,,,74,100
56220,note_on,60,0,6,,,,,,,,,10,,,,70,0
56223,note_on,60,0,7,,,,,,,,,11,,,,67,0
56223,note_on,0,0,7,,,,,,,,,11,,,,70,100
56280,note_on,60,0,6,,,,,,,,,10,,,,74,0
56280,note_on,0,0,6,,,,,,,,,10,,,,72,100
56280,set_tempo,120,1,0,,,,,,382166,,,,,,,,
56283,note_on,60,0,7,,,,,,,,,11,,,,70,0
56283,note_on,0,0,7,,,,,,,,,11,,,,69,100
56340,note_on,60,0,6,,,,,,,,,10,,,,72,0
56340,note_on,0,0,6,,,,,,,,,10,,,,69,100
56343,note_on,0,0,1,,,,,,,,,0,,,,81,121
56343,note_on,60,0,7,,,,,,,,,11,,,,69,0
56343,note_on,0,0,7,,,,,,,,,11,,,,65,100
56343,note_on,180,0,1,,,,,,,,,0,,,,79,0
56345,note_on,180,0,2,,,,,,,,,1,,,,67,0
56345,note_on,0,0,2,,,,,,,,,1,,,,69,120
56346,note_on,180,0,8,,,,,,,,,12,,,,64,0
56346,note_on,0,0,8,,,,,,,,,12,,,,65,98
56352,note_on,180,0,3,,,,,,,,,3,,,,64,0
56352,note_on,0,0,3,,,,,,,,,3,,,,65,81
56390,note_on,50,0,6,,,,,,,,,10,,,,69,0
56393,note_on,50,0,1,,,,,,,,,0,,,,81,0
56393,note_on,50,0,7,,,,,,,,,11,,,,65,0
56395,note_on,50,0,2,,,,,,,,,1,,,,69,0
56396,note_on,50,0,8,,,,,,,,,12,,,,65,0
56400,note_on,10,0,6,,,,,,,,,10,,,,67,100
56400,set_tempo,120,1,0,,,,,,360360,,,,,,,,
56402,note_on,50,0,3,,,,,,,,,3,,,,65,0
56403,note_on,10,0,7,,,,,,,,,11,,,,64,100
56403,note_on,10,0,1,,,,,,,,,0,,,,82,121
56405,note_on,10,0,2,,,,,,,,,1,,,,70,120
56406,note_on,10,0,8,,,,,,,,,12,,,,60,98
56412,note_on,10,0,3,,,,,,,,,3,,,,60,81
56463,note_on,60,0,1,,,,,,,,,0,,,,82,0
56463,note_on,0,0,1,,,,,,,,,0,,,,86,121
56465,note_on,0,0,2,,,,,,,,,1,,,,74,120
56465,note_on,60,0,2,,,,,,,,,1,,,,70,0
56520,set_tempo,120,1,0,,,,,,382166,,,,,,,,
56523,note_on,0,0,1,,,,,,,,,0,,,,82,121
56523,note_on,60,0,1,,,,,,,,,0,,,,86,0
56525,note_on,60,0,2,,,,,,,,,1,,,,74,0
56525,note_on,0,0,2,,,,,,,,,1,,,,70,120
56580,note_on,0,0,6,,,,,,,,,10,,,,69,100
56580,note_on,180,0,6,,,,,,,,,10,,,,67,0
56583,note_on,180,0,7,,,,,,,,,11,,,,64,0
56583,note_on,0,0,7,,,,,,,,,11,,,,65,100
56583,note_on,60,0,1,,,,,,,,,0,,,,82,0
56583,note_on,0,0,1,,,,,,,,,0,,,,81,121
56585,note_on,0,0,2,,,,,,,,,1,,,,69,120
56585,note_on,60,0,2,,,,,,,,,1,,,,70,0
56630,note_on,50,0,6,,,,,,,,,10,,,,69,0
56633,note_on,50,0,7,,,,,,,,,11,,,,65,0
56633,note_on,50,0,1,,,,,,,,,0,,,,81,0
56635,note_on,50,0,2,,,,,,,,,1,,,,69,0
56636,note_on,230,0,8,,,,,,,,,12,,,,60,0
56640,set_tempo,120,1,0,,,,,,358209,,,,,,,,
56640,note_on,10,0,6,,,,,,,,,10,,,,70,100
56643,note_on,10,0,1,,,,,,,,,0,,,,79,121
56643,note_on,10,0,7,,,,,,,,,11,,,,67,100
56645,note_on,10,0,2,,,,,,,,,1,,,,67,120
56646,note_on,10,0,8,,,,,,,,,12,,,,64,98
56652,note_on,240,0,3,,,,,,,,,3,,,,60,0
56652,note_on,0,0,3,,,,,,,,,3,,,,64,81
56700,note_on,0,0,6,,,,,,,,,10,,,,74,100
56700,note_on,60,0,6,,,,,,,,,10,,,,70,0
56703,note_on,60,0,7,,,,,,,,,11,,,,67,0
56703,note_on,0,0,7,,,,,,,,,11,,,,70,100
56760,set_tempo,120,1,0,,,,,,382166,,,,,,,,
56760,note_on,60,0,6,,,,,,,,,10,,,,74,0
56760,note_on,0,0,6,,,,,,,,,10,,,,72,100
56763,note_on,0,0,7,,,,,,,,,11,,,,69,100
56763,note_on,60,0,7,,,,,,,,,11,,,,70,0
56820,note_on,60,0,6,,,,,,,,,10,,,,72,0
56820,note_on,0,0,6,,,,,,,,,10,,,,69,100
56823,note_on,0,0,1,,,,,,,,,0,,,,81,121
56823,note_on,180,0,1,,,,,,,,,0,,,,79,0
56823,note_on,0,0,7,,,,,,,,,11,,,,65,100
56823,note_on,60,0,7,,,,,,,,,11,,,,69,0
56825,note_on,0,0,2,,,,,,,,,1,,,,69,120
56825,note_on,180,0,2,,,,,,,,,1,,,,67,0
56826,note_on,0,0,8,,,,,,,,,12,,,,65,98
56826,note_on,180,0,8,,,,,,,,,12,,,,64,0
56832,note_on,0,0,3,,,,,,,,,3,,,,65,81
56832,note_on,180,0,3,,,,,,,,,3,,,,64,0
56870,note_on,50,0,6,,,,,,,,,10,,,,69,0
56873,note_on,50,0,1,,,,,,,,,0,,,,81,0
56873,note_on,50,0,7,,,,,,,,,11,,,,65,0
56875,note_on,50,0,2,,,,,,,,,1,,,,69,0
56876,note_on,50,0,8,,,,,,,,,12,,,,65,0
56880,note_on,10,0,6,,,,,,,,,10,,,,67,100
56880,set_tempo,120,1,0,,,,,,355030,,,,,,,,
56882,note_on,50,0,3,,,,,,,,,3,,,,65,0
56883,note_on,10,0,7,,,,,,,,,11,,,,64,100
56883,note_on,10,0,1,,,,,,,,,0,,,,82,121
56885,note_on,10,0,2,,,,,,,,,1,,,,70,120
56886,note_on,10,0,8,,,,,,,,,12,,,,60,98
56892,note_on,10,0,3,,,,,,,,,3,,,,67,81
56910,note_on,30,0,6,,,,,,,,,10,,,,67,0
56940,note_on,30,0,6,,,,,,,,,10,,,,69,100
56943,note_on,60,0,1,,,,,,,,,0,,,,82,0
56943,note_on,0,0,1,,,,,,,,,0,,,,81,121
56945,note_on,0,0,2,,,,,,,,,1,,,,69,120
56945,note_on,60,0,2,,,,,,,,,1,,,,70,0
56970,note_on,30,0,6,,,,,,,,,10,,,,69,0
56993,note_on,50,0,1,,,,,,,,,0,,,,81,0
56995,note_on,50,0,2,,,,,,,,,1,,,,69,0
57000,note_on,30,0,6,,,,,,,,,10,,,,70,100
57000,set_tempo,120,1,0,,,,,,382166,,,,,,,,
57003,note_on,10,0,1,,,,,,,,,0,,,,82,121
57005,note_on,10,0,2,,,,,,,,,1,,,,70,120
57030,note_on,30,0,6,,,,,,,,,10,,,,70,0
57039,note_on,36,0,1,,,,,,,,,0,,,,82,0
57041,note_on,36,0,2,,,,,,,,,1,,,,70,0
57060,note_on,30,0,6,,,,,,,,,10,,,,72,100
57063,note_on,24,0,1,,,,,,,,,0,,,,84,121
57065,note_on,24,0,2,,,,,,,,,1,,,,72,120
57090,note_on,30,0,6,,,,,,,,,10,,,,72,0
57099,note_on,36,0,1,,,,,,,,,0,,,,84,0
57101,note_on,36,0,2,,,,,,,,,1,,,,72,0
57118,note_on,235,0,7,,,,,,,,,11,,,,64,0
57120,set_tempo,120,1,0,,,,,,368098,,,,,,,,
57120,control_change,30,0,6,,,,,,,,,10,11,37,,,
57120,note_on,0,0,6,,,,,,,,,10,,,,69,100
57121,note_on,951,0,9,,,,,,,,,13,,,,48,0
57122,note_on,230,0,3,,,,,,,,,3,,,,48,0
57123,note_on,951,0,10,,,,,,,,,14,,,,36,0
57123,note_on,0,0,1,,,,,,,,,0,,,,81,105
57123,control_change,24,0,1,,,,,,,,,0,11,37,,,
57123,control_change,5,0,7,,,,,,,,,11,11,37,,,
57123,note_on,0,0,7,,,,,,,,,11,,,,65,100
57125,control_change,24,0,2,,,,,,,,,1,11,37,,,
57125,note_on,0,0,2,,,,,,,,,1,,,,69,104
57125,note_on,0,0,2,,,,,,,,,1,,,,65,104
57131,note_on,10,0,9,,,,,,,,,13,,,,53,89
57132,note_on,10,0,3,,,,,,,,,3,,,,67,0
57132,note_on,0,0,3,,,,,,,,,3,,,,65,81
57132,note_on,0,0,3,,,,,,,,,3,,,,53,81
57133,note_on,10,0,10,,,,,,,,,14,,,,41,73
57138,control_change,18,0,6,,,,,,,,,10,11,40,,,
57141,control_change,18,0,1,,,,,,,,,0,11,40,,,
57141,control_change,18,0,7,,,,,,,,,11,11,40,,,
57143,control_change,18,0,2,,,,,,,,,1,11,40,,,
57150,note_on,12,0,6,,,,,,,,,10,,,,69,0
57156,control_change,6,0,6,,,,,,,,,10,11,43,,,
57159,control_change,18,0,7,,,,,,,,,11,11,43,,,
57159,note_on,18,0,1,,,,,,,,,0,,,,81,0
57159,control_change,0,0,1,,,,,,,,,0,11,43,,,
57161,note_on,18,0,2,,,,,,,,,1,,,,65,0
57161,note_on,0,0,2,,,,,,,,,1,,,,69,0
57161,control_change,0,0,2,,,,,,,,,1,11,43,,,
57173,note_on,14,0,7,,,,,,,,,11,,,,65,0
57174,control_change,18,0,6,,,,,,,,,10,11,46,,,
57177,control_change,18,0,1,,,,,,,,,0,11,46,,,
57177,control_change,4,0,7,,,,,,,,,11,11,46,,,
57179,control_change,18,0,2,,,,,,,,,1,11,46,,,
57180,note_on,6,0,6,,,,,,,,,10,,,,70,100
57183,note_on,6,0,7,,,,,,,,,11,,,,67,100
57183,note_on,6,0,1,,,,,,,,,0,,,,82,105
57185,note_on,6,0,2,,,,,,,,,1,,,,67,104
57185,note_on,0,0,2,,,,,,,,,1,,,,70,104
57192,control_change,12,0,6,,,,,,,,,10,11,49,,,
57195,control_change,12,0,1,,,,,,,,,0,11,49,,,
57195,control_change,12,0,7,,,,,,,,,11,11,49,,,
57197,control_change,12,0,2,,,,,,,,,1,11,49,,,
57210,control_change,0,0,6,,,,,,,,,10,11,52,,,
57210,note_on,18,0,6,,,,,,,,,10,,,,70,0
57213,control_change,18,0,1,,,,,,,,,0,11,52,,,
57213,control_change,0,0,7,,,,,,,,,11,11,52,,,
57213,note_on,18,0,7,,,,,,,,,11,,,,67,0
57215,control_change,18,0,2,,,,,,,,,1,11,52,,,
57219,note_on,6,0,1,,,,,,,,,0,,,,82,0
57221,note_on,6,0,2,,,,,,,,,1,,,,70,0
57221,note_on,0,0,2,,,,,,,,,1,,,,67,0
57228,control_change,18,0,6,,,,,,,,,10,11,55,,,
57231,control_change,18,0,7,,,,,,,,,11,11,55,,,
57231,control_change,12,0,1,,,,,,,,,0,11,55,,,
57233,control_change,12,0,2,,,,,,,,,1,11,55,,,
57236,note_on,350,0,8,,,,,,,,,12,,,,60,0
57240,set_tempo,120,1,0,,,,,,382166,,,,,,,,
57240,note_on,12,0,6,,,,,,,,,10,,,,72,100
57243,note_on,12,0,7,,,,,,,,,11,,,,69,100
57243,note_on,12,0,1,,,,,,,,,0,,,,84,105
57245,note_on,0,0,2,,,,,,,,,1,,,,72,104
57245,note_on,12,0,2,,,,,,,,,1,,,,69,104
57246,control_change,6,0,6,,,,,,,,,10,11,58,,,
57249,control_change,6,0,1,,,,,,,,,0,11,58,,,
57249,control_change,6,0,7,,,,,,,,,11,11,58,,,
57251,control_change,6,0,2,,,,,,,,,1,11,58,,,
57251,note_on,120,0,9,,,,,,,,,13,,,,53,0
57252,note_on,120,0,3,,,,,,,,,3,,,,53,0
57252,note_on,0,0,3,,,,,,,,,3,,,,65,0
57253,note_on,120,0,10,,,,,,,,,14,,,,41,0
57264,control_change,18,0,6,,,,,,,,,10,11,61,,,
57267,control_change,18,0,7,,,,,,,,,11,11,61,,,
57267,control_change,18,0,1,,,,,,,,,0,11,61,,,
57269,control_change,18,0,2,,,,,,,,,1,11,61,,,
57270,note_on,6,0,6,,,,,,,,,10,,,,72,0
57273,note_on,6,0,7,,,,,,,,,11,,,,69,0
57279,note_on,12,0,1,,,,,,,,,0,,,,84,0
57281,note_on,0,0,2,,,,,,,,,1,,,,69,0
57281,note_on,12,0,2,,,,,,,,,1,,,,72,0
57282,control_change,12,0,6,,,,,,,,,10,11,63,,,
57285,control_change,12,0,7,,,,,,,,,11,11,63,,,
57285,control_change,6,0,1,,,,,,,,,0,11,63,,,
57287,control_change,6,0,2,,,,,,,,,1,11,63,,,
57300,note_on,0,0,6,,,,,,,,,10,,,,74,100
57300,control_change,18,0,6,,,,,,,,,10,11,65,,,
57303,control_change,18,0,1,,,,,,,,,0,11,65,,,
57303,note_on,0,0,1,,,,,,,,,0,,,,86,105
57303,note_on,0,0,7,,,,,,,,,11,,,,70,100
57303,control_change,18,0,7,,,,,,,,,11,11,65,,,
57305,control_change,18,0,2,,,,,,,,,1,11,65,,,
57305,note_on,0,0,2,,,,,,,,,1,,,,70,104
57305,note_on,0,0,2,,,,,,,,,1,,,,74,104
57318,control_change,18,0,6,,,,,,,,,10,11,67,,,
57321,control_change,18,0,1,,,,,,,,,0,11,67,,,
57321,control_change,18,0,7,,,,,,,,,11,11,67,,,
57323,control_change,18,0,2,,,,,,,,,1,11,67,,,
57330,note_on,12,0,6,,,,,,,,,10,,,,74,0
57333,note_on,12,0,7,,,,,,,,,11,,,,70,0
57336,control_change,6,0,6,,,,,,,,,10,11,69,,,
57339,note_on,18,0,1,,,,,,,,,0,,,,86,0
57339,control_change,6,0,7,,,,,,,,,11,11,69,,,
57339,control_change,0,0,1,,,,,,,,,0,11,69,,,
57341,note_on,0,0,2,,,,,,,,,1,,,,70,0
57341,control_change,0,0,2,,,,,,,,,1,11,69,,,
57341,note_on,18,0,2,,,,,,,,,1,,,,74,0
57354,control_change,18,0,6,,,,,,,,,10,11,71,,,
57357,control_change,18,0,7,,,,,,,,,11,11,71,,,
57357,control_change,18,0,1,,,,,,,,,0,11,71,,,
57359,control_change,18,0,2,,,,,,,,,1,11,71,,,
57360,note_on,6,0,6,,,,,,,,,10,,,,75,100
57360,set_tempo,120,1,0,,,,,,363636,,,,,,,,
57363,note_on,6,0,1,,,,,,,,,0,,,,87,82
57363,note_on,6,0,7,,,,,,,,,11,,,,72,100
57364,note_on,0,0,4,,,,,,,,,4,,,,53,86
57364,control_change,2520,0,4,,,,,,,,,4,11,72,,,
57365,note_on,6,0,2,,,,,,,,,1,,,,72,81
57365,note_on,0,0,2,,,,,,,,,1,,,,75,81
57366,note_on,0,0,5,,,,,,,,,5,,,,41,86
57366,control_change,2520,0,5,,,,,,,,,5,11,72,,,
57366,note_on,0,0,8,,,,,,,,,12,,,,57,98
57366,control_change,130,0,8,,,,,,,,,12,11,72,,,
57371,note_on,0,0,9,,,,,,,,,13,,,,53,89
57371,control_change,120,0,9,,,,,,,,,13,11,72,,,
57372,control_change,120,0,3,,,,,,,,,3,11,72,,,
57372,note_on,0,0,3,,,,,,,,,3,,,,57,81
57373,control_change,120,0,10,,,,,,,,,14,11,72,,,
57373,note_on,0,0,10,,,,,,,,,14,,,,41,73
57420,note_on,0,0,6,,,,,,,,,10,,,,79,100
57420,note_on,60,0,6,,,,,,,,,10,,,,75,0
57423,note_on,60,0,1,,,,,,,,,0,,,,87,0
57423,note_on,0,0,7,,,,,,,,,11,,,,75,100
57423,note_on,0,0,1,,,,,,,,,0,,,,91,82
57423,note_on,60,0,7,,,,,,,,,11,,,,72,0
57425,note_on,0,0,2,,,,,,,,,1,,,,75,81
57425,note_on,60,0,2,,,,,,,,,1,,,,75,0
57425,note_on,0,0,2,,,,,,,,,1,,,,79,81
57425,note_on,0,0,2,,,,,,,,,1,,,,72,0
57470,note_on,50,0,6,,,,,,,,,10,,,,79,0
57473,note_on,50,0,1,,,,,,,,,0,,,,91,0
57473,note_on,50,0,7,,,,,,,,,11,,,,75,0
57475,note_on,50,0,2,,,,,,,,,1,,,,75,0
57475,note_on,0,0,2,,,,,,,,,1,,,,79,0
57480,set_tempo,120,1,0,,,,,,382166,,,,,,,,
57480,note_on,10,0,6,,,,,,,,,10,,,,75,100
57483,note_on,10,0,7,,,,,,,,,11,,,,72,100
57483,note_on,10,0,1,,,,,,,,,0,,,,87,82
57485,note_on,0,0,2,,,,,,,,,1,,,,75,81
57485,note_on,10,0,2,,,,,,,,,1,,,,72,81
57510,note_on,30,0,6,,,,,,,,,10,,,,75,0
57513,note_on,30,0,7,,,,,,,,,11,,,,72,0
57519,note_on,36,0,1,,,,,,,,,0,,,,87,0
57521,note_on,0,0,2,,,,,,,,,1,,,,72,0
57521,note_on,36,0,2,,,,,,,,,1,,,,75,0
57540,note_on,30,0,6,,,,,,,,,10,,,,74,100
57543,note_on,30,0,7,,,,,,,,,11,,,,70,100
57543,note_on,24,0,1,,,,,,,,,0,,,,86,82
57545,note_on,24,0,2,,,,,,,,,1,,,,70,81
57545,note_on,0,0,2,,,,,,,,,1,,,,74,81
57546,note_on,180,0,8,,,,,,,,,12,,,,57,0
57546,note_on,0,0,8,,,,,,,,,12,,,,58,98
57552,note_on,180,0,3,,,,,,,,,3,,,,57,0
57552,note_on,0,0,3,,,,,,,,,3,,,,58,81
57570,note_on,30,0,6,,,,,,,,,10,,,,74,0
57573,note_on,30,0,7,,,,,,,,,11,,,,70,0
57579,note_on,36,0,1,,,,,,,,,0,,,,86,0
57581,note_on,36,0,2,,,,,,,,,1,,,,74,0
57581,note_on,0,0,2,,,,,,,,,1,,,,70,0
57596,note_on,50,0,8,,,,,,,,,12,,,,58,0
57600,note_on,30,0,6,,,,,,,,,10,,,,72,100
57600,set_tempo,120,1,0,,,,,,360360,,,,,,,,
57601,note_on,230,0,9,,,,,,,,,13,,,,53,0
57602,note_on,50,0,3,,,,,,,,,3,,,,58,0
57603,note_on,30,0,7,,,,,,,,,11,,,,69,100
57603,note_on,24,0,1,,,,,,,,,0,,,,84,82
57603,note_on,230,0,10,,,,,,,,,14,,,,41,0
57605,note_on,0,0,2,,,,,,,,,1,,,,69,81
57605,note_on,24,0,2,,,,,,,,,1,,,,72,81
57606,note_on,10,0,8,,,,,,,,,12,,,,65,98
57611,note_on,10,0,9,,,,,,,,,13,,,,53,89
57612,note_on,10,0,3,,,,,,,,,3,,,,65,81
57613,note_on,10,0,10,,,,,,,,,14,,,,41,73
57666,note_on,0,0,8,,,,,,,,,12,,,,64,98
57666,note_on,60,0,8,,,,,,,,,12,,,,65,0
57672,note_on,0,0,3,,,,,,,,,3,,,,64,81
57672,note_on,60,0,3,,,,,,,,,3,,,,65,0
57720,set_tempo,120,1,0,,,,,,382166,,,,,,,,
57726,note_on,60,0,8,,,,,,,,,12,,,,64,0
57726,note_on,0,0,8,,,,,,,,,12,,,,63,98
57732,note_on,60,0,3,,,,,,,,,3,,,,64,0
57732,note_on,0,0,3,,,,,,,,,3,,,,63,81
57780,note_on,180,0,6,,,,,,,,,10,,,,72,0
57780,note_on,0,0,6,,,,,,,,,10,,,,74,100
57783,note_on,180,0,1,,,,,,,,,0,,,,84,0
57783,note_on,180,0,7,,,,,,,,,11,,,,69,0
57783,note_on,0,0,7,,,,,,,,,11,,,,70,100
57783,note_on,0,0,1,,,,,,,,,0,,,,86,82
57785,note_on,180,0,2,,,,,,,,,1,,,,69,0
57785,note_on,0,0,2,,,,,,,,,1,,,,72,0
57785,note_on,0,0,2,,,,,,,,,1,,,,74,81
57785,note_on,0,0,2,,,,,,,,,1,,,,70,81
57786,note_on,0,0,8,,,,,,,,,12,,,,62,98
57786,note_on,60,0,8,,,,,,,,,12,,,,63,0
57792,note_on,0,0,3,,,,,,,,,3,,,,62,81
57792,note_on,60,0,3,,,,,,,,,3,,,,63,0
57830,note_on,50,0,6,,,,,,,,,10,,,,74,0
57833,note_on,50,0,1,,,,,,,,,0,,,,86,0
57833,note_on,50,0,7,,,,,,,,,11,,,,70,0
57835,note_on,50,0,2,,,,,,,,,1,,,,74,0
57835,note_on,0,0,2,,,,,,,,,1,,,,70,0
57836,note_on,50,0,8,,,,,,,,,12,,,,62,0
57840,note_on,10,0,6,,,,,,,,,10,,,,75,100
57840,set_tempo,120,1,0,,,,,,359281,,,,,,,,
57841,note_on,230,0,9,,,,,,,,,13,,,,53,0
57842,note_on,50,0,3,,,,,,,,,3,,,,62,0
57843,note_on,10,0,7,,,,,,,,,11,,,,72,100
57843,note_on,10,0,1,,,,,,,,,0,,,,87,82
57843,note_on,230,0,10,,,,,,,,,14,,,,41,0
57845,note_on,0,0,2,,,,,,,,,1,,,,75,81
57845,note_on,10,0,2,,,,,,,,,1,,,,72,81
57846,note_on,10,0,8,,,,,,,,,12,,,,57,98
57851,note_on,10,0,9,,,,,,,,,13,,,,53,89
57852,note_on,10,0,3,,,,,,,,,3,,,,57,81
57853,note_on,10,0,10,,,,,,,,,14,,,,41,73
57900,note_on,0,0,6,,,,,,,,,10,,,,79,100
57900,note_on,60,0,6,,,,,,,,,10,,,,75,0
57903,note_on,60,0,1,,,,,,,,,0,,,,87,0
57903,note_on,60,0,7,,,,,,,,,11,,,,72,0
57903,note_on,0,0,7,,,,,,,,,11,,,,75,100
57903,note_on,0,0,1,,,,,,,,,0,,,,91,82
57905,note_on,0,0,2,,,,,,,,,1,,,,75,81
57905,note_on,0,0,2,,,,,,,,,1,,,,72,0
57905,note_on,0,0,2,,,,,,,,,1,,,,79,81
57905,note_on,60,0,2,,,,,,,,,1,,,,75,0
57950,note_on,50,0,6,,,,,,,,,10,,,,79,0
57953,note_on,50,0,7,,,,,,,,,11,,,,75,0
57953,note_on,50,0,1,,,,,,,,,0,,,,91,0
57955,note_on,0,0,2,,,,,,,,,1,,,,75,0
57955,note_on,50,0,2,,,,,,,,,1,,,,79,0
57960,set_tempo,120,1,0,,,,,,382166,,,,,,,,
57960,note_on,10,0,6,,,,,,,,,10,,,,75,100
57963,note_on,10,0,1,,,,,,,,,0,,,,87,82
57963,note_on,10,0,7,,,,,,,,,11,,,,72,100
57965,note_on,0,0,2,,,,,,,,,1,,,,72,81
57965,note_on,10,0,2,,,,,,,,,1,,,,75,81
57990,note_on,30,0,6,,,,,,,,,10,,,,75,0
57993,note_on,30,0,7,,,,,,,,,11,,,,72,0
57999,note_on,36,0,1,,,,,,,,,0,,,,87,0
58001,note_on,0,0,2,,,,,,,,,1,,,,75,0
58001,note_on,36,0,2,,,,,,,,,1,,,,72,0
58020,note_on,30,0,6,,,,,,,,,10,,,,74,100
58023,note_on,30,0,7,,,,,,,,,11,,,,70,100
58023,note_on,24,0,1,,,,,,,,,0,,,,86,82
58025,note_on,24,0,2,,,,,,,,,1,,,,74,81
58025,note_on,0,0,2,,,,,,,,,1,,,,70,81
58026,note_on,180,0,8,,,,,,,,,12,,,,57,0
58026,note_on,0,0,8,,,,,,,,,12,,,,58,98
58032,note_on,0,0,3,,,,,,,,,3,,,,58,81
58032,note_on,180,0,3,,,,,,,,,3,,,,57,0
58050,note_on,30,0,6,,,,,,,,,10,,,,74,0
58053,note_on,30,0,7,,,,,,,,,11,,,,70,0
58059,note_on,36,0,1,,,,,,,,,0,,,,86,0
58061,note_on,36,0,2,,,,,,,,,1,,,,70,0
58061,note_on,0,0,2,,,,,,,,,1,,,,74,0
58076,note_on,50,0,8,,,,,,,,,12,,,,58,0
58080,note_on,30,0,6,,,,,,,,,10,,,,72,100
58080,set_tempo,120,1,0,,,,,,357143,,,,,,,,
58081,note_on,230,0,9,,,,,,,,,13,,,,53,0
58082,note_on,50,0,3,,,,,,,,,3,,,,58,0
58083,note_on,30,0,7,,,,,,,,,11,,,,69,100
58083,note_on,230,0,10,,,,,,,,,14,,,,41,0
58083,note_on,24,0,1,,,,,,,,,0,,,,84,82
58085,note_on,0,0,2,,,,,,,,,1,,,,69,81
58085,note_on,24,0,2,,,,,,,,,1,,,,72,81
58086,note_on,10,0,8,,,,,,,,,12,,,,65,98
58091,note_on,10,0,9,,,,,,,,,13,,,,53,89
58092,note_on,10,0,3,,,,,,,,,3,,,,65,81
58093,note_on,10,0,10,,,,,,,,,14,,,,41,73
58146,note_on,0,0,8,,,,,,,,,12,,,,64,98
58146,note_on,60,0,8,,,,,,,,,12,,,,65,0
58152,note_on,60,0,3,,,,,,,,,3,,,,65,0
58152,note_on,0,0,3,,,,,,,,,3,,,,64,81
58200,set_tempo,120,1,0,,,,,,382166,,,,,,,,
58206,note_on,60,0,8,,,,,,,,,12,,,,64,0
58206,note_on,0,0,8,,,,,,,,,12,,,,63,98
58212,note_on,0,0,3,,,,,,,,,3,,,,63,81
58212,note_on,60,0,3,,,,,,,,,3,,,,64,0
58260,note_on,180,0,6,,,,,,,,,10,,,,72,0
58260,note_on,0,0,6,,,,,,,,,10,,,,74,100
58263,note_on,180,0,7,,,,,,,,,11,,,,69,0
58263,note_on,0,0,7,,,,,,,,,11,,,,70,100
58263,note_on,0,0,1,,,,,,,,,0,,,,86,82
58263,note_on,180,0,1,,,,,,,,,0,,,,84,0
58265,note_on,180,0,2,,,,,,,,,1,,,,69,0
58265,note_on,0,0,2,,,,,,,,,1,,,,74,81
58265,note_on,0,0,2,,,,,,,,,1,,,,70,81
58265,note_on,0,0,2,,,,,,,,,1,,,,72,0
58266,note_on,0,0,8,,,,,,,,,12,,,,62,98
58266,note_on,60,0,8,,,,,,,,,12,,,,63,0
58272,note_on,0,0,3,,,,,,,,,3,,,,62,81
58272,note_on,60,0,3,,,,,,,,,3,,,,63,0
58310,note_on,50,0,6,,,,,,,,,10,,,,74,0
58313,note_on,50,0,7,,,,,,,,,11,,,,70,0
58313,note_on,50,0,1,,,,,,,,,0,,,,86,0
58315,note_on,50,0,2,,,,,,,,,1,,,,74,0
58315,note_on,0,0,2,,,,,,,,,1,,,,70,0
58316,note_on,50,0,8,,,,,,,,,12,,,,62,0
58320,note_on,10,0,6,,,,,,,,,10,,,,75,100
58320,set_tempo,120,1,0,,,,,,355030,,,,,,,,
58321,note_on,230,0,9,,,,,,,,,13,,,,53,0
58322,note_on,50,0,3,,,,,,,,,3,,,,62,0
58323,note_on,10,0,1,,,,,,,,,0,,,,87,82
58323,note_on,10,0,7,,,,,,,,,11,,,,72,100
58323,note_on,230,0,10,,,,,,,,,14,,,,41,0
58324,note_on,0,0,4,,,,,,,,,4,,,,53,86
58324,note_on,960,0,4,,,,,,,,,4,,,,53,0
58325,note_on,10,0,2,,,,,,,,,1,,,,75,81
58325,note_on,0,0,2,,,,,,,,,1,,,,72,81
58326,note_on,10,0,8,,,,,,,,,12,,,,53,98
58326,note_on,0,0,5,,,,,,,,,5,,,,41,86
58326,note_on,960,0,5,,,,,,,,,5,,,,41,0
58331,note_on,10,0,9,,,,,,,,,13,,,,53,89
58332,note_on,10,0,3,,,,,,,,,3,,,,53,81
58333,note_on,10,0,10,,,,,,,,,14,,,,41,73
58340,note_on,20,0,6,,,,,,,,,10,,,,75,0
58343,note_on,20,0,7,,,,,,,,,11,,,,72,0
58350,note_on,10,0,6,,,,,,,,,10,,,,75,92
58353,note_on,10,0,7,,,,,,,,,11,,,,72,92
58370,note_on,20,0,6,,,,,,,,,10,,,,75,0
58373,note_on,20,0,7,,,,,,,,,11,,,,72,0
58373,note_on,50,0,1,,,,,,,,,0,,,,87,0
58375,note_on,50,0,2,,,,,,,,,1,,,,72,0
58375,note_on,0,0,2,,,,,,,,,1,,,,75,0
58376,note_on,50,0,8,,,,,,,,,12,,,,53,0
58380,note_on,10,0,6,,,,,,,,,10,,,,74,100
58381,note_on,50,0,9,,,,,,,,,13,,,,53,0
58382,note_on,50,0,3,,,,,,,,,3,,,,53,0
58383,note_on,50,0,10,,,,,,,,,14,,,,41,0
58383,note_on,10,0,7,,,,,,,,,11,,,,71,100
58383,note_on,10,0,1,,,,,,,,,0,,,,86,82
58384,note_on,0,0,4,,,,,,,,,4,,,,53,86
58384,note_on,60,0,4,,,,,,,,,4,,,,53,0
58385,note_on,10,0,2,,,,,,,,,1,,,,74,81
58385,note_on,0,0,2,,,,,,,,,1,,,,71,81
58386,note_on,0,0,5,,,,,,,,,5,,,,41,86
58386,note_on,60,0,5,,,,,,,,,5,,,,41,0
58386,note_on,10,0,8,,,,,,,,,12,,,,65,98
58391,note_on,10,0,9,,,,,,,,,13,,,,53,89
58392,note_on,10,0,3,,,,,,,,,3,,,,53,81
58393,note_on,10,0,10,,,,,,,,,14,,,,41,73
58400,note_on,20,0,6,,,,,,,,,10,,,,74,0
58403,note_on,20,0,7,,,,,,,,,11,,,,71,0
58410,note_on,10,0,6,,,,,,,,,10,,,,74,92
58413,note_on,10,0,7,,,,,,,,,11,,,,71,92
58430,note_on,20,0,6,,,,,,,,,10,,,,74,0
58433,note_on,20,0,7,,,,,,,,,11,,,,71,0
58433,note_on,50,0,1,,,,,,,,,0,,,,86,0
58435,note_on,0,0,2,,,,,,,,,1,,,,74,0
58435,note_on,50,0,2,,,,,,,,,1,,,,71,0
58436,note_on,50,0,8,,,,,,,,,12,,,,65,0
58440,set_tempo,120,1,0,,,,,,382166,,,,,,,,
58440,note_on,10,0,6,,,,,,,,,10,,,,75,100
58441,note_on,50,0,9,,,,,,,,,13,,,,53,0
58442,note_on,50,0,3,,,,,,,,,3,,,,53,0
58443,note_on,50,0,10,,,,,,,,,14,,,,41,0
58443,note_on,10,0,1,,,,,,,,,0,,,,87,82
58443,note_on,10,0,7,,,,,,,,,11,,,,72,100
58444,note_on,60,0,4,,,,,,,,,4,,,,53,0
58444,note_on,0,0,4,,,,,,,,,4,,,,53,86
58445,note_on,0,0,2,,,,,,,,,1,,,,72,81
58445,note_on,10,0,2,,,,,,,,,1,,,,75,81
58446,note_on,60,0,5,,,,,,,,,5,,,,41,0
58446,note_on,0,0,5,,,,,,,,,5,,,,41,86
58446,note_on,10,0,8,,,,,,,,,12,,,,65,98
58451,note_on,10,0,9,,,,,,,,,13,,,,53,89
58452,note_on,10,0,3,,,,,,,,,3,,,,53,81
58453,note_on,10,0,10,,,,,,,,,14,,,,41,73
58460,note_on,20,0,6,,,,,,,,,10,,,,75,0
58463,note_on,20,0,7,,,,,,,,,11,,,,72,0
58470,note_on,10,0,6,,,,,,,,,10,,,,75,92
58473,note_on,10,0,7,,,,,,,,,11,,,,72,92
58490,note_on,20,0,6,,,,,,,,,10,,,,75,0
58493,note_on,20,0,7,,,,,,,,,11,,,,72,0
58493,note_on,50,0,1,,,,,,,,,0,,,,87,0
58495,note_on,50,0,2,,,,,,,,,1,,,,72,0
58495,note_on,0,0,2,,,,,,,,,1,,,,75,0
58496,note_on,50,0,8,,,,,,,,,12,,,,65,0
58500,note_on,10,0,6,,,,,,,,,10,,,,74,100
58501,note_on,50,0,9,,,,,,,,,13,,,,53,0
58502,note_on,50,0,3,,,,,,,,,3,,,,53,0
58503,note_on,10,0,1,,,,,,,,,0,,,,86,82
58503,note_on,50,0,10,,,,,,,,,14,,,,41,0
58503,note_on,10,0,7,,,,,,,,,11,,,,71,100
58504,note_on,0,0,4,,,,,,,,,4,,,,53,86
58504,note_on,60,0,4,,,,,,,,,4,,,,53,0
58505,note_on,10,0,2,,,,,,,,,1,,,,74,81
58505,note_on,0,0,2,,,,,,,,,1,,,,71,81
58506,note_on,60,0,5,,,,,,,,,5,,,,41,0
58506,note_on,0,0,5,,,,,,,,,5,,,,41,86
58506,note_on,10,0,8,,,,,,,,,12,,,,65,98
58511,note_on,10,0,9,,,,,,,,,13,,,,53,89
58512,note_on,10,0,3,,,,,,,,,3,,,,53,81
58513,note_on,10,0,10,,,,,,,,,14,,,,41,73
58520,note_on,20,0,6,,,,,,,,,10,,,,74,0
58523,note_on,20,0,7,,,,,,,,,11,,,,71,0
58530,note_on,10,0,6,,,,,,,,,10,,,,74,92
58533,note_on,10,0,7,,,,,,,,,11,,,,71,92
58550,note_on,20,0,6,,,,,,,,,10,,,,74,0
58553,note_on,20,0,7,,,,,,,,,11,,,,71,0
58553,note_on,50,0,1,,,,,,,,,0,,,,86,0
58555,note_on,0,0,2,,,,,,,,,1,,,,74,0
58555,note_on,50,0,2,,,,,,,,,1,,,,71,0
58556,note_on,50,0,8,,,,,,,,,12,,,,65,0
58560,note_on,10,0,6,,,,,,,,,10,,,,75,100
58560,set_tempo,120,1,0,,,,,,355030,,,,,,,,
58561,note_on,50,0,9,,,,,,,,,13,,,,53,0
58562,note_on,50,0,3,,,,,,,,,3,,,,53,0
58563,note_on,10,0,7,,,,,,,,,11,,,,72,100
58563,note_on,50,0,10,,,,,,,,,14,,,,41,0
58563,note_on,10,0,1,,,,,,,,,0,,,,87,82
58564,note_on,60,0,4,,,,,,,,,4,,,,53,0
58564,note_on,0,0,4,,,,,,,,,4,,,,53,86
58565,note_on,0,0,2,,,,,,,,,1,,,,75,81
58565,note_on,10,0,2,,,,,,,,,1,,,,72,81
58566,note_on,0,0,5,,,,,,,,,5,,,,41,86
58566,note_on,60,0,5,,,,,,,,,5,,,,41,0
58566,note_on,10,0,8,,,,,,,,,12,,,,65,98
58571,note_on,10,0,9,,,,,,,,,13,,,,53,89
58572,note_on,10,0,3,,,,,,,,,3,,,,53,81
58573,note_on,10,0,10,,,,,,,,,14,,,,41,73
58580,note_on,20,0,6,,,,,,,,,10,,,,75,0
58583,note_on,20,0,7,,,,,,,,,11,,,,72,0
58590,note_on,10,0,6,,,,,,,,,10,,,,75,92
58593,note_on,10,0,7,,,,,,,,,11,,,,72,92
58610,note_on,20,0,6,,,,,,,,,10,,,,75,0
58613,note_on,50,0,1,,,,,,,,,0,,,,87,0
58613,note_on,20,0,7,,,,,,,,,11,,,,72,0
58615,note_on,50,0,2,,,,,,,,,1,,,,75,0
58615,note_on,0,0,2,,,,,,,,,1,,,,72,0
58616,note_on,50,0,8,,,,,,,,,12,,,,65,0
58620,note_on,10,0,6,,,,,,,,,10,,,,74,100
58621,note_on,50,0,9,,,,,,,,,13,,,,53,0
58622,note_on,50,0,3,,,,,,,,,3,,,,53,0
58623,note_on,50,0,10,,,,,,,,,14,,,,41,0
58623,note_on,10,0,7,,,,,,,,,11,,,,71,100
58623,note_on,10,0,1,,,,,,,,,0,,,,86,82
58624,note_on,60,0,4,,,,,,,,,4,,,,53,0
58624,note_on,0,0,4,,,,,,,,,4,,,,53,86
58625,note_on,0,0,2,,,,,,,,,1,,,,71,81
58625,note_on,10,0,2,,,,,,,,,1,,,,74,81
58626,note_on,0,0,5,,,,,,,,,5,,,,41,86
58626,note_on,60,0,5,,,,,,,,,5,,,,41,0
58626,note_on,10,0,8,,,,,,,,,12,,,,65,98
58631,note_on,10,0,9,,,,,,,,,13,,,,53,89
58632,note_on,10,0,3,,,,,,,,,3,,,,53,81
58633,note_on,10,0,10,,,,,,,,,14,,,,41,73
58640,note_on,20,0,6,,,,,,,,,10,,,,74,0
58643,note_on,20,0,7,,,,,,,,,11,,,,71,0
58650,note_on,10,0,6,,,,,,,,,10,,,,74,92
58653,note_on,10,0,7,,,,,,,,,11,,,,71,92
58670,note_on,20,0,6,,,,,,,,,10,,,,74,0
58673,note_on,50,0,1,,,,,,,,,0,,,,86,0
58673,note_on,20,0,7,,,,,,,,,11,,,,71,0
58675,note_on,0,0,2,,,,,,,,,1,,,,74,0
58675,note_on,50,0,2,,,,,,,,,1,,,,71,0
58676,note_on,50,0,8,,,,,,,,,12,,,,65,0
58680,note_on,10,0,6,,,,,,,,,10,,,,75,100
58680,set_tempo,120,1,0,,,,,,382166,,,,,,,,
58681,note_on,50,0,9,,,,,,,,,13,,,,53,0
58682,note_on,50,0,3,,,,,,,,,3,,,,53,0
58683,note_on,10,0,7,,,,,,,,,11,,,,72,100
58683,note_on,50,0,10,,,,,,,,,14,,,,41,0
58683,note_on,10,0,1,,,,,,,,,0,,,,87,82
58684,note_on,0,0,4,,,,,,,,,4,,,,53,86
58684,note_on,60,0,4,,,,,,,,,4,,,,53,0
58685,note_on,10,0,2,,,,,,,,,1,,,,75,81
58685,note_on,0,0,2,,,,,,,,,1,,,,72,81
58686,note_on,60,0,5,,,,,,,,,5,,,,41,0
58686,note_on,0,0,5,,,,,,,,,5,,,,41,86
58686,note_on,10,0,8,,,,,,,,,12,,,,65,98
58691,note_on,10,0,9,,,,,,,,,13,,,,53,89
58692,note_on,10,0,3,,,,,,,,,3,,,,53,81
58693,note_on,10,0,10,,,,,,,,,14,,,,41,73
58700,note_on,20,0,6,,,,,,,,,10,,,,75,0
58703,note_on,20,0,7,,,,,,,,,11,,,,72,0
58710,note_on,10,0,6,,,,,,,,,10,,,,75,92
58713,note_on,10,0,7,,,,,,,,,11,,,,72,92
58730,note_on,20,0,6,,,,,,,,,10,,,,75,0
58733,note_on,50,0,1,,,,,,,,,0,,,,87,0
58733,note_on,20,0,7,,,,,,,,,11,,,,72,0
58735,note_on,50,0,2,,,,,,,,,1,,,,72,0
58735,note_on,0,0,2,,,,,,,,,1,,,,75,0
58736,note_on,50,0,8,,,,,,,,,12,,,,65,0
58740,note_on,10,0,6,,,,,,,,,10,,,,74,100
58741,note_on,50,0,9,,,,,,,,,13,,,,53,0
58742,note_on,50,0,3,,,,,,,,,3,,,,53,0
58743,note_on,10,0,1,,,,,,,,,0,,,,86,82
58743,note_on,50,0,10,,,,,,,,,14,,,,41,0
58743,note_on,10,0,7,,,,,,,,,11,,,,71,100
58744,note_on,60,0,4,,,,,,,,,4,,,,53,0
58744,note_on,0,0,4,,,,,,,,,4,,,,53,86
58745,note_on,10,0,2,,,,,,,,,1,,,,71,81
58745,note_on,0,0,2,,,,,,,,,1,,,,74,81
58746,note_on,0,0,5,,,,,,,,,5,,,,41,86
58746,note_on,60,0,5,,,,,,,,,5,,,,41,0
58746,note_on,10,0,8,,,,,,,,,12,,,,65,98
58751,note_on,10,0,9,,,,,,,,,13,,,,53,89
58752,note_on,10,0,3,,,,,,,,,3,,,,53,81
58753,note_on,10,0,10,,,,,,,,,14,,,,41,73
58760,note_on,20,0,6,,,,,,,,,10,,,,74,0
58763,note_on,20,0,7,,,,,,,,,11,,,,71,0
58770,note_on,10,0,6,,,,,,,,,10,,,,74,92
58773,note_on,10,0,7,,,,,,,,,11,,,,71,92
58790,note_on,20,0,6,,,,,,,,,10,,,,74,0
58793,note_on,20,0,7,,,,,,,,,11,,,,71,0
58793,note_on,50,0,1,,,,,,,,,0,,,,86,0
58795,note_on,0,0,2,,,,,,,,,1,,,,71,0
58795,note_on,50,0,2,,,,,,,,,1,,,,74,0
58796,note_on,50,0,8,,,,,,,,,12,,,,65,0
58800,set_tempo,120,1,0,,,,,,400000,,,,,,,,
58800,note_on,10,0,6,,,,,,,,,10,,,,75,100
58801,note_on,50,0,9,,,,,,,,,13,,,,53,0
58802,note_on,50,0,3,,,,,,,,,3,,,,53,0
58803,note_on,10,0,1,,,,,,,,,0,,,,87,82
58803,note_on,10,0,7,,,,,,,,,11,,,,72,100
58803,note_on,50,0,10,,,,,,,,,14,,,,41,0
58804,note_on,60,0,4,,,,,,,,,4,,,,53,0
58804,note_on,0,0,4,,,,,,,,,4,,,,53,86
58805,note_on,10,0,2,,,,,,,,,1,,,,75,81
58805,note_on,0,0,2,,,,,,,,,1,,,,72,81
58806,note_on,10,0,8,,,,,,,,,12,,,,65,98
58806,note_on,0,0,5,,,,,,,,,5,,,,41,86
58806,note_on,60,0,5,,,,,,,,,5,,,,41,0
58811,note_on,10,0,9,,,,,,,,,13,,,,53,89
58812,note_on,10,0,3,,,,,,,,,3,,,,53,81
58813,note_on,10,0,10,,,,,,,,,14,,,,41,73
58860,note_on,60,0,6,,,,,,,,,10,,,,75,0
58863,note_on,60,0,1,,,,,,,,,0,,,,87,0
58863,note_on,60,0,7,,,,,,,,,11,,,,72,0
58864,note_on,60,0,4,,,,,,,,,4,,,,53,0
58865,note_on,60,0,2,,,,,,,,,1,,,,72,0
58865,note_on,0,0,2,,,,,,,,,1,,,,75,0
58866,note_on,60,0,8,,,,,,,,,12,,,,65,0
58866,note_on,60,0,5,,,,,,,,,5,,,,41,0
58871,note_on,60,0,9,,,,,,,,,13,,,,53,0
58872,note_on,60,0,3,,,,,,,,,3,,,,53,0
58873,note_on,60,0,10,,,,,,,,,14,,,,41,0
58920,set_tempo,120,1,0,,,,,,461538,,,,,,,,
58920,note_on,0,0,6,,,,,,,,,10,,,,75,100
58920,note_on,60,0,6,,,,,,,,,10,,,,84,100
58923,note_on,0,0,7,,,,,,,,,11,,,,81,100
58923,note_on,60,0,1,,,,,,,,,0,,,,81,82
58923,note_on,0,0,7,,,,,,,,,11,,,,72,100
58923,note_on,60,0,7,,,,,,,,,11,,,,65,100
58924,note_on,60,0,4,,,,,,,,,4,,,,53,86
58925,note_on,0,0,2,,,,,,,,,1,,,,75,81
58925,note_on,60,0,2,,,,,,,,,1,,,,69,81
58926,note_on,60,0,8,,,,,,,,,12,,,,53,98
58926,note_on,60,0,5,,,,,,,,,5,,,,41,86
58931,note_on,60,0,9,,,,,,,,,13,,,,41,89
58932,note_on,60,0,3,,,,,,,,,3,,,,41,81
58933,note_on,60,0,10,,,,,,,,,14,,,,29,73
58980,note_on,0,0,6,,,,,,,,,10,,,,84,0
58980,note_on,60,0,6,,,,,,,,,10,,,,75,0
58983,note_on,0,0,7,,,,,,,,,11,,,,81,0
58983,note_on,60,0,7,,,,,,,,,11,,,,72,0
58983,note_on,60,0,1,,,,,,,,,0,,,,81,0
58983,note_on,0,0,7,,,,,,,,,11,,,,65,0
58984,note_on,60,0,4,,,,,,,,,4,,,,53,0
58985,note_on,60,0,2,,,,,,,,,1,,,,75,0
58985,note_on,0,0,2,,,,,,,,,1,,,,69,0
58986,note_on,60,0,8,,,,,,,,,12,,,,53,0
58986,note_on,60,0,5,,,,,,,,,5,,,,41,0
58991,note_on,60,0,9,,,,,,,,,13,,,,41,0
58992,note_on,60,0,3,,,,,,,,,3,,,,41,0
58993,note_on,60,0,10,,,,,,,,,14,,,,29,0
59160,set_tempo,240,1,0,,,,,,382166,,,,,,,,
59220,control_change,240,0,6,,,,,,,,,10,11,37,,,
59220,set_tempo,60,1,0,,,,,,409556,,,,,,,,
59220,note_on,0,0,6,,,,,,,,,10,,,,77,73
59223,control_change,240,0,7,,,,,,,,,11,11,37,,,
59223,note_on,0,0,7,,,,,,,,,11,,,,65,92
59238,control_change,18,0,6,,,,,,,,,10,11,40,,,
59241,control_change,18,0,7,,,,,,,,,11,11,40,,,
59256,control_change,18,0,6,,,,,,,,,10,11,43,,,
59259,control_change,18,0,7,,,,,,,,,11,11,43,,,
59270,note_on,14,0,6,,,,,,,,,10,,,,77,0
59273,note_on,14,0,7,,,,,,,,,11,,,,65,0
59274,control_change,4,0,6,,,,,,,,,10,11,46,,,
59277,control_change,4,0,7,,,,,,,,,11,11,46,,,
59280,set_tempo,60,1,0,,,,,,372671,,,,,,,,
59280,note_on,6,0,6,,,,,,,,,10,,,,77,80
59283,note_on,6,0,7,,,,,,,,,11,,,,65,100
59285,note_on,0,0,2,,,,,,,,,1,,,,77,81
59285,note_on,0,0,2,,,,,,,,,1,,,,65,81
59285,control_change,300,0,2,,,,,,,,,1,11,47,,,
59286,control_change,300,0,8,,,,,,,,,12,11,47,,,
59286,note_on,0,0,8,,,,,,,,,12,,,,62,83
59291,note_on,0,0,9,,,,,,,,,13,,,,50,74
59291,control_change,300,0,9,,,,,,,,,13,11,47,,,
59292,control_change,300,0,3,,,,,,,,,3,11,47,,,
59292,note_on,0,0,3,,,,,,,,,3,,,,50,81
59292,note_on,0,0,3,,,,,,,,,3,,,,58,81
59293,control_change,300,0,10,,,,,,,,,14,11,47,,,
59293,note_on,0,0,10,,,,,,,,,14,,,,38,59
59340,note_on,60,0,6,,,,,,,,,10,,,,77,0
59340,note_on,0,0,6,,,,,,,,,10,,,,79,80
59343,note_on,60,0,7,,,,,,,,,11,,,,65,0
59343,note_on,0,0,7,,,,,,,,,11,,,,67,100
59390,note_on,50,0,6,,,,,,,,,10,,,,79,0
59393,note_on,50,0,7,,,,,,,,,11,,,,67,0
59400,note_on,10,0,6,,,,,,,,,10,,,,81,80
59400,set_tempo,120,1,0,,,,,,382166,,,,,,,,
59403,note_on,10,0,7,,,,,,,,,11,,,,69,100
59406,note_on,120,0,8,,,,,,,,,12,,,,62,0
59411,note_on,120,0,9,,,,,,,,,13,,,,50,0
59412,note_on,0,0,3,,,,,,,,,3,,,,50,0
59412,note_on,120,0,3,,,,,,,,,3,,,,58,0
59413,note_on,120,0,10,,,,,,,,,14,,,,38,0
59430,note_on,30,0,6,,,,,,,,,10,,,,81,0
59433,note_on,30,0,7,,,,,,,,,11,,,,69,0
59460,note_on,30,0,6,,,,,,,,,10,,,,82,80
59463,note_on,30,0,7,,,,,,,,,11,,,,70,100
59490,note_on,30,0,6,,,,,,,,,10,,,,82,0
59493,note_on,30,0,7,,,,,,,,,11,,,,70,0
59520,note_on,30,0,6,,,,,,,,,10,,,,82,80
59520,set_tempo,120,1,0,,,,,,355030,,,,,,,,
59523,note_on,30,0,7,,,,,,,,,11,,,,70,100
59526,note_on,120,0,8,,,,,,,,,12,,,,63,83
59531,note_on,120,0,9,,,,,,,,,13,,,,51,74
59532,note_on,0,0,3,,,,,,,,,3,,,,60,81
59532,note_on,120,0,3,,,,,,,,,3,,,,51,81
59533,note_on,120,0,10,,,,,,,,,14,,,,39,59
59580,note_on,0,0,6,,,,,,,,,10,,,,81,80
59580,note_on,60,0,6,,,,,,,,,10,,,,82,0
59583,note_on,60,0,7,,,,,,,,,11,,,,70,0
59583,note_on,0,0,7,,,,,,,,,11,,,,69,100
59630,note_on,50,0,6,,,,,,,,,10,,,,81,0
59633,note_on,50,0,7,,,,,,,,,11,,,,69,0
59640,set_tempo,120,1,0,,,,,,382166,,,,,,,,
59640,note_on,10,0,6,,,,,,,,,10,,,,79,80
59643,note_on,10,0,7,,,,,,,,,11,,,,67,100
59646,note_on,120,0,8,,,,,,,,,12,,,,63,0
59651,note_on,120,0,9,,,,,,,,,13,,,,51,0
59652,note_on,0,0,3,,,,,,,,,3,,,,51,0
59652,note_on,120,0,3,,,,,,,,,3,,,,60,0
59653,note_on,120,0,10,,,,,,,,,14,,,,39,0
59670,note_on,30,0,6,,,,,,,,,10,,,,79,0
59673,note_on,30,0,7,,,,,,,,,11,,,,67,0
59700,note_on,30,0,6,,,,,,,,,10,,,,77,80
59703,note_on,30,0,7,,,,,,,,,11,,,,65,100
59730,note_on,30,0,6,,,,,,,,,10,,,,77,0
59733,note_on,30,0,7,,,,,,,,,11,,,,65,0
59760,note_on,0,0,6,,,,,,,,,10,,,,82,80
59760,control_change,30,0,6,,,,,,,,,10,11,47,,,
59760,set_tempo,120,1,0,,,,,,355030,,,,,,,,
59763,control_change,30,0,7,,,,,,,,,11,11,47,,,
59763,note_on,0,0,1,,,,,,,,,0,,,,82,82
59763,control_change,780,0,1,,,,,,,,,0,11,47,,,
59763,note_on,0,0,7,,,,,,,,,11,,,,70,100
59765,control_change,0,0,2,,,,,,,,,1,11,47,,,
59765,note_on,0,0,2,,,,,,,,,1,,,,70,81
59765,note_on,0,0,2,,,,,,,,,1,,,,65,0
59765,note_on,480,0,2,,,,,,,,,1,,,,77,0
59765,note_on,0,0,2,,,,,,,,,1,,,,65,81
59766,control_change,120,0,8,,,,,,,,,12,11,47,,,
59766,note_on,0,0,8,,,,,,,,,12,,,,62,83
59771,control_change,120,0,9,,,,,,,,,13,11,47,,,
59771,note_on,0,0,9,,,,,,,,,13,,,,50,74
59772,control_change,120,0,3,,,,,,,,,3,11,47,,,
59772,note_on,0,0,3,,,,,,,,,3,,,,58,81
59772,note_on,0,0,3,,,,,,,,,3,,,,50,81
59773,note_on,0,0,10,,,,,,,,,14,,,,38,59
59773,control_change,120,0,10,,,,,,,,,14,11,47,,,
59783,control_change,23,0,6,,,,,,,,,10,11,49,,,
59786,control_change,23,0,7,,,,,,,,,11,11,49,,,
59786,control_change,23,0,1,,,,,,,,,0,11,49,,,
59788,control_change,23,0,2,,,,,,,,,1,11,49,,,
59789,control_change,23,0,8,,,,,,,,,12,11,49,,,
59794,control_change,23,0,9,,,,,,,,,13,11,49,,,
59795,control_change,23,0,3,,,,,,,,,3,11,49,,,
59796,control_change,23,0,10,,,,,,,,,14,11,49,,,
59807,control_change,24,0,6,,,,,,,,,10,11,51,,,
59810,control_change,24,0,1,,,,,,,,,0,11,51,,,
59810,note_on,3,0,6,,,,,,,,,10,,,,82,0
59810,control_change,24,0,7,,,,,,,,,11,11,51,,,
59812,control_change,24,0,2,,,,,,,,,1,11,51,,,
59813,note_on,3,0,7,,,,,,,,,11,,,,70,0
59813,control_change,24,0,8,,,,,,,,,12,11,51,,,
59818,control_change,24,0,9,,,,,,,,,13,11,51,,,
59819,control_change,24,0,3,,,,,,,,,3,11,51,,,
59820,control_change,24,0,10,,,,,,,,,14,11,51,,,
59820,note_on,10,0,6,,,,,,,,,10,,,,82,80
59823,note_on,10,0,7,,,,,,,,,11,,,,70,100
59823,note_on,13,0,1,,,,,,,,,0,,,,82,0
59825,note_on,0,0,2,,,,,,,,,1,,,,70,0
59825,note_on,13,0,2,,,,,,,,,1,,,,65,0
59826,note_on,13,0,8,,,,,,,,,12,,,,62,0
59831,control_change,11,0,6,,,,,,,,,10,11,53,,,
59831,note_on,13,0,9,,,,,,,,,13,,,,50,0
59832,note_on,0,0,3,,,,,,,,,3,,,,58,0
59832,note_on,13,0,3,,,,,,,,,3,,,,50,0
59833,note_on,13,0,10,,,,,,,,,14,,,,38,0
59834,control_change,11,0,7,,,,,,,,,11,11,53,,,
59834,control_change,11,0,1,,,,,,,,,0,11,53,,,
59836,control_change,11,0,2,,,,,,,,,1,11,53,,,
59837,control_change,11,0,8,,,,,,,,,12,11,53,,,
59842,control_change,11,0,9,,,,,,,,,13,11,53,,,
59843,control_change,11,0,3,,,,,,,,,3,11,53,,,
59844,control_change,11,0,10,,,,,,,,,14,11,53,,,
59855,control_change,24,0,6,,,,,,,,,10,11,55,,,
59858,control_change,24,0,7,,,,,,,,,11,11,55,,,
59858,control_change,24,0,1,,,,,,,,,0,11,55,,,
59860,control_change,24,0,2,,,,,,,,,1,11,55,,,
59861,control_change,24,0,8,,,,,,,,,12,11,55,,,
59866,control_change,24,0,9,,,,,,,,,13,11,55,,,
59867,control_change,24,0,3,,,,,,,,,3,11,55,,,
59868,control_change,24,0,10,,,,,,,,,14,11,55,,,
59870,note_on,15,0,6,,,,,,,,,10,,,,82,0
59873,note_on,15,0,7,,,,,,,,,11,,,,70,0
59879,control_change,9,0,6,,,,,,,,,10,11,57,,,
59880,set_tempo,120,1,0,,,,,,382166,,,,,,,,
59880,note_on,1,0,6,,,,,,,,,10,,,,86,80
59882,control_change,9,0,7,,,,,,,,,11,11,57,,,
59882,control_change,24,0,1,,,,,,,,,0,11,57,,,
59883,note_on,1,0,7,,,,,,,,,11,,,,74,100
59883,note_on,1,0,1,,,,,,,,,0,,,,84,82
59884,control_change,24,0,2,,,,,,,,,1,11,57,,,
59885,note_on,0,0,2,,,,,,,,,1,,,,69,81
59885,note_on,1,0,2,,,,,,,,,1,,,,72,81
59885,control_change,24,0,8,,,,,,,,,12,11,57,,,
59886,note_on,1,0,8,,,,,,,,,12,,,,69,83
59890,control_change,24,0,9,,,,,,,,,13,11,57,,,
59891,note_on,1,0,9,,,,,,,,,13,,,,53,74
59891,control_change,24,0,3,,,,,,,,,3,11,57,,,
59892,note_on,1,0,3,,,,,,,,,3,,,,60,81
59892,note_on,0,0,3,,,,,,,,,3,,,,53,81
59892,control_change,24,0,10,,,,,,,,,14,11,57,,,
59893,note_on,1,0,10,,,,,,,,,14,,,,41,59
59903,control_change,23,0,6,,,,,,,,,10,11,59,,,
59906,control_change,23,0,1,,,,,,,,,0,11,59,,,
59906,control_change,23,0,7,,,,,,,,,11,11,59,,,
59908,control_change,23,0,2,,,,,,,,,1,11,59,,,
59909,control_change,23,0,8,,,,,,,,,12,11,59,,,
59910,note_on,7,0,6,,,,,,,,,10,,,,86,0
59910,note_on,0,0,6,,,,,,,,,10,,,,84,80
59913,note_on,0,0,7,,,,,,,,,11,,,,72,100
59913,note_on,7,0,7,,,,,,,,,11,,,,74,0
59914,control_change,23,0,9,,,,,,,,,13,11,59,,,
59915,control_change,23,0,3,,,,,,,,,3,11,59,,,
59916,control_change,23,0,10,,,,,,,,,14,11,59,,,
59927,control_change,17,0,6,,,,,,,,,10,11,61,,,
59930,control_change,24,0,1,,,,,,,,,0,11,61,,,
59930,note_on,3,0,6,,,,,,,,,10,,,,84,0
59930,control_change,17,0,7,,,,,,,,,11,11,61,,,
59932,control_change,24,0,2,,,,,,,,,1,11,61,,,
59933,note_on,3,0,7,,,,,,,,,11,,,,72,0
59933,control_change,24,0,8,,,,,,,,,12,11,61,,,
59938,control_change,24,0,9,,,,,,,,,13,11,61,,,
59939,control_change,24,0,3,,,,,,,,,3,11,61,,,
59940,note_on,10,0,6,,,,,,,,,10,,,,82,80
59940,control_change,24,0,10,,,,,,,,,14,11,61,,,
59943,note_on,13,0,1,,,,,,,,,0,,,,84,0
59943,note_on,10,0,7,,,,,,,,,11,,,,70,100
59945,note_on,13,0,2,,,,,,,,,1,,,,69,0
59945,note_on,0,0,2,,,,,,,,,1,,,,72,0
59946,note_on,13,0,8,,,,,,,,,12,,,,69,0
59951,control_change,11,0,6,,,,,,,,,10,11,62,,,
59951,note_on,13,0,9,,,,,,,,,13,,,,53,0
59952,note_on,13,0,3,,,,,,,,,3,,,,53,0
59952,note_on,0,0,3,,,,,,,,,3,,,,60,0
59953,note_on,13,0,10,,,,,,,,,14,,,,41,0
59954,control_change,11,0,1,,,,,,,,,0,11,62,,,
59954,control_change,11,0,7,,,,,,,,,11,11,62,,,
59956,control_change,11,0,2,,,,,,,,,1,11,62,,,
59957,control_change,11,0,8,,,,,,,,,12,11,62,,,
59960,note_on,9,0,6,,,,,,,,,10,,,,82,0
59962,control_change,11,0,9,,,,,,,,,13,11,62,,,
59963,control_change,11,0,3,,,,,,,,,3,11,62,,,
59963,note_on,9,0,7,,,,,,,,,11,,,,70,0
59964,control_change,11,0,10,,,,,,,,,14,11,62,,,
59970,note_on,10,0,6,,,,,,,,,10,,,,84,80
59973,note_on,10,0,7,,,,,,,,,11,,,,72,100
59975,control_change,5,0,6,,,,,,,,,10,11,64,,,
59978,control_change,24,0,1,,,,,,,,,0,11,64,,,
59978,control_change,5,0,7,,,,,,,,,11,11,64,,,
59980,control_change,24,0,2,,,,,,,,,1,11,64,,,
59981,control_change,24,0,8,,,,,,,,,12,11,64,,,
59986,control_change,24,0,9,,,,,,,,,13,11,64,,,
59987,control_change,24,0,3,,,,,,,,,3,11,64,,,
59988,control_change,24,0,10,,,,,,,,,14,11,64,,,
59990,note_on,15,0,6,,,,,,,,,10,,,,84,0
59993,note_on,15,0,7,,,,,,,,,11,,,,72,0
59999,control_change,9,0,6,,,,,,,,,10,11,65,,,
60000,note_on,1,0,6,,,,,,,,,10,,,,86,80
60000,set_tempo,120,1,0,,,,,,355030,,,,,,,,
60002,control_change,9,0,7,,,,,,,,,11,11,65,,,
60002,control_change,24,0,1,,,,,,,,,0,11,65,,,
60003,note_on,1,0,1,,,,,,,,,0,,,,86,82
60003,note_on,1,0,7,,,,,,,,,11,,,,74,100
60004,control_change,24,0,2,,,,,,,,,1,11,65,,,
60005,note_on,0,0,2,,,,,,,,,1,,,,74,81
60005,note_on,1,0,2,,,,,,,,,1,,,,70,81
60005,control_change,24,0,8,,,,,,,,,12,11,65,,,
60006,note_on,1,0,8,,,,,,,,,12,,,,70,83
60010,control_change,24,0,9,,,,,,,,,13,11,65,,,
60011,note_on,1,0,9,,,,,,,,,13,,,,58,74
60011,control_change,24,0,3,,,,,,,,,3,11,65,,,
60012,note_on,0,0,3,,,,,,,,,3,,,,58,81
60012,control_change,24,0,10,,,,,,,,,14,11,65,,,
60012,note_on,1,0,3,,,,,,,,,3,,,,62,81
60013,note_on,1,0,10,,,,,,,,,14,,,,46,59
60023,control_change,23,0,6,,,,,,,,,10,11,66,,,
60026,control_change,23,0,1,,,,,,,,,0,11,66,,,
60026,control_change,23,0,7,,,,,,,,,11,11,66,,,
60028,control_change,23,0,2,,,,,,,,,1,11,66,,,
60029,control_change,23,0,8,,,,,,,,,12,11,66,,,
60034,control_change,23,0,9,,,,,,,,,13,11,66,,,
60035,control_change,23,0,3,,,,,,,,,3,11,66,,,
60036,control_change,23,0,10,,,,,,,,,14,11,66,,,
60047,control_change,24,0,6,,,,,,,,,10,11,68,,,
60050,note_on,3,0,6,,,,,,,,,10,,,,86,0
60050,control_change,24,0,7,,,,,,,,,11,11,68,,,
60050,control_change,24,0,1,,,,,,,,,0,11,68,,,
60052,control_change,24,0,2,,,,,,,,,1,11,68,,,
60053,control_change,24,0,8,,,,,,,,,12,11,68,,,
60053,note_on,3,0,7,,,,,,,,,11,,,,74,0
60058,control_change,24,0,9,,,,,,,,,13,11,68,,,
60059,control_change,24,0,3,,,,,,,,,3,11,68,,,
60060,control_change,24,0,10,,,,,,,,,14,11,68,,,
60060,note_on,10,0,6,,,,,,,,,10,,,,86,80
60063,note_on,13,0,1,,,,,,,,,0,,,,86,0
60063,note_on,10,0,7,,,,,,,,,11,,,,74,100
60065,note_on,13,0,2,,,,,,,,,1,,,,74,0
60065,note_on,0,0,2,,,,,,,,,1,,,,70,0
60066,note_on,13,0,8,,,,,,,,,12,,,,70,0
60071,note_on,13,0,9,,,,,,,,,13,,,,58,0
60071,control_change,11,0,6,,,,,,,,,10,11,69,,,
60072,note_on,13,0,3,,,,,,,,,3,,,,58,0
60072,note_on,0,0,3,,,,,,,,,3,,,,62,0
60073,note_on,13,0,10,,,,,,,,,14,,,,46,0
60074,control_change,11,0,7,,,,,,,,,11,11,69,,,
60074,control_change,11,0,1,,,,,,,,,0,11,69,,,
60076,control_change,11,0,2,,,,,,,,,1,11,69,,,
60077,control_change,11,0,8,,,,,,,,,12,11,69,,,
60082,control_change,11,0,9,,,,,,,,,13,11,69,,,
60083,control_change,11,0,3,,,,,,,,,3,11,69,,,
60084,control_change,11,0,10,,,,,,,,,14,11,69,,,
60095,control_change,24,0,6,,,,,,,,,10,11,71,,,
60098,control_change,24,0,7,,,,,,,,,11,11,71,,,
60098,control_change,24,0,1,,,,,,,,,0,11,71,,,
60100,control_change,24,0,2,,,,,,,,,1,11,71,,,
60101,control_change,24,0,8,,,,,,,,,12,11,71,,,
60106,control_change,24,0,9,,,,,,,,,13,11,71,,,
60107,control_change,24,0,3,,,,,,,,,3,11,71,,,
60108,control_change,24,0,10,,,,,,,,,14,11,71,,,
60110,note_on,15,0,6,,,,,,,,,10,,,,86,0
60113,note_on,15,0,7,,,,,,,,,11,,,,74,0
60119,control_change,9,0,6,,,,,,,,,10,11,72,,,
60120,set_tempo,120,1,0,,,,,,382166,,,,,,,,
60120,note_on,1,0,6,,,,,,,,,10,,,,89,80
60122,control_change,24,0,1,,,,,,,,,0,11,72,,,
60122,control_change,9,0,7,,,,,,,,,11,11,72,,,
60123,note_on,1,0,7,,,,,,,,,11,,,,77,100
60123,note_on,1,0,1,,,,,,,,,0,,,,87,82
60124,control_change,24,0,2,,,,,,,,,1,11,72,,,
60125,note_on,1,0,2,,,,,,,,,1,,,,75,81
60125,control_change,24,0,8,,,,,,,,,12,11,72,,,
60125,note_on,0,0,2,,,,,,,,,1,,,,72,81
60126,note_on,1,0,8,,,,,,,,,12,,,,72,83
60130,control_change,24,0,9,,,,,,,,,13,11,72,,,
60131,control_change,24,0,3,,,,,,,,,3,11,72,,,
60132,note_on,1,0,3,,,,,,,,,3,,,,60,81
60132,control_change,24,0,10,,,,,,,,,14,11,72,,,
60132,note_on,0,0,3,,,,,,,,,3,,,,63,81
60143,control_change,23,0,6,,,,,,,,,10,11,73,,,
60146,control_change,23,0,7,,,,,,,,,11,11,73,,,
60146,control_change,23,0,1,,,,,,,,,0,11,73,,,
60148,control_change,23,0,2,,,,,,,,,1,11,73,,,
60149,control_change,23,0,8,,,,,,,,,12,11,73,,,
60150,note_on,0,0,6,,,,,,,,,10,,,,87,80
60150,note_on,7,0,6,,,,,,,,,10,,,,89,0
60153,note_on,0,0,7,,,,,,,,,11,,,,75,100
60153,note_on,7,0,7,,,,,,,,,11,,,,77,0
60154,control_change,24,0,9,,,,,,,,,13,11,73,,,
60155,control_change,23,0,3,,,,,,,,,3,11,73,,,
60156,control_change,24,0,10,,,,,,,,,14,11,73,,,
60167,control_change,17,0,6,,,,,,,,,10,11,75,,,
60170,control_change,17,0,7,,,,,,,,,11,11,75,,,
60170,control_change,24,0,1,,,,,,,,,0,11,75,,,
60170,note_on,3,0,6,,,,,,,,,10,,,,87,0
60172,control_change,24,0,2,,,,,,,,,1,11,75,,,
60173,control_change,24,0,8,,,,,,,,,12,11,75,,,
60173,note_on,3,0,7,,,,,,,,,11,,,,75,0
60178,control_change,24,0,9,,,,,,,,,13,11,75,,,
60179,control_change,24,0,3,,,,,,,,,3,11,75,,,
60180,control_change,24,0,10,,,,,,,,,14,11,75,,,
60180,note_on,10,0,6,,,,,,,,,10,,,,86,80
60183,note_on,13,0,1,,,,,,,,,0,,,,87,0
60183,note_on,10,0,7,,,,,,,,,11,,,,74,100
60185,note_on,13,0,2,,,,,,,,,1,,,,72,0
60185,note_on,0,0,2,,,,,,,,,1,,,,75,0
60186,note_on,13,0,8,,,,,,,,,12,,,,72,0
60191,control_change,11,0,6,,,,,,,,,10,11,76,,,
60191,note_on,13,0,9,,,,,,,,,13,,,,53,89
60192,note_on,13,0,3,,,,,,,,,3,,,,63,0
60192,note_on,0,0,3,,,,,,,,,3,,,,60,0
60193,note_on,13,0,10,,,,,,,,,14,,,,41,73
60194,control_change,11,0,7,,,,,,,,,11,11,76,,,
60194,control_change,11,0,1,,,,,,,,,0,11,76,,,
60196,control_change,11,0,2,,,,,,,,,1,11,76,,,
60197,control_change,11,0,8,,,,,,,,,12,11,76,,,
60200,note_on,9,0,6,,,,,,,,,10,,,,86,0
60202,control_change,11,0,9,,,,,,,,,13,11,76,,,
60203,note_on,9,0,7,,,,,,,,,11,,,,74,0
60203,control_change,11,0,3,,,,,,,,,3,11,76,,,
60204,control_change,11,0,10,,,,,,,,,14,11,76,,,
60210,note_on,10,0,6,,,,,,,,,10,,,,87,80
60213,note_on,10,0,7,,,,,,,,,11,,,,75,100
60215,control_change,5,0,6,,,,,,,,,10,11,77,,,
60218,control_change,5,0,7,,,,,,,,,11,11,77,,,
60218,control_change,24,0,1,,,,,,,,,0,11,77,,,
60220,control_change,24,0,2,,,,,,,,,1,11,77,,,
60221,control_change,24,0,8,,,,,,,,,12,11,77,,,
60226,control_change,24,0,9,,,,,,,,,13,11,77,,,
60227,control_change,24,0,3,,,,,,,,,3,11,77,,,
60228,control_change,24,0,10,,,,,,,,,14,11,77,,,
60230,note_on,15,0,6,,,,,,,,,10,,,,87,0
60233,note_on,15,0,7,,,,,,,,,11,,,,75,0
60239,control_change,9,0,6,,,,,,,,,10,11,79,,,
60240,note_on,1,0,6,,,,,,,,,10,,,,89,100
60240,set_tempo,120,1,0,,,,,,355030,,,,,,,,
60242,control_change,9,0,7,,,,,,,,,11,11,79,,,
60242,control_change,24,0,1,,,,,,,,,0,11,79,,,
60243,note_on,1,0,7,,,,,,,,,11,,,,74,100
60243,note_on,1,0,1,,,,,,,,,0,,,,89,82
60243,note_on,0,0,7,,,,,,,,,11,,,,77,100
60244,control_change,24,0,2,,,,,,,,,1,11,79,,,
60244,note_on,1260,0,4,,,,,,,,,4,,,,62,86
60245,note_on,1,0,2,,,,,,,,,1,,,,74,81
60245,control_change,24,0,8,,,,,,,,,12,11,79,,,
60245,note_on,0,0,2,,,,,,,,,1,,,,77,81
60246,note_on,1260,0,5,,,,,,,,,5,,,,58,86
60246,note_on,1,0,8,,,,,,,,,12,,,,65,98
60250,control_change,24,0,9,,,,,,,,,13,11,79,,,
60251,control_change,24,0,3,,,,,,,,,3,11,79,,,
60251,note_on,1,0,9,,,,,,,,,13,,,,53,0
60251,note_on,0,0,9,,,,,,,,,13,,,,53,89
60252,note_on,0,0,3,,,,,,,,,3,,,,65,81
60252,note_on,1,0,3,,,,,,,,,3,,,,62,81
60252,control_change,24,0,10,,,,,,,,,14,11,79,,,
60253,note_on,0,0,10,,,,,,,,,14,,,,41,73
60253,note_on,1,0,10,,,,,,,,,14,,,,41,0
60260,note_on,20,0,6,,,,,,,,,10,,,,89,0
60263,note_on,0,0,7,,,,,,,,,11,,,,74,0
60263,note_on,20,0,7,,,,,,,,,11,,,,77,0
60270,note_on,10,0,6,,,,,,,,,10,,,,89,92
60273,note_on,0,0,7,,,,,,,,,11,,,,77,92
60273,note_on,10,0,7,,,,,,,,,11,,,,74,92
60290,note_on,20,0,6,,,,,,,,,10,,,,89,0
60293,note_on,0,0,7,,,,,,,,,11,,,,74,0
60293,note_on,20,0,7,,,,,,,,,11,,,,77,0
60300,note_on,10,0,6,,,,,,,,,10,,,,89,100
60303,note_on,10,0,7,,,,,,,,,11,,,,77,100
60303,note_on,0,0,7,,,,,,,,,11,,,,74,100
60306,note_on,0,0,8,,,,,,,,,12,,,,67,98
60306,note_on,60,0,8,,,,,,,,,12,,,,65,0
60311,note_on,60,0,9,,,,,,,,,13,,,,53,0
60311,note_on,0,0,9,,,,,,,,,13,,,,55,89
60313,note_on,0,0,10,,,,,,,,,14,,,,43,73
60313,note_on,60,0,10,,,,,,,,,14,,,,41,0
60320,note_on,20,0,6,,,,,,,,,10,,,,89,0
60323,note_on,20,0,7,,,,,,,,,11,,,,74,0
60323,note_on,0,0,7,,,,,,,,,11,,,,77,0
60330,note_on,10,0,6,,,,,,,,,10,,,,89,92
60333,note_on,10,0,7,,,,,,,,,11,,,,77,92
60333,note_on,0,0,7,,,,,,,,,11,,,,74,92
60350,note_on,20,0,6,,,,,,,,,10,,,,89,0
60353,note_on,0,0,7,,,,,,,,,11,,,,77,0
60353,note_on,20,0,7,,,,,,,,,11,,,,74,0
60356,note_on,50,0,8,,,,,,,,,12,,,,67,0
60360,set_tempo,120,1,0,,,,,,382166,,,,,,,,
60360,note_on,10,0,6,,,,,,,,,10,,,,89,100
60361,note_on,50,0,9,,,,,,,,,13,,,,55,0
60363,note_on,10,0,7,,,,,,,,,11,,,,74,100
60363,note_on,0,0,7,,,,,,,,,11,,,,77,100
60363,note_on,50,0,10,,,,,,,,,14,,,,43,0
60366,note_on,10,0,8,,,,,,,,,12,,,,69,98
60371,note_on,10,0,9,,,,,,,,,13,,,,57,89
60373,note_on,10,0,10,,,,,,,,,14,,,,45,73
60380,note_on,20,0,6,,,,,,,,,10,,,,89,0
60383,note_on,20,0,7,,,,,,,,,11,,,,77,0
60383,note_on,0,0,7,,,,,,,,,11,,,,74,0
60390,note_on,10,0,6,,,,,,,,,10,,,,89,92
60393,note_on,10,0,7,,,,,,,,,11,,,,74,92
60393,note_on,0,0,7,,,,,,,,,11,,,,77,92
60396,note_on,30,0,8,,,,,,,,,12,,,,69,0
60401,note_on,30,0,9,,,,,,,,,13,,,,57,0
60403,note_on,30,0,10,,,,,,,,,14,,,,45,0
60410,note_on,20,0,6,,,,,,,,,10,,,,89,0
60413,note_on,20,0,7,,,,,,,,,11,,,,77,0
60413,note_on,0,0,7,,,,,,,,,11,,,,74,0
60420,note_on,10,0,6,,,,,,,,,10,,,,89,100
60423,note_on,10,0,7,,,,,,,,,11,,,,77,100
60423,note_on,0,0,7,,,,,,,,,11,,,,74,100
60426,note_on,30,0,8,,,,,,,,,12,,,,70,98
60431,note_on,30,0,9,,,,,,,,,13,,,,58,89
60433,note_on,30,0,10,,,,,,,,,14,,,,46,73
60440,note_on,20,0,6,,,,,,,,,10,,,,89,0
60443,note_on,20,0,7,,,,,,,,,11,,,,74,0
60443,note_on,0,0,7,,,,,,,,,11,,,,77,0
60450,note_on,10,0,6,,,,,,,,,10,,,,89,92
60453,note_on,0,0,7,,,,,,,,,11,,,,77,92
60453,note_on,10,0,7,,,,,,,,,11,,,,74,92
60456,note_on,30,0,8,,,,,,,,,12,,,,70,0
60461,note_on,30,0,9,,,,,,,,,13,,,,58,0
60463,note_on,30,0,10,,,,,,,,,14,,,,46,0
60470,note_on,20,0,6,,,,,,,,,10,,,,89,0
60473,note_on,20,0,7,,,,,,,,,11,,,,77,0
60473,note_on,0,0,7,,,,,,,,,11,,,,74,0
60480,set_tempo,120,1,0,,,,,,355030,,,,,,,,
60480,note_on,10,0,6,,,,,,,,,10,,,,89,100
60483,note_on,10,0,7,,,,,,,,,11,,,,77,100
60483,note_on,0,0,7,,,,,,,,,11,,,,75,100
60484,note_on,0,0,4,,,,,,,,,4,,,,63,86
60484,note_on,240,0,4,,,,,,,,,4,,,,62,0
60485,note_on,0,0,2,,,,,,,,,1,,,,75,81
60485,note_on,240,0,2,,,,,,,,,1,,,,74,0
60486,note_on,30,0,8,,,,,,,,,12,,,,70,98
60486,note_on,0,0,5,,,,,,,,,5,,,,60,86
60486,note_on,240,0,5,,,,,,,,,5,,,,58,0
60491,note_on,30,0,9,,,,,,,,,13,,,,58,89
60492,note_on,0,0,3,,,,,,,,,3,,,,63,81
60492,note_on,240,0,3,,,,,,,,,3,,,,62,0
60493,note_on,30,0,10,,,,,,,,,14,,,,46,73
60500,note_on,20,0,6,,,,,,,,,10,,,,89,0
60503,note_on,20,0,7,,,,,,,,,11,,,,75,0
60503,note_on,0,0,7,,,,,,,,,11,,,,77,0
60510,note_on,10,0,6,,,,,,,,,10,,,,89,92
60513,note_on,0,0,7,,,,,,,,,11,,,,75,92
60513,note_on,10,0,7,,,,,,,,,11,,,,77,92
60530,note_on,20,0,6,,,,,,,,,10,,,,89,0
60533,note_on,20,0,7,,,,,,,,,11,,,,75,0
60533,note_on,0,0,7,,,,,,,,,11,,,,77,0
60540,note_on,10,0,6,,,,,,,,,10,,,,89,100
60543,note_on,10,0,7,,,,,,,,,11,,,,77,100
60543,note_on,0,0,7,,,,,,,,,11,,,,75,100
60546,note_on,60,0,8,,,,,,,,,12,,,,70,0
60546,note_on,0,0,8,,,,,,,,,12,,,,69,98
60551,note_on,60,0,9,,,,,,,,,13,,,,58,0
60551,note_on,0,0,9,,,,,,,,,13,,,,57,89
60553,note_on,0,0,10,,,,,,,,,14,,,,45,73
60553,note_on,60,0,10,,,,,,,,,14,,,,46,0
60560,note_on,20,0,6,,,,,,,,,10,,,,89,0
60563,note_on,20,0,7,,,,,,,,,11,,,,75,0
60563,note_on,0,0,7,,,,,,,,,11,,,,77,0
60570,note_on,10,0,6,,,,,,,,,10,,,,89,92
60573,note_on,10,0,7,,,,,,,,,11,,,,77,92
60573,note_on,0,0,7,,,,,,,,,11,,,,75,92
60590,note_on,20,0,6,,,,,,,,,10,,,,89,0
60593,note_on,0,0,7,,,,,,,,,11,,,,77,0
60593,note_on,20,0,7,,,,,,,,,11,,,,75,0
60596,note_on,50,0,8,,,,,,,,,12,,,,69,0
60600,note_on,10,0,6,,,,,,,,,10,,,,89,100
60600,set_tempo,120,1,0,,,,,,382166,,,,,,,,
60601,note_on,50,0,9,,,,,,,,,13,,,,57,0
60603,note_on,50,0,10,,,,,,,,,14,,,,45,0
60603,note_on,10,0,7,,,,,,,,,11,,,,75,100
60603,note_on,0,0,7,,,,,,,,,11,,,,77,100
60606,note_on,10,0,8,,,,,,,,,12,,,,67,98
60611,note_on,10,0,9,,,,,,,,,13,,,,55,89
60613,note_on,10,0,10,,,,,,,,,14,,,,43,73
60620,note_on,20,0,6,,,,,,,,,10,,,,89,0
60623,note_on,0,0,7,,,,,,,,,11,,,,75,0
60623,note_on,20,0,7,,,,,,,,,11,,,,77,0
60630,note_on,10,0,6,,,,,,,,,10,,,,89,92
60633,note_on,0,0,7,,,,,,,,,11,,,,77,92
60633,note_on,10,0,7,,,,,,,,,11,,,,75,92
60636,note_on,30,0,8,,,,,,,,,12,,,,67,0
60641,note_on,30,0,9,,,,,,,,,13,,,,55,0
60643,note_on,30,0,10,,,,,,,,,14,,,,43,0
60650,note_on,20,0,6,,,,,,,,,10,,,,89,0
60653,note_on,0,0,7,,,,,,,,,11,,,,75,0
60653,note_on,20,0,7,,,,,,,,,11,,,,77,0
60660,note_on,10,0,6,,,,,,,,,10,,,,89,100
60663,note_on,10,0,7,,,,,,,,,11,,,,75,100
60663,note_on,0,0,7,,,,,,,,,11,,,,77,100
60666,note_on,30,0,8,,,,,,,,,12,,,,65,98
60671,note_on,30,0,9,,,,,,,,,13,,,,53,89
60673,note_on,30,0,10,,,,,,,,,14,,,,41,73
60680,note_on,20,0,6,,,,,,,,,10,,,,89,0
60683,note_on,20,0,7,,,,,,,,,11,,,,77,0
60683,note_on,0,0,7,,,,,,,,,11,,,,75,0
60690,note_on,10,0,6,,,,,,,,,10,,,,89,92
60693,note_on,10,0,7,,,,,,,,,11,,,,77,92
60693,note_on,0,0,7,,,,,,,,,11,,,,75,92
60696,note_on,30,0,8,,,,,,,,,12,,,,65,0
60701,note_on,30,0,9,,,,,,,,,13,,,,53,0
60703,note_on,30,0,10,,,,,,,,,14,,,,41,0
60710,note_on,20,0,6,,,,,,,,,10,,,,89,0
60713,note_on,0,0,7,,,,,,,,,11,,,,77,0
60713,note_on,20,0,7,,,,,,,,,11,,,,75,0
60720,set_tempo,120,1,0,,,,,,355030,,,,,,,,
60720,note_on,10,0,6,,,,,,,,,10,,,,89,100
60723,note_on,10,0,7,,,,,,,,,11,,,,74,100
60723,note_on,0,0,7,,,,,,,,,11,,,,77,100
60724,note_on,0,0,4,,,,,,,,,4,,,,62,86
60724,note_on,240,0,4,,,,,,,,,4,,,,63,0
60725,note_on,0,0,2,,,,,,,,,1,,,,74,81
60725,note_on,0,0,2,,,,,,,,,1,,,,77,81
60725,note_on,0,0,2,,,,,,,,,1,,,,77,0
60725,note_on,240,0,2,,,,,,,,,1,,,,75,0
60726,note_on,30,0,8,,,,,,,,,12,,,,65,98
60726,note_on,0,0,5,,,,,,,,,5,,,,58,86
60726,note_on,240,0,5,,,,,,,,,5,,,,60,0
60731,note_on,30,0,9,,,,,,,,,13,,,,53,89
60732,note_on,240,0,3,,,,,,,,,3,,,,63,0
60732,note_on,0,0,3,,,,,,,,,3,,,,62,81
60732,note_on,0,0,3,,,,,,,,,3,,,,65,81
60732,note_on,0,0,3,,,,,,,,,3,,,,65,0
60733,note_on,30,0,10,,,,,,,,,14,,,,41,73
60740,note_on,20,0,6,,,,,,,,,10,,,,89,0
60743,note_on,20,0,7,,,,,,,,,11,,,,77,0
60743,note_on,0,0,7,,,,,,,,,11,,,,74,0
60750,note_on,10,0,6,,,,,,,,,10,,,,89,92
60753,note_on,10,0,7,,,,,,,,,11,,,,74,92
60753,note_on,0,0,7,,,,,,,,,11,,,,77,92
60770,note_on,20,0,6,,,,,,,,,10,,,,89,0
60773,note_on,0,0,7,,,,,,,,,11,,,,74,0
60773,note_on,20,0,7,,,,,,,,,11,,,,77,0
60780,note_on,10,0,6,,,,,,,,,10,,,,89,100
60783,note_on,10,0,7,,,,,,,,,11,,,,74,100
60783,note_on,0,0,7,,,,,,,,,11,,,,77,100
60786,note_on,60,0,8,,,,,,,,,12,,,,65,0
60786,note_on,0,0,8,,,,,,,,,12,,,,67,98
60791,note_on,0,0,9,,,,,,,,,13,,,,55,89
60791,note_on,60,0,9,,,,,,,,,13,,,,53,0
60793,note_on,0,0,10,,,,,,,,,14,,,,43,73
60793,note_on,60,0,10,,,,,,,,,14,,,,41,0
60800,note_on,20,0,6,,,,,,,,,10,,,,89,0
60803,note_on,20,0,7,,,,,,,,,11,,,,77,0
60803,note_on,0,0,7,,,,,,,,,11,,,,74,0
60810,note_on,10,0,6,,,,,,,,,10,,,,89,92
60813,note_on,10,0,7,,,,,,,,,11,,,,77,92
60813,note_on,0,0,7,,,,,,,,,11,,,,74,92
60830,note_on,20,0,6,,,,,,,,,10,,,,89,0
60833,note_on,0,0,7,,,,,,,,,11,,,,77,0
60833,note_on,20,0,7,,,,,,,,,11,,,,74,0
60836,note_on,50,0,8,,,,,,,,,12,,,,67,0
60840,note_on,10,0,6,,,,,,,,,10,,,,89,100
60840,set_tempo,120,1,0,,,,,,382166,,,,,,,,
60841,note_on,50,0,9,,,,,,,,,13,,,,55,0
60843,note_on,50,0,10,,,,,,,,,14,,,,43,0
60843,note_on,10,0,7,,,,,,,,,11,,,,77,100
60843,note_on,0,0,7,,,,,,,,,11,,,,74,100
60846,note_on,10,0,8,,,,,,,,,12,,,,69,98
60851,note_on,10,0,9,,,,,,,,,13,,,,57,89
60853,note_on,10,0,10,,,,,,,,,14,,,,45,73
60860,note_on,20,0,6,,,,,,,,,10,,,,89,0
60863,note_on,20,0,7,,,,,,,,,11,,,,74,0
60863,note_on,0,0,7,,,,,,,,,11,,,,77,0
60870,note_on,10,0,6,,,,,,,,,10,,,,89,92
60873,note_on,10,0,7,,,,,,,,,11,,,,74,92
60873,note_on,0,0,7,,,,,,,,,11,,,,77,92
60876,note_on,30,0,8,,,,,,,,,12,,,,69,0
60881,note_on,30,0,9,,,,,,,,,13,,,,57,0
60883,note_on,30,0,10,,,,,,,,,14,,,,45,0
60890,note_on,20,0,6,,,,,,,,,10,,,,89,0
60893,note_on,20,0,7,,,,,,,,,11,,,,77,0
60893,note_on,0,0,7,,,,,,,,,11,,,,74,0
60900,note_on,10,0,6,,,,,,,,,10,,,,89,100
60903,note_on,10,0,7,,,,,,,,,11,,,,74,100
60903,note_on,0,0,7,,,,,,,,,11,,,,77,100
60906,note_on,30,0,8,,,,,,,,,12,,,,70,98
60911,note_on,30,0,9,,,,,,,,,13,,,,58,89
60913,note_on,30,0,10,,,,,,,,,14,,,,46,73
60920,note_on,20,0,6,,,,,,,,,10,,,,89,0
60923,note_on,0,0,7,,,,,,,,,11,,,,74,0
60923,note_on,20,0,7,,,,,,,,,11,,,,77,0
60930,note_on,10,0,6,,,,,,,,,10,,,,89,92
60933,note_on,0,0,7,,,,,,,,,11,,,,74,92
60933,note_on,10,0,7,,,,,,,,,11,,,,77,92
60936,note_on,30,0,8,,,,,,,,,12,,,,70,0
60941,note_on,30,0,9,,,,,,,,,13,,,,58,0
60943,note_on,30,0,10,,,,,,,,,14,,,,46,0
60950,note_on,20,0,6,,,,,,,,,10,,,,89,0
60953,note_on,20,0,7,,,,,,,,,11,,,,74,0
60953,note_on,0,0,7,,,,,,,,,11,,,,77,0
60960,set_tempo,120,1,0,,,,,,355030,,,,,,,,
60960,note_on,10,0,6,,,,,,,,,10,,,,89,100
60963,note_on,10,0,7,,,,,,,,,11,,,,75,100
60963,note_on,0,0,7,,,,,,,,,11,,,,77,100
60964,note_on,240,0,4,,,,,,,,,4,,,,62,0
60964,note_on,0,0,4,,,,,,,,,4,,,,63,86
60965,note_on,0,0,2,,,,,,,,,1,,,,75,81
60965,note_on,240,0,2,,,,,,,,,1,,,,74,0
60966,note_on,30,0,8,,,,,,,,,12,,,,70,98
60966,note_on,0,0,5,,,,,,,,,5,,,,60,86
60966,note_on,240,0,5,,,,,,,,,5,,,,58,0
60971,note_on,30,0,9,,,,,,,,,13,,,,58,89
60972,note_on,240,0,3,,,,,,,,,3,,,,62,0
60972,note_on,0,0,3,,,,,,,,,3,,,,63,81
60973,note_on,30,0,10,,,,,,,,,14,,,,46,73
60980,note_on,20,0,6,,,,,,,,,10,,,,89,0
60983,note_on,20,0,7,,,,,,,,,11,,,,77,0
60983,note_on,0,0,7,,,,,,,,,11,,,,75,0
60990,note_on,10,0,6,,,,,,,,,10,,,,89,92
60993,note_on,10,0,7,,,,,,,,,11,,,,77,92
60993,note_on,0,0,7,,,,,,,,,11,,,,75,92
61010,note_on,20,0,6,,,,,,,,,10,,,,89,0
61013,note_on,20,0,7,,,,,,,,,11,,,,75,0
61013,note_on,0,0,7,,,,,,,,,11,,,,77,0
61020,note_on,10,0,6,,,,,,,,,10,,,,89,100
61023,note_on,0,0,7,,,,,,,,,11,,,,75,100
61023,note_on,10,0,7,,,,,,,,,11,,,,77,100
61026,note_on,0,0,8,,,,,,,,,12,,,,69,98
61026,note_on,60,0,8,,,,,,,,,12,,,,70,0
61031,note_on,60,0,9,,,,,,,,,13,,,,58,0
61031,note_on,0,0,9,,,,,,,,,13,,,,57,89
61033,note_on,0,0,10,,,,,,,,,14,,,,45,73
61033,note_on,60,0,10,,,,,,,,,14,,,,46,0
61040,note_on,20,0,6,,,,,,,,,10,,,,89,0
61043,note_on,0,0,7,,,,,,,,,11,,,,77,0
61043,note_on,20,0,7,,,,,,,,,11,,,,75,0
61050,note_on,10,0,6,,,,,,,,,10,,,,89,92
61053,note_on,0,0,7,,,,,,,,,11,,,,75,92
61053,note_on,10,0,7,,,,,,,,,11,,,,77,92
61070,note_on,20,0,6,,,,,,,,,10,,,,89,0
61073,note_on,0,0,7,,,,,,,,,11,,,,77,0
61073,note_on,20,0,7,,,,,,,,,11,,,,75,0
61076,note_on,50,0,8,,,,,,,,,12,,,,69,0
61080,note_on,10,0,6,,,,,,,,,10,,,,89,100
61080,set_tempo,120,1,0,,,,,,382166,,,,,,,,
61081,note_on,50,0,9,,,,,,,,,13,,,,57,0
61083,note_on,0,0,7,,,,,,,,,11,,,,75,100
61083,note_on,10,0,7,,,,,,,,,11,,,,77,100
61083,note_on,50,0,10,,,,,,,,,14,,,,45,0
61086,note_on,10,0,8,,,,,,,,,12,,,,67,98
61091,note_on,10,0,9,,,,,,,,,13,,,,55,89
61093,note_on,10,0,10,,,,,,,,,14,,,,43,73
61100,note_on,20,0,6,,,,,,,,,10,,,,89,0
61103,note_on,20,0,7,,,,,,,,,11,,,,75,0
61103,note_on,0,0,7,,,,,,,,,11,,,,77,0
61110,note_on,10,0,6,,,,,,,,,10,,,,89,92
61113,note_on,10,0,7,,,,,,,,,11,,,,75,92
61113,note_on,0,0,7,,,,,,,,,11,,,,77,92
61116,note_on,30,0,8,,,,,,,,,12,,,,67,0
61121,note_on,30,0,9,,,,,,,,,13,,,,55,0
61123,note_on,30,0,10,,,,,,,,,14,,,,43,0
61130,note_on,20,0,6,,,,,,,,,10,,,,89,0
61133,note_on,0,0,7,,,,,,,,,11,,,,75,0
61133,note_on,20,0,7,,,,,,,,,11,,,,77,0
61140,note_on,10,0,6,,,,,,,,,10,,,,89,100
61143,note_on,0,0,7,,,,,,,,,11,,,,75,100
61143,note_on,10,0,7,,,,,,,,,11,,,,77,100
61146,note_on,30,0,8,,,,,,,,,12,,,,65,98
61151,note_on,30,0,9,,,,,,,,,13,,,,53,89
61153,note_on,30,0,10,,,,,,,,,14,,,,41,73
61160,note_on,20,0,6,,,,,,,,,10,,,,89,0
61163,note_on,20,0,7,,,,,,,,,11,,,,75,0
61163,note_on,0,0,7,,,,,,,,,11,,,,77,0
61170,note_on,10,0,6,,,,,,,,,10,,,,89,92
61173,note_on,0,0,7,,,,,,,,,11,,,,77,92
61173,note_on,10,0,7,,,,,,,,,11,,,,75,92
61176,note_on,30,0,8,,,,,,,,,12,,,,65,0
61181,note_on,30,0,9,,,,,,,,,13,,,,53,0
61183,note_on,30,0,10,,,,,,,,,14,,,,41,0
61190,note_on,20,0,6,,,,,,,,,10,,,,89,0
61193,note_on,0,0,7,,,,,,,,,11,,,,75,0
61193,note_on,20,0,7,,,,,,,,,11,,,,77,0
61200,note_on,10,0,6,,,,,,,,,10,,,,77,100
61200,set_tempo,120,1,0,,,,,,355030,,,,,,,,
61203,note_on,0,0,1,,,,,,,,,0,,,,89,82
61203,note_on,10,0,7,,,,,,,,,11,,,,74,100
61203,note_on,960,0,1,,,,,,,,,0,,,,89,0
61204,note_on,0,0,4,,,,,,,,,4,,,,62,86
61204,note_on,240,0,4,,,,,,,,,4,,,,63,0
61205,note_on,0,0,2,,,,,,,,,1,,,,77,81
61205,note_on,240,0,2,,,,,,,,,1,,,,75,0
61205,note_on,0,0,2,,,,,,,,,1,,,,77,0
61205,note_on,0,0,2,,,,,,,,,1,,,,74,81
61206,note_on,0,0,5,,,,,,,,,5,,,,62,86
61206,note_on,240,0,5,,,,,,,,,5,,,,60,0
61206,note_on,30,0,8,,,,,,,,,12,,,,70,98
61211,note_on,30,0,9,,,,,,,,,13,,,,58,89
61212,note_on,0,0,3,,,,,,,,,3,,,,65,0
61212,note_on,240,0,3,,,,,,,,,3,,,,63,0
61212,note_on,0,0,3,,,,,,,,,3,,,,58,81
61213,note_on,30,0,10,,,,,,,,,14,,,,46,73
61250,note_on,50,0,6,,,,,,,,,10,,,,77,0
61253,note_on,50,0,1,,,,,,,,,0,,,,89,0
61253,note_on,50,0,7,,,,,,,,,11,,,,74,0
61255,note_on,0,0,2,,,,,,,,,1,,,,74,0
61255,note_on,50,0,2,,,,,,,,,1,,,,77,0
61256,note_on,50,0,8,,,,,,,,,12,,,,70,0
61260,note_on,10,0,6,,,,,,,,,10,,,,77,100
61261,note_on,50,0,9,,,,,,,,,13,,,,58,0
61262,note_on,50,0,3,,,,,,,,,3,,,,58,0
61263,note_on,50,0,10,,,,,,,,,14,,,,46,0
61263,note_on,10,0,7,,,,,,,,,11,,,,74,100
61263,note_on,10,0,1,,,,,,,,,0,,,,89,82
61264,note_on,0,0,4,,,,,,,,,4,,,,62,86
61264,note_on,60,0,4,,,,,,,,,4,,,,62,0
61265,note_on,10,0,2,,,,,,,,,1,,,,74,81
61265,note_on,0,0,2,,,,,,,,,1,,,,77,81
61266,note_on,0,0,5,,,,,,,,,5,,,,62,86
61266,note_on,60,0,5,,,,,,,,,5,,,,62,0
61266,note_on,10,0,8,,,,,,,,,12,,,,70,98
61271,note_on,10,0,9,,,,,,,,,13,,,,58,89
61272,note_on,10,0,3,,,,,,,,,3,,,,58,81
61273,note_on,10,0,10,,,,,,,,,14,,,,46,73
61310,note_on,50,0,6,,,,,,,,,10,,,,77,0
61313,note_on,50,0,1,,,,,,,,,0,,,,89,0
61313,note_on,50,0,7,,,,,,,,,11,,,,74,0
61315,note_on,0,0,2,,,,,,,,,1,,,,74,0
61315,note_on,50,0,2,,,,,,,,,1,,,,77,0
61316,note_on,50,0,8,,,,,,,,,12,,,,70,0
61320,note_on,10,0,6,,,,,,,,,10,,,,79,115
61320,set_tempo,120,1,0,,,,,,382166,,,,,,,,
61321,note_on,50,0,9,,,,,,,,,13,,,,58,0
61322,note_on,50,0,3,,,,,,,,,3,,,,58,0
61323,note_on,50,0,10,,,,,,,,,14,,,,46,0
61323,note_on,10,0,7,,,,,,,,,11,,,,72,115
61323,note_on,10,0,1,,,,,,,,,0,,,,91,95
61324,note_on,60,0,4,,,,,,,,,4,,,,62,0
61324,note_on,0,0,4,,,,,,,,,4,,,,60,99
61325,note_on,10,0,2,,,,,,,,,1,,,,79,94
61325,note_on,0,0,2,,,,,,,,,1,,,,72,94
61326,note_on,10,0,8,,,,,,,,,12,,,,68,113
61326,note_on,60,0,5,,,,,,,,,5,,,,62,0
61326,note_on,0,0,5,,,,,,,,,5,,,,60,99
61331,note_on,10,0,9,,,,,,,,,13,,,,56,104
61332,note_on,10,0,3,,,,,,,,,3,,,,56,94
61333,note_on,10,0,10,,,,,,,,,14,,,,44,86
61350,note_on,30,0,6,,,,,,,,,10,,,,79,0
61350,note_on,0,0,6,,,,,,,,,10,,,,78,100
61353,note_on,0,0,1,,,,,,,,,0,,,,90,82
61353,note_on,30,0,1,,,,,,,,,0,,,,91,0
61355,note_on,0,0,2,,,,,,,,,1,,,,78,81
61355,note_on,30,0,2,,,,,,,,,1,,,,79,0
61370,note_on,20,0,6,,,,,,,,,10,,,,78,0
61373,note_on,20,0,1,,,,,,,,,0,,,,90,0
61375,note_on,20,0,2,,,,,,,,,1,,,,78,0
61380,note_on,10,0,6,,,,,,,,,10,,,,76,100
61383,note_on,10,0,1,,,,,,,,,0,,,,88,82
61385,note_on,10,0,2,,,,,,,,,1,,,,76,81
61400,note_on,20,0,6,,,,,,,,,10,,,,76,0
61403,note_on,20,0,1,,,,,,,,,0,,,,88,0
61405,note_on,20,0,2,,,,,,,,,1,,,,76,0
61410,note_on,10,0,6,,,,,,,,,10,,,,78,100
61413,note_on,10,0,1,,,,,,,,,0,,,,90,82
61415,note_on,10,0,2,,,,,,,,,1,,,,78,81
61430,note_on,20,0,6,,,,,,,,,10,,,,78,0
61433,note_on,110,0,7,,,,,,,,,11,,,,72,0
61433,note_on,20,0,1,,,,,,,,,0,,,,90,0
61435,note_on,0,0,2,,,,,,,,,1,,,,72,0
61435,note_on,20,0,2,,,,,,,,,1,,,,78,0
61436,note_on,110,0,8,,,,,,,,,12,,,,68,0
61440,set_tempo,120,1,0,,,,,,355030,,,,,,,,
61440,note_on,10,0,6,,,,,,,,,10,,,,79,100
61441,note_on,110,0,9,,,,,,,,,13,,,,56,0
61442,note_on,110,0,3,,,,,,,,,3,,,,56,0
61443,note_on,10,0,1,,,,,,,,,0,,,,91,82
61443,note_on,10,0,7,,,,,,,,,11,,,,71,100
61443,note_on,110,0,10,,,,,,,,,14,,,,44,0
61444,note_on,0,0,4,,,,,,,,,4,,,,62,86
61444,note_on,120,0,4,,,,,,,,,4,,,,60,0
61445,note_on,10,0,2,,,,,,,,,1,,,,71,81
61445,note_on,0,0,2,,,,,,,,,1,,,,79,81
61446,note_on,120,0,5,,,,,,,,,5,,,,60,0
61446,note_on,0,0,5,,,,,,,,,5,,,,62,86
61446,note_on,10,0,8,,,,,,,,,12,,,,67,98
61451,note_on,10,0,9,,,,,,,,,13,,,,55,89
61452,note_on,10,0,3,,,,,,,,,3,,,,55,81
61453,note_on,10,0,10,,,,,,,,,14,,,,43,73
61470,note_on,30,0,6,,,,,,,,,10,,,,79,0
61473,note_on,30,0,7,,,,,,,,,11,,,,71,0
61473,note_on,30,0,1,,,,,,,,,0,,,,91,0
61475,note_on,30,0,2,,,,,,,,,1,,,,79,0
61475,note_on,0,0,2,,,,,,,,,1,,,,71,0
61476,note_on,30,0,8,,,,,,,,,12,,,,67,0
61480,note_on,36,0,4,,,,,,,,,4,,,,62,0
61481,note_on,30,0,9,,,,,,,,,13,,,,55,0
61482,note_on,36,0,5,,,,,,,,,5,,,,62,0
61482,note_on,30,0,3,,,,,,,,,3,,,,55,0
61483,note_on,30,0,10,,,,,,,,,14,,,,43,0
61500,note_on,30,0,6,,,,,,,,,10,,,,79,100
61503,note_on,30,0,1,,,,,,,,,0,,,,91,82
61503,note_on,30,0,7,,,,,,,,,11,,,,71,100
61504,note_on,24,0,4,,,,,,,,,4,,,,62,86
61505,note_on,0,0,2,,,,,,,,,1,,,,79,81
61505,note_on,30,0,2,,,,,,,,,1,,,,71,81
61506,note_on,30,0,8,,,,,,,,,12,,,,67,98
61506,note_on,24,0,5,,,,,,,,,5,,,,62,86
61511,note_on,30,0,9,,,,,,,,,13,,,,55,89
61512,note_on,30,0,3,,,,,,,,,3,,,,55,81
61513,note_on,30,0,10,,,,,,,,,14,,,,43,73
61530,note_on,30,0,6,,,,,,,,,10,,,,79,0
61533,note_on,30,0,1,,,,,,,,,0,,,,91,0
61533,note_on,30,0,7,,,,,,,,,11,,,,71,0
61535,note_on,30,0,2,,,,,,,,,1,,,,79,0
61535,note_on,0,0,2,,,,,,,,,1,,,,71,0
61536,note_on,30,0,8,,,,,,,,,12,,,,67,0
61540,note_on,36,0,4,,,,,,,,,4,,,,62,0
61541,note_on,30,0,9,,,,,,,,,13,,,,55,0
61542,note_on,36,0,5,,,,,,,,,5,,,,62,0
61542,note_on,30,0,3,,,,,,,,,3,,,,55,0
61543,note_on,30,0,10,,,,,,,,,14,,,,43,0
61560,set_tempo,120,1,0,,,,,,382166,,,,,,,,
61560,note_on,30,0,6,,,,,,,,,10,,,,76,100
61563,note_on,30,0,7,,,,,,,,,11,,,,70,100
61563,note_on,30,0,1,,,,,,,,,0,,,,88,82
61564,note_on,24,0,4,,,,,,,,,4,,,,60,86
61565,note_on,0,0,2,,,,,,,,,1,,,,70,81
61565,note_on,30,0,2,,,,,,,,,1,,,,76,81
61566,note_on,30,0,8,,,,,,,,,12,,,,60,98
61566,note_on,24,0,5,,,,,,,,,5,,,,60,86
61571,note_on,30,0,9,,,,,,,,,13,,,,60,89
61572,note_on,30,0,3,,,,,,,,,3,,,,60,81
61573,note_on,30,0,10,,,,,,,,,14,,,,48,73
61590,note_on,30,0,6,,,,,,,,,10,,,,76,0
61593,note_on,30,0,1,,,,,,,,,0,,,,88,0
61593,note_on,30,0,7,,,,,,,,,11,,,,70,0
61595,note_on,30,0,2,,,,,,,,,1,,,,70,0
61595,note_on,0,0,2,,,,,,,,,1,,,,76,0
61596,note_on,30,0,8,,,,,,,,,12,,,,60,0
61600,note_on,36,0,4,,,,,,,,,4,,,,60,0
61601,note_on,30,0,9,,,,,,,,,13,,,,60,0
61602,note_on,36,0,5,,,,,,,,,5,,,,60,0
61602,note_on,30,0,3,,,,,,,,,3,,,,60,0
61603,note_on,30,0,10,,,,,,,,,14,,,,48,0
61620,note_on,30,0,6,,,,,,,,,10,,,,76,100
61623,note_on,30,0,7,,,,,,,,,11,,,,70,100
61623,note_on,30,0,1,,,,,,,,,0,,,,88,82
61624,note_on,24,0,4,,,,,,,,,4,,,,60,86
61625,note_on,0,0,2,,,,,,,,,1,,,,70,81
61625,note_on,30,0,2,,,,,,,,,1,,,,76,81
61626,note_on,30,0,8,,,,,,,,,12,,,,60,98
61626,note_on,24,0,5,,,,,,,,,5,,,,60,86
61631,note_on,30,0,9,,,,,,,,,13,,,,60,89
61632,note_on,30,0,3,,,,,,,,,3,,,,60,81
61633,note_on,30,0,10,,,,,,,,,14,,,,48,73
61650,note_on,30,0,6,,,,,,,,,10,,,,76,0
61653,note_on,30,0,7,,,,,,,,,11,,,,70,0
61653,note_on,30,0,1,,,,,,,,,0,,,,88,0
61655,note_on,0,0,2,,,,,,,,,1,,,,76,0
61655,note_on,30,0,2,,,,,,,,,1,,,,70,0
61656,note_on,30,0,8,,,,,,,,,12,,,,60,0
61660,note_on,36,0,4,,,,,,,,,4,,,,60,0
61661,note_on,30,0,9,,,,,,,,,13,,,,60,0
61662,note_on,30,0,3,,,,,,,,,3,,,,60,0
61662,note_on,36,0,5,,,,,,,,,5,,,,60,0
61663,note_on,30,0,10,,,,,,,,,14,,,,48,0
61680,set_tempo,120,1,0,,,,,,355030,,,,,,,,
61680,note_on,30,0,6,,,,,,,,,10,,,,77,100
61683,note_on,30,0,7,,,,,,,,,11,,,,69,100
61683,note_on,30,0,1,,,,,,,,,0,,,,89,82
61684,note_on,24,0,4,,,,,,,,,4,,,,60,86
61685,note_on,30,0,2,,,,,,,,,1,,,,77,81
61685,note_on,0,0,2,,,,,,,,,1,,,,69,81
61686,note_on,24,0,5,,,,,,,,,5,,,,53,86
61686,note_on,30,0,8,,,,,,,,,12,,,,65,98
61691,note_on,30,0,9,,,,,,,,,13,,,,53,89
61692,note_on,30,0,3,,,,,,,,,3,,,,53,81
61693,note_on,30,0,10,,,,,,,,,14,,,,41,73
61710,note_on,30,0,6,,,,,,,,,10,,,,77,0
61713,note_on,30,0,1,,,,,,,,,0,,,,89,0
61713,note_on,30,0,7,,,,,,,,,11,,,,69,0
61715,note_on,30,0,2,,,,,,,,,1,,,,69,0
61715,note_on,0,0,2,,,,,,,,,1,,,,77,0
61716,note_on,30,0,8,,,,,,,,,12,,,,65,0
61720,note_on,36,0,4,,,,,,,,,4,,,,60,0
61721,note_on,30,0,9,,,,,,,,,13,,,,53,0
61722,note_on,30,0,3,,,,,,,,,3,,,,53,0
61722,note_on,36,0,5,,,,,,,,,5,,,,53,0
61723,note_on,30,0,10,,,,,,,,,14,,,,41,0
61740,note_on,30,0,6,,,,,,,,,10,,,,77,100
61743,note_on,30,0,7,,,,,,,,,11,,,,69,100
61743,note_on,30,0,1,,,,,,,,,0,,,,89,82
61744,note_on,24,0,4,,,,,,,,,4,,,,60,86
61745,note_on,0,0,2,,,,,,,,,1,,,,69,81
61745,note_on,30,0,2,,,,,,,,,1,,,,77,81
61746,note_on,30,0,8,,,,,,,,,12,,,,65,98
61746,note_on,24,0,5,,,,,,,,,5,,,,53,86
61751,note_on,30,0,9,,,,,,,,,13,,,,53,89
61752,note_on,30,0,3,,,,,,,,,3,,,,53,81
61753,note_on,30,0,10,,,,,,,,,14,,,,41,73
61770,note_on,30,0,6,,,,,,,,,10,,,,77,0
61773,note_on,30,0,7,,,,,,,,,11,,,,69,0
61773,note_on,30,0,1,,,,,,,,,0,,,,89,0
61775,note_on,0,0,2,,,,,,,,,1,,,,77,0
61775,note_on,30,0,2,,,,,,,,,1,,,,69,0
61776,note_on,30,0,8,,,,,,,,,12,,,,65,0
61780,note_on,36,0,4,,,,,,,,,4,,,,60,0
61781,note_on,30,0,9,,,,,,,,,13,,,,53,0
61782,note_on,36,0,5,,,,,,,,,5,,,,53,0
61782,note_on,30,0,3,,,,,,,,,3,,,,53,0
61783,note_on,30,0,10,,,,,,,,,14,,,,41,0
61800,note_on,30,0,6,,,,,,,,,10,,,,74,100
61800,set_tempo,120,1,0,,,,,,382166,,,,,,,,
61803,note_on,30,0,7,,,,,,,,,11,,,,68,100
61803,note_on,30,0,1,,,,,,,,,0,,,,86,82
61804,note_on,24,0,4,,,,,,,,,4,,,,58,86
61805,note_on,0,0,2,,,,,,,,,1,,,,68,81
61805,note_on,30,0,2,,,,,,,,,1,,,,74,81
61806,note_on,30,0,8,,,,,,,,,12,,,,58,98
61806,note_on,24,0,5,,,,,,,,,5,,,,58,86
61811,note_on,30,0,9,,,,,,,,,13,,,,58,89
61812,note_on,30,0,3,,,,,,,,,3,,,,58,81
61813,note_on,30,0,10,,,,,,,,,14,,,,46,73
61830,note_on,30,0,6,,,,,,,,,10,,,,74,0
61833,note_on,30,0,1,,,,,,,,,0,,,,86,0
61833,note_on,30,0,7,,,,,,,,,11,,,,68,0
61835,note_on,0,0,2,,,,,,,,,1,,,,74,0
61835,note_on,30,0,2,,,,,,,,,1,,,,68,0
61836,note_on,30,0,8,,,,,,,,,12,,,,58,0
61840,note_on,36,0,4,,,,,,,,,4,,,,58,0
61841,note_on,30,0,9,,,,,,,,,13,,,,58,0
61842,note_on,30,0,3,,,,,,,,,3,,,,58,0
61842,note_on,36,0,5,,,,,,,,,5,,,,58,0
61843,note_on,30,0,10,,,,,,,,,14,,,,46,0
61860,note_on,30,0,6,,,,,,,,,10,,,,74,100
61863,note_on,30,0,1,,,,,,,,,0,,,,86,82
61863,note_on,30,0,7,,,,,,,,,11,,,,68,100
61864,note_on,24,0,4,,,,,,,,,4,,,,58,86
61865,note_on,30,0,2,,,,,,,,,1,,,,68,81
61865,note_on,0,0,2,,,,,,,,,1,,,,74,81
61866,note_on,24,0,5,,,,,,,,,5,,,,58,86
61866,note_on,30,0,8,,,,,,,,,12,,,,58,98
61871,note_on,30,0,9,,,,,,,,,13,,,,58,89
61872,note_on,30,0,3,,,,,,,,,3,,,,58,81
61873,note_on,30,0,10,,,,,,,,,14,,,,46,73
61890,note_on,30,0,6,,,,,,,,,10,,,,74,0
61893,note_on,30,0,7,,,,,,,,,11,,,,68,0
61893,note_on,30,0,1,,,,,,,,,0,,,,86,0
61895,note_on,0,0,2,,,,,,,,,1,,,,68,0
61895,note_on,30,0,2,,,,,,,,,1,,,,74,0
61896,note_on,30,0,8,,,,,,,,,12,,,,58,0
61900,note_on,36,0,4,,,,,,,,,4,,,,58,0
61901,note_on,30,0,9,,,,,,,,,13,,,,58,0
61902,note_on,30,0,3,,,,,,,,,3,,,,58,0
61902,note_on,36,0,5,,,,,,,,,5,,,,58,0
61903,note_on,30,0,10,,,,,,,,,14,,,,46,0
61920,set_tempo,120,1,0,,,,,,363636,,,,,,,,
61920,note_on,30,0,6,,,,,,,,,10,,,,75,100
61923,note_on,30,0,1,,,,,,,,,0,,,,87,82
61923,note_on,30,0,7,,,,,,,,,11,,,,67,100
61924,note_on,24,0,4,,,,,,,,,4,,,,58,86
61925,note_on,30,0,2,,,,,,,,,1,,,,67,81
61925,note_on,0,0,2,,,,,,,,,1,,,,75,81
61926,note_on,24,0,5,,,,,,,,,5,,,,58,86
61926,note_on,30,0,8,,,,,,,,,12,,,,63,98
61931,note_on,30,0,9,,,,,,,,,13,,,,51,89
61932,note_on,30,0,3,,,,,,,,,3,,,,51,81
61933,note_on,30,0,10,,,,,,,,,14,,,,39,73
61950,note_on,30,0,6,,,,,,,,,10,,,,75,0
61953,note_on,30,0,1,,,,,,,,,0,,,,87,0
61953,note_on,30,0,7,,,,,,,,,11,,,,67,0
61955,note_on,30,0,2,,,,,,,,,1,,,,75,0
61955,note_on,0,0,2,,,,,,,,,1,,,,67,0
61956,note_on,30,0,8,,,,,,,,,12,,,,63,0
61960,note_on,36,0,4,,,,,,,,,4,,,,58,0
61961,note_on,30,0,9,,,,,,,,,13,,,,51,0
61962,note_on,30,0,3,,,,,,,,,3,,,,51,0
61962,note_on,36,0,5,,,,,,,,,5,,,,58,0
61963,note_on,30,0,10,,,,,,,,,14,,,,39,0
61980,note_on,30,0,6,,,,,,,,,10,,,,75,100
61983,note_on,30,0,1,,,,,,,,,0,,,,87,82
61983,note_on,30,0,7,,,,,,,,,11,,,,67,100
61984,note_on,24,0,4,,,,,,,,,4,,,,58,86
61985,note_on,30,0,2,,,,,,,,,1,,,,75,81
61985,note_on,0,0,2,,,,,,,,,1,,,,67,81
61986,note_on,30,0,8,,,,,,,,,12,,,,63,98
61986,note_on,24,0,5,,,,,,,,,5,,,,58,86
61991,note_on,30,0,9,,,,,,,,,13,,,,51,89
61992,note_on,30,0,3,,,,,,,,,3,,,,51,81
61993,note_on,30,0,10,,,,,,,,,14,,,,39,73
62010,note_on,30,0,6,,,,,,,,,10,,,,75,0
62013,note_on,30,0,7,,,,,,,,,11,,,,67,0
62013,note_on,30,0,1,,,,,,,,,0,,,,87,0
62015,note_on,30,0,2,,,,,,,,,1,,,,67,0
62015,note_on,0,0,2,,,,,,,,,1,,,,75,0
62016,note_on,30,0,8,,,,,,,,,12,,,,63,0
62020,note_on,36,0,4,,,,,,,,,4,,,,58,0
62021,note_on,30,0,9,,,,,,,,,13,,,,51,0
62022,note_on,36,0,5,,,,,,,,,5,,,,58,0
62022,note_on,30,0,3,,,,,,,,,3,,,,51,0
62023,note_on,30,0,10,,,,,,,,,14,,,,39,0
62040,note_on,30,0,6,,,,,,,,,10,,,,72,100
62040,set_tempo,120,1,0,,,,,,385852,,,,,,,,
62043,note_on,30,0,1,,,,,,,,,0,,,,84,82
62043,note_on,30,0,7,,,,,,,,,11,,,,69,100
62043,note_on,0,0,7,,,,,,,,,11,,,,63,100
62044,note_on,24,0,4,,,,,,,,,4,,,,60,86
62045,note_on,30,0,2,,,,,,,,,1,,,,69,81
62045,note_on,0,0,2,,,,,,,,,1,,,,72,81
62046,note_on,24,0,5,,,,,,,,,5,,,,53,86
62046,note_on,30,0,8,,,,,,,,,12,,,,65,98
62051,note_on,30,0,9,,,,,,,,,13,,,,53,89
62052,note_on,30,0,3,,,,,,,,,3,,,,53,81
62053,note_on,30,0,10,,,,,,,,,14,,,,41,73
62070,note_on,30,0,6,,,,,,,,,10,,,,72,0
62073,note_on,30,0,1,,,,,,,,,0,,,,84,0
62073,note_on,30,0,7,,,,,,,,,11,,,,63,0
62073,note_on,0,0,7,,,,,,,,,11,,,,69,0
62075,note_on,0,0,2,,,,,,,,,1,,,,69,0
62075,note_on,30,0,2,,,,,,,,,1,,,,72,0
62076,note_on,30,0,8,,,,,,,,,12,,,,65,0
62080,note_on,36,0,4,,,,,,,,,4,,,,60,0
62081,note_on,30,0,9,,,,,,,,,13,,,,53,0
62082,note_on,36,0,5,,,,,,,,,5,,,,53,0
62082,note_on,30,0,3,,,,,,,,,3,,,,53,0
62083,note_on,30,0,10,,,,,,,,,14,,,,41,0
62100,note_on,30,0,6,,,,,,,,,10,,,,72,100
62103,note_on,30,0,1,,,,,,,,,0,,,,84,82
62103,note_on,0,0,7,,,,,,,,,11,,,,63,100
62103,note_on,30,0,7,,,,,,,,,11,,,,69,100
62104,note_on,24,0,4,,,,,,,,,4,,,,60,86
62105,note_on,0,0,2,,,,,,,,,1,,,,69,81
62105,note_on,30,0,2,,,,,,,,,1,,,,72,81
62106,note_on,30,0,8,,,,,,,,,12,,,,65,98
62106,note_on,24,0,5,,,,,,,,,5,,,,53,86
62111,note_on,30,0,9,,,,,,,,,13,,,,53,89
62112,note_on,30,0,3,,,,,,,,,3,,,,53,81
62113,note_on,30,0,10,,,,,,,,,14,,,,41,73
62130,note_on,30,0,6,,,,,,,,,10,,,,72,0
62130,set_tempo,90,1,0,,,,,,465116,,,,,,,,
62133,note_on,30,0,7,,,,,,,,,11,,,,63,0
62133,note_on,0,0,7,,,,,,,,,11,,,,69,0
62133,note_on,30,0,1,,,,,,,,,0,,,,84,0
62135,note_on,30,0,2,,,,,,,,,1,,,,69,0
62135,note_on,0,0,2,,,,,,,,,1,,,,72,0
62136,note_on,30,0,8,,,,,,,,,12,,,,65,0
62140,note_on,36,0,4,,,,,,,,,4,,,,60,0
62141,note_on,30,0,9,,,,,,,,,13,,,,53,0
62142,note_on,30,0,3,,,,,,,,,3,,,,53,0
62142,note_on,36,0,5,,,,,,,,,5,,,,53,0
62143,note_on,30,0,10,,,,,,,,,14,,,,41,0
62160,set_tempo,30,1,0,,,,,,355030,,,,,,,,
62160,control_change,30,0,6,,,,,,,,,10,11,89,,,
62160,note_on,0,0,6,,,,,,,,,10,,,,70,100
62163,control_change,30,0,1,,,,,,,,,0,11,89,,,
62163,note_on,0,0,1,,,,,,,,,0,,,,82,82
62163,note_on,0,0,7,,,,,,,,,11,,,,58,100
62163,control_change,30,0,7,,,,,,,,,11,11,89,,,
62164,note_on,0,0,4,,,,,,,,,4,,,,58,86
62164,control_change,24,0,4,,,,,,,,,4,11,89,,,
62165,control_change,30,0,2,,,,,,,,,1,11,89,,,
62165,note_on,0,0,2,,,,,,,,,1,,,,70,81
62166,control_change,30,0,8,,,,,,,,,12,11,89,,,
62166,note_on,0,0,8,,,,,,,,,12,,,,61,98
62166,note_on,0,0,5,,,,,,,,,5,,,,46,86
62166,control_change,24,0,5,,,,,,,,,5,11,89,,,
62171,note_on,0,0,9,,,,,,,,,13,,,,46,89
62171,control_change,30,0,9,,,,,,,,,13,11,89,,,
62172,control_change,30,0,3,,,,,,,,,3,11,89,,,
62172,note_on,0,0,3,,,,,,,,,3,,,,61,81
62172,note_on,0,0,3,,,,,,,,,3,,,,58,81
62173,note_on,0,0,10,,,,,,,,,14,,,,34,73
62173,control_change,30,0,10,,,,,,,,,14,11,89,,,
62186,note_on,20,0,8,,,,,,,,,12,,,,61,0
62191,note_on,20,0,9,,,,,,,,,13,,,,46,0
62193,note_on,20,0,10,,,,,,,,,14,,,,34,0
62196,note_on,10,0,8,,,,,,,,,12,,,,61,90
62201,note_on,10,0,9,,,,,,,,,13,,,,58,81
62203,note_on,10,0,10,,,,,,,,,14,,,,46,65
62216,note_on,20,0,8,,,,,,,,,12,,,,61,0
62221,note_on,20,0,9,,,,,,,,,13,,,,58,0
62223,note_on,20,0,10,,,,,,,,,14,,,,46,0
62226,note_on,10,0,8,,,,,,,,,12,,,,61,98
62231,note_on,10,0,9,,,,,,,,,13,,,,58,89
62233,note_on,10,0,10,,,,,,,,,14,,,,46,73
62246,note_on,20,0,8,,,,,,,,,12,,,,61,0
62251,note_on,20,0,9,,,,,,,,,13,,,,58,0
62253,note_on,20,0,10,,,,,,,,,14,,,,46,0
62256,note_on,10,0,8,,,,,,,,,12,,,,61,90
62261,note_on,10,0,9,,,,,,,,,13,,,,58,81
62263,note_on,10,0,10,,,,,,,,,14,,,,46,65
62276,note_on,20,0,8,,,,,,,,,12,,,,61,0
62280,set_tempo,120,1,0,,,,,,382166,,,,,,,,
62281,note_on,20,0,9,,,,,,,,,13,,,,58,0
62283,note_on,20,0,10,,,,,,,,,14,,,,46,0
62286,note_on,10,0,8,,,,,,,,,12,,,,61,98
62291,note_on,10,0,9,,,,,,,,,13,,,,58,89
62293,note_on,10,0,10,,,,,,,,,14,,,,46,73
62306,note_on,20,0,8,,,,,,,,,12,,,,61,0
62311,note_on,20,0,9,,,,,,,,,13,,,,58,0
62313,note_on,20,0,10,,,,,,,,,14,,,,46,0
62316,note_on,10,0,8,,,,,,,,,12,,,,61,90
62321,note_on,10,0,9,,,,,,,,,13,,,,58,81
62323,note_on,10,0,10,,,,,,,,,14,,,,46,65
62336,note_on,20,0,8,,,,,,,,,12,,,,61,0
62341,note_on,20,0,9,,,,,,,,,13,,,,58,0
62343,note_on,20,0,10,,,,,,,,,14,,,,46,0
62346,note_on,10,0,8,,,,,,,,,12,,,,61,98
62351,note_on,10,0,9,,,,,,,,,13,,,,58,89
62353,note_on,10,0,10,,,,,,,,,14,,,,46,73
62366,note_on,20,0,8,,,,,,,,,12,,,,61,0
62371,note_on,20,0,9,,,,,,,,,13,,,,58,0
62373,note_on,20,0,10,,,,,,,,,14,,,,46,0
62376,note_on,10,0,8,,,,,,,,,12,,,,61,90
62381,note_on,10,0,9,,,,,,,,,13,,,,58,81
62383,note_on,10,0,10,,,,,,,,,14,,,,46,65
62390,note_on,230,0,6,,,,,,,,,10,,,,70,0
62393,note_on,230,0,1,,,,,,,,,0,,,,82,0
62393,note_on,230,0,7,,,,,,,,,11,,,,58,0
62394,note_on,230,0,4,,,,,,,,,4,,,,58,0
62395,note_on,230,0,2,,,,,,,,,1,,,,70,0
62396,note_on,230,0,5,,,,,,,,,5,,,,46,0
62396,note_on,20,0,8,,,,,,,,,12,,,,61,0
62400,control_change,10,0,6,,,,,,,,,10,11,103,,,
62400,note_on,0,0,6,,,,,,,,,10,,,,73,100
62400,set_tempo,120,1,0,,,,,,355030,,,,,,,,
62401,note_on,20,0,9,,,,,,,,,13,,,,58,0
62402,note_on,230,0,3,,,,,,,,,3,,,,58,0
62402,note_on,0,0,3,,,,,,,,,3,,,,61,0
62403,note_on,0,0,1,,,,,,,,,0,,,,85,82
62403,control_change,10,0,7,,,,,,,,,11,11,103,,,
62403,note_on,20,0,10,,,,,,,,,14,,,,46,0
62403,note_on,0,0,7,,,,,,,,,11,,,,61,100
62403,control_change,10,0,1,,,,,,,,,0,11,103,,,
62404,control_change,10,0,4,,,,,,,,,4,11,103,,,
62404,note_on,0,0,4,,,,,,,,,4,,,,58,86
62405,control_change,10,0,2,,,,,,,,,1,11,103,,,
62405,note_on,0,0,2,,,,,,,,,1,,,,73,81
62406,control_change,10,0,5,,,,,,,,,5,11,103,,,
62406,note_on,0,0,8,,,,,,,,,12,,,,61,98
62406,control_change,10,0,8,,,,,,,,,12,11,103,,,
62406,note_on,0,0,5,,,,,,,,,5,,,,46,86
62411,note_on,0,0,9,,,,,,,,,13,,,,58,89
62411,control_change,10,0,9,,,,,,,,,13,11,103,,,
62412,note_on,0,0,3,,,,,,,,,3,,,,58,81
62412,control_change,10,0,3,,,,,,,,,3,11,103,,,
62412,note_on,0,0,3,,,,,,,,,3,,,,61,81
62413,control_change,10,0,10,,,,,,,,,14,11,103,,,
62413,note_on,0,0,10,,,,,,,,,14,,,,46,73
62417,control_change,17,0,6,,,,,,,,,10,11,101,,,
62420,control_change,17,0,1,,,,,,,,,0,11,101,,,
62420,control_change,17,0,7,,,,,,,,,11,11,101,,,
62421,control_change,17,0,4,,,,,,,,,4,11,101,,,
62422,control_change,17,0,2,,,,,,,,,1,11,101,,,
62423,control_change,17,0,5,,,,,,,,,5,11,101,,,
62423,control_change,17,0,8,,,,,,,,,12,11,101,,,
62426,note_on,3,0,8,,,,,,,,,12,,,,61,0
62428,control_change,17,0,9,,,,,,,,,13,11,101,,,
62429,control_change,17,0,3,,,,,,,,,3,11,101,,,
62430,control_change,17,0,10,,,,,,,,,14,11,101,,,
62431,note_on,3,0,9,,,,,,,,,13,,,,58,0
62433,note_on,3,0,10,,,,,,,,,14,,,,46,0
62435,control_change,18,0,6,,,,,,,,,10,11,99,,,
62436,note_on,10,0,8,,,,,,,,,12,,,,61,90
62438,control_change,18,0,1,,,,,,,,,0,11,99,,,
62438,control_change,18,0,7,,,,,,,,,11,11,99,,,
62439,control_change,18,0,4,,,,,,,,,4,11,99,,,
62440,control_change,18,0,2,,,,,,,,,1,11,99,,,
62441,control_change,18,0,5,,,,,,,,,5,11,99,,,
62441,control_change,5,0,8,,,,,,,,,12,11,99,,,
62441,note_on,10,0,9,,,,,,,,,13,,,,58,81
62443,note_on,10,0,10,,,,,,,,,14,,,,46,65
62446,control_change,5,0,9,,,,,,,,,13,11,99,,,
62447,control_change,18,0,3,,,,,,,,,3,11,99,,,
62448,control_change,5,0,10,,,,,,,,,14,11,99,,,
62453,control_change,18,0,6,,,,,,,,,10,11,97,,,
62456,control_change,18,0,1,,,,,,,,,0,11,97,,,
62456,note_on,15,0,8,,,,,,,,,12,,,,61,0
62456,control_change,18,0,7,,,,,,,,,11,11,97,,,
62457,control_change,18,0,4,,,,,,,,,4,11,97,,,
62458,control_change,18,0,2,,,,,,,,,1,11,97,,,
62459,control_change,3,0,8,,,,,,,,,12,11,97,,,
62459,control_change,18,0,5,,,,,,,,,5,11,97,,,
62461,note_on,15,0,9,,,,,,,,,13,,,,58,0
62463,note_on,15,0,10,,,,,,,,,14,,,,46,0
62464,control_change,3,0,9,,,,,,,,,13,11,97,,,
62465,control_change,18,0,3,,,,,,,,,3,11,97,,,
62466,note_on,7,0,8,,,,,,,,,12,,,,61,98
62466,control_change,3,0,10,,,,,,,,,14,11,97,,,
62471,control_change,18,0,6,,,,,,,,,10,11,95,,,
62471,note_on,7,0,9,,,,,,,,,13,,,,58,89
62473,note_on,7,0,10,,,,,,,,,14,,,,46,73
62474,control_change,18,0,1,,,,,,,,,0,11,95,,,
62474,control_change,18,0,7,,,,,,,,,11,11,95,,,
62475,control_change,18,0,4,,,,,,,,,4,11,95,,,
62476,control_change,18,0,2,,,,,,,,,1,11,95,,,
62477,control_change,18,0,5,,,,,,,,,5,11,95,,,
62477,control_change,11,0,8,,,,,,,,,12,11,95,,,
62482,control_change,11,0,9,,,,,,,,,13,11,95,,,
62483,control_change,18,0,3,,,,,,,,,3,11,95,,,
62484,control_change,11,0,10,,,,,,,,,14,11,95,,,
62486,note_on,9,0,8,,,,,,,,,12,,,,61,0
62489,control_change,18,0,6,,,,,,,,,10,11,93,,,
62491,note_on,9,0,9,,,,,,,,,13,,,,58,0
62492,control_change,18,0,7,,,,,,,,,11,11,93,,,
62492,control_change,18,0,1,,,,,,,,,0,11,93,,,
62493,note_on,9,0,10,,,,,,,,,14,,,,46,0
62493,control_change,18,0,4,,,,,,,,,4,11,93,,,
62494,control_change,18,0,2,,,,,,,,,1,11,93,,,
62495,control_change,18,0,5,,,,,,,,,5,11,93,,,
62495,control_change,9,0,8,,,,,,,,,12,11,93,,,
62496,note_on,1,0,8,,,,,,,,,12,,,,61,90
62500,control_change,9,0,9,,,,,,,,,13,11,93,,,
62501,note_on,1,0,9,,,,,,,,,13,,,,58,81
62501,control_change,18,0,3,,,,,,,,,3,11,93,,,
62502,control_change,9,0,10,,,,,,,,,14,11,93,,,
62503,note_on,1,0,10,,,,,,,,,14,,,,46,65
62507,control_change,18,0,6,,,,,,,,,10,11,91,,,
62510,control_change,18,0,7,,,,,,,,,11,11,91,,,
62510,control_change,18,0,1,,,,,,,,,0,11,91,,,
62511,control_change,18,0,4,,,,,,,,,4,11,91,,,
62512,control_change,18,0,2,,,,,,,,,1,11,91,,,
62513,control_change,18,0,5,,,,,,,,,5,11,91,,,
62513,control_change,17,0,8,,,,,,,,,12,11,91,,,
62516,note_on,3,0,8,,,,,,,,,12,,,,61,0
62518,control_change,17,0,9,,,,,,,,,13,11,91,,,
62519,control_change,18,0,3,,,,,,,,,3,11,91,,,
62520,set_tempo,120,1,0,,,,,,382166,,,,,,,,
62520,control_change,17,0,10,,,,,,,,,14,11,91,,,
62521,note_on,3,0,9,,,,,,,,,13,,,,58,0
62523,note_on,3,0,10,,,,,,,,,14,,,,46,0
62526,note_on,10,0,8,,,,,,,,,12,,,,61,98
62531,note_on,10,0,9,,,,,,,,,13,,,,58,89
62533,note_on,10,0,10,,,,,,,,,14,,,,46,73
62546,note_on,20,0,8,,,,,,,,,12,,,,61,0
62551,note_on,20,0,9,,,,,,,,,13,,,,58,0
62553,note_on,20,0,10,,,,,,,,,14,,,,46,0
62556,note_on,10,0,8,,,,,,,,,12,,,,61,90
62561,note_on,10,0,9,,,,,,,,,13,,,,58,81
62563,note_on,10,0,10,,,,,,,,,14,,,,46,65
62576,note_on,20,0,8,,,,,,,,,12,,,,61,0
62581,note_on,20,0,9,,,,,,,,,13,,,,58,0
62583,note_on,20,0,10,,,,,,,,,14,,,,46,0
62586,note_on,10,0,8,,,,,,,,,12,,,,61,98
62591,note_on,10,0,9,,,,,,,,,13,,,,58,89
62593,note_on,10,0,10,,,,,,,,,14,,,,46,73
62606,note_on,20,0,8,,,,,,,,,12,,,,61,0
62611,note_on,20,0,9,,,,,,,,,13,,,,58,0
62613,note_on,20,0,10,,,,,,,,,14,,,,46,0
62616,note_on,10,0,8,,,,,,,,,12,,,,61,90
62621,note_on,10,0,9,,,,,,,,,13,,,,58,81
62623,note_on,10,0,10,,,,,,,,,14,,,,46,65
62630,note_on,123,0,6,,,,,,,,,10,,,,73,0
62633,note_on,123,0,7,,,,,,,,,11,,,,61,0
62633,note_on,123,0,1,,,,,,,,,0,,,,85,0
62634,note_on,123,0,4,,,,,,,,,4,,,,58,0
62635,note_on,123,0,2,,,,,,,,,1,,,,73,0
62636,note_on,123,0,5,,,,,,,,,5,,,,46,0
62636,note_on,20,0,8,,,,,,,,,12,,,,61,0
62640,note_on,0,0,6,,,,,,,,,10,,,,78,100
62640,control_change,10,0,6,,,,,,,,,10,11,103,,,
62640,set_tempo,120,1,0,,,,,,355030,,,,,,,,
62641,note_on,20,0,9,,,,,,,,,13,,,,58,0
62642,note_on,123,0,3,,,,,,,,,3,,,,61,0
62642,note_on,0,0,3,,,,,,,,,3,,,,58,0
62643,note_on,20,0,10,,,,,,,,,14,,,,46,0
62643,control_change,10,0,1,,,,,,,,,0,11,103,,,
62643,note_on,0,0,1,,,,,,,,,0,,,,90,82
62643,control_change,10,0,7,,,,,,,,,11,11,103,,,
62643,note_on,0,0,7,,,,,,,,,11,,,,66,100
62644,note_on,0,0,4,,,,,,,,,4,,,,58,86
62644,control_change,10,0,4,,,,,,,,,4,11,103,,,
62645,note_on,0,0,2,,,,,,,,,1,,,,78,81
62645,control_change,10,0,2,,,,,,,,,1,11,103,,,
62646,control_change,10,0,5,,,,,,,,,5,11,103,,,
62646,note_on,0,0,8,,,,,,,,,12,,,,61,98
62646,control_change,10,0,8,,,,,,,,,12,11,103,,,
62646,note_on,0,0,5,,,,,,,,,5,,,,46,86
62651,control_change,10,0,9,,,,,,,,,13,11,103,,,
62651,note_on,0,0,9,,,,,,,,,13,,,,58,89
62652,note_on,0,0,3,,,,,,,,,3,,,,61,81
62652,control_change,10,0,3,,,,,,,,,3,11,103,,,
62652,note_on,0,0,3,,,,,,,,,3,,,,58,81
62653,control_change,10,0,10,,,,,,,,,14,11,103,,,
62653,note_on,0,0,10,,,,,,,,,14,,,,46,73
62657,control_change,17,0,6,,,,,,,,,10,11,101,,,
62660,control_change,17,0,1,,,,,,,,,0,11,101,,,
62660,control_change,17,0,7,,,,,,,,,11,11,101,,,
62661,control_change,17,0,4,,,,,,,,,4,11,101,,,
62662,control_change,17,0,2,,,,,,,,,1,11,101,,,
62663,control_change,17,0,5,,,,,,,,,5,11,101,,,
62663,control_change,17,0,8,,,,,,,,,12,11,101,,,
62666,note_on,3,0,8,,,,,,,,,12,,,,61,0
62668,control_change,17,0,9,,,,,,,,,13,11,101,,,
62669,control_change,17,0,3,,,,,,,,,3,11,101,,,
62670,control_change,17,0,10,,,,,,,,,14,11,101,,,
62671,note_on,3,0,9,,,,,,,,,13,,,,58,0
62673,note_on,3,0,10,,,,,,,,,14,,,,46,0
62675,control_change,18,0,6,,,,,,,,,10,11,99,,,
62676,note_on,10,0,8,,,,,,,,,12,,,,61,90
62678,control_change,18,0,7,,,,,,,,,11,11,99,,,
62678,control_change,18,0,1,,,,,,,,,0,11,99,,,
62679,control_change,18,0,4,,,,,,,,,4,11,99,,,
62680,control_change,18,0,2,,,,,,,,,1,11,99,,,
62681,control_change,5,0,8,,,,,,,,,12,11,99,,,
62681,note_on,10,0,9,,,,,,,,,13,,,,58,81
62681,control_change,18,0,5,,,,,,,,,5,11,99,,,
62683,note_on,10,0,10,,,,,,,,,14,,,,46,65
62686,control_change,5,0,9,,,,,,,,,13,11,99,,,
62687,control_change,18,0,3,,,,,,,,,3,11,99,,,
62688,control_change,5,0,10,,,,,,,,,14,11,99,,,
62693,control_change,18,0,6,,,,,,,,,10,11,97,,,
62696,note_on,15,0,8,,,,,,,,,12,,,,61,0
62696,control_change,18,0,1,,,,,,,,,0,11,97,,,
62696,control_change,18,0,7,,,,,,,,,11,11,97,,,
62697,control_change,18,0,4,,,,,,,,,4,11,97,,,
62698,control_change,18,0,2,,,,,,,,,1,11,97,,,
62699,control_change,18,0,5,,,,,,,,,5,11,97,,,
62699,control_change,3,0,8,,,,,,,,,12,11,97,,,
62701,note_on,15,0,9,,,,,,,,,13,,,,58,0
62703,note_on,15,0,10,,,,,,,,,14,,,,46,0
62704,control_change,3,0,9,,,,,,,,,13,11,97,,,
62705,control_change,18,0,3,,,,,,,,,3,11,97,,,
62706,note_on,7,0,8,,,,,,,,,12,,,,61,98
62706,control_change,3,0,10,,,,,,,,,14,11,97,,,
62711,note_on,7,0,9,,,,,,,,,13,,,,58,89
62711,control_change,18,0,6,,,,,,,,,10,11,95,,,
62713,note_on,7,0,10,,,,,,,,,14,,,,46,73
62714,control_change,18,0,1,,,,,,,,,0,11,95,,,
62714,control_change,18,0,7,,,,,,,,,11,11,95,,,
62715,control_change,18,0,4,,,,,,,,,4,11,95,,,
62716,control_change,18,0,2,,,,,,,,,1,11,95,,,
62717,control_change,11,0,8,,,,,,,,,12,11,95,,,
62717,control_change,18,0,5,,,,,,,,,5,11,95,,,
62722,control_change,11,0,9,,,,,,,,,13,11,95,,,
62723,control_change,18,0,3,,,,,,,,,3,11,95,,,
62724,control_change,11,0,10,,,,,,,,,14,11,95,,,
62726,note_on,9,0,8,,,,,,,,,12,,,,61,0
62729,control_change,18,0,6,,,,,,,,,10,11,93,,,
62731,note_on,9,0,9,,,,,,,,,13,,,,58,0
62732,control_change,18,0,1,,,,,,,,,0,11,93,,,
62732,control_change,18,0,7,,,,,,,,,11,11,93,,,
62733,control_change,18,0,4,,,,,,,,,4,11,93,,,
62733,note_on,9,0,10,,,,,,,,,14,,,,46,0
62734,control_change,18,0,2,,,,,,,,,1,11,93,,,
62735,control_change,18,0,5,,,,,,,,,5,11,93,,,
62735,control_change,9,0,8,,,,,,,,,12,11,93,,,
62736,note_on,1,0,8,,,,,,,,,12,,,,61,90
62740,control_change,9,0,9,,,,,,,,,13,11,93,,,
62741,control_change,18,0,3,,,,,,,,,3,11,93,,,
62741,note_on,1,0,9,,,,,,,,,13,,,,58,81
62742,control_change,9,0,10,,,,,,,,,14,11,93,,,
62743,note_on,1,0,10,,,,,,,,,14,,,,46,65
62747,control_change,18,0,6,,,,,,,,,10,11,91,,,
62750,control_change,18,0,7,,,,,,,,,11,11,91,,,
62750,control_change,18,0,1,,,,,,,,,0,11,91,,,
62751,control_change,18,0,4,,,,,,,,,4,11,91,,,
62752,control_change,18,0,2,,,,,,,,,1,11,91,,,
62753,control_change,17,0,8,,,,,,,,,12,11,91,,,
62753,control_change,18,0,5,,,,,,,,,5,11,91,,,
62756,note_on,3,0,8,,,,,,,,,12,,,,61,0
62758,control_change,17,0,9,,,,,,,,,13,11,91,,,
62759,control_change,18,0,3,,,,,,,,,3,11,91,,,
62760,control_change,17,0,10,,,,,,,,,14,11,91,,,
62760,set_tempo,120,1,0,,,,,,382166,,,,,,,,
62761,note_on,3,0,9,,,,,,,,,13,,,,58,0
62763,note_on,3,0,10,,,,,,,,,14,,,,46,0
62766,note_on,10,0,8,,,,,,,,,12,,,,61,98
62771,note_on,10,0,9,,,,,,,,,13,,,,58,89
62773,note_on,10,0,10,,,,,,,,,14,,,,46,73
62786,note_on,20,0,8,,,,,,,,,12,,,,61,0
62791,note_on,20,0,9,,,,,,,,,13,,,,58,0
62793,note_on,20,0,10,,,,,,,,,14,,,,46,0
62796,note_on,10,0,8,,,,,,,,,12,,,,61,90
62801,note_on,10,0,9,,,,,,,,,13,,,,58,81
62803,note_on,10,0,10,,,,,,,,,14,,,,46,65
62816,note_on,20,0,8,,,,,,,,,12,,,,61,0
62821,note_on,20,0,9,,,,,,,,,13,,,,58,0
62823,note_on,20,0,10,,,,,,,,,14,,,,46,0
62826,note_on,10,0,8,,,,,,,,,12,,,,61,98
62831,note_on,10,0,9,,,,,,,,,13,,,,58,89
62833,note_on,10,0,10,,,,,,,,,14,,,,46,73
62846,note_on,20,0,8,,,,,,,,,12,,,,61,0
62851,note_on,20,0,9,,,,,,,,,13,,,,58,0
62853,note_on,20,0,10,,,,,,,,,14,,,,46,0
62856,note_on,10,0,8,,,,,,,,,12,,,,61,90
62861,note_on,10,0,9,,,,,,,,,13,,,,58,81
62863,note_on,10,0,10,,,,,,,,,14,,,,46,65
62870,note_on,123,0,6,,,,,,,,,10,,,,78,0
62873,note_on,123,0,1,,,,,,,,,0,,,,90,0
62873,note_on,123,0,7,,,,,,,,,11,,,,66,0
62874,note_on,123,0,4,,,,,,,,,4,,,,58,0
62875,note_on,123,0,2,,,,,,,,,1,,,,78,0
62876,note_on,20,0,8,,,,,,,,,12,,,,61,0
62876,note_on,123,0,5,,,,,,,,,5,,,,46,0
62880,set_tempo,120,1,0,,,,,,355030,,,,,,,,
62880,note_on,10,0,6,,,,,,,,,10,,,,82,100
62881,note_on,20,0,9,,,,,,,,,13,,,,58,0
62882,note_on,123,0,3,,,,,,,,,3,,,,61,0
62882,note_on,0,0,3,,,,,,,,,3,,,,58,0
62883,note_on,10,0,7,,,,,,,,,11,,,,70,100
62883,note_on,20,0,10,,,,,,,,,14,,,,46,0
62883,note_on,10,0,1,,,,,,,,,0,,,,82,82
62884,note_on,10,0,4,,,,,,,,,4,,,,58,86
62885,note_on,0,0,2,,,,,,,,,1,,,,82,81
62885,note_on,10,0,2,,,,,,,,,1,,,,70,81
62886,note_on,10,0,5,,,,,,,,,5,,,,46,86
62886,note_on,10,0,8,,,,,,,,,12,,,,61,98
62891,note_on,10,0,9,,,,,,,,,13,,,,58,89
62892,note_on,10,0,3,,,,,,,,,3,,,,61,81
62892,note_on,0,0,3,,,,,,,,,3,,,,58,81
62893,note_on,10,0,10,,,,,,,,,14,,,,46,73
62906,note_on,20,0,8,,,,,,,,,12,,,,61,0
62911,note_on,20,0,9,,,,,,,,,13,,,,58,0
62913,note_on,20,0,10,,,,,,,,,14,,,,46,0
62916,note_on,10,0,8,,,,,,,,,12,,,,61,90
62921,note_on,10,0,9,,,,,,,,,13,,,,58,81
62923,note_on,10,0,10,,,,,,,,,14,,,,46,65
62936,note_on,20,0,8,,,,,,,,,12,,,,61,0
62941,note_on,20,0,9,,,,,,,,,13,,,,58,0
62943,note_on,20,0,10,,,,,,,,,14,,,,46,0
62946,note_on,10,0,8,,,,,,,,,12,,,,61,98
62951,note_on,10,0,9,,,,,,,,,13,,,,58,89
62953,note_on,10,0,10,,,,,,,,,14,,,,46,73
62966,note_on,20,0,8,,,,,,,,,12,,,,61,0
62971,note_on,20,0,9,,,,,,,,,13,,,,58,0
62973,note_on,20,0,10,,,,,,,,,14,,,,46,0
62976,note_on,10,0,8,,,,,,,,,12,,,,61,90
62980,note_on,100,0,6,,,,,,,,,10,,,,82,0
62981,note_on,10,0,9,,,,,,,,,13,,,,58,81
62983,note_on,100,0,1,,,,,,,,,0,,,,82,0
62983,note_on,10,0,10,,,,,,,,,14,,,,46,65
62983,note_on,100,0,7,,,,,,,,,11,,,,70,0
62985,note_on,100,0,2,,,,,,,,,1,,,,82,0
62985,note_on,0,0,2,,,,,,,,,1,,,,70,0
62996,note_on,20,0,8,,,,,,,,,12,,,,61,0
63000,note_on,20,0,6,,,,,,,,,10,,,,85,100
63000,set_tempo,120,1,0,,,,,,382166,,,,,,,,
63001,note_on,20,0,9,,,,,,,,,13,,,,58,0
63003,note_on,20,0,7,,,,,,,,,11,,,,73,100
63003,note_on,20,0,1,,,,,,,,,0,,,,85,82
63003,note_on,20,0,10,,,,,,,,,14,,,,46,0
63005,note_on,0,0,2,,,,,,,,,1,,,,73,81
63005,note_on,20,0,2,,,,,,,,,1,,,,85,81
63006,note_on,10,0,8,,,,,,,,,12,,,,61,98
63011,note_on,10,0,9,,,,,,,,,13,,,,58,89
63013,note_on,10,0,10,,,,,,,,,14,,,,46,73
63026,note_on,20,0,8,,,,,,,,,12,,,,61,0
63031,note_on,20,0,9,,,,,,,,,13,,,,58,0
63033,note_on,20,0,10,,,,,,,,,14,,,,46,0
63036,note_on,10,0,8,,,,,,,,,12,,,,61,90
63041,note_on,10,0,9,,,,,,,,,13,,,,58,81
63043,note_on,10,0,10,,,,,,,,,14,,,,46,65
63056,note_on,20,0,8,,,,,,,,,12,,,,61,0
63061,note_on,20,0,9,,,,,,,,,13,,,,58,0
63063,note_on,20,0,10,,,,,,,,,14,,,,46,0
63066,note_on,10,0,8,,,,,,,,,12,,,,61,98
63071,note_on,10,0,9,,,,,,,,,13,,,,58,89
63073,note_on,10,0,10,,,,,,,,,14,,,,46,73
63086,note_on,20,0,8,,,,,,,,,12,,,,61,0
63091,note_on,20,0,9,,,,,,,,,13,,,,58,0
63093,note_on,20,0,10,,,,,,,,,14,,,,46,0
63096,note_on,10,0,8,,,,,,,,,12,,,,61,90
63100,note_on,100,0,6,,,,,,,,,10,,,,85,0
63101,note_on,10,0,9,,,,,,,,,13,,,,58,81
63103,note_on,100,0,1,,,,,,,,,0,,,,85,0
63103,note_on,10,0,10,,,,,,,,,14,,,,46,65
63103,note_on,100,0,7,,,,,,,,,11,,,,73,0
63105,note_on,100,0,2,,,,,,,,,1,,,,73,0
63105,note_on,0,0,2,,,,,,,,,1,,,,85,0
63114,note_on,230,0,4,,,,,,,,,4,,,,58,0
63116,note_on,20,0,8,,,,,,,,,12,,,,61,0
63116,note_on,230,0,5,,,,,,,,,5,,,,46,0
63120,control_change,20,0,6,,,,,,,,,10,11,103,,,
63120,set_tempo,120,1,0,,,,,,355030,,,,,,,,
63120,note_on,0,0,6,,,,,,,,,10,,,,76,100
63121,note_on,20,0,9,,,,,,,,,13,,,,58,0
63122,note_on,230,0,3,,,,,,,,,3,,,,58,0
63122,note_on,0,0,3,,,,,,,,,3,,,,61,0
63123,note_on,0,0,1,,,,,,,,,0,,,,88,82
63123,control_change,20,0,1,,,,,,,,,0,11,103,,,
63123,note_on,20,0,10,,,,,,,,,14,,,,46,0
63123,control_change,20,0,7,,,,,,,,,11,11,103,,,
63123,note_on,0,0,7,,,,,,,,,11,,,,64,100
63124,control_change,10,0,4,,,,,,,,,4,11,103,,,
63124,note_on,0,0,4,,,,,,,,,4,,,,60,86
63125,note_on,0,0,2,,,,,,,,,1,,,,76,81
63125,note_on,0,0,2,,,,,,,,,1,,,,67,81
63125,control_change,20,0,2,,,,,,,,,1,11,103,,,
63126,note_on,0,0,8,,,,,,,,,12,,,,60,98
63126,control_change,10,0,8,,,,,,,,,12,11,103,,,
63126,control_change,10,0,5,,,,,,,,,5,11,103,,,
63126,note_on,0,0,5,,,,,,,,,5,,,,58,86
63131,control_change,10,0,9,,,,,,,,,13,11,103,,,
63131,note_on,0,0,9,,,,,,,,,13,,,,58,89
63132,note_on,0,0,3,,,,,,,,,3,,,,60,81
63132,control_change,10,0,3,,,,,,,,,3,11,103,,,
63132,note_on,0,0,3,,,,,,,,,3,,,,58,81
63133,note_on,0,0,10,,,,,,,,,14,,,,46,73
63133,control_change,10,0,10,,,,,,,,,14,11,103,,,
63137,control_change,17,0,6,,,,,,,,,10,11,101,,,
63140,control_change,17,0,1,,,,,,,,,0,11,101,,,
63140,control_change,17,0,7,,,,,,,,,11,11,101,,,
63141,control_change,17,0,4,,,,,,,,,4,11,101,,,
63142,control_change,17,0,2,,,,,,,,,1,11,101,,,
63142,note_on,5,0,6,,,,,,,,,10,,,,76,0
63143,control_change,17,0,5,,,,,,,,,5,11,101,,,
63143,control_change,17,0,8,,,,,,,,,12,11,101,,,
63145,note_on,5,0,7,,,,,,,,,11,,,,64,0
63146,note_on,3,0,8,,,,,,,,,12,,,,60,0
63148,control_change,17,0,9,,,,,,,,,13,11,101,,,
63149,control_change,17,0,3,,,,,,,,,3,11,101,,,
63150,note_on,8,0,6,,,,,,,,,10,,,,77,100
63150,control_change,17,0,10,,,,,,,,,14,11,101,,,
63151,note_on,3,0,9,,,,,,,,,13,,,,58,0
63153,note_on,8,0,7,,,,,,,,,11,,,,65,100
63153,note_on,3,0,10,,,,,,,,,14,,,,46,0
63155,control_change,5,0,6,,,,,,,,,10,11,99,,,
63156,note_on,10,0,8,,,,,,,,,12,,,,60,90
63158,control_change,5,0,7,,,,,,,,,11,11,99,,,
63158,control_change,18,0,1,,,,,,,,,0,11,99,,,
63159,control_change,18,0,4,,,,,,,,,4,11,99,,,
63160,control_change,18,0,2,,,,,,,,,1,11,99,,,
63161,control_change,5,0,8,,,,,,,,,12,11,99,,,
63161,control_change,18,0,5,,,,,,,,,5,11,99,,,
63161,note_on,10,0,9,,,,,,,,,13,,,,58,81
63163,note_on,10,0,10,,,,,,,,,14,,,,46,65
63166,control_change,5,0,9,,,,,,,,,13,11,99,,,
63167,control_change,18,0,3,,,,,,,,,3,11,99,,,
63168,control_change,5,0,10,,,,,,,,,14,11,99,,,
63172,note_on,17,0,6,,,,,,,,,10,,,,77,0
63173,control_change,1,0,6,,,,,,,,,10,11,97,,,
63175,note_on,17,0,7,,,,,,,,,11,,,,65,0
63176,note_on,15,0,8,,,,,,,,,12,,,,60,0
63176,control_change,1,0,7,,,,,,,,,11,11,97,,,
63176,control_change,18,0,1,,,,,,,,,0,11,97,,,
63177,control_change,18,0,4,,,,,,,,,4,11,97,,,
63178,control_change,18,0,2,,,,,,,,,1,11,97,,,
63179,control_change,3,0,8,,,,,,,,,12,11,97,,,
63179,control_change,18,0,5,,,,,,,,,5,11,97,,,
63180,note_on,7,0,6,,,,,,,,,10,,,,79,100
63181,note_on,15,0,9,,,,,,,,,13,,,,58,0
63183,note_on,15,0,10,,,,,,,,,14,,,,46,0
63183,note_on,7,0,7,,,,,,,,,11,,,,67,100
63184,control_change,3,0,9,,,,,,,,,13,11,97,,,
63185,control_change,18,0,3,,,,,,,,,3,11,97,,,
63186,control_change,3,0,10,,,,,,,,,14,11,97,,,
63186,note_on,7,0,8,,,,,,,,,12,,,,60,98
63191,control_change,11,0,6,,,,,,,,,10,11,95,,,
63191,note_on,7,0,9,,,,,,,,,13,,,,58,89
63193,note_on,7,0,10,,,,,,,,,14,,,,46,73
63194,control_change,18,0,1,,,,,,,,,0,11,95,,,
63194,control_change,11,0,7,,,,,,,,,11,11,95,,,
63195,control_change,18,0,4,,,,,,,,,4,11,95,,,
63196,control_change,18,0,2,,,,,,,,,1,11,95,,,
63197,control_change,11,0,8,,,,,,,,,12,11,95,,,
63197,control_change,18,0,5,,,,,,,,,5,11,95,,,
63202,note_on,11,0,6,,,,,,,,,10,,,,79,0
63202,control_change,11,0,9,,,,,,,,,13,11,95,,,
63203,control_change,18,0,3,,,,,,,,,3,11,95,,,
63204,control_change,11,0,10,,,,,,,,,14,11,95,,,
63205,note_on,11,0,7,,,,,,,,,11,,,,67,0
63206,note_on,9,0,8,,,,,,,,,12,,,,60,0
63209,control_change,7,0,6,,,,,,,,,10,11,93,,,
63210,note_on,1,0,6,,,,,,,,,10,,,,81,100
63211,note_on,9,0,9,,,,,,,,,13,,,,58,0
63212,control_change,7,0,7,,,,,,,,,11,11,93,,,
63212,control_change,18,0,1,,,,,,,,,0,11,93,,,
63213,note_on,9,0,10,,,,,,,,,14,,,,46,0
63213,control_change,18,0,4,,,,,,,,,4,11,93,,,
63213,note_on,1,0,7,,,,,,,,,11,,,,69,100
63214,control_change,18,0,2,,,,,,,,,1,11,93,,,
63215,control_change,18,0,5,,,,,,,,,5,11,93,,,
63215,control_change,9,0,8,,,,,,,,,12,11,93,,,
63216,note_on,1,0,8,,,,,,,,,12,,,,60,90
63220,control_change,9,0,9,,,,,,,,,13,11,93,,,
63221,note_on,1,0,9,,,,,,,,,13,,,,58,81
63221,control_change,18,0,3,,,,,,,,,3,11,93,,,
63222,control_change,9,0,10,,,,,,,,,14,11,93,,,
63223,note_on,1,0,10,,,,,,,,,14,,,,46,65
63227,control_change,17,0,6,,,,,,,,,10,11,91,,,
63230,control_change,17,0,7,,,,,,,,,11,11,91,,,
63230,control_change,18,0,1,,,,,,,,,0,11,91,,,
63231,control_change,18,0,4,,,,,,,,,4,11,91,,,
63232,note_on,5,0,6,,,,,,,,,10,,,,81,0
63232,control_change,18,0,2,,,,,,,,,1,11,91,,,
63233,control_change,17,0,8,,,,,,,,,12,11,91,,,
63233,control_change,18,0,5,,,,,,,,,5,11,91,,,
63235,note_on,5,0,7,,,,,,,,,11,,,,69,0
63236,note_on,3,0,8,,,,,,,,,12,,,,60,0
63238,control_change,17,0,9,,,,,,,,,13,11,91,,,
63239,control_change,18,0,3,,,,,,,,,3,11,91,,,
63240,note_on,8,0,6,,,,,,,,,10,,,,82,100
63240,set_tempo,120,1,0,,,,,,382166,,,,,,,,
63240,control_change,17,0,10,,,,,,,,,14,11,91,,,
63241,note_on,3,0,9,,,,,,,,,13,,,,58,0
63243,note_on,8,0,7,,,,,,,,,11,,,,70,100
63243,note_on,3,0,10,,,,,,,,,14,,,,46,0
63246,note_on,10,0,8,,,,,,,,,12,,,,60,98
63251,note_on,10,0,9,,,,,,,,,13,,,,58,89
63253,note_on,10,0,10,,,,,,,,,14,,,,46,73
63262,note_on,22,0,6,,,,,,,,,10,,,,82,0
63265,note_on,22,0,7,,,,,,,,,11,,,,70,0
63266,note_on,20,0,8,,,,,,,,,12,,,,60,0
63270,note_on,8,0,6,,,,,,,,,10,,,,84,100
63271,note_on,20,0,9,,,,,,,,,13,,,,58,0
63273,note_on,20,0,10,,,,,,,,,14,,,,46,0
63273,note_on,8,0,7,,,,,,,,,11,,,,72,100
63276,note_on,10,0,8,,,,,,,,,12,,,,60,90
63281,note_on,10,0,9,,,,,,,,,13,,,,58,81
63283,note_on,10,0,10,,,,,,,,,14,,,,46,65
63292,note_on,22,0,6,,,,,,,,,10,,,,84,0
63295,note_on,22,0,7,,,,,,,,,11,,,,72,0
63296,note_on,20,0,8,,,,,,,,,12,,,,60,0
63300,note_on,8,0,6,,,,,,,,,10,,,,86,100
63301,note_on,20,0,9,,,,,,,,,13,,,,58,0
63303,note_on,8,0,7,,,,,,,,,11,,,,74,100
63303,note_on,20,0,10,,,,,,,,,14,,,,46,0
63306,note_on,10,0,8,,,,,,,,,12,,,,60,98
63311,note_on,10,0,9,,,,,,,,,13,,,,58,89
63313,note_on,10,0,10,,,,,,,,,14,,,,46,73
63322,note_on,22,0,6,,,,,,,,,10,,,,86,0
63325,note_on,22,0,7,,,,,,,,,11,,,,74,0
63326,note_on,20,0,8,,,,,,,,,12,,,,60,0
63330,note_on,8,0,6,,,,,,,,,10,,,,88,100
63331,note_on,20,0,9,,,,,,,,,13,,,,58,0
63333,note_on,20,0,10,,,,,,,,,14,,,,46,0
63333,note_on,8,0,7,,,,,,,,,11,,,,76,100
63336,note_on,10,0,8,,,,,,,,,12,,,,60,90
63341,note_on,10,0,9,,,,,,,,,13,,,,58,81
63343,note_on,10,0,10,,,,,,,,,14,,,,46,65
63352,note_on,22,0,6,,,,,,,,,10,,,,88,0
63353,note_on,123,0,1,,,,,,,,,0,,,,88,0
63354,note_on,123,0,4,,,,,,,,,4,,,,60,0
63355,note_on,0,0,2,,,,,,,,,1,,,,67,0
63355,note_on,123,0,2,,,,,,,,,1,,,,76,0
63355,note_on,22,0,7,,,,,,,,,11,,,,76,0
63356,note_on,20,0,8,,,,,,,,,12,,,,60,0
63356,note_on,123,0,5,,,,,,,,,5,,,,58,0
63360,set_tempo,120,1,0,,,,,,355030,,,,,,,,
63360,note_on,0,0,6,,,,,,,,,10,,,,89,100
63360,control_change,8,0,6,,,,,,,,,10,11,103,,,
63361,note_on,20,0,9,,,,,,,,,13,,,,58,0
63362,note_on,0,0,3,,,,,,,,,3,,,,58,0
63362,note_on,123,0,3,,,,,,,,,3,,,,60,0
63363,note_on,20,0,10,,,,,,,,,14,,,,46,0
63363,control_change,8,0,7,,,,,,,,,11,11,103,,,
63363,control_change,10,0,1,,,,,,,,,0,11,103,,,
63363,note_on,0,0,1,,,,,,,,,0,,,,89,82
63363,note_on,0,0,7,,,,,,,,,11,,,,77,100
63364,note_on,0,0,4,,,,,,,,,4,,,,60,86
63364,control_change,10,0,4,,,,,,,,,4,11,103,,,
63365,control_change,10,0,2,,,,,,,,,1,11,103,,,
63365,note_on,0,0,2,,,,,,,,,1,,,,77,81
63365,note_on,0,0,2,,,,,,,,,1,,,,72,81
63366,control_change,10,0,5,,,,,,,,,5,11,103,,,
63366,note_on,0,0,8,,,,,,,,,12,,,,60,98
63366,control_change,10,0,8,,,,,,,,,12,11,103,,,
63366,note_on,0,0,5,,,,,,,,,5,,,,53,86
63371,note_on,0,0,9,,,,,,,,,13,,,,56,89
63371,control_change,10,0,9,,,,,,,,,13,11,103,,,
63372,note_on,0,0,3,,,,,,,,,3,,,,60,81
63372,note_on,0,0,3,,,,,,,,,3,,,,56,81
63372,control_change,10,0,3,,,,,,,,,3,11,103,,,
63373,note_on,0,0,10,,,,,,,,,14,,,,44,73
63373,control_change,10,0,10,,,,,,,,,14,11,103,,,
63377,control_change,17,0,6,,,,,,,,,10,11,101,,,
63380,control_change,17,0,7,,,,,,,,,11,11,101,,,
63380,control_change,17,0,1,,,,,,,,,0,11,101,,,
63381,control_change,17,0,4,,,,,,,,,4,11,101,,,
63382,control_change,17,0,2,,,,,,,,,1,11,101,,,
63383,control_change,17,0,8,,,,,,,,,12,11,101,,,
63383,control_change,17,0,5,,,,,,,,,5,11,101,,,
63386,note_on,3,0,8,,,,,,,,,12,,,,60,0
63388,control_change,17,0,9,,,,,,,,,13,11,101,,,
63389,control_change,17,0,3,,,,,,,,,3,11,101,,,
63390,control_change,17,0,10,,,,,,,,,14,11,101,,,
63391,note_on,3,0,9,,,,,,,,,13,,,,56,0
63393,note_on,3,0,10,,,,,,,,,14,,,,44,0
63395,control_change,18,0,6,,,,,,,,,10,11,99,,,
63396,note_on,10,0,8,,,,,,,,,12,,,,60,90
63398,control_change,18,0,7,,,,,,,,,11,11,99,,,
63398,control_change,18,0,1,,,,,,,,,0,11,99,,,
63399,control_change,18,0,4,,,,,,,,,4,11,99,,,
63400,control_change,18,0,2,,,,,,,,,1,11,99,,,
63401,control_change,5,0,8,,,,,,,,,12,11,99,,,
63401,note_on,10,0,9,,,,,,,,,13,,,,55,89
63401,control_change,18,0,5,,,,,,,,,5,11,99,,,
63403,note_on,10,0,10,,,,,,,,,14,,,,43,73
63406,control_change,5,0,9,,,,,,,,,13,11,99,,,
63407,control_change,18,0,3,,,,,,,,,3,11,99,,,
63408,control_change,5,0,10,,,,,,,,,14,11,99,,,
63413,control_change,18,0,6,,,,,,,,,10,11,97,,,
63416,control_change,18,0,7,,,,,,,,,11,11,97,,,
63416,note_on,15,0,8,,,,,,,,,12,,,,60,0
63416,control_change,18,0,1,,,,,,,,,0,11,97,,,
63417,control_change,18,0,4,,,,,,,,,4,11,97,,,
63418,control_change,18,0,2,,,,,,,,,1,11,97,,,
63419,control_change,3,0,8,,,,,,,,,12,11,97,,,
63419,control_change,18,0,5,,,,,,,,,5,11,97,,,
63421,note_on,15,0,9,,,,,,,,,13,,,,55,0
63423,note_on,15,0,10,,,,,,,,,14,,,,43,0
63424,control_change,3,0,9,,,,,,,,,13,11,97,,,
63425,control_change,18,0,3,,,,,,,,,3,11,97,,,
63426,control_change,3,0,10,,,,,,,,,14,11,97,,,
63426,note_on,7,0,8,,,,,,,,,12,,,,60,98
63431,note_on,7,0,9,,,,,,,,,13,,,,53,89
63431,control_change,18,0,6,,,,,,,,,10,11,95,,,
63433,note_on,7,0,10,,,,,,,,,14,,,,41,73
63434,control_change,18,0,1,,,,,,,,,0,11,95,,,
63434,control_change,18,0,7,,,,,,,,,11,11,95,,,
63435,control_change,18,0,4,,,,,,,,,4,11,95,,,
63436,control_change,18,0,2,,,,,,,,,1,11,95,,,
63437,control_change,18,0,5,,,,,,,,,5,11,95,,,
63437,control_change,11,0,8,,,,,,,,,12,11,95,,,
63442,control_change,11,0,9,,,,,,,,,13,11,95,,,
63443,control_change,18,0,3,,,,,,,,,3,11,95,,,
63444,control_change,11,0,10,,,,,,,,,14,11,95,,,
63446,note_on,9,0,8,,,,,,,,,12,,,,60,0
63449,control_change,18,0,6,,,,,,,,,10,11,93,,,
63451,note_on,9,0,9,,,,,,,,,13,,,,53,0
63452,control_change,18,0,7,,,,,,,,,11,11,93,,,
63452,control_change,18,0,1,,,,,,,,,0,11,93,,,
63453,control_change,18,0,4,,,,,,,,,4,11,93,,,
63453,note_on,9,0,10,,,,,,,,,14,,,,41,0
63454,control_change,18,0,2,,,,,,,,,1,11,93,,,
63455,control_change,18,0,5,,,,,,,,,5,11,93,,,
63455,control_change,9,0,8,,,,,,,,,12,11,93,,,
63456,note_on,1,0,8,,,,,,,,,12,,,,60,90
63460,control_change,9,0,9,,,,,,,,,13,11,93,,,
63461,note_on,1,0,9,,,,,,,,,13,,,,51,89
63461,control_change,18,0,3,,,,,,,,,3,11,93,,,
63462,control_change,9,0,10,,,,,,,,,14,11,93,,,
63463,note_on,1,0,10,,,,,,,,,14,,,,39,73
63467,control_change,18,0,6,,,,,,,,,10,11,91,,,
63470,control_change,18,0,1,,,,,,,,,0,11,91,,,
63470,control_change,18,0,7,,,,,,,,,11,11,91,,,
63471,control_change,18,0,4,,,,,,,,,4,11,91,,,
63472,control_change,18,0,2,,,,,,,,,1,11,91,,,
63473,control_change,18,0,5,,,,,,,,,5,11,91,,,
63473,control_change,17,0,8,,,,,,,,,12,11,91,,,
63476,note_on,3,0,8,,,,,,,,,12,,,,60,0
63478,control_change,17,0,9,,,,,,,,,13,11,91,,,
63479,control_change,18,0,3,,,,,,,,,3,11,91,,,
63480,control_change,17,0,10,,,,,,,,,14,11,91,,,
63480,set_tempo,120,1,0,,,,,,382166,,,,,,,,
63481,note_on,3,0,9,,,,,,,,,13,,,,51,0
63483,note_on,3,0,10,,,,,,,,,14,,,,39,0
63486,note_on,10,0,8,,,,,,,,,12,,,,60,98
63491,note_on,10,0,9,,,,,,,,,13,,,,49,89
63493,note_on,10,0,10,,,,,,,,,14,,,,37,73
63506,note_on,20,0,8,,,,,,,,,12,,,,60,0
63511,note_on,20,0,9,,,,,,,,,13,,,,49,0
63513,note_on,20,0,10,,,,,,,,,14,,,,37,0
63516,note_on,10,0,8,,,,,,,,,12,,,,60,90
63521,note_on,10,0,9,,,,,,,,,13,,,,48,89
63523,note_on,10,0,10,,,,,,,,,14,,,,36,73
63536,note_on,20,0,8,,,,,,,,,12,,,,60,0
63541,note_on,20,0,9,,,,,,,,,13,,,,48,0
63543,note_on,20,0,10,,,,,,,,,14,,,,36,0
63546,note_on,10,0,8,,,,,,,,,12,,,,60,98
63551,note_on,10,0,9,,,,,,,,,13,,,,46,89
63553,note_on,10,0,10,,,,,,,,,14,,,,34,73
63566,note_on,20,0,8,,,,,,,,,12,,,,60,0
63571,note_on,20,0,9,,,,,,,,,13,,,,46,0
63573,note_on,20,0,10,,,,,,,,,14,,,,34,0
63576,note_on,10,0,8,,,,,,,,,12,,,,60,90
63581,note_on,10,0,9,,,,,,,,,13,,,,44,89
63583,note_on,10,0,10,,,,,,,,,14,,,,32,73
63590,note_on,123,0,6,,,,,,,,,10,,,,89,0
63593,note_on,123,0,1,,,,,,,,,0,,,,89,0
63593,note_on,123,0,7,,,,,,,,,11,,,,77,0
63594,note_on,123,0,4,,,,,,,,,4,,,,60,0
63595,note_on,0,0,2,,,,,,,,,1,,,,77,0
63595,note_on,123,0,2,,,,,,,,,1,,,,72,0
63596,note_on,20,0,8,,,,,,,,,12,,,,60,0
63596,note_on,123,0,5,,,,,,,,,5,,,,53,0
63600,note_on,0,0,6,,,,,,,,,10,,,,74,100
63600,control_change,10,0,6,,,,,,,,,10,11,103,,,
63600,set_tempo,120,1,0,,,,,,355030,,,,,,,,
63601,note_on,20,0,9,,,,,,,,,13,,,,44,0
63602,note_on,0,0,3,,,,,,,,,3,,,,56,0
63602,note_on,123,0,3,,,,,,,,,3,,,,60,0
63603,control_change,10,0,1,,,,,,,,,0,11,103,,,
63603,control_change,10,0,7,,,,,,,,,11,11,103,,,
63603,note_on,0,0,1,,,,,,,,,0,,,,86,82
63603,note_on,0,0,7,,,,,,,,,11,,,,62,100
63603,note_on,20,0,10,,,,,,,,,14,,,,32,0
63604,control_change,10,0,4,,,,,,,,,4,11,103,,,
63604,note_on,0,0,4,,,,,,,,,4,,,,58,86
63605,note_on,0,0,2,,,,,,,,,1,,,,65,81
63605,note_on,0,0,2,,,,,,,,,1,,,,74,81
63605,control_change,10,0,2,,,,,,,,,1,11,103,,,
63606,note_on,0,0,8,,,,,,,,,12,,,,58,98
63606,note_on,0,0,5,,,,,,,,,5,,,,46,86
63606,control_change,10,0,5,,,,,,,,,5,11,103,,,
63606,control_change,10,0,8,,,,,,,,,12,11,103,,,
63611,control_change,10,0,9,,,,,,,,,13,11,103,,,
63611,note_on,0,0,9,,,,,,,,,13,,,,56,89
63612,control_change,10,0,3,,,,,,,,,3,11,103,,,
63612,note_on,0,0,3,,,,,,,,,3,,,,58,81
63612,note_on,0,0,3,,,,,,,,,3,,,,56,81
63613,control_change,10,0,10,,,,,,,,,14,11,103,,,
63613,note_on,0,0,10,,,,,,,,,14,,,,44,73
63617,control_change,17,0,6,,,,,,,,,10,11,101,,,
63620,control_change,17,0,7,,,,,,,,,11,11,101,,,
63620,control_change,17,0,1,,,,,,,,,0,11,101,,,
63621,control_change,17,0,4,,,,,,,,,4,11,101,,,
63622,control_change,17,0,2,,,,,,,,,1,11,101,,,
63622,note_on,5,0,6,,,,,,,,,10,,,,74,0
63623,control_change,17,0,8,,,,,,,,,12,11,101,,,
63623,control_change,17,0,5,,,,,,,,,5,11,101,,,
63625,note_on,5,0,7,,,,,,,,,11,,,,62,0
63626,note_on,3,0,8,,,,,,,,,12,,,,58,0
63628,control_change,17,0,9,,,,,,,,,13,11,101,,,
63629,control_change,17,0,3,,,,,,,,,3,11,101,,,
63630,note_on,8,0,6,,,,,,,,,10,,,,75,100
63630,control_change,17,0,10,,,,,,,,,14,11,101,,,
63631,note_on,3,0,9,,,,,,,,,13,,,,56,0
63633,note_on,8,0,7,,,,,,,,,11,,,,63,100
63633,note_on,3,0,10,,,,,,,,,14,,,,44,0
63635,control_change,5,0,6,,,,,,,,,10,11,99,,,
63636,note_on,10,0,8,,,,,,,,,12,,,,58,90
63638,control_change,5,0,7,,,,,,,,,11,11,99,,,
63638,control_change,18,0,1,,,,,,,,,0,11,99,,,
63639,control_change,18,0,4,,,,,,,,,4,11,99,,,
63640,control_change,18,0,2,,,,,,,,,1,11,99,,,
63641,note_on,10,0,9,,,,,,,,,13,,,,56,81
63641,control_change,18,0,5,,,,,,,,,5,11,99,,,
63641,control_change,5,0,8,,,,,,,,,12,11,99,,,
63643,note_on,10,0,10,,,,,,,,,14,,,,44,65
63646,control_change,5,0,9,,,,,,,,,13,11,99,,,
63647,control_change,18,0,3,,,,,,,,,3,11,99,,,
63648,control_change,5,0,10,,,,,,,,,14,11,99,,,
63652,note_on,17,0,6,,,,,,,,,10,,,,75,0
63653,control_change,1,0,6,,,,,,,,,10,11,97,,,
63655,note_on,17,0,7,,,,,,,,,11,,,,63,0
63656,note_on,15,0,8,,,,,,,,,12,,,,58,0
63656,control_change,18,0,1,,,,,,,,,0,11,97,,,
63656,control_change,1,0,7,,,,,,,,,11,11,97,,,
63657,control_change,18,0,4,,,,,,,,,4,11,97,,,
63658,control_change,18,0,2,,,,,,,,,1,11,97,,,
63659,control_change,3,0,8,,,,,,,,,12,11,97,,,
63659,control_change,18,0,5,,,,,,,,,5,11,97,,,
63660,note_on,7,0,6,,,,,,,,,10,,,,77,100
63661,note_on,15,0,9,,,,,,,,,13,,,,56,0
63663,note_on,7,0,7,,,,,,,,,11,,,,65,100
63663,note_on,15,0,10,,,,,,,,,14,,,,44,0
63664,control_change,3,0,9,,,,,,,,,13,11,97,,,
63665,control_change,18,0,3,,,,,,,,,3,11,97,,,
63666,control_change,3,0,10,,,,,,,,,14,11,97,,,
63666,note_on,7,0,8,,,,,,,,,12,,,,58,98
63671,note_on,7,0,9,,,,,,,,,13,,,,56,89
63671,control_change,11,0,6,,,,,,,,,10,11,95,,,
63673,note_on,7,0,10,,,,,,,,,14,,,,44,73
63674,control_change,18,0,1,,,,,,,,,0,11,95,,,
63674,control_change,11,0,7,,,,,,,,,11,11,95,,,
63675,control_change,18,0,4,,,,,,,,,4,11,95,,,
63676,control_change,18,0,2,,,,,,,,,1,11,95,,,
63677,control_change,11,0,8,,,,,,,,,12,11,95,,,
63677,control_change,18,0,5,,,,,,,,,5,11,95,,,
63682,note_on,11,0,6,,,,,,,,,10,,,,77,0
63682,control_change,11,0,9,,,,,,,,,13,11,95,,,
63683,control_change,18,0,3,,,,,,,,,3,11,95,,,
63684,control_change,11,0,10,,,,,,,,,14,11,95,,,
63685,note_on,11,0,7,,,,,,,,,11,,,,65,0
63686,note_on,9,0,8,,,,,,,,,12,,,,58,0
63689,control_change,7,0,6,,,,,,,,,10,11,93,,,
63690,note_on,1,0,6,,,,,,,,,10,,,,79,100
63691,note_on,9,0,9,,,,,,,,,13,,,,56,0
63692,control_change,7,0,7,,,,,,,,,11,11,93,,,
63692,control_change,18,0,1,,,,,,,,,0,11,93,,,
63693,control_change,18,0,4,,,,,,,,,4,11,93,,,
63693,note_on,9,0,10,,,,,,,,,14,,,,44,0
63693,note_on,1,0,7,,,,,,,,,11,,,,67,100
63694,control_change,18,0,2,,,,,,,,,1,11,93,,,
63695,control_change,18,0,5,,,,,,,,,5,11,93,,,
63695,control_change,9,0,8,,,,,,,,,12,11,93,,,
63696,note_on,1,0,8,,,,,,,,,12,,,,58,90
63700,control_change,9,0,9,,,,,,,,,13,11,93,,,
63701,control_change,18,0,3,,,,,,,,,3,11,93,,,
63701,note_on,1,0,9,,,,,,,,,13,,,,56,81
63702,control_change,9,0,10,,,,,,,,,14,11,93,,,
63703,note_on,1,0,10,,,,,,,,,14,,,,44,65
63707,control_change,17,0,6,,,,,,,,,10,11,91,,,
63710,control_change,17,0,7,,,,,,,,,11,11,91,,,
63710,control_change,18,0,1,,,,,,,,,0,11,91,,,
63711,control_change,18,0,4,,,,,,,,,4,11,91,,,
63712,note_on,5,0,6,,,,,,,,,10,,,,79,0
63712,control_change,18,0,2,,,,,,,,,1,11,91,,,
63713,control_change,17,0,8,,,,,,,,,12,11,91,,,
63713,control_change,18,0,5,,,,,,,,,5,11,91,,,
63715,note_on,5,0,7,,,,,,,,,11,,,,67,0
63716,note_on,3,0,8,,,,,,,,,12,,,,58,0
63718,control_change,17,0,9,,,,,,,,,13,11,91,,,
63719,control_change,18,0,3,,,,,,,,,3,11,91,,,
63720,note_on,8,0,6,,,,,,,,,10,,,,80,100
63720,set_tempo,120,1,0,,,,,,382166,,,,,,,,
63720,control_change,17,0,10,,,,,,,,,14,11,91,,,
63721,note_on,3,0,9,,,,,,,,,13,,,,56,0
63723,note_on,8,0,7,,,,,,,,,11,,,,68,100
63723,note_on,3,0,10,,,,,,,,,14,,,,44,0
63726,note_on,10,0,8,,,,,,,,,12,,,,58,98
63731,note_on,10,0,9,,,,,,,,,13,,,,56,89
63733,note_on,10,0,10,,,,,,,,,14,,,,44,73
63742,note_on,22,0,6,,,,,,,,,10,,,,80,0
63745,note_on,22,0,7,,,,,,,,,11,,,,68,0
63746,note_on,20,0,8,,,,,,,,,12,,,,58,0
63750,note_on,8,0,6,,,,,,,,,10,,,,82,100
63751,note_on,20,0,9,,,,,,,,,13,,,,56,0
63753,note_on,20,0,10,,,,,,,,,14,,,,44,0
63753,note_on,8,0,7,,,,,,,,,11,,,,70,100
63756,note_on,10,0,8,,,,,,,,,12,,,,58,90
63761,note_on,10,0,9,,,,,,,,,13,,,,56,81
63763,note_on,10,0,10,,,,,,,,,14,,,,44,65
63772,note_on,22,0,6,,,,,,,,,10,,,,82,0
63775,note_on,22,0,7,,,,,,,,,11,,,,70,0
63776,note_on,20,0,8,,,,,,,,,12,,,,58,0
63780,note_on,8,0,6,,,,,,,,,10,,,,84,100
63781,note_on,20,0,9,,,,,,,,,13,,,,56,0
63783,note_on,8,0,7,,,,,,,,,11,,,,72,100
63783,note_on,20,0,10,,,,,,,,,14,,,,44,0
63786,note_on,10,0,8,,,,,,,,,12,,,,58,98
63791,note_on,10,0,9,,,,,,,,,13,,,,56,89
63793,note_on,10,0,10,,,,,,,,,14,,,,44,73
63802,note_on,22,0,6,,,,,,,,,10,,,,84,0
63805,note_on,22,0,7,,,,,,,,,11,,,,72,0
63806,note_on,20,0,8,,,,,,,,,12,,,,58,0
63810,note_on,8,0,6,,,,,,,,,10,,,,86,100
63811,note_on,20,0,9,,,,,,,,,13,,,,56,0
63813,note_on,8,0,7,,,,,,,,,11,,,,74,100
63813,note_on,20,0,10,,,,,,,,,14,,,,44,0
63816,note_on,10,0,8,,,,,,,,,12,,,,58,90
63821,note_on,10,0,9,,,,,,,,,13,,,,56,81
63823,note_on,10,0,10,,,,,,,,,14,,,,44,65
63832,note_on,22,0,6,,,,,,,,,10,,,,86,0
63833,note_on,123,0,1,,,,,,,,,0,,,,86,0
63834,note_on,123,0,4,,,,,,,,,4,,,,58,0
63835,note_on,0,0,2,,,,,,,,,1,,,,65,0
63835,note_on,22,0,7,,,,,,,,,11,,,,74,0
63835,note_on,123,0,2,,,,,,,,,1,,,,74,0
63836,note_on,20,0,8,,,,,,,,,12,,,,58,0
63836,note_on,123,0,5,,,,,,,,,5,,,,46,0
63840,set_tempo,120,1,0,,,,,,355030,,,,,,,,
63840,note_on,0,0,6,,,,,,,,,10,,,,87,100
63840,control_change,8,0,6,,,,,,,,,10,11,103,,,
63841,note_on,20,0,9,,,,,,,,,13,,,,56,0
63842,note_on,123,0,3,,,,,,,,,3,,,,56,0
63842,note_on,0,0,3,,,,,,,,,3,,,,58,0
63843,control_change,8,0,7,,,,,,,,,11,11,103,,,
63843,control_change,10,0,1,,,,,,,,,0,11,103,,,
63843,note_on,0,0,1,,,,,,,,,0,,,,87,82
63843,note_on,20,0,10,,,,,,,,,14,,,,44,0
63843,note_on,0,0,7,,,,,,,,,11,,,,75,100
63844,note_on,0,0,4,,,,,,,,,4,,,,58,86
63844,control_change,10,0,4,,,,,,,,,4,11,103,,,
63845,note_on,0,0,2,,,,,,,,,1,,,,70,81
63845,note_on,0,0,2,,,,,,,,,1,,,,75,81
63845,control_change,10,0,2,,,,,,,,,1,11,103,,,
63846,control_change,10,0,5,,,,,,,,,5,11,103,,,
63846,note_on,0,0,8,,,,,,,,,12,,,,58,98
63846,control_change,10,0,8,,,,,,,,,12,11,103,,,
63846,note_on,0,0,5,,,,,,,,,5,,,,46,86
63851,control_change,10,0,9,,,,,,,,,13,11,103,,,
63851,note_on,0,0,9,,,,,,,,,13,,,,54,89
63852,note_on,0,0,3,,,,,,,,,3,,,,54,81
63852,control_change,10,0,3,,,,,,,,,3,11,103,,,
63852,note_on,0,0,3,,,,,,,,,3,,,,58,81
63853,control_change,10,0,10,,,,,,,,,14,11,103,,,
63853,note_on,0,0,10,,,,,,,,,14,,,,42,73
63857,control_change,17,0,6,,,,,,,,,10,11,101,,,
63860,control_change,17,0,1,,,,,,,,,0,11,101,,,
63860,control_change,17,0,7,,,,,,,,,11,11,101,,,
63861,control_change,17,0,4,,,,,,,,,4,11,101,,,
63862,control_change,17,0,2,,,,,,,,,1,11,101,,,
63863,control_change,17,0,8,,,,,,,,,12,11,101,,,
63863,control_change,17,0,5,,,,,,,,,5,11,101,,,
63866,note_on,3,0,8,,,,,,,,,12,,,,58,0
63868,control_change,17,0,9,,,,,,,,,13,11,101,,,
63869,control_change,17,0,3,,,,,,,,,3,11,101,,,
63870,control_change,17,0,10,,,,,,,,,14,11,101,,,
63871,note_on,3,0,9,,,,,,,,,13,,,,54,0
63873,note_on,3,0,10,,,,,,,,,14,,,,42,0
63875,control_change,18,0,6,,,,,,,,,10,11,99,,,
63876,note_on,10,0,8,,,,,,,,,12,,,,58,90
63878,control_change,18,0,1,,,,,,,,,0,11,99,,,
63878,control_change,18,0,7,,,,,,,,,11,11,99,,,
63879,control_change,18,0,4,,,,,,,,,4,11,99,,,
63880,control_change,18,0,2,,,,,,,,,1,11,99,,,
63881,control_change,5,0,8,,,,,,,,,12,11,99,,,
63881,note_on,10,0,9,,,,,,,,,13,,,,53,89
63881,control_change,18,0,5,,,,,,,,,5,11,99,,,
63883,note_on,10,0,10,,,,,,,,,14,,,,41,73
63886,control_change,5,0,9,,,,,,,,,13,11,99,,,
63887,control_change,18,0,3,,,,,,,,,3,11,99,,,
63888,control_change,5,0,10,,,,,,,,,14,11,99,,,
63893,control_change,18,0,6,,,,,,,,,10,11,97,,,
63896,note_on,15,0,8,,,,,,,,,12,,,,58,0
63896,control_change,18,0,7,,,,,,,,,11,11,97,,,
63896,control_change,18,0,1,,,,,,,,,0,11,97,,,
63897,control_change,18,0,4,,,,,,,,,4,11,97,,,
63898,control_change,18,0,2,,,,,,,,,1,11,97,,,
63899,control_change,18,0,5,,,,,,,,,5,11,97,,,
63899,control_change,3,0,8,,,,,,,,,12,11,97,,,
63901,note_on,15,0,9,,,,,,,,,13,,,,53,0
63903,note_on,15,0,10,,,,,,,,,14,,,,41,0
63904,control_change,3,0,9,,,,,,,,,13,11,97,,,
63905,control_change,18,0,3,,,,,,,,,3,11,97,,,
63906,control_change,3,0,10,,,,,,,,,14,11,97,,,
63906,note_on,7,0,8,,,,,,,,,12,,,,58,98
63911,control_change,18,0,6,,,,,,,,,10,11,95,,,
63911,note_on,7,0,9,,,,,,,,,13,,,,51,89
63913,note_on,7,0,10,,,,,,,,,14,,,,39,73
63914,control_change,18,0,7,,,,,,,,,11,11,95,,,
63914,control_change,18,0,1,,,,,,,,,0,11,95,,,
63915,control_change,18,0,4,,,,,,,,,4,11,95,,,
63916,control_change,18,0,2,,,,,,,,,1,11,95,,,
63917,control_change,11,0,8,,,,,,,,,12,11,95,,,
63917,control_change,18,0,5,,,,,,,,,5,11,95,,,
63922,control_change,11,0,9,,,,,,,,,13,11,95,,,
63923,control_change,18,0,3,,,,,,,,,3,11,95,,,
63924,control_change,11,0,10,,,,,,,,,14,11,95,,,
63926,note_on,9,0,8,,,,,,,,,12,,,,58,0
63929,control_change,18,0,6,,,,,,,,,10,11,93,,,
63931,note_on,9,0,9,,,,,,,,,13,,,,51,0
63932,control_change,18,0,7,,,,,,,,,11,11,93,,,
63932,control_change,18,0,1,,,,,,,,,0,11,93,,,
63933,note_on,9,0,10,,,,,,,,,14,,,,39,0
63933,control_change,18,0,4,,,,,,,,,4,11,93,,,
63934,control_change,18,0,2,,,,,,,,,1,11,93,,,
63935,control_change,9,0,8,,,,,,,,,12,11,93,,,
63935,control_change,18,0,5,,,,,,,,,5,11,93,,,
63936,note_on,1,0,8,,,,,,,,,12,,,,58,90
63940,control_change,9,0,9,,,,,,,,,13,11,93,,,
63941,note_on,1,0,9,,,,,,,,,13,,,,49,89
63941,control_change,18,0,3,,,,,,,,,3,11,93,,,
63942,control_change,9,0,10,,,,,,,,,14,11,93,,,
63943,note_on,1,0,10,,,,,,,,,14,,,,37,73
63947,control_change,18,0,6,,,,,,,,,10,11,91,,,
63950,control_change,18,0,1,,,,,,,,,0,11,91,,,
63950,control_change,18,0,7,,,,,,,,,11,11,91,,,
63951,control_change,18,0,4,,,,,,,,,4,11,91,,,
63952,control_change,18,0,2,,,,,,,,,1,11,91,,,
63953,control_change,18,0,5,,,,,,,,,5,11,91,,,
63953,control_change,17,0,8,,,,,,,,,12,11,91,,,
63956,note_on,3,0,8,,,,,,,,,12,,,,58,0
63958,control_change,17,0,9,,,,,,,,,13,11,91,,,
63959,control_change,18,0,3,,,,,,,,,3,11,91,,,
63960,control_change,17,0,10,,,,,,,,,14,11,91,,,
63960,set_tempo,120,1,0,,,,,,382166,,,,,,,,
63961,note_on,3,0,9,,,,,,,,,13,,,,49,0
63963,note_on,3,0,10,,,,,,,,,14,,,,37,0
63966,note_on,10,0,8,,,,,,,,,12,,,,58,98
63971,note_on,10,0,9,,,,,,,,,13,,,,47,89
63973,note_on,10,0,10,,,,,,,,,14,,,,35,73
63986,note_on,20,0,8,,,,,,,,,12,,,,58,0
63991,note_on,20,0,9,,,,,,,,,13,,,,47,0
63993,note_on,20,0,10,,,,,,,,,14,,,,35,0
63996,note_on,10,0,8,,,,,,,,,12,,,,58,90
64001,note_on,10,0,9,,,,,,,,,13,,,,46,89
64003,note_on,10,0,10,,,,,,,,,14,,,,34,73
64016,note_on,20,0,8,,,,,,,,,12,,,,58,0
64021,note_on,20,0,9,,,,,,,,,13,,,,46,0
64023,note_on,20,0,10,,,,,,,,,14,,,,34,0
64026,note_on,10,0,8,,,,,,,,,12,,,,58,98
64031,note_on,10,0,9,,,,,,,,,13,,,,44,89
64033,note_on,10,0,10,,,,,,,,,14,,,,32,73
64046,note_on,20,0,8,,,,,,,,,12,,,,58,0
64051,note_on,20,0,9,,,,,,,,,13,,,,44,0
64053,note_on,20,0,10,,,,,,,,,14,,,,32,0
64056,note_on,10,0,8,,,,,,,,,12,,,,58,90
64061,note_on,10,0,9,,,,,,,,,13,,,,42,89
64063,note_on,10,0,10,,,,,,,,,14,,,,30,73
64070,note_on,123,0,6,,,,,,,,,10,,,,87,0
64073,note_on,123,0,7,,,,,,,,,11,,,,75,0
64073,note_on,123,0,1,,,,,,,,,0,,,,87,0
64074,note_on,123,0,4,,,,,,,,,4,,,,58,0
64075,note_on,0,0,2,,,,,,,,,1,,,,75,0
64075,note_on,123,0,2,,,,,,,,,1,,,,70,0
64076,note_on,20,0,8,,,,,,,,,12,,,,58,0
64076,note_on,123,0,5,,,,,,,,,5,,,,46,0
64080,note_on,10,0,6,,,,,,,,,10,,,,84,100
64080,set_tempo,120,1,0,,,,,,355030,,,,,,,,
64081,note_on,20,0,9,,,,,,,,,13,,,,42,0
64082,note_on,0,0,3,,,,,,,,,3,,,,58,0
64082,note_on,123,0,3,,,,,,,,,3,,,,54,0
64083,note_on,10,0,1,,,,,,,,,0,,,,84,95
64083,note_on,20,0,10,,,,,,,,,14,,,,30,0
64083,note_on,10,0,7,,,,,,,,,11,,,,82,100
64084,note_on,10,0,4,,,,,,,,,4,,,,60,99
64085,note_on,10,0,2,,,,,,,,,1,,,,70,94
64085,note_on,0,0,2,,,,,,,,,1,,,,72,94
64086,note_on,10,0,5,,,,,,,,,5,,,,58,99
64086,control_change,10,0,8,,,,,,,,,12,11,103,,,
64086,note_on,0,0,8,,,,,,,,,12,,,,63,98
64091,note_on,0,0,9,,,,,,,,,13,,,,51,89
64091,control_change,10,0,9,,,,,,,,,13,11,103,,,
64092,note_on,0,0,3,,,,,,,,,3,,,,51,81
64092,control_change,10,0,3,,,,,,,,,3,11,103,,,
64093,control_change,10,0,10,,,,,,,,,14,11,103,,,
64093,note_on,0,0,10,,,,,,,,,14,,,,39,73
64104,control_change,18,0,8,,,,,,,,,12,11,101,,,
64109,control_change,18,0,9,,,,,,,,,13,11,101,,,
64110,control_change,18,0,3,,,,,,,,,3,11,101,,,
64111,control_change,18,0,10,,,,,,,,,14,11,101,,,
64122,control_change,18,0,8,,,,,,,,,12,11,99,,,
64127,control_change,18,0,9,,,,,,,,,13,11,99,,,
64128,control_change,18,0,3,,,,,,,,,3,11,99,,,
64129,control_change,18,0,10,,,,,,,,,14,11,99,,,
64130,note_on,50,0,6,,,,,,,,,10,,,,84,0
64133,note_on,50,0,7,,,,,,,,,11,,,,82,0
64140,control_change,18,0,8,,,,,,,,,12,11,97,,,
64140,note_on,10,0,6,,,,,,,,,10,,,,84,100
64143,note_on,10,0,7,,,,,,,,,11,,,,82,100
64145,control_change,18,0,9,,,,,,,,,13,11,97,,,
64146,control_change,18,0,3,,,,,,,,,3,11,97,,,
64147,control_change,18,0,10,,,,,,,,,14,11,97,,,
64158,control_change,18,0,8,,,,,,,,,12,11,95,,,
64163,control_change,18,0,9,,,,,,,,,13,11,95,,,
64164,control_change,18,0,3,,,,,,,,,3,11,95,,,
64165,control_change,18,0,10,,,,,,,,,14,11,95,,,
64176,control_change,18,0,8,,,,,,,,,12,11,93,,,
64181,control_change,18,0,9,,,,,,,,,13,11,93,,,
64182,control_change,18,0,3,,,,,,,,,3,11,93,,,
64183,control_change,18,0,10,,,,,,,,,14,11,93,,,
64194,control_change,18,0,8,,,,,,,,,12,11,91,,,
64196,note_on,2,0,8,,,,,,,,,12,,,,63,0
64199,control_change,18,0,9,,,,,,,,,13,11,91,,,
64200,set_tempo,120,1,0,,,,,,382166,,,,,,,,
64200,control_change,18,0,3,,,,,,,,,3,11,91,,,
64201,control_change,18,0,10,,,,,,,,,14,11,91,,,
64201,note_on,2,0,9,,,,,,,,,13,,,,51,0
64202,note_on,2,0,3,,,,,,,,,3,,,,51,0
64203,note_on,2,0,10,,,,,,,,,14,,,,39,0
64206,control_change,10,0,8,,,,,,,,,12,11,103,,,
64206,note_on,0,0,8,,,,,,,,,12,,,,65,98
64211,note_on,0,0,9,,,,,,,,,13,,,,53,89
64211,control_change,10,0,9,,,,,,,,,13,11,103,,,
64212,control_change,10,0,3,,,,,,,,,3,11,103,,,
64212,note_on,0,0,3,,,,,,,,,3,,,,53,81
64213,note_on,0,0,10,,,,,,,,,14,,,,41,73
64213,control_change,10,0,10,,,,,,,,,14,11,103,,,
64224,control_change,18,0,8,,,,,,,,,12,11,101,,,
64229,control_change,18,0,9,,,,,,,,,13,11,101,,,
64230,control_change,18,0,3,,,,,,,,,3,11,101,,,
64231,control_change,18,0,10,,,,,,,,,14,11,101,,,
64242,control_change,18,0,8,,,,,,,,,12,11,99,,,
64247,control_change,18,0,9,,,,,,,,,13,11,99,,,
64248,control_change,18,0,3,,,,,,,,,3,11,99,,,
64249,control_change,18,0,10,,,,,,,,,14,11,99,,,
64250,note_on,110,0,6,,,,,,,,,10,,,,84,0
64253,note_on,110,0,7,,,,,,,,,11,,,,82,0
64260,control_change,18,0,8,,,,,,,,,12,11,97,,,
64260,note_on,10,0,6,,,,,,,,,10,,,,84,100
64263,note_on,10,0,7,,,,,,,,,11,,,,82,100
64265,control_change,18,0,9,,,,,,,,,13,11,97,,,
64266,control_change,18,0,3,,,,,,,,,3,11,97,,,
64267,control_change,18,0,10,,,,,,,,,14,11,97,,,
64278,control_change,18,0,8,,,,,,,,,12,11,95,,,
64283,control_change,18,0,9,,,,,,,,,13,11,95,,,
64284,control_change,18,0,3,,,,,,,,,3,11,95,,,
64285,control_change,18,0,10,,,,,,,,,14,11,95,,,
64296,control_change,18,0,8,,,,,,,,,12,11,93,,,
64301,control_change,18,0,9,,,,,,,,,13,11,93,,,
64302,control_change,18,0,3,,,,,,,,,3,11,93,,,
64303,control_change,18,0,10,,,,,,,,,14,11,93,,,
64314,control_change,18,0,8,,,,,,,,,12,11,91,,,
64316,note_on,2,0,8,,,,,,,,,12,,,,65,0
64319,control_change,18,0,9,,,,,,,,,13,11,91,,,
64320,set_tempo,120,1,0,,,,,,355030,,,,,,,,
64320,control_change,18,0,3,,,,,,,,,3,11,91,,,
64321,control_change,18,0,10,,,,,,,,,14,11,91,,,
64321,note_on,2,0,9,,,,,,,,,13,,,,53,0
64322,note_on,2,0,3,,,,,,,,,3,,,,53,0
64323,note_on,2,0,10,,,,,,,,,14,,,,41,0
64326,note_on,0,0,8,,,,,,,,,12,,,,66,98
64326,control_change,10,0,8,,,,,,,,,12,11,103,,,
64331,control_change,10,0,9,,,,,,,,,13,11,103,,,
64331,note_on,0,0,9,,,,,,,,,13,,,,54,89
64332,note_on,0,0,3,,,,,,,,,3,,,,54,81
64332,control_change,10,0,3,,,,,,,,,3,11,103,,,
64333,note_on,0,0,10,,,,,,,,,14,,,,42,73
64333,control_change,10,0,10,,,,,,,,,14,11,103,,,
64344,control_change,18,0,8,,,,,,,,,12,11,101,,,
64349,control_change,18,0,9,,,,,,,,,13,11,101,,,
64350,control_change,18,0,3,,,,,,,,,3,11,101,,,
64351,control_change,18,0,10,,,,,,,,,14,11,101,,,
64362,control_change,18,0,8,,,,,,,,,12,11,99,,,
64367,control_change,18,0,9,,,,,,,,,13,11,99,,,
64368,control_change,18,0,3,,,,,,,,,3,11,99,,,
64369,control_change,18,0,10,,,,,,,,,14,11,99,,,
64370,note_on,110,0,6,,,,,,,,,10,,,,84,0
64373,note_on,110,0,7,,,,,,,,,11,,,,82,0
64380,control_change,18,0,8,,,,,,,,,12,11,97,,,
64380,note_on,10,0,6,,,,,,,,,10,,,,84,100
64383,note_on,10,0,7,,,,,,,,,11,,,,82,100
64385,control_change,18,0,9,,,,,,,,,13,11,97,,,
64386,control_change,18,0,3,,,,,,,,,3,11,97,,,
64387,control_change,18,0,10,,,,,,,,,14,11,97,,,
64398,control_change,18,0,8,,,,,,,,,12,11,95,,,
64403,control_change,18,0,9,,,,,,,,,13,11,95,,,
64404,control_change,18,0,3,,,,,,,,,3,11,95,,,
64405,control_change,18,0,10,,,,,,,,,14,11,95,,,
64416,control_change,18,0,8,,,,,,,,,12,11,93,,,
64421,control_change,18,0,9,,,,,,,,,13,11,93,,,
64422,control_change,18,0,3,,,,,,,,,3,11,93,,,
64423,control_change,18,0,10,,,,,,,,,14,11,93,,,
64434,control_change,18,0,8,,,,,,,,,12,11,91,,,
64436,note_on,2,0,8,,,,,,,,,12,,,,66,0
64439,control_change,18,0,9,,,,,,,,,13,11,91,,,
64440,set_tempo,120,1,0,,,,,,382166,,,,,,,,
64440,control_change,18,0,3,,,,,,,,,3,11,91,,,
64441,control_change,18,0,10,,,,,,,,,14,11,91,,,
64441,note_on,2,0,9,,,,,,,,,13,,,,54,0
64442,note_on,2,0,3,,,,,,,,,3,,,,54,0
64443,note_on,2,0,10,,,,,,,,,14,,,,42,0
64446,control_change,10,0,8,,,,,,,,,12,11,103,,,
64446,note_on,0,0,8,,,,,,,,,12,,,,65,98
64451,control_change,10,0,9,,,,,,,,,13,11,103,,,
64451,note_on,0,0,9,,,,,,,,,13,,,,53,89
64452,control_change,10,0,3,,,,,,,,,3,11,103,,,
64452,note_on,0,0,3,,,,,,,,,3,,,,53,81
64453,control_change,10,0,10,,,,,,,,,14,11,103,,,
64453,note_on,0,0,10,,,,,,,,,14,,,,41,73
64464,control_change,18,0,8,,,,,,,,,12,11,101,,,
64469,control_change,18,0,9,,,,,,,,,13,11,101,,,
64470,control_change,18,0,3,,,,,,,,,3,11,101,,,
64471,control_change,18,0,10,,,,,,,,,14,11,101,,,
64482,control_change,18,0,8,,,,,,,,,12,11,99,,,
64487,control_change,18,0,9,,,,,,,,,13,11,99,,,
64488,control_change,18,0,3,,,,,,,,,3,11,99,,,
64489,control_change,18,0,10,,,,,,,,,14,11,99,,,
64490,note_on,110,0,6,,,,,,,,,10,,,,84,0
64493,note_on,110,0,7,,,,,,,,,11,,,,82,0
64500,control_change,18,0,8,,,,,,,,,12,11,97,,,
64500,note_on,10,0,6,,,,,,,,,10,,,,84,100
64503,note_on,10,0,7,,,,,,,,,11,,,,82,100
64505,control_change,18,0,9,,,,,,,,,13,11,97,,,
64506,control_change,18,0,3,,,,,,,,,3,11,97,,,
64507,control_change,18,0,10,,,,,,,,,14,11,97,,,
64518,control_change,18,0,8,,,,,,,,,12,11,95,,,
64523,control_change,18,0,9,,,,,,,,,13,11,95,,,
64524,control_change,18,0,3,,,,,,,,,3,11,95,,,
64525,control_change,18,0,10,,,,,,,,,14,11,95,,,
64536,control_change,18,0,8,,,,,,,,,12,11,93,,,
64541,control_change,18,0,9,,,,,,,,,13,11,93,,,
64542,control_change,18,0,3,,,,,,,,,3,11,93,,,
64543,control_change,18,0,10,,,,,,,,,14,11,93,,,
64553,note_on,470,0,1,,,,,,,,,0,,,,84,0
64554,control_change,18,0,8,,,,,,,,,12,11,91,,,
64554,note_on,470,0,4,,,,,,,,,4,,,,60,0
64555,note_on,0,0,2,,,,,,,,,1,,,,70,0
64555,note_on,470,0,2,,,,,,,,,1,,,,72,0
64556,note_on,2,0,8,,,,,,,,,12,,,,65,0
64556,note_on,470,0,5,,,,,,,,,5,,,,58,0
64559,control_change,18,0,9,,,,,,,,,13,11,91,,,
64560,set_tempo,120,1,0,,,,,,355030,,,,,,,,
64560,control_change,18,0,3,,,,,,,,,3,11,91,,,
64561,control_change,18,0,10,,,,,,,,,14,11,91,,,
64561,note_on,2,0,9,,,,,,,,,13,,,,53,0
64562,note_on,2,0,3,,,,,,,,,3,,,,53,0
64563,note_on,60,0,7,,,,,,,,,11,,,,72,100
64563,note_on,10,0,1,,,,,,,,,0,,,,84,95
64563,note_on,2,0,10,,,,,,,,,14,,,,41,0
64564,note_on,10,0,4,,,,,,,,,4,,,,60,99
64565,note_on,10,0,2,,,,,,,,,1,,,,70,94
64565,note_on,0,0,2,,,,,,,,,1,,,,72,94
64566,note_on,10,0,5,,,,,,,,,5,,,,58,99
64566,note_on,10,0,8,,,,,,,,,12,,,,63,98
64571,note_on,10,0,9,,,,,,,,,13,,,,51,89
64572,note_on,10,0,3,,,,,,,,,3,,,,51,81
64573,note_on,10,0,10,,,,,,,,,14,,,,39,73
64610,note_on,110,0,6,,,,,,,,,10,,,,84,0
64613,note_on,50,0,7,,,,,,,,,11,,,,72,0
64613,note_on,0,0,7,,,,,,,,,11,,,,82,0
64616,note_on,50,0,8,,,,,,,,,12,,,,63,0
64620,note_on,10,0,6,,,,,,,,,10,,,,84,100
64621,note_on,50,0,9,,,,,,,,,13,,,,51,0
64622,note_on,50,0,3,,,,,,,,,3,,,,51,0
64623,note_on,10,0,7,,,,,,,,,11,,,,72,100
64623,note_on,50,0,10,,,,,,,,,14,,,,39,0
64623,note_on,0,0,7,,,,,,,,,11,,,,82,100
64626,note_on,10,0,8,,,,,,,,,12,,,,63,98
64631,note_on,10,0,9,,,,,,,,,13,,,,51,89
64632,note_on,10,0,3,,,,,,,,,3,,,,51,81
64633,note_on,10,0,10,,,,,,,,,14,,,,39,73
64676,note_on,50,0,8,,,,,,,,,12,,,,63,0
64680,set_tempo,120,1,0,,,,,,382166,,,,,,,,
64681,note_on,50,0,9,,,,,,,,,13,,,,51,0
64682,note_on,50,0,3,,,,,,,,,3,,,,51,0
64683,note_on,50,0,10,,,,,,,,,14,,,,39,0
64686,note_on,10,0,8,,,,,,,,,12,,,,65,98
64691,note_on,10,0,9,,,,,,,,,13,,,,53,89
64692,note_on,10,0,3,,,,,,,,,3,,,,53,81
64693,note_on,10,0,10,,,,,,,,,14,,,,41,73
64730,note_on,110,0,6,,,,,,,,,10,,,,84,0
64733,note_on,110,0,7,,,,,,,,,11,,,,82,0
64733,note_on,0,0,7,,,,,,,,,11,,,,72,0
64736,note_on,50,0,8,,,,,,,,,12,,,,65,0
64740,note_on,10,0,6,,,,,,,,,10,,,,84,100
64741,note_on,50,0,9,,,,,,,,,13,,,,53,0
64742,note_on,50,0,3,,,,,,,,,3,,,,53,0
64743,note_on,0,0,7,,,,,,,,,11,,,,82,100
64743,note_on,50,0,10,,,,,,,,,14,,,,41,0
64743,note_on,10,0,7,,,,,,,,,11,,,,72,100
64746,note_on,10,0,8,,,,,,,,,12,,,,65,98
64751,note_on,10,0,9,,,,,,,,,13,,,,53,89
64752,note_on,10,0,3,,,,,,,,,3,,,,53,81
64753,note_on,10,0,10,,,,,,,,,14,,,,41,73
64796,note_on,50,0,8,,,,,,,,,12,,,,65,0
64800,set_tempo,120,1,0,,,,,,355030,,,,,,,,
64801,note_on,50,0,9,,,,,,,,,13,,,,53,0
64802,note_on,50,0,3,,,,,,,,,3,,,,53,0
64803,note_on,50,0,10,,,,,,,,,14,,,,41,0
64806,note_on,10,0,8,,,,,,,,,12,,,,66,98
64811,note_on,10,0,9,,,,,,,,,13,,,,54,89
64812,note_on,10,0,3,,,,,,,,,3,,,,54,81
64813,note_on,10,0,10,,,,,,,,,14,,,,42,73
64850,note_on,110,0,6,,,,,,,,,10,,,,84,0
64853,note_on,110,0,7,,,,,,,,,11,,,,82,0
64853,note_on,0,0,7,,,,,,,,,11,,,,72,0
64856,note_on,50,0,8,,,,,,,,,12,,,,66,0
64860,note_on,10,0,6,,,,,,,,,10,,,,84,100
64861,note_on,50,0,9,,,,,,,,,13,,,,54,0
64862,note_on,50,0,3,,,,,,,,,3,,,,54,0
64863,note_on,50,0,10,,,,,,,,,14,,,,42,0
64863,note_on,0,0,7,,,,,,,,,11,,,,72,100
64863,note_on,10,0,7,,,,,,,,,11,,,,82,100
64866,note_on,10,0,8,,,,,,,,,12,,,,66,98
64871,note_on,10,0,9,,,,,,,,,13,,,,54,89
64872,note_on,10,0,3,,,,,,,,,3,,,,54,81
64873,note_on,10,0,10,,,,,,,,,14,,,,42,73
64916,note_on,50,0,8,,,,,,,,,12,,,,66,0
64920,set_tempo,120,1,0,,,,,,382166,,,,,,,,
64921,note_on,50,0,9,,,,,,,,,13,,,,54,0
64922,note_on,50,0,3,,,,,,,,,3,,,,54,0
64923,note_on,50,0,10,,,,,,,,,14,,,,42,0
64926,note_on,10,0,8,,,,,,,,,12,,,,65,98
64931,note_on,10,0,9,,,,,,,,,13,,,,53,89
64932,note_on,10,0,3,,,,,,,,,3,,,,53,81
64933,note_on,10,0,10,,,,,,,,,14,,,,41,73
64970,note_on,110,0,6,,,,,,,,,10,,,,84,0
64973,note_on,110,0,7,,,,,,,,,11,,,,72,0
64973,note_on,0,0,7,,,,,,,,,11,,,,82,0
64976,note_on,50,0,8,,,,,,,,,12,,,,65,0
64980,note_on,10,0,6,,,,,,,,,10,,,,84,100
64981,note_on,50,0,9,,,,,,,,,13,,,,53,0
64982,note_on,50,0,3,,,,,,,,,3,,,,53,0
64983,note_on,50,0,10,,,,,,,,,14,,,,41,0
64983,note_on,10,0,7,,,,,,,,,11,,,,72,100
64983,note_on,0,0,7,,,,,,,,,11,,,,82,100
64986,note_on,10,0,8,,,,,,,,,12,,,,65,98
64991,note_on,10,0,9,,,,,,,,,13,,,,53,89
64992,note_on,10,0,3,,,,,,,,,3,,,,53,81
64993,note_on,10,0,10,,,,,,,,,14,,,,41,73
65030,note_on,50,0,6,,,,,,,,,10,,,,84,0
65033,note_on,0,0,7,,,,,,,,,11,,,,72,0
65033,note_on,50,0,7,,,,,,,,,11,,,,82,0
65033,note_on,470,0,1,,,,,,,,,0,,,,84,0
65034,note_on,470,0,4,,,,,,,,,4,,,,60,0
65035,note_on,0,0,2,,,,,,,,,1,,,,70,0
65035,note_on,470,0,2,,,,,,,,,1,,,,72,0
65036,note_on,50,0,8,,,,,,,,,12,,,,65,0
65036,note_on,470,0,5,,,,,,,,,5,,,,58,0
65040,set_tempo,120,1,0,,,,,,355030,,,,,,,,
65040,note_on,10,0,6,,,,,,,,,10,,,,84,100
65041,note_on,50,0,9,,,,,,,,,13,,,,53,0
65042,note_on,50,0,3,,,,,,,,,3,,,,53,0
65043,note_on,0,0,7,,,,,,,,,11,,,,72,100
65043,note_on,10,0,7,,,,,,,,,11,,,,82,100
65043,note_on,10,0,1,,,,,,,,,0,,,,84,95
65043,note_on,50,0,10,,,,,,,,,14,,,,41,0
65044,note_on,10,0,4,,,,,,,,,4,,,,60,99
65045,note_on,10,0,2,,,,,,,,,1,,,,72,94
65045,note_on,0,0,2,,,,,,,,,1,,,,70,94
65046,note_on,10,0,5,,,,,,,,,5,,,,58,99
65046,note_on,10,0,8,,,,,,,,,12,,,,64,98
65051,note_on,10,0,9,,,,,,,,,13,,,,52,89
65052,note_on,10,0,3,,,,,,,,,3,,,,52,81
65053,note_on,10,0,10,,,,,,,,,14,,,,40,73
65060,note_on,20,0,6,,,,,,,,,10,,,,84,0
65063,note_on,0,0,7,,,,,,,,,11,,,,82,0
65063,note_on,20,0,7,,,,,,,,,11,,,,72,0
65066,note_on,20,0,8,,,,,,,,,12,,,,64,0
65070,note_on,10,0,6,,,,,,,,,10,,,,84,92
65071,note_on,20,0,9,,,,,,,,,13,,,,52,0
65073,note_on,0,0,7,,,,,,,,,11,,,,82,92
65073,note_on,10,0,7,,,,,,,,,11,,,,72,92
65073,note_on,20,0,10,,,,,,,,,14,,,,40,0
65076,note_on,10,0,8,,,,,,,,,12,,,,64,90
65081,note_on,10,0,9,,,,,,,,,13,,,,52,81
65083,note_on,10,0,10,,,,,,,,,14,,,,40,65
65090,note_on,20,0,6,,,,,,,,,10,,,,84,0
65093,note_on,0,0,7,,,,,,,,,11,,,,72,0
65093,note_on,20,0,7,,,,,,,,,11,,,,82,0
65096,note_on,20,0,8,,,,,,,,,12,,,,64,0
65100,note_on,10,0,6,,,,,,,,,10,,,,84,100
65101,note_on,20,0,9,,,,,,,,,13,,,,52,0
65103,note_on,10,0,7,,,,,,,,,11,,,,82,100
65103,note_on,20,0,10,,,,,,,,,14,,,,40,0
65103,note_on,0,0,7,,,,,,,,,11,,,,72,100
65106,note_on,10,0,8,,,,,,,,,12,,,,64,98
65111,note_on,10,0,9,,,,,,,,,13,,,,52,89
65113,note_on,10,0,10,,,,,,,,,14,,,,40,73
65120,note_on,20,0,6,,,,,,,,,10,,,,84,0
65123,note_on,0,0,7,,,,,,,,,11,,,,82,0
65123,note_on,20,0,7,,,,,,,,,11,,,,72,0
65126,note_on,20,0,8,,,,,,,,,12,,,,64,0
65130,note_on,10,0,6,,,,,,,,,10,,,,84,92
65131,note_on,20,0,9,,,,,,,,,13,,,,52,0
65133,note_on,20,0,10,,,,,,,,,14,,,,40,0
65133,note_on,10,0,7,,,,,,,,,11,,,,82,92
65133,note_on,0,0,7,,,,,,,,,11,,,,72,92
65136,note_on,10,0,8,,,,,,,,,12,,,,64,90
65141,note_on,10,0,9,,,,,,,,,13,,,,52,81
65143,note_on,10,0,10,,,,,,,,,14,,,,40,65
65150,note_on,20,0,6,,,,,,,,,10,,,,84,0
65153,note_on,20,0,7,,,,,,,,,11,,,,72,0
65153,note_on,0,0,7,,,,,,,,,11,,,,82,0
65156,note_on,20,0,8,,,,,,,,,12,,,,64,0
65160,note_on,10,0,6,,,,,,,,,10,,,,84,100
65160,set_tempo,120,1,0,,,,,,382166,,,,,,,,
65161,note_on,20,0,9,,,,,,,,,13,,,,52,0
65163,note_on,10,0,7,,,,,,,,,11,,,,82,100
65163,note_on,20,0,10,,,,,,,,,14,,,,40,0
65163,note_on,0,0,7,,,,,,,,,11,,,,72,100
65166,note_on,10,0,8,,,,,,,,,12,,,,64,98
65171,note_on,10,0,9,,,,,,,,,13,,,,52,89
65173,note_on,10,0,10,,,,,,,,,14,,,,40,73
65180,note_on,20,0,6,,,,,,,,,10,,,,84,0
65183,note_on,20,0,7,,,,,,,,,11,,,,72,0
65183,note_on,0,0,7,,,,,,,,,11,,,,82,0
65186,note_on,20,0,8,,,,,,,,,12,,,,64,0
65190,note_on,10,0,6,,,,,,,,,10,,,,84,92
65191,note_on,20,0,9,,,,,,,,,13,,,,52,0
65193,note_on,0,0,7,,,,,,,,,11,,,,72,92
65193,note_on,10,0,7,,,,,,,,,11,,,,82,92
65193,note_on,20,0,10,,,,,,,,,14,,,,40,0
65196,note_on,10,0,8,,,,,,,,,12,,,,64,90
65201,note_on,10,0,9,,,,,,,,,13,,,,52,81
65203,note_on,10,0,10,,,,,,,,,14,,,,40,65
65210,note_on,20,0,6,,,,,,,,,10,,,,84,0
65213,note_on,20,0,7,,,,,,,,,11,,,,72,0
65213,note_on,0,0,7,,,,,,,,,11,,,,82,0
65216,note_on,20,0,8,,,,,,,,,12,,,,64,0
65220,note_on,10,0,6,,,,,,,,,10,,,,84,100
65221,note_on,20,0,9,,,,,,,,,13,,,,52,0
65223,note_on,20,0,10,,,,,,,,,14,,,,40,0
65223,note_on,10,0,7,,,,,,,,,11,,,,72,100
65223,note_on,0,0,7,,,,,,,,,11,,,,82,100
65226,note_on,10,0,8,,,,,,,,,12,,,,64,98
65231,note_on,10,0,9,,,,,,,,,13,,,,52,89
65233,note_on,10,0,10,,,,,,,,,14,,,,40,73
65240,note_on,20,0,6,,,,,,,,,10,,,,84,0
65243,note_on,0,0,7,,,,,,,,,11,,,,72,0
65243,note_on,20,0,7,,,,,,,,,11,,,,82,0
65246,note_on,20,0,8,,,,,,,,,12,,,,64,0
65250,note_on,10,0,6,,,,,,,,,10,,,,84,92
65251,note_on,20,0,9,,,,,,,,,13,,,,52,0
65253,note_on,20,0,10,,,,,,,,,14,,,,40,0
65253,note_on,10,0,7,,,,,,,,,11,,,,72,92
65253,note_on,0,0,7,,,,,,,,,11,,,,82,92
65256,note_on,10,0,8,,,,,,,,,12,,,,64,90
65261,note_on,10,0,9,,,,,,,,,13,,,,52,81
65263,note_on,10,0,10,,,,,,,,,14,,,,40,65
65270,note_on,20,0,6,,,,,,,,,10,,,,84,0
65273,note_on,20,0,7,,,,,,,,,11,,,,82,0
65273,note_on,0,0,7,,,,,,,,,11,,,,72,0
65275,note_on,230,0,2,,,,,,,,,1,,,,70,0
65276,note_on,20,0,8,,,,,,,,,12,,,,64,0
65280,set_tempo,120,1,0,,,,,,365854,,,,,,,,
65280,note_on,10,0,6,,,,,,,,,10,,,,84,105
65281,note_on,20,0,9,,,,,,,,,13,,,,52,0
65282,note_on,230,0,3,,,,,,,,,3,,,,52,0
65283,note_on,20,0,10,,,,,,,,,14,,,,40,0
65283,note_on,0,0,7,,,,,,,,,11,,,,81,105
65283,note_on,10,0,7,,,,,,,,,11,,,,72,105
65285,note_on,10,0,2,,,,,,,,,1,,,,69,74
65286,note_on,240,0,5,,,,,,,,,5,,,,58,0
65286,note_on,0,0,5,,,,,,,,,5,,,,53,78
65286,note_on,10,0,8,,,,,,,,,12,,,,65,103
65291,note_on,10,0,9,,,,,,,,,13,,,,53,94
65292,note_on,10,0,3,,,,,,,,,3,,,,53,74
65293,note_on,10,0,10,,,,,,,,,14,,,,41,77
65400,note_on,120,0,6,,,,,,,,,10,,,,84,0
65400,set_tempo,120,1,0,,,,,,421053,,,,,,,,
65403,note_on,120,0,7,,,,,,,,,11,,,,81,0
65403,note_on,0,0,7,,,,,,,,,11,,,,72,0
65403,note_on,360,0,1,,,,,,,,,0,,,,84,0
65404,note_on,360,0,4,,,,,,,,,4,,,,60,0
65405,note_on,120,0,2,,,,,,,,,1,,,,69,0
65405,note_on,0,0,2,,,,,,,,,1,,,,72,0
65406,note_on,120,0,8,,,,,,,,,12,,,,65,0
65406,note_on,120,0,5,,,,,,,,,5,,,,53,0
65411,note_on,120,0,9,,,,,,,,,13,,,,53,0
65412,note_on,120,0,3,,,,,,,,,3,,,,53,0
65413,note_on,120,0,10,,,,,,,,,14,,,,41,0
65520,set_tempo,120,1,0,,,,,,355030,,,,,,,,
65520,note_on,120,0,6,,,,,,,,,10,,,,65,100
65523,note_on,120,0,1,,,,,,,,,0,,,,77,82
65523,note_on,120,0,7,,,,,,,,,11,,,,65,100
65524,note_on,120,0,4,,,,,,,,,4,,,,65,86
65525,note_on,120,0,2,,,,,,,,,1,,,,65,81
65526,note_on,120,0,5,,,,,,,,,5,,,,53,86
65526,note_on,120,0,8,,,,,,,,,12,,,,56,98
65531,note_on,120,0,9,,,,,,,,,13,,,,53,89
65532,note_on,120,0,3,,,,,,,,,3,,,,56,81
65532,note_on,0,0,3,,,,,,,,,3,,,,53,81
65533,note_on,120,0,10,,,,,,,,,14,,,,41,73
65546,note_on,20,0,8,,,,,,,,,12,,,,56,0
65551,note_on,20,0,9,,,,,,,,,13,,,,53,0
65553,note_on,20,0,10,,,,,,,,,14,,,,41,0
65556,note_on,10,0,8,,,,,,,,,12,,,,56,90
65561,note_on,10,0,9,,,,,,,,,13,,,,53,81
65563,note_on,10,0,10,,,,,,,,,14,,,,41,65
65576,note_on,20,0,8,,,,,,,,,12,,,,56,0
65581,note_on,20,0,9,,,,,,,,,13,,,,53,0
65583,note_on,20,0,10,,,,,,,,,14,,,,41,0
65586,note_on,10,0,8,,,,,,,,,12,,,,56,98
65591,note_on,10,0,9,,,,,,,,,13,,,,53,89
65593,note_on,10,0,10,,,,,,,,,14,,,,41,73
65606,note_on,20,0,8,,,,,,,,,12,,,,56,0
65611,note_on,20,0,9,,,,,,,,,13,,,,53,0
65613,note_on,20,0,10,,,,,,,,,14,,,,41,0
65616,note_on,10,0,8,,,,,,,,,12,,,,56,90
65621,note_on,10,0,9,,,,,,,,,13,,,,53,81
65623,note_on,10,0,10,,,,,,,,,14,,,,41,65
65636,note_on,20,0,8,,,,,,,,,12,,,,56,0
65640,set_tempo,120,1,0,,,,,,382166,,,,,,,,
65641,note_on,20,0,9,,,,,,,,,13,,,,53,0
65643,note_on,20,0,10,,,,,,,,,14,,,,41,0
65646,note_on,10,0,8,,,,,,,,,12,,,,56,98
65651,note_on,10,0,9,,,,,,,,,13,,,,53,89
65653,note_on,10,0,10,,,,,,,,,14,,,,41,73
65666,note_on,20,0,8,,,,,,,,,12,,,,56,0
65671,note_on,20,0,9,,,,,,,,,13,,,,53,0
65673,note_on,20,0,10,,,,,,,,,14,,,,41,0
65676,note_on,10,0,8,,,,,,,,,12,,,,56,90
65681,note_on,10,0,9,,,,,,,,,13,,,,53,81
65683,note_on,10,0,10,,,,,,,,,14,,,,41,65
65696,note_on,20,0,8,,,,,,,,,12,,,,56,0
65701,note_on,20,0,9,,,,,,,,,13,,,,53,0
65703,note_on,20,0,10,,,,,,,,,14,,,,41,0
65706,note_on,10,0,8,,,,,,,,,12,,,,56,98
65711,note_on,10,0,9,,,,,,,,,13,,,,53,89
65713,note_on,10,0,10,,,,,,,,,14,,,,41,73
65726,note_on,20,0,8,,,,,,,,,12,,,,56,0
65731,note_on,20,0,9,,,,,,,,,13,,,,53,0
65733,note_on,20,0,10,,,,,,,,,14,,,,41,0
65736,note_on,10,0,8,,,,,,,,,12,,,,56,90
65741,note_on,10,0,9,,,,,,,,,13,,,,53,81
65743,note_on,10,0,10,,,,,,,,,14,,,,41,65
65750,note_on,230,0,6,,,,,,,,,10,,,,65,0
65753,note_on,230,0,7,,,,,,,,,11,,,,65,0
65753,note_on,230,0,1,,,,,,,,,0,,,,77,0
65754,note_on,230,0,4,,,,,,,,,4,,,,65,0
65755,note_on,230,0,2,,,,,,,,,1,,,,65,0
65756,note_on,230,0,5,,,,,,,,,5,,,,53,0
65756,note_on,20,0,8,,,,,,,,,12,,,,56,0
65760,set_tempo,120,1,0,,,,,,355030,,,,,,,,
65760,note_on,10,0,6,,,,,,,,,10,,,,68,100
65761,note_on,20,0,9,,,,,,,,,13,,,,53,0
65762,note_on,230,0,3,,,,,,,,,3,,,,53,0
65762,note_on,0,0,3,,,,,,,,,3,,,,56,0
65763,note_on,10,0,7,,,,,,,,,11,,,,56,100
65763,note_on,10,0,1,,,,,,,,,0,,,,80,82
65763,note_on,20,0,10,,,,,,,,,14,,,,41,0
65764,note_on,10,0,4,,,,,,,,,4,,,,65,86
65765,note_on,10,0,2,,,,,,,,,1,,,,68,81
65766,note_on,10,0,8,,,,,,,,,12,,,,56,98
65766,note_on,10,0,5,,,,,,,,,5,,,,53,86
65771,note_on,10,0,9,,,,,,,,,13,,,,53,89
65772,note_on,10,0,3,,,,,,,,,3,,,,53,81
65772,note_on,0,0,3,,,,,,,,,3,,,,56,81
65773,note_on,10,0,10,,,,,,,,,14,,,,41,73
65786,note_on,20,0,8,,,,,,,,,12,,,,56,0
65791,note_on,20,0,9,,,,,,,,,13,,,,53,0
65793,note_on,20,0,10,,,,,,,,,14,,,,41,0
65796,note_on,10,0,8,,,,,,,,,12,,,,56,90
65801,note_on,10,0,9,,,,,,,,,13,,,,53,81
65803,note_on,10,0,10,,,,,,,,,14,,,,41,65
65816,note_on,20,0,8,,,,,,,,,12,,,,56,0
65821,note_on,20,0,9,,,,,,,,,13,,,,53,0
65823,note_on,20,0,10,,,,,,,,,14,,,,41,0
65826,note_on,10,0,8,,,,,,,,,12,,,,56,98
65831,note_on,10,0,9,,,,,,,,,13,,,,53,89
65833,note_on,10,0,10,,,,,,,,,14,,,,41,73
65846,note_on,20,0,8,,,,,,,,,12,,,,56,0
65851,note_on,20,0,9,,,,,,,,,13,,,,53,0
65853,note_on,20,0,10,,,,,,,,,14,,,,41,0
65856,note_on,10,0,8,,,,,,,,,12,,,,56,90
65861,note_on,10,0,9,,,,,,,,,13,,,,53,81
65863,note_on,10,0,10,,,,,,,,,14,,,,41,65
65876,note_on,20,0,8,,,,,,,,,12,,,,56,0
65880,set_tempo,120,1,0,,,,,,382166,,,,,,,,
65881,note_on,20,0,9,,,,,,,,,13,,,,53,0
65883,note_on,20,0,10,,,,,,,,,14,,,,41,0
65886,note_on,10,0,8,,,,,,,,,12,,,,56,98
65891,note_on,10,0,9,,,,,,,,,13,,,,53,89
65893,note_on,10,0,10,,,,,,,,,14,,,,41,73
65906,note_on,20,0,8,,,,,,,,,12,,,,56,0
65911,note_on,20,0,9,,,,,,,,,13,,,,53,0
65913,note_on,20,0,10,,,,,,,,,14,,,,41,0
65916,note_on,10,0,8,,,,,,,,,12,,,,56,90
65921,note_on,10,0,9,,,,,,,,,13,,,,53,81
65923,note_on,10,0,10,,,,,,,,,14,,,,41,65
65936,note_on,20,0,8,,,,,,,,,12,,,,56,0
65941,note_on,20,0,9,,,,,,,,,13,,,,53,0
65943,note_on,20,0,10,,,,,,,,,14,,,,41,0
65946,note_on,10,0,8,,,,,,,,,12,,,,56,98
65951,note_on,10,0,9,,,,,,,,,13,,,,53,89
65953,note_on,10,0,10,,,,,,,,,14,,,,41,73
65966,note_on,20,0,8,,,,,,,,,12,,,,56,0
65971,note_on,20,0,9,,,,,,,,,13,,,,53,0
65973,note_on,20,0,10,,,,,,,,,14,,,,41,0
65976,note_on,10,0,8,,,,,,,,,12,,,,56,90
65981,note_on,10,0,9,,,,,,,,,13,,,,53,81
65983,note_on,10,0,10,,,,,,,,,14,,,,41,65
65990,note_on,230,0,6,,,,,,,,,10,,,,68,0
65993,note_on,230,0,7,,,,,,,,,11,,,,56,0
65993,note_on,230,0,1,,,,,,,,,0,,,,80,0
65994,note_on,230,0,4,,,,,,,,,4,,,,65,0
65995,note_on,230,0,2,,,,,,,,,1,,,,68,0
65996,note_on,20,0,8,,,,,,,,,12,,,,56,0
65996,note_on,230,0,5,,,,,,,,,5,,,,53,0
66000,note_on,10,0,6,,,,,,,,,10,,,,73,100
66000,set_tempo,120,1,0,,,,,,355030,,,,,,,,
66001,note_on,20,0,9,,,,,,,,,13,,,,53,0
66002,note_on,0,0,3,,,,,,,,,3,,,,53,0
66002,note_on,230,0,3,,,,,,,,,3,,,,56,0
66003,note_on,10,0,1,,,,,,,,,0,,,,85,82
66003,note_on,10,0,7,,,,,,,,,11,,,,61,100
66003,note_on,20,0,10,,,,,,,,,14,,,,41,0
66004,note_on,10,0,4,,,,,,,,,4,,,,65,86
66005,note_on,10,0,2,,,,,,,,,1,,,,73,81
66006,note_on,10,0,5,,,,,,,,,5,,,,53,86
66006,note_on,10,0,8,,,,,,,,,12,,,,56,98
66011,note_on,10,0,9,,,,,,,,,13,,,,53,89
66012,note_on,0,0,3,,,,,,,,,3,,,,56,81
66012,note_on,10,0,3,,,,,,,,,3,,,,53,81
66013,note_on,10,0,10,,,,,,,,,14,,,,41,73
66026,note_on,20,0,8,,,,,,,,,12,,,,56,0
66031,note_on,20,0,9,,,,,,,,,13,,,,53,0
66033,note_on,20,0,10,,,,,,,,,14,,,,41,0
66036,note_on,10,0,8,,,,,,,,,12,,,,56,90
66041,note_on,10,0,9,,,,,,,,,13,,,,53,81
66043,note_on,10,0,10,,,,,,,,,14,,,,41,65
66056,note_on,20,0,8,,,,,,,,,12,,,,56,0
66061,note_on,20,0,9,,,,,,,,,13,,,,53,0
66063,note_on,20,0,10,,,,,,,,,14,,,,41,0
66066,note_on,10,0,8,,,,,,,,,12,,,,56,98
66071,note_on,10,0,9,,,,,,,,,13,,,,53,89
66073,note_on,10,0,10,,,,,,,,,14,,,,41,73
66086,note_on,20,0,8,,,,,,,,,12,,,,56,0
66091,note_on,20,0,9,,,,,,,,,13,,,,53,0
66093,note_on,20,0,10,,,,,,,,,14,,,,41,0
66096,note_on,10,0,8,,,,,,,,,12,,,,56,90
66101,note_on,10,0,9,,,,,,,,,13,,,,53,81
66103,note_on,10,0,10,,,,,,,,,14,,,,41,65
66116,note_on,20,0,8,,,,,,,,,12,,,,56,0
66120,set_tempo,120,1,0,,,,,,382166,,,,,,,,
66121,note_on,20,0,9,,,,,,,,,13,,,,53,0
66123,note_on,20,0,10,,,,,,,,,14,,,,41,0
66126,note_on,10,0,8,,,,,,,,,12,,,,56,98
66131,note_on,10,0,9,,,,,,,,,13,,,,53,89
66133,note_on,10,0,10,,,,,,,,,14,,,,41,73
66146,note_on,20,0,8,,,,,,,,,12,,,,56,0
66151,note_on,20,0,9,,,,,,,,,13,,,,53,0
66153,note_on,20,0,10,,,,,,,,,14,,,,41,0
66156,note_on,10,0,8,,,,,,,,,12,,,,56,90
66161,note_on,10,0,9,,,,,,,,,13,,,,53,81
66163,note_on,10,0,10,,,,,,,,,14,,,,41,65
66176,note_on,20,0,8,,,,,,,,,12,,,,56,0
66181,note_on,20,0,9,,,,,,,,,13,,,,53,0
66183,note_on,20,0,10,,,,,,,,,14,,,,41,0
66186,note_on,10,0,8,,,,,,,,,12,,,,56,98
66191,note_on,10,0,9,,,,,,,,,13,,,,53,89
66193,note_on,10,0,10,,,,,,,,,14,,,,41,73
66206,note_on,20,0,8,,,,,,,,,12,,,,56,0
66211,note_on,20,0,9,,,,,,,,,13,,,,53,0
66213,note_on,20,0,10,,,,,,,,,14,,,,41,0
66216,note_on,10,0,8,,,,,,,,,12,,,,56,90
66221,note_on,10,0,9,,,,,,,,,13,,,,53,81
66223,note_on,10,0,10,,,,,,,,,14,,,,41,65
66230,note_on,230,0,6,,,,,,,,,10,,,,73,0
66233,note_on,230,0,7,,,,,,,,,11,,,,61,0
66233,note_on,230,0,1,,,,,,,,,0,,,,85,0
66234,note_on,230,0,4,,,,,,,,,4,,,,65,0
66235,note_on,230,0,2,,,,,,,,,1,,,,73,0
66236,note_on,20,0,8,,,,,,,,,12,,,,56,0
66236,note_on,230,0,5,,,,,,,,,5,,,,53,0
66240,note_on,10,0,6,,,,,,,,,10,,,,77,100
66240,set_tempo,120,1,0,,,,,,355030,,,,,,,,
66241,note_on,20,0,9,,,,,,,,,13,,,,53,0
66242,note_on,230,0,3,,,,,,,,,3,,,,56,0
66242,note_on,0,0,3,,,,,,,,,3,,,,53,0
66243,note_on,10,0,7,,,,,,,,,11,,,,65,100
66243,note_on,10,0,1,,,,,,,,,0,,,,89,82
66243,note_on,20,0,10,,,,,,,,,14,,,,41,0
66244,note_on,10,0,4,,,,,,,,,4,,,,65,86
66245,note_on,10,0,2,,,,,,,,,1,,,,77,81
66246,note_on,10,0,8,,,,,,,,,12,,,,56,98
66246,note_on,10,0,5,,,,,,,,,5,,,,53,86
66251,note_on,10,0,9,,,,,,,,,13,,,,53,89
66252,note_on,0,0,3,,,,,,,,,3,,,,53,81
66252,note_on,10,0,3,,,,,,,,,3,,,,56,81
66253,note_on,10,0,10,,,,,,,,,14,,,,41,73
66266,note_on,20,0,8,,,,,,,,,12,,,,56,0
66271,note_on,20,0,9,,,,,,,,,13,,,,53,0
66273,note_on,20,0,10,,,,,,,,,14,,,,41,0
66276,note_on,10,0,8,,,,,,,,,12,,,,56,90
66281,note_on,10,0,9,,,,,,,,,13,,,,53,81
66283,note_on,10,0,10,,,,,,,,,14,,,,41,65
66296,note_on,20,0,8,,,,,,,,,12,,,,56,0
66301,note_on,20,0,9,,,,,,,,,13,,,,53,0
66303,note_on,20,0,10,,,,,,,,,14,,,,41,0
66306,note_on,10,0,8,,,,,,,,,12,,,,56,98
66311,note_on,10,0,9,,,,,,,,,13,,,,53,89
66313,note_on,10,0,10,,,,,,,,,14,,,,41,73
66326,note_on,20,0,8,,,,,,,,,12,,,,56,0
66331,note_on,20,0,9,,,,,,,,,13,,,,53,0
66333,note_on,20,0,10,,,,,,,,,14,,,,41,0
66336,note_on,10,0,8,,,,,,,,,12,,,,56,90
66340,note_on,100,0,6,,,,,,,,,10,,,,77,0
66341,note_on,10,0,9,,,,,,,,,13,,,,53,81
66343,note_on,10,0,10,,,,,,,,,14,,,,41,65
66343,note_on,100,0,1,,,,,,,,,0,,,,89,0
66343,note_on,100,0,7,,,,,,,,,11,,,,65,0
66345,note_on,100,0,2,,,,,,,,,1,,,,77,0
66356,note_on,20,0,8,,,,,,,,,12,,,,56,0
66360,note_on,20,0,6,,,,,,,,,10,,,,80,100
66360,set_tempo,120,1,0,,,,,,382166,,,,,,,,
66361,note_on,20,0,9,,,,,,,,,13,,,,53,0
66363,note_on,20,0,7,,,,,,,,,11,,,,68,100
66363,note_on,20,0,1,,,,,,,,,0,,,,92,82
66363,note_on,20,0,10,,,,,,,,,14,,,,41,0
66365,note_on,20,0,2,,,,,,,,,1,,,,80,81
66366,note_on,10,0,8,,,,,,,,,12,,,,56,98
66371,note_on,10,0,9,,,,,,,,,13,,,,53,89
66373,note_on,10,0,10,,,,,,,,,14,,,,41,73
66386,note_on,20,0,8,,,,,,,,,12,,,,56,0
66391,note_on,20,0,9,,,,,,,,,13,,,,53,0
66393,note_on,20,0,10,,,,,,,,,14,,,,41,0
66396,note_on,10,0,8,,,,,,,,,12,,,,56,90
66401,note_on,10,0,9,,,,,,,,,13,,,,53,81
66403,note_on,10,0,10,,,,,,,,,14,,,,41,65
66416,note_on,20,0,8,,,,,,,,,12,,,,56,0
66421,note_on,20,0,9,,,,,,,,,13,,,,53,0
66423,note_on,20,0,10,,,,,,,,,14,,,,41,0
66426,note_on,10,0,8,,,,,,,,,12,,,,56,98
66431,note_on,10,0,9,,,,,,,,,13,,,,53,89
66433,note_on,10,0,10,,,,,,,,,14,,,,41,73
66446,note_on,20,0,8,,,,,,,,,12,,,,56,0
66451,note_on,20,0,9,,,,,,,,,13,,,,53,0
66453,note_on,20,0,10,,,,,,,,,14,,,,41,0
66456,note_on,10,0,8,,,,,,,,,12,,,,56,90
66460,note_on,100,0,6,,,,,,,,,10,,,,80,0
66461,note_on,10,0,9,,,,,,,,,13,,,,53,81
66463,note_on,10,0,10,,,,,,,,,14,,,,41,65
66463,note_on,100,0,7,,,,,,,,,11,,,,68,0
66463,note_on,100,0,1,,,,,,,,,0,,,,92,0
66465,note_on,100,0,2,,,,,,,,,1,,,,80,0
66474,note_on,230,0,4,,,,,,,,,4,,,,65,0
66476,note_on,20,0,8,,,,,,,,,12,,,,56,0
66476,note_on,230,0,5,,,,,,,,,5,,,,53,0
66480,set_tempo,120,1,0,,,,,,355030,,,,,,,,
66480,note_on,20,0,6,,,,,,,,,10,,,,71,100
66481,note_on,20,0,9,,,,,,,,,13,,,,53,0
66482,note_on,0,0,3,,,,,,,,,3,,,,56,0
66482,note_on,230,0,3,,,,,,,,,3,,,,53,0
66483,note_on,20,0,1,,,,,,,,,0,,,,83,82
66483,note_on,20,0,7,,,,,,,,,11,,,,59,100
66483,note_on,20,0,10,,,,,,,,,14,,,,41,0
66484,note_on,10,0,4,,,,,,,,,4,,,,62,86
66485,note_on,20,0,2,,,,,,,,,1,,,,79,81
66485,note_on,0,0,2,,,,,,,,,1,,,,71,81
66486,note_on,10,0,5,,,,,,,,,5,,,,62,86
66486,note_on,10,0,8,,,,,,,,,12,,,,55,98
66491,note_on,10,0,9,,,,,,,,,13,,,,53,89
66492,note_on,0,0,3,,,,,,,,,3,,,,53,81
66492,note_on,10,0,3,,,,,,,,,3,,,,55,81
66493,note_on,10,0,10,,,,,,,,,14,,,,41,73
66502,note_on,22,0,6,,,,,,,,,10,,,,71,0
66505,note_on,22,0,7,,,,,,,,,11,,,,59,0
66506,note_on,20,0,8,,,,,,,,,12,,,,55,0
66510,note_on,8,0,6,,,,,,,,,10,,,,72,100
66511,note_on,20,0,9,,,,,,,,,13,,,,53,0
66513,note_on,8,0,7,,,,,,,,,11,,,,60,100
66513,note_on,20,0,10,,,,,,,,,14,,,,41,0
66516,note_on,10,0,8,,,,,,,,,12,,,,55,90
66521,note_on,10,0,9,,,,,,,,,13,,,,53,81
66523,note_on,10,0,10,,,,,,,,,14,,,,41,65
66532,note_on,22,0,6,,,,,,,,,10,,,,72,0
66535,note_on,22,0,7,,,,,,,,,11,,,,60,0
66536,note_on,20,0,8,,,,,,,,,12,,,,55,0
66540,note_on,8,0,6,,,,,,,,,10,,,,74,100
66541,note_on,20,0,9,,,,,,,,,13,,,,53,0
66543,note_on,20,0,10,,,,,,,,,14,,,,41,0
66543,note_on,8,0,7,,,,,,,,,11,,,,62,100
66546,note_on,10,0,8,,,,,,,,,12,,,,55,98
66551,note_on,10,0,9,,,,,,,,,13,,,,53,89
66553,note_on,10,0,10,,,,,,,,,14,,,,41,73
66562,note_on,22,0,6,,,,,,,,,10,,,,74,0
66565,note_on,22,0,7,,,,,,,,,11,,,,62,0
66566,note_on,20,0,8,,,,,,,,,12,,,,55,0
66570,note_on,8,0,6,,,,,,,,,10,,,,75,100
66571,note_on,20,0,9,,,,,,,,,13,,,,53,0
66573,note_on,8,0,7,,,,,,,,,11,,,,63,100
66573,note_on,20,0,10,,,,,,,,,14,,,,41,0
66576,note_on,10,0,8,,,,,,,,,12,,,,55,90
66581,note_on,10,0,9,,,,,,,,,13,,,,53,81
66583,note_on,10,0,10,,,,,,,,,14,,,,41,65
66592,note_on,22,0,6,,,,,,,,,10,,,,75,0
66595,note_on,22,0,7,,,,,,,,,11,,,,63,0
66596,note_on,20,0,8,,,,,,,,,12,,,,55,0
66600,set_tempo,120,1,0,,,,,,382166,,,,,,,,
66600,note_on,8,0,6,,,,,,,,,10,,,,77,100
66601,note_on,20,0,9,,,,,,,,,13,,,,53,0
66603,note_on,8,0,7,,,,,,,,,11,,,,65,100
66603,note_on,20,0,10,,,,,,,,,14,,,,41,0
66606,note_on,10,0,8,,,,,,,,,12,,,,55,98
66611,note_on,10,0,9,,,,,,,,,13,,,,53,89
66613,note_on,10,0,10,,,,,,,,,14,,,,41,73
66622,note_on,22,0,6,,,,,,,,,10,,,,77,0
66625,note_on,22,0,7,,,,,,,,,11,,,,65,0
66626,note_on,20,0,8,,,,,,,,,12,,,,55,0
66630,note_on,8,0,6,,,,,,,,,10,,,,79,100
66631,note_on,20,0,9,,,,,,,,,13,,,,53,0
66633,note_on,8,0,7,,,,,,,,,11,,,,67,100
66633,note_on,20,0,10,,,,,,,,,14,,,,41,0
66636,note_on,10,0,8,,,,,,,,,12,,,,55,90
66641,note_on,10,0,9,,,,,,,,,13,,,,53,81
66643,note_on,10,0,10,,,,,,,,,14,,,,41,65
66652,note_on,22,0,6,,,,,,,,,10,,,,79,0
66655,note_on,22,0,7,,,,,,,,,11,,,,67,0
66656,note_on,20,0,8,,,,,,,,,12,,,,55,0
66660,note_on,8,0,6,,,,,,,,,10,,,,80,100
66661,note_on,20,0,9,,,,,,,,,13,,,,53,0
66663,note_on,20,0,10,,,,,,,,,14,,,,41,0
66663,note_on,8,0,7,,,,,,,,,11,,,,68,100
66666,note_on,10,0,8,,,,,,,,,12,,,,55,98
66671,note_on,10,0,9,,,,,,,,,13,,,,53,89
66673,note_on,10,0,10,,,,,,,,,14,,,,41,73
66682,note_on,22,0,6,,,,,,,,,10,,,,80,0
66685,note_on,22,0,7,,,,,,,,,11,,,,68,0
66686,note_on,20,0,8,,,,,,,,,12,,,,55,0
66690,note_on,8,0,6,,,,,,,,,10,,,,83,100
66691,note_on,20,0,9,,,,,,,,,13,,,,53,0
66693,note_on,20,0,10,,,,,,,,,14,,,,41,0
66693,note_on,8,0,7,,,,,,,,,11,,,,71,100
66696,note_on,10,0,8,,,,,,,,,12,,,,55,90
66701,note_on,10,0,9,,,,,,,,,13,,,,53,81
66703,note_on,10,0,10,,,,,,,,,14,,,,41,65
66712,note_on,22,0,6,,,,,,,,,10,,,,83,0
66713,note_on,230,0,1,,,,,,,,,0,,,,83,0
66714,note_on,230,0,4,,,,,,,,,4,,,,62,0
66715,note_on,230,0,2,,,,,,,,,1,,,,71,0
66715,note_on,0,0,2,,,,,,,,,1,,,,79,0
66715,note_on,22,0,7,,,,,,,,,11,,,,71,0
66716,note_on,230,0,5,,,,,,,,,5,,,,62,0
66716,note_on,20,0,8,,,,,,,,,12,,,,55,0
66720,note_on,8,0,6,,,,,,,,,10,,,,84,100
66720,set_tempo,120,1,0,,,,,,355030,,,,,,,,
66721,note_on,20,0,9,,,,,,,,,13,,,,53,0
66722,note_on,230,0,3,,,,,,,,,3,,,,53,0
66722,note_on,0,0,3,,,,,,,,,3,,,,55,0
66723,note_on,20,0,10,,,,,,,,,14,,,,41,0
66723,note_on,8,0,7,,,,,,,,,11,,,,72,100
66723,note_on,10,0,1,,,,,,,,,0,,,,84,82
66724,note_on,10,0,4,,,,,,,,,4,,,,60,86
66725,note_on,10,0,2,,,,,,,,,1,,,,72,81
66725,note_on,0,0,2,,,,,,,,,1,,,,79,81
66726,note_on,10,0,8,,,,,,,,,12,,,,55,98
66726,note_on,10,0,5,,,,,,,,,5,,,,60,86
66731,note_on,10,0,9,,,,,,,,,13,,,,51,89
66732,note_on,10,0,3,,,,,,,,,3,,,,51,81
66732,note_on,0,0,3,,,,,,,,,3,,,,55,81
66733,note_on,10,0,10,,,,,,,,,14,,,,39,73
66746,note_on,20,0,8,,,,,,,,,12,,,,55,0
66751,note_on,20,0,9,,,,,,,,,13,,,,51,0
66753,note_on,20,0,10,,,,,,,,,14,,,,39,0
66756,note_on,10,0,8,,,,,,,,,12,,,,55,90
66761,note_on,10,0,9,,,,,,,,,13,,,,53,89
66763,note_on,10,0,10,,,,,,,,,14,,,,41,73
66776,note_on,20,0,8,,,,,,,,,12,,,,55,0
66781,note_on,20,0,9,,,,,,,,,13,,,,53,0
66783,note_on,20,0,10,,,,,,,,,14,,,,41,0
66786,note_on,10,0,8,,,,,,,,,12,,,,55,98
66791,note_on,10,0,9,,,,,,,,,13,,,,55,89
66793,note_on,10,0,10,,,,,,,,,14,,,,43,73
66806,note_on,20,0,8,,,,,,,,,12,,,,55,0
66811,note_on,20,0,9,,,,,,,,,13,,,,55,0
66813,note_on,20,0,10,,,,,,,,,14,,,,43,0
66816,note_on,10,0,8,,,,,,,,,12,,,,55,90
66821,note_on,10,0,9,,,,,,,,,13,,,,57,89
66823,note_on,10,0,10,,,,,,,,,14,,,,45,73
66836,note_on,20,0,8,,,,,,,,,12,,,,55,0
66840,set_tempo,120,1,0,,,,,,382166,,,,,,,,
66841,note_on,20,0,9,,,,,,,,,13,,,,57,0
66843,note_on,20,0,10,,,,,,,,,14,,,,45,0
66846,note_on,10,0,8,,,,,,,,,12,,,,55,98
66851,note_on,10,0,9,,,,,,,,,13,,,,59,89
66853,note_on,10,0,10,,,,,,,,,14,,,,47,73
66866,note_on,20,0,8,,,,,,,,,12,,,,55,0
66871,note_on,20,0,9,,,,,,,,,13,,,,59,0
66873,note_on,20,0,10,,,,,,,,,14,,,,47,0
66876,note_on,10,0,8,,,,,,,,,12,,,,55,90
66881,note_on,10,0,9,,,,,,,,,13,,,,60,89
66883,note_on,10,0,10,,,,,,,,,14,,,,48,73
66896,note_on,20,0,8,,,,,,,,,12,,,,55,0
66901,note_on,20,0,9,,,,,,,,,13,,,,60,0
66903,note_on,20,0,10,,,,,,,,,14,,,,48,0
66906,note_on,10,0,8,,,,,,,,,12,,,,55,98
66911,note_on,10,0,9,,,,,,,,,13,,,,62,89
66913,note_on,10,0,10,,,,,,,,,14,,,,50,73
66926,note_on,20,0,8,,,,,,,,,12,,,,55,0
66931,note_on,20,0,9,,,,,,,,,13,,,,62,0
66933,note_on,20,0,10,,,,,,,,,14,,,,50,0
66936,note_on,10,0,8,,,,,,,,,12,,,,55,90
66941,note_on,10,0,9,,,,,,,,,13,,,,63,89
66943,note_on,10,0,10,,,,,,,,,14,,,,51,73
66950,note_on,230,0,6,,,,,,,,,10,,,,84,0
66953,note_on,230,0,7,,,,,,,,,11,,,,72,0
66953,note_on,230,0,1,,,,,,,,,0,,,,84,0
66954,note_on,230,0,4,,,,,,,,,4,,,,60,0
66955,note_on,230,0,2,,,,,,,,,1,,,,79,0
66955,note_on,0,0,2,,,,,,,,,1,,,,72,0
66956,note_on,230,0,5,,,,,,,,,5,,,,60,0
66956,note_on,20,0,8,,,,,,,,,12,,,,55,0
66960,set_tempo,120,1,0,,,,,,355030,,,,,,,,
66960,note_on,10,0,6,,,,,,,,,10,,,,69,100
66961,note_on,20,0,9,,,,,,,,,13,,,,63,0
66962,note_on,230,0,3,,,,,,,,,3,,,,55,0
66962,note_on,0,0,3,,,,,,,,,3,,,,51,0
66963,note_on,10,0,7,,,,,,,,,11,,,,57,100
66963,note_on,20,0,10,,,,,,,,,14,,,,51,0
66963,note_on,10,0,1,,,,,,,,,0,,,,81,82
66964,note_on,10,0,4,,,,,,,,,4,,,,60,86
66965,note_on,0,0,2,,,,,,,,,1,,,,69,81
66965,note_on,10,0,2,,,,,,,,,1,,,,77,81
66966,note_on,10,0,5,,,,,,,,,5,,,,53,86
66966,note_on,10,0,8,,,,,,,,,12,,,,53,98
66971,note_on,10,0,9,,,,,,,,,13,,,,51,89
66972,note_on,10,0,3,,,,,,,,,3,,,,51,81
66972,note_on,0,0,3,,,,,,,,,3,,,,53,81
66973,note_on,10,0,10,,,,,,,,,14,,,,39,73
66982,note_on,22,0,6,,,,,,,,,10,,,,69,0
66985,note_on,22,0,7,,,,,,,,,11,,,,57,0
66986,note_on,20,0,8,,,,,,,,,12,,,,53,0
66990,note_on,8,0,6,,,,,,,,,10,,,,70,100
66991,note_on,20,0,9,,,,,,,,,13,,,,51,0
66993,note_on,20,0,10,,,,,,,,,14,,,,39,0
66993,note_on,8,0,7,,,,,,,,,11,,,,58,100
66996,note_on,10,0,8,,,,,,,,,12,,,,53,90
67001,note_on,10,0,9,,,,,,,,,13,,,,51,81
67003,note_on,10,0,10,,,,,,,,,14,,,,39,65
67012,note_on,22,0,6,,,,,,,,,10,,,,70,0
67015,note_on,22,0,7,,,,,,,,,11,,,,58,0
67016,note_on,20,0,8,,,,,,,,,12,,,,53,0
67020,note_on,8,0,6,,,,,,,,,10,,,,72,100
67021,note_on,20,0,9,,,,,,,,,13,,,,51,0
67023,note_on,8,0,7,,,,,,,,,11,,,,60,100
67023,note_on,20,0,10,,,,,,,,,14,,,,39,0
67026,note_on,10,0,8,,,,,,,,,12,,,,53,98
67031,note_on,10,0,9,,,,,,,,,13,,,,51,89
67033,note_on,10,0,10,,,,,,,,,14,,,,39,73
67042,note_on,22,0,6,,,,,,,,,10,,,,72,0
67045,note_on,22,0,7,,,,,,,,,11,,,,60,0
67046,note_on,20,0,8,,,,,,,,,12,,,,53,0
67050,note_on,8,0,6,,,,,,,,,10,,,,74,100
67051,note_on,20,0,9,,,,,,,,,13,,,,51,0
67053,note_on,8,0,7,,,,,,,,,11,,,,62,100
67053,note_on,20,0,10,,,,,,,,,14,,,,39,0
67056,note_on,10,0,8,,,,,,,,,12,,,,53,90
67061,note_on,10,0,9,,,,,,,,,13,,,,51,81
67063,note_on,10,0,10,,,,,,,,,14,,,,39,65
67072,note_on,22,0,6,,,,,,,,,10,,,,74,0
67075,note_on,22,0,7,,,,,,,,,11,,,,62,0
67076,note_on,20,0,8,,,,,,,,,12,,,,53,0
67080,note_on,8,0,6,,,,,,,,,10,,,,75,100
67080,set_tempo,120,1,0,,,,,,382166,,,,,,,,
67081,note_on,20,0,9,,,,,,,,,13,,,,51,0
67083,note_on,8,0,7,,,,,,,,,11,,,,63,100
67083,note_on,20,0,10,,,,,,,,,14,,,,39,0
67086,note_on,10,0,8,,,,,,,,,12,,,,53,98
67091,note_on,10,0,9,,,,,,,,,13,,,,51,89
67093,note_on,10,0,10,,,,,,,,,14,,,,39,73
67102,note_on,22,0,6,,,,,,,,,10,,,,75,0
67105,note_on,22,0,7,,,,,,,,,11,,,,63,0
67106,note_on,20,0,8,,,,,,,,,12,,,,53,0
67110,note_on,8,0,6,,,,,,,,,10,,,,77,100
67111,note_on,20,0,9,,,,,,,,,13,,,,51,0
67113,note_on,8,0,7,,,,,,,,,11,,,,65,100
67113,note_on,20,0,10,,,,,,,,,14,,,,39,0
67116,note_on,10,0,8,,,,,,,,,12,,,,53,90
67121,note_on,10,0,9,,,,,,,,,13,,,,51,81
67123,note_on,10,0,10,,,,,,,,,14,,,,39,65
67132,note_on,22,0,6,,,,,,,,,10,,,,77,0
67135,note_on,22,0,7,,,,,,,,,11,,,,65,0
67136,note_on,20,0,8,,,,,,,,,12,,,,53,0
67140,note_on,8,0,6,,,,,,,,,10,,,,79,100
67141,note_on,20,0,9,,,,,,,,,13,,,,51,0
67143,note_on,20,0,10,,,,,,,,,14,,,,39,0
67143,note_on,8,0,7,,,,,,,,,11,,,,67,100
67146,note_on,10,0,8,,,,,,,,,12,,,,53,98
67151,note_on,10,0,9,,,,,,,,,13,,,,51,89
67153,note_on,10,0,10,,,,,,,,,14,,,,39,73
67162,note_on,22,0,6,,,,,,,,,10,,,,79,0
67165,note_on,22,0,7,,,,,,,,,11,,,,67,0
67166,note_on,20,0,8,,,,,,,,,12,,,,53,0
67170,note_on,8,0,6,,,,,,,,,10,,,,81,100
67171,note_on,20,0,9,,,,,,,,,13,,,,51,0
67173,note_on,20,0,10,,,,,,,,,14,,,,39,0
67173,note_on,8,0,7,,,,,,,,,11,,,,69,100
67176,note_on,10,0,8,,,,,,,,,12,,,,53,90
67181,note_on,10,0,9,,,,,,,,,13,,,,51,81
67183,note_on,10,0,10,,,,,,,,,14,,,,39,65
67192,note_on,22,0,6,,,,,,,,,10,,,,81,0
67193,note_on,230,0,1,,,,,,,,,0,,,,81,0
67194,note_on,230,0,4,,,,,,,,,4,,,,60,0
67195,note_on,0,0,2,,,,,,,,,1,,,,77,0
67195,note_on,230,0,2,,,,,,,,,1,,,,69,0
67195,note_on,22,0,7,,,,,,,,,11,,,,69,0
67196,note_on,20,0,8,,,,,,,,,12,,,,53,0
67196,note_on,230,0,5,,,,,,,,,5,,,,53,0
67200,note_on,8,0,6,,,,,,,,,10,,,,82,100
67200,set_tempo,120,1,0,,,,,,355030,,,,,,,,
67201,note_on,20,0,9,,,,,,,,,13,,,,51,0
67202,note_on,0,0,3,,,,,,,,,3,,,,51,0
67202,note_on,230,0,3,,,,,,,,,3,,,,53,0
67203,note_on,10,0,1,,,,,,,,,0,,,,82,82
67203,note_on,8,0,7,,,,,,,,,11,,,,70,100
67203,note_on,20,0,10,,,,,,,,,14,,,,39,0
67204,note_on,10,0,4,,,,,,,,,4,,,,58,86
67205,note_on,10,0,2,,,,,,,,,1,,,,77,81
67205,note_on,0,0,2,,,,,,,,,1,,,,70,81
67206,note_on,10,0,8,,,,,,,,,12,,,,53,98
67206,note_on,10,0,5,,,,,,,,,5,,,,58,86
67211,note_on,10,0,9,,,,,,,,,13,,,,49,89
67212,note_on,0,0,3,,,,,,,,,3,,,,49,81
67212,note_on,10,0,3,,,,,,,,,3,,,,53,81
67213,note_on,10,0,10,,,,,,,,,14,,,,37,73
67226,note_on,20,0,8,,,,,,,,,12,,,,53,0
67231,note_on,20,0,9,,,,,,,,,13,,,,49,0
67233,note_on,20,0,10,,,,,,,,,14,,,,37,0
67236,note_on,10,0,8,,,,,,,,,12,,,,53,90
67241,note_on,10,0,9,,,,,,,,,13,,,,51,89
67243,note_on,10,0,10,,,,,,,,,14,,,,39,73
67256,note_on,20,0,8,,,,,,,,,12,,,,53,0
67261,note_on,20,0,9,,,,,,,,,13,,,,51,0
67263,note_on,20,0,10,,,,,,,,,14,,,,39,0
67266,note_on,10,0,8,,,,,,,,,12,,,,53,98
67271,note_on,10,0,9,,,,,,,,,13,,,,53,89
67273,note_on,10,0,10,,,,,,,,,14,,,,41,73
67286,note_on,20,0,8,,,,,,,,,12,,,,53,0
67291,note_on,20,0,9,,,,,,,,,13,,,,53,0
67293,note_on,20,0,10,,,,,,,,,14,,,,41,0
67296,note_on,10,0,8,,,,,,,,,12,,,,53,90
67301,note_on,10,0,9,,,,,,,,,13,,,,55,89
67303,note_on,10,0,10,,,,,,,,,14,,,,43,73
67316,note_on,20,0,8,,,,,,,,,12,,,,53,0
67320,set_tempo,120,1,0,,,,,,382166,,,,,,,,
67321,note_on,20,0,9,,,,,,,,,13,,,,55,0
67323,note_on,20,0,10,,,,,,,,,14,,,,43,0
67326,note_on,10,0,8,,,,,,,,,12,,,,53,98
67331,note_on,10,0,9,,,,,,,,,13,,,,57,89
67333,note_on,10,0,10,,,,,,,,,14,,,,45,73
67346,note_on,20,0,8,,,,,,,,,12,,,,53,0
67351,note_on,20,0,9,,,,,,,,,13,,,,57,0
67353,note_on,20,0,10,,,,,,,,,14,,,,45,0
67356,note_on,10,0,8,,,,,,,,,12,,,,53,90
67361,note_on,10,0,9,,,,,,,,,13,,,,58,89
67363,note_on,10,0,10,,,,,,,,,14,,,,46,73
67376,note_on,20,0,8,,,,,,,,,12,,,,53,0
67381,note_on,20,0,9,,,,,,,,,13,,,,58,0
67383,note_on,20,0,10,,,,,,,,,14,,,,46,0
67386,note_on,10,0,8,,,,,,,,,12,,,,53,98
67391,note_on,10,0,9,,,,,,,,,13,,,,60,89
67393,note_on,10,0,10,,,,,,,,,14,,,,48,73
67406,note_on,20,0,8,,,,,,,,,12,,,,53,0
67411,note_on,20,0,9,,,,,,,,,13,,,,60,0
67413,note_on,20,0,10,,,,,,,,,14,,,,48,0
67416,note_on,10,0,8,,,,,,,,,12,,,,53,90
67421,note_on,10,0,9,,,,,,,,,13,,,,61,89
67423,note_on,10,0,10,,,,,,,,,14,,,,49,73
67430,note_on,230,0,6,,,,,,,,,10,,,,82,0
67433,note_on,230,0,7,,,,,,,,,11,,,,70,0
67433,note_on,230,0,1,,,,,,,,,0,,,,82,0
67434,note_on,230,0,4,,,,,,,,,4,,,,58,0
67435,note_on,0,0,2,,,,,,,,,1,,,,77,0
67435,note_on,230,0,2,,,,,,,,,1,,,,70,0
67436,note_on,20,0,8,,,,,,,,,12,,,,53,0
67436,note_on,230,0,5,,,,,,,,,5,,,,58,0
67440,set_tempo,120,1,0,,,,,,355030,,,,,,,,
67440,note_on,10,0,6,,,,,,,,,10,,,,79,100
67441,note_on,20,0,9,,,,,,,,,13,,,,61,0
67442,note_on,0,0,3,,,,,,,,,3,,,,53,0
67442,note_on,230,0,3,,,,,,,,,3,,,,49,0
67443,note_on,20,0,10,,,,,,,,,14,,,,49,0
67443,note_on,10,0,7,,,,,,,,,11,,,,77,100
67443,note_on,10,0,1,,,,,,,,,0,,,,79,95
67444,note_on,10,0,4,,,,,,,,,4,,,,65,99
67445,note_on,0,0,2,,,,,,,,,1,,,,77,94
67445,note_on,10,0,2,,,,,,,,,1,,,,67,94
67446,note_on,10,0,5,,,,,,,,,5,,,,53,99
67446,note_on,10,0,8,,,,,,,,,12,,,,58,98
67451,note_on,10,0,9,,,,,,,,,13,,,,46,89
67452,note_on,10,0,3,,,,,,,,,3,,,,46,81
67453,note_on,10,0,10,,,,,,,,,14,,,,34,73
67490,note_on,50,0,6,,,,,,,,,10,,,,79,0
67493,note_on,50,0,7,,,,,,,,,11,,,,77,0
67500,note_on,10,0,6,,,,,,,,,10,,,,79,100
67503,note_on,10,0,7,,,,,,,,,11,,,,77,100
67556,note_on,110,0,8,,,,,,,,,12,,,,58,0
67560,set_tempo,120,1,0,,,,,,382166,,,,,,,,
67561,note_on,110,0,9,,,,,,,,,13,,,,46,0
67562,note_on,110,0,3,,,,,,,,,3,,,,46,0
67563,note_on,110,0,10,,,,,,,,,14,,,,34,0
67566,note_on,10,0,8,,,,,,,,,12,,,,60,98
67571,note_on,10,0,9,,,,,,,,,13,,,,48,89
67572,note_on,10,0,3,,,,,,,,,3,,,,48,81
67573,note_on,10,0,10,,,,,,,,,14,,,,36,73
67610,note_on,110,0,6,,,,,,,,,10,,,,79,0
67613,note_on,110,0,7,,,,,,,,,11,,,,77,0
67620,note_on,10,0,6,,,,,,,,,10,,,,79,100
67623,note_on,10,0,7,,,,,,,,,11,,,,77,100
67676,note_on,110,0,8,,,,,,,,,12,,,,60,0
67680,set_tempo,120,1,0,,,,,,355030,,,,,,,,
67681,note_on,110,0,9,,,,,,,,,13,,,,48,0
67682,note_on,110,0,3,,,,,,,,,3,,,,48,0
67683,note_on,110,0,10,,,,,,,,,14,,,,36,0
67686,note_on,10,0,8,,,,,,,,,12,,,,61,98
67691,note_on,10,0,9,,,,,,,,,13,,,,49,89
67692,note_on,10,0,3,,,,,,,,,3,,,,49,81
67693,note_on,10,0,10,,,,,,,,,14,,,,37,73
67730,note_on,110,0,6,,,,,,,,,10,,,,79,0
67733,note_on,110,0,7,,,,,,,,,11,,,,77,0
67740,note_on,10,0,6,,,,,,,,,10,,,,79,100
67743,note_on,10,0,7,,,,,,,,,11,,,,77,100
67796,note_on,110,0,8,,,,,,,,,12,,,,61,0
67800,set_tempo,120,1,0,,,,,,382166,,,,,,,,
67801,note_on,110,0,9,,,,,,,,,13,,,,49,0
67802,note_on,110,0,3,,,,,,,,,3,,,,49,0
67803,note_on,110,0,10,,,,,,,,,14,,,,37,0
67806,note_on,10,0,8,,,,,,,,,12,,,,60,98
67811,note_on,10,0,9,,,,,,,,,13,,,,48,89
67812,note_on,10,0,3,,,,,,,,,3,,,,48,81
67813,note_on,10,0,10,,,,,,,,,14,,,,36,73
67850,note_on,110,0,6,,,,,,,,,10,,,,79,0
67853,note_on,110,0,7,,,,,,,,,11,,,,77,0
67860,note_on,10,0,6,,,,,,,,,10,,,,79,100
67863,note_on,10,0,7,,,,,,,,,11,,,,77,100
67913,note_on,470,0,1,,,,,,,,,0,,,,79,0
67914,note_on,470,0,4,,,,,,,,,4,,,,65,0
67915,note_on,470,0,2,,,,,,,,,1,,,,77,0
67915,note_on,0,0,2,,,,,,,,,1,,,,67,0
67916,note_on,110,0,8,,,,,,,,,12,,,,60,0
67916,note_on,470,0,5,,,,,,,,,5,,,,53,0
67920,set_tempo,120,1,0,,,,,,355030,,,,,,,,
67921,note_on,110,0,9,,,,,,,,,13,,,,48,0
67922,note_on,110,0,3,,,,,,,,,3,,,,48,0
67923,note_on,110,0,10,,,,,,,,,14,,,,36,0
67923,note_on,10,0,1,,,,,,,,,0,,,,79,95
67924,note_on,10,0,4,,,,,,,,,4,,,,65,99
67925,note_on,0,0,2,,,,,,,,,1,,,,77,94
67925,note_on,10,0,2,,,,,,,,,1,,,,67,94
67926,note_on,10,0,8,,,,,,,,,12,,,,58,98
67926,note_on,10,0,5,,,,,,,,,5,,,,53,99
67931,note_on,10,0,9,,,,,,,,,13,,,,46,89
67932,note_on,10,0,3,,,,,,,,,3,,,,46,81
67933,note_on,10,0,10,,,,,,,,,14,,,,34,73
67970,note_on,110,0,6,,,,,,,,,10,,,,79,0
67973,note_on,110,0,7,,,,,,,,,11,,,,77,0
67976,note_on,50,0,8,,,,,,,,,12,,,,58,0
67980,note_on,10,0,6,,,,,,,,,10,,,,79,100
67981,note_on,50,0,9,,,,,,,,,13,,,,46,0
67982,note_on,50,0,3,,,,,,,,,3,,,,46,0
67983,note_on,50,0,10,,,,,,,,,14,,,,34,0
67983,note_on,10,0,7,,,,,,,,,11,,,,77,100
67986,note_on,10,0,8,,,,,,,,,12,,,,58,98
67991,note_on,10,0,9,,,,,,,,,13,,,,46,89
67992,note_on,10,0,3,,,,,,,,,3,,,,46,81
67993,note_on,10,0,10,,,,,,,,,14,,,,34,73
68036,note_on,50,0,8,,,,,,,,,12,,,,58,0
68040,set_tempo,120,1,0,,,,,,382166,,,,,,,,
68041,note_on,50,0,9,,,,,,,,,13,,,,46,0
68042,note_on,50,0,3,,,,,,,,,3,,,,46,0
68043,note_on,50,0,10,,,,,,,,,14,,,,34,0
68046,note_on,10,0,8,,,,,,,,,12,,,,60,98
68051,note_on,10,0,9,,,,,,,,,13,,,,48,89
68052,note_on,10,0,3,,,,,,,,,3,,,,48,81
68053,note_on,10,0,10,,,,,,,,,14,,,,36,73
68090,note_on,110,0,6,,,,,,,,,10,,,,79,0
68093,note_on,110,0,7,,,,,,,,,11,,,,77,0
68096,note_on,50,0,8,,,,,,,,,12,,,,60,0
68100,note_on,10,0,6,,,,,,,,,10,,,,79,100
68101,note_on,50,0,9,,,,,,,,,13,,,,48,0
68102,note_on,50,0,3,,,,,,,,,3,,,,48,0
68103,note_on,10,0,7,,,,,,,,,11,,,,77,100
68103,note_on,50,0,10,,,,,,,,,14,,,,36,0
68106,note_on,10,0,8,,,,,,,,,12,,,,60,98
68111,note_on,10,0,9,,,,,,,,,13,,,,48,89
68112,note_on,10,0,3,,,,,,,,,3,,,,48,81
68113,note_on,10,0,10,,,,,,,,,14,,,,36,73
68156,note_on,50,0,8,,,,,,,,,12,,,,60,0
68160,set_tempo,120,1,0,,,,,,355030,,,,,,,,
68161,note_on,50,0,9,,,,,,,,,13,,,,48,0
68162,note_on,50,0,3,,,,,,,,,3,,,,48,0
68163,note_on,50,0,10,,,,,,,,,14,,,,36,0
68166,note_on,10,0,8,,,,,,,,,12,,,,61,98
68171,note_on,10,0,9,,,,,,,,,13,,,,49,89
68172,note_on,10,0,3,,,,,,,,,3,,,,49,81
68173,note_on,10,0,10,,,,,,,,,14,,,,37,73
68210,note_on,110,0,6,,,,,,,,,10,,,,79,0
68213,note_on,110,0,7,,,,,,,,,11,,,,77,0
68216,note_on,50,0,8,,,,,,,,,12,,,,61,0
68220,note_on,10,0,6,,,,,,,,,10,,,,79,100
68221,note_on,50,0,9,,,,,,,,,13,,,,49,0
68222,note_on,50,0,3,,,,,,,,,3,,,,49,0
68223,note_on,50,0,10,,,,,,,,,14,,,,37,0
68223,note_on,10,0,7,,,,,,,,,11,,,,77,100
68226,note_on,10,0,8,,,,,,,,,12,,,,61,98
68231,note_on,10,0,9,,,,,,,,,13,,,,49,89
68232,note_on,10,0,3,,,,,,,,,3,,,,49,81
68233,note_on,10,0,10,,,,,,,,,14,,,,37,73
68276,note_on,50,0,8,,,,,,,,,12,,,,61,0
68280,set_tempo,120,1,0,,,,,,382166,,,,,,,,
68281,note_on,50,0,9,,,,,,,,,13,,,,49,0
68282,note_on,50,0,3,,,,,,,,,3,,,,49,0
68283,note_on,50,0,10,,,,,,,,,14,,,,37,0
68286,note_on,10,0,8,,,,,,,,,12,,,,60,98
68291,note_on,10,0,9,,,,,,,,,13,,,,48,89
68292,note_on,10,0,3,,,,,,,,,3,,,,48,81
68293,note_on,10,0,10,,,,,,,,,14,,,,36,73
68330,note_on,110,0,6,,,,,,,,,10,,,,79,0
68333,note_on,110,0,7,,,,,,,,,11,,,,77,0
68336,note_on,50,0,8,,,,,,,,,12,,,,60,0
68340,note_on,10,0,6,,,,,,,,,10,,,,79,100
68341,note_on,50,0,9,,,,,,,,,13,,,,48,0
68342,note_on,50,0,3,,,,,,,,,3,,,,48,0
68343,note_on,10,0,7,,,,,,,,,11,,,,77,100
68343,note_on,50,0,10,,,,,,,,,14,,,,36,0
68346,note_on,10,0,8,,,,,,,,,12,,,,60,98
68351,note_on,10,0,9,,,,,,,,,13,,,,48,89
68352,note_on,10,0,3,,,,,,,,,3,,,,48,81
68353,note_on,10,0,10,,,,,,,,,14,,,,36,73
68390,note_on,50,0,6,,,,,,,,,10,,,,79,0
68393,note_on,50,0,7,,,,,,,,,11,,,,77,0
68393,note_on,470,0,1,,,,,,,,,0,,,,79,0
68394,note_on,470,0,4,,,,,,,,,4,,,,65,0
68395,note_on,470,0,2,,,,,,,,,1,,,,77,0
68395,note_on,0,0,2,,,,,,,,,1,,,,67,0
68396,note_on,50,0,8,,,,,,,,,12,,,,60,0
68396,note_on,470,0,5,,,,,,,,,5,,,,53,0
68400,set_tempo,120,1,0,,,,,,355030,,,,,,,,
68400,note_on,10,0,6,,,,,,,,,10,,,,79,115
68401,note_on,50,0,9,,,,,,,,,13,,,,48,0
68402,note_on,50,0,3,,,,,,,,,3,,,,48,0
68403,note_on,10,0,1,,,,,,,,,0,,,,79,95
68403,note_on,50,0,10,,,,,,,,,14,,,,36,0
68403,note_on,10,0,7,,,,,,,,,11,,,,77,115
68404,note_on,10,0,4,,,,,,,,,4,,,,65,99
68405,note_on,10,0,2,,,,,,,,,1,,,,77,94
68405,note_on,0,0,2,,,,,,,,,1,,,,67,94
68406,note_on,10,0,8,,,,,,,,,12,,,,59,113
68406,note_on,10,0,5,,,,,,,,,5,,,,53,99
68411,note_on,10,0,9,,,,,,,,,13,,,,47,104
68412,note_on,10,0,3,,,,,,,,,3,,,,47,94
68413,note_on,10,0,10,,,,,,,,,14,,,,35,86
68420,note_on,20,0,6,,,,,,,,,10,,,,79,0
68423,note_on,20,0,7,,,,,,,,,11,,,,77,0
68426,note_on,20,0,8,,,,,,,,,12,,,,59,0
68430,note_on,10,0,6,,,,,,,,,10,,,,79,103
68431,note_on,20,0,9,,,,,,,,,13,,,,47,0
68433,note_on,20,0,10,,,,,,,,,14,,,,35,0
68433,note_on,10,0,7,,,,,,,,,11,,,,77,103
68436,note_on,10,0,8,,,,,,,,,12,,,,59,101
68441,note_on,10,0,9,,,,,,,,,13,,,,47,92
68443,note_on,10,0,10,,,,,,,,,14,,,,35,75
68450,note_on,20,0,6,,,,,,,,,10,,,,79,0
68453,note_on,20,0,7,,,,,,,,,11,,,,77,0
68456,note_on,20,0,8,,,,,,,,,12,,,,59,0
68460,note_on,10,0,6,,,,,,,,,10,,,,79,108
68461,note_on,20,0,9,,,,,,,,,13,,,,47,0
68463,note_on,10,0,7,,,,,,,,,11,,,,77,108
68463,note_on,20,0,10,,,,,,,,,14,,,,35,0
68466,note_on,10,0,8,,,,,,,,,12,,,,59,106
68471,note_on,10,0,9,,,,,,,,,13,,,,47,97
68473,note_on,10,0,10,,,,,,,,,14,,,,35,80
68480,note_on,20,0,6,,,,,,,,,10,,,,79,0
68483,note_on,20,0,7,,,,,,,,,11,,,,77,0
68486,note_on,20,0,8,,,,,,,,,12,,,,59,0
68490,note_on,10,0,6,,,,,,,,,10,,,,79,95
68491,note_on,20,0,9,,,,,,,,,13,,,,47,0
68493,note_on,10,0,7,,,,,,,,,11,,,,77,95
68493,note_on,20,0,10,,,,,,,,,14,,,,35,0
68496,note_on,10,0,8,,,,,,,,,12,,,,59,93
68501,note_on,10,0,9,,,,,,,,,13,,,,47,84
68503,note_on,10,0,10,,,,,,,,,14,,,,35,68
68510,note_on,20,0,6,,,,,,,,,10,,,,79,0
68513,note_on,20,0,7,,,,,,,,,11,,,,77,0
68516,note_on,20,0,8,,,,,,,,,12,,,,59,0
68520,note_on,10,0,6,,,,,,,,,10,,,,79,100
68520,set_tempo,120,1,0,,,,,,382166,,,,,,,,
68521,note_on,20,0,9,,,,,,,,,13,,,,47,0
68523,note_on,10,0,7,,,,,,,,,11,,,,77,100
68523,note_on,20,0,10,,,,,,,,,14,,,,35,0
68526,note_on,10,0,8,,,,,,,,,12,,,,59,98
68531,note_on,10,0,9,,,,,,,,,13,,,,47,89
68533,note_on,10,0,10,,,,,,,,,14,,,,35,73
68540,note_on,20,0,6,,,,,,,,,10,,,,79,0
68543,note_on,20,0,7,,,,,,,,,11,,,,77,0
68546,note_on,20,0,8,,,,,,,,,12,,,,59,0
68550,note_on,10,0,6,,,,,,,,,10,,,,79,92
68551,note_on,20,0,9,,,,,,,,,13,,,,47,0
68553,note_on,10,0,7,,,,,,,,,11,,,,77,92
68553,note_on,20,0,10,,,,,,,,,14,,,,35,0
68556,note_on,10,0,8,,,,,,,,,12,,,,59,90
68561,note_on,10,0,9,,,,,,,,,13,,,,47,81
68563,note_on,10,0,10,,,,,,,,,14,,,,35,65
68570,note_on,20,0,6,,,,,,,,,10,,,,79,0
68573,note_on,20,0,7,,,,,,,,,11,,,,77,0
68576,note_on,20,0,8,,,,,,,,,12,,,,59,0
68580,note_on,10,0,6,,,,,,,,,10,,,,79,100
68581,note_on,20,0,9,,,,,,,,,13,,,,47,0
68583,note_on,20,0,10,,,,,,,,,14,,,,35,0
68583,note_on,10,0,7,,,,,,,,,11,,,,77,100
68586,note_on,10,0,8,,,,,,,,,12,,,,59,98
68591,note_on,10,0,9,,,,,,,,,13,,,,47,89
68593,note_on,10,0,10,,,,,,,,,14,,,,35,73
68600,note_on,20,0,6,,,,,,,,,10,,,,79,0
68603,note_on,20,0,7,,,,,,,,,11,,,,77,0
68606,note_on,20,0,8,,,,,,,,,12,,,,59,0
68610,note_on,10,0,6,,,,,,,,,10,,,,79,92
68611,note_on,20,0,9,,,,,,,,,13,,,,47,0
68613,note_on,10,0,7,,,,,,,,,11,,,,77,92
68613,note_on,20,0,10,,,,,,,,,14,,,,35,0
68616,note_on,10,0,8,,,,,,,,,12,,,,59,90
68621,note_on,10,0,9,,,,,,,,,13,,,,47,81
68623,note_on,10,0,10,,,,,,,,,14,,,,35,65
68630,note_on,20,0,6,,,,,,,,,10,,,,79,0
68633,note_on,20,0,7,,,,,,,,,11,,,,77,0
68635,note_on,230,0,2,,,,,,,,,1,,,,77,0
68636,note_on,20,0,8,,,,,,,,,12,,,,59,0
68640,note_on,10,0,6,,,,,,,,,10,,,,79,100
68640,set_tempo,120,1,0,,,,,,355030,,,,,,,,
68641,note_on,20,0,9,,,,,,,,,13,,,,47,0
68642,note_on,230,0,3,,,,,,,,,3,,,,47,0
68643,note_on,10,0,7,,,,,,,,,11,,,,76,100
68643,note_on,20,0,10,,,,,,,,,14,,,,35,0
68644,note_on,240,0,4,,,,,,,,,4,,,,65,0
68644,note_on,0,0,4,,,,,,,,,4,,,,60,86
68645,note_on,10,0,2,,,,,,,,,1,,,,76,81
68646,note_on,10,0,8,,,,,,,,,12,,,,60,98
68646,note_on,0,0,5,,,,,,,,,5,,,,60,86
68646,note_on,240,0,5,,,,,,,,,5,,,,53,0
68651,note_on,10,0,9,,,,,,,,,13,,,,48,89
68652,note_on,10,0,3,,,,,,,,,3,,,,48,81
68653,note_on,10,0,10,,,,,,,,,14,,,,36,73
68696,note_on,50,0,8,,,,,,,,,12,,,,60,0
68701,note_on,50,0,9,,,,,,,,,13,,,,48,0
68702,note_on,50,0,3,,,,,,,,,3,,,,48,0
68703,note_on,50,0,10,,,,,,,,,14,,,,36,0
68706,note_on,10,0,8,,,,,,,,,12,,,,72,98
68711,note_on,10,0,9,,,,,,,,,13,,,,60,89
68712,note_on,10,0,3,,,,,,,,,3,,,,60,81
68713,note_on,10,0,10,,,,,,,,,14,,,,48,73
68740,note_on,100,0,6,,,,,,,,,10,,,,79,0
68743,note_on,100,0,7,,,,,,,,,11,,,,76,0
68744,note_on,100,0,4,,,,,,,,,4,,,,60,0
68745,note_on,100,0,2,,,,,,,,,1,,,,76,0
68746,note_on,100,0,5,,,,,,,,,5,,,,60,0
68753,note_on,350,0,1,,,,,,,,,0,,,,79,0
68755,note_on,10,0,2,,,,,,,,,1,,,,67,0
68756,note_on,50,0,8,,,,,,,,,12,,,,72,0
68760,note_on,0,0,6,,,,,,,,,10,,,,72,70
68760,set_tempo,120,1,0,,,,,,382166,,,,,,,,
68760,note_on,20,0,6,,,,,,,,,10,,,,67,70
68761,note_on,50,0,9,,,,,,,,,13,,,,60,0
68762,note_on,50,0,3,,,,,,,,,3,,,,60,0
68763,note_on,0,0,7,,,,,,,,,11,,,,67,70
68763,note_on,10,0,1,,,,,,,,,0,,,,88,82
68763,note_on,20,0,7,,,,,,,,,11,,,,72,70
68763,note_on,50,0,10,,,,,,,,,14,,,,48,0
68764,note_on,20,0,4,,,,,,,,,4,,,,60,86
68765,note_on,10,0,2,,,,,,,,,1,,,,76,81
68765,note_on,0,0,2,,,,,,,,,1,,,,67,81
68766,note_on,20,0,5,,,,,,,,,5,,,,60,86
68766,note_on,10,0,8,,,,,,,,,12,,,,70,98
68770,note_on,10,0,6,,,,,,,,,10,,,,76,100
68771,note_on,10,0,9,,,,,,,,,13,,,,58,89
68772,note_on,10,0,3,,,,,,,,,3,,,,58,81
68773,note_on,10,0,10,,,,,,,,,14,,,,46,73
68773,note_on,10,0,7,,,,,,,,,11,,,,76,100
68816,note_on,50,0,8,,,,,,,,,12,,,,70,0
68821,note_on,50,0,9,,,,,,,,,13,,,,58,0
68822,note_on,50,0,3,,,,,,,,,3,,,,58,0
68823,note_on,50,0,10,,,,,,,,,14,,,,46,0
68826,note_on,10,0,8,,,,,,,,,12,,,,72,98
68831,note_on,10,0,9,,,,,,,,,13,,,,60,89
68832,note_on,10,0,3,,,,,,,,,3,,,,60,81
68833,note_on,10,0,10,,,,,,,,,14,,,,48,73
68860,note_on,0,0,6,,,,,,,,,10,,,,67,0
68860,note_on,90,0,6,,,,,,,,,10,,,,72,0
68863,note_on,100,0,1,,,,,,,,,0,,,,88,0
68863,note_on,0,0,7,,,,,,,,,11,,,,72,0
68863,note_on,90,0,7,,,,,,,,,11,,,,67,0
68864,note_on,100,0,4,,,,,,,,,4,,,,60,0
68865,note_on,100,0,2,,,,,,,,,1,,,,67,0
68865,note_on,0,0,2,,,,,,,,,1,,,,76,0
68866,note_on,100,0,5,,,,,,,,,5,,,,60,0
68870,note_on,10,0,6,,,,,,,,,10,,,,76,0
68873,note_on,10,0,7,,,,,,,,,11,,,,76,0
68876,note_on,50,0,8,,,,,,,,,12,,,,72,0
68880,note_on,0,0,6,,,,,,,,,10,,,,65,70
68880,set_tempo,120,1,0,,,,,,360360,,,,,,,,
68880,note_on,10,0,6,,,,,,,,,10,,,,72,70
68881,note_on,50,0,9,,,,,,,,,13,,,,60,0
68882,note_on,50,0,3,,,,,,,,,3,,,,60,0
68883,note_on,20,0,1,,,,,,,,,0,,,,89,82
68883,note_on,0,0,7,,,,,,,,,11,,,,65,70
68883,note_on,10,0,7,,,,,,,,,11,,,,72,70
68883,note_on,50,0,10,,,,,,,,,14,,,,48,0
68884,note_on,20,0,4,,,,,,,,,4,,,,60,86
68885,note_on,20,0,2,,,,,,,,,1,,,,77,81
68885,note_on,0,0,2,,,,,,,,,1,,,,68,81
68886,note_on,10,0,8,,,,,,,,,12,,,,68,98
68886,note_on,20,0,5,,,,,,,,,5,,,,60,86
68890,note_on,10,0,6,,,,,,,,,10,,,,77,100
68891,note_on,10,0,9,,,,,,,,,13,,,,56,89
68892,note_on,10,0,3,,,,,,,,,3,,,,56,81
68893,note_on,10,0,7,,,,,,,,,11,,,,77,100
68893,note_on,10,0,10,,,,,,,,,14,,,,44,73
68936,note_on,50,0,8,,,,,,,,,12,,,,68,0
68941,note_on,50,0,9,,,,,,,,,13,,,,56,0
68942,note_on,50,0,3,,,,,,,,,3,,,,56,0
68943,note_on,50,0,10,,,,,,,,,14,,,,44,0
68946,note_on,10,0,8,,,,,,,,,12,,,,72,98
68951,note_on,10,0,9,,,,,,,,,13,,,,60,89
68952,note_on,10,0,3,,,,,,,,,3,,,,60,81
68953,note_on,10,0,10,,,,,,,,,14,,,,48,73
68980,note_on,0,0,6,,,,,,,,,10,,,,72,0
68980,note_on,90,0,6,,,,,,,,,10,,,,65,0
68983,note_on,0,0,7,,,,,,,,,11,,,,72,0
68983,note_on,90,0,7,,,,,,,,,11,,,,65,0
68983,note_on,100,0,1,,,,,,,,,0,,,,89,0
68984,note_on,100,0,4,,,,,,,,,4,,,,60,0
68985,note_on,100,0,2,,,,,,,,,1,,,,68,0
68985,note_on,0,0,2,,,,,,,,,1,,,,77,0
68986,note_on,100,0,5,,,,,,,,,5,,,,60,0
68990,note_on,10,0,6,,,,,,,,,10,,,,77,0
68993,note_on,10,0,7,,,,,,,,,11,,,,77,0
68996,note_on,50,0,8,,,,,,,,,12,,,,72,0
69000,note_on,0,0,6,,,,,,,,,10,,,,65,70
69000,note_on,10,0,6,,,,,,,,,10,,,,72,70
69000,set_tempo,120,1,0,,,,,,390879,,,,,,,,
69001,note_on,50,0,9,,,,,,,,,13,,,,60,0
69002,note_on,50,0,3,,,,,,,,,3,,,,60,0
69003,note_on,0,0,7,,,,,,,,,11,,,,72,70
69003,note_on,10,0,7,,,,,,,,,11,,,,65,70
69003,note_on,20,0,1,,,,,,,,,0,,,,80,82
69003,note_on,50,0,10,,,,,,,,,14,,,,48,0
69004,note_on,20,0,4,,,,,,,,,4,,,,60,86
69005,note_on,20,0,2,,,,,,,,,1,,,,68,81
69005,note_on,0,0,2,,,,,,,,,1,,,,77,81
69006,note_on,20,0,5,,,,,,,,,5,,,,60,86
69006,note_on,10,0,8,,,,,,,,,12,,,,68,98
69010,note_on,10,0,6,,,,,,,,,10,,,,80,100
69011,note_on,10,0,9,,,,,,,,,13,,,,56,89
69012,note_on,10,0,3,,,,,,,,,3,,,,56,81
69013,note_on,10,0,7,,,,,,,,,11,,,,80,100
69013,note_on,10,0,10,,,,,,,,,14,,,,44,73
69056,note_on,50,0,8,,,,,,,,,12,,,,68,0
69061,note_on,50,0,9,,,,,,,,,13,,,,56,0
69062,note_on,50,0,3,,,,,,,,,3,,,,56,0
69063,note_on,50,0,10,,,,,,,,,14,,,,44,0
69066,note_on,10,0,8,,,,,,,,,12,,,,65,98
69071,note_on,10,0,9,,,,,,,,,13,,,,53,89
69072,note_on,10,0,3,,,,,,,,,3,,,,53,81
69073,note_on,10,0,10,,,,,,,,,14,,,,41,73
69100,note_on,90,0,6,,,,,,,,,10,,,,65,0
69100,note_on,0,0,6,,,,,,,,,10,,,,72,0
69103,note_on,90,0,7,,,,,,,,,11,,,,72,0
69103,note_on,0,0,7,,,,,,,,,11,,,,65,0
69103,note_on,100,0,1,,,,,,,,,0,,,,80,0
69104,note_on,100,0,4,,,,,,,,,4,,,,60,0
69105,note_on,100,0,2,,,,,,,,,1,,,,77,0
69105,note_on,0,0,2,,,,,,,,,1,,,,68,0
69106,note_on,100,0,5,,,,,,,,,5,,,,60,0
69110,note_on,10,0,6,,,,,,,,,10,,,,80,0
69113,note_on,10,0,7,,,,,,,,,11,,,,80,0
69116,note_on,50,0,8,,,,,,,,,12,,,,65,0
69120,note_on,10,0,6,,,,,,,,,10,,,,72,70
69120,note_on,0,0,6,,,,,,,,,10,,,,64,70
69120,set_tempo,120,1,0,,,,,,369231,,,,,,,,
69121,note_on,50,0,9,,,,,,,,,13,,,,53,0
69122,note_on,50,0,3,,,,,,,,,3,,,,53,0
69123,note_on,20,0,1,,,,,,,,,0,,,,79,82
69123,note_on,10,0,7,,,,,,,,,11,,,,72,70
69123,note_on,0,0,7,,,,,,,,,11,,,,64,70
69123,note_on,50,0,10,,,,,,,,,14,,,,41,0
69124,note_on,20,0,4,,,,,,,,,4,,,,60,86
69125,note_on,20,0,2,,,,,,,,,1,,,,67,81
69125,note_on,0,0,2,,,,,,,,,1,,,,76,81
69126,note_on,20,0,5,,,,,,,,,5,,,,60,86
69126,note_on,10,0,8,,,,,,,,,12,,,,60,98
69130,note_on,10,0,6,,,,,,,,,10,,,,79,100
69131,note_on,10,0,9,,,,,,,,,13,,,,48,89
69132,note_on,10,0,3,,,,,,,,,3,,,,48,81
69133,note_on,10,0,10,,,,,,,,,14,,,,36,73
69133,note_on,10,0,7,,,,,,,,,11,,,,79,100
69176,note_on,50,0,8,,,,,,,,,12,,,,60,0
69181,note_on,50,0,9,,,,,,,,,13,,,,48,0
69182,note_on,50,0,3,,,,,,,,,3,,,,48,0
69183,note_on,50,0,10,,,,,,,,,14,,,,36,0
69186,note_on,10,0,8,,,,,,,,,12,,,,72,98
69191,note_on,10,0,9,,,,,,,,,13,,,,60,89
69192,note_on,10,0,3,,,,,,,,,3,,,,60,81
69193,note_on,10,0,10,,,,,,,,,14,,,,48,73
69220,note_on,0,0,6,,,,,,,,,10,,,,72,0
69220,note_on,90,0,6,,,,,,,,,10,,,,64,0
69223,note_on,0,0,7,,,,,,,,,11,,,,72,0
69223,note_on,100,0,1,,,,,,,,,0,,,,79,0
69223,note_on,90,0,7,,,,,,,,,11,,,,64,0
69224,note_on,100,0,4,,,,,,,,,4,,,,60,0
69225,note_on,100,0,2,,,,,,,,,1,,,,76,0
69225,note_on,0,0,2,,,,,,,,,1,,,,67,0
69226,note_on,100,0,5,,,,,,,,,5,,,,60,0
69230,note_on,10,0,6,,,,,,,,,10,,,,79,0
69233,note_on,10,0,7,,,,,,,,,11,,,,79,0
69236,note_on,50,0,8,,,,,,,,,12,,,,72,0
69240,note_on,0,0,6,,,,,,,,,10,,,,67,70
69240,note_on,10,0,6,,,,,,,,,10,,,,72,70
69240,set_tempo,120,1,0,,,,,,405405,,,,,,,,
69241,note_on,50,0,9,,,,,,,,,13,,,,60,0
69242,note_on,50,0,3,,,,,,,,,3,,,,60,0
69243,note_on,0,0,7,,,,,,,,,11,,,,67,70
69243,note_on,50,0,10,,,,,,,,,14,,,,48,0
69243,note_on,20,0,1,,,,,,,,,0,,,,88,82
69243,note_on,10,0,7,,,,,,,,,11,,,,72,70
69244,note_on,20,0,4,,,,,,,,,4,,,,60,86
69245,note_on,0,0,2,,,,,,,,,1,,,,67,81
69245,note_on,20,0,2,,,,,,,,,1,,,,76,81
69246,note_on,20,0,5,,,,,,,,,5,,,,60,86
69246,note_on,10,0,8,,,,,,,,,12,,,,70,98
69250,note_on,10,0,6,,,,,,,,,10,,,,76,100
69251,note_on,10,0,9,,,,,,,,,13,,,,58,89
69252,note_on,10,0,3,,,,,,,,,3,,,,58,81
69253,note_on,10,0,7,,,,,,,,,11,,,,76,100
69253,note_on,10,0,10,,,,,,,,,14,,,,46,73
69296,note_on,50,0,8,,,,,,,,,12,,,,70,0
69301,note_on,50,0,9,,,,,,,,,13,,,,58,0
69302,note_on,50,0,3,,,,,,,,,3,,,,58,0
69303,note_on,50,0,10,,,,,,,,,14,,,,46,0
69306,note_on,10,0,8,,,,,,,,,12,,,,72,98
69311,note_on,10,0,9,,,,,,,,,13,,,,60,89
69312,note_on,10,0,3,,,,,,,,,3,,,,60,81
69313,note_on,10,0,10,,,,,,,,,14,,,,48,73
69340,note_on,90,0,6,,,,,,,,,10,,,,67,0
69340,note_on,0,0,6,,,,,,,,,10,,,,72,0
69343,note_on,90,0,7,,,,,,,,,11,,,,67,0
69343,note_on,100,0,1,,,,,,,,,0,,,,88,0
69343,note_on,0,0,7,,,,,,,,,11,,,,72,0
69344,note_on,100,0,4,,,,,,,,,4,,,,60,0
69345,note_on,0,0,2,,,,,,,,,1,,,,76,0
69345,note_on,100,0,2,,,,,,,,,1,,,,67,0
69346,note_on,100,0,5,,,,,,,,,5,,,,60,0
69350,note_on,10,0,6,,,,,,,,,10,,,,76,0
69353,note_on,10,0,7,,,,,,,,,11,,,,76,0
69356,note_on,50,0,8,,,,,,,,,12,,,,72,0
69360,note_on,10,0,6,,,,,,,,,10,,,,65,70
69360,note_on,0,0,6,,,,,,,,,10,,,,72,70
69360,set_tempo,120,1,0,,,,,,380952,,,,,,,,
69361,note_on,50,0,9,,,,,,,,,13,,,,60,0
69362,note_on,50,0,3,,,,,,,,,3,,,,60,0
69363,note_on,0,0,7,,,,,,,,,11,,,,65,70
69363,note_on,20,0,1,,,,,,,,,0,,,,89,82
69363,note_on,50,0,10,,,,,,,,,14,,,,48,0
69363,note_on,10,0,7,,,,,,,,,11,,,,72,70
69364,note_on,20,0,4,,,,,,,,,4,,,,60,86
69365,note_on,20,0,2,,,,,,,,,1,,,,68,81
69365,note_on,0,0,2,,,,,,,,,1,,,,77,81
69366,note_on,20,0,5,,,,,,,,,5,,,,60,86
69366,note_on,10,0,8,,,,,,,,,12,,,,68,98
69370,note_on,10,0,6,,,,,,,,,10,,,,77,100
69371,note_on,10,0,9,,,,,,,,,13,,,,56,89
69372,note_on,10,0,3,,,,,,,,,3,,,,56,81
69373,note_on,10,0,7,,,,,,,,,11,,,,77,100
69373,note_on,10,0,10,,,,,,,,,14,,,,44,73
69416,note_on,50,0,8,,,,,,,,,12,,,,68,0
69421,note_on,50,0,9,,,,,,,,,13,,,,56,0
69422,note_on,50,0,3,,,,,,,,,3,,,,56,0
69423,note_on,50,0,10,,,,,,,,,14,,,,44,0
69426,note_on,10,0,8,,,,,,,,,12,,,,72,98
69431,note_on,10,0,9,,,,,,,,,13,,,,60,89
69432,note_on,10,0,3,,,,,,,,,3,,,,60,81
69433,note_on,10,0,10,,,,,,,,,14,,,,48,73
69460,note_on,0,0,6,,,,,,,,,10,,,,65,0
69460,note_on,90,0,6,,,,,,,,,10,,,,72,0
69463,note_on,100,0,1,,,,,,,,,0,,,,89,0
69463,note_on,0,0,7,,,,,,,,,11,,,,72,0
69463,note_on,90,0,7,,,,,,,,,11,,,,65,0
69464,note_on,100,0,4,,,,,,,,,4,,,,60,0
69465,note_on,0,0,2,,,,,,,,,1,,,,68,0
69465,note_on,100,0,2,,,,,,,,,1,,,,77,0
69466,note_on,100,0,5,,,,,,,,,5,,,,60,0
69470,note_on,10,0,6,,,,,,,,,10,,,,77,0
69473,note_on,10,0,7,,,,,,,,,11,,,,77,0
69476,note_on,50,0,8,,,,,,,,,12,,,,72,0
69480,note_on,10,0,6,,,,,,,,,10,,,,65,70
69480,note_on,0,0,6,,,,,,,,,10,,,,72,70
69480,set_tempo,120,1,0,,,,,,428571,,,,,,,,
69481,note_on,50,0,9,,,,,,,,,13,,,,60,0
69482,note_on,50,0,3,,,,,,,,,3,,,,60,0
69483,note_on,50,0,10,,,,,,,,,14,,,,48,0
69483,note_on,10,0,7,,,,,,,,,11,,,,72,70
69483,note_on,0,0,7,,,,,,,,,11,,,,65,70
69483,note_on,20,0,1,,,,,,,,,0,,,,80,82
69484,note_on,20,0,4,,,,,,,,,4,,,,60,86
69485,note_on,0,0,2,,,,,,,,,1,,,,77,81
69485,note_on,20,0,2,,,,,,,,,1,,,,68,81
69486,note_on,20,0,5,,,,,,,,,5,,,,60,86
69486,note_on,10,0,8,,,,,,,,,12,,,,68,98
69490,note_on,10,0,6,,,,,,,,,10,,,,80,100
69491,note_on,10,0,9,,,,,,,,,13,,,,56,89
69492,note_on,10,0,3,,,,,,,,,3,,,,56,81
69493,note_on,10,0,7,,,,,,,,,11,,,,80,100
69493,note_on,10,0,10,,,,,,,,,14,,,,44,73
69536,note_on,50,0,8,,,,,,,,,12,,,,68,0
69541,note_on,50,0,9,,,,,,,,,13,,,,56,0
69542,note_on,50,0,3,,,,,,,,,3,,,,56,0
69543,note_on,50,0,10,,,,,,,,,14,,,,44,0
69546,note_on,10,0,8,,,,,,,,,12,,,,65,98
69551,note_on,10,0,9,,,,,,,,,13,,,,53,89
69552,note_on,10,0,3,,,,,,,,,3,,,,53,81
69553,note_on,10,0,10,,,,,,,,,14,,,,41,73
69580,note_on,0,0,6,,,,,,,,,10,,,,65,0
69580,note_on,90,0,6,,,,,,,,,10,,,,72,0
69583,note_on,90,0,7,,,,,,,,,11,,,,65,0
69583,note_on,0,0,7,,,,,,,,,11,,,,72,0
69583,note_on,100,0,1,,,,,,,,,0,,,,80,0
69584,note_on,100,0,4,,,,,,,,,4,,,,60,0
69585,note_on,100,0,2,,,,,,,,,1,,,,77,0
69585,note_on,0,0,2,,,,,,,,,1,,,,68,0
69586,note_on,100,0,5,,,,,,,,,5,,,,60,0
69590,note_on,10,0,6,,,,,,,,,10,,,,80,0
69593,note_on,10,0,7,,,,,,,,,11,,,,80,0
69596,note_on,50,0,8,,,,,,,,,12,,,,65,0
69600,note_on,10,0,6,,,,,,,,,10,,,,67,70
69600,note_on,0,0,6,,,,,,,,,10,,,,72,70
69600,set_tempo,120,1,0,,,,,,500000,,,,,,,,
69601,note_on,50,0,9,,,,,,,,,13,,,,53,0
69602,note_on,50,0,3,,,,,,,,,3,,,,53,0
69603,note_on,20,0,1,,,,,,,,,0,,,,79,82
69603,note_on,50,0,10,,,,,,,,,14,,,,41,0
69603,note_on,10,0,7,,,,,,,,,11,,,,72,70
69603,note_on,0,0,7,,,,,,,,,11,,,,64,70
69604,note_on,20,0,4,,,,,,,,,4,,,,60,86
69605,note_on,20,0,2,,,,,,,,,1,,,,67,81
69605,note_on,0,0,2,,,,,,,,,1,,,,76,81
69606,note_on,10,0,8,,,,,,,,,12,,,,60,98
69606,note_on,20,0,5,,,,,,,,,5,,,,60,86
69610,note_on,10,0,6,,,,,,,,,10,,,,84,100
69611,note_on,10,0,9,,,,,,,,,13,,,,48,89
69612,note_on,10,0,3,,,,,,,,,3,,,,48,81
69613,note_on,10,0,10,,,,,,,,,14,,,,36,73
69613,note_on,10,0,7,,,,,,,,,11,,,,79,100
69720,note_on,110,0,6,,,,,,,,,10,,,,72,0
69720,set_tempo,120,1,0,,,,,,1000000,,,,,,,,
69720,note_on,0,0,6,,,,,,,,,10,,,,67,0
69723,note_on,120,0,1,,,,,,,,,0,,,,79,0
69723,note_on,110,0,7,,,,,,,,,11,,,,64,0
69723,note_on,0,0,7,,,,,,,,,11,,,,72,0
69724,note_on,120,0,4,,,,,,,,,4,,,,60,0
69725,note_on,120,0,2,,,,,,,,,1,,,,76,0
69725,note_on,0,0,2,,,,,,,,,1,,,,67,0
69726,note_on,120,0,5,,,,,,,,,5,,,,60,0
69726,note_on,120,0,8,,,,,,,,,12,,,,60,0
69730,note_on,10,0,6,,,,,,,,,10,,,,84,0
69731,note_on,120,0,9,,,,,,,,,13,,,,48,0
69732,note_on,120,0,3,,,,,,,,,3,,,,48,0
69733,note_on,120,0,10,,,,,,,,,14,,,,36,0
69733,note_on,10,0,7,,,,,,,,,11,,,,79,0
69840,note_on,0,0,6,,,,,,,,,10,,,,81,100
69840,set_tempo,120,1,0,,,,,,415225,,,,,,,,
69840,control_change,110,0,6,,,,,,,,,10,11,22,,,
69843,note_on,0,0,7,,,,,,,,,11,,,,69,100
69843,control_change,110,0,7,,,,,,,,,11,11,47,,,
69846,control_change,120,0,8,,,,,,,,,12,11,47,,,
69846,note_on,0,0,8,,,,,,,,,12,,,,53,62
69851,control_change,120,0,9,,,,,,,,,13,11,47,,,
69851,note_on,0,0,9,,,,,,,,,13,,,,53,43
69853,control_change,120,0,10,,,,,,,,,14,11,47,,,
69853,note_on,0,0,10,,,,,,,,,14,,,,41,31
69854,control_change,14,0,6,,,,,,,,,10,11,25,,,
69868,control_change,14,0,6,,,,,,,,,10,11,28,,,
69883,control_change,15,0,6,,,,,,,,,10,11,31,,,
69897,control_change,14,0,6,,,,,,,,,10,11,34,,,
69903,note_on,0,0,7,,,,,,,,,11,,,,72,100
69903,note_on,60,0,7,,,,,,,,,11,,,,69,0
69912,control_change,15,0,6,,,,,,,,,10,11,37,,,
69926,control_change,14,0,6,,,,,,,,,10,11,40,,,
69940,control_change,14,0,6,,,,,,,,,10,11,43,,,
69953,note_on,50,0,7,,,,,,,,,11,,,,72,0
69955,control_change,15,0,6,,,,,,,,,10,11,46,,,
69960,set_tempo,120,1,0,,,,,,379747,,,,,,,,
69963,note_on,10,0,7,,,,,,,,,11,,,,72,100
69966,note_on,120,0,8,,,,,,,,,12,,,,53,0
69971,note_on,120,0,9,,,,,,,,,13,,,,53,0
69973,note_on,120,0,10,,,,,,,,,14,,,,41,0
69993,note_on,30,0,7,,,,,,,,,11,,,,72,0
70023,note_on,30,0,7,,,,,,,,,11,,,,72,100
70053,note_on,30,0,7,,,,,,,,,11,,,,72,0
70080,set_tempo,120,1,0,,,,,,389610,,,,,,,,
70080,note_on,0,0,6,,,,,,,,,10,,,,84,100
70080,note_on,125,0,6,,,,,,,,,10,,,,81,0
70083,note_on,30,0,7,,,,,,,,,11,,,,70,100
70086,note_on,120,0,8,,,,,,,,,12,,,,55,62
70091,note_on,120,0,9,,,,,,,,,13,,,,55,43
70093,note_on,120,0,10,,,,,,,,,14,,,,43,31
70140,note_on,0,0,6,,,,,,,,,10,,,,82,100
70140,note_on,60,0,6,,,,,,,,,10,,,,84,0
70143,note_on,60,0,7,,,,,,,,,11,,,,70,0
70143,note_on,0,0,7,,,,,,,,,11,,,,72,100
70193,note_on,50,0,7,,,,,,,,,11,,,,72,0
70200,note_on,0,0,6,,,,,,,,,10,,,,74,100
70200,note_on,60,0,6,,,,,,,,,10,,,,82,0
70200,set_tempo,120,1,0,,,,,,372671,,,,,,,,
70203,note_on,10,0,7,,,,,,,,,11,,,,72,100
70206,note_on,120,0,8,,,,,,,,,12,,,,55,0
70211,note_on,120,0,9,,,,,,,,,13,,,,55,0
70213,note_on,120,0,10,,,,,,,,,14,,,,43,0
70233,note_on,30,0,7,,,,,,,,,11,,,,72,0
70260,note_on,0,0,6,,,,,,,,,10,,,,76,100
70260,note_on,60,0,6,,,,,,,,,10,,,,74,0
70263,note_on,30,0,7,,,,,,,,,11,,,,72,100
70293,note_on,30,0,7,,,,,,,,,11,,,,72,0
70310,note_on,50,0,6,,,,,,,,,10,,,,76,0
70320,set_tempo,120,1,0,,,,,,389610,,,,,,,,
70320,note_on,10,0,6,,,,,,,,,10,,,,79,100
70323,note_on,30,0,7,,,,,,,,,11,,,,65,100
70326,note_on,120,0,8,,,,,,,,,12,,,,57,62
70331,note_on,120,0,9,,,,,,,,,13,,,,57,43
70333,note_on,120,0,10,,,,,,,,,14,,,,45,31
70380,note_on,0,0,6,,,,,,,,,10,,,,77,100
70380,note_on,60,0,6,,,,,,,,,10,,,,79,0
70383,note_on,60,0,7,,,,,,,,,11,,,,65,0
70383,note_on,0,0,7,,,,,,,,,11,,,,72,100
70433,note_on,50,0,7,,,,,,,,,11,,,,72,0
70440,note_on,60,0,6,,,,,,,,,10,,,,77,0
70440,note_on,0,0,6,,,,,,,,,10,,,,76,100
70440,set_tempo,120,1,0,,,,,,372671,,,,,,,,
70443,note_on,10,0,7,,,,,,,,,11,,,,72,100
70446,note_on,120,0,8,,,,,,,,,12,,,,57,0
70451,note_on,120,0,9,,,,,,,,,13,,,,57,0
70453,note_on,120,0,10,,,,,,,,,14,,,,45,0
70473,note_on,30,0,7,,,,,,,,,11,,,,72,0
70500,note_on,60,0,6,,,,,,,,,10,,,,76,0
70500,note_on,0,0,6,,,,,,,,,10,,,,74,100
70503,note_on,30,0,7,,,,,,,,,11,,,,72,100
70533,note_on,30,0,7,,,,,,,,,11,,,,72,0
70550,note_on,50,0,6,,,,,,,,,10,,,,74,0
70560,set_tempo,120,1,0,,,,,,389610,,,,,,,,
70560,note_on,10,0,6,,,,,,,,,10,,,,72,100
70563,note_on,30,0,7,,,,,,,,,11,,,,64,100
70566,note_on,120,0,8,,,,,,,,,12,,,,60,62
70571,note_on,120,0,9,,,,,,,,,13,,,,60,43
70573,note_on,120,0,10,,,,,,,,,14,,,,48,31
70623,note_on,60,0,7,,,,,,,,,11,,,,64,0
70623,note_on,0,0,7,,,,,,,,,11,,,,72,100
70673,note_on,50,0,7,,,,,,,,,11,,,,72,0
70680,note_on,120,0,6,,,,,,,,,10,,,,72,0
70680,note_on,0,0,6,,,,,,,,,10,,,,74,100
70680,set_tempo,120,1,0,,,,,,372671,,,,,,,,
70683,note_on,10,0,7,,,,,,,,,11,,,,72,100
70686,note_on,120,0,8,,,,,,,,,12,,,,60,0
70691,note_on,120,0,9,,,,,,,,,13,,,,60,0
70693,note_on,120,0,10,,,,,,,,,14,,,,48,0
70710,note_on,30,0,6,,,,,,,,,10,,,,74,0
70710,note_on,0,0,6,,,,,,,,,10,,,,76,100
70713,note_on,30,0,7,,,,,,,,,11,,,,72,0
70740,note_on,30,0,6,,,,,,,,,10,,,,76,0
70740,note_on,0,0,6,,,,,,,,,10,,,,77,100
70743,note_on,30,0,7,,,,,,,,,11,,,,72,100
70770,note_on,30,0,6,,,,,,,,,10,,,,77,0
70770,note_on,0,0,6,,,,,,,,,10,,,,79,100
70773,note_on,30,0,7,,,,,,,,,11,,,,72,0
70790,note_on,20,0,6,,,,,,,,,10,,,,79,0
70800,set_tempo,120,1,0,,,,,,389610,,,,,,,,
70800,note_on,10,0,6,,,,,,,,,10,,,,81,100
70803,note_on,30,0,7,,,,,,,,,11,,,,69,100
70806,note_on,120,0,8,,,,,,,,,12,,,,53,62
70811,note_on,120,0,9,,,,,,,,,13,,,,53,43
70813,note_on,120,0,10,,,,,,,,,14,,,,41,31
70863,note_on,0,0,7,,,,,,,,,11,,,,72,100
70863,note_on,60,0,7,,,,,,,,,11,,,,69,0
70913,note_on,50,0,7,,,,,,,,,11,,,,72,0
70920,set_tempo,120,1,0,,,,,,372671,,,,,,,,
70923,note_on,10,0,7,,,,,,,,,11,,,,72,100
70926,note_on,120,0,8,,,,,,,,,12,,,,53,0
70931,note_on,120,0,9,,,,,,,,,13,,,,53,0
70933,note_on,120,0,10,,,,,,,,,14,,,,41,0
70953,note_on,30,0,7,,,,,,,,,11,,,,72,0
70983,note_on,30,0,7,,,,,,,,,11,,,,72,100
71013,note_on,30,0,7,,,,,,,,,11,,,,72,0
71030,note_on,230,0,6,,,,,,,,,10,,,,81,0
71040,set_tempo,120,1,0,,,,,,389610,,,,,,,,
71040,note_on,10,0,6,,,,,,,,,10,,,,84,100
71043,note_on,30,0,7,,,,,,,,,11,,,,70,100
71046,note_on,120,0,8,,,,,,,,,12,,,,55,62
71051,note_on,120,0,9,,,,,,,,,13,,,,55,43
71053,note_on,120,0,10,,,,,,,,,14,,,,43,31
71100,note_on,60,0,6,,,,,,,,,10,,,,84,0
71100,note_on,0,0,6,,,,,,,,,10,,,,82,100
71103,note_on,0,0,7,,,,,,,,,11,,,,72,100
71103,note_on,60,0,7,,,,,,,,,11,,,,70,0
71153,note_on,50,0,7,,,,,,,,,11,,,,72,0
71160,note_on,0,0,6,,,,,,,,,10,,,,74,100
71160,note_on,60,0,6,,,,,,,,,10,,,,82,0
71160,set_tempo,120,1,0,,,,,,372671,,,,,,,,
71163,note_on,10,0,7,,,,,,,,,11,,,,72,100
71166,note_on,120,0,8,,,,,,,,,12,,,,55,0
71171,note_on,120,0,9,,,,,,,,,13,,,,55,0
71173,note_on,120,0,10,,,,,,,,,14,,,,43,0
71193,note_on,30,0,7,,,,,,,,,11,,,,72,0
71220,note_on,60,0,6,,,,,,,,,10,,,,74,0
71220,note_on,0,0,6,,,,,,,,,10,,,,76,100
71223,note_on,30,0,7,,,,,,,,,11,,,,72,100
71253,note_on,30,0,7,,,,,,,,,11,,,,72,0
71270,note_on,50,0,6,,,,,,,,,10,,,,76,0
71280,note_on,10,0,6,,,,,,,,,10,,,,79,100
71280,set_tempo,120,1,0,,,,,,389610,,,,,,,,
71283,note_on,30,0,7,,,,,,,,,11,,,,65,100
71286,note_on,120,0,8,,,,,,,,,12,,,,57,62
71291,note_on,120,0,9,,,,,,,,,13,,,,57,43
71293,note_on,120,0,10,,,,,,,,,14,,,,45,31
71340,note_on,0,0,6,,,,,,,,,10,,,,77,100
71340,note_on,60,0,6,,,,,,,,,10,,,,79,0
71343,note_on,0,0,7,,,,,,,,,11,,,,72,100
71343,note_on,60,0,7,,,,,,,,,11,,,,65,0
71393,note_on,50,0,7,,,,,,,,,11,,,,72,0
71400,note_on,0,0,6,,,,,,,,,10,,,,76,100
71400,note_on,60,0,6,,,,,,,,,10,,,,77,0
71400,set_tempo,120,1,0,,,,,,372671,,,,,,,,
71403,note_on,10,0,7,,,,,,,,,11,,,,72,100
71406,note_on,120,0,8,,,,,,,,,12,,,,57,0
71411,note_on,120,0,9,,,,,,,,,13,,,,57,0
71413,note_on,120,0,10,,,,,,,,,14,,,,45,0
71433,note_on,30,0,7,,,,,,,,,11,,,,72,0
71440,note_on,0,0,6,,,,,,,,,10,,,,77,100
71440,note_on,40,0,6,,,,,,,,,10,,,,76,0
71463,note_on,30,0,7,,,,,,,,,11,,,,72,100
71480,note_on,0,0,6,,,,,,,,,10,,,,74,100
71480,note_on,40,0,6,,,,,,,,,10,,,,77,0
71493,note_on,30,0,7,,,,,,,,,11,,,,72,0
71510,note_on,30,0,6,,,,,,,,,10,,,,74,0
71520,set_tempo,120,1,0,,,,,,413793,,,,,,,,
71520,note_on,10,0,6,,,,,,,,,10,,,,72,100
71523,note_on,30,0,7,,,,,,,,,11,,,,64,100
71526,note_on,120,0,8,,,,,,,,,12,,,,60,62
71531,note_on,120,0,9,,,,,,,,,13,,,,60,43
71533,note_on,120,0,10,,,,,,,,,14,,,,48,31
71583,note_on,60,0,7,,,,,,,,,11,,,,64,0
71583,note_on,0,0,7,,,,,,,,,11,,,,72,100
71633,note_on,50,0,7,,,,,,,,,11,,,,72,0
71640,set_tempo,120,1,0,,,,,,372671,,,,,,,,
71643,note_on,10,0,7,,,,,,,,,11,,,,72,100
71646,note_on,120,0,8,,,,,,,,,12,,,,60,0
71651,note_on,120,0,9,,,,,,,,,13,,,,60,0
71653,note_on,120,0,10,,,,,,,,,14,,,,48,0
71673,note_on,30,0,7,,,,,,,,,11,,,,72,0
71703,note_on,30,0,7,,,,,,,,,11,,,,72,100
71733,note_on,30,0,7,,,,,,,,,11,,,,72,0
71750,note_on,230,0,6,,,,,,,,,10,,,,72,0
71760,set_tempo,120,1,0,,,,,,389610,,,,,,,,
71760,note_on,0,0,6,,,,,,,,,10,,,,72,80
71760,control_change,10,0,6,,,,,,,,,10,11,47,,,
71763,note_on,0,0,7,,,,,,,,,11,,,,60,80
71763,control_change,30,0,7,,,,,,,,,11,11,47,,,
71765,note_on,0,0,2,,,,,,,,,1,,,,81,81
71765,note_on,0,0,2,,,,,,,,,1,,,,72,81
71765,control_change,2040,0,2,,,,,,,,,1,11,47,,,
71766,note_on,0,0,8,,,,,,,,,12,,,,65,62
71766,control_change,120,0,8,,,,,,,,,12,11,47,,,
71771,note_on,0,0,9,,,,,,,,,13,,,,53,43
71771,control_change,120,0,9,,,,,,,,,13,11,47,,,
71772,control_change,2040,0,3,,,,,,,,,3,11,47,,,
71772,note_on,0,0,3,,,,,,,,,3,,,,65,81
71773,control_change,120,0,10,,,,,,,,,14,11,47,,,
71773,note_on,0,0,10,,,,,,,,,14,,,,41,31
71791,control_change,31,0,6,,,,,,,,,10,11,48,,,
71794,control_change,31,0,7,,,,,,,,,11,11,48,,,
71797,control_change,31,0,8,,,,,,,,,12,11,48,,,
71802,control_change,31,0,9,,,,,,,,,13,11,48,,,
71804,control_change,31,0,10,,,,,,,,,14,11,48,,,
71820,note_on,29,0,6,,,,,,,,,10,,,,72,0
71820,note_on,0,0,6,,,,,,,,,10,,,,81,80
71823,control_change,3,0,6,,,,,,,,,10,11,49,,,
71823,note_on,29,0,7,,,,,,,,,11,,,,60,0
71823,note_on,0,0,7,,,,,,,,,11,,,,69,80
71826,control_change,3,0,7,,,,,,,,,11,11,49,,,
71829,control_change,32,0,8,,,,,,,,,12,11,49,,,
71834,control_change,32,0,9,,,,,,,,,13,11,49,,,
71836,control_change,32,0,10,,,,,,,,,14,11,49,,,
71855,control_change,32,0,6,,,,,,,,,10,11,50,,,
71858,control_change,32,0,7,,,,,,,,,11,11,50,,,
71861,control_change,32,0,8,,,,,,,,,12,11,50,,,
71866,control_change,32,0,9,,,,,,,,,13,11,50,,,
71868,control_change,32,0,10,,,,,,,,,14,11,50,,,
71870,note_on,15,0,6,,,,,,,,,10,,,,81,0
71873,note_on,15,0,7,,,,,,,,,11,,,,69,0
71880,set_tempo,120,1,0,,,,,,372671,,,,,,,,
71880,note_on,10,0,6,,,,,,,,,10,,,,81,80
71883,note_on,10,0,7,,,,,,,,,11,,,,69,80
71886,note_on,25,0,8,,,,,,,,,12,,,,65,0
71887,control_change,7,0,6,,,,,,,,,10,11,51,,,
71890,control_change,7,0,7,,,,,,,,,11,11,51,,,
71891,note_on,25,0,9,,,,,,,,,13,,,,53,0
71893,control_change,7,0,8,,,,,,,,,12,11,51,,,
71893,note_on,25,0,10,,,,,,,,,14,,,,41,0
71898,control_change,7,0,9,,,,,,,,,13,11,51,,,
71900,control_change,7,0,10,,,,,,,,,14,11,51,,,
71910,note_on,23,0,6,,,,,,,,,10,,,,81,0
71913,note_on,23,0,7,,,,,,,,,11,,,,69,0
71919,control_change,9,0,6,,,,,,,,,10,11,52,,,
71922,control_change,9,0,7,,,,,,,,,11,11,52,,,
71925,control_change,32,0,8,,,,,,,,,12,11,52,,,
71930,control_change,32,0,9,,,,,,,,,13,11,52,,,
71932,control_change,32,0,10,,,,,,,,,14,11,52,,,
71940,note_on,21,0,6,,,,,,,,,10,,,,81,80
71943,note_on,21,0,7,,,,,,,,,11,,,,69,80
71951,control_change,11,0,6,,,,,,,,,10,11,53,,,
71954,control_change,11,0,7,,,,,,,,,11,11,53,,,
71957,control_change,32,0,8,,,,,,,,,12,11,53,,,
71962,control_change,32,0,9,,,,,,,,,13,11,53,,,
71964,control_change,32,0,10,,,,,,,,,14,11,53,,,
71970,note_on,19,0,6,,,,,,,,,10,,,,81,0
71973,note_on,19,0,7,,,,,,,,,11,,,,69,0
71983,control_change,13,0,6,,,,,,,,,10,11,54,,,
71986,control_change,13,0,7,,,,,,,,,11,11,54,,,
71989,control_change,32,0,8,,,,,,,,,12,11,54,,,
71994,control_change,32,0,9,,,,,,,,,13,11,54,,,
71996,control_change,32,0,10,,,,,,,,,14,11,54,,,
72000,set_tempo,120,1,0,,,,,,389610,,,,,,,,
72000,note_on,17,0,6,,,,,,,,,10,,,,81,80
72003,note_on,17,0,7,,,,,,,,,11,,,,69,80
72005,note_on,0,0,2,,,,,,,,,1,,,,79,81
72005,note_on,240,0,2,,,,,,,,,1,,,,81,0
72006,note_on,17,0,8,,,,,,,,,12,,,,64,62
72011,note_on,17,0,9,,,,,,,,,13,,,,52,43
72012,note_on,0,0,3,,,,,,,,,3,,,,64,81
72012,note_on,240,0,3,,,,,,,,,3,,,,65,0
72013,note_on,17,0,10,,,,,,,,,14,,,,40,31
72015,control_change,15,0,6,,,,,,,,,10,11,55,,,
72018,control_change,15,0,7,,,,,,,,,11,11,55,,,
72021,control_change,15,0,8,,,,,,,,,12,11,55,,,
72026,control_change,15,0,9,,,,,,,,,13,11,55,,,
72028,control_change,15,0,10,,,,,,,,,14,11,55,,,
72047,control_change,32,0,6,,,,,,,,,10,11,56,,,
72050,control_change,32,0,7,,,,,,,,,11,11,56,,,
72053,control_change,32,0,8,,,,,,,,,12,11,56,,,
72058,control_change,32,0,9,,,,,,,,,13,11,56,,,
72060,note_on,13,0,6,,,,,,,,,10,,,,81,0
72060,note_on,0,0,6,,,,,,,,,10,,,,79,80
72060,control_change,32,0,10,,,,,,,,,14,11,56,,,
72063,note_on,0,0,7,,,,,,,,,11,,,,67,80
72063,note_on,13,0,7,,,,,,,,,11,,,,69,0
72079,control_change,19,0,6,,,,,,,,,10,11,57,,,
72082,control_change,19,0,7,,,,,,,,,11,11,57,,,
72085,control_change,32,0,8,,,,,,,,,12,11,57,,,
72090,control_change,32,0,9,,,,,,,,,13,11,57,,,
72092,control_change,32,0,10,,,,,,,,,14,11,57,,,
72110,note_on,31,0,6,,,,,,,,,10,,,,79,0
72111,control_change,1,0,6,,,,,,,,,10,11,58,,,
72113,note_on,31,0,7,,,,,,,,,11,,,,67,0
72114,control_change,1,0,7,,,,,,,,,11,11,58,,,
72117,control_change,32,0,8,,,,,,,,,12,11,58,,,
72120,note_on,9,0,6,,,,,,,,,10,,,,76,80
72120,set_tempo,120,1,0,,,,,,372671,,,,,,,,
72122,control_change,32,0,9,,,,,,,,,13,11,58,,,
72123,note_on,9,0,7,,,,,,,,,11,,,,64,80
72124,control_change,32,0,10,,,,,,,,,14,11,58,,,
72126,note_on,9,0,8,,,,,,,,,12,,,,64,0
72131,note_on,9,0,9,,,,,,,,,13,,,,52,0
72133,note_on,9,0,10,,,,,,,,,14,,,,40,0
72143,control_change,23,0,6,,,,,,,,,10,11,59,,,
72146,control_change,23,0,7,,,,,,,,,11,11,59,,,
72149,control_change,23,0,8,,,,,,,,,12,11,59,,,
72150,note_on,7,0,6,,,,,,,,,10,,,,76,0
72153,note_on,7,0,7,,,,,,,,,11,,,,64,0
72154,control_change,23,0,9,,,,,,,,,13,11,59,,,
72156,control_change,23,0,10,,,,,,,,,14,11,59,,,
72175,control_change,25,0,6,,,,,,,,,10,11,60,,,
72178,control_change,25,0,7,,,,,,,,,11,11,60,,,
72180,note_on,5,0,6,,,,,,,,,10,,,,72,80
72181,control_change,32,0,8,,,,,,,,,12,11,60,,,
72183,note_on,5,0,7,,,,,,,,,11,,,,60,80
72186,control_change,32,0,9,,,,,,,,,13,11,60,,,
72188,control_change,32,0,10,,,,,,,,,14,11,60,,,
72207,control_change,27,0,6,,,,,,,,,10,11,61,,,
72210,control_change,27,0,7,,,,,,,,,11,11,61,,,
72210,note_on,3,0,6,,,,,,,,,10,,,,72,0
72213,control_change,32,0,8,,,,,,,,,12,11,61,,,
72213,note_on,3,0,7,,,,,,,,,11,,,,60,0
72218,control_change,32,0,9,,,,,,,,,13,11,61,,,
72220,control_change,32,0,10,,,,,,,,,14,11,61,,,
72239,control_change,29,0,6,,,,,,,,,10,11,62,,,
72240,note_on,1,0,6,,,,,,,,,10,,,,72,80
72240,set_tempo,120,1,0,,,,,,389610,,,,,,,,
72242,control_change,29,0,7,,,,,,,,,11,11,62,,,
72243,note_on,1,0,7,,,,,,,,,11,,,,60,80
72245,control_change,32,0,8,,,,,,,,,12,11,62,,,
72245,note_on,240,0,2,,,,,,,,,1,,,,79,0
72245,note_on,0,0,2,,,,,,,,,1,,,,77,81
72246,note_on,1,0,8,,,,,,,,,12,,,,62,78
72250,control_change,32,0,9,,,,,,,,,13,11,62,,,
72251,note_on,1,0,9,,,,,,,,,13,,,,50,57
72252,control_change,32,0,10,,,,,,,,,14,11,62,,,
72252,note_on,240,0,3,,,,,,,,,3,,,,64,0
72252,note_on,0,0,3,,,,,,,,,3,,,,62,81
72253,note_on,1,0,10,,,,,,,,,14,,,,38,44
72255,control_change,15,0,6,,,,,,,,,10,11,61,,,
72258,control_change,15,0,7,,,,,,,,,11,11,61,,,
72261,control_change,15,0,8,,,,,,,,,12,11,61,,,
72266,control_change,15,0,9,,,,,,,,,13,11,61,,,
72268,control_change,15,0,10,,,,,,,,,14,11,61,,,
72271,control_change,16,0,6,,,,,,,,,10,11,60,,,
72274,control_change,16,0,7,,,,,,,,,11,11,60,,,
72277,control_change,16,0,8,,,,,,,,,12,11,60,,,
72282,control_change,16,0,9,,,,,,,,,13,11,60,,,
72284,control_change,16,0,10,,,,,,,,,14,11,60,,,
72287,control_change,16,0,6,,,,,,,,,10,11,59,,,
72290,control_change,16,0,7,,,,,,,,,11,11,59,,,
72293,control_change,16,0,8,,,,,,,,,12,11,59,,,
72298,control_change,16,0,9,,,,,,,,,13,11,59,,,
72300,note_on,0,0,6,,,,,,,,,10,,,,71,80
72300,control_change,16,0,10,,,,,,,,,14,11,59,,,
72300,note_on,13,0,6,,,,,,,,,10,,,,72,0
72303,note_on,13,0,7,,,,,,,,,11,,,,60,0
72303,control_change,3,0,6,,,,,,,,,10,11,58,,,
72303,note_on,0,0,7,,,,,,,,,11,,,,59,80
72305,note_on,60,0,2,,,,,,,,,1,,,,72,0
72305,note_on,0,0,2,,,,,,,,,1,,,,71,81
72306,control_change,3,0,7,,,,,,,,,11,11,58,,,
72309,control_change,16,0,8,,,,,,,,,12,11,58,,,
72314,control_change,16,0,9,,,,,,,,,13,11,58,,,
72316,control_change,16,0,10,,,,,,,,,14,11,58,,,
72319,control_change,16,0,6,,,,,,,,,10,11,57,,,
72322,control_change,16,0,7,,,,,,,,,11,11,57,,,
72325,control_change,16,0,8,,,,,,,,,12,11,57,,,
72330,control_change,16,0,9,,,,,,,,,13,11,57,,,
72332,control_change,16,0,10,,,,,,,,,14,11,57,,,
72335,control_change,16,0,6,,,,,,,,,10,11,56,,,
72338,control_change,16,0,7,,,,,,,,,11,11,56,,,
72341,control_change,16,0,8,,,,,,,,,12,11,56,,,
72346,control_change,16,0,9,,,,,,,,,13,11,56,,,
72348,control_change,16,0,10,,,,,,,,,14,11,56,,,
72351,control_change,16,0,6,,,,,,,,,10,11,55,,,
72354,control_change,16,0,7,,,,,,,,,11,11,55,,,
72357,control_change,16,0,8,,,,,,,,,12,11,55,,,
72360,set_tempo,120,1,0,,,,,,372671,,,,,,,,
72360,note_on,9,0,6,,,,,,,,,10,,,,71,0
72360,note_on,0,0,6,,,,,,,,,10,,,,74,80
72362,control_change,16,0,9,,,,,,,,,13,11,55,,,
72363,note_on,9,0,7,,,,,,,,,11,,,,59,0
72363,note_on,0,0,7,,,,,,,,,11,,,,62,80
72364,control_change,16,0,10,,,,,,,,,14,11,55,,,
72365,note_on,60,0,2,,,,,,,,,1,,,,71,0
72365,note_on,0,0,2,,,,,,,,,1,,,,69,81
72366,note_on,0,0,8,,,,,,,,,12,,,,55,78
72366,note_on,9,0,8,,,,,,,,,12,,,,62,0
72367,control_change,7,0,6,,,,,,,,,10,11,54,,,
72370,control_change,7,0,7,,,,,,,,,11,11,54,,,
72371,note_on,9,0,9,,,,,,,,,13,,,,50,0
72371,note_on,0,0,9,,,,,,,,,13,,,,43,57
72372,note_on,120,0,3,,,,,,,,,3,,,,62,0
72372,note_on,0,0,3,,,,,,,,,3,,,,55,81
72373,note_on,0,0,10,,,,,,,,,14,,,,31,44
72373,note_on,9,0,10,,,,,,,,,14,,,,38,0
72373,control_change,7,0,8,,,,,,,,,12,11,54,,,
72378,control_change,7,0,9,,,,,,,,,13,11,54,,,
72380,control_change,7,0,10,,,,,,,,,14,11,54,,,
72383,control_change,16,0,6,,,,,,,,,10,11,53,,,
72386,control_change,16,0,7,,,,,,,,,11,11,53,,,
72389,control_change,16,0,8,,,,,,,,,12,11,53,,,
72394,control_change,16,0,9,,,,,,,,,13,11,53,,,
72396,control_change,16,0,10,,,,,,,,,14,11,53,,,
72399,control_change,16,0,6,,,,,,,,,10,11,52,,,
72402,control_change,16,0,7,,,,,,,,,11,11,52,,,
72405,control_change,16,0,8,,,,,,,,,12,11,52,,,
72410,control_change,16,0,9,,,,,,,,,13,11,52,,,
72412,control_change,16,0,10,,,,,,,,,14,11,52,,,
72415,control_change,16,0,6,,,,,,,,,10,11,51,,,
72418,control_change,16,0,7,,,,,,,,,11,11,51,,,
72420,note_on,0,0,6,,,,,,,,,10,,,,77,80
72420,note_on,5,0,6,,,,,,,,,10,,,,74,0
72421,control_change,16,0,8,,,,,,,,,12,11,51,,,
72423,note_on,5,0,7,,,,,,,,,11,,,,62,0
72423,note_on,0,0,7,,,,,,,,,11,,,,65,80
72425,note_on,60,0,2,,,,,,,,,1,,,,69,0
72425,note_on,0,0,2,,,,,,,,,1,,,,71,81
72426,control_change,16,0,9,,,,,,,,,13,11,51,,,
72428,control_change,16,0,10,,,,,,,,,14,11,51,,,
72431,control_change,11,0,6,,,,,,,,,10,11,50,,,
72434,control_change,11,0,7,,,,,,,,,11,11,50,,,
72437,control_change,16,0,8,,,,,,,,,12,11,50,,,
72442,control_change,16,0,9,,,,,,,,,13,11,50,,,
72444,control_change,16,0,10,,,,,,,,,14,11,50,,,
72447,control_change,16,0,6,,,,,,,,,10,11,49,,,
72450,control_change,16,0,7,,,,,,,,,11,11,49,,,
72453,control_change,16,0,8,,,,,,,,,12,11,49,,,
72458,control_change,16,0,9,,,,,,,,,13,11,49,,,
72460,control_change,16,0,10,,,,,,,,,14,11,49,,,
72463,control_change,16,0,6,,,,,,,,,10,11,48,,,
72466,control_change,16,0,7,,,,,,,,,11,11,48,,,
72469,control_change,16,0,8,,,,,,,,,12,11,48,,,
72470,note_on,7,0,6,,,,,,,,,10,,,,77,0
72473,note_on,7,0,7,,,,,,,,,11,,,,65,0
72474,control_change,16,0,9,,,,,,,,,13,11,48,,,
72475,note_on,0,0,2,,,,,,,,,1,,,,77,0
72475,note_on,50,0,2,,,,,,,,,1,,,,71,0
72476,control_change,16,0,10,,,,,,,,,14,11,48,,,
72479,control_change,9,0,6,,,,,,,,,10,11,47,,,
72480,set_tempo,120,1,0,,,,,,389610,,,,,,,,
72480,note_on,1,0,6,,,,,,,,,10,,,,77,80
72482,note_on,110,0,3,,,,,,,,,3,,,,55,0
72482,control_change,9,0,7,,,,,,,,,11,11,47,,,
72483,note_on,1,0,7,,,,,,,,,11,,,,65,80
72485,control_change,16,0,8,,,,,,,,,12,11,47,,,
72485,note_on,10,0,2,,,,,,,,,1,,,,71,81
72485,note_on,0,0,2,,,,,,,,,1,,,,77,81
72486,note_on,0,0,8,,,,,,,,,12,,,,60,78
72486,note_on,1,0,8,,,,,,,,,12,,,,55,0
72490,control_change,16,0,9,,,,,,,,,13,11,47,,,
72491,note_on,0,0,9,,,,,,,,,13,,,,48,57
72491,note_on,1,0,9,,,,,,,,,13,,,,43,0
72492,control_change,16,0,10,,,,,,,,,14,11,47,,,
72492,note_on,10,0,3,,,,,,,,,3,,,,60,81
72493,note_on,1,0,10,,,,,,,,,14,,,,31,0
72493,note_on,0,0,10,,,,,,,,,14,,,,36,44
72600,set_tempo,120,1,0,,,,,,372671,,,,,,,,
72600,note_on,120,0,6,,,,,,,,,10,,,,77,0
72600,note_on,0,0,6,,,,,,,,,10,,,,76,80
72603,note_on,120,0,7,,,,,,,,,11,,,,65,0
72603,note_on,0,0,7,,,,,,,,,11,,,,64,80
72605,note_on,0,0,2,,,,,,,,,1,,,,72,81
72605,note_on,0,0,2,,,,,,,,,1,,,,76,81
72605,note_on,0,0,2,,,,,,,,,1,,,,71,0
72605,note_on,120,0,2,,,,,,,,,1,,,,77,0
72606,note_on,120,0,8,,,,,,,,,12,,,,60,0
72611,note_on,120,0,9,,,,,,,,,13,,,,48,0
72613,note_on,120,0,10,,,,,,,,,14,,,,36,0
72710,note_on,110,0,6,,,,,,,,,10,,,,76,0
72713,note_on,110,0,7,,,,,,,,,11,,,,64,0
72715,note_on,110,0,2,,,,,,,,,1,,,,72,0
72715,note_on,0,0,2,,,,,,,,,1,,,,76,0
72720,note_on,0,0,6,,,,,,,,,10,,,,77,80
72720,set_tempo,120,1,0,,,,,,389610,,,,,,,,
72720,control_change,10,0,6,,,,,,,,,10,11,47,,,
72722,note_on,230,0,3,,,,,,,,,3,,,,60,0
72723,note_on,0,0,7,,,,,,,,,11,,,,65,80
72723,control_change,10,0,7,,,,,,,,,11,11,47,,,
72725,note_on,0,0,2,,,,,,,,,1,,,,74,81
72725,note_on,10,0,2,,,,,,,,,1,,,,65,81
72726,control_change,120,0,8,,,,,,,,,12,11,47,,,
72726,note_on,0,0,8,,,,,,,,,12,,,,58,78
72731,control_change,120,0,9,,,,,,,,,13,11,47,,,
72731,note_on,0,0,9,,,,,,,,,13,,,,46,57
72732,note_on,10,0,3,,,,,,,,,3,,,,58,81
72733,note_on,0,0,10,,,,,,,,,14,,,,34,44
72733,control_change,120,0,10,,,,,,,,,14,11,47,,,
72743,control_change,23,0,6,,,,,,,,,10,11,48,,,
72746,control_change,23,0,7,,,,,,,,,11,11,48,,,
72749,control_change,23,0,8,,,,,,,,,12,11,48,,,
72754,control_change,23,0,9,,,,,,,,,13,11,48,,,
72756,control_change,23,0,10,,,,,,,,,14,11,48,,,
72767,control_change,24,0,6,,,,,,,,,10,11,49,,,
72770,control_change,24,0,7,,,,,,,,,11,11,49,,,
72773,control_change,24,0,8,,,,,,,,,12,11,49,,,
72778,control_change,24,0,9,,,,,,,,,13,11,49,,,
72780,note_on,13,0,6,,,,,,,,,10,,,,77,0
72780,note_on,0,0,6,,,,,,,,,10,,,,86,80
72780,control_change,24,0,10,,,,,,,,,14,11,49,,,
72783,note_on,13,0,7,,,,,,,,,11,,,,65,0
72783,note_on,0,0,7,,,,,,,,,11,,,,74,80
72791,control_change,11,0,6,,,,,,,,,10,11,50,,,
72794,control_change,11,0,7,,,,,,,,,11,11,50,,,
72797,control_change,24,0,8,,,,,,,,,12,11,50,,,
72802,control_change,24,0,9,,,,,,,,,13,11,50,,,
72804,control_change,24,0,10,,,,,,,,,14,11,50,,,
72815,control_change,24,0,6,,,,,,,,,10,11,51,,,
72818,control_change,24,0,7,,,,,,,,,11,11,51,,,
72821,control_change,24,0,8,,,,,,,,,12,11,51,,,
72826,control_change,24,0,9,,,,,,,,,13,11,51,,,
72828,control_change,24,0,10,,,,,,,,,14,11,51,,,
72830,note_on,15,0,6,,,,,,,,,10,,,,86,0
72833,note_on,15,0,7,,,,,,,,,11,,,,74,0
72839,control_change,9,0,6,,,,,,,,,10,11,52,,,
72840,note_on,1,0,6,,,,,,,,,10,,,,86,80
72840,set_tempo,120,1,0,,,,,,372671,,,,,,,,
72842,control_change,9,0,7,,,,,,,,,11,11,52,,,
72843,note_on,1,0,7,,,,,,,,,11,,,,74,80
72845,control_change,24,0,8,,,,,,,,,12,11,52,,,
72846,note_on,1,0,8,,,,,,,,,12,,,,58,0
72850,control_change,24,0,9,,,,,,,,,13,11,52,,,
72851,note_on,1,0,9,,,,,,,,,13,,,,46,0
72852,control_change,24,0,10,,,,,,,,,14,11,52,,,
72853,note_on,1,0,10,,,,,,,,,14,,,,34,0
72863,control_change,23,0,6,,,,,,,,,10,11,53,,,
72866,control_change,23,0,7,,,,,,,,,11,11,53,,,
72869,control_change,23,0,8,,,,,,,,,12,11,53,,,
72870,note_on,7,0,6,,,,,,,,,10,,,,86,0
72873,note_on,7,0,7,,,,,,,,,11,,,,74,0
72874,control_change,23,0,9,,,,,,,,,13,11,53,,,
72876,control_change,23,0,10,,,,,,,,,14,11,53,,,
72887,control_change,17,0,6,,,,,,,,,10,11,54,,,
72890,control_change,17,0,7,,,,,,,,,11,11,54,,,
72893,control_change,24,0,8,,,,,,,,,12,11,54,,,
72898,control_change,24,0,9,,,,,,,,,13,11,54,,,
72900,note_on,13,0,6,,,,,,,,,10,,,,86,80
72900,control_change,24,0,10,,,,,,,,,14,11,54,,,
72903,note_on,13,0,7,,,,,,,,,11,,,,74,80
72911,control_change,11,0,6,,,,,,,,,10,11,55,,,
72914,control_change,11,0,7,,,,,,,,,11,11,55,,,
72917,control_change,24,0,8,,,,,,,,,12,11,55,,,
72922,control_change,24,0,9,,,,,,,,,13,11,55,,,
72924,control_change,24,0,10,,,,,,,,,14,11,55,,,
72930,note_on,19,0,6,,,,,,,,,10,,,,86,0
72933,note_on,19,0,7,,,,,,,,,11,,,,74,0
72935,control_change,5,0,6,,,,,,,,,10,11,56,,,
72938,control_change,5,0,7,,,,,,,,,11,11,56,,,
72941,control_change,24,0,8,,,,,,,,,12,11,56,,,
72946,control_change,24,0,9,,,,,,,,,13,11,56,,,
72948,control_change,24,0,10,,,,,,,,,14,11,56,,,
72959,control_change,24,0,6,,,,,,,,,10,11,57,,,
72960,set_tempo,120,1,0,,,,,,389610,,,,,,,,
72960,note_on,1,0,6,,,,,,,,,10,,,,86,80
72962,control_change,24,0,7,,,,,,,,,11,11,57,,,
72963,note_on,1,0,7,,,,,,,,,11,,,,74,80
72965,note_on,0,0,2,,,,,,,,,1,,,,72,81
72965,note_on,240,0,2,,,,,,,,,1,,,,74,0
72965,control_change,24,0,8,,,,,,,,,12,11,57,,,
72966,note_on,1,0,8,,,,,,,,,12,,,,57,78
72970,control_change,24,0,9,,,,,,,,,13,11,57,,,
72971,note_on,1,0,9,,,,,,,,,13,,,,45,57
72972,note_on,0,0,3,,,,,,,,,3,,,,57,81
72972,note_on,240,0,3,,,,,,,,,3,,,,58,0
72972,control_change,24,0,10,,,,,,,,,14,11,57,,,
72973,note_on,1,0,10,,,,,,,,,14,,,,33,44
72983,control_change,23,0,6,,,,,,,,,10,11,58,,,
72986,control_change,23,0,7,,,,,,,,,11,11,58,,,
72989,control_change,23,0,8,,,,,,,,,12,11,58,,,
72994,control_change,23,0,9,,,,,,,,,13,11,58,,,
72996,control_change,23,0,10,,,,,,,,,14,11,58,,,
73007,control_change,24,0,6,,,,,,,,,10,11,59,,,
73010,control_change,24,0,7,,,,,,,,,11,11,59,,,
73013,control_change,24,0,8,,,,,,,,,12,11,59,,,
73018,control_change,24,0,9,,,,,,,,,13,11,59,,,
73020,control_change,24,0,10,,,,,,,,,14,11,59,,,
73020,note_on,0,0,6,,,,,,,,,10,,,,84,80
73020,note_on,13,0,6,,,,,,,,,10,,,,86,0
73023,note_on,13,0,7,,,,,,,,,11,,,,74,0
73023,note_on,0,0,7,,,,,,,,,11,,,,72,80
73031,control_change,11,0,6,,,,,,,,,10,11,60,,,
73034,control_change,11,0,7,,,,,,,,,11,11,60,,,
73037,control_change,24,0,8,,,,,,,,,12,11,60,,,
73042,control_change,24,0,9,,,,,,,,,13,11,60,,,
73044,control_change,24,0,10,,,,,,,,,14,11,60,,,
73055,control_change,24,0,6,,,,,,,,,10,11,61,,,
73058,control_change,24,0,7,,,,,,,,,11,11,61,,,
73061,control_change,24,0,8,,,,,,,,,12,11,61,,,
73066,control_change,24,0,9,,,,,,,,,13,11,61,,,
73068,control_change,24,0,10,,,,,,,,,14,11,61,,,
73070,note_on,15,0,6,,,,,,,,,10,,,,84,0
73073,note_on,15,0,7,,,,,,,,,11,,,,72,0
73079,control_change,9,0,6,,,,,,,,,10,11,62,,,
73080,set_tempo,120,1,0,,,,,,372671,,,,,,,,
73080,note_on,1,0,6,,,,,,,,,10,,,,82,80
73082,control_change,9,0,7,,,,,,,,,11,11,62,,,
73083,note_on,1,0,7,,,,,,,,,11,,,,70,80
73085,control_change,24,0,8,,,,,,,,,12,11,62,,,
73085,note_on,0,0,2,,,,,,,,,1,,,,69,81
73085,note_on,120,0,2,,,,,,,,,1,,,,65,0
73086,note_on,0,0,8,,,,,,,,,12,,,,53,78
73086,note_on,1,0,8,,,,,,,,,12,,,,57,0
73090,control_change,24,0,9,,,,,,,,,13,11,62,,,
73091,note_on,1,0,9,,,,,,,,,13,,,,45,0
73091,note_on,0,0,9,,,,,,,,,13,,,,41,57
73092,note_on,0,0,3,,,,,,,,,3,,,,53,81
73092,note_on,120,0,3,,,,,,,,,3,,,,57,0
73092,control_change,24,0,10,,,,,,,,,14,11,62,,,
73093,note_on,1,0,10,,,,,,,,,14,,,,33,0
73093,note_on,0,0,10,,,,,,,,,14,,,,29,44
73103,control_change,23,0,6,,,,,,,,,10,11,61,,,
73106,control_change,23,0,7,,,,,,,,,11,11,61,,,
73109,control_change,23,0,8,,,,,,,,,12,11,61,,,
73110,note_on,7,0,6,,,,,,,,,10,,,,82,0
73113,note_on,7,0,7,,,,,,,,,11,,,,70,0
73114,control_change,23,0,9,,,,,,,,,13,11,61,,,
73116,control_change,23,0,10,,,,,,,,,14,11,61,,,
73127,control_change,17,0,6,,,,,,,,,10,11,60,,,
73130,control_change,17,0,7,,,,,,,,,11,11,60,,,
73133,control_change,24,0,8,,,,,,,,,12,11,60,,,
73138,control_change,24,0,9,,,,,,,,,13,11,60,,,
73140,control_change,24,0,10,,,,,,,,,14,11,60,,,
73140,note_on,13,0,6,,,,,,,,,10,,,,81,80
73143,note_on,13,0,7,,,,,,,,,11,,,,69,80
73145,note_on,60,0,2,,,,,,,,,1,,,,72,0
73145,note_on,0,0,2,,,,,,,,,1,,,,77,81
73151,control_change,11,0,6,,,,,,,,,10,11,59,,,
73154,control_change,11,0,7,,,,,,,,,11,11,59,,,
73157,control_change,24,0,8,,,,,,,,,12,11,59,,,
73162,control_change,24,0,9,,,,,,,,,13,11,59,,,
73164,control_change,24,0,10,,,,,,,,,14,11,59,,,
73170,note_on,19,0,6,,,,,,,,,10,,,,81,0
73173,note_on,19,0,7,,,,,,,,,11,,,,69,0
73175,control_change,5,0,6,,,,,,,,,10,11,58,,,
73178,control_change,5,0,7,,,,,,,,,11,11,58,,,
73181,control_change,24,0,8,,,,,,,,,12,11,58,,,
73186,control_change,24,0,9,,,,,,,,,13,11,58,,,
73188,control_change,24,0,10,,,,,,,,,14,11,58,,,
73195,note_on,0,0,2,,,,,,,,,1,,,,69,0
73195,note_on,50,0,2,,,,,,,,,1,,,,77,0
73199,control_change,24,0,6,,,,,,,,,10,11,57,,,
73200,set_tempo,120,1,0,,,,,,409556,,,,,,,,
73200,note_on,1,0,6,,,,,,,,,10,,,,81,80
73202,control_change,24,0,7,,,,,,,,,11,11,57,,,
73203,note_on,1,0,7,,,,,,,,,11,,,,69,80
73205,control_change,24,0,8,,,,,,,,,12,11,57,,,
73205,note_on,10,0,2,,,,,,,,,1,,,,74,81
73206,note_on,0,0,8,,,,,,,,,12,,,,58,78
73206,note_on,1,0,8,,,,,,,,,12,,,,53,0
73210,control_change,24,0,9,,,,,,,,,13,11,57,,,
73211,note_on,0,0,9,,,,,,,,,13,,,,46,57
73211,note_on,1,0,9,,,,,,,,,13,,,,41,0
73212,note_on,120,0,3,,,,,,,,,3,,,,53,0
73212,note_on,0,0,3,,,,,,,,,3,,,,58,81
73212,control_change,24,0,10,,,,,,,,,14,11,57,,,
73213,note_on,1,0,10,,,,,,,,,14,,,,29,0
73213,note_on,0,0,10,,,,,,,,,14,,,,34,44
73223,control_change,23,0,6,,,,,,,,,10,11,56,,,
73226,control_change,23,0,7,,,,,,,,,11,11,56,,,
73229,control_change,23,0,8,,,,,,,,,12,11,56,,,
73234,control_change,23,0,9,,,,,,,,,13,11,56,,,
73236,control_change,23,0,10,,,,,,,,,14,11,56,,,
73247,control_change,24,0,6,,,,,,,,,10,11,55,,,
73250,control_change,24,0,7,,,,,,,,,11,11,55,,,
73253,control_change,24,0,8,,,,,,,,,12,11,55,,,
73258,control_change,24,0,9,,,,,,,,,13,11,55,,,
73260,note_on,13,0,6,,,,,,,,,10,,,,81,0
73260,control_change,24,0,10,,,,,,,,,14,11,55,,,
73260,note_on,0,0,6,,,,,,,,,10,,,,79,80
73263,note_on,13,0,7,,,,,,,,,11,,,,69,0
73263,note_on,0,0,7,,,,,,,,,11,,,,67,80
73265,note_on,60,0,2,,,,,,,,,1,,,,79,81
73271,control_change,11,0,6,,,,,,,,,10,11,54,,,
73274,control_change,11,0,7,,,,,,,,,11,11,54,,,
73277,control_change,24,0,8,,,,,,,,,12,11,54,,,
73282,control_change,24,0,9,,,,,,,,,13,11,54,,,
73284,control_change,24,0,10,,,,,,,,,14,11,54,,,
73295,control_change,24,0,6,,,,,,,,,10,11,53,,,
73298,control_change,24,0,7,,,,,,,,,11,11,53,,,
73301,control_change,24,0,8,,,,,,,,,12,11,53,,,
73306,control_change,24,0,9,,,,,,,,,13,11,53,,,
73308,control_change,24,0,10,,,,,,,,,14,11,53,,,
73310,note_on,15,0,6,,,,,,,,,10,,,,79,0
73313,note_on,15,0,7,,,,,,,,,11,,,,67,0
73319,control_change,9,0,6,,,,,,,,,10,11,52,,,
73320,note_on,1,0,6,,,,,,,,,10,,,,77,80
73320,set_tempo,120,1,0,,,,,,389610,,,,,,,,
73322,control_change,9,0,7,,,,,,,,,11,11,52,,,
73323,note_on,1,0,7,,,,,,,,,11,,,,65,80
73325,note_on,0,0,2,,,,,,,,,1,,,,70,81
73325,note_on,0,0,2,,,,,,,,,1,,,,74,0
73325,note_on,60,0,2,,,,,,,,,1,,,,79,0
73325,control_change,24,0,8,,,,,,,,,12,11,52,,,
73325,note_on,0,0,2,,,,,,,,,1,,,,77,81
73326,note_on,0,0,8,,,,,,,,,12,,,,60,78
73326,note_on,1,0,8,,,,,,,,,12,,,,58,0
73330,control_change,24,0,9,,,,,,,,,13,11,52,,,
73331,note_on,1,0,9,,,,,,,,,13,,,,46,0
73331,note_on,0,0,9,,,,,,,,,13,,,,48,57
73332,note_on,0,0,3,,,,,,,,,3,,,,60,81
73332,control_change,24,0,10,,,,,,,,,14,11,52,,,
73332,note_on,120,0,3,,,,,,,,,3,,,,58,0
73333,note_on,0,0,10,,,,,,,,,14,,,,36,44
73333,note_on,1,0,10,,,,,,,,,14,,,,34,0
73343,control_change,23,0,6,,,,,,,,,10,11,51,,,
73346,control_change,23,0,7,,,,,,,,,11,11,51,,,
73349,control_change,23,0,8,,,,,,,,,12,11,51,,,
73350,note_on,7,0,6,,,,,,,,,10,,,,77,0
73353,note_on,7,0,7,,,,,,,,,11,,,,65,0
73354,control_change,23,0,9,,,,,,,,,13,11,51,,,
73356,control_change,23,0,10,,,,,,,,,14,11,51,,,
73367,control_change,17,0,6,,,,,,,,,10,11,50,,,
73370,control_change,17,0,7,,,,,,,,,11,11,50,,,
73373,control_change,24,0,8,,,,,,,,,12,11,50,,,
73378,control_change,24,0,9,,,,,,,,,13,11,50,,,
73380,note_on,13,0,6,,,,,,,,,10,,,,76,80
73380,control_change,24,0,10,,,,,,,,,14,11,50,,,
73383,note_on,13,0,7,,,,,,,,,11,,,,64,80
73385,note_on,0,0,2,,,,,,,,,1,,,,76,81
73385,note_on,60,0,2,,,,,,,,,1,,,,77,0
73391,control_change,11,0,6,,,,,,,,,10,11,49,,,
73394,control_change,11,0,7,,,,,,,,,11,11,49,,,
73397,control_change,24,0,8,,,,,,,,,12,11,49,,,
73402,control_change,24,0,9,,,,,,,,,13,11,49,,,
73404,control_change,24,0,10,,,,,,,,,14,11,49,,,
73410,note_on,19,0,6,,,,,,,,,10,,,,76,0
73413,note_on,19,0,7,,,,,,,,,11,,,,64,0
73415,control_change,5,0,6,,,,,,,,,10,11,48,,,
73418,control_change,5,0,7,,,,,,,,,11,11,48,,,
73421,control_change,24,0,8,,,,,,,,,12,11,48,,,
73426,control_change,24,0,9,,,,,,,,,13,11,48,,,
73428,control_change,24,0,10,,,,,,,,,14,11,48,,,
73435,note_on,50,0,2,,,,,,,,,1,,,,76,0
73435,note_on,0,0,2,,,,,,,,,1,,,,70,0
73439,control_change,24,0,6,,,,,,,,,10,11,47,,,
73440,set_tempo,120,1,0,,,,,,428571,,,,,,,,
73440,note_on,1,0,6,,,,,,,,,10,,,,77,80
73442,note_on,110,0,3,,,,,,,,,3,,,,60,0
73442,control_change,24,0,7,,,,,,,,,11,11,47,,,
73443,note_on,1,0,7,,,,,,,,,11,,,,65,80
73445,note_on,0,0,2,,,,,,,,,1,,,,77,81
73445,control_change,24,0,8,,,,,,,,,12,11,47,,,
73445,note_on,10,0,2,,,,,,,,,1,,,,69,81
73446,note_on,1,0,8,,,,,,,,,12,,,,60,0
73446,note_on,0,0,8,,,,,,,,,12,,,,53,78
73450,control_change,24,0,9,,,,,,,,,13,11,47,,,
73451,note_on,0,0,9,,,,,,,,,13,,,,41,57
73451,note_on,1,0,9,,,,,,,,,13,,,,48,0
73452,control_change,24,0,10,,,,,,,,,14,11,47,,,
73452,note_on,10,0,3,,,,,,,,,3,,,,53,81
73453,note_on,0,0,10,,,,,,,,,14,,,,29,44
73453,note_on,1,0,10,,,,,,,,,14,,,,36,0
73500,note_on,60,0,6,,,,,,,,,10,,,,77,0
73500,note_on,0,0,6,,,,,,,,,10,,,,72,100
73500,set_tempo,60,1,0,,,,,,461538,,,,,,,,
73550,note_on,50,0,6,,,,,,,,,10,,,,72,0
73560,set_tempo,60,1,0,,,,,,428571,,,,,,,,
73560,note_on,10,0,6,,,,,,,,,10,,,,72,100
73563,note_on,120,0,7,,,,,,,,,11,,,,65,0
73565,note_on,0,0,2,,,,,,,,,1,,,,69,0
73565,note_on,120,0,2,,,,,,,,,1,,,,77,0
73566,note_on,120,0,8,,,,,,,,,12,,,,53,0
73571,note_on,120,0,9,,,,,,,,,13,,,,41,0
73572,note_on,120,0,3,,,,,,,,,3,,,,53,0
73573,note_on,120,0,10,,,,,,,,,14,,,,29,0
73590,note_on,30,0,6,,,,,,,,,10,,,,72,0
73620,note_on,30,0,6,,,,,,,,,10,,,,72,100
73650,note_on,30,0,6,,,,,,,,,10,,,,72,0
73680,set_tempo,120,1,0,,,,,,431655,,,,,,,,
73680,control_change,30,0,6,,,,,,,,,10,11,37,,,
73680,note_on,0,0,6,,,,,,,,,10,,,,69,100
73683,control_change,3960,0,1,,,,,,,,,0,11,37,,,
73683,note_on,0,0,1,,,,,,,,,0,,,,81,82
73683,note_on,120,0,7,,,,,,,,,11,,,,57,100
73685,control_change,120,0,2,,,,,,,,,1,11,37,,,
73685,note_on,0,0,2,,,,,,,,,1,,,,72,81
73686,note_on,120,0,8,,,,,,,,,12,,,,53,62
73691,note_on,120,0,9,,,,,,,,,13,,,,53,53
73692,note_on,0,0,3,,,,,,,,,3,,,,53,81
73692,control_change,120,0,3,,,,,,,,,3,11,37,,,
73692,note_on,0,0,3,,,,,,,,,3,,,,57,81
73693,note_on,120,0,10,,,,,,,,,14,,,,41,40
73704,control_change,24,0,6,,,,,,,,,10,11,39,,,
73707,control_change,24,0,1,,,,,,,,,0,11,39,,,
73709,control_change,24,0,2,,,,,,,,,1,11,39,,,
73716,control_change,24,0,3,,,,,,,,,3,11,39,,,
73728,control_change,24,0,6,,,,,,,,,10,11,41,,,
73731,control_change,24,0,1,,,,,,,,,0,11,41,,,
73733,control_change,24,0,2,,,,,,,,,1,11,41,,,
73740,control_change,24,0,3,,,,,,,,,3,11,41,,,
73743,note_on,0,0,7,,,,,,,,,11,,,,60,100
73743,note_on,60,0,7,,,,,,,,,11,,,,57,0
73752,control_change,24,0,6,,,,,,,,,10,11,43,,,
73755,control_change,24,0,1,,,,,,,,,0,11,43,,,
73757,control_change,24,0,2,,,,,,,,,1,11,43,,,
73764,control_change,24,0,3,,,,,,,,,3,11,43,,,
73776,control_change,24,0,6,,,,,,,,,10,11,45,,,
73779,control_change,24,0,1,,,,,,,,,0,11,45,,,
73781,control_change,24,0,2,,,,,,,,,1,11,45,,,
73788,control_change,24,0,3,,,,,,,,,3,11,45,,,
73793,note_on,50,0,7,,,,,,,,,11,,,,60,0
73800,set_tempo,120,1,0,,,,,,392157,,,,,,,,
73800,control_change,24,0,6,,,,,,,,,10,11,47,,,
73803,control_change,24,0,1,,,,,,,,,0,11,47,,,
73803,note_on,10,0,7,,,,,,,,,11,,,,60,100
73804,control_change,4080,0,4,,,,,,,,,4,11,47,,,
73804,note_on,0,0,4,,,,,,,,,4,,,,60,86
73805,control_change,24,0,2,,,,,,,,,1,11,47,,,
73806,note_on,120,0,8,,,,,,,,,12,,,,53,0
73811,note_on,120,0,9,,,,,,,,,13,,,,53,0
73812,control_change,24,0,3,,,,,,,,,3,11,47,,,
73813,note_on,120,0,10,,,,,,,,,14,,,,41,0
73833,note_on,30,0,7,,,,,,,,,11,,,,60,0
73863,note_on,30,0,7,,,,,,,,,11,,,,60,100
73893,note_on,30,0,7,,,,,,,,,11,,,,60,0
73910,note_on,110,0,6,,,,,,,,,10,,,,69,0
73913,note_on,110,0,1,,,,,,,,,0,,,,81,0
73920,set_tempo,120,1,0,,,,,,401338,,,,,,,,
73920,note_on,10,0,6,,,,,,,,,10,,,,72,100
73923,note_on,30,0,7,,,,,,,,,11,,,,58,100
73923,note_on,10,0,1,,,,,,,,,0,,,,84,82
73924,note_on,120,0,4,,,,,,,,,4,,,,60,0
73926,note_on,120,0,8,,,,,,,,,12,,,,55,62
73931,note_on,120,0,9,,,,,,,,,13,,,,55,53
73932,note_on,120,0,3,,,,,,,,,3,,,,53,0
73932,note_on,0,0,3,,,,,,,,,3,,,,57,0
73932,note_on,0,0,3,,,,,,,,,3,,,,58,81
73932,note_on,0,0,3,,,,,,,,,3,,,,55,81
73933,note_on,120,0,10,,,,,,,,,14,,,,43,40
73980,note_on,60,0,6,,,,,,,,,10,,,,72,0
73980,note_on,0,0,6,,,,,,,,,10,,,,70,100
73983,note_on,0,0,1,,,,,,,,,0,,,,82,82
73983,note_on,60,0,1,,,,,,,,,0,,,,84,0
73983,note_on,60,0,7,,,,,,,,,11,,,,58,0
73983,note_on,0,0,7,,,,,,,,,11,,,,60,100
74033,note_on,50,0,7,,,,,,,,,11,,,,60,0
74040,set_tempo,120,1,0,,,,,,380952,,,,,,,,
74040,note_on,0,0,6,,,,,,,,,10,,,,62,100
74040,note_on,60,0,6,,,,,,,,,10,,,,70,0
74043,note_on,0,0,1,,,,,,,,,0,,,,74,82
74043,note_on,10,0,7,,,,,,,,,11,,,,60,100
74043,note_on,60,0,1,,,,,,,,,0,,,,82,0
74044,note_on,120,0,4,,,,,,,,,4,,,,60,86
74046,note_on,120,0,8,,,,,,,,,12,,,,55,0
74051,note_on,120,0,9,,,,,,,,,13,,,,55,0
74053,note_on,120,0,10,,,,,,,,,14,,,,43,0
74073,note_on,30,0,7,,,,,,,,,11,,,,60,0
74100,note_on,60,0,6,,,,,,,,,10,,,,62,0
74100,note_on,0,0,6,,,,,,,,,10,,,,64,100
74103,note_on,60,0,1,,,,,,,,,0,,,,74,0
74103,note_on,0,0,1,,,,,,,,,0,,,,76,82
74103,note_on,30,0,7,,,,,,,,,11,,,,60,100
74133,note_on,30,0,7,,,,,,,,,11,,,,60,0
74150,note_on,50,0,6,,,,,,,,,10,,,,64,0
74153,note_on,50,0,1,,,,,,,,,0,,,,76,0
74160,set_tempo,120,1,0,,,,,,389610,,,,,,,,
74160,note_on,10,0,6,,,,,,,,,10,,,,67,100
74162,note_on,230,0,3,,,,,,,,,3,,,,55,0
74162,note_on,0,0,3,,,,,,,,,3,,,,58,0
74163,note_on,10,0,1,,,,,,,,,0,,,,79,82
74163,note_on,30,0,7,,,,,,,,,11,,,,57,100
74164,note_on,120,0,4,,,,,,,,,4,,,,60,0
74166,note_on,120,0,8,,,,,,,,,12,,,,57,62
74171,note_on,120,0,9,,,,,,,,,13,,,,57,53
74172,note_on,10,0,3,,,,,,,,,3,,,,57,81
74172,note_on,0,0,3,,,,,,,,,3,,,,60,81
74173,note_on,120,0,10,,,,,,,,,14,,,,45,40
74220,note_on,60,0,6,,,,,,,,,10,,,,67,0
74220,note_on,0,0,6,,,,,,,,,10,,,,65,100
74223,note_on,0,0,7,,,,,,,,,11,,,,60,100
74223,note_on,60,0,7,,,,,,,,,11,,,,57,0
74223,note_on,60,0,1,,,,,,,,,0,,,,79,0
74223,note_on,0,0,1,,,,,,,,,0,,,,77,82
74273,note_on,50,0,7,,,,,,,,,11,,,,60,0
74280,note_on,60,0,6,,,,,,,,,10,,,,65,0
74280,note_on,0,0,6,,,,,,,,,10,,,,64,100
74280,set_tempo,120,1,0,,,,,,372671,,,,,,,,
74283,note_on,10,0,7,,,,,,,,,11,,,,60,100
74283,note_on,0,0,1,,,,,,,,,0,,,,76,82
74283,note_on,60,0,1,,,,,,,,,0,,,,77,0
74284,note_on,120,0,4,,,,,,,,,4,,,,60,86
74286,note_on,120,0,8,,,,,,,,,12,,,,57,0
74291,note_on,120,0,9,,,,,,,,,13,,,,57,0
74293,note_on,120,0,10,,,,,,,,,14,,,,45,0
74313,note_on,30,0,7,,,,,,,,,11,,,,60,0
74340,note_on,60,0,6,,,,,,,,,10,,,,64,0
74340,note_on,0,0,6,,,,,,,,,10,,,,62,100
74343,note_on,60,0,1,,,,,,,,,0,,,,76,0
74343,note_on,30,0,7,,,,,,,,,11,,,,60,100
74343,note_on,0,0,1,,,,,,,,,0,,,,74,82
74352,note_on,0,0,3,,,,,,,,,3,,,,65,81
74352,note_on,180,0,3,,,,,,,,,3,,,,60,0
74373,note_on,30,0,7,,,,,,,,,11,,,,60,0
74390,note_on,50,0,6,,,,,,,,,10,,,,62,0
74393,note_on,50,0,1,,,,,,,,,0,,,,74,0
74400,note_on,10,0,6,,,,,,,,,10,,,,60,100
74400,set_tempo,120,1,0,,,,,,389610,,,,,,,,
74403,note_on,30,0,7,,,,,,,,,11,,,,64,100
74403,note_on,10,0,1,,,,,,,,,0,,,,72,82
74404,note_on,120,0,4,,,,,,,,,4,,,,60,0
74406,note_on,120,0,8,,,,,,,,,12,,,,60,62
74411,note_on,120,0,9,,,,,,,,,13,,,,60,53
74412,note_on,0,0,3,,,,,,,,,3,,,,60,81
74412,note_on,60,0,3,,,,,,,,,3,,,,65,0
74412,note_on,0,0,3,,,,,,,,,3,,,,57,0
74412,note_on,0,0,3,,,,,,,,,3,,,,64,81
74413,note_on,120,0,10,,,,,,,,,14,,,,48,40
74463,note_on,60,0,7,,,,,,,,,11,,,,64,0
74463,note_on,0,0,7,,,,,,,,,11,,,,60,100
74513,note_on,50,0,7,,,,,,,,,11,,,,60,0
74520,set_tempo,120,1,0,,,,,,372671,,,,,,,,
74520,note_on,120,0,6,,,,,,,,,10,,,,60,0
74520,note_on,0,0,6,,,,,,,,,10,,,,62,100
74523,note_on,120,0,1,,,,,,,,,0,,,,72,0
74523,note_on,0,0,1,,,,,,,,,0,,,,74,82
74523,note_on,10,0,7,,,,,,,,,11,,,,60,100
74524,note_on,120,0,4,,,,,,,,,4,,,,60,86
74526,note_on,120,0,8,,,,,,,,,12,,,,60,0
74531,note_on,120,0,9,,,,,,,,,13,,,,60,0
74532,note_on,0,0,3,,,,,,,,,3,,,,64,0
74532,note_on,120,0,3,,,,,,,,,3,,,,60,0
74533,note_on,120,0,10,,,,,,,,,14,,,,48,0
74550,note_on,0,0,6,,,,,,,,,10,,,,64,100
74550,note_on,30,0,6,,,,,,,,,10,,,,62,0
74553,note_on,30,0,7,,,,,,,,,11,,,,60,0
74553,note_on,30,0,1,,,,,,,,,0,,,,74,0
74553,note_on,0,0,1,,,,,,,,,0,,,,76,82
74580,note_on,30,0,6,,,,,,,,,10,,,,64,0
74580,note_on,0,0,6,,,,,,,,,10,,,,65,100
74583,note_on,30,0,7,,,,,,,,,11,,,,60,100
74583,note_on,0,0,1,,,,,,,,,0,,,,77,82
74583,note_on,30,0,1,,,,,,,,,0,,,,76,0
74610,note_on,30,0,6,,,,,,,,,10,,,,65,0
74610,note_on,0,0,6,,,,,,,,,10,,,,67,100
74613,note_on,30,0,7,,,,,,,,,11,,,,60,0
74613,note_on,0,0,1,,,,,,,,,0,,,,79,82
74613,note_on,30,0,1,,,,,,,,,0,,,,77,0
74630,note_on,20,0,6,,,,,,,,,10,,,,67,0
74633,note_on,20,0,1,,,,,,,,,0,,,,79,0
74640,note_on,10,0,6,,,,,,,,,10,,,,69,100
74640,set_tempo,120,1,0,,,,,,389610,,,,,,,,
74643,note_on,10,0,1,,,,,,,,,0,,,,81,82
74643,note_on,30,0,7,,,,,,,,,11,,,,57,100
74644,note_on,120,0,4,,,,,,,,,4,,,,60,0
74646,note_on,120,0,8,,,,,,,,,12,,,,53,62
74651,note_on,120,0,9,,,,,,,,,13,,,,53,53
74652,note_on,120,0,3,,,,,,,,,3,,,,53,81
74652,note_on,0,0,3,,,,,,,,,3,,,,57,81
74653,note_on,120,0,10,,,,,,,,,14,,,,41,40
74703,note_on,0,0,7,,,,,,,,,11,,,,60,100
74703,note_on,60,0,7,,,,,,,,,11,,,,57,0
74753,note_on,50,0,7,,,,,,,,,11,,,,60,0
74760,set_tempo,120,1,0,,,,,,372671,,,,,,,,
74763,note_on,10,0,7,,,,,,,,,11,,,,60,100
74764,note_on,120,0,4,,,,,,,,,4,,,,60,86
74766,note_on,120,0,8,,,,,,,,,12,,,,53,0
74771,note_on,120,0,9,,,,,,,,,13,,,,53,0
74773,note_on,120,0,10,,,,,,,,,14,,,,41,0
74793,note_on,30,0,7,,,,,,,,,11,,,,60,0
74823,note_on,30,0,7,,,,,,,,,11,,,,60,100
74853,note_on,30,0,7,,,,,,,,,11,,,,60,0
74870,note_on,230,0,6,,,,,,,,,10,,,,69,0
74873,note_on,230,0,1,,,,,,,,,0,,,,81,0
74880,note_on,10,0,6,,,,,,,,,10,,,,72,100
74880,set_tempo,120,1,0,,,,,,389610,,,,,,,,
74883,note_on,30,0,7,,,,,,,,,11,,,,58,100
74883,note_on,10,0,1,,,,,,,,,0,,,,84,82
74884,note_on,120,0,4,,,,,,,,,4,,,,60,0
74886,note_on,120,0,8,,,,,,,,,12,,,,55,62
74891,note_on,120,0,9,,,,,,,,,13,,,,55,53
74892,note_on,0,0,3,,,,,,,,,3,,,,53,0
74892,note_on,240,0,3,,,,,,,,,3,,,,57,0
74892,note_on,0,0,3,,,,,,,,,3,,,,55,81
74892,note_on,0,0,3,,,,,,,,,3,,,,58,81
74893,note_on,120,0,10,,,,,,,,,14,,,,43,40
74940,note_on,60,0,6,,,,,,,,,10,,,,72,0
74940,note_on,0,0,6,,,,,,,,,10,,,,70,100
74943,note_on,0,0,7,,,,,,,,,11,,,,60,100
74943,note_on,60,0,1,,,,,,,,,0,,,,84,0
74943,note_on,0,0,1,,,,,,,,,0,,,,82,82
74943,note_on,60,0,7,,,,,,,,,11,,,,58,0
74993,note_on,50,0,7,,,,,,,,,11,,,,60,0
75000,note_on,60,0,6,,,,,,,,,10,,,,70,0
75000,note_on,0,0,6,,,,,,,,,10,,,,62,100
75000,set_tempo,120,1,0,,,,,,372671,,,,,,,,
75003,note_on,10,0,7,,,,,,,,,11,,,,60,100
75003,note_on,60,0,1,,,,,,,,,0,,,,82,0
75003,note_on,0,0,1,,,,,,,,,0,,,,74,82
75004,note_on,120,0,4,,,,,,,,,4,,,,60,86
75006,note_on,120,0,8,,,,,,,,,12,,,,55,0
75011,note_on,120,0,9,,,,,,,,,13,,,,55,0
75013,note_on,120,0,10,,,,,,,,,14,,,,43,0
75033,note_on,30,0,7,,,,,,,,,11,,,,60,0
75060,note_on,60,0,6,,,,,,,,,10,,,,62,0
75060,note_on,0,0,6,,,,,,,,,10,,,,64,100
75063,note_on,30,0,7,,,,,,,,,11,,,,60,100
75063,note_on,60,0,1,,,,,,,,,0,,,,74,0
75063,note_on,0,0,1,,,,,,,,,0,,,,76,82
75093,note_on,30,0,7,,,,,,,,,11,,,,60,0
75110,note_on,50,0,6,,,,,,,,,10,,,,64,0
75113,note_on,50,0,1,,,,,,,,,0,,,,76,0
75120,note_on,10,0,6,,,,,,,,,10,,,,67,100
75120,set_tempo,120,1,0,,,,,,389610,,,,,,,,
75122,note_on,0,0,3,,,,,,,,,3,,,,58,0
75122,note_on,230,0,3,,,,,,,,,3,,,,55,0
75123,note_on,30,0,7,,,,,,,,,11,,,,57,100
75123,note_on,10,0,1,,,,,,,,,0,,,,79,82
75124,note_on,120,0,4,,,,,,,,,4,,,,60,0
75126,note_on,120,0,8,,,,,,,,,12,,,,57,62
75131,note_on,120,0,9,,,,,,,,,13,,,,57,53
75132,note_on,0,0,3,,,,,,,,,3,,,,57,81
75132,note_on,10,0,3,,,,,,,,,3,,,,60,81
75133,note_on,120,0,10,,,,,,,,,14,,,,45,40
75180,note_on,60,0,6,,,,,,,,,10,,,,67,0
75180,note_on,0,0,6,,,,,,,,,10,,,,65,100
75183,note_on,0,0,1,,,,,,,,,0,,,,77,82
75183,note_on,60,0,7,,,,,,,,,11,,,,57,0
75183,note_on,0,0,7,,,,,,,,,11,,,,60,100
75183,note_on,60,0,1,,,,,,,,,0,,,,79,0
75233,note_on,50,0,7,,,,,,,,,11,,,,60,0
75240,set_tempo,120,1,0,,,,,,372671,,,,,,,,
75240,note_on,0,0,6,,,,,,,,,10,,,,64,100
75240,note_on,60,0,6,,,,,,,,,10,,,,65,0
75243,note_on,60,0,1,,,,,,,,,0,,,,77,0
75243,note_on,10,0,7,,,,,,,,,11,,,,60,100
75243,note_on,0,0,1,,,,,,,,,0,,,,76,82
75244,note_on,120,0,4,,,,,,,,,4,,,,60,86
75246,note_on,120,0,8,,,,,,,,,12,,,,57,0
75251,note_on,120,0,9,,,,,,,,,13,,,,57,0
75253,note_on,120,0,10,,,,,,,,,14,,,,45,0
75273,note_on,30,0,7,,,,,,,,,11,,,,60,0
75280,note_on,40,0,6,,,,,,,,,10,,,,64,0
75280,note_on,0,0,6,,,,,,,,,10,,,,65,100
75283,note_on,0,0,1,,,,,,,,,0,,,,77,82
75283,note_on,40,0,1,,,,,,,,,0,,,,76,0
75303,note_on,30,0,7,,,,,,,,,11,,,,60,100
75312,note_on,180,0,3,,,,,,,,,3,,,,60,0
75312,note_on,0,0,3,,,,,,,,,3,,,,65,81
75320,note_on,40,0,6,,,,,,,,,10,,,,65,0
75320,note_on,0,0,6,,,,,,,,,10,,,,62,100
75323,note_on,0,0,1,,,,,,,,,0,,,,74,82
75323,note_on,40,0,1,,,,,,,,,0,,,,77,0
75333,note_on,30,0,7,,,,,,,,,11,,,,60,0
75350,note_on,30,0,6,,,,,,,,,10,,,,62,0
75353,note_on,30,0,1,,,,,,,,,0,,,,74,0
75360,set_tempo,120,1,0,,,,,,413793,,,,,,,,
75360,note_on,10,0,6,,,,,,,,,10,,,,60,100
75363,note_on,10,0,1,,,,,,,,,0,,,,72,82
75363,note_on,30,0,7,,,,,,,,,11,,,,64,100
75364,note_on,120,0,4,,,,,,,,,4,,,,60,0
75366,note_on,120,0,8,,,,,,,,,12,,,,60,62
75371,note_on,120,0,9,,,,,,,,,13,,,,60,53
75372,note_on,0,0,3,,,,,,,,,3,,,,60,81
75372,note_on,0,0,3,,,,,,,,,3,,,,64,81
75372,note_on,0,0,3,,,,,,,,,3,,,,57,0
75372,note_on,60,0,3,,,,,,,,,3,,,,65,0
75373,note_on,120,0,10,,,,,,,,,14,,,,48,40
75423,note_on,60,0,7,,,,,,,,,11,,,,64,0
75423,note_on,0,0,7,,,,,,,,,11,,,,60,100
75473,note_on,50,0,7,,,,,,,,,11,,,,60,0
75480,set_tempo,120,1,0,,,,,,372671,,,,,,,,
75483,note_on,10,0,7,,,,,,,,,11,,,,60,100
75484,note_on,120,0,4,,,,,,,,,4,,,,60,86
75486,note_on,120,0,8,,,,,,,,,12,,,,60,0
75491,note_on,120,0,9,,,,,,,,,13,,,,60,0
75492,note_on,120,0,3,,,,,,,,,3,,,,64,0
75492,note_on,0,0,3,,,,,,,,,3,,,,60,0
75493,note_on,120,0,10,,,,,,,,,14,,,,48,0
75513,note_on,30,0,7,,,,,,,,,11,,,,60,0
75543,note_on,30,0,7,,,,,,,,,11,,,,60,100
75573,note_on,30,0,7,,,,,,,,,11,,,,60,0
75590,note_on,230,0,6,,,,,,,,,10,,,,60,0
75593,note_on,230,0,1,,,,,,,,,0,,,,72,0
75600,set_tempo,120,1,0,,,,,,389610,,,,,,,,
75600,note_on,0,0,6,,,,,,,,,10,,,,60,100
75600,control_change,10,0,6,,,,,,,,,10,11,47,,,
75603,note_on,0,0,1,,,,,,,,,0,,,,72,82
75603,control_change,10,0,1,,,,,,,,,0,11,47,,,
75603,control_change,30,0,7,,,,,,,,,11,11,47,,,
75603,note_on,0,0,7,,,,,,,,,11,,,,60,100
75604,note_on,120,0,4,,,,,,,,,4,,,,60,0
75605,note_on,1800,0,2,,,,,,,,,1,,,,72,0
75605,control_change,0,0,2,,,,,,,,,1,11,47,,,
75605,note_on,0,0,2,,,,,,,,,1,,,,69,81
75605,note_on,0,0,2,,,,,,,,,1,,,,72,81
75606,control_change,120,0,8,,,,,,,,,12,11,32,,,
75606,note_on,0,0,8,,,,,,,,,12,,,,53,98
75611,control_change,120,0,9,,,,,,,,,13,11,32,,,
75611,note_on,0,0,9,,,,,,,,,13,,,,53,89
75612,note_on,0,0,3,,,,,,,,,3,,,,65,81
75612,control_change,120,0,3,,,,,,,,,3,11,47,,,
75612,note_on,0,0,3,,,,,,,,,3,,,,53,81
75613,control_change,120,0,10,,,,,,,,,14,11,32,,,
75613,note_on,0,0,10,,,,,,,,,14,,,,41,73
75615,control_change,15,0,6,,,,,,,,,10,11,48,,,
75618,control_change,15,0,7,,,,,,,,,11,11,48,,,
75618,control_change,15,0,1,,,,,,,,,0,11,48,,,
75620,control_change,15,0,2,,,,,,,,,1,11,48,,,
75622,control_change,16,0,8,,,,,,,,,12,11,34,,,
75627,control_change,16,0,9,,,,,,,,,13,11,34,,,
75627,control_change,15,0,3,,,,,,,,,3,11,48,,,
75629,control_change,16,0,10,,,,,,,,,14,11,34,,,
75631,control_change,16,0,6,,,,,,,,,10,11,49,,,
75634,control_change,16,0,1,,,,,,,,,0,11,49,,,
75634,control_change,16,0,7,,,,,,,,,11,11,49,,,
75636,control_change,16,0,2,,,,,,,,,1,11,49,,,
75638,control_change,16,0,8,,,,,,,,,12,11,36,,,
75643,control_change,16,0,9,,,,,,,,,13,11,36,,,
75643,control_change,16,0,3,,,,,,,,,3,11,49,,,
75645,control_change,16,0,10,,,,,,,,,14,11,36,,,
75647,control_change,16,0,6,,,,,,,,,10,11,50,,,
75650,control_change,16,0,1,,,,,,,,,0,11,50,,,
75650,control_change,16,0,7,,,,,,,,,11,11,50,,,
75652,control_change,16,0,2,,,,,,,,,1,11,50,,,
75654,control_change,16,0,8,,,,,,,,,12,11,38,,,
75659,control_change,16,0,3,,,,,,,,,3,11,50,,,
75659,control_change,16,0,9,,,,,,,,,13,11,38,,,
75660,note_on,13,0,6,,,,,,,,,10,,,,60,0
75660,note_on,0,0,6,,,,,,,,,10,,,,69,100
75661,control_change,16,0,10,,,,,,,,,14,11,38,,,
75663,control_change,3,0,6,,,,,,,,,10,11,51,,,
75663,note_on,13,0,1,,,,,,,,,0,,,,72,0
75663,note_on,0,0,1,,,,,,,,,0,,,,81,82
75666,control_change,16,0,7,,,,,,,,,11,11,51,,,
75666,control_change,3,0,1,,,,,,,,,0,11,51,,,
75668,control_change,16,0,2,,,,,,,,,1,11,51,,,
75670,control_change,16,0,8,,,,,,,,,12,11,40,,,
75675,control_change,16,0,3,,,,,,,,,3,11,51,,,
75675,control_change,16,0,9,,,,,,,,,13,11,40,,,
75677,control_change,16,0,10,,,,,,,,,14,11,40,,,
75679,control_change,16,0,6,,,,,,,,,10,11,52,,,
75682,control_change,16,0,1,,,,,,,,,0,11,52,,,
75682,control_change,16,0,7,,,,,,,,,11,11,52,,,
75684,control_change,16,0,2,,,,,,,,,1,11,52,,,
75686,control_change,16,0,8,,,,,,,,,12,11,42,,,
75691,control_change,16,0,9,,,,,,,,,13,11,42,,,
75691,control_change,16,0,3,,,,,,,,,3,11,52,,,
75693,control_change,16,0,10,,,,,,,,,14,11,42,,,
75695,control_change,16,0,6,,,,,,,,,10,11,53,,,
75698,control_change,16,0,7,,,,,,,,,11,11,53,,,
75698,control_change,16,0,1,,,,,,,,,0,11,53,,,
75700,control_change,16,0,2,,,,,,,,,1,11,53,,,
75702,control_change,16,0,8,,,,,,,,,12,11,44,,,
75707,control_change,16,0,9,,,,,,,,,13,11,44,,,
75707,control_change,16,0,3,,,,,,,,,3,11,53,,,
75709,control_change,16,0,10,,,,,,,,,14,11,44,,,
75710,note_on,15,0,6,,,,,,,,,10,,,,69,0
75711,control_change,1,0,6,,,,,,,,,10,11,54,,,
75713,note_on,15,0,1,,,,,,,,,0,,,,81,0
75714,control_change,1,0,1,,,,,,,,,0,11,54,,,
75714,control_change,16,0,7,,,,,,,,,11,11,54,,,
75716,control_change,16,0,2,,,,,,,,,1,11,54,,,
75718,control_change,16,0,8,,,,,,,,,12,11,46,,,
75720,note_on,9,0,6,,,,,,,,,10,,,,69,100
75720,set_tempo,120,1,0,,,,,,372671,,,,,,,,
75723,control_change,16,0,9,,,,,,,,,13,11,46,,,
75723,control_change,16,0,3,,,,,,,,,3,11,54,,,
75723,note_on,9,0,1,,,,,,,,,0,,,,81,82
75725,control_change,16,0,10,,,,,,,,,14,11,46,,,
75727,control_change,7,0,6,,,,,,,,,10,11,55,,,
75730,control_change,7,0,1,,,,,,,,,0,11,55,,,
75730,control_change,16,0,7,,,,,,,,,11,11,55,,,
75732,control_change,16,0,2,,,,,,,,,1,11,55,,,
75733,control_change,15,0,8,,,,,,,,,12,11,55,,,
75738,control_change,15,0,9,,,,,,,,,13,11,55,,,
75739,control_change,16,0,3,,,,,,,,,3,11,55,,,
75740,control_change,15,0,10,,,,,,,,,14,11,55,,,
75743,control_change,16,0,6,,,,,,,,,10,11,56,,,
75746,control_change,16,0,1,,,,,,,,,0,11,56,,,
75746,control_change,16,0,7,,,,,,,,,11,11,56,,,
75748,control_change,16,0,2,,,,,,,,,1,11,56,,,
75749,control_change,16,0,8,,,,,,,,,12,11,56,,,
75750,note_on,7,0,6,,,,,,,,,10,,,,69,0
75753,note_on,7,0,1,,,,,,,,,0,,,,81,0
75754,control_change,16,0,9,,,,,,,,,13,11,56,,,
75755,control_change,16,0,3,,,,,,,,,3,11,56,,,
75756,control_change,16,0,10,,,,,,,,,14,11,56,,,
75759,control_change,9,0,6,,,,,,,,,10,11,57,,,
75762,control_change,9,0,1,,,,,,,,,0,11,57,,,
75762,control_change,16,0,7,,,,,,,,,11,11,57,,,
75764,control_change,16,0,2,,,,,,,,,1,11,57,,,
75765,control_change,16,0,8,,,,,,,,,12,11,57,,,
75770,control_change,16,0,9,,,,,,,,,13,11,57,,,
75771,control_change,16,0,3,,,,,,,,,3,11,57,,,
75772,control_change,16,0,10,,,,,,,,,14,11,57,,,
75775,control_change,16,0,6,,,,,,,,,10,11,58,,,
75778,control_change,16,0,7,,,,,,,,,11,11,58,,,
75778,control_change,16,0,1,,,,,,,,,0,11,58,,,
75780,control_change,16,0,2,,,,,,,,,1,11,58,,,
75780,note_on,5,0,6,,,,,,,,,10,,,,69,100
75781,control_change,16,0,8,,,,,,,,,12,11,58,,,
75783,note_on,5,0,1,,,,,,,,,0,,,,81,82
75786,control_change,16,0,9,,,,,,,,,13,11,58,,,
75787,control_change,16,0,3,,,,,,,,,3,11,58,,,
75788,control_change,16,0,10,,,,,,,,,14,11,58,,,
75791,control_change,11,0,6,,,,,,,,,10,11,59,,,
75794,control_change,16,0,7,,,,,,,,,11,11,59,,,
75794,control_change,11,0,1,,,,,,,,,0,11,59,,,
75796,control_change,16,0,2,,,,,,,,,1,11,59,,,
75797,control_change,16,0,8,,,,,,,,,12,11,59,,,
75802,control_change,16,0,9,,,,,,,,,13,11,59,,,
75803,control_change,16,0,3,,,,,,,,,3,11,59,,,
75804,control_change,16,0,10,,,,,,,,,14,11,59,,,
75807,control_change,16,0,6,,,,,,,,,10,11,60,,,
75810,control_change,16,0,7,,,,,,,,,11,11,60,,,
75810,control_change,16,0,1,,,,,,,,,0,11,60,,,
75810,note_on,3,0,6,,,,,,,,,10,,,,69,0
75812,control_change,16,0,2,,,,,,,,,1,11,60,,,
75813,control_change,16,0,8,,,,,,,,,12,11,60,,,
75813,note_on,3,0,1,,,,,,,,,0,,,,81,0
75818,control_change,16,0,9,,,,,,,,,13,11,60,,,
75819,control_change,16,0,3,,,,,,,,,3,11,60,,,
75820,control_change,16,0,10,,,,,,,,,14,11,60,,,
75823,control_change,13,0,6,,,,,,,,,10,11,61,,,
75826,control_change,13,0,1,,,,,,,,,0,11,61,,,
75826,control_change,16,0,7,,,,,,,,,11,11,61,,,
75828,control_change,16,0,2,,,,,,,,,1,11,61,,,
75829,control_change,16,0,8,,,,,,,,,12,11,61,,,
75834,control_change,16,0,9,,,,,,,,,13,11,61,,,
75835,control_change,16,0,3,,,,,,,,,3,11,61,,,
75836,control_change,16,0,10,,,,,,,,,14,11,61,,,
75839,control_change,16,0,6,,,,,,,,,10,11,62,,,
75840,set_tempo,120,1,0,,,,,,389610,,,,,,,,
75840,note_on,1,0,6,,,,,,,,,10,,,,69,100
75842,control_change,16,0,1,,,,,,,,,0,11,62,,,
75842,control_change,16,0,7,,,,,,,,,11,11,62,,,
75843,note_on,1,0,1,,,,,,,,,0,,,,81,82
75844,control_change,16,0,2,,,,,,,,,1,11,62,,,
75845,control_change,16,0,8,,,,,,,,,12,11,62,,,
75845,note_on,1,0,2,,,,,,,,,1,,,,69,0
75845,note_on,0,0,2,,,,,,,,,1,,,,67,81
75846,note_on,0,0,8,,,,,,,,,12,,,,52,98
75846,note_on,1,0,8,,,,,,,,,12,,,,53,0
75850,control_change,16,0,9,,,,,,,,,13,11,62,,,
75851,control_change,16,0,3,,,,,,,,,3,11,62,,,
75851,note_on,0,0,9,,,,,,,,,13,,,,52,89
75851,note_on,1,0,9,,,,,,,,,13,,,,53,0
75852,control_change,16,0,10,,,,,,,,,14,11,62,,,
75852,note_on,1,0,3,,,,,,,,,3,,,,65,0
75852,note_on,0,0,3,,,,,,,,,3,,,,53,0
75852,note_on,0,0,3,,,,,,,,,3,,,,52,81
75852,note_on,0,0,3,,,,,,,,,3,,,,64,81
75853,note_on,1,0,10,,,,,,,,,14,,,,41,0
75853,note_on,0,0,10,,,,,,,,,14,,,,40,73
75863,control_change,23,0,6,,,,,,,,,10,11,61,,,
75866,control_change,24,0,7,,,,,,,,,11,11,61,,,
75866,control_change,23,0,1,,,,,,,,,0,11,61,,,
75868,control_change,23,0,2,,,,,,,,,1,11,61,,,
75869,control_change,23,0,8,,,,,,,,,12,11,61,,,
75874,control_change,23,0,9,,,,,,,,,13,11,61,,,
75875,control_change,23,0,3,,,,,,,,,3,11,61,,,
75876,control_change,23,0,10,,,,,,,,,14,11,61,,,
75887,control_change,24,0,6,,,,,,,,,10,11,60,,,
75890,control_change,24,0,1,,,,,,,,,0,11,60,,,
75890,control_change,24,0,7,,,,,,,,,11,11,60,,,
75892,control_change,24,0,2,,,,,,,,,1,11,60,,,
75893,control_change,24,0,8,,,,,,,,,12,11,60,,,
75898,control_change,24,0,9,,,,,,,,,13,11,60,,,
75899,control_change,24,0,3,,,,,,,,,3,11,60,,,
75900,note_on,0,0,6,,,,,,,,,10,,,,67,100
75900,control_change,24,0,10,,,,,,,,,14,11,60,,,
75900,note_on,13,0,6,,,,,,,,,10,,,,69,0
75903,note_on,13,0,1,,,,,,,,,0,,,,81,0
75903,note_on,0,0,1,,,,,,,,,0,,,,79,82
75911,control_change,11,0,6,,,,,,,,,10,11,59,,,
75914,control_change,24,0,7,,,,,,,,,11,11,59,,,
75914,control_change,11,0,1,,,,,,,,,0,11,59,,,
75916,control_change,24,0,2,,,,,,,,,1,11,59,,,
75917,control_change,24,0,8,,,,,,,,,12,11,59,,,
75922,control_change,24,0,9,,,,,,,,,13,11,59,,,
75923,control_change,24,0,3,,,,,,,,,3,11,59,,,
75924,control_change,24,0,10,,,,,,,,,14,11,59,,,
75935,control_change,24,0,6,,,,,,,,,10,11,58,,,
75938,control_change,24,0,7,,,,,,,,,11,11,58,,,
75938,control_change,24,0,1,,,,,,,,,0,11,58,,,
75940,control_change,24,0,2,,,,,,,,,1,11,58,,,
75941,control_change,24,0,8,,,,,,,,,12,11,58,,,
75946,control_change,24,0,9,,,,,,,,,13,11,58,,,
75947,control_change,24,0,3,,,,,,,,,3,11,58,,,
75948,control_change,24,0,10,,,,,,,,,14,11,58,,,
75950,note_on,15,0,6,,,,,,,,,10,,,,67,0
75953,note_on,15,0,1,,,,,,,,,0,,,,79,0
75959,control_change,9,0,6,,,,,,,,,10,11,57,,,
75960,note_on,1,0,6,,,,,,,,,10,,,,64,100
75960,set_tempo,120,1,0,,,,,,372671,,,,,,,,
75962,control_change,24,0,7,,,,,,,,,11,11,57,,,
75962,control_change,9,0,1,,,,,,,,,0,11,57,,,
75963,note_on,1,0,1,,,,,,,,,0,,,,76,82
75964,control_change,24,0,2,,,,,,,,,1,11,57,,,
75965,control_change,24,0,8,,,,,,,,,12,11,57,,,
75970,control_change,24,0,9,,,,,,,,,13,11,57,,,
75971,control_change,24,0,3,,,,,,,,,3,11,57,,,
75972,control_change,24,0,10,,,,,,,,,14,11,57,,,
75983,control_change,23,0,6,,,,,,,,,10,11,56,,,
75986,control_change,23,0,1,,,,,,,,,0,11,56,,,
75986,control_change,24,0,7,,,,,,,,,11,11,56,,,
75988,control_change,24,0,2,,,,,,,,,1,11,56,,,
75989,control_change,24,0,8,,,,,,,,,12,11,56,,,
75990,note_on,7,0,6,,,,,,,,,10,,,,64,0
75993,note_on,7,0,1,,,,,,,,,0,,,,76,0
75994,control_change,24,0,9,,,,,,,,,13,11,56,,,
75995,control_change,24,0,3,,,,,,,,,3,11,56,,,
75996,control_change,24,0,10,,,,,,,,,14,11,56,,,
76007,control_change,17,0,6,,,,,,,,,10,11,55,,,
76010,control_change,17,0,1,,,,,,,,,0,11,55,,,
76010,control_change,24,0,7,,,,,,,,,11,11,55,,,
76012,control_change,24,0,2,,,,,,,,,1,11,55,,,
76013,control_change,24,0,8,,,,,,,,,12,11,55,,,
76018,control_change,24,0,9,,,,,,,,,13,11,55,,,
76019,control_change,24,0,3,,,,,,,,,3,11,55,,,
76020,note_on,13,0,6,,,,,,,,,10,,,,60,100
76020,control_change,24,0,10,,,,,,,,,14,11,55,,,
76023,note_on,13,0,1,,,,,,,,,0,,,,72,82
76031,control_change,11,0,6,,,,,,,,,10,11,54,,,
76034,control_change,24,0,7,,,,,,,,,11,11,54,,,
76034,control_change,11,0,1,,,,,,,,,0,11,54,,,
76036,control_change,24,0,2,,,,,,,,,1,11,54,,,
76037,control_change,24,0,8,,,,,,,,,12,11,54,,,
76042,control_change,24,0,9,,,,,,,,,13,11,54,,,
76043,control_change,24,0,3,,,,,,,,,3,11,54,,,
76044,control_change,24,0,10,,,,,,,,,14,11,54,,,
76050,note_on,19,0,6,,,,,,,,,10,,,,60,0
76053,note_on,19,0,1,,,,,,,,,0,,,,72,0
76055,control_change,5,0,6,,,,,,,,,10,11,53,,,
76058,control_change,5,0,1,,,,,,,,,0,11,53,,,
76058,control_change,24,0,7,,,,,,,,,11,11,53,,,
76060,control_change,24,0,2,,,,,,,,,1,11,53,,,
76061,control_change,24,0,8,,,,,,,,,12,11,53,,,
76066,control_change,24,0,9,,,,,,,,,13,11,53,,,
76067,control_change,24,0,3,,,,,,,,,3,11,53,,,
76068,control_change,24,0,10,,,,,,,,,14,11,53,,,
76073,note_on,15,0,7,,,,,,,,,11,,,,60,0
76076,note_on,15,0,8,,,,,,,,,12,,,,52,0
76079,control_change,24,0,6,,,,,,,,,10,11,52,,,
76080,note_on,1,0,6,,,,,,,,,10,,,,60,100
76080,set_tempo,120,1,0,,,,,,389610,,,,,,,,
76081,note_on,15,0,9,,,,,,,,,13,,,,52,0
76082,note_on,0,0,3,,,,,,,,,3,,,,64,0
76082,note_on,15,0,3,,,,,,,,,3,,,,52,0
76082,control_change,24,0,1,,,,,,,,,0,11,52,,,
76082,control_change,9,0,7,,,,,,,,,11,11,52,,,
76083,note_on,1,0,7,,,,,,,,,11,,,,60,100
76083,note_on,1,0,1,,,,,,,,,0,,,,72,82
76083,note_on,15,0,10,,,,,,,,,14,,,,40,0
76084,control_change,24,0,2,,,,,,,,,1,11,52,,,
76085,note_on,1,0,2,,,,,,,,,1,,,,67,0
76085,control_change,9,0,8,,,,,,,,,12,11,52,,,
76085,note_on,0,0,2,,,,,,,,,1,,,,65,81
76086,note_on,1,0,8,,,,,,,,,12,,,,50,98
76090,control_change,9,0,9,,,,,,,,,13,11,52,,,
76091,control_change,9,0,3,,,,,,,,,3,11,52,,,
76091,note_on,1,0,9,,,,,,,,,13,,,,50,89
76092,note_on,0,0,3,,,,,,,,,3,,,,62,81
76092,note_on,1,0,3,,,,,,,,,3,,,,50,81
76092,control_change,9,0,10,,,,,,,,,14,11,52,,,
76093,note_on,1,0,10,,,,,,,,,14,,,,38,73
76103,control_change,23,0,6,,,,,,,,,10,11,51,,,
76106,control_change,23,0,1,,,,,,,,,0,11,51,,,
76106,control_change,23,0,7,,,,,,,,,11,11,51,,,
76108,control_change,23,0,2,,,,,,,,,1,11,51,,,
76109,control_change,23,0,8,,,,,,,,,12,11,51,,,
76114,control_change,23,0,9,,,,,,,,,13,11,51,,,
76115,control_change,23,0,3,,,,,,,,,3,11,51,,,
76116,control_change,23,0,10,,,,,,,,,14,11,51,,,
76127,control_change,24,0,6,,,,,,,,,10,11,50,,,
76130,control_change,24,0,1,,,,,,,,,0,11,50,,,
76130,control_change,24,0,7,,,,,,,,,11,11,50,,,
76132,control_change,24,0,2,,,,,,,,,1,11,50,,,
76133,control_change,24,0,8,,,,,,,,,12,11,50,,,
76138,control_change,24,0,9,,,,,,,,,13,11,50,,,
76139,control_change,24,0,3,,,,,,,,,3,11,50,,,
76140,note_on,0,0,6,,,,,,,,,10,,,,59,100
76140,note_on,13,0,6,,,,,,,,,10,,,,60,0
76140,control_change,24,0,10,,,,,,,,,14,11,50,,,
76143,note_on,0,0,7,,,,,,,,,11,,,,59,100
76143,note_on,0,0,1,,,,,,,,,0,,,,71,82
76143,note_on,13,0,1,,,,,,,,,0,,,,72,0
76143,note_on,13,0,7,,,,,,,,,11,,,,60,0
76145,note_on,13,0,2,,,,,,,,,1,,,,72,0
76145,note_on,0,0,2,,,,,,,,,1,,,,71,81
76151,control_change,11,0,6,,,,,,,,,10,11,49,,,
76154,control_change,11,0,7,,,,,,,,,11,11,49,,,
76154,control_change,11,0,1,,,,,,,,,0,11,49,,,
76156,control_change,11,0,2,,,,,,,,,1,11,49,,,
76157,control_change,24,0,8,,,,,,,,,12,11,49,,,
76162,control_change,24,0,9,,,,,,,,,13,11,49,,,
76163,control_change,24,0,3,,,,,,,,,3,11,49,,,
76164,control_change,24,0,10,,,,,,,,,14,11,49,,,
76175,control_change,24,0,6,,,,,,,,,10,11,48,,,
76178,control_change,24,0,7,,,,,,,,,11,11,48,,,
76178,control_change,24,0,1,,,,,,,,,0,11,48,,,
76180,control_change,24,0,2,,,,,,,,,1,11,48,,,
76181,control_change,24,0,8,,,,,,,,,12,11,48,,,
76186,control_change,24,0,9,,,,,,,,,13,11,48,,,
76187,control_change,24,0,3,,,,,,,,,3,11,48,,,
76188,control_change,24,0,10,,,,,,,,,14,11,48,,,
76196,note_on,15,0,8,,,,,,,,,12,,,,50,0
76199,control_change,24,0,6,,,,,,,,,10,11,47,,,
76200,note_on,0,0,6,,,,,,,,,10,,,,62,100
76200,set_tempo,120,1,0,,,,,,372671,,,,,,,,
76200,note_on,1,0,6,,,,,,,,,10,,,,59,0
76201,note_on,15,0,9,,,,,,,,,13,,,,50,0
76202,control_change,24,0,7,,,,,,,,,11,11,47,,,
76202,control_change,24,0,1,,,,,,,,,0,11,47,,,
76203,note_on,15,0,10,,,,,,,,,14,,,,38,0
76203,note_on,0,0,7,,,,,,,,,11,,,,62,100
76203,note_on,1,0,1,,,,,,,,,0,,,,71,0
76203,note_on,0,0,1,,,,,,,,,0,,,,74,82
76203,note_on,1,0,7,,,,,,,,,11,,,,59,0
76204,control_change,24,0,2,,,,,,,,,1,11,47,,,
76205,note_on,1,0,2,,,,,,,,,1,,,,71,0
76205,control_change,9,0,8,,,,,,,,,12,11,47,,,
76205,note_on,0,0,2,,,,,,,,,1,,,,69,81
76206,note_on,1,0,8,,,,,,,,,12,,,,55,98
76210,control_change,9,0,9,,,,,,,,,13,11,47,,,
76211,control_change,24,0,3,,,,,,,,,3,11,47,,,
76211,note_on,1,0,9,,,,,,,,,13,,,,43,89
76212,note_on,0,0,3,,,,,,,,,3,,,,43,81
76212,control_change,9,0,10,,,,,,,,,14,11,47,,,
76212,note_on,0,0,3,,,,,,,,,3,,,,55,81
76212,note_on,0,0,3,,,,,,,,,3,,,,50,0
76212,note_on,1,0,3,,,,,,,,,3,,,,62,0
76213,note_on,1,0,10,,,,,,,,,14,,,,31,73
76260,note_on,60,0,6,,,,,,,,,10,,,,62,0
76260,note_on,0,0,6,,,,,,,,,10,,,,65,100
76263,note_on,0,0,7,,,,,,,,,11,,,,65,100
76263,note_on,60,0,7,,,,,,,,,11,,,,62,0
76263,note_on,60,0,1,,,,,,,,,0,,,,74,0
76263,note_on,0,0,1,,,,,,,,,0,,,,77,82
76265,note_on,0,0,2,,,,,,,,,1,,,,71,81
76265,note_on,60,0,2,,,,,,,,,1,,,,69,0
76310,note_on,50,0,6,,,,,,,,,10,,,,65,0
76313,note_on,50,0,1,,,,,,,,,0,,,,77,0
76313,note_on,50,0,7,,,,,,,,,11,,,,65,0
76315,note_on,0,0,2,,,,,,,,,1,,,,65,0
76315,note_on,50,0,2,,,,,,,,,1,,,,71,0
76316,note_on,110,0,8,,,,,,,,,12,,,,55,0
76320,set_tempo,120,1,0,,,,,,389610,,,,,,,,
76320,note_on,10,0,6,,,,,,,,,10,,,,65,100
76321,note_on,110,0,9,,,,,,,,,13,,,,43,0
76322,note_on,0,0,3,,,,,,,,,3,,,,43,0
76322,note_on,110,0,3,,,,,,,,,3,,,,55,0
76323,note_on,110,0,10,,,,,,,,,14,,,,31,0
76323,note_on,10,0,1,,,,,,,,,0,,,,77,82
76323,note_on,10,0,7,,,,,,,,,11,,,,59,100
76325,note_on,10,0,2,,,,,,,,,1,,,,71,81
76325,note_on,0,0,2,,,,,,,,,1,,,,65,81
76326,note_on,10,0,8,,,,,,,,,12,,,,55,98
76331,note_on,10,0,9,,,,,,,,,13,,,,48,89
76332,note_on,10,0,3,,,,,,,,,3,,,,48,81
76332,note_on,0,0,3,,,,,,,,,3,,,,55,81
76333,note_on,10,0,10,,,,,,,,,14,,,,36,73
76440,note_on,120,0,6,,,,,,,,,10,,,,65,0
76440,note_on,0,0,6,,,,,,,,,10,,,,64,100
76440,set_tempo,120,1,0,,,,,,372671,,,,,,,,
76443,note_on,0,0,7,,,,,,,,,11,,,,60,100
76443,note_on,120,0,7,,,,,,,,,11,,,,59,0
76443,note_on,0,0,1,,,,,,,,,0,,,,76,82
76443,note_on,120,0,1,,,,,,,,,0,,,,77,0
76445,note_on,0,0,2,,,,,,,,,1,,,,71,0
76445,note_on,0,0,2,,,,,,,,,1,,,,72,81
76445,note_on,0,0,2,,,,,,,,,1,,,,64,81
76445,note_on,120,0,2,,,,,,,,,1,,,,65,0
76550,note_on,110,0,6,,,,,,,,,10,,,,64,0
76553,note_on,110,0,1,,,,,,,,,0,,,,76,0
76553,note_on,110,0,7,,,,,,,,,11,,,,60,0
76555,note_on,0,0,2,,,,,,,,,1,,,,64,0
76555,note_on,110,0,2,,,,,,,,,1,,,,72,0
76556,note_on,230,0,8,,,,,,,,,12,,,,55,0
76560,note_on,0,0,6,,,,,,,,,10,,,,65,100
76560,control_change,10,0,6,,,,,,,,,10,11,47,,,
76560,set_tempo,120,1,0,,,,,,389610,,,,,,,,
76561,note_on,230,0,9,,,,,,,,,13,,,,48,0
76562,note_on,0,0,3,,,,,,,,,3,,,,48,0
76562,note_on,230,0,3,,,,,,,,,3,,,,55,0
76563,control_change,10,0,7,,,,,,,,,11,11,47,,,
76563,note_on,230,0,10,,,,,,,,,14,,,,36,0
76563,note_on,0,0,1,,,,,,,,,0,,,,77,82
76563,control_change,10,0,1,,,,,,,,,0,11,47,,,
76563,note_on,0,0,7,,,,,,,,,11,,,,65,100
76565,note_on,0,0,2,,,,,,,,,1,,,,74,81
76565,control_change,10,0,2,,,,,,,,,1,11,47,,,
76565,note_on,0,0,2,,,,,,,,,1,,,,65,81
76566,note_on,0,0,8,,,,,,,,,12,,,,58,98
76566,control_change,10,0,8,,,,,,,,,12,11,47,,,
76571,note_on,0,0,9,,,,,,,,,13,,,,46,89
76571,control_change,10,0,9,,,,,,,,,13,11,47,,,
76572,control_change,10,0,3,,,,,,,,,3,11,47,,,
76572,note_on,0,0,3,,,,,,,,,3,,,,58,81
76572,note_on,0,0,3,,,,,,,,,3,,,,46,81
76573,control_change,10,0,10,,,,,,,,,14,11,47,,,
76573,note_on,0,0,10,,,,,,,,,14,,,,34,73
76583,control_change,23,0,6,,,,,,,,,10,11,48,,,
76586,control_change,23,0,1,,,,,,,,,0,11,48,,,
76586,control_change,23,0,7,,,,,,,,,11,11,48,,,
76588,control_change,23,0,2,,,,,,,,,1,11,48,,,
76589,control_change,23,0,8,,,,,,,,,12,11,48,,,
76594,control_change,23,0,9,,,,,,,,,13,11,48,,,
76595,control_change,23,0,3,,,,,,,,,3,11,48,,,
76596,control_change,23,0,10,,,,,,,,,14,11,48,,,
76607,control_change,24,0,6,,,,,,,,,10,11,49,,,
76610,control_change,24,0,7,,,,,,,,,11,11,49,,,
76610,control_change,24,0,1,,,,,,,,,0,11,49,,,
76612,control_change,24,0,2,,,,,,,,,1,11,49,,,
76613,control_change,24,0,8,,,,,,,,,12,11,49,,,
76618,control_change,24,0,9,,,,,,,,,13,11,49,,,
76619,control_change,24,0,3,,,,,,,,,3,11,49,,,
76620,control_change,24,0,10,,,,,,,,,14,11,49,,,
76620,note_on,13,0,6,,,,,,,,,10,,,,65,0
76620,note_on,0,0,6,,,,,,,,,10,,,,74,100
76623,note_on,13,0,1,,,,,,,,,0,,,,77,0
76623,note_on,0,0,1,,,,,,,,,0,,,,86,82
76631,control_change,11,0,6,,,,,,,,,10,11,50,,,
76634,control_change,24,0,7,,,,,,,,,11,11,50,,,
76634,control_change,11,0,1,,,,,,,,,0,11,50,,,
76636,control_change,24,0,2,,,,,,,,,1,11,50,,,
76637,control_change,24,0,8,,,,,,,,,12,11,50,,,
76642,control_change,24,0,9,,,,,,,,,13,11,50,,,
76643,control_change,24,0,3,,,,,,,,,3,11,50,,,
76644,control_change,24,0,10,,,,,,,,,14,11,50,,,
76655,control_change,24,0,6,,,,,,,,,10,11,51,,,
76658,control_change,24,0,7,,,,,,,,,11,11,51,,,
76658,control_change,24,0,1,,,,,,,,,0,11,51,,,
76660,control_change,24,0,2,,,,,,,,,1,11,51,,,
76661,control_change,24,0,8,,,,,,,,,12,11,51,,,
76666,control_change,24,0,9,,,,,,,,,13,11,51,,,
76667,control_change,24,0,3,,,,,,,,,3,11,51,,,
76668,control_change,24,0,10,,,,,,,,,14,11,51,,,
76670,note_on,15,0,6,,,,,,,,,10,,,,74,0
76673,note_on,15,0,1,,,,,,,,,0,,,,86,0
76679,control_change,9,0,6,,,,,,,,,10,11,52,,,
76680,note_on,1,0,6,,,,,,,,,10,,,,74,100
76680,set_tempo,120,1,0,,,,,,372671,,,,,,,,
76682,control_change,9,0,1,,,,,,,,,0,11,52,,,
76682,control_change,24,0,7,,,,,,,,,11,11,52,,,
76683,note_on,1,0,1,,,,,,,,,0,,,,86,82
76684,control_change,24,0,2,,,,,,,,,1,11,52,,,
76685,control_change,24,0,8,,,,,,,,,12,11,52,,,
76690,control_change,24,0,9,,,,,,,,,13,11,52,,,
76691,control_change,24,0,3,,,,,,,,,3,11,52,,,
76692,control_change,24,0,10,,,,,,,,,14,11,52,,,
76703,control_change,23,0,6,,,,,,,,,10,11,53,,,
76706,control_change,23,0,1,,,,,,,,,0,11,53,,,
76706,control_change,24,0,7,,,,,,,,,11,11,53,,,
76708,control_change,24,0,2,,,,,,,,,1,11,53,,,
76709,control_change,24,0,8,,,,,,,,,12,11,53,,,
76710,note_on,7,0,6,,,,,,,,,10,,,,74,0
76713,note_on,7,0,1,,,,,,,,,0,,,,86,0
76714,control_change,24,0,9,,,,,,,,,13,11,53,,,
76715,control_change,24,0,3,,,,,,,,,3,11,53,,,
76716,control_change,24,0,10,,,,,,,,,14,11,53,,,
76727,control_change,17,0,6,,,,,,,,,10,11,54,,,
76730,control_change,24,0,7,,,,,,,,,11,11,54,,,
76730,control_change,17,0,1,,,,,,,,,0,11,54,,,
76732,control_change,24,0,2,,,,,,,,,1,11,54,,,
76733,control_change,24,0,8,,,,,,,,,12,11,54,,,
76738,control_change,24,0,9,,,,,,,,,13,11,54,,,
76739,control_change,24,0,3,,,,,,,,,3,11,54,,,
76740,note_on,13,0,6,,,,,,,,,10,,,,74,100
76740,control_change,24,0,10,,,,,,,,,14,11,54,,,
76743,note_on,13,0,1,,,,,,,,,0,,,,86,82
76751,control_change,11,0,6,,,,,,,,,10,11,55,,,
76754,control_change,24,0,7,,,,,,,,,11,11,55,,,
76754,control_change,11,0,1,,,,,,,,,0,11,55,,,
76756,control_change,24,0,2,,,,,,,,,1,11,55,,,
76757,control_change,24,0,8,,,,,,,,,12,11,55,,,
76762,control_change,24,0,9,,,,,,,,,13,11,55,,,
76763,control_change,24,0,3,,,,,,,,,3,11,55,,,
76764,control_change,24,0,10,,,,,,,,,14,11,55,,,
76770,note_on,19,0,6,,,,,,,,,10,,,,74,0
76773,note_on,19,0,1,,,,,,,,,0,,,,86,0
76775,control_change,5,0,6,,,,,,,,,10,11,56,,,
76778,control_change,24,0,7,,,,,,,,,11,11,56,,,
76778,control_change,5,0,1,,,,,,,,,0,11,56,,,
76780,control_change,24,0,2,,,,,,,,,1,11,56,,,
76781,control_change,24,0,8,,,,,,,,,12,11,56,,,
76786,control_change,24,0,9,,,,,,,,,13,11,56,,,
76787,control_change,24,0,3,,,,,,,,,3,11,56,,,
76788,control_change,24,0,10,,,,,,,,,14,11,56,,,
76799,control_change,24,0,6,,,,,,,,,10,11,57,,,
76800,set_tempo,120,1,0,,,,,,389610,,,,,,,,
76800,note_on,1,0,6,,,,,,,,,10,,,,74,100
76802,control_change,24,0,7,,,,,,,,,11,11,57,,,
76802,control_change,24,0,1,,,,,,,,,0,11,57,,,
76803,note_on,1,0,1,,,,,,,,,0,,,,86,82
76804,control_change,24,0,2,,,,,,,,,1,11,57,,,
76805,note_on,1,0,2,,,,,,,,,1,,,,74,0
76805,note_on,0,0,2,,,,,,,,,1,,,,72,81
76805,control_change,24,0,8,,,,,,,,,12,11,57,,,
76806,note_on,1,0,8,,,,,,,,,12,,,,58,0
76806,note_on,0,0,8,,,,,,,,,12,,,,57,98
76810,control_change,24,0,9,,,,,,,,,13,11,57,,,
76811,note_on,1,0,9,,,,,,,,,13,,,,46,0
76811,note_on,0,0,9,,,,,,,,,13,,,,45,89
76811,control_change,24,0,3,,,,,,,,,3,11,57,,,
76812,control_change,24,0,10,,,,,,,,,14,11,57,,,
76812,note_on,0,0,3,,,,,,,,,3,,,,57,81
76812,note_on,0,0,3,,,,,,,,,3,,,,45,81
76812,note_on,0,0,3,,,,,,,,,3,,,,58,0
76812,note_on,1,0,3,,,,,,,,,3,,,,46,0
76813,note_on,1,0,10,,,,,,,,,14,,,,34,0
76813,note_on,0,0,10,,,,,,,,,14,,,,33,73
76823,control_change,23,0,6,,,,,,,,,10,11,58,,,
76826,control_change,24,0,7,,,,,,,,,11,11,58,,,
76826,control_change,23,0,1,,,,,,,,,0,11,58,,,
76828,control_change,23,0,2,,,,,,,,,1,11,58,,,
76829,control_change,23,0,8,,,,,,,,,12,11,58,,,
76834,control_change,23,0,9,,,,,,,,,13,11,58,,,
76835,control_change,23,0,3,,,,,,,,,3,11,58,,,
76836,control_change,23,0,10,,,,,,,,,14,11,58,,,
76847,control_change,24,0,6,,,,,,,,,10,11,59,,,
76850,control_change,24,0,1,,,,,,,,,0,11,59,,,
76850,control_change,24,0,7,,,,,,,,,11,11,59,,,
76852,control_change,24,0,2,,,,,,,,,1,11,59,,,
76853,control_change,24,0,8,,,,,,,,,12,11,59,,,
76858,control_change,24,0,9,,,,,,,,,13,11,59,,,
76859,control_change,24,0,3,,,,,,,,,3,11,59,,,
76860,note_on,0,0,6,,,,,,,,,10,,,,72,100
76860,note_on,13,0,6,,,,,,,,,10,,,,74,0
76860,control_change,24,0,10,,,,,,,,,14,11,59,,,
76863,note_on,0,0,1,,,,,,,,,0,,,,84,82
76863,note_on,13,0,1,,,,,,,,,0,,,,86,0
76871,control_change,11,0,6,,,,,,,,,10,11,60,,,
76874,control_change,11,0,1,,,,,,,,,0,11,60,,,
76874,control_change,24,0,7,,,,,,,,,11,11,60,,,
76876,control_change,24,0,2,,,,,,,,,1,11,60,,,
76877,control_change,24,0,8,,,,,,,,,12,11,60,,,
76882,control_change,24,0,9,,,,,,,,,13,11,60,,,
76883,control_change,24,0,3,,,,,,,,,3,11,60,,,
76884,control_change,24,0,10,,,,,,,,,14,11,60,,,
76895,control_change,24,0,6,,,,,,,,,10,11,61,,,
76898,control_change,24,0,7,,,,,,,,,11,11,61,,,
76898,control_change,24,0,1,,,,,,,,,0,11,61,,,
76900,control_change,24,0,2,,,,,,,,,1,11,61,,,
76901,control_change,24,0,8,,,,,,,,,12,11,61,,,
76906,control_change,24,0,9,,,,,,,,,13,11,61,,,
76907,control_change,24,0,3,,,,,,,,,3,11,61,,,
76908,control_change,24,0,10,,,,,,,,,14,11,61,,,
76910,note_on,15,0,6,,,,,,,,,10,,,,72,0
76913,note_on,15,0,1,,,,,,,,,0,,,,84,0
76919,control_change,9,0,6,,,,,,,,,10,11,62,,,
76920,set_tempo,120,1,0,,,,,,372671,,,,,,,,
76920,note_on,1,0,6,,,,,,,,,10,,,,70,100
76922,control_change,24,0,7,,,,,,,,,11,11,62,,,
76922,control_change,9,0,1,,,,,,,,,0,11,62,,,
76923,note_on,1,0,1,,,,,,,,,0,,,,82,82
76924,control_change,24,0,2,,,,,,,,,1,11,62,,,
76925,control_change,24,0,8,,,,,,,,,12,11,62,,,
76925,note_on,1,0,2,,,,,,,,,1,,,,65,0
76925,note_on,0,0,2,,,,,,,,,1,,,,69,81
76926,note_on,1,0,8,,,,,,,,,12,,,,57,0
76926,note_on,0,0,8,,,,,,,,,12,,,,53,98
76930,control_change,24,0,9,,,,,,,,,13,11,62,,,
76931,note_on,1,0,9,,,,,,,,,13,,,,45,0
76931,control_change,24,0,3,,,,,,,,,3,11,62,,,
76931,note_on,0,0,9,,,,,,,,,13,,,,41,89
76932,control_change,24,0,10,,,,,,,,,14,11,62,,,
76932,note_on,1,0,3,,,,,,,,,3,,,,57,0
76932,note_on,0,0,3,,,,,,,,,3,,,,53,81
76932,note_on,0,0,3,,,,,,,,,3,,,,41,81
76932,note_on,0,0,3,,,,,,,,,3,,,,45,0
76933,note_on,1,0,10,,,,,,,,,14,,,,33,0
76933,note_on,0,0,10,,,,,,,,,14,,,,29,73
76943,control_change,23,0,6,,,,,,,,,10,11,61,,,
76946,control_change,23,0,1,,,,,,,,,0,11,61,,,
76946,control_change,24,0,7,,,,,,,,,11,11,61,,,
76948,control_change,23,0,2,,,,,,,,,1,11,61,,,
76949,control_change,23,0,8,,,,,,,,,12,11,61,,,
76950,note_on,7,0,6,,,,,,,,,10,,,,70,0
76953,note_on,7,0,1,,,,,,,,,0,,,,82,0
76954,control_change,23,0,9,,,,,,,,,13,11,61,,,
76955,control_change,23,0,3,,,,,,,,,3,11,61,,,
76956,control_change,23,0,10,,,,,,,,,14,11,61,,,
76967,control_change,17,0,6,,,,,,,,,10,11,60,,,
76970,control_change,24,0,7,,,,,,,,,11,11,60,,,
76970,control_change,17,0,1,,,,,,,,,0,11,60,,,
76972,control_change,24,0,2,,,,,,,,,1,11,60,,,
76973,control_change,24,0,8,,,,,,,,,12,11,60,,,
76978,control_change,24,0,9,,,,,,,,,13,11,60,,,
76979,control_change,24,0,3,,,,,,,,,3,11,60,,,
76980,control_change,24,0,10,,,,,,,,,14,11,60,,,
76980,note_on,13,0,6,,,,,,,,,10,,,,69,100
76983,note_on,13,0,1,,,,,,,,,0,,,,81,82
76985,note_on,0,0,2,,,,,,,,,1,,,,77,81
76985,note_on,13,0,2,,,,,,,,,1,,,,72,0
76991,control_change,11,0,6,,,,,,,,,10,11,59,,,
76994,control_change,11,0,1,,,,,,,,,0,11,59,,,
76994,control_change,24,0,7,,,,,,,,,11,11,59,,,
76996,control_change,11,0,2,,,,,,,,,1,11,59,,,
76997,control_change,24,0,8,,,,,,,,,12,11,59,,,
77002,control_change,24,0,9,,,,,,,,,13,11,59,,,
77003,control_change,24,0,3,,,,,,,,,3,11,59,,,
77004,control_change,24,0,10,,,,,,,,,14,11,59,,,
77010,note_on,19,0,6,,,,,,,,,10,,,,69,0
77013,note_on,19,0,1,,,,,,,,,0,,,,81,0
77015,control_change,5,0,6,,,,,,,,,10,11,58,,,
77018,control_change,24,0,7,,,,,,,,,11,11,58,,,
77018,control_change,5,0,1,,,,,,,,,0,11,58,,,
77020,control_change,24,0,2,,,,,,,,,1,11,58,,,
77021,control_change,24,0,8,,,,,,,,,12,11,58,,,
77026,control_change,24,0,9,,,,,,,,,13,11,58,,,
77027,control_change,24,0,3,,,,,,,,,3,11,58,,,
77028,control_change,24,0,10,,,,,,,,,14,11,58,,,
77033,note_on,15,0,7,,,,,,,,,11,,,,65,0
77035,note_on,15,0,2,,,,,,,,,1,,,,77,0
77035,note_on,0,0,2,,,,,,,,,1,,,,69,0
77036,note_on,15,0,8,,,,,,,,,12,,,,53,0
77039,control_change,24,0,6,,,,,,,,,10,11,57,,,
77040,set_tempo,120,1,0,,,,,,401338,,,,,,,,
77040,note_on,1,0,6,,,,,,,,,10,,,,69,100
77041,note_on,15,0,9,,,,,,,,,13,,,,41,0
77042,note_on,0,0,3,,,,,,,,,3,,,,41,0
77042,control_change,9,0,7,,,,,,,,,11,11,57,,,
77042,control_change,24,0,1,,,,,,,,,0,11,57,,,
77042,note_on,15,0,3,,,,,,,,,3,,,,53,0
77043,note_on,1,0,7,,,,,,,,,11,,,,62,100
77043,note_on,1,0,1,,,,,,,,,0,,,,81,82
77043,note_on,15,0,10,,,,,,,,,14,,,,29,0
77044,control_change,9,0,2,,,,,,,,,1,11,57,,,
77045,note_on,1,0,2,,,,,,,,,1,,,,74,81
77045,control_change,9,0,8,,,,,,,,,12,11,57,,,
77046,note_on,1,0,8,,,,,,,,,12,,,,58,98
77050,control_change,9,0,9,,,,,,,,,13,11,57,,,
77051,control_change,9,0,3,,,,,,,,,3,11,57,,,
77051,note_on,1,0,9,,,,,,,,,13,,,,46,89
77052,note_on,1,0,3,,,,,,,,,3,,,,58,81
77052,note_on,0,0,3,,,,,,,,,3,,,,46,81
77052,control_change,9,0,10,,,,,,,,,14,11,57,,,
77053,note_on,1,0,10,,,,,,,,,14,,,,34,73
77063,control_change,23,0,6,,,,,,,,,10,11,56,,,
77066,control_change,23,0,1,,,,,,,,,0,11,56,,,
77066,control_change,23,0,7,,,,,,,,,11,11,56,,,
77068,control_change,23,0,2,,,,,,,,,1,11,56,,,
77069,control_change,23,0,8,,,,,,,,,12,11,56,,,
77074,control_change,23,0,9,,,,,,,,,13,11,56,,,
77075,control_change,23,0,3,,,,,,,,,3,11,56,,,
77076,control_change,23,0,10,,,,,,,,,14,11,56,,,
77087,control_change,24,0,6,,,,,,,,,10,11,55,,,
77090,control_change,24,0,7,,,,,,,,,11,11,55,,,
77090,control_change,24,0,1,,,,,,,,,0,11,55,,,
77092,control_change,24,0,2,,,,,,,,,1,11,55,,,
77093,control_change,24,0,8,,,,,,,,,12,11,55,,,
77098,control_change,24,0,9,,,,,,,,,13,11,55,,,
77099,control_change,24,0,3,,,,,,,,,3,11,55,,,
77100,control_change,24,0,10,,,,,,,,,14,11,55,,,
77100,note_on,0,0,6,,,,,,,,,10,,,,67,100
77100,note_on,13,0,6,,,,,,,,,10,,,,69,0
77103,note_on,0,0,1,,,,,,,,,0,,,,79,82
77103,note_on,13,0,1,,,,,,,,,0,,,,81,0
77105,note_on,13,0,2,,,,,,,,,1,,,,79,81
77111,control_change,11,0,6,,,,,,,,,10,11,54,,,
77114,control_change,11,0,1,,,,,,,,,0,11,54,,,
77114,control_change,24,0,7,,,,,,,,,11,11,54,,,
77116,control_change,11,0,2,,,,,,,,,1,11,54,,,
77117,control_change,24,0,8,,,,,,,,,12,11,54,,,
77122,control_change,24,0,9,,,,,,,,,13,11,54,,,
77123,control_change,24,0,3,,,,,,,,,3,11,54,,,
77124,control_change,24,0,10,,,,,,,,,14,11,54,,,
77135,control_change,24,0,6,,,,,,,,,10,11,53,,,
77138,control_change,24,0,1,,,,,,,,,0,11,53,,,
77138,control_change,24,0,7,,,,,,,,,11,11,53,,,
77140,control_change,24,0,2,,,,,,,,,1,11,53,,,
77141,control_change,24,0,8,,,,,,,,,12,11,53,,,
77146,control_change,24,0,9,,,,,,,,,13,11,53,,,
77147,control_change,24,0,3,,,,,,,,,3,11,53,,,
77148,control_change,24,0,10,,,,,,,,,14,11,53,,,
77150,note_on,15,0,6,,,,,,,,,10,,,,67,0
77153,note_on,15,0,1,,,,,,,,,0,,,,79,0
77159,control_change,9,0,6,,,,,,,,,10,11,52,,,
77160,set_tempo,120,1,0,,,,,,382166,,,,,,,,
77160,note_on,1,0,6,,,,,,,,,10,,,,65,100
77162,control_change,9,0,1,,,,,,,,,0,11,52,,,
77162,control_change,24,0,7,,,,,,,,,11,11,52,,,
77163,note_on,1,0,1,,,,,,,,,0,,,,77,82
77163,note_on,1,0,7,,,,,,,,,11,,,,62,0
77163,note_on,0,0,7,,,,,,,,,11,,,,58,100
77164,control_change,24,0,2,,,,,,,,,1,11,52,,,
77165,note_on,0,0,2,,,,,,,,,1,,,,70,81
77165,control_change,24,0,8,,,,,,,,,12,11,52,,,
77165,note_on,0,0,2,,,,,,,,,1,,,,77,81
77165,note_on,1,0,2,,,,,,,,,1,,,,79,0
77165,note_on,0,0,2,,,,,,,,,1,,,,74,0
77166,note_on,0,0,8,,,,,,,,,12,,,,60,98
77166,note_on,1,0,8,,,,,,,,,12,,,,58,0
77170,control_change,24,0,9,,,,,,,,,13,11,52,,,
77171,note_on,1,0,9,,,,,,,,,13,,,,46,0
77171,note_on,0,0,9,,,,,,,,,13,,,,48,89
77171,control_change,24,0,3,,,,,,,,,3,11,52,,,
77172,control_change,24,0,10,,,,,,,,,14,11,52,,,
77172,note_on,1,0,3,,,,,,,,,3,,,,46,0
77172,note_on,0,0,3,,,,,,,,,3,,,,58,0
77172,note_on,0,0,3,,,,,,,,,3,,,,48,81
77172,note_on,0,0,3,,,,,,,,,3,,,,60,81
77173,note_on,0,0,10,,,,,,,,,14,,,,36,73
77173,note_on,1,0,10,,,,,,,,,14,,,,34,0
77183,control_change,23,0,6,,,,,,,,,10,11,51,,,
77186,control_change,23,0,1,,,,,,,,,0,11,51,,,
77186,control_change,23,0,7,,,,,,,,,11,11,51,,,
77188,control_change,23,0,2,,,,,,,,,1,11,51,,,
77189,control_change,23,0,8,,,,,,,,,12,11,51,,,
77190,note_on,7,0,6,,,,,,,,,10,,,,65,0
77193,note_on,7,0,1,,,,,,,,,0,,,,77,0
77194,control_change,23,0,9,,,,,,,,,13,11,51,,,
77195,control_change,23,0,3,,,,,,,,,3,11,51,,,
77196,control_change,23,0,10,,,,,,,,,14,11,51,,,
77207,control_change,17,0,6,,,,,,,,,10,11,50,,,
77210,control_change,24,0,7,,,,,,,,,11,11,50,,,
77210,control_change,17,0,1,,,,,,,,,0,11,50,,,
77212,control_change,24,0,2,,,,,,,,,1,11,50,,,
77213,control_change,24,0,8,,,,,,,,,12,11,50,,,
77218,control_change,24,0,9,,,,,,,,,13,11,50,,,
77219,control_change,24,0,3,,,,,,,,,3,11,50,,,
77220,note_on,13,0,6,,,,,,,,,10,,,,64,100
77220,control_change,24,0,10,,,,,,,,,14,11,50,,,
77223,note_on,13,0,1,,,,,,,,,0,,,,76,82
77225,note_on,13,0,2,,,,,,,,,1,,,,77,0
77225,note_on,0,0,2,,,,,,,,,1,,,,76,81
77231,control_change,11,0,6,,,,,,,,,10,11,49,,,
77234,control_change,11,0,1,,,,,,,,,0,11,49,,,
77234,control_change,24,0,7,,,,,,,,,11,11,49,,,
77236,control_change,11,0,2,,,,,,,,,1,11,49,,,
77237,control_change,24,0,8,,,,,,,,,12,11,49,,,
77242,control_change,24,0,9,,,,,,,,,13,11,49,,,
77243,control_change,24,0,3,,,,,,,,,3,11,49,,,
77244,control_change,24,0,10,,,,,,,,,14,11,49,,,
77250,note_on,19,0,6,,,,,,,,,10,,,,64,0
77253,note_on,19,0,1,,,,,,,,,0,,,,76,0
77255,control_change,5,0,6,,,,,,,,,10,11,48,,,
77258,control_change,24,0,7,,,,,,,,,11,11,48,,,
77258,control_change,5,0,1,,,,,,,,,0,11,48,,,
77260,control_change,24,0,2,,,,,,,,,1,11,48,,,
77261,control_change,24,0,8,,,,,,,,,12,11,48,,,
77266,control_change,24,0,9,,,,,,,,,13,11,48,,,
77267,control_change,24,0,3,,,,,,,,,3,11,48,,,
77268,control_change,24,0,10,,,,,,,,,14,11,48,,,
77273,note_on,15,0,7,,,,,,,,,11,,,,58,0
77275,note_on,15,0,2,,,,,,,,,1,,,,76,0
77275,note_on,0,0,2,,,,,,,,,1,,,,70,0
77276,note_on,15,0,8,,,,,,,,,12,,,,60,0
77279,control_change,24,0,6,,,,,,,,,10,11,47,,,
77280,note_on,1,0,6,,,,,,,,,10,,,,65,100
77280,set_tempo,120,1,0,,,,,,431655,,,,,,,,
77281,note_on,15,0,9,,,,,,,,,13,,,,48,0
77282,control_change,9,0,7,,,,,,,,,11,11,47,,,
77282,control_change,24,0,1,,,,,,,,,0,11,47,,,
77282,note_on,0,0,3,,,,,,,,,3,,,,48,0
77282,note_on,15,0,3,,,,,,,,,3,,,,60,0
77283,note_on,1,0,1,,,,,,,,,0,,,,77,82
77283,note_on,1,0,7,,,,,,,,,11,,,,57,100
77283,note_on,15,0,10,,,,,,,,,14,,,,36,0
77284,control_change,9,0,2,,,,,,,,,1,11,47,,,
77285,control_change,9,0,8,,,,,,,,,12,11,47,,,
77285,note_on,1,0,2,,,,,,,,,1,,,,77,81
77285,note_on,0,0,2,,,,,,,,,1,,,,69,81
77286,note_on,1,0,8,,,,,,,,,12,,,,53,98
77290,control_change,9,0,9,,,,,,,,,13,11,47,,,
77291,control_change,9,0,3,,,,,,,,,3,11,47,,,
77291,note_on,1,0,9,,,,,,,,,13,,,,41,89
77292,note_on,1,0,3,,,,,,,,,3,,,,41,81
77292,control_change,9,0,10,,,,,,,,,14,11,47,,,
77292,note_on,0,0,3,,,,,,,,,3,,,,53,81
77293,note_on,1,0,10,,,,,,,,,14,,,,29,73
77340,set_tempo,60,1,0,,,,,,461538,,,,,,,,
77344,control_change,1740,0,4,,,,,,,,,4,11,47,,,
77344,note_on,0,0,4,,,,,,,,,4,,,,53,86
77346,note_on,0,0,5,,,,,,,,,5,,,,41,86
77346,control_change,7620,0,5,,,,,,,,,5,11,47,,,
77400,note_on,120,0,6,,,,,,,,,10,,,,65,0
77400,set_tempo,60,1,0,,,,,,428571,,,,,,,,
77403,note_on,120,0,7,,,,,,,,,11,,,,57,0
77403,note_on,120,0,1,,,,,,,,,0,,,,77,0
77404,note_on,60,0,4,,,,,,,,,4,,,,53,0
77404,note_on,0,0,4,,,,,,,,,4,,,,53,86
77405,note_on,120,0,2,,,,,,,,,1,,,,69,0
77405,note_on,0,0,2,,,,,,,,,1,,,,77,0
77406,note_on,60,0,5,,,,,,,,,5,,,,41,0
77406,note_on,0,0,5,,,,,,,,,5,,,,41,86
77406,note_on,120,0,8,,,,,,,,,12,,,,53,0
77411,note_on,120,0,9,,,,,,,,,13,,,,41,0
77412,note_on,120,0,3,,,,,,,,,3,,,,53,0
77412,note_on,0,0,3,,,,,,,,,3,,,,41,0
77413,note_on,120,0,10,,,,,,,,,14,,,,29,0
77460,set_tempo,60,1,0,,,,,,400000,,,,,,,,
77464,note_on,60,0,4,,,,,,,,,4,,,,53,0
77464,note_on,0,0,4,,,,,,,,,4,,,,53,86
77466,note_on,0,0,5,,,,,,,,,5,,,,41,86
77466,note_on,60,0,5,,,,,,,,,5,,,,41,0
77520,set_tempo,60,1,0,,,,,,389610,,,,,,,,
77523,note_on,120,0,1,,,,,,,,,0,,,,89,95
77524,note_on,60,0,4,,,,,,,,,4,,,,53,0
77524,note_on,0,0,4,,,,,,,,,4,,,,53,86
77525,note_on,120,0,2,,,,,,,,,1,,,,73,94
77525,note_on,0,0,2,,,,,,,,,1,,,,77,94
77526,note_on,0,0,5,,,,,,,,,5,,,,41,86
77526,note_on,60,0,5,,,,,,,,,5,,,,41,0
77526,note_on,120,0,8,,,,,,,,,12,,,,58,98
77531,note_on,120,0,9,,,,,,,,,13,,,,46,89
77532,note_on,0,0,3,,,,,,,,,3,,,,65,94
77532,note_on,120,0,3,,,,,,,,,3,,,,61,94
77533,note_on,120,0,10,,,,,,,,,14,,,,34,73
77640,set_tempo,120,1,0,,,,,,372671,,,,,,,,
77640,note_on,240,0,6,,,,,,,,,10,,,,58,100
77641,note_on,115,0,8,,,,,,,,,12,,,,58,0
77643,note_on,240,0,7,,,,,,,,,11,,,,58,100
77646,note_on,115,0,9,,,,,,,,,13,,,,46,0
77648,note_on,115,0,10,,,,,,,,,14,,,,34,0
77760,set_tempo,120,1,0,,,,,,389610,,,,,,,,
77760,note_on,120,0,6,,,,,,,,,10,,,,58,0
77763,note_on,120,0,7,,,,,,,,,11,,,,58,0
77766,note_on,125,0,8,,,,,,,,,12,,,,61,98
77771,note_on,125,0,9,,,,,,,,,13,,,,49,89
77773,note_on,125,0,10,,,,,,,,,14,,,,37,73
77880,set_tempo,120,1,0,,,,,,372671,,,,,,,,
77880,note_on,120,0,6,,,,,,,,,10,,,,61,100
77881,note_on,115,0,8,,,,,,,,,12,,,,61,0
77883,note_on,120,0,7,,,,,,,,,11,,,,61,100
77883,note_on,360,0,1,,,,,,,,,0,,,,89,0
77883,note_on,0,0,1,,,,,,,,,0,,,,87,82
77885,note_on,0,0,2,,,,,,,,,1,,,,73,0
77885,note_on,360,0,2,,,,,,,,,1,,,,77,0
77885,note_on,0,0,2,,,,,,,,,1,,,,72,81
77885,note_on,0,0,2,,,,,,,,,1,,,,75,81
77886,note_on,115,0,9,,,,,,,,,13,,,,49,0
77888,note_on,115,0,10,,,,,,,,,14,,,,37,0
77892,note_on,0,0,3,,,,,,,,,3,,,,61,0
77892,note_on,0,0,3,,,,,,,,,3,,,,63,81
77892,note_on,0,0,3,,,,,,,,,3,,,,60,81
77892,note_on,360,0,3,,,,,,,,,3,,,,65,0
77943,note_on,0,0,1,,,,,,,,,0,,,,85,82
77943,note_on,60,0,1,,,,,,,,,0,,,,87,0
77945,note_on,0,0,2,,,,,,,,,1,,,,72,0
77945,note_on,0,0,2,,,,,,,,,1,,,,73,81
77945,note_on,60,0,2,,,,,,,,,1,,,,75,0
77945,note_on,0,0,2,,,,,,,,,1,,,,70,81
77952,note_on,0,0,3,,,,,,,,,3,,,,61,81
77952,note_on,60,0,3,,,,,,,,,3,,,,60,0
77952,note_on,0,0,3,,,,,,,,,3,,,,63,0
77952,note_on,0,0,3,,,,,,,,,3,,,,58,81
77993,note_on,50,0,1,,,,,,,,,0,,,,85,0
77995,note_on,50,0,2,,,,,,,,,1,,,,70,0
77995,note_on,0,0,2,,,,,,,,,1,,,,73,0
78000,note_on,120,0,6,,,,,,,,,10,,,,61,0
78000,set_tempo,120,1,0,,,,,,389610,,,,,,,,
78002,note_on,50,0,3,,,,,,,,,3,,,,61,0
78002,note_on,0,0,3,,,,,,,,,3,,,,58,0
78003,note_on,10,0,1,,,,,,,,,0,,,,84,82
78003,note_on,120,0,7,,,,,,,,,11,,,,61,0
78005,note_on,10,0,2,,,,,,,,,1,,,,69,81
78005,note_on,0,0,2,,,,,,,,,1,,,,72,81
78006,note_on,125,0,8,,,,,,,,,12,,,,65,98
78011,note_on,125,0,9,,,,,,,,,13,,,,53,89
78012,note_on,0,0,3,,,,,,,,,3,,,,60,81
78012,note_on,10,0,3,,,,,,,,,3,,,,57,81
78013,note_on,125,0,10,,,,,,,,,14,,,,41,73
78120,set_tempo,120,1,0,,,,,,372671,,,,,,,,
78120,note_on,120,0,6,,,,,,,,,10,,,,65,100
78121,note_on,115,0,8,,,,,,,,,12,,,,65,0
78123,note_on,0,0,1,,,,,,,,,0,,,,87,95
78123,note_on,120,0,1,,,,,,,,,0,,,,84,0
78123,note_on,120,0,7,,,,,,,,,11,,,,65,80
78125,note_on,120,0,2,,,,,,,,,1,,,,72,0
78125,note_on,0,0,2,,,,,,,,,1,,,,72,94
78125,note_on,0,0,2,,,,,,,,,1,,,,75,94
78125,note_on,0,0,2,,,,,,,,,1,,,,69,0
78126,note_on,115,0,9,,,,,,,,,13,,,,53,0
78128,note_on,115,0,10,,,,,,,,,14,,,,41,0
78132,note_on,0,0,3,,,,,,,,,3,,,,57,0
78132,note_on,0,0,3,,,,,,,,,3,,,,63,94
78132,note_on,0,0,3,,,,,,,,,3,,,,60,94
78132,note_on,120,0,3,,,,,,,,,3,,,,60,0
78240,set_tempo,120,1,0,,,,,,389610,,,,,,,,
78240,note_on,120,0,6,,,,,,,,,10,,,,65,0
78240,note_on,0,0,6,,,,,,,,,10,,,,58,100
78243,note_on,0,0,7,,,,,,,,,11,,,,58,80
78243,note_on,120,0,7,,,,,,,,,11,,,,65,0
78246,note_on,125,0,8,,,,,,,,,12,,,,58,98
78251,note_on,125,0,9,,,,,,,,,13,,,,46,89
78253,note_on,125,0,10,,,,,,,,,14,,,,34,73
78303,note_on,0,0,1,,,,,,,,,0,,,,85,82
78303,note_on,180,0,1,,,,,,,,,0,,,,87,0
78305,note_on,180,0,2,,,,,,,,,1,,,,72,0
78305,note_on,0,0,2,,,,,,,,,1,,,,75,0
78305,note_on,0,0,2,,,,,,,,,1,,,,73,81
78305,note_on,0,0,2,,,,,,,,,1,,,,70,81
78312,note_on,0,0,3,,,,,,,,,3,,,,60,0
78312,note_on,0,0,3,,,,,,,,,3,,,,61,81
78312,note_on,0,0,3,,,,,,,,,3,,,,58,81
78312,note_on,180,0,3,,,,,,,,,3,,,,63,0
78360,set_tempo,120,1,0,,,,,,372671,,,,,,,,
78360,note_on,0,0,6,,,,,,,,,10,,,,60,100
78360,note_on,120,0,6,,,,,,,,,10,,,,58,0
78363,note_on,60,0,1,,,,,,,,,0,,,,85,0
78363,note_on,0,0,1,,,,,,,,,0,,,,84,82
78363,note_on,120,0,7,,,,,,,,,11,,,,58,0
78363,note_on,0,0,7,,,,,,,,,11,,,,60,80
78364,note_on,840,0,4,,,,,,,,,4,,,,53,0
78365,note_on,0,0,2,,,,,,,,,1,,,,73,0
78365,note_on,0,0,2,,,,,,,,,1,,,,68,81
78365,note_on,0,0,2,,,,,,,,,1,,,,72,81
78365,note_on,60,0,2,,,,,,,,,1,,,,70,0
78366,note_on,120,0,8,,,,,,,,,12,,,,58,0
78366,note_on,0,0,8,,,,,,,,,12,,,,60,98
78366,note_on,840,0,5,,,,,,,,,5,,,,41,0
78371,note_on,120,0,9,,,,,,,,,13,,,,46,0
78371,note_on,0,0,9,,,,,,,,,13,,,,48,89
78372,note_on,60,0,3,,,,,,,,,3,,,,61,0
78372,note_on,0,0,3,,,,,,,,,3,,,,58,0
78372,note_on,0,0,3,,,,,,,,,3,,,,56,81
78372,note_on,0,0,3,,,,,,,,,3,,,,60,81
78373,note_on,120,0,10,,,,,,,,,14,,,,34,0
78373,note_on,0,0,10,,,,,,,,,14,,,,36,73
78420,note_on,0,0,6,,,,,,,,,10,,,,61,100
78420,note_on,60,0,6,,,,,,,,,10,,,,60,0
78423,note_on,60,0,1,,,,,,,,,0,,,,84,0
78423,note_on,0,0,1,,,,,,,,,0,,,,82,82
78423,note_on,60,0,7,,,,,,,,,11,,,,60,0
78423,note_on,0,0,7,,,,,,,,,11,,,,61,80
78425,note_on,0,0,2,,,,,,,,,1,,,,67,81
78425,note_on,0,0,2,,,,,,,,,1,,,,70,81
78425,note_on,0,0,2,,,,,,,,,1,,,,68,0
78425,note_on,60,0,2,,,,,,,,,1,,,,72,0
78426,note_on,60,0,8,,,,,,,,,12,,,,60,0
78426,note_on,0,0,8,,,,,,,,,12,,,,61,98
78431,note_on,60,0,9,,,,,,,,,13,,,,48,0
78431,note_on,0,0,9,,,,,,,,,13,,,,49,89
78432,note_on,0,0,3,,,,,,,,,3,,,,55,81
78432,note_on,0,0,3,,,,,,,,,3,,,,58,81
78432,note_on,0,0,3,,,,,,,,,3,,,,60,0
78432,note_on,60,0,3,,,,,,,,,3,,,,56,0
78433,note_on,60,0,10,,,,,,,,,14,,,,36,0
78433,note_on,0,0,10,,,,,,,,,14,,,,37,73
78470,note_on,50,0,6,,,,,,,,,10,,,,61,0
78473,note_on,50,0,1,,,,,,,,,0,,,,82,0
78473,note_on,50,0,7,,,,,,,,,11,,,,61,0
78475,note_on,50,0,2,,,,,,,,,1,,,,67,0
78475,note_on,0,0,2,,,,,,,,,1,,,,70,0
78476,note_on,50,0,8,,,,,,,,,12,,,,61,0
78480,set_tempo,120,1,0,,,,,,389610,,,,,,,,
78480,note_on,10,0,6,,,,,,,,,10,,,,60,100
78481,note_on,50,0,9,,,,,,,,,13,,,,49,0
78482,note_on,0,0,3,,,,,,,,,3,,,,58,0
78482,note_on,50,0,3,,,,,,,,,3,,,,55,0
78483,note_on,50,0,10,,,,,,,,,14,,,,37,0
78483,note_on,10,0,7,,,,,,,,,11,,,,60,80
78483,note_on,10,0,1,,,,,,,,,0,,,,80,82
78485,note_on,10,0,2,,,,,,,,,1,,,,68,81
78485,note_on,0,0,2,,,,,,,,,1,,,,65,81
78486,note_on,10,0,8,,,,,,,,,12,,,,60,98
78491,note_on,10,0,9,,,,,,,,,13,,,,48,89
78492,note_on,10,0,3,,,,,,,,,3,,,,56,81
78492,note_on,0,0,3,,,,,,,,,3,,,,53,81
78493,note_on,10,0,10,,,,,,,,,14,,,,36,73
78590,note_on,110,0,6,,,,,,,,,10,,,,60,0
78593,note_on,110,0,7,,,,,,,,,11,,,,60,0
78600,note_on,10,0,6,,,,,,,,,10,,,,73,100
78600,set_tempo,120,1,0,,,,,,372671,,,,,,,,
78603,note_on,10,0,7,,,,,,,,,11,,,,61,80
78606,note_on,120,0,8,,,,,,,,,12,,,,60,0
78611,note_on,120,0,9,,,,,,,,,13,,,,48,0
78613,note_on,120,0,10,,,,,,,,,14,,,,36,0
78620,note_on,20,0,6,,,,,,,,,10,,,,73,0
78620,note_on,0,0,6,,,,,,,,,10,,,,72,100
78623,note_on,20,0,7,,,,,,,,,11,,,,61,0
78623,note_on,0,0,7,,,,,,,,,11,,,,60,80
78660,note_on,0,0,6,,,,,,,,,10,,,,71,100
78660,note_on,40,0,6,,,,,,,,,10,,,,72,0
78663,note_on,40,0,7,,,,,,,,,11,,,,60,0
78663,note_on,0,0,7,,,,,,,,,11,,,,59,80
78710,note_on,50,0,6,,,,,,,,,10,,,,71,0
78713,note_on,50,0,7,,,,,,,,,11,,,,59,0
78720,note_on,10,0,6,,,,,,,,,10,,,,72,100
78720,set_tempo,120,1,0,,,,,,389610,,,,,,,,
78723,note_on,10,0,7,,,,,,,,,11,,,,60,80
78723,note_on,0,0,1,,,,,,,,,0,,,,79,82
78723,note_on,240,0,1,,,,,,,,,0,,,,80,0
78725,note_on,0,0,2,,,,,,,,,1,,,,64,81
78725,note_on,0,0,2,,,,,,,,,1,,,,68,0
78725,note_on,240,0,2,,,,,,,,,1,,,,65,0
78725,note_on,0,0,2,,,,,,,,,1,,,,67,81
78726,note_on,120,0,8,,,,,,,,,12,,,,48,98
78731,note_on,120,0,9,,,,,,,,,13,,,,48,89
78732,note_on,0,0,3,,,,,,,,,3,,,,56,0
78732,note_on,240,0,3,,,,,,,,,3,,,,53,0
78732,note_on,0,0,3,,,,,,,,,3,,,,55,81
78732,note_on,0,0,3,,,,,,,,,3,,,,52,81
78733,note_on,120,0,10,,,,,,,,,14,,,,36,73
78780,note_on,60,0,6,,,,,,,,,10,,,,72,0
78780,note_on,0,0,6,,,,,,,,,10,,,,73,100
78783,note_on,0,0,7,,,,,,,,,11,,,,61,80
78783,note_on,60,0,7,,,,,,,,,11,,,,60,0
78830,note_on,50,0,6,,,,,,,,,10,,,,73,0
78833,note_on,50,0,7,,,,,,,,,11,,,,61,0
78840,note_on,10,0,6,,,,,,,,,10,,,,72,100
78840,set_tempo,120,1,0,,,,,,372671,,,,,,,,
78843,note_on,10,0,7,,,,,,,,,11,,,,60,80
78846,note_on,120,0,8,,,,,,,,,12,,,,48,0
78851,note_on,120,0,9,,,,,,,,,13,,,,48,0
78853,note_on,120,0,10,,,,,,,,,14,,,,36,0
78870,note_on,30,0,6,,,,,,,,,10,,,,72,0
78873,note_on,30,0,7,,,,,,,,,11,,,,60,0
78900,note_on,30,0,6,,,,,,,,,10,,,,72,100
78903,note_on,30,0,7,,,,,,,,,11,,,,60,80
78930,note_on,30,0,6,,,,,,,,,10,,,,72,0
78933,note_on,30,0,7,,,,,,,,,11,,,,60,0
78953,note_on,230,0,1,,,,,,,,,0,,,,79,0
78955,note_on,0,0,2,,,,,,,,,1,,,,64,0
78955,note_on,230,0,2,,,,,,,,,1,,,,67,0
78960,set_tempo,120,1,0,,,,,,389610,,,,,,,,
78960,note_on,30,0,6,,,,,,,,,10,,,,65,87
78962,note_on,230,0,3,,,,,,,,,3,,,,52,0
78962,note_on,0,0,3,,,,,,,,,3,,,,55,0
78963,note_on,10,0,1,,,,,,,,,0,,,,77,82
78963,note_on,30,0,7,,,,,,,,,11,,,,65,87
78965,note_on,10,0,2,,,,,,,,,1,,,,65,81
78966,note_on,120,0,8,,,,,,,,,12,,,,53,85
78971,note_on,120,0,9,,,,,,,,,13,,,,41,76
78972,note_on,10,0,3,,,,,,,,,3,,,,53,81
78973,note_on,120,0,10,,,,,,,,,14,,,,29,61
79070,note_on,110,0,6,,,,,,,,,10,,,,65,0
79073,note_on,110,0,7,,,,,,,,,11,,,,65,0
79076,note_on,110,0,8,,,,,,,,,12,,,,53,0
79080,set_tempo,120,1,0,,,,,,372671,,,,,,,,
79080,note_on,10,0,6,,,,,,,,,10,,,,65,100
79081,note_on,110,0,9,,,,,,,,,13,,,,41,0
79083,note_on,110,0,10,,,,,,,,,14,,,,29,0
79083,note_on,10,0,7,,,,,,,,,11,,,,65,100
79083,note_on,120,0,1,,,,,,,,,0,,,,77,0
79085,note_on,120,0,2,,,,,,,,,1,,,,65,0
79086,note_on,10,0,8,,,,,,,,,12,,,,53,98
79091,note_on,10,0,9,,,,,,,,,13,,,,53,89
79092,note_on,120,0,3,,,,,,,,,3,,,,53,0
79093,note_on,10,0,10,,,,,,,,,14,,,,41,73
79130,note_on,50,0,6,,,,,,,,,10,,,,65,0
79133,note_on,50,0,7,,,,,,,,,11,,,,65,0
79136,note_on,50,0,8,,,,,,,,,12,,,,53,0
79140,note_on,10,0,6,,,,,,,,,10,,,,65,100
79141,note_on,50,0,9,,,,,,,,,13,,,,53,0
79143,note_on,50,0,10,,,,,,,,,14,,,,41,0
79143,note_on,10,0,7,,,,,,,,,11,,,,65,100
79146,note_on,10,0,8,,,,,,,,,12,,,,53,98
79151,note_on,10,0,9,,,,,,,,,13,,,,53,89
79153,note_on,10,0,10,,,,,,,,,14,,,,41,73
79190,note_on,50,0,6,,,,,,,,,10,,,,65,0
79193,note_on,50,0,7,,,,,,,,,11,,,,65,0
79196,note_on,50,0,8,,,,,,,,,12,,,,53,0
79200,set_tempo,120,1,0,,,,,,389610,,,,,,,,
79200,note_on,10,0,6,,,,,,,,,10,,,,64,100
79201,note_on,50,0,9,,,,,,,,,13,,,,53,0
79203,note_on,10,0,7,,,,,,,,,11,,,,64,100
79203,note_on,50,0,10,,,,,,,,,14,,,,41,0
79206,note_on,10,0,8,,,,,,,,,12,,,,52,98
79211,note_on,10,0,9,,,,,,,,,13,,,,52,89
79213,note_on,10,0,10,,,,,,,,,14,,,,40,73
79260,note_on,0,0,6,,,,,,,,,10,,,,65,100
79260,note_on,60,0,6,,,,,,,,,10,,,,64,0
79263,note_on,60,0,7,,,,,,,,,11,,,,64,0
79263,note_on,0,0,7,,,,,,,,,11,,,,65,100
79266,note_on,0,0,8,,,,,,,,,12,,,,53,98
79266,note_on,60,0,8,,,,,,,,,12,,,,52,0
79271,note_on,0,0,9,,,,,,,,,13,,,,53,89
79271,note_on,60,0,9,,,,,,,,,13,,,,52,0
79273,note_on,60,0,10,,,,,,,,,14,,,,40,0
79273,note_on,0,0,10,,,,,,,,,14,,,,41,73
79320,note_on,60,0,6,,,,,,,,,10,,,,65,0
79320,note_on,0,0,6,,,,,,,,,10,,,,64,100
79320,set_tempo,120,1,0,,,,,,372671,,,,,,,,
79323,note_on,0,0,7,,,,,,,,,11,,,,64,100
79323,note_on,60,0,7,,,,,,,,,11,,,,65,0
79326,note_on,60,0,8,,,,,,,,,12,,,,53,0
79326,note_on,0,0,8,,,,,,,,,12,,,,52,98
79331,note_on,60,0,9,,,,,,,,,13,,,,53,0
79331,note_on,0,0,9,,,,,,,,,13,,,,52,89
79333,note_on,0,0,10,,,,,,,,,14,,,,40,73
79333,note_on,60,0,10,,,,,,,,,14,,,,41,0
79380,note_on,60,0,6,,,,,,,,,10,,,,64,0
79380,note_on,0,0,6,,,,,,,,,10,,,,65,100
79383,note_on,0,0,7,,,,,,,,,11,,,,65,100
79383,note_on,60,0,7,,,,,,,,,11,,,,64,0
79386,note_on,0,0,8,,,,,,,,,12,,,,53,98
79386,note_on,60,0,8,,,,,,,,,12,,,,52,0
79391,note_on,0,0,9,,,,,,,,,13,,,,53,89
79391,note_on,60,0,9,,,,,,,,,13,,,,52,0
79393,note_on,0,0,10,,,,,,,,,14,,,,41,73
79393,note_on,60,0,10,,,,,,,,,14,,,,40,0
79430,note_on,50,0,6,,,,,,,,,10,,,,65,0
79433,note_on,50,0,7,,,,,,,,,11,,,,65,0
79436,note_on,50,0,8,,,,,,,,,12,,,,53,0
79440,set_tempo,120,1,0,,,,,,389610,,,,,,,,
79440,note_on,10,0,6,,,,,,,,,10,,,,70,80
79441,note_on,50,0,9,,,,,,,,,13,,,,53,0
79443,note_on,50,0,10,,,,,,,,,14,,,,41,0
79443,note_on,10,0,7,,,,,,,,,11,,,,58,100
79443,note_on,360,0,1,,,,,,,,,0,,,,89,95
79444,note_on,1080,0,4,,,,,,,,,4,,,,53,86
79445,note_on,360,0,2,,,,,,,,,1,,,,73,94
79445,note_on,0,0,2,,,,,,,,,1,,,,77,94
79446,note_on,1080,0,5,,,,,,,,,5,,,,41,67
79446,note_on,10,0,8,,,,,,,,,12,,,,58,98
79451,note_on,10,0,9,,,,,,,,,13,,,,46,89
79452,note_on,360,0,3,,,,,,,,,3,,,,61,94
79452,note_on,0,0,3,,,,,,,,,3,,,,65,94
79453,note_on,10,0,10,,,,,,,,,14,,,,34,73
79500,note_on,60,0,6,,,,,,,,,10,,,,70,0
79503,note_on,60,0,7,,,,,,,,,11,,,,58,0
79560,set_tempo,120,1,0,,,,,,372671,,,,,,,,
79560,note_on,60,0,6,,,,,,,,,10,,,,70,80
79563,note_on,60,0,7,,,,,,,,,11,,,,58,100
79566,note_on,120,0,8,,,,,,,,,12,,,,58,0
79571,note_on,120,0,9,,,,,,,,,13,,,,46,0
79573,note_on,120,0,10,,,,,,,,,14,,,,34,0
79620,note_on,60,0,6,,,,,,,,,10,,,,70,0
79623,note_on,60,0,7,,,,,,,,,11,,,,58,0
79680,set_tempo,120,1,0,,,,,,389610,,,,,,,,
79686,note_on,120,0,8,,,,,,,,,12,,,,61,98
79691,note_on,120,0,9,,,,,,,,,13,,,,49,89
79693,note_on,120,0,10,,,,,,,,,14,,,,37,73
79746,note_on,60,0,8,,,,,,,,,12,,,,61,0
79751,note_on,60,0,9,,,,,,,,,13,,,,49,0
79753,note_on,60,0,10,,,,,,,,,14,,,,37,0
79800,note_on,180,0,6,,,,,,,,,10,,,,73,80
79800,set_tempo,120,1,0,,,,,,372671,,,,,,,,
79803,note_on,180,0,7,,,,,,,,,11,,,,61,80
79803,note_on,360,0,1,,,,,,,,,0,,,,89,0
79803,note_on,0,0,1,,,,,,,,,0,,,,87,82
79805,note_on,0,0,2,,,,,,,,,1,,,,73,0
79805,note_on,0,0,2,,,,,,,,,1,,,,75,81
79805,note_on,360,0,2,,,,,,,,,1,,,,77,0
79805,note_on,0,0,2,,,,,,,,,1,,,,72,81
79812,note_on,0,0,3,,,,,,,,,3,,,,60,81
79812,note_on,0,0,3,,,,,,,,,3,,,,63,81
79812,note_on,0,0,3,,,,,,,,,3,,,,61,0
79812,note_on,360,0,3,,,,,,,,,3,,,,65,0
79860,note_on,60,0,6,,,,,,,,,10,,,,73,0
79863,note_on,60,0,7,,,,,,,,,11,,,,61,0
79863,note_on,60,0,1,,,,,,,,,0,,,,87,0
79863,note_on,0,0,1,,,,,,,,,0,,,,85,82
79865,note_on,60,0,2,,,,,,,,,1,,,,75,0
79865,note_on,0,0,2,,,,,,,,,1,,,,73,81
79865,note_on,0,0,2,,,,,,,,,1,,,,70,81
79865,note_on,0,0,2,,,,,,,,,1,,,,72,0
79872,note_on,60,0,3,,,,,,,,,3,,,,60,0
79872,note_on,0,0,3,,,,,,,,,3,,,,58,81
79872,note_on,0,0,3,,,,,,,,,3,,,,63,0
79872,note_on,0,0,3,,,,,,,,,3,,,,61,81
79913,note_on,50,0,1,,,,,,,,,0,,,,85,0
79915,note_on,50,0,2,,,,,,,,,1,,,,70,0
79915,note_on,0,0,2,,,,,,,,,1,,,,73,0
79920,note_on,60,0,6,,,,,,,,,10,,,,77,80
79920,set_tempo,120,1,0,,,,,,389610,,,,,,,,
79922,note_on,0,0,3,,,,,,,,,3,,,,58,0
79922,note_on,50,0,3,,,,,,,,,3,,,,61,0
79923,note_on,10,0,1,,,,,,,,,0,,,,84,82
79923,note_on,60,0,7,,,,,,,,,11,,,,65,80
79925,note_on,0,0,2,,,,,,,,,1,,,,69,81
79925,note_on,10,0,2,,,,,,,,,1,,,,72,81
79926,note_on,180,0,8,,,,,,,,,12,,,,65,98
79931,note_on,180,0,9,,,,,,,,,13,,,,53,89
79932,note_on,10,0,3,,,,,,,,,3,,,,60,81
79932,note_on,0,0,3,,,,,,,,,3,,,,57,81
79933,note_on,180,0,10,,,,,,,,,14,,,,41,73
79980,note_on,60,0,6,,,,,,,,,10,,,,77,0
79983,note_on,60,0,7,,,,,,,,,11,,,,65,0
79986,note_on,60,0,8,,,,,,,,,12,,,,65,0
79991,note_on,60,0,9,,,,,,,,,13,,,,53,0
79993,note_on,60,0,10,,,,,,,,,14,,,,41,0
80040,set_tempo,120,1,0,,,,,,372671,,,,,,,,
80040,note_on,60,0,6,,,,,,,,,10,,,,81,80
80043,note_on,0,0,1,,,,,,,,,0,,,,87,95
80043,note_on,120,0,1,,,,,,,,,0,,,,84,0
80043,note_on,60,0,7,,,,,,,,,11,,,,69,80
80045,note_on,0,0,2,,,,,,,,,1,,,,72,94
80045,note_on,0,0,2,,,,,,,,,1,,,,75,94
80045,note_on,120,0,2,,,,,,,,,1,,,,69,0
80045,note_on,0,0,2,,,,,,,,,1,,,,72,0
80052,note_on,120,0,3,,,,,,,,,3,,,,57,0
80052,note_on,0,0,3,,,,,,,,,3,,,,60,0
80052,note_on,0,0,3,,,,,,,,,3,,,,63,94
80052,note_on,0,0,3,,,,,,,,,3,,,,60,94
80160,set_tempo,120,1,0,,,,,,389610,,,,,,,,
80160,note_on,120,0,6,,,,,,,,,10,,,,81,0
80160,note_on,0,0,6,,,,,,,,,10,,,,82,80
80163,note_on,0,0,7,,,,,,,,,11,,,,70,80
80163,note_on,120,0,7,,,,,,,,,11,,,,69,0
80166,note_on,180,0,8,,,,,,,,,12,,,,58,98
80171,note_on,180,0,9,,,,,,,,,13,,,,46,89
80173,note_on,180,0,10,,,,,,,,,14,,,,34,73
80223,note_on,180,0,1,,,,,,,,,0,,,,87,0
80223,note_on,0,0,1,,,,,,,,,0,,,,85,82
80225,note_on,0,0,2,,,,,,,,,1,,,,73,81
80225,note_on,0,0,2,,,,,,,,,1,,,,70,81
80225,note_on,180,0,2,,,,,,,,,1,,,,72,0
80225,note_on,0,0,2,,,,,,,,,1,,,,75,0
80226,note_on,60,0,8,,,,,,,,,12,,,,58,0
80231,note_on,60,0,9,,,,,,,,,13,,,,46,0
80232,note_on,0,0,3,,,,,,,,,3,,,,63,0
80232,note_on,180,0,3,,,,,,,,,3,,,,60,0
80232,note_on,0,0,3,,,,,,,,,3,,,,58,81
80232,note_on,0,0,3,,,,,,,,,3,,,,61,81
80233,note_on,60,0,10,,,,,,,,,14,,,,34,0
80280,set_tempo,120,1,0,,,,,,372671,,,,,,,,
80280,note_on,0,0,6,,,,,,,,,10,,,,84,80
80280,note_on,120,0,6,,,,,,,,,10,,,,82,0
80283,note_on,60,0,1,,,,,,,,,0,,,,85,0
80283,note_on,120,0,7,,,,,,,,,11,,,,70,0
80283,note_on,0,0,7,,,,,,,,,11,,,,72,80
80283,note_on,0,0,1,,,,,,,,,0,,,,84,82
80284,note_on,840,0,4,,,,,,,,,4,,,,53,0
80285,note_on,0,0,2,,,,,,,,,1,,,,72,81
80285,note_on,0,0,2,,,,,,,,,1,,,,68,81
80285,note_on,0,0,2,,,,,,,,,1,,,,73,0
80285,note_on,60,0,2,,,,,,,,,1,,,,70,0
80286,note_on,840,0,5,,,,,,,,,5,,,,41,0
80292,note_on,60,0,3,,,,,,,,,3,,,,61,0
80292,note_on,0,0,3,,,,,,,,,3,,,,58,0
80292,note_on,0,0,3,,,,,,,,,3,,,,60,81
80292,note_on,0,0,3,,,,,,,,,3,,,,56,81
80340,note_on,60,0,6,,,,,,,,,10,,,,84,0
80340,note_on,0,0,6,,,,,,,,,10,,,,85,80
80343,note_on,0,0,7,,,,,,,,,11,,,,73,80
80343,note_on,60,0,7,,,,,,,,,11,,,,72,0
80343,note_on,0,0,1,,,,,,,,,0,,,,82,82
80343,note_on,60,0,1,,,,,,,,,0,,,,84,0
80345,note_on,0,0,2,,,,,,,,,1,,,,70,81
80345,note_on,0,0,2,,,,,,,,,1,,,,67,81
80345,note_on,0,0,2,,,,,,,,,1,,,,68,0
80345,note_on,60,0,2,,,,,,,,,1,,,,72,0
80352,note_on,0,0,3,,,,,,,,,3,,,,58,81
80352,note_on,60,0,3,,,,,,,,,3,,,,56,0
80352,note_on,0,0,3,,,,,,,,,3,,,,55,81
80352,note_on,0,0,3,,,,,,,,,3,,,,60,0
80390,note_on,50,0,6,,,,,,,,,10,,,,85,0
80393,note_on,50,0,7,,,,,,,,,11,,,,73,0
80393,note_on,50,0,1,,,,,,,,,0,,,,82,0
80395,note_on,50,0,2,,,,,,,,,1,,,,70,0
80395,note_on,0,0,2,,,,,,,,,1,,,,67,0
80400,note_on,10,0,6,,,,,,,,,10,,,,85,80
80400,set_tempo,120,1,0,,,,,,389610,,,,,,,,
80402,note_on,0,0,3,,,,,,,,,3,,,,58,0
80402,note_on,50,0,3,,,,,,,,,3,,,,55,0
80403,note_on,10,0,7,,,,,,,,,11,,,,73,80
80403,note_on,10,0,1,,,,,,,,,0,,,,80,82
80405,note_on,0,0,2,,,,,,,,,1,,,,65,81
80405,note_on,10,0,2,,,,,,,,,1,,,,68,81
80406,note_on,180,0,8,,,,,,,,,12,,,,60,98
80411,note_on,180,0,9,,,,,,,,,13,,,,48,89
80412,note_on,10,0,3,,,,,,,,,3,,,,56,81
80412,note_on,0,0,3,,,,,,,,,3,,,,53,81
80413,note_on,180,0,10,,,,,,,,,14,,,,36,73
80460,note_on,0,0,6,,,,,,,,,10,,,,84,80
80460,note_on,60,0,6,,,,,,,,,10,,,,85,0
80463,note_on,60,0,7,,,,,,,,,11,,,,73,0
80463,note_on,0,0,7,,,,,,,,,11,,,,72,80
80510,note_on,50,0,6,,,,,,,,,10,,,,84,0
80513,note_on,50,0,7,,,,,,,,,11,,,,72,0
80520,set_tempo,120,1,0,,,,,,366972,,,,,,,,
80520,note_on,10,0,6,,,,,,,,,10,,,,84,80
80523,note_on,10,0,7,,,,,,,,,11,,,,72,80
80526,note_on,120,0,8,,,,,,,,,12,,,,60,0
80531,note_on,120,0,9,,,,,,,,,13,,,,48,0
80533,note_on,120,0,10,,,,,,,,,14,,,,36,0
80550,note_on,30,0,6,,,,,,,,,10,,,,84,0
80553,note_on,30,0,7,,,,,,,,,11,,,,72,0
80580,note_on,30,0,6,,,,,,,,,10,,,,84,80
80583,note_on,30,0,7,,,,,,,,,11,,,,72,80
80610,note_on,30,0,6,,,,,,,,,10,,,,84,0
80613,note_on,30,0,7,,,,,,,,,11,,,,72,0
80640,set_tempo,120,1,0,,,,,,383387,,,,,,,,
80640,note_on,30,0,6,,,,,,,,,10,,,,84,80
80643,note_on,240,0,1,,,,,,,,,0,,,,80,0
80643,note_on,0,0,1,,,,,,,,,0,,,,79,82
80643,note_on,30,0,7,,,,,,,,,11,,,,72,80
80645,note_on,0,0,2,,,,,,,,,1,,,,64,81
80645,note_on,0,0,2,,,,,,,,,1,,,,67,81
80645,note_on,0,0,2,,,,,,,,,1,,,,68,0
80645,note_on,240,0,2,,,,,,,,,1,,,,65,0
80646,note_on,120,0,8,,,,,,,,,12,,,,48,98
80651,note_on,120,0,9,,,,,,,,,13,,,,48,89
80652,note_on,0,0,3,,,,,,,,,3,,,,55,81
80652,note_on,0,0,3,,,,,,,,,3,,,,52,81
80652,note_on,240,0,3,,,,,,,,,3,,,,53,0
80652,note_on,0,0,3,,,,,,,,,3,,,,56,0
80653,note_on,120,0,10,,,,,,,,,14,,,,36,73
80700,note_on,60,0,6,,,,,,,,,10,,,,84,0
80700,note_on,0,0,6,,,,,,,,,10,,,,85,80
80703,note_on,0,0,7,,,,,,,,,11,,,,73,80
80703,note_on,60,0,7,,,,,,,,,11,,,,72,0
80750,note_on,50,0,6,,,,,,,,,10,,,,85,0
80753,note_on,50,0,7,,,,,,,,,11,,,,73,0
80760,note_on,10,0,6,,,,,,,,,10,,,,84,80
80760,set_tempo,120,1,0,,,,,,372671,,,,,,,,
80763,note_on,10,0,7,,,,,,,,,11,,,,72,80
80766,note_on,120,0,8,,,,,,,,,12,,,,48,0
80771,note_on,120,0,9,,,,,,,,,13,,,,48,0
80773,note_on,120,0,10,,,,,,,,,14,,,,36,0
80790,note_on,30,0,6,,,,,,,,,10,,,,84,0
80793,note_on,30,0,7,,,,,,,,,11,,,,72,0
80820,note_on,30,0,6,,,,,,,,,10,,,,84,80
80823,note_on,30,0,7,,,,,,,,,11,,,,72,80
80850,set_tempo,90,1,0,,,,,,428571,,,,,,,,
80850,note_on,30,0,6,,,,,,,,,10,,,,84,0
80853,note_on,30,0,7,,,,,,,,,11,,,,72,0
80873,note_on,230,0,1,,,,,,,,,0,,,,79,0
80875,note_on,0,0,2,,,,,,,,,1,,,,64,0
80875,note_on,230,0,2,,,,,,,,,1,,,,67,0
80880,set_tempo,30,1,0,,,,,,362538,,,,,,,,
80880,note_on,30,0,6,,,,,,,,,10,,,,77,100
80882,note_on,0,0,3,,,,,,,,,3,,,,55,0
80882,note_on,230,0,3,,,,,,,,,3,,,,52,0
80883,note_on,30,0,7,,,,,,,,,11,,,,72,80
80883,note_on,10,0,1,,,,,,,,,0,,,,77,82
80885,note_on,10,0,2,,,,,,,,,1,,,,65,81
80886,note_on,120,0,8,,,,,,,,,12,,,,69,98
80891,note_on,120,0,9,,,,,,,,,13,,,,41,89
80892,note_on,10,0,3,,,,,,,,,3,,,,53,81
80893,note_on,120,0,10,,,,,,,,,14,,,,29,73
80910,note_on,30,0,6,,,,,,,,,10,,,,77,0
80920,set_tempo,40,1,0,,,,,,346821,,,,,,,,
80920,note_on,10,0,6,,,,,,,,,10,,,,81,100
80943,note_on,60,0,7,,,,,,,,,11,,,,72,0
80946,note_on,60,0,8,,,,,,,,,12,,,,69,0
80950,note_on,30,0,6,,,,,,,,,10,,,,81,0
80960,note_on,10,0,6,,,,,,,,,10,,,,77,100
80990,note_on,30,0,6,,,,,,,,,10,,,,77,0
81000,note_on,10,0,6,,,,,,,,,10,,,,76,100
81000,set_tempo,80,1,0,,,,,,390879,,,,,,,,
81003,note_on,60,0,7,,,,,,,,,11,,,,70,100
81003,note_on,120,0,1,,,,,,,,,0,,,,77,0
81005,note_on,120,0,2,,,,,,,,,1,,,,65,0
81006,note_on,60,0,8,,,,,,,,,12,,,,67,98
81011,note_on,120,0,9,,,,,,,,,13,,,,41,0
81012,note_on,120,0,3,,,,,,,,,3,,,,53,0
81013,note_on,120,0,10,,,,,,,,,14,,,,29,0
81030,note_on,30,0,6,,,,,,,,,10,,,,76,0
81040,set_tempo,40,1,0,,,,,,373832,,,,,,,,
81040,note_on,10,0,6,,,,,,,,,10,,,,79,100
81063,note_on,60,0,7,,,,,,,,,11,,,,70,0
81066,note_on,60,0,8,,,,,,,,,12,,,,67,0
81070,note_on,30,0,6,,,,,,,,,10,,,,79,0
81080,note_on,10,0,6,,,,,,,,,10,,,,76,100
81110,note_on,30,0,6,,,,,,,,,10,,,,76,0
81120,note_on,10,0,6,,,,,,,,,10,,,,74,100
81120,set_tempo,80,1,0,,,,,,362538,,,,,,,,
81123,note_on,60,0,7,,,,,,,,,11,,,,69,100
81126,note_on,60,0,8,,,,,,,,,12,,,,65,98
81150,note_on,30,0,6,,,,,,,,,10,,,,74,0
81160,note_on,10,0,6,,,,,,,,,10,,,,77,100
81160,set_tempo,40,1,0,,,,,,346821,,,,,,,,
81183,note_on,60,0,7,,,,,,,,,11,,,,69,0
81186,note_on,60,0,8,,,,,,,,,12,,,,65,0
81190,note_on,30,0,6,,,,,,,,,10,,,,77,0
81200,note_on,10,0,6,,,,,,,,,10,,,,74,100
81230,note_on,30,0,6,,,,,,,,,10,,,,74,0
81240,note_on,10,0,6,,,,,,,,,10,,,,72,100
81240,set_tempo,80,1,0,,,,,,390879,,,,,,,,
81243,note_on,60,0,7,,,,,,,,,11,,,,67,100
81246,note_on,60,0,8,,,,,,,,,12,,,,64,98
81270,note_on,30,0,6,,,,,,,,,10,,,,72,0
81280,note_on,10,0,6,,,,,,,,,10,,,,76,100
81280,set_tempo,40,1,0,,,,,,373832,,,,,,,,
81303,note_on,60,0,7,,,,,,,,,11,,,,67,0
81306,note_on,60,0,8,,,,,,,,,12,,,,64,0
81310,note_on,30,0,6,,,,,,,,,10,,,,76,0
81320,note_on,10,0,6,,,,,,,,,10,,,,72,100
81350,note_on,30,0,6,,,,,,,,,10,,,,72,0
81360,set_tempo,80,1,0,,,,,,362538,,,,,,,,
81360,note_on,10,0,6,,,,,,,,,10,,,,70,100
81363,note_on,60,0,7,,,,,,,,,11,,,,65,100
81366,note_on,60,0,8,,,,,,,,,12,,,,62,98
81390,note_on,30,0,6,,,,,,,,,10,,,,70,0
81400,note_on,10,0,6,,,,,,,,,10,,,,74,100
81400,set_tempo,40,1,0,,,,,,346821,,,,,,,,
81423,note_on,60,0,7,,,,,,,,,11,,,,65,0
81426,note_on,60,0,8,,,,,,,,,12,,,,62,0
81430,note_on,30,0,6,,,,,,,,,10,,,,74,0
81440,note_on,10,0,6,,,,,,,,,10,,,,70,100
81470,note_on,30,0,6,,,,,,,,,10,,,,70,0
81480,set_tempo,80,1,0,,,,,,390879,,,,,,,,
81480,note_on,10,0,6,,,,,,,,,10,,,,69,100
81483,note_on,60,0,7,,,,,,,,,11,,,,64,100
81486,note_on,60,0,8,,,,,,,,,12,,,,60,98
81510,note_on,30,0,6,,,,,,,,,10,,,,69,0
81520,note_on,10,0,6,,,,,,,,,10,,,,72,100
81520,set_tempo,40,1,0,,,,,,373832,,,,,,,,
81543,note_on,60,0,7,,,,,,,,,11,,,,64,0
81546,note_on,60,0,8,,,,,,,,,12,,,,60,0
81550,note_on,30,0,6,,,,,,,,,10,,,,72,0
81560,note_on,10,0,6,,,,,,,,,10,,,,69,100
81590,note_on,30,0,6,,,,,,,,,10,,,,69,0
81600,note_on,10,0,6,,,,,,,,,10,,,,67,100
81600,set_tempo,80,1,0,,,,,,362538,,,,,,,,
81603,note_on,60,0,7,,,,,,,,,11,,,,62,100
81606,note_on,60,0,8,,,,,,,,,12,,,,58,98
81630,note_on,30,0,6,,,,,,,,,10,,,,67,0
81640,note_on,10,0,6,,,,,,,,,10,,,,70,100
81640,set_tempo,40,1,0,,,,,,346821,,,,,,,,
81663,note_on,60,0,7,,,,,,,,,11,,,,62,0
81666,note_on,60,0,8,,,,,,,,,12,,,,58,0
81670,note_on,30,0,6,,,,,,,,,10,,,,70,0
81680,note_on,10,0,6,,,,,,,,,10,,,,67,100
81710,note_on,30,0,6,,,,,,,,,10,,,,67,0
81720,note_on,10,0,6,,,,,,,,,10,,,,65,100
81720,set_tempo,80,1,0,,,,,,390879,,,,,,,,
81723,note_on,60,0,7,,,,,,,,,11,,,,60,100
81726,note_on,60,0,8,,,,,,,,,12,,,,57,98
81750,note_on,30,0,6,,,,,,,,,10,,,,65,0
81760,note_on,10,0,6,,,,,,,,,10,,,,69,100
81760,set_tempo,40,1,0,,,,,,373832,,,,,,,,
81783,note_on,60,0,7,,,,,,,,,11,,,,60,0
81786,note_on,60,0,8,,,,,,,,,12,,,,57,0
81790,note_on,30,0,6,,,,,,,,,10,,,,69,0
81800,note_on,10,0,6,,,,,,,,,10,,,,65,100
81825,control_change,25,0,6,,,,,,,,,10,11,47,,,
81827,control_change,2,0,6,,,,,,,,,10,11,51,,,
81828,control_change,45,0,7,,,,,,,,,11,11,47,,,
81829,control_change,2,0,6,,,,,,,,,10,11,55,,,
81830,control_change,2,0,7,,,,,,,,,11,11,51,,,
81830,note_on,1,0,6,,,,,,,,,10,,,,65,0
81831,control_change,45,0,8,,,,,,,,,12,11,47,,,
81831,control_change,1,0,6,,,,,,,,,10,11,59,,,
81832,control_change,2,0,7,,,,,,,,,11,11,55,,,
81833,control_change,2,0,6,,,,,,,,,10,11,62,,,
81833,control_change,2,0,8,,,,,,,,,12,11,51,,,
81834,control_change,2,0,7,,,,,,,,,11,11,59,,,
81835,control_change,2,0,6,,,,,,,,,10,11,65,,,
81835,control_change,2,0,8,,,,,,,,,12,11,55,,,
81836,control_change,2,0,7,,,,,,,,,11,11,62,,,
81836,control_change,825,0,9,,,,,,,,,13,11,47,,,
81837,control_change,2,0,8,,,,,,,,,12,11,59,,,
81837,control_change,2,0,6,,,,,,,,,10,11,68,,,
81838,control_change,825,0,10,,,,,,,,,14,11,47,,,
81838,control_change,2,0,7,,,,,,,,,11,11,65,,,
81838,control_change,2,0,9,,,,,,,,,13,11,51,,,
81839,control_change,2,0,6,,,,,,,,,10,11,71,,,
81839,control_change,2,0,8,,,,,,,,,12,11,62,,,
81840,control_change,2,0,9,,,,,,,,,13,11,55,,,
81840,control_change,2,0,7,,,,,,,,,11,11,68,,,
81840,note_on,1,0,6,,,,,,,,,10,,,,74,100
81840,control_change,2,0,10,,,,,,,,,14,11,51,,,
81840,set_tempo,80,1,0,,,,,,362538,,,,,,,,
81841,control_change,2,0,8,,,,,,,,,12,11,65,,,
81842,control_change,2,0,9,,,,,,,,,13,11,59,,,
81842,control_change,2,0,7,,,,,,,,,11,11,71,,,
81842,control_change,2,0,10,,,,,,,,,14,11,55,,,
81843,control_change,3,0,6,,,,,,,,,10,11,76,,,
81843,note_on,1,0,7,,,,,,,,,11,,,,70,100
81843,control_change,840,0,1,,,,,,,,,0,11,79,,,
81843,note_on,0,0,1,,,,,,,,,0,,,,86,82
81843,note_on,0,0,7,,,,,,,,,11,,,,62,100
81843,control_change,2,0,8,,,,,,,,,12,11,68,,,
81844,control_change,2,0,10,,,,,,,,,14,11,59,,,
81844,note_on,0,0,4,,,,,,,,,4,,,,62,86
81844,control_change,1560,0,4,,,,,,,,,4,11,79,,,
81844,control_change,2,0,9,,,,,,,,,13,11,62,,,
81845,control_change,2,0,6,,,,,,,,,10,11,79,,,
81845,note_on,0,0,2,,,,,,,,,1,,,,74,81
81845,note_on,0,0,2,,,,,,,,,1,,,,70,81
81845,control_change,840,0,2,,,,,,,,,1,11,79,,,
81845,control_change,2,0,8,,,,,,,,,12,11,71,,,
81846,note_on,0,0,5,,,,,,,,,5,,,,53,86
81846,control_change,1560,0,5,,,,,,,,,5,11,79,,,
81846,control_change,2,0,10,,,,,,,,,14,11,62,,,
81846,control_change,3,0,7,,,,,,,,,11,11,76,,,
81846,control_change,2,0,9,,,,,,,,,13,11,65,,,
81846,note_on,1,0,8,,,,,,,,,12,,,,58,98
81848,control_change,2,0,10,,,,,,,,,14,11,65,,,
81848,control_change,2,0,9,,,,,,,,,13,11,68,,,
81848,control_change,2,0,7,,,,,,,,,11,11,79,,,
81849,control_change,3,0,8,,,,,,,,,12,11,76,,,
81850,control_change,2,0,10,,,,,,,,,14,11,68,,,
81850,control_change,2,0,9,,,,,,,,,13,11,71,,,
81851,control_change,2,0,8,,,,,,,,,12,11,79,,,
81851,note_on,1,0,9,,,,,,,,,13,,,,46,89
81852,control_change,2,0,10,,,,,,,,,14,11,71,,,
81852,control_change,840,0,3,,,,,,,,,3,11,79,,,
81852,note_on,0,0,3,,,,,,,,,3,,,,46,81
81852,note_on,0,0,3,,,,,,,,,3,,,,58,81
81853,note_on,1,0,10,,,,,,,,,14,,,,34,73
81854,control_change,3,0,9,,,,,,,,,13,11,76,,,
81856,control_change,3,0,10,,,,,,,,,14,11,76,,,
81856,control_change,2,0,9,,,,,,,,,13,11,79,,,
81858,control_change,2,0,10,,,,,,,,,14,11,79,,,
81870,note_on,25,0,6,,,,,,,,,10,,,,74,0
81873,note_on,25,0,7,,,,,,,,,11,,,,62,0
81873,note_on,0,0,7,,,,,,,,,11,,,,70,0
81876,note_on,25,0,8,,,,,,,,,12,,,,58,0
81880,note_on,10,0,6,,,,,,,,,10,,,,74,92
81880,set_tempo,40,1,0,,,,,,346821,,,,,,,,
81881,note_on,25,0,9,,,,,,,,,13,,,,46,0
81883,note_on,10,0,7,,,,,,,,,11,,,,70,92
81883,note_on,0,0,7,,,,,,,,,11,,,,62,92
81883,note_on,25,0,10,,,,,,,,,14,,,,34,0
81886,note_on,10,0,8,,,,,,,,,12,,,,58,90
81891,note_on,10,0,9,,,,,,,,,13,,,,46,81
81893,note_on,10,0,10,,,,,,,,,14,,,,34,65
81910,note_on,30,0,6,,,,,,,,,10,,,,74,0
81913,note_on,30,0,7,,,,,,,,,11,,,,62,0
81913,note_on,0,0,7,,,,,,,,,11,,,,70,0
81916,note_on,30,0,8,,,,,,,,,12,,,,58,0
81920,note_on,10,0,6,,,,,,,,,10,,,,74,100
81921,note_on,30,0,9,,,,,,,,,13,,,,46,0
81923,note_on,10,0,7,,,,,,,,,11,,,,62,100
81923,note_on,0,0,7,,,,,,,,,11,,,,70,100
81923,note_on,30,0,10,,,,,,,,,14,,,,34,0
81926,note_on,10,0,8,,,,,,,,,12,,,,58,98
81931,note_on,10,0,9,,,,,,,,,13,,,,46,89
81933,note_on,10,0,10,,,,,,,,,14,,,,34,73
81950,note_on,30,0,6,,,,,,,,,10,,,,74,0
81953,note_on,0,0,7,,,,,,,,,11,,,,62,0
81953,note_on,30,0,7,,,,,,,,,11,,,,70,0
81956,note_on,30,0,8,,,,,,,,,12,,,,58,0
81960,note_on,10,0,6,,,,,,,,,10,,,,74,92
81960,set_tempo,80,1,0,,,,,,390879,,,,,,,,
81961,note_on,30,0,9,,,,,,,,,13,,,,46,0
81963,note_on,0,0,7,,,,,,,,,11,,,,62,92
81963,note_on,10,0,7,,,,,,,,,11,,,,70,92
81963,note_on,30,0,10,,,,,,,,,14,,,,34,0
81966,note_on,10,0,8,,,,,,,,,12,,,,58,90
81971,note_on,10,0,9,,,,,,,,,13,,,,46,81
81973,note_on,10,0,10,,,,,,,,,14,,,,34,65
81990,note_on,30,0,6,,,,,,,,,10,,,,74,0
81993,note_on,0,0,7,,,,,,,,,11,,,,70,0
81993,note_on,30,0,7,,,,,,,,,11,,,,62,0
81996,note_on,30,0,8,,,,,,,,,12,,,,58,0
82000,note_on,10,0,6,,,,,,,,,10,,,,74,100
82000,set_tempo,40,1,0,,,,,,373832,,,,,,,,
82001,note_on,30,0,9,,,,,,,,,13,,,,46,0
82003,note_on,10,0,7,,,,,,,,,11,,,,70,100
82003,note_on,0,0,7,,,,,,,,,11,,,,62,100
82003,note_on,30,0,10,,,,,,,,,14,,,,34,0
82006,note_on,10,0,8,,,,,,,,,12,,,,58,98
82011,note_on,10,0,9,,,,,,,,,13,,,,46,89
82013,note_on,10,0,10,,,,,,,,,14,,,,34,73
82018,note_on,175,0,1,,,,,,,,,0,,,,86,0
82019,note_on,175,0,4,,,,,,,,,4,,,,62,0
82020,note_on,175,0,2,,,,,,,,,1,,,,74,0
82020,note_on,0,0,2,,,,,,,,,1,,,,70,0
82021,note_on,175,0,5,,,,,,,,,5,,,,53,0
82023,note_on,5,0,1,,,,,,,,,0,,,,86,82
82024,note_on,5,0,4,,,,,,,,,4,,,,62,86
82025,note_on,5,0,2,,,,,,,,,1,,,,70,81
82025,note_on,0,0,2,,,,,,,,,1,,,,74,81
82026,note_on,5,0,5,,,,,,,,,5,,,,53,86
82027,note_on,175,0,3,,,,,,,,,3,,,,58,0
82027,note_on,0,0,3,,,,,,,,,3,,,,46,0
82030,note_on,30,0,6,,,,,,,,,10,,,,74,0
82032,note_on,5,0,3,,,,,,,,,3,,,,46,81
82032,note_on,0,0,3,,,,,,,,,3,,,,58,81
82033,note_on,0,0,7,,,,,,,,,11,,,,70,0
82033,note_on,30,0,7,,,,,,,,,11,,,,62,0
82036,note_on,30,0,8,,,,,,,,,12,,,,58,0
82040,note_on,10,0,6,,,,,,,,,10,,,,74,92
82041,note_on,30,0,9,,,,,,,,,13,,,,46,0
82043,note_on,30,0,10,,,,,,,,,14,,,,34,0
82043,note_on,10,0,7,,,,,,,,,11,,,,62,92
82043,note_on,0,0,7,,,,,,,,,11,,,,70,92
82046,note_on,10,0,8,,,,,,,,,12,,,,58,90
82051,note_on,10,0,9,,,,,,,,,13,,,,46,81
82053,note_on,10,0,10,,,,,,,,,14,,,,34,65
82070,note_on,30,0,6,,,,,,,,,10,,,,74,0
82073,note_on,30,0,7,,,,,,,,,11,,,,70,0
82073,note_on,0,0,7,,,,,,,,,11,,,,62,0
82076,note_on,30,0,8,,,,,,,,,12,,,,58,0
82078,note_on,55,0,1,,,,,,,,,0,,,,86,0
82079,note_on,55,0,4,,,,,,,,,4,,,,62,0
82080,note_on,55,0,2,,,,,,,,,1,,,,74,0
82080,note_on,10,0,6,,,,,,,,,10,,,,77,100
82080,set_tempo,80,1,0,,,,,,362538,,,,,,,,
82080,note_on,0,0,2,,,,,,,,,1,,,,70,0
82081,note_on,30,0,9,,,,,,,,,13,,,,46,0
82081,note_on,55,0,5,,,,,,,,,5,,,,53,0
82083,note_on,30,0,10,,,,,,,,,14,,,,34,0
82083,note_on,10,0,7,,,,,,,,,11,,,,70,100
82083,note_on,0,0,7,,,,,,,,,11,,,,65,100
82083,note_on,5,0,1,,,,,,,,,0,,,,89,82
82084,note_on,5,0,4,,,,,,,,,4,,,,65,86
82085,note_on,5,0,2,,,,,,,,,1,,,,70,81
82085,note_on,0,0,2,,,,,,,,,1,,,,77,81
82086,note_on,5,0,5,,,,,,,,,5,,,,53,86
82086,note_on,10,0,8,,,,,,,,,12,,,,62,98
82087,note_on,0,0,3,,,,,,,,,3,,,,46,0
82087,note_on,55,0,3,,,,,,,,,3,,,,58,0
82091,note_on,10,0,9,,,,,,,,,13,,,,50,89
82092,note_on,5,0,3,,,,,,,,,3,,,,62,81
82092,note_on,0,0,3,,,,,,,,,3,,,,50,81
82093,note_on,10,0,10,,,,,,,,,14,,,,38,73
82110,note_on,30,0,6,,,,,,,,,10,,,,77,0
82113,note_on,30,0,7,,,,,,,,,11,,,,65,0
82113,note_on,0,0,7,,,,,,,,,11,,,,70,0
82116,note_on,30,0,8,,,,,,,,,12,,,,62,0
82120,set_tempo,40,1,0,,,,,,346821,,,,,,,,
82120,note_on,10,0,6,,,,,,,,,10,,,,77,92
82121,note_on,30,0,9,,,,,,,,,13,,,,50,0
82123,note_on,30,0,10,,,,,,,,,14,,,,38,0
82123,note_on,10,0,7,,,,,,,,,11,,,,70,92
82123,note_on,0,0,7,,,,,,,,,11,,,,65,92
82126,note_on,10,0,8,,,,,,,,,12,,,,62,90
82131,note_on,10,0,9,,,,,,,,,13,,,,50,81
82133,note_on,10,0,10,,,,,,,,,14,,,,38,65
82150,note_on,30,0,6,,,,,,,,,10,,,,77,0
82153,note_on,30,0,7,,,,,,,,,11,,,,65,0
82153,note_on,0,0,7,,,,,,,,,11,,,,70,0
82156,note_on,30,0,8,,,,,,,,,12,,,,62,0
82160,note_on,10,0,6,,,,,,,,,10,,,,77,100
82161,note_on,30,0,9,,,,,,,,,13,,,,50,0
82163,note_on,10,0,7,,,,,,,,,11,,,,70,100
82163,note_on,30,0,10,,,,,,,,,14,,,,38,0
82163,note_on,0,0,7,,,,,,,,,11,,,,65,100
82166,note_on,10,0,8,,,,,,,,,12,,,,62,98
82171,note_on,10,0,9,,,,,,,,,13,,,,50,89
82173,note_on,10,0,10,,,,,,,,,14,,,,38,73
82190,note_on,30,0,6,,,,,,,,,10,,,,77,0
82193,note_on,0,0,7,,,,,,,,,11,,,,70,0
82193,note_on,30,0,7,,,,,,,,,11,,,,65,0
82196,note_on,30,0,8,,,,,,,,,12,,,,62,0
82200,set_tempo,80,1,0,,,,,,390879,,,,,,,,
82200,note_on,10,0,6,,,,,,,,,10,,,,77,92
82201,note_on,30,0,9,,,,,,,,,13,,,,50,0
82203,note_on,30,0,10,,,,,,,,,14,,,,38,0
82203,note_on,0,0,7,,,,,,,,,11,,,,65,92
82203,note_on,10,0,7,,,,,,,,,11,,,,70,92
82206,note_on,10,0,8,,,,,,,,,12,,,,62,90
82211,note_on,10,0,9,,,,,,,,,13,,,,50,81
82213,note_on,10,0,10,,,,,,,,,14,,,,38,65
82230,note_on,30,0,6,,,,,,,,,10,,,,77,0
82233,note_on,30,0,7,,,,,,,,,11,,,,65,0
82233,note_on,0,0,7,,,,,,,,,11,,,,70,0
82236,note_on,30,0,8,,,,,,,,,12,,,,62,0
82240,note_on,10,0,6,,,,,,,,,10,,,,77,100
82240,set_tempo,40,1,0,,,,,,373832,,,,,,,,
82241,note_on,30,0,9,,,,,,,,,13,,,,50,0
82243,note_on,0,0,7,,,,,,,,,11,,,,70,100
82243,note_on,10,0,7,,,,,,,,,11,,,,65,100
82243,note_on,30,0,10,,,,,,,,,14,,,,38,0
82246,note_on,10,0,8,,,,,,,,,12,,,,62,98
82251,note_on,10,0,9,,,,,,,,,13,,,,50,89
82253,note_on,10,0,10,,,,,,,,,14,,,,38,73
82258,note_on,175,0,1,,,,,,,,,0,,,,89,0
82259,note_on,175,0,4,,,,,,,,,4,,,,65,0
82260,note_on,0,0,2,,,,,,,,,1,,,,70,0
82260,note_on,175,0,2,,,,,,,,,1,,,,77,0
82261,note_on,175,0,5,,,,,,,,,5,,,,53,0
82263,note_on,5,0,1,,,,,,,,,0,,,,89,82
82264,note_on,5,0,4,,,,,,,,,4,,,,65,86
82265,note_on,0,0,2,,,,,,,,,1,,,,70,81
82265,note_on,5,0,2,,,,,,,,,1,,,,77,81
82266,note_on,5,0,5,,,,,,,,,5,,,,53,86
82267,note_on,175,0,3,,,,,,,,,3,,,,50,0
82267,note_on,0,0,3,,,,,,,,,3,,,,62,0
82270,note_on,30,0,6,,,,,,,,,10,,,,77,0
82272,note_on,0,0,3,,,,,,,,,3,,,,50,81
82272,note_on,5,0,3,,,,,,,,,3,,,,62,81
82273,note_on,30,0,7,,,,,,,,,11,,,,70,0
82273,note_on,0,0,7,,,,,,,,,11,,,,65,0
82276,note_on,30,0,8,,,,,,,,,12,,,,62,0
82280,note_on,10,0,6,,,,,,,,,10,,,,77,92
82281,note_on,30,0,9,,,,,,,,,13,,,,50,0
82283,note_on,0,0,7,,,,,,,,,11,,,,70,92
82283,note_on,10,0,7,,,,,,,,,11,,,,65,92
82283,note_on,30,0,10,,,,,,,,,14,,,,38,0
82286,note_on,10,0,8,,,,,,,,,12,,,,62,90
82291,note_on,10,0,9,,,,,,,,,13,,,,50,81
82293,note_on,10,0,10,,,,,,,,,14,,,,38,65
82310,note_on,30,0,6,,,,,,,,,10,,,,77,0
82313,note_on,0,0,7,,,,,,,,,11,,,,65,0
82313,note_on,30,0,7,,,,,,,,,11,,,,70,0
82316,note_on,30,0,8,,,,,,,,,12,,,,62,0
82318,note_on,55,0,1,,,,,,,,,0,,,,89,0
82319,note_on,55,0,4,,,,,,,,,4,,,,65,0
82320,set_tempo,80,1,0,,,,,,362538,,,,,,,,
82320,note_on,0,0,2,,,,,,,,,1,,,,77,0
82320,note_on,55,0,2,,,,,,,,,1,,,,70,0
82320,note_on,10,0,6,,,,,,,,,10,,,,77,100
82321,note_on,30,0,9,,,,,,,,,13,,,,50,0
82321,note_on,55,0,5,,,,,,,,,5,,,,53,0
82323,note_on,10,0,7,,,,,,,,,11,,,,69,100
82323,note_on,0,0,7,,,,,,,,,11,,,,65,100
82323,note_on,30,0,10,,,,,,,,,14,,,,38,0
82323,note_on,5,0,1,,,,,,,,,0,,,,89,82
82324,note_on,5,0,4,,,,,,,,,4,,,,65,86
82325,note_on,0,0,2,,,,,,,,,1,,,,69,81
82325,note_on,5,0,2,,,,,,,,,1,,,,77,81
82326,note_on,10,0,8,,,,,,,,,12,,,,65,98
82326,note_on,5,0,5,,,,,,,,,5,,,,53,86
82327,note_on,55,0,3,,,,,,,,,3,,,,50,0
82327,note_on,0,0,3,,,,,,,,,3,,,,62,0
82331,note_on,10,0,9,,,,,,,,,13,,,,53,89
82332,note_on,5,0,3,,,,,,,,,3,,,,65,81
82332,note_on,0,0,3,,,,,,,,,3,,,,53,81
82333,note_on,10,0,10,,,,,,,,,14,,,,41,73
82350,note_on,30,0,6,,,,,,,,,10,,,,77,0
82353,note_on,0,0,7,,,,,,,,,11,,,,69,0
82353,note_on,30,0,7,,,,,,,,,11,,,,65,0
82356,note_on,30,0,8,,,,,,,,,12,,,,65,0
82360,note_on,10,0,6,,,,,,,,,10,,,,77,92
82360,set_tempo,40,1,0,,,,,,346821,,,,,,,,
82361,note_on,30,0,9,,,,,,,,,13,,,,53,0
82363,note_on,0,0,7,,,,,,,,,11,,,,65,92
82363,note_on,10,0,7,,,,,,,,,11,,,,69,92
82363,note_on,30,0,10,,,,,,,,,14,,,,41,0
82366,note_on,10,0,8,,,,,,,,,12,,,,65,90
82371,note_on,10,0,9,,,,,,,,,13,,,,53,81
82373,note_on,10,0,10,,,,,,,,,14,,,,41,65
82390,note_on,30,0,6,,,,,,,,,10,,,,77,0
82393,note_on,0,0,7,,,,,,,,,11,,,,69,0
82393,note_on,30,0,7,,,,,,,,,11,,,,65,0
82396,note_on,30,0,8,,,,,,,,,12,,,,65,0
82400,note_on,10,0,6,,,,,,,,,10,,,,77,100
82401,note_on,30,0,9,,,,,,,,,13,,,,53,0
82403,note_on,0,0,7,,,,,,,,,11,,,,69,100
82403,note_on,10,0,7,,,,,,,,,11,,,,65,100
82403,note_on,30,0,10,,,,,,,,,14,,,,41,0
82406,note_on,10,0,8,,,,,,,,,12,,,,65,98
82411,note_on,10,0,9,,,,,,,,,13,,,,53,89
82413,note_on,10,0,10,,,,,,,,,14,,,,41,73
82430,note_on,30,0,6,,,,,,,,,10,,,,77,0
82433,note_on,0,0,7,,,,,,,,,11,,,,65,0
82433,note_on,30,0,7,,,,,,,,,11,,,,69,0
82436,note_on,30,0,8,,,,,,,,,12,,,,65,0
82440,set_tempo,80,1,0,,,,,,390879,,,,,,,,
82440,note_on,10,0,6,,,,,,,,,10,,,,81,92
82441,note_on,30,0,9,,,,,,,,,13,,,,53,0
82443,note_on,10,0,7,,,,,,,,,11,,,,69,92
82443,note_on,30,0,10,,,,,,,,,14,,,,41,0
82446,note_on,10,0,8,,,,,,,,,12,,,,69,90
82447,note_on,115,0,3,,,,,,,,,3,,,,53,0
82447,note_on,0,0,3,,,,,,,,,3,,,,65,0
82451,note_on,10,0,9,,,,,,,,,13,,,,57,81
82452,note_on,0,0,3,,,,,,,,,3,,,,45,81
82452,note_on,5,0,3,,,,,,,,,3,,,,57,81
82453,note_on,10,0,10,,,,,,,,,14,,,,45,65
82470,note_on,30,0,6,,,,,,,,,10,,,,81,0
82473,note_on,30,0,7,,,,,,,,,11,,,,69,0
82476,note_on,30,0,8,,,,,,,,,12,,,,69,0
82480,set_tempo,40,1,0,,,,,,373832,,,,,,,,
82480,note_on,10,0,6,,,,,,,,,10,,,,81,100
82481,note_on,30,0,9,,,,,,,,,13,,,,57,0
82483,note_on,30,0,10,,,,,,,,,14,,,,45,0
82483,note_on,10,0,7,,,,,,,,,11,,,,69,100
82486,note_on,10,0,8,,,,,,,,,12,,,,69,98
82491,note_on,10,0,9,,,,,,,,,13,,,,57,89
82493,note_on,10,0,10,,,,,,,,,14,,,,45,73
82510,note_on,30,0,6,,,,,,,,,10,,,,81,0
82513,note_on,30,0,7,,,,,,,,,11,,,,69,0
82516,note_on,30,0,8,,,,,,,,,12,,,,69,0
82520,note_on,10,0,6,,,,,,,,,10,,,,81,92
82521,note_on,30,0,9,,,,,,,,,13,,,,57,0
82523,note_on,30,0,10,,,,,,,,,14,,,,45,0
82523,note_on,10,0,7,,,,,,,,,11,,,,69,92
82526,note_on,10,0,8,,,,,,,,,12,,,,69,90
82531,note_on,10,0,9,,,,,,,,,13,,,,57,81
82533,note_on,10,0,10,,,,,,,,,14,,,,45,65
82550,note_on,30,0,6,,,,,,,,,10,,,,81,0
82553,note_on,30,0,7,,,,,,,,,11,,,,69,0
82556,note_on,30,0,8,,,,,,,,,12,,,,69,0
82560,note_on,10,0,6,,,,,,,,,10,,,,86,100
82560,set_tempo,80,1,0,,,,,,362538,,,,,,,,
82561,note_on,30,0,9,,,,,,,,,13,,,,57,0
82563,note_on,10,0,7,,,,,,,,,11,,,,74,100
82563,note_on,30,0,10,,,,,,,,,14,,,,45,0
82566,note_on,10,0,8,,,,,,,,,12,,,,74,98
82567,note_on,115,0,3,,,,,,,,,3,,,,45,0
82567,note_on,0,0,3,,,,,,,,,3,,,,57,0
82571,note_on,10,0,9,,,,,,,,,13,,,,62,89
82572,note_on,0,0,3,,,,,,,,,3,,,,62,81
82572,note_on,5,0,3,,,,,,,,,3,,,,50,81
82573,note_on,10,0,10,,,,,,,,,14,,,,50,73
82590,note_on,30,0,6,,,,,,,,,10,,,,86,0
82593,note_on,30,0,7,,,,,,,,,11,,,,74,0
82596,note_on,30,0,8,,,,,,,,,12,,,,74,0
82600,note_on,10,0,6,,,,,,,,,10,,,,86,92
82600,set_tempo,40,1,0,,,,,,346821,,,,,,,,
82601,note_on,30,0,9,,,,,,,,,13,,,,62,0
82603,note_on,10,0,7,,,,,,,,,11,,,,74,92
82603,note_on,30,0,10,,,,,,,,,14,,,,50,0
82606,note_on,10,0,8,,,,,,,,,12,,,,74,90
82611,note_on,10,0,9,,,,,,,,,13,,,,62,81
82613,note_on,10,0,10,,,,,,,,,14,,,,50,65
82630,note_on,30,0,6,,,,,,,,,10,,,,86,0
82633,note_on,30,0,7,,,,,,,,,11,,,,74,0
82636,note_on,30,0,8,,,,,,,,,12,,,,74,0
82640,note_on,10,0,6,,,,,,,,,10,,,,86,100
82641,note_on,30,0,9,,,,,,,,,13,,,,62,0
82643,note_on,10,0,7,,,,,,,,,11,,,,74,100
82643,note_on,30,0,10,,,,,,,,,14,,,,50,0
82646,note_on,10,0,8,,,,,,,,,12,,,,74,98
82651,note_on,10,0,9,,,,,,,,,13,,,,62,89
82653,note_on,10,0,10,,,,,,,,,14,,,,50,73
82670,note_on,30,0,6,,,,,,,,,10,,,,86,0
82673,note_on,30,0,7,,,,,,,,,11,,,,74,0
82676,note_on,30,0,8,,,,,,,,,12,,,,74,0
82678,note_on,355,0,1,,,,,,,,,0,,,,89,0
82679,note_on,355,0,4,,,,,,,,,4,,,,65,0
82680,note_on,355,0,2,,,,,,,,,1,,,,69,0
82680,note_on,10,0,6,,,,,,,,,10,,,,83,92
82680,note_on,0,0,2,,,,,,,,,1,,,,77,0
82680,set_tempo,80,1,0,,,,,,390879,,,,,,,,
82681,note_on,30,0,9,,,,,,,,,13,,,,62,0
82681,note_on,355,0,5,,,,,,,,,5,,,,53,0
82683,note_on,5,0,1,,,,,,,,,0,,,,83,82
82683,note_on,30,0,10,,,,,,,,,14,,,,50,0
82683,note_on,10,0,7,,,,,,,,,11,,,,71,92
82684,note_on,5,0,4,,,,,,,,,4,,,,65,86
82685,note_on,0,0,2,,,,,,,,,1,,,,71,81
82685,note_on,5,0,2,,,,,,,,,1,,,,77,81
82686,note_on,5,0,5,,,,,,,,,5,,,,53,86
82686,note_on,10,0,8,,,,,,,,,12,,,,62,90
82687,note_on,0,0,3,,,,,,,,,3,,,,50,0
82687,note_on,115,0,3,,,,,,,,,3,,,,62,0
82691,note_on,10,0,9,,,,,,,,,13,,,,50,81
82692,note_on,5,0,3,,,,,,,,,3,,,,62,81
82692,note_on,0,0,3,,,,,,,,,3,,,,50,81
82693,note_on,10,0,10,,,,,,,,,14,,,,38,65
82710,note_on,30,0,6,,,,,,,,,10,,,,83,0
82713,note_on,30,0,7,,,,,,,,,11,,,,71,0
82716,note_on,30,0,8,,,,,,,,,12,,,,62,0
82720,note_on,10,0,6,,,,,,,,,10,,,,83,100
82720,set_tempo,40,1,0,,,,,,373832,,,,,,,,
82721,note_on,30,0,9,,,,,,,,,13,,,,50,0
82723,note_on,30,0,10,,,,,,,,,14,,,,38,0
82723,note_on,10,0,7,,,,,,,,,11,,,,71,100
82726,note_on,10,0,8,,,,,,,,,12,,,,62,98
82731,note_on,10,0,9,,,,,,,,,13,,,,50,89
82733,note_on,10,0,10,,,,,,,,,14,,,,38,73
82750,note_on,30,0,6,,,,,,,,,10,,,,83,0
82753,note_on,30,0,7,,,,,,,,,11,,,,71,0
82756,note_on,30,0,8,,,,,,,,,12,,,,62,0
82760,note_on,10,0,6,,,,,,,,,10,,,,83,92
82761,note_on,30,0,9,,,,,,,,,13,,,,50,0
82763,note_on,30,0,10,,,,,,,,,14,,,,38,0
82763,note_on,10,0,7,,,,,,,,,11,,,,71,92
82766,note_on,10,0,8,,,,,,,,,12,,,,62,90
82771,note_on,10,0,9,,,,,,,,,13,,,,50,81
82773,note_on,10,0,10,,,,,,,,,14,,,,38,65
82790,note_on,30,0,6,,,,,,,,,10,,,,83,0
82793,note_on,30,0,7,,,,,,,,,11,,,,71,0
82796,note_on,30,0,8,,,,,,,,,12,,,,62,0
82798,note_on,115,0,1,,,,,,,,,0,,,,83,0
82799,note_on,115,0,4,,,,,,,,,4,,,,65,0
82800,set_tempo,80,1,0,,,,,,362538,,,,,,,,
82800,note_on,115,0,2,,,,,,,,,1,,,,71,0
82800,note_on,0,0,2,,,,,,,,,1,,,,77,0
82800,note_on,10,0,6,,,,,,,,,10,,,,84,100
82801,note_on,115,0,5,,,,,,,,,5,,,,53,0
82801,note_on,30,0,9,,,,,,,,,13,,,,50,0
82803,note_on,0,0,7,,,,,,,,,11,,,,81,100
82803,note_on,10,0,7,,,,,,,,,11,,,,72,100
82803,note_on,30,0,10,,,,,,,,,14,,,,38,0
82803,note_on,5,0,1,,,,,,,,,0,,,,84,95
82804,note_on,5,0,4,,,,,,,,,4,,,,60,86
82805,note_on,5,0,2,,,,,,,,,1,,,,72,94
82805,note_on,0,0,2,,,,,,,,,1,,,,81,94
82806,note_on,5,0,5,,,,,,,,,5,,,,60,86
82806,note_on,10,0,8,,,,,,,,,12,,,,60,98
82807,note_on,0,0,3,,,,,,,,,3,,,,62,0
82807,note_on,115,0,3,,,,,,,,,3,,,,50,0
82811,note_on,10,0,9,,,,,,,,,13,,,,48,89
82812,note_on,0,0,3,,,,,,,,,3,,,,48,94
82812,note_on,5,0,3,,,,,,,,,3,,,,60,94
82813,note_on,10,0,10,,,,,,,,,14,,,,36,73
82830,note_on,30,0,6,,,,,,,,,10,,,,84,0
82833,note_on,0,0,7,,,,,,,,,11,,,,72,0
82833,note_on,30,0,7,,,,,,,,,11,,,,81,0
82836,note_on,30,0,8,,,,,,,,,12,,,,60,0
82840,set_tempo,40,1,0,,,,,,346821,,,,,,,,
82840,note_on,10,0,6,,,,,,,,,10,,,,84,92
82841,note_on,30,0,9,,,,,,,,,13,,,,48,0
82843,note_on,30,0,10,,,,,,,,,14,,,,36,0
82843,note_on,0,0,7,,,,,,,,,11,,,,72,92
82843,note_on,10,0,7,,,,,,,,,11,,,,81,92
82846,note_on,10,0,8,,,,,,,,,12,,,,60,90
82851,note_on,10,0,9,,,,,,,,,13,,,,48,81
82853,note_on,10,0,10,,,,,,,,,14,,,,36,65
82870,note_on,30,0,6,,,,,,,,,10,,,,84,0
82873,note_on,0,0,7,,,,,,,,,11,,,,81,0
82873,note_on,30,0,7,,,,,,,,,11,,,,72,0
82876,note_on,30,0,8,,,,,,,,,12,,,,60,0
82880,note_on,10,0,6,,,,,,,,,10,,,,84,100
82881,note_on,30,0,9,,,,,,,,,13,,,,48,0
82883,note_on,0,0,7,,,,,,,,,11,,,,81,100
82883,note_on,10,0,7,,,,,,,,,11,,,,72,100
82883,note_on,30,0,10,,,,,,,,,14,,,,36,0
82886,note_on,10,0,8,,,,,,,,,12,,,,60,98
82891,note_on,10,0,9,,,,,,,,,13,,,,48,89
82893,note_on,10,0,10,,,,,,,,,14,,,,36,73
82910,note_on,30,0,6,,,,,,,,,10,,,,84,0
82913,note_on,30,0,7,,,,,,,,,11,,,,81,0
82913,note_on,0,0,7,,,,,,,,,11,,,,72,0
82916,note_on,30,0,8,,,,,,,,,12,,,,60,0
82920,note_on,10,0,6,,,,,,,,,10,,,,84,92
82920,set_tempo,80,1,0,,,,,,390879,,,,,,,,
82921,note_on,30,0,9,,,,,,,,,13,,,,48,0
82923,note_on,0,0,7,,,,,,,,,11,,,,72,92
82923,note_on,30,0,10,,,,,,,,,14,,,,36,0
82923,note_on,10,0,7,,,,,,,,,11,,,,81,92
82926,note_on,10,0,8,,,,,,,,,12,,,,60,90
82931,note_on,10,0,9,,,,,,,,,13,,,,48,81
82933,note_on,10,0,10,,,,,,,,,14,,,,36,65
82950,note_on,30,0,6,,,,,,,,,10,,,,84,0
82953,note_on,0,0,7,,,,,,,,,11,,,,81,0
82953,note_on,30,0,7,,,,,,,,,11,,,,72,0
82956,note_on,30,0,8,,,,,,,,,12,,,,60,0
82960,set_tempo,40,1,0,,,,,,373832,,,,,,,,
82960,note_on,10,0,6,,,,,,,,,10,,,,84,100
82961,note_on,30,0,9,,,,,,,,,13,,,,48,0
82963,note_on,0,0,7,,,,,,,,,11,,,,72,100
82963,note_on,30,0,10,,,,,,,,,14,,,,36,0
82963,note_on,10,0,7,,,,,,,,,11,,,,81,100
82966,note_on,10,0,8,,,,,,,,,12,,,,60,98
82971,note_on,10,0,9,,,,,,,,,13,,,,48,89
82973,note_on,10,0,10,,,,,,,,,14,,,,36,73
82990,note_on,30,0,6,,,,,,,,,10,,,,84,0
82993,note_on,0,0,7,,,,,,,,,11,,,,81,0
82993,note_on,30,0,7,,,,,,,,,11,,,,72,0
82996,note_on,30,0,8,,,,,,,,,12,,,,60,0
83000,note_on,10,0,6,,,,,,,,,10,,,,84,92
83001,note_on,30,0,9,,,,,,,,,13,,,,48,0
83003,note_on,0,0,7,,,,,,,,,11,,,,72,92
83003,note_on,30,0,10,,,,,,,,,14,,,,36,0
83003,note_on,10,0,7,,,,,,,,,11,,,,81,92
83006,note_on,10,0,8,,,,,,,,,12,,,,60,90
83011,note_on,10,0,9,,,,,,,,,13,,,,48,81
83013,note_on,10,0,10,,,,,,,,,14,,,,36,65
83030,note_on,30,0,6,,,,,,,,,10,,,,84,0
83033,note_on,0,0,7,,,,,,,,,11,,,,81,0
83033,note_on,30,0,7,,,,,,,,,11,,,,72,0
83036,note_on,30,0,8,,,,,,,,,12,,,,60,0
83040,note_on,10,0,6,,,,,,,,,10,,,,82,100
83040,set_tempo,80,1,0,,,,,,362538,,,,,,,,
83041,note_on,30,0,9,,,,,,,,,13,,,,48,0
83043,note_on,0,0,1,,,,,,,,,0,,,,82,82
83043,note_on,30,0,10,,,,,,,,,14,,,,36,0
83043,note_on,10,0,7,,,,,,,,,11,,,,79,100
83043,note_on,0,0,7,,,,,,,,,11,,,,72,100
83043,note_on,240,0,1,,,,,,,,,0,,,,84,0
83045,note_on,0,0,2,,,,,,,,,1,,,,79,81
83045,note_on,240,0,2,,,,,,,,,1,,,,81,0
83046,note_on,10,0,8,,,,,,,,,12,,,,60,98
83051,note_on,10,0,9,,,,,,,,,13,,,,48,89
83053,note_on,10,0,10,,,,,,,,,14,,,,36,73
83070,note_on,30,0,6,,,,,,,,,10,,,,82,0
83073,note_on,0,0,7,,,,,,,,,11,,,,79,0
83073,note_on,30,0,7,,,,,,,,,11,,,,72,0
83076,note_on,30,0,8,,,,,,,,,12,,,,60,0
83080,set_tempo,40,1,0,,,,,,346821,,,,,,,,
83080,note_on,10,0,6,,,,,,,,,10,,,,82,92
83081,note_on,30,0,9,,,,,,,,,13,,,,48,0
83083,note_on,10,0,7,,,,,,,,,11,,,,79,92
83083,note_on,30,0,10,,,,,,,,,14,,,,36,0
83083,note_on,0,0,7,,,,,,,,,11,,,,72,92
83086,note_on,10,0,8,,,,,,,,,12,,,,60,90
83091,note_on,10,0,9,,,,,,,,,13,,,,48,81
83093,note_on,10,0,10,,,,,,,,,14,,,,36,65
83110,note_on,30,0,6,,,,,,,,,10,,,,82,0
83113,note_on,0,0,7,,,,,,,,,11,,,,79,0
83113,note_on,30,0,7,,,,,,,,,11,,,,72,0
83116,note_on,30,0,8,,,,,,,,,12,,,,60,0
83120,note_on,10,0,6,,,,,,,,,10,,,,82,100
83121,note_on,30,0,9,,,,,,,,,13,,,,48,0
83123,note_on,30,0,10,,,,,,,,,14,,,,36,0
83123,note_on,10,0,7,,,,,,,,,11,,,,79,100
83123,note_on,0,0,7,,,,,,,,,11,,,,72,100
83126,note_on,10,0,8,,,,,,,,,12,,,,60,98
83131,note_on,10,0,9,,,,,,,,,13,,,,48,89
83133,note_on,10,0,10,,,,,,,,,14,,,,36,73
83150,note_on,30,0,6,,,,,,,,,10,,,,82,0
83153,note_on,30,0,7,,,,,,,,,11,,,,72,0
83153,note_on,0,0,7,,,,,,,,,11,,,,79,0
83156,note_on,30,0,8,,,,,,,,,12,,,,60,0
83160,note_on,10,0,6,,,,,,,,,10,,,,79,92
83160,set_tempo,80,1,0,,,,,,390879,,,,,,,,
83161,note_on,30,0,9,,,,,,,,,13,,,,48,0
83163,note_on,120,0,1,,,,,,,,,0,,,,82,0
83163,note_on,0,0,1,,,,,,,,,0,,,,79,82
83163,note_on,10,0,7,,,,,,,,,11,,,,76,92
83163,note_on,0,0,7,,,,,,,,,11,,,,70,92
83163,note_on,30,0,10,,,,,,,,,14,,,,36,0
83165,note_on,0,0,2,,,,,,,,,1,,,,72,0
83165,note_on,0,0,2,,,,,,,,,1,,,,76,81
83165,note_on,120,0,2,,,,,,,,,1,,,,79,0
83165,note_on,0,0,2,,,,,,,,,1,,,,70,81
83166,note_on,10,0,8,,,,,,,,,12,,,,60,90
83171,note_on,10,0,9,,,,,,,,,13,,,,48,81
83173,note_on,10,0,10,,,,,,,,,14,,,,36,65
83190,note_on,30,0,6,,,,,,,,,10,,,,79,0
83193,note_on,0,0,7,,,,,,,,,11,,,,76,0
83193,note_on,30,0,7,,,,,,,,,11,,,,70,0
83196,note_on,30,0,8,,,,,,,,,12,,,,60,0
83200,note_on,10,0,6,,,,,,,,,10,,,,79,100
83200,set_tempo,40,1,0,,,,,,373832,,,,,,,,
83201,note_on,30,0,9,,,,,,,,,13,,,,48,0
83203,note_on,10,0,7,,,,,,,,,11,,,,70,100
83203,note_on,0,0,7,,,,,,,,,11,,,,76,100
83203,note_on,30,0,10,,,,,,,,,14,,,,36,0
83206,note_on,10,0,8,,,,,,,,,12,,,,60,98
83211,note_on,10,0,9,,,,,,,,,13,,,,48,89
83213,note_on,10,0,10,,,,,,,,,14,,,,36,73
83230,note_on,30,0,6,,,,,,,,,10,,,,79,0
83233,note_on,0,0,7,,,,,,,,,11,,,,70,0
83233,note_on,30,0,7,,,,,,,,,11,,,,76,0
83236,note_on,30,0,8,,,,,,,,,12,,,,60,0
83240,note_on,10,0,6,,,,,,,,,10,,,,79,92
83241,note_on,30,0,9,,,,,,,,,13,,,,48,0
83243,note_on,10,0,7,,,,,,,,,11,,,,76,92
83243,note_on,30,0,10,,,,,,,,,14,,,,36,0
83243,note_on,0,0,7,,,,,,,,,11,,,,70,92
83246,note_on,10,0,8,,,,,,,,,12,,,,60,90
83250,set_tempo,50,1,0,,,,,,461538,,,,,,,,
83251,note_on,10,0,9,,,,,,,,,13,,,,48,81
83253,note_on,10,0,10,,,,,,,,,14,,,,36,65
83270,note_on,30,0,6,,,,,,,,,10,,,,79,0
83273,note_on,30,0,7,,,,,,,,,11,,,,70,0
83273,note_on,110,0,1,,,,,,,,,0,,,,79,0
83273,note_on,0,0,7,,,,,,,,,11,,,,76,0
83275,note_on,0,0,2,,,,,,,,,1,,,,76,0
83275,control_change,5,0,6,,,,,,,,,10,11,79,,,
83275,note_on,110,0,2,,,,,,,,,1,,,,70,0
83276,note_on,30,0,8,,,,,,,,,12,,,,60,0
83278,control_change,5,0,7,,,,,,,,,11,11,79,,,
83279,control_change,4,0,6,,,,,,,,,10,11,76,,,
83279,note_on,475,0,4,,,,,,,,,4,,,,60,0
83280,set_tempo,30,1,0,,,,,,362538,,,,,,,,
83280,note_on,1,0,6,,,,,,,,,10,,,,77,100
83281,note_on,475,0,5,,,,,,,,,5,,,,60,0
83281,control_change,5,0,8,,,,,,,,,12,11,79,,,
83281,note_on,30,0,9,,,,,,,,,13,,,,48,0
83282,note_on,470,0,3,,,,,,,,,3,,,,48,0
83282,note_on,0,0,3,,,,,,,,,3,,,,60,0
83282,control_change,4,0,7,,,,,,,,,11,11,76,,,
83283,control_change,10,0,1,,,,,,,,,0,11,47,,,
83283,note_on,1,0,7,,,,,,,,,11,,,,77,100
83283,note_on,0,0,7,,,,,,,,,11,,,,69,100
83283,note_on,30,0,10,,,,,,,,,14,,,,36,0
83283,control_change,3,0,6,,,,,,,,,10,11,73,,,
83283,note_on,0,0,1,,,,,,,,,0,,,,89,82
83284,note_on,0,0,4,,,,,,,,,4,,,,53,86
83284,control_change,5,0,4,,,,,,,,,4,11,47,,,
83285,control_change,4,0,8,,,,,,,,,12,11,76,,,
83285,note_on,0,0,2,,,,,,,,,1,,,,81,81
83285,control_change,10,0,2,,,,,,,,,1,11,47,,,
83285,note_on,0,0,2,,,,,,,,,1,,,,84,81
83286,control_change,5,0,9,,,,,,,,,13,11,79,,,
83286,note_on,0,0,5,,,,,,,,,5,,,,53,86
83286,note_on,1,0,8,,,,,,,,,12,,,,65,98
83286,control_change,3,0,7,,,,,,,,,11,11,73,,,
83286,control_change,5,0,5,,,,,,,,,5,11,47,,,
83288,control_change,5,0,10,,,,,,,,,14,11,79,,,
83289,control_change,3,0,8,,,,,,,,,12,11,73,,,
83290,control_change,4,0,9,,,,,,,,,13,11,76,,,
83291,note_on,1,0,9,,,,,,,,,13,,,,53,89
83291,control_change,8,0,6,,,,,,,,,10,11,68,,,
83292,control_change,4,0,10,,,,,,,,,14,11,76,,,
83292,control_change,10,0,3,,,,,,,,,3,11,47,,,
83292,note_on,0,0,3,,,,,,,,,3,,,,53,81
83292,note_on,0,0,3,,,,,,,,,3,,,,41,81
83293,note_on,1,0,10,,,,,,,,,14,,,,41,73
83294,control_change,3,0,9,,,,,,,,,13,11,73,,,
83294,control_change,8,0,7,,,,,,,,,11,11,68,,,
83295,control_change,4,0,6,,,,,,,,,10,11,65,,,
83296,control_change,3,0,10,,,,,,,,,14,11,73,,,
83297,control_change,8,0,8,,,,,,,,,12,11,68,,,
83298,control_change,4,0,7,,,,,,,,,11,11,65,,,
83299,control_change,4,0,6,,,,,,,,,10,11,62,,,
83301,control_change,4,0,8,,,,,,,,,12,11,65,,,
83302,control_change,4,0,7,,,,,,,,,11,11,62,,,
83302,control_change,8,0,9,,,,,,,,,13,11,68,,,
83303,control_change,4,0,6,,,,,,,,,10,11,59,,,
83304,control_change,8,0,10,,,,,,,,,14,11,68,,,
83305,control_change,4,0,8,,,,,,,,,12,11,62,,,
83306,control_change,4,0,9,,,,,,,,,13,11,65,,,
83306,control_change,4,0,7,,,,,,,,,11,11,59,,,
83307,control_change,4,0,6,,,,,,,,,10,11,55,,,
83308,control_change,4,0,10,,,,,,,,,14,11,65,,,
83309,control_change,4,0,8,,,,,,,,,12,11,59,,,
83310,control_change,4,0,7,,,,,,,,,11,11,55,,,
83310,note_on,3,0,6,,,,,,,,,10,,,,77,0
83310,control_change,4,0,9,,,,,,,,,13,11,62,,,
83311,control_change,1,0,6,,,,,,,,,10,11,51,,,
83312,control_change,4,0,10,,,,,,,,,14,11,62,,,
83313,control_change,4,0,8,,,,,,,,,12,11,55,,,
83314,control_change,4,0,7,,,,,,,,,11,11,51,,,
83314,control_change,4,0,9,,,,,,,,,13,11,59,,,
83315,control_change,4,0,6,,,,,,,,,10,11,47,,,
83316,control_change,4,0,10,,,,,,,,,14,11,59,,,
83317,control_change,4,0,8,,,,,,,,,12,11,51,,,
83318,control_change,4,0,7,,,,,,,,,11,11,47,,,
83318,control_change,4,0,9,,,,,,,,,13,11,55,,,
83320,control_change,4,0,10,,,,,,,,,14,11,55,,,
83320,set_tempo,40,1,0,,,,,,346821,,,,,,,,
83320,note_on,5,0,6,,,,,,,,,10,,,,81,100
83321,control_change,4,0,8,,,,,,,,,12,11,47,,,
83322,control_change,4,0,9,,,,,,,,,13,11,51,,,
83324,control_change,4,0,10,,,,,,,,,14,11,51,,,
83326,control_change,4,0,9,,,,,,,,,13,11,47,,,
83328,control_change,4,0,10,,,,,,,,,14,11,47,,,
83343,note_on,0,0,7,,,,,,,,,11,,,,77,0
83343,note_on,25,0,7,,,,,,,,,11,,,,69,0
83343,note_on,60,0,1,,,,,,,,,0,,,,89,0
83345,note_on,0,0,2,,,,,,,,,1,,,,81,0
83345,note_on,60,0,2,,,,,,,,,1,,,,84,0
83346,note_on,25,0,8,,,,,,,,,12,,,,65,0
83350,note_on,30,0,6,,,,,,,,,10,,,,81,0
83360,note_on,10,0,6,,,,,,,,,10,,,,77,100
83390,note_on,30,0,6,,,,,,,,,10,,,,77,0
83400,note_on,10,0,6,,,,,,,,,10,,,,76,100
83400,set_tempo,80,1,0,,,,,,390879,,,,,,,,
83403,note_on,60,0,7,,,,,,,,,11,,,,67,100
83403,note_on,60,0,1,,,,,,,,,0,,,,88,82
83404,note_on,120,0,4,,,,,,,,,4,,,,53,0
83405,note_on,0,0,2,,,,,,,,,1,,,,84,81
83405,note_on,60,0,2,,,,,,,,,1,,,,79,81
83406,note_on,60,0,8,,,,,,,,,12,,,,60,98
83406,note_on,120,0,5,,,,,,,,,5,,,,53,0
83411,note_on,85,0,9,,,,,,,,,13,,,,53,0
83412,note_on,0,0,3,,,,,,,,,3,,,,53,0
83412,note_on,120,0,3,,,,,,,,,3,,,,41,0
83413,note_on,85,0,10,,,,,,,,,14,,,,41,0
83430,note_on,30,0,6,,,,,,,,,10,,,,76,0
83440,set_tempo,40,1,0,,,,,,373832,,,,,,,,
83440,note_on,10,0,6,,,,,,,,,10,,,,79,100
83463,note_on,60,0,1,,,,,,,,,0,,,,88,0
83463,note_on,60,0,7,,,,,,,,,11,,,,67,0
83465,note_on,0,0,2,,,,,,,,,1,,,,79,0
83465,note_on,60,0,2,,,,,,,,,1,,,,84,0
83466,note_on,60,0,8,,,,,,,,,12,,,,60,0
83470,note_on,30,0,6,,,,,,,,,10,,,,79,0
83480,note_on,10,0,6,,,,,,,,,10,,,,76,100
83510,note_on,30,0,6,,,,,,,,,10,,,,76,0
83520,note_on,10,0,6,,,,,,,,,10,,,,74,100
83520,set_tempo,80,1,0,,,,,,362538,,,,,,,,
83523,note_on,60,0,7,,,,,,,,,11,,,,65,100
83523,note_on,60,0,1,,,,,,,,,0,,,,86,82
83525,note_on,0,0,2,,,,,,,,,1,,,,77,81
83525,note_on,60,0,2,,,,,,,,,1,,,,81,81
83526,note_on,60,0,8,,,,,,,,,12,,,,62,98
83550,note_on,30,0,6,,,,,,,,,10,,,,74,0
83560,note_on,10,0,6,,,,,,,,,10,,,,77,100
83560,set_tempo,40,1,0,,,,,,346821,,,,,,,,
83583,note_on,60,0,1,,,,,,,,,0,,,,86,0
83583,note_on,60,0,7,,,,,,,,,11,,,,65,0
83585,note_on,0,0,2,,,,,,,,,1,,,,81,0
83585,note_on,60,0,2,,,,,,,,,1,,,,77,0
83586,note_on,60,0,8,,,,,,,,,12,,,,62,0
83590,note_on,30,0,6,,,,,,,,,10,,,,77,0
83600,note_on,10,0,6,,,,,,,,,10,,,,74,100
83630,note_on,30,0,6,,,,,,,,,10,,,,74,0
83640,note_on,10,0,6,,,,,,,,,10,,,,72,100
83640,set_tempo,80,1,0,,,,,,390879,,,,,,,,
83643,note_on,60,0,7,,,,,,,,,11,,,,64,100
83643,note_on,60,0,1,,,,,,,,,0,,,,84,82
83645,note_on,60,0,2,,,,,,,,,1,,,,76,81
83645,note_on,0,0,2,,,,,,,,,1,,,,81,81
83646,note_on,60,0,8,,,,,,,,,12,,,,57,98
83670,note_on,30,0,6,,,,,,,,,10,,,,72,0
83680,note_on,10,0,6,,,,,,,,,10,,,,76,100
83680,set_tempo,40,1,0,,,,,,373832,,,,,,,,
83703,note_on,60,0,1,,,,,,,,,0,,,,84,0
83703,note_on,60,0,7,,,,,,,,,11,,,,64,0
83705,note_on,60,0,2,,,,,,,,,1,,,,81,0
83705,note_on,0,0,2,,,,,,,,,1,,,,76,0
83706,note_on,60,0,8,,,,,,,,,12,,,,57,0
83710,note_on,30,0,6,,,,,,,,,10,,,,76,0
83720,note_on,10,0,6,,,,,,,,,10,,,,72,100
83750,note_on,30,0,6,,,,,,,,,10,,,,72,0
83760,note_on,10,0,6,,,,,,,,,10,,,,70,100
83760,set_tempo,80,1,0,,,,,,362538,,,,,,,,
83763,note_on,60,0,7,,,,,,,,,11,,,,62,100
83763,note_on,60,0,1,,,,,,,,,0,,,,82,82
83765,note_on,0,0,2,,,,,,,,,1,,,,74,81
83765,note_on,60,0,2,,,,,,,,,1,,,,77,81
83766,note_on,60,0,8,,,,,,,,,12,,,,58,98
83790,note_on,30,0,6,,,,,,,,,10,,,,70,0
83800,note_on,10,0,6,,,,,,,,,10,,,,74,100
83800,set_tempo,40,1,0,,,,,,346821,,,,,,,,
83823,note_on,60,0,1,,,,,,,,,0,,,,82,0
83823,note_on,60,0,7,,,,,,,,,11,,,,62,0
83825,note_on,0,0,2,,,,,,,,,1,,,,77,0
83825,note_on,60,0,2,,,,,,,,,1,,,,74,0
83826,note_on,60,0,8,,,,,,,,,12,,,,58,0
83830,note_on,30,0,6,,,,,,,,,10,,,,74,0
83840,note_on,10,0,6,,,,,,,,,10,,,,70,100
83870,note_on,30,0,6,,,,,,,,,10,,,,70,0
83880,note_on,10,0,6,,,,,,,,,10,,,,69,100
83880,set_tempo,80,1,0,,,,,,390879,,,,,,,,
83883,note_on,60,0,7,,,,,,,,,11,,,,60,100
83883,note_on,60,0,1,,,,,,,,,0,,,,81,82
83885,note_on,0,0,2,,,,,,,,,1,,,,77,81
83885,note_on,60,0,2,,,,,,,,,1,,,,72,81
83886,note_on,60,0,8,,,,,,,,,12,,,,53,98
83910,note_on,30,0,6,,,,,,,,,10,,,,69,0
83920,note_on,10,0,6,,,,,,,,,10,,,,72,100
83920,set_tempo,40,1,0,,,,,,373832,,,,,,,,
83943,note_on,60,0,7,,,,,,,,,11,,,,60,0
83943,note_on,60,0,1,,,,,,,,,0,,,,81,0
83945,note_on,0,0,2,,,,,,,,,1,,,,72,0
83945,note_on,60,0,2,,,,,,,,,1,,,,77,0
83946,note_on,60,0,8,,,,,,,,,12,,,,53,0
83950,note_on,30,0,6,,,,,,,,,10,,,,72,0
83960,note_on,10,0,6,,,,,,,,,10,,,,69,100
83990,note_on,30,0,6,,,,,,,,,10,,,,69,0
84000,set_tempo,80,1,0,,,,,,362538,,,,,,,,
84000,note_on,10,0,6,,,,,,,,,10,,,,67,100
84003,note_on,60,0,7,,,,,,,,,11,,,,58,100
84003,note_on,60,0,1,,,,,,,,,0,,,,79,82
84005,note_on,60,0,2,,,,,,,,,1,,,,74,81
84005,note_on,0,0,2,,,,,,,,,1,,,,70,81
84006,note_on,60,0,8,,,,,,,,,12,,,,55,98
84030,note_on,30,0,6,,,,,,,,,10,,,,67,0
84040,note_on,10,0,6,,,,,,,,,10,,,,70,100
84040,set_tempo,40,1,0,,,,,,346821,,,,,,,,
84063,note_on,60,0,1,,,,,,,,,0,,,,79,0
84063,note_on,60,0,7,,,,,,,,,11,,,,58,0
84065,note_on,0,0,2,,,,,,,,,1,,,,74,0
84065,note_on,60,0,2,,,,,,,,,1,,,,70,0
84066,note_on,60,0,8,,,,,,,,,12,,,,55,0
84070,note_on,30,0,6,,,,,,,,,10,,,,70,0
84080,note_on,10,0,6,,,,,,,,,10,,,,67,100
84110,note_on,30,0,6,,,,,,,,,10,,,,67,0
84120,set_tempo,80,1,0,,,,,,390879,,,,,,,,
84120,note_on,10,0,6,,,,,,,,,10,,,,65,100
84123,note_on,60,0,7,,,,,,,,,11,,,,57,100
84123,note_on,60,0,1,,,,,,,,,0,,,,77,82
84125,note_on,0,0,2,,,,,,,,,1,,,,69,81
84125,note_on,60,0,2,,,,,,,,,1,,,,74,81
84126,note_on,60,0,8,,,,,,,,,12,,,,50,98
84150,note_on,30,0,6,,,,,,,,,10,,,,65,0
84160,set_tempo,40,1,0,,,,,,373832,,,,,,,,
84160,note_on,10,0,6,,,,,,,,,10,,,,69,100
84183,note_on,60,0,7,,,,,,,,,11,,,,57,0
84183,note_on,60,0,1,,,,,,,,,0,,,,77,0
84185,note_on,60,0,2,,,,,,,,,1,,,,69,0
84185,note_on,0,0,2,,,,,,,,,1,,,,74,0
84186,note_on,60,0,8,,,,,,,,,12,,,,50,0
84190,note_on,30,0,6,,,,,,,,,10,,,,69,0
84200,note_on,10,0,6,,,,,,,,,10,,,,65,100
84225,control_change,25,0,6,,,,,,,,,10,11,47,,,
84227,control_change,2,0,6,,,,,,,,,10,11,51,,,
84228,control_change,45,0,7,,,,,,,,,11,11,47,,,
84229,control_change,2,0,6,,,,,,,,,10,11,55,,,
84230,control_change,2,0,7,,,,,,,,,11,11,51,,,
84230,note_on,1,0,6,,,,,,,,,10,,,,65,0
84231,control_change,1,0,6,,,,,,,,,10,11,59,,,
84231,control_change,45,0,8,,,,,,,,,12,11,47,,,
84232,control_change,2,0,7,,,,,,,,,11,11,55,,,
84233,control_change,2,0,6,,,,,,,,,10,11,62,,,
84233,control_change,2,0,8,,,,,,,,,12,11,51,,,
84234,control_change,2,0,7,,,,,,,,,11,11,59,,,
84235,control_change,2,0,8,,,,,,,,,12,11,55,,,
84235,control_change,2,0,6,,,,,,,,,10,11,65,,,
84236,control_change,2,0,7,,,,,,,,,11,11,62,,,
84236,control_change,825,0,9,,,,,,,,,13,11,47,,,
84237,control_change,2,0,6,,,,,,,,,10,11,68,,,
84237,control_change,2,0,8,,,,,,,,,12,11,59,,,
84238,control_change,825,0,10,,,,,,,,,14,11,47,,,
84238,control_change,2,0,9,,,,,,,,,13,11,51,,,
84238,control_change,2,0,7,,,,,,,,,11,11,65,,,
84239,control_change,2,0,8,,,,,,,,,12,11,62,,,
84239,control_change,2,0,6,,,,,,,,,10,11,71,,,
84240,set_tempo,80,1,0,,,,,,362538,,,,,,,,
84240,note_on,1,0,6,,,,,,,,,10,,,,74,100
84240,control_change,2,0,10,,,,,,,,,14,11,51,,,
84240,control_change,2,0,9,,,,,,,,,13,11,55,,,
84240,control_change,2,0,7,,,,,,,,,11,11,68,,,
84241,control_change,2,0,8,,,,,,,,,12,11,65,,,
84242,control_change,2,0,7,,,,,,,,,11,11,71,,,
84242,control_change,2,0,9,,,,,,,,,13,11,59,,,
84242,control_change,2,0,10,,,,,,,,,14,11,55,,,
84243,note_on,0,0,1,,,,,,,,,0,,,,86,82
84243,note_on,0,0,7,,,,,,,,,11,,,,62,100
84243,control_change,2,0,8,,,,,,,,,12,11,68,,,
84243,control_change,3,0,6,,,,,,,,,10,11,76,,,
84243,note_on,1,0,7,,,,,,,,,11,,,,70,100
84243,control_change,60,0,1,,,,,,,,,0,11,89,,,
84244,note_on,0,0,4,,,,,,,,,4,,,,62,86
84244,control_change,2,0,9,,,,,,,,,13,11,62,,,
84244,control_change,840,0,4,,,,,,,,,4,11,79,,,
84244,control_change,2,0,10,,,,,,,,,14,11,59,,,
84245,control_change,60,0,2,,,,,,,,,1,11,89,,,
84245,control_change,2,0,8,,,,,,,,,12,11,71,,,
84245,note_on,0,0,2,,,,,,,,,1,,,,70,81
84245,control_change,2,0,6,,,,,,,,,10,11,79,,,
84245,note_on,0,0,2,,,,,,,,,1,,,,74,81
84246,note_on,1,0,8,,,,,,,,,12,,,,58,98
84246,control_change,3,0,7,,,,,,,,,11,11,76,,,
84246,control_change,2,0,10,,,,,,,,,14,11,62,,,
84246,control_change,2,0,9,,,,,,,,,13,11,65,,,
84246,control_change,840,0,5,,,,,,,,,5,11,79,,,
84246,note_on,0,0,5,,,,,,,,,5,,,,53,86
84248,control_change,2,0,7,,,,,,,,,11,11,79,,,
84248,control_change,2,0,9,,,,,,,,,13,11,68,,,
84248,control_change,2,0,10,,,,,,,,,14,11,65,,,
84249,control_change,3,0,8,,,,,,,,,12,11,76,,,
84250,control_change,2,0,9,,,,,,,,,13,11,71,,,
84250,control_change,2,0,10,,,,,,,,,14,11,68,,,
84251,note_on,1,0,9,,,,,,,,,13,,,,46,89
84251,control_change,2,0,8,,,,,,,,,12,11,79,,,
84252,note_on,0,0,3,,,,,,,,,3,,,,58,81
84252,note_on,0,0,3,,,,,,,,,3,,,,46,81
84252,control_change,840,0,3,,,,,,,,,3,11,89,,,
84252,control_change,2,0,10,,,,,,,,,14,11,71,,,
84253,note_on,1,0,10,,,,,,,,,14,,,,34,73
84254,control_change,3,0,9,,,,,,,,,13,11,76,,,
84256,control_change,2,0,9,,,,,,,,,13,11,79,,,
84256,control_change,3,0,10,,,,,,,,,14,11,76,,,
84258,control_change,2,0,10,,,,,,,,,14,11,79,,,
84270,note_on,25,0,6,,,,,,,,,10,,,,74,0
84273,note_on,25,0,7,,,,,,,,,11,,,,62,0
84273,note_on,0,0,7,,,,,,,,,11,,,,70,0
84276,note_on,25,0,8,,,,,,,,,12,,,,58,0
84280,note_on,10,0,6,,,,,,,,,10,,,,74,92
84280,set_tempo,40,1,0,,,,,,346821,,,,,,,,
84281,note_on,25,0,9,,,,,,,,,13,,,,46,0
84283,note_on,10,0,7,,,,,,,,,11,,,,62,92
84283,note_on,0,0,7,,,,,,,,,11,,,,70,92
84283,note_on,25,0,10,,,,,,,,,14,,,,34,0
84286,note_on,10,0,8,,,,,,,,,12,,,,58,90
84291,note_on,10,0,9,,,,,,,,,13,,,,46,81
84293,note_on,10,0,10,,,,,,,,,14,,,,34,65
84310,note_on,30,0,6,,,,,,,,,10,,,,74,0
84313,note_on,30,0,7,,,,,,,,,11,,,,70,0
84313,note_on,0,0,7,,,,,,,,,11,,,,62,0
84316,note_on,30,0,8,,,,,,,,,12,,,,58,0
84320,note_on,10,0,6,,,,,,,,,10,,,,74,100
84321,note_on,30,0,9,,,,,,,,,13,,,,46,0
84323,note_on,0,0,7,,,,,,,,,11,,,,70,100
84323,note_on,10,0,7,,,,,,,,,11,,,,62,100
84323,note_on,30,0,10,,,,,,,,,14,,,,34,0
84326,note_on,10,0,8,,,,,,,,,12,,,,58,98
84331,note_on,10,0,9,,,,,,,,,13,,,,46,89
84333,note_on,10,0,10,,,,,,,,,14,,,,34,73
84350,note_on,30,0,6,,,,,,,,,10,,,,74,0
84353,note_on,0,0,7,,,,,,,,,11,,,,62,0
84353,note_on,30,0,7,,,,,,,,,11,,,,70,0
84356,note_on,30,0,8,,,,,,,,,12,,,,58,0
84360,set_tempo,80,1,0,,,,,,390879,,,,,,,,
84360,note_on,10,0,6,,,,,,,,,10,,,,74,92
84361,note_on,30,0,9,,,,,,,,,13,,,,46,0
84363,note_on,10,0,7,,,,,,,,,11,,,,62,92
84363,note_on,0,0,7,,,,,,,,,11,,,,70,92
84363,note_on,30,0,10,,,,,,,,,14,,,,34,0
84366,note_on,10,0,8,,,,,,,,,12,,,,58,90
84371,note_on,10,0,9,,,,,,,,,13,,,,46,81
84373,note_on,10,0,10,,,,,,,,,14,,,,34,65
84390,note_on,30,0,6,,,,,,,,,10,,,,74,0
84393,note_on,0,0,7,,,,,,,,,11,,,,62,0
84393,note_on,30,0,7,,,,,,,,,11,,,,70,0
84396,note_on,30,0,8,,,,,,,,,12,,,,58,0
84400,set_tempo,40,1,0,,,,,,373832,,,,,,,,
84400,note_on,10,0,6,,,,,,,,,10,,,,74,100
84401,note_on,30,0,9,,,,,,,,,13,,,,46,0
84403,note_on,10,0,7,,,,,,,,,11,,,,70,100
84403,note_on,0,0,7,,,,,,,,,11,,,,62,100
84403,note_on,30,0,10,,,,,,,,,14,,,,34,0
84406,note_on,10,0,8,,,,,,,,,12,,,,58,98
84411,note_on,10,0,9,,,,,,,,,13,,,,46,89
84413,note_on,10,0,10,,,,,,,,,14,,,,34,73
84418,note_on,175,0,1,,,,,,,,,0,,,,86,0
84419,note_on,175,0,4,,,,,,,,,4,,,,62,0
84420,note_on,175,0,2,,,,,,,,,1,,,,74,0
84420,note_on,0,0,2,,,,,,,,,1,,,,70,0
84421,note_on,175,0,5,,,,,,,,,5,,,,53,0
84423,note_on,5,0,1,,,,,,,,,0,,,,86,82
84424,note_on,5,0,4,,,,,,,,,4,,,,62,86
84425,note_on,0,0,2,,,,,,,,,1,,,,74,81
84425,note_on,5,0,2,,,,,,,,,1,,,,70,81
84426,note_on,5,0,5,,,,,,,,,5,,,,53,86
84427,note_on,175,0,3,,,,,,,,,3,,,,58,0
84427,note_on,0,0,3,,,,,,,,,3,,,,46,0
84430,note_on,30,0,6,,,,,,,,,10,,,,74,0
84432,note_on,5,0,3,,,,,,,,,3,,,,58,81
84432,note_on,0,0,3,,,,,,,,,3,,,,46,81
84433,note_on,0,0,7,,,,,,,,,11,,,,70,0
84433,note_on,30,0,7,,,,,,,,,11,,,,62,0
84436,note_on,30,0,8,,,,,,,,,12,,,,58,0
84440,note_on,10,0,6,,,,,,,,,10,,,,74,92
84441,note_on,30,0,9,,,,,,,,,13,,,,46,0
84443,note_on,0,0,7,,,,,,,,,11,,,,70,92
84443,note_on,10,0,7,,,,,,,,,11,,,,62,92
84443,note_on,30,0,10,,,,,,,,,14,,,,34,0
84446,note_on,10,0,8,,,,,,,,,12,,,,58,90
84451,note_on,10,0,9,,,,,,,,,13,,,,46,81
84453,note_on,10,0,10,,,,,,,,,14,,,,34,65
84470,note_on,30,0,6,,,,,,,,,10,,,,74,0
84473,note_on,0,0,7,,,,,,,,,11,,,,62,0
84473,note_on,30,0,7,,,,,,,,,11,,,,70,0
84476,note_on,30,0,8,,,,,,,,,12,,,,58,0
84478,note_on,55,0,1,,,,,,,,,0,,,,86,0
84479,note_on,55,0,4,,,,,,,,,4,,,,62,0
84480,note_on,10,0,6,,,,,,,,,10,,,,77,100
84480,note_on,55,0,2,,,,,,,,,1,,,,74,0
84480,note_on,0,0,2,,,,,,,,,1,,,,70,0
84480,set_tempo,80,1,0,,,,,,362538,,,,,,,,
84481,note_on,30,0,9,,,,,,,,,13,,,,46,0
84481,note_on,55,0,5,,,,,,,,,5,,,,53,0
84483,note_on,10,0,7,,,,,,,,,11,,,,70,100
84483,note_on,0,0,7,,,,,,,,,11,,,,65,100
84483,note_on,30,0,10,,,,,,,,,14,,,,34,0
84483,note_on,5,0,1,,,,,,,,,0,,,,89,82
84484,note_on,5,0,4,,,,,,,,,4,,,,65,86
84485,note_on,0,0,2,,,,,,,,,1,,,,77,81
84485,note_on,5,0,2,,,,,,,,,1,,,,70,81
84486,note_on,5,0,5,,,,,,,,,5,,,,53,86
84486,note_on,10,0,8,,,,,,,,,12,,,,62,98
84487,note_on,0,0,3,,,,,,,,,3,,,,58,0
84487,note_on,55,0,3,,,,,,,,,3,,,,46,0
84491,note_on,10,0,9,,,,,,,,,13,,,,50,89
84492,note_on,5,0,3,,,,,,,,,3,,,,50,81
84492,note_on,0,0,3,,,,,,,,,3,,,,62,81
84493,note_on,10,0,10,,,,,,,,,14,,,,38,73
84510,note_on,30,0,6,,,,,,,,,10,,,,77,0
84513,note_on,30,0,7,,,,,,,,,11,,,,65,0
84513,note_on,0,0,7,,,,,,,,,11,,,,70,0
84516,note_on,30,0,8,,,,,,,,,12,,,,62,0
84520,note_on,10,0,6,,,,,,,,,10,,,,77,92
84520,set_tempo,40,1,0,,,,,,346821,,,,,,,,
84521,note_on,30,0,9,,,,,,,,,13,,,,50,0
84523,note_on,30,0,10,,,,,,,,,14,,,,38,0
84523,note_on,10,0,7,,,,,,,,,11,,,,65,92
84523,note_on,0,0,7,,,,,,,,,11,,,,70,92
84526,note_on,10,0,8,,,,,,,,,12,,,,62,90
84531,note_on,10,0,9,,,,,,,,,13,,,,50,81
84533,note_on,10,0,10,,,,,,,,,14,,,,38,65
84550,note_on,30,0,6,,,,,,,,,10,,,,77,0
84553,note_on,30,0,7,,,,,,,,,11,,,,70,0
84553,note_on,0,0,7,,,,,,,,,11,,,,65,0
84556,note_on,30,0,8,,,,,,,,,12,,,,62,0
84560,note_on,10,0,6,,,,,,,,,10,,,,77,100
84561,note_on,30,0,9,,,,,,,,,13,,,,50,0
84563,note_on,30,0,10,,,,,,,,,14,,,,38,0
84563,note_on,10,0,7,,,,,,,,,11,,,,65,100
84563,note_on,0,0,7,,,,,,,,,11,,,,70,100
84566,note_on,10,0,8,,,,,,,,,12,,,,62,98
84571,note_on,10,0,9,,,,,,,,,13,,,,50,89
84573,note_on,10,0,10,,,,,,,,,14,,,,38,73
84590,note_on,30,0,6,,,,,,,,,10,,,,77,0
84593,note_on,30,0,7,,,,,,,,,11,,,,70,0
84593,note_on,0,0,7,,,,,,,,,11,,,,65,0
84596,note_on,30,0,8,,,,,,,,,12,,,,62,0
84600,note_on,10,0,6,,,,,,,,,10,,,,77,92
84600,set_tempo,80,1,0,,,,,,390879,,,,,,,,
84601,note_on,30,0,9,,,,,,,,,13,,,,50,0
84603,note_on,30,0,10,,,,,,,,,14,,,,38,0
84603,note_on,10,0,7,,,,,,,,,11,,,,65,92
84603,note_on,0,0,7,,,,,,,,,11,,,,70,92
84606,note_on,10,0,8,,,,,,,,,12,,,,62,90
84611,note_on,10,0,9,,,,,,,,,13,,,,50,81
84613,note_on,10,0,10,,,,,,,,,14,,,,38,65
84630,note_on,30,0,6,,,,,,,,,10,,,,77,0
84633,note_on,0,0,7,,,,,,,,,11,,,,65,0
84633,note_on,30,0,7,,,,,,,,,11,,,,70,0
84636,note_on,30,0,8,,,,,,,,,12,,,,62,0
84640,note_on,10,0,6,,,,,,,,,10,,,,77,100
84640,set_tempo,40,1,0,,,,,,373832,,,,,,,,
84641,note_on,30,0,9,,,,,,,,,13,,,,50,0
84643,note_on,0,0,7,,,,,,,,,11,,,,70,100
84643,note_on,30,0,10,,,,,,,,,14,,,,38,0
84643,note_on,10,0,7,,,,,,,,,11,,,,65,100
84646,note_on,10,0,8,,,,,,,,,12,,,,62,98
84651,note_on,10,0,9,,,,,,,,,13,,,,50,89
84653,note_on,10,0,10,,,,,,,,,14,,,,38,73
84658,note_on,175,0,1,,,,,,,,,0,,,,89,0
84659,note_on,175,0,4,,,,,,,,,4,,,,65,0
84660,note_on,0,0,2,,,,,,,,,1,,,,70,0
84660,note_on,175,0,2,,,,,,,,,1,,,,77,0
84661,note_on,175,0,5,,,,,,,,,5,,,,53,0
84663,note_on,5,0,1,,,,,,,,,0,,,,89,82
84664,note_on,5,0,4,,,,,,,,,4,,,,65,86
84665,note_on,5,0,2,,,,,,,,,1,,,,77,81
84665,note_on,0,0,2,,,,,,,,,1,,,,70,81
84666,note_on,5,0,5,,,,,,,,,5,,,,53,86
84667,note_on,175,0,3,,,,,,,,,3,,,,62,0
84667,note_on,0,0,3,,,,,,,,,3,,,,50,0
84670,note_on,30,0,6,,,,,,,,,10,,,,77,0
84672,note_on,5,0,3,,,,,,,,,3,,,,50,81
84672,note_on,0,0,3,,,,,,,,,3,,,,62,81
84673,note_on,0,0,7,,,,,,,,,11,,,,65,0
84673,note_on,30,0,7,,,,,,,,,11,,,,70,0
84676,note_on,30,0,8,,,,,,,,,12,,,,62,0
84680,note_on,10,0,6,,,,,,,,,10,,,,77,92
84681,note_on,30,0,9,,,,,,,,,13,,,,50,0
84683,note_on,30,0,10,,,,,,,,,14,,,,38,0
84683,note_on,0,0,7,,,,,,,,,11,,,,70,92
84683,note_on,10,0,7,,,,,,,,,11,,,,65,92
84686,note_on,10,0,8,,,,,,,,,12,,,,62,90
84691,note_on,10,0,9,,,,,,,,,13,,,,50,81
84693,note_on,10,0,10,,,,,,,,,14,,,,38,65
84710,note_on,30,0,6,,,,,,,,,10,,,,77,0
84713,note_on,30,0,7,,,,,,,,,11,,,,70,0
84713,note_on,0,0,7,,,,,,,,,11,,,,65,0
84716,note_on,30,0,8,,,,,,,,,12,,,,62,0
84718,note_on,55,0,1,,,,,,,,,0,,,,89,0
84719,note_on,55,0,4,,,,,,,,,4,,,,65,0
84720,set_tempo,80,1,0,,,,,,362538,,,,,,,,
84720,note_on,10,0,6,,,,,,,,,10,,,,77,100
84720,note_on,0,0,2,,,,,,,,,1,,,,77,0
84720,note_on,55,0,2,,,,,,,,,1,,,,70,0
84721,note_on,55,0,5,,,,,,,,,5,,,,53,0
84721,note_on,30,0,9,,,,,,,,,13,,,,50,0
84723,note_on,10,0,7,,,,,,,,,11,,,,69,100
84723,note_on,5,0,1,,,,,,,,,0,,,,89,82
84723,note_on,30,0,10,,,,,,,,,14,,,,38,0
84723,note_on,0,0,7,,,,,,,,,11,,,,65,100
84724,note_on,5,0,4,,,,,,,,,4,,,,65,86
84725,note_on,5,0,2,,,,,,,,,1,,,,69,81
84725,note_on,0,0,2,,,,,,,,,1,,,,77,81
84726,note_on,5,0,5,,,,,,,,,5,,,,53,86
84726,note_on,10,0,8,,,,,,,,,12,,,,65,98
84727,note_on,55,0,3,,,,,,,,,3,,,,62,0
84727,note_on,0,0,3,,,,,,,,,3,,,,50,0
84731,note_on,10,0,9,,,,,,,,,13,,,,53,89
84732,note_on,5,0,3,,,,,,,,,3,,,,65,81
84732,note_on,0,0,3,,,,,,,,,3,,,,53,81
84733,note_on,10,0,10,,,,,,,,,14,,,,41,73
84750,note_on,30,0,6,,,,,,,,,10,,,,77,0
84753,note_on,30,0,7,,,,,,,,,11,,,,65,0
84753,note_on,0,0,7,,,,,,,,,11,,,,69,0
84756,note_on,30,0,8,,,,,,,,,12,,,,65,0
84760,set_tempo,40,1,0,,,,,,346821,,,,,,,,
84760,note_on,10,0,6,,,,,,,,,10,,,,77,92
84761,note_on,30,0,9,,,,,,,,,13,,,,53,0
84763,note_on,30,0,10,,,,,,,,,14,,,,41,0
84763,note_on,10,0,7,,,,,,,,,11,,,,65,92
84763,note_on,0,0,7,,,,,,,,,11,,,,69,92
84766,note_on,10,0,8,,,,,,,,,12,,,,65,90
84771,note_on,10,0,9,,,,,,,,,13,,,,53,81
84773,note_on,10,0,10,,,,,,,,,14,,,,41,65
84790,note_on,30,0,6,,,,,,,,,10,,,,77,0
84793,note_on,30,0,7,,,,,,,,,11,,,,69,0
84793,note_on,0,0,7,,,,,,,,,11,,,,65,0
84796,note_on,30,0,8,,,,,,,,,12,,,,65,0
84800,note_on,10,0,6,,,,,,,,,10,,,,77,100
84801,note_on,30,0,9,,,,,,,,,13,,,,53,0
84803,note_on,30,0,10,,,,,,,,,14,,,,41,0
84803,note_on,10,0,7,,,,,,,,,11,,,,69,100
84803,note_on,0,0,7,,,,,,,,,11,,,,65,100
84806,note_on,10,0,8,,,,,,,,,12,,,,65,98
84811,note_on,10,0,9,,,,,,,,,13,,,,53,89
84813,note_on,10,0,10,,,,,,,,,14,,,,41,73
84830,note_on,30,0,6,,,,,,,,,10,,,,77,0
84833,note_on,0,0,7,,,,,,,,,11,,,,69,0
84833,note_on,30,0,7,,,,,,,,,11,,,,65,0
84836,note_on,30,0,8,,,,,,,,,12,,,,65,0
84840,set_tempo,80,1,0,,,,,,390879,,,,,,,,
84840,note_on,10,0,6,,,,,,,,,10,,,,81,92
84841,note_on,30,0,9,,,,,,,,,13,,,,53,0
84843,note_on,30,0,10,,,,,,,,,14,,,,41,0
84843,note_on,10,0,7,,,,,,,,,11,,,,69,92
84846,note_on,10,0,8,,,,,,,,,12,,,,69,90
84847,note_on,0,0,3,,,,,,,,,3,,,,65,0
84847,note_on,115,0,3,,,,,,,,,3,,,,53,0
84851,note_on,10,0,9,,,,,,,,,13,,,,57,81
84852,note_on,0,0,3,,,,,,,,,3,,,,57,81
84852,note_on,5,0,3,,,,,,,,,3,,,,45,81
84853,note_on,10,0,10,,,,,,,,,14,,,,45,65
84870,note_on,30,0,6,,,,,,,,,10,,,,81,0
84873,note_on,30,0,7,,,,,,,,,11,,,,69,0
84876,note_on,30,0,8,,,,,,,,,12,,,,69,0
84880,note_on,10,0,6,,,,,,,,,10,,,,81,100
84880,set_tempo,40,1,0,,,,,,373832,,,,,,,,
84881,note_on,30,0,9,,,,,,,,,13,,,,57,0
84883,note_on,30,0,10,,,,,,,,,14,,,,45,0
84883,note_on,10,0,7,,,,,,,,,11,,,,69,100
84886,note_on,10,0,8,,,,,,,,,12,,,,69,98
84891,note_on,10,0,9,,,,,,,,,13,,,,57,89
84893,note_on,10,0,10,,,,,,,,,14,,,,45,73
84910,note_on,30,0,6,,,,,,,,,10,,,,81,0
84913,note_on,30,0,7,,,,,,,,,11,,,,69,0
84916,note_on,30,0,8,,,,,,,,,12,,,,69,0
84920,note_on,10,0,6,,,,,,,,,10,,,,81,92
84921,note_on,30,0,9,,,,,,,,,13,,,,57,0
84923,note_on,10,0,7,,,,,,,,,11,,,,69,92
84923,note_on,30,0,10,,,,,,,,,14,,,,45,0
84926,note_on,10,0,8,,,,,,,,,12,,,,69,90
84931,note_on,10,0,9,,,,,,,,,13,,,,57,81
84933,note_on,10,0,10,,,,,,,,,14,,,,45,65
84950,note_on,30,0,6,,,,,,,,,10,,,,81,0
84953,note_on,30,0,7,,,,,,,,,11,,,,69,0
84956,note_on,30,0,8,,,,,,,,,12,,,,69,0
84960,note_on,10,0,6,,,,,,,,,10,,,,86,100
84960,set_tempo,80,1,0,,,,,,362538,,,,,,,,
84961,note_on,30,0,9,,,,,,,,,13,,,,57,0
84963,note_on,10,0,7,,,,,,,,,11,,,,74,100
84963,note_on,30,0,10,,,,,,,,,14,,,,45,0
84966,note_on,10,0,8,,,,,,,,,12,,,,74,98
84967,note_on,115,0,3,,,,,,,,,3,,,,57,0
84967,note_on,0,0,3,,,,,,,,,3,,,,45,0
84971,note_on,10,0,9,,,,,,,,,13,,,,62,89
84972,note_on,0,0,3,,,,,,,,,3,,,,50,81
84972,note_on,5,0,3,,,,,,,,,3,,,,62,81
84973,note_on,10,0,10,,,,,,,,,14,,,,50,73
84990,note_on,30,0,6,,,,,,,,,10,,,,86,0
84993,note_on,30,0,7,,,,,,,,,11,,,,74,0
84996,note_on,30,0,8,,,,,,,,,12,,,,74,0
85000,set_tempo,40,1,0,,,,,,346821,,,,,,,,
85000,note_on,10,0,6,,,,,,,,,10,,,,86,92
85001,note_on,30,0,9,,,,,,,,,13,,,,62,0
85003,note_on,30,0,10,,,,,,,,,14,,,,50,0
85003,note_on,10,0,7,,,,,,,,,11,,,,74,92
85006,note_on,10,0,8,,,,,,,,,12,,,,74,90
85011,note_on,10,0,9,,,,,,,,,13,,,,62,81
85013,note_on,10,0,10,,,,,,,,,14,,,,50,65
85030,note_on,30,0,6,,,,,,,,,10,,,,86,0
85033,note_on,30,0,7,,,,,,,,,11,,,,74,0
85036,note_on,30,0,8,,,,,,,,,12,,,,74,0
85040,note_on,10,0,6,,,,,,,,,10,,,,86,100
85041,note_on,30,0,9,,,,,,,,,13,,,,62,0
85043,note_on,30,0,10,,,,,,,,,14,,,,50,0
85043,note_on,10,0,7,,,,,,,,,11,,,,74,100
85046,note_on,10,0,8,,,,,,,,,12,,,,74,98
85051,note_on,10,0,9,,,,,,,,,13,,,,62,89
85053,note_on,10,0,10,,,,,,,,,14,,,,50,73
85070,note_on,30,0,6,,,,,,,,,10,,,,86,0
85073,note_on,30,0,7,,,,,,,,,11,,,,74,0
85076,note_on,30,0,8,,,,,,,,,12,,,,74,0
85078,note_on,355,0,1,,,,,,,,,0,,,,89,0
85079,note_on,355,0,4,,,,,,,,,4,,,,65,0
85080,note_on,355,0,2,,,,,,,,,1,,,,77,0
85080,note_on,0,0,2,,,,,,,,,1,,,,69,0
85080,set_tempo,80,1,0,,,,,,390879,,,,,,,,
85080,note_on,10,0,6,,,,,,,,,10,,,,83,92
85081,note_on,355,0,5,,,,,,,,,5,,,,53,0
85081,note_on,30,0,9,,,,,,,,,13,,,,62,0
85083,note_on,5,0,1,,,,,,,,,0,,,,83,82
85083,note_on,10,0,7,,,,,,,,,11,,,,71,92
85083,note_on,30,0,10,,,,,,,,,14,,,,50,0
85084,note_on,5,0,4,,,,,,,,,4,,,,65,86
85085,note_on,0,0,2,,,,,,,,,1,,,,77,81
85085,note_on,5,0,2,,,,,,,,,1,,,,71,81
85086,note_on,5,0,5,,,,,,,,,5,,,,53,86
85086,note_on,10,0,8,,,,,,,,,12,,,,62,90
85087,note_on,0,0,3,,,,,,,,,3,,,,62,0
85087,note_on,115,0,3,,,,,,,,,3,,,,50,0
85091,note_on,10,0,9,,,,,,,,,13,,,,50,81
85092,note_on,0,0,3,,,,,,,,,3,,,,62,81
85092,note_on,5,0,3,,,,,,,,,3,,,,50,81
85093,note_on,10,0,10,,,,,,,,,14,,,,38,65
85110,note_on,30,0,6,,,,,,,,,10,,,,83,0
85113,note_on,30,0,7,,,,,,,,,11,,,,71,0
85116,note_on,30,0,8,,,,,,,,,12,,,,62,0
85120,set_tempo,40,1,0,,,,,,373832,,,,,,,,
85120,note_on,10,0,6,,,,,,,,,10,,,,83,100
85121,note_on,30,0,9,,,,,,,,,13,,,,50,0
85123,note_on,30,0,10,,,,,,,,,14,,,,38,0
85123,note_on,10,0,7,,,,,,,,,11,,,,71,100
85126,note_on,10,0,8,,,,,,,,,12,,,,62,98
85131,note_on,10,0,9,,,,,,,,,13,,,,50,89
85133,note_on,10,0,10,,,,,,,,,14,,,,38,73
85150,note_on,30,0,6,,,,,,,,,10,,,,83,0
85153,note_on,30,0,7,,,,,,,,,11,,,,71,0
85156,note_on,30,0,8,,,,,,,,,12,,,,62,0
85160,note_on,10,0,6,,,,,,,,,10,,,,83,92
85161,note_on,30,0,9,,,,,,,,,13,,,,50,0
85163,note_on,10,0,7,,,,,,,,,11,,,,71,92
85163,note_on,30,0,10,,,,,,,,,14,,,,38,0
85166,note_on,10,0,8,,,,,,,,,12,,,,62,90
85171,note_on,10,0,9,,,,,,,,,13,,,,50,81
85173,note_on,10,0,10,,,,,,,,,14,,,,38,65
85190,note_on,30,0,6,,,,,,,,,10,,,,83,0
85193,note_on,30,0,7,,,,,,,,,11,,,,71,0
85196,note_on,30,0,8,,,,,,,,,12,,,,62,0
85198,note_on,115,0,1,,,,,,,,,0,,,,83,0
85199,note_on,115,0,4,,,,,,,,,4,,,,65,0
85200,note_on,115,0,2,,,,,,,,,1,,,,77,0
85200,set_tempo,80,1,0,,,,,,362538,,,,,,,,
85200,note_on,10,0,6,,,,,,,,,10,,,,84,100
85200,note_on,0,0,2,,,,,,,,,1,,,,71,0
85201,note_on,115,0,5,,,,,,,,,5,,,,53,0
85201,note_on,30,0,9,,,,,,,,,13,,,,50,0
85203,note_on,30,0,10,,,,,,,,,14,,,,38,0
85203,note_on,5,0,1,,,,,,,,,0,,,,84,95
85203,note_on,0,0,7,,,,,,,,,11,,,,72,100
85203,note_on,10,0,7,,,,,,,,,11,,,,81,100
85204,note_on,5,0,4,,,,,,,,,4,,,,60,86
85205,note_on,0,0,2,,,,,,,,,1,,,,81,94
85205,note_on,5,0,2,,,,,,,,,1,,,,72,94
85206,note_on,10,0,8,,,,,,,,,12,,,,60,98
85206,note_on,5,0,5,,,,,,,,,5,,,,60,86
85207,note_on,0,0,3,,,,,,,,,3,,,,50,0
85207,note_on,115,0,3,,,,,,,,,3,,,,62,0
85211,note_on,10,0,9,,,,,,,,,13,,,,48,89
85212,note_on,0,0,3,,,,,,,,,3,,,,60,94
85212,note_on,5,0,3,,,,,,,,,3,,,,48,94
85213,note_on,10,0,10,,,,,,,,,14,,,,36,73
85230,note_on,30,0,6,,,,,,,,,10,,,,84,0
85233,note_on,0,0,7,,,,,,,,,11,,,,81,0
85233,note_on,30,0,7,,,,,,,,,11,,,,72,0
85236,note_on,30,0,8,,,,,,,,,12,,,,60,0
85240,note_on,10,0,6,,,,,,,,,10,,,,84,92
85240,set_tempo,40,1,0,,,,,,346821,,,,,,,,
85241,note_on,30,0,9,,,,,,,,,13,,,,48,0
85243,note_on,0,0,7,,,,,,,,,11,,,,81,92
85243,note_on,10,0,7,,,,,,,,,11,,,,72,92
85243,note_on,30,0,10,,,,,,,,,14,,,,36,0
85246,note_on,10,0,8,,,,,,,,,12,,,,60,90
85251,note_on,10,0,9,,,,,,,,,13,,,,48,81
85253,note_on,10,0,10,,,,,,,,,14,,,,36,65
85270,note_on,30,0,6,,,,,,,,,10,,,,84,0
85273,note_on,0,0,7,,,,,,,,,11,,,,72,0
85273,note_on,30,0,7,,,,,,,,,11,,,,81,0
85276,note_on,30,0,8,,,,,,,,,12,,,,60,0
85280,note_on,10,0,6,,,,,,,,,10,,,,84,100
85281,note_on,30,0,9,,,,,,,,,13,,,,48,0
85283,note_on,10,0,7,,,,,,,,,11,,,,81,100
85283,note_on,30,0,10,,,,,,,,,14,,,,36,0
85283,note_on,0,0,7,,,,,,,,,11,,,,72,100
85286,note_on,10,0,8,,,,,,,,,12,,,,60,98
85291,note_on,10,0,9,,,,,,,,,13,,,,48,89
85293,note_on,10,0,10,,,,,,,,,14,,,,36,73
85310,note_on,30,0,6,,,,,,,,,10,,,,84,0
85313,note_on,0,0,7,,,,,,,,,11,,,,81,0
85313,note_on,30,0,7,,,,,,,,,11,,,,72,0
85316,note_on,30,0,8,,,,,,,,,12,,,,60,0
85320,note_on,10,0,6,,,,,,,,,10,,,,84,92
85320,set_tempo,80,1,0,,,,,,390879,,,,,,,,
85321,note_on,30,0,9,,,,,,,,,13,,,,48,0
85323,note_on,30,0,10,,,,,,,,,14,,,,36,0
85323,note_on,10,0,7,,,,,,,,,11,,,,81,92
85323,note_on,0,0,7,,,,,,,,,11,,,,72,92
85326,note_on,10,0,8,,,,,,,,,12,,,,60,90
85331,note_on,10,0,9,,,,,,,,,13,,,,48,81
85333,note_on,10,0,10,,,,,,,,,14,,,,36,65
85350,note_on,30,0,6,,,,,,,,,10,,,,84,0
85353,note_on,0,0,7,,,,,,,,,11,,,,81,0
85353,note_on,30,0,7,,,,,,,,,11,,,,72,0
85356,note_on,30,0,8,,,,,,,,,12,,,,60,0
85360,set_tempo,40,1,0,,,,,,373832,,,,,,,,
85360,note_on,10,0,6,,,,,,,,,10,,,,84,100
85361,note_on,30,0,9,,,,,,,,,13,,,,48,0
85363,note_on,30,0,10,,,,,,,,,14,,,,36,0
85363,note_on,10,0,7,,,,,,,,,11,,,,81,100
85363,note_on,0,0,7,,,,,,,,,11,,,,72,100
85366,note_on,10,0,8,,,,,,,,,12,,,,60,98
85371,note_on,10,0,9,,,,,,,,,13,,,,48,89
85373,note_on,10,0,10,,,,,,,,,14,,,,36,73
85390,note_on,30,0,6,,,,,,,,,10,,,,84,0
85393,note_on,30,0,7,,,,,,,,,11,,,,72,0
85393,note_on,0,0,7,,,,,,,,,11,,,,81,0
85396,note_on,30,0,8,,,,,,,,,12,,,,60,0
85400,note_on,10,0,6,,,,,,,,,10,,,,84,92
85401,note_on,30,0,9,,,,,,,,,13,,,,48,0
85403,note_on,0,0,7,,,,,,,,,11,,,,81,92
85403,note_on,10,0,7,,,,,,,,,11,,,,72,92
85403,note_on,30,0,10,,,,,,,,,14,,,,36,0
85406,note_on,10,0,8,,,,,,,,,12,,,,60,90
85411,note_on,10,0,9,,,,,,,,,13,,,,48,81
85413,note_on,10,0,10,,,,,,,,,14,,,,36,65
85430,note_on,30,0,6,,,,,,,,,10,,,,84,0
85433,note_on,30,0,7,,,,,,,,,11,,,,81,0
85433,note_on,0,0,7,,,,,,,,,11,,,,72,0
85436,note_on,30,0,8,,,,,,,,,12,,,,60,0
85440,note_on,10,0,6,,,,,,,,,10,,,,82,100
85440,set_tempo,80,1,0,,,,,,362538,,,,,,,,
85441,note_on,30,0,9,,,,,,,,,13,,,,48,0
85443,note_on,240,0,1,,,,,,,,,0,,,,84,0
85443,note_on,0,0,1,,,,,,,,,0,,,,82,82
85443,note_on,0,0,7,,,,,,,,,11,,,,72,100
85443,note_on,30,0,10,,,,,,,,,14,,,,36,0
85443,note_on,10,0,7,,,,,,,,,11,,,,79,100
85445,note_on,0,0,2,,,,,,,,,1,,,,79,81
85445,note_on,240,0,2,,,,,,,,,1,,,,81,0
85446,note_on,10,0,8,,,,,,,,,12,,,,60,98
85451,note_on,10,0,9,,,,,,,,,13,,,,48,89
85453,note_on,10,0,10,,,,,,,,,14,,,,36,73
85470,note_on,30,0,6,,,,,,,,,10,,,,82,0
85473,note_on,30,0,7,,,,,,,,,11,,,,72,0
85473,note_on,0,0,7,,,,,,,,,11,,,,79,0
85476,note_on,30,0,8,,,,,,,,,12,,,,60,0
85480,note_on,10,0,6,,,,,,,,,10,,,,82,92
85480,set_tempo,40,1,0,,,,,,346821,,,,,,,,
85481,note_on,30,0,9,,,,,,,,,13,,,,48,0
85483,note_on,30,0,10,,,,,,,,,14,,,,36,0
85483,note_on,0,0,7,,,,,,,,,11,,,,72,92
85483,note_on,10,0,7,,,,,,,,,11,,,,79,92
85486,note_on,10,0,8,,,,,,,,,12,,,,60,90
85491,note_on,10,0,9,,,,,,,,,13,,,,48,81
85493,note_on,10,0,10,,,,,,,,,14,,,,36,65
85510,note_on,30,0,6,,,,,,,,,10,,,,82,0
85513,note_on,0,0,7,,,,,,,,,11,,,,79,0
85513,note_on,30,0,7,,,,,,,,,11,,,,72,0
85516,note_on,30,0,8,,,,,,,,,12,,,,60,0
85520,note_on,10,0,6,,,,,,,,,10,,,,82,100
85521,note_on,30,0,9,,,,,,,,,13,,,,48,0
85523,note_on,10,0,7,,,,,,,,,11,,,,72,100
85523,note_on,30,0,10,,,,,,,,,14,,,,36,0
85523,note_on,0,0,7,,,,,,,,,11,,,,79,100
85526,note_on,10,0,8,,,,,,,,,12,,,,60,98
85531,note_on,10,0,9,,,,,,,,,13,,,,48,89
85533,note_on,10,0,10,,,,,,,,,14,,,,36,73
85550,note_on,30,0,6,,,,,,,,,10,,,,82,0
85553,note_on,30,0,7,,,,,,,,,11,,,,79,0
85553,note_on,0,0,7,,,,,,,,,11,,,,72,0
85556,note_on,30,0,8,,,,,,,,,12,,,,60,0
85560,set_tempo,80,1,0,,,,,,390879,,,,,,,,
85560,note_on,10,0,6,,,,,,,,,10,,,,79,92
85561,note_on,30,0,9,,,,,,,,,13,,,,48,0
85563,note_on,0,0,7,,,,,,,,,11,,,,70,92
85563,note_on,30,0,10,,,,,,,,,14,,,,36,0
85563,note_on,120,0,1,,,,,,,,,0,,,,82,0
85563,note_on,10,0,7,,,,,,,,,11,,,,76,92
85563,note_on,0,0,1,,,,,,,,,0,,,,79,82
85565,note_on,0,0,2,,,,,,,,,1,,,,76,81
85565,note_on,0,0,2,,,,,,,,,1,,,,70,81
85565,note_on,0,0,2,,,,,,,,,1,,,,72,0
85565,note_on,120,0,2,,,,,,,,,1,,,,79,0
85566,note_on,10,0,8,,,,,,,,,12,,,,60,90
85571,note_on,10,0,9,,,,,,,,,13,,,,48,81
85573,note_on,10,0,10,,,,,,,,,14,,,,36,65
85590,note_on,30,0,6,,,,,,,,,10,,,,79,0
85593,note_on,30,0,7,,,,,,,,,11,,,,70,0
85593,note_on,0,0,7,,,,,,,,,11,,,,76,0
85596,note_on,30,0,8,,,,,,,,,12,,,,60,0
85600,set_tempo,40,1,0,,,,,,373832,,,,,,,,
85600,note_on,10,0,6,,,,,,,,,10,,,,79,100
85601,note_on,30,0,9,,,,,,,,,13,,,,48,0
85603,note_on,0,0,7,,,,,,,,,11,,,,76,100
85603,note_on,30,0,10,,,,,,,,,14,,,,36,0
85603,note_on,10,0,7,,,,,,,,,11,,,,70,100
85606,note_on,10,0,8,,,,,,,,,12,,,,60,98
85611,note_on,10,0,9,,,,,,,,,13,,,,48,89
85613,note_on,10,0,10,,,,,,,,,14,,,,36,73
85630,note_on,30,0,6,,,,,,,,,10,,,,79,0
85633,note_on,0,0,7,,,,,,,,,11,,,,70,0
85633,note_on,30,0,7,,,,,,,,,11,,,,76,0
85636,note_on,30,0,8,,,,,,,,,12,,,,60,0
85640,note_on,10,0,6,,,,,,,,,10,,,,79,92
85641,note_on,30,0,9,,,,,,,,,13,,,,48,0
85643,note_on,0,0,7,,,,,,,,,11,,,,70,92
85643,note_on,10,0,7,,,,,,,,,11,,,,76,92
85643,note_on,30,0,10,,,,,,,,,14,,,,36,0
85646,note_on,10,0,8,,,,,,,,,12,,,,60,90
85650,set_tempo,50,1,0,,,,,,459770,,,,,,,,
85651,note_on,10,0,9,,,,,,,,,13,,,,48,81
85653,note_on,10,0,10,,,,,,,,,14,,,,36,65
85670,note_on,30,0,6,,,,,,,,,10,,,,79,0
85670,control_change,0,0,6,,,,,,,,,10,11,79,,,
85673,note_on,110,0,1,,,,,,,,,0,,,,79,0
85673,note_on,30,0,7,,,,,,,,,11,,,,70,0
85673,note_on,0,0,7,,,,,,,,,11,,,,76,0
85673,control_change,0,0,7,,,,,,,,,11,11,79,,,
85675,note_on,110,0,2,,,,,,,,,1,,,,76,0
85675,note_on,0,0,2,,,,,,,,,1,,,,70,0
85676,control_change,0,0,8,,,,,,,,,12,11,79,,,
85676,note_on,30,0,8,,,,,,,,,12,,,,60,0
85679,control_change,9,0,6,,,,,,,,,10,11,75,,,
85679,note_on,475,0,4,,,,,,,,,4,,,,60,0
85680,set_tempo,30,1,0,,,,,,362538,,,,,,,,
85680,note_on,1,0,6,,,,,,,,,10,,,,77,100
85681,control_change,0,0,9,,,,,,,,,13,11,79,,,
85681,note_on,475,0,5,,,,,,,,,5,,,,60,0
85681,note_on,30,0,9,,,,,,,,,13,,,,48,0
85682,control_change,9,0,7,,,,,,,,,11,11,75,,,
85682,note_on,0,0,3,,,,,,,,,3,,,,48,0
85682,note_on,470,0,3,,,,,,,,,3,,,,60,0
85683,note_on,1,0,7,,,,,,,,,11,,,,65,100
85683,note_on,10,0,1,,,,,,,,,0,,,,77,82
85683,control_change,0,0,10,,,,,,,,,14,11,79,,,
85683,note_on,30,0,10,,,,,,,,,14,,,,36,0
85684,control_change,5,0,4,,,,,,,,,4,11,79,,,
85684,note_on,0,0,4,,,,,,,,,4,,,,60,86
85685,note_on,0,0,2,,,,,,,,,1,,,,69,81
85685,note_on,10,0,2,,,,,,,,,1,,,,77,81
85685,control_change,9,0,8,,,,,,,,,12,11,75,,,
85686,note_on,0,0,5,,,,,,,,,5,,,,60,86
85686,note_on,1,0,8,,,,,,,,,12,,,,57,98
85686,control_change,5,0,5,,,,,,,,,5,11,79,,,
85688,control_change,8,0,6,,,,,,,,,10,11,71,,,
85690,control_change,9,0,9,,,,,,,,,13,11,75,,,
85691,note_on,1,0,9,,,,,,,,,13,,,,53,89
85691,control_change,8,0,7,,,,,,,,,11,11,71,,,
85692,control_change,4,0,6,,,,,,,,,10,11,68,,,
85692,control_change,9,0,10,,,,,,,,,14,11,75,,,
85692,note_on,10,0,3,,,,,,,,,3,,,,53,81
85693,note_on,1,0,10,,,,,,,,,14,,,,41,73
85694,control_change,8,0,8,,,,,,,,,12,11,71,,,
85695,control_change,4,0,7,,,,,,,,,11,11,68,,,
85696,control_change,12,0,4,,,,,,,,,4,11,75,,,
85698,control_change,4,0,8,,,,,,,,,12,11,68,,,
85698,control_change,12,0,5,,,,,,,,,5,11,75,,,
85699,control_change,8,0,9,,,,,,,,,13,11,71,,,
85701,control_change,8,0,10,,,,,,,,,14,11,71,,,
85701,control_change,9,0,6,,,,,,,,,10,11,64,,,
85703,control_change,4,0,9,,,,,,,,,13,11,68,,,
85704,control_change,9,0,7,,,,,,,,,11,11,64,,,
85705,control_change,4,0,10,,,,,,,,,14,11,68,,,
85707,control_change,9,0,8,,,,,,,,,12,11,64,,,
85708,control_change,12,0,4,,,,,,,,,4,11,71,,,
85710,control_change,12,0,5,,,,,,,,,5,11,71,,,
85710,note_on,9,0,6,,,,,,,,,10,,,,77,0
85710,control_change,0,0,6,,,,,,,,,10,11,60,,,
85712,control_change,9,0,9,,,,,,,,,13,11,64,,,
85713,note_on,9,0,7,,,,,,,,,11,,,,65,0
85713,control_change,0,0,7,,,,,,,,,11,11,60,,,
85714,control_change,9,0,10,,,,,,,,,14,11,64,,,
85714,control_change,6,0,4,,,,,,,,,4,11,68,,,
85715,control_change,5,0,6,,,,,,,,,10,11,57,,,
85716,control_change,9,0,8,,,,,,,,,12,11,60,,,
85716,control_change,6,0,5,,,,,,,,,5,11,68,,,
85718,control_change,5,0,7,,,,,,,,,11,11,57,,,
85719,control_change,4,0,6,,,,,,,,,10,11,54,,,
85720,set_tempo,40,1,0,,,,,,346821,,,,,,,,
85720,note_on,1,0,6,,,,,,,,,10,,,,81,100
85721,control_change,9,0,9,,,,,,,,,13,11,60,,,
85721,control_change,5,0,8,,,,,,,,,12,11,57,,,
85722,control_change,4,0,7,,,,,,,,,11,11,54,,,
85723,control_change,9,0,10,,,,,,,,,14,11,60,,,
85723,note_on,1,0,7,,,,,,,,,11,,,,69,100
85724,control_change,4,0,6,,,,,,,,,10,11,51,,,
85725,control_change,4,0,8,,,,,,,,,12,11,54,,,
85726,control_change,5,0,9,,,,,,,,,13,11,57,,,
85727,control_change,4,0,7,,,,,,,,,11,11,51,,,
85728,control_change,4,0,6,,,,,,,,,10,11,48,,,
85728,control_change,5,0,10,,,,,,,,,14,11,57,,,
85730,control_change,5,0,8,,,,,,,,,12,11,51,,,
85730,control_change,4,0,9,,,,,,,,,13,11,54,,,
85731,control_change,4,0,7,,,,,,,,,11,11,48,,,
85732,control_change,4,0,10,,,,,,,,,14,11,54,,,
85734,control_change,4,0,8,,,,,,,,,12,11,48,,,
85735,control_change,5,0,9,,,,,,,,,13,11,51,,,
85737,control_change,5,0,10,,,,,,,,,14,11,51,,,
85739,control_change,4,0,9,,,,,,,,,13,11,48,,,
85741,control_change,4,0,10,,,,,,,,,14,11,48,,,
85743,note_on,60,0,1,,,,,,,,,0,,,,77,0
85744,note_on,30,0,4,,,,,,,,,4,,,,60,0
85745,note_on,0,0,2,,,,,,,,,1,,,,77,0
85745,note_on,60,0,2,,,,,,,,,1,,,,69,0
85746,note_on,30,0,5,,,,,,,,,5,,,,60,0
85746,note_on,12,0,8,,,,,,,,,12,,,,57,0
85750,note_on,22,0,6,,,,,,,,,10,,,,81,0
85751,note_on,12,0,9,,,,,,,,,13,,,,53,0
85752,note_on,60,0,3,,,,,,,,,3,,,,53,0
85753,note_on,12,0,10,,,,,,,,,14,,,,41,0
85753,note_on,22,0,7,,,,,,,,,11,,,,69,0
85760,note_on,10,0,6,,,,,,,,,10,,,,77,100
85763,note_on,10,0,7,,,,,,,,,11,,,,65,100
85790,note_on,30,0,6,,,,,,,,,10,,,,77,0
85793,note_on,30,0,7,,,,,,,,,11,,,,65,0
85800,note_on,10,0,6,,,,,,,,,10,,,,76,100
85800,set_tempo,80,1,0,,,,,,390879,,,,,,,,
85803,note_on,0,0,1,,,,,,,,,0,,,,88,82
85803,note_on,10,0,7,,,,,,,,,11,,,,64,100
85803,control_change,60,0,1,,,,,,,,,0,11,47,,,
85804,control_change,60,0,4,,,,,,,,,4,11,47,,,
85804,note_on,0,0,4,,,,,,,,,4,,,,60,86
85805,note_on,0,0,2,,,,,,,,,1,,,,79,81
85805,note_on,0,0,2,,,,,,,,,1,,,,76,81
85805,control_change,60,0,2,,,,,,,,,1,11,47,,,
85806,note_on,0,0,5,,,,,,,,,5,,,,60,86
85806,control_change,60,0,5,,,,,,,,,5,11,47,,,
85806,note_on,60,0,8,,,,,,,,,12,,,,58,98
85811,note_on,60,0,9,,,,,,,,,13,,,,48,89
85812,note_on,0,0,3,,,,,,,,,3,,,,58,81
85812,note_on,0,0,3,,,,,,,,,3,,,,48,81
85812,control_change,60,0,3,,,,,,,,,3,11,47,,,
85813,note_on,60,0,10,,,,,,,,,14,,,,36,73
85830,note_on,30,0,6,,,,,,,,,10,,,,76,0
85833,note_on,30,0,7,,,,,,,,,11,,,,64,0
85840,set_tempo,40,1,0,,,,,,373832,,,,,,,,
85840,note_on,10,0,6,,,,,,,,,10,,,,79,100
85843,note_on,10,0,7,,,,,,,,,11,,,,67,100
85863,note_on,60,0,1,,,,,,,,,0,,,,88,0
85864,note_on,60,0,4,,,,,,,,,4,,,,60,0
85865,note_on,0,0,2,,,,,,,,,1,,,,76,0
85865,note_on,60,0,2,,,,,,,,,1,,,,79,0
85866,note_on,60,0,5,,,,,,,,,5,,,,60,0
85866,note_on,60,0,8,,,,,,,,,12,,,,58,0
85870,note_on,30,0,6,,,,,,,,,10,,,,79,0
85871,note_on,60,0,9,,,,,,,,,13,,,,48,0
85872,note_on,60,0,3,,,,,,,,,3,,,,58,0
85872,note_on,0,0,3,,,,,,,,,3,,,,48,0
85873,note_on,60,0,10,,,,,,,,,14,,,,36,0
85873,note_on,30,0,7,,,,,,,,,11,,,,67,0
85880,note_on,10,0,6,,,,,,,,,10,,,,76,100
85883,note_on,10,0,7,,,,,,,,,11,,,,64,100
85910,note_on,30,0,6,,,,,,,,,10,,,,76,0
85913,note_on,30,0,7,,,,,,,,,11,,,,64,0
85920,set_tempo,80,1,0,,,,,,362538,,,,,,,,
85920,note_on,10,0,6,,,,,,,,,10,,,,77,100
85923,note_on,60,0,1,,,,,,,,,0,,,,89,82
85923,note_on,10,0,7,,,,,,,,,11,,,,65,100
85924,note_on,60,0,4,,,,,,,,,4,,,,60,86
85925,note_on,0,0,2,,,,,,,,,1,,,,81,81
85925,note_on,60,0,2,,,,,,,,,1,,,,77,81
85926,note_on,60,0,5,,,,,,,,,5,,,,60,86
85926,note_on,60,0,8,,,,,,,,,12,,,,57,98
85931,note_on,60,0,9,,,,,,,,,13,,,,53,89
85932,note_on,60,0,3,,,,,,,,,3,,,,57,81
85932,note_on,0,0,3,,,,,,,,,3,,,,53,81
85933,note_on,60,0,10,,,,,,,,,14,,,,41,73
85950,note_on,30,0,6,,,,,,,,,10,,,,77,0
85953,note_on,30,0,7,,,,,,,,,11,,,,65,0
85960,set_tempo,40,1,0,,,,,,346821,,,,,,,,
85960,note_on,10,0,6,,,,,,,,,10,,,,81,100
85963,note_on,10,0,7,,,,,,,,,11,,,,69,100
85983,note_on,60,0,1,,,,,,,,,0,,,,89,0
85984,note_on,60,0,4,,,,,,,,,4,,,,60,0
85985,note_on,60,0,2,,,,,,,,,1,,,,81,0
85985,note_on,0,0,2,,,,,,,,,1,,,,77,0
85986,note_on,60,0,8,,,,,,,,,12,,,,57,0
85986,note_on,60,0,5,,,,,,,,,5,,,,60,0
85990,note_on,30,0,6,,,,,,,,,10,,,,81,0
85991,note_on,60,0,9,,,,,,,,,13,,,,53,0
85992,note_on,60,0,3,,,,,,,,,3,,,,53,0
85992,note_on,0,0,3,,,,,,,,,3,,,,57,0
85993,note_on,60,0,10,,,,,,,,,14,,,,41,0
85993,note_on,30,0,7,,,,,,,,,11,,,,69,0
86000,note_on,10,0,6,,,,,,,,,10,,,,77,100
86003,note_on,10,0,7,,,,,,,,,11,,,,65,100
86030,note_on,30,0,6,,,,,,,,,10,,,,77,0
86033,note_on,30,0,7,,,,,,,,,11,,,,65,0
86040,note_on,10,0,6,,,,,,,,,10,,,,76,100
86040,set_tempo,80,1,0,,,,,,390879,,,,,,,,
86043,note_on,10,0,7,,,,,,,,,11,,,,64,100
86043,note_on,60,0,1,,,,,,,,,0,,,,88,82
86044,note_on,60,0,4,,,,,,,,,4,,,,60,86
86045,note_on,60,0,2,,,,,,,,,1,,,,79,81
86045,note_on,0,0,2,,,,,,,,,1,,,,76,81
86046,note_on,60,0,5,,,,,,,,,5,,,,60,86
86046,note_on,60,0,8,,,,,,,,,12,,,,58,98
86051,note_on,60,0,9,,,,,,,,,13,,,,48,89
86052,note_on,60,0,3,,,,,,,,,3,,,,48,81
86052,note_on,0,0,3,,,,,,,,,3,,,,58,81
86053,note_on,60,0,10,,,,,,,,,14,,,,36,73
86070,note_on,30,0,6,,,,,,,,,10,,,,76,0
86073,note_on,30,0,7,,,,,,,,,11,,,,64,0
86080,note_on,10,0,6,,,,,,,,,10,,,,79,100
86080,set_tempo,40,1,0,,,,,,373832,,,,,,,,
86083,note_on,10,0,7,,,,,,,,,11,,,,67,100
86103,note_on,60,0,1,,,,,,,,,0,,,,88,0
86104,note_on,60,0,4,,,,,,,,,4,,,,60,0
86105,note_on,60,0,2,,,,,,,,,1,,,,76,0
86105,note_on,0,0,2,,,,,,,,,1,,,,79,0
86106,note_on,60,0,8,,,,,,,,,12,,,,58,0
86106,note_on,60,0,5,,,,,,,,,5,,,,60,0
86110,note_on,30,0,6,,,,,,,,,10,,,,79,0
86111,note_on,60,0,9,,,,,,,,,13,,,,48,0
86112,note_on,60,0,3,,,,,,,,,3,,,,58,0
86112,note_on,0,0,3,,,,,,,,,3,,,,48,0
86113,note_on,30,0,7,,,,,,,,,11,,,,67,0
86113,note_on,60,0,10,,,,,,,,,14,,,,36,0
86120,note_on,10,0,6,,,,,,,,,10,,,,76,100
86123,note_on,10,0,7,,,,,,,,,11,,,,64,100
86150,note_on,30,0,6,,,,,,,,,10,,,,76,0
86153,note_on,30,0,7,,,,,,,,,11,,,,64,0
86160,control_change,10,0,6,,,,,,,,,10,11,47,,,
86160,note_on,0,0,6,,,,,,,,,10,,,,77,100
86160,set_tempo,80,1,0,,,,,,362538,,,,,,,,
86163,control_change,10,0,7,,,,,,,,,11,11,47,,,
86163,note_on,0,0,7,,,,,,,,,11,,,,65,100
86163,note_on,60,0,1,,,,,,,,,0,,,,89,82
86164,note_on,60,0,4,,,,,,,,,4,,,,60,86
86165,note_on,0,0,2,,,,,,,,,1,,,,81,81
86165,note_on,60,0,2,,,,,,,,,1,,,,77,81
86166,note_on,0,0,8,,,,,,,,,12,,,,57,98
86166,control_change,60,0,8,,,,,,,,,12,11,47,,,
86166,note_on,60,0,5,,,,,,,,,5,,,,60,86
86171,note_on,0,0,9,,,,,,,,,13,,,,53,89
86171,control_change,60,0,9,,,,,,,,,13,11,47,,,
86172,note_on,0,0,3,,,,,,,,,3,,,,53,81
86172,note_on,60,0,3,,,,,,,,,3,,,,57,81
86173,control_change,60,0,10,,,,,,,,,14,11,47,,,
86173,note_on,0,0,10,,,,,,,,,14,,,,41,73
86184,control_change,24,0,6,,,,,,,,,10,11,49,,,
86187,control_change,24,0,7,,,,,,,,,11,11,49,,,
86190,note_on,6,0,6,,,,,,,,,10,,,,77,0
86190,control_change,24,0,8,,,,,,,,,12,11,49,,,
86193,note_on,6,0,7,,,,,,,,,11,,,,65,0
86195,control_change,24,0,9,,,,,,,,,13,11,49,,,
86197,control_change,24,0,10,,,,,,,,,14,11,49,,,
86200,note_on,10,0,6,,,,,,,,,10,,,,81,100
86200,set_tempo,40,1,0,,,,,,346821,,,,,,,,
86203,note_on,10,0,7,,,,,,,,,11,,,,69,100
86208,control_change,8,0,6,,,,,,,,,10,11,51,,,
86211,control_change,8,0,7,,,,,,,,,11,11,51,,,
86214,control_change,24,0,8,,,,,,,,,12,11,51,,,
86219,control_change,24,0,9,,,,,,,,,13,11,51,,,
86221,control_change,24,0,10,,,,,,,,,14,11,51,,,
86223,note_on,60,0,1,,,,,,,,,0,,,,89,0
86224,note_on,60,0,4,,,,,,,,,4,,,,60,0
86225,note_on,60,0,2,,,,,,,,,1,,,,81,0
86225,note_on,0,0,2,,,,,,,,,1,,,,77,0
86226,note_on,60,0,5,,,,,,,,,5,,,,60,0
86226,note_on,12,0,8,,,,,,,,,12,,,,57,0
86230,note_on,22,0,6,,,,,,,,,10,,,,81,0
86231,note_on,12,0,9,,,,,,,,,13,,,,53,0
86232,control_change,2,0,6,,,,,,,,,10,11,53,,,
86232,note_on,60,0,3,,,,,,,,,3,,,,53,0
86232,note_on,0,0,3,,,,,,,,,3,,,,57,0
86233,note_on,22,0,7,,,,,,,,,11,,,,69,0
86233,note_on,12,0,10,,,,,,,,,14,,,,41,0
86235,control_change,2,0,7,,,,,,,,,11,11,53,,,
86238,control_change,12,0,8,,,,,,,,,12,11,53,,,
86240,note_on,8,0,6,,,,,,,,,10,,,,77,100
86243,note_on,8,0,7,,,,,,,,,11,,,,65,100
86243,control_change,12,0,9,,,,,,,,,13,11,53,,,
86245,control_change,12,0,10,,,,,,,,,14,11,53,,,
86256,control_change,16,0,6,,,,,,,,,10,11,55,,,
86259,control_change,16,0,7,,,,,,,,,11,11,55,,,
86262,control_change,24,0,8,,,,,,,,,12,11,55,,,
86267,control_change,24,0,9,,,,,,,,,13,11,55,,,
86269,control_change,24,0,10,,,,,,,,,14,11,55,,,
86270,note_on,14,0,6,,,,,,,,,10,,,,77,0
86273,note_on,14,0,7,,,,,,,,,11,,,,65,0
86280,control_change,10,0,6,,,,,,,,,10,11,57,,,
86280,note_on,0,0,6,,,,,,,,,10,,,,76,100
86280,set_tempo,80,1,0,,,,,,390879,,,,,,,,
86283,control_change,10,0,7,,,,,,,,,11,11,57,,,
86283,note_on,0,0,7,,,,,,,,,11,,,,64,100
86283,control_change,60,0,1,,,,,,,,,0,11,65,,,
86283,note_on,0,0,1,,,,,,,,,0,,,,88,82
86284,note_on,0,0,4,,,,,,,,,4,,,,60,86
86284,control_change,60,0,4,,,,,,,,,4,11,65,,,
86285,control_change,60,0,2,,,,,,,,,1,11,65,,,
86285,note_on,0,0,2,,,,,,,,,1,,,,79,81
86285,note_on,0,0,2,,,,,,,,,1,,,,76,81
86286,note_on,0,0,8,,,,,,,,,12,,,,58,98
86286,note_on,0,0,5,,,,,,,,,5,,,,60,86
86286,control_change,60,0,5,,,,,,,,,5,11,65,,,
86286,control_change,24,0,8,,,,,,,,,12,11,57,,,
86291,control_change,24,0,9,,,,,,,,,13,11,57,,,
86291,note_on,0,0,9,,,,,,,,,13,,,,48,89
86292,note_on,0,0,3,,,,,,,,,3,,,,58,81
86292,note_on,0,0,3,,,,,,,,,3,,,,48,81
86292,control_change,60,0,3,,,,,,,,,3,11,65,,,
86293,control_change,24,0,10,,,,,,,,,14,11,57,,,
86293,note_on,0,0,10,,,,,,,,,14,,,,36,73
86299,control_change,16,0,1,,,,,,,,,0,11,66,,,
86300,control_change,16,0,4,,,,,,,,,4,11,66,,,
86301,control_change,16,0,2,,,,,,,,,1,11,66,,,
86302,control_change,16,0,5,,,,,,,,,5,11,66,,,
86304,control_change,24,0,6,,,,,,,,,10,11,59,,,
86307,control_change,24,0,7,,,,,,,,,11,11,59,,,
86308,control_change,16,0,3,,,,,,,,,3,11,66,,,
86310,note_on,6,0,6,,,,,,,,,10,,,,76,0
86310,control_change,24,0,8,,,,,,,,,12,11,59,,,
86313,note_on,6,0,7,,,,,,,,,11,,,,64,0
86315,control_change,24,0,9,,,,,,,,,13,11,59,,,
86316,note_on,6,0,8,,,,,,,,,12,,,,58,0
86316,control_change,17,0,1,,,,,,,,,0,11,66,,,
86317,control_change,17,0,4,,,,,,,,,4,11,66,,,
86317,control_change,24,0,10,,,,,,,,,14,11,59,,,
86318,control_change,17,0,2,,,,,,,,,1,11,66,,,
86319,control_change,17,0,5,,,,,,,,,5,11,66,,,
86320,set_tempo,40,1,0,,,,,,373832,,,,,,,,
86320,note_on,10,0,6,,,,,,,,,10,,,,79,100
86321,note_on,6,0,9,,,,,,,,,13,,,,48,0
86323,note_on,6,0,10,,,,,,,,,14,,,,36,0
86323,note_on,10,0,7,,,,,,,,,11,,,,67,100
86325,control_change,17,0,3,,,,,,,,,3,11,66,,,
86326,note_on,10,0,8,,,,,,,,,12,,,,58,98
86328,control_change,8,0,6,,,,,,,,,10,11,61,,,
86331,note_on,10,0,9,,,,,,,,,13,,,,48,89
86331,control_change,8,0,7,,,,,,,,,11,11,61,,,
86332,control_change,16,0,1,,,,,,,,,0,11,67,,,
86333,note_on,10,0,10,,,,,,,,,14,,,,36,73
86333,control_change,16,0,4,,,,,,,,,4,11,67,,,
86334,control_change,8,0,8,,,,,,,,,12,11,61,,,
86334,control_change,16,0,2,,,,,,,,,1,11,67,,,
86335,control_change,16,0,5,,,,,,,,,5,11,67,,,
86339,control_change,8,0,9,,,,,,,,,13,11,61,,,
86341,control_change,8,0,10,,,,,,,,,14,11,61,,,
86341,control_change,16,0,3,,,,,,,,,3,11,67,,,
86349,control_change,17,0,1,,,,,,,,,0,11,68,,,
86350,note_on,22,0,6,,,,,,,,,10,,,,79,0
86350,control_change,17,0,4,,,,,,,,,4,11,68,,,
86351,control_change,17,0,2,,,,,,,,,1,11,68,,,
86352,control_change,17,0,5,,,,,,,,,5,11,68,,,
86352,control_change,2,0,6,,,,,,,,,10,11,62,,,
86353,note_on,22,0,7,,,,,,,,,11,,,,67,0
86355,control_change,2,0,7,,,,,,,,,11,11,62,,,
86356,note_on,22,0,8,,,,,,,,,12,,,,58,0
86358,control_change,17,0,3,,,,,,,,,3,11,68,,,
86358,control_change,2,0,8,,,,,,,,,12,11,62,,,
86360,note_on,8,0,6,,,,,,,,,10,,,,76,100
86361,note_on,22,0,9,,,,,,,,,13,,,,48,0
86363,note_on,22,0,10,,,,,,,,,14,,,,36,0
86363,control_change,2,0,9,,,,,,,,,13,11,62,,,
86363,note_on,14,0,1,,,,,,,,,0,,,,88,0
86363,note_on,8,0,7,,,,,,,,,11,,,,64,100
86365,control_change,2,0,1,,,,,,,,,0,11,68,,,
86365,control_change,2,0,10,,,,,,,,,14,11,62,,,
86365,note_on,0,0,2,,,,,,,,,1,,,,76,0
86365,note_on,14,0,2,,,,,,,,,1,,,,79,0
86366,note_on,8,0,8,,,,,,,,,12,,,,58,98
86366,control_change,16,0,4,,,,,,,,,4,11,68,,,
86367,control_change,2,0,2,,,,,,,,,1,11,68,,,
86368,control_change,16,0,5,,,,,,,,,5,11,68,,,
86369,note_on,3,0,4,,,,,,,,,4,,,,60,0
86371,note_on,8,0,9,,,,,,,,,13,,,,48,89
86371,note_on,3,0,5,,,,,,,,,5,,,,60,0
86372,note_on,14,0,3,,,,,,,,,3,,,,58,0
86372,note_on,0,0,3,,,,,,,,,3,,,,48,0
86373,note_on,8,0,1,,,,,,,,,0,,,,88,82
86373,note_on,8,0,10,,,,,,,,,14,,,,36,73
86374,control_change,2,0,3,,,,,,,,,3,11,68,,,
86374,note_on,5,0,4,,,,,,,,,4,,,,60,86
86375,note_on,8,0,2,,,,,,,,,1,,,,79,81
86375,note_on,0,0,2,,,,,,,,,1,,,,76,81
86376,note_on,5,0,5,,,,,,,,,5,,,,60,86
86376,control_change,16,0,6,,,,,,,,,10,11,64,,,
86379,control_change,16,0,7,,,,,,,,,11,11,64,,,
86382,control_change,9,0,1,,,,,,,,,0,11,69,,,
86382,note_on,8,0,3,,,,,,,,,3,,,,58,81
86382,note_on,0,0,3,,,,,,,,,3,,,,48,81
86382,control_change,16,0,8,,,,,,,,,12,11,64,,,
86383,control_change,9,0,4,,,,,,,,,4,11,69,,,
86384,control_change,9,0,2,,,,,,,,,1,11,69,,,
86385,control_change,9,0,5,,,,,,,,,5,11,69,,,
86387,control_change,16,0,9,,,,,,,,,13,11,64,,,
86389,control_change,16,0,10,,,,,,,,,14,11,64,,,
86390,note_on,14,0,6,,,,,,,,,10,,,,76,0
86391,control_change,9,0,3,,,,,,,,,3,11,69,,,
86393,note_on,14,0,7,,,,,,,,,11,,,,64,0
86393,note_on,11,0,1,,,,,,,,,0,,,,88,0
86395,note_on,0,0,2,,,,,,,,,1,,,,79,0
86395,note_on,11,0,2,,,,,,,,,1,,,,76,0
86396,note_on,14,0,8,,,,,,,,,12,,,,58,0
86398,control_change,5,0,1,,,,,,,,,0,11,70,,,
86399,control_change,0,0,4,,,,,,,,,4,11,70,,,
86399,note_on,16,0,4,,,,,,,,,4,,,,60,0
86400,note_on,0,0,6,,,,,,,,,10,,,,77,100
86400,control_change,5,0,2,,,,,,,,,1,11,70,,,
86400,control_change,10,0,6,,,,,,,,,10,11,65,,,
86400,set_tempo,80,1,0,,,,,,362538,,,,,,,,
86401,control_change,0,0,5,,,,,,,,,5,11,70,,,
86401,note_on,14,0,9,,,,,,,,,13,,,,48,0
86401,note_on,16,0,5,,,,,,,,,5,,,,60,0
86402,note_on,11,0,3,,,,,,,,,3,,,,48,0
86402,note_on,0,0,3,,,,,,,,,3,,,,58,0
86403,note_on,14,0,10,,,,,,,,,14,,,,36,0
86403,note_on,0,0,7,,,,,,,,,11,,,,65,100
86403,note_on,5,0,1,,,,,,,,,0,,,,89,82
86403,control_change,10,0,7,,,,,,,,,11,11,65,,,
86404,note_on,5,0,4,,,,,,,,,4,,,,60,86
86405,note_on,5,0,2,,,,,,,,,1,,,,77,81
86405,note_on,0,0,2,,,,,,,,,1,,,,81,81
86406,note_on,5,0,5,,,,,,,,,5,,,,60,86
86406,note_on,0,0,8,,,,,,,,,12,,,,57,98
86406,control_change,10,0,8,,,,,,,,,12,11,65,,,
86407,control_change,5,0,3,,,,,,,,,3,11,70,,,
86411,note_on,0,0,9,,,,,,,,,13,,,,53,89
86411,control_change,10,0,9,,,,,,,,,13,11,65,,,
86412,note_on,5,0,3,,,,,,,,,3,,,,53,81
86412,note_on,0,0,3,,,,,,,,,3,,,,57,81
86413,note_on,0,0,10,,,,,,,,,14,,,,41,73
86413,control_change,10,0,10,,,,,,,,,14,11,65,,,
86415,control_change,12,0,1,,,,,,,,,0,11,71,,,
86416,control_change,12,0,4,,,,,,,,,4,11,71,,,
86417,control_change,12,0,2,,,,,,,,,1,11,71,,,
86418,control_change,12,0,5,,,,,,,,,5,11,71,,,
86424,control_change,24,0,6,,,,,,,,,10,11,66,,,
86424,control_change,12,0,3,,,,,,,,,3,11,71,,,
86427,control_change,24,0,7,,,,,,,,,11,11,66,,,
86430,note_on,6,0,6,,,,,,,,,10,,,,77,0
86430,control_change,24,0,8,,,,,,,,,12,11,66,,,
86431,control_change,16,0,1,,,,,,,,,0,11,71,,,
86432,control_change,16,0,4,,,,,,,,,4,11,71,,,
86433,control_change,16,0,2,,,,,,,,,1,11,71,,,
86433,note_on,6,0,7,,,,,,,,,11,,,,65,0
86434,control_change,16,0,5,,,,,,,,,5,11,71,,,
86435,control_change,24,0,9,,,,,,,,,13,11,66,,,
86436,note_on,6,0,8,,,,,,,,,12,,,,57,0
86437,control_change,24,0,10,,,,,,,,,14,11,66,,,
86440,note_on,10,0,6,,,,,,,,,10,,,,81,100
86440,control_change,16,0,3,,,,,,,,,3,11,71,,,
86440,set_tempo,40,1,0,,,,,,346821,,,,,,,,
86441,note_on,6,0,9,,,,,,,,,13,,,,53,0
86443,note_on,10,0,7,,,,,,,,,11,,,,69,100
86443,note_on,6,0,10,,,,,,,,,14,,,,41,0
86446,note_on,10,0,8,,,,,,,,,12,,,,57,98
86448,control_change,8,0,6,,,,,,,,,10,11,68,,,
86448,control_change,17,0,1,,,,,,,,,0,11,72,,,
86449,control_change,17,0,4,,,,,,,,,4,11,72,,,
86450,control_change,17,0,2,,,,,,,,,1,11,72,,,
86451,note_on,10,0,9,,,,,,,,,13,,,,53,89
86451,control_change,8,0,7,,,,,,,,,11,11,68,,,
86451,control_change,17,0,5,,,,,,,,,5,11,72,,,
86453,note_on,10,0,10,,,,,,,,,14,,,,41,73
86454,control_change,8,0,8,,,,,,,,,12,11,68,,,
86457,control_change,17,0,3,,,,,,,,,3,11,72,,,
86459,control_change,8,0,9,,,,,,,,,13,11,68,,,
86461,control_change,8,0,10,,,,,,,,,14,11,68,,,
86464,control_change,16,0,1,,,,,,,,,0,11,73,,,
86465,control_change,16,0,4,,,,,,,,,4,11,73,,,
86466,control_change,16,0,2,,,,,,,,,1,11,73,,,
86467,control_change,16,0,5,,,,,,,,,5,11,73,,,
86470,note_on,22,0,6,,,,,,,,,10,,,,81,0
86472,control_change,2,0,6,,,,,,,,,10,11,69,,,
86473,note_on,22,0,7,,,,,,,,,11,,,,69,0
86473,control_change,16,0,3,,,,,,,,,3,11,73,,,
86475,control_change,2,0,7,,,,,,,,,11,11,69,,,
86476,note_on,22,0,8,,,,,,,,,12,,,,57,0
86478,control_change,2,0,8,,,,,,,,,12,11,69,,,
86480,note_on,8,0,6,,,,,,,,,10,,,,77,100
86481,control_change,17,0,1,,,,,,,,,0,11,73,,,
86481,note_on,22,0,9,,,,,,,,,13,,,,53,0
86482,control_change,17,0,4,,,,,,,,,4,11,73,,,
86483,note_on,8,0,7,,,,,,,,,11,,,,65,100
86483,note_on,2,0,1,,,,,,,,,0,,,,89,0
86483,control_change,17,0,2,,,,,,,,,1,11,73,,,
86483,note_on,22,0,10,,,,,,,,,14,,,,41,0
86483,control_change,2,0,9,,,,,,,,,13,11,69,,,
86484,control_change,17,0,5,,,,,,,,,5,11,73,,,
86485,note_on,2,0,2,,,,,,,,,1,,,,81,0
86485,control_change,2,0,10,,,,,,,,,14,11,69,,,
86485,note_on,0,0,2,,,,,,,,,1,,,,77,0
86486,note_on,8,0,8,,,,,,,,,12,,,,57,98
86489,note_on,7,0,4,,,,,,,,,4,,,,60,0
86490,control_change,17,0,3,,,,,,,,,3,11,73,,,
86491,note_on,8,0,9,,,,,,,,,13,,,,53,89
86491,note_on,7,0,5,,,,,,,,,5,,,,60,0
86492,note_on,0,0,3,,,,,,,,,3,,,,53,0
86492,note_on,2,0,3,,,,,,,,,3,,,,57,0
86493,note_on,8,0,10,,,,,,,,,14,,,,41,73
86493,note_on,10,0,1,,,,,,,,,0,,,,89,82
86494,note_on,5,0,4,,,,,,,,,4,,,,60,86
86495,note_on,10,0,2,,,,,,,,,1,,,,81,81
86495,note_on,0,0,2,,,,,,,,,1,,,,77,81
86496,note_on,5,0,5,,,,,,,,,5,,,,60,86
86496,control_change,16,0,6,,,,,,,,,10,11,71,,,
86497,control_change,4,0,1,,,,,,,,,0,11,74,,,
86498,control_change,4,0,4,,,,,,,,,4,11,74,,,
86499,control_change,4,0,2,,,,,,,,,1,11,74,,,
86499,control_change,16,0,7,,,,,,,,,11,11,71,,,
86500,control_change,4,0,5,,,,,,,,,5,11,74,,,
86502,control_change,16,0,8,,,,,,,,,12,11,71,,,
86502,note_on,0,0,3,,,,,,,,,3,,,,53,81
86502,note_on,10,0,3,,,,,,,,,3,,,,57,81
86506,control_change,4,0,3,,,,,,,,,3,11,74,,,
86507,control_change,16,0,9,,,,,,,,,13,11,71,,,
86509,control_change,16,0,10,,,,,,,,,14,11,71,,,
86510,note_on,14,0,6,,,,,,,,,10,,,,77,0
86513,note_on,14,0,7,,,,,,,,,11,,,,65,0
86513,note_on,16,0,1,,,,,,,,,0,,,,89,0
86514,control_change,1,0,1,,,,,,,,,0,11,75,,,
86515,note_on,16,0,2,,,,,,,,,1,,,,77,0
86515,note_on,0,0,2,,,,,,,,,1,,,,81,0
86515,control_change,17,0,4,,,,,,,,,4,11,75,,,
86516,note_on,14,0,8,,,,,,,,,12,,,,57,0
86516,control_change,1,0,2,,,,,,,,,1,11,75,,,
86517,control_change,17,0,5,,,,,,,,,5,11,75,,,
86519,note_on,4,0,4,,,,,,,,,4,,,,60,0
86520,set_tempo,80,1,0,,,,,,390879,,,,,,,,
86520,control_change,10,0,6,,,,,,,,,10,11,72,,,
86520,note_on,0,0,6,,,,,,,,,10,,,,76,100
86521,note_on,14,0,9,,,,,,,,,13,,,,53,0
86521,note_on,4,0,5,,,,,,,,,5,,,,60,0
86522,note_on,0,0,3,,,,,,,,,3,,,,57,0
86522,note_on,16,0,3,,,,,,,,,3,,,,53,0
86523,note_on,14,0,10,,,,,,,,,14,,,,41,0
86523,control_change,10,0,7,,,,,,,,,11,11,72,,,
86523,note_on,0,0,7,,,,,,,,,11,,,,64,100
86523,control_change,1,0,3,,,,,,,,,3,11,75,,,
86523,note_on,9,0,1,,,,,,,,,0,,,,88,82
86524,note_on,5,0,4,,,,,,,,,4,,,,60,86
86525,note_on,9,0,2,,,,,,,,,1,,,,79,81
86525,note_on,0,0,2,,,,,,,,,1,,,,76,81
86526,note_on,0,0,8,,,,,,,,,12,,,,58,98
86526,control_change,10,0,8,,,,,,,,,12,11,72,,,
86526,note_on,5,0,5,,,,,,,,,5,,,,60,86
86530,control_change,7,0,1,,,,,,,,,0,11,75,,,
86531,note_on,0,0,9,,,,,,,,,13,,,,48,89
86531,control_change,7,0,4,,,,,,,,,4,11,75,,,
86531,control_change,10,0,9,,,,,,,,,13,11,72,,,
86532,note_on,0,0,3,,,,,,,,,3,,,,58,81
86532,control_change,7,0,2,,,,,,,,,1,11,75,,,
86532,note_on,9,0,3,,,,,,,,,3,,,,48,81
86533,control_change,10,0,10,,,,,,,,,14,11,72,,,
86533,note_on,0,0,10,,,,,,,,,14,,,,36,73
86533,control_change,7,0,5,,,,,,,,,5,11,75,,,
86539,control_change,7,0,3,,,,,,,,,3,11,75,,,
86544,control_change,24,0,6,,,,,,,,,10,11,73,,,
86547,control_change,17,0,1,,,,,,,,,0,11,76,,,
86547,control_change,24,0,7,,,,,,,,,11,11,73,,,
86548,control_change,17,0,4,,,,,,,,,4,11,76,,,
86549,control_change,17,0,2,,,,,,,,,1,11,76,,,
86550,control_change,17,0,5,,,,,,,,,5,11,76,,,
86550,control_change,24,0,8,,,,,,,,,12,11,73,,,
86550,note_on,6,0,6,,,,,,,,,10,,,,76,0
86553,note_on,6,0,7,,,,,,,,,11,,,,64,0
86555,control_change,24,0,9,,,,,,,,,13,11,73,,,
86556,note_on,6,0,8,,,,,,,,,12,,,,58,0
86556,control_change,17,0,3,,,,,,,,,3,11,76,,,
86557,control_change,24,0,10,,,,,,,,,14,11,73,,,
86560,note_on,10,0,6,,,,,,,,,10,,,,79,100
86560,set_tempo,40,1,0,,,,,,373832,,,,,,,,
86561,note_on,6,0,9,,,,,,,,,13,,,,48,0
86563,note_on,6,0,10,,,,,,,,,14,,,,36,0
86563,note_on,10,0,7,,,,,,,,,11,,,,67,100
86563,control_change,16,0,1,,,,,,,,,0,11,77,,,
86564,control_change,16,0,4,,,,,,,,,4,11,77,,,
86565,control_change,16,0,2,,,,,,,,,1,11,77,,,
86566,note_on,10,0,8,,,,,,,,,12,,,,58,98
86566,control_change,16,0,5,,,,,,,,,5,11,77,,,
86568,control_change,8,0,6,,,,,,,,,10,11,75,,,
86571,control_change,8,0,7,,,,,,,,,11,11,75,,,
86571,note_on,10,0,9,,,,,,,,,13,,,,48,89
86572,control_change,16,0,3,,,,,,,,,3,11,77,,,
86573,note_on,10,0,10,,,,,,,,,14,,,,36,73
86574,control_change,8,0,8,,,,,,,,,12,11,75,,,
86579,control_change,8,0,9,,,,,,,,,13,11,75,,,
86580,control_change,17,0,1,,,,,,,,,0,11,77,,,
86581,control_change,8,0,10,,,,,,,,,14,11,75,,,
86581,control_change,17,0,4,,,,,,,,,4,11,77,,,
86582,control_change,17,0,2,,,,,,,,,1,11,77,,,
86583,control_change,17,0,5,,,,,,,,,5,11,77,,,
86589,control_change,17,0,3,,,,,,,,,3,11,77,,,
86590,note_on,22,0,6,,,,,,,,,10,,,,79,0
86592,control_change,2,0,6,,,,,,,,,10,11,76,,,
86593,note_on,22,0,7,,,,,,,,,11,,,,67,0
86595,control_change,2,0,7,,,,,,,,,11,11,76,,,
86596,control_change,16,0,1,,,,,,,,,0,11,78,,,
86596,note_on,22,0,8,,,,,,,,,12,,,,58,0
86597,control_change,16,0,4,,,,,,,,,4,11,78,,,
86598,control_change,2,0,8,,,,,,,,,12,11,76,,,
86598,control_change,16,0,2,,,,,,,,,1,11,78,,,
86599,control_change,16,0,5,,,,,,,,,5,11,78,,,
86600,note_on,8,0,6,,,,,,,,,10,,,,76,100
86601,note_on,22,0,9,,,,,,,,,13,,,,48,0
86603,note_on,22,0,10,,,,,,,,,14,,,,36,0
86603,control_change,2,0,9,,,,,,,,,13,11,76,,,
86603,note_on,8,0,7,,,,,,,,,11,,,,64,100
86603,note_on,7,0,1,,,,,,,,,0,,,,88,0
86605,note_on,0,0,2,,,,,,,,,1,,,,79,0
86605,control_change,16,0,3,,,,,,,,,3,11,78,,,
86605,note_on,7,0,2,,,,,,,,,1,,,,76,0
86605,control_change,2,0,10,,,,,,,,,14,11,76,,,
86606,note_on,8,0,8,,,,,,,,,12,,,,58,98
86609,note_on,12,0,4,,,,,,,,,4,,,,60,0
86611,note_on,12,0,5,,,,,,,,,5,,,,60,0
86611,note_on,8,0,9,,,,,,,,,13,,,,48,89
86612,note_on,7,0,3,,,,,,,,,3,,,,58,0
86612,note_on,0,0,3,,,,,,,,,3,,,,48,0
86613,note_on,0,0,1,,,,,,,,,0,,,,88,82
86613,note_on,8,0,10,,,,,,,,,14,,,,36,73
86613,control_change,10,0,1,,,,,,,,,0,11,79,,,
86614,control_change,5,0,4,,,,,,,,,4,11,79,,,
86614,note_on,0,0,4,,,,,,,,,4,,,,60,86
86615,control_change,10,0,2,,,,,,,,,1,11,79,,,
86615,note_on,0,0,2,,,,,,,,,1,,,,79,81
86615,note_on,0,0,2,,,,,,,,,1,,,,76,81
86616,control_change,16,0,6,,,,,,,,,10,11,77,,,
86616,control_change,5,0,5,,,,,,,,,5,11,79,,,
86616,note_on,0,0,5,,,,,,,,,5,,,,60,86
86619,control_change,16,0,7,,,,,,,,,11,11,77,,,
86622,control_change,16,0,8,,,,,,,,,12,11,77,,,
86622,note_on,0,0,3,,,,,,,,,3,,,,58,81
86622,note_on,0,0,3,,,,,,,,,3,,,,48,81
86622,control_change,10,0,3,,,,,,,,,3,11,79,,,
86627,control_change,16,0,9,,,,,,,,,13,11,77,,,
86629,control_change,16,0,10,,,,,,,,,14,11,77,,,
86630,note_on,14,0,6,,,,,,,,,10,,,,76,0
86633,note_on,20,0,1,,,,,,,,,0,,,,88,0
86633,note_on,14,0,7,,,,,,,,,11,,,,64,0
86635,note_on,20,0,2,,,,,,,,,1,,,,79,0
86635,note_on,0,0,2,,,,,,,,,1,,,,76,0
86636,note_on,14,0,8,,,,,,,,,12,,,,58,0
86639,note_on,25,0,4,,,,,,,,,4,,,,60,0
86640,set_tempo,80,1,0,,,,,,355030,,,,,,,,
86640,note_on,0,0,6,,,,,,,,,10,,,,77,100
86640,control_change,10,0,6,,,,,,,,,10,11,79,,,
86641,note_on,25,0,5,,,,,,,,,5,,,,60,0
86641,note_on,14,0,9,,,,,,,,,13,,,,48,0
86642,note_on,20,0,3,,,,,,,,,3,,,,58,0
86642,note_on,0,0,3,,,,,,,,,3,,,,48,0
86643,note_on,0,0,7,,,,,,,,,11,,,,65,100
86643,control_change,10,0,7,,,,,,,,,11,11,79,,,
86643,note_on,10,0,1,,,,,,,,,0,,,,89,82
86643,note_on,14,0,10,,,,,,,,,14,,,,36,0
86644,note_on,5,0,4,,,,,,,,,4,,,,60,86
86645,note_on,10,0,2,,,,,,,,,1,,,,77,81
86645,note_on,0,0,2,,,,,,,,,1,,,,81,81
86646,note_on,5,0,5,,,,,,,,,5,,,,60,86
86646,control_change,10,0,8,,,,,,,,,12,11,79,,,
86646,note_on,0,0,8,,,,,,,,,12,,,,57,98
86651,note_on,0,0,9,,,,,,,,,13,,,,53,89
86651,control_change,10,0,9,,,,,,,,,13,11,79,,,
86652,note_on,0,0,3,,,,,,,,,3,,,,53,81
86652,note_on,10,0,3,,,,,,,,,3,,,,57,81
86653,note_on,0,0,10,,,,,,,,,14,,,,41,73
86653,control_change,10,0,10,,,,,,,,,14,11,79,,,
86760,note_on,120,0,6,,,,,,,,,10,,,,77,0
86760,set_tempo,120,1,0,,,,,,406780,,,,,,,,
86763,note_on,120,0,7,,,,,,,,,11,,,,65,0
86763,note_on,120,0,1,,,,,,,,,0,,,,89,0
86764,note_on,120,0,4,,,,,,,,,4,,,,60,0
86765,note_on,0,0,2,,,,,,,,,1,,,,77,0
86765,note_on,120,0,2,,,,,,,,,1,,,,81,0
86766,note_on,120,0,5,,,,,,,,,5,,,,60,0
86766,note_on,120,0,8,,,,,,,,,12,,,,57,0
86771,note_on,120,0,9,,,,,,,,,13,,,,53,0
86772,note_on,0,0,3,,,,,,,,,3,,,,57,0
86772,note_on,120,0,3,,,,,,,,,3,,,,53,0
86773,note_on,120,0,10,,,,,,,,,14,,,,41,0
86880,set_tempo,120,1,0,,,,,,369231,,,,,,,,
86880,note_on,0,0,6,,,,,,,,,10,,,,81,100
86880,note_on,0,0,6,,,,,,,,,10,,,,72,100
86880,note_on,120,0,6,,,,,,,,,10,,,,65,100
86883,note_on,120,0,7,,,,,,,,,11,,,,65,100
86883,note_on,120,0,1,,,,,,,,,0,,,,93,82
86883,note_on,0,0,7,,,,,,,,,11,,,,72,100
86883,note_on,0,0,7,,,,,,,,,11,,,,81,100
86884,note_on,120,0,4,,,,,,,,,4,,,,60,86
86885,note_on,0,0,2,,,,,,,,,1,,,,72,81
86885,note_on,120,0,2,,,,,,,,,1,,,,81,81
86886,note_on,0,0,8,,,,,,,,,12,,,,65,98
86886,note_on,0,0,8,,,,,,,,,12,,,,53,98
86886,note_on,120,0,5,,,,,,,,,5,,,,53,86
86886,note_on,120,0,8,,,,,,,,,12,,,,60,98
86891,note_on,120,0,9,,,,,,,,,13,,,,53,89
86892,note_on,120,0,3,,,,,,,,,3,,,,53,81
86893,note_on,120,0,10,,,,,,,,,14,,,,41,73
87000,note_on,120,0,6,,,,,,,,,10,,,,72,0
87000,set_tempo,120,1,0,,,,,,428571,,,,,,,,
87000,note_on,0,0,6,,,,,,,,,10,,,,81,0
87000,note_on,0,0,6,,,,,,,,,10,,,,65,0
87003,note_on,120,0,7,,,,,,,,,11,,,,81,0
87003,note_on,120,0,1,,,,,,,,,0,,,,93,0
87003,note_on,0,0,7,,,,,,,,,11,,,,72,0
87003,note_on,0,0,7,,,,,,,,,11,,,,65,0
87004,note_on,120,0,4,,,,,,,,,4,,,,60,0
87005,note_on,120,0,2,,,,,,,,,1,,,,72,0
87005,note_on,0,0,2,,,,,,,,,1,,,,81,0
87006,note_on,0,0,8,,,,,,,,,12,,,,65,0
87006,note_on,0,0,8,,,,,,,,,12,,,,60,0
87006,note_on,120,0,5,,,,,,,,,5,,,,53,0
87006,note_on,120,0,8,,,,,,,,,12,,,,53,0
87011,note_on,120,0,9,,,,,,,,,13,,,,53,0
87012,note_on,120,0,3,,,,,,,,,3,,,,53,0
87013,note_on,120,0,10,,,,,,,,,14,,,,41,0
87120,set_tempo,120,1,0,,,,,,495868,,,,,,,,
87120,note_on,120,0,6,,,,,,,,,10,,,,65,100
87120,note_on,0,0,6,,,,,,,,,10,,,,57,100
87123,note_on,120,0,1,,,,,,,,,0,,,,89,82
87123,note_on,120,0,7,,,,,,,,,11,,,,57,100
87123,note_on,0,0,7,,,,,,,,,11,,,,65,100
87124,note_on,120,0,4,,,,,,,,,4,,,,60,86
87125,note_on,0,0,2,,,,,,,,,1,,,,69,81
87125,note_on,120,0,2,,,,,,,,,1,,,,77,81
87126,note_on,120,0,5,,,,,,,,,5,,,,53,86
87126,note_on,120,0,8,,,,,,,,,12,,,,53,98
87131,note_on,120,0,9,,,,,,,,,13,,,,41,89
87132,note_on,120,0,3,,,,,,,,,3,,,,41,81
87133,note_on,120,0,10,,,,,,,,,14,,,,29,73
87240,note_on,0,0,6,,,,,,,,,10,,,,65,0
87240,set_tempo,120,1,0,,,,,,384615,,,,,,,,
87240,note_on,120,0,6,,,,,,,,,10,,,,57,0
87243,note_on,120,0,1,,,,,,,,,0,,,,89,0
87243,note_on,120,0,7,,,,,,,,,11,,,,65,0
87243,note_on,0,0,7,,,,,,,,,11,,,,57,0
87244,note_on,120,0,4,,,,,,,,,4,,,,60,0
87245,note_on,120,0,2,,,,,,,,,1,,,,69,0
87245,note_on,0,0,2,,,,,,,,,1,,,,77,0
87246,note_on,120,0,8,,,,,,,,,12,,,,53,0
87246,note_on,120,0,5,,,,,,,,,5,,,,53,0
87251,note_on,120,0,9,,,,,,,,,13,,,,41,0
87252,note_on,120,0,3,,,,,,,,,3,,,,41,0
87253,note_on,120,0,10,,,,,,,,,14,,,,29,0
87540,set_tempo,300,1,0,,,,,,400000,,,,,,,,
87546,note_on,0,0,8,,,,,,,,,12,,,,53,71
87546,control_change,300,0,8,,,,,,,,,12,11,37,,,
87551,control_change,300,0,9,,,,,,,,,13,11,37,,,
87551,note_on,0,0,9,,,,,,,,,13,,,,53,62
87553,control_change,300,0,10,,,,,,,,,14,11,37,,,
87553,note_on,0,0,10,,,,,,,,,14,,,,41,48
87564,control_change,18,0,8,,,,,,,,,12,11,40,,,
87569,control_change,18,0,9,,,,,,,,,13,11,40,,,
87571,control_change,18,0,10,,,,,,,,,14,11,40,,,
87582,control_change,18,0,8,,,,,,,,,12,11,43,,,
87587,control_change,18,0,9,,,,,,,,,13,11,43,,,
87589,control_change,18,0,10,,,,,,,,,14,11,43,,,
87596,note_on,14,0,8,,,,,,,,,12,,,,53,0
87600,set_tempo,60,1,0,,,,,,382166,,,,,,,,
87600,note_on,0,0,6,,,,,,,,,10,,,,65,100
87600,control_change,360,0,6,,,,,,,,,10,11,37,,,
87600,control_change,4,0,8,,,,,,,,,12,11,46,,,
87601,note_on,14,0,9,,,,,,,,,13,,,,53,0
87603,note_on,14,0,10,,,,,,,,,14,,,,41,0
87603,note_on,0,0,7,,,,,,,,,11,,,,62,100
87603,control_change,360,0,7,,,,,,,,,11,11,37,,,
87605,control_change,4,0,9,,,,,,,,,13,11,46,,,
87606,note_on,6,0,8,,,,,,,,,12,,,,53,113
87607,control_change,4,0,10,,,,,,,,,14,11,46,,,
87611,note_on,6,0,9,,,,,,,,,13,,,,53,104
87613,note_on,6,0,10,,,,,,,,,14,,,,41,73
87617,control_change,17,0,6,,,,,,,,,10,11,40,,,
87620,control_change,17,0,7,,,,,,,,,11,11,40,,,
87620,note_on,3,0,6,,,,,,,,,10,,,,65,0
87623,note_on,3,0,7,,,,,,,,,11,,,,62,0
87630,note_on,10,0,6,,,,,,,,,10,,,,65,92
87633,note_on,10,0,7,,,,,,,,,11,,,,62,92
87635,control_change,5,0,6,,,,,,,,,10,11,43,,,
87638,control_change,5,0,7,,,,,,,,,11,11,43,,,
87650,note_on,15,0,6,,,,,,,,,10,,,,65,0
87653,control_change,3,0,6,,,,,,,,,10,11,46,,,
87653,note_on,15,0,7,,,,,,,,,11,,,,62,0
87656,control_change,3,0,7,,,,,,,,,11,11,46,,,
87660,note_on,7,0,6,,,,,,,,,10,,,,65,100
87663,note_on,7,0,7,,,,,,,,,11,,,,62,100
87666,note_on,60,0,8,,,,,,,,,12,,,,53,0
87666,note_on,0,0,8,,,,,,,,,12,,,,55,98
87671,note_on,60,0,9,,,,,,,,,13,,,,53,0
87671,note_on,0,0,9,,,,,,,,,13,,,,55,89
87673,note_on,0,0,10,,,,,,,,,14,,,,43,73
87673,note_on,60,0,10,,,,,,,,,14,,,,41,0
87680,note_on,20,0,6,,,,,,,,,10,,,,65,0
87683,note_on,20,0,7,,,,,,,,,11,,,,62,0
87690,note_on,10,0,6,,,,,,,,,10,,,,65,92
87693,note_on,10,0,7,,,,,,,,,11,,,,62,92
87710,note_on,20,0,6,,,,,,,,,10,,,,65,0
87713,note_on,20,0,7,,,,,,,,,11,,,,62,0
87720,note_on,10,0,6,,,,,,,,,10,,,,65,100
87720,set_tempo,120,1,0,,,,,,356083,,,,,,,,
87723,note_on,10,0,7,,,,,,,,,11,,,,62,100
87726,note_on,0,0,8,,,,,,,,,12,,,,57,98
87726,note_on,60,0,8,,,,,,,,,12,,,,55,0
87731,note_on,0,0,9,,,,,,,,,13,,,,57,89
87731,note_on,60,0,9,,,,,,,,,13,,,,55,0
87733,note_on,60,0,10,,,,,,,,,14,,,,43,0
87733,note_on,0,0,10,,,,,,,,,14,,,,45,73
87740,note_on,20,0,6,,,,,,,,,10,,,,65,0
87743,note_on,20,0,7,,,,,,,,,11,,,,62,0
87750,note_on,10,0,6,,,,,,,,,10,,,,65,92
87753,note_on,10,0,7,,,,,,,,,11,,,,62,92
87770,note_on,20,0,6,,,,,,,,,10,,,,65,0
87773,note_on,20,0,7,,,,,,,,,11,,,,62,0
87780,note_on,10,0,6,,,,,,,,,10,,,,65,100
87783,note_on,10,0,7,,,,,,,,,11,,,,62,100
87785,control_change,540,0,2,,,,,,,,,1,11,52,,,
87785,note_on,0,0,2,,,,,,,,,1,,,,70,81
87786,note_on,60,0,8,,,,,,,,,12,,,,57,0
87786,note_on,0,0,8,,,,,,,,,12,,,,58,98
87791,note_on,0,0,9,,,,,,,,,13,,,,58,89
87791,note_on,60,0,9,,,,,,,,,13,,,,57,0
87793,note_on,60,0,10,,,,,,,,,14,,,,45,0
87793,note_on,0,0,10,,,,,,,,,14,,,,46,73
87800,note_on,20,0,6,,,,,,,,,10,,,,65,0
87803,note_on,20,0,7,,,,,,,,,11,,,,62,0
87810,note_on,10,0,6,,,,,,,,,10,,,,65,92
87813,note_on,10,0,7,,,,,,,,,11,,,,62,92
87830,note_on,20,0,6,,,,,,,,,10,,,,65,0
87833,note_on,20,0,7,,,,,,,,,11,,,,62,0
87836,note_on,50,0,8,,,,,,,,,12,,,,58,0
87840,note_on,10,0,6,,,,,,,,,10,,,,65,100
87840,set_tempo,120,1,0,,,,,,382166,,,,,,,,
87840,note_on,55,0,2,,,,,,,,,1,,,,70,0
87841,note_on,50,0,9,,,,,,,,,13,,,,58,0
87843,note_on,10,0,7,,,,,,,,,11,,,,63,100
87843,note_on,50,0,10,,,,,,,,,14,,,,46,0
87845,note_on,5,0,2,,,,,,,,,1,,,,72,94
87846,note_on,10,0,8,,,,,,,,,12,,,,58,98
87851,note_on,10,0,9,,,,,,,,,13,,,,58,89
87853,note_on,10,0,10,,,,,,,,,14,,,,46,73
87860,note_on,20,0,6,,,,,,,,,10,,,,65,0
87863,note_on,20,0,7,,,,,,,,,11,,,,63,0
87870,note_on,10,0,6,,,,,,,,,10,,,,65,92
87873,note_on,10,0,7,,,,,,,,,11,,,,63,92
87890,note_on,20,0,6,,,,,,,,,10,,,,65,0
87893,note_on,20,0,7,,,,,,,,,11,,,,63,0
87900,note_on,10,0,6,,,,,,,,,10,,,,65,100
87903,note_on,10,0,7,,,,,,,,,11,,,,63,100
87905,note_on,60,0,2,,,,,,,,,1,,,,72,0
87905,note_on,0,0,2,,,,,,,,,1,,,,74,81
87920,note_on,20,0,6,,,,,,,,,10,,,,65,0
87923,note_on,20,0,7,,,,,,,,,11,,,,63,0
87930,note_on,10,0,6,,,,,,,,,10,,,,65,92
87933,note_on,10,0,7,,,,,,,,,11,,,,63,92
87950,note_on,20,0,6,,,,,,,,,10,,,,65,0
87953,note_on,20,0,7,,,,,,,,,11,,,,63,0
87960,note_on,10,0,6,,,,,,,,,10,,,,65,100
87960,set_tempo,120,1,0,,,,,,356083,,,,,,,,
87963,note_on,10,0,7,,,,,,,,,11,,,,63,100
87965,note_on,60,0,2,,,,,,,,,1,,,,74,0
87965,note_on,0,0,2,,,,,,,,,1,,,,75,81
87966,note_on,0,0,8,,,,,,,,,12,,,,57,98
87966,note_on,120,0,8,,,,,,,,,12,,,,58,0
87971,note_on,120,0,9,,,,,,,,,13,,,,58,0
87971,note_on,0,0,9,,,,,,,,,13,,,,57,89
87973,note_on,120,0,10,,,,,,,,,14,,,,46,0
87973,note_on,0,0,10,,,,,,,,,14,,,,45,73
87980,note_on,20,0,6,,,,,,,,,10,,,,65,0
87983,note_on,20,0,7,,,,,,,,,11,,,,63,0
87990,note_on,10,0,6,,,,,,,,,10,,,,65,92
87993,note_on,10,0,7,,,,,,,,,11,,,,63,92
88010,note_on,20,0,6,,,,,,,,,10,,,,65,0
88013,note_on,20,0,7,,,,,,,,,11,,,,63,0
88016,note_on,50,0,8,,,,,,,,,12,,,,57,0
88020,note_on,10,0,6,,,,,,,,,10,,,,65,100
88021,note_on,50,0,9,,,,,,,,,13,,,,57,0
88023,note_on,50,0,10,,,,,,,,,14,,,,45,0
88023,note_on,10,0,7,,,,,,,,,11,,,,63,100
88025,note_on,0,0,2,,,,,,,,,1,,,,77,81
88025,note_on,60,0,2,,,,,,,,,1,,,,75,0
88026,note_on,10,0,8,,,,,,,,,12,,,,53,98
88031,note_on,10,0,9,,,,,,,,,13,,,,53,89
88033,note_on,10,0,10,,,,,,,,,14,,,,41,73
88040,note_on,20,0,6,,,,,,,,,10,,,,65,0
88043,note_on,20,0,7,,,,,,,,,11,,,,63,0
88050,note_on,10,0,6,,,,,,,,,10,,,,65,92
88053,note_on,10,0,7,,,,,,,,,11,,,,63,92
88070,note_on,20,0,6,,,,,,,,,10,,,,65,0
88073,note_on,20,0,7,,,,,,,,,11,,,,63,0
88076,note_on,50,0,8,,,,,,,,,12,,,,53,0
88080,note_on,55,0,2,,,,,,,,,1,,,,77,0
88080,set_tempo,120,1,0,,,,,,382166,,,,,,,,
88080,note_on,10,0,6,,,,,,,,,10,,,,65,100
88081,note_on,50,0,9,,,,,,,,,13,,,,53,0
88083,note_on,10,0,7,,,,,,,,,11,,,,62,100
88083,note_on,50,0,10,,,,,,,,,14,,,,41,0
88085,note_on,5,0,2,,,,,,,,,1,,,,77,81
88086,note_on,10,0,8,,,,,,,,,12,,,,53,122
88091,note_on,10,0,9,,,,,,,,,13,,,,53,113
88093,note_on,10,0,10,,,,,,,,,14,,,,41,80
88100,note_on,20,0,6,,,,,,,,,10,,,,65,0
88103,note_on,20,0,7,,,,,,,,,11,,,,62,0
88110,note_on,10,0,6,,,,,,,,,10,,,,65,92
88113,note_on,10,0,7,,,,,,,,,11,,,,62,92
88130,note_on,20,0,6,,,,,,,,,10,,,,65,0
88133,note_on,20,0,7,,,,,,,,,11,,,,62,0
88140,note_on,10,0,6,,,,,,,,,10,,,,65,100
88143,note_on,10,0,7,,,,,,,,,11,,,,62,100
88146,note_on,0,0,8,,,,,,,,,12,,,,55,98
88146,note_on,60,0,8,,,,,,,,,12,,,,53,0
88151,note_on,60,0,9,,,,,,,,,13,,,,53,0
88151,note_on,0,0,9,,,,,,,,,13,,,,55,89
88153,note_on,0,0,10,,,,,,,,,14,,,,43,73
88153,note_on,60,0,10,,,,,,,,,14,,,,41,0
88160,note_on,20,0,6,,,,,,,,,10,,,,65,0
88163,note_on,20,0,7,,,,,,,,,11,,,,62,0
88170,note_on,10,0,6,,,,,,,,,10,,,,65,92
88173,note_on,10,0,7,,,,,,,,,11,,,,62,92
88190,note_on,20,0,6,,,,,,,,,10,,,,65,0
88193,note_on,20,0,7,,,,,,,,,11,,,,62,0
88200,set_tempo,120,1,0,,,,,,356083,,,,,,,,
88200,note_on,10,0,6,,,,,,,,,10,,,,65,100
88203,note_on,10,0,7,,,,,,,,,11,,,,62,100
88205,note_on,0,0,2,,,,,,,,,1,,,,74,81
88205,note_on,120,0,2,,,,,,,,,1,,,,77,0
88206,note_on,60,0,8,,,,,,,,,12,,,,55,0
88206,note_on,0,0,8,,,,,,,,,12,,,,57,98
88211,note_on,0,0,9,,,,,,,,,13,,,,57,89
88211,note_on,60,0,9,,,,,,,,,13,,,,55,0
88213,note_on,60,0,10,,,,,,,,,14,,,,43,0
88213,note_on,0,0,10,,,,,,,,,14,,,,45,73
88220,note_on,20,0,6,,,,,,,,,10,,,,65,0
88223,note_on,20,0,7,,,,,,,,,11,,,,62,0
88230,note_on,10,0,6,,,,,,,,,10,,,,65,92
88233,note_on,10,0,7,,,,,,,,,11,,,,62,92
88250,note_on,20,0,6,,,,,,,,,10,,,,65,0
88253,note_on,20,0,7,,,,,,,,,11,,,,62,0
88260,note_on,10,0,6,,,,,,,,,10,,,,65,100
88260,note_on,55,0,2,,,,,,,,,1,,,,74,0
88263,note_on,10,0,7,,,,,,,,,11,,,,62,100
88265,note_on,5,0,2,,,,,,,,,1,,,,70,81
88266,note_on,60,0,8,,,,,,,,,12,,,,57,0
88266,note_on,0,0,8,,,,,,,,,12,,,,58,98
88271,note_on,60,0,9,,,,,,,,,13,,,,57,0
88271,note_on,0,0,9,,,,,,,,,13,,,,58,89
88273,note_on,0,0,10,,,,,,,,,14,,,,46,73
88273,note_on,60,0,10,,,,,,,,,14,,,,45,0
88280,note_on,20,0,6,,,,,,,,,10,,,,65,0
88283,note_on,20,0,7,,,,,,,,,11,,,,62,0
88290,note_on,10,0,6,,,,,,,,,10,,,,65,92
88293,note_on,10,0,7,,,,,,,,,11,,,,62,92
88310,note_on,20,0,6,,,,,,,,,10,,,,65,0
88313,note_on,20,0,7,,,,,,,,,11,,,,62,0
88316,note_on,50,0,8,,,,,,,,,12,,,,58,0
88320,note_on,10,0,6,,,,,,,,,10,,,,65,100
88320,note_on,55,0,2,,,,,,,,,1,,,,70,0
88320,set_tempo,120,1,0,,,,,,382166,,,,,,,,
88321,note_on,50,0,9,,,,,,,,,13,,,,58,0
88323,note_on,10,0,7,,,,,,,,,11,,,,63,100
88323,note_on,50,0,10,,,,,,,,,14,,,,46,0
88325,note_on,5,0,2,,,,,,,,,1,,,,72,94
88326,note_on,10,0,8,,,,,,,,,12,,,,58,98
88331,note_on,10,0,9,,,,,,,,,13,,,,58,89
88333,note_on,10,0,10,,,,,,,,,14,,,,46,73
88340,note_on,20,0,6,,,,,,,,,10,,,,65,0
88343,note_on,20,0,7,,,,,,,,,11,,,,63,0
88350,note_on,10,0,6,,,,,,,,,10,,,,65,92
88353,note_on,10,0,7,,,,,,,,,11,,,,63,92
88370,note_on,20,0,6,,,,,,,,,10,,,,65,0
88373,note_on,20,0,7,,,,,,,,,11,,,,63,0
88380,note_on,10,0,6,,,,,,,,,10,,,,65,100
88383,note_on,10,0,7,,,,,,,,,11,,,,63,100
88385,note_on,60,0,2,,,,,,,,,1,,,,72,0
88385,note_on,0,0,2,,,,,,,,,1,,,,74,81
88400,note_on,20,0,6,,,,,,,,,10,,,,65,0
88403,note_on,20,0,7,,,,,,,,,11,,,,63,0
88410,note_on,10,0,6,,,,,,,,,10,,,,65,92
88413,note_on,10,0,7,,,,,,,,,11,,,,63,92
88430,note_on,20,0,6,,,,,,,,,10,,,,65,0
88433,note_on,20,0,7,,,,,,,,,11,,,,63,0
88440,note_on,10,0,6,,,,,,,,,10,,,,65,100
88440,set_tempo,120,1,0,,,,,,356083,,,,,,,,
88443,note_on,10,0,7,,,,,,,,,11,,,,63,100
88445,note_on,60,0,2,,,,,,,,,1,,,,74,0
88445,note_on,0,0,2,,,,,,,,,1,,,,75,81
88446,note_on,0,0,8,,,,,,,,,12,,,,57,98
88446,note_on,120,0,8,,,,,,,,,12,,,,58,0
88451,note_on,0,0,9,,,,,,,,,13,,,,57,89
88451,note_on,120,0,9,,,,,,,,,13,,,,58,0
88453,note_on,120,0,10,,,,,,,,,14,,,,46,0
88453,note_on,0,0,10,,,,,,,,,14,,,,45,73
88460,note_on,20,0,6,,,,,,,,,10,,,,65,0
88463,note_on,20,0,7,,,,,,,,,11,,,,63,0
88470,note_on,10,0,6,,,,,,,,,10,,,,65,92
88473,note_on,10,0,7,,,,,,,,,11,,,,63,92
88490,note_on,20,0,6,,,,,,,,,10,,,,65,0
88493,note_on,20,0,7,,,,,,,,,11,,,,63,0
88500,note_on,10,0,6,,,,,,,,,10,,,,65,100
88503,note_on,10,0,7,,,,,,,,,11,,,,63,100
88505,note_on,0,0,2,,,,,,,,,1,,,,77,81
88505,note_on,60,0,2,,,,,,,,,1,,,,75,0
88506,note_on,60,0,8,,,,,,,,,12,,,,57,0
88511,note_on,60,0,9,,,,,,,,,13,,,,57,0
88513,note_on,60,0,10,,,,,,,,,14,,,,45,0
88520,note_on,20,0,6,,,,,,,,,10,,,,65,0
88523,note_on,20,0,7,,,,,,,,,11,,,,63,0
88530,note_on,10,0,6,,,,,,,,,10,,,,65,92
88533,note_on,10,0,7,,,,,,,,,11,,,,63,92
88550,note_on,20,0,6,,,,,,,,,10,,,,65,0
88553,note_on,20,0,7,,,,,,,,,11,,,,63,0
88560,note_on,10,0,6,,,,,,,,,10,,,,65,100
88560,note_on,55,0,2,,,,,,,,,1,,,,77,0
88560,set_tempo,120,1,0,,,,,,382166,,,,,,,,
88563,note_on,10,0,7,,,,,,,,,11,,,,62,100
88565,note_on,5,0,2,,,,,,,,,1,,,,77,81
88566,note_on,60,0,8,,,,,,,,,12,,,,58,98
88571,note_on,60,0,9,,,,,,,,,13,,,,58,89
88573,note_on,60,0,10,,,,,,,,,14,,,,46,73
88580,note_on,20,0,6,,,,,,,,,10,,,,65,0
88583,note_on,20,0,7,,,,,,,,,11,,,,62,0
88590,note_on,10,0,6,,,,,,,,,10,,,,65,92
88593,note_on,10,0,7,,,,,,,,,11,,,,62,92
88610,note_on,20,0,6,,,,,,,,,10,,,,65,0
88613,note_on,20,0,7,,,,,,,,,11,,,,62,0
88620,note_on,10,0,6,,,,,,,,,10,,,,65,100
88623,note_on,10,0,7,,,,,,,,,11,,,,62,100
88640,note_on,20,0,6,,,,,,,,,10,,,,65,0
88643,note_on,20,0,7,,,,,,,,,11,,,,62,0
88650,note_on,10,0,6,,,,,,,,,10,,,,65,92
88653,note_on,10,0,7,,,,,,,,,11,,,,62,92
88670,note_on,20,0,6,,,,,,,,,10,,,,65,0
88673,note_on,20,0,7,,,,,,,,,11,,,,62,0
88680,note_on,10,0,6,,,,,,,,,10,,,,66,100
88680,set_tempo,120,1,0,,,,,,356083,,,,,,,,
88683,note_on,10,0,7,,,,,,,,,11,,,,60,100
88685,note_on,120,0,2,,,,,,,,,1,,,,77,0
88685,note_on,0,0,2,,,,,,,,,1,,,,74,81
88686,note_on,120,0,8,,,,,,,,,12,,,,58,0
88686,note_on,0,0,8,,,,,,,,,12,,,,56,98
88691,note_on,120,0,9,,,,,,,,,13,,,,58,0
88691,note_on,0,0,9,,,,,,,,,13,,,,56,89
88693,note_on,0,0,10,,,,,,,,,14,,,,44,73
88693,note_on,120,0,10,,,,,,,,,14,,,,46,0
88700,note_on,20,0,6,,,,,,,,,10,,,,66,0
88703,note_on,20,0,7,,,,,,,,,11,,,,60,0
88710,note_on,10,0,6,,,,,,,,,10,,,,66,92
88713,note_on,10,0,7,,,,,,,,,11,,,,60,92
88730,note_on,20,0,6,,,,,,,,,10,,,,66,0
88733,note_on,20,0,7,,,,,,,,,11,,,,60,0
88740,note_on,10,0,6,,,,,,,,,10,,,,66,100
88743,note_on,10,0,7,,,,,,,,,11,,,,60,100
88760,note_on,20,0,6,,,,,,,,,10,,,,66,0
88763,note_on,20,0,7,,,,,,,,,11,,,,60,0
88770,note_on,10,0,6,,,,,,,,,10,,,,66,92
88773,note_on,10,0,7,,,,,,,,,11,,,,60,92
88790,note_on,20,0,6,,,,,,,,,10,,,,66,0
88793,note_on,20,0,7,,,,,,,,,11,,,,60,0
88800,note_on,10,0,6,,,,,,,,,10,,,,67,100
88800,set_tempo,120,1,0,,,,,,382166,,,,,,,,
88803,note_on,10,0,7,,,,,,,,,11,,,,59,100
88806,note_on,120,0,8,,,,,,,,,12,,,,56,0
88806,note_on,0,0,8,,,,,,,,,12,,,,55,98
88811,note_on,120,0,9,,,,,,,,,13,,,,56,0
88811,note_on,0,0,9,,,,,,,,,13,,,,55,89
88813,note_on,0,0,10,,,,,,,,,14,,,,43,73
88813,note_on,120,0,10,,,,,,,,,14,,,,44,0
88820,note_on,20,0,6,,,,,,,,,10,,,,67,0
88823,note_on,20,0,7,,,,,,,,,11,,,,59,0
88830,note_on,10,0,6,,,,,,,,,10,,,,67,92
88833,note_on,10,0,7,,,,,,,,,11,,,,59,92
88850,note_on,20,0,6,,,,,,,,,10,,,,67,0
88853,note_on,20,0,7,,,,,,,,,11,,,,59,0
88860,note_on,10,0,6,,,,,,,,,10,,,,67,100
88863,note_on,10,0,7,,,,,,,,,11,,,,62,100
88865,note_on,180,0,2,,,,,,,,,1,,,,74,0
88865,note_on,0,0,2,,,,,,,,,1,,,,77,81
88880,note_on,20,0,6,,,,,,,,,10,,,,67,0
88883,note_on,20,0,7,,,,,,,,,11,,,,62,0
88890,note_on,10,0,6,,,,,,,,,10,,,,67,92
88893,note_on,10,0,7,,,,,,,,,11,,,,62,92
88910,note_on,20,0,6,,,,,,,,,10,,,,67,0
88913,note_on,20,0,7,,,,,,,,,11,,,,62,0
88920,set_tempo,120,1,0,,,,,,356083,,,,,,,,
88920,note_on,10,0,6,,,,,,,,,10,,,,67,100
88923,note_on,10,0,7,,,,,,,,,11,,,,63,100
88925,note_on,60,0,2,,,,,,,,,1,,,,77,0
88925,note_on,0,0,2,,,,,,,,,1,,,,75,81
88940,note_on,20,0,6,,,,,,,,,10,,,,67,0
88943,note_on,20,0,7,,,,,,,,,11,,,,63,0
88950,note_on,10,0,6,,,,,,,,,10,,,,67,92
88953,note_on,10,0,7,,,,,,,,,11,,,,63,92
88970,note_on,20,0,6,,,,,,,,,10,,,,67,0
88973,note_on,20,0,7,,,,,,,,,11,,,,63,0
88976,note_on,170,0,8,,,,,,,,,12,,,,55,0
88980,note_on,10,0,6,,,,,,,,,10,,,,67,100
88981,note_on,170,0,9,,,,,,,,,13,,,,55,0
88983,note_on,170,0,10,,,,,,,,,14,,,,43,0
88983,note_on,10,0,7,,,,,,,,,11,,,,65,100
88985,note_on,60,0,2,,,,,,,,,1,,,,75,0
88985,note_on,0,0,2,,,,,,,,,1,,,,74,81
88986,note_on,10,0,8,,,,,,,,,12,,,,55,98
88991,note_on,10,0,9,,,,,,,,,13,,,,55,89
88993,note_on,10,0,10,,,,,,,,,14,,,,43,73
89000,note_on,20,0,6,,,,,,,,,10,,,,67,0
89003,note_on,20,0,7,,,,,,,,,11,,,,65,0
89010,note_on,10,0,6,,,,,,,,,10,,,,67,92
89013,note_on,10,0,7,,,,,,,,,11,,,,65,92
89030,note_on,20,0,6,,,,,,,,,10,,,,67,0
89033,note_on,20,0,7,,,,,,,,,11,,,,65,0
89036,note_on,50,0,8,,,,,,,,,12,,,,55,0
89040,note_on,55,0,2,,,,,,,,,1,,,,74,0
89040,note_on,10,0,6,,,,,,,,,10,,,,67,100
89040,set_tempo,120,1,0,,,,,,382166,,,,,,,,
89041,note_on,50,0,9,,,,,,,,,13,,,,55,0
89043,note_on,10,0,7,,,,,,,,,11,,,,63,100
89043,note_on,50,0,10,,,,,,,,,14,,,,43,0
89045,note_on,5,0,2,,,,,,,,,1,,,,72,81
89046,note_on,10,0,8,,,,,,,,,12,,,,55,122
89051,note_on,10,0,9,,,,,,,,,13,,,,55,113
89053,note_on,10,0,10,,,,,,,,,14,,,,43,80
89060,note_on,20,0,6,,,,,,,,,10,,,,67,0
89063,note_on,20,0,7,,,,,,,,,11,,,,63,0
89070,note_on,10,0,6,,,,,,,,,10,,,,67,92
89073,note_on,10,0,7,,,,,,,,,11,,,,63,92
89090,note_on,20,0,6,,,,,,,,,10,,,,67,0
89093,note_on,20,0,7,,,,,,,,,11,,,,63,0
89100,note_on,10,0,6,,,,,,,,,10,,,,67,100
89103,note_on,10,0,7,,,,,,,,,11,,,,63,100
89106,note_on,60,0,8,,,,,,,,,12,,,,55,0
89106,note_on,0,0,8,,,,,,,,,12,,,,57,98
89111,note_on,0,0,9,,,,,,,,,13,,,,57,89
89111,note_on,60,0,9,,,,,,,,,13,,,,55,0
89113,note_on,0,0,10,,,,,,,,,14,,,,45,73
89113,note_on,60,0,10,,,,,,,,,14,,,,43,0
89120,note_on,20,0,6,,,,,,,,,10,,,,67,0
89123,note_on,20,0,7,,,,,,,,,11,,,,63,0
89130,note_on,10,0,6,,,,,,,,,10,,,,67,92
89133,note_on,10,0,7,,,,,,,,,11,,,,63,92
89150,note_on,20,0,6,,,,,,,,,10,,,,67,0
89153,note_on,20,0,7,,,,,,,,,11,,,,63,0
89160,note_on,10,0,6,,,,,,,,,10,,,,67,100
89160,set_tempo,120,1,0,,,,,,356083,,,,,,,,
89163,note_on,10,0,7,,,,,,,,,11,,,,63,100
89165,note_on,120,0,2,,,,,,,,,1,,,,72,0
89166,note_on,0,0,8,,,,,,,,,12,,,,59,98
89166,note_on,60,0,8,,,,,,,,,12,,,,57,0
89171,note_on,0,0,9,,,,,,,,,13,,,,59,89
89171,note_on,60,0,9,,,,,,,,,13,,,,57,0
89173,note_on,60,0,10,,,,,,,,,14,,,,45,0
89173,note_on,0,0,10,,,,,,,,,14,,,,47,73
89180,note_on,20,0,6,,,,,,,,,10,,,,67,0
89183,note_on,20,0,7,,,,,,,,,11,,,,63,0
89190,note_on,10,0,6,,,,,,,,,10,,,,67,92
89193,note_on,10,0,7,,,,,,,,,11,,,,63,92
89210,note_on,20,0,6,,,,,,,,,10,,,,67,0
89213,note_on,20,0,7,,,,,,,,,11,,,,63,0
89220,note_on,10,0,6,,,,,,,,,10,,,,67,100
89223,note_on,10,0,7,,,,,,,,,11,,,,63,100
89225,note_on,60,0,2,,,,,,,,,1,,,,72,81
89226,note_on,0,0,8,,,,,,,,,12,,,,60,98
89226,note_on,60,0,8,,,,,,,,,12,,,,59,0
89231,note_on,60,0,9,,,,,,,,,13,,,,59,0
89231,note_on,0,0,9,,,,,,,,,13,,,,60,89
89232,note_on,0,0,3,,,,,,,,,3,,,,60,81
89232,control_change,1980,0,3,,,,,,,,,3,11,52,,,
89233,note_on,60,0,10,,,,,,,,,14,,,,47,0
89233,note_on,0,0,10,,,,,,,,,14,,,,48,73
89240,note_on,20,0,6,,,,,,,,,10,,,,67,0
89243,note_on,20,0,7,,,,,,,,,11,,,,63,0
89250,note_on,10,0,6,,,,,,,,,10,,,,67,92
89253,note_on,10,0,7,,,,,,,,,11,,,,63,92
89270,note_on,20,0,6,,,,,,,,,10,,,,67,0
89273,note_on,20,0,7,,,,,,,,,11,,,,63,0
89276,note_on,50,0,8,,,,,,,,,12,,,,60,0
89280,note_on,10,0,6,,,,,,,,,10,,,,67,100
89280,note_on,55,0,2,,,,,,,,,1,,,,72,0
89280,set_tempo,120,1,0,,,,,,382166,,,,,,,,
89281,note_on,50,0,9,,,,,,,,,13,,,,60,0
89283,note_on,10,0,7,,,,,,,,,11,,,,65,100
89283,note_on,50,0,10,,,,,,,,,14,,,,48,0
89285,note_on,5,0,2,,,,,,,,,1,,,,74,94
89286,note_on,10,0,8,,,,,,,,,12,,,,60,98
89287,note_on,55,0,3,,,,,,,,,3,,,,60,0
89291,note_on,10,0,9,,,,,,,,,13,,,,60,89
89292,note_on,5,0,3,,,,,,,,,3,,,,62,94
89293,note_on,10,0,10,,,,,,,,,14,,,,48,73
89300,note_on,20,0,6,,,,,,,,,10,,,,67,0
89303,note_on,20,0,7,,,,,,,,,11,,,,65,0
89310,note_on,10,0,6,,,,,,,,,10,,,,67,92
89313,note_on,10,0,7,,,,,,,,,11,,,,65,92
89330,note_on,20,0,6,,,,,,,,,10,,,,67,0
89333,note_on,20,0,7,,,,,,,,,11,,,,65,0
89340,note_on,10,0,6,,,,,,,,,10,,,,67,100
89343,note_on,10,0,7,,,,,,,,,11,,,,65,100
89345,note_on,60,0,2,,,,,,,,,1,,,,74,0
89345,note_on,0,0,2,,,,,,,,,1,,,,75,81
89352,note_on,0,0,3,,,,,,,,,3,,,,63,81
89352,note_on,60,0,3,,,,,,,,,3,,,,62,0
89360,note_on,20,0,6,,,,,,,,,10,,,,67,0
89363,note_on,20,0,7,,,,,,,,,11,,,,65,0
89370,note_on,10,0,6,,,,,,,,,10,,,,67,92
89373,note_on,10,0,7,,,,,,,,,11,,,,65,92
89390,note_on,20,0,6,,,,,,,,,10,,,,67,0
89393,note_on,20,0,7,,,,,,,,,11,,,,65,0
89400,set_tempo,120,1,0,,,,,,356083,,,,,,,,
89400,note_on,10,0,6,,,,,,,,,10,,,,67,100
89403,note_on,10,0,7,,,,,,,,,11,,,,65,100
89405,note_on,60,0,2,,,,,,,,,1,,,,75,0
89405,note_on,0,0,2,,,,,,,,,1,,,,77,81
89406,note_on,0,0,8,,,,,,,,,12,,,,59,98
89406,note_on,120,0,8,,,,,,,,,12,,,,60,0
89411,note_on,120,0,9,,,,,,,,,13,,,,60,0
89411,note_on,0,0,9,,,,,,,,,13,,,,59,89
89412,note_on,60,0,3,,,,,,,,,3,,,,63,0
89412,note_on,0,0,3,,,,,,,,,3,,,,65,81
89413,note_on,0,0,10,,,,,,,,,14,,,,47,73
89413,note_on,120,0,10,,,,,,,,,14,,,,48,0
89420,note_on,20,0,6,,,,,,,,,10,,,,67,0
89423,note_on,20,0,7,,,,,,,,,11,,,,65,0
89430,note_on,10,0,6,,,,,,,,,10,,,,67,92
89433,note_on,10,0,7,,,,,,,,,11,,,,65,92
89450,note_on,20,0,6,,,,,,,,,10,,,,67,0
89453,note_on,20,0,7,,,,,,,,,11,,,,65,0
89456,note_on,50,0,8,,,,,,,,,12,,,,59,0
89460,note_on,10,0,6,,,,,,,,,10,,,,67,100
89461,note_on,50,0,9,,,,,,,,,13,,,,59,0
89463,note_on,10,0,7,,,,,,,,,11,,,,65,100
89463,note_on,50,0,10,,,,,,,,,14,,,,47,0
89465,note_on,0,0,2,,,,,,,,,1,,,,79,81
89465,note_on,60,0,2,,,,,,,,,1,,,,77,0
89466,note_on,10,0,8,,,,,,,,,12,,,,55,98
89471,note_on,10,0,9,,,,,,,,,13,,,,55,89
89472,note_on,0,0,3,,,,,,,,,3,,,,67,81
89472,note_on,60,0,3,,,,,,,,,3,,,,65,0
89473,note_on,10,0,10,,,,,,,,,14,,,,43,73
89480,note_on,20,0,6,,,,,,,,,10,,,,67,0
89483,note_on,20,0,7,,,,,,,,,11,,,,65,0
89490,note_on,10,0,6,,,,,,,,,10,,,,67,92
89493,note_on,10,0,7,,,,,,,,,11,,,,65,92
89510,note_on,20,0,6,,,,,,,,,10,,,,67,0
89513,note_on,20,0,7,,,,,,,,,11,,,,65,0
89516,note_on,50,0,8,,,,,,,,,12,,,,55,0
89520,note_on,55,0,2,,,,,,,,,1,,,,79,0
89520,set_tempo,120,1,0,,,,,,382166,,,,,,,,
89520,note_on,10,0,6,,,,,,,,,10,,,,67,100
89521,note_on,50,0,9,,,,,,,,,13,,,,55,0
89523,note_on,10,0,7,,,,,,,,,11,,,,63,100
89523,note_on,50,0,10,,,,,,,,,14,,,,43,0
89525,note_on,5,0,2,,,,,,,,,1,,,,79,81
89526,note_on,10,0,8,,,,,,,,,12,,,,55,122
89527,note_on,55,0,3,,,,,,,,,3,,,,67,0
89531,note_on,10,0,9,,,,,,,,,13,,,,55,113
89532,note_on,5,0,3,,,,,,,,,3,,,,67,81
89533,note_on,10,0,10,,,,,,,,,14,,,,43,80
89540,note_on,20,0,6,,,,,,,,,10,,,,67,0
89543,note_on,20,0,7,,,,,,,,,11,,,,63,0
89550,note_on,10,0,6,,,,,,,,,10,,,,67,92
89553,note_on,10,0,7,,,,,,,,,11,,,,63,92
89570,note_on,20,0,6,,,,,,,,,10,,,,67,0
89573,note_on,20,0,7,,,,,,,,,11,,,,63,0
89580,note_on,10,0,6,,,,,,,,,10,,,,67,100
89583,note_on,10,0,7,,,,,,,,,11,,,,63,100
89586,note_on,60,0,8,,,,,,,,,12,,,,55,0
89586,note_on,0,0,8,,,,,,,,,12,,,,57,98
89591,note_on,60,0,9,,,,,,,,,13,,,,55,0
89591,note_on,0,0,9,,,,,,,,,13,,,,57,89
89593,note_on,0,0,10,,,,,,,,,14,,,,45,73
89593,note_on,60,0,10,,,,,,,,,14,,,,43,0
89600,note_on,20,0,6,,,,,,,,,10,,,,67,0
89603,note_on,20,0,7,,,,,,,,,11,,,,63,0
89610,note_on,10,0,6,,,,,,,,,10,,,,67,92
89613,note_on,10,0,7,,,,,,,,,11,,,,63,92
89630,note_on,20,0,6,,,,,,,,,10,,,,67,0
89633,note_on,20,0,7,,,,,,,,,11,,,,63,0
89640,note_on,10,0,6,,,,,,,,,10,,,,67,100
89640,set_tempo,120,1,0,,,,,,356083,,,,,,,,
89643,note_on,10,0,7,,,,,,,,,11,,,,63,100
89645,note_on,0,0,2,,,,,,,,,1,,,,75,81
89645,note_on,120,0,2,,,,,,,,,1,,,,79,0
89646,note_on,60,0,8,,,,,,,,,12,,,,57,0
89646,note_on,0,0,8,,,,,,,,,12,,,,59,98
89651,note_on,60,0,9,,,,,,,,,13,,,,57,0
89651,note_on,0,0,9,,,,,,,,,13,,,,59,89
89652,note_on,0,0,3,,,,,,,,,3,,,,63,81
89652,note_on,120,0,3,,,,,,,,,3,,,,67,0
89653,note_on,0,0,10,,,,,,,,,14,,,,47,73
89653,note_on,60,0,10,,,,,,,,,14,,,,45,0
89660,note_on,20,0,6,,,,,,,,,10,,,,67,0
89663,note_on,20,0,7,,,,,,,,,11,,,,63,0
89670,note_on,10,0,6,,,,,,,,,10,,,,67,92
89673,note_on,10,0,7,,,,,,,,,11,,,,63,92
89690,note_on,20,0,6,,,,,,,,,10,,,,67,0
89693,note_on,20,0,7,,,,,,,,,11,,,,63,0
89700,note_on,55,0,2,,,,,,,,,1,,,,75,0
89700,note_on,10,0,6,,,,,,,,,10,,,,67,100
89703,note_on,10,0,7,,,,,,,,,11,,,,63,100
89705,note_on,5,0,2,,,,,,,,,1,,,,72,81
89706,note_on,0,0,8,,,,,,,,,12,,,,60,98
89706,note_on,60,0,8,,,,,,,,,12,,,,59,0
89707,note_on,55,0,3,,,,,,,,,3,,,,63,0
89711,note_on,0,0,9,,,,,,,,,13,,,,60,89
89711,note_on,60,0,9,,,,,,,,,13,,,,59,0
89712,note_on,5,0,3,,,,,,,,,3,,,,60,81
89713,note_on,0,0,10,,,,,,,,,14,,,,48,73
89713,note_on,60,0,10,,,,,,,,,14,,,,47,0
89720,note_on,20,0,6,,,,,,,,,10,,,,67,0
89723,note_on,20,0,7,,,,,,,,,11,,,,63,0
89730,note_on,10,0,6,,,,,,,,,10,,,,67,92
89733,note_on,10,0,7,,,,,,,,,11,,,,63,92
89750,note_on,20,0,6,,,,,,,,,10,,,,67,0
89753,note_on,20,0,7,,,,,,,,,11,,,,63,0
89756,note_on,50,0,8,,,,,,,,,12,,,,60,0
89760,note_on,10,0,6,,,,,,,,,10,,,,67,100
89760,note_on,55,0,2,,,,,,,,,1,,,,72,0
89760,set_tempo,120,1,0,,,,,,382166,,,,,,,,
89761,note_on,50,0,9,,,,,,,,,13,,,,60,0
89763,note_on,10,0,7,,,,,,,,,11,,,,65,100
89763,note_on,50,0,10,,,,,,,,,14,,,,48,0
89765,note_on,5,0,2,,,,,,,,,1,,,,74,94
89766,note_on,10,0,8,,,,,,,,,12,,,,60,98
89767,note_on,55,0,3,,,,,,,,,3,,,,60,0
89771,note_on,10,0,9,,,,,,,,,13,,,,60,89
89772,note_on,5,0,3,,,,,,,,,3,,,,62,94
89773,note_on,10,0,10,,,,,,,,,14,,,,48,73
89780,note_on,20,0,6,,,,,,,,,10,,,,67,0
89783,note_on,20,0,7,,,,,,,,,11,,,,65,0
89790,note_on,10,0,6,,,,,,,,,10,,,,67,92
89793,note_on,10,0,7,,,,,,,,,11,,,,65,92
89810,note_on,20,0,6,,,,,,,,,10,,,,67,0
89813,note_on,20,0,7,,,,,,,,,11,,,,65,0
89820,note_on,10,0,6,,,,,,,,,10,,,,67,100
89823,note_on,10,0,7,,,,,,,,,11,,,,65,100
89825,note_on,0,0,2,,,,,,,,,1,,,,75,81
89825,note_on,60,0,2,,,,,,,,,1,,,,74,0
89832,note_on,0,0,3,,,,,,,,,3,,,,63,81
89832,note_on,60,0,3,,,,,,,,,3,,,,62,0
89840,note_on,20,0,6,,,,,,,,,10,,,,67,0
89843,note_on,20,0,7,,,,,,,,,11,,,,65,0
89850,note_on,10,0,6,,,,,,,,,10,,,,67,92
89853,note_on,10,0,7,,,,,,,,,11,,,,65,92
89870,note_on,20,0,6,,,,,,,,,10,,,,67,0
89873,note_on,20,0,7,,,,,,,,,11,,,,65,0
89880,note_on,10,0,6,,,,,,,,,10,,,,67,100
89880,set_tempo,120,1,0,,,,,,356083,,,,,,,,
89883,note_on,10,0,7,,,,,,,,,11,,,,65,100
89885,note_on,60,0,2,,,,,,,,,1,,,,75,0
89885,note_on,0,0,2,,,,,,,,,1,,,,77,81
89886,note_on,0,0,8,,,,,,,,,12,,,,59,98
89886,note_on,120,0,8,,,,,,,,,12,,,,60,0
89891,note_on,0,0,9,,,,,,,,,13,,,,59,89
89891,note_on,120,0,9,,,,,,,,,13,,,,60,0
89892,note_on,60,0,3,,,,,,,,,3,,,,63,0
89892,note_on,0,0,3,,,,,,,,,3,,,,65,81
89893,note_on,0,0,10,,,,,,,,,14,,,,47,73
89893,note_on,120,0,10,,,,,,,,,14,,,,48,0
89900,note_on,20,0,6,,,,,,,,,10,,,,67,0
89903,note_on,20,0,7,,,,,,,,,11,,,,65,0
89910,note_on,10,0,6,,,,,,,,,10,,,,67,92
89913,note_on,10,0,7,,,,,,,,,11,,,,65,92
89930,note_on,20,0,6,,,,,,,,,10,,,,67,0
89933,note_on,20,0,7,,,,,,,,,11,,,,65,0
89940,note_on,10,0,6,,,,,,,,,10,,,,67,100
89943,note_on,10,0,7,,,,,,,,,11,,,,65,100
89945,note_on,0,0,2,,,,,,,,,1,,,,79,81
89945,note_on,60,0,2,,,,,,,,,1,,,,77,0
89946,note_on,60,0,8,,,,,,,,,12,,,,59,0
89951,note_on,60,0,9,,,,,,,,,13,,,,59,0
89952,note_on,0,0,3,,,,,,,,,3,,,,67,81
89952,note_on,60,0,3,,,,,,,,,3,,,,65,0
89953,note_on,60,0,10,,,,,,,,,14,,,,47,0
89960,note_on,20,0,6,,,,,,,,,10,,,,67,0
89963,note_on,20,0,7,,,,,,,,,11,,,,65,0
89970,note_on,10,0,6,,,,,,,,,10,,,,67,92
89973,note_on,10,0,7,,,,,,,,,11,,,,65,92
89990,note_on,20,0,6,,,,,,,,,10,,,,67,0
89993,note_on,20,0,7,,,,,,,,,11,,,,65,0
90000,note_on,10,0,6,,,,,,,,,10,,,,67,100
90000,note_on,55,0,2,,,,,,,,,1,,,,79,0
90000,set_tempo,120,1,0,,,,,,382166,,,,,,,,
90003,note_on,10,0,7,,,,,,,,,11,,,,63,100
90005,note_on,5,0,2,,,,,,,,,1,,,,79,81
90006,note_on,60,0,8,,,,,,,,,12,,,,60,98
90007,note_on,55,0,3,,,,,,,,,3,,,,67,0
90011,note_on,60,0,9,,,,,,,,,13,,,,60,89
90012,note_on,5,0,3,,,,,,,,,3,,,,67,81
90013,note_on,60,0,10,,,,,,,,,14,,,,48,73
90020,note_on,20,0,6,,,,,,,,,10,,,,67,0
90023,note_on,20,0,7,,,,,,,,,11,,,,63,0
90030,note_on,10,0,6,,,,,,,,,10,,,,67,92
90033,note_on,10,0,7,,,,,,,,,11,,,,63,92
90050,note_on,20,0,6,,,,,,,,,10,,,,67,0
90053,note_on,20,0,7,,,,,,,,,11,,,,63,0
90060,note_on,10,0,6,,,,,,,,,10,,,,67,100
90063,note_on,10,0,7,,,,,,,,,11,,,,63,100
90080,note_on,20,0,6,,,,,,,,,10,,,,67,0
90083,note_on,20,0,7,,,,,,,,,11,,,,63,0
90090,note_on,10,0,6,,,,,,,,,10,,,,67,92
90093,note_on,10,0,7,,,,,,,,,11,,,,63,92
90110,note_on,20,0,6,,,,,,,,,10,,,,67,0
90113,note_on,20,0,7,,,,,,,,,11,,,,63,0
90120,note_on,10,0,6,,,,,,,,,10,,,,67,100
90120,set_tempo,120,1,0,,,,,,356083,,,,,,,,
90123,note_on,10,0,7,,,,,,,,,11,,,,61,100
90125,note_on,120,0,2,,,,,,,,,1,,,,79,0
90125,note_on,0,0,2,,,,,,,,,1,,,,75,81
90126,note_on,0,0,8,,,,,,,,,12,,,,58,98
90126,note_on,120,0,8,,,,,,,,,12,,,,60,0
90131,note_on,120,0,9,,,,,,,,,13,,,,60,0
90131,note_on,0,0,9,,,,,,,,,13,,,,58,89
90132,note_on,0,0,3,,,,,,,,,3,,,,63,81
90132,note_on,120,0,3,,,,,,,,,3,,,,67,0
90133,note_on,120,0,10,,,,,,,,,14,,,,48,0
90133,note_on,0,0,10,,,,,,,,,14,,,,46,73
90140,note_on,20,0,6,,,,,,,,,10,,,,67,0
90143,note_on,20,0,7,,,,,,,,,11,,,,61,0
90150,note_on,10,0,6,,,,,,,,,10,,,,67,92
90153,note_on,10,0,7,,,,,,,,,11,,,,61,92
90170,note_on,20,0,6,,,,,,,,,10,,,,67,0
90173,note_on,20,0,7,,,,,,,,,11,,,,61,0
90180,note_on,10,0,6,,,,,,,,,10,,,,67,100
90183,note_on,10,0,7,,,,,,,,,11,,,,61,100
90200,note_on,20,0,6,,,,,,,,,10,,,,67,0
90203,note_on,20,0,7,,,,,,,,,11,,,,61,0
90210,note_on,10,0,6,,,,,,,,,10,,,,67,92
90213,note_on,10,0,7,,,,,,,,,11,,,,61,92
90230,note_on,20,0,6,,,,,,,,,10,,,,67,0
90233,note_on,20,0,7,,,,,,,,,11,,,,61,0
90240,note_on,10,0,6,,,,,,,,,10,,,,68,100
90240,set_tempo,120,1,0,,,,,,382166,,,,,,,,
90243,note_on,10,0,7,,,,,,,,,11,,,,60,100
90246,note_on,0,0,8,,,,,,,,,12,,,,56,98
90246,note_on,120,0,8,,,,,,,,,12,,,,58,0
90251,note_on,120,0,9,,,,,,,,,13,,,,58,0
90251,note_on,0,0,9,,,,,,,,,13,,,,56,89
90253,note_on,120,0,10,,,,,,,,,14,,,,46,0
90253,note_on,0,0,10,,,,,,,,,14,,,,44,73
90260,note_on,20,0,6,,,,,,,,,10,,,,68,0
90263,note_on,20,0,7,,,,,,,,,11,,,,60,0
90270,note_on,10,0,6,,,,,,,,,10,,,,68,92
90273,note_on,10,0,7,,,,,,,,,11,,,,60,92
90290,note_on,20,0,6,,,,,,,,,10,,,,68,0
90293,note_on,20,0,7,,,,,,,,,11,,,,60,0
90300,note_on,10,0,6,,,,,,,,,10,,,,68,100
90303,note_on,10,0,7,,,,,,,,,11,,,,60,100
90305,note_on,0,0,2,,,,,,,,,1,,,,80,81
90305,note_on,180,0,2,,,,,,,,,1,,,,75,0
90312,note_on,0,0,3,,,,,,,,,3,,,,68,81
90312,note_on,180,0,3,,,,,,,,,3,,,,63,0
90320,note_on,20,0,6,,,,,,,,,10,,,,68,0
90323,note_on,20,0,7,,,,,,,,,11,,,,60,0
90330,note_on,10,0,6,,,,,,,,,10,,,,68,92
90333,note_on,10,0,7,,,,,,,,,11,,,,60,92
90350,note_on,20,0,6,,,,,,,,,10,,,,68,0
90353,note_on,20,0,7,,,,,,,,,11,,,,60,0
90360,note_on,10,0,6,,,,,,,,,10,,,,70,100
90360,set_tempo,120,1,0,,,,,,356083,,,,,,,,
90363,note_on,10,0,7,,,,,,,,,11,,,,65,100
90365,note_on,60,0,2,,,,,,,,,1,,,,80,0
90365,note_on,0,0,2,,,,,,,,,1,,,,77,81
90366,note_on,120,0,8,,,,,,,,,12,,,,56,0
90366,note_on,0,0,8,,,,,,,,,12,,,,61,98
90371,note_on,120,0,9,,,,,,,,,13,,,,56,0
90371,note_on,0,0,9,,,,,,,,,13,,,,49,89
90372,note_on,60,0,3,,,,,,,,,3,,,,68,0
90372,note_on,0,0,3,,,,,,,,,3,,,,65,81
90373,note_on,120,0,10,,,,,,,,,14,,,,44,0
90373,note_on,0,0,10,,,,,,,,,14,,,,37,73
90380,note_on,20,0,6,,,,,,,,,10,,,,70,0
90383,note_on,20,0,7,,,,,,,,,11,,,,65,0
90390,note_on,10,0,6,,,,,,,,,10,,,,70,92
90393,note_on,10,0,7,,,,,,,,,11,,,,65,92
90410,note_on,20,0,6,,,,,,,,,10,,,,70,0
90413,note_on,20,0,7,,,,,,,,,11,,,,65,0
90420,note_on,10,0,6,,,,,,,,,10,,,,70,100
90423,note_on,10,0,7,,,,,,,,,11,,,,65,100
90425,note_on,0,0,2,,,,,,,,,1,,,,73,81
90425,note_on,60,0,2,,,,,,,,,1,,,,77,0
90432,note_on,60,0,3,,,,,,,,,3,,,,65,0
90432,note_on,0,0,3,,,,,,,,,3,,,,61,81
90440,note_on,20,0,6,,,,,,,,,10,,,,70,0
90443,note_on,20,0,7,,,,,,,,,11,,,,65,0
90450,note_on,10,0,6,,,,,,,,,10,,,,70,92
90453,note_on,10,0,7,,,,,,,,,11,,,,65,92
90470,note_on,20,0,6,,,,,,,,,10,,,,70,0
90473,note_on,20,0,7,,,,,,,,,11,,,,65,0
90476,note_on,110,0,8,,,,,,,,,12,,,,61,0
90480,set_tempo,120,1,0,,,,,,382166,,,,,,,,
90480,note_on,10,0,6,,,,,,,,,10,,,,72,100
90480,note_on,55,0,2,,,,,,,,,1,,,,73,0
90481,note_on,110,0,9,,,,,,,,,13,,,,49,0
90483,note_on,110,0,10,,,,,,,,,14,,,,37,0
90483,note_on,10,0,7,,,,,,,,,11,,,,68,100
90485,control_change,5,0,2,,,,,,,,,1,11,52,,,
90485,note_on,0,0,2,,,,,,,,,1,,,,72,81
90486,note_on,10,0,8,,,,,,,,,12,,,,63,98
90487,note_on,55,0,3,,,,,,,,,3,,,,61,0
90491,note_on,10,0,9,,,,,,,,,13,,,,51,89
90492,note_on,0,0,3,,,,,,,,,3,,,,60,81
90492,control_change,5,0,3,,,,,,,,,3,11,52,,,
90493,note_on,10,0,10,,,,,,,,,14,,,,39,73
90500,note_on,20,0,6,,,,,,,,,10,,,,72,0
90503,note_on,20,0,7,,,,,,,,,11,,,,68,0
90510,note_on,10,0,6,,,,,,,,,10,,,,72,92
90511,control_change,26,0,2,,,,,,,,,1,11,53,,,
90513,note_on,10,0,7,,,,,,,,,11,,,,68,92
90518,control_change,26,0,3,,,,,,,,,3,11,53,,,
90530,note_on,20,0,6,,,,,,,,,10,,,,72,0
90533,note_on,20,0,7,,,,,,,,,11,,,,68,0
90538,control_change,27,0,2,,,,,,,,,1,11,54,,,
90540,note_on,10,0,6,,,,,,,,,10,,,,72,100
90543,note_on,10,0,7,,,,,,,,,11,,,,68,100
90545,control_change,27,0,3,,,,,,,,,3,11,54,,,
90560,note_on,20,0,6,,,,,,,,,10,,,,72,0
90563,note_on,20,0,7,,,,,,,,,11,,,,68,0
90564,control_change,26,0,2,,,,,,,,,1,11,55,,,
90570,note_on,10,0,6,,,,,,,,,10,,,,72,92
90571,control_change,26,0,3,,,,,,,,,3,11,55,,,
90573,note_on,10,0,7,,,,,,,,,11,,,,68,92
90590,note_on,20,0,6,,,,,,,,,10,,,,72,0
90591,control_change,27,0,2,,,,,,,,,1,11,56,,,
90593,note_on,20,0,7,,,,,,,,,11,,,,68,0
90598,control_change,27,0,3,,,,,,,,,3,11,56,,,
90600,note_on,10,0,6,,,,,,,,,10,,,,72,100
90600,set_tempo,120,1,0,,,,,,356083,,,,,,,,
90603,note_on,10,0,7,,,,,,,,,11,,,,68,100
90605,note_on,14,0,2,,,,,,,,,1,,,,72,0
90605,note_on,0,0,2,,,,,,,,,1,,,,75,81
90612,note_on,0,0,3,,,,,,,,,3,,,,63,81
90612,note_on,14,0,3,,,,,,,,,3,,,,60,0
90618,control_change,13,0,2,,,,,,,,,1,11,57,,,
90620,note_on,20,0,6,,,,,,,,,10,,,,72,0
90623,note_on,20,0,7,,,,,,,,,11,,,,68,0
90625,control_change,13,0,3,,,,,,,,,3,11,57,,,
90630,note_on,10,0,6,,,,,,,,,10,,,,72,92
90633,note_on,10,0,7,,,,,,,,,11,,,,68,92
90644,control_change,26,0,2,,,,,,,,,1,11,58,,,
90650,note_on,20,0,6,,,,,,,,,10,,,,72,0
90651,control_change,26,0,3,,,,,,,,,3,11,58,,,
90653,note_on,20,0,7,,,,,,,,,11,,,,68,0
90660,note_on,10,0,6,,,,,,,,,10,,,,72,100
90663,note_on,10,0,7,,,,,,,,,11,,,,68,100
90671,control_change,27,0,2,,,,,,,,,1,11,59,,,
90678,control_change,27,0,3,,,,,,,,,3,11,59,,,
90680,note_on,20,0,6,,,,,,,,,10,,,,72,0
90683,note_on,20,0,7,,,,,,,,,11,,,,68,0
90690,note_on,10,0,6,,,,,,,,,10,,,,72,92
90693,note_on,10,0,7,,,,,,,,,11,,,,68,92
90697,control_change,26,0,2,,,,,,,,,1,11,60,,,
90704,control_change,26,0,3,,,,,,,,,3,11,60,,,
90710,note_on,20,0,6,,,,,,,,,10,,,,72,0
90713,note_on,20,0,7,,,,,,,,,11,,,,68,0
90720,note_on,10,0,6,,,,,,,,,10,,,,70,100
90720,set_tempo,120,1,0,,,,,,382166,,,,,,,,
90723,note_on,10,0,7,,,,,,,,,11,,,,67,100
90724,control_change,27,0,2,,,,,,,,,1,11,61,,,
90731,control_change,27,0,3,,,,,,,,,3,11,61,,,
90740,note_on,20,0,6,,,,,,,,,10,,,,70,0
90743,note_on,20,0,7,,,,,,,,,11,,,,67,0
90750,note_on,10,0,6,,,,,,,,,10,,,,70,92
90751,control_change,27,0,2,,,,,,,,,1,11,62,,,
90753,note_on,10,0,7,,,,,,,,,11,,,,67,92
90758,control_change,27,0,3,,,,,,,,,3,11,62,,,
90770,note_on,20,0,6,,,,,,,,,10,,,,70,0
90773,note_on,20,0,7,,,,,,,,,11,,,,67,0
90777,control_change,26,0,2,,,,,,,,,1,11,62,,,
90780,note_on,10,0,6,,,,,,,,,10,,,,70,100
90783,note_on,10,0,7,,,,,,,,,11,,,,67,100
90784,control_change,26,0,3,,,,,,,,,3,11,62,,,
90785,note_on,8,0,2,,,,,,,,,1,,,,75,0
90785,note_on,0,0,2,,,,,,,,,1,,,,73,81
90792,note_on,0,0,3,,,,,,,,,3,,,,61,81
90792,note_on,8,0,3,,,,,,,,,3,,,,63,0
90800,note_on,20,0,6,,,,,,,,,10,,,,70,0
90803,note_on,20,0,7,,,,,,,,,11,,,,67,0
90804,control_change,19,0,2,,,,,,,,,1,11,63,,,
90810,note_on,10,0,6,,,,,,,,,10,,,,70,92
90811,control_change,19,0,3,,,,,,,,,3,11,63,,,
90813,note_on,10,0,7,,,,,,,,,11,,,,67,92
90830,control_change,26,0,2,,,,,,,,,1,11,64,,,
90830,note_on,20,0,6,,,,,,,,,10,,,,70,0
90833,note_on,20,0,7,,,,,,,,,11,,,,67,0
90837,control_change,26,0,3,,,,,,,,,3,11,64,,,
90840,set_tempo,120,1,0,,,,,,356083,,,,,,,,
90840,note_on,10,0,6,,,,,,,,,10,,,,70,100
90843,note_on,10,0,7,,,,,,,,,11,,,,67,100
90845,note_on,0,0,2,,,,,,,,,1,,,,72,81
90845,note_on,15,0,2,,,,,,,,,1,,,,73,0
90852,note_on,0,0,3,,,,,,,,,3,,,,60,81
90852,note_on,15,0,3,,,,,,,,,3,,,,61,0
90857,control_change,12,0,2,,,,,,,,,1,11,64,,,
90860,note_on,20,0,6,,,,,,,,,10,,,,70,0
90863,note_on,20,0,7,,,,,,,,,11,,,,67,0
90864,control_change,12,0,3,,,,,,,,,3,11,64,,,
90870,note_on,10,0,6,,,,,,,,,10,,,,70,92
90873,note_on,10,0,7,,,,,,,,,11,,,,67,92
90884,control_change,27,0,2,,,,,,,,,1,11,65,,,
90890,note_on,20,0,6,,,,,,,,,10,,,,70,0
90891,control_change,27,0,3,,,,,,,,,3,11,65,,,
90893,note_on,20,0,7,,,,,,,,,11,,,,67,0
90900,note_on,10,0,6,,,,,,,,,10,,,,70,100
90903,note_on,10,0,7,,,,,,,,,11,,,,67,100
90905,note_on,21,0,2,,,,,,,,,1,,,,72,0
90905,note_on,0,0,2,,,,,,,,,1,,,,70,74
90910,control_change,5,0,2,,,,,,,,,1,11,66,,,
90912,note_on,21,0,3,,,,,,,,,3,,,,60,0
90912,note_on,0,0,3,,,,,,,,,3,,,,58,74
90917,control_change,5,0,3,,,,,,,,,3,11,66,,,
90920,note_on,20,0,6,,,,,,,,,10,,,,70,0
90923,note_on,20,0,7,,,,,,,,,11,,,,67,0
90930,note_on,10,0,6,,,,,,,,,10,,,,70,92
90930,set_tempo,90,1,0,,,,,,406780,,,,,,,,
90933,note_on,10,0,7,,,,,,,,,11,,,,67,92
90937,control_change,27,0,2,,,,,,,,,1,11,66,,,
90944,control_change,27,0,3,,,,,,,,,3,11,66,,,
90950,note_on,20,0,6,,,,,,,,,10,,,,70,0
90952,control_change,2,0,6,,,,,,,,,10,11,46,,,
90953,note_on,20,0,7,,,,,,,,,11,,,,67,0
90954,control_change,2,0,6,,,,,,,,,10,11,49,,,
90955,control_change,2,0,7,,,,,,,,,11,11,46,,,
90956,control_change,2,0,6,,,,,,,,,10,11,52,,,
90956,note_on,470,0,8,,,,,,,,,12,,,,63,0
90957,control_change,2,0,7,,,,,,,,,11,11,49,,,
90958,control_change,2,0,8,,,,,,,,,12,11,46,,,
90959,control_change,3,0,6,,,,,,,,,10,11,56,,,
90959,control_change,2,0,7,,,,,,,,,11,11,52,,,
90960,control_change,2,0,8,,,,,,,,,12,11,49,,,
90960,note_on,1,0,6,,,,,,,,,10,,,,68,100
90960,set_tempo,30,1,0,,,,,,382166,,,,,,,,
90960,note_on,23,0,2,,,,,,,,,1,,,,70,0
90961,note_on,470,0,9,,,,,,,,,13,,,,51,0
90962,control_change,3,0,7,,,,,,,,,11,11,56,,,
90962,control_change,2,0,8,,,,,,,,,12,11,52,,,
90962,control_change,2,0,6,,,,,,,,,10,11,60,,,
90963,control_change,3720,0,1,,,,,,,,,0,11,79,,,
90963,control_change,2,0,9,,,,,,,,,13,11,46,,,
90963,note_on,1,0,7,,,,,,,,,11,,,,68,100
90963,note_on,470,0,10,,,,,,,,,14,,,,39,0
90963,note_on,0,0,1,,,,,,,,,0,,,,84,82
90964,note_on,0,0,4,,,,,,,,,4,,,,63,86
90964,control_change,4,0,2,,,,,,,,,1,11,67,,,
90964,control_change,3720,0,4,,,,,,,,,4,11,79,,,
90965,control_change,2,0,10,,,,,,,,,14,11,46,,,
90965,control_change,2,0,9,,,,,,,,,13,11,49,,,
90965,control_change,2,0,7,,,,,,,,,11,11,60,,,
90965,control_change,3,0,8,,,,,,,,,12,11,56,,,
90965,note_on,0,0,2,,,,,,,,,1,,,,75,81
90965,control_change,1,0,2,,,,,,,,,1,11,79,,,
90965,note_on,0,0,2,,,,,,,,,1,,,,72,81
90966,control_change,3720,0,5,,,,,,,,,5,11,79,,,
90966,note_on,0,0,5,,,,,,,,,5,,,,63,86
90966,note_on,1,0,8,,,,,,,,,12,,,,63,98
90966,note_on,0,0,8,,,,,,,,,12,,,,60,98
90966,control_change,4,0,6,,,,,,,,,10,11,64,,,
90967,note_on,23,0,3,,,,,,,,,3,,,,58,0
90967,control_change,2,0,9,,,,,,,,,13,11,52,,,
90967,control_change,2,0,10,,,,,,,,,14,11,49,,,
90968,control_change,2,0,8,,,,,,,,,12,11,60,,,
90969,control_change,2,0,10,,,,,,,,,14,11,52,,,
90969,control_change,4,0,7,,,,,,,,,11,11,64,,,
90970,control_change,3,0,9,,,,,,,,,13,11,56,,,
90971,control_change,5,0,6,,,,,,,,,10,11,68,,,
90971,control_change,4,0,3,,,,,,,,,3,11,67,,,
90971,note_on,1,0,9,,,,,,,,,13,,,,51,89
90972,control_change,4,0,8,,,,,,,,,12,11,64,,,
90972,note_on,0,0,3,,,,,,,,,3,,,,51,81
90972,control_change,1,0,3,,,,,,,,,3,11,79,,,
90972,control_change,3,0,10,,,,,,,,,14,11,56,,,
90973,control_change,2,0,9,,,,,,,,,13,11,60,,,
90973,note_on,1,0,10,,,,,,,,,14,,,,39,73
90974,control_change,5,0,7,,,,,,,,,11,11,68,,,
90975,control_change,2,0,10,,,,,,,,,14,11,60,,,
90976,control_change,5,0,6,,,,,,,,,10,11,72,,,
90977,control_change,5,0,8,,,,,,,,,12,11,68,,,
90977,control_change,4,0,9,,,,,,,,,13,11,64,,,
90979,control_change,5,0,7,,,,,,,,,11,11,72,,,
90979,control_change,4,0,10,,,,,,,,,14,11,64,,,
90981,control_change,5,0,6,,,,,,,,,10,11,76,,,
90982,control_change,5,0,9,,,,,,,,,13,11,68,,,
90982,control_change,5,0,8,,,,,,,,,12,11,72,,,
90984,control_change,5,0,7,,,,,,,,,11,11,76,,,
90984,control_change,5,0,10,,,,,,,,,14,11,68,,,
90986,control_change,5,0,6,,,,,,,,,10,11,79,,,
90986,note_on,4,0,8,,,,,,,,,12,,,,60,0
90986,note_on,0,0,8,,,,,,,,,12,,,,63,0
90987,control_change,5,0,9,,,,,,,,,13,11,72,,,
90987,control_change,1,0,8,,,,,,,,,12,11,76,,,
90989,control_change,5,0,7,,,,,,,,,11,11,79,,,
90989,control_change,5,0,10,,,,,,,,,14,11,72,,,
90992,control_change,5,0,9,,,,,,,,,13,11,76,,,
90992,control_change,5,0,8,,,,,,,,,12,11,79,,,
90994,control_change,5,0,10,,,,,,,,,14,11,76,,,
90996,note_on,4,0,8,,,,,,,,,12,,,,63,90
90996,note_on,0,0,8,,,,,,,,,12,,,,60,90
90997,control_change,5,0,9,,,,,,,,,13,11,79,,,
90999,control_change,5,0,10,,,,,,,,,14,11,79,,,
91016,note_on,20,0,8,,,,,,,,,12,,,,60,0
91016,note_on,0,0,8,,,,,,,,,12,,,,63,0
91026,note_on,10,0,8,,,,,,,,,12,,,,63,98
91026,note_on,0,0,8,,,,,,,,,12,,,,60,98
91031,note_on,34,0,9,,,,,,,,,13,,,,51,0
91031,note_on,0,0,9,,,,,,,,,13,,,,53,89
91032,note_on,0,0,3,,,,,,,,,3,,,,53,81
91032,note_on,60,0,3,,,,,,,,,3,,,,51,0
91033,note_on,34,0,10,,,,,,,,,14,,,,39,0
91033,note_on,0,0,10,,,,,,,,,14,,,,41,73
91046,note_on,0,0,8,,,,,,,,,12,,,,63,0
91046,note_on,20,0,8,,,,,,,,,12,,,,60,0
91056,note_on,10,0,8,,,,,,,,,12,,,,63,90
91056,note_on,0,0,8,,,,,,,,,12,,,,60,90
91076,note_on,20,0,8,,,,,,,,,12,,,,60,0
91076,note_on,0,0,8,,,,,,,,,12,,,,63,0
91080,set_tempo,120,1,0,,,,,,356083,,,,,,,,
91080,note_on,94,0,6,,,,,,,,,10,,,,68,0
91083,note_on,94,0,7,,,,,,,,,11,,,,68,0
91086,note_on,10,0,8,,,,,,,,,12,,,,63,98
91086,note_on,0,0,8,,,,,,,,,12,,,,60,98
91091,note_on,60,0,9,,,,,,,,,13,,,,53,0
91091,note_on,0,0,9,,,,,,,,,13,,,,55,89
91092,note_on,60,0,3,,,,,,,,,3,,,,53,0
91092,note_on,0,0,3,,,,,,,,,3,,,,55,81
91093,note_on,60,0,10,,,,,,,,,14,,,,41,0
91093,note_on,0,0,10,,,,,,,,,14,,,,43,73
91106,note_on,20,0,8,,,,,,,,,12,,,,60,0
91106,note_on,0,0,8,,,,,,,,,12,,,,63,0
91116,note_on,0,0,8,,,,,,,,,12,,,,63,90
91116,note_on,10,0,8,,,,,,,,,12,,,,60,90
91136,note_on,20,0,8,,,,,,,,,12,,,,63,0
91136,note_on,0,0,8,,,,,,,,,12,,,,60,0
91140,note_on,60,0,6,,,,,,,,,10,,,,80,100
91143,note_on,60,0,7,,,,,,,,,11,,,,68,100
91146,note_on,0,0,8,,,,,,,,,12,,,,63,98
91146,note_on,10,0,8,,,,,,,,,12,,,,60,98
91151,note_on,0,0,9,,,,,,,,,13,,,,56,89
91151,note_on,60,0,9,,,,,,,,,13,,,,55,0
91152,note_on,0,0,3,,,,,,,,,3,,,,56,81
91152,note_on,60,0,3,,,,,,,,,3,,,,55,0
91153,note_on,0,0,10,,,,,,,,,14,,,,44,73
91153,note_on,60,0,10,,,,,,,,,14,,,,43,0
91166,note_on,20,0,8,,,,,,,,,12,,,,63,0
91166,note_on,0,0,8,,,,,,,,,12,,,,60,0
91176,note_on,10,0,8,,,,,,,,,12,,,,63,90
91176,note_on,0,0,8,,,,,,,,,12,,,,60,90
91190,note_on,50,0,6,,,,,,,,,10,,,,80,0
91193,note_on,50,0,7,,,,,,,,,11,,,,68,0
91196,note_on,20,0,8,,,,,,,,,12,,,,60,0
91196,note_on,0,0,8,,,,,,,,,12,,,,63,0
91200,note_on,10,0,6,,,,,,,,,10,,,,82,115
91200,set_tempo,120,1,0,,,,,,382166,,,,,,,,
91201,note_on,50,0,9,,,,,,,,,13,,,,56,0
91203,note_on,10,0,7,,,,,,,,,11,,,,70,115
91203,note_on,0,0,1,,,,,,,,,0,,,,85,82
91203,note_on,240,0,1,,,,,,,,,0,,,,84,0
91203,note_on,50,0,10,,,,,,,,,14,,,,44,0
91204,note_on,0,0,4,,,,,,,,,4,,,,63,86
91204,note_on,240,0,4,,,,,,,,,4,,,,63,0
91205,note_on,0,0,2,,,,,,,,,1,,,,73,81
91205,note_on,240,0,2,,,,,,,,,1,,,,72,0
91206,note_on,240,0,5,,,,,,,,,5,,,,63,0
91206,note_on,0,0,5,,,,,,,,,5,,,,63,86
91206,note_on,10,0,8,,,,,,,,,12,,,,63,98
91206,note_on,0,0,8,,,,,,,,,12,,,,61,98
91207,note_on,55,0,3,,,,,,,,,3,,,,56,0
91211,note_on,10,0,9,,,,,,,,,13,,,,56,89
91212,note_on,5,0,3,,,,,,,,,3,,,,56,81
91213,note_on,10,0,10,,,,,,,,,14,,,,44,73
91226,note_on,20,0,8,,,,,,,,,12,,,,61,0
91226,note_on,0,0,8,,,,,,,,,12,,,,63,0
91236,note_on,0,0,8,,,,,,,,,12,,,,63,90
91236,note_on,10,0,8,,,,,,,,,12,,,,61,90
91256,note_on,20,0,8,,,,,,,,,12,,,,63,0
91256,note_on,0,0,8,,,,,,,,,12,,,,61,0
91260,note_on,0,0,6,,,,,,,,,10,,,,84,100
91260,note_on,60,0,6,,,,,,,,,10,,,,82,0
91263,note_on,0,0,7,,,,,,,,,11,,,,72,100
91263,note_on,60,0,7,,,,,,,,,11,,,,70,0
91266,note_on,0,0,8,,,,,,,,,12,,,,61,98
91266,note_on,10,0,8,,,,,,,,,12,,,,63,98
91286,note_on,0,0,8,,,,,,,,,12,,,,63,0
91286,note_on,20,0,8,,,,,,,,,12,,,,61,0
91296,note_on,10,0,8,,,,,,,,,12,,,,61,90
91296,note_on,0,0,8,,,,,,,,,12,,,,63,90
91316,note_on,20,0,8,,,,,,,,,12,,,,63,0
91316,note_on,0,0,8,,,,,,,,,12,,,,61,0
91320,note_on,60,0,6,,,,,,,,,10,,,,84,0
91320,note_on,0,0,6,,,,,,,,,10,,,,85,100
91320,set_tempo,120,1,0,,,,,,356083,,,,,,,,
91323,note_on,60,0,7,,,,,,,,,11,,,,72,0
91323,note_on,0,0,7,,,,,,,,,11,,,,73,100
91326,note_on,10,0,8,,,,,,,,,12,,,,63,98
91326,note_on,0,0,8,,,,,,,,,12,,,,61,98
91331,note_on,120,0,9,,,,,,,,,13,,,,56,0
91331,note_on,0,0,9,,,,,,,,,13,,,,55,89
91332,note_on,120,0,3,,,,,,,,,3,,,,56,0
91332,note_on,0,0,3,,,,,,,,,3,,,,55,81
91333,note_on,120,0,10,,,,,,,,,14,,,,44,0
91333,note_on,0,0,10,,,,,,,,,14,,,,43,73
91346,note_on,0,0,8,,,,,,,,,12,,,,63,0
91346,note_on,20,0,8,,,,,,,,,12,,,,61,0
91356,note_on,0,0,8,,,,,,,,,12,,,,61,90
91356,note_on,10,0,8,,,,,,,,,12,,,,63,90
91376,note_on,0,0,8,,,,,,,,,12,,,,63,0
91376,note_on,20,0,8,,,,,,,,,12,,,,61,0
91380,note_on,0,0,6,,,,,,,,,10,,,,87,100
91380,note_on,60,0,6,,,,,,,,,10,,,,85,0
91381,note_on,50,0,9,,,,,,,,,13,,,,55,0
91383,note_on,50,0,10,,,,,,,,,14,,,,43,0
91383,note_on,60,0,7,,,,,,,,,11,,,,73,0
91383,note_on,0,0,7,,,,,,,,,11,,,,75,100
91386,note_on,0,0,8,,,,,,,,,12,,,,63,98
91386,note_on,10,0,8,,,,,,,,,12,,,,61,98
91387,note_on,55,0,3,,,,,,,,,3,,,,55,0
91391,note_on,10,0,9,,,,,,,,,13,,,,51,89
91392,note_on,5,0,3,,,,,,,,,3,,,,51,81
91393,note_on,10,0,10,,,,,,,,,14,,,,39,73
91406,note_on,0,0,8,,,,,,,,,12,,,,61,0
91406,note_on,20,0,8,,,,,,,,,12,,,,63,0
91416,note_on,10,0,8,,,,,,,,,12,,,,63,90
91416,note_on,0,0,8,,,,,,,,,12,,,,61,90
91430,note_on,50,0,6,,,,,,,,,10,,,,87,0
91433,note_on,50,0,7,,,,,,,,,11,,,,75,0
91436,note_on,20,0,8,,,,,,,,,12,,,,61,0
91436,note_on,0,0,8,,,,,,,,,12,,,,63,0
91438,note_on,235,0,1,,,,,,,,,0,,,,85,0
91440,note_on,0,0,2,,,,,,,,,1,,,,75,0
91440,note_on,10,0,6,,,,,,,,,10,,,,87,100
91440,note_on,235,0,2,,,,,,,,,1,,,,73,0
91440,set_tempo,120,1,0,,,,,,382166,,,,,,,,
91441,note_on,50,0,9,,,,,,,,,13,,,,51,0
91443,note_on,5,0,1,,,,,,,,,0,,,,84,82
91443,note_on,50,0,10,,,,,,,,,14,,,,39,0
91443,note_on,10,0,7,,,,,,,,,11,,,,75,100
91444,note_on,240,0,4,,,,,,,,,4,,,,63,0
91444,note_on,0,0,4,,,,,,,,,4,,,,63,86
91445,note_on,5,0,2,,,,,,,,,1,,,,75,81
91445,note_on,0,0,2,,,,,,,,,1,,,,72,81
91446,note_on,0,0,8,,,,,,,,,12,,,,60,98
91446,note_on,10,0,8,,,,,,,,,12,,,,63,98
91446,note_on,240,0,5,,,,,,,,,5,,,,63,0
91446,note_on,0,0,5,,,,,,,,,5,,,,63,86
91447,note_on,55,0,3,,,,,,,,,3,,,,51,0
91451,note_on,10,0,9,,,,,,,,,13,,,,51,89
91452,note_on,5,0,3,,,,,,,,,3,,,,51,81
91453,note_on,10,0,10,,,,,,,,,14,,,,39,73
91466,note_on,0,0,8,,,,,,,,,12,,,,63,0
91466,note_on,20,0,8,,,,,,,,,12,,,,60,0
91476,note_on,10,0,8,,,,,,,,,12,,,,63,90
91476,note_on,0,0,8,,,,,,,,,12,,,,60,90
91496,note_on,0,0,8,,,,,,,,,12,,,,63,0
91496,note_on,20,0,8,,,,,,,,,12,,,,60,0
91506,note_on,0,0,8,,,,,,,,,12,,,,63,98
91506,note_on,10,0,8,,,,,,,,,12,,,,60,98
91511,note_on,0,0,9,,,,,,,,,13,,,,53,89
91511,note_on,60,0,9,,,,,,,,,13,,,,51,0
91512,note_on,0,0,3,,,,,,,,,3,,,,53,81
91512,note_on,60,0,3,,,,,,,,,3,,,,51,0
91513,note_on,60,0,10,,,,,,,,,14,,,,39,0
91513,note_on,0,0,10,,,,,,,,,14,,,,41,73
91526,note_on,20,0,8,,,,,,,,,12,,,,63,0
91526,note_on,0,0,8,,,,,,,,,12,,,,60,0
91536,note_on,10,0,8,,,,,,,,,12,,,,63,90
91536,note_on,0,0,8,,,,,,,,,12,,,,60,90
91556,note_on,0,0,8,,,,,,,,,12,,,,63,0
91556,note_on,20,0,8,,,,,,,,,12,,,,60,0
91560,note_on,0,0,6,,,,,,,,,10,,,,84,100
91560,set_tempo,120,1,0,,,,,,356083,,,,,,,,
91560,note_on,120,0,6,,,,,,,,,10,,,,87,0
91563,note_on,0,0,7,,,,,,,,,11,,,,72,100
91563,note_on,120,0,7,,,,,,,,,11,,,,75,0
91566,note_on,10,0,8,,,,,,,,,12,,,,63,98
91566,note_on,0,0,8,,,,,,,,,12,,,,60,98
91571,note_on,60,0,9,,,,,,,,,13,,,,53,0
91571,note_on,0,0,9,,,,,,,,,13,,,,55,89
91572,note_on,0,0,3,,,,,,,,,3,,,,55,81
91572,note_on,60,0,3,,,,,,,,,3,,,,53,0
91573,note_on,60,0,10,,,,,,,,,14,,,,41,0
91573,note_on,0,0,10,,,,,,,,,14,,,,43,73
91586,note_on,0,0,8,,,,,,,,,12,,,,63,0
91586,note_on,20,0,8,,,,,,,,,12,,,,60,0
91596,note_on,0,0,8,,,,,,,,,12,,,,60,90
91596,note_on,10,0,8,,,,,,,,,12,,,,63,90
91610,note_on,50,0,6,,,,,,,,,10,,,,84,0
91613,note_on,50,0,7,,,,,,,,,11,,,,72,0
91616,note_on,0,0,8,,,,,,,,,12,,,,63,0
91616,note_on,20,0,8,,,,,,,,,12,,,,60,0
91620,note_on,10,0,6,,,,,,,,,10,,,,80,100
91623,note_on,10,0,7,,,,,,,,,11,,,,68,100
91626,note_on,10,0,8,,,,,,,,,12,,,,63,98
91626,note_on,0,0,8,,,,,,,,,12,,,,60,98
91631,note_on,0,0,9,,,,,,,,,13,,,,56,89
91631,note_on,60,0,9,,,,,,,,,13,,,,55,0
91632,note_on,0,0,3,,,,,,,,,3,,,,56,81
91632,note_on,60,0,3,,,,,,,,,3,,,,55,0
91633,note_on,0,0,10,,,,,,,,,14,,,,44,73
91633,note_on,60,0,10,,,,,,,,,14,,,,43,0
91646,note_on,0,0,8,,,,,,,,,12,,,,63,0
91646,note_on,20,0,8,,,,,,,,,12,,,,60,0
91656,note_on,10,0,8,,,,,,,,,12,,,,63,90
91656,note_on,0,0,8,,,,,,,,,12,,,,60,90
91670,note_on,50,0,6,,,,,,,,,10,,,,80,0
91673,note_on,50,0,7,,,,,,,,,11,,,,68,0
91676,note_on,0,0,8,,,,,,,,,12,,,,63,0
91676,note_on,20,0,8,,,,,,,,,12,,,,60,0
91680,note_on,10,0,6,,,,,,,,,10,,,,82,115
91680,set_tempo,120,1,0,,,,,,382166,,,,,,,,
91681,note_on,50,0,9,,,,,,,,,13,,,,56,0
91683,note_on,240,0,1,,,,,,,,,0,,,,84,0
91683,note_on,50,0,10,,,,,,,,,14,,,,44,0
91683,note_on,10,0,7,,,,,,,,,11,,,,70,115
91683,note_on,0,0,1,,,,,,,,,0,,,,85,82
91684,note_on,0,0,4,,,,,,,,,4,,,,63,86
91684,note_on,240,0,4,,,,,,,,,4,,,,63,0
91685,note_on,240,0,2,,,,,,,,,1,,,,72,0
91685,note_on,0,0,2,,,,,,,,,1,,,,73,81
91686,note_on,0,0,5,,,,,,,,,5,,,,63,86
91686,note_on,240,0,5,,,,,,,,,5,,,,63,0
91686,note_on,10,0,8,,,,,,,,,12,,,,61,98
91686,note_on,0,0,8,,,,,,,,,12,,,,63,98
91687,note_on,55,0,3,,,,,,,,,3,,,,56,0
91691,note_on,10,0,9,,,,,,,,,13,,,,56,89
91692,note_on,5,0,3,,,,,,,,,3,,,,56,81
91693,note_on,10,0,10,,,,,,,,,14,,,,44,73
91706,note_on,0,0,8,,,,,,,,,12,,,,61,0
91706,note_on,20,0,8,,,,,,,,,12,,,,63,0
91716,note_on,0,0,8,,,,,,,,,12,,,,63,90
91716,note_on,10,0,8,,,,,,,,,12,,,,61,90
91736,note_on,20,0,8,,,,,,,,,12,,,,63,0
91736,note_on,0,0,8,,,,,,,,,12,,,,61,0
91740,note_on,60,0,6,,,,,,,,,10,,,,82,0
91740,note_on,0,0,6,,,,,,,,,10,,,,84,100
91743,note_on,60,0,7,,,,,,,,,11,,,,70,0
91743,note_on,0,0,7,,,,,,,,,11,,,,72,100
91746,note_on,0,0,8,,,,,,,,,12,,,,63,98
91746,note_on,10,0,8,,,,,,,,,12,,,,61,98
91766,note_on,20,0,8,,,,,,,,,12,,,,63,0
91766,note_on,0,0,8,,,,,,,,,12,,,,61,0
91776,note_on,0,0,8,,,,,,,,,12,,,,63,90
91776,note_on,10,0,8,,,,,,,,,12,,,,61,90
91796,note_on,20,0,8,,,,,,,,,12,,,,63,0
91796,note_on,0,0,8,,,,,,,,,12,,,,61,0
91800,set_tempo,120,1,0,,,,,,356083,,,,,,,,
91800,note_on,0,0,6,,,,,,,,,10,,,,85,100
91800,note_on,60,0,6,,,,,,,,,10,,,,84,0
91803,note_on,60,0,7,,,,,,,,,11,,,,72,0
91803,note_on,0,0,7,,,,,,,,,11,,,,73,100
91806,note_on,0,0,8,,,,,,,,,12,,,,61,98
91806,note_on,10,0,8,,,,,,,,,12,,,,63,98
91811,note_on,120,0,9,,,,,,,,,13,,,,56,0
91811,note_on,0,0,9,,,,,,,,,13,,,,55,89
91812,note_on,0,0,3,,,,,,,,,3,,,,55,81
91812,note_on,120,0,3,,,,,,,,,3,,,,56,0
91813,note_on,0,0,10,,,,,,,,,14,,,,43,73
91813,note_on,120,0,10,,,,,,,,,14,,,,44,0
91826,note_on,20,0,8,,,,,,,,,12,,,,61,0
91826,note_on,0,0,8,,,,,,,,,12,,,,63,0
91836,note_on,0,0,8,,,,,,,,,12,,,,61,90
91836,note_on,10,0,8,,,,,,,,,12,,,,63,90
91856,note_on,20,0,8,,,,,,,,,12,,,,61,0
91856,note_on,0,0,8,,,,,,,,,12,,,,63,0
91860,note_on,0,0,6,,,,,,,,,10,,,,87,100
91860,note_on,60,0,6,,,,,,,,,10,,,,85,0
91863,note_on,60,0,7,,,,,,,,,11,,,,73,0
91863,note_on,0,0,7,,,,,,,,,11,,,,75,100
91866,note_on,10,0,8,,,,,,,,,12,,,,63,98
91866,note_on,0,0,8,,,,,,,,,12,,,,61,98
91871,note_on,60,0,9,,,,,,,,,13,,,,55,0
91872,note_on,60,0,3,,,,,,,,,3,,,,55,0
91873,note_on,60,0,10,,,,,,,,,14,,,,43,0
91886,note_on,20,0,8,,,,,,,,,12,,,,61,0
91886,note_on,0,0,8,,,,,,,,,12,,,,63,0
91896,note_on,10,0,8,,,,,,,,,12,,,,61,90
91896,note_on,0,0,8,,,,,,,,,12,,,,63,90
91910,note_on,50,0,6,,,,,,,,,10,,,,87,0
91913,note_on,50,0,7,,,,,,,,,11,,,,75,0
91916,note_on,20,0,8,,,,,,,,,12,,,,63,0
91916,note_on,0,0,8,,,,,,,,,12,,,,61,0
91918,note_on,235,0,1,,,,,,,,,0,,,,85,0
91920,note_on,10,0,6,,,,,,,,,10,,,,87,100
91920,set_tempo,120,1,0,,,,,,382166,,,,,,,,
91920,note_on,235,0,2,,,,,,,,,1,,,,73,0
91920,note_on,0,0,2,,,,,,,,,1,,,,75,0
91923,note_on,5,0,1,,,,,,,,,0,,,,84,82
91923,note_on,10,0,7,,,,,,,,,11,,,,75,100
91924,note_on,0,0,4,,,,,,,,,4,,,,63,86
91924,note_on,240,0,4,,,,,,,,,4,,,,63,0
91925,note_on,0,0,2,,,,,,,,,1,,,,75,81
91925,note_on,5,0,2,,,,,,,,,1,,,,72,81
91926,note_on,240,0,5,,,,,,,,,5,,,,63,0
91926,note_on,0,0,5,,,,,,,,,5,,,,63,86
91926,note_on,0,0,8,,,,,,,,,12,,,,60,98
91926,note_on,10,0,8,,,,,,,,,12,,,,63,98
91931,note_on,60,0,9,,,,,,,,,13,,,,44,89
91932,note_on,60,0,3,,,,,,,,,3,,,,56,81
91933,note_on,60,0,10,,,,,,,,,14,,,,32,73
91946,note_on,0,0,8,,,,,,,,,12,,,,63,0
91946,note_on,20,0,8,,,,,,,,,12,,,,60,0
91956,note_on,0,0,8,,,,,,,,,12,,,,63,90
91956,note_on,10,0,8,,,,,,,,,12,,,,60,90
91976,note_on,20,0,8,,,,,,,,,12,,,,63,0
91976,note_on,0,0,8,,,,,,,,,12,,,,60,0
91986,note_on,0,0,8,,,,,,,,,12,,,,60,98
91986,note_on,10,0,8,,,,,,,,,12,,,,63,98
92006,note_on,20,0,8,,,,,,,,,12,,,,60,0
92006,note_on,0,0,8,,,,,,,,,12,,,,63,0
92016,note_on,0,0,8,,,,,,,,,12,,,,63,90
92016,note_on,10,0,8,,,,,,,,,12,,,,60,90
92036,note_on,0,0,8,,,,,,,,,12,,,,60,0
92036,note_on,20,0,8,,,,,,,,,12,,,,63,0
92040,set_tempo,120,1,0,,,,,,356083,,,,,,,,
92040,note_on,120,0,6,,,,,,,,,10,,,,87,0
92040,note_on,0,0,6,,,,,,,,,10,,,,84,100
92041,note_on,110,0,9,,,,,,,,,13,,,,44,0
92043,note_on,110,0,10,,,,,,,,,14,,,,32,0
92043,note_on,0,0,7,,,,,,,,,11,,,,72,100
92043,note_on,120,0,7,,,,,,,,,11,,,,75,0
92046,note_on,10,0,8,,,,,,,,,12,,,,60,98
92046,note_on,0,0,8,,,,,,,,,12,,,,63,98
92051,note_on,10,0,9,,,,,,,,,13,,,,56,89
92053,note_on,10,0,10,,,,,,,,,14,,,,44,73
92066,note_on,20,0,8,,,,,,,,,12,,,,63,0
92066,note_on,0,0,8,,,,,,,,,12,,,,60,0
92076,note_on,10,0,8,,,,,,,,,12,,,,63,90
92076,note_on,0,0,8,,,,,,,,,12,,,,60,90
92096,note_on,0,0,8,,,,,,,,,12,,,,63,0
92096,note_on,20,0,8,,,,,,,,,12,,,,60,0
92100,note_on,60,0,6,,,,,,,,,10,,,,84,0
92103,note_on,60,0,7,,,,,,,,,11,,,,72,0
92106,note_on,0,0,8,,,,,,,,,12,,,,60,98
92106,note_on,10,0,8,,,,,,,,,12,,,,63,98
92126,note_on,20,0,8,,,,,,,,,12,,,,60,0
92126,note_on,0,0,8,,,,,,,,,12,,,,63,0
92136,note_on,10,0,8,,,,,,,,,12,,,,60,90
92136,note_on,0,0,8,,,,,,,,,12,,,,63,90
92156,note_on,20,0,8,,,,,,,,,12,,,,63,0
92156,note_on,0,0,8,,,,,,,,,12,,,,60,0
92158,note_on,235,0,1,,,,,,,,,0,,,,84,0
92160,note_on,60,0,6,,,,,,,,,10,,,,87,115
92160,set_tempo,120,1,0,,,,,,382166,,,,,,,,
92160,note_on,235,0,2,,,,,,,,,1,,,,75,0
92160,note_on,0,0,2,,,,,,,,,1,,,,72,0
92161,note_on,110,0,9,,,,,,,,,13,,,,56,0
92163,note_on,5,0,1,,,,,,,,,0,,,,82,82
92163,note_on,110,0,10,,,,,,,,,14,,,,44,0
92163,note_on,60,0,7,,,,,,,,,11,,,,75,115
92164,note_on,240,0,4,,,,,,,,,4,,,,63,0
92164,note_on,0,0,4,,,,,,,,,4,,,,63,86
92165,note_on,0,0,2,,,,,,,,,1,,,,70,81
92165,note_on,5,0,2,,,,,,,,,1,,,,75,81
92166,note_on,240,0,5,,,,,,,,,5,,,,63,0
92166,note_on,10,0,8,,,,,,,,,12,,,,58,98
92166,note_on,0,0,5,,,,,,,,,5,,,,63,86
92166,note_on,0,0,8,,,,,,,,,12,,,,63,98
92167,note_on,235,0,3,,,,,,,,,3,,,,56,0
92171,note_on,10,0,9,,,,,,,,,13,,,,55,89
92172,note_on,5,0,3,,,,,,,,,3,,,,55,81
92173,note_on,10,0,10,,,,,,,,,14,,,,43,73
92186,note_on,0,0,8,,,,,,,,,12,,,,58,0
92186,note_on,20,0,8,,,,,,,,,12,,,,63,0
92196,note_on,10,0,8,,,,,,,,,12,,,,63,90
92196,note_on,0,0,8,,,,,,,,,12,,,,58,90
92216,note_on,20,0,8,,,,,,,,,12,,,,58,0
92216,note_on,0,0,8,,,,,,,,,12,,,,63,0
92226,note_on,0,0,8,,,,,,,,,12,,,,63,98
92226,note_on,10,0,8,,,,,,,,,12,,,,58,98
92246,note_on,20,0,8,,,,,,,,,12,,,,63,0
92246,note_on,0,0,8,,,,,,,,,12,,,,58,0
92256,note_on,0,0,8,,,,,,,,,12,,,,63,90
92256,note_on,10,0,8,,,,,,,,,12,,,,58,90
92276,note_on,0,0,8,,,,,,,,,12,,,,58,0
92276,note_on,20,0,8,,,,,,,,,12,,,,63,0
92280,note_on,120,0,6,,,,,,,,,10,,,,87,0
92280,set_tempo,120,1,0,,,,,,356083,,,,,,,,
92280,note_on,0,0,6,,,,,,,,,10,,,,82,100
92281,note_on,110,0,9,,,,,,,,,13,,,,55,0
92283,note_on,0,0,7,,,,,,,,,11,,,,70,100
92283,note_on,110,0,10,,,,,,,,,14,,,,43,0
92283,note_on,120,0,7,,,,,,,,,11,,,,75,0
92286,note_on,0,0,8,,,,,,,,,12,,,,63,98
92286,note_on,10,0,8,,,,,,,,,12,,,,58,98
92291,note_on,10,0,9,,,,,,,,,13,,,,43,89
92293,note_on,10,0,10,,,,,,,,,14,,,,31,73
92306,note_on,20,0,8,,,,,,,,,12,,,,63,0
92306,note_on,0,0,8,,,,,,,,,12,,,,58,0
92316,note_on,10,0,8,,,,,,,,,12,,,,58,90
92316,note_on,0,0,8,,,,,,,,,12,,,,63,90
92336,note_on,0,0,8,,,,,,,,,12,,,,58,0
92336,note_on,20,0,8,,,,,,,,,12,,,,63,0
92340,note_on,60,0,6,,,,,,,,,10,,,,82,0
92343,note_on,60,0,7,,,,,,,,,11,,,,70,0
92346,note_on,10,0,8,,,,,,,,,12,,,,63,98
92346,note_on,0,0,8,,,,,,,,,12,,,,58,98
92366,note_on,0,0,8,,,,,,,,,12,,,,63,0
92366,note_on,20,0,8,,,,,,,,,12,,,,58,0
92376,note_on,0,0,8,,,,,,,,,12,,,,58,90
92376,note_on,10,0,8,,,,,,,,,12,,,,63,90
92396,note_on,0,0,8,,,,,,,,,12,,,,63,0
92396,note_on,20,0,8,,,,,,,,,12,,,,58,0
92398,note_on,235,0,1,,,,,,,,,0,,,,82,0
92400,note_on,235,0,2,,,,,,,,,1,,,,70,0
92400,note_on,60,0,6,,,,,,,,,10,,,,85,115
92400,set_tempo,120,1,0,,,,,,382166,,,,,,,,
92400,note_on,0,0,2,,,,,,,,,1,,,,75,0
92401,note_on,110,0,9,,,,,,,,,13,,,,43,0
92403,note_on,60,0,7,,,,,,,,,11,,,,73,115
92403,note_on,5,0,1,,,,,,,,,0,,,,85,82
92403,note_on,110,0,10,,,,,,,,,14,,,,31,0
92404,note_on,240,0,4,,,,,,,,,4,,,,63,0
92404,note_on,0,0,4,,,,,,,,,4,,,,65,86
92405,note_on,0,0,2,,,,,,,,,1,,,,73,81
92405,note_on,5,0,2,,,,,,,,,1,,,,68,81
92406,note_on,10,0,8,,,,,,,,,12,,,,68,98
92406,note_on,0,0,8,,,,,,,,,12,,,,56,98
92406,note_on,0,0,5,,,,,,,,,5,,,,65,86
92406,note_on,240,0,5,,,,,,,,,5,,,,63,0
92407,note_on,235,0,3,,,,,,,,,3,,,,55,0
92411,note_on,10,0,9,,,,,,,,,13,,,,41,89
92412,note_on,5,0,3,,,,,,,,,3,,,,53,81
92413,note_on,10,0,10,,,,,,,,,14,,,,29,73
92426,note_on,20,0,8,,,,,,,,,12,,,,56,0
92426,note_on,0,0,8,,,,,,,,,12,,,,68,0
92436,note_on,0,0,8,,,,,,,,,12,,,,56,90
92436,note_on,10,0,8,,,,,,,,,12,,,,68,90
92456,note_on,20,0,8,,,,,,,,,12,,,,56,0
92456,note_on,0,0,8,,,,,,,,,12,,,,68,0
92466,note_on,10,0,8,,,,,,,,,12,,,,68,98
92466,note_on,0,0,8,,,,,,,,,12,,,,56,98
92486,note_on,20,0,8,,,,,,,,,12,,,,56,0
92486,note_on,0,0,8,,,,,,,,,12,,,,68,0
92496,note_on,10,0,8,,,,,,,,,12,,,,68,90
92496,note_on,0,0,8,,,,,,,,,12,,,,56,90
92516,note_on,0,0,8,,,,,,,,,12,,,,68,0
92516,note_on,20,0,8,,,,,,,,,12,,,,56,0
92520,set_tempo,120,1,0,,,,,,356083,,,,,,,,
92520,note_on,120,0,6,,,,,,,,,10,,,,85,0
92520,note_on,0,0,6,,,,,,,,,10,,,,80,100
92521,note_on,110,0,9,,,,,,,,,13,,,,41,0
92523,note_on,120,0,7,,,,,,,,,11,,,,73,0
92523,note_on,0,0,7,,,,,,,,,11,,,,68,100
92523,note_on,110,0,10,,,,,,,,,14,,,,29,0
92526,note_on,0,0,8,,,,,,,,,12,,,,56,98
92526,note_on,10,0,8,,,,,,,,,12,,,,68,98
92531,note_on,10,0,9,,,,,,,,,13,,,,53,89
92533,note_on,10,0,10,,,,,,,,,14,,,,41,73
92546,note_on,0,0,8,,,,,,,,,12,,,,68,0
92546,note_on,20,0,8,,,,,,,,,12,,,,56,0
92556,note_on,10,0,8,,,,,,,,,12,,,,56,90
92556,note_on,0,0,8,,,,,,,,,12,,,,68,90
92576,note_on,20,0,8,,,,,,,,,12,,,,68,0
92576,note_on,0,0,8,,,,,,,,,12,,,,56,0
92580,note_on,60,0,6,,,,,,,,,10,,,,80,0
92583,note_on,60,0,7,,,,,,,,,11,,,,68,0
92586,note_on,0,0,8,,,,,,,,,12,,,,68,98
92586,note_on,10,0,8,,,,,,,,,12,,,,56,98
92606,note_on,20,0,8,,,,,,,,,12,,,,68,0
92606,note_on,0,0,8,,,,,,,,,12,,,,56,0
92616,note_on,10,0,8,,,,,,,,,12,,,,68,90
92616,note_on,0,0,8,,,,,,,,,12,,,,56,90
92636,note_on,20,0,8,,,,,,,,,12,,,,56,0
92636,note_on,0,0,8,,,,,,,,,12,,,,68,0
92638,note_on,235,0,1,,,,,,,,,0,,,,85,0
92640,note_on,235,0,2,,,,,,,,,1,,,,73,0
92640,set_tempo,120,1,0,,,,,,382166,,,,,,,,
92640,note_on,60,0,6,,,,,,,,,10,,,,84,115
92640,note_on,0,0,2,,,,,,,,,1,,,,68,0
92641,note_on,110,0,9,,,,,,,,,13,,,,53,0
92643,note_on,5,0,1,,,,,,,,,0,,,,84,82
92643,note_on,60,0,7,,,,,,,,,11,,,,72,115
92643,note_on,110,0,10,,,,,,,,,14,,,,41,0
92644,note_on,0,0,4,,,,,,,,,4,,,,63,86
92644,note_on,240,0,4,,,,,,,,,4,,,,65,0
92645,note_on,5,0,2,,,,,,,,,1,,,,72,81
92645,note_on,0,0,2,,,,,,,,,1,,,,68,81
92646,note_on,240,0,5,,,,,,,,,5,,,,65,0
92646,note_on,0,0,8,,,,,,,,,12,,,,68,98
92646,note_on,10,0,8,,,,,,,,,12,,,,56,98
92646,note_on,0,0,5,,,,,,,,,5,,,,63,86
92647,note_on,235,0,3,,,,,,,,,3,,,,53,0
92651,note_on,10,0,9,,,,,,,,,13,,,,51,89
92652,note_on,5,0,3,,,,,,,,,3,,,,51,81
92653,note_on,10,0,10,,,,,,,,,14,,,,39,73
92666,note_on,0,0,8,,,,,,,,,12,,,,56,0
92666,note_on,20,0,8,,,,,,,,,12,,,,68,0
92676,note_on,10,0,8,,,,,,,,,12,,,,56,90
92676,note_on,0,0,8,,,,,,,,,12,,,,68,90
92696,note_on,0,0,8,,,,,,,,,12,,,,56,0
92696,note_on,20,0,8,,,,,,,,,12,,,,68,0
92706,note_on,0,0,8,,,,,,,,,12,,,,68,98
92706,note_on,10,0,8,,,,,,,,,12,,,,56,98
92726,note_on,0,0,8,,,,,,,,,12,,,,56,0
92726,note_on,20,0,8,,,,,,,,,12,,,,68,0
92736,note_on,0,0,8,,,,,,,,,12,,,,68,90
92736,note_on,10,0,8,,,,,,,,,12,,,,56,90
92756,note_on,20,0,8,,,,,,,,,12,,,,68,0
92756,note_on,0,0,8,,,,,,,,,12,,,,56,0
92760,set_tempo,120,1,0,,,,,,356083,,,,,,,,
92760,note_on,120,0,6,,,,,,,,,10,,,,84,0
92760,note_on,0,0,6,,,,,,,,,10,,,,80,100
92761,note_on,110,0,9,,,,,,,,,13,,,,51,0
92763,note_on,120,0,7,,,,,,,,,11,,,,72,0
92763,note_on,110,0,10,,,,,,,,,14,,,,39,0
92763,note_on,0,0,7,,,,,,,,,11,,,,68,100
92766,note_on,10,0,8,,,,,,,,,12,,,,68,98
92766,note_on,0,0,8,,,,,,,,,12,,,,56,98
92771,note_on,10,0,9,,,,,,,,,13,,,,39,89
92773,note_on,10,0,10,,,,,,,,,14,,,,27,73
92786,note_on,0,0,8,,,,,,,,,12,,,,68,0
92786,note_on,20,0,8,,,,,,,,,12,,,,56,0
92796,note_on,0,0,8,,,,,,,,,12,,,,68,90
92796,note_on,10,0,8,,,,,,,,,12,,,,56,90
92816,note_on,20,0,8,,,,,,,,,12,,,,68,0
92816,note_on,0,0,8,,,,,,,,,12,,,,56,0
92820,note_on,60,0,6,,,,,,,,,10,,,,80,0
92823,note_on,60,0,7,,,,,,,,,11,,,,68,0
92826,note_on,10,0,8,,,,,,,,,12,,,,56,98
92826,note_on,0,0,8,,,,,,,,,12,,,,68,98
92846,note_on,20,0,8,,,,,,,,,12,,,,68,0
92846,note_on,0,0,8,,,,,,,,,12,,,,56,0
92850,set_tempo,90,1,0,,,,,,419580,,,,,,,,
92856,note_on,10,0,8,,,,,,,,,12,,,,56,90
92856,note_on,0,0,8,,,,,,,,,12,,,,68,90
92876,note_on,0,0,8,,,,,,,,,12,,,,56,0
92876,note_on,20,0,8,,,,,,,,,12,,,,68,0
92878,note_on,235,0,1,,,,,,,,,0,,,,84,0
92880,control_change,60,0,6,,,,,,,,,10,11,79,,,
92880,set_tempo,30,1,0,,,,,,382166,,,,,,,,
92880,note_on,235,0,2,,,,,,,,,1,,,,68,0
92880,note_on,0,0,6,,,,,,,,,10,,,,82,100
92880,note_on,0,0,2,,,,,,,,,1,,,,72,0
92881,note_on,110,0,9,,,,,,,,,13,,,,39,0
92883,note_on,110,0,10,,,,,,,,,14,,,,27,0
92883,note_on,0,0,1,,,,,,,,,0,,,,82,95
92883,control_change,5,0,1,,,,,,,,,0,11,79,,,
92883,control_change,60,0,7,,,,,,,,,11,11,79,,,
92883,note_on,0,0,7,,,,,,,,,11,,,,80,100
92884,control_change,0,0,4,,,,,,,,,4,11,79,,,
92884,note_on,0,0,4,,,,,,,,,4,,,,58,99
92884,note_on,240,0,4,,,,,,,,,4,,,,63,0
92885,control_change,5,0,2,,,,,,,,,1,11,79,,,
92885,note_on,0,0,2,,,,,,,,,1,,,,70,94
92885,note_on,0,0,2,,,,,,,,,1,,,,80,94
92886,note_on,0,0,8,,,,,,,,,12,,,,64,98
92886,control_change,10,0,8,,,,,,,,,12,11,79,,,
92886,control_change,0,0,5,,,,,,,,,5,11,79,,,
92886,note_on,0,0,5,,,,,,,,,5,,,,58,99
92886,note_on,240,0,5,,,,,,,,,5,,,,63,0
92887,note_on,235,0,3,,,,,,,,,3,,,,51,0
92891,control_change,10,0,9,,,,,,,,,13,11,79,,,
92891,note_on,0,0,9,,,,,,,,,13,,,,49,89
92892,control_change,5,0,3,,,,,,,,,3,11,79,,,
92892,note_on,0,0,3,,,,,,,,,3,,,,49,94
92893,note_on,0,0,10,,,,,,,,,14,,,,37,73
92893,control_change,10,0,10,,,,,,,,,14,11,79,,,
92903,control_change,23,0,6,,,,,,,,,10,11,75,,,
92906,control_change,23,0,1,,,,,,,,,0,11,75,,,
92906,control_change,23,0,7,,,,,,,,,11,11,75,,,
92907,control_change,23,0,4,,,,,,,,,4,11,75,,,
92908,control_change,23,0,2,,,,,,,,,1,11,75,,,
92909,control_change,23,0,5,,,,,,,,,5,11,75,,,
92909,control_change,23,0,8,,,,,,,,,12,11,75,,,
92914,control_change,23,0,9,,,,,,,,,13,11,75,,,
92915,control_change,23,0,3,,,,,,,,,3,11,75,,,
92916,control_change,23,0,10,,,,,,,,,14,11,75,,,
92929,control_change,26,0,6,,,,,,,,,10,11,71,,,
92930,note_on,1,0,6,,,,,,,,,10,,,,82,0
92932,control_change,26,0,1,,,,,,,,,0,11,71,,,
92932,control_change,26,0,7,,,,,,,,,11,11,71,,,
92933,note_on,1,0,7,,,,,,,,,11,,,,80,0
92933,control_change,26,0,4,,,,,,,,,4,11,71,,,
92934,control_change,26,0,2,,,,,,,,,1,11,71,,,
92935,control_change,26,0,5,,,,,,,,,5,11,71,,,
92935,control_change,26,0,8,,,,,,,,,12,11,71,,,
92936,note_on,1,0,8,,,,,,,,,12,,,,64,0
92940,control_change,26,0,9,,,,,,,,,13,11,71,,,
92940,note_on,10,0,6,,,,,,,,,10,,,,82,92
92941,control_change,1,0,6,,,,,,,,,10,11,68,,,
92941,control_change,26,0,3,,,,,,,,,3,11,71,,,
92942,control_change,26,0,10,,,,,,,,,14,11,71,,,
92943,note_on,10,0,7,,,,,,,,,11,,,,80,92
92944,control_change,1,0,7,,,,,,,,,11,11,68,,,
92944,control_change,12,0,1,,,,,,,,,0,11,68,,,
92945,control_change,12,0,4,,,,,,,,,4,11,68,,,
92946,note_on,10,0,8,,,,,,,,,12,,,,64,90
92946,control_change,12,0,2,,,,,,,,,1,11,68,,,
92947,control_change,1,0,8,,,,,,,,,12,11,68,,,
92947,control_change,12,0,5,,,,,,,,,5,11,68,,,
92952,control_change,12,0,9,,,,,,,,,13,11,68,,,
92953,control_change,12,0,3,,,,,,,,,3,11,68,,,
92954,control_change,12,0,10,,,,,,,,,14,11,68,,,
92966,control_change,25,0,6,,,,,,,,,10,11,64,,,
92969,control_change,25,0,1,,,,,,,,,0,11,64,,,
92969,control_change,25,0,7,,,,,,,,,11,11,64,,,
92970,control_change,25,0,4,,,,,,,,,4,11,64,,,
92971,control_change,25,0,2,,,,,,,,,1,11,64,,,
92972,control_change,25,0,8,,,,,,,,,12,11,64,,,
92972,control_change,25,0,5,,,,,,,,,5,11,64,,,
92977,control_change,25,0,9,,,,,,,,,13,11,64,,,
92978,control_change,25,0,3,,,,,,,,,3,11,64,,,
92979,control_change,25,0,10,,,,,,,,,14,11,64,,,
92990,note_on,24,0,6,,,,,,,,,10,,,,82,0
92992,control_change,2,0,6,,,,,,,,,10,11,60,,,
92993,note_on,24,0,7,,,,,,,,,11,,,,80,0
92995,control_change,26,0,1,,,,,,,,,0,11,60,,,
92995,control_change,2,0,7,,,,,,,,,11,11,60,,,
92996,control_change,26,0,4,,,,,,,,,4,11,60,,,
92996,note_on,24,0,8,,,,,,,,,12,,,,64,0
92997,control_change,26,0,2,,,,,,,,,1,11,60,,,
92998,control_change,26,0,5,,,,,,,,,5,11,60,,,
92998,control_change,2,0,8,,,,,,,,,12,11,60,,,
93000,set_tempo,120,1,0,,,,,,362538,,,,,,,,
93000,note_on,8,0,6,,,,,,,,,10,,,,82,100
93003,control_change,26,0,9,,,,,,,,,13,11,60,,,
93003,note_on,8,0,7,,,,,,,,,11,,,,80,100
93004,control_change,26,0,3,,,,,,,,,3,11,60,,,
93004,control_change,4,0,6,,,,,,,,,10,11,57,,,
93005,control_change,26,0,10,,,,,,,,,14,11,60,,,
93006,note_on,8,0,8,,,,,,,,,12,,,,64,98
93007,control_change,4,0,7,,,,,,,,,11,11,57,,,
93007,control_change,12,0,1,,,,,,,,,0,11,57,,,
93008,control_change,12,0,4,,,,,,,,,4,11,57,,,
93009,control_change,12,0,2,,,,,,,,,1,11,57,,,
93010,control_change,4,0,8,,,,,,,,,12,11,57,,,
93010,control_change,12,0,5,,,,,,,,,5,11,57,,,
93011,note_on,8,0,9,,,,,,,,,13,,,,49,0
93011,note_on,0,0,9,,,,,,,,,13,,,,58,89
93012,note_on,8,0,3,,,,,,,,,3,,,,49,0
93012,note_on,0,0,3,,,,,,,,,3,,,,58,81
93013,note_on,8,0,10,,,,,,,,,14,,,,37,0
93013,note_on,0,0,10,,,,,,,,,14,,,,46,73
93015,control_change,4,0,9,,,,,,,,,13,11,57,,,
93016,control_change,4,0,3,,,,,,,,,3,11,57,,,
93017,control_change,4,0,10,,,,,,,,,14,11,57,,,
93017,control_change,13,0,6,,,,,,,,,10,11,54,,,
93020,control_change,13,0,7,,,,,,,,,11,11,54,,,
93020,control_change,13,0,1,,,,,,,,,0,11,54,,,
93021,control_change,13,0,4,,,,,,,,,4,11,54,,,
93022,control_change,13,0,2,,,,,,,,,1,11,54,,,
93023,control_change,13,0,8,,,,,,,,,12,11,54,,,
93023,control_change,13,0,5,,,,,,,,,5,11,54,,,
93028,control_change,13,0,9,,,,,,,,,13,11,54,,,
93029,control_change,12,0,6,,,,,,,,,10,11,51,,,
93029,control_change,13,0,3,,,,,,,,,3,11,54,,,
93030,control_change,13,0,10,,,,,,,,,14,11,54,,,
93032,control_change,12,0,1,,,,,,,,,0,11,51,,,
93032,control_change,12,0,7,,,,,,,,,11,11,51,,,
93033,control_change,12,0,4,,,,,,,,,4,11,51,,,
93034,control_change,12,0,2,,,,,,,,,1,11,51,,,
93035,control_change,12,0,5,,,,,,,,,5,11,51,,,
93035,control_change,12,0,8,,,,,,,,,12,11,51,,,
93040,control_change,12,0,9,,,,,,,,,13,11,51,,,
93041,control_change,12,0,3,,,,,,,,,3,11,51,,,
93042,control_change,13,0,6,,,,,,,,,10,11,48,,,
93042,control_change,12,0,10,,,,,,,,,14,11,51,,,
93045,control_change,13,0,1,,,,,,,,,0,11,48,,,
93045,control_change,13,0,7,,,,,,,,,11,11,48,,,
93046,control_change,13,0,4,,,,,,,,,4,11,48,,,
93047,control_change,13,0,2,,,,,,,,,1,11,48,,,
93048,control_change,13,0,8,,,,,,,,,12,11,48,,,
93048,control_change,13,0,5,,,,,,,,,5,11,48,,,
93050,note_on,8,0,6,,,,,,,,,10,,,,82,0
93053,control_change,13,0,9,,,,,,,,,13,11,48,,,
93053,note_on,8,0,7,,,,,,,,,11,,,,80,0
93054,control_change,13,0,3,,,,,,,,,3,11,48,,,
93055,control_change,13,0,10,,,,,,,,,14,11,48,,,
93056,note_on,8,0,8,,,,,,,,,12,,,,64,0
93060,note_on,10,0,6,,,,,,,,,10,,,,82,92
93063,note_on,10,0,7,,,,,,,,,11,,,,80,92
93066,note_on,10,0,8,,,,,,,,,12,,,,64,90
93071,note_on,18,0,9,,,,,,,,,13,,,,58,0
93072,note_on,18,0,3,,,,,,,,,3,,,,58,0
93073,note_on,18,0,10,,,,,,,,,14,,,,46,0
93110,note_on,50,0,6,,,,,,,,,10,,,,82,0
93113,note_on,50,0,7,,,,,,,,,11,,,,80,0
93116,note_on,50,0,8,,,,,,,,,12,,,,64,0
93118,note_on,73,0,1,,,,,,,,,0,,,,82,0
93120,set_tempo,120,1,0,,,,,,382166,,,,,,,,
93120,note_on,73,0,2,,,,,,,,,1,,,,70,0
93120,note_on,0,0,2,,,,,,,,,1,,,,80,0
93120,note_on,10,0,6,,,,,,,,,10,,,,82,100
93123,note_on,5,0,1,,,,,,,,,0,,,,88,82
93123,note_on,10,0,7,,,,,,,,,11,,,,80,100
93124,note_on,78,0,4,,,,,,,,,4,,,,58,0
93125,note_on,5,0,2,,,,,,,,,1,,,,76,81
93126,note_on,78,0,5,,,,,,,,,5,,,,58,0
93126,note_on,10,0,8,,,,,,,,,12,,,,64,98
93170,note_on,50,0,6,,,,,,,,,10,,,,82,0
93173,note_on,50,0,7,,,,,,,,,11,,,,80,0
93176,note_on,50,0,8,,,,,,,,,12,,,,64,0
93180,note_on,10,0,6,,,,,,,,,10,,,,82,92
93183,note_on,10,0,7,,,,,,,,,11,,,,80,92
93186,note_on,10,0,8,,,,,,,,,12,,,,64,90
93230,note_on,50,0,6,,,,,,,,,10,,,,82,0
93233,note_on,50,0,7,,,,,,,,,11,,,,80,0
93236,note_on,50,0,8,,,,,,,,,12,,,,64,0
93240,set_tempo,120,1,0,,,,,,362538,,,,,,,,
93240,note_on,10,0,6,,,,,,,,,10,,,,82,100
93243,note_on,0,0,1,,,,,,,,,0,,,,80,82
93243,note_on,120,0,1,,,,,,,,,0,,,,88,0
93243,note_on,10,0,7,,,,,,,,,11,,,,80,100
93245,note_on,120,0,2,,,,,,,,,1,,,,76,0
93245,note_on,0,0,2,,,,,,,,,1,,,,68,81
93246,note_on,10,0,8,,,,,,,,,12,,,,64,98
93290,note_on,50,0,6,,,,,,,,,10,,,,82,0
93293,note_on,50,0,7,,,,,,,,,11,,,,80,0
93296,note_on,50,0,8,,,,,,,,,12,,,,64,0
93300,note_on,10,0,6,,,,,,,,,10,,,,82,92
93303,note_on,60,0,1,,,,,,,,,0,,,,80,0
93303,note_on,10,0,7,,,,,,,,,11,,,,80,92
93305,note_on,60,0,2,,,,,,,,,1,,,,68,0
93306,note_on,10,0,8,,,,,,,,,12,,,,64,90
93350,note_on,50,0,6,,,,,,,,,10,,,,82,0
93353,note_on,50,0,7,,,,,,,,,11,,,,80,0
93353,control_change,3,0,6,,,,,,,,,10,11,48,,,
93355,control_change,2,0,6,,,,,,,,,10,11,51,,,
93356,note_on,50,0,8,,,,,,,,,12,,,,64,0
93356,control_change,3,0,7,,,,,,,,,11,11,48,,,
93357,control_change,2,0,6,,,,,,,,,10,11,54,,,
93358,control_change,2,0,7,,,,,,,,,11,11,51,,,
93359,control_change,3,0,8,,,,,,,,,12,11,48,,,
93359,control_change,2,0,6,,,,,,,,,10,11,57,,,
93360,set_tempo,120,1,0,,,,,,382166,,,,,,,,
93360,note_on,1,0,6,,,,,,,,,10,,,,82,100
93360,control_change,2,0,7,,,,,,,,,11,11,54,,,
93361,control_change,1,0,6,,,,,,,,,10,11,60,,,
93361,control_change,2,0,8,,,,,,,,,12,11,51,,,
93362,control_change,2,0,7,,,,,,,,,11,11,57,,,
93363,control_change,2,0,8,,,,,,,,,12,11,54,,,
93363,note_on,0,0,1,,,,,,,,,0,,,,82,95
93363,note_on,1,0,7,,,,,,,,,11,,,,80,100
93363,control_change,60,0,1,,,,,,,,,0,11,79,,,
93364,control_change,293,0,9,,,,,,,,,13,11,48,,,
93364,control_change,3,0,6,,,,,,,,,10,11,64,,,
93364,note_on,0,0,4,,,,,,,,,4,,,,58,99
93364,control_change,1,0,7,,,,,,,,,11,11,60,,,
93364,control_change,240,0,4,,,,,,,,,4,11,79,,,
93365,note_on,0,0,2,,,,,,,,,1,,,,70,94
93365,note_on,0,0,2,,,,,,,,,1,,,,80,94
93365,control_change,60,0,2,,,,,,,,,1,11,79,,,
93365,control_change,2,0,8,,,,,,,,,12,11,57,,,
93366,note_on,0,0,5,,,,,,,,,5,,,,58,99
93366,control_change,2,0,9,,,,,,,,,13,11,51,,,
93366,control_change,293,0,10,,,,,,,,,14,11,48,,,
93366,control_change,240,0,5,,,,,,,,,5,11,79,,,
93366,note_on,1,0,8,,,,,,,,,12,,,,65,98
93367,control_change,3,0,7,,,,,,,,,11,11,64,,,
93367,control_change,1,0,8,,,,,,,,,12,11,60,,,
93367,control_change,3,0,6,,,,,,,,,10,11,68,,,
93368,control_change,2,0,10,,,,,,,,,14,11,51,,,
93368,control_change,2,0,9,,,,,,,,,13,11,54,,,
93369,control_change,2,0,6,,,,,,,,,10,11,71,,,
93370,control_change,3,0,7,,,,,,,,,11,11,68,,,
93370,control_change,2,0,10,,,,,,,,,14,11,54,,,
93370,control_change,3,0,8,,,,,,,,,12,11,64,,,
93370,control_change,2,0,9,,,,,,,,,13,11,57,,,
93371,note_on,1,0,9,,,,,,,,,13,,,,50,89
93372,note_on,0,0,3,,,,,,,,,3,,,,50,94
93372,control_change,2,0,10,,,,,,,,,14,11,57,,,
93372,control_change,300,0,3,,,,,,,,,3,11,79,,,
93372,control_change,2,0,7,,,,,,,,,11,11,71,,,
93372,control_change,3,0,6,,,,,,,,,10,11,75,,,
93372,control_change,1,0,9,,,,,,,,,13,11,60,,,
93373,control_change,3,0,8,,,,,,,,,12,11,68,,,
93373,note_on,1,0,10,,,,,,,,,14,,,,38,73
93374,control_change,1,0,10,,,,,,,,,14,11,60,,,
93375,control_change,3,0,7,,,,,,,,,11,11,75,,,
93375,control_change,2,0,8,,,,,,,,,12,11,71,,,
93375,control_change,3,0,9,,,,,,,,,13,11,64,,,
93377,control_change,3,0,10,,,,,,,,,14,11,64,,,
93378,control_change,3,0,9,,,,,,,,,13,11,68,,,
93378,control_change,3,0,8,,,,,,,,,12,11,75,,,
93380,control_change,3,0,10,,,,,,,,,14,11,68,,,
93380,control_change,2,0,9,,,,,,,,,13,11,71,,,
93382,control_change,2,0,10,,,,,,,,,14,11,71,,,
93383,control_change,3,0,9,,,,,,,,,13,11,75,,,
93385,control_change,3,0,10,,,,,,,,,14,11,75,,,
93386,control_change,23,0,1,,,,,,,,,0,11,75,,,
93387,control_change,23,0,4,,,,,,,,,4,11,75,,,
93388,control_change,23,0,2,,,,,,,,,1,11,75,,,
93389,control_change,23,0,5,,,,,,,,,5,11,75,,,
93395,control_change,23,0,3,,,,,,,,,3,11,75,,,
93396,control_change,24,0,6,,,,,,,,,10,11,73,,,
93399,control_change,24,0,7,,,,,,,,,11,11,73,,,
93402,control_change,24,0,8,,,,,,,,,12,11,73,,,
93407,control_change,24,0,9,,,,,,,,,13,11,73,,,
93409,control_change,24,0,10,,,,,,,,,14,11,73,,,
93410,note_on,14,0,6,,,,,,,,,10,,,,82,0
93412,control_change,26,0,1,,,,,,,,,0,11,71,,,
93413,control_change,26,0,4,,,,,,,,,4,11,71,,,
93413,note_on,14,0,7,,,,,,,,,11,,,,80,0
93414,control_change,26,0,2,,,,,,,,,1,11,71,,,
93415,control_change,26,0,5,,,,,,,,,5,11,71,,,
93416,note_on,14,0,8,,,,,,,,,12,,,,65,0
93420,note_on,10,0,6,,,,,,,,,10,,,,82,92
93421,control_change,26,0,3,,,,,,,,,3,11,71,,,
93421,control_change,1,0,6,,,,,,,,,10,11,68,,,
93423,note_on,10,0,7,,,,,,,,,11,,,,80,92
93424,control_change,12,0,1,,,,,,,,,0,11,68,,,
93424,control_change,1,0,7,,,,,,,,,11,11,68,,,
93425,control_change,12,0,4,,,,,,,,,4,11,68,,,
93426,note_on,10,0,8,,,,,,,,,12,,,,65,90
93426,control_change,12,0,2,,,,,,,,,1,11,68,,,
93427,control_change,1,0,8,,,,,,,,,12,11,68,,,
93427,control_change,12,0,5,,,,,,,,,5,11,68,,,
93432,control_change,25,0,9,,,,,,,,,13,11,68,,,
93433,control_change,12,0,3,,,,,,,,,3,11,68,,,
93434,control_change,25,0,10,,,,,,,,,14,11,68,,,
93446,control_change,25,0,6,,,,,,,,,10,11,64,,,
93449,control_change,25,0,7,,,,,,,,,11,11,64,,,
93449,control_change,25,0,1,,,,,,,,,0,11,64,,,
93450,control_change,25,0,4,,,,,,,,,4,11,64,,,
93451,control_change,25,0,2,,,,,,,,,1,11,64,,,
93452,control_change,25,0,5,,,,,,,,,5,11,64,,,
93452,control_change,25,0,8,,,,,,,,,12,11,64,,,
93457,control_change,25,0,9,,,,,,,,,13,11,64,,,
93458,control_change,25,0,3,,,,,,,,,3,11,64,,,
93459,control_change,25,0,10,,,,,,,,,14,11,64,,,
93470,note_on,24,0,6,,,,,,,,,10,,,,82,0
93472,control_change,2,0,6,,,,,,,,,10,11,60,,,
93473,note_on,24,0,7,,,,,,,,,11,,,,80,0
93475,control_change,26,0,1,,,,,,,,,0,11,60,,,
93475,control_change,2,0,7,,,,,,,,,11,11,60,,,
93476,control_change,26,0,4,,,,,,,,,4,11,60,,,
93476,note_on,24,0,8,,,,,,,,,12,,,,65,0
93477,control_change,26,0,2,,,,,,,,,1,11,60,,,
93478,control_change,2,0,8,,,,,,,,,12,11,60,,,
93478,control_change,26,0,5,,,,,,,,,5,11,60,,,
93480,note_on,8,0,6,,,,,,,,,10,,,,82,100
93480,set_tempo,120,1,0,,,,,,362538,,,,,,,,
93483,control_change,26,0,9,,,,,,,,,13,11,60,,,
93483,note_on,8,0,7,,,,,,,,,11,,,,80,100
93484,control_change,26,0,3,,,,,,,,,3,11,60,,,
93484,control_change,4,0,6,,,,,,,,,10,11,57,,,
93485,control_change,26,0,10,,,,,,,,,14,11,60,,,
93486,note_on,8,0,8,,,,,,,,,12,,,,65,98
93487,control_change,4,0,7,,,,,,,,,11,11,57,,,
93487,control_change,12,0,1,,,,,,,,,0,11,57,,,
93488,control_change,12,0,4,,,,,,,,,4,11,57,,,
93489,control_change,12,0,2,,,,,,,,,1,11,57,,,
93490,control_change,4,0,8,,,,,,,,,12,11,57,,,
93490,control_change,12,0,5,,,,,,,,,5,11,57,,,
93491,note_on,8,0,9,,,,,,,,,13,,,,50,0
93491,note_on,0,0,9,,,,,,,,,13,,,,58,89
93492,note_on,0,0,3,,,,,,,,,3,,,,58,81
93492,note_on,8,0,3,,,,,,,,,3,,,,50,0
93493,note_on,0,0,10,,,,,,,,,14,,,,46,73
93493,note_on,8,0,10,,,,,,,,,14,,,,38,0
93495,control_change,4,0,9,,,,,,,,,13,11,57,,,
93496,control_change,4,0,3,,,,,,,,,3,11,57,,,
93497,control_change,4,0,10,,,,,,,,,14,11,57,,,
93497,control_change,13,0,6,,,,,,,,,10,11,54,,,
93500,control_change,13,0,1,,,,,,,,,0,11,54,,,
93500,control_change,13,0,7,,,,,,,,,11,11,54,,,
93501,control_change,13,0,4,,,,,,,,,4,11,54,,,
93502,control_change,13,0,2,,,,,,,,,1,11,54,,,
93503,control_change,13,0,8,,,,,,,,,12,11,54,,,
93503,control_change,13,0,5,,,,,,,,,5,11,54,,,
93508,control_change,13,0,9,,,,,,,,,13,11,54,,,
93509,control_change,13,0,3,,,,,,,,,3,11,54,,,
93509,control_change,12,0,6,,,,,,,,,10,11,51,,,
93510,control_change,13,0,10,,,,,,,,,14,11,54,,,
93512,control_change,12,0,7,,,,,,,,,11,11,51,,,
93512,control_change,12,0,1,,,,,,,,,0,11,51,,,
93513,control_change,12,0,4,,,,,,,,,4,11,51,,,
93514,control_change,12,0,2,,,,,,,,,1,11,51,,,
93515,control_change,12,0,8,,,,,,,,,12,11,51,,,
93515,control_change,12,0,5,,,,,,,,,5,11,51,,,
93520,control_change,12,0,9,,,,,,,,,13,11,51,,,
93521,control_change,12,0,3,,,,,,,,,3,11,51,,,
93522,control_change,13,0,6,,,,,,,,,10,11,48,,,
93522,control_change,12,0,10,,,,,,,,,14,11,51,,,
93525,control_change,13,0,1,,,,,,,,,0,11,48,,,
93525,control_change,13,0,7,,,,,,,,,11,11,48,,,
93526,control_change,13,0,4,,,,,,,,,4,11,48,,,
93527,control_change,13,0,2,,,,,,,,,1,11,48,,,
93528,control_change,13,0,5,,,,,,,,,5,11,48,,,
93528,control_change,13,0,8,,,,,,,,,12,11,48,,,
93530,note_on,8,0,6,,,,,,,,,10,,,,82,0
93533,note_on,8,0,7,,,,,,,,,11,,,,80,0
93533,control_change,13,0,9,,,,,,,,,13,11,48,,,
93534,control_change,13,0,3,,,,,,,,,3,11,48,,,
93535,control_change,13,0,10,,,,,,,,,14,11,48,,,
93536,note_on,8,0,8,,,,,,,,,12,,,,65,0
93540,note_on,10,0,6,,,,,,,,,10,,,,82,92
93543,note_on,10,0,7,,,,,,,,,11,,,,80,92
93546,note_on,10,0,8,,,,,,,,,12,,,,65,90
93551,note_on,18,0,9,,,,,,,,,13,,,,58,0
93552,note_on,18,0,3,,,,,,,,,3,,,,58,0
93553,note_on,18,0,10,,,,,,,,,14,,,,46,0
93590,note_on,50,0,6,,,,,,,,,10,,,,82,0
93593,note_on,50,0,7,,,,,,,,,11,,,,80,0
93596,note_on,50,0,8,,,,,,,,,12,,,,65,0
93598,note_on,73,0,1,,,,,,,,,0,,,,82,0
93600,note_on,10,0,6,,,,,,,,,10,,,,82,100
93600,set_tempo,120,1,0,,,,,,382166,,,,,,,,
93600,note_on,0,0,2,,,,,,,,,1,,,,80,0
93600,note_on,73,0,2,,,,,,,,,1,,,,70,0
93603,note_on,10,0,7,,,,,,,,,11,,,,80,100
93603,note_on,5,0,1,,,,,,,,,0,,,,89,82
93604,note_on,78,0,4,,,,,,,,,4,,,,58,0
93605,note_on,5,0,2,,,,,,,,,1,,,,77,81
93606,note_on,78,0,5,,,,,,,,,5,,,,58,0
93606,note_on,10,0,8,,,,,,,,,12,,,,65,98
93650,note_on,50,0,6,,,,,,,,,10,,,,82,0
93653,note_on,50,0,7,,,,,,,,,11,,,,80,0
93656,note_on,50,0,8,,,,,,,,,12,,,,65,0
93660,note_on,10,0,6,,,,,,,,,10,,,,82,92
93663,note_on,10,0,7,,,,,,,,,11,,,,80,92
93666,note_on,10,0,8,,,,,,,,,12,,,,65,90
93710,note_on,50,0,6,,,,,,,,,10,,,,82,0
93713,note_on,50,0,7,,,,,,,,,11,,,,80,0
93716,note_on,50,0,8,,,,,,,,,12,,,,65,0
93720,set_tempo,120,1,0,,,,,,362538,,,,,,,,
93720,note_on,10,0,6,,,,,,,,,10,,,,82,100
93723,note_on,10,0,7,,,,,,,,,11,,,,80,100
93723,note_on,0,0,1,,,,,,,,,0,,,,80,82
93723,note_on,120,0,1,,,,,,,,,0,,,,89,0
93725,note_on,0,0,2,,,,,,,,,1,,,,68,81
93725,note_on,120,0,2,,,,,,,,,1,,,,77,0
93726,note_on,10,0,8,,,,,,,,,12,,,,65,98
93770,note_on,50,0,6,,,,,,,,,10,,,,82,0
93773,note_on,50,0,7,,,,,,,,,11,,,,80,0
93776,note_on,50,0,8,,,,,,,,,12,,,,65,0
93780,note_on,10,0,6,,,,,,,,,10,,,,82,92
93783,note_on,60,0,1,,,,,,,,,0,,,,80,0
93783,note_on,10,0,7,,,,,,,,,11,,,,80,92
93785,note_on,60,0,2,,,,,,,,,1,,,,68,0
93786,note_on,10,0,8,,,,,,,,,12,,,,65,90
93830,note_on,50,0,6,,,,,,,,,10,,,,82,0
93833,note_on,50,0,7,,,,,,,,,11,,,,80,0
93833,control_change,3,0,6,,,,,,,,,10,11,48,,,
93835,control_change,2,0,6,,,,,,,,,10,11,51,,,
93836,note_on,50,0,8,,,,,,,,,12,,,,65,0
93836,control_change,3,0,7,,,,,,,,,11,11,48,,,
93837,control_change,2,0,6,,,,,,,,,10,11,54,,,
93838,control_change,2,0,7,,,,,,,,,11,11,51,,,
93839,control_change,3,0,8,,,,,,,,,12,11,48,,,
93839,control_change,2,0,6,,,,,,,,,10,11,57,,,
93840,note_on,1,0,6,,,,,,,,,10,,,,82,100
93840,control_change,2,0,7,,,,,,,,,11,11,54,,,
93840,set_tempo,120,1,0,,,,,,382166,,,,,,,,
93841,control_change,1,0,6,,,,,,,,,10,11,60,,,
93841,control_change,2,0,8,,,,,,,,,12,11,51,,,
93842,control_change,2,0,7,,,,,,,,,11,11,57,,,
93843,control_change,60,0,1,,,,,,,,,0,11,79,,,
93843,note_on,1,0,7,,,,,,,,,11,,,,80,100
93843,note_on,0,0,1,,,,,,,,,0,,,,82,95
93843,control_change,2,0,8,,,,,,,,,12,11,54,,,
93844,control_change,293,0,9,,,,,,,,,13,11,48,,,
93844,control_change,3,0,6,,,,,,,,,10,11,64,,,
93844,control_change,1,0,7,,,,,,,,,11,11,60,,,
93844,note_on,0,0,4,,,,,,,,,4,,,,58,99
93844,control_change,240,0,4,,,,,,,,,4,11,79,,,
93845,control_change,60,0,2,,,,,,,,,1,11,79,,,
93845,control_change,2,0,8,,,,,,,,,12,11,57,,,
93845,note_on,0,0,2,,,,,,,,,1,,,,70,94
93846,control_change,240,0,5,,,,,,,,,5,11,79,,,
93846,control_change,2,0,9,,,,,,,,,13,11,51,,,
93846,control_change,293,0,10,,,,,,,,,14,11,48,,,
93846,note_on,1,0,8,,,,,,,,,12,,,,63,98
93846,note_on,0,0,5,,,,,,,,,5,,,,58,99
93847,control_change,3,0,6,,,,,,,,,10,11,68,,,
93847,control_change,1,0,8,,,,,,,,,12,11,60,,,
93847,control_change,3,0,7,,,,,,,,,11,11,64,,,
93848,control_change,2,0,10,,,,,,,,,14,11,51,,,
93848,control_change,2,0,9,,,,,,,,,13,11,54,,,
93849,control_change,2,0,6,,,,,,,,,10,11,71,,,
93850,control_change,2,0,9,,,,,,,,,13,11,57,,,
93850,control_change,3,0,7,,,,,,,,,11,11,68,,,
93850,control_change,2,0,10,,,,,,,,,14,11,54,,,
93850,control_change,3,0,8,,,,,,,,,12,11,64,,,
93851,note_on,1,0,9,,,,,,,,,13,,,,51,89
93852,control_change,3,0,6,,,,,,,,,10,11,75,,,
93852,control_change,2,0,10,,,,,,,,,14,11,57,,,
93852,note_on,0,0,3,,,,,,,,,3,,,,51,94
93852,control_change,300,0,3,,,,,,,,,3,11,79,,,
93852,control_change,1,0,9,,,,,,,,,13,11,60,,,
93852,control_change,2,0,7,,,,,,,,,11,11,71,,,
93853,note_on,1,0,10,,,,,,,,,14,,,,39,73
93853,control_change,3,0,8,,,,,,,,,12,11,68,,,
93854,control_change,1,0,10,,,,,,,,,14,11,60,,,
93855,control_change,3,0,7,,,,,,,,,11,11,75,,,
93855,control_change,3,0,9,,,,,,,,,13,11,64,,,
93855,control_change,2,0,8,,,,,,,,,12,11,71,,,
93857,control_change,3,0,10,,,,,,,,,14,11,64,,,
93858,control_change,3,0,8,,,,,,,,,12,11,75,,,
93858,control_change,3,0,9,,,,,,,,,13,11,68,,,
93860,control_change,2,0,9,,,,,,,,,13,11,71,,,
93860,control_change,3,0,10,,,,,,,,,14,11,68,,,
93862,control_change,2,0,10,,,,,,,,,14,11,71,,,
93863,control_change,3,0,9,,,,,,,,,13,11,75,,,
93865,control_change,3,0,10,,,,,,,,,14,11,75,,,
93866,control_change,23,0,1,,,,,,,,,0,11,75,,,
93867,control_change,23,0,4,,,,,,,,,4,11,75,,,
93868,control_change,23,0,2,,,,,,,,,1,11,75,,,
93869,control_change,23,0,5,,,,,,,,,5,11,75,,,
93875,control_change,23,0,3,,,,,,,,,3,11,75,,,
93876,control_change,24,0,6,,,,,,,,,10,11,73,,,
93879,control_change,24,0,7,,,,,,,,,11,11,73,,,
93882,control_change,24,0,8,,,,,,,,,12,11,73,,,
93887,control_change,24,0,9,,,,,,,,,13,11,73,,,
93889,control_change,24,0,10,,,,,,,,,14,11,73,,,
93890,note_on,14,0,6,,,,,,,,,10,,,,82,0
93892,control_change,26,0,1,,,,,,,,,0,11,71,,,
93893,control_change,26,0,4,,,,,,,,,4,11,71,,,
93893,note_on,14,0,7,,,,,,,,,11,,,,80,0
93894,control_change,26,0,2,,,,,,,,,1,11,71,,,
93895,control_change,26,0,5,,,,,,,,,5,11,71,,,
93896,note_on,14,0,8,,,,,,,,,12,,,,63,0
93900,note_on,10,0,6,,,,,,,,,10,,,,82,92
93901,control_change,26,0,3,,,,,,,,,3,11,71,,,
93901,control_change,1,0,6,,,,,,,,,10,11,68,,,
93903,note_on,10,0,7,,,,,,,,,11,,,,80,92
93904,control_change,12,0,1,,,,,,,,,0,11,68,,,
93904,control_change,1,0,7,,,,,,,,,11,11,68,,,
93905,control_change,12,0,4,,,,,,,,,4,11,68,,,
93906,control_change,12,0,2,,,,,,,,,1,11,68,,,
93906,note_on,10,0,8,,,,,,,,,12,,,,63,90
93907,control_change,12,0,5,,,,,,,,,5,11,68,,,
93907,control_change,1,0,8,,,,,,,,,12,11,68,,,
93912,control_change,25,0,9,,,,,,,,,13,11,68,,,
93913,control_change,12,0,3,,,,,,,,,3,11,68,,,
93914,control_change,25,0,10,,,,,,,,,14,11,68,,,
93926,control_change,25,0,6,,,,,,,,,10,11,64,,,
93929,control_change,25,0,1,,,,,,,,,0,11,64,,,
93929,control_change,25,0,7,,,,,,,,,11,11,64,,,
93930,control_change,25,0,4,,,,,,,,,4,11,64,,,
93931,control_change,25,0,2,,,,,,,,,1,11,64,,,
93932,control_change,25,0,8,,,,,,,,,12,11,64,,,
93932,control_change,25,0,5,,,,,,,,,5,11,64,,,
93937,control_change,25,0,9,,,,,,,,,13,11,64,,,
93938,control_change,25,0,3,,,,,,,,,3,11,64,,,
93939,control_change,25,0,10,,,,,,,,,14,11,64,,,
93950,note_on,24,0,6,,,,,,,,,10,,,,82,0
93952,control_change,2,0,6,,,,,,,,,10,11,60,,,
93953,note_on,24,0,7,,,,,,,,,11,,,,80,0
93955,control_change,2,0,7,,,,,,,,,11,11,60,,,
93955,control_change,26,0,1,,,,,,,,,0,11,60,,,
93956,note_on,24,0,8,,,,,,,,,12,,,,63,0
93956,control_change,26,0,4,,,,,,,,,4,11,60,,,
93957,control_change,26,0,2,,,,,,,,,1,11,60,,,
93958,control_change,26,0,5,,,,,,,,,5,11,60,,,
93958,control_change,2,0,8,,,,,,,,,12,11,60,,,
93960,note_on,8,0,6,,,,,,,,,10,,,,82,100
93960,set_tempo,120,1,0,,,,,,362538,,,,,,,,
93963,note_on,8,0,7,,,,,,,,,11,,,,80,100
93963,control_change,26,0,9,,,,,,,,,13,11,60,,,
93964,control_change,26,0,3,,,,,,,,,3,11,60,,,
93964,control_change,4,0,6,,,,,,,,,10,11,57,,,
93965,control_change,26,0,10,,,,,,,,,14,11,60,,,
93966,note_on,8,0,8,,,,,,,,,12,,,,63,98
93967,control_change,4,0,7,,,,,,,,,11,11,57,,,
93967,control_change,12,0,1,,,,,,,,,0,11,57,,,
93968,control_change,12,0,4,,,,,,,,,4,11,57,,,
93969,control_change,12,0,2,,,,,,,,,1,11,57,,,
93970,control_change,12,0,5,,,,,,,,,5,11,57,,,
93970,control_change,4,0,8,,,,,,,,,12,11,57,,,
93971,note_on,0,0,9,,,,,,,,,13,,,,58,89
93971,note_on,8,0,9,,,,,,,,,13,,,,51,0
93972,note_on,8,0,3,,,,,,,,,3,,,,51,0
93973,note_on,8,0,10,,,,,,,,,14,,,,39,0
93973,note_on,0,0,10,,,,,,,,,14,,,,46,73
93975,control_change,4,0,9,,,,,,,,,13,11,57,,,
93976,control_change,4,0,3,,,,,,,,,3,11,57,,,
93977,control_change,13,0,6,,,,,,,,,10,11,54,,,
93977,control_change,4,0,10,,,,,,,,,14,11,57,,,
93980,control_change,13,0,1,,,,,,,,,0,11,54,,,
93980,control_change,13,0,7,,,,,,,,,11,11,54,,,
93981,control_change,13,0,4,,,,,,,,,4,11,54,,,
93982,control_change,13,0,2,,,,,,,,,1,11,54,,,
93983,control_change,13,0,5,,,,,,,,,5,11,54,,,
93983,control_change,13,0,8,,,,,,,,,12,11,54,,,
93988,control_change,13,0,9,,,,,,,,,13,11,54,,,
93989,control_change,12,0,6,,,,,,,,,10,11,51,,,
93989,control_change,13,0,3,,,,,,,,,3,11,54,,,
93990,control_change,13,0,10,,,,,,,,,14,11,54,,,
93992,control_change,12,0,7,,,,,,,,,11,11,51,,,
93992,control_change,12,0,1,,,,,,,,,0,11,51,,,
93993,control_change,12,0,4,,,,,,,,,4,11,51,,,
93994,control_change,12,0,2,,,,,,,,,1,11,51,,,
93995,control_change,12,0,8,,,,,,,,,12,11,51,,,
93995,control_change,12,0,5,,,,,,,,,5,11,51,,,
94000,control_change,12,0,9,,,,,,,,,13,11,51,,,
94001,control_change,12,0,3,,,,,,,,,3,11,51,,,
94002,control_change,13,0,6,,,,,,,,,10,11,48,,,
94002,control_change,12,0,10,,,,,,,,,14,11,51,,,
94005,control_change,13,0,1,,,,,,,,,0,11,48,,,
94005,control_change,13,0,7,,,,,,,,,11,11,48,,,
94006,control_change,13,0,4,,,,,,,,,4,11,48,,,
94007,control_change,13,0,2,,,,,,,,,1,11,48,,,
94008,control_change,13,0,8,,,,,,,,,12,11,48,,,
94008,control_change,13,0,5,,,,,,,,,5,11,48,,,
94010,note_on,8,0,6,,,,,,,,,10,,,,82,0
94013,control_change,13,0,9,,,,,,,,,13,11,48,,,
94013,note_on,8,0,7,,,,,,,,,11,,,,80,0
94014,control_change,13,0,3,,,,,,,,,3,11,48,,,
94015,control_change,13,0,10,,,,,,,,,14,11,48,,,
94016,note_on,8,0,8,,,,,,,,,12,,,,63,0
94020,note_on,10,0,6,,,,,,,,,10,,,,82,92
94023,note_on,10,0,7,,,,,,,,,11,,,,80,92
94026,note_on,10,0,8,,,,,,,,,12,,,,63,90
94031,note_on,18,0,9,,,,,,,,,13,,,,58,0
94033,note_on,18,0,10,,,,,,,,,14,,,,46,0
94070,note_on,50,0,6,,,,,,,,,10,,,,82,0
94073,note_on,50,0,7,,,,,,,,,11,,,,80,0
94076,note_on,50,0,8,,,,,,,,,12,,,,63,0
94078,note_on,73,0,1,,,,,,,,,0,,,,82,0
94080,note_on,73,0,2,,,,,,,,,1,,,,70,0
94080,set_tempo,120,1,0,,,,,,382166,,,,,,,,
94080,note_on,10,0,6,,,,,,,,,10,,,,82,100
94083,note_on,5,0,1,,,,,,,,,0,,,,87,82
94083,note_on,10,0,7,,,,,,,,,11,,,,80,100
94084,note_on,78,0,4,,,,,,,,,4,,,,58,0
94085,note_on,5,0,2,,,,,,,,,1,,,,75,81
94086,note_on,78,0,5,,,,,,,,,5,,,,58,0
94086,note_on,10,0,8,,,,,,,,,12,,,,63,98
94130,note_on,50,0,6,,,,,,,,,10,,,,82,0
94133,note_on,50,0,7,,,,,,,,,11,,,,80,0
94136,note_on,50,0,8,,,,,,,,,12,,,,63,0
94140,note_on,10,0,6,,,,,,,,,10,,,,82,92
94143,note_on,10,0,7,,,,,,,,,11,,,,80,92
94146,note_on,10,0,8,,,,,,,,,12,,,,63,90
94190,note_on,50,0,6,,,,,,,,,10,,,,82,0
94193,note_on,50,0,7,,,,,,,,,11,,,,80,0
94196,note_on,50,0,8,,,,,,,,,12,,,,63,0
94200,note_on,10,0,6,,,,,,,,,10,,,,82,100
94200,set_tempo,120,1,0,,,,,,362538,,,,,,,,
94203,note_on,0,0,1,,,,,,,,,0,,,,80,82
94203,note_on,120,0,1,,,,,,,,,0,,,,87,0
94203,note_on,10,0,7,,,,,,,,,11,,,,80,100
94205,note_on,0,0,2,,,,,,,,,1,,,,68,81
94205,note_on,120,0,2,,,,,,,,,1,,,,75,0
94206,note_on,10,0,8,,,,,,,,,12,,,,63,98
94250,note_on,50,0,6,,,,,,,,,10,,,,82,0
94253,note_on,50,0,7,,,,,,,,,11,,,,80,0
94256,note_on,50,0,8,,,,,,,,,12,,,,63,0
94260,note_on,10,0,6,,,,,,,,,10,,,,82,92
94263,note_on,10,0,7,,,,,,,,,11,,,,80,92
94263,note_on,60,0,1,,,,,,,,,0,,,,80,0
94265,note_on,60,0,2,,,,,,,,,1,,,,68,0
94266,note_on,10,0,8,,,,,,,,,12,,,,63,90
94310,note_on,50,0,6,,,,,,,,,10,,,,82,0
94313,control_change,3,0,6,,,,,,,,,10,11,48,,,
94313,note_on,50,0,7,,,,,,,,,11,,,,80,0
94315,control_change,2,0,6,,,,,,,,,10,11,51,,,
94316,note_on,50,0,8,,,,,,,,,12,,,,63,0
94316,control_change,3,0,7,,,,,,,,,11,11,48,,,
94317,control_change,2,0,6,,,,,,,,,10,11,54,,,
94318,control_change,2,0,7,,,,,,,,,11,11,51,,,
94319,control_change,2,0,6,,,,,,,,,10,11,57,,,
94319,control_change,3,0,8,,,,,,,,,12,11,48,,,
94320,set_tempo,120,1,0,,,,,,382166,,,,,,,,
94320,note_on,1,0,6,,,,,,,,,10,,,,82,100
94320,control_change,2,0,7,,,,,,,,,11,11,54,,,
94321,control_change,2,0,8,,,,,,,,,12,11,51,,,
94321,control_change,1,0,6,,,,,,,,,10,11,60,,,
94322,control_change,2,0,7,,,,,,,,,11,11,57,,,
94323,note_on,1,0,7,,,,,,,,,11,,,,80,100
94323,control_change,2,0,8,,,,,,,,,12,11,54,,,
94323,note_on,0,0,1,,,,,,,,,0,,,,82,95
94323,control_change,60,0,1,,,,,,,,,0,11,79,,,
94324,control_change,293,0,9,,,,,,,,,13,11,48,,,
94324,control_change,3,0,6,,,,,,,,,10,11,64,,,
94324,note_on,0,0,4,,,,,,,,,4,,,,58,99
94324,control_change,1,0,7,,,,,,,,,11,11,60,,,
94324,control_change,240,0,4,,,,,,,,,4,11,79,,,
94325,control_change,2,0,8,,,,,,,,,12,11,57,,,
94325,control_change,60,0,2,,,,,,,,,1,11,79,,,
94325,note_on,0,0,2,,,,,,,,,1,,,,70,94
94326,control_change,240,0,5,,,,,,,,,5,11,79,,,
94326,note_on,1,0,8,,,,,,,,,12,,,,62,98
94326,control_change,293,0,10,,,,,,,,,14,11,48,,,
94326,control_change,2,0,9,,,,,,,,,13,11,51,,,
94326,note_on,0,0,5,,,,,,,,,5,,,,58,99
94327,control_change,3,0,6,,,,,,,,,10,11,68,,,
94327,control_change,3,0,7,,,,,,,,,11,11,64,,,
94327,control_change,1,0,8,,,,,,,,,12,11,60,,,
94328,control_change,2,0,9,,,,,,,,,13,11,54,,,
94328,control_change,2,0,10,,,,,,,,,14,11,51,,,
94329,control_change,2,0,6,,,,,,,,,10,11,71,,,
94330,control_change,2,0,10,,,,,,,,,14,11,54,,,
94330,control_change,3,0,8,,,,,,,,,12,11,64,,,
94330,control_change,3,0,7,,,,,,,,,11,11,68,,,
94330,control_change,2,0,9,,,,,,,,,13,11,57,,,
94331,note_on,1,0,9,,,,,,,,,13,,,,52,89
94332,control_change,2,0,7,,,,,,,,,11,11,71,,,
94332,control_change,3,0,6,,,,,,,,,10,11,75,,,
94332,control_change,2,0,10,,,,,,,,,14,11,57,,,
94332,control_change,318,0,3,,,,,,,,,3,11,79,,,
94332,note_on,0,0,3,,,,,,,,,3,,,,52,94
94332,control_change,1,0,9,,,,,,,,,13,11,60,,,
94333,note_on,1,0,10,,,,,,,,,14,,,,40,73
94333,control_change,3,0,8,,,,,,,,,12,11,68,,,
94334,control_change,1,0,10,,,,,,,,,14,11,60,,,
94335,control_change,3,0,9,,,,,,,,,13,11,64,,,
94335,control_change,3,0,7,,,,,,,,,11,11,75,,,
94335,control_change,2,0,8,,,,,,,,,12,11,71,,,
94337,control_change,3,0,10,,,,,,,,,14,11,64,,,
94338,control_change,3,0,9,,,,,,,,,13,11,68,,,
94338,control_change,3,0,8,,,,,,,,,12,11,75,,,
94340,control_change,3,0,10,,,,,,,,,14,11,68,,,
94340,control_change,2,0,9,,,,,,,,,13,11,71,,,
94342,control_change,2,0,10,,,,,,,,,14,11,71,,,
94343,control_change,3,0,9,,,,,,,,,13,11,75,,,
94345,control_change,3,0,10,,,,,,,,,14,11,75,,,
94346,control_change,23,0,1,,,,,,,,,0,11,75,,,
94347,control_change,23,0,4,,,,,,,,,4,11,75,,,
94348,control_change,23,0,2,,,,,,,,,1,11,75,,,
94349,control_change,23,0,5,,,,,,,,,5,11,75,,,
94355,control_change,23,0,3,,,,,,,,,3,11,75,,,
94356,control_change,24,0,6,,,,,,,,,10,11,73,,,
94359,control_change,24,0,7,,,,,,,,,11,11,73,,,
94362,control_change,24,0,8,,,,,,,,,12,11,73,,,
94367,control_change,24,0,9,,,,,,,,,13,11,73,,,
94369,control_change,24,0,10,,,,,,,,,14,11,73,,,
94370,note_on,14,0,6,,,,,,,,,10,,,,82,0
94372,control_change,26,0,1,,,,,,,,,0,11,71,,,
94373,control_change,26,0,4,,,,,,,,,4,11,71,,,
94373,note_on,14,0,7,,,,,,,,,11,,,,80,0
94374,control_change,26,0,2,,,,,,,,,1,11,71,,,
94375,control_change,26,0,5,,,,,,,,,5,11,71,,,
94376,note_on,14,0,8,,,,,,,,,12,,,,62,0
94380,note_on,10,0,6,,,,,,,,,10,,,,82,92
94381,control_change,26,0,3,,,,,,,,,3,11,71,,,
94381,control_change,1,0,6,,,,,,,,,10,11,68,,,
94383,note_on,10,0,7,,,,,,,,,11,,,,80,92
94384,control_change,1,0,7,,,,,,,,,11,11,68,,,
94384,control_change,12,0,1,,,,,,,,,0,11,68,,,
94385,control_change,12,0,4,,,,,,,,,4,11,68,,,
94386,control_change,12,0,2,,,,,,,,,1,11,68,,,
94386,note_on,10,0,8,,,,,,,,,12,,,,62,90
94387,control_change,1,0,8,,,,,,,,,12,11,68,,,
94387,control_change,12,0,5,,,,,,,,,5,11,68,,,
94392,control_change,25,0,9,,,,,,,,,13,11,68,,,
94393,control_change,12,0,3,,,,,,,,,3,11,68,,,
94394,control_change,25,0,10,,,,,,,,,14,11,68,,,
94406,control_change,25,0,6,,,,,,,,,10,11,64,,,
94409,control_change,25,0,7,,,,,,,,,11,11,64,,,
94409,control_change,25,0,1,,,,,,,,,0,11,64,,,
94410,control_change,25,0,4,,,,,,,,,4,11,64,,,
94411,control_change,25,0,2,,,,,,,,,1,11,64,,,
94412,control_change,25,0,8,,,,,,,,,12,11,64,,,
94412,control_change,25,0,5,,,,,,,,,5,11,64,,,
94417,control_change,25,0,9,,,,,,,,,13,11,64,,,
94418,control_change,25,0,3,,,,,,,,,3,11,64,,,
94419,control_change,25,0,10,,,,,,,,,14,11,64,,,
94430,note_on,24,0,6,,,,,,,,,10,,,,82,0
94432,control_change,2,0,6,,,,,,,,,10,11,60,,,
94433,note_on,24,0,7,,,,,,,,,11,,,,80,0
94435,control_change,2,0,7,,,,,,,,,11,11,60,,,
94435,control_change,26,0,1,,,,,,,,,0,11,60,,,
94436,note_on,24,0,8,,,,,,,,,12,,,,62,0
94436,control_change,26,0,4,,,,,,,,,4,11,60,,,
94437,control_change,26,0,2,,,,,,,,,1,11,60,,,
94438,control_change,26,0,5,,,,,,,,,5,11,60,,,
94438,control_change,2,0,8,,,,,,,,,12,11,60,,,
94440,note_on,8,0,6,,,,,,,,,10,,,,82,100
94440,set_tempo,120,1,0,,,,,,362538,,,,,,,,
94443,note_on,8,0,7,,,,,,,,,11,,,,80,100
94443,control_change,26,0,9,,,,,,,,,13,11,60,,,
94444,control_change,26,0,3,,,,,,,,,3,11,60,,,
94444,control_change,4,0,6,,,,,,,,,10,11,57,,,
94445,control_change,26,0,10,,,,,,,,,14,11,60,,,
94446,note_on,8,0,8,,,,,,,,,12,,,,62,98
94447,control_change,12,0,1,,,,,,,,,0,11,57,,,
94447,control_change,4,0,7,,,,,,,,,11,11,57,,,
94448,control_change,12,0,4,,,,,,,,,4,11,57,,,
94449,control_change,12,0,2,,,,,,,,,1,11,57,,,
94450,control_change,12,0,5,,,,,,,,,5,11,57,,,
94450,control_change,4,0,8,,,,,,,,,12,11,57,,,
94451,note_on,8,0,9,,,,,,,,,13,,,,52,0
94451,note_on,0,0,9,,,,,,,,,13,,,,58,89
94452,note_on,8,0,3,,,,,,,,,3,,,,52,0
94453,note_on,0,0,10,,,,,,,,,14,,,,46,73
94453,note_on,8,0,10,,,,,,,,,14,,,,40,0
94455,control_change,4,0,9,,,,,,,,,13,11,57,,,
94456,control_change,4,0,3,,,,,,,,,3,11,57,,,
94457,control_change,4,0,10,,,,,,,,,14,11,57,,,
94457,control_change,13,0,6,,,,,,,,,10,11,54,,,
94460,control_change,13,0,1,,,,,,,,,0,11,54,,,
94460,control_change,13,0,7,,,,,,,,,11,11,54,,,
94461,control_change,13,0,4,,,,,,,,,4,11,54,,,
94462,control_change,13,0,2,,,,,,,,,1,11,54,,,
94463,control_change,13,0,5,,,,,,,,,5,11,54,,,
94463,control_change,13,0,8,,,,,,,,,12,11,54,,,
94468,control_change,13,0,9,,,,,,,,,13,11,54,,,
94469,control_change,12,0,6,,,,,,,,,10,11,51,,,
94469,control_change,13,0,3,,,,,,,,,3,11,54,,,
94470,control_change,13,0,10,,,,,,,,,14,11,54,,,
94472,control_change,12,0,1,,,,,,,,,0,11,51,,,
94472,control_change,12,0,7,,,,,,,,,11,11,51,,,
94473,control_change,12,0,4,,,,,,,,,4,11,51,,,
94474,control_change,12,0,2,,,,,,,,,1,11,51,,,
94475,control_change,12,0,8,,,,,,,,,12,11,51,,,
94475,control_change,12,0,5,,,,,,,,,5,11,51,,,
94480,control_change,12,0,9,,,,,,,,,13,11,51,,,
94481,control_change,12,0,3,,,,,,,,,3,11,51,,,
94482,control_change,13,0,6,,,,,,,,,10,11,48,,,
94482,control_change,12,0,10,,,,,,,,,14,11,51,,,
94485,control_change,13,0,7,,,,,,,,,11,11,48,,,
94485,control_change,13,0,1,,,,,,,,,0,11,48,,,
94486,control_change,13,0,4,,,,,,,,,4,11,48,,,
94487,control_change,13,0,2,,,,,,,,,1,11,48,,,
94488,control_change,13,0,5,,,,,,,,,5,11,48,,,
94488,control_change,13,0,8,,,,,,,,,12,11,48,,,
94490,note_on,8,0,6,,,,,,,,,10,,,,82,0
94493,control_change,13,0,9,,,,,,,,,13,11,48,,,
94493,note_on,8,0,7,,,,,,,,,11,,,,80,0
94494,control_change,13,0,3,,,,,,,,,3,11,48,,,
94495,control_change,13,0,10,,,,,,,,,14,11,48,,,
94496,note_on,8,0,8,,,,,,,,,12,,,,62,0
94500,note_on,10,0,6,,,,,,,,,10,,,,82,92
94503,note_on,10,0,7,,,,,,,,,11,,,,80,92
94506,note_on,10,0,8,,,,,,,,,12,,,,62,90
94511,note_on,18,0,9,,,,,,,,,13,,,,58,0
94513,note_on,18,0,10,,,,,,,,,14,,,,46,0
94550,note_on,50,0,6,,,,,,,,,10,,,,82,0
94553,note_on,50,0,7,,,,,,,,,11,,,,80,0
94556,note_on,50,0,8,,,,,,,,,12,,,,62,0
94558,note_on,73,0,1,,,,,,,,,0,,,,82,0
94560,note_on,73,0,2,,,,,,,,,1,,,,70,0
94560,note_on,10,0,6,,,,,,,,,10,,,,82,100
94560,set_tempo,120,1,0,,,,,,382166,,,,,,,,
94563,note_on,5,0,1,,,,,,,,,0,,,,86,82
94563,note_on,10,0,7,,,,,,,,,11,,,,80,100
94564,note_on,78,0,4,,,,,,,,,4,,,,58,0
94565,note_on,5,0,2,,,,,,,,,1,,,,74,81
94566,note_on,78,0,5,,,,,,,,,5,,,,58,0
94566,note_on,10,0,8,,,,,,,,,12,,,,62,98
94610,note_on,50,0,6,,,,,,,,,10,,,,82,0
94613,note_on,50,0,7,,,,,,,,,11,,,,80,0
94616,note_on,50,0,8,,,,,,,,,12,,,,62,0
94620,note_on,10,0,6,,,,,,,,,10,,,,82,92
94623,note_on,10,0,7,,,,,,,,,11,,,,80,92
94626,note_on,10,0,8,,,,,,,,,12,,,,62,90
94670,note_on,50,0,6,,,,,,,,,10,,,,82,0
94673,note_on,50,0,7,,,,,,,,,11,,,,80,0
94676,note_on,50,0,8,,,,,,,,,12,,,,62,0
94680,set_tempo,120,1,0,,,,,,362538,,,,,,,,
94680,note_on,10,0,6,,,,,,,,,10,,,,82,100
94683,note_on,0,0,1,,,,,,,,,0,,,,80,82
94683,note_on,120,0,1,,,,,,,,,0,,,,86,0
94683,note_on,10,0,7,,,,,,,,,11,,,,80,100
94685,note_on,120,0,2,,,,,,,,,1,,,,74,0
94685,note_on,0,0,2,,,,,,,,,1,,,,68,81
94686,note_on,10,0,8,,,,,,,,,12,,,,62,98
94730,note_on,50,0,6,,,,,,,,,10,,,,82,0
94733,note_on,50,0,7,,,,,,,,,11,,,,80,0
94736,note_on,50,0,8,,,,,,,,,12,,,,62,0
94740,note_on,10,0,6,,,,,,,,,10,,,,82,92
94743,note_on,10,0,7,,,,,,,,,11,,,,80,92
94743,note_on,60,0,1,,,,,,,,,0,,,,80,0
94745,note_on,60,0,2,,,,,,,,,1,,,,68,0
94746,note_on,10,0,8,,,,,,,,,12,,,,62,90
94790,note_on,50,0,6,,,,,,,,,10,,,,82,0
94793,control_change,3,0,6,,,,,,,,,10,11,48,,,
94793,note_on,50,0,7,,,,,,,,,11,,,,80,0
94795,control_change,2,0,6,,,,,,,,,10,11,51,,,
94796,note_on,50,0,8,,,,,,,,,12,,,,62,0
94796,control_change,3,0,7,,,,,,,,,11,11,48,,,
94797,control_change,2,0,6,,,,,,,,,10,11,54,,,
94798,control_change,2,0,7,,,,,,,,,11,11,51,,,
94799,control_change,2,0,6,,,,,,,,,10,11,57,,,
94799,control_change,3,0,8,,,,,,,,,12,11,48,,,
94800,note_on,1,0,6,,,,,,,,,10,,,,82,100
94800,control_change,2,0,7,,,,,,,,,11,11,54,,,
94800,set_tempo,120,1,0,,,,,,394737,,,,,,,,
94801,control_change,2,0,8,,,,,,,,,12,11,51,,,
94801,control_change,1,0,6,,,,,,,,,10,11,60,,,
94802,control_change,2,0,7,,,,,,,,,11,11,57,,,
94803,control_change,2,0,8,,,,,,,,,12,11,54,,,
94803,control_change,60,0,1,,,,,,,,,0,11,79,,,
94803,note_on,0,0,1,,,,,,,,,0,,,,87,82
94803,note_on,1,0,7,,,,,,,,,11,,,,79,100
94804,control_change,1,0,7,,,,,,,,,11,11,60,,,
94804,control_change,240,0,4,,,,,,,,,4,11,79,,,
94804,note_on,0,0,4,,,,,,,,,4,,,,63,86
94804,control_change,3,0,6,,,,,,,,,10,11,64,,,
94804,control_change,293,0,9,,,,,,,,,13,11,48,,,
94805,control_change,60,0,2,,,,,,,,,1,11,79,,,
94805,control_change,2,0,8,,,,,,,,,12,11,57,,,
94805,note_on,0,0,2,,,,,,,,,1,,,,75,81
94806,note_on,0,0,5,,,,,,,,,5,,,,58,86
94806,control_change,240,0,5,,,,,,,,,5,11,79,,,
94806,note_on,1,0,8,,,,,,,,,12,,,,63,98
94806,control_change,2,0,9,,,,,,,,,13,11,51,,,
94806,control_change,293,0,10,,,,,,,,,14,11,48,,,
94807,control_change,3,0,7,,,,,,,,,11,11,64,,,
94807,control_change,3,0,6,,,,,,,,,10,11,68,,,
94807,control_change,1,0,8,,,,,,,,,12,11,60,,,
94808,control_change,2,0,9,,,,,,,,,13,11,54,,,
94808,control_change,2,0,10,,,,,,,,,14,11,51,,,
94809,control_change,2,0,6,,,,,,,,,10,11,71,,,
94810,control_change,2,0,9,,,,,,,,,13,11,57,,,
94810,control_change,2,0,10,,,,,,,,,14,11,54,,,
94810,control_change,3,0,8,,,,,,,,,12,11,64,,,
94810,control_change,3,0,7,,,,,,,,,11,11,68,,,
94811,note_on,1,0,9,,,,,,,,,13,,,,51,89
94812,control_change,2,0,10,,,,,,,,,14,11,57,,,
94812,control_change,318,0,3,,,,,,,,,3,11,79,,,
94812,note_on,0,0,3,,,,,,,,,3,,,,51,81
94812,control_change,1,0,9,,,,,,,,,13,11,60,,,
94812,control_change,3,0,6,,,,,,,,,10,11,75,,,
94812,control_change,2,0,7,,,,,,,,,11,11,71,,,
94813,control_change,3,0,8,,,,,,,,,12,11,68,,,
94813,note_on,1,0,10,,,,,,,,,14,,,,39,73
94814,control_change,1,0,10,,,,,,,,,14,11,60,,,
94815,control_change,3,0,9,,,,,,,,,13,11,64,,,
94815,control_change,3,0,7,,,,,,,,,11,11,75,,,
94815,control_change,2,0,8,,,,,,,,,12,11,71,,,
94817,control_change,3,0,10,,,,,,,,,14,11,64,,,
94818,control_change,3,0,9,,,,,,,,,13,11,68,,,
94818,control_change,3,0,8,,,,,,,,,12,11,75,,,
94820,control_change,17,0,1,,,,,,,,,0,11,75,,,
94820,control_change,2,0,9,,,,,,,,,13,11,71,,,
94820,control_change,3,0,10,,,,,,,,,14,11,68,,,
94821,control_change,17,0,4,,,,,,,,,4,11,75,,,
94822,control_change,2,0,10,,,,,,,,,14,11,71,,,
94822,control_change,17,0,2,,,,,,,,,1,11,75,,,
94823,control_change,3,0,9,,,,,,,,,13,11,75,,,
94823,control_change,17,0,5,,,,,,,,,5,11,75,,,
94825,control_change,3,0,10,,,,,,,,,14,11,75,,,
94829,control_change,17,0,3,,,,,,,,,3,11,75,,,
94835,control_change,23,0,6,,,,,,,,,10,11,71,,,
94838,control_change,23,0,7,,,,,,,,,11,11,71,,,
94838,control_change,18,0,1,,,,,,,,,0,11,71,,,
94839,control_change,18,0,4,,,,,,,,,4,11,71,,,
94840,control_change,18,0,2,,,,,,,,,1,11,71,,,
94841,control_change,18,0,5,,,,,,,,,5,11,71,,,
94841,control_change,23,0,8,,,,,,,,,12,11,71,,,
94844,control_change,9,0,6,,,,,,,,,10,11,68,,,
94846,control_change,23,0,9,,,,,,,,,13,11,71,,,
94847,control_change,9,0,1,,,,,,,,,0,11,68,,,
94847,control_change,9,0,7,,,,,,,,,11,11,68,,,
94847,control_change,18,0,3,,,,,,,,,3,11,71,,,
94848,control_change,23,0,10,,,,,,,,,14,11,71,,,
94848,control_change,9,0,4,,,,,,,,,4,11,68,,,
94849,control_change,9,0,2,,,,,,,,,1,11,68,,,
94850,control_change,9,0,5,,,,,,,,,5,11,68,,,
94850,control_change,9,0,8,,,,,,,,,12,11,68,,,
94855,control_change,9,0,9,,,,,,,,,13,11,68,,,
94856,control_change,9,0,3,,,,,,,,,3,11,68,,,
94857,control_change,9,0,10,,,,,,,,,14,11,68,,,
94862,control_change,18,0,6,,,,,,,,,10,11,64,,,
94865,control_change,18,0,1,,,,,,,,,0,11,64,,,
94865,control_change,18,0,7,,,,,,,,,11,11,64,,,
94866,control_change,18,0,4,,,,,,,,,4,11,64,,,
94867,control_change,18,0,2,,,,,,,,,1,11,64,,,
94868,control_change,18,0,5,,,,,,,,,5,11,64,,,
94868,control_change,18,0,8,,,,,,,,,12,11,64,,,
94873,control_change,18,0,9,,,,,,,,,13,11,64,,,
94874,control_change,18,0,3,,,,,,,,,3,11,64,,,
94875,control_change,18,0,10,,,,,,,,,14,11,64,,,
94880,control_change,18,0,6,,,,,,,,,10,11,60,,,
94883,control_change,18,0,7,,,,,,,,,11,11,60,,,
94883,control_change,18,0,1,,,,,,,,,0,11,60,,,
94884,control_change,18,0,4,,,,,,,,,4,11,60,,,
94885,control_change,18,0,2,,,,,,,,,1,11,60,,,
94886,control_change,18,0,5,,,,,,,,,5,11,60,,,
94886,control_change,18,0,8,,,,,,,,,12,11,60,,,
94889,control_change,9,0,6,,,,,,,,,10,11,57,,,
94891,control_change,18,0,9,,,,,,,,,13,11,60,,,
94892,control_change,9,0,1,,,,,,,,,0,11,57,,,
94892,control_change,18,0,3,,,,,,,,,3,11,60,,,
94892,control_change,9,0,7,,,,,,,,,11,11,57,,,
94893,control_change,9,0,4,,,,,,,,,4,11,57,,,
94893,control_change,18,0,10,,,,,,,,,14,11,60,,,
94894,control_change,9,0,2,,,,,,,,,1,11,57,,,
94895,control_change,9,0,8,,,,,,,,,12,11,57,,,
94895,control_change,9,0,5,,,,,,,,,5,11,57,,,
94898,control_change,9,0,6,,,,,,,,,10,11,54,,,
94900,control_change,9,0,9,,,,,,,,,13,11,57,,,
94901,control_change,9,0,7,,,,,,,,,11,11,54,,,
94901,control_change,9,0,1,,,,,,,,,0,11,54,,,
94901,control_change,9,0,3,,,,,,,,,3,11,57,,,
94902,control_change,9,0,4,,,,,,,,,4,11,54,,,
94902,control_change,9,0,10,,,,,,,,,14,11,57,,,
94903,control_change,9,0,2,,,,,,,,,1,11,54,,,
94904,control_change,9,0,5,,,,,,,,,5,11,54,,,
94904,control_change,9,0,8,,,,,,,,,12,11,54,,,
94907,control_change,9,0,6,,,,,,,,,10,11,51,,,
94909,control_change,9,0,9,,,,,,,,,13,11,54,,,
94910,control_change,9,0,7,,,,,,,,,11,11,51,,,
94910,control_change,9,0,1,,,,,,,,,0,11,51,,,
94910,control_change,9,0,3,,,,,,,,,3,11,54,,,
94911,control_change,9,0,10,,,,,,,,,14,11,54,,,
94911,control_change,9,0,4,,,,,,,,,4,11,51,,,
94912,control_change,9,0,2,,,,,,,,,1,11,51,,,
94913,control_change,9,0,8,,,,,,,,,12,11,51,,,
94913,control_change,9,0,5,,,,,,,,,5,11,51,,,
94916,control_change,9,0,6,,,,,,,,,10,11,48,,,
94916,note_on,3,0,8,,,,,,,,,12,,,,63,0
94918,control_change,9,0,9,,,,,,,,,13,11,51,,,
94919,control_change,9,0,1,,,,,,,,,0,11,48,,,
94919,control_change,9,0,7,,,,,,,,,11,11,48,,,
94919,control_change,9,0,3,,,,,,,,,3,11,51,,,
94920,set_tempo,120,1,0,,,,,,372671,,,,,,,,
94920,note_on,4,0,6,,,,,,,,,10,,,,82,0
94920,control_change,9,0,10,,,,,,,,,14,11,51,,,
94920,control_change,9,0,4,,,,,,,,,4,11,48,,,
94921,control_change,9,0,2,,,,,,,,,1,11,48,,,
94921,note_on,3,0,9,,,,,,,,,13,,,,51,0
94922,control_change,6,0,8,,,,,,,,,12,11,48,,,
94922,control_change,9,0,5,,,,,,,,,5,11,48,,,
94923,note_on,4,0,1,,,,,,,,,0,,,,87,0
94923,note_on,3,0,10,,,,,,,,,14,,,,39,0
94923,note_on,4,0,7,,,,,,,,,11,,,,79,0
94924,note_on,4,0,4,,,,,,,,,4,,,,63,0
94925,note_on,4,0,2,,,,,,,,,1,,,,75,0
94926,note_on,4,0,5,,,,,,,,,5,,,,58,0
94926,note_on,4,0,8,,,,,,,,,12,,,,51,98
94927,control_change,6,0,9,,,,,,,,,13,11,48,,,
94928,control_change,9,0,3,,,,,,,,,3,11,48,,,
94929,control_change,6,0,10,,,,,,,,,14,11,48,,,
94931,note_on,4,0,9,,,,,,,,,13,,,,63,89
94932,note_on,4,0,3,,,,,,,,,3,,,,51,0
94933,note_on,4,0,10,,,,,,,,,14,,,,51,73
94980,note_on,60,0,6,,,,,,,,,10,,,,67,92
94983,note_on,60,0,7,,,,,,,,,11,,,,63,92
95030,note_on,50,0,6,,,,,,,,,10,,,,67,0
95033,note_on,50,0,7,,,,,,,,,11,,,,63,0
95040,set_tempo,120,1,0,,,,,,394737,,,,,,,,
95040,note_on,10,0,6,,,,,,,,,10,,,,70,100
95043,note_on,10,0,7,,,,,,,,,11,,,,67,100
95046,note_on,120,0,8,,,,,,,,,12,,,,51,0
95051,note_on,120,0,9,,,,,,,,,13,,,,63,0
95053,note_on,120,0,10,,,,,,,,,14,,,,51,0
95100,note_on,60,0,6,,,,,,,,,10,,,,70,0
95100,note_on,0,0,6,,,,,,,,,10,,,,71,100
95103,note_on,60,0,7,,,,,,,,,11,,,,67,0
95103,note_on,0,0,7,,,,,,,,,11,,,,68,100
95160,note_on,60,0,6,,,,,,,,,10,,,,71,0
95160,note_on,0,0,6,,,,,,,,,10,,,,72,100
95160,set_tempo,120,1,0,,,,,,372671,,,,,,,,
95163,note_on,60,0,7,,,,,,,,,11,,,,68,0
95163,note_on,0,0,7,,,,,,,,,11,,,,69,100
95220,note_on,0,0,6,,,,,,,,,10,,,,73,100
95220,note_on,60,0,6,,,,,,,,,10,,,,72,0
95223,note_on,60,0,7,,,,,,,,,11,,,,69,0
95223,note_on,0,0,7,,,,,,,,,11,,,,70,100
95270,note_on,50,0,6,,,,,,,,,10,,,,73,0
95273,note_on,50,0,7,,,,,,,,,11,,,,70,0
95280,note_on,10,0,6,,,,,,,,,10,,,,73,100
95280,set_tempo,120,1,0,,,,,,394737,,,,,,,,
95283,note_on,10,0,7,,,,,,,,,11,,,,70,100
95286,control_change,240,0,8,,,,,,,,,12,11,67,,,
95286,note_on,0,0,8,,,,,,,,,12,,,,63,90
95291,note_on,0,0,9,,,,,,,,,13,,,,51,81
95291,control_change,240,0,9,,,,,,,,,13,11,67,,,
95293,note_on,0,0,10,,,,,,,,,14,,,,39,65
95293,control_change,240,0,10,,,,,,,,,14,11,67,,,
95303,control_change,17,0,8,,,,,,,,,12,11,71,,,
95308,control_change,17,0,9,,,,,,,,,13,11,71,,,
95310,control_change,17,0,10,,,,,,,,,14,11,71,,,
95328,control_change,25,0,8,,,,,,,,,12,11,72,,,
95333,control_change,25,0,9,,,,,,,,,13,11,72,,,
95335,control_change,25,0,10,,,,,,,,,14,11,72,,,
95353,control_change,25,0,8,,,,,,,,,12,11,68,,,
95358,control_change,25,0,9,,,,,,,,,13,11,68,,,
95360,control_change,25,0,10,,,,,,,,,14,11,68,,,
95378,control_change,25,0,8,,,,,,,,,12,11,64,,,
95383,control_change,25,0,9,,,,,,,,,13,11,64,,,
95385,control_change,25,0,10,,,,,,,,,14,11,64,,,
95396,note_on,18,0,8,,,,,,,,,12,,,,63,0
95400,note_on,120,0,6,,,,,,,,,10,,,,73,0
95400,set_tempo,120,1,0,,,,,,372671,,,,,,,,
95401,note_on,18,0,9,,,,,,,,,13,,,,51,0
95403,note_on,120,0,7,,,,,,,,,11,,,,70,0
95403,control_change,7,0,8,,,,,,,,,12,11,59,,,
95403,note_on,18,0,10,,,,,,,,,14,,,,39,0
95406,note_on,3,0,8,,,,,,,,,12,,,,51,85
95408,control_change,7,0,9,,,,,,,,,13,11,59,,,
95410,control_change,7,0,10,,,,,,,,,14,11,59,,,
95411,note_on,3,0,9,,,,,,,,,13,,,,63,76
95413,note_on,3,0,10,,,,,,,,,14,,,,51,61
95416,control_change,10,0,8,,,,,,,,,12,11,56,,,
95421,control_change,10,0,9,,,,,,,,,13,11,56,,,
95423,control_change,10,0,10,,,,,,,,,14,11,56,,,
95428,control_change,12,0,8,,,,,,,,,12,11,53,,,
95433,control_change,12,0,9,,,,,,,,,13,11,53,,,
95435,control_change,12,0,10,,,,,,,,,14,11,53,,,
95441,control_change,13,0,8,,,,,,,,,12,11,50,,,
95446,control_change,13,0,9,,,,,,,,,13,11,50,,,
95448,control_change,13,0,10,,,,,,,,,14,11,50,,,
95454,control_change,13,0,8,,,,,,,,,12,11,47,,,
95459,control_change,13,0,9,,,,,,,,,13,11,47,,,
95460,note_on,60,0,6,,,,,,,,,10,,,,70,92
95461,control_change,13,0,10,,,,,,,,,14,11,47,,,
95463,note_on,60,0,7,,,,,,,,,11,,,,67,92
95510,note_on,50,0,6,,,,,,,,,10,,,,70,0
95513,note_on,50,0,7,,,,,,,,,11,,,,67,0
95520,note_on,10,0,6,,,,,,,,,10,,,,73,100
95520,set_tempo,120,1,0,,,,,,394737,,,,,,,,
95523,note_on,10,0,7,,,,,,,,,11,,,,70,100
95526,note_on,72,0,8,,,,,,,,,12,,,,51,0
95531,note_on,72,0,9,,,,,,,,,13,,,,63,0
95533,note_on,72,0,10,,,,,,,,,14,,,,51,0
95580,note_on,60,0,6,,,,,,,,,10,,,,73,0
95580,note_on,0,0,6,,,,,,,,,10,,,,75,100
95583,note_on,60,0,7,,,,,,,,,11,,,,70,0
95583,note_on,0,0,7,,,,,,,,,11,,,,71,100
95640,note_on,60,0,6,,,,,,,,,10,,,,75,0
95640,set_tempo,120,1,0,,,,,,372671,,,,,,,,
95640,note_on,0,0,6,,,,,,,,,10,,,,76,100
95643,note_on,0,0,7,,,,,,,,,11,,,,72,100
95643,note_on,60,0,7,,,,,,,,,11,,,,71,0
95700,note_on,0,0,6,,,,,,,,,10,,,,77,100
95700,note_on,60,0,6,,,,,,,,,10,,,,76,0
95703,note_on,0,0,7,,,,,,,,,11,,,,73,100
95703,note_on,60,0,7,,,,,,,,,11,,,,72,0
95750,note_on,50,0,6,,,,,,,,,10,,,,77,0
95753,note_on,50,0,7,,,,,,,,,11,,,,73,0
95760,note_on,10,0,6,,,,,,,,,10,,,,77,100
95760,set_tempo,120,1,0,,,,,,394737,,,,,,,,
95763,note_on,10,0,7,,,,,,,,,11,,,,73,100
95766,note_on,240,0,8,,,,,,,,,12,,,,63,98
95771,note_on,240,0,9,,,,,,,,,13,,,,51,89
95773,note_on,240,0,10,,,,,,,,,14,,,,39,73
95880,set_tempo,120,1,0,,,,,,372671,,,,,,,,
95886,note_on,120,0,8,,,,,,,,,12,,,,63,0
95891,note_on,120,0,9,,,,,,,,,13,,,,51,0
95893,note_on,120,0,10,,,,,,,,,14,,,,39,0
95940,set_tempo,60,1,0,,,,,,416667,,,,,,,,
95946,note_on,60,0,8,,,,,,,,,12,,,,51,98
95951,note_on,60,0,9,,,,,,,,,13,,,,51,89
95953,note_on,60,0,10,,,,,,,,,14,,,,39,73
96000,set_tempo,60,1,0,,,,,,394737,,,,,,,,
96006,note_on,60,0,8,,,,,,,,,12,,,,51,0
96006,note_on,0,0,8,,,,,,,,,12,,,,52,108
96011,note_on,0,0,9,,,,,,,,,13,,,,52,99
96011,note_on,60,0,9,,,,,,,,,13,,,,51,0
96013,note_on,0,0,10,,,,,,,,,14,,,,40,82
96013,note_on,60,0,10,,,,,,,,,14,,,,39,0
96066,note_on,0,0,8,,,,,,,,,12,,,,53,98
96066,note_on,60,0,8,,,,,,,,,12,,,,52,0
96071,note_on,0,0,9,,,,,,,,,13,,,,53,89
96071,note_on,60,0,9,,,,,,,,,13,,,,52,0
96073,note_on,60,0,10,,,,,,,,,14,,,,40,0
96073,note_on,0,0,10,,,,,,,,,14,,,,41,73
96110,note_on,350,0,6,,,,,,,,,10,,,,77,0
96113,note_on,350,0,7,,,,,,,,,11,,,,73,0
96120,note_on,10,0,6,,,,,,,,,10,,,,77,100
96120,set_tempo,120,1,0,,,,,,372671,,,,,,,,
96123,note_on,10,0,7,,,,,,,,,11,,,,73,100
96126,note_on,0,0,8,,,,,,,,,12,,,,54,98
96126,note_on,60,0,8,,,,,,,,,12,,,,53,0
96131,note_on,60,0,9,,,,,,,,,13,,,,53,0
96131,note_on,0,0,9,,,,,,,,,13,,,,54,89
96133,note_on,60,0,10,,,,,,,,,14,,,,41,0
96133,note_on,0,0,10,,,,,,,,,14,,,,42,73
96186,note_on,60,0,8,,,,,,,,,12,,,,54,0
96186,note_on,0,0,8,,,,,,,,,12,,,,55,98
96191,note_on,60,0,9,,,,,,,,,13,,,,54,0
96191,note_on,0,0,9,,,,,,,,,13,,,,55,89
96193,note_on,0,0,10,,,,,,,,,14,,,,43,73
96193,note_on,60,0,10,,,,,,,,,14,,,,42,0
96236,note_on,50,0,8,,,,,,,,,12,,,,55,0
96240,set_tempo,120,1,0,,,,,,394737,,,,,,,,
96241,note_on,50,0,9,,,,,,,,,13,,,,55,0
96243,note_on,50,0,10,,,,,,,,,14,,,,43,0
96246,note_on,10,0,8,,,,,,,,,12,,,,56,98
96251,note_on,10,0,9,,,,,,,,,13,,,,56,89
96253,note_on,10,0,10,,,,,,,,,14,,,,44,73
96350,note_on,230,0,6,,,,,,,,,10,,,,77,0
96353,note_on,230,0,7,,,,,,,,,11,,,,73,0
96360,set_tempo,120,1,0,,,,,,372671,,,,,,,,
96360,note_on,10,0,6,,,,,,,,,10,,,,75,100
96363,note_on,10,0,7,,,,,,,,,11,,,,72,100
96366,note_on,120,0,8,,,,,,,,,12,,,,56,0
96371,note_on,120,0,9,,,,,,,,,13,,,,56,0
96373,note_on,120,0,10,,,,,,,,,14,,,,44,0
96423,note_on,0,0,1,,,,,,,,,0,,,,75,82
96423,control_change,1500,0,1,,,,,,,,,0,11,57,,,
96432,control_change,1500,0,3,,,,,,,,,3,11,57,,,
96432,note_on,0,0,3,,,,,,,,,3,,,,63,81
96478,note_on,55,0,1,,,,,,,,,0,,,,75,0
96480,set_tempo,120,1,0,,,,,,394737,,,,,,,,
96483,note_on,5,0,1,,,,,,,,,0,,,,76,90
96487,note_on,55,0,3,,,,,,,,,3,,,,63,0
96492,note_on,5,0,3,,,,,,,,,3,,,,64,89
96543,note_on,0,0,1,,,,,,,,,0,,,,77,82
96543,note_on,60,0,1,,,,,,,,,0,,,,76,0
96552,note_on,0,0,3,,,,,,,,,3,,,,65,81
96552,note_on,60,0,3,,,,,,,,,3,,,,64,0
96590,note_on,230,0,6,,,,,,,,,10,,,,75,0
96593,note_on,230,0,7,,,,,,,,,11,,,,72,0
96600,set_tempo,120,1,0,,,,,,372671,,,,,,,,
96600,note_on,10,0,6,,,,,,,,,10,,,,73,100
96603,note_on,10,0,7,,,,,,,,,11,,,,70,100
96603,note_on,0,0,1,,,,,,,,,0,,,,78,82
96603,note_on,60,0,1,,,,,,,,,0,,,,77,0
96612,note_on,60,0,3,,,,,,,,,3,,,,65,0
96612,note_on,0,0,3,,,,,,,,,3,,,,66,81
96663,note_on,0,0,1,,,,,,,,,0,,,,79,82
96663,note_on,60,0,1,,,,,,,,,0,,,,78,0
96672,note_on,60,0,3,,,,,,,,,3,,,,66,0
96672,note_on,0,0,3,,,,,,,,,3,,,,67,81
96720,set_tempo,120,1,0,,,,,,394737,,,,,,,,
96723,note_on,60,0,1,,,,,,,,,0,,,,79,0
96723,note_on,0,0,1,,,,,,,,,0,,,,80,82
96732,note_on,0,0,3,,,,,,,,,3,,,,68,81
96732,note_on,60,0,3,,,,,,,,,3,,,,67,0
96830,note_on,230,0,6,,,,,,,,,10,,,,73,0
96833,note_on,230,0,7,,,,,,,,,11,,,,70,0
96840,note_on,10,0,6,,,,,,,,,10,,,,72,100
96840,set_tempo,120,1,0,,,,,,372671,,,,,,,,
96843,note_on,10,0,7,,,,,,,,,11,,,,68,100
96843,note_on,120,0,1,,,,,,,,,0,,,,80,0
96852,note_on,120,0,3,,,,,,,,,3,,,,68,0
96906,note_on,540,0,8,,,,,,,,,12,,,,48,98
96911,note_on,540,0,9,,,,,,,,,13,,,,48,89
96913,note_on,540,0,10,,,,,,,,,14,,,,36,73
96960,set_tempo,120,1,0,,,,,,394737,,,,,,,,
96966,note_on,60,0,8,,,,,,,,,12,,,,48,0
96966,note_on,0,0,8,,,,,,,,,12,,,,49,108
96971,note_on,60,0,9,,,,,,,,,13,,,,48,0
96971,note_on,0,0,9,,,,,,,,,13,,,,49,99
96973,note_on,60,0,10,,,,,,,,,14,,,,36,0
96973,note_on,0,0,10,,,,,,,,,14,,,,37,82
97026,note_on,60,0,8,,,,,,,,,12,,,,49,0
97026,note_on,0,0,8,,,,,,,,,12,,,,50,98
97031,note_on,0,0,9,,,,,,,,,13,,,,50,89
97031,note_on,60,0,9,,,,,,,,,13,,,,49,0
97033,note_on,60,0,10,,,,,,,,,14,,,,37,0
97033,note_on,0,0,10,,,,,,,,,14,,,,38,73
97070,note_on,230,0,6,,,,,,,,,10,,,,72,0
97073,note_on,230,0,7,,,,,,,,,11,,,,68,0
97080,set_tempo,120,1,0,,,,,,372671,,,,,,,,
97080,note_on,10,0,6,,,,,,,,,10,,,,70,100
97083,note_on,10,0,7,,,,,,,,,11,,,,67,100
97086,note_on,0,0,8,,,,,,,,,12,,,,51,98
97086,note_on,60,0,8,,,,,,,,,12,,,,50,0
97091,note_on,0,0,9,,,,,,,,,13,,,,51,89
97091,note_on,60,0,9,,,,,,,,,13,,,,50,0
97093,note_on,0,0,10,,,,,,,,,14,,,,39,73
97093,note_on,60,0,10,,,,,,,,,14,,,,38,0
97146,note_on,60,0,8,,,,,,,,,12,,,,51,0
97146,note_on,0,0,8,,,,,,,,,12,,,,52,98
97151,note_on,60,0,9,,,,,,,,,13,,,,51,0
97151,note_on,0,0,9,,,,,,,,,13,,,,52,89
97153,note_on,60,0,10,,,,,,,,,14,,,,39,0
97153,note_on,0,0,10,,,,,,,,,14,,,,40,73
97196,note_on,50,0,8,,,,,,,,,12,,,,52,0
97200,set_tempo,120,1,0,,,,,,394737,,,,,,,,
97201,note_on,50,0,9,,,,,,,,,13,,,,52,0
97203,note_on,50,0,10,,,,,,,,,14,,,,40,0
97206,note_on,10,0,8,,,,,,,,,12,,,,53,98
97211,note_on,10,0,9,,,,,,,,,13,,,,53,89
97213,note_on,10,0,10,,,,,,,,,14,,,,41,73
97310,note_on,230,0,6,,,,,,,,,10,,,,70,0
97313,note_on,230,0,7,,,,,,,,,11,,,,67,0
97320,set_tempo,120,1,0,,,,,,372671,,,,,,,,
97320,note_on,10,0,6,,,,,,,,,10,,,,68,100
97323,note_on,10,0,7,,,,,,,,,11,,,,65,100
97326,note_on,120,0,8,,,,,,,,,12,,,,53,0
97331,note_on,120,0,9,,,,,,,,,13,,,,53,0
97333,note_on,120,0,10,,,,,,,,,14,,,,41,0
97383,note_on,0,0,1,,,,,,,,,0,,,,80,82
97383,control_change,540,0,1,,,,,,,,,0,11,57,,,
97385,note_on,0,0,2,,,,,,,,,1,,,,68,81
97385,control_change,2460,0,2,,,,,,,,,1,11,57,,,
97440,set_tempo,120,1,0,,,,,,394737,,,,,,,,
97443,note_on,0,0,1,,,,,,,,,0,,,,81,90
97443,note_on,60,0,1,,,,,,,,,0,,,,80,0
97445,note_on,60,0,2,,,,,,,,,1,,,,68,0
97445,note_on,0,0,2,,,,,,,,,1,,,,69,89
97446,note_on,120,0,8,,,,,,,,,12,,,,56,98
97451,note_on,120,0,9,,,,,,,,,13,,,,56,89
97453,note_on,120,0,10,,,,,,,,,14,,,,44,73
97503,note_on,0,0,1,,,,,,,,,0,,,,82,82
97503,note_on,60,0,1,,,,,,,,,0,,,,81,0
97505,note_on,60,0,2,,,,,,,,,1,,,,69,0
97505,note_on,0,0,2,,,,,,,,,1,,,,70,81
97550,note_on,230,0,6,,,,,,,,,10,,,,68,0
97553,note_on,230,0,7,,,,,,,,,11,,,,65,0
97560,set_tempo,120,1,0,,,,,,372671,,,,,,,,
97560,note_on,10,0,6,,,,,,,,,10,,,,66,100
97563,note_on,60,0,1,,,,,,,,,0,,,,82,0
97563,note_on,10,0,7,,,,,,,,,11,,,,63,100
97563,note_on,0,0,1,,,,,,,,,0,,,,83,82
97565,note_on,0,0,2,,,,,,,,,1,,,,71,81
97565,note_on,60,0,2,,,,,,,,,1,,,,70,0
97566,note_on,120,0,8,,,,,,,,,12,,,,56,0
97571,note_on,120,0,9,,,,,,,,,13,,,,56,0
97573,note_on,120,0,10,,,,,,,,,14,,,,44,0
97623,note_on,60,0,1,,,,,,,,,0,,,,83,0
97623,note_on,0,0,1,,,,,,,,,0,,,,84,82
97625,note_on,0,0,2,,,,,,,,,1,,,,72,81
97625,note_on,60,0,2,,,,,,,,,1,,,,71,0
97678,note_on,55,0,1,,,,,,,,,0,,,,84,0
97680,note_on,55,0,2,,,,,,,,,1,,,,72,0
97680,set_tempo,120,1,0,,,,,,394737,,,,,,,,
97683,note_on,5,0,1,,,,,,,,,0,,,,85,82
97685,note_on,5,0,2,,,,,,,,,1,,,,73,81
97686,note_on,120,0,8,,,,,,,,,12,,,,49,98
97691,note_on,120,0,9,,,,,,,,,13,,,,49,89
97693,note_on,120,0,10,,,,,,,,,14,,,,37,73
97790,note_on,230,0,6,,,,,,,,,10,,,,66,0
97793,note_on,230,0,7,,,,,,,,,11,,,,63,0
97800,note_on,10,0,6,,,,,,,,,10,,,,65,100
97800,set_tempo,120,1,0,,,,,,372671,,,,,,,,
97803,note_on,120,0,1,,,,,,,,,0,,,,85,0
97803,note_on,10,0,7,,,,,,,,,11,,,,61,100
97805,note_on,120,0,2,,,,,,,,,1,,,,73,0
97806,note_on,120,0,8,,,,,,,,,12,,,,49,0
97811,note_on,120,0,9,,,,,,,,,13,,,,49,0
97813,note_on,120,0,10,,,,,,,,,14,,,,37,0
97866,note_on,60,0,8,,,,,,,,,12,,,,61,98
97871,note_on,60,0,9,,,,,,,,,13,,,,49,89
97873,note_on,60,0,10,,,,,,,,,14,,,,37,73
97920,note_on,120,0,6,,,,,,,,,10,,,,65,0
97920,control_change,0,0,6,,,,,,,,,10,11,37,,,
97920,note_on,0,0,6,,,,,,,,,10,,,,66,100
97920,set_tempo,120,1,0,,,,,,394737,,,,,,,,
97923,control_change,0,0,7,,,,,,,,,11,11,37,,,
97923,note_on,0,0,7,,,,,,,,,11,,,,63,100
97923,note_on,120,0,7,,,,,,,,,11,,,,61,0
97926,note_on,0,0,8,,,,,,,,,12,,,,60,108
97926,control_change,0,0,8,,,,,,,,,12,11,37,,,
97926,note_on,60,0,8,,,,,,,,,12,,,,61,0
97931,control_change,0,0,9,,,,,,,,,13,11,37,,,
97931,note_on,60,0,9,,,,,,,,,13,,,,49,0
97931,note_on,0,0,9,,,,,,,,,13,,,,48,99
97933,note_on,0,0,10,,,,,,,,,14,,,,36,82
97933,control_change,0,0,10,,,,,,,,,14,11,37,,,
97933,note_on,60,0,10,,,,,,,,,14,,,,37,0
97986,note_on,60,0,8,,,,,,,,,12,,,,60,0
97986,note_on,0,0,8,,,,,,,,,12,,,,56,98
97991,note_on,60,0,9,,,,,,,,,13,,,,48,0
97991,note_on,0,0,9,,,,,,,,,13,,,,44,89
97993,note_on,0,0,10,,,,,,,,,14,,,,32,73
97993,note_on,60,0,10,,,,,,,,,14,,,,36,0
98030,note_on,110,0,6,,,,,,,,,10,,,,66,0
98033,note_on,110,0,7,,,,,,,,,11,,,,63,0
98040,note_on,10,0,6,,,,,,,,,10,,,,78,100
98040,set_tempo,120,1,0,,,,,,372671,,,,,,,,
98043,note_on,10,0,7,,,,,,,,,11,,,,75,100
98043,control_change,240,0,1,,,,,,,,,0,11,32,,,
98043,note_on,0,0,1,,,,,,,,,0,,,,80,82
98045,control_change,240,0,2,,,,,,,,,1,11,32,,,
98045,note_on,0,0,2,,,,,,,,,1,,,,68,81
98046,note_on,60,0,8,,,,,,,,,12,,,,56,0
98046,note_on,0,0,8,,,,,,,,,12,,,,58,98
98051,note_on,60,0,9,,,,,,,,,13,,,,44,0
98051,note_on,0,0,9,,,,,,,,,13,,,,46,89
98052,control_change,1200,0,3,,,,,,,,,3,11,32,,,
98053,note_on,0,0,10,,,,,,,,,14,,,,34,73
98053,note_on,60,0,10,,,,,,,,,14,,,,32,0
98066,control_change,23,0,1,,,,,,,,,0,11,34,,,
98068,control_change,23,0,2,,,,,,,,,1,11,34,,,
98075,control_change,23,0,3,,,,,,,,,3,11,34,,,
98090,control_change,24,0,1,,,,,,,,,0,11,36,,,
98092,control_change,24,0,2,,,,,,,,,1,11,36,,,
98099,control_change,24,0,3,,,,,,,,,3,11,36,,,
98106,note_on,60,0,8,,,,,,,,,12,,,,58,0
98106,note_on,0,0,8,,,,,,,,,12,,,,60,98
98111,note_on,0,0,9,,,,,,,,,13,,,,48,89
98111,note_on,60,0,9,,,,,,,,,13,,,,46,0
98113,note_on,0,0,10,,,,,,,,,14,,,,36,73
98113,note_on,60,0,10,,,,,,,,,14,,,,34,0
98114,control_change,24,0,1,,,,,,,,,0,11,38,,,
98116,control_change,24,0,2,,,,,,,,,1,11,38,,,
98123,control_change,24,0,3,,,,,,,,,3,11,38,,,
98138,control_change,24,0,1,,,,,,,,,0,11,40,,,
98140,control_change,24,0,2,,,,,,,,,1,11,40,,,
98147,control_change,24,0,3,,,,,,,,,3,11,40,,,
98156,note_on,50,0,8,,,,,,,,,12,,,,60,0
98160,set_tempo,120,1,0,,,,,,394737,,,,,,,,
98161,note_on,50,0,9,,,,,,,,,13,,,,48,0
98162,control_change,24,0,1,,,,,,,,,0,11,42,,,
98163,note_on,50,0,10,,,,,,,,,14,,,,36,0
98164,control_change,24,0,2,,,,,,,,,1,11,42,,,
98166,note_on,10,0,8,,,,,,,,,12,,,,61,98
98171,control_change,24,0,3,,,,,,,,,3,11,42,,,
98171,note_on,10,0,9,,,,,,,,,13,,,,49,89
98173,note_on,10,0,10,,,,,,,,,14,,,,37,73
98270,note_on,230,0,6,,,,,,,,,10,,,,78,0
98273,note_on,230,0,7,,,,,,,,,11,,,,75,0
98280,note_on,10,0,6,,,,,,,,,10,,,,77,100
98280,set_tempo,120,1,0,,,,,,372671,,,,,,,,
98283,note_on,10,0,7,,,,,,,,,11,,,,73,100
98286,note_on,120,0,8,,,,,,,,,12,,,,61,0
98291,note_on,120,0,9,,,,,,,,,13,,,,49,0
98293,note_on,120,0,10,,,,,,,,,14,,,,37,0
98338,note_on,176,0,1,,,,,,,,,0,,,,80,0
98340,note_on,176,0,2,,,,,,,,,1,,,,68,0
98343,note_on,5,0,1,,,,,,,,,0,,,,85,82
98345,note_on,5,0,2,,,,,,,,,1,,,,73,81
98400,note_on,120,0,6,,,,,,,,,10,,,,77,0
98400,note_on,0,0,6,,,,,,,,,10,,,,78,100
98400,set_tempo,120,1,0,,,,,,394737,,,,,,,,
98403,note_on,0,0,1,,,,,,,,,0,,,,84,90
98403,note_on,60,0,1,,,,,,,,,0,,,,85,0
98403,note_on,120,0,7,,,,,,,,,11,,,,73,0
98403,note_on,0,0,7,,,,,,,,,11,,,,75,100
98405,note_on,0,0,2,,,,,,,,,1,,,,72,89
98405,note_on,60,0,2,,,,,,,,,1,,,,73,0
98406,note_on,120,0,8,,,,,,,,,12,,,,56,98
98411,note_on,120,0,9,,,,,,,,,13,,,,56,89
98413,note_on,120,0,10,,,,,,,,,14,,,,44,73
98463,note_on,60,0,1,,,,,,,,,0,,,,84,0
98463,note_on,0,0,1,,,,,,,,,0,,,,80,82
98465,note_on,60,0,2,,,,,,,,,1,,,,72,0
98465,note_on,0,0,2,,,,,,,,,1,,,,68,81
98510,note_on,110,0,6,,,,,,,,,10,,,,78,0
98513,note_on,110,0,7,,,,,,,,,11,,,,75,0
98520,set_tempo,120,1,0,,,,,,372671,,,,,,,,
98520,note_on,10,0,6,,,,,,,,,10,,,,66,100
98523,note_on,0,0,1,,,,,,,,,0,,,,82,82
98523,note_on,60,0,1,,,,,,,,,0,,,,80,0
98523,note_on,10,0,7,,,,,,,,,11,,,,63,100
98525,note_on,0,0,2,,,,,,,,,1,,,,70,81
98525,note_on,60,0,2,,,,,,,,,1,,,,68,0
98525,note_on,0,0,2,,,,,,,,,1,,,,68,81
98526,note_on,120,0,8,,,,,,,,,12,,,,56,0
98531,note_on,120,0,9,,,,,,,,,13,,,,56,0
98532,control_change,361,0,3,,,,,,,,,3,11,32,,,
98532,note_on,0,0,3,,,,,,,,,3,,,,56,81
98533,note_on,120,0,10,,,,,,,,,14,,,,44,0
98556,control_change,24,0,3,,,,,,,,,3,11,34,,,
98580,control_change,24,0,3,,,,,,,,,3,11,36,,,
98583,note_on,0,0,1,,,,,,,,,0,,,,84,82
98583,note_on,60,0,1,,,,,,,,,0,,,,82,0
98585,note_on,60,0,2,,,,,,,,,1,,,,70,0
98585,note_on,0,0,2,,,,,,,,,1,,,,72,81
98604,control_change,24,0,3,,,,,,,,,3,11,38,,,
98628,control_change,24,0,3,,,,,,,,,3,11,40,,,
98638,note_on,55,0,1,,,,,,,,,0,,,,84,0
98640,note_on,55,0,2,,,,,,,,,1,,,,72,0
98640,set_tempo,120,1,0,,,,,,394737,,,,,,,,
98643,note_on,5,0,1,,,,,,,,,0,,,,85,82
98645,note_on,5,0,2,,,,,,,,,1,,,,73,81
98646,note_on,120,0,8,,,,,,,,,12,,,,49,98
98651,note_on,120,0,9,,,,,,,,,13,,,,49,89
98652,control_change,24,0,3,,,,,,,,,3,11,42,,,
98653,note_on,120,0,10,,,,,,,,,14,,,,37,73
98750,note_on,230,0,6,,,,,,,,,10,,,,66,0
98753,note_on,230,0,7,,,,,,,,,11,,,,63,0
98760,set_tempo,120,1,0,,,,,,372671,,,,,,,,
98760,note_on,10,0,6,,,,,,,,,10,,,,65,100
98763,note_on,10,0,7,,,,,,,,,11,,,,61,100
98763,note_on,120,0,1,,,,,,,,,0,,,,85,0
98765,note_on,120,0,2,,,,,,,,,1,,,,73,0
98766,note_on,120,0,8,,,,,,,,,12,,,,49,0
98771,note_on,120,0,9,,,,,,,,,13,,,,49,0
98773,note_on,120,0,10,,,,,,,,,14,,,,37,0
98826,note_on,60,0,8,,,,,,,,,12,,,,61,98
98831,note_on,60,0,9,,,,,,,,,13,,,,49,89
98833,note_on,60,0,10,,,,,,,,,14,,,,37,73
98880,set_tempo,120,1,0,,,,,,394737,,,,,,,,
98880,note_on,0,0,6,,,,,,,,,10,,,,66,100
98880,note_on,120,0,6,,,,,,,,,10,,,,65,0
98883,note_on,120,0,7,,,,,,,,,11,,,,61,0
98883,note_on,0,0,7,,,,,,,,,11,,,,63,100
98885,note_on,120,0,2,,,,,,,,,1,,,,68,0
98886,note_on,0,0,8,,,,,,,,,12,,,,60,108
98886,note_on,60,0,8,,,,,,,,,12,,,,61,0
98891,note_on,60,0,9,,,,,,,,,13,,,,49,0
98891,note_on,0,0,9,,,,,,,,,13,,,,48,99
98892,note_on,240,0,3,,,,,,,,,3,,,,56,0
98893,note_on,60,0,10,,,,,,,,,14,,,,37,0
98893,note_on,0,0,10,,,,,,,,,14,,,,36,82
98946,note_on,60,0,8,,,,,,,,,12,,,,60,0
98946,note_on,0,0,8,,,,,,,,,12,,,,56,98
98951,note_on,60,0,9,,,,,,,,,13,,,,48,0
98951,note_on,0,0,9,,,,,,,,,13,,,,44,89
98953,note_on,0,0,10,,,,,,,,,14,,,,32,73
98953,note_on,60,0,10,,,,,,,,,14,,,,36,0
98980,note_on,100,0,6,,,,,,,,,10,,,,66,0
98983,note_on,100,0,7,,,,,,,,,11,,,,63,0
99000,note_on,20,0,6,,,,,,,,,10,,,,78,100
99000,set_tempo,120,1,0,,,,,,372671,,,,,,,,
99003,note_on,20,0,7,,,,,,,,,11,,,,75,100
99003,note_on,240,0,1,,,,,,,,,0,,,,80,82
99005,note_on,120,0,2,,,,,,,,,1,,,,68,81
99006,note_on,0,0,8,,,,,,,,,12,,,,58,98
99006,note_on,60,0,8,,,,,,,,,12,,,,56,0
99011,note_on,0,0,9,,,,,,,,,13,,,,46,89
99011,note_on,60,0,9,,,,,,,,,13,,,,44,0
99013,note_on,60,0,10,,,,,,,,,14,,,,32,0
99013,note_on,0,0,10,,,,,,,,,14,,,,34,73
99066,note_on,60,0,8,,,,,,,,,12,,,,58,0
99066,note_on,0,0,8,,,,,,,,,12,,,,60,98
99071,note_on,0,0,9,,,,,,,,,13,,,,48,89
99071,note_on,60,0,9,,,,,,,,,13,,,,46,0
99073,note_on,60,0,10,,,,,,,,,14,,,,34,0
99073,note_on,0,0,10,,,,,,,,,14,,,,36,73
99116,note_on,50,0,8,,,,,,,,,12,,,,60,0
99120,set_tempo,120,1,0,,,,,,394737,,,,,,,,
99121,note_on,50,0,9,,,,,,,,,13,,,,48,0
99123,note_on,50,0,10,,,,,,,,,14,,,,36,0
99126,note_on,10,0,8,,,,,,,,,12,,,,61,98
99131,note_on,10,0,9,,,,,,,,,13,,,,49,89
99133,note_on,10,0,10,,,,,,,,,14,,,,37,73
99230,note_on,230,0,6,,,,,,,,,10,,,,78,0
99233,note_on,230,0,7,,,,,,,,,11,,,,75,0
99240,set_tempo,120,1,0,,,,,,372671,,,,,,,,
99240,control_change,10,0,6,,,,,,,,,10,11,37,,,
99240,note_on,0,0,6,,,,,,,,,10,,,,77,100
99243,note_on,0,0,7,,,,,,,,,11,,,,73,100
99243,control_change,10,0,7,,,,,,,,,11,11,37,,,
99243,control_change,240,0,1,,,,,,,,,0,11,42,,,
99245,control_change,240,0,2,,,,,,,,,1,11,42,,,
99246,note_on,120,0,8,,,,,,,,,12,,,,61,0
99246,control_change,0,0,8,,,,,,,,,12,11,37,,,
99251,control_change,0,0,9,,,,,,,,,13,11,37,,,
99251,note_on,120,0,9,,,,,,,,,13,,,,49,0
99252,control_change,360,0,3,,,,,,,,,3,11,42,,,
99252,note_on,0,0,3,,,,,,,,,3,,,,65,81
99252,note_on,0,0,3,,,,,,,,,3,,,,61,81
99253,note_on,120,0,10,,,,,,,,,14,,,,37,0
99253,control_change,0,0,10,,,,,,,,,14,11,37,,,
99275,control_change,35,0,6,,,,,,,,,10,11,38,,,
99278,control_change,35,0,7,,,,,,,,,11,11,38,,,
99281,control_change,35,0,8,,,,,,,,,12,11,38,,,
99283,control_change,40,0,1,,,,,,,,,0,11,43,,,
99285,control_change,40,0,2,,,,,,,,,1,11,43,,,
99286,control_change,35,0,9,,,,,,,,,13,11,38,,,
99288,control_change,35,0,10,,,,,,,,,14,11,38,,,
99292,control_change,40,0,3,,,,,,,,,3,11,43,,,
99306,note_on,25,0,8,,,,,,,,,12,,,,53,98
99311,note_on,25,0,9,,,,,,,,,13,,,,53,89
99311,control_change,36,0,6,,,,,,,,,10,11,39,,,
99313,note_on,25,0,10,,,,,,,,,14,,,,41,73
99314,control_change,36,0,7,,,,,,,,,11,11,39,,,
99317,control_change,11,0,8,,,,,,,,,12,11,39,,,
99322,control_change,11,0,9,,,,,,,,,13,11,39,,,
99323,control_change,40,0,1,,,,,,,,,0,11,44,,,
99324,control_change,11,0,10,,,,,,,,,14,11,39,,,
99325,control_change,40,0,2,,,,,,,,,1,11,44,,,
99332,control_change,40,0,3,,,,,,,,,3,11,44,,,
99347,control_change,36,0,6,,,,,,,,,10,11,40,,,
99350,control_change,36,0,7,,,,,,,,,11,11,40,,,
99353,control_change,36,0,8,,,,,,,,,12,11,40,,,
99358,control_change,36,0,9,,,,,,,,,13,11,40,,,
99360,note_on,35,0,2,,,,,,,,,1,,,,68,0
99360,control_change,36,0,10,,,,,,,,,14,11,40,,,
99360,set_tempo,120,1,0,,,,,,394737,,,,,,,,
99363,control_change,0,0,1,,,,,,,,,0,11,45,,,
99363,note_on,40,0,1,,,,,,,,,0,,,,80,0
99365,note_on,0,0,2,,,,,,,,,1,,,,65,81
99365,note_on,0,0,2,,,,,,,,,1,,,,77,81
99365,control_change,5,0,2,,,,,,,,,1,11,45,,,
99366,note_on,13,0,8,,,,,,,,,12,,,,53,0
99366,note_on,0,0,8,,,,,,,,,12,,,,54,108
99371,note_on,13,0,9,,,,,,,,,13,,,,53,0
99371,note_on,0,0,9,,,,,,,,,13,,,,54,99
99372,control_change,40,0,3,,,,,,,,,3,11,45,,,
99373,note_on,13,0,10,,,,,,,,,14,,,,41,0
99373,note_on,0,0,10,,,,,,,,,14,,,,42,82
99383,control_change,36,0,6,,,,,,,,,10,11,41,,,
99386,control_change,36,0,7,,,,,,,,,11,11,41,,,
99389,control_change,23,0,8,,,,,,,,,12,11,41,,,
99394,control_change,23,0,9,,,,,,,,,13,11,41,,,
99396,control_change,23,0,10,,,,,,,,,14,11,41,,,
99403,control_change,40,0,1,,,,,,,,,0,11,46,,,
99405,control_change,40,0,2,,,,,,,,,1,11,46,,,
99412,control_change,40,0,3,,,,,,,,,3,11,46,,,
99419,control_change,36,0,6,,,,,,,,,10,11,42,,,
99422,control_change,36,0,7,,,,,,,,,11,11,42,,,
99425,control_change,36,0,8,,,,,,,,,12,11,42,,,
99426,note_on,1,0,8,,,,,,,,,12,,,,54,0
99426,note_on,0,0,8,,,,,,,,,12,,,,55,98
99430,control_change,36,0,9,,,,,,,,,13,11,42,,,
99431,note_on,0,0,9,,,,,,,,,13,,,,55,89
99431,note_on,1,0,9,,,,,,,,,13,,,,54,0
99432,control_change,36,0,10,,,,,,,,,14,11,42,,,
99433,note_on,1,0,10,,,,,,,,,14,,,,42,0
99433,note_on,0,0,10,,,,,,,,,14,,,,43,73
99443,control_change,40,0,1,,,,,,,,,0,11,47,,,
99445,control_change,40,0,2,,,,,,,,,1,11,47,,,
99452,control_change,40,0,3,,,,,,,,,3,11,47,,,
99455,control_change,36,0,6,,,,,,,,,10,11,43,,,
99458,control_change,36,0,7,,,,,,,,,11,11,43,,,
99461,control_change,35,0,8,,,,,,,,,12,11,43,,,
99466,control_change,35,0,9,,,,,,,,,13,11,43,,,
99468,control_change,35,0,10,,,,,,,,,14,11,43,,,
99470,note_on,15,0,6,,,,,,,,,10,,,,77,0
99473,note_on,15,0,7,,,,,,,,,11,,,,73,0
99480,set_tempo,120,1,0,,,,,,372671,,,,,,,,
99480,note_on,10,0,6,,,,,,,,,10,,,,75,100
99483,note_on,10,0,7,,,,,,,,,11,,,,72,100
99483,control_change,40,0,1,,,,,,,,,0,11,48,,,
99485,control_change,40,0,2,,,,,,,,,1,11,48,,,
99486,note_on,0,0,8,,,,,,,,,12,,,,56,98
99486,note_on,25,0,8,,,,,,,,,12,,,,55,0
99487,note_on,35,0,3,,,,,,,,,3,,,,61,0
99487,note_on,0,0,3,,,,,,,,,3,,,,65,0
99491,control_change,11,0,6,,,,,,,,,10,11,44,,,
99491,note_on,0,0,9,,,,,,,,,13,,,,56,89
99491,note_on,25,0,9,,,,,,,,,13,,,,55,0
99492,note_on,0,0,3,,,,,,,,,3,,,,60,81
99492,note_on,0,0,3,,,,,,,,,3,,,,63,81
99492,control_change,5,0,3,,,,,,,,,3,11,48,,,
99493,note_on,0,0,10,,,,,,,,,14,,,,44,73
99493,note_on,25,0,10,,,,,,,,,14,,,,43,0
99494,control_change,11,0,7,,,,,,,,,11,11,44,,,
99497,control_change,11,0,8,,,,,,,,,12,11,44,,,
99502,control_change,11,0,9,,,,,,,,,13,11,44,,,
99504,control_change,11,0,10,,,,,,,,,14,11,44,,,
99523,control_change,40,0,1,,,,,,,,,0,11,49,,,
99525,control_change,40,0,2,,,,,,,,,1,11,49,,,
99527,control_change,36,0,6,,,,,,,,,10,11,45,,,
99530,control_change,36,0,7,,,,,,,,,11,11,45,,,
99532,control_change,40,0,3,,,,,,,,,3,11,49,,,
99533,control_change,36,0,8,,,,,,,,,12,11,45,,,
99538,control_change,36,0,9,,,,,,,,,13,11,45,,,
99540,control_change,36,0,10,,,,,,,,,14,11,45,,,
99546,note_on,13,0,8,,,,,,,,,12,,,,56,0
99546,note_on,0,0,8,,,,,,,,,12,,,,57,98
99551,note_on,0,0,9,,,,,,,,,13,,,,57,89
99551,note_on,13,0,9,,,,,,,,,13,,,,56,0
99553,note_on,0,0,10,,,,,,,,,14,,,,45,73
99553,note_on,13,0,10,,,,,,,,,14,,,,44,0
99563,control_change,40,0,1,,,,,,,,,0,11,50,,,
99563,control_change,36,0,6,,,,,,,,,10,11,46,,,
99565,control_change,40,0,2,,,,,,,,,1,11,50,,,
99566,control_change,36,0,7,,,,,,,,,11,11,46,,,
99569,control_change,23,0,8,,,,,,,,,12,11,46,,,
99572,control_change,40,0,3,,,,,,,,,3,11,50,,,
99574,control_change,23,0,9,,,,,,,,,13,11,46,,,
99576,control_change,23,0,10,,,,,,,,,14,11,46,,,
99596,note_on,27,0,8,,,,,,,,,12,,,,57,0
99599,control_change,36,0,6,,,,,,,,,10,11,47,,,
99600,set_tempo,120,1,0,,,,,,394737,,,,,,,,
99601,note_on,27,0,9,,,,,,,,,13,,,,57,0
99602,control_change,36,0,7,,,,,,,,,11,11,47,,,
99603,control_change,40,0,1,,,,,,,,,0,11,51,,,
99603,note_on,27,0,10,,,,,,,,,14,,,,45,0
99605,control_change,9,0,8,,,,,,,,,12,11,47,,,
99605,control_change,40,0,2,,,,,,,,,1,11,51,,,
99606,note_on,1,0,8,,,,,,,,,12,,,,58,98
99610,control_change,9,0,9,,,,,,,,,13,11,47,,,
99611,note_on,1,0,9,,,,,,,,,13,,,,58,89
99612,control_change,9,0,10,,,,,,,,,14,11,47,,,
99612,control_change,40,0,3,,,,,,,,,3,11,51,,,
99613,note_on,1,0,10,,,,,,,,,14,,,,46,73
99635,control_change,36,0,6,,,,,,,,,10,11,48,,,
99638,control_change,36,0,7,,,,,,,,,11,11,48,,,
99641,control_change,35,0,8,,,,,,,,,12,11,48,,,
99643,control_change,40,0,1,,,,,,,,,0,11,52,,,
99645,control_change,40,0,2,,,,,,,,,1,11,52,,,
99646,control_change,35,0,9,,,,,,,,,13,11,48,,,
99648,control_change,35,0,10,,,,,,,,,14,11,48,,,
99652,control_change,40,0,3,,,,,,,,,3,11,52,,,
99671,control_change,36,0,6,,,,,,,,,10,11,49,,,
99674,control_change,36,0,7,,,,,,,,,11,11,49,,,
99677,control_change,36,0,8,,,,,,,,,12,11,49,,,
99682,control_change,36,0,9,,,,,,,,,13,11,49,,,
99683,control_change,40,0,1,,,,,,,,,0,11,53,,,
99684,control_change,36,0,10,,,,,,,,,14,11,49,,,
99685,control_change,40,0,2,,,,,,,,,1,11,53,,,
99692,control_change,40,0,3,,,,,,,,,3,11,53,,,
99707,control_change,36,0,6,,,,,,,,,10,11,50,,,
99710,note_on,3,0,6,,,,,,,,,10,,,,75,0
99710,control_change,36,0,7,,,,,,,,,11,11,50,,,
99713,control_change,36,0,8,,,,,,,,,12,11,50,,,
99713,note_on,3,0,7,,,,,,,,,11,,,,72,0
99718,control_change,36,0,9,,,,,,,,,13,11,50,,,
99720,control_change,36,0,10,,,,,,,,,14,11,50,,,
99720,note_on,10,0,6,,,,,,,,,10,,,,73,100
99720,set_tempo,120,1,0,,,,,,372671,,,,,,,,
99723,control_change,40,0,1,,,,,,,,,0,11,54,,,
99723,note_on,10,0,7,,,,,,,,,11,,,,70,100
99725,control_change,40,0,2,,,,,,,,,1,11,54,,,
99726,note_on,13,0,8,,,,,,,,,12,,,,58,0
99727,note_on,35,0,3,,,,,,,,,3,,,,63,0
99727,note_on,0,0,3,,,,,,,,,3,,,,60,0
99731,note_on,13,0,9,,,,,,,,,13,,,,58,0
99732,control_change,5,0,3,,,,,,,,,3,11,54,,,
99732,note_on,0,0,3,,,,,,,,,3,,,,61,81
99732,note_on,0,0,3,,,,,,,,,3,,,,58,81
99733,note_on,13,0,10,,,,,,,,,14,,,,46,0
99743,control_change,23,0,6,,,,,,,,,10,11,51,,,
99746,control_change,23,0,7,,,,,,,,,11,11,51,,,
99749,control_change,23,0,8,,,,,,,,,12,11,51,,,
99754,control_change,23,0,9,,,,,,,,,13,11,51,,,
99756,control_change,23,0,10,,,,,,,,,14,11,51,,,
99763,control_change,40,0,1,,,,,,,,,0,11,55,,,
99765,control_change,40,0,2,,,,,,,,,1,11,55,,,
99772,control_change,40,0,3,,,,,,,,,3,11,55,,,
99779,control_change,36,0,6,,,,,,,,,10,11,52,,,
99782,control_change,36,0,7,,,,,,,,,11,11,52,,,
99785,control_change,36,0,8,,,,,,,,,12,11,52,,,
99786,note_on,1,0,8,,,,,,,,,12,,,,49,98
99790,control_change,36,0,9,,,,,,,,,13,11,52,,,
99791,note_on,1,0,9,,,,,,,,,13,,,,49,89
99792,control_change,36,0,10,,,,,,,,,14,11,52,,,
99793,note_on,1,0,10,,,,,,,,,14,,,,37,73
99803,control_change,40,0,1,,,,,,,,,0,11,56,,,
99805,control_change,40,0,2,,,,,,,,,1,11,56,,,
99812,control_change,40,0,3,,,,,,,,,3,11,56,,,
99815,control_change,36,0,6,,,,,,,,,10,11,53,,,
99818,control_change,36,0,7,,,,,,,,,11,11,53,,,
99821,control_change,35,0,8,,,,,,,,,12,11,53,,,
99826,control_change,35,0,9,,,,,,,,,13,11,53,,,
99828,control_change,35,0,10,,,,,,,,,14,11,53,,,
99840,set_tempo,120,1,0,,,,,,394737,,,,,,,,
99840,note_on,35,0,2,,,,,,,,,1,,,,65,0
99840,note_on,0,0,2,,,,,,,,,1,,,,77,0
99843,control_change,40,0,1,,,,,,,,,0,11,57,,,
99845,note_on,0,0,2,,,,,,,,,1,,,,61,81
99845,note_on,0,0,2,,,,,,,,,1,,,,73,81
99845,control_change,5,0,2,,,,,,,,,1,11,57,,,
99846,note_on,0,0,8,,,,,,,,,12,,,,50,108
99846,note_on,25,0,8,,,,,,,,,12,,,,49,0
99851,note_on,25,0,9,,,,,,,,,13,,,,49,0
99851,control_change,36,0,6,,,,,,,,,10,11,54,,,
99851,note_on,0,0,9,,,,,,,,,13,,,,50,99
99852,control_change,40,0,3,,,,,,,,,3,11,57,,,
99853,note_on,0,0,10,,,,,,,,,14,,,,38,82
99853,note_on,25,0,10,,,,,,,,,14,,,,37,0
99854,control_change,36,0,7,,,,,,,,,11,11,54,,,
99857,control_change,11,0,8,,,,,,,,,12,11,54,,,
99862,control_change,11,0,9,,,,,,,,,13,11,54,,,
99864,control_change,11,0,10,,,,,,,,,14,11,54,,,
99883,control_change,40,0,1,,,,,,,,,0,11,58,,,
99885,control_change,40,0,2,,,,,,,,,1,11,58,,,
99887,control_change,36,0,6,,,,,,,,,10,11,55,,,
99890,control_change,36,0,7,,,,,,,,,11,11,55,,,
99892,control_change,40,0,3,,,,,,,,,3,11,58,,,
99893,control_change,36,0,8,,,,,,,,,12,11,55,,,
99898,control_change,36,0,9,,,,,,,,,13,11,55,,,
99900,control_change,36,0,10,,,,,,,,,14,11,55,,,
99906,note_on,13,0,8,,,,,,,,,12,,,,50,0
99906,note_on,0,0,8,,,,,,,,,12,,,,51,98
99911,note_on,0,0,9,,,,,,,,,13,,,,51,89
99911,note_on,13,0,9,,,,,,,,,13,,,,50,0
99913,note_on,13,0,10,,,,,,,,,14,,,,38,0
99913,note_on,0,0,10,,,,,,,,,14,,,,39,73
99923,control_change,36,0,6,,,,,,,,,10,11,56,,,
99923,control_change,40,0,1,,,,,,,,,0,11,59,,,
99925,control_change,40,0,2,,,,,,,,,1,11,59,,,
99926,control_change,36,0,7,,,,,,,,,11,11,56,,,
99929,control_change,23,0,8,,,,,,,,,12,11,56,,,
99932,control_change,40,0,3,,,,,,,,,3,11,59,,,
99934,control_change,23,0,9,,,,,,,,,13,11,56,,,
99936,control_change,23,0,10,,,,,,,,,14,11,56,,,
99950,note_on,27,0,6,,,,,,,,,10,,,,73,0
99953,note_on,27,0,7,,,,,,,,,11,,,,70,0
99959,control_change,9,0,6,,,,,,,,,10,11,57,,,
99960,note_on,1,0,6,,,,,,,,,10,,,,71,100
99960,set_tempo,120,1,0,,,,,,372671,,,,,,,,
99962,control_change,9,0,7,,,,,,,,,11,11,57,,,
99963,control_change,40,0,1,,,,,,,,,0,11,60,,,
99963,note_on,1,0,7,,,,,,,,,11,,,,68,100
99965,control_change,40,0,2,,,,,,,,,1,11,60,,,
99965,control_change,36,0,8,,,,,,,,,12,11,57,,,
99966,note_on,0,0,8,,,,,,,,,12,,,,52,98
99966,note_on,1,0,8,,,,,,,,,12,,,,51,0
99967,note_on,35,0,3,,,,,,,,,3,,,,61,0
99967,note_on,0,0,3,,,,,,,,,3,,,,58,0
99970,control_change,36,0,9,,,,,,,,,13,11,57,,,
99971,note_on,1,0,9,,,,,,,,,13,,,,51,0
99971,note_on,0,0,9,,,,,,,,,13,,,,52,89
99972,control_change,36,0,10,,,,,,,,,14,11,57,,,
99972,control_change,5,0,3,,,,,,,,,3,11,60,,,
99972,note_on,0,0,3,,,,,,,,,3,,,,56,81
99972,note_on,0,0,3,,,,,,,,,3,,,,59,81
99973,note_on,1,0,10,,,,,,,,,14,,,,39,0
99973,note_on,0,0,10,,,,,,,,,14,,,,40,73
99995,control_change,35,0,6,,,,,,,,,10,11,58,,,
99998,control_change,35,0,7,,,,,,,,,11,11,58,,,
100001,control_change,35,0,8,,,,,,,,,12,11,58,,,
100003,control_change,40,0,1,,,,,,,,,0,11,61,,,
100005,control_change,40,0,2,,,,,,,,,1,11,61,,,
100006,control_change,35,0,9,,,,,,,,,13,11,58,,,
100008,control_change,35,0,10,,,,,,,,,14,11,58,,,
100012,control_change,40,0,3,,,,,,,,,3,11,61,,,
100026,note_on,0,0,8,,,,,,,,,12,,,,53,98
100026,note_on,25,0,8,,,,,,,,,12,,,,52,0
100031,control_change,36,0,6,,,,,,,,,10,11,59,,,
100031,note_on,25,0,9,,,,,,,,,13,,,,52,0
100031,note_on,0,0,9,,,,,,,,,13,,,,53,89
100033,note_on,0,0,10,,,,,,,,,14,,,,41,73
100033,note_on,25,0,10,,,,,,,,,14,,,,40,0
100034,control_change,36,0,7,,,,,,,,,11,11,59,,,
100037,control_change,11,0,8,,,,,,,,,12,11,59,,,
100042,control_change,11,0,9,,,,,,,,,13,11,59,,,
100043,control_change,40,0,1,,,,,,,,,0,11,62,,,
100044,control_change,11,0,10,,,,,,,,,14,11,59,,,
100045,control_change,40,0,2,,,,,,,,,1,11,62,,,
100052,control_change,40,0,3,,,,,,,,,3,11,62,,,
100067,control_change,36,0,6,,,,,,,,,10,11,60,,,
100070,control_change,36,0,7,,,,,,,,,11,11,60,,,
100073,control_change,36,0,8,,,,,,,,,12,11,60,,,
100076,note_on,3,0,8,,,,,,,,,12,,,,53,0
100078,control_change,36,0,9,,,,,,,,,13,11,60,,,
100080,set_tempo,120,1,0,,,,,,394737,,,,,,,,
100080,control_change,36,0,10,,,,,,,,,14,11,60,,,
100081,note_on,3,0,9,,,,,,,,,13,,,,53,0
100083,control_change,40,0,1,,,,,,,,,0,11,62,,,
100083,note_on,3,0,10,,,,,,,,,14,,,,41,0
100085,control_change,40,0,2,,,,,,,,,1,11,62,,,
100086,note_on,10,0,8,,,,,,,,,12,,,,54,98
100091,note_on,10,0,9,,,,,,,,,13,,,,54,89
100092,control_change,40,0,3,,,,,,,,,3,11,62,,,
100093,note_on,10,0,10,,,,,,,,,14,,,,42,73
100103,control_change,36,0,6,,,,,,,,,10,11,61,,,
100106,control_change,36,0,7,,,,,,,,,11,11,61,,,
100109,control_change,23,0,8,,,,,,,,,12,11,61,,,
100114,control_change,23,0,9,,,,,,,,,13,11,61,,,
100116,control_change,23,0,10,,,,,,,,,14,11,61,,,
100123,control_change,40,0,1,,,,,,,,,0,11,63,,,
100125,control_change,40,0,2,,,,,,,,,1,11,63,,,
100132,control_change,40,0,3,,,,,,,,,3,11,63,,,
100139,control_change,36,0,6,,,,,,,,,10,11,62,,,
100142,control_change,36,0,7,,,,,,,,,11,11,62,,,
100145,control_change,36,0,8,,,,,,,,,12,11,62,,,
100150,control_change,36,0,9,,,,,,,,,13,11,62,,,
100152,control_change,36,0,10,,,,,,,,,14,11,62,,,
100163,control_change,40,0,1,,,,,,,,,0,11,64,,,
100165,control_change,40,0,2,,,,,,,,,1,11,64,,,
100172,control_change,40,0,3,,,,,,,,,3,11,64,,,
100175,control_change,36,0,6,,,,,,,,,10,11,62,,,
100178,control_change,36,0,7,,,,,,,,,11,11,62,,,
100181,control_change,36,0,8,,,,,,,,,12,11,62,,,
100186,control_change,36,0,9,,,,,,,,,13,11,62,,,
100188,control_change,36,0,10,,,,,,,,,14,11,62,,,
100190,note_on,15,0,6,,,,,,,,,10,,,,71,0
100193,note_on,15,0,7,,,,,,,,,11,,,,68,0
100200,set_tempo,120,1,0,,,,,,372671,,,,,,,,
100200,note_on,10,0,6,,,,,,,,,10,,,,70,100
100203,note_on,10,0,7,,,,,,,,,11,,,,66,100
100203,control_change,40,0,1,,,,,,,,,0,11,64,,,
100205,control_change,40,0,2,,,,,,,,,1,11,64,,,
100207,note_on,35,0,3,,,,,,,,,3,,,,56,0
100207,note_on,0,0,3,,,,,,,,,3,,,,59,0
100211,control_change,11,0,6,,,,,,,,,10,11,63,,,
100212,control_change,5,0,3,,,,,,,,,3,11,64,,,
100212,note_on,0,0,3,,,,,,,,,3,,,,54,81
100212,note_on,0,0,3,,,,,,,,,3,,,,58,81
100214,control_change,11,0,7,,,,,,,,,11,11,63,,,
100217,control_change,36,0,8,,,,,,,,,12,11,63,,,
100222,control_change,36,0,9,,,,,,,,,13,11,63,,,
100224,control_change,36,0,10,,,,,,,,,14,11,63,,,
100243,control_change,40,0,1,,,,,,,,,0,11,65,,,
100245,control_change,40,0,2,,,,,,,,,1,11,65,,,
100247,control_change,36,0,6,,,,,,,,,10,11,64,,,
100250,control_change,36,0,7,,,,,,,,,11,11,64,,,
100252,control_change,40,0,3,,,,,,,,,3,11,65,,,
100253,control_change,36,0,8,,,,,,,,,12,11,64,,,
100253,note_on,3,0,7,,,,,,,,,11,,,,66,0
100258,control_change,36,0,9,,,,,,,,,13,11,64,,,
100260,control_change,36,0,10,,,,,,,,,14,11,64,,,
100263,note_on,10,0,7,,,,,,,,,11,,,,61,100
100283,control_change,40,0,1,,,,,,,,,0,11,66,,,
100283,control_change,36,0,6,,,,,,,,,10,11,64,,,
100285,control_change,40,0,2,,,,,,,,,1,11,66,,,
100286,control_change,23,0,7,,,,,,,,,11,11,64,,,
100289,control_change,36,0,8,,,,,,,,,12,11,64,,,
100292,control_change,40,0,3,,,,,,,,,3,11,66,,,
100294,control_change,36,0,9,,,,,,,,,13,11,64,,,
100296,control_change,36,0,10,,,,,,,,,14,11,64,,,
100316,note_on,27,0,8,,,,,,,,,12,,,,54,0
100319,control_change,36,0,6,,,,,,,,,10,11,65,,,
100320,note_on,0,0,2,,,,,,,,,1,,,,73,0
100320,note_on,35,0,2,,,,,,,,,1,,,,61,0
100320,set_tempo,120,1,0,,,,,,394737,,,,,,,,
100321,note_on,27,0,9,,,,,,,,,13,,,,54,0
100322,control_change,36,0,7,,,,,,,,,11,11,65,,,
100323,note_on,0,0,7,,,,,,,,,11,,,,62,100
100323,control_change,40,0,1,,,,,,,,,0,11,66,,,
100323,note_on,27,0,10,,,,,,,,,14,,,,42,0
100323,note_on,1,0,7,,,,,,,,,11,,,,61,0
100325,note_on,0,0,2,,,,,,,,,1,,,,74,89
100325,control_change,9,0,8,,,,,,,,,12,11,65,,,
100325,note_on,0,0,2,,,,,,,,,1,,,,70,81
100325,control_change,5,0,2,,,,,,,,,1,11,66,,,
100326,note_on,1,0,8,,,,,,,,,12,,,,54,98
100330,control_change,9,0,9,,,,,,,,,13,11,65,,,
100331,note_on,1,0,9,,,,,,,,,13,,,,42,89
100332,control_change,9,0,10,,,,,,,,,14,11,65,,,
100332,control_change,40,0,3,,,,,,,,,3,11,66,,,
100333,note_on,1,0,10,,,,,,,,,14,,,,30,73
100355,control_change,36,0,6,,,,,,,,,10,11,66,,,
100358,control_change,35,0,7,,,,,,,,,11,11,66,,,
100361,control_change,35,0,8,,,,,,,,,12,11,66,,,
100363,control_change,40,0,1,,,,,,,,,0,11,67,,,
100365,control_change,40,0,2,,,,,,,,,1,11,67,,,
100366,control_change,35,0,9,,,,,,,,,13,11,66,,,
100368,control_change,35,0,10,,,,,,,,,14,11,66,,,
100372,control_change,40,0,3,,,,,,,,,3,11,67,,,
100383,note_on,25,0,7,,,,,,,,,11,,,,62,0
100383,note_on,0,0,7,,,,,,,,,11,,,,63,100
100385,note_on,0,0,2,,,,,,,,,1,,,,75,81
100385,note_on,20,0,2,,,,,,,,,1,,,,74,0
100391,control_change,36,0,6,,,,,,,,,10,11,66,,,
100394,control_change,11,0,7,,,,,,,,,11,11,66,,,
100397,control_change,36,0,8,,,,,,,,,12,11,66,,,
100402,control_change,36,0,9,,,,,,,,,13,11,66,,,
100403,control_change,40,0,1,,,,,,,,,0,11,68,,,
100404,control_change,36,0,10,,,,,,,,,14,11,66,,,
100405,control_change,20,0,2,,,,,,,,,1,11,68,,,
100412,control_change,40,0,3,,,,,,,,,3,11,68,,,
100427,control_change,36,0,6,,,,,,,,,10,11,67,,,
100430,note_on,3,0,6,,,,,,,,,10,,,,70,0
100430,control_change,36,0,7,,,,,,,,,11,11,67,,,
100433,control_change,36,0,8,,,,,,,,,12,11,67,,,
100438,control_change,36,0,9,,,,,,,,,13,11,67,,,
100440,note_on,10,0,6,,,,,,,,,10,,,,70,100
100440,control_change,36,0,10,,,,,,,,,14,11,67,,,
100440,set_tempo,120,1,0,,,,,,372671,,,,,,,,
100443,control_change,40,0,1,,,,,,,,,0,11,68,,,
100443,note_on,13,0,7,,,,,,,,,11,,,,63,0
100443,note_on,0,0,7,,,,,,,,,11,,,,64,100
100445,control_change,0,0,2,,,,,,,,,1,11,68,,,
100445,note_on,40,0,2,,,,,,,,,1,,,,75,0
100445,note_on,0,0,2,,,,,,,,,1,,,,76,81
100452,control_change,40,0,3,,,,,,,,,3,11,68,,,
100463,control_change,23,0,6,,,,,,,,,10,11,68,,,
100466,control_change,23,0,7,,,,,,,,,11,11,68,,,
100469,control_change,36,0,8,,,,,,,,,12,11,68,,,
100474,control_change,36,0,9,,,,,,,,,13,11,68,,,
100476,control_change,36,0,10,,,,,,,,,14,11,68,,,
100483,control_change,40,0,1,,,,,,,,,0,11,69,,,
100485,control_change,40,0,2,,,,,,,,,1,11,69,,,
100492,control_change,40,0,3,,,,,,,,,3,11,69,,,
100499,control_change,36,0,6,,,,,,,,,10,11,68,,,
100502,control_change,36,0,7,,,,,,,,,11,11,68,,,
100503,note_on,0,0,7,,,,,,,,,11,,,,65,100
100503,note_on,1,0,7,,,,,,,,,11,,,,64,0
100505,control_change,36,0,8,,,,,,,,,12,11,68,,,
100505,note_on,0,0,2,,,,,,,,,1,,,,77,81
100505,note_on,20,0,2,,,,,,,,,1,,,,76,0
100510,control_change,36,0,9,,,,,,,,,13,11,68,,,
100512,control_change,36,0,10,,,,,,,,,14,11,68,,,
100523,control_change,40,0,1,,,,,,,,,0,11,70,,,
100525,control_change,20,0,2,,,,,,,,,1,11,70,,,
100532,control_change,40,0,3,,,,,,,,,3,11,70,,,
100535,control_change,36,0,6,,,,,,,,,10,11,69,,,
100538,control_change,35,0,7,,,,,,,,,11,11,69,,,
100541,control_change,36,0,8,,,,,,,,,12,11,69,,,
100546,control_change,36,0,9,,,,,,,,,13,11,69,,,
100548,control_change,36,0,10,,,,,,,,,14,11,69,,,
100550,note_on,15,0,6,,,,,,,,,10,,,,70,0
100553,note_on,15,0,7,,,,,,,,,11,,,,65,0
100556,note_on,15,0,8,,,,,,,,,12,,,,54,0
100560,set_tempo,120,1,0,,,,,,394737,,,,,,,,
100560,note_on,35,0,2,,,,,,,,,1,,,,77,0
100560,note_on,10,0,6,,,,,,,,,10,,,,70,100
100561,note_on,15,0,9,,,,,,,,,13,,,,42,0
100563,note_on,0,0,1,,,,,,,,,0,,,,82,82
100563,control_change,40,0,1,,,,,,,,,0,11,71,,,
100563,note_on,10,0,7,,,,,,,,,11,,,,66,100
100563,note_on,15,0,10,,,,,,,,,14,,,,30,0
100564,note_on,0,0,4,,,,,,,,,4,,,,58,86
100564,control_change,5640,0,4,,,,,,,,,4,11,47,,,
100565,control_change,5,0,2,,,,,,,,,1,11,71,,,
100565,note_on,0,0,2,,,,,,,,,1,,,,78,81
100566,note_on,10,0,8,,,,,,,,,12,,,,54,98
100566,note_on,0,0,5,,,,,,,,,5,,,,46,86
100566,control_change,5640,0,5,,,,,,,,,5,11,47,,,
100567,note_on,35,0,3,,,,,,,,,3,,,,58,0
100567,note_on,0,0,3,,,,,,,,,3,,,,54,0
100571,control_change,11,0,6,,,,,,,,,10,11,70,,,
100571,note_on,10,0,9,,,,,,,,,13,,,,42,89
100572,note_on,0,0,3,,,,,,,,,3,,,,58,81
100572,control_change,5,0,3,,,,,,,,,3,11,71,,,
100572,note_on,0,0,3,,,,,,,,,3,,,,54,81
100573,note_on,10,0,10,,,,,,,,,14,,,,30,73
100574,control_change,11,0,7,,,,,,,,,11,11,70,,,
100577,control_change,11,0,8,,,,,,,,,12,11,70,,,
100582,control_change,11,0,9,,,,,,,,,13,11,70,,,
100584,control_change,11,0,10,,,,,,,,,14,11,70,,,
100603,control_change,40,0,1,,,,,,,,,0,11,71,,,
100605,control_change,40,0,2,,,,,,,,,1,11,71,,,
100607,control_change,36,0,6,,,,,,,,,10,11,71,,,
100610,control_change,36,0,7,,,,,,,,,11,11,71,,,
100612,control_change,40,0,3,,,,,,,,,3,11,71,,,
100613,control_change,36,0,8,,,,,,,,,12,11,71,,,
100618,control_change,36,0,9,,,,,,,,,13,11,71,,,
100620,control_change,36,0,10,,,,,,,,,14,11,71,,,
100643,control_change,36,0,6,,,,,,,,,10,11,71,,,
100643,control_change,40,0,1,,,,,,,,,0,11,72,,,
100645,control_change,40,0,2,,,,,,,,,1,11,72,,,
100646,control_change,36,0,7,,,,,,,,,11,11,71,,,
100649,control_change,36,0,8,,,,,,,,,12,11,71,,,
100652,control_change,40,0,3,,,,,,,,,3,11,72,,,
100654,control_change,36,0,9,,,,,,,,,13,11,71,,,
100656,control_change,36,0,10,,,,,,,,,14,11,71,,,
100673,note_on,27,0,7,,,,,,,,,11,,,,66,0
100679,control_change,36,0,6,,,,,,,,,10,11,72,,,
100680,note_on,35,0,2,,,,,,,,,1,,,,78,0
100680,set_tempo,120,1,0,,,,,,379747,,,,,,,,
100682,control_change,9,0,7,,,,,,,,,11,11,72,,,
100683,note_on,1,0,7,,,,,,,,,11,,,,61,100
100683,control_change,40,0,1,,,,,,,,,0,11,73,,,
100685,note_on,0,0,2,,,,,,,,,1,,,,77,81
100685,control_change,5,0,2,,,,,,,,,1,11,73,,,
100685,control_change,36,0,8,,,,,,,,,12,11,72,,,
100690,control_change,36,0,9,,,,,,,,,13,11,72,,,
100692,control_change,40,0,3,,,,,,,,,3,11,73,,,
100692,control_change,36,0,10,,,,,,,,,14,11,72,,,
100715,control_change,36,0,6,,,,,,,,,10,11,73,,,
100718,control_change,35,0,7,,,,,,,,,11,11,73,,,
100721,control_change,36,0,8,,,,,,,,,12,11,73,,,
100723,control_change,40,0,1,,,,,,,,,0,11,73,,,
100725,control_change,40,0,2,,,,,,,,,1,11,73,,,
100726,control_change,36,0,9,,,,,,,,,13,11,73,,,
100728,control_change,36,0,10,,,,,,,,,14,11,73,,,
100730,note_on,15,0,6,,,,,,,,,10,,,,70,0
100732,control_change,40,0,3,,,,,,,,,3,11,73,,,
100738,note_on,15,0,1,,,,,,,,,0,,,,82,0
100740,note_on,10,0,6,,,,,,,,,10,,,,69,100
100743,note_on,5,0,1,,,,,,,,,0,,,,81,82
100751,control_change,11,0,6,,,,,,,,,10,11,73,,,
100754,control_change,36,0,7,,,,,,,,,11,11,73,,,
100757,control_change,36,0,8,,,,,,,,,12,11,73,,,
100762,control_change,36,0,9,,,,,,,,,13,11,73,,,
100763,control_change,20,0,1,,,,,,,,,0,11,74,,,
100764,control_change,36,0,10,,,,,,,,,14,11,73,,,
100765,control_change,40,0,2,,,,,,,,,1,11,74,,,
100772,control_change,40,0,3,,,,,,,,,3,11,74,,,
100787,control_change,36,0,6,,,,,,,,,10,11,74,,,
100790,control_change,36,0,7,,,,,,,,,11,11,74,,,
100793,control_change,36,0,8,,,,,,,,,12,11,74,,,
100796,note_on,3,0,8,,,,,,,,,12,,,,54,0
100798,control_change,36,0,9,,,,,,,,,13,11,74,,,
100800,note_on,13,0,6,,,,,,,,,10,,,,69,0
100800,note_on,0,0,6,,,,,,,,,10,,,,70,110
100800,set_tempo,120,1,0,,,,,,394737,,,,,,,,
100800,control_change,36,0,10,,,,,,,,,14,11,74,,,
100801,note_on,3,0,9,,,,,,,,,13,,,,42,0
100803,note_on,3,0,10,,,,,,,,,14,,,,30,0
100803,note_on,0,0,1,,,,,,,,,0,,,,82,90
100803,note_on,40,0,1,,,,,,,,,0,,,,81,0
100803,control_change,0,0,1,,,,,,,,,0,11,75,,,
100805,control_change,0,0,2,,,,,,,,,1,11,75,,,
100805,note_on,0,0,2,,,,,,,,,1,,,,76,81
100805,note_on,40,0,2,,,,,,,,,1,,,,77,0
100806,note_on,10,0,8,,,,,,,,,12,,,,54,98
100811,note_on,10,0,9,,,,,,,,,13,,,,42,89
100812,control_change,40,0,3,,,,,,,,,3,11,75,,,
100813,note_on,10,0,10,,,,,,,,,14,,,,30,73
100823,control_change,23,0,6,,,,,,,,,10,11,75,,,
100826,control_change,36,0,7,,,,,,,,,11,11,75,,,
100829,control_change,23,0,8,,,,,,,,,12,11,75,,,
100834,control_change,23,0,9,,,,,,,,,13,11,75,,,
100836,control_change,23,0,10,,,,,,,,,14,11,75,,,
100843,control_change,40,0,1,,,,,,,,,0,11,75,,,
100845,control_change,40,0,2,,,,,,,,,1,11,75,,,
100852,control_change,40,0,3,,,,,,,,,3,11,75,,,
100859,control_change,36,0,6,,,,,,,,,10,11,75,,,
100860,note_on,1,0,6,,,,,,,,,10,,,,70,0
100860,note_on,0,0,6,,,,,,,,,10,,,,72,100
100862,control_change,36,0,7,,,,,,,,,11,11,75,,,
100863,note_on,0,0,1,,,,,,,,,0,,,,84,82
100863,note_on,20,0,1,,,,,,,,,0,,,,82,0
100865,control_change,36,0,8,,,,,,,,,12,11,75,,,
100870,control_change,36,0,9,,,,,,,,,13,11,75,,,
100872,control_change,36,0,10,,,,,,,,,14,11,75,,,
100883,control_change,20,0,1,,,,,,,,,0,11,76,,,
100885,control_change,40,0,2,,,,,,,,,1,11,76,,,
100892,control_change,40,0,3,,,,,,,,,3,11,76,,,
100895,control_change,35,0,6,,,,,,,,,10,11,76,,,
100898,control_change,36,0,7,,,,,,,,,11,11,76,,,
100901,control_change,36,0,8,,,,,,,,,12,11,76,,,
100906,control_change,36,0,9,,,,,,,,,13,11,76,,,
100908,control_change,36,0,10,,,,,,,,,14,11,76,,,
100913,note_on,15,0,7,,,,,,,,,11,,,,61,0
100920,note_on,0,0,6,,,,,,,,,10,,,,73,100
100920,note_on,25,0,6,,,,,,,,,10,,,,72,0
100920,set_tempo,120,1,0,,,,,,379747,,,,,,,,
100923,note_on,40,0,1,,,,,,,,,0,,,,84,0
100923,control_change,0,0,1,,,,,,,,,0,11,77,,,
100923,note_on,0,0,1,,,,,,,,,0,,,,85,82
100923,note_on,10,0,7,,,,,,,,,11,,,,64,100
100925,control_change,40,0,2,,,,,,,,,1,11,77,,,
100931,control_change,11,0,6,,,,,,,,,10,11,77,,,
100932,control_change,40,0,3,,,,,,,,,3,11,77,,,
100934,control_change,11,0,7,,,,,,,,,11,11,77,,,
100937,control_change,36,0,8,,,,,,,,,12,11,77,,,
100942,control_change,36,0,9,,,,,,,,,13,11,77,,,
100944,control_change,36,0,10,,,,,,,,,14,11,77,,,
100963,control_change,40,0,1,,,,,,,,,0,11,77,,,
100965,control_change,40,0,2,,,,,,,,,1,11,77,,,
100967,control_change,36,0,6,,,,,,,,,10,11,77,,,
100970,control_change,36,0,7,,,,,,,,,11,11,77,,,
100972,control_change,40,0,3,,,,,,,,,3,11,77,,,
100973,control_change,36,0,8,,,,,,,,,12,11,77,,,
100978,control_change,36,0,9,,,,,,,,,13,11,77,,,
100980,control_change,36,0,10,,,,,,,,,14,11,77,,,
100980,note_on,13,0,6,,,,,,,,,10,,,,73,0
100980,note_on,0,0,6,,,,,,,,,10,,,,70,100
100983,note_on,0,0,1,,,,,,,,,0,,,,82,82
100983,note_on,20,0,1,,,,,,,,,0,,,,85,0
101003,control_change,23,0,6,,,,,,,,,10,11,78,,,
101003,control_change,20,0,1,,,,,,,,,0,11,78,,,
101005,control_change,40,0,2,,,,,,,,,1,11,78,,,
101006,control_change,36,0,7,,,,,,,,,11,11,78,,,
101009,control_change,36,0,8,,,,,,,,,12,11,78,,,
101012,control_change,40,0,3,,,,,,,,,3,11,78,,,
101014,control_change,36,0,9,,,,,,,,,13,11,78,,,
101016,control_change,36,0,10,,,,,,,,,14,11,78,,,
101030,note_on,27,0,6,,,,,,,,,10,,,,70,0
101033,note_on,27,0,7,,,,,,,,,11,,,,64,0
101036,note_on,27,0,8,,,,,,,,,12,,,,54,0
101038,note_on,35,0,1,,,,,,,,,0,,,,82,0
101039,control_change,9,0,6,,,,,,,,,10,11,79,,,
101040,note_on,0,0,2,,,,,,,,,1,,,,70,0
101040,note_on,1,0,6,,,,,,,,,10,,,,69,100
101040,note_on,35,0,2,,,,,,,,,1,,,,76,0
101040,set_tempo,120,1,0,,,,,,394737,,,,,,,,
101041,note_on,27,0,9,,,,,,,,,13,,,,42,0
101042,control_change,9,0,7,,,,,,,,,11,11,79,,,
101043,note_on,0,0,1,,,,,,,,,0,,,,81,82
101043,control_change,5,0,1,,,,,,,,,0,11,79,,,
101043,note_on,27,0,10,,,,,,,,,14,,,,30,0
101043,note_on,1,0,7,,,,,,,,,11,,,,65,100
101044,control_change,0,0,4,,,,,,,,,4,11,79,,,
101044,note_on,480,0,4,,,,,,,,,4,,,,58,0
101044,note_on,0,0,4,,,,,,,,,4,,,,53,86
101045,note_on,0,0,2,,,,,,,,,1,,,,65,81
101045,note_on,0,0,2,,,,,,,,,1,,,,69,81
101045,control_change,5,0,2,,,,,,,,,1,11,79,,,
101045,control_change,9,0,8,,,,,,,,,12,11,79,,,
101046,note_on,1,0,8,,,,,,,,,12,,,,53,98
101046,note_on,0,0,5,,,,,,,,,5,,,,41,86
101046,note_on,480,0,5,,,,,,,,,5,,,,46,0
101046,control_change,0,0,5,,,,,,,,,5,11,79,,,
101047,note_on,35,0,3,,,,,,,,,3,,,,54,0
101047,note_on,0,0,3,,,,,,,,,3,,,,58,0
101050,control_change,9,0,9,,,,,,,,,13,11,79,,,
101051,note_on,1,0,9,,,,,,,,,13,,,,41,89
101052,control_change,5,0,3,,,,,,,,,3,11,79,,,
101052,control_change,9,0,10,,,,,,,,,14,11,79,,,
101052,note_on,0,0,3,,,,,,,,,3,,,,57,81
101052,note_on,0,0,3,,,,,,,,,3,,,,53,81
101053,note_on,1,0,10,,,,,,,,,14,,,,29,73
101057,control_change,17,0,6,,,,,,,,,10,11,75,,,
101060,control_change,17,0,7,,,,,,,,,11,11,75,,,
101060,control_change,17,0,1,,,,,,,,,0,11,75,,,
101061,control_change,17,0,4,,,,,,,,,4,11,75,,,
101062,control_change,17,0,2,,,,,,,,,1,11,75,,,
101063,control_change,17,0,8,,,,,,,,,12,11,75,,,
101063,control_change,17,0,5,,,,,,,,,5,11,75,,,
101068,control_change,17,0,9,,,,,,,,,13,11,75,,,
101069,control_change,17,0,3,,,,,,,,,3,11,75,,,
101070,control_change,17,0,10,,,,,,,,,14,11,75,,,
101075,control_change,18,0,6,,,,,,,,,10,11,71,,,
101078,control_change,18,0,7,,,,,,,,,11,11,71,,,
101078,control_change,18,0,1,,,,,,,,,0,11,71,,,
101079,control_change,18,0,4,,,,,,,,,4,11,71,,,
101080,control_change,18,0,2,,,,,,,,,1,11,71,,,
101081,control_change,18,0,8,,,,,,,,,12,11,71,,,
101081,control_change,18,0,5,,,,,,,,,5,11,71,,,
101084,control_change,9,0,6,,,,,,,,,10,11,68,,,
101086,control_change,18,0,9,,,,,,,,,13,11,71,,,
101087,control_change,9,0,1,,,,,,,,,0,11,68,,,
101087,control_change,9,0,7,,,,,,,,,11,11,68,,,
101087,control_change,18,0,3,,,,,,,,,3,11,71,,,
101088,control_change,9,0,4,,,,,,,,,4,11,68,,,
101088,control_change,18,0,10,,,,,,,,,14,11,71,,,
101089,control_change,9,0,2,,,,,,,,,1,11,68,,,
101090,control_change,9,0,5,,,,,,,,,5,11,68,,,
101090,note_on,6,0,6,,,,,,,,,10,,,,69,0
101090,control_change,9,0,8,,,,,,,,,12,11,68,,,
101093,note_on,6,0,7,,,,,,,,,11,,,,65,0
101095,control_change,9,0,9,,,,,,,,,13,11,68,,,
101096,control_change,9,0,3,,,,,,,,,3,11,68,,,
101097,control_change,9,0,10,,,,,,,,,14,11,68,,,
101100,note_on,10,0,6,,,,,,,,,10,,,,77,92
101102,control_change,2,0,6,,,,,,,,,10,11,64,,,
101103,note_on,10,0,7,,,,,,,,,11,,,,65,92
101105,note_on,0,0,2,,,,,,,,,1,,,,67,81
101105,note_on,16,0,2,,,,,,,,,1,,,,65,0
101105,note_on,0,0,2,,,,,,,,,1,,,,69,0
101105,control_change,2,0,7,,,,,,,,,11,11,64,,,
101105,note_on,0,0,2,,,,,,,,,1,,,,70,81
101105,control_change,18,0,1,,,,,,,,,0,11,64,,,
101106,control_change,18,0,4,,,,,,,,,4,11,64,,,
101107,control_change,2,0,2,,,,,,,,,1,11,64,,,
101108,control_change,18,0,5,,,,,,,,,5,11,64,,,
101108,control_change,18,0,8,,,,,,,,,12,11,64,,,
101112,note_on,16,0,3,,,,,,,,,3,,,,53,0
101112,note_on,0,0,3,,,,,,,,,3,,,,57,0
101112,note_on,0,0,3,,,,,,,,,3,,,,58,81
101112,note_on,0,0,3,,,,,,,,,3,,,,55,81
101113,control_change,18,0,9,,,,,,,,,13,11,64,,,
101114,control_change,2,0,3,,,,,,,,,3,11,64,,,
101115,control_change,18,0,10,,,,,,,,,14,11,64,,,
101120,control_change,18,0,6,,,,,,,,,10,11,60,,,
101123,control_change,18,0,1,,,,,,,,,0,11,60,,,
101123,control_change,18,0,7,,,,,,,,,11,11,60,,,
101124,control_change,18,0,4,,,,,,,,,4,11,60,,,
101125,control_change,18,0,2,,,,,,,,,1,11,60,,,
101126,control_change,18,0,5,,,,,,,,,5,11,60,,,
101126,control_change,18,0,8,,,,,,,,,12,11,60,,,
101129,control_change,9,0,6,,,,,,,,,10,11,57,,,
101131,control_change,18,0,9,,,,,,,,,13,11,60,,,
101132,control_change,18,0,3,,,,,,,,,3,11,60,,,
101132,control_change,9,0,7,,,,,,,,,11,11,57,,,
101132,control_change,9,0,1,,,,,,,,,0,11,57,,,
101133,control_change,9,0,4,,,,,,,,,4,11,57,,,
101133,control_change,18,0,10,,,,,,,,,14,11,60,,,
101134,control_change,9,0,2,,,,,,,,,1,11,57,,,
101135,control_change,9,0,5,,,,,,,,,5,11,57,,,
101135,control_change,9,0,8,,,,,,,,,12,11,57,,,
101138,control_change,9,0,6,,,,,,,,,10,11,54,,,
101140,control_change,9,0,9,,,,,,,,,13,11,57,,,
101141,control_change,9,0,1,,,,,,,,,0,11,54,,,
101141,control_change,9,0,7,,,,,,,,,11,11,54,,,
101141,control_change,9,0,3,,,,,,,,,3,11,57,,,
101142,control_change,9,0,4,,,,,,,,,4,11,54,,,
101142,control_change,9,0,10,,,,,,,,,14,11,57,,,
101143,control_change,9,0,2,,,,,,,,,1,11,54,,,
101144,control_change,9,0,8,,,,,,,,,12,11,54,,,
101144,control_change,9,0,5,,,,,,,,,5,11,54,,,
101147,control_change,9,0,6,,,,,,,,,10,11,51,,,
101149,control_change,9,0,9,,,,,,,,,13,11,54,,,
101150,control_change,9,0,7,,,,,,,,,11,11,51,,,
101150,note_on,3,0,6,,,,,,,,,10,,,,77,0
101150,control_change,9,0,3,,,,,,,,,3,11,54,,,
101150,control_change,9,0,1,,,,,,,,,0,11,51,,,
101151,control_change,9,0,4,,,,,,,,,4,11,51,,,
101151,control_change,9,0,10,,,,,,,,,14,11,54,,,
101152,control_change,9,0,2,,,,,,,,,1,11,51,,,
101153,note_on,3,0,7,,,,,,,,,11,,,,65,0
101153,control_change,9,0,5,,,,,,,,,5,11,51,,,
101153,control_change,9,0,8,,,,,,,,,12,11,51,,,
101156,control_change,6,0,6,,,,,,,,,10,11,48,,,
101158,control_change,9,0,9,,,,,,,,,13,11,51,,,
101158,note_on,8,0,1,,,,,,,,,0,,,,81,0
101159,control_change,9,0,3,,,,,,,,,3,11,51,,,
101159,control_change,1,0,1,,,,,,,,,0,11,48,,,
101159,control_change,6,0,7,,,,,,,,,11,11,48,,,
101160,note_on,4,0,6,,,,,,,,,10,,,,77,100
101160,control_change,9,0,4,,,,,,,,,4,11,48,,,
101160,set_tempo,120,1,0,,,,,,379747,,,,,,,,
101160,control_change,9,0,10,,,,,,,,,14,11,51,,,
101161,control_change,9,0,2,,,,,,,,,1,11,48,,,
101162,control_change,9,0,8,,,,,,,,,12,11,48,,,
101162,control_change,9,0,5,,,,,,,,,5,11,48,,,
101163,note_on,4,0,7,,,,,,,,,11,,,,65,100
101163,note_on,4,0,1,,,,,,,,,0,,,,77,82
101164,note_on,4,0,4,,,,,,,,,4,,,,53,0
101165,note_on,0,0,2,,,,,,,,,1,,,,68,81
101165,note_on,0,0,2,,,,,,,,,1,,,,71,81
101165,note_on,4,0,2,,,,,,,,,1,,,,67,0
101165,note_on,0,0,2,,,,,,,,,1,,,,70,0
101166,note_on,4,0,8,,,,,,,,,12,,,,53,0
101166,note_on,4,0,5,,,,,,,,,5,,,,41,0
101167,control_change,9,0,9,,,,,,,,,13,11,48,,,
101168,control_change,9,0,3,,,,,,,,,3,11,48,,,
101169,control_change,9,0,10,,,,,,,,,14,11,48,,,
101171,note_on,4,0,9,,,,,,,,,13,,,,41,0
101172,note_on,0,0,3,,,,,,,,,3,,,,56,81
101172,note_on,0,0,3,,,,,,,,,3,,,,58,0
101172,note_on,0,0,3,,,,,,,,,3,,,,59,81
101172,note_on,4,0,3,,,,,,,,,3,,,,55,0
101173,note_on,4,0,10,,,,,,,,,14,,,,29,0
101210,note_on,50,0,6,,,,,,,,,10,,,,77,0
101213,note_on,50,0,7,,,,,,,,,11,,,,65,0
101220,note_on,10,0,6,,,,,,,,,10,,,,77,92
101223,note_on,10,0,7,,,,,,,,,11,,,,65,92
101225,note_on,60,0,2,,,,,,,,,1,,,,68,0
101225,note_on,0,0,2,,,,,,,,,1,,,,69,81
101225,note_on,0,0,2,,,,,,,,,1,,,,72,81
101225,note_on,0,0,2,,,,,,,,,1,,,,71,0
101232,note_on,0,0,3,,,,,,,,,3,,,,57,81
101232,note_on,0,0,3,,,,,,,,,3,,,,60,81
101232,note_on,0,0,3,,,,,,,,,3,,,,56,0
101232,note_on,60,0,3,,,,,,,,,3,,,,59,0
101270,note_on,50,0,6,,,,,,,,,10,,,,77,0
101273,note_on,50,0,7,,,,,,,,,11,,,,65,0
101280,note_on,10,0,6,,,,,,,,,10,,,,77,100
101280,note_on,0,0,2,,,,,,,,,1,,,,72,0
101280,note_on,55,0,2,,,,,,,,,1,,,,69,0
101280,set_tempo,120,1,0,,,,,,394737,,,,,,,,
101283,note_on,120,0,1,,,,,,,,,0,,,,77,0
101283,note_on,10,0,7,,,,,,,,,11,,,,65,100
101283,note_on,0,0,1,,,,,,,,,0,,,,89,82
101285,note_on,5,0,2,,,,,,,,,1,,,,69,81
101285,note_on,0,0,2,,,,,,,,,1,,,,72,81
101287,note_on,55,0,3,,,,,,,,,3,,,,57,0
101287,note_on,0,0,3,,,,,,,,,3,,,,60,0
101292,note_on,5,0,3,,,,,,,,,3,,,,57,81
101292,note_on,0,0,3,,,,,,,,,3,,,,60,81
101330,note_on,50,0,6,,,,,,,,,10,,,,77,0
101333,note_on,50,0,7,,,,,,,,,11,,,,65,0
101340,note_on,10,0,6,,,,,,,,,10,,,,77,92
101343,note_on,10,0,7,,,,,,,,,11,,,,65,92
101390,note_on,50,0,6,,,,,,,,,10,,,,77,0
101393,note_on,50,0,7,,,,,,,,,11,,,,65,0
101400,set_tempo,120,1,0,,,,,,379747,,,,,,,,
101400,note_on,10,0,6,,,,,,,,,10,,,,77,100
101403,note_on,120,0,1,,,,,,,,,0,,,,89,0
101403,note_on,10,0,7,,,,,,,,,11,,,,65,100
101404,note_on,240,0,4,,,,,,,,,4,,,,53,86
101406,note_on,240,0,5,,,,,,,,,5,,,,41,86
101450,note_on,50,0,6,,,,,,,,,10,,,,77,0
101453,note_on,50,0,7,,,,,,,,,11,,,,65,0
101460,note_on,10,0,6,,,,,,,,,10,,,,77,92
101463,note_on,10,0,7,,,,,,,,,11,,,,65,92
101510,note_on,50,0,6,,,,,,,,,10,,,,77,0
101513,note_on,50,0,7,,,,,,,,,11,,,,65,0
101520,note_on,10,0,6,,,,,,,,,10,,,,77,100
101520,note_on,235,0,2,,,,,,,,,1,,,,72,0
101520,note_on,0,0,2,,,,,,,,,1,,,,69,0
101520,set_tempo,120,1,0,,,,,,394737,,,,,,,,
101521,control_change,1,0,6,,,,,,,,,10,11,48,,,
101522,control_change,1,0,6,,,,,,,,,10,11,51,,,
101523,note_on,10,0,7,,,,,,,,,11,,,,65,100
101523,control_change,1,0,6,,,,,,,,,10,11,54,,,
101524,note_on,0,0,4,,,,,,,,,4,,,,53,86
101524,control_change,0,0,4,,,,,,,,,4,11,79,,,
101524,control_change,1,0,7,,,,,,,,,11,11,48,,,
101524,control_change,1,0,6,,,,,,,,,10,11,57,,,
101524,note_on,120,0,4,,,,,,,,,4,,,,53,0
101525,control_change,5,0,2,,,,,,,,,1,11,79,,,
101525,control_change,1,0,7,,,,,,,,,11,11,51,,,
101525,control_change,1,0,6,,,,,,,,,10,11,60,,,
101525,note_on,0,0,2,,,,,,,,,1,,,,70,81
101525,note_on,0,0,2,,,,,,,,,1,,,,67,81
101526,note_on,360,0,8,,,,,,,,,12,,,,53,98
101526,control_change,1,0,7,,,,,,,,,11,11,54,,,
101526,note_on,0,0,5,,,,,,,,,5,,,,41,86
101526,control_change,0,0,5,,,,,,,,,5,11,79,,,
101526,note_on,120,0,5,,,,,,,,,5,,,,41,0
101527,note_on,235,0,3,,,,,,,,,3,,,,60,0
101527,note_on,0,0,3,,,,,,,,,3,,,,57,0
101527,control_change,1,0,7,,,,,,,,,11,11,57,,,
101527,control_change,2,0,6,,,,,,,,,10,11,64,,,
101528,control_change,1,0,7,,,,,,,,,11,11,60,,,
101529,control_change,2,0,6,,,,,,,,,10,11,68,,,
101530,control_change,1,0,6,,,,,,,,,10,11,71,,,
101530,control_change,2,0,7,,,,,,,,,11,11,64,,,
101531,note_on,360,0,9,,,,,,,,,13,,,,41,89
101532,control_change,5,0,3,,,,,,,,,3,11,79,,,
101532,control_change,2,0,6,,,,,,,,,10,11,75,,,
101532,control_change,2,0,7,,,,,,,,,11,11,68,,,
101532,note_on,0,0,3,,,,,,,,,3,,,,55,81
101532,note_on,0,0,3,,,,,,,,,3,,,,58,81
101533,control_change,1,0,7,,,,,,,,,11,11,71,,,
101533,note_on,360,0,10,,,,,,,,,14,,,,29,73
101535,control_change,2,0,7,,,,,,,,,11,11,75,,,
101541,control_change,17,0,4,,,,,,,,,4,11,75,,,
101543,control_change,18,0,2,,,,,,,,,1,11,75,,,
101543,control_change,17,0,5,,,,,,,,,5,11,75,,,
101543,control_change,17,0,8,,,,,,,,,12,11,75,,,
101548,control_change,17,0,9,,,,,,,,,13,11,75,,,
101550,control_change,18,0,3,,,,,,,,,3,11,75,,,
101550,control_change,17,0,10,,,,,,,,,14,11,75,,,
101555,control_change,23,0,6,,,,,,,,,10,11,71,,,
101558,control_change,23,0,7,,,,,,,,,11,11,71,,,
101559,control_change,18,0,4,,,,,,,,,4,11,71,,,
101561,control_change,18,0,8,,,,,,,,,12,11,71,,,
101561,control_change,18,0,2,,,,,,,,,1,11,71,,,
101561,control_change,18,0,5,,,,,,,,,5,11,71,,,
101564,control_change,9,0,6,,,,,,,,,10,11,68,,,
101566,control_change,18,0,9,,,,,,,,,13,11,71,,,
101567,control_change,9,0,7,,,,,,,,,11,11,68,,,
101568,control_change,18,0,3,,,,,,,,,3,11,71,,,
101568,control_change,18,0,10,,,,,,,,,14,11,71,,,
101568,control_change,9,0,4,,,,,,,,,4,11,68,,,
101570,control_change,9,0,5,,,,,,,,,5,11,68,,,
101570,note_on,6,0,6,,,,,,,,,10,,,,77,0
101570,control_change,9,0,8,,,,,,,,,12,11,68,,,
101570,control_change,9,0,2,,,,,,,,,1,11,68,,,
101573,note_on,6,0,7,,,,,,,,,11,,,,65,0
101575,control_change,9,0,9,,,,,,,,,13,11,68,,,
101577,control_change,9,0,3,,,,,,,,,3,11,68,,,
101577,control_change,9,0,10,,,,,,,,,14,11,68,,,
101580,note_on,10,0,6,,,,,,,,,10,,,,77,92
101582,control_change,2,0,6,,,,,,,,,10,11,64,,,
101583,note_on,10,0,7,,,,,,,,,11,,,,65,92
101585,note_on,15,0,2,,,,,,,,,1,,,,70,0
101585,note_on,0,0,2,,,,,,,,,1,,,,67,0
101585,note_on,0,0,2,,,,,,,,,1,,,,72,81
101585,control_change,2,0,7,,,,,,,,,11,11,64,,,
101585,note_on,0,0,2,,,,,,,,,1,,,,69,81
101586,control_change,18,0,4,,,,,,,,,4,11,64,,,
101588,control_change,18,0,5,,,,,,,,,5,11,64,,,
101588,control_change,3,0,2,,,,,,,,,1,11,64,,,
101588,control_change,18,0,8,,,,,,,,,12,11,64,,,
101592,note_on,0,0,3,,,,,,,,,3,,,,55,0
101592,note_on,0,0,3,,,,,,,,,3,,,,60,81
101592,note_on,15,0,3,,,,,,,,,3,,,,58,0
101592,note_on,0,0,3,,,,,,,,,3,,,,57,81
101593,control_change,18,0,9,,,,,,,,,13,11,64,,,
101595,control_change,18,0,10,,,,,,,,,14,11,64,,,
101595,control_change,3,0,3,,,,,,,,,3,11,64,,,
101600,control_change,18,0,6,,,,,,,,,10,11,60,,,
101603,control_change,18,0,7,,,,,,,,,11,11,60,,,
101604,control_change,18,0,4,,,,,,,,,4,11,60,,,
101606,control_change,18,0,5,,,,,,,,,5,11,60,,,
101606,control_change,18,0,2,,,,,,,,,1,11,60,,,
101606,control_change,18,0,8,,,,,,,,,12,11,60,,,
101609,control_change,9,0,6,,,,,,,,,10,11,57,,,
101611,control_change,18,0,9,,,,,,,,,13,11,60,,,
101612,control_change,9,0,7,,,,,,,,,11,11,57,,,
101613,control_change,9,0,4,,,,,,,,,4,11,57,,,
101613,control_change,18,0,10,,,,,,,,,14,11,60,,,
101613,control_change,18,0,3,,,,,,,,,3,11,60,,,
101615,control_change,9,0,2,,,,,,,,,1,11,57,,,
101615,control_change,9,0,5,,,,,,,,,5,11,57,,,
101615,control_change,9,0,8,,,,,,,,,12,11,57,,,
101618,control_change,9,0,6,,,,,,,,,10,11,54,,,
101620,control_change,9,0,9,,,,,,,,,13,11,57,,,
101621,control_change,9,0,7,,,,,,,,,11,11,54,,,
101622,control_change,9,0,10,,,,,,,,,14,11,57,,,
101622,control_change,9,0,3,,,,,,,,,3,11,57,,,
101622,control_change,9,0,4,,,,,,,,,4,11,54,,,
101624,control_change,9,0,8,,,,,,,,,12,11,54,,,
101624,control_change,9,0,5,,,,,,,,,5,11,54,,,
101624,control_change,9,0,2,,,,,,,,,1,11,54,,,
101627,control_change,9,0,6,,,,,,,,,10,11,51,,,
101629,control_change,9,0,9,,,,,,,,,13,11,54,,,
101630,note_on,3,0,6,,,,,,,,,10,,,,77,0
101630,control_change,9,0,7,,,,,,,,,11,11,51,,,
101631,control_change,9,0,10,,,,,,,,,14,11,54,,,
101631,control_change,9,0,4,,,,,,,,,4,11,51,,,
101631,control_change,9,0,3,,,,,,,,,3,11,54,,,
101633,control_change,9,0,8,,,,,,,,,12,11,51,,,
101633,note_on,3,0,7,,,,,,,,,11,,,,65,0
101633,control_change,9,0,5,,,,,,,,,5,11,51,,,
101633,control_change,9,0,2,,,,,,,,,1,11,51,,,
101636,control_change,6,0,6,,,,,,,,,10,11,48,,,
101638,control_change,9,0,9,,,,,,,,,13,11,51,,,
101639,control_change,6,0,7,,,,,,,,,11,11,48,,,
101640,note_on,4,0,6,,,,,,,,,10,,,,77,100
101640,control_change,9,0,3,,,,,,,,,3,11,51,,,
101640,set_tempo,120,1,0,,,,,,379747,,,,,,,,
101640,control_change,9,0,4,,,,,,,,,4,11,48,,,
101640,control_change,9,0,10,,,,,,,,,14,11,51,,,
101642,control_change,9,0,2,,,,,,,,,1,11,48,,,
101642,control_change,9,0,5,,,,,,,,,5,11,48,,,
101642,control_change,9,0,8,,,,,,,,,12,11,48,,,
101643,note_on,4,0,7,,,,,,,,,11,,,,65,100
101643,note_on,240,0,1,,,,,,,,,0,,,,77,82
101644,note_on,4,0,4,,,,,,,,,4,,,,53,0
101645,note_on,0,0,2,,,,,,,,,1,,,,69,81
101645,note_on,3,0,2,,,,,,,,,1,,,,69,0
101645,note_on,0,0,2,,,,,,,,,1,,,,72,0
101645,note_on,0,0,2,,,,,,,,,1,,,,73,81
101646,note_on,4,0,8,,,,,,,,,12,,,,53,0
101646,note_on,4,0,5,,,,,,,,,5,,,,41,0
101647,control_change,9,0,9,,,,,,,,,13,11,48,,,
101649,control_change,9,0,10,,,,,,,,,14,11,48,,,
101649,control_change,9,0,3,,,,,,,,,3,11,48,,,
101651,note_on,4,0,9,,,,,,,,,13,,,,41,0
101652,note_on,0,0,3,,,,,,,,,3,,,,57,0
101652,note_on,3,0,3,,,,,,,,,3,,,,60,0
101652,note_on,0,0,3,,,,,,,,,3,,,,57,81
101652,note_on,0,0,3,,,,,,,,,3,,,,61,81
101653,note_on,4,0,10,,,,,,,,,14,,,,29,0
101690,note_on,50,0,6,,,,,,,,,10,,,,77,0
101693,note_on,50,0,7,,,,,,,,,11,,,,65,0
101700,note_on,10,0,6,,,,,,,,,10,,,,77,92
101703,note_on,10,0,7,,,,,,,,,11,,,,65,92
101705,note_on,0,0,2,,,,,,,,,1,,,,73,0
101705,note_on,0,0,2,,,,,,,,,1,,,,70,81
101705,note_on,60,0,2,,,,,,,,,1,,,,69,0
101705,note_on,0,0,2,,,,,,,,,1,,,,74,81
101712,note_on,0,0,3,,,,,,,,,3,,,,62,81
101712,note_on,0,0,3,,,,,,,,,3,,,,57,0
101712,note_on,0,0,3,,,,,,,,,3,,,,58,81
101712,note_on,60,0,3,,,,,,,,,3,,,,61,0
101750,note_on,50,0,6,,,,,,,,,10,,,,77,0
101753,note_on,50,0,7,,,,,,,,,11,,,,65,0
101760,set_tempo,120,1,0,,,,,,394737,,,,,,,,
101760,note_on,55,0,2,,,,,,,,,1,,,,74,0
101760,note_on,10,0,6,,,,,,,,,10,,,,77,100
101760,note_on,0,0,2,,,,,,,,,1,,,,70,0
101763,note_on,120,0,1,,,,,,,,,0,,,,77,0
101763,note_on,0,0,1,,,,,,,,,0,,,,89,82
101763,note_on,10,0,7,,,,,,,,,11,,,,65,100
101765,note_on,5,0,2,,,,,,,,,1,,,,70,81
101765,note_on,0,0,2,,,,,,,,,1,,,,74,81
101767,note_on,55,0,3,,,,,,,,,3,,,,62,0
101767,note_on,0,0,3,,,,,,,,,3,,,,58,0
101772,note_on,5,0,3,,,,,,,,,3,,,,62,81
101772,note_on,0,0,3,,,,,,,,,3,,,,58,81
101810,note_on,50,0,6,,,,,,,,,10,,,,77,0
101813,note_on,50,0,7,,,,,,,,,11,,,,65,0
101820,note_on,10,0,6,,,,,,,,,10,,,,77,92
101823,note_on,10,0,7,,,,,,,,,11,,,,65,92
101870,note_on,50,0,6,,,,,,,,,10,,,,77,0
101873,note_on,50,0,7,,,,,,,,,11,,,,65,0
101880,set_tempo,120,1,0,,,,,,379747,,,,,,,,
101880,note_on,10,0,6,,,,,,,,,10,,,,77,100
101883,note_on,120,0,1,,,,,,,,,0,,,,89,0
101883,note_on,10,0,7,,,,,,,,,11,,,,65,100
101884,note_on,240,0,4,,,,,,,,,4,,,,53,86
101886,note_on,240,0,5,,,,,,,,,5,,,,41,86
101930,note_on,50,0,6,,,,,,,,,10,,,,77,0
101933,note_on,50,0,7,,,,,,,,,11,,,,65,0
101940,note_on,10,0,6,,,,,,,,,10,,,,77,92
101943,note_on,10,0,7,,,,,,,,,11,,,,65,92
101990,note_on,50,0,6,,,,,,,,,10,,,,77,0
101993,note_on,50,0,7,,,,,,,,,11,,,,65,0
102000,note_on,235,0,2,,,,,,,,,1,,,,74,0
102000,set_tempo,120,1,0,,,,,,394737,,,,,,,,
102000,note_on,0,0,2,,,,,,,,,1,,,,70,0
102000,note_on,10,0,6,,,,,,,,,10,,,,77,100
102001,control_change,1,0,6,,,,,,,,,10,11,48,,,
102002,control_change,1,0,6,,,,,,,,,10,11,51,,,
102003,control_change,1,0,6,,,,,,,,,10,11,54,,,
102003,note_on,10,0,7,,,,,,,,,11,,,,65,100
102004,note_on,0,0,4,,,,,,,,,4,,,,53,86
102004,control_change,0,0,4,,,,,,,,,4,11,79,,,
102004,note_on,120,0,4,,,,,,,,,4,,,,53,0
102004,control_change,1,0,7,,,,,,,,,11,11,48,,,
102004,control_change,1,0,6,,,,,,,,,10,11,57,,,
102005,control_change,1,0,6,,,,,,,,,10,11,60,,,
102005,control_change,5,0,2,,,,,,,,,1,11,79,,,
102005,note_on,0,0,2,,,,,,,,,1,,,,72,81
102005,note_on,0,0,2,,,,,,,,,1,,,,69,81
102005,control_change,1,0,7,,,,,,,,,11,11,51,,,
102006,note_on,360,0,8,,,,,,,,,12,,,,53,98
102006,control_change,0,0,5,,,,,,,,,5,11,79,,,
102006,control_change,1,0,7,,,,,,,,,11,11,54,,,
102006,note_on,0,0,5,,,,,,,,,5,,,,41,86
102006,note_on,120,0,5,,,,,,,,,5,,,,41,0
102007,note_on,235,0,3,,,,,,,,,3,,,,58,0
102007,note_on,0,0,3,,,,,,,,,3,,,,62,0
102007,control_change,1,0,7,,,,,,,,,11,11,57,,,
102007,control_change,2,0,6,,,,,,,,,10,11,64,,,
102008,control_change,1,0,7,,,,,,,,,11,11,60,,,
102009,control_change,2,0,6,,,,,,,,,10,11,68,,,
102010,control_change,1,0,6,,,,,,,,,10,11,71,,,
102010,control_change,2,0,7,,,,,,,,,11,11,64,,,
102011,note_on,360,0,9,,,,,,,,,13,,,,41,89
102012,note_on,0,0,3,,,,,,,,,3,,,,57,81
102012,control_change,2,0,6,,,,,,,,,10,11,75,,,
102012,control_change,2,0,7,,,,,,,,,11,11,68,,,
102012,note_on,0,0,3,,,,,,,,,3,,,,60,81
102012,control_change,5,0,3,,,,,,,,,3,11,79,,,
102013,control_change,1,0,7,,,,,,,,,11,11,71,,,
102013,note_on,360,0,10,,,,,,,,,14,,,,29,73
102015,control_change,2,0,7,,,,,,,,,11,11,75,,,
102021,control_change,17,0,4,,,,,,,,,4,11,75,,,
102023,control_change,17,0,8,,,,,,,,,12,11,75,,,
102023,control_change,18,0,2,,,,,,,,,1,11,75,,,
102023,control_change,17,0,5,,,,,,,,,5,11,75,,,
102028,control_change,17,0,9,,,,,,,,,13,11,75,,,
102030,control_change,18,0,3,,,,,,,,,3,11,75,,,
102030,control_change,17,0,10,,,,,,,,,14,11,75,,,
102035,control_change,23,0,6,,,,,,,,,10,11,71,,,
102038,control_change,23,0,7,,,,,,,,,11,11,71,,,
102039,control_change,18,0,4,,,,,,,,,4,11,71,,,
102041,control_change,18,0,8,,,,,,,,,12,11,71,,,
102041,control_change,18,0,2,,,,,,,,,1,11,71,,,
102041,control_change,18,0,5,,,,,,,,,5,11,71,,,
102044,control_change,9,0,6,,,,,,,,,10,11,68,,,
102046,control_change,18,0,9,,,,,,,,,13,11,71,,,
102047,control_change,9,0,7,,,,,,,,,11,11,68,,,
102048,control_change,9,0,4,,,,,,,,,4,11,68,,,
102048,control_change,18,0,10,,,,,,,,,14,11,71,,,
102048,control_change,18,0,3,,,,,,,,,3,11,71,,,
102050,control_change,9,0,2,,,,,,,,,1,11,68,,,
102050,control_change,9,0,8,,,,,,,,,12,11,68,,,
102050,control_change,9,0,5,,,,,,,,,5,11,68,,,
102050,note_on,6,0,6,,,,,,,,,10,,,,77,0
102053,note_on,6,0,7,,,,,,,,,11,,,,65,0
102055,control_change,9,0,9,,,,,,,,,13,11,68,,,
102057,control_change,9,0,3,,,,,,,,,3,11,68,,,
102057,control_change,9,0,10,,,,,,,,,14,11,68,,,
102060,note_on,10,0,6,,,,,,,,,10,,,,77,92
102062,control_change,2,0,6,,,,,,,,,10,11,64,,,
102063,note_on,10,0,7,,,,,,,,,11,,,,65,92
102065,note_on,0,0,2,,,,,,,,,1,,,,72,0
102065,note_on,0,0,2,,,,,,,,,1,,,,70,81
102065,note_on,0,0,2,,,,,,,,,1,,,,73,81
102065,note_on,15,0,2,,,,,,,,,1,,,,69,0
102065,control_change,2,0,7,,,,,,,,,11,11,64,,,
102066,control_change,18,0,4,,,,,,,,,4,11,64,,,
102068,control_change,18,0,5,,,,,,,,,5,11,64,,,
102068,control_change,3,0,2,,,,,,,,,1,11,64,,,
102068,control_change,18,0,8,,,,,,,,,12,11,64,,,
102072,note_on,0,0,3,,,,,,,,,3,,,,57,0
102072,note_on,0,0,3,,,,,,,,,3,,,,61,81
102072,note_on,15,0,3,,,,,,,,,3,,,,60,0
102072,note_on,0,0,3,,,,,,,,,3,,,,58,81
102073,control_change,18,0,9,,,,,,,,,13,11,64,,,
102075,control_change,18,0,10,,,,,,,,,14,11,64,,,
102075,control_change,3,0,3,,,,,,,,,3,11,64,,,
102080,control_change,18,0,6,,,,,,,,,10,11,60,,,
102083,control_change,18,0,7,,,,,,,,,11,11,60,,,
102084,control_change,18,0,4,,,,,,,,,4,11,60,,,
102086,control_change,18,0,8,,,,,,,,,12,11,60,,,
102086,control_change,18,0,5,,,,,,,,,5,11,60,,,
102086,control_change,18,0,2,,,,,,,,,1,11,60,,,
102089,control_change,9,0,6,,,,,,,,,10,11,57,,,
102091,control_change,18,0,9,,,,,,,,,13,11,60,,,
102092,control_change,9,0,7,,,,,,,,,11,11,57,,,
102093,control_change,18,0,10,,,,,,,,,14,11,60,,,
102093,control_change,9,0,4,,,,,,,,,4,11,57,,,
102093,control_change,18,0,3,,,,,,,,,3,11,60,,,
102095,control_change,9,0,5,,,,,,,,,5,11,57,,,
102095,control_change,9,0,8,,,,,,,,,12,11,57,,,
102095,control_change,9,0,2,,,,,,,,,1,11,57,,,
102098,control_change,9,0,6,,,,,,,,,10,11,54,,,
102100,control_change,9,0,9,,,,,,,,,13,11,57,,,
102101,control_change,9,0,7,,,,,,,,,11,11,54,,,
102102,control_change,9,0,4,,,,,,,,,4,11,54,,,
102102,control_change,9,0,10,,,,,,,,,14,11,57,,,
102102,control_change,9,0,3,,,,,,,,,3,11,57,,,
102104,control_change,9,0,2,,,,,,,,,1,11,54,,,
102104,control_change,9,0,8,,,,,,,,,12,11,54,,,
102104,control_change,9,0,5,,,,,,,,,5,11,54,,,
102107,control_change,9,0,6,,,,,,,,,10,11,51,,,
102109,control_change,9,0,9,,,,,,,,,13,11,54,,,
102110,control_change,9,0,7,,,,,,,,,11,11,51,,,
102110,note_on,3,0,6,,,,,,,,,10,,,,77,0
102111,control_change,9,0,4,,,,,,,,,4,11,51,,,
102111,control_change,9,0,3,,,,,,,,,3,11,54,,,
102111,control_change,9,0,10,,,,,,,,,14,11,54,,,
102113,control_change,9,0,2,,,,,,,,,1,11,51,,,
102113,control_change,9,0,5,,,,,,,,,5,11,51,,,
102113,note_on,3,0,7,,,,,,,,,11,,,,65,0
102113,control_change,9,0,8,,,,,,,,,12,11,51,,,
102116,control_change,6,0,6,,,,,,,,,10,11,48,,,
102118,control_change,9,0,9,,,,,,,,,13,11,51,,,
102119,control_change,6,0,7,,,,,,,,,11,11,48,,,
102120,note_on,4,0,6,,,,,,,,,10,,,,77,100
102120,control_change,9,0,10,,,,,,,,,14,11,51,,,
102120,control_change,9,0,4,,,,,,,,,4,11,48,,,
102120,control_change,9,0,3,,,,,,,,,3,11,51,,,
102120,set_tempo,120,1,0,,,,,,379747,,,,,,,,
102122,control_change,9,0,5,,,,,,,,,5,11,48,,,
102122,control_change,9,0,2,,,,,,,,,1,11,48,,,
102122,control_change,9,0,8,,,,,,,,,12,11,48,,,
102123,note_on,240,0,1,,,,,,,,,0,,,,77,82
102123,note_on,4,0,7,,,,,,,,,11,,,,65,100
102124,note_on,4,0,4,,,,,,,,,4,,,,53,0
102125,note_on,3,0,2,,,,,,,,,1,,,,73,0
102125,note_on,0,0,2,,,,,,,,,1,,,,70,0
102125,note_on,0,0,2,,,,,,,,,1,,,,71,81
102125,note_on,0,0,2,,,,,,,,,1,,,,74,81
102126,note_on,4,0,8,,,,,,,,,12,,,,53,0
102126,note_on,4,0,5,,,,,,,,,5,,,,41,0
102127,control_change,9,0,9,,,,,,,,,13,11,48,,,
102129,control_change,9,0,3,,,,,,,,,3,11,48,,,
102129,control_change,9,0,10,,,,,,,,,14,11,48,,,
102131,note_on,4,0,9,,,,,,,,,13,,,,41,0
102132,note_on,0,0,3,,,,,,,,,3,,,,59,81
102132,note_on,3,0,3,,,,,,,,,3,,,,61,0
102132,note_on,0,0,3,,,,,,,,,3,,,,58,0
102132,note_on,0,0,3,,,,,,,,,3,,,,62,81
102133,note_on,4,0,10,,,,,,,,,14,,,,29,0
102170,note_on,50,0,6,,,,,,,,,10,,,,77,0
102173,note_on,50,0,7,,,,,,,,,11,,,,65,0
102180,note_on,10,0,6,,,,,,,,,10,,,,77,92
102183,note_on,10,0,7,,,,,,,,,11,,,,65,92
102185,note_on,60,0,2,,,,,,,,,1,,,,74,0
102185,note_on,0,0,2,,,,,,,,,1,,,,71,0
102185,note_on,0,0,2,,,,,,,,,1,,,,75,81
102185,note_on,0,0,2,,,,,,,,,1,,,,72,81
102192,note_on,0,0,3,,,,,,,,,3,,,,63,81
102192,note_on,60,0,3,,,,,,,,,3,,,,62,0
102192,note_on,0,0,3,,,,,,,,,3,,,,59,0
102192,note_on,0,0,3,,,,,,,,,3,,,,60,81
102230,note_on,50,0,6,,,,,,,,,10,,,,77,0
102233,note_on,50,0,7,,,,,,,,,11,,,,65,0
102240,note_on,10,0,6,,,,,,,,,10,,,,77,100
102240,set_tempo,120,1,0,,,,,,394737,,,,,,,,
102240,note_on,0,0,2,,,,,,,,,1,,,,75,0
102240,note_on,55,0,2,,,,,,,,,1,,,,72,0
102243,note_on,10,0,7,,,,,,,,,11,,,,65,100
102243,note_on,0,0,1,,,,,,,,,0,,,,89,82
102243,note_on,120,0,1,,,,,,,,,0,,,,77,0
102245,note_on,0,0,2,,,,,,,,,1,,,,72,81
102245,note_on,5,0,2,,,,,,,,,1,,,,75,81
102247,note_on,0,0,3,,,,,,,,,3,,,,60,0
102247,note_on,55,0,3,,,,,,,,,3,,,,63,0
102252,note_on,5,0,3,,,,,,,,,3,,,,60,81
102252,note_on,0,0,3,,,,,,,,,3,,,,63,81
102290,note_on,50,0,6,,,,,,,,,10,,,,77,0
102293,note_on,50,0,7,,,,,,,,,11,,,,65,0
102300,note_on,10,0,6,,,,,,,,,10,,,,77,92
102303,note_on,10,0,7,,,,,,,,,11,,,,65,92
102350,note_on,50,0,6,,,,,,,,,10,,,,77,0
102353,note_on,50,0,7,,,,,,,,,11,,,,65,0
102360,note_on,10,0,6,,,,,,,,,10,,,,77,100
102360,set_tempo,120,1,0,,,,,,379747,,,,,,,,
102363,note_on,120,0,1,,,,,,,,,0,,,,89,0
102363,note_on,10,0,7,,,,,,,,,11,,,,65,100
102364,control_change,240,0,4,,,,,,,,,4,11,68,,,
102364,note_on,0,0,4,,,,,,,,,4,,,,53,86
102366,note_on,0,0,5,,,,,,,,,5,,,,41,86
102366,control_change,240,0,5,,,,,,,,,5,11,68,,,
102410,note_on,50,0,6,,,,,,,,,10,,,,77,0
102413,note_on,50,0,7,,,,,,,,,11,,,,65,0
102420,note_on,10,0,6,,,,,,,,,10,,,,77,92
102423,note_on,10,0,7,,,,,,,,,11,,,,65,92
102470,note_on,50,0,6,,,,,,,,,10,,,,77,0
102473,note_on,50,0,7,,,,,,,,,11,,,,65,0
102480,control_change,10,0,6,,,,,,,,,10,11,68,,,
102480,set_tempo,120,1,0,,,,,,394737,,,,,,,,
102480,note_on,0,0,6,,,,,,,,,10,,,,79,100
102480,note_on,0,0,2,,,,,,,,,1,,,,75,0
102480,note_on,235,0,2,,,,,,,,,1,,,,72,0
102483,note_on,0,0,7,,,,,,,,,11,,,,67,100
102483,note_on,0,0,1,,,,,,,,,0,,,,79,82
102483,control_change,10,0,7,,,,,,,,,11,11,68,,,
102483,control_change,120,0,1,,,,,,,,,0,11,68,,,
102484,note_on,0,0,4,,,,,,,,,4,,,,53,86
102484,note_on,120,0,4,,,,,,,,,4,,,,53,0
102485,control_change,5,0,2,,,,,,,,,1,11,68,,,
102485,note_on,0,0,2,,,,,,,,,1,,,,79,81
102485,note_on,0,0,2,,,,,,,,,1,,,,71,81
102486,note_on,120,0,5,,,,,,,,,5,,,,41,0
102486,note_on,0,0,5,,,,,,,,,5,,,,41,86
102486,control_change,360,0,8,,,,,,,,,12,11,68,,,
102486,note_on,0,0,8,,,,,,,,,12,,,,65,98
102487,note_on,235,0,3,,,,,,,,,3,,,,63,0
102487,note_on,0,0,3,,,,,,,,,3,,,,60,0
102491,control_change,360,0,9,,,,,,,,,13,11,68,,,
102491,note_on,0,0,9,,,,,,,,,13,,,,41,89
102492,note_on,0,0,3,,,,,,,,,3,,,,50,81
102492,note_on,0,0,3,,,,,,,,,3,,,,62,81
102492,control_change,5,0,3,,,,,,,,,3,11,68,,,
102493,note_on,0,0,10,,,,,,,,,14,,,,29,73
102493,control_change,360,0,10,,,,,,,,,14,11,68,,,
102536,note_on,50,0,8,,,,,,,,,12,,,,65,0
102540,note_on,60,0,6,,,,,,,,,10,,,,79,0
102540,note_on,0,0,6,,,,,,,,,10,,,,81,100
102543,note_on,60,0,1,,,,,,,,,0,,,,79,0
102543,note_on,0,0,1,,,,,,,,,0,,,,81,82
102543,note_on,0,0,7,,,,,,,,,11,,,,69,100
102543,note_on,60,0,7,,,,,,,,,11,,,,67,0
102546,note_on,10,0,8,,,,,,,,,12,,,,65,90
102596,note_on,50,0,8,,,,,,,,,12,,,,65,0
102600,set_tempo,120,1,0,,,,,,379747,,,,,,,,
102600,note_on,0,0,6,,,,,,,,,10,,,,82,100
102600,note_on,60,0,6,,,,,,,,,10,,,,81,0
102603,note_on,0,0,1,,,,,,,,,0,,,,82,82
102603,note_on,60,0,1,,,,,,,,,0,,,,81,0
102603,note_on,0,0,7,,,,,,,,,11,,,,70,100
102603,note_on,60,0,7,,,,,,,,,11,,,,69,0
102605,note_on,0,0,2,,,,,,,,,1,,,,74,81
102605,note_on,120,0,2,,,,,,,,,1,,,,71,0
102606,note_on,10,0,8,,,,,,,,,12,,,,65,98
102612,note_on,0,0,3,,,,,,,,,3,,,,65,81
102612,note_on,120,0,3,,,,,,,,,3,,,,62,0
102656,note_on,50,0,8,,,,,,,,,12,,,,65,0
102660,note_on,60,0,6,,,,,,,,,10,,,,82,0
102660,note_on,0,0,6,,,,,,,,,10,,,,83,100
102663,note_on,60,0,1,,,,,,,,,0,,,,82,0
102663,note_on,0,0,1,,,,,,,,,0,,,,83,82
102663,note_on,0,0,7,,,,,,,,,11,,,,71,100
102663,note_on,60,0,7,,,,,,,,,11,,,,70,0
102666,note_on,10,0,8,,,,,,,,,12,,,,65,90
102710,note_on,50,0,6,,,,,,,,,10,,,,83,0
102713,note_on,50,0,7,,,,,,,,,11,,,,71,0
102716,note_on,50,0,8,,,,,,,,,12,,,,65,0
102718,note_on,55,0,1,,,,,,,,,0,,,,83,0
102720,set_tempo,120,1,0,,,,,,394737,,,,,,,,
102720,note_on,10,0,6,,,,,,,,,10,,,,84,100
102723,note_on,5,0,1,,,,,,,,,0,,,,84,82
102723,note_on,10,0,7,,,,,,,,,11,,,,72,100
102725,note_on,120,0,2,,,,,,,,,1,,,,74,0
102725,note_on,0,0,2,,,,,,,,,1,,,,72,81
102726,note_on,10,0,8,,,,,,,,,12,,,,65,98
102732,note_on,0,0,3,,,,,,,,,3,,,,63,81
102732,note_on,120,0,3,,,,,,,,,3,,,,65,0
102776,note_on,50,0,8,,,,,,,,,12,,,,65,0
102786,note_on,10,0,8,,,,,,,,,12,,,,65,90
102836,note_on,50,0,8,,,,,,,,,12,,,,65,0
102840,note_on,115,0,2,,,,,,,,,1,,,,79,0
102840,set_tempo,120,1,0,,,,,,379747,,,,,,,,
102845,note_on,0,0,2,,,,,,,,,1,,,,70,81
102845,note_on,5,0,2,,,,,,,,,1,,,,72,0
102845,note_on,0,0,2,,,,,,,,,1,,,,78,81
102846,note_on,10,0,8,,,,,,,,,12,,,,65,98
102896,note_on,50,0,8,,,,,,,,,12,,,,65,0
102906,note_on,10,0,8,,,,,,,,,12,,,,65,90
102950,note_on,230,0,6,,,,,,,,,10,,,,84,0
102953,note_on,230,0,7,,,,,,,,,11,,,,72,0
102956,note_on,50,0,8,,,,,,,,,12,,,,65,0
102958,note_on,235,0,1,,,,,,,,,0,,,,84,0
102960,set_tempo,120,1,0,,,,,,394737,,,,,,,,
102960,note_on,115,0,2,,,,,,,,,1,,,,78,0
102960,note_on,0,0,2,,,,,,,,,1,,,,70,0
102960,note_on,10,0,6,,,,,,,,,10,,,,77,100
102961,note_on,470,0,9,,,,,,,,,13,,,,41,0
102963,note_on,470,0,10,,,,,,,,,14,,,,29,0
102963,note_on,10,0,7,,,,,,,,,11,,,,65,100
102963,note_on,5,0,1,,,,,,,,,0,,,,77,82
102965,note_on,5,0,2,,,,,,,,,1,,,,69,81
102965,note_on,0,0,2,,,,,,,,,1,,,,77,81
102966,note_on,10,0,8,,,,,,,,,12,,,,65,98
102967,note_on,235,0,3,,,,,,,,,3,,,,63,0
102971,note_on,10,0,9,,,,,,,,,13,,,,41,89
102972,note_on,5,0,3,,,,,,,,,3,,,,60,81
102973,note_on,10,0,10,,,,,,,,,14,,,,29,73
103016,note_on,50,0,8,,,,,,,,,12,,,,65,0
103020,note_on,0,0,6,,,,,,,,,10,,,,79,100
103020,note_on,60,0,6,,,,,,,,,10,,,,77,0
103023,note_on,60,0,7,,,,,,,,,11,,,,65,0
103023,note_on,0,0,1,,,,,,,,,0,,,,79,82
103023,note_on,60,0,1,,,,,,,,,0,,,,77,0
103023,note_on,0,0,7,,,,,,,,,11,,,,67,100
103026,note_on,10,0,8,,,,,,,,,12,,,,65,90
103076,note_on,50,0,8,,,,,,,,,12,,,,65,0
103080,set_tempo,120,1,0,,,,,,379747,,,,,,,,
103080,note_on,0,0,6,,,,,,,,,10,,,,80,100
103080,note_on,60,0,6,,,,,,,,,10,,,,79,0
103083,note_on,60,0,1,,,,,,,,,0,,,,79,0
103083,note_on,0,0,1,,,,,,,,,0,,,,80,82
103083,note_on,0,0,7,,,,,,,,,11,,,,68,100
103083,note_on,60,0,7,,,,,,,,,11,,,,67,0
103085,note_on,120,0,2,,,,,,,,,1,,,,69,0
103085,note_on,0,0,2,,,,,,,,,1,,,,72,81
103086,note_on,10,0,8,,,,,,,,,12,,,,65,98
103092,note_on,120,0,3,,,,,,,,,3,,,,60,0
103092,note_on,0,0,3,,,,,,,,,3,,,,63,81
103136,note_on,50,0,8,,,,,,,,,12,,,,65,0
103140,note_on,60,0,6,,,,,,,,,10,,,,80,0
103140,note_on,0,0,6,,,,,,,,,10,,,,81,100
103143,note_on,0,0,7,,,,,,,,,11,,,,69,100
103143,note_on,60,0,7,,,,,,,,,11,,,,68,0
103143,note_on,0,0,1,,,,,,,,,0,,,,81,82
103143,note_on,60,0,1,,,,,,,,,0,,,,80,0
103146,note_on,10,0,8,,,,,,,,,12,,,,65,90
103190,note_on,50,0,6,,,,,,,,,10,,,,81,0
103193,note_on,50,0,7,,,,,,,,,11,,,,69,0
103196,note_on,50,0,8,,,,,,,,,12,,,,65,0
103198,note_on,55,0,1,,,,,,,,,0,,,,81,0
103200,note_on,10,0,6,,,,,,,,,10,,,,82,100
103200,set_tempo,120,1,0,,,,,,394737,,,,,,,,
103203,note_on,10,0,7,,,,,,,,,11,,,,70,100
103203,note_on,5,0,1,,,,,,,,,0,,,,82,82
103205,note_on,120,0,2,,,,,,,,,1,,,,72,0
103205,note_on,0,0,2,,,,,,,,,1,,,,70,81
103206,note_on,10,0,8,,,,,,,,,12,,,,65,98
103212,note_on,120,0,3,,,,,,,,,3,,,,63,0
103212,note_on,0,0,3,,,,,,,,,3,,,,62,81
103256,note_on,50,0,8,,,,,,,,,12,,,,65,0
103266,note_on,10,0,8,,,,,,,,,12,,,,65,90
103316,note_on,50,0,8,,,,,,,,,12,,,,65,0
103320,set_tempo,120,1,0,,,,,,379747,,,,,,,,
103320,note_on,115,0,2,,,,,,,,,1,,,,77,0
103325,note_on,5,0,2,,,,,,,,,1,,,,70,81
103326,note_on,10,0,8,,,,,,,,,12,,,,65,98
103376,note_on,50,0,8,,,,,,,,,12,,,,65,0
103386,note_on,10,0,8,,,,,,,,,12,,,,65,90
103430,note_on,230,0,6,,,,,,,,,10,,,,82,0
103433,note_on,230,0,7,,,,,,,,,11,,,,70,0
103436,note_on,50,0,8,,,,,,,,,12,,,,65,0
103438,note_on,235,0,1,,,,,,,,,0,,,,82,0
103440,set_tempo,120,1,0,,,,,,394737,,,,,,,,
103440,note_on,10,0,6,,,,,,,,,10,,,,76,100
103440,note_on,115,0,2,,,,,,,,,1,,,,70,0
103441,note_on,470,0,9,,,,,,,,,13,,,,41,0
103443,note_on,470,0,10,,,,,,,,,14,,,,29,0
103443,note_on,5,0,1,,,,,,,,,0,,,,76,82
103443,note_on,10,0,7,,,,,,,,,11,,,,64,100
103444,note_on,0,0,4,,,,,,,,,4,,,,53,86
103444,note_on,960,0,4,,,,,,,,,4,,,,53,0
103445,note_on,5,0,2,,,,,,,,,1,,,,70,0
103445,note_on,0,0,2,,,,,,,,,1,,,,73,81
103445,note_on,0,0,2,,,,,,,,,1,,,,70,81
103446,note_on,0,0,5,,,,,,,,,5,,,,41,86
103446,note_on,960,0,5,,,,,,,,,5,,,,41,0
103446,note_on,10,0,8,,,,,,,,,12,,,,61,98
103447,note_on,0,0,3,,,,,,,,,3,,,,50,0
103447,note_on,235,0,3,,,,,,,,,3,,,,62,0
103451,note_on,10,0,9,,,,,,,,,13,,,,41,89
103452,note_on,5,0,3,,,,,,,,,3,,,,58,81
103452,note_on,0,0,3,,,,,,,,,3,,,,61,81
103453,note_on,10,0,10,,,,,,,,,14,,,,29,73
103496,note_on,50,0,8,,,,,,,,,12,,,,61,0
103506,note_on,10,0,8,,,,,,,,,12,,,,61,90
103556,note_on,50,0,8,,,,,,,,,12,,,,61,0
103560,set_tempo,120,1,0,,,,,,379747,,,,,,,,
103566,note_on,10,0,8,,,,,,,,,12,,,,58,98
103616,note_on,50,0,8,,,,,,,,,12,,,,58,0
103626,note_on,10,0,8,,,,,,,,,12,,,,58,90
103676,note_on,50,0,8,,,,,,,,,12,,,,58,0
103680,note_on,240,0,6,,,,,,,,,10,,,,76,0
103680,set_tempo,120,1,0,,,,,,401338,,,,,,,,
103680,note_on,0,0,6,,,,,,,,,10,,,,77,92
103683,note_on,0,0,7,,,,,,,,,11,,,,65,92
103683,note_on,0,0,1,,,,,,,,,0,,,,77,82
103683,note_on,240,0,1,,,,,,,,,0,,,,76,0
103683,note_on,240,0,7,,,,,,,,,11,,,,64,0
103685,note_on,0,0,2,,,,,,,,,1,,,,72,81
103685,note_on,0,0,2,,,,,,,,,1,,,,69,81
103685,note_on,0,0,2,,,,,,,,,1,,,,73,0
103685,note_on,240,0,2,,,,,,,,,1,,,,70,0
103686,note_on,10,0,8,,,,,,,,,12,,,,53,98
103692,note_on,0,0,3,,,,,,,,,3,,,,57,81
103692,note_on,0,0,3,,,,,,,,,3,,,,58,0
103692,note_on,240,0,3,,,,,,,,,3,,,,61,0
103692,note_on,0,0,3,,,,,,,,,3,,,,60,81
103736,note_on,50,0,8,,,,,,,,,12,,,,53,0
103746,note_on,10,0,8,,,,,,,,,12,,,,53,90
103796,note_on,50,0,8,,,,,,,,,12,,,,53,0
103800,set_tempo,120,1,0,,,,,,387097,,,,,,,,
103800,control_change,120,0,6,,,,,,,,,10,11,68,,,
103803,control_change,120,0,7,,,,,,,,,11,11,68,,,
103806,note_on,0,0,8,,,,,,,,,12,,,,53,98
103806,control_change,10,0,8,,,,,,,,,12,11,68,,,
103811,control_change,360,0,9,,,,,,,,,13,11,68,,,
103813,control_change,360,0,10,,,,,,,,,14,11,68,,,
103815,control_change,15,0,6,,,,,,,,,10,11,65,,,
103818,control_change,15,0,7,,,,,,,,,11,11,65,,,
103821,control_change,15,0,8,,,,,,,,,12,11,65,,,
103826,control_change,15,0,9,,,,,,,,,13,11,65,,,
103828,control_change,15,0,10,,,,,,,,,14,11,65,,,
103831,control_change,16,0,6,,,,,,,,,10,11,62,,,
103834,control_change,16,0,7,,,,,,,,,11,11,62,,,
103837,control_change,16,0,8,,,,,,,,,12,11,62,,,
103842,control_change,16,0,9,,,,,,,,,13,11,62,,,
103844,control_change,16,0,10,,,,,,,,,14,11,62,,,
103847,control_change,16,0,6,,,,,,,,,10,11,59,,,
103850,control_change,16,0,7,,,,,,,,,11,11,59,,,
103853,control_change,16,0,8,,,,,,,,,12,11,59,,,
103856,note_on,3,0,8,,,,,,,,,12,,,,53,0
103858,control_change,16,0,9,,,,,,,,,13,11,59,,,
103860,control_change,16,0,10,,,,,,,,,14,11,59,,,
103862,control_change,15,0,6,,,,,,,,,10,11,56,,,
103865,control_change,15,0,7,,,,,,,,,11,11,56,,,
103866,note_on,10,0,8,,,,,,,,,12,,,,53,90
103868,control_change,2,0,8,,,,,,,,,12,11,56,,,
103873,control_change,15,0,9,,,,,,,,,13,11,56,,,
103875,control_change,15,0,10,,,,,,,,,14,11,56,,,
103878,control_change,16,0,6,,,,,,,,,10,11,53,,,
103881,control_change,16,0,7,,,,,,,,,11,11,53,,,
103884,control_change,16,0,8,,,,,,,,,12,11,53,,,
103889,control_change,16,0,9,,,,,,,,,13,11,53,,,
103891,control_change,16,0,10,,,,,,,,,14,11,53,,,
103894,control_change,16,0,6,,,,,,,,,10,11,50,,,
103897,control_change,16,0,7,,,,,,,,,11,11,50,,,
103900,control_change,16,0,8,,,,,,,,,12,11,50,,,
103900,note_on,6,0,6,,,,,,,,,10,,,,77,0
103903,note_on,6,0,7,,,,,,,,,11,,,,65,0
103905,control_change,16,0,9,,,,,,,,,13,11,50,,,
103907,control_change,16,0,10,,,,,,,,,14,11,50,,,
103910,control_change,10,0,6,,,,,,,,,10,11,47,,,
103911,note_on,6,0,9,,,,,,,,,13,,,,41,0
103913,control_change,10,0,7,,,,,,,,,11,11,47,,,
103913,note_on,6,0,10,,,,,,,,,14,,,,29,0
103916,note_on,16,0,8,,,,,,,,,12,,,,53,0
103916,control_change,0,0,8,,,,,,,,,12,11,47,,,
103918,note_on,235,0,1,,,,,,,,,0,,,,77,0
103920,set_tempo,120,1,0,,,,,,408163,,,,,,,,
103920,note_on,10,0,6,,,,,,,,,10,,,,67,100
103920,note_on,235,0,2,,,,,,,,,1,,,,72,0
103920,note_on,0,0,2,,,,,,,,,1,,,,69,0
103921,control_change,10,0,9,,,,,,,,,13,11,47,,,
103923,note_on,10,0,7,,,,,,,,,11,,,,59,100
103923,control_change,10,0,10,,,,,,,,,14,11,47,,,
103923,control_change,5,0,1,,,,,,,,,0,11,47,,,
103923,note_on,0,0,1,,,,,,,,,0,,,,79,82
103924,note_on,480,0,4,,,,,,,,,4,,,,53,0
103925,control_change,5,0,2,,,,,,,,,1,11,47,,,
103925,note_on,0,0,2,,,,,,,,,1,,,,67,81
103926,note_on,10,0,8,,,,,,,,,12,,,,50,98
103926,note_on,480,0,5,,,,,,,,,5,,,,41,0
103927,note_on,235,0,3,,,,,,,,,3,,,,60,0
103927,note_on,0,0,3,,,,,,,,,3,,,,57,0
103931,note_on,10,0,9,,,,,,,,,13,,,,41,89
103933,note_on,10,0,10,,,,,,,,,14,,,,29,73
103980,note_on,60,0,6,,,,,,,,,10,,,,67,0
103980,note_on,0,0,6,,,,,,,,,10,,,,69,100
104040,note_on,60,0,6,,,,,,,,,10,,,,69,0
104040,set_tempo,120,1,0,,,,,,388350,,,,,,,,
104040,note_on,0,0,6,,,,,,,,,10,,,,70,100
104043,note_on,120,0,7,,,,,,,,,11,,,,59,0
104043,note_on,0,0,7,,,,,,,,,11,,,,62,100
104046,note_on,0,0,8,,,,,,,,,12,,,,53,98
104046,note_on,120,0,8,,,,,,,,,12,,,,50,0
104100,note_on,60,0,6,,,,,,,,,10,,,,70,0
104100,note_on,0,0,6,,,,,,,,,10,,,,71,100
104150,note_on,50,0,6,,,,,,,,,10,,,,71,0
104153,note_on,110,0,7,,,,,,,,,11,,,,62,0
104156,note_on,110,0,8,,,,,,,,,12,,,,53,0
104160,set_tempo,120,1,0,,,,,,409556,,,,,,,,
104160,note_on,10,0,6,,,,,,,,,10,,,,72,100
104163,note_on,10,0,7,,,,,,,,,11,,,,60,100
104166,note_on,10,0,8,,,,,,,,,12,,,,51,98
104280,set_tempo,120,1,0,,,,,,393443,,,,,,,,
104283,note_on,0,0,1,,,,,,,,,0,,,,84,82
104283,note_on,360,0,1,,,,,,,,,0,,,,79,0
104283,note_on,120,0,7,,,,,,,,,11,,,,60,0
104283,note_on,0,0,7,,,,,,,,,11,,,,58,100
104285,note_on,360,0,2,,,,,,,,,1,,,,67,0
104285,note_on,0,0,2,,,,,,,,,1,,,,72,81
104390,note_on,230,0,6,,,,,,,,,10,,,,72,0
104393,note_on,110,0,7,,,,,,,,,11,,,,58,0
104396,note_on,230,0,8,,,,,,,,,12,,,,51,0
104398,note_on,115,0,1,,,,,,,,,0,,,,84,0
104400,note_on,115,0,2,,,,,,,,,1,,,,72,0
104400,note_on,10,0,6,,,,,,,,,10,,,,65,100
104400,set_tempo,120,1,0,,,,,,410959,,,,,,,,
104403,note_on,5,0,1,,,,,,,,,0,,,,77,82
104403,note_on,10,0,7,,,,,,,,,11,,,,57,100
104405,note_on,5,0,2,,,,,,,,,1,,,,65,81
104406,note_on,10,0,8,,,,,,,,,12,,,,48,98
104460,note_on,0,0,6,,,,,,,,,10,,,,67,100
104460,note_on,60,0,6,,,,,,,,,10,,,,65,0
104520,note_on,60,0,6,,,,,,,,,10,,,,67,0
104520,set_tempo,120,1,0,,,,,,396040,,,,,,,,
104520,note_on,0,0,6,,,,,,,,,10,,,,68,100
104523,note_on,120,0,7,,,,,,,,,11,,,,57,0
104523,note_on,0,0,7,,,,,,,,,11,,,,60,100
104526,note_on,120,0,8,,,,,,,,,12,,,,48,0
104526,note_on,0,0,8,,,,,,,,,12,,,,51,98
104580,note_on,60,0,6,,,,,,,,,10,,,,68,0
104580,note_on,0,0,6,,,,,,,,,10,,,,69,100
104630,note_on,50,0,6,,,,,,,,,10,,,,69,0
104633,note_on,110,0,7,,,,,,,,,11,,,,60,0
104636,note_on,110,0,8,,,,,,,,,12,,,,51,0
104640,set_tempo,120,1,0,,,,,,413793,,,,,,,,
104640,note_on,10,0,6,,,,,,,,,10,,,,70,100
104643,note_on,10,0,7,,,,,,,,,11,,,,58,100
104646,note_on,10,0,8,,,,,,,,,12,,,,50,98
104760,set_tempo,120,1,0,,,,,,398671,,,,,,,,
104763,note_on,0,0,1,,,,,,,,,0,,,,82,82
104763,note_on,360,0,1,,,,,,,,,0,,,,77,0
104763,note_on,0,0,7,,,,,,,,,11,,,,62,100
104763,note_on,120,0,7,,,,,,,,,11,,,,58,0
104765,note_on,0,0,2,,,,,,,,,1,,,,70,81
104765,note_on,360,0,2,,,,,,,,,1,,,,65,0
104766,note_on,0,0,8,,,,,,,,,12,,,,58,98
104766,note_on,120,0,8,,,,,,,,,12,,,,50,0
104870,note_on,230,0,6,,,,,,,,,10,,,,70,0
104873,note_on,110,0,7,,,,,,,,,11,,,,62,0
104876,note_on,110,0,8,,,,,,,,,12,,,,58,0
104878,note_on,115,0,1,,,,,,,,,0,,,,82,0
104880,note_on,115,0,2,,,,,,,,,1,,,,70,0
104880,note_on,10,0,6,,,,,,,,,10,,,,64,100
104880,set_tempo,120,1,0,,,,,,413793,,,,,,,,
104883,note_on,10,0,7,,,,,,,,,11,,,,61,100
104883,note_on,5,0,1,,,,,,,,,0,,,,76,82
104885,note_on,5,0,2,,,,,,,,,1,,,,64,81
104886,note_on,10,0,8,,,,,,,,,12,,,,58,98
105000,set_tempo,120,1,0,,,,,,405405,,,,,,,,
105003,note_on,0,0,7,,,,,,,,,11,,,,60,100
105003,note_on,120,0,7,,,,,,,,,11,,,,61,0
105006,note_on,120,0,8,,,,,,,,,12,,,,58,0
105006,note_on,0,0,8,,,,,,,,,12,,,,60,98
105063,note_on,0,0,7,,,,,,,,,11,,,,58,100
105063,note_on,60,0,7,,,,,,,,,11,,,,60,0
105066,note_on,60,0,8,,,,,,,,,12,,,,60,0
105066,note_on,0,0,8,,,,,,,,,12,,,,61,98
105120,note_on,0,0,6,,,,,,,,,10,,,,65,100
105120,set_tempo,120,1,0,,,,,,427046,,,,,,,,
105120,note_on,240,0,6,,,,,,,,,10,,,,64,0
105123,note_on,240,0,1,,,,,,,,,0,,,,76,0
105123,note_on,0,0,1,,,,,,,,,0,,,,77,82
105123,note_on,60,0,7,,,,,,,,,11,,,,58,0
105123,note_on,0,0,7,,,,,,,,,11,,,,57,100
105125,note_on,0,0,2,,,,,,,,,1,,,,65,81
105125,note_on,240,0,2,,,,,,,,,1,,,,64,0
105126,note_on,0,0,8,,,,,,,,,12,,,,60,98
105126,note_on,60,0,8,,,,,,,,,12,,,,61,0
105240,set_tempo,120,1,0,,,,,,416667,,,,,,,,
105300,set_tempo,60,1,0,,,,,,476190,,,,,,,,
105350,note_on,230,0,6,,,,,,,,,10,,,,65,0
105353,note_on,230,0,7,,,,,,,,,11,,,,57,0
105353,control_change,3,0,6,,,,,,,,,10,11,47,,,
105355,control_change,2,0,6,,,,,,,,,10,11,50,,,
105356,control_change,3,0,7,,,,,,,,,11,11,47,,,
105356,note_on,230,0,8,,,,,,,,,12,,,,60,0
105357,control_change,2,0,6,,,,,,,,,10,11,53,,,
105358,note_on,235,0,1,,,,,,,,,0,,,,77,0
105358,control_change,2,0,7,,,,,,,,,11,11,50,,,
105359,control_change,2,0,6,,,,,,,,,10,11,56,,,
105360,control_change,2,0,7,,,,,,,,,11,11,53,,,
105360,note_on,235,0,2,,,,,,,,,1,,,,65,0
105360,set_tempo,60,1,0,,,,,,393443,,,,,,,,
105360,note_on,1,0,6,,,,,,,,,10,,,,87,100
105361,control_change,1,0,6,,,,,,,,,10,11,59,,,
105361,note_on,1430,0,9,,,,,,,,,13,,,,41,0
105362,control_change,2,0,7,,,,,,,,,11,11,56,,,
105363,note_on,1,0,7,,,,,,,,,11,,,,84,100
105363,note_on,0,0,1,,,,,,,,,0,,,,87,82
105363,control_change,5,0,1,,,,,,,,,0,11,79,,,
105363,note_on,1430,0,10,,,,,,,,,14,,,,29,0
105363,control_change,2,0,6,,,,,,,,,10,11,62,,,
105364,note_on,0,0,4,,,,,,,,,4,,,,53,86
105364,control_change,1,0,7,,,,,,,,,11,11,59,,,
105364,control_change,1440,0,4,,,,,,,,,4,11,79,,,
105365,note_on,0,0,2,,,,,,,,,1,,,,72,81
105365,note_on,0,0,2,,,,,,,,,1,,,,75,81
105365,control_change,2,0,6,,,,,,,,,10,11,65,,,
105365,control_change,5,0,2,,,,,,,,,1,11,79,,,
105366,control_change,2,0,7,,,,,,,,,11,11,62,,,
105366,control_change,10,0,8,,,,,,,,,12,11,79,,,
105366,note_on,0,0,8,,,,,,,,,12,,,,65,98
105366,control_change,1440,0,5,,,,,,,,,5,11,79,,,
105366,note_on,0,0,5,,,,,,,,,5,,,,41,86
105368,control_change,3,0,6,,,,,,,,,10,11,69,,,
105368,control_change,2,0,7,,,,,,,,,11,11,65,,,
105370,control_change,2,0,6,,,,,,,,,10,11,72,,,
105371,control_change,10,0,9,,,,,,,,,13,11,79,,,
105371,note_on,0,0,9,,,,,,,,,13,,,,53,89
105371,control_change,3,0,7,,,,,,,,,11,11,69,,,
105372,control_change,2,0,6,,,,,,,,,10,11,75,,,
105372,control_change,1445,0,3,,,,,,,,,3,11,79,,,
105372,note_on,0,0,3,,,,,,,,,3,,,,53,81
105373,note_on,0,0,10,,,,,,,,,14,,,,41,73
105373,control_change,10,0,10,,,,,,,,,14,11,79,,,
105373,control_change,2,0,7,,,,,,,,,11,11,72,,,
105375,control_change,2,0,7,,,,,,,,,11,11,75,,,
105387,control_change,15,0,6,,,,,,,,,10,11,73,,,
105390,control_change,15,0,7,,,,,,,,,11,11,73,,,
105405,control_change,18,0,6,,,,,,,,,10,11,68,,,
105408,control_change,18,0,7,,,,,,,,,11,11,68,,,
105423,control_change,18,0,6,,,,,,,,,10,11,64,,,
105425,control_change,62,0,1,,,,,,,,,0,11,78,,,
105426,control_change,62,0,4,,,,,,,,,4,11,78,,,
105426,control_change,18,0,7,,,,,,,,,11,11,64,,,
105427,control_change,62,0,2,,,,,,,,,1,11,78,,,
105428,control_change,62,0,5,,,,,,,,,5,11,78,,,
105428,control_change,62,0,8,,,,,,,,,12,11,78,,,
105433,control_change,62,0,9,,,,,,,,,13,11,78,,,
105434,control_change,62,0,3,,,,,,,,,3,11,78,,,
105435,control_change,62,0,10,,,,,,,,,14,11,78,,,
105438,control_change,13,0,1,,,,,,,,,0,11,74,,,
105439,control_change,13,0,4,,,,,,,,,4,11,74,,,
105440,control_change,13,0,2,,,,,,,,,1,11,74,,,
105441,control_change,13,0,8,,,,,,,,,12,11,74,,,
105441,control_change,13,0,5,,,,,,,,,5,11,74,,,
105441,control_change,18,0,6,,,,,,,,,10,11,60,,,
105444,control_change,18,0,7,,,,,,,,,11,11,60,,,
105446,control_change,13,0,9,,,,,,,,,13,11,74,,,
105447,control_change,13,0,3,,,,,,,,,3,11,74,,,
105448,control_change,13,0,10,,,,,,,,,14,11,74,,,
105450,control_change,9,0,6,,,,,,,,,10,11,57,,,
105451,control_change,13,0,1,,,,,,,,,0,11,70,,,
105452,control_change,13,0,4,,,,,,,,,4,11,70,,,
105453,control_change,9,0,7,,,,,,,,,11,11,57,,,
105453,control_change,13,0,2,,,,,,,,,1,11,70,,,
105454,control_change,13,0,5,,,,,,,,,5,11,70,,,
105454,control_change,13,0,8,,,,,,,,,12,11,70,,,
105459,control_change,13,0,9,,,,,,,,,13,11,70,,,
105459,control_change,9,0,6,,,,,,,,,10,11,54,,,
105460,control_change,13,0,3,,,,,,,,,3,11,70,,,
105461,control_change,13,0,10,,,,,,,,,14,11,70,,,
105462,control_change,9,0,7,,,,,,,,,11,11,54,,,
105464,control_change,13,0,1,,,,,,,,,0,11,66,,,
105465,control_change,13,0,4,,,,,,,,,4,11,66,,,
105466,control_change,13,0,2,,,,,,,,,1,11,66,,,
105467,control_change,13,0,8,,,,,,,,,12,11,66,,,
105467,control_change,13,0,5,,,,,,,,,5,11,66,,,
105468,control_change,9,0,6,,,,,,,,,10,11,51,,,
105471,control_change,9,0,7,,,,,,,,,11,11,51,,,
105472,control_change,13,0,9,,,,,,,,,13,11,66,,,
105473,control_change,13,0,3,,,,,,,,,3,11,66,,,
105474,control_change,13,0,10,,,,,,,,,14,11,66,,,
105477,control_change,9,0,6,,,,,,,,,10,11,48,,,
105477,control_change,13,0,1,,,,,,,,,0,11,62,,,
105478,control_change,13,0,4,,,,,,,,,4,11,62,,,
105479,control_change,13,0,2,,,,,,,,,1,11,62,,,
105480,control_change,13,0,5,,,,,,,,,5,11,62,,,
105480,control_change,13,0,8,,,,,,,,,12,11,62,,,
105480,set_tempo,120,1,0,,,,,,372671,,,,,,,,
105480,control_change,9,0,7,,,,,,,,,11,11,48,,,
105483,control_change,0,0,1,,,,,,,,,0,11,47,,,
105483,note_on,6,0,1,,,,,,,,,0,,,,87,0
105484,control_change,0,0,4,,,,,,,,,4,11,47,,,
105484,note_on,6,0,4,,,,,,,,,4,,,,53,0
105485,control_change,0,0,2,,,,,,,,,1,11,47,,,
105485,note_on,0,0,2,,,,,,,,,1,,,,72,0
105485,note_on,6,0,2,,,,,,,,,1,,,,75,0
105485,control_change,13,0,9,,,,,,,,,13,11,62,,,
105486,control_change,0,0,8,,,,,,,,,12,11,47,,,
105486,control_change,13,0,3,,,,,,,,,3,11,62,,,
105486,note_on,6,0,5,,,,,,,,,5,,,,41,0
105486,control_change,0,0,5,,,,,,,,,5,11,47,,,
105486,note_on,6,0,8,,,,,,,,,12,,,,65,0
105487,control_change,13,0,10,,,,,,,,,14,11,62,,,
105491,note_on,6,0,9,,,,,,,,,13,,,,53,0
105491,control_change,0,0,9,,,,,,,,,13,11,47,,,
105492,control_change,0,0,3,,,,,,,,,3,11,47,,,
105492,note_on,6,0,3,,,,,,,,,3,,,,53,0
105493,note_on,6,0,10,,,,,,,,,14,,,,41,0
105493,control_change,0,0,10,,,,,,,,,14,11,47,,,
105530,note_on,53,0,6,,,,,,,,,10,,,,87,0
105533,note_on,53,0,7,,,,,,,,,11,,,,84,0
105540,note_on,10,0,6,,,,,,,,,10,,,,86,100
105543,note_on,10,0,7,,,,,,,,,11,,,,82,100
105570,note_on,30,0,6,,,,,,,,,10,,,,86,0
105573,note_on,30,0,7,,,,,,,,,11,,,,82,0
105600,note_on,30,0,6,,,,,,,,,10,,,,84,100
105600,set_tempo,120,1,0,,,,,,393443,,,,,,,,
105603,note_on,30,0,7,,,,,,,,,11,,,,81,100
105630,note_on,30,0,6,,,,,,,,,10,,,,84,0
105633,note_on,30,0,7,,,,,,,,,11,,,,81,0
105660,note_on,30,0,6,,,,,,,,,10,,,,82,100
105663,note_on,30,0,7,,,,,,,,,11,,,,79,100
105690,note_on,30,0,6,,,,,,,,,10,,,,82,0
105693,note_on,30,0,7,,,,,,,,,11,,,,79,0
105720,note_on,30,0,6,,,,,,,,,10,,,,81,100
105720,set_tempo,120,1,0,,,,,,372671,,,,,,,,
105723,note_on,30,0,7,,,,,,,,,11,,,,77,100
105750,note_on,30,0,6,,,,,,,,,10,,,,81,0
105753,note_on,30,0,7,,,,,,,,,11,,,,77,0
105780,note_on,30,0,6,,,,,,,,,10,,,,79,100
105783,note_on,30,0,7,,,,,,,,,11,,,,75,100
105810,note_on,30,0,6,,,,,,,,,10,,,,79,0
105813,note_on,30,0,7,,,,,,,,,11,,,,75,0
105840,set_tempo,120,1,0,,,,,,393443,,,,,,,,
105840,note_on,30,0,6,,,,,,,,,10,,,,77,100
105843,note_on,30,0,7,,,,,,,,,11,,,,74,100
105960,set_tempo,120,1,0,,,,,,379747,,,,,,,,
105966,note_on,480,0,8,,,,,,,,,12,,,,65,98
106080,note_on,240,0,6,,,,,,,,,10,,,,77,0
106080,note_on,0,0,6,,,,,,,,,10,,,,76,100
106080,set_tempo,120,1,0,,,,,,408163,,,,,,,,
106083,note_on,0,0,7,,,,,,,,,11,,,,73,100
106083,note_on,240,0,7,,,,,,,,,11,,,,74,0
106086,note_on,0,0,8,,,,,,,,,12,,,,67,98
106086,note_on,120,0,8,,,,,,,,,12,,,,65,0
106200,note_on,0,0,6,,,,,,,,,10,,,,75,100
106200,set_tempo,120,1,0,,,,,,384615,,,,,,,,
106200,note_on,120,0,6,,,,,,,,,10,,,,76,0
106203,note_on,120,0,7,,,,,,,,,11,,,,73,0
106203,note_on,0,0,7,,,,,,,,,11,,,,72,100
106206,note_on,0,0,8,,,,,,,,,12,,,,69,98
106206,note_on,120,0,8,,,,,,,,,12,,,,67,0
106310,note_on,110,0,6,,,,,,,,,10,,,,75,0
106313,note_on,110,0,7,,,,,,,,,11,,,,72,0
106313,control_change,3,0,6,,,,,,,,,10,11,47,,,
106315,control_change,2,0,6,,,,,,,,,10,11,50,,,
106316,control_change,3,0,7,,,,,,,,,11,11,47,,,
106316,note_on,110,0,8,,,,,,,,,12,,,,69,0
106317,control_change,2,0,6,,,,,,,,,10,11,53,,,
106318,control_change,2,0,7,,,,,,,,,11,11,50,,,
106319,control_change,2,0,6,,,,,,,,,10,11,56,,,
106320,set_tempo,120,1,0,,,,,,415225,,,,,,,,
106320,control_change,2,0,7,,,,,,,,,11,11,53,,,
106320,note_on,1,0,6,,,,,,,,,10,,,,75,100
106321,control_change,1,0,6,,,,,,,,,10,11,59,,,
106322,control_change,2,0,7,,,,,,,,,11,11,56,,,
106323,control_change,2,0,6,,,,,,,,,10,11,62,,,
106323,note_on,0,0,1,,,,,,,,,0,,,,75,75
106323,control_change,840,0,1,,,,,,,,,0,11,79,,,
106323,note_on,1,0,7,,,,,,,,,11,,,,72,100
106324,note_on,0,0,4,,,,,,,,,4,,,,53,78
106324,control_change,840,0,4,,,,,,,,,4,11,79,,,
106324,control_change,1,0,7,,,,,,,,,11,11,59,,,
106325,control_change,2,0,6,,,,,,,,,10,11,65,,,
106325,note_on,0,0,2,,,,,,,,,1,,,,65,74
106325,note_on,0,0,2,,,,,,,,,1,,,,72,74
106325,control_change,840,0,2,,,,,,,,,1,11,79,,,
106326,control_change,2,0,7,,,,,,,,,11,11,62,,,
106326,note_on,0,0,5,,,,,,,,,5,,,,41,78
106326,control_change,840,0,5,,,,,,,,,5,11,79,,,
106326,control_change,10,0,8,,,,,,,,,12,11,79,,,
106326,note_on,0,0,8,,,,,,,,,12,,,,65,98
106328,control_change,2,0,7,,,,,,,,,11,11,65,,,
106328,control_change,3,0,6,,,,,,,,,10,11,69,,,
106330,control_change,2,0,6,,,,,,,,,10,11,72,,,
106331,note_on,0,0,9,,,,,,,,,13,,,,41,89
106331,control_change,3,0,7,,,,,,,,,11,11,69,,,
106331,control_change,840,0,9,,,,,,,,,13,11,79,,,
106332,control_change,2,0,6,,,,,,,,,10,11,75,,,
106332,note_on,0,0,3,,,,,,,,,3,,,,53,74
106332,control_change,840,0,3,,,,,,,,,3,11,79,,,
106333,note_on,0,0,10,,,,,,,,,14,,,,29,73
106333,control_change,2,0,7,,,,,,,,,11,11,72,,,
106333,control_change,840,0,10,,,,,,,,,14,11,79,,,
106335,control_change,2,0,7,,,,,,,,,11,11,75,,,
106355,control_change,23,0,6,,,,,,,,,10,11,71,,,
106358,control_change,23,0,7,,,,,,,,,11,11,71,,,
106364,control_change,9,0,6,,,,,,,,,10,11,68,,,
106367,control_change,9,0,7,,,,,,,,,11,11,68,,,
106382,control_change,18,0,6,,,,,,,,,10,11,64,,,
106385,control_change,18,0,7,,,,,,,,,11,11,64,,,
106385,control_change,62,0,1,,,,,,,,,0,11,78,,,
106386,control_change,62,0,4,,,,,,,,,4,11,78,,,
106387,control_change,62,0,2,,,,,,,,,1,11,78,,,
106388,control_change,62,0,8,,,,,,,,,12,11,78,,,
106388,control_change,62,0,5,,,,,,,,,5,11,78,,,
106393,control_change,62,0,9,,,,,,,,,13,11,78,,,
106394,control_change,62,0,3,,,,,,,,,3,11,78,,,
106395,control_change,62,0,10,,,,,,,,,14,11,78,,,
106398,control_change,13,0,1,,,,,,,,,0,11,74,,,
106399,control_change,13,0,4,,,,,,,,,4,11,74,,,
106400,control_change,13,0,2,,,,,,,,,1,11,74,,,
106400,control_change,18,0,6,,,,,,,,,10,11,60,,,
106401,control_change,13,0,8,,,,,,,,,12,11,74,,,
106401,control_change,13,0,5,,,,,,,,,5,11,74,,,
106403,control_change,18,0,7,,,,,,,,,11,11,60,,,
106406,control_change,13,0,9,,,,,,,,,13,11,74,,,
106407,control_change,13,0,3,,,,,,,,,3,11,74,,,
106408,control_change,13,0,10,,,,,,,,,14,11,74,,,
106409,control_change,9,0,6,,,,,,,,,10,11,57,,,
106411,control_change,13,0,1,,,,,,,,,0,11,70,,,
106412,control_change,9,0,7,,,,,,,,,11,11,57,,,
106412,control_change,13,0,4,,,,,,,,,4,11,70,,,
106413,control_change,13,0,2,,,,,,,,,1,11,70,,,
106414,control_change,13,0,8,,,,,,,,,12,11,70,,,
106414,control_change,13,0,5,,,,,,,,,5,11,70,,,
106418,control_change,9,0,6,,,,,,,,,10,11,54,,,
106419,control_change,13,0,9,,,,,,,,,13,11,70,,,
106420,control_change,13,0,3,,,,,,,,,3,11,70,,,
106421,control_change,9,0,7,,,,,,,,,11,11,54,,,
106421,control_change,13,0,10,,,,,,,,,14,11,70,,,
106424,control_change,13,0,1,,,,,,,,,0,11,66,,,
106425,control_change,13,0,4,,,,,,,,,4,11,66,,,
106426,control_change,13,0,2,,,,,,,,,1,11,66,,,
106427,control_change,13,0,8,,,,,,,,,12,11,66,,,
106427,control_change,13,0,5,,,,,,,,,5,11,66,,,
106427,control_change,9,0,6,,,,,,,,,10,11,51,,,
106430,control_change,9,0,7,,,,,,,,,11,11,51,,,
106432,control_change,13,0,9,,,,,,,,,13,11,66,,,
106433,control_change,13,0,3,,,,,,,,,3,11,66,,,
106434,control_change,13,0,10,,,,,,,,,14,11,66,,,
106436,control_change,9,0,6,,,,,,,,,10,11,48,,,
106437,control_change,13,0,1,,,,,,,,,0,11,62,,,
106438,control_change,13,0,4,,,,,,,,,4,11,62,,,
106439,control_change,13,0,2,,,,,,,,,1,11,62,,,
106439,control_change,9,0,7,,,,,,,,,11,11,48,,,
106440,control_change,13,0,8,,,,,,,,,12,11,62,,,
106440,control_change,13,0,5,,,,,,,,,5,11,62,,,
106440,set_tempo,120,1,0,,,,,,362538,,,,,,,,
106443,control_change,0,0,1,,,,,,,,,0,11,47,,,
106443,note_on,6,0,1,,,,,,,,,0,,,,75,0
106444,note_on,6,0,4,,,,,,,,,4,,,,53,0
106444,control_change,0,0,4,,,,,,,,,4,11,47,,,
106445,note_on,6,0,2,,,,,,,,,1,,,,72,0
106445,note_on,0,0,2,,,,,,,,,1,,,,65,0
106445,control_change,13,0,9,,,,,,,,,13,11,62,,,
106445,control_change,0,0,2,,,,,,,,,1,11,47,,,
106446,note_on,6,0,5,,,,,,,,,5,,,,41,0
106446,control_change,13,0,3,,,,,,,,,3,11,62,,,
106446,note_on,6,0,8,,,,,,,,,12,,,,65,0
106446,control_change,0,0,5,,,,,,,,,5,11,47,,,
106446,control_change,0,0,8,,,,,,,,,12,11,47,,,
106447,control_change,13,0,10,,,,,,,,,14,11,62,,,
106451,control_change,0,0,9,,,,,,,,,13,11,47,,,
106451,note_on,6,0,9,,,,,,,,,13,,,,41,0
106452,control_change,0,0,3,,,,,,,,,3,11,47,,,
106452,note_on,6,0,3,,,,,,,,,3,,,,53,0
106453,note_on,6,0,10,,,,,,,,,14,,,,29,0
106453,control_change,0,0,10,,,,,,,,,14,11,47,,,
106490,note_on,54,0,6,,,,,,,,,10,,,,75,0
106493,note_on,54,0,7,,,,,,,,,11,,,,72,0
106500,note_on,10,0,6,,,,,,,,,10,,,,74,100
106503,note_on,10,0,7,,,,,,,,,11,,,,70,100
106530,note_on,30,0,6,,,,,,,,,10,,,,74,0
106533,note_on,30,0,7,,,,,,,,,11,,,,70,0
106560,note_on,30,0,6,,,,,,,,,10,,,,72,100
106560,set_tempo,120,1,0,,,,,,385852,,,,,,,,
106563,note_on,30,0,7,,,,,,,,,11,,,,69,100
106590,note_on,30,0,6,,,,,,,,,10,,,,72,0
106593,note_on,30,0,7,,,,,,,,,11,,,,69,0
106620,note_on,30,0,6,,,,,,,,,10,,,,70,100
106623,note_on,30,0,7,,,,,,,,,11,,,,67,100
106650,note_on,30,0,6,,,,,,,,,10,,,,70,0
106653,note_on,30,0,7,,,,,,,,,11,,,,67,0
106680,set_tempo,120,1,0,,,,,,362538,,,,,,,,
106680,note_on,30,0,6,,,,,,,,,10,,,,69,100
106683,note_on,30,0,7,,,,,,,,,11,,,,65,100
106710,note_on,30,0,6,,,,,,,,,10,,,,69,0
106713,note_on,30,0,7,,,,,,,,,11,,,,65,0
106740,note_on,30,0,6,,,,,,,,,10,,,,67,100
106743,note_on,30,0,7,,,,,,,,,11,,,,63,100
106770,note_on,30,0,6,,,,,,,,,10,,,,67,0
106773,note_on,30,0,7,,,,,,,,,11,,,,63,0
106800,note_on,30,0,6,,,,,,,,,10,,,,65,100
106800,set_tempo,120,1,0,,,,,,401338,,,,,,,,
106803,note_on,30,0,7,,,,,,,,,11,,,,62,100
106920,set_tempo,120,1,0,,,,,,384615,,,,,,,,
106926,note_on,480,0,8,,,,,,,,,12,,,,53,98
106931,note_on,480,0,9,,,,,,,,,13,,,,41,89
106933,note_on,480,0,10,,,,,,,,,14,,,,29,73
107040,note_on,0,0,6,,,,,,,,,10,,,,64,100
107040,note_on,240,0,6,,,,,,,,,10,,,,65,0
107040,set_tempo,120,1,0,,,,,,452830,,,,,,,,
107043,note_on,0,0,7,,,,,,,,,11,,,,61,100
107043,note_on,240,0,7,,,,,,,,,11,,,,62,0
107046,note_on,120,0,8,,,,,,,,,12,,,,53,0
107046,note_on,0,0,8,,,,,,,,,12,,,,55,98
107051,note_on,0,0,9,,,,,,,,,13,,,,43,89
107051,note_on,120,0,9,,,,,,,,,13,,,,41,0
107053,note_on,0,0,10,,,,,,,,,14,,,,31,73
107053,note_on,120,0,10,,,,,,,,,14,,,,29,0
107160,note_on,0,0,6,,,,,,,,,10,,,,63,100
107160,set_tempo,120,1,0,,,,,,502092,,,,,,,,
107160,note_on,120,0,6,,,,,,,,,10,,,,64,0
107163,note_on,120,0,7,,,,,,,,,11,,,,61,0
107163,note_on,0,0,7,,,,,,,,,11,,,,60,100
107166,note_on,120,0,8,,,,,,,,,12,,,,55,0
107166,note_on,0,0,8,,,,,,,,,12,,,,57,98
107171,note_on,120,0,9,,,,,,,,,13,,,,43,0
107171,note_on,0,0,9,,,,,,,,,13,,,,45,89
107173,note_on,120,0,10,,,,,,,,,14,,,,31,0
107173,note_on,0,0,10,,,,,,,,,14,,,,33,73
107270,note_on,110,0,6,,,,,,,,,10,,,,63,0
107273,note_on,110,0,7,,,,,,,,,11,,,,60,0
107276,note_on,110,0,8,,,,,,,,,12,,,,57,0
107280,note_on,10,0,6,,,,,,,,,10,,,,63,100
107280,set_tempo,120,1,0,,,,,,468750,,,,,,,,
107281,note_on,110,0,9,,,,,,,,,13,,,,45,0
107283,note_on,0,0,1,,,,,,,,,0,,,,75,82
107283,note_on,110,0,10,,,,,,,,,14,,,,33,0
107283,note_on,10,0,7,,,,,,,,,11,,,,60,100
107283,control_change,840,0,1,,,,,,,,,0,11,32,,,
107284,note_on,840,0,4,,,,,,,,,4,,,,53,86
107285,control_change,840,0,2,,,,,,,,,1,11,32,,,
107285,note_on,0,0,2,,,,,,,,,1,,,,72,81
107285,note_on,0,0,2,,,,,,,,,1,,,,63,81
107286,note_on,10,0,8,,,,,,,,,12,,,,57,98
107286,note_on,840,0,5,,,,,,,,,5,,,,41,86
107291,note_on,10,0,9,,,,,,,,,13,,,,45,89
107292,note_on,0,0,3,,,,,,,,,3,,,,57,81
107292,note_on,0,0,3,,,,,,,,,3,,,,60,81
107292,control_change,840,0,3,,,,,,,,,3,11,32,,,
107293,note_on,10,0,10,,,,,,,,,14,,,,33,73
107299,control_change,16,0,1,,,,,,,,,0,11,34,,,
107301,control_change,16,0,2,,,,,,,,,1,11,34,,,
107308,control_change,16,0,3,,,,,,,,,3,11,34,,,
107315,control_change,16,0,1,,,,,,,,,0,11,36,,,
107317,control_change,16,0,2,,,,,,,,,1,11,36,,,
107324,control_change,16,0,3,,,,,,,,,3,11,36,,,
107331,control_change,16,0,1,,,,,,,,,0,11,38,,,
107333,control_change,16,0,2,,,,,,,,,1,11,38,,,
107340,control_change,16,0,3,,,,,,,,,3,11,38,,,
107347,control_change,16,0,1,,,,,,,,,0,11,40,,,
107349,control_change,16,0,2,,,,,,,,,1,11,40,,,
107356,control_change,16,0,3,,,,,,,,,3,11,40,,,
107363,control_change,16,0,1,,,,,,,,,0,11,42,,,
107365,control_change,16,0,2,,,,,,,,,1,11,42,,,
107372,control_change,16,0,3,,,,,,,,,3,11,42,,,
107379,control_change,16,0,1,,,,,,,,,0,11,44,,,
107381,control_change,16,0,2,,,,,,,,,1,11,44,,,
107388,control_change,16,0,3,,,,,,,,,3,11,44,,,
107395,control_change,16,0,1,,,,,,,,,0,11,46,,,
107397,control_change,16,0,2,,,,,,,,,1,11,46,,,
107400,set_tempo,120,1,0,,,,,,530973,,,,,,,,
107404,control_change,16,0,3,,,,,,,,,3,11,46,,,
107520,set_tempo,120,1,0,,,,,,603015,,,,,,,,
107610,control_change,330,0,6,,,,,,,,,10,11,47,,,
107613,control_change,330,0,7,,,,,,,,,11,11,47,,,
107613,control_change,218,0,1,,,,,,,,,0,11,47,,,
107614,control_change,330,0,4,,,,,,,,,4,11,47,,,
107615,control_change,218,0,2,,,,,,,,,1,11,47,,,
107616,control_change,330,0,8,,,,,,,,,12,11,47,,,
107616,control_change,330,0,5,,,,,,,,,5,11,47,,,
107618,control_change,8,0,6,,,,,,,,,10,11,44,,,
107621,control_change,8,0,7,,,,,,,,,11,11,44,,,
107621,control_change,330,0,9,,,,,,,,,13,11,47,,,
107621,control_change,8,0,1,,,,,,,,,0,11,44,,,
107622,control_change,8,0,4,,,,,,,,,4,11,44,,,
107622,control_change,218,0,3,,,,,,,,,3,11,47,,,
107623,control_change,330,0,10,,,,,,,,,14,11,47,,,
107623,control_change,8,0,2,,,,,,,,,1,11,44,,,
107624,control_change,8,0,5,,,,,,,,,5,11,44,,,
107624,control_change,8,0,8,,,,,,,,,12,11,44,,,
107627,control_change,9,0,6,,,,,,,,,10,11,41,,,
107629,control_change,8,0,9,,,,,,,,,13,11,44,,,
107630,control_change,9,0,1,,,,,,,,,0,11,41,,,
107630,control_change,8,0,3,,,,,,,,,3,11,44,,,
107630,control_change,9,0,7,,,,,,,,,11,11,41,,,
107631,control_change,8,0,10,,,,,,,,,14,11,44,,,
107631,control_change,9,0,4,,,,,,,,,4,11,41,,,
107632,control_change,9,0,2,,,,,,,,,1,11,41,,,
107633,control_change,9,0,8,,,,,,,,,12,11,41,,,
107633,control_change,9,0,5,,,,,,,,,5,11,41,,,
107636,control_change,9,0,6,,,,,,,,,10,11,38,,,
107638,control_change,9,0,9,,,,,,,,,13,11,41,,,
107639,control_change,9,0,7,,,,,,,,,11,11,38,,,
107639,control_change,9,0,1,,,,,,,,,0,11,38,,,
107639,control_change,9,0,3,,,,,,,,,3,11,41,,,
107640,control_change,9,0,10,,,,,,,,,14,11,41,,,
107640,control_change,9,0,4,,,,,,,,,4,11,38,,,
107640,set_tempo,120,1,0,,,,,,710059,,,,,,,,
107641,control_change,9,0,2,,,,,,,,,1,11,38,,,
107642,control_change,9,0,5,,,,,,,,,5,11,38,,,
107642,control_change,9,0,8,,,,,,,,,12,11,38,,,
107645,control_change,9,0,6,,,,,,,,,10,11,35,,,
107647,control_change,9,0,9,,,,,,,,,13,11,38,,,
107648,control_change,9,0,3,,,,,,,,,3,11,38,,,
107648,control_change,9,0,7,,,,,,,,,11,11,35,,,
107648,control_change,9,0,1,,,,,,,,,0,11,35,,,
107649,control_change,9,0,4,,,,,,,,,4,11,35,,,
107649,control_change,9,0,10,,,,,,,,,14,11,38,,,
107650,control_change,9,0,2,,,,,,,,,1,11,35,,,
107651,control_change,9,0,8,,,,,,,,,12,11,35,,,
107651,control_change,9,0,5,,,,,,,,,5,11,35,,,
107654,control_change,9,0,6,,,,,,,,,10,11,32,,,
107656,control_change,9,0,9,,,,,,,,,13,11,35,,,
107657,control_change,9,0,3,,,,,,,,,3,11,35,,,
107657,control_change,9,0,1,,,,,,,,,0,11,32,,,
107657,control_change,9,0,7,,,,,,,,,11,11,32,,,
107658,control_change,9,0,10,,,,,,,,,14,11,35,,,
107658,control_change,9,0,4,,,,,,,,,4,11,32,,,
107659,control_change,9,0,2,,,,,,,,,1,11,32,,,
107660,control_change,9,0,8,,,,,,,,,12,11,32,,,
107660,control_change,9,0,5,,,,,,,,,5,11,32,,,
107663,control_change,9,0,6,,,,,,,,,10,11,29,,,
107665,control_change,9,0,9,,,,,,,,,13,11,32,,,
107666,control_change,9,0,7,,,,,,,,,11,11,29,,,
107666,control_change,9,0,1,,,,,,,,,0,11,29,,,
107666,control_change,9,0,3,,,,,,,,,3,11,32,,,
107667,control_change,9,0,10,,,,,,,,,14,11,32,,,
107667,control_change,9,0,4,,,,,,,,,4,11,29,,,
107668,control_change,9,0,2,,,,,,,,,1,11,29,,,
107669,control_change,9,0,8,,,,,,,,,12,11,29,,,
107669,control_change,9,0,5,,,,,,,,,5,11,29,,,
107672,control_change,9,0,6,,,,,,,,,10,11,26,,,
107673,note_on,4,0,8,,,,,,,,,12,,,,57,0
107674,control_change,9,0,9,,,,,,,,,13,11,29,,,
107675,control_change,9,0,1,,,,,,,,,0,11,26,,,
107675,control_change,9,0,7,,,,,,,,,11,11,26,,,
107675,note_on,8,0,10,,,,,,,,,14,,,,33,0
107675,control_change,9,0,3,,,,,,,,,3,11,29,,,
107676,control_change,9,0,4,,,,,,,,,4,11,26,,,
107676,control_change,1,0,10,,,,,,,,,14,11,29,,,
107677,control_change,9,0,2,,,,,,,,,1,11,26,,,
107678,control_change,9,0,5,,,,,,,,,5,11,26,,,
107678,note_on,4,0,9,,,,,,,,,13,,,,45,0
107678,control_change,5,0,8,,,,,,,,,12,11,26,,,
107679,note_on,3,0,4,,,,,,,,,4,,,,53,0
107680,note_on,8,0,6,,,,,,,,,10,,,,63,0
107681,control_change,1,0,6,,,,,,,,,10,11,23,,,
107681,note_on,3,0,5,,,,,,,,,5,,,,41,0
107682,note_on,0,0,3,,,,,,,,,3,,,,57,0
107682,note_on,7,0,3,,,,,,,,,3,,,,60,0
107683,note_on,8,0,1,,,,,,,,,0,,,,75,0
107683,control_change,5,0,9,,,,,,,,,13,11,26,,,
107683,note_on,8,0,7,,,,,,,,,11,,,,60,0
107684,control_change,1,0,1,,,,,,,,,0,11,23,,,
107684,control_change,1,0,7,,,,,,,,,11,11,23,,,
107684,control_change,2,0,3,,,,,,,,,3,11,26,,,
107685,set_tempo,45,1,0,,,,,,6000000,,,,,,,,
107685,control_change,9,0,10,,,,,,,,,14,11,26,,,
107685,control_change,6,0,4,,,,,,,,,4,11,23,,,
107685,note_on,8,0,2,,,,,,,,,1,,,,63,0
107685,note_on,0,0,2,,,,,,,,,1,,,,72,0
107686,control_change,1,0,2,,,,,,,,,1,11,23,,,
107687,control_change,9,0,8,,,,,,,,,12,11,23,,,
107687,control_change,6,0,5,,,,,,,,,5,11,23,,,
107692,control_change,9,0,9,,,,,,,,,13,11,23,,,
107693,control_change,9,0,3,,,,,,,,,3,11,23,,,
107694,control_change,9,0,10,,,,,,,,,14,11,23,,,
107695,set_tempo,10,1,0,,,,,,442804,,,,,,,,
107700,set_tempo,5,1,0,,,,,,415225,,,,,,,,
107700,control_change,19,0,6,,,,,,,,,10,11,47,,,
107700,note_on,0,0,6,,,,,,,,,10,,,,65,92
107750,note_on,50,0,6,,,,,,,,,10,,,,65,0
107760,set_tempo,60,1,0,,,,,,355030,,,,,,,,
107760,note_on,10,0,6,,,,,,,,,10,,,,65,100
107763,control_change,79,0,7,,,,,,,,,11,11,47,,,
107763,note_on,0,0,7,,,,,,,,,11,,,,58,67
107766,note_on,0,0,8,,,,,,,,,12,,,,53,59
107766,control_change,79,0,8,,,,,,,,,12,11,47,,,
107771,note_on,0,0,9,,,,,,,,,13,,,,50,50
107771,control_change,79,0,9,,,,,,,,,13,11,47,,,
107773,control_change,79,0,10,,,,,,,,,14,11,47,,,
107773,note_on,0,0,10,,,,,,,,,14,,,,38,33
107820,note_on,60,0,6,,,,,,,,,10,,,,65,0
107820,note_on,0,0,6,,,,,,,,,10,,,,67,100
107870,note_on,50,0,6,,,,,,,,,10,,,,67,0
107880,note_on,10,0,6,,,,,,,,,10,,,,69,100
107880,set_tempo,120,1,0,,,,,,382166,,,,,,,,
107883,note_on,120,0,7,,,,,,,,,11,,,,58,0
107886,note_on,120,0,8,,,,,,,,,12,,,,53,0
107891,note_on,120,0,9,,,,,,,,,13,,,,50,0
107893,note_on,120,0,10,,,,,,,,,14,,,,38,0
107910,note_on,30,0,6,,,,,,,,,10,,,,69,0
107940,note_on,30,0,6,,,,,,,,,10,,,,70,100
107970,note_on,30,0,6,,,,,,,,,10,,,,70,0
108000,note_on,30,0,6,,,,,,,,,10,,,,70,100
108000,set_tempo,120,1,0,,,,,,355030,,,,,,,,
108003,note_on,120,0,7,,,,,,,,,11,,,,60,73
108006,note_on,120,0,8,,,,,,,,,12,,,,53,65
108011,note_on,120,0,9,,,,,,,,,13,,,,51,56
108013,note_on,120,0,10,,,,,,,,,14,,,,39,38
108060,note_on,0,0,6,,,,,,,,,10,,,,69,100
108060,note_on,60,0,6,,,,,,,,,10,,,,70,0
108110,note_on,50,0,6,,,,,,,,,10,,,,69,0
108120,set_tempo,120,1,0,,,,,,382166,,,,,,,,
108120,note_on,10,0,6,,,,,,,,,10,,,,67,100
108123,note_on,120,0,7,,,,,,,,,11,,,,60,0
108126,note_on,120,0,8,,,,,,,,,12,,,,53,0
108131,note_on,120,0,9,,,,,,,,,13,,,,51,0
108133,note_on,120,0,10,,,,,,,,,14,,,,39,0
108150,note_on,30,0,6,,,,,,,,,10,,,,67,0
108180,note_on,30,0,6,,,,,,,,,10,,,,65,100
108210,note_on,30,0,6,,,,,,,,,10,,,,65,0
108240,set_tempo,120,1,0,,,,,,355030,,,,,,,,
108240,note_on,30,0,6,,,,,,,,,10,,,,70,100
108243,note_on,120,0,7,,,,,,,,,11,,,,65,80
108246,note_on,120,0,8,,,,,,,,,12,,,,58,71
108251,note_on,120,0,9,,,,,,,,,13,,,,50,62
108253,note_on,120,0,10,,,,,,,,,14,,,,38,43
108270,note_on,30,0,6,,,,,,,,,10,,,,70,0
108300,note_on,30,0,6,,,,,,,,,10,,,,70,100
108303,note_on,60,0,7,,,,,,,,,11,,,,65,0
108306,note_on,60,0,8,,,,,,,,,12,,,,58,0
108311,note_on,60,0,9,,,,,,,,,13,,,,50,0
108313,note_on,60,0,10,,,,,,,,,14,,,,38,0
108330,note_on,30,0,6,,,,,,,,,10,,,,70,0
108360,note_on,30,0,6,,,,,,,,,10,,,,74,100
108360,set_tempo,120,1,0,,,,,,382166,,,,,,,,
108363,note_on,60,0,7,,,,,,,,,11,,,,69,80
108366,note_on,60,0,8,,,,,,,,,12,,,,60,71
108371,note_on,60,0,9,,,,,,,,,13,,,,53,62
108373,note_on,60,0,10,,,,,,,,,14,,,,41,43
108390,note_on,0,0,6,,,,,,,,,10,,,,72,100
108390,note_on,30,0,6,,,,,,,,,10,,,,74,0
108410,note_on,20,0,6,,,,,,,,,10,,,,72,0
108420,note_on,10,0,6,,,,,,,,,10,,,,70,100
108423,note_on,60,0,7,,,,,,,,,11,,,,69,0
108426,note_on,60,0,8,,,,,,,,,12,,,,60,0
108431,note_on,60,0,9,,,,,,,,,13,,,,53,0
108433,note_on,60,0,10,,,,,,,,,14,,,,41,0
108435,note_on,15,0,6,,,,,,,,,10,,,,70,0
108450,note_on,15,0,6,,,,,,,,,10,,,,72,100
108465,note_on,15,0,6,,,,,,,,,10,,,,72,0
108480,set_tempo,120,1,0,,,,,,355030,,,,,,,,
108480,note_on,15,0,6,,,,,,,,,10,,,,74,100
108483,note_on,60,0,7,,,,,,,,,11,,,,70,80
108486,note_on,60,0,8,,,,,,,,,12,,,,62,71
108491,note_on,60,0,9,,,,,,,,,13,,,,58,62
108493,note_on,60,0,10,,,,,,,,,14,,,,46,43
108600,note_on,120,0,6,,,,,,,,,10,,,,74,0
108600,note_on,0,0,6,,,,,,,,,10,,,,70,100
108600,set_tempo,120,1,0,,,,,,382166,,,,,,,,
108603,note_on,120,0,7,,,,,,,,,11,,,,70,0
108606,note_on,120,0,8,,,,,,,,,12,,,,62,0
108611,note_on,120,0,9,,,,,,,,,13,,,,58,0
108613,note_on,120,0,10,,,,,,,,,14,,,,46,0
108650,note_on,50,0,6,,,,,,,,,10,,,,70,0
108660,note_on,10,0,6,,,,,,,,,10,,,,77,100
108710,note_on,50,0,6,,,,,,,,,10,,,,77,0
108720,note_on,10,0,6,,,,,,,,,10,,,,74,115
108720,set_tempo,120,1,0,,,,,,355030,,,,,,,,
108723,note_on,120,0,7,,,,,,,,,11,,,,68,92
108726,note_on,120,0,8,,,,,,,,,12,,,,65,82
108731,note_on,120,0,9,,,,,,,,,13,,,,59,73
108733,note_on,120,0,10,,,,,,,,,14,,,,47,51
108840,note_on,0,0,6,,,,,,,,,10,,,,75,100
108840,note_on,120,0,6,,,,,,,,,10,,,,74,0
108840,set_tempo,120,1,0,,,,,,382166,,,,,,,,
108843,note_on,0,0,7,,,,,,,,,11,,,,67,80
108843,note_on,120,0,7,,,,,,,,,11,,,,68,0
108846,note_on,0,0,8,,,,,,,,,12,,,,63,71
108846,note_on,120,0,8,,,,,,,,,12,,,,65,0
108851,note_on,0,0,9,,,,,,,,,13,,,,60,62
108851,note_on,120,0,9,,,,,,,,,13,,,,59,0
108853,note_on,0,0,10,,,,,,,,,14,,,,48,43
108853,note_on,120,0,10,,,,,,,,,14,,,,47,0
108890,note_on,50,0,6,,,,,,,,,10,,,,75,0
108900,note_on,10,0,6,,,,,,,,,10,,,,75,100
108903,note_on,60,0,7,,,,,,,,,11,,,,67,0
108906,note_on,60,0,8,,,,,,,,,12,,,,63,0
108911,note_on,60,0,9,,,,,,,,,13,,,,60,0
108913,note_on,60,0,10,,,,,,,,,14,,,,48,0
108950,note_on,50,0,6,,,,,,,,,10,,,,75,0
108960,set_tempo,120,1,0,,,,,,355030,,,,,,,,
108960,note_on,10,0,6,,,,,,,,,10,,,,72,115
108963,note_on,60,0,7,,,,,,,,,11,,,,66,92
108966,note_on,60,0,8,,,,,,,,,12,,,,63,82
108971,note_on,60,0,9,,,,,,,,,13,,,,57,73
108973,note_on,60,0,10,,,,,,,,,14,,,,45,51
109080,set_tempo,120,1,0,,,,,,382166,,,,,,,,
109080,note_on,0,0,6,,,,,,,,,10,,,,74,100
109080,note_on,120,0,6,,,,,,,,,10,,,,72,0
109083,note_on,120,0,7,,,,,,,,,11,,,,66,0
109083,note_on,0,0,7,,,,,,,,,11,,,,65,80
109086,note_on,120,0,8,,,,,,,,,12,,,,63,0
109086,note_on,0,0,8,,,,,,,,,12,,,,62,71
109091,note_on,0,0,9,,,,,,,,,13,,,,58,62
109091,note_on,120,0,9,,,,,,,,,13,,,,57,0
109093,note_on,120,0,10,,,,,,,,,14,,,,45,0
109093,note_on,0,0,10,,,,,,,,,14,,,,46,43
109130,note_on,50,0,6,,,,,,,,,10,,,,74,0
109140,note_on,10,0,6,,,,,,,,,10,,,,70,100
109143,note_on,60,0,7,,,,,,,,,11,,,,65,0
109146,note_on,60,0,8,,,,,,,,,12,,,,62,0
109151,note_on,60,0,9,,,,,,,,,13,,,,58,0
109153,note_on,60,0,10,,,,,,,,,14,,,,46,0
109190,note_on,50,0,6,,,,,,,,,10,,,,70,0
109200,set_tempo,120,1,0,,,,,,355030,,,,,,,,
109200,note_on,10,0,6,,,,,,,,,10,,,,67,100
109203,note_on,60,0,7,,,,,,,,,11,,,,58,80
109206,note_on,60,0,8,,,,,,,,,12,,,,55,71
109211,note_on,60,0,9,,,,,,,,,13,,,,51,62
109213,note_on,60,0,10,,,,,,,,,14,,,,39,43
109230,note_on,30,0,6,,,,,,,,,10,,,,67,0
109260,note_on,30,0,6,,,,,,,,,10,,,,69,100
109263,note_on,60,0,7,,,,,,,,,11,,,,58,0
109266,note_on,60,0,8,,,,,,,,,12,,,,55,0
109271,note_on,60,0,9,,,,,,,,,13,,,,51,0
109273,note_on,60,0,10,,,,,,,,,14,,,,39,0
109290,note_on,30,0,6,,,,,,,,,10,,,,69,0
109320,set_tempo,120,1,0,,,,,,382166,,,,,,,,
109320,note_on,30,0,6,,,,,,,,,10,,,,70,100
109323,note_on,60,0,7,,,,,,,,,11,,,,60,80
109326,note_on,60,0,8,,,,,,,,,12,,,,55,71
109331,note_on,60,0,9,,,,,,,,,13,,,,52,62
109333,note_on,60,0,10,,,,,,,,,14,,,,40,43
109350,note_on,30,0,6,,,,,,,,,10,,,,70,0
109380,note_on,30,0,6,,,,,,,,,10,,,,72,100
109383,note_on,60,0,7,,,,,,,,,11,,,,60,0
109386,note_on,60,0,8,,,,,,,,,12,,,,55,0
109391,note_on,60,0,9,,,,,,,,,13,,,,52,0
109393,note_on,60,0,10,,,,,,,,,14,,,,40,0
109410,note_on,30,0,6,,,,,,,,,10,,,,72,0
109440,set_tempo,120,1,0,,,,,,359281,,,,,,,,
109440,note_on,30,0,6,,,,,,,,,10,,,,65,100
109443,note_on,60,0,7,,,,,,,,,11,,,,57,80
109446,note_on,60,0,8,,,,,,,,,12,,,,53,71
109451,note_on,60,0,9,,,,,,,,,13,,,,53,62
109453,note_on,60,0,10,,,,,,,,,14,,,,41,43
109476,note_on,30,0,8,,,,,,,,,12,,,,53,0
109481,note_on,30,0,9,,,,,,,,,13,,,,53,0
109483,note_on,30,0,10,,,,,,,,,14,,,,41,0
109506,note_on,30,0,8,,,,,,,,,12,,,,65,90
109511,note_on,30,0,9,,,,,,,,,13,,,,53,81
109513,note_on,30,0,10,,,,,,,,,14,,,,41,58
109560,note_on,120,0,6,,,,,,,,,10,,,,65,0
109560,set_tempo,120,1,0,,,,,,400000,,,,,,,,
109563,note_on,120,0,7,,,,,,,,,11,,,,57,0
109566,note_on,60,0,8,,,,,,,,,12,,,,65,0
109566,note_on,0,0,8,,,,,,,,,12,,,,64,90
109571,note_on,0,0,9,,,,,,,,,13,,,,52,81
109571,note_on,60,0,9,,,,,,,,,13,,,,53,0
109573,note_on,0,0,10,,,,,,,,,14,,,,40,58
109573,note_on,60,0,10,,,,,,,,,14,,,,41,0
109620,note_on,60,0,6,,,,,,,,,10,,,,77,73
109623,note_on,60,0,7,,,,,,,,,11,,,,65,92
109623,note_on,0,0,1,,,,,,,,,0,,,,77,82
109623,control_change,1939,0,1,,,,,,,,,0,11,47,,,
109626,note_on,0,0,8,,,,,,,,,12,,,,63,90
109626,note_on,60,0,8,,,,,,,,,12,,,,64,0
109631,note_on,0,0,9,,,,,,,,,13,,,,51,81
109631,note_on,60,0,9,,,,,,,,,13,,,,52,0
109633,note_on,0,0,10,,,,,,,,,14,,,,39,58
109633,note_on,60,0,10,,,,,,,,,14,,,,40,0
109670,note_on,50,0,6,,,,,,,,,10,,,,77,0
109673,note_on,50,0,1,,,,,,,,,0,,,,77,0
109673,note_on,50,0,7,,,,,,,,,11,,,,65,0
109676,note_on,50,0,8,,,,,,,,,12,,,,63,0
109680,set_tempo,120,1,0,,,,,,368098,,,,,,,,
109680,note_on,10,0,6,,,,,,,,,10,,,,77,80
109681,note_on,50,0,9,,,,,,,,,13,,,,51,0
109683,note_on,10,0,1,,,,,,,,,0,,,,77,82
109683,note_on,50,0,10,,,,,,,,,14,,,,39,0
109683,note_on,10,0,7,,,,,,,,,11,,,,65,100
109685,note_on,0,0,2,,,,,,,,,1,,,,65,81
109685,control_change,1999,0,2,,,,,,,,,1,11,47,,,
109685,note_on,0,0,2,,,,,,,,,1,,,,77,81
109686,note_on,10,0,8,,,,,,,,,12,,,,62,90
109691,note_on,10,0,9,,,,,,,,,13,,,,50,81
109692,note_on,0,0,3,,,,,,,,,3,,,,58,81
109692,note_on,0,0,3,,,,,,,,,3,,,,50,81
109692,control_change,1999,0,3,,,,,,,,,3,11,47,,,
109693,note_on,10,0,10,,,,,,,,,14,,,,38,58
109740,note_on,0,0,6,,,,,,,,,10,,,,79,80
109740,note_on,60,0,6,,,,,,,,,10,,,,77,0
109743,note_on,0,0,7,,,,,,,,,11,,,,67,100
109743,note_on,60,0,7,,,,,,,,,11,,,,65,0
109743,note_on,60,0,1,,,,,,,,,0,,,,77,0
109743,note_on,0,0,1,,,,,,,,,0,,,,79,82
109790,note_on,50,0,6,,,,,,,,,10,,,,79,0
109793,note_on,50,0,1,,,,,,,,,0,,,,79,0
109793,note_on,50,0,7,,,,,,,,,11,,,,67,0
109800,note_on,10,0,6,,,,,,,,,10,,,,81,80
109800,set_tempo,120,1,0,,,,,,382166,,,,,,,,
109803,note_on,10,0,7,,,,,,,,,11,,,,69,100
109803,note_on,10,0,1,,,,,,,,,0,,,,81,82
109806,note_on,120,0,8,,,,,,,,,12,,,,62,0
109811,note_on,120,0,9,,,,,,,,,13,,,,50,0
109812,note_on,120,0,3,,,,,,,,,3,,,,58,0
109812,note_on,0,0,3,,,,,,,,,3,,,,50,0
109813,note_on,120,0,10,,,,,,,,,14,,,,38,0
109830,note_on,30,0,6,,,,,,,,,10,,,,81,0
109833,note_on,30,0,1,,,,,,,,,0,,,,81,0
109833,note_on,30,0,7,,,,,,,,,11,,,,69,0
109860,note_on,30,0,6,,,,,,,,,10,,,,82,80
109863,note_on,30,0,1,,,,,,,,,0,,,,82,82
109863,note_on,30,0,7,,,,,,,,,11,,,,70,100
109890,note_on,30,0,6,,,,,,,,,10,,,,82,0
109893,note_on,30,0,7,,,,,,,,,11,,,,70,0
109893,note_on,30,0,1,,,,,,,,,0,,,,82,0
109920,note_on,30,0,6,,,,,,,,,10,,,,82,80
109920,set_tempo,120,1,0,,,,,,355030,,,,,,,,
109923,note_on,30,0,1,,,,,,,,,0,,,,82,82
109923,note_on,30,0,7,,,,,,,,,11,,,,70,100
109926,note_on,120,0,8,,,,,,,,,12,,,,63,90
109931,note_on,120,0,9,,,,,,,,,13,,,,51,81
109932,note_on,0,0,3,,,,,,,,,3,,,,51,81
109932,note_on,120,0,3,,,,,,,,,3,,,,60,81
109933,note_on,120,0,10,,,,,,,,,14,,,,39,58
109980,note_on,60,0,6,,,,,,,,,10,,,,82,0
109980,note_on,0,0,6,,,,,,,,,10,,,,81,80
109983,note_on,60,0,1,,,,,,,,,0,,,,82,0
109983,note_on,0,0,1,,,,,,,,,0,,,,81,82
109983,note_on,60,0,7,,,,,,,,,11,,,,70,0
109983,note_on,0,0,7,,,,,,,,,11,,,,69,100
110030,note_on,50,0,6,,,,,,,,,10,,,,81,0
110033,note_on,50,0,1,,,,,,,,,0,,,,81,0
110033,note_on,50,0,7,,,,,,,,,11,,,,69,0
110040,set_tempo,120,1,0,,,,,,382166,,,,,,,,
110040,note_on,10,0,6,,,,,,,,,10,,,,79,80
110043,note_on,10,0,1,,,,,,,,,0,,,,79,82
110043,note_on,10,0,7,,,,,,,,,11,,,,67,100
110046,note_on,120,0,8,,,,,,,,,12,,,,63,0
110051,note_on,120,0,9,,,,,,,,,13,,,,51,0
110052,note_on,0,0,3,,,,,,,,,3,,,,60,0
110052,note_on,120,0,3,,,,,,,,,3,,,,51,0
110053,note_on,120,0,10,,,,,,,,,14,,,,39,0
110070,note_on,30,0,6,,,,,,,,,10,,,,79,0
110073,note_on,30,0,7,,,,,,,,,11,,,,67,0
110073,note_on,30,0,1,,,,,,,,,0,,,,79,0
110100,note_on,30,0,6,,,,,,,,,10,,,,77,80
110103,note_on,30,0,1,,,,,,,,,0,,,,77,82
110103,note_on,30,0,7,,,,,,,,,11,,,,65,100
110130,note_on,30,0,6,,,,,,,,,10,,,,77,0
110133,note_on,30,0,7,,,,,,,,,11,,,,65,0
110133,note_on,30,0,1,,,,,,,,,0,,,,77,0
110160,set_tempo,120,1,0,,,,,,355030,,,,,,,,
110160,note_on,30,0,6,,,,,,,,,10,,,,82,80
110163,note_on,30,0,7,,,,,,,,,11,,,,70,100
110163,note_on,30,0,1,,,,,,,,,0,,,,82,82
110166,note_on,120,0,8,,,,,,,,,12,,,,62,90
110171,note_on,120,0,9,,,,,,,,,13,,,,50,81
110172,note_on,120,0,3,,,,,,,,,3,,,,58,81
110172,note_on,0,0,3,,,,,,,,,3,,,,50,81
110173,note_on,120,0,10,,,,,,,,,14,,,,38,58
110190,note_on,30,0,6,,,,,,,,,10,,,,82,0
110193,note_on,30,0,1,,,,,,,,,0,,,,82,0
110193,note_on,30,0,7,,,,,,,,,11,,,,70,0
110220,note_on,30,0,6,,,,,,,,,10,,,,82,80
110223,note_on,30,0,7,,,,,,,,,11,,,,70,100
110223,note_on,30,0,1,,,,,,,,,0,,,,82,82
110226,note_on,60,0,8,,,,,,,,,12,,,,62,0
110231,note_on,60,0,9,,,,,,,,,13,,,,50,0
110232,note_on,0,0,3,,,,,,,,,3,,,,58,0
110232,note_on,60,0,3,,,,,,,,,3,,,,50,0
110233,note_on,60,0,10,,,,,,,,,14,,,,38,0
110250,note_on,30,0,6,,,,,,,,,10,,,,82,0
110253,note_on,30,0,7,,,,,,,,,11,,,,70,0
110253,note_on,30,0,1,,,,,,,,,0,,,,82,0
110280,note_on,30,0,6,,,,,,,,,10,,,,86,80
110280,set_tempo,120,1,0,,,,,,382166,,,,,,,,
110283,note_on,30,0,7,,,,,,,,,11,,,,74,100
110283,note_on,30,0,1,,,,,,,,,0,,,,86,82
110286,note_on,60,0,8,,,,,,,,,12,,,,69,90
110291,note_on,60,0,9,,,,,,,,,13,,,,53,81
110292,note_on,0,0,3,,,,,,,,,3,,,,53,81
110292,note_on,60,0,3,,,,,,,,,3,,,,60,81
110293,note_on,60,0,10,,,,,,,,,14,,,,41,58
110310,note_on,0,0,6,,,,,,,,,10,,,,84,80
110310,note_on,30,0,6,,,,,,,,,10,,,,86,0
110313,note_on,0,0,1,,,,,,,,,0,,,,84,82
110313,note_on,30,0,1,,,,,,,,,0,,,,86,0
110313,note_on,30,0,7,,,,,,,,,11,,,,74,0
110313,note_on,0,0,7,,,,,,,,,11,,,,72,100
110330,note_on,20,0,6,,,,,,,,,10,,,,84,0
110333,note_on,20,0,7,,,,,,,,,11,,,,72,0
110333,note_on,20,0,1,,,,,,,,,0,,,,84,0
110340,note_on,10,0,6,,,,,,,,,10,,,,82,80
110343,note_on,10,0,7,,,,,,,,,11,,,,70,100
110343,note_on,10,0,1,,,,,,,,,0,,,,82,82
110346,note_on,60,0,8,,,,,,,,,12,,,,69,0
110351,note_on,60,0,9,,,,,,,,,13,,,,53,0
110352,note_on,60,0,3,,,,,,,,,3,,,,53,0
110352,note_on,0,0,3,,,,,,,,,3,,,,60,0
110353,note_on,60,0,10,,,,,,,,,14,,,,41,0
110355,note_on,15,0,6,,,,,,,,,10,,,,82,0
110358,note_on,15,0,1,,,,,,,,,0,,,,82,0
110358,note_on,15,0,7,,,,,,,,,11,,,,70,0
110370,note_on,15,0,6,,,,,,,,,10,,,,84,80
110373,note_on,15,0,7,,,,,,,,,11,,,,72,100
110373,note_on,15,0,1,,,,,,,,,0,,,,84,82
110385,note_on,15,0,6,,,,,,,,,10,,,,84,0
110388,note_on,15,0,1,,,,,,,,,0,,,,84,0
110388,note_on,15,0,7,,,,,,,,,11,,,,72,0
110400,note_on,15,0,6,,,,,,,,,10,,,,86,80
110400,set_tempo,120,1,0,,,,,,355030,,,,,,,,
110403,note_on,15,0,1,,,,,,,,,0,,,,86,82
110403,note_on,15,0,7,,,,,,,,,11,,,,74,100
110406,note_on,60,0,8,,,,,,,,,12,,,,70,90
110411,note_on,60,0,9,,,,,,,,,13,,,,58,81
110412,note_on,60,0,3,,,,,,,,,3,,,,58,81
110412,note_on,0,0,3,,,,,,,,,3,,,,62,81
110413,note_on,60,0,10,,,,,,,,,14,,,,46,58
110520,note_on,0,0,6,,,,,,,,,10,,,,82,80
110520,note_on,120,0,6,,,,,,,,,10,,,,86,0
110520,set_tempo,120,1,0,,,,,,382166,,,,,,,,
110523,note_on,0,0,7,,,,,,,,,11,,,,70,100
110523,note_on,120,0,1,,,,,,,,,0,,,,86,0
110523,note_on,0,0,1,,,,,,,,,0,,,,82,82
110523,note_on,120,0,7,,,,,,,,,11,,,,74,0
110525,note_on,0,0,2,,,,,,,,,1,,,,65,0
110525,note_on,840,0,2,,,,,,,,,1,,,,77,0
110526,note_on,120,0,8,,,,,,,,,12,,,,70,0
110531,note_on,120,0,9,,,,,,,,,13,,,,58,0
110532,note_on,0,0,3,,,,,,,,,3,,,,58,0
110532,note_on,120,0,3,,,,,,,,,3,,,,62,0
110533,note_on,120,0,10,,,,,,,,,14,,,,46,0
110570,note_on,50,0,6,,,,,,,,,10,,,,82,0
110573,note_on,50,0,1,,,,,,,,,0,,,,82,0
110573,note_on,50,0,7,,,,,,,,,11,,,,70,0
110580,note_on,10,0,6,,,,,,,,,10,,,,82,80
110583,note_on,10,0,1,,,,,,,,,0,,,,82,82
110583,note_on,10,0,7,,,,,,,,,11,,,,70,100
110640,set_tempo,120,1,0,,,,,,355030,,,,,,,,
110640,note_on,0,0,6,,,,,,,,,10,,,,86,80
110640,note_on,60,0,6,,,,,,,,,10,,,,82,0
110643,note_on,0,0,7,,,,,,,,,11,,,,74,100
110643,note_on,0,0,1,,,,,,,,,0,,,,86,82
110643,note_on,60,0,1,,,,,,,,,0,,,,82,0
110643,note_on,60,0,7,,,,,,,,,11,,,,70,0
110645,note_on,0,0,2,,,,,,,,,1,,,,70,81
110645,note_on,120,0,2,,,,,,,,,1,,,,74,81
110646,note_on,120,0,8,,,,,,,,,12,,,,62,90
110646,note_on,0,0,8,,,,,,,,,12,,,,58,90
110651,note_on,120,0,9,,,,,,,,,13,,,,46,81
110652,note_on,120,0,3,,,,,,,,,3,,,,46,81
110653,note_on,120,0,10,,,,,,,,,14,,,,34,58
110700,note_on,60,0,6,,,,,,,,,10,,,,86,0
110700,note_on,0,0,6,,,,,,,,,10,,,,82,80
110703,note_on,0,0,7,,,,,,,,,11,,,,70,100
110703,note_on,0,0,1,,,,,,,,,0,,,,82,82
110703,note_on,60,0,7,,,,,,,,,11,,,,74,0
110703,note_on,60,0,1,,,,,,,,,0,,,,86,0
110750,note_on,50,0,6,,,,,,,,,10,,,,82,0
110753,note_on,50,0,1,,,,,,,,,0,,,,82,0
110753,note_on,50,0,7,,,,,,,,,11,,,,70,0
110760,note_on,10,0,6,,,,,,,,,10,,,,77,80
110760,set_tempo,120,1,0,,,,,,382166,,,,,,,,
110763,note_on,10,0,1,,,,,,,,,0,,,,77,82
110763,note_on,10,0,7,,,,,,,,,11,,,,65,100
110765,note_on,0,0,2,,,,,,,,,1,,,,74,0
110765,note_on,120,0,2,,,,,,,,,1,,,,70,0
110766,note_on,0,0,8,,,,,,,,,12,,,,62,0
110766,note_on,120,0,8,,,,,,,,,12,,,,58,0
110771,note_on,120,0,9,,,,,,,,,13,,,,46,0
110772,note_on,120,0,3,,,,,,,,,3,,,,46,0
110773,note_on,120,0,10,,,,,,,,,14,,,,34,0
110790,note_on,30,0,6,,,,,,,,,10,,,,77,0
110793,note_on,30,0,1,,,,,,,,,0,,,,77,0
110793,note_on,30,0,7,,,,,,,,,11,,,,65,0
110820,note_on,30,0,6,,,,,,,,,10,,,,77,80
110823,note_on,30,0,7,,,,,,,,,11,,,,65,100
110823,note_on,30,0,1,,,,,,,,,0,,,,77,82
110850,note_on,30,0,6,,,,,,,,,10,,,,77,0
110853,note_on,30,0,1,,,,,,,,,0,,,,77,0
110853,note_on,30,0,7,,,,,,,,,11,,,,65,0
110880,set_tempo,120,1,0,,,,,,355030,,,,,,,,
110880,note_on,30,0,6,,,,,,,,,10,,,,82,80
110883,note_on,30,0,1,,,,,,,,,0,,,,82,82
110883,note_on,30,0,7,,,,,,,,,11,,,,70,100
110885,note_on,0,0,2,,,,,,,,,1,,,,77,81
110885,note_on,120,0,2,,,,,,,,,1,,,,70,81
110886,note_on,120,0,8,,,,,,,,,12,,,,65,90
110886,note_on,0,0,8,,,,,,,,,12,,,,62,90
110891,note_on,120,0,9,,,,,,,,,13,,,,50,81
110892,note_on,120,0,3,,,,,,,,,3,,,,50,81
110893,note_on,120,0,10,,,,,,,,,14,,,,38,58
110940,note_on,60,0,6,,,,,,,,,10,,,,82,0
110940,note_on,0,0,6,,,,,,,,,10,,,,77,80
110943,note_on,60,0,7,,,,,,,,,11,,,,70,0
110943,note_on,0,0,7,,,,,,,,,11,,,,65,100
110943,note_on,0,0,1,,,,,,,,,0,,,,77,82
110943,note_on,60,0,1,,,,,,,,,0,,,,82,0
110990,note_on,50,0,6,,,,,,,,,10,,,,77,0
110993,note_on,50,0,1,,,,,,,,,0,,,,77,0
110993,note_on,50,0,7,,,,,,,,,11,,,,65,0
111000,note_on,10,0,6,,,,,,,,,10,,,,74,80
111000,set_tempo,120,1,0,,,,,,382166,,,,,,,,
111003,note_on,10,0,7,,,,,,,,,11,,,,62,100
111003,note_on,10,0,1,,,,,,,,,0,,,,74,82
111005,note_on,0,0,2,,,,,,,,,1,,,,70,0
111005,note_on,120,0,2,,,,,,,,,1,,,,77,0
111006,note_on,0,0,8,,,,,,,,,12,,,,65,0
111006,note_on,120,0,8,,,,,,,,,12,,,,62,0
111011,note_on,120,0,9,,,,,,,,,13,,,,50,0
111012,note_on,120,0,3,,,,,,,,,3,,,,50,0
111013,note_on,120,0,10,,,,,,,,,14,,,,38,0
111030,note_on,30,0,6,,,,,,,,,10,,,,74,0
111033,note_on,30,0,1,,,,,,,,,0,,,,74,0
111033,note_on,30,0,7,,,,,,,,,11,,,,62,0
111060,note_on,30,0,6,,,,,,,,,10,,,,74,80
111063,note_on,30,0,7,,,,,,,,,11,,,,62,100
111063,note_on,30,0,1,,,,,,,,,0,,,,74,82
111065,note_on,0,0,2,,,,,,,,,1,,,,70,81
111065,note_on,60,0,2,,,,,,,,,1,,,,74,81
111066,note_on,60,0,8,,,,,,,,,12,,,,70,90
111071,note_on,60,0,9,,,,,,,,,13,,,,52,81
111072,note_on,60,0,3,,,,,,,,,3,,,,52,81
111073,note_on,60,0,10,,,,,,,,,14,,,,40,58
111090,note_on,30,0,6,,,,,,,,,10,,,,74,0
111093,note_on,30,0,7,,,,,,,,,11,,,,62,0
111093,note_on,30,0,1,,,,,,,,,0,,,,74,0
111115,note_on,0,0,2,,,,,,,,,1,,,,74,0
111115,note_on,50,0,2,,,,,,,,,1,,,,70,0
111116,note_on,50,0,8,,,,,,,,,12,,,,70,0
111120,note_on,30,0,6,,,,,,,,,10,,,,74,100
111120,set_tempo,120,1,0,,,,,,369231,,,,,,,,
111121,note_on,50,0,9,,,,,,,,,13,,,,52,0
111122,note_on,50,0,3,,,,,,,,,3,,,,52,0
111123,note_on,50,0,10,,,,,,,,,14,,,,40,0
111123,note_on,30,0,7,,,,,,,,,11,,,,70,100
111123,note_on,30,0,1,,,,,,,,,0,,,,74,82
111125,note_on,10,0,2,,,,,,,,,1,,,,74,81
111125,note_on,0,0,2,,,,,,,,,1,,,,70,81
111126,note_on,10,0,8,,,,,,,,,12,,,,65,90
111131,note_on,10,0,9,,,,,,,,,13,,,,53,81
111132,note_on,10,0,3,,,,,,,,,3,,,,53,81
111133,note_on,10,0,10,,,,,,,,,14,,,,41,58
111180,note_on,60,0,6,,,,,,,,,10,,,,74,0
111180,note_on,0,0,6,,,,,,,,,10,,,,77,100
111183,note_on,0,0,1,,,,,,,,,0,,,,77,82
111183,note_on,60,0,1,,,,,,,,,0,,,,74,0
111183,note_on,60,0,7,,,,,,,,,11,,,,70,0
111183,note_on,0,0,7,,,,,,,,,11,,,,74,100
111185,note_on,0,0,2,,,,,,,,,1,,,,74,0
111185,note_on,0,0,2,,,,,,,,,1,,,,77,81
111185,note_on,0,0,2,,,,,,,,,1,,,,74,81
111185,note_on,60,0,2,,,,,,,,,1,,,,70,0
111230,note_on,50,0,6,,,,,,,,,10,,,,77,0
111233,note_on,50,0,1,,,,,,,,,0,,,,77,0
111233,note_on,50,0,7,,,,,,,,,11,,,,74,0
111235,note_on,0,0,2,,,,,,,,,1,,,,77,0
111235,note_on,50,0,2,,,,,,,,,1,,,,74,0
111236,note_on,110,0,8,,,,,,,,,12,,,,65,0
111240,set_tempo,120,1,0,,,,,,398671,,,,,,,,
111240,note_on,10,0,6,,,,,,,,,10,,,,75,100
111241,note_on,110,0,9,,,,,,,,,13,,,,53,0
111242,note_on,110,0,3,,,,,,,,,3,,,,53,0
111243,note_on,110,0,10,,,,,,,,,14,,,,41,0
111243,note_on,10,0,1,,,,,,,,,0,,,,75,82
111243,note_on,10,0,7,,,,,,,,,11,,,,72,100
111245,note_on,0,0,2,,,,,,,,,1,,,,72,81
111245,note_on,10,0,2,,,,,,,,,1,,,,75,81
111246,note_on,10,0,8,,,,,,,,,12,,,,53,90
111251,note_on,10,0,9,,,,,,,,,13,,,,41,81
111252,note_on,10,0,3,,,,,,,,,3,,,,41,81
111253,note_on,10,0,10,,,,,,,,,14,,,,29,58
111270,note_on,30,0,6,,,,,,,,,10,,,,75,0
111273,note_on,30,0,7,,,,,,,,,11,,,,72,0
111273,note_on,30,0,1,,,,,,,,,0,,,,75,0
111281,note_on,36,0,2,,,,,,,,,1,,,,72,0
111281,note_on,0,0,2,,,,,,,,,1,,,,75,0
111300,note_on,30,0,6,,,,,,,,,10,,,,72,100
111303,note_on,30,0,1,,,,,,,,,0,,,,72,82
111303,note_on,30,0,7,,,,,,,,,11,,,,69,100
111305,note_on,24,0,2,,,,,,,,,1,,,,72,81
111305,note_on,0,0,2,,,,,,,,,1,,,,69,81
111330,note_on,30,0,6,,,,,,,,,10,,,,72,0
111333,note_on,30,0,1,,,,,,,,,0,,,,72,0
111333,note_on,30,0,7,,,,,,,,,11,,,,69,0
111341,note_on,36,0,2,,,,,,,,,1,,,,69,0
111341,note_on,0,0,2,,,,,,,,,1,,,,72,0
111356,note_on,110,0,8,,,,,,,,,12,,,,53,0
111360,note_on,30,0,6,,,,,,,,,10,,,,70,80
111360,set_tempo,120,1,0,,,,,,392157,,,,,,,,
111361,note_on,110,0,9,,,,,,,,,13,,,,41,0
111362,note_on,110,0,3,,,,,,,,,3,,,,41,0
111363,note_on,30,0,7,,,,,,,,,11,,,,70,80
111363,note_on,110,0,10,,,,,,,,,14,,,,29,0
111363,note_on,30,0,1,,,,,,,,,0,,,,70,82
111365,note_on,24,0,2,,,,,,,,,1,,,,70,81
111366,note_on,10,0,8,,,,,,,,,12,,,,58,71
111371,note_on,10,0,9,,,,,,,,,13,,,,46,62
111372,note_on,10,0,3,,,,,,,,,3,,,,46,81
111373,note_on,10,0,10,,,,,,,,,14,,,,34,43
111480,set_tempo,120,1,0,,,,,,382166,,,,,,,,
111480,note_on,120,0,6,,,,,,,,,10,,,,70,0
111483,note_on,120,0,1,,,,,,,,,0,,,,70,0
111483,note_on,120,0,7,,,,,,,,,11,,,,70,0
111485,note_on,120,0,2,,,,,,,,,1,,,,70,0
111486,note_on,120,0,8,,,,,,,,,12,,,,58,0
111491,note_on,120,0,9,,,,,,,,,13,,,,46,0
111492,note_on,120,0,3,,,,,,,,,3,,,,46,0
111493,note_on,120,0,10,,,,,,,,,14,,,,34,0
111600,set_tempo,120,1,0,,,,,,370370,,,,,,,,
111600,control_change,120,0,6,,,,,,,,,10,11,37,,,
111600,note_on,0,0,6,,,,,,,,,10,,,,74,100
111603,control_change,120,0,7,,,,,,,,,11,11,37,,,
111603,note_on,0,0,7,,,,,,,,,11,,,,70,100
111660,note_on,60,0,6,,,,,,,,,10,,,,74,0
111660,note_on,0,0,6,,,,,,,,,10,,,,77,100
111663,note_on,60,0,7,,,,,,,,,11,,,,70,0
111663,note_on,0,0,7,,,,,,,,,11,,,,74,100
111710,note_on,50,0,6,,,,,,,,,10,,,,77,0
111713,note_on,50,0,7,,,,,,,,,11,,,,74,0
111720,set_tempo,120,1,0,,,,,,382166,,,,,,,,
111720,note_on,10,0,6,,,,,,,,,10,,,,75,100
111723,note_on,10,0,7,,,,,,,,,11,,,,72,100
111750,note_on,30,0,6,,,,,,,,,10,,,,75,0
111753,note_on,30,0,7,,,,,,,,,11,,,,72,0
111780,note_on,30,0,6,,,,,,,,,10,,,,72,100
111783,note_on,30,0,7,,,,,,,,,11,,,,69,100
111810,note_on,30,0,6,,,,,,,,,10,,,,72,0
111813,note_on,30,0,7,,,,,,,,,11,,,,69,0
111840,note_on,30,0,6,,,,,,,,,10,,,,74,100
111840,set_tempo,120,1,0,,,,,,362538,,,,,,,,
111843,note_on,30,0,7,,,,,,,,,11,,,,70,100
111900,note_on,60,0,6,,,,,,,,,10,,,,74,0
111900,note_on,0,0,6,,,,,,,,,10,,,,77,100
111903,note_on,60,0,7,,,,,,,,,11,,,,70,0
111903,note_on,0,0,7,,,,,,,,,11,,,,74,100
111950,note_on,50,0,6,,,,,,,,,10,,,,77,0
111953,note_on,50,0,7,,,,,,,,,11,,,,74,0
111960,set_tempo,120,1,0,,,,,,382166,,,,,,,,
111960,note_on,10,0,6,,,,,,,,,10,,,,75,100
111963,note_on,10,0,7,,,,,,,,,11,,,,72,100
111990,note_on,30,0,6,,,,,,,,,10,,,,75,0
111993,note_on,30,0,7,,,,,,,,,11,,,,72,0
112020,note_on,30,0,6,,,,,,,,,10,,,,72,100
112023,note_on,30,0,7,,,,,,,,,11,,,,69,100
112050,note_on,30,0,6,,,,,,,,,10,,,,72,0
112053,note_on,30,0,7,,,,,,,,,11,,,,69,0
112080,note_on,30,0,6,,,,,,,,,10,,,,74,100
112080,set_tempo,120,1,0,,,,,,363636,,,,,,,,
112083,note_on,30,0,7,,,,,,,,,11,,,,70,100
112140,note_on,60,0,6,,,,,,,,,10,,,,74,0
112140,note_on,0,0,6,,,,,,,,,10,,,,77,100
112143,note_on,0,0,7,,,,,,,,,11,,,,74,100
112143,note_on,60,0,7,,,,,,,,,11,,,,70,0
112190,note_on,50,0,6,,,,,,,,,10,,,,77,0
112193,note_on,50,0,7,,,,,,,,,11,,,,74,0
112200,note_on,10,0,6,,,,,,,,,10,,,,75,100
112200,set_tempo,120,1,0,,,,,,382166,,,,,,,,
112203,note_on,10,0,7,,,,,,,,,11,,,,72,100
112230,note_on,30,0,6,,,,,,,,,10,,,,75,0
112233,note_on,30,0,7,,,,,,,,,11,,,,72,0
112260,note_on,30,0,6,,,,,,,,,10,,,,72,100
112263,note_on,30,0,7,,,,,,,,,11,,,,69,100
112290,note_on,30,0,6,,,,,,,,,10,,,,72,0
112293,note_on,30,0,7,,,,,,,,,11,,,,69,0
112320,control_change,30,0,6,,,,,,,,,10,11,37,,,
112320,set_tempo,120,1,0,,,,,,375000,,,,,,,,
112320,note_on,0,0,6,,,,,,,,,10,,,,70,100
112323,control_change,30,0,7,,,,,,,,,11,11,37,,,
112323,note_on,0,0,7,,,,,,,,,11,,,,67,100
112344,control_change,24,0,6,,,,,,,,,10,11,38,,,
112347,control_change,24,0,7,,,,,,,,,11,11,38,,,
112368,control_change,24,0,6,,,,,,,,,10,11,39,,,
112371,control_change,24,0,7,,,,,,,,,11,11,39,,,
112380,note_on,12,0,6,,,,,,,,,10,,,,70,0
112380,note_on,0,0,6,,,,,,,,,10,,,,74,100
112383,note_on,0,0,7,,,,,,,,,11,,,,70,100
112383,note_on,12,0,7,,,,,,,,,11,,,,67,0
112392,control_change,12,0,6,,,,,,,,,10,11,40,,,
112395,control_change,12,0,7,,,,,,,,,11,11,40,,,
112416,control_change,24,0,6,,,,,,,,,10,11,41,,,
112419,control_change,24,0,7,,,,,,,,,11,11,41,,,
112430,note_on,14,0,6,,,,,,,,,10,,,,74,0
112433,note_on,14,0,7,,,,,,,,,11,,,,70,0
112440,set_tempo,120,1,0,,,,,,382166,,,,,,,,
112440,note_on,0,0,6,,,,,,,,,10,,,,72,100
112440,control_change,10,0,6,,,,,,,,,10,11,42,,,
112443,control_change,10,0,7,,,,,,,,,11,11,42,,,
112443,note_on,0,0,7,,,,,,,,,11,,,,69,100
112464,control_change,24,0,6,,,,,,,,,10,11,43,,,
112467,control_change,24,0,7,,,,,,,,,11,11,43,,,
112470,note_on,6,0,6,,,,,,,,,10,,,,72,0
112473,note_on,6,0,7,,,,,,,,,11,,,,69,0
112488,control_change,18,0,6,,,,,,,,,10,11,44,,,
112491,control_change,18,0,7,,,,,,,,,11,11,44,,,
112500,note_on,12,0,6,,,,,,,,,10,,,,69,100
112503,note_on,12,0,7,,,,,,,,,11,,,,65,100
112512,control_change,12,0,6,,,,,,,,,10,11,45,,,
112515,control_change,12,0,7,,,,,,,,,11,11,45,,,
112530,note_on,18,0,6,,,,,,,,,10,,,,69,0
112533,note_on,18,0,7,,,,,,,,,11,,,,65,0
112536,control_change,6,0,6,,,,,,,,,10,11,46,,,
112539,control_change,6,0,7,,,,,,,,,11,11,46,,,
112560,set_tempo,120,1,0,,,,,,363636,,,,,,,,
112560,control_change,24,0,6,,,,,,,,,10,11,47,,,
112560,note_on,0,0,6,,,,,,,,,10,,,,67,100
112563,control_change,24,0,7,,,,,,,,,11,11,47,,,
112563,control_change,1080,0,1,,,,,,,,,0,11,27,,,
112563,note_on,0,0,1,,,,,,,,,0,,,,82,121
112563,note_on,0,0,7,,,,,,,,,11,,,,64,100
112565,control_change,1080,0,2,,,,,,,,,1,11,27,,,
112565,note_on,0,0,2,,,,,,,,,1,,,,70,120
112566,control_change,1080,0,8,,,,,,,,,12,11,27,,,
112566,note_on,0,0,8,,,,,,,,,12,,,,60,98
112571,note_on,0,0,9,,,,,,,,,13,,,,48,89
112571,control_change,1080,0,9,,,,,,,,,13,11,27,,,
112572,control_change,1080,0,3,,,,,,,,,3,11,27,,,
112572,note_on,0,0,3,,,,,,,,,3,,,,48,81
112572,note_on,0,0,3,,,,,,,,,3,,,,60,81
112573,note_on,0,0,10,,,,,,,,,14,,,,36,73
112573,control_change,1080,0,10,,,,,,,,,14,11,27,,,
112584,control_change,24,0,6,,,,,,,,,10,11,46,,,
112586,control_change,23,0,1,,,,,,,,,0,11,28,,,
112587,control_change,24,0,7,,,,,,,,,11,11,46,,,
112588,control_change,23,0,2,,,,,,,,,1,11,28,,,
112589,control_change,23,0,8,,,,,,,,,12,11,28,,,
112594,control_change,23,0,9,,,,,,,,,13,11,28,,,
112595,control_change,23,0,3,,,,,,,,,3,11,28,,,
112596,control_change,23,0,10,,,,,,,,,14,11,28,,,
112608,control_change,24,0,6,,,,,,,,,10,11,45,,,
112610,control_change,24,0,1,,,,,,,,,0,11,29,,,
112611,control_change,24,0,7,,,,,,,,,11,11,45,,,
112612,control_change,24,0,2,,,,,,,,,1,11,29,,,
112613,control_change,24,0,8,,,,,,,,,12,11,29,,,
112618,control_change,24,0,9,,,,,,,,,13,11,29,,,
112619,control_change,24,0,3,,,,,,,,,3,11,29,,,
112620,control_change,24,0,10,,,,,,,,,14,11,29,,,
112623,note_on,0,0,1,,,,,,,,,0,,,,86,121
112623,note_on,13,0,1,,,,,,,,,0,,,,82,0
112625,note_on,13,0,2,,,,,,,,,1,,,,70,0
112625,note_on,0,0,2,,,,,,,,,1,,,,74,120
112632,control_change,24,0,6,,,,,,,,,10,11,44,,,
112634,control_change,11,0,1,,,,,,,,,0,11,30,,,
112635,control_change,24,0,7,,,,,,,,,11,11,44,,,
112636,control_change,11,0,2,,,,,,,,,1,11,30,,,
112637,control_change,24,0,8,,,,,,,,,12,11,30,,,
112642,control_change,24,0,9,,,,,,,,,13,11,30,,,
112643,control_change,24,0,3,,,,,,,,,3,11,30,,,
112644,control_change,24,0,10,,,,,,,,,14,11,30,,,
112656,control_change,24,0,6,,,,,,,,,10,11,43,,,
112658,control_change,24,0,1,,,,,,,,,0,11,31,,,
112659,control_change,24,0,7,,,,,,,,,11,11,43,,,
112660,control_change,24,0,2,,,,,,,,,1,11,31,,,
112661,control_change,24,0,8,,,,,,,,,12,11,31,,,
112666,control_change,24,0,9,,,,,,,,,13,11,31,,,
112667,control_change,24,0,3,,,,,,,,,3,11,31,,,
112668,control_change,24,0,10,,,,,,,,,14,11,31,,,
112680,set_tempo,120,1,0,,,,,,382166,,,,,,,,
112680,control_change,24,0,6,,,,,,,,,10,11,42,,,
112682,control_change,24,0,1,,,,,,,,,0,11,32,,,
112683,control_change,24,0,7,,,,,,,,,11,11,42,,,
112683,note_on,0,0,1,,,,,,,,,0,,,,82,121
112683,note_on,1,0,1,,,,,,,,,0,,,,86,0
112684,control_change,24,0,2,,,,,,,,,1,11,32,,,
112685,note_on,0,0,2,,,,,,,,,1,,,,70,120
112685,control_change,24,0,8,,,,,,,,,12,11,32,,,
112685,note_on,1,0,2,,,,,,,,,1,,,,74,0
112690,control_change,24,0,9,,,,,,,,,13,11,32,,,
112691,control_change,24,0,3,,,,,,,,,3,11,32,,,
112692,control_change,24,0,10,,,,,,,,,14,11,32,,,
112704,control_change,24,0,6,,,,,,,,,10,11,41,,,
112706,control_change,23,0,1,,,,,,,,,0,11,33,,,
112707,control_change,24,0,7,,,,,,,,,11,11,41,,,
112708,control_change,23,0,2,,,,,,,,,1,11,33,,,
112709,control_change,24,0,8,,,,,,,,,12,11,33,,,
112714,control_change,24,0,9,,,,,,,,,13,11,33,,,
112715,control_change,24,0,3,,,,,,,,,3,11,33,,,
112716,control_change,24,0,10,,,,,,,,,14,11,33,,,
112728,control_change,24,0,6,,,,,,,,,10,11,40,,,
112730,control_change,24,0,1,,,,,,,,,0,11,34,,,
112731,control_change,24,0,7,,,,,,,,,11,11,40,,,
112732,control_change,24,0,2,,,,,,,,,1,11,34,,,
112733,control_change,24,0,8,,,,,,,,,12,11,34,,,
112738,control_change,24,0,9,,,,,,,,,13,11,34,,,
112739,control_change,24,0,3,,,,,,,,,3,11,34,,,
112740,note_on,12,0,6,,,,,,,,,10,,,,67,0
112740,note_on,0,0,6,,,,,,,,,10,,,,69,100
112740,control_change,24,0,10,,,,,,,,,14,11,34,,,
112743,note_on,13,0,1,,,,,,,,,0,,,,82,0
112743,note_on,0,0,1,,,,,,,,,0,,,,81,121
112743,note_on,12,0,7,,,,,,,,,11,,,,64,0
112743,note_on,0,0,7,,,,,,,,,11,,,,65,100
112745,note_on,13,0,2,,,,,,,,,1,,,,70,0
112745,note_on,0,0,2,,,,,,,,,1,,,,69,120
112752,control_change,12,0,6,,,,,,,,,10,11,39,,,
112754,control_change,11,0,1,,,,,,,,,0,11,35,,,
112755,control_change,12,0,7,,,,,,,,,11,11,39,,,
112756,control_change,11,0,2,,,,,,,,,1,11,35,,,
112757,control_change,24,0,8,,,,,,,,,12,11,35,,,
112762,control_change,24,0,9,,,,,,,,,13,11,35,,,
112763,control_change,24,0,3,,,,,,,,,3,11,35,,,
112764,control_change,24,0,10,,,,,,,,,14,11,35,,,
112776,control_change,24,0,6,,,,,,,,,10,11,38,,,
112778,control_change,24,0,1,,,,,,,,,0,11,36,,,
112779,control_change,24,0,7,,,,,,,,,11,11,38,,,
112780,control_change,24,0,2,,,,,,,,,1,11,36,,,
112781,control_change,24,0,8,,,,,,,,,12,11,36,,,
112786,control_change,24,0,9,,,,,,,,,13,11,36,,,
112787,control_change,24,0,3,,,,,,,,,3,11,36,,,
112788,control_change,24,0,10,,,,,,,,,14,11,36,,,
112790,note_on,14,0,6,,,,,,,,,10,,,,69,0
112793,note_on,15,0,1,,,,,,,,,0,,,,81,0
112793,note_on,14,0,7,,,,,,,,,11,,,,65,0
112795,note_on,15,0,2,,,,,,,,,1,,,,69,0
112796,note_on,15,0,8,,,,,,,,,12,,,,60,0
112800,note_on,0,0,6,,,,,,,,,10,,,,70,100
112800,control_change,10,0,6,,,,,,,,,10,11,37,,,
112800,set_tempo,120,1,0,,,,,,360360,,,,,,,,
112802,control_change,9,0,1,,,,,,,,,0,11,37,,,
112802,note_on,15,0,3,,,,,,,,,3,,,,60,0
112803,note_on,1,0,1,,,,,,,,,0,,,,79,121
112803,control_change,10,0,7,,,,,,,,,11,11,37,,,
112803,note_on,0,0,7,,,,,,,,,11,,,,67,100
112804,control_change,9,0,2,,,,,,,,,1,11,37,,,
112805,note_on,1,0,2,,,,,,,,,1,,,,67,120
112805,control_change,9,0,8,,,,,,,,,12,11,37,,,
112806,note_on,1,0,8,,,,,,,,,12,,,,64,98
112810,control_change,24,0,9,,,,,,,,,13,11,37,,,
112811,control_change,9,0,3,,,,,,,,,3,11,37,,,
112812,control_change,24,0,10,,,,,,,,,14,11,37,,,
112812,note_on,1,0,3,,,,,,,,,3,,,,64,81
112860,note_on,60,0,6,,,,,,,,,10,,,,70,0
112860,note_on,0,0,6,,,,,,,,,10,,,,74,100
112863,note_on,0,0,7,,,,,,,,,11,,,,70,100
112863,note_on,60,0,7,,,,,,,,,11,,,,67,0
112920,note_on,60,0,6,,,,,,,,,10,,,,74,0
112920,note_on,0,0,6,,,,,,,,,10,,,,72,100
112920,set_tempo,120,1,0,,,,,,382166,,,,,,,,
112923,note_on,0,0,7,,,,,,,,,11,,,,69,100
112923,note_on,60,0,7,,,,,,,,,11,,,,70,0
112980,note_on,60,0,6,,,,,,,,,10,,,,72,0
112980,note_on,0,0,6,,,,,,,,,10,,,,69,100
112983,note_on,180,0,1,,,,,,,,,0,,,,79,0
112983,note_on,0,0,7,,,,,,,,,11,,,,65,100
112983,note_on,60,0,7,,,,,,,,,11,,,,69,0
112983,note_on,0,0,1,,,,,,,,,0,,,,81,121
112985,note_on,180,0,2,,,,,,,,,1,,,,67,0
112985,note_on,0,0,2,,,,,,,,,1,,,,69,120
112986,note_on,180,0,8,,,,,,,,,12,,,,64,0
112986,note_on,0,0,8,,,,,,,,,12,,,,65,98
112992,note_on,0,0,3,,,,,,,,,3,,,,65,81
112992,note_on,180,0,3,,,,,,,,,3,,,,64,0
113030,note_on,50,0,6,,,,,,,,,10,,,,69,0
113033,note_on,50,0,1,,,,,,,,,0,,,,81,0
113033,note_on,50,0,7,,,,,,,,,11,,,,65,0
113035,note_on,50,0,2,,,,,,,,,1,,,,69,0
113036,note_on,50,0,8,,,,,,,,,12,,,,65,0
113040,set_tempo,120,1,0,,,,,,360360,,,,,,,,
113040,note_on,10,0,6,,,,,,,,,10,,,,67,100
113042,note_on,50,0,3,,,,,,,,,3,,,,65,0
113043,note_on,10,0,1,,,,,,,,,0,,,,82,121
113043,note_on,10,0,7,,,,,,,,,11,,,,64,100
113045,note_on,10,0,2,,,,,,,,,1,,,,70,120
113046,note_on,10,0,8,,,,,,,,,12,,,,60,98
113052,note_on,10,0,3,,,,,,,,,3,,,,60,81
113103,note_on,0,0,1,,,,,,,,,0,,,,86,121
113103,note_on,60,0,1,,,,,,,,,0,,,,82,0
113105,note_on,0,0,2,,,,,,,,,1,,,,74,120
113105,note_on,60,0,2,,,,,,,,,1,,,,70,0
113160,set_tempo,120,1,0,,,,,,382166,,,,,,,,
113163,note_on,0,0,1,,,,,,,,,0,,,,82,121
113163,note_on,60,0,1,,,,,,,,,0,,,,86,0
113165,note_on,60,0,2,,,,,,,,,1,,,,74,0
113165,note_on,0,0,2,,,,,,,,,1,,,,70,120
113220,note_on,0,0,6,,,,,,,,,10,,,,69,100
113220,note_on,180,0,6,,,,,,,,,10,,,,67,0
113223,note_on,180,0,7,,,,,,,,,11,,,,64,0
113223,note_on,0,0,7,,,,,,,,,11,,,,65,100
113223,note_on,60,0,1,,,,,,,,,0,,,,82,0
113223,note_on,0,0,1,,,,,,,,,0,,,,81,121
113225,note_on,60,0,2,,,,,,,,,1,,,,70,0
113225,note_on,0,0,2,,,,,,,,,1,,,,69,120
113270,note_on,50,0,6,,,,,,,,,10,,,,69,0
113273,note_on,50,0,1,,,,,,,,,0,,,,81,0
113273,note_on,50,0,7,,,,,,,,,11,,,,65,0
113275,note_on,50,0,2,,,,,,,,,1,,,,69,0
113276,note_on,230,0,8,,,,,,,,,12,,,,60,0
113280,set_tempo,120,1,0,,,,,,358209,,,,,,,,
113280,note_on,10,0,6,,,,,,,,,10,,,,70,100
113283,note_on,10,0,1,,,,,,,,,0,,,,79,121
113283,note_on,10,0,7,,,,,,,,,11,,,,67,100
113285,note_on,10,0,2,,,,,,,,,1,,,,67,120
113286,note_on,10,0,8,,,,,,,,,12,,,,64,98
113292,note_on,240,0,3,,,,,,,,,3,,,,60,0
113292,note_on,0,0,3,,,,,,,,,3,,,,64,81
113340,note_on,0,0,6,,,,,,,,,10,,,,74,100
113340,note_on,60,0,6,,,,,,,,,10,,,,70,0
113343,note_on,60,0,7,,,,,,,,,11,,,,67,0
113343,note_on,0,0,7,,,,,,,,,11,,,,70,100
113400,note_on,0,0,6,,,,,,,,,10,,,,72,100
113400,note_on,60,0,6,,,,,,,,,10,,,,74,0
113400,set_tempo,120,1,0,,,,,,382166,,,,,,,,
113403,note_on,0,0,7,,,,,,,,,11,,,,69,100
113403,note_on,60,0,7,,,,,,,,,11,,,,70,0
113460,note_on,60,0,6,,,,,,,,,10,,,,72,0
113460,note_on,0,0,6,,,,,,,,,10,,,,69,100
113463,note_on,0,0,1,,,,,,,,,0,,,,81,121
113463,note_on,60,0,7,,,,,,,,,11,,,,69,0
113463,note_on,0,0,7,,,,,,,,,11,,,,65,100
113463,note_on,180,0,1,,,,,,,,,0,,,,79,0
113465,note_on,180,0,2,,,,,,,,,1,,,,67,0
113465,note_on,0,0,2,,,,,,,,,1,,,,69,120
113466,note_on,0,0,8,,,,,,,,,12,,,,65,98
113466,note_on,180,0,8,,,,,,,,,12,,,,64,0
113472,note_on,180,0,3,,,,,,,,,3,,,,64,0
113472,note_on,0,0,3,,,,,,,,,3,,,,65,81
113510,note_on,50,0,6,,,,,,,,,10,,,,69,0
113513,note_on,50,0,1,,,,,,,,,0,,,,81,0
113513,note_on,50,0,7,,,,,,,,,11,,,,65,0
113515,note_on,50,0,2,,,,,,,,,1,,,,69,0
113516,note_on,50,0,8,,,,,,,,,12,,,,65,0
113520,set_tempo,120,1,0,,,,,,355030,,,,,,,,
113520,note_on,10,0,6,,,,,,,,,10,,,,67,100
113522,note_on,50,0,3,,,,,,,,,3,,,,65,0
113523,note_on,10,0,1,,,,,,,,,0,,,,82,121
113523,note_on,10,0,7,,,,,,,,,11,,,,64,100
113525,note_on,10,0,2,,,,,,,,,1,,,,70,120
113526,note_on,10,0,8,,,,,,,,,12,,,,60,98
113532,note_on,10,0,3,,,,,,,,,3,,,,67,81
113550,note_on,30,0,6,,,,,,,,,10,,,,67,0
113580,note_on,30,0,6,,,,,,,,,10,,,,69,100
113583,note_on,0,0,1,,,,,,,,,0,,,,81,121
113583,note_on,60,0,1,,,,,,,,,0,,,,82,0
113585,note_on,60,0,2,,,,,,,,,1,,,,70,0
113585,note_on,0,0,2,,,,,,,,,1,,,,69,120
113610,note_on,30,0,6,,,,,,,,,10,,,,69,0
113633,note_on,50,0,1,,,,,,,,,0,,,,81,0
113635,note_on,50,0,2,,,,,,,,,1,,,,69,0
113640,note_on,30,0,6,,,,,,,,,10,,,,70,100
113640,set_tempo,120,1,0,,,,,,382166,,,,,,,,
113643,note_on,10,0,1,,,,,,,,,0,,,,82,121
113645,note_on,10,0,2,,,,,,,,,1,,,,70,120
113670,note_on,30,0,6,,,,,,,,,10,,,,70,0
113679,note_on,36,0,1,,,,,,,,,0,,,,82,0
113681,note_on,36,0,2,,,,,,,,,1,,,,70,0
113700,note_on,30,0,6,,,,,,,,,10,,,,72,100
113703,note_on,24,0,1,,,,,,,,,0,,,,84,121
113705,note_on,24,0,2,,,,,,,,,1,,,,72,120
113730,note_on,30,0,6,,,,,,,,,10,,,,72,0
113739,note_on,36,0,1,,,,,,,,,0,,,,84,0
113741,note_on,36,0,2,,,,,,,,,1,,,,72,0
113758,note_on,235,0,7,,,,,,,,,11,,,,64,0
113760,set_tempo,120,1,0,,,,,,368098,,,,,,,,
113760,control_change,30,0,6,,,,,,,,,10,11,37,,,
113760,note_on,0,0,6,,,,,,,,,10,,,,69,100
113761,note_on,951,0,9,,,,,,,,,13,,,,48,0
113762,note_on,230,0,3,,,,,,,,,3,,,,48,0
113763,note_on,0,0,7,,,,,,,,,11,,,,65,100
113763,control_change,24,0,1,,,,,,,,,0,11,37,,,
113763,note_on,0,0,1,,,,,,,,,0,,,,81,105
113763,control_change,5,0,7,,,,,,,,,11,11,37,,,
113763,note_on,951,0,10,,,,,,,,,14,,,,36,0
113765,note_on,0,0,2,,,,,,,,,1,,,,65,104
113765,note_on,0,0,2,,,,,,,,,1,,,,69,104
113765,control_change,24,0,2,,,,,,,,,1,11,37,,,
113771,note_on,10,0,9,,,,,,,,,13,,,,53,89
113772,note_on,0,0,3,,,,,,,,,3,,,,53,81
113772,note_on,10,0,3,,,,,,,,,3,,,,67,0
113772,note_on,0,0,3,,,,,,,,,3,,,,65,81
113773,note_on,10,0,10,,,,,,,,,14,,,,41,73
113778,control_change,18,0,6,,,,,,,,,10,11,40,,,
113781,control_change,18,0,7,,,,,,,,,11,11,40,,,
113781,control_change,18,0,1,,,,,,,,,0,11,40,,,
113783,control_change,18,0,2,,,,,,,,,1,11,40,,,
113790,note_on,12,0,6,,,,,,,,,10,,,,69,0
113796,control_change,6,0,6,,,,,,,,,10,11,43,,,
113799,note_on,18,0,1,,,,,,,,,0,,,,81,0
113799,control_change,0,0,1,,,,,,,,,0,11,43,,,
113799,control_change,18,0,7,,,,,,,,,11,11,43,,,
113801,control_change,0,0,2,,,,,,,,,1,11,43,,,
113801,note_on,0,0,2,,,,,,,,,1,,,,69,0
113801,note_on,18,0,2,,,,,,,,,1,,,,65,0
113813,note_on,14,0,7,,,,,,,,,11,,,,65,0
113814,control_change,18,0,6,,,,,,,,,10,11,46,,,
113817,control_change,4,0,7,,,,,,,,,11,11,46,,,
113817,control_change,18,0,1,,,,,,,,,0,11,46,,,
113819,control_change,18,0,2,,,,,,,,,1,11,46,,,
113820,note_on,6,0,6,,,,,,,,,10,,,,70,100
113823,note_on,6,0,1,,,,,,,,,0,,,,82,105
113823,note_on,6,0,7,,,,,,,,,11,,,,67,100
113825,note_on,0,0,2,,,,,,,,,1,,,,70,104
113825,note_on,6,0,2,,,,,,,,,1,,,,67,104
113832,control_change,12,0,6,,,,,,,,,10,11,49,,,
113835,control_change,12,0,1,,,,,,,,,0,11,49,,,
113835,control_change,12,0,7,,,,,,,,,11,11,49,,,
113837,control_change,12,0,2,,,,,,,,,1,11,49,,,
113850,note_on,18,0,6,,,,,,,,,10,,,,70,0
113850,control_change,0,0,6,,,,,,,,,10,11,52,,,
113853,note_on,18,0,7,,,,,,,,,11,,,,67,0
113853,control_change,0,0,7,,,,,,,,,11,11,52,,,
113853,control_change,18,0,1,,,,,,,,,0,11,52,,,
113855,control_change,18,0,2,,,,,,,,,1,11,52,,,
113859,note_on,6,0,1,,,,,,,,,0,,,,82,0
113861,note_on,0,0,2,,,,,,,,,1,,,,67,0
113861,note_on,6,0,2,,,,,,,,,1,,,,70,0
113868,control_change,18,0,6,,,,,,,,,10,11,55,,,
113871,control_change,12,0,1,,,,,,,,,0,11,55,,,
113871,control_change,18,0,7,,,,,,,,,11,11,55,,,
113873,control_change,12,0,2,,,,,,,,,1,11,55,,,
113876,note_on,350,0,8,,,,,,,,,12,,,,60,0
113880,note_on,12,0,6,,,,,,,,,10,,,,72,100
113880,set_tempo,120,1,0,,,,,,382166,,,,,,,,
113883,note_on,12,0,1,,,,,,,,,0,,,,84,105
113883,note_on,12,0,7,,,,,,,,,11,,,,69,100
113885,note_on,12,0,2,,,,,,,,,1,,,,69,104
113885,note_on,0,0,2,,,,,,,,,1,,,,72,104
113886,control_change,6,0,6,,,,,,,,,10,11,58,,,
113889,control_change,6,0,1,,,,,,,,,0,11,58,,,
113889,control_change,6,0,7,,,,,,,,,11,11,58,,,
113891,note_on,120,0,9,,,,,,,,,13,,,,53,0
113891,control_change,6,0,2,,,,,,,,,1,11,58,,,
113892,note_on,0,0,3,,,,,,,,,3,,,,53,0
113892,note_on,120,0,3,,,,,,,,,3,,,,65,0
113893,note_on,120,0,10,,,,,,,,,14,,,,41,0
113904,control_change,18,0,6,,,,,,,,,10,11,61,,,
113907,control_change,18,0,1,,,,,,,,,0,11,61,,,
113907,control_change,18,0,7,,,,,,,,,11,11,61,,,
113909,control_change,18,0,2,,,,,,,,,1,11,61,,,
113910,note_on,6,0,6,,,,,,,,,10,,,,72,0
113913,note_on,6,0,7,,,,,,,,,11,,,,69,0
113919,note_on,12,0,1,,,,,,,,,0,,,,84,0
113921,note_on,12,0,2,,,,,,,,,1,,,,72,0
113921,note_on,0,0,2,,,,,,,,,1,,,,69,0
113922,control_change,12,0,6,,,,,,,,,10,11,63,,,
113925,control_change,12,0,7,,,,,,,,,11,11,63,,,
113925,control_change,6,0,1,,,,,,,,,0,11,63,,,
113927,control_change,6,0,2,,,,,,,,,1,11,63,,,
113940,control_change,18,0,6,,,,,,,,,10,11,65,,,
113940,note_on,0,0,6,,,,,,,,,10,,,,74,100
113943,control_change,18,0,7,,,,,,,,,11,11,65,,,
113943,note_on,0,0,1,,,,,,,,,0,,,,86,105
113943,control_change,18,0,1,,,,,,,,,0,11,65,,,
113943,note_on,0,0,7,,,,,,,,,11,,,,70,100
113945,note_on,0,0,2,,,,,,,,,1,,,,74,104
113945,note_on,0,0,2,,,,,,,,,1,,,,70,104
113945,control_change,18,0,2,,,,,,,,,1,11,65,,,
113958,control_change,18,0,6,,,,,,,,,10,11,67,,,
113961,control_change,18,0,1,,,,,,,,,0,11,67,,,
113961,control_change,18,0,7,,,,,,,,,11,11,67,,,
113963,control_change,18,0,2,,,,,,,,,1,11,67,,,
113970,note_on,12,0,6,,,,,,,,,10,,,,74,0
113973,note_on,12,0,7,,,,,,,,,11,,,,70,0
113976,control_change,6,0,6,,,,,,,,,10,11,69,,,
113979,note_on,18,0,1,,,,,,,,,0,,,,86,0
113979,control_change,6,0,7,,,,,,,,,11,11,69,,,
113979,control_change,0,0,1,,,,,,,,,0,11,69,,,
113981,control_change,0,0,2,,,,,,,,,1,11,69,,,
113981,note_on,0,0,2,,,,,,,,,1,,,,70,0
113981,note_on,18,0,2,,,,,,,,,1,,,,74,0
113994,control_change,18,0,6,,,,,,,,,10,11,71,,,
113997,control_change,18,0,1,,,,,,,,,0,11,71,,,
113997,control_change,18,0,7,,,,,,,,,11,11,71,,,
113999,control_change,18,0,2,,,,,,,,,1,11,71,,,
114000,note_on,6,0,6,,,,,,,,,10,,,,75,100
114000,set_tempo,120,1,0,,,,,,363636,,,,,,,,
114003,note_on,6,0,1,,,,,,,,,0,,,,87,82
114003,note_on,6,0,7,,,,,,,,,11,,,,72,100
114004,control_change,6319,0,4,,,,,,,,,4,11,72,,,
114004,note_on,0,0,4,,,,,,,,,4,,,,53,86
114005,note_on,6,0,2,,,,,,,,,1,,,,72,81
114005,note_on,0,0,2,,,,,,,,,1,,,,75,81
114006,control_change,130,0,8,,,,,,,,,12,11,72,,,
114006,note_on,0,0,8,,,,,,,,,12,,,,57,98
114006,note_on,0,0,5,,,,,,,,,5,,,,41,86
114006,control_change,6319,0,5,,,,,,,,,5,11,72,,,
114011,control_change,120,0,9,,,,,,,,,13,11,72,,,
114011,note_on,0,0,9,,,,,,,,,13,,,,53,89
114012,note_on,0,0,3,,,,,,,,,3,,,,57,81
114012,control_change,120,0,3,,,,,,,,,3,11,72,,,
114013,control_change,120,0,10,,,,,,,,,14,11,72,,,
114013,note_on,0,0,10,,,,,,,,,14,,,,41,73
114060,note_on,0,0,6,,,,,,,,,10,,,,79,100
114060,note_on,60,0,6,,,,,,,,,10,,,,75,0
114063,note_on,60,0,7,,,,,,,,,11,,,,72,0
114063,note_on,60,0,1,,,,,,,,,0,,,,87,0
114063,note_on,0,0,7,,,,,,,,,11,,,,75,100
114063,note_on,0,0,1,,,,,,,,,0,,,,91,82
114065,note_on,0,0,2,,,,,,,,,1,,,,75,81
114065,note_on,0,0,2,,,,,,,,,1,,,,79,81
114065,note_on,0,0,2,,,,,,,,,1,,,,72,0
114065,note_on,60,0,2,,,,,,,,,1,,,,75,0
114110,note_on,50,0,6,,,,,,,,,10,,,,79,0
114113,note_on,50,0,7,,,,,,,,,11,,,,75,0
114113,note_on,50,0,1,,,,,,,,,0,,,,91,0
114115,note_on,50,0,2,,,,,,,,,1,,,,75,0
114115,note_on,0,0,2,,,,,,,,,1,,,,79,0
114120,set_tempo,120,1,0,,,,,,382166,,,,,,,,
114120,note_on,10,0,6,,,,,,,,,10,,,,75,100
114123,note_on,10,0,1,,,,,,,,,0,,,,87,82
114123,note_on,10,0,7,,,,,,,,,11,,,,72,100
114125,note_on,0,0,2,,,,,,,,,1,,,,75,81
114125,note_on,10,0,2,,,,,,,,,1,,,,72,81
114150,note_on,30,0,6,,,,,,,,,10,,,,75,0
114153,note_on,30,0,7,,,,,,,,,11,,,,72,0
114159,note_on,36,0,1,,,,,,,,,0,,,,87,0
114161,note_on,36,0,2,,,,,,,,,1,,,,75,0
114161,note_on,0,0,2,,,,,,,,,1,,,,72,0
114180,note_on,30,0,6,,,,,,,,,10,,,,74,100
114183,note_on,24,0,1,,,,,,,,,0,,,,86,82
114183,note_on,30,0,7,,,,,,,,,11,,,,70,100
114185,note_on,24,0,2,,,,,,,,,1,,,,74,81
114185,note_on,0,0,2,,,,,,,,,1,,,,70,81
114186,note_on,0,0,8,,,,,,,,,12,,,,58,98
114186,note_on,180,0,8,,,,,,,,,12,,,,57,0
114192,note_on,0,0,3,,,,,,,,,3,,,,58,81
114192,note_on,180,0,3,,,,,,,,,3,,,,57,0
114210,note_on,30,0,6,,,,,,,,,10,,,,74,0
114213,note_on,30,0,7,,,,,,,,,11,,,,70,0
114219,note_on,36,0,1,,,,,,,,,0,,,,86,0
114221,note_on,0,0,2,,,,,,,,,1,,,,74,0
114221,note_on,36,0,2,,,,,,,,,1,,,,70,0
114236,note_on,50,0,8,,,,,,,,,12,,,,58,0
114240,note_on,30,0,6,,,,,,,,,10,,,,72,100
114240,set_tempo,120,1,0,,,,,,360360,,,,,,,,
114241,note_on,230,0,9,,,,,,,,,13,,,,53,0
114242,note_on,50,0,3,,,,,,,,,3,,,,58,0
114243,note_on,24,0,1,,,,,,,,,0,,,,84,82
114243,note_on,30,0,7,,,,,,,,,11,,,,69,100
114243,note_on,230,0,10,,,,,,,,,14,,,,41,0
114245,note_on,0,0,2,,,,,,,,,1,,,,72,81
114245,note_on,24,0,2,,,,,,,,,1,,,,69,81
114246,note_on,10,0,8,,,,,,,,,12,,,,65,98
114251,note_on,10,0,9,,,,,,,,,13,,,,53,89
114252,note_on,10,0,3,,,,,,,,,3,,,,65,81
114253,note_on,10,0,10,,,,,,,,,14,,,,41,73
114306,note_on,0,0,8,,,,,,,,,12,,,,64,98
114306,note_on,60,0,8,,,,,,,,,12,,,,65,0
114312,note_on,60,0,3,,,,,,,,,3,,,,65,0
114312,note_on,0,0,3,,,,,,,,,3,,,,64,81
114360,set_tempo,120,1,0,,,,,,382166,,,,,,,,
114366,note_on,0,0,8,,,,,,,,,12,,,,63,98
114366,note_on,60,0,8,,,,,,,,,12,,,,64,0
114372,note_on,60,0,3,,,,,,,,,3,,,,64,0
114372,note_on,0,0,3,,,,,,,,,3,,,,63,81
114420,note_on,180,0,6,,,,,,,,,10,,,,72,0
114420,note_on,0,0,6,,,,,,,,,10,,,,74,100
114423,note_on,180,0,7,,,,,,,,,11,,,,69,0
114423,note_on,180,0,1,,,,,,,,,0,,,,84,0
114423,note_on,0,0,7,,,,,,,,,11,,,,70,100
114423,note_on,0,0,1,,,,,,,,,0,,,,86,82
114425,note_on,0,0,2,,,,,,,,,1,,,,74,81
114425,note_on,0,0,2,,,,,,,,,1,,,,70,81
114425,note_on,180,0,2,,,,,,,,,1,,,,72,0
114425,note_on,0,0,2,,,,,,,,,1,,,,69,0
114426,note_on,60,0,8,,,,,,,,,12,,,,63,0
114426,note_on,0,0,8,,,,,,,,,12,,,,62,98
114432,note_on,0,0,3,,,,,,,,,3,,,,62,81
114432,note_on,60,0,3,,,,,,,,,3,,,,63,0
114470,note_on,50,0,6,,,,,,,,,10,,,,74,0
114473,note_on,50,0,7,,,,,,,,,11,,,,70,0
114473,note_on,50,0,1,,,,,,,,,0,,,,86,0
114475,note_on,0,0,2,,,,,,,,,1,,,,74,0
114475,note_on,50,0,2,,,,,,,,,1,,,,70,0
114476,note_on,50,0,8,,,,,,,,,12,,,,62,0
114480,note_on,10,0,6,,,,,,,,,10,,,,75,100
114480,set_tempo,120,1,0,,,,,,359281,,,,,,,,
114481,note_on,230,0,9,,,,,,,,,13,,,,53,0
114482,note_on,50,0,3,,,,,,,,,3,,,,62,0
114483,note_on,230,0,10,,,,,,,,,14,,,,41,0
114483,note_on,10,0,7,,,,,,,,,11,,,,72,100
114483,note_on,10,0,1,,,,,,,,,0,,,,87,82
114485,note_on,10,0,2,,,,,,,,,1,,,,72,81
114485,note_on,0,0,2,,,,,,,,,1,,,,75,81
114486,note_on,10,0,8,,,,,,,,,12,,,,57,98
114491,note_on,10,0,9,,,,,,,,,13,,,,53,89
114492,note_on,10,0,3,,,,,,,,,3,,,,57,81
114493,note_on,10,0,10,,,,,,,,,14,,,,41,73
114540,note_on,60,0,6,,,,,,,,,10,,,,75,0
114540,note_on,0,0,6,,,,,,,,,10,,,,79,100
114543,note_on,60,0,7,,,,,,,,,11,,,,72,0
114543,note_on,0,0,7,,,,,,,,,11,,,,75,100
114543,note_on,0,0,1,,,,,,,,,0,,,,91,82
114543,note_on,60,0,1,,,,,,,,,0,,,,87,0
114545,note_on,0,0,2,,,,,,,,,1,,,,72,0
114545,note_on,0,0,2,,,,,,,,,1,,,,79,81
114545,note_on,0,0,2,,,,,,,,,1,,,,75,81
114545,note_on,60,0,2,,,,,,,,,1,,,,75,0
114590,note_on,50,0,6,,,,,,,,,10,,,,79,0
114593,note_on,50,0,7,,,,,,,,,11,,,,75,0
114593,note_on,50,0,1,,,,,,,,,0,,,,91,0
114595,note_on,0,0,2,,,,,,,,,1,,,,79,0
114595,note_on,50,0,2,,,,,,,,,1,,,,75,0
114600,set_tempo,120,1,0,,,,,,382166,,,,,,,,
114600,note_on,10,0,6,,,,,,,,,10,,,,75,100
114603,note_on,10,0,1,,,,,,,,,0,,,,87,82
114603,note_on,10,0,7,,,,,,,,,11,,,,72,100
114605,note_on,0,0,2,,,,,,,,,1,,,,75,81
114605,note_on,10,0,2,,,,,,,,,1,,,,72,81
114630,note_on,30,0,6,,,,,,,,,10,,,,75,0
114633,note_on,30,0,7,,,,,,,,,11,,,,72,0
114639,note_on,36,0,1,,,,,,,,,0,,,,87,0
114641,note_on,0,0,2,,,,,,,,,1,,,,72,0
114641,note_on,36,0,2,,,,,,,,,1,,,,75,0
114660,note_on,30,0,6,,,,,,,,,10,,,,74,100
114663,note_on,30,0,7,,,,,,,,,11,,,,70,100
114663,note_on,24,0,1,,,,,,,,,0,,,,86,82
114665,note_on,0,0,2,,,,,,,,,1,,,,74,81
114665,note_on,24,0,2,,,,,,,,,1,,,,70,81
114666,note_on,180,0,8,,,,,,,,,12,,,,57,0
114666,note_on,0,0,8,,,,,,,,,12,,,,58,98
114672,note_on,0,0,3,,,,,,,,,3,,,,58,81
114672,note_on,180,0,3,,,,,,,,,3,,,,57,0
114690,note_on,30,0,6,,,,,,,,,10,,,,74,0
114693,note_on,30,0,7,,,,,,,,,11,,,,70,0
114699,note_on,36,0,1,,,,,,,,,0,,,,86,0
114701,note_on,36,0,2,,,,,,,,,1,,,,74,0
114701,note_on,0,0,2,,,,,,,,,1,,,,70,0
114716,note_on,50,0,8,,,,,,,,,12,,,,58,0
114720,set_tempo,120,1,0,,,,,,357143,,,,,,,,
114720,note_on,30,0,6,,,,,,,,,10,,,,72,100
114721,note_on,230,0,9,,,,,,,,,13,,,,53,0
114722,note_on,50,0,3,,,,,,,,,3,,,,58,0
114723,note_on,24,0,1,,,,,,,,,0,,,,84,82
114723,note_on,30,0,7,,,,,,,,,11,,,,69,100
114723,note_on,230,0,10,,,,,,,,,14,,,,41,0
114725,note_on,24,0,2,,,,,,,,,1,,,,72,81
114725,note_on,0,0,2,,,,,,,,,1,,,,69,81
114726,note_on,10,0,8,,,,,,,,,12,,,,65,98
114731,note_on,10,0,9,,,,,,,,,13,,,,53,89
114732,note_on,10,0,3,,,,,,,,,3,,,,65,81
114733,note_on,10,0,10,,,,,,,,,14,,,,41,73
114786,note_on,0,0,8,,,,,,,,,12,,,,64,98
114786,note_on,60,0,8,,,,,,,,,12,,,,65,0
114792,note_on,0,0,3,,,,,,,,,3,,,,64,81
114792,note_on,60,0,3,,,,,,,,,3,,,,65,0
114840,set_tempo,120,1,0,,,,,,382166,,,,,,,,
114846,note_on,0,0,8,,,,,,,,,12,,,,63,98
114846,note_on,60,0,8,,,,,,,,,12,,,,64,0
114852,note_on,60,0,3,,,,,,,,,3,,,,64,0
114852,note_on,0,0,3,,,,,,,,,3,,,,63,81
114900,note_on,180,0,6,,,,,,,,,10,,,,72,0
114900,note_on,0,0,6,,,,,,,,,10,,,,74,100
114903,note_on,0,0,1,,,,,,,,,0,,,,86,82
114903,note_on,180,0,7,,,,,,,,,11,,,,69,0
114903,note_on,0,0,7,,,,,,,,,11,,,,70,100
114903,note_on,180,0,1,,,,,,,,,0,,,,84,0
114905,note_on,0,0,2,,,,,,,,,1,,,,72,0
114905,note_on,0,0,2,,,,,,,,,1,,,,74,81
114905,note_on,0,0,2,,,,,,,,,1,,,,70,81
114905,note_on,180,0,2,,,,,,,,,1,,,,69,0
114906,note_on,60,0,8,,,,,,,,,12,,,,63,0
114906,note_on,0,0,8,,,,,,,,,12,,,,62,98
114912,note_on,60,0,3,,,,,,,,,3,,,,63,0
114912,note_on,0,0,3,,,,,,,,,3,,,,62,81
114950,note_on,50,0,6,,,,,,,,,10,,,,74,0
114953,note_on,50,0,1,,,,,,,,,0,,,,86,0
114953,note_on,50,0,7,,,,,,,,,11,,,,70,0
114955,note_on,0,0,2,,,,,,,,,1,,,,70,0
114955,note_on,50,0,2,,,,,,,,,1,,,,74,0
114956,note_on,50,0,8,,,,,,,,,12,,,,62,0
114960,set_tempo,120,1,0,,,,,,355030,,,,,,,,
114960,note_on,10,0,6,,,,,,,,,10,,,,75,100
114961,note_on,230,0,9,,,,,,,,,13,,,,53,0
114962,note_on,50,0,3,,,,,,,,,3,,,,62,0
114963,note_on,10,0,7,,,,,,,,,11,,,,72,100
114963,note_on,230,0,10,,,,,,,,,14,,,,41,0
114963,note_on,10,0,1,,,,,,,,,0,,,,87,82
114964,note_on,0,0,4,,,,,,,,,4,,,,53,86
114964,note_on,960,0,4,,,,,,,,,4,,,,53,0
114965,note_on,0,0,2,,,,,,,,,1,,,,72,81
114965,note_on,10,0,2,,,,,,,,,1,,,,75,81
114966,note_on,960,0,5,,,,,,,,,5,,,,41,0
114966,note_on,0,0,5,,,,,,,,,5,,,,41,86
114966,note_on,10,0,8,,,,,,,,,12,,,,53,98
114971,note_on,10,0,9,,,,,,,,,13,,,,53,89
114972,note_on,10,0,3,,,,,,,,,3,,,,53,81
114973,note_on,10,0,10,,,,,,,,,14,,,,41,73
114980,note_on,20,0,6,,,,,,,,,10,,,,75,0
114983,note_on,20,0,7,,,,,,,,,11,,,,72,0
114990,note_on,10,0,6,,,,,,,,,10,,,,75,92
114993,note_on,10,0,7,,,,,,,,,11,,,,72,92
115010,note_on,20,0,6,,,,,,,,,10,,,,75,0
115013,note_on,50,0,1,,,,,,,,,0,,,,87,0
115013,note_on,20,0,7,,,,,,,,,11,,,,72,0
115015,note_on,0,0,2,,,,,,,,,1,,,,75,0
115015,note_on,50,0,2,,,,,,,,,1,,,,72,0
115016,note_on,50,0,8,,,,,,,,,12,,,,53,0
115020,note_on,10,0,6,,,,,,,,,10,,,,74,100
115021,note_on,50,0,9,,,,,,,,,13,,,,53,0
115022,note_on,50,0,3,,,,,,,,,3,,,,53,0
115023,note_on,50,0,10,,,,,,,,,14,,,,41,0
115023,note_on,10,0,7,,,,,,,,,11,,,,71,100
115023,note_on,10,0,1,,,,,,,,,0,,,,86,82
115024,note_on,60,0,4,,,,,,,,,4,,,,53,0
115024,note_on,0,0,4,,,,,,,,,4,,,,53,86
115025,note_on,10,0,2,,,,,,,,,1,,,,71,81
115025,note_on,0,0,2,,,,,,,,,1,,,,74,81
115026,note_on,10,0,8,,,,,,,,,12,,,,65,98
115026,note_on,60,0,5,,,,,,,,,5,,,,41,0
115026,note_on,0,0,5,,,,,,,,,5,,,,41,86
115031,note_on,10,0,9,,,,,,,,,13,,,,53,89
115032,note_on,10,0,3,,,,,,,,,3,,,,53,81
115033,note_on,10,0,10,,,,,,,,,14,,,,41,73
115040,note_on,20,0,6,,,,,,,,,10,,,,74,0
115043,note_on,20,0,7,,,,,,,,,11,,,,71,0
115050,note_on,10,0,6,,,,,,,,,10,,,,74,92
115053,note_on,10,0,7,,,,,,,,,11,,,,71,92
115070,note_on,20,0,6,,,,,,,,,10,,,,74,0
115073,note_on,20,0,7,,,,,,,,,11,,,,71,0
115073,note_on,50,0,1,,,,,,,,,0,,,,86,0
115075,note_on,0,0,2,,,,,,,,,1,,,,71,0
115075,note_on,50,0,2,,,,,,,,,1,,,,74,0
115076,note_on,50,0,8,,,,,,,,,12,,,,65,0
115080,note_on,10,0,6,,,,,,,,,10,,,,75,100
115080,set_tempo,120,1,0,,,,,,382166,,,,,,,,
115081,note_on,50,0,9,,,,,,,,,13,,,,53,0
115082,note_on,50,0,3,,,,,,,,,3,,,,53,0
115083,note_on,10,0,1,,,,,,,,,0,,,,87,82
115083,note_on,10,0,7,,,,,,,,,11,,,,72,100
115083,note_on,50,0,10,,,,,,,,,14,,,,41,0
115084,note_on,60,0,4,,,,,,,,,4,,,,53,0
115084,note_on,0,0,4,,,,,,,,,4,,,,53,86
115085,note_on,10,0,2,,,,,,,,,1,,,,72,81
115085,note_on,0,0,2,,,,,,,,,1,,,,75,81
115086,note_on,0,0,5,,,,,,,,,5,,,,41,86
115086,note_on,10,0,8,,,,,,,,,12,,,,65,98
115086,note_on,60,0,5,,,,,,,,,5,,,,41,0
115091,note_on,10,0,9,,,,,,,,,13,,,,53,89
115092,note_on,10,0,3,,,,,,,,,3,,,,53,81
115093,note_on,10,0,10,,,,,,,,,14,,,,41,73
115100,note_on,20,0,6,,,,,,,,,10,,,,75,0
115103,note_on,20,0,7,,,,,,,,,11,,,,72,0
115110,note_on,10,0,6,,,,,,,,,10,,,,75,92
115113,note_on,10,0,7,,,,,,,,,11,,,,72,92
115130,note_on,20,0,6,,,,,,,,,10,,,,75,0
115133,note_on,50,0,1,,,,,,,,,0,,,,87,0
115133,note_on,20,0,7,,,,,,,,,11,,,,72,0
115135,note_on,0,0,2,,,,,,,,,1,,,,72,0
115135,note_on,50,0,2,,,,,,,,,1,,,,75,0
115136,note_on,50,0,8,,,,,,,,,12,,,,65,0
115140,note_on,10,0,6,,,,,,,,,10,,,,74,100
115141,note_on,50,0,9,,,,,,,,,13,,,,53,0
115142,note_on,50,0,3,,,,,,,,,3,,,,53,0
115143,note_on,10,0,1,,,,,,,,,0,,,,86,82
115143,note_on,50,0,10,,,,,,,,,14,,,,41,0
115143,note_on,10,0,7,,,,,,,,,11,,,,71,100
115144,note_on,0,0,4,,,,,,,,,4,,,,53,86
115144,note_on,60,0,4,,,,,,,,,4,,,,53,0
115145,note_on,0,0,2,,,,,,,,,1,,,,71,81
115145,note_on,10,0,2,,,,,,,,,1,,,,74,81
115146,note_on,0,0,5,,,,,,,,,5,,,,41,86
115146,note_on,60,0,5,,,,,,,,,5,,,,41,0
115146,note_on,10,0,8,,,,,,,,,12,,,,65,98
115151,note_on,10,0,9,,,,,,,,,13,,,,53,89
115152,note_on,10,0,3,,,,,,,,,3,,,,53,81
115153,note_on,10,0,10,,,,,,,,,14,,,,41,73
115160,note_on,20,0,6,,,,,,,,,10,,,,74,0
115163,note_on,20,0,7,,,,,,,,,11,,,,71,0
115170,note_on,10,0,6,,,,,,,,,10,,,,74,92
115173,note_on,10,0,7,,,,,,,,,11,,,,71,92
115190,note_on,20,0,6,,,,,,,,,10,,,,74,0
115193,note_on,20,0,7,,,,,,,,,11,,,,71,0
115193,note_on,50,0,1,,,,,,,,,0,,,,86,0
115195,note_on,50,0,2,,,,,,,,,1,,,,71,0
115195,note_on,0,0,2,,,,,,,,,1,,,,74,0
115196,note_on,50,0,8,,,,,,,,,12,,,,65,0
115200,note_on,10,0,6,,,,,,,,,10,,,,75,100
115200,set_tempo,120,1,0,,,,,,355030,,,,,,,,
115201,note_on,50,0,9,,,,,,,,,13,,,,53,0
115202,note_on,50,0,3,,,,,,,,,3,,,,53,0
115203,note_on,10,0,1,,,,,,,,,0,,,,87,82
115203,note_on,50,0,10,,,,,,,,,14,,,,41,0
115203,note_on,10,0,7,,,,,,,,,11,,,,72,100
115204,note_on,60,0,4,,,,,,,,,4,,,,53,0
115204,note_on,0,0,4,,,,,,,,,4,,,,53,86
115205,note_on,10,0,2,,,,,,,,,1,,,,75,81
115205,note_on,0,0,2,,,,,,,,,1,,,,72,81
115206,note_on,60,0,5,,,,,,,,,5,,,,41,0
115206,note_on,0,0,5,,,,,,,,,5,,,,41,86
115206,note_on,10,0,8,,,,,,,,,12,,,,65,98
115211,note_on,10,0,9,,,,,,,,,13,,,,53,89
115212,note_on,10,0,3,,,,,,,,,3,,,,53,81
115213,note_on,10,0,10,,,,,,,,,14,,,,41,73
115220,note_on,20,0,6,,,,,,,,,10,,,,75,0
115223,note_on,20,0,7,,,,,,,,,11,,,,72,0
115230,note_on,10,0,6,,,,,,,,,10,,,,75,92
115233,note_on,10,0,7,,,,,,,,,11,,,,72,92
115250,note_on,20,0,6,,,,,,,,,10,,,,75,0
115253,note_on,50,0,1,,,,,,,,,0,,,,87,0
115253,note_on,20,0,7,,,,,,,,,11,,,,72,0
115255,note_on,0,0,2,,,,,,,,,1,,,,75,0
115255,note_on,50,0,2,,,,,,,,,1,,,,72,0
115256,note_on,50,0,8,,,,,,,,,12,,,,65,0
115260,note_on,10,0,6,,,,,,,,,10,,,,74,100
115261,note_on,50,0,9,,,,,,,,,13,,,,53,0
115262,note_on,50,0,3,,,,,,,,,3,,,,53,0
115263,note_on,50,0,10,,,,,,,,,14,,,,41,0
115263,note_on,10,0,1,,,,,,,,,0,,,,86,82
115263,note_on,10,0,7,,,,,,,,,11,,,,71,100
115264,note_on,0,0,4,,,,,,,,,4,,,,53,86
115264,note_on,60,0,4,,,,,,,,,4,,,,53,0
115265,note_on,0,0,2,,,,,,,,,1,,,,74,81
115265,note_on,10,0,2,,,,,,,,,1,,,,71,81
115266,note_on,0,0,5,,,,,,,,,5,,,,41,86
115266,note_on,10,0,8,,,,,,,,,12,,,,65,98
115266,note_on,60,0,5,,,,,,,,,5,,,,41,0
115271,note_on,10,0,9,,,,,,,,,13,,,,53,89
115272,note_on,10,0,3,,,,,,,,,3,,,,53,81
115273,note_on,10,0,10,,,,,,,,,14,,,,41,73
115280,note_on,20,0,6,,,,,,,,,10,,,,74,0
115283,note_on,20,0,7,,,,,,,,,11,,,,71,0
115290,note_on,10,0,6,,,,,,,,,10,,,,74,92
115293,note_on,10,0,7,,,,,,,,,11,,,,71,92
115310,note_on,20,0,6,,,,,,,,,10,,,,74,0
115313,note_on,50,0,1,,,,,,,,,0,,,,86,0
115313,note_on,20,0,7,,,,,,,,,11,,,,71,0
115315,note_on,50,0,2,,,,,,,,,1,,,,74,0
115315,note_on,0,0,2,,,,,,,,,1,,,,71,0
115316,note_on,50,0,8,,,,,,,,,12,,,,65,0
115320,note_on,10,0,6,,,,,,,,,10,,,,75,100
115320,set_tempo,120,1,0,,,,,,382166,,,,,,,,
115321,note_on,50,0,9,,,,,,,,,13,,,,53,0
115322,note_on,50,0,3,,,,,,,,,3,,,,53,0
115323,note_on,10,0,1,,,,,,,,,0,,,,87,82
115323,note_on,10,0,7,,,,,,,,,11,,,,72,100
115323,note_on,50,0,10,,,,,,,,,14,,,,41,0
115324,note_on,60,0,4,,,,,,,,,4,,,,53,0
115324,note_on,0,0,4,,,,,,,,,4,,,,53,86
115325,note_on,0,0,2,,,,,,,,,1,,,,72,81
115325,note_on,10,0,2,,,,,,,,,1,,,,75,81
115326,note_on,0,0,5,,,,,,,,,5,,,,41,86
115326,note_on,10,0,8,,,,,,,,,12,,,,65,98
115326,note_on,60,0,5,,,,,,,,,5,,,,41,0
115331,note_on,10,0,9,,,,,,,,,13,,,,53,89
115332,note_on,10,0,3,,,,,,,,,3,,,,53,81
115333,note_on,10,0,10,,,,,,,,,14,,,,41,73
115340,note_on,20,0,6,,,,,,,,,10,,,,75,0
115343,note_on,20,0,7,,,,,,,,,11,,,,72,0
115350,note_on,10,0,6,,,,,,,,,10,,,,75,92
115353,note_on,10,0,7,,,,,,,,,11,,,,72,92
115370,note_on,20,0,6,,,,,,,,,10,,,,75,0
115373,note_on,50,0,1,,,,,,,,,0,,,,87,0
115373,note_on,20,0,7,,,,,,,,,11,,,,72,0
115375,note_on,0,0,2,,,,,,,,,1,,,,75,0
115375,note_on,50,0,2,,,,,,,,,1,,,,72,0
115376,note_on,50,0,8,,,,,,,,,12,,,,65,0
115380,note_on,10,0,6,,,,,,,,,10,,,,74,100
115381,note_on,50,0,9,,,,,,,,,13,,,,53,0
115382,note_on,50,0,3,,,,,,,,,3,,,,53,0
115383,note_on,10,0,7,,,,,,,,,11,,,,71,100
115383,note_on,50,0,10,,,,,,,,,14,,,,41,0
115383,note_on,10,0,1,,,,,,,,,0,,,,86,82
115384,note_on,0,0,4,,,,,,,,,4,,,,53,86
115384,note_on,60,0,4,,,,,,,,,4,,,,53,0
115385,note_on,10,0,2,,,,,,,,,1,,,,74,81
115385,note_on,0,0,2,,,,,,,,,1,,,,71,81
115386,note_on,10,0,8,,,,,,,,,12,,,,65,98
115386,note_on,0,0,5,,,,,,,,,5,,,,41,86
115386,note_on,60,0,5,,,,,,,,,5,,,,41,0
115391,note_on,10,0,9,,,,,,,,,13,,,,53,89
115392,note_on,10,0,3,,,,,,,,,3,,,,53,81
115393,note_on,10,0,10,,,,,,,,,14,,,,41,73
115400,note_on,20,0,6,,,,,,,,,10,,,,74,0
115403,note_on,20,0,7,,,,,,,,,11,,,,71,0
115410,note_on,10,0,6,,,,,,,,,10,,,,74,92
115413,note_on,10,0,7,,,,,,,,,11,,,,71,92
115430,note_on,20,0,6,,,,,,,,,10,,,,74,0
115433,note_on,20,0,7,,,,,,,,,11,,,,71,0
115433,note_on,50,0,1,,,,,,,,,0,,,,86,0
115435,note_on,50,0,2,,,,,,,,,1,,,,71,0
115435,note_on,0,0,2,,,,,,,,,1,,,,74,0
115436,note_on,50,0,8,,,,,,,,,12,,,,65,0
115440,note_on,10,0,6,,,,,,,,,10,,,,75,100
115440,set_tempo,120,1,0,,,,,,371517,,,,,,,,
115441,note_on,50,0,9,,,,,,,,,13,,,,53,0
115442,note_on,50,0,3,,,,,,,,,3,,,,53,0
115443,note_on,10,0,7,,,,,,,,,11,,,,72,100
115443,note_on,10,0,1,,,,,,,,,0,,,,87,82
115443,note_on,50,0,10,,,,,,,,,14,,,,41,0
115444,note_on,0,0,4,,,,,,,,,4,,,,53,86
115444,note_on,60,0,4,,,,,,,,,4,,,,53,0
115445,note_on,10,0,2,,,,,,,,,1,,,,72,81
115445,note_on,0,0,2,,,,,,,,,1,,,,75,81
115446,note_on,10,0,8,,,,,,,,,12,,,,65,98
115446,note_on,60,0,5,,,,,,,,,5,,,,41,0
115446,note_on,0,0,5,,,,,,,,,5,,,,41,86
115451,note_on,10,0,9,,,,,,,,,13,,,,53,89
115452,note_on,10,0,3,,,,,,,,,3,,,,53,81
115453,note_on,10,0,10,,,,,,,,,14,,,,41,73
115500,note_on,60,0,6,,,,,,,,,10,,,,75,0
115503,note_on,60,0,7,,,,,,,,,11,,,,72,0
115503,note_on,60,0,1,,,,,,,,,0,,,,87,0
115504,note_on,60,0,4,,,,,,,,,4,,,,53,0
115505,note_on,60,0,2,,,,,,,,,1,,,,75,0
115505,note_on,0,0,2,,,,,,,,,1,,,,72,0
115506,note_on,60,0,5,,,,,,,,,5,,,,41,0
115506,note_on,60,0,8,,,,,,,,,12,,,,65,0
115511,note_on,60,0,9,,,,,,,,,13,,,,53,0
115512,note_on,60,0,3,,,,,,,,,3,,,,53,0
115513,note_on,60,0,10,,,,,,,,,14,,,,41,0
115560,set_tempo,120,1,0,,,,,,409556,,,,,,,,
115560,note_on,0,0,6,,,,,,,,,10,,,,75,100
115560,note_on,60,0,6,,,,,,,,,10,,,,84,100
115563,note_on,60,0,1,,,,,,,,,0,,,,81,82
115563,note_on,0,0,7,,,,,,,,,11,,,,81,100
115563,note_on,60,0,7,,,,,,,,,11,,,,72,100
115564,note_on,60,0,4,,,,,,,,,4,,,,53,86
115565,note_on,60,0,2,,,,,,,,,1,,,,75,81
115565,note_on,0,0,2,,,,,,,,,1,,,,69,81
115566,note_on,60,0,5,,,,,,,,,5,,,,41,86
115566,note_on,60,0,8,,,,,,,,,12,,,,60,98
115566,note_on,0,0,8,,,,,,,,,12,,,,53,98
115566,note_on,0,0,8,,,,,,,,,12,,,,65,98
115571,note_on,60,0,9,,,,,,,,,13,,,,41,89
115572,note_on,60,0,3,,,,,,,,,3,,,,41,81
115573,note_on,60,0,10,,,,,,,,,14,,,,29,73
115620,note_on,60,0,6,,,,,,,,,10,,,,75,0
115620,note_on,0,0,6,,,,,,,,,10,,,,84,0
115623,note_on,0,0,7,,,,,,,,,11,,,,72,0
115623,note_on,60,0,1,,,,,,,,,0,,,,81,0
115623,note_on,60,0,7,,,,,,,,,11,,,,81,0
115624,note_on,60,0,4,,,,,,,,,4,,,,53,0
115625,note_on,60,0,2,,,,,,,,,1,,,,69,0
115625,note_on,0,0,2,,,,,,,,,1,,,,75,0
115626,note_on,0,0,8,,,,,,,,,12,,,,53,0
115626,note_on,60,0,5,,,,,,,,,5,,,,41,0
115626,note_on,0,0,8,,,,,,,,,12,,,,60,0
115626,note_on,60,0,8,,,,,,,,,12,,,,65,0
115631,note_on,60,0,9,,,,,,,,,13,,,,41,0
115632,note_on,60,0,3,,,,,,,,,3,,,,41,0
115633,note_on,60,0,10,,,,,,,,,14,,,,29,0
115800,set_tempo,240,1,0,,,,,,382166,,,,,,,,
115860,set_tempo,60,1,0,,,,,,409556,,,,,,,,
115860,note_on,0,0,6,,,,,,,,,10,,,,77,73
115860,control_change,240,0,6,,,,,,,,,10,11,37,,,
115863,control_change,240,0,7,,,,,,,,,11,11,37,,,
115863,note_on,0,0,7,,,,,,,,,11,,,,65,92
115878,control_change,18,0,6,,,,,,,,,10,11,40,,,
115881,control_change,18,0,7,,,,,,,,,11,11,40,,,
115896,control_change,18,0,6,,,,,,,,,10,11,43,,,
115899,control_change,18,0,7,,,,,,,,,11,11,43,,,
115910,note_on,14,0,6,,,,,,,,,10,,,,77,0
115913,note_on,14,0,7,,,,,,,,,11,,,,65,0
115914,control_change,4,0,6,,,,,,,,,10,11,46,,,
115917,control_change,4,0,7,,,,,,,,,11,11,46,,,
115920,note_on,6,0,6,,,,,,,,,10,,,,77,80
115920,set_tempo,60,1,0,,,,,,372671,,,,,,,,
115923,note_on,6,0,7,,,,,,,,,11,,,,65,100
115925,note_on,0,0,2,,,,,,,,,1,,,,65,81
115925,control_change,300,0,2,,,,,,,,,1,11,47,,,
115925,note_on,0,0,2,,,,,,,,,1,,,,77,81
115926,control_change,300,0,8,,,,,,,,,12,11,47,,,
115926,note_on,0,0,8,,,,,,,,,12,,,,62,90
115931,control_change,300,0,9,,,,,,,,,13,11,47,,,
115931,note_on,0,0,9,,,,,,,,,13,,,,50,81
115932,control_change,300,0,3,,,,,,,,,3,11,47,,,
115932,note_on,0,0,3,,,,,,,,,3,,,,50,81
115932,note_on,0,0,3,,,,,,,,,3,,,,58,81
115933,control_change,300,0,10,,,,,,,,,14,11,47,,,
115933,note_on,0,0,10,,,,,,,,,14,,,,38,58
115980,note_on,60,0,6,,,,,,,,,10,,,,77,0
115980,note_on,0,0,6,,,,,,,,,10,,,,79,80
115983,note_on,0,0,7,,,,,,,,,11,,,,67,100
115983,note_on,60,0,7,,,,,,,,,11,,,,65,0
116030,note_on,50,0,6,,,,,,,,,10,,,,79,0
116033,note_on,50,0,7,,,,,,,,,11,,,,67,0
116040,note_on,10,0,6,,,,,,,,,10,,,,81,80
116040,set_tempo,120,1,0,,,,,,382166,,,,,,,,
116043,note_on,10,0,7,,,,,,,,,11,,,,69,100
116046,note_on,120,0,8,,,,,,,,,12,,,,62,0
116051,note_on,120,0,9,,,,,,,,,13,,,,50,0
116052,note_on,0,0,3,,,,,,,,,3,,,,50,0
116052,note_on,120,0,3,,,,,,,,,3,,,,58,0
116053,note_on,120,0,10,,,,,,,,,14,,,,38,0
116070,note_on,30,0,6,,,,,,,,,10,,,,81,0
116073,note_on,30,0,7,,,,,,,,,11,,,,69,0
116100,note_on,30,0,6,,,,,,,,,10,,,,82,80
116103,note_on,30,0,7,,,,,,,,,11,,,,70,100
116130,note_on,30,0,6,,,,,,,,,10,,,,82,0
116133,note_on,30,0,7,,,,,,,,,11,,,,70,0
116160,note_on,30,0,6,,,,,,,,,10,,,,82,80
116160,set_tempo,120,1,0,,,,,,355030,,,,,,,,
116163,note_on,30,0,7,,,,,,,,,11,,,,70,100
116166,note_on,120,0,8,,,,,,,,,12,,,,63,90
116171,note_on,120,0,9,,,,,,,,,13,,,,51,81
116172,note_on,0,0,3,,,,,,,,,3,,,,51,81
116172,note_on,120,0,3,,,,,,,,,3,,,,60,81
116173,note_on,120,0,10,,,,,,,,,14,,,,39,58
116220,note_on,0,0,6,,,,,,,,,10,,,,81,80
116220,note_on,60,0,6,,,,,,,,,10,,,,82,0
116223,note_on,60,0,7,,,,,,,,,11,,,,70,0
116223,note_on,0,0,7,,,,,,,,,11,,,,69,100
116270,note_on,50,0,6,,,,,,,,,10,,,,81,0
116273,note_on,50,0,7,,,,,,,,,11,,,,69,0
116280,set_tempo,120,1,0,,,,,,382166,,,,,,,,
116280,note_on,10,0,6,,,,,,,,,10,,,,79,80
116283,note_on,10,0,7,,,,,,,,,11,,,,67,100
116286,note_on,120,0,8,,,,,,,,,12,,,,63,0
116291,note_on,120,0,9,,,,,,,,,13,,,,51,0
116292,note_on,120,0,3,,,,,,,,,3,,,,51,0
116292,note_on,0,0,3,,,,,,,,,3,,,,60,0
116293,note_on,120,0,10,,,,,,,,,14,,,,39,0
116310,note_on,30,0,6,,,,,,,,,10,,,,79,0
116313,note_on,30,0,7,,,,,,,,,11,,,,67,0
116340,note_on,30,0,6,,,,,,,,,10,,,,77,80
116343,note_on,30,0,7,,,,,,,,,11,,,,65,100
116370,note_on,30,0,6,,,,,,,,,10,,,,77,0
116373,note_on,30,0,7,,,,,,,,,11,,,,65,0
116400,set_tempo,120,1,0,,,,,,355030,,,,,,,,
116400,note_on,0,0,6,,,,,,,,,10,,,,82,80
116400,control_change,30,0,6,,,,,,,,,10,11,47,,,
116403,control_change,30,0,7,,,,,,,,,11,11,47,,,
116403,note_on,0,0,7,,,,,,,,,11,,,,70,100
116403,control_change,780,0,1,,,,,,,,,0,11,47,,,
116403,note_on,0,0,1,,,,,,,,,0,,,,82,82
116405,note_on,480,0,2,,,,,,,,,1,,,,65,0
116405,note_on,0,0,2,,,,,,,,,1,,,,65,81
116405,note_on,0,0,2,,,,,,,,,1,,,,77,0
116405,note_on,0,0,2,,,,,,,,,1,,,,70,81
116405,control_change,0,0,2,,,,,,,,,1,11,47,,,
116406,control_change,120,0,8,,,,,,,,,12,11,47,,,
116406,note_on,0,0,8,,,,,,,,,12,,,,62,90
116411,note_on,0,0,9,,,,,,,,,13,,,,50,81
116411,control_change,120,0,9,,,,,,,,,13,11,47,,,
116412,note_on,0,0,3,,,,,,,,,3,,,,50,81
116412,note_on,0,0,3,,,,,,,,,3,,,,58,81
116412,control_change,120,0,3,,,,,,,,,3,11,47,,,
116413,control_change,120,0,10,,,,,,,,,14,11,47,,,
116413,note_on,0,0,10,,,,,,,,,14,,,,38,58
116423,control_change,23,0,6,,,,,,,,,10,11,49,,,
116426,control_change,23,0,7,,,,,,,,,11,11,49,,,
116426,control_change,23,0,1,,,,,,,,,0,11,49,,,
116428,control_change,23,0,2,,,,,,,,,1,11,49,,,
116429,control_change,23,0,8,,,,,,,,,12,11,49,,,
116434,control_change,23,0,9,,,,,,,,,13,11,49,,,
116435,control_change,23,0,3,,,,,,,,,3,11,49,,,
116436,control_change,23,0,10,,,,,,,,,14,11,49,,,
116447,control_change,24,0,6,,,,,,,,,10,11,51,,,
116450,control_change,24,0,1,,,,,,,,,0,11,51,,,
116450,control_change,24,0,7,,,,,,,,,11,11,51,,,
116450,note_on,3,0,6,,,,,,,,,10,,,,82,0
116452,control_change,24,0,2,,,,,,,,,1,11,51,,,
116453,note_on,3,0,7,,,,,,,,,11,,,,70,0
116453,control_change,24,0,8,,,,,,,,,12,11,51,,,
116458,control_change,24,0,9,,,,,,,,,13,11,51,,,
116459,control_change,24,0,3,,,,,,,,,3,11,51,,,
116460,note_on,10,0,6,,,,,,,,,10,,,,82,80
116460,control_change,24,0,10,,,,,,,,,14,11,51,,,
116463,note_on,13,0,1,,,,,,,,,0,,,,82,0
116463,note_on,10,0,7,,,,,,,,,11,,,,70,100
116465,note_on,0,0,2,,,,,,,,,1,,,,65,0
116465,note_on,13,0,2,,,,,,,,,1,,,,70,0
116466,note_on,13,0,8,,,,,,,,,12,,,,62,0
116471,note_on,13,0,9,,,,,,,,,13,,,,50,0
116471,control_change,11,0,6,,,,,,,,,10,11,53,,,
116472,note_on,13,0,3,,,,,,,,,3,,,,50,0
116472,note_on,0,0,3,,,,,,,,,3,,,,58,0
116473,note_on,13,0,10,,,,,,,,,14,,,,38,0
116474,control_change,11,0,7,,,,,,,,,11,11,53,,,
116474,control_change,11,0,1,,,,,,,,,0,11,53,,,
116476,control_change,11,0,2,,,,,,,,,1,11,53,,,
116477,control_change,11,0,8,,,,,,,,,12,11,53,,,
116482,control_change,11,0,9,,,,,,,,,13,11,53,,,
116483,control_change,11,0,3,,,,,,,,,3,11,53,,,
116484,control_change,11,0,10,,,,,,,,,14,11,53,,,
116495,control_change,24,0,6,,,,,,,,,10,11,55,,,
116498,control_change,24,0,1,,,,,,,,,0,11,55,,,
116498,control_change,24,0,7,,,,,,,,,11,11,55,,,
116500,control_change,24,0,2,,,,,,,,,1,11,55,,,
116501,control_change,24,0,8,,,,,,,,,12,11,55,,,
116506,control_change,24,0,9,,,,,,,,,13,11,55,,,
116507,control_change,24,0,3,,,,,,,,,3,11,55,,,
116508,control_change,24,0,10,,,,,,,,,14,11,55,,,
116510,note_on,15,0,6,,,,,,,,,10,,,,82,0
116513,note_on,15,0,7,,,,,,,,,11,,,,70,0
116519,control_change,9,0,6,,,,,,,,,10,11,57,,,
116520,note_on,1,0,6,,,,,,,,,10,,,,86,80
116520,set_tempo,120,1,0,,,,,,382166,,,,,,,,
116522,control_change,24,0,1,,,,,,,,,0,11,57,,,
116522,control_change,9,0,7,,,,,,,,,11,11,57,,,
116523,note_on,1,0,1,,,,,,,,,0,,,,84,82
116523,note_on,1,0,7,,,,,,,,,11,,,,74,100
116524,control_change,24,0,2,,,,,,,,,1,11,57,,,
116525,control_change,24,0,8,,,,,,,,,12,11,57,,,
116525,note_on,0,0,2,,,,,,,,,1,,,,72,81
116525,note_on,1,0,2,,,,,,,,,1,,,,69,81
116526,note_on,1,0,8,,,,,,,,,12,,,,69,90
116530,control_change,24,0,9,,,,,,,,,13,11,57,,,
116531,control_change,24,0,3,,,,,,,,,3,11,57,,,
116531,note_on,1,0,9,,,,,,,,,13,,,,53,81
116532,note_on,1,0,3,,,,,,,,,3,,,,53,81
116532,note_on,0,0,3,,,,,,,,,3,,,,60,81
116532,control_change,24,0,10,,,,,,,,,14,11,57,,,
116533,note_on,1,0,10,,,,,,,,,14,,,,41,58
116543,control_change,23,0,6,,,,,,,,,10,11,59,,,
116546,control_change,23,0,1,,,,,,,,,0,11,59,,,
116546,control_change,23,0,7,,,,,,,,,11,11,59,,,
116548,control_change,23,0,2,,,,,,,,,1,11,59,,,
116549,control_change,23,0,8,,,,,,,,,12,11,59,,,
116550,note_on,7,0,6,,,,,,,,,10,,,,86,0
116550,note_on,0,0,6,,,,,,,,,10,,,,84,80
116553,note_on,0,0,7,,,,,,,,,11,,,,72,100
116553,note_on,7,0,7,,,,,,,,,11,,,,74,0
116554,control_change,23,0,9,,,,,,,,,13,11,59,,,
116555,control_change,23,0,3,,,,,,,,,3,11,59,,,
116556,control_change,23,0,10,,,,,,,,,14,11,59,,,
116567,control_change,17,0,6,,,,,,,,,10,11,61,,,
116570,control_change,17,0,7,,,,,,,,,11,11,61,,,
116570,control_change,24,0,1,,,,,,,,,0,11,61,,,
116570,note_on,3,0,6,,,,,,,,,10,,,,84,0
116572,control_change,24,0,2,,,,,,,,,1,11,61,,,
116573,note_on,3,0,7,,,,,,,,,11,,,,72,0
116573,control_change,24,0,8,,,,,,,,,12,11,61,,,
116578,control_change,24,0,9,,,,,,,,,13,11,61,,,
116579,control_change,24,0,3,,,,,,,,,3,11,61,,,
116580,note_on,10,0,6,,,,,,,,,10,,,,82,80
116580,control_change,24,0,10,,,,,,,,,14,11,61,,,
116583,note_on,10,0,7,,,,,,,,,11,,,,70,100
116583,note_on,13,0,1,,,,,,,,,0,,,,84,0
116585,note_on,0,0,2,,,,,,,,,1,,,,69,0
116585,note_on,13,0,2,,,,,,,,,1,,,,72,0
116586,note_on,13,0,8,,,,,,,,,12,,,,69,0
116591,note_on,13,0,9,,,,,,,,,13,,,,53,0
116591,control_change,11,0,6,,,,,,,,,10,11,62,,,
116592,note_on,13,0,3,,,,,,,,,3,,,,60,0
116592,note_on,0,0,3,,,,,,,,,3,,,,53,0
116593,note_on,13,0,10,,,,,,,,,14,,,,41,0
116594,control_change,11,0,7,,,,,,,,,11,11,62,,,
116594,control_change,11,0,1,,,,,,,,,0,11,62,,,
116596,control_change,11,0,2,,,,,,,,,1,11,62,,,
116597,control_change,11,0,8,,,,,,,,,12,11,62,,,
116600,note_on,9,0,6,,,,,,,,,10,,,,82,0
116602,control_change,11,0,9,,,,,,,,,13,11,62,,,
116603,control_change,11,0,3,,,,,,,,,3,11,62,,,
116603,note_on,9,0,7,,,,,,,,,11,,,,70,0
116604,control_change,11,0,10,,,,,,,,,14,11,62,,,
116610,note_on,10,0,6,,,,,,,,,10,,,,84,80
116613,note_on,10,0,7,,,,,,,,,11,,,,72,100
116615,control_change,5,0,6,,,,,,,,,10,11,64,,,
116618,control_change,24,0,1,,,,,,,,,0,11,64,,,
116618,control_change,5,0,7,,,,,,,,,11,11,64,,,
116620,control_change,24,0,2,,,,,,,,,1,11,64,,,
116621,control_change,24,0,8,,,,,,,,,12,11,64,,,
116626,control_change,24,0,9,,,,,,,,,13,11,64,,,
116627,control_change,24,0,3,,,,,,,,,3,11,64,,,
116628,control_change,24,0,10,,,,,,,,,14,11,64,,,
116630,note_on,15,0,6,,,,,,,,,10,,,,84,0
116633,note_on,15,0,7,,,,,,,,,11,,,,72,0
116639,control_change,9,0,6,,,,,,,,,10,11,65,,,
116640,note_on,1,0,6,,,,,,,,,10,,,,86,80
116640,set_tempo,120,1,0,,,,,,355030,,,,,,,,
116642,control_change,24,0,1,,,,,,,,,0,11,65,,,
116642,control_change,9,0,7,,,,,,,,,11,11,65,,,
116643,note_on,1,0,1,,,,,,,,,0,,,,86,82
116643,note_on,1,0,7,,,,,,,,,11,,,,74,100
116644,control_change,24,0,2,,,,,,,,,1,11,65,,,
116645,note_on,1,0,2,,,,,,,,,1,,,,74,81
116645,control_change,24,0,8,,,,,,,,,12,11,65,,,
116645,note_on,0,0,2,,,,,,,,,1,,,,70,81
116646,note_on,1,0,8,,,,,,,,,12,,,,70,90
116650,control_change,24,0,9,,,,,,,,,13,11,65,,,
116651,note_on,1,0,9,,,,,,,,,13,,,,58,81
116651,control_change,24,0,3,,,,,,,,,3,11,65,,,
116652,note_on,1,0,3,,,,,,,,,3,,,,58,81
116652,note_on,0,0,3,,,,,,,,,3,,,,62,81
116652,control_change,24,0,10,,,,,,,,,14,11,65,,,
116653,note_on,1,0,10,,,,,,,,,14,,,,46,58
116663,control_change,23,0,6,,,,,,,,,10,11,66,,,
116666,control_change,23,0,7,,,,,,,,,11,11,66,,,
116666,control_change,23,0,1,,,,,,,,,0,11,66,,,
116668,control_change,23,0,2,,,,,,,,,1,11,66,,,
116669,control_change,23,0,8,,,,,,,,,12,11,66,,,
116674,control_change,23,0,9,,,,,,,,,13,11,66,,,
116675,control_change,23,0,3,,,,,,,,,3,11,66,,,
116676,control_change,23,0,10,,,,,,,,,14,11,66,,,
116687,control_change,24,0,6,,,,,,,,,10,11,68,,,
116690,control_change,24,0,1,,,,,,,,,0,11,68,,,
116690,note_on,3,0,6,,,,,,,,,10,,,,86,0
116690,control_change,24,0,7,,,,,,,,,11,11,68,,,
116692,control_change,24,0,2,,,,,,,,,1,11,68,,,
116693,note_on,3,0,7,,,,,,,,,11,,,,74,0
116693,control_change,24,0,8,,,,,,,,,12,11,68,,,
116698,control_change,24,0,9,,,,,,,,,13,11,68,,,
116699,control_change,24,0,3,,,,,,,,,3,11,68,,,
116700,note_on,10,0,6,,,,,,,,,10,,,,86,80
116700,control_change,24,0,10,,,,,,,,,14,11,68,,,
116703,note_on,10,0,7,,,,,,,,,11,,,,74,100
116703,note_on,13,0,1,,,,,,,,,0,,,,86,0
116705,note_on,0,0,2,,,,,,,,,1,,,,74,0
116705,note_on,13,0,2,,,,,,,,,1,,,,70,0
116706,note_on,13,0,8,,,,,,,,,12,,,,70,0
116711,note_on,13,0,9,,,,,,,,,13,,,,58,0
116711,control_change,11,0,6,,,,,,,,,10,11,69,,,
116712,note_on,13,0,3,,,,,,,,,3,,,,62,0
116712,note_on,0,0,3,,,,,,,,,3,,,,58,0
116713,note_on,13,0,10,,,,,,,,,14,,,,46,0
116714,control_change,11,0,7,,,,,,,,,11,11,69,,,
116714,control_change,11,0,1,,,,,,,,,0,11,69,,,
116716,control_change,11,0,2,,,,,,,,,1,11,69,,,
116717,control_change,11,0,8,,,,,,,,,12,11,69,,,
116722,control_change,11,0,9,,,,,,,,,13,11,69,,,
116723,control_change,11,0,3,,,,,,,,,3,11,69,,,
116724,control_change,11,0,10,,,,,,,,,14,11,69,,,
116735,control_change,24,0,6,,,,,,,,,10,11,71,,,
116738,control_change,24,0,1,,,,,,,,,0,11,71,,,
116738,control_change,24,0,7,,,,,,,,,11,11,71,,,
116740,control_change,24,0,2,,,,,,,,,1,11,71,,,
116741,control_change,24,0,8,,,,,,,,,12,11,71,,,
116746,control_change,24,0,9,,,,,,,,,13,11,71,,,
116747,control_change,24,0,3,,,,,,,,,3,11,71,,,
116748,control_change,24,0,10,,,,,,,,,14,11,71,,,
116750,note_on,15,0,6,,,,,,,,,10,,,,86,0
116753,note_on,15,0,7,,,,,,,,,11,,,,74,0
116759,control_change,9,0,6,,,,,,,,,10,11,72,,,
116760,set_tempo,120,1,0,,,,,,382166,,,,,,,,
116760,note_on,1,0,6,,,,,,,,,10,,,,89,80
116762,control_change,24,0,1,,,,,,,,,0,11,72,,,
116762,control_change,9,0,7,,,,,,,,,11,11,72,,,
116763,note_on,1,0,1,,,,,,,,,0,,,,87,82
116763,note_on,1,0,7,,,,,,,,,11,,,,77,100
116764,control_change,24,0,2,,,,,,,,,1,11,72,,,
116765,control_change,24,0,8,,,,,,,,,12,11,72,,,
116765,note_on,0,0,2,,,,,,,,,1,,,,72,81
116765,note_on,1,0,2,,,,,,,,,1,,,,75,81
116766,note_on,1,0,8,,,,,,,,,12,,,,72,90
116770,control_change,24,0,9,,,,,,,,,13,11,72,,,
116771,control_change,24,0,3,,,,,,,,,3,11,72,,,
116772,control_change,24,0,10,,,,,,,,,14,11,72,,,
116772,note_on,1,0,3,,,,,,,,,3,,,,63,81
116772,note_on,0,0,3,,,,,,,,,3,,,,60,81
116783,control_change,23,0,6,,,,,,,,,10,11,73,,,
116786,control_change,23,0,1,,,,,,,,,0,11,73,,,
116786,control_change,23,0,7,,,,,,,,,11,11,73,,,
116788,control_change,23,0,2,,,,,,,,,1,11,73,,,
116789,control_change,23,0,8,,,,,,,,,12,11,73,,,
116790,note_on,7,0,6,,,,,,,,,10,,,,89,0
116790,note_on,0,0,6,,,,,,,,,10,,,,87,80
116793,note_on,0,0,7,,,,,,,,,11,,,,75,100
116793,note_on,7,0,7,,,,,,,,,11,,,,77,0
116794,control_change,24,0,9,,,,,,,,,13,11,73,,,
116795,control_change,23,0,3,,,,,,,,,3,11,73,,,
116796,control_change,24,0,10,,,,,,,,,14,11,73,,,
116807,control_change,17,0,6,,,,,,,,,10,11,75,,,
116810,control_change,24,0,1,,,,,,,,,0,11,75,,,
116810,note_on,3,0,6,,,,,,,,,10,,,,87,0
116810,control_change,17,0,7,,,,,,,,,11,11,75,,,
116812,control_change,24,0,2,,,,,,,,,1,11,75,,,
116813,note_on,3,0,7,,,,,,,,,11,,,,75,0
116813,control_change,24,0,8,,,,,,,,,12,11,75,,,
116818,control_change,24,0,9,,,,,,,,,13,11,75,,,
116819,control_change,24,0,3,,,,,,,,,3,11,75,,,
116820,control_change,24,0,10,,,,,,,,,14,11,75,,,
116820,note_on,10,0,6,,,,,,,,,10,,,,86,80
116823,note_on,13,0,1,,,,,,,,,0,,,,87,0
116823,note_on,10,0,7,,,,,,,,,11,,,,74,100
116825,note_on,13,0,2,,,,,,,,,1,,,,72,0
116825,note_on,0,0,2,,,,,,,,,1,,,,75,0
116826,note_on,13,0,8,,,,,,,,,12,,,,72,0
116831,note_on,13,0,9,,,,,,,,,13,,,,53,81
116831,control_change,11,0,6,,,,,,,,,10,11,76,,,
116832,note_on,13,0,3,,,,,,,,,3,,,,60,0
116832,note_on,0,0,3,,,,,,,,,3,,,,63,0
116833,note_on,13,0,10,,,,,,,,,14,,,,41,58
116834,control_change,11,0,1,,,,,,,,,0,11,76,,,
116834,control_change,11,0,7,,,,,,,,,11,11,76,,,
116836,control_change,11,0,2,,,,,,,,,1,11,76,,,
116837,control_change,11,0,8,,,,,,,,,12,11,76,,,
116840,note_on,9,0,6,,,,,,,,,10,,,,86,0
116842,control_change,11,0,9,,,,,,,,,13,11,76,,,
116843,note_on,9,0,7,,,,,,,,,11,,,,74,0
116843,control_change,11,0,3,,,,,,,,,3,11,76,,,
116844,control_change,11,0,10,,,,,,,,,14,11,76,,,
116850,note_on,10,0,6,,,,,,,,,10,,,,87,80
116853,note_on,10,0,7,,,,,,,,,11,,,,75,100
116855,control_change,5,0,6,,,,,,,,,10,11,77,,,
116858,control_change,24,0,1,,,,,,,,,0,11,77,,,
116858,control_change,5,0,7,,,,,,,,,11,11,77,,,
116860,control_change,24,0,2,,,,,,,,,1,11,77,,,
116861,control_change,24,0,8,,,,,,,,,12,11,77,,,
116866,control_change,24,0,9,,,,,,,,,13,11,77,,,
116867,control_change,24,0,3,,,,,,,,,3,11,77,,,
116868,control_change,24,0,10,,,,,,,,,14,11,77,,,
116870,note_on,15,0,6,,,,,,,,,10,,,,87,0
116873,note_on,15,0,7,,,,,,,,,11,,,,75,0
116879,control_change,9,0,6,,,,,,,,,10,11,79,,,
116880,set_tempo,120,1,0,,,,,,355030,,,,,,,,
116880,note_on,1,0,6,,,,,,,,,10,,,,89,100
116882,control_change,24,0,1,,,,,,,,,0,11,79,,,
116882,control_change,9,0,7,,,,,,,,,11,11,79,,,
116883,note_on,1,0,7,,,,,,,,,11,,,,77,100
116883,note_on,1,0,1,,,,,,,,,0,,,,89,82
116883,note_on,0,0,7,,,,,,,,,11,,,,74,100
116884,control_change,24,0,2,,,,,,,,,1,11,79,,,
116884,note_on,1260,0,4,,,,,,,,,4,,,,62,86
116885,note_on,1,0,2,,,,,,,,,1,,,,74,81
116885,note_on,0,0,2,,,,,,,,,1,,,,77,81
116885,control_change,24,0,8,,,,,,,,,12,11,79,,,
116886,note_on,1,0,8,,,,,,,,,12,,,,65,98
116886,note_on,1260,0,5,,,,,,,,,5,,,,58,86
116890,control_change,24,0,9,,,,,,,,,13,11,79,,,
116891,note_on,1,0,9,,,,,,,,,13,,,,53,0
116891,control_change,24,0,3,,,,,,,,,3,11,79,,,
116891,note_on,0,0,9,,,,,,,,,13,,,,53,89
116892,note_on,1,0,3,,,,,,,,,3,,,,65,81
116892,control_change,24,0,10,,,,,,,,,14,11,79,,,
116892,note_on,0,0,3,,,,,,,,,3,,,,62,81
116893,note_on,1,0,10,,,,,,,,,14,,,,41,0
116893,note_on,0,0,10,,,,,,,,,14,,,,41,73
116900,note_on,20,0,6,,,,,,,,,10,,,,89,0
116903,note_on,0,0,7,,,,,,,,,11,,,,77,0
116903,note_on,20,0,7,,,,,,,,,11,,,,74,0
116910,note_on,10,0,6,,,,,,,,,10,,,,89,92
116913,note_on,0,0,7,,,,,,,,,11,,,,74,92
116913,note_on,10,0,7,,,,,,,,,11,,,,77,92
116930,note_on,20,0,6,,,,,,,,,10,,,,89,0
116933,note_on,20,0,7,,,,,,,,,11,,,,74,0
116933,note_on,0,0,7,,,,,,,,,11,,,,77,0
116940,note_on,10,0,6,,,,,,,,,10,,,,89,100
116943,note_on,0,0,7,,,,,,,,,11,,,,74,100
116943,note_on,10,0,7,,,,,,,,,11,,,,77,100
116946,note_on,60,0,8,,,,,,,,,12,,,,65,0
116946,note_on,0,0,8,,,,,,,,,12,,,,67,98
116951,note_on,60,0,9,,,,,,,,,13,,,,53,0
116951,note_on,0,0,9,,,,,,,,,13,,,,55,89
116953,note_on,0,0,10,,,,,,,,,14,,,,43,73
116953,note_on,60,0,10,,,,,,,,,14,,,,41,0
116960,note_on,20,0,6,,,,,,,,,10,,,,89,0
116963,note_on,20,0,7,,,,,,,,,11,,,,74,0
116963,note_on,0,0,7,,,,,,,,,11,,,,77,0
116970,note_on,10,0,6,,,,,,,,,10,,,,89,92
116973,note_on,0,0,7,,,,,,,,,11,,,,74,92
116973,note_on,10,0,7,,,,,,,,,11,,,,77,92
116990,note_on,20,0,6,,,,,,,,,10,,,,89,0
116993,note_on,0,0,7,,,,,,,,,11,,,,77,0
116993,note_on,20,0,7,,,,,,,,,11,,,,74,0
116996,note_on,50,0,8,,,,,,,,,12,,,,67,0
117000,note_on,10,0,6,,,,,,,,,10,,,,89,100
117000,set_tempo,120,1,0,,,,,,382166,,,,,,,,
117001,note_on,50,0,9,,,,,,,,,13,,,,55,0
117003,note_on,50,0,10,,,,,,,,,14,,,,43,0
117003,note_on,10,0,7,,,,,,,,,11,,,,74,100
117003,note_on,0,0,7,,,,,,,,,11,,,,77,100
117006,note_on,10,0,8,,,,,,,,,12,,,,69,98
117011,note_on,10,0,9,,,,,,,,,13,,,,57,89
117013,note_on,10,0,10,,,,,,,,,14,,,,45,73
117020,note_on,20,0,6,,,,,,,,,10,,,,89,0
117023,note_on,0,0,7,,,,,,,,,11,,,,74,0
117023,note_on,20,0,7,,,,,,,,,11,,,,77,0
117030,note_on,10,0,6,,,,,,,,,10,,,,89,92
117033,note_on,0,0,7,,,,,,,,,11,,,,77,92
117033,note_on,10,0,7,,,,,,,,,11,,,,74,92
117036,note_on,30,0,8,,,,,,,,,12,,,,69,0
117041,note_on,30,0,9,,,,,,,,,13,,,,57,0
117043,note_on,30,0,10,,,,,,,,,14,,,,45,0
117050,note_on,20,0,6,,,,,,,,,10,,,,89,0
117053,note_on,0,0,7,,,,,,,,,11,,,,74,0
117053,note_on,20,0,7,,,,,,,,,11,,,,77,0
117060,note_on,10,0,6,,,,,,,,,10,,,,89,100
117063,note_on,10,0,7,,,,,,,,,11,,,,77,100
117063,note_on,0,0,7,,,,,,,,,11,,,,74,100
117066,note_on,30,0,8,,,,,,,,,12,,,,70,98
117071,note_on,30,0,9,,,,,,,,,13,,,,58,89
117073,note_on,30,0,10,,,,,,,,,14,,,,46,73
117080,note_on,20,0,6,,,,,,,,,10,,,,89,0
117083,note_on,20,0,7,,,,,,,,,11,,,,74,0
117083,note_on,0,0,7,,,,,,,,,11,,,,77,0
117090,note_on,10,0,6,,,,,,,,,10,,,,89,92
117093,note_on,0,0,7,,,,,,,,,11,,,,74,92
117093,note_on,10,0,7,,,,,,,,,11,,,,77,92
117096,note_on,30,0,8,,,,,,,,,12,,,,70,0
117101,note_on,30,0,9,,,,,,,,,13,,,,58,0
117103,note_on,30,0,10,,,,,,,,,14,,,,46,0
117110,note_on,20,0,6,,,,,,,,,10,,,,89,0
117113,note_on,20,0,7,,,,,,,,,11,,,,74,0
117113,note_on,0,0,7,,,,,,,,,11,,,,77,0
117120,set_tempo,120,1,0,,,,,,355030,,,,,,,,
117120,note_on,10,0,6,,,,,,,,,10,,,,89,100
117123,note_on,0,0,7,,,,,,,,,11,,,,75,100
117123,note_on,10,0,7,,,,,,,,,11,,,,77,100
117124,note_on,240,0,4,,,,,,,,,4,,,,62,0
117124,note_on,0,0,4,,,,,,,,,4,,,,63,86
117125,note_on,0,0,2,,,,,,,,,1,,,,75,81
117125,note_on,240,0,2,,,,,,,,,1,,,,74,0
117126,note_on,0,0,5,,,,,,,,,5,,,,60,86
117126,note_on,240,0,5,,,,,,,,,5,,,,58,0
117126,note_on,30,0,8,,,,,,,,,12,,,,70,98
117131,note_on,30,0,9,,,,,,,,,13,,,,58,89
117132,note_on,240,0,3,,,,,,,,,3,,,,62,0
117132,note_on,0,0,3,,,,,,,,,3,,,,63,81
117133,note_on,30,0,10,,,,,,,,,14,,,,46,73
117140,note_on,20,0,6,,,,,,,,,10,,,,89,0
117143,note_on,0,0,7,,,,,,,,,11,,,,77,0
117143,note_on,20,0,7,,,,,,,,,11,,,,75,0
117150,note_on,10,0,6,,,,,,,,,10,,,,89,92
117153,note_on,10,0,7,,,,,,,,,11,,,,77,92
117153,note_on,0,0,7,,,,,,,,,11,,,,75,92
117170,note_on,20,0,6,,,,,,,,,10,,,,89,0
117173,note_on,0,0,7,,,,,,,,,11,,,,77,0
117173,note_on,20,0,7,,,,,,,,,11,,,,75,0
117180,note_on,10,0,6,,,,,,,,,10,,,,89,100
117183,note_on,10,0,7,,,,,,,,,11,,,,77,100
117183,note_on,0,0,7,,,,,,,,,11,,,,75,100
117186,note_on,0,0,8,,,,,,,,,12,,,,69,98
117186,note_on,60,0,8,,,,,,,,,12,,,,70,0
117191,note_on,60,0,9,,,,,,,,,13,,,,58,0
117191,note_on,0,0,9,,,,,,,,,13,,,,57,89
117193,note_on,60,0,10,,,,,,,,,14,,,,46,0
117193,note_on,0,0,10,,,,,,,,,14,,,,45,73
117200,note_on,20,0,6,,,,,,,,,10,,,,89,0
117203,note_on,0,0,7,,,,,,,,,11,,,,77,0
117203,note_on,20,0,7,,,,,,,,,11,,,,75,0
117210,note_on,10,0,6,,,,,,,,,10,,,,89,92
117213,note_on,10,0,7,,,,,,,,,11,,,,75,92
117213,note_on,0,0,7,,,,,,,,,11,,,,77,92
117230,note_on,20,0,6,,,,,,,,,10,,,,89,0
117233,note_on,20,0,7,,,,,,,,,11,,,,77,0
117233,note_on,0,0,7,,,,,,,,,11,,,,75,0
117236,note_on,50,0,8,,,,,,,,,12,,,,69,0
117240,note_on,10,0,6,,,,,,,,,10,,,,89,100
117240,set_tempo,120,1,0,,,,,,382166,,,,,,,,
117241,note_on,50,0,9,,,,,,,,,13,,,,57,0
117243,note_on,10,0,7,,,,,,,,,11,,,,75,100
117243,note_on,0,0,7,,,,,,,,,11,,,,77,100
117243,note_on,50,0,10,,,,,,,,,14,,,,45,0
117246,note_on,10,0,8,,,,,,,,,12,,,,67,98
117251,note_on,10,0,9,,,,,,,,,13,,,,55,89
117253,note_on,10,0,10,,,,,,,,,14,,,,43,73
117260,note_on,20,0,6,,,,,,,,,10,,,,89,0
117263,note_on,20,0,7,,,,,,,,,11,,,,77,0
117263,note_on,0,0,7,,,,,,,,,11,,,,75,0
117270,note_on,10,0,6,,,,,,,,,10,,,,89,92
117273,note_on,10,0,7,,,,,,,,,11,,,,75,92
117273,note_on,0,0,7,,,,,,,,,11,,,,77,92
117276,note_on,30,0,8,,,,,,,,,12,,,,67,0
117281,note_on,30,0,9,,,,,,,,,13,,,,55,0
117283,note_on,30,0,10,,,,,,,,,14,,,,43,0
117290,note_on,20,0,6,,,,,,,,,10,,,,89,0
117293,note_on,20,0,7,,,,,,,,,11,,,,77,0
117293,note_on,0,0,7,,,,,,,,,11,,,,75,0
117300,note_on,10,0,6,,,,,,,,,10,,,,89,100
117303,note_on,0,0,7,,,,,,,,,11,,,,75,100
117303,note_on,10,0,7,,,,,,,,,11,,,,77,100
117306,note_on,30,0,8,,,,,,,,,12,,,,65,98
117311,note_on,30,0,9,,,,,,,,,13,,,,53,89
117313,note_on,30,0,10,,,,,,,,,14,,,,41,73
117320,note_on,20,0,6,,,,,,,,,10,,,,89,0
117323,note_on,20,0,7,,,,,,,,,11,,,,75,0
117323,note_on,0,0,7,,,,,,,,,11,,,,77,0
117330,note_on,10,0,6,,,,,,,,,10,,,,89,92
117333,note_on,10,0,7,,,,,,,,,11,,,,75,92
117333,note_on,0,0,7,,,,,,,,,11,,,,77,92
117336,note_on,30,0,8,,,,,,,,,12,,,,65,0
117341,note_on,30,0,9,,,,,,,,,13,,,,53,0
117343,note_on,30,0,10,,,,,,,,,14,,,,41,0
117350,note_on,20,0,6,,,,,,,,,10,,,,89,0
117353,note_on,20,0,7,,,,,,,,,11,,,,77,0
117353,note_on,0,0,7,,,,,,,,,11,,,,75,0
117360,note_on,10,0,6,,,,,,,,,10,,,,89,100
117360,set_tempo,120,1,0,,,,,,355030,,,,,,,,
117363,note_on,10,0,7,,,,,,,,,11,,,,74,100
117363,note_on,0,0,7,,,,,,,,,11,,,,77,100
117364,note_on,240,0,4,,,,,,,,,4,,,,63,0
117364,note_on,0,0,4,,,,,,,,,4,,,,62,86
117365,note_on,240,0,2,,,,,,,,,1,,,,75,0
117365,note_on,0,0,2,,,,,,,,,1,,,,77,0
117365,note_on,0,0,2,,,,,,,,,1,,,,77,81
117365,note_on,0,0,2,,,,,,,,,1,,,,74,81
117366,note_on,30,0,8,,,,,,,,,12,,,,65,98
117366,note_on,240,0,5,,,,,,,,,5,,,,60,0
117366,note_on,0,0,5,,,,,,,,,5,,,,58,86
117371,note_on,30,0,9,,,,,,,,,13,,,,53,89
117372,note_on,0,0,3,,,,,,,,,3,,,,65,81
117372,note_on,0,0,3,,,,,,,,,3,,,,65,0
117372,note_on,240,0,3,,,,,,,,,3,,,,63,0
117372,note_on,0,0,3,,,,,,,,,3,,,,62,81
117373,note_on,30,0,10,,,,,,,,,14,,,,41,73
117380,note_on,20,0,6,,,,,,,,,10,,,,89,0
117383,note_on,0,0,7,,,,,,,,,11,,,,74,0
117383,note_on,20,0,7,,,,,,,,,11,,,,77,0
117390,note_on,10,0,6,,,,,,,,,10,,,,89,92
117393,note_on,0,0,7,,,,,,,,,11,,,,77,92
117393,note_on,10,0,7,,,,,,,,,11,,,,74,92
117410,note_on,20,0,6,,,,,,,,,10,,,,89,0
117413,note_on,0,0,7,,,,,,,,,11,,,,74,0
117413,note_on,20,0,7,,,,,,,,,11,,,,77,0
117420,note_on,10,0,6,,,,,,,,,10,,,,89,100
117423,note_on,0,0,7,,,,,,,,,11,,,,77,100
117423,note_on,10,0,7,,,,,,,,,11,,,,74,100
117426,note_on,0,0,8,,,,,,,,,12,,,,67,98
117426,note_on,60,0,8,,,,,,,,,12,,,,65,0
117431,note_on,0,0,9,,,,,,,,,13,,,,55,89
117431,note_on,60,0,9,,,,,,,,,13,,,,53,0
117433,note_on,60,0,10,,,,,,,,,14,,,,41,0
117433,note_on,0,0,10,,,,,,,,,14,,,,43,73
117440,note_on,20,0,6,,,,,,,,,10,,,,89,0
117443,note_on,0,0,7,,,,,,,,,11,,,,74,0
117443,note_on,20,0,7,,,,,,,,,11,,,,77,0
117450,note_on,10,0,6,,,,,,,,,10,,,,89,92
117453,note_on,0,0,7,,,,,,,,,11,,,,74,92
117453,note_on,10,0,7,,,,,,,,,11,,,,77,92
117470,note_on,20,0,6,,,,,,,,,10,,,,89,0
117473,note_on,20,0,7,,,,,,,,,11,,,,74,0
117473,note_on,0,0,7,,,,,,,,,11,,,,77,0
117476,note_on,50,0,8,,,,,,,,,12,,,,67,0
117480,note_on,10,0,6,,,,,,,,,10,,,,89,100
117480,set_tempo,120,1,0,,,,,,382166,,,,,,,,
117481,note_on,50,0,9,,,,,,,,,13,,,,55,0
117483,note_on,50,0,10,,,,,,,,,14,,,,43,0
117483,note_on,10,0,7,,,,,,,,,11,,,,74,100
117483,note_on,0,0,7,,,,,,,,,11,,,,77,100
117486,note_on,10,0,8,,,,,,,,,12,,,,69,98
117491,note_on,10,0,9,,,,,,,,,13,,,,57,89
117493,note_on,10,0,10,,,,,,,,,14,,,,45,73
117500,note_on,20,0,6,,,,,,,,,10,,,,89,0
117503,note_on,0,0,7,,,,,,,,,11,,,,74,0
117503,note_on,20,0,7,,,,,,,,,11,,,,77,0
117510,note_on,10,0,6,,,,,,,,,10,,,,89,92
117513,note_on,0,0,7,,,,,,,,,11,,,,77,92
117513,note_on,10,0,7,,,,,,,,,11,,,,74,92
117516,note_on,30,0,8,,,,,,,,,12,,,,69,0
117521,note_on,30,0,9,,,,,,,,,13,,,,57,0
117523,note_on,30,0,10,,,,,,,,,14,,,,45,0
117530,note_on,20,0,6,,,,,,,,,10,,,,89,0
117533,note_on,20,0,7,,,,,,,,,11,,,,77,0
117533,note_on,0,0,7,,,,,,,,,11,,,,74,0
117540,note_on,10,0,6,,,,,,,,,10,,,,89,100
117543,note_on,10,0,7,,,,,,,,,11,,,,77,100
117543,note_on,0,0,7,,,,,,,,,11,,,,74,100
117546,note_on,30,0,8,,,,,,,,,12,,,,70,98
117551,note_on,30,0,9,,,,,,,,,13,,,,58,89
117553,note_on,30,0,10,,,,,,,,,14,,,,46,73
117560,note_on,20,0,6,,,,,,,,,10,,,,89,0
117563,note_on,20,0,7,,,,,,,,,11,,,,74,0
117563,note_on,0,0,7,,,,,,,,,11,,,,77,0
117570,note_on,10,0,6,,,,,,,,,10,,,,89,92
117573,note_on,0,0,7,,,,,,,,,11,,,,74,92
117573,note_on,10,0,7,,,,,,,,,11,,,,77,92
117576,note_on,30,0,8,,,,,,,,,12,,,,70,0
117581,note_on,30,0,9,,,,,,,,,13,,,,58,0
117583,note_on,30,0,10,,,,,,,,,14,,,,46,0
117590,note_on,20,0,6,,,,,,,,,10,,,,89,0
117593,note_on,20,0,7,,,,,,,,,11,,,,74,0
117593,note_on,0,0,7,,,,,,,,,11,,,,77,0
117600,note_on,10,0,6,,,,,,,,,10,,,,89,100
117600,set_tempo,120,1,0,,,,,,355030,,,,,,,,
117603,note_on,10,0,7,,,,,,,,,11,,,,77,100
117603,note_on,0,0,7,,,,,,,,,11,,,,75,100
117604,note_on,0,0,4,,,,,,,,,4,,,,63,86
117604,note_on,240,0,4,,,,,,,,,4,,,,62,0
117605,note_on,240,0,2,,,,,,,,,1,,,,74,0
117605,note_on,0,0,2,,,,,,,,,1,,,,75,81
117606,note_on,0,0,5,,,,,,,,,5,,,,60,86
117606,note_on,30,0,8,,,,,,,,,12,,,,70,98
117606,note_on,240,0,5,,,,,,,,,5,,,,58,0
117611,note_on,30,0,9,,,,,,,,,13,,,,58,89
117612,note_on,0,0,3,,,,,,,,,3,,,,63,81
117612,note_on,240,0,3,,,,,,,,,3,,,,62,0
117613,note_on,30,0,10,,,,,,,,,14,,,,46,73
117620,note_on,20,0,6,,,,,,,,,10,,,,89,0
117623,note_on,20,0,7,,,,,,,,,11,,,,75,0
117623,note_on,0,0,7,,,,,,,,,11,,,,77,0
117630,note_on,10,0,6,,,,,,,,,10,,,,89,92
117633,note_on,0,0,7,,,,,,,,,11,,,,75,92
117633,note_on,10,0,7,,,,,,,,,11,,,,77,92
117650,note_on,20,0,6,,,,,,,,,10,,,,89,0
117653,note_on,0,0,7,,,,,,,,,11,,,,77,0
117653,note_on,20,0,7,,,,,,,,,11,,,,75,0
117660,note_on,10,0,6,,,,,,,,,10,,,,89,100
117663,note_on,0,0,7,,,,,,,,,11,,,,75,100
117663,note_on,10,0,7,,,,,,,,,11,,,,77,100
117666,note_on,60,0,8,,,,,,,,,12,,,,70,0
117666,note_on,0,0,8,,,,,,,,,12,,,,69,98
117671,note_on,0,0,9,,,,,,,,,13,,,,57,89
117671,note_on,60,0,9,,,,,,,,,13,,,,58,0
117673,note_on,0,0,10,,,,,,,,,14,,,,45,73
117673,note_on,60,0,10,,,,,,,,,14,,,,46,0
117680,note_on,20,0,6,,,,,,,,,10,,,,89,0
117683,note_on,20,0,7,,,,,,,,,11,,,,75,0
117683,note_on,0,0,7,,,,,,,,,11,,,,77,0
117690,note_on,10,0,6,,,,,,,,,10,,,,89,92
117693,note_on,10,0,7,,,,,,,,,11,,,,75,92
117693,note_on,0,0,7,,,,,,,,,11,,,,77,92
117710,note_on,20,0,6,,,,,,,,,10,,,,89,0
117713,note_on,20,0,7,,,,,,,,,11,,,,77,0
117713,note_on,0,0,7,,,,,,,,,11,,,,75,0
117716,note_on,50,0,8,,,,,,,,,12,,,,69,0
117720,set_tempo,120,1,0,,,,,,382166,,,,,,,,
117720,note_on,10,0,6,,,,,,,,,10,,,,89,100
117721,note_on,50,0,9,,,,,,,,,13,,,,57,0
117723,note_on,0,0,7,,,,,,,,,11,,,,77,100
117723,note_on,10,0,7,,,,,,,,,11,,,,75,100
117723,note_on,50,0,10,,,,,,,,,14,,,,45,0
117726,note_on,10,0,8,,,,,,,,,12,,,,67,98
117731,note_on,10,0,9,,,,,,,,,13,,,,55,89
117733,note_on,10,0,10,,,,,,,,,14,,,,43,73
117740,note_on,20,0,6,,,,,,,,,10,,,,89,0
117743,note_on,0,0,7,,,,,,,,,11,,,,75,0
117743,note_on,20,0,7,,,,,,,,,11,,,,77,0
117750,note_on,10,0,6,,,,,,,,,10,,,,89,92
117753,note_on,10,0,7,,,,,,,,,11,,,,75,92
117753,note_on,0,0,7,,,,,,,,,11,,,,77,92
117756,note_on,30,0,8,,,,,,,,,12,,,,67,0
117761,note_on,30,0,9,,,,,,,,,13,,,,55,0
117763,note_on,30,0,10,,,,,,,,,14,,,,43,0
117770,note_on,20,0,6,,,,,,,,,10,,,,89,0
117773,note_on,0,0,7,,,,,,,,,11,,,,75,0
117773,note_on,20,0,7,,,,,,,,,11,,,,77,0
117780,note_on,10,0,6,,,,,,,,,10,,,,89,100
117783,note_on,0,0,7,,,,,,,,,11,,,,77,100
117783,note_on,10,0,7,,,,,,,,,11,,,,75,100
117786,note_on,30,0,8,,,,,,,,,12,,,,65,98
117791,note_on,30,0,9,,,,,,,,,13,,,,53,89
117793,note_on,30,0,10,,,,,,,,,14,,,,41,73
117800,note_on,20,0,6,,,,,,,,,10,,,,89,0
117803,note_on,20,0,7,,,,,,,,,11,,,,77,0
117803,note_on,0,0,7,,,,,,,,,11,,,,75,0
117810,note_on,10,0,6,,,,,,,,,10,,,,89,92
117813,note_on,10,0,7,,,,,,,,,11,,,,75,92
117813,note_on,0,0,7,,,,,,,,,11,,,,77,92
117816,note_on,30,0,8,,,,,,,,,12,,,,65,0
117821,note_on,30,0,9,,,,,,,,,13,,,,53,0
117823,note_on,30,0,10,,,,,,,,,14,,,,41,0
117830,note_on,20,0,6,,,,,,,,,10,,,,89,0
117833,note_on,0,0,7,,,,,,,,,11,,,,75,0
117833,note_on,20,0,7,,,,,,,,,11,,,,77,0
117840,note_on,10,0,6,,,,,,,,,10,,,,77,100
117840,set_tempo,120,1,0,,,,,,355030,,,,,,,,
117843,note_on,960,0,1,,,,,,,,,0,,,,89,0
117843,note_on,0,0,1,,,,,,,,,0,,,,89,82
117843,note_on,10,0,7,,,,,,,,,11,,,,74,100
117844,note_on,240,0,4,,,,,,,,,4,,,,63,0
117844,note_on,0,0,4,,,,,,,,,4,,,,62,86
117845,note_on,0,0,2,,,,,,,,,1,,,,77,81
117845,note_on,0,0,2,,,,,,,,,1,,,,74,81
117845,note_on,0,0,2,,,,,,,,,1,,,,77,0
117845,note_on,240,0,2,,,,,,,,,1,,,,75,0
117846,note_on,240,0,5,,,,,,,,,5,,,,60,0
117846,note_on,0,0,5,,,,,,,,,5,,,,62,86
117846,note_on,30,0,8,,,,,,,,,12,,,,70,98
117851,note_on,30,0,9,,,,,,,,,13,,,,58,89
117852,note_on,0,0,3,,,,,,,,,3,,,,58,81
117852,note_on,0,0,3,,,,,,,,,3,,,,65,0
117852,note_on,240,0,3,,,,,,,,,3,,,,63,0
117853,note_on,30,0,10,,,,,,,,,14,,,,46,73
117890,note_on,50,0,6,,,,,,,,,10,,,,77,0
117893,note_on,50,0,1,,,,,,,,,0,,,,89,0
117893,note_on,50,0,7,,,,,,,,,11,,,,74,0
117895,note_on,50,0,2,,,,,,,,,1,,,,77,0
117895,note_on,0,0,2,,,,,,,,,1,,,,74,0
117896,note_on,50,0,8,,,,,,,,,12,,,,70,0
117900,note_on,10,0,6,,,,,,,,,10,,,,77,100
117901,note_on,50,0,9,,,,,,,,,13,,,,58,0
117902,note_on,50,0,3,,,,,,,,,3,,,,58,0
117903,note_on,10,0,7,,,,,,,,,11,,,,74,100
117903,note_on,10,0,1,,,,,,,,,0,,,,89,82
117903,note_on,50,0,10,,,,,,,,,14,,,,46,0
117904,note_on,60,0,4,,,,,,,,,4,,,,62,0
117904,note_on,0,0,4,,,,,,,,,4,,,,62,86
117905,note_on,10,0,2,,,,,,,,,1,,,,74,81
117905,note_on,0,0,2,,,,,,,,,1,,,,77,81
117906,note_on,0,0,5,,,,,,,,,5,,,,62,86
117906,note_on,60,0,5,,,,,,,,,5,,,,62,0
117906,note_on,10,0,8,,,,,,,,,12,,,,70,98
117911,note_on,10,0,9,,,,,,,,,13,,,,58,89
117912,note_on,10,0,3,,,,,,,,,3,,,,58,81
117913,note_on,10,0,10,,,,,,,,,14,,,,46,73
117950,note_on,50,0,6,,,,,,,,,10,,,,77,0
117953,note_on,50,0,7,,,,,,,,,11,,,,74,0
117953,note_on,50,0,1,,,,,,,,,0,,,,89,0
117955,note_on,0,0,2,,,,,,,,,1,,,,74,0
117955,note_on,50,0,2,,,,,,,,,1,,,,77,0
117956,note_on,50,0,8,,,,,,,,,12,,,,70,0
117960,set_tempo,120,1,0,,,,,,382166,,,,,,,,
117960,note_on,10,0,6,,,,,,,,,10,,,,79,115
117961,note_on,50,0,9,,,,,,,,,13,,,,58,0
117962,note_on,50,0,3,,,,,,,,,3,,,,58,0
117963,note_on,10,0,7,,,,,,,,,11,,,,72,115
117963,note_on,50,0,10,,,,,,,,,14,,,,46,0
117963,note_on,10,0,1,,,,,,,,,0,,,,91,95
117964,note_on,0,0,4,,,,,,,,,4,,,,60,99
117964,note_on,60,0,4,,,,,,,,,4,,,,62,0
117965,note_on,0,0,2,,,,,,,,,1,,,,79,94
117965,note_on,10,0,2,,,,,,,,,1,,,,72,94
117966,note_on,10,0,8,,,,,,,,,12,,,,68,113
117966,note_on,0,0,5,,,,,,,,,5,,,,60,99
117966,note_on,60,0,5,,,,,,,,,5,,,,62,0
117971,note_on,10,0,9,,,,,,,,,13,,,,56,104
117972,note_on,10,0,3,,,,,,,,,3,,,,56,94
117973,note_on,10,0,10,,,,,,,,,14,,,,44,86
117990,note_on,30,0,6,,,,,,,,,10,,,,79,0
117990,note_on,0,0,6,,,,,,,,,10,,,,78,100
117993,note_on,30,0,1,,,,,,,,,0,,,,91,0
117993,note_on,0,0,1,,,,,,,,,0,,,,90,82
117995,note_on,30,0,2,,,,,,,,,1,,,,79,0
117995,note_on,0,0,2,,,,,,,,,1,,,,78,81
118010,note_on,20,0,6,,,,,,,,,10,,,,78,0
118013,note_on,20,0,1,,,,,,,,,0,,,,90,0
118015,note_on,20,0,2,,,,,,,,,1,,,,78,0
118020,note_on,10,0,6,,,,,,,,,10,,,,76,100
118023,note_on,10,0,1,,,,,,,,,0,,,,88,82
118025,note_on,10,0,2,,,,,,,,,1,,,,76,81
118040,note_on,20,0,6,,,,,,,,,10,,,,76,0
118043,note_on,20,0,1,,,,,,,,,0,,,,88,0
118045,note_on,20,0,2,,,,,,,,,1,,,,76,0
118050,note_on,10,0,6,,,,,,,,,10,,,,78,100
118053,note_on,10,0,1,,,,,,,,,0,,,,90,82
118055,note_on,10,0,2,,,,,,,,,1,,,,78,81
118070,note_on,20,0,6,,,,,,,,,10,,,,78,0
118073,note_on,20,0,1,,,,,,,,,0,,,,90,0
118073,note_on,110,0,7,,,,,,,,,11,,,,72,0
118075,note_on,0,0,2,,,,,,,,,1,,,,72,0
118075,note_on,20,0,2,,,,,,,,,1,,,,78,0
118076,note_on,110,0,8,,,,,,,,,12,,,,68,0
118080,note_on,10,0,6,,,,,,,,,10,,,,79,100
118080,set_tempo,120,1,0,,,,,,355030,,,,,,,,
118081,note_on,110,0,9,,,,,,,,,13,,,,56,0
118082,note_on,110,0,3,,,,,,,,,3,,,,56,0
118083,note_on,10,0,7,,,,,,,,,11,,,,71,100
118083,note_on,10,0,1,,,,,,,,,0,,,,91,82
118083,note_on,110,0,10,,,,,,,,,14,,,,44,0
118084,note_on,120,0,4,,,,,,,,,4,,,,60,0
118084,note_on,0,0,4,,,,,,,,,4,,,,62,86
118085,note_on,10,0,2,,,,,,,,,1,,,,71,81
118085,note_on,0,0,2,,,,,,,,,1,,,,79,81
118086,note_on,120,0,5,,,,,,,,,5,,,,60,0
118086,note_on,10,0,8,,,,,,,,,12,,,,67,98
118086,note_on,0,0,5,,,,,,,,,5,,,,62,86
118091,note_on,10,0,9,,,,,,,,,13,,,,55,89
118092,note_on,10,0,3,,,,,,,,,3,,,,55,81
118093,note_on,10,0,10,,,,,,,,,14,,,,43,73
118110,note_on,30,0,6,,,,,,,,,10,,,,79,0
118113,note_on,30,0,1,,,,,,,,,0,,,,91,0
118113,note_on,30,0,7,,,,,,,,,11,,,,71,0
118115,note_on,0,0,2,,,,,,,,,1,,,,71,0
118115,note_on,30,0,2,,,,,,,,,1,,,,79,0
118116,note_on,30,0,8,,,,,,,,,12,,,,67,0
118120,note_on,36,0,4,,,,,,,,,4,,,,62,0
118121,note_on,30,0,9,,,,,,,,,13,,,,55,0
118122,note_on,30,0,3,,,,,,,,,3,,,,55,0
118122,note_on,36,0,5,,,,,,,,,5,,,,62,0
118123,note_on,30,0,10,,,,,,,,,14,,,,43,0
118140,note_on,30,0,6,,,,,,,,,10,,,,79,100
118143,note_on,30,0,1,,,,,,,,,0,,,,91,82
118143,note_on,30,0,7,,,,,,,,,11,,,,71,100
118144,note_on,24,0,4,,,,,,,,,4,,,,62,86
118145,note_on,0,0,2,,,,,,,,,1,,,,79,81
118145,note_on,30,0,2,,,,,,,,,1,,,,71,81
118146,note_on,24,0,5,,,,,,,,,5,,,,62,86
118146,note_on,30,0,8,,,,,,,,,12,,,,67,98
118151,note_on,30,0,9,,,,,,,,,13,,,,55,89
118152,note_on,30,0,3,,,,,,,,,3,,,,55,81
118153,note_on,30,0,10,,,,,,,,,14,,,,43,73
118170,note_on,30,0,6,,,,,,,,,10,,,,79,0
118173,note_on,30,0,1,,,,,,,,,0,,,,91,0
118173,note_on,30,0,7,,,,,,,,,11,,,,71,0
118175,note_on,30,0,2,,,,,,,,,1,,,,79,0
118175,note_on,0,0,2,,,,,,,,,1,,,,71,0
118176,note_on,30,0,8,,,,,,,,,12,,,,67,0
118180,note_on,36,0,4,,,,,,,,,4,,,,62,0
118181,note_on,30,0,9,,,,,,,,,13,,,,55,0
118182,note_on,30,0,3,,,,,,,,,3,,,,55,0
118182,note_on,36,0,5,,,,,,,,,5,,,,62,0
118183,note_on,30,0,10,,,,,,,,,14,,,,43,0
118200,set_tempo,120,1,0,,,,,,382166,,,,,,,,
118200,note_on,30,0,6,,,,,,,,,10,,,,76,100
118203,note_on,30,0,7,,,,,,,,,11,,,,70,100
118203,note_on,30,0,1,,,,,,,,,0,,,,88,82
118204,note_on,24,0,4,,,,,,,,,4,,,,60,86
118205,note_on,0,0,2,,,,,,,,,1,,,,70,81
118205,note_on,30,0,2,,,,,,,,,1,,,,76,81
118206,note_on,30,0,8,,,,,,,,,12,,,,60,98
118206,note_on,24,0,5,,,,,,,,,5,,,,60,86
118211,note_on,30,0,9,,,,,,,,,13,,,,60,89
118212,note_on,30,0,3,,,,,,,,,3,,,,60,81
118213,note_on,30,0,10,,,,,,,,,14,,,,48,73
118230,note_on,30,0,6,,,,,,,,,10,,,,76,0
118233,note_on,30,0,1,,,,,,,,,0,,,,88,0
118233,note_on,30,0,7,,,,,,,,,11,,,,70,0
118235,note_on,30,0,2,,,,,,,,,1,,,,70,0
118235,note_on,0,0,2,,,,,,,,,1,,,,76,0
118236,note_on,30,0,8,,,,,,,,,12,,,,60,0
118240,note_on,36,0,4,,,,,,,,,4,,,,60,0
118241,note_on,30,0,9,,,,,,,,,13,,,,60,0
118242,note_on,30,0,3,,,,,,,,,3,,,,60,0
118242,note_on,36,0,5,,,,,,,,,5,,,,60,0
118243,note_on,30,0,10,,,,,,,,,14,,,,48,0
118260,note_on,30,0,6,,,,,,,,,10,,,,76,100
118263,note_on,30,0,1,,,,,,,,,0,,,,88,82
118263,note_on,30,0,7,,,,,,,,,11,,,,70,100
118264,note_on,24,0,4,,,,,,,,,4,,,,60,86
118265,note_on,0,0,2,,,,,,,,,1,,,,76,81
118265,note_on,30,0,2,,,,,,,,,1,,,,70,81
118266,note_on,30,0,8,,,,,,,,,12,,,,60,98
118266,note_on,24,0,5,,,,,,,,,5,,,,60,86
118271,note_on,30,0,9,,,,,,,,,13,,,,60,89
118272,note_on,30,0,3,,,,,,,,,3,,,,60,81
118273,note_on,30,0,10,,,,,,,,,14,,,,48,73
118290,note_on,30,0,6,,,,,,,,,10,,,,76,0
118293,note_on,30,0,7,,,,,,,,,11,,,,70,0
118293,note_on,30,0,1,,,,,,,,,0,,,,88,0
118295,note_on,30,0,2,,,,,,,,,1,,,,76,0
118295,note_on,0,0,2,,,,,,,,,1,,,,70,0
118296,note_on,30,0,8,,,,,,,,,12,,,,60,0
118300,note_on,36,0,4,,,,,,,,,4,,,,60,0
118301,note_on,30,0,9,,,,,,,,,13,,,,60,0
118302,note_on,36,0,5,,,,,,,,,5,,,,60,0
118302,note_on,30,0,3,,,,,,,,,3,,,,60,0
118303,note_on,30,0,10,,,,,,,,,14,,,,48,0
118320,set_tempo,120,1,0,,,,,,360360,,,,,,,,
118320,note_on,30,0,6,,,,,,,,,10,,,,77,100
118323,note_on,30,0,7,,,,,,,,,11,,,,69,100
118323,note_on,30,0,1,,,,,,,,,0,,,,89,82
118324,note_on,24,0,4,,,,,,,,,4,,,,60,86
118325,note_on,0,0,2,,,,,,,,,1,,,,77,81
118325,note_on,30,0,2,,,,,,,,,1,,,,69,81
118326,note_on,30,0,8,,,,,,,,,12,,,,65,98
118326,note_on,24,0,5,,,,,,,,,5,,,,53,86
118331,note_on,30,0,9,,,,,,,,,13,,,,53,89
118332,note_on,30,0,3,,,,,,,,,3,,,,53,81
118333,note_on,30,0,10,,,,,,,,,14,,,,41,73
118350,note_on,30,0,6,,,,,,,,,10,,,,77,0
118353,note_on,30,0,1,,,,,,,,,0,,,,89,0
118353,note_on,30,0,7,,,,,,,,,11,,,,69,0
118355,note_on,0,0,2,,,,,,,,,1,,,,69,0
118355,note_on,30,0,2,,,,,,,,,1,,,,77,0
118356,note_on,30,0,8,,,,,,,,,12,,,,65,0
118360,note_on,36,0,4,,,,,,,,,4,,,,60,0
118361,note_on,30,0,9,,,,,,,,,13,,,,53,0
118362,note_on,30,0,3,,,,,,,,,3,,,,53,0
118362,note_on,36,0,5,,,,,,,,,5,,,,53,0
118363,note_on,30,0,10,,,,,,,,,14,,,,41,0
118380,note_on,30,0,6,,,,,,,,,10,,,,77,100
118383,note_on,30,0,7,,,,,,,,,11,,,,69,100
118383,note_on,30,0,1,,,,,,,,,0,,,,89,82
118384,note_on,24,0,4,,,,,,,,,4,,,,60,86
118385,note_on,0,0,2,,,,,,,,,1,,,,77,81
118385,note_on,30,0,2,,,,,,,,,1,,,,69,81
118386,note_on,30,0,8,,,,,,,,,12,,,,65,98
118386,note_on,24,0,5,,,,,,,,,5,,,,53,86
118391,note_on,30,0,9,,,,,,,,,13,,,,53,89
118392,note_on,30,0,3,,,,,,,,,3,,,,53,81
118393,note_on,30,0,10,,,,,,,,,14,,,,41,73
118410,note_on,30,0,6,,,,,,,,,10,,,,77,0
118413,note_on,30,0,1,,,,,,,,,0,,,,89,0
118413,note_on,30,0,7,,,,,,,,,11,,,,69,0
118415,note_on,30,0,2,,,,,,,,,1,,,,77,0
118415,note_on,0,0,2,,,,,,,,,1,,,,69,0
118416,note_on,30,0,8,,,,,,,,,12,,,,65,0
118420,note_on,36,0,4,,,,,,,,,4,,,,60,0
118421,note_on,30,0,9,,,,,,,,,13,,,,53,0
118422,note_on,30,0,3,,,,,,,,,3,,,,53,0
118422,note_on,36,0,5,,,,,,,,,5,,,,53,0
118423,note_on,30,0,10,,,,,,,,,14,,,,41,0
118440,note_on,30,0,6,,,,,,,,,10,,,,74,100
118440,set_tempo,120,1,0,,,,,,380952,,,,,,,,
118443,note_on,30,0,1,,,,,,,,,0,,,,86,82
118443,note_on,30,0,7,,,,,,,,,11,,,,68,100
118444,note_on,24,0,4,,,,,,,,,4,,,,58,86
118445,note_on,30,0,2,,,,,,,,,1,,,,74,81
118445,note_on,0,0,2,,,,,,,,,1,,,,68,81
118446,note_on,30,0,8,,,,,,,,,12,,,,58,98
118446,note_on,24,0,5,,,,,,,,,5,,,,58,86
118451,note_on,30,0,9,,,,,,,,,13,,,,58,89
118452,note_on,30,0,3,,,,,,,,,3,,,,58,81
118453,note_on,30,0,10,,,,,,,,,14,,,,46,73
118470,note_on,30,0,6,,,,,,,,,10,,,,74,0
118473,note_on,30,0,7,,,,,,,,,11,,,,68,0
118473,note_on,30,0,1,,,,,,,,,0,,,,86,0
118475,note_on,30,0,2,,,,,,,,,1,,,,68,0
118475,note_on,0,0,2,,,,,,,,,1,,,,74,0
118476,note_on,30,0,8,,,,,,,,,12,,,,58,0
118480,note_on,36,0,4,,,,,,,,,4,,,,58,0
118481,note_on,30,0,9,,,,,,,,,13,,,,58,0
118482,note_on,30,0,3,,,,,,,,,3,,,,58,0
118482,note_on,36,0,5,,,,,,,,,5,,,,58,0
118483,note_on,30,0,10,,,,,,,,,14,,,,46,0
118500,note_on,30,0,6,,,,,,,,,10,,,,74,100
118503,note_on,30,0,7,,,,,,,,,11,,,,68,100
118503,note_on,30,0,1,,,,,,,,,0,,,,86,82
118504,note_on,24,0,4,,,,,,,,,4,,,,58,86
118505,note_on,0,0,2,,,,,,,,,1,,,,74,81
118505,note_on,30,0,2,,,,,,,,,1,,,,68,81
118506,note_on,30,0,8,,,,,,,,,12,,,,58,98
118506,note_on,24,0,5,,,,,,,,,5,,,,58,86
118511,note_on,30,0,9,,,,,,,,,13,,,,58,89
118512,note_on,30,0,3,,,,,,,,,3,,,,58,81
118513,note_on,30,0,10,,,,,,,,,14,,,,46,73
118530,note_on,30,0,6,,,,,,,,,10,,,,74,0
118533,note_on,30,0,1,,,,,,,,,0,,,,86,0
118533,note_on,30,0,7,,,,,,,,,11,,,,68,0
118535,note_on,30,0,2,,,,,,,,,1,,,,74,0
118535,note_on,0,0,2,,,,,,,,,1,,,,68,0
118536,note_on,30,0,8,,,,,,,,,12,,,,58,0
118540,note_on,36,0,4,,,,,,,,,4,,,,58,0
118541,note_on,30,0,9,,,,,,,,,13,,,,58,0
118542,note_on,36,0,5,,,,,,,,,5,,,,58,0
118542,note_on,30,0,3,,,,,,,,,3,,,,58,0
118543,note_on,30,0,10,,,,,,,,,14,,,,46,0
118555,set_tempo,115,1,0,,,,,,362538,,,,,,,,
118560,note_on,30,0,6,,,,,,,,,10,,,,75,100
118563,note_on,30,0,7,,,,,,,,,11,,,,67,100
118563,note_on,30,0,1,,,,,,,,,0,,,,87,82
118564,note_on,24,0,4,,,,,,,,,4,,,,58,86
118565,note_on,0,0,2,,,,,,,,,1,,,,67,81
118565,note_on,30,0,2,,,,,,,,,1,,,,75,81
118566,note_on,30,0,8,,,,,,,,,12,,,,63,98
118566,note_on,24,0,5,,,,,,,,,5,,,,58,86
118571,note_on,30,0,9,,,,,,,,,13,,,,51,89
118572,note_on,30,0,3,,,,,,,,,3,,,,51,81
118573,note_on,30,0,10,,,,,,,,,14,,,,39,73
118590,note_on,30,0,6,,,,,,,,,10,,,,75,0
118593,note_on,30,0,7,,,,,,,,,11,,,,67,0
118593,note_on,30,0,1,,,,,,,,,0,,,,87,0
118595,note_on,0,0,2,,,,,,,,,1,,,,75,0
118595,note_on,30,0,2,,,,,,,,,1,,,,67,0
118596,note_on,30,0,8,,,,,,,,,12,,,,63,0
118600,note_on,36,0,4,,,,,,,,,4,,,,58,0
118601,note_on,30,0,9,,,,,,,,,13,,,,51,0
118602,note_on,36,0,5,,,,,,,,,5,,,,58,0
118602,note_on,30,0,3,,,,,,,,,3,,,,51,0
118603,note_on,30,0,10,,,,,,,,,14,,,,39,0
118620,note_on,30,0,6,,,,,,,,,10,,,,75,100
118623,note_on,30,0,7,,,,,,,,,11,,,,67,100
118623,note_on,30,0,1,,,,,,,,,0,,,,87,82
118624,note_on,24,0,4,,,,,,,,,4,,,,58,86
118625,note_on,0,0,2,,,,,,,,,1,,,,67,81
118625,note_on,30,0,2,,,,,,,,,1,,,,75,81
118626,note_on,24,0,5,,,,,,,,,5,,,,58,86
118626,note_on,30,0,8,,,,,,,,,12,,,,63,98
118631,note_on,30,0,9,,,,,,,,,13,,,,51,89
118632,note_on,30,0,3,,,,,,,,,3,,,,51,81
118633,note_on,30,0,10,,,,,,,,,14,,,,39,73
118650,note_on,30,0,6,,,,,,,,,10,,,,75,0
118653,note_on,30,0,1,,,,,,,,,0,,,,87,0
118653,note_on,30,0,7,,,,,,,,,11,,,,67,0
118655,note_on,0,0,2,,,,,,,,,1,,,,75,0
118655,note_on,30,0,2,,,,,,,,,1,,,,67,0
118656,note_on,30,0,8,,,,,,,,,12,,,,63,0
118660,note_on,36,0,4,,,,,,,,,4,,,,58,0
118661,note_on,30,0,9,,,,,,,,,13,,,,51,0
118662,note_on,30,0,3,,,,,,,,,3,,,,51,0
118662,note_on,36,0,5,,,,,,,,,5,,,,58,0
118663,note_on,30,0,10,,,,,,,,,14,,,,39,0
118680,note_on,30,0,6,,,,,,,,,10,,,,72,100
118680,set_tempo,125,1,0,,,,,,385852,,,,,,,,
118683,note_on,30,0,1,,,,,,,,,0,,,,84,82
118683,note_on,30,0,7,,,,,,,,,11,,,,69,100
118683,note_on,0,0,7,,,,,,,,,11,,,,63,100
118684,note_on,24,0,4,,,,,,,,,4,,,,60,86
118685,note_on,30,0,2,,,,,,,,,1,,,,69,81
118685,note_on,0,0,2,,,,,,,,,1,,,,72,81
118686,note_on,30,0,8,,,,,,,,,12,,,,65,98
118686,note_on,24,0,5,,,,,,,,,5,,,,53,86
118691,note_on,30,0,9,,,,,,,,,13,,,,53,89
118692,note_on,30,0,3,,,,,,,,,3,,,,53,81
118693,note_on,30,0,10,,,,,,,,,14,,,,41,73
118710,note_on,30,0,6,,,,,,,,,10,,,,72,0
118713,note_on,30,0,1,,,,,,,,,0,,,,84,0
118713,note_on,0,0,7,,,,,,,,,11,,,,69,0
118713,note_on,30,0,7,,,,,,,,,11,,,,63,0
118715,note_on,30,0,2,,,,,,,,,1,,,,72,0
118715,note_on,0,0,2,,,,,,,,,1,,,,69,0
118716,note_on,30,0,8,,,,,,,,,12,,,,65,0
118720,note_on,36,0,4,,,,,,,,,4,,,,60,0
118721,note_on,30,0,9,,,,,,,,,13,,,,53,0
118722,note_on,30,0,3,,,,,,,,,3,,,,53,0
118722,note_on,36,0,5,,,,,,,,,5,,,,53,0
118723,note_on,30,0,10,,,,,,,,,14,,,,41,0
118740,note_on,30,0,6,,,,,,,,,10,,,,72,100
118743,note_on,30,0,7,,,,,,,,,11,,,,69,100
118743,note_on,30,0,1,,,,,,,,,0,,,,84,82
118743,note_on,0,0,7,,,,,,,,,11,,,,63,100
118744,note_on,24,0,4,,,,,,,,,4,,,,60,86
118745,note_on,0,0,2,,,,,,,,,1,,,,72,81
118745,note_on,30,0,2,,,,,,,,,1,,,,69,81
118746,note_on,30,0,8,,,,,,,,,12,,,,65,98
118746,note_on,24,0,5,,,,,,,,,5,,,,53,86
118751,note_on,30,0,9,,,,,,,,,13,,,,53,89
118752,note_on,30,0,3,,,,,,,,,3,,,,53,81
118753,note_on,30,0,10,,,,,,,,,14,,,,41,73
118770,set_tempo,90,1,0,,,,,,465116,,,,,,,,
118770,note_on,30,0,6,,,,,,,,,10,,,,72,0
118773,note_on,0,0,7,,,,,,,,,11,,,,69,0
118773,note_on,30,0,1,,,,,,,,,0,,,,84,0
118773,note_on,30,0,7,,,,,,,,,11,,,,63,0
118775,note_on,30,0,2,,,,,,,,,1,,,,72,0
118775,note_on,0,0,2,,,,,,,,,1,,,,69,0
118776,note_on,30,0,8,,,,,,,,,12,,,,65,0
118780,note_on,36,0,4,,,,,,,,,4,,,,60,0
118781,note_on,30,0,9,,,,,,,,,13,,,,53,0
118782,note_on,30,0,3,,,,,,,,,3,,,,53,0
118782,note_on,36,0,5,,,,,,,,,5,,,,53,0
118783,note_on,30,0,10,,,,,,,,,14,,,,41,0
118800,control_change,30,0,6,,,,,,,,,10,11,103,,,
118800,note_on,0,0,6,,,,,,,,,10,,,,70,100
118800,set_tempo,30,1,0,,,,,,355030,,,,,,,,
118803,note_on,0,0,1,,,,,,,,,0,,,,82,82
118803,control_change,30,0,1,,,,,,,,,0,11,89,,,
118803,note_on,0,0,7,,,,,,,,,11,,,,58,100
118803,control_change,30,0,7,,,,,,,,,11,11,103,,,
118804,control_change,24,0,4,,,,,,,,,4,11,89,,,
118804,note_on,0,0,4,,,,,,,,,4,,,,58,86
118805,control_change,30,0,2,,,,,,,,,1,11,89,,,
118805,note_on,0,0,2,,,,,,,,,1,,,,70,81
118806,note_on,30,0,8,,,,,,,,,12,,,,61,98
118806,control_change,24,0,5,,,,,,,,,5,11,89,,,
118806,note_on,0,0,5,,,,,,,,,5,,,,46,86
118811,note_on,30,0,9,,,,,,,,,13,,,,58,89
118812,control_change,30,0,3,,,,,,,,,3,11,89,,,
118812,note_on,0,0,3,,,,,,,,,3,,,,58,81
118812,note_on,0,0,3,,,,,,,,,3,,,,61,81
118813,note_on,30,0,10,,,,,,,,,14,,,,46,73
118817,control_change,17,0,6,,,,,,,,,10,11,101,,,
118820,control_change,17,0,7,,,,,,,,,11,11,101,,,
118826,note_on,20,0,8,,,,,,,,,12,,,,61,0
118831,note_on,20,0,9,,,,,,,,,13,,,,58,0
118833,note_on,20,0,10,,,,,,,,,14,,,,46,0
118835,control_change,18,0,6,,,,,,,,,10,11,99,,,
118836,note_on,10,0,8,,,,,,,,,12,,,,61,90
118838,control_change,18,0,7,,,,,,,,,11,11,99,,,
118841,note_on,10,0,9,,,,,,,,,13,,,,58,81
118843,note_on,10,0,10,,,,,,,,,14,,,,46,65
118853,control_change,18,0,6,,,,,,,,,10,11,97,,,
118856,control_change,18,0,7,,,,,,,,,11,11,97,,,
118856,note_on,20,0,8,,,,,,,,,12,,,,61,0
118861,note_on,20,0,9,,,,,,,,,13,,,,58,0
118863,note_on,20,0,10,,,,,,,,,14,,,,46,0
118866,note_on,10,0,8,,,,,,,,,12,,,,61,98
118871,control_change,18,0,6,,,,,,,,,10,11,95,,,
118871,note_on,10,0,9,,,,,,,,,13,,,,58,89
118873,note_on,10,0,10,,,,,,,,,14,,,,46,73
118874,control_change,18,0,7,,,,,,,,,11,11,95,,,
118886,note_on,20,0,8,,,,,,,,,12,,,,61,0
118889,control_change,18,0,6,,,,,,,,,10,11,93,,,
118891,note_on,20,0,9,,,,,,,,,13,,,,58,0
118892,control_change,18,0,7,,,,,,,,,11,11,93,,,
118893,note_on,20,0,10,,,,,,,,,14,,,,46,0
118896,note_on,10,0,8,,,,,,,,,12,,,,61,90
118901,note_on,10,0,9,,,,,,,,,13,,,,58,81
118903,note_on,10,0,10,,,,,,,,,14,,,,46,65
118907,control_change,18,0,6,,,,,,,,,10,11,91,,,
118910,control_change,18,0,7,,,,,,,,,11,11,91,,,
118916,note_on,20,0,8,,,,,,,,,12,,,,61,0
118920,set_tempo,120,1,0,,,,,,382166,,,,,,,,
118921,note_on,20,0,9,,,,,,,,,13,,,,58,0
118923,note_on,20,0,10,,,,,,,,,14,,,,46,0
118926,note_on,10,0,8,,,,,,,,,12,,,,61,98
118931,note_on,10,0,9,,,,,,,,,13,,,,58,89
118933,note_on,10,0,10,,,,,,,,,14,,,,46,73
118946,note_on,20,0,8,,,,,,,,,12,,,,61,0
118951,note_on,20,0,9,,,,,,,,,13,,,,58,0
118953,note_on,20,0,10,,,,,,,,,14,,,,46,0
118956,note_on,10,0,8,,,,,,,,,12,,,,61,90
118961,note_on,10,0,9,,,,,,,,,13,,,,58,81
118963,note_on,10,0,10,,,,,,,,,14,,,,46,65
118976,note_on,20,0,8,,,,,,,,,12,,,,61,0
118981,note_on,20,0,9,,,,,,,,,13,,,,58,0
118983,note_on,20,0,10,,,,,,,,,14,,,,46,0
118986,note_on,10,0,8,,,,,,,,,12,,,,61,98
118991,note_on,10,0,9,,,,,,,,,13,,,,58,89
118993,note_on,10,0,10,,,,,,,,,14,,,,46,73
119006,note_on,20,0,8,,,,,,,,,12,,,,61,0
119011,note_on,20,0,9,,,,,,,,,13,,,,58,0
119013,note_on,20,0,10,,,,,,,,,14,,,,46,0
119016,note_on,10,0,8,,,,,,,,,12,,,,61,90
119021,note_on,10,0,9,,,,,,,,,13,,,,58,81
119023,note_on,10,0,10,,,,,,,,,14,,,,46,65
119030,note_on,123,0,6,,,,,,,,,10,,,,70,0
119033,note_on,230,0,1,,,,,,,,,0,,,,82,0
119033,note_on,123,0,7,,,,,,,,,11,,,,58,0
119034,note_on,230,0,4,,,,,,,,,4,,,,58,0
119035,note_on,230,0,2,,,,,,,,,1,,,,70,0
119036,note_on,230,0,5,,,,,,,,,5,,,,46,0
119036,note_on,20,0,8,,,,,,,,,12,,,,61,0
119040,set_tempo,120,1,0,,,,,,355030,,,,,,,,
119040,control_change,10,0,6,,,,,,,,,10,11,103,,,
119040,note_on,0,0,6,,,,,,,,,10,,,,73,100
119041,note_on,20,0,9,,,,,,,,,13,,,,58,0
119042,note_on,230,0,3,,,,,,,,,3,,,,58,0
119042,note_on,0,0,3,,,,,,,,,3,,,,61,0
119043,note_on,20,0,10,,,,,,,,,14,,,,46,0
119043,control_change,10,0,1,,,,,,,,,0,11,103,,,
119043,note_on,0,0,1,,,,,,,,,0,,,,85,82
119043,note_on,0,0,7,,,,,,,,,11,,,,61,100
119043,control_change,10,0,7,,,,,,,,,11,11,103,,,
119044,control_change,10,0,4,,,,,,,,,4,11,103,,,
119044,note_on,0,0,4,,,,,,,,,4,,,,58,86
119045,note_on,0,0,2,,,,,,,,,1,,,,73,81
119045,control_change,10,0,2,,,,,,,,,1,11,103,,,
119046,note_on,0,0,5,,,,,,,,,5,,,,46,86
119046,control_change,10,0,5,,,,,,,,,5,11,103,,,
119046,control_change,10,0,8,,,,,,,,,12,11,103,,,
119046,note_on,0,0,8,,,,,,,,,12,,,,61,98
119051,control_change,10,0,9,,,,,,,,,13,11,103,,,
119051,note_on,0,0,9,,,,,,,,,13,,,,58,89
119052,control_change,10,0,3,,,,,,,,,3,11,103,,,
119052,note_on,0,0,3,,,,,,,,,3,,,,61,81
119052,note_on,0,0,3,,,,,,,,,3,,,,58,81
119053,control_change,10,0,10,,,,,,,,,14,11,103,,,
119053,note_on,0,0,10,,,,,,,,,14,,,,46,73
119057,control_change,17,0,6,,,,,,,,,10,11,101,,,
119060,control_change,17,0,7,,,,,,,,,11,11,101,,,
119060,control_change,17,0,1,,,,,,,,,0,11,101,,,
119061,control_change,17,0,4,,,,,,,,,4,11,101,,,
119062,control_change,17,0,2,,,,,,,,,1,11,101,,,
119063,control_change,17,0,5,,,,,,,,,5,11,101,,,
119063,control_change,17,0,8,,,,,,,,,12,11,101,,,
119066,note_on,3,0,8,,,,,,,,,12,,,,61,0
119068,control_change,17,0,9,,,,,,,,,13,11,101,,,
119069,control_change,17,0,3,,,,,,,,,3,11,101,,,
119070,control_change,17,0,10,,,,,,,,,14,11,101,,,
119071,note_on,3,0,9,,,,,,,,,13,,,,58,0
119073,note_on,3,0,10,,,,,,,,,14,,,,46,0
119075,control_change,18,0,6,,,,,,,,,10,11,99,,,
119076,note_on,10,0,8,,,,,,,,,12,,,,61,90
119078,control_change,18,0,1,,,,,,,,,0,11,99,,,
119078,control_change,18,0,7,,,,,,,,,11,11,99,,,
119079,control_change,18,0,4,,,,,,,,,4,11,99,,,
119080,control_change,18,0,2,,,,,,,,,1,11,99,,,
119081,note_on,10,0,9,,,,,,,,,13,,,,58,81
119081,control_change,5,0,8,,,,,,,,,12,11,99,,,
119081,control_change,18,0,5,,,,,,,,,5,11,99,,,
119083,note_on,10,0,10,,,,,,,,,14,,,,46,65
119086,control_change,5,0,9,,,,,,,,,13,11,99,,,
119087,control_change,18,0,3,,,,,,,,,3,11,99,,,
119088,control_change,5,0,10,,,,,,,,,14,11,99,,,
119093,control_change,18,0,6,,,,,,,,,10,11,97,,,
119096,control_change,18,0,1,,,,,,,,,0,11,97,,,
119096,control_change,18,0,7,,,,,,,,,11,11,97,,,
119096,note_on,15,0,8,,,,,,,,,12,,,,61,0
119097,control_change,18,0,4,,,,,,,,,4,11,97,,,
119098,control_change,18,0,2,,,,,,,,,1,11,97,,,
119099,control_change,3,0,8,,,,,,,,,12,11,97,,,
119099,control_change,18,0,5,,,,,,,,,5,11,97,,,
119101,note_on,15,0,9,,,,,,,,,13,,,,58,0
119103,note_on,15,0,10,,,,,,,,,14,,,,46,0
119104,control_change,3,0,9,,,,,,,,,13,11,97,,,
119105,control_change,18,0,3,,,,,,,,,3,11,97,,,
119106,note_on,7,0,8,,,,,,,,,12,,,,61,98
119106,control_change,3,0,10,,,,,,,,,14,11,97,,,
119111,control_change,18,0,6,,,,,,,,,10,11,95,,,
119111,note_on,7,0,9,,,,,,,,,13,,,,58,89
119113,note_on,7,0,10,,,,,,,,,14,,,,46,73
119114,control_change,18,0,1,,,,,,,,,0,11,95,,,
119114,control_change,18,0,7,,,,,,,,,11,11,95,,,
119115,control_change,18,0,4,,,,,,,,,4,11,95,,,
119116,control_change,18,0,2,,,,,,,,,1,11,95,,,
119117,control_change,11,0,8,,,,,,,,,12,11,95,,,
119117,control_change,18,0,5,,,,,,,,,5,11,95,,,
119122,control_change,11,0,9,,,,,,,,,13,11,95,,,
119123,control_change,18,0,3,,,,,,,,,3,11,95,,,
119124,control_change,11,0,10,,,,,,,,,14,11,95,,,
119126,note_on,9,0,8,,,,,,,,,12,,,,61,0
119129,control_change,18,0,6,,,,,,,,,10,11,93,,,
119131,note_on,9,0,9,,,,,,,,,13,,,,58,0
119132,control_change,18,0,1,,,,,,,,,0,11,93,,,
119132,control_change,18,0,7,,,,,,,,,11,11,93,,,
119133,control_change,18,0,4,,,,,,,,,4,11,93,,,
119133,note_on,9,0,10,,,,,,,,,14,,,,46,0
119134,control_change,18,0,2,,,,,,,,,1,11,93,,,
119135,control_change,18,0,5,,,,,,,,,5,11,93,,,
119135,control_change,9,0,8,,,,,,,,,12,11,93,,,
119136,note_on,1,0,8,,,,,,,,,12,,,,61,90
119140,control_change,9,0,9,,,,,,,,,13,11,93,,,
119141,control_change,18,0,3,,,,,,,,,3,11,93,,,
119141,note_on,1,0,9,,,,,,,,,13,,,,58,81
119142,control_change,9,0,10,,,,,,,,,14,11,93,,,
119143,note_on,1,0,10,,,,,,,,,14,,,,46,65
119147,control_change,18,0,6,,,,,,,,,10,11,91,,,
119150,control_change,18,0,7,,,,,,,,,11,11,91,,,
119150,control_change,18,0,1,,,,,,,,,0,11,91,,,
119151,control_change,18,0,4,,,,,,,,,4,11,91,,,
119152,control_change,18,0,2,,,,,,,,,1,11,91,,,
119153,control_change,17,0,8,,,,,,,,,12,11,91,,,
119153,control_change,18,0,5,,,,,,,,,5,11,91,,,
119156,note_on,3,0,8,,,,,,,,,12,,,,61,0
119158,control_change,17,0,9,,,,,,,,,13,11,91,,,
119159,control_change,18,0,3,,,,,,,,,3,11,91,,,
119160,set_tempo,120,1,0,,,,,,382166,,,,,,,,
119160,control_change,17,0,10,,,,,,,,,14,11,91,,,
119161,note_on,3,0,9,,,,,,,,,13,,,,58,0
119163,note_on,3,0,10,,,,,,,,,14,,,,46,0
119166,note_on,10,0,8,,,,,,,,,12,,,,61,98
119171,note_on,10,0,9,,,,,,,,,13,,,,58,89
119173,note_on,10,0,10,,,,,,,,,14,,,,46,73
119186,note_on,20,0,8,,,,,,,,,12,,,,61,0
119191,note_on,20,0,9,,,,,,,,,13,,,,58,0
119193,note_on,20,0,10,,,,,,,,,14,,,,46,0
119196,note_on,10,0,8,,,,,,,,,12,,,,61,90
119201,note_on,10,0,9,,,,,,,,,13,,,,58,81
119203,note_on,10,0,10,,,,,,,,,14,,,,46,65
119216,note_on,20,0,8,,,,,,,,,12,,,,61,0
119221,note_on,20,0,9,,,,,,,,,13,,,,58,0
119223,note_on,20,0,10,,,,,,,,,14,,,,46,0
119226,note_on,10,0,8,,,,,,,,,12,,,,61,98
119231,note_on,10,0,9,,,,,,,,,13,,,,58,89
119233,note_on,10,0,10,,,,,,,,,14,,,,46,73
119246,note_on,20,0,8,,,,,,,,,12,,,,61,0
119251,note_on,20,0,9,,,,,,,,,13,,,,58,0
119253,note_on,20,0,10,,,,,,,,,14,,,,46,0
119256,note_on,10,0,8,,,,,,,,,12,,,,61,90
119261,note_on,10,0,9,,,,,,,,,13,,,,58,81
119263,note_on,10,0,10,,,,,,,,,14,,,,46,65
119270,note_on,123,0,6,,,,,,,,,10,,,,73,0
119273,note_on,123,0,7,,,,,,,,,11,,,,61,0
119273,note_on,123,0,1,,,,,,,,,0,,,,85,0
119274,note_on,123,0,4,,,,,,,,,4,,,,58,0
119275,note_on,123,0,2,,,,,,,,,1,,,,73,0
119276,note_on,20,0,8,,,,,,,,,12,,,,61,0
119276,note_on,123,0,5,,,,,,,,,5,,,,46,0
119280,set_tempo,120,1,0,,,,,,355030,,,,,,,,
119280,control_change,10,0,6,,,,,,,,,10,11,103,,,
119280,note_on,0,0,6,,,,,,,,,10,,,,78,100
119281,note_on,20,0,9,,,,,,,,,13,,,,58,0
119282,note_on,123,0,3,,,,,,,,,3,,,,58,0
119282,note_on,0,0,3,,,,,,,,,3,,,,61,0
119283,control_change,10,0,1,,,,,,,,,0,11,103,,,
119283,note_on,0,0,7,,,,,,,,,11,,,,66,100
119283,control_change,10,0,7,,,,,,,,,11,11,103,,,
119283,note_on,0,0,1,,,,,,,,,0,,,,78,82
119283,note_on,20,0,10,,,,,,,,,14,,,,46,0
119284,note_on,0,0,4,,,,,,,,,4,,,,58,86
119284,control_change,10,0,4,,,,,,,,,4,11,103,,,
119285,note_on,0,0,2,,,,,,,,,1,,,,66,81
119285,note_on,0,0,2,,,,,,,,,1,,,,78,81
119285,control_change,10,0,2,,,,,,,,,1,11,103,,,
119286,control_change,10,0,8,,,,,,,,,12,11,103,,,
119286,note_on,0,0,5,,,,,,,,,5,,,,46,86
119286,control_change,10,0,5,,,,,,,,,5,11,103,,,
119286,note_on,0,0,8,,,,,,,,,12,,,,61,98
119291,note_on,0,0,9,,,,,,,,,13,,,,58,89
119291,control_change,10,0,9,,,,,,,,,13,11,103,,,
119292,note_on,0,0,3,,,,,,,,,3,,,,58,81
119292,control_change,10,0,3,,,,,,,,,3,11,103,,,
119292,note_on,0,0,3,,,,,,,,,3,,,,61,81
119293,control_change,10,0,10,,,,,,,,,14,11,103,,,
119293,note_on,0,0,10,,,,,,,,,14,,,,46,73
119297,control_change,17,0,6,,,,,,,,,10,11,101,,,
119300,control_change,17,0,7,,,,,,,,,11,11,101,,,
119300,control_change,17,0,1,,,,,,,,,0,11,101,,,
119301,control_change,17,0,4,,,,,,,,,4,11,101,,,
119302,control_change,17,0,2,,,,,,,,,1,11,101,,,
119303,control_change,17,0,5,,,,,,,,,5,11,101,,,
119303,control_change,17,0,8,,,,,,,,,12,11,101,,,
119306,note_on,3,0,8,,,,,,,,,12,,,,61,0
119308,control_change,17,0,9,,,,,,,,,13,11,101,,,
119309,control_change,17,0,3,,,,,,,,,3,11,101,,,
119310,control_change,17,0,10,,,,,,,,,14,11,101,,,
119311,note_on,3,0,9,,,,,,,,,13,,,,58,0
119313,note_on,3,0,10,,,,,,,,,14,,,,46,0
119315,control_change,18,0,6,,,,,,,,,10,11,99,,,
119316,note_on,10,0,8,,,,,,,,,12,,,,61,90
119318,control_change,18,0,7,,,,,,,,,11,11,99,,,
119318,control_change,18,0,1,,,,,,,,,0,11,99,,,
119319,control_change,18,0,4,,,,,,,,,4,11,99,,,
119320,control_change,18,0,2,,,,,,,,,1,11,99,,,
119321,control_change,5,0,8,,,,,,,,,12,11,99,,,
119321,control_change,18,0,5,,,,,,,,,5,11,99,,,
119321,note_on,10,0,9,,,,,,,,,13,,,,58,81
119323,note_on,10,0,10,,,,,,,,,14,,,,46,65
119326,control_change,5,0,9,,,,,,,,,13,11,99,,,
119327,control_change,18,0,3,,,,,,,,,3,11,99,,,
119328,control_change,5,0,10,,,,,,,,,14,11,99,,,
119333,control_change,18,0,6,,,,,,,,,10,11,97,,,
119336,control_change,18,0,7,,,,,,,,,11,11,97,,,
119336,control_change,18,0,1,,,,,,,,,0,11,97,,,
119336,note_on,15,0,8,,,,,,,,,12,,,,61,0
119337,control_change,18,0,4,,,,,,,,,4,11,97,,,
119338,control_change,18,0,2,,,,,,,,,1,11,97,,,
119339,control_change,18,0,5,,,,,,,,,5,11,97,,,
119339,control_change,3,0,8,,,,,,,,,12,11,97,,,
119341,note_on,15,0,9,,,,,,,,,13,,,,58,0
119343,note_on,15,0,10,,,,,,,,,14,,,,46,0
119344,control_change,3,0,9,,,,,,,,,13,11,97,,,
119345,control_change,18,0,3,,,,,,,,,3,11,97,,,
119346,note_on,7,0,8,,,,,,,,,12,,,,61,98
119346,control_change,3,0,10,,,,,,,,,14,11,97,,,
119351,control_change,18,0,6,,,,,,,,,10,11,95,,,
119351,note_on,7,0,9,,,,,,,,,13,,,,58,89
119353,note_on,7,0,10,,,,,,,,,14,,,,46,73
119354,control_change,18,0,1,,,,,,,,,0,11,95,,,
119354,control_change,18,0,7,,,,,,,,,11,11,95,,,
119355,control_change,18,0,4,,,,,,,,,4,11,95,,,
119356,control_change,18,0,2,,,,,,,,,1,11,95,,,
119357,control_change,11,0,8,,,,,,,,,12,11,95,,,
119357,control_change,18,0,5,,,,,,,,,5,11,95,,,
119362,control_change,11,0,9,,,,,,,,,13,11,95,,,
119363,control_change,18,0,3,,,,,,,,,3,11,95,,,
119364,control_change,11,0,10,,,,,,,,,14,11,95,,,
119366,note_on,9,0,8,,,,,,,,,12,,,,61,0
119369,control_change,18,0,6,,,,,,,,,10,11,93,,,
119371,note_on,9,0,9,,,,,,,,,13,,,,58,0
119372,control_change,18,0,7,,,,,,,,,11,11,93,,,
119372,control_change,18,0,1,,,,,,,,,0,11,93,,,
119373,control_change,18,0,4,,,,,,,,,4,11,93,,,
119373,note_on,9,0,10,,,,,,,,,14,,,,46,0
119374,control_change,18,0,2,,,,,,,,,1,11,93,,,
119375,control_change,18,0,5,,,,,,,,,5,11,93,,,
119375,control_change,9,0,8,,,,,,,,,12,11,93,,,
119376,note_on,1,0,8,,,,,,,,,12,,,,61,90
119380,control_change,9,0,9,,,,,,,,,13,11,93,,,
119381,note_on,1,0,9,,,,,,,,,13,,,,58,81
119381,control_change,18,0,3,,,,,,,,,3,11,93,,,
119382,control_change,9,0,10,,,,,,,,,14,11,93,,,
119383,note_on,1,0,10,,,,,,,,,14,,,,46,65
119387,control_change,18,0,6,,,,,,,,,10,11,91,,,
119390,control_change,18,0,7,,,,,,,,,11,11,91,,,
119390,control_change,18,0,1,,,,,,,,,0,11,91,,,
119391,control_change,18,0,4,,,,,,,,,4,11,91,,,
119392,control_change,18,0,2,,,,,,,,,1,11,91,,,
119393,control_change,17,0,8,,,,,,,,,12,11,91,,,
119393,control_change,18,0,5,,,,,,,,,5,11,91,,,
119396,note_on,3,0,8,,,,,,,,,12,,,,61,0
119398,control_change,17,0,9,,,,,,,,,13,11,91,,,
119399,control_change,18,0,3,,,,,,,,,3,11,91,,,
119400,control_change,17,0,10,,,,,,,,,14,11,91,,,
119400,set_tempo,120,1,0,,,,,,382166,,,,,,,,
119401,note_on,3,0,9,,,,,,,,,13,,,,58,0
119403,note_on,3,0,10,,,,,,,,,14,,,,46,0
119406,note_on,10,0,8,,,,,,,,,12,,,,61,98
119411,note_on,10,0,9,,,,,,,,,13,,,,58,89
119413,note_on,10,0,10,,,,,,,,,14,,,,46,73
119426,note_on,20,0,8,,,,,,,,,12,,,,61,0
119431,note_on,20,0,9,,,,,,,,,13,,,,58,0
119433,note_on,20,0,10,,,,,,,,,14,,,,46,0
119436,note_on,10,0,8,,,,,,,,,12,,,,61,90
119441,note_on,10,0,9,,,,,,,,,13,,,,58,81
119443,note_on,10,0,10,,,,,,,,,14,,,,46,65
119456,note_on,20,0,8,,,,,,,,,12,,,,61,0
119461,note_on,20,0,9,,,,,,,,,13,,,,58,0
119463,note_on,20,0,10,,,,,,,,,14,,,,46,0
119466,note_on,10,0,8,,,,,,,,,12,,,,61,98
119471,note_on,10,0,9,,,,,,,,,13,,,,58,89
119473,note_on,10,0,10,,,,,,,,,14,,,,46,73
119486,note_on,20,0,8,,,,,,,,,12,,,,61,0
119491,note_on,20,0,9,,,,,,,,,13,,,,58,0
119493,note_on,20,0,10,,,,,,,,,14,,,,46,0
119496,note_on,10,0,8,,,,,,,,,12,,,,61,90
119501,note_on,10,0,9,,,,,,,,,13,,,,58,81
119503,note_on,10,0,10,,,,,,,,,14,,,,46,65
119510,note_on,123,0,6,,,,,,,,,10,,,,78,0
119513,note_on,123,0,7,,,,,,,,,11,,,,66,0
119513,note_on,123,0,1,,,,,,,,,0,,,,78,0
119514,note_on,123,0,4,,,,,,,,,4,,,,58,0
119515,note_on,0,0,2,,,,,,,,,1,,,,78,0
119515,note_on,123,0,2,,,,,,,,,1,,,,66,0
119516,note_on,123,0,5,,,,,,,,,5,,,,46,0
119516,note_on,20,0,8,,,,,,,,,12,,,,61,0
119520,set_tempo,120,1,0,,,,,,355030,,,,,,,,
119520,note_on,10,0,6,,,,,,,,,10,,,,82,100
119521,note_on,20,0,9,,,,,,,,,13,,,,58,0
119522,note_on,0,0,3,,,,,,,,,3,,,,61,0
119522,note_on,123,0,3,,,,,,,,,3,,,,58,0
119523,note_on,20,0,10,,,,,,,,,14,,,,46,0
119523,note_on,10,0,7,,,,,,,,,11,,,,70,100
119523,note_on,10,0,1,,,,,,,,,0,,,,82,82
119524,note_on,10,0,4,,,,,,,,,4,,,,58,86
119525,note_on,0,0,2,,,,,,,,,1,,,,82,81
119525,note_on,10,0,2,,,,,,,,,1,,,,70,81
119526,note_on,10,0,5,,,,,,,,,5,,,,46,86
119526,note_on,10,0,8,,,,,,,,,12,,,,61,98
119531,note_on,10,0,9,,,,,,,,,13,,,,58,89
119532,note_on,10,0,3,,,,,,,,,3,,,,61,81
119532,note_on,0,0,3,,,,,,,,,3,,,,58,81
119533,note_on,10,0,10,,,,,,,,,14,,,,46,73
119546,note_on,20,0,8,,,,,,,,,12,,,,61,0
119551,note_on,20,0,9,,,,,,,,,13,,,,58,0
119553,note_on,20,0,10,,,,,,,,,14,,,,46,0
119556,note_on,10,0,8,,,,,,,,,12,,,,61,90
119561,note_on,10,0,9,,,,,,,,,13,,,,58,81
119563,note_on,10,0,10,,,,,,,,,14,,,,46,65
119576,note_on,20,0,8,,,,,,,,,12,,,,61,0
119581,note_on,20,0,9,,,,,,,,,13,,,,58,0
119583,note_on,20,0,10,,,,,,,,,14,,,,46,0
119586,note_on,10,0,8,,,,,,,,,12,,,,61,98
119591,note_on,10,0,9,,,,,,,,,13,,,,58,89
119593,note_on,10,0,10,,,,,,,,,14,,,,46,73
119606,note_on,20,0,8,,,,,,,,,12,,,,61,0
119611,note_on,20,0,9,,,,,,,,,13,,,,58,0
119613,note_on,20,0,10,,,,,,,,,14,,,,46,0
119616,note_on,10,0,8,,,,,,,,,12,,,,61,90
119620,note_on,100,0,6,,,,,,,,,10,,,,82,0
119621,note_on,10,0,9,,,,,,,,,13,,,,58,81
119623,note_on,10,0,10,,,,,,,,,14,,,,46,65
119623,note_on,100,0,1,,,,,,,,,0,,,,82,0
119623,note_on,100,0,7,,,,,,,,,11,,,,70,0
119625,note_on,0,0,2,,,,,,,,,1,,,,70,0
119625,note_on,100,0,2,,,,,,,,,1,,,,82,0
119636,note_on,20,0,8,,,,,,,,,12,,,,61,0
119640,note_on,20,0,6,,,,,,,,,10,,,,85,100
119640,set_tempo,120,1,0,,,,,,382166,,,,,,,,
119641,note_on,20,0,9,,,,,,,,,13,,,,58,0
119643,note_on,20,0,10,,,,,,,,,14,,,,46,0
119643,note_on,20,0,1,,,,,,,,,0,,,,85,82
119643,note_on,20,0,7,,,,,,,,,11,,,,73,100
119645,note_on,0,0,2,,,,,,,,,1,,,,85,81
119645,note_on,20,0,2,,,,,,,,,1,,,,73,81
119646,note_on,10,0,8,,,,,,,,,12,,,,61,98
119651,note_on,10,0,9,,,,,,,,,13,,,,58,89
119653,note_on,10,0,10,,,,,,,,,14,,,,46,73
119666,note_on,20,0,8,,,,,,,,,12,,,,61,0
119671,note_on,20,0,9,,,,,,,,,13,,,,58,0
119673,note_on,20,0,10,,,,,,,,,14,,,,46,0
119676,note_on,10,0,8,,,,,,,,,12,,,,61,90
119681,note_on,10,0,9,,,,,,,,,13,,,,58,81
119683,note_on,10,0,10,,,,,,,,,14,,,,46,65
119696,note_on,20,0,8,,,,,,,,,12,,,,61,0
119701,note_on,20,0,9,,,,,,,,,13,,,,58,0
119703,note_on,20,0,10,,,,,,,,,14,,,,46,0
119706,note_on,10,0,8,,,,,,,,,12,,,,61,98
119711,note_on,10,0,9,,,,,,,,,13,,,,58,89
119713,note_on,10,0,10,,,,,,,,,14,,,,46,73
119726,note_on,20,0,8,,,,,,,,,12,,,,61,0
119731,note_on,20,0,9,,,,,,,,,13,,,,58,0
119733,note_on,20,0,10,,,,,,,,,14,,,,46,0
119736,note_on,10,0,8,,,,,,,,,12,,,,61,90
119740,note_on,100,0,6,,,,,,,,,10,,,,85,0
119741,note_on,10,0,9,,,,,,,,,13,,,,58,81
119743,note_on,10,0,10,,,,,,,,,14,,,,46,65
119743,note_on,100,0,1,,,,,,,,,0,,,,85,0
119743,note_on,100,0,7,,,,,,,,,11,,,,73,0
119745,note_on,0,0,2,,,,,,,,,1,,,,73,0
119745,note_on,100,0,2,,,,,,,,,1,,,,85,0
119754,note_on,230,0,4,,,,,,,,,4,,,,58,0
119756,note_on,230,0,5,,,,,,,,,5,,,,46,0
119756,note_on,20,0,8,,,,,,,,,12,,,,61,0
119760,set_tempo,120,1,0,,,,,,355030,,,,,,,,
119760,note_on,20,0,6,,,,,,,,,10,,,,72,100
119760,note_on,0,0,6,,,,,,,,,10,,,,84,100
119761,note_on,20,0,9,,,,,,,,,13,,,,58,0
119762,note_on,230,0,3,,,,,,,,,3,,,,58,0
119762,note_on,0,0,3,,,,,,,,,3,,,,61,0
119763,note_on,20,0,1,,,,,,,,,0,,,,84,82
119763,note_on,20,0,7,,,,,,,,,11,,,,82,100
119763,note_on,0,0,7,,,,,,,,,11,,,,72,100
119763,note_on,20,0,10,,,,,,,,,14,,,,46,0
119764,note_on,10,0,4,,,,,,,,,4,,,,60,86
119765,note_on,0,0,2,,,,,,,,,1,,,,79,81
119765,note_on,20,0,2,,,,,,,,,1,,,,82,81
119766,note_on,10,0,5,,,,,,,,,5,,,,58,86
119766,note_on,10,0,8,,,,,,,,,12,,,,52,98
119771,note_on,10,0,9,,,,,,,,,13,,,,40,89
119772,note_on,10,0,3,,,,,,,,,3,,,,52,81
119773,note_on,10,0,10,,,,,,,,,14,,,,28,73
119780,note_on,0,0,6,,,,,,,,,10,,,,72,0
119780,note_on,20,0,6,,,,,,,,,10,,,,84,0
119783,note_on,20,0,7,,,,,,,,,11,,,,72,0
119783,note_on,0,0,7,,,,,,,,,11,,,,82,0
119790,note_on,10,0,6,,,,,,,,,10,,,,84,92
119790,note_on,0,0,6,,,,,,,,,10,,,,72,92
119793,note_on,0,0,7,,,,,,,,,11,,,,72,92
119793,note_on,10,0,7,,,,,,,,,11,,,,82,92
119810,note_on,20,0,6,,,,,,,,,10,,,,72,0
119810,note_on,0,0,6,,,,,,,,,10,,,,84,0
119813,note_on,20,0,7,,,,,,,,,11,,,,72,0
119813,note_on,0,0,7,,,,,,,,,11,,,,82,0
119820,note_on,10,0,6,,,,,,,,,10,,,,72,100
119820,note_on,0,0,6,,,,,,,,,10,,,,84,100
119823,note_on,0,0,7,,,,,,,,,11,,,,72,100
119823,note_on,10,0,7,,,,,,,,,11,,,,82,100
119840,note_on,20,0,6,,,,,,,,,10,,,,84,0
119840,note_on,0,0,6,,,,,,,,,10,,,,72,0
119843,note_on,0,0,7,,,,,,,,,11,,,,82,0
119843,note_on,20,0,7,,,,,,,,,11,,,,72,0
119850,note_on,10,0,6,,,,,,,,,10,,,,84,92
119850,note_on,0,0,6,,,,,,,,,10,,,,72,92
119853,note_on,0,0,7,,,,,,,,,11,,,,82,92
119853,note_on,10,0,7,,,,,,,,,11,,,,72,92
119870,note_on,20,0,6,,,,,,,,,10,,,,72,0
119870,note_on,0,0,6,,,,,,,,,10,,,,84,0
119873,note_on,20,0,7,,,,,,,,,11,,,,82,0
119873,note_on,0,0,7,,,,,,,,,11,,,,72,0
119880,note_on,10,0,6,,,,,,,,,10,,,,84,100
119880,note_on,0,0,6,,,,,,,,,10,,,,72,100
119880,set_tempo,120,1,0,,,,,,382166,,,,,,,,
119883,note_on,10,0,7,,,,,,,,,11,,,,72,100
119883,note_on,0,0,7,,,,,,,,,11,,,,82,100
119900,note_on,20,0,6,,,,,,,,,10,,,,72,0
119900,note_on,0,0,6,,,,,,,,,10,,,,84,0
119903,note_on,0,0,7,,,,,,,,,11,,,,72,0
119903,note_on,20,0,7,,,,,,,,,11,,,,82,0
119910,note_on,10,0,6,,,,,,,,,10,,,,84,92
119910,note_on,0,0,6,,,,,,,,,10,,,,72,92
119913,note_on,10,0,7,,,,,,,,,11,,,,82,92
119913,note_on,0,0,7,,,,,,,,,11,,,,72,92
119930,note_on,0,0,6,,,,,,,,,10,,,,84,0
119930,note_on,20,0,6,,,,,,,,,10,,,,72,0
119933,note_on,20,0,7,,,,,,,,,11,,,,72,0
119933,note_on,0,0,7,,,,,,,,,11,,,,82,0
119940,note_on,10,0,6,,,,,,,,,10,,,,84,100
119940,note_on,0,0,6,,,,,,,,,10,,,,72,100
119943,note_on,10,0,7,,,,,,,,,11,,,,72,100
119943,note_on,0,0,7,,,,,,,,,11,,,,82,100
119960,note_on,20,0,6,,,,,,,,,10,,,,72,0
119960,note_on,0,0,6,,,,,,,,,10,,,,84,0
119963,note_on,20,0,7,,,,,,,,,11,,,,82,0
119963,note_on,0,0,7,,,,,,,,,11,,,,72,0
119970,note_on,10,0,6,,,,,,,,,10,,,,84,92
119970,note_on,0,0,6,,,,,,,,,10,,,,72,92
119973,note_on,10,0,7,,,,,,,,,11,,,,82,92
119973,note_on,0,0,7,,,,,,,,,11,,,,72,92
119990,note_on,0,0,6,,,,,,,,,10,,,,84,0
119990,note_on,20,0,6,,,,,,,,,10,,,,72,0
119993,note_on,20,0,7,,,,,,,,,11,,,,72,0
119993,note_on,0,0,7,,,,,,,,,11,,,,82,0
119996,note_on,230,0,8,,,,,,,,,12,,,,52,0
120000,note_on,0,0,6,,,,,,,,,10,,,,84,100
120000,note_on,10,0,6,,,,,,,,,10,,,,72,100
120000,set_tempo,120,1,0,,,,,,355030,,,,,,,,
120001,note_on,230,0,9,,,,,,,,,13,,,,40,0
120002,note_on,230,0,3,,,,,,,,,3,,,,52,0
120003,note_on,10,0,7,,,,,,,,,11,,,,82,100
120003,note_on,0,0,7,,,,,,,,,11,,,,72,100
120003,note_on,230,0,10,,,,,,,,,14,,,,28,0
120006,note_on,10,0,8,,,,,,,,,12,,,,55,98
120011,note_on,10,0,9,,,,,,,,,13,,,,43,89
120012,note_on,10,0,3,,,,,,,,,3,,,,55,81
120013,note_on,10,0,10,,,,,,,,,14,,,,31,73
120020,note_on,20,0,6,,,,,,,,,10,,,,84,0
120020,note_on,0,0,6,,,,,,,,,10,,,,72,0
120023,note_on,0,0,7,,,,,,,,,11,,,,82,0
120023,note_on,20,0,7,,,,,,,,,11,,,,72,0
120030,note_on,10,0,6,,,,,,,,,10,,,,84,92
120030,note_on,0,0,6,,,,,,,,,10,,,,72,92
120033,note_on,0,0,7,,,,,,,,,11,,,,72,92
120033,note_on,10,0,7,,,,,,,,,11,,,,82,92
120050,note_on,0,0,6,,,,,,,,,10,,,,84,0
120050,note_on,20,0,6,,,,,,,,,10,,,,72,0
120053,note_on,20,0,7,,,,,,,,,11,,,,72,0
120053,note_on,0,0,7,,,,,,,,,11,,,,82,0
120060,note_on,0,0,6,,,,,,,,,10,,,,84,100
120060,note_on,10,0,6,,,,,,,,,10,,,,72,100
120063,note_on,10,0,7,,,,,,,,,11,,,,72,100
120063,note_on,0,0,7,,,,,,,,,11,,,,82,100
120080,note_on,20,0,6,,,,,,,,,10,,,,84,0
120080,note_on,0,0,6,,,,,,,,,10,,,,72,0
120083,note_on,0,0,7,,,,,,,,,11,,,,72,0
120083,note_on,20,0,7,,,,,,,,,11,,,,82,0
120090,note_on,10,0,6,,,,,,,,,10,,,,72,92
120090,note_on,0,0,6,,,,,,,,,10,,,,84,92
120093,note_on,10,0,7,,,,,,,,,11,,,,82,92
120093,note_on,0,0,7,,,,,,,,,11,,,,72,92
120110,note_on,20,0,6,,,,,,,,,10,,,,84,0
120110,note_on,0,0,6,,,,,,,,,10,,,,72,0
120113,note_on,20,0,7,,,,,,,,,11,,,,72,0
120113,note_on,0,0,7,,,,,,,,,11,,,,82,0
120120,set_tempo,120,1,0,,,,,,382166,,,,,,,,
120120,note_on,0,0,6,,,,,,,,,10,,,,84,100
120120,note_on,10,0,6,,,,,,,,,10,,,,72,100
120123,note_on,0,0,7,,,,,,,,,11,,,,82,100
120123,note_on,10,0,7,,,,,,,,,11,,,,72,100
120140,note_on,20,0,6,,,,,,,,,10,,,,84,0
120140,note_on,0,0,6,,,,,,,,,10,,,,72,0
120143,note_on,20,0,7,,,,,,,,,11,,,,82,0
120143,note_on,0,0,7,,,,,,,,,11,,,,72,0
120150,note_on,10,0,6,,,,,,,,,10,,,,72,92
120150,note_on,0,0,6,,,,,,,,,10,,,,84,92
120153,note_on,10,0,7,,,,,,,,,11,,,,82,92
120153,note_on,0,0,7,,,,,,,,,11,,,,72,92
120170,note_on,0,0,6,,,,,,,,,10,,,,72,0
120170,note_on,20,0,6,,,,,,,,,10,,,,84,0
120173,note_on,20,0,7,,,,,,,,,11,,,,72,0
120173,note_on,0,0,7,,,,,,,,,11,,,,82,0
120180,note_on,0,0,6,,,,,,,,,10,,,,84,100
120180,note_on,10,0,6,,,,,,,,,10,,,,72,100
120183,note_on,0,0,7,,,,,,,,,11,,,,82,100
120183,note_on,10,0,7,,,,,,,,,11,,,,72,100
120200,note_on,20,0,6,,,,,,,,,10,,,,84,0
120200,note_on,0,0,6,,,,,,,,,10,,,,72,0
120203,note_on,0,0,7,,,,,,,,,11,,,,72,0
120203,note_on,20,0,7,,,,,,,,,11,,,,82,0
120210,note_on,10,0,6,,,,,,,,,10,,,,72,92
120210,note_on,0,0,6,,,,,,,,,10,,,,84,92
120213,note_on,0,0,7,,,,,,,,,11,,,,82,92
120213,note_on,10,0,7,,,,,,,,,11,,,,72,92
120230,note_on,20,0,6,,,,,,,,,10,,,,84,0
120230,note_on,0,0,6,,,,,,,,,10,,,,72,0
120233,note_on,20,0,7,,,,,,,,,11,,,,82,0
120233,note_on,0,0,7,,,,,,,,,11,,,,72,0
120236,note_on,230,0,8,,,,,,,,,12,,,,55,0
120240,set_tempo,120,1,0,,,,,,355030,,,,,,,,
120240,note_on,10,0,6,,,,,,,,,10,,,,84,100
120240,note_on,0,0,6,,,,,,,,,10,,,,72,100
120241,note_on,230,0,9,,,,,,,,,13,,,,43,0
120242,note_on,230,0,3,,,,,,,,,3,,,,55,0
120243,note_on,0,0,7,,,,,,,,,11,,,,82,100
120243,note_on,10,0,7,,,,,,,,,11,,,,72,100
120243,note_on,230,0,10,,,,,,,,,14,,,,31,0
120246,note_on,10,0,8,,,,,,,,,12,,,,60,98
120251,note_on,10,0,9,,,,,,,,,13,,,,48,89
120252,note_on,10,0,3,,,,,,,,,3,,,,60,81
120253,note_on,10,0,10,,,,,,,,,14,,,,36,73
120260,note_on,20,0,6,,,,,,,,,10,,,,72,0
120260,note_on,0,0,6,,,,,,,,,10,,,,84,0
120263,note_on,0,0,7,,,,,,,,,11,,,,72,0
120263,note_on,20,0,7,,,,,,,,,11,,,,82,0
120270,note_on,0,0,6,,,,,,,,,10,,,,84,92
120270,note_on,10,0,6,,,,,,,,,10,,,,72,92
120273,note_on,10,0,7,,,,,,,,,11,,,,82,92
120273,note_on,0,0,7,,,,,,,,,11,,,,72,92
120290,note_on,0,0,6,,,,,,,,,10,,,,72,0
120290,note_on,20,0,6,,,,,,,,,10,,,,84,0
120293,note_on,20,0,7,,,,,,,,,11,,,,72,0
120293,note_on,0,0,7,,,,,,,,,11,,,,82,0
120300,note_on,10,0,6,,,,,,,,,10,,,,84,100
120300,note_on,0,0,6,,,,,,,,,10,,,,72,100
120303,note_on,0,0,7,,,,,,,,,11,,,,82,100
120303,note_on,10,0,7,,,,,,,,,11,,,,72,100
120320,note_on,0,0,6,,,,,,,,,10,,,,84,0
120320,note_on,20,0,6,,,,,,,,,10,,,,72,0
120323,note_on,20,0,7,,,,,,,,,11,,,,82,0
120323,note_on,0,0,7,,,,,,,,,11,,,,72,0
120330,note_on,10,0,6,,,,,,,,,10,,,,84,92
120330,note_on,0,0,6,,,,,,,,,10,,,,72,92
120333,note_on,10,0,7,,,,,,,,,11,,,,82,92
120333,note_on,0,0,7,,,,,,,,,11,,,,72,92
120350,note_on,20,0,6,,,,,,,,,10,,,,72,0
120350,note_on,0,0,6,,,,,,,,,10,,,,84,0
120353,note_on,20,0,7,,,,,,,,,11,,,,72,0
120353,note_on,0,0,7,,,,,,,,,11,,,,82,0
120360,set_tempo,120,1,0,,,,,,382166,,,,,,,,
120360,note_on,0,0,6,,,,,,,,,10,,,,72,100
120360,note_on,10,0,6,,,,,,,,,10,,,,84,100
120363,note_on,0,0,7,,,,,,,,,11,,,,82,100
120363,note_on,10,0,7,,,,,,,,,11,,,,72,100
120380,note_on,0,0,6,,,,,,,,,10,,,,84,0
120380,note_on,20,0,6,,,,,,,,,10,,,,72,0
120383,note_on,0,0,7,,,,,,,,,11,,,,72,0
120383,note_on,20,0,7,,,,,,,,,11,,,,82,0
120390,note_on,10,0,6,,,,,,,,,10,,,,72,92
120390,note_on,0,0,6,,,,,,,,,10,,,,84,92
120393,note_on,10,0,7,,,,,,,,,11,,,,72,92
120393,note_on,0,0,7,,,,,,,,,11,,,,82,92
120410,note_on,0,0,6,,,,,,,,,10,,,,72,0
120410,note_on,20,0,6,,,,,,,,,10,,,,84,0
120413,note_on,0,0,7,,,,,,,,,11,,,,72,0
120413,note_on,20,0,7,,,,,,,,,11,,,,82,0
120420,note_on,10,0,6,,,,,,,,,10,,,,84,100
120420,note_on,0,0,6,,,,,,,,,10,,,,72,100
120423,note_on,0,0,7,,,,,,,,,11,,,,72,100
120423,note_on,10,0,7,,,,,,,,,11,,,,82,100
120440,note_on,20,0,6,,,,,,,,,10,,,,72,0
120440,note_on,0,0,6,,,,,,,,,10,,,,84,0
120443,note_on,20,0,7,,,,,,,,,11,,,,72,0
120443,note_on,0,0,7,,,,,,,,,11,,,,82,0
120450,note_on,10,0,6,,,,,,,,,10,,,,72,92
120450,note_on,0,0,6,,,,,,,,,10,,,,84,92
120453,note_on,10,0,7,,,,,,,,,11,,,,82,92
120453,note_on,0,0,7,,,,,,,,,11,,,,72,92
120470,note_on,20,0,6,,,,,,,,,10,,,,84,0
120470,note_on,0,0,6,,,,,,,,,10,,,,72,0
120473,note_on,20,0,7,,,,,,,,,11,,,,72,0
120473,note_on,0,0,7,,,,,,,,,11,,,,82,0
120476,note_on,230,0,8,,,,,,,,,12,,,,60,0
120480,note_on,10,0,6,,,,,,,,,10,,,,72,100
120480,set_tempo,120,1,0,,,,,,355030,,,,,,,,
120480,note_on,0,0,6,,,,,,,,,10,,,,84,100
120481,note_on,230,0,9,,,,,,,,,13,,,,48,0
120482,note_on,230,0,3,,,,,,,,,3,,,,60,0
120483,note_on,230,0,10,,,,,,,,,14,,,,36,0
120483,note_on,0,0,7,,,,,,,,,11,,,,72,100
120483,note_on,10,0,7,,,,,,,,,11,,,,82,100
120486,note_on,10,0,8,,,,,,,,,12,,,,64,98
120491,note_on,10,0,9,,,,,,,,,13,,,,52,89
120492,note_on,10,0,3,,,,,,,,,3,,,,64,81
120493,note_on,10,0,10,,,,,,,,,14,,,,40,73
120500,note_on,0,0,6,,,,,,,,,10,,,,72,0
120500,note_on,20,0,6,,,,,,,,,10,,,,84,0
120503,note_on,20,0,7,,,,,,,,,11,,,,72,0
120503,note_on,0,0,7,,,,,,,,,11,,,,82,0
120510,note_on,0,0,6,,,,,,,,,10,,,,84,92
120510,note_on,10,0,6,,,,,,,,,10,,,,72,92
120513,note_on,0,0,7,,,,,,,,,11,,,,72,92
120513,note_on,10,0,7,,,,,,,,,11,,,,82,92
120530,note_on,20,0,6,,,,,,,,,10,,,,84,0
120530,note_on,0,0,6,,,,,,,,,10,,,,72,0
120533,note_on,0,0,7,,,,,,,,,11,,,,82,0
120533,note_on,20,0,7,,,,,,,,,11,,,,72,0
120540,note_on,10,0,6,,,,,,,,,10,,,,84,100
120540,note_on,0,0,6,,,,,,,,,10,,,,72,100
120543,note_on,0,0,7,,,,,,,,,11,,,,72,100
120543,note_on,10,0,7,,,,,,,,,11,,,,82,100
120560,note_on,20,0,6,,,,,,,,,10,,,,72,0
120560,note_on,0,0,6,,,,,,,,,10,,,,84,0
120563,note_on,20,0,7,,,,,,,,,11,,,,72,0
120563,note_on,0,0,7,,,,,,,,,11,,,,82,0
120570,note_on,10,0,6,,,,,,,,,10,,,,84,92
120570,note_on,0,0,6,,,,,,,,,10,,,,72,92
120573,note_on,0,0,7,,,,,,,,,11,,,,82,92
120573,note_on,10,0,7,,,,,,,,,11,,,,72,92
120590,note_on,20,0,6,,,,,,,,,10,,,,72,0
120590,note_on,0,0,6,,,,,,,,,10,,,,84,0
120593,note_on,20,0,7,,,,,,,,,11,,,,82,0
120593,note_on,0,0,7,,,,,,,,,11,,,,72,0
120596,note_on,110,0,8,,,,,,,,,12,,,,64,0
120600,note_on,10,0,6,,,,,,,,,10,,,,84,100
120600,set_tempo,120,1,0,,,,,,382166,,,,,,,,
120600,note_on,0,0,6,,,,,,,,,10,,,,72,100
120601,note_on,110,0,9,,,,,,,,,13,,,,52,0
120602,note_on,110,0,3,,,,,,,,,3,,,,64,0
120603,note_on,0,0,7,,,,,,,,,11,,,,72,100
120603,note_on,10,0,7,,,,,,,,,11,,,,82,100
120603,note_on,110,0,10,,,,,,,,,14,,,,40,0
120606,note_on,10,0,8,,,,,,,,,12,,,,72,98
120611,note_on,10,0,9,,,,,,,,,13,,,,60,89
120612,note_on,10,0,3,,,,,,,,,3,,,,60,81
120613,note_on,10,0,10,,,,,,,,,14,,,,48,73
120620,note_on,0,0,6,,,,,,,,,10,,,,84,0
120620,note_on,20,0,6,,,,,,,,,10,,,,72,0
120623,note_on,20,0,7,,,,,,,,,11,,,,72,0
120623,note_on,0,0,7,,,,,,,,,11,,,,82,0
120630,note_on,0,0,6,,,,,,,,,10,,,,84,92
120630,note_on,10,0,6,,,,,,,,,10,,,,72,92
120633,note_on,0,0,7,,,,,,,,,11,,,,72,92
120633,note_on,10,0,7,,,,,,,,,11,,,,82,92
120650,note_on,0,0,6,,,,,,,,,10,,,,72,0
120650,note_on,20,0,6,,,,,,,,,10,,,,84,0
120653,note_on,20,0,7,,,,,,,,,11,,,,72,0
120653,note_on,0,0,7,,,,,,,,,11,,,,82,0
120660,note_on,10,0,6,,,,,,,,,10,,,,72,100
120660,note_on,0,0,6,,,,,,,,,10,,,,84,100
120663,note_on,0,0,7,,,,,,,,,11,,,,82,100
120663,note_on,10,0,7,,,,,,,,,11,,,,72,100
120680,note_on,20,0,6,,,,,,,,,10,,,,84,0
120680,note_on,0,0,6,,,,,,,,,10,,,,72,0
120683,note_on,0,0,7,,,,,,,,,11,,,,72,0
120683,note_on,20,0,7,,,,,,,,,11,,,,82,0
120690,note_on,10,0,6,,,,,,,,,10,,,,84,92
120690,set_tempo,90,1,0,,,,,,508475,,,,,,,,
120690,note_on,0,0,6,,,,,,,,,10,,,,72,92
120693,note_on,0,0,7,,,,,,,,,11,,,,82,92
120693,note_on,10,0,7,,,,,,,,,11,,,,72,92
120710,note_on,20,0,6,,,,,,,,,10,,,,72,0
120710,note_on,0,0,6,,,,,,,,,10,,,,84,0
120713,note_on,0,0,7,,,,,,,,,11,,,,72,0
120713,note_on,20,0,7,,,,,,,,,11,,,,82,0
120713,note_on,950,0,1,,,,,,,,,0,,,,84,0
120714,note_on,950,0,4,,,,,,,,,4,,,,60,0
120715,note_on,0,0,2,,,,,,,,,1,,,,82,0
120715,note_on,950,0,2,,,,,,,,,1,,,,79,0
120716,note_on,950,0,5,,,,,,,,,5,,,,58,0
120716,note_on,110,0,8,,,,,,,,,12,,,,72,0
120720,set_tempo,30,1,0,,,,,,355030,,,,,,,,
120720,control_change,10,0,6,,,,,,,,,10,11,103,,,
120720,note_on,0,0,6,,,,,,,,,10,,,,65,100
120721,note_on,110,0,9,,,,,,,,,13,,,,60,0
120722,note_on,110,0,3,,,,,,,,,3,,,,60,0
120723,control_change,10,0,7,,,,,,,,,11,11,103,,,
120723,note_on,0,0,7,,,,,,,,,11,,,,65,100
120723,note_on,10,0,1,,,,,,,,,0,,,,77,82
120723,note_on,110,0,10,,,,,,,,,14,,,,48,0
120724,note_on,10,0,4,,,,,,,,,4,,,,53,86
120725,note_on,10,0,2,,,,,,,,,1,,,,65,81
120726,note_on,10,0,5,,,,,,,,,5,,,,53,86
120726,note_on,10,0,8,,,,,,,,,12,,,,56,98
120731,note_on,10,0,9,,,,,,,,,13,,,,53,89
120732,note_on,0,0,3,,,,,,,,,3,,,,53,81
120732,note_on,10,0,3,,,,,,,,,3,,,,56,81
120733,note_on,10,0,10,,,,,,,,,14,,,,41,73
120738,control_change,18,0,6,,,,,,,,,10,11,101,,,
120741,control_change,18,0,7,,,,,,,,,11,11,101,,,
120746,note_on,20,0,8,,,,,,,,,12,,,,56,0
120751,note_on,20,0,9,,,,,,,,,13,,,,53,0
120753,note_on,20,0,10,,,,,,,,,14,,,,41,0
120756,note_on,10,0,8,,,,,,,,,12,,,,56,90
120756,control_change,18,0,6,,,,,,,,,10,11,99,,,
120759,control_change,18,0,7,,,,,,,,,11,11,99,,,
120761,note_on,10,0,9,,,,,,,,,13,,,,53,81
120763,note_on,10,0,10,,,,,,,,,14,,,,41,65
120774,control_change,18,0,6,,,,,,,,,10,11,97,,,
120776,note_on,20,0,8,,,,,,,,,12,,,,56,0
120777,control_change,18,0,7,,,,,,,,,11,11,97,,,
120781,note_on,20,0,9,,,,,,,,,13,,,,53,0
120783,note_on,20,0,10,,,,,,,,,14,,,,41,0
120786,note_on,10,0,8,,,,,,,,,12,,,,56,98
120791,note_on,10,0,9,,,,,,,,,13,,,,53,89
120792,control_change,18,0,6,,,,,,,,,10,11,95,,,
120793,note_on,10,0,10,,,,,,,,,14,,,,41,73
120795,control_change,18,0,7,,,,,,,,,11,11,95,,,
120806,note_on,20,0,8,,,,,,,,,12,,,,56,0
120810,control_change,18,0,6,,,,,,,,,10,11,93,,,
120811,note_on,20,0,9,,,,,,,,,13,,,,53,0
120813,control_change,18,0,7,,,,,,,,,11,11,93,,,
120813,note_on,20,0,10,,,,,,,,,14,,,,41,0
120816,note_on,10,0,8,,,,,,,,,12,,,,56,90
120821,note_on,10,0,9,,,,,,,,,13,,,,53,81
120823,note_on,10,0,10,,,,,,,,,14,,,,41,65
120828,control_change,18,0,6,,,,,,,,,10,11,91,,,
120831,control_change,18,0,7,,,,,,,,,11,11,91,,,
120836,note_on,20,0,8,,,,,,,,,12,,,,56,0
120840,set_tempo,120,1,0,,,,,,382166,,,,,,,,
120841,note_on,20,0,9,,,,,,,,,13,,,,53,0
120843,note_on,20,0,10,,,,,,,,,14,,,,41,0
120846,note_on,10,0,8,,,,,,,,,12,,,,56,98
120851,note_on,10,0,9,,,,,,,,,13,,,,53,89
120853,note_on,10,0,10,,,,,,,,,14,,,,41,73
120866,note_on,20,0,8,,,,,,,,,12,,,,56,0
120871,note_on,20,0,9,,,,,,,,,13,,,,53,0
120873,note_on,20,0,10,,,,,,,,,14,,,,41,0
120876,note_on,10,0,8,,,,,,,,,12,,,,56,90
120881,note_on,10,0,9,,,,,,,,,13,,,,53,81
120883,note_on,10,0,10,,,,,,,,,14,,,,41,65
120896,note_on,20,0,8,,,,,,,,,12,,,,56,0
120901,note_on,20,0,9,,,,,,,,,13,,,,53,0
120903,note_on,20,0,10,,,,,,,,,14,,,,41,0
120906,note_on,10,0,8,,,,,,,,,12,,,,56,98
120911,note_on,10,0,9,,,,,,,,,13,,,,53,89
120913,note_on,10,0,10,,,,,,,,,14,,,,41,73
120926,note_on,20,0,8,,,,,,,,,12,,,,56,0
120931,note_on,20,0,9,,,,,,,,,13,,,,53,0
120933,note_on,20,0,10,,,,,,,,,14,,,,41,0
120936,note_on,10,0,8,,,,,,,,,12,,,,56,90
120941,note_on,10,0,9,,,,,,,,,13,,,,53,81
120943,note_on,10,0,10,,,,,,,,,14,,,,41,65
120950,note_on,122,0,6,,,,,,,,,10,,,,65,0
120953,note_on,122,0,7,,,,,,,,,11,,,,65,0
120953,note_on,230,0,1,,,,,,,,,0,,,,77,0
120955,note_on,230,0,2,,,,,,,,,1,,,,65,0
120956,note_on,20,0,8,,,,,,,,,12,,,,56,0
120960,set_tempo,120,1,0,,,,,,355030,,,,,,,,
120960,control_change,10,0,6,,,,,,,,,10,11,103,,,
120960,note_on,0,0,6,,,,,,,,,10,,,,68,100
120961,note_on,20,0,9,,,,,,,,,13,,,,53,0
120963,note_on,10,0,1,,,,,,,,,0,,,,80,82
120963,control_change,10,0,7,,,,,,,,,11,11,103,,,
120963,note_on,0,0,7,,,,,,,,,11,,,,56,100
120963,note_on,20,0,10,,,,,,,,,14,,,,41,0
120965,note_on,10,0,2,,,,,,,,,1,,,,68,81
120966,note_on,10,0,8,,,,,,,,,12,,,,56,98
120971,note_on,10,0,9,,,,,,,,,13,,,,53,89
120973,note_on,10,0,10,,,,,,,,,14,,,,41,73
120978,control_change,18,0,6,,,,,,,,,10,11,101,,,
120981,control_change,18,0,7,,,,,,,,,11,11,101,,,
120986,note_on,20,0,8,,,,,,,,,12,,,,56,0
120991,note_on,20,0,9,,,,,,,,,13,,,,53,0
120993,note_on,20,0,10,,,,,,,,,14,,,,41,0
120996,note_on,10,0,8,,,,,,,,,12,,,,56,90
120996,control_change,18,0,6,,,,,,,,,10,11,99,,,
120999,control_change,18,0,7,,,,,,,,,11,11,99,,,
121001,note_on,10,0,9,,,,,,,,,13,,,,53,81
121003,note_on,10,0,10,,,,,,,,,14,,,,41,65
121014,control_change,18,0,6,,,,,,,,,10,11,97,,,
121016,note_on,20,0,8,,,,,,,,,12,,,,56,0
121017,control_change,18,0,7,,,,,,,,,11,11,97,,,
121021,note_on,20,0,9,,,,,,,,,13,,,,53,0
121023,note_on,20,0,10,,,,,,,,,14,,,,41,0
121026,note_on,10,0,8,,,,,,,,,12,,,,56,98
121031,note_on,10,0,9,,,,,,,,,13,,,,53,89
121032,control_change,18,0,6,,,,,,,,,10,11,95,,,
121033,note_on,10,0,10,,,,,,,,,14,,,,41,73
121035,control_change,18,0,7,,,,,,,,,11,11,95,,,
121046,note_on,20,0,8,,,,,,,,,12,,,,56,0
121050,control_change,18,0,6,,,,,,,,,10,11,93,,,
121051,note_on,20,0,9,,,,,,,,,13,,,,53,0
121053,note_on,20,0,10,,,,,,,,,14,,,,41,0
121053,control_change,18,0,7,,,,,,,,,11,11,93,,,
121056,note_on,10,0,8,,,,,,,,,12,,,,56,90
121061,note_on,10,0,9,,,,,,,,,13,,,,53,81
121063,note_on,10,0,10,,,,,,,,,14,,,,41,65
121068,control_change,18,0,6,,,,,,,,,10,11,91,,,
121071,control_change,18,0,7,,,,,,,,,11,11,91,,,
121076,note_on,20,0,8,,,,,,,,,12,,,,56,0
121080,set_tempo,120,1,0,,,,,,382166,,,,,,,,
121081,note_on,20,0,9,,,,,,,,,13,,,,53,0
121083,note_on,20,0,10,,,,,,,,,14,,,,41,0
121086,note_on,10,0,8,,,,,,,,,12,,,,56,98
121091,note_on,10,0,9,,,,,,,,,13,,,,53,89
121093,note_on,10,0,10,,,,,,,,,14,,,,41,73
121106,note_on,20,0,8,,,,,,,,,12,,,,56,0
121111,note_on,20,0,9,,,,,,,,,13,,,,53,0
121113,note_on,20,0,10,,,,,,,,,14,,,,41,0
121116,note_on,10,0,8,,,,,,,,,12,,,,56,90
121121,note_on,10,0,9,,,,,,,,,13,,,,53,81
121123,note_on,10,0,10,,,,,,,,,14,,,,41,65
121136,note_on,20,0,8,,,,,,,,,12,,,,56,0
121141,note_on,20,0,9,,,,,,,,,13,,,,53,0
121143,note_on,20,0,10,,,,,,,,,14,,,,41,0
121146,note_on,10,0,8,,,,,,,,,12,,,,56,98
121151,note_on,10,0,9,,,,,,,,,13,,,,53,89
121153,note_on,10,0,10,,,,,,,,,14,,,,41,73
121166,note_on,20,0,8,,,,,,,,,12,,,,56,0
121171,note_on,20,0,9,,,,,,,,,13,,,,53,0
121173,note_on,20,0,10,,,,,,,,,14,,,,41,0
121176,note_on,10,0,8,,,,,,,,,12,,,,56,90
121181,note_on,10,0,9,,,,,,,,,13,,,,53,81
121183,note_on,10,0,10,,,,,,,,,14,,,,41,65
121190,note_on,122,0,6,,,,,,,,,10,,,,68,0
121193,note_on,230,0,1,,,,,,,,,0,,,,80,0
121193,note_on,122,0,7,,,,,,,,,11,,,,56,0
121195,note_on,230,0,2,,,,,,,,,1,,,,68,0
121196,note_on,20,0,8,,,,,,,,,12,,,,56,0
121200,note_on,0,0,6,,,,,,,,,10,,,,73,100
121200,control_change,10,0,6,,,,,,,,,10,11,103,,,
121200,set_tempo,120,1,0,,,,,,355030,,,,,,,,
121201,note_on,20,0,9,,,,,,,,,13,,,,53,0
121203,note_on,10,0,1,,,,,,,,,0,,,,85,82
121203,note_on,20,0,10,,,,,,,,,14,,,,41,0
121203,note_on,0,0,7,,,,,,,,,11,,,,61,100
121203,control_change,10,0,7,,,,,,,,,11,11,103,,,
121205,note_on,10,0,2,,,,,,,,,1,,,,73,81
121206,note_on,10,0,8,,,,,,,,,12,,,,56,98
121211,note_on,10,0,9,,,,,,,,,13,,,,53,89
121213,note_on,10,0,10,,,,,,,,,14,,,,41,73
121218,control_change,18,0,6,,,,,,,,,10,11,101,,,
121221,control_change,18,0,7,,,,,,,,,11,11,101,,,
121226,note_on,20,0,8,,,,,,,,,12,,,,56,0
121231,note_on,20,0,9,,,,,,,,,13,,,,53,0
121233,note_on,20,0,10,,,,,,,,,14,,,,41,0
121236,control_change,18,0,6,,,,,,,,,10,11,99,,,
121236,note_on,10,0,8,,,,,,,,,12,,,,56,90
121239,control_change,18,0,7,,,,,,,,,11,11,99,,,
121241,note_on,10,0,9,,,,,,,,,13,,,,53,81
121243,note_on,10,0,10,,,,,,,,,14,,,,41,65
121254,control_change,18,0,6,,,,,,,,,10,11,97,,,
121256,note_on,20,0,8,,,,,,,,,12,,,,56,0
121257,control_change,18,0,7,,,,,,,,,11,11,97,,,
121261,note_on,20,0,9,,,,,,,,,13,,,,53,0
121263,note_on,20,0,10,,,,,,,,,14,,,,41,0
121266,note_on,10,0,8,,,,,,,,,12,,,,56,98
121271,note_on,10,0,9,,,,,,,,,13,,,,53,89
121272,control_change,18,0,6,,,,,,,,,10,11,95,,,
121273,note_on,10,0,10,,,,,,,,,14,,,,41,73
121275,control_change,18,0,7,,,,,,,,,11,11,95,,,
121286,note_on,20,0,8,,,,,,,,,12,,,,56,0
121290,control_change,18,0,6,,,,,,,,,10,11,93,,,
121291,note_on,20,0,9,,,,,,,,,13,,,,53,0
121293,note_on,20,0,10,,,,,,,,,14,,,,41,0
121293,control_change,18,0,7,,,,,,,,,11,11,93,,,
121296,note_on,10,0,8,,,,,,,,,12,,,,56,90
121301,note_on,10,0,9,,,,,,,,,13,,,,53,81
121303,note_on,10,0,10,,,,,,,,,14,,,,41,65
121308,control_change,18,0,6,,,,,,,,,10,11,91,,,
121311,control_change,18,0,7,,,,,,,,,11,11,91,,,
121316,note_on,20,0,8,,,,,,,,,12,,,,56,0
121320,set_tempo,120,1,0,,,,,,382166,,,,,,,,
121321,note_on,20,0,9,,,,,,,,,13,,,,53,0
121323,note_on,20,0,10,,,,,,,,,14,,,,41,0
121326,note_on,10,0,8,,,,,,,,,12,,,,56,98
121331,note_on,10,0,9,,,,,,,,,13,,,,53,89
121333,note_on,10,0,10,,,,,,,,,14,,,,41,73
121346,note_on,20,0,8,,,,,,,,,12,,,,56,0
121351,note_on,20,0,9,,,,,,,,,13,,,,53,0
121353,note_on,20,0,10,,,,,,,,,14,,,,41,0
121356,note_on,10,0,8,,,,,,,,,12,,,,56,90
121361,note_on,10,0,9,,,,,,,,,13,,,,53,81
121363,note_on,10,0,10,,,,,,,,,14,,,,41,65
121376,note_on,20,0,8,,,,,,,,,12,,,,56,0
121381,note_on,20,0,9,,,,,,,,,13,,,,53,0
121383,note_on,20,0,10,,,,,,,,,14,,,,41,0
121386,note_on,10,0,8,,,,,,,,,12,,,,56,98
121391,note_on,10,0,9,,,,,,,,,13,,,,53,89
121393,note_on,10,0,10,,,,,,,,,14,,,,41,73
121406,note_on,20,0,8,,,,,,,,,12,,,,56,0
121411,note_on,20,0,9,,,,,,,,,13,,,,53,0
121413,note_on,20,0,10,,,,,,,,,14,,,,41,0
121416,note_on,10,0,8,,,,,,,,,12,,,,56,90
121421,note_on,10,0,9,,,,,,,,,13,,,,53,81
121423,note_on,10,0,10,,,,,,,,,14,,,,41,65
121430,note_on,122,0,6,,,,,,,,,10,,,,73,0
121433,note_on,230,0,1,,,,,,,,,0,,,,85,0
121433,note_on,122,0,7,,,,,,,,,11,,,,61,0
121435,note_on,230,0,2,,,,,,,,,1,,,,73,0
121436,note_on,20,0,8,,,,,,,,,12,,,,56,0
121440,set_tempo,120,1,0,,,,,,355030,,,,,,,,
121440,note_on,0,0,6,,,,,,,,,10,,,,77,100
121440,control_change,10,0,6,,,,,,,,,10,11,103,,,
121441,note_on,20,0,9,,,,,,,,,13,,,,53,0
121443,control_change,10,0,7,,,,,,,,,11,11,103,,,
121443,note_on,20,0,10,,,,,,,,,14,,,,41,0
121443,note_on,10,0,1,,,,,,,,,0,,,,89,82
121443,note_on,0,0,7,,,,,,,,,11,,,,65,100
121445,note_on,10,0,2,,,,,,,,,1,,,,77,81
121446,note_on,10,0,8,,,,,,,,,12,,,,56,98
121451,note_on,10,0,9,,,,,,,,,13,,,,53,89
121453,note_on,10,0,10,,,,,,,,,14,,,,41,73
121458,control_change,18,0,6,,,,,,,,,10,11,101,,,
121461,control_change,18,0,7,,,,,,,,,11,11,101,,,
121466,note_on,20,0,8,,,,,,,,,12,,,,56,0
121471,note_on,20,0,9,,,,,,,,,13,,,,53,0
121473,note_on,20,0,10,,,,,,,,,14,,,,41,0
121476,control_change,18,0,6,,,,,,,,,10,11,99,,,
121476,note_on,10,0,8,,,,,,,,,12,,,,56,90
121479,control_change,18,0,7,,,,,,,,,11,11,99,,,
121481,note_on,10,0,9,,,,,,,,,13,,,,53,81
121483,note_on,10,0,10,,,,,,,,,14,,,,41,65
121494,control_change,18,0,6,,,,,,,,,10,11,97,,,
121496,note_on,20,0,8,,,,,,,,,12,,,,56,0
121497,control_change,18,0,7,,,,,,,,,11,11,97,,,
121501,note_on,20,0,9,,,,,,,,,13,,,,53,0
121503,note_on,20,0,10,,,,,,,,,14,,,,41,0
121506,note_on,10,0,8,,,,,,,,,12,,,,56,98
121511,note_on,10,0,9,,,,,,,,,13,,,,53,89
121512,control_change,18,0,6,,,,,,,,,10,11,95,,,
121513,note_on,10,0,10,,,,,,,,,14,,,,41,73
121515,control_change,18,0,7,,,,,,,,,11,11,95,,,
121526,note_on,20,0,8,,,,,,,,,12,,,,56,0
121530,control_change,18,0,6,,,,,,,,,10,11,93,,,
121531,note_on,20,0,9,,,,,,,,,13,,,,53,0
121533,control_change,18,0,7,,,,,,,,,11,11,93,,,
121533,note_on,20,0,10,,,,,,,,,14,,,,41,0
121536,note_on,10,0,8,,,,,,,,,12,,,,56,90
121540,note_on,10,0,6,,,,,,,,,10,,,,77,0
121541,note_on,10,0,9,,,,,,,,,13,,,,53,81
121543,note_on,100,0,1,,,,,,,,,0,,,,89,0
121543,note_on,10,0,7,,,,,,,,,11,,,,65,0
121543,note_on,10,0,10,,,,,,,,,14,,,,41,65
121545,note_on,100,0,2,,,,,,,,,1,,,,77,0
121548,control_change,8,0,6,,,,,,,,,10,11,91,,,
121551,control_change,8,0,7,,,,,,,,,11,11,91,,,
121556,note_on,20,0,8,,,,,,,,,12,,,,56,0
121560,set_tempo,120,1,0,,,,,,382166,,,,,,,,
121560,note_on,0,0,6,,,,,,,,,10,,,,80,100
121560,control_change,12,0,6,,,,,,,,,10,11,103,,,
121561,note_on,20,0,9,,,,,,,,,13,,,,53,0
121563,note_on,20,0,10,,,,,,,,,14,,,,41,0
121563,control_change,12,0,7,,,,,,,,,11,11,103,,,
121563,note_on,0,0,7,,,,,,,,,11,,,,68,100
121563,note_on,20,0,1,,,,,,,,,0,,,,92,82
121565,note_on,20,0,2,,,,,,,,,1,,,,80,81
121566,note_on,10,0,8,,,,,,,,,12,,,,56,98
121571,note_on,10,0,9,,,,,,,,,13,,,,53,89
121573,note_on,10,0,10,,,,,,,,,14,,,,41,73
121578,control_change,18,0,6,,,,,,,,,10,11,101,,,
121581,control_change,18,0,7,,,,,,,,,11,11,101,,,
121586,note_on,20,0,8,,,,,,,,,12,,,,56,0
121591,note_on,20,0,9,,,,,,,,,13,,,,53,0
121593,note_on,20,0,10,,,,,,,,,14,,,,41,0
121596,note_on,10,0,8,,,,,,,,,12,,,,56,90
121596,control_change,18,0,6,,,,,,,,,10,11,99,,,
121599,control_change,18,0,7,,,,,,,,,11,11,99,,,
121601,note_on,10,0,9,,,,,,,,,13,,,,53,81
121603,note_on,10,0,10,,,,,,,,,14,,,,41,65
121614,control_change,18,0,6,,,,,,,,,10,11,97,,,
121616,note_on,20,0,8,,,,,,,,,12,,,,56,0
121617,control_change,18,0,7,,,,,,,,,11,11,97,,,
121621,note_on,20,0,9,,,,,,,,,13,,,,53,0
121623,note_on,20,0,10,,,,,,,,,14,,,,41,0
121626,note_on,10,0,8,,,,,,,,,12,,,,56,98
121631,note_on,10,0,9,,,,,,,,,13,,,,53,89
121632,control_change,18,0,6,,,,,,,,,10,11,95,,,
121633,note_on,10,0,10,,,,,,,,,14,,,,41,73
121635,control_change,18,0,7,,,,,,,,,11,11,95,,,
121646,note_on,20,0,8,,,,,,,,,12,,,,56,0
121650,control_change,18,0,6,,,,,,,,,10,11,93,,,
121650,set_tempo,90,1,0,,,,,,463320,,,,,,,,
121651,note_on,20,0,9,,,,,,,,,13,,,,53,0
121653,note_on,20,0,10,,,,,,,,,14,,,,41,0
121653,control_change,18,0,7,,,,,,,,,11,11,93,,,
121656,note_on,10,0,8,,,,,,,,,12,,,,56,90
121660,note_on,10,0,6,,,,,,,,,10,,,,80,0
121661,note_on,10,0,9,,,,,,,,,13,,,,53,81
121663,note_on,10,0,10,,,,,,,,,14,,,,41,65
121663,note_on,10,0,7,,,,,,,,,11,,,,68,0
121665,note_on,100,0,2,,,,,,,,,1,,,,80,0
121668,control_change,8,0,6,,,,,,,,,10,11,91,,,
121671,control_change,8,0,7,,,,,,,,,11,11,91,,,
121673,note_on,110,0,1,,,,,,,,,0,,,,92,0
121674,note_on,950,0,4,,,,,,,,,4,,,,53,0
121676,note_on,950,0,5,,,,,,,,,5,,,,53,0
121676,note_on,20,0,8,,,,,,,,,12,,,,56,0
121680,note_on,0,0,6,,,,,,,,,10,,,,74,100
121680,set_tempo,30,1,0,,,,,,355030,,,,,,,,
121680,note_on,12,0,6,,,,,,,,,10,,,,79,100
121681,note_on,20,0,9,,,,,,,,,13,,,,53,0
121682,note_on,950,0,3,,,,,,,,,3,,,,53,0
121682,note_on,0,0,3,,,,,,,,,3,,,,56,0
121683,note_on,0,0,7,,,,,,,,,11,,,,74,100
121683,note_on,10,0,1,,,,,,,,,0,,,,91,82
121683,note_on,12,0,7,,,,,,,,,11,,,,77,100
121683,note_on,20,0,10,,,,,,,,,14,,,,41,0
121684,note_on,10,0,4,,,,,,,,,4,,,,65,86
121685,note_on,20,0,2,,,,,,,,,1,,,,77,81
121685,note_on,0,0,2,,,,,,,,,1,,,,74,81
121686,note_on,10,0,5,,,,,,,,,5,,,,62,86
121686,note_on,10,0,8,,,,,,,,,12,,,,59,98
121691,note_on,10,0,9,,,,,,,,,13,,,,47,89
121692,note_on,10,0,3,,,,,,,,,3,,,,47,81
121693,note_on,10,0,10,,,,,,,,,14,,,,35,73
121700,note_on,0,0,6,,,,,,,,,10,,,,79,0
121700,note_on,20,0,6,,,,,,,,,10,,,,74,0
121703,note_on,0,0,7,,,,,,,,,11,,,,77,0
121703,note_on,20,0,7,,,,,,,,,11,,,,74,0
121710,note_on,10,0,6,,,,,,,,,10,,,,79,92
121710,note_on,0,0,6,,,,,,,,,10,,,,74,92
121713,note_on,10,0,7,,,,,,,,,11,,,,74,92
121713,note_on,0,0,7,,,,,,,,,11,,,,77,92
121730,note_on,0,0,6,,,,,,,,,10,,,,79,0
121730,note_on,20,0,6,,,,,,,,,10,,,,74,0
121733,note_on,0,0,7,,,,,,,,,11,,,,74,0
121733,note_on,20,0,7,,,,,,,,,11,,,,77,0
121740,note_on,10,0,6,,,,,,,,,10,,,,79,100
121740,note_on,0,0,6,,,,,,,,,10,,,,74,100
121743,note_on,10,0,7,,,,,,,,,11,,,,74,100
121743,note_on,0,0,7,,,,,,,,,11,,,,77,100
121760,note_on,0,0,6,,,,,,,,,10,,,,79,0
121760,note_on,20,0,6,,,,,,,,,10,,,,74,0
121763,note_on,0,0,7,,,,,,,,,11,,,,74,0
121763,note_on,20,0,7,,,,,,,,,11,,,,77,0
121770,note_on,0,0,6,,,,,,,,,10,,,,74,92
121770,note_on,10,0,6,,,,,,,,,10,,,,79,92
121773,note_on,10,0,7,,,,,,,,,11,,,,77,92
121773,note_on,0,0,7,,,,,,,,,11,,,,74,92
121790,note_on,0,0,6,,,,,,,,,10,,,,79,0
121790,note_on,20,0,6,,,,,,,,,10,,,,74,0
121793,note_on,20,0,7,,,,,,,,,11,,,,74,0
121793,note_on,0,0,7,,,,,,,,,11,,,,77,0
121800,note_on,0,0,6,,,,,,,,,10,,,,79,100
121800,note_on,10,0,6,,,,,,,,,10,,,,74,100
121800,set_tempo,120,1,0,,,,,,382166,,,,,,,,
121803,note_on,10,0,7,,,,,,,,,11,,,,74,100
121803,note_on,0,0,7,,,,,,,,,11,,,,77,100
121820,note_on,20,0,6,,,,,,,,,10,,,,79,0
121820,note_on,0,0,6,,,,,,,,,10,,,,74,0
121823,note_on,20,0,7,,,,,,,,,11,,,,77,0
121823,note_on,0,0,7,,,,,,,,,11,,,,74,0
121830,note_on,10,0,6,,,,,,,,,10,,,,74,92
121830,note_on,0,0,6,,,,,,,,,10,,,,79,92
121833,note_on,10,0,7,,,,,,,,,11,,,,77,92
121833,note_on,0,0,7,,,,,,,,,11,,,,74,92
121850,note_on,0,0,6,,,,,,,,,10,,,,74,0
121850,note_on,20,0,6,,,,,,,,,10,,,,79,0
121853,note_on,0,0,7,,,,,,,,,11,,,,77,0
121853,note_on,20,0,7,,,,,,,,,11,,,,74,0
121860,note_on,0,0,6,,,,,,,,,10,,,,74,100
121860,note_on,10,0,6,,,,,,,,,10,,,,79,100
121863,note_on,10,0,7,,,,,,,,,11,,,,74,100
121863,note_on,0,0,7,,,,,,,,,11,,,,77,100
121880,note_on,0,0,6,,,,,,,,,10,,,,79,0
121880,note_on,20,0,6,,,,,,,,,10,,,,74,0
121883,note_on,20,0,7,,,,,,,,,11,,,,77,0
121883,note_on,0,0,7,,,,,,,,,11,,,,74,0
121890,note_on,0,0,6,,,,,,,,,10,,,,74,92
121890,note_on,10,0,6,,,,,,,,,10,,,,79,92
121893,note_on,0,0,7,,,,,,,,,11,,,,77,92
121893,note_on,10,0,7,,,,,,,,,11,,,,74,92
121910,note_on,0,0,6,,,,,,,,,10,,,,79,0
121910,note_on,20,0,6,,,,,,,,,10,,,,74,0
121913,note_on,0,0,7,,,,,,,,,11,,,,74,0
121913,note_on,20,0,7,,,,,,,,,11,,,,77,0
121916,note_on,230,0,8,,,,,,,,,12,,,,59,0
121920,note_on,10,0,6,,,,,,,,,10,,,,74,100
121920,set_tempo,120,1,0,,,,,,355030,,,,,,,,
121920,note_on,0,0,6,,,,,,,,,10,,,,79,100
121921,note_on,230,0,9,,,,,,,,,13,,,,47,0
121922,note_on,230,0,3,,,,,,,,,3,,,,47,0
121923,note_on,230,0,10,,,,,,,,,14,,,,35,0
121923,note_on,0,0,7,,,,,,,,,11,,,,74,100
121923,note_on,10,0,7,,,,,,,,,11,,,,77,100
121926,note_on,10,0,8,,,,,,,,,12,,,,62,98
121931,note_on,10,0,9,,,,,,,,,13,,,,50,89
121932,note_on,10,0,3,,,,,,,,,3,,,,50,81
121933,note_on,10,0,10,,,,,,,,,14,,,,38,73
121940,note_on,0,0,6,,,,,,,,,10,,,,74,0
121940,note_on,20,0,6,,,,,,,,,10,,,,79,0
121943,note_on,20,0,7,,,,,,,,,11,,,,74,0
121943,note_on,0,0,7,,,,,,,,,11,,,,77,0
121950,note_on,10,0,6,,,,,,,,,10,,,,79,92
121950,note_on,0,0,6,,,,,,,,,10,,,,74,92
121953,note_on,10,0,7,,,,,,,,,11,,,,74,92
121953,note_on,0,0,7,,,,,,,,,11,,,,77,92
121970,note_on,20,0,6,,,,,,,,,10,,,,74,0
121970,note_on,0,0,6,,,,,,,,,10,,,,79,0
121973,note_on,20,0,7,,,,,,,,,11,,,,77,0
121973,note_on,0,0,7,,,,,,,,,11,,,,74,0
121980,note_on,0,0,6,,,,,,,,,10,,,,79,100
121980,note_on,10,0,6,,,,,,,,,10,,,,74,100
121983,note_on,0,0,7,,,,,,,,,11,,,,77,100
121983,note_on,10,0,7,,,,,,,,,11,,,,74,100
122000,note_on,0,0,6,,,,,,,,,10,,,,74,0
122000,note_on,20,0,6,,,,,,,,,10,,,,79,0
122003,note_on,0,0,7,,,,,,,,,11,,,,74,0
122003,note_on,20,0,7,,,,,,,,,11,,,,77,0
122010,note_on,10,0,6,,,,,,,,,10,,,,79,92
122010,note_on,0,0,6,,,,,,,,,10,,,,74,92
122013,note_on,0,0,7,,,,,,,,,11,,,,77,92
122013,note_on,10,0,7,,,,,,,,,11,,,,74,92
122030,note_on,20,0,6,,,,,,,,,10,,,,74,0
122030,note_on,0,0,6,,,,,,,,,10,,,,79,0
122033,note_on,20,0,7,,,,,,,,,11,,,,77,0
122033,note_on,0,0,7,,,,,,,,,11,,,,74,0
122040,set_tempo,120,1,0,,,,,,382166,,,,,,,,
122040,note_on,10,0,6,,,,,,,,,10,,,,79,100
122040,note_on,0,0,6,,,,,,,,,10,,,,74,100
122043,note_on,10,0,7,,,,,,,,,11,,,,74,100
122043,note_on,0,0,7,,,,,,,,,11,,,,77,100
122060,note_on,20,0,6,,,,,,,,,10,,,,74,0
122060,note_on,0,0,6,,,,,,,,,10,,,,79,0
122063,note_on,20,0,7,,,,,,,,,11,,,,77,0
122063,note_on,0,0,7,,,,,,,,,11,,,,74,0
122070,note_on,10,0,6,,,,,,,,,10,,,,79,92
122070,note_on,0,0,6,,,,,,,,,10,,,,74,92
122073,note_on,0,0,7,,,,,,,,,11,,,,74,92
122073,note_on,10,0,7,,,,,,,,,11,,,,77,92
122090,note_on,20,0,6,,,,,,,,,10,,,,74,0
122090,note_on,0,0,6,,,,,,,,,10,,,,79,0
122093,note_on,0,0,7,,,,,,,,,11,,,,77,0
122093,note_on,20,0,7,,,,,,,,,11,,,,74,0
122100,note_on,10,0,6,,,,,,,,,10,,,,79,100
122100,note_on,0,0,6,,,,,,,,,10,,,,74,100
122103,note_on,0,0,7,,,,,,,,,11,,,,74,100
122103,note_on,10,0,7,,,,,,,,,11,,,,77,100
122120,note_on,20,0,6,,,,,,,,,10,,,,74,0
122120,note_on,0,0,6,,,,,,,,,10,,,,79,0
122123,note_on,0,0,7,,,,,,,,,11,,,,77,0
122123,note_on,20,0,7,,,,,,,,,11,,,,74,0
122130,note_on,0,0,6,,,,,,,,,10,,,,74,92
122130,note_on,10,0,6,,,,,,,,,10,,,,79,92
122133,note_on,10,0,7,,,,,,,,,11,,,,74,92
122133,note_on,0,0,7,,,,,,,,,11,,,,77,92
122150,note_on,0,0,6,,,,,,,,,10,,,,79,0
122150,note_on,20,0,6,,,,,,,,,10,,,,74,0
122153,note_on,20,0,7,,,,,,,,,11,,,,77,0
122153,note_on,0,0,7,,,,,,,,,11,,,,74,0
122156,note_on,230,0,8,,,,,,,,,12,,,,62,0
122160,set_tempo,120,1,0,,,,,,355030,,,,,,,,
122160,note_on,0,0,6,,,,,,,,,10,,,,74,100
122160,note_on,10,0,6,,,,,,,,,10,,,,79,100
122161,note_on,230,0,9,,,,,,,,,13,,,,50,0
122162,note_on,230,0,3,,,,,,,,,3,,,,50,0
122163,note_on,230,0,10,,,,,,,,,14,,,,38,0
122163,note_on,10,0,7,,,,,,,,,11,,,,77,100
122163,note_on,0,0,7,,,,,,,,,11,,,,74,100
122166,note_on,10,0,8,,,,,,,,,12,,,,67,98
122171,note_on,10,0,9,,,,,,,,,13,,,,55,89
122172,note_on,10,0,3,,,,,,,,,3,,,,55,81
122173,note_on,10,0,10,,,,,,,,,14,,,,43,73
122180,note_on,20,0,6,,,,,,,,,10,,,,74,0
122180,note_on,0,0,6,,,,,,,,,10,,,,79,0
122183,note_on,20,0,7,,,,,,,,,11,,,,74,0
122183,note_on,0,0,7,,,,,,,,,11,,,,77,0
122190,note_on,10,0,6,,,,,,,,,10,,,,74,92
122190,note_on,0,0,6,,,,,,,,,10,,,,79,92
122193,note_on,0,0,7,,,,,,,,,11,,,,77,92
122193,note_on,10,0,7,,,,,,,,,11,,,,74,92
122210,note_on,0,0,6,,,,,,,,,10,,,,74,0
122210,note_on,20,0,6,,,,,,,,,10,,,,79,0
122213,note_on,0,0,7,,,,,,,,,11,,,,74,0
122213,note_on,20,0,7,,,,,,,,,11,,,,77,0
122220,note_on,10,0,6,,,,,,,,,10,,,,79,100
122220,note_on,0,0,6,,,,,,,,,10,,,,74,100
122223,note_on,0,0,7,,,,,,,,,11,,,,77,100
122223,note_on,10,0,7,,,,,,,,,11,,,,74,100
122240,note_on,20,0,6,,,,,,,,,10,,,,74,0
122240,note_on,0,0,6,,,,,,,,,10,,,,79,0
122243,note_on,0,0,7,,,,,,,,,11,,,,74,0
122243,note_on,20,0,7,,,,,,,,,11,,,,77,0
122250,note_on,10,0,6,,,,,,,,,10,,,,74,92
122250,note_on,0,0,6,,,,,,,,,10,,,,79,92
122253,note_on,0,0,7,,,,,,,,,11,,,,77,92
122253,note_on,10,0,7,,,,,,,,,11,,,,74,92
122270,note_on,0,0,6,,,,,,,,,10,,,,74,0
122270,note_on,20,0,6,,,,,,,,,10,,,,79,0
122273,note_on,20,0,7,,,,,,,,,11,,,,77,0
122273,note_on,0,0,7,,,,,,,,,11,,,,74,0
122280,note_on,0,0,6,,,,,,,,,10,,,,74,100
122280,note_on,10,0,6,,,,,,,,,10,,,,79,100
122280,set_tempo,120,1,0,,,,,,382166,,,,,,,,
122283,note_on,10,0,7,,,,,,,,,11,,,,77,100
122283,note_on,0,0,7,,,,,,,,,11,,,,74,100
122300,note_on,0,0,6,,,,,,,,,10,,,,79,0
122300,note_on,20,0,6,,,,,,,,,10,,,,74,0
122303,note_on,20,0,7,,,,,,,,,11,,,,74,0
122303,note_on,0,0,7,,,,,,,,,11,,,,77,0
122310,note_on,10,0,6,,,,,,,,,10,,,,74,92
122310,note_on,0,0,6,,,,,,,,,10,,,,79,92
122313,note_on,10,0,7,,,,,,,,,11,,,,77,92
122313,note_on,0,0,7,,,,,,,,,11,,,,74,92
122330,note_on,20,0,6,,,,,,,,,10,,,,79,0
122330,note_on,0,0,6,,,,,,,,,10,,,,74,0
122333,note_on,0,0,7,,,,,,,,,11,,,,77,0
122333,note_on,20,0,7,,,,,,,,,11,,,,74,0
122340,note_on,10,0,6,,,,,,,,,10,,,,74,100
122340,note_on,0,0,6,,,,,,,,,10,,,,79,100
122343,note_on,0,0,7,,,,,,,,,11,,,,74,100
122343,note_on,10,0,7,,,,,,,,,11,,,,77,100
122360,note_on,0,0,6,,,,,,,,,10,,,,74,0
122360,note_on,20,0,6,,,,,,,,,10,,,,79,0
122363,note_on,0,0,7,,,,,,,,,11,,,,77,0
122363,note_on,20,0,7,,,,,,,,,11,,,,74,0
122370,note_on,0,0,6,,,,,,,,,10,,,,74,92
122370,note_on,10,0,6,,,,,,,,,10,,,,79,92
122373,note_on,10,0,7,,,,,,,,,11,,,,77,92
122373,note_on,0,0,7,,,,,,,,,11,,,,74,92
122390,note_on,0,0,6,,,,,,,,,10,,,,79,0
122390,note_on,20,0,6,,,,,,,,,10,,,,74,0
122393,note_on,20,0,7,,,,,,,,,11,,,,74,0
122393,note_on,0,0,7,,,,,,,,,11,,,,77,0
122396,note_on,230,0,8,,,,,,,,,12,,,,67,0
122400,note_on,0,0,6,,,,,,,,,10,,,,74,100
122400,note_on,10,0,6,,,,,,,,,10,,,,79,100
122400,set_tempo,120,1,0,,,,,,355030,,,,,,,,
122401,note_on,230,0,9,,,,,,,,,13,,,,55,0
122402,note_on,230,0,3,,,,,,,,,3,,,,55,0
122403,note_on,230,0,10,,,,,,,,,14,,,,43,0
122403,note_on,0,0,7,,,,,,,,,11,,,,77,100
122403,note_on,10,0,7,,,,,,,,,11,,,,74,100
122406,note_on,10,0,8,,,,,,,,,12,,,,71,98
122411,note_on,10,0,9,,,,,,,,,13,,,,59,89
122412,note_on,10,0,3,,,,,,,,,3,,,,59,81
122413,note_on,10,0,10,,,,,,,,,14,,,,47,73
122420,note_on,0,0,6,,,,,,,,,10,,,,79,0
122420,note_on,20,0,6,,,,,,,,,10,,,,74,0
122423,note_on,0,0,7,,,,,,,,,11,,,,74,0
122423,note_on,20,0,7,,,,,,,,,11,,,,77,0
122430,note_on,0,0,6,,,,,,,,,10,,,,74,92
122430,note_on,10,0,6,,,,,,,,,10,,,,79,92
122433,note_on,0,0,7,,,,,,,,,11,,,,74,92
122433,note_on,10,0,7,,,,,,,,,11,,,,77,92
122450,note_on,20,0,6,,,,,,,,,10,,,,74,0
122450,note_on,0,0,6,,,,,,,,,10,,,,79,0
122453,note_on,0,0,7,,,,,,,,,11,,,,77,0
122453,note_on,20,0,7,,,,,,,,,11,,,,74,0
122460,note_on,10,0,6,,,,,,,,,10,,,,74,100
122460,note_on,0,0,6,,,,,,,,,10,,,,79,100
122463,note_on,10,0,7,,,,,,,,,11,,,,77,100
122463,note_on,0,0,7,,,,,,,,,11,,,,74,100
122480,note_on,0,0,6,,,,,,,,,10,,,,74,0
122480,note_on,20,0,6,,,,,,,,,10,,,,79,0
122483,note_on,20,0,7,,,,,,,,,11,,,,74,0
122483,note_on,0,0,7,,,,,,,,,11,,,,77,0
122490,note_on,10,0,6,,,,,,,,,10,,,,79,92
122490,note_on,0,0,6,,,,,,,,,10,,,,74,92
122493,note_on,10,0,7,,,,,,,,,11,,,,77,92
122493,note_on,0,0,7,,,,,,,,,11,,,,74,92
122510,note_on,0,0,6,,,,,,,,,10,,,,79,0
122510,note_on,20,0,6,,,,,,,,,10,,,,74,0
122513,note_on,20,0,7,,,,,,,,,11,,,,74,0
122513,note_on,0,0,7,,,,,,,,,11,,,,77,0
122516,note_on,110,0,8,,,,,,,,,12,,,,71,0
122520,note_on,10,0,6,,,,,,,,,10,,,,74,100
122520,note_on,0,0,6,,,,,,,,,10,,,,79,100
122520,set_tempo,120,1,0,,,,,,382166,,,,,,,,
122521,note_on,110,0,9,,,,,,,,,13,,,,59,0
122522,note_on,110,0,3,,,,,,,,,3,,,,59,0
122523,note_on,10,0,7,,,,,,,,,11,,,,74,100
122523,note_on,110,0,10,,,,,,,,,14,,,,47,0
122523,note_on,0,0,7,,,,,,,,,11,,,,77,100
122526,note_on,10,0,8,,,,,,,,,12,,,,67,98
122531,note_on,10,0,9,,,,,,,,,13,,,,67,89
122532,note_on,10,0,3,,,,,,,,,3,,,,67,81
122533,note_on,10,0,10,,,,,,,,,14,,,,55,73
122540,note_on,20,0,6,,,,,,,,,10,,,,79,0
122540,note_on,0,0,6,,,,,,,,,10,,,,74,0
122543,note_on,0,0,7,,,,,,,,,11,,,,74,0
122543,note_on,20,0,7,,,,,,,,,11,,,,77,0
122550,note_on,10,0,6,,,,,,,,,10,,,,79,92
122550,note_on,0,0,6,,,,,,,,,10,,,,74,92
122553,note_on,0,0,7,,,,,,,,,11,,,,77,92
122553,note_on,10,0,7,,,,,,,,,11,,,,74,92
122570,note_on,20,0,6,,,,,,,,,10,,,,74,0
122570,note_on,0,0,6,,,,,,,,,10,,,,79,0
122573,note_on,0,0,7,,,,,,,,,11,,,,74,0
122573,note_on,20,0,7,,,,,,,,,11,,,,77,0
122580,note_on,10,0,6,,,,,,,,,10,,,,79,100
122580,note_on,0,0,6,,,,,,,,,10,,,,74,100
122583,note_on,0,0,7,,,,,,,,,11,,,,77,100
122583,note_on,10,0,7,,,,,,,,,11,,,,74,100
122600,note_on,20,0,6,,,,,,,,,10,,,,74,0
122600,note_on,0,0,6,,,,,,,,,10,,,,79,0
122603,note_on,0,0,7,,,,,,,,,11,,,,74,0
122603,note_on,20,0,7,,,,,,,,,11,,,,77,0
122610,set_tempo,90,1,0,,,,,,458015,,,,,,,,
122610,note_on,0,0,6,,,,,,,,,10,,,,79,92
122610,note_on,10,0,6,,,,,,,,,10,,,,74,92
122613,note_on,0,0,7,,,,,,,,,11,,,,77,92
122613,note_on,10,0,7,,,,,,,,,11,,,,74,92
122630,note_on,0,0,6,,,,,,,,,10,,,,74,0
122630,note_on,20,0,6,,,,,,,,,10,,,,79,0
122633,note_on,950,0,1,,,,,,,,,0,,,,91,0
122633,note_on,0,0,7,,,,,,,,,11,,,,74,0
122633,note_on,20,0,7,,,,,,,,,11,,,,77,0
122634,note_on,950,0,4,,,,,,,,,4,,,,65,0
122635,note_on,950,0,2,,,,,,,,,1,,,,74,0
122635,note_on,0,0,2,,,,,,,,,1,,,,77,0
122636,note_on,110,0,8,,,,,,,,,12,,,,67,0
122636,note_on,950,0,5,,,,,,,,,5,,,,62,0
122640,control_change,10,0,6,,,,,,,,,10,11,103,,,
122640,set_tempo,30,1,0,,,,,,355030,,,,,,,,
122640,note_on,0,0,6,,,,,,,,,10,,,,72,100
122641,note_on,110,0,9,,,,,,,,,13,,,,67,0
122642,note_on,110,0,3,,,,,,,,,3,,,,67,0
122643,note_on,110,0,10,,,,,,,,,14,,,,55,0
122643,control_change,10,0,7,,,,,,,,,11,11,103,,,
122643,note_on,0,0,7,,,,,,,,,11,,,,60,100
122643,control_change,10,0,1,,,,,,,,,0,11,103,,,
122643,note_on,0,0,1,,,,,,,,,0,,,,84,82
122644,note_on,10,0,4,,,,,,,,,4,,,,63,86
122645,note_on,10,0,2,,,,,,,,,1,,,,72,81
122645,note_on,0,0,2,,,,,,,,,1,,,,75,81
122646,note_on,10,0,5,,,,,,,,,5,,,,60,86
122646,note_on,10,0,8,,,,,,,,,12,,,,63,98
122651,note_on,10,0,9,,,,,,,,,13,,,,60,89
122652,note_on,0,0,3,,,,,,,,,3,,,,63,81
122652,note_on,10,0,3,,,,,,,,,3,,,,60,81
122653,note_on,10,0,10,,,,,,,,,14,,,,48,73
122658,control_change,18,0,6,,,,,,,,,10,11,101,,,
122661,control_change,18,0,7,,,,,,,,,11,11,101,,,
122661,control_change,18,0,1,,,,,,,,,0,11,101,,,
122666,note_on,20,0,8,,,,,,,,,12,,,,63,0
122671,note_on,20,0,9,,,,,,,,,13,,,,60,0
122673,note_on,20,0,10,,,,,,,,,14,,,,48,0
122676,control_change,18,0,6,,,,,,,,,10,11,99,,,
122676,note_on,10,0,8,,,,,,,,,12,,,,63,90
122679,control_change,18,0,7,,,,,,,,,11,11,99,,,
122679,control_change,18,0,1,,,,,,,,,0,11,99,,,
122681,note_on,10,0,9,,,,,,,,,13,,,,60,81
122683,note_on,10,0,10,,,,,,,,,14,,,,48,65
122694,control_change,18,0,6,,,,,,,,,10,11,97,,,
122696,note_on,20,0,8,,,,,,,,,12,,,,63,0
122697,control_change,18,0,1,,,,,,,,,0,11,97,,,
122697,control_change,18,0,7,,,,,,,,,11,11,97,,,
122701,note_on,20,0,9,,,,,,,,,13,,,,60,0
122703,note_on,20,0,10,,,,,,,,,14,,,,48,0
122706,note_on,10,0,8,,,,,,,,,12,,,,63,98
122711,note_on,10,0,9,,,,,,,,,13,,,,60,89
122712,control_change,18,0,6,,,,,,,,,10,11,95,,,
122713,note_on,10,0,10,,,,,,,,,14,,,,48,73
122715,control_change,18,0,1,,,,,,,,,0,11,95,,,
122715,control_change,18,0,7,,,,,,,,,11,11,95,,,
122726,note_on,20,0,8,,,,,,,,,12,,,,63,0
122730,control_change,18,0,6,,,,,,,,,10,11,93,,,
122731,note_on,20,0,9,,,,,,,,,13,,,,60,0
122733,control_change,18,0,1,,,,,,,,,0,11,93,,,
122733,control_change,18,0,7,,,,,,,,,11,11,93,,,
122733,note_on,20,0,10,,,,,,,,,14,,,,48,0
122736,note_on,10,0,8,,,,,,,,,12,,,,63,90
122741,note_on,10,0,9,,,,,,,,,13,,,,60,81
122743,note_on,10,0,10,,,,,,,,,14,,,,48,65
122748,control_change,18,0,6,,,,,,,,,10,11,91,,,
122751,control_change,18,0,7,,,,,,,,,11,11,91,,,
122751,control_change,18,0,1,,,,,,,,,0,11,91,,,
122756,note_on,20,0,8,,,,,,,,,12,,,,63,0
122760,set_tempo,120,1,0,,,,,,382166,,,,,,,,
122761,note_on,20,0,9,,,,,,,,,13,,,,60,0
122763,note_on,20,0,10,,,,,,,,,14,,,,48,0
122766,note_on,10,0,8,,,,,,,,,12,,,,63,98
122771,note_on,10,0,9,,,,,,,,,13,,,,60,89
122773,note_on,10,0,10,,,,,,,,,14,,,,48,73
122786,note_on,20,0,8,,,,,,,,,12,,,,63,0
122791,note_on,20,0,9,,,,,,,,,13,,,,60,0
122793,note_on,20,0,10,,,,,,,,,14,,,,48,0
122796,note_on,10,0,8,,,,,,,,,12,,,,63,90
122801,note_on,10,0,9,,,,,,,,,13,,,,60,81
122803,note_on,10,0,10,,,,,,,,,14,,,,48,65
122816,note_on,20,0,8,,,,,,,,,12,,,,63,0
122821,note_on,20,0,9,,,,,,,,,13,,,,60,0
122823,note_on,20,0,10,,,,,,,,,14,,,,48,0
122826,note_on,10,0,8,,,,,,,,,12,,,,63,98
122831,note_on,10,0,9,,,,,,,,,13,,,,60,89
122833,note_on,10,0,10,,,,,,,,,14,,,,48,73
122846,note_on,20,0,8,,,,,,,,,12,,,,63,0
122851,note_on,20,0,9,,,,,,,,,13,,,,60,0
122853,note_on,20,0,10,,,,,,,,,14,,,,48,0
122856,note_on,10,0,8,,,,,,,,,12,,,,63,90
122860,note_on,112,0,6,,,,,,,,,10,,,,72,0
122861,note_on,10,0,9,,,,,,,,,13,,,,60,81
122863,note_on,10,0,10,,,,,,,,,14,,,,48,65
122863,note_on,112,0,1,,,,,,,,,0,,,,84,0
122863,note_on,112,0,7,,,,,,,,,11,,,,60,0
122876,note_on,20,0,8,,,,,,,,,12,,,,63,0
122880,control_change,20,0,6,,,,,,,,,10,11,103,,,
122880,set_tempo,120,1,0,,,,,,355030,,,,,,,,
122880,note_on,0,0,6,,,,,,,,,10,,,,75,100
122881,note_on,20,0,9,,,,,,,,,13,,,,60,0
122883,note_on,0,0,7,,,,,,,,,11,,,,63,100
122883,control_change,20,0,7,,,,,,,,,11,11,103,,,
122883,note_on,0,0,1,,,,,,,,,0,,,,87,82
122883,control_change,20,0,1,,,,,,,,,0,11,103,,,
122883,note_on,20,0,10,,,,,,,,,14,,,,48,0
122886,note_on,10,0,8,,,,,,,,,12,,,,63,98
122891,note_on,10,0,9,,,,,,,,,13,,,,60,89
122893,note_on,10,0,10,,,,,,,,,14,,,,48,73
122898,control_change,18,0,6,,,,,,,,,10,11,101,,,
122901,control_change,18,0,7,,,,,,,,,11,11,101,,,
122901,control_change,18,0,1,,,,,,,,,0,11,101,,,
122906,note_on,20,0,8,,,,,,,,,12,,,,63,0
122911,note_on,20,0,9,,,,,,,,,13,,,,60,0
122913,note_on,20,0,10,,,,,,,,,14,,,,48,0
122916,control_change,18,0,6,,,,,,,,,10,11,99,,,
122916,note_on,10,0,8,,,,,,,,,12,,,,63,90
122919,control_change,18,0,7,,,,,,,,,11,11,99,,,
122919,control_change,18,0,1,,,,,,,,,0,11,99,,,
122921,note_on,10,0,9,,,,,,,,,13,,,,60,81
122923,note_on,10,0,10,,,,,,,,,14,,,,48,65
122934,control_change,18,0,6,,,,,,,,,10,11,97,,,
122936,note_on,20,0,8,,,,,,,,,12,,,,63,0
122937,control_change,18,0,1,,,,,,,,,0,11,97,,,
122937,control_change,18,0,7,,,,,,,,,11,11,97,,,
122941,note_on,20,0,9,,,,,,,,,13,,,,60,0
122943,note_on,20,0,10,,,,,,,,,14,,,,48,0
122946,note_on,10,0,8,,,,,,,,,12,,,,63,98
122951,note_on,10,0,9,,,,,,,,,13,,,,60,89
122952,control_change,18,0,6,,,,,,,,,10,11,95,,,
122953,note_on,10,0,10,,,,,,,,,14,,,,48,73
122955,control_change,18,0,7,,,,,,,,,11,11,95,,,
122955,control_change,18,0,1,,,,,,,,,0,11,95,,,
122966,note_on,20,0,8,,,,,,,,,12,,,,63,0
122970,control_change,18,0,6,,,,,,,,,10,11,93,,,
122971,note_on,20,0,9,,,,,,,,,13,,,,60,0
122973,control_change,18,0,7,,,,,,,,,11,11,93,,,
122973,control_change,18,0,1,,,,,,,,,0,11,93,,,
122973,note_on,20,0,10,,,,,,,,,14,,,,48,0
122976,note_on,10,0,8,,,,,,,,,12,,,,63,90
122980,note_on,10,0,6,,,,,,,,,10,,,,75,0
122981,note_on,10,0,9,,,,,,,,,13,,,,60,81
122983,note_on,10,0,1,,,,,,,,,0,,,,87,0
122983,note_on,10,0,7,,,,,,,,,11,,,,63,0
122983,note_on,10,0,10,,,,,,,,,14,,,,48,65
122988,control_change,8,0,6,,,,,,,,,10,11,91,,,
122991,control_change,8,0,7,,,,,,,,,11,11,91,,,
122991,control_change,8,0,1,,,,,,,,,0,11,91,,,
122996,note_on,20,0,8,,,,,,,,,12,,,,63,0
123000,set_tempo,120,1,0,,,,,,382166,,,,,,,,
123000,control_change,12,0,6,,,,,,,,,10,11,103,,,
123000,note_on,0,0,6,,,,,,,,,10,,,,79,100
123001,note_on,20,0,9,,,,,,,,,13,,,,60,0
123003,control_change,12,0,1,,,,,,,,,0,11,103,,,
123003,control_change,12,0,7,,,,,,,,,11,11,103,,,
123003,note_on,0,0,7,,,,,,,,,11,,,,67,100
123003,note_on,20,0,10,,,,,,,,,14,,,,48,0
123003,note_on,0,0,1,,,,,,,,,0,,,,91,82
123006,note_on,10,0,8,,,,,,,,,12,,,,63,98
123011,note_on,10,0,9,,,,,,,,,13,,,,60,89
123013,note_on,10,0,10,,,,,,,,,14,,,,48,73
123018,control_change,18,0,6,,,,,,,,,10,11,101,,,
123021,control_change,18,0,7,,,,,,,,,11,11,101,,,
123021,control_change,18,0,1,,,,,,,,,0,11,101,,,
123026,note_on,20,0,8,,,,,,,,,12,,,,63,0
123031,note_on,20,0,9,,,,,,,,,13,,,,60,0
123033,note_on,20,0,10,,,,,,,,,14,,,,48,0
123036,note_on,10,0,8,,,,,,,,,12,,,,63,90
123036,control_change,18,0,6,,,,,,,,,10,11,99,,,
123039,control_change,18,0,1,,,,,,,,,0,11,99,,,
123039,control_change,18,0,7,,,,,,,,,11,11,99,,,
123041,note_on,10,0,9,,,,,,,,,13,,,,60,81
123043,note_on,10,0,10,,,,,,,,,14,,,,48,65
123054,control_change,18,0,6,,,,,,,,,10,11,97,,,
123056,note_on,20,0,8,,,,,,,,,12,,,,63,0
123057,control_change,18,0,7,,,,,,,,,11,11,97,,,
123057,control_change,18,0,1,,,,,,,,,0,11,97,,,
123061,note_on,20,0,9,,,,,,,,,13,,,,60,0
123063,note_on,20,0,10,,,,,,,,,14,,,,48,0
123066,note_on,10,0,8,,,,,,,,,12,,,,63,98
123071,note_on,10,0,9,,,,,,,,,13,,,,60,89
123072,control_change,18,0,6,,,,,,,,,10,11,95,,,
123073,note_on,10,0,10,,,,,,,,,14,,,,48,73
123075,control_change,18,0,7,,,,,,,,,11,11,95,,,
123075,control_change,18,0,1,,,,,,,,,0,11,95,,,
123086,note_on,20,0,8,,,,,,,,,12,,,,63,0
123090,control_change,18,0,6,,,,,,,,,10,11,93,,,
123090,set_tempo,90,1,0,,,,,,456274,,,,,,,,
123091,note_on,20,0,9,,,,,,,,,13,,,,60,0
123093,control_change,18,0,7,,,,,,,,,11,11,93,,,
123093,control_change,18,0,1,,,,,,,,,0,11,93,,,
123093,note_on,20,0,10,,,,,,,,,14,,,,48,0
123096,note_on,10,0,8,,,,,,,,,12,,,,63,90
123100,note_on,10,0,6,,,,,,,,,10,,,,79,0
123101,note_on,10,0,9,,,,,,,,,13,,,,60,81
123103,note_on,10,0,1,,,,,,,,,0,,,,91,0
123103,note_on,10,0,10,,,,,,,,,14,,,,48,65
123103,note_on,10,0,7,,,,,,,,,11,,,,67,0
123108,control_change,8,0,6,,,,,,,,,10,11,91,,,
123111,control_change,8,0,7,,,,,,,,,11,11,91,,,
123111,control_change,8,0,1,,,,,,,,,0,11,91,,,
123114,note_on,470,0,4,,,,,,,,,4,,,,63,0
123115,note_on,470,0,2,,,,,,,,,1,,,,75,0
123115,note_on,0,0,2,,,,,,,,,1,,,,72,0
123116,note_on,20,0,8,,,,,,,,,12,,,,63,0
123116,note_on,470,0,5,,,,,,,,,5,,,,60,0
123120,control_change,12,0,6,,,,,,,,,10,11,103,,,
123120,note_on,0,0,6,,,,,,,,,10,,,,78,100
123120,set_tempo,30,1,0,,,,,,355030,,,,,,,,
123121,note_on,20,0,9,,,,,,,,,13,,,,60,0
123122,note_on,470,0,3,,,,,,,,,3,,,,63,0
123122,note_on,0,0,3,,,,,,,,,3,,,,60,0
123123,note_on,20,0,10,,,,,,,,,14,,,,48,0
123123,note_on,0,0,1,,,,,,,,,0,,,,78,82
123123,control_change,12,0,1,,,,,,,,,0,11,103,,,
123123,control_change,12,0,7,,,,,,,,,11,11,103,,,
123123,note_on,0,0,7,,,,,,,,,11,,,,66,100
123124,note_on,10,0,4,,,,,,,,,4,,,,62,86
123125,note_on,10,0,2,,,,,,,,,1,,,,78,81
123125,note_on,0,0,2,,,,,,,,,1,,,,69,81
123126,note_on,10,0,8,,,,,,,,,12,,,,62,98
123126,note_on,10,0,5,,,,,,,,,5,,,,60,86
123131,note_on,10,0,9,,,,,,,,,13,,,,60,89
123132,note_on,10,0,3,,,,,,,,,3,,,,60,81
123132,note_on,0,0,3,,,,,,,,,3,,,,62,81
123133,note_on,10,0,10,,,,,,,,,14,,,,48,73
123138,control_change,18,0,6,,,,,,,,,10,11,101,,,
123141,control_change,18,0,1,,,,,,,,,0,11,101,,,
123141,control_change,18,0,7,,,,,,,,,11,11,101,,,
123146,note_on,20,0,8,,,,,,,,,12,,,,62,0
123151,note_on,20,0,9,,,,,,,,,13,,,,60,0
123153,note_on,20,0,10,,,,,,,,,14,,,,48,0
123156,control_change,18,0,6,,,,,,,,,10,11,99,,,
123156,note_on,10,0,8,,,,,,,,,12,,,,62,90
123159,control_change,18,0,7,,,,,,,,,11,11,99,,,
123159,control_change,18,0,1,,,,,,,,,0,11,99,,,
123161,note_on,10,0,9,,,,,,,,,13,,,,60,81
123163,note_on,10,0,10,,,,,,,,,14,,,,48,65
123174,control_change,18,0,6,,,,,,,,,10,11,97,,,
123176,note_on,20,0,8,,,,,,,,,12,,,,62,0
123177,control_change,18,0,1,,,,,,,,,0,11,97,,,
123177,control_change,18,0,7,,,,,,,,,11,11,97,,,
123181,note_on,20,0,9,,,,,,,,,13,,,,60,0
123183,note_on,20,0,10,,,,,,,,,14,,,,48,0
123186,note_on,10,0,8,,,,,,,,,12,,,,62,98
123191,note_on,10,0,9,,,,,,,,,13,,,,60,89
123192,control_change,18,0,6,,,,,,,,,10,11,95,,,
123193,note_on,10,0,10,,,,,,,,,14,,,,48,73
123195,control_change,18,0,7,,,,,,,,,11,11,95,,,
123195,control_change,18,0,1,,,,,,,,,0,11,95,,,
123206,note_on,20,0,8,,,,,,,,,12,,,,62,0
123210,control_change,18,0,6,,,,,,,,,10,11,93,,,
123211,note_on,20,0,9,,,,,,,,,13,,,,60,0
123213,control_change,18,0,1,,,,,,,,,0,11,93,,,
123213,note_on,20,0,10,,,,,,,,,14,,,,48,0
123213,control_change,18,0,7,,,,,,,,,11,11,93,,,
123216,note_on,10,0,8,,,,,,,,,12,,,,62,90
123221,note_on,10,0,9,,,,,,,,,13,,,,60,81
123223,note_on,10,0,10,,,,,,,,,14,,,,48,65
123228,control_change,18,0,6,,,,,,,,,10,11,91,,,
123231,control_change,18,0,1,,,,,,,,,0,11,91,,,
123231,control_change,18,0,7,,,,,,,,,11,11,91,,,
123236,note_on,20,0,8,,,,,,,,,12,,,,62,0
123240,set_tempo,120,1,0,,,,,,382166,,,,,,,,
123241,note_on,20,0,9,,,,,,,,,13,,,,60,0
123243,note_on,20,0,10,,,,,,,,,14,,,,48,0
123246,note_on,10,0,8,,,,,,,,,12,,,,62,98
123251,note_on,10,0,9,,,,,,,,,13,,,,60,89
123253,note_on,10,0,10,,,,,,,,,14,,,,48,73
123266,note_on,20,0,8,,,,,,,,,12,,,,62,0
123271,note_on,20,0,9,,,,,,,,,13,,,,60,0
123273,note_on,20,0,10,,,,,,,,,14,,,,48,0
123276,note_on,10,0,8,,,,,,,,,12,,,,62,90
123281,note_on,10,0,9,,,,,,,,,13,,,,60,81
123283,note_on,10,0,10,,,,,,,,,14,,,,48,65
123296,note_on,20,0,8,,,,,,,,,12,,,,62,0
123301,note_on,20,0,9,,,,,,,,,13,,,,60,0
123303,note_on,20,0,10,,,,,,,,,14,,,,48,0
123306,note_on,10,0,8,,,,,,,,,12,,,,62,98
123311,note_on,10,0,9,,,,,,,,,13,,,,60,89
123313,note_on,10,0,10,,,,,,,,,14,,,,48,73
123326,note_on,20,0,8,,,,,,,,,12,,,,62,0
123331,note_on,20,0,9,,,,,,,,,13,,,,60,0
123333,note_on,20,0,10,,,,,,,,,14,,,,48,0
123336,note_on,10,0,8,,,,,,,,,12,,,,62,90
123340,note_on,112,0,6,,,,,,,,,10,,,,78,0
123341,note_on,10,0,9,,,,,,,,,13,,,,60,81
123343,note_on,112,0,1,,,,,,,,,0,,,,78,0
123343,note_on,112,0,7,,,,,,,,,11,,,,66,0
123343,note_on,10,0,10,,,,,,,,,14,,,,48,65
123356,note_on,20,0,8,,,,,,,,,12,,,,62,0
123360,note_on,0,0,6,,,,,,,,,10,,,,81,100
123360,control_change,20,0,6,,,,,,,,,10,11,103,,,
123360,set_tempo,120,1,0,,,,,,355030,,,,,,,,
123361,note_on,20,0,9,,,,,,,,,13,,,,60,0
123363,note_on,0,0,1,,,,,,,,,0,,,,81,82
123363,control_change,20,0,1,,,,,,,,,0,11,103,,,
123363,note_on,20,0,10,,,,,,,,,14,,,,48,0
123363,note_on,0,0,7,,,,,,,,,11,,,,69,100
123363,control_change,20,0,7,,,,,,,,,11,11,103,,,
123366,note_on,10,0,8,,,,,,,,,12,,,,62,98
123371,note_on,10,0,9,,,,,,,,,13,,,,60,89
123373,note_on,10,0,10,,,,,,,,,14,,,,48,73
123378,control_change,18,0,6,,,,,,,,,10,11,101,,,
123381,control_change,18,0,1,,,,,,,,,0,11,101,,,
123381,control_change,18,0,7,,,,,,,,,11,11,101,,,
123386,note_on,20,0,8,,,,,,,,,12,,,,62,0
123391,note_on,20,0,9,,,,,,,,,13,,,,60,0
123393,note_on,20,0,10,,,,,,,,,14,,,,48,0
123396,control_change,18,0,6,,,,,,,,,10,11,99,,,
123396,note_on,10,0,8,,,,,,,,,12,,,,62,90
123399,control_change,18,0,1,,,,,,,,,0,11,99,,,
123399,control_change,18,0,7,,,,,,,,,11,11,99,,,
123401,note_on,10,0,9,,,,,,,,,13,,,,60,81
123403,note_on,10,0,10,,,,,,,,,14,,,,48,65
123414,control_change,18,0,6,,,,,,,,,10,11,97,,,
123416,note_on,20,0,8,,,,,,,,,12,,,,62,0
123417,control_change,18,0,1,,,,,,,,,0,11,97,,,
123417,control_change,18,0,7,,,,,,,,,11,11,97,,,
123421,note_on,20,0,9,,,,,,,,,13,,,,60,0
123423,note_on,20,0,10,,,,,,,,,14,,,,48,0
123426,note_on,10,0,8,,,,,,,,,12,,,,62,98
123431,note_on,10,0,9,,,,,,,,,13,,,,60,89
123432,control_change,18,0,6,,,,,,,,,10,11,95,,,
123433,note_on,10,0,10,,,,,,,,,14,,,,48,73
123435,control_change,18,0,7,,,,,,,,,11,11,95,,,
123435,control_change,18,0,1,,,,,,,,,0,11,95,,,
123446,note_on,20,0,8,,,,,,,,,12,,,,62,0
123450,control_change,18,0,6,,,,,,,,,10,11,93,,,
123451,note_on,20,0,9,,,,,,,,,13,,,,60,0
123453,control_change,18,0,7,,,,,,,,,11,11,93,,,
123453,control_change,18,0,1,,,,,,,,,0,11,93,,,
123453,note_on,20,0,10,,,,,,,,,14,,,,48,0
123456,note_on,10,0,8,,,,,,,,,12,,,,62,90
123460,note_on,10,0,6,,,,,,,,,10,,,,81,0
123461,note_on,10,0,9,,,,,,,,,13,,,,60,81
123463,note_on,10,0,1,,,,,,,,,0,,,,81,0
123463,note_on,10,0,10,,,,,,,,,14,,,,48,65
123463,note_on,10,0,7,,,,,,,,,11,,,,69,0
123468,control_change,8,0,6,,,,,,,,,10,11,91,,,
123471,control_change,8,0,1,,,,,,,,,0,11,91,,,
123471,control_change,8,0,7,,,,,,,,,11,11,91,,,
123476,note_on,20,0,8,,,,,,,,,12,,,,62,0
123480,control_change,12,0,6,,,,,,,,,10,11,103,,,
123480,set_tempo,120,1,0,,,,,,382166,,,,,,,,
123480,note_on,0,0,6,,,,,,,,,10,,,,86,100
123481,note_on,20,0,9,,,,,,,,,13,,,,60,0
123483,note_on,0,0,7,,,,,,,,,11,,,,74,100
123483,control_change,12,0,7,,,,,,,,,11,11,103,,,
123483,control_change,12,0,1,,,,,,,,,0,11,103,,,
123483,note_on,20,0,10,,,,,,,,,14,,,,48,0
123483,note_on,0,0,1,,,,,,,,,0,,,,86,82
123486,note_on,10,0,8,,,,,,,,,12,,,,62,98
123491,note_on,10,0,9,,,,,,,,,13,,,,60,89
123493,note_on,10,0,10,,,,,,,,,14,,,,48,73
123498,control_change,18,0,6,,,,,,,,,10,11,101,,,
123501,control_change,18,0,7,,,,,,,,,11,11,101,,,
123501,control_change,18,0,1,,,,,,,,,0,11,101,,,
123506,note_on,20,0,8,,,,,,,,,12,,,,62,0
123511,note_on,20,0,9,,,,,,,,,13,,,,60,0
123513,note_on,20,0,10,,,,,,,,,14,,,,48,0
123516,control_change,18,0,6,,,,,,,,,10,11,99,,,
123516,note_on,10,0,8,,,,,,,,,12,,,,62,90
123519,control_change,18,0,7,,,,,,,,,11,11,99,,,
123519,control_change,18,0,1,,,,,,,,,0,11,99,,,
123521,note_on,10,0,9,,,,,,,,,13,,,,60,81
123523,note_on,10,0,10,,,,,,,,,14,,,,48,65
123534,control_change,18,0,6,,,,,,,,,10,11,97,,,
123536,note_on,20,0,8,,,,,,,,,12,,,,62,0
123537,control_change,18,0,1,,,,,,,,,0,11,97,,,
123537,control_change,18,0,7,,,,,,,,,11,11,97,,,
123541,note_on,20,0,9,,,,,,,,,13,,,,60,0
123543,note_on,20,0,10,,,,,,,,,14,,,,48,0
123546,note_on,10,0,8,,,,,,,,,12,,,,62,98
123551,note_on,10,0,9,,,,,,,,,13,,,,60,89
123552,control_change,18,0,6,,,,,,,,,10,11,95,,,
123553,note_on,10,0,10,,,,,,,,,14,,,,48,73
123555,control_change,18,0,7,,,,,,,,,11,11,95,,,
123555,control_change,18,0,1,,,,,,,,,0,11,95,,,
123566,note_on,20,0,8,,,,,,,,,12,,,,62,0
123570,set_tempo,90,1,0,,,,,,458015,,,,,,,,
123570,control_change,18,0,6,,,,,,,,,10,11,93,,,
123571,note_on,20,0,9,,,,,,,,,13,,,,60,0
123573,control_change,18,0,7,,,,,,,,,11,11,93,,,
123573,note_on,20,0,10,,,,,,,,,14,,,,48,0
123573,control_change,18,0,1,,,,,,,,,0,11,93,,,
123576,note_on,10,0,8,,,,,,,,,12,,,,62,90
123580,note_on,10,0,6,,,,,,,,,10,,,,86,0
123581,note_on,10,0,9,,,,,,,,,13,,,,60,81
123583,note_on,10,0,10,,,,,,,,,14,,,,48,65
123583,note_on,10,0,7,,,,,,,,,11,,,,74,0
123583,note_on,10,0,1,,,,,,,,,0,,,,86,0
123588,control_change,8,0,6,,,,,,,,,10,11,91,,,
123591,control_change,8,0,7,,,,,,,,,11,11,91,,,
123591,control_change,8,0,1,,,,,,,,,0,11,91,,,
123594,note_on,470,0,4,,,,,,,,,4,,,,62,0
123595,note_on,0,0,2,,,,,,,,,1,,,,78,0
123595,note_on,470,0,2,,,,,,,,,1,,,,69,0
123596,note_on,470,0,5,,,,,,,,,5,,,,60,0
123596,note_on,20,0,8,,,,,,,,,12,,,,62,0
123600,set_tempo,30,1,0,,,,,,355030,,,,,,,,
123600,control_change,12,0,6,,,,,,,,,10,11,103,,,
123600,note_on,0,0,6,,,,,,,,,10,,,,67,100
123601,note_on,20,0,9,,,,,,,,,13,,,,60,0
123602,note_on,0,0,3,,,,,,,,,3,,,,60,0
123602,note_on,470,0,3,,,,,,,,,3,,,,62,0
123603,note_on,0,0,7,,,,,,,,,11,,,,55,100
123603,control_change,12,0,7,,,,,,,,,11,11,103,,,
123603,note_on,0,0,7,,,,,,,,,11,,,,67,100
123603,note_on,20,0,10,,,,,,,,,14,,,,48,0
123603,control_change,12,0,1,,,,,,,,,0,11,103,,,
123603,note_on,0,0,1,,,,,,,,,0,,,,67,82
123604,note_on,10,0,4,,,,,,,,,4,,,,62,86
123605,note_on,10,0,2,,,,,,,,,1,,,,74,81
123605,note_on,0,0,2,,,,,,,,,1,,,,79,81
123606,note_on,10,0,8,,,,,,,,,12,,,,62,98
123606,note_on,10,0,5,,,,,,,,,5,,,,58,86
123611,note_on,10,0,9,,,,,,,,,13,,,,58,89
123612,note_on,0,0,3,,,,,,,,,3,,,,62,81
123612,note_on,10,0,3,,,,,,,,,3,,,,58,81
123613,note_on,10,0,10,,,,,,,,,14,,,,46,73
123618,control_change,18,0,6,,,,,,,,,10,11,101,,,
123621,control_change,18,0,1,,,,,,,,,0,11,101,,,
123621,control_change,18,0,7,,,,,,,,,11,11,101,,,
123626,note_on,20,0,8,,,,,,,,,12,,,,62,0
123631,note_on,20,0,9,,,,,,,,,13,,,,58,0
123633,note_on,20,0,10,,,,,,,,,14,,,,46,0
123636,control_change,18,0,6,,,,,,,,,10,11,99,,,
123636,note_on,10,0,8,,,,,,,,,12,,,,62,90
123639,control_change,18,0,1,,,,,,,,,0,11,99,,,
123639,control_change,18,0,7,,,,,,,,,11,11,99,,,
123641,note_on,10,0,9,,,,,,,,,13,,,,58,81
123643,note_on,10,0,10,,,,,,,,,14,,,,46,65
123654,control_change,18,0,6,,,,,,,,,10,11,97,,,
123656,note_on,20,0,8,,,,,,,,,12,,,,62,0
123657,control_change,18,0,7,,,,,,,,,11,11,97,,,
123657,control_change,18,0,1,,,,,,,,,0,11,97,,,
123661,note_on,20,0,9,,,,,,,,,13,,,,58,0
123663,note_on,20,0,10,,,,,,,,,14,,,,46,0
123666,note_on,10,0,8,,,,,,,,,12,,,,62,98
123671,note_on,10,0,9,,,,,,,,,13,,,,58,89
123672,control_change,18,0,6,,,,,,,,,10,11,95,,,
123673,note_on,10,0,10,,,,,,,,,14,,,,46,73
123675,control_change,18,0,7,,,,,,,,,11,11,95,,,
123675,control_change,18,0,1,,,,,,,,,0,11,95,,,
123686,note_on,20,0,8,,,,,,,,,12,,,,62,0
123690,control_change,18,0,6,,,,,,,,,10,11,93,,,
123691,note_on,20,0,9,,,,,,,,,13,,,,58,0
123693,note_on,20,0,10,,,,,,,,,14,,,,46,0
123693,control_change,18,0,1,,,,,,,,,0,11,93,,,
123693,control_change,18,0,7,,,,,,,,,11,11,93,,,
123696,note_on,10,0,8,,,,,,,,,12,,,,62,90
123701,note_on,10,0,9,,,,,,,,,13,,,,58,81
123703,note_on,10,0,10,,,,,,,,,14,,,,46,65
123708,control_change,18,0,6,,,,,,,,,10,11,91,,,
123711,control_change,18,0,7,,,,,,,,,11,11,91,,,
123711,control_change,18,0,1,,,,,,,,,0,11,91,,,
123716,note_on,20,0,8,,,,,,,,,12,,,,62,0
123720,set_tempo,120,1,0,,,,,,382166,,,,,,,,
123721,note_on,20,0,9,,,,,,,,,13,,,,58,0
123723,note_on,20,0,10,,,,,,,,,14,,,,46,0
123726,note_on,10,0,8,,,,,,,,,12,,,,62,98
123731,note_on,10,0,9,,,,,,,,,13,,,,58,89
123733,note_on,10,0,10,,,,,,,,,14,,,,46,73
123746,note_on,20,0,8,,,,,,,,,12,,,,62,0
123751,note_on,20,0,9,,,,,,,,,13,,,,58,0
123753,note_on,20,0,10,,,,,,,,,14,,,,46,0
123756,note_on,10,0,8,,,,,,,,,12,,,,62,90
123761,note_on,10,0,9,,,,,,,,,13,,,,58,81
123763,note_on,10,0,10,,,,,,,,,14,,,,46,65
123776,note_on,20,0,8,,,,,,,,,12,,,,62,0
123781,note_on,20,0,9,,,,,,,,,13,,,,58,0
123783,note_on,20,0,10,,,,,,,,,14,,,,46,0
123786,note_on,10,0,8,,,,,,,,,12,,,,62,98
123791,note_on,10,0,9,,,,,,,,,13,,,,58,89
123793,note_on,10,0,10,,,,,,,,,14,,,,46,73
123806,note_on,20,0,8,,,,,,,,,12,,,,62,0
123811,note_on,20,0,9,,,,,,,,,13,,,,58,0
123813,note_on,20,0,10,,,,,,,,,14,,,,46,0
123816,note_on,10,0,8,,,,,,,,,12,,,,62,90
123820,note_on,112,0,6,,,,,,,,,10,,,,67,0
123821,note_on,10,0,9,,,,,,,,,13,,,,58,81
123823,note_on,112,0,1,,,,,,,,,0,,,,67,0
123823,note_on,112,0,7,,,,,,,,,11,,,,67,0
123823,note_on,0,0,7,,,,,,,,,11,,,,55,0
123823,note_on,10,0,10,,,,,,,,,14,,,,46,65
123836,note_on,20,0,8,,,,,,,,,12,,,,62,0
123840,set_tempo,120,1,0,,,,,,355030,,,,,,,,
123840,note_on,0,0,6,,,,,,,,,10,,,,70,100
123840,control_change,20,0,6,,,,,,,,,10,11,103,,,
123841,note_on,20,0,9,,,,,,,,,13,,,,58,0
123843,control_change,20,0,1,,,,,,,,,0,11,103,,,
123843,control_change,20,0,7,,,,,,,,,11,11,103,,,
123843,note_on,0,0,7,,,,,,,,,11,,,,58,100
123843,note_on,20,0,10,,,,,,,,,14,,,,46,0
123843,note_on,0,0,1,,,,,,,,,0,,,,70,82
123846,note_on,10,0,8,,,,,,,,,12,,,,62,98
123851,note_on,10,0,9,,,,,,,,,13,,,,58,89
123853,note_on,10,0,10,,,,,,,,,14,,,,46,73
123858,control_change,18,0,6,,,,,,,,,10,11,101,,,
123861,control_change,18,0,7,,,,,,,,,11,11,101,,,
123861,control_change,18,0,1,,,,,,,,,0,11,101,,,
123866,note_on,20,0,8,,,,,,,,,12,,,,62,0
123871,note_on,20,0,9,,,,,,,,,13,,,,58,0
123873,note_on,20,0,10,,,,,,,,,14,,,,46,0
123876,note_on,10,0,8,,,,,,,,,12,,,,62,90
123876,control_change,18,0,6,,,,,,,,,10,11,99,,,
123879,control_change,18,0,1,,,,,,,,,0,11,99,,,
123879,control_change,18,0,7,,,,,,,,,11,11,99,,,
123881,note_on,10,0,9,,,,,,,,,13,,,,58,81
123883,note_on,10,0,10,,,,,,,,,14,,,,46,65
123894,control_change,18,0,6,,,,,,,,,10,11,97,,,
123896,note_on,20,0,8,,,,,,,,,12,,,,62,0
123897,control_change,18,0,1,,,,,,,,,0,11,97,,,
123897,control_change,18,0,7,,,,,,,,,11,11,97,,,
123901,note_on,20,0,9,,,,,,,,,13,,,,58,0
123903,note_on,20,0,10,,,,,,,,,14,,,,46,0
123906,note_on,10,0,8,,,,,,,,,12,,,,62,98
123911,note_on,10,0,9,,,,,,,,,13,,,,58,89
123912,control_change,18,0,6,,,,,,,,,10,11,95,,,
123913,note_on,10,0,10,,,,,,,,,14,,,,46,73
123915,control_change,18,0,1,,,,,,,,,0,11,95,,,
123915,control_change,18,0,7,,,,,,,,,11,11,95,,,
123926,note_on,20,0,8,,,,,,,,,12,,,,62,0
123930,control_change,18,0,6,,,,,,,,,10,11,93,,,
123931,note_on,20,0,9,,,,,,,,,13,,,,58,0
123933,note_on,20,0,10,,,,,,,,,14,,,,46,0
123933,control_change,18,0,1,,,,,,,,,0,11,93,,,
123933,control_change,18,0,7,,,,,,,,,11,11,93,,,
123936,note_on,10,0,8,,,,,,,,,12,,,,62,90
123940,note_on,10,0,6,,,,,,,,,10,,,,70,0
123941,note_on,10,0,9,,,,,,,,,13,,,,58,81
123943,note_on,10,0,10,,,,,,,,,14,,,,46,65
123943,note_on,10,0,1,,,,,,,,,0,,,,70,0
123943,note_on,10,0,7,,,,,,,,,11,,,,58,0
123948,control_change,8,0,6,,,,,,,,,10,11,91,,,
123951,control_change,8,0,1,,,,,,,,,0,11,91,,,
123951,control_change,8,0,7,,,,,,,,,11,11,91,,,
123956,note_on,20,0,8,,,,,,,,,12,,,,62,0
123960,control_change,12,0,6,,,,,,,,,10,11,103,,,
123960,set_tempo,120,1,0,,,,,,382166,,,,,,,,
123960,note_on,0,0,6,,,,,,,,,10,,,,74,100
123961,note_on,20,0,9,,,,,,,,,13,,,,58,0
123963,note_on,0,0,1,,,,,,,,,0,,,,74,82
123963,note_on,20,0,10,,,,,,,,,14,,,,46,0
123963,control_change,12,0,7,,,,,,,,,11,11,103,,,
123963,note_on,0,0,7,,,,,,,,,11,,,,62,100
123963,control_change,12,0,1,,,,,,,,,0,11,103,,,
123966,note_on,10,0,8,,,,,,,,,12,,,,62,98
123971,note_on,10,0,9,,,,,,,,,13,,,,58,89
123973,note_on,10,0,10,,,,,,,,,14,,,,46,73
123978,control_change,18,0,6,,,,,,,,,10,11,101,,,
123981,control_change,18,0,7,,,,,,,,,11,11,101,,,
123981,control_change,18,0,1,,,,,,,,,0,11,101,,,
123986,note_on,20,0,8,,,,,,,,,12,,,,62,0
123991,note_on,20,0,9,,,,,,,,,13,,,,58,0
123993,note_on,20,0,10,,,,,,,,,14,,,,46,0
123996,control_change,18,0,6,,,,,,,,,10,11,99,,,
123996,note_on,10,0,8,,,,,,,,,12,,,,62,90
123999,control_change,18,0,7,,,,,,,,,11,11,99,,,
123999,control_change,18,0,1,,,,,,,,,0,11,99,,,
124001,note_on,10,0,9,,,,,,,,,13,,,,58,81
124003,note_on,10,0,10,,,,,,,,,14,,,,46,65
124014,control_change,18,0,6,,,,,,,,,10,11,97,,,
124016,note_on,20,0,8,,,,,,,,,12,,,,62,0
124017,control_change,18,0,7,,,,,,,,,11,11,97,,,
124017,control_change,18,0,1,,,,,,,,,0,11,97,,,
124021,note_on,20,0,9,,,,,,,,,13,,,,58,0
124023,note_on,20,0,10,,,,,,,,,14,,,,46,0
124026,note_on,10,0,8,,,,,,,,,12,,,,62,98
124031,note_on,10,0,9,,,,,,,,,13,,,,58,89
124032,control_change,18,0,6,,,,,,,,,10,11,95,,,
124033,note_on,10,0,10,,,,,,,,,14,,,,46,73
124035,control_change,18,0,7,,,,,,,,,11,11,95,,,
124035,control_change,18,0,1,,,,,,,,,0,11,95,,,
124046,note_on,20,0,8,,,,,,,,,12,,,,62,0
124050,control_change,18,0,6,,,,,,,,,10,11,93,,,
124050,set_tempo,90,1,0,,,,,,461538,,,,,,,,
124051,note_on,20,0,9,,,,,,,,,13,,,,58,0
124053,control_change,18,0,1,,,,,,,,,0,11,93,,,
124053,control_change,18,0,7,,,,,,,,,11,11,93,,,
124053,note_on,20,0,10,,,,,,,,,14,,,,46,0
124056,note_on,10,0,8,,,,,,,,,12,,,,62,90
124060,note_on,10,0,6,,,,,,,,,10,,,,74,0
124061,note_on,10,0,9,,,,,,,,,13,,,,58,81
124063,note_on,10,0,1,,,,,,,,,0,,,,74,0
124063,note_on,10,0,10,,,,,,,,,14,,,,46,65
124063,note_on,10,0,7,,,,,,,,,11,,,,62,0
124068,control_change,8,0,6,,,,,,,,,10,11,91,,,
124071,control_change,8,0,1,,,,,,,,,0,11,91,,,
124071,control_change,8,0,7,,,,,,,,,11,11,91,,,
124074,note_on,470,0,4,,,,,,,,,4,,,,62,0
124075,note_on,470,0,2,,,,,,,,,1,,,,79,0
124075,note_on,0,0,2,,,,,,,,,1,,,,74,0
124076,note_on,470,0,5,,,,,,,,,5,,,,58,0
124076,note_on,20,0,8,,,,,,,,,12,,,,62,0
124080,set_tempo,30,1,0,,,,,,355030,,,,,,,,
124080,control_change,12,0,6,,,,,,,,,10,11,103,,,
124080,note_on,0,0,6,,,,,,,,,10,,,,76,100
124081,note_on,20,0,9,,,,,,,,,13,,,,58,0
124082,note_on,0,0,3,,,,,,,,,3,,,,58,0
124082,note_on,470,0,3,,,,,,,,,3,,,,62,0
124083,note_on,0,0,7,,,,,,,,,11,,,,64,100
124083,control_change,12,0,7,,,,,,,,,11,11,103,,,
124083,control_change,12,0,1,,,,,,,,,0,11,103,,,
124083,note_on,0,0,1,,,,,,,,,0,,,,76,82
124083,note_on,20,0,10,,,,,,,,,14,,,,46,0
124084,note_on,10,0,4,,,,,,,,,4,,,,60,86
124085,note_on,0,0,2,,,,,,,,,1,,,,76,81
124085,note_on,10,0,2,,,,,,,,,1,,,,67,81
124086,note_on,10,0,5,,,,,,,,,5,,,,58,86
124086,note_on,10,0,8,,,,,,,,,12,,,,60,98
124091,note_on,10,0,9,,,,,,,,,13,,,,58,89
124092,note_on,0,0,3,,,,,,,,,3,,,,58,81
124092,note_on,10,0,3,,,,,,,,,3,,,,60,81
124093,note_on,10,0,10,,,,,,,,,14,,,,46,73
124098,control_change,18,0,6,,,,,,,,,10,11,101,,,
124101,control_change,18,0,7,,,,,,,,,11,11,101,,,
124101,control_change,18,0,1,,,,,,,,,0,11,101,,,
124106,note_on,20,0,8,,,,,,,,,12,,,,60,0
124111,note_on,20,0,9,,,,,,,,,13,,,,58,0
124113,note_on,20,0,10,,,,,,,,,14,,,,46,0
124116,control_change,18,0,6,,,,,,,,,10,11,99,,,
124116,note_on,10,0,8,,,,,,,,,12,,,,60,90
124119,control_change,18,0,1,,,,,,,,,0,11,99,,,
124119,control_change,18,0,7,,,,,,,,,11,11,99,,,
124121,note_on,10,0,9,,,,,,,,,13,,,,58,81
124123,note_on,10,0,10,,,,,,,,,14,,,,46,65
124134,control_change,18,0,6,,,,,,,,,10,11,97,,,
124136,note_on,20,0,8,,,,,,,,,12,,,,60,0
124137,control_change,18,0,7,,,,,,,,,11,11,97,,,
124137,control_change,18,0,1,,,,,,,,,0,11,97,,,
124141,note_on,20,0,9,,,,,,,,,13,,,,58,0
124143,note_on,20,0,10,,,,,,,,,14,,,,46,0
124146,note_on,10,0,8,,,,,,,,,12,,,,60,98
124151,note_on,10,0,9,,,,,,,,,13,,,,58,89
124152,control_change,18,0,6,,,,,,,,,10,11,95,,,
124153,note_on,10,0,10,,,,,,,,,14,,,,46,73
124155,control_change,18,0,7,,,,,,,,,11,11,95,,,
124155,control_change,18,0,1,,,,,,,,,0,11,95,,,
124166,note_on,20,0,8,,,,,,,,,12,,,,60,0
124170,control_change,18,0,6,,,,,,,,,10,11,93,,,
124171,note_on,20,0,9,,,,,,,,,13,,,,58,0
124173,control_change,18,0,1,,,,,,,,,0,11,93,,,
124173,note_on,20,0,10,,,,,,,,,14,,,,46,0
124173,control_change,18,0,7,,,,,,,,,11,11,93,,,
124176,note_on,10,0,8,,,,,,,,,12,,,,60,90
124181,note_on,10,0,9,,,,,,,,,13,,,,58,81
124183,note_on,10,0,10,,,,,,,,,14,,,,46,65
124188,control_change,18,0,6,,,,,,,,,10,11,91,,,
124191,control_change,18,0,1,,,,,,,,,0,11,91,,,
124191,control_change,18,0,7,,,,,,,,,11,11,91,,,
124196,note_on,20,0,8,,,,,,,,,12,,,,60,0
124200,set_tempo,120,1,0,,,,,,382166,,,,,,,,
124201,note_on,20,0,9,,,,,,,,,13,,,,58,0
124203,note_on,20,0,10,,,,,,,,,14,,,,46,0
124206,note_on,10,0,8,,,,,,,,,12,,,,60,98
124211,note_on,10,0,9,,,,,,,,,13,,,,58,89
124213,note_on,10,0,10,,,,,,,,,14,,,,46,73
124226,note_on,20,0,8,,,,,,,,,12,,,,60,0
124231,note_on,20,0,9,,,,,,,,,13,,,,58,0
124233,note_on,20,0,10,,,,,,,,,14,,,,46,0
124236,note_on,10,0,8,,,,,,,,,12,,,,60,90
124241,note_on,10,0,9,,,,,,,,,13,,,,58,81
124243,note_on,10,0,10,,,,,,,,,14,,,,46,65
124256,note_on,20,0,8,,,,,,,,,12,,,,60,0
124261,note_on,20,0,9,,,,,,,,,13,,,,58,0
124263,note_on,20,0,10,,,,,,,,,14,,,,46,0
124266,note_on,10,0,8,,,,,,,,,12,,,,60,98
124271,note_on,10,0,9,,,,,,,,,13,,,,58,89
124273,note_on,10,0,10,,,,,,,,,14,,,,46,73
124286,note_on,20,0,8,,,,,,,,,12,,,,60,0
124291,note_on,20,0,9,,,,,,,,,13,,,,58,0
124293,note_on,20,0,10,,,,,,,,,14,,,,46,0
124296,note_on,10,0,8,,,,,,,,,12,,,,60,90
124300,note_on,112,0,6,,,,,,,,,10,,,,76,0
124301,note_on,10,0,9,,,,,,,,,13,,,,58,81
124303,note_on,112,0,7,,,,,,,,,11,,,,64,0
124303,note_on,10,0,10,,,,,,,,,14,,,,46,65
124303,note_on,112,0,1,,,,,,,,,0,,,,76,0
124316,note_on,20,0,8,,,,,,,,,12,,,,60,0
124320,note_on,0,0,6,,,,,,,,,10,,,,79,100
124320,set_tempo,120,1,0,,,,,,355030,,,,,,,,
124320,control_change,20,0,6,,,,,,,,,10,11,103,,,
124321,note_on,20,0,9,,,,,,,,,13,,,,58,0
124323,control_change,20,0,7,,,,,,,,,11,11,103,,,
124323,control_change,20,0,1,,,,,,,,,0,11,103,,,
124323,note_on,0,0,7,,,,,,,,,11,,,,67,100
124323,note_on,0,0,1,,,,,,,,,0,,,,79,82
124323,note_on,20,0,10,,,,,,,,,14,,,,46,0
124326,note_on,10,0,8,,,,,,,,,12,,,,60,98
124331,note_on,10,0,9,,,,,,,,,13,,,,58,89
124333,note_on,10,0,10,,,,,,,,,14,,,,46,73
124338,control_change,18,0,6,,,,,,,,,10,11,101,,,
124341,control_change,18,0,1,,,,,,,,,0,11,101,,,
124341,control_change,18,0,7,,,,,,,,,11,11,101,,,
124346,note_on,20,0,8,,,,,,,,,12,,,,60,0
124351,note_on,20,0,9,,,,,,,,,13,,,,58,0
124353,note_on,20,0,10,,,,,,,,,14,,,,46,0
124356,note_on,10,0,8,,,,,,,,,12,,,,60,90
124356,control_change,18,0,6,,,,,,,,,10,11,99,,,
124359,control_change,18,0,7,,,,,,,,,11,11,99,,,
124359,control_change,18,0,1,,,,,,,,,0,11,99,,,
124361,note_on,10,0,9,,,,,,,,,13,,,,58,81
124363,note_on,10,0,10,,,,,,,,,14,,,,46,65
124374,control_change,18,0,6,,,,,,,,,10,11,97,,,
124376,note_on,20,0,8,,,,,,,,,12,,,,60,0
124377,control_change,18,0,1,,,,,,,,,0,11,97,,,
124377,control_change,18,0,7,,,,,,,,,11,11,97,,,
124381,note_on,20,0,9,,,,,,,,,13,,,,58,0
124383,note_on,20,0,10,,,,,,,,,14,,,,46,0
124386,note_on,10,0,8,,,,,,,,,12,,,,60,98
124391,note_on,10,0,9,,,,,,,,,13,,,,58,89
124392,control_change,18,0,6,,,,,,,,,10,11,95,,,
124393,note_on,10,0,10,,,,,,,,,14,,,,46,73
124395,control_change,18,0,1,,,,,,,,,0,11,95,,,
124395,control_change,18,0,7,,,,,,,,,11,11,95,,,
124406,note_on,20,0,8,,,,,,,,,12,,,,60,0
124410,control_change,18,0,6,,,,,,,,,10,11,93,,,
124411,note_on,20,0,9,,,,,,,,,13,,,,58,0
124413,control_change,18,0,7,,,,,,,,,11,11,93,,,
124413,note_on,20,0,10,,,,,,,,,14,,,,46,0
124413,control_change,18,0,1,,,,,,,,,0,11,93,,,
124416,note_on,10,0,8,,,,,,,,,12,,,,60,90
124420,note_on,10,0,6,,,,,,,,,10,,,,79,0
124421,note_on,10,0,9,,,,,,,,,13,,,,58,81
124423,note_on,10,0,10,,,,,,,,,14,,,,46,65
124423,note_on,10,0,7,,,,,,,,,11,,,,67,0
124423,note_on,10,0,1,,,,,,,,,0,,,,79,0
124428,control_change,8,0,6,,,,,,,,,10,11,91,,,
124431,control_change,8,0,7,,,,,,,,,11,11,91,,,
124431,control_change,8,0,1,,,,,,,,,0,11,91,,,
124436,note_on,20,0,8,,,,,,,,,12,,,,60,0
124440,control_change,12,0,6,,,,,,,,,10,11,103,,,
124440,note_on,0,0,6,,,,,,,,,10,,,,84,100
124440,set_tempo,120,1,0,,,,,,382166,,,,,,,,
124441,note_on,20,0,9,,,,,,,,,13,,,,58,0
124443,note_on,20,0,10,,,,,,,,,14,,,,46,0
124443,control_change,12,0,1,,,,,,,,,0,11,103,,,
124443,note_on,0,0,1,,,,,,,,,0,,,,84,82
124443,control_change,12,0,7,,,,,,,,,11,11,103,,,
124443,note_on,0,0,7,,,,,,,,,11,,,,72,100
124446,note_on,10,0,8,,,,,,,,,12,,,,60,98
124451,note_on,10,0,9,,,,,,,,,13,,,,58,89
124453,note_on,10,0,10,,,,,,,,,14,,,,46,73
124458,control_change,18,0,6,,,,,,,,,10,11,101,,,
124461,control_change,18,0,1,,,,,,,,,0,11,101,,,
124461,control_change,18,0,7,,,,,,,,,11,11,101,,,
124466,note_on,20,0,8,,,,,,,,,12,,,,60,0
124471,note_on,20,0,9,,,,,,,,,13,,,,58,0
124473,note_on,20,0,10,,,,,,,,,14,,,,46,0
124476,note_on,10,0,8,,,,,,,,,12,,,,60,90
124476,control_change,18,0,6,,,,,,,,,10,11,99,,,
124479,control_change,18,0,7,,,,,,,,,11,11,99,,,
124479,control_change,18,0,1,,,,,,,,,0,11,99,,,
124481,note_on,10,0,9,,,,,,,,,13,,,,58,81
124483,note_on,10,0,10,,,,,,,,,14,,,,46,65
124494,control_change,18,0,6,,,,,,,,,10,11,97,,,
124496,note_on,20,0,8,,,,,,,,,12,,,,60,0
124497,control_change,18,0,1,,,,,,,,,0,11,97,,,
124497,control_change,18,0,7,,,,,,,,,11,11,97,,,
124501,note_on,20,0,9,,,,,,,,,13,,,,58,0
124503,note_on,20,0,10,,,,,,,,,14,,,,46,0
124506,note_on,10,0,8,,,,,,,,,12,,,,60,98
124511,note_on,10,0,9,,,,,,,,,13,,,,58,89
124512,control_change,18,0,6,,,,,,,,,10,11,95,,,
124513,note_on,10,0,10,,,,,,,,,14,,,,46,73
124515,control_change,18,0,7,,,,,,,,,11,11,95,,,
124515,control_change,18,0,1,,,,,,,,,0,11,95,,,
124526,note_on,20,0,8,,,,,,,,,12,,,,60,0
124530,set_tempo,90,1,0,,,,,,459770,,,,,,,,
124530,control_change,18,0,6,,,,,,,,,10,11,93,,,
124531,note_on,20,0,9,,,,,,,,,13,,,,58,0
124533,control_change,18,0,7,,,,,,,,,11,11,93,,,
124533,control_change,18,0,1,,,,,,,,,0,11,93,,,
124533,note_on,20,0,10,,,,,,,,,14,,,,46,0
124536,note_on,10,0,8,,,,,,,,,12,,,,60,90
124540,note_on,10,0,6,,,,,,,,,10,,,,84,0
124541,note_on,10,0,9,,,,,,,,,13,,,,58,81
124543,note_on,10,0,1,,,,,,,,,0,,,,84,0
124543,note_on,10,0,10,,,,,,,,,14,,,,46,65
124543,note_on,10,0,7,,,,,,,,,11,,,,72,0
124548,control_change,8,0,6,,,,,,,,,10,11,91,,,
124551,control_change,8,0,7,,,,,,,,,11,11,91,,,
124551,control_change,8,0,1,,,,,,,,,0,11,91,,,
124554,note_on,470,0,4,,,,,,,,,4,,,,60,0
124555,note_on,470,0,2,,,,,,,,,1,,,,76,0
124555,note_on,0,0,2,,,,,,,,,1,,,,67,0
124556,note_on,470,0,5,,,,,,,,,5,,,,58,0
124556,note_on,20,0,8,,,,,,,,,12,,,,60,0
124560,note_on,0,0,6,,,,,,,,,10,,,,77,100
124560,control_change,12,0,6,,,,,,,,,10,11,103,,,
124560,set_tempo,30,1,0,,,,,,355030,,,,,,,,
124561,note_on,20,0,9,,,,,,,,,13,,,,58,0
124562,note_on,0,0,3,,,,,,,,,3,,,,60,0
124562,note_on,470,0,3,,,,,,,,,3,,,,58,0
124563,control_change,12,0,1,,,,,,,,,0,11,103,,,
124563,note_on,0,0,1,,,,,,,,,0,,,,65,82
124563,control_change,12,0,7,,,,,,,,,11,11,103,,,
124563,note_on,0,0,7,,,,,,,,,11,,,,65,100
124563,note_on,20,0,10,,,,,,,,,14,,,,46,0
124564,note_on,10,0,4,,,,,,,,,4,,,,60,86
124565,note_on,10,0,2,,,,,,,,,1,,,,72,81
124565,note_on,0,0,2,,,,,,,,,1,,,,77,81
124566,note_on,10,0,8,,,,,,,,,12,,,,60,98
124566,note_on,10,0,5,,,,,,,,,5,,,,53,86
124571,note_on,10,0,9,,,,,,,,,13,,,,56,89
124572,note_on,0,0,3,,,,,,,,,3,,,,60,81
124572,note_on,10,0,3,,,,,,,,,3,,,,56,81
124573,note_on,10,0,10,,,,,,,,,14,,,,44,73
124578,control_change,18,0,6,,,,,,,,,10,11,101,,,
124581,control_change,18,0,7,,,,,,,,,11,11,101,,,
124581,control_change,18,0,1,,,,,,,,,0,11,101,,,
124586,note_on,20,0,8,,,,,,,,,12,,,,60,0
124591,note_on,20,0,9,,,,,,,,,13,,,,56,0
124593,note_on,20,0,10,,,,,,,,,14,,,,44,0
124596,control_change,18,0,6,,,,,,,,,10,11,99,,,
124596,note_on,10,0,8,,,,,,,,,12,,,,60,90
124599,control_change,18,0,7,,,,,,,,,11,11,99,,,
124599,control_change,18,0,1,,,,,,,,,0,11,99,,,
124601,note_on,10,0,9,,,,,,,,,13,,,,56,81
124603,note_on,10,0,10,,,,,,,,,14,,,,44,65
124614,control_change,18,0,6,,,,,,,,,10,11,97,,,
124616,note_on,20,0,8,,,,,,,,,12,,,,60,0
124617,control_change,18,0,1,,,,,,,,,0,11,97,,,
124617,control_change,18,0,7,,,,,,,,,11,11,97,,,
124621,note_on,20,0,9,,,,,,,,,13,,,,56,0
124623,note_on,20,0,10,,,,,,,,,14,,,,44,0
124626,note_on,10,0,8,,,,,,,,,12,,,,60,98
124631,note_on,10,0,9,,,,,,,,,13,,,,56,89
124632,control_change,18,0,6,,,,,,,,,10,11,95,,,
124633,note_on,10,0,10,,,,,,,,,14,,,,44,73
124635,control_change,18,0,1,,,,,,,,,0,11,95,,,
124635,control_change,18,0,7,,,,,,,,,11,11,95,,,
124646,note_on,20,0,8,,,,,,,,,12,,,,60,0
124650,control_change,18,0,6,,,,,,,,,10,11,93,,,
124651,note_on,20,0,9,,,,,,,,,13,,,,56,0
124653,control_change,18,0,1,,,,,,,,,0,11,93,,,
124653,note_on,20,0,10,,,,,,,,,14,,,,44,0
124653,control_change,18,0,7,,,,,,,,,11,11,93,,,
124656,note_on,10,0,8,,,,,,,,,12,,,,60,90
124661,note_on,10,0,9,,,,,,,,,13,,,,56,81
124663,note_on,10,0,10,,,,,,,,,14,,,,44,65
124668,control_change,18,0,6,,,,,,,,,10,11,91,,,
124671,control_change,18,0,1,,,,,,,,,0,11,91,,,
124671,control_change,18,0,7,,,,,,,,,11,11,91,,,
124676,note_on,20,0,8,,,,,,,,,12,,,,60,0
124680,set_tempo,120,1,0,,,,,,382166,,,,,,,,
124681,note_on,20,0,9,,,,,,,,,13,,,,56,0
124683,note_on,20,0,10,,,,,,,,,14,,,,44,0
124686,note_on,10,0,8,,,,,,,,,12,,,,60,98
124691,note_on,10,0,9,,,,,,,,,13,,,,56,89
124693,note_on,10,0,10,,,,,,,,,14,,,,44,73
124706,note_on,20,0,8,,,,,,,,,12,,,,60,0
124711,note_on,20,0,9,,,,,,,,,13,,,,56,0
124713,note_on,20,0,10,,,,,,,,,14,,,,44,0
124716,note_on,10,0,8,,,,,,,,,12,,,,60,90
124721,note_on,10,0,9,,,,,,,,,13,,,,56,81
124723,note_on,10,0,10,,,,,,,,,14,,,,44,65
124736,note_on,20,0,8,,,,,,,,,12,,,,60,0
124741,note_on,20,0,9,,,,,,,,,13,,,,56,0
124743,note_on,20,0,10,,,,,,,,,14,,,,44,0
124746,note_on,10,0,8,,,,,,,,,12,,,,60,98
124751,note_on,10,0,9,,,,,,,,,13,,,,56,89
124753,note_on,10,0,10,,,,,,,,,14,,,,44,73
124766,note_on,20,0,8,,,,,,,,,12,,,,60,0
124771,note_on,20,0,9,,,,,,,,,13,,,,56,0
124773,note_on,20,0,10,,,,,,,,,14,,,,44,0
124776,note_on,10,0,8,,,,,,,,,12,,,,60,90
124780,note_on,112,0,6,,,,,,,,,10,,,,77,0
124781,note_on,10,0,9,,,,,,,,,13,,,,56,81
124783,note_on,10,0,10,,,,,,,,,14,,,,44,65
124783,note_on,112,0,7,,,,,,,,,11,,,,65,0
124783,note_on,112,0,1,,,,,,,,,0,,,,65,0
124796,note_on,20,0,8,,,,,,,,,12,,,,60,0
124800,set_tempo,120,1,0,,,,,,355030,,,,,,,,
124800,control_change,20,0,6,,,,,,,,,10,11,103,,,
124800,note_on,0,0,6,,,,,,,,,10,,,,68,100
124801,note_on,20,0,9,,,,,,,,,13,,,,56,0
124803,control_change,20,0,1,,,,,,,,,0,11,103,,,
124803,note_on,0,0,7,,,,,,,,,11,,,,56,100
124803,note_on,0,0,1,,,,,,,,,0,,,,68,82
124803,note_on,20,0,10,,,,,,,,,14,,,,44,0
124803,control_change,20,0,7,,,,,,,,,11,11,103,,,
124806,note_on,10,0,8,,,,,,,,,12,,,,60,98
124811,note_on,10,0,9,,,,,,,,,13,,,,56,89
124813,note_on,10,0,10,,,,,,,,,14,,,,44,73
124818,control_change,18,0,6,,,,,,,,,10,11,101,,,
124821,control_change,18,0,7,,,,,,,,,11,11,101,,,
124821,control_change,18,0,1,,,,,,,,,0,11,101,,,
124826,note_on,20,0,8,,,,,,,,,12,,,,60,0
124831,note_on,20,0,9,,,,,,,,,13,,,,56,0
124833,note_on,20,0,10,,,,,,,,,14,,,,44,0
124836,control_change,18,0,6,,,,,,,,,10,11,99,,,
124836,note_on,10,0,8,,,,,,,,,12,,,,60,90
124839,control_change,18,0,7,,,,,,,,,11,11,99,,,
124839,control_change,18,0,1,,,,,,,,,0,11,99,,,
124841,note_on,10,0,9,,,,,,,,,13,,,,56,81
124843,note_on,10,0,10,,,,,,,,,14,,,,44,65
124854,control_change,18,0,6,,,,,,,,,10,11,97,,,
124856,note_on,20,0,8,,,,,,,,,12,,,,60,0
124857,control_change,18,0,1,,,,,,,,,0,11,97,,,
124857,control_change,18,0,7,,,,,,,,,11,11,97,,,
124861,note_on,20,0,9,,,,,,,,,13,,,,56,0
124863,note_on,20,0,10,,,,,,,,,14,,,,44,0
124866,note_on,10,0,8,,,,,,,,,12,,,,60,98
124871,note_on,10,0,9,,,,,,,,,13,,,,56,89
124872,control_change,18,0,6,,,,,,,,,10,11,95,,,
124873,note_on,10,0,10,,,,,,,,,14,,,,44,73
124875,control_change,18,0,7,,,,,,,,,11,11,95,,,
124875,control_change,18,0,1,,,,,,,,,0,11,95,,,
124886,note_on,20,0,8,,,,,,,,,12,,,,60,0
124890,control_change,18,0,6,,,,,,,,,10,11,93,,,
124891,note_on,20,0,9,,,,,,,,,13,,,,56,0
124893,note_on,20,0,10,,,,,,,,,14,,,,44,0
124893,control_change,18,0,7,,,,,,,,,11,11,93,,,
124893,control_change,18,0,1,,,,,,,,,0,11,93,,,
124896,note_on,10,0,8,,,,,,,,,12,,,,60,90
124900,note_on,10,0,6,,,,,,,,,10,,,,68,0
124901,note_on,10,0,9,,,,,,,,,13,,,,56,81
124903,note_on,10,0,1,,,,,,,,,0,,,,68,0
124903,note_on,10,0,10,,,,,,,,,14,,,,44,65
124903,note_on,10,0,7,,,,,,,,,11,,,,56,0
124908,control_change,8,0,6,,,,,,,,,10,11,91,,,
124911,control_change,8,0,7,,,,,,,,,11,11,91,,,
124911,control_change,8,0,1,,,,,,,,,0,11,91,,,
124916,note_on,20,0,8,,,,,,,,,12,,,,60,0
124920,control_change,12,0,6,,,,,,,,,10,11,103,,,
124920,note_on,0,0,6,,,,,,,,,10,,,,72,100
124920,set_tempo,120,1,0,,,,,,382166,,,,,,,,
124921,note_on,20,0,9,,,,,,,,,13,,,,56,0
124923,note_on,0,0,7,,,,,,,,,11,,,,60,100
124923,control_change,12,0,7,,,,,,,,,11,11,103,,,
124923,note_on,0,0,1,,,,,,,,,0,,,,72,82
124923,note_on,20,0,10,,,,,,,,,14,,,,44,0
124923,control_change,12,0,1,,,,,,,,,0,11,103,,,
124926,note_on,10,0,8,,,,,,,,,12,,,,60,98
124931,note_on,10,0,9,,,,,,,,,13,,,,56,89
124933,note_on,10,0,10,,,,,,,,,14,,,,44,73
124938,control_change,18,0,6,,,,,,,,,10,11,101,,,
124941,control_change,18,0,7,,,,,,,,,11,11,101,,,
124941,control_change,18,0,1,,,,,,,,,0,11,101,,,
124946,note_on,20,0,8,,,,,,,,,12,,,,60,0
124951,note_on,20,0,9,,,,,,,,,13,,,,56,0
124953,note_on,20,0,10,,,,,,,,,14,,,,44,0
124956,note_on,10,0,8,,,,,,,,,12,,,,60,90
124956,control_change,18,0,6,,,,,,,,,10,11,99,,,
124959,control_change,18,0,7,,,,,,,,,11,11,99,,,
124959,control_change,18,0,1,,,,,,,,,0,11,99,,,
124961,note_on,10,0,9,,,,,,,,,13,,,,56,81
124963,note_on,10,0,10,,,,,,,,,14,,,,44,65
124974,control_change,18,0,6,,,,,,,,,10,11,97,,,
124976,note_on,20,0,8,,,,,,,,,12,,,,60,0
124977,control_change,18,0,1,,,,,,,,,0,11,97,,,
124977,control_change,18,0,7,,,,,,,,,11,11,97,,,
124981,note_on,20,0,9,,,,,,,,,13,,,,56,0
124983,note_on,20,0,10,,,,,,,,,14,,,,44,0
124986,note_on,10,0,8,,,,,,,,,12,,,,60,98
124991,note_on,10,0,9,,,,,,,,,13,,,,56,89
124992,control_change,18,0,6,,,,,,,,,10,11,95,,,
124993,note_on,10,0,10,,,,,,,,,14,,,,44,73
124995,control_change,18,0,7,,,,,,,,,11,11,95,,,
124995,control_change,18,0,1,,,,,,,,,0,11,95,,,
125006,note_on,20,0,8,,,,,,,,,12,,,,60,0
125010,control_change,18,0,6,,,,,,,,,10,11,93,,,
125010,set_tempo,90,1,0,,,,,,480000,,,,,,,,
125011,note_on,20,0,9,,,,,,,,,13,,,,56,0
125013,control_change,18,0,7,,,,,,,,,11,11,93,,,
125013,note_on,20,0,10,,,,,,,,,14,,,,44,0
125013,control_change,18,0,1,,,,,,,,,0,11,93,,,
125016,note_on,10,0,8,,,,,,,,,12,,,,60,90
125020,note_on,10,0,6,,,,,,,,,10,,,,72,0
125021,note_on,10,0,9,,,,,,,,,13,,,,56,81
125023,note_on,10,0,1,,,,,,,,,0,,,,72,0
125023,note_on,10,0,10,,,,,,,,,14,,,,44,65
125023,note_on,10,0,7,,,,,,,,,11,,,,60,0
125028,control_change,8,0,6,,,,,,,,,10,11,91,,,
125031,control_change,8,0,7,,,,,,,,,11,11,91,,,
125031,control_change,8,0,1,,,,,,,,,0,11,91,,,
125034,note_on,470,0,4,,,,,,,,,4,,,,60,0
125035,note_on,470,0,2,,,,,,,,,1,,,,77,0
125035,note_on,0,0,2,,,,,,,,,1,,,,72,0
125036,note_on,470,0,5,,,,,,,,,5,,,,53,0
125036,note_on,20,0,8,,,,,,,,,12,,,,60,0
125040,set_tempo,30,1,0,,,,,,355030,,,,,,,,
125040,note_on,0,0,6,,,,,,,,,10,,,,74,100
125040,control_change,12,0,6,,,,,,,,,10,11,103,,,
125041,note_on,20,0,9,,,,,,,,,13,,,,56,0
125042,note_on,0,0,3,,,,,,,,,3,,,,56,0
125042,note_on,470,0,3,,,,,,,,,3,,,,60,0
125043,control_change,12,0,7,,,,,,,,,11,11,103,,,
125043,note_on,0,0,1,,,,,,,,,0,,,,74,82
125043,note_on,0,0,7,,,,,,,,,11,,,,62,100
125043,note_on,20,0,10,,,,,,,,,14,,,,44,0
125043,control_change,12,0,1,,,,,,,,,0,11,103,,,
125044,note_on,10,0,4,,,,,,,,,4,,,,58,86
125045,note_on,0,0,2,,,,,,,,,1,,,,74,81
125045,note_on,10,0,2,,,,,,,,,1,,,,65,81
125046,note_on,10,0,5,,,,,,,,,5,,,,46,86
125046,note_on,10,0,8,,,,,,,,,12,,,,58,98
125051,note_on,10,0,9,,,,,,,,,13,,,,56,89
125052,note_on,10,0,3,,,,,,,,,3,,,,56,81
125052,note_on,0,0,3,,,,,,,,,3,,,,58,81
125053,note_on,10,0,10,,,,,,,,,14,,,,44,73
125058,control_change,18,0,6,,,,,,,,,10,11,101,,,
125061,control_change,18,0,1,,,,,,,,,0,11,101,,,
125061,control_change,18,0,7,,,,,,,,,11,11,101,,,
125066,note_on,20,0,8,,,,,,,,,12,,,,58,0
125071,note_on,20,0,9,,,,,,,,,13,,,,56,0
125073,note_on,20,0,10,,,,,,,,,14,,,,44,0
125076,control_change,18,0,6,,,,,,,,,10,11,99,,,
125076,note_on,10,0,8,,,,,,,,,12,,,,58,90
125079,control_change,18,0,7,,,,,,,,,11,11,99,,,
125079,control_change,18,0,1,,,,,,,,,0,11,99,,,
125081,note_on,10,0,9,,,,,,,,,13,,,,56,81
125083,note_on,10,0,10,,,,,,,,,14,,,,44,65
125094,control_change,18,0,6,,,,,,,,,10,11,97,,,
125096,note_on,20,0,8,,,,,,,,,12,,,,58,0
125097,control_change,18,0,7,,,,,,,,,11,11,97,,,
125097,control_change,18,0,1,,,,,,,,,0,11,97,,,
125101,note_on,20,0,9,,,,,,,,,13,,,,56,0
125103,note_on,20,0,10,,,,,,,,,14,,,,44,0
125106,note_on,10,0,8,,,,,,,,,12,,,,58,98
125111,note_on,10,0,9,,,,,,,,,13,,,,56,89
125112,control_change,18,0,6,,,,,,,,,10,11,95,,,
125113,note_on,10,0,10,,,,,,,,,14,,,,44,73
125115,control_change,18,0,1,,,,,,,,,0,11,95,,,
125115,control_change,18,0,7,,,,,,,,,11,11,95,,,
125126,note_on,20,0,8,,,,,,,,,12,,,,58,0
125130,control_change,18,0,6,,,,,,,,,10,11,93,,,
125131,note_on,20,0,9,,,,,,,,,13,,,,56,0
125133,control_change,18,0,1,,,,,,,,,0,11,93,,,
125133,control_change,18,0,7,,,,,,,,,11,11,93,,,
125133,note_on,20,0,10,,,,,,,,,14,,,,44,0
125136,note_on,10,0,8,,,,,,,,,12,,,,58,90
125141,note_on,10,0,9,,,,,,,,,13,,,,56,81
125143,note_on,10,0,10,,,,,,,,,14,,,,44,65
125148,control_change,18,0,6,,,,,,,,,10,11,91,,,
125151,control_change,18,0,7,,,,,,,,,11,11,91,,,
125151,control_change,18,0,1,,,,,,,,,0,11,91,,,
125156,note_on,20,0,8,,,,,,,,,12,,,,58,0
125160,set_tempo,120,1,0,,,,,,382166,,,,,,,,
125161,note_on,20,0,9,,,,,,,,,13,,,,56,0
125163,note_on,20,0,10,,,,,,,,,14,,,,44,0
125166,note_on,10,0,8,,,,,,,,,12,,,,58,98
125171,note_on,10,0,9,,,,,,,,,13,,,,56,89
125173,note_on,10,0,10,,,,,,,,,14,,,,44,73
125186,note_on,20,0,8,,,,,,,,,12,,,,58,0
125191,note_on,20,0,9,,,,,,,,,13,,,,56,0
125193,note_on,20,0,10,,,,,,,,,14,,,,44,0
125196,note_on,10,0,8,,,,,,,,,12,,,,58,90
125201,note_on,10,0,9,,,,,,,,,13,,,,56,81
125203,note_on,10,0,10,,,,,,,,,14,,,,44,65
125216,note_on,20,0,8,,,,,,,,,12,,,,58,0
125221,note_on,20,0,9,,,,,,,,,13,,,,56,0
125223,note_on,20,0,10,,,,,,,,,14,,,,44,0
125226,note_on,10,0,8,,,,,,,,,12,,,,58,98
125231,note_on,10,0,9,,,,,,,,,13,,,,56,89
125233,note_on,10,0,10,,,,,,,,,14,,,,44,73
125246,note_on,20,0,8,,,,,,,,,12,,,,58,0
125251,note_on,20,0,9,,,,,,,,,13,,,,56,0
125253,note_on,20,0,10,,,,,,,,,14,,,,44,0
125256,note_on,10,0,8,,,,,,,,,12,,,,58,90
125260,note_on,112,0,6,,,,,,,,,10,,,,74,0
125261,note_on,10,0,9,,,,,,,,,13,,,,56,81
125263,note_on,112,0,1,,,,,,,,,0,,,,74,0
125263,note_on,10,0,10,,,,,,,,,14,,,,44,65
125263,note_on,112,0,7,,,,,,,,,11,,,,62,0
125276,note_on,20,0,8,,,,,,,,,12,,,,58,0
125280,control_change,20,0,6,,,,,,,,,10,11,103,,,
125280,note_on,0,0,6,,,,,,,,,10,,,,77,100
125280,set_tempo,120,1,0,,,,,,355030,,,,,,,,
125281,note_on,20,0,9,,,,,,,,,13,,,,56,0
125283,note_on,20,0,10,,,,,,,,,14,,,,44,0
125283,note_on,0,0,7,,,,,,,,,11,,,,65,100
125283,control_change,20,0,7,,,,,,,,,11,11,103,,,
125283,control_change,20,0,1,,,,,,,,,0,11,103,,,
125283,note_on,0,0,1,,,,,,,,,0,,,,77,82
125286,note_on,10,0,8,,,,,,,,,12,,,,58,98
125291,note_on,10,0,9,,,,,,,,,13,,,,56,89
125293,note_on,10,0,10,,,,,,,,,14,,,,44,73
125298,control_change,18,0,6,,,,,,,,,10,11,101,,,
125301,control_change,18,0,1,,,,,,,,,0,11,101,,,
125301,control_change,18,0,7,,,,,,,,,11,11,101,,,
125306,note_on,20,0,8,,,,,,,,,12,,,,58,0
125311,note_on,20,0,9,,,,,,,,,13,,,,56,0
125313,note_on,20,0,10,,,,,,,,,14,,,,44,0
125316,control_change,18,0,6,,,,,,,,,10,11,99,,,
125316,note_on,10,0,8,,,,,,,,,12,,,,58,90
125319,control_change,18,0,1,,,,,,,,,0,11,99,,,
125319,control_change,18,0,7,,,,,,,,,11,11,99,,,
125321,note_on,10,0,9,,,,,,,,,13,,,,56,81
125323,note_on,10,0,10,,,,,,,,,14,,,,44,65
125334,control_change,18,0,6,,,,,,,,,10,11,97,,,
125336,note_on,20,0,8,,,,,,,,,12,,,,58,0
125337,control_change,18,0,1,,,,,,,,,0,11,97,,,
125337,control_change,18,0,7,,,,,,,,,11,11,97,,,
125341,note_on,20,0,9,,,,,,,,,13,,,,56,0
125343,note_on,20,0,10,,,,,,,,,14,,,,44,0
125346,note_on,10,0,8,,,,,,,,,12,,,,58,98
125351,note_on,10,0,9,,,,,,,,,13,,,,56,89
125352,control_change,18,0,6,,,,,,,,,10,11,95,,,
125353,note_on,10,0,10,,,,,,,,,14,,,,44,73
125355,control_change,18,0,1,,,,,,,,,0,11,95,,,
125355,control_change,18,0,7,,,,,,,,,11,11,95,,,
125366,note_on,20,0,8,,,,,,,,,12,,,,58,0
125370,control_change,18,0,6,,,,,,,,,10,11,93,,,
125371,note_on,20,0,9,,,,,,,,,13,,,,56,0
125373,note_on,20,0,10,,,,,,,,,14,,,,44,0
125373,control_change,18,0,1,,,,,,,,,0,11,93,,,
125373,control_change,18,0,7,,,,,,,,,11,11,93,,,
125376,note_on,10,0,8,,,,,,,,,12,,,,58,90
125380,note_on,10,0,6,,,,,,,,,10,,,,77,0
125381,note_on,10,0,9,,,,,,,,,13,,,,56,81
125383,note_on,10,0,1,,,,,,,,,0,,,,77,0
125383,note_on,10,0,10,,,,,,,,,14,,,,44,65
125383,note_on,10,0,7,,,,,,,,,11,,,,65,0
125388,control_change,8,0,6,,,,,,,,,10,11,91,,,
125391,control_change,8,0,7,,,,,,,,,11,11,91,,,
125391,control_change,8,0,1,,,,,,,,,0,11,91,,,
125396,note_on,20,0,8,,,,,,,,,12,,,,58,0
125400,control_change,12,0,6,,,,,,,,,10,11,103,,,
125400,note_on,0,0,6,,,,,,,,,10,,,,82,100
125400,set_tempo,120,1,0,,,,,,382166,,,,,,,,
125401,note_on,20,0,9,,,,,,,,,13,,,,56,0
125403,control_change,12,0,7,,,,,,,,,11,11,103,,,
125403,note_on,0,0,7,,,,,,,,,11,,,,70,100
125403,control_change,12,0,1,,,,,,,,,0,11,103,,,
125403,note_on,0,0,1,,,,,,,,,0,,,,82,82
125403,note_on,20,0,10,,,,,,,,,14,,,,44,0
125406,note_on,10,0,8,,,,,,,,,12,,,,58,98
125411,note_on,10,0,9,,,,,,,,,13,,,,56,89
125413,note_on,10,0,10,,,,,,,,,14,,,,44,73
125418,control_change,18,0,6,,,,,,,,,10,11,101,,,
125421,control_change,18,0,7,,,,,,,,,11,11,101,,,
125421,control_change,18,0,1,,,,,,,,,0,11,101,,,
125426,note_on,20,0,8,,,,,,,,,12,,,,58,0
125431,note_on,20,0,9,,,,,,,,,13,,,,56,0
125433,note_on,20,0,10,,,,,,,,,14,,,,44,0
125436,control_change,18,0,6,,,,,,,,,10,11,99,,,
125436,note_on,10,0,8,,,,,,,,,12,,,,58,90
125439,control_change,18,0,7,,,,,,,,,11,11,99,,,
125439,control_change,18,0,1,,,,,,,,,0,11,99,,,
125441,note_on,10,0,9,,,,,,,,,13,,,,56,81
125443,note_on,10,0,10,,,,,,,,,14,,,,44,65
125454,control_change,18,0,6,,,,,,,,,10,11,97,,,
125456,note_on,20,0,8,,,,,,,,,12,,,,58,0
125457,control_change,18,0,1,,,,,,,,,0,11,97,,,
125457,control_change,18,0,7,,,,,,,,,11,11,97,,,
125461,note_on,20,0,9,,,,,,,,,13,,,,56,0
125463,note_on,20,0,10,,,,,,,,,14,,,,44,0
125466,note_on,10,0,8,,,,,,,,,12,,,,58,98
125471,note_on,10,0,9,,,,,,,,,13,,,,56,89
125472,control_change,18,0,6,,,,,,,,,10,11,95,,,
125473,note_on,10,0,10,,,,,,,,,14,,,,44,73
125475,control_change,18,0,1,,,,,,,,,0,11,95,,,
125475,control_change,18,0,7,,,,,,,,,11,11,95,,,
125486,note_on,20,0,8,,,,,,,,,12,,,,58,0
125490,set_tempo,90,1,0,,,,,,483871,,,,,,,,
125490,control_change,18,0,6,,,,,,,,,10,11,93,,,
125491,note_on,20,0,9,,,,,,,,,13,,,,56,0
125493,control_change,18,0,7,,,,,,,,,11,11,93,,,
125493,note_on,20,0,10,,,,,,,,,14,,,,44,0
125493,control_change,18,0,1,,,,,,,,,0,11,93,,,
125496,note_on,10,0,8,,,,,,,,,12,,,,58,90
125500,note_on,10,0,6,,,,,,,,,10,,,,82,0
125501,note_on,10,0,9,,,,,,,,,13,,,,56,81
125503,note_on,10,0,1,,,,,,,,,0,,,,82,0
125503,note_on,10,0,7,,,,,,,,,11,,,,70,0
125503,note_on,10,0,10,,,,,,,,,14,,,,44,65
125508,control_change,8,0,6,,,,,,,,,10,11,91,,,
125511,control_change,8,0,7,,,,,,,,,11,11,91,,,
125511,control_change,8,0,1,,,,,,,,,0,11,91,,,
125514,note_on,470,0,4,,,,,,,,,4,,,,58,0
125515,note_on,0,0,2,,,,,,,,,1,,,,65,0
125515,note_on,470,0,2,,,,,,,,,1,,,,74,0
125516,note_on,20,0,8,,,,,,,,,12,,,,58,0
125516,note_on,470,0,5,,,,,,,,,5,,,,46,0
125520,note_on,0,0,6,,,,,,,,,10,,,,75,100
125520,control_change,12,0,6,,,,,,,,,10,11,103,,,
125520,set_tempo,30,1,0,,,,,,355030,,,,,,,,
125521,note_on,20,0,9,,,,,,,,,13,,,,56,0
125522,note_on,470,0,3,,,,,,,,,3,,,,58,0
125522,note_on,0,0,3,,,,,,,,,3,,,,56,0
125523,control_change,12,0,7,,,,,,,,,11,11,103,,,
125523,note_on,0,0,1,,,,,,,,,0,,,,87,82
125523,note_on,20,0,10,,,,,,,,,14,,,,44,0
125523,note_on,0,0,7,,,,,,,,,11,,,,63,100
125523,control_change,12,0,1,,,,,,,,,0,11,103,,,
125524,note_on,10,0,4,,,,,,,,,4,,,,58,86
125525,note_on,0,0,2,,,,,,,,,1,,,,75,81
125525,note_on,10,0,2,,,,,,,,,1,,,,70,81
125526,note_on,10,0,8,,,,,,,,,12,,,,58,98
125526,note_on,10,0,5,,,,,,,,,5,,,,46,86
125531,note_on,10,0,9,,,,,,,,,13,,,,54,89
125532,note_on,10,0,3,,,,,,,,,3,,,,54,81
125533,note_on,10,0,10,,,,,,,,,14,,,,42,73
125538,control_change,18,0,6,,,,,,,,,10,11,101,,,
125541,control_change,18,0,1,,,,,,,,,0,11,101,,,
125541,control_change,18,0,7,,,,,,,,,11,11,101,,,
125546,note_on,20,0,8,,,,,,,,,12,,,,58,0
125551,note_on,20,0,9,,,,,,,,,13,,,,54,0
125553,note_on,20,0,10,,,,,,,,,14,,,,42,0
125556,note_on,10,0,8,,,,,,,,,12,,,,58,90
125556,control_change,18,0,6,,,,,,,,,10,11,99,,,
125559,control_change,18,0,1,,,,,,,,,0,11,99,,,
125559,control_change,18,0,7,,,,,,,,,11,11,99,,,
125561,note_on,10,0,9,,,,,,,,,13,,,,54,81
125563,note_on,10,0,10,,,,,,,,,14,,,,42,65
125574,control_change,18,0,6,,,,,,,,,10,11,97,,,
125576,note_on,20,0,8,,,,,,,,,12,,,,58,0
125577,control_change,18,0,1,,,,,,,,,0,11,97,,,
125577,control_change,18,0,7,,,,,,,,,11,11,97,,,
125581,note_on,20,0,9,,,,,,,,,13,,,,54,0
125583,note_on,20,0,10,,,,,,,,,14,,,,42,0
125586,note_on,10,0,8,,,,,,,,,12,,,,58,98
125591,note_on,10,0,9,,,,,,,,,13,,,,54,89
125592,control_change,18,0,6,,,,,,,,,10,11,95,,,
125593,note_on,10,0,10,,,,,,,,,14,,,,42,73
125595,control_change,18,0,7,,,,,,,,,11,11,95,,,
125595,control_change,18,0,1,,,,,,,,,0,11,95,,,
125606,note_on,20,0,8,,,,,,,,,12,,,,58,0
125610,control_change,18,0,6,,,,,,,,,10,11,93,,,
125611,note_on,20,0,9,,,,,,,,,13,,,,54,0
125613,note_on,20,0,10,,,,,,,,,14,,,,42,0
125613,control_change,18,0,7,,,,,,,,,11,11,93,,,
125613,control_change,18,0,1,,,,,,,,,0,11,93,,,
125616,note_on,10,0,8,,,,,,,,,12,,,,58,90
125621,note_on,10,0,9,,,,,,,,,13,,,,54,81
125623,note_on,10,0,10,,,,,,,,,14,,,,42,65
125628,control_change,18,0,6,,,,,,,,,10,11,91,,,
125631,control_change,18,0,7,,,,,,,,,11,11,91,,,
125631,control_change,18,0,1,,,,,,,,,0,11,91,,,
125636,note_on,20,0,8,,,,,,,,,12,,,,58,0
125640,set_tempo,120,1,0,,,,,,382166,,,,,,,,
125641,note_on,20,0,9,,,,,,,,,13,,,,54,0
125643,note_on,20,0,10,,,,,,,,,14,,,,42,0
125646,note_on,10,0,8,,,,,,,,,12,,,,58,98
125651,note_on,10,0,9,,,,,,,,,13,,,,54,89
125653,note_on,10,0,10,,,,,,,,,14,,,,42,73
125666,note_on,20,0,8,,,,,,,,,12,,,,58,0
125671,note_on,20,0,9,,,,,,,,,13,,,,54,0
125673,note_on,20,0,10,,,,,,,,,14,,,,42,0
125676,note_on,10,0,8,,,,,,,,,12,,,,58,90
125681,note_on,10,0,9,,,,,,,,,13,,,,54,81
125683,note_on,10,0,10,,,,,,,,,14,,,,42,65
125696,note_on,20,0,8,,,,,,,,,12,,,,58,0
125701,note_on,20,0,9,,,,,,,,,13,,,,54,0
125703,note_on,20,0,10,,,,,,,,,14,,,,42,0
125706,note_on,10,0,8,,,,,,,,,12,,,,58,98
125711,note_on,10,0,9,,,,,,,,,13,,,,54,89
125713,note_on,10,0,10,,,,,,,,,14,,,,42,73
125726,note_on,20,0,8,,,,,,,,,12,,,,58,0
125731,note_on,20,0,9,,,,,,,,,13,,,,54,0
125733,note_on,20,0,10,,,,,,,,,14,,,,42,0
125736,note_on,10,0,8,,,,,,,,,12,,,,58,90
125740,note_on,112,0,6,,,,,,,,,10,,,,75,0
125741,note_on,10,0,9,,,,,,,,,13,,,,54,81
125743,note_on,112,0,7,,,,,,,,,11,,,,63,0
125743,note_on,112,0,1,,,,,,,,,0,,,,87,0
125743,note_on,10,0,10,,,,,,,,,14,,,,42,65
125754,note_on,230,0,4,,,,,,,,,4,,,,58,0
125755,note_on,0,0,2,,,,,,,,,1,,,,70,0
125755,note_on,230,0,2,,,,,,,,,1,,,,75,0
125756,note_on,20,0,8,,,,,,,,,12,,,,58,0
125756,note_on,230,0,5,,,,,,,,,5,,,,46,0
125760,set_tempo,120,1,0,,,,,,355030,,,,,,,,
125760,control_change,20,0,6,,,,,,,,,10,11,103,,,
125760,note_on,0,0,6,,,,,,,,,10,,,,77,100
125761,note_on,20,0,9,,,,,,,,,13,,,,54,0
125762,note_on,230,0,3,,,,,,,,,3,,,,54,0
125763,note_on,0,0,1,,,,,,,,,0,,,,89,82
125763,note_on,20,0,10,,,,,,,,,14,,,,42,0
125763,control_change,20,0,1,,,,,,,,,0,11,103,,,
125763,control_change,20,0,7,,,,,,,,,11,11,103,,,
125763,note_on,0,0,7,,,,,,,,,11,,,,65,100
125764,note_on,10,0,4,,,,,,,,,4,,,,58,86
125765,note_on,10,0,2,,,,,,,,,1,,,,70,81
125765,note_on,0,0,2,,,,,,,,,1,,,,77,81
125766,note_on,10,0,8,,,,,,,,,12,,,,58,98
125766,note_on,10,0,5,,,,,,,,,5,,,,46,86
125771,note_on,10,0,9,,,,,,,,,13,,,,53,89
125772,note_on,10,0,3,,,,,,,,,3,,,,53,81
125773,note_on,10,0,10,,,,,,,,,14,,,,41,73
125778,control_change,18,0,6,,,,,,,,,10,11,101,,,
125781,control_change,18,0,1,,,,,,,,,0,11,101,,,
125781,control_change,18,0,7,,,,,,,,,11,11,101,,,
125786,note_on,20,0,8,,,,,,,,,12,,,,58,0
125791,note_on,20,0,9,,,,,,,,,13,,,,53,0
125793,note_on,20,0,10,,,,,,,,,14,,,,41,0
125796,control_change,18,0,6,,,,,,,,,10,11,99,,,
125796,note_on,10,0,8,,,,,,,,,12,,,,58,90
125799,control_change,18,0,7,,,,,,,,,11,11,99,,,
125799,control_change,18,0,1,,,,,,,,,0,11,99,,,
125801,note_on,10,0,9,,,,,,,,,13,,,,53,81
125803,note_on,10,0,10,,,,,,,,,14,,,,41,65
125814,control_change,18,0,6,,,,,,,,,10,11,97,,,
125816,note_on,20,0,8,,,,,,,,,12,,,,58,0
125817,control_change,18,0,1,,,,,,,,,0,11,97,,,
125817,control_change,18,0,7,,,,,,,,,11,11,97,,,
125821,note_on,20,0,9,,,,,,,,,13,,,,53,0
125823,note_on,20,0,10,,,,,,,,,14,,,,41,0
125826,note_on,10,0,8,,,,,,,,,12,,,,58,98
125831,note_on,10,0,9,,,,,,,,,13,,,,53,89
125832,control_change,18,0,6,,,,,,,,,10,11,95,,,
125833,note_on,10,0,10,,,,,,,,,14,,,,41,73
125835,control_change,18,0,1,,,,,,,,,0,11,95,,,
125835,control_change,18,0,7,,,,,,,,,11,11,95,,,
125846,note_on,20,0,8,,,,,,,,,12,,,,58,0
125850,control_change,18,0,6,,,,,,,,,10,11,93,,,
125851,note_on,20,0,9,,,,,,,,,13,,,,53,0
125853,control_change,18,0,1,,,,,,,,,0,11,93,,,
125853,control_change,18,0,7,,,,,,,,,11,11,93,,,
125853,note_on,20,0,10,,,,,,,,,14,,,,41,0
125856,note_on,10,0,8,,,,,,,,,12,,,,58,90
125861,note_on,10,0,9,,,,,,,,,13,,,,53,81
125863,note_on,10,0,10,,,,,,,,,14,,,,41,65
125868,control_change,18,0,6,,,,,,,,,10,11,91,,,
125871,control_change,18,0,7,,,,,,,,,11,11,91,,,
125871,control_change,18,0,1,,,,,,,,,0,11,91,,,
125876,note_on,20,0,8,,,,,,,,,12,,,,58,0
125880,set_tempo,120,1,0,,,,,,382166,,,,,,,,
125881,note_on,20,0,9,,,,,,,,,13,,,,53,0
125883,note_on,20,0,10,,,,,,,,,14,,,,41,0
125886,note_on,10,0,8,,,,,,,,,12,,,,58,98
125891,note_on,10,0,9,,,,,,,,,13,,,,53,89
125893,note_on,10,0,10,,,,,,,,,14,,,,41,73
125906,note_on,20,0,8,,,,,,,,,12,,,,58,0
125911,note_on,20,0,9,,,,,,,,,13,,,,53,0
125913,note_on,20,0,10,,,,,,,,,14,,,,41,0
125916,note_on,10,0,8,,,,,,,,,12,,,,58,90
125921,note_on,10,0,9,,,,,,,,,13,,,,53,81
125923,note_on,10,0,10,,,,,,,,,14,,,,41,65
125936,note_on,20,0,8,,,,,,,,,12,,,,58,0
125941,note_on,20,0,9,,,,,,,,,13,,,,53,0
125943,note_on,20,0,10,,,,,,,,,14,,,,41,0
125946,note_on,10,0,8,,,,,,,,,12,,,,58,98
125951,note_on,10,0,9,,,,,,,,,13,,,,53,89
125953,note_on,10,0,10,,,,,,,,,14,,,,41,73
125966,note_on,20,0,8,,,,,,,,,12,,,,58,0
125971,note_on,20,0,9,,,,,,,,,13,,,,53,0
125973,note_on,20,0,10,,,,,,,,,14,,,,41,0
125976,note_on,10,0,8,,,,,,,,,12,,,,58,90
125981,note_on,10,0,9,,,,,,,,,13,,,,53,81
125983,note_on,10,0,10,,,,,,,,,14,,,,41,65
125990,note_on,122,0,6,,,,,,,,,10,,,,77,0
125993,note_on,122,0,7,,,,,,,,,11,,,,65,0
125993,note_on,122,0,1,,,,,,,,,0,,,,89,0
125994,note_on,230,0,4,,,,,,,,,4,,,,58,0
125995,note_on,230,0,2,,,,,,,,,1,,,,77,0
125995,note_on,0,0,2,,,,,,,,,1,,,,70,0
125996,note_on,230,0,5,,,,,,,,,5,,,,46,0
125996,note_on,20,0,8,,,,,,,,,12,,,,58,0
126000,set_tempo,120,1,0,,,,,,355030,,,,,,,,
126000,note_on,0,0,6,,,,,,,,,10,,,,78,100
126000,control_change,10,0,6,,,,,,,,,10,11,103,,,
126001,note_on,20,0,9,,,,,,,,,13,,,,53,0
126002,note_on,230,0,3,,,,,,,,,3,,,,53,0
126003,note_on,20,0,10,,,,,,,,,14,,,,41,0
126003,control_change,10,0,1,,,,,,,,,0,11,103,,,
126003,control_change,10,0,7,,,,,,,,,11,11,103,,,
126003,note_on,0,0,7,,,,,,,,,11,,,,66,100
126003,note_on,0,0,1,,,,,,,,,0,,,,90,82
126004,note_on,10,0,4,,,,,,,,,4,,,,58,86
126005,note_on,0,0,2,,,,,,,,,1,,,,70,81
126005,note_on,10,0,2,,,,,,,,,1,,,,78,81
126006,note_on,10,0,8,,,,,,,,,12,,,,58,98
126006,note_on,10,0,5,,,,,,,,,5,,,,46,86
126011,note_on,10,0,9,,,,,,,,,13,,,,51,89
126012,note_on,10,0,3,,,,,,,,,3,,,,51,81
126013,note_on,10,0,10,,,,,,,,,14,,,,39,73
126018,control_change,18,0,6,,,,,,,,,10,11,101,,,
126021,control_change,18,0,7,,,,,,,,,11,11,101,,,
126021,control_change,18,0,1,,,,,,,,,0,11,101,,,
126026,note_on,20,0,8,,,,,,,,,12,,,,58,0
126031,note_on,20,0,9,,,,,,,,,13,,,,51,0
126033,note_on,20,0,10,,,,,,,,,14,,,,39,0
126036,note_on,10,0,8,,,,,,,,,12,,,,58,90
126036,control_change,18,0,6,,,,,,,,,10,11,99,,,
126039,control_change,18,0,1,,,,,,,,,0,11,99,,,
126039,control_change,18,0,7,,,,,,,,,11,11,99,,,
126041,note_on,10,0,9,,,,,,,,,13,,,,51,81
126043,note_on,10,0,10,,,,,,,,,14,,,,39,65
126054,control_change,18,0,6,,,,,,,,,10,11,97,,,
126056,note_on,20,0,8,,,,,,,,,12,,,,58,0
126057,control_change,18,0,7,,,,,,,,,11,11,97,,,
126057,control_change,18,0,1,,,,,,,,,0,11,97,,,
126061,note_on,20,0,9,,,,,,,,,13,,,,51,0
126063,note_on,20,0,10,,,,,,,,,14,,,,39,0
126066,note_on,10,0,8,,,,,,,,,12,,,,58,98
126071,note_on,10,0,9,,,,,,,,,13,,,,51,89
126072,control_change,18,0,6,,,,,,,,,10,11,95,,,
126073,note_on,10,0,10,,,,,,,,,14,,,,39,73
126075,control_change,18,0,1,,,,,,,,,0,11,95,,,
126075,control_change,18,0,7,,,,,,,,,11,11,95,,,
126086,note_on,20,0,8,,,,,,,,,12,,,,58,0
126090,control_change,18,0,6,,,,,,,,,10,11,93,,,
126091,note_on,20,0,9,,,,,,,,,13,,,,51,0
126093,control_change,18,0,1,,,,,,,,,0,11,93,,,
126093,control_change,18,0,7,,,,,,,,,11,11,93,,,
126093,note_on,20,0,10,,,,,,,,,14,,,,39,0
126096,note_on,10,0,8,,,,,,,,,12,,,,58,90
126101,note_on,10,0,9,,,,,,,,,13,,,,51,81
126103,note_on,10,0,10,,,,,,,,,14,,,,39,65
126108,control_change,18,0,6,,,,,,,,,10,11,91,,,
126111,control_change,18,0,1,,,,,,,,,0,11,91,,,
126111,control_change,18,0,7,,,,,,,,,11,11,91,,,
126116,note_on,20,0,8,,,,,,,,,12,,,,58,0
126120,set_tempo,120,1,0,,,,,,382166,,,,,,,,
126121,note_on,20,0,9,,,,,,,,,13,,,,51,0
126123,note_on,20,0,10,,,,,,,,,14,,,,39,0
126126,note_on,10,0,8,,,,,,,,,12,,,,58,98
126131,note_on,10,0,9,,,,,,,,,13,,,,51,89
126133,note_on,10,0,10,,,,,,,,,14,,,,39,73
126146,note_on,20,0,8,,,,,,,,,12,,,,58,0
126151,note_on,20,0,9,,,,,,,,,13,,,,51,0
126153,note_on,20,0,10,,,,,,,,,14,,,,39,0
126156,note_on,10,0,8,,,,,,,,,12,,,,58,90
126161,note_on,10,0,9,,,,,,,,,13,,,,51,81
126163,note_on,10,0,10,,,,,,,,,14,,,,39,65
126176,note_on,20,0,8,,,,,,,,,12,,,,58,0
126181,note_on,20,0,9,,,,,,,,,13,,,,51,0
126183,note_on,20,0,10,,,,,,,,,14,,,,39,0
126186,note_on,10,0,8,,,,,,,,,12,,,,58,98
126191,note_on,10,0,9,,,,,,,,,13,,,,51,89
126193,note_on,10,0,10,,,,,,,,,14,,,,39,73
126206,note_on,20,0,8,,,,,,,,,12,,,,58,0
126211,note_on,20,0,9,,,,,,,,,13,,,,51,0
126213,note_on,20,0,10,,,,,,,,,14,,,,39,0
126216,note_on,10,0,8,,,,,,,,,12,,,,58,90
126221,note_on,10,0,9,,,,,,,,,13,,,,51,81
126223,note_on,10,0,10,,,,,,,,,14,,,,39,65
126230,note_on,122,0,6,,,,,,,,,10,,,,78,0
126233,note_on,122,0,1,,,,,,,,,0,,,,90,0
126233,note_on,122,0,7,,,,,,,,,11,,,,66,0
126234,note_on,230,0,4,,,,,,,,,4,,,,58,0
126235,note_on,230,0,2,,,,,,,,,1,,,,70,0
126235,note_on,0,0,2,,,,,,,,,1,,,,78,0
126236,note_on,230,0,5,,,,,,,,,5,,,,46,0
126236,note_on,20,0,8,,,,,,,,,12,,,,58,0
126240,control_change,10,0,6,,,,,,,,,10,11,103,,,
126240,set_tempo,120,1,0,,,,,,355030,,,,,,,,
126240,note_on,0,0,6,,,,,,,,,10,,,,76,100
126241,note_on,20,0,9,,,,,,,,,13,,,,51,0
126242,note_on,230,0,3,,,,,,,,,3,,,,51,0
126243,note_on,0,0,7,,,,,,,,,11,,,,64,100
126243,control_change,10,0,7,,,,,,,,,11,11,103,,,
126243,note_on,20,0,10,,,,,,,,,14,,,,39,0
126243,control_change,10,0,1,,,,,,,,,0,11,103,,,
126243,note_on,0,0,1,,,,,,,,,0,,,,88,82
126244,note_on,10,0,4,,,,,,,,,4,,,,58,86
126245,note_on,10,0,2,,,,,,,,,1,,,,76,81
126245,note_on,0,0,2,,,,,,,,,1,,,,70,81
126246,note_on,10,0,5,,,,,,,,,5,,,,46,86
126246,note_on,10,0,8,,,,,,,,,12,,,,58,98
126251,note_on,10,0,9,,,,,,,,,13,,,,54,89
126252,note_on,10,0,3,,,,,,,,,3,,,,54,81
126253,note_on,10,0,10,,,,,,,,,14,,,,42,73
126258,control_change,18,0,6,,,,,,,,,10,11,101,,,
126261,control_change,18,0,7,,,,,,,,,11,11,101,,,
126261,control_change,18,0,1,,,,,,,,,0,11,101,,,
126266,note_on,20,0,8,,,,,,,,,12,,,,58,0
126271,note_on,20,0,9,,,,,,,,,13,,,,54,0
126273,note_on,20,0,10,,,,,,,,,14,,,,42,0
126276,note_on,10,0,8,,,,,,,,,12,,,,58,90
126276,control_change,18,0,6,,,,,,,,,10,11,99,,,
126279,control_change,18,0,7,,,,,,,,,11,11,99,,,
126279,control_change,18,0,1,,,,,,,,,0,11,99,,,
126281,note_on,10,0,9,,,,,,,,,13,,,,54,81
126283,note_on,10,0,10,,,,,,,,,14,,,,42,65
126294,control_change,18,0,6,,,,,,,,,10,11,97,,,
126296,note_on,20,0,8,,,,,,,,,12,,,,58,0
126297,control_change,18,0,1,,,,,,,,,0,11,97,,,
126297,control_change,18,0,7,,,,,,,,,11,11,97,,,
126301,note_on,20,0,9,,,,,,,,,13,,,,54,0
126303,note_on,20,0,10,,,,,,,,,14,,,,42,0
126306,note_on,10,0,8,,,,,,,,,12,,,,58,98
126311,note_on,10,0,9,,,,,,,,,13,,,,54,89
126312,control_change,18,0,6,,,,,,,,,10,11,95,,,
126313,note_on,10,0,10,,,,,,,,,14,,,,42,73
126315,control_change,18,0,7,,,,,,,,,11,11,95,,,
126315,control_change,18,0,1,,,,,,,,,0,11,95,,,
126326,note_on,20,0,8,,,,,,,,,12,,,,58,0
126330,control_change,18,0,6,,,,,,,,,10,11,93,,,
126331,note_on,20,0,9,,,,,,,,,13,,,,54,0
126333,note_on,20,0,10,,,,,,,,,14,,,,42,0
126333,control_change,18,0,1,,,,,,,,,0,11,93,,,
126333,control_change,18,0,7,,,,,,,,,11,11,93,,,
126336,note_on,10,0,8,,,,,,,,,12,,,,58,90
126341,note_on,10,0,9,,,,,,,,,13,,,,54,81
126343,note_on,10,0,10,,,,,,,,,14,,,,42,65
126348,control_change,18,0,6,,,,,,,,,10,11,91,,,
126351,control_change,18,0,1,,,,,,,,,0,11,91,,,
126351,control_change,18,0,7,,,,,,,,,11,11,91,,,
126356,note_on,20,0,8,,,,,,,,,12,,,,58,0
126360,set_tempo,120,1,0,,,,,,382166,,,,,,,,
126361,note_on,20,0,9,,,,,,,,,13,,,,54,0
126363,note_on,20,0,10,,,,,,,,,14,,,,42,0
126366,note_on,10,0,8,,,,,,,,,12,,,,58,98
126371,note_on,10,0,9,,,,,,,,,13,,,,54,89
126373,note_on,10,0,10,,,,,,,,,14,,,,42,73
126386,note_on,20,0,8,,,,,,,,,12,,,,58,0
126391,note_on,20,0,9,,,,,,,,,13,,,,54,0
126393,note_on,20,0,10,,,,,,,,,14,,,,42,0
126396,note_on,10,0,8,,,,,,,,,12,,,,58,90
126401,note_on,10,0,9,,,,,,,,,13,,,,54,81
126403,note_on,10,0,10,,,,,,,,,14,,,,42,65
126416,note_on,20,0,8,,,,,,,,,12,,,,58,0
126421,note_on,20,0,9,,,,,,,,,13,,,,54,0
126423,note_on,20,0,10,,,,,,,,,14,,,,42,0
126426,note_on,10,0,8,,,,,,,,,12,,,,58,98
126431,note_on,10,0,9,,,,,,,,,13,,,,54,89
126433,note_on,10,0,10,,,,,,,,,14,,,,42,73
126446,note_on,20,0,8,,,,,,,,,12,,,,58,0
126451,note_on,20,0,9,,,,,,,,,13,,,,54,0
126453,note_on,20,0,10,,,,,,,,,14,,,,42,0
126456,note_on,10,0,8,,,,,,,,,12,,,,58,90
126461,note_on,10,0,9,,,,,,,,,13,,,,54,81
126463,note_on,10,0,10,,,,,,,,,14,,,,42,65
126470,note_on,122,0,6,,,,,,,,,10,,,,76,0
126473,note_on,122,0,1,,,,,,,,,0,,,,88,0
126473,note_on,122,0,7,,,,,,,,,11,,,,64,0
126474,note_on,230,0,4,,,,,,,,,4,,,,58,0
126475,note_on,230,0,2,,,,,,,,,1,,,,70,0
126475,note_on,0,0,2,,,,,,,,,1,,,,76,0
126476,note_on,20,0,8,,,,,,,,,12,,,,58,0
126476,note_on,230,0,5,,,,,,,,,5,,,,46,0
126480,set_tempo,120,1,0,,,,,,355030,,,,,,,,
126480,note_on,10,0,6,,,,,,,,,10,,,,77,100
126481,note_on,20,0,9,,,,,,,,,13,,,,54,0
126482,note_on,230,0,3,,,,,,,,,3,,,,54,0
126483,note_on,10,0,1,,,,,,,,,0,,,,89,82
126483,note_on,20,0,10,,,,,,,,,14,,,,42,0
126483,note_on,10,0,7,,,,,,,,,11,,,,65,100
126484,note_on,10,0,4,,,,,,,,,4,,,,53,86
126485,note_on,0,0,2,,,,,,,,,1,,,,69,81
126485,note_on,10,0,2,,,,,,,,,1,,,,77,81
126486,note_on,10,0,8,,,,,,,,,12,,,,57,98
126486,note_on,10,0,5,,,,,,,,,5,,,,41,86
126491,note_on,10,0,9,,,,,,,,,13,,,,53,89
126492,note_on,10,0,3,,,,,,,,,3,,,,53,81
126493,note_on,10,0,10,,,,,,,,,14,,,,41,73
126536,note_on,50,0,8,,,,,,,,,12,,,,57,0
126541,note_on,50,0,9,,,,,,,,,13,,,,53,0
126542,note_on,50,0,3,,,,,,,,,3,,,,53,0
126543,note_on,50,0,10,,,,,,,,,14,,,,41,0
126546,note_on,10,0,8,,,,,,,,,12,,,,65,98
126551,note_on,10,0,9,,,,,,,,,13,,,,53,89
126552,note_on,10,0,3,,,,,,,,,3,,,,53,81
126553,note_on,10,0,10,,,,,,,,,14,,,,41,73
126580,note_on,100,0,6,,,,,,,,,10,,,,77,0
126583,note_on,100,0,7,,,,,,,,,11,,,,65,0
126583,note_on,100,0,1,,,,,,,,,0,,,,89,0
126584,note_on,100,0,4,,,,,,,,,4,,,,53,0
126585,note_on,100,0,2,,,,,,,,,1,,,,69,0
126585,note_on,0,0,2,,,,,,,,,1,,,,77,0
126586,note_on,100,0,5,,,,,,,,,5,,,,41,0
126596,note_on,50,0,8,,,,,,,,,12,,,,65,0
126600,note_on,0,0,6,,,,,,,,,10,,,,72,100
126600,set_tempo,120,1,0,,,,,,382166,,,,,,,,
126600,note_on,20,0,6,,,,,,,,,10,,,,81,100
126601,note_on,50,0,9,,,,,,,,,13,,,,53,0
126602,note_on,50,0,3,,,,,,,,,3,,,,53,0
126603,note_on,50,0,10,,,,,,,,,14,,,,41,0
126603,note_on,20,0,1,,,,,,,,,0,,,,81,82
126603,note_on,0,0,7,,,,,,,,,11,,,,69,100
126603,note_on,20,0,7,,,,,,,,,11,,,,65,100
126604,note_on,20,0,4,,,,,,,,,4,,,,53,86
126605,note_on,20,0,2,,,,,,,,,1,,,,72,81
126605,note_on,0,0,2,,,,,,,,,1,,,,69,81
126606,note_on,20,0,5,,,,,,,,,5,,,,41,86
126606,note_on,10,0,8,,,,,,,,,12,,,,63,98
126611,note_on,10,0,9,,,,,,,,,13,,,,51,89
126612,note_on,10,0,3,,,,,,,,,3,,,,51,81
126613,note_on,10,0,10,,,,,,,,,14,,,,39,73
126656,note_on,50,0,8,,,,,,,,,12,,,,63,0
126661,note_on,50,0,9,,,,,,,,,13,,,,51,0
126662,note_on,50,0,3,,,,,,,,,3,,,,51,0
126663,note_on,50,0,10,,,,,,,,,14,,,,39,0
126666,note_on,10,0,8,,,,,,,,,12,,,,65,98
126671,note_on,10,0,9,,,,,,,,,13,,,,53,89
126672,note_on,10,0,3,,,,,,,,,3,,,,53,81
126673,note_on,10,0,10,,,,,,,,,14,,,,41,73
126700,note_on,0,0,6,,,,,,,,,10,,,,81,0
126700,note_on,100,0,6,,,,,,,,,10,,,,72,0
126703,note_on,100,0,1,,,,,,,,,0,,,,81,0
126703,note_on,0,0,7,,,,,,,,,11,,,,65,0
126703,note_on,100,0,7,,,,,,,,,11,,,,69,0
126704,note_on,100,0,4,,,,,,,,,4,,,,53,0
126705,note_on,0,0,2,,,,,,,,,1,,,,72,0
126705,note_on,100,0,2,,,,,,,,,1,,,,69,0
126706,note_on,100,0,5,,,,,,,,,5,,,,41,0
126716,note_on,50,0,8,,,,,,,,,12,,,,65,0
126720,note_on,20,0,6,,,,,,,,,10,,,,82,100
126720,note_on,0,0,6,,,,,,,,,10,,,,73,100
126720,set_tempo,120,1,0,,,,,,355030,,,,,,,,
126721,note_on,50,0,9,,,,,,,,,13,,,,53,0
126722,note_on,50,0,3,,,,,,,,,3,,,,53,0
126723,note_on,0,0,7,,,,,,,,,11,,,,65,100
126723,note_on,50,0,10,,,,,,,,,14,,,,41,0
126723,note_on,20,0,7,,,,,,,,,11,,,,70,100
126723,note_on,20,0,1,,,,,,,,,0,,,,82,82
126724,note_on,20,0,4,,,,,,,,,4,,,,53,86
126725,note_on,20,0,2,,,,,,,,,1,,,,70,81
126725,note_on,0,0,2,,,,,,,,,1,,,,73,81
126726,note_on,20,0,5,,,,,,,,,5,,,,41,86
126726,note_on,10,0,8,,,,,,,,,12,,,,61,98
126731,note_on,10,0,9,,,,,,,,,13,,,,49,89
126732,note_on,10,0,3,,,,,,,,,3,,,,49,81
126733,note_on,10,0,10,,,,,,,,,14,,,,37,73
126776,note_on,50,0,8,,,,,,,,,12,,,,61,0
126781,note_on,50,0,9,,,,,,,,,13,,,,49,0
126782,note_on,50,0,3,,,,,,,,,3,,,,49,0
126783,note_on,50,0,10,,,,,,,,,14,,,,37,0
126786,note_on,10,0,8,,,,,,,,,12,,,,65,98
126791,note_on,10,0,9,,,,,,,,,13,,,,53,89
126792,note_on,10,0,3,,,,,,,,,3,,,,53,81
126793,note_on,10,0,10,,,,,,,,,14,,,,41,73
126820,note_on,100,0,6,,,,,,,,,10,,,,73,0
126820,note_on,0,0,6,,,,,,,,,10,,,,82,0
126823,note_on,100,0,7,,,,,,,,,11,,,,65,0
126823,note_on,0,0,7,,,,,,,,,11,,,,70,0
126823,note_on,100,0,1,,,,,,,,,0,,,,82,0
126824,note_on,100,0,4,,,,,,,,,4,,,,53,0
126825,note_on,100,0,2,,,,,,,,,1,,,,73,0
126825,note_on,0,0,2,,,,,,,,,1,,,,70,0
126826,note_on,100,0,5,,,,,,,,,5,,,,41,0
126836,note_on,50,0,8,,,,,,,,,12,,,,65,0
126840,note_on,20,0,6,,,,,,,,,10,,,,85,100
126840,set_tempo,120,1,0,,,,,,382166,,,,,,,,
126840,note_on,0,0,6,,,,,,,,,10,,,,77,100
126841,note_on,50,0,9,,,,,,,,,13,,,,53,0
126842,note_on,50,0,3,,,,,,,,,3,,,,53,0
126843,note_on,0,0,7,,,,,,,,,11,,,,65,100
126843,note_on,20,0,7,,,,,,,,,11,,,,73,100
126843,note_on,50,0,10,,,,,,,,,14,,,,41,0
126843,note_on,20,0,1,,,,,,,,,0,,,,85,82
126844,note_on,20,0,4,,,,,,,,,4,,,,53,86
126845,note_on,20,0,2,,,,,,,,,1,,,,73,81
126845,note_on,0,0,2,,,,,,,,,1,,,,82,81
126846,note_on,20,0,5,,,,,,,,,5,,,,41,86
126846,note_on,10,0,8,,,,,,,,,12,,,,61,98
126851,note_on,10,0,9,,,,,,,,,13,,,,49,89
126852,note_on,10,0,3,,,,,,,,,3,,,,49,81
126853,note_on,10,0,10,,,,,,,,,14,,,,37,73
126896,note_on,50,0,8,,,,,,,,,12,,,,61,0
126901,note_on,50,0,9,,,,,,,,,13,,,,49,0
126902,note_on,50,0,3,,,,,,,,,3,,,,49,0
126903,note_on,50,0,10,,,,,,,,,14,,,,37,0
126906,note_on,10,0,8,,,,,,,,,12,,,,58,98
126911,note_on,10,0,9,,,,,,,,,13,,,,46,89
126912,note_on,10,0,3,,,,,,,,,3,,,,46,81
126913,note_on,10,0,10,,,,,,,,,14,,,,34,73
126940,note_on,100,0,6,,,,,,,,,10,,,,77,0
126940,note_on,0,0,6,,,,,,,,,10,,,,85,0
126943,note_on,100,0,1,,,,,,,,,0,,,,85,0
126943,note_on,100,0,7,,,,,,,,,11,,,,65,0
126943,note_on,0,0,7,,,,,,,,,11,,,,73,0
126944,note_on,100,0,4,,,,,,,,,4,,,,53,0
126945,note_on,100,0,2,,,,,,,,,1,,,,82,0
126945,note_on,0,0,2,,,,,,,,,1,,,,73,0
126946,note_on,100,0,5,,,,,,,,,5,,,,41,0
126956,note_on,50,0,8,,,,,,,,,12,,,,58,0
126960,note_on,0,0,6,,,,,,,,,10,,,,84,100
126960,set_tempo,120,1,0,,,,,,355030,,,,,,,,
126960,note_on,20,0,6,,,,,,,,,10,,,,77,100
126961,note_on,50,0,9,,,,,,,,,13,,,,46,0
126962,note_on,50,0,3,,,,,,,,,3,,,,46,0
126963,note_on,0,0,7,,,,,,,,,11,,,,65,100
126963,note_on,20,0,7,,,,,,,,,11,,,,72,100
126963,note_on,50,0,10,,,,,,,,,14,,,,34,0
126963,note_on,20,0,1,,,,,,,,,0,,,,84,82
126964,note_on,20,0,4,,,,,,,,,4,,,,53,86
126965,note_on,20,0,2,,,,,,,,,1,,,,72,81
126965,note_on,0,0,2,,,,,,,,,1,,,,81,81
126966,note_on,10,0,8,,,,,,,,,12,,,,53,98
126966,note_on,20,0,5,,,,,,,,,5,,,,41,86
126971,note_on,10,0,9,,,,,,,,,13,,,,41,89
126972,note_on,10,0,3,,,,,,,,,3,,,,41,81
126973,note_on,10,0,10,,,,,,,,,14,,,,29,73
127016,note_on,50,0,8,,,,,,,,,12,,,,53,0
127021,note_on,50,0,9,,,,,,,,,13,,,,41,0
127022,note_on,50,0,3,,,,,,,,,3,,,,41,0
127023,note_on,50,0,10,,,,,,,,,14,,,,29,0
127026,note_on,10,0,8,,,,,,,,,12,,,,65,98
127031,note_on,10,0,9,,,,,,,,,13,,,,53,89
127032,note_on,10,0,3,,,,,,,,,3,,,,53,81
127033,note_on,10,0,10,,,,,,,,,14,,,,41,73
127060,note_on,0,0,6,,,,,,,,,10,,,,77,0
127060,note_on,100,0,6,,,,,,,,,10,,,,84,0
127063,note_on,100,0,7,,,,,,,,,11,,,,65,0
127063,note_on,100,0,1,,,,,,,,,0,,,,84,0
127063,note_on,0,0,7,,,,,,,,,11,,,,72,0
127064,note_on,100,0,4,,,,,,,,,4,,,,53,0
127065,note_on,100,0,2,,,,,,,,,1,,,,81,0
127065,note_on,0,0,2,,,,,,,,,1,,,,72,0
127066,note_on,100,0,5,,,,,,,,,5,,,,41,0
127076,note_on,50,0,8,,,,,,,,,12,,,,65,0
127080,set_tempo,120,1,0,,,,,,382166,,,,,,,,
127080,note_on,0,0,6,,,,,,,,,10,,,,81,100
127080,note_on,20,0,6,,,,,,,,,10,,,,72,100
127081,note_on,50,0,9,,,,,,,,,13,,,,53,0
127082,note_on,50,0,3,,,,,,,,,3,,,,53,0
127083,note_on,0,0,7,,,,,,,,,11,,,,65,100
127083,note_on,20,0,7,,,,,,,,,11,,,,69,100
127083,note_on,20,0,1,,,,,,,,,0,,,,81,82
127083,note_on,50,0,10,,,,,,,,,14,,,,41,0
127084,note_on,20,0,4,,,,,,,,,4,,,,53,86
127085,note_on,0,0,2,,,,,,,,,1,,,,72,81
127085,note_on,20,0,2,,,,,,,,,1,,,,69,81
127086,note_on,10,0,8,,,,,,,,,12,,,,63,98
127086,note_on,20,0,5,,,,,,,,,5,,,,41,86
127091,note_on,10,0,9,,,,,,,,,13,,,,51,89
127092,note_on,10,0,3,,,,,,,,,3,,,,51,81
127093,note_on,10,0,10,,,,,,,,,14,,,,39,73
127136,note_on,50,0,8,,,,,,,,,12,,,,63,0
127141,note_on,50,0,9,,,,,,,,,13,,,,51,0
127142,note_on,50,0,3,,,,,,,,,3,,,,51,0
127143,note_on,50,0,10,,,,,,,,,14,,,,39,0
127146,note_on,10,0,8,,,,,,,,,12,,,,65,98
127151,note_on,10,0,9,,,,,,,,,13,,,,53,89
127152,note_on,10,0,3,,,,,,,,,3,,,,53,81
127153,note_on,10,0,10,,,,,,,,,14,,,,41,73
127180,note_on,0,0,6,,,,,,,,,10,,,,72,0
127180,note_on,100,0,6,,,,,,,,,10,,,,81,0
127183,note_on,0,0,7,,,,,,,,,11,,,,69,0
127183,note_on,100,0,1,,,,,,,,,0,,,,81,0
127183,note_on,100,0,7,,,,,,,,,11,,,,65,0
127184,note_on,100,0,4,,,,,,,,,4,,,,53,0
127185,note_on,100,0,2,,,,,,,,,1,,,,72,0
127185,note_on,0,0,2,,,,,,,,,1,,,,69,0
127186,note_on,100,0,5,,,,,,,,,5,,,,41,0
127196,note_on,50,0,8,,,,,,,,,12,,,,65,0
127200,set_tempo,120,1,0,,,,,,362538,,,,,,,,
127200,note_on,20,0,6,,,,,,,,,10,,,,73,100
127200,note_on,0,0,6,,,,,,,,,10,,,,82,100
127201,note_on,50,0,9,,,,,,,,,13,,,,53,0
127202,note_on,50,0,3,,,,,,,,,3,,,,53,0
127203,note_on,0,0,7,,,,,,,,,11,,,,65,100
127203,note_on,20,0,7,,,,,,,,,11,,,,70,100
127203,note_on,20,0,1,,,,,,,,,0,,,,82,82
127203,note_on,50,0,10,,,,,,,,,14,,,,41,0
127204,note_on,20,0,4,,,,,,,,,4,,,,53,86
127205,note_on,20,0,2,,,,,,,,,1,,,,70,81
127205,note_on,0,0,2,,,,,,,,,1,,,,73,81
127206,note_on,20,0,5,,,,,,,,,5,,,,41,86
127206,note_on,10,0,8,,,,,,,,,12,,,,61,98
127211,note_on,10,0,9,,,,,,,,,13,,,,49,89
127212,note_on,10,0,3,,,,,,,,,3,,,,49,81
127213,note_on,10,0,10,,,,,,,,,14,,,,37,73
127256,note_on,50,0,8,,,,,,,,,12,,,,61,0
127261,note_on,50,0,9,,,,,,,,,13,,,,49,0
127262,note_on,50,0,3,,,,,,,,,3,,,,49,0
127263,note_on,50,0,10,,,,,,,,,14,,,,37,0
127266,note_on,10,0,8,,,,,,,,,12,,,,65,98
127271,note_on,10,0,9,,,,,,,,,13,,,,53,89
127272,note_on,10,0,3,,,,,,,,,3,,,,53,81
127273,note_on,10,0,10,,,,,,,,,14,,,,41,73
127300,note_on,100,0,6,,,,,,,,,10,,,,82,0
127300,note_on,0,0,6,,,,,,,,,10,,,,73,0
127303,note_on,100,0,1,,,,,,,,,0,,,,82,0
127303,note_on,0,0,7,,,,,,,,,11,,,,70,0
127303,note_on,100,0,7,,,,,,,,,11,,,,65,0
127304,note_on,100,0,4,,,,,,,,,4,,,,53,0
127305,note_on,0,0,2,,,,,,,,,1,,,,70,0
127305,note_on,100,0,2,,,,,,,,,1,,,,73,0
127306,note_on,100,0,5,,,,,,,,,5,,,,41,0
127316,note_on,50,0,8,,,,,,,,,12,,,,65,0
127320,note_on,20,0,6,,,,,,,,,10,,,,85,100
127320,set_tempo,120,1,0,,,,,,398671,,,,,,,,
127320,note_on,0,0,6,,,,,,,,,10,,,,77,100
127321,note_on,50,0,9,,,,,,,,,13,,,,53,0
127322,note_on,50,0,3,,,,,,,,,3,,,,53,0
127323,note_on,20,0,1,,,,,,,,,0,,,,85,82
127323,note_on,20,0,7,,,,,,,,,11,,,,73,100
127323,note_on,50,0,10,,,,,,,,,14,,,,41,0
127323,note_on,0,0,7,,,,,,,,,11,,,,65,100
127324,note_on,20,0,4,,,,,,,,,4,,,,53,86
127325,note_on,0,0,2,,,,,,,,,1,,,,73,81
127325,note_on,20,0,2,,,,,,,,,1,,,,82,81
127326,note_on,10,0,8,,,,,,,,,12,,,,61,98
127326,note_on,20,0,5,,,,,,,,,5,,,,41,86
127331,note_on,10,0,9,,,,,,,,,13,,,,49,89
127332,note_on,10,0,3,,,,,,,,,3,,,,49,81
127333,note_on,10,0,10,,,,,,,,,14,,,,37,73
127376,note_on,50,0,8,,,,,,,,,12,,,,61,0
127381,note_on,50,0,9,,,,,,,,,13,,,,49,0
127382,note_on,50,0,3,,,,,,,,,3,,,,49,0
127383,note_on,50,0,10,,,,,,,,,14,,,,37,0
127386,note_on,10,0,8,,,,,,,,,12,,,,58,98
127391,note_on,10,0,9,,,,,,,,,13,,,,46,89
127392,note_on,10,0,3,,,,,,,,,3,,,,46,81
127393,note_on,10,0,10,,,,,,,,,14,,,,34,73
127420,note_on,100,0,6,,,,,,,,,10,,,,77,0
127420,note_on,0,0,6,,,,,,,,,10,,,,85,0
127423,note_on,100,0,1,,,,,,,,,0,,,,85,0
127423,note_on,0,0,7,,,,,,,,,11,,,,73,0
127423,note_on,100,0,7,,,,,,,,,11,,,,65,0
127424,note_on,100,0,4,,,,,,,,,4,,,,53,0
127425,note_on,100,0,2,,,,,,,,,1,,,,73,0
127425,note_on,0,0,2,,,,,,,,,1,,,,82,0
127426,note_on,100,0,5,,,,,,,,,5,,,,41,0
127436,note_on,50,0,8,,,,,,,,,12,,,,58,0
127440,note_on,20,0,6,,,,,,,,,10,,,,77,100
127440,note_on,0,0,6,,,,,,,,,10,,,,84,100
127440,set_tempo,120,1,0,,,,,,377358,,,,,,,,
127441,note_on,50,0,9,,,,,,,,,13,,,,46,0
127442,note_on,50,0,3,,,,,,,,,3,,,,46,0
127443,note_on,50,0,10,,,,,,,,,14,,,,34,0
127443,note_on,20,0,1,,,,,,,,,0,,,,84,82
127443,note_on,20,0,7,,,,,,,,,11,,,,65,100
127443,note_on,0,0,7,,,,,,,,,11,,,,72,100
127444,note_on,20,0,4,,,,,,,,,4,,,,53,86
127445,note_on,0,0,2,,,,,,,,,1,,,,72,81
127445,note_on,20,0,2,,,,,,,,,1,,,,81,81
127446,note_on,10,0,8,,,,,,,,,12,,,,53,98
127446,note_on,20,0,5,,,,,,,,,5,,,,41,86
127451,note_on,10,0,9,,,,,,,,,13,,,,41,89
127452,note_on,10,0,3,,,,,,,,,3,,,,41,81
127453,note_on,10,0,10,,,,,,,,,14,,,,29,73
127560,note_on,0,0,6,,,,,,,,,10,,,,77,0
127560,set_tempo,120,1,0,,,,,,428571,,,,,,,,
127560,note_on,120,0,6,,,,,,,,,10,,,,84,0
127563,note_on,120,0,1,,,,,,,,,0,,,,84,0
127563,note_on,120,0,7,,,,,,,,,11,,,,72,0
127563,note_on,0,0,7,,,,,,,,,11,,,,65,0
127564,note_on,120,0,4,,,,,,,,,4,,,,53,0
127565,note_on,120,0,2,,,,,,,,,1,,,,72,0
127565,note_on,0,0,2,,,,,,,,,1,,,,81,0
127566,note_on,120,0,5,,,,,,,,,5,,,,41,0
127566,note_on,120,0,8,,,,,,,,,12,,,,53,0
127571,note_on,120,0,9,,,,,,,,,13,,,,41,0
127572,note_on,120,0,3,,,,,,,,,3,,,,41,0
127573,note_on,120,0,10,,,,,,,,,14,,,,29,0
127680,note_on,0,0,6,,,,,,,,,10,,,,65,84
127680,set_tempo,120,1,0,,,,,,500000,,,,,,,,
127680,note_on,120,0,6,,,,,,,,,10,,,,77,84
127680,note_on,0,0,6,,,,,,,,,10,,,,69,84
127683,note_on,120,0,1,,,,,,,,,0,,,,89,68
127683,note_on,0,0,7,,,,,,,,,11,,,,65,84
127683,note_on,120,0,7,,,,,,,,,11,,,,57,84
127684,note_on,120,0,4,,,,,,,,,4,,,,60,71
127685,note_on,0,0,2,,,,,,,,,1,,,,77,67
127685,note_on,120,0,2,,,,,,,,,1,,,,69,67
127686,note_on,120,0,5,,,,,,,,,5,,,,53,71
127686,note_on,0,0,8,,,,,,,,,12,,,,53,82
127686,note_on,0,0,8,,,,,,,,,12,,,,60,82
127686,note_on,120,0,8,,,,,,,,,12,,,,65,82
127691,note_on,120,0,9,,,,,,,,,13,,,,53,73
127692,note_on,120,0,3,,,,,,,,,3,,,,53,67
127693,note_on,120,0,10,,,,,,,,,14,,,,41,58
127800,set_tempo,120,1,0,,,,,,1000000,,,,,,,,
127800,note_on,0,0,6,,,,,,,,,10,,,,77,0
127800,note_on,120,0,6,,,,,,,,,10,,,,65,0
127800,note_on,0,0,6,,,,,,,,,10,,,,69,0
127803,note_on,0,0,7,,,,,,,,,11,,,,57,0
127803,note_on,120,0,7,,,,,,,,,11,,,,65,0
127803,note_on,120,0,1,,,,,,,,,0,,,,89,0
127804,note_on,120,0,4,,,,,,,,,4,,,,60,0
127805,note_on,120,0,2,,,,,,,,,1,,,,77,0
127805,note_on,0,0,2,,,,,,,,,1,,,,69,0
127806,note_on,120,0,5,,,,,,,,,5,,,,53,0
127806,note_on,0,0,8,,,,,,,,,12,,,,65,0
127806,note_on,120,0,8,,,,,,,,,12,,,,53,0
127806,note_on,0,0,8,,,,,,,,,12,,,,60,0
127811,note_on,120,0,9,,,,,,,,,13,,,,53,0
127812,note_on,120,0,3,,,,,,,,,3,,,,53,0
127813,note_on,120,0,10,,,,,,,,,14,,,,41,0
127920,set_tempo,120,1,0,,,,,,415225,,,,,,,,
127920,note_on,0,0,6,,,,,,,,,10,,,,74,100
127920,control_change,120,0,6,,,,,,,,,10,11,32,,,
127923,note_on,0,0,7,,,,,,,,,11,,,,62,100
127923,control_change,120,0,7,,,,,,,,,11,11,47,,,
127926,note_on,0,0,8,,,,,,,,,12,,,,58,78
127926,control_change,120,0,8,,,,,,,,,12,11,47,,,
127931,note_on,0,0,9,,,,,,,,,13,,,,46,69
127931,control_change,120,0,9,,,,,,,,,13,11,47,,,
127933,note_on,0,0,10,,,,,,,,,14,,,,34,55
127933,control_change,120,0,10,,,,,,,,,14,11,47,,,
127944,control_change,24,0,6,,,,,,,,,10,11,34,,,
127968,control_change,24,0,6,,,,,,,,,10,11,36,,,
127983,note_on,60,0,7,,,,,,,,,11,,,,62,0
127983,note_on,0,0,7,,,,,,,,,11,,,,65,100
127992,control_change,24,0,6,,,,,,,,,10,11,38,,,
128016,control_change,24,0,6,,,,,,,,,10,11,40,,,
128038,note_on,55,0,7,,,,,,,,,11,,,,65,0
128040,set_tempo,120,1,0,,,,,,379747,,,,,,,,
128040,control_change,24,0,6,,,,,,,,,10,11,42,,,
128043,note_on,5,0,7,,,,,,,,,11,,,,65,100
128046,note_on,120,0,8,,,,,,,,,12,,,,58,0
128051,note_on,120,0,9,,,,,,,,,13,,,,46,0
128053,note_on,120,0,10,,,,,,,,,14,,,,34,0
128064,control_change,24,0,6,,,,,,,,,10,11,44,,,
128073,note_on,30,0,7,,,,,,,,,11,,,,65,0
128088,control_change,24,0,6,,,,,,,,,10,11,46,,,
128103,note_on,30,0,7,,,,,,,,,11,,,,65,100
128133,note_on,30,0,7,,,,,,,,,11,,,,65,0
128160,set_tempo,120,1,0,,,,,,389610,,,,,,,,
128160,note_on,72,0,6,,,,,,,,,10,,,,74,0
128160,note_on,0,0,6,,,,,,,,,10,,,,77,100
128163,note_on,30,0,7,,,,,,,,,11,,,,63,100
128166,note_on,120,0,8,,,,,,,,,12,,,,60,78
128171,note_on,120,0,9,,,,,,,,,13,,,,48,69
128173,note_on,120,0,10,,,,,,,,,14,,,,36,55
128220,note_on,60,0,6,,,,,,,,,10,,,,77,0
128220,note_on,0,0,6,,,,,,,,,10,,,,75,100
128223,note_on,0,0,7,,,,,,,,,11,,,,65,100
128223,note_on,60,0,7,,,,,,,,,11,,,,63,0
128278,note_on,55,0,7,,,,,,,,,11,,,,65,0
128280,set_tempo,120,1,0,,,,,,372671,,,,,,,,
128280,note_on,60,0,6,,,,,,,,,10,,,,75,0
128280,note_on,0,0,6,,,,,,,,,10,,,,67,100
128283,note_on,5,0,7,,,,,,,,,11,,,,65,100
128286,note_on,120,0,8,,,,,,,,,12,,,,60,0
128291,note_on,120,0,9,,,,,,,,,13,,,,48,0
128293,note_on,120,0,10,,,,,,,,,14,,,,36,0
128313,note_on,30,0,7,,,,,,,,,11,,,,65,0
128340,note_on,60,0,6,,,,,,,,,10,,,,67,0
128340,note_on,0,0,6,,,,,,,,,10,,,,69,100
128343,note_on,30,0,7,,,,,,,,,11,,,,65,100
128373,note_on,30,0,7,,,,,,,,,11,,,,65,0
128395,note_on,55,0,6,,,,,,,,,10,,,,69,0
128400,set_tempo,120,1,0,,,,,,389610,,,,,,,,
128400,note_on,5,0,6,,,,,,,,,10,,,,72,100
128403,note_on,30,0,7,,,,,,,,,11,,,,58,100
128406,note_on,120,0,8,,,,,,,,,12,,,,62,78
128411,note_on,120,0,9,,,,,,,,,13,,,,50,69
128413,note_on,120,0,10,,,,,,,,,14,,,,38,55
128460,note_on,60,0,6,,,,,,,,,10,,,,72,0
128460,note_on,0,0,6,,,,,,,,,10,,,,70,100
128463,note_on,60,0,7,,,,,,,,,11,,,,58,0
128463,note_on,0,0,7,,,,,,,,,11,,,,65,100
128518,note_on,55,0,7,,,,,,,,,11,,,,65,0
128520,set_tempo,120,1,0,,,,,,372671,,,,,,,,
128520,note_on,0,0,6,,,,,,,,,10,,,,69,100
128520,note_on,60,0,6,,,,,,,,,10,,,,70,0
128523,note_on,5,0,7,,,,,,,,,11,,,,65,100
128526,note_on,120,0,8,,,,,,,,,12,,,,62,0
128531,note_on,120,0,9,,,,,,,,,13,,,,50,0
128533,note_on,120,0,10,,,,,,,,,14,,,,38,0
128553,note_on,30,0,7,,,,,,,,,11,,,,65,0
128580,note_on,0,0,6,,,,,,,,,10,,,,67,100
128580,note_on,60,0,6,,,,,,,,,10,,,,69,0
128583,note_on,30,0,7,,,,,,,,,11,,,,65,100
128613,note_on,30,0,7,,,,,,,,,11,,,,65,0
128635,note_on,55,0,6,,,,,,,,,10,,,,67,0
128640,set_tempo,120,1,0,,,,,,389610,,,,,,,,
128640,note_on,5,0,6,,,,,,,,,10,,,,65,100
128643,note_on,30,0,7,,,,,,,,,11,,,,57,100
128646,note_on,120,0,8,,,,,,,,,12,,,,65,78
128651,note_on,120,0,9,,,,,,,,,13,,,,53,69
128653,note_on,120,0,10,,,,,,,,,14,,,,41,55
128703,note_on,60,0,7,,,,,,,,,11,,,,57,0
128703,note_on,0,0,7,,,,,,,,,11,,,,65,100
128758,note_on,55,0,7,,,,,,,,,11,,,,65,0
128760,note_on,0,0,6,,,,,,,,,10,,,,67,100
128760,note_on,120,0,6,,,,,,,,,10,,,,65,0
128760,set_tempo,120,1,0,,,,,,372671,,,,,,,,
128763,note_on,5,0,7,,,,,,,,,11,,,,65,100
128766,note_on,120,0,8,,,,,,,,,12,,,,65,0
128771,note_on,120,0,9,,,,,,,,,13,,,,53,0
128773,note_on,120,0,10,,,,,,,,,14,,,,41,0
128790,note_on,30,0,6,,,,,,,,,10,,,,67,0
128790,note_on,0,0,6,,,,,,,,,10,,,,69,100
128793,note_on,30,0,7,,,,,,,,,11,,,,65,0
128820,note_on,30,0,6,,,,,,,,,10,,,,69,0
128820,note_on,0,0,6,,,,,,,,,10,,,,70,100
128823,note_on,30,0,7,,,,,,,,,11,,,,65,100
128850,note_on,0,0,6,,,,,,,,,10,,,,72,100
128850,note_on,30,0,6,,,,,,,,,10,,,,70,0
128853,note_on,30,0,7,,,,,,,,,11,,,,65,0
128870,note_on,20,0,6,,,,,,,,,10,,,,72,0
128880,note_on,10,0,6,,,,,,,,,10,,,,74,100
128880,set_tempo,120,1,0,,,,,,389610,,,,,,,,
128883,note_on,30,0,7,,,,,,,,,11,,,,62,100
128886,note_on,120,0,8,,,,,,,,,12,,,,58,78
128891,note_on,120,0,9,,,,,,,,,13,,,,46,69
128893,note_on,120,0,10,,,,,,,,,14,,,,34,55
128943,note_on,60,0,7,,,,,,,,,11,,,,62,0
128943,note_on,0,0,7,,,,,,,,,11,,,,65,100
128998,note_on,55,0,7,,,,,,,,,11,,,,65,0
129000,set_tempo,120,1,0,,,,,,372671,,,,,,,,
129003,note_on,5,0,7,,,,,,,,,11,,,,65,100
129006,note_on,120,0,8,,,,,,,,,12,,,,58,0
129011,note_on,120,0,9,,,,,,,,,13,,,,46,0
129013,note_on,120,0,10,,,,,,,,,14,,,,34,0
129033,note_on,30,0,7,,,,,,,,,11,,,,65,0
129063,note_on,30,0,7,,,,,,,,,11,,,,65,100
129093,note_on,30,0,7,,,,,,,,,11,,,,65,0
129115,note_on,235,0,6,,,,,,,,,10,,,,74,0
129120,note_on,5,0,6,,,,,,,,,10,,,,77,100
129120,set_tempo,120,1,0,,,,,,389610,,,,,,,,
129123,note_on,30,0,7,,,,,,,,,11,,,,63,100
129126,note_on,120,0,8,,,,,,,,,12,,,,60,78
129131,note_on,120,0,9,,,,,,,,,13,,,,48,69
129133,note_on,120,0,10,,,,,,,,,14,,,,36,55
129180,note_on,0,0,6,,,,,,,,,10,,,,75,100
129180,note_on,60,0,6,,,,,,,,,10,,,,77,0
129183,note_on,0,0,7,,,,,,,,,11,,,,65,100
129183,note_on,60,0,7,,,,,,,,,11,,,,63,0
129238,note_on,55,0,7,,,,,,,,,11,,,,65,0
129240,note_on,60,0,6,,,,,,,,,10,,,,75,0
129240,note_on,0,0,6,,,,,,,,,10,,,,67,100
129240,set_tempo,120,1,0,,,,,,372671,,,,,,,,
129243,note_on,5,0,7,,,,,,,,,11,,,,65,100
129246,note_on,120,0,8,,,,,,,,,12,,,,60,0
129251,note_on,120,0,9,,,,,,,,,13,,,,48,0
129253,note_on,120,0,10,,,,,,,,,14,,,,36,0
129273,note_on,30,0,7,,,,,,,,,11,,,,65,0
129300,note_on,0,0,6,,,,,,,,,10,,,,69,100
129300,note_on,60,0,6,,,,,,,,,10,,,,67,0
129303,note_on,30,0,7,,,,,,,,,11,,,,65,100
129333,note_on,30,0,7,,,,,,,,,11,,,,65,0
129355,note_on,55,0,6,,,,,,,,,10,,,,69,0
129360,note_on,5,0,6,,,,,,,,,10,,,,72,100
129360,set_tempo,120,1,0,,,,,,389610,,,,,,,,
129363,note_on,30,0,7,,,,,,,,,11,,,,58,100
129366,note_on,120,0,8,,,,,,,,,12,,,,62,78
129371,note_on,120,0,9,,,,,,,,,13,,,,50,69
129373,note_on,120,0,10,,,,,,,,,14,,,,38,55
129420,note_on,0,0,6,,,,,,,,,10,,,,70,100
129420,note_on,60,0,6,,,,,,,,,10,,,,72,0
129423,note_on,60,0,7,,,,,,,,,11,,,,58,0
129423,note_on,0,0,7,,,,,,,,,11,,,,65,100
129478,note_on,55,0,7,,,,,,,,,11,,,,65,0
129480,note_on,0,0,6,,,,,,,,,10,,,,69,100
129480,set_tempo,120,1,0,,,,,,372671,,,,,,,,
129480,note_on,60,0,6,,,,,,,,,10,,,,70,0
129483,note_on,5,0,7,,,,,,,,,11,,,,65,100
129486,note_on,120,0,8,,,,,,,,,12,,,,62,0
129491,note_on,120,0,9,,,,,,,,,13,,,,50,0
129493,note_on,120,0,10,,,,,,,,,14,,,,38,0
129513,note_on,30,0,7,,,,,,,,,11,,,,65,0
129520,note_on,40,0,6,,,,,,,,,10,,,,69,0
129520,note_on,0,0,6,,,,,,,,,10,,,,70,100
129543,note_on,30,0,7,,,,,,,,,11,,,,65,100
129560,note_on,40,0,6,,,,,,,,,10,,,,70,0
129560,note_on,0,0,6,,,,,,,,,10,,,,67,100
129573,note_on,30,0,7,,,,,,,,,11,,,,65,0
129590,note_on,30,0,6,,,,,,,,,10,,,,67,0
129600,note_on,10,0,6,,,,,,,,,10,,,,65,100
129600,set_tempo,120,1,0,,,,,,413793,,,,,,,,
129603,note_on,30,0,7,,,,,,,,,11,,,,57,100
129606,note_on,120,0,8,,,,,,,,,12,,,,65,78
129611,note_on,120,0,9,,,,,,,,,13,,,,53,69
129613,note_on,120,0,10,,,,,,,,,14,,,,41,55
129663,note_on,0,0,7,,,,,,,,,11,,,,65,100
129663,note_on,60,0,7,,,,,,,,,11,,,,57,0
129718,note_on,55,0,7,,,,,,,,,11,,,,65,0
129720,set_tempo,120,1,0,,,,,,372671,,,,,,,,
129723,note_on,5,0,7,,,,,,,,,11,,,,65,100
129726,note_on,120,0,8,,,,,,,,,12,,,,65,0
129731,note_on,120,0,9,,,,,,,,,13,,,,53,0
129733,note_on,120,0,10,,,,,,,,,14,,,,41,0
129753,note_on,30,0,7,,,,,,,,,11,,,,65,0
129783,note_on,30,0,7,,,,,,,,,11,,,,65,100
129813,note_on,30,0,7,,,,,,,,,11,,,,65,0
129835,note_on,235,0,6,,,,,,,,,10,,,,65,0
129840,note_on,0,0,6,,,,,,,,,10,,,,65,100
129840,control_change,5,0,6,,,,,,,,,10,11,47,,,
129840,set_tempo,120,1,0,,,,,,389610,,,,,,,,
129843,note_on,0,0,7,,,,,,,,,11,,,,65,100
129843,control_change,30,0,7,,,,,,,,,11,11,47,,,
129845,control_change,2040,0,2,,,,,,,,,1,11,32,,,
129845,note_on,0,0,2,,,,,,,,,1,,,,65,81
129845,note_on,0,0,2,,,,,,,,,1,,,,74,81
129846,note_on,0,0,8,,,,,,,,,12,,,,53,98
129846,control_change,120,0,8,,,,,,,,,12,11,47,,,
129851,control_change,120,0,9,,,,,,,,,13,11,47,,,
129851,note_on,0,0,9,,,,,,,,,13,,,,58,89
129852,note_on,0,0,3,,,,,,,,,3,,,,58,81
129852,control_change,2040,0,3,,,,,,,,,3,11,32,,,
129853,note_on,0,0,10,,,,,,,,,14,,,,46,73
129853,control_change,120,0,10,,,,,,,,,14,11,47,,,
129856,control_change,16,0,6,,,,,,,,,10,11,48,,,
129859,control_change,16,0,7,,,,,,,,,11,11,48,,,
129862,control_change,16,0,8,,,,,,,,,12,11,48,,,
129863,control_change,18,0,2,,,,,,,,,1,11,35,,,
129867,control_change,16,0,9,,,,,,,,,13,11,48,,,
129869,control_change,16,0,10,,,,,,,,,14,11,48,,,
129870,control_change,18,0,3,,,,,,,,,3,11,35,,,
129872,control_change,16,0,6,,,,,,,,,10,11,49,,,
129875,control_change,16,0,7,,,,,,,,,11,11,49,,,
129878,control_change,16,0,8,,,,,,,,,12,11,49,,,
129881,control_change,18,0,2,,,,,,,,,1,11,38,,,
129883,control_change,16,0,9,,,,,,,,,13,11,49,,,
129885,control_change,16,0,10,,,,,,,,,14,11,49,,,
129888,control_change,16,0,6,,,,,,,,,10,11,50,,,
129888,control_change,18,0,3,,,,,,,,,3,11,38,,,
129891,control_change,16,0,7,,,,,,,,,11,11,50,,,
129894,control_change,16,0,8,,,,,,,,,12,11,50,,,
129899,control_change,16,0,9,,,,,,,,,13,11,50,,,
129899,control_change,18,0,2,,,,,,,,,1,11,41,,,
129900,note_on,12,0,6,,,,,,,,,10,,,,65,0
129900,note_on,0,0,6,,,,,,,,,10,,,,74,100
129901,control_change,16,0,10,,,,,,,,,14,11,50,,,
129904,control_change,4,0,6,,,,,,,,,10,11,51,,,
129906,control_change,18,0,3,,,,,,,,,3,11,41,,,
129906,note_on,0,0,8,,,,,,,,,12,,,,62,98
129906,note_on,12,0,8,,,,,,,,,12,,,,53,0
129907,control_change,16,0,7,,,,,,,,,11,11,51,,,
129910,control_change,4,0,8,,,,,,,,,12,11,51,,,
129915,control_change,16,0,9,,,,,,,,,13,11,51,,,
129917,control_change,16,0,10,,,,,,,,,14,11,51,,,
129920,control_change,16,0,6,,,,,,,,,10,11,52,,,
129923,control_change,16,0,7,,,,,,,,,11,11,52,,,
129926,control_change,16,0,8,,,,,,,,,12,11,52,,,
129931,control_change,16,0,9,,,,,,,,,13,11,52,,,
129933,control_change,16,0,10,,,,,,,,,14,11,52,,,
129936,control_change,16,0,6,,,,,,,,,10,11,53,,,
129939,control_change,16,0,7,,,,,,,,,11,11,53,,,
129942,control_change,16,0,8,,,,,,,,,12,11,53,,,
129947,control_change,16,0,9,,,,,,,,,13,11,53,,,
129949,control_change,16,0,10,,,,,,,,,14,11,53,,,
129952,control_change,16,0,6,,,,,,,,,10,11,54,,,
129955,control_change,16,0,7,,,,,,,,,11,11,54,,,
129955,note_on,3,0,6,,,,,,,,,10,,,,74,0
129958,control_change,16,0,8,,,,,,,,,12,11,54,,,
129960,note_on,5,0,6,,,,,,,,,10,,,,74,100
129960,set_tempo,120,1,0,,,,,,372671,,,,,,,,
129961,note_on,3,0,8,,,,,,,,,12,,,,62,0
129963,control_change,16,0,9,,,,,,,,,13,11,54,,,
129965,control_change,16,0,10,,,,,,,,,14,11,54,,,
129966,note_on,5,0,8,,,,,,,,,12,,,,62,98
129968,control_change,8,0,6,,,,,,,,,10,11,55,,,
129971,note_on,8,0,9,,,,,,,,,13,,,,58,0
129971,control_change,16,0,7,,,,,,,,,11,11,55,,,
129973,note_on,8,0,10,,,,,,,,,14,,,,46,0
129974,control_change,8,0,8,,,,,,,,,12,11,55,,,
129979,control_change,8,0,9,,,,,,,,,13,11,55,,,
129981,control_change,8,0,10,,,,,,,,,14,11,55,,,
129984,control_change,16,0,6,,,,,,,,,10,11,56,,,
129987,control_change,16,0,7,,,,,,,,,11,11,56,,,
129990,control_change,16,0,8,,,,,,,,,12,11,56,,,
129990,note_on,6,0,6,,,,,,,,,10,,,,74,0
129995,control_change,16,0,9,,,,,,,,,13,11,56,,,
129996,note_on,6,0,8,,,,,,,,,12,,,,62,0
129997,control_change,16,0,10,,,,,,,,,14,11,56,,,
130000,control_change,10,0,6,,,,,,,,,10,11,57,,,
130003,control_change,16,0,7,,,,,,,,,11,11,57,,,
130006,control_change,10,0,8,,,,,,,,,12,11,57,,,
130011,control_change,16,0,9,,,,,,,,,13,11,57,,,
130013,control_change,16,0,10,,,,,,,,,14,11,57,,,
130016,control_change,16,0,6,,,,,,,,,10,11,58,,,
130019,control_change,16,0,7,,,,,,,,,11,11,58,,,
130020,note_on,4,0,6,,,,,,,,,10,,,,74,100
130022,control_change,16,0,8,,,,,,,,,12,11,58,,,
130026,note_on,4,0,8,,,,,,,,,12,,,,62,98
130027,control_change,16,0,9,,,,,,,,,13,11,58,,,
130029,control_change,16,0,10,,,,,,,,,14,11,58,,,
130032,control_change,12,0,6,,,,,,,,,10,11,59,,,
130035,control_change,16,0,7,,,,,,,,,11,11,59,,,
130038,control_change,12,0,8,,,,,,,,,12,11,59,,,
130043,control_change,16,0,9,,,,,,,,,13,11,59,,,
130045,control_change,16,0,10,,,,,,,,,14,11,59,,,
130048,control_change,16,0,6,,,,,,,,,10,11,60,,,
130050,note_on,2,0,6,,,,,,,,,10,,,,74,0
130051,control_change,16,0,7,,,,,,,,,11,11,60,,,
130054,control_change,16,0,8,,,,,,,,,12,11,60,,,
130056,note_on,2,0,8,,,,,,,,,12,,,,62,0
130059,control_change,16,0,9,,,,,,,,,13,11,60,,,
130061,control_change,16,0,10,,,,,,,,,14,11,60,,,
130064,control_change,14,0,6,,,,,,,,,10,11,61,,,
130067,control_change,16,0,7,,,,,,,,,11,11,61,,,
130070,control_change,14,0,8,,,,,,,,,12,11,61,,,
130075,control_change,16,0,9,,,,,,,,,13,11,61,,,
130077,control_change,16,0,10,,,,,,,,,14,11,61,,,
130080,control_change,16,0,6,,,,,,,,,10,11,62,,,
130080,note_on,0,0,6,,,,,,,,,10,,,,74,100
130080,set_tempo,120,1,0,,,,,,389610,,,,,,,,
130083,control_change,16,0,7,,,,,,,,,11,11,62,,,
130085,note_on,186,0,2,,,,,,,,,1,,,,74,0
130085,note_on,0,0,2,,,,,,,,,1,,,,72,81
130086,control_change,16,0,8,,,,,,,,,12,11,62,,,
130086,note_on,0,0,8,,,,,,,,,12,,,,62,98
130091,control_change,16,0,9,,,,,,,,,13,11,62,,,
130091,note_on,0,0,9,,,,,,,,,13,,,,57,89
130092,note_on,0,0,3,,,,,,,,,3,,,,57,81
130092,note_on,186,0,3,,,,,,,,,3,,,,58,0
130093,note_on,0,0,10,,,,,,,,,14,,,,45,73
130093,control_change,16,0,10,,,,,,,,,14,11,62,,,
130112,control_change,32,0,6,,,,,,,,,10,11,61,,,
130115,control_change,32,0,7,,,,,,,,,11,11,61,,,
130118,control_change,32,0,8,,,,,,,,,12,11,61,,,
130123,control_change,32,0,9,,,,,,,,,13,11,61,,,
130125,control_change,32,0,10,,,,,,,,,14,11,61,,,
130140,note_on,0,0,6,,,,,,,,,10,,,,72,100
130140,note_on,28,0,6,,,,,,,,,10,,,,74,0
130144,control_change,4,0,6,,,,,,,,,10,11,60,,,
130146,note_on,0,0,8,,,,,,,,,12,,,,60,98
130146,note_on,28,0,8,,,,,,,,,12,,,,62,0
130147,control_change,32,0,7,,,,,,,,,11,11,60,,,
130150,control_change,4,0,8,,,,,,,,,12,11,60,,,
130155,control_change,32,0,9,,,,,,,,,13,11,60,,,
130157,control_change,32,0,10,,,,,,,,,14,11,60,,,
130176,control_change,32,0,6,,,,,,,,,10,11,59,,,
130179,control_change,32,0,7,,,,,,,,,11,11,59,,,
130182,control_change,32,0,8,,,,,,,,,12,11,59,,,
130187,control_change,32,0,9,,,,,,,,,13,11,59,,,
130189,control_change,32,0,10,,,,,,,,,14,11,59,,,
130200,set_tempo,120,1,0,,,,,,372671,,,,,,,,
130200,note_on,0,0,6,,,,,,,,,10,,,,69,100
130200,note_on,24,0,6,,,,,,,,,10,,,,72,0
130206,note_on,24,0,8,,,,,,,,,12,,,,60,0
130206,note_on,0,0,8,,,,,,,,,12,,,,57,98
130208,control_change,8,0,6,,,,,,,,,10,11,58,,,
130211,control_change,32,0,7,,,,,,,,,11,11,58,,,
130211,note_on,24,0,9,,,,,,,,,13,,,,57,0
130213,note_on,24,0,10,,,,,,,,,14,,,,45,0
130214,control_change,8,0,8,,,,,,,,,12,11,58,,,
130219,control_change,8,0,9,,,,,,,,,13,11,58,,,
130221,control_change,8,0,10,,,,,,,,,14,11,58,,,
130240,control_change,32,0,6,,,,,,,,,10,11,57,,,
130243,control_change,32,0,7,,,,,,,,,11,11,57,,,
130246,control_change,32,0,8,,,,,,,,,12,11,57,,,
130251,control_change,32,0,9,,,,,,,,,13,11,57,,,
130253,control_change,32,0,10,,,,,,,,,14,11,57,,,
130260,note_on,0,0,6,,,,,,,,,10,,,,65,100
130260,note_on,20,0,6,,,,,,,,,10,,,,69,0
130266,note_on,0,0,8,,,,,,,,,12,,,,53,98
130266,note_on,20,0,8,,,,,,,,,12,,,,57,0
130272,control_change,12,0,6,,,,,,,,,10,11,56,,,
130275,control_change,32,0,7,,,,,,,,,11,11,56,,,
130278,control_change,12,0,8,,,,,,,,,12,11,56,,,
130283,control_change,32,0,9,,,,,,,,,13,11,56,,,
130285,control_change,32,0,10,,,,,,,,,14,11,56,,,
130304,control_change,32,0,6,,,,,,,,,10,11,55,,,
130307,control_change,32,0,7,,,,,,,,,11,11,55,,,
130310,control_change,32,0,8,,,,,,,,,12,11,55,,,
130315,note_on,11,0,6,,,,,,,,,10,,,,65,0
130315,control_change,32,0,9,,,,,,,,,13,11,55,,,
130317,control_change,32,0,10,,,,,,,,,14,11,55,,,
130318,note_on,11,0,7,,,,,,,,,11,,,,65,0
130320,note_on,5,0,6,,,,,,,,,10,,,,65,100
130320,set_tempo,120,1,0,,,,,,389610,,,,,,,,
130321,note_on,11,0,8,,,,,,,,,12,,,,53,0
130323,note_on,5,0,7,,,,,,,,,11,,,,65,100
130325,note_on,0,0,2,,,,,,,,,1,,,,70,81
130325,note_on,240,0,2,,,,,,,,,1,,,,72,0
130326,note_on,5,0,8,,,,,,,,,12,,,,53,98
130331,note_on,16,0,9,,,,,,,,,13,,,,55,89
130332,note_on,240,0,3,,,,,,,,,3,,,,57,0
130332,note_on,0,0,3,,,,,,,,,3,,,,55,81
130333,note_on,16,0,10,,,,,,,,,14,,,,43,73
130336,control_change,16,0,6,,,,,,,,,10,11,54,,,
130339,control_change,16,0,7,,,,,,,,,11,11,54,,,
130342,control_change,16,0,8,,,,,,,,,12,11,54,,,
130347,control_change,16,0,9,,,,,,,,,13,11,54,,,
130349,control_change,16,0,10,,,,,,,,,14,11,54,,,
130368,control_change,32,0,6,,,,,,,,,10,11,53,,,
130371,control_change,32,0,7,,,,,,,,,11,11,53,,,
130374,control_change,32,0,8,,,,,,,,,12,11,53,,,
130379,control_change,32,0,9,,,,,,,,,13,11,53,,,
130380,note_on,12,0,6,,,,,,,,,10,,,,65,0
130380,note_on,0,0,6,,,,,,,,,10,,,,64,100
130381,control_change,32,0,10,,,,,,,,,14,11,53,,,
130383,note_on,12,0,7,,,,,,,,,11,,,,65,0
130383,note_on,0,0,7,,,,,,,,,11,,,,64,100
130385,note_on,0,0,2,,,,,,,,,1,,,,64,81
130385,note_on,60,0,2,,,,,,,,,1,,,,65,0
130386,note_on,0,0,8,,,,,,,,,12,,,,52,98
130386,note_on,12,0,8,,,,,,,,,12,,,,53,0
130400,control_change,20,0,6,,,,,,,,,10,11,52,,,
130403,control_change,20,0,7,,,,,,,,,11,11,52,,,
130406,control_change,20,0,8,,,,,,,,,12,11,52,,,
130411,control_change,32,0,9,,,,,,,,,13,11,52,,,
130413,control_change,32,0,10,,,,,,,,,14,11,52,,,
130432,control_change,32,0,6,,,,,,,,,10,11,51,,,
130435,control_change,32,0,7,,,,,,,,,11,11,51,,,
130438,control_change,32,0,8,,,,,,,,,12,11,51,,,
130440,set_tempo,120,1,0,,,,,,372671,,,,,,,,
130440,note_on,8,0,6,,,,,,,,,10,,,,64,0
130440,note_on,0,0,6,,,,,,,,,10,,,,67,100
130443,note_on,8,0,7,,,,,,,,,11,,,,64,0
130443,control_change,32,0,9,,,,,,,,,13,11,51,,,
130443,note_on,0,0,7,,,,,,,,,11,,,,62,100
130445,note_on,60,0,2,,,,,,,,,1,,,,64,0
130445,note_on,0,0,2,,,,,,,,,1,,,,62,81
130445,control_change,32,0,10,,,,,,,,,14,11,51,,,
130446,note_on,0,0,8,,,,,,,,,12,,,,55,98
130446,note_on,8,0,8,,,,,,,,,12,,,,52,0
130451,note_on,0,0,9,,,,,,,,,13,,,,48,89
130451,note_on,8,0,9,,,,,,,,,13,,,,55,0
130452,note_on,120,0,3,,,,,,,,,3,,,,55,0
130452,note_on,0,0,3,,,,,,,,,3,,,,48,81
130453,note_on,0,0,10,,,,,,,,,14,,,,36,73
130453,note_on,8,0,10,,,,,,,,,14,,,,43,0
130464,control_change,24,0,6,,,,,,,,,10,11,50,,,
130467,control_change,24,0,7,,,,,,,,,11,11,50,,,
130470,control_change,24,0,8,,,,,,,,,12,11,50,,,
130475,control_change,24,0,9,,,,,,,,,13,11,50,,,
130477,control_change,24,0,10,,,,,,,,,14,11,50,,,
130496,control_change,32,0,6,,,,,,,,,10,11,49,,,
130499,control_change,32,0,7,,,,,,,,,11,11,49,,,
130500,note_on,4,0,6,,,,,,,,,10,,,,67,0
130500,note_on,0,0,6,,,,,,,,,10,,,,70,100
130502,control_change,32,0,8,,,,,,,,,12,11,49,,,
130503,note_on,4,0,7,,,,,,,,,11,,,,62,0
130503,note_on,0,0,7,,,,,,,,,11,,,,64,100
130505,note_on,0,0,2,,,,,,,,,1,,,,64,81
130505,note_on,60,0,2,,,,,,,,,1,,,,62,0
130506,note_on,0,0,8,,,,,,,,,12,,,,58,98
130506,note_on,4,0,8,,,,,,,,,12,,,,55,0
130507,control_change,32,0,9,,,,,,,,,13,11,49,,,
130509,control_change,32,0,10,,,,,,,,,14,11,49,,,
130528,control_change,28,0,6,,,,,,,,,10,11,48,,,
130531,control_change,28,0,7,,,,,,,,,11,11,48,,,
130534,control_change,28,0,8,,,,,,,,,12,11,48,,,
130539,control_change,32,0,9,,,,,,,,,13,11,48,,,
130541,control_change,32,0,10,,,,,,,,,14,11,48,,,
130555,note_on,27,0,6,,,,,,,,,10,,,,70,0
130558,note_on,27,0,7,,,,,,,,,11,,,,64,0
130560,set_tempo,120,1,0,,,,,,389610,,,,,,,,
130560,control_change,5,0,6,,,,,,,,,10,11,47,,,
130560,note_on,0,0,6,,,,,,,,,10,,,,70,100
130561,note_on,27,0,8,,,,,,,,,12,,,,58,0
130563,note_on,0,0,7,,,,,,,,,11,,,,64,100
130563,control_change,5,0,7,,,,,,,,,11,11,47,,,
130565,note_on,0,0,2,,,,,,,,,1,,,,70,0
130565,note_on,0,0,2,,,,,,,,,1,,,,70,81
130565,note_on,60,0,2,,,,,,,,,1,,,,64,0
130565,note_on,0,0,2,,,,,,,,,1,,,,64,81
130566,control_change,5,0,8,,,,,,,,,12,11,47,,,
130566,note_on,0,0,8,,,,,,,,,12,,,,58,98
130571,note_on,32,0,9,,,,,,,,,13,,,,48,0
130571,control_change,0,0,9,,,,,,,,,13,11,47,,,
130571,note_on,0,0,9,,,,,,,,,13,,,,53,89
130572,note_on,0,0,3,,,,,,,,,3,,,,53,81
130572,note_on,120,0,3,,,,,,,,,3,,,,48,0
130573,control_change,0,0,10,,,,,,,,,14,11,47,,,
130573,note_on,32,0,10,,,,,,,,,14,,,,36,0
130573,note_on,0,0,10,,,,,,,,,14,,,,41,73
130680,note_on,0,0,6,,,,,,,,,10,,,,69,100
130680,set_tempo,120,1,0,,,,,,372671,,,,,,,,
130680,note_on,120,0,6,,,,,,,,,10,,,,70,0
130683,note_on,120,0,7,,,,,,,,,11,,,,64,0
130683,note_on,0,0,7,,,,,,,,,11,,,,65,100
130685,note_on,0,0,2,,,,,,,,,1,,,,69,81
130685,note_on,0,0,2,,,,,,,,,1,,,,70,0
130685,note_on,0,0,2,,,,,,,,,1,,,,65,81
130685,note_on,120,0,2,,,,,,,,,1,,,,64,0
130686,note_on,120,0,8,,,,,,,,,12,,,,58,0
130686,note_on,0,0,8,,,,,,,,,12,,,,57,98
130691,note_on,120,0,9,,,,,,,,,13,,,,53,0
130693,note_on,120,0,10,,,,,,,,,14,,,,41,0
130795,note_on,115,0,6,,,,,,,,,10,,,,69,0
130798,note_on,115,0,7,,,,,,,,,11,,,,65,0
130800,note_on,0,0,6,,,,,,,,,10,,,,70,100
130800,control_change,5,0,6,,,,,,,,,10,11,47,,,
130800,set_tempo,120,1,0,,,,,,389610,,,,,,,,
130801,note_on,115,0,8,,,,,,,,,12,,,,57,0
130803,note_on,0,0,7,,,,,,,,,11,,,,58,80
130803,control_change,5,0,7,,,,,,,,,11,11,47,,,
130805,note_on,0,0,2,,,,,,,,,1,,,,70,81
130805,note_on,0,0,2,,,,,,,,,1,,,,67,81
130805,note_on,120,0,2,,,,,,,,,1,,,,65,0
130805,note_on,0,0,2,,,,,,,,,1,,,,69,0
130806,note_on,5,0,8,,,,,,,,,12,,,,63,98
130811,note_on,120,0,9,,,,,,,,,13,,,,51,89
130812,note_on,0,0,3,,,,,,,,,3,,,,51,81
130812,note_on,240,0,3,,,,,,,,,3,,,,53,0
130813,note_on,120,0,10,,,,,,,,,14,,,,39,73
130816,control_change,16,0,6,,,,,,,,,10,11,48,,,
130819,control_change,16,0,7,,,,,,,,,11,11,48,,,
130832,control_change,16,0,6,,,,,,,,,10,11,49,,,
130835,control_change,16,0,7,,,,,,,,,11,11,49,,,
130848,control_change,16,0,6,,,,,,,,,10,11,50,,,
130851,control_change,16,0,7,,,,,,,,,11,11,50,,,
130860,note_on,12,0,6,,,,,,,,,10,,,,70,0
130860,note_on,0,0,6,,,,,,,,,10,,,,79,100
130863,note_on,0,0,7,,,,,,,,,11,,,,67,80
130863,note_on,12,0,7,,,,,,,,,11,,,,58,0
130864,control_change,4,0,6,,,,,,,,,10,11,51,,,
130867,control_change,4,0,7,,,,,,,,,11,11,51,,,
130880,control_change,16,0,6,,,,,,,,,10,11,52,,,
130883,control_change,16,0,7,,,,,,,,,11,11,52,,,
130896,control_change,16,0,6,,,,,,,,,10,11,53,,,
130899,control_change,16,0,7,,,,,,,,,11,11,53,,,
130912,control_change,16,0,6,,,,,,,,,10,11,54,,,
130915,note_on,3,0,6,,,,,,,,,10,,,,79,0
130915,control_change,16,0,7,,,,,,,,,11,11,54,,,
130918,note_on,3,0,7,,,,,,,,,11,,,,67,0
130920,set_tempo,120,1,0,,,,,,372671,,,,,,,,
130920,note_on,5,0,6,,,,,,,,,10,,,,79,100
130923,note_on,5,0,7,,,,,,,,,11,,,,67,80
130925,note_on,120,0,2,,,,,,,,,1,,,,70,0
130925,note_on,0,0,2,,,,,,,,,1,,,,79,81
130925,note_on,0,0,2,,,,,,,,,1,,,,70,81
130925,note_on,0,0,2,,,,,,,,,1,,,,67,0
130926,note_on,120,0,8,,,,,,,,,12,,,,63,0
130928,control_change,8,0,6,,,,,,,,,10,11,55,,,
130931,control_change,8,0,7,,,,,,,,,11,11,55,,,
130931,note_on,120,0,9,,,,,,,,,13,,,,51,0
130933,note_on,120,0,10,,,,,,,,,14,,,,39,0
130944,control_change,16,0,6,,,,,,,,,10,11,56,,,
130947,control_change,16,0,7,,,,,,,,,11,11,56,,,
130950,note_on,6,0,6,,,,,,,,,10,,,,79,0
130953,note_on,6,0,7,,,,,,,,,11,,,,67,0
130960,control_change,10,0,6,,,,,,,,,10,11,57,,,
130963,control_change,10,0,7,,,,,,,,,11,11,57,,,
130976,control_change,16,0,6,,,,,,,,,10,11,58,,,
130979,control_change,16,0,7,,,,,,,,,11,11,58,,,
130980,note_on,4,0,6,,,,,,,,,10,,,,79,100
130983,note_on,4,0,7,,,,,,,,,11,,,,67,80
130992,control_change,12,0,6,,,,,,,,,10,11,59,,,
130995,control_change,12,0,7,,,,,,,,,11,11,59,,,
131008,control_change,16,0,6,,,,,,,,,10,11,60,,,
131010,note_on,2,0,6,,,,,,,,,10,,,,79,0
131011,control_change,16,0,7,,,,,,,,,11,11,60,,,
131013,note_on,2,0,7,,,,,,,,,11,,,,67,0
131024,control_change,14,0,6,,,,,,,,,10,11,61,,,
131027,control_change,14,0,7,,,,,,,,,11,11,61,,,
131040,set_tempo,120,1,0,,,,,,389610,,,,,,,,
131040,note_on,0,0,6,,,,,,,,,10,,,,79,100
131040,control_change,16,0,6,,,,,,,,,10,11,62,,,
131043,control_change,16,0,7,,,,,,,,,11,11,62,,,
131043,note_on,0,0,7,,,,,,,,,11,,,,67,80
131046,control_change,120,0,8,,,,,,,,,12,11,62,,,
131046,note_on,0,0,8,,,,,,,,,12,,,,62,98
131051,note_on,0,0,9,,,,,,,,,13,,,,50,89
131051,control_change,120,0,9,,,,,,,,,13,11,62,,,
131052,note_on,240,0,3,,,,,,,,,3,,,,51,0
131052,note_on,0,0,3,,,,,,,,,3,,,,50,81
131053,control_change,120,0,10,,,,,,,,,14,11,62,,,
131053,note_on,0,0,10,,,,,,,,,14,,,,38,73
131064,control_change,24,0,6,,,,,,,,,10,11,61,,,
131067,control_change,24,0,7,,,,,,,,,11,11,61,,,
131070,control_change,24,0,8,,,,,,,,,12,11,61,,,
131075,control_change,24,0,9,,,,,,,,,13,11,61,,,
131077,control_change,24,0,10,,,,,,,,,14,11,61,,,
131088,control_change,24,0,6,,,,,,,,,10,11,60,,,
131091,control_change,24,0,7,,,,,,,,,11,11,60,,,
131094,control_change,24,0,8,,,,,,,,,12,11,60,,,
131099,control_change,24,0,9,,,,,,,,,13,11,60,,,
131100,note_on,0,0,6,,,,,,,,,10,,,,77,100
131100,note_on,12,0,6,,,,,,,,,10,,,,79,0
131101,control_change,24,0,10,,,,,,,,,14,11,60,,,
131103,note_on,0,0,7,,,,,,,,,11,,,,65,80
131103,note_on,12,0,7,,,,,,,,,11,,,,67,0
131105,note_on,180,0,2,,,,,,,,,1,,,,79,0
131105,note_on,0,0,2,,,,,,,,,1,,,,77,81
131112,control_change,12,0,6,,,,,,,,,10,11,59,,,
131115,control_change,12,0,7,,,,,,,,,11,11,59,,,
131118,control_change,24,0,8,,,,,,,,,12,11,59,,,
131123,control_change,24,0,9,,,,,,,,,13,11,59,,,
131125,control_change,24,0,10,,,,,,,,,14,11,59,,,
131136,control_change,24,0,6,,,,,,,,,10,11,58,,,
131139,control_change,24,0,7,,,,,,,,,11,11,58,,,
131142,control_change,24,0,8,,,,,,,,,12,11,58,,,
131147,control_change,24,0,9,,,,,,,,,13,11,58,,,
131149,control_change,24,0,10,,,,,,,,,14,11,58,,,
131155,note_on,19,0,6,,,,,,,,,10,,,,77,0
131158,note_on,19,0,7,,,,,,,,,11,,,,65,0
131160,control_change,5,0,6,,,,,,,,,10,11,57,,,
131160,note_on,0,0,6,,,,,,,,,10,,,,75,100
131160,set_tempo,120,1,0,,,,,,372671,,,,,,,,
131161,note_on,19,0,8,,,,,,,,,12,,,,62,0
131163,note_on,0,0,7,,,,,,,,,11,,,,63,80
131163,control_change,5,0,7,,,,,,,,,11,11,57,,,
131165,note_on,60,0,2,,,,,,,,,1,,,,77,0
131165,note_on,0,0,2,,,,,,,,,1,,,,75,81
131166,note_on,0,0,8,,,,,,,,,12,,,,58,98
131166,control_change,5,0,8,,,,,,,,,12,11,57,,,
131166,note_on,19,0,9,,,,,,,,,13,,,,50,0
131168,note_on,19,0,10,,,,,,,,,14,,,,38,0
131171,note_on,0,0,9,,,,,,,,,13,,,,46,89
131171,control_change,5,0,9,,,,,,,,,13,11,57,,,
131172,note_on,0,0,3,,,,,,,,,3,,,,46,81
131172,note_on,120,0,3,,,,,,,,,3,,,,50,0
131173,control_change,5,0,10,,,,,,,,,14,11,57,,,
131173,note_on,0,0,10,,,,,,,,,14,,,,34,73
131184,control_change,24,0,6,,,,,,,,,10,11,56,,,
131187,control_change,24,0,7,,,,,,,,,11,11,56,,,
131190,note_on,6,0,6,,,,,,,,,10,,,,75,0
131190,control_change,24,0,8,,,,,,,,,12,11,56,,,
131193,note_on,6,0,7,,,,,,,,,11,,,,63,0
131195,note_on,30,0,2,,,,,,,,,1,,,,75,0
131195,control_change,24,0,9,,,,,,,,,13,11,56,,,
131197,control_change,24,0,10,,,,,,,,,14,11,56,,,
131208,control_change,18,0,6,,,,,,,,,10,11,55,,,
131211,control_change,18,0,7,,,,,,,,,11,11,55,,,
131214,control_change,24,0,8,,,,,,,,,12,11,55,,,
131219,control_change,24,0,9,,,,,,,,,13,11,55,,,
131220,note_on,12,0,6,,,,,,,,,10,,,,74,100
131221,control_change,24,0,10,,,,,,,,,14,11,55,,,
131223,note_on,12,0,7,,,,,,,,,11,,,,62,80
131225,note_on,30,0,2,,,,,,,,,1,,,,74,81
131232,control_change,12,0,6,,,,,,,,,10,11,54,,,
131235,control_change,12,0,7,,,,,,,,,11,11,54,,,
131238,control_change,24,0,8,,,,,,,,,12,11,54,,,
131243,control_change,24,0,9,,,,,,,,,13,11,54,,,
131245,control_change,24,0,10,,,,,,,,,14,11,54,,,
131250,note_on,18,0,6,,,,,,,,,10,,,,74,0
131253,note_on,18,0,7,,,,,,,,,11,,,,62,0
131255,note_on,30,0,2,,,,,,,,,1,,,,74,0
131256,control_change,6,0,6,,,,,,,,,10,11,53,,,
131259,control_change,6,0,7,,,,,,,,,11,11,53,,,
131262,control_change,24,0,8,,,,,,,,,12,11,53,,,
131267,control_change,24,0,9,,,,,,,,,13,11,53,,,
131269,control_change,24,0,10,,,,,,,,,14,11,53,,,
131280,set_tempo,120,1,0,,,,,,409556,,,,,,,,
131280,control_change,24,0,6,,,,,,,,,10,11,52,,,
131280,note_on,0,0,6,,,,,,,,,10,,,,74,100
131281,note_on,19,0,8,,,,,,,,,12,,,,58,0
131283,note_on,0,0,7,,,,,,,,,11,,,,62,80
131283,control_change,24,0,7,,,,,,,,,11,11,52,,,
131285,note_on,30,0,2,,,,,,,,,1,,,,70,0
131285,note_on,0,0,2,,,,,,,,,1,,,,74,81
131286,note_on,19,0,9,,,,,,,,,13,,,,46,0
131286,control_change,5,0,8,,,,,,,,,12,11,52,,,
131286,note_on,0,0,8,,,,,,,,,12,,,,51,98
131288,note_on,19,0,10,,,,,,,,,14,,,,34,0
131291,note_on,0,0,9,,,,,,,,,13,,,,51,89
131291,control_change,5,0,9,,,,,,,,,13,11,52,,,
131292,note_on,120,0,3,,,,,,,,,3,,,,46,0
131292,note_on,0,0,3,,,,,,,,,3,,,,51,81
131293,control_change,5,0,10,,,,,,,,,14,11,52,,,
131293,note_on,0,0,10,,,,,,,,,14,,,,39,73
131304,control_change,24,0,6,,,,,,,,,10,11,51,,,
131307,control_change,24,0,7,,,,,,,,,11,11,51,,,
131310,control_change,24,0,8,,,,,,,,,12,11,51,,,
131315,control_change,24,0,9,,,,,,,,,13,11,51,,,
131317,control_change,24,0,10,,,,,,,,,14,11,51,,,
131328,control_change,24,0,6,,,,,,,,,10,11,50,,,
131331,control_change,24,0,7,,,,,,,,,11,11,50,,,
131334,control_change,24,0,8,,,,,,,,,12,11,50,,,
131339,control_change,24,0,9,,,,,,,,,13,11,50,,,
131340,note_on,12,0,6,,,,,,,,,10,,,,74,0
131340,note_on,0,0,6,,,,,,,,,10,,,,72,100
131341,control_change,24,0,10,,,,,,,,,14,11,50,,,
131343,note_on,0,0,7,,,,,,,,,11,,,,60,80
131343,note_on,12,0,7,,,,,,,,,11,,,,62,0
131345,note_on,0,0,2,,,,,,,,,1,,,,72,81
131345,note_on,60,0,2,,,,,,,,,1,,,,74,0
131352,control_change,12,0,6,,,,,,,,,10,11,49,,,
131355,control_change,12,0,7,,,,,,,,,11,11,49,,,
131358,control_change,24,0,8,,,,,,,,,12,11,49,,,
131363,control_change,24,0,9,,,,,,,,,13,11,49,,,
131365,control_change,24,0,10,,,,,,,,,14,11,49,,,
131376,control_change,24,0,6,,,,,,,,,10,11,48,,,
131379,control_change,24,0,7,,,,,,,,,11,11,48,,,
131382,control_change,24,0,8,,,,,,,,,12,11,48,,,
131387,control_change,24,0,9,,,,,,,,,13,11,48,,,
131389,control_change,24,0,10,,,,,,,,,14,11,48,,,
131395,note_on,19,0,6,,,,,,,,,10,,,,72,0
131398,note_on,19,0,7,,,,,,,,,11,,,,60,0
131400,set_tempo,120,1,0,,,,,,389610,,,,,,,,
131400,control_change,5,0,6,,,,,,,,,10,11,47,,,
131400,note_on,0,0,6,,,,,,,,,10,,,,70,100
131401,note_on,19,0,8,,,,,,,,,12,,,,51,0
131403,control_change,5,0,7,,,,,,,,,11,11,47,,,
131403,note_on,0,0,7,,,,,,,,,11,,,,58,80
131405,note_on,0,0,2,,,,,,,,,1,,,,70,81
131405,note_on,60,0,2,,,,,,,,,1,,,,72,0
131406,note_on,0,0,8,,,,,,,,,12,,,,53,98
131406,control_change,5,0,8,,,,,,,,,12,11,47,,,
131406,note_on,19,0,9,,,,,,,,,13,,,,51,0
131408,note_on,19,0,10,,,,,,,,,14,,,,39,0
131411,note_on,0,0,9,,,,,,,,,13,,,,53,89
131411,control_change,5,0,9,,,,,,,,,13,11,47,,,
131412,note_on,120,0,3,,,,,,,,,3,,,,51,0
131412,note_on,0,0,3,,,,,,,,,3,,,,53,81
131413,note_on,0,0,10,,,,,,,,,14,,,,41,73
131413,control_change,5,0,10,,,,,,,,,14,11,47,,,
131424,control_change,24,0,6,,,,,,,,,10,11,46,,,
131427,control_change,24,0,7,,,,,,,,,11,11,46,,,
131430,note_on,6,0,6,,,,,,,,,10,,,,70,0
131430,control_change,24,0,8,,,,,,,,,12,11,46,,,
131433,note_on,6,0,7,,,,,,,,,11,,,,58,0
131435,note_on,30,0,2,,,,,,,,,1,,,,70,0
131435,control_change,24,0,9,,,,,,,,,13,11,46,,,
131437,control_change,24,0,10,,,,,,,,,14,11,46,,,
131448,control_change,18,0,6,,,,,,,,,10,11,45,,,
131451,control_change,18,0,7,,,,,,,,,11,11,45,,,
131454,control_change,24,0,8,,,,,,,,,12,11,45,,,
131459,control_change,24,0,9,,,,,,,,,13,11,45,,,
131460,note_on,12,0,6,,,,,,,,,10,,,,69,100
131461,control_change,24,0,10,,,,,,,,,14,11,45,,,
131463,note_on,12,0,7,,,,,,,,,11,,,,57,80
131465,note_on,30,0,2,,,,,,,,,1,,,,69,81
131472,control_change,12,0,6,,,,,,,,,10,11,44,,,
131475,control_change,12,0,7,,,,,,,,,11,11,44,,,
131478,control_change,24,0,8,,,,,,,,,12,11,44,,,
131483,control_change,24,0,9,,,,,,,,,13,11,44,,,
131485,control_change,24,0,10,,,,,,,,,14,11,44,,,
131490,note_on,18,0,6,,,,,,,,,10,,,,69,0
131493,note_on,18,0,7,,,,,,,,,11,,,,57,0
131495,note_on,30,0,2,,,,,,,,,1,,,,69,0
131496,control_change,6,0,6,,,,,,,,,10,11,43,,,
131499,control_change,6,0,7,,,,,,,,,11,11,43,,,
131502,control_change,24,0,8,,,,,,,,,12,11,43,,,
131507,control_change,24,0,9,,,,,,,,,13,11,43,,,
131509,control_change,24,0,10,,,,,,,,,14,11,43,,,
131520,note_on,0,0,6,,,,,,,,,10,,,,70,100
131520,set_tempo,120,1,0,,,,,,428571,,,,,,,,
131520,control_change,24,0,6,,,,,,,,,10,11,42,,,
131521,note_on,19,0,8,,,,,,,,,12,,,,53,0
131523,control_change,24,0,7,,,,,,,,,11,11,42,,,
131523,note_on,0,0,7,,,,,,,,,11,,,,58,80
131525,note_on,0,0,2,,,,,,,,,1,,,,70,81
131525,note_on,30,0,2,,,,,,,,,1,,,,62,81
131526,note_on,0,0,8,,,,,,,,,12,,,,58,98
131526,note_on,19,0,9,,,,,,,,,13,,,,53,0
131526,control_change,5,0,8,,,,,,,,,12,11,42,,,
131528,note_on,19,0,10,,,,,,,,,14,,,,41,0
131531,control_change,5,0,9,,,,,,,,,13,11,42,,,
131531,note_on,0,0,9,,,,,,,,,13,,,,46,89
131532,note_on,120,0,3,,,,,,,,,3,,,,53,0
131532,note_on,0,0,3,,,,,,,,,3,,,,46,81
131533,control_change,5,0,10,,,,,,,,,14,11,42,,,
131533,note_on,0,0,10,,,,,,,,,14,,,,34,73
131580,note_on,60,0,6,,,,,,,,,10,,,,70,0
131580,note_on,0,0,6,,,,,,,,,10,,,,65,100
131580,control_change,0,0,6,,,,,,,,,10,11,42,,,
131598,control_change,18,0,6,,,,,,,,,10,11,43,,,
131616,control_change,18,0,6,,,,,,,,,10,11,44,,,
131634,control_change,18,0,6,,,,,,,,,10,11,45,,,
131635,note_on,1,0,6,,,,,,,,,10,,,,65,0
131640,note_on,5,0,6,,,,,,,,,10,,,,65,100
131640,set_tempo,120,1,0,,,,,,422535,,,,,,,,
131643,note_on,120,0,7,,,,,,,,,11,,,,58,0
131645,note_on,120,0,2,,,,,,,,,1,,,,70,0
131645,note_on,0,0,2,,,,,,,,,1,,,,62,0
131646,note_on,120,0,8,,,,,,,,,12,,,,58,0
131651,note_on,120,0,9,,,,,,,,,13,,,,46,0
131652,note_on,120,0,3,,,,,,,,,3,,,,46,0
131652,control_change,12,0,6,,,,,,,,,10,11,46,,,
131653,note_on,120,0,10,,,,,,,,,14,,,,34,0
131670,note_on,18,0,6,,,,,,,,,10,,,,65,0
131670,control_change,0,0,6,,,,,,,,,10,11,47,,,
131688,control_change,18,0,6,,,,,,,,,10,11,48,,,
131700,note_on,12,0,6,,,,,,,,,10,,,,65,100
131706,control_change,6,0,6,,,,,,,,,10,11,49,,,
131724,control_change,18,0,6,,,,,,,,,10,11,50,,,
131730,note_on,6,0,6,,,,,,,,,10,,,,65,0
131742,control_change,12,0,6,,,,,,,,,10,11,51,,,
131760,note_on,0,0,6,,,,,,,,,10,,,,74,100
131760,control_change,18,0,6,,,,,,,,,10,11,32,,,
131760,set_tempo,120,1,0,,,,,,431655,,,,,,,,
131763,note_on,0,0,1,,,,,,,,,0,,,,74,82
131763,control_change,3960,0,1,,,,,,,,,0,11,37,,,
131763,note_on,0,0,7,,,,,,,,,11,,,,62,100
131763,control_change,120,0,7,,,,,,,,,11,11,47,,,
131765,note_on,0,0,2,,,,,,,,,1,,,,65,81
131765,note_on,0,0,2,,,,,,,,,1,,,,77,81
131765,control_change,120,0,2,,,,,,,,,1,11,37,,,
131766,note_on,0,0,8,,,,,,,,,12,,,,58,78
131766,control_change,120,0,8,,,,,,,,,12,11,47,,,
131771,note_on,0,0,9,,,,,,,,,13,,,,46,69
131771,control_change,120,0,9,,,,,,,,,13,11,47,,,
131772,note_on,0,0,3,,,,,,,,,3,,,,58,81
131772,note_on,0,0,3,,,,,,,,,3,,,,62,81
131772,control_change,120,0,3,,,,,,,,,3,11,37,,,
131773,control_change,120,0,10,,,,,,,,,14,11,47,,,
131773,note_on,0,0,10,,,,,,,,,14,,,,34,55
131781,control_change,18,0,1,,,,,,,,,0,11,40,,,
131783,control_change,18,0,2,,,,,,,,,1,11,40,,,
131784,control_change,24,0,6,,,,,,,,,10,11,34,,,
131790,control_change,18,0,3,,,,,,,,,3,11,40,,,
131799,control_change,18,0,1,,,,,,,,,0,11,43,,,
131801,control_change,18,0,2,,,,,,,,,1,11,43,,,
131808,control_change,18,0,3,,,,,,,,,3,11,43,,,
131808,control_change,24,0,6,,,,,,,,,10,11,36,,,
131817,control_change,18,0,1,,,,,,,,,0,11,46,,,
131819,control_change,18,0,2,,,,,,,,,1,11,46,,,
131823,note_on,0,0,7,,,,,,,,,11,,,,65,100
131823,note_on,60,0,7,,,,,,,,,11,,,,62,0
131826,control_change,18,0,3,,,,,,,,,3,11,46,,,
131832,control_change,24,0,6,,,,,,,,,10,11,38,,,
131835,control_change,18,0,1,,,,,,,,,0,11,49,,,
131837,control_change,18,0,2,,,,,,,,,1,11,49,,,
131844,control_change,18,0,3,,,,,,,,,3,11,49,,,
131853,control_change,18,0,1,,,,,,,,,0,11,52,,,
131855,control_change,18,0,2,,,,,,,,,1,11,52,,,
131856,control_change,24,0,6,,,,,,,,,10,11,40,,,
131859,control_change,6,0,1,,,,,,,,,0,11,40,,,
131862,control_change,18,0,3,,,,,,,,,3,11,52,,,
131878,note_on,55,0,7,,,,,,,,,11,,,,65,0
131880,set_tempo,120,1,0,,,,,,392157,,,,,,,,
131880,control_change,24,0,6,,,,,,,,,10,11,42,,,
131883,note_on,5,0,7,,,,,,,,,11,,,,65,100
131883,control_change,24,0,1,,,,,,,,,0,11,42,,,
131884,note_on,0,0,4,,,,,,,,,4,,,,58,86
131884,control_change,4080,0,4,,,,,,,,,4,11,47,,,
131886,note_on,0,0,5,,,,,,,,,5,,,,50,86
131886,control_change,4080,0,5,,,,,,,,,5,11,47,,,
131886,note_on,120,0,8,,,,,,,,,12,,,,58,0
131891,note_on,120,0,9,,,,,,,,,13,,,,46,0
131893,note_on,120,0,10,,,,,,,,,14,,,,34,0
131904,control_change,24,0,6,,,,,,,,,10,11,44,,,
131907,control_change,24,0,1,,,,,,,,,0,11,44,,,
131913,note_on,30,0,7,,,,,,,,,11,,,,65,0
131928,control_change,24,0,6,,,,,,,,,10,11,46,,,
131931,control_change,24,0,1,,,,,,,,,0,11,46,,,
131943,note_on,30,0,7,,,,,,,,,11,,,,65,100
131973,note_on,30,0,7,,,,,,,,,11,,,,65,0
131995,note_on,67,0,6,,,,,,,,,10,,,,74,0
131998,note_on,67,0,1,,,,,,,,,0,,,,74,0
132000,set_tempo,120,1,0,,,,,,401338,,,,,,,,
132000,note_on,5,0,6,,,,,,,,,10,,,,77,100
132003,note_on,30,0,7,,,,,,,,,11,,,,63,100
132003,note_on,5,0,1,,,,,,,,,0,,,,77,82
132004,note_on,120,0,4,,,,,,,,,4,,,,58,0
132006,note_on,120,0,8,,,,,,,,,12,,,,60,78
132006,note_on,120,0,5,,,,,,,,,5,,,,50,0
132011,note_on,120,0,9,,,,,,,,,13,,,,48,69
132012,note_on,0,0,3,,,,,,,,,3,,,,62,0
132012,note_on,150,0,3,,,,,,,,,3,,,,58,0
132012,note_on,0,0,3,,,,,,,,,3,,,,63,81
132012,note_on,0,0,3,,,,,,,,,3,,,,60,81
132013,note_on,120,0,10,,,,,,,,,14,,,,36,55
132060,note_on,60,0,6,,,,,,,,,10,,,,77,0
132060,note_on,0,0,6,,,,,,,,,10,,,,75,100
132063,note_on,60,0,7,,,,,,,,,11,,,,63,0
132063,note_on,0,0,7,,,,,,,,,11,,,,65,100
132063,note_on,0,0,1,,,,,,,,,0,,,,75,82
132063,note_on,60,0,1,,,,,,,,,0,,,,77,0
132118,note_on,55,0,7,,,,,,,,,11,,,,65,0
132120,note_on,60,0,6,,,,,,,,,10,,,,75,0
132120,note_on,0,0,6,,,,,,,,,10,,,,67,100
132120,set_tempo,120,1,0,,,,,,380952,,,,,,,,
132123,note_on,60,0,1,,,,,,,,,0,,,,75,0
132123,note_on,5,0,7,,,,,,,,,11,,,,65,100
132123,note_on,0,0,1,,,,,,,,,0,,,,67,82
132124,note_on,120,0,4,,,,,,,,,4,,,,60,86
132126,note_on,120,0,8,,,,,,,,,12,,,,60,0
132126,note_on,120,0,5,,,,,,,,,5,,,,53,86
132131,note_on,120,0,9,,,,,,,,,13,,,,48,0
132133,note_on,120,0,10,,,,,,,,,14,,,,36,0
132153,note_on,30,0,7,,,,,,,,,11,,,,65,0
132180,note_on,60,0,6,,,,,,,,,10,,,,67,0
132180,note_on,0,0,6,,,,,,,,,10,,,,69,100
132183,note_on,60,0,1,,,,,,,,,0,,,,67,0
132183,note_on,0,0,1,,,,,,,,,0,,,,69,82
132183,note_on,30,0,7,,,,,,,,,11,,,,65,100
132213,note_on,30,0,7,,,,,,,,,11,,,,65,0
132235,note_on,55,0,6,,,,,,,,,10,,,,69,0
132238,note_on,55,0,1,,,,,,,,,0,,,,69,0
132240,set_tempo,120,1,0,,,,,,389610,,,,,,,,
132240,note_on,5,0,6,,,,,,,,,10,,,,72,100
132243,note_on,30,0,7,,,,,,,,,11,,,,58,100
132243,note_on,5,0,1,,,,,,,,,0,,,,72,82
132244,note_on,120,0,4,,,,,,,,,4,,,,60,0
132246,note_on,120,0,8,,,,,,,,,12,,,,62,78
132246,note_on,120,0,5,,,,,,,,,5,,,,53,0
132251,note_on,120,0,9,,,,,,,,,13,,,,50,69
132252,note_on,0,0,3,,,,,,,,,3,,,,65,81
132252,note_on,0,0,3,,,,,,,,,3,,,,62,81
132252,note_on,0,0,3,,,,,,,,,3,,,,63,0
132252,note_on,240,0,3,,,,,,,,,3,,,,60,0
132253,note_on,120,0,10,,,,,,,,,14,,,,38,55
132300,note_on,60,0,6,,,,,,,,,10,,,,72,0
132300,note_on,0,0,6,,,,,,,,,10,,,,70,100
132303,note_on,60,0,1,,,,,,,,,0,,,,72,0
132303,note_on,60,0,7,,,,,,,,,11,,,,58,0
132303,note_on,0,0,1,,,,,,,,,0,,,,70,82
132303,note_on,0,0,7,,,,,,,,,11,,,,65,100
132358,note_on,55,0,7,,,,,,,,,11,,,,65,0
132360,set_tempo,120,1,0,,,,,,372671,,,,,,,,
132360,note_on,0,0,6,,,,,,,,,10,,,,69,100
132360,note_on,60,0,6,,,,,,,,,10,,,,70,0
132363,note_on,60,0,1,,,,,,,,,0,,,,70,0
132363,note_on,5,0,7,,,,,,,,,11,,,,65,100
132363,note_on,0,0,1,,,,,,,,,0,,,,69,82
132364,note_on,120,0,4,,,,,,,,,4,,,,62,86
132366,note_on,120,0,8,,,,,,,,,12,,,,62,0
132366,note_on,120,0,5,,,,,,,,,5,,,,58,86
132371,note_on,120,0,9,,,,,,,,,13,,,,50,0
132372,note_on,0,0,3,,,,,,,,,3,,,,70,81
132372,note_on,120,0,3,,,,,,,,,3,,,,65,0
132373,note_on,120,0,10,,,,,,,,,14,,,,38,0
132393,note_on,30,0,7,,,,,,,,,11,,,,65,0
132420,note_on,0,0,6,,,,,,,,,10,,,,67,100
132420,note_on,60,0,6,,,,,,,,,10,,,,69,0
132423,note_on,0,0,1,,,,,,,,,0,,,,67,82
132423,note_on,60,0,1,,,,,,,,,0,,,,69,0
132423,note_on,30,0,7,,,,,,,,,11,,,,65,100
132453,note_on,30,0,7,,,,,,,,,11,,,,65,0
132475,note_on,55,0,6,,,,,,,,,10,,,,67,0
132478,note_on,55,0,1,,,,,,,,,0,,,,67,0
132480,set_tempo,120,1,0,,,,,,389610,,,,,,,,
132480,note_on,5,0,6,,,,,,,,,10,,,,65,100
132483,note_on,30,0,7,,,,,,,,,11,,,,57,100
132483,note_on,5,0,1,,,,,,,,,0,,,,65,82
132484,note_on,120,0,4,,,,,,,,,4,,,,62,0
132486,note_on,120,0,5,,,,,,,,,5,,,,58,0
132486,note_on,120,0,8,,,,,,,,,12,,,,65,78
132491,note_on,120,0,9,,,,,,,,,13,,,,53,69
132492,note_on,120,0,3,,,,,,,,,3,,,,70,0
132492,note_on,0,0,3,,,,,,,,,3,,,,62,0
132492,note_on,0,0,3,,,,,,,,,3,,,,69,81
132492,note_on,0,0,3,,,,,,,,,3,,,,63,81
132493,note_on,120,0,10,,,,,,,,,14,,,,41,55
132543,note_on,0,0,7,,,,,,,,,11,,,,65,100
132543,note_on,60,0,7,,,,,,,,,11,,,,57,0
132598,note_on,55,0,7,,,,,,,,,11,,,,65,0
132600,set_tempo,120,1,0,,,,,,372671,,,,,,,,
132600,note_on,120,0,6,,,,,,,,,10,,,,65,0
132600,note_on,0,0,6,,,,,,,,,10,,,,67,100
132603,note_on,5,0,7,,,,,,,,,11,,,,65,100
132603,note_on,120,0,1,,,,,,,,,0,,,,65,0
132603,note_on,0,0,1,,,,,,,,,0,,,,67,82
132604,note_on,120,0,4,,,,,,,,,4,,,,60,86
132606,note_on,120,0,8,,,,,,,,,12,,,,65,0
132606,note_on,120,0,5,,,,,,,,,5,,,,53,86
132611,note_on,120,0,9,,,,,,,,,13,,,,53,0
132613,note_on,120,0,10,,,,,,,,,14,,,,41,0
132630,note_on,0,0,6,,,,,,,,,10,,,,69,100
132630,note_on,30,0,6,,,,,,,,,10,,,,67,0
132633,note_on,0,0,1,,,,,,,,,0,,,,69,82
132633,note_on,30,0,7,,,,,,,,,11,,,,65,0
132633,note_on,30,0,1,,,,,,,,,0,,,,67,0
132660,note_on,0,0,6,,,,,,,,,10,,,,70,100
132660,note_on,30,0,6,,,,,,,,,10,,,,69,0
132663,note_on,30,0,7,,,,,,,,,11,,,,65,100
132663,note_on,30,0,1,,,,,,,,,0,,,,69,0
132663,note_on,0,0,1,,,,,,,,,0,,,,70,82
132672,note_on,0,0,3,,,,,,,,,3,,,,63,81
132672,note_on,180,0,3,,,,,,,,,3,,,,63,0
132672,note_on,0,0,3,,,,,,,,,3,,,,69,0
132672,note_on,0,0,3,,,,,,,,,3,,,,57,81
132690,note_on,0,0,6,,,,,,,,,10,,,,72,100
132690,note_on,30,0,6,,,,,,,,,10,,,,70,0
132693,note_on,0,0,1,,,,,,,,,0,,,,72,82
132693,note_on,30,0,1,,,,,,,,,0,,,,70,0
132693,note_on,30,0,7,,,,,,,,,11,,,,65,0
132710,note_on,20,0,6,,,,,,,,,10,,,,72,0
132718,note_on,25,0,1,,,,,,,,,0,,,,72,0
132720,note_on,10,0,6,,,,,,,,,10,,,,74,100
132720,set_tempo,120,1,0,,,,,,389610,,,,,,,,
132723,note_on,5,0,1,,,,,,,,,0,,,,74,82
132723,note_on,30,0,7,,,,,,,,,11,,,,62,100
132724,note_on,120,0,4,,,,,,,,,4,,,,60,0
132726,note_on,120,0,5,,,,,,,,,5,,,,53,0
132726,note_on,120,0,8,,,,,,,,,12,,,,58,78
132731,note_on,120,0,9,,,,,,,,,13,,,,46,69
132732,note_on,60,0,3,,,,,,,,,3,,,,57,0
132732,note_on,0,0,3,,,,,,,,,3,,,,63,0
132732,note_on,0,0,3,,,,,,,,,3,,,,62,81
132732,note_on,0,0,3,,,,,,,,,3,,,,58,81
132733,note_on,120,0,10,,,,,,,,,14,,,,34,55
132783,note_on,0,0,7,,,,,,,,,11,,,,65,100
132783,note_on,60,0,7,,,,,,,,,11,,,,62,0
132838,note_on,55,0,7,,,,,,,,,11,,,,65,0
132840,set_tempo,120,1,0,,,,,,372671,,,,,,,,
132843,note_on,5,0,7,,,,,,,,,11,,,,65,100
132844,note_on,120,0,4,,,,,,,,,4,,,,58,86
132846,note_on,120,0,5,,,,,,,,,5,,,,50,86
132846,note_on,120,0,8,,,,,,,,,12,,,,58,0
132851,note_on,120,0,9,,,,,,,,,13,,,,46,0
132853,note_on,120,0,10,,,,,,,,,14,,,,34,0
132873,note_on,30,0,7,,,,,,,,,11,,,,65,0
132903,note_on,30,0,7,,,,,,,,,11,,,,65,100
132933,note_on,30,0,7,,,,,,,,,11,,,,65,0
132955,note_on,235,0,6,,,,,,,,,10,,,,74,0
132958,note_on,235,0,1,,,,,,,,,0,,,,74,0
132960,note_on,5,0,6,,,,,,,,,10,,,,77,100
132960,set_tempo,120,1,0,,,,,,389610,,,,,,,,
132963,note_on,30,0,7,,,,,,,,,11,,,,63,100
132963,note_on,5,0,1,,,,,,,,,0,,,,77,82
132964,note_on,120,0,4,,,,,,,,,4,,,,58,0
132966,note_on,120,0,8,,,,,,,,,12,,,,60,78
132966,note_on,120,0,5,,,,,,,,,5,,,,50,0
132971,note_on,120,0,9,,,,,,,,,13,,,,48,69
132972,note_on,0,0,3,,,,,,,,,3,,,,63,81
132972,note_on,0,0,3,,,,,,,,,3,,,,60,81
132972,note_on,240,0,3,,,,,,,,,3,,,,58,0
132972,note_on,0,0,3,,,,,,,,,3,,,,62,0
132973,note_on,120,0,10,,,,,,,,,14,,,,36,55
133020,note_on,60,0,6,,,,,,,,,10,,,,77,0
133020,note_on,0,0,6,,,,,,,,,10,,,,75,100
133023,note_on,60,0,1,,,,,,,,,0,,,,77,0
133023,note_on,0,0,7,,,,,,,,,11,,,,65,100
133023,note_on,0,0,1,,,,,,,,,0,,,,75,82
133023,note_on,60,0,7,,,,,,,,,11,,,,63,0
133078,note_on,55,0,7,,,,,,,,,11,,,,65,0
133080,note_on,60,0,6,,,,,,,,,10,,,,75,0
133080,set_tempo,120,1,0,,,,,,372671,,,,,,,,
133080,note_on,0,0,6,,,,,,,,,10,,,,67,100
133083,note_on,0,0,1,,,,,,,,,0,,,,67,82
133083,note_on,60,0,1,,,,,,,,,0,,,,75,0
133083,note_on,5,0,7,,,,,,,,,11,,,,65,100
133084,note_on,120,0,4,,,,,,,,,4,,,,60,86
133086,note_on,120,0,8,,,,,,,,,12,,,,60,0
133086,note_on,120,0,5,,,,,,,,,5,,,,53,86
133091,note_on,120,0,9,,,,,,,,,13,,,,48,0
133093,note_on,120,0,10,,,,,,,,,14,,,,36,0
133113,note_on,30,0,7,,,,,,,,,11,,,,65,0
133140,note_on,0,0,6,,,,,,,,,10,,,,69,100
133140,note_on,60,0,6,,,,,,,,,10,,,,67,0
133143,note_on,60,0,1,,,,,,,,,0,,,,67,0
133143,note_on,0,0,1,,,,,,,,,0,,,,69,82
133143,note_on,30,0,7,,,,,,,,,11,,,,65,100
133173,note_on,30,0,7,,,,,,,,,11,,,,65,0
133195,note_on,55,0,6,,,,,,,,,10,,,,69,0
133198,note_on,55,0,1,,,,,,,,,0,,,,69,0
133200,set_tempo,120,1,0,,,,,,389610,,,,,,,,
133200,note_on,5,0,6,,,,,,,,,10,,,,72,100
133203,note_on,30,0,7,,,,,,,,,11,,,,58,100
133203,note_on,5,0,1,,,,,,,,,0,,,,72,82
133204,note_on,120,0,4,,,,,,,,,4,,,,60,0
133206,note_on,120,0,8,,,,,,,,,12,,,,62,78
133206,note_on,120,0,5,,,,,,,,,5,,,,53,0
133211,note_on,120,0,9,,,,,,,,,13,,,,50,69
133212,note_on,0,0,3,,,,,,,,,3,,,,60,0
133212,note_on,0,0,3,,,,,,,,,3,,,,65,81
133212,note_on,240,0,3,,,,,,,,,3,,,,63,0
133212,note_on,0,0,3,,,,,,,,,3,,,,62,81
133213,note_on,120,0,10,,,,,,,,,14,,,,38,55
133260,note_on,0,0,6,,,,,,,,,10,,,,70,100
133260,note_on,60,0,6,,,,,,,,,10,,,,72,0
133263,note_on,60,0,7,,,,,,,,,11,,,,58,0
133263,note_on,0,0,1,,,,,,,,,0,,,,70,82
133263,note_on,60,0,1,,,,,,,,,0,,,,72,0
133263,note_on,0,0,7,,,,,,,,,11,,,,65,100
133318,note_on,55,0,7,,,,,,,,,11,,,,65,0
133320,set_tempo,120,1,0,,,,,,372671,,,,,,,,
133320,note_on,0,0,6,,,,,,,,,10,,,,69,100
133320,note_on,60,0,6,,,,,,,,,10,,,,70,0
133323,note_on,5,0,7,,,,,,,,,11,,,,65,100
133323,note_on,60,0,1,,,,,,,,,0,,,,70,0
133323,note_on,0,0,1,,,,,,,,,0,,,,69,82
133324,note_on,120,0,4,,,,,,,,,4,,,,62,86
133326,note_on,120,0,5,,,,,,,,,5,,,,58,86
133326,note_on,120,0,8,,,,,,,,,12,,,,62,0
133331,note_on,120,0,9,,,,,,,,,13,,,,50,0
133332,note_on,0,0,3,,,,,,,,,3,,,,70,81
133332,note_on,120,0,3,,,,,,,,,3,,,,65,0
133333,note_on,120,0,10,,,,,,,,,14,,,,38,0
133353,note_on,30,0,7,,,,,,,,,11,,,,65,0
133360,note_on,40,0,6,,,,,,,,,10,,,,69,0
133360,note_on,0,0,6,,,,,,,,,10,,,,70,100
133363,note_on,0,0,1,,,,,,,,,0,,,,70,82
133363,note_on,40,0,1,,,,,,,,,0,,,,69,0
133383,note_on,30,0,7,,,,,,,,,11,,,,65,100
133400,note_on,40,0,6,,,,,,,,,10,,,,70,0
133400,note_on,0,0,6,,,,,,,,,10,,,,67,100
133403,note_on,0,0,1,,,,,,,,,0,,,,67,82
133403,note_on,40,0,1,,,,,,,,,0,,,,70,0
133413,note_on,30,0,7,,,,,,,,,11,,,,65,0
133430,note_on,30,0,6,,,,,,,,,10,,,,67,0
133438,note_on,35,0,1,,,,,,,,,0,,,,67,0
133440,set_tempo,120,1,0,,,,,,413793,,,,,,,,
133440,note_on,10,0,6,,,,,,,,,10,,,,65,100
133443,note_on,5,0,1,,,,,,,,,0,,,,65,82
133443,note_on,30,0,7,,,,,,,,,11,,,,57,100
133444,note_on,120,0,4,,,,,,,,,4,,,,62,0
133446,note_on,120,0,5,,,,,,,,,5,,,,58,0
133446,note_on,120,0,8,,,,,,,,,12,,,,65,78
133451,note_on,120,0,9,,,,,,,,,13,,,,53,69
133452,note_on,0,0,3,,,,,,,,,3,,,,62,0
133452,note_on,120,0,3,,,,,,,,,3,,,,70,0
133452,note_on,0,0,3,,,,,,,,,3,,,,63,81
133452,note_on,0,0,3,,,,,,,,,3,,,,69,81
133453,note_on,120,0,10,,,,,,,,,14,,,,41,55
133503,note_on,0,0,7,,,,,,,,,11,,,,65,100
133503,note_on,60,0,7,,,,,,,,,11,,,,57,0
133558,note_on,55,0,7,,,,,,,,,11,,,,65,0
133560,set_tempo,120,1,0,,,,,,372671,,,,,,,,
133563,note_on,5,0,7,,,,,,,,,11,,,,65,100
133564,note_on,120,0,4,,,,,,,,,4,,,,60,86
133566,note_on,120,0,8,,,,,,,,,12,,,,65,0
133566,note_on,120,0,5,,,,,,,,,5,,,,53,86
133571,note_on,120,0,9,,,,,,,,,13,,,,53,0
133573,note_on,120,0,10,,,,,,,,,14,,,,41,0
133593,note_on,30,0,7,,,,,,,,,11,,,,65,0
133623,note_on,30,0,7,,,,,,,,,11,,,,65,100
133632,note_on,180,0,3,,,,,,,,,3,,,,63,0
133632,note_on,0,0,3,,,,,,,,,3,,,,63,81
133632,note_on,0,0,3,,,,,,,,,3,,,,57,81
133632,note_on,0,0,3,,,,,,,,,3,,,,69,0
133653,note_on,30,0,7,,,,,,,,,11,,,,65,0
133675,note_on,235,0,6,,,,,,,,,10,,,,65,0
133678,note_on,235,0,1,,,,,,,,,0,,,,65,0
133680,set_tempo,120,1,0,,,,,,389610,,,,,,,,
133680,control_change,5,0,6,,,,,,,,,10,11,47,,,
133680,note_on,0,0,6,,,,,,,,,10,,,,65,100
133683,note_on,0,0,1,,,,,,,,,0,,,,65,82
133683,note_on,0,0,7,,,,,,,,,11,,,,65,100
133683,control_change,5,0,1,,,,,,,,,0,11,47,,,
133683,control_change,30,0,7,,,,,,,,,11,11,47,,,
133684,note_on,0,0,4,,,,,,,,,4,,,,58,86
133684,note_on,120,0,4,,,,,,,,,4,,,,60,0
133685,note_on,0,0,2,,,,,,,,,1,,,,77,0
133685,note_on,0,0,2,,,,,,,,,1,,,,65,81
133685,note_on,0,0,2,,,,,,,,,1,,,,74,81
133685,note_on,1830,0,2,,,,,,,,,1,,,,65,0
133686,note_on,0,0,5,,,,,,,,,5,,,,46,86
133686,note_on,120,0,5,,,,,,,,,5,,,,53,0
133686,note_on,0,0,8,,,,,,,,,12,,,,58,98
133686,control_change,120,0,8,,,,,,,,,12,11,47,,,
133691,note_on,0,0,9,,,,,,,,,13,,,,58,89
133691,control_change,120,0,9,,,,,,,,,13,11,47,,,
133692,note_on,0,0,3,,,,,,,,,3,,,,62,81
133692,note_on,0,0,3,,,,,,,,,3,,,,57,0
133692,note_on,60,0,3,,,,,,,,,3,,,,63,0
133692,note_on,0,0,3,,,,,,,,,3,,,,58,81
133693,note_on,0,0,10,,,,,,,,,14,,,,46,73
133693,control_change,120,0,10,,,,,,,,,14,11,47,,,
133696,control_change,16,0,6,,,,,,,,,10,11,48,,,
133699,control_change,16,0,7,,,,,,,,,11,11,48,,,
133699,control_change,16,0,1,,,,,,,,,0,11,48,,,
133702,control_change,16,0,8,,,,,,,,,12,11,48,,,
133707,control_change,16,0,9,,,,,,,,,13,11,48,,,
133709,control_change,16,0,10,,,,,,,,,14,11,48,,,
133712,control_change,16,0,6,,,,,,,,,10,11,49,,,
133715,control_change,16,0,7,,,,,,,,,11,11,49,,,
133715,control_change,16,0,1,,,,,,,,,0,11,49,,,
133718,control_change,16,0,8,,,,,,,,,12,11,49,,,
133723,control_change,16,0,9,,,,,,,,,13,11,49,,,
133725,control_change,16,0,10,,,,,,,,,14,11,49,,,
133728,control_change,16,0,6,,,,,,,,,10,11,50,,,
133731,control_change,16,0,1,,,,,,,,,0,11,50,,,
133731,control_change,16,0,7,,,,,,,,,11,11,50,,,
133734,control_change,16,0,8,,,,,,,,,12,11,50,,,
133739,control_change,16,0,9,,,,,,,,,13,11,50,,,
133740,note_on,12,0,6,,,,,,,,,10,,,,65,0
133740,note_on,0,0,6,,,,,,,,,10,,,,74,100
133741,control_change,16,0,10,,,,,,,,,14,11,50,,,
133743,note_on,12,0,1,,,,,,,,,0,,,,65,0
133743,note_on,0,0,1,,,,,,,,,0,,,,74,82
133744,control_change,4,0,6,,,,,,,,,10,11,51,,,
133747,control_change,16,0,7,,,,,,,,,11,11,51,,,
133747,control_change,4,0,1,,,,,,,,,0,11,51,,,
133750,control_change,16,0,8,,,,,,,,,12,11,51,,,
133755,control_change,16,0,9,,,,,,,,,13,11,51,,,
133757,control_change,16,0,10,,,,,,,,,14,11,51,,,
133760,control_change,16,0,6,,,,,,,,,10,11,52,,,
133763,control_change,16,0,7,,,,,,,,,11,11,52,,,
133763,control_change,16,0,1,,,,,,,,,0,11,52,,,
133766,control_change,16,0,8,,,,,,,,,12,11,52,,,
133771,control_change,16,0,9,,,,,,,,,13,11,52,,,
133773,control_change,16,0,10,,,,,,,,,14,11,52,,,
133776,control_change,16,0,6,,,,,,,,,10,11,53,,,
133779,control_change,16,0,7,,,,,,,,,11,11,53,,,
133779,control_change,16,0,1,,,,,,,,,0,11,53,,,
133782,control_change,16,0,8,,,,,,,,,12,11,53,,,
133787,control_change,16,0,9,,,,,,,,,13,11,53,,,
133789,control_change,16,0,10,,,,,,,,,14,11,53,,,
133792,control_change,16,0,6,,,,,,,,,10,11,54,,,
133795,control_change,16,0,7,,,,,,,,,11,11,54,,,
133795,control_change,16,0,1,,,,,,,,,0,11,54,,,
133795,note_on,3,0,6,,,,,,,,,10,,,,74,0
133798,control_change,16,0,8,,,,,,,,,12,11,54,,,
133798,note_on,3,0,1,,,,,,,,,0,,,,74,0
133800,set_tempo,120,1,0,,,,,,372671,,,,,,,,
133800,note_on,5,0,6,,,,,,,,,10,,,,74,100
133803,note_on,5,0,1,,,,,,,,,0,,,,74,82
133803,control_change,16,0,9,,,,,,,,,13,11,54,,,
133804,note_on,120,0,4,,,,,,,,,4,,,,58,0
133805,control_change,16,0,10,,,,,,,,,14,11,54,,,
133806,note_on,120,0,5,,,,,,,,,5,,,,46,0
133808,control_change,8,0,6,,,,,,,,,10,11,55,,,
133811,note_on,8,0,9,,,,,,,,,13,,,,58,0
133811,control_change,8,0,1,,,,,,,,,0,11,55,,,
133811,control_change,16,0,7,,,,,,,,,11,11,55,,,
133813,note_on,8,0,10,,,,,,,,,14,,,,46,0
133814,control_change,16,0,8,,,,,,,,,12,11,55,,,
133819,control_change,8,0,9,,,,,,,,,13,11,55,,,
133821,control_change,8,0,10,,,,,,,,,14,11,55,,,
133824,control_change,16,0,6,,,,,,,,,10,11,56,,,
133827,control_change,16,0,1,,,,,,,,,0,11,56,,,
133827,control_change,16,0,7,,,,,,,,,11,11,56,,,
133830,control_change,16,0,8,,,,,,,,,12,11,56,,,
133830,note_on,6,0,6,,,,,,,,,10,,,,74,0
133833,note_on,6,0,1,,,,,,,,,0,,,,74,0
133835,control_change,16,0,9,,,,,,,,,13,11,56,,,
133837,control_change,16,0,10,,,,,,,,,14,11,56,,,
133840,control_change,10,0,6,,,,,,,,,10,11,57,,,
133843,control_change,10,0,1,,,,,,,,,0,11,57,,,
133843,control_change,16,0,7,,,,,,,,,11,11,57,,,
133846,control_change,16,0,8,,,,,,,,,12,11,57,,,
133851,control_change,16,0,9,,,,,,,,,13,11,57,,,
133853,control_change,16,0,10,,,,,,,,,14,11,57,,,
133856,control_change,16,0,6,,,,,,,,,10,11,58,,,
133859,control_change,16,0,7,,,,,,,,,11,11,58,,,
133859,control_change,16,0,1,,,,,,,,,0,11,58,,,
133860,note_on,4,0,6,,,,,,,,,10,,,,74,100
133862,control_change,16,0,8,,,,,,,,,12,11,58,,,
133863,note_on,4,0,1,,,,,,,,,0,,,,74,82
133867,control_change,16,0,9,,,,,,,,,13,11,58,,,
133869,control_change,16,0,10,,,,,,,,,14,11,58,,,
133872,control_change,12,0,6,,,,,,,,,10,11,59,,,
133875,control_change,12,0,1,,,,,,,,,0,11,59,,,
133875,control_change,16,0,7,,,,,,,,,11,11,59,,,
133878,control_change,16,0,8,,,,,,,,,12,11,59,,,
133883,control_change,16,0,9,,,,,,,,,13,11,59,,,
133885,control_change,16,0,10,,,,,,,,,14,11,59,,,
133888,control_change,16,0,6,,,,,,,,,10,11,60,,,
133890,note_on,2,0,6,,,,,,,,,10,,,,74,0
133891,control_change,16,0,1,,,,,,,,,0,11,60,,,
133891,control_change,16,0,7,,,,,,,,,11,11,60,,,
133893,note_on,2,0,1,,,,,,,,,0,,,,74,0
133894,control_change,16,0,8,,,,,,,,,12,11,60,,,
133899,control_change,16,0,9,,,,,,,,,13,11,60,,,
133901,control_change,16,0,10,,,,,,,,,14,11,60,,,
133904,control_change,14,0,6,,,,,,,,,10,11,61,,,
133907,control_change,14,0,1,,,,,,,,,0,11,61,,,
133907,control_change,16,0,7,,,,,,,,,11,11,61,,,
133910,control_change,16,0,8,,,,,,,,,12,11,61,,,
133915,control_change,16,0,9,,,,,,,,,13,11,61,,,
133917,control_change,16,0,10,,,,,,,,,14,11,61,,,
133920,control_change,16,0,6,,,,,,,,,10,11,62,,,
133920,note_on,0,0,6,,,,,,,,,10,,,,74,100
133920,set_tempo,120,1,0,,,,,,389610,,,,,,,,
133923,note_on,0,0,1,,,,,,,,,0,,,,74,82
133923,control_change,16,0,7,,,,,,,,,11,11,62,,,
133923,control_change,16,0,1,,,,,,,,,0,11,62,,,
133925,note_on,0,0,2,,,,,,,,,1,,,,72,81
133925,note_on,240,0,2,,,,,,,,,1,,,,74,0
133926,control_change,0,0,8,,,,,,,,,12,11,62,,,
133926,note_on,0,0,8,,,,,,,,,12,,,,57,98
133926,note_on,16,0,8,,,,,,,,,12,,,,58,0
133931,note_on,0,0,9,,,,,,,,,13,,,,57,89
133931,control_change,16,0,9,,,,,,,,,13,11,62,,,
133932,note_on,0,0,3,,,,,,,,,3,,,,62,0
133932,note_on,0,0,3,,,,,,,,,3,,,,60,81
133932,note_on,240,0,3,,,,,,,,,3,,,,58,0
133932,note_on,0,0,3,,,,,,,,,3,,,,57,81
133933,control_change,16,0,10,,,,,,,,,14,11,62,,,
133933,note_on,0,0,10,,,,,,,,,14,,,,45,73
133952,control_change,32,0,6,,,,,,,,,10,11,61,,,
133955,control_change,32,0,1,,,,,,,,,0,11,61,,,
133955,control_change,32,0,7,,,,,,,,,11,11,61,,,
133958,control_change,32,0,8,,,,,,,,,12,11,61,,,
133963,control_change,32,0,9,,,,,,,,,13,11,61,,,
133965,control_change,32,0,10,,,,,,,,,14,11,61,,,
133980,note_on,28,0,6,,,,,,,,,10,,,,74,0
133980,note_on,0,0,6,,,,,,,,,10,,,,72,100
133983,note_on,0,0,1,,,,,,,,,0,,,,72,82
133983,note_on,28,0,1,,,,,,,,,0,,,,74,0
133984,control_change,4,0,6,,,,,,,,,10,11,60,,,
133987,control_change,32,0,7,,,,,,,,,11,11,60,,,
133987,control_change,4,0,1,,,,,,,,,0,11,60,,,
133990,control_change,32,0,8,,,,,,,,,12,11,60,,,
133995,control_change,32,0,9,,,,,,,,,13,11,60,,,
133997,control_change,32,0,10,,,,,,,,,14,11,60,,,
134016,control_change,32,0,6,,,,,,,,,10,11,59,,,
134019,control_change,32,0,7,,,,,,,,,11,11,59,,,
134019,control_change,32,0,1,,,,,,,,,0,11,59,,,
134022,control_change,32,0,8,,,,,,,,,12,11,59,,,
134027,control_change,32,0,9,,,,,,,,,13,11,59,,,
134029,control_change,32,0,10,,,,,,,,,14,11,59,,,
134040,set_tempo,120,1,0,,,,,,372671,,,,,,,,
134040,note_on,24,0,6,,,,,,,,,10,,,,72,0
134040,note_on,0,0,6,,,,,,,,,10,,,,69,100
134043,note_on,0,0,1,,,,,,,,,0,,,,69,82
134043,note_on,24,0,1,,,,,,,,,0,,,,72,0
134048,control_change,8,0,6,,,,,,,,,10,11,58,,,
134051,note_on,24,0,9,,,,,,,,,13,,,,57,0
134051,control_change,8,0,1,,,,,,,,,0,11,58,,,
134051,control_change,32,0,7,,,,,,,,,11,11,58,,,
134053,note_on,24,0,10,,,,,,,,,14,,,,45,0
134054,control_change,32,0,8,,,,,,,,,12,11,58,,,
134059,control_change,8,0,9,,,,,,,,,13,11,58,,,
134061,control_change,8,0,10,,,,,,,,,14,11,58,,,
134080,control_change,32,0,6,,,,,,,,,10,11,57,,,
134083,control_change,32,0,7,,,,,,,,,11,11,57,,,
134083,control_change,32,0,1,,,,,,,,,0,11,57,,,
134086,control_change,32,0,8,,,,,,,,,12,11,57,,,
134091,control_change,32,0,9,,,,,,,,,13,11,57,,,
134093,control_change,32,0,10,,,,,,,,,14,11,57,,,
134100,note_on,0,0,6,,,,,,,,,10,,,,65,100
134100,note_on,20,0,6,,,,,,,,,10,,,,69,0
134103,note_on,20,0,1,,,,,,,,,0,,,,69,0
134103,note_on,0,0,1,,,,,,,,,0,,,,65,82
134112,control_change,12,0,6,,,,,,,,,10,11,56,,,
134115,control_change,12,0,1,,,,,,,,,0,11,56,,,
134115,control_change,32,0,7,,,,,,,,,11,11,56,,,
134118,control_change,32,0,8,,,,,,,,,12,11,56,,,
134123,control_change,32,0,9,,,,,,,,,13,11,56,,,
134125,control_change,32,0,10,,,,,,,,,14,11,56,,,
134144,control_change,32,0,6,,,,,,,,,10,11,55,,,
134147,control_change,32,0,7,,,,,,,,,11,11,55,,,
134147,control_change,32,0,1,,,,,,,,,0,11,55,,,
134150,control_change,32,0,8,,,,,,,,,12,11,55,,,
134155,note_on,11,0,6,,,,,,,,,10,,,,65,0
134155,control_change,32,0,9,,,,,,,,,13,11,55,,,
134157,control_change,32,0,10,,,,,,,,,14,11,55,,,
134158,note_on,11,0,1,,,,,,,,,0,,,,65,0
134158,note_on,11,0,7,,,,,,,,,11,,,,65,0
134160,set_tempo,120,1,0,,,,,,389610,,,,,,,,
134160,note_on,5,0,6,,,,,,,,,10,,,,65,100
134161,note_on,11,0,8,,,,,,,,,12,,,,57,0
134163,note_on,5,0,7,,,,,,,,,11,,,,65,100
134163,note_on,5,0,1,,,,,,,,,0,,,,65,82
134165,note_on,0,0,2,,,,,,,,,1,,,,70,81
134165,note_on,240,0,2,,,,,,,,,1,,,,72,0
134166,note_on,5,0,8,,,,,,,,,12,,,,55,98
134171,note_on,16,0,9,,,,,,,,,13,,,,55,89
134172,note_on,240,0,3,,,,,,,,,3,,,,60,0
134172,note_on,0,0,3,,,,,,,,,3,,,,57,0
134172,note_on,0,0,3,,,,,,,,,3,,,,58,81
134172,note_on,0,0,3,,,,,,,,,3,,,,55,81
134173,note_on,16,0,10,,,,,,,,,14,,,,43,73
134176,control_change,16,0,6,,,,,,,,,10,11,54,,,
134179,control_change,16,0,7,,,,,,,,,11,11,54,,,
134179,control_change,16,0,1,,,,,,,,,0,11,54,,,
134182,control_change,16,0,8,,,,,,,,,12,11,54,,,
134187,control_change,16,0,9,,,,,,,,,13,11,54,,,
134189,control_change,16,0,10,,,,,,,,,14,11,54,,,
134208,control_change,32,0,6,,,,,,,,,10,11,53,,,
134211,control_change,32,0,7,,,,,,,,,11,11,53,,,
134211,control_change,32,0,1,,,,,,,,,0,11,53,,,
134214,control_change,32,0,8,,,,,,,,,12,11,53,,,
134219,control_change,32,0,9,,,,,,,,,13,11,53,,,
134220,note_on,0,0,6,,,,,,,,,10,,,,64,100
134220,note_on,12,0,6,,,,,,,,,10,,,,65,0
134221,control_change,32,0,10,,,,,,,,,14,11,53,,,
134223,note_on,0,0,7,,,,,,,,,11,,,,64,100
134223,note_on,12,0,7,,,,,,,,,11,,,,65,0
134223,note_on,12,0,1,,,,,,,,,0,,,,65,0
134223,note_on,0,0,1,,,,,,,,,0,,,,64,82
134225,note_on,60,0,2,,,,,,,,,1,,,,65,0
134225,note_on,0,0,2,,,,,,,,,1,,,,64,81
134240,control_change,20,0,6,,,,,,,,,10,11,52,,,
134243,control_change,20,0,1,,,,,,,,,0,11,52,,,
134243,control_change,20,0,7,,,,,,,,,11,11,52,,,
134246,control_change,32,0,8,,,,,,,,,12,11,52,,,
134251,control_change,32,0,9,,,,,,,,,13,11,52,,,
134253,control_change,32,0,10,,,,,,,,,14,11,52,,,
134272,control_change,32,0,6,,,,,,,,,10,11,51,,,
134275,control_change,32,0,7,,,,,,,,,11,11,51,,,
134275,control_change,32,0,1,,,,,,,,,0,11,51,,,
134278,control_change,32,0,8,,,,,,,,,12,11,51,,,
134280,note_on,8,0,6,,,,,,,,,10,,,,64,0
134280,note_on,0,0,6,,,,,,,,,10,,,,67,100
134280,set_tempo,120,1,0,,,,,,372671,,,,,,,,
134281,note_on,3,0,8,,,,,,,,,12,,,,55,0
134283,control_change,32,0,9,,,,,,,,,13,11,51,,,
134283,note_on,8,0,7,,,,,,,,,11,,,,64,0
134283,note_on,8,0,1,,,,,,,,,0,,,,64,0
134283,note_on,0,0,1,,,,,,,,,0,,,,67,82
134283,note_on,0,0,7,,,,,,,,,11,,,,62,100
134285,control_change,32,0,10,,,,,,,,,14,11,51,,,
134285,note_on,0,0,2,,,,,,,,,1,,,,62,81
134285,note_on,60,0,2,,,,,,,,,1,,,,64,0
134286,note_on,3,0,9,,,,,,,,,13,,,,55,0
134286,note_on,5,0,8,,,,,,,,,12,,,,60,98
134288,note_on,3,0,10,,,,,,,,,14,,,,43,0
134291,note_on,5,0,9,,,,,,,,,13,,,,48,89
134293,note_on,5,0,10,,,,,,,,,14,,,,36,73
134304,control_change,24,0,6,,,,,,,,,10,11,50,,,
134307,control_change,24,0,1,,,,,,,,,0,11,50,,,
134307,control_change,24,0,7,,,,,,,,,11,11,50,,,
134310,control_change,24,0,8,,,,,,,,,12,11,50,,,
134315,control_change,24,0,9,,,,,,,,,13,11,50,,,
134317,control_change,24,0,10,,,,,,,,,14,11,50,,,
134336,control_change,32,0,6,,,,,,,,,10,11,49,,,
134339,control_change,32,0,7,,,,,,,,,11,11,49,,,
134339,control_change,32,0,1,,,,,,,,,0,11,49,,,
134340,note_on,4,0,6,,,,,,,,,10,,,,67,0
134340,note_on,0,0,6,,,,,,,,,10,,,,70,100
134342,control_change,32,0,8,,,,,,,,,12,11,49,,,
134343,note_on,0,0,7,,,,,,,,,11,,,,64,100
134343,note_on,4,0,7,,,,,,,,,11,,,,62,0
134343,note_on,0,0,1,,,,,,,,,0,,,,70,82
134343,note_on,4,0,1,,,,,,,,,0,,,,67,0
134345,note_on,0,0,2,,,,,,,,,1,,,,64,81
134345,note_on,60,0,2,,,,,,,,,1,,,,62,0
134347,control_change,32,0,9,,,,,,,,,13,11,49,,,
134349,control_change,32,0,10,,,,,,,,,14,11,49,,,
134368,control_change,28,0,6,,,,,,,,,10,11,48,,,
134371,control_change,28,0,1,,,,,,,,,0,11,48,,,
134371,control_change,28,0,7,,,,,,,,,11,11,48,,,
134374,control_change,32,0,8,,,,,,,,,12,11,48,,,
134379,control_change,32,0,9,,,,,,,,,13,11,48,,,
134381,control_change,32,0,10,,,,,,,,,14,11,48,,,
134395,note_on,27,0,6,,,,,,,,,10,,,,70,0
134398,note_on,27,0,1,,,,,,,,,0,,,,70,0
134398,note_on,27,0,7,,,,,,,,,11,,,,64,0
134400,set_tempo,120,1,0,,,,,,389610,,,,,,,,
134400,control_change,5,0,6,,,,,,,,,10,11,47,,,
134400,note_on,0,0,6,,,,,,,,,10,,,,70,100
134401,note_on,27,0,8,,,,,,,,,12,,,,60,0
134403,control_change,5,0,7,,,,,,,,,11,11,47,,,
134403,control_change,5,0,1,,,,,,,,,0,11,47,,,
134403,note_on,0,0,1,,,,,,,,,0,,,,70,82
134403,note_on,0,0,7,,,,,,,,,11,,,,64,100
134405,note_on,0,0,2,,,,,,,,,1,,,,70,81
134405,note_on,0,0,2,,,,,,,,,1,,,,64,81
134405,note_on,60,0,2,,,,,,,,,1,,,,64,0
134405,note_on,0,0,2,,,,,,,,,1,,,,70,0
134406,note_on,0,0,8,,,,,,,,,12,,,,60,98
134406,note_on,27,0,9,,,,,,,,,13,,,,48,0
134406,control_change,5,0,8,,,,,,,,,12,11,47,,,
134408,note_on,27,0,10,,,,,,,,,14,,,,36,0
134411,control_change,5,0,9,,,,,,,,,13,11,47,,,
134411,note_on,0,0,9,,,,,,,,,13,,,,53,89
134412,note_on,240,0,3,,,,,,,,,3,,,,55,0
134412,note_on,0,0,3,,,,,,,,,3,,,,58,0
134412,note_on,0,0,3,,,,,,,,,3,,,,53,81
134412,note_on,0,0,3,,,,,,,,,3,,,,60,81
134413,control_change,5,0,10,,,,,,,,,14,11,47,,,
134413,note_on,0,0,10,,,,,,,,,14,,,,41,73
134520,set_tempo,120,1,0,,,,,,372671,,,,,,,,
134520,note_on,0,0,6,,,,,,,,,10,,,,69,100
134520,note_on,120,0,6,,,,,,,,,10,,,,70,0
134523,note_on,120,0,7,,,,,,,,,11,,,,64,0
134523,note_on,120,0,1,,,,,,,,,0,,,,70,0
134523,note_on,0,0,7,,,,,,,,,11,,,,65,100
134523,note_on,0,0,1,,,,,,,,,0,,,,69,82
134525,note_on,0,0,2,,,,,,,,,1,,,,69,81
134525,note_on,0,0,2,,,,,,,,,1,,,,64,0
134525,note_on,120,0,2,,,,,,,,,1,,,,70,0
134525,note_on,0,0,2,,,,,,,,,1,,,,65,81
134531,note_on,120,0,9,,,,,,,,,13,,,,53,0
134533,note_on,120,0,10,,,,,,,,,14,,,,41,0
134635,note_on,115,0,6,,,,,,,,,10,,,,69,0
134638,note_on,115,0,7,,,,,,,,,11,,,,65,0
134638,note_on,115,0,1,,,,,,,,,0,,,,69,0
134640,set_tempo,120,1,0,,,,,,389610,,,,,,,,
134640,control_change,5,0,6,,,,,,,,,10,11,47,,,
134640,note_on,0,0,6,,,,,,,,,10,,,,70,100
134641,note_on,235,0,8,,,,,,,,,12,,,,60,0
134643,note_on,0,0,1,,,,,,,,,0,,,,70,82
134643,note_on,0,0,7,,,,,,,,,11,,,,70,100
134643,control_change,5,0,7,,,,,,,,,11,11,47,,,
134643,control_change,5,0,1,,,,,,,,,0,11,47,,,
134645,note_on,0,0,2,,,,,,,,,1,,,,67,81
134645,note_on,120,0,2,,,,,,,,,1,,,,65,0
134645,note_on,0,0,2,,,,,,,,,1,,,,69,0
134645,note_on,0,0,2,,,,,,,,,1,,,,70,81
134646,control_change,5,0,8,,,,,,,,,12,11,47,,,
134646,note_on,0,0,8,,,,,,,,,12,,,,63,98
134651,note_on,0,0,9,,,,,,,,,13,,,,51,89
134651,control_change,120,0,9,,,,,,,,,13,11,47,,,
134652,note_on,240,0,3,,,,,,,,,3,,,,60,0
134652,note_on,0,0,3,,,,,,,,,3,,,,51,81
134652,note_on,0,0,3,,,,,,,,,3,,,,53,0
134653,note_on,0,0,10,,,,,,,,,14,,,,39,73
134653,control_change,120,0,10,,,,,,,,,14,11,47,,,
134656,control_change,16,0,6,,,,,,,,,10,11,48,,,
134659,control_change,16,0,1,,,,,,,,,0,11,48,,,
134659,control_change,16,0,7,,,,,,,,,11,11,48,,,
134662,control_change,16,0,8,,,,,,,,,12,11,48,,,
134667,control_change,16,0,9,,,,,,,,,13,11,48,,,
134669,control_change,16,0,10,,,,,,,,,14,11,48,,,
134672,control_change,16,0,6,,,,,,,,,10,11,49,,,
134675,control_change,16,0,1,,,,,,,,,0,11,49,,,
134675,control_change,16,0,7,,,,,,,,,11,11,49,,,
134678,control_change,16,0,8,,,,,,,,,12,11,49,,,
134683,control_change,16,0,9,,,,,,,,,13,11,49,,,
134685,control_change,16,0,10,,,,,,,,,14,11,49,,,
134688,control_change,16,0,6,,,,,,,,,10,11,50,,,
134691,control_change,16,0,7,,,,,,,,,11,11,50,,,
134691,control_change,16,0,1,,,,,,,,,0,11,50,,,
134694,control_change,16,0,8,,,,,,,,,12,11,50,,,
134699,control_change,16,0,9,,,,,,,,,13,11,50,,,
134700,note_on,12,0,6,,,,,,,,,10,,,,70,0
134700,note_on,0,0,6,,,,,,,,,10,,,,79,100
134701,control_change,16,0,10,,,,,,,,,14,11,50,,,
134703,note_on,12,0,1,,,,,,,,,0,,,,70,0
134703,note_on,0,0,1,,,,,,,,,0,,,,79,82
134704,control_change,4,0,6,,,,,,,,,10,11,51,,,
134707,control_change,16,0,7,,,,,,,,,11,11,51,,,
134707,control_change,4,0,1,,,,,,,,,0,11,51,,,
134710,control_change,16,0,8,,,,,,,,,12,11,51,,,
134715,control_change,16,0,9,,,,,,,,,13,11,51,,,
134717,control_change,16,0,10,,,,,,,,,14,11,51,,,
134720,control_change,16,0,6,,,,,,,,,10,11,52,,,
134723,control_change,16,0,7,,,,,,,,,11,11,52,,,
134723,control_change,16,0,1,,,,,,,,,0,11,52,,,
134726,control_change,16,0,8,,,,,,,,,12,11,52,,,
134731,control_change,16,0,9,,,,,,,,,13,11,52,,,
134733,control_change,16,0,10,,,,,,,,,14,11,52,,,
134736,control_change,16,0,6,,,,,,,,,10,11,53,,,
134739,control_change,16,0,7,,,,,,,,,11,11,53,,,
134739,control_change,16,0,1,,,,,,,,,0,11,53,,,
134742,control_change,16,0,8,,,,,,,,,12,11,53,,,
134747,control_change,16,0,9,,,,,,,,,13,11,53,,,
134749,control_change,16,0,10,,,,,,,,,14,11,53,,,
134752,control_change,16,0,6,,,,,,,,,10,11,54,,,
134755,control_change,16,0,7,,,,,,,,,11,11,54,,,
134755,note_on,3,0,6,,,,,,,,,10,,,,79,0
134755,control_change,16,0,1,,,,,,,,,0,11,54,,,
134758,control_change,16,0,8,,,,,,,,,12,11,54,,,
134758,note_on,3,0,1,,,,,,,,,0,,,,79,0
134760,note_on,5,0,6,,,,,,,,,10,,,,79,100
134760,set_tempo,120,1,0,,,,,,372671,,,,,,,,
134763,note_on,5,0,1,,,,,,,,,0,,,,79,82
134763,control_change,16,0,9,,,,,,,,,13,11,54,,,
134765,control_change,16,0,10,,,,,,,,,14,11,54,,,
134765,note_on,0,0,2,,,,,,,,,1,,,,79,81
134765,note_on,0,0,2,,,,,,,,,1,,,,70,0
134765,note_on,0,0,2,,,,,,,,,1,,,,70,81
134765,note_on,120,0,2,,,,,,,,,1,,,,67,0
134768,control_change,8,0,6,,,,,,,,,10,11,55,,,
134771,control_change,8,0,1,,,,,,,,,0,11,55,,,
134771,note_on,8,0,9,,,,,,,,,13,,,,51,0
134771,control_change,16,0,7,,,,,,,,,11,11,55,,,
134773,note_on,8,0,10,,,,,,,,,14,,,,39,0
134774,control_change,16,0,8,,,,,,,,,12,11,55,,,
134779,control_change,8,0,9,,,,,,,,,13,11,55,,,
134781,control_change,8,0,10,,,,,,,,,14,11,55,,,
134784,control_change,16,0,6,,,,,,,,,10,11,56,,,
134787,control_change,16,0,7,,,,,,,,,11,11,56,,,
134787,control_change,16,0,1,,,,,,,,,0,11,56,,,
134790,control_change,16,0,8,,,,,,,,,12,11,56,,,
134790,note_on,6,0,6,,,,,,,,,10,,,,79,0
134793,note_on,6,0,1,,,,,,,,,0,,,,79,0
134795,control_change,16,0,9,,,,,,,,,13,11,56,,,
134797,control_change,16,0,10,,,,,,,,,14,11,56,,,
134800,control_change,10,0,6,,,,,,,,,10,11,57,,,
134803,control_change,10,0,1,,,,,,,,,0,11,57,,,
134803,control_change,16,0,7,,,,,,,,,11,11,57,,,
134806,control_change,16,0,8,,,,,,,,,12,11,57,,,
134811,control_change,16,0,9,,,,,,,,,13,11,57,,,
134813,control_change,16,0,10,,,,,,,,,14,11,57,,,
134816,control_change,16,0,6,,,,,,,,,10,11,58,,,
134819,control_change,16,0,1,,,,,,,,,0,11,58,,,
134819,control_change,16,0,7,,,,,,,,,11,11,58,,,
134820,note_on,4,0,6,,,,,,,,,10,,,,79,100
134822,control_change,16,0,8,,,,,,,,,12,11,58,,,
134823,note_on,4,0,1,,,,,,,,,0,,,,79,82
134827,control_change,16,0,9,,,,,,,,,13,11,58,,,
134829,control_change,16,0,10,,,,,,,,,14,11,58,,,
134832,control_change,12,0,6,,,,,,,,,10,11,59,,,
134835,control_change,16,0,7,,,,,,,,,11,11,59,,,
134835,control_change,12,0,1,,,,,,,,,0,11,59,,,
134838,control_change,16,0,8,,,,,,,,,12,11,59,,,
134843,control_change,16,0,9,,,,,,,,,13,11,59,,,
134845,control_change,16,0,10,,,,,,,,,14,11,59,,,
134848,control_change,16,0,6,,,,,,,,,10,11,60,,,
134850,note_on,2,0,6,,,,,,,,,10,,,,79,0
134851,control_change,16,0,7,,,,,,,,,11,11,60,,,
134851,control_change,16,0,1,,,,,,,,,0,11,60,,,
134853,note_on,2,0,1,,,,,,,,,0,,,,79,0
134854,control_change,16,0,8,,,,,,,,,12,11,60,,,
134859,control_change,16,0,9,,,,,,,,,13,11,60,,,
134861,control_change,16,0,10,,,,,,,,,14,11,60,,,
134864,control_change,14,0,6,,,,,,,,,10,11,61,,,
134867,control_change,16,0,7,,,,,,,,,11,11,61,,,
134867,control_change,14,0,1,,,,,,,,,0,11,61,,,
134870,control_change,16,0,8,,,,,,,,,12,11,61,,,
134875,control_change,16,0,9,,,,,,,,,13,11,61,,,
134877,control_change,16,0,10,,,,,,,,,14,11,61,,,
134880,set_tempo,120,1,0,,,,,,389610,,,,,,,,
134880,note_on,0,0,6,,,,,,,,,10,,,,79,100
134880,control_change,16,0,6,,,,,,,,,10,11,62,,,
134881,note_on,11,0,8,,,,,,,,,12,,,,63,0
134883,control_change,16,0,1,,,,,,,,,0,11,62,,,
134883,control_change,16,0,7,,,,,,,,,11,11,62,,,
134883,note_on,0,0,1,,,,,,,,,0,,,,79,82
134886,note_on,0,0,8,,,,,,,,,12,,,,62,98
134886,control_change,5,0,8,,,,,,,,,12,11,62,,,
134891,control_change,16,0,9,,,,,,,,,13,11,62,,,
134891,note_on,0,0,9,,,,,,,,,13,,,,50,89
134892,note_on,0,0,3,,,,,,,,,3,,,,50,81
134892,note_on,240,0,3,,,,,,,,,3,,,,51,0
134893,control_change,16,0,10,,,,,,,,,14,11,62,,,
134893,note_on,0,0,10,,,,,,,,,14,,,,38,73
134912,control_change,32,0,6,,,,,,,,,10,11,61,,,
134915,control_change,32,0,1,,,,,,,,,0,11,61,,,
134915,control_change,32,0,7,,,,,,,,,11,11,61,,,
134918,control_change,32,0,8,,,,,,,,,12,11,61,,,
134923,control_change,32,0,9,,,,,,,,,13,11,61,,,
134925,control_change,32,0,10,,,,,,,,,14,11,61,,,
134940,note_on,28,0,6,,,,,,,,,10,,,,79,0
134940,note_on,0,0,6,,,,,,,,,10,,,,77,100
134943,note_on,28,0,1,,,,,,,,,0,,,,79,0
134943,note_on,0,0,1,,,,,,,,,0,,,,77,82
134944,control_change,4,0,6,,,,,,,,,10,11,60,,,
134945,note_on,0,0,2,,,,,,,,,1,,,,77,81
134945,note_on,180,0,2,,,,,,,,,1,,,,79,0
134947,control_change,32,0,7,,,,,,,,,11,11,60,,,
134947,control_change,4,0,1,,,,,,,,,0,11,60,,,
134950,control_change,32,0,8,,,,,,,,,12,11,60,,,
134955,control_change,32,0,9,,,,,,,,,13,11,60,,,
134957,control_change,32,0,10,,,,,,,,,14,11,60,,,
134976,control_change,32,0,6,,,,,,,,,10,11,59,,,
134979,control_change,32,0,1,,,,,,,,,0,11,59,,,
134979,control_change,32,0,7,,,,,,,,,11,11,59,,,
134982,control_change,32,0,8,,,,,,,,,12,11,59,,,
134987,control_change,32,0,9,,,,,,,,,13,11,59,,,
134989,control_change,32,0,10,,,,,,,,,14,11,59,,,
134995,note_on,19,0,6,,,,,,,,,10,,,,77,0
134998,note_on,19,0,1,,,,,,,,,0,,,,77,0
135000,note_on,5,0,6,,,,,,,,,10,,,,75,100
135000,set_tempo,120,1,0,,,,,,372671,,,,,,,,
135003,note_on,5,0,1,,,,,,,,,0,,,,75,82
135005,note_on,0,0,2,,,,,,,,,1,,,,75,81
135005,note_on,60,0,2,,,,,,,,,1,,,,77,0
135006,note_on,24,0,8,,,,,,,,,12,,,,62,0
135006,note_on,0,0,8,,,,,,,,,12,,,,58,98
135006,note_on,19,0,9,,,,,,,,,13,,,,50,0
135008,control_change,8,0,6,,,,,,,,,10,11,58,,,
135008,note_on,19,0,10,,,,,,,,,14,,,,38,0
135011,control_change,32,0,7,,,,,,,,,11,11,58,,,
135011,note_on,5,0,9,,,,,,,,,13,,,,46,89
135011,control_change,8,0,1,,,,,,,,,0,11,58,,,
135012,note_on,120,0,3,,,,,,,,,3,,,,50,0
135012,note_on,0,0,3,,,,,,,,,3,,,,46,81
135013,note_on,5,0,10,,,,,,,,,14,,,,34,73
135014,control_change,8,0,8,,,,,,,,,12,11,58,,,
135019,control_change,8,0,9,,,,,,,,,13,11,58,,,
135021,control_change,8,0,10,,,,,,,,,14,11,58,,,
135030,note_on,22,0,6,,,,,,,,,10,,,,75,0
135033,note_on,22,0,1,,,,,,,,,0,,,,75,0
135035,note_on,30,0,2,,,,,,,,,1,,,,75,0
135040,control_change,10,0,6,,,,,,,,,10,11,57,,,
135043,control_change,10,0,1,,,,,,,,,0,11,57,,,
135043,control_change,32,0,7,,,,,,,,,11,11,57,,,
135046,control_change,32,0,8,,,,,,,,,12,11,57,,,
135051,control_change,32,0,9,,,,,,,,,13,11,57,,,
135053,control_change,32,0,10,,,,,,,,,14,11,57,,,
135060,note_on,20,0,6,,,,,,,,,10,,,,74,100
135063,note_on,20,0,1,,,,,,,,,0,,,,74,82
135065,note_on,30,0,2,,,,,,,,,1,,,,74,81
135072,control_change,12,0,6,,,,,,,,,10,11,56,,,
135075,control_change,12,0,1,,,,,,,,,0,11,56,,,
135075,control_change,32,0,7,,,,,,,,,11,11,56,,,
135078,control_change,32,0,8,,,,,,,,,12,11,56,,,
135083,control_change,32,0,9,,,,,,,,,13,11,56,,,
135085,control_change,32,0,10,,,,,,,,,14,11,56,,,
135090,note_on,18,0,6,,,,,,,,,10,,,,74,0
135093,note_on,18,0,1,,,,,,,,,0,,,,74,0
135095,note_on,30,0,2,,,,,,,,,1,,,,74,0
135104,control_change,14,0,6,,,,,,,,,10,11,55,,,
135107,control_change,32,0,7,,,,,,,,,11,11,55,,,
135107,control_change,14,0,1,,,,,,,,,0,11,55,,,
135110,control_change,32,0,8,,,,,,,,,12,11,55,,,
135115,control_change,32,0,9,,,,,,,,,13,11,55,,,
135117,control_change,32,0,10,,,,,,,,,14,11,55,,,
135118,note_on,11,0,7,,,,,,,,,11,,,,70,0
135120,set_tempo,120,1,0,,,,,,401338,,,,,,,,
135120,note_on,16,0,6,,,,,,,,,10,,,,74,100
135121,note_on,11,0,8,,,,,,,,,12,,,,58,0
135123,note_on,5,0,7,,,,,,,,,11,,,,67,100
135123,note_on,16,0,1,,,,,,,,,0,,,,74,82
135125,note_on,0,0,2,,,,,,,,,1,,,,74,81
135125,note_on,30,0,2,,,,,,,,,1,,,,70,0
135126,note_on,11,0,9,,,,,,,,,13,,,,46,0
135126,note_on,5,0,8,,,,,,,,,12,,,,51,98
135128,note_on,11,0,10,,,,,,,,,14,,,,34,0
135131,note_on,5,0,9,,,,,,,,,13,,,,51,89
135132,note_on,0,0,3,,,,,,,,,3,,,,51,81
135132,note_on,120,0,3,,,,,,,,,3,,,,46,0
135133,note_on,5,0,10,,,,,,,,,14,,,,39,73
135136,control_change,16,0,6,,,,,,,,,10,11,54,,,
135139,control_change,16,0,7,,,,,,,,,11,11,54,,,
135139,control_change,16,0,1,,,,,,,,,0,11,54,,,
135142,control_change,16,0,8,,,,,,,,,12,11,54,,,
135147,control_change,16,0,9,,,,,,,,,13,11,54,,,
135149,control_change,16,0,10,,,,,,,,,14,11,54,,,
135168,control_change,32,0,6,,,,,,,,,10,11,53,,,
135171,control_change,32,0,7,,,,,,,,,11,11,53,,,
135171,control_change,32,0,1,,,,,,,,,0,11,53,,,
135174,control_change,32,0,8,,,,,,,,,12,11,53,,,
135179,control_change,32,0,9,,,,,,,,,13,11,53,,,
135180,note_on,12,0,6,,,,,,,,,10,,,,74,0
135180,note_on,0,0,6,,,,,,,,,10,,,,72,100
135181,control_change,32,0,10,,,,,,,,,14,11,53,,,
135183,note_on,0,0,1,,,,,,,,,0,,,,72,82
135183,note_on,12,0,1,,,,,,,,,0,,,,74,0
135185,note_on,60,0,2,,,,,,,,,1,,,,74,0
135185,note_on,0,0,2,,,,,,,,,1,,,,72,81
135200,control_change,20,0,6,,,,,,,,,10,11,52,,,
135203,control_change,20,0,1,,,,,,,,,0,11,52,,,
135203,control_change,32,0,7,,,,,,,,,11,11,52,,,
135206,control_change,32,0,8,,,,,,,,,12,11,52,,,
135211,control_change,32,0,9,,,,,,,,,13,11,52,,,
135213,control_change,32,0,10,,,,,,,,,14,11,52,,,
135232,control_change,32,0,6,,,,,,,,,10,11,51,,,
135235,control_change,32,0,7,,,,,,,,,11,11,51,,,
135235,control_change,32,0,1,,,,,,,,,0,11,51,,,
135235,note_on,3,0,6,,,,,,,,,10,,,,72,0
135238,note_on,3,0,1,,,,,,,,,0,,,,72,0
135238,control_change,32,0,8,,,,,,,,,12,11,51,,,
135240,set_tempo,120,1,0,,,,,,382166,,,,,,,,
135240,note_on,5,0,6,,,,,,,,,10,,,,70,100
135241,note_on,3,0,8,,,,,,,,,12,,,,51,0
135243,control_change,32,0,9,,,,,,,,,13,11,51,,,
135243,note_on,0,0,7,,,,,,,,,11,,,,63,100
135243,note_on,5,0,1,,,,,,,,,0,,,,70,82
135243,note_on,8,0,7,,,,,,,,,11,,,,67,0
135245,control_change,32,0,10,,,,,,,,,14,11,51,,,
135245,note_on,60,0,2,,,,,,,,,1,,,,72,0
135245,note_on,0,0,2,,,,,,,,,1,,,,70,81
135246,note_on,3,0,9,,,,,,,,,13,,,,51,0
135246,note_on,5,0,8,,,,,,,,,12,,,,53,98
135248,note_on,3,0,10,,,,,,,,,14,,,,39,0
135251,note_on,5,0,9,,,,,,,,,13,,,,53,89
135252,note_on,0,0,3,,,,,,,,,3,,,,53,81
135252,note_on,120,0,3,,,,,,,,,3,,,,51,0
135253,note_on,5,0,10,,,,,,,,,14,,,,41,73
135264,control_change,24,0,6,,,,,,,,,10,11,50,,,
135267,control_change,24,0,7,,,,,,,,,11,11,50,,,
135267,control_change,24,0,1,,,,,,,,,0,11,50,,,
135270,control_change,24,0,8,,,,,,,,,12,11,50,,,
135270,note_on,6,0,6,,,,,,,,,10,,,,70,0
135273,note_on,6,0,1,,,,,,,,,0,,,,70,0
135275,note_on,30,0,2,,,,,,,,,1,,,,70,0
135275,control_change,24,0,9,,,,,,,,,13,11,50,,,
135277,control_change,24,0,10,,,,,,,,,14,11,50,,,
135296,control_change,26,0,6,,,,,,,,,10,11,49,,,
135299,control_change,26,0,1,,,,,,,,,0,11,49,,,
135299,control_change,32,0,7,,,,,,,,,11,11,49,,,
135300,note_on,4,0,6,,,,,,,,,10,,,,69,100
135302,control_change,32,0,8,,,,,,,,,12,11,49,,,
135303,note_on,4,0,1,,,,,,,,,0,,,,69,82
135305,note_on,30,0,2,,,,,,,,,1,,,,69,81
135307,control_change,32,0,9,,,,,,,,,13,11,49,,,
135309,control_change,32,0,10,,,,,,,,,14,11,49,,,
135328,control_change,28,0,6,,,,,,,,,10,11,48,,,
135330,note_on,2,0,6,,,,,,,,,10,,,,69,0
135331,control_change,32,0,7,,,,,,,,,11,11,48,,,
135331,control_change,28,0,1,,,,,,,,,0,11,48,,,
135333,note_on,2,0,1,,,,,,,,,0,,,,69,0
135334,control_change,32,0,8,,,,,,,,,12,11,48,,,
135335,note_on,30,0,2,,,,,,,,,1,,,,69,0
135339,control_change,32,0,9,,,,,,,,,13,11,48,,,
135341,control_change,32,0,10,,,,,,,,,14,11,48,,,
135358,note_on,27,0,7,,,,,,,,,11,,,,63,0
135360,set_tempo,120,1,0,,,,,,431655,,,,,,,,
135360,note_on,0,0,6,,,,,,,,,10,,,,70,100
135360,control_change,30,0,6,,,,,,,,,10,11,47,,,
135361,note_on,27,0,8,,,,,,,,,12,,,,53,0
135363,note_on,0,0,1,,,,,,,,,0,,,,70,82
135363,control_change,5,0,7,,,,,,,,,11,11,47,,,
135363,note_on,0,0,7,,,,,,,,,11,,,,62,100
135363,control_change,30,0,1,,,,,,,,,0,11,47,,,
135365,note_on,0,0,2,,,,,,,,,1,,,,62,81
135365,note_on,30,0,2,,,,,,,,,1,,,,70,81
135366,note_on,0,0,8,,,,,,,,,12,,,,58,98
135366,note_on,27,0,9,,,,,,,,,13,,,,53,0
135366,control_change,5,0,8,,,,,,,,,12,11,47,,,
135368,note_on,27,0,10,,,,,,,,,14,,,,41,0
135371,control_change,5,0,9,,,,,,,,,13,11,47,,,
135371,note_on,0,0,9,,,,,,,,,13,,,,46,89
135372,note_on,0,0,3,,,,,,,,,3,,,,46,81
135372,note_on,120,0,3,,,,,,,,,3,,,,53,0
135373,control_change,5,0,10,,,,,,,,,14,11,47,,,
135373,note_on,0,0,10,,,,,,,,,14,,,,34,73
135424,note_on,1620,0,4,,,,,,,,,4,,,,58,86
135426,note_on,1620,0,5,,,,,,,,,5,,,,46,86
135480,set_tempo,120,1,0,,,,,,372671,,,,,,,,
135480,note_on,120,0,6,,,,,,,,,10,,,,70,0
135483,note_on,120,0,1,,,,,,,,,0,,,,70,0
135483,note_on,120,0,7,,,,,,,,,11,,,,62,0
135484,note_on,60,0,4,,,,,,,,,4,,,,58,0
135484,note_on,0,0,4,,,,,,,,,4,,,,58,86
135485,note_on,120,0,2,,,,,,,,,1,,,,62,0
135485,note_on,0,0,2,,,,,,,,,1,,,,70,0
135486,note_on,0,0,5,,,,,,,,,5,,,,46,86
135486,note_on,120,0,8,,,,,,,,,12,,,,58,0
135486,note_on,60,0,5,,,,,,,,,5,,,,46,0
135491,note_on,120,0,9,,,,,,,,,13,,,,46,0
135492,note_on,120,0,3,,,,,,,,,3,,,,46,0
135493,note_on,120,0,10,,,,,,,,,14,,,,34,0
135544,note_on,60,0,4,,,,,,,,,4,,,,58,0
135544,note_on,0,0,4,,,,,,,,,4,,,,58,86
135546,note_on,0,0,5,,,,,,,,,5,,,,46,86
135546,note_on,60,0,5,,,,,,,,,5,,,,46,0
135600,set_tempo,120,1,0,,,,,,389610,,,,,,,,
135603,note_on,120,0,1,,,,,,,,,0,,,,82,95
135604,note_on,0,0,4,,,,,,,,,4,,,,58,99
135604,note_on,60,0,4,,,,,,,,,4,,,,58,0
135605,note_on,0,0,2,,,,,,,,,1,,,,70,94
135605,note_on,120,0,2,,,,,,,,,1,,,,78,94
135606,note_on,0,0,5,,,,,,,,,5,,,,46,99
135606,note_on,60,0,5,,,,,,,,,5,,,,46,0
135606,note_on,0,0,8,,,,,,,,,12,,,,51,98
135606,control_change,120,0,8,,,,,,,,,12,11,42,,,
135611,note_on,0,0,9,,,,,,,,,13,,,,51,89
135611,control_change,120,0,9,,,,,,,,,13,11,42,,,
135612,note_on,120,0,3,,,,,,,,,3,,,,66,94
135613,note_on,0,0,10,,,,,,,,,14,,,,39,73
135613,control_change,120,0,10,,,,,,,,,14,11,42,,,
135720,control_change,240,0,6,,,,,,,,,10,11,42,,,
135720,set_tempo,120,1,0,,,,,,372671,,,,,,,,
135720,note_on,0,0,6,,,,,,,,,10,,,,63,100
135723,note_on,0,0,7,,,,,,,,,11,,,,63,100
135723,control_change,240,0,7,,,,,,,,,11,11,42,,,
135726,note_on,120,0,8,,,,,,,,,12,,,,51,0
135731,note_on,120,0,9,,,,,,,,,13,,,,51,0
135733,note_on,120,0,10,,,,,,,,,14,,,,39,0
135840,note_on,120,0,6,,,,,,,,,10,,,,63,0
135840,set_tempo,120,1,0,,,,,,389610,,,,,,,,
135843,note_on,120,0,7,,,,,,,,,11,,,,63,0
135846,note_on,120,0,8,,,,,,,,,12,,,,54,98
135851,note_on,120,0,9,,,,,,,,,13,,,,54,89
135853,note_on,120,0,10,,,,,,,,,14,,,,42,73
135960,set_tempo,120,1,0,,,,,,372671,,,,,,,,
135960,note_on,120,0,6,,,,,,,,,10,,,,66,100
135963,note_on,0,0,1,,,,,,,,,0,,,,80,82
135963,note_on,120,0,7,,,,,,,,,11,,,,66,100
135963,note_on,360,0,1,,,,,,,,,0,,,,82,0
135965,note_on,0,0,2,,,,,,,,,1,,,,68,81
135965,note_on,360,0,2,,,,,,,,,1,,,,70,0
135965,note_on,0,0,2,,,,,,,,,1,,,,77,81
135965,note_on,0,0,2,,,,,,,,,1,,,,78,0
135966,note_on,120,0,8,,,,,,,,,12,,,,54,0
135971,note_on,120,0,9,,,,,,,,,13,,,,54,0
135972,note_on,0,0,3,,,,,,,,,3,,,,65,81
135972,note_on,360,0,3,,,,,,,,,3,,,,66,0
135973,note_on,120,0,10,,,,,,,,,14,,,,42,0
136023,note_on,0,0,1,,,,,,,,,0,,,,78,82
136023,note_on,60,0,1,,,,,,,,,0,,,,80,0
136025,note_on,0,0,2,,,,,,,,,1,,,,68,0
136025,note_on,0,0,2,,,,,,,,,1,,,,75,81
136025,note_on,0,0,2,,,,,,,,,1,,,,66,81
136025,note_on,60,0,2,,,,,,,,,1,,,,77,0
136032,note_on,0,0,3,,,,,,,,,3,,,,63,81
136032,note_on,60,0,3,,,,,,,,,3,,,,65,0
136080,set_tempo,120,1,0,,,,,,389610,,,,,,,,
136080,note_on,120,0,6,,,,,,,,,10,,,,66,0
136083,note_on,120,0,7,,,,,,,,,11,,,,66,0
136083,note_on,60,0,1,,,,,,,,,0,,,,78,0
136083,note_on,0,0,1,,,,,,,,,0,,,,77,82
136085,note_on,0,0,2,,,,,,,,,1,,,,74,81
136085,note_on,0,0,2,,,,,,,,,1,,,,65,81
136085,note_on,0,0,2,,,,,,,,,1,,,,75,0
136085,note_on,60,0,2,,,,,,,,,1,,,,66,0
136086,note_on,120,0,8,,,,,,,,,12,,,,58,98
136091,note_on,120,0,9,,,,,,,,,13,,,,58,89
136092,note_on,0,0,3,,,,,,,,,3,,,,62,81
136092,note_on,60,0,3,,,,,,,,,3,,,,63,0
136093,note_on,120,0,10,,,,,,,,,14,,,,46,73
136200,set_tempo,120,1,0,,,,,,372671,,,,,,,,
136200,note_on,120,0,6,,,,,,,,,10,,,,70,100
136203,note_on,120,0,1,,,,,,,,,0,,,,77,0
136203,note_on,0,0,1,,,,,,,,,0,,,,80,95
136203,note_on,120,0,7,,,,,,,,,11,,,,70,100
136205,note_on,0,0,2,,,,,,,,,1,,,,65,0
136205,note_on,0,0,2,,,,,,,,,1,,,,77,94
136205,note_on,0,0,2,,,,,,,,,1,,,,68,94
136205,note_on,120,0,2,,,,,,,,,1,,,,74,0
136206,note_on,120,0,8,,,,,,,,,12,,,,58,0
136211,note_on,120,0,9,,,,,,,,,13,,,,58,0
136212,note_on,0,0,3,,,,,,,,,3,,,,65,94
136212,note_on,120,0,3,,,,,,,,,3,,,,62,0
136213,note_on,120,0,10,,,,,,,,,14,,,,46,0
136315,note_on,115,0,6,,,,,,,,,10,,,,70,0
136318,note_on,115,0,7,,,,,,,,,11,,,,70,0
136320,set_tempo,120,1,0,,,,,,389610,,,,,,,,
136320,note_on,5,0,6,,,,,,,,,10,,,,63,100
136323,note_on,5,0,7,,,,,,,,,11,,,,63,100
136326,note_on,120,0,8,,,,,,,,,12,,,,51,98
136331,note_on,120,0,9,,,,,,,,,13,,,,51,89
136333,note_on,120,0,10,,,,,,,,,14,,,,39,73
136383,note_on,180,0,1,,,,,,,,,0,,,,80,0
136383,note_on,0,0,1,,,,,,,,,0,,,,78,82
136385,note_on,180,0,2,,,,,,,,,1,,,,68,0
136385,note_on,0,0,2,,,,,,,,,1,,,,77,0
136385,note_on,0,0,2,,,,,,,,,1,,,,75,81
136385,note_on,0,0,2,,,,,,,,,1,,,,66,81
136392,note_on,180,0,3,,,,,,,,,3,,,,65,0
136392,note_on,0,0,3,,,,,,,,,3,,,,63,81
136440,note_on,0,0,6,,,,,,,,,10,,,,65,100
136440,note_on,120,0,6,,,,,,,,,10,,,,63,0
136440,set_tempo,120,1,0,,,,,,372671,,,,,,,,
136443,note_on,120,0,7,,,,,,,,,11,,,,63,0
136443,note_on,0,0,7,,,,,,,,,11,,,,65,100
136443,note_on,0,0,1,,,,,,,,,0,,,,77,82
136443,note_on,60,0,1,,,,,,,,,0,,,,78,0
136445,note_on,60,0,2,,,,,,,,,1,,,,66,0
136445,note_on,0,0,2,,,,,,,,,1,,,,75,0
136445,note_on,0,0,2,,,,,,,,,1,,,,65,81
136445,note_on,0,0,2,,,,,,,,,1,,,,73,81
136446,note_on,0,0,8,,,,,,,,,12,,,,53,98
136446,note_on,120,0,8,,,,,,,,,12,,,,51,0
136451,note_on,0,0,9,,,,,,,,,13,,,,53,89
136451,note_on,120,0,9,,,,,,,,,13,,,,51,0
136452,note_on,60,0,3,,,,,,,,,3,,,,63,0
136452,note_on,0,0,3,,,,,,,,,3,,,,61,81
136453,note_on,0,0,10,,,,,,,,,14,,,,41,73
136453,note_on,120,0,10,,,,,,,,,14,,,,39,0
136500,note_on,60,0,6,,,,,,,,,10,,,,65,0
136500,note_on,0,0,6,,,,,,,,,10,,,,66,100
136503,note_on,0,0,7,,,,,,,,,11,,,,66,100
136503,note_on,60,0,7,,,,,,,,,11,,,,65,0
136503,note_on,60,0,1,,,,,,,,,0,,,,77,0
136503,note_on,0,0,1,,,,,,,,,0,,,,75,82
136505,note_on,0,0,2,,,,,,,,,1,,,,72,81
136505,note_on,0,0,2,,,,,,,,,1,,,,63,81
136505,note_on,0,0,2,,,,,,,,,1,,,,65,0
136505,note_on,60,0,2,,,,,,,,,1,,,,73,0
136506,note_on,0,0,8,,,,,,,,,12,,,,54,98
136506,note_on,60,0,8,,,,,,,,,12,,,,53,0
136511,note_on,0,0,9,,,,,,,,,13,,,,54,89
136511,note_on,60,0,9,,,,,,,,,13,,,,53,0
136512,note_on,0,0,3,,,,,,,,,3,,,,60,81
136512,note_on,60,0,3,,,,,,,,,3,,,,61,0
136513,note_on,60,0,10,,,,,,,,,14,,,,41,0
136513,note_on,0,0,10,,,,,,,,,14,,,,42,73
136555,note_on,55,0,6,,,,,,,,,10,,,,66,0
136558,note_on,55,0,7,,,,,,,,,11,,,,66,0
136560,note_on,5,0,6,,,,,,,,,10,,,,65,100
136560,set_tempo,120,1,0,,,,,,389610,,,,,,,,
136561,note_on,55,0,8,,,,,,,,,12,,,,54,0
136563,note_on,60,0,1,,,,,,,,,0,,,,75,0
136563,note_on,0,0,1,,,,,,,,,0,,,,73,82
136563,note_on,5,0,7,,,,,,,,,11,,,,65,100
136564,note_on,0,0,4,,,,,,,,,4,,,,53,86
136564,note_on,960,0,4,,,,,,,,,4,,,,58,0
136565,note_on,60,0,2,,,,,,,,,1,,,,63,0
136565,note_on,0,0,2,,,,,,,,,1,,,,72,0
136565,note_on,0,0,2,,,,,,,,,1,,,,70,81
136565,note_on,0,0,2,,,,,,,,,1,,,,61,81
136566,note_on,0,0,5,,,,,,,,,5,,,,41,86
136566,note_on,5,0,8,,,,,,,,,12,,,,53,98
136566,note_on,960,0,5,,,,,,,,,5,,,,46,0
136566,note_on,55,0,9,,,,,,,,,13,,,,54,0
136568,note_on,55,0,10,,,,,,,,,14,,,,42,0
136571,note_on,5,0,9,,,,,,,,,13,,,,53,89
136572,note_on,60,0,3,,,,,,,,,3,,,,60,0
136572,note_on,0,0,3,,,,,,,,,3,,,,58,81
136572,note_on,0,0,3,,,,,,,,,3,,,,53,81
136573,note_on,5,0,10,,,,,,,,,14,,,,41,73
136675,note_on,115,0,6,,,,,,,,,10,,,,65,0
136678,note_on,115,0,7,,,,,,,,,11,,,,65,0
136680,set_tempo,120,1,0,,,,,,372671,,,,,,,,
136680,note_on,5,0,6,,,,,,,,,10,,,,78,100
136683,note_on,5,0,7,,,,,,,,,11,,,,66,100
136686,note_on,120,0,8,,,,,,,,,12,,,,53,0
136691,note_on,120,0,9,,,,,,,,,13,,,,53,0
136693,note_on,120,0,10,,,,,,,,,14,,,,41,0
136710,note_on,0,0,6,,,,,,,,,10,,,,77,100
136710,note_on,30,0,6,,,,,,,,,10,,,,78,0
136713,note_on,30,0,7,,,,,,,,,11,,,,66,0
136713,note_on,0,0,7,,,,,,,,,11,,,,65,100
136740,note_on,30,0,6,,,,,,,,,10,,,,77,0
136740,note_on,0,0,6,,,,,,,,,10,,,,76,100
136743,note_on,0,0,7,,,,,,,,,11,,,,64,100
136743,note_on,30,0,7,,,,,,,,,11,,,,65,0
136795,note_on,55,0,6,,,,,,,,,10,,,,76,0
136798,note_on,55,0,7,,,,,,,,,11,,,,64,0
136800,note_on,5,0,6,,,,,,,,,10,,,,77,100
136800,set_tempo,120,1,0,,,,,,389610,,,,,,,,
136803,note_on,0,0,1,,,,,,,,,0,,,,72,82
136803,note_on,240,0,1,,,,,,,,,0,,,,73,0
136803,note_on,5,0,7,,,,,,,,,11,,,,65,100
136805,note_on,0,0,2,,,,,,,,,1,,,,65,81
136805,note_on,0,0,2,,,,,,,,,1,,,,69,81
136805,note_on,0,0,2,,,,,,,,,1,,,,70,0
136805,note_on,240,0,2,,,,,,,,,1,,,,61,0
136806,note_on,120,0,8,,,,,,,,,12,,,,53,98
136811,note_on,120,0,9,,,,,,,,,13,,,,41,89
136812,note_on,0,0,3,,,,,,,,,3,,,,58,0
136812,note_on,240,0,3,,,,,,,,,3,,,,53,0
136812,note_on,0,0,3,,,,,,,,,3,,,,57,81
136812,note_on,0,0,3,,,,,,,,,3,,,,60,81
136813,note_on,120,0,10,,,,,,,,,14,,,,29,73
136860,note_on,60,0,6,,,,,,,,,10,,,,77,0
136860,note_on,0,0,6,,,,,,,,,10,,,,78,100
136863,note_on,60,0,7,,,,,,,,,11,,,,65,0
136863,note_on,0,0,7,,,,,,,,,11,,,,66,100
136915,note_on,55,0,6,,,,,,,,,10,,,,78,0
136918,note_on,55,0,7,,,,,,,,,11,,,,66,0
136920,note_on,5,0,6,,,,,,,,,10,,,,77,100
136920,set_tempo,120,1,0,,,,,,372671,,,,,,,,
136923,note_on,5,0,7,,,,,,,,,11,,,,65,100
136926,note_on,120,0,8,,,,,,,,,12,,,,53,0
136931,note_on,120,0,9,,,,,,,,,13,,,,41,0
136933,note_on,120,0,10,,,,,,,,,14,,,,29,0
136950,note_on,30,0,6,,,,,,,,,10,,,,77,0
136953,note_on,30,0,7,,,,,,,,,11,,,,65,0
136980,note_on,30,0,6,,,,,,,,,10,,,,77,100
136983,note_on,30,0,7,,,,,,,,,11,,,,65,100
137010,note_on,30,0,6,,,,,,,,,10,,,,77,0
137013,note_on,30,0,7,,,,,,,,,11,,,,65,0
137040,set_tempo,120,1,0,,,,,,389610,,,,,,,,
137040,note_on,30,0,6,,,,,,,,,10,,,,70,100
137043,note_on,240,0,1,,,,,,,,,0,,,,72,0
137043,note_on,0,0,1,,,,,,,,,0,,,,70,82
137043,note_on,30,0,7,,,,,,,,,11,,,,58,100
137044,note_on,480,0,4,,,,,,,,,4,,,,53,0
137044,note_on,0,0,4,,,,,,,,,4,,,,46,86
137045,note_on,240,0,2,,,,,,,,,1,,,,69,0
137045,note_on,0,0,2,,,,,,,,,1,,,,70,81
137045,note_on,0,0,2,,,,,,,,,1,,,,65,0
137045,note_on,0,0,2,,,,,,,,,1,,,,61,81
137046,note_on,120,0,8,,,,,,,,,12,,,,58,98
137046,note_on,480,0,5,,,,,,,,,5,,,,41,0
137046,note_on,0,0,5,,,,,,,,,5,,,,46,86
137051,note_on,120,0,9,,,,,,,,,13,,,,46,89
137052,note_on,0,0,3,,,,,,,,,3,,,,58,81
137052,note_on,0,0,3,,,,,,,,,3,,,,60,0
137052,note_on,240,0,3,,,,,,,,,3,,,,57,0
137053,note_on,120,0,10,,,,,,,,,14,,,,34,73
137150,note_on,110,0,6,,,,,,,,,10,,,,70,0
137153,note_on,110,0,7,,,,,,,,,11,,,,58,0
137156,note_on,110,0,8,,,,,,,,,12,,,,58,0
137160,note_on,10,0,6,,,,,,,,,10,,,,70,100
137160,set_tempo,120,1,0,,,,,,372671,,,,,,,,
137161,note_on,110,0,9,,,,,,,,,13,,,,46,0
137163,note_on,10,0,7,,,,,,,,,11,,,,58,100
137163,note_on,110,0,10,,,,,,,,,14,,,,34,0
137163,note_on,120,0,1,,,,,,,,,0,,,,70,0
137164,note_on,120,0,4,,,,,,,,,4,,,,46,0
137165,note_on,120,0,2,,,,,,,,,1,,,,70,0
137165,note_on,0,0,2,,,,,,,,,1,,,,61,0
137166,note_on,120,0,5,,,,,,,,,5,,,,46,0
137166,note_on,10,0,8,,,,,,,,,12,,,,58,98
137171,note_on,10,0,9,,,,,,,,,13,,,,46,89
137172,note_on,120,0,3,,,,,,,,,3,,,,58,0
137173,note_on,10,0,10,,,,,,,,,14,,,,34,73
137210,note_on,50,0,6,,,,,,,,,10,,,,70,0
137213,note_on,50,0,7,,,,,,,,,11,,,,58,0
137216,note_on,50,0,8,,,,,,,,,12,,,,58,0
137220,note_on,10,0,6,,,,,,,,,10,,,,70,100
137221,note_on,50,0,9,,,,,,,,,13,,,,46,0
137223,note_on,50,0,10,,,,,,,,,14,,,,34,0
137223,note_on,10,0,7,,,,,,,,,11,,,,58,100
137226,note_on,10,0,8,,,,,,,,,12,,,,58,98
137231,note_on,10,0,9,,,,,,,,,13,,,,46,89
137233,note_on,10,0,10,,,,,,,,,14,,,,34,73
137270,note_on,50,0,6,,,,,,,,,10,,,,70,0
137273,note_on,50,0,7,,,,,,,,,11,,,,58,0
137276,note_on,50,0,8,,,,,,,,,12,,,,58,0
137280,set_tempo,120,1,0,,,,,,389610,,,,,,,,
137280,note_on,0,0,6,,,,,,,,,10,,,,69,100
137280,control_change,10,0,6,,,,,,,,,10,11,52,,,
137281,note_on,50,0,9,,,,,,,,,13,,,,46,0
137283,note_on,0,0,7,,,,,,,,,11,,,,57,100
137283,note_on,50,0,10,,,,,,,,,14,,,,34,0
137283,control_change,10,0,7,,,,,,,,,11,11,52,,,
137286,note_on,0,0,8,,,,,,,,,12,,,,57,98
137286,control_change,10,0,8,,,,,,,,,12,11,52,,,
137291,note_on,0,0,9,,,,,,,,,13,,,,45,89
137291,control_change,10,0,9,,,,,,,,,13,11,52,,,
137293,control_change,10,0,10,,,,,,,,,14,11,52,,,
137293,note_on,0,0,10,,,,,,,,,14,,,,33,73
137298,control_change,18,0,6,,,,,,,,,10,11,51,,,
137301,control_change,18,0,7,,,,,,,,,11,11,51,,,
137304,control_change,18,0,8,,,,,,,,,12,11,51,,,
137309,control_change,18,0,9,,,,,,,,,13,11,51,,,
137311,control_change,18,0,10,,,,,,,,,14,11,51,,,
137316,control_change,18,0,6,,,,,,,,,10,11,50,,,
137319,control_change,18,0,7,,,,,,,,,11,11,50,,,
137322,control_change,18,0,8,,,,,,,,,12,11,50,,,
137327,control_change,18,0,9,,,,,,,,,13,11,50,,,
137329,control_change,18,0,10,,,,,,,,,14,11,50,,,
137334,control_change,18,0,6,,,,,,,,,10,11,49,,,
137337,control_change,18,0,7,,,,,,,,,11,11,49,,,
137340,control_change,18,0,8,,,,,,,,,12,11,49,,,
137340,note_on,6,0,6,,,,,,,,,10,,,,69,0
137340,note_on,0,0,6,,,,,,,,,10,,,,70,100
137343,note_on,6,0,7,,,,,,,,,11,,,,57,0
137343,note_on,0,0,7,,,,,,,,,11,,,,58,100
137345,control_change,18,0,9,,,,,,,,,13,11,49,,,
137346,note_on,6,0,8,,,,,,,,,12,,,,57,0
137346,note_on,0,0,8,,,,,,,,,12,,,,58,98
137347,control_change,18,0,10,,,,,,,,,14,11,49,,,
137351,note_on,6,0,9,,,,,,,,,13,,,,45,0
137351,note_on,0,0,9,,,,,,,,,13,,,,46,89
137352,control_change,12,0,6,,,,,,,,,10,11,48,,,
137353,note_on,6,0,10,,,,,,,,,14,,,,33,0
137353,note_on,0,0,10,,,,,,,,,14,,,,34,73
137355,control_change,12,0,7,,,,,,,,,11,11,48,,,
137358,control_change,12,0,8,,,,,,,,,12,11,48,,,
137363,control_change,12,0,9,,,,,,,,,13,11,48,,,
137365,control_change,12,0,10,,,,,,,,,14,11,48,,,
137370,control_change,18,0,6,,,,,,,,,10,11,47,,,
137373,control_change,18,0,7,,,,,,,,,11,11,47,,,
137376,control_change,18,0,8,,,,,,,,,12,11,47,,,
137381,control_change,18,0,9,,,,,,,,,13,11,47,,,
137383,control_change,18,0,10,,,,,,,,,14,11,47,,,
137388,control_change,18,0,6,,,,,,,,,10,11,46,,,
137391,control_change,18,0,7,,,,,,,,,11,11,46,,,
137394,control_change,18,0,8,,,,,,,,,12,11,46,,,
137399,control_change,18,0,9,,,,,,,,,13,11,46,,,
137400,note_on,12,0,6,,,,,,,,,10,,,,70,0
137400,note_on,0,0,6,,,,,,,,,10,,,,69,100
137400,set_tempo,120,1,0,,,,,,372671,,,,,,,,
137401,control_change,18,0,10,,,,,,,,,14,11,46,,,
137403,note_on,0,0,7,,,,,,,,,11,,,,57,100
137403,note_on,12,0,7,,,,,,,,,11,,,,58,0
137406,note_on,12,0,8,,,,,,,,,12,,,,58,0
137406,control_change,6,0,6,,,,,,,,,10,11,45,,,
137406,note_on,0,0,8,,,,,,,,,12,,,,57,98
137409,control_change,6,0,7,,,,,,,,,11,11,45,,,
137411,note_on,0,0,9,,,,,,,,,13,,,,45,89
137411,note_on,12,0,9,,,,,,,,,13,,,,46,0
137412,control_change,6,0,8,,,,,,,,,12,11,45,,,
137413,note_on,12,0,10,,,,,,,,,14,,,,34,0
137413,note_on,0,0,10,,,,,,,,,14,,,,33,73
137417,control_change,6,0,9,,,,,,,,,13,11,45,,,
137419,control_change,6,0,10,,,,,,,,,14,11,45,,,
137424,control_change,18,0,6,,,,,,,,,10,11,44,,,
137427,control_change,18,0,7,,,,,,,,,11,11,44,,,
137430,control_change,18,0,8,,,,,,,,,12,11,44,,,
137435,control_change,18,0,9,,,,,,,,,13,11,44,,,
137437,control_change,18,0,10,,,,,,,,,14,11,44,,,
137442,control_change,18,0,6,,,,,,,,,10,11,43,,,
137445,control_change,18,0,7,,,,,,,,,11,11,43,,,
137448,control_change,18,0,8,,,,,,,,,12,11,43,,,
137453,control_change,18,0,9,,,,,,,,,13,11,43,,,
137455,control_change,18,0,10,,,,,,,,,14,11,43,,,
137460,note_on,18,0,6,,,,,,,,,10,,,,69,0
137460,control_change,0,0,6,,,,,,,,,10,11,42,,,
137460,note_on,0,0,6,,,,,,,,,10,,,,70,100
137463,control_change,0,0,7,,,,,,,,,11,11,42,,,
137463,note_on,18,0,7,,,,,,,,,11,,,,57,0
137463,note_on,0,0,7,,,,,,,,,11,,,,58,100
137466,note_on,0,0,8,,,,,,,,,12,,,,58,98
137466,control_change,0,0,8,,,,,,,,,12,11,42,,,
137466,note_on,18,0,8,,,,,,,,,12,,,,57,0
137471,note_on,0,0,9,,,,,,,,,13,,,,46,89
137471,control_change,0,0,9,,,,,,,,,13,11,42,,,
137471,note_on,18,0,9,,,,,,,,,13,,,,45,0
137473,note_on,18,0,10,,,,,,,,,14,,,,33,0
137473,note_on,0,0,10,,,,,,,,,14,,,,34,73
137473,control_change,0,0,10,,,,,,,,,14,11,42,,,
137515,note_on,55,0,6,,,,,,,,,10,,,,70,0
137518,note_on,55,0,7,,,,,,,,,11,,,,58,0
137520,note_on,5,0,6,,,,,,,,,10,,,,63,100
137520,set_tempo,120,1,0,,,,,,389610,,,,,,,,
137521,note_on,55,0,8,,,,,,,,,12,,,,58,0
137523,note_on,360,0,1,,,,,,,,,0,,,,82,95
137523,note_on,5,0,7,,,,,,,,,11,,,,63,100
137524,note_on,360,0,4,,,,,,,,,4,,,,58,99
137525,note_on,360,0,2,,,,,,,,,1,,,,78,94
137525,note_on,0,0,2,,,,,,,,,1,,,,70,94
137526,note_on,55,0,9,,,,,,,,,13,,,,46,0
137526,note_on,5,0,8,,,,,,,,,12,,,,51,98
137526,note_on,360,0,5,,,,,,,,,5,,,,46,99
137528,note_on,55,0,10,,,,,,,,,14,,,,34,0
137531,note_on,5,0,9,,,,,,,,,13,,,,51,89
137532,note_on,360,0,3,,,,,,,,,3,,,,66,94
137533,note_on,5,0,10,,,,,,,,,14,,,,39,73
137635,note_on,115,0,6,,,,,,,,,10,,,,63,0
137638,note_on,115,0,7,,,,,,,,,11,,,,63,0
137640,set_tempo,120,1,0,,,,,,372671,,,,,,,,
137640,note_on,5,0,6,,,,,,,,,10,,,,63,100
137643,note_on,5,0,7,,,,,,,,,11,,,,63,100
137646,note_on,120,0,8,,,,,,,,,12,,,,51,0
137651,note_on,120,0,9,,,,,,,,,13,,,,51,0
137653,note_on,120,0,10,,,,,,,,,14,,,,39,0
137755,note_on,115,0,6,,,,,,,,,10,,,,63,0
137758,note_on,115,0,7,,,,,,,,,11,,,,63,0
137760,set_tempo,120,1,0,,,,,,389610,,,,,,,,
137766,note_on,120,0,8,,,,,,,,,12,,,,54,98
137771,note_on,120,0,9,,,,,,,,,13,,,,54,89
137773,note_on,120,0,10,,,,,,,,,14,,,,42,73
137880,set_tempo,120,1,0,,,,,,372671,,,,,,,,
137880,note_on,125,0,6,,,,,,,,,10,,,,66,100
137883,note_on,360,0,1,,,,,,,,,0,,,,82,0
137883,note_on,0,0,1,,,,,,,,,0,,,,80,82
137883,note_on,125,0,7,,,,,,,,,11,,,,66,100
137885,note_on,0,0,2,,,,,,,,,1,,,,68,81
137885,note_on,360,0,2,,,,,,,,,1,,,,70,0
137885,note_on,0,0,2,,,,,,,,,1,,,,78,0
137885,note_on,0,0,2,,,,,,,,,1,,,,77,81
137886,note_on,120,0,8,,,,,,,,,12,,,,54,0
137891,note_on,120,0,9,,,,,,,,,13,,,,54,0
137892,note_on,0,0,3,,,,,,,,,3,,,,65,81
137892,note_on,360,0,3,,,,,,,,,3,,,,66,0
137893,note_on,120,0,10,,,,,,,,,14,,,,42,0
137943,note_on,60,0,1,,,,,,,,,0,,,,80,0
137943,note_on,0,0,1,,,,,,,,,0,,,,78,82
137945,note_on,60,0,2,,,,,,,,,1,,,,68,0
137945,note_on,0,0,2,,,,,,,,,1,,,,66,81
137945,note_on,0,0,2,,,,,,,,,1,,,,77,0
137945,note_on,0,0,2,,,,,,,,,1,,,,75,81
137952,note_on,60,0,3,,,,,,,,,3,,,,65,0
137952,note_on,0,0,3,,,,,,,,,3,,,,63,81
137995,note_on,115,0,6,,,,,,,,,10,,,,66,0
137998,note_on,115,0,7,,,,,,,,,11,,,,66,0
138000,note_on,5,0,6,,,,,,,,,10,,,,70,100
138000,set_tempo,120,1,0,,,,,,389610,,,,,,,,
138003,note_on,5,0,7,,,,,,,,,11,,,,70,100
138003,note_on,60,0,1,,,,,,,,,0,,,,78,0
138003,note_on,0,0,1,,,,,,,,,0,,,,77,82
138005,note_on,60,0,2,,,,,,,,,1,,,,75,0
138005,note_on,0,0,2,,,,,,,,,1,,,,66,0
138005,note_on,0,0,2,,,,,,,,,1,,,,65,81
138005,note_on,0,0,2,,,,,,,,,1,,,,74,81
138006,note_on,120,0,8,,,,,,,,,12,,,,58,98
138011,note_on,120,0,9,,,,,,,,,13,,,,58,89
138012,note_on,0,0,3,,,,,,,,,3,,,,62,81
138012,note_on,60,0,3,,,,,,,,,3,,,,63,0
138013,note_on,120,0,10,,,,,,,,,14,,,,46,73
138115,note_on,115,0,6,,,,,,,,,10,,,,70,0
138118,note_on,115,0,7,,,,,,,,,11,,,,70,0
138120,set_tempo,120,1,0,,,,,,372671,,,,,,,,
138120,note_on,5,0,6,,,,,,,,,10,,,,74,100
138123,note_on,5,0,7,,,,,,,,,11,,,,62,100
138123,note_on,120,0,1,,,,,,,,,0,,,,77,0
138123,note_on,0,0,1,,,,,,,,,0,,,,80,95
138125,note_on,120,0,2,,,,,,,,,1,,,,65,0
138125,note_on,0,0,2,,,,,,,,,1,,,,77,94
138125,note_on,0,0,2,,,,,,,,,1,,,,68,94
138125,note_on,0,0,2,,,,,,,,,1,,,,74,0
138126,note_on,120,0,8,,,,,,,,,12,,,,58,0
138131,note_on,120,0,9,,,,,,,,,13,,,,58,0
138132,note_on,120,0,3,,,,,,,,,3,,,,62,0
138132,note_on,0,0,3,,,,,,,,,3,,,,65,94
138133,note_on,120,0,10,,,,,,,,,14,,,,46,0
138240,note_on,120,0,6,,,,,,,,,10,,,,74,0
138240,set_tempo,120,1,0,,,,,,389610,,,,,,,,
138240,note_on,0,0,6,,,,,,,,,10,,,,75,100
138243,note_on,0,0,7,,,,,,,,,11,,,,63,100
138243,note_on,120,0,7,,,,,,,,,11,,,,62,0
138246,note_on,120,0,8,,,,,,,,,12,,,,51,98
138251,note_on,120,0,9,,,,,,,,,13,,,,51,89
138253,note_on,120,0,10,,,,,,,,,14,,,,39,73
138303,note_on,180,0,1,,,,,,,,,0,,,,80,0
138303,note_on,0,0,1,,,,,,,,,0,,,,78,82
138305,note_on,0,0,2,,,,,,,,,1,,,,75,81
138305,note_on,180,0,2,,,,,,,,,1,,,,77,0
138305,note_on,0,0,2,,,,,,,,,1,,,,68,0
138305,note_on,0,0,2,,,,,,,,,1,,,,66,81
138312,note_on,0,0,3,,,,,,,,,3,,,,63,81
138312,note_on,180,0,3,,,,,,,,,3,,,,65,0
138360,note_on,0,0,6,,,,,,,,,10,,,,77,100
138360,set_tempo,120,1,0,,,,,,372671,,,,,,,,
138360,note_on,120,0,6,,,,,,,,,10,,,,75,0
138363,note_on,0,0,1,,,,,,,,,0,,,,77,82
138363,note_on,60,0,1,,,,,,,,,0,,,,78,0
138363,note_on,0,0,7,,,,,,,,,11,,,,65,100
138363,note_on,120,0,7,,,,,,,,,11,,,,63,0
138365,note_on,0,0,2,,,,,,,,,1,,,,73,81
138365,note_on,0,0,2,,,,,,,,,1,,,,66,0
138365,note_on,60,0,2,,,,,,,,,1,,,,75,0
138365,note_on,0,0,2,,,,,,,,,1,,,,65,81
138366,note_on,120,0,8,,,,,,,,,12,,,,51,0
138371,note_on,120,0,9,,,,,,,,,13,,,,51,0
138372,note_on,0,0,3,,,,,,,,,3,,,,61,81
138372,note_on,60,0,3,,,,,,,,,3,,,,63,0
138373,note_on,120,0,10,,,,,,,,,14,,,,39,0
138420,note_on,0,0,6,,,,,,,,,10,,,,78,100
138420,note_on,60,0,6,,,,,,,,,10,,,,77,0
138423,note_on,0,0,7,,,,,,,,,11,,,,66,100
138423,note_on,60,0,7,,,,,,,,,11,,,,65,0
138423,note_on,0,0,1,,,,,,,,,0,,,,75,82
138423,note_on,60,0,1,,,,,,,,,0,,,,77,0
138425,note_on,0,0,2,,,,,,,,,1,,,,72,81
138425,note_on,0,0,2,,,,,,,,,1,,,,65,0
138425,note_on,0,0,2,,,,,,,,,1,,,,63,81
138425,note_on,60,0,2,,,,,,,,,1,,,,73,0
138432,note_on,0,0,3,,,,,,,,,3,,,,60,81
138432,note_on,60,0,3,,,,,,,,,3,,,,61,0
138475,note_on,55,0,6,,,,,,,,,10,,,,78,0
138478,note_on,55,0,7,,,,,,,,,11,,,,66,0
138480,note_on,5,0,6,,,,,,,,,10,,,,78,100
138480,set_tempo,120,1,0,,,,,,389610,,,,,,,,
138483,note_on,60,0,1,,,,,,,,,0,,,,75,0
138483,note_on,5,0,7,,,,,,,,,11,,,,66,100
138483,note_on,0,0,1,,,,,,,,,0,,,,73,82
138484,note_on,960,0,4,,,,,,,,,4,,,,58,0
138484,note_on,0,0,4,,,,,,,,,4,,,,53,86
138485,note_on,60,0,2,,,,,,,,,1,,,,63,0
138485,note_on,0,0,2,,,,,,,,,1,,,,72,0
138485,note_on,0,0,2,,,,,,,,,1,,,,70,81
138485,note_on,0,0,2,,,,,,,,,1,,,,61,81
138486,note_on,960,0,5,,,,,,,,,5,,,,46,0
138486,note_on,0,0,5,,,,,,,,,5,,,,41,86
138486,note_on,120,0,8,,,,,,,,,12,,,,53,98
138491,note_on,120,0,9,,,,,,,,,13,,,,53,89
138492,note_on,0,0,3,,,,,,,,,3,,,,58,81
138492,note_on,0,0,3,,,,,,,,,3,,,,53,81
138492,note_on,60,0,3,,,,,,,,,3,,,,60,0
138493,note_on,120,0,10,,,,,,,,,14,,,,41,73
138540,note_on,60,0,6,,,,,,,,,10,,,,78,0
138540,note_on,0,0,6,,,,,,,,,10,,,,77,100
138543,note_on,60,0,7,,,,,,,,,11,,,,66,0
138543,note_on,0,0,7,,,,,,,,,11,,,,65,100
138595,note_on,55,0,6,,,,,,,,,10,,,,77,0
138598,note_on,55,0,7,,,,,,,,,11,,,,65,0
138600,note_on,5,0,6,,,,,,,,,10,,,,77,100
138600,set_tempo,120,1,0,,,,,,366972,,,,,,,,
138603,note_on,5,0,7,,,,,,,,,11,,,,65,100
138606,note_on,120,0,8,,,,,,,,,12,,,,53,0
138611,note_on,120,0,9,,,,,,,,,13,,,,53,0
138613,note_on,120,0,10,,,,,,,,,14,,,,41,0
138630,note_on,30,0,6,,,,,,,,,10,,,,77,0
138633,note_on,30,0,7,,,,,,,,,11,,,,65,0
138660,note_on,30,0,6,,,,,,,,,10,,,,77,100
138663,note_on,30,0,7,,,,,,,,,11,,,,65,100
138690,note_on,30,0,6,,,,,,,,,10,,,,77,0
138693,note_on,30,0,7,,,,,,,,,11,,,,65,0
138720,set_tempo,120,1,0,,,,,,383387,,,,,,,,
138720,note_on,30,0,6,,,,,,,,,10,,,,77,100
138723,note_on,30,0,7,,,,,,,,,11,,,,65,100
138723,note_on,240,0,1,,,,,,,,,0,,,,73,0
138723,note_on,0,0,1,,,,,,,,,0,,,,72,82
138725,note_on,0,0,2,,,,,,,,,1,,,,69,81
138725,note_on,240,0,2,,,,,,,,,1,,,,61,0
138725,note_on,0,0,2,,,,,,,,,1,,,,65,81
138725,note_on,0,0,2,,,,,,,,,1,,,,70,0
138726,note_on,120,0,8,,,,,,,,,12,,,,53,98
138731,note_on,120,0,9,,,,,,,,,13,,,,41,89
138732,note_on,240,0,3,,,,,,,,,3,,,,58,0
138732,note_on,0,0,3,,,,,,,,,3,,,,53,0
138732,note_on,0,0,3,,,,,,,,,3,,,,60,81
138732,note_on,0,0,3,,,,,,,,,3,,,,57,81
138733,note_on,120,0,10,,,,,,,,,14,,,,29,73
138780,note_on,0,0,6,,,,,,,,,10,,,,78,100
138780,note_on,60,0,6,,,,,,,,,10,,,,77,0
138783,note_on,60,0,7,,,,,,,,,11,,,,65,0
138783,note_on,0,0,7,,,,,,,,,11,,,,66,100
138835,note_on,55,0,6,,,,,,,,,10,,,,78,0
138838,note_on,55,0,7,,,,,,,,,11,,,,66,0
138840,control_change,5,0,6,,,,,,,,,10,11,42,,,
138840,note_on,0,0,6,,,,,,,,,10,,,,77,100
138840,set_tempo,120,1,0,,,,,,372671,,,,,,,,
138843,control_change,5,0,7,,,,,,,,,11,11,42,,,
138843,note_on,0,0,7,,,,,,,,,11,,,,65,100
138846,note_on,120,0,8,,,,,,,,,12,,,,53,0
138846,control_change,0,0,8,,,,,,,,,12,11,42,,,
138851,control_change,0,0,9,,,,,,,,,13,11,42,,,
138851,note_on,120,0,9,,,,,,,,,13,,,,41,0
138853,note_on,120,0,10,,,,,,,,,14,,,,29,0
138853,control_change,0,0,10,,,,,,,,,14,11,42,,,
138864,control_change,24,0,6,,,,,,,,,10,11,43,,,
138867,control_change,24,0,7,,,,,,,,,11,11,43,,,
138870,control_change,24,0,8,,,,,,,,,12,11,43,,,
138870,note_on,6,0,6,,,,,,,,,10,,,,77,0
138873,note_on,6,0,7,,,,,,,,,11,,,,65,0
138875,control_change,24,0,9,,,,,,,,,13,11,43,,,
138877,control_change,24,0,10,,,,,,,,,14,11,43,,,
138888,control_change,18,0,6,,,,,,,,,10,11,44,,,
138891,control_change,18,0,7,,,,,,,,,11,11,44,,,
138894,control_change,24,0,8,,,,,,,,,12,11,44,,,
138899,control_change,24,0,9,,,,,,,,,13,11,44,,,
138900,note_on,12,0,6,,,,,,,,,10,,,,77,100
138901,control_change,24,0,10,,,,,,,,,14,11,44,,,
138903,note_on,12,0,7,,,,,,,,,11,,,,65,100
138912,control_change,12,0,6,,,,,,,,,10,11,45,,,
138915,control_change,12,0,7,,,,,,,,,11,11,45,,,
138918,control_change,24,0,8,,,,,,,,,12,11,45,,,
138923,control_change,24,0,9,,,,,,,,,13,11,45,,,
138925,control_change,24,0,10,,,,,,,,,14,11,45,,,
138930,note_on,18,0,6,,,,,,,,,10,,,,77,0
138930,set_tempo,90,1,0,,,,,,456274,,,,,,,,
138933,note_on,18,0,7,,,,,,,,,11,,,,65,0
138936,control_change,6,0,6,,,,,,,,,10,11,46,,,
138939,control_change,6,0,7,,,,,,,,,11,11,46,,,
138942,control_change,24,0,8,,,,,,,,,12,11,46,,,
138947,control_change,24,0,9,,,,,,,,,13,11,46,,,
138949,control_change,24,0,10,,,,,,,,,14,11,46,,,
138960,set_tempo,30,1,0,,,,,,362538,,,,,,,,
138960,control_change,24,0,6,,,,,,,,,10,11,47,,,
138960,note_on,0,0,6,,,,,,,,,10,,,,82,100
138963,note_on,0,0,1,,,,,,,,,0,,,,70,82
138963,note_on,0,0,7,,,,,,,,,11,,,,77,100
138963,control_change,24,0,7,,,,,,,,,11,11,47,,,
138963,note_on,240,0,1,,,,,,,,,0,,,,72,0
138964,note_on,0,0,4,,,,,,,,,4,,,,46,86
138964,note_on,480,0,4,,,,,,,,,4,,,,53,0
138965,note_on,240,0,2,,,,,,,,,1,,,,65,0
138965,note_on,0,0,2,,,,,,,,,1,,,,69,0
138965,note_on,0,0,2,,,,,,,,,1,,,,70,81
138966,note_on,480,0,5,,,,,,,,,5,,,,41,0
138966,note_on,0,0,5,,,,,,,,,5,,,,46,86
138966,note_on,0,0,8,,,,,,,,,12,,,,74,98
138966,control_change,24,0,8,,,,,,,,,12,11,47,,,
138971,note_on,0,0,9,,,,,,,,,13,,,,46,89
138971,control_change,24,0,9,,,,,,,,,13,11,47,,,
138972,note_on,0,0,3,,,,,,,,,3,,,,58,81
138972,note_on,240,0,3,,,,,,,,,3,,,,57,0
138972,note_on,0,0,3,,,,,,,,,3,,,,60,0
138973,note_on,0,0,10,,,,,,,,,14,,,,34,73
138973,control_change,24,0,10,,,,,,,,,14,11,47,,,
138990,note_on,30,0,6,,,,,,,,,10,,,,82,0
139000,set_tempo,40,1,0,,,,,,346821,,,,,,,,
139000,note_on,10,0,6,,,,,,,,,10,,,,86,100
139023,note_on,60,0,7,,,,,,,,,11,,,,77,0
139026,note_on,60,0,8,,,,,,,,,12,,,,74,0
139030,note_on,30,0,6,,,,,,,,,10,,,,86,0
139040,note_on,10,0,6,,,,,,,,,10,,,,82,100
139070,note_on,30,0,6,,,,,,,,,10,,,,82,0
139080,set_tempo,80,1,0,,,,,,390879,,,,,,,,
139080,note_on,10,0,6,,,,,,,,,10,,,,81,100
139083,note_on,120,0,1,,,,,,,,,0,,,,70,0
139083,note_on,60,0,7,,,,,,,,,11,,,,75,100
139084,note_on,120,0,4,,,,,,,,,4,,,,46,0
139085,note_on,120,0,2,,,,,,,,,1,,,,70,0
139086,note_on,120,0,5,,,,,,,,,5,,,,46,0
139086,note_on,60,0,8,,,,,,,,,12,,,,72,98
139091,note_on,120,0,9,,,,,,,,,13,,,,46,0
139092,note_on,120,0,3,,,,,,,,,3,,,,58,0
139093,note_on,120,0,10,,,,,,,,,14,,,,34,0
139110,note_on,30,0,6,,,,,,,,,10,,,,81,0
139120,set_tempo,40,1,0,,,,,,373832,,,,,,,,
139120,note_on,10,0,6,,,,,,,,,10,,,,84,100
139143,note_on,60,0,7,,,,,,,,,11,,,,75,0
139146,note_on,60,0,8,,,,,,,,,12,,,,72,0
139150,note_on,30,0,6,,,,,,,,,10,,,,84,0
139160,note_on,10,0,6,,,,,,,,,10,,,,81,100
139190,note_on,30,0,6,,,,,,,,,10,,,,81,0
139200,set_tempo,80,1,0,,,,,,362538,,,,,,,,
139200,note_on,10,0,6,,,,,,,,,10,,,,79,100
139203,note_on,60,0,7,,,,,,,,,11,,,,74,100
139206,note_on,60,0,8,,,,,,,,,12,,,,70,98
139230,note_on,30,0,6,,,,,,,,,10,,,,79,0
139240,set_tempo,40,1,0,,,,,,346821,,,,,,,,
139240,note_on,10,0,6,,,,,,,,,10,,,,82,100
139263,note_on,60,0,7,,,,,,,,,11,,,,74,0
139266,note_on,60,0,8,,,,,,,,,12,,,,70,0
139270,note_on,30,0,6,,,,,,,,,10,,,,82,0
139280,note_on,10,0,6,,,,,,,,,10,,,,79,100
139310,note_on,30,0,6,,,,,,,,,10,,,,79,0
139320,note_on,10,0,6,,,,,,,,,10,,,,77,100
139320,set_tempo,80,1,0,,,,,,390879,,,,,,,,
139323,note_on,60,0,7,,,,,,,,,11,,,,72,100
139326,note_on,60,0,8,,,,,,,,,12,,,,69,98
139350,note_on,30,0,6,,,,,,,,,10,,,,77,0
139360,note_on,10,0,6,,,,,,,,,10,,,,81,100
139360,set_tempo,40,1,0,,,,,,373832,,,,,,,,
139383,note_on,60,0,7,,,,,,,,,11,,,,72,0
139386,note_on,60,0,8,,,,,,,,,12,,,,69,0
139390,note_on,30,0,6,,,,,,,,,10,,,,81,0
139400,note_on,10,0,6,,,,,,,,,10,,,,77,100
139430,note_on,30,0,6,,,,,,,,,10,,,,77,0
139440,note_on,10,0,6,,,,,,,,,10,,,,75,100
139440,set_tempo,80,1,0,,,,,,362538,,,,,,,,
139443,note_on,60,0,7,,,,,,,,,11,,,,70,100
139446,note_on,60,0,8,,,,,,,,,12,,,,67,98
139470,note_on,30,0,6,,,,,,,,,10,,,,75,0
139480,set_tempo,40,1,0,,,,,,346821,,,,,,,,
139480,note_on,10,0,6,,,,,,,,,10,,,,79,100
139503,note_on,60,0,7,,,,,,,,,11,,,,70,0
139506,note_on,60,0,8,,,,,,,,,12,,,,67,0
139510,note_on,30,0,6,,,,,,,,,10,,,,79,0
139520,note_on,10,0,6,,,,,,,,,10,,,,75,100
139550,note_on,30,0,6,,,,,,,,,10,,,,75,0
139560,set_tempo,80,1,0,,,,,,390879,,,,,,,,
139560,note_on,10,0,6,,,,,,,,,10,,,,74,100
139563,note_on,60,0,7,,,,,,,,,11,,,,69,100
139566,note_on,60,0,8,,,,,,,,,12,,,,65,98
139590,note_on,30,0,6,,,,,,,,,10,,,,74,0
139600,set_tempo,40,1,0,,,,,,373832,,,,,,,,
139600,note_on,10,0,6,,,,,,,,,10,,,,77,100
139623,note_on,60,0,7,,,,,,,,,11,,,,69,0
139626,note_on,60,0,8,,,,,,,,,12,,,,65,0
139630,note_on,30,0,6,,,,,,,,,10,,,,77,0
139640,note_on,10,0,6,,,,,,,,,10,,,,74,100
139670,note_on,30,0,6,,,,,,,,,10,,,,74,0
139680,set_tempo,80,1,0,,,,,,362538,,,,,,,,
139680,note_on,10,0,6,,,,,,,,,10,,,,72,100
139683,note_on,60,0,7,,,,,,,,,11,,,,67,100
139686,note_on,60,0,8,,,,,,,,,12,,,,63,98
139710,note_on,30,0,6,,,,,,,,,10,,,,72,0
139720,set_tempo,40,1,0,,,,,,346821,,,,,,,,
139720,note_on,10,0,6,,,,,,,,,10,,,,75,100
139743,note_on,60,0,7,,,,,,,,,11,,,,67,0
139746,note_on,60,0,8,,,,,,,,,12,,,,63,0
139750,note_on,30,0,6,,,,,,,,,10,,,,75,0
139760,note_on,10,0,6,,,,,,,,,10,,,,72,100
139790,note_on,30,0,6,,,,,,,,,10,,,,72,0
139800,note_on,10,0,6,,,,,,,,,10,,,,70,100
139800,set_tempo,80,1,0,,,,,,390879,,,,,,,,
139803,note_on,60,0,7,,,,,,,,,11,,,,65,100
139806,note_on,60,0,8,,,,,,,,,12,,,,62,98
139830,note_on,30,0,6,,,,,,,,,10,,,,70,0
139840,set_tempo,40,1,0,,,,,,373832,,,,,,,,
139840,note_on,10,0,6,,,,,,,,,10,,,,74,100
139863,note_on,60,0,7,,,,,,,,,11,,,,65,0
139866,note_on,60,0,8,,,,,,,,,12,,,,62,0
139870,note_on,30,0,6,,,,,,,,,10,,,,74,0
139880,note_on,10,0,6,,,,,,,,,10,,,,70,100
139905,control_change,25,0,6,,,,,,,,,10,11,47,,,
139907,control_change,2,0,6,,,,,,,,,10,11,51,,,
139908,control_change,45,0,7,,,,,,,,,11,11,47,,,
139909,control_change,2,0,6,,,,,,,,,10,11,55,,,
139910,note_on,1,0,6,,,,,,,,,10,,,,70,0
139910,control_change,2,0,7,,,,,,,,,11,11,51,,,
139911,control_change,1,0,6,,,,,,,,,10,11,59,,,
139911,control_change,45,0,8,,,,,,,,,12,11,47,,,
139912,control_change,2,0,7,,,,,,,,,11,11,55,,,
139913,control_change,2,0,8,,,,,,,,,12,11,51,,,
139913,control_change,2,0,6,,,,,,,,,10,11,62,,,
139914,control_change,2,0,7,,,,,,,,,11,11,59,,,
139915,control_change,2,0,6,,,,,,,,,10,11,65,,,
139915,control_change,2,0,8,,,,,,,,,12,11,55,,,
139916,control_change,2,0,7,,,,,,,,,11,11,62,,,
139916,control_change,825,0,9,,,,,,,,,13,11,47,,,
139917,control_change,2,0,6,,,,,,,,,10,11,68,,,
139917,control_change,2,0,8,,,,,,,,,12,11,59,,,
139918,control_change,2,0,7,,,,,,,,,11,11,65,,,
139918,control_change,2,0,9,,,,,,,,,13,11,51,,,
139918,control_change,825,0,10,,,,,,,,,14,11,47,,,
139919,control_change,2,0,6,,,,,,,,,10,11,71,,,
139919,control_change,2,0,8,,,,,,,,,12,11,62,,,
139920,control_change,2,0,7,,,,,,,,,11,11,68,,,
139920,control_change,2,0,9,,,,,,,,,13,11,55,,,
139920,control_change,2,0,10,,,,,,,,,14,11,51,,,
139920,set_tempo,80,1,0,,,,,,362538,,,,,,,,
139920,note_on,1,0,6,,,,,,,,,10,,,,79,100
139920,note_on,0,0,6,,,,,,,,,10,,,,70,100
139921,control_change,2,0,8,,,,,,,,,12,11,65,,,
139922,control_change,2,0,7,,,,,,,,,11,11,71,,,
139922,control_change,2,0,10,,,,,,,,,14,11,55,,,
139922,control_change,2,0,9,,,,,,,,,13,11,59,,,
139923,control_change,2,0,8,,,,,,,,,12,11,68,,,
139923,control_change,3,0,6,,,,,,,,,10,11,76,,,
139923,note_on,1,0,7,,,,,,,,,11,,,,67,100
139923,control_change,840,0,1,,,,,,,,,0,11,79,,,
139923,note_on,0,0,1,,,,,,,,,0,,,,79,82
139923,note_on,0,0,7,,,,,,,,,11,,,,70,100
139924,note_on,0,0,4,,,,,,,,,4,,,,58,86
139924,control_change,840,0,4,,,,,,,,,4,11,79,,,
139924,control_change,2,0,10,,,,,,,,,14,11,59,,,
139924,control_change,2,0,9,,,,,,,,,13,11,62,,,
139925,control_change,840,0,2,,,,,,,,,1,11,79,,,
139925,note_on,0,0,2,,,,,,,,,1,,,,75,81
139925,note_on,0,0,2,,,,,,,,,1,,,,79,81
139925,control_change,2,0,8,,,,,,,,,12,11,71,,,
139925,control_change,2,0,6,,,,,,,,,10,11,79,,,
139926,control_change,3,0,7,,,,,,,,,11,11,76,,,
139926,note_on,1,0,8,,,,,,,,,12,,,,63,98
139926,control_change,2,0,9,,,,,,,,,13,11,65,,,
139926,control_change,2,0,10,,,,,,,,,14,11,62,,,
139926,note_on,0,0,5,,,,,,,,,5,,,,46,86
139926,control_change,840,0,5,,,,,,,,,5,11,79,,,
139928,control_change,2,0,10,,,,,,,,,14,11,65,,,
139928,control_change,2,0,7,,,,,,,,,11,11,79,,,
139928,control_change,2,0,9,,,,,,,,,13,11,68,,,
139929,control_change,3,0,8,,,,,,,,,12,11,76,,,
139930,control_change,2,0,9,,,,,,,,,13,11,71,,,
139930,control_change,2,0,10,,,,,,,,,14,11,68,,,
139931,note_on,1,0,9,,,,,,,,,13,,,,51,89
139931,control_change,2,0,8,,,,,,,,,12,11,79,,,
139932,note_on,0,0,3,,,,,,,,,3,,,,51,81
139932,control_change,2,0,10,,,,,,,,,14,11,71,,,
139932,control_change,840,0,3,,,,,,,,,3,11,79,,,
139933,note_on,1,0,10,,,,,,,,,14,,,,39,73
139934,control_change,3,0,9,,,,,,,,,13,11,76,,,
139936,control_change,3,0,10,,,,,,,,,14,11,76,,,
139936,control_change,2,0,9,,,,,,,,,13,11,79,,,
139938,control_change,2,0,10,,,,,,,,,14,11,79,,,
139950,note_on,25,0,6,,,,,,,,,10,,,,70,0
139950,note_on,0,0,6,,,,,,,,,10,,,,79,0
139953,note_on,0,0,7,,,,,,,,,11,,,,67,0
139953,note_on,25,0,7,,,,,,,,,11,,,,70,0
139956,note_on,25,0,8,,,,,,,,,12,,,,63,0
139960,note_on,0,0,6,,,,,,,,,10,,,,79,92
139960,set_tempo,40,1,0,,,,,,346821,,,,,,,,
139960,note_on,10,0,6,,,,,,,,,10,,,,70,92
139961,note_on,25,0,9,,,,,,,,,13,,,,51,0
139963,note_on,10,0,7,,,,,,,,,11,,,,67,92
139963,note_on,0,0,7,,,,,,,,,11,,,,70,92
139963,note_on,25,0,10,,,,,,,,,14,,,,39,0
139966,note_on,10,0,8,,,,,,,,,12,,,,63,90
139971,note_on,10,0,9,,,,,,,,,13,,,,51,81
139973,note_on,10,0,10,,,,,,,,,14,,,,39,65
139990,note_on,30,0,6,,,,,,,,,10,,,,79,0
139990,note_on,0,0,6,,,,,,,,,10,,,,70,0
139993,note_on,30,0,7,,,,,,,,,11,,,,70,0
139993,note_on,0,0,7,,,,,,,,,11,,,,67,0
139996,note_on,30,0,8,,,,,,,,,12,,,,63,0
140000,note_on,10,0,6,,,,,,,,,10,,,,70,100
140000,note_on,0,0,6,,,,,,,,,10,,,,79,100
140001,note_on,30,0,9,,,,,,,,,13,,,,51,0
140003,note_on,0,0,7,,,,,,,,,11,,,,67,100
140003,note_on,30,0,10,,,,,,,,,14,,,,39,0
140003,note_on,10,0,7,,,,,,,,,11,,,,70,100
140006,note_on,10,0,8,,,,,,,,,12,,,,63,98
140011,note_on,10,0,9,,,,,,,,,13,,,,51,89
140013,note_on,10,0,10,,,,,,,,,14,,,,39,73
140030,note_on,0,0,6,,,,,,,,,10,,,,70,0
140030,note_on,30,0,6,,,,,,,,,10,,,,79,0
140033,note_on,30,0,7,,,,,,,,,11,,,,67,0
140033,note_on,0,0,7,,,,,,,,,11,,,,70,0
140036,note_on,30,0,8,,,,,,,,,12,,,,63,0
140040,note_on,0,0,6,,,,,,,,,10,,,,70,92
140040,set_tempo,80,1,0,,,,,,390879,,,,,,,,
140040,note_on,10,0,6,,,,,,,,,10,,,,79,92
140041,note_on,30,0,9,,,,,,,,,13,,,,51,0
140043,note_on,0,0,7,,,,,,,,,11,,,,70,92
140043,note_on,30,0,10,,,,,,,,,14,,,,39,0
140043,note_on,10,0,7,,,,,,,,,11,,,,67,92
140046,note_on,10,0,8,,,,,,,,,12,,,,63,90
140051,note_on,10,0,9,,,,,,,,,13,,,,51,81
140053,note_on,10,0,10,,,,,,,,,14,,,,39,65
140070,note_on,30,0,6,,,,,,,,,10,,,,70,0
140070,note_on,0,0,6,,,,,,,,,10,,,,79,0
140073,note_on,30,0,7,,,,,,,,,11,,,,70,0
140073,note_on,0,0,7,,,,,,,,,11,,,,67,0
140076,note_on,30,0,8,,,,,,,,,12,,,,63,0
140080,note_on,0,0,6,,,,,,,,,10,,,,70,100
140080,set_tempo,40,1,0,,,,,,373832,,,,,,,,
140080,note_on,10,0,6,,,,,,,,,10,,,,79,100
140081,note_on,30,0,9,,,,,,,,,13,,,,51,0
140083,note_on,30,0,10,,,,,,,,,14,,,,39,0
140083,note_on,10,0,7,,,,,,,,,11,,,,67,100
140083,note_on,0,0,7,,,,,,,,,11,,,,70,100
140086,note_on,10,0,8,,,,,,,,,12,,,,63,98
140091,note_on,10,0,9,,,,,,,,,13,,,,51,89
140093,note_on,10,0,10,,,,,,,,,14,,,,39,73
140093,note_on,170,0,1,,,,,,,,,0,,,,79,0
140094,note_on,170,0,4,,,,,,,,,4,,,,58,0
140095,note_on,0,0,2,,,,,,,,,1,,,,79,0
140095,note_on,170,0,2,,,,,,,,,1,,,,75,0
140096,note_on,170,0,5,,,,,,,,,5,,,,46,0
140102,note_on,170,0,3,,,,,,,,,3,,,,51,0
140103,note_on,10,0,1,,,,,,,,,0,,,,79,82
140104,note_on,10,0,4,,,,,,,,,4,,,,58,86
140105,note_on,10,0,2,,,,,,,,,1,,,,79,81
140105,note_on,0,0,2,,,,,,,,,1,,,,75,81
140106,note_on,10,0,5,,,,,,,,,5,,,,46,86
140110,note_on,0,0,6,,,,,,,,,10,,,,79,0
140110,note_on,30,0,6,,,,,,,,,10,,,,70,0
140112,note_on,10,0,3,,,,,,,,,3,,,,51,81
140113,note_on,0,0,7,,,,,,,,,11,,,,67,0
140113,note_on,30,0,7,,,,,,,,,11,,,,70,0
140116,note_on,30,0,8,,,,,,,,,12,,,,63,0
140120,note_on,0,0,6,,,,,,,,,10,,,,70,92
140120,note_on,10,0,6,,,,,,,,,10,,,,79,92
140121,note_on,30,0,9,,,,,,,,,13,,,,51,0
140123,note_on,30,0,10,,,,,,,,,14,,,,39,0
140123,note_on,0,0,7,,,,,,,,,11,,,,67,92
140123,note_on,10,0,7,,,,,,,,,11,,,,70,92
140126,note_on,10,0,8,,,,,,,,,12,,,,63,90
140131,note_on,10,0,9,,,,,,,,,13,,,,51,81
140133,note_on,10,0,10,,,,,,,,,14,,,,39,65
140150,note_on,30,0,6,,,,,,,,,10,,,,70,0
140150,note_on,0,0,6,,,,,,,,,10,,,,79,0
140153,note_on,30,0,7,,,,,,,,,11,,,,67,0
140153,note_on,0,0,7,,,,,,,,,11,,,,70,0
140153,note_on,50,0,1,,,,,,,,,0,,,,79,0
140154,note_on,50,0,4,,,,,,,,,4,,,,58,0
140155,note_on,0,0,2,,,,,,,,,1,,,,79,0
140155,note_on,50,0,2,,,,,,,,,1,,,,75,0
140156,note_on,30,0,8,,,,,,,,,12,,,,63,0
140156,note_on,50,0,5,,,,,,,,,5,,,,46,0
140160,set_tempo,80,1,0,,,,,,362538,,,,,,,,
140160,note_on,10,0,6,,,,,,,,,10,,,,70,100
140160,note_on,0,0,6,,,,,,,,,10,,,,82,100
140161,note_on,30,0,9,,,,,,,,,13,,,,51,0
140162,note_on,50,0,3,,,,,,,,,3,,,,51,0
140163,note_on,10,0,7,,,,,,,,,11,,,,63,100
140163,note_on,10,0,1,,,,,,,,,0,,,,82,82
140163,note_on,30,0,10,,,,,,,,,14,,,,39,0
140163,note_on,0,0,7,,,,,,,,,11,,,,70,100
140164,note_on,10,0,4,,,,,,,,,4,,,,58,86
140165,note_on,10,0,2,,,,,,,,,1,,,,82,81
140165,note_on,0,0,2,,,,,,,,,1,,,,75,81
140166,note_on,10,0,8,,,,,,,,,12,,,,67,98
140166,note_on,10,0,5,,,,,,,,,5,,,,46,86
140171,note_on,10,0,9,,,,,,,,,13,,,,55,89
140172,note_on,10,0,3,,,,,,,,,3,,,,55,81
140173,note_on,10,0,10,,,,,,,,,14,,,,43,73
140190,note_on,30,0,6,,,,,,,,,10,,,,82,0
140190,note_on,0,0,6,,,,,,,,,10,,,,70,0
140193,note_on,0,0,7,,,,,,,,,11,,,,63,0
140193,note_on,30,0,7,,,,,,,,,11,,,,70,0
140196,note_on,30,0,8,,,,,,,,,12,,,,67,0
140200,note_on,10,0,6,,,,,,,,,10,,,,70,92
140200,set_tempo,40,1,0,,,,,,346821,,,,,,,,
140200,note_on,0,0,6,,,,,,,,,10,,,,82,92
140201,note_on,30,0,9,,,,,,,,,13,,,,55,0
140203,note_on,30,0,10,,,,,,,,,14,,,,43,0
140203,note_on,10,0,7,,,,,,,,,11,,,,63,92
140203,note_on,0,0,7,,,,,,,,,11,,,,70,92
140206,note_on,10,0,8,,,,,,,,,12,,,,67,90
140211,note_on,10,0,9,,,,,,,,,13,,,,55,81
140213,note_on,10,0,10,,,,,,,,,14,,,,43,65
140230,note_on,30,0,6,,,,,,,,,10,,,,82,0
140230,note_on,0,0,6,,,,,,,,,10,,,,70,0
140233,note_on,30,0,7,,,,,,,,,11,,,,70,0
140233,note_on,0,0,7,,,,,,,,,11,,,,63,0
140236,note_on,30,0,8,,,,,,,,,12,,,,67,0
140240,note_on,10,0,6,,,,,,,,,10,,,,82,100
140240,note_on,0,0,6,,,,,,,,,10,,,,70,100
140241,note_on,30,0,9,,,,,,,,,13,,,,55,0
140243,note_on,10,0,7,,,,,,,,,11,,,,63,100
140243,note_on,30,0,10,,,,,,,,,14,,,,43,0
140243,note_on,0,0,7,,,,,,,,,11,,,,70,100
140246,note_on,10,0,8,,,,,,,,,12,,,,67,98
140251,note_on,10,0,9,,,,,,,,,13,,,,55,89
140253,note_on,10,0,10,,,,,,,,,14,,,,43,73
140270,note_on,0,0,6,,,,,,,,,10,,,,82,0
140270,note_on,30,0,6,,,,,,,,,10,,,,70,0
140273,note_on,30,0,7,,,,,,,,,11,,,,70,0
140273,note_on,0,0,7,,,,,,,,,11,,,,63,0
140276,note_on,30,0,8,,,,,,,,,12,,,,67,0
140280,note_on,0,0,6,,,,,,,,,10,,,,70,92
140280,set_tempo,80,1,0,,,,,,390879,,,,,,,,
140280,note_on,10,0,6,,,,,,,,,10,,,,82,92
140281,note_on,30,0,9,,,,,,,,,13,,,,55,0
140283,note_on,30,0,10,,,,,,,,,14,,,,43,0
140283,note_on,10,0,7,,,,,,,,,11,,,,70,92
140283,note_on,0,0,7,,,,,,,,,11,,,,63,92
140286,note_on,10,0,8,,,,,,,,,12,,,,67,90
140291,note_on,10,0,9,,,,,,,,,13,,,,55,81
140293,note_on,10,0,10,,,,,,,,,14,,,,43,65
140310,note_on,0,0,6,,,,,,,,,10,,,,82,0
140310,note_on,30,0,6,,,,,,,,,10,,,,70,0
140313,note_on,0,0,7,,,,,,,,,11,,,,70,0
140313,note_on,30,0,7,,,,,,,,,11,,,,63,0
140316,note_on,30,0,8,,,,,,,,,12,,,,67,0
140320,note_on,0,0,6,,,,,,,,,10,,,,70,100
140320,note_on,10,0,6,,,,,,,,,10,,,,82,100
140320,set_tempo,40,1,0,,,,,,373832,,,,,,,,
140321,note_on,30,0,9,,,,,,,,,13,,,,55,0
140323,note_on,0,0,7,,,,,,,,,11,,,,63,100
140323,note_on,30,0,10,,,,,,,,,14,,,,43,0
140323,note_on,10,0,7,,,,,,,,,11,,,,70,100
140326,note_on,10,0,8,,,,,,,,,12,,,,67,98
140331,note_on,10,0,9,,,,,,,,,13,,,,55,89
140333,note_on,170,0,1,,,,,,,,,0,,,,82,0
140333,note_on,10,0,10,,,,,,,,,14,,,,43,73
140334,note_on,170,0,4,,,,,,,,,4,,,,58,0
140335,note_on,170,0,2,,,,,,,,,1,,,,75,0
140335,note_on,0,0,2,,,,,,,,,1,,,,82,0
140336,note_on,170,0,5,,,,,,,,,5,,,,46,0
140342,note_on,170,0,3,,,,,,,,,3,,,,55,0
140343,note_on,10,0,1,,,,,,,,,0,,,,82,82
140344,note_on,10,0,4,,,,,,,,,4,,,,58,86
140345,note_on,10,0,2,,,,,,,,,1,,,,82,81
140345,note_on,0,0,2,,,,,,,,,1,,,,75,81
140346,note_on,10,0,5,,,,,,,,,5,,,,46,86
140350,note_on,30,0,6,,,,,,,,,10,,,,70,0
140350,note_on,0,0,6,,,,,,,,,10,,,,82,0
140352,note_on,10,0,3,,,,,,,,,3,,,,55,81
140353,note_on,30,0,7,,,,,,,,,11,,,,63,0
140353,note_on,0,0,7,,,,,,,,,11,,,,70,0
140356,note_on,30,0,8,,,,,,,,,12,,,,67,0
140360,note_on,10,0,6,,,,,,,,,10,,,,82,92
140360,note_on,0,0,6,,,,,,,,,10,,,,70,92
140361,note_on,30,0,9,,,,,,,,,13,,,,55,0
140363,note_on,10,0,7,,,,,,,,,11,,,,63,92
140363,note_on,30,0,10,,,,,,,,,14,,,,43,0
140363,note_on,0,0,7,,,,,,,,,11,,,,70,92
140366,note_on,10,0,8,,,,,,,,,12,,,,67,90
140371,note_on,10,0,9,,,,,,,,,13,,,,55,81
140373,note_on,10,0,10,,,,,,,,,14,,,,43,65
140390,note_on,30,0,6,,,,,,,,,10,,,,70,0
140390,note_on,0,0,6,,,,,,,,,10,,,,82,0
140393,note_on,0,0,7,,,,,,,,,11,,,,63,0
140393,note_on,50,0,1,,,,,,,,,0,,,,82,0
140393,note_on,30,0,7,,,,,,,,,11,,,,70,0
140394,note_on,50,0,4,,,,,,,,,4,,,,58,0
140395,note_on,50,0,2,,,,,,,,,1,,,,75,0
140395,note_on,0,0,2,,,,,,,,,1,,,,82,0
140396,note_on,50,0,5,,,,,,,,,5,,,,46,0
140396,note_on,30,0,8,,,,,,,,,12,,,,67,0
140400,note_on,10,0,6,,,,,,,,,10,,,,70,100
140400,note_on,0,0,6,,,,,,,,,10,,,,82,100
140400,set_tempo,80,1,0,,,,,,362538,,,,,,,,
140401,note_on,30,0,9,,,,,,,,,13,,,,55,0
140402,note_on,50,0,3,,,,,,,,,3,,,,55,0
140403,note_on,0,0,7,,,,,,,,,11,,,,70,100
140403,note_on,30,0,10,,,,,,,,,14,,,,43,0
140403,note_on,10,0,7,,,,,,,,,11,,,,62,100
140403,note_on,10,0,1,,,,,,,,,0,,,,82,82
140404,note_on,10,0,4,,,,,,,,,4,,,,58,86
140405,note_on,10,0,2,,,,,,,,,1,,,,82,81
140405,note_on,0,0,2,,,,,,,,,1,,,,74,81
140406,note_on,10,0,8,,,,,,,,,12,,,,70,98
140406,note_on,10,0,5,,,,,,,,,5,,,,50,86
140411,note_on,10,0,9,,,,,,,,,13,,,,58,89
140412,note_on,10,0,3,,,,,,,,,3,,,,58,81
140413,note_on,10,0,10,,,,,,,,,14,,,,46,73
140430,note_on,30,0,6,,,,,,,,,10,,,,82,0
140430,note_on,0,0,6,,,,,,,,,10,,,,70,0
140433,note_on,30,0,7,,,,,,,,,11,,,,70,0
140433,note_on,0,0,7,,,,,,,,,11,,,,62,0
140436,note_on,30,0,8,,,,,,,,,12,,,,70,0
140440,note_on,0,0,6,,,,,,,,,10,,,,82,92
140440,note_on,10,0,6,,,,,,,,,10,,,,70,92
140440,set_tempo,40,1,0,,,,,,346821,,,,,,,,
140441,note_on,30,0,9,,,,,,,,,13,,,,58,0
140443,note_on,10,0,7,,,,,,,,,11,,,,62,92
140443,note_on,0,0,7,,,,,,,,,11,,,,70,92
140443,note_on,30,0,10,,,,,,,,,14,,,,46,0
140446,note_on,10,0,8,,,,,,,,,12,,,,70,90
140451,note_on,10,0,9,,,,,,,,,13,,,,58,81
140453,note_on,10,0,10,,,,,,,,,14,,,,46,65
140470,note_on,30,0,6,,,,,,,,,10,,,,82,0
140470,note_on,0,0,6,,,,,,,,,10,,,,70,0
140473,note_on,0,0,7,,,,,,,,,11,,,,62,0
140473,note_on,30,0,7,,,,,,,,,11,,,,70,0
140476,note_on,30,0,8,,,,,,,,,12,,,,70,0
140480,note_on,10,0,6,,,,,,,,,10,,,,70,100
140480,note_on,0,0,6,,,,,,,,,10,,,,82,100
140481,note_on,30,0,9,,,,,,,,,13,,,,58,0
140483,note_on,30,0,10,,,,,,,,,14,,,,46,0
140483,note_on,10,0,7,,,,,,,,,11,,,,62,100
140483,note_on,0,0,7,,,,,,,,,11,,,,70,100
140486,note_on,10,0,8,,,,,,,,,12,,,,70,98
140491,note_on,10,0,9,,,,,,,,,13,,,,58,89
140493,note_on,10,0,10,,,,,,,,,14,,,,46,73
140510,note_on,30,0,6,,,,,,,,,10,,,,82,0
140510,note_on,0,0,6,,,,,,,,,10,,,,70,0
140513,note_on,30,0,7,,,,,,,,,11,,,,70,0
140513,note_on,0,0,7,,,,,,,,,11,,,,62,0
140516,note_on,30,0,8,,,,,,,,,12,,,,70,0
140520,note_on,10,0,6,,,,,,,,,10,,,,74,92
140520,set_tempo,80,1,0,,,,,,390879,,,,,,,,
140521,note_on,30,0,9,,,,,,,,,13,,,,58,0
140522,note_on,110,0,3,,,,,,,,,3,,,,58,0
140523,note_on,30,0,10,,,,,,,,,14,,,,46,0
140523,note_on,10,0,7,,,,,,,,,11,,,,62,92
140526,note_on,10,0,8,,,,,,,,,12,,,,62,90
140531,note_on,10,0,9,,,,,,,,,13,,,,50,81
140532,note_on,10,0,3,,,,,,,,,3,,,,50,81
140533,note_on,10,0,10,,,,,,,,,14,,,,38,65
140550,note_on,30,0,6,,,,,,,,,10,,,,74,0
140553,note_on,30,0,7,,,,,,,,,11,,,,62,0
140556,note_on,30,0,8,,,,,,,,,12,,,,62,0
140560,set_tempo,40,1,0,,,,,,373832,,,,,,,,
140560,note_on,10,0,6,,,,,,,,,10,,,,74,100
140561,note_on,30,0,9,,,,,,,,,13,,,,50,0
140563,note_on,30,0,10,,,,,,,,,14,,,,38,0
140563,note_on,10,0,7,,,,,,,,,11,,,,62,100
140566,note_on,10,0,8,,,,,,,,,12,,,,62,98
140571,note_on,10,0,9,,,,,,,,,13,,,,50,89
140573,note_on,10,0,10,,,,,,,,,14,,,,38,73
140590,note_on,30,0,6,,,,,,,,,10,,,,74,0
140593,note_on,30,0,7,,,,,,,,,11,,,,62,0
140596,note_on,30,0,8,,,,,,,,,12,,,,62,0
140600,note_on,10,0,6,,,,,,,,,10,,,,74,92
140601,note_on,30,0,9,,,,,,,,,13,,,,50,0
140603,note_on,30,0,10,,,,,,,,,14,,,,38,0
140603,note_on,10,0,7,,,,,,,,,11,,,,62,92
140606,note_on,10,0,8,,,,,,,,,12,,,,62,90
140611,note_on,10,0,9,,,,,,,,,13,,,,50,81
140613,note_on,10,0,10,,,,,,,,,14,,,,38,65
140630,note_on,30,0,6,,,,,,,,,10,,,,74,0
140633,note_on,30,0,7,,,,,,,,,11,,,,62,0
140636,note_on,30,0,8,,,,,,,,,12,,,,62,0
140640,set_tempo,80,1,0,,,,,,362538,,,,,,,,
140640,note_on,10,0,6,,,,,,,,,10,,,,79,100
140641,note_on,30,0,9,,,,,,,,,13,,,,50,0
140642,note_on,110,0,3,,,,,,,,,3,,,,50,0
140643,note_on,10,0,7,,,,,,,,,11,,,,67,100
140643,note_on,30,0,10,,,,,,,,,14,,,,38,0
140646,note_on,10,0,8,,,,,,,,,12,,,,67,98
140651,note_on,10,0,9,,,,,,,,,13,,,,55,89
140652,note_on,10,0,3,,,,,,,,,3,,,,55,81
140653,note_on,10,0,10,,,,,,,,,14,,,,43,73
140670,note_on,30,0,6,,,,,,,,,10,,,,79,0
140673,note_on,30,0,7,,,,,,,,,11,,,,67,0
140676,note_on,30,0,8,,,,,,,,,12,,,,67,0
140680,note_on,10,0,6,,,,,,,,,10,,,,79,92
140680,set_tempo,40,1,0,,,,,,346821,,,,,,,,
140681,note_on,30,0,9,,,,,,,,,13,,,,55,0
140683,note_on,30,0,10,,,,,,,,,14,,,,43,0
140683,note_on,10,0,7,,,,,,,,,11,,,,67,92
140686,note_on,10,0,8,,,,,,,,,12,,,,67,90
140691,note_on,10,0,9,,,,,,,,,13,,,,55,81
140693,note_on,10,0,10,,,,,,,,,14,,,,43,65
140710,note_on,30,0,6,,,,,,,,,10,,,,79,0
140713,note_on,30,0,7,,,,,,,,,11,,,,67,0
140716,note_on,30,0,8,,,,,,,,,12,,,,67,0
140720,note_on,10,0,6,,,,,,,,,10,,,,79,100
140721,note_on,30,0,9,,,,,,,,,13,,,,55,0
140723,note_on,10,0,7,,,,,,,,,11,,,,67,100
140723,note_on,30,0,10,,,,,,,,,14,,,,43,0
140726,note_on,10,0,8,,,,,,,,,12,,,,67,98
140731,note_on,10,0,9,,,,,,,,,13,,,,55,89
140733,note_on,10,0,10,,,,,,,,,14,,,,43,73
140750,note_on,30,0,6,,,,,,,,,10,,,,79,0
140753,note_on,350,0,1,,,,,,,,,0,,,,82,0
140753,note_on,30,0,7,,,,,,,,,11,,,,67,0
140754,note_on,350,0,4,,,,,,,,,4,,,,58,0
140755,note_on,0,0,2,,,,,,,,,1,,,,82,0
140755,note_on,350,0,2,,,,,,,,,1,,,,74,0
140756,note_on,30,0,8,,,,,,,,,12,,,,67,0
140756,note_on,350,0,5,,,,,,,,,5,,,,50,0
140760,note_on,10,0,6,,,,,,,,,10,,,,76,92
140760,set_tempo,80,1,0,,,,,,390879,,,,,,,,
140761,note_on,30,0,9,,,,,,,,,13,,,,55,0
140762,note_on,110,0,3,,,,,,,,,3,,,,55,0
140763,note_on,10,0,1,,,,,,,,,0,,,,88,82
140763,note_on,10,0,7,,,,,,,,,11,,,,64,92
140763,note_on,30,0,10,,,,,,,,,14,,,,43,0
140764,note_on,10,0,4,,,,,,,,,4,,,,58,86
140765,note_on,10,0,2,,,,,,,,,1,,,,76,81
140765,note_on,0,0,2,,,,,,,,,1,,,,70,81
140766,note_on,10,0,8,,,,,,,,,12,,,,55,90
140766,note_on,10,0,5,,,,,,,,,5,,,,58,86
140771,note_on,10,0,9,,,,,,,,,13,,,,43,81
140772,note_on,10,0,3,,,,,,,,,3,,,,55,81
140773,note_on,10,0,10,,,,,,,,,14,,,,31,65
140790,note_on,30,0,6,,,,,,,,,10,,,,76,0
140793,note_on,30,0,7,,,,,,,,,11,,,,64,0
140796,note_on,30,0,8,,,,,,,,,12,,,,55,0
140800,set_tempo,40,1,0,,,,,,373832,,,,,,,,
140800,note_on,10,0,6,,,,,,,,,10,,,,76,100
140801,note_on,30,0,9,,,,,,,,,13,,,,43,0
140803,note_on,10,0,7,,,,,,,,,11,,,,64,100
140803,note_on,30,0,10,,,,,,,,,14,,,,31,0
140806,note_on,10,0,8,,,,,,,,,12,,,,55,98
140811,note_on,10,0,9,,,,,,,,,13,,,,43,89
140813,note_on,10,0,10,,,,,,,,,14,,,,31,73
140830,note_on,30,0,6,,,,,,,,,10,,,,76,0
140833,note_on,30,0,7,,,,,,,,,11,,,,64,0
140836,note_on,30,0,8,,,,,,,,,12,,,,55,0
140840,note_on,10,0,6,,,,,,,,,10,,,,76,92
140841,note_on,30,0,9,,,,,,,,,13,,,,43,0
140843,note_on,10,0,7,,,,,,,,,11,,,,64,92
140843,note_on,30,0,10,,,,,,,,,14,,,,31,0
140846,note_on,10,0,8,,,,,,,,,12,,,,55,90
140851,note_on,10,0,9,,,,,,,,,13,,,,43,81
140853,note_on,10,0,10,,,,,,,,,14,,,,31,65
140870,note_on,30,0,6,,,,,,,,,10,,,,76,0
140873,note_on,110,0,1,,,,,,,,,0,,,,88,0
140873,note_on,30,0,7,,,,,,,,,11,,,,64,0
140874,note_on,110,0,4,,,,,,,,,4,,,,58,0
140875,note_on,0,0,2,,,,,,,,,1,,,,76,0
140875,note_on,110,0,2,,,,,,,,,1,,,,70,0
140876,note_on,110,0,5,,,,,,,,,5,,,,58,0
140876,note_on,30,0,8,,,,,,,,,12,,,,55,0
140880,note_on,10,0,6,,,,,,,,,10,,,,77,100
140880,set_tempo,80,1,0,,,,,,362538,,,,,,,,
140880,note_on,0,0,6,,,,,,,,,10,,,,74,100
140881,note_on,30,0,9,,,,,,,,,13,,,,43,0
140882,note_on,110,0,3,,,,,,,,,3,,,,55,0
140883,note_on,10,0,1,,,,,,,,,0,,,,89,82
140883,note_on,10,0,7,,,,,,,,,11,,,,65,100
140883,note_on,30,0,10,,,,,,,,,14,,,,31,0
140884,note_on,10,0,4,,,,,,,,,4,,,,65,86
140885,note_on,0,0,2,,,,,,,,,1,,,,74,81
140885,note_on,10,0,2,,,,,,,,,1,,,,77,81
140886,note_on,10,0,8,,,,,,,,,12,,,,53,98
140886,note_on,10,0,5,,,,,,,,,5,,,,62,86
140891,note_on,10,0,9,,,,,,,,,13,,,,41,89
140892,note_on,10,0,3,,,,,,,,,3,,,,53,81
140893,note_on,10,0,10,,,,,,,,,14,,,,29,73
140910,note_on,0,0,6,,,,,,,,,10,,,,77,0
140910,note_on,30,0,6,,,,,,,,,10,,,,74,0
140913,note_on,30,0,7,,,,,,,,,11,,,,65,0
140916,note_on,30,0,8,,,,,,,,,12,,,,53,0
140920,set_tempo,40,1,0,,,,,,346821,,,,,,,,
140920,note_on,10,0,6,,,,,,,,,10,,,,77,92
140920,note_on,0,0,6,,,,,,,,,10,,,,74,92
140921,note_on,30,0,9,,,,,,,,,13,,,,41,0
140923,note_on,30,0,10,,,,,,,,,14,,,,29,0
140923,note_on,10,0,7,,,,,,,,,11,,,,70,92
140923,note_on,0,0,7,,,,,,,,,11,,,,62,92
140926,note_on,10,0,8,,,,,,,,,12,,,,53,90
140931,note_on,10,0,9,,,,,,,,,13,,,,41,81
140933,note_on,10,0,10,,,,,,,,,14,,,,29,65
140950,note_on,0,0,6,,,,,,,,,10,,,,77,0
140950,note_on,30,0,6,,,,,,,,,10,,,,74,0
140953,note_on,30,0,7,,,,,,,,,11,,,,62,0
140953,note_on,0,0,7,,,,,,,,,11,,,,70,0
140956,note_on,30,0,8,,,,,,,,,12,,,,53,0
140960,note_on,10,0,6,,,,,,,,,10,,,,77,100
140960,note_on,0,0,6,,,,,,,,,10,,,,74,100
140961,note_on,30,0,9,,,,,,,,,13,,,,41,0
140963,note_on,10,0,7,,,,,,,,,11,,,,70,100
140963,note_on,0,0,7,,,,,,,,,11,,,,62,100
140963,note_on,30,0,10,,,,,,,,,14,,,,29,0
140966,note_on,10,0,8,,,,,,,,,12,,,,53,98
140971,note_on,10,0,9,,,,,,,,,13,,,,41,89
140973,note_on,10,0,10,,,,,,,,,14,,,,29,73
140990,note_on,30,0,6,,,,,,,,,10,,,,74,0
140990,note_on,0,0,6,,,,,,,,,10,,,,77,0
140993,note_on,30,0,7,,,,,,,,,11,,,,62,0
140993,note_on,0,0,7,,,,,,,,,11,,,,70,0
140996,note_on,30,0,8,,,,,,,,,12,,,,53,0
141000,note_on,10,0,6,,,,,,,,,10,,,,74,92
141000,note_on,0,0,6,,,,,,,,,10,,,,77,92
141000,set_tempo,80,1,0,,,,,,390879,,,,,,,,
141001,note_on,30,0,9,,,,,,,,,13,,,,41,0
141003,note_on,30,0,10,,,,,,,,,14,,,,29,0
141003,note_on,0,0,7,,,,,,,,,11,,,,62,92
141003,note_on,10,0,7,,,,,,,,,11,,,,70,92
141006,note_on,10,0,8,,,,,,,,,12,,,,53,90
141011,note_on,10,0,9,,,,,,,,,13,,,,41,81
141013,note_on,10,0,10,,,,,,,,,14,,,,29,65
141030,note_on,0,0,6,,,,,,,,,10,,,,74,0
141030,note_on,30,0,6,,,,,,,,,10,,,,77,0
141033,note_on,0,0,7,,,,,,,,,11,,,,70,0
141033,note_on,30,0,7,,,,,,,,,11,,,,62,0
141036,note_on,30,0,8,,,,,,,,,12,,,,53,0
141040,note_on,10,0,6,,,,,,,,,10,,,,74,100
141040,set_tempo,40,1,0,,,,,,373832,,,,,,,,
141040,note_on,0,0,6,,,,,,,,,10,,,,77,100
141041,note_on,30,0,9,,,,,,,,,13,,,,41,0
141043,note_on,0,0,7,,,,,,,,,11,,,,62,100
141043,note_on,30,0,10,,,,,,,,,14,,,,29,0
141043,note_on,10,0,7,,,,,,,,,11,,,,70,100
141046,note_on,10,0,8,,,,,,,,,12,,,,53,98
141051,note_on,10,0,9,,,,,,,,,13,,,,41,89
141053,note_on,10,0,10,,,,,,,,,14,,,,29,73
141070,note_on,0,0,6,,,,,,,,,10,,,,74,0
141070,note_on,30,0,6,,,,,,,,,10,,,,77,0
141073,note_on,30,0,7,,,,,,,,,11,,,,62,0
141073,note_on,0,0,7,,,,,,,,,11,,,,70,0
141076,note_on,30,0,8,,,,,,,,,12,,,,53,0
141080,note_on,10,0,6,,,,,,,,,10,,,,77,92
141080,note_on,0,0,6,,,,,,,,,10,,,,74,92
141081,note_on,30,0,9,,,,,,,,,13,,,,41,0
141083,note_on,30,0,10,,,,,,,,,14,,,,29,0
141083,note_on,0,0,7,,,,,,,,,11,,,,62,92
141083,note_on,10,0,7,,,,,,,,,11,,,,70,92
141086,note_on,10,0,8,,,,,,,,,12,,,,53,90
141091,note_on,10,0,9,,,,,,,,,13,,,,41,81
141093,note_on,10,0,10,,,,,,,,,14,,,,29,65
141110,note_on,0,0,6,,,,,,,,,10,,,,77,0
141110,note_on,30,0,6,,,,,,,,,10,,,,74,0
141113,note_on,230,0,1,,,,,,,,,0,,,,89,0
141113,note_on,30,0,7,,,,,,,,,11,,,,62,0
141113,note_on,0,0,7,,,,,,,,,11,,,,70,0
141114,note_on,230,0,4,,,,,,,,,4,,,,65,0
141115,note_on,0,0,2,,,,,,,,,1,,,,77,0
141115,note_on,230,0,2,,,,,,,,,1,,,,74,0
141116,note_on,230,0,5,,,,,,,,,5,,,,62,0
141116,note_on,30,0,8,,,,,,,,,12,,,,53,0
141120,note_on,10,0,6,,,,,,,,,10,,,,75,100
141120,set_tempo,80,1,0,,,,,,362538,,,,,,,,
141121,note_on,30,0,9,,,,,,,,,13,,,,41,0
141123,note_on,10,0,7,,,,,,,,,11,,,,69,100
141123,note_on,0,0,7,,,,,,,,,11,,,,63,100
141123,note_on,30,0,10,,,,,,,,,14,,,,29,0
141123,note_on,10,0,1,,,,,,,,,0,,,,87,82
141124,note_on,10,0,4,,,,,,,,,4,,,,63,86
141125,note_on,10,0,2,,,,,,,,,1,,,,72,81
141125,note_on,0,0,2,,,,,,,,,1,,,,75,81
141126,note_on,10,0,8,,,,,,,,,12,,,,53,98
141126,note_on,10,0,5,,,,,,,,,5,,,,60,86
141131,note_on,10,0,9,,,,,,,,,13,,,,53,89
141133,note_on,10,0,10,,,,,,,,,14,,,,41,73
141150,note_on,30,0,6,,,,,,,,,10,,,,75,0
141153,note_on,0,0,7,,,,,,,,,11,,,,69,0
141153,note_on,30,0,7,,,,,,,,,11,,,,63,0
141156,note_on,30,0,8,,,,,,,,,12,,,,53,0
141160,note_on,10,0,6,,,,,,,,,10,,,,75,92
141160,set_tempo,40,1,0,,,,,,346821,,,,,,,,
141161,note_on,30,0,9,,,,,,,,,13,,,,53,0
141163,note_on,30,0,10,,,,,,,,,14,,,,41,0
141163,note_on,0,0,7,,,,,,,,,11,,,,63,92
141163,note_on,10,0,7,,,,,,,,,11,,,,69,92
141166,note_on,10,0,8,,,,,,,,,12,,,,53,90
141171,note_on,10,0,9,,,,,,,,,13,,,,53,81
141173,note_on,10,0,10,,,,,,,,,14,,,,41,65
141190,note_on,30,0,6,,,,,,,,,10,,,,75,0
141193,note_on,0,0,7,,,,,,,,,11,,,,69,0
141193,note_on,30,0,7,,,,,,,,,11,,,,63,0
141196,note_on,30,0,8,,,,,,,,,12,,,,53,0
141200,note_on,10,0,6,,,,,,,,,10,,,,75,100
141201,note_on,30,0,9,,,,,,,,,13,,,,53,0
141203,note_on,0,0,7,,,,,,,,,11,,,,63,100
141203,note_on,30,0,10,,,,,,,,,14,,,,41,0
141203,note_on,10,0,7,,,,,,,,,11,,,,69,100
141206,note_on,10,0,8,,,,,,,,,12,,,,53,98
141211,note_on,10,0,9,,,,,,,,,13,,,,53,89
141213,note_on,10,0,10,,,,,,,,,14,,,,41,73
141230,note_on,30,0,6,,,,,,,,,10,,,,75,0
141233,note_on,110,0,1,,,,,,,,,0,,,,87,0
141233,note_on,30,0,7,,,,,,,,,11,,,,63,0
141233,note_on,0,0,7,,,,,,,,,11,,,,69,0
141234,note_on,110,0,4,,,,,,,,,4,,,,63,0
141235,note_on,0,0,2,,,,,,,,,1,,,,72,0
141235,note_on,110,0,2,,,,,,,,,1,,,,75,0
141236,note_on,30,0,8,,,,,,,,,12,,,,53,0
141236,note_on,110,0,5,,,,,,,,,5,,,,60,0
141240,note_on,10,0,6,,,,,,,,,10,,,,72,92
141240,set_tempo,80,1,0,,,,,,390879,,,,,,,,
141241,note_on,30,0,9,,,,,,,,,13,,,,53,0
141243,note_on,10,0,1,,,,,,,,,0,,,,84,82
141243,note_on,0,0,7,,,,,,,,,11,,,,63,92
141243,note_on,30,0,10,,,,,,,,,14,,,,41,0
141243,note_on,10,0,7,,,,,,,,,11,,,,69,92
141244,note_on,10,0,4,,,,,,,,,4,,,,60,86
141245,note_on,0,0,2,,,,,,,,,1,,,,72,81
141245,note_on,10,0,2,,,,,,,,,1,,,,69,81
141246,note_on,10,0,8,,,,,,,,,12,,,,53,90
141246,note_on,10,0,5,,,,,,,,,5,,,,53,86
141251,note_on,10,0,9,,,,,,,,,13,,,,53,81
141253,note_on,10,0,10,,,,,,,,,14,,,,41,65
141270,note_on,30,0,6,,,,,,,,,10,,,,72,0
141273,note_on,30,0,7,,,,,,,,,11,,,,63,0
141273,note_on,0,0,7,,,,,,,,,11,,,,69,0
141276,note_on,30,0,8,,,,,,,,,12,,,,53,0
141280,set_tempo,40,1,0,,,,,,373832,,,,,,,,
141280,note_on,10,0,6,,,,,,,,,10,,,,72,100
141281,note_on,30,0,9,,,,,,,,,13,,,,53,0
141283,note_on,10,0,7,,,,,,,,,11,,,,69,100
141283,note_on,30,0,10,,,,,,,,,14,,,,41,0
141283,note_on,0,0,7,,,,,,,,,11,,,,63,100
141286,note_on,10,0,8,,,,,,,,,12,,,,53,98
141291,note_on,10,0,9,,,,,,,,,13,,,,53,89
141293,note_on,10,0,10,,,,,,,,,14,,,,41,73
141310,note_on,30,0,6,,,,,,,,,10,,,,72,0
141313,note_on,0,0,7,,,,,,,,,11,,,,69,0
141313,note_on,30,0,7,,,,,,,,,11,,,,63,0
141316,note_on,30,0,8,,,,,,,,,12,,,,53,0
141320,note_on,10,0,6,,,,,,,,,10,,,,72,92
141321,note_on,30,0,9,,,,,,,,,13,,,,53,0
141323,note_on,0,0,7,,,,,,,,,11,,,,63,92
141323,note_on,30,0,10,,,,,,,,,14,,,,41,0
141323,note_on,10,0,7,,,,,,,,,11,,,,69,92
141326,note_on,10,0,8,,,,,,,,,12,,,,53,90
141330,set_tempo,50,1,0,,,,,,461538,,,,,,,,
141331,note_on,10,0,9,,,,,,,,,13,,,,53,81
141333,control_change,90,0,1,,,,,,,,,0,11,79,,,
141333,note_on,10,0,10,,,,,,,,,14,,,,41,65
141334,control_change,90,0,4,,,,,,,,,4,11,79,,,
141335,control_change,90,0,2,,,,,,,,,1,11,79,,,
141336,control_change,90,0,5,,,,,,,,,5,11,79,,,
141339,control_change,6,0,1,,,,,,,,,0,11,75,,,
141340,control_change,20,0,6,,,,,,,,,10,11,79,,,
141340,control_change,6,0,4,,,,,,,,,4,11,75,,,
141341,control_change,6,0,2,,,,,,,,,1,11,75,,,
141342,control_change,6,0,5,,,,,,,,,5,11,75,,,
141342,control_change,450,0,3,,,,,,,,,3,11,79,,,
141343,control_change,4,0,1,,,,,,,,,0,11,72,,,
141343,control_change,20,0,7,,,,,,,,,11,11,79,,,
141344,control_change,4,0,4,,,,,,,,,4,11,72,,,
141344,control_change,4,0,6,,,,,,,,,10,11,76,,,
141345,control_change,4,0,2,,,,,,,,,1,11,72,,,
141346,control_change,20,0,8,,,,,,,,,12,11,79,,,
141346,control_change,4,0,5,,,,,,,,,5,11,72,,,
141347,control_change,4,0,7,,,,,,,,,11,11,76,,,
141348,control_change,5,0,1,,,,,,,,,0,11,69,,,
141348,control_change,4,0,6,,,,,,,,,10,11,73,,,
141348,control_change,6,0,3,,,,,,,,,3,11,75,,,
141349,control_change,5,0,4,,,,,,,,,4,11,69,,,
141350,control_change,4,0,8,,,,,,,,,12,11,76,,,
141350,control_change,5,0,2,,,,,,,,,1,11,69,,,
141350,note_on,2,0,6,,,,,,,,,10,,,,72,0
141351,control_change,5,0,5,,,,,,,,,5,11,69,,,
141351,control_change,4,0,7,,,,,,,,,11,11,73,,,
141351,control_change,20,0,9,,,,,,,,,13,11,79,,,
141352,control_change,4,0,3,,,,,,,,,3,11,72,,,
141352,control_change,4,0,1,,,,,,,,,0,11,66,,,
141353,note_on,0,0,7,,,,,,,,,11,,,,69,0
141353,control_change,4,0,4,,,,,,,,,4,11,66,,,
141353,note_on,2,0,7,,,,,,,,,11,,,,63,0
141353,control_change,20,0,10,,,,,,,,,14,11,79,,,
141353,note_on,1,0,1,,,,,,,,,0,,,,84,0
141354,control_change,4,0,2,,,,,,,,,1,11,66,,,
141354,note_on,1,0,4,,,,,,,,,4,,,,60,0
141354,control_change,4,0,8,,,,,,,,,12,11,73,,,
141355,control_change,4,0,9,,,,,,,,,13,11,76,,,
141355,control_change,4,0,5,,,,,,,,,5,11,66,,,
141355,note_on,1,0,2,,,,,,,,,1,,,,72,0
141355,note_on,0,0,2,,,,,,,,,1,,,,69,0
141356,note_on,1,0,5,,,,,,,,,5,,,,53,0
141356,control_change,6,0,6,,,,,,,,,10,11,68,,,
141356,note_on,2,0,8,,,,,,,,,12,,,,53,0
141357,control_change,5,0,3,,,,,,,,,3,11,69,,,
141357,control_change,4,0,10,,,,,,,,,14,11,76,,,
141359,control_change,4,0,9,,,,,,,,,13,11,73,,,
141359,control_change,6,0,7,,,,,,,,,11,11,68,,,
141360,control_change,4,0,6,,,,,,,,,10,11,65,,,
141360,set_tempo,30,1,0,,,,,,362538,,,,,,,,
141360,note_on,0,0,6,,,,,,,,,10,,,,70,100
141361,control_change,8,0,1,,,,,,,,,0,11,61,,,
141361,control_change,4,0,3,,,,,,,,,3,11,66,,,
141361,note_on,2,0,9,,,,,,,,,13,,,,53,0
141361,control_change,4,0,10,,,,,,,,,14,11,73,,,
141362,control_change,8,0,4,,,,,,,,,4,11,61,,,
141362,note_on,1,0,3,,,,,,,,,3,,,,53,0
141362,control_change,6,0,8,,,,,,,,,12,11,68,,,
141363,note_on,2,0,10,,,,,,,,,14,,,,41,0
141363,control_change,8,0,2,,,,,,,,,1,11,61,,,
141363,note_on,2,0,1,,,,,,,,,0,,,,82,82
141363,note_on,0,0,7,,,,,,,,,11,,,,62,100
141363,control_change,4,0,7,,,,,,,,,11,11,65,,,
141363,note_on,0,0,7,,,,,,,,,11,,,,70,100
141364,control_change,8,0,5,,,,,,,,,5,11,61,,,
141364,control_change,4,0,6,,,,,,,,,10,11,62,,,
141364,note_on,2,0,4,,,,,,,,,4,,,,58,86
141365,note_on,0,0,2,,,,,,,,,1,,,,74,81
141365,note_on,2,0,2,,,,,,,,,1,,,,77,81
141366,note_on,2,0,5,,,,,,,,,5,,,,50,86
141366,control_change,3,0,1,,,,,,,,,0,11,57,,,
141366,note_on,0,0,8,,,,,,,,,12,,,,58,98
141366,control_change,4,0,8,,,,,,,,,12,11,65,,,
141367,control_change,4,0,7,,,,,,,,,11,11,62,,,
141367,control_change,6,0,9,,,,,,,,,13,11,68,,,
141367,control_change,3,0,4,,,,,,,,,4,11,57,,,
141368,control_change,3,0,2,,,,,,,,,1,11,57,,,
141368,control_change,4,0,6,,,,,,,,,10,11,59,,,
141369,control_change,6,0,10,,,,,,,,,14,11,68,,,
141369,control_change,3,0,5,,,,,,,,,5,11,57,,,
141370,control_change,4,0,1,,,,,,,,,0,11,53,,,
141370,control_change,8,0,3,,,,,,,,,3,11,61,,,
141370,control_change,4,0,8,,,,,,,,,12,11,62,,,
141371,note_on,0,0,9,,,,,,,,,13,,,,46,89
141371,control_change,4,0,9,,,,,,,,,13,11,65,,,
141371,control_change,4,0,7,,,,,,,,,11,11,59,,,
141371,control_change,4,0,4,,,,,,,,,4,11,53,,,
141372,control_change,4,0,2,,,,,,,,,1,11,53,,,
141372,control_change,4,0,6,,,,,,,,,10,11,55,,,
141372,note_on,2,0,3,,,,,,,,,3,,,,46,81
141373,control_change,4,0,5,,,,,,,,,5,11,53,,,
141373,note_on,0,0,10,,,,,,,,,14,,,,34,73
141373,control_change,4,0,10,,,,,,,,,14,11,65,,,
141374,control_change,4,0,8,,,,,,,,,12,11,59,,,
141375,control_change,4,0,7,,,,,,,,,11,11,55,,,
141375,control_change,5,0,1,,,,,,,,,0,11,49,,,
141375,control_change,4,0,9,,,,,,,,,13,11,62,,,
141375,control_change,3,0,3,,,,,,,,,3,11,57,,,
141376,control_change,4,0,6,,,,,,,,,10,11,51,,,
141376,control_change,5,0,4,,,,,,,,,4,11,49,,,
141377,control_change,5,0,2,,,,,,,,,1,11,49,,,
141377,control_change,4,0,10,,,,,,,,,14,11,62,,,
141378,control_change,5,0,5,,,,,,,,,5,11,49,,,
141378,control_change,4,0,8,,,,,,,,,12,11,55,,,
141379,control_change,4,0,7,,,,,,,,,11,11,51,,,
141379,control_change,4,0,9,,,,,,,,,13,11,59,,,
141379,control_change,4,0,3,,,,,,,,,3,11,53,,,
141380,control_change,4,0,6,,,,,,,,,10,11,47,,,
141381,control_change,4,0,10,,,,,,,,,14,11,59,,,
141382,control_change,4,0,8,,,,,,,,,12,11,51,,,
141383,control_change,4,0,7,,,,,,,,,11,11,47,,,
141383,control_change,4,0,9,,,,,,,,,13,11,55,,,
141384,control_change,5,0,3,,,,,,,,,3,11,49,,,
141385,control_change,4,0,10,,,,,,,,,14,11,55,,,
141386,control_change,4,0,8,,,,,,,,,12,11,47,,,
141387,control_change,4,0,9,,,,,,,,,13,11,51,,,
141389,control_change,4,0,10,,,,,,,,,14,11,51,,,
141390,note_on,10,0,6,,,,,,,,,10,,,,70,0
141391,control_change,4,0,9,,,,,,,,,13,11,47,,,
141393,control_change,4,0,10,,,,,,,,,14,11,47,,,
141400,note_on,10,0,6,,,,,,,,,10,,,,86,100
141400,set_tempo,40,1,0,,,,,,346821,,,,,,,,
141423,note_on,40,0,7,,,,,,,,,11,,,,62,0
141423,note_on,48,0,1,,,,,,,,,0,,,,82,0
141423,note_on,0,0,7,,,,,,,,,11,,,,70,0
141425,note_on,48,0,2,,,,,,,,,1,,,,74,0
141425,note_on,0,0,2,,,,,,,,,1,,,,77,0
141426,note_on,40,0,8,,,,,,,,,12,,,,58,0
141430,note_on,30,0,6,,,,,,,,,10,,,,86,0
141440,note_on,10,0,6,,,,,,,,,10,,,,82,100
141470,note_on,30,0,6,,,,,,,,,10,,,,82,0
141480,set_tempo,80,1,0,,,,,,390879,,,,,,,,
141480,note_on,10,0,6,,,,,,,,,10,,,,81,100
141483,note_on,60,0,7,,,,,,,,,11,,,,72,100
141483,note_on,60,0,1,,,,,,,,,0,,,,81,82
141484,note_on,108,0,4,,,,,,,,,4,,,,58,0
141485,note_on,60,0,2,,,,,,,,,1,,,,72,81
141485,note_on,0,0,2,,,,,,,,,1,,,,77,81
141486,note_on,108,0,5,,,,,,,,,5,,,,50,0
141486,note_on,60,0,8,,,,,,,,,12,,,,65,98
141491,note_on,100,0,9,,,,,,,,,13,,,,46,0
141492,note_on,108,0,3,,,,,,,,,3,,,,46,0
141493,note_on,100,0,10,,,,,,,,,14,,,,34,0
141510,note_on,30,0,6,,,,,,,,,10,,,,81,0
141520,set_tempo,40,1,0,,,,,,373832,,,,,,,,
141520,note_on,10,0,6,,,,,,,,,10,,,,84,100
141543,note_on,60,0,7,,,,,,,,,11,,,,72,0
141543,note_on,60,0,1,,,,,,,,,0,,,,81,0
141545,note_on,60,0,2,,,,,,,,,1,,,,77,0
141545,note_on,0,0,2,,,,,,,,,1,,,,72,0
141546,note_on,60,0,8,,,,,,,,,12,,,,65,0
141550,note_on,30,0,6,,,,,,,,,10,,,,84,0
141560,note_on,10,0,6,,,,,,,,,10,,,,81,100
141590,note_on,30,0,6,,,,,,,,,10,,,,81,0
141600,note_on,10,0,6,,,,,,,,,10,,,,79,100
141600,set_tempo,80,1,0,,,,,,362538,,,,,,,,
141603,note_on,60,0,7,,,,,,,,,11,,,,70,100
141603,note_on,60,0,1,,,,,,,,,0,,,,79,82
141605,note_on,0,0,2,,,,,,,,,1,,,,70,81
141605,note_on,60,0,2,,,,,,,,,1,,,,74,81
141606,note_on,60,0,8,,,,,,,,,12,,,,67,98
141630,note_on,30,0,6,,,,,,,,,10,,,,79,0
141640,set_tempo,40,1,0,,,,,,346821,,,,,,,,
141640,note_on,10,0,6,,,,,,,,,10,,,,82,100
141663,note_on,60,0,7,,,,,,,,,11,,,,70,0
141663,note_on,60,0,1,,,,,,,,,0,,,,79,0
141665,note_on,0,0,2,,,,,,,,,1,,,,74,0
141665,note_on,60,0,2,,,,,,,,,1,,,,70,0
141666,note_on,60,0,8,,,,,,,,,12,,,,67,0
141670,note_on,30,0,6,,,,,,,,,10,,,,82,0
141680,note_on,10,0,6,,,,,,,,,10,,,,79,100
141710,note_on,30,0,6,,,,,,,,,10,,,,79,0
141720,note_on,10,0,6,,,,,,,,,10,,,,77,100
141720,set_tempo,80,1,0,,,,,,390879,,,,,,,,
141723,note_on,60,0,7,,,,,,,,,11,,,,69,100
141723,note_on,60,0,1,,,,,,,,,0,,,,77,82
141725,note_on,60,0,2,,,,,,,,,1,,,,69,81
141725,note_on,0,0,2,,,,,,,,,1,,,,74,81
141726,note_on,60,0,8,,,,,,,,,12,,,,62,98
141750,note_on,30,0,6,,,,,,,,,10,,,,77,0
141760,note_on,10,0,6,,,,,,,,,10,,,,81,100
141760,set_tempo,40,1,0,,,,,,373832,,,,,,,,
141783,note_on,60,0,7,,,,,,,,,11,,,,69,0
141783,note_on,60,0,1,,,,,,,,,0,,,,77,0
141785,note_on,0,0,2,,,,,,,,,1,,,,69,0
141785,note_on,60,0,2,,,,,,,,,1,,,,74,0
141786,note_on,60,0,8,,,,,,,,,12,,,,62,0
141790,note_on,30,0,6,,,,,,,,,10,,,,81,0
141800,note_on,10,0,6,,,,,,,,,10,,,,77,100
141830,note_on,30,0,6,,,,,,,,,10,,,,77,0
141840,note_on,10,0,6,,,,,,,,,10,,,,75,100
141840,set_tempo,80,1,0,,,,,,362538,,,,,,,,
141843,note_on,60,0,7,,,,,,,,,11,,,,67,100
141843,note_on,60,0,1,,,,,,,,,0,,,,75,82
141845,note_on,0,0,2,,,,,,,,,1,,,,70,81
141845,note_on,60,0,2,,,,,,,,,1,,,,67,81
141846,note_on,60,0,8,,,,,,,,,12,,,,63,98
141870,note_on,30,0,6,,,,,,,,,10,,,,75,0
141880,note_on,10,0,6,,,,,,,,,10,,,,79,100
141880,set_tempo,40,1,0,,,,,,346821,,,,,,,,
141903,note_on,60,0,7,,,,,,,,,11,,,,67,0
141903,note_on,60,0,1,,,,,,,,,0,,,,75,0
141905,note_on,60,0,2,,,,,,,,,1,,,,70,0
141905,note_on,0,0,2,,,,,,,,,1,,,,67,0
141906,note_on,60,0,8,,,,,,,,,12,,,,63,0
141910,note_on,30,0,6,,,,,,,,,10,,,,79,0
141920,note_on,10,0,6,,,,,,,,,10,,,,75,100
141950,note_on,30,0,6,,,,,,,,,10,,,,75,0
141960,note_on,10,0,6,,,,,,,,,10,,,,74,100
141960,set_tempo,80,1,0,,,,,,390879,,,,,,,,
141963,note_on,60,0,7,,,,,,,,,11,,,,65,100
141963,note_on,60,0,1,,,,,,,,,0,,,,74,82
141965,note_on,60,0,2,,,,,,,,,1,,,,65,81
141965,note_on,0,0,2,,,,,,,,,1,,,,70,81
141966,note_on,60,0,8,,,,,,,,,12,,,,58,98
141990,note_on,30,0,6,,,,,,,,,10,,,,74,0
142000,note_on,10,0,6,,,,,,,,,10,,,,77,100
142000,set_tempo,40,1,0,,,,,,373832,,,,,,,,
142023,note_on,60,0,1,,,,,,,,,0,,,,74,0
142023,note_on,60,0,7,,,,,,,,,11,,,,65,0
142025,note_on,0,0,2,,,,,,,,,1,,,,65,0
142025,note_on,60,0,2,,,,,,,,,1,,,,70,0
142026,note_on,60,0,8,,,,,,,,,12,,,,58,0
142030,note_on,30,0,6,,,,,,,,,10,,,,77,0
142040,note_on,10,0,6,,,,,,,,,10,,,,74,100
142070,note_on,30,0,6,,,,,,,,,10,,,,74,0
142080,note_on,10,0,6,,,,,,,,,10,,,,72,100
142080,set_tempo,80,1,0,,,,,,362538,,,,,,,,
142083,note_on,60,0,7,,,,,,,,,11,,,,63,100
142083,note_on,60,0,1,,,,,,,,,0,,,,72,82
142085,note_on,0,0,2,,,,,,,,,1,,,,67,81
142085,note_on,60,0,2,,,,,,,,,1,,,,63,81
142086,note_on,60,0,8,,,,,,,,,12,,,,60,98
142110,note_on,30,0,6,,,,,,,,,10,,,,72,0
142120,note_on,10,0,6,,,,,,,,,10,,,,75,100
142120,set_tempo,40,1,0,,,,,,346821,,,,,,,,
142143,note_on,60,0,1,,,,,,,,,0,,,,72,0
142143,note_on,60,0,7,,,,,,,,,11,,,,63,0
142145,note_on,0,0,2,,,,,,,,,1,,,,63,0
142145,note_on,60,0,2,,,,,,,,,1,,,,67,0
142146,note_on,60,0,8,,,,,,,,,12,,,,60,0
142150,note_on,30,0,6,,,,,,,,,10,,,,75,0
142160,note_on,10,0,6,,,,,,,,,10,,,,72,100
142190,note_on,30,0,6,,,,,,,,,10,,,,72,0
142200,set_tempo,80,1,0,,,,,,390879,,,,,,,,
142200,note_on,10,0,6,,,,,,,,,10,,,,70,100
142203,note_on,60,0,7,,,,,,,,,11,,,,62,100
142203,note_on,60,0,1,,,,,,,,,0,,,,70,82
142205,note_on,0,0,2,,,,,,,,,1,,,,62,81
142205,note_on,60,0,2,,,,,,,,,1,,,,67,81
142206,note_on,60,0,8,,,,,,,,,12,,,,55,98
142230,note_on,30,0,6,,,,,,,,,10,,,,70,0
142240,set_tempo,40,1,0,,,,,,373832,,,,,,,,
142240,note_on,10,0,6,,,,,,,,,10,,,,74,100
142263,note_on,60,0,7,,,,,,,,,11,,,,62,0
142263,note_on,60,0,1,,,,,,,,,0,,,,70,0
142265,note_on,60,0,2,,,,,,,,,1,,,,62,0
142265,note_on,0,0,2,,,,,,,,,1,,,,67,0
142266,note_on,60,0,8,,,,,,,,,12,,,,55,0
142270,note_on,30,0,6,,,,,,,,,10,,,,74,0
142280,note_on,10,0,6,,,,,,,,,10,,,,70,100
142305,control_change,25,0,6,,,,,,,,,10,11,47,,,
142307,control_change,2,0,6,,,,,,,,,10,11,51,,,
142308,control_change,45,0,7,,,,,,,,,11,11,47,,,
142309,control_change,2,0,6,,,,,,,,,10,11,55,,,
142310,control_change,2,0,7,,,,,,,,,11,11,51,,,
142310,note_on,1,0,6,,,,,,,,,10,,,,70,0
142311,control_change,1,0,6,,,,,,,,,10,11,59,,,
142311,control_change,45,0,8,,,,,,,,,12,11,47,,,
142312,control_change,2,0,7,,,,,,,,,11,11,55,,,
142313,control_change,2,0,6,,,,,,,,,10,11,62,,,
142313,control_change,2,0,8,,,,,,,,,12,11,51,,,
142314,control_change,2,0,7,,,,,,,,,11,11,59,,,
142315,control_change,2,0,6,,,,,,,,,10,11,65,,,
142315,control_change,2,0,8,,,,,,,,,12,11,55,,,
142316,control_change,2,0,7,,,,,,,,,11,11,62,,,
142316,control_change,825,0,9,,,,,,,,,13,11,47,,,
142317,control_change,2,0,6,,,,,,,,,10,11,68,,,
142317,control_change,2,0,8,,,,,,,,,12,11,59,,,
142318,control_change,825,0,10,,,,,,,,,14,11,47,,,
142318,control_change,2,0,9,,,,,,,,,13,11,51,,,
142318,control_change,2,0,7,,,,,,,,,11,11,65,,,
142319,control_change,2,0,6,,,,,,,,,10,11,71,,,
142319,control_change,2,0,8,,,,,,,,,12,11,62,,,
142320,set_tempo,80,1,0,,,,,,362538,,,,,,,,
142320,control_change,2,0,10,,,,,,,,,14,11,51,,,
142320,note_on,0,0,6,,,,,,,,,10,,,,79,100
142320,note_on,1,0,6,,,,,,,,,10,,,,70,100
142320,control_change,2,0,7,,,,,,,,,11,11,68,,,
142320,control_change,2,0,9,,,,,,,,,13,11,55,,,
142321,control_change,2,0,8,,,,,,,,,12,11,65,,,
142322,control_change,2,0,7,,,,,,,,,11,11,71,,,
142322,control_change,2,0,10,,,,,,,,,14,11,55,,,
142322,control_change,2,0,9,,,,,,,,,13,11,59,,,
142323,control_change,2,0,8,,,,,,,,,12,11,68,,,
142323,note_on,1,0,7,,,,,,,,,11,,,,70,100
142323,note_on,0,0,1,,,,,,,,,0,,,,79,82
142323,control_change,3,0,6,,,,,,,,,10,11,76,,,
142323,control_change,60,0,1,,,,,,,,,0,11,79,,,
142323,note_on,0,0,7,,,,,,,,,11,,,,67,100
142324,control_change,2,0,9,,,,,,,,,13,11,62,,,
142324,control_change,840,0,4,,,,,,,,,4,11,79,,,
142324,note_on,0,0,4,,,,,,,,,4,,,,58,86
142324,control_change,2,0,10,,,,,,,,,14,11,59,,,
142325,note_on,0,0,2,,,,,,,,,1,,,,63,81
142325,control_change,60,0,2,,,,,,,,,1,11,79,,,
142325,control_change,2,0,8,,,,,,,,,12,11,71,,,
142325,control_change,2,0,6,,,,,,,,,10,11,79,,,
142325,note_on,0,0,2,,,,,,,,,1,,,,75,81
142326,control_change,2,0,9,,,,,,,,,13,11,65,,,
142326,control_change,3,0,7,,,,,,,,,11,11,76,,,
142326,note_on,1,0,8,,,,,,,,,12,,,,51,98
142326,note_on,0,0,5,,,,,,,,,5,,,,46,86
142326,control_change,2,0,10,,,,,,,,,14,11,62,,,
142326,control_change,840,0,5,,,,,,,,,5,11,79,,,
142328,control_change,2,0,10,,,,,,,,,14,11,65,,,
142328,control_change,2,0,9,,,,,,,,,13,11,68,,,
142328,control_change,2,0,7,,,,,,,,,11,11,79,,,
142329,control_change,3,0,8,,,,,,,,,12,11,76,,,
142330,control_change,2,0,9,,,,,,,,,13,11,71,,,
142330,control_change,2,0,10,,,,,,,,,14,11,68,,,
142331,note_on,1,0,9,,,,,,,,,13,,,,51,89
142331,control_change,2,0,8,,,,,,,,,12,11,79,,,
142332,note_on,0,0,3,,,,,,,,,3,,,,51,81
142332,control_change,2,0,10,,,,,,,,,14,11,71,,,
142332,control_change,840,0,3,,,,,,,,,3,11,79,,,
142333,note_on,1,0,10,,,,,,,,,14,,,,39,73
142334,control_change,3,0,9,,,,,,,,,13,11,76,,,
142336,control_change,2,0,9,,,,,,,,,13,11,79,,,
142336,control_change,3,0,10,,,,,,,,,14,11,76,,,
142338,control_change,2,0,10,,,,,,,,,14,11,79,,,
142350,note_on,25,0,6,,,,,,,,,10,,,,79,0
142350,note_on,0,0,6,,,,,,,,,10,,,,70,0
142353,note_on,25,0,7,,,,,,,,,11,,,,67,0
142353,note_on,0,0,7,,,,,,,,,11,,,,70,0
142356,note_on,25,0,8,,,,,,,,,12,,,,51,0
142360,note_on,0,0,6,,,,,,,,,10,,,,79,92
142360,set_tempo,40,1,0,,,,,,346821,,,,,,,,
142360,note_on,10,0,6,,,,,,,,,10,,,,70,92
142361,note_on,25,0,9,,,,,,,,,13,,,,51,0
142363,note_on,0,0,7,,,,,,,,,11,,,,70,92
142363,note_on,25,0,10,,,,,,,,,14,,,,39,0
142363,note_on,10,0,7,,,,,,,,,11,,,,67,92
142366,note_on,10,0,8,,,,,,,,,12,,,,51,90
142371,note_on,10,0,9,,,,,,,,,13,,,,51,81
142373,note_on,10,0,10,,,,,,,,,14,,,,39,65
142390,note_on,0,0,6,,,,,,,,,10,,,,70,0
142390,note_on,30,0,6,,,,,,,,,10,,,,79,0
142393,note_on,30,0,7,,,,,,,,,11,,,,70,0
142393,note_on,0,0,7,,,,,,,,,11,,,,67,0
142396,note_on,30,0,8,,,,,,,,,12,,,,51,0
142400,note_on,10,0,6,,,,,,,,,10,,,,79,100
142400,note_on,0,0,6,,,,,,,,,10,,,,70,100
142401,note_on,30,0,9,,,,,,,,,13,,,,51,0
142403,note_on,0,0,7,,,,,,,,,11,,,,70,100
142403,note_on,30,0,10,,,,,,,,,14,,,,39,0
142403,note_on,10,0,7,,,,,,,,,11,,,,67,100
142406,note_on,10,0,8,,,,,,,,,12,,,,51,98
142411,note_on,10,0,9,,,,,,,,,13,,,,51,89
142413,note_on,10,0,10,,,,,,,,,14,,,,39,73
142430,note_on,30,0,6,,,,,,,,,10,,,,70,0
142430,note_on,0,0,6,,,,,,,,,10,,,,79,0
142433,note_on,0,0,7,,,,,,,,,11,,,,67,0
142433,note_on,30,0,7,,,,,,,,,11,,,,70,0
142436,note_on,30,0,8,,,,,,,,,12,,,,51,0
142440,note_on,10,0,6,,,,,,,,,10,,,,70,92
142440,set_tempo,80,1,0,,,,,,390879,,,,,,,,
142440,note_on,0,0,6,,,,,,,,,10,,,,79,92
142441,note_on,30,0,9,,,,,,,,,13,,,,51,0
142443,note_on,10,0,7,,,,,,,,,11,,,,67,92
142443,note_on,0,0,7,,,,,,,,,11,,,,70,92
142443,note_on,30,0,10,,,,,,,,,14,,,,39,0
142446,note_on,10,0,8,,,,,,,,,12,,,,51,90
142451,note_on,10,0,9,,,,,,,,,13,,,,51,81
142453,note_on,10,0,10,,,,,,,,,14,,,,39,65
142470,note_on,0,0,6,,,,,,,,,10,,,,70,0
142470,note_on,30,0,6,,,,,,,,,10,,,,79,0
142473,note_on,0,0,7,,,,,,,,,11,,,,67,0
142473,note_on,30,0,7,,,,,,,,,11,,,,70,0
142476,note_on,30,0,8,,,,,,,,,12,,,,51,0
142480,set_tempo,40,1,0,,,,,,373832,,,,,,,,
142480,note_on,10,0,6,,,,,,,,,10,,,,70,100
142480,note_on,0,0,6,,,,,,,,,10,,,,79,100
142481,note_on,30,0,9,,,,,,,,,13,,,,51,0
142483,note_on,0,0,7,,,,,,,,,11,,,,67,100
142483,note_on,30,0,10,,,,,,,,,14,,,,39,0
142483,note_on,10,0,7,,,,,,,,,11,,,,70,100
142486,note_on,10,0,8,,,,,,,,,12,,,,51,98
142491,note_on,10,0,9,,,,,,,,,13,,,,51,89
142493,note_on,170,0,1,,,,,,,,,0,,,,79,0
142493,note_on,10,0,10,,,,,,,,,14,,,,39,73
142494,note_on,170,0,4,,,,,,,,,4,,,,58,0
142495,note_on,170,0,2,,,,,,,,,1,,,,75,0
142495,note_on,0,0,2,,,,,,,,,1,,,,63,0
142496,note_on,170,0,5,,,,,,,,,5,,,,46,0
142502,note_on,170,0,3,,,,,,,,,3,,,,51,0
142503,note_on,10,0,1,,,,,,,,,0,,,,79,82
142504,note_on,10,0,4,,,,,,,,,4,,,,58,86
142505,note_on,10,0,2,,,,,,,,,1,,,,75,81
142505,note_on,0,0,2,,,,,,,,,1,,,,63,81
142506,note_on,10,0,5,,,,,,,,,5,,,,46,86
142510,note_on,0,0,6,,,,,,,,,10,,,,70,0
142510,note_on,30,0,6,,,,,,,,,10,,,,79,0
142512,note_on,10,0,3,,,,,,,,,3,,,,51,81
142513,note_on,0,0,7,,,,,,,,,11,,,,70,0
142513,note_on,30,0,7,,,,,,,,,11,,,,67,0
142516,note_on,30,0,8,,,,,,,,,12,,,,51,0
142520,note_on,10,0,6,,,,,,,,,10,,,,70,92
142520,note_on,0,0,6,,,,,,,,,10,,,,79,92
142521,note_on,30,0,9,,,,,,,,,13,,,,51,0
142523,note_on,30,0,10,,,,,,,,,14,,,,39,0
142523,note_on,10,0,7,,,,,,,,,11,,,,70,92
142523,note_on,0,0,7,,,,,,,,,11,,,,67,92
142526,note_on,10,0,8,,,,,,,,,12,,,,51,90
142531,note_on,10,0,9,,,,,,,,,13,,,,51,81
142533,note_on,10,0,10,,,,,,,,,14,,,,39,65
142550,note_on,30,0,6,,,,,,,,,10,,,,79,0
142550,note_on,0,0,6,,,,,,,,,10,,,,70,0
142553,note_on,30,0,7,,,,,,,,,11,,,,67,0
142553,note_on,50,0,1,,,,,,,,,0,,,,79,0
142553,note_on,0,0,7,,,,,,,,,11,,,,70,0
142554,note_on,50,0,4,,,,,,,,,4,,,,58,0
142555,note_on,0,0,2,,,,,,,,,1,,,,75,0
142555,note_on,50,0,2,,,,,,,,,1,,,,63,0
142556,note_on,50,0,5,,,,,,,,,5,,,,46,0
142556,note_on,30,0,8,,,,,,,,,12,,,,51,0
142560,set_tempo,80,1,0,,,,,,362538,,,,,,,,
142560,note_on,0,0,6,,,,,,,,,10,,,,82,100
142560,note_on,10,0,6,,,,,,,,,10,,,,70,100
142561,note_on,30,0,9,,,,,,,,,13,,,,51,0
142562,note_on,50,0,3,,,,,,,,,3,,,,51,0
142563,note_on,10,0,7,,,,,,,,,11,,,,70,100
142563,note_on,10,0,1,,,,,,,,,0,,,,82,82
142563,note_on,0,0,7,,,,,,,,,11,,,,63,100
142563,note_on,30,0,10,,,,,,,,,14,,,,39,0
142564,note_on,10,0,4,,,,,,,,,4,,,,58,86
142565,note_on,0,0,2,,,,,,,,,1,,,,67,81
142565,note_on,10,0,2,,,,,,,,,1,,,,75,81
142566,note_on,10,0,5,,,,,,,,,5,,,,46,86
142566,note_on,10,0,8,,,,,,,,,12,,,,55,98
142571,note_on,10,0,9,,,,,,,,,13,,,,55,89
142572,note_on,10,0,3,,,,,,,,,3,,,,55,81
142573,note_on,10,0,10,,,,,,,,,14,,,,43,73
142590,note_on,0,0,6,,,,,,,,,10,,,,70,0
142590,note_on,30,0,6,,,,,,,,,10,,,,82,0
142593,note_on,0,0,7,,,,,,,,,11,,,,70,0
142593,note_on,30,0,7,,,,,,,,,11,,,,63,0
142596,note_on,30,0,8,,,,,,,,,12,,,,55,0
142600,set_tempo,40,1,0,,,,,,346821,,,,,,,,
142600,note_on,10,0,6,,,,,,,,,10,,,,70,92
142600,note_on,0,0,6,,,,,,,,,10,,,,82,92
142601,note_on,30,0,9,,,,,,,,,13,,,,55,0
142603,note_on,10,0,7,,,,,,,,,11,,,,63,92
142603,note_on,30,0,10,,,,,,,,,14,,,,43,0
142603,note_on,0,0,7,,,,,,,,,11,,,,70,92
142606,note_on,10,0,8,,,,,,,,,12,,,,55,90
142611,note_on,10,0,9,,,,,,,,,13,,,,55,81
142613,note_on,10,0,10,,,,,,,,,14,,,,43,65
142630,note_on,30,0,6,,,,,,,,,10,,,,82,0
142630,note_on,0,0,6,,,,,,,,,10,,,,70,0
142633,note_on,30,0,7,,,,,,,,,11,,,,70,0
142633,note_on,0,0,7,,,,,,,,,11,,,,63,0
142636,note_on,30,0,8,,,,,,,,,12,,,,55,0
142640,note_on,0,0,6,,,,,,,,,10,,,,70,100
142640,note_on,10,0,6,,,,,,,,,10,,,,82,100
142641,note_on,30,0,9,,,,,,,,,13,,,,55,0
142643,note_on,10,0,7,,,,,,,,,11,,,,63,100
142643,note_on,30,0,10,,,,,,,,,14,,,,43,0
142643,note_on,0,0,7,,,,,,,,,11,,,,70,100
142646,note_on,10,0,8,,,,,,,,,12,,,,55,98
142651,note_on,10,0,9,,,,,,,,,13,,,,55,89
142653,note_on,10,0,10,,,,,,,,,14,,,,43,73
142670,note_on,30,0,6,,,,,,,,,10,,,,70,0
142670,note_on,0,0,6,,,,,,,,,10,,,,82,0
142673,note_on,0,0,7,,,,,,,,,11,,,,63,0
142673,note_on,30,0,7,,,,,,,,,11,,,,70,0
142676,note_on,30,0,8,,,,,,,,,12,,,,55,0
142680,set_tempo,80,1,0,,,,,,390879,,,,,,,,
142680,note_on,10,0,6,,,,,,,,,10,,,,70,92
142680,note_on,0,0,6,,,,,,,,,10,,,,82,92
142681,note_on,30,0,9,,,,,,,,,13,,,,55,0
142683,note_on,30,0,10,,,,,,,,,14,,,,43,0
142683,note_on,0,0,7,,,,,,,,,11,,,,63,92
142683,note_on,10,0,7,,,,,,,,,11,,,,70,92
142686,note_on,10,0,8,,,,,,,,,12,,,,55,90
142691,note_on,10,0,9,,,,,,,,,13,,,,55,81
142693,note_on,10,0,10,,,,,,,,,14,,,,43,65
142710,note_on,30,0,6,,,,,,,,,10,,,,82,0
142710,note_on,0,0,6,,,,,,,,,10,,,,70,0
142713,note_on,30,0,7,,,,,,,,,11,,,,63,0
142713,note_on,0,0,7,,,,,,,,,11,,,,70,0
142716,note_on,30,0,8,,,,,,,,,12,,,,55,0
142720,set_tempo,40,1,0,,,,,,373832,,,,,,,,
142720,note_on,0,0,6,,,,,,,,,10,,,,70,100
142720,note_on,10,0,6,,,,,,,,,10,,,,82,100
142721,note_on,30,0,9,,,,,,,,,13,,,,55,0
142723,note_on,10,0,7,,,,,,,,,11,,,,63,100
142723,note_on,0,0,7,,,,,,,,,11,,,,70,100
142723,note_on,30,0,10,,,,,,,,,14,,,,43,0
142726,note_on,10,0,8,,,,,,,,,12,,,,55,98
142731,note_on,10,0,9,,,,,,,,,13,,,,55,89
142733,note_on,10,0,10,,,,,,,,,14,,,,43,73
142733,note_on,170,0,1,,,,,,,,,0,,,,82,0
142734,note_on,170,0,4,,,,,,,,,4,,,,58,0
142735,note_on,0,0,2,,,,,,,,,1,,,,75,0
142735,note_on,170,0,2,,,,,,,,,1,,,,67,0
142736,note_on,170,0,5,,,,,,,,,5,,,,46,0
142742,note_on,170,0,3,,,,,,,,,3,,,,55,0
142743,note_on,10,0,1,,,,,,,,,0,,,,82,82
142744,note_on,10,0,4,,,,,,,,,4,,,,58,86
142745,note_on,10,0,2,,,,,,,,,1,,,,67,81
142745,note_on,0,0,2,,,,,,,,,1,,,,75,81
142746,note_on,10,0,5,,,,,,,,,5,,,,46,86
142750,note_on,30,0,6,,,,,,,,,10,,,,70,0
142750,note_on,0,0,6,,,,,,,,,10,,,,82,0
142752,note_on,10,0,3,,,,,,,,,3,,,,55,81
142753,note_on,0,0,7,,,,,,,,,11,,,,63,0
142753,note_on,30,0,7,,,,,,,,,11,,,,70,0
142756,note_on,30,0,8,,,,,,,,,12,,,,55,0
142760,note_on,10,0,6,,,,,,,,,10,,,,82,92
142760,note_on,0,0,6,,,,,,,,,10,,,,70,92
142761,note_on,30,0,9,,,,,,,,,13,,,,55,0
142763,note_on,0,0,7,,,,,,,,,11,,,,70,92
142763,note_on,10,0,7,,,,,,,,,11,,,,63,92
142763,note_on,30,0,10,,,,,,,,,14,,,,43,0
142766,note_on,10,0,8,,,,,,,,,12,,,,55,90
142771,note_on,10,0,9,,,,,,,,,13,,,,55,81
142773,note_on,10,0,10,,,,,,,,,14,,,,43,65
142790,note_on,30,0,6,,,,,,,,,10,,,,70,0
142790,note_on,0,0,6,,,,,,,,,10,,,,82,0
142793,note_on,30,0,7,,,,,,,,,11,,,,70,0
142793,note_on,50,0,1,,,,,,,,,0,,,,82,0
142793,note_on,0,0,7,,,,,,,,,11,,,,63,0
142794,note_on,50,0,4,,,,,,,,,4,,,,58,0
142795,note_on,50,0,2,,,,,,,,,1,,,,75,0
142795,note_on,0,0,2,,,,,,,,,1,,,,67,0
142796,note_on,30,0,8,,,,,,,,,12,,,,55,0
142796,note_on,50,0,5,,,,,,,,,5,,,,46,0
142800,note_on,10,0,6,,,,,,,,,10,,,,82,100
142800,set_tempo,80,1,0,,,,,,362538,,,,,,,,
142800,note_on,0,0,6,,,,,,,,,10,,,,70,100
142801,note_on,30,0,9,,,,,,,,,13,,,,55,0
142802,note_on,50,0,3,,,,,,,,,3,,,,55,0
142803,note_on,10,0,7,,,,,,,,,11,,,,70,100
142803,note_on,10,0,1,,,,,,,,,0,,,,82,82
142803,note_on,0,0,7,,,,,,,,,11,,,,62,100
142803,note_on,30,0,10,,,,,,,,,14,,,,43,0
142804,note_on,10,0,4,,,,,,,,,4,,,,58,86
142805,note_on,0,0,2,,,,,,,,,1,,,,74,81
142805,note_on,10,0,2,,,,,,,,,1,,,,70,81
142806,note_on,10,0,5,,,,,,,,,5,,,,50,86
142806,note_on,10,0,8,,,,,,,,,12,,,,58,98
142811,note_on,10,0,9,,,,,,,,,13,,,,58,89
142812,note_on,10,0,3,,,,,,,,,3,,,,58,81
142813,note_on,10,0,10,,,,,,,,,14,,,,46,73
142830,note_on,0,0,6,,,,,,,,,10,,,,82,0
142830,note_on,30,0,6,,,,,,,,,10,,,,70,0
142833,note_on,30,0,7,,,,,,,,,11,,,,62,0
142833,note_on,0,0,7,,,,,,,,,11,,,,70,0
142836,note_on,30,0,8,,,,,,,,,12,,,,58,0
142840,note_on,10,0,6,,,,,,,,,10,,,,82,92
142840,note_on,0,0,6,,,,,,,,,10,,,,70,92
142840,set_tempo,40,1,0,,,,,,346821,,,,,,,,
142841,note_on,30,0,9,,,,,,,,,13,,,,58,0
142843,note_on,10,0,7,,,,,,,,,11,,,,62,92
142843,note_on,30,0,10,,,,,,,,,14,,,,46,0
142843,note_on,0,0,7,,,,,,,,,11,,,,70,92
142846,note_on,10,0,8,,,,,,,,,12,,,,58,90
142851,note_on,10,0,9,,,,,,,,,13,,,,58,81
142853,note_on,10,0,10,,,,,,,,,14,,,,46,65
142870,note_on,0,0,6,,,,,,,,,10,,,,82,0
142870,note_on,30,0,6,,,,,,,,,10,,,,70,0
142873,note_on,0,0,7,,,,,,,,,11,,,,62,0
142873,note_on,30,0,7,,,,,,,,,11,,,,70,0
142876,note_on,30,0,8,,,,,,,,,12,,,,58,0
142880,note_on,10,0,6,,,,,,,,,10,,,,82,100
142880,note_on,0,0,6,,,,,,,,,10,,,,70,100
142881,note_on,30,0,9,,,,,,,,,13,,,,58,0
142883,note_on,0,0,7,,,,,,,,,11,,,,70,100
142883,note_on,10,0,7,,,,,,,,,11,,,,62,100
142883,note_on,30,0,10,,,,,,,,,14,,,,46,0
142886,note_on,10,0,8,,,,,,,,,12,,,,58,98
142891,note_on,10,0,9,,,,,,,,,13,,,,58,89
142893,note_on,10,0,10,,,,,,,,,14,,,,46,73
142910,note_on,30,0,6,,,,,,,,,10,,,,70,0
142910,note_on,0,0,6,,,,,,,,,10,,,,82,0
142913,note_on,0,0,7,,,,,,,,,11,,,,62,0
142913,note_on,30,0,7,,,,,,,,,11,,,,70,0
142916,note_on,30,0,8,,,,,,,,,12,,,,58,0
142920,note_on,10,0,6,,,,,,,,,10,,,,74,92
142920,set_tempo,80,1,0,,,,,,390879,,,,,,,,
142921,note_on,30,0,9,,,,,,,,,13,,,,58,0
142922,note_on,110,0,3,,,,,,,,,3,,,,58,0
142923,note_on,10,0,7,,,,,,,,,11,,,,62,92
142923,note_on,30,0,10,,,,,,,,,14,,,,46,0
142926,note_on,10,0,8,,,,,,,,,12,,,,62,90
142931,note_on,10,0,9,,,,,,,,,13,,,,50,81
142932,note_on,10,0,3,,,,,,,,,3,,,,50,81
142933,note_on,10,0,10,,,,,,,,,14,,,,38,65
142950,note_on,30,0,6,,,,,,,,,10,,,,74,0
142953,note_on,30,0,7,,,,,,,,,11,,,,62,0
142956,note_on,30,0,8,,,,,,,,,12,,,,62,0
142960,set_tempo,40,1,0,,,,,,373832,,,,,,,,
142960,note_on,10,0,6,,,,,,,,,10,,,,74,100
142961,note_on,30,0,9,,,,,,,,,13,,,,50,0
142963,note_on,30,0,10,,,,,,,,,14,,,,38,0
142963,note_on,10,0,7,,,,,,,,,11,,,,62,100
142966,note_on,10,0,8,,,,,,,,,12,,,,62,98
142971,note_on,10,0,9,,,,,,,,,13,,,,50,89
142973,note_on,10,0,10,,,,,,,,,14,,,,38,73
142990,note_on,30,0,6,,,,,,,,,10,,,,74,0
142993,note_on,30,0,7,,,,,,,,,11,,,,62,0
142996,note_on,30,0,8,,,,,,,,,12,,,,62,0
143000,note_on,10,0,6,,,,,,,,,10,,,,74,92
143001,note_on,30,0,9,,,,,,,,,13,,,,50,0
143003,note_on,30,0,10,,,,,,,,,14,,,,38,0
143003,note_on,10,0,7,,,,,,,,,11,,,,62,92
143006,note_on,10,0,8,,,,,,,,,12,,,,62,90
143011,note_on,10,0,9,,,,,,,,,13,,,,50,81
143013,note_on,10,0,10,,,,,,,,,14,,,,38,65
143030,note_on,30,0,6,,,,,,,,,10,,,,74,0
143033,note_on,30,0,7,,,,,,,,,11,,,,62,0
143036,note_on,30,0,8,,,,,,,,,12,,,,62,0
143040,note_on,10,0,6,,,,,,,,,10,,,,79,100
143040,set_tempo,80,1,0,,,,,,362538,,,,,,,,
143041,note_on,30,0,9,,,,,,,,,13,,,,50,0
143042,note_on,110,0,3,,,,,,,,,3,,,,50,0
143043,note_on,30,0,10,,,,,,,,,14,,,,38,0
143043,note_on,10,0,7,,,,,,,,,11,,,,67,100
143046,note_on,10,0,8,,,,,,,,,12,,,,67,98
143051,note_on,10,0,9,,,,,,,,,13,,,,55,89
143052,note_on,10,0,3,,,,,,,,,3,,,,55,81
143053,note_on,10,0,10,,,,,,,,,14,,,,43,73
143070,note_on,30,0,6,,,,,,,,,10,,,,79,0
143073,note_on,30,0,7,,,,,,,,,11,,,,67,0
143076,note_on,30,0,8,,,,,,,,,12,,,,67,0
143080,set_tempo,40,1,0,,,,,,346821,,,,,,,,
143080,note_on,10,0,6,,,,,,,,,10,,,,79,92
143081,note_on,30,0,9,,,,,,,,,13,,,,55,0
143083,note_on,30,0,10,,,,,,,,,14,,,,43,0
143083,note_on,10,0,7,,,,,,,,,11,,,,67,92
143086,note_on,10,0,8,,,,,,,,,12,,,,67,90
143091,note_on,10,0,9,,,,,,,,,13,,,,55,81
143093,note_on,10,0,10,,,,,,,,,14,,,,43,65
143110,note_on,30,0,6,,,,,,,,,10,,,,79,0
143113,note_on,30,0,7,,,,,,,,,11,,,,67,0
143116,note_on,30,0,8,,,,,,,,,12,,,,67,0
143120,note_on,10,0,6,,,,,,,,,10,,,,79,100
143121,note_on,30,0,9,,,,,,,,,13,,,,55,0
143123,note_on,30,0,10,,,,,,,,,14,,,,43,0
143123,note_on,10,0,7,,,,,,,,,11,,,,67,100
143126,note_on,10,0,8,,,,,,,,,12,,,,67,98
143131,note_on,10,0,9,,,,,,,,,13,,,,55,89
143133,note_on,10,0,10,,,,,,,,,14,,,,43,73
143150,note_on,30,0,6,,,,,,,,,10,,,,79,0
143153,note_on,30,0,7,,,,,,,,,11,,,,67,0
143153,note_on,350,0,1,,,,,,,,,0,,,,82,0
143154,note_on,350,0,4,,,,,,,,,4,,,,58,0
143155,note_on,350,0,2,,,,,,,,,1,,,,74,0
143155,note_on,0,0,2,,,,,,,,,1,,,,70,0
143156,note_on,30,0,8,,,,,,,,,12,,,,67,0
143156,note_on,350,0,5,,,,,,,,,5,,,,50,0
143160,note_on,10,0,6,,,,,,,,,10,,,,76,92
143160,set_tempo,80,1,0,,,,,,390879,,,,,,,,
143161,note_on,30,0,9,,,,,,,,,13,,,,55,0
143162,note_on,110,0,3,,,,,,,,,3,,,,55,0
143163,note_on,30,0,10,,,,,,,,,14,,,,43,0
143163,note_on,10,0,7,,,,,,,,,11,,,,64,92
143163,note_on,10,0,1,,,,,,,,,0,,,,88,82
143164,note_on,10,0,4,,,,,,,,,4,,,,58,86
143165,note_on,0,0,2,,,,,,,,,1,,,,76,81
143165,note_on,10,0,2,,,,,,,,,1,,,,70,81
143166,note_on,10,0,5,,,,,,,,,5,,,,58,86
143166,note_on,10,0,8,,,,,,,,,12,,,,55,90
143171,note_on,10,0,9,,,,,,,,,13,,,,43,81
143172,note_on,10,0,3,,,,,,,,,3,,,,55,81
143173,note_on,10,0,10,,,,,,,,,14,,,,31,65
143190,note_on,30,0,6,,,,,,,,,10,,,,76,0
143193,note_on,30,0,7,,,,,,,,,11,,,,64,0
143196,note_on,30,0,8,,,,,,,,,12,,,,55,0
143200,set_tempo,40,1,0,,,,,,373832,,,,,,,,
143200,note_on,10,0,6,,,,,,,,,10,,,,76,100
143201,note_on,30,0,9,,,,,,,,,13,,,,43,0
143203,note_on,30,0,10,,,,,,,,,14,,,,31,0
143203,note_on,10,0,7,,,,,,,,,11,,,,64,100
143206,note_on,10,0,8,,,,,,,,,12,,,,55,98
143211,note_on,10,0,9,,,,,,,,,13,,,,43,89
143213,note_on,10,0,10,,,,,,,,,14,,,,31,73
143230,note_on,30,0,6,,,,,,,,,10,,,,76,0
143233,note_on,30,0,7,,,,,,,,,11,,,,64,0
143236,note_on,30,0,8,,,,,,,,,12,,,,55,0
143240,note_on,10,0,6,,,,,,,,,10,,,,76,92
143241,note_on,30,0,9,,,,,,,,,13,,,,43,0
143243,note_on,10,0,7,,,,,,,,,11,,,,64,92
143243,note_on,30,0,10,,,,,,,,,14,,,,31,0
143246,note_on,10,0,8,,,,,,,,,12,,,,55,90
143251,note_on,10,0,9,,,,,,,,,13,,,,43,81
143253,note_on,10,0,10,,,,,,,,,14,,,,31,65
143270,note_on,30,0,6,,,,,,,,,10,,,,76,0
143273,note_on,30,0,7,,,,,,,,,11,,,,64,0
143273,note_on,110,0,1,,,,,,,,,0,,,,88,0
143274,note_on,110,0,4,,,,,,,,,4,,,,58,0
143275,note_on,0,0,2,,,,,,,,,1,,,,70,0
143275,note_on,110,0,2,,,,,,,,,1,,,,76,0
143276,note_on,30,0,8,,,,,,,,,12,,,,55,0
143276,note_on,110,0,5,,,,,,,,,5,,,,58,0
143280,note_on,0,0,6,,,,,,,,,10,,,,77,100
143280,set_tempo,80,1,0,,,,,,362538,,,,,,,,
143280,note_on,10,0,6,,,,,,,,,10,,,,74,100
143281,note_on,30,0,9,,,,,,,,,13,,,,43,0
143282,note_on,110,0,3,,,,,,,,,3,,,,55,0
143283,note_on,10,0,1,,,,,,,,,0,,,,89,82
143283,note_on,30,0,10,,,,,,,,,14,,,,31,0
143283,note_on,10,0,7,,,,,,,,,11,,,,65,100
143284,note_on,10,0,4,,,,,,,,,4,,,,65,86
143285,note_on,0,0,2,,,,,,,,,1,,,,77,81
143285,note_on,10,0,2,,,,,,,,,1,,,,74,81
143286,note_on,10,0,8,,,,,,,,,12,,,,53,98
143286,note_on,10,0,5,,,,,,,,,5,,,,62,86
143291,note_on,10,0,9,,,,,,,,,13,,,,41,89
143292,note_on,10,0,3,,,,,,,,,3,,,,53,81
143293,note_on,10,0,10,,,,,,,,,14,,,,29,73
143310,note_on,30,0,6,,,,,,,,,10,,,,77,0
143310,note_on,0,0,6,,,,,,,,,10,,,,74,0
143313,note_on,30,0,7,,,,,,,,,11,,,,65,0
143316,note_on,30,0,8,,,,,,,,,12,,,,53,0
143320,note_on,0,0,6,,,,,,,,,10,,,,74,92
143320,set_tempo,40,1,0,,,,,,346821,,,,,,,,
143320,note_on,10,0,6,,,,,,,,,10,,,,77,92
143321,note_on,30,0,9,,,,,,,,,13,,,,41,0
143323,note_on,0,0,7,,,,,,,,,11,,,,62,92
143323,note_on,30,0,10,,,,,,,,,14,,,,29,0
143323,note_on,10,0,7,,,,,,,,,11,,,,70,92
143326,note_on,10,0,8,,,,,,,,,12,,,,53,90
143331,note_on,10,0,9,,,,,,,,,13,,,,41,81
143333,note_on,10,0,10,,,,,,,,,14,,,,29,65
143350,note_on,0,0,6,,,,,,,,,10,,,,77,0
143350,note_on,30,0,6,,,,,,,,,10,,,,74,0
143353,note_on,30,0,7,,,,,,,,,11,,,,62,0
143353,note_on,0,0,7,,,,,,,,,11,,,,70,0
143356,note_on,30,0,8,,,,,,,,,12,,,,53,0
143360,note_on,10,0,6,,,,,,,,,10,,,,77,100
143360,note_on,0,0,6,,,,,,,,,10,,,,74,100
143361,note_on,30,0,9,,,,,,,,,13,,,,41,0
143363,note_on,10,0,7,,,,,,,,,11,,,,70,100
143363,note_on,0,0,7,,,,,,,,,11,,,,62,100
143363,note_on,30,0,10,,,,,,,,,14,,,,29,0
143366,note_on,10,0,8,,,,,,,,,12,,,,53,98
143371,note_on,10,0,9,,,,,,,,,13,,,,41,89
143373,note_on,10,0,10,,,,,,,,,14,,,,29,73
143390,note_on,30,0,6,,,,,,,,,10,,,,74,0
143390,note_on,0,0,6,,,,,,,,,10,,,,77,0
143393,note_on,0,0,7,,,,,,,,,11,,,,70,0
143393,note_on,30,0,7,,,,,,,,,11,,,,62,0
143396,note_on,30,0,8,,,,,,,,,12,,,,53,0
143400,note_on,0,0,6,,,,,,,,,10,,,,77,92
143400,note_on,10,0,6,,,,,,,,,10,,,,74,92
143400,set_tempo,80,1,0,,,,,,390879,,,,,,,,
143401,note_on,30,0,9,,,,,,,,,13,,,,41,0
143403,note_on,30,0,10,,,,,,,,,14,,,,29,0
143403,note_on,10,0,7,,,,,,,,,11,,,,70,92
143403,note_on,0,0,7,,,,,,,,,11,,,,62,92
143406,note_on,10,0,8,,,,,,,,,12,,,,53,90
143411,note_on,10,0,9,,,,,,,,,13,,,,41,81
143413,note_on,10,0,10,,,,,,,,,14,,,,29,65
143430,note_on,30,0,6,,,,,,,,,10,,,,77,0
143430,note_on,0,0,6,,,,,,,,,10,,,,74,0
143433,note_on,0,0,7,,,,,,,,,11,,,,70,0
143433,note_on,30,0,7,,,,,,,,,11,,,,62,0
143436,note_on,30,0,8,,,,,,,,,12,,,,53,0
143440,set_tempo,40,1,0,,,,,,373832,,,,,,,,
143440,note_on,10,0,6,,,,,,,,,10,,,,74,100
143440,note_on,0,0,6,,,,,,,,,10,,,,77,100
143441,note_on,30,0,9,,,,,,,,,13,,,,41,0
143443,note_on,10,0,7,,,,,,,,,11,,,,70,100
143443,note_on,0,0,7,,,,,,,,,11,,,,62,100
143443,note_on,30,0,10,,,,,,,,,14,,,,29,0
143446,note_on,10,0,8,,,,,,,,,12,,,,53,98
143451,note_on,10,0,9,,,,,,,,,13,,,,41,89
143453,note_on,10,0,10,,,,,,,,,14,,,,29,73
143470,note_on,0,0,6,,,,,,,,,10,,,,74,0
143470,note_on,30,0,6,,,,,,,,,10,,,,77,0
143473,note_on,0,0,7,,,,,,,,,11,,,,70,0
143473,note_on,30,0,7,,,,,,,,,11,,,,62,0
143476,note_on,30,0,8,,,,,,,,,12,,,,53,0
143480,note_on,0,0,6,,,,,,,,,10,,,,74,92
143480,note_on,10,0,6,,,,,,,,,10,,,,77,92
143481,note_on,30,0,9,,,,,,,,,13,,,,41,0
143483,note_on,30,0,10,,,,,,,,,14,,,,29,0
143483,note_on,0,0,7,,,,,,,,,11,,,,62,92
143483,note_on,10,0,7,,,,,,,,,11,,,,70,92
143486,note_on,10,0,8,,,,,,,,,12,,,,53,90
143491,note_on,10,0,9,,,,,,,,,13,,,,41,81
143493,note_on,10,0,10,,,,,,,,,14,,,,29,65
143510,note_on,0,0,6,,,,,,,,,10,,,,77,0
143510,note_on,30,0,6,,,,,,,,,10,,,,74,0
143513,note_on,230,0,1,,,,,,,,,0,,,,89,0
143513,note_on,30,0,7,,,,,,,,,11,,,,62,0
143513,note_on,0,0,7,,,,,,,,,11,,,,70,0
143514,note_on,230,0,4,,,,,,,,,4,,,,65,0
143515,note_on,0,0,2,,,,,,,,,1,,,,74,0
143515,note_on,230,0,2,,,,,,,,,1,,,,77,0
143516,note_on,30,0,8,,,,,,,,,12,,,,53,0
143516,note_on,230,0,5,,,,,,,,,5,,,,62,0
143520,note_on,10,0,6,,,,,,,,,10,,,,75,100
143520,set_tempo,80,1,0,,,,,,362538,,,,,,,,
143521,note_on,30,0,9,,,,,,,,,13,,,,41,0
143523,note_on,30,0,10,,,,,,,,,14,,,,29,0
143523,note_on,10,0,1,,,,,,,,,0,,,,87,82
143523,note_on,0,0,7,,,,,,,,,11,,,,63,100
143523,note_on,10,0,7,,,,,,,,,11,,,,69,100
143524,note_on,10,0,4,,,,,,,,,4,,,,63,86
143525,note_on,0,0,2,,,,,,,,,1,,,,75,81
143525,note_on,10,0,2,,,,,,,,,1,,,,72,81
143526,note_on,10,0,5,,,,,,,,,5,,,,60,86
143526,note_on,10,0,8,,,,,,,,,12,,,,65,98
143531,note_on,10,0,9,,,,,,,,,13,,,,53,89
143533,note_on,10,0,10,,,,,,,,,14,,,,41,73
143550,note_on,30,0,6,,,,,,,,,10,,,,75,0
143553,note_on,30,0,7,,,,,,,,,11,,,,63,0
143553,note_on,0,0,7,,,,,,,,,11,,,,69,0
143556,note_on,30,0,8,,,,,,,,,12,,,,65,0
143560,note_on,10,0,6,,,,,,,,,10,,,,75,92
143560,set_tempo,40,1,0,,,,,,346821,,,,,,,,
143561,note_on,30,0,9,,,,,,,,,13,,,,53,0
143563,note_on,0,0,7,,,,,,,,,11,,,,69,92
143563,note_on,30,0,10,,,,,,,,,14,,,,41,0
143563,note_on,10,0,7,,,,,,,,,11,,,,63,92
143566,note_on,10,0,8,,,,,,,,,12,,,,65,90
143571,note_on,10,0,9,,,,,,,,,13,,,,53,81
143573,note_on,10,0,10,,,,,,,,,14,,,,41,65
143590,note_on,30,0,6,,,,,,,,,10,,,,75,0
143593,note_on,0,0,7,,,,,,,,,11,,,,63,0
143593,note_on,30,0,7,,,,,,,,,11,,,,69,0
143596,note_on,30,0,8,,,,,,,,,12,,,,65,0
143600,note_on,10,0,6,,,,,,,,,10,,,,75,100
143601,note_on,30,0,9,,,,,,,,,13,,,,53,0
143603,note_on,10,0,7,,,,,,,,,11,,,,69,100
143603,note_on,30,0,10,,,,,,,,,14,,,,41,0
143603,note_on,0,0,7,,,,,,,,,11,,,,63,100
143606,note_on,10,0,8,,,,,,,,,12,,,,65,98
143611,note_on,10,0,9,,,,,,,,,13,,,,53,89
143613,note_on,10,0,10,,,,,,,,,14,,,,41,73
143630,note_on,30,0,6,,,,,,,,,10,,,,75,0
143633,note_on,0,0,7,,,,,,,,,11,,,,69,0
143633,note_on,110,0,1,,,,,,,,,0,,,,87,0
143633,note_on,30,0,7,,,,,,,,,11,,,,63,0
143634,note_on,110,0,4,,,,,,,,,4,,,,63,0
143635,note_on,110,0,2,,,,,,,,,1,,,,75,0
143635,note_on,0,0,2,,,,,,,,,1,,,,72,0
143636,note_on,110,0,5,,,,,,,,,5,,,,60,0
143636,note_on,30,0,8,,,,,,,,,12,,,,65,0
143640,note_on,10,0,6,,,,,,,,,10,,,,72,92
143640,set_tempo,80,1,0,,,,,,390879,,,,,,,,
143641,note_on,30,0,9,,,,,,,,,13,,,,53,0
143643,note_on,0,0,7,,,,,,,,,11,,,,69,92
143643,note_on,30,0,10,,,,,,,,,14,,,,41,0
143643,note_on,10,0,1,,,,,,,,,0,,,,84,82
143643,note_on,10,0,7,,,,,,,,,11,,,,63,92
143644,note_on,10,0,4,,,,,,,,,4,,,,60,86
143645,note_on,0,0,2,,,,,,,,,1,,,,69,81
143645,note_on,10,0,2,,,,,,,,,1,,,,72,81
143646,note_on,10,0,8,,,,,,,,,12,,,,65,90
143646,note_on,10,0,5,,,,,,,,,5,,,,53,86
143651,note_on,10,0,9,,,,,,,,,13,,,,53,81
143653,note_on,10,0,10,,,,,,,,,14,,,,41,65
143670,note_on,30,0,6,,,,,,,,,10,,,,72,0
143673,note_on,0,0,7,,,,,,,,,11,,,,63,0
143673,note_on,30,0,7,,,,,,,,,11,,,,69,0
143676,note_on,30,0,8,,,,,,,,,12,,,,65,0
143680,set_tempo,40,1,0,,,,,,373832,,,,,,,,
143680,note_on,10,0,6,,,,,,,,,10,,,,72,100
143681,note_on,30,0,9,,,,,,,,,13,,,,53,0
143683,note_on,30,0,10,,,,,,,,,14,,,,41,0
143683,note_on,10,0,7,,,,,,,,,11,,,,69,100
143683,note_on,0,0,7,,,,,,,,,11,,,,63,100
143686,note_on,10,0,8,,,,,,,,,12,,,,65,98
143691,note_on,10,0,9,,,,,,,,,13,,,,53,89
143693,note_on,10,0,10,,,,,,,,,14,,,,41,73
143710,note_on,30,0,6,,,,,,,,,10,,,,72,0
143713,note_on,30,0,7,,,,,,,,,11,,,,63,0
143713,note_on,0,0,7,,,,,,,,,11,,,,69,0
143716,note_on,30,0,8,,,,,,,,,12,,,,65,0
143720,note_on,10,0,6,,,,,,,,,10,,,,72,92
143721,note_on,30,0,9,,,,,,,,,13,,,,53,0
143723,note_on,10,0,7,,,,,,,,,11,,,,69,92
143723,note_on,30,0,10,,,,,,,,,14,,,,41,0
143723,note_on,0,0,7,,,,,,,,,11,,,,63,92
143726,note_on,10,0,8,,,,,,,,,12,,,,65,90
143730,set_tempo,50,1,0,,,,,,459770,,,,,,,,
143731,note_on,10,0,9,,,,,,,,,13,,,,53,81
143733,note_on,10,0,10,,,,,,,,,14,,,,41,65
143750,note_on,30,0,6,,,,,,,,,10,,,,72,0
143750,control_change,0,0,6,,,,,,,,,10,11,79,,,
143753,control_change,0,0,7,,,,,,,,,11,11,79,,,
143753,note_on,0,0,7,,,,,,,,,11,,,,69,0
143753,note_on,30,0,7,,,,,,,,,11,,,,63,0
143753,note_on,110,0,1,,,,,,,,,0,,,,84,0
143754,note_on,110,0,4,,,,,,,,,4,,,,60,0
143755,note_on,0,0,2,,,,,,,,,1,,,,72,0
143755,note_on,110,0,2,,,,,,,,,1,,,,69,0
143756,note_on,110,0,5,,,,,,,,,5,,,,53,0
143756,note_on,30,0,8,,,,,,,,,12,,,,65,0
143756,control_change,0,0,8,,,,,,,,,12,11,79,,,
143759,control_change,9,0,6,,,,,,,,,10,11,75,,,
143760,note_on,1,0,6,,,,,,,,,10,,,,70,100
143760,set_tempo,30,1,0,,,,,,362538,,,,,,,,
143761,control_change,0,0,9,,,,,,,,,13,11,79,,,
143761,note_on,30,0,9,,,,,,,,,13,,,,53,0
143762,control_change,9,0,7,,,,,,,,,11,11,75,,,
143762,note_on,470,0,3,,,,,,,,,3,,,,53,0
143763,note_on,10,0,1,,,,,,,,,0,,,,82,82
143763,note_on,30,0,10,,,,,,,,,14,,,,41,0
143763,control_change,0,0,10,,,,,,,,,14,11,79,,,
143763,note_on,0,0,7,,,,,,,,,11,,,,62,100
143763,note_on,1,0,7,,,,,,,,,11,,,,70,100
143764,note_on,0,0,4,,,,,,,,,4,,,,58,86
143764,control_change,10,0,4,,,,,,,,,4,11,79,,,
143765,note_on,10,0,2,,,,,,,,,1,,,,70,81
143765,control_change,9,0,8,,,,,,,,,12,11,75,,,
143766,note_on,0,0,5,,,,,,,,,5,,,,50,86
143766,control_change,10,0,5,,,,,,,,,5,11,79,,,
143766,note_on,1,0,8,,,,,,,,,12,,,,58,98
143768,control_change,8,0,6,,,,,,,,,10,11,71,,,
143768,control_change,4,0,4,,,,,,,,,4,11,75,,,
143770,control_change,9,0,9,,,,,,,,,13,11,75,,,
143770,control_change,4,0,5,,,,,,,,,5,11,75,,,
143771,note_on,1,0,9,,,,,,,,,13,,,,46,89
143771,control_change,8,0,7,,,,,,,,,11,11,71,,,
143771,control_change,3,0,4,,,,,,,,,4,11,72,,,
143772,control_change,9,0,10,,,,,,,,,14,11,75,,,
143772,control_change,10,0,3,,,,,,,,,3,11,79,,,
143772,control_change,0,0,3,,,,,,,,,3,11,47,,,
143772,note_on,0,0,3,,,,,,,,,3,,,,46,81
143772,control_change,4,0,6,,,,,,,,,10,11,68,,,
143773,note_on,1,0,10,,,,,,,,,14,,,,34,73
143773,control_change,3,0,5,,,,,,,,,5,11,72,,,
143774,control_change,2,0,3,,,,,,,,,3,11,77,,,
143774,control_change,3,0,4,,,,,,,,,4,11,69,,,
143774,control_change,8,0,8,,,,,,,,,12,11,71,,,
143775,control_change,4,0,7,,,,,,,,,11,11,68,,,
143776,control_change,3,0,5,,,,,,,,,5,11,69,,,
143777,control_change,3,0,4,,,,,,,,,4,11,66,,,
143778,control_change,4,0,8,,,,,,,,,12,11,68,,,
143779,control_change,3,0,5,,,,,,,,,5,11,66,,,
143779,control_change,8,0,9,,,,,,,,,13,11,71,,,
143779,control_change,5,0,3,,,,,,,,,3,11,72,,,
143781,control_change,9,0,6,,,,,,,,,10,11,64,,,
143781,control_change,8,0,10,,,,,,,,,14,11,71,,,
143782,control_change,3,0,3,,,,,,,,,3,11,69,,,
143783,control_change,6,0,4,,,,,,,,,4,11,61,,,
143783,control_change,4,0,9,,,,,,,,,13,11,68,,,
143784,control_change,9,0,7,,,,,,,,,11,11,64,,,
143785,control_change,3,0,3,,,,,,,,,3,11,66,,,
143785,control_change,4,0,10,,,,,,,,,14,11,68,,,
143785,control_change,6,0,5,,,,,,,,,5,11,61,,,
143786,control_change,3,0,4,,,,,,,,,4,11,57,,,
143787,control_change,9,0,8,,,,,,,,,12,11,64,,,
143788,control_change,3,0,5,,,,,,,,,5,11,57,,,
143789,control_change,3,0,4,,,,,,,,,4,11,53,,,
143790,note_on,9,0,6,,,,,,,,,10,,,,70,0
143790,control_change,0,0,6,,,,,,,,,10,11,60,,,
143791,control_change,3,0,5,,,,,,,,,5,11,53,,,
143791,control_change,6,0,3,,,,,,,,,3,11,61,,,
143792,control_change,3,0,4,,,,,,,,,4,11,49,,,
143792,control_change,9,0,9,,,,,,,,,13,11,64,,,
143793,control_change,0,0,7,,,,,,,,,11,11,60,,,
143793,note_on,9,0,7,,,,,,,,,11,,,,62,0
143793,note_on,0,0,7,,,,,,,,,11,,,,70,0
143794,control_change,3,0,3,,,,,,,,,3,11,57,,,
143794,control_change,9,0,10,,,,,,,,,14,11,64,,,
143794,control_change,3,0,5,,,,,,,,,5,11,49,,,
143795,control_change,5,0,6,,,,,,,,,10,11,57,,,
143796,control_change,9,0,8,,,,,,,,,12,11,60,,,
143797,control_change,3,0,3,,,,,,,,,3,11,53,,,
143798,control_change,5,0,7,,,,,,,,,11,11,57,,,
143799,control_change,4,0,6,,,,,,,,,10,11,54,,,
143800,set_tempo,40,1,0,,,,,,346821,,,,,,,,
143800,control_change,3,0,3,,,,,,,,,3,11,49,,,
143800,note_on,1,0,6,,,,,,,,,10,,,,86,100
143801,control_change,9,0,9,,,,,,,,,13,11,60,,,
143801,control_change,5,0,8,,,,,,,,,12,11,57,,,
143802,control_change,4,0,7,,,,,,,,,11,11,54,,,
143803,note_on,1,0,7,,,,,,,,,11,,,,74,100
143803,control_change,9,0,10,,,,,,,,,14,11,60,,,
143804,control_change,4,0,6,,,,,,,,,10,11,51,,,
143805,control_change,4,0,8,,,,,,,,,12,11,54,,,
143806,control_change,5,0,9,,,,,,,,,13,11,57,,,
143807,control_change,4,0,7,,,,,,,,,11,11,51,,,
143808,control_change,4,0,6,,,,,,,,,10,11,48,,,
143808,control_change,5,0,10,,,,,,,,,14,11,57,,,
143810,control_change,4,0,9,,,,,,,,,13,11,54,,,
143810,control_change,5,0,8,,,,,,,,,12,11,51,,,
143811,control_change,4,0,7,,,,,,,,,11,11,48,,,
143812,control_change,4,0,10,,,,,,,,,14,11,54,,,
143814,control_change,4,0,8,,,,,,,,,12,11,48,,,
143815,control_change,5,0,9,,,,,,,,,13,11,51,,,
143817,control_change,5,0,10,,,,,,,,,14,11,51,,,
143819,control_change,4,0,9,,,,,,,,,13,11,48,,,
143821,control_change,4,0,10,,,,,,,,,14,11,48,,,
143823,note_on,60,0,1,,,,,,,,,0,,,,82,0
143824,note_on,32,0,4,,,,,,,,,4,,,,58,0
143825,note_on,60,0,2,,,,,,,,,1,,,,70,0
143826,note_on,12,0,8,,,,,,,,,12,,,,58,0
143826,note_on,32,0,5,,,,,,,,,5,,,,50,0
143830,note_on,22,0,6,,,,,,,,,10,,,,86,0
143831,note_on,12,0,9,,,,,,,,,13,,,,46,0
143832,note_on,32,0,3,,,,,,,,,3,,,,46,0
143833,note_on,12,0,10,,,,,,,,,14,,,,34,0
143833,note_on,22,0,7,,,,,,,,,11,,,,74,0
143840,note_on,10,0,6,,,,,,,,,10,,,,82,100
143843,note_on,10,0,7,,,,,,,,,11,,,,70,100
143870,note_on,30,0,6,,,,,,,,,10,,,,82,0
143873,note_on,30,0,7,,,,,,,,,11,,,,70,0
143880,note_on,10,0,6,,,,,,,,,10,,,,81,100
143880,set_tempo,80,1,0,,,,,,390879,,,,,,,,
143883,note_on,0,0,1,,,,,,,,,0,,,,89,82
143883,note_on,10,0,7,,,,,,,,,11,,,,69,100
143883,control_change,60,0,1,,,,,,,,,0,11,47,,,
143884,note_on,60,0,4,,,,,,,,,4,,,,60,86
143885,note_on,0,0,2,,,,,,,,,1,,,,81,81
143885,control_change,60,0,2,,,,,,,,,1,11,47,,,
143885,note_on,0,0,2,,,,,,,,,1,,,,72,81
143886,note_on,60,0,5,,,,,,,,,5,,,,53,86
143886,note_on,60,0,8,,,,,,,,,12,,,,60,98
143886,note_on,0,0,8,,,,,,,,,12,,,,63,98
143891,note_on,60,0,9,,,,,,,,,13,,,,53,89
143892,note_on,0,0,3,,,,,,,,,3,,,,53,81
143892,note_on,60,0,3,,,,,,,,,3,,,,63,81
143893,note_on,60,0,10,,,,,,,,,14,,,,41,73
143910,note_on,30,0,6,,,,,,,,,10,,,,81,0
143913,note_on,30,0,7,,,,,,,,,11,,,,69,0
143920,note_on,10,0,6,,,,,,,,,10,,,,84,100
143920,set_tempo,40,1,0,,,,,,373832,,,,,,,,
143923,note_on,10,0,7,,,,,,,,,11,,,,72,100
143943,note_on,60,0,1,,,,,,,,,0,,,,89,0
143944,note_on,60,0,4,,,,,,,,,4,,,,60,0
143945,note_on,0,0,2,,,,,,,,,1,,,,72,0
143945,note_on,60,0,2,,,,,,,,,1,,,,81,0
143946,note_on,0,0,8,,,,,,,,,12,,,,60,0
143946,note_on,60,0,8,,,,,,,,,12,,,,63,0
143946,note_on,60,0,5,,,,,,,,,5,,,,53,0
143950,note_on,30,0,6,,,,,,,,,10,,,,84,0
143951,note_on,60,0,9,,,,,,,,,13,,,,53,0
143952,note_on,60,0,3,,,,,,,,,3,,,,53,0
143952,note_on,0,0,3,,,,,,,,,3,,,,63,0
143953,note_on,60,0,10,,,,,,,,,14,,,,41,0
143953,note_on,30,0,7,,,,,,,,,11,,,,72,0
143960,note_on,10,0,6,,,,,,,,,10,,,,81,100
143963,note_on,10,0,7,,,,,,,,,11,,,,69,100
143990,note_on,30,0,6,,,,,,,,,10,,,,81,0
143993,note_on,30,0,7,,,,,,,,,11,,,,69,0
144000,set_tempo,80,1,0,,,,,,362538,,,,,,,,
144000,note_on,10,0,6,,,,,,,,,10,,,,82,100
144003,note_on,60,0,1,,,,,,,,,0,,,,82,82
144003,note_on,10,0,7,,,,,,,,,11,,,,70,100
144004,note_on,60,0,4,,,,,,,,,4,,,,62,86
144005,note_on,60,0,2,,,,,,,,,1,,,,74,81
144005,note_on,0,0,2,,,,,,,,,1,,,,82,81
144006,note_on,60,0,5,,,,,,,,,5,,,,58,86
144006,note_on,60,0,8,,,,,,,,,12,,,,62,98
144006,note_on,0,0,8,,,,,,,,,12,,,,58,98
144011,note_on,60,0,9,,,,,,,,,13,,,,58,89
144012,note_on,60,0,3,,,,,,,,,3,,,,62,81
144012,note_on,0,0,3,,,,,,,,,3,,,,58,81
144013,note_on,60,0,10,,,,,,,,,14,,,,46,73
144030,note_on,30,0,6,,,,,,,,,10,,,,82,0
144033,note_on,30,0,7,,,,,,,,,11,,,,70,0
144040,set_tempo,40,1,0,,,,,,346821,,,,,,,,
144040,note_on,10,0,6,,,,,,,,,10,,,,86,100
144043,note_on,10,0,7,,,,,,,,,11,,,,74,100
144063,note_on,60,0,1,,,,,,,,,0,,,,82,0
144064,note_on,60,0,4,,,,,,,,,4,,,,62,0
144065,note_on,60,0,2,,,,,,,,,1,,,,82,0
144065,note_on,0,0,2,,,,,,,,,1,,,,74,0
144066,note_on,60,0,8,,,,,,,,,12,,,,58,0
144066,note_on,0,0,8,,,,,,,,,12,,,,62,0
144066,note_on,60,0,5,,,,,,,,,5,,,,58,0
144070,note_on,30,0,6,,,,,,,,,10,,,,86,0
144071,note_on,60,0,9,,,,,,,,,13,,,,58,0
144072,note_on,0,0,3,,,,,,,,,3,,,,62,0
144072,note_on,60,0,3,,,,,,,,,3,,,,58,0
144073,note_on,30,0,7,,,,,,,,,11,,,,74,0
144073,note_on,60,0,10,,,,,,,,,14,,,,46,0
144080,note_on,10,0,6,,,,,,,,,10,,,,82,100
144083,note_on,10,0,7,,,,,,,,,11,,,,70,100
144110,note_on,30,0,6,,,,,,,,,10,,,,82,0
144113,note_on,30,0,7,,,,,,,,,11,,,,70,0
144120,note_on,10,0,6,,,,,,,,,10,,,,81,100
144120,set_tempo,80,1,0,,,,,,390879,,,,,,,,
144123,note_on,60,0,1,,,,,,,,,0,,,,89,82
144123,note_on,10,0,7,,,,,,,,,11,,,,69,100
144124,note_on,60,0,4,,,,,,,,,4,,,,60,86
144125,note_on,0,0,2,,,,,,,,,1,,,,81,81
144125,note_on,60,0,2,,,,,,,,,1,,,,72,81
144126,note_on,60,0,5,,,,,,,,,5,,,,53,86
144126,note_on,0,0,8,,,,,,,,,12,,,,60,98
144126,note_on,60,0,8,,,,,,,,,12,,,,63,98
144131,note_on,60,0,9,,,,,,,,,13,,,,53,89
144132,note_on,60,0,3,,,,,,,,,3,,,,53,81
144132,note_on,0,0,3,,,,,,,,,3,,,,63,81
144133,note_on,60,0,10,,,,,,,,,14,,,,41,73
144150,note_on,30,0,6,,,,,,,,,10,,,,81,0
144153,note_on,30,0,7,,,,,,,,,11,,,,69,0
144160,set_tempo,40,1,0,,,,,,373832,,,,,,,,
144160,note_on,10,0,6,,,,,,,,,10,,,,84,100
144163,note_on,10,0,7,,,,,,,,,11,,,,72,100
144183,note_on,60,0,1,,,,,,,,,0,,,,89,0
144184,note_on,60,0,4,,,,,,,,,4,,,,60,0
144185,note_on,60,0,2,,,,,,,,,1,,,,81,0
144185,note_on,0,0,2,,,,,,,,,1,,,,72,0
144186,note_on,60,0,5,,,,,,,,,5,,,,53,0
144186,note_on,60,0,8,,,,,,,,,12,,,,60,0
144186,note_on,0,0,8,,,,,,,,,12,,,,63,0
144190,note_on,30,0,6,,,,,,,,,10,,,,84,0
144191,note_on,60,0,9,,,,,,,,,13,,,,53,0
144192,note_on,0,0,3,,,,,,,,,3,,,,53,0
144192,note_on,60,0,3,,,,,,,,,3,,,,63,0
144193,note_on,60,0,10,,,,,,,,,14,,,,41,0
144193,note_on,30,0,7,,,,,,,,,11,,,,72,0
144200,note_on,10,0,6,,,,,,,,,10,,,,81,100
144203,note_on,10,0,7,,,,,,,,,11,,,,69,100
144230,note_on,30,0,6,,,,,,,,,10,,,,81,0
144233,note_on,30,0,7,,,,,,,,,11,,,,69,0
144240,note_on,0,0,6,,,,,,,,,10,,,,82,100
144240,set_tempo,80,1,0,,,,,,362538,,,,,,,,
144240,control_change,10,0,6,,,,,,,,,10,11,47,,,
144243,control_change,10,0,7,,,,,,,,,11,11,47,,,
144243,note_on,0,0,7,,,,,,,,,11,,,,70,100
144243,note_on,60,0,1,,,,,,,,,0,,,,82,82
144244,note_on,60,0,4,,,,,,,,,4,,,,62,86
144245,note_on,60,0,2,,,,,,,,,1,,,,74,81
144245,note_on,0,0,2,,,,,,,,,1,,,,82,81
144246,note_on,0,0,8,,,,,,,,,12,,,,58,98
144246,note_on,60,0,5,,,,,,,,,5,,,,58,86
144246,note_on,0,0,8,,,,,,,,,12,,,,62,98
144246,control_change,60,0,8,,,,,,,,,12,11,47,,,
144251,control_change,60,0,9,,,,,,,,,13,11,47,,,
144251,note_on,0,0,9,,,,,,,,,13,,,,58,89
144252,note_on,60,0,3,,,,,,,,,3,,,,62,81
144252,note_on,0,0,3,,,,,,,,,3,,,,58,81
144253,note_on,0,0,10,,,,,,,,,14,,,,46,73
144253,control_change,60,0,10,,,,,,,,,14,11,47,,,
144264,control_change,24,0,6,,,,,,,,,10,11,49,,,
144267,control_change,24,0,7,,,,,,,,,11,11,49,,,
144270,note_on,6,0,6,,,,,,,,,10,,,,82,0
144270,control_change,24,0,8,,,,,,,,,12,11,49,,,
144273,note_on,6,0,7,,,,,,,,,11,,,,70,0
144275,control_change,24,0,9,,,,,,,,,13,11,49,,,
144277,control_change,24,0,10,,,,,,,,,14,11,49,,,
144280,note_on,10,0,6,,,,,,,,,10,,,,86,100
144280,set_tempo,40,1,0,,,,,,346821,,,,,,,,
144283,note_on,10,0,7,,,,,,,,,11,,,,74,100
144288,control_change,8,0,6,,,,,,,,,10,11,51,,,
144291,control_change,8,0,7,,,,,,,,,11,11,51,,,
144294,control_change,24,0,8,,,,,,,,,12,11,51,,,
144299,control_change,24,0,9,,,,,,,,,13,11,51,,,
144301,control_change,24,0,10,,,,,,,,,14,11,51,,,
144303,note_on,60,0,1,,,,,,,,,0,,,,82,0
144304,note_on,60,0,4,,,,,,,,,4,,,,62,0
144305,note_on,60,0,2,,,,,,,,,1,,,,82,0
144305,note_on,0,0,2,,,,,,,,,1,,,,74,0
144306,note_on,60,0,5,,,,,,,,,5,,,,58,0
144306,note_on,12,0,8,,,,,,,,,12,,,,58,0
144306,note_on,0,0,8,,,,,,,,,12,,,,62,0
144310,note_on,22,0,6,,,,,,,,,10,,,,86,0
144311,note_on,12,0,9,,,,,,,,,13,,,,58,0
144312,note_on,0,0,3,,,,,,,,,3,,,,62,0
144312,control_change,2,0,6,,,,,,,,,10,11,53,,,
144312,note_on,60,0,3,,,,,,,,,3,,,,58,0
144313,note_on,12,0,10,,,,,,,,,14,,,,46,0
144313,note_on,22,0,7,,,,,,,,,11,,,,74,0
144315,control_change,2,0,7,,,,,,,,,11,11,53,,,
144318,control_change,12,0,8,,,,,,,,,12,11,53,,,
144320,note_on,8,0,6,,,,,,,,,10,,,,82,100
144323,control_change,12,0,9,,,,,,,,,13,11,53,,,
144323,note_on,8,0,7,,,,,,,,,11,,,,70,100
144325,control_change,12,0,10,,,,,,,,,14,11,53,,,
144336,control_change,16,0,6,,,,,,,,,10,11,55,,,
144339,control_change,16,0,7,,,,,,,,,11,11,55,,,
144342,control_change,24,0,8,,,,,,,,,12,11,55,,,
144347,control_change,24,0,9,,,,,,,,,13,11,55,,,
144349,control_change,24,0,10,,,,,,,,,14,11,55,,,
144350,note_on,14,0,6,,,,,,,,,10,,,,82,0
144353,note_on,14,0,7,,,,,,,,,11,,,,70,0
144360,control_change,10,0,6,,,,,,,,,10,11,57,,,
144360,set_tempo,80,1,0,,,,,,390879,,,,,,,,
144360,note_on,0,0,6,,,,,,,,,10,,,,81,100
144363,control_change,10,0,7,,,,,,,,,11,11,57,,,
144363,note_on,0,0,7,,,,,,,,,11,,,,69,100
144363,control_change,60,0,1,,,,,,,,,0,11,65,,,
144363,note_on,0,0,1,,,,,,,,,0,,,,89,82
144364,note_on,0,0,4,,,,,,,,,4,,,,60,86
144364,control_change,60,0,4,,,,,,,,,4,11,65,,,
144365,control_change,60,0,2,,,,,,,,,1,11,65,,,
144365,note_on,0,0,2,,,,,,,,,1,,,,72,81
144365,note_on,0,0,2,,,,,,,,,1,,,,81,81
144366,control_change,24,0,8,,,,,,,,,12,11,57,,,
144366,note_on,0,0,8,,,,,,,,,12,,,,63,98
144366,note_on,0,0,8,,,,,,,,,12,,,,60,98
144366,control_change,60,0,5,,,,,,,,,5,11,65,,,
144366,note_on,0,0,5,,,,,,,,,5,,,,53,86
144371,note_on,0,0,9,,,,,,,,,13,,,,53,89
144371,control_change,24,0,9,,,,,,,,,13,11,57,,,
144372,note_on,0,0,3,,,,,,,,,3,,,,63,81
144372,note_on,0,0,3,,,,,,,,,3,,,,53,81
144372,control_change,60,0,3,,,,,,,,,3,11,65,,,
144373,control_change,24,0,10,,,,,,,,,14,11,57,,,
144373,note_on,0,0,10,,,,,,,,,14,,,,41,73
144381,control_change,18,0,1,,,,,,,,,0,11,67,,,
144382,control_change,18,0,4,,,,,,,,,4,11,67,,,
144383,control_change,18,0,2,,,,,,,,,1,11,67,,,
144384,control_change,18,0,5,,,,,,,,,5,11,67,,,
144384,control_change,24,0,6,,,,,,,,,10,11,59,,,
144387,control_change,24,0,7,,,,,,,,,11,11,59,,,
144390,note_on,6,0,6,,,,,,,,,10,,,,81,0
144390,control_change,24,0,8,,,,,,,,,12,11,59,,,
144390,control_change,18,0,3,,,,,,,,,3,11,67,,,
144393,note_on,6,0,7,,,,,,,,,11,,,,69,0
144395,control_change,24,0,9,,,,,,,,,13,11,59,,,
144396,note_on,6,0,8,,,,,,,,,12,,,,60,0
144396,note_on,0,0,8,,,,,,,,,12,,,,63,0
144397,control_change,24,0,10,,,,,,,,,14,11,59,,,
144399,control_change,18,0,1,,,,,,,,,0,11,69,,,
144400,set_tempo,40,1,0,,,,,,373832,,,,,,,,
144400,note_on,10,0,6,,,,,,,,,10,,,,84,100
144400,control_change,18,0,4,,,,,,,,,4,11,69,,,
144401,note_on,6,0,9,,,,,,,,,13,,,,53,0
144401,control_change,18,0,2,,,,,,,,,1,11,69,,,
144402,control_change,18,0,5,,,,,,,,,5,11,69,,,
144403,note_on,6,0,10,,,,,,,,,14,,,,41,0
144403,note_on,10,0,7,,,,,,,,,11,,,,72,100
144406,note_on,10,0,8,,,,,,,,,12,,,,60,98
144406,note_on,0,0,8,,,,,,,,,12,,,,63,98
144408,control_change,18,0,3,,,,,,,,,3,11,69,,,
144408,control_change,8,0,6,,,,,,,,,10,11,61,,,
144411,note_on,10,0,9,,,,,,,,,13,,,,53,89
144411,control_change,8,0,7,,,,,,,,,11,11,61,,,
144413,note_on,10,0,10,,,,,,,,,14,,,,41,73
144414,control_change,8,0,8,,,,,,,,,12,11,61,,,
144417,control_change,18,0,1,,,,,,,,,0,11,71,,,
144418,control_change,18,0,4,,,,,,,,,4,11,71,,,
144419,control_change,8,0,9,,,,,,,,,13,11,61,,,
144419,control_change,18,0,2,,,,,,,,,1,11,71,,,
144420,control_change,18,0,5,,,,,,,,,5,11,71,,,
144421,control_change,8,0,10,,,,,,,,,14,11,61,,,
144426,control_change,18,0,3,,,,,,,,,3,11,71,,,
144430,note_on,22,0,6,,,,,,,,,10,,,,84,0
144432,control_change,2,0,6,,,,,,,,,10,11,62,,,
144433,note_on,22,0,7,,,,,,,,,11,,,,72,0
144435,control_change,18,0,1,,,,,,,,,0,11,73,,,
144435,control_change,2,0,7,,,,,,,,,11,11,62,,,
144436,note_on,0,0,8,,,,,,,,,12,,,,60,0
144436,control_change,18,0,4,,,,,,,,,4,11,73,,,
144436,note_on,22,0,8,,,,,,,,,12,,,,63,0
144437,control_change,18,0,2,,,,,,,,,1,11,73,,,
144438,control_change,2,0,8,,,,,,,,,12,11,62,,,
144438,control_change,18,0,5,,,,,,,,,5,11,73,,,
144440,note_on,8,0,6,,,,,,,,,10,,,,81,100
144441,note_on,22,0,9,,,,,,,,,13,,,,53,0
144443,note_on,22,0,10,,,,,,,,,14,,,,41,0
144443,note_on,8,0,1,,,,,,,,,0,,,,89,0
144443,control_change,2,0,9,,,,,,,,,13,11,62,,,
144443,note_on,8,0,7,,,,,,,,,11,,,,69,100
144444,note_on,8,0,4,,,,,,,,,4,,,,60,0
144444,control_change,18,0,3,,,,,,,,,3,11,73,,,
144445,note_on,0,0,2,,,,,,,,,1,,,,81,0
144445,control_change,2,0,10,,,,,,,,,14,11,62,,,
144445,note_on,8,0,2,,,,,,,,,1,,,,72,0
144446,note_on,8,0,8,,,,,,,,,12,,,,60,98
144446,note_on,0,0,8,,,,,,,,,12,,,,63,98
144446,note_on,8,0,5,,,,,,,,,5,,,,53,0
144451,note_on,8,0,9,,,,,,,,,13,,,,53,89
144452,note_on,0,0,3,,,,,,,,,3,,,,63,0
144452,note_on,8,0,3,,,,,,,,,3,,,,53,0
144453,note_on,0,0,1,,,,,,,,,0,,,,89,82
144453,note_on,8,0,10,,,,,,,,,14,,,,41,73
144453,control_change,10,0,1,,,,,,,,,0,11,75,,,
144454,note_on,0,0,4,,,,,,,,,4,,,,60,86
144454,control_change,10,0,4,,,,,,,,,4,11,75,,,
144455,note_on,0,0,2,,,,,,,,,1,,,,72,81
144455,note_on,0,0,2,,,,,,,,,1,,,,81,81
144455,control_change,10,0,2,,,,,,,,,1,11,75,,,
144456,control_change,10,0,5,,,,,,,,,5,11,75,,,
144456,note_on,0,0,5,,,,,,,,,5,,,,53,86
144456,control_change,16,0,6,,,,,,,,,10,11,64,,,
144459,control_change,16,0,7,,,,,,,,,11,11,64,,,
144462,control_change,16,0,8,,,,,,,,,12,11,64,,,
144462,note_on,0,0,3,,,,,,,,,3,,,,63,81
144462,note_on,0,0,3,,,,,,,,,3,,,,53,81
144462,control_change,10,0,3,,,,,,,,,3,11,75,,,
144467,control_change,16,0,9,,,,,,,,,13,11,64,,,
144469,control_change,16,0,10,,,,,,,,,14,11,64,,,
144470,note_on,14,0,6,,,,,,,,,10,,,,81,0
144471,control_change,18,0,1,,,,,,,,,0,11,77,,,
144472,control_change,18,0,4,,,,,,,,,4,11,77,,,
144473,control_change,18,0,2,,,,,,,,,1,11,77,,,
144473,note_on,14,0,7,,,,,,,,,11,,,,69,0
144473,note_on,2,0,1,,,,,,,,,0,,,,89,0
144474,note_on,2,0,4,,,,,,,,,4,,,,60,0
144474,control_change,18,0,5,,,,,,,,,5,11,77,,,
144475,note_on,2,0,2,,,,,,,,,1,,,,72,0
144475,note_on,0,0,2,,,,,,,,,1,,,,81,0
144476,note_on,0,0,8,,,,,,,,,12,,,,60,0
144476,note_on,14,0,8,,,,,,,,,12,,,,63,0
144476,note_on,2,0,5,,,,,,,,,5,,,,53,0
144480,note_on,0,0,6,,,,,,,,,10,,,,82,100
144480,set_tempo,80,1,0,,,,,,362538,,,,,,,,
144480,control_change,18,0,3,,,,,,,,,3,11,77,,,
144480,control_change,10,0,6,,,,,,,,,10,11,65,,,
144481,note_on,14,0,9,,,,,,,,,13,,,,53,0
144482,note_on,0,0,3,,,,,,,,,3,,,,63,0
144482,note_on,2,0,3,,,,,,,,,3,,,,53,0
144483,note_on,10,0,1,,,,,,,,,0,,,,86,82
144483,note_on,14,0,10,,,,,,,,,14,,,,41,0
144483,control_change,10,0,7,,,,,,,,,11,11,65,,,
144483,note_on,0,0,7,,,,,,,,,11,,,,70,100
144484,note_on,10,0,4,,,,,,,,,4,,,,62,86
144485,note_on,0,0,2,,,,,,,,,1,,,,74,81
144485,note_on,10,0,2,,,,,,,,,1,,,,82,81
144486,note_on,10,0,5,,,,,,,,,5,,,,58,86
144486,control_change,10,0,8,,,,,,,,,12,11,65,,,
144486,note_on,0,0,8,,,,,,,,,12,,,,62,98
144486,note_on,0,0,8,,,,,,,,,12,,,,58,98
144491,control_change,10,0,9,,,,,,,,,13,11,65,,,
144491,note_on,0,0,9,,,,,,,,,13,,,,58,89
144492,note_on,0,0,3,,,,,,,,,3,,,,58,81
144492,note_on,10,0,3,,,,,,,,,3,,,,62,81
144493,control_change,10,0,10,,,,,,,,,14,11,65,,,
144493,note_on,0,0,10,,,,,,,,,14,,,,46,73
144504,control_change,24,0,6,,,,,,,,,10,11,66,,,
144507,control_change,24,0,7,,,,,,,,,11,11,66,,,
144510,control_change,24,0,8,,,,,,,,,12,11,66,,,
144510,note_on,6,0,6,,,,,,,,,10,,,,82,0
144513,note_on,6,0,7,,,,,,,,,11,,,,70,0
144515,control_change,24,0,9,,,,,,,,,13,11,66,,,
144516,note_on,0,0,8,,,,,,,,,12,,,,62,0
144516,note_on,6,0,8,,,,,,,,,12,,,,58,0
144517,control_change,24,0,10,,,,,,,,,14,11,66,,,
144520,note_on,10,0,6,,,,,,,,,10,,,,86,100
144520,set_tempo,40,1,0,,,,,,346821,,,,,,,,
144521,note_on,6,0,9,,,,,,,,,13,,,,58,0
144523,note_on,10,0,7,,,,,,,,,11,,,,74,100
144523,note_on,6,0,10,,,,,,,,,14,,,,46,0
144526,note_on,0,0,8,,,,,,,,,12,,,,58,98
144526,note_on,10,0,8,,,,,,,,,12,,,,62,98
144528,control_change,8,0,6,,,,,,,,,10,11,68,,,
144531,note_on,10,0,9,,,,,,,,,13,,,,58,89
144531,control_change,8,0,7,,,,,,,,,11,11,68,,,
144533,note_on,10,0,10,,,,,,,,,14,,,,46,73
144534,control_change,8,0,8,,,,,,,,,12,11,68,,,
144539,control_change,8,0,9,,,,,,,,,13,11,68,,,
144541,control_change,8,0,10,,,,,,,,,14,11,68,,,
144550,note_on,22,0,6,,,,,,,,,10,,,,86,0
144552,control_change,2,0,6,,,,,,,,,10,11,69,,,
144553,note_on,22,0,7,,,,,,,,,11,,,,74,0
144555,control_change,2,0,7,,,,,,,,,11,11,69,,,
144556,note_on,22,0,8,,,,,,,,,12,,,,58,0
144556,note_on,0,0,8,,,,,,,,,12,,,,62,0
144558,control_change,2,0,8,,,,,,,,,12,11,69,,,
144560,note_on,8,0,6,,,,,,,,,10,,,,82,100
144561,note_on,22,0,9,,,,,,,,,13,,,,58,0
144563,note_on,8,0,7,,,,,,,,,11,,,,70,100
144563,note_on,22,0,10,,,,,,,,,14,,,,46,0
144563,note_on,80,0,1,,,,,,,,,0,,,,86,0
144563,control_change,2,0,9,,,,,,,,,13,11,69,,,
144564,note_on,80,0,4,,,,,,,,,4,,,,62,0
144565,control_change,2,0,10,,,,,,,,,14,11,69,,,
144565,note_on,80,0,2,,,,,,,,,1,,,,74,0
144565,note_on,0,0,2,,,,,,,,,1,,,,82,0
144566,note_on,8,0,8,,,,,,,,,12,,,,62,98
144566,note_on,0,0,8,,,,,,,,,12,,,,58,98
144566,note_on,80,0,5,,,,,,,,,5,,,,58,0
144571,note_on,8,0,9,,,,,,,,,13,,,,58,89
144572,note_on,80,0,3,,,,,,,,,3,,,,58,0
144572,note_on,0,0,3,,,,,,,,,3,,,,62,0
144573,note_on,10,0,1,,,,,,,,,0,,,,86,82
144573,note_on,8,0,10,,,,,,,,,14,,,,46,73
144574,note_on,10,0,4,,,,,,,,,4,,,,62,86
144575,note_on,0,0,2,,,,,,,,,1,,,,74,81
144575,note_on,10,0,2,,,,,,,,,1,,,,82,81
144576,note_on,10,0,5,,,,,,,,,5,,,,58,86
144576,control_change,16,0,6,,,,,,,,,10,11,71,,,
144579,control_change,16,0,7,,,,,,,,,11,11,71,,,
144582,control_change,16,0,8,,,,,,,,,12,11,71,,,
144582,note_on,0,0,3,,,,,,,,,3,,,,58,81
144582,note_on,10,0,3,,,,,,,,,3,,,,62,81
144587,control_change,16,0,9,,,,,,,,,13,11,71,,,
144589,control_change,16,0,10,,,,,,,,,14,11,71,,,
144590,note_on,14,0,6,,,,,,,,,10,,,,82,0
144593,note_on,14,0,7,,,,,,,,,11,,,,70,0
144593,note_on,20,0,1,,,,,,,,,0,,,,86,0
144594,note_on,20,0,4,,,,,,,,,4,,,,62,0
144595,note_on,20,0,2,,,,,,,,,1,,,,74,0
144595,note_on,0,0,2,,,,,,,,,1,,,,82,0
144596,note_on,14,0,8,,,,,,,,,12,,,,58,0
144596,note_on,0,0,8,,,,,,,,,12,,,,62,0
144596,note_on,20,0,5,,,,,,,,,5,,,,58,0
144600,control_change,10,0,6,,,,,,,,,10,11,72,,,
144600,set_tempo,80,1,0,,,,,,390879,,,,,,,,
144600,note_on,0,0,6,,,,,,,,,10,,,,81,100
144601,note_on,14,0,9,,,,,,,,,13,,,,58,0
144602,note_on,20,0,3,,,,,,,,,3,,,,58,0
144602,note_on,0,0,3,,,,,,,,,3,,,,62,0
144603,note_on,14,0,10,,,,,,,,,14,,,,46,0
144603,note_on,0,0,7,,,,,,,,,11,,,,69,100
144603,control_change,10,0,7,,,,,,,,,11,11,72,,,
144603,note_on,10,0,1,,,,,,,,,0,,,,89,82
144604,note_on,10,0,4,,,,,,,,,4,,,,60,86
144605,note_on,10,0,2,,,,,,,,,1,,,,72,81
144605,note_on,0,0,2,,,,,,,,,1,,,,81,81
144606,note_on,10,0,5,,,,,,,,,5,,,,53,86
144606,control_change,10,0,8,,,,,,,,,12,11,72,,,
144606,note_on,0,0,8,,,,,,,,,12,,,,60,98
144606,note_on,0,0,8,,,,,,,,,12,,,,63,98
144611,note_on,0,0,9,,,,,,,,,13,,,,53,89
144611,control_change,10,0,9,,,,,,,,,13,11,72,,,
144612,note_on,10,0,3,,,,,,,,,3,,,,63,81
144612,note_on,0,0,3,,,,,,,,,3,,,,53,81
144613,note_on,0,0,10,,,,,,,,,14,,,,41,73
144613,control_change,10,0,10,,,,,,,,,14,11,72,,,
144624,control_change,24,0,6,,,,,,,,,10,11,73,,,
144627,control_change,24,0,7,,,,,,,,,11,11,73,,,
144630,note_on,6,0,6,,,,,,,,,10,,,,81,0
144630,control_change,24,0,8,,,,,,,,,12,11,73,,,
144633,note_on,6,0,7,,,,,,,,,11,,,,69,0
144635,control_change,24,0,9,,,,,,,,,13,11,73,,,
144636,note_on,6,0,8,,,,,,,,,12,,,,63,0
144636,note_on,0,0,8,,,,,,,,,12,,,,60,0
144637,control_change,24,0,10,,,,,,,,,14,11,73,,,
144640,note_on,10,0,6,,,,,,,,,10,,,,84,100
144640,set_tempo,40,1,0,,,,,,373832,,,,,,,,
144641,note_on,6,0,9,,,,,,,,,13,,,,53,0
144643,note_on,10,0,7,,,,,,,,,11,,,,72,100
144643,note_on,6,0,10,,,,,,,,,14,,,,41,0
144646,note_on,10,0,8,,,,,,,,,12,,,,60,98
144646,note_on,0,0,8,,,,,,,,,12,,,,63,98
144648,control_change,8,0,6,,,,,,,,,10,11,75,,,
144651,note_on,10,0,9,,,,,,,,,13,,,,53,89
144651,control_change,8,0,7,,,,,,,,,11,11,75,,,
144653,note_on,10,0,10,,,,,,,,,14,,,,41,73
144654,control_change,8,0,8,,,,,,,,,12,11,75,,,
144659,control_change,8,0,9,,,,,,,,,13,11,75,,,
144661,control_change,8,0,10,,,,,,,,,14,11,75,,,
144670,note_on,22,0,6,,,,,,,,,10,,,,84,0
144672,control_change,2,0,6,,,,,,,,,10,11,76,,,
144673,note_on,22,0,7,,,,,,,,,11,,,,72,0
144675,control_change,2,0,7,,,,,,,,,11,11,76,,,
144676,note_on,0,0,8,,,,,,,,,12,,,,60,0
144676,note_on,22,0,8,,,,,,,,,12,,,,63,0
144678,control_change,2,0,8,,,,,,,,,12,11,76,,,
144680,note_on,8,0,6,,,,,,,,,10,,,,81,100
144681,note_on,22,0,9,,,,,,,,,13,,,,53,0
144683,control_change,2,0,9,,,,,,,,,13,11,76,,,
144683,note_on,80,0,1,,,,,,,,,0,,,,89,0
144683,note_on,22,0,10,,,,,,,,,14,,,,41,0
144683,note_on,8,0,7,,,,,,,,,11,,,,69,100
144684,note_on,80,0,4,,,,,,,,,4,,,,60,0
144685,note_on,0,0,2,,,,,,,,,1,,,,72,0
144685,note_on,80,0,2,,,,,,,,,1,,,,81,0
144685,control_change,2,0,10,,,,,,,,,14,11,76,,,
144686,note_on,8,0,8,,,,,,,,,12,,,,63,98
144686,note_on,80,0,5,,,,,,,,,5,,,,53,0
144686,note_on,0,0,8,,,,,,,,,12,,,,60,98
144691,note_on,8,0,9,,,,,,,,,13,,,,53,89
144692,note_on,80,0,3,,,,,,,,,3,,,,53,0
144692,note_on,0,0,3,,,,,,,,,3,,,,63,0
144693,note_on,8,0,10,,,,,,,,,14,,,,41,73
144693,note_on,10,0,1,,,,,,,,,0,,,,89,82
144694,note_on,10,0,4,,,,,,,,,4,,,,60,86
144695,note_on,10,0,2,,,,,,,,,1,,,,72,81
144695,note_on,0,0,2,,,,,,,,,1,,,,81,81
144696,note_on,10,0,5,,,,,,,,,5,,,,53,86
144696,control_change,16,0,6,,,,,,,,,10,11,77,,,
144699,control_change,16,0,7,,,,,,,,,11,11,77,,,
144702,control_change,16,0,8,,,,,,,,,12,11,77,,,
144702,note_on,10,0,3,,,,,,,,,3,,,,53,81
144702,note_on,0,0,3,,,,,,,,,3,,,,63,81
144707,control_change,16,0,9,,,,,,,,,13,11,77,,,
144709,control_change,16,0,10,,,,,,,,,14,11,77,,,
144710,note_on,14,0,6,,,,,,,,,10,,,,81,0
144713,note_on,20,0,1,,,,,,,,,0,,,,89,0
144713,note_on,14,0,7,,,,,,,,,11,,,,69,0
144714,note_on,20,0,4,,,,,,,,,4,,,,60,0
144715,note_on,0,0,2,,,,,,,,,1,,,,72,0
144715,note_on,20,0,2,,,,,,,,,1,,,,81,0
144716,note_on,0,0,8,,,,,,,,,12,,,,63,0
144716,note_on,20,0,5,,,,,,,,,5,,,,53,0
144716,note_on,14,0,8,,,,,,,,,12,,,,60,0
144720,set_tempo,80,1,0,,,,,,355030,,,,,,,,
144720,note_on,0,0,6,,,,,,,,,10,,,,82,100
144720,control_change,10,0,6,,,,,,,,,10,11,79,,,
144721,note_on,14,0,9,,,,,,,,,13,,,,53,0
144722,note_on,20,0,3,,,,,,,,,3,,,,63,0
144722,note_on,0,0,3,,,,,,,,,3,,,,53,0
144723,note_on,14,0,10,,,,,,,,,14,,,,41,0
144723,control_change,10,0,7,,,,,,,,,11,11,79,,,
144723,note_on,10,0,1,,,,,,,,,0,,,,86,82
144723,note_on,0,0,7,,,,,,,,,11,,,,70,100
144724,note_on,10,0,4,,,,,,,,,4,,,,62,86
144725,note_on,0,0,2,,,,,,,,,1,,,,74,81
144725,note_on,10,0,2,,,,,,,,,1,,,,82,81
144726,note_on,0,0,8,,,,,,,,,12,,,,58,98
144726,control_change,10,0,8,,,,,,,,,12,11,79,,,
144726,note_on,10,0,5,,,,,,,,,5,,,,58,86
144726,note_on,0,0,8,,,,,,,,,12,,,,62,98
144731,note_on,0,0,9,,,,,,,,,13,,,,58,89
144731,control_change,10,0,9,,,,,,,,,13,11,79,,,
144732,note_on,10,0,3,,,,,,,,,3,,,,58,81
144732,note_on,0,0,3,,,,,,,,,3,,,,62,81
144733,note_on,0,0,10,,,,,,,,,14,,,,46,73
144733,control_change,10,0,10,,,,,,,,,14,11,79,,,
144840,set_tempo,120,1,0,,,,,,419580,,,,,,,,
144840,note_on,120,0,6,,,,,,,,,10,,,,82,0
144843,note_on,120,0,1,,,,,,,,,0,,,,86,0
144843,note_on,120,0,7,,,,,,,,,11,,,,70,0
144844,note_on,120,0,4,,,,,,,,,4,,,,62,0
144845,note_on,120,0,2,,,,,,,,,1,,,,74,0
144845,note_on,0,0,2,,,,,,,,,1,,,,82,0
144846,note_on,120,0,5,,,,,,,,,5,,,,58,0
144846,note_on,120,0,8,,,,,,,,,12,,,,58,0
144846,note_on,0,0,8,,,,,,,,,12,,,,62,0
144851,note_on,120,0,9,,,,,,,,,13,,,,58,0
144852,note_on,0,0,3,,,,,,,,,3,,,,58,0
144852,note_on,120,0,3,,,,,,,,,3,,,,62,0
144853,note_on,120,0,10,,,,,,,,,14,,,,46,0
144960,note_on,0,0,6,,,,,,,,,10,,,,70,100
144960,note_on,0,0,6,,,,,,,,,10,,,,86,100
144960,set_tempo,120,1,0,,,,,,394737,,,,,,,,
144960,note_on,120,0,6,,,,,,,,,10,,,,77,100
144963,note_on,120,0,1,,,,,,,,,0,,,,86,82
144963,note_on,120,0,7,,,,,,,,,11,,,,82,100
144963,note_on,0,0,7,,,,,,,,,11,,,,74,100
144963,note_on,0,0,7,,,,,,,,,11,,,,65,100
144964,note_on,120,0,4,,,,,,,,,4,,,,58,86
144965,note_on,120,0,2,,,,,,,,,1,,,,74,81
144965,note_on,0,0,2,,,,,,,,,1,,,,77,81
144966,note_on,0,0,8,,,,,,,,,12,,,,58,98
144966,note_on,0,0,8,,,,,,,,,12,,,,70,98
144966,note_on,120,0,5,,,,,,,,,5,,,,50,86
144966,note_on,120,0,8,,,,,,,,,12,,,,65,98
144971,note_on,120,0,9,,,,,,,,,13,,,,58,89
144972,note_on,0,0,3,,,,,,,,,3,,,,46,81
144972,note_on,120,0,3,,,,,,,,,3,,,,58,81
144973,note_on,120,0,10,,,,,,,,,14,,,,46,73
145080,note_on,0,0,6,,,,,,,,,10,,,,77,0
145080,note_on,120,0,6,,,,,,,,,10,,,,70,0
145080,set_tempo,120,1,0,,,,,,504202,,,,,,,,
145080,note_on,0,0,6,,,,,,,,,10,,,,86,0
145083,note_on,120,0,7,,,,,,,,,11,,,,65,0
145083,note_on,120,0,1,,,,,,,,,0,,,,86,0
145083,note_on,0,0,7,,,,,,,,,11,,,,74,0
145083,note_on,0,0,7,,,,,,,,,11,,,,82,0
145084,note_on,120,0,4,,,,,,,,,4,,,,58,0
145085,note_on,120,0,2,,,,,,,,,1,,,,77,0
145085,note_on,0,0,2,,,,,,,,,1,,,,74,0
145086,note_on,0,0,8,,,,,,,,,12,,,,70,0
145086,note_on,120,0,5,,,,,,,,,5,,,,50,0
145086,note_on,120,0,8,,,,,,,,,12,,,,58,0
145086,note_on,0,0,8,,,,,,,,,12,,,,65,0
145091,note_on,120,0,9,,,,,,,,,13,,,,58,0
145092,note_on,0,0,3,,,,,,,,,3,,,,58,0
145092,note_on,120,0,3,,,,,,,,,3,,,,46,0
145093,note_on,120,0,10,,,,,,,,,14,,,,46,0
145200,note_on,120,0,6,,,,,,,,,10,,,,62,100
145200,set_tempo,120,1,0,,,,,,606061,,,,,,,,
145200,note_on,0,0,6,,,,,,,,,10,,,,70,100
145203,note_on,120,0,1,,,,,,,,,0,,,,82,82
145203,note_on,120,0,7,,,,,,,,,11,,,,65,100
145203,note_on,0,0,7,,,,,,,,,11,,,,58,100
145203,note_on,0,0,7,,,,,,,,,11,,,,70,100
145204,note_on,120,0,4,,,,,,,,,4,,,,58,86
145205,note_on,0,0,2,,,,,,,,,1,,,,74,81
145205,note_on,120,0,2,,,,,,,,,1,,,,70,81
145206,note_on,120,0,5,,,,,,,,,5,,,,50,86
145206,note_on,120,0,8,,,,,,,,,12,,,,58,98
145211,note_on,120,0,9,,,,,,,,,13,,,,46,89
145212,note_on,120,0,3,,,,,,,,,3,,,,34,81
145212,note_on,0,0,3,,,,,,,,,3,,,,46,81
145213,note_on,120,0,10,,,,,,,,,14,,,,34,73
145320,set_tempo,120,1,0,,,,,,1000000,,,,,,,,
145320,end_of_track,0,1,0,,,,,,,,,,,,,,
145320,note_on,0,0,6,,,,,,,,,10,,,,62,0
145320,note_on,120,0,6,,,,,,,,,10,,,,70,0
145323,note_on,120,0,1,,,,,,,,,0,,,,82,0
145323,note_on,0,0,7,,,,,,,,,11,,,,70,0
145323,note_on,0,0,7,,,,,,,,,11,,,,65,0
145323,note_on,120,0,7,,,,,,,,,11,,,,58,0
145324,note_on,120,0,4,,,,,,,,,4,,,,58,0
145325,note_on,0,0,2,,,,,,,,,1,,,,70,0
145325,note_on,120,0,2,,,,,,,,,1,,,,74,0
145326,note_on,120,0,8,,,,,,,,,12,,,,58,0
145326,note_on,120,0,5,,,,,,,,,5,,,,50,0
145331,note_on,120,0,9,,,,,,,,,13,,,,46,0
145332,note_on,120,0,3,,,,,,,,,3,,,,46,0
145332,note_on,0,0,3,,,,,,,,,3,,,,34,0
145333,note_on,120,0,10,,,,,,,,,14,,,,34,0
145440,control_change,120,0,6,,,,,,,,,10,121,0,,,
145440,end_of_track,0,1,6,,,,,,,,,,,,,,
145443,end_of_track,0,1,1,,,,,,,,,,,,,,
145443,control_change,120,0,1,,,,,,,,,0,121,0,,,
145443,end_of_track,0,1,7,,,,,,,,,,,,,,
145443,control_change,120,0,7,,,,,,,,,11,121,0,,,
145444,control_change,120,0,4,,,,,,,,,4,121,0,,,
145444,end_of_track,0,1,4,,,,,,,,,,,,,,
145445,control_change,120,0,2,,,,,,,,,1,121,0,,,
145445,end_of_track,0,1,2,,,,,,,,,,,,,,
145446,control_change,120,0,8,,,,,,,,,12,121,0,,,
145446,end_of_track,0,1,8,,,,,,,,,,,,,,
145446,control_change,120,0,5,,,,,,,,,5,121,0,,,
145446,end_of_track,0,1,5,,,,,,,,,,,,,,
145451,control_change,120,0,9,,,,,,,,,13,121,0,,,
145451,end_of_track,0,1,9,,,,,,,,,,,,,,
145452,end_of_track,0,1,3,,,,,,,,,,,,,,
145452,control_change,120,0,3,,,,,,,,,3,121,0,,,
145453,end_of_track,0,1,10,,,,,,,,,,,,,,
145453,control_change,120,0,10,,,,,,,,,14,121,0,,,
